<svg width="40" height="40" viewBox="0 0 40 40" fill="none" xmlns="http://www.w3.org/2000/svg">
<circle cx="20" cy="20" r="20" fill="#014099"/>
<g clip-path="url(#clip0_17713_28066)">
<path d="M8.03516 22.9414V21.9002C8.38006 18.8546 9.94188 16.6746 12.7141 15.3601C13.9115 14.7939 15.213 14.475 16.6187 14.3969C18.0243 14.3189 19.4234 14.3384 20.8291 14.4555C23.0547 14.6312 25.0981 14.7744 26.9657 14.8785C28.5145 14.9631 30.0438 14.9436 31.5406 14.8134C32.3866 14.7418 33.597 14.5857 34.2152 14.052C34.3063 13.9739 34.3323 13.9935 34.2933 14.1041C33.3106 16.8178 31.1566 18.9457 28.1957 19.18C27.5059 19.2321 26.8161 19.2321 26.1198 19.18C24.0503 19.0173 21.8768 18.7961 19.5926 18.5162C18.7206 18.4121 17.8551 18.3601 16.9896 18.3601C15.0699 18.3666 13.007 19.2907 12.2976 21.1844C11.8356 22.4208 11.9137 23.5922 12.5319 24.718C13.7358 26.8915 16.7358 27.0802 18.6425 25.9479C19.931 25.18 20.8226 23.872 21.2 22.4143C21.213 22.3687 21.1805 22.3167 21.1349 22.3102C19.7098 22.0303 18.3041 21.8286 16.931 21.7115C15.3106 21.5683 13.5211 22.0824 12.9419 23.7484C12.9159 23.8199 12.8898 23.8199 12.8638 23.7484C12.7987 23.5922 12.7597 23.4295 12.7336 23.2538C12.4018 20.9241 14.1132 19.2256 16.3909 19.0238C17.0807 18.9653 17.7315 18.9653 18.3432 19.0238C20.2694 19.2191 22.1827 19.4273 24.1024 19.6356C25.2868 19.7657 26.4451 19.8438 27.584 19.8633C28.8725 19.8828 30.3106 19.629 31.3258 18.8416C31.3974 18.7831 31.4169 18.7961 31.3779 18.8807C30.4668 20.9241 29.0091 22.3818 26.8096 22.7332C25.4365 22.9479 24.0243 22.7852 22.6577 22.551C22.5926 22.5379 22.5601 22.564 22.5406 22.629C21.8768 25.3818 20.1978 27.7635 17.4581 28.616C15.7336 29.1562 14.0807 29.1562 12.4929 28.616C9.85077 27.6985 8.36054 25.8113 8.03516 22.9414Z" fill="white"/>
</g>
<circle cx="20" cy="20" r="19.5" stroke="black" stroke-opacity="0.05"/>
<defs>
<clipPath id="clip0_17713_28066">
<rect width="26.2777" height="15" fill="white" transform="translate(8.03516 14)"/>
</clipPath>
</defs>
</svg>
