<svg width="40" height="40" viewBox="0 0 40 40" fill="none" xmlns="http://www.w3.org/2000/svg">
<circle cx="20" cy="20" r="20" fill="#CDEAF8"/>
<path d="M27.8143 7.15967C27.4182 8.54206 25.9383 10.94 24.0184 12.5C25.4817 14.5594 26.8192 17.5554 27.548 20.6255C27.4153 21.3875 27.0514 22.5689 26.4553 23.7962C25.6144 19.9104 23.4447 15.1399 19.7453 10.2971C17.44 11.2298 15.1601 12.3185 13.289 13.4443C14.1514 15.3477 15.8645 18.7797 17.1171 20.9563C14.8626 22.2099 12.7095 24.0225 11.809 25.2371C10.1593 22.0177 9.50569 18.5602 9.51642 16.1242C9.33931 16.7562 9.21435 17.4016 9.14278 18.0539C8.46475 23.7074 10.9437 29.9862 15.1621 32.0446C15.5259 32.2174 15.8988 32.3704 16.2791 32.5032C17.0017 32.7444 17.7481 32.908 18.5054 32.991C20.6243 33.2456 23.1062 33.0085 25.1393 31.991C31.6239 28.7482 33.1117 18.7515 27.8143 7.15967ZM16.9406 27.9189C17.9174 27.2552 18.9412 26.6635 20.0039 26.1483C20.3648 26.9375 20.718 27.8175 21.0155 28.676C19.5795 28.8779 18.1269 28.5101 16.9406 27.9189Z" fill="white"/>
<path d="M27.5461 20.6226C27.1832 22.7132 25.0769 27.9696 21.2049 28.6486C18.3084 29.1559 15.2929 27.277 14.4988 25.8731C13.6598 27.5979 14.1934 31.0437 16.2802 32.507C18.6615 33.3207 22.3287 33.4046 25.1413 31.9987C28.3802 30.0281 28.6485 25.2439 27.5461 20.6226Z" fill="url(#paint0_radial_20483_31729)"/>
<path d="M27.546 20.6265C28.6484 25.2468 28.3801 30.0281 25.1373 31.9988C31.6239 28.7482 33.1117 18.7515 27.8143 7.15967C27.4182 8.54206 25.9382 10.94 24.0183 12.5C25.4826 14.5594 26.8172 17.5534 27.546 20.6265Z" fill="url(#paint1_radial_20483_31729)"/>
<path d="M18.8205 33.0329C18.6995 33.0212 18.2566 32.9597 18.2351 32.59C17.162 32.1764 15.7191 30.8515 14.7728 29.7277C15.8703 28.5189 18 27.1209 20.0087 26.1492C21.0107 28.3384 21.9462 31.2222 21.837 32.4202C23.5228 31.7969 25.4095 30.7549 26.5266 29.835C27.7285 25.8302 25.7519 18.1593 19.7473 10.2981C17.442 11.2307 15.1621 12.3195 13.2909 13.4453C14.1533 15.3486 15.8664 18.7807 17.1191 20.9572C14.8645 22.2109 12.7114 24.0235 11.811 25.2381C10.1613 22.0187 9.50764 18.5612 9.51837 16.1252C9.34126 16.7571 9.2163 17.4025 9.14473 18.0549C8.4667 23.7084 10.9456 29.9872 15.164 32.0456C16.3128 32.5982 17.5544 32.932 18.8254 33.03L18.8205 33.0329Z" fill="url(#paint2_radial_20483_31729)" style="mix-blend-mode:multiply"/>
<path d="M18.8205 33.0329C18.6995 33.0212 18.2566 32.9597 18.2351 32.59C17.162 32.1764 15.7191 30.8515 14.7728 29.7277C15.8703 28.5189 18 27.1209 20.0087 26.1492C21.0107 28.3384 21.9462 31.2222 21.837 32.4202C23.5228 31.7969 25.4095 30.7549 26.5266 29.835C27.7285 25.8302 25.7519 18.1593 19.7473 10.2981C17.442 11.2307 15.1621 12.3195 13.2909 13.4453C14.1533 15.3486 15.8664 18.7807 17.1191 20.9572C14.8645 22.2109 12.7114 24.0235 11.811 25.2381C10.1613 22.0187 9.50764 18.5612 9.51837 16.1252C9.34126 16.7571 9.2163 17.4025 9.14473 18.0549C8.4667 23.7084 10.9456 29.9872 15.164 32.0456C16.3128 32.5982 17.5544 32.932 18.8254 33.03L18.8205 33.0329Z" fill="url(#paint3_radial_20483_31729)" style="mix-blend-mode:screen"/>
<path d="M26.5218 29.834C26.9832 28.2965 26.9754 26.2185 26.4525 23.7961C25.4116 25.9375 23.6633 28.2165 21.201 28.6487C21.1385 28.6594 21.0771 28.6672 21.0156 28.676C21.5444 30.1988 21.9014 31.6534 21.8322 32.4193C23.5219 31.7968 25.4047 30.7539 26.5218 29.834Z" fill="#003DA5"/>
<circle cx="20" cy="20" r="19.5" stroke="black" stroke-opacity="0.05"/>
<defs>
<radialGradient id="paint0_radial_20483_31729" cx="0" cy="0" r="1" gradientUnits="userSpaceOnUse" gradientTransform="translate(21.1258 24.0371) rotate(56.1847) scale(6.22331 6.99332)">
<stop stop-color="#C4DBF3"/>
<stop offset="1" stop-color="#48A6DE"/>
</radialGradient>
<radialGradient id="paint1_radial_20483_31729" cx="0" cy="0" r="1" gradientUnits="userSpaceOnUse" gradientTransform="translate(28.5375 24.8508) scale(8.55503)">
<stop stop-color="#FAFCFE"/>
<stop offset="0.07" stop-color="#D8EEF8"/>
<stop offset="0.25" stop-color="#8CCDEC"/>
<stop offset="0.41" stop-color="#50B4E1"/>
<stop offset="0.54" stop-color="#25A1DA"/>
<stop offset="0.64" stop-color="#0A96D6"/>
<stop offset="0.71" stop-color="#0092D4"/>
</radialGradient>
<radialGradient id="paint2_radial_20483_31729" cx="0" cy="0" r="1" gradientUnits="userSpaceOnUse" gradientTransform="translate(16.9789 17.9727) scale(14.8196 14.8196)">
<stop stop-color="#F8F7FC"/>
<stop offset="0.05" stop-color="#F1F0F8"/>
<stop offset="0.12" stop-color="#DCDCEC"/>
<stop offset="0.2" stop-color="#BBBCDA"/>
<stop offset="0.3" stop-color="#8D8FC0"/>
<stop offset="0.31" stop-color="#898BBE"/>
<stop offset="0.38" stop-color="#6B73AD"/>
<stop offset="0.49" stop-color="#49589A"/>
<stop offset="0.58" stop-color="#31458D"/>
<stop offset="0.67" stop-color="#233985"/>
<stop offset="0.75" stop-color="#1E3582"/>
</radialGradient>
<radialGradient id="paint3_radial_20483_31729" cx="0" cy="0" r="1" gradientUnits="userSpaceOnUse" gradientTransform="translate(28.4715 24.7415) scale(11.5124 11.5124)">
<stop stop-color="#F8F7FC"/>
<stop offset="0.05" stop-color="#F1F0F8"/>
<stop offset="0.12" stop-color="#DCDCEC"/>
<stop offset="0.2" stop-color="#BBBCDA"/>
<stop offset="0.3" stop-color="#8D8FC0"/>
<stop offset="0.31" stop-color="#898BBE"/>
<stop offset="0.38" stop-color="#6B73AD"/>
<stop offset="0.49" stop-color="#49589A"/>
<stop offset="0.58" stop-color="#31458D"/>
<stop offset="0.67" stop-color="#233985"/>
<stop offset="0.75" stop-color="#1E3582"/>
</radialGradient>
</defs>
</svg>
