<svg width="40" height="40" viewBox="0 0 40 40" fill="none" xmlns="http://www.w3.org/2000/svg">
<circle cx="20" cy="20" r="20" fill="#F6F8FA"/>
<g clip-path="url(#clip0_43896_83200)">
<path d="M27.2656 9L22.4883 29.81H30.0932L27.2656 9Z" fill="#008C5B"/>
<path d="M24.3783 21.7254C24.0637 22.9359 23.4439 24.0273 22.6013 24.9173C22.4596 25.0721 22.3083 25.2186 22.1436 25.3624C21.748 25.7157 21.3132 26.0265 20.8473 26.2922C20.8338 26.3004 20.8217 26.3086 20.8082 26.3168C20.3058 26.6263 19.813 26.8303 19.3188 26.9549C18.5991 27.1768 17.8321 27.2973 17.0368 27.2973C14.3591 27.2973 12.0083 25.9403 10.662 23.8931C9.81942 22.7976 9.30766 21.3789 9.19694 19.5372C9.04975 17.0888 10.4122 14.8992 12.3067 13.4819C12.7374 13.1423 13.2424 12.8397 13.8096 12.5863C14.4604 12.2865 15.1599 12.066 15.8931 11.9359C16.6033 11.7962 17.3595 11.7195 18.144 11.7195C18.9285 11.7195 19.632 11.7907 20.3193 11.9208C21.9154 12.1755 23.3494 12.8205 24.4783 13.7352C22.623 11.9879 20.0979 10.9116 17.3136 10.9116C11.618 10.9103 7 15.4072 7 20.9558C7 26.5044 11.618 31.0014 17.3136 31.0014C23.0091 31.0014 27.137 27.2781 27.137 21.7309L24.3783 21.7268V21.7254Z" fill="#00ADEF"/>
<path d="M32.9985 18.3857H12.8467V21.727H32.9985V18.3857Z" fill="black"/>
<path d="M28.9662 21.7281L27.2648 9L24.3887 21.7281H28.9662Z" fill="#EC1B24"/>
<path d="M13.3154 18.8125H14.4821C15.268 18.8125 15.7095 19.237 15.7095 19.9956V19.9997C15.7095 20.8076 15.2774 21.2458 14.4821 21.2458H13.3154V18.8125ZM14.3309 20.6789C14.717 20.6789 14.9223 20.4598 14.9223 20.0134V20.0093C14.9223 19.6012 14.7035 19.378 14.3309 19.378H14.0878V20.6776H14.3309V20.6789Z" fill="white"/>
<path d="M15.8105 18.8125H17.6672V19.3794H16.5843V19.7738H17.5997V20.2859H16.5843V20.6789H17.6672V21.2458H15.8105V18.8125Z" fill="white"/>
<path d="M17.7256 20.03V20.0259C17.7256 19.233 18.2468 18.7441 19.0516 18.7441C19.8564 18.7441 20.3749 19.233 20.3749 20.0259V20.03C20.3749 20.8256 19.855 21.313 19.0516 21.313C18.2482 21.313 17.7256 20.8256 17.7256 20.03ZM19.5876 20.03V20.0259C19.5876 19.6014 19.3689 19.3275 19.0516 19.3275C18.7343 19.3275 18.5142 19.6014 18.5142 20.0259V20.03C18.5142 20.4572 18.7329 20.7297 19.0516 20.7297C19.3702 20.7297 19.5876 20.4558 19.5876 20.03Z" fill="white"/>
<path d="M20.4746 18.8124H21.2483V19.8161H21.2848L22.0761 18.8124H22.8876L22.0221 19.8928L22.9281 21.2457H22.0315L21.4549 20.3516L21.2483 20.6076V21.2444H20.4746V18.811V18.8124Z" fill="white"/>
<path d="M23.6708 20.4749L22.7715 18.8125H23.5898L24.0408 19.7793H24.0772L24.5242 18.8125H25.3425L24.4432 20.4749V21.2458H23.6694V20.4749H23.6708Z" fill="white"/>
<path d="M25.7693 18.8125H26.7388L27.5976 21.2458H26.7847L26.6511 20.7625H25.8557L25.7221 21.2458H24.9092L25.768 18.8125H25.7693ZM25.9975 20.2585H26.512L26.273 19.3931H26.2365L25.9975 20.2585Z" fill="white"/>
<path d="M27.6582 18.8125H28.2577L29.2516 20.0203H29.288V18.8125H30.0172V21.2458H29.423L28.4238 20.0203H28.3874V21.2458H27.6582V18.8125Z" fill="white"/>
<path d="M30.1182 20.0287V20.0259C30.1182 19.2304 30.6124 18.7456 31.4239 18.7456C32.0842 18.7456 32.5798 19.1044 32.6351 19.6124V19.6288H31.8763L31.8722 19.6138C31.8317 19.444 31.6467 19.3289 31.4239 19.3289C31.0958 19.3289 30.9067 19.5836 30.9067 20.015V20.0177C30.9067 20.46 31.1268 20.7298 31.4671 20.7298C31.7183 20.7298 31.8979 20.5997 31.9195 20.3998L31.9235 20.3655H31.5225V19.8904H32.6675V20.2108C32.6675 20.9023 32.2138 21.3131 31.4496 21.3131C30.6137 21.3131 30.1209 20.8339 30.1209 20.0287H30.1182Z" fill="white"/>
</g>
<circle cx="20" cy="20" r="19.5" stroke="black" stroke-opacity="0.05"/>
<defs>
<clipPath id="clip0_43896_83200">
<rect width="26" height="22" fill="white" transform="translate(7 9)"/>
</clipPath>
</defs>
</svg>
