<svg width="40" height="40" viewBox="0 0 40 40" fill="none" xmlns="http://www.w3.org/2000/svg">
<circle cx="20" cy="20" r="20" fill="#F6F8FA"/>
<circle cx="20" cy="20" r="19.5" stroke="black" stroke-opacity="0.05"/>
<g clip-path="url(#clip0_14382_19313)">
<path d="M30.1115 16.5116C27.4428 15.4605 24.7473 15.5713 24.0637 16.8031C23.3801 18.0348 24.3778 20.9848 26.2767 23.4257C28.1756 25.8666 30.8547 25.7866 32.3348 23.1219C33.815 20.4572 32.7741 17.5606 30.1115 16.5116Z" fill="#F2921A"/>
<path d="M16.5398 17.3574C18.9068 18.973 21.5592 19.4636 22.4932 18.4146C23.4273 17.3656 23.1091 14.2677 21.8076 11.4676C20.506 8.66742 17.868 8.15214 15.8336 10.4206C13.7992 12.6891 14.1708 15.7438 16.5337 17.3574" fill="#1768B3"/>
<path d="M25.0264 25.8687C24.6466 23.0254 23.2383 20.7262 21.828 20.7364C20.4176 20.7467 18.3278 23.0439 17.1186 25.8892C15.9095 28.7345 17.2849 31.0379 20.3314 31.0338C23.3779 31.0297 25.4041 28.714 25.0264 25.8769" fill="#E02022"/>
<path d="M14.216 18.4782C13.7336 18.4782 13.4093 18.7759 13.4093 19.2193V19.6648H14.5568C14.5568 19.6648 14.5938 23.4504 14.5568 23.8466C14.5199 24.2428 14.4131 24.8895 13.7028 25.2261C13.087 25.5197 13.087 25.7948 13.0397 26.0473C12.9905 26.3655 13.05 26.4066 13.282 26.3491C14.1935 26.1253 15.1624 25.7599 15.6531 24.8587C15.92 24.3701 16.0267 23.8322 16.0267 23.0357V19.6648C16.5132 19.6648 16.8622 19.3487 16.8622 18.9237V18.4782H14.216Z" fill="#040000"/>
<path d="M12.9411 23.5817C12.6193 23.9926 12.2083 24.325 11.7392 24.5536C11.2701 24.7823 10.7552 24.9014 10.2333 24.9018C8.38571 24.9018 7 23.4894 7 21.6171C7 19.7449 8.38981 18.2894 10.2333 18.2894C10.7513 18.2936 11.2617 18.4145 11.7265 18.643C12.1914 18.8715 12.5988 19.2018 12.9185 19.6094C12.9185 19.6094 12.4258 20.1349 11.9557 20.1349C11.737 20.1188 11.5279 20.0388 11.3542 19.905C11.0267 19.6731 10.6346 19.5503 10.2333 19.554C9.18634 19.554 8.33233 20.4798 8.33233 21.6171C8.33233 22.7544 9.18634 23.6372 10.2333 23.6372C10.6507 23.6533 11.0622 23.5353 11.4076 23.3005C11.5835 23.1697 11.7942 23.094 12.0132 23.0829C12.5449 23.0808 12.9411 23.5817 12.9411 23.5817Z" fill="#040000"/>
</g>
<defs>
<clipPath id="clip0_14382_19313">
<rect width="26" height="22.0276" fill="white" transform="translate(7 9)"/>
</clipPath>
</defs>
</svg>
