<svg width="40" height="40" viewBox="0 0 40 40" fill="none" xmlns="http://www.w3.org/2000/svg">
<circle cx="20" cy="20" r="20" fill="#005EB8"/>
<g clip-path="url(#clip0_18006_42362)">
<path d="M4.55228 18.0868H7.31301C9.51291 18.0901 9.25253 19.1317 8.8486 20.2733C8.438 21.425 7.95729 22.4666 5.76406 22.4666H3L4.55228 18.0868ZM5.19323 21.6454H5.57379C6.3082 21.6454 6.47177 21.4618 6.88238 20.2733C7.30299 19.0949 7.27963 18.908 6.54188 18.908H6.16132L5.19323 21.6454Z" fill="white"/>
<path d="M12.5342 18C14.4737 18 14.9144 18.6376 14.3369 20.2733C13.756 21.9158 12.8647 22.5534 10.9219 22.5534C8.979 22.5534 8.54503 21.9124 9.12254 20.2733C9.69672 18.6409 10.5914 18 12.5342 18ZM11.1956 21.7822C11.7798 21.7822 11.95 21.4618 12.3707 20.2733C12.7879 19.0949 12.8413 18.7711 12.2605 18.7745C11.6763 18.7745 11.4994 19.0949 11.0854 20.2733C10.6581 21.4618 10.6081 21.7789 11.1923 21.7822" fill="white"/>
<path d="M18.0287 18C19.9716 18 20.4122 18.6376 19.8314 20.2733C19.2472 21.9158 18.3625 22.5534 16.4163 22.55C14.4701 22.55 14.0362 21.9158 14.6137 20.2733C15.1979 18.6409 16.0859 18.0033 18.0287 18ZM16.6901 21.7789C17.2709 21.7822 17.4479 21.4618 17.8651 20.2733C18.2824 19.0949 18.3358 18.7745 17.7483 18.7711C17.1708 18.7711 17.0005 19.0916 16.5766 20.2767C16.1626 21.4651 16.1092 21.7789 16.6901 21.7789Z" fill="white"/>
<path d="M23.3628 19.352L23.4029 19.2485C23.4897 18.9881 23.3929 18.7745 23.0257 18.7745C22.6184 18.7745 22.368 18.9648 22.2913 19.1584C21.9908 20.0263 25.2423 19.6057 24.6781 21.2047C24.351 22.1361 23.2927 22.5534 21.6169 22.5534C20.0413 22.5534 19.2768 22.2296 19.5973 21.3182L19.6507 21.168H21.4867L21.4534 21.2715C21.3198 21.6454 21.5268 21.7789 21.9007 21.7756C22.2846 21.7822 22.5717 21.5919 22.6585 21.3516C22.9689 20.487 19.8276 20.9176 20.3784 19.362C20.6922 18.4907 21.6503 18 23.256 18C24.9151 18 25.4726 18.4106 25.1388 19.352H23.3628Z" fill="white"/>
<path d="M27.4462 18.0901H29.8331L30.0567 22.4665H28.0338L28.1139 21.6987H26.5983L26.1376 22.4632H24.1113L27.4462 18.0901ZM28.3342 18.9847H28.3142L27.1324 20.8475H28.1973L28.3342 18.9847Z" fill="white"/>
<path d="M31.8521 18.0901L33.9719 18.0934L34.2423 20.7907H34.2656L35.2237 18.0901H36.9997L35.4507 22.4699L33.3643 22.4665L33.0539 19.7659L33.0338 19.7625L32.0724 22.4699L30.2998 22.4665L31.8521 18.0901Z" fill="white"/>
</g>
<circle cx="20" cy="20" r="19.5" stroke="black" stroke-opacity="0.05"/>
<defs>
<clipPath id="clip0_18006_42362">
<rect width="34" height="4.55336" fill="white" transform="translate(3 18)"/>
</clipPath>
</defs>
</svg>
