<svg width="40" height="40" viewBox="0 0 40 40" fill="none" xmlns="http://www.w3.org/2000/svg">
<circle cx="20" cy="20" r="20" fill="#005EB8"/>
<g clip-path="url(#clip0_14382_19318)">
<path d="M4.55228 18.0868H7.31301C9.51291 18.0901 9.25253 19.1317 8.8486 20.2733C8.438 21.425 7.95729 22.4666 5.76406 22.4666H3L4.55228 18.0868ZM5.19323 21.6454H5.57379C6.3082 21.6454 6.47177 21.4618 6.88238 20.2733C7.30299 19.0949 7.27963 18.908 6.54188 18.908H6.16132L5.19323 21.6454Z" fill="white"/>
<path d="M12.534 18C14.4735 18 14.9141 18.6376 14.3366 20.2733C13.7558 21.9158 12.8645 22.5534 10.9216 22.5534C8.97875 22.5534 8.54478 21.9124 9.1223 20.2733C9.69648 18.6409 10.5911 18 12.534 18ZM11.1953 21.7822C11.7795 21.7822 11.9498 21.4618 12.3704 20.2733C12.7877 19.0949 12.8411 18.7711 12.2602 18.7745C11.6761 18.7745 11.4991 19.0949 11.0852 20.2733C10.6579 21.4618 10.6078 21.7789 11.192 21.7822" fill="white"/>
<path d="M18.0287 18C19.9716 18 20.4122 18.6376 19.8314 20.2733C19.2472 21.9158 18.3625 22.5534 16.4163 22.55C14.4701 22.55 14.0362 21.9158 14.6137 20.2733C15.1979 18.6409 16.0859 18.0033 18.0287 18ZM16.6901 21.7789C17.2709 21.7822 17.4479 21.4618 17.8651 20.2733C18.2824 19.0949 18.3358 18.7745 17.7483 18.7711C17.1708 18.7711 17.0005 19.0916 16.5766 20.2767C16.1626 21.4651 16.1092 21.7789 16.6901 21.7789Z" fill="white"/>
<path d="M23.3633 19.352L23.4034 19.2485C23.4902 18.9881 23.3934 18.7745 23.0262 18.7745C22.6189 18.7745 22.3685 18.9648 22.2917 19.1584C21.9913 20.0263 25.2428 19.6057 24.6786 21.2047C24.3514 22.1361 23.2932 22.5534 21.6174 22.5534C20.0418 22.5534 19.2773 22.2296 19.5978 21.3182L19.6512 21.168H21.4872L21.4538 21.2715C21.3203 21.6454 21.5273 21.7789 21.9012 21.7756C22.2851 21.7822 22.5722 21.5919 22.659 21.3516C22.9694 20.487 19.8281 20.9176 20.3789 19.362C20.6927 18.4907 21.6508 18 23.2565 18C24.9156 18 25.4731 18.4106 25.1393 19.352H23.3633Z" fill="white"/>
<path d="M27.446 18.0901H29.8328L30.0565 22.4666H28.0335L28.1136 21.6988H26.5981L26.1374 22.4632H24.1111L27.446 18.0901ZM28.334 18.9848H28.3139L27.1322 20.8475H28.1971L28.334 18.9848Z" fill="white"/>
<path d="M31.8523 18.0901L33.9721 18.0935L34.2425 20.7908H34.2659L35.224 18.0901H36.9999L35.451 22.4699L33.3646 22.4666L33.0541 19.7659L33.0341 19.7626L32.0727 22.4699L30.3 22.4666L31.8523 18.0901Z" fill="white"/>
</g>
<circle cx="20" cy="20" r="19.5" stroke="black" stroke-opacity="0.05"/>
<defs>
<clipPath id="clip0_14382_19318">
<rect width="34" height="4.55336" fill="white" transform="translate(3 18)"/>
</clipPath>
</defs>
</svg>
