<svg width="40" height="40" viewBox="0 0 40 40" fill="none" xmlns="http://www.w3.org/2000/svg">
<circle cx="20" cy="20" r="20" fill="#00953B"/>
<path d="M20.0005 9C13.3836 9 8 13.9027 8 19.9215C8 25.9403 13.3836 30.8431 20.0005 30.8431C26.6216 30.8431 32 25.9403 32 19.9215C32 13.9027 26.6216 9 20.0005 9Z" fill="white"/>
<path d="M20.0016 10.502C14.2113 10.502 9.50009 14.7263 9.50009 19.9184C9.50009 25.1145 14.2113 29.3429 20.0016 29.3429C25.7897 29.3429 30.5 25.1145 30.5 19.9184C30.5 14.7263 25.7897 10.502 20.0016 10.502ZM20.0016 29.9493C13.8767 29.9493 8.89368 25.4502 8.89368 19.9184C8.89368 14.3917 13.8767 9.89563 20.0016 9.89563C26.1243 9.89563 31.1064 14.3917 31.1064 19.9184C31.1064 25.4491 26.1243 29.9493 20.0016 29.9493Z" fill="#231F20"/>
<path d="M22.7638 12.2297C22.7463 12.2276 22.7286 12.2283 22.7113 12.2318C22.4848 12.2822 22.5332 12.3708 22.5558 12.4253C22.5785 12.4799 22.7617 12.5149 22.8585 12.587C22.9563 12.656 22.9924 12.7538 23.0274 12.7847C23.0624 12.8135 23.0943 12.8979 23.0943 12.8979C23.0943 12.8979 23.0881 13.0039 23.155 13.0039C23.2168 12.9978 23.2642 12.9288 23.2446 12.8063C23.2096 12.5726 23.0027 12.3739 23.0027 12.3739C23.0027 12.3739 22.8853 12.2421 22.7638 12.2297ZM16.8706 12.8114C16.7615 12.8083 16.7738 12.8464 16.6122 12.9731C16.1664 13.3293 15.9759 13.2027 15.7803 13.4683C15.6249 13.6835 15.9378 13.7071 16.1077 13.6258C16.2776 13.5486 16.5082 13.3097 16.7615 13.1234C17.0127 12.9329 16.9664 12.8197 16.8706 12.8114ZM24.6407 14.0356C24.548 14.0335 24.5655 14.0953 24.5769 14.1303C24.5872 14.1673 24.8682 14.2507 24.896 14.3053C24.9207 14.3609 25.035 14.47 25.035 14.47C25.035 14.47 25.3954 14.6204 25.4695 15.0085C25.4695 15.0085 25.4808 15.3019 25.5127 15.3462C25.5766 15.4234 25.7753 15.409 25.801 15.4255C25.8319 15.4491 25.8792 15.4491 25.9534 15.4811C26.0316 15.5181 26.0769 15.5037 26.1202 15.5264C26.1644 15.5531 26.3096 15.6829 26.3621 15.6973C26.4929 15.7487 26.6164 15.9866 26.6555 16.0442C26.6967 16.1029 26.7801 16.2326 26.8326 16.4046C26.8521 16.4602 26.8791 16.5128 26.9129 16.5611C26.9129 16.5611 26.9356 16.6074 26.9891 16.5837C27.0416 16.5611 27.0571 16.5055 27.0529 16.4344C27.0457 16.3654 26.8234 15.9876 26.8234 15.9876C26.8234 15.9876 26.7019 15.7951 26.636 15.7714C26.5742 15.7487 26.567 15.7055 26.4949 15.5387C26.4198 15.374 25.9935 14.8932 25.8895 14.8242C25.7897 14.7583 25.5621 14.7264 25.4159 14.5761C25.3408 14.4958 25.2893 14.3207 25.1761 14.2507C25.0649 14.1838 24.7333 14.0397 24.6407 14.0356ZM14.3153 14.7563C14.2067 14.7658 14.1014 14.7985 14.0064 14.852C13.5534 15.1012 13.4741 15.3596 13.4298 15.4399C13.3856 15.5222 13.4401 15.5861 13.4968 15.5058C13.5544 15.4234 13.6738 15.269 13.7305 15.2072C13.7871 15.1485 14.0393 15.0569 14.0733 15.0672C14.1073 15.0775 15.1039 15.0867 14.7868 15.9135C14.7868 15.9135 14.5119 16.2182 14.5068 16.4077C14.5006 16.5981 14.4594 16.6321 14.6046 16.6723C14.7539 16.7134 14.7415 16.5847 14.7868 16.4406C14.8342 16.2985 14.8342 16.0257 14.8671 15.9639C14.9011 15.9021 15.2244 15.3174 15.0215 15.0816C14.8681 14.9055 14.6128 14.7336 14.3153 14.7563ZM19.251 17.8583C19.0358 17.8799 18.9061 18.2547 18.8731 18.3648C18.8288 18.5193 18.8505 18.8734 18.8505 18.8734C18.8299 19.1123 18.6219 19.4088 18.5962 19.4582C18.5735 19.5128 18.5385 19.6919 18.5581 19.7115C18.5848 19.7321 18.7022 20.4775 18.6971 20.5352C18.6857 20.6237 18.6394 20.6566 18.6394 20.6566C18.6394 20.6566 18.3779 21.0901 18.3285 21.1941C18.2821 21.297 18.1071 21.3331 18.1071 21.3331C18.1071 21.3331 18.0145 21.3207 17.9692 21.3207C17.9249 21.3207 17.5512 21.3825 17.5512 21.3825L17.3761 21.4134C17.3092 21.4278 17.2145 21.3495 17.1682 21.2692C17.1218 21.1869 17.2485 21.051 17.2485 21.016C17.2485 20.981 17.3411 20.8286 17.3411 20.7452C17.3411 20.6628 17.3895 20.4507 17.3895 20.4507C17.8384 19.7527 17.7118 19.5344 17.6778 19.3779C17.6469 19.2194 17.3998 19.3337 17.3998 19.3337C17.2866 19.3337 16.9839 19.7115 16.8428 19.7311C16.7038 19.7517 16.5463 19.8268 16.3795 20.0111C16.2004 20.1975 15.9245 20.18 15.9245 20.18C15.9245 20.18 15.7968 20.1388 15.6825 19.9823C15.5384 19.7887 15.7299 19.3203 15.8061 19.1936C16.0109 18.8384 16.431 18.6408 16.6153 18.545C17.0642 18.302 16.6225 18.2742 16.6225 18.2742C16.6225 18.2742 16.3528 18.3546 16.1746 18.2835C15.7422 18.1044 15.7083 18.2722 15.6135 18.4174C15.5271 18.545 15.1636 18.6264 15.1008 19.0042C15.0699 19.1957 15.0782 19.2513 15.0782 19.2513C15.1492 19.9617 14.7405 20.6206 14.6705 20.808C14.6365 20.9006 14.446 21.2322 14.3173 21.2919C14.2144 21.3361 14.0085 21.4298 14.0198 21.4968C14.026 21.539 14.0877 21.5482 14.0877 21.5482C14.0877 21.5482 14.3832 21.5946 14.4522 21.7387C14.5191 21.8828 14.5788 22.2761 14.4295 22.4491C14.3163 22.5726 14.271 22.5459 14.1989 22.5418C14.1828 22.5422 14.167 22.5463 14.1527 22.5538C14.1384 22.5613 14.126 22.572 14.1166 22.585C14.1166 22.585 14.4748 23.1821 14.6365 23.2614C14.7971 23.3458 14.8939 23.0761 14.8939 23.0761C14.8939 23.0761 14.8928 22.7003 14.9124 22.6138C14.9392 22.5335 15.0565 21.6975 15.0565 21.6975C15.0565 21.6975 15.177 21.1879 15.2388 21.0901C15.3016 20.9923 15.5209 20.8358 15.5209 20.8358C15.5209 20.8358 15.8565 20.633 15.9759 20.5702C16.0902 20.5063 16.396 20.4693 16.4742 20.4106C16.5217 20.3747 16.567 20.3362 16.6101 20.2953C16.9375 20.1923 16.9571 20.3581 16.9839 20.4826C17.0076 20.6124 16.8428 20.7967 16.8428 20.7967C16.7738 20.981 16.7244 21.1333 16.7244 21.1333C16.7244 21.1333 16.5638 21.3197 16.4742 21.504C16.3785 21.6975 16.4742 21.8447 16.4948 21.9879C16.5175 22.132 16.6554 22.3029 16.7244 22.3225C16.7965 22.3431 17.1671 22.2164 17.1671 22.2164C17.7231 22.3225 18.2368 22.1135 18.3769 22.132C18.5117 22.1526 18.5395 22.2627 18.5395 22.2627C18.5848 22.6797 18.7084 22.8239 18.8618 22.9309C19.0481 23.0514 18.7691 23.0946 18.7228 23.9502C18.6826 24.6729 18.8608 24.537 18.7691 25.0178C18.7537 25.1084 18.2111 25.8106 18.1205 26.0834C18.0268 26.3573 17.9805 26.4582 17.7962 26.5467C17.6078 26.6291 17.127 27.183 16.9664 27.2468C16.8047 27.3138 16.5484 27.3138 16.4557 27.3529C16.3998 27.3803 16.3555 27.4268 16.331 27.4841C16.3064 27.5413 16.3032 27.6054 16.3219 27.6648C16.3641 27.809 16.8922 27.9613 17.2485 28.0633C17.6315 28.1745 18.3048 28.3001 18.4016 28.2785C18.4922 28.2579 18.8844 28.3845 18.8844 28.3845L19.0708 28.4885C19.0708 28.4885 19.9747 28.7829 20.1168 28.7593C20.2558 28.7366 20.4422 28.4885 20.7448 28.5708C21.0434 28.6553 21.2802 28.472 21.2802 28.472C21.2802 28.472 21.2534 28.3413 21.9278 28.4452C22.6011 28.5482 22.5188 28.3186 22.6022 28.2785C22.6454 28.2609 22.7607 28.2785 22.8081 28.2579C22.8585 28.2352 22.911 28.1343 22.9502 28.1117C22.9913 28.0911 23.0891 28.0797 23.1828 28.0499C23.2755 28.0159 23.3898 27.881 23.3898 27.881C23.3898 27.881 23.4413 27.8028 23.4804 27.7801C23.5226 27.7513 23.5442 27.7596 23.6204 27.7369C23.7048 27.7112 24.0219 27.5238 24.0621 27.4836C24.1043 27.4424 24.0991 27.4198 24.1341 27.3827C24.1681 27.3395 24.3864 27.1892 24.3864 27.0852C24.3864 26.9822 24.232 26.8999 24.1794 26.8793C24.1311 26.8587 24.0415 26.8556 23.9241 26.836C23.8088 26.8154 22.1121 26.2945 22.1121 26.2945C22.1121 26.2945 22.0421 26.1915 21.9052 26.0412C21.7641 25.8991 21.3698 25.4554 21.2998 25.1023C21.2308 24.7512 21.3924 24.1242 21.3924 23.9739C21.3924 23.8297 21.2998 23.4056 21.2998 23.3253C21.2998 23.2429 21.1618 22.9917 21.0692 22.6797C20.9775 22.3667 21.1618 22.029 21.2998 21.9065C21.4377 21.7789 21.6261 21.6543 21.6261 21.6543L21.7888 21.5956C22.1584 21.3609 21.7888 21.1941 21.7888 21.1941C21.6035 21.1344 21.3688 20.9233 21.3688 20.9233C20.716 20.4971 21.0094 19.9617 21.0094 19.9617C21.1268 19.5849 21.8815 19.6044 21.8815 19.6044C21.8815 19.6044 22.0658 19.5849 21.9505 19.3965C21.8351 19.2111 21.8815 19.3563 21.8578 19.2513C21.8351 19.1473 21.4305 18.894 21.3265 18.6861C21.2195 18.4812 21.2936 18.3195 21.2401 18.231C21.1845 18.1476 21.0465 18.1167 21.0465 18.1167L20.5801 18.1878C20.5801 18.1878 20.4875 18.1878 20.3701 18.2887C20.2548 18.3926 20.0715 18.3525 20.0715 18.3525C19.9325 18.3648 19.5948 18.1054 19.5948 18.1054C19.4641 17.9108 19.3477 17.848 19.251 17.8583ZM19.8903 19.2029C20.0108 19.2153 20.1137 19.2822 20.1395 19.345C20.1765 19.4294 20.3588 19.4428 20.0942 20.2881C20.0942 20.2881 20.0705 20.4425 20.0942 20.4837C20.1158 20.5228 20.0561 21.122 19.9325 21.297C19.8018 21.4762 19.7451 21.1858 19.7451 21.1858C19.7451 21.1858 19.6875 20.3467 19.5351 20.2242C19.5351 20.2242 19.4548 20.146 19.4322 19.973C19.4085 19.8001 19.4836 19.9009 19.5032 19.7228C19.5125 19.6044 19.462 19.5293 19.5032 19.449C19.5032 19.449 19.6062 19.2513 19.7678 19.2111C19.809 19.2008 19.8502 19.1988 19.8913 19.2029H19.8903ZM11.9545 19.4881C11.9545 19.4881 11.902 19.5004 11.8618 19.5828C11.8206 19.6631 11.8073 20.2129 11.8073 20.2129C11.8073 20.2129 11.7949 20.4579 11.8484 20.494C11.902 20.529 11.9699 20.5156 11.9957 20.4116C12.0214 20.3087 11.9699 19.9957 11.9699 19.9627C11.9699 19.9287 12.0749 19.6271 12.0502 19.5941C12.0214 19.5591 11.9545 19.4881 11.9545 19.4881ZM14.1557 19.6734C14.1557 19.6734 13.8468 19.73 13.7696 19.9071C13.6893 20.0821 13.8314 20.0224 13.9374 20.0492C14.0404 20.0698 14.2463 19.8248 14.2864 19.7434C14.3256 19.6611 14.1557 19.6734 14.1557 19.6734ZM22.9007 19.6878C22.9007 19.6878 22.7164 19.7712 22.7854 19.902C22.8544 20.0255 23.1828 20.0852 23.1828 20.0852C23.1828 20.0852 23.6008 20.3581 23.6008 20.566C23.6008 20.7771 23.5751 21.0901 23.5751 21.1508C23.5751 21.2147 23.6204 21.6306 23.6008 21.6975C23.5751 21.7583 23.4804 21.9055 23.2292 21.8828C23.2292 21.8828 22.9965 21.9055 23.2034 22.029C23.4135 22.1536 23.5123 22.132 23.5555 22.1536C23.5967 22.1763 23.6183 22.2627 23.6472 22.2803C23.6708 22.2998 23.9478 22.4491 24.0868 22.4089C24.2227 22.3657 24.3153 22.4985 24.4821 22.237C24.5851 22.0743 24.511 21.3259 24.4667 21.122C24.3957 20.8028 24.3926 20.6556 24.3864 20.5938C24.3782 20.3735 24.4667 20.3509 24.4667 20.3509C24.4667 20.3509 24.5233 20.252 24.3987 20.2603C24.269 20.2716 23.7913 20.2531 23.676 20.1789C23.5304 20.0714 23.3944 19.9515 23.2693 19.8206C23.2353 19.7774 22.9007 19.6878 22.9007 19.6878ZM13.7377 21.7892C13.6934 21.7933 13.6481 21.8118 13.6481 21.8653C13.6481 21.9807 13.7408 22.0888 13.8005 22.1176C13.9529 22.1927 13.9889 22.1824 14.0774 22.0785C14.168 21.9776 14.0218 21.8427 14.0218 21.8427L13.8293 21.7943C13.8293 21.7943 13.783 21.784 13.7377 21.7892Z" fill="#231F20"/>
<path d="M21.4749 11.299C21.3556 11.316 21.2431 11.3652 21.1496 11.4411C21.1496 11.4411 20.9426 11.5101 20.8592 11.541C20.7758 11.5698 20.6718 11.541 20.4639 11.4308C20.2549 11.331 20.1632 11.3855 20.0932 11.4308C20.0253 11.4823 19.8482 11.3773 19.7216 11.4143C19.5939 11.4555 19.5311 11.6553 19.3736 11.7057C19.2181 11.7572 18.6251 11.4596 18.4006 11.541C18.17 11.6192 18.1031 11.9322 17.89 11.9363C17.7922 11.9384 17.6717 11.7747 17.3989 11.7057C17.2856 11.6769 16.6092 11.9147 16.8882 12.3564L17.1909 12.6467C17.1909 12.6467 17.3083 12.9494 17.2856 13.004C17.2506 13.0668 17.0756 13.3128 16.8017 13.4621C16.4332 13.6691 16.5166 13.735 16.1449 13.9223C16.0007 13.9924 15.7073 13.9862 15.6126 13.9429C15.5199 13.9007 15.3326 13.6516 15.4479 13.421C15.5673 13.1872 16.3271 12.8341 16.4476 12.6272C16.5691 12.4213 16.7039 11.5173 16.0522 11.9147C16.0522 11.9147 15.7681 12.0588 15.5199 12.3358C15.2677 12.6035 14.9125 13.4868 14.9125 13.6722C14.9125 13.8565 14.9568 14.2765 15.0083 14.4031C15.0597 14.5339 15.4242 14.8644 15.4716 15.0075C15.521 15.1558 15.5436 15.4481 15.4973 15.5326C15.4479 15.6129 15.2873 15.9269 15.2873 16.0731C15.2873 16.2172 15.0834 16.7052 15.0566 16.7526C15.0258 16.8 14.9176 16.9173 14.824 16.9317C14.7262 16.9482 14.4749 16.9317 14.4029 16.8494C14.3339 16.765 14.3112 16.6074 14.3112 16.6074C14.3112 16.6074 14.2423 16.4046 14.2618 16.3212C14.2999 16.1637 14.2618 16.1524 14.3339 16.0535C14.5841 15.7138 14.5419 15.5388 14.4749 15.512C14.2423 15.4028 13.9849 15.3823 13.8696 15.5727C13.7553 15.7622 13.4763 16.0309 13.3115 15.9907C13.1499 15.9495 12.9635 15.8878 13.0562 15.5933C13.1509 15.3009 13.1499 14.6976 14.2886 14.3208C14.2886 14.3208 14.4749 14.2106 14.3339 14.0469C14.198 13.8791 13.5452 14.0902 13.3846 14.1705C13.2199 14.259 13.0119 14.466 12.9419 14.675C12.8719 14.884 12.5919 14.9045 12.5486 14.989C12.5033 15.0713 12.4766 15.512 12.5023 15.6355C12.5229 15.7622 12.3582 15.8239 12.2923 15.8023C12.2233 15.7838 12.1512 15.5727 11.7796 15.9495C11.4089 16.3253 11.2699 16.6383 11.2236 16.8041C11.1742 16.976 10.9044 17.0584 10.853 17.3065C10.7716 17.673 10.9137 17.9798 11.0517 18.0663C11.2586 18.2043 11.3914 18.6974 11.271 18.8725C11.1948 18.9857 11.063 18.96 10.9477 18.855C10.9147 18.8302 10.8756 18.6799 10.8581 18.6768C10.7294 18.613 10.6543 18.8725 10.68 18.9589C10.7006 19.0423 10.6851 19.5839 10.5904 19.9185C10.541 20.111 10.7294 20.2582 10.8066 20.4425C10.9096 20.702 10.749 20.9223 10.7232 21.2394C10.7006 21.5483 10.8869 22.0291 10.8756 22.3657C10.8674 22.5408 10.8983 22.585 10.9817 22.6767C11.0342 22.7374 11.1567 22.6272 11.1804 22.5037C11.203 22.3781 11.3657 22.3657 11.3657 22.6375C11.3657 22.9073 11.3163 22.8867 11.3163 22.9711C11.3163 23.0514 11.4429 23.2851 11.3852 23.6187C11.3646 23.7659 11.6241 24.1283 11.7095 24.1232C11.7971 24.1129 11.8485 24.013 11.8712 23.9101C11.8949 23.8061 11.9227 23.2615 11.9227 23.2615L12.1512 22.5922C12.1512 22.5922 12.2923 22.2391 12.4529 22.5531C12.4529 22.5531 12.7103 22.5325 12.2923 23.4313C12.2923 23.4313 12.1512 23.595 12.3129 24.1417L12.2696 24.6431C12.249 24.8418 12.6176 25.4554 12.7566 25.5594C12.8946 25.6665 13.0346 25.5182 13.0346 25.3556C13.0346 25.1888 12.9172 24.8511 12.9172 24.6431C12.9172 24.43 13.0819 24.2457 13.0562 24.0594C13.0356 23.8699 12.9121 23.4746 13.3054 23.1976C13.3054 23.1976 13.571 23.2131 13.6379 23.9729C13.6832 24.4732 13.5679 24.6205 13.6142 24.7039C13.6606 24.7883 13.7069 24.8326 13.7069 24.8326C13.7069 24.8326 13.816 24.8624 13.8613 24.7523C13.9087 24.6462 13.851 24.3404 13.9046 24.2035C13.956 24.0676 14.0137 23.9523 14.0343 23.5343C14.0405 23.3881 14.1331 22.9711 13.5679 22.5336C13.5679 22.5336 13.4814 22.478 13.501 22.2072C13.5113 22.1145 13.2281 22.0435 13.1509 21.9652C13.0727 21.8901 13.0346 21.7181 13.0346 21.7181C13.0346 21.7181 12.9172 21.399 13.5452 21.2548C13.6379 21.2384 14.1692 20.8698 14.2886 20.4415C14.3133 20.3447 14.198 20.3983 14.0106 20.4621C13.8243 20.5228 13.3115 20.5053 13.3579 20.0853C13.4073 19.6673 13.8696 18.9795 14.5666 19.4572C14.5666 19.4572 14.7787 19.691 14.6592 19.2297C14.5439 18.7726 14.824 18.4555 14.9846 18.2877C15.1493 18.1219 15.2636 18.0818 15.383 18.0179C15.4973 17.9541 15.6363 17.7667 15.6363 17.7667C15.6363 17.7667 15.9379 17.6596 16.1202 17.8069C16.3096 17.9541 16.5629 17.9335 16.6319 17.8872C16.7039 17.8501 17.0952 17.8501 17.2146 17.9345C17.332 18.0169 17.5389 18.1641 17.5152 18.2712C17.4926 18.3711 16.8192 19.0022 16.3106 19.2699C16.3106 19.2699 16.0996 19.4171 16.0996 19.5849C16.0996 19.5849 15.9143 19.9411 16.3096 19.7105C16.3096 19.7105 16.3673 19.5612 16.6555 19.4171C16.7873 19.3553 16.914 19.1875 17.0952 19.1031C17.2856 19.0207 17.4926 18.7088 17.9343 19.0856C17.9343 19.0856 18.0269 19.2297 18.1896 19.169C18.2813 19.1346 18.3566 19.067 18.4006 18.9795C18.4006 18.9795 18.4459 18.3113 18.5386 18.1044C18.6313 17.8882 18.9072 17.4125 19.0709 17.3899C19.2356 17.3693 19.7679 17.6596 19.8142 17.7266C19.8636 17.7873 19.8369 17.9139 20.0016 17.9335C20.1632 17.9541 20.4186 17.8305 20.4186 17.8305C20.4186 17.8305 20.9364 17.7194 21.0929 17.7029C21.3627 17.672 21.5336 17.9139 21.5336 17.9139C21.5336 17.9139 21.6427 18.0663 21.6715 18.1868C21.7004 18.3 21.651 18.4205 21.7086 18.5028C21.7642 18.5904 22.2306 18.9353 22.2996 19.169C22.3686 19.3955 22.2996 19.4768 22.3686 19.5231C22.4406 19.5664 22.6012 19.3131 22.7855 19.2699C22.9698 19.2287 23.149 19.3368 23.2004 19.2616C23.2262 19.2225 23.2622 19.0907 23.2499 18.8951C23.2385 18.6789 23.3734 18.579 23.5175 18.648C23.707 18.7345 23.6709 18.9589 23.6534 19.0331C23.638 19.1082 23.5278 19.2493 23.5742 19.3965C23.6205 19.5406 23.7162 19.7702 23.8573 19.8145C23.9932 19.8567 24.3175 19.9411 24.3443 19.7939C24.3669 19.6477 24.3288 19.5612 24.3443 19.5036C24.3525 19.4459 24.5512 19.2925 24.6202 19.4572C24.6892 19.6271 24.8158 20.1079 24.9311 20.1779C25.0464 20.2346 24.9291 20.5002 24.8796 20.563C24.8343 20.6258 24.8766 20.8358 24.8766 20.8358C24.8766 20.8358 24.9692 21.1097 24.9692 21.1735C24.9692 21.2384 24.9445 21.5936 24.9445 21.5936L25.0145 22.3215C25.0145 22.3215 25.0608 22.5531 24.8086 22.6993C24.5512 22.8435 24.3443 22.8229 24.3443 22.8229C24.3443 22.8229 23.9695 23.0133 22.7629 22.2618C22.7629 22.2618 22.5158 21.784 21.9907 21.958C21.6664 22.061 21.689 22.0857 21.5851 22.2298C21.5851 22.2298 21.3493 22.5336 21.723 22.8867C21.723 22.8867 21.7642 22.967 21.8466 22.931C21.9557 22.8743 22.0216 22.8239 22.0216 22.931C22.0216 23.037 21.9495 23.4509 22.3686 23.9317C22.3686 23.9317 22.3686 24.0995 22.3408 24.1592C22.3222 24.2231 22.0885 24.6019 22.2728 25.1414L22.3912 25.2917C22.3912 25.2917 22.5292 25.3916 22.6239 25.3113C22.7165 25.2289 22.6692 25.2011 22.7165 25.057C22.7783 24.8614 22.9575 24.8511 23.0419 24.6349C23.1191 24.4465 23.0872 24.4125 23.0872 24.4125C23.0872 24.4125 22.9842 24.1531 22.9925 23.909C22.9956 23.8081 23.0439 23.4046 23.1593 23.3047C23.2603 23.2282 23.3826 23.1851 23.5093 23.1812C23.6462 23.1812 24.1332 23.3994 24.2228 23.5147C24.3175 23.628 24.3628 23.733 24.3865 23.8514C24.4153 23.9626 24.3628 24.2457 24.3659 24.3291C24.3659 24.4115 24.4143 24.5608 24.4122 24.6596C24.4091 24.7677 24.3669 24.8902 24.3669 25.0374C24.3669 25.1878 24.4122 25.4987 24.4122 25.4987C24.4122 25.4987 24.4266 25.8003 24.4812 25.8982C24.5358 25.9908 24.7808 26.0546 24.8446 25.8704C24.9558 25.5285 24.8343 24.9654 24.8508 24.8078C24.8704 24.6534 25.066 24.0666 25.0608 23.9729C25.0547 23.8802 24.9939 23.8051 24.9939 23.8051C24.9939 23.8051 24.8971 23.595 25.0608 23.6383C25.2256 23.6784 25.2791 23.6692 25.3399 23.7649C25.3996 23.8576 25.2256 23.8689 25.3862 24.0594C25.3862 24.0594 25.4634 24.2086 25.4583 24.3291C25.449 24.4465 25.3316 24.5834 25.3635 24.6833C25.4325 24.917 25.7105 24.7873 25.7105 25.0179C25.7105 25.2464 25.7228 25.3267 25.7342 25.3916C25.7455 25.4585 25.8989 25.6161 26.0101 25.3669C26.0101 25.3669 26.0338 25.2567 26.0616 25.1878C26.0832 25.1157 26.2098 24.9201 26.2222 24.8501C26.2325 24.7811 26.2222 24.7275 26.2222 24.7275L26.1995 24.5134C26.1995 24.5134 26.0605 23.9955 26.1295 23.7649C26.2006 23.5343 26.2582 23.3448 26.3622 23.3232C26.4652 23.3068 26.5208 23.3294 26.5918 23.4509C26.667 23.5693 26.6093 24.0161 26.6875 24.0727C26.7648 24.1242 26.9017 24.082 26.9645 24.1304C27.0335 24.1881 27.053 24.3116 27.0819 24.4763C27.1107 24.6349 27.0911 24.7986 27.1364 24.9252C27.1828 25.058 27.4309 25.1363 27.4855 24.9252C27.54 24.7214 27.5081 24.4568 27.5235 24.2869C27.5281 24.2223 27.5472 24.1595 27.5794 24.1033C27.6117 24.0471 27.6563 23.999 27.7099 23.9626C27.7789 23.9214 27.9436 24.0841 28.0352 24.0676C28.1279 24.0439 28.2432 23.8689 28.2432 23.7011C28.2432 23.5343 28.1958 23.0504 28.2226 22.8692C28.2432 22.6787 28.2257 22.5336 28.2164 22.5068C28.2 22.4316 28.3297 22.1464 28.4357 22.3915C28.4357 22.3915 28.4728 22.5562 28.4985 22.6139C28.5253 22.6736 28.5449 22.6828 28.5685 22.7807C28.5912 22.8785 28.4985 23.1606 28.4985 23.2409C28.4985 23.3222 28.5912 23.3438 28.6591 23.2615C28.7292 23.1801 28.8445 23.1338 28.8249 23.0514C28.8023 22.9711 28.8712 22.4924 28.9196 22.4255C28.9629 22.3657 28.9999 22.1815 29.0092 22.028C29.0174 21.8777 28.9402 21.6976 28.9629 21.6543C28.9855 21.6111 29.0617 21.608 29.0792 21.572C29.0988 21.5339 29.0638 21.4958 29.1008 21.4443C29.142 21.3949 29.2995 21.2971 29.3572 21.0891C29.5116 20.5342 29.2275 20.3612 29.3325 20.0008C29.386 19.797 29.3109 19.7702 29.3109 19.7702C29.3109 19.7702 28.9855 19.6467 28.9855 19.5406C28.9855 19.4428 29.0782 19.2503 29.0782 19.2503C29.0782 19.2503 29.0318 18.1044 28.9855 18.0179C28.9402 17.9335 29.0318 17.3693 29.0576 17.2653C29.0782 17.1655 28.8939 16.8885 28.8249 16.6785C28.7559 16.4705 28.7611 16.3645 28.6602 16.3078C28.5624 16.2399 28.3719 16.2728 28.2895 16.1997C28.2051 16.1256 28.1279 15.512 27.8015 15.4255C27.8015 15.4255 27.6471 15.3802 27.61 15.3246C27.575 15.2721 27.2703 14.6327 26.9892 14.5061C26.7112 14.3826 26.2675 13.8781 26.2006 13.7123C26.1285 13.5445 25.8258 13.4621 25.7609 13.4621C25.6889 13.4621 25.4583 13.2974 25.3409 13.2552C25.2256 13.2109 24.8817 13.1852 24.8755 13.3581C24.8673 13.5311 24.8755 13.5023 24.8755 13.5023C24.8755 13.5023 24.9208 13.6258 24.9229 13.6722C24.9291 13.7133 24.857 13.7494 25.0155 13.7957C25.2256 13.8554 25.2256 13.8997 25.2935 13.8997C25.3635 13.8997 25.5272 14.0891 25.5272 14.0891C25.5272 14.0891 25.7342 14.259 25.8032 14.2765C25.8732 14.2971 26.0605 14.4237 26.0605 14.4237L26.3622 14.6327C26.3622 14.6327 26.424 14.6482 26.5269 14.7975C26.6268 14.9468 26.705 15.2144 26.7802 15.2814C26.8584 15.3452 26.9151 15.3483 26.9892 15.4255C27.0654 15.5079 27.1055 15.6129 27.1508 15.72C27.1982 15.8229 27.3104 15.9238 27.3393 16.0103C27.3681 16.1029 27.4432 16.278 27.4896 16.3603C27.5349 16.4448 27.4772 16.5148 27.4546 16.6383C27.4278 16.765 27.3918 16.8133 27.3578 16.8483C27.33 16.8834 27.1725 16.9595 27.0355 16.975C26.8755 16.9819 26.716 16.9523 26.5691 16.8885C26.4592 16.7935 26.366 16.6807 26.2932 16.5549C26.2582 16.4829 26.2737 16.3614 26.2469 16.2811C26.2181 16.2038 25.9679 15.9115 25.8732 15.8857C25.7805 15.8579 25.6189 15.8641 25.6189 15.8641C25.6189 15.8641 25.4057 15.8579 25.3141 15.8229C25.2317 15.7858 25.1103 15.6396 25.0608 15.5532C25.0145 15.4667 25.0207 15.164 24.995 15.0713C24.9435 14.9551 24.863 14.8541 24.7612 14.7779C24.6665 14.7079 24.3638 14.572 24.2979 14.5061C24.231 14.4402 24.1229 14.1839 24.1332 14.1303C24.1456 14.0788 24.2032 14.0438 24.2032 13.9862C24.2032 13.9244 24.1569 13.9244 24.1332 13.842C24.1137 13.7525 24.2032 13.5445 24.2032 13.5445C24.2032 13.5445 24.2598 13.3664 24.2516 13.2974C24.2413 13.2233 24.0241 13.1224 24.0869 12.9401C24.1023 12.8887 24.1847 12.8681 24.2032 12.8372C24.2197 12.7991 24.197 12.6786 24.1569 12.6272C24.1157 12.5716 24.0581 12.5644 23.9716 12.4254C23.9139 12.3296 23.7451 12.2349 23.6493 12.1803C23.4516 12.065 23.3734 12.3039 23.4125 12.4171C23.4537 12.5304 23.5628 12.7795 23.5752 12.8568C23.5865 12.9288 23.6009 13.1708 23.4599 13.2974C23.3219 13.421 23.0738 13.3283 22.9863 13.283C22.7721 13.1697 22.6877 12.8403 22.6877 12.8403C22.6877 12.8403 22.5549 12.6632 22.4406 12.6632C22.3233 12.6632 21.9732 12.6035 21.9279 12.4593C21.8816 12.3152 21.8352 12.2761 21.9186 12.1289C22 11.9878 22.3305 12.0908 22.3531 11.9641C22.3768 11.8282 22.1575 11.8921 22.0422 11.6851C21.9567 11.5276 21.7663 11.2681 21.4749 11.299ZM20.2085 13.0524C20.2141 13.0547 20.22 13.056 20.226 13.0565C20.26 13.0596 20.261 13.0946 20.2981 13.0936C20.3012 13.1234 20.3012 13.1533 20.3187 13.1759C20.3352 13.1883 20.3383 13.2109 20.3558 13.2274C20.3601 13.2325 20.3633 13.2385 20.365 13.2449C20.3671 13.3128 20.3239 13.3901 20.2518 13.4385C20.2466 13.4446 20.2466 13.459 20.2384 13.4693C20.1921 13.5085 20.1303 13.5218 20.0871 13.5599C20.0901 13.597 20.0366 13.5857 20.0304 13.6114C19.9748 13.6258 19.912 13.632 19.8945 13.5774C19.8569 13.4486 19.8653 13.3106 19.9182 13.1872C19.9285 13.1656 19.9326 13.1471 19.9409 13.1337C19.9851 13.0719 20.1365 13.0421 20.2147 13.0596L20.2085 13.0524ZM18.5458 13.6773C18.6129 13.6739 18.6794 13.6915 18.7361 13.7277C18.7927 13.7639 18.8367 13.8168 18.8619 13.8791C19.0163 14.0037 18.9823 14.0212 19.0246 14.1499C19.076 14.4958 19.1749 14.5051 19.0709 14.7203C19.0348 14.7985 18.902 14.8232 18.8464 14.8644C18.7054 14.9715 18.5499 14.817 18.4655 14.7007C18.3317 14.5123 18.2822 14.294 18.1772 14.0871C18.1155 13.9584 18.2297 13.9059 18.3049 13.7556C18.3756 13.7061 18.4595 13.6788 18.5458 13.6773ZM17.2177 15.4708C17.257 15.4695 17.296 15.4784 17.3309 15.4965C17.3309 15.4965 17.3896 15.5614 17.4102 15.6448C17.4359 15.7323 17.3526 15.7838 17.3526 15.7838C17.3526 15.7838 17.3175 15.7941 17.2722 15.7838C17.2259 15.7714 17.1456 15.6798 17.1456 15.6798C17.1168 15.5223 17.1631 15.477 17.2177 15.4708ZM23.5011 15.8208C23.5912 15.8198 23.68 15.8425 23.7585 15.8867C23.8573 15.9279 23.9232 16.1369 23.9232 16.1369C23.9232 16.1369 23.7585 16.8051 23.6709 16.9523C23.5752 17.0985 23.3909 17.1304 23.2982 17.1222C23.2035 17.1088 23.0429 16.8803 23.0429 16.8803V16.765C23.0429 16.765 23.115 16.0618 23.2982 15.9063C23.3546 15.8562 23.4259 15.8262 23.5011 15.8208ZM16.3281 15.8476C16.4877 15.8414 16.7153 15.9166 16.7153 15.9166C16.7153 15.9166 16.8306 15.7828 16.8656 16.1812C16.9006 16.5745 16.7729 16.6074 16.7729 16.6074C16.5289 16.6898 16.2293 16.556 16.2293 16.556C16.1653 16.5062 16.1162 16.4399 16.0872 16.3642C16.0581 16.2886 16.0503 16.2064 16.0646 16.1266C16.0759 16.0947 16.0996 15.9907 16.2025 15.8867C16.2293 15.861 16.2746 15.8497 16.3281 15.8476ZM21.791 16.3953C21.86 16.385 22.0082 16.4005 22.0782 16.6785C22.1843 17.116 21.9856 17.1397 21.9166 17.1655C21.8445 17.1799 21.8589 17.0985 21.8352 17.0697C21.8126 17.0347 21.8239 16.8381 21.7065 16.7763C21.5943 16.7176 21.6036 16.5436 21.6036 16.5436C21.6376 16.4303 21.7529 16.4046 21.7529 16.4046C21.7529 16.4046 21.7673 16.3984 21.791 16.3953ZM24.7715 17.5865C24.8663 17.5762 24.9569 17.6843 24.9569 17.6843L25.0145 18.0601C25.0145 18.0601 24.9682 18.1528 24.8971 18.1868C24.8302 18.2156 24.7818 18.0818 24.7818 18.0818C24.7818 18.0818 24.6892 17.8882 24.6459 17.7873C24.5975 17.6843 24.6789 17.6432 24.6789 17.6432C24.6895 17.6278 24.7032 17.6148 24.7192 17.605C24.7352 17.5953 24.753 17.589 24.7715 17.5865ZM12.9007 17.7925C12.9605 17.7822 13.0408 17.7924 13.1272 17.8717C13.189 17.9253 13.1509 18.1044 13.1272 18.1641C13.1025 18.231 13.0552 18.3113 12.8493 18.3113C12.6382 18.3113 12.6876 18.0179 12.6876 18.0179L12.8029 17.8305C12.8029 17.8305 12.841 17.8007 12.9007 17.7925ZM11.9227 19.2297L12.1059 19.2709C12.3129 19.378 12.2923 19.6477 12.3129 19.902C12.3376 20.1491 12.3129 20.6495 12.1986 20.7555C12.0833 20.8595 11.8722 20.7761 11.7796 20.736C11.6848 20.6927 11.5489 20.3396 11.5016 20.2521C11.4552 20.1718 11.5953 19.7311 11.6189 19.5046C11.6395 19.2709 11.9227 19.2297 11.9227 19.2297ZM27.7727 19.3512C27.8466 19.3639 27.9139 19.4017 27.9632 19.4583C28.0242 19.5252 28.0621 19.6101 28.0713 19.7002C28.0713 19.7517 28.0785 19.8732 27.9632 19.9185C27.782 19.9926 27.6378 19.8897 27.6152 19.8577C27.5781 19.8042 27.5349 19.6364 27.5349 19.6364C27.4772 19.4922 27.6615 19.378 27.7202 19.3563C27.7371 19.3506 27.755 19.3488 27.7727 19.3512ZM22.3212 19.8423C22.2985 19.8371 22.2738 19.8577 22.2738 19.8577C22.2738 19.8577 22.1606 19.9535 22.0226 19.9731C21.8857 19.9967 21.2659 19.8783 21.444 20.3509C21.444 20.3509 21.4749 20.46 21.582 20.5578C21.723 20.6958 22.0237 20.7967 22.069 20.8801C22.1122 20.9666 22.316 21.0675 22.3943 21.0963C22.4694 21.1251 22.4149 21.5256 22.4149 21.5256C22.4149 21.5256 22.4149 21.6749 22.5559 21.6543C22.6939 21.6306 22.9503 21.4587 22.9822 21.4299C23.0501 21.3609 23.1006 20.7771 23.0429 20.6289C22.9811 20.4827 22.5096 20.2727 22.4406 20.1491C22.3655 20.0286 22.3747 19.8958 22.3418 19.8577C22.3371 19.8502 22.3298 19.8446 22.3212 19.8423ZM18.1762 19.9731L18.0722 20.0019C18.0722 20.0019 17.9312 20.0739 17.8498 20.3797C17.821 20.4827 17.7932 20.4909 17.7644 20.5342C17.7386 20.5825 17.7232 20.8235 17.7232 20.8235C17.7232 20.8235 17.6635 21.015 17.7551 21.015C17.8478 21.015 17.9796 20.9089 17.9796 20.9089C17.9796 20.9089 18.2452 20.6556 18.2575 20.5342C18.2647 20.4549 18.2709 19.9885 18.1762 19.9731ZM26.9974 20.0111C27.0994 20.0369 27.0366 20.3468 27.0366 20.3468C26.9192 21.015 27.1776 21.0356 27.1776 21.0356C27.1776 21.0356 27.2991 21.0664 27.3331 21.2384C27.3537 21.504 27.2353 21.6626 27.2353 21.6626C27.1395 21.7861 27.0335 21.7171 26.9892 21.6543C26.9439 21.5884 26.948 21.3949 26.9192 21.3496C26.8924 21.3084 26.7915 21.3496 26.7112 21.0695C26.6134 20.7267 26.8327 20.1017 26.8327 20.1017C26.912 20.0256 26.9635 20.0029 26.9974 20.0111ZM16.255 20.8451C16.1428 20.8235 15.7248 21.1189 15.7135 21.1704C15.7022 21.2219 15.6497 21.1818 15.5467 21.5853C15.487 21.8149 15.521 21.8108 15.3336 22.7405C15.1472 23.6764 15.5323 24.2035 15.5323 24.2035C15.5323 24.2035 15.6013 24.2859 15.6589 24.1428C15.7166 23.9966 15.5055 23.734 15.5869 23.6383C15.6703 23.5477 15.8659 23.5775 15.8896 23.6692C15.9204 23.7896 15.9246 23.7556 15.9379 23.837C15.9503 23.9214 15.9184 24.2272 15.8957 24.3188C15.872 24.4166 15.9143 24.8367 16.0872 24.8511C16.2139 24.8634 16.2375 24.4805 16.2375 24.4805C16.2406 24.2272 16.2725 24.0604 16.2725 24.0604C16.254 23.8864 16.2005 23.9214 16.2293 23.7433C16.2467 23.6414 16.266 23.5398 16.287 23.4385C16.287 23.4385 16.2767 22.6046 16.2602 22.4708C16.2489 22.3287 16.0018 21.853 16.0018 21.6543C15.9956 21.4566 16.1315 21.261 16.2406 21.1107C16.3446 20.9635 16.323 21.0654 16.3611 20.946C16.3961 20.8317 16.287 20.8471 16.255 20.8451ZM17.2692 22.5747C17.2383 22.5644 16.7956 22.6139 16.6555 22.8558C16.6555 22.8558 16.5402 23.7659 16.5979 23.8812C16.6555 23.9966 16.6638 23.9163 16.7245 23.9842C16.7904 24.0532 16.7729 24.1592 16.8192 24.2457C16.8656 24.3301 16.9459 24.431 16.9459 24.431C16.9459 24.431 16.9922 24.7986 17.1106 24.8634C17.1106 24.8634 17.2959 24.8912 17.332 24.7502C17.367 24.604 17.2949 24.4537 17.2949 24.4537C17.2949 24.4537 17.3186 24.3713 17.332 24.2673C17.3423 24.1603 17.3093 24.0676 17.3093 24.0038C17.3093 23.941 17.5152 23.3572 17.5152 23.3572C17.5389 22.8435 17.508 22.7467 17.474 22.6973C17.474 22.6973 17.439 22.6046 17.2681 22.5758L17.2692 22.5747ZM18.0609 22.6211C18.0381 22.6158 18.0145 22.6162 17.9919 22.6221C17.9569 22.6365 17.9106 22.7518 17.9106 22.7518C17.9106 22.7518 17.8766 22.9711 17.8766 23.0514C17.8766 23.1338 17.8385 23.3685 17.8303 23.42C17.8189 23.4746 17.8766 23.5477 17.9106 23.6702C17.9569 23.8349 18.0743 23.8061 18.0846 23.7103C18.0959 23.6177 18.2009 22.9969 18.1525 22.931C18.1059 22.8594 18.0858 22.7738 18.0959 22.689C18.1021 22.6478 18.0835 22.6272 18.0609 22.6211ZM14.5769 23.628C14.4574 23.6053 14.3195 23.7742 14.303 23.8411C14.303 23.8411 14.3009 23.8545 14.2896 23.8771C14.2896 23.8771 14.1609 24.29 14.1517 24.3723C14.1434 24.4527 14.1537 25.0694 14.2793 25.2269C14.4029 25.3875 14.4688 25.3607 14.4688 25.4554C14.4688 25.5491 14.5542 25.5883 14.6376 25.5687C14.7231 25.5481 14.7962 25.2619 14.7735 25.1085C14.755 24.9592 14.6026 24.8882 14.5913 24.6164C14.5789 24.3415 14.7189 24.0573 14.7189 24.0573C14.7189 24.0573 14.755 23.7443 14.6263 23.6506C14.6118 23.6393 14.5949 23.6316 14.5769 23.628Z" fill="#00953B"/>
<circle cx="20" cy="20" r="19.5" stroke="black" stroke-opacity="0.05"/>
</svg>
