<svg width="40" height="40" viewBox="0 0 40 40" fill="none" xmlns="http://www.w3.org/2000/svg">
<circle cx="20" cy="20" r="20" fill="#00953B"/>
<path d="M20.0005 9C13.3836 9 8 13.9027 8 19.9215C8 25.9403 13.3836 30.8431 20.0005 30.8431C26.6216 30.8431 32 25.9403 32 19.9215C32 13.9027 26.6216 9 20.0005 9Z" fill="white"/>
<path d="M20.0014 10.5021C14.2112 10.5021 9.49996 14.7264 9.49996 19.9184C9.49996 25.1146 14.2112 29.343 20.0014 29.343C25.7896 29.343 30.4998 25.1146 30.4998 19.9184C30.4998 14.7264 25.7896 10.5021 20.0014 10.5021ZM20.0014 29.9494C13.8766 29.9494 8.89355 25.4502 8.89355 19.9184C8.89355 14.3918 13.8766 9.89569 20.0014 9.89569C26.1242 9.89569 31.1062 14.3918 31.1062 19.9184C31.1062 25.4492 26.1242 29.9494 20.0014 29.9494Z" fill="#231F20"/>
<path d="M22.7634 12.2298C22.7459 12.2276 22.7282 12.2283 22.7109 12.2318C22.4844 12.2823 22.5328 12.3708 22.5555 12.4254C22.5781 12.4799 22.7614 12.5149 22.8582 12.587C22.956 12.656 22.992 12.7538 23.027 12.7847C23.062 12.8135 23.0939 12.8979 23.0939 12.8979C23.0939 12.8979 23.0878 13.004 23.1547 13.004C23.2164 12.9978 23.2638 12.9288 23.2442 12.8063C23.2092 12.5726 23.0023 12.3739 23.0023 12.3739C23.0023 12.3739 22.8849 12.2421 22.7634 12.2298ZM16.8703 12.8114C16.7611 12.8084 16.7735 12.8465 16.6118 12.9731C16.166 13.3293 15.9756 13.2027 15.78 13.4683C15.6245 13.6835 15.9375 13.7072 16.1074 13.6258C16.2772 13.5486 16.5079 13.3098 16.7611 13.1234C17.0123 12.9329 16.966 12.8197 16.8703 12.8114ZM24.6403 14.0356C24.5477 14.0335 24.5652 14.0953 24.5765 14.1303C24.5868 14.1674 24.8679 14.2508 24.8957 14.3053C24.9204 14.3609 25.0346 14.4701 25.0346 14.4701C25.0346 14.4701 25.395 14.6204 25.4691 15.0085C25.4691 15.0085 25.4804 15.3019 25.5124 15.3462C25.5762 15.4234 25.7749 15.409 25.8006 15.4255C25.8315 15.4492 25.8789 15.4492 25.953 15.4811C26.0313 15.5182 26.0766 15.5037 26.1198 15.5264C26.1641 15.5532 26.3092 15.6829 26.3617 15.6973C26.4925 15.7488 26.616 15.9866 26.6552 16.0443C26.6963 16.1029 26.7797 16.2327 26.8322 16.4046C26.8518 16.4602 26.8788 16.5128 26.9126 16.5611C26.9126 16.5611 26.9352 16.6074 26.9887 16.5837C27.0412 16.5611 27.0567 16.5055 27.0526 16.4345C27.0454 16.3655 26.823 15.9876 26.823 15.9876C26.823 15.9876 26.7015 15.7951 26.6356 15.7714C26.5738 15.7488 26.5666 15.7055 26.4946 15.5387C26.4194 15.374 25.9932 14.8932 25.8892 14.8242C25.7893 14.7583 25.5618 14.7264 25.4156 14.5761C25.3404 14.4958 25.2889 14.3208 25.1757 14.2508C25.0645 14.1838 24.733 14.0397 24.6403 14.0356ZM14.3149 14.7563C14.2063 14.7659 14.101 14.7985 14.006 14.852C13.553 15.1012 13.4737 15.3596 13.4295 15.4399C13.3852 15.5223 13.4398 15.5861 13.4964 15.5058C13.5541 15.4234 13.6735 15.269 13.7301 15.2072C13.7867 15.1485 14.039 15.0569 14.073 15.0672C14.1069 15.0775 15.1035 15.0868 14.7864 15.9135C14.7864 15.9135 14.5115 16.2183 14.5064 16.4077C14.5002 16.5982 14.459 16.6321 14.6042 16.6723C14.7535 16.7135 14.7411 16.5848 14.7864 16.4406C14.8338 16.2986 14.8338 16.0257 14.8667 15.964C14.9007 15.9022 15.224 15.3174 15.0212 15.0816C14.8678 14.9056 14.6124 14.7336 14.3149 14.7563ZM19.2506 17.8583C19.0354 17.88 18.9057 18.2547 18.8727 18.3649C18.8285 18.5193 18.8501 18.8735 18.8501 18.8735C18.8295 19.1123 18.6215 19.4088 18.5958 19.4583C18.5731 19.5128 18.5381 19.692 18.5577 19.7115C18.5845 19.7321 18.7018 20.4775 18.6967 20.5352C18.6854 20.6237 18.639 20.6567 18.639 20.6567C18.639 20.6567 18.3775 21.0901 18.3281 21.1941C18.2818 21.2971 18.1068 21.3331 18.1068 21.3331C18.1068 21.3331 18.0141 21.3207 17.9688 21.3207C17.9245 21.3207 17.5508 21.3825 17.5508 21.3825L17.3758 21.4134C17.3088 21.4278 17.2141 21.3496 17.1678 21.2693C17.1215 21.1869 17.2481 21.051 17.2481 21.016C17.2481 20.981 17.3408 20.8286 17.3408 20.7452C17.3408 20.6628 17.3892 20.4508 17.3892 20.4508C17.838 19.7527 17.7114 19.5345 17.6774 19.378C17.6465 19.2194 17.3994 19.3337 17.3994 19.3337C17.2862 19.3337 16.9835 19.7115 16.8425 19.7311C16.7035 19.7517 16.5459 19.8268 16.3792 20.0111C16.2 20.1975 15.9241 20.18 15.9241 20.18C15.9241 20.18 15.7964 20.1388 15.6821 19.9823C15.538 19.7888 15.7295 19.3203 15.8057 19.1937C16.0106 18.8385 16.4306 18.6408 16.6149 18.5451C17.0638 18.3021 16.6221 18.2743 16.6221 18.2743C16.6221 18.2743 16.3524 18.3546 16.1743 18.2835C15.7419 18.1044 15.7079 18.2722 15.6132 18.4174C15.5267 18.5451 15.1633 18.6264 15.1004 19.0042C15.0696 19.1957 15.0778 19.2513 15.0778 19.2513C15.1488 19.9617 14.7401 20.6206 14.6701 20.808C14.6361 20.9007 14.4457 21.2322 14.317 21.2919C14.214 21.3362 14.0081 21.4299 14.0194 21.4968C14.0256 21.539 14.0874 21.5483 14.0874 21.5483C14.0874 21.5483 14.3828 21.5946 14.4518 21.7387C14.5187 21.8829 14.5785 22.2762 14.4292 22.4491C14.3159 22.5727 14.2706 22.5459 14.1986 22.5418C14.1824 22.5422 14.1666 22.5463 14.1523 22.5538C14.138 22.5613 14.1257 22.572 14.1162 22.585C14.1162 22.585 14.4745 23.1822 14.6361 23.2615C14.7967 23.3459 14.8935 23.0761 14.8935 23.0761C14.8935 23.0761 14.8925 22.7003 14.912 22.6139C14.9388 22.5336 15.0562 21.6976 15.0562 21.6976C15.0562 21.6976 15.1766 21.1879 15.2384 21.0901C15.3012 20.9923 15.5205 20.8358 15.5205 20.8358C15.5205 20.8358 15.8561 20.633 15.9756 20.5702C16.0899 20.5064 16.3956 20.4693 16.4739 20.4106C16.5213 20.3748 16.5667 20.3363 16.6098 20.2953C16.9372 20.1923 16.9567 20.3581 16.9835 20.4827C17.0072 20.6124 16.8425 20.7967 16.8425 20.7967C16.7735 20.981 16.7241 21.1334 16.7241 21.1334C16.7241 21.1334 16.5634 21.3197 16.4739 21.504C16.3781 21.6976 16.4739 21.8448 16.4945 21.9879C16.5171 22.132 16.6551 22.3029 16.7241 22.3225C16.7961 22.3431 17.1668 22.2164 17.1668 22.2164C17.7227 22.3225 18.2365 22.1135 18.3765 22.132C18.5114 22.1526 18.5392 22.2628 18.5392 22.2628C18.5845 22.6798 18.708 22.8239 18.8614 22.931C19.0478 23.0514 18.7688 23.0947 18.7224 23.9502C18.6823 24.673 18.8604 24.5371 18.7688 25.0179C18.7533 25.1085 18.2107 25.8106 18.1201 26.0835C18.0264 26.3573 17.9801 26.4582 17.7958 26.5468C17.6074 26.6291 17.1266 27.183 16.966 27.2469C16.8044 27.3138 16.548 27.3138 16.4553 27.3529C16.3994 27.3803 16.3552 27.4269 16.3306 27.4841C16.3061 27.5413 16.3028 27.6055 16.3215 27.6649C16.3637 27.809 16.8919 27.9614 17.2481 28.0633C17.6311 28.1745 18.3044 28.3001 18.4012 28.2785C18.4918 28.2579 18.8841 28.3845 18.8841 28.3845L19.0704 28.4885C19.0704 28.4885 19.9744 28.783 20.1165 28.7593C20.2554 28.7366 20.4418 28.4885 20.7445 28.5709C21.0431 28.6553 21.2798 28.472 21.2798 28.472C21.2798 28.472 21.2531 28.3413 21.9274 28.4453C22.6008 28.5482 22.5184 28.3186 22.6018 28.2785C22.645 28.261 22.7604 28.2785 22.8077 28.2579C22.8582 28.2352 22.9107 28.1343 22.9498 28.1117C22.991 28.0911 23.0888 28.0798 23.1825 28.0499C23.2751 28.0159 23.3894 27.8811 23.3894 27.8811C23.3894 27.8811 23.4409 27.8028 23.48 27.7802C23.5222 27.7513 23.5438 27.7596 23.62 27.7369C23.7045 27.7112 24.0216 27.5238 24.0617 27.4837C24.1039 27.4425 24.0988 27.4198 24.1338 27.3828C24.1678 27.3395 24.386 27.1892 24.386 27.0852C24.386 26.9823 24.2316 26.8999 24.1791 26.8793C24.1307 26.8587 24.0411 26.8556 23.9238 26.8361C23.8084 26.8155 22.1117 26.2945 22.1117 26.2945C22.1117 26.2945 22.0417 26.1916 21.9048 26.0413C21.7637 25.8992 21.3694 25.4554 21.2994 25.1023C21.2304 24.7512 21.3921 24.1242 21.3921 23.9739C21.3921 23.8298 21.2994 23.4056 21.2994 23.3253C21.2994 23.2429 21.1615 22.9917 21.0688 22.6798C20.9772 22.3668 21.1615 22.0291 21.2994 21.9066C21.4374 21.7789 21.6258 21.6543 21.6258 21.6543L21.7885 21.5956C22.1581 21.3609 21.7885 21.1941 21.7885 21.1941C21.6031 21.1344 21.3684 20.9233 21.3684 20.9233C20.7157 20.4971 21.0091 19.9617 21.0091 19.9617C21.1264 19.5849 21.8811 19.6045 21.8811 19.6045C21.8811 19.6045 22.0654 19.5849 21.9501 19.3965C21.8348 19.2112 21.8811 19.3563 21.8574 19.2513C21.8348 19.1473 21.4302 18.8941 21.3262 18.6861C21.2191 18.4812 21.2932 18.3196 21.2397 18.231C21.1841 18.1476 21.0461 18.1168 21.0461 18.1168L20.5798 18.1878C20.5798 18.1878 20.4871 18.1878 20.3697 18.2887C20.2544 18.3927 20.0711 18.3525 20.0711 18.3525C19.9322 18.3649 19.5945 18.1054 19.5945 18.1054C19.4637 17.9108 19.3474 17.848 19.2506 17.8583ZM19.8899 19.2029C20.0104 19.2153 20.1134 19.2822 20.1391 19.345C20.1762 19.4294 20.3584 19.4428 20.0938 20.2881C20.0938 20.2881 20.0701 20.4425 20.0938 20.4837C20.1154 20.5228 20.0557 21.122 19.9322 21.2971C19.8014 21.4762 19.7448 21.1859 19.7448 21.1859C19.7448 21.1859 19.6871 20.3468 19.5348 20.2243C19.5348 20.2243 19.4544 20.146 19.4318 19.973C19.4081 19.8001 19.4833 19.901 19.5028 19.7229C19.5121 19.6045 19.4617 19.5293 19.5028 19.449C19.5028 19.449 19.6058 19.2513 19.7674 19.2112C19.8086 19.2009 19.8498 19.1988 19.891 19.2029H19.8899ZM11.9541 19.4881C11.9541 19.4881 11.9016 19.5005 11.8615 19.5828C11.8203 19.6632 11.8069 20.2129 11.8069 20.2129C11.8069 20.2129 11.7945 20.458 11.8481 20.494C11.9016 20.529 11.9696 20.5156 11.9953 20.4116C12.021 20.3087 11.9696 19.9957 11.9696 19.9628C11.9696 19.9288 12.0746 19.6271 12.0499 19.5942C12.021 19.5592 11.9541 19.4881 11.9541 19.4881ZM14.1553 19.6734C14.1553 19.6734 13.8464 19.7301 13.7692 19.9072C13.6889 20.0822 13.831 20.0225 13.937 20.0492C14.04 20.0698 14.2459 19.8248 14.2861 19.7435C14.3252 19.6611 14.1553 19.6734 14.1553 19.6734ZM22.9004 19.6879C22.9004 19.6879 22.7161 19.7713 22.7851 19.902C22.854 20.0256 23.1825 20.0853 23.1825 20.0853C23.1825 20.0853 23.6005 20.3581 23.6005 20.5661C23.6005 20.7771 23.5747 21.0901 23.5747 21.1509C23.5747 21.2147 23.62 21.6306 23.6005 21.6976C23.5747 21.7583 23.48 21.9055 23.2288 21.8829C23.2288 21.8829 22.9961 21.9055 23.2031 22.0291C23.4131 22.1536 23.5119 22.132 23.5552 22.1536C23.5964 22.1763 23.618 22.2628 23.6468 22.2803C23.6705 22.2998 23.9474 22.4491 24.0864 22.409C24.2223 22.3657 24.315 22.4985 24.4818 22.237C24.5847 22.0744 24.5106 21.3259 24.4663 21.122C24.3953 20.8029 24.3922 20.6556 24.386 20.5939C24.3778 20.3735 24.4663 20.3509 24.4663 20.3509C24.4663 20.3509 24.523 20.2521 24.3984 20.2603C24.2687 20.2716 23.7909 20.2531 23.6756 20.179C23.5301 20.0714 23.394 19.9515 23.269 19.8207C23.235 19.7774 22.9004 19.6879 22.9004 19.6879ZM13.7373 21.7892C13.693 21.7933 13.6477 21.8118 13.6477 21.8654C13.6477 21.9807 13.7404 22.0888 13.8001 22.1176C13.9525 22.1928 13.9885 22.1825 14.0771 22.0785C14.1677 21.9776 14.0215 21.8427 14.0215 21.8427L13.8289 21.7943C13.8289 21.7943 13.7826 21.784 13.7373 21.7892Z" fill="#231F20"/>
<path d="M21.4747 11.299C21.3553 11.316 21.2429 11.3651 21.1493 11.4411C21.1493 11.4411 20.9424 11.5101 20.859 11.541C20.7756 11.5698 20.6716 11.541 20.4636 11.4308C20.2546 11.3309 20.163 11.3855 20.093 11.4308C20.025 11.4823 19.848 11.3773 19.7213 11.4143C19.5937 11.4555 19.5308 11.6552 19.3733 11.7057C19.2179 11.7572 18.6248 11.4596 18.4004 11.541C18.1698 11.6192 18.1029 11.9322 17.8897 11.9363C17.7919 11.9384 17.6715 11.7747 17.3986 11.7057C17.2854 11.6769 16.609 11.9147 16.888 12.3564L17.1907 12.6467C17.1907 12.6467 17.308 12.9494 17.2854 13.004C17.2504 13.0668 17.0754 13.3128 16.8015 13.4621C16.4329 13.669 16.5163 13.7349 16.1446 13.9223C16.0005 13.9923 15.7071 13.9861 15.6124 13.9429C15.5197 13.9007 15.3323 13.6515 15.4476 13.4209C15.5671 13.1872 16.3269 12.8341 16.4473 12.6271C16.5688 12.4212 16.7037 11.5173 16.052 11.9147C16.052 11.9147 15.7678 12.0588 15.5197 12.3358C15.2675 12.6035 14.9123 13.4868 14.9123 13.6721C14.9123 13.8564 14.9565 14.2765 15.008 14.4031C15.0595 14.5339 15.4239 14.8644 15.4713 15.0075C15.5207 15.1557 15.5434 15.4481 15.497 15.5325C15.4476 15.6128 15.287 15.9269 15.287 16.0731C15.287 16.2172 15.0832 16.7052 15.0564 16.7526C15.0255 16.7999 14.9174 16.9173 14.8237 16.9317C14.7259 16.9482 14.4747 16.9317 14.4026 16.8493C14.3336 16.7649 14.311 16.6074 14.311 16.6074C14.311 16.6074 14.242 16.4046 14.2616 16.3212C14.2997 16.1637 14.2616 16.1523 14.3336 16.0535C14.5838 15.7137 14.5416 15.5387 14.4747 15.512C14.242 15.4028 13.9846 15.3822 13.8693 15.5727C13.755 15.7621 13.476 16.0308 13.3113 15.9907C13.1497 15.9495 12.9633 15.8877 13.056 15.5933C13.1507 15.3009 13.1497 14.6976 14.2883 14.3208C14.2883 14.3208 14.4747 14.2106 14.3336 14.0469C14.1977 13.8791 13.545 14.0901 13.3844 14.1704C13.2197 14.259 13.0117 14.4659 12.9417 14.6749C12.8717 14.8839 12.5916 14.9045 12.5484 14.9889C12.5031 15.0713 12.4763 15.512 12.5021 15.6355C12.5227 15.7621 12.3579 15.8239 12.292 15.8023C12.2231 15.7838 12.151 15.5727 11.7793 15.9495C11.4087 16.3253 11.2697 16.6383 11.2234 16.804C11.1739 16.976 10.9042 17.0583 10.8527 17.3065C10.7714 17.673 10.9135 17.9798 11.0514 18.0663C11.2584 18.2042 11.3912 18.6974 11.2707 18.8724C11.1945 18.9857 11.0627 18.9599 10.9474 18.8549C10.9145 18.8302 10.8754 18.6799 10.8579 18.6768C10.7292 18.613 10.654 18.8724 10.6797 18.9589C10.7003 19.0423 10.6849 19.5838 10.5902 19.9185C10.5408 20.111 10.7292 20.2582 10.8064 20.4425C10.9093 20.7019 10.7487 20.9223 10.723 21.2394C10.7003 21.5482 10.8867 22.029 10.8754 22.3657C10.8671 22.5407 10.898 22.585 10.9814 22.6766C11.0339 22.7374 11.1564 22.6272 11.1801 22.5037C11.2028 22.3781 11.3654 22.3657 11.3654 22.6375C11.3654 22.9073 11.316 22.8867 11.316 22.9711C11.316 23.0514 11.4427 23.2851 11.385 23.6187C11.3644 23.7659 11.6239 24.1283 11.7093 24.1232C11.7968 24.1129 11.8483 24.013 11.8709 23.91C11.8946 23.8061 11.9224 23.2614 11.9224 23.2614L12.151 22.5922C12.151 22.5922 12.292 22.2391 12.4526 22.5531C12.4526 22.5531 12.71 22.5325 12.292 23.4313C12.292 23.4313 12.151 23.595 12.3126 24.1417L12.2694 24.6431C12.2488 24.8418 12.6174 25.4554 12.7564 25.5594C12.8943 25.6665 13.0343 25.5182 13.0343 25.3555C13.0343 25.1888 12.917 24.8511 12.917 24.6431C12.917 24.43 13.0817 24.2457 13.056 24.0593C13.0354 23.8699 12.9118 23.4745 13.3051 23.1976C13.3051 23.1976 13.5707 23.213 13.6377 23.9728C13.683 24.4732 13.5677 24.6204 13.614 24.7038C13.6603 24.7883 13.7066 24.8325 13.7066 24.8325C13.7066 24.8325 13.8158 24.8624 13.8611 24.7522C13.9084 24.6462 13.8508 24.3404 13.9043 24.2035C13.9558 24.0676 14.0135 23.9523 14.034 23.5343C14.0402 23.3881 14.1329 22.9711 13.5677 22.5335C13.5677 22.5335 13.4812 22.4779 13.5007 22.2072C13.511 22.1145 13.2279 22.0435 13.1507 21.9652C13.0724 21.8901 13.0343 21.7181 13.0343 21.7181C13.0343 21.7181 12.917 21.399 13.545 21.2548C13.6377 21.2383 14.1689 20.8698 14.2883 20.4415C14.3131 20.3447 14.1977 20.3982 14.0104 20.4621C13.824 20.5228 13.3113 20.5053 13.3576 20.0852C13.407 19.6672 13.8693 18.9795 14.5663 19.4572C14.5663 19.4572 14.7784 19.6909 14.659 19.2297C14.5437 18.7726 14.8237 18.4555 14.9843 18.2876C15.1491 18.1219 15.2633 18.0817 15.3828 18.0179C15.497 17.9541 15.636 17.7667 15.636 17.7667C15.636 17.7667 15.9377 17.6596 16.1199 17.8068C16.3094 17.9541 16.5626 17.9335 16.6316 17.8871C16.7037 17.8501 17.0949 17.8501 17.2143 17.9345C17.3317 18.0169 17.5387 18.1641 17.515 18.2712C17.4923 18.371 16.819 19.0021 16.3104 19.2698C16.3104 19.2698 16.0993 19.4171 16.0993 19.5849C16.0993 19.5849 15.914 19.9411 16.3094 19.7105C16.3094 19.7105 16.367 19.5612 16.6553 19.4171C16.7871 19.3553 16.9137 19.1875 17.0949 19.103C17.2854 19.0207 17.4923 18.7087 17.934 19.0855C17.934 19.0855 18.0267 19.2297 18.1893 19.1689C18.281 19.1346 18.3564 19.0669 18.4004 18.9795C18.4004 18.9795 18.4457 18.3113 18.5384 18.1044C18.631 17.8882 18.9069 17.4125 19.0706 17.3899C19.2354 17.3693 19.7676 17.6596 19.814 17.7265C19.8634 17.7873 19.8366 17.9139 20.0014 17.9335C20.163 17.9541 20.4183 17.8305 20.4183 17.8305C20.4183 17.8305 20.9362 17.7193 21.0927 17.7028C21.3624 17.672 21.5333 17.9139 21.5333 17.9139C21.5333 17.9139 21.6425 18.0663 21.6713 18.1867C21.7001 18.3 21.6507 18.4204 21.7084 18.5028C21.764 18.5903 22.2303 18.9352 22.2993 19.1689C22.3683 19.3954 22.2993 19.4768 22.3683 19.5231C22.4404 19.5663 22.601 19.3131 22.7853 19.2698C22.9696 19.2287 23.1487 19.3368 23.2002 19.2616C23.2259 19.2225 23.262 19.0907 23.2496 18.8951C23.2383 18.6789 23.3732 18.579 23.5173 18.648C23.7067 18.7345 23.6707 18.9589 23.6532 19.033C23.6378 19.1082 23.5276 19.2492 23.5739 19.3965C23.6202 19.5406 23.716 19.7702 23.857 19.8145C23.9929 19.8567 24.3173 19.9411 24.344 19.7939C24.3667 19.6477 24.3286 19.5612 24.344 19.5035C24.3523 19.4459 24.551 19.2925 24.6199 19.4572C24.6889 19.6271 24.8156 20.1079 24.9309 20.1779C25.0462 20.2345 24.9288 20.5002 24.8794 20.563C24.8341 20.6258 24.8763 20.8358 24.8763 20.8358C24.8763 20.8358 24.969 21.1097 24.969 21.1735C24.969 21.2383 24.9443 21.5935 24.9443 21.5935L25.0143 22.3214C25.0143 22.3214 25.0606 22.5531 24.8084 22.6993C24.551 22.8434 24.344 22.8228 24.344 22.8228C24.344 22.8228 23.9693 23.0133 22.7626 22.2617C22.7626 22.2617 22.5155 21.784 21.9905 21.958C21.6661 22.061 21.6888 22.0857 21.5848 22.2298C21.5848 22.2298 21.349 22.5335 21.7228 22.8867C21.7228 22.8867 21.764 22.967 21.8463 22.9309C21.9555 22.8743 22.0213 22.8239 22.0213 22.9309C22.0213 23.037 21.9493 23.4509 22.3683 23.9317C22.3683 23.9317 22.3683 24.0995 22.3405 24.1592C22.322 24.223 22.0883 24.6019 22.2726 25.1414L22.391 25.2917C22.391 25.2917 22.5289 25.3916 22.6236 25.3113C22.7163 25.2289 22.6689 25.2011 22.7163 25.057C22.7781 24.8614 22.9572 24.8511 23.0416 24.6349C23.1189 24.4464 23.0869 24.4125 23.0869 24.4125C23.0869 24.4125 22.984 24.153 22.9922 23.909C22.9953 23.8081 23.0437 23.4045 23.159 23.3047C23.2601 23.2282 23.3824 23.185 23.5091 23.1811C23.646 23.1811 24.133 23.3994 24.2225 23.5147C24.3173 23.6279 24.3626 23.733 24.3862 23.8514C24.4151 23.9626 24.3626 24.2457 24.3656 24.3291C24.3656 24.4114 24.414 24.5607 24.412 24.6596C24.4089 24.7677 24.3667 24.8902 24.3667 25.0374C24.3667 25.1877 24.412 25.4987 24.412 25.4987C24.412 25.4987 24.4264 25.8003 24.481 25.8981C24.5355 25.9908 24.7806 26.0546 24.8444 25.8703C24.9556 25.5285 24.8341 24.9653 24.8506 24.8078C24.8701 24.6534 25.0657 24.0665 25.0606 23.9728C25.0544 23.8802 24.9937 23.805 24.9937 23.805C24.9937 23.805 24.8969 23.595 25.0606 23.6382C25.2253 23.6784 25.2789 23.6691 25.3396 23.7649C25.3993 23.8575 25.2253 23.8689 25.3859 24.0593C25.3859 24.0593 25.4632 24.2086 25.458 24.3291C25.4487 24.4464 25.3314 24.5834 25.3633 24.6832C25.4323 24.917 25.7102 24.7872 25.7102 25.0178C25.7102 25.2464 25.7226 25.3267 25.7339 25.3916C25.7453 25.4585 25.8987 25.616 26.0099 25.3669C26.0099 25.3669 26.0335 25.2567 26.0613 25.1877C26.0829 25.1157 26.2096 24.92 26.2219 24.85C26.2322 24.7811 26.2219 24.7275 26.2219 24.7275L26.1993 24.5134C26.1993 24.5134 26.0603 23.9955 26.1293 23.7649C26.2003 23.5343 26.258 23.3448 26.362 23.3232C26.4649 23.3067 26.5205 23.3294 26.5916 23.4509C26.6667 23.5693 26.6091 24.0161 26.6873 24.0727C26.7645 24.1242 26.9014 24.082 26.9642 24.1304C27.0332 24.188 27.0528 24.3116 27.0816 24.4763C27.1104 24.6349 27.0909 24.7986 27.1362 24.9252C27.1825 25.058 27.4306 25.1362 27.4852 24.9252C27.5398 24.7213 27.5079 24.4567 27.5233 24.2869C27.5278 24.2222 27.5469 24.1595 27.5792 24.1033C27.6115 24.0471 27.6561 23.999 27.7096 23.9626C27.7786 23.9214 27.9434 24.084 28.035 24.0676C28.1276 24.0439 28.243 23.8689 28.243 23.701C28.243 23.5343 28.1956 23.0504 28.2224 22.8692C28.243 22.6787 28.2255 22.5335 28.2162 22.5068C28.1997 22.4316 28.3294 22.1464 28.4355 22.3914C28.4355 22.3914 28.4726 22.5562 28.4983 22.6138C28.5251 22.6735 28.5446 22.6828 28.5683 22.7806C28.591 22.8784 28.4983 23.1605 28.4983 23.2408C28.4983 23.3222 28.591 23.3438 28.6589 23.2614C28.7289 23.1801 28.8442 23.1338 28.8247 23.0514C28.802 22.9711 28.871 22.4923 28.9194 22.4254C28.9626 22.3657 28.9997 22.1814 29.009 22.028C29.0172 21.8777 28.94 21.6975 28.9626 21.6543C28.9853 21.611 29.0615 21.608 29.079 21.5719C29.0985 21.5338 29.0635 21.4957 29.1006 21.4443C29.1418 21.3948 29.2993 21.297 29.3569 21.0891C29.5114 20.5341 29.2272 20.3612 29.3322 20.0008C29.3858 19.797 29.3106 19.7702 29.3106 19.7702C29.3106 19.7702 28.9853 19.6467 28.9853 19.5406C28.9853 19.4428 29.0779 19.2503 29.0779 19.2503C29.0779 19.2503 29.0316 18.1044 28.9853 18.0179C28.94 17.9335 29.0316 17.3693 29.0573 17.2653C29.0779 17.1654 28.8936 16.8885 28.8247 16.6784C28.7557 16.4705 28.7608 16.3644 28.6599 16.3078C28.5621 16.2398 28.3717 16.2728 28.2893 16.1997C28.2049 16.1256 28.1276 15.512 27.8013 15.4255C27.8013 15.4255 27.6468 15.3802 27.6098 15.3246C27.5748 15.2721 27.27 14.6327 26.989 14.5061C26.711 14.3825 26.2672 13.878 26.2003 13.7123C26.1282 13.5445 25.8256 13.4621 25.7607 13.4621C25.6886 13.4621 25.458 13.2974 25.3406 13.2552C25.2253 13.2109 24.8815 13.1852 24.8753 13.3581C24.867 13.5311 24.8753 13.5023 24.8753 13.5023C24.8753 13.5023 24.9206 13.6258 24.9226 13.6721C24.9288 13.7133 24.8567 13.7494 25.0153 13.7957C25.2253 13.8554 25.2253 13.8997 25.2933 13.8997C25.3633 13.8997 25.527 14.0891 25.527 14.0891C25.527 14.0891 25.7339 14.259 25.8029 14.2765C25.8729 14.2971 26.0603 14.4237 26.0603 14.4237L26.362 14.6327C26.362 14.6327 26.4237 14.6482 26.5267 14.7974C26.6266 14.9467 26.7048 15.2144 26.78 15.2813C26.8582 15.3452 26.9148 15.3483 26.989 15.4255C27.0651 15.5078 27.1053 15.6128 27.1506 15.7199C27.198 15.8229 27.3102 15.9238 27.339 16.0103C27.3678 16.1029 27.443 16.2779 27.4893 16.3603C27.5346 16.4447 27.477 16.5147 27.4543 16.6383C27.4276 16.7649 27.3915 16.8133 27.3575 16.8483C27.3297 16.8833 27.1722 16.9595 27.0353 16.975C26.8753 16.9819 26.7158 16.9523 26.5689 16.8885C26.459 16.7934 26.3657 16.6807 26.293 16.5549C26.258 16.4828 26.2734 16.3613 26.2466 16.281C26.2178 16.2038 25.9676 15.9114 25.8729 15.8857C25.7803 15.8579 25.6186 15.8641 25.6186 15.8641C25.6186 15.8641 25.4055 15.8579 25.3139 15.8229C25.2315 15.7858 25.11 15.6396 25.0606 15.5531C25.0143 15.4667 25.0204 15.164 24.9947 15.0713C24.9432 14.9551 24.8627 14.8541 24.761 14.7779C24.6663 14.7079 24.3636 14.572 24.2977 14.5061C24.2308 14.4402 24.1227 14.1838 24.133 14.1303C24.1453 14.0788 24.203 14.0438 24.203 13.9861C24.203 13.9244 24.1566 13.9244 24.133 13.842C24.1134 13.7524 24.203 13.5445 24.203 13.5445C24.203 13.5445 24.2596 13.3664 24.2514 13.2974C24.2411 13.2232 24.0238 13.1223 24.0866 12.9401C24.1021 12.8886 24.1844 12.868 24.203 12.8372C24.2195 12.7991 24.1968 12.6786 24.1566 12.6271C24.1155 12.5715 24.0578 12.5643 23.9713 12.4253C23.9137 12.3296 23.7448 12.2349 23.6491 12.1803C23.4514 12.065 23.3732 12.3039 23.4123 12.4171C23.4535 12.5304 23.5626 12.7795 23.5749 12.8567C23.5863 12.9288 23.6007 13.1707 23.4596 13.2974C23.3217 13.4209 23.0736 13.3283 22.986 13.283C22.7719 13.1697 22.6875 12.8403 22.6875 12.8403C22.6875 12.8403 22.5547 12.6632 22.4404 12.6632C22.323 12.6632 21.973 12.6035 21.9277 12.4593C21.8813 12.3152 21.835 12.2761 21.9184 12.1288C21.9997 11.9878 22.3302 12.0907 22.3529 11.9641C22.3765 11.8282 22.1572 11.892 22.0419 11.6851C21.9565 11.5276 21.766 11.2681 21.4747 11.299ZM20.2083 13.0523C20.2139 13.0546 20.2198 13.056 20.2258 13.0565C20.2598 13.0595 20.2608 13.0946 20.2979 13.0935C20.301 13.1234 20.301 13.1532 20.3185 13.1759C20.3349 13.1882 20.338 13.2109 20.3555 13.2274C20.3599 13.2324 20.363 13.2384 20.3648 13.2449C20.3668 13.3128 20.3236 13.39 20.2515 13.4384C20.2464 13.4446 20.2464 13.459 20.2382 13.4693C20.1918 13.5084 20.1301 13.5218 20.0868 13.5599C20.0899 13.597 20.0364 13.5857 20.0302 13.6114C19.9746 13.6258 19.9118 13.632 19.8943 13.5774C19.8567 13.4485 19.865 13.3106 19.918 13.1872C19.9283 13.1656 19.9324 13.1471 19.9406 13.1337C19.9849 13.0719 20.1362 13.042 20.2145 13.0595L20.2083 13.0523ZM18.5456 13.6773C18.6127 13.6739 18.6792 13.6915 18.7358 13.7277C18.7925 13.7638 18.8365 13.8168 18.8616 13.8791C19.0161 14.0037 18.9821 14.0212 19.0243 14.1498C19.0758 14.4958 19.1746 14.505 19.0706 14.7202C19.0346 14.7985 18.9018 14.8232 18.8462 14.8644C18.7051 14.9714 18.5497 14.817 18.4653 14.7007C18.3314 14.5123 18.282 14.294 18.177 14.087C18.1152 13.9584 18.2295 13.9058 18.3046 13.7555C18.3754 13.706 18.4593 13.6788 18.5456 13.6773ZM17.2174 15.4708C17.2568 15.4695 17.2958 15.4783 17.3307 15.4965C17.3307 15.4965 17.3894 15.5614 17.41 15.6448C17.4357 15.7323 17.3523 15.7838 17.3523 15.7838C17.3523 15.7838 17.3173 15.7941 17.272 15.7838C17.2257 15.7714 17.1454 15.6798 17.1454 15.6798C17.1165 15.5222 17.1629 15.4769 17.2174 15.4708ZM23.5008 15.8208C23.5909 15.8197 23.6797 15.8425 23.7582 15.8867C23.857 15.9279 23.9229 16.1369 23.9229 16.1369C23.9229 16.1369 23.7582 16.8051 23.6707 16.9523C23.5749 17.0985 23.3907 17.1304 23.298 17.1222C23.2033 17.1088 23.0427 16.8802 23.0427 16.8802V16.7649C23.0427 16.7649 23.1147 16.0617 23.298 15.9063C23.3543 15.8562 23.4256 15.8262 23.5008 15.8208ZM16.3279 15.8476C16.4875 15.8414 16.715 15.9166 16.715 15.9166C16.715 15.9166 16.8303 15.7827 16.8653 16.1812C16.9003 16.5745 16.7727 16.6074 16.7727 16.6074C16.5287 16.6898 16.2291 16.5559 16.2291 16.5559C16.1651 16.5062 16.1159 16.4399 16.0869 16.3642C16.0579 16.2885 16.0501 16.2064 16.0643 16.1266C16.0757 16.0947 16.0993 15.9907 16.2023 15.8867C16.2291 15.861 16.2744 15.8496 16.3279 15.8476ZM21.7907 16.3953C21.8597 16.385 22.008 16.4005 22.078 16.6784C22.184 17.116 21.9853 17.1397 21.9163 17.1654C21.8443 17.1798 21.8587 17.0985 21.835 17.0697C21.8123 17.0347 21.8237 16.838 21.7063 16.7762C21.5941 16.7176 21.6033 16.5436 21.6033 16.5436C21.6373 16.4303 21.7526 16.4046 21.7526 16.4046C21.7526 16.4046 21.767 16.3984 21.7907 16.3953ZM24.7713 17.5865C24.866 17.5762 24.9566 17.6843 24.9566 17.6843L25.0143 18.0601C25.0143 18.0601 24.9679 18.1528 24.8969 18.1867C24.83 18.2156 24.7816 18.0817 24.7816 18.0817C24.7816 18.0817 24.6889 17.8882 24.6457 17.7873C24.5973 17.6843 24.6786 17.6431 24.6786 17.6431C24.6893 17.6277 24.703 17.6148 24.719 17.605C24.7349 17.5952 24.7528 17.5889 24.7713 17.5865ZM12.9005 17.7924C12.9602 17.7821 13.0405 17.7924 13.127 17.8717C13.1888 17.9252 13.1507 18.1044 13.127 18.1641C13.1023 18.231 13.0549 18.3113 12.849 18.3113C12.638 18.3113 12.6874 18.0179 12.6874 18.0179L12.8027 17.8305C12.8027 17.8305 12.8408 17.8007 12.9005 17.7924ZM11.9224 19.2297L12.1057 19.2709C12.3126 19.3779 12.292 19.6477 12.3126 19.902C12.3373 20.1491 12.3126 20.6494 12.1983 20.7555C12.083 20.8595 11.872 20.7761 11.7793 20.7359C11.6846 20.6927 11.5487 20.3395 11.5013 20.252C11.455 20.1717 11.595 19.7311 11.6187 19.5046C11.6393 19.2709 11.9224 19.2297 11.9224 19.2297ZM27.7725 19.3512C27.8464 19.3638 27.9137 19.4017 27.9629 19.4582C28.024 19.5252 28.0619 19.61 28.071 19.7002C28.071 19.7517 28.0782 19.8732 27.9629 19.9185C27.7817 19.9926 27.6376 19.8896 27.6149 19.8577C27.5779 19.8042 27.5346 19.6364 27.5346 19.6364C27.477 19.4922 27.6613 19.3779 27.7199 19.3563C27.7368 19.3506 27.7548 19.3488 27.7725 19.3512ZM22.3209 19.8423C22.2983 19.8371 22.2736 19.8577 22.2736 19.8577C22.2736 19.8577 22.1603 19.9535 22.0224 19.973C21.8854 19.9967 21.2657 19.8783 21.4438 20.3509C21.4438 20.3509 21.4747 20.46 21.5817 20.5578C21.7228 20.6958 22.0234 20.7967 22.0687 20.8801C22.1119 20.9665 22.3158 21.0674 22.394 21.0963C22.4692 21.1251 22.4146 21.5256 22.4146 21.5256C22.4146 21.5256 22.4146 21.6749 22.5557 21.6543C22.6936 21.6306 22.95 21.4587 22.9819 21.4298C23.0499 21.3609 23.1003 20.7771 23.0427 20.6288C22.9809 20.4827 22.5094 20.2726 22.4404 20.1491C22.3652 20.0286 22.3745 19.8958 22.3415 19.8577C22.3369 19.8501 22.3295 19.8446 22.3209 19.8423ZM18.176 19.973L18.072 20.0018C18.072 20.0018 17.9309 20.0739 17.8496 20.3797C17.8208 20.4827 17.793 20.4909 17.7641 20.5341C17.7384 20.5825 17.7229 20.8234 17.7229 20.8234C17.7229 20.8234 17.6632 21.0149 17.7549 21.0149C17.8475 21.0149 17.9793 20.9089 17.9793 20.9089C17.9793 20.9089 18.2449 20.6556 18.2573 20.5341C18.2645 20.4549 18.2707 19.9885 18.176 19.973ZM26.9972 20.0111C27.0991 20.0369 27.0363 20.3467 27.0363 20.3467C26.9189 21.0149 27.1774 21.0355 27.1774 21.0355C27.1774 21.0355 27.2989 21.0664 27.3328 21.2383C27.3534 21.504 27.235 21.6625 27.235 21.6625C27.1393 21.7861 27.0332 21.7171 26.989 21.6543C26.9437 21.5884 26.9478 21.3948 26.9189 21.3495C26.8922 21.3084 26.7913 21.3495 26.711 21.0695C26.6132 20.7267 26.8325 20.1017 26.8325 20.1017C26.9117 20.0255 26.9632 20.0029 26.9972 20.0111ZM16.2548 20.8451C16.1426 20.8234 15.7246 21.1189 15.7133 21.1704C15.7019 21.2219 15.6494 21.1817 15.5465 21.5853C15.4867 21.8149 15.5207 21.8108 15.3333 22.7405C15.147 23.6763 15.5321 24.2035 15.5321 24.2035C15.5321 24.2035 15.601 24.2858 15.6587 24.1427C15.7163 23.9965 15.5053 23.734 15.5866 23.6382C15.67 23.5476 15.8656 23.5775 15.8893 23.6691C15.9202 23.7896 15.9243 23.7556 15.9377 23.8369C15.9501 23.9214 15.9181 24.2271 15.8955 24.3188C15.8718 24.4166 15.914 24.8366 16.087 24.8511C16.2136 24.8634 16.2373 24.4804 16.2373 24.4804C16.2404 24.2271 16.2723 24.0604 16.2723 24.0604C16.2538 23.8864 16.2002 23.9214 16.2291 23.7433C16.2465 23.6413 16.2657 23.5397 16.2867 23.4385C16.2867 23.4385 16.2764 22.6046 16.2599 22.4707C16.2486 22.3286 16.0015 21.853 16.0015 21.6543C15.9954 21.4566 16.1313 21.261 16.2404 21.1107C16.3444 20.9635 16.3228 21.0654 16.3608 20.946C16.3958 20.8317 16.2867 20.8471 16.2548 20.8451ZM17.2689 22.5747C17.238 22.5644 16.7953 22.6138 16.6553 22.8558C16.6553 22.8558 16.54 23.7659 16.5976 23.8812C16.6553 23.9965 16.6635 23.9162 16.7243 23.9842C16.7902 24.0532 16.7727 24.1592 16.819 24.2457C16.8653 24.3301 16.9456 24.431 16.9456 24.431C16.9456 24.431 16.992 24.7986 17.1104 24.8634C17.1104 24.8634 17.2957 24.8912 17.3317 24.7502C17.3667 24.604 17.2947 24.4537 17.2947 24.4537C17.2947 24.4537 17.3183 24.3713 17.3317 24.2673C17.342 24.1602 17.3091 24.0676 17.3091 24.0037C17.3091 23.9409 17.515 23.3572 17.515 23.3572C17.5387 22.8434 17.5078 22.7466 17.4738 22.6972C17.4738 22.6972 17.4388 22.6046 17.2679 22.5757L17.2689 22.5747ZM18.0606 22.621C18.0379 22.6158 18.0142 22.6161 17.9917 22.6221C17.9567 22.6365 17.9103 22.7518 17.9103 22.7518C17.9103 22.7518 17.8764 22.9711 17.8764 23.0514C17.8764 23.1338 17.8383 23.3685 17.83 23.42C17.8187 23.4745 17.8764 23.5476 17.9103 23.6702C17.9567 23.8349 18.074 23.8061 18.0843 23.7103C18.0956 23.6177 18.2007 22.9968 18.1523 22.9309C18.1056 22.8594 18.0856 22.7738 18.0956 22.689C18.1018 22.6478 18.0833 22.6272 18.0606 22.621ZM14.5766 23.6279C14.4572 23.6053 14.3192 23.7741 14.3028 23.8411C14.3028 23.8411 14.3007 23.8544 14.2894 23.8771C14.2894 23.8771 14.1607 24.29 14.1514 24.3723C14.1432 24.4526 14.1535 25.0693 14.2791 25.2268C14.4026 25.3875 14.4685 25.3607 14.4685 25.4554C14.4685 25.5491 14.554 25.5882 14.6374 25.5687C14.7228 25.5481 14.7959 25.2619 14.7733 25.1084C14.7547 24.9592 14.6024 24.8881 14.591 24.6163C14.5787 24.3414 14.7187 24.0573 14.7187 24.0573C14.7187 24.0573 14.7547 23.7443 14.626 23.6506C14.6116 23.6393 14.5946 23.6315 14.5766 23.6279Z" fill="#00953B"/>
<circle cx="20" cy="20" r="19.5" stroke="black" stroke-opacity="0.05"/>
</svg>
