<svg width="40" height="40" viewBox="0 0 40 40" fill="none" xmlns="http://www.w3.org/2000/svg">
<circle cx="20" cy="20" r="20" fill="#116734"/>
<path d="M8.0122 17.0037C8.02195 17.0703 7.96449 17.1064 7.83984 17.1121C7.8349 17.1124 7.83012 17.1141 7.826 17.1168C7.82188 17.1196 7.81857 17.1234 7.81641 17.1278C7.81424 17.1323 7.81329 17.1373 7.81366 17.1422C7.81404 17.1471 7.81572 17.1519 7.81853 17.156L8.05605 17.4958C8.06417 17.5076 8.06214 17.5171 8.04996 17.5245C8.04509 17.5277 8.03514 17.5285 8.02012 17.5269L7.57552 17.0591C7.57154 17.0549 7.56889 17.0495 7.56786 17.0438C7.56683 17.038 7.56748 17.0321 7.56973 17.0267C7.57197 17.0213 7.57572 17.0167 7.58053 17.0134C7.58534 17.01 7.591 17.0082 7.59684 17.008L8.0122 17.0037Z" fill="white"/>
<path d="M8.01209 17.0037C8.08112 16.996 8.1538 17.0003 8.23013 17.0165C8.25002 17.0206 8.26566 17.0309 8.27703 17.0476L8.55414 17.4477C8.54886 17.591 8.55211 17.752 8.56388 17.9307C8.56672 17.9729 8.54825 18.018 8.50846 18.0659L8.02001 17.5269C8.03503 17.5285 8.04498 17.5277 8.04985 17.5245C8.06203 17.5171 8.06406 17.5076 8.05594 17.4958L7.81842 17.156C7.81561 17.1519 7.81393 17.1471 7.81356 17.1422C7.81318 17.1373 7.81413 17.1323 7.8163 17.1278C7.81846 17.1234 7.82178 17.1196 7.82589 17.1168C7.83001 17.1141 7.83479 17.1124 7.83974 17.1121C7.96439 17.1065 8.02184 17.0703 8.01209 17.0037Z" fill="white"/>
<path d="M8.50879 18.0659C8.54858 18.018 8.56705 17.9729 8.56421 17.9307C8.55244 17.7521 8.54919 17.5911 8.55447 17.4477L8.73657 17.1804C8.76783 17.1341 8.80965 17.1211 8.86203 17.1414L9.24268 17.2894C9.29019 17.3077 9.29627 17.3353 9.26095 17.3722C9.04007 17.6008 8.81676 17.8379 8.59101 18.0836C8.58167 18.0933 8.5703 18.098 8.5569 18.0976C8.54026 18.0968 8.52422 18.0862 8.50879 18.0659Z" fill="white"/>
<path d="M6.99745 17.2815C6.99582 17.3217 6.9471 17.3318 6.85128 17.3119C6.83138 17.3079 6.8125 17.3109 6.79464 17.3211L6.40364 17.5421C6.39824 17.5452 6.39374 17.5496 6.3906 17.555C6.38747 17.5604 6.38581 17.5664 6.38581 17.5726C6.38581 17.5788 6.38747 17.5848 6.3906 17.59C6.39374 17.5953 6.39824 17.5996 6.40364 17.6024C6.63994 17.7332 6.85859 17.9041 7.05957 18.1152L6.24346 17.6128C6.1992 17.5852 6.1988 17.557 6.24224 17.5281C6.42414 17.4079 6.62309 17.3034 6.8391 17.2145C6.85859 17.2068 6.87808 17.2066 6.89757 17.2139C6.93005 17.2256 6.96334 17.2482 6.99745 17.2815Z" fill="white"/>
<path d="M6.99738 17.2814L7.75441 17.8503C7.70082 17.8917 7.65595 17.8866 7.61981 17.835C7.6135 17.8261 7.60548 17.8185 7.59621 17.8126C7.58695 17.8067 7.57662 17.8028 7.56582 17.8009C7.55501 17.799 7.54395 17.7993 7.53325 17.8017C7.52256 17.8041 7.51244 17.8086 7.50349 17.815C7.46207 17.8446 7.444 17.885 7.44928 17.9361C7.45131 17.9552 7.45801 17.9725 7.46938 17.9879C7.48522 18.0107 7.48562 18.0326 7.4706 18.0537C7.46126 18.0671 7.45598 18.0819 7.45476 18.0982L7.44441 18.2595C7.44319 18.2758 7.44847 18.2898 7.46025 18.3016L7.71178 18.5482L7.0595 18.1152C6.85852 17.9041 6.63987 17.7331 6.40356 17.6024C6.39817 17.5995 6.39367 17.5952 6.39053 17.59C6.3874 17.5847 6.38574 17.5787 6.38574 17.5726C6.38574 17.5664 6.3874 17.5603 6.39053 17.555C6.39367 17.5496 6.39817 17.5452 6.40356 17.5421L6.79457 17.321C6.81243 17.3109 6.83131 17.3078 6.85121 17.3119C6.94703 17.3318 6.99575 17.3216 6.99738 17.2814Z" fill="white"/>
<path d="M8.52344 19.0592C8.54942 19.0264 8.56201 18.9902 8.5612 18.9508C8.55836 18.7819 8.55389 18.6138 8.5478 18.4466L9.7342 17.6317C9.74447 17.6246 9.75686 17.6213 9.76928 17.6223C9.78171 17.6233 9.79341 17.6285 9.80242 17.6371L10.2257 18.0434C10.2291 18.0468 10.2318 18.0509 10.2334 18.0555C10.235 18.06 10.2356 18.0649 10.235 18.0696C10.2345 18.0744 10.2329 18.0789 10.2303 18.0829C10.2278 18.0869 10.2243 18.0903 10.2202 18.0927C9.68223 18.4135 9.13836 18.7446 8.5886 19.086C8.56749 19.0994 8.54577 19.0905 8.52344 19.0592Z" fill="white"/>
<path d="M7.75451 17.8503L8.54808 18.4465C8.55417 18.6138 8.55864 18.7819 8.56148 18.9508C8.56229 18.9902 8.54971 19.0263 8.52372 19.0592L7.71187 18.5482L7.46034 18.3016C7.44857 18.2898 7.44329 18.2758 7.44451 18.2596L7.45486 18.0982C7.45608 18.0819 7.46136 18.0671 7.4707 18.0537C7.48572 18.0326 7.48531 18.0107 7.46948 17.9879C7.45811 17.9725 7.45141 17.9552 7.44938 17.9362C7.4441 17.885 7.46217 17.8446 7.50358 17.815C7.51254 17.8086 7.52265 17.8041 7.53335 17.8017C7.54404 17.7993 7.55511 17.799 7.56591 17.8009C7.57671 17.8028 7.58704 17.8067 7.59631 17.8126C7.60557 17.8185 7.61359 17.8261 7.61991 17.8351C7.65604 17.8866 7.70091 17.8917 7.75451 17.8503Z" fill="white"/>
<path d="M6.83173 18.5964C6.83214 18.6358 6.81102 18.6477 6.76839 18.6323C6.59583 18.5466 6.42368 18.4671 6.25193 18.3936C6.18696 18.3664 6.11916 18.3619 6.04851 18.3802C6.02902 18.385 6.02293 18.3968 6.03024 18.4155C6.03308 18.424 6.03958 18.4287 6.04973 18.4295C6.05336 18.4298 6.05686 18.431 6.05994 18.433C6.06301 18.435 6.06557 18.4377 6.06741 18.4409C6.06925 18.4441 6.07032 18.4477 6.07053 18.4515C6.07074 18.4552 6.07008 18.4589 6.06861 18.4624C6.01461 18.5834 6.00425 18.6575 6.03755 18.6847C6.03958 18.7472 6.03734 18.8112 6.03085 18.8765C6.02882 18.8964 6.03694 18.9108 6.05521 18.9198C6.13316 18.9588 6.14027 18.9925 6.07652 19.0209L5.28417 18.6835C5.28028 18.6819 5.27679 18.6794 5.27397 18.6763C5.27115 18.6732 5.26905 18.6694 5.26783 18.6654C5.26661 18.6613 5.26629 18.657 5.26691 18.6527C5.26752 18.6485 5.26905 18.6444 5.27138 18.6408C5.34933 18.5207 5.42607 18.4013 5.50159 18.2827C5.55113 18.2052 5.60777 18.1335 5.67152 18.0677C5.68613 18.0527 5.70278 18.0499 5.72146 18.0592L6.83173 18.5964Z" fill="white"/>
<path d="M13.4343 18.2462L13.4971 18.245C14.2072 18.2419 14.851 18.5324 14.8997 19.3309C14.8999 19.3353 14.8993 19.3398 14.8977 19.344C14.8962 19.3482 14.8938 19.3521 14.8907 19.3553C14.8876 19.3586 14.8839 19.3612 14.8798 19.3629C14.8757 19.3647 14.8713 19.3656 14.8668 19.3656L14.1883 19.3705C14.1776 19.3705 14.1672 19.3665 14.1592 19.3593C14.1512 19.3521 14.1461 19.3422 14.1451 19.3315C14.1203 19.07 13.9711 18.9123 13.6974 18.8583C13.4453 18.8083 13.1 18.829 12.9623 19.0702C12.7833 19.3857 13.1006 19.5446 13.3399 19.6049C13.6355 19.6792 13.9557 19.7653 14.3004 19.8632C14.4051 19.8932 14.543 19.9734 14.7139 20.1037C14.8853 20.2345 14.9835 20.4391 15.0087 20.7176C15.0592 21.2737 14.6816 21.7049 14.156 21.8425C13.7549 21.9473 13.3686 21.9485 12.997 21.8462C12.4071 21.6838 12.093 21.3086 12.0549 20.7207C12.0528 20.6874 12.0685 20.6708 12.1018 20.6708H12.7632C12.7924 20.6708 12.8078 20.6854 12.8095 20.7146C12.8442 21.3291 13.5811 21.4327 14.0324 21.2292C14.2876 21.1141 14.368 20.7779 14.1262 20.6068C13.9999 20.5175 13.8464 20.4523 13.6658 20.4113C13.2547 20.3175 12.7589 20.2207 12.441 19.9393C12.1541 19.6853 12.1206 19.242 12.2595 18.8942L12.3509 18.7431C12.6123 18.4179 12.9735 18.2523 13.4343 18.2462Z" fill="white"/>
<path d="M25.402 19.5903C25.402 19.6317 25.4152 19.6366 25.4415 19.6049C25.7664 19.2115 26.1803 19.1183 26.6834 19.3254C26.9769 19.4466 27.0878 19.8284 27.0896 20.1409C27.0916 20.6829 27.0937 21.2412 27.0957 21.8157C27.0957 21.8223 27.0931 21.8285 27.0884 21.8332C27.0837 21.8378 27.0774 21.8405 27.0707 21.8407L26.4306 21.8419C26.4014 21.8423 26.387 21.8279 26.3874 21.7987C26.3918 21.3216 26.3925 20.8407 26.3892 20.3559C26.388 20.1663 26.3561 20.0262 26.2936 19.9356C26.1438 19.72 25.6906 19.7249 25.5292 19.9612C25.457 20.068 25.4188 20.2028 25.4147 20.3656C25.4046 20.8062 25.4028 21.2873 25.4093 21.809C25.4093 21.8129 25.4086 21.8168 25.4072 21.8204C25.4058 21.824 25.4036 21.8273 25.4009 21.8301C25.3982 21.8329 25.3949 21.8351 25.3914 21.8366C25.3878 21.8381 25.3839 21.8389 25.38 21.8389L24.7503 21.8425C24.7251 21.8425 24.7125 21.8299 24.7125 21.8048L24.7119 18.3479C24.7119 18.3411 24.7146 18.3346 24.7194 18.3298C24.7242 18.325 24.7307 18.3223 24.7375 18.3223L25.3794 18.3235C25.3873 18.3235 25.3949 18.3267 25.4005 18.3323C25.4061 18.3379 25.4093 18.3454 25.4093 18.3534L25.402 19.5903Z" fill="white"/>
<path d="M6.76845 18.6323L6.68075 18.7316C6.66654 18.7474 6.65963 18.7661 6.66004 18.7876L6.66918 19.1768C6.66999 19.1999 6.68095 19.2158 6.70206 19.2243C6.73942 19.2397 6.74409 19.2635 6.71607 19.2955L6.07658 19.0209C6.14033 18.9924 6.13322 18.9587 6.05526 18.9198C6.03699 18.9108 6.02887 18.8964 6.0309 18.8765C6.0374 18.8111 6.03963 18.7472 6.0376 18.6847C6.00431 18.6575 6.01466 18.5834 6.06866 18.4624C6.07013 18.4589 6.07079 18.4552 6.07059 18.4515C6.07038 18.4477 6.06931 18.4441 6.06747 18.4409C6.06563 18.4377 6.06307 18.435 6.05999 18.433C6.05692 18.431 6.05342 18.4298 6.04978 18.4295C6.03963 18.4287 6.03314 18.424 6.03029 18.4155C6.02299 18.3968 6.02908 18.385 6.04857 18.3802C6.11921 18.3619 6.18702 18.3663 6.25198 18.3936C6.42373 18.467 6.59589 18.5466 6.76845 18.6323Z" fill="white"/>
<path d="M8.54553 20.0629L8.54492 19.421L10.5139 18.5531C10.5205 18.5502 10.5276 18.5486 10.5348 18.5485C10.542 18.5484 10.5492 18.5497 10.5559 18.5523C10.5626 18.555 10.5687 18.559 10.5738 18.564C10.5789 18.5691 10.583 18.5751 10.5858 18.5817L10.8142 19.1402C10.8159 19.1445 10.8168 19.149 10.8168 19.1536C10.8167 19.1581 10.8158 19.1627 10.8141 19.1669C10.8123 19.171 10.8098 19.1748 10.8065 19.178C10.8033 19.1812 10.7995 19.1836 10.7953 19.1853C10.06 19.4756 9.32469 19.772 8.58938 20.0745C8.56786 20.083 8.55325 20.0792 8.54553 20.0629Z" fill="white"/>
<path d="M6.83192 18.5964L8.54515 19.421L8.54575 20.0629L6.71621 19.2955C6.74422 19.2635 6.73955 19.2397 6.7022 19.2243C6.68108 19.2158 6.67012 19.1999 6.66931 19.1768L6.66017 18.7876C6.65977 18.7661 6.66667 18.7474 6.68088 18.7316L6.76858 18.6323C6.81121 18.6477 6.83233 18.6358 6.83192 18.5964Z" fill="white"/>
<path d="M16.8103 21.5423C16.7852 21.5687 16.7608 21.5957 16.7372 21.6233C16.4601 21.9485 15.9345 21.9723 15.5764 21.8115C15.2585 21.6684 15.1556 21.3048 15.1537 20.9808C15.1505 20.4123 15.1491 19.8603 15.1495 19.3248C15.1496 19.3163 15.1531 19.3083 15.1591 19.3024C15.1652 19.2964 15.1733 19.2931 15.1818 19.2931L15.8194 19.2937C15.8232 19.2937 15.8268 19.2945 15.8303 19.2959C15.8337 19.2974 15.8368 19.2995 15.8395 19.3022C15.8421 19.3048 15.8441 19.308 15.8455 19.3114C15.8469 19.3149 15.8475 19.3186 15.8474 19.3224C15.8365 19.8015 15.8357 20.2832 15.845 20.7676C15.8517 21.1239 15.9741 21.4205 16.4096 21.345C16.761 21.2835 16.8335 20.9753 16.8377 20.6732C16.8434 20.2412 16.8426 19.7946 16.8353 19.3333C16.8349 19.3081 16.8473 19.2956 16.8724 19.2956L17.4943 19.2943C17.5235 19.2943 17.5373 19.309 17.5357 19.3382L17.5186 19.5885C17.5178 19.6052 17.5257 19.6147 17.5424 19.6171C17.5493 19.6183 17.5572 19.6151 17.5661 19.6074C17.5739 19.6013 17.5806 19.5942 17.5862 19.5861C17.7507 19.3615 17.9748 19.2422 18.2586 19.228C19.1423 19.1823 19.2507 19.7481 19.2392 20.4868C19.2327 20.9018 19.2325 21.3415 19.2386 21.806C19.2386 21.8105 19.2378 21.815 19.2361 21.8192C19.2345 21.8235 19.232 21.8273 19.2288 21.8305C19.2256 21.8338 19.2218 21.8363 19.2176 21.8381C19.2135 21.8398 19.209 21.8407 19.2045 21.8407H18.579C18.5702 21.8407 18.5619 21.8373 18.5557 21.8311C18.5495 21.8249 18.5461 21.8166 18.5461 21.8078C18.5473 21.319 18.5475 20.8228 18.5467 20.3193C18.5467 20.0374 18.4328 19.7785 18.107 19.7761C17.7093 19.7737 17.5649 20.0307 17.5601 20.3894C17.5531 20.9002 17.5525 21.3724 17.5582 21.806C17.5583 21.8105 17.5575 21.815 17.5558 21.8192C17.5541 21.8235 17.5516 21.8273 17.5485 21.8305C17.5453 21.8338 17.5415 21.8363 17.5373 21.8381C17.5331 21.8398 17.5286 21.8407 17.5241 21.8407L16.9005 21.8432C16.8688 21.8432 16.8538 21.8275 16.8554 21.7963L16.8664 21.5667C16.8692 21.5082 16.8505 21.5001 16.8103 21.5423Z" fill="white"/>
<path d="M21.2446 21.4186C21.2429 21.3748 21.2295 21.3707 21.2044 21.4065C21.0505 21.6249 20.8327 21.7418 20.5509 21.7573C19.9512 21.7906 19.5766 21.5067 19.4272 20.9058C19.2847 20.3333 19.4534 19.5264 20.0801 19.2949C20.4479 19.1591 20.9638 19.195 21.1794 19.5708C21.1822 19.5757 21.1859 19.58 21.1904 19.5836C21.2176 19.6043 21.235 19.6084 21.2427 19.5958C21.2484 19.5873 21.2509 19.5779 21.25 19.5678C21.2431 19.4914 21.2387 19.4121 21.2366 19.3296C21.2366 19.3253 21.2373 19.3209 21.2389 19.3169C21.2405 19.3128 21.2429 19.3091 21.2459 19.306C21.2489 19.3029 21.2525 19.3004 21.2564 19.2987C21.2604 19.297 21.2646 19.2961 21.2689 19.2961L21.8713 19.2968C21.8789 19.2968 21.8861 19.2998 21.8915 19.3051C21.8969 19.3105 21.8999 19.3178 21.8999 19.3254C21.9019 20.1386 21.9017 20.9377 21.8993 21.7226C21.8975 22.2676 21.5899 22.6416 21.0612 22.7512C20.4254 22.8834 19.5989 22.7744 19.4631 22.0283C19.4574 21.9966 19.4704 21.9808 19.5021 21.9808L20.1044 21.9802C20.1337 21.9802 20.1536 21.9938 20.1641 22.021C20.2555 22.2553 20.4461 22.3584 20.736 22.3304C21.2537 22.2804 21.2586 21.8212 21.2446 21.4186ZM20.6582 21.2512C20.8157 21.2509 20.9666 21.1709 21.0777 21.0289C21.1888 20.8868 21.251 20.6943 21.2507 20.4937C21.2505 20.3944 21.235 20.296 21.2049 20.2043C21.1749 20.1126 21.1311 20.0293 21.0758 19.9591C21.0205 19.889 20.955 19.8334 20.8829 19.7955C20.8108 19.7576 20.7335 19.7382 20.6555 19.7383C20.498 19.7386 20.3471 19.8185 20.236 19.9606C20.1249 20.1026 20.0627 20.2952 20.063 20.4958C20.0632 20.5951 20.0787 20.6934 20.1087 20.7852C20.1387 20.8769 20.1826 20.9602 20.2379 21.0303C20.2932 21.1005 20.3587 21.1561 20.4308 21.194C20.5029 21.2319 20.5802 21.2513 20.6582 21.2512Z" fill="white"/>
<path d="M23.8765 20.9631C23.8793 20.9412 23.8858 20.9202 23.896 20.9004C23.9069 20.8796 23.9244 20.8691 23.9483 20.8687L24.5361 20.8662C24.5689 20.8658 24.5819 20.8819 24.575 20.9144C24.4605 21.4519 24.1633 21.7705 23.6834 21.8699C22.9252 22.0271 22.2302 21.6616 22.0914 20.8662C22.0494 20.6232 22.0658 20.2925 22.1547 20.0532C22.3691 19.4758 22.8035 19.2009 23.4581 19.2285C24.0214 19.2523 24.4873 19.5678 24.5586 20.1488C24.5593 20.1544 24.5588 20.1601 24.5571 20.1654C24.5554 20.1708 24.5526 20.1758 24.5489 20.18C24.5451 20.1842 24.5405 20.1876 24.5354 20.1899C24.5302 20.1921 24.5246 20.1933 24.519 20.1933H23.9337C23.9181 20.1933 23.903 20.188 23.8907 20.1783C23.8785 20.1685 23.8698 20.1549 23.8661 20.1397C23.7699 19.7377 23.2918 19.6281 23.0019 19.8881C22.9061 19.9738 22.8389 20.1029 22.8003 20.2755C22.6931 20.7554 22.8411 21.5204 23.5086 21.3535C23.667 21.3133 23.8545 21.1494 23.8765 20.9631Z" fill="white"/>
<path d="M28.8876 21.6349C28.5886 21.9071 28.0587 21.9771 27.6702 21.8377C27.365 21.728 27.2189 21.4771 27.2122 21.1562C27.2012 20.6318 27.555 20.4478 28.0021 20.3839C28.1958 20.3563 28.3882 20.3285 28.5794 20.3005C28.7201 20.2798 28.8992 20.2115 28.9071 20.0459C28.9242 19.7024 28.5539 19.6427 28.2987 19.7036C28.1143 19.7479 28.0126 19.8607 27.9936 20.0422C27.9924 20.0518 27.9877 20.0607 27.9806 20.0671C27.9734 20.0735 27.9641 20.077 27.9546 20.0769L27.3206 20.0782C27.2982 20.0782 27.2877 20.0672 27.2889 20.0453C27.3218 19.4746 27.8486 19.2566 28.3504 19.2298C28.7628 19.2078 29.4071 19.2566 29.5496 19.6859C29.5862 19.7964 29.6039 19.9243 29.6026 20.0696C29.5982 20.554 29.5984 21.0025 29.6032 21.415C29.6053 21.5478 29.6288 21.6783 29.6739 21.8066C29.6752 21.8107 29.6756 21.815 29.675 21.8192C29.6743 21.8234 29.6727 21.8274 29.6702 21.8309C29.6677 21.8343 29.6644 21.8371 29.6606 21.839C29.6568 21.841 29.6526 21.842 29.6483 21.8419C29.4583 21.8395 29.2579 21.8403 29.0472 21.8444C28.9948 21.8452 28.9642 21.8218 28.9552 21.7743C28.9479 21.7358 28.9426 21.696 28.9394 21.655C28.9357 21.6131 28.9185 21.6064 28.8876 21.6349ZM28.8803 20.6098C28.6123 20.7664 28.2043 20.6604 27.9869 20.8967C27.8431 21.0526 27.8815 21.3121 28.0819 21.3949C28.3657 21.5112 28.7469 21.4089 28.8602 21.1233C28.9205 20.9704 28.8986 20.7907 28.9083 20.6269C28.9086 20.6236 28.908 20.6203 28.9064 20.6173C28.9049 20.6144 28.9026 20.6119 28.8997 20.6101C28.8968 20.6084 28.8935 20.6074 28.8901 20.6074C28.8867 20.6073 28.8833 20.6082 28.8803 20.6098Z" fill="white"/>
<path d="M30.543 19.572C30.5454 19.6407 30.5668 19.6471 30.6069 19.5915C30.7551 19.3845 30.9541 19.2665 31.2038 19.2377C31.6975 19.1804 32.0228 19.3286 32.1795 19.6823C32.2449 19.8297 32.2747 20.1003 32.269 20.4941C32.2629 20.9379 32.2629 21.3807 32.269 21.8224C32.2694 21.8358 32.2627 21.8425 32.2489 21.8425L31.596 21.8395C31.5778 21.8395 31.5686 21.8303 31.5686 21.8121C31.5731 21.2749 31.5715 20.7625 31.5637 20.2749C31.5585 19.9306 31.3967 19.7655 31.0783 19.7797C30.6916 19.7974 30.5881 20.1031 30.5832 20.4302C30.5775 20.8735 30.5783 21.335 30.5856 21.8145C30.5856 21.8215 30.5829 21.8281 30.5781 21.833C30.5733 21.8379 30.5668 21.8407 30.5601 21.8407L29.8938 21.8425C29.8896 21.8425 29.8855 21.8409 29.8826 21.8379C29.8796 21.8349 29.8779 21.8309 29.8779 21.8267L29.884 19.3168C29.884 19.3114 29.8862 19.3061 29.8901 19.3022C29.894 19.2983 29.8992 19.2961 29.9047 19.2961L30.5016 19.2949C30.5096 19.2948 30.5176 19.2965 30.5249 19.2998C30.5322 19.3031 30.5387 19.308 30.544 19.3142C30.5492 19.3204 30.553 19.3276 30.5552 19.3354C30.5573 19.3433 30.5577 19.3515 30.5564 19.3595C30.5446 19.433 30.5402 19.5038 30.543 19.572Z" fill="white"/>
<path d="M34.3068 19.5209C34.2966 19.4555 34.2922 19.3899 34.2934 19.3242C34.2934 19.32 34.2942 19.3159 34.2958 19.312C34.2975 19.3082 34.2998 19.3047 34.3028 19.3018C34.3058 19.2988 34.3094 19.2965 34.3133 19.2949C34.3172 19.2933 34.3214 19.2925 34.3257 19.2925L34.9176 19.2937C34.9481 19.2937 34.9631 19.3091 34.9627 19.34C34.957 20.1358 34.9566 20.8947 34.9615 21.6166C34.9658 22.1891 34.7325 22.6117 34.1442 22.7439C33.5028 22.8889 32.649 22.7798 32.5211 22.0191C32.5166 21.9936 32.5274 21.9808 32.5534 21.9808L33.1819 21.9802C33.193 21.9802 33.2038 21.984 33.2124 21.991C33.221 21.998 33.227 22.0077 33.2294 22.0185C33.2533 22.1261 33.3149 22.2061 33.4139 22.2585C33.7775 22.4503 34.2349 22.2987 34.2855 21.8529C34.3005 21.7165 34.3062 21.5754 34.3025 21.4296C34.3017 21.3947 34.2901 21.3906 34.2678 21.4174C34.0632 21.6631 33.7976 21.7786 33.4712 21.764C32.7111 21.7299 32.4151 21.0965 32.4443 20.4156C32.4742 19.7182 32.8908 19.1762 33.6472 19.2285C33.8829 19.245 34.093 19.3528 34.2306 19.5513C34.3005 19.6524 34.3259 19.6423 34.3068 19.5209ZM33.7134 21.2511C33.8707 21.2517 34.0218 21.1722 34.1336 21.0302C34.2453 20.8881 34.3085 20.6952 34.3092 20.4938C34.3099 20.2923 34.2481 20.0989 34.1373 19.9561C34.0266 19.8133 33.876 19.7328 33.7187 19.7322C33.5613 19.7317 33.4102 19.8112 33.2984 19.9532C33.1867 20.0952 33.1235 20.2882 33.1228 20.4896C33.1221 20.691 33.1839 20.8844 33.2947 21.0272C33.4054 21.1701 33.556 21.2506 33.7134 21.2511Z" fill="white"/>
<path d="M6.88076 19.8869C6.7484 19.8938 6.61989 19.8725 6.49524 19.823C6.39901 19.7852 6.304 19.7749 6.20778 19.7407C6.19593 19.7365 6.18318 19.7355 6.17082 19.7379C6.15846 19.7402 6.14693 19.7458 6.13741 19.7541C6.12788 19.7624 6.1207 19.7731 6.11658 19.7851C6.11247 19.797 6.11157 19.8099 6.11398 19.8224C6.14525 19.9783 6.16311 20.1311 6.16758 20.281C6.16787 20.2931 6.17242 20.3048 6.18043 20.3139C6.18845 20.323 6.19942 20.329 6.21143 20.3309C6.30197 20.3459 6.38602 20.3798 6.46357 20.4326C6.47941 20.4436 6.49707 20.4497 6.51656 20.4509L6.55554 20.4533C6.58152 20.4549 6.59188 20.4685 6.5866 20.4941C6.58416 20.5055 6.57624 20.5163 6.56285 20.5264C6.06709 20.3892 5.57032 20.2542 5.07253 20.1214C4.99863 20.1015 4.96209 20.0615 4.9629 20.0014C4.96656 19.7757 4.99275 19.5513 5.04147 19.3284C5.04214 19.3252 5.04348 19.3222 5.04542 19.3196C5.04736 19.317 5.04984 19.3148 5.05271 19.3132C5.05559 19.3116 5.05878 19.3106 5.06209 19.3103C5.0654 19.31 5.06875 19.3103 5.07192 19.3114L6.88076 19.8869Z" fill="white"/>
<path d="M6.88041 19.8869L8.54064 20.4034C8.57109 20.6239 8.56906 20.8437 8.53455 21.063L6.56249 20.5264C6.57589 20.5163 6.5838 20.5055 6.58624 20.4941C6.59152 20.4686 6.58116 20.4549 6.55518 20.4533L6.5162 20.4509C6.49671 20.4497 6.47905 20.4436 6.46322 20.4326C6.38566 20.3798 6.30162 20.3459 6.21107 20.3309C6.19907 20.3291 6.18809 20.323 6.18008 20.3139C6.17206 20.3048 6.16751 20.2931 6.16722 20.281C6.16276 20.1311 6.14489 19.9783 6.11363 19.8224C6.11122 19.8099 6.11211 19.7971 6.11623 19.7851C6.12034 19.7731 6.12752 19.7624 6.13705 19.7541C6.14657 19.7458 6.1581 19.7402 6.17046 19.7379C6.18282 19.7355 6.19557 19.7365 6.20742 19.7408C6.30365 19.7749 6.39866 19.7852 6.49489 19.823C6.61953 19.8725 6.74804 19.8938 6.88041 19.8869Z" fill="white"/>
<path d="M20.0637 20.4958C20.0644 20.9135 20.3309 21.2517 20.6588 21.2512C20.9868 21.2506 21.252 20.9115 21.2513 20.4937C21.2506 20.0759 20.9841 19.7377 20.6562 19.7383C20.3282 19.7389 20.063 20.078 20.0637 20.4958Z" fill="#116734"/>
<path d="M33.1235 20.4896C33.122 20.9091 33.3864 21.25 33.714 21.2512C34.0416 21.2523 34.3084 20.9132 34.3098 20.4938C34.3113 20.0743 34.0469 19.7334 33.7193 19.7322C33.3917 19.7311 33.1249 20.0702 33.1235 20.4896Z" fill="#116734"/>
<path d="M8.53516 21.063C8.56967 20.8437 8.5717 20.6238 8.54125 20.4034L10.8605 19.7505C10.8678 19.7484 10.8754 19.7481 10.8829 19.7495C10.8903 19.7508 10.8973 19.7539 10.9034 19.7584C10.9095 19.763 10.9144 19.7689 10.9178 19.7756C10.9213 19.7824 10.9231 19.7898 10.9232 19.7974C10.9268 20.0231 10.9155 20.2389 10.8891 20.4448C10.8858 20.4679 10.8728 20.4823 10.8501 20.488L8.53516 21.063Z" fill="white"/>
<path d="M28.8802 20.6098C28.8832 20.6082 28.8866 20.6073 28.89 20.6074C28.8934 20.6074 28.8967 20.6084 28.8996 20.6101C28.9025 20.6119 28.9048 20.6144 28.9063 20.6173C28.9079 20.6203 28.9085 20.6236 28.9082 20.6269C28.8985 20.7907 28.9204 20.9704 28.8601 21.1233C28.7468 21.4089 28.3656 21.5112 28.0818 21.3949C27.8814 21.3121 27.843 21.0526 27.9868 20.8967C28.2042 20.6604 28.6122 20.7664 28.8802 20.6098Z" fill="#116734"/>
<path d="M6.23503 21.0295C6.11282 21.1135 6.07303 21.1963 6.11566 21.278C6.12542 21.2963 6.12782 21.3175 6.12236 21.337C6.09313 21.4479 6.11485 21.537 6.18753 21.6044C6.19971 21.6154 6.20925 21.6281 6.21615 21.6428C6.23199 21.6761 6.25838 21.6891 6.29533 21.6817C6.30426 21.6801 6.31218 21.6826 6.31908 21.6891L6.33735 21.7079C6.35075 21.7213 6.34791 21.7282 6.32882 21.7286C6.31096 21.729 6.30203 21.7372 6.30203 21.753L5.51515 21.6513C5.50462 21.65 5.49452 21.6465 5.48549 21.641C5.47646 21.6355 5.46872 21.6283 5.46277 21.6196C5.30889 21.3951 5.18952 21.1494 5.10466 20.8827C5.10338 20.8786 5.10317 20.8742 5.10404 20.87C5.10491 20.8658 5.10683 20.8618 5.10962 20.8585C5.11242 20.8553 5.116 20.8527 5.12003 20.8512C5.12406 20.8497 5.12841 20.8492 5.13267 20.8498L6.23503 21.0295Z" fill="white"/>
<path d="M6.23454 21.0294L7.04213 21.1494C7.02954 21.1892 6.98224 21.2101 6.90022 21.2122C6.88073 21.2126 6.8655 21.2207 6.85454 21.2365C6.83993 21.2572 6.83668 21.2808 6.8448 21.3072C6.85008 21.3258 6.85089 21.3447 6.84723 21.3638C6.82003 21.5039 6.84135 21.6395 6.91118 21.7706C6.9193 21.7861 6.91646 21.7989 6.90266 21.809C6.88601 21.8212 6.85982 21.8244 6.82409 21.8188L6.30154 21.753C6.30154 21.7372 6.31047 21.729 6.32833 21.7286C6.34742 21.7282 6.35026 21.7213 6.33686 21.7079L6.31859 21.689C6.31169 21.6825 6.30377 21.6801 6.29484 21.6817C6.25789 21.689 6.2315 21.676 6.21566 21.6428C6.20876 21.6281 6.19922 21.6153 6.18704 21.6044C6.11436 21.537 6.09264 21.4479 6.12187 21.337C6.12733 21.3175 6.12493 21.2963 6.11517 21.2779C6.07254 21.1963 6.11233 21.1135 6.23454 21.0294Z" fill="white"/>
<path d="M8.54297 22.049L8.5448 21.3821L10.6874 21.0654C10.6912 21.0648 10.6951 21.0652 10.6988 21.0666C10.7024 21.0681 10.7055 21.0704 10.708 21.0734C10.7104 21.0765 10.7119 21.0801 10.7125 21.0839C10.7131 21.0878 10.7126 21.0917 10.7111 21.0953C10.6088 21.3397 10.4775 21.5695 10.3171 21.7847C10.3056 21.8003 10.291 21.8133 10.2742 21.8231C10.2575 21.8328 10.2389 21.839 10.2196 21.8413L8.54297 22.049Z" fill="white"/>
<path d="M7.04226 21.1494L8.54536 21.3821L8.54353 22.049L6.82422 21.8188C6.85995 21.8245 6.88614 21.8212 6.90279 21.809C6.91659 21.7989 6.91943 21.7861 6.91131 21.7707C6.84148 21.6395 6.82016 21.5039 6.84736 21.3638C6.85102 21.3447 6.8502 21.3259 6.84493 21.3072C6.83681 21.2808 6.84005 21.2572 6.85467 21.2365C6.86563 21.2207 6.88086 21.2126 6.90035 21.2122C6.98237 21.2101 7.02967 21.1892 7.04226 21.1494Z" fill="white"/>
<path d="M7.49424 22.3706L7.54906 22.3809C7.57626 22.3866 7.57768 22.3962 7.55332 22.4096L7.47049 22.4558C7.4506 22.4672 7.43963 22.4845 7.4376 22.5076C7.43233 22.5661 7.42827 22.6258 7.42542 22.6867C7.42258 22.7415 7.44045 22.7864 7.47902 22.8213C7.52937 22.8672 7.57443 22.8901 7.61423 22.8901C7.85134 22.8921 8.0911 22.9029 8.3335 22.9224C7.56124 23.0202 6.85841 22.8564 6.22501 22.4309C6.20512 22.4175 6.19131 22.401 6.1836 22.3815C6.18272 22.3792 6.18243 22.3766 6.18274 22.3741C6.18305 22.3716 6.18396 22.3692 6.18539 22.3671C6.18682 22.365 6.18874 22.3633 6.19097 22.3621C6.1932 22.3609 6.19568 22.3603 6.19821 22.3602L7.49424 22.3706Z" fill="white"/>
<path d="M8.53939 22.3681C8.56822 22.5415 8.56721 22.7195 8.53635 22.9023L8.33415 22.9224C8.09175 22.9029 7.85199 22.8921 7.61488 22.8901C7.57509 22.8901 7.53002 22.8671 7.47967 22.8213C7.4411 22.7863 7.42323 22.7415 7.42607 22.6867C7.42892 22.6258 7.43298 22.5661 7.43826 22.5076C7.44029 22.4845 7.45125 22.4672 7.47114 22.4558L7.55397 22.4095C7.57833 22.3961 7.57691 22.3866 7.54971 22.3809L7.4949 22.3706L8.53939 22.3681Z" fill="white"/>
<path d="M8.53613 22.9023C8.56699 22.7196 8.56801 22.5415 8.53918 22.3681L9.66712 22.3657C9.71909 22.3653 9.72396 22.3803 9.68173 22.4108C9.34067 22.6536 8.9588 22.8174 8.53613 22.9023Z" fill="white"/>
<circle cx="20" cy="20" r="19.5" stroke="black" stroke-opacity="0.05"/>
</svg>
