<svg width="40" height="40" viewBox="0 0 40 40" fill="none" xmlns="http://www.w3.org/2000/svg">
<circle cx="20" cy="20" r="20" fill="#1E4CA3"/>
<path d="M18.2429 28.8462C15.8697 28.4049 13.7835 27.0131 12.4677 25.0007C11.4773 23.478 10.951 21.6498 11.0036 19.8022C11.0706 17.5763 11.817 15.6414 13.2429 13.9878C13.4869 13.7065 13.7596 13.435 14.0658 13.1731C16.1568 11.3837 18.8553 10.6902 21.5539 11.1267C21.9367 11.1897 22.3051 11.2722 22.6592 11.3837C24.7119 12.019 26.3291 13.2264 27.5205 15.0062C27.8602 15.5105 28.1473 16.0779 28.3913 16.6986C29.1664 18.7062 29.1904 20.9369 28.5253 22.9445C28.3052 23.604 27.9607 24.3266 27.5779 24.9134C25.5348 28.0557 21.8889 29.5154 18.2477 28.8365L18.2429 28.8462ZM19.9271 15.8645C19.9271 15.8645 19.9319 15.8693 19.9367 15.8693C19.9654 15.8645 19.9845 15.8451 19.9989 15.816C20.5587 14.7006 21.1999 13.6483 21.9128 12.6591C21.9224 12.6494 21.9176 12.6348 21.908 12.6251C21.908 12.6251 21.9032 12.6251 21.8984 12.6251C20.597 12.2905 19.3003 12.2905 18.0084 12.6348C17.9893 12.6397 17.9797 12.6591 17.9845 12.6785C17.9845 12.6785 17.9845 12.6882 17.9893 12.6882C18.7118 13.6677 19.3577 14.7249 19.9271 15.8693V15.8645ZM24.1855 13.7065C22.3147 15.8984 21.4343 18.8032 22.0133 21.6934C22.353 23.3858 23.0898 24.8988 24.2238 26.2324C24.2573 26.2712 24.2908 26.276 24.3339 26.2469C25.9128 25.0782 26.908 23.5362 27.31 21.6255C27.6353 20.0883 27.4679 18.4395 26.8841 17.0186C26.3195 15.656 25.4391 14.5503 24.2286 13.7065C24.2142 13.6968 24.1999 13.6968 24.1855 13.7114V13.7065ZM13.085 16.9604C12.4055 18.5947 12.2763 20.515 12.7979 22.2511C13.2955 23.9047 14.2429 25.2431 15.6448 26.2663C15.6591 26.276 15.6735 26.276 15.6879 26.2663C15.7405 26.2178 15.7883 26.1645 15.8314 26.116C17.0754 24.5497 17.9032 22.6439 18.0563 20.6556C18.2525 18.1146 17.396 15.6899 15.774 13.7599C15.7453 13.7259 15.7022 13.7211 15.6687 13.7453C14.4869 14.5891 13.6304 15.6657 13.085 16.9701V16.9604ZM19.6209 24.7242C19.1711 25.6456 18.6161 26.5136 17.951 27.3332C17.9462 27.338 17.951 27.3477 17.951 27.3526C17.951 27.3526 17.951 27.3526 17.9558 27.3526C19.2668 27.6872 20.6018 27.7211 21.8984 27.3865C21.9224 27.3817 21.9367 27.3574 21.9319 27.3332C21.9319 27.3283 21.9319 27.3186 21.9224 27.3138C21.3482 26.6106 20.8506 25.8444 20.4247 25.0249C20.286 24.7582 20.1664 24.4963 20.0611 24.2345C20.0324 24.1617 19.9989 24.0938 19.9558 24.0211C19.951 24.0114 19.9415 24.0114 19.9319 24.0162C19.9319 24.0162 19.9271 24.0162 19.9271 24.0259C19.8219 24.2587 19.7309 24.4915 19.6209 24.7194V24.7242Z" fill="white"/>
<circle cx="20" cy="20" r="19.5" stroke="black" stroke-opacity="0.05"/>
</svg>
