<svg width="41" height="40" viewBox="0 0 41 40" fill="none" xmlns="http://www.w3.org/2000/svg">
<circle cx="20.0723" cy="20" r="20" fill="#F6F8FA"/>
<g clip-path="url(#clip0_18011_45688)">
<path d="M10.7513 18.0923C10.7513 18.0923 10.7343 18.3318 10.8889 18.3846C11.0604 18.4426 11.2312 18.5548 11.2312 18.8352V21.2884L11.2182 21.3016L8.4988 18.0929L7.18996 18.0923C7.18996 18.0923 7.16453 18.3391 7.3243 18.376C7.51342 18.4189 7.73515 18.5542 7.73515 18.8352V21.9278C7.73515 22.2082 7.56429 22.3342 7.39277 22.3923C7.23822 22.4444 7.25452 22.6694 7.25452 22.6694H8.65335C8.65335 22.6694 8.66966 22.4444 8.5151 22.3923C8.34424 22.3336 8.17338 22.2075 8.17338 21.9278V19.0041L11.3636 22.707H11.6714V18.8174C11.6786 18.5502 11.8443 18.4413 12.0125 18.3846C12.1664 18.3318 12.1501 18.0923 12.1501 18.0923H10.7513Z" fill="#76777A"/>
<path d="M15.1516 18C15.1223 18 15.0101 18 14.9801 18C13.398 18.0541 12.6044 19.222 12.6461 20.4776C12.6898 21.8111 13.7221 22.7757 15.0662 22.7658C16.4096 22.7757 17.4399 21.8117 17.4836 20.4776C17.5254 19.222 16.7337 18.0541 15.1516 18ZM16.5361 20.4776C16.4904 21.8612 15.8533 22.4623 15.0655 22.4623C14.2777 22.4623 13.595 21.8612 13.595 20.4776C13.595 19.4397 14.1043 18.3042 15.0655 18.3042C16.0268 18.3042 16.57 19.4404 16.5361 20.4776Z" fill="#76777A"/>
<path d="M25.1271 18C25.0978 18 24.985 18 24.9556 18C23.3735 18.0541 22.5806 19.222 22.6216 20.4776C22.6653 21.8111 23.6977 22.7757 25.0411 22.7658C26.3851 22.7757 27.4148 21.8117 27.4592 20.4776C27.5009 19.222 26.7092 18.0541 25.1271 18ZM26.5116 20.4776C26.466 21.8612 25.8295 22.4623 25.0417 22.4623C24.2539 22.4623 23.5718 21.8612 23.5718 20.4776C23.5718 19.3625 24.0811 18.3042 25.0417 18.3042C26.0023 18.3042 26.5494 19.3632 26.5116 20.4776Z" fill="#76777A"/>
<path d="M30.608 18C30.5786 18 30.4658 18 30.4371 18C28.8544 18.0541 28.0614 19.222 28.1031 20.4776C28.1468 21.8111 29.1792 22.7757 30.5232 22.7658C31.8666 22.7757 32.897 21.8117 32.9413 20.4776C32.9824 19.222 32.1901 18.0541 30.608 18ZM31.9925 20.4776C31.9475 21.8612 31.3103 22.4623 30.5226 22.4623C29.7348 22.4623 29.052 21.8612 29.052 20.4776C29.052 19.3625 29.562 18.3042 30.5226 18.3042C31.4831 18.3042 32.0277 19.4404 31.9925 20.4776Z" fill="#76777A"/>
<path d="M21.8544 19.3315C21.8544 18.382 21.0745 18.093 20.1178 18.093H18.0166C18.0166 18.093 17.9938 18.3246 18.1698 18.3774C18.3564 18.4335 18.5624 18.5549 18.5624 18.8353V21.9278C18.5624 22.2083 18.3916 22.3343 18.2201 22.3924C18.0655 22.4445 18.0825 22.6695 18.0825 22.6695H19.9234C19.9234 22.6695 19.9378 22.4366 19.7708 22.3844C19.5843 22.3264 19.3783 22.3039 19.3783 21.9272V18.4295H19.8471C20.6056 18.4295 20.9903 18.7383 20.9903 19.3275C20.9903 20.0639 20.4106 20.3456 19.8269 20.374C19.8263 20.4386 19.8269 20.5152 19.8843 20.5996C19.8954 20.6161 20.8964 21.8843 20.931 21.9292C21.0823 22.1251 21.3151 22.4042 21.4344 22.5019C21.9698 22.9446 22.6083 22.7632 22.6083 22.7632L20.7843 20.4756C21.3686 20.3245 21.8557 19.9735 21.8557 19.3315H21.8544Z" fill="#76777A"/>
<path d="M33.0341 23.7359C33.0256 23.7359 33.0165 23.7359 33.0074 23.7359C28.7092 23.6189 24.3979 23.5593 20.0736 23.5593C15.7493 23.5593 11.4347 23.6182 7.13585 23.7359C7.12541 23.7359 7.11628 23.7359 7.1065 23.7359C7.07324 23.7359 7.07324 23.809 7.07324 23.809C7.07324 23.809 7.07324 23.8827 7.11237 23.8827C7.12085 23.8827 7.12998 23.8827 7.13911 23.8834C11.438 24.0005 15.7493 24.0593 20.0736 24.0593C24.3979 24.0593 28.7118 24.0005 33.0113 23.8834C33.0204 23.8834 33.0309 23.8827 33.0406 23.8827C33.0732 23.8827 33.0732 23.8097 33.0732 23.8097C33.0732 23.8097 33.0732 23.7359 33.0341 23.7359Z" fill="#CF3339"/>
</g>
<circle cx="20" cy="20" r="19.5" stroke="black" stroke-opacity="0.05"/>
<defs>
<clipPath id="clip0_18011_45688">
<rect width="26" height="6" fill="white" transform="translate(7.07227 18)"/>
</clipPath>
</defs>
</svg>
