<svg width="40" height="40" viewBox="0 0 40 40" fill="none" xmlns="http://www.w3.org/2000/svg">
<circle cx="20" cy="20" r="20" fill="#1A1A1A"/>
<g clip-path="url(#clip0_16523_10720)">
<path d="M28.6472 11.9491C26.5092 10.1897 22.0594 10 20.2442 10C20.1224 10 20.0404 10 19.9993 10C19.9597 10 19.8776 10 19.7558 10C17.9406 10 13.4895 10.1897 11.3528 11.9491C10.2763 12.8349 8.99727 14.4701 9 17.234C9 20.3283 10.0506 23.4635 11.8808 25.837C13.9518 28.5218 16.834 30 19.9993 30C23.1646 30 26.0468 28.5218 28.1178 25.837C29.9494 23.4635 30.9986 20.3283 30.9986 17.2354C31.0014 14.4714 29.721 12.8363 28.6458 11.9505L28.6472 11.9491Z" fill="white"/>
<path d="M27.9139 12.839C25.7116 11.025 20.0006 11.1533 20.0006 11.1533C20.0006 11.1533 14.2896 11.0264 12.0873 12.839C11.2118 13.5597 10.1517 14.8877 10.1558 17.234C10.1558 22.8178 13.9175 28.848 20.0006 28.848C26.0836 28.848 29.8468 22.8178 29.8468 17.234C29.8495 14.8877 28.7894 13.5597 27.9139 12.839Z" fill="#231F20"/>
<path d="M28.6444 16.7222H25.6925L25.951 15.6289L24.46 13.2225L23.6283 16.744H16.3729L16.3675 16.7222L15.5399 13.2225L14.0489 15.6289L14.3074 16.7222H11.3555L13.3882 18.7477H14.7875L16.3374 25.2911L18.7463 26.7774L16.4112 16.9023L18.3591 18.7272H21.6407L23.59 16.9023L21.255 26.7774L23.6652 25.2911L25.2123 18.7477H26.6131L28.6444 16.7222Z" fill="white"/>
<path d="M28.6472 11.9491C26.5092 10.1897 22.0594 10 20.2442 10C20.1224 10 20.0404 10 19.9993 10C19.9597 10 19.8776 10 19.7558 10C17.9406 10 13.4895 10.1897 11.3528 11.9491C10.2763 12.8349 8.99727 14.4701 9 17.234C9 20.3283 10.0506 23.4635 11.8808 25.837C13.9518 28.5218 16.834 30 19.9993 30C23.1646 30 26.0468 28.5218 28.1178 25.837C29.9494 23.4635 30.9986 20.3283 30.9986 17.2354C31.0014 14.4714 29.721 12.8363 28.6458 11.9505L28.6472 11.9491ZM20.0007 29.6533C13.4197 29.6533 9.34608 23.2069 9.34608 17.234C9.34335 14.6038 10.5553 13.0533 11.573 12.2166C12.5087 11.4454 14.0353 10.9036 16.1117 10.6019C17.704 10.3699 19.1909 10.3453 19.7572 10.3453C19.8817 10.3453 19.9665 10.3453 20.0007 10.3467C20.0363 10.3467 20.1183 10.3453 20.2455 10.3453C20.8091 10.3453 22.2974 10.3713 23.8896 10.6019C25.9661 10.9036 27.4927 11.4468 28.427 12.2166C29.4447 13.0547 30.658 14.6052 30.6539 17.234C30.6539 23.2055 26.5817 29.6533 20.0007 29.6533Z" fill="#231F20"/>
</g>
<circle cx="20" cy="20" r="19.5" stroke="black" stroke-opacity="0.05"/>
<defs>
<clipPath id="clip0_16523_10720">
<rect width="22" height="20" fill="white" transform="translate(9 10)"/>
</clipPath>
</defs>
</svg>
