<svg width="40" height="40" viewBox="0 0 40 40" fill="none" xmlns="http://www.w3.org/2000/svg">
<circle cx="20" cy="20" r="20" fill="#F6F8FA"/>
<path d="M20.8099 14.0044L19.0009 17.1983C18.8928 17.3893 18.7359 17.5481 18.5464 17.6586C18.3568 17.7691 18.1412 17.8272 17.9218 17.8271H14.6872C14.6872 17.8271 12.7075 18.0595 12.7075 20.0969C12.7075 22.1343 14.3091 22.4598 14.3091 22.4598H16.1706L13.5228 27.317C13.5228 27.317 8 26.0345 8 19.8934C8 16.8229 9.43352 15.1137 10.8671 14.1711C12.0015 13.4381 13.3234 13.0479 14.674 13.0474L20.227 13.0054C20.344 13.0054 20.459 13.036 20.5605 13.0943C20.6619 13.1526 20.7464 13.2364 20.8053 13.3375C20.8643 13.4386 20.8958 13.5533 20.8966 13.6703C20.8974 13.7873 20.8675 13.9025 20.8099 14.0044Z" fill="#FF0000"/>
<path d="M19.8948 26.0647L25.3677 16.5762H27.0559C27.8436 16.5762 28.4383 16.9253 28.4238 17.7694C28.3949 19.3986 26.9391 19.2529 26.9391 19.2529H25.2168C25.0944 19.2528 24.9742 19.2849 24.8682 19.3459C24.7622 19.407 24.6742 19.4949 24.6129 19.6007L23.3001 21.8429C23.2046 22.0068 23.1599 22.1953 23.1716 22.3846C23.1833 22.5738 23.2509 22.7554 23.3658 22.9063L26.7894 27.4024H30.922L27.2844 22.5453C29.8744 22.3418 31.9998 21.1196 31.9998 17.5699C32.0059 16.9808 31.8888 16.3968 31.656 15.8556C31.4231 15.3144 31.0796 14.8278 30.6476 14.4272C29.6602 13.4994 28.353 12.9882 26.9982 13.0002H24.0576C23.5179 13.0003 22.988 13.1436 22.5219 13.4155C22.0557 13.6874 21.6702 14.0782 21.4045 14.5479L14.1699 27.3736H17.6356C18.0938 27.3724 18.5437 27.2508 18.9401 27.0211C19.3366 26.7914 19.6659 26.4616 19.8948 26.0647Z" fill="#FF0000"/>
<circle cx="20" cy="20" r="19.5" stroke="black" stroke-opacity="0.05"/>
</svg>
