<svg width="40" height="40" viewBox="0 0 40 40" fill="none" xmlns="http://www.w3.org/2000/svg">
<circle cx="20" cy="20" r="20" fill="#8BC900"/>
<path d="M22.9207 22.9551L19.8623 26.1776C20.4834 27.5463 20.8126 29.0294 20.8287 30.5324H24.4281C26.437 30.5324 28.3637 29.7345 29.7843 28.3141C31.205 26.8938 32.0033 24.9673 32.0038 22.9584H22.9207V22.9551Z" fill="white"/>
<path d="M17.6191 22.9551C18.5573 23.8839 19.3184 24.976 19.8652 26.1776L22.9202 22.9551H17.6191Z" fill="#00915C"/>
<path d="M23.016 11.8521L17.5742 17.587V22.9115L17.6194 22.9551H22.9205L23.294 22.5598C23.9789 21.8384 24.5149 20.9893 24.8716 20.0608C25.2283 19.1323 25.3985 18.1426 25.3727 17.1483C25.3469 16.154 25.1255 15.1745 24.7211 14.2658C24.3168 13.3571 23.7374 12.5369 23.016 11.8521Z" fill="#00BFD7"/>
<path d="M17.5736 22.9115V17.5869L14.5186 20.8061C15.6502 21.3274 16.6836 22.0396 17.5736 22.9115Z" fill="#B54D15"/>
<path d="M14.5189 20.806L17.574 17.5868V16.0476C17.574 14.0389 16.776 12.1124 15.3556 10.692C13.9352 9.2716 12.0087 8.47363 10 8.47363V19.58C11.5423 19.6713 13.05 20.0747 14.4318 20.7658L14.5189 20.806Z" fill="#FF6671"/>
<circle cx="20" cy="20" r="19.5" stroke="black" stroke-opacity="0.05"/>
</svg>
