<svg width="40" height="40" viewBox="0 0 40 40" fill="none" xmlns="http://www.w3.org/2000/svg">
<circle cx="20" cy="20" r="20" fill="#00AFB5"/>
<path d="M24.4122 19.6134C24.7641 19.1875 25.3924 18.2307 26.0331 18.6455C26.2862 18.8097 26.248 19.2579 26.1862 19.5085C26.0134 20.2113 25.8574 20.8911 25.7183 21.5479C25.6846 21.7075 25.671 21.8693 25.6776 22.033C25.6784 22.0468 25.6827 22.0601 25.6902 22.0717C25.6976 22.0833 25.7079 22.0928 25.72 22.0991C25.7321 22.1055 25.7456 22.1086 25.7592 22.108C25.7727 22.1075 25.7859 22.1033 25.7974 22.096C25.985 21.9783 26.1554 21.8388 26.3084 21.6775C26.9664 20.98 27.4059 20.3813 27.6442 19.5257C27.8183 18.8998 28.8614 18.9147 28.4627 19.7122C28.1775 20.2837 27.8467 20.9516 27.8627 21.5911C27.8635 21.6223 27.8711 21.653 27.8851 21.681C27.8991 21.709 27.919 21.7335 27.9435 21.753C27.968 21.7724 27.9964 21.7862 28.0268 21.7934C28.0572 21.8007 28.0889 21.8011 28.1195 21.7948C28.2503 21.7676 28.375 21.7125 28.4935 21.6294C29.075 21.2183 29.7244 20.6294 29.8083 19.8825C29.9639 18.49 30.2453 17.1234 31.1391 16.0543C31.449 15.6827 32.1156 15.5506 32.2662 16.1419C32.5107 17.0987 31.2354 19.1529 30.7255 19.9776C30.6636 20.0762 30.6212 20.1861 30.6009 20.301C30.4996 20.8623 30.5284 21.4162 30.6873 21.9627C30.7367 22.1347 30.8301 22.1631 30.9675 22.0479C31.4737 21.622 31.8724 20.9701 32.228 20.4171C32.3127 20.2846 32.4337 20.2175 32.5909 20.2158C32.6032 20.2158 32.616 20.2154 32.6292 20.2146C32.7823 20.2039 32.8246 20.2673 32.7563 20.4047C32.4094 21.0985 31.5119 22.6219 30.67 22.6725C30.0145 22.7108 29.791 21.8503 29.7787 21.3244C29.777 21.2619 29.7552 21.2537 29.7132 21.2997C29.3194 21.7417 28.4565 22.4182 27.8195 22.3256C27.4356 22.2688 27.1985 21.9368 27.1726 21.5294C27.1677 21.4462 27.1405 21.4384 27.0911 21.5059C26.8097 21.8944 26.4977 22.2088 26.1554 22.4491C25.3974 22.9812 24.8591 22.4577 24.9159 21.6812C24.9307 21.4862 24.9587 21.3002 24.9999 21.1232C25.134 20.5446 25.2822 19.9496 25.4443 19.3381C25.4887 19.171 25.448 19.1463 25.3221 19.264C24.6616 19.885 24.1641 20.7553 23.7814 21.5713C23.6876 21.7726 23.5332 21.901 23.2925 21.8528C23.2413 21.8427 23.1946 21.8169 23.1587 21.7788C23.1229 21.7407 23.0997 21.6924 23.0925 21.6405C23.0687 21.4676 23.081 21.296 23.1296 21.1257C23.3526 20.3504 23.5645 19.5829 23.7653 18.8233C23.7983 18.6998 23.7575 18.6661 23.6431 18.7221C23.3271 18.8764 22.8827 19.6615 22.6753 20.0245C22.2465 20.7784 21.8185 21.5915 21.3914 22.4639C21.2877 22.6754 21.1189 22.7647 20.8852 22.7318C20.7906 22.7186 20.7111 22.6614 20.6469 22.5602C20.6254 22.5267 20.6117 22.489 20.6068 22.4499C20.6018 22.4107 20.6059 22.3712 20.6186 22.3343L21.4284 19.9196C21.4802 19.764 21.4626 19.7554 21.3753 19.8936C20.9618 20.5516 19.7346 22.7787 18.726 22.4577C18.4536 22.3713 18.3005 22.161 18.2668 21.8269C18.252 21.6754 18.2055 21.6647 18.1273 21.7948C17.9183 22.1413 17.6763 22.4273 17.4014 22.6528C16.752 23.1849 16.3076 22.4293 16.3076 21.859C16.3064 21.18 16.5619 20.5035 16.8385 19.8924C17.0936 19.3286 17.4389 18.8875 17.8742 18.569C18.4779 18.127 19.1964 18.5196 19.0162 19.2838C19.0041 19.3348 18.9792 19.3819 18.9438 19.4207C18.9083 19.4596 18.8636 19.4889 18.8137 19.506C18.7083 19.5414 18.6256 19.5286 18.5656 19.4677C18.5293 19.4307 18.5108 19.3846 18.51 19.3295C18.5092 19.2192 18.5088 19.1081 18.5088 18.9961C18.5087 18.9798 18.504 18.9639 18.4951 18.9503C18.4861 18.9366 18.4735 18.9259 18.4585 18.9194C18.4436 18.9128 18.4271 18.9107 18.411 18.9134C18.395 18.9161 18.38 18.9234 18.368 18.9344C18.1771 19.1138 18.0125 19.3183 17.8742 19.548C17.4594 20.2376 17.1994 20.9862 17.094 21.7935C17.0767 21.9219 17.0298 22.0454 17.0817 22.175C17.0864 22.1872 17.0941 22.198 17.1041 22.2064C17.1141 22.2148 17.126 22.2205 17.1388 22.2231C17.1516 22.2257 17.1648 22.225 17.1772 22.2211C17.1897 22.2173 17.201 22.2103 17.2101 22.2009C17.8014 21.5985 18.1767 20.7726 18.5421 20.0245C18.6532 19.7973 18.8273 19.6965 19.0643 19.722C19.2803 19.7455 19.326 19.9875 19.2742 20.159C19.1433 20.5887 19.0252 21.0125 18.9199 21.4306C18.8886 21.5557 18.8865 21.6808 18.9137 21.8059C18.9199 21.8358 18.9334 21.8637 18.953 21.8871C18.9726 21.9105 18.9977 21.9288 19.0261 21.9402C19.0545 21.9517 19.0854 21.956 19.1159 21.9528C19.1465 21.9496 19.1758 21.939 19.2013 21.9219C19.5174 21.7096 19.7865 21.4285 20.0087 21.0788C20.3865 20.4837 20.7474 19.9545 21.0914 19.4912C21.2239 19.3126 21.3815 19.1669 21.5642 19.0542C21.8617 18.8714 22.2407 18.9961 22.2395 19.3912C22.2387 19.527 22.2255 19.6591 22.2 19.7875C22.1802 19.8862 22.1967 19.8928 22.2494 19.8072C22.5493 19.3171 23.3444 18.0172 24.0196 18.1135C24.7147 18.2122 24.4974 19.1381 24.3665 19.5887C24.3419 19.6718 24.3571 19.6801 24.4122 19.6134ZM31.5984 16.3234C31.0169 16.8629 30.7502 18.2344 30.6897 19.0258C30.6897 19.0284 30.6906 19.0309 30.6921 19.033C30.6936 19.0351 30.6957 19.0367 30.6982 19.0375C30.7006 19.0383 30.7033 19.0383 30.7058 19.0375C30.7082 19.0368 30.7104 19.0352 30.712 19.0332C31.1597 18.3089 31.5185 17.539 31.7885 16.7234C31.8193 16.6333 31.8206 16.5012 31.8144 16.4074C31.8126 16.3832 31.804 16.36 31.7895 16.3405C31.7751 16.321 31.7555 16.306 31.7329 16.2972C31.7103 16.2884 31.6856 16.2862 31.6618 16.2909C31.638 16.2955 31.616 16.3068 31.5984 16.3234Z" fill="white"/>
<path d="M10.0547 23.1688C10.0662 22.9779 10.1197 22.7853 10.2151 22.5911C10.2598 22.5003 10.3324 22.4263 10.4224 22.3799C10.5124 22.3334 10.615 22.317 10.7151 22.3331L10.7855 22.3442C11.0102 22.3796 11.0637 22.4944 10.946 22.6886C10.8587 22.8335 10.8164 22.9841 10.8188 23.1404C10.8197 23.2022 10.8509 23.233 10.9127 23.233H14.2866C14.2934 23.2331 14.3002 23.2317 14.3064 23.2289C14.3127 23.2261 14.3182 23.222 14.3227 23.2168C14.3271 23.2116 14.3304 23.2055 14.3323 23.1989C14.3342 23.1924 14.3346 23.1855 14.3335 23.1787C14.2718 22.7475 14.0919 22.373 13.794 22.0553C13.4204 21.6578 13.0327 21.2656 12.6311 20.8788C11.4731 19.7628 11.1015 17.8703 12.4768 16.7148C13.0134 16.2646 13.6776 16.0741 14.4693 16.1432C16.7544 16.3432 16.3223 18.7295 15.4347 20.0282C15.2882 20.243 15.0935 20.3043 14.8508 20.2122C14.8113 20.1965 14.7738 20.1755 14.7384 20.1492C14.559 20.0142 14.5508 19.8698 14.7137 19.7159C15.1779 19.2756 15.4499 18.7382 15.5297 18.1036C15.6343 17.2781 15.3186 16.8209 14.5829 16.7321C13.8125 16.6382 13.1027 17.0876 12.7694 17.7728C11.9398 19.4826 13.1693 20.548 14.3125 21.5541C14.7853 21.9689 15.2656 22.5195 15.2952 23.1664C15.2977 23.2108 15.3215 23.233 15.3668 23.233H33.971C34.0129 23.233 34.0339 23.2544 34.0339 23.2972L34.0352 23.6059C34.0352 23.6462 34.0154 23.6663 33.9759 23.6663H15.3026C15.2606 23.6663 15.233 23.6861 15.2199 23.7256C14.5421 25.7403 11.0559 25.4441 10.1991 23.7207C10.1909 23.7043 10.1782 23.6906 10.1625 23.681C10.1468 23.6714 10.1287 23.6664 10.1102 23.6663H4.06725C4.04832 23.6663 4.03886 23.6573 4.03886 23.6392L4.03516 23.2676C4.03516 23.2446 4.04627 23.233 4.06849 23.233L9.98553 23.2343C10.0291 23.2343 10.0522 23.2125 10.0547 23.1688ZM11.5163 24.0367C12.3348 24.4206 13.6817 24.6601 14.215 23.7491C14.2471 23.6939 14.231 23.6663 14.1668 23.6663H11.1398C11.0682 23.6663 11.0575 23.6919 11.1077 23.7429C11.2312 23.8688 11.3674 23.9667 11.5163 24.0367Z" fill="white"/>
<path d="M30.6895 19.0257C30.7499 18.2344 31.0166 16.8628 31.5981 16.3234C31.6157 16.3067 31.6377 16.2955 31.6615 16.2908C31.6853 16.2862 31.71 16.2884 31.7326 16.2972C31.7552 16.306 31.7748 16.321 31.7893 16.3405C31.8037 16.3599 31.8123 16.3831 31.8141 16.4073C31.8203 16.5011 31.819 16.6332 31.7882 16.7233C31.5182 17.5389 31.1594 18.3089 30.7117 19.0331C30.7101 19.0352 30.708 19.0367 30.7055 19.0375C30.703 19.0383 30.7004 19.0382 30.6979 19.0374C30.6954 19.0366 30.6933 19.035 30.6918 19.0329C30.6903 19.0308 30.6895 19.0283 30.6895 19.0257Z" fill="#00AFB5"/>
<path d="M27.7843 17.8813C28.2584 17.7447 28.6666 17.4813 29.009 17.0912C29.1168 16.9694 29.2102 16.9797 29.2892 17.1221C29.3295 17.1937 29.3497 17.2743 29.3497 17.364C29.3497 17.4426 29.3246 17.5192 29.2781 17.5825C28.925 18.0706 28.5041 18.4043 28.0152 18.5837C27.7996 18.6619 27.6522 18.5936 27.5732 18.3788L27.556 18.3307C27.4712 18.0986 27.5473 17.9488 27.7843 17.8813Z" fill="white"/>
<path d="M14.2145 23.749C13.6812 24.66 12.3343 24.4205 11.5158 24.0366C11.3669 23.9667 11.2307 23.8687 11.1072 23.7428C11.057 23.6918 11.0677 23.6663 11.1393 23.6663H14.1663C14.2305 23.6663 14.2466 23.6938 14.2145 23.749Z" fill="#00AFB5"/>
<circle cx="20" cy="20" r="19.5" stroke="black" stroke-opacity="0.05"/>
</svg>
