<svg width="40" height="40" viewBox="0 0 40 40" fill="none" xmlns="http://www.w3.org/2000/svg">
<circle cx="20" cy="20" r="20" fill="#EA002C"/>
<path d="M14.6549 22.1057C14.0431 21.8211 13.5451 21.5899 13.5451 21.1239C13.5451 20.7682 13.8296 20.5085 14.3917 20.5085C14.5768 20.51 14.7615 20.529 14.943 20.5655C15.032 20.5834 15.1226 20.5929 15.2134 20.5939C15.7042 20.5939 15.9817 20.3022 16.1667 19.7473L16.2414 19.5197C15.6294 19.2688 14.9748 19.1383 14.3134 19.1355C12.6487 19.1355 11.7701 20.2026 11.7701 21.3125C11.7534 21.7815 11.9134 22.2397 12.2183 22.5966C12.5949 22.9861 13.0462 23.2958 13.5451 23.5072C14.2316 23.8416 14.8505 24.0906 14.8505 24.5921C14.8505 25.0332 14.3952 25.2858 13.7834 25.2858C13.189 25.2523 12.6143 25.0607 12.1187 24.7308L11.4286 26.0327C12.1783 26.465 13.032 26.6839 13.8972 26.6659C15.4517 26.6659 16.6291 25.7731 16.6291 24.4036C16.6291 23.0341 15.5264 22.5325 14.6549 22.1057Z" fill="white"/>
<path d="M20.7301 22.7424L23.5509 19.2849H21.5411L19.293 22.2693H19.261V19.2849H17.6034V26.609H17.703C18.4144 26.609 19.2717 26.2781 19.2717 25.0794V23.4004H19.3037L21.598 26.5094H23.7074L20.7301 22.7424Z" fill="white"/>
<path d="M23.6437 11.4412C23.0639 11.5515 22.1995 12.0815 22.1995 13.017C22.1995 13.8672 22.911 14.383 22.911 15.507C22.9105 15.852 22.8196 16.1909 22.6473 16.4899C22.4751 16.7888 22.2275 17.0374 21.9292 17.2109C22.1284 17.1931 22.3525 17.1789 22.5944 17.1789C22.8739 17.1752 23.1532 17.1918 23.4303 17.2287L26.0448 14.0272C25.3908 13.0401 24.5797 12.1666 23.6437 11.4412Z" fill="white"/>
<path d="M25.842 20.1064C26.1728 19.5942 26.1977 18.7796 26.2404 17.9473C26.2724 17.1718 26.4325 16.5884 27.4712 16.5849C27.7024 16.5849 27.9194 16.6133 28.3178 16.6133C29.4211 16.6099 30.5029 16.3075 31.448 15.7383C29.8349 14.6998 27.9755 14.107 26.059 14.0202C25.9096 14.4399 24.7535 17.6591 24.6646 17.933C24.8403 18.1423 24.9963 18.3673 25.1306 18.6053C25.4212 19.0786 25.6597 19.5819 25.842 20.1064Z" fill="white"/>
<path d="M20.3178 17.4777C20.1862 17.4777 20.1222 17.3923 20.1044 17.2394C20.0866 17.0864 19.4392 11.1033 19.3361 10.1998C19.3361 10.0647 19.2863 9.82277 19.2863 9.7374C19.2838 9.70995 19.2871 9.68228 19.296 9.6562C19.3049 9.63013 19.3193 9.60623 19.3381 9.58608C19.3569 9.56593 19.3797 9.54998 19.4051 9.53928C19.4305 9.52857 19.4579 9.52336 19.4855 9.52397C19.7949 9.52397 21.4846 9.91881 23.2738 11.1745C22.8734 11.2755 22.5164 11.5032 22.2562 11.8238C21.9959 12.1443 21.8462 12.5405 21.8296 12.953C21.8296 13.9348 22.541 14.479 22.541 15.4644C22.5482 17.09 20.702 17.4777 20.3178 17.4777Z" fill="white"/>
<path d="M25.9911 20.5333C26.0137 20.5957 26.0411 20.6564 26.0729 20.7147C26.0874 20.745 26.11 20.7707 26.1383 20.7889C26.1666 20.8072 26.1994 20.8172 26.233 20.8178C26.2849 20.8149 26.3357 20.8016 26.3824 20.7787L32.8065 17.7907C32.9239 17.7338 33.1622 17.6342 33.2263 17.5915C33.2588 17.5753 33.2863 17.5505 33.3057 17.5198C33.3252 17.489 33.3358 17.4536 33.3365 17.4172C33.3364 17.3798 33.3266 17.343 33.3081 17.3105C32.8738 16.7894 32.3628 16.3372 31.7927 15.9695C30.76 16.5998 29.577 16.9413 28.3672 16.9584C27.9688 16.9584 27.8764 16.9335 27.606 16.9335C26.8092 16.9335 26.61 17.2892 26.5816 17.9721C26.5816 18.1038 26.5816 18.2816 26.5816 18.4772C26.5531 19.0997 26.4677 19.9606 25.9911 20.5333Z" fill="white"/>
<circle cx="20" cy="20" r="19.5" stroke="black" stroke-opacity="0.05"/>
</svg>
