<svg width="40" height="40" viewBox="0 0 40 40" fill="none" xmlns="http://www.w3.org/2000/svg">
<circle cx="20" cy="20" r="20" fill="#F6C533"/>
<g clip-path="url(#clip0_14382_19739)">
<path d="M29.8844 20.5378C29.8846 18.6119 29.3207 16.728 28.2622 15.119C27.2038 13.51 25.6971 12.2463 23.9285 11.484C22.1598 10.7217 20.2066 10.4942 18.3101 10.8297C16.4136 11.1651 14.6568 12.0488 13.2569 13.3715C11.8571 14.6942 10.8753 16.398 10.433 18.2725C9.99061 20.1469 10.1071 22.1099 10.7679 23.9189C11.4288 25.728 12.6051 27.3037 14.1516 28.4517C15.698 29.5996 17.5469 30.2693 19.4698 30.3782V28.5656C17.3665 28.4125 15.4052 27.4476 14.0003 25.8749C12.5954 24.3022 11.8571 22.2448 11.9413 20.1377C12.0255 18.0306 12.9257 16.0387 14.4516 14.5831C15.9776 13.1276 18.0096 12.3223 20.1184 12.3375C22.2272 12.3528 24.2474 13.1873 25.7521 14.6648C27.2568 16.1422 28.1282 18.1469 28.1819 20.255C28.2357 22.3631 27.4677 24.4096 26.0403 25.9619C24.6128 27.5141 22.6378 28.4506 20.5325 28.5733V30.3834C23.0562 30.2537 25.4337 29.1598 27.174 27.3276C28.9144 25.4954 29.8846 23.0648 29.8844 20.5378Z" fill="white"/>
<path d="M17.8268 15.2021C17.8268 18.9092 20.0784 20.6745 20.0784 20.6745V9.00494C17.7671 12.2334 17.8268 15.2021 17.8268 15.2021Z" fill="white"/>
<path d="M20.0781 8.99976V20.6703C20.0781 20.6703 22.3315 18.904 22.3315 15.1979C22.3315 15.1979 22.3911 12.2292 20.0781 9.00075" fill="white"/>
<path d="M19.4676 30.3542V22.9412C19.4676 22.9412 19.4082 19.1487 15.343 18.6641H7L9.12556 20.6829H14.7653C14.7653 20.6829 17.2527 21.1871 17.2527 23.8381V30.0154L19.4676 30.3542Z" fill="white"/>
<path d="M20.5317 30.3549V22.9422C20.5317 22.9422 20.5914 19.1494 24.6566 18.6648H32.9999L30.8743 20.6839H25.2343C25.2343 20.6839 22.7467 21.1893 22.7467 23.8391V30.0162L20.5317 30.3549Z" fill="white"/>
</g>
<circle cx="20" cy="20" r="19.5" stroke="black" stroke-opacity="0.05"/>
<defs>
<clipPath id="clip0_14382_19739">
<rect width="26" height="21.3826" fill="white" transform="translate(7 9)"/>
</clipPath>
</defs>
</svg>
