<svg width="40" height="40" viewBox="0 0 40 40" fill="none" xmlns="http://www.w3.org/2000/svg">
<circle cx="20" cy="20" r="20" fill="#2A4494"/>
<g clip-path="url(#clip0_17713_28072)">
<path d="M20.0359 26.7495L19.951 26.7236L19.866 26.7495L16.232 28.8513L16.0163 28.9547L15.8072 29H15.598L15.3889 28.9547L14.8987 28.7284L10.8137 26.4132L10.6765 26.3097L10.5784 26.1869L10.5196 26.0446L10.5 25.8764L10.5131 20.2696L10.5588 20.0885L10.6961 19.9592L14.5327 17.7798L14.6895 17.6246L14.7484 17.4176V13.1365L14.768 12.9683L14.8333 12.8131L14.9379 12.6773L15.0752 12.5739L19.1928 10.1811L19.5915 10.0259L19.9118 10L20.232 10.0453L20.5654 10.1617L20.9314 10.3492L22.8137 11.4615L24.7614 12.5609L24.9052 12.6644L25.0163 12.8002L25.0882 12.9619L25.1144 13.1365V17.3206L25.1797 17.5664L25.3627 17.741L29.0294 19.8169L29.2451 19.9721L29.3954 20.1661L29.4804 20.3795L29.5065 20.6188V25.5531L29.4673 25.8506L29.3562 26.0963L29.219 26.2515L29.0425 26.3809L24.7745 28.8319L24.4935 28.9483L24.1993 28.9871L23.8987 28.9483L23.6242 28.8319L20.0359 26.7366V26.7495ZM23.1732 14.1453L23.1275 13.9772L22.9967 13.8543L20.0948 12.2246L19.9248 12.1794L19.7549 12.2246L16.8464 13.8673L16.7157 13.9901L16.6699 14.1647L16.683 17.4694L16.7288 17.6375L16.8595 17.7604L19.7745 19.4159L19.9444 19.4612L20.1144 19.4159L23.0294 17.7539L23.1536 17.631L23.1993 17.4564L23.1732 14.1453ZM12.3824 24.6477L12.402 24.7965L12.4608 24.9387L12.5523 25.0616L12.6765 25.1521L15.3627 26.6848L15.6307 26.7624L15.8987 26.7107L15.951 26.6848L18.6895 25.1263L18.8137 25.0357L18.9052 24.9129L18.9641 24.7706L18.9837 24.6219V21.6858L18.9183 21.4336L18.7549 21.2332L18.683 21.1814L15.9575 19.6099L15.7614 19.5388H15.5523L15.3693 19.6099L12.683 21.1555L12.5588 21.2461L12.4673 21.369L12.4085 21.5112L12.3889 21.66V24.6542L12.3824 24.6477ZM20.8791 24.6607L20.951 24.9193L21.1405 25.1069L23.9314 26.7107L24.1928 26.7818L24.4542 26.7107L27.1928 25.1586L27.3824 24.9711L27.4542 24.7124V21.5953L27.3824 21.3366L27.1928 21.1491L24.4608 19.5905L24.1993 19.5194L23.9379 19.5905L21.1209 21.2008L20.9314 21.3819L20.8595 21.6341V21.647L20.8791 24.6607Z" fill="white"/>
</g>
<circle cx="20" cy="20" r="19.5" stroke="black" stroke-opacity="0.05"/>
<defs>
<clipPath id="clip0_17713_28072">
<rect width="19" height="19" fill="white" transform="translate(10.5 10)"/>
</clipPath>
</defs>
</svg>
