<svg width="40" height="40" viewBox="0 0 40 40" fill="none" xmlns="http://www.w3.org/2000/svg">
<circle cx="20" cy="20" r="20" fill="#760000"/>
<g clip-path="url(#clip0_33363_65699)">
<path d="M13.4227 20.3746C13.2901 20.5154 13.0959 20.5858 12.8314 20.5894H11.9509V19.0872H12.829C13.093 19.0907 13.293 19.1612 13.425 19.2984C13.5652 19.4405 13.6339 19.6172 13.6339 19.838C13.6339 20.0588 13.5658 20.2325 13.4227 20.374M12.883 18.1543H11V22.5954H11.9503V21.5223H12.8859C13.3963 21.5181 13.8087 21.3474 14.1096 21.0174C14.4199 20.6939 14.5795 20.3537 14.5836 19.8738V19.8708C14.5783 19.2919 14.4199 18.9732 14.1096 18.6515C13.8063 18.3304 13.3945 18.1632 12.8824 18.1543" fill="white"/>
<path d="M17.218 18.1543H16.2677V22.6061H17.218H19.5204V21.6727H17.218V18.1543Z" fill="white"/>
<path d="M23.443 18.1543L23.4459 20.8807C23.4423 21.1493 23.3732 21.3528 23.2383 21.4871C23.0988 21.6297 22.9251 21.6995 22.708 21.6995C22.491 21.6995 22.3202 21.6309 22.1811 21.4847C22.0429 21.3498 21.9735 21.1522 21.97 20.8825L21.967 18.1543H21.0167L21.0197 20.9051C21.0238 21.4244 21.1923 21.844 21.516 22.1502C21.834 22.4659 22.2346 22.6282 22.7068 22.6324H22.7097C23.189 22.6276 23.5932 22.4653 23.9083 22.1502C24.2238 21.8416 24.388 21.4226 24.3968 20.9022L24.3939 18.1543H23.4436H23.443Z" fill="white"/>
<path d="M29.2985 20.7864C29.0775 20.2629 28.5822 20.0755 28.1963 19.9818C27.405 19.7843 27.2219 19.7127 27.2232 19.4387C27.2232 19.3092 27.3275 19.0722 27.8431 19.0645C28.3589 19.0567 28.8814 19.3683 28.8814 19.3683L29.1479 18.4193C29.1479 18.4193 28.6503 18.1328 27.8959 18.1328C27.1417 18.1328 26.8582 18.3423 26.6265 18.5393C26.3948 18.7368 26.2681 19.1242 26.2681 19.3754C26.2681 19.7174 26.3579 20.2552 26.8735 20.5363C27.3891 20.8174 28.4473 20.8478 28.4326 21.2985C28.4215 21.647 27.9893 21.6894 27.7352 21.6894C27.4813 21.6894 26.8295 21.5438 26.4828 21.308L26.2687 22.2134C26.2687 22.2134 26.8136 22.6336 27.7698 22.6336C27.7698 22.6336 28.8527 22.6658 29.2486 21.9335C29.2486 21.9335 29.5413 21.3552 29.3008 20.7864" fill="white"/>
<path d="M11.0344 25.358V29.7979H11.9267H14.205V28.8901H11.9267V28.0331H13.5135V27.1253H11.9267V26.2652H14.205V25.3574H11.0344V25.358Z" fill="white"/>
<path d="M16.0065 26.2666H17.4548V29.7993H18.3471V26.2666H19.7947V25.3594H16.0065V26.2666Z" fill="white"/>
<path d="M24.7675 26.2666V25.3594H21.5969V29.7993H22.4886V28.0344H24.076V27.1266H22.4886V26.2666H24.7675Z" fill="white"/>
<path d="M16.4096 9V10.9732H18.1788V12.9953H16.4096V14.9684H19.948V9H16.4096Z" fill="white"/>
<path d="M11 9V14.9684H14.539V12.9953H12.7692V10.9732H14.539V9H11Z" fill="white"/>
</g>
<circle cx="20" cy="20" r="19.5" stroke="black" stroke-opacity="0.05"/>
<defs>
<clipPath id="clip0_33363_65699">
<rect width="19" height="21" fill="white" transform="translate(11 9)"/>
</clipPath>
</defs>
</svg>
