<svg width="40" height="40" viewBox="0 0 40 40" fill="none" xmlns="http://www.w3.org/2000/svg">
<circle cx="20" cy="20" r="20" fill="#F6F8FA"/>
<g clip-path="url(#clip0_40531_76188)">
<path d="M11.671 20.5023C11.671 21.6476 12.7201 22.5463 14.02 22.5904C14.7211 22.6168 15.3403 22.4009 15.8674 21.9516C15.8725 21.9472 15.8879 21.9472 15.893 21.9516L16.2 22.2159C16.2 22.2159 16.2052 22.2291 16.2 22.2379C15.6218 22.7225 14.9565 22.978 14.2093 22.9956C12.5666 23.0397 11.2002 21.934 11.2002 20.5023C11.2002 19.0705 12.5615 17.9604 14.2042 18.0001C14.9514 18.0177 15.6166 18.2732 16.1949 18.7578C16.2 18.7622 16.2 18.771 16.1949 18.7798L15.8879 19.0441C15.8879 19.0441 15.8674 19.0485 15.8623 19.0441C15.3301 18.5948 14.7159 18.3833 14.0097 18.4097C12.715 18.4582 11.6659 19.3569 11.671 20.5023Z" fill="#0058B7"/>
<path d="M6.66624 18.106C6.74812 18.106 6.82488 18.106 6.89653 18.106C6.91188 18.106 6.92212 18.1148 6.92724 18.1236L9.32736 22.8857V22.8945H8.83608C8.83608 22.8945 8.82073 22.8901 8.81561 22.8813L6.68159 18.6654C6.68159 18.6654 6.67648 18.6566 6.67136 18.6566C6.67136 18.6566 6.67136 18.6566 6.66624 18.6566C6.66112 18.6566 6.66624 18.6566 6.66112 18.6566C6.66112 18.6566 6.65601 18.6566 6.65089 18.6654L4.51687 22.8813C4.51687 22.8813 4.50664 22.8945 4.4964 22.8945H4.01024C4.01024 22.8945 4 22.8901 4 22.8857L6.40013 18.1236C6.40013 18.1236 6.41548 18.106 6.43083 18.106C6.5076 18.106 6.58436 18.106 6.66624 18.106Z" fill="#0058B7"/>
<path d="M23.134 22.8857V22.8901H22.5915C22.5915 22.8901 22.5711 22.8901 22.566 22.8769L21.2712 21.2381C21.2712 21.2381 21.2508 21.2205 21.2354 21.2205H19.3624C19.3624 21.2205 19.3419 21.2293 19.3419 21.2381V22.8725C19.3419 22.8725 19.3368 22.8857 19.3266 22.8857H18.8864C18.8864 22.8857 18.8711 22.8813 18.8711 22.8725V18.1236C18.8711 18.1236 18.8813 18.106 18.8916 18.106C19.2549 18.106 20.0174 18.106 21.1842 18.106C21.4759 18.106 21.7011 18.128 21.8597 18.172C22.6632 18.4011 23.1852 19.0267 23.1442 19.7491C23.1084 20.4099 22.5608 21.0179 21.8086 21.1676C21.7983 21.1676 21.7932 21.1764 21.7983 21.1853C21.7983 21.1853 21.7983 21.1853 21.7983 21.1897L23.1391 22.8857H23.134ZM19.3419 18.5333L19.3317 20.7932C19.3317 20.7932 19.347 20.8196 19.3624 20.8196H21.2866C22.044 20.8284 22.6632 20.313 22.6632 19.6742C22.6632 19.0355 22.0542 18.5156 21.2917 18.5112H19.3675C19.3675 18.5112 19.3368 18.5156 19.3368 18.5333H19.3419Z" fill="#0058B7"/>
<path d="M27.4029 20.4319C27.4029 20.4319 27.408 20.4319 27.4131 20.4319C28.0886 19.661 28.7641 18.8901 29.4345 18.1192C29.4397 18.1104 29.4499 18.106 29.4601 18.106H30.0231L27.6588 20.8064C27.6588 20.8064 27.6332 20.8505 27.6332 20.8725V22.8549C27.6332 22.8549 27.6178 22.8901 27.5922 22.8901C27.5718 22.8901 27.5052 22.8901 27.3978 22.8901C27.2903 22.8901 27.2238 22.8901 27.2033 22.8901C27.1828 22.8901 27.1624 22.8725 27.1624 22.8549V20.8725C27.1624 20.8505 27.1521 20.824 27.1368 20.8064L24.7725 18.1104C24.7725 18.1104 24.7725 18.1104 24.7725 18.106H25.3354C25.3354 18.106 25.3559 18.106 25.361 18.1192C26.0365 18.8857 26.7069 19.6566 27.3824 20.4319C27.3824 20.4319 27.3875 20.4319 27.3926 20.4319H27.4029Z" fill="#0058B7"/>
<path d="M35.9995 22.4848V22.8901H32.0437C32.0437 22.8901 32.0283 22.8813 32.0283 22.8725V18.1148C32.0283 18.1148 32.0334 18.106 32.0386 18.106H32.4838C32.4838 18.106 32.4991 18.1104 32.4991 18.1192V22.4584C32.4991 22.4584 32.5145 22.4848 32.5298 22.4848H36.0047H35.9995Z" fill="#0058B7"/>
</g>
<circle cx="20" cy="20" r="19.5" stroke="black" stroke-opacity="0.05"/>
<defs>
<clipPath id="clip0_40531_76188">
<rect width="33" height="5.00098" fill="white" transform="translate(4 17.999)"/>
</clipPath>
</defs>
</svg>
