<svg width="40" height="40" viewBox="0 0 40 40" fill="none" xmlns="http://www.w3.org/2000/svg">
<circle cx="20" cy="20" r="20" fill="#F6F8FA"/>
<g clip-path="url(#clip0_44746_83184)">
<path d="M9.11781 17.0788C10.2874 17.0788 11.2356 16.1657 11.2356 15.0394C11.2356 13.9131 10.2874 13 9.11781 13C7.94818 13 7 13.9131 7 15.0394C7 16.1657 7.94818 17.0788 9.11781 17.0788Z" fill="#055A98"/>
<path d="M31.9381 13.8315C29.8231 13.8343 28.594 13.8397 28.2537 13.8478C27.8656 13.8586 27.4944 14.0103 27.2187 14.2757L21.6922 19.5705L20.2775 21.0032C20.255 21.0276 20.2212 21.0384 20.1875 21.0384C20.12 21.0384 20.0665 20.987 20.0665 20.922C20.0806 19.2509 20.0834 17.7315 20.075 16.3584C20.0665 15.527 20.0497 15.0638 20.0187 14.9663C19.7262 14.0211 18.4775 13.6393 17.704 14.2838C17.3525 14.5763 16.6747 15.229 15.6678 16.2447L10.7965 20.9247C10.7684 20.9518 10.7319 20.9653 10.6925 20.9626C10.6194 20.9572 10.5659 20.8949 10.5715 20.8245C10.6194 20.1907 10.6081 19.5949 10.535 19.037C10.3184 17.3578 7.77873 17.5257 7.67748 19.1236C7.6156 20.1176 7.60154 21.8699 7.6381 24.3805C7.65498 25.6643 9.1456 26.4388 10.1103 25.5207C11.6628 24.0338 13.2153 22.5415 14.7678 21.0411L16.8603 18.9936C16.8912 18.9611 16.9334 18.9449 16.9784 18.9449C17.0712 18.9449 17.1444 19.018 17.1472 19.1074C17.164 20.968 17.1669 22.6038 17.1528 24.0176C17.1472 24.562 17.2147 24.952 17.3553 25.1876C17.7884 25.9134 18.9247 26.1436 19.6053 25.5234C20.1594 25.017 21.3772 23.847 23.2559 22.008L26.5887 18.7851C26.614 18.7607 26.6506 18.7472 26.6872 18.7472C26.7659 18.7472 26.8278 18.8095 26.8278 18.8826C26.7856 20.7432 26.7659 22.5036 26.7687 24.1693C26.7687 26.4632 29.6853 26.3332 29.6881 24.4509C29.6937 21.4528 29.6965 18.8853 29.6994 16.7457C29.6994 16.6807 29.7528 16.6293 29.8203 16.6293C31.0578 16.6374 31.8903 16.6374 32.315 16.6293C33.2065 16.6076 33.7184 16.1959 33.845 15.3915C34.0222 14.2947 33.0237 13.8315 31.9381 13.8315ZM12.9847 21.1197C12.9903 21.1359 12.9987 21.1495 13.0072 21.1657C12.9987 21.1522 12.9903 21.1359 12.9847 21.1197ZM13.0212 21.1955C13.0409 21.2199 13.0606 21.2388 13.0859 21.2524C13.0606 21.2361 13.0381 21.2172 13.0212 21.1955ZM13.1703 21.2822C13.1703 21.2822 13.1956 21.2822 13.2069 21.2822C13.1956 21.2822 13.1844 21.2849 13.1703 21.2822ZM13.2575 21.2768C13.2856 21.2713 13.3137 21.2578 13.339 21.2415C13.3137 21.2578 13.2884 21.2713 13.2575 21.2768Z" fill="url(#paint0_linear_44746_83184)"/>
</g>
<circle cx="20" cy="20" r="19.5" stroke="black" stroke-opacity="0.05"/>
<defs>
<linearGradient id="paint0_linear_44746_83184" x1="7.61842" y1="19.8765" x2="33.8647" y2="19.8765" gradientUnits="userSpaceOnUse">
<stop offset="0.18" stop-color="#055A98"/>
<stop offset="0.93" stop-color="#1395D1"/>
</linearGradient>
<clipPath id="clip0_44746_83184">
<rect width="27" height="13" fill="white" transform="translate(7 13)"/>
</clipPath>
</defs>
</svg>
