<svg width="40" height="40" viewBox="0 0 40 40" fill="none" xmlns="http://www.w3.org/2000/svg">
<circle cx="20" cy="20" r="20" fill="#0099FF"/>
<path d="M18.0894 14.6548C16.9083 15.3528 15.798 16.426 15.3469 17.7572C14.9445 18.9437 14.9482 20.1152 15.3579 21.2719C15.6344 22.0526 16.1178 22.7607 16.8079 23.3964C18.2993 24.7706 20.4643 25.5757 22.4985 25.9239C24.247 26.2234 26.0363 26.4131 27.8663 26.4929C28 26.4991 28.0866 26.5663 28.1259 26.6944C28.1327 26.7163 28.1346 26.7391 28.1318 26.7627C28.111 26.9251 28.0186 27.0064 27.8545 27.0064C24.8791 27.008 21.9329 27.0078 19.0159 27.0055C18.5651 27.0055 18.0961 26.9777 17.6088 26.922C16.0922 26.7509 14.6286 25.982 13.5124 24.9822C13.1289 24.6382 12.6753 24.1476 12.2951 23.6889C11.533 22.7683 10.8391 21.8966 9.98679 21.121C9.18702 20.3932 8.27877 19.9373 7.26204 19.7536C6.96023 19.6988 6.9577 19.3194 7.26542 19.2486C7.55037 19.1828 7.82942 19.1297 8.10257 19.0319C9.46579 18.5438 10.5171 17.4723 11.4259 16.3527C11.9604 15.6945 12.489 15.0794 13.0117 14.5072C14.1127 13.3017 15.83 12.3229 17.4841 12.0944C17.8977 12.0371 18.3611 12.0081 18.8743 12.0076C21.9452 12.0031 24.9398 12.0006 27.8578 12C28.0191 12 28.1102 12.0801 28.131 12.2403C28.1344 12.2639 28.1332 12.2872 28.1276 12.3102C28.0961 12.4395 28.0138 12.507 27.8806 12.5126C25.791 12.5991 23.8452 12.8186 22.0433 13.171C20.6028 13.4531 19.2848 13.9477 18.0894 14.6548Z" fill="white"/>
<path d="M21.3502 19.5891C21.4598 20.9743 24.4703 21.47 25.4955 21.6293C27.9269 22.0078 29.8524 22.0863 32.7786 22.227C32.9101 22.2332 32.9936 22.2995 33.029 22.426C33.0346 22.4462 33.0363 22.4665 33.0341 22.4867C33.0155 22.6469 32.9259 22.727 32.7651 22.727C29.9426 22.7309 27.0571 22.7303 24.1087 22.7253C22.2211 22.7219 16.9461 22.4193 16.6982 19.7341C16.4015 16.5229 22.3467 16.2785 24.3161 16.2793C27.1639 16.2793 29.9833 16.2793 32.7744 16.2793C32.9352 16.2793 33.02 16.3594 33.029 16.5196C33.0318 16.5595 33.0234 16.5966 33.0037 16.6309C32.9515 16.723 32.8725 16.7716 32.7668 16.7767C31.8108 16.8217 30.798 16.8739 29.7285 16.9335C28.4375 17.0054 27.1602 17.1316 25.8968 17.312C25.0779 17.4295 24.3138 17.5841 23.6045 17.7757C22.8036 17.9924 21.2667 18.5176 21.3502 19.5891Z" fill="white"/>
<circle cx="20" cy="20" r="19.5" stroke="black" stroke-opacity="0.05"/>
</svg>
