<svg width="40" height="40" viewBox="0 0 40 40" fill="none" xmlns="http://www.w3.org/2000/svg">
<circle cx="20" cy="20" r="20" fill="#F6F8FA"/>
<path d="M10.4184 21.4886C10.7477 20.9365 10.8172 20.3478 10.627 19.7225C10.4603 19.1739 10.029 18.6902 9.46059 18.5345C8.90437 18.3825 8.43458 18.4938 8.05123 18.8683C7.95509 18.9621 7.88336 19.0844 7.83603 19.2352C7.65787 19.8014 7.85764 20.3399 8.35859 20.6278C8.36833 20.6334 8.37669 20.6412 8.38305 20.6505C8.38942 20.6598 8.39362 20.6704 8.39535 20.6815C8.39709 20.6926 8.39631 20.704 8.39307 20.7148C8.38984 20.7255 8.38424 20.7355 8.37667 20.7438C8.26422 20.8664 8.03271 20.9056 7.86205 20.914C7.39402 20.9375 7.01331 20.768 6.71991 20.4056C6.40153 20.0126 6.32215 19.5152 6.398 19.0222C6.46415 18.5909 6.74593 18.1535 7.02684 17.8325C7.43562 17.3646 8.10503 17.0793 8.72636 17.0427C9.68152 16.9858 10.5785 17.3315 11.1976 18.0485C11.9564 18.927 12.1969 19.9464 11.919 21.1067C11.6871 22.0747 11.0512 22.8609 10.1538 23.2873C8.45516 24.0948 6.46547 23.2834 5.692 21.5865C5.38596 20.9153 5.37714 20.0978 5.59674 19.3944C5.67318 19.1501 5.78504 18.8954 5.93233 18.6302C6.18692 18.1716 6.5569 17.8003 7.04227 17.5163C7.06255 17.5042 7.08137 17.5063 7.09871 17.5224L7.1093 17.5321C7.11136 17.5341 7.11298 17.5364 7.11404 17.539C7.11511 17.5416 7.1156 17.5444 7.11547 17.5472C7.11534 17.55 7.11461 17.5528 7.11332 17.5553C7.11202 17.5578 7.1102 17.56 7.10798 17.5617C6.3686 18.1473 5.9995 18.9202 6.00068 19.8804C6.002 20.8395 6.55896 21.7091 7.3461 22.2087C7.64244 22.3966 7.93892 22.5015 8.23556 22.5236C8.50235 22.543 8.86483 22.4707 9.03593 22.248C9.11531 22.1448 9.16499 22.0142 9.18498 21.8564C9.18733 21.8396 9.18131 21.8356 9.1669 21.8445C8.96317 21.9682 8.77913 21.9571 8.6148 21.811C8.46266 21.6756 8.42782 21.4264 8.5438 21.2628C8.79119 20.914 9.25598 21.0031 9.46853 21.3334C9.66388 21.6363 9.64977 22.0187 9.4112 22.3093C9.36593 22.3645 9.37607 22.3778 9.44163 22.3489C9.88658 22.1549 10.0462 21.5891 10.0105 21.1363C9.99079 20.8811 9.89848 20.656 9.73356 20.4611C9.73117 20.4583 9.72817 20.4561 9.72478 20.4547C9.7214 20.4532 9.71772 20.4526 9.71405 20.4528C9.71037 20.453 9.7068 20.4541 9.7036 20.4559C9.70041 20.4577 9.69768 20.4603 9.69563 20.4633C9.53865 20.6991 9.32095 20.8086 9.04255 20.7919C8.80045 20.7773 8.56408 20.6172 8.46575 20.4003C8.31581 20.0695 8.38034 19.7838 8.65934 19.543C9.02535 19.2277 9.5113 19.3349 9.84336 19.6365C10.2954 20.047 10.5516 20.6706 10.4497 21.2835C10.4382 21.351 10.4109 21.4158 10.4016 21.4829C10.3975 21.5129 10.4031 21.5148 10.4184 21.4886Z" fill="#0074C9"/>
<path d="M28.02 18.8375C28.02 19.1651 27.8697 19.4792 27.6021 19.7109C27.3344 19.9425 26.9715 20.0727 26.593 20.0727C26.2146 20.0727 25.8516 19.9425 25.584 19.7109C25.3164 19.4792 25.166 19.1651 25.166 18.8375C25.166 18.5099 25.3164 18.1957 25.584 17.9641C25.8516 17.7324 26.2146 17.6023 26.593 17.6023C26.9715 17.6023 27.3344 17.7324 27.6021 17.9641C27.8697 18.1957 28.02 18.5099 28.02 18.8375ZM27.236 18.8386C27.2361 18.7579 27.2196 18.678 27.1874 18.6034C27.1553 18.5288 27.108 18.461 27.0484 18.4039C26.9888 18.3468 26.918 18.3014 26.8401 18.2704C26.7621 18.2394 26.6785 18.2233 26.5941 18.2232C26.5097 18.223 26.426 18.2388 26.348 18.2695C26.2699 18.3003 26.1989 18.3454 26.1391 18.4023C26.0793 18.4593 26.0319 18.5269 25.9994 18.6014C25.967 18.6758 25.9502 18.7557 25.9501 18.8364C25.9499 18.917 25.9664 18.9969 25.9986 19.0715C26.0308 19.1461 26.078 19.2139 26.1376 19.271C26.1972 19.3282 26.268 19.3736 26.346 19.4046C26.4239 19.4356 26.5075 19.4516 26.5919 19.4518C26.6764 19.4519 26.76 19.4362 26.8381 19.4054C26.9161 19.3747 26.9871 19.3296 27.0469 19.2726C27.1067 19.2157 27.1542 19.1481 27.1866 19.0736C27.2191 18.9991 27.2358 18.9193 27.236 18.8386Z" fill="#051A73"/>
<path d="M23.4267 20.5374L23.428 22.879C23.428 22.8847 23.4258 22.8902 23.4217 22.8943C23.4177 22.8983 23.4122 22.9006 23.4064 22.9006L22.5845 22.9002C22.5787 22.9002 22.5732 22.8979 22.5692 22.8938C22.5651 22.8898 22.5628 22.8843 22.5628 22.8785L22.5615 17.7085C22.5615 17.7028 22.5638 17.6973 22.5679 17.6932C22.5719 17.6892 22.5774 17.6869 22.5831 17.6869L23.406 17.686C23.4117 17.686 23.4172 17.6883 23.4213 17.6924C23.4253 17.6964 23.4276 17.7019 23.4276 17.7076L23.4263 19.5602C23.4263 19.5659 23.4286 19.5714 23.4326 19.5755C23.4367 19.5795 23.4422 19.5818 23.4479 19.5818L23.7142 19.5809C23.72 19.5809 23.7255 19.5786 23.7295 19.5746C23.7336 19.5705 23.7358 19.565 23.7358 19.5593L23.7363 17.7081C23.7363 17.7024 23.7386 17.6969 23.7426 17.6928C23.7467 17.6888 23.7522 17.6865 23.7579 17.6865H24.6531C24.6588 17.6865 24.6643 17.6888 24.6684 17.6928C24.6724 17.6969 24.6747 17.7024 24.6747 17.7081V22.8777C24.6747 22.8834 24.6724 22.8889 24.6684 22.8929C24.6643 22.897 24.6588 22.8993 24.6531 22.8993H23.757C23.7513 22.8993 23.7458 22.897 23.7417 22.8929C23.7377 22.8889 23.7354 22.8834 23.7354 22.8777V20.54C23.7354 20.5344 23.7332 20.529 23.7292 20.5249C23.7253 20.5209 23.7199 20.5186 23.7142 20.5184L23.4488 20.5158C23.4459 20.5157 23.443 20.5162 23.4404 20.5173C23.4377 20.5184 23.4353 20.5199 23.4332 20.522C23.4312 20.524 23.4295 20.5264 23.4284 20.529C23.4273 20.5317 23.4267 20.5345 23.4267 20.5374Z" fill="#051A73"/>
<path d="M28.5683 20.4201L28.5674 17.7072C28.5674 17.693 28.5746 17.686 28.589 17.686L29.4917 17.6855C29.5137 17.6855 29.5248 17.6966 29.5248 17.7186L29.5252 18.3916C29.5252 18.3974 29.5275 18.403 29.5317 18.4071C29.5358 18.4113 29.5414 18.4136 29.5472 18.4136L30.1545 18.4132C30.1577 18.4132 30.1609 18.4145 30.1632 18.4168C30.1655 18.4191 30.1668 18.4222 30.1668 18.4255L30.169 18.9313C30.169 18.9381 30.1663 18.9446 30.1615 18.9494C30.1567 18.9542 30.1502 18.9569 30.1434 18.9569L29.5464 18.9551C29.5435 18.9551 29.5407 18.9556 29.5381 18.9566C29.5355 18.9577 29.5331 18.9593 29.5311 18.9613C29.5291 18.9633 29.5275 18.9657 29.5264 18.9684C29.5253 18.971 29.5248 18.9739 29.5248 18.9767L29.5256 19.3939C29.5256 19.408 29.5325 19.4151 29.5464 19.4151L30.143 19.4137C30.1601 19.4137 30.1686 19.4223 30.1686 19.4393V19.9297C30.1686 19.9324 30.168 19.9351 30.167 19.9375C30.166 19.94 30.1644 19.9423 30.1625 19.9442C30.1606 19.9461 30.1583 19.9476 30.1558 19.9486C30.1532 19.9495 30.1506 19.95 30.1479 19.95L29.5406 19.9495C29.5387 19.9495 29.5368 19.9499 29.5351 19.9506C29.5333 19.9514 29.5317 19.9524 29.5303 19.9538C29.529 19.9551 29.5279 19.9567 29.5272 19.9585C29.5265 19.9603 29.5261 19.9622 29.5261 19.9641C29.5234 20.4615 29.5242 20.9664 29.5283 21.4788C29.5298 21.6564 29.5121 21.8057 29.4754 21.9269C29.3462 22.3524 28.9929 22.6796 28.5749 22.8163C27.8592 23.0505 26.8657 23.0253 26.3017 22.4543C25.9206 22.0684 25.8708 21.4872 26.1358 21.0237C26.6059 20.2026 27.7533 20.1233 28.537 20.4417C28.5578 20.4502 28.5683 20.443 28.5683 20.4201ZM28.5828 21.59C28.58 21.4992 28.5544 21.41 28.5074 21.3275C28.4605 21.245 28.3932 21.1708 28.3093 21.1092C28.2254 21.0475 28.1266 20.9996 28.0186 20.9682C27.9105 20.9368 27.7953 20.9226 27.6796 20.9262C27.5638 20.9298 27.4498 20.9513 27.3439 20.9894C27.238 21.0275 27.1425 21.0815 27.0626 21.1483C26.9828 21.2151 26.9202 21.2934 26.8786 21.3787C26.8369 21.464 26.8169 21.5546 26.8198 21.6454C26.8226 21.7363 26.8483 21.8255 26.8952 21.908C26.9421 21.9905 27.0095 22.0647 27.0934 22.1263C27.1772 22.188 27.276 22.2359 27.384 22.2673C27.4921 22.2987 27.6073 22.3129 27.723 22.3093C27.8388 22.3057 27.9529 22.2842 28.0587 22.2461C28.1646 22.2079 28.2602 22.1539 28.34 22.0872C28.4198 22.0204 28.4824 21.9421 28.524 21.8568C28.5657 21.7715 28.5857 21.6809 28.5828 21.59Z" fill="#051A73"/>
<path d="M15.1937 18.6574H17.3638C17.3858 18.6574 17.3968 18.6464 17.3968 18.6243L17.3973 17.8262C17.3973 17.8088 17.406 17.8002 17.4233 17.8002L18.3123 17.7988C18.3184 17.7988 18.3242 17.8012 18.3285 17.8055C18.3328 17.8098 18.3352 17.8157 18.3352 17.8218C18.3358 18.6699 18.3358 19.5054 18.3352 20.3283C18.3352 20.3544 18.3299 20.3791 18.3194 20.4024C18.0433 21.0083 17.3946 21.2645 16.7601 21.3386C16.7371 21.3412 16.7257 21.354 16.7257 21.3769L16.7261 21.9405C16.7261 21.9428 16.7266 21.945 16.7274 21.9471C16.7283 21.9492 16.7296 21.9511 16.7311 21.9527C16.7327 21.9542 16.7346 21.9555 16.7367 21.9564C16.7388 21.9572 16.741 21.9577 16.7433 21.9577L18.953 21.9564C18.9561 21.9563 18.9591 21.9572 18.9617 21.9588C18.9644 21.9604 18.9664 21.9628 18.9678 21.9656C18.9691 21.9684 18.9696 21.9715 18.9693 21.9747C18.969 21.9778 18.9678 21.9808 18.9658 21.9833C18.8077 22.1823 18.6882 22.399 18.6073 22.6333C18.6006 22.6533 18.5866 22.6633 18.5654 22.6633L13.6137 22.6628C13.601 22.6628 13.5947 22.6565 13.5947 22.6439L13.5952 21.9731C13.5952 21.9689 13.5968 21.9649 13.5998 21.9619C13.6028 21.9589 13.6068 21.9572 13.611 21.9572H15.7829C15.7853 21.9572 15.7878 21.9568 15.7901 21.9558C15.7924 21.9549 15.7945 21.9535 15.7963 21.9518C15.798 21.9501 15.7994 21.9481 15.8004 21.9458C15.8013 21.9436 15.8018 21.9412 15.8018 21.9387L15.8009 21.3694C15.801 21.3653 15.7994 21.3613 15.7967 21.3582C15.7939 21.3551 15.7901 21.3531 15.7859 21.3527C15.1915 21.2887 14.467 21.0158 14.1914 20.45C14.1649 20.3959 14.1518 20.3358 14.1521 20.2696C14.1559 19.4618 14.1557 18.6465 14.1512 17.824C14.1512 17.8119 14.1573 17.8057 14.1693 17.8054L15.1333 17.8046C15.1406 17.8046 15.1475 17.8074 15.1526 17.8124C15.1578 17.8175 15.1606 17.8243 15.1606 17.8315L15.1602 18.6235C15.1602 18.6461 15.1714 18.6574 15.1937 18.6574ZM15.1805 20.3111C15.8446 20.7353 16.6313 20.7243 17.2976 20.3358C17.3285 20.3178 17.3564 20.2974 17.3814 20.2745C17.3917 20.2654 17.3968 20.2539 17.3968 20.2401L17.3973 19.4498C17.3973 19.4442 17.395 19.4389 17.3911 19.4349C17.3871 19.4309 17.3817 19.4287 17.3761 19.4287L15.1809 19.4304C15.1782 19.4304 15.1755 19.431 15.173 19.432C15.1705 19.4331 15.1682 19.4346 15.1663 19.4365C15.1643 19.4384 15.1628 19.4407 15.1618 19.4432C15.1607 19.4458 15.1602 19.4485 15.1602 19.4512V20.2745C15.1602 20.2904 15.167 20.3026 15.1805 20.3111Z" fill="#051A73"/>
<path d="M20.3864 18.9102L19.1362 18.9111C19.1177 18.9111 19.1084 18.902 19.1084 18.8838L19.1088 18.2373C19.1088 18.2333 19.1104 18.2295 19.1132 18.2267C19.116 18.2239 19.1199 18.2223 19.1238 18.2223L20.1985 18.2236C20.2188 18.2236 20.2289 18.2135 20.2289 18.1932L20.2285 17.8289C20.2285 17.8119 20.237 17.8034 20.2541 17.8034L21.0721 17.8025C21.0924 17.8025 21.1025 17.8126 21.1025 17.8329L21.1016 18.1972C21.1016 18.2151 21.1106 18.2241 21.1285 18.2241L22.2856 18.2219C22.2903 18.2219 22.2948 18.2237 22.2981 18.227C22.3014 18.2303 22.3033 18.2348 22.3033 18.2395L22.3037 18.8869C22.3037 18.8934 22.3012 18.8997 22.2966 18.9043C22.2921 18.9089 22.2859 18.9115 22.2795 18.9115C22.0064 18.9113 21.723 18.9111 21.4293 18.9111C21.3393 18.9111 21.2504 18.931 21.1625 18.9706C20.5707 19.2392 19.7262 19.7785 20.0697 20.5665C20.1778 20.8144 20.3669 20.9634 20.6421 20.989C20.8728 21.0102 21.1254 20.9449 21.2321 20.7231C21.3719 20.4325 21.2493 20.0475 20.8816 20.0431C20.7405 20.0413 20.6113 20.141 20.5116 20.2367C20.5093 20.2389 20.5065 20.2404 20.5034 20.2411C20.5003 20.2417 20.497 20.2414 20.4941 20.2403C20.4911 20.2391 20.4886 20.2371 20.4868 20.2345C20.485 20.2319 20.4839 20.2288 20.4838 20.2257C20.4791 20.1419 20.479 20.054 20.4834 19.962C20.5032 19.5338 20.8472 19.3247 21.2471 19.368C21.8156 19.4293 22.141 19.868 22.1353 20.4369C22.1282 21.1054 21.745 21.5878 21.084 21.7307C20.7383 21.8052 20.2501 21.77 19.9392 21.5909C19.4268 21.2964 19.1212 20.7676 19.2266 20.1683C19.3386 19.5294 19.7963 19.117 20.3908 18.9433C20.4669 18.9213 20.4654 18.9102 20.3864 18.9102Z" fill="#051A73"/>
<path d="M33.2413 18.5341C33.6391 19.2476 34.2037 19.7484 34.9351 20.0365C34.9477 20.0415 34.9491 20.0488 34.9391 20.0585C34.7803 20.2082 34.6364 20.3878 34.5073 20.5974C34.502 20.606 34.4939 20.6125 34.4843 20.6156C34.4747 20.6188 34.4642 20.6184 34.4549 20.6146C33.7822 20.3412 33.2232 19.9328 32.7778 19.3896C32.7764 19.3878 32.7746 19.3865 32.7725 19.3856C32.7704 19.3847 32.7682 19.3844 32.7659 19.3845C32.7637 19.3847 32.7615 19.3854 32.7596 19.3866C32.7577 19.3878 32.7561 19.3894 32.7549 19.3913C32.4286 19.9527 31.7803 20.3654 31.193 20.6137C31.1789 20.6196 31.1635 20.6216 31.1484 20.6196C31.1333 20.6176 31.119 20.6116 31.107 20.6023C30.9667 20.4938 30.8384 20.2962 30.7295 20.1472C30.7168 20.1298 30.7198 20.1156 30.7383 20.1044C31.3791 19.7154 32.0238 19.2013 32.3492 18.5235C32.3504 18.5211 32.351 18.5184 32.3508 18.5157C32.3507 18.513 32.3499 18.5104 32.3485 18.5081C32.3471 18.5058 32.3451 18.5039 32.3428 18.5026C32.3404 18.5013 32.3378 18.5006 32.3351 18.5006L30.7489 18.5014C30.7402 18.5014 30.7319 18.498 30.7258 18.492C30.7197 18.486 30.7163 18.4778 30.7163 18.4692L30.7158 17.8281C30.7158 17.8128 30.7236 17.8051 30.7392 17.8051L34.8019 17.8047C34.8074 17.8047 34.8127 17.8069 34.8166 17.8109C34.8205 17.8149 34.8226 17.8202 34.8226 17.8259L34.8218 18.4829C34.8218 18.4882 34.8197 18.4932 34.8161 18.4969C34.8124 18.5007 34.8075 18.5028 34.8024 18.5028L33.2611 18.501C33.2356 18.501 33.229 18.512 33.2413 18.5341Z" fill="#051A73"/>
<path d="M33.1949 21.9312L35.4253 21.9317C35.4289 21.9316 35.4324 21.9325 35.4355 21.9343C35.4386 21.9361 35.4412 21.9387 35.443 21.9418C35.4448 21.945 35.4457 21.9485 35.4457 21.9522C35.4457 21.9558 35.4448 21.9594 35.443 21.9626C35.3163 22.1833 35.2125 22.4044 35.1316 22.6258C35.1289 22.6333 35.1239 22.6398 35.1174 22.6444C35.1108 22.6489 35.103 22.6514 35.095 22.6514L30.4798 22.6509C30.4732 22.6509 30.4669 22.6483 30.4623 22.6437C30.4577 22.6391 30.4551 22.6328 30.4551 22.6262L30.4555 21.9515C30.4555 21.9465 30.4575 21.9417 30.4611 21.9381C30.4646 21.9346 30.4695 21.9326 30.4745 21.9326L32.2679 21.9321C32.2862 21.9321 32.2953 21.9232 32.2953 21.9052L32.2944 20.7816C32.2944 20.7593 32.3056 20.7482 32.3279 20.7485L33.1336 20.7494C33.1406 20.7494 33.1473 20.7522 33.1523 20.7572C33.1572 20.7621 33.16 20.7689 33.16 20.7759L33.1587 21.8955C33.1587 21.9193 33.1708 21.9312 33.1949 21.9312Z" fill="#051A73"/>
<circle cx="20" cy="20" r="19.5" stroke="black" stroke-opacity="0.05"/>
</svg>
