<svg width="40" height="40" viewBox="0 0 40 40" fill="none" xmlns="http://www.w3.org/2000/svg">
<circle cx="20" cy="20" r="20" fill="#003DE5"/>
<circle cx="20" cy="20" r="19.5" stroke="black" stroke-opacity="0.05"/>
<g clip-path="url(#clip0_14382_18613)">
<path d="M6.79034 17.9103C6.61419 18.2925 6.37467 18.6423 6.08191 18.9447C5.75685 19.2905 5.38447 19.5885 4.97585 19.8299L4.28571 19.0255C4.80383 18.7346 5.25369 18.3361 5.60506 17.8569C5.97299 17.37 6.17438 16.7776 6.17942 16.1674V15.4239H7.32967V16.146C7.33174 16.7276 7.53464 17.2905 7.90403 17.7396C8.24538 18.1699 8.68187 18.5151 9.1792 18.7482L8.55913 19.5876C7.71054 19.1306 7.15293 18.5836 6.79034 17.9103ZM6.18094 20.229H10.8246V23.6112H6.17942L6.18094 20.229ZM7.26872 21.1568V22.6971H9.72766V21.1568H7.26872ZM10.8261 19.9091H9.72919V15.2319H10.8261V17.0906H12.1089V18.0184H10.8246L10.8261 19.9091Z" fill="white"/>
<path d="M15.2169 18.9371C14.9383 18.6837 14.7053 18.3843 14.5282 18.0519C14.3605 18.4195 14.1295 18.7547 13.8457 19.0422C13.5112 19.3928 13.134 19.6999 12.7229 19.9563L12.0419 19.1336C12.5657 18.8119 13.0245 18.3949 13.3947 17.9042C13.7362 17.4432 13.9224 16.8857 13.9264 16.3121V15.4178H15.0934V16.2984C15.0806 16.879 15.2787 17.4447 15.6511 17.8905C15.9964 18.3064 16.4285 18.6418 16.9171 18.8731L16.297 19.7308C15.9016 19.5181 15.538 19.2509 15.2169 18.9371ZM18.1725 23.3355C17.7281 23.6883 17.1734 23.8728 16.6063 23.8565C16.0445 23.8743 15.495 23.6894 15.0584 23.3355C14.8597 23.158 14.7022 22.9392 14.597 22.6944C14.4917 22.4497 14.4412 22.1849 14.449 21.9186C14.4437 21.6569 14.4955 21.3971 14.6007 21.1575C14.7059 20.9178 14.8621 20.7039 15.0584 20.5307C15.4869 20.1594 16.0396 19.963 16.6063 19.9807C17.1783 19.9645 17.7362 20.1604 18.1725 20.5307C18.3674 20.705 18.5226 20.9191 18.6278 21.1585C18.7329 21.3979 18.7854 21.6571 18.7819 21.9186C18.7878 22.1847 18.7365 22.4489 18.6313 22.6933C18.5262 22.9378 18.3697 23.1568 18.1725 23.3355ZM17.3939 21.1934C17.1752 21.0053 16.8948 20.9044 16.6063 20.91C15.9695 20.91 15.5277 21.3168 15.5277 21.9186C15.5277 22.5204 15.9695 22.9363 16.6063 22.9363C17.2431 22.9363 17.7032 22.5295 17.7032 21.9186C17.7035 21.7831 17.6763 21.6489 17.6231 21.5242C17.5699 21.3996 17.492 21.287 17.3939 21.1934ZM17.819 17.6802H16.2711V16.7067H17.819V15.2319H18.9159V19.9548H17.819V17.6802Z" fill="white"/>
<path d="M21.9309 20.6084V20.0249C21.09 19.839 20.6314 19.2464 20.6314 18.5379C20.6371 18.3375 20.6857 18.1406 20.774 17.9606C20.8624 17.7805 20.9883 17.6215 21.1433 17.4943H20.0768V16.6183H24.8363V17.4943H23.8018C23.9568 17.626 24.082 17.7893 24.169 17.9732C24.2559 18.1571 24.3027 18.3574 24.3061 18.5608C24.3061 19.2601 23.881 19.8344 23.04 20.0203V20.5596C23.7927 20.5154 24.5437 20.4636 25.2872 20.3829V15.2319H26.3765V18.0276H27.6151V18.9569H26.3765V22.656H25.2872V21.2574C23.5626 21.4524 21.7923 21.5849 19.9793 21.6383L19.8727 20.6465C20.5598 20.6526 21.2408 20.6358 21.9309 20.6084ZM21.3657 15.2761H23.5321V16.1902H21.3657V15.2761ZM21.6704 18.541C21.6704 18.9219 21.9751 19.2235 22.4581 19.2235C22.941 19.2235 23.2457 18.9188 23.2457 18.541C23.2457 18.1632 22.9532 17.8508 22.4581 17.8508C21.9629 17.8508 21.675 18.1586 21.675 18.5379L21.6704 18.541Z" fill="white"/>
<path d="M30.7368 18.6705C31.0116 19.1727 31.4101 19.5965 31.8946 19.9015L31.241 20.7409C30.9053 20.5041 30.6043 20.2216 30.3468 19.9015C30.0984 19.6321 29.9058 19.3162 29.78 18.9721C29.5332 19.7506 29.0015 20.3783 28.3296 20.91L27.6486 20.1072C28.1788 19.6501 28.578 19.2403 28.8339 18.7101C29.0899 18.1799 29.2056 17.5507 29.2056 16.6397H27.9137V15.7255H31.5701V16.6397H30.3041C30.3026 17.4943 30.4534 18.1494 30.7368 18.6705ZM33.6908 18.4846H33.019V22.3513H31.9525V15.3431H33.019V17.5553H33.6908V15.2319H34.7573V22.6468H33.6908V18.4846Z" fill="white"/>
</g>
<defs>
<clipPath id="clip0_14382_18613">
<rect width="30.4762" height="8.61847" fill="white" transform="translate(4.28571 15.238)"/>
</clipPath>
</defs>
</svg>
