<svg width="40" height="40" viewBox="0 0 40 40" fill="none" xmlns="http://www.w3.org/2000/svg">
<circle cx="20" cy="20" r="20" fill="#E87127"/>
<path d="M17.0857 20.27C16.7858 17.5503 19.6393 15.3615 23.4615 15.4061C27.2838 15.4507 30.6237 17.6678 30.9236 20.3876C31.2235 23.1073 28.37 25.2961 24.5478 25.2515C20.7256 25.2069 17.3857 22.9857 17.0857 20.27ZM31.637 21.1172C31.2924 17.7408 27.4459 14.9724 23.0481 14.9359C18.6503 14.8994 15.3469 17.607 15.7076 20.9874C16.0684 24.3679 19.8987 27.1322 24.2965 27.1646C28.6943 27.1971 31.9977 24.4935 31.637 21.1172Z" fill="white"/>
<path d="M24.9932 27.2297C22.8288 29.4915 19.3511 29.6617 17.2312 27.6351C15.1113 25.6084 15.1397 22.1226 17.3082 19.8568C19.4767 17.5911 22.9544 17.4249 25.0743 19.4515C27.1941 21.4781 27.1617 24.964 24.9932 27.2297ZM16.9677 19.796C14.4507 22.4307 14.4101 26.4758 16.8745 28.8389C19.3389 31.2019 23.3841 30.979 25.9011 28.3525C28.4182 25.726 28.4628 21.6727 25.9944 19.3096C23.5259 16.9466 19.5091 17.1655 16.9677 19.796Z" fill="white"/>
<path d="M17.1982 11.3286C21.7014 9.63838 26.156 11.3286 27.149 15.1427C28.1421 18.9569 25.2926 23.383 20.7854 25.0732C16.2781 26.7635 11.8236 25.053 10.8305 21.2551C9.83748 17.4571 12.691 13.0148 17.1982 11.3286ZM13.0315 12.7756C8.35398 16.4803 7.16638 21.8387 10.3725 24.753C13.5787 27.6673 19.9666 27.031 24.6441 23.3303C29.3216 19.6297 30.5051 14.2672 27.303 11.3529C24.1009 8.43861 17.7049 9.07498 13.0315 12.7756Z" fill="white"/>
<circle cx="20" cy="20" r="19.5" stroke="black" stroke-opacity="0.05"/>
</svg>
