<svg width="40" height="40" viewBox="0 0 40 40" fill="none" xmlns="http://www.w3.org/2000/svg">
<circle cx="20" cy="20" r="20" fill="#F6F8FA"/>
<path d="M6.06252 17.6048C5.75438 17.4308 5.50331 17.2646 5.30929 17.1063C4.8371 16.7197 4.90557 16.5264 5.51472 16.5264H11.7845C11.8629 16.5264 11.9143 16.5635 11.9385 16.6376C11.9628 16.709 11.9557 16.7796 11.9171 16.8495C11.8915 16.8951 11.8515 16.9265 11.7973 16.9436C10.8971 17.2275 10.0212 17.4843 9.16958 17.714C8.43204 17.9123 7.91135 18.1555 7.60749 18.4437C6.68949 19.321 6.65954 20.7333 7.56255 21.6406C8.73519 22.8197 10.7531 22.2697 11.1746 20.6584C11.4071 19.7682 11.1603 18.9872 10.4342 18.3153C10.4043 18.2882 10.4057 18.2625 10.4385 18.2382L11.211 17.7033C11.2538 17.6733 11.2895 17.6797 11.318 17.7225C12.3037 19.1677 12.3273 20.5871 11.3886 21.9808C10.7787 22.8903 9.61038 23.4188 8.49552 23.3375C5.82714 23.1406 4.29929 19.9672 6.09676 17.791C6.10816 17.7771 6.11639 17.7608 6.12087 17.7434C6.12536 17.7259 6.126 17.7077 6.12274 17.69C6.11948 17.6723 6.11241 17.6555 6.10201 17.6408C6.09161 17.6261 6.07813 17.6138 6.06252 17.6048Z" fill="#23408F"/>
<path d="M24.8528 18.3004C24.6003 18.0628 24.3392 17.7975 24.0225 17.6498C23.9842 17.6327 23.9516 17.6049 23.9284 17.5696C23.9053 17.5344 23.8927 17.4932 23.892 17.4508L23.8877 17.2326C23.8874 17.2123 23.8912 17.1921 23.8987 17.1733C23.9062 17.1544 23.9174 17.1373 23.9316 17.123C23.9457 17.1086 23.9626 17.0973 23.9812 17.0896C23.9997 17.082 24.0196 17.0782 24.0396 17.0785L24.8378 17.0871C24.922 17.0871 24.9655 17.1299 24.9683 17.2155L24.9855 18.2426C24.9869 18.3681 24.9427 18.3874 24.8528 18.3004Z" fill="#B73A4B"/>
<path d="M30.1657 19.9329C30.1657 20.5498 29.9206 21.1415 29.4844 21.5777C29.0482 22.0139 28.4566 22.259 27.8397 22.259C27.2228 22.259 26.6312 22.0139 26.1949 21.5777C25.7587 21.1415 25.5137 20.5498 25.5137 19.9329C25.5137 19.316 25.7587 18.7244 26.1949 18.2882C26.6312 17.852 27.2228 17.6069 27.8397 17.6069C28.4566 17.6069 29.0482 17.852 29.4844 18.2882C29.9206 18.7244 30.1657 19.316 30.1657 19.9329ZM29.0829 19.9329C29.0829 19.6026 28.9517 19.2859 28.7182 19.0523C28.4846 18.8188 28.1678 18.6876 27.8375 18.6876C27.5072 18.6876 27.1905 18.8188 26.9569 19.0523C26.7234 19.2859 26.5922 19.6026 26.5922 19.9329C26.5922 20.2632 26.7234 20.58 26.9569 20.8136C27.1905 21.0471 27.5072 21.1783 27.8375 21.1783C28.1678 21.1783 28.4846 21.0471 28.7182 20.8136C28.9517 20.58 29.0829 20.2632 29.0829 19.9329Z" fill="#B73A4B"/>
<path d="M14.8782 19.826C14.8632 21.5828 17.3048 21.6363 17.3005 19.6419C17.2977 19.0071 17.2827 18.3859 17.2556 17.7781C17.2527 17.7097 17.2855 17.6754 17.354 17.6754L18.1971 17.669C18.2784 17.669 18.317 17.709 18.3127 17.7888C18.287 18.4336 18.282 19.0949 18.2977 19.7725C18.3683 23.0315 13.7141 22.978 13.8597 19.6291C13.8853 19.0128 13.8782 18.3973 13.8383 17.7824C13.834 17.7111 13.8675 17.6754 13.9388 17.6754L14.7798 17.6669C14.854 17.6669 14.8911 17.704 14.8911 17.7781C14.8882 18.4244 14.8839 19.107 14.8782 19.826Z" fill="#23408F"/>
<path d="M22.1517 20.2261C22.2373 18.2403 19.7636 18.2488 19.7679 20.0784C19.7708 20.776 19.7808 21.4486 19.7979 22.0963C19.7993 22.1605 19.7686 22.1926 19.7059 22.1926L18.7986 22.1904C18.7472 22.1904 18.723 22.1648 18.7258 22.1134C18.7572 21.48 18.7615 20.863 18.7387 20.2624C18.6081 16.8023 23.2944 16.935 23.1853 20.072C23.161 20.7838 23.1674 21.4586 23.2045 22.0963C23.2088 22.1576 23.1803 22.1883 23.1189 22.1883L22.2095 22.1969C22.161 22.1969 22.136 22.1726 22.1346 22.1241C22.1175 21.5292 22.1232 20.8965 22.1517 20.2261Z" fill="#23408F"/>
<path d="M30.5443 20.0465C30.4566 17.667 33.5252 16.7447 34.7299 18.8675C34.9211 19.2041 35.0045 19.6678 34.9803 20.2584C34.9531 20.9131 34.9596 21.543 34.9995 22.1478C35.0024 22.1735 34.9902 22.1871 34.9631 22.1885L33.9874 22.1949C33.956 22.1949 33.9396 22.1792 33.9381 22.1478C33.9196 21.5301 33.9267 20.9103 33.9595 20.2883C33.9795 19.9017 33.921 19.585 33.7841 19.3382C33.3326 18.5294 32.2177 18.5015 31.7512 19.3211C31.6186 19.5536 31.5579 19.8432 31.5693 20.1899C31.5936 20.9017 31.6014 21.5473 31.5929 22.1264C31.5929 22.1446 31.5857 22.162 31.5728 22.1749C31.56 22.1877 31.5426 22.1949 31.5244 22.1949L30.5722 22.1885C30.5351 22.1871 30.518 22.1678 30.5208 22.1307C30.5636 21.4759 30.5715 20.7812 30.5443 20.0465Z" fill="#B73A4B"/>
<path d="M24.6403 18.7454C24.8501 18.9841 24.9664 19.2904 24.9677 19.6078L24.9699 22.1243C24.9699 22.1713 24.9463 22.1949 24.8992 22.1949L23.9813 22.1906C23.937 22.1906 23.9156 22.1685 23.9171 22.1243L23.9278 18.4073C23.9278 18.0978 24.0305 18.0586 24.2359 18.2897L24.6403 18.7454Z" fill="#23408F"/>
<path d="M27.8372 21.1783C28.525 21.1783 29.0826 20.6207 29.0826 19.9329C29.0826 19.2451 28.525 18.6875 27.8372 18.6875C27.1494 18.6875 26.5918 19.2451 26.5918 19.9329C26.5918 20.6207 27.1494 21.1783 27.8372 21.1783Z" fill="#F6F8FA"/>
<circle cx="20" cy="20" r="19.5" stroke="black" stroke-opacity="0.05"/>
</svg>
