<svg width="40" height="40" viewBox="0 0 40 40" fill="none" xmlns="http://www.w3.org/2000/svg">
<circle cx="20" cy="20" r="20" fill="#F6F8FA"/>
<g clip-path="url(#clip0_40023_77803)">
<path d="M19.7713 11.09C20.3709 11.09 20.857 10.6221 20.857 10.045C20.857 9.46786 20.3709 9 19.7713 9C19.1716 9 18.6855 9.46786 18.6855 10.045C18.6855 10.6221 19.1716 11.09 19.7713 11.09Z" fill="#FC0801"/>
<path d="M16.4343 14.3131C17.034 14.3131 17.5201 13.8453 17.5201 13.2681C17.5201 12.691 17.034 12.2231 16.4343 12.2231C15.8347 12.2231 15.3486 12.691 15.3486 13.2681C15.3486 13.8453 15.8347 14.3131 16.4343 14.3131Z" fill="#FC0801"/>
<path d="M19.7713 14.3131C20.3709 14.3131 20.857 13.8453 20.857 13.2681C20.857 12.691 20.3709 12.2231 19.7713 12.2231C19.1716 12.2231 18.6855 12.691 18.6855 13.2681C18.6855 13.8453 19.1716 14.3131 19.7713 14.3131Z" fill="#FC0801"/>
<path d="M23.1199 14.3131C23.7195 14.3131 24.2056 13.8453 24.2056 13.2681C24.2056 12.691 23.7195 12.2231 23.1199 12.2231C22.5203 12.2231 22.0342 12.691 22.0342 13.2681C22.0342 13.8453 22.5203 14.3131 23.1199 14.3131Z" fill="#FC0801"/>
<path d="M16.4343 17.547C17.034 17.547 17.5201 17.0792 17.5201 16.502C17.5201 15.9249 17.034 15.457 16.4343 15.457C15.8347 15.457 15.3486 15.9249 15.3486 16.502C15.3486 17.0792 15.8347 17.547 16.4343 17.547Z" fill="#FC0801"/>
<path d="M19.7713 17.547C20.3709 17.547 20.857 17.0792 20.857 16.502C20.857 15.9249 20.3709 15.457 19.7713 15.457C19.1716 15.457 18.6855 15.9249 18.6855 16.502C18.6855 17.0792 19.1716 17.547 19.7713 17.547Z" fill="#FC0801"/>
<path d="M23.1199 17.547C23.7195 17.547 24.2056 17.0792 24.2056 16.502C24.2056 15.9249 23.7195 15.457 23.1199 15.457C22.5203 15.457 22.0342 15.9249 22.0342 16.502C22.0342 17.0792 22.5203 17.547 23.1199 17.547Z" fill="#FC0801"/>
<path d="M13.0857 20.7702C13.6853 20.7702 14.1714 20.3023 14.1714 19.7252C14.1714 19.148 13.6853 18.6802 13.0857 18.6802C12.4861 18.6802 12 19.148 12 19.7252C12 20.3023 12.4861 20.7702 13.0857 20.7702Z" fill="#FC0801"/>
<path d="M16.4343 20.7702C17.034 20.7702 17.5201 20.3023 17.5201 19.7252C17.5201 19.148 17.034 18.6802 16.4343 18.6802C15.8347 18.6802 15.3486 19.148 15.3486 19.7252C15.3486 20.3023 15.8347 20.7702 16.4343 20.7702Z" fill="#FC0801"/>
<path d="M19.7713 20.7702C20.3709 20.7702 20.857 20.3023 20.857 19.7252C20.857 19.148 20.3709 18.6802 19.7713 18.6802C19.1716 18.6802 18.6855 19.148 18.6855 19.7252C18.6855 20.3023 19.1716 20.7702 19.7713 20.7702Z" fill="#FC0801"/>
<path d="M23.1199 20.7702C23.7195 20.7702 24.2056 20.3023 24.2056 19.7252C24.2056 19.148 23.7195 18.6802 23.1199 18.6802C22.5203 18.6802 22.0342 19.148 22.0342 19.7252C22.0342 20.3023 22.5203 20.7702 23.1199 20.7702Z" fill="#FC0801"/>
<path d="M26.4685 20.7702C27.0682 20.7702 27.5542 20.3023 27.5542 19.7252C27.5542 19.148 27.0682 18.6802 26.4685 18.6802C25.8689 18.6802 25.3828 19.148 25.3828 19.7252C25.3828 20.3023 25.8689 20.7702 26.4685 20.7702Z" fill="#FC0801"/>
<path d="M13.0857 24.0041C13.6853 24.0041 14.1714 23.5362 14.1714 22.9591C14.1714 22.3819 13.6853 21.9141 13.0857 21.9141C12.4861 21.9141 12 22.3819 12 22.9591C12 23.5362 12.4861 24.0041 13.0857 24.0041Z" fill="#FC0801"/>
<path d="M16.4343 24.0041C17.034 24.0041 17.5201 23.5362 17.5201 22.9591C17.5201 22.3819 17.034 21.9141 16.4343 21.9141C15.8347 21.9141 15.3486 22.3819 15.3486 22.9591C15.3486 23.5362 15.8347 24.0041 16.4343 24.0041Z" fill="#FC0801"/>
<path d="M19.7713 24.0041C20.3709 24.0041 20.857 23.5362 20.857 22.9591C20.857 22.3819 20.3709 21.9141 19.7713 21.9141C19.1716 21.9141 18.6855 22.3819 18.6855 22.9591C18.6855 23.5362 19.1716 24.0041 19.7713 24.0041Z" fill="#FC0801"/>
<path d="M23.1199 24.0041C23.7195 24.0041 24.2056 23.5362 24.2056 22.9591C24.2056 22.3819 23.7195 21.9141 23.1199 21.9141C22.5203 21.9141 22.0342 22.3819 22.0342 22.9591C22.0342 23.5362 22.5203 24.0041 23.1199 24.0041Z" fill="#FC0801"/>
<path d="M26.4685 24.0041C27.0682 24.0041 27.5542 23.5362 27.5542 22.9591C27.5542 22.3819 27.0682 21.9141 26.4685 21.9141C25.8689 21.9141 25.3828 22.3819 25.3828 22.9591C25.3828 23.5362 25.8689 24.0041 26.4685 24.0041Z" fill="#FC0801"/>
<path d="M13.0857 27.2379C13.6853 27.2379 14.1714 26.7701 14.1714 26.1929C14.1714 25.6158 13.6853 25.1479 13.0857 25.1479C12.4861 25.1479 12 25.6158 12 26.1929C12 26.7701 12.4861 27.2379 13.0857 27.2379Z" fill="#FC0801"/>
<path d="M16.4343 27.2379C17.034 27.2379 17.5201 26.7701 17.5201 26.1929C17.5201 25.6158 17.034 25.1479 16.4343 25.1479C15.8347 25.1479 15.3486 25.6158 15.3486 26.1929C15.3486 26.7701 15.8347 27.2379 16.4343 27.2379Z" fill="#FC0801"/>
<path d="M19.7713 27.2379C20.3709 27.2379 20.857 26.7701 20.857 26.1929C20.857 25.6158 20.3709 25.1479 19.7713 25.1479C19.1716 25.1479 18.6855 25.6158 18.6855 26.1929C18.6855 26.7701 19.1716 27.2379 19.7713 27.2379Z" fill="#FC0801"/>
<path d="M23.1199 27.2379C23.7195 27.2379 24.2056 26.7701 24.2056 26.1929C24.2056 25.6158 23.7195 25.1479 23.1199 25.1479C22.5203 25.1479 22.0342 25.6158 22.0342 26.1929C22.0342 26.7701 22.5203 27.2379 23.1199 27.2379Z" fill="#FC0801"/>
<path d="M26.4685 27.2379C27.0682 27.2379 27.5542 26.7701 27.5542 26.1929C27.5542 25.6158 27.0682 25.1479 26.4685 25.1479C25.8689 25.1479 25.3828 25.6158 25.3828 26.1929C25.3828 26.7701 25.8689 27.2379 26.4685 27.2379Z" fill="#FC0801"/>
<path d="M16.4343 30.4611C17.034 30.4611 17.5201 29.9932 17.5201 29.4161C17.5201 28.839 17.034 28.3711 16.4343 28.3711C15.8347 28.3711 15.3486 28.839 15.3486 29.4161C15.3486 29.9932 15.8347 30.4611 16.4343 30.4611Z" fill="#FC0801"/>
<path d="M19.7713 30.4611C20.3709 30.4611 20.857 29.9932 20.857 29.4161C20.857 28.839 20.3709 28.3711 19.7713 28.3711C19.1716 28.3711 18.6855 28.839 18.6855 29.4161C18.6855 29.9932 19.1716 30.4611 19.7713 30.4611Z" fill="#FC0801"/>
<path d="M23.1199 30.4611C23.7195 30.4611 24.2056 29.9932 24.2056 29.4161C24.2056 28.839 23.7195 28.3711 23.1199 28.3711C22.5203 28.3711 22.0342 28.839 22.0342 29.4161C22.0342 29.9932 22.5203 30.4611 23.1199 30.4611Z" fill="#FC0801"/>
</g>
<circle cx="20" cy="20" r="19.5" stroke="black" stroke-opacity="0.05"/>
<defs>
<clipPath id="clip0_40023_77803">
<rect width="16" height="22" fill="white" transform="translate(12 9)"/>
</clipPath>
</defs>
</svg>
