<svg width="40" height="40" viewBox="0 0 40 40" fill="none" xmlns="http://www.w3.org/2000/svg">
<circle cx="20" cy="20" r="20" fill="#F6F8FA"/>
<g clip-path="url(#clip0_17713_28080)">
<path d="M11.1034 18.435C11.0717 18.4781 11.0467 18.5257 11.0286 18.5778C11.0082 18.639 10.9855 18.6866 10.9606 18.7206C10.9198 18.7773 10.8835 18.8453 10.8722 18.9155C10.8676 18.945 10.8563 18.9722 10.8382 18.9949C10.8291 19.0085 10.8155 19.013 10.7996 19.0085C10.7883 19.0062 10.7792 19.0017 10.7702 18.9971C10.7588 18.9903 10.7452 18.9881 10.7339 18.9926C10.65 19.0266 10.6251 19.1286 10.6636 19.2941C10.6183 19.2782 10.5866 19.2941 10.5662 19.3417C10.5571 19.2964 10.5299 19.2918 10.48 19.3304C10.4687 19.3394 10.4642 19.3485 10.4664 19.3621C10.4755 19.4233 10.4664 19.4868 10.437 19.548C10.4302 19.5616 10.4188 19.5684 10.4052 19.5638C10.3916 19.5616 10.378 19.557 10.3667 19.548C10.3372 19.5276 10.2806 19.5185 10.2443 19.5162C10.2284 19.5162 10.2194 19.5253 10.2171 19.5412V19.5706C10.2126 19.5865 10.2171 19.5978 10.233 19.6069C10.242 19.6137 10.2466 19.6228 10.2443 19.6364C10.2443 19.6432 10.2443 19.6522 10.2488 19.659C10.2647 19.684 10.2828 19.7021 10.3055 19.7157C10.3168 19.7225 10.3236 19.7338 10.3236 19.7474C10.3236 19.7792 10.3168 19.8109 10.301 19.8404C10.2964 19.8517 10.2874 19.8563 10.276 19.8563H10.1581C10.14 19.8563 10.1309 19.8653 10.1309 19.8812C10.1287 19.922 10.14 19.9628 10.1808 19.9787C10.2307 19.9968 10.2466 20.0331 10.2262 20.0897C10.2171 20.1169 10.199 20.1305 10.1695 20.1283C10.1151 20.126 10.0675 20.1577 10.0629 20.2008C10.0629 20.2053 10.0629 20.2076 10.0629 20.2121C10.0629 20.2303 10.0743 20.2529 10.0947 20.2869C10.1037 20.3005 10.0992 20.3209 10.0833 20.33C10.0833 20.33 10.0811 20.33 10.0788 20.3323C10.0131 20.3572 9.98587 20.4184 9.9224 20.4524C9.91334 20.4569 9.90654 20.4637 9.90427 20.4751C9.8952 20.5068 9.89974 20.5363 9.9156 20.5658C9.9224 20.5748 9.9292 20.5794 9.94281 20.5771C9.97454 20.5703 9.99947 20.5771 10.0244 20.5952C10.0357 20.6043 10.0403 20.6179 10.0403 20.6315C10.0357 20.6723 10.0153 20.704 9.97907 20.729C9.97001 20.7358 9.96547 20.7448 9.96774 20.7562C9.97454 20.7947 9.96774 20.8287 9.94281 20.8604C9.936 20.8695 9.93147 20.8808 9.93147 20.8922C9.92694 20.9466 9.936 20.967 9.95867 20.9534C9.95867 20.967 9.95867 20.9783 9.95867 20.9874C9.96094 20.9964 9.97001 21.0032 9.98134 21.0078C10.0063 21.0168 10.0357 21.0168 10.0675 21.0123C10.0448 21.0327 10.0425 21.0554 10.0584 21.078C10.0652 21.0894 10.072 21.1007 10.0743 21.1143C10.0856 21.1664 10.0992 21.2208 10.1173 21.2753C10.1355 21.3342 10.1763 21.3569 10.2375 21.3455C10.2851 21.3365 10.3146 21.3501 10.3259 21.3863H9.80453C9.78186 21.3863 9.76146 21.3977 9.75466 21.4203L9.53479 22.0596C9.51892 21.9938 9.50532 21.9303 9.49625 21.8669C9.48945 21.8215 9.50532 21.7875 9.49172 21.7422C9.46905 21.6765 9.46905 21.6017 9.46225 21.5359C9.45318 21.4611 9.49398 21.4226 9.49625 21.3591C9.49852 21.3115 9.48718 21.2866 9.46225 21.2798C9.48492 21.239 9.50759 21.1982 9.53252 21.1574C9.55745 21.1166 9.57786 21.0735 9.59146 21.0304C9.66173 20.8151 9.7524 20.6088 9.83853 20.398C10.0697 19.8313 10.301 19.2646 10.5344 18.6979C10.5798 18.5869 10.6228 18.4803 10.6636 18.3783C10.6954 18.2967 10.7634 18.2468 10.854 18.2786C10.947 18.3103 11.0286 18.3647 11.0989 18.4418L11.1034 18.435Z" fill="#50BE8B"/>
<path d="M28.2916 22.2591C28.1533 22.0596 28.0241 21.8601 27.9039 21.6606C27.8019 21.4906 27.6977 21.3138 27.5911 21.1302C27.5662 21.0871 27.5617 21.0282 27.5367 20.9897C27.4574 20.8673 27.3962 20.7517 27.3531 20.6451C27.3033 20.525 27.2534 20.4184 27.2012 20.3278C27.1627 20.2598 27.1264 20.1918 27.0947 20.1215C26.8658 19.6409 26.596 19.1899 26.2832 18.7682C26.3421 18.639 26.3943 18.5189 26.4396 18.4078C26.4645 18.3466 26.4895 18.3058 26.5121 18.2877C26.6255 18.2038 26.8159 18.3579 26.8839 18.4396C26.9202 18.4849 26.9564 18.5552 26.9904 18.6549C27.4098 19.854 27.845 21.0554 28.2938 22.2613L28.2916 22.2591Z" fill="#0C8CCE"/>
<path d="M6.04622 18.376C6.01222 18.376 5.98955 18.3874 5.98275 18.4168C5.97821 18.4304 5.97141 18.4372 5.95781 18.4395C5.93061 18.4463 5.90341 18.4576 5.88074 18.4781C5.86941 18.4871 5.86261 18.4985 5.85808 18.5098C5.83541 18.5778 5.78554 18.6186 5.70847 18.6277C5.69487 18.6277 5.6858 18.6413 5.68807 18.6549C5.68807 18.6594 5.69033 18.6639 5.6926 18.6685C5.6994 18.6753 5.71074 18.6798 5.7266 18.6798C5.66313 18.6889 5.60193 18.6957 5.53846 18.7047C4.8743 18.8022 4.38921 19.1399 4.08093 19.718C4.04239 19.7882 4.02879 19.7837 4.03786 19.7044C4.08546 19.2873 4.12626 18.8475 4.16253 18.3896C4.16253 18.3806 4.1716 18.3738 4.1784 18.3738H6.04395L6.04622 18.376Z" fill="#FDEA64"/>
<path d="M15.3867 18.3942C15.3255 18.6435 15.3164 18.8861 15.3595 19.1173C15.364 19.1445 15.3731 19.174 15.3844 19.2012C15.3958 19.2284 15.4071 19.2578 15.4184 19.2873C15.4366 19.3326 15.4479 19.3757 15.4502 19.4188C15.457 19.5162 15.4751 19.6092 15.5046 19.6999C15.5159 19.7384 15.5136 19.7837 15.5182 19.8245C15.5204 19.854 15.5318 19.8835 15.5476 19.9107C15.5635 19.9401 15.5816 19.9673 15.5975 19.9945V21.4339C15.5567 21.3818 15.5 21.3251 15.423 21.2639C15.355 21.2095 15.33 21.1211 15.3527 21.001C15.3618 20.9511 15.3776 20.9284 15.3482 20.8763C15.2983 20.7879 15.2666 20.6972 15.2507 20.6043C15.2507 20.5907 15.2416 20.5794 15.2326 20.5703C15.185 20.5318 15.1555 20.4978 15.1396 20.432C15.126 20.3731 15.117 20.3142 15.1102 20.2529C15.1102 20.2393 15.1011 20.2325 15.0875 20.228C15.0626 20.2235 15.0399 20.2099 15.0218 20.1895C14.9991 20.1645 14.9877 20.1373 14.9832 20.1079C14.9741 20.0331 14.9583 19.9605 14.9356 19.8903C14.9311 19.8789 14.9243 19.8721 14.9129 19.8721C14.9084 19.8721 14.9039 19.8721 14.8993 19.8767C14.8857 19.888 14.8744 19.8857 14.8631 19.8699C14.854 19.854 14.8472 19.8291 14.8472 19.7996C14.8427 19.4868 14.8359 19.1717 14.8313 18.8589C14.8313 18.775 14.7769 18.6889 14.7044 18.6413C14.5095 18.5166 14.3372 18.4373 14.1853 18.4078C14.047 18.3806 14.0493 18.367 14.1898 18.3693L15.3867 18.3874V18.3942Z" fill="#0D78BE"/>
<path d="M35.2396 21.9779L35.1943 21.9688C35.1784 21.9665 35.1693 21.9575 35.1671 21.9416L35.158 21.8827C35.1557 21.8668 35.1489 21.8555 35.1376 21.8441L34.8316 21.5495C34.8316 20.7674 34.8316 19.974 34.8316 19.1739C34.8316 19.1285 34.8202 19.0764 34.7998 19.0129C34.6888 18.6865 34.2649 18.478 33.9611 18.3918C33.9203 18.3805 33.9226 18.376 33.9634 18.376H36.0194C36.042 18.376 36.042 18.376 36.0194 18.3805C35.6657 18.4576 35.4232 18.6548 35.2849 18.9721C35.2555 19.0424 35.2396 19.1263 35.2396 19.2237C35.2396 20.1418 35.2396 21.0598 35.2396 21.9801V21.9779Z" fill="#0D78BE"/>
<path d="M6.04626 18.376H6.77843C6.81243 18.3805 6.83283 18.3941 6.8419 18.4145C6.8487 18.4304 6.8419 18.4417 6.82603 18.4462C6.8215 18.4462 6.81696 18.4462 6.81243 18.4462C6.7943 18.4417 6.78069 18.4462 6.76936 18.4598C6.72403 18.5052 6.68096 18.5437 6.63562 18.5687C6.52228 18.6367 6.42481 18.7273 6.34321 18.8429C6.32734 18.8656 6.31147 18.8747 6.29107 18.8701C6.27747 18.8701 6.26614 18.8701 6.25707 18.8792C6.23667 18.8951 6.22534 18.9155 6.22307 18.9404C6.22307 18.9472 6.21854 18.954 6.214 18.9585L6.0848 19.0832C6.0848 19.0832 6.06893 19.1013 6.0644 19.1127C6.03266 19.1875 5.99186 19.2555 5.93746 19.3144C5.93066 19.3235 5.91706 19.3258 5.90572 19.3235C5.89665 19.319 5.88759 19.3122 5.88079 19.3008V18.7069C5.88079 18.6933 5.87172 18.6865 5.85812 18.6865L5.73118 18.682C5.71531 18.682 5.70398 18.6775 5.69718 18.6707C5.68811 18.6593 5.69038 18.6457 5.69945 18.6367C5.70398 18.6344 5.70851 18.6321 5.71305 18.6321C5.79012 18.6231 5.83998 18.5823 5.86265 18.5142C5.86719 18.5006 5.87399 18.4893 5.88532 18.4825C5.90799 18.4621 5.93519 18.4485 5.96239 18.444C5.97599 18.4417 5.98279 18.4326 5.98732 18.4213C5.99413 18.3918 6.01679 18.3782 6.05079 18.3805L6.04626 18.376Z" fill="#FCC221"/>
<path d="M6.77554 18.3738L7.51904 18.3964L7.42156 18.435C7.40796 18.4395 7.3989 18.4486 7.39436 18.4599C7.38756 18.4781 7.37623 18.4917 7.36036 18.503C7.35129 18.5098 7.34449 18.5211 7.34449 18.5325L7.32863 18.6798C7.14049 18.6413 6.94554 18.6367 6.7438 18.6662C6.71887 18.6707 6.69846 18.6911 6.69846 18.7161L6.69393 19.4165C6.64406 19.4142 6.61913 19.4528 6.61913 19.5344C6.61913 19.548 6.61459 19.5593 6.60779 19.5706C6.58966 19.5956 6.56473 19.616 6.53752 19.6296C6.52392 19.6364 6.51486 19.6454 6.51032 19.659C6.50579 19.6726 6.49672 19.684 6.48312 19.6908C6.47179 19.6976 6.46272 19.7066 6.45592 19.7202C6.40152 19.8449 6.33125 19.9492 6.24284 20.0331C6.21564 20.0603 6.19524 20.092 6.18164 20.1283C6.16804 20.1645 6.15217 20.2008 6.13404 20.2325C6.12724 20.2439 6.12271 20.2575 6.12271 20.2733C6.12044 20.33 6.09777 20.3799 6.05924 20.4229C6.05244 20.432 6.0479 20.4411 6.0479 20.4524C6.0479 20.4841 6.0411 20.5113 6.02297 20.5363C6.01617 20.5476 6.0139 20.5589 6.0139 20.5703C6.02523 20.6428 6.01843 20.7108 5.99803 20.7766C5.9935 20.7902 5.98217 20.8015 5.96856 20.8083C5.94136 20.8174 5.9187 20.8128 5.90056 20.7902C5.88923 20.7766 5.88243 20.7788 5.88016 20.797L5.87563 20.8355L5.87109 19.3077C5.87789 19.319 5.88469 19.3281 5.89603 19.3304C5.90736 19.3349 5.9187 19.3304 5.92776 19.3213C5.9799 19.2624 6.02297 19.1944 6.0547 19.1195C6.05924 19.1082 6.06604 19.0991 6.0751 19.0901L6.20431 18.9654C6.20431 18.9654 6.21338 18.9541 6.21338 18.9473C6.21791 18.9201 6.22924 18.8997 6.24738 18.8861C6.25871 18.8793 6.27005 18.8747 6.28138 18.877C6.30178 18.8793 6.31765 18.8702 6.33351 18.8498C6.41512 18.7342 6.51259 18.6435 6.62593 18.5755C6.67126 18.5483 6.7166 18.5121 6.75967 18.4667C6.771 18.4531 6.78687 18.4486 6.80274 18.4531C6.80727 18.4531 6.8118 18.4531 6.81634 18.4531C6.83447 18.4486 6.839 18.4372 6.8322 18.4214C6.8254 18.401 6.80274 18.3874 6.76873 18.3806L6.77554 18.3738Z" fill="#FDEA64"/>
<path d="M8.48257 19.0629C8.44857 19.0969 8.42137 19.1467 8.40097 19.2125C8.3919 19.2419 8.3715 19.2555 8.34203 19.251C8.3307 19.251 8.3239 19.2442 8.32163 19.2351C8.3171 19.2215 8.3103 19.217 8.2967 19.2193C8.2899 19.2193 8.2831 19.2261 8.2763 19.2329C8.03829 18.9405 7.72321 18.7568 7.33105 18.682L7.34692 18.5347C7.34692 18.5234 7.35372 18.512 7.36279 18.5052C7.37866 18.4939 7.38999 18.4803 7.39679 18.4622C7.40132 18.4508 7.41039 18.4418 7.42399 18.4372L7.52146 18.3987L8.42137 18.3783C8.43951 18.3783 8.45311 18.3919 8.45537 18.41L8.48484 19.0651L8.48257 19.0629Z" fill="#C8A413"/>
<path d="M20.3015 20.6677L20.3944 20.9375H18.7873C18.7555 20.9307 18.7442 20.9103 18.7533 20.8763C18.7578 20.8627 18.7533 20.8536 18.7442 20.8423C18.7306 20.8264 18.7125 20.8173 18.6921 20.8128C18.6785 20.8105 18.6694 20.8037 18.6581 20.7969C18.6082 20.7516 18.5379 20.7244 18.4994 20.6655C18.4586 20.6043 18.4337 20.5431 18.4269 20.4819C18.4269 20.4683 18.4201 20.4569 18.411 20.4456C18.3883 20.4184 18.3657 20.3912 18.343 20.364C18.3113 20.3254 18.2659 20.3118 18.2297 20.2733C18.207 20.2484 18.1821 20.2257 18.1571 20.2053C18.0279 20.0965 17.901 19.9628 17.7786 19.8109C17.7718 19.5593 17.7672 19.2895 17.765 19.0039C17.765 18.9563 17.765 18.9087 17.7604 18.8588C17.7514 18.5982 17.2209 18.4395 17.0305 18.3987C16.9467 18.3806 16.9489 18.3715 17.0328 18.3738L19.1998 18.4168C18.946 18.4735 18.7261 18.5959 18.5402 18.7886C18.5289 18.7999 18.5243 18.8135 18.5243 18.8294L18.5334 20.6428C18.5334 20.6541 18.5425 20.6655 18.5561 20.6655H20.2992L20.3015 20.6677Z" fill="#0A090D"/>
<path d="M22.2188 19.6476C22.1826 19.6 22.1463 19.5592 22.11 19.523C21.9083 19.3212 21.693 19.1331 21.464 18.9585C21.4753 18.7953 21.4051 18.6752 21.2532 18.5936C21.0764 18.5006 20.8928 18.4326 20.7046 18.3918C20.657 18.3828 20.657 18.376 20.7046 18.376C20.8089 18.376 20.9109 18.376 21.0107 18.376C21.6476 18.3896 22.2755 18.4032 22.8921 18.4122C22.9057 18.4122 22.9079 18.4122 22.8921 18.4168C22.6337 18.478 22.4161 18.6027 22.2324 18.7885C22.2234 18.7976 22.2188 18.8112 22.2188 18.8248V19.6476Z" fill="#0B1936"/>
<path d="M15.3875 18.3942C15.4102 18.3874 15.4533 18.3919 15.519 18.4033C15.4918 18.4554 15.4714 18.5098 15.4578 18.5665C15.4465 18.6141 15.4329 18.6617 15.4193 18.707C15.4057 18.7546 15.3989 18.8022 15.4011 18.8543C15.4034 18.9541 15.4102 19.0493 15.4147 19.14C15.4147 19.1513 15.4193 19.1604 15.4238 19.1694C15.4533 19.217 15.4646 19.2669 15.4601 19.319C15.4533 19.387 15.4601 19.4505 15.4805 19.5072C15.4986 19.5525 15.5099 19.6001 15.5167 19.6454C15.5281 19.718 15.5303 19.7883 15.5281 19.854C15.5281 19.8653 15.5326 19.8767 15.5417 19.8835C15.5439 19.8857 15.5485 19.888 15.553 19.8903C15.5734 19.9039 15.5825 19.8971 15.5802 19.8744C15.5757 19.8245 15.5802 19.7792 15.5938 19.7384V19.9968C15.5779 19.9696 15.5621 19.9424 15.5439 19.9129C15.5281 19.8835 15.519 19.8563 15.5145 19.8268C15.5099 19.786 15.5145 19.7406 15.5009 19.7021C15.4714 19.6114 15.4555 19.5185 15.4465 19.421C15.4442 19.378 15.4329 19.3349 15.4147 19.2896C15.4034 19.2601 15.3921 19.2306 15.3807 19.2034C15.3694 19.1762 15.3603 19.1468 15.3558 19.1196C15.3127 18.8861 15.3218 18.6458 15.383 18.3965L15.3875 18.3942Z" fill="#234684"/>
<path d="M15.5186 18.4033C15.6909 18.401 15.8677 18.4033 16.049 18.4146C16.117 18.4191 16.1805 18.4146 16.2394 18.4033C16.244 18.4033 16.2485 18.4033 16.253 18.4078C16.2598 18.4146 16.2576 18.4214 16.2485 18.4237C16.0173 18.4667 15.8178 18.5937 15.6433 18.7523C15.5934 18.7977 15.5753 18.877 15.5866 18.9926C15.6002 19.1173 15.6025 19.3666 15.5979 19.7384C15.5843 19.7792 15.5798 19.8245 15.5843 19.8744C15.5866 19.8993 15.5775 19.9039 15.5571 19.8903C15.5526 19.8903 15.5503 19.8857 15.5458 19.8835C15.5367 19.8744 15.5322 19.8653 15.5322 19.854C15.5322 19.7883 15.5322 19.718 15.5209 19.6454C15.5141 19.6001 15.5027 19.5548 15.4846 19.5072C15.4642 19.4505 15.4574 19.387 15.4642 19.319C15.4687 19.2669 15.4574 19.217 15.4279 19.1694C15.4234 19.1604 15.4189 19.1513 15.4189 19.14C15.4121 19.0493 15.4075 18.9541 15.4053 18.8543C15.4053 18.8022 15.4098 18.7546 15.4234 18.707C15.437 18.6594 15.4506 18.6141 15.4619 18.5665C15.4755 18.5098 15.4959 18.4554 15.5231 18.4033H15.5186Z" fill="#262454"/>
<path d="M11.1033 18.4349C11.1735 18.546 11.2302 18.6752 11.2733 18.8294C11.1055 19.1036 10.9763 19.3983 10.8811 19.7179C10.8766 19.7315 10.8698 19.7338 10.8607 19.7225L10.829 19.693L10.6612 19.294C10.6227 19.1286 10.6476 19.0266 10.7315 18.9926C10.7451 18.988 10.7564 18.988 10.7678 18.9971C10.7768 19.0016 10.7859 19.0062 10.7972 19.0084C10.8131 19.013 10.8244 19.0084 10.8358 18.9948C10.8539 18.9722 10.8652 18.945 10.8698 18.9155C10.8811 18.8475 10.9196 18.7772 10.9582 18.7205C10.9831 18.6865 11.0058 18.6389 11.0262 18.5777C11.0443 18.5279 11.067 18.4803 11.101 18.4349H11.1033Z" fill="#079B58"/>
<path d="M30.7352 18.4464C30.7579 18.4622 30.776 18.4781 30.7919 18.4917C30.81 18.5098 30.8282 18.5234 30.8486 18.537C30.98 18.6209 31.1092 18.6889 31.2362 18.7433C31.3404 18.7864 31.3994 18.8793 31.4969 18.9292C31.5989 18.9813 31.6963 19.0357 31.787 19.0947C31.8233 19.1196 31.8618 19.14 31.9026 19.1581C31.9434 19.1763 31.9797 19.2012 32.0114 19.2284C32.0477 19.2624 32.0885 19.2919 32.1315 19.3168C32.2404 19.3803 32.3106 19.4823 32.424 19.5412C32.4829 19.5707 32.535 19.6069 32.5781 19.6477C32.6348 19.7021 32.7005 19.7747 32.7708 19.8087C32.7912 19.82 32.807 19.8336 32.8184 19.854C32.8252 19.8654 32.8342 19.8722 32.8478 19.8767C32.8614 19.8812 32.8773 19.879 32.8955 19.8767L33.4689 20.5567C33.3851 20.5862 33.3307 20.5839 33.3012 20.5477C33.2604 20.4978 33.2151 20.4502 33.1697 20.4094C33.1539 20.3958 33.138 20.3822 33.1176 20.3731C33.1017 20.3663 33.0904 20.3527 33.0836 20.3368C33.0768 20.321 33.0609 20.3074 33.0451 20.3051L32.9363 20.2847C32.9249 20.2824 32.9136 20.2756 32.9068 20.2666C32.8705 20.2099 32.8252 20.1714 32.7753 20.151C32.7096 20.1238 32.6416 20.0988 32.569 20.0784C32.5668 20.0784 32.5645 20.0762 32.5645 20.0716C32.5645 20.0671 32.5645 20.0648 32.5645 20.0603C32.5622 20.049 32.5554 20.0422 32.5464 20.0376C32.5146 20.024 32.4852 20.0104 32.4534 19.9991C32.4194 19.9855 32.3922 19.9696 32.3696 19.9515C32.3084 19.9016 32.2472 19.8563 32.186 19.82C32.152 19.7996 32.1157 19.7996 32.0885 19.7656C32.0794 19.7543 32.0703 19.7475 32.0567 19.743C31.8641 19.6613 31.6714 19.5435 31.4765 19.3939C31.4289 19.3576 31.3926 19.3531 31.3631 19.3803L31.2747 19.2828C31.2634 19.2692 31.2566 19.2715 31.2566 19.2896L31.2498 19.4007L31.1319 19.3916C31.1183 19.3916 31.1047 19.3848 31.0956 19.3735C31.0775 19.3508 31.0526 19.3395 31.0254 19.3417C31.0118 19.3417 31.0004 19.3417 30.9891 19.3327L30.9506 19.3055C31.0027 18.6753 30.3567 18.4396 29.8444 18.4554C29.8398 18.4554 29.8398 18.4554 29.8398 18.4509C29.8398 18.4509 29.8398 18.4441 29.8444 18.4441C30.1413 18.4373 30.436 18.435 30.733 18.4441L30.7352 18.4464Z" fill="#234684"/>
<path d="M30.7357 18.4463L31.6242 18.4508C31.6673 18.4508 31.7058 18.469 31.733 18.5007L32.8936 19.8766C32.8778 19.8812 32.8619 19.8812 32.846 19.8766C32.8324 19.8721 32.8234 19.8653 32.8166 19.854C32.8052 19.8336 32.7894 19.8177 32.769 19.8086C32.6987 19.7723 32.6352 19.6998 32.5763 19.6477C32.5309 19.6069 32.4811 19.5706 32.4221 19.5411C32.3088 19.4822 32.2408 19.3802 32.1297 19.3167C32.0867 19.2918 32.0481 19.2623 32.0096 19.2283C31.9779 19.1989 31.9416 19.1762 31.9008 19.1581C31.86 19.1399 31.8214 19.1173 31.7852 19.0946C31.6922 19.0356 31.597 18.979 31.495 18.9291C31.3976 18.8792 31.3364 18.7863 31.2344 18.7432C31.1074 18.6888 30.9782 18.6208 30.8467 18.537C30.8263 18.5234 30.8059 18.5098 30.7901 18.4916C30.7765 18.478 30.7561 18.4622 30.7334 18.4463H30.7357Z" fill="#0C8CCE"/>
<path d="M26.2808 18.7681C26.5936 19.1898 26.8633 19.6408 27.0923 20.1214C27.1263 20.1917 27.1603 20.2597 27.1988 20.3277C27.251 20.4183 27.3008 20.5249 27.3507 20.645C27.3938 20.7516 27.455 20.8672 27.5343 20.9896C27.5592 21.0281 27.5638 21.0893 27.5887 21.1301C27.6953 21.3137 27.7995 21.4905 27.9015 21.6605C28.0217 21.86 28.1509 22.0595 28.2891 22.259C28.3435 22.3836 28.398 22.5106 28.4546 22.6443C28.5249 22.8098 28.5906 22.9322 28.6473 23.0138C28.806 23.2337 29.01 23.3969 29.2616 23.5057C29.282 23.5148 29.282 23.5193 29.2593 23.5193H28.8808L28.8944 23.4921C28.9012 23.4785 28.8966 23.474 28.883 23.474H28.8422C28.8218 23.4785 28.8173 23.4694 28.8264 23.4536C28.8377 23.4309 28.8354 23.4059 28.815 23.3787C28.8082 23.3697 28.7969 23.3651 28.7856 23.3651C28.7448 23.3719 28.7221 23.3538 28.7176 23.313C28.7176 23.3017 28.7108 23.2971 28.6994 23.2971C28.6926 23.2971 28.6881 23.2971 28.6836 23.2949C28.67 23.2881 28.6609 23.279 28.6541 23.2631C28.645 23.2427 28.6314 23.2291 28.6088 23.2269C28.5929 23.2269 28.577 23.2223 28.5634 23.2155C28.4818 23.1838 28.3685 23.1385 28.3095 23.0682C28.2891 23.0433 28.2687 23.0183 28.2506 22.9934C28.2325 22.9707 28.2166 22.9458 28.2007 22.9186C28.1871 22.8937 28.169 22.8665 28.1441 22.8438C28.135 22.8347 28.1237 22.8257 28.1101 22.8211C28.0874 22.8121 28.0783 22.7985 28.0783 22.7735C28.0783 22.7531 28.0693 22.7373 28.0489 22.7305C28.0375 22.7259 28.0285 22.7191 28.0194 22.7101C27.9446 22.6171 27.8494 22.5491 27.7814 22.4471C27.7723 22.4358 27.761 22.4267 27.7474 22.4199C27.6885 22.3995 27.634 22.3655 27.5819 22.3202L27.2736 21.4112C27.2668 21.3908 27.2532 21.3817 27.2328 21.3817H26.4213C26.5097 21.3863 26.4893 21.3387 26.3579 21.2389C26.3352 21.2208 26.2717 21.1913 26.1697 21.1482C26.1675 21.1482 26.1652 21.146 26.1629 21.1414L26.1584 21.1324C26.1516 21.1188 26.1402 21.1142 26.1244 21.1165C26.0904 21.121 26.0722 21.1074 26.0677 21.0734C26.0677 21.0666 26.0677 21.0621 26.0768 21.0598C26.0813 21.0598 26.0836 21.053 26.0813 21.0462C26.079 21.0349 26.0722 21.0281 26.0609 21.0281L25.9453 21.0054H27.0583C27.0583 21.0054 27.0719 20.9986 27.0719 20.9896C27.0719 20.9896 27.0719 20.9873 27.0719 20.985C26.8656 20.4206 26.6684 19.8811 26.4803 19.362C26.4689 19.3303 26.4485 19.3076 26.4191 19.294C26.3919 19.2804 26.3601 19.294 26.3488 19.319C26.3488 19.319 26.3488 19.3212 26.3488 19.3235L26.172 19.8109C26.1629 19.7814 26.147 19.7678 26.1244 19.7723C26.113 19.7723 26.104 19.77 26.0994 19.7564C26.0926 19.7383 26.0904 19.7224 26.0904 19.7066C26.0904 19.6907 26.0836 19.6862 26.07 19.6907C26.0518 19.6975 26.0382 19.7043 26.0269 19.7111C26.011 19.7224 25.9974 19.727 25.9884 19.7292C25.9566 19.736 25.9204 19.7383 25.8818 19.736L26.2831 18.7659L26.2808 18.7681Z" fill="#1A2752"/>
<path d="M11.2731 18.8293L11.4862 19.4436C11.4181 19.4255 11.3547 19.421 11.2935 19.4346C11.2799 19.4368 11.2685 19.4436 11.2617 19.455C11.1937 19.5502 11.1416 19.6545 11.1053 19.7678C11.0917 19.8086 11.1031 19.8403 11.1167 19.8766C11.1167 19.8811 11.1167 19.8857 11.1167 19.8902C11.1167 19.8925 11.1121 19.8925 11.1076 19.8902C11.1031 19.8902 11.1008 19.8902 11.1008 19.8947V20.0375C11.1008 20.0511 11.0985 20.0625 11.0895 20.0738C11.06 20.1123 11.0487 20.1599 11.06 20.2166C11.0623 20.2279 11.0713 20.2347 11.0827 20.2347C11.1121 20.2347 11.1235 20.2483 11.1189 20.2778C11.1189 20.2846 11.1212 20.2914 11.128 20.2937C11.1575 20.3027 11.1688 20.3209 11.1665 20.3503C11.1665 20.3503 11.1665 20.3526 11.1643 20.3526C11.1597 20.3526 11.1552 20.3526 11.1529 20.3571C11.1461 20.3662 11.1439 20.3753 11.1461 20.3844C11.1529 20.407 11.1393 20.4297 11.1099 20.4501L10.8311 19.693L10.8628 19.7225C10.8628 19.7225 10.8809 19.7293 10.8832 19.7179C10.9784 19.3983 11.1076 19.1014 11.2753 18.8293H11.2731Z" fill="#50BE8B"/>
<path d="M21.4648 18.9586C21.6961 19.1332 21.9114 19.3213 22.1109 19.523C22.1471 19.5593 22.1811 19.6001 22.2197 19.6477L22.2287 20.9738C22.197 20.9987 22.1698 20.9874 22.1426 20.942C22.1222 20.9058 22.1018 20.8718 22.0837 20.8332C22.0701 20.806 22.0474 20.7743 22.0134 20.7358C21.9522 20.6655 21.925 20.5862 21.9273 20.4955C21.9273 20.4819 21.9227 20.4728 21.9114 20.466C21.8706 20.4388 21.8389 20.4026 21.8162 20.3572C21.7845 20.2937 21.7437 20.262 21.6961 20.2665C21.6485 20.2711 21.6054 20.2348 21.6008 20.1872C21.6008 20.1827 21.6008 20.1781 21.6008 20.1759C21.6054 20.0943 21.5623 20.0535 21.4716 20.0535L21.4648 18.9609V18.9586Z" fill="#262454"/>
<path d="M8.48264 19.0628L8.49171 19.5502C8.49171 19.5638 8.48944 19.5638 8.48264 19.5524L8.27637 19.2306C8.27637 19.2306 8.28997 19.217 8.29677 19.217C8.31037 19.217 8.31717 19.2215 8.3217 19.2328C8.32397 19.2419 8.33077 19.2487 8.3421 19.2487C8.37384 19.2532 8.39197 19.2396 8.40104 19.2102C8.42144 19.1444 8.44864 19.0968 8.48264 19.0605V19.0628Z" fill="#B68B10"/>
<path d="M10.5659 19.3417L9.9629 20.9511C9.94024 20.9647 9.93117 20.9443 9.9357 20.8899C9.9357 20.8786 9.94024 20.8672 9.94704 20.8582C9.9697 20.8264 9.97877 20.7924 9.97197 20.7539C9.9697 20.7426 9.97197 20.7335 9.9833 20.7267C10.0196 20.7018 10.04 20.67 10.0445 20.6292C10.0445 20.6156 10.04 20.602 10.0286 20.593C10.006 20.5748 9.97877 20.568 9.94704 20.5748C9.9357 20.5748 9.92663 20.5748 9.91983 20.5635C9.9017 20.534 9.89943 20.5045 9.9085 20.4728C9.91077 20.4637 9.91757 20.4547 9.92663 20.4501C9.9901 20.4184 10.0173 20.3572 10.083 20.33C10.0989 20.3232 10.108 20.3051 10.1012 20.2892C10.1012 20.2892 10.1012 20.2869 10.0989 20.2847C10.0785 20.2529 10.0694 20.228 10.0672 20.2099C10.0626 20.1668 10.1034 20.1283 10.1601 20.126C10.1646 20.126 10.1692 20.126 10.1737 20.126C10.2009 20.126 10.2213 20.1147 10.2304 20.0875C10.2508 20.0308 10.2349 19.9945 10.185 19.9764C10.142 19.9605 10.1306 19.9197 10.1352 19.8789C10.1352 19.8608 10.1442 19.854 10.1624 19.854H10.2803C10.2916 19.854 10.3007 19.8494 10.3052 19.8381C10.3211 19.8086 10.3279 19.7792 10.3279 19.7452C10.3279 19.7316 10.3211 19.7202 10.3097 19.7134C10.2871 19.6998 10.2667 19.6817 10.253 19.6568C10.2485 19.65 10.2462 19.6432 10.2485 19.6341C10.2485 19.6205 10.2462 19.6114 10.2372 19.6046C10.2236 19.5956 10.219 19.5842 10.219 19.5684V19.5389C10.2236 19.523 10.2304 19.514 10.2485 19.514C10.2848 19.514 10.3415 19.5253 10.3709 19.5457C10.3823 19.5548 10.3959 19.5593 10.4095 19.5616C10.4253 19.5638 10.4344 19.5593 10.4412 19.5457C10.4707 19.4822 10.4797 19.421 10.4707 19.3598C10.4707 19.3462 10.4707 19.3349 10.4843 19.3281C10.5341 19.2918 10.5613 19.2964 10.5704 19.3394L10.5659 19.3417Z" fill="#33A977"/>
<path d="M30.9531 19.3099L30.9917 19.3371C30.9917 19.3371 31.0143 19.3485 31.0279 19.3462C31.0551 19.3439 31.0801 19.353 31.0982 19.3779C31.1073 19.3893 31.1186 19.3961 31.1345 19.3961L31.2523 19.4051V21.579L30.9531 21.5042V19.3099Z" fill="#1A2752"/>
<path d="M33.4694 20.5589L34.2583 21.4905C34.2311 21.5223 34.1948 21.5268 34.1517 21.5041C34.1223 21.4905 34.1019 21.4792 34.0837 21.4724C34.0724 21.4679 34.0611 21.4588 34.052 21.4497C34.0112 21.4021 33.9681 21.359 33.9228 21.316C33.8888 21.2842 33.8502 21.2729 33.8026 21.282C33.7913 21.282 33.789 21.282 33.7936 21.2706C33.7936 21.2661 33.7958 21.2616 33.7958 21.257C33.7958 21.2389 33.7868 21.2344 33.7709 21.2457C33.6984 21.2933 33.6644 21.35 33.6734 21.418C33.6734 21.4316 33.6802 21.4429 33.6916 21.452C33.7346 21.4905 33.7709 21.5404 33.7936 21.6016C33.8004 21.6197 33.8117 21.6311 33.8276 21.6401C33.8933 21.6787 33.95 21.7308 33.9953 21.7897C34.0066 21.8056 34.0202 21.8169 34.0384 21.8237C34.0837 21.8441 34.1245 21.8759 34.1608 21.9212C34.1721 21.9348 34.1857 21.9484 34.1993 21.9597C34.29 22.0323 34.3512 22.1229 34.3852 22.2295C34.426 22.3542 34.4691 22.472 34.5167 22.5808C34.5212 22.5922 34.5303 22.6012 34.5439 22.6058C34.5575 22.6103 34.5688 22.6194 34.5733 22.633C34.596 22.6828 34.6164 22.7304 34.6345 22.778C34.6413 22.7939 34.6527 22.8075 34.6663 22.8166C34.7048 22.8415 34.7297 22.8755 34.7388 22.9163C34.7388 22.9231 34.7433 22.9277 34.7501 22.9322L34.7683 22.9435C34.7796 22.9503 34.791 22.9571 34.8 22.9662L35.1219 23.2473C35.1219 23.2473 35.1332 23.2609 35.1378 23.2699C35.1559 23.3311 35.1876 23.3719 35.2375 23.3946V23.4377C35.1786 23.3901 35.1355 23.3334 35.1015 23.2677C35.0947 23.2563 35.0879 23.2473 35.0766 23.2427C35.0312 23.2201 34.9904 23.1883 34.9587 23.1453C34.9179 23.0909 34.8386 23.0319 34.7773 23.0002C34.7388 22.9798 34.7139 22.9435 34.7048 22.8914C34.7025 22.8755 34.6957 22.8619 34.6821 22.8528C34.5869 22.7644 34.5031 22.6738 34.4305 22.5831C34.392 22.5355 34.3897 22.4743 34.3557 22.4267C34.3285 22.3882 34.3059 22.3474 34.2877 22.3043C34.2719 22.2658 34.2515 22.2318 34.2243 22.2046C34.188 22.1638 34.1517 22.1207 34.1223 22.0708C34.0905 22.0209 34.0475 21.9824 33.993 21.962C33.9794 21.9575 33.9681 21.9484 33.959 21.9371C33.9205 21.8963 33.8729 21.8736 33.8321 21.8328C33.7936 21.7943 33.7505 21.7625 33.7029 21.7376C33.644 21.7081 33.5918 21.6651 33.5488 21.6061C33.5374 21.5903 33.517 21.5812 33.4966 21.5812C33.474 21.5812 33.4604 21.5948 33.4604 21.6175C33.4604 21.6379 33.4513 21.6469 33.4309 21.6469H33.3629L31.3613 19.3802C31.3908 19.353 31.4293 19.3575 31.4747 19.3938C31.6696 19.5434 31.8646 19.6612 32.055 19.7428C32.0686 19.7474 32.0776 19.7564 32.0867 19.7655C32.1139 19.7972 32.1502 19.7995 32.1842 19.8199C32.2476 19.8584 32.3088 19.9015 32.3678 19.9514C32.3904 19.9695 32.4176 19.9854 32.4516 19.999C32.4834 20.0103 32.5128 20.0239 32.5446 20.0375C32.5536 20.0421 32.5604 20.0489 32.5627 20.0602C32.5627 20.0647 32.5627 20.067 32.5627 20.0715C32.5627 20.0738 32.5627 20.0761 32.5673 20.0783C32.6398 20.0987 32.7078 20.1237 32.7735 20.1509C32.8234 20.1713 32.8665 20.2098 32.905 20.2665C32.9118 20.2755 32.9209 20.2823 32.9345 20.2846L33.0433 20.305C33.0614 20.3095 33.075 20.3209 33.0818 20.3367C33.0886 20.3526 33.0999 20.3639 33.1158 20.373C33.1339 20.3821 33.1521 20.3934 33.1679 20.4093C33.2133 20.4523 33.2586 20.4977 33.2994 20.5475C33.3289 20.5838 33.3856 20.5861 33.4672 20.5566L33.4694 20.5589Z" fill="#333475"/>
<path d="M6.69655 19.4165V19.684C6.56507 19.7837 6.4676 19.9084 6.40867 20.0603C6.40413 20.0693 6.3996 20.0761 6.3928 20.0829C6.386 20.0875 6.3792 20.092 6.37013 20.0965C6.36107 20.1011 6.35427 20.1079 6.34973 20.1169L6.2772 20.2597C6.2772 20.2597 6.27266 20.2711 6.27266 20.2779C6.27266 20.2869 6.26813 20.296 6.25906 20.3005C6.24773 20.3073 6.23866 20.3164 6.23186 20.3277C6.21146 20.3753 6.18652 20.3935 6.17519 20.4479C6.16386 20.5023 6.15026 20.5544 6.13212 20.6065C6.12759 20.6179 6.12985 20.6269 6.13212 20.636C6.13439 20.6428 6.13666 20.6496 6.13212 20.6564C6.11172 20.7176 6.09359 20.7788 6.07319 20.84C6.07319 20.8446 6.07092 20.8468 6.06639 20.8468C6.06185 20.8468 6.05959 20.8468 6.05732 20.8468C6.05278 20.9307 6.02332 21.0032 5.97118 21.0644C5.94851 21.0916 5.93718 21.1234 5.93945 21.1619C5.93945 21.1755 5.93491 21.1868 5.92811 21.1959C5.90091 21.2254 5.88278 21.2639 5.87598 21.3092V20.831L5.88504 20.7924C5.88731 20.7766 5.89411 20.7743 5.90544 20.7856C5.92358 20.8083 5.94625 20.8128 5.97345 20.8038C5.98705 20.7992 5.99838 20.7879 6.00292 20.772C6.02558 20.7063 6.03012 20.636 6.01878 20.5657C6.01878 20.5521 6.01878 20.5408 6.02785 20.5317C6.04598 20.5068 6.05278 20.4796 6.05278 20.4479C6.05278 20.4365 6.05505 20.4275 6.06412 20.4184C6.10265 20.3753 6.12532 20.3255 6.12759 20.2688C6.12759 20.2552 6.13212 20.2416 6.13892 20.228C6.15706 20.1963 6.17519 20.16 6.18652 20.1237C6.20012 20.0875 6.21826 20.0557 6.24773 20.0285C6.33613 19.9447 6.4064 19.8404 6.4608 19.7157C6.46534 19.7021 6.4744 19.693 6.488 19.6862C6.50161 19.6794 6.50841 19.6681 6.51521 19.6545C6.51974 19.6409 6.52881 19.6318 6.54241 19.625C6.57188 19.6114 6.59454 19.591 6.61268 19.5661C6.62174 19.5548 6.62401 19.5434 6.62401 19.5298C6.62401 19.4482 6.64895 19.4097 6.69881 19.412L6.69655 19.4165Z" fill="#FCC221"/>
<path d="M11.4865 19.4414L11.7109 20.0716C11.6519 20.2144 11.6474 20.3413 11.6973 20.4501C11.7222 20.5068 11.7426 20.5725 11.7562 20.6473C11.7608 20.6768 11.7562 20.704 11.7404 20.7267C11.7177 20.7607 11.7245 20.7856 11.7608 20.8038C11.7698 20.8083 11.7721 20.8151 11.7676 20.8242C11.7608 20.8355 11.7517 20.84 11.7381 20.8378C11.7222 20.8378 11.7086 20.8423 11.6973 20.8536C11.6791 20.8763 11.6587 20.899 11.6383 20.9216C11.6247 20.9375 11.6293 20.9466 11.6497 20.9466C11.6565 20.9466 11.661 20.9488 11.6678 20.9534C11.6791 20.9647 11.6791 20.9738 11.6678 20.9851L11.6429 21.01C11.6429 21.01 11.6338 21.0282 11.6429 21.0372C11.6451 21.0372 11.6497 21.0395 11.6542 21.0395C11.6678 21.0395 11.6769 21.0463 11.6791 21.0622C11.6859 21.0962 11.7063 21.1166 11.7404 21.1256C11.7517 21.1279 11.7585 21.137 11.7608 21.1483C11.7608 21.1528 11.7608 21.1551 11.7608 21.1596C11.7585 21.1755 11.7494 21.1846 11.7335 21.1868L11.7109 21.1914C11.7109 21.1914 11.6973 21.1982 11.695 21.205C11.695 21.2095 11.695 21.214 11.695 21.2163C11.7041 21.2276 11.7154 21.2344 11.7313 21.2344C11.7585 21.2344 11.763 21.2458 11.7426 21.2639C11.7381 21.2684 11.7358 21.273 11.7381 21.2798C11.7404 21.2979 11.7335 21.307 11.7131 21.307C11.7018 21.307 11.6927 21.3002 11.6927 21.2866L11.6882 21.2503C11.6859 21.2322 11.6746 21.2254 11.6587 21.2254C11.6361 21.2254 11.6225 21.2367 11.6157 21.2548C11.6089 21.2684 11.6134 21.2843 11.6225 21.2979C11.6474 21.3274 11.6542 21.3591 11.6451 21.3954C11.6406 21.409 11.6474 21.4226 11.661 21.4271C11.6746 21.4317 11.6814 21.4407 11.6882 21.4543C11.6973 21.4747 11.6905 21.4815 11.6701 21.4793C11.6111 21.4702 11.5749 21.4951 11.5613 21.5541L11.5069 21.4067C11.5001 21.3886 11.4819 21.375 11.4615 21.375L10.8926 21.3636C10.8926 21.3183 10.9198 21.3115 10.9764 21.3455C10.9946 21.3568 11.0195 21.35 11.0309 21.3319C11.0331 21.3274 11.0354 21.3206 11.0354 21.316C11.0354 21.2979 11.0445 21.2911 11.0581 21.2888C11.0671 21.2888 11.0739 21.2934 11.0739 21.3024C11.0739 21.3138 11.0785 21.3206 11.0898 21.3251C11.1011 21.3296 11.1125 21.3296 11.1238 21.3251C11.1374 21.3183 11.151 21.316 11.1646 21.3251C11.185 21.3342 11.2054 21.3319 11.2258 21.3228C11.2439 21.3138 11.2439 21.307 11.2235 21.3047C11.1963 21.3002 11.1737 21.2843 11.1555 21.2571C11.151 21.248 11.1487 21.2412 11.1533 21.2322C11.1533 21.2276 11.1578 21.2254 11.1601 21.2231C11.1759 21.2095 11.1737 21.2004 11.1555 21.1914C11.1329 21.1823 11.1079 21.1755 11.083 21.1732C11.0694 21.1732 11.0626 21.1642 11.0649 21.1506C11.0694 21.1324 11.0785 21.1143 11.0966 21.0962C11.1034 21.0894 11.1125 21.0871 11.1193 21.0939C11.1306 21.1007 11.1374 21.1143 11.1397 21.1302C11.1419 21.1551 11.1533 21.1596 11.1714 21.1415L11.1895 21.1234C11.2009 21.112 11.2054 21.0984 11.1986 21.0826C11.1941 21.0644 11.1827 21.0531 11.1646 21.0463C11.1465 21.0395 11.1283 21.0372 11.1057 21.0395C11.0399 21.0463 11.0082 21.035 11.0127 21.0032H11.2666C11.2847 21.0032 11.3006 20.9896 11.3006 20.9692C11.3006 20.9647 11.3006 20.9602 11.3006 20.9579L11.1125 20.4433C11.1419 20.4207 11.1533 20.398 11.1487 20.3776C11.1465 20.3663 11.1487 20.3572 11.1555 20.3504C11.1578 20.3459 11.1623 20.3459 11.1669 20.3459C11.1669 20.3459 11.1691 20.3459 11.1691 20.3436C11.1691 20.3141 11.1578 20.296 11.1306 20.2869C11.1238 20.2869 11.1193 20.2779 11.1215 20.2711C11.1261 20.2416 11.1147 20.228 11.0853 20.228C11.0717 20.228 11.0649 20.2212 11.0626 20.2099C11.0513 20.1532 11.0626 20.1056 11.0921 20.0671C11.1011 20.0557 11.1034 20.0444 11.1034 20.0308V19.888C11.1034 19.888 11.1034 19.8812 11.1079 19.8834C11.1125 19.8834 11.117 19.8834 11.117 19.8834C11.1193 19.8789 11.1193 19.8744 11.117 19.8698C11.1034 19.8336 11.0943 19.8018 11.1057 19.761C11.1419 19.6477 11.1941 19.5434 11.2621 19.4482C11.2689 19.4369 11.2802 19.4301 11.2938 19.4278C11.355 19.4165 11.4207 19.4188 11.4865 19.4369V19.4414Z" fill="#33A977"/>
<path d="M6.69872 19.684V21.7082C6.69419 21.6901 6.68512 21.6765 6.67605 21.6697C6.66245 21.6629 6.64659 21.6651 6.63752 21.6787C6.63752 21.6787 6.63752 21.6787 6.63752 21.681C6.58765 21.7853 6.56272 21.9099 6.56725 22.0573C6.56725 22.0731 6.56272 22.0867 6.54912 22.0958C6.54232 22.1026 6.53778 22.1094 6.53325 22.1185C6.48791 22.2907 6.45391 22.4653 6.42898 22.6489C6.41991 22.7169 6.43124 22.7804 6.44031 22.8484C6.44031 22.862 6.44031 22.8733 6.43351 22.8846C6.41764 22.9118 6.41538 22.939 6.42671 22.9685C6.43124 22.9798 6.43124 22.9912 6.43124 23.0025C6.42671 23.0388 6.42671 23.075 6.42671 23.1091C6.42671 23.1703 6.45844 23.202 6.51511 23.2065C6.54685 23.2065 6.57178 23.236 6.57178 23.27C6.57178 23.2768 6.56952 23.2859 6.56498 23.2927C6.55138 23.3221 6.54685 23.3516 6.55592 23.3833C6.56045 23.4015 6.55365 23.4105 6.53325 23.4083C6.52871 23.4083 6.52645 23.4083 6.52418 23.4128C6.51965 23.4219 6.51738 23.4332 6.52418 23.4423C6.52871 23.4536 6.52645 23.4627 6.51965 23.4717C6.51285 23.4808 6.50151 23.4853 6.49018 23.4808C6.47431 23.4763 6.46071 23.4763 6.44484 23.4808C6.42898 23.4853 6.42218 23.5035 6.42671 23.5284H5.79428C5.77841 23.5261 5.76708 23.5239 5.75801 23.5193C5.74441 23.5148 5.73988 23.5057 5.74668 23.4921C5.76481 23.4445 5.73988 23.3901 5.67188 23.3312L5.85322 23.2632C5.86682 23.2587 5.87362 23.2496 5.87362 23.2337L5.87815 21.3092C5.88495 21.2639 5.90309 21.2254 5.93029 21.1959C5.93935 21.1868 5.94389 21.1755 5.94162 21.1619C5.94162 21.1234 5.95069 21.0916 5.97336 21.0644C6.02549 21.0055 6.05269 20.933 6.05949 20.8468C6.06176 20.8468 6.06629 20.8468 6.06856 20.8468C6.07309 20.8468 6.07536 20.8423 6.07536 20.84C6.09349 20.7788 6.1139 20.7176 6.1343 20.6564C6.13656 20.6496 6.1343 20.6428 6.1343 20.636C6.12976 20.6269 6.12976 20.6179 6.1343 20.6065C6.15016 20.5544 6.16376 20.5023 6.17736 20.4479C6.1887 20.3935 6.21363 20.3753 6.23403 20.3277C6.23857 20.3164 6.24763 20.3073 6.26124 20.3005C6.2703 20.296 6.27484 20.2892 6.27484 20.2779C6.27484 20.2711 6.27484 20.2665 6.27937 20.2597L6.35191 20.1169C6.35191 20.1169 6.36324 20.101 6.37231 20.0965C6.38137 20.092 6.38817 20.0874 6.39497 20.0829C6.40178 20.0784 6.40631 20.0693 6.41084 20.0602C6.46978 19.9106 6.56725 19.786 6.70099 19.684H6.69872Z" fill="#C8A413"/>
<path d="M26.1723 19.8109L25.7462 20.9828C25.7462 20.9828 25.7462 20.9987 25.7575 21.0009H25.9479L26.0635 21.0259C26.0749 21.0259 26.0817 21.0349 26.0839 21.044C26.0839 21.0508 26.0839 21.0553 26.0794 21.0576C26.0726 21.0599 26.0703 21.0644 26.0703 21.0712C26.0749 21.1052 26.093 21.1188 26.127 21.1143C26.1429 21.1143 26.1542 21.1166 26.161 21.1302L26.1655 21.1392C26.1655 21.1392 26.1701 21.1438 26.1723 21.146C26.2743 21.1891 26.3355 21.2186 26.3605 21.2367C26.492 21.3364 26.5146 21.384 26.424 21.3772H25.5716C25.5716 21.3772 25.5716 21.3727 25.5716 21.3682C25.5716 21.3568 25.5762 21.3523 25.5875 21.3546C25.592 21.3546 25.5966 21.3546 25.6034 21.35C25.6102 21.3455 25.6124 21.341 25.617 21.3342C25.6215 21.3206 25.6306 21.3115 25.6442 21.307C25.6646 21.2979 25.6736 21.273 25.6646 21.2526C25.6623 21.2458 25.6555 21.239 25.651 21.2367C25.6147 21.2118 25.5739 21.1936 25.5331 21.1846C25.515 21.18 25.4991 21.171 25.4878 21.1574C25.4651 21.1324 25.4379 21.1166 25.4039 21.112C25.3903 21.112 25.3812 21.103 25.3767 21.0871C25.3699 21.0553 25.354 21.044 25.3291 21.0553L25.8799 19.7361C25.9185 19.7361 25.9525 19.7361 25.9865 19.7293C25.9978 19.7293 26.0114 19.7202 26.025 19.7112C26.0363 19.7021 26.0522 19.6953 26.0681 19.6908C26.0817 19.6862 26.0885 19.6908 26.0885 19.7066C26.0885 19.7225 26.093 19.7384 26.0975 19.7565C26.1021 19.7678 26.1111 19.7724 26.1225 19.7724C26.1451 19.7701 26.161 19.7814 26.1701 19.8109H26.1723Z" fill="#0B1936"/>
<path d="M14.8472 19.8041C14.8472 19.8336 14.8518 19.8562 14.8631 19.8744C14.8722 19.8902 14.8835 19.8925 14.8994 19.8812C14.9039 19.8789 14.9084 19.8766 14.913 19.8766C14.9243 19.8766 14.9334 19.8834 14.9356 19.8948C14.9606 19.965 14.9764 20.0376 14.9832 20.1124C14.9878 20.1418 14.9991 20.169 15.0218 20.194C15.0399 20.2144 15.0603 20.2257 15.0875 20.2325C15.1011 20.2348 15.1079 20.2438 15.1102 20.2574C15.117 20.3187 15.126 20.3776 15.1396 20.4365C15.1533 20.5 15.185 20.534 15.2326 20.5748C15.2439 20.5839 15.2485 20.5952 15.2507 20.6088C15.2666 20.7017 15.3006 20.7924 15.3482 20.8808C15.3777 20.9329 15.3618 20.9533 15.3527 21.0055C15.3301 21.1256 15.3527 21.214 15.423 21.2684C15.5001 21.3296 15.5567 21.3863 15.5953 21.4384C15.6021 21.9507 15.5998 22.4743 15.593 23.0116C15.593 23.1045 15.6429 23.1884 15.7494 23.2609C15.933 23.3856 16.1348 23.4672 16.3569 23.5012C16.3569 23.5012 16.3569 23.5012 16.3569 23.5035V23.5125C16.3569 23.5125 16.3524 23.5216 16.3456 23.5216L15.015 23.5148L14.8291 23.2088L14.845 19.7996L14.8472 19.8041Z" fill="#0C8CCE"/>
<path d="M17.7812 19.8109C17.9036 19.9651 18.0306 20.0965 18.1598 20.2053C18.1847 20.2257 18.2096 20.2484 18.2323 20.2733C18.2686 20.3119 18.3139 20.3255 18.3456 20.364C18.3683 20.3912 18.391 20.4184 18.4136 20.4456C18.4227 20.4569 18.4272 20.4683 18.4295 20.4819C18.4363 20.5431 18.4612 20.6043 18.502 20.6655C18.5406 20.7222 18.6109 20.7516 18.6607 20.797C18.6698 20.806 18.6811 20.8106 18.6947 20.8128C18.7151 20.8174 18.7333 20.8264 18.7469 20.8423C18.7559 20.8514 18.7582 20.8627 18.7559 20.8763C18.7469 20.9103 18.7559 20.9307 18.7899 20.9398L18.561 20.9443C18.5474 20.9443 18.5406 20.9511 18.5406 20.9647L18.536 21.5926C18.5247 21.6062 18.5156 21.6085 18.5088 21.5994C18.5066 21.5949 18.5043 21.5903 18.502 21.5858C18.502 21.5767 18.4952 21.5722 18.4884 21.5677L18.4159 21.5269C18.4159 21.5269 18.3978 21.5133 18.391 21.5019C18.3887 21.4974 18.3842 21.4929 18.3796 21.4861C18.3003 21.3999 18.221 21.2979 18.1371 21.1823C18.1212 21.1619 18.1076 21.1347 18.094 21.1052C18.0827 21.078 18.0668 21.0508 18.0532 21.0259C18.0374 21.001 18.0215 20.9806 18.0011 20.9692C17.9739 20.9534 17.949 20.9352 17.924 20.9171C17.9104 20.908 17.9036 20.8944 17.8968 20.8808C17.8923 20.8672 17.8855 20.8582 17.8764 20.8491C17.8288 20.8015 17.7948 20.7403 17.7744 20.661L17.7812 19.8109Z" fill="#262454"/>
<path d="M21.4711 20.049C21.5617 20.049 21.6048 20.0898 21.6003 20.1714C21.598 20.219 21.6343 20.262 21.6819 20.2643C21.6864 20.2643 21.6909 20.2643 21.6932 20.2643C21.7408 20.2598 21.7816 20.2915 21.8133 20.355C21.836 20.4003 21.8677 20.4366 21.9085 20.4638C21.9199 20.4706 21.9244 20.4819 21.9244 20.4932C21.9221 20.5839 21.9516 20.6632 22.0106 20.7335C22.0446 20.772 22.0672 20.8038 22.0808 20.831C22.099 20.8673 22.1194 20.9035 22.1398 20.9398C22.167 20.9851 22.1942 20.9965 22.2259 20.9715L22.2191 22.9912L21.4575 22.318L21.4688 20.9602C21.4688 20.9602 21.4597 20.9398 21.4484 20.9398L20.3898 20.9353L20.2969 20.6655L21.4393 20.661C21.4575 20.661 21.4665 20.6519 21.4665 20.6338V20.049H21.4711Z" fill="#333475"/>
<path d="M11.7108 20.0715C12.0214 20.9125 12.3047 21.7172 12.6447 22.565C12.7377 22.7962 12.8329 22.9707 12.9303 23.0841C13.089 23.2699 13.2704 23.4082 13.4789 23.4989C13.5061 23.5102 13.5061 23.517 13.4744 23.517H12.511C12.5246 23.4717 12.5473 23.4377 12.579 23.4105C12.6425 23.3561 12.6991 23.2994 12.749 23.2405C12.7694 23.2155 12.7649 23.2065 12.7331 23.2178C12.6833 23.2359 12.6447 23.2631 12.6198 23.3017C12.613 23.313 12.6017 23.3175 12.5903 23.3198C12.545 23.3266 12.5133 23.3516 12.4951 23.3946C12.4951 23.3992 12.4906 23.3992 12.4861 23.3992C12.4861 23.3992 12.4861 23.3992 12.4838 23.3992L12.477 23.3901C12.477 23.3901 12.4747 23.3856 12.477 23.3833L12.5835 23.2246C12.5835 23.2246 12.5994 23.2065 12.613 23.2019C12.6493 23.1883 12.6719 23.1611 12.6833 23.1226C12.6855 23.1135 12.681 23.1045 12.6719 23.1022C12.6697 23.1022 12.6674 23.1022 12.6651 23.1022C12.6085 23.1135 12.579 23.1475 12.5767 23.2019C12.5767 23.211 12.5722 23.2155 12.5631 23.2178C12.545 23.2223 12.5382 23.2178 12.5473 23.1997C12.5563 23.1815 12.5495 23.1611 12.5291 23.1407C12.511 23.1226 12.4815 23.1249 12.4634 23.143C12.4634 23.143 12.4634 23.1453 12.4611 23.1475C12.4248 23.1951 12.384 23.2314 12.3342 23.2586C12.3206 23.2654 12.3115 23.2767 12.3092 23.2903C12.3002 23.3266 12.2798 23.3538 12.2458 23.372C12.2186 23.3878 12.214 23.381 12.2299 23.3561C12.2888 23.2654 12.3614 23.1543 12.4498 23.0954C12.4906 23.0682 12.5223 23.0274 12.5427 22.9753C12.5699 22.9095 12.5586 22.9027 12.511 22.9549C12.4498 23.0229 12.3863 23.0818 12.3228 23.1317C12.2888 23.1589 12.2616 23.1906 12.2412 23.2269C12.2118 23.2813 12.171 23.3334 12.1188 23.381C12.1075 23.3901 12.103 23.3878 12.103 23.3742V23.3584C12.103 23.3447 12.1075 23.3357 12.1166 23.3266C12.1302 23.3107 12.1415 23.2926 12.146 23.2699C12.1483 23.2563 12.1551 23.2427 12.1664 23.2337C12.2118 23.1906 12.2299 23.1385 12.2798 23.1022C12.3364 23.0614 12.384 23.0093 12.4226 22.939C12.4271 22.9322 12.4226 22.9231 12.4158 22.9186C12.4158 22.9186 12.4112 22.9186 12.409 22.9186C12.3818 22.9163 12.3614 22.9277 12.3546 22.9571C12.35 22.9707 12.341 22.9775 12.3274 22.9775H12.3092C12.2956 22.9775 12.2843 22.9843 12.2798 22.9979C12.2412 23.109 12.1302 23.1339 12.0803 23.245C12.0803 23.2495 12.0758 23.2518 12.0712 23.2541C12.0667 23.2563 12.0622 23.2586 12.0576 23.2563C12.0531 23.2563 12.0531 23.2541 12.0531 23.2495C12.0531 23.2427 12.0508 23.2382 12.044 23.2359C12.0644 23.2087 12.0803 23.1793 12.0894 23.1498C12.0939 23.1362 12.0939 23.1249 12.0894 23.1113L11.5635 21.5608C11.5771 21.5019 11.6156 21.4769 11.6723 21.486C11.6927 21.4883 11.6995 21.4815 11.6904 21.4611C11.6859 21.4497 11.6768 21.4407 11.6632 21.4339C11.6496 21.4293 11.6451 21.4157 11.6473 21.4021C11.6564 21.3659 11.6473 21.3319 11.6247 21.3047C11.6156 21.2933 11.6111 21.2775 11.6179 21.2616C11.6247 21.2435 11.6405 21.2344 11.6609 21.2321C11.6791 21.2321 11.6881 21.2389 11.6904 21.2571L11.6949 21.2933C11.6949 21.3069 11.704 21.3137 11.7154 21.3137C11.7358 21.3137 11.7448 21.3069 11.7403 21.2865C11.7403 21.2797 11.7403 21.2752 11.7448 21.2707C11.7652 21.2525 11.763 21.2412 11.7335 21.2412C11.7199 21.2412 11.7063 21.2344 11.6972 21.2231C11.6949 21.2208 11.6949 21.2163 11.6972 21.2117C11.6995 21.2049 11.704 21.2004 11.7131 21.1981L11.7358 21.1936C11.7516 21.1891 11.7607 21.18 11.763 21.1664C11.763 21.1618 11.763 21.1596 11.763 21.155C11.763 21.1437 11.7539 21.1346 11.7426 21.1324C11.7086 21.1233 11.6881 21.1029 11.6813 21.0689C11.6791 21.0553 11.67 21.0485 11.6564 21.0462C11.6519 21.0462 11.6473 21.0462 11.6451 21.044C11.6337 21.0349 11.6337 21.0258 11.6451 21.0168L11.67 20.9918C11.67 20.9918 11.6813 20.9714 11.67 20.9601C11.6655 20.9556 11.6587 20.9533 11.6519 20.9533C11.6315 20.9533 11.6269 20.9442 11.6405 20.9284C11.6609 20.9057 11.6791 20.883 11.6995 20.8604C11.7108 20.8468 11.7244 20.8422 11.7403 20.8445C11.7539 20.8445 11.763 20.8422 11.7698 20.8309C11.7743 20.8218 11.772 20.815 11.763 20.8105C11.7267 20.7924 11.7199 20.7674 11.7426 20.7334C11.7584 20.7085 11.7652 20.6836 11.7584 20.6541C11.7448 20.5793 11.7267 20.5136 11.6995 20.4569C11.6496 20.3481 11.6541 20.2211 11.7131 20.0783L11.7108 20.0715ZM11.6949 21.8147C11.7176 21.8079 11.7335 21.792 11.7403 21.7693C11.7471 21.7489 11.7403 21.7399 11.7176 21.7467C11.6881 21.7557 11.6677 21.7739 11.6564 21.8033C11.6519 21.8147 11.6564 21.826 11.6677 21.8305C11.67 21.8305 11.6723 21.8305 11.6768 21.8305C11.6904 21.8305 11.6972 21.8237 11.6949 21.8147ZM12.0078 22.8461C12.0078 22.8461 12.0078 22.8597 12.0168 22.8619C12.0168 22.8619 12.0191 22.8619 12.0214 22.8619C12.0576 22.8619 12.0735 22.8393 12.0758 22.7962C12.0758 22.7713 12.0667 22.769 12.0486 22.7849C12.0304 22.8007 12.0168 22.8211 12.01 22.8461H12.0078ZM12.1302 22.8869C12.1302 22.8869 12.137 22.8755 12.1256 22.8755C12.069 22.871 12.044 22.9005 12.0508 22.9617C12.0508 22.9685 12.0531 22.973 12.0599 22.9775L12.0826 22.9934C12.0826 22.9934 12.0916 22.9957 12.0962 22.9934C12.0962 22.9934 12.0962 22.9889 12.0962 22.9866C12.0916 22.9481 12.1052 22.9141 12.1324 22.8891L12.1302 22.8869ZM12.1528 23.0637C12.205 23.0138 12.248 22.9571 12.2866 22.8959C12.2956 22.8801 12.2911 22.8755 12.2752 22.8801C12.2186 22.8937 12.1823 22.9231 12.1664 22.9685C12.1619 22.9798 12.1551 22.9889 12.1438 22.9979C12.1166 23.0183 12.1007 23.0478 12.0962 23.0886C12.0962 23.109 12.103 23.1135 12.1211 23.1045C12.1324 23.0999 12.1392 23.0909 12.1438 23.0773C12.1438 23.0727 12.1483 23.0659 12.1528 23.0614V23.0637Z" fill="#087150"/>
<path d="M17.7744 20.661C17.7948 20.7403 17.8288 20.8015 17.8764 20.8491C17.8855 20.8582 17.8923 20.8695 17.8968 20.8808C17.9013 20.8967 17.9104 20.908 17.924 20.9171C17.9489 20.9352 17.9739 20.9534 18.0011 20.9692C18.0192 20.9806 18.0373 20.9987 18.0532 21.0259C18.0691 21.0531 18.0827 21.078 18.094 21.1052C18.1076 21.1347 18.1212 21.1619 18.1371 21.1823C18.2209 21.3002 18.3025 21.3999 18.3796 21.4861C18.3841 21.4906 18.3887 21.4951 18.3909 21.5019C18.3955 21.5133 18.4045 21.5201 18.4159 21.5269L18.4884 21.5677C18.4884 21.5677 18.4997 21.5767 18.502 21.5858C18.502 21.5903 18.5043 21.5949 18.5088 21.5994C18.5156 21.6085 18.5247 21.6062 18.536 21.5926C18.5405 22.0686 18.5383 22.5446 18.5315 23.0207C18.5315 23.1023 18.5745 23.1771 18.6675 23.2428C18.8488 23.3765 19.0619 23.465 19.3044 23.508C19.309 23.508 19.3112 23.5103 19.309 23.5148C19.309 23.5148 19.3067 23.5216 19.3022 23.5216C19.0891 23.5194 18.8783 23.5171 18.6652 23.5194C18.6652 23.4899 18.6516 23.4695 18.6244 23.4536C18.6131 23.4468 18.604 23.4378 18.5949 23.4287C18.5655 23.3811 18.5383 23.3403 18.4929 23.304C18.3773 23.2088 18.2799 23.0932 18.2005 22.9572C18.1665 22.8983 18.1303 22.8484 18.094 22.8099C18.0192 22.7305 17.9557 22.6716 17.9059 22.5696C17.8854 22.5288 17.8628 22.4925 17.8378 22.4562C17.8288 22.4426 17.8197 22.4358 17.8084 22.4336C17.7925 22.4336 17.7789 22.4358 17.7676 22.4472L17.7766 20.6587L17.7744 20.661Z" fill="#333475"/>
<path d="M10.7631 21.0032C10.7517 21.1188 10.7722 21.2435 10.8288 21.375L10.3324 21.3795C10.3211 21.3433 10.2916 21.3297 10.244 21.3387C10.1828 21.3501 10.1443 21.3274 10.1239 21.2685C10.1057 21.2141 10.0921 21.1619 10.0808 21.1075C10.0785 21.0939 10.0717 21.0826 10.0649 21.0712C10.0491 21.0486 10.0513 21.0282 10.074 21.0055L10.7631 21.001V21.0032Z" fill="#079B58"/>
<path d="M10.7626 21.0032L11.0097 21.01C11.0074 21.0417 11.0392 21.053 11.1026 21.0462C11.123 21.044 11.1434 21.0462 11.1616 21.053C11.1797 21.0598 11.191 21.0712 11.1956 21.0893C11.2001 21.1052 11.1956 21.1188 11.1865 21.1301L11.1684 21.1482C11.1502 21.1664 11.1389 21.1618 11.1366 21.1369C11.1366 21.121 11.1276 21.1074 11.1162 21.1006C11.1072 21.0961 11.1004 21.0961 11.0936 21.1029C11.0777 21.121 11.0664 21.1392 11.0618 21.1573C11.0596 21.1709 11.0641 21.18 11.08 21.18C11.1049 21.18 11.1298 21.189 11.1525 21.1981C11.1706 21.2072 11.1729 21.2163 11.157 21.2299C11.1548 21.2321 11.1525 21.2344 11.1502 21.2389C11.1457 21.248 11.148 21.2571 11.1525 21.2639C11.1706 21.2888 11.191 21.3047 11.2205 21.3115C11.2409 21.316 11.2409 21.3228 11.2228 21.3296C11.2024 21.3387 11.182 21.3409 11.1616 21.3319C11.148 21.3251 11.1344 21.3251 11.1208 21.3319C11.1094 21.3387 11.0981 21.3387 11.0868 21.3319C11.0754 21.3273 11.0709 21.3205 11.0709 21.3092C11.0709 21.3001 11.0664 21.2933 11.055 21.2956C11.0414 21.2956 11.0346 21.3047 11.0324 21.3228C11.0324 21.3432 11.012 21.3591 10.9893 21.3568C10.9825 21.3568 10.978 21.3545 10.9734 21.3523C10.9168 21.3183 10.8895 21.3251 10.8895 21.3704C10.8646 21.3636 10.8442 21.3659 10.8283 21.3772C10.7739 21.2457 10.7513 21.121 10.7626 21.0054V21.0032Z" fill="#50BE8B"/>
<path d="M25.3293 21.0576C25.3543 21.0463 25.3701 21.0576 25.3769 21.0894C25.3792 21.103 25.3883 21.112 25.4041 21.1143C25.4359 21.1188 25.4654 21.1347 25.488 21.1596C25.5016 21.1732 25.5152 21.1823 25.5334 21.1868C25.5764 21.1959 25.615 21.214 25.6512 21.239C25.6694 21.2503 25.6739 21.2775 25.6626 21.2956C25.658 21.3024 25.6535 21.307 25.6467 21.3092C25.6331 21.316 25.624 21.3251 25.6195 21.3364C25.6172 21.3432 25.6127 21.3478 25.6059 21.3523C25.6014 21.3568 25.5946 21.3568 25.59 21.3568C25.5787 21.3546 25.5742 21.3568 25.5742 21.3704C25.5742 21.375 25.5742 21.3795 25.5742 21.384L25.3021 22.1343C25.2659 22.1321 25.2455 22.1185 25.2387 22.0958C25.2341 22.0822 25.2273 22.0709 25.216 22.0618C25.1775 22.0301 25.1321 21.9711 25.0913 21.9462C25.08 21.9394 25.0732 21.9303 25.0687 21.919C25.0641 21.9077 25.0573 21.9009 25.046 21.8963C25.0233 21.8895 25.0097 21.8737 25.0029 21.8487L25.3293 21.0576Z" fill="#0E0F1F"/>
<path d="M34.2579 21.4905L34.7974 22.132C34.8201 22.1592 34.8314 22.1547 34.8314 22.1207V21.5495L35.1397 21.8441C35.1511 21.8555 35.1579 21.8668 35.1601 21.8827L35.1692 21.9416C35.1715 21.9575 35.1805 21.9665 35.1964 21.9688L35.2417 21.9779V23.3969C35.1919 23.3742 35.1579 23.3311 35.142 23.2722C35.1397 23.2631 35.1352 23.2563 35.1261 23.2495L34.8042 22.9685C34.8042 22.9685 34.7838 22.9526 34.7725 22.9458L34.7544 22.9345C34.7544 22.9345 34.7453 22.9254 34.743 22.9186C34.734 22.8778 34.709 22.8438 34.6705 22.8189C34.6569 22.8098 34.6456 22.7962 34.6388 22.7803C34.6184 22.7327 34.598 22.6851 34.5776 22.6352C34.5708 22.6216 34.5617 22.6126 34.5481 22.608C34.5345 22.6035 34.5254 22.5967 34.5209 22.5831C34.4733 22.4743 34.4302 22.3587 34.3894 22.2318C34.3554 22.1252 34.2919 22.0345 34.2035 21.962C34.1899 21.9507 34.1763 21.9371 34.165 21.9235C34.1287 21.8781 34.0879 21.8464 34.0426 21.826C34.0245 21.8169 34.0109 21.8056 33.9995 21.792C33.9542 21.7308 33.8975 21.6809 33.8318 21.6424C33.8159 21.6333 33.8046 21.6197 33.7978 21.6039C33.7729 21.5427 33.7389 21.4928 33.6958 21.4543C33.6845 21.4452 33.6799 21.4339 33.6777 21.4203C33.6709 21.3522 33.7026 21.2956 33.7751 21.248C33.791 21.2389 33.8001 21.2412 33.8001 21.2593C33.8001 21.2638 33.8001 21.2684 33.7978 21.2729C33.7933 21.282 33.7978 21.2865 33.8069 21.2842C33.8522 21.2774 33.893 21.2888 33.927 21.3182C33.9723 21.359 34.0154 21.4044 34.0562 21.452C34.0653 21.4611 34.0766 21.4701 34.0879 21.4747C34.1038 21.4815 34.1265 21.4928 34.1559 21.5064C34.2013 21.5291 34.2353 21.5245 34.2625 21.4928L34.2579 21.4905Z" fill="#234684"/>
<path d="M9.46863 21.2753C9.49357 21.2821 9.5049 21.307 9.50263 21.3546C9.50037 21.4158 9.45957 21.4566 9.46863 21.5314C9.4777 21.5994 9.4777 21.672 9.4981 21.7377C9.5117 21.783 9.4981 21.817 9.50263 21.8624C9.51397 21.9258 9.5253 21.9893 9.54117 22.055C9.48677 22.284 9.38703 22.5197 9.30543 22.7373C9.23742 22.9209 9.20569 23.0479 9.20795 23.1204C9.21702 23.304 9.30996 23.431 9.48223 23.5012C9.49583 23.5058 9.50943 23.508 9.52304 23.508H9.58424C9.61824 23.5035 9.62051 23.508 9.58424 23.5171C9.54797 23.5284 9.5117 23.533 9.47317 23.533C9.22155 23.5307 8.96314 23.5284 8.69566 23.5262C8.60499 23.5262 8.51432 23.5171 8.42365 23.5012C8.40778 23.499 8.39872 23.4876 8.39645 23.4718C8.39192 23.4446 8.37605 23.4287 8.34658 23.4287C8.31711 23.4287 8.31485 23.4219 8.33751 23.4083L8.63446 23.2406C8.65713 23.227 8.673 23.2088 8.68206 23.1862L9.4641 21.2798L9.46863 21.2753Z" fill="#079B58"/>
<path d="M30.9531 21.502L31.2523 21.5768C31.2523 21.8918 31.2523 22.2115 31.2523 22.5379C31.2523 22.6081 31.2705 22.6965 31.3045 22.8008C31.2727 22.8076 31.2569 22.8076 31.2546 22.8008C31.2455 22.7645 31.2093 22.7396 31.173 22.7419C31.1005 22.7464 31.0257 22.7396 30.9554 22.7169V21.502H30.9531Z" fill="#234684"/>
<path d="M35.235 23.44C35.2395 23.4581 35.2418 23.4762 35.2395 23.4989C35.2395 23.5148 35.2305 23.5216 35.2146 23.5193C35.1579 23.5148 35.099 23.5125 35.0423 23.508C35.0015 23.5057 34.9879 23.4808 34.963 23.4536C34.4303 22.8529 33.8976 22.2522 33.3672 21.6492H33.4352C33.4556 21.6492 33.4647 21.6402 33.4647 21.6198C33.4647 21.5971 33.476 21.5835 33.5009 21.5835C33.5213 21.5835 33.5395 21.5926 33.5531 21.6084C33.5961 21.6651 33.6483 21.7104 33.7072 21.7399C33.7548 21.7648 33.7979 21.7966 33.8364 21.8351C33.8772 21.8759 33.9248 21.8963 33.9633 21.9394C33.9724 21.9507 33.9837 21.9575 33.9973 21.9643C34.0518 21.987 34.0948 22.0232 34.1266 22.0731C34.1583 22.1207 34.1923 22.1661 34.2286 22.2069C34.2558 22.2341 34.2762 22.2681 34.292 22.3066C34.3102 22.3497 34.3328 22.3905 34.36 22.429C34.394 22.4789 34.3963 22.5378 34.4348 22.5854C34.5074 22.6761 34.5912 22.7668 34.6864 22.8552C34.6978 22.8665 34.7046 22.8801 34.7091 22.8937C34.7182 22.9458 34.7431 22.9821 34.7817 23.0025C34.8429 23.0342 34.9222 23.0932 34.963 23.1476C34.9947 23.1906 35.0355 23.2224 35.0809 23.245C35.0922 23.2518 35.1013 23.2586 35.1058 23.27C35.1398 23.3357 35.1829 23.3924 35.2373 23.44H35.235Z" fill="#1A2752"/>
<path d="M6.69644 21.7082V23.227C6.69644 23.2428 6.7055 23.2564 6.71911 23.2632C6.88458 23.338 7.04779 23.4151 7.21326 23.4899C7.23593 23.5012 7.26086 23.508 7.2858 23.5103C7.3062 23.5126 7.3062 23.5148 7.2858 23.5194C7.26086 23.5239 7.23593 23.5262 7.20646 23.5262C6.94805 23.5262 6.68737 23.5262 6.42896 23.5262C6.42443 23.499 6.42896 23.4831 6.44709 23.4786C6.46069 23.474 6.47656 23.474 6.49243 23.4786C6.50376 23.4808 6.5151 23.4786 6.5219 23.4695C6.5287 23.4604 6.53096 23.4514 6.52643 23.44C6.5219 23.431 6.5219 23.4196 6.52643 23.4106C6.52643 23.406 6.53096 23.406 6.5355 23.406C6.5559 23.406 6.5627 23.3992 6.55816 23.3811C6.5491 23.3516 6.55363 23.3199 6.56723 23.2904C6.58083 23.261 6.56723 23.2247 6.54003 23.2111C6.53323 23.2088 6.52643 23.2066 6.51736 23.2043C6.45843 23.1998 6.42896 23.168 6.42896 23.1068C6.42896 23.0728 6.42896 23.0388 6.43349 23.0003C6.43349 22.9889 6.43349 22.9776 6.42896 22.9663C6.41762 22.9368 6.41989 22.9096 6.43576 22.8824C6.44256 22.8711 6.44483 22.8575 6.44256 22.8461C6.43349 22.7781 6.42216 22.7147 6.43123 22.6467C6.45616 22.4653 6.49016 22.2885 6.5355 22.1162C6.53776 22.1072 6.5423 22.1004 6.55136 22.0936C6.56496 22.0845 6.5695 22.0709 6.5695 22.055C6.56496 21.9077 6.58763 21.7808 6.63977 21.6788C6.64657 21.6652 6.66244 21.6606 6.67604 21.6652C6.67604 21.6652 6.67604 21.6652 6.6783 21.6652C6.68964 21.672 6.69644 21.6856 6.70097 21.7037L6.69644 21.7082Z" fill="#B68B10"/>
<path d="M11.6971 21.8148C11.6971 21.8148 11.6925 21.8284 11.6789 21.8306C11.6676 21.8306 11.6585 21.8238 11.6562 21.8125C11.6562 21.8102 11.6562 21.8057 11.6562 21.8034C11.6676 21.7762 11.688 21.7558 11.7175 21.7468C11.7379 21.74 11.7469 21.7468 11.7401 21.7694C11.7333 21.7921 11.7175 21.808 11.6948 21.8148H11.6971Z" fill="#50BE8B"/>
<path d="M25.0026 21.8488C25.0072 21.8737 25.023 21.8896 25.0457 21.8964C25.057 21.9009 25.0661 21.9077 25.0684 21.919C25.0729 21.9304 25.0797 21.9394 25.091 21.9462C25.1318 21.9712 25.1772 22.0278 25.2157 22.0618C25.227 22.0709 25.2338 22.0822 25.2384 22.0958C25.2452 22.1185 25.2656 22.1321 25.3018 22.1344C25.2157 22.3837 25.125 22.6285 25.0344 22.8733C24.9437 23.1113 24.98 23.3584 25.2225 23.4854C25.2746 23.5126 25.3404 23.5035 25.3993 23.5035C25.4016 23.5035 25.4038 23.5035 25.4038 23.508C25.4038 23.508 25.4038 23.5148 25.3993 23.5148C25.354 23.5216 25.3132 23.5262 25.2746 23.5262C24.8009 23.5352 24.3203 23.5352 23.833 23.5262C23.8284 23.5262 23.8262 23.5262 23.8262 23.5194V23.508C23.8262 23.508 23.8262 23.5035 23.8307 23.5035C23.867 23.5035 23.901 23.499 23.9304 23.4831C24.0869 23.4015 24.2455 23.3176 24.4087 23.2292C24.4269 23.2179 24.4427 23.202 24.4518 23.1839L25.0026 21.851V21.8488Z" fill="#262454"/>
<path d="M27.585 22.318C27.6371 22.3633 27.6915 22.3973 27.7505 22.4177C27.7641 22.4223 27.7754 22.4313 27.7845 22.4449C27.8525 22.5469 27.9477 22.6149 28.0225 22.7079C28.0293 22.7169 28.0406 22.7237 28.052 22.7283C28.0724 22.7351 28.0814 22.7487 28.0814 22.7713C28.0814 22.794 28.0905 22.8099 28.1132 22.8189C28.1268 22.8235 28.1381 22.8303 28.1472 22.8416C28.1698 22.8666 28.1902 22.8915 28.2038 22.9164C28.2174 22.9436 28.2333 22.9686 28.2537 22.9912C28.2741 23.0162 28.2945 23.0411 28.3126 23.066C28.3693 23.1363 28.4826 23.1816 28.5665 23.2134C28.5824 23.2179 28.596 23.2224 28.6119 23.2247C28.6345 23.2247 28.6504 23.2383 28.6572 23.261C28.6617 23.2746 28.6731 23.2859 28.6867 23.2927C28.6912 23.295 28.698 23.295 28.7025 23.295C28.7139 23.295 28.7207 23.2995 28.7207 23.3108C28.7229 23.3516 28.7456 23.3698 28.7887 23.363C28.8 23.363 28.8113 23.3675 28.8181 23.3766C28.8385 23.4038 28.8431 23.431 28.8295 23.4514C28.8204 23.4695 28.8249 23.4763 28.8453 23.4763H28.8861C28.8997 23.4718 28.9043 23.4763 28.8975 23.4922L28.8839 23.5216H27.3311C27.2767 23.5216 27.2767 23.5148 27.3289 23.5012C27.4626 23.4627 27.9182 23.2927 27.8457 23.0864C27.7595 22.8348 27.6711 22.5787 27.585 22.3203V22.318Z" fill="#0B1936"/>
<path d="M21.4618 22.3202L22.2234 22.9934C22.2234 23.0886 22.271 23.1748 22.3662 23.2473C22.5453 23.3878 22.7652 23.4558 22.976 23.5102C23.0032 23.517 23.0032 23.5216 22.976 23.5216H21.6726L21.3711 23.2541L21.4346 23.2156C21.4459 23.2088 21.4527 23.1974 21.4527 23.1838L21.464 22.3225L21.4618 22.3202Z" fill="#0E0F1F"/>
<path d="M18.6653 23.5194H17.7178L17.5273 23.3312L17.745 23.2088C17.7563 23.202 17.7631 23.193 17.7631 23.1794L17.7676 22.4495C17.779 22.4381 17.7926 22.4336 17.8084 22.4359C17.8198 22.4359 17.8288 22.4449 17.8379 22.4585C17.8628 22.4948 17.8855 22.5333 17.9059 22.5719C17.9558 22.6716 18.0192 22.7328 18.094 22.8122C18.1303 22.8507 18.1666 22.8983 18.2006 22.9595C18.2799 23.0955 18.3774 23.2111 18.493 23.3063C18.5383 23.3426 18.5633 23.3834 18.595 23.431C18.6018 23.4423 18.6131 23.4514 18.6245 23.4559C18.6517 23.4718 18.6653 23.4922 18.6653 23.5217V23.5194Z" fill="#262454"/>
<path d="M30.9528 22.7191C31.0253 22.7418 31.0979 22.7486 31.1704 22.7441C31.2089 22.7418 31.2429 22.7667 31.252 22.803C31.252 22.8098 31.2701 22.8098 31.3019 22.803C31.4741 23.177 31.8323 23.3651 32.2154 23.4694C32.2176 23.4694 32.2199 23.4717 32.2199 23.4762C32.2199 23.4785 32.2176 23.4808 32.2131 23.4808H30.2591C30.2229 23.4785 30.2206 23.4694 30.2546 23.4535L30.921 23.1317C30.9392 23.1226 30.9505 23.1045 30.9505 23.0863V22.7214L30.9528 22.7191Z" fill="#0A61A3"/>
<path d="M12.0101 22.8461C12.0191 22.8212 12.0327 22.8008 12.0486 22.7849C12.0667 22.769 12.0758 22.7736 12.0758 22.7962C12.0758 22.8416 12.0577 22.862 12.0214 22.862C12.0146 22.862 12.0078 22.8552 12.0078 22.8484C12.0078 22.8484 12.0078 22.8461 12.0078 22.8438L12.0101 22.8461Z" fill="#50BE8B"/>
<path d="M12.1298 22.8869C12.1026 22.9141 12.0913 22.9458 12.0936 22.9843C12.0936 22.9889 12.0913 22.9934 12.0845 22.9957C12.0822 22.9957 12.08 22.9957 12.0777 22.9957L12.055 22.9798C12.055 22.9798 12.0482 22.9707 12.0459 22.9639C12.0391 22.9005 12.0663 22.871 12.1208 22.8778C12.1298 22.8778 12.1321 22.8823 12.1253 22.8891L12.1298 22.8869Z" fill="#50BE8B"/>
<path d="M12.1433 23.0773C12.1388 23.0886 12.132 23.0977 12.1206 23.1045C12.1025 23.1136 12.0957 23.109 12.0957 23.0886C12.1002 23.0478 12.1161 23.0161 12.1433 22.998C12.1524 22.9912 12.1614 22.9798 12.166 22.9685C12.1818 22.9232 12.2181 22.896 12.2748 22.8801C12.2929 22.8756 12.2952 22.8801 12.2861 22.896C12.2476 22.9594 12.2045 23.0138 12.1524 23.0637C12.1478 23.0682 12.1456 23.0728 12.1433 23.0796V23.0773Z" fill="#50BE8B"/>
<path d="M12.5125 23.5171C12.2677 23.5239 12.0206 23.5171 11.7758 23.5058C11.6919 23.5013 11.608 23.5149 11.5264 23.533C11.506 23.5375 11.5038 23.533 11.5174 23.5171C11.531 23.5035 11.5446 23.4967 11.5582 23.4945C11.7554 23.4627 11.9163 23.3766 12.0387 23.236C12.0433 23.2383 12.0478 23.2428 12.0478 23.2496C12.0478 23.2542 12.0478 23.2564 12.0523 23.2564C12.0569 23.2564 12.0614 23.2564 12.0659 23.2542C12.0705 23.2519 12.0727 23.2474 12.075 23.2451C12.1249 23.134 12.2337 23.1091 12.2745 22.998C12.279 22.9844 12.2881 22.9776 12.3039 22.9776H12.3221C12.3357 22.9776 12.3447 22.9708 12.3493 22.9572C12.3583 22.93 12.3765 22.9164 12.4037 22.9187C12.4127 22.9187 12.4195 22.9278 12.4173 22.9368C12.4173 22.9368 12.4173 22.9414 12.4173 22.9436C12.3787 23.0116 12.3334 23.066 12.2745 23.1068C12.2246 23.1431 12.2065 23.1952 12.1611 23.2383C12.1498 23.2474 12.143 23.261 12.1407 23.2746C12.1362 23.2973 12.1249 23.3154 12.1113 23.3313C12.1022 23.3403 12.0977 23.3517 12.0977 23.363V23.3789C12.0977 23.3925 12.1022 23.3947 12.1135 23.3857C12.1657 23.3381 12.2065 23.2882 12.2359 23.2315C12.2563 23.1952 12.2835 23.1635 12.3175 23.1363C12.381 23.0864 12.4422 23.0275 12.5057 22.9595C12.5533 22.9074 12.5646 22.9142 12.5374 22.9799C12.517 23.032 12.4853 23.0728 12.4445 23.1C12.3561 23.159 12.2835 23.27 12.2246 23.3607C12.2065 23.3879 12.2133 23.3925 12.2405 23.3766C12.2745 23.3585 12.2949 23.3313 12.3039 23.295C12.3085 23.2814 12.3175 23.27 12.3289 23.2632C12.3787 23.236 12.4195 23.1998 12.4558 23.1522C12.4717 23.1318 12.5011 23.1272 12.5215 23.1431C12.5215 23.1431 12.5238 23.1431 12.5261 23.1454C12.5487 23.1658 12.5533 23.1839 12.5442 23.2043C12.5351 23.2224 12.5419 23.2292 12.5601 23.2224C12.5691 23.2202 12.5737 23.2156 12.5737 23.2066C12.5737 23.1522 12.6054 23.1182 12.6621 23.1068C12.6711 23.1068 12.6802 23.1114 12.6825 23.1204C12.6825 23.1227 12.6825 23.125 12.6825 23.1272C12.6734 23.1658 12.6507 23.193 12.6122 23.2066C12.6009 23.2111 12.5918 23.2179 12.5827 23.2292L12.4762 23.3879C12.4762 23.3879 12.4762 23.3925 12.4762 23.3947L12.483 23.4038C12.483 23.4038 12.4898 23.4083 12.4921 23.4038C12.4921 23.4038 12.4921 23.4038 12.4921 23.4015C12.5125 23.3585 12.5442 23.3335 12.5873 23.3267C12.6009 23.3267 12.6099 23.3177 12.6167 23.3086C12.6417 23.27 12.6802 23.2428 12.7301 23.2247C12.7618 23.2134 12.7664 23.2224 12.746 23.2474C12.6961 23.3086 12.6394 23.3653 12.5759 23.4174C12.5442 23.4446 12.5215 23.4809 12.5079 23.5217L12.5125 23.5171Z" fill="#33A977"/>
<path d="M14.8319 23.2111L15.0178 23.5171H14.2856C14.2698 23.5148 14.2698 23.5103 14.2834 23.5035L14.8342 23.2133L14.8319 23.2111Z" fill="#333475"/>
<path d="M21.3688 23.2518L21.6703 23.5193H20.9155C20.8883 23.5193 20.886 23.5102 20.9109 23.4989L21.3688 23.2541V23.2518Z" fill="#262454"/>
<path d="M5.6715 23.3312C5.7395 23.3901 5.76443 23.4445 5.7463 23.4921C5.74177 23.5057 5.7463 23.5148 5.75763 23.5193C5.7667 23.5239 5.7803 23.5261 5.7939 23.5261H5.15241C5.15241 23.5261 5.14787 23.5239 5.15241 23.5216L5.66923 23.3312H5.6715Z" fill="#FCC221"/>
<path d="M17.5272 23.3312L17.7176 23.5193H17.2212C17.2053 23.5193 17.2053 23.5148 17.2189 23.5057L17.5295 23.3312H17.5272Z" fill="#0A61A3"/>
<path d="M8.31296 23.4558C8.31296 23.4558 8.32203 23.4558 8.3243 23.4626L8.33563 23.4853C8.33563 23.4853 8.33563 23.4989 8.32883 23.5011C8.24496 23.5193 8.16562 23.5283 8.09308 23.5283C8.04775 23.5283 8.04548 23.5215 8.08855 23.5057C8.14975 23.483 8.22456 23.4671 8.31069 23.4581L8.31296 23.4558Z" fill="#50BE8B"/>
</g>
<circle cx="20" cy="20" r="19.5" stroke="black" stroke-opacity="0.05"/>
<defs>
<clipPath id="clip0_17713_28080">
<rect width="32" height="5.27024" fill="white" transform="translate(4.03516 18.2627)"/>
</clipPath>
</defs>
</svg>
