<svg width="40" height="40" viewBox="0 0 40 40" fill="none" xmlns="http://www.w3.org/2000/svg">
<circle cx="20" cy="20" r="20" fill="#F6F8FA"/>
<g clip-path="url(#clip0_43895_83154)">
<path d="M19.2861 16.1434C20.0743 16.1195 20.8624 16.1434 21.6423 16.1434C22.1484 16.1434 22.7789 16.1116 23.2684 16.1673C23.3099 16.1673 23.3597 16.1753 23.4012 16.1912C23.4426 16.1992 23.4841 16.2071 23.5339 16.2231C23.5754 16.231 23.6169 16.247 23.6583 16.2629C23.6998 16.2788 23.7413 16.2947 23.7828 16.3107C23.7994 16.3107 23.8077 16.3186 23.816 16.3266C23.8243 16.3266 23.8409 16.3425 23.8492 16.3425C23.8575 16.3425 23.874 16.3584 23.8823 16.3584C23.8906 16.3584 23.9072 16.3744 23.9155 16.3823C23.9238 16.3823 23.9404 16.3983 23.9487 16.4062C23.957 16.4142 23.9736 16.4222 23.9819 16.4301C23.9902 16.4301 24.0068 16.446 24.0151 16.454C24.0234 16.454 24.04 16.4699 24.0483 16.4779C24.0566 16.4779 24.0732 16.4938 24.0815 16.5018C24.0898 16.5098 24.1064 16.5177 24.1146 16.5257C24.1229 16.5336 24.1395 16.5416 24.1478 16.5496C24.1561 16.5575 24.1644 16.5655 24.181 16.5735C24.1893 16.5814 24.1976 16.5894 24.2142 16.5974C24.2225 16.6053 24.2308 16.6133 24.2474 16.6212C24.2557 16.6292 24.264 16.6372 24.2723 16.6531C24.2806 16.6611 24.2889 16.669 24.2972 16.685C24.3055 16.6929 24.3138 16.7009 24.3221 16.7168C24.3304 16.7248 24.3387 16.7407 24.3469 16.7487C24.3552 16.7566 24.3635 16.7726 24.3718 16.7805C24.3801 16.7885 24.3884 16.8044 24.3967 16.8124C24.3967 16.8203 24.4133 16.8363 24.4216 16.8442C24.4216 16.8522 24.4382 16.8681 24.4465 16.8761C24.4465 16.884 24.4631 16.9 24.4714 16.9079C24.4714 16.9159 24.488 16.9318 24.4963 16.9398C24.4963 16.9478 24.5129 16.9637 24.5129 16.9716C24.5129 16.9796 24.5295 16.9955 24.5295 17.0035C24.5295 17.0115 24.5461 17.0274 24.5461 17.0354C24.5461 17.0433 24.5544 17.0592 24.5627 17.0672C24.5627 17.0752 24.571 17.0911 24.5792 17.107C24.5792 17.123 24.5875 17.1309 24.5958 17.1468C24.5958 17.1628 24.6041 17.1707 24.6124 17.1867C24.6124 17.2026 24.6207 17.2106 24.629 17.2265C24.629 17.2424 24.6373 17.2504 24.6456 17.2663C24.6456 17.2822 24.6456 17.2902 24.6539 17.3061C24.6539 17.322 24.6539 17.33 24.6622 17.3459C24.6622 17.3619 24.6622 17.3698 24.6705 17.3858C24.6705 17.4017 24.6705 17.4096 24.6788 17.4256C24.6788 17.4415 24.6788 17.4495 24.6788 17.4654C24.6788 17.4813 24.6788 17.4893 24.6788 17.5052C24.6788 17.5211 24.6788 17.5291 24.6788 17.545C24.6788 17.561 24.6788 17.5689 24.6788 17.5848C24.6788 17.6008 24.6788 17.6087 24.6788 17.6247C24.6788 17.6406 24.6788 17.6486 24.6788 17.6645C24.6788 17.6804 24.6788 17.6884 24.6788 17.7043C24.6788 17.7202 24.6788 17.7282 24.6788 17.7441C24.6788 17.76 24.6788 17.768 24.6788 17.7839C24.6788 17.7999 24.6788 17.8078 24.6788 17.8237C24.6788 17.8397 24.6788 17.8476 24.6788 17.8636C24.6788 17.8795 24.6788 17.8875 24.6788 17.9034C24.6788 17.9193 24.6788 17.9273 24.6788 17.9432C24.6788 17.9591 24.6788 17.9671 24.6788 17.983C24.6788 17.9989 24.6788 18.0069 24.6788 18.0228C24.6788 18.0388 24.6788 18.0467 24.6788 18.0627C24.6788 18.0786 24.6788 18.0865 24.6788 18.1025C24.6788 18.1184 24.6788 18.1264 24.6705 18.1423C24.6705 18.1582 24.6705 18.1662 24.6622 18.1821C24.6622 18.198 24.6622 18.206 24.6539 18.2219C24.6539 18.2379 24.6539 18.2458 24.6456 18.2617C24.6456 18.2777 24.6373 18.2856 24.629 18.3016C24.629 18.3175 24.6207 18.3255 24.6124 18.3414C24.6124 18.3573 24.6041 18.3653 24.5958 18.3812C24.5958 18.3971 24.5875 18.4051 24.5792 18.421C24.5792 18.4369 24.571 18.4449 24.5627 18.4608C24.5627 18.4768 24.5544 18.4847 24.5461 18.5007C24.3635 18.8511 24.04 19.1537 23.65 19.2811C23.9736 19.3368 24.3055 19.5518 24.5295 19.7828C24.5378 19.7908 24.5544 19.8067 24.5627 19.8146C24.571 19.8226 24.5875 19.8385 24.5958 19.8465C24.6041 19.8545 24.6124 19.8704 24.629 19.8784C24.6373 19.8863 24.6456 19.9022 24.6622 19.9102C24.6705 19.9261 24.6788 19.9341 24.6871 19.95C24.6954 19.966 24.7037 19.9739 24.712 19.9898C24.7203 20.0058 24.7286 20.0137 24.7369 20.0297C24.7452 20.0456 24.7535 20.0536 24.7618 20.0695C24.7701 20.0854 24.7784 20.0934 24.7867 20.1093C24.7867 20.1252 24.8033 20.1332 24.8115 20.1491C24.8115 20.165 24.8281 20.173 24.8364 20.1889C24.8364 20.2049 24.853 20.2128 24.8613 20.2288C24.8613 20.2447 24.8779 20.2526 24.8779 20.2686C24.8779 20.2845 24.8945 20.2925 24.8945 20.3084C24.8945 20.3243 24.9028 20.3402 24.9111 20.3482C24.9111 20.3641 24.9194 20.3801 24.9277 20.388C24.9277 20.404 24.936 20.4199 24.9443 20.4278C24.9443 20.4438 24.9526 20.4597 24.9609 20.4677C24.9609 20.4836 24.9692 20.4995 24.9775 20.5075C24.9775 20.5234 24.9858 20.5393 24.9941 20.5553C24.9941 20.5712 24.9941 20.5871 25.0024 20.603C25.0024 20.619 25.0024 20.6349 25.0107 20.6508C25.0107 20.6668 25.0107 20.6827 25.019 20.6986C25.019 20.7145 25.019 20.7305 25.019 20.7464C25.019 20.7623 25.019 20.7782 25.019 20.7942C25.019 20.8101 25.019 20.826 25.019 20.842C25.019 20.8579 25.019 20.8738 25.019 20.8897C25.019 20.9057 25.019 20.9216 25.019 20.9375C25.019 20.9534 25.019 20.9694 25.019 20.9853C25.019 21.0012 25.019 21.0172 25.019 21.0331C25.019 21.049 25.019 21.0649 25.019 21.0809C25.019 21.0968 25.019 21.1127 25.019 21.1286C25.019 21.2879 24.9775 21.6622 24.853 21.7737C24.853 21.7737 24.853 21.7896 24.853 21.7976C24.8447 21.933 24.571 22.2515 24.4631 22.355C24.2391 22.578 23.9404 22.7532 23.6252 22.8328C23.1274 22.9603 22.3143 22.9045 21.7833 22.9045H19.2363V16.1912L19.2861 16.1434ZM20.7961 21.7657H22.0156C22.2645 21.7657 22.5383 21.7896 22.7789 21.7418C22.9448 21.71 23.1025 21.6463 23.2269 21.5268C23.2352 21.5189 23.2435 21.5109 23.2435 21.495C23.3929 21.3994 23.4841 21.1923 23.5173 21.0251C23.5671 20.7942 23.5173 20.5314 23.3763 20.3402C23.2435 20.1491 23.0112 20.0058 22.7789 19.966C22.5466 19.9261 22.2894 19.95 22.0488 19.95H20.7961V21.7737V21.7657ZM20.7961 18.859H21.8663C22.0903 18.859 22.3309 18.8829 22.5466 18.8351C22.6877 18.8112 22.8204 18.7555 22.9283 18.6599C22.9366 18.652 22.9531 18.636 22.9614 18.6201C23.1191 18.5007 23.202 18.3175 23.2269 18.1343C23.2518 17.9273 23.1937 17.7043 23.0527 17.5371C22.9034 17.3539 22.6794 17.2504 22.4388 17.2344C22.2396 17.2185 22.0405 17.2344 21.8414 17.2344H20.7961V18.859Z" fill="#383737"/>
<path d="M6.70077 16.1432C7.75442 16.1352 8.81637 16.1432 9.87832 16.1432C10.0857 16.8599 10.2517 17.6085 10.4342 18.3332L11.5874 22.8645H10.0774L9.67091 21.2877L9.62943 21.0965H6.96626C6.83352 21.6859 6.66759 22.2752 6.51825 22.8724H5C5.12445 22.4504 5.224 22.0044 5.33186 21.5744L5.97069 19.0579L6.44358 17.1944C6.53485 16.8519 6.6344 16.5015 6.70077 16.1591V16.1432ZM7.24834 19.9896H8.66704C8.89104 19.9896 9.11504 19.9896 9.34735 19.9896L8.88274 18.15C8.80808 17.8394 8.71681 17.5289 8.65044 17.2183H7.95354C7.72124 18.1341 7.46405 19.0579 7.25664 19.9816L7.24834 19.9896Z" fill="#383737"/>
<path d="M31.6479 16.0081C31.8055 15.9921 31.9631 16.0081 32.1208 16.0081C32.7181 16.0319 33.3652 16.0718 33.9128 16.3107C34.2613 16.462 34.535 16.7009 34.6678 17.0513C34.7341 17.2185 34.8254 17.7282 34.7507 17.8795H33.1744C33.1744 17.8795 33.1993 17.8317 33.1993 17.8078C33.2159 17.6486 33.1495 17.4734 33.0417 17.3539C32.8177 17.107 32.4194 17.0354 32.0959 17.0194C31.6645 16.9876 31.0339 16.9955 30.6855 17.2902C30.5444 17.4096 30.4698 17.5689 30.4615 17.7441C30.4532 17.9273 30.503 18.1025 30.6523 18.2219C30.8846 18.4131 31.2662 18.4927 31.5566 18.5803C32.0461 18.7236 32.5356 18.867 33.0251 19.0263C33.3818 19.1377 33.7469 19.2413 34.0704 19.4085C34.2695 19.512 34.4604 19.6315 34.6097 19.7987C34.9996 20.2128 35.0079 20.7862 34.9747 21.3118C34.9499 21.7259 34.8503 22.1082 34.5101 22.3949C33.8215 22.9842 32.3199 23.0399 31.4239 22.9921C31.2828 22.9762 31.1335 22.9842 30.9841 22.9682C30.561 22.9443 30.1379 22.8886 29.7397 22.7612C28.769 22.4586 28.6528 21.8693 28.686 20.9773C28.686 20.8897 28.7192 20.7145 28.6777 20.6349H30.337C30.3951 20.7225 30.3536 21.0729 30.3619 21.1924C30.3619 21.3755 30.4117 21.5507 30.5527 21.6861C30.8597 21.9569 31.6562 21.9569 32.0544 21.933C32.4111 21.917 32.9172 21.8932 33.1744 21.6144C33.3238 21.4552 33.3403 21.2083 33.3238 21.0092C33.3155 20.8021 33.2408 20.619 33.0666 20.4836C32.8426 20.3084 32.519 20.2288 32.2452 20.1491C31.8055 20.0217 31.3658 19.9023 30.9261 19.7828C30.6108 19.6952 30.279 19.6156 29.9803 19.4802C29.7812 19.3926 29.5903 19.2811 29.4244 19.1457C29.0511 18.8272 28.9017 18.3971 28.8686 17.9273C28.8437 17.4893 28.9017 16.9955 29.217 16.6611C29.7729 16.0718 30.8514 16.0479 31.6147 16.016L31.6479 16.0081Z" fill="#383737"/>
<path d="M12.1104 16.1433C12.6911 16.1274 13.2802 16.1433 13.8609 16.1433C14.0683 16.422 14.2508 16.7167 14.45 16.9954L15.5285 18.5802L18.4406 22.8566H16.6817C16.3415 22.3549 16.0014 21.8532 15.6612 21.3595C15.5534 21.2002 15.4455 21.0409 15.3377 20.8737L13.9854 22.8566H12.1186C12.1767 22.7372 12.2763 22.6177 12.3509 22.5062L12.799 21.8452L14.4002 19.5039C13.6452 18.3811 12.8653 17.2741 12.1186 16.1433H12.1104Z" fill="#383737"/>
<path d="M26.0898 16.1513C26.2558 16.1275 26.4383 16.1434 26.6125 16.1434H27.5998C27.5998 16.1434 27.6081 16.1593 27.6164 16.1752C27.6413 16.231 27.6413 22.1559 27.6247 22.7532C27.6247 22.793 27.6247 22.8169 27.5998 22.8487C27.55 22.8806 26.2807 22.8567 26.0898 22.8567C26.0898 22.8408 26.1064 22.8328 26.1064 22.8169C26.1396 22.7134 26.1147 21.4392 26.1147 21.2162C26.1147 19.5757 26.1396 17.9272 26.1147 16.2788C26.1147 16.231 26.1147 16.1912 26.0898 16.1434V16.1513Z" fill="#383737"/>
<path d="M16.6812 16.1432H18.5645L17.0794 18.3252C16.9549 18.5084 16.8305 18.6916 16.7061 18.8668C16.3908 18.4128 16.0755 17.951 15.7686 17.4891C16.0672 17.0351 16.3908 16.5971 16.6812 16.1353V16.1432Z" fill="#D31F24"/>
</g>
<circle cx="20" cy="20" r="19.5" stroke="black" stroke-opacity="0.05"/>
<defs>
<clipPath id="clip0_43895_83154">
<rect width="30" height="8" fill="white" transform="translate(5 16)"/>
</clipPath>
</defs>
</svg>
