<svg width="40" height="40" viewBox="0 0 40 40" fill="none" xmlns="http://www.w3.org/2000/svg">
<circle cx="20" cy="20" r="20" fill="#F6F8FA"/>
<path d="M13.4128 29.9788C13.4128 29.9788 12.2012 30.0554 12.6079 28.7863C12.6079 28.7863 13.843 24.4975 14.9759 21.7186C14.9759 21.7186 15.3336 20.756 15.883 20.6112C15.883 20.6112 16.5133 20.2918 17.4886 21.1649C21.9733 25.1853 24.501 29.9788 24.501 29.9788H13.4128Z" fill="#97B3C1"/>
<path d="M23.9163 16.7165C23.7673 17.6151 23.3371 17.5512 23.3371 17.5512C23.1199 17.63 22.6131 17.2297 22.6131 17.2297C20.3771 15.3557 16.953 12.07 15.7839 10.886C15.5624 10.6624 15.5901 10.4665 15.6412 10.3302C15.7519 10.0363 16.1608 10.0342 16.1608 10.0342H25.358C24.9385 11.4737 24.5573 13.3817 23.9163 16.7165Z" fill="#579FC1"/>
<path d="M28.6093 10.0875C27.1037 16.1778 27.7681 23.7608 28.7413 29.8553C29.3354 29.5679 29.493 29.0206 29.493 28.6245V12.2318H29.4887C29.4887 12.2318 29.4887 12.2233 29.493 12.2084V11.395C29.4909 10.6283 29.0075 10.2344 28.6093 10.0875Z" fill="#F8B728"/>
<path d="M28.6009 10.0873C28.4583 10.0298 28.2474 10.0043 28.1133 10C27.977 10 26.2159 10 26.2159 10C25.2002 12.7662 24.721 18.8607 25.0873 22.155C25.0873 22.155 19.5507 13.9693 12.9174 11.0456C10.5239 10.2279 10.0064 11.5737 10.0064 13.0047L10 28.7862C10 29.063 10.1405 29.4272 10.4408 29.5507C10.7794 29.6891 11.1946 29.5038 11.3629 29.1503C11.9612 27.9003 12.4979 25.3641 13.0643 22.4489C13.2836 21.3245 13.6265 19.5528 13.7777 18.7521C13.8863 18.1814 14.0843 17.7279 14.5102 17.5958C15.0724 17.4191 15.8731 17.7832 16.5055 18.2624C20.4387 21.2372 23.388 25.4174 25.428 30H28.0622C28.2687 29.9979 28.586 29.9255 28.7287 29.8552C27.7683 23.7606 27.1124 16.1776 28.5988 10.0873H28.6009Z" fill="#006B7E"/>
<circle cx="20" cy="20" r="19.5" stroke="black" stroke-opacity="0.05"/>
</svg>
