<svg width="40" height="40" viewBox="0 0 40 40" fill="none" xmlns="http://www.w3.org/2000/svg">
<ellipse cx="19.9815" cy="20" rx="19.9815" ry="20" fill="#BE1E24"/>
<path fill-rule="evenodd" clip-rule="evenodd" d="M19.9138 9C16.4496 9 13.3706 10.6376 11.3972 13.1417C13.707 11.6974 15.1977 13.0939 14.4772 14.8271C14.1399 15.6459 12.6491 16.2237 11.9276 16.9946C10.1472 18.7766 10.6279 22.0996 12.4082 22.7251C14.0911 23.255 12.5048 20.221 14.0911 18.8723C15.7759 17.6202 20.1546 19.8843 16.6417 22.8217C15.8246 23.3995 15.7281 23.5917 15.1977 24.1217C12.3595 27.0113 16.979 30.2377 20.3467 29.8053C23.377 29.4677 24.196 27.4924 24.5802 24.6516C24.9653 22.0996 24.4846 21.232 24.8688 19.3543C26.1207 15.8391 30.2576 18.8244 30.8348 20.5577C30.8348 20.3654 30.8835 20.1731 30.8835 19.9799C30.8835 13.9127 25.9754 9 19.9138 9Z" fill="url(#paint0_radial_17658_17216)"/>
<path fill-rule="evenodd" clip-rule="evenodd" d="M24.4362 16.0312C24.7258 16.2235 25.0621 16.4167 25.3507 16.5123C26.121 16.7534 26.8903 16.6568 27.2276 16.1278C27.757 15.4535 27.3232 14.2492 26.2653 13.4792C25.9757 13.286 25.6403 13.1415 25.3507 13.0449C24.5805 12.7561 23.8112 12.9015 23.4739 13.3826C22.9445 14.1048 23.3783 15.2602 24.4362 16.0312Z" fill="white"/>
<path fill-rule="evenodd" clip-rule="evenodd" d="M11.397 13.1417C9.90624 15.0203 8.9917 17.3801 8.9917 19.9799C8.9917 26.0002 13.8989 30.912 19.9137 30.912C21.8861 30.912 23.763 30.383 25.3503 29.4676C28.4771 27.6856 30.6426 24.3627 30.8356 20.5576C30.3052 19.0176 26.9376 16.4647 25.3503 18.4389C25.1572 18.68 25.0129 19.0176 24.8686 19.3543C24.4845 21.232 24.9651 22.0995 24.58 24.6515C24.1959 27.4924 23.3769 29.4676 20.3466 29.8053C16.9789 30.2376 12.3594 27.0113 15.1976 24.1216C15.728 23.5917 15.8245 23.3995 16.6416 22.8217C20.1545 19.8842 15.7758 17.6201 14.091 18.8722C12.5046 20.2209 14.091 23.255 12.4081 22.7251C10.6277 22.0995 10.1471 18.7766 11.9274 16.9946C12.6489 16.2236 14.1397 15.6459 14.477 14.8271C14.9874 13.5999 14.3882 12.541 13.1755 12.541C12.6747 12.541 12.0708 12.7208 11.397 13.1417Z" fill="white"/>
<path d="M20.0186 0.5C30.7774 0.5 39.5 9.23001 39.5 20C39.5 30.77 30.7774 39.5 20.0186 39.5C9.25969 39.5 0.537109 30.77 0.537109 20C0.537109 9.23002 9.25969 0.500009 20.0186 0.5Z" stroke="black" stroke-opacity="0.05"/>
<defs>
<radialGradient id="paint0_radial_17658_17216" cx="0" cy="0" r="1" gradientUnits="userSpaceOnUse" gradientTransform="translate(22.8109 16.3966) rotate(90) scale(13.4479 12.9514)">
<stop stop-color="#EF3D30"/>
<stop offset="1" stop-color="#A41B1F"/>
</radialGradient>
</defs>
</svg>
