<svg width="40" height="40" viewBox="0 0 40 40" fill="none" xmlns="http://www.w3.org/2000/svg">
<ellipse cx="20" cy="19.7531" rx="20" ry="19.7531" fill="#F6F8FA"/>
<path d="M12.9844 17.9969V13H17.8532L12.9844 17.9969Z" fill="#717171"/>
<path d="M29.0003 13H22.594L14.5221 21.8407C14.5221 21.8407 14.1409 22.2692 14.1377 22.8657C14.1331 23.7274 14.5221 24.0188 14.5221 24.0188L19.1346 29.272H25.4128L19.3909 22.8657L29.0003 13Z" fill="#F80000"/>
<path d="M20 0.993835C30.7754 0.993835 39.4999 9.61949 39.5 20.2468C39.5 30.8741 30.7754 39.4997 20 39.4997C9.22457 39.4997 0.5 30.8741 0.5 20.2468C0.500086 9.61949 9.22463 0.993835 20 0.993835Z" stroke="black" stroke-opacity="0.05"/>
</svg>
