<svg width="40" height="40" viewBox="0 0 40 40" fill="none" xmlns="http://www.w3.org/2000/svg">
<circle cx="20" cy="20" r="20" fill="#0068B7"/>
<path d="M12.1714 15.5355L11.4282 14.7158C10.5183 16.2721 10 18.076 10 19.9107H10.512C10.5143 18.1946 11.1112 16.6341 12.1714 15.5355Z" fill="url(#paint0_linear_16523_11309)"/>
<path d="M12.0389 23.5841C11.1083 22.703 10.512 21.5108 10.512 19.9191V19.9106H10C10 21.7754 10.3326 23.51 10.9898 25.0218L12.0389 23.5841Z" fill="url(#paint1_linear_16523_11309)"/>
<path d="M28.3403 18.5867L27.3887 19.5699C28.706 19.5884 29.5159 20.6059 29.4873 21.9035H29.9998C29.9998 20.6234 29.3998 19.4588 28.3403 18.5867Z" fill="url(#paint2_linear_16523_11309)"/>
<path d="M30 21.9036H29.4875C29.4624 22.9714 28.8919 23.8683 27.626 24.534L28.9621 26.3744C29.6148 25.1696 30 23.6932 30 21.9036Z" fill="url(#paint3_linear_16523_11309)"/>
<path d="M12.7058 18.4148C12.668 18.6169 12.649 18.822 12.6489 19.0276C12.6489 22.0862 14.9286 24.0388 17.8061 24.0388C23.2772 24.0388 24.9009 19.5684 27.351 19.5684C27.3631 19.5684 27.3761 19.57 27.389 19.57L28.3407 18.5868C27.1583 17.6142 25.4049 17.0046 23.2772 17.0046C18.9462 17.0046 16.639 20.622 14.6724 20.622C13.8173 20.622 13.1619 19.6827 13.1619 18.7715C13.1619 18.6767 13.1683 18.5847 13.1781 18.4958L12.7058 18.4148Z" fill="url(#paint4_linear_16523_11309)"/>
<path d="M16.0967 13.9296C19.2588 13.9296 21.4529 16.3214 24.2739 16.3214C27.6574 16.3214 29.5298 14.6731 30 11.4526L29.4875 11.3674C29.3447 12.2204 28.7885 13.246 27.7915 13.246C26.8512 13.246 25.8543 12.4199 24.4028 11.623C22.9489 10.7969 21.2815 10 19.2016 10C15.8562 10 13.0334 11.9711 11.4282 14.7159L12.1714 15.5356C13.1316 14.5418 14.4722 13.9296 16.0967 13.9296Z" fill="url(#paint5_linear_16523_11309)"/>
<path d="M19.4016 25.8332C16.9529 25.8332 13.8566 25.3029 12.0388 23.5842L10.9897 25.0219C12.499 28.4932 15.7184 30.7883 20.5414 30.7883C23.7294 30.7883 27.2566 29.5257 28.962 26.3745L27.6259 24.534C26.0545 25.3611 23.41 25.8332 19.4016 25.8332Z" fill="url(#paint6_linear_16523_11309)"/>
<circle cx="20" cy="20" r="19.5" stroke="black" stroke-opacity="0.05"/>
<defs>
<linearGradient id="paint0_linear_16523_11309" x1="12.4669" y1="15.8165" x2="9.43087" y2="18.8525" gradientUnits="userSpaceOnUse">
<stop stop-color="#FCB811"/>
<stop offset="1" stop-color="#C3BE2F"/>
</linearGradient>
<linearGradient id="paint1_linear_16523_11309" x1="9.33388" y1="21.0493" x2="11.9362" y2="23.6517" gradientUnits="userSpaceOnUse">
<stop stop-color="#C3BE2F"/>
<stop offset="1" stop-color="#80C241"/>
</linearGradient>
<linearGradient id="paint2_linear_16523_11309" x1="27.7977" y1="19.1115" x2="30.0107" y2="21.3245" gradientUnits="userSpaceOnUse">
<stop stop-color="#6CCEF5"/>
<stop offset="1" stop-color="#00B9C5"/>
</linearGradient>
<linearGradient id="paint3_linear_16523_11309" x1="30.4662" y1="22.8977" x2="28.23" y2="25.1339" gradientUnits="userSpaceOnUse">
<stop stop-color="#00B9C5"/>
<stop offset="1" stop-color="#00A89B"/>
</linearGradient>
<linearGradient id="paint4_linear_16523_11309" x1="13.7311" y1="20.5217" x2="27.3321" y2="20.5217" gradientUnits="userSpaceOnUse">
<stop stop-color="#0071BB"/>
<stop offset="1" stop-color="#6CCEF5"/>
</linearGradient>
<linearGradient id="paint5_linear_16523_11309" x1="11.4089" y1="13.1607" x2="29.9806" y2="13.1607" gradientUnits="userSpaceOnUse">
<stop stop-color="#FCB811"/>
<stop offset="0.598" stop-color="#F5831B"/>
<stop offset="1" stop-color="#F16421"/>
</linearGradient>
<linearGradient id="paint6_linear_16523_11309" x1="12.0199" y1="27.1863" x2="27.6075" y2="27.1863" gradientUnits="userSpaceOnUse">
<stop stop-color="#80C241"/>
<stop offset="1" stop-color="#00A89B"/>
</linearGradient>
</defs>
</svg>
