<svg width="40" height="40" viewBox="0 0 40 40" fill="none" xmlns="http://www.w3.org/2000/svg">
<circle cx="20" cy="20" r="20" fill="#2242A2"/>
<g clip-path="url(#clip0_18005_40039)">
<path d="M20.0521 30.0737L6.10374 20.5885C6.02635 20.5369 6.00915 20.4337 6.06074 20.3563C6.06934 20.3391 6.08654 20.3219 6.10374 20.3133L19.9404 11.0258C20.0005 10.9914 20.0693 10.9914 20.1295 11.0258L33.9747 20.3993C34.0521 20.4509 34.0693 20.5541 34.0177 20.6314C34.0091 20.6486 33.9919 20.6658 33.9747 20.6744L20.2413 30.0737C20.1811 30.1081 20.1123 30.1081 20.0521 30.0737ZM8.20202 20.3133C8.13322 20.3563 8.10743 20.4509 8.15902 20.5197C8.16762 20.5369 8.18482 20.5541 8.20202 20.5627L20.1553 28.5086C20.2069 28.543 20.2757 28.543 20.3187 28.5086L31.7733 20.7088C31.8421 20.6658 31.8679 20.5713 31.8163 20.5025C31.8077 20.4853 31.7905 20.4681 31.7733 20.4595L20.1381 12.4619C20.0865 12.4275 20.0177 12.4275 19.9747 12.4619L8.20202 20.3133Z" fill="white"/>
<path d="M18.4438 18.3353L19.8972 19.3415C19.9488 19.3759 20.0089 19.3759 20.0605 19.3415L21.2559 18.5503C21.3247 18.5073 21.3677 18.4643 21.3333 18.4213C21.3161 18.3955 21.2903 18.3783 21.2645 18.3525L20.7399 17.9742C20.6453 17.9226 20.6109 17.8538 20.6453 17.785C20.6625 17.7592 20.6797 17.7334 20.7055 17.7248L23.0704 15.8587C23.122 15.8157 23.1908 15.8157 23.2424 15.8501L29.7952 20.3046C29.864 20.3476 29.8812 20.4422 29.8296 20.511C29.821 20.5282 29.8038 20.5368 29.7952 20.5454L20.4303 27.3046C20.3787 27.339 20.3099 27.3476 20.2583 27.3046L17.6355 25.4299C17.5667 25.3869 17.5495 25.2923 17.6011 25.2235C17.6097 25.2063 17.6269 25.1977 17.6355 25.1891L24.1797 20.6056C24.2485 20.5626 24.2657 20.468 24.2141 20.3992C24.2141 20.3992 24.2141 20.3906 24.2055 20.382L23.6035 19.9692C23.5089 19.9262 23.4402 19.995 23.38 20.038L16.7153 24.6302C16.6637 24.6646 16.5949 24.6646 16.5519 24.6302L10.4893 20.6572C10.4205 20.6142 10.4033 20.5196 10.4463 20.4508C10.4549 20.4336 10.4721 20.4164 10.4893 20.4078L19.9488 14.0528C20.0003 14.0184 20.0691 14.0184 20.1121 14.0528L21.9352 15.3599C22.004 15.4115 22.0126 15.4975 21.961 15.5663C21.961 15.5749 21.9438 15.5835 21.9352 15.5921L18.461 18.0773C18.3922 18.1203 18.375 18.2149 18.4266 18.2837C18.4352 18.3009 18.4524 18.3095 18.461 18.3181L18.4438 18.3353ZM21.2043 17.699C21.1355 17.7592 21.1183 17.8624 21.1785 17.9312C21.1871 17.9484 21.2043 17.957 21.2129 17.9656L24.7387 20.3562C24.8161 20.4078 24.8333 20.511 24.7817 20.5884C24.7731 20.6056 24.7559 20.6228 24.7387 20.6314L18.1171 25.1805C18.0397 25.2321 18.0225 25.3353 18.0741 25.4127C18.0827 25.4299 18.0999 25.4471 18.1171 25.4557L20.2583 26.9004C20.3185 26.9434 20.3959 26.9348 20.4475 26.9004L29.2276 20.5626C29.305 20.511 29.3222 20.4078 29.262 20.3304C29.2534 20.3132 29.2362 20.296 29.219 20.2874L23.2166 16.2543C23.1564 16.2113 23.079 16.2113 23.0188 16.2543L21.1871 17.6904L21.2043 17.699ZM16.5003 19.6253C16.423 19.5737 16.3112 19.5737 16.2338 19.6253L15.004 20.4938C14.9008 20.5712 14.875 20.7088 14.9524 20.812C14.9696 20.8378 14.9868 20.855 15.0126 20.8722L16.2338 21.6891C16.3112 21.7407 16.4144 21.7407 16.4917 21.6891L17.7129 20.8292C17.8161 20.7518 17.8419 20.6142 17.7645 20.511C17.7473 20.4852 17.7301 20.468 17.7043 20.4508L16.5003 19.6253Z" fill="white"/>
</g>
<circle cx="20" cy="20" r="19.5" stroke="black" stroke-opacity="0.05"/>
<defs>
<clipPath id="clip0_18005_40039">
<rect width="28" height="19.1081" fill="white" transform="translate(6.03516 11)"/>
</clipPath>
</defs>
</svg>
