<svg width="40" height="40" viewBox="0 0 40 40" fill="none" xmlns="http://www.w3.org/2000/svg">
<circle cx="20" cy="20" r="20" fill="#010455"/>
<path d="M5.75747 20.9796C5.25963 20.8744 5.04322 20.4693 5.0002 19.9982C4.99871 19.9827 5.00572 19.9741 5.02123 19.9724L5.53373 19.9157C5.54035 19.915 5.54699 19.9168 5.55223 19.921C5.55747 19.9251 5.5609 19.9311 5.56177 19.9377C5.5895 20.1455 5.67683 20.3654 5.88942 20.4349C6.11411 20.5088 6.47585 20.4486 6.51856 20.1528C6.5447 19.974 6.43219 19.8675 6.2757 19.8213C6.09021 19.7669 5.91045 19.7119 5.73643 19.6562C5.66015 19.632 5.58578 19.5995 5.51333 19.5587C4.94984 19.2416 4.94601 18.4117 5.51811 18.1108C5.76958 17.9785 6.14279 17.9744 6.41721 18.0499C6.81178 18.1583 7.02819 18.5108 7.02628 18.9082C7.02628 18.9203 7.02022 18.9266 7.00811 18.927L6.47936 18.9535C6.47248 18.9538 6.46572 18.9515 6.46045 18.947C6.45518 18.9425 6.4518 18.9362 6.45099 18.9292C6.44249 18.854 6.42157 18.7825 6.38821 18.7148C6.28144 18.4974 5.94296 18.5108 5.76512 18.6C5.62775 18.6685 5.59779 18.8464 5.71667 18.9445C5.80241 19.0153 5.93149 19.0574 6.04144 19.088C6.55011 19.2298 7.03456 19.3582 7.09289 19.9772C7.13815 20.4543 6.88955 20.8798 6.40223 20.9773C6.17743 21.0222 5.96251 21.0229 5.75747 20.9796Z" fill="white"/>
<path d="M7.69516 21.0112L7.11765 21.0116C7.11525 21.0115 7.11288 21.0109 7.11075 21.0098C7.10862 21.0087 7.10679 21.0071 7.10539 21.0052C7.10399 21.0032 7.10308 21.0009 7.10271 20.9986C7.10235 20.9962 7.10255 20.9938 7.10331 20.9915L8.08495 18.0105C8.08597 18.0074 8.08793 18.0048 8.09057 18.0029C8.0932 18.001 8.09637 18 8.09961 18L8.66247 18.0016C8.66566 18.0016 8.66875 18.0027 8.67132 18.0046C8.6739 18.0064 8.67581 18.0091 8.67681 18.0121L9.68555 20.9915C9.68631 20.9938 9.68651 20.9962 9.68613 20.9986C9.68575 21.001 9.68481 21.0033 9.68337 21.0053C9.68194 21.0072 9.68006 21.0088 9.67789 21.0099C9.67572 21.011 9.67332 21.0116 9.67089 21.0116L9.08031 21.0112C9.07706 21.0113 9.07389 21.0103 9.07126 21.0084C9.06862 21.0065 9.06666 21.0038 9.06564 21.0007L8.85529 20.3515C8.85428 20.3484 8.85231 20.3457 8.84968 20.3438C8.84704 20.342 8.84387 20.3409 8.84063 20.341L7.92305 20.3416C7.91982 20.3417 7.91669 20.3428 7.91411 20.3447C7.91154 20.3466 7.90964 20.3494 7.9087 20.3524L7.70951 21.0004C7.70856 21.0035 7.70667 21.0062 7.70409 21.0081C7.70152 21.0101 7.69839 21.0112 7.69516 21.0112ZM8.08942 19.7705C8.08891 19.772 8.08877 19.7737 8.08903 19.7753C8.08929 19.7769 8.08993 19.7784 8.0909 19.7797C8.09186 19.781 8.09313 19.7821 8.09459 19.7828C8.09605 19.7835 8.09767 19.7839 8.0993 19.7839L8.65577 19.7826C8.65734 19.7825 8.65888 19.7822 8.66026 19.7814C8.66165 19.7807 8.66286 19.7797 8.66378 19.7784C8.66471 19.7771 8.66533 19.7757 8.6656 19.7741C8.66587 19.7726 8.66578 19.771 8.66534 19.7695L8.3855 18.8736C8.38485 18.8715 8.38355 18.8697 8.38181 18.8685C8.38006 18.8672 8.37795 18.8665 8.37578 18.8665C8.37362 18.8665 8.37151 18.8672 8.36976 18.8685C8.36801 18.8697 8.36672 18.8715 8.36606 18.8736L8.08942 19.7705Z" fill="white"/>
<path d="M10.4002 19.0625V20.9872C10.4002 21.0036 10.392 21.0117 10.3754 21.0117L9.88041 21.0114C9.86681 21.0114 9.86001 21.0046 9.86001 20.991L9.85938 18.0193C9.85938 18.0147 9.86126 18.0102 9.8646 18.0069C9.86795 18.0036 9.87249 18.0018 9.87722 18.0018L10.6571 18.0015C10.6632 18.0015 10.6691 18.0035 10.6738 18.0073C10.6786 18.011 10.6819 18.0163 10.6833 18.0222L11.0903 19.8319C11.0975 19.8633 11.1046 19.8633 11.1116 19.8319L11.5138 18.0203C11.515 18.0149 11.518 18.0102 11.5223 18.0068C11.5265 18.0033 11.5319 18.0015 11.5374 18.0015H12.3199C12.3248 18.0015 12.3295 18.0034 12.3329 18.007C12.3364 18.0105 12.3384 18.0153 12.3384 18.0203L12.3387 21.0015C12.3387 21.0042 12.3377 21.0067 12.3359 21.0085C12.3341 21.0104 12.3316 21.0114 12.3291 21.0114L11.8122 21.0124C11.8083 21.0124 11.8045 21.0108 11.8018 21.0081C11.799 21.0053 11.7975 21.0016 11.7975 20.9977C11.7975 20.3571 11.7984 19.7132 11.8004 19.066C11.8004 19.0624 11.799 19.0598 11.7962 19.0583C11.7905 19.0549 11.7869 19.0565 11.7854 19.0631L11.3749 20.9955C11.3739 20.9999 11.3714 21.0039 11.3678 21.0068C11.3643 21.0096 11.3599 21.0111 11.3554 21.0111L10.8413 21.0114C10.8369 21.0114 10.8326 21.0099 10.8292 21.0071C10.8258 21.0043 10.8234 21.0005 10.8225 20.9961L10.4123 19.0609C10.4043 19.0228 10.4002 19.0234 10.4002 19.0625Z" fill="white"/>
<path d="M13.1949 18.8053C13.2017 18.8951 13.2576 18.9619 13.3626 19.0054C13.8212 19.1957 14.4564 19.2119 14.6104 19.8028C14.7343 20.2793 14.5406 20.824 14.0293 20.9576C13.72 21.0383 13.4288 21.0309 13.1557 20.9352C12.7551 20.795 12.5782 20.3788 12.5498 19.988C12.5496 19.9846 12.5506 19.9811 12.5527 19.9785C12.5549 19.9758 12.558 19.9741 12.5613 19.9737L13.0866 19.915C13.0926 19.9144 13.0986 19.9162 13.1034 19.92C13.1081 19.9238 13.1113 19.9293 13.1121 19.9354C13.1452 20.2146 13.2768 20.4498 13.594 20.4629C13.8027 20.4712 14.0147 20.3931 14.0647 20.1738C14.1122 19.9654 13.9662 19.8618 13.7916 19.8099C13.5446 19.7359 13.287 19.6776 13.063 19.5578C12.6021 19.3107 12.5122 18.6959 12.8236 18.3058C12.9734 18.1181 13.2102 18.0282 13.4464 18.0085C13.8343 17.976 14.2355 18.0585 14.4414 18.4043C14.5309 18.5541 14.5757 18.7231 14.5759 18.9114C14.5759 18.9153 14.5744 18.9191 14.5717 18.922C14.5689 18.9248 14.5652 18.9265 14.5613 18.9267L14.0191 18.9541C14.0158 18.9543 14.0126 18.9532 14.01 18.9511C14.0074 18.949 14.0057 18.946 14.0051 18.9426C13.9777 18.7581 13.9143 18.5882 13.7087 18.5532C13.5296 18.5226 13.1758 18.5532 13.1949 18.8053Z" fill="white"/>
<path d="M16.9402 20.1786C16.8997 20.5977 16.6626 20.9117 16.232 20.9885C16.0729 21.0167 15.8946 21.0188 15.6972 20.9945C15.3215 20.9483 15.0384 20.6867 14.9623 20.3208C14.93 20.1659 14.9135 19.9927 14.9129 19.8013C14.9103 19.2146 14.9096 18.6187 14.9106 18.0136C14.9106 18.0055 14.9147 18.0015 14.9227 18.0015H15.4652C15.4676 18.0015 15.47 18.0019 15.4723 18.0029C15.4745 18.0038 15.4765 18.0052 15.4783 18.0069C15.48 18.0086 15.4813 18.0106 15.4823 18.0129C15.4832 18.0151 15.4837 18.0175 15.4837 18.02C15.4828 18.6117 15.4831 19.2025 15.4846 19.7923C15.485 20.0502 15.5047 20.3185 15.7807 20.4126C15.857 20.4385 15.9473 20.4443 16.0516 20.4301C16.4102 20.3804 16.3879 20.0008 16.3895 19.7394C16.3933 19.1783 16.3937 18.6038 16.3907 18.0161C16.3907 18.0123 16.3923 18.0087 16.3949 18.006C16.3976 18.0033 16.4013 18.0018 16.4051 18.0018L16.9424 18.0015C16.9575 18.0015 16.9651 18.009 16.9651 18.0241C16.9653 18.5687 16.9652 19.1158 16.9648 19.6655C16.9648 19.8395 16.9566 20.0105 16.9402 20.1786Z" fill="white"/>
<path d="M17.8798 19.2395L17.8817 20.9915C17.8817 20.9969 17.8796 21.0021 17.8757 21.0059C17.8719 21.0097 17.8667 21.0119 17.8613 21.0119L17.3584 21.0113C17.3473 21.0113 17.3418 21.0058 17.3418 20.995L17.3421 18.0211C17.3421 18.0159 17.3442 18.011 17.3478 18.0073C17.3515 18.0037 17.3564 18.0016 17.3616 18.0016L17.8674 18.001C17.8743 18.001 17.8811 18.0028 17.887 18.0064C17.8929 18.0099 17.8977 18.015 17.9008 18.0211L18.8321 19.8205C18.844 19.8433 18.8499 19.8418 18.8496 19.8161L18.8487 18.0147C18.8487 18.0112 18.8501 18.0079 18.8526 18.0054C18.8551 18.003 18.8585 18.0016 18.8621 18.0016H19.3768C19.38 18.0016 19.3831 18.0029 19.3854 18.0052C19.3876 18.0074 19.3889 18.0105 19.3889 18.0137V21.0011C19.3889 21.004 19.3877 21.0069 19.3856 21.0089C19.3836 21.011 19.3807 21.0122 19.3778 21.0122L18.8347 21.0109C18.8315 21.0109 18.8284 21.0101 18.8257 21.0085C18.823 21.0068 18.8208 21.0045 18.8194 21.0017L17.897 19.2354C17.8855 19.2131 17.8798 19.2144 17.8798 19.2395Z" fill="white"/>
<path d="M23.4003 19.9119V20.9923C23.4003 21.0051 23.3941 21.0114 23.3815 21.0114L22.8282 21.0117C22.8256 21.0117 22.8231 21.0107 22.8213 21.0089C22.8194 21.007 22.8184 21.0045 22.8184 21.0019V18.0142C22.8184 18.0108 22.8197 18.0076 22.8221 18.0052C22.8245 18.0028 22.8277 18.0015 22.8311 18.0015C23.1545 18.0019 23.4729 18.0023 23.7863 18.0027C23.9817 18.0031 24.2335 18.004 24.4021 18.0923C24.6966 18.2469 24.8205 18.5653 24.8295 18.9015C24.8425 19.4089 24.5974 19.8472 24.0588 19.8857C23.8478 19.901 23.6329 19.9052 23.414 19.8981C23.4123 19.8981 23.4105 19.8984 23.4088 19.8991C23.4072 19.8998 23.4056 19.9008 23.4044 19.902C23.4031 19.9033 23.4021 19.9049 23.4014 19.9065C23.4007 19.9082 23.4003 19.91 23.4003 19.9119ZM23.4 18.5758L23.4013 19.3241C23.4013 19.3269 23.4024 19.3296 23.4044 19.3316C23.4063 19.3335 23.409 19.3347 23.4118 19.3347L23.8596 19.334C23.9583 19.3338 24.053 19.2954 24.1226 19.2271C24.1923 19.1587 24.2314 19.0662 24.2312 18.9697V18.9277C24.2311 18.8799 24.2214 18.8326 24.2027 18.7885C24.1839 18.7444 24.1564 18.7044 24.1218 18.6707C24.0871 18.637 24.046 18.6103 24.0008 18.5921C23.9556 18.5739 23.9072 18.5646 23.8583 18.5646L23.4105 18.5653C23.4077 18.5653 23.4051 18.5664 23.4031 18.5684C23.4011 18.5703 23.4 18.573 23.4 18.5758Z" fill="white"/>
<path d="M25.6722 19.1613L26.5729 19.1616C26.5763 19.1616 26.5795 19.1603 26.5819 19.1579C26.5843 19.1555 26.5856 19.1522 26.5856 19.1488L26.5853 18.0149C26.5853 18.0132 26.5856 18.0115 26.5863 18.01C26.5869 18.0084 26.5879 18.007 26.5891 18.0058C26.5902 18.0047 26.5916 18.0037 26.5932 18.0031C26.5947 18.0024 26.5964 18.0021 26.5981 18.0021H27.1552C27.1569 18.0021 27.1585 18.0024 27.1601 18.0031C27.1616 18.0037 27.163 18.0047 27.1642 18.0058C27.1654 18.007 27.1663 18.0084 27.167 18.01C27.1676 18.0115 27.1679 18.0132 27.1679 18.0149V20.9996C27.1679 21.0013 27.1676 21.003 27.167 21.0045C27.1663 21.0061 27.1654 21.0075 27.1642 21.0086C27.163 21.0098 27.1616 21.0108 27.1601 21.0114C27.1585 21.0121 27.1569 21.0124 27.1552 21.0124L26.5981 21.0121C26.5964 21.0121 26.5947 21.0117 26.5932 21.0111C26.5916 21.0105 26.5902 21.0095 26.5891 21.0083C26.5879 21.0071 26.5869 21.0057 26.5863 21.0042C26.5856 21.0026 26.5853 21.001 26.5853 20.9993L26.5856 19.7356C26.5856 19.7322 26.5843 19.729 26.5819 19.7266C26.5795 19.7242 26.5763 19.7229 26.5729 19.7229L25.6722 19.7232C25.6688 19.7232 25.6656 19.7245 25.6632 19.7269C25.6608 19.7293 25.6594 19.7325 25.6594 19.7359V20.9993C25.6594 21.0027 25.6581 21.0059 25.6557 21.0083C25.6533 21.0107 25.6501 21.0121 25.6467 21.0121L25.0902 21.0117C25.0868 21.0117 25.0836 21.0104 25.0812 21.008C25.0788 21.0056 25.0775 21.0024 25.0775 20.999L25.0771 18.0142C25.0771 18.0108 25.0785 18.0076 25.0809 18.0052C25.0833 18.0028 25.0865 18.0015 25.0899 18.0015H25.647C25.6504 18.0015 25.6536 18.0028 25.656 18.0052C25.6584 18.0076 25.6598 18.0108 25.6598 18.0142L25.6594 19.1485C25.6594 19.1519 25.6608 19.1552 25.6632 19.1575C25.6656 19.1599 25.6688 19.1613 25.6722 19.1613Z" fill="white"/>
<path d="M29.164 20.341L28.2301 20.3413C28.2268 20.3413 28.2236 20.3423 28.2209 20.3443C28.2182 20.3462 28.2162 20.349 28.2152 20.3522L28.0137 21.0007C28.0127 21.0039 28.0107 21.0067 28.008 21.0086C28.0053 21.0106 28.0021 21.0116 27.9988 21.0116L27.412 21.0122C27.4095 21.0122 27.4071 21.0116 27.4049 21.0104C27.4027 21.0093 27.4008 21.0076 27.3994 21.0056C27.3979 21.0036 27.397 21.0013 27.3966 20.9988C27.3963 20.9963 27.3965 20.9938 27.3973 20.9915L28.3952 18.0115C28.3963 18.0084 28.3983 18.0058 28.4009 18.0039C28.4035 18.002 28.4067 18.001 28.4099 18.001L28.9817 18.0016C28.9849 18.0016 28.9881 18.0027 28.9907 18.0045C28.9933 18.0064 28.9953 18.0091 28.9963 18.0121L30.0223 20.9912C30.0231 20.9935 30.0233 20.9961 30.023 20.9986C30.0226 21.001 30.0217 21.0034 30.0202 21.0054C30.0187 21.0075 30.0168 21.0091 30.0145 21.0102C30.0123 21.0114 30.0098 21.0119 30.0073 21.0119L29.4068 21.0116C29.4036 21.0115 29.4004 21.0105 29.3978 21.0085C29.3951 21.0066 29.3932 21.0039 29.3922 21.0007L29.1786 20.3518C29.1776 20.3487 29.1757 20.346 29.1731 20.3441C29.1704 20.3421 29.1673 20.341 29.164 20.341ZM28.3997 19.7711C28.3993 19.7726 28.3991 19.7741 28.3994 19.7756C28.3996 19.7771 28.4003 19.7785 28.4012 19.7797C28.4021 19.7809 28.4032 19.7819 28.4046 19.7826C28.4059 19.7832 28.4074 19.7836 28.4089 19.7836L28.9769 19.7826C28.9784 19.7826 28.9798 19.7822 28.9812 19.7815C28.9825 19.7808 28.9836 19.7798 28.9845 19.7786C28.9853 19.7774 28.9859 19.776 28.9861 19.7746C28.9864 19.7731 28.9863 19.7716 28.9858 19.7702L28.7003 18.8717C28.6996 18.8698 28.6984 18.8681 28.6968 18.867C28.6951 18.8658 28.6932 18.8651 28.6912 18.8651C28.6892 18.8651 28.6872 18.8658 28.6856 18.867C28.6839 18.8681 28.6827 18.8698 28.6821 18.8717L28.3997 19.7711Z" fill="white"/>
<path d="M31.0389 19.8516L30.7371 19.8523C30.722 19.8523 30.7144 19.8599 30.7144 19.8752V20.9987C30.7144 21.0021 30.7131 21.0055 30.7106 21.0079C30.7082 21.0104 30.7048 21.0117 30.7014 21.0117L30.1627 21.0114C30.1584 21.0114 30.1543 21.0097 30.1512 21.0068C30.1482 21.0038 30.1465 20.9997 30.1465 20.9955V18.0145C30.1465 18.0128 30.1468 18.0111 30.1475 18.0095C30.1481 18.0079 30.1491 18.0065 30.1503 18.0053C30.1515 18.0041 30.153 18.0031 30.1546 18.0025C30.1561 18.0018 30.1578 18.0015 30.1596 18.0015C30.4827 18.0015 30.8089 18.0017 31.138 18.0021C31.6454 18.0024 32.12 18.1844 32.1856 18.7581C32.2341 19.1798 32.0766 19.5842 31.6629 19.7522C31.6603 19.7533 31.6579 19.7549 31.6559 19.757C31.6539 19.7591 31.6524 19.7615 31.6515 19.7643C31.6505 19.767 31.6502 19.7699 31.6505 19.7727C31.6507 19.7756 31.6516 19.7784 31.6531 19.7809L32.3265 20.9866C32.3361 21.0038 32.331 21.0124 32.3112 21.0124L31.7076 21.0114C31.7033 21.0114 31.6991 21.0103 31.6955 21.0081C31.6918 21.0059 31.6889 21.0027 31.6868 20.999L31.0749 19.873C31.067 19.8587 31.055 19.8516 31.0389 19.8516ZM30.7154 18.5057L30.7122 19.3375C30.7122 19.3405 30.7134 19.3433 30.7155 19.3454C30.7176 19.3475 30.7204 19.3487 30.7234 19.3487L31.1976 19.3503C31.3113 19.3507 31.4204 19.3112 31.501 19.2406C31.5817 19.1701 31.6272 19.0741 31.6276 18.9739L31.6282 18.8757C31.6284 18.8261 31.6175 18.7768 31.5961 18.7309C31.5747 18.6849 31.5433 18.6432 31.5036 18.6079C31.4639 18.5727 31.4167 18.5446 31.3648 18.5255C31.3128 18.5063 31.2571 18.4963 31.2008 18.4961L30.7265 18.4945C30.7236 18.4945 30.7208 18.4957 30.7187 18.4978C30.7166 18.4999 30.7154 18.5027 30.7154 18.5057Z" fill="white"/>
<path d="M32.9912 19.159C33.0199 19.7522 33.0062 20.3555 33.0068 21.0012C33.0069 21.0026 33.0066 21.004 33.0061 21.0053C33.0056 21.0067 33.0048 21.0079 33.0038 21.0089C33.0028 21.0099 33.0016 21.0107 33.0002 21.0112C32.9989 21.0118 32.9974 21.0121 32.996 21.0121L32.4966 21.0111C32.4944 21.0111 32.4923 21.0102 32.4907 21.0087C32.4892 21.0071 32.4883 21.005 32.4883 21.0028L32.4886 18.0155C32.4886 18.0137 32.4889 18.012 32.4896 18.0104C32.4903 18.0087 32.4913 18.0073 32.4925 18.006C32.4938 18.0048 32.4952 18.0038 32.4969 18.0031C32.4985 18.0024 32.5002 18.0021 32.502 18.0021L33.069 18.0018C33.0766 18.0018 33.0841 18.0042 33.0903 18.0086C33.0965 18.013 33.1012 18.0192 33.1037 18.0263C33.3278 18.6561 33.5477 19.2677 33.7332 19.8746C33.7391 19.8937 33.7454 19.8937 33.752 19.8746L34.3789 18.0215C34.381 18.0157 34.3848 18.0106 34.3899 18.007C34.395 18.0034 34.401 18.0014 34.4073 18.0015L34.9762 18.0021C34.9908 18.0021 34.9982 18.0095 34.9982 18.0244V21.0022C34.9982 21.0083 34.9952 21.0114 34.9893 21.0114L34.4803 21.0117C34.4771 21.0117 34.4741 21.0105 34.4718 21.0082C34.4695 21.006 34.4682 21.0029 34.4681 20.9996C34.4647 20.379 34.467 19.7576 34.4748 19.1355C34.4748 19.1333 34.4745 19.1332 34.4739 19.1351C34.3001 19.6419 34.1176 20.1681 33.9263 20.7137C33.9219 20.7267 33.9127 20.7331 33.8989 20.7329L33.5716 20.7319C33.5618 20.7319 33.5553 20.7273 33.5522 20.7182L33.0097 19.1555C32.9953 19.1137 32.9891 19.1148 32.9912 19.159Z" fill="white"/>
<path d="M21.4688 19.9173H20.9509C20.9427 19.9173 20.9348 19.9141 20.929 19.9083C20.9233 19.9025 20.92 19.8946 20.92 19.8864L20.9197 19.387C20.9197 19.3838 20.921 19.3807 20.9232 19.3784C20.9255 19.3762 20.9286 19.3749 20.9318 19.3749L22.0581 19.3746C22.0627 19.3746 22.0671 19.3764 22.0704 19.3797C22.0737 19.383 22.0756 19.3874 22.0757 19.3921L22.0773 20.5235C22.0773 20.5398 22.0715 20.5555 22.061 20.5678C22.0347 20.5984 22.0059 20.6258 21.9746 20.6501C21.5338 20.9917 20.9398 21.1275 20.4263 20.9006C19.7009 20.5803 19.561 19.604 19.7525 18.9309C19.8784 18.4879 20.1991 18.1175 20.6545 18.0324C21.3213 17.9075 21.9192 18.1618 22.0457 18.8818C22.0465 18.8858 22.0456 18.89 22.0433 18.8934C22.0411 18.8968 22.0376 18.8991 22.0336 18.9L21.4985 19.0147C21.4937 19.0158 21.4888 19.0149 21.4846 19.0124C21.4805 19.0098 21.4774 19.0058 21.4762 19.001C21.4128 18.7611 21.2813 18.6185 21.0816 18.573C20.8633 18.5236 20.6179 18.5918 20.469 18.7658C20.2319 19.0428 20.2335 19.5304 20.3046 19.8689C20.4359 20.4926 21.006 20.6156 21.4777 20.2469C21.483 20.2427 21.4873 20.2374 21.4902 20.2314C21.4931 20.2254 21.4946 20.2188 21.4946 20.2121L21.494 19.9422C21.494 19.9256 21.4856 19.9173 21.4688 19.9173Z" fill="white"/>
<path d="M30.7161 18.5058C30.7161 18.5028 30.7173 18.5 30.7193 18.4979C30.7214 18.4958 30.7243 18.4946 30.7272 18.4946L31.2015 18.4962C31.2578 18.4964 31.3135 18.5064 31.3655 18.5256C31.4174 18.5447 31.4646 18.5728 31.5043 18.608C31.544 18.6433 31.5754 18.6851 31.5968 18.731C31.6182 18.777 31.6291 18.8262 31.6289 18.8758L31.6282 18.974C31.6279 19.0742 31.5824 19.1702 31.5017 19.2407C31.4211 19.3113 31.312 19.3508 31.1983 19.3504L30.724 19.3488C30.7211 19.3488 30.7183 19.3476 30.7162 19.3455C30.7141 19.3434 30.7129 19.3406 30.7129 19.3376L30.7161 18.5058Z" fill="#010454"/>
<path d="M23.4004 18.5761C23.4004 18.5733 23.4015 18.5706 23.4035 18.5687C23.4054 18.5667 23.4081 18.5656 23.4109 18.5656L23.8587 18.5649C23.9076 18.5649 23.956 18.5742 24.0012 18.5924C24.0464 18.6106 24.0875 18.6373 24.1221 18.671C24.1568 18.7047 24.1842 18.7448 24.203 18.7888C24.2218 18.8329 24.2315 18.8802 24.2316 18.928V18.97C24.2318 19.0665 24.1927 19.159 24.123 19.2274C24.0533 19.2957 23.9587 19.3342 23.86 19.3343L23.4122 19.335C23.4094 19.335 23.4067 19.3339 23.4047 19.3319C23.4028 19.3299 23.4017 19.3272 23.4017 19.3244L23.4004 18.5761Z" fill="#010454"/>
<path d="M8.08938 19.7707L8.36602 18.8738C8.36668 18.8717 8.36798 18.8699 8.36972 18.8687C8.37147 18.8674 8.37358 18.8667 8.37575 18.8667C8.37791 18.8667 8.38002 18.8674 8.38177 18.8687C8.38352 18.8699 8.38481 18.8717 8.38547 18.8738L8.6653 19.7697C8.66574 19.7712 8.66583 19.7728 8.66556 19.7744C8.66529 19.7759 8.66467 19.7774 8.66374 19.7786C8.66282 19.7799 8.66162 19.7809 8.66023 19.7816C8.65884 19.7824 8.6573 19.7828 8.65574 19.7828L8.09926 19.7841C8.09763 19.7841 8.09602 19.7837 8.09456 19.783C8.0931 19.7823 8.09183 19.7812 8.09086 19.7799C8.08989 19.7786 8.08925 19.7771 8.089 19.7755C8.08874 19.7739 8.08887 19.7722 8.08938 19.7707Z" fill="#010454"/>
<path d="M28.3989 19.7712L28.6813 18.8718C28.6819 18.8699 28.6831 18.8682 28.6847 18.8671C28.6864 18.8659 28.6883 18.8652 28.6903 18.8652C28.6924 18.8652 28.6943 18.8659 28.696 18.8671C28.6976 18.8682 28.6988 18.8699 28.6994 18.8718L28.985 19.7703C28.9854 19.7717 28.9856 19.7732 28.9853 19.7747C28.9851 19.7761 28.9845 19.7775 28.9836 19.7787C28.9828 19.7799 28.9816 19.7809 28.9803 19.7816C28.979 19.7823 28.9776 19.7827 28.9761 19.7827L28.4081 19.7837C28.4066 19.7837 28.4051 19.7833 28.4038 19.7827C28.4024 19.782 28.4012 19.781 28.4003 19.7798C28.3994 19.7786 28.3988 19.7772 28.3986 19.7757C28.3983 19.7742 28.3984 19.7727 28.3989 19.7712Z" fill="#010454"/>
<circle cx="20" cy="20" r="19.5" stroke="black" stroke-opacity="0.05"/>
</svg>
