<svg width="40" height="40" viewBox="0 0 40 40" fill="none" xmlns="http://www.w3.org/2000/svg">
<circle cx="20" cy="20" r="20" fill="#F6F8FA"/>
<path d="M28.9703 13.0885C28.8927 13.2829 28.6917 13.4724 28.5415 13.592C28.2115 13.8539 27.8444 14.1012 27.4403 14.3337C26.7685 14.7206 26.0897 15.0745 25.4041 15.3952C23.6038 16.2376 21.7704 16.9866 19.9041 17.6422C19.8576 17.6585 19.7864 17.6886 19.7123 17.7145C19.0727 17.9373 18.4286 18.1527 17.7801 18.3607C16.9627 18.6227 16.0724 18.8806 15.1093 19.1347C14.312 19.345 13.5029 19.5255 12.6821 19.6764C12.4238 19.724 12.2119 19.7553 12.0463 19.7702C11.8833 19.7849 11.7143 19.7497 11.5395 19.6646C11.2883 19.5425 11.1236 19.3551 11.0454 19.1025C11.0147 19.0032 10.9996 18.8071 11 18.5142C11.0022 16.6096 11.0022 14.9064 11 13.4045C10.9996 13.0766 11.0158 12.8369 11.0486 12.6854C11.265 11.6895 12.1444 10.9997 13.1895 11C15.3647 11.001 19.77 11.001 26.4056 11C26.7561 11 26.9716 11.0035 27.0521 11.0104C27.6072 11.0592 28.1579 11.2818 28.5278 11.7034C28.794 12.0068 28.9472 12.3613 28.9875 12.767C28.9991 12.8848 29.0112 12.9858 28.9703 13.0885Z" fill="#A0BE46"/>
<path d="M28.919 25.1316C28.8152 25.508 28.4515 25.7863 28.0662 25.8394C27.9696 25.8527 27.7753 25.8368 27.4832 25.7915C25.0735 25.4187 22.5623 25.0908 19.9497 24.8078C17.4107 24.5327 14.9298 24.3112 12.5068 24.1432C12.1938 24.1215 11.8758 24.1403 11.596 23.9958C11.3122 23.8494 11.1285 23.6283 11.045 23.3327C11.0147 23.2257 11.0012 23.049 11.0044 22.8025C11.0081 22.5212 11.0081 22.2384 11.0044 21.954C11.0018 21.765 11.0152 21.6247 11.0447 21.5332C11.1239 21.2856 11.2758 21.1065 11.5002 20.9958C11.586 20.9534 11.7458 20.9129 11.9798 20.8742C12.4604 20.7945 12.983 20.6946 13.5477 20.5744C16.6881 19.9067 19.8344 19.0855 22.8579 18.0959C24.5216 17.5512 26.1989 16.9285 27.8122 16.2076C27.9258 16.1568 28.017 16.1244 28.0858 16.1107C28.3105 16.0654 28.5446 16.1325 28.7207 16.2718C28.906 16.4182 28.9987 16.631 28.9987 16.9102C29.0003 21.1934 29 23.7325 28.9978 24.5274C28.9972 24.7408 28.9709 24.9422 28.919 25.1316Z" fill="#2A569C"/>
<path d="M11.2784 28.7068C11.1033 28.5325 11.0133 28.3122 11.0084 28.0458C11.0082 28.0405 11.0077 27.591 11.0069 26.6973C11.0069 26.4454 11.001 26.2898 11.108 26.1018C11.2621 25.8313 11.5644 25.6885 11.8638 25.6781C12.123 25.6688 12.3719 25.6679 12.6104 25.6755C13.0381 25.6888 13.21 25.6856 13.6576 25.6877C13.7301 25.6881 14.1179 25.6986 14.8209 25.7193C17.7331 25.8049 20.7136 26.0147 23.5798 26.4126C24.7777 26.5788 25.9283 26.7894 27.0317 27.0446C27.5572 27.1662 29.0226 27.6192 28.9485 28.3342C28.9162 28.6447 28.6355 28.8792 28.3361 28.9457C28.1408 28.9889 27.9511 28.9993 27.7229 28.9996C22.8752 29 17.6575 29 12.0698 28.9996C11.7627 28.9993 11.4983 28.9256 11.2784 28.7068Z" fill="#1A2E56"/>
<circle cx="20" cy="20" r="19.5" stroke="black" stroke-opacity="0.05"/>
</svg>
