<svg width="40" height="40" viewBox="0 0 40 40" fill="none" xmlns="http://www.w3.org/2000/svg">
<circle cx="20" cy="20" r="20" fill="#F6F8FA"/>
<g clip-path="url(#clip0_25187_47238)">
<path d="M4.24945 18.2547C4.21547 18.2879 4.17628 18.3186 4.13708 18.3467C4.10833 18.3672 4.06652 18.3595 4.04822 18.3314C4.04038 18.3212 4.03777 18.3084 4.03777 18.2956C4.04822 16.7434 4.04822 15.1939 4.03516 13.6443C4.03516 13.4883 4.03777 13.34 4.04822 13.2019C4.05606 13.0894 4.11878 13.0306 4.23377 13.0229C4.39057 13.0127 4.54998 13.0076 4.70678 13.0101C6.37146 13.0203 7.95251 13.0178 9.4421 13.0024C9.46039 13.0024 9.47868 13.0127 9.48914 13.028C9.51004 13.0587 9.50482 13.0894 9.47084 13.1226C7.74083 14.8384 6.00037 16.5491 4.24945 18.2547Z" fill="#A2CB55"/>
<path d="M21.2559 14.8948L21.2638 23.952C21.2638 23.975 21.2455 23.9903 21.2246 23.9903L19.0451 23.9954C19.0215 23.9954 19.0059 23.9775 19.0059 23.9571V17.0172C19.0059 17.0069 19.0111 16.9967 19.0189 16.989L21.1932 14.8667C21.2089 14.8513 21.235 14.8513 21.2507 14.8667C21.2585 14.8743 21.2611 14.8846 21.2611 14.8948H21.2559Z" fill="#2F3C79"/>
<path d="M23.7423 20.078C23.724 20.0985 23.7266 20.1317 23.7501 20.1496C24.6047 20.7991 25.4227 21.487 26.2641 22.1544C26.907 22.6658 27.5865 23.2104 28.3078 23.7934C28.3626 23.8395 28.4306 23.8804 28.4959 23.9162C28.5273 23.9341 28.5247 23.9469 28.4933 23.9597C28.4332 23.9827 28.3705 23.9929 28.3025 23.9929C27.4088 23.9929 26.5098 23.9929 25.603 23.9929C25.5115 23.9929 25.4279 23.9648 25.3573 23.906C24.9392 23.5659 24.5315 23.2437 24.1238 22.8934C23.7737 22.5916 23.4287 22.3052 23.0864 22.0316C22.629 21.666 22.1821 21.2645 21.7248 20.8963C21.683 20.863 21.6778 20.8042 21.7118 20.7633C21.7118 20.7633 21.7144 20.7582 21.717 20.7582C22.3991 20.0703 23.0707 19.4362 23.7345 18.7713C24.2702 18.2344 24.8007 17.7741 25.3024 17.2473C25.4592 17.0837 25.6108 16.9303 25.7572 16.7922C25.8277 16.7257 25.9453 16.6976 26.0394 16.695C26.387 16.6848 26.7267 16.6822 27.0612 16.6899C27.1422 16.6899 27.1501 16.718 27.0926 16.7692C26.8652 16.966 26.6431 17.2269 26.4523 17.411C26.0577 17.7869 25.6552 18.1628 25.2737 18.554C24.9444 18.8915 24.5812 19.2444 24.1839 19.6126C24.0245 19.7584 23.8756 19.9118 23.7397 20.0729L23.7423 20.078Z" fill="#2F3C79"/>
<path d="M11.2616 19.2086C11.2276 19.2214 11.2041 19.2546 11.2041 19.2904L11.2093 26.9258C11.2093 26.9668 11.1753 27 11.1335 27H8.988C8.95664 27 8.94096 26.9872 8.94096 26.954C8.94096 25.3711 8.94096 23.7269 8.94096 22.0214C8.94096 21.7887 8.91222 21.4332 9.1056 21.2491C9.75632 20.6329 10.3783 20.0243 10.9689 19.4208C11.0473 19.3416 11.1466 19.2955 11.2198 19.2188C11.549 18.8736 11.8496 18.5642 12.124 18.2932C12.1893 18.2292 12.2677 18.196 12.3644 18.1934C13.2843 18.173 14.1075 18.1806 14.834 18.2113C15.9081 18.2574 17.233 18.7304 17.5936 19.8044C17.6825 20.0652 17.7295 20.4385 17.7374 20.9218C17.753 21.7478 17.6903 22.6939 16.99 23.236C16.1668 23.8727 15.2364 23.9852 14.2016 23.9954C13.4594 24.0031 12.7094 24.0005 11.9567 23.9878C11.9045 23.9878 11.8783 23.9596 11.8783 23.9085L11.8914 22.8882C11.8914 22.8473 11.9123 22.8294 11.9541 22.8294C12.5186 22.8268 13.1014 22.8268 13.6946 22.8294C14.1597 22.8294 14.5622 22.7962 14.9829 22.5379C15.6964 22.1032 15.6337 20.8656 15.4481 20.1624C15.26 19.4489 14.6275 19.206 13.9298 19.206C13.0857 19.206 12.2102 19.2009 11.306 19.2009C11.2877 19.2009 11.2694 19.2035 11.2537 19.2086H11.2616Z" fill="#2F3C79"/>
<path d="M30.599 21.7145C30.6487 22.2771 31.0329 22.722 31.6182 22.7987C31.8534 22.8294 32.1043 22.8447 32.3735 22.8473C33.4345 22.8524 34.4981 22.8498 35.5617 22.8473C35.7028 22.8473 35.8466 22.8498 35.9955 22.8575C36.0191 22.8575 36.0373 22.878 36.0373 22.901C36.0373 22.9112 36.0321 22.9189 36.0269 22.9266C35.7394 23.2513 35.4546 23.5658 35.1776 23.865C35.107 23.9392 35.0155 23.9775 34.9006 23.9775C33.6671 23.9852 32.5277 23.9826 31.4771 23.9775C30.9989 23.975 30.4814 23.8701 29.9248 23.6681C29.0781 23.3561 28.4927 22.7501 28.4039 21.8424C28.3307 21.111 28.3228 20.2109 28.6208 19.5563C28.7959 19.1702 29.18 18.8813 29.5511 18.6613C30.1809 18.288 30.9597 18.1857 31.7123 18.1857C32.8151 18.1857 33.9336 18.1857 35.0704 18.1857C35.1253 18.1857 35.1697 18.2292 35.1697 18.2829V19.1625C35.1671 19.1932 35.141 19.2162 35.1122 19.2162C34.0669 19.2137 33.0608 19.2162 32.0939 19.2162C31.843 19.2162 31.5895 19.2776 31.3334 19.4003C30.7349 19.6842 30.6095 20.2058 30.5834 20.8246C30.5703 21.1264 30.5755 21.4204 30.6017 21.7119L30.599 21.7145Z" fill="#2F3C79"/>
</g>
<circle cx="20" cy="20" r="19.5" stroke="black" stroke-opacity="0.05"/>
<defs>
<clipPath id="clip0_25187_47238">
<rect width="32" height="14" fill="white" transform="translate(4.03516 13)"/>
</clipPath>
</defs>
</svg>
