<svg width="40" height="40" viewBox="0 0 40 40" fill="none" xmlns="http://www.w3.org/2000/svg">
<circle cx="20" cy="20" r="20" fill="#D71820"/>
<g clip-path="url(#clip0_18005_40018)">
<path d="M13.8967 20.4024C13.8435 20.429 13.8435 20.4468 13.8967 20.4645C14.5177 20.6685 14.7306 21.0677 14.7306 21.6887C14.7306 22.8508 14.7217 23.9242 14.7306 24.9177C14.7306 25.3613 14.4023 25.7161 14.012 25.8847C13.8435 25.9556 13.6306 25.9911 13.3822 25.9911C11.8919 25.9911 10.4459 25.9911 9.06201 25.9911C9.02653 25.9911 9.00879 25.9734 9.00879 25.9379V15.0621C9.00879 15.0621 9.01766 15 9.05314 15C10.4725 15.0089 11.8919 15.0089 13.3378 15C13.9322 15 14.3846 15.1331 14.633 15.6653C14.704 15.825 14.7394 16.0202 14.7394 16.2419C14.7306 17.2798 14.7217 18.2556 14.7394 19.1782C14.7394 19.7726 14.4733 20.1806 13.9056 20.4024H13.8967ZM10.9338 16.579V19.6573C10.9338 19.6573 10.9515 19.6839 10.9693 19.6839H12.4507C12.6725 19.6839 12.8499 19.4976 12.8499 19.2758V16.9516C12.8499 16.7298 12.6725 16.5435 12.4507 16.5524H10.9693C10.9693 16.5524 10.9427 16.5702 10.9427 16.579H10.9338ZM10.9427 21.121V24.421C10.9427 24.421 10.9427 24.4476 10.9604 24.4476H12.433C12.6548 24.4476 12.841 24.2702 12.841 24.0573V21.4935C12.841 21.2718 12.6636 21.0944 12.4419 21.0944H10.9693C10.9693 21.0944 10.9427 21.1032 10.9427 21.121Z" fill="white"/>
<path d="M20.0181 18.9831L21.26 15.0533C21.26 15.0533 21.2866 15.0089 21.3133 15.0089H23.2205C23.2205 15.0089 23.256 15.0267 23.256 15.0444C23.256 15.0444 23.256 15.0444 23.256 15.0533L20.9762 21.4404C20.9407 21.5291 20.9318 21.6178 20.9318 21.7154V25.9468C20.9318 25.9468 20.9141 26 20.8786 26H19.1133C19.1133 26 19.06 25.9734 19.06 25.9468C19.06 24.5097 19.06 23.1613 19.06 21.8928C19.06 21.7154 19.0512 21.5291 18.9891 21.3605C18.2439 19.2226 17.5076 17.1202 16.7891 15.0533C16.7891 15.0355 16.7891 15.0178 16.8068 15.0089C16.8068 15.0089 16.8068 15.0089 16.8157 15.0089H18.6786C18.6786 15.0089 18.7141 15.0178 18.7229 15.0355L19.9826 18.9831C20.0004 19.0363 20.0181 19.0363 20.0358 18.9831H20.0181Z" fill="white"/>
<path d="M27.1858 24.0306C27.1858 24.2613 27.3721 24.4475 27.6028 24.4475C27.8955 24.4475 28.1705 24.4475 28.4366 24.4564C28.7382 24.4564 29.0487 24.3677 29.0487 24.0217C29.0487 23.1346 29.0487 22.1943 29.0487 21.2008C29.0487 21.1564 29.0665 21.1387 29.1108 21.1387H30.8229C30.8229 21.1387 30.885 21.1564 30.885 21.2008C30.885 22.3185 30.885 23.4274 30.885 24.5274C30.885 24.9 30.8318 25.1927 30.7342 25.3879C30.5124 25.8048 30.131 25.9911 29.6608 25.9822C28.6939 25.9733 27.656 25.9733 26.5648 25.9822C25.8463 25.9822 25.3584 25.4943 25.3584 24.7758C25.3584 21.9371 25.3584 19.0717 25.3584 16.1709C25.3584 15.4967 25.8463 14.9911 26.5294 14.9911C27.5761 14.9911 28.6318 14.9911 29.714 14.9911C30.5213 14.9911 30.8939 15.5766 30.8939 16.3129C30.8939 17.475 30.8939 18.5927 30.8939 19.6572C30.8939 19.6927 30.8673 19.7193 30.8407 19.7193H29.1019C29.1019 19.7193 29.0665 19.7016 29.0665 19.6838V17.0048C29.0665 16.7298 28.9245 16.5879 28.6495 16.5879H27.5495C27.3632 16.5879 27.2124 16.7387 27.2124 16.925V24.0129L27.1858 24.0306Z" fill="white"/>
</g>
<circle cx="20" cy="20" r="19.5" stroke="black" stroke-opacity="0.05"/>
<defs>
<clipPath id="clip0_18005_40018">
<rect width="21.8847" height="11" fill="white" transform="translate(9 15)"/>
</clipPath>
</defs>
</svg>
