<svg width="40" height="40" viewBox="0 0 40 40" fill="none" xmlns="http://www.w3.org/2000/svg">
<circle cx="20" cy="20" r="20" fill="#003E94"/>
<path d="M16.3223 18.0961H17.3441V16.0073L16.3223 16.5891V18.0961Z" fill="#E60013"/>
<path d="M14.2616 21.7656C14.2606 22.2471 14.0941 22.4182 13.6242 22.4182H12.3097C12.047 22.4182 11.9032 22.3887 11.8127 22.3146C11.7179 22.2373 11.6751 22.1008 11.6736 21.8714C11.6736 21.4236 11.8043 21.3076 12.3097 21.3076H14.2616V21.7656ZM13.8209 18.4986H11.8009C11.3148 18.4986 10.9192 18.8947 10.9192 19.3818V19.414H13.6242C14.0941 19.4149 14.2606 19.5855 14.2616 20.0668V20.3916H12.1127C11.266 20.393 10.6514 21.0114 10.6514 21.8634C10.6514 22.7152 11.266 23.3335 12.1127 23.3335H13.8209C14.6273 23.3335 15.2833 22.6775 15.2833 21.8714V19.9608C15.2833 19.1546 14.6273 18.4986 13.8209 18.4986Z" fill="white"/>
<path d="M27.4211 21.7656C27.4201 22.2471 27.2535 22.4182 26.7837 22.4182H25.4692C25.2065 22.4182 25.0627 22.3887 24.9722 22.3146C24.8775 22.2373 24.8346 22.1008 24.8331 21.8714C24.8331 21.4236 24.9639 21.3076 25.4692 21.3076H27.4211V21.7656ZM26.9805 18.4986H24.9605C24.4742 18.4986 24.0787 18.8947 24.0787 19.3818V19.414H26.7837C27.2535 19.4149 27.4201 19.5855 27.4211 20.0668V20.3916H25.2723C24.4255 20.393 23.811 21.0114 23.811 21.8634C23.811 22.7152 24.4255 23.3335 25.2723 23.3335H26.9805C27.7869 23.3335 28.443 22.6775 28.443 21.8714V19.9608C28.443 19.1546 27.7869 18.4986 26.9805 18.4986Z" fill="white"/>
<path d="M32.5377 18.4986H30.9438C30.1377 18.4986 29.4817 19.1546 29.4817 19.9609V23.298H30.5035V20.0667C30.5042 19.5849 30.6708 19.414 31.1408 19.414H32.3408C32.8109 19.414 32.9773 19.5849 32.9773 20.0667V23.298H34.0001V19.9609C34.0001 19.1546 33.344 18.4986 32.5377 18.4986Z" fill="white"/>
<path d="M21.4385 18.4986H19.4041V16.1247H18.3826V23.2985H19.4041V19.4138H21.2416C21.7115 19.4138 21.8779 19.5849 21.8792 20.0668V23.2979H22.901V19.9608C22.901 19.1546 22.2448 18.4986 21.4385 18.4986Z" fill="white"/>
<path d="M8.20904 16L7.18729 16.6178V18.4989H6.88194C6.39563 18.4989 6 18.8948 6 19.3818V19.414H7.18729V21.8722C7.18729 22.6781 7.84286 23.3335 8.64843 23.3335H9.90577V22.4185H8.84529C8.37549 22.4185 8.20904 22.2479 8.20904 21.7664V19.414H9.90577V18.4989H8.20904V16Z" fill="white"/>
<path d="M16.322 23.298H17.3438V18.2927L16.322 18.8743V23.298Z" fill="white"/>
<circle cx="20" cy="20" r="19.5" stroke="black" stroke-opacity="0.05"/>
</svg>
