<svg width="40" height="40" viewBox="0 0 40 40" fill="none" xmlns="http://www.w3.org/2000/svg">
<circle cx="20" cy="20" r="20" fill="#DB0025"/>
<path d="M31.8291 16.8467L22.978 23.0306C22.978 23.0306 22.9479 23.4191 22.8711 23.9546L31.9962 18.3142C32.0137 17.8195 31.9574 17.3248 31.8291 16.8467Z" fill="white"/>
<path d="M22.9552 22.1839L31.5172 15.5688C31.5172 15.5688 31.3194 14.8446 31.0153 14.2573L22.8418 21.1535C22.8418 21.1535 22.9623 21.9349 22.9552 22.1839Z" fill="white"/>
<path d="M22.5356 20.4628L30.3774 13.1536C30.0593 12.7361 29.719 12.3361 29.358 11.9551L22.0684 19.6508C22.0684 19.6508 22.3815 20.1155 22.5356 20.4628Z" fill="white"/>
<path d="M20.8867 18.5121C20.8867 18.5121 20.9294 18.5377 20.9946 18.5809L21.0363 18.609L21.0764 18.6371C21.1452 18.6873 21.227 18.747 21.3033 18.8153C21.3344 18.8424 21.365 18.871 21.3946 18.9001C21.4442 18.9482 21.4897 19.0002 21.5307 19.0557L28.3485 11.2024C28.2464 11.1134 28.1371 11.033 28.0218 10.962C27.9811 10.9359 27.9364 10.9088 27.8883 10.8812C27.8561 10.8626 27.8225 10.8436 27.7879 10.8245C27.7347 10.7959 27.678 10.7663 27.6172 10.7367C27.5364 10.6975 27.4491 10.6579 27.3552 10.6192L27.2825 10.5916C27.2099 10.5628 27.1332 10.5351 27.0526 10.5083L25.6362 12.3468L20.8867 18.5121Z" fill="white"/>
<path d="M20.1072 18.0994L25.9197 10.069C25.9197 10.069 25.3275 9.83458 24.4341 9.75879L19.415 17.8043C19.415 17.8043 19.7232 17.8419 20.1072 18.0994Z" fill="white"/>
<path d="M20.2402 27.0911L30.468 23.8057C30.8786 23.2656 31.1386 22.4922 31.1386 22.4922L21.368 26.41C21.0649 26.7022 20.2402 27.0911 20.2402 27.0911Z" fill="white"/>
<path d="M22.25 25.4601L31.6306 21.0981C31.7609 20.6394 31.8557 20.1714 31.9141 19.6982L22.6144 24.8151C22.4327 25.1238 22.25 25.4601 22.25 25.4601Z" fill="white"/>
<path d="M15.6238 29.9487L25.1961 28.9449C25.4811 28.8124 25.7504 28.6486 25.9992 28.4565L15.5596 29.7911C15.5781 29.8448 15.5996 29.8974 15.6238 29.9487Z" fill="white"/>
<path d="M15.8637 30.3662L22.7975 30.0585C23.0583 29.9983 23.3095 29.902 23.5438 29.7725L15.7588 30.2056C15.7929 30.2613 15.8281 30.315 15.8637 30.3662Z" fill="white"/>
<path d="M16.0898 28.6527L29.175 25.7151C29.3992 25.5156 29.5905 25.2818 29.7416 25.0225L16.785 28.3285C16.785 28.3285 16.3634 28.457 16.0898 28.6527Z" fill="white"/>
<path d="M15.5146 29.3571L27.4203 27.4775C27.4203 27.4775 27.6758 27.2707 28.123 26.8867L15.5503 29.1839C15.5318 29.2401 15.5199 29.2982 15.5146 29.3571Z" fill="white"/>
<path d="M16.3083 30.8959C16.3083 30.8959 11.074 30.6841 9.34193 26.3643C9.23581 26.0594 9.15917 25.7452 9.11306 25.4257C9.10854 25.3936 9.10403 25.361 9.10051 25.3283C9.09198 25.2561 9.08445 25.1823 9.07994 25.1075C9.06935 24.9571 9.06935 24.8062 9.07994 24.6558C9.08664 24.5609 9.09921 24.4665 9.11758 24.3732L8.00034 22.9819C8.00034 22.9819 7.89243 27.3209 11.5076 29.7727C11.5076 29.7727 13.5378 31.429 17.8607 31.2076C17.8607 31.2076 19.4553 31.0631 20.9841 30.6746H16.1056L16.3083 30.8959Z" fill="white"/>
<path d="M17.4863 21.046C17.7656 20.99 18.0396 20.9104 18.3054 20.8081L19.4704 18.9947C19.3824 18.7365 19.2673 18.4883 19.127 18.2544L17.4863 21.046Z" fill="white"/>
<path d="M16.7455 21.1625L18.5609 17.7892C18.4667 17.7138 18.362 17.6526 18.2502 17.6075C18.3726 17.5884 18.4972 17.5884 18.6196 17.6075L23.1041 9.52686H21.9412L16.1025 21.2137C16.2903 21.2046 16.5076 21.1901 16.7455 21.1625Z" fill="white"/>
<path d="M15.5498 21.2154L20.6265 9.73535C19.8194 9.85731 19.3843 9.96522 19.3843 9.96522L15.0479 21.2154H15.5498Z" fill="white"/>
<path d="M14.6341 21.2227L18.1745 10.3013C17.7912 10.4435 17.4196 10.6156 17.0633 10.8162L14.2988 21.2402C14.4077 21.2317 14.5197 21.2262 14.6341 21.2227Z" fill="white"/>
<path d="M13.8756 21.2734L16.0037 11.2554C15.7076 11.4072 15.4225 11.5797 15.1504 11.7713L13.6016 21.3045C13.6902 21.2951 13.7816 21.2847 13.8756 21.2734Z" fill="white"/>
<path d="M14.2237 12.3667C13.9426 12.5336 13.6777 12.7261 13.4322 12.9419L12.8193 21.4336C12.9154 21.4138 13.0157 21.3948 13.1205 21.3764L14.2237 12.3667Z" fill="white"/>
<path d="M12.4476 21.519L12.5675 13.605C12.5675 13.605 12.3351 13.7054 12.0225 14.0718L12.2036 21.5832C12.2806 21.5615 12.3619 21.5401 12.4476 21.519Z" fill="white"/>
<path d="M11.8474 21.6922L11.3515 14.6655C11.3515 14.6655 11.1739 14.8703 10.9385 15.1253L11.5854 21.786C11.6617 21.7574 11.7491 21.7258 11.8474 21.6922Z" fill="white"/>
<path d="M11.1669 21.968L10.3683 15.8979C10.2208 16.039 10.0917 16.1982 9.98438 16.3717L10.931 22.0829C11.0062 22.0434 11.0849 22.0051 11.1669 21.968Z" fill="white"/>
<path d="M10.5608 22.2987L9.39185 17.3013C9.39185 17.3013 9.23476 17.4559 9.09473 17.8418L10.3495 22.4493C10.4164 22.3981 10.4868 22.3479 10.5608 22.2987Z" fill="white"/>
<path d="M10.0598 22.6956L8.67504 18.7808C8.59511 18.9792 8.53198 19.1841 8.48633 19.3931L9.91123 22.8462C9.95791 22.796 10.0076 22.7458 10.0598 22.6956Z" fill="white"/>
<path d="M9.69483 23.1066L8.23931 20.313C8.23931 20.313 8.15148 20.4239 8.14746 20.6909L9.58491 23.2662C9.61804 23.213 9.65518 23.1598 9.69483 23.1066Z" fill="white"/>
<path d="M9.36766 23.6622L8.00098 21.5376V21.9727L9.29589 23.8343C9.31747 23.7771 9.34156 23.7199 9.36766 23.6622Z" fill="white"/>
<circle cx="20" cy="20" r="19.5" stroke="black" stroke-opacity="0.05"/>
</svg>
