<svg width="40" height="40" viewBox="0 0 40 40" fill="none" xmlns="http://www.w3.org/2000/svg">
<circle cx="20" cy="20" r="20" fill="#252C6D"/>
<circle cx="20" cy="20" r="19.5" stroke="black" stroke-opacity="0.05"/>
<g clip-path="url(#clip0_18005_40025)">
<path d="M19.995 9C16.516 9 13.4196 10.6215 11.4069 13.1449C11.5405 13.0629 11.668 12.9901 11.7955 12.9263C11.8167 12.9172 11.8349 12.905 11.8562 12.8959C11.9776 12.8382 12.093 12.7866 12.2083 12.7411C12.2296 12.732 12.2508 12.7259 12.2751 12.7168C12.3905 12.6743 12.5028 12.6409 12.609 12.6135C12.6212 12.6135 12.6303 12.6105 12.6424 12.6075C12.7456 12.5832 12.8458 12.568 12.943 12.5558C12.9581 12.5558 12.9733 12.5528 12.9885 12.5498C13.0644 12.5437 13.1373 12.5376 13.2071 12.5376C13.2283 12.5376 13.2465 12.5376 13.2678 12.5406C13.2951 12.5406 13.3224 12.5406 13.3467 12.5437C13.4226 12.5498 13.4924 12.5589 13.5623 12.571C13.5805 12.5741 13.5987 12.5771 13.6139 12.5801C13.6958 12.5983 13.7748 12.6226 13.8476 12.653C13.8689 12.6621 13.8871 12.6712 13.9053 12.6803C13.9599 12.7046 14.0146 12.735 14.0662 12.7654C14.0844 12.7775 14.1057 12.7896 14.1208 12.8018C14.1815 12.8443 14.2392 12.8899 14.2939 12.9415C14.303 12.9506 14.3121 12.9627 14.3212 12.9718C14.3637 13.0174 14.4032 13.0629 14.4366 13.1146C14.4487 13.1328 14.4639 13.154 14.476 13.1723C14.5094 13.2269 14.5398 13.2816 14.5641 13.3393C14.5701 13.3514 14.5762 13.3605 14.5823 13.3727C14.6096 13.4425 14.6339 13.5154 14.6491 13.5913C14.6551 13.6126 14.6582 13.6369 14.6612 13.6581C14.6733 13.7188 14.6794 13.7826 14.6855 13.8494C14.6855 13.8707 14.6885 13.8919 14.6885 13.9132C14.6885 13.9982 14.6885 14.0832 14.6794 14.1713C14.6794 14.1895 14.6733 14.2077 14.6703 14.2259C14.6612 14.2988 14.646 14.3747 14.6278 14.4537C14.6217 14.478 14.6157 14.5053 14.6066 14.5296C14.5792 14.6237 14.5489 14.7209 14.5064 14.8181C14.1573 15.6683 12.7001 16.2635 11.9321 17.0348C10.1501 18.8173 10.6267 22.118 12.4603 22.7496C14.1542 23.3266 12.5544 20.2566 14.1542 18.9235C15.8482 17.6239 20.2196 19.8952 16.7164 22.8559C15.8937 23.4632 15.7753 23.6606 15.238 24.1981C12.3692 27.0616 17.02 30.3137 20.4261 29.8977C23.4436 29.5303 24.2693 27.5505 24.6913 24.7295C25.0677 22.1575 24.5547 21.2587 24.9584 19.3912C26.2365 15.8536 30.3772 18.8658 30.9631 20.5845C30.9753 20.3902 30.9935 20.1959 30.9935 19.9954C30.9995 13.9284 26.0725 9 19.995 9ZM27.3536 16.1542C26.8497 16.8617 25.5838 16.807 24.5334 16.0509C23.4831 15.2918 23.0368 14.0984 23.5468 13.397C23.7866 13.066 24.1965 12.902 24.6731 12.902C25.2013 12.902 25.8175 13.1085 26.37 13.5093C27.4234 14.2654 27.8667 15.4527 27.3567 16.1572L27.3536 16.1542Z" fill="url(#paint0_radial_18005_40025)"/>
<path d="M24.965 19.3972C24.5612 21.2677 25.0742 22.1635 24.6978 24.7355C24.2789 27.5565 23.4501 29.5394 20.4326 29.9038C17.0265 30.3198 12.3757 27.0676 15.2445 24.2041C15.7818 23.6666 15.9002 23.4693 16.7229 22.8619C20.2262 19.9013 15.8577 17.6299 14.1608 18.9296C12.5609 20.2626 14.1608 23.3326 12.4668 22.7557C10.6332 22.1241 10.1566 18.8233 11.9386 17.0408C12.7066 16.2695 14.1638 15.6744 14.5129 14.8241C14.5524 14.727 14.5858 14.6298 14.6131 14.5356C14.6192 14.5083 14.6252 14.484 14.6343 14.4597C14.6525 14.3838 14.6677 14.3079 14.6768 14.232C14.6768 14.2138 14.6829 14.1956 14.6859 14.1773C14.695 14.0893 14.6981 14.0012 14.695 13.9192C14.695 13.898 14.692 13.8767 14.692 13.8555C14.689 13.7917 14.6799 13.7279 14.6677 13.6642C14.6647 13.6429 14.6586 13.6186 14.6556 13.5973C14.6374 13.5214 14.6161 13.4486 14.5888 13.3787C14.5827 13.3666 14.5767 13.3544 14.5706 13.3453C14.5433 13.2876 14.5159 13.2299 14.4825 13.1783C14.4704 13.157 14.4583 13.1388 14.4431 13.1206C14.4067 13.069 14.3702 13.0234 14.3277 12.9779C14.3186 12.9688 14.3095 12.9566 14.3004 12.9475C14.2488 12.8959 14.1911 12.8503 14.1274 12.8078C14.1091 12.7957 14.0909 12.7835 14.0727 12.7714C14.0211 12.741 13.9695 12.7107 13.9118 12.6864C13.8936 12.6773 13.8754 12.6682 13.8541 12.659C13.7813 12.6287 13.7024 12.6044 13.6204 12.5862C13.6022 12.5831 13.584 12.5801 13.5688 12.5771C13.499 12.5649 13.4261 12.5558 13.3532 12.5497C13.3259 12.5497 13.3016 12.5467 13.2743 12.5467C13.1863 12.5467 13.0922 12.5467 12.9981 12.5558C12.9829 12.5558 12.9677 12.5588 12.9525 12.5619C12.8554 12.574 12.7552 12.5892 12.652 12.6135C12.6399 12.6135 12.6307 12.6165 12.6186 12.6196C12.5093 12.6469 12.397 12.6803 12.2847 12.7228C12.2634 12.7319 12.2422 12.738 12.2179 12.7471C12.1025 12.7896 11.9872 12.8412 11.8657 12.902C11.8445 12.9111 11.8263 12.9232 11.805 12.9323C11.6775 12.9961 11.55 13.069 11.4164 13.151C9.90465 15.0215 9 17.4052 9 19.9985C9 26.0746 13.9209 31 19.9954 31C26.07 31 30.66 26.3874 30.9666 20.5875C30.3807 18.8688 26.243 15.8596 24.9619 19.3942L24.965 19.3972Z" fill="url(#paint1_radial_18005_40025)"/>
<path d="M26.3671 13.5063C25.8177 13.1055 25.2014 12.899 24.6701 12.899C24.1935 12.899 23.7837 13.063 23.5439 13.3939C23.0369 14.0984 23.4801 15.2918 24.5305 16.0479C25.5809 16.804 26.8468 16.8587 27.3507 16.1512C27.8607 15.4467 27.4175 14.2594 26.3641 13.5033L26.3671 13.5063Z" fill="url(#paint2_radial_18005_40025)"/>
<path d="M26.3671 13.5063C25.8177 13.1055 25.2014 12.899 24.6701 12.899C24.1935 12.899 23.7837 13.063 23.5439 13.3939C23.0369 14.0984 23.4801 15.2918 24.5305 16.0479C25.5809 16.804 26.8468 16.8587 27.3507 16.1512C27.8607 15.4467 27.4175 14.2594 26.3641 13.5033L26.3671 13.5063Z" fill="url(#paint3_radial_18005_40025)"/>
<path d="M13.2078 12.5376C13.138 12.5376 13.0652 12.5406 12.9893 12.5497C13.0864 12.5406 13.1775 12.5376 13.2655 12.5406C13.2443 12.5406 13.226 12.5376 13.2048 12.5376H13.2078Z" fill="url(#paint4_radial_18005_40025)"/>
<path d="M13.2078 12.5376C13.138 12.5376 13.0652 12.5406 12.9893 12.5497C13.0864 12.5406 13.1775 12.5376 13.2655 12.5406C13.2443 12.5406 13.226 12.5376 13.2048 12.5376H13.2078Z" fill="url(#paint5_radial_18005_40025)"/>
</g>
<defs>
<radialGradient id="paint0_radial_18005_40025" cx="0" cy="0" r="1" gradientUnits="userSpaceOnUse" gradientTransform="translate(22.566 14.8341) scale(14.5959 14.9241)">
<stop stop-color="#007DC5"/>
<stop offset="1" stop-color="#20265B"/>
</radialGradient>
<radialGradient id="paint1_radial_18005_40025" cx="0" cy="0" r="1" gradientUnits="userSpaceOnUse" gradientTransform="translate(23.8161 14.0085) scale(14.1552 14.1591)">
<stop stop-color="#E6E7E8"/>
<stop offset="1" stop-color="#8A9298"/>
</radialGradient>
<radialGradient id="paint2_radial_18005_40025" cx="0" cy="0" r="1" gradientUnits="userSpaceOnUse" gradientTransform="translate(409.101 -2114.63) scale(14.5959 14.9241)">
<stop stop-color="#007DC5"/>
<stop offset="1" stop-color="#20265B"/>
</radialGradient>
<radialGradient id="paint3_radial_18005_40025" cx="0" cy="0" r="1" gradientUnits="userSpaceOnUse" gradientTransform="translate(23.8158 14.0086) scale(14.1552 14.1591)">
<stop stop-color="#E6E7E8"/>
<stop offset="1" stop-color="#8A9298"/>
</radialGradient>
<radialGradient id="paint4_radial_18005_40025" cx="0" cy="0" r="1" gradientUnits="userSpaceOnUse" gradientTransform="translate(22.5668 14.8341) scale(14.5959 14.9241)">
<stop stop-color="#007DC5"/>
<stop offset="1" stop-color="#20265B"/>
</radialGradient>
<radialGradient id="paint5_radial_18005_40025" cx="0" cy="0" r="1" gradientUnits="userSpaceOnUse" gradientTransform="translate(23.8164 14.0085) scale(14.1552 14.1591)">
<stop stop-color="#E6E7E8"/>
<stop offset="1" stop-color="#8A9298"/>
</radialGradient>
<clipPath id="clip0_18005_40025">
<rect width="22" height="22" fill="white" transform="translate(9 9)"/>
</clipPath>
</defs>
</svg>
