<svg width="40" height="40" viewBox="0 0 40 40" fill="none" xmlns="http://www.w3.org/2000/svg">
<circle cx="20" cy="20" r="20" fill="#F6F8FA"/>
<g clip-path="url(#clip0_14382_18744)">
<path d="M29.1365 28.3716C29.1365 28.3716 25.9035 30.6598 20.827 28.2866C15.7505 25.9134 17.143 20.5688 17.143 20.5688C17.143 20.5688 17.715 17.2509 21.3369 15.1032C24.9588 12.9556 26.4364 16.1035 26.6815 16.6167C26.9267 17.1299 27.4268 20.1798 24.8117 20.7322C22.1967 21.2847 20.9839 18.7709 20.8597 18.1531C20.7355 17.5353 20.7583 17.1495 20.3694 17.1071C19.9804 17.0646 19.4279 18.9703 19.5293 19.9738C19.6306 20.9774 19.9608 22.6151 22.1444 23.5957C24.328 24.5764 26.9365 23.8409 27.9597 23.2885C30.0002 22.0071 31.4532 19.9727 32.0032 17.6268C32.0032 17.6268 30.6303 12.3182 26.9071 9.9842C25.2479 8.81969 23.3008 8.13332 21.2781 8L19.2906 15.9401C19.2906 15.9401 17.1005 18.0093 16.6102 20.4446C16.3238 21.9702 16.4227 23.5432 16.8978 25.021L16.2604 27.6361H11.4911L16.3421 8.49687C16.3421 8.49687 11.3277 10.2588 9.3827 14.4527C7.43773 18.6467 7.64367 22.2751 9.3827 25.8774C11.1217 29.4797 15.5249 31.5881 17.0188 31.8725C18.5126 32.1569 24.6548 33.1441 29.1365 28.3716Z" fill="#006BB7"/>
</g>
<circle cx="20" cy="20" r="19.5" stroke="black" stroke-opacity="0.05"/>
<defs>
<clipPath id="clip0_14382_18744">
<rect width="24" height="24.1634" fill="white" transform="translate(8 8)"/>
</clipPath>
</defs>
</svg>
