<svg width="40" height="40" viewBox="0 0 40 40" fill="none" xmlns="http://www.w3.org/2000/svg">
<circle cx="20" cy="20" r="20" fill="#F6F8FA"/>
<path d="M9.05466 17.0981L7.93058 18.4642H8.87215L8.03636 20.2812H6.4358L5.31152 21.6473H8.99814L11.0903 17.0981H9.05466Z" fill="black"/>
<path d="M6.65488 20.0438L7.77857 18.6777H4.09254L2 23.2263H4.03563L5.1599 21.8606H4.21853L5.05393 20.0438H6.65488Z" fill="black"/>
<path d="M12.0986 22.2164H12.8938V20.7856H14.4247V20.1103H12.8938V19.3602H14.5864V18.6836H12.0986V22.2164Z" fill="black"/>
<path d="M15.6123 22.2164H18.1438V21.5391H16.4075V20.7856H18.0063V20.1103H16.4075V19.3602H18.1438V18.6836H15.6123V22.2164Z" fill="black"/>
<path d="M20.873 20.1376L20.522 20.054C20.1395 19.9684 19.9619 19.8485 19.9631 19.678C19.9631 19.4617 20.2037 19.3167 20.5614 19.3167C20.9162 19.3167 21.1539 19.4582 21.1804 19.6858L21.1929 19.7947H21.9602L21.9563 19.668C21.9402 19.0614 21.3713 18.6377 20.5732 18.6377C19.7458 18.6377 19.1683 19.0773 19.1683 19.7064C19.1683 20.1996 19.5068 20.5234 20.2027 20.6967L20.6271 20.8013C21.0552 20.9035 21.2151 21.006 21.2163 21.1773C21.2147 21.4181 20.938 21.5859 20.5432 21.5859C20.2341 21.5859 19.8942 21.4769 19.8671 21.1724L19.8581 21.0589H19.0625L19.0715 21.1896C19.1106 21.8561 19.6752 22.2705 20.5455 22.2705C21.4329 22.2705 22.0061 21.8431 22.0061 21.1824C22.0061 20.6566 21.6248 20.3052 20.873 20.1376Z" fill="black"/>
<path d="M24.4991 19.3409C24.9206 19.3409 25.2391 19.5615 25.3106 19.9018L25.3302 20.0007H26.1321L26.1065 19.8559C25.9766 19.1162 25.3436 18.6382 24.4942 18.6382C23.4504 18.6382 22.749 19.3664 22.749 20.4499C22.749 21.5334 23.4502 22.2616 24.4942 22.2616C25.331 22.2616 25.9788 21.7767 26.1065 21.0561L26.1321 20.9105H25.3318L25.3112 21.0066C25.2342 21.3416 24.9163 21.5587 24.4993 21.5587C23.8988 21.5587 23.5407 21.1444 23.5407 20.4499C23.5407 19.7554 23.8988 19.3409 24.4991 19.3409Z" fill="black"/>
<path d="M28.9132 18.6836H28.1084L26.7148 22.2164H27.5626L27.8919 21.3482H29.1267L29.456 22.2164H30.3055L28.9434 18.7623L28.9132 18.6836ZM28.8743 20.6829H28.1439L28.5093 19.7186L28.8743 20.6829Z" fill="black"/>
<path d="M33.7128 19.8369C33.7128 19.1147 33.1996 18.6836 32.3407 18.6836H30.9277V22.2164H31.7231V20.9757H32.3001L33.0326 22.2164H33.9452L33.1107 20.8262C33.4999 20.6407 33.7128 20.2934 33.7128 19.8369ZM32.9143 19.8369C32.9143 20.0524 32.8427 20.2989 32.2844 20.2989H31.7229V19.3587H32.2818C32.8423 19.3587 32.9143 19.614 32.9143 19.8369Z" fill="black"/>
<path d="M36.2515 18.6382C35.2051 18.6382 34.502 19.3664 34.502 20.4499C34.502 21.5334 35.2051 22.2616 36.2515 22.2616C37.2976 22.2616 38.0004 21.5334 38.0004 20.4499C38.0004 19.3666 37.2976 18.6382 36.2515 18.6382ZM37.2091 20.4499C37.2091 21.1444 36.8512 21.5587 36.2515 21.5587C35.6519 21.5587 35.294 21.1444 35.294 20.4499C35.294 19.7554 35.6519 19.3409 36.2515 19.3409C36.8512 19.3409 37.2091 19.7554 37.2091 20.4499Z" fill="black"/>
<circle cx="20" cy="20" r="19.5" stroke="black" stroke-opacity="0.05"/>
</svg>
