<svg width="40" height="40" viewBox="0 0 40 40" fill="none" xmlns="http://www.w3.org/2000/svg">
<circle cx="20" cy="20" r="20" fill="#1D4929"/>
<g clip-path="url(#clip0_42019_78955)">
<path d="M19.9962 11C20.2234 11 20.4505 11 20.6701 11C20.7231 11 20.7761 11.0385 20.7989 11.0925L28 28.9326C28 28.9326 28 28.9865 27.9773 28.9942H27.9621C26.9702 29.0019 25.9252 29.0019 24.8197 28.9942C24.6682 28.9942 24.6455 28.9326 24.5925 28.8016C24.3881 28.2467 23.9262 26.9752 23.2068 24.9946C23.1917 24.9561 23.1462 24.933 23.1084 24.9484C23.1084 24.9484 23.1008 24.9484 23.0932 24.9561C22.3663 25.4416 21.5712 25.7422 20.7156 25.8423C20.4278 25.8732 20.1931 25.8963 20.0038 25.8963C19.8145 25.8963 19.5797 25.8809 19.292 25.8423C18.4288 25.7422 17.6413 25.4493 16.9143 24.9561C16.8765 24.933 16.831 24.9407 16.8083 24.9792C16.8083 24.9792 16.8083 24.9869 16.8008 24.9946C16.0814 26.9752 15.6195 28.239 15.415 28.8016C15.3696 28.9326 15.3393 28.9942 15.1879 28.9942C14.0823 28.9942 13.0374 28.9942 12.0454 28.9942C12.0151 28.9942 12 28.9711 12 28.948V28.9326L19.186 11.0925C19.2087 11.0385 19.2617 11 19.3147 11C19.5419 11 19.769 11 19.9886 11H19.9962ZM19.9962 23.1991C20.7989 23.1991 21.4879 22.9062 22.0937 22.336C22.1088 22.3206 22.1164 22.3051 22.124 22.2897C22.1467 22.2204 22.1391 22.151 22.1088 22.0663C21.4122 20.3092 20.7231 18.583 20.0492 16.8876C20.0341 16.8414 20.0114 16.826 19.9962 16.826C19.9735 16.826 19.9584 16.8491 19.9356 16.8876C19.2617 18.5907 18.5802 20.3092 17.876 22.0663C17.8381 22.151 17.8381 22.2281 17.8609 22.2974C17.8609 22.3129 17.876 22.336 17.8911 22.3437C18.4969 22.9139 19.186 23.2068 19.9886 23.2145L19.9962 23.1991Z" fill="white"/>
</g>
<circle cx="20" cy="20" r="19.5" stroke="black" stroke-opacity="0.05"/>
<defs>
<clipPath id="clip0_42019_78955">
<rect width="16" height="18" fill="white" transform="translate(12 11)"/>
</clipPath>
</defs>
</svg>
