<svg width="40" height="40" viewBox="0 0 40 40" fill="none" xmlns="http://www.w3.org/2000/svg">
<circle cx="20" cy="20" r="20" fill="#F6F8FA"/>
<g clip-path="url(#clip0_40023_77800)">
<path style="mix-blend-mode:multiply" fill-rule="evenodd" clip-rule="evenodd" d="M29.6211 18.4156C30.4447 20.6909 27.5035 20.9268 25.1674 23.5897C27.285 21.1291 29.7556 20.5729 28.9489 18.4998C28.4783 17.3369 26.8312 16.1234 24.7136 15.6178C22.6127 15.0953 20.0581 15.2807 18.1758 16.3931C17.8228 16.6122 17.5035 16.8313 17.2178 17.101C17.6211 16.6291 18.1253 16.2414 18.7136 15.9043C20.6632 14.8257 23.2514 14.6909 25.3858 15.3144C27.5203 15.8875 29.1842 17.2189 29.6379 18.4156H29.6211Z" fill="url(#paint0_linear_40023_77800)"/>
<path style="mix-blend-mode:multiply" fill-rule="evenodd" clip-rule="evenodd" d="M27.0337 21.2474C26.1934 22.2081 25.0505 23.3541 24.0253 24.8878C22.9833 26.371 22.0589 28.2418 21.1345 29.6406C21.9917 28.2081 22.8656 26.4384 23.8068 25.0058C24.7312 23.5227 25.7564 22.3597 26.4959 21.3654C27.353 20.2193 27.5715 19.1744 26.7648 18.1126C25.9917 17.0845 24.1934 16.0732 21.8236 15.8541C21.3866 15.8036 20.9497 15.7867 20.5127 15.7867C21.2018 15.7193 21.9077 15.7362 22.6135 15.8204C24.9665 16.0564 26.7312 17.135 27.4707 18.1631C28.2438 19.2249 27.9749 20.2362 27.0505 21.2642L27.0337 21.2474Z" fill="url(#paint1_linear_40023_77800)"/>
<path style="mix-blend-mode:multiply" fill-rule="evenodd" clip-rule="evenodd" d="M21.9243 27.6013C20.8991 29.4553 20.0252 31.107 19.0336 31.68C18.042 32.2867 16.9327 31.8148 15.7227 29.9777C16.8823 31.4946 17.958 31.8148 18.9159 31.2081C19.8907 30.6182 20.7479 29.1182 21.7227 27.3991C22.8487 25.3092 24.0252 23.5227 24.9327 22.1069C25.8235 20.6575 26.4453 19.562 25.9411 18.2643C25.8403 18.0283 25.7227 17.7923 25.5546 17.5732C25.8571 17.9103 26.0924 18.2643 26.2269 18.635C26.6806 19.8991 26.0252 20.9272 25.1176 22.3429C24.1932 23.7249 23.0168 25.4946 21.9243 27.6182V27.6013Z" fill="url(#paint2_linear_40023_77800)"/>
<path style="mix-blend-mode:multiply" fill-rule="evenodd" clip-rule="evenodd" d="M18.3944 30.1968C17.2011 30.7193 15.907 29.8429 14.6465 27.8878C13.4028 25.9833 12.1759 23.017 11.6045 20.3541C12.2936 22.899 13.47 25.5788 14.6801 27.2811C15.907 29.017 17.1339 29.8092 18.3104 29.3878C19.7053 28.9159 20.8314 27.0957 22.0415 25.3597C23.2179 23.5732 24.4616 21.871 25.3692 20.4552C25.5373 20.1856 25.6885 19.9159 25.8062 19.6631C25.6717 20.0676 25.4532 20.4721 25.2011 20.9271C24.3104 22.3766 23.1003 24.1125 21.9742 25.9665C20.8146 27.7698 19.7389 29.6575 18.4112 30.1968H18.3944Z" fill="url(#paint3_linear_40023_77800)"/>
<path style="mix-blend-mode:multiply" fill-rule="evenodd" clip-rule="evenodd" d="M19.3355 12.1122C21.5708 11.7077 24.1591 12.0954 26.2431 13.0392C28.3439 13.9661 29.9238 15.4324 30.4952 16.6965C29.7893 15.4998 28.2095 14.1852 26.2431 13.41C24.2767 12.601 21.907 12.3145 19.8566 12.7527C17.4028 13.2751 15.9238 14.6572 15.5036 16.7133C15.0498 18.7358 15.6381 21.4324 16.7305 23.5729C16.9322 23.9774 17.1507 24.3313 17.3692 24.6515C16.9826 24.1965 16.6129 23.6234 16.2767 22.9661C15.1339 20.7246 14.512 17.9774 14.949 15.9718C15.3692 13.9156 16.8481 12.5841 19.3355 12.1291V12.1122Z" fill="url(#paint4_linear_40023_77800)"/>
<path style="mix-blend-mode:multiply" fill-rule="evenodd" clip-rule="evenodd" d="M26.6467 14.3875C28.798 15.2302 30.1929 16.6965 30.6635 17.792C31.1677 18.9381 30.7307 19.7133 29.7559 20.2527C30.5459 19.7133 30.798 18.9044 30.2433 17.8594C29.7223 16.8482 28.3946 15.5841 26.4282 14.8594C24.1257 13.983 21.4366 13.9999 19.487 14.8257C17.5038 15.6516 16.2097 17.2864 16.0417 19.6965C16.008 20.1347 16.008 20.5898 16.0417 21.0448C15.9408 20.3201 15.9072 19.5954 15.9744 18.8875C16.1593 16.5111 17.487 14.9268 19.5375 14.1516C21.5543 13.3763 24.2938 13.4268 26.6467 14.4044V14.3875Z" fill="url(#paint5_linear_40023_77800)"/>
<path style="mix-blend-mode:multiply" fill-rule="evenodd" clip-rule="evenodd" d="M29.5544 17.6403C30.3947 18.8538 30.1595 19.6796 29.42 20.3201C28.6805 20.9942 27.42 21.483 26.1763 22.5785C27.2855 21.5504 28.3611 21.0111 28.9662 20.3201C29.5712 19.6459 29.7057 18.8369 28.9158 17.7583C28.025 16.5111 25.9914 15.4493 23.7393 15.1965C21.504 14.9268 19.0502 15.4324 17.4704 16.8482C17.1679 17.1178 16.9158 17.4043 16.6973 17.7246C16.9998 17.1852 17.3863 16.6965 17.8905 16.2751C19.5208 14.91 22.0418 14.4381 24.3107 14.8088C26.5964 15.1459 28.6637 16.3257 29.5544 17.6403Z" fill="url(#paint6_linear_40023_77800)"/>
<path style="mix-blend-mode:multiply" fill-rule="evenodd" clip-rule="evenodd" d="M27.8062 20.6238C27.1507 21.5171 26.0079 22.3935 24.9658 23.725C23.8902 25.0227 22.8818 26.7755 21.9238 28.3766C22.7978 26.7924 23.7389 25.1407 24.6969 23.8766C25.6549 22.562 26.6297 21.6351 27.2011 20.725C27.8734 19.6969 27.7053 18.5677 26.5457 17.5733C25.4196 16.5957 23.3188 15.7699 20.9154 15.8542C20.4616 15.8542 20.0247 15.9047 19.6045 15.9553C20.26 15.8036 20.9658 15.7193 21.6885 15.7193C24.1087 15.6519 26.1927 16.562 27.2852 17.5564C28.4112 18.5845 28.5289 19.7137 27.7894 20.6407L27.8062 20.6238Z" fill="url(#paint7_linear_40023_77800)"/>
<path style="mix-blend-mode:multiply" fill-rule="evenodd" clip-rule="evenodd" d="M22.7144 26.4216C20.664 30.1631 19.1514 33.7193 16.748 31.1238C19.017 33.0957 20.5464 29.826 22.4791 26.3373C24.664 22.1238 27.4203 20.2362 25.7396 17.7418C25.5716 17.5227 25.3867 17.3036 25.1514 17.0845C25.5716 17.3878 25.9077 17.7249 26.143 18.0789C27.706 20.5058 24.8657 22.1912 22.7144 26.4047V26.4216Z" fill="url(#paint8_linear_40023_77800)"/>
<path style="mix-blend-mode:multiply" fill-rule="evenodd" clip-rule="evenodd" d="M19.2177 30.0954C18.0917 31.0898 16.9152 30.9213 15.6547 29.4887C14.4278 28.1067 13.1169 25.4606 12.2598 22.6628C13.1673 25.2752 14.4278 27.6179 15.6211 28.8482C16.8312 30.1123 17.9741 30.264 19.0833 29.4044C20.3942 28.3932 21.5035 26.3539 22.6799 24.6179C23.8228 22.8145 25.0161 21.2977 25.6883 19.9157C25.806 19.6628 25.9068 19.3932 25.9741 19.1572C25.9236 19.5449 25.7892 19.9494 25.6043 20.3707C24.932 21.7527 23.7724 23.3033 22.6631 25.1404C21.5203 26.9269 20.4614 29.0168 19.2177 30.1123V30.0954Z" fill="url(#paint9_linear_40023_77800)"/>
<path style="mix-blend-mode:multiply" fill-rule="evenodd" clip-rule="evenodd" d="M14.68 26.2359C13.2682 24.2977 12.0245 21.2977 11.4363 18.7697C10.8312 16.2079 10.8985 14.1011 12.0245 13.0225C11.1506 14.2359 11.201 16.2921 11.806 18.6854C12.4111 21.0449 13.5707 23.7247 14.8816 25.4944C16.4615 27.6517 17.9069 28.0056 19.2514 27.264C20.6127 26.5562 21.8732 24.7528 23.3018 23.0843C23.5707 22.764 23.8228 22.4607 24.0749 22.1573C23.7052 22.6292 23.3186 23.1517 22.8985 23.691C21.5371 25.4607 20.327 27.3146 18.9993 28.0393C17.6884 28.7977 16.2598 28.427 14.68 26.2191V26.2359Z" fill="url(#paint10_linear_40023_77800)"/>
<path style="mix-blend-mode:multiply" fill-rule="evenodd" clip-rule="evenodd" d="M12.5965 17.9608C12.025 15.3316 12.2939 13.4103 13.4704 12.3148C14.6301 11.1855 16.6973 10.8653 19.1511 11.0507C16.9326 11.0339 15.1007 11.5058 14.0754 12.6518C13.0334 13.7979 12.7813 15.6181 13.2687 18.0114C13.857 20.7754 15.2183 23.5226 16.5965 24.8878C18.0082 26.3204 19.4368 26.3709 20.9158 25.3429C21.2015 25.1575 21.4704 24.9384 21.7393 24.7024C21.3191 25.1069 20.8822 25.4945 20.4284 25.7979C18.9494 26.8429 17.5208 26.708 16.0586 25.1743C14.6469 23.708 13.2183 20.826 12.5796 17.9608H12.5965Z" fill="url(#paint11_linear_40023_77800)"/>
<path style="mix-blend-mode:multiply" fill-rule="evenodd" clip-rule="evenodd" d="M17.6211 12.163C19.5875 11.472 22.1421 11.5394 24.411 12.2304C26.6967 12.9046 28.6799 14.2024 29.6883 15.5675C27.5203 12.972 21.974 11.3035 18.2766 12.7866C16.0917 13.6125 15.1001 15.3484 15.0497 17.6068C14.9992 19.8316 15.89 22.5619 17.1337 24.3653C17.369 24.7024 17.6043 24.9889 17.8396 25.2248C17.4362 24.8877 17.0161 24.4495 16.6295 23.8765C15.3354 21.972 14.3774 19.1574 14.411 16.9158C14.411 14.6237 15.4026 12.9383 17.6043 12.163H17.6211Z" fill="url(#paint12_linear_40023_77800)"/>
<path style="mix-blend-mode:multiply" fill-rule="evenodd" clip-rule="evenodd" d="M25.2683 13.646C27.6213 14.2359 29.4196 15.6011 30.2935 16.7977C31.2011 18.028 31.1675 19.0898 30.428 19.6966C30.9658 19.073 30.8481 18.0449 29.9406 16.9325C29.0498 15.837 27.3692 14.6741 25.2179 14.1685C22.6969 13.5786 20.1086 13.8988 18.4112 15.028C16.6801 16.1572 15.8397 18.0786 16.0246 20.6067C16.0582 21.0786 16.1086 21.5336 16.2095 21.9887C16.0246 21.2808 15.8902 20.5224 15.8397 19.7808C15.6549 17.2527 16.5288 15.382 18.3103 14.3033C20.0414 13.2247 22.6801 12.9719 25.2683 13.6292V13.646Z" fill="url(#paint13_linear_40023_77800)"/>
<path style="mix-blend-mode:multiply" fill-rule="evenodd" clip-rule="evenodd" d="M29.2355 16.8653C30.4456 18.1125 30.58 19.1406 30.059 19.8485C29.5548 20.59 28.3951 20.9608 27.1178 21.8541C28.2271 21.0282 29.2019 20.5732 29.5716 19.8316C29.9582 19.1237 29.7733 18.1631 28.6472 17.0844C26.059 14.4384 19.4204 13.9496 16.933 17.4046C16.6977 17.7249 16.496 18.0619 16.3447 18.4327C16.5464 17.826 16.8321 17.253 17.2355 16.7473C18.5464 15.1125 20.8825 14.3541 23.2187 14.4552C25.5548 14.5395 27.9246 15.5002 29.2187 16.8653H29.2355Z" fill="url(#paint14_linear_40023_77800)"/>
<path style="mix-blend-mode:multiply" fill-rule="evenodd" clip-rule="evenodd" d="M28.4283 20.0841C27.9913 20.9774 26.9325 21.6684 25.8568 22.7976C24.7644 23.8931 23.672 25.4437 22.6804 27.1122C23.5879 25.4942 24.5963 24.0279 25.5543 22.9324C26.5123 21.8032 27.4199 21.0448 27.7896 20.1515C28.2266 19.1571 27.672 17.9437 26.2266 17.0504C24.798 16.1571 22.4787 15.5504 20.1257 15.9043C19.6888 15.9717 19.2686 16.056 18.8652 16.174C19.4703 15.938 20.1425 15.7695 20.8652 15.6852C23.2518 15.3482 25.5879 16.0223 26.9829 16.9661C28.4283 17.9268 28.9325 19.1571 28.4451 20.0841H28.4283Z" fill="url(#paint15_linear_40023_77800)"/>
<path style="mix-blend-mode:multiply" fill-rule="evenodd" clip-rule="evenodd" d="M19.9408 29.708C18.8651 31.0563 17.7895 31.4945 16.5794 30.5844C15.3861 29.7249 14.0584 27.517 13.0332 24.7698C14.092 27.2811 15.3525 29.1855 16.5122 29.944C17.6887 30.7193 18.7307 30.3316 19.7895 29.135C21.0164 27.7024 22.1593 25.6125 23.2853 23.9103C24.3945 22.1575 25.5038 20.7923 25.8903 19.4271C25.9576 19.1743 26.008 18.9215 26.008 18.6855C26.0416 19.0563 26.008 19.444 25.8903 19.8485C25.4702 21.1799 24.3777 22.562 23.3021 24.3316C22.1929 26.0507 21.1172 28.1912 19.9408 29.708Z" fill="url(#paint16_linear_40023_77800)"/>
<path style="mix-blend-mode:multiply" fill-rule="evenodd" clip-rule="evenodd" d="M15.4703 27.6519C14.0585 26.2024 12.6972 23.4047 11.8569 20.7586C10.9997 18.0788 10.6804 15.5676 11.4031 14.1182C10.4283 17.1013 12.9157 24.0114 15.5711 26.8092C18.7644 30.1463 21.0333 25.7979 23.7896 22.5114C24.0417 22.1912 24.2938 21.9047 24.5291 21.6182C24.193 22.0732 23.8232 22.5788 23.4199 23.1013C20.7812 26.5732 18.63 31.0227 15.4535 27.6519H15.4703Z" fill="url(#paint17_linear_40023_77800)"/>
<path style="mix-blend-mode:multiply" fill-rule="evenodd" clip-rule="evenodd" d="M12.6976 19.4944C11.8404 16.764 11.6892 14.4719 12.4959 13.073C13.269 11.6236 15.0001 11.0506 17.3194 11C15.2522 11.2022 13.7564 11.9101 13.0841 13.3596C12.3951 14.7753 12.5127 16.9157 13.2858 19.3764C14.1934 22.2753 15.6892 24.7022 17.101 25.6629C18.5631 26.691 19.9413 26.236 21.4371 24.9551C21.7228 24.7191 21.9917 24.4663 22.2606 24.1966C21.8404 24.6517 21.4035 25.0899 20.9665 25.4775C19.5043 26.7921 18.1094 27.1966 16.6472 26.1011C15.2018 25.0562 13.6724 22.4944 12.7144 19.4944H12.6976Z" fill="url(#paint18_linear_40023_77800)"/>
<path style="mix-blend-mode:multiply" fill-rule="evenodd" clip-rule="evenodd" d="M16.1761 12.3987C19.487 10.4268 25.8399 11.7751 28.6467 14.556C25.7391 12.0448 20.0248 11.0504 16.9156 12.9886C15.0668 14.101 14.5122 16.174 14.8147 18.5673C15.1004 20.9268 16.2265 23.5898 17.571 24.9886C17.8231 25.2583 18.0752 25.4774 18.3273 25.6291C17.9072 25.4268 17.4702 25.0898 17.05 24.6347C15.6551 23.1178 14.4618 20.3369 14.1424 17.9437C13.8063 15.4999 14.3273 13.4437 16.1761 12.3819V12.3987Z" fill="url(#paint19_linear_40023_77800)"/>
<path style="mix-blend-mode:multiply" fill-rule="evenodd" clip-rule="evenodd" d="M23.8403 13.1066C26.2773 13.4268 28.3949 14.6066 29.6386 15.8369C30.8991 17.0841 31.2857 18.365 30.8151 19.1234C31.084 18.365 30.5798 17.1515 29.3529 16.0392C28.1428 14.9268 26.1764 13.9324 23.9411 13.6796C21.3025 13.3762 18.9159 13.983 17.521 15.3819C16.0924 16.7639 15.6554 18.938 16.126 21.4998C16.21 21.9718 16.3277 22.4268 16.4621 22.865C16.21 22.1909 15.9915 21.4493 15.8571 20.6909C15.3697 18.1122 15.8235 15.9718 17.2857 14.6234C18.7142 13.2751 21.1512 12.7358 23.8571 13.0897L23.8403 13.1066Z" fill="url(#paint20_linear_40023_77800)"/>
<path style="mix-blend-mode:multiply" fill-rule="evenodd" clip-rule="evenodd" d="M29.6211 18.4156C30.4447 20.6909 27.5035 20.9268 25.1674 23.5897C27.285 21.1291 29.7556 20.5729 28.9489 18.4998C28.4783 17.3369 26.8312 16.1234 24.7136 15.6178C22.6127 15.0953 20.0581 15.2807 18.1758 16.3931C17.8228 16.6122 17.5035 16.8313 17.2178 17.101C17.6211 16.6291 18.1253 16.2414 18.7136 15.9043C20.6632 14.8257 23.2514 14.6909 25.3858 15.3144C27.5203 15.8875 29.1842 17.2189 29.6379 18.4156H29.6211Z" fill="url(#paint21_linear_40023_77800)"/>
<path style="mix-blend-mode:multiply" fill-rule="evenodd" clip-rule="evenodd" d="M27.0337 21.2474C26.1934 22.2081 25.0505 23.3541 24.0253 24.8878C22.9833 26.371 22.0589 28.2418 21.1345 29.6406C21.9917 28.2081 22.8656 26.4384 23.8068 25.0058C24.7312 23.5227 25.7564 22.3597 26.4959 21.3654C27.353 20.2193 27.5715 19.1744 26.7648 18.1126C25.9917 17.0845 24.1934 16.0732 21.8236 15.8541C21.3866 15.8036 20.9497 15.7867 20.5127 15.7867C21.2018 15.7193 21.9077 15.7362 22.6135 15.8204C24.9665 16.0564 26.7312 17.135 27.4707 18.1631C28.2438 19.2249 27.9749 20.2362 27.0505 21.2642L27.0337 21.2474Z" fill="url(#paint22_linear_40023_77800)"/>
<path style="mix-blend-mode:multiply" fill-rule="evenodd" clip-rule="evenodd" d="M29.5544 17.6403C30.3947 18.8538 30.1595 19.6796 29.42 20.3201C28.6805 20.9942 27.42 21.483 26.1763 22.5785C27.2855 21.5504 28.3611 21.0111 28.9662 20.3201C29.5712 19.6459 29.7057 18.8369 28.9158 17.7583C28.025 16.5111 25.9914 15.4493 23.7393 15.1965C21.504 14.9268 19.0502 15.4324 17.4704 16.8482C17.1679 17.1178 16.9158 17.4043 16.6973 17.7246C16.9998 17.1852 17.3863 16.6965 17.8905 16.2751C19.5208 14.91 22.0418 14.4381 24.3107 14.8088C26.5964 15.1459 28.6637 16.3257 29.5544 17.6403Z" fill="url(#paint23_linear_40023_77800)"/>
<path style="mix-blend-mode:multiply" fill-rule="evenodd" clip-rule="evenodd" d="M27.8062 20.6238C27.1507 21.5171 26.0079 22.3935 24.9658 23.725C23.8902 25.0227 22.8818 26.7755 21.9238 28.3766C22.7978 26.7924 23.7389 25.1407 24.6969 23.8766C25.6549 22.562 26.6297 21.6351 27.2011 20.725C27.8734 19.6969 27.7053 18.5677 26.5457 17.5733C25.4196 16.5957 23.3188 15.7699 20.9154 15.8542C20.4616 15.8542 20.0247 15.9047 19.6045 15.9553C20.26 15.8036 20.9658 15.7193 21.6885 15.7193C24.1087 15.6519 26.1927 16.562 27.2852 17.5564C28.4112 18.5845 28.5289 19.7137 27.7894 20.6407L27.8062 20.6238Z" fill="url(#paint24_linear_40023_77800)"/>
<path style="mix-blend-mode:multiply" fill-rule="evenodd" clip-rule="evenodd" d="M22.7144 26.4216C20.664 30.1631 19.1514 33.7193 16.748 31.1238C19.017 33.0957 20.5464 29.826 22.4791 26.3373C24.664 22.1238 27.4203 20.2362 25.7396 17.7418C25.5716 17.5227 25.3867 17.3036 25.1514 17.0845C25.5716 17.3878 25.9077 17.7249 26.143 18.0789C27.706 20.5058 24.8657 22.1912 22.7144 26.4047V26.4216Z" fill="url(#paint25_linear_40023_77800)"/>
<path style="mix-blend-mode:multiply" fill-rule="evenodd" clip-rule="evenodd" d="M19.2177 30.0954C18.0917 31.0898 16.9152 30.9213 15.6547 29.4887C14.4278 28.1067 13.1169 25.4606 12.2598 22.6628C13.1673 25.2752 14.4278 27.6179 15.6211 28.8482C16.8312 30.1123 17.9741 30.264 19.0833 29.4044C20.3942 28.3932 21.5035 26.3539 22.6799 24.6179C23.8228 22.8145 25.0161 21.2977 25.6883 19.9157C25.806 19.6628 25.9068 19.3932 25.9741 19.1572C25.9236 19.5449 25.7892 19.9494 25.6043 20.3707C24.932 21.7527 23.7724 23.3033 22.6631 25.1404C21.5203 26.9269 20.4614 29.0168 19.2177 30.1123V30.0954Z" fill="url(#paint26_linear_40023_77800)"/>
<path style="mix-blend-mode:multiply" fill-rule="evenodd" clip-rule="evenodd" d="M14.68 26.2359C13.2682 24.2977 12.0245 21.2977 11.4363 18.7697C10.8312 16.2079 10.8985 14.1011 12.0245 13.0225C11.1506 14.2359 11.201 16.2921 11.806 18.6854C12.4111 21.0449 13.5707 23.7247 14.8816 25.4944C16.4615 27.6517 17.9069 28.0056 19.2514 27.264C20.6127 26.5562 21.8732 24.7528 23.3018 23.0843C23.5707 22.764 23.8228 22.4607 24.0749 22.1573C23.7052 22.6292 23.3186 23.1517 22.8985 23.691C21.5371 25.4607 20.327 27.3146 18.9993 28.0393C17.6884 28.7977 16.2598 28.427 14.68 26.2191V26.2359Z" fill="url(#paint27_linear_40023_77800)"/>
<path style="mix-blend-mode:multiply" fill-rule="evenodd" clip-rule="evenodd" d="M12.5965 17.9608C12.025 15.3316 12.2939 13.4103 13.4704 12.3148C14.6301 11.1855 16.6973 10.8653 19.1511 11.0507C16.9326 11.0339 15.1007 11.5058 14.0754 12.6518C13.0334 13.7979 12.7813 15.6181 13.2687 18.0114C13.857 20.7754 15.2183 23.5226 16.5965 24.8878C18.0082 26.3204 19.4368 26.3709 20.9158 25.3429C21.2015 25.1575 21.4704 24.9384 21.7393 24.7024C21.3191 25.1069 20.8822 25.4945 20.4284 25.7979C18.9494 26.8429 17.5208 26.708 16.0586 25.1743C14.6469 23.708 13.2183 20.826 12.5796 17.9608H12.5965Z" fill="url(#paint28_linear_40023_77800)"/>
<path style="mix-blend-mode:multiply" fill-rule="evenodd" clip-rule="evenodd" d="M17.6211 12.163C19.5875 11.472 22.1421 11.5394 24.411 12.2304C26.6967 12.9046 28.6799 14.2024 29.6883 15.5675C27.5203 12.972 21.974 11.3035 18.2766 12.7866C16.0917 13.6125 15.1001 15.3484 15.0497 17.6068C14.9992 19.8316 15.89 22.5619 17.1337 24.3653C17.369 24.7024 17.6043 24.9889 17.8396 25.2248C17.4362 24.8877 17.0161 24.4495 16.6295 23.8765C15.3354 21.972 14.3774 19.1574 14.411 16.9158C14.411 14.6237 15.4026 12.9383 17.6043 12.163H17.6211Z" fill="url(#paint29_linear_40023_77800)"/>
<path style="mix-blend-mode:multiply" fill-rule="evenodd" clip-rule="evenodd" d="M25.2683 13.646C27.6213 14.2359 29.4196 15.6011 30.2935 16.7977C31.2011 18.028 31.1675 19.0898 30.428 19.6966C30.9658 19.073 30.8481 18.0449 29.9406 16.9325C29.0498 15.837 27.3692 14.6741 25.2179 14.1685C22.6969 13.5786 20.1086 13.8988 18.4112 15.028C16.6801 16.1572 15.8397 18.0786 16.0246 20.6067C16.0582 21.0786 16.1086 21.5336 16.2095 21.9887C16.0246 21.2808 15.8902 20.5224 15.8397 19.7808C15.6549 17.2527 16.5288 15.382 18.3103 14.3033C20.0414 13.2247 22.6801 12.9719 25.2683 13.6292V13.646Z" fill="url(#paint30_linear_40023_77800)"/>
<path style="mix-blend-mode:multiply" fill-rule="evenodd" clip-rule="evenodd" d="M29.2355 16.8653C30.4456 18.1125 30.58 19.1406 30.059 19.8485C29.5548 20.59 28.3951 20.9608 27.1178 21.8541C28.2271 21.0282 29.2019 20.5732 29.5716 19.8316C29.9582 19.1237 29.7733 18.1631 28.6472 17.0844C26.059 14.4384 19.4204 13.9496 16.933 17.4046C16.6977 17.7249 16.496 18.0619 16.3447 18.4327C16.5464 17.826 16.8321 17.253 17.2355 16.7473C18.5464 15.1125 20.8825 14.3541 23.2187 14.4552C25.5548 14.5395 27.9246 15.5002 29.2187 16.8653H29.2355Z" fill="url(#paint31_linear_40023_77800)"/>
<path style="mix-blend-mode:multiply" fill-rule="evenodd" clip-rule="evenodd" d="M28.4283 20.0841C27.9913 20.9774 26.9325 21.6684 25.8568 22.7976C24.7644 23.8931 23.672 25.4437 22.6804 27.1122C23.5879 25.4942 24.5963 24.0279 25.5543 22.9324C26.5123 21.8032 27.4199 21.0448 27.7896 20.1515C28.2266 19.1571 27.672 17.9437 26.2266 17.0504C24.798 16.1571 22.4787 15.5504 20.1257 15.9043C19.6888 15.9717 19.2686 16.056 18.8652 16.174C19.4703 15.938 20.1425 15.7695 20.8652 15.6852C23.2518 15.3482 25.5879 16.0223 26.9829 16.9661C28.4283 17.9268 28.9325 19.1571 28.4451 20.0841H28.4283Z" fill="url(#paint32_linear_40023_77800)"/>
<path style="mix-blend-mode:multiply" fill-rule="evenodd" clip-rule="evenodd" d="M23.3866 25.3426C21.2354 28.7976 19.8236 33.1459 17.5547 31.7471C19.6723 32.6066 21.1177 28.6628 23.1177 25.3594C25.3698 21.4493 27.7732 19.7976 25.3362 17.337C25.1177 17.1179 24.8488 16.9325 24.5631 16.7471C25.0673 17.0167 25.4875 17.3201 25.8404 17.6403C27.0169 18.8033 26.9496 19.8482 26.3278 20.9774C25.7059 22.1235 24.5295 23.3707 23.3866 25.3426Z" fill="url(#paint33_linear_40023_77800)"/>
<path style="mix-blend-mode:multiply" fill-rule="evenodd" clip-rule="evenodd" d="M19.9408 29.708C18.8651 31.0563 17.7895 31.4945 16.5794 30.5844C15.3861 29.7249 14.0584 27.517 13.0332 24.7698C14.092 27.2811 15.3525 29.1855 16.5122 29.944C17.6887 30.7193 18.7307 30.3316 19.7895 29.135C21.0164 27.7024 22.1593 25.6125 23.2853 23.9103C24.3945 22.1575 25.5038 20.7923 25.8903 19.4271C25.9576 19.1743 26.008 18.9215 26.008 18.6855C26.0416 19.0563 26.008 19.444 25.8903 19.8485C25.4702 21.1799 24.3777 22.562 23.3021 24.3316C22.1929 26.0507 21.1172 28.1912 19.9408 29.708Z" fill="url(#paint34_linear_40023_77800)"/>
<path style="mix-blend-mode:multiply" fill-rule="evenodd" clip-rule="evenodd" d="M15.4703 27.6519C14.0585 26.2024 12.6972 23.4047 11.8569 20.7586C10.9997 18.0788 10.6804 15.5676 11.4031 14.1182C10.4283 17.1013 12.9157 24.0114 15.5711 26.8092C18.7644 30.1463 21.0333 25.7979 23.7896 22.5114C24.0417 22.1912 24.2938 21.9047 24.5291 21.6182C24.193 22.0732 23.8232 22.5788 23.4199 23.1013C20.7812 26.5732 18.63 31.0227 15.4535 27.6519H15.4703Z" fill="url(#paint35_linear_40023_77800)"/>
<path style="mix-blend-mode:multiply" fill-rule="evenodd" clip-rule="evenodd" d="M12.6976 19.4944C11.8404 16.764 11.6892 14.4719 12.4959 13.073C13.269 11.6236 15.0001 11.0506 17.3194 11C15.2522 11.2022 13.7564 11.9101 13.0841 13.3596C12.3951 14.7753 12.5127 16.9157 13.2858 19.3764C14.1934 22.2753 15.6892 24.7022 17.101 25.6629C18.5631 26.691 19.9413 26.236 21.4371 24.9551C21.7228 24.7191 21.9917 24.4663 22.2606 24.1966C21.8404 24.6517 21.4035 25.0899 20.9665 25.4775C19.5043 26.7921 18.1094 27.1966 16.6472 26.1011C15.2018 25.0562 13.6724 22.4944 12.7144 19.4944H12.6976Z" fill="url(#paint36_linear_40023_77800)"/>
<path style="mix-blend-mode:multiply" fill-rule="evenodd" clip-rule="evenodd" d="M16.1761 12.3987C19.487 10.4268 25.8399 11.7751 28.6467 14.556C25.7391 12.0448 20.0248 11.0504 16.9156 12.9886C15.0668 14.101 14.5122 16.174 14.8147 18.5673C15.1004 20.9268 16.2265 23.5898 17.571 24.9886C17.8231 25.2583 18.0752 25.4774 18.3273 25.6291C17.9072 25.4268 17.4702 25.0898 17.05 24.6347C15.6551 23.1178 14.4618 20.3369 14.1424 17.9437C13.8063 15.4999 14.3273 13.4437 16.1761 12.3819V12.3987Z" fill="url(#paint37_linear_40023_77800)"/>
<path style="mix-blend-mode:multiply" fill-rule="evenodd" clip-rule="evenodd" d="M23.8403 13.1066C26.2773 13.4268 28.3949 14.6066 29.6386 15.8369C30.8991 17.0841 31.2857 18.365 30.8151 19.1234C31.084 18.365 30.5798 17.1515 29.3529 16.0392C28.1428 14.9268 26.1764 13.9324 23.9411 13.6796C21.3025 13.3762 18.9159 13.983 17.521 15.3819C16.0924 16.7639 15.6554 18.938 16.126 21.4998C16.21 21.9718 16.3277 22.4268 16.4621 22.865C16.21 22.1909 15.9915 21.4493 15.8571 20.6909C15.3697 18.1122 15.8235 15.9718 17.2857 14.6234C18.7142 13.2751 21.1512 12.7358 23.8571 13.0897L23.8403 13.1066Z" fill="url(#paint38_linear_40023_77800)"/>
</g>
<circle cx="20" cy="20" r="19.5" stroke="black" stroke-opacity="0.05"/>
<defs>
<linearGradient id="paint0_linear_40023_77800" x1="17.201" y1="19.2583" x2="29.7556" y2="19.2583" gradientUnits="userSpaceOnUse">
<stop stop-color="#94D9F8"/>
<stop offset="1" stop-color="#007DC5"/>
</linearGradient>
<linearGradient id="paint1_linear_40023_77800" x1="20.5127" y1="22.7137" x2="27.9077" y2="22.7137" gradientUnits="userSpaceOnUse">
<stop stop-color="#94D9F8"/>
<stop offset="1" stop-color="#007DC5"/>
</linearGradient>
<linearGradient id="paint2_linear_40023_77800" x1="15.7227" y1="24.7362" x2="26.3613" y2="24.7362" gradientUnits="userSpaceOnUse">
<stop stop-color="#94D9F8"/>
<stop offset="1" stop-color="#007DC5"/>
</linearGradient>
<linearGradient id="paint3_linear_40023_77800" x1="11.6045" y1="25.0058" x2="25.8062" y2="25.0058" gradientUnits="userSpaceOnUse">
<stop stop-color="#94D9F8"/>
<stop offset="1" stop-color="#007DC5"/>
</linearGradient>
<linearGradient id="paint4_linear_40023_77800" x1="14.8145" y1="18.2976" x2="30.512" y2="18.2976" gradientUnits="userSpaceOnUse">
<stop stop-color="#94D9F8"/>
<stop offset="1" stop-color="#007DC5"/>
</linearGradient>
<linearGradient id="paint5_linear_40023_77800" x1="15.9408" y1="17.3201" x2="30.882" y2="17.3201" gradientUnits="userSpaceOnUse">
<stop stop-color="#94D9F8"/>
<stop offset="1" stop-color="#007DC5"/>
</linearGradient>
<linearGradient id="paint6_linear_40023_77800" x1="16.6973" y1="18.6347" x2="30.0922" y2="18.6347" gradientUnits="userSpaceOnUse">
<stop stop-color="#94D9F8"/>
<stop offset="1" stop-color="#007DC5"/>
</linearGradient>
<linearGradient id="paint7_linear_40023_77800" x1="19.6213" y1="22.0396" x2="28.2768" y2="22.0396" gradientUnits="userSpaceOnUse">
<stop stop-color="#94D9F8"/>
<stop offset="1" stop-color="#007DC5"/>
</linearGradient>
<linearGradient id="paint8_linear_40023_77800" x1="16.748" y1="24.5508" x2="26.5968" y2="24.5508" gradientUnits="userSpaceOnUse">
<stop stop-color="#94D9F8"/>
<stop offset="1" stop-color="#007DC5"/>
</linearGradient>
<linearGradient id="paint9_linear_40023_77800" x1="12.2598" y1="24.9381" x2="25.9741" y2="24.9381" gradientUnits="userSpaceOnUse">
<stop stop-color="#94D9F8"/>
<stop offset="1" stop-color="#007DC5"/>
</linearGradient>
<linearGradient id="paint10_linear_40023_77800" x1="11.0497" y1="20.7247" x2="24.0749" y2="20.7247" gradientUnits="userSpaceOnUse">
<stop stop-color="#94D9F8"/>
<stop offset="1" stop-color="#007DC5"/>
</linearGradient>
<linearGradient id="paint11_linear_40023_77800" x1="12.2939" y1="18.7361" x2="21.7393" y2="18.7361" gradientUnits="userSpaceOnUse">
<stop stop-color="#94D9F8"/>
<stop offset="1" stop-color="#007DC5"/>
</linearGradient>
<linearGradient id="paint12_linear_40023_77800" x1="14.4278" y1="18.4495" x2="29.7051" y2="18.4495" gradientUnits="userSpaceOnUse">
<stop stop-color="#94D9F8"/>
<stop offset="1" stop-color="#007DC5"/>
</linearGradient>
<linearGradient id="paint13_linear_40023_77800" x1="15.8061" y1="17.6404" x2="30.9658" y2="17.6404" gradientUnits="userSpaceOnUse">
<stop stop-color="#94D9F8"/>
<stop offset="1" stop-color="#007DC5"/>
</linearGradient>
<linearGradient id="paint14_linear_40023_77800" x1="16.3447" y1="18.1462" x2="30.3447" y2="18.1462" gradientUnits="userSpaceOnUse">
<stop stop-color="#94D9F8"/>
<stop offset="1" stop-color="#007DC5"/>
</linearGradient>
<linearGradient id="paint15_linear_40023_77800" x1="18.8484" y1="21.3482" x2="28.6131" y2="21.3482" gradientUnits="userSpaceOnUse">
<stop stop-color="#94D9F8"/>
<stop offset="1" stop-color="#007DC5"/>
</linearGradient>
<linearGradient id="paint16_linear_40023_77800" x1="13.0332" y1="24.8541" x2="26.0248" y2="24.8541" gradientUnits="userSpaceOnUse">
<stop stop-color="#94D9F8"/>
<stop offset="1" stop-color="#007DC5"/>
</linearGradient>
<linearGradient id="paint17_linear_40023_77800" x1="10.9997" y1="21.4833" x2="24.5291" y2="21.4833" gradientUnits="userSpaceOnUse">
<stop stop-color="#94D9F8"/>
<stop offset="1" stop-color="#007DC5"/>
</linearGradient>
<linearGradient id="paint18_linear_40023_77800" x1="11.9581" y1="18.8708" x2="22.2606" y2="18.8708" gradientUnits="userSpaceOnUse">
<stop stop-color="#94D9F8"/>
<stop offset="1" stop-color="#007DC5"/>
</linearGradient>
<linearGradient id="paint19_linear_40023_77800" x1="14.0584" y1="18.5504" x2="28.6467" y2="18.5504" gradientUnits="userSpaceOnUse">
<stop stop-color="#94D9F8"/>
<stop offset="1" stop-color="#007DC5"/>
</linearGradient>
<linearGradient id="paint20_linear_40023_77800" x1="15.6554" y1="17.9437" x2="31" y2="17.9437" gradientUnits="userSpaceOnUse">
<stop stop-color="#94D9F8"/>
<stop offset="1" stop-color="#007DC5"/>
</linearGradient>
<linearGradient id="paint21_linear_40023_77800" x1="17.201" y1="19.2583" x2="29.7556" y2="19.2583" gradientUnits="userSpaceOnUse">
<stop stop-color="#94D9F8"/>
<stop offset="1" stop-color="#007DC5"/>
</linearGradient>
<linearGradient id="paint22_linear_40023_77800" x1="20.5127" y1="22.7137" x2="27.9077" y2="22.7137" gradientUnits="userSpaceOnUse">
<stop stop-color="#94D9F8"/>
<stop offset="1" stop-color="#007DC5"/>
</linearGradient>
<linearGradient id="paint23_linear_40023_77800" x1="16.6973" y1="18.6347" x2="30.0922" y2="18.6347" gradientUnits="userSpaceOnUse">
<stop stop-color="#94D9F8"/>
<stop offset="1" stop-color="#007DC5"/>
</linearGradient>
<linearGradient id="paint24_linear_40023_77800" x1="19.6213" y1="22.0396" x2="28.2768" y2="22.0396" gradientUnits="userSpaceOnUse">
<stop stop-color="#94D9F8"/>
<stop offset="1" stop-color="#007DC5"/>
</linearGradient>
<linearGradient id="paint25_linear_40023_77800" x1="16.748" y1="24.5508" x2="26.5968" y2="24.5508" gradientUnits="userSpaceOnUse">
<stop stop-color="#94D9F8"/>
<stop offset="1" stop-color="#007DC5"/>
</linearGradient>
<linearGradient id="paint26_linear_40023_77800" x1="12.2598" y1="24.9381" x2="25.9741" y2="24.9381" gradientUnits="userSpaceOnUse">
<stop stop-color="#94D9F8"/>
<stop offset="1" stop-color="#007DC5"/>
</linearGradient>
<linearGradient id="paint27_linear_40023_77800" x1="11.0497" y1="20.7247" x2="24.0749" y2="20.7247" gradientUnits="userSpaceOnUse">
<stop stop-color="#94D9F8"/>
<stop offset="1" stop-color="#007DC5"/>
</linearGradient>
<linearGradient id="paint28_linear_40023_77800" x1="15.4872" y1="13.0226" x2="19.5084" y2="28.9948" gradientUnits="userSpaceOnUse">
<stop stop-color="#94D9F8"/>
<stop offset="1" stop-color="#007DC5"/>
</linearGradient>
<linearGradient id="paint29_linear_40023_77800" x1="14.4278" y1="18.4495" x2="29.7051" y2="18.4495" gradientUnits="userSpaceOnUse">
<stop stop-color="#94D9F8"/>
<stop offset="1" stop-color="#007DC5"/>
</linearGradient>
<linearGradient id="paint30_linear_40023_77800" x1="15.8061" y1="17.6404" x2="30.9658" y2="17.6404" gradientUnits="userSpaceOnUse">
<stop stop-color="#94D9F8"/>
<stop offset="1" stop-color="#007DC5"/>
</linearGradient>
<linearGradient id="paint31_linear_40023_77800" x1="16.3447" y1="18.1462" x2="30.3447" y2="18.1462" gradientUnits="userSpaceOnUse">
<stop stop-color="#94D9F8"/>
<stop offset="1" stop-color="#007DC5"/>
</linearGradient>
<linearGradient id="paint32_linear_40023_77800" x1="18.8484" y1="21.3482" x2="28.6131" y2="21.3482" gradientUnits="userSpaceOnUse">
<stop stop-color="#94D9F8"/>
<stop offset="1" stop-color="#007DC5"/>
</linearGradient>
<linearGradient id="paint33_linear_40023_77800" x1="17.5715" y1="24.365" x2="26.7816" y2="24.365" gradientUnits="userSpaceOnUse">
<stop stop-color="#94D9F8"/>
<stop offset="1" stop-color="#007DC5"/>
</linearGradient>
<linearGradient id="paint34_linear_40023_77800" x1="13.0332" y1="24.8541" x2="26.0248" y2="24.8541" gradientUnits="userSpaceOnUse">
<stop stop-color="#94D9F8"/>
<stop offset="1" stop-color="#007DC5"/>
</linearGradient>
<linearGradient id="paint35_linear_40023_77800" x1="10.9997" y1="21.4833" x2="24.5291" y2="21.4833" gradientUnits="userSpaceOnUse">
<stop stop-color="#94D9F8"/>
<stop offset="1" stop-color="#007DC5"/>
</linearGradient>
<linearGradient id="paint36_linear_40023_77800" x1="14.7648" y1="14.9775" x2="20.8429" y2="27.5878" gradientUnits="userSpaceOnUse">
<stop stop-color="#94D9F8"/>
<stop offset="1" stop-color="#007DC5"/>
</linearGradient>
<linearGradient id="paint37_linear_40023_77800" x1="14.0584" y1="18.5504" x2="28.6467" y2="18.5504" gradientUnits="userSpaceOnUse">
<stop stop-color="#94D9F8"/>
<stop offset="1" stop-color="#007DC5"/>
</linearGradient>
<linearGradient id="paint38_linear_40023_77800" x1="15.6554" y1="17.9437" x2="31" y2="17.9437" gradientUnits="userSpaceOnUse">
<stop stop-color="#94D9F8"/>
<stop offset="1" stop-color="#007DC5"/>
</linearGradient>
<clipPath id="clip0_40023_77800">
<rect width="21" height="22" fill="white" transform="translate(11 11)"/>
</clipPath>
</defs>
</svg>
