<svg width="40" height="40" viewBox="0 0 40 40" fill="none" xmlns="http://www.w3.org/2000/svg">
<circle cx="20" cy="20" r="20" fill="#F6F8FA"/>
<g clip-path="url(#clip0_17713_28007)">
<path d="M27.0698 21.6632H31.0352C29.7158 20.2399 29.3522 18.547 29.3304 18.4413C28.5413 14.8158 25.6839 11.962 22.0575 11.1775V13.6313C24.6434 14.3939 26.6188 16.5816 27.0725 19.285H21.2256V9.47363C19.6657 10.8887 18.001 11.1784 18.001 11.1784H18.0019C14.3764 11.9693 11.5245 14.8258 10.739 18.4522H13.1919C13.9545 15.8663 16.1422 13.8909 18.8456 13.4372V19.285H9.03516C10.4502 20.8449 10.7399 22.5096 10.7399 22.5096C11.5299 26.1333 14.3864 28.9853 18.0128 29.7698V27.3169C15.427 26.5543 13.4516 24.3675 12.9978 21.6632H18.8447V31.4736C20.268 30.1543 21.9609 29.7898 22.0666 29.7689C25.6921 28.9798 28.545 26.1233 29.3304 22.496H26.8766C26.114 25.0818 23.9263 27.0563 21.2229 27.5101V21.6632H27.068H27.0698Z" fill="#D82037"/>
</g>
<circle cx="20" cy="20" r="19.5" stroke="black" stroke-opacity="0.05"/>
<defs>
<clipPath id="clip0_17713_28007">
<rect width="22" height="22" fill="white" transform="translate(9.03516 9.47363)"/>
</clipPath>
</defs>
</svg>
