<svg width="40" height="40" viewBox="0 0 40 40" fill="none" xmlns="http://www.w3.org/2000/svg">
<ellipse cx="20.0175" cy="19.9736" rx="19.9824" ry="19.9736" fill="#2D4C9C"/>
<g clip-path="url(#clip0_17671_18645)">
<path d="M22.4791 21.4958C22.4791 21.7747 22.5521 22.0111 22.6979 22.2048C22.8437 22.3985 23.0344 22.5574 23.27 22.6813C23.5168 22.7976 23.8028 22.8867 24.1281 22.9487C24.4535 23.0029 24.79 23.03 25.1377 23.03C25.3733 23.03 25.6257 23.0184 25.8949 22.9952C26.1642 22.9642 26.4166 22.9099 26.6521 22.8324C26.8877 22.7549 27.084 22.6503 27.2411 22.5186C27.3981 22.3791 27.4767 22.2048 27.4767 21.9956C27.4767 21.7708 27.3701 21.5887 27.1569 21.4493C26.955 21.3098 26.6858 21.1936 26.3493 21.1006C26.0127 21.0076 25.6313 20.9262 25.2051 20.8565C24.7788 20.7867 24.3469 20.7093 23.9094 20.624C23.4607 20.5465 23.0232 20.4535 22.5969 20.3451C22.1706 20.2288 21.7892 20.0816 21.4527 19.9034C21.1162 19.7251 20.8413 19.5043 20.6282 19.2408C20.4263 18.9696 20.3253 18.6442 20.3253 18.2645C20.3253 17.8383 20.4543 17.4702 20.7123 17.1603C20.9816 16.8426 21.3293 16.5791 21.7556 16.3699C22.1819 16.1607 22.6642 16.0057 23.2027 15.905C23.7411 15.8042 24.2796 15.7539 24.818 15.7539C25.4462 15.7539 26.0464 15.8042 26.6185 15.905C27.2018 15.9979 27.7178 16.1529 28.1665 16.3699C28.6153 16.5869 28.9686 16.8658 29.2266 17.2068C29.4959 17.54 29.6305 17.9468 29.6305 18.4272H27.0728C27.0504 18.1792 26.9719 17.9739 26.8372 17.8112C26.7138 17.6485 26.5456 17.5206 26.3324 17.4276C26.1193 17.3346 25.8725 17.2688 25.5921 17.23C25.3228 17.1913 25.0256 17.1719 24.7003 17.1719C24.4871 17.1719 24.274 17.1874 24.0608 17.2184C23.8477 17.2494 23.6514 17.3036 23.4719 17.3811C23.3036 17.4586 23.1634 17.5555 23.0512 17.6717C22.9391 17.7879 22.883 17.9352 22.883 18.1134C22.883 18.2761 22.9278 18.4078 23.0176 18.5086C23.1073 18.6093 23.2812 18.7023 23.5392 18.7875C23.8084 18.8728 24.173 18.958 24.6329 19.0432C25.1041 19.1285 25.7155 19.237 26.4671 19.3687C26.6914 19.3997 26.9999 19.4578 27.3925 19.543C27.7964 19.6205 28.1946 19.7484 28.5872 19.9266C28.9798 20.1048 29.3164 20.3451 29.5968 20.6473C29.8885 20.9417 30.0343 21.3214 30.0343 21.7863C30.0343 22.166 29.9277 22.5186 29.7146 22.8441C29.5015 23.1695 29.1818 23.4523 28.7555 23.6926C28.3404 23.925 27.8188 24.1071 27.1906 24.2389C26.5736 24.3706 25.8557 24.4365 25.0368 24.4365C24.3749 24.4365 23.7299 24.3783 23.1017 24.2621C22.4847 24.1536 21.9351 23.9793 21.4527 23.7391C20.9816 23.4988 20.6058 23.1928 20.3253 22.8208C20.0449 22.4489 19.9103 22.0072 19.9215 21.4958H22.4791Z" fill="white" stroke="white" stroke-width="0.5"/>
<path d="M12.804 17.4854H9.2031V15.9511H19.0467V17.4854H15.4458V24.2501H12.804V17.4854Z" fill="white" stroke="white" stroke-width="0.5"/>
</g>
<path d="M19.9824 0.552733C30.7424 0.552733 39.4647 9.27155 39.4647 20.0263C39.4647 30.7811 30.7424 39.4999 19.9824 39.4999C9.22234 39.4999 0.499998 30.7811 0.499998 20.0263C0.500017 9.27156 9.22235 0.552741 19.9824 0.552733Z" stroke="black" stroke-opacity="0.05"/>
<defs>
<clipPath id="clip0_17671_18645">
<rect width="23" height="10" fill="white" transform="translate(8.03513 14.999)"/>
</clipPath>
</defs>
</svg>
