<svg width="41" height="41" viewBox="0 0 41 41" fill="none" xmlns="http://www.w3.org/2000/svg">
<circle cx="20.2601" cy="20.7399" r="20.2601" fill="#F6F8FA"/>
<g clip-path="url(#clip0_17713_28142)">
<path d="M29.4739 15.8361C29.4739 15.8361 29.4846 15.8035 29.4686 15.7872C28.9988 15.3844 28.6038 15.0633 28.118 14.7095C26.3992 13.4414 24.4668 13.0822 22.3209 13.6373C21.8832 13.7516 21.3654 13.9421 20.7622 14.2088C20.1643 14.4755 19.4437 14.8565 18.5949 15.3518C17.5967 15.9341 16.3262 16.7505 14.7888 17.8173C13.8387 18.4758 13.0379 18.9711 12.0664 19.548C11.2871 20.0106 10.6465 20.3644 9.74434 20.5277C9.14114 20.6365 8.62868 20.4351 8.34042 19.9018C7.39558 18.171 10.8653 16.0865 11.9757 15.4443C13.449 14.5898 14.7942 13.8387 16.3102 13.2999C16.3315 13.2944 16.3529 13.2999 16.3636 13.3271C16.3636 13.338 16.3636 13.3434 16.3636 13.3543C16.3582 13.387 16.3369 13.4142 16.3155 13.4468C15.6643 14.2415 14.9276 15.1667 14.1056 16.2226C14.0895 16.2443 14.0575 16.2498 14.0362 16.228C14.0362 16.228 14.0308 16.2226 14.0255 16.2171L13.6572 15.6729C13.6572 15.6729 13.6358 15.6565 13.6198 15.662C13.3849 15.7817 12.9685 16.0212 12.36 16.3804C11.6554 16.8049 11.0789 17.1859 10.6358 17.5342C10.2034 17.8771 9.89915 18.1438 9.71765 18.3289C9.54149 18.5139 8.99167 19.1453 9.21053 19.4174C9.29594 19.5208 9.39737 19.5643 9.5148 19.548C9.88847 19.499 10.2835 19.363 10.6892 19.1453C11.7034 18.601 12.7871 17.9533 13.7853 17.2621C14.3885 16.843 15.1145 16.3532 15.9686 15.7926C17.7034 14.6497 19.3582 13.6319 21.1785 12.9352C23.1376 12.1896 25.3743 12.1461 27.2853 13.055C28.5184 13.6428 29.6341 14.5735 30.6643 15.5368C30.691 15.5586 30.723 15.5695 30.7604 15.564C31.9668 15.3572 33.1999 15.3463 34.4597 15.5314C34.4864 15.5314 34.5077 15.564 34.5024 15.5912C34.5024 15.6021 34.5024 15.6076 34.4917 15.613C34.4757 15.6348 34.4437 15.6511 34.3903 15.662C33.248 15.896 32.191 16.1137 31.2141 16.326C31.1768 16.3314 31.1554 16.3695 31.1608 16.4022L31.8921 19.9834C31.9028 20.0324 31.8707 20.0814 31.8227 20.0923L30.0931 20.4624C30.0451 20.4732 29.9971 20.4624 29.9544 20.4351L27.9632 19.1997C27.9205 19.1725 27.9099 19.118 27.9312 19.0745L28.3583 18.3561C28.3796 18.318 28.4277 18.3071 28.465 18.3289L30.1465 19.3738C30.1839 19.3956 30.2266 19.4065 30.2693 19.3956L30.675 19.3085C30.7124 19.3031 30.7337 19.265 30.7284 19.2269L30.2052 16.6689C30.1999 16.6417 30.1679 16.6199 30.1412 16.6253L26.6607 17.6159C26.6607 17.6159 26.6234 17.6159 26.6127 17.5887C26.6127 17.5723 26.6127 17.5615 26.6234 17.5506C27.2373 16.9682 27.6216 16.609 27.7871 16.4675C27.9045 16.3695 28.0967 16.2716 28.3636 16.1736C28.7586 16.0321 29.1056 15.9287 29.4152 15.8525C29.4366 15.8525 29.4472 15.8416 29.4579 15.8253L29.4739 15.8361Z" fill="#29245D"/>
<path d="M16.9403 25.2246C16.9403 25.6818 17.0951 26.0737 17.4047 26.3948C18.0827 27.1078 19.2197 27.1731 20.0898 26.8356C20.2606 26.7703 20.6289 26.5472 20.8264 26.6179C21.2001 26.7486 21.12 27.2765 21.12 27.6956C21.12 27.8697 21.0666 28.0276 20.8958 28.1147C20.2019 28.4521 19.3531 28.5773 18.5471 28.5827C16.5506 28.5991 14.9545 27.3962 14.9439 25.2355C14.9332 23.0748 16.5186 21.8611 18.515 21.8557C19.3211 21.8557 20.1698 21.9645 20.8691 22.2965C21.0453 22.3782 21.0987 22.536 21.0987 22.7102C21.104 23.1292 21.1894 23.6572 20.8211 23.7932C20.6236 23.864 20.2606 23.6463 20.0844 23.5864C19.2143 23.2599 18.0773 23.336 17.4047 24.0545C17.1004 24.381 16.9456 24.7729 16.951 25.2301L16.9403 25.2246Z" fill="#29245D"/>
<path d="M26.7465 26.286C26.7465 26.237 26.7092 26.2044 26.6665 26.2044C26.6665 26.2044 26.6611 26.2044 26.6558 26.2044C26.2234 26.2588 25.9725 26.1608 25.8978 25.8996C25.8818 25.8506 25.8764 25.671 25.8818 25.3553C25.8818 25.1648 25.9191 25.0451 25.9832 24.9852C26.0846 24.9036 26.2021 24.8601 26.3462 24.8601C26.6078 24.8601 27.1255 24.8601 27.8889 24.8601C28.1772 24.8601 28.4441 24.9417 28.4441 25.2683C28.4547 26.1826 28.4601 26.9772 28.4494 27.6576C28.4441 28.0549 28.1024 28.1909 27.7608 28.2889C26.9654 28.512 26.138 28.6046 25.2839 28.5665C24.5099 28.5338 23.7198 28.2889 23.1166 27.8099C21.9903 26.9119 21.7341 25.3771 22.1504 24.011C22.2839 23.5702 22.4867 23.2109 22.7483 22.9279C23.4956 22.1442 24.5633 21.834 25.6522 21.8394C26.469 21.8394 27.1255 21.9319 27.6273 22.117C27.8996 22.2149 28.2839 22.1932 28.3159 22.5959C28.3533 23.1021 28.3907 23.8858 27.6327 23.5593C27.0348 23.3035 26.0739 23.1837 25.4227 23.3688C24.7608 23.5593 24.2056 24.0437 24.0348 24.7185C23.9067 25.2193 23.9547 25.6873 24.1736 26.1119C24.6166 26.9827 25.7537 27.2004 26.6505 26.9772C26.6985 26.9663 26.7359 26.9174 26.7359 26.8684V26.2915L26.7465 26.286Z" fill="#29245D"/>
<path d="M10.129 24.7948C10.129 24.7948 10.1397 24.8165 10.1504 24.8165C10.1557 24.8165 10.161 24.8165 10.1664 24.8111C10.7696 24.0382 11.4635 23.1674 12.2429 22.1878C12.3763 22.019 12.5151 21.9374 12.6593 21.9428C12.6913 21.9428 12.9849 21.9428 13.5454 21.9428C13.7696 21.9428 13.9137 21.9701 13.9831 22.019C14.266 22.2476 14.1326 22.5306 13.9244 22.7864C13.476 23.3525 12.8995 24.0927 12.1949 24.9961C12.1842 25.007 12.1842 25.0234 12.1949 25.0342C12.8034 25.7853 13.54 26.6997 14.3995 27.7773C14.6931 28.1474 14.3835 28.4957 13.9884 28.5012C13.6842 28.5012 13.2678 28.5012 12.7393 28.5012C12.6219 28.5012 12.5045 28.425 12.387 28.278C10.9778 26.5146 10.2358 25.5839 10.1557 25.486C10.1504 25.4805 10.1397 25.4805 10.129 25.486C10.129 25.486 10.1237 25.4914 10.1237 25.4969C10.145 26.4003 10.1504 27.2657 10.129 28.0984C10.129 28.2835 10.0222 28.4141 9.8194 28.4849C9.78737 28.4957 9.75534 28.5012 9.72331 28.5012C9.01869 28.5066 8.62367 28.5012 8.5436 28.4903C8.42616 28.474 8.32473 28.4087 8.23399 28.2889C8.21264 28.2617 8.20196 28.2291 8.19662 28.1964C8.18594 28.0168 8.17527 27.9025 8.17527 27.8535C8.17527 24.3757 8.17527 22.6123 8.17527 22.5687C8.17527 22.5579 8.17527 22.4871 8.18594 22.3456C8.20196 22.068 8.3621 21.9374 8.6557 21.9374C8.9226 21.9374 9.2162 21.9374 9.53114 21.9374C9.90481 21.9374 10.129 22.0082 10.129 22.4272C10.1343 23.3253 10.129 24.1144 10.1237 24.7948H10.129Z" fill="#29245D"/>
<path d="M30.9474 21.9374H30.942C30.3996 21.9374 29.9598 22.3858 29.9598 22.9388V27.4943C29.9598 28.0474 30.3996 28.4957 30.942 28.4957H30.9474C31.4898 28.4957 31.9296 28.0474 31.9296 27.4943V22.9388C31.9296 22.3858 31.4898 21.9374 30.9474 21.9374Z" fill="#29245D"/>
</g>
<circle cx="20.2601" cy="20.7399" r="19.7601" stroke="black" stroke-opacity="0.05"/>
<defs>
<clipPath id="clip0_17713_28142">
<rect width="27" height="17" fill="white" transform="translate(8.13965 12.3692) scale(1.01301)"/>
</clipPath>
</defs>
</svg>
