<svg width="40" height="40" viewBox="0 0 40 40" fill="none" xmlns="http://www.w3.org/2000/svg">
<circle cx="20" cy="20" r="20" fill="#0067AC"/>
<circle cx="20" cy="20" r="19.5" stroke="black" stroke-opacity="0.05"/>
<g clip-path="url(#clip0_18001_37147)">
<path d="M6.97357 27.712L6.66907 27.8057C6.65865 27.809 6.65099 27.8059 6.64609 27.7963C6.64098 27.7867 6.63864 27.7722 6.63904 27.7528C6.64007 22.5992 6.63996 17.4464 6.63874 12.2942C6.63874 12.2651 6.62894 12.2363 6.62434 12.2078C6.62366 12.2035 6.62408 12.1991 6.62558 12.1949C6.62709 12.1908 6.62961 12.1871 6.63293 12.1842C6.63625 12.1812 6.64026 12.1792 6.64459 12.1782C6.64892 12.1772 6.65344 12.1773 6.65773 12.1784C7.02821 12.2826 7.45576 12.397 7.9404 12.5215C11.2612 13.3754 14.8627 14.3047 18.7449 15.3093C18.7493 15.3104 18.7532 15.313 18.756 15.3166C18.7587 15.3202 18.7602 15.3247 18.7602 15.3292V17.3198C18.7602 17.3258 18.7579 17.3315 18.7538 17.3357C18.7496 17.3398 18.744 17.3422 18.7382 17.3422L18.051 17.3407C18.0282 17.3407 18.0167 17.3292 18.0167 17.3064L18.0186 15.9624C18.0186 15.9293 18.0024 15.9087 17.9702 15.9005L7.42543 13.224C7.41951 13.2226 7.41655 13.2248 7.41655 13.2307L7.41624 26.8064C7.41627 26.8072 7.41645 26.8079 7.41679 26.8086C7.41713 26.8092 7.41761 26.8098 7.4182 26.8102C7.41879 26.8107 7.41947 26.811 7.42019 26.8111C7.42091 26.8113 7.42166 26.8112 7.42237 26.811L18.7146 23.8836C18.7438 23.876 18.7585 23.8874 18.7587 23.9176C18.7601 24.1161 18.7601 24.3216 18.7587 24.534C18.7583 24.5703 18.7545 24.6084 18.7474 24.6482C18.7457 24.6574 18.7415 24.6659 18.7352 24.6727C18.7289 24.6794 18.7208 24.6843 18.7118 24.6865L6.97357 27.712Z" fill="white"/>
<path d="M30.5279 23.1824C28.4626 22.3308 28.227 19.5219 30.0972 18.3207C31.0497 17.7092 32.3103 17.7549 33.2177 18.4334C33.6796 18.7788 34.0013 19.2213 34.1827 19.7611C34.2513 19.9645 34.3297 20.1851 34.3465 20.3922C34.3623 20.5877 34.3587 20.7825 34.3358 20.9767C34.3147 21.1581 34.2399 21.3324 34.1845 21.511C34.1018 21.7787 33.9678 22.0364 33.7826 22.2839C33.0293 23.2905 31.6878 23.6603 30.5279 23.1824ZM32.9542 20.64C32.9542 20.2744 32.809 19.9238 32.5504 19.6653C32.2919 19.4067 31.9413 19.2615 31.5756 19.2615C31.21 19.2615 30.8594 19.4067 30.6009 19.6653C30.3423 19.9238 30.1971 20.2744 30.1971 20.64C30.1971 21.0057 30.3423 21.3563 30.6009 21.6148C30.8594 21.8734 31.21 22.0186 31.5756 22.0186C31.9413 22.0186 32.2919 21.8734 32.5504 21.6148C32.809 21.3563 32.9542 21.0057 32.9542 20.64Z" fill="white"/>
<path d="M11.6184 21.0009L10.5649 23.1876C10.5564 23.2051 10.5432 23.2199 10.5267 23.2303C10.5101 23.2406 10.491 23.2461 10.4714 23.2461L8.81197 23.247C8.78521 23.247 8.77275 23.2336 8.77459 23.2069C8.77888 23.1435 8.82544 23.0987 8.85455 23.0451C9.75663 21.3723 10.6564 19.7011 11.5538 18.0315C11.5728 17.9957 11.5912 17.9575 11.6092 17.9169C11.611 17.9129 11.6139 17.9094 11.6175 17.9069C11.6212 17.9044 11.6254 17.903 11.6298 17.9027C11.6343 17.9025 11.6386 17.9035 11.6425 17.9056C11.6464 17.9078 11.6496 17.9109 11.6518 17.9148C11.6875 17.977 11.7244 18.0436 11.7624 18.1145C12.6422 19.7516 13.5508 21.4447 14.4882 23.1937C14.4912 23.1992 14.4926 23.2053 14.4924 23.2115C14.4923 23.2176 14.4905 23.2237 14.4874 23.229C14.4842 23.2343 14.4797 23.2387 14.4743 23.2417C14.4689 23.2448 14.4629 23.2464 14.4567 23.2464L12.8018 23.2473C12.7817 23.2473 12.762 23.2416 12.745 23.231C12.728 23.2203 12.7143 23.205 12.7056 23.187C12.3897 22.5279 12.0762 21.8727 11.7651 21.2214C11.7288 21.1455 11.6898 21.0715 11.6481 20.9997C11.6466 20.997 11.6443 20.9949 11.6417 20.9934C11.639 20.9919 11.6359 20.9912 11.6329 20.9913C11.6298 20.9915 11.6269 20.9924 11.6243 20.9941C11.6218 20.9958 11.6197 20.9981 11.6184 21.0009Z" fill="white"/>
<path d="M16.2111 21.8044C16.2111 21.8107 16.2135 21.8168 16.2179 21.8213C16.2223 21.8258 16.2283 21.8284 16.2346 21.8286C16.2839 21.83 16.3347 21.8309 16.3872 21.8314C17.1186 21.8363 17.8989 21.8384 18.7283 21.8378C18.737 21.8378 18.7453 21.8412 18.7515 21.8474C18.7576 21.8535 18.7611 21.8619 18.7611 21.8706L18.7596 23.2016C18.7596 23.2134 18.7549 23.2247 18.7465 23.2331C18.7382 23.2414 18.7269 23.2461 18.7151 23.2461L14.8108 23.2467C14.8006 23.2467 14.7909 23.2426 14.7837 23.2355C14.7765 23.2283 14.7725 23.2185 14.7725 23.2084V18.0455C14.7725 18.0131 14.7888 17.9968 14.8215 17.9968C15.2514 17.9987 15.6752 17.9992 16.0928 17.9984C16.1286 17.9984 16.1639 18.0007 16.1988 18.0054C16.2048 18.0063 16.2102 18.0092 16.2141 18.0137C16.2181 18.0182 16.2202 18.024 16.2203 18.0299C16.2198 19.2026 16.2196 20.385 16.2196 21.5771C16.2196 21.6534 16.2114 21.729 16.2111 21.8044Z" fill="white"/>
<path d="M23.1941 22.5703C22.8347 23.0733 22.2554 23.3478 21.6323 23.4262C20.777 23.534 19.8212 23.3156 19.3381 22.539C19.1004 22.157 19.0091 21.7064 19.0088 21.2548C19.008 20.1751 19.0077 19.1017 19.0079 18.0348C19.0079 18.0255 19.0116 18.0165 19.0182 18.0099C19.0248 18.0033 19.0338 17.9996 19.0431 17.9996C19.4673 18.0002 19.8509 17.9992 20.194 17.9965C20.2631 17.9961 20.3319 17.9986 20.4005 18.0039C20.409 18.0044 20.417 18.0082 20.4228 18.0144C20.4286 18.0206 20.4318 18.0288 20.4318 18.0373C20.4314 19.0672 20.4313 20.096 20.4315 21.1237C20.4317 21.3549 20.493 21.5537 20.6156 21.7202C20.9581 22.1858 21.7322 22.0878 21.9491 21.5541C22.0042 21.4181 22.0318 21.3009 22.0318 21.2024C22.0318 20.1255 22.0346 19.0684 22.0401 18.0311C22.0401 18.0231 22.0433 18.0154 22.049 18.0097C22.0547 18.004 22.0624 18.0008 22.0704 18.0008L23.5335 17.9956C23.5395 17.9956 23.5453 17.9967 23.5508 17.9989C23.5563 18.0012 23.5613 18.0045 23.5656 18.0087C23.5698 18.0129 23.5731 18.0179 23.5754 18.0233C23.5777 18.0288 23.5789 18.0347 23.5789 18.0406C23.5787 19.1222 23.5793 20.1934 23.5807 21.2542C23.5813 21.7214 23.4667 22.1883 23.1941 22.5703Z" fill="white"/>
<path d="M25.8807 19.6747C25.8801 19.7227 25.8962 19.7292 25.9291 19.694C26.4368 19.1514 26.9425 18.6087 27.4461 18.0658C27.4892 18.0195 27.5422 17.9963 27.6051 17.9963C28.1733 17.9969 28.7313 17.9968 29.279 17.996C29.3172 17.996 29.3552 17.9991 29.393 18.0055C29.3969 18.0062 29.4006 18.0078 29.4037 18.0104C29.4068 18.0129 29.4092 18.0161 29.4107 18.0198C29.4122 18.0236 29.4128 18.0276 29.4123 18.0315C29.4118 18.0355 29.4103 18.0393 29.408 18.0425C29.3819 18.0781 29.3443 18.1007 29.3139 18.1335C28.601 18.9078 27.8831 19.6903 27.1603 20.481C27.1219 20.5231 27.1215 20.5654 27.1591 20.6079L29.449 23.1931C29.4531 23.1978 29.4557 23.2035 29.4566 23.2096C29.4575 23.2157 29.4566 23.2219 29.4541 23.2276C29.4515 23.2332 29.4474 23.2379 29.4422 23.2413C29.437 23.2446 29.431 23.2464 29.4248 23.2464C28.8499 23.2468 28.2697 23.247 27.6842 23.247C27.6015 23.247 27.4924 23.2559 27.4333 23.1876C26.9954 22.6813 26.5605 22.1768 26.1285 21.674C26.0552 21.5886 25.9806 21.506 25.9046 21.4261C25.9005 21.4218 25.8957 21.4192 25.8902 21.4182C25.8875 21.4176 25.8846 21.4177 25.8819 21.4184C25.8792 21.4191 25.8766 21.4204 25.8745 21.4222C25.8724 21.4241 25.8707 21.4264 25.8696 21.429C25.8685 21.4315 25.868 21.4343 25.8681 21.4372C25.872 21.498 25.8742 21.5532 25.8746 21.6026C25.8785 22.0547 25.8789 22.5555 25.8758 23.1049C25.8758 23.1398 25.8841 23.176 25.8804 23.2097C25.8793 23.219 25.8748 23.2276 25.8678 23.2338C25.8608 23.2401 25.8518 23.2436 25.8424 23.2437C25.4131 23.2486 24.9478 23.2488 24.4464 23.2443C24.4186 23.2441 24.4047 23.2301 24.4047 23.2023L24.4014 18.0263C24.4014 18.0191 24.4042 18.0121 24.4093 18.007C24.4143 18.0019 24.4212 17.999 24.4283 17.999C24.8738 17.9994 25.3068 17.9994 25.7275 17.999C25.7739 17.999 25.8189 18.0008 25.8626 18.0042C25.8682 18.0046 25.8734 18.0071 25.8772 18.0112C25.881 18.0153 25.8831 18.0207 25.8832 18.0263C25.8868 18.6557 25.886 19.2052 25.8807 19.6747Z" fill="white"/>
</g>
<defs>
<clipPath id="clip0_18001_37147">
<rect width="28" height="15.6849" fill="white" transform="translate(6.5 12.1576)"/>
</clipPath>
</defs>
</svg>
