<svg width="41" height="40" viewBox="0 0 41 40" fill="none" xmlns="http://www.w3.org/2000/svg">
<circle cx="20" cy="20" r="20" fill="#F6F8FA"/>
<g clip-path="url(#clip0_17713_27872)">
<path d="M29.0955 15.1592C29.0955 15.1592 29.1061 15.127 29.0903 15.1109C28.6265 14.7133 28.2366 14.3963 27.7571 14.047C26.0603 12.7952 24.1527 12.4406 22.0343 12.9886C21.6022 13.1014 21.0911 13.2895 20.4956 13.5528C19.9054 13.816 19.194 14.1921 18.3562 14.681C17.3708 15.2559 16.1166 16.0618 14.599 17.1149C13.661 17.765 12.8706 18.2539 11.9115 18.8234C11.1421 19.2801 10.5098 19.6293 9.61924 19.7905C9.02378 19.898 8.5179 19.6992 8.23335 19.1726C7.30064 17.4641 10.7258 15.4064 11.8219 14.7724C13.2763 13.9288 14.6042 13.1874 16.1008 12.6555C16.1219 12.6501 16.143 12.6555 16.1535 12.6824C16.1535 12.6931 16.1535 12.6985 16.1535 12.7092C16.1482 12.7415 16.1271 12.7683 16.1061 12.8006C15.4632 13.585 14.736 14.4984 13.9245 15.5407C13.9087 15.5622 13.877 15.5675 13.856 15.546C13.856 15.546 13.8507 15.5407 13.8454 15.5353L13.4818 14.998C13.4818 14.998 13.4608 14.9819 13.4449 14.9873C13.2131 15.1055 12.8021 15.3419 12.2013 15.6965C11.5057 16.1156 10.9366 16.4916 10.4993 16.8355C10.0724 17.174 9.77206 17.4372 9.59289 17.6199C9.419 17.8026 8.87623 18.4258 9.09229 18.6945C9.1766 18.7965 9.27672 18.8395 9.39265 18.8234C9.76152 18.7751 10.1515 18.6407 10.552 18.4258C11.5532 17.8886 12.6229 17.2492 13.6083 16.5669C14.2038 16.1532 14.9204 15.6696 15.7635 15.1162C17.4762 13.9879 19.1097 12.9832 20.9066 12.2955C22.8406 11.5595 25.0485 11.5165 26.935 12.4137C28.1523 12.994 29.2536 13.9127 30.2706 14.8637C30.297 14.8852 30.3286 14.8959 30.3655 14.8906C31.5564 14.6864 32.7737 14.6757 34.0173 14.8583C34.0436 14.8583 34.0647 14.8906 34.0595 14.9174C34.0595 14.9282 34.0595 14.9336 34.0489 14.9389C34.0331 14.9604 34.0015 14.9765 33.9488 14.9873C32.8211 15.2183 31.7777 15.4332 30.8134 15.6428C30.7765 15.6481 30.7554 15.6857 30.7607 15.718L31.4826 19.2532C31.4932 19.3016 31.4616 19.3499 31.4141 19.3607L29.7068 19.726C29.6594 19.7368 29.6119 19.726 29.5698 19.6992L27.6042 18.4796C27.5621 18.4527 27.5515 18.399 27.5726 18.356L27.9942 17.6468C28.0153 17.6092 28.0627 17.5984 28.0996 17.6199L29.7595 18.6515C29.7964 18.673 29.8385 18.6837 29.8807 18.673L30.2812 18.587C30.3181 18.5816 30.3391 18.544 30.3339 18.5064L29.8175 15.9812C29.8122 15.9544 29.7806 15.9329 29.7542 15.9383L26.3185 16.9161C26.3185 16.9161 26.2816 16.9161 26.271 16.8892C26.271 16.8731 26.271 16.8624 26.2816 16.8516C26.8876 16.2767 27.267 15.9221 27.4303 15.7824C27.5463 15.6857 27.736 15.589 27.9995 15.4923C28.3894 15.3526 28.7319 15.2505 29.0376 15.1753C29.0586 15.1753 29.0692 15.1646 29.0797 15.1485L29.0955 15.1592Z" fill="#29245D"/>
<path d="M16.7228 24.4272C16.7228 24.8785 16.8756 25.2653 17.1813 25.5823C17.8505 26.2861 18.9729 26.3506 19.8319 26.0175C20.0005 25.953 20.3641 25.7327 20.5591 25.8026C20.9279 25.9315 20.8489 26.4527 20.8489 26.8664C20.8489 27.0383 20.7962 27.1941 20.6276 27.2801C19.9425 27.6132 19.1047 27.7368 18.309 27.7421C16.3381 27.7583 14.7625 26.5709 14.752 24.4379C14.7415 22.3049 16.3065 21.1068 18.2773 21.1014C19.073 21.1014 19.9109 21.2089 20.6012 21.5366C20.7751 21.6172 20.8278 21.773 20.8278 21.945C20.8331 22.3587 20.9174 22.8798 20.5538 23.0141C20.3588 23.084 20.0005 22.8691 19.8266 22.81C18.9677 22.4876 17.8452 22.5628 17.1813 23.272C16.8809 23.5944 16.7281 23.9812 16.7334 24.4325L16.7228 24.4272Z" fill="#29245D"/>
<path d="M26.4032 25.4749C26.4032 25.4266 26.3663 25.3943 26.3241 25.3943C26.3241 25.3943 26.3189 25.3943 26.3136 25.3943C25.8867 25.4481 25.6391 25.3513 25.5653 25.0935C25.5495 25.0451 25.5442 24.8678 25.5495 24.5562C25.5495 24.3681 25.5864 24.2499 25.6496 24.1908C25.7497 24.1102 25.8657 24.0673 26.0079 24.0673C26.2662 24.0673 26.7773 24.0673 27.5309 24.0673C27.8154 24.0673 28.0789 24.1479 28.0789 24.4702C28.0894 25.3728 28.0947 26.1573 28.0842 26.8288C28.0789 27.2211 27.7416 27.3554 27.4044 27.4521C26.6192 27.6724 25.8024 27.7637 24.9593 27.7261C24.1952 27.6939 23.4153 27.4521 22.8199 26.9793C21.708 26.0928 21.4551 24.5777 21.8661 23.2291C21.9978 22.7939 22.1981 22.4393 22.4563 22.1599C23.194 21.3863 24.2479 21.08 25.3229 21.0854C26.1292 21.0854 26.7773 21.1767 27.2726 21.3594C27.5414 21.4561 27.9208 21.4346 27.9524 21.8322C27.9893 22.3319 28.0262 23.1055 27.2779 22.7832C26.6877 22.5307 25.7392 22.4125 25.0963 22.5951C24.4429 22.7832 23.8949 23.2614 23.7262 23.9276C23.5998 24.4219 23.6472 24.8839 23.8632 25.303C24.3006 26.1626 25.423 26.3775 26.3083 26.1573C26.3557 26.1465 26.3926 26.0982 26.3926 26.0498V25.4803L26.4032 25.4749Z" fill="#29245D"/>
<path d="M9.99897 24.0028C9.99897 24.0028 10.0095 24.0243 10.02 24.0243C10.0253 24.0243 10.0306 24.0243 10.0359 24.0189C10.6313 23.256 11.3164 22.3964 12.0857 21.4293C12.2175 21.2627 12.3545 21.1821 12.4967 21.1875C12.5284 21.1875 12.8182 21.1875 13.3715 21.1875C13.5928 21.1875 13.7351 21.2144 13.8036 21.2627C14.0829 21.4884 13.9511 21.7678 13.7456 22.0203C13.303 22.579 12.7339 23.3097 12.0383 24.2016C12.0278 24.2124 12.0278 24.2285 12.0383 24.2392C12.639 24.9807 13.3662 25.8833 14.2146 26.9471C14.5044 27.3124 14.1988 27.6563 13.8089 27.6616C13.5085 27.6616 13.0975 27.6616 12.5758 27.6616C12.4599 27.6616 12.3439 27.5864 12.228 27.4414C10.8368 25.7006 10.1044 24.7819 10.0253 24.6852C10.02 24.6798 10.0095 24.6798 9.99897 24.6852C9.99897 24.6852 9.9937 24.6905 9.9937 24.6959C10.0148 25.5878 10.02 26.442 9.99897 27.2641C9.99897 27.4467 9.89358 27.5757 9.69334 27.6455C9.66172 27.6563 9.6301 27.6616 9.59848 27.6616C8.9029 27.667 8.51296 27.6616 8.43391 27.6509C8.31798 27.6348 8.21786 27.5703 8.12828 27.4521C8.1072 27.4252 8.09666 27.393 8.09139 27.3608C8.08085 27.1835 8.07031 27.0706 8.07031 27.0223C8.07031 23.5891 8.07031 21.8483 8.07031 21.8054C8.07031 21.7946 8.07031 21.7248 8.08085 21.5851C8.09666 21.3111 8.25475 21.1821 8.54457 21.1821C8.80805 21.1821 9.09788 21.1821 9.40878 21.1821C9.77765 21.1821 9.99897 21.252 9.99897 21.6657C10.0042 22.5522 9.99897 23.3312 9.9937 24.0028H9.99897Z" fill="#29245D"/>
<path d="M30.5501 21.1821H30.5448C30.0093 21.1821 29.5752 21.6247 29.5752 22.1707V26.6677C29.5752 27.2137 30.0093 27.6563 30.5448 27.6563H30.5501C31.0856 27.6563 31.5197 27.2137 31.5197 26.6677V22.1707C31.5197 21.6247 31.0856 21.1821 30.5501 21.1821Z" fill="#29245D"/>
</g>
<circle cx="20" cy="20" r="19.5" stroke="black" stroke-opacity="0.05"/>
<defs>
<clipPath id="clip0_17713_27872">
<rect width="27" height="17" fill="white" transform="translate(8.03516 11.7368)"/>
</clipPath>
</defs>
</svg>
