<svg width="40" height="40" viewBox="0 0 40 40" fill="none" xmlns="http://www.w3.org/2000/svg">
<circle cx="20" cy="20" r="20" fill="#ED1C29"/>
<g clip-path="url(#clip0_14382_19771)">
<path d="M30.1887 11.3806L29.3482 13.7912H26.7632L28.8566 15.4881L28.0953 17.8987L30.3315 16.4555L32.5676 17.8987L31.7112 15.3454L33.7887 13.7912H31.2354L30.1887 11.3806Z" fill="white"/>
<path d="M18.9921 11C17.8099 11 16.6393 11.2331 15.5473 11.686C14.4553 12.1389 13.4633 12.8027 12.6281 13.6393C11.7929 14.476 11.1309 15.4692 10.6799 16.562C10.229 17.6548 9.99793 18.8258 10 20.008C10.0084 20.5401 10.0615 21.0706 10.1586 21.5939V21.4987C10.4244 20.8955 10.777 20.3345 11.2053 19.8335C11.0546 20.468 10.9696 21.1164 10.9516 21.7683L12.5375 22.0696L11.2687 22.8467C11.1156 23.5226 11.188 24.23 11.4749 24.8608C12.3288 26.1625 13.506 27.2202 14.8914 27.9305C16.2767 28.6407 17.8227 28.9791 19.3781 28.9125C20.9335 28.8459 22.4449 28.3767 23.7645 27.5507C25.0841 26.7247 26.1667 25.5703 26.9062 24.2004C27.6458 22.8305 28.017 21.292 27.9836 19.7356C27.9502 18.1792 27.5133 16.6581 26.7156 15.3212C25.9179 13.9843 24.7868 12.8774 23.4329 12.1088C22.0791 11.3402 20.5489 10.9363 18.9921 10.9366V11ZM14.3295 27.0811L13.3621 25.7331C12.9943 25.7897 12.6199 25.7897 12.252 25.7331L12.7119 25.1621C12.4321 24.8125 12.1977 24.4288 12.0141 24.0203C12.3873 24.2954 12.7987 24.5144 13.2353 24.6705L13.9965 23.7983L14.2185 25.0353C14.5713 25.1262 14.9329 25.1794 15.2969 25.1938C14.9676 25.3999 14.6013 25.5399 14.2185 25.6062L14.3295 27.0811ZM13.8855 19.2626L13.0608 20.7057L12.8071 19.4053H11.5701C11.8339 19.0401 12.1312 18.7003 12.4582 18.3903L12.0934 16.8044L13.3304 17.6132C13.661 17.3352 14.0107 17.0808 14.3771 16.852L14.282 18.2635L15.4555 19.215L13.8855 19.2626ZM18.3577 26.8749L17.311 26.3198L16.2485 26.9066L16.6132 25.9392L15.9313 25.2414C16.296 25.2414 16.867 25.2414 16.867 25.2414L17.2793 24.2582L17.7392 25.2097C17.9771 25.2097 18.6115 25.1304 18.6115 25.1304L17.9771 25.9234L18.3577 26.8749ZM17.7709 17.3595L16.2802 18.7709L16.4546 17.185L14.8687 16.6934C15.3621 16.3341 15.8941 16.0309 16.4546 15.7895L16.6449 13.9339L17.6916 15.2661C18.2047 15.0477 18.7352 14.8726 19.2775 14.7428L18.5956 16.3287L19.5154 17.9146L17.7709 17.3595ZM23.2582 16.2018L21.4027 17.5657L21.7198 15.7736L19.7692 14.5049C20.4711 14.2804 21.1936 14.1263 21.926 14.045L22.3542 11.9991L23.4009 13.8705C24.0169 13.7973 24.6362 13.7549 25.2564 13.7436L24.3683 15.1709L25.2881 17.1533L23.2582 16.2018Z" fill="white"/>
</g>
<circle cx="20" cy="20" r="19.5" stroke="black" stroke-opacity="0.05"/>
<defs>
<clipPath id="clip0_14382_19771">
<rect width="23.7885" height="18" fill="white" transform="translate(10 11)"/>
</clipPath>
</defs>
</svg>
