<svg width="40" height="40" viewBox="0 0 40 40" fill="none" xmlns="http://www.w3.org/2000/svg">
<circle cx="20" cy="20" r="20" fill="#295DA4"/>
<path d="M36 19.9999C36 20.9024 35.5861 21.796 34.7821 22.6297C33.978 23.4635 32.7994 24.221 31.3137 24.8591C29.828 25.4973 28.0641 26.0034 26.1229 26.3488C24.1817 26.6941 22.1012 26.8719 20 26.8719C15.7565 26.8719 11.6869 26.1479 8.68629 24.8591C5.68571 23.5704 4 21.8225 4 19.9999C4 18.1774 5.68571 16.4295 8.68629 15.1407C11.6869 13.852 15.7565 13.128 20 13.128C24.2435 13.128 28.3131 13.852 31.3137 15.1407C34.3143 16.4295 36 18.1774 36 19.9999ZM20.9161 20.4442C20.9046 20.4528 20.899 20.4501 20.8992 20.4359C20.9043 19.8046 20.9058 19.2314 20.9035 18.7163C20.9032 18.6728 20.9215 18.6359 20.9493 18.6058C21.3752 18.1452 21.758 17.6253 22.0405 17.0614C22.2094 16.7243 22.3198 16.4009 22.3715 16.0912C22.4966 15.3414 22.2885 14.6747 21.6824 14.1972C21.2819 13.8817 20.7724 13.6934 20.2576 13.5909C19.7935 13.4983 19.3105 13.4541 18.8085 13.4581C17.4545 13.4687 16.0881 13.738 14.7707 14.15C13.0819 14.6779 11.485 15.416 9.98021 16.3643C9.00059 16.9818 8.06191 17.706 7.27294 18.5251C6.73303 19.0853 6.24838 19.7094 5.92002 20.3976C5.49033 21.2985 5.40645 22.3391 6.21231 23.0702C6.82092 23.6221 7.72754 23.8191 8.52624 23.8786C9.07645 23.9199 9.66016 23.908 10.2774 23.8431C11.9134 23.6708 13.6133 23.1687 15.1674 22.5008C15.26 22.4609 15.256 22.4437 15.1554 22.4493C15.1138 22.4514 15.068 22.4548 15.018 22.4596C15.0124 22.4601 15.0067 22.4593 15.0015 22.457C14.9963 22.4548 14.9917 22.4513 14.9882 22.4469C14.9847 22.4424 14.9824 22.4372 14.9814 22.4316C14.9805 22.426 14.981 22.4203 14.9828 22.4149L16.6455 17.5469C16.6496 17.5347 16.6574 17.5242 16.6678 17.5167C16.6782 17.5093 16.6908 17.5053 16.7036 17.5054L17.6972 17.5074C17.7196 17.5074 17.7312 17.5185 17.7322 17.5409L17.8352 19.9659C17.836 19.9844 17.8399 19.9851 17.847 19.9682L18.8718 17.5429C18.8765 17.5318 18.8843 17.5223 18.8943 17.5157C18.9044 17.5091 18.9162 17.5056 18.9282 17.5057L19.8975 17.5071C19.9044 17.5071 19.911 17.5098 19.9159 17.5147C19.9208 17.5196 19.9236 17.5262 19.9236 17.5331V22.4075C19.9236 22.4359 19.9378 22.4501 19.9662 22.4501L20.9496 22.4507C20.9572 22.4507 20.9647 22.4485 20.9711 22.4442C20.9775 22.4399 20.9826 22.4338 20.9856 22.4267C21.3269 21.623 21.6614 20.8293 21.9893 20.0455C21.996 20.0294 22.0079 20.0207 22.0251 20.0194C22.0279 20.0192 22.0308 20.0196 22.0335 20.0206C22.0362 20.0216 22.0387 20.0231 22.0407 20.0251C22.0428 20.0271 22.0444 20.0295 22.0454 20.0322C22.0465 20.0349 22.047 20.0377 22.0468 20.0406C22.0434 20.1085 22.0429 20.1732 22.0454 20.2347C22.0723 20.9362 22.1036 21.6654 22.1393 22.4221C22.1396 22.4296 22.1428 22.4368 22.1483 22.442C22.1538 22.4472 22.1612 22.4501 22.1688 22.4501H23.1842C23.1894 22.4502 23.1944 22.4485 23.1986 22.4455C23.2028 22.4425 23.206 22.4382 23.2077 22.4332L24.8798 17.5406C24.8808 17.5375 24.8811 17.5342 24.8806 17.531C24.8802 17.5277 24.8789 17.5247 24.877 17.522C24.8751 17.5193 24.8726 17.5172 24.8697 17.5157C24.8668 17.5142 24.8636 17.5134 24.8603 17.5134L23.8678 17.5131C23.8595 17.5131 23.8513 17.5157 23.8446 17.5205C23.8378 17.5254 23.8327 17.5322 23.83 17.54C23.5289 18.408 23.2255 19.2792 22.92 20.1537C22.9089 20.1848 22.8949 20.2159 22.8779 20.247C22.864 20.2724 22.8564 20.2706 22.8553 20.2416C22.8481 20.0629 22.8722 19.8857 22.8719 19.7042C22.8715 18.9851 22.8711 18.2644 22.8707 17.542C22.8707 17.5346 22.8678 17.5275 22.8626 17.5223C22.8574 17.517 22.8504 17.514 22.843 17.514L22.0717 17.5125C22.0601 17.5125 22.0486 17.5161 22.039 17.5227C22.0294 17.5294 22.0221 17.5388 22.0179 17.5497C21.6271 18.5813 21.2732 19.5262 20.9564 20.3844C20.9463 20.4117 20.9329 20.4316 20.9161 20.4442ZM26.8631 20.3226L26.525 22.429C26.5246 22.4317 26.5248 22.4345 26.5255 22.4372C26.5263 22.4399 26.5277 22.4424 26.5295 22.4445C26.5313 22.4466 26.5335 22.4483 26.5361 22.4495C26.5386 22.4507 26.5414 22.4513 26.5442 22.4513L27.4826 22.4501C27.4869 22.4501 27.491 22.4486 27.4943 22.4457C27.4976 22.4429 27.4999 22.439 27.5006 22.4347L28.3062 17.5412C28.3092 17.5224 28.3013 17.5131 28.2824 17.5131H27.332C27.3265 17.5131 27.3211 17.5151 27.317 17.5187C27.3128 17.5223 27.31 17.5273 27.3091 17.5329L27.0122 19.3807C27.011 19.3881 27.0072 19.3948 27.0016 19.3996C26.9959 19.4045 26.9887 19.4071 26.9813 19.4071H26.0856C26.0822 19.4071 26.0788 19.4063 26.0757 19.4049C26.0727 19.4035 26.0699 19.4014 26.0678 19.3989C26.0656 19.3963 26.064 19.3933 26.0631 19.3901C26.0622 19.3868 26.0621 19.3835 26.0627 19.3802L26.3658 17.5409C26.3664 17.5375 26.3662 17.534 26.3653 17.5307C26.3644 17.5274 26.3628 17.5244 26.3605 17.5217C26.3583 17.5191 26.3555 17.517 26.3524 17.5156C26.3492 17.5141 26.3458 17.5134 26.3423 17.5134H25.3928C25.3868 17.5134 25.381 17.5155 25.3764 17.5194C25.3719 17.5233 25.3688 17.5287 25.3679 17.5346L25.0744 19.3676C25.0726 19.3791 25.0667 19.3896 25.0578 19.3972C25.0488 19.4048 25.0375 19.4089 25.0258 19.4088L24.4461 19.4045C24.4423 19.4045 24.4385 19.4055 24.4352 19.4074C24.4319 19.4093 24.4292 19.4121 24.4273 19.4154C24.4255 19.4188 24.4246 19.4226 24.4247 19.4264C24.4248 19.4302 24.426 19.4339 24.428 19.4371C24.5926 19.6948 24.755 19.9464 24.9153 20.192C24.9565 20.255 24.9236 20.3114 24.9133 20.3767C24.8035 21.0542 24.6952 21.7369 24.5884 22.4249C24.5879 22.4281 24.5881 22.4313 24.5889 22.4344C24.5898 22.4374 24.5914 22.4403 24.5935 22.4427C24.5956 22.4451 24.5982 22.447 24.6011 22.4484C24.604 22.4497 24.6072 22.4504 24.6104 22.4504L25.5416 22.451C25.5461 22.451 25.5504 22.4494 25.5538 22.4465C25.5572 22.4436 25.5595 22.4396 25.5603 22.4353L25.9086 20.3157C25.9107 20.3033 25.9181 20.2971 25.9307 20.2971L26.8419 20.2977C26.845 20.2977 26.8481 20.2983 26.8509 20.2996C26.8537 20.3009 26.8562 20.3029 26.8582 20.3052C26.8602 20.3076 26.8617 20.3104 26.8626 20.3134C26.8634 20.3164 26.8636 20.3195 26.8631 20.3226ZM29.812 17.5128C29.8067 17.5128 29.8015 17.5144 29.7971 17.5173C29.7927 17.5203 29.7893 17.5245 29.7873 17.5294L28.5163 20.7683C28.5144 20.7733 28.511 20.7775 28.5066 20.7806C28.5022 20.7836 28.497 20.7852 28.4917 20.7852L27.9449 20.7832C27.9402 20.7832 27.9356 20.7844 27.9315 20.7867C27.9275 20.7891 27.9241 20.7925 27.9218 20.7966C27.9195 20.8007 27.9183 20.8053 27.9184 20.81C27.9185 20.8147 27.9198 20.8193 27.9223 20.8233L28.2649 21.3786C28.2671 21.3821 28.2684 21.386 28.2687 21.3901C28.2691 21.3942 28.2685 21.3983 28.2669 21.4021L27.8662 22.4155C27.8646 22.4195 27.864 22.4238 27.8645 22.4281C27.8649 22.4324 27.8665 22.4365 27.8689 22.4401C27.8713 22.4436 27.8746 22.4466 27.8784 22.4486C27.8822 22.4506 27.8865 22.4516 27.8908 22.4516L28.877 22.4501C28.8822 22.4501 28.8873 22.4486 28.8916 22.4457C28.896 22.4428 28.8993 22.4386 28.9013 22.4338L29.2005 21.6935C29.2024 21.6886 29.2058 21.6845 29.2101 21.6815C29.2144 21.6785 29.2196 21.6769 29.2248 21.6769L30.1372 21.6775C30.1438 21.6775 30.1502 21.68 30.1551 21.6845C30.16 21.689 30.163 21.6952 30.1635 21.7018L30.2193 22.4261C30.2198 22.4327 30.2228 22.4389 30.2277 22.4434C30.2326 22.4479 30.239 22.4504 30.2457 22.4504H31.1904C31.194 22.4504 31.1976 22.4497 31.2009 22.4482C31.2043 22.4468 31.2072 22.4447 31.2097 22.442C31.2122 22.4394 31.2141 22.4362 31.2153 22.4328C31.2165 22.4293 31.217 22.4257 31.2167 22.4221L30.8488 17.538C30.8483 17.5314 30.8454 17.5253 30.8405 17.5208C30.8357 17.5163 30.8294 17.5137 30.8228 17.5137L29.812 17.5128ZM18.9611 19.5216C18.9612 19.519 18.9603 19.5164 18.9587 19.5144C18.957 19.5124 18.9547 19.5111 18.9521 19.5106C18.9496 19.5102 18.9469 19.5107 18.9447 19.512C18.9425 19.5133 18.9408 19.5154 18.9399 19.5179L18.514 20.6609C18.513 20.6631 18.5129 20.6656 18.5135 20.6679C18.5141 20.6702 18.5154 20.6723 18.5173 20.6738C18.5192 20.6752 18.5215 20.676 18.5239 20.676C18.5263 20.676 18.5287 20.6753 18.5306 20.6738L18.9505 20.373C18.9519 20.372 18.953 20.3707 18.9538 20.3692C18.9546 20.3677 18.9551 20.3661 18.9551 20.3644L18.9611 19.5216ZM16.1809 22.021C16.1803 22.0226 16.1803 22.0244 16.1808 22.026C16.1812 22.0276 16.1822 22.0291 16.1834 22.0302C16.1847 22.0313 16.1863 22.032 16.188 22.0322C16.1897 22.0324 16.1914 22.0321 16.1929 22.0313L16.9841 21.6191C16.9855 21.6184 16.9866 21.6173 16.9874 21.616C16.9882 21.6147 16.9887 21.6132 16.9887 21.6116L16.9893 19.7506C16.9892 19.7486 16.9884 19.7468 16.9871 19.7453C16.9858 19.7438 16.984 19.7429 16.982 19.7426C16.9801 19.7423 16.9781 19.7427 16.9764 19.7436C16.9747 19.7446 16.9734 19.7462 16.9727 19.748L16.1809 22.021Z" fill="white"/>
<path d="M20.9162 20.4443C20.933 20.4317 20.9464 20.4118 20.9565 20.3845C21.2734 19.5262 21.6272 18.5813 22.018 17.5498C22.0222 17.5389 22.0295 17.5295 22.0391 17.5228C22.0488 17.5162 22.0602 17.5126 22.0719 17.5126L22.8431 17.514C22.8505 17.5141 22.8575 17.5171 22.8627 17.5223C22.8679 17.5276 22.8708 17.5347 22.8708 17.5421C22.8712 18.2644 22.8716 18.9852 22.872 19.7043C22.8723 19.8858 22.8482 20.063 22.8554 20.2416C22.8565 20.2706 22.8641 20.2724 22.878 20.2471C22.895 20.216 22.909 20.1848 22.9201 20.1537C23.2256 19.2793 23.529 18.4081 23.8301 17.5401C23.8328 17.5322 23.8379 17.5254 23.8447 17.5206C23.8515 17.5158 23.8596 17.5132 23.8679 17.5132L24.8604 17.5135C24.8637 17.5135 24.8669 17.5143 24.8698 17.5158C24.8727 17.5173 24.8752 17.5194 24.8771 17.5221C24.879 17.5247 24.8803 17.5278 24.8808 17.531C24.8812 17.5343 24.8809 17.5376 24.8799 17.5407L23.2078 22.4333C23.2061 22.4383 23.2029 22.4425 23.1987 22.4456C23.1945 22.4486 23.1895 22.4502 23.1843 22.4502H22.1689C22.1613 22.4502 22.1539 22.4473 22.1485 22.4421C22.143 22.4368 22.1397 22.4297 22.1394 22.4222C22.1037 21.6654 22.0724 20.9363 22.0455 20.2348C22.043 20.1733 22.0435 20.1086 22.047 20.0407C22.0471 20.0378 22.0466 20.0349 22.0455 20.0323C22.0445 20.0296 22.0429 20.0272 22.0408 20.0252C22.0388 20.0232 22.0363 20.0216 22.0336 20.0207C22.0309 20.0197 22.0281 20.0193 22.0252 20.0195C22.008 20.0208 21.9961 20.0295 21.9894 20.0455C21.6615 20.8293 21.327 21.6231 20.9857 22.4267C20.9827 22.4339 20.9776 22.44 20.9712 22.4443C20.9648 22.4485 20.9573 22.4508 20.9497 22.4508L19.9663 22.4502C19.9379 22.4502 19.9237 22.436 19.9237 22.4076V17.5332C19.9237 17.5263 19.9209 17.5197 19.916 17.5148C19.9112 17.5099 19.9045 17.5072 19.8976 17.5072L18.9283 17.5057C18.9163 17.5056 18.9045 17.5091 18.8945 17.5158C18.8844 17.5224 18.8766 17.5318 18.8719 17.5429L17.8471 19.9682C17.84 19.9852 17.8361 19.9845 17.8353 19.9659L17.7323 17.5409C17.7313 17.5186 17.7197 17.5074 17.6973 17.5074L16.7037 17.5054C16.6909 17.5054 16.6784 17.5093 16.6679 17.5168C16.6575 17.5243 16.6497 17.5348 16.6456 17.547L14.9829 22.415C14.9811 22.4204 14.9806 22.4261 14.9815 22.4317C14.9825 22.4372 14.9848 22.4425 14.9883 22.447C14.9918 22.4514 14.9964 22.4549 15.0016 22.4571C15.0068 22.4593 15.0125 22.4602 15.0181 22.4597C15.0681 22.4549 15.1139 22.4515 15.1555 22.4494C15.2561 22.4438 15.2601 22.461 15.1676 22.5009C13.6134 23.1688 11.9135 23.6709 10.2775 23.8432C9.66027 23.9081 9.07657 23.9199 8.52635 23.8787C7.72765 23.8192 6.82103 23.6222 6.21242 23.0703C5.40656 22.3391 5.49044 21.2985 5.92014 20.3976C6.24849 19.7094 6.73315 19.0854 7.27305 18.5251C8.06202 17.7061 9.0007 16.9819 9.98032 16.3644C11.4852 15.416 13.082 14.6779 14.7708 14.1501C16.0882 13.7381 17.4546 13.4687 18.8087 13.4581C19.3106 13.4541 19.7936 13.4984 20.2578 13.591C20.7725 13.6935 21.282 13.8818 21.6825 14.1973C22.2886 14.6748 22.4967 15.3415 22.3716 16.0913C22.3199 16.401 22.2096 16.7244 22.0407 17.0614C21.7581 17.6254 21.3754 18.1453 20.9494 18.6059C20.9216 18.6359 20.9033 18.6729 20.9036 18.7164C20.9059 19.2315 20.9044 19.8047 20.8993 20.436C20.8991 20.4501 20.9047 20.4529 20.9162 20.4443ZM8.48284 19.9425C8.94059 20.1804 9.42124 20.4283 9.90504 20.6816C10.0491 20.757 10.1321 20.8045 10.1541 20.8242C10.3682 21.014 10.3144 21.3409 10.059 21.4614C9.99989 21.4893 9.91773 21.5031 9.81257 21.5029C9.03105 21.5008 8.24437 21.5001 7.45255 21.5006C7.44293 21.5006 7.43355 21.5035 7.42564 21.5089C7.41772 21.5142 7.41164 21.5218 7.40817 21.5307L7.05778 22.4144C7.04633 22.4432 7.05616 22.4577 7.08726 22.4577C8.00391 22.458 8.93572 22.4574 9.88271 22.4556C10.4487 22.4548 10.9402 22.1556 11.16 21.6352C11.4266 21.0031 11.1526 20.2465 10.5457 19.9284C10.0258 19.6559 9.48689 19.3746 8.92885 19.0845C8.70642 18.9689 8.68208 18.6935 8.89049 18.5523C8.92942 18.5258 9.00156 18.5117 9.10691 18.51C9.91515 18.4972 10.6813 18.4958 11.4054 18.5057C11.452 18.5062 11.4861 18.5014 11.5064 18.4541C11.6368 18.1518 11.7641 17.8475 11.8883 17.5412C11.8906 17.5357 11.8907 17.5295 11.8885 17.5239C11.8863 17.5184 11.882 17.5139 11.8766 17.5115C11.869 17.508 11.8608 17.5063 11.8523 17.5063C10.9539 17.5063 10.0606 17.5063 9.17218 17.5063C8.80976 17.5063 8.48885 17.5847 8.21117 17.8315C7.5181 18.4467 7.66868 19.5194 8.48284 19.9425ZM12.7008 21.7028C12.7029 21.6976 12.7065 21.6932 12.7111 21.69C12.7158 21.6869 12.7212 21.6853 12.7268 21.6853H13.624C13.631 21.6853 13.6379 21.6879 13.6431 21.6927C13.6483 21.6975 13.6515 21.704 13.652 21.7111L13.7133 22.4325C13.7139 22.4395 13.7171 22.4461 13.7223 22.4508C13.7275 22.4556 13.7343 22.4582 13.7414 22.4582L14.6932 22.4574C14.6971 22.4574 14.7009 22.4566 14.7044 22.4551C14.708 22.4535 14.7112 22.4513 14.7138 22.4485C14.7164 22.4456 14.7184 22.4423 14.7197 22.4387C14.721 22.435 14.7215 22.4312 14.7213 22.4273L14.3531 17.5329C14.3526 17.5258 14.3494 17.5192 14.3442 17.5144C14.339 17.5095 14.3322 17.5069 14.3251 17.5069L13.3077 17.506C13.302 17.506 13.2965 17.5077 13.2919 17.5109C13.2873 17.514 13.2837 17.5185 13.2816 17.5238L12.0103 20.7621C12.0082 20.7674 12.0046 20.772 11.9999 20.7752C11.9952 20.7784 11.9896 20.7801 11.9839 20.7801L11.434 20.7767C11.429 20.7766 11.424 20.7779 11.4197 20.7804C11.4153 20.783 11.4117 20.7866 11.4093 20.791C11.4068 20.7954 11.4056 20.8004 11.4057 20.8054C11.4058 20.8104 11.4073 20.8153 11.41 20.8196L11.7572 21.3781C11.7595 21.3818 11.761 21.3861 11.7614 21.3904C11.7618 21.3948 11.7611 21.3992 11.7595 21.4033L11.3553 22.4199C11.3536 22.4241 11.353 22.4287 11.3535 22.4333C11.354 22.4378 11.3556 22.4422 11.3582 22.4459C11.3607 22.4497 11.3642 22.4528 11.3682 22.455C11.3723 22.4571 11.3768 22.4582 11.3813 22.4582L12.3761 22.4579C12.3817 22.458 12.3872 22.4563 12.3918 22.4532C12.3965 22.4501 12.4001 22.4457 12.4022 22.4405L12.7008 21.7028Z" fill="#295DA4"/>
<path d="M9.9051 20.6814C9.4213 20.428 8.94065 20.1801 8.4829 19.9422C7.66875 19.5191 7.51817 18.4464 8.21123 17.8312C8.48892 17.5845 8.80983 17.506 9.17225 17.506C10.0606 17.506 10.954 17.506 11.8523 17.506C11.8609 17.506 11.869 17.5078 11.8767 17.5112C11.8821 17.5136 11.8864 17.5181 11.8886 17.5237C11.8908 17.5293 11.8907 17.5355 11.8884 17.541C11.7641 17.8473 11.6369 18.1516 11.5065 18.4539C11.4862 18.5011 11.4521 18.506 11.4054 18.5054C10.6814 18.4955 9.91522 18.4969 9.10698 18.5097C9.00163 18.5114 8.92949 18.5256 8.89055 18.5521C8.68215 18.6932 8.70648 18.9686 8.92891 19.0843C9.48695 19.3743 10.0259 19.6557 10.5458 19.9282C11.1527 20.2462 11.4266 21.0028 11.1601 21.6349C10.9403 22.1554 10.4487 22.4545 9.88277 22.4554C8.93579 22.4571 8.00397 22.4578 7.08733 22.4574C7.05622 22.4574 7.04639 22.443 7.05784 22.4142L7.40824 21.5304C7.4117 21.5216 7.41779 21.514 7.4257 21.5086C7.43362 21.5033 7.443 21.5004 7.45261 21.5004C8.24444 21.4998 9.03111 21.5006 9.81263 21.5027C9.91779 21.5029 9.99995 21.489 10.0591 21.4612C10.3145 21.3406 10.3683 21.0137 10.1542 20.8239C10.1322 20.8043 10.0492 20.7568 9.9051 20.6814Z" fill="white"/>
<path d="M12.7005 21.7025L12.4019 22.4402C12.3998 22.4454 12.3962 22.4498 12.3915 22.4529C12.3869 22.456 12.3814 22.4577 12.3758 22.4577L11.381 22.4579C11.3765 22.4579 11.372 22.4568 11.3679 22.4547C11.3639 22.4525 11.3604 22.4494 11.3579 22.4457C11.3553 22.4419 11.3537 22.4375 11.3532 22.433C11.3527 22.4284 11.3533 22.4238 11.355 22.4196L11.7592 21.403C11.7608 21.399 11.7615 21.3945 11.7611 21.3902C11.7607 21.3858 11.7592 21.3816 11.7569 21.3778L11.4097 20.8193C11.407 20.8151 11.4055 20.8102 11.4054 20.8051C11.4053 20.8001 11.4065 20.7951 11.409 20.7907C11.4114 20.7863 11.415 20.7827 11.4194 20.7802C11.4237 20.7776 11.4287 20.7763 11.4337 20.7764L11.9836 20.7798C11.9893 20.7799 11.9949 20.7781 11.9996 20.7749C12.0043 20.7717 12.0079 20.7671 12.01 20.7618L13.2813 17.5235C13.2834 17.5183 13.287 17.5138 13.2916 17.5106C13.2963 17.5074 13.3017 17.5057 13.3074 17.5057L14.3248 17.5066C14.3319 17.5066 14.3387 17.5093 14.3439 17.5141C14.3491 17.5189 14.3523 17.5256 14.3528 17.5326L14.721 22.427C14.7212 22.4309 14.7207 22.4347 14.7194 22.4384C14.7182 22.442 14.7161 22.4454 14.7135 22.4482C14.7109 22.451 14.7077 22.4532 14.7041 22.4548C14.7006 22.4563 14.6968 22.4571 14.6929 22.4571L13.7411 22.4579C13.734 22.458 13.7272 22.4553 13.722 22.4506C13.7168 22.4458 13.7136 22.4392 13.713 22.4322L13.6517 21.7108C13.6512 21.7037 13.648 21.6972 13.6428 21.6924C13.6376 21.6876 13.6308 21.685 13.6237 21.685H12.7265C12.7209 21.685 12.7155 21.6867 12.7108 21.6898C12.7062 21.6929 12.7026 21.6973 12.7005 21.7025ZM13.0729 20.7672C13.0723 20.7688 13.0721 20.7704 13.0722 20.7721C13.0724 20.7737 13.073 20.7753 13.0739 20.7766C13.0749 20.778 13.0761 20.7791 13.0776 20.7799C13.0791 20.7806 13.0807 20.781 13.0824 20.781L13.5607 20.7784C13.5621 20.7784 13.5635 20.7781 13.5648 20.7776C13.566 20.777 13.5672 20.7762 13.5681 20.7752C13.5691 20.7741 13.5698 20.7729 13.5702 20.7716C13.5707 20.7703 13.5708 20.7689 13.5707 20.7675L13.4909 19.7596C13.4908 19.7572 13.4898 19.755 13.4883 19.7533C13.4867 19.7516 13.4846 19.7504 13.4823 19.7501C13.48 19.7497 13.4777 19.7502 13.4757 19.7514C13.4737 19.7526 13.4722 19.7545 13.4714 19.7567L13.0729 20.7672Z" fill="white"/>
<path d="M26.8632 20.3225C26.8637 20.3195 26.8635 20.3163 26.8627 20.3133C26.8618 20.3103 26.8604 20.3076 26.8584 20.3052C26.8563 20.3028 26.8538 20.3009 26.851 20.2996C26.8482 20.2983 26.8451 20.2976 26.842 20.2976L25.9308 20.2971C25.9182 20.2971 25.9109 20.3033 25.9088 20.3157L25.5604 22.4352C25.5596 22.4396 25.5574 22.4436 25.5539 22.4465C25.5505 22.4494 25.5462 22.451 25.5418 22.451L24.6105 22.4504C24.6073 22.4504 24.6041 22.4497 24.6012 22.4483C24.5983 22.447 24.5957 22.4451 24.5936 22.4426C24.5915 22.4402 24.5899 22.4374 24.5891 22.4343C24.5882 22.4313 24.588 22.428 24.5885 22.4249C24.6954 21.7369 24.8037 21.0541 24.9134 20.3766C24.9237 20.3114 24.9566 20.255 24.9154 20.192C24.7551 19.9464 24.5927 19.6947 24.4282 19.4371C24.4261 19.4339 24.4249 19.4302 24.4248 19.4263C24.4247 19.4225 24.4256 19.4187 24.4274 19.4154C24.4293 19.412 24.432 19.4093 24.4353 19.4073C24.4386 19.4054 24.4424 19.4044 24.4462 19.4045L25.0259 19.4088C25.0376 19.4088 25.0489 19.4047 25.0579 19.3972C25.0668 19.3896 25.0727 19.3791 25.0746 19.3675L25.368 17.5345C25.3689 17.5286 25.372 17.5232 25.3765 17.5194C25.3811 17.5155 25.3869 17.5133 25.3929 17.5133H26.3425C26.3459 17.5133 26.3494 17.5141 26.3525 17.5155C26.3556 17.517 26.3584 17.5191 26.3607 17.5217C26.3629 17.5243 26.3645 17.5274 26.3654 17.5307C26.3664 17.534 26.3665 17.5375 26.3659 17.5408L26.0628 19.3801C26.0622 19.3834 26.0623 19.3868 26.0632 19.39C26.0641 19.3933 26.0657 19.3963 26.0679 19.3988C26.0701 19.4014 26.0728 19.4035 26.0759 19.4049C26.0789 19.4063 26.0823 19.407 26.0857 19.407H26.9814C26.9888 19.4071 26.996 19.4044 27.0017 19.3996C27.0073 19.3948 27.0111 19.3881 27.0123 19.3807L27.3092 17.5328C27.3101 17.5273 27.3129 17.5223 27.3171 17.5187C27.3213 17.5151 27.3266 17.5131 27.3321 17.5131H28.2825C28.3014 17.5131 28.3093 17.5224 28.3063 17.5411L27.5007 22.4346C27.5 22.439 27.4978 22.4429 27.4945 22.4457C27.4912 22.4485 27.487 22.4501 27.4827 22.4501L26.5443 22.4512C26.5415 22.4512 26.5387 22.4506 26.5362 22.4495C26.5337 22.4483 26.5314 22.4466 26.5296 22.4445C26.5278 22.4423 26.5264 22.4399 26.5257 22.4372C26.5249 22.4345 26.5247 22.4317 26.5251 22.4289L26.8632 20.3225Z" fill="#295DA4"/>
<path d="M29.8119 17.5128L30.8227 17.5137C30.8293 17.5137 30.8357 17.5163 30.8405 17.5208C30.8453 17.5253 30.8483 17.5314 30.8488 17.538L31.2166 22.4221C31.2169 22.4257 31.2164 22.4294 31.2152 22.4328C31.214 22.4362 31.2121 22.4394 31.2097 22.442C31.2072 22.4447 31.2042 22.4468 31.2009 22.4483C31.1975 22.4497 31.1939 22.4504 31.1903 22.4504H30.2456C30.239 22.4504 30.2325 22.4479 30.2277 22.4434C30.2228 22.4389 30.2198 22.4327 30.2193 22.4261L30.1635 21.7018C30.1629 21.6952 30.1599 21.689 30.1551 21.6845C30.1502 21.68 30.1438 21.6775 30.1371 21.6775L29.2248 21.6769C29.2195 21.677 29.2144 21.6785 29.2101 21.6815C29.2057 21.6845 29.2024 21.6886 29.2004 21.6935L28.9013 22.4338C28.8993 22.4386 28.8959 22.4428 28.8916 22.4457C28.8873 22.4486 28.8822 22.4501 28.8769 22.4501L27.8907 22.4516C27.8864 22.4516 27.8822 22.4506 27.8784 22.4486C27.8745 22.4466 27.8713 22.4436 27.8688 22.4401C27.8664 22.4365 27.8649 22.4324 27.8644 22.4281C27.8639 22.4238 27.8645 22.4195 27.8661 22.4155L28.2669 21.4021C28.2684 21.3983 28.269 21.3942 28.2687 21.3901C28.2683 21.3861 28.267 21.3821 28.2649 21.3786L27.9222 20.8233C27.9198 20.8193 27.9184 20.8147 27.9184 20.81C27.9183 20.8053 27.9195 20.8007 27.9218 20.7966C27.9241 20.7925 27.9274 20.7891 27.9315 20.7867C27.9355 20.7844 27.9402 20.7832 27.9448 20.7832L28.4916 20.7852C28.497 20.7852 28.5022 20.7836 28.5066 20.7806C28.511 20.7776 28.5143 20.7733 28.5162 20.7683L29.7873 17.5294C29.7892 17.5245 29.7926 17.5203 29.797 17.5173C29.8014 17.5144 29.8066 17.5128 29.8119 17.5128ZM29.572 20.7614C29.5709 20.7642 29.5704 20.7672 29.5707 20.7701C29.5711 20.7731 29.5721 20.776 29.5738 20.7784C29.5754 20.7809 29.5777 20.7829 29.5803 20.7843C29.583 20.7857 29.5859 20.7864 29.5889 20.7863L30.0621 20.784C30.0646 20.784 30.067 20.7835 30.0693 20.7825C30.0715 20.7814 30.0735 20.78 30.0752 20.7782C30.0769 20.7763 30.0781 20.7742 30.0789 20.7719C30.0797 20.7695 30.0801 20.767 30.0799 20.7646L29.9994 19.7744C29.999 19.7703 29.9973 19.7666 29.9946 19.7637C29.9918 19.7607 29.9881 19.7588 29.9841 19.7582C29.9801 19.7576 29.9761 19.7584 29.9726 19.7604C29.969 19.7624 29.9663 19.7655 29.9648 19.7692L29.572 20.7614Z" fill="#295DA4"/>
<path d="M18.9612 19.5217L18.9552 20.3645C18.9551 20.3662 18.9547 20.3678 18.9539 20.3693C18.9531 20.3708 18.952 20.3721 18.9506 20.3731L18.5306 20.6739C18.5287 20.6754 18.5264 20.6762 18.524 20.6761C18.5216 20.6761 18.5193 20.6753 18.5174 20.6739C18.5155 20.6724 18.5141 20.6703 18.5135 20.668C18.5129 20.6657 18.5131 20.6633 18.514 20.661L18.94 19.518C18.9408 19.5155 18.9425 19.5134 18.9448 19.5121C18.947 19.5108 18.9496 19.5103 18.9522 19.5107C18.9548 19.5112 18.9571 19.5125 18.9587 19.5145C18.9604 19.5165 18.9612 19.5191 18.9612 19.5217Z" fill="#295DA4"/>
<path d="M16.1811 22.0212L16.9729 19.7482C16.9736 19.7464 16.9749 19.7448 16.9766 19.7438C16.9783 19.7429 16.9803 19.7425 16.9822 19.7428C16.9842 19.7431 16.986 19.744 16.9873 19.7455C16.9886 19.747 16.9894 19.7488 16.9895 19.7508L16.9889 21.6118C16.9889 21.6134 16.9885 21.6149 16.9877 21.6162C16.9869 21.6175 16.9857 21.6186 16.9844 21.6193L16.1931 22.0315C16.1916 22.0323 16.1899 22.0326 16.1882 22.0324C16.1865 22.0322 16.1849 22.0315 16.1837 22.0304C16.1824 22.0293 16.1814 22.0278 16.181 22.0262C16.1805 22.0245 16.1806 22.0228 16.1811 22.0212Z" fill="#295DA4"/>
<path d="M13.073 20.7675L13.4715 19.757C13.4722 19.7548 13.4738 19.7529 13.4757 19.7517C13.4777 19.7505 13.4801 19.75 13.4824 19.7504C13.4847 19.7507 13.4868 19.7518 13.4884 19.7535C13.4899 19.7553 13.4908 19.7575 13.4909 19.7598L13.5708 20.7678C13.5709 20.7692 13.5708 20.7706 13.5703 20.7719C13.5699 20.7732 13.5691 20.7744 13.5682 20.7754C13.5673 20.7764 13.5661 20.7773 13.5648 20.7778C13.5636 20.7784 13.5622 20.7787 13.5608 20.7787L13.0824 20.7812C13.0808 20.7813 13.0792 20.7809 13.0777 20.7801C13.0762 20.7794 13.075 20.7783 13.074 20.7769C13.0731 20.7755 13.0725 20.774 13.0723 20.7723C13.0721 20.7707 13.0724 20.769 13.073 20.7675Z" fill="#295DA4"/>
<path d="M29.5722 20.7615L29.9649 19.7692C29.9665 19.7655 29.9692 19.7624 29.9727 19.7604C29.9762 19.7584 29.9803 19.7577 29.9843 19.7583C29.9883 19.7588 29.9919 19.7608 29.9947 19.7637C29.9975 19.7666 29.9992 19.7704 29.9996 19.7744L30.08 20.7646C30.0802 20.7671 30.0799 20.7695 30.0791 20.7719C30.0783 20.7742 30.077 20.7764 30.0754 20.7782C30.0737 20.78 30.0717 20.7815 30.0694 20.7825C30.0672 20.7835 30.0647 20.784 30.0623 20.7841L29.5891 20.7864C29.5861 20.7864 29.5831 20.7857 29.5805 20.7843C29.5778 20.7829 29.5756 20.7809 29.5739 20.7785C29.5722 20.776 29.5712 20.7731 29.5709 20.7702C29.5706 20.7672 29.571 20.7642 29.5722 20.7615Z" fill="white"/>
<circle cx="20" cy="20" r="19.5" stroke="black" stroke-opacity="0.05"/>
</svg>
