<svg width="40" height="40" viewBox="0 0 40 40" fill="none" xmlns="http://www.w3.org/2000/svg">
<circle cx="20" cy="20" r="20" fill="#1E1E23"/>
<g clip-path="url(#clip0_17713_28091)">
<path d="M5.03516 17H5.1608L6.02746 17.0744C6.10952 17.0821 6.16336 17.1231 6.19157 17.2026L7.289 20.3949C7.32746 20.5103 7.36849 20.5103 7.40695 20.3974L8.54028 17.1205C8.5531 17.0846 8.58644 17.0615 8.6249 17.0615H9.589C9.61977 17.059 9.64541 17.0846 9.64541 17.1154C9.64541 17.1205 9.64541 17.1282 9.64285 17.1333L7.44028 23.4667C7.37875 23.6436 7.31721 23.6436 7.25567 23.4667L5.03516 17.0949V17Z" fill="white"/>
<path d="M27.5043 17H27.5402C27.6249 17.3077 27.6351 17.6179 27.571 17.9282C27.5531 18.0154 27.5018 18.059 27.412 18.059L24.9428 18.0513C24.8915 18.0513 24.8659 18.0769 24.8659 18.1308L24.8736 19.6615C24.8736 19.7128 24.9146 19.7538 24.9659 19.7538H27.4146C27.4633 19.7538 27.489 19.7795 27.489 19.8282V20.6615C27.489 20.7205 27.4608 20.7513 27.3992 20.7513L24.9684 20.7436C24.912 20.7436 24.8659 20.7872 24.8633 20.8436C24.8633 20.8436 24.8633 20.8462 24.8633 20.8487L24.871 22.5051C24.871 22.5641 24.9018 22.5949 24.9633 22.5949L27.7197 22.6C27.7838 22.6 27.8146 22.6308 27.8146 22.6949L27.8249 23.4795C27.8249 23.5487 27.7915 23.5821 27.7223 23.5821H23.8864C23.7761 23.5846 23.7197 23.5282 23.7197 23.4154L23.7249 17.2026C23.7249 17.1154 23.7684 17.0718 23.8556 17.0692L27.5043 17Z" fill="white"/>
<path d="M34.9426 17H35.0349V23.5692L34.9683 23.5744C34.9503 23.5744 34.9375 23.5692 34.9272 23.559L30.8195 19.8256C30.7939 19.8 30.7503 19.8 30.7247 19.8256C30.7119 19.8385 30.7067 19.8538 30.7067 19.8718V23.4744C30.7067 23.5385 30.676 23.5718 30.6093 23.5718L29.5965 23.5872C29.5272 23.5872 29.4913 23.5513 29.4913 23.4821V17.1385C29.4888 17.0923 29.5247 17.0564 29.5683 17.0538C29.5888 17.0538 29.6119 17.0615 29.6272 17.0769L33.7042 20.7692C33.7324 20.7949 33.7734 20.7923 33.799 20.7641C33.8093 20.7513 33.817 20.7359 33.817 20.7179V17.2077C33.817 17.1282 33.858 17.0872 33.9375 17.0795L34.9426 17Z" fill="white"/>
<path d="M12.3451 17.0615H11.381C11.3286 17.0615 11.2861 17.104 11.2861 17.1564V23.4897C11.2861 23.5421 11.3286 23.5846 11.381 23.5846H12.3451C12.3975 23.5846 12.44 23.5421 12.44 23.4897V17.1564C12.44 17.104 12.3975 17.0615 12.3451 17.0615Z" fill="white"/>
<path d="M16.4656 20.3231L17.5682 17.1179C17.581 17.082 17.6143 17.0564 17.6528 17.0564L18.5707 17.0667C18.6195 17.0667 18.6605 17.1077 18.6605 17.1564C18.6605 17.1667 18.6605 17.1743 18.6554 17.1846L16.4656 23.4795C16.4502 23.5256 16.399 23.5513 16.3502 23.5333C16.3246 23.5231 16.3041 23.5051 16.2964 23.4795L14.1041 17.182C14.0887 17.1359 14.1143 17.0846 14.1605 17.0692C14.1682 17.0667 14.1784 17.0641 14.1887 17.0641H15.1066C15.1451 17.0641 15.1784 17.0872 15.1913 17.1231L16.2964 20.3231C16.3118 20.3692 16.3631 20.3949 16.4118 20.3769C16.4374 20.3667 16.4579 20.3487 16.4656 20.3231Z" fill="white"/>
<path d="M21.402 17.0615H20.4122C20.3712 17.0615 20.3379 17.0948 20.3379 17.1359V23.5051C20.3379 23.5462 20.3712 23.5795 20.4122 23.5795H21.402C21.4431 23.5795 21.4764 23.5462 21.4764 23.5051V17.1359C21.4764 17.0948 21.4431 17.0615 21.402 17.0615Z" fill="white"/>
</g>
<circle cx="20" cy="20" r="19.5" stroke="black" stroke-opacity="0.05"/>
<defs>
<clipPath id="clip0_17713_28091">
<rect width="30" height="6.6" fill="white" transform="translate(5.03516 17)"/>
</clipPath>
</defs>
</svg>
