<svg width="40" height="40" viewBox="0 0 40 40" fill="none" xmlns="http://www.w3.org/2000/svg">
<circle cx="20" cy="20" r="20" fill="#00215B"/>
<circle cx="20" cy="20" r="19.5" stroke="black" stroke-opacity="0.05"/>
<path d="M10.5036 19.8865C10.5076 19.8861 10.5114 19.8849 10.5149 19.883C10.5184 19.8811 10.5214 19.8785 10.5239 19.8754C10.5263 19.8723 10.5281 19.8688 10.5292 19.865C10.5302 19.8612 10.5304 19.8572 10.5299 19.8534C10.4276 19.1216 9.96165 18.8375 9.29223 18.7889C8.45911 18.7291 7.67687 18.8796 6.94551 19.2405C6.93586 19.2454 6.92513 19.2477 6.91433 19.2472C6.90353 19.2467 6.89303 19.2434 6.88381 19.2377C6.8746 19.232 6.86697 19.224 6.86166 19.2145C6.85635 19.205 6.85354 19.1943 6.85347 19.1834C6.85386 18.7493 6.84376 18.291 6.82318 17.8085C6.82051 17.7433 6.85176 17.6972 6.91693 17.6702C7.8579 17.2809 8.98924 17.1602 10.0154 17.2386C10.3532 17.2643 10.6934 17.3477 11.0181 17.4455C11.0301 17.4491 11.0427 17.4502 11.0551 17.4488C11.0675 17.4473 11.0795 17.4433 11.0903 17.4371C11.1012 17.4308 11.1106 17.4224 11.118 17.4123C11.1255 17.4023 11.1308 17.3908 11.1336 17.3786C11.5938 15.3863 12.6851 13.5776 14.1714 12.1764C15.7192 10.7175 17.5514 9.80434 19.6681 9.43694C20.0229 9.37558 20.3888 9.33519 20.7657 9.31575C22.9983 9.20141 25.0439 9.71154 26.9026 10.8461C29.5763 12.4788 31.3593 15.208 31.8721 18.2881C32.0154 19.1498 32.0383 20.0988 31.9407 21.1351C31.906 21.5059 31.8456 21.8801 31.7595 22.2578C31.3574 24.0205 30.623 25.559 29.5563 26.8735C28.2978 28.4235 26.6886 29.5196 24.7285 30.1618C22.7902 30.7971 20.7731 30.8666 18.6774 30.3704C16.6197 29.8837 14.8205 28.845 13.2796 27.2542C12.2502 26.1917 11.432 24.9615 10.8249 23.5635C10.8062 23.5201 10.7774 23.5117 10.7386 23.5384C9.82445 24.1684 8.66167 24.4296 7.56749 24.1489C6.83918 23.9626 6.2052 23.4246 6.05485 22.6683C5.90507 21.916 6.04856 21.0745 6.65282 20.5731C6.97105 20.3098 7.34892 20.1259 7.78644 20.0214C8.52466 19.8454 9.34253 19.8014 10.2401 19.8894C10.3273 19.8982 10.4152 19.8972 10.5036 19.8865ZM23.1215 19.1788L23.0941 17.7776C23.0936 17.7563 23.0996 17.7353 23.1112 17.7174C23.1229 17.6996 23.1396 17.6857 23.1593 17.6776C23.3765 17.5873 23.601 17.5135 23.8327 17.4564C24.4886 17.2948 25.1279 17.2138 25.7507 17.2134C26.5739 17.2128 27.5023 17.4032 28.1145 17.9343C28.5978 18.3543 28.8745 18.8886 28.9446 19.5372C28.9785 19.8528 28.9917 20.151 28.984 20.4319C28.9684 20.9803 28.9507 21.5453 28.9309 22.1269C28.9118 22.6803 28.9812 23.2201 29.139 23.7465C29.1637 23.8299 29.1956 23.8328 29.2344 23.755C29.4048 23.4149 29.5123 23.0633 29.6192 22.706C30.0605 21.2342 30.1426 19.7619 29.8656 18.2893C29.4181 15.9096 28.2471 13.9652 26.3526 12.4559C24.7485 11.1777 22.7259 10.4985 20.6782 10.4602C20.1528 10.4505 19.568 10.5123 19.0552 10.6009C16.6451 11.0182 14.6738 12.1981 13.1413 14.1407C12.5639 14.8724 12.0951 15.7246 11.735 16.6972C11.6269 16.9876 11.5629 17.2969 11.4331 17.5833C11.4309 17.5882 11.4306 17.5937 11.4323 17.5989C11.434 17.6041 11.4375 17.6085 11.4423 17.6113C11.972 17.9291 12.3162 18.3282 12.4747 18.8084C12.6554 19.3555 12.7371 20.0014 12.8743 20.5988C13.1447 21.7788 13.8879 22.5814 15.1267 22.6923C15.5023 22.7255 16.3444 22.8083 16.5788 22.423C16.8394 21.996 16.3392 21.6844 15.9716 21.5644C15.5406 21.4234 15.1425 21.2968 14.7774 21.1848C14.4001 21.0693 13.9931 20.8772 13.7415 20.5731C13.3705 20.1255 13.2991 19.4675 13.4208 18.9061C13.6638 17.7868 14.8986 17.2774 15.9333 17.2265C16.8095 17.1835 17.6537 17.2908 18.4658 17.5484C18.547 17.5736 18.5693 17.6576 18.563 17.7319C18.523 18.1984 18.4756 18.6742 18.4207 19.1594C18.4196 19.1681 18.4165 19.1764 18.4115 19.1836C18.4066 19.1909 18.3999 19.1968 18.3922 19.2008C18.3845 19.2049 18.3759 19.207 18.3672 19.2069C18.3585 19.2069 18.35 19.2047 18.3424 19.2005C17.6346 18.8206 16.853 18.6963 15.9974 18.8278C15.8716 18.8472 15.6955 18.921 15.6195 19.0267C15.3548 19.3978 15.8562 19.6579 16.1591 19.7562C16.5273 19.8755 16.8836 19.9776 17.2282 20.0626C17.612 20.1571 17.9239 20.2774 18.164 20.4233C18.9369 20.8932 19.1004 21.8154 18.9037 22.6586C18.6596 23.7047 17.6758 24.11 16.6942 24.2192C15.9716 24.2997 15.1782 24.2793 14.3138 24.1581C14.1514 24.1352 13.9948 24.1022 13.8439 24.0592C13.8337 24.0561 13.8228 24.0568 13.813 24.0609C13.8032 24.0651 13.7951 24.0726 13.7901 24.082C13.7768 24.1076 13.7787 24.1306 13.7959 24.1512C13.8058 24.1634 13.8145 24.1762 13.8222 24.1895C14.6854 25.6991 15.8552 26.8508 17.3316 27.6447C20.4473 29.3203 24.3078 28.9207 27.0175 26.6346C27.8232 25.9546 28.4996 25.1392 29.0469 24.1884C29.0568 24.1716 29.053 24.159 29.0355 24.1506C28.9787 24.1224 28.9168 24.1083 28.8497 24.1083C28.2552 24.1083 27.6541 24.1078 27.0466 24.1066C26.9803 24.1066 26.9445 24.0735 26.9392 24.0071C26.9163 23.7122 26.9136 23.4359 26.9312 23.1782C26.9346 23.1275 26.9119 23.1096 26.8631 23.1245C26.8528 23.1274 26.8441 23.1339 26.8386 23.1428C26.6186 23.4835 26.3374 23.7556 25.9948 23.9591C25.4362 24.2918 24.7622 24.3141 24.1208 24.2124C23.5747 24.1255 23.1288 23.9042 22.7831 23.5487C22.519 23.2765 22.358 22.9638 22.3 22.6106C22.18 21.8845 22.3166 21.1019 22.866 20.6171C23.1743 20.345 23.5362 20.1558 23.9516 20.0495C24.8347 19.8231 25.7537 19.7804 26.7088 19.9214C26.7203 19.9231 26.732 19.9222 26.7431 19.9186C26.7542 19.9151 26.7643 19.909 26.7727 19.9009C26.7811 19.8928 26.7876 19.8828 26.7915 19.8718C26.7955 19.8608 26.7969 19.849 26.7957 19.8374C26.7145 19.1033 26.2114 18.8244 25.534 18.7878C24.7171 18.7438 23.9253 18.8684 23.2284 19.2417C23.2175 19.2476 23.2052 19.2505 23.1927 19.2503C23.1802 19.25 23.1681 19.2466 23.1573 19.2403C23.1466 19.234 23.1377 19.225 23.1314 19.2142C23.1251 19.2035 23.1217 19.1913 23.1215 19.1788ZM9.38255 21.1019C8.87662 21.1202 8.26036 21.2603 8.17518 21.8428C8.09457 22.4002 8.55477 22.6757 9.05327 22.6934C9.91706 22.7237 10.4419 22.0023 10.5236 21.2054C10.525 21.1907 10.5206 21.176 10.5113 21.1646C10.502 21.1531 10.4885 21.1458 10.4739 21.1442C10.0977 21.1031 9.73394 21.089 9.38255 21.1019ZM24.4753 22.1898C24.5844 22.6014 25.1373 22.7243 25.5106 22.6872C25.7674 22.6612 25.9818 22.5816 26.1537 22.4482C26.5413 22.1481 26.8077 21.6599 26.7854 21.1602C26.7842 21.137 26.772 21.125 26.7488 21.1242C26.4157 21.1116 26.1062 21.1031 25.8204 21.0985C25.462 21.0922 24.956 21.1522 24.6908 21.3912C24.4606 21.5981 24.3887 21.8643 24.4753 22.1898Z" fill="#5CB531"/>
<path d="M20.6338 16.8767C21.2792 16.8767 21.8023 16.3535 21.8023 15.7082C21.8023 15.0628 21.2792 14.5397 20.6338 14.5397C19.9885 14.5397 19.4653 15.0628 19.4653 15.7082C19.4653 16.3535 19.9885 16.8767 20.6338 16.8767Z" fill="#5CB531"/>
<path d="M21.7131 17.3696H19.5556C19.506 17.3696 19.4658 17.4098 19.4658 17.4593V24.0187C19.4658 24.0683 19.506 24.1084 19.5556 24.1084H21.7131C21.7626 24.1084 21.8028 24.0683 21.8028 24.0187V17.4593C21.8028 17.4098 21.7626 17.3696 21.7131 17.3696Z" fill="#5CB531"/>
</svg>
