<svg width="40" height="40" viewBox="0 0 40 40" fill="none" xmlns="http://www.w3.org/2000/svg">
<circle cx="20" cy="20" r="20" fill="#00A1E9"/>
<g clip-path="url(#clip0_16523_10732)">
<path d="M27.1739 15.095L27.1694 15.1181L27.1828 15.1227L27.1873 15.0996L27.1739 15.095Z" fill="white"/>
<path d="M27.21 14.9284C27.21 14.9284 27.21 14.9284 27.219 14.9376V14.9191C27.219 14.9191 27.219 14.9191 27.2056 14.9238H27.21V14.9284Z" fill="white"/>
<path d="M27.1965 15.169C27.1965 15.169 27.2054 15.1551 27.2099 15.1459C27.1965 15.1459 27.201 15.1459 27.192 15.1505V15.1598H27.1965V15.169Z" fill="white"/>
<path d="M27.2591 15.3032L27.2635 15.294V15.2986L27.268 15.2754L27.2457 15.2708L27.2412 15.294H27.2501V15.2986L27.2591 15.3032Z" fill="white"/>
<path d="M27.2855 15.1042H27.2632C27.2632 15.1042 27.2632 15.1181 27.281 15.1274V15.1042H27.2855Z" fill="white"/>
<path d="M27.1743 14.8682C27.1743 14.8682 27.1743 14.8821 27.1788 14.8914H27.1877C27.1877 14.8914 27.1743 14.9052 27.2056 14.9191V14.9006H27.1966V14.8775H27.1743V14.8682Z" fill="white"/>
<path d="M27.2588 15.058V15.0719C27.2588 15.0719 27.2588 15.0719 27.2722 15.0719H27.2633C27.2633 15.0719 27.2633 15.0719 27.2588 15.0626V15.058Z" fill="white"/>
<path d="M27.2499 15.0024L27.2455 14.9978C27.2455 15.0256 27.241 15.0256 27.2633 15.0395C27.2633 15.0209 27.2633 15.0163 27.2499 15.0071V15.0024Z" fill="white"/>
<path d="M27.2234 14.9423H27.219L27.2056 14.9654H27.219L27.2234 14.9423Z" fill="white"/>
<path d="M27.9998 18.3019H27.9909V18.2834C27.9819 18.2556 27.9819 18.2418 27.9909 18.2047H27.9775C27.9775 18.2047 27.9819 18.177 27.9775 18.1677H27.9686L27.973 18.1353H27.9641V18.0983V18.089H27.9819V18.0798L27.9686 18.0705C27.9775 18.0243 27.9819 17.978 27.9864 17.9317H27.9686C27.9686 17.9317 27.9686 17.8993 27.9686 17.8808C27.9507 17.8715 27.9552 17.8715 27.9418 17.8623L27.9507 17.816H27.9462V17.7929H27.9373V17.7836H27.9418C27.9418 17.7836 27.9552 17.7512 27.9596 17.7327L27.9462 17.7235C27.9462 17.7235 27.9462 17.6864 27.9462 17.6726H27.9373C27.9373 17.6726 27.9507 17.6448 27.9507 17.6355L27.9373 17.6263V17.6031L27.9284 17.5939V17.58H27.9239V17.5476C27.9239 17.5476 27.9239 17.5384 27.9195 17.5337C27.9105 17.5106 27.9016 17.4921 27.9105 17.4597H27.9239V17.4551C27.9061 17.4504 27.9239 17.4273 27.9239 17.4088L27.8971 17.381L27.9061 17.3301L27.8927 17.3209C27.8927 17.3209 27.9016 17.2977 27.9061 17.2838C27.8971 17.2792 27.8927 17.27 27.8838 17.2653C27.8882 17.2514 27.8927 17.2422 27.8971 17.2283H27.8882C27.8882 17.2283 27.8882 17.2098 27.8704 17.2005C27.8704 17.1867 27.8704 17.1682 27.8704 17.1496H27.8793L27.8882 17.1126H27.8748C27.8793 17.0849 27.8882 17.0617 27.8927 17.034L27.8391 17.0247C27.8391 17.0247 27.8391 16.9553 27.8257 16.946H27.8123C27.8123 16.946 27.8123 16.9368 27.8213 16.9275C27.8213 16.8998 27.8257 16.8998 27.8034 16.8859V16.8488C27.8034 16.8488 27.7945 16.8488 27.79 16.8396H27.7811C27.7811 16.8396 27.7945 16.8118 27.7945 16.8026H27.79C27.79 16.8026 27.79 16.7656 27.79 16.747C27.7677 16.7378 27.7677 16.7285 27.7543 16.7193V16.6961H27.7409C27.7499 16.673 27.7588 16.6499 27.7633 16.6267H27.732C27.732 16.6267 27.732 16.6036 27.732 16.5943C27.732 16.5943 27.7409 16.5943 27.7365 16.5804C27.7365 16.5804 27.7365 16.5481 27.7365 16.5249H27.7142C27.7142 16.5249 27.7142 16.4879 27.7186 16.4648C27.6918 16.4601 27.6963 16.4555 27.6829 16.4462V16.3861C27.6829 16.3861 27.674 16.3768 27.6651 16.3768V16.3676H27.6561L27.6651 16.312H27.6561C27.6561 16.312 27.6561 16.2935 27.6383 16.2843L27.6517 16.2195H27.6338L27.6472 16.1871C27.6338 16.1778 27.6249 16.1686 27.607 16.1593C27.607 16.1362 27.5981 16.1408 27.5981 16.1177H27.5847C27.5937 16.0853 27.5937 16.0899 27.607 16.076C27.6026 16.076 27.5937 16.0668 27.5892 16.0668C27.5892 16.0205 27.5713 15.9881 27.5847 15.9372L27.5624 15.928C27.5624 15.928 27.5624 15.9048 27.5624 15.8956H27.5401C27.5401 15.8585 27.5267 15.8354 27.5222 15.803H27.5044C27.5044 15.803 27.5044 15.7799 27.5044 15.7706H27.4955V15.7521H27.4865L27.491 15.7105C27.4776 15.7058 27.4865 15.7105 27.4776 15.7012C27.4642 15.6827 27.4687 15.6596 27.4776 15.6318H27.4642C27.4642 15.6318 27.4642 15.6133 27.4642 15.604C27.4553 15.5994 27.4508 15.5901 27.4419 15.5855V15.567V15.53C27.4419 15.53 27.433 15.5115 27.4241 15.5022V15.4791L27.4151 15.4698C27.4017 15.4513 27.3928 15.4328 27.3973 15.3958H27.3839C27.3839 15.3634 27.3839 15.3403 27.375 15.3125C27.366 15.294 27.3527 15.2986 27.3482 15.2616C27.3303 15.2523 27.3348 15.2523 27.3214 15.2431V15.2153C27.3214 15.2153 27.3125 15.2153 27.308 15.1875H27.2679V15.1737H27.2634C27.2634 15.2061 27.2634 15.2153 27.2723 15.2431H27.2812L27.2723 15.2894C27.2946 15.2986 27.2991 15.3079 27.3125 15.3171C27.308 15.3403 27.3125 15.3495 27.3125 15.3726C27.2902 15.368 27.2857 15.3634 27.2768 15.3495C27.2589 15.3403 27.2589 15.3495 27.2589 15.3264C27.2366 15.3264 27.2366 15.3264 27.2188 15.331C27.2188 15.3495 27.2143 15.3495 27.2188 15.3634H27.2277V15.3819L27.2366 15.3912C27.2366 15.4004 27.2277 15.4097 27.2232 15.4189L27.2455 15.4328C27.2411 15.4745 27.2634 15.4698 27.2634 15.5068H27.2812C27.2812 15.5068 27.2812 15.5161 27.2679 15.5254C27.2679 15.5531 27.2768 15.5624 27.2857 15.5809H27.2946C27.2946 15.5809 27.2946 15.6087 27.2946 15.6225C27.2946 15.6225 27.3036 15.6272 27.308 15.6318C27.308 15.6688 27.317 15.7058 27.317 15.7382H27.3393L27.3303 15.7752H27.3527C27.3437 15.8076 27.3437 15.8169 27.366 15.8262C27.366 15.8678 27.3705 15.8724 27.366 15.9141H27.3884C27.3884 15.9141 27.3884 15.9326 27.4017 15.9372C27.3973 15.9511 27.3928 15.965 27.3839 15.9789H27.3928C27.3928 15.9789 27.3928 15.9974 27.3928 16.0205H27.4107C27.4107 16.0436 27.4107 16.0529 27.433 16.0575L27.4241 16.0946C27.4241 16.0946 27.4017 16.0946 27.4062 16.1223H27.4151V16.1408H27.4196V16.1547H27.4241C27.4241 16.1593 27.4241 16.1686 27.4241 16.1778C27.4151 16.1871 27.4241 16.1778 27.4151 16.1917H27.4285V16.2149H27.4464C27.4464 16.2149 27.4464 16.2334 27.4464 16.2426H27.4508L27.4285 16.2797H27.4375V16.3167H27.4598V16.3306H27.4642L27.4553 16.3907H27.4687C27.4687 16.3907 27.4687 16.4092 27.4508 16.4139V16.4277C27.4508 16.4277 27.4687 16.4277 27.4732 16.4277V16.4694C27.4732 16.4694 27.4865 16.4786 27.491 16.4879L27.4821 16.5342H27.4865V16.5481H27.491V16.5712C27.491 16.5804 27.491 16.5851 27.491 16.5897H27.5089C27.5089 16.5897 27.5267 16.6452 27.5267 16.6776H27.5401C27.5401 16.6776 27.5312 16.6915 27.5267 16.71H27.5446V16.7378C27.5446 16.7378 27.5223 16.7378 27.5267 16.7563L27.5401 16.7656V16.7979L27.549 16.8072C27.549 16.8211 27.5401 16.8211 27.5356 16.835C27.5223 16.835 27.5089 16.835 27.4955 16.835V16.8165C27.4955 16.8165 27.4776 16.8165 27.4642 16.8257H27.4464C27.4464 16.8257 27.4598 16.8118 27.4598 16.8026C27.4598 16.8026 27.4508 16.7933 27.4464 16.7841L27.3884 16.7748C27.3884 16.7748 27.3884 16.7563 27.3884 16.747H27.3839V16.7332H27.375C27.375 16.7332 27.3839 16.7146 27.3884 16.71H27.3973L27.3884 16.7008L27.3973 16.6499H27.375L27.3884 16.6082H27.3973C27.3973 16.6082 27.3973 16.5851 27.3973 16.5712H27.3884L27.3973 16.5527C27.3973 16.5434 27.3973 16.5342 27.3973 16.5203H27.375L27.3794 16.4972C27.3482 16.4833 27.3348 16.4555 27.3125 16.437V16.4139L27.2857 16.4092V16.3907H27.3036C27.308 16.3722 27.3125 16.3583 27.3214 16.3491L27.3482 16.3583C27.3482 16.3583 27.3616 16.3259 27.366 16.312C27.3616 16.3028 27.3482 16.2935 27.3437 16.2843C27.3437 16.2704 27.3571 16.2611 27.3571 16.2611C27.3571 16.2426 27.3527 16.2426 27.3527 16.2426V16.2056C27.3527 16.2056 27.3527 16.201 27.3482 16.1964C27.3482 16.1825 27.375 16.1501 27.3794 16.1408V16.1131C27.3794 16.1131 27.3437 16.0899 27.3214 16.076V16.0668C27.3214 16.0668 27.308 16.0622 27.3036 16.0575V16.0436L27.2857 16.0251V16.0113C27.2857 16.0113 27.2812 16.002 27.2768 16.002V15.9927L27.2455 15.9789V15.9696L27.2232 15.9418V15.9187C27.2232 15.9187 27.2411 15.9187 27.25 15.9187L27.2589 15.9233V15.8956H27.2366C27.2366 15.8771 27.2366 15.8771 27.2277 15.8632C27.2143 15.8585 27.2009 15.8539 27.1831 15.8493C27.1964 15.8215 27.2098 15.8262 27.2322 15.8123H27.2455V15.7845C27.2455 15.7845 27.2322 15.7845 27.2366 15.7567H27.2455L27.2634 15.6781H27.2545V15.6549C27.2411 15.6318 27.2366 15.6457 27.2411 15.6133H27.2188L27.2366 15.53L27.2098 15.5068L27.2188 15.4559H27.2143C27.2143 15.4559 27.2009 15.4236 27.1831 15.4143V15.4004L27.1474 15.3958C27.1563 15.3912 27.1607 15.3912 27.1741 15.3865V15.3634C27.1741 15.3541 27.1831 15.3449 27.1875 15.3356C27.1786 15.331 27.1741 15.3217 27.1652 15.3171V15.3032L27.1563 15.294C27.1607 15.2847 27.1652 15.2755 27.1697 15.2662C27.1518 15.2292 27.1384 15.1968 27.1206 15.1552H27.0983L27.1027 15.1274H27.0804C27.0804 15.1274 27.0893 15.0996 27.0938 15.0904H27.1072L27.1117 15.0626C27.125 15.0626 27.1161 15.0626 27.125 15.058C27.134 15.0533 27.125 15.058 27.134 15.0441C27.1206 15.0256 27.134 15.0256 27.1117 15.0163C27.1117 14.9978 27.1117 14.9886 27.1117 14.9793H27.1027V14.9608H27.0938L27.1027 14.9469C27.1027 14.9377 27.1027 14.9284 27.1027 14.9191C27.0849 14.9099 27.0849 14.9053 27.0715 14.8914H27.0536H27.0313V14.8775C27.0224 14.8775 27.0135 14.8775 27.009 14.8775C27.009 14.859 27.009 14.8405 27.009 14.822C27.0045 14.822 26.9911 14.8127 26.9867 14.8127C26.9956 14.7896 27.0045 14.7664 27.0135 14.7479H27.0313C27.0313 14.7479 27.0313 14.7294 27.0135 14.7155H27.0001V14.7063H26.9911L26.9956 14.6831L26.9778 14.6646V14.6415C26.9778 14.6415 26.9644 14.623 26.951 14.6137V14.5998H26.9376V14.6415L26.8974 14.6276C26.9064 14.6091 26.9108 14.6091 26.9242 14.5998C26.9242 14.5628 26.9108 14.5536 26.9108 14.5212C26.9019 14.5212 26.8885 14.5119 26.884 14.5073C26.8885 14.4934 26.884 14.5027 26.8885 14.4934C26.8885 14.4795 26.8885 14.461 26.8885 14.4471H26.8796V14.4379C26.8796 14.4379 26.8617 14.4471 26.8573 14.4471H26.8439C26.8439 14.4471 26.8394 14.4147 26.8349 14.4009H26.8305V14.387H26.826V14.4101L26.7948 14.4055V14.4147C26.768 14.4055 26.7725 14.4055 26.7546 14.3916V14.3685L26.7903 14.3731V14.3592H26.8171C26.8171 14.3407 26.8082 14.3361 26.8037 14.3361C26.8037 14.3268 26.8126 14.3222 26.8171 14.3176C26.8171 14.3176 26.8082 14.3129 26.8037 14.3083C26.8037 14.3037 26.8216 14.2944 26.8171 14.2805H26.8082C26.8171 14.2435 26.8171 14.2343 26.7992 14.2157L26.768 14.2111C26.768 14.2111 26.7591 14.1972 26.7546 14.1926V14.1695H26.768C26.7725 14.1371 26.768 14.1232 26.7412 14.1093V14.0908L26.701 14.0815L26.7814 13.8039H26.7278C26.6609 13.7206 26.6564 13.7021 26.6341 13.5401C26.4556 13.4568 26.4199 13.2856 26.3931 13.2671C26.2369 13.1051 26.2324 13.082 26.1342 12.9154C26.0851 12.8969 26.0361 12.8784 25.987 12.8691L25.9111 12.7303C25.8486 12.6886 25.8531 12.6424 25.7772 12.6007L25.7504 12.5406L25.6522 12.4804C25.6255 12.4017 25.5005 12.3508 25.4693 12.2675C25.2149 12.2259 25.2684 12.0685 25.0542 12.0639C25.0363 12.05 25.0185 12.0408 25.0006 12.0269C25.0006 12.0176 24.9962 12.013 24.9917 12.0084C24.9828 12.0084 24.9783 12.0084 24.9739 12.0084C24.9649 12.0038 24.956 11.9991 24.9515 11.9945L24.9962 11.9853L24.9828 11.9205H24.9203C24.9292 11.8557 24.898 11.8742 24.9114 11.8094C24.8489 11.7909 24.7641 11.74 24.7061 11.7215C24.7061 11.7215 24.6971 11.6891 24.6793 11.6798L24.6659 11.6891L24.6347 11.6659H24.6079C24.6079 11.6659 24.5811 11.6428 24.5543 11.6058L24.6213 11.5688L24.5945 11.5225C24.5677 11.5271 24.5454 11.5364 24.5186 11.5364C24.4294 11.5225 24.4428 11.4716 24.4115 11.3929L24.3713 11.4161C24.3446 11.3883 24.3222 11.3652 24.2999 11.3374L24.2598 11.3605C24.2598 11.3605 24.2598 11.3559 24.2553 11.3513C24.233 11.3143 24.2151 11.3096 24.1794 11.2819C24.1616 11.268 24.1482 11.2448 24.1303 11.231C24.1303 11.2171 24.1214 11.2078 24.1125 11.2032C24.0991 11.2032 24.0857 11.2032 24.0768 11.2032C24.05 11.1986 24.05 11.1754 24.0188 11.1708C24.0098 11.1708 24.0009 11.1754 23.9875 11.1847C23.9786 11.1801 23.9741 11.1754 23.9697 11.1662C23.9741 11.1291 23.9741 11.0829 23.9697 11.0551C23.9474 11.0597 23.9161 11.0736 23.8938 11.0644C23.8581 11.0551 23.867 11.0181 23.8402 11.0042C23.8001 10.9718 23.7822 11.0135 23.7421 11.0042C23.7197 11.0042 23.7108 10.9672 23.693 10.9533C23.6751 10.9348 23.6483 10.9302 23.6305 10.9117C23.5948 10.8654 23.6126 10.8376 23.5501 10.8284C23.5234 10.8237 23.51 10.8191 23.4832 10.8284C23.4743 10.8284 23.4653 10.833 23.4609 10.8376C23.452 10.833 23.4475 10.833 23.443 10.8191C23.443 10.8191 23.4698 10.7867 23.443 10.7636H23.3895L23.3672 10.7173L23.3225 10.7451C23.2824 10.7265 23.2467 10.708 23.211 10.6895L23.1886 10.7034C23.1485 10.6803 23.1619 10.6294 23.1217 10.6247C23.0681 10.6479 23.0101 10.6664 22.9566 10.6895L22.9432 10.6664L22.9655 10.6525L22.9521 10.6294L23.019 10.5923C23.0101 10.56 23.0012 10.5229 22.9967 10.4905L22.9744 10.5044C22.9209 10.4859 22.8539 10.5044 22.787 10.5229L22.7513 10.4535C22.6932 10.4674 22.6888 10.4628 22.6397 10.4535L22.6263 10.4304C22.5415 10.4304 22.5951 10.5044 22.5058 10.4119C22.4255 10.4489 22.4255 10.4258 22.3764 10.4396C22.3719 10.4396 22.3674 10.4396 22.363 10.4304C22.3139 10.4119 22.2648 10.4026 22.2112 10.3934C22.2023 10.3795 22.1934 10.3656 22.18 10.3563L22.1577 10.3749C22.1577 10.3749 22.1309 10.361 22.1175 10.3517C22.1041 10.3517 22.0907 10.3471 22.0729 10.3425V10.3239C22.0372 10.3101 22.0193 10.3147 22.0015 10.3239C21.9702 10.3054 21.9345 10.2869 21.9033 10.273C21.8944 10.2592 21.8854 10.2499 21.8765 10.2314C21.8408 10.236 21.8096 10.2407 21.7872 10.2407C21.756 10.2036 21.7158 10.1851 21.6667 10.1851C21.6489 10.1712 21.6355 10.1574 21.6132 10.1388C21.5909 10.1944 21.5462 10.1805 21.5195 10.199C21.4748 10.2083 21.4347 10.2129 21.39 10.2175L21.3543 10.2083L21.2785 10.1342C21.1624 10.1897 21.1356 10.0879 21.033 10.0741L20.9884 10.0046L20.7518 10.1065L20.7027 10.0555C20.6135 10.0555 20.6536 10.0046 20.551 10.0509L20.4662 10.0417L20.3948 9.99539L20.3501 9.98613C20.301 10.0602 20.2787 9.97688 20.2296 10.037L20.1136 10.0046C19.9708 10.0602 20.0065 10.0879 19.8369 9.98151C19.7387 10.0694 19.6985 10.0741 19.6004 10.0879L19.5602 10.037C19.3593 10.0602 19.4441 10.2129 19.1183 10.1018C18.9711 10.2083 19.0112 10.0694 18.922 10.2175C18.855 10.1897 18.8149 10.2268 18.739 10.1897L18.5739 10.2869L18.3373 10.2545C18.3418 10.3239 18.0918 10.3517 18.1454 10.4258C17.9222 10.472 17.9758 10.361 17.8062 10.5044L17.6902 10.4767C17.5964 10.4767 17.5831 10.5091 17.5206 10.5322L17.5875 10.5646L17.5518 10.597C17.4938 10.5923 17.4402 10.5877 17.3867 10.5831C17.3688 10.5923 17.3554 10.597 17.3376 10.6016C17.0966 10.6571 17.0029 10.6155 17.0118 10.7173H16.9047C16.86 10.597 16.8824 10.833 16.7976 10.6942C16.7262 10.708 16.6681 10.7682 16.5967 10.796C16.5476 10.7821 16.4896 10.708 16.4405 10.6849L16.2174 11.0412L16.1638 11.0088L16.2129 10.9533L16.1549 10.9117C16.1281 10.9764 16.0969 11.0366 16.0746 11.106L16.0121 11.0644L15.8648 11.1939C15.7354 11.1986 15.6104 11.2356 15.5033 11.2587L15.4274 11.379C15.3694 11.379 15.3158 11.379 15.2623 11.379C15.2355 11.4577 15.1641 11.7261 15.0302 11.8603C14.9856 11.8788 14.9365 11.8881 14.8829 11.9112L14.8115 12.1102C14.758 12.1241 14.7312 12.1842 14.691 12.1935C14.691 12.2213 14.6776 12.2444 14.6642 12.2675H14.6419L14.5973 12.286L14.6553 12.2953C14.6553 12.2953 14.6464 12.3231 14.6419 12.3416C14.5928 12.3508 14.5393 12.3647 14.4991 12.374L14.4545 12.4758L14.3875 12.4619C14.267 12.5544 14.3161 12.5544 14.3072 12.6609C14.2804 12.6516 14.2492 12.6701 14.2179 12.6979C14.1242 12.721 14.0349 12.721 13.9992 12.8923H13.9055L13.8832 13.0357H13.7895C13.7582 13.1607 13.8386 13.2162 13.8386 13.244C13.8386 13.244 13.7538 13.2532 13.7359 13.3689C13.6154 13.3504 13.6377 13.4383 13.5128 13.4152L13.4101 13.5864H13.5083L13.4503 13.6558C13.4235 13.6743 13.3967 13.6882 13.3699 13.6975H13.3119V13.7345C13.3075 13.7345 13.303 13.7391 13.2985 13.7437C13.2896 13.753 13.2852 13.7622 13.2807 13.7715L13.1245 13.8178C13.1646 13.989 13.1245 13.9797 13.1557 14.0121C13.1423 14.0399 13.1289 14.063 13.1156 14.0862H13.0486C13.0486 14.151 13.0441 14.1926 13.0486 14.225C13.0174 14.2713 12.9906 14.3268 12.9549 14.3731C12.9326 14.4518 12.8478 14.4888 12.9058 14.5767C12.8879 14.623 12.8701 14.6785 12.8433 14.7248H12.7987V14.7849C12.7808 14.7942 12.7585 14.8081 12.7317 14.8127C12.7317 14.8312 12.7228 14.8544 12.7183 14.8682C12.6425 14.8821 12.7183 14.8682 12.6246 14.9191H12.5666L12.5487 15.2616C12.5487 15.2616 12.5264 15.2523 12.4863 15.3819L12.5264 15.4698C12.4997 15.5763 12.4818 15.6781 12.4863 15.7799C12.464 15.9002 12.3211 15.9511 12.3345 16.0714C12.3345 16.076 12.3345 16.076 12.3345 16.0807L12.3122 16.1131C12.3434 16.2797 12.2587 16.4185 12.2096 16.5619C12.1917 16.6267 12.3033 16.6915 12.1962 16.7285C12.1381 16.7979 12.2006 16.8766 12.2096 16.946C12.272 17.0154 12.3301 17.0895 12.3881 17.1635C12.3881 17.1774 12.3792 17.1867 12.3702 17.1959C12.339 17.2191 12.3122 17.1959 12.2854 17.2329C12.2676 17.2607 12.2319 17.2931 12.2587 17.3162C12.272 17.3301 12.281 17.3255 12.2854 17.3394C12.2899 17.3533 12.2854 17.3718 12.2854 17.381C12.2587 17.381 12.2542 17.3486 12.2229 17.3579C12.2229 17.3718 12.214 17.3856 12.2096 17.3995C12.2274 17.4088 12.2453 17.418 12.2587 17.4227C12.2854 17.5106 12.1828 17.5569 12.1828 17.6031C12.1828 17.6448 12.2274 17.6309 12.2319 17.654V17.7559C12.2765 17.7512 12.3167 17.742 12.3568 17.7327V17.7882C12.2899 17.7882 12.2542 17.7975 12.2096 17.8068C12.2096 17.8068 12.2096 17.8114 12.2096 17.816C12.2185 17.8253 12.2363 17.8253 12.2497 17.8345C12.272 17.853 12.2587 17.8947 12.2408 17.9132C12.2229 17.9317 12.2051 17.9178 12.1872 17.941C12.1783 17.9502 12.156 18.0104 12.1605 18.0196C12.1694 18.0428 12.2274 18.0335 12.2363 18.0474C12.2408 18.0613 12.2229 18.1029 12.214 18.1122C12.1739 18.1353 12.1783 18.089 12.1605 18.0705C12.156 18.0659 12.1515 18.0705 12.1426 18.0659V18.0937H12.1337C12.1337 18.0937 12.1426 18.1122 12.1426 18.1261C12.1426 18.1168 12.1248 18.1076 12.1203 18.0983C12.0846 18.1029 12.0444 18.1168 12.0132 18.1214C12.0266 18.1862 12.0667 18.2094 12.1069 18.2279C12.1069 18.2418 12.1024 18.251 12.1024 18.2649L12.1203 18.2371H12.1069C12.1024 18.2649 12.0846 18.2834 12.0757 18.3019C12.0667 18.325 12.0623 18.3436 12.0757 18.3621C12.0935 18.3806 12.1292 18.3806 12.1426 18.4037C12.156 18.4176 12.1426 18.4546 12.1337 18.4731C12.1203 18.5055 12.1158 18.5148 12.1158 18.5518C12.1158 18.5749 12.1069 18.6073 12.1158 18.6351C12.1248 18.6629 12.1605 18.6675 12.1739 18.6906C12.1739 18.7091 12.1739 18.7276 12.1739 18.7323L12.1515 18.7369V18.7924C12.1515 18.7924 12.1158 18.8063 12.1024 18.8202C12.0935 18.9035 12.0846 18.9914 12.0757 19.0747H12.1248C12.1471 19.158 12.1739 19.1626 12.1739 19.2783C12.2006 19.2876 12.2229 19.2968 12.2497 19.3061C12.2408 19.3755 12.2319 19.4449 12.2229 19.5143C12.2408 19.5236 12.2587 19.5282 12.2765 19.5421V19.593H12.2988C12.2899 19.63 12.281 19.6624 12.2765 19.6994H12.2497C12.2319 19.7596 12.2587 19.8244 12.2765 19.8522H12.2988V19.9817H12.3256V20.0049C12.3881 20.028 12.3792 19.9678 12.4015 19.9586H12.4282C12.4282 19.9586 12.4372 19.991 12.4327 20.0049C12.4104 20.0049 12.3925 20.0049 12.3792 20.0049C12.339 20.0234 12.3658 20.0743 12.3792 20.0974C12.397 20.1252 12.397 20.1483 12.4015 20.1715C12.3925 20.1715 12.3836 20.1807 12.3792 20.1853C12.3613 20.1946 12.3345 20.227 12.3658 20.2409C12.3836 20.2455 12.397 20.2409 12.4149 20.2316C12.4149 20.2779 12.4149 20.3149 12.4506 20.3519C12.4818 20.3797 12.522 20.3982 12.522 20.4445C12.522 20.4861 12.4818 20.5093 12.522 20.5463C12.5666 20.5879 12.5845 20.5694 12.5889 20.6388C12.5889 20.7175 12.6335 20.6851 12.6871 20.699C12.7005 20.7638 12.5666 20.8054 12.6693 20.8425C12.6693 20.8841 12.6157 20.9443 12.638 20.9813C12.6514 21.0044 12.696 20.9813 12.705 21.0229C12.705 21.0414 12.705 21.06 12.705 21.0738C12.705 21.097 12.7183 21.1062 12.7273 21.1247C12.7451 21.1571 12.7362 21.1849 12.7451 21.2173C12.7898 21.2358 12.8522 21.2173 12.8433 21.2775C12.8388 21.3052 12.8031 21.3607 12.8076 21.3885C12.8121 21.4117 12.8388 21.407 12.8567 21.407C12.8746 21.4533 12.8255 21.4996 12.8478 21.5505C12.8567 21.5505 12.8656 21.5505 12.8746 21.5505C12.8879 21.5875 12.8612 21.6477 12.879 21.6801C12.9058 21.7124 12.9504 21.6847 12.9817 21.6939C12.9951 21.7495 12.9727 21.7911 12.9995 21.842C13.0174 21.8744 13.0441 21.9531 13.0843 21.9485C13.0843 21.9855 13.1066 21.9808 13.12 22.004C13.1245 22.0179 13.1245 22.0364 13.12 22.0503C13.12 22.0734 13.1289 22.078 13.1334 22.0919C13.1423 22.1058 13.1423 22.115 13.1334 22.1243C13.1423 22.1474 13.1557 22.1474 13.1691 22.1659C13.1959 22.2076 13.1379 22.2446 13.12 22.2724C13.12 22.2955 13.1602 22.2955 13.178 22.3048C13.2182 22.3233 13.2227 22.3279 13.245 22.3696C13.2628 22.3927 13.2718 22.3973 13.2762 22.4251C13.2807 22.4529 13.2718 22.4806 13.2762 22.5084C13.2985 22.513 13.3298 22.5038 13.3476 22.513C13.3744 22.5315 13.3566 22.5547 13.361 22.5778C13.3699 22.6102 13.3923 22.6426 13.428 22.6426C13.4414 22.6889 13.4369 22.7398 13.4503 22.7814C13.4771 22.786 13.5038 22.7814 13.5351 22.7814C13.544 22.8138 13.5262 22.8647 13.5485 22.8925C13.5574 22.9017 13.5663 22.9064 13.5752 22.9064V22.9665H13.5976V22.9943C13.6288 22.9758 13.6422 22.9711 13.6868 22.9665C13.6868 22.9711 13.6913 22.9758 13.6957 22.9804C13.6868 23.0267 13.6779 23.0776 13.6734 23.1285C13.7493 23.1285 13.8073 23.1331 13.8475 23.1794V23.2303C13.8698 23.221 13.8921 23.2164 13.9189 23.2072V23.2303C13.9591 23.2581 13.9635 23.2673 14.0171 23.2812V23.3321H14.0394V23.3599H14.0171V23.4617C14.0394 23.4709 14.0662 23.4802 14.093 23.4848C14.0751 23.5357 14.093 23.5079 14.0662 23.5357C14.093 23.5681 14.0662 23.545 14.1153 23.5635C14.1287 23.6607 14.1465 23.6329 14.1644 23.7208C14.1956 23.7301 14.2313 23.7393 14.2626 23.7486C14.2759 23.7949 14.2626 23.7717 14.2893 23.7949V23.8226C14.325 23.8134 14.3563 23.8041 14.3875 23.7949L14.4143 23.9013H14.566V23.98H14.5393C14.6151 24.0771 14.7892 24.1003 14.8874 24.1095C14.8829 24.1373 14.8695 24.1651 14.8651 24.1882H14.8874C14.9052 24.2437 14.9231 24.29 14.9409 24.3455C15.0123 24.3641 15.0079 24.3918 15.0168 24.3964C15.0748 24.4196 15.0838 24.3733 15.115 24.3687V24.3964C15.1596 24.4242 15.1507 24.4103 15.1641 24.4751C15.2132 24.4844 15.2623 24.4936 15.3114 24.4983C15.3203 24.5214 15.3292 24.5353 15.3381 24.5492C15.3783 24.5399 15.4185 24.5306 15.4631 24.526V24.5492C15.5122 24.5815 15.5077 24.5908 15.5881 24.6001V24.6787H15.6863V24.6556H15.7086C15.7086 24.6556 15.7264 24.688 15.7309 24.7065C15.7889 24.7435 15.7889 24.7157 15.8559 24.7065V24.7574C15.8826 24.7667 15.905 24.7713 15.9317 24.7805C15.963 24.8222 15.9898 24.8638 16.021 24.9055C16.0478 24.9888 16.0701 25.0674 16.0924 25.1507C16.1504 25.1924 16.2129 25.2248 16.2932 25.2063C16.4584 25.3775 16.6771 25.4145 16.86 25.5395C16.9359 25.558 17.0207 25.5811 17.0743 25.6598C17.1814 25.5996 17.2483 25.7107 17.3421 25.7061C17.4045 25.8171 17.5384 25.794 17.65 25.8171C17.7393 25.8264 17.7616 25.9976 17.8598 25.9143C17.9758 25.9143 18.0918 25.993 18.2034 26.0346C18.3016 26.0022 18.4489 26.03 18.5248 26.104C18.6542 26.0254 18.7792 26.1827 18.9264 26.1364C19.0335 26.2243 19.1317 26.1179 19.2478 26.1873C19.404 26.229 19.4932 26.2243 19.645 26.2706L19.6539 26.2891C19.7923 26.2105 19.8726 26.4326 20.011 26.4187C20.0377 26.2984 20.0957 26.1966 20.1582 26.0994C20.2296 26.0578 20.3457 26.067 20.4126 26.1225C20.5644 26.0392 20.6759 26.2567 20.85 26.1734C21.0865 26.4927 21.5016 26.3169 21.7917 26.3169C21.9613 26.3632 22.113 26.1457 22.2603 26.2429C22.4835 26.0207 22.6799 26.3308 22.9119 26.1873C23.019 26.0763 23.0726 25.9374 23.1128 25.7662C23.1752 25.7246 23.2377 25.6089 23.3047 25.6829C23.3047 25.6598 23.3047 25.6366 23.3047 25.6181C23.3047 25.6181 23.3047 25.6181 23.3091 25.6181C23.3181 25.5904 23.3225 25.5996 23.3315 25.5765H23.3582V25.5672H23.3761C23.3761 25.5672 23.3761 25.5487 23.3761 25.5395C23.3761 25.5395 23.385 25.5395 23.3939 25.5163C23.4163 25.5256 23.4118 25.521 23.4118 25.5441H23.4341V25.5348C23.452 25.5441 23.4475 25.5348 23.452 25.5533C23.4698 25.5441 23.4787 25.5256 23.4921 25.5071H23.501V25.4886C23.501 25.4886 23.51 25.4886 23.5189 25.4747H23.5501V25.4608C23.5725 25.4608 23.5992 25.4608 23.6126 25.4608C23.6216 25.4608 23.6305 25.4608 23.6349 25.4608L23.6439 25.4284H23.6751V25.4145H23.6796V25.4099L23.7242 25.4191V25.4053C23.7644 25.4099 23.7554 25.4053 23.7822 25.4006C23.7822 25.3821 23.7822 25.3775 23.7822 25.3636C23.7911 25.3636 23.8001 25.3636 23.809 25.3636C23.8269 25.3312 23.8269 25.359 23.8536 25.3405C23.8581 25.3358 23.867 25.3266 23.8715 25.322H23.8849C23.8849 25.322 23.8983 25.3127 23.9027 25.3127L23.9116 25.3035C23.9116 25.3035 23.925 25.3173 23.9429 25.3127V25.3035H23.9607L23.9697 25.2896H23.992C23.992 25.2896 24.0143 25.2618 24.0277 25.2433L24.0545 25.2526C24.0545 25.2526 24.0634 25.2294 24.0679 25.2248C24.0768 25.2248 24.0857 25.2248 24.0946 25.2202V25.2109L24.1169 25.2155C24.1169 25.2155 24.1259 25.2063 24.1348 25.2016V25.1785H24.1616L24.1705 25.1739V25.1461C24.2151 25.1507 24.2151 25.1369 24.2464 25.1322C24.2464 25.1276 24.2464 25.1184 24.2419 25.1091H24.2508L24.2642 25.0813C24.291 25.086 24.2955 25.0813 24.3133 25.0767H24.3312C24.3312 25.0767 24.3446 25.0767 24.358 25.0489C24.3892 25.0489 24.3892 25.0397 24.416 25.0351C24.4204 25.0165 24.4249 25.0073 24.4294 24.998H24.4428V24.9841C24.4561 24.9841 24.4517 24.9841 24.4606 24.9841H24.4695V24.9656H24.4874L24.5008 24.9425C24.5409 24.9425 24.5231 24.924 24.5454 24.9055H24.5543L24.5722 24.887H24.5945C24.5945 24.887 24.6034 24.8731 24.6079 24.8638H24.6302C24.6302 24.8638 24.6525 24.8546 24.6614 24.8268H24.6882C24.6882 24.8268 24.6882 24.7852 24.6927 24.762C24.7239 24.762 24.7329 24.7435 24.773 24.7481V24.7296C24.773 24.7296 24.8043 24.7296 24.8176 24.725C24.8266 24.7157 24.831 24.6972 24.84 24.688H24.8489L24.8667 24.6695H24.8801C24.8801 24.6695 24.898 24.6556 24.9114 24.6417H24.9337V24.6232H24.9471C24.9471 24.6232 24.956 24.6139 24.9605 24.6047H24.9739C24.9739 24.6047 24.9739 24.5815 24.9917 24.5723V24.563H25.0185C25.0185 24.563 25.0319 24.5399 25.0408 24.526H25.0587C25.0587 24.526 25.0676 24.5121 25.0676 24.5029L25.1122 24.5121C25.1122 24.5121 25.1256 24.4844 25.1301 24.4705C25.1702 24.4705 25.1524 24.4566 25.1658 24.4381C25.1747 24.452 25.1836 24.4473 25.1925 24.4242H25.2238C25.2238 24.4242 25.2327 24.3641 25.2461 24.3594L25.2729 24.3733C25.2729 24.3733 25.2818 24.3641 25.2818 24.3594H25.2952C25.2952 24.3594 25.3443 24.3039 25.3443 24.2993H25.3621C25.3621 24.2993 25.38 24.2669 25.3934 24.253C25.3978 24.2576 25.4023 24.2576 25.4068 24.2622V24.2484C25.4068 24.2484 25.4202 24.2484 25.4246 24.2391H25.438C25.438 24.2391 25.4648 24.2113 25.4782 24.1975V24.1836L25.5005 24.1789V24.1651H25.5094C25.5094 24.1651 25.5407 24.1373 25.554 24.128H25.5719L25.5764 24.0957L25.6076 24.1049C25.6076 24.1049 25.6165 24.0864 25.6255 24.0771H25.6344V24.0586C25.6433 24.054 25.6567 24.0447 25.6701 24.0401L25.6835 24.0216H25.6969V24.0077H25.7103C25.7103 24.0077 25.7192 23.98 25.7326 23.9753H25.7593L25.7683 23.9291C25.7683 23.9244 25.7772 23.9291 25.7861 23.9059C25.8129 23.9105 25.8174 23.9152 25.8263 23.892H25.8397L25.8441 23.8596C25.8843 23.8596 25.8709 23.8411 25.8932 23.8134C25.8977 23.8134 25.9022 23.8134 25.9066 23.8134L25.9156 23.7763H25.9245H25.9646L25.9736 23.7393C26.0048 23.7393 26.0004 23.7301 26.0227 23.7254L26.0316 23.7023C26.0628 23.7023 26.0494 23.6884 26.0718 23.6792V23.656L26.0985 23.6607C26.0985 23.6514 26.0985 23.6421 26.0985 23.6283H26.1119C26.1119 23.6283 26.1209 23.6144 26.1209 23.6098H26.1119V23.6005H26.1298C26.1387 23.5912 26.1387 23.5727 26.1521 23.5681C26.1655 23.5635 26.1744 23.5727 26.1833 23.5681L26.1923 23.5311H26.2101C26.2101 23.5311 26.219 23.5079 26.2235 23.4987H26.2458C26.2458 23.4987 26.2458 23.4663 26.2637 23.4617C26.2681 23.4617 26.2771 23.4617 26.286 23.457C26.2905 23.4478 26.2994 23.4293 26.2994 23.42C26.3083 23.42 26.3172 23.4108 26.3262 23.4108V23.3969H26.3351L26.344 23.3506H26.3619V23.3321H26.3708C26.3708 23.3321 26.3797 23.3182 26.3842 23.309H26.4065C26.4065 23.309 26.4065 23.2905 26.4065 23.2766C26.4199 23.2766 26.4243 23.2719 26.4377 23.2766L26.4467 23.2349H26.46V23.2118H26.469L26.4779 23.1794H26.4824L26.5002 23.1377H26.5091C26.5091 23.1377 26.5181 23.1239 26.5225 23.1192H26.5359C26.5582 23.0637 26.6073 23.0452 26.6163 22.9665H26.6341V22.9526H26.652C26.652 22.9526 26.652 22.9295 26.6475 22.9249C26.652 22.9249 26.6564 22.9249 26.6653 22.9249V22.9064H26.6743V22.8925H26.6832C26.6877 22.874 26.6921 22.8555 26.701 22.8416H26.71C26.71 22.8416 26.7189 22.8323 26.7189 22.8231H26.7278C26.7278 22.8231 26.7278 22.8046 26.7189 22.7999V22.7907L26.7635 22.7999C26.7635 22.7999 26.7769 22.7583 26.7814 22.7398H26.7992L26.8082 22.6981C26.826 22.6981 26.8171 22.6981 26.826 22.6935H26.8305L26.8394 22.6611H26.8573C26.8706 22.6333 26.8573 22.6148 26.8483 22.6009H26.8573L26.8751 22.5824C26.8751 22.5824 26.893 22.5824 26.9019 22.5824V22.5547H26.9108V22.5408H26.9242L26.9331 22.4806C26.9599 22.4806 26.9599 22.476 26.9733 22.4714C26.9822 22.4343 26.9956 22.4297 27.0045 22.3973H27.0269C27.0269 22.3973 27.0269 22.3603 27.0269 22.3372C27.0313 22.3372 27.0402 22.3372 27.0447 22.3372C27.0536 22.3279 27.0447 22.314 27.0447 22.314C27.0447 22.3001 27.0536 22.2863 27.0581 22.277H27.0804L27.0893 22.2446H27.0983C27.0983 22.2446 27.0983 22.2307 27.0983 22.2169H27.1161C27.1161 22.2169 27.1027 22.1983 27.1161 22.1798H27.125V22.1706C27.1295 22.1706 27.1384 22.1706 27.1384 22.1613V22.1382C27.1384 22.1382 27.1563 22.1336 27.1607 22.1243H27.1741L27.1831 22.078H27.192V22.0641H27.2009C27.2009 22.0641 27.2098 22.041 27.2188 22.0271H27.2322L27.2411 21.9855H27.2589L27.2723 21.9299H27.2857V21.9114H27.2946V21.9022H27.2902C27.2902 21.9022 27.2991 21.879 27.3036 21.8652H27.3214V21.8096H27.3303C27.3303 21.8096 27.3214 21.8096 27.3214 21.805L27.3348 21.7356H27.3571C27.366 21.7124 27.375 21.6847 27.3794 21.6523H27.3973C27.3973 21.6523 27.4062 21.6291 27.4151 21.6199H27.4196C27.4196 21.6199 27.4196 21.5875 27.4196 21.5736H27.4285V21.5597H27.433C27.4553 21.5227 27.4642 21.4811 27.4642 21.444H27.4865C27.5133 21.4209 27.491 21.3793 27.5312 21.3607C27.5312 21.3422 27.5312 21.3376 27.5178 21.3237C27.5178 21.3237 27.5267 21.3145 27.5267 21.3052H27.5356C27.5356 21.3052 27.5267 21.2728 27.5356 21.2543C27.5401 21.2497 27.549 21.2497 27.558 21.2451C27.5669 21.2219 27.5713 21.1988 27.5758 21.1803H27.5937L27.6115 21.0738H27.607C27.607 21.0738 27.616 21.0461 27.6204 21.0276C27.6294 21.0276 27.6383 21.0276 27.6428 21.0276C27.6428 21.0091 27.6428 20.9952 27.6428 20.9813H27.6517C27.6517 20.9813 27.6606 20.9535 27.6651 20.9396H27.6829V20.935H27.674V20.8934H27.6829C27.6829 20.8934 27.6918 20.8656 27.7008 20.8517H27.6918V20.8425H27.7008L27.7142 20.773H27.7231V20.7592H27.7365L27.7499 20.6851H27.7588V20.6666H27.7677C27.7766 20.6527 27.7677 20.6481 27.7677 20.6481C27.7677 20.6342 27.7766 20.6342 27.7766 20.6342C27.7766 20.625 27.7766 20.6157 27.7766 20.6065L27.7945 20.5972C27.7945 20.5972 27.7856 20.5879 27.7945 20.5694C27.7945 20.5694 27.8079 20.5694 27.8034 20.5555C27.8034 20.5555 27.799 20.5509 27.7945 20.5463C27.8034 20.5046 27.8168 20.4584 27.8257 20.4075H27.8436C27.8436 20.4075 27.8436 20.3936 27.8436 20.389C27.8436 20.3612 27.8436 20.3612 27.8391 20.3427H27.8302V20.3242L27.8168 20.3149V20.2918L27.8079 20.2871V20.2686H27.8034C27.8079 20.2548 27.8123 20.2409 27.8213 20.227H27.8391C27.8391 20.227 27.8481 20.1946 27.8525 20.1761L27.8882 20.1622C27.8882 20.1622 27.8793 20.1437 27.8793 20.1391L27.8927 20.0743C27.8927 20.0743 27.8748 20.0604 27.8659 20.0558C27.8748 20.0002 27.8748 19.9586 27.8927 19.9077H27.8793C27.8882 19.8753 27.8927 19.8568 27.9016 19.8336H27.8838C27.8838 19.8012 27.8927 19.7689 27.8927 19.7411C27.8927 19.7272 27.9016 19.718 27.9061 19.7087H27.8971C27.9061 19.6809 27.9105 19.6578 27.9195 19.6347C27.9105 19.63 27.9061 19.6208 27.8971 19.6161L27.915 19.5791H27.9061C27.9061 19.5791 27.9195 19.5421 27.9239 19.5236H27.9195L27.9239 19.4912H27.915V19.4773H27.9105C27.9105 19.4542 27.9195 19.431 27.9105 19.4125C27.9016 19.4033 27.9105 19.4125 27.8971 19.4033C27.8882 19.4079 27.8838 19.4079 27.8793 19.4125H27.8748V19.4357H27.8614L27.8659 19.4496C27.857 19.4727 27.8525 19.4958 27.8481 19.5143H27.8525C27.8525 19.5143 27.857 19.5375 27.8525 19.556H27.8481V19.5699L27.8347 19.6393H27.8436L27.8257 19.6809H27.8347V19.6994H27.8391V19.7087H27.8302C27.8213 19.7503 27.8123 19.7874 27.799 19.8244H27.8079V19.8429H27.8168C27.8168 19.8799 27.79 19.8984 27.7811 19.9169C27.79 19.9169 27.799 19.9216 27.8034 19.9262C27.799 19.9447 27.7945 19.9586 27.7856 19.9771H27.7945V19.9864H27.7856L27.7722 20.0373C27.7722 20.0373 27.7811 20.0373 27.7811 20.0558C27.7722 20.0835 27.7633 20.1113 27.7588 20.1391H27.7677C27.7677 20.1391 27.7543 20.1761 27.7499 20.1946H27.7588V20.2131H27.7633C27.7633 20.2131 27.7543 20.2455 27.7499 20.2548H27.7409V20.2825H27.7276C27.7276 20.2964 27.732 20.2964 27.732 20.2964V20.3381H27.7097V20.3519H27.7142C27.7142 20.3612 27.7097 20.3519 27.7052 20.3519C27.7052 20.3751 27.7052 20.3982 27.7052 20.4213C27.7052 20.4213 27.7276 20.4399 27.7276 20.4491C27.7186 20.4491 27.7097 20.4537 27.7008 20.4584C27.6829 20.4815 27.7052 20.4908 27.6874 20.5232H27.6829L27.674 20.5509H27.6651L27.6606 20.5787C27.6517 20.5787 27.6383 20.5879 27.6294 20.5926L27.6204 20.6481H27.6294C27.6294 20.6481 27.616 20.6759 27.6115 20.6944H27.6338C27.6338 20.6944 27.6249 20.7129 27.6204 20.7268H27.6294V20.736H27.6204V20.7592H27.607V20.8008H27.5981V20.8147H27.5847V20.8425C27.5847 20.8425 27.5758 20.861 27.5713 20.8702H27.549C27.5401 20.898 27.5356 20.9211 27.5267 20.9489C27.5267 20.9489 27.5356 20.9535 27.5401 20.9581L27.5222 20.9998C27.5222 20.9998 27.5133 20.9998 27.5044 20.9998H27.4955V21.0229H27.4776C27.4776 21.0229 27.4776 21.0831 27.4776 21.0877C27.4732 21.1062 27.4642 21.1294 27.4598 21.1525H27.4419C27.4241 21.1942 27.4062 21.2358 27.3884 21.2775L27.4017 21.2913C27.3928 21.3191 27.3839 21.3422 27.3794 21.37H27.3928L27.3839 21.4117L27.3705 21.4024C27.3705 21.4024 27.3571 21.4117 27.3393 21.4117C27.3348 21.444 27.3393 21.4533 27.3214 21.4718C27.3125 21.4903 27.3214 21.4857 27.2946 21.4903V21.5135H27.308L27.2946 21.532H27.2857C27.2857 21.532 27.2768 21.569 27.2679 21.5875H27.2589C27.2589 21.5875 27.25 21.6153 27.2455 21.6291H27.2366C27.2366 21.6291 27.2366 21.643 27.2366 21.6523H27.2232C27.2232 21.6523 27.2232 21.6708 27.2232 21.6801C27.2098 21.6801 27.2143 21.6801 27.2054 21.6939H27.192C27.192 21.7217 27.192 21.7402 27.1741 21.7726H27.1652V21.8004H27.1518V21.8143C27.1518 21.8143 27.1384 21.8143 27.134 21.8143C27.134 21.8374 27.134 21.8559 27.1295 21.8744C27.1206 21.8744 27.1117 21.8837 27.1027 21.8837C27.1027 21.8883 27.0938 21.8975 27.0938 21.9068C27.0983 21.9114 27.1117 21.9207 27.1206 21.9253V21.9392C27.1206 21.9392 27.0983 21.9392 27.0849 21.9392C27.0759 21.9577 27.0849 21.9531 27.0581 21.9531V21.9994H27.0402C27.0402 22.0179 27.0269 22.0364 27.0224 22.0549H27.0045V22.078H27.0001C26.9911 22.1104 26.9822 22.1474 26.9733 22.1752H26.9599C26.9599 22.2169 26.9599 22.2076 26.9421 22.2585C26.9331 22.2585 26.9287 22.2585 26.9197 22.2585L26.9108 22.2955H26.8974C26.8974 22.2955 26.8885 22.3233 26.8796 22.3372H26.8573L26.8483 22.3742H26.8349L26.826 22.4112C26.8216 22.4112 26.8126 22.4112 26.8082 22.4112L26.7992 22.4575H26.7903V22.4714H26.7814L26.768 22.5038H26.7769V22.513H26.7546H26.7501C26.7501 22.513 26.7412 22.5408 26.7323 22.5547H26.7278L26.7189 22.5963H26.7144V22.6102L26.6966 22.6148C26.6877 22.6241 26.6832 22.6426 26.6787 22.6657H26.6653C26.6653 22.6657 26.6564 22.6889 26.652 22.6981H26.6296V22.7166H26.6118C26.6118 22.7166 26.6118 22.7537 26.6118 22.7768C26.5672 22.7814 26.5939 22.786 26.5761 22.8092H26.5582L26.5538 22.8416H26.5448C26.527 22.8647 26.5181 22.8647 26.5091 22.9064H26.4958L26.4868 22.948H26.4779V22.9573H26.4868V22.9711C26.4868 22.9711 26.4734 22.9711 26.4645 22.9804H26.4467C26.4333 23.0082 26.4199 23.0082 26.4065 23.0267V23.0498H26.3931V23.0637H26.3842V23.0776C26.3842 23.0776 26.3619 23.0868 26.3574 23.0915L26.3485 23.1424H26.344V23.1563H26.3262C26.3262 23.1563 26.3217 23.1979 26.3083 23.2118H26.2905V23.2303H26.286V23.2442C26.286 23.2627 26.2815 23.2581 26.2681 23.2627C26.2547 23.2858 26.2681 23.2719 26.2458 23.2673C26.2369 23.2812 26.2324 23.2812 26.2235 23.2997H26.2101C26.2101 23.3275 26.2146 23.3228 26.2146 23.346C26.1967 23.3506 26.1878 23.346 26.1744 23.3645C26.1744 23.3645 26.161 23.4015 26.1566 23.4293L26.1209 23.42C26.1119 23.4524 26.1119 23.4802 26.1119 23.4941H26.103C26.0941 23.4941 26.0941 23.4802 26.0941 23.4802C26.0852 23.4802 26.0762 23.4802 26.0673 23.4802L26.0584 23.5079H26.045V23.5218H26.0316C26.0316 23.5218 26.0182 23.545 26.0137 23.5681C26.0048 23.5681 25.9959 23.5681 25.9914 23.5681C25.9825 23.5959 25.9691 23.6051 25.9513 23.6144H25.9468V23.6283H25.9334V23.6375C25.9334 23.6375 25.92 23.6236 25.9066 23.656H25.8977C25.8977 23.656 25.9066 23.6653 25.8977 23.6838C25.8754 23.6838 25.8799 23.6838 25.8709 23.7023C25.8575 23.6931 25.8665 23.7023 25.8575 23.6931C25.8397 23.7023 25.8486 23.7069 25.8397 23.7208H25.8218V23.7301H25.8308V23.744C25.8308 23.744 25.8129 23.7301 25.7995 23.7347H25.7951V23.7486H25.7817C25.7817 23.7486 25.7817 23.7625 25.7817 23.781C25.7549 23.781 25.746 23.7902 25.7236 23.7995V23.8226H25.7013C25.6746 23.8411 25.6612 23.8643 25.6567 23.8967C25.6478 23.8967 25.6388 23.8967 25.6344 23.8967V23.9105H25.5987V23.9244H25.5808C25.5808 23.9337 25.5719 23.9476 25.5674 23.9615C25.563 23.9615 25.554 23.9615 25.5451 23.9615C25.5362 23.9661 25.5139 24.0031 25.5094 24.017H25.496C25.496 24.017 25.4916 24.0309 25.4737 24.0262V24.017H25.4693V24.0447H25.4559V24.054C25.4559 24.054 25.4202 24.054 25.4023 24.054V24.0771C25.4023 24.0771 25.38 24.0771 25.3755 24.0771L25.3666 24.1095H25.3354C25.322 24.1373 25.3086 24.1373 25.2997 24.1789C25.2773 24.1789 25.2773 24.1882 25.2506 24.1836C25.2506 24.1928 25.2506 24.2021 25.2506 24.2113H25.2282V24.2252C25.2238 24.2252 25.2104 24.2252 25.2059 24.2252V24.2345C25.2059 24.2345 25.1836 24.2484 25.1747 24.2669H25.1613C25.1434 24.2993 25.139 24.2808 25.1077 24.29C25.0988 24.2993 25.0899 24.3085 25.081 24.3178H25.0676C25.0497 24.3502 25.0408 24.3317 25.0229 24.3455C25.0274 24.3779 25.0229 24.3733 25.0006 24.3872C25.0006 24.3964 24.9917 24.3964 24.9917 24.4011H24.9471V24.4103C24.9471 24.4103 24.9248 24.4103 24.9114 24.4103C24.9114 24.4103 24.8667 24.452 24.8623 24.4612H24.831L24.8087 24.4983H24.7909C24.7909 24.4983 24.7819 24.5029 24.7819 24.5075H24.773C24.773 24.5075 24.7641 24.526 24.7596 24.5353H24.7328C24.7328 24.5353 24.7284 24.5492 24.7239 24.5538C24.7195 24.5538 24.715 24.5445 24.7105 24.5445C24.6971 24.5445 24.7105 24.5677 24.6971 24.5723H24.6882H24.6659V24.5862C24.6391 24.5862 24.6391 24.5862 24.6213 24.5954C24.5945 24.6093 24.6034 24.5908 24.5811 24.6093H24.5722C24.5722 24.6093 24.5766 24.6325 24.5811 24.6417C24.5499 24.6417 24.5543 24.6371 24.532 24.6186L24.5186 24.6371H24.5275V24.6463H24.5231V24.6695C24.5097 24.6695 24.4963 24.6602 24.4829 24.6556V24.6463C24.4829 24.6417 24.4918 24.6325 24.4963 24.6232C24.5052 24.6232 24.5097 24.6186 24.5231 24.6139C24.5231 24.6047 24.5231 24.6001 24.5231 24.5908H24.5008L24.5052 24.5584H24.4918V24.5306C24.5052 24.5399 24.5052 24.5445 24.5186 24.5492V24.5353H24.5409V24.5214H24.5766V24.5306H24.5811C24.5856 24.5214 24.5856 24.5214 24.59 24.5168C24.599 24.5168 24.6034 24.526 24.6213 24.5306V24.5121C24.6213 24.5121 24.6257 24.5121 24.6391 24.5121L24.6436 24.4936H24.6659V24.4659C24.6704 24.4612 24.6838 24.4659 24.6838 24.452C24.6838 24.452 24.6748 24.4473 24.6704 24.4427V24.4288C24.6704 24.4288 24.6838 24.4103 24.6927 24.4011L24.7105 24.415C24.7105 24.415 24.7105 24.3964 24.7239 24.3872C24.7239 24.3826 24.7373 24.3826 24.7418 24.3733H24.7596L24.7641 24.3548H24.7686C24.7686 24.3548 24.7686 24.3363 24.7953 24.3363V24.3131H24.8132C24.8221 24.2808 24.8355 24.29 24.8444 24.2669H24.8623C24.8623 24.2669 24.8757 24.253 24.8846 24.2299C24.898 24.2391 24.8935 24.2299 24.898 24.2391H24.9069V24.216H24.9203C24.9381 24.1697 24.956 24.2021 24.9739 24.1836V24.1558H24.9872V24.1466L25.0229 24.1558L25.0274 24.1651V24.1327C25.0274 24.1327 25.0497 24.128 25.0587 24.1234V24.1142C25.0587 24.1142 25.0944 24.1142 25.1122 24.1142C25.1345 24.1049 25.1524 24.0957 25.1747 24.0864L25.1836 24.0355H25.1792V24.0262C25.1881 24.0262 25.197 24.0355 25.2059 24.0401L25.2149 24.0216H25.2238V24.0031H25.2327C25.2327 23.9985 25.2327 23.9892 25.2327 23.98C25.255 23.9476 25.2952 23.9476 25.313 23.8967C25.322 23.8967 25.3264 23.9013 25.3309 23.9059C25.3309 23.8967 25.3398 23.892 25.3443 23.8828C25.3487 23.8828 25.3577 23.8828 25.3621 23.8828C25.3711 23.8689 25.3621 23.8596 25.3621 23.8596C25.3621 23.8458 25.3711 23.8319 25.3755 23.8134H25.3845C25.3845 23.8134 25.4068 23.7995 25.4335 23.7995C25.4425 23.7671 25.4559 23.7625 25.4693 23.7347C25.4826 23.7347 25.4782 23.7393 25.4826 23.7347H25.4916V23.7116H25.5094V23.7023C25.5362 23.7023 25.5317 23.6884 25.563 23.6884V23.6699H25.5808V23.6838L25.5898 23.6421H25.6076C25.6076 23.6421 25.6299 23.6005 25.6344 23.582C25.6388 23.582 25.6567 23.5959 25.6701 23.5866L25.6746 23.582C25.6701 23.5589 25.6879 23.5357 25.6969 23.5126H25.6835V23.4941C25.7058 23.4848 25.7281 23.4802 25.7504 23.4756C25.7549 23.4432 25.7683 23.4478 25.7772 23.42H25.7906C25.7906 23.42 25.8129 23.3969 25.8218 23.3737H25.8441H25.862C25.862 23.3737 25.8843 23.3275 25.8888 23.3182C25.8977 23.3228 25.9066 23.3275 25.9156 23.3321V23.309L25.9066 23.2997C25.9066 23.2905 25.9156 23.2812 25.92 23.2719C25.9646 23.2719 25.9379 23.2627 25.9557 23.2395C25.9646 23.2395 25.9736 23.2349 25.9825 23.2303V23.2118H25.9914H26.0316C26.0361 23.1933 26.0361 23.1933 26.045 23.1794H26.0539C26.0539 23.1794 26.0539 23.1609 26.0539 23.1516H26.0673C26.0673 23.1516 26.0762 23.1331 26.0762 23.11C26.0852 23.11 26.0896 23.11 26.1075 23.11C26.1119 23.0961 26.1164 23.0868 26.1253 23.073H26.1387C26.1432 23.0498 26.1521 23.0267 26.1566 23.0082L26.1833 22.9989V22.9804C26.1833 22.9804 26.2057 22.9758 26.2146 22.9665C26.2146 22.9573 26.2235 22.948 26.228 22.9341C26.2369 22.9295 26.2458 22.9249 26.2637 22.9156V22.8786L26.2771 22.874C26.2815 22.8647 26.286 22.8601 26.2905 22.8555H26.3217V22.8369H26.3262V22.8046C26.3262 22.7907 26.344 22.7537 26.3529 22.749C26.3708 22.7398 26.3976 22.749 26.4154 22.749L26.4243 22.7444C26.4243 22.7351 26.4154 22.7213 26.4243 22.7074C26.4288 22.7074 26.4333 22.7074 26.4422 22.7074C26.4556 22.6981 26.4556 22.675 26.46 22.6565C26.4779 22.6565 26.4645 22.6565 26.4779 22.6565H26.4824C26.4824 22.6565 26.4824 22.6426 26.4824 22.6333H26.4913C26.4913 22.6333 26.5091 22.6195 26.5136 22.5963H26.527C26.527 22.5963 26.5448 22.5732 26.5582 22.5593H26.5627L26.5716 22.5084H26.5627C26.5627 22.5084 26.5761 22.4991 26.585 22.4806C26.6296 22.4806 26.6118 22.4714 26.6296 22.4482H26.643C26.643 22.4482 26.643 22.4205 26.643 22.4112H26.6564V22.3834C26.6877 22.3881 26.6966 22.3834 26.71 22.3696C26.7189 22.3603 26.7189 22.3372 26.7189 22.3094H26.7412C26.7412 22.3094 26.7412 22.277 26.7368 22.2585H26.7457V22.2539H26.7725C26.7725 22.2539 26.7814 22.24 26.7858 22.2307C26.7858 22.2307 26.7769 22.2215 26.7858 22.2076C26.7858 22.2076 26.8216 22.1798 26.8216 22.1659H26.8126C26.8126 22.1659 26.8126 22.1336 26.8082 22.115H26.826C26.8439 22.0827 26.8974 22.0503 26.884 21.9947C26.8974 21.9947 26.9019 21.9947 26.9242 21.9947C26.9242 21.9762 26.9197 21.9299 26.9331 21.9068L26.9554 21.8975C26.9554 21.8975 26.9421 21.8605 26.9554 21.8466H26.9644C26.9644 21.8466 26.9778 21.8328 26.9867 21.8189H27.0001C27.0001 21.8189 27.0001 21.7911 27.0001 21.7772C27.009 21.7772 27.0179 21.7772 27.0224 21.7772C27.0269 21.7495 27.0224 21.7402 27.0224 21.7217H27.0358V21.7078H27.0492C27.0492 21.7078 27.0581 21.6893 27.0626 21.6754H27.0715L27.0804 21.6384C27.0938 21.6384 27.1027 21.6291 27.1161 21.6245C27.1161 21.606 27.1161 21.5875 27.1161 21.569H27.125C27.125 21.569 27.134 21.5505 27.1384 21.5412H27.1563C27.1563 21.5412 27.1652 21.5088 27.1697 21.4949H27.1875L27.1964 21.444C27.1964 21.4348 27.192 21.444 27.192 21.4348H27.2009C27.2009 21.4348 27.2188 21.4255 27.2322 21.4024L27.2679 21.4209C27.2679 21.4209 27.2634 21.4024 27.2589 21.3885H27.25L27.2545 21.3561H27.2455L27.2545 21.3422C27.2545 21.3284 27.2545 21.3284 27.2545 21.3284C27.2545 21.3098 27.2634 21.3052 27.2634 21.3052C27.2723 21.2913 27.2634 21.2867 27.2634 21.2867H27.2723C27.2723 21.2867 27.2679 21.2775 27.2679 21.2682H27.2857L27.3125 21.2219C27.3125 21.2219 27.2902 21.2127 27.3036 21.1942H27.3214L27.3259 21.1525C27.3482 21.1525 27.3527 21.1479 27.3616 21.1247C27.3482 21.1247 27.3571 21.1247 27.3482 21.1155H27.3393V21.1062H27.3482C27.3482 21.1062 27.3527 21.097 27.3705 21.097C27.375 21.0831 27.3839 21.0646 27.3884 21.0461H27.3973C27.3973 21.0461 27.3973 21.0276 27.3973 21.0183H27.4062L27.4151 20.9767H27.4062C27.4062 20.9767 27.4151 20.9581 27.4196 20.9489C27.4196 20.9396 27.4062 20.9489 27.4151 20.9396C27.4196 20.9396 27.4285 20.9396 27.433 20.935C27.4375 20.9258 27.433 20.935 27.4285 20.9258C27.4285 20.8934 27.4464 20.8656 27.4508 20.8471H27.4687C27.4687 20.8471 27.4776 20.8286 27.4821 20.8147C27.4865 20.8147 27.4955 20.8147 27.4999 20.8147C27.4999 20.7916 27.4999 20.7684 27.4999 20.7453H27.5222C27.5222 20.7453 27.5312 20.736 27.5312 20.7268H27.5178C27.5178 20.6897 27.5178 20.6574 27.5178 20.625C27.5223 20.625 27.5267 20.6203 27.5312 20.6203V20.5972L27.558 20.6065C27.5535 20.5648 27.5803 20.5648 27.5937 20.5278H27.5713L27.5758 20.4954H27.5892C27.5892 20.4954 27.5981 20.4676 27.607 20.4584C27.6026 20.4537 27.5937 20.4491 27.5937 20.4445C27.5892 20.426 27.5981 20.4075 27.5937 20.3797H27.5892C27.5892 20.3473 27.607 20.3612 27.6115 20.3566L27.6204 20.3103H27.6383L27.6517 20.2918L27.6383 20.2825C27.6383 20.2825 27.6472 20.2594 27.6517 20.2455H27.6428V20.1946H27.6561L27.6651 20.1622H27.6561V20.1529H27.6651V20.1344C27.6829 20.1344 27.674 20.1344 27.6829 20.1344H27.6918V20.0928H27.7008V20.0835H27.6963V20.0511H27.7052V20.028H27.7186C27.7231 20.0141 27.7097 19.9956 27.7186 19.9771H27.7276L27.7365 19.9401C27.7365 19.9401 27.7454 19.8845 27.7409 19.8707C27.7409 19.8475 27.7588 19.8383 27.7588 19.8244H27.7499V19.8059H27.7454C27.7454 19.7735 27.7677 19.7596 27.7766 19.7503H27.7588C27.7588 19.7503 27.7722 19.7272 27.7766 19.7133H27.7811C27.7811 19.7133 27.7811 19.6717 27.7811 19.6624H27.79C27.79 19.6624 27.799 19.6393 27.8034 19.6254H27.7945C27.7945 19.6254 27.8034 19.6069 27.8079 19.6023H27.799C27.799 19.6023 27.799 19.5699 27.799 19.556H27.7856C27.7856 19.556 27.799 19.5236 27.8034 19.5005H27.8213C27.8213 19.5005 27.8168 19.4542 27.8123 19.431C27.8213 19.4079 27.8123 19.4079 27.8391 19.4079C27.8391 19.4033 27.8481 19.394 27.8525 19.3848H27.8391C27.8391 19.357 27.8257 19.3616 27.8257 19.3339H27.857C27.857 19.3339 27.8525 19.3154 27.8481 19.2922H27.8614L27.8659 19.2737H27.8793C27.8793 19.2737 27.8704 19.2506 27.8659 19.2321H27.8614V19.158C27.8614 19.158 27.8525 19.1488 27.8436 19.1441C27.8525 19.1349 27.857 19.1164 27.8614 19.1025C27.8525 19.1025 27.8525 19.0932 27.8481 19.0932C27.8481 19.084 27.8659 19.0793 27.8659 19.0793C27.8659 19.0701 27.8659 19.0655 27.8659 19.0655C27.8659 19.047 27.8748 19.0516 27.8748 19.0516V19.0146H27.8971C27.8971 18.996 27.8971 18.9822 27.8927 18.9683H27.9061C27.9061 18.9405 27.9016 18.9359 27.9061 18.9081H27.8838C27.8838 18.9081 27.8927 18.885 27.8971 18.8757C27.8971 18.8757 27.8882 18.8757 27.8971 18.8618H27.9016C27.9016 18.8618 27.9195 18.8202 27.9239 18.7971C27.915 18.7924 27.9239 18.7971 27.915 18.7878H27.9061C27.9061 18.7878 27.9239 18.7554 27.9284 18.7369L27.915 18.7276C27.915 18.7276 27.915 18.6999 27.915 18.6906H27.9061C27.9061 18.6906 27.9373 18.649 27.9373 18.6166H27.9284V18.5888C27.9284 18.5796 27.9373 18.5749 27.9373 18.5749L27.9284 18.5657L27.9373 18.5333L27.9239 18.524C27.9239 18.524 27.9418 18.5148 27.9418 18.5102L27.9328 18.5055C27.9328 18.4916 27.9418 18.4916 27.9418 18.4916C27.9507 18.4778 27.9418 18.4731 27.9418 18.4592C27.9418 18.4592 27.9552 18.4592 27.9552 18.4454H27.9462V18.4315L27.9373 18.4222C27.9373 18.4037 27.9462 18.4083 27.9462 18.4037C27.9462 18.3991 27.9462 18.3898 27.9462 18.3806H27.9641L27.9775 18.3019H27.9998ZM27.9239 20.0928H27.915C27.9061 20.102 27.915 20.0928 27.9016 20.0928C27.9105 20.0835 27.915 20.0743 27.9239 20.0928ZM24.4918 24.7852C24.4918 24.7852 24.5008 24.7852 24.5052 24.7944H24.5142V24.8037H24.4918V24.7898V24.7852ZM23.8045 24.4797V24.4936H23.7867L23.7778 24.5075H23.7733V24.4983H23.7465L23.7421 24.4797L23.7554 24.4381C23.7554 24.4381 23.7599 24.4288 23.7644 24.4288C23.7822 24.4288 23.7956 24.4288 23.8135 24.4242V24.4381H23.8269C23.8269 24.4612 23.8269 24.4705 23.8358 24.4844H23.8179L23.8045 24.4797ZM20.1181 23.3969C17.2885 23.3969 15.2757 21.0322 15.2757 18.1862V18.1399C15.2757 15.2986 17.2394 12.9802 20.0734 12.9802C22.9075 12.9802 24.9158 15.3495 24.9158 18.1909V18.2371C24.9158 21.0831 22.9476 23.4015 20.1181 23.4015V23.3969ZM24.4249 24.6926C24.4249 24.6926 24.4249 24.688 24.4338 24.6787C24.4249 24.6926 24.4338 24.6834 24.4249 24.6926ZM24.474 24.6695H24.4606V24.6602H24.4695V24.651H24.4785V24.6648L24.474 24.6695ZM26.7858 21.842H26.768C26.768 21.842 26.7546 21.879 26.7501 21.8975H26.7278C26.7278 21.8975 26.7323 21.9161 26.7189 21.9392H26.71L26.7055 21.967H26.6966C26.6966 21.967 26.7144 22.004 26.6877 22.0271V22.0364C26.6877 22.0364 26.6743 22.0271 26.6698 22.0225C26.6609 22.0271 26.6341 22.0688 26.6252 22.0873H26.6118C26.6118 22.0873 26.6118 22.0965 26.6118 22.1058H26.6029V22.115H26.5984C26.5984 22.115 26.5984 22.1289 26.5984 22.1382C26.5984 22.1382 26.585 22.1382 26.5895 22.1567H26.5939L26.5895 22.1891H26.585V22.203H26.5672V22.2215H26.5582V22.24H26.5538L26.5404 22.2539H26.5091C26.5091 22.2539 26.5091 22.2724 26.4958 22.2863H26.4868V22.3048H26.4779C26.4779 22.3048 26.4645 22.3325 26.4645 22.3464L26.4333 22.3557V22.3788H26.4154C26.411 22.3881 26.4243 22.3927 26.4243 22.3973V22.4066H26.4154C26.4154 22.4066 26.4154 22.4205 26.4199 22.4297H26.411L26.4065 22.4482H26.4154V22.4529H26.411L26.4065 22.4667L26.3752 22.4853V22.513H26.3619C26.3485 22.5315 26.3619 22.5362 26.3395 22.5454V22.5547H26.3128C26.3038 22.5824 26.2905 22.5732 26.286 22.6195H26.2726C26.2726 22.6195 26.2726 22.6287 26.286 22.6426V22.6565L26.2637 22.638C26.2547 22.6565 26.2547 22.6472 26.2547 22.675C26.2458 22.675 26.2369 22.675 26.228 22.675C26.2235 22.6889 26.219 22.6889 26.219 22.6889L26.2057 22.7629H26.1967V22.7675H26.1744L26.1699 22.786H26.1566L26.1476 22.8138L26.1253 22.8046V22.8231C26.1253 22.8231 26.1164 22.8231 26.1119 22.8138H26.0896H26.0985C26.0985 22.8138 26.0896 22.8277 26.0851 22.8277C26.0941 22.8369 26.0985 22.8416 26.1075 22.8462C26.103 22.8601 26.0718 22.9017 26.0628 22.9064C26.045 22.9156 26.0584 22.8971 26.0316 22.9156H26.0227V22.9341C26.0227 22.9341 26.0048 22.9388 26.0004 22.9388V22.9665H25.987C25.978 22.9758 25.978 22.985 25.9736 23.0035H25.9602L25.9557 23.0313C25.9468 23.0313 25.9423 23.0313 25.9334 23.0313C25.9245 23.0498 25.9156 23.0544 25.9066 23.0776H25.8843C25.8843 23.0776 25.8754 23.0868 25.8709 23.0961H25.8486V23.1146C25.8308 23.1146 25.8441 23.1146 25.8308 23.1192H25.8084L25.7995 23.1609C25.7817 23.1609 25.7861 23.1609 25.7727 23.1701H25.7638C25.7638 23.1701 25.7638 23.1979 25.7638 23.2072H25.7549V23.2118H25.7192V23.2303H25.7013C25.7013 23.2303 25.6879 23.2627 25.6835 23.2766H25.6701L25.6612 23.3043H25.6567H25.6344L25.6299 23.3367H25.6121V23.3414C25.5898 23.3552 25.6031 23.3599 25.5674 23.3552V23.3784L25.5407 23.3737C25.5362 23.3876 25.5273 23.4061 25.5228 23.4247C25.496 23.4247 25.4648 23.4339 25.4425 23.4432C25.4335 23.457 25.4291 23.4709 25.4202 23.4848H25.4291V23.4941H25.4202C25.4202 23.4941 25.4157 23.5126 25.3934 23.5126C25.3934 23.5172 25.3845 23.5265 25.38 23.5357H25.3666C25.3666 23.5357 25.3577 23.545 25.3487 23.5542L25.3264 23.5589C25.322 23.5635 25.3175 23.5727 25.313 23.5774C25.3041 23.5774 25.2952 23.5774 25.2818 23.5774C25.2729 23.5959 25.2773 23.5912 25.255 23.5959V23.619L25.2461 23.6144V23.6236H25.2149C25.2149 23.6468 25.2149 23.6468 25.2238 23.656L25.1836 23.6607V23.6838L25.1568 23.6792V23.7116C25.1568 23.7116 25.1434 23.7116 25.1345 23.7116H25.1256C25.1256 23.7116 25.1256 23.7301 25.1256 23.7347C25.1256 23.7347 25.1167 23.7625 25.1167 23.7486V23.7393H25.0944V23.7578C25.0587 23.7578 25.0854 23.7625 25.0676 23.7856H25.0497C25.0497 23.7856 25.0096 23.8226 24.9783 23.8319C24.9783 23.8319 24.9694 23.8319 24.9649 23.8319L24.9426 23.8411C24.9426 23.8689 24.9426 23.892 24.9337 23.9152H24.9203V23.9337C24.9114 23.9337 24.9024 23.9337 24.8891 23.9337V23.9244H24.8667C24.8534 23.9429 24.84 23.9568 24.8266 23.98H24.8132C24.8132 23.98 24.8043 23.9938 24.7998 24.0031C24.7864 24.0031 24.773 23.9938 24.7596 24.0031V24.0216H24.7507C24.7507 24.0262 24.7418 24.0355 24.7373 24.0401L24.7061 24.0309C24.7061 24.0309 24.7061 24.0586 24.7061 24.0725H24.7016C24.7016 24.0725 24.6927 24.0864 24.6882 24.0957H24.6525L24.6481 24.1142C24.6347 24.1142 24.5856 24.1095 24.5766 24.1142H24.5677C24.5677 24.1142 24.5677 24.1327 24.5677 24.1558H24.5588H24.5275C24.5275 24.1558 24.5275 24.1651 24.5275 24.1743H24.5097C24.4963 24.216 24.4785 24.2067 24.4517 24.2299H24.4472C24.4472 24.2299 24.4338 24.2622 24.4115 24.2761L24.4026 24.2808V24.2669H24.3892V24.2808H24.3624C24.3624 24.3039 24.3624 24.3131 24.3624 24.3363C24.3356 24.3409 24.2999 24.3409 24.2821 24.3594H24.2732V24.3779C24.2375 24.3687 24.2285 24.3641 24.2151 24.3918H24.2062C24.2062 24.3918 24.2062 24.4103 24.2062 24.4242H24.1839L24.175 24.4566H24.166C24.166 24.4566 24.1482 24.4566 24.1393 24.4473C24.1393 24.4473 24.1259 24.4473 24.1214 24.4473V24.4381L24.1036 24.4659L24.0723 24.4566C24.0723 24.4566 24.0723 24.4288 24.0411 24.4242V24.4381H24.0232V24.452C23.9875 24.4427 23.9741 24.4335 23.9518 24.4196V24.3918H23.9652C23.9563 24.3826 23.9563 24.3779 23.9384 24.3733C23.9384 24.3641 23.9384 24.3548 23.9384 24.3455H23.9518C23.9652 24.2993 23.9607 24.3178 23.9875 24.2993H23.992V24.2946C23.9875 24.29 23.9786 24.29 23.9697 24.2854C23.9697 24.2669 23.9697 24.2761 23.9697 24.2669V24.253C23.9697 24.253 24.0277 24.2437 24.0455 24.2437V24.2113L24.0812 24.216C24.0812 24.1975 24.0857 24.1928 24.0946 24.1836H24.1259L24.1348 24.1651C24.1571 24.1697 24.175 24.1789 24.1928 24.1836H24.2017V24.1789H24.2151V24.1928H24.2464L24.2419 24.1789H24.2642C24.2955 24.1651 24.2642 24.1743 24.2865 24.1558H24.2955V24.1419C24.2955 24.1419 24.3178 24.1512 24.3267 24.1419H24.3312V24.1373L24.3178 24.128C24.3178 24.128 24.3312 24.1003 24.3356 24.0864H24.349C24.349 24.0864 24.3669 24.0494 24.3758 24.0262H24.3981V24.054H24.4026L24.4115 24.0633C24.416 24.0586 24.4249 24.054 24.4249 24.0355C24.4249 24.0355 24.4115 24.0262 24.4249 24.0124C24.4249 24.0124 24.4338 24.0124 24.4428 23.9892H24.4651V23.9753H24.474V23.9661L24.4963 23.9846L24.5052 23.98C24.5052 23.9892 24.5052 23.9985 24.5052 24.017C24.5097 24.017 24.5142 24.017 24.5231 24.017L24.5454 23.9522C24.5454 23.9522 24.5722 23.9522 24.5856 23.9429L24.59 23.9383C24.59 23.9291 24.59 23.9198 24.59 23.9152C24.6034 23.9105 24.6123 23.9059 24.6302 23.9059L24.6436 23.8782C24.6436 23.8782 24.6614 23.8782 24.6659 23.8782V23.8874H24.6793C24.6793 23.8874 24.6793 23.8874 24.6882 23.8782C24.6882 23.8782 24.7105 23.8782 24.715 23.8828L24.7239 23.8411C24.7239 23.8411 24.715 23.8411 24.7239 23.8226H24.7328C24.7328 23.8226 24.7105 23.781 24.7328 23.7578C24.7328 23.7578 24.7418 23.7532 24.7462 23.7532V23.7393C24.773 23.744 24.7998 23.7578 24.831 23.7625C24.831 23.7254 24.831 23.7254 24.7998 23.7254V23.7116C24.7998 23.7116 24.7998 23.7116 24.7998 23.6977H24.8087V23.6884C24.8087 23.6884 24.8221 23.6977 24.831 23.7116C24.84 23.7116 24.8578 23.6884 24.8578 23.6884L24.8891 23.6977V23.6884C24.9158 23.6884 24.9158 23.6977 24.9381 23.6838C24.9426 23.6745 24.9471 23.6653 24.9471 23.6375C24.9471 23.6375 24.9381 23.6329 24.9426 23.6236H24.9515C24.9515 23.6236 24.9605 23.5912 24.9694 23.5727H24.9872C25.0096 23.5403 25.0274 23.5589 25.0587 23.545C25.072 23.5403 25.0587 23.5218 25.072 23.5126H25.081C25.1077 23.4894 25.0944 23.5126 25.1167 23.5033C25.1256 23.4894 25.1345 23.4802 25.1434 23.4709H25.1613V23.4894C25.1613 23.4894 25.1836 23.4894 25.1925 23.4894C25.1925 23.4756 25.1925 23.4802 25.1881 23.4756C25.197 23.42 25.2015 23.4247 25.2238 23.3969H25.2461V23.3876H25.2506V23.3784C25.2773 23.3645 25.2684 23.3969 25.2863 23.3599C25.3041 23.3599 25.3041 23.3599 25.3175 23.3506V23.3414C25.3443 23.3321 25.3398 23.3552 25.3577 23.3321H25.3666V23.3275C25.3487 23.3136 25.3487 23.2905 25.3309 23.2766C25.3443 23.2534 25.3487 23.2627 25.3532 23.2257H25.3621H25.3934V23.1794H25.4112V23.1655H25.4335V23.1563H25.4559V23.1424C25.4782 23.1424 25.4782 23.1424 25.4916 23.1331H25.5005C25.5005 23.1331 25.4916 23.1053 25.4916 23.0961H25.5005C25.5005 23.0961 25.5094 23.0822 25.5139 23.0637H25.5496C25.5496 23.0637 25.5764 23.0313 25.5898 23.0174C25.5898 23.0128 25.5808 23.0174 25.5719 22.9989C25.5898 22.9989 25.5987 22.9989 25.6076 22.9758C25.6255 22.9758 25.6121 22.9758 25.6255 22.9758C25.6612 22.9758 25.6433 22.9619 25.6612 22.9388C25.6656 22.9388 25.6701 22.9341 25.679 22.9341C25.6835 22.9064 25.6924 22.8832 25.7013 22.8508C25.7192 22.8601 25.7192 22.8647 25.737 22.874V22.8508C25.7593 22.8601 25.7593 22.8601 25.7683 22.8693C25.7906 22.8508 25.7861 22.8277 25.7906 22.7953C25.804 22.7953 25.7995 22.7953 25.8084 22.7907H25.8174L25.8218 22.7722H25.8352V22.7907H25.9111C25.92 22.7629 25.9245 22.749 25.9334 22.7213H25.9646V22.7027C25.978 22.712 25.9914 22.7166 26.0048 22.7259V22.7398L26.0405 22.7444V22.7074H26.0628L26.0718 22.6981V22.6611H26.0851C26.0985 22.6518 26.1119 22.6472 26.1209 22.638H26.1253C26.1253 22.6102 26.103 22.6009 26.0896 22.5778H26.0807V22.55C26.1075 22.55 26.1075 22.55 26.1164 22.55V22.5593H26.1209C26.1298 22.5547 26.1209 22.55 26.1298 22.55V22.5593H26.1432C26.1432 22.55 26.1521 22.5454 26.1521 22.5362H26.161V22.5315L26.2101 22.5408L26.2012 22.5315C26.2057 22.5223 26.2101 22.513 26.2146 22.5038C26.2637 22.513 26.2503 22.5038 26.2726 22.4853H26.2771C26.2771 22.4853 26.2905 22.476 26.2994 22.4621H26.3172V22.4482C26.3083 22.4482 26.3038 22.439 26.2949 22.439L26.3038 22.3927L26.2726 22.3788V22.3649C26.2726 22.3649 26.2994 22.3742 26.3128 22.3788H26.3172C26.3172 22.3603 26.3172 22.3418 26.3172 22.3233H26.3217L26.3351 22.3094H26.3574C26.3574 22.3094 26.3574 22.2955 26.3395 22.2863V22.2724C26.3395 22.2724 26.3395 22.2261 26.3306 22.2076C26.344 22.2076 26.3663 22.1983 26.3708 22.1845C26.3842 22.1891 26.3976 22.1983 26.4065 22.1983V22.1659C26.4333 22.1752 26.4511 22.1798 26.4734 22.1845C26.4824 22.1659 26.4868 22.1752 26.4913 22.1521H26.4779V22.1336C26.4958 22.1428 26.5047 22.1474 26.5315 22.1521L26.5404 22.1058H26.5493C26.5493 22.1058 26.5716 22.1012 26.585 22.0734L26.5493 22.0595V22.0503C26.527 22.0317 26.5225 22.0503 26.5181 22.0132C26.5047 22.0086 26.5002 22.004 26.4913 21.9947H26.4824V21.9716H26.5002C26.5047 21.9577 26.5091 21.9438 26.5136 21.9299H26.5225C26.5225 21.9299 26.5538 21.9299 26.5672 21.8975H26.5761C26.5761 21.8975 26.5761 21.8837 26.5761 21.879H26.6073L26.6207 21.8652C26.6296 21.8652 26.6386 21.8652 26.6475 21.8652C26.6564 21.8513 26.6475 21.8605 26.6564 21.8513V21.7819H26.6475V21.7726C26.6743 21.7819 26.6698 21.7865 26.6832 21.8004C26.6832 21.8004 26.7055 21.805 26.7234 21.805H26.7769L26.768 21.8559L26.7858 21.842ZM26.8617 21.643H26.8305C26.8305 21.6153 26.8305 21.5968 26.8305 21.5736C26.8439 21.5829 26.8349 21.5736 26.8439 21.5829H26.8528C26.8528 21.5829 26.8439 21.606 26.8394 21.6153L26.8617 21.6245V21.6384V21.643ZM26.9733 21.4487C26.9733 21.4487 26.9554 21.4487 26.951 21.4487C26.9421 21.4533 26.951 21.4487 26.9331 21.4487C26.9331 21.4487 26.9331 21.4394 26.9331 21.4348C26.9287 21.4255 26.9331 21.4348 26.9287 21.4163C26.9376 21.4117 26.9287 21.4163 26.9376 21.407C26.9688 21.407 26.9733 21.407 26.9867 21.3885H26.9956C26.9956 21.3885 26.9822 21.4255 26.9778 21.4394L26.9733 21.4487ZM27.2723 20.4722H27.2857C27.2857 20.4722 27.2857 20.4815 27.2768 20.4908V20.4815H27.2723V20.4722ZM27.0983 15.2847C27.0983 15.2847 27.1206 15.2847 27.134 15.2847C27.1295 15.3032 27.1206 15.3264 27.1161 15.3495C27.0983 15.3449 27.1117 15.3495 27.1027 15.3403H27.0938C27.0938 15.3403 27.1072 15.3217 27.1117 15.3032C27.0983 15.3032 27.1027 15.3032 27.0893 15.3125H27.0804C27.0804 15.3125 27.0938 15.2894 27.0983 15.2847ZM27.0759 21.1433H27.0938V21.1571H27.0804V21.1433H27.0759ZM27.0759 14.8914V14.9099H27.0581L27.0536 14.9145C27.0536 14.9145 27.0358 14.9053 27.0358 14.8821H27.0759V14.8914ZM27.0804 21.2219V21.2312H27.0715C27.0715 21.2404 27.0715 21.2543 27.0715 21.2636C27.0715 21.2682 27.0626 21.2775 27.0581 21.2821C27.0313 21.2775 27.0269 21.2682 27.0179 21.2497H27.009C27.009 21.2497 27.0179 21.2312 27.0224 21.2265C27.0135 21.2265 27.0045 21.2265 26.9956 21.2265V21.1942L27.0135 21.1849H27.0536L27.0626 21.171H27.0715V21.1618H27.0804V21.171C27.0893 21.171 27.0938 21.1803 27.1027 21.1849V21.2219H27.0804ZM27.1295 21.1155V21.1062C27.1295 21.1062 27.125 21.1062 27.1117 21.1062H27.1072C27.1072 21.1062 27.1072 21.1201 27.1072 21.1294C27.0893 21.1201 27.0893 21.1247 27.0893 21.1016C27.0849 21.0923 27.0893 21.1016 27.0893 21.0877H27.0983V21.0831L27.134 21.0923C27.134 21.0923 27.134 21.1016 27.134 21.1109C27.134 21.1109 27.134 21.1247 27.125 21.1155H27.1295ZM27.2768 20.6018H27.2812L27.2634 20.6851C27.2634 20.6851 27.2723 20.6897 27.2679 20.7036H27.2589C27.2589 20.7036 27.25 20.7314 27.2455 20.7453H27.2366C27.2232 20.773 27.2411 20.773 27.2143 20.7869C27.2098 20.8147 27.2054 20.8193 27.2277 20.8286V20.8517L27.2098 20.8471L27.2009 20.8934C27.2009 20.8934 27.2143 20.898 27.2009 20.9119C27.1875 20.9165 27.1786 20.9211 27.1652 20.9258C27.1652 20.9304 27.1652 20.935 27.1652 20.9443H27.1607H27.1563V20.9304C27.1474 20.9211 27.1384 20.9165 27.134 20.9119V20.8841H27.1161C27.1161 20.8749 27.1161 20.8702 27.1161 20.861H27.1027V20.8425H27.0893V20.8101C27.1161 20.8239 27.1161 20.8193 27.1429 20.8193C27.1474 20.8101 27.1518 20.8008 27.1518 20.7962C27.1652 20.7962 27.1741 20.7962 27.1831 20.7962V20.773H27.2054V20.7453H27.2188V20.7129V20.7036H27.1964C27.1964 20.6805 27.192 20.6712 27.1652 20.6666C27.1652 20.6481 27.1652 20.6481 27.1652 20.6342H27.1831V20.625H27.2054V20.6157H27.2411C27.2411 20.6157 27.2589 20.5879 27.2634 20.5741H27.2723C27.2723 20.5741 27.2634 20.6018 27.2545 20.6203L27.2768 20.6018ZM27.2902 20.2548V20.2316H27.2991C27.308 20.2455 27.2946 20.2501 27.2902 20.2548ZM27.5356 16.9321H27.549V16.9414H27.5356V16.9321ZM27.5178 16.9183C27.5178 16.9183 27.5178 16.9229 27.5089 16.9321C27.5133 16.9183 27.5089 16.9229 27.5178 16.9183ZM27.4553 16.7933H27.4687C27.4687 16.7933 27.4687 16.8026 27.4598 16.8072L27.4508 16.8118V16.7887L27.4553 16.7933ZM27.3259 20.4815C27.3303 20.4537 27.3348 20.4399 27.3214 20.4306V20.4121H27.3348C27.3393 20.426 27.3482 20.4306 27.3616 20.4399V20.4815H27.3303H27.3259ZM27.3794 20.3242H27.366C27.366 20.3242 27.3616 20.3288 27.3571 20.3334C27.3571 20.3334 27.3393 20.3242 27.3303 20.3195C27.3303 20.3103 27.3303 20.301 27.3303 20.2964C27.3393 20.2964 27.3482 20.2918 27.3571 20.2871V20.2733C27.3571 20.2733 27.3393 20.264 27.3259 20.2501V20.2362H27.3348V20.227L27.366 20.2362V20.227C27.366 20.227 27.3928 20.2455 27.4062 20.2548C27.3973 20.2779 27.3928 20.2964 27.3839 20.3195L27.3794 20.3242ZM27.4151 20.1391H27.3928V20.1252C27.4017 20.1252 27.4107 20.1252 27.4196 20.1252V20.1391H27.4151ZM27.433 20.0789C27.433 20.0789 27.4196 20.102 27.4107 20.1159L27.375 20.1067C27.3794 20.0696 27.375 20.0419 27.4107 20.0373C27.4107 20.0187 27.4107 20.0326 27.4017 20.0187C27.4107 20.0095 27.4196 20.0141 27.4285 20.0002C27.4375 20.0049 27.4419 20.0095 27.4508 20.0095C27.4508 20.0326 27.4508 20.0558 27.4508 20.0789H27.4285H27.433ZM27.5044 19.8336V19.8244H27.4999C27.4999 19.8475 27.4999 19.8522 27.5089 19.866C27.5089 19.866 27.4955 19.8707 27.4865 19.8753C27.4687 19.8938 27.4776 19.9169 27.4732 19.9447H27.4642H27.4419V19.9354C27.4419 19.9354 27.433 19.9031 27.3973 19.8892V19.8614H27.4107C27.4196 19.8244 27.4196 19.8336 27.4375 19.8151H27.4687C27.4687 19.8151 27.4687 19.8151 27.4776 19.8059V19.7966C27.4776 19.7966 27.4955 19.8059 27.4999 19.8059C27.4999 19.7966 27.5089 19.792 27.5089 19.7874H27.5178C27.5178 19.7874 27.5089 19.8105 27.5044 19.8151H27.5178C27.5178 19.8151 27.5133 19.8475 27.5089 19.8336H27.5044ZM27.5267 19.6624V19.6994C27.5223 19.7087 27.5178 19.7133 27.5133 19.718C27.5044 19.7133 27.4598 19.6809 27.4598 19.6763C27.4553 19.6624 27.4642 19.6532 27.4598 19.6439H27.4375C27.4375 19.6439 27.4419 19.6347 27.4285 19.63C27.4285 19.63 27.4241 19.6439 27.4107 19.6347C27.4107 19.63 27.4062 19.6161 27.4017 19.6069H27.3884V19.5976C27.3794 19.5884 27.3839 19.5976 27.3839 19.5838C27.3973 19.5838 27.3973 19.5838 27.4151 19.5838V19.5699C27.4464 19.5791 27.433 19.5699 27.4598 19.5745V19.593H27.4732V19.5699C27.4732 19.5699 27.4865 19.5699 27.4955 19.556C27.5089 19.5652 27.4999 19.556 27.5089 19.5699H27.5178V19.5976L27.5267 19.6069V19.63L27.5356 19.6393C27.5356 19.6532 27.5267 19.6532 27.5222 19.6532L27.5267 19.6624ZM27.5446 18.885H27.5312C27.5312 18.885 27.5312 18.8757 27.5401 18.8711L27.549 18.8757V18.885H27.5446ZM27.5446 17.6587C27.5535 17.6355 27.5624 17.6078 27.5669 17.58H27.5535C27.5535 17.58 27.5669 17.5615 27.5713 17.543C27.558 17.5384 27.5669 17.543 27.558 17.5337H27.549C27.549 17.5337 27.558 17.5198 27.5669 17.5106C27.5669 17.4875 27.5669 17.4875 27.549 17.4782C27.549 17.4643 27.549 17.4736 27.549 17.4597C27.549 17.4597 27.5267 17.4551 27.5133 17.4597V17.4504H27.4999C27.4821 17.4366 27.4732 17.418 27.4419 17.4134V17.381V17.3718H27.4508C27.4553 17.3625 27.4598 17.3579 27.4642 17.3486H27.4999C27.5089 17.3209 27.5312 17.307 27.5535 17.2977V17.2561L27.5312 17.2468V17.2329H27.5267C27.5267 17.2191 27.5356 17.2329 27.5356 17.2237C27.5356 17.2144 27.5356 17.2052 27.5356 17.2005H27.5535L27.5624 17.1635H27.5535V17.1543H27.5624V17.145H27.549V17.1311C27.558 17.1311 27.5624 17.1126 27.5624 17.1034H27.5535V17.0849H27.5446C27.5446 17.0849 27.5446 17.0849 27.5312 17.0756C27.5267 17.0849 27.5223 17.0849 27.5178 17.1034H27.5356L27.5312 17.1265L27.4999 17.0987V17.0756C27.4999 17.0663 27.4999 17.0571 27.4999 17.0525H27.5356C27.5356 17.0525 27.5312 17.0386 27.5267 17.0201H27.5446V17.0016L27.5892 17.0108C27.5892 17.0108 27.5937 17.0201 27.6026 17.0293C27.6026 17.0525 27.6026 17.0617 27.6026 17.0802H27.6204V17.1126C27.6204 17.1126 27.6115 17.1126 27.6026 17.1126V17.1311H27.616V17.1543H27.6338C27.6338 17.1635 27.6338 17.1728 27.6338 17.1867H27.6472V17.2005H27.6383C27.6383 17.2005 27.6472 17.2329 27.6472 17.2376H27.6517L27.6428 17.2885H27.6517C27.6428 17.3116 27.6338 17.3347 27.6294 17.3533H27.616C27.616 17.3533 27.616 17.3718 27.6204 17.3903H27.6294L27.616 17.4134V17.4504H27.6026C27.6026 17.4504 27.6026 17.4828 27.6115 17.4967L27.6249 17.506V17.543H27.6204V17.5522H27.6249V17.5661C27.6294 17.58 27.6249 17.58 27.6249 17.5985C27.6026 17.5985 27.5847 17.5985 27.5803 17.6217C27.5803 17.6217 27.5937 17.6263 27.5847 17.6355C27.5847 17.6355 27.5713 17.6402 27.5624 17.6494L27.5312 17.6402L27.5446 17.6587ZM27.6428 18.2232H27.6294L27.6383 18.1862H27.6472L27.6428 18.2186H27.6517L27.6428 18.2232ZM27.6115 17.816V17.8299H27.5937V17.8206H27.6026L27.6115 17.816ZM27.5713 17.742V17.7512H27.5758V17.7605H27.558C27.558 17.7605 27.558 17.7512 27.5669 17.7466L27.5713 17.742ZM27.6338 18.6953H27.6249V18.7045C27.616 18.7045 27.6249 18.7045 27.616 18.6953H27.5937V18.686C27.5669 18.6721 27.5892 18.6814 27.5758 18.6582H27.5669C27.5669 18.6582 27.5669 18.6444 27.5624 18.6351C27.5803 18.6351 27.5669 18.6351 27.5803 18.6305C27.5892 18.6351 27.5937 18.6397 27.6026 18.6444V18.6582H27.616V18.6444H27.6383L27.6294 18.6906L27.6338 18.6953ZM27.6517 18.2695H27.6472L27.6428 18.288H27.6338C27.6338 18.288 27.6204 18.2695 27.616 18.2649L27.6338 18.2371H27.6561V18.2464H27.6651C27.6651 18.2464 27.6561 18.2603 27.6517 18.2695Z" fill="white"/>
<path d="M27.1695 14.8266V14.8173H27.165V14.8405L27.1829 14.8543C27.1784 14.8405 27.1784 14.8358 27.174 14.8312L27.1695 14.8266Z" fill="white"/>
<path d="M26.9867 14.4425H26.9912V14.4009H26.9778C26.9778 14.4009 26.9733 14.424 26.9867 14.4379V14.4425Z" fill="white"/>
<path d="M24.3267 24.1836L24.3356 24.1882L24.34 24.1789H24.3445L24.349 24.1743L24.3311 24.1697L24.3267 24.1836Z" fill="white"/>
<path d="M23.9741 24.4011C23.9741 24.4011 23.9741 24.4011 23.983 24.3918H23.9741V24.4011Z" fill="white"/>
<path d="M27.0847 14.66V14.6739H27.0891C27.0891 14.6554 27.0891 14.6369 27.0891 14.623H27.0713C27.0713 14.623 27.0713 14.6508 27.0802 14.66H27.0847Z" fill="white"/>
<path d="M27.1115 14.7248H27.1294V14.7017H27.116C27.116 14.7017 27.116 14.6924 27.1115 14.6832C27.1115 14.6924 27.1026 14.697 27.0981 14.7063C27.1071 14.7109 27.116 14.7109 27.116 14.7248H27.1115Z" fill="white"/>
<path d="M27.0001 14.5212C27.0001 14.5212 27.0224 14.5351 27.0268 14.549H27.0358H27.0447C27.0447 14.5351 27.0402 14.5304 27.0447 14.5119L27.0224 14.498L27.0313 14.461C27.0313 14.461 27.0045 14.4471 26.9956 14.4471C26.9956 14.4842 27.009 14.4842 27.0001 14.5258V14.5212Z" fill="white"/>
<path d="M27.0579 14.5998V14.6183H27.0757C27.0757 14.5998 27.0713 14.586 27.0624 14.5767V14.5674C27.0624 14.5674 27.0534 14.5674 27.049 14.5674H27.04L27.0579 14.5906V14.5998Z" fill="white"/>
<path fill-rule="evenodd" clip-rule="evenodd" d="M26.1613 29.5562C26.1613 29.5978 26.1926 29.7274 26.139 29.7737C26.2059 29.9773 25.9962 30.1069 25.9605 30.3197C25.8846 30.3706 25.9158 30.5187 25.8177 30.5095C25.782 30.5881 25.7061 30.5789 25.6793 30.639C25.5052 30.7501 25.3357 30.8704 25.1036 30.8982C25.1036 30.8982 24.9027 30.8704 24.8269 30.9444C24.6796 30.9121 24.5502 30.9722 24.3939 30.9213C24.1842 30.8658 24.2511 30.9306 24.2288 30.9352C24.202 30.9444 24.028 30.9306 24.028 30.9306H23.9075C23.9075 30.9306 23.7557 30.9306 23.7334 30.9306C23.7156 30.9306 23.5192 30.9259 23.5192 30.9259C23.5192 30.9259 23.3005 30.9583 23.2469 30.9028C23.1398 30.9028 23.1131 30.9259 23.0327 30.9352C23.0238 30.9583 22.9613 30.9537 22.9122 30.9583C22.8096 30.9722 22.6355 30.9213 22.5284 30.9352C22.4659 30.9259 22.4168 30.9352 22.3677 30.9352C22.2071 30.9259 22.0598 30.9352 21.8991 30.9259C21.8366 30.9306 21.7741 30.9491 21.8009 30.9676C21.7384 30.9583 21.6938 30.9306 21.6492 30.9352C21.6269 30.963 21.5822 30.9537 21.5064 30.9722C21.3234 30.9907 21.1315 30.9352 20.9663 30.9676C20.8369 30.9537 20.7343 30.9861 20.5959 30.9815C20.3594 30.9815 20.0202 31.0046 19.8015 30.963C19.6721 30.9722 19.5649 30.9398 19.4489 30.9583C19.3909 30.9491 19.2972 30.9491 19.2391 30.9583C19.1945 30.9722 19.1588 30.9861 19.1454 31.0046C19.0338 31.0046 18.949 30.9722 18.8464 30.9861C18.7214 30.9722 18.65 30.9722 18.5251 30.963C18.4313 30.9444 18.3376 30.9815 18.2528 30.963C18.1323 30.9676 18.0386 30.9028 17.9359 30.9167C17.8734 30.9028 17.7039 30.963 17.6235 30.9676C17.5298 30.9583 17.4762 30.9676 17.3825 30.9676C17.3022 30.9861 17.2799 31.0046 17.204 31C17.1147 31 17.0032 31 16.9541 30.9722C16.8782 30.9722 16.8246 30.9491 16.7354 30.963H16.539C16.3917 30.9352 16.2132 30.9815 16.0793 30.9491L15.932 30.9722C15.7892 30.9491 15.6241 30.9722 15.4723 30.9722L15.4411 30.9444C15.3251 30.9583 15.2492 30.9074 15.1242 30.9444C15.0216 30.8797 14.852 30.8704 14.785 30.7732C14.7047 30.7362 14.5797 30.7316 14.5396 30.6483C14.4815 30.6066 14.4592 30.5418 14.3967 30.5048C14.4057 30.4678 14.3655 30.4539 14.3343 30.44C14.3075 30.3475 14.2093 30.2873 14.2182 30.1948C14.1513 30.1716 14.1513 30.1022 14.1022 30.0606C14.1245 30.0236 14.1111 29.9865 14.0709 29.9541C14.0174 29.8107 14.1022 29.6719 14.0709 29.533C14.0709 29.4868 14.0397 29.3572 14.0933 29.3155C14.0218 29.1119 14.2361 28.9823 14.2718 28.7648C14.3432 28.7186 14.3164 28.5659 14.4101 28.5751C14.4458 28.5011 14.5217 28.5103 14.5485 28.4455C14.727 28.3345 14.8921 28.2142 15.1198 28.191C15.1555 28.0753 15.3206 28.2142 15.3965 28.1448C15.5482 28.1818 15.6687 28.117 15.8294 28.1633C16.0391 28.2188 16.0615 28.154 16.0615 28.154L16.2489 28.1633L16.5658 28.0846L17.1727 28.1633H17.329C17.329 28.1633 17.6101 28.1309 17.6503 28.1448C17.6905 28.1633 17.8422 28.1633 17.8422 28.191C18.11 28.08 18.4938 28.191 18.8107 28.1309C19.0428 28.117 19.2659 28.191 19.4801 28.154L19.556 28.1679C19.7033 28.1309 19.8952 28.1771 20.0246 28.1216C20.2522 28.1494 20.4486 28.0846 20.6628 28.1216C20.8101 28.117 20.944 28.0846 21.1047 28.1031C21.2118 28.0892 21.3323 28.1124 21.435 28.0938C21.4974 28.1216 21.5421 28.1031 21.5867 28.0938C21.7563 28.1309 21.908 28.0938 22.0598 28.1401C22.1357 28.1124 22.2651 28.1216 22.3454 28.0938C22.4034 28.1216 22.4748 28.1262 22.5329 28.1124C22.8006 28.1216 22.9747 28.0892 23.2246 28.1124L23.3094 28.1216C23.3808 28.1818 23.488 28.0337 23.5415 28.1124C23.7914 28.08 24.0592 28.1077 24.2913 28.0985C24.4341 28.117 24.5992 28.0985 24.751 28.0985L24.7778 28.1262C24.8893 28.1124 24.9563 28.1957 25.0813 28.154C25.1839 28.2188 25.3535 28.228 25.4204 28.3299C25.5008 28.3715 25.6302 28.3715 25.6704 28.4502C25.7284 28.4918 25.7463 28.5612 25.8132 28.5936C25.8043 28.6306 25.8444 28.6445 25.8757 28.6584C25.9025 28.751 26.0006 28.8111 25.9962 28.9083C26.0631 28.9314 26.0587 29.0009 26.1122 29.0425C26.0899 29.0749 26.1033 29.1165 26.139 29.1443C26.1926 29.2924 26.1122 29.4312 26.139 29.5654L26.1613 29.5562Z" fill="white"/>
</g>
<circle cx="20" cy="20" r="19.5" stroke="black" stroke-opacity="0.05"/>
<defs>
<clipPath id="clip0_16523_10732">
<rect width="16" height="21" fill="white" transform="translate(12 10)"/>
</clipPath>
</defs>
</svg>
