<svg width="40" height="40" viewBox="0 0 40 40" fill="none" xmlns="http://www.w3.org/2000/svg">
<circle cx="20" cy="20" r="20" fill="#C31200"/>
<circle cx="20.0352" cy="20.2104" r="10" fill="white"/>
<path d="M32.035 20.2516C32.0003 26.9398 26.6085 32.2455 19.8864 32.2103C13.3751 32.1766 8.00638 26.7111 8.03527 20.1475C8.0656 13.5561 13.5282 8.16095 20.1232 8.21079C26.7255 8.26064 32.0697 13.6616 32.035 20.2516ZM20.0424 9.31767C14.0063 9.32647 9.16333 14.1689 9.15322 20.2032C9.14311 26.2317 14.0005 31.1005 20.025 31.1019C26.0827 31.1019 30.956 26.239 30.9517 20.1944C30.9488 14.1923 26.0495 9.30887 20.0409 9.31767H20.0424Z" fill="white"/>
<path d="M11.8539 22.7935H13.1908V16.3565C13.1908 16.2104 13.2568 16.2104 13.3419 16.2104C15.0947 16.2104 16.8606 16.2219 18.6134 16.262C19.6035 16.2849 20.4924 17.0412 20.7344 17.9336C21.0072 18.9434 20.6229 20.0348 19.7018 20.5361C19.2588 20.7768 18.7117 20.9114 18.2013 20.9429C17.2024 21.0045 16.1977 20.9615 15.1519 20.9615V22.772C15.322 22.772 15.4217 22.772 15.5596 22.772C19.1415 22.7749 22.7233 22.7735 26.3052 22.772C26.3961 22.772 26.4885 22.7763 26.5794 22.7663C27.0943 22.7076 27.4698 22.3108 27.4639 21.8381C27.458 21.3597 27.084 20.9759 26.5457 20.9644C25.56 20.9429 24.5714 20.9687 23.5858 20.9472C21.6614 20.9042 20.4968 18.9921 21.4355 17.4136C21.833 16.7461 22.4373 16.2835 23.2411 16.2634C25.0863 16.219 26.9315 16.2348 28.7781 16.2319C28.9052 16.2319 28.9677 16.3863 28.8763 16.4746C28.4641 16.8727 28.3452 16.9729 27.6593 17.6428C26.6531 17.6428 24.7695 17.6557 23.7471 17.6614C23.0563 17.6657 22.6265 18.0181 22.6221 18.5667C22.6177 19.1195 23.0387 19.4762 23.7295 19.4805C24.6242 19.4877 25.5204 19.4776 26.4166 19.4834C27.857 19.492 28.9409 20.4874 28.9659 21.8166C28.9893 23.1473 27.9289 24.1972 26.4856 24.2015C22.1909 24.2158 17.8962 24.2115 13.6015 24.1986C13.3859 24.1986 13.1365 24.1027 12.962 23.9738C12.5351 23.6615 12.1435 23.3034 11.7387 22.964C11.6433 22.8709 11.6551 22.7935 11.7387 22.7935H11.8539ZM15.1489 19.4776C16.2798 19.4776 17.3696 19.492 18.458 19.4705C18.9361 19.4604 19.3175 19.0379 19.3233 18.5996C19.3292 18.167 18.9655 17.703 18.4917 17.6872C17.3872 17.6514 16.2813 17.6757 15.1489 17.6757V19.4776Z" fill="#C31200"/>
<circle cx="20" cy="20" r="19.5" stroke="black" stroke-opacity="0.05"/>
</svg>
