<svg width="40" height="40" viewBox="0 0 40 40" fill="none" xmlns="http://www.w3.org/2000/svg">
<circle cx="20" cy="20" r="20" fill="#1D4568"/>
<g clip-path="url(#clip0_14382_20248)">
<path d="M25.1092 15.9296C23.9032 15.972 22.4829 15.5415 22.4829 15.5415L22.1389 17.7492L22.0929 17.9497C21.633 19.3627 20.0793 19.4004 19.8447 19.4096L19.726 19.4004V19.3038V18.9625V18.8512H19.8374C20.7646 18.8512 21.3487 18.3913 21.5327 17.8163L21.6606 17.2184C22.0865 14.3907 22.1343 14.0779 22.1361 14.0678C22.2723 13.4478 22.1913 12.9547 21.8942 12.6043C21.2613 11.8564 20.0149 11.9061 19.7868 11.9107H16.7189C15.2342 11.8748 14.6161 13.7072 14.5259 13.9123C14.4864 14.0043 14.0798 15.1818 12.8545 15.4099C11.7801 15.6095 10.7746 15.0144 10.5152 14.0301C10.4103 13.6201 10.472 13.1853 10.6868 12.8207C10.9016 12.4561 11.252 12.1914 11.6614 12.0845C11.8314 12.0399 12.0086 12.0301 12.1824 12.0555C12.3563 12.081 12.5232 12.1412 12.6733 12.2326C12.8182 12.3338 12.9354 12.4697 13.0145 12.6277C13.0935 12.7858 13.1318 12.9612 13.1259 13.1378C13.0753 14.1625 12.045 14.1589 12.045 14.1589L11.9438 13.7109C12.0302 13.7212 12.1178 13.7138 12.2013 13.6893C12.2847 13.6648 12.3624 13.6236 12.4295 13.5683C12.4936 13.5136 12.5437 13.4445 12.5757 13.3666C12.6077 13.2886 12.6206 13.2042 12.6135 13.1203C12.6102 13.0359 12.5876 12.9533 12.5475 12.879C12.5073 12.8047 12.4505 12.7406 12.3817 12.6916C12.2122 12.5888 12.0093 12.5558 11.8159 12.5997C11.2567 12.722 10.9145 13.3356 11.058 13.8875C11.1519 14.2344 11.3775 14.5309 11.6867 14.7141C11.9959 14.8972 12.3644 14.9525 12.7138 14.8681C13.6686 14.6492 14.2316 13.6483 13.985 12.7045C13.6649 11.4829 12.4212 10.7774 11.1913 11.069C9.89338 11.3771 8.95418 12.5408 8.99649 14.226L9.01765 14.5655C9.0618 14.8285 9.34697 18.142 13.1617 18.1696C13.2178 18.1696 13.7578 18.1282 14.0816 18.4455C14.2536 18.6157 14.318 18.8438 14.3079 19.1456C14.3125 19.2376 14.3484 19.2578 14.3622 19.2652C14.5314 19.3516 14.9141 19.2044 15.2628 18.9791L15.4072 18.911C15.581 18.819 16.5442 18.5964 16.9903 19.7748C17.1266 20.1091 17.2041 20.4645 17.2194 20.8253L17.1936 21.4177L17.2221 26.0925C17.1697 26.925 16.8799 27.0741 16.8799 27.0741C16.5432 27.4567 16.5166 27.546 16.466 27.7042C16.4397 27.7793 16.4379 27.8608 16.4609 27.937C16.4839 28.0132 16.5304 28.0802 16.5938 28.1283C16.7401 28.2101 16.7971 28.1816 16.7971 28.1816H21.7939V24.7826H26.5176V26.7098C26.505 26.8521 26.463 26.9902 26.3943 27.1155C26.2471 27.3326 26.1965 27.2314 25.9647 27.6959C25.8911 27.8946 25.8838 28.0142 26.0015 28.1494C26.2223 28.2267 26.2609 28.2028 26.2609 28.2028H31.0002V20.1758C31.1216 15.6003 25.1092 15.9296 25.1092 15.9296ZM16.351 15.4973C16.2673 15.4973 16.1855 15.4725 16.1159 15.426C16.0463 15.3795 15.9921 15.3134 15.96 15.2361C15.928 15.1588 15.9196 15.0737 15.936 14.9916C15.9523 14.9095 15.9926 14.8341 16.0518 14.7749C16.1109 14.7158 16.1863 14.6755 16.2684 14.6591C16.3505 14.6428 16.4356 14.6512 16.5129 14.6832C16.5902 14.7152 16.6563 14.7695 16.7028 14.8391C16.7493 14.9086 16.7741 14.9905 16.7741 15.0741C16.7741 15.1864 16.7295 15.294 16.6502 15.3734C16.5708 15.4527 16.4632 15.4973 16.351 15.4973Z" fill="white"/>
</g>
<circle cx="20" cy="20" r="19.5" stroke="black" stroke-opacity="0.05"/>
<defs>
<clipPath id="clip0_14382_20248">
<rect width="22" height="17.2046" fill="white" transform="translate(9 11)"/>
</clipPath>
</defs>
</svg>
