<svg width="40" height="40" viewBox="0 0 40 40" fill="none" xmlns="http://www.w3.org/2000/svg">
<circle cx="20" cy="20" r="20" fill="#7F1184"/>
<g clip-path="url(#clip0_14382_19957)">
<path d="M34 13H6V14.7461H34V13Z" fill="white"/>
<path d="M34 25.2305H6V26.9766H34V25.2305Z" fill="white"/>
<path d="M26.8668 19.1622V19.2718H23.7896V20.689H26.8668V22.4664H23.0066L21.0961 20.0156L23.0536 17.5022H26.8668V19.1622ZM16.9854 22.4664H13.133V20.689H16.2181V19.2718H13.133V17.5022H16.9384L18.8959 20.0156L16.9854 22.4664ZM32.1129 16.0928V21.9888L29.85 17.2125C29.7243 16.9099 29.5284 16.6415 29.2785 16.4295C29.0246 16.2141 28.7031 16.0949 28.3702 16.0928H21.9574L19.9999 18.5984L18.0346 16.0928H12.5536C12.2077 16.07 11.867 16.1855 11.6062 16.4138C11.3979 16.6221 11.2774 16.9024 11.2695 17.1968V21.9888L9.01448 17.2125C8.88894 16.9077 8.68988 16.6387 8.43506 16.4295C8.18124 16.2141 7.85969 16.0949 7.52678 16.0928H6.03125V23.8758H7.9261V18.5201C7.9261 18.5201 10.0715 23.0615 10.1498 23.2181C10.2657 23.4572 10.4668 23.6443 10.7136 23.7427C10.9424 23.8356 11.187 23.8835 11.4339 23.8836H18.1129L20.0234 21.4328L21.9418 23.8836H27.5167C27.6887 23.8956 27.8612 23.8727 28.0241 23.8162C28.1869 23.7596 28.3366 23.6707 28.4641 23.5548C28.6711 23.3456 28.7914 23.0659 28.8008 22.7718V18.5201L31.0167 23.2181C31.1326 23.4572 31.3337 23.6443 31.5805 23.7427C31.8089 23.8368 32.0538 23.8847 32.3008 23.8836H34.0313V16.0928H32.1129Z" fill="white"/>
</g>
<circle cx="20" cy="20" r="19.5" stroke="black" stroke-opacity="0.05"/>
<defs>
<clipPath id="clip0_14382_19957">
<rect width="28" height="13.9765" fill="white" transform="translate(6 13)"/>
</clipPath>
</defs>
</svg>
