<svg width="40" height="40" viewBox="0 0 40 40" fill="none" xmlns="http://www.w3.org/2000/svg">
<circle cx="20" cy="20" r="20" fill="#00215B"/>
<circle cx="20" cy="20" r="19.5" stroke="black" stroke-opacity="0.05"/>
<path d="M10.85 19.8795C10.8543 19.879 10.8584 19.8777 10.8622 19.8756C10.8659 19.8736 10.8692 19.8708 10.8719 19.8675C10.8745 19.8641 10.8765 19.8603 10.8776 19.8562C10.8787 19.8522 10.8789 19.8479 10.8783 19.8438C10.7681 19.0557 10.2664 18.7498 9.54547 18.6974C8.64827 18.633 7.80586 18.7951 7.01825 19.1838C7.00785 19.189 6.99629 19.1915 6.98466 19.191C6.97304 19.1904 6.96172 19.1869 6.9518 19.1807C6.94187 19.1746 6.93366 19.166 6.92794 19.1557C6.92223 19.1455 6.91919 19.134 6.91913 19.1222C6.91954 18.6547 6.90866 18.1612 6.8865 17.6416C6.88362 17.5714 6.91728 17.5217 6.98746 17.4926C8.00082 17.0733 9.21918 16.9434 10.3243 17.0278C10.6881 17.0555 11.0544 17.1454 11.4041 17.2507C11.417 17.2545 11.4306 17.2557 11.4439 17.2542C11.4573 17.2526 11.4702 17.2483 11.4819 17.2416C11.4935 17.2348 11.5037 17.2258 11.5117 17.2149C11.5197 17.2041 11.5254 17.1917 11.5285 17.1786C12.0241 15.0331 13.1993 13.0852 14.8 11.5762C16.4668 10.0051 18.4399 9.02172 20.7195 8.62606C21.1016 8.55998 21.4956 8.51648 21.9015 8.49555C24.3058 8.37242 26.5088 8.92178 28.5105 10.1436C31.3898 11.9019 33.31 14.841 33.8623 18.1581C34.0166 19.0861 34.0412 20.1081 33.9362 21.224C33.8988 21.6234 33.8338 22.0264 33.741 22.4332C33.308 24.3314 32.5171 25.9883 31.3683 27.4039C30.0131 29.0731 28.28 30.2535 26.1692 30.9451C24.0817 31.6293 21.9095 31.7042 19.6525 31.1698C17.4366 30.6457 15.499 29.5271 13.8396 27.8139C12.731 26.6696 11.8498 25.3448 11.196 23.8393C11.1759 23.7925 11.1449 23.7835 11.1031 23.8122C10.1186 24.4907 8.86642 24.772 7.68807 24.4697C6.90374 24.269 6.22098 23.6897 6.05907 22.8752C5.89777 22.065 6.0523 21.1588 6.70303 20.6189C7.04574 20.3353 7.45269 20.1372 7.92386 20.0248C8.71887 19.8351 9.59965 19.7877 10.5662 19.8825C10.6602 19.892 10.7548 19.891 10.85 19.8795ZM24.4386 19.1173L24.409 17.6083C24.4085 17.5853 24.4149 17.5627 24.4275 17.5435C24.44 17.5243 24.458 17.5093 24.4792 17.5006C24.7132 17.4033 24.9549 17.3239 25.2044 17.2624C25.9108 17.0883 26.5993 17.0011 27.2699 17.0007C28.1565 17.0001 29.1563 17.2051 29.8156 17.777C30.3361 18.2293 30.634 18.8048 30.7096 19.5033C30.7461 19.8431 30.7602 20.1643 30.752 20.4668C30.7352 21.0574 30.7161 21.6659 30.6948 22.2922C30.6743 22.8881 30.749 23.4695 30.9189 24.0363C30.9456 24.1262 30.9798 24.1293 31.0217 24.0455C31.2052 23.6792 31.3209 23.3006 31.436 22.9158C31.9113 21.3308 31.9997 19.7453 31.7014 18.1594C31.2195 15.5966 29.9585 13.5026 27.9182 11.8773C26.1907 10.5007 24.0126 9.76932 21.8073 9.72807C21.2415 9.7176 20.6117 9.78409 20.0595 9.87952C17.4639 10.3289 15.341 11.5996 13.6906 13.6916C13.0688 14.4796 12.564 15.3974 12.1761 16.4448C12.0598 16.7575 11.9908 17.0906 11.8511 17.399C11.8487 17.4043 11.8483 17.4103 11.8502 17.4159C11.852 17.4214 11.8558 17.4262 11.8609 17.4292C12.4314 17.7715 12.802 18.2012 12.9728 18.7184C13.1673 19.3075 13.2554 20.0032 13.4031 20.6466C13.6943 21.9173 14.4947 22.7816 15.8288 22.9011C16.2332 22.9368 17.1401 23.026 17.3925 22.6111C17.6732 22.1512 17.1346 21.8157 16.7387 21.6864C16.2745 21.5345 15.8458 21.3983 15.4526 21.2776C15.0463 21.1532 14.6079 20.9464 14.3371 20.6189C13.9375 20.1368 13.8605 19.4282 13.9917 18.8236C14.2533 17.6182 15.5831 17.0697 16.6974 17.0149C17.641 16.9685 18.5501 17.084 19.4248 17.3615C19.5122 17.3886 19.5362 17.4791 19.5294 17.5591C19.4863 18.0615 19.4352 18.5739 19.3761 19.0964C19.375 19.1057 19.3716 19.1147 19.3663 19.1225C19.3609 19.1303 19.3538 19.1366 19.3455 19.141C19.3371 19.1454 19.3279 19.1476 19.3185 19.1476C19.3092 19.1475 19.3 19.1452 19.2918 19.1407C18.5296 18.7315 17.6878 18.5977 16.7664 18.7393C16.631 18.7602 16.4413 18.8396 16.3595 18.9535C16.0744 19.3531 16.6143 19.6332 16.9406 19.7391C17.3371 19.8676 17.7209 19.9776 18.0919 20.0691C18.5052 20.1709 18.8411 20.3004 19.0997 20.4576C19.932 20.9636 20.1081 21.9567 19.8963 22.8647C19.6335 23.9914 18.5739 24.4279 17.5169 24.5455C16.7387 24.6321 15.8842 24.6101 14.9533 24.4796C14.7785 24.455 14.6098 24.4194 14.4473 24.3731C14.4363 24.3698 14.4246 24.3705 14.414 24.375C14.4035 24.3795 14.3948 24.3875 14.3894 24.3977C14.375 24.4252 14.3771 24.45 14.3955 24.4722C14.4062 24.4853 14.4156 24.4991 14.4239 24.5134C15.3535 26.1392 16.6133 27.3795 18.2033 28.2344C21.5586 30.0389 25.716 29.6085 28.6342 27.1466C29.5019 26.4144 30.2304 25.5362 30.8198 24.5122C30.8304 24.4941 30.8263 24.4806 30.8074 24.4716C30.7463 24.4412 30.6796 24.426 30.6074 24.426C29.9671 24.426 29.3198 24.4254 28.6656 24.4242C28.5942 24.4242 28.5556 24.3885 28.5499 24.317C28.5252 23.9994 28.5224 23.7018 28.5413 23.4244C28.5449 23.3698 28.5205 23.3505 28.468 23.3665C28.4569 23.3696 28.4475 23.3767 28.4415 23.3862C28.2047 23.7531 27.9018 24.0462 27.5328 24.2653C26.9313 24.6236 26.2055 24.6476 25.5147 24.5381C24.9266 24.4445 24.4464 24.2062 24.0741 23.8233C23.7897 23.5303 23.6163 23.1935 23.5539 22.813C23.4246 22.0312 23.5718 21.1883 24.1634 20.6663C24.4954 20.3732 24.8851 20.1694 25.3325 20.0549C26.2835 19.8111 27.2732 19.7652 28.3018 19.917C28.3142 19.9189 28.3268 19.9179 28.3387 19.9141C28.3507 19.9102 28.3616 19.9037 28.3706 19.8949C28.3797 19.8862 28.3866 19.8755 28.3909 19.8636C28.3952 19.8518 28.3967 19.8391 28.3953 19.8265C28.3079 19.036 27.7662 18.7356 27.0366 18.6962C26.1569 18.6488 25.3042 18.783 24.5537 19.185C24.5419 19.1914 24.5286 19.1945 24.5152 19.1943C24.5018 19.194 24.4887 19.1903 24.4771 19.1835C24.4656 19.1767 24.4559 19.167 24.4492 19.1554C24.4424 19.1438 24.4388 19.1307 24.4386 19.1173ZM9.64275 21.1883C9.0979 21.208 8.43423 21.3589 8.3425 21.9862C8.2557 22.5865 8.75129 22.8832 9.28813 22.9023C10.2184 22.9349 10.7835 22.158 10.8716 21.2998C10.8731 21.2839 10.8684 21.2681 10.8583 21.2558C10.8483 21.2435 10.8338 21.2356 10.818 21.2339C10.4129 21.1896 10.0212 21.1744 9.64275 21.1883ZM25.8964 22.3599C26.014 22.8032 26.6094 22.9355 27.0114 22.8955C27.288 22.8676 27.5189 22.7818 27.704 22.6382C28.1214 22.315 28.4083 21.7892 28.3843 21.2511C28.383 21.2261 28.3699 21.2132 28.3449 21.2123C27.9861 21.1988 27.6529 21.1896 27.345 21.1846C26.959 21.1779 26.4142 21.2425 26.1285 21.4999C25.8806 21.7227 25.8033 22.0094 25.8964 22.3599Z" fill="#5CB531"/>
<path d="M21.7594 16.6381C22.4543 16.6381 23.0177 16.0747 23.0177 15.3797C23.0177 14.6847 22.4543 14.1213 21.7594 14.1213C21.0644 14.1213 20.501 14.6847 20.501 15.3797C20.501 16.0747 21.0644 16.6381 21.7594 16.6381Z" fill="#5CB531"/>
<path d="M22.9216 17.1688H20.5981C20.5447 17.1688 20.5015 17.2121 20.5015 17.2655V24.3294C20.5015 24.3828 20.5447 24.4261 20.5981 24.4261H22.9216C22.975 24.4261 23.0182 24.3828 23.0182 24.3294V17.2655C23.0182 17.2121 22.975 17.1688 22.9216 17.1688Z" fill="#5CB531"/>
</svg>
