<svg width="40" height="40" viewBox="0 0 40 40" fill="none" xmlns="http://www.w3.org/2000/svg">
<circle cx="20" cy="20" r="20" fill="#004098"/>
<g clip-path="url(#clip0_14382_19244)">
<path d="M29.1755 26.2286C29.608 26.2286 30.0311 25.8781 30.1188 25.4442L31.9698 15.4572C32.0581 15.0244 31.7788 14.6732 31.3834 14.6732H11.0335C10.5632 14.6732 10.1403 15.0244 10.0511 15.4572L8.01614 25.444C7.92911 25.8778 8.20801 26.2286 8.6412 26.2286H29.1755Z" fill="white"/>
<path d="M17.5016 18.7754L16.7082 22.6404C16.7082 22.6404 16.1693 24.8664 19.0964 24.8664C19.0964 24.8664 21.6726 24.9543 22.386 22.9037L22.6194 21.7624H20.6128L20.4254 22.6692C20.4254 22.6692 20.2276 23.4314 19.4032 23.3725C19.4032 23.3725 18.5489 23.4613 18.7333 22.7578L19.5502 18.7754C19.5502 18.7754 19.5744 18.1165 20.4953 18.0435C20.4953 18.0435 21.3324 18.0435 21.2427 18.6875L21.0383 19.6822H23.0465L23.25 18.6875C23.25 18.6875 23.646 16.5501 20.7898 16.6083C20.7898 16.6083 18.0465 16.7253 17.5018 18.7754M23.6155 18.7754L22.8243 22.6404C22.8243 22.6404 22.2847 24.8664 25.2131 24.8664C25.2131 24.8664 27.7889 24.9543 28.501 22.9037L28.7355 21.7624H26.7278L26.541 22.6692C26.541 22.6692 26.3432 23.4314 25.5192 23.3725C25.5192 23.3725 24.6645 23.4613 24.8506 22.7578L25.666 18.7754C25.666 18.7754 25.6884 18.1165 26.6111 18.0435C26.6111 18.0435 27.448 18.0435 27.3575 18.6875L27.1539 19.6822H29.1616L29.3651 18.6875C29.3651 18.6875 29.7614 16.5501 26.9047 16.6083C26.9047 16.6083 24.161 16.7253 23.6155 18.7754Z" fill="#004098"/>
<path d="M20.2753 14.6743L17.9518 14.673L13.8459 19.1477L14.5 16.2323L12.3793 16.2299L10.5635 24.6596H12.6852L13.1747 22.3066L13.7235 21.6747L14.4531 24.6613H16.5556L15.3336 20.0712L20.2753 14.6743Z" fill="#004098"/>
<path d="M21.8099 13.0007L19.4792 13L17.9519 14.6732L20.2748 14.6719L21.8099 13.0007Z" fill="#E70012"/>
</g>
<circle cx="20" cy="20" r="19.5" stroke="black" stroke-opacity="0.05"/>
<defs>
<clipPath id="clip0_14382_19244">
<rect width="24" height="13.2308" fill="white" transform="translate(8 13)"/>
</clipPath>
</defs>
</svg>
