<svg width="40" height="40" viewBox="0 0 40 40" fill="none" xmlns="http://www.w3.org/2000/svg">
<circle cx="20" cy="20" r="20" fill="#F6F8FA"/>
<path d="M12.306 13.665L12.2181 14.5594C12.2095 14.6503 12.2381 14.7277 12.3039 14.7915C12.3482 14.8355 12.3654 14.8888 12.3554 14.9512C12.3411 15.0308 12.3704 15.089 12.4433 15.1259C12.572 15.1926 12.6514 15.3026 12.6814 15.4559C12.6968 15.5419 12.7379 15.6213 12.7994 15.6838C12.9639 15.8513 13.1255 16.0274 13.2842 16.2119C13.4544 16.4121 13.6539 16.5633 13.8827 16.6655C14.0858 16.7592 14.2653 16.8806 14.4212 17.0297C14.5842 17.1858 14.7994 17.2895 15.0669 17.3406C15.6132 17.447 16.1652 17.5116 16.7229 17.5343C16.9761 17.5429 17.1627 17.4172 17.3965 17.347C17.5224 17.31 17.6454 17.2504 17.7655 17.1681C18.0344 16.9821 18.3089 16.7975 18.5892 16.6144C19.4716 16.0338 19.9572 15.2125 20.0458 14.1506C20.1087 13.4194 19.8985 12.5626 19.4151 11.5802C19.4008 11.549 19.3787 11.5234 19.3486 11.5036C19.3215 11.4865 19.2929 11.4695 19.2628 11.4525C19.2042 11.4198 19.1541 11.3765 19.1127 11.3226C18.9139 11.0628 18.6944 10.9123 18.4541 10.8711C18.0251 10.7973 17.7483 10.5971 17.6239 10.2706C21.378 9.39535 25.1385 10.6837 27.6333 13.5522C27.8493 13.802 27.7942 13.9014 27.4681 13.8503C24.1345 13.3286 20.8481 14.6233 18.9775 17.4534C17.4759 19.7235 15.468 21.6294 13.1555 22.7921C12.7651 22.988 12.7844 23.0427 13.2134 22.9561C15.1512 22.5614 17.1234 22.0276 19.1298 21.3547C19.2199 21.3235 19.2485 21.3526 19.2156 21.442C18.0487 24.6256 15.0089 25.0047 12.246 25.569C11.8577 25.6478 11.6217 25.5413 11.4394 25.2134C9.55591 21.8303 9.52087 18.4309 11.3343 15.0151C11.5359 14.6361 11.8598 14.186 12.306 13.665Z" fill="#0C8EBF"/>
<path d="M17.6241 10.2705C17.7485 10.597 18.0253 10.7972 18.4543 10.871C18.6946 10.9122 18.9141 11.0627 19.1129 11.3225C19.1543 11.3764 19.2044 11.4197 19.263 11.4524C19.2931 11.4694 19.3217 11.4865 19.3488 11.5035C19.3789 11.5234 19.401 11.5489 19.4153 11.5802C19.8987 12.5626 20.109 13.4193 20.046 14.1505C19.9574 15.2124 19.4718 16.0337 18.5895 16.6143C18.3091 16.7975 18.0346 16.982 17.7657 17.168C17.6456 17.2503 17.5226 17.31 17.3967 17.3469C17.1629 17.4172 16.9763 17.5428 16.7232 17.5343C16.1654 17.5116 15.6134 17.447 15.0671 17.3405C14.7996 17.2894 14.5844 17.1857 14.4214 17.0296C14.2655 16.8805 14.086 16.7591 13.8829 16.6654C13.6541 16.5632 13.4546 16.412 13.2844 16.2119C13.1257 16.0273 12.9641 15.8513 12.7996 15.6837C12.7381 15.6213 12.697 15.5419 12.6816 15.4559C12.6516 15.3025 12.5722 15.1925 12.4435 15.1258C12.3706 15.0889 12.3413 15.0307 12.3556 14.9512C12.3656 14.8887 12.3484 14.8355 12.3041 14.7915C12.2383 14.7276 12.2097 14.6502 12.2183 14.5593L12.3062 13.665C13.6892 11.9514 15.4618 10.8199 17.6241 10.2705Z" fill="#0C8EBF"/>
<path d="M29.113 15.9821C28.9643 16.6295 28.8806 17.274 28.8621 17.9157C28.8506 18.2621 28.8127 18.5489 28.7484 18.776C28.6368 19.1778 28.5274 19.4504 28.4201 19.5938C28.1384 19.97 27.8896 20.3661 27.6736 20.782C27.6193 20.8885 27.5156 21.0333 27.3626 21.2165C27.2424 21.3613 27.1523 21.5203 27.0923 21.6935C27.0723 21.7503 27.0387 21.7971 26.9915 21.834C26.7054 22.0512 26.4752 22.3309 26.3007 22.673C26.1706 22.9257 25.946 23.1288 25.6271 23.2821C25.537 23.324 25.4581 23.3884 25.3976 23.4695C25.2832 23.6228 25.133 23.7719 24.9471 23.9167C24.1534 24.5271 23.2867 25.1511 22.3472 25.7885C22.1941 25.8922 22.0397 26.0036 21.8838 26.1229C21.6049 26.3372 21.2417 26.4636 20.794 26.5019C20.6596 26.5133 20.5338 26.5445 20.4165 26.5956C20.0926 26.7319 19.8716 26.9683 19.5048 27.0023C19.1573 27.0364 18.8248 27.0932 18.5073 27.1727C18.3214 27.2196 18.1326 27.2437 17.941 27.2451C17.7508 27.2465 17.5555 27.2515 17.3553 27.26C16.7118 27.287 16.1126 27.2295 15.5577 27.0875C15.4876 27.0705 15.4182 27.0698 15.3496 27.0854C14.9949 27.1692 14.839 27.0932 14.8819 26.8575C16.4672 26.7085 17.9538 26.4082 19.3418 25.5756C20.8927 24.645 21.6285 22.8328 22.7998 21.5146C23.9696 20.1986 25.3719 19.0025 27.0065 17.9264C27.1752 17.8156 27.339 17.6985 27.4977 17.575C27.6221 17.4785 27.6071 17.4444 27.4527 17.4728C27.0265 17.548 26.596 17.6552 26.1613 17.7943C24.6039 18.2926 23.005 18.8357 21.3647 19.4234C21.1659 19.4944 21.1173 19.4376 21.2188 19.253C21.7479 18.3033 22.3264 17.5643 22.9542 17.0362C24.5073 15.7308 26.586 15.224 28.5853 15.1729C28.6611 15.1715 28.7212 15.2013 28.7655 15.2623C28.9572 15.525 29.073 15.7649 29.113 15.9821Z" fill="#0C8EBF"/>
<path d="M29.1135 15.9824C29.8772 17.7116 30.1475 19.4258 29.9244 21.1252C28.8282 29.4984 18.9497 32.9908 12.8316 26.9899C12.6958 26.8578 12.7236 26.7947 12.9153 26.8004L14.8824 26.8578C14.8395 27.0935 14.9954 27.1695 15.35 27.0857C15.4187 27.0701 15.4881 27.0708 15.5581 27.0878C16.113 27.2298 16.7122 27.2873 17.3558 27.2603C17.556 27.2518 17.7512 27.2468 17.9414 27.2454C18.1331 27.244 18.3218 27.2199 18.5077 27.173C18.8252 27.0935 19.1577 27.0367 19.5053 27.0027C19.8721 26.9686 20.093 26.7322 20.417 26.5959C20.5342 26.5448 20.6601 26.5136 20.7945 26.5022C21.2421 26.4639 21.6054 26.3375 21.8843 26.1232C22.0401 26.0039 22.1946 25.8925 22.3476 25.7888C23.2872 25.1514 24.1538 24.5275 24.9476 23.917C25.1335 23.7722 25.2836 23.6231 25.3981 23.4698C25.4586 23.3887 25.5375 23.3243 25.6276 23.2824C25.9465 23.1291 26.171 22.9261 26.3012 22.6734C26.4756 22.3312 26.7059 22.0515 26.9919 21.8343C27.0391 21.7974 27.0727 21.7506 27.0927 21.6938C27.1528 21.5206 27.2429 21.3616 27.363 21.2168C27.5161 21.0336 27.6197 20.8888 27.6741 20.7823C27.89 20.3664 28.1389 19.9703 28.4206 19.5941C28.5279 19.4507 28.6373 19.1781 28.7488 18.7763C28.8132 18.5492 28.8511 18.2624 28.8625 17.916C28.8811 17.2743 28.9648 16.6298 29.1135 15.9824Z" fill="#0C8EBF"/>
<circle cx="20" cy="20" r="19.5" stroke="black" stroke-opacity="0.05"/>
</svg>
