<svg width="40" height="40" viewBox="0 0 40 40" fill="none" xmlns="http://www.w3.org/2000/svg">
<circle cx="20" cy="20" r="20" fill="#A62B4D"/>
<path d="M16.0632 20.8033C17.855 18.0158 19.3238 14.989 20.2627 11.8592C20.4265 11.3142 20.7555 11.013 21.2498 10.9558C21.9922 10.8689 22.6575 11.4569 22.5502 12.2176C22.5223 12.42 22.4282 12.655 22.268 12.9225C20.537 15.8101 18.517 18.4896 16.208 20.961C16.1948 20.9752 16.178 20.9854 16.1594 20.9905C16.1408 20.9956 16.1212 20.9954 16.1029 20.99C16.0564 20.9764 16.0335 20.9449 16.0342 20.8955C16.0349 20.8619 16.0446 20.8312 16.0632 20.8033Z" fill="white"/>
<path d="M14.1094 23.6733C14.0847 23.6863 14.0562 23.6901 14.029 23.6843C14.0017 23.6784 13.9774 23.6631 13.9602 23.6411L13.9366 23.6111C13.9316 23.6044 13.9279 23.5968 13.9258 23.5887C13.9237 23.5806 13.9233 23.5722 13.9245 23.5639C13.9257 23.5556 13.9285 23.5476 13.9328 23.5405C13.9371 23.5333 13.9428 23.527 13.9495 23.522C15.4902 22.3854 16.9412 21.0564 18.3024 19.535C19.7387 17.9306 20.9526 16.3891 21.944 14.9106C22.1486 14.6059 22.3349 14.3892 22.503 14.2604C23.1328 13.7754 24.1006 14.1327 24.3442 14.8376C24.4976 15.2808 24.3538 15.7861 24.0223 16.1134C20.9526 19.1519 17.7112 21.7624 14.1094 23.6733Z" fill="white"/>
<path d="M25.7162 19.653C21.5424 21.9684 17.1433 23.9416 12.7014 25.2978C12.6872 25.3022 12.6721 25.3035 12.6571 25.3016C12.6422 25.2998 12.6276 25.2948 12.6144 25.287C12.5629 25.257 12.5401 25.2184 12.5458 25.1712C12.5508 25.1325 12.5708 25.105 12.6059 25.0885C16.9127 23.0707 20.6973 20.5611 23.9597 17.5597C24.4651 17.0951 25.0531 16.8923 25.6936 17.2325C26.6679 17.7485 26.6764 19.1208 25.7162 19.653Z" fill="white"/>
<path d="M28.4441 22.622C28.1222 23.3462 27.5063 23.4664 26.6866 23.6627C21.5164 24.9016 16.3402 25.9012 11.1579 26.6616C11.0892 26.6716 11.0406 26.6448 11.012 26.5811C10.9941 26.5411 11.0155 26.4971 11.0763 26.4491C11.0891 26.4392 11.1037 26.4319 11.1192 26.4277C12.9876 25.9384 15.0351 25.3065 17.2618 24.5318C20.5272 23.3952 23.4964 22.1245 26.1694 20.7196C26.9795 20.2937 27.8636 20.3978 28.3668 21.2186C28.6379 21.6606 28.6637 22.1284 28.4441 22.622Z" fill="white"/>
<path d="M28.9797 24.4844C29.7372 24.3085 30.5312 24.684 30.8692 25.3986C31.2865 26.2795 30.8863 27.2655 30.0108 27.6603C29.8177 27.7476 29.5044 27.7909 29.0709 27.7902C22.6175 27.7887 16.0454 27.7887 9.3545 27.7902C9.21359 27.7902 9.11237 27.7444 9.05086 27.6528C9.04227 27.6399 9.03727 27.6249 9.03584 27.6078C9.02868 27.5026 9.07804 27.4479 9.1839 27.4436C11.4421 27.3613 13.7232 27.1671 16.0271 26.861C20.3203 26.2895 24.6379 25.4973 28.9797 24.4844Z" fill="white"/>
<circle cx="20" cy="20" r="19.5" stroke="black" stroke-opacity="0.05"/>
</svg>
