<svg width="40" height="40" viewBox="0 0 40 40" fill="none" xmlns="http://www.w3.org/2000/svg">
<circle cx="20" cy="20" r="20" fill="#F6F8FA"/>
<g clip-path="url(#clip0_17713_27895)">
<path d="M15.7737 14.8289H17.0842V17.36H10.8592V14.8289H12.1651V13.2632H8.03516V23.4487H12.1651V21.8744H10.8592V19.3823H17.0842V21.8744H15.7737V23.4487H19.9083V13.2632H15.7737V14.8289Z" fill="#D6081D"/>
<path d="M31.971 16.8947V13.2632H20.79V18.0298L29.1469 20.3087V21.4351H23.6095V19.8129H20.79V23.4487H31.971V18.6778L23.6095 16.4032V15.2768H29.1469V16.8947H31.971Z" fill="#D6081D"/>
<path d="M30.5449 26.8584V27.2325H31.5416C31.5416 27.3107 31.5416 27.3368 31.537 27.4412C31.5324 27.5369 31.5278 27.6282 31.3847 27.7283C31.2417 27.8283 30.9233 27.8152 30.7018 27.8152C30.4987 27.8152 30.2126 27.8065 30.0327 27.7326C29.945 27.6978 29.7789 27.5543 29.7373 27.3455C29.705 27.1716 29.6912 27.0454 29.6912 26.8062C29.6912 26.6279 29.7097 26.3583 29.742 26.2452C29.8019 26.0147 29.9127 25.906 30.0465 25.8408C30.1803 25.7755 30.3972 25.7451 30.651 25.7494C31.0063 25.7494 31.1817 25.7929 31.2694 25.8451C31.357 25.8973 31.4447 25.9669 31.477 26.0713C31.5001 26.1408 31.5093 26.1887 31.5047 26.3626H31.9984C31.9984 26.1234 31.98 25.9625 31.9338 25.8364C31.8877 25.7103 31.8139 25.6146 31.7077 25.5407C31.6016 25.4667 31.4632 25.4145 31.2832 25.3797C31.1079 25.345 30.9463 25.3319 30.6833 25.3319C30.4203 25.3319 30.0834 25.3624 29.8712 25.4189C29.7189 25.458 29.5851 25.5102 29.4374 25.6668C29.3267 25.7842 29.2482 25.9582 29.2113 26.1539C29.1698 26.3844 29.1513 26.6714 29.1605 26.9237C29.1698 27.2325 29.2205 27.5238 29.3267 27.7413C29.4051 27.9066 29.5297 28.0544 29.7143 28.1414C29.9127 28.2327 30.2173 28.2588 30.591 28.2588C31.0017 28.2588 31.2324 28.2458 31.4678 28.1806C31.5693 28.1545 31.6985 28.0849 31.7908 28.0066C31.8831 27.9283 31.9523 27.8022 31.9984 27.5978C32.0538 27.3499 32.0261 26.8541 32.0261 26.8541H30.5449V26.8584Z" fill="#D6081D"/>
<path d="M10.9284 25.3798H10.4116L10.4162 26.5149H8.54737L8.55198 25.3798H8.03516V28.1675H8.55198L8.54737 26.9411H10.4162L10.4116 28.1675H10.9284V25.3798Z" fill="#D6081D"/>
<path d="M15.9443 25.3798H15.3998L14.6569 27.7239H14.6107C14.6061 27.6978 14.0016 25.3798 14.0016 25.3798H13.3002C13.3002 25.3798 12.6819 27.7022 12.6772 27.7239H12.608L11.8928 25.3798H11.3252C11.3575 25.4667 12.2343 28.1675 12.2343 28.1675H12.968C12.968 28.1675 13.6324 25.8016 13.6417 25.7625H13.6463C13.6555 25.806 14.2739 28.1675 14.2739 28.1675H15.0076C15.0076 28.1675 15.912 25.4667 15.9443 25.3798Z" fill="#D6081D"/>
<path d="M21.5832 26.7976C21.4909 26.728 21.3663 26.6715 21.2048 26.628C21.0433 26.5845 20.831 26.5671 20.5726 26.5323C20.3788 26.5105 19.922 26.4758 19.7835 26.4062C19.7235 26.3757 19.6728 26.3279 19.6589 26.2844C19.6405 26.2366 19.6266 26.1887 19.6266 26.1191C19.6266 25.8843 19.7235 25.819 19.8897 25.7668C19.9773 25.7408 20.2173 25.7277 20.365 25.7277C20.5219 25.7277 20.8172 25.7408 20.9233 25.7538C21.0248 25.7668 21.1079 25.7886 21.1633 25.8147C21.2233 25.8408 21.2648 25.8799 21.2879 25.9278C21.3109 25.9756 21.3248 26.0365 21.3248 26.1017V26.1931H21.8231V26.1104C21.8231 25.9974 21.8139 25.8973 21.7908 25.8103C21.7678 25.7234 21.7308 25.6494 21.6755 25.5885C21.6201 25.5276 21.5417 25.4755 21.4448 25.4363C21.3478 25.3972 21.2233 25.3667 21.0756 25.3493C20.9279 25.3319 20.5726 25.3232 20.3603 25.3232C20.1204 25.3232 19.922 25.3406 19.7605 25.3711C19.599 25.4015 19.4744 25.4537 19.3821 25.519C19.2898 25.5842 19.2067 25.6712 19.1652 25.7712C19.1237 25.8712 19.1052 26.0191 19.1052 26.1626C19.1052 26.5323 19.2621 26.6758 19.3498 26.7367C19.4374 26.7976 19.562 26.8411 19.7189 26.8889C19.945 26.9585 20.7203 27.002 20.8772 27.0237C21.0018 27.0411 21.094 27.0846 21.154 27.1194C21.2186 27.1542 21.2602 27.1977 21.2786 27.2412C21.2971 27.2847 21.3202 27.3543 21.3248 27.4239C21.334 27.6283 21.2233 27.6804 21.1725 27.7109C21.1171 27.7413 21.0433 27.7587 20.9418 27.7718C20.8403 27.7848 20.711 27.7979 20.5495 27.7979C20.365 27.7979 20.1481 27.7935 20.0327 27.7805C19.9174 27.7718 19.8297 27.75 19.7651 27.7196C19.7005 27.6891 19.6589 27.65 19.6359 27.5978C19.6128 27.5456 19.6036 27.476 19.6036 27.3934V27.2368H19.1006V27.3804C19.1006 27.5152 19.1144 27.6283 19.1375 27.7239C19.1606 27.8196 19.2067 27.9023 19.2667 27.9631C19.3267 28.024 19.4098 28.0762 19.5205 28.1154C19.6266 28.1545 19.7605 28.1806 19.9174 28.1936C20.0742 28.2067 20.3373 28.2154 20.5634 28.2154C20.7664 28.2154 20.9418 28.198 21.0848 28.1806C21.2325 28.1632 21.4309 28.1067 21.5094 28.0675C21.717 27.9675 21.7908 27.7718 21.8093 27.6848C21.8324 27.5935 21.8416 27.476 21.8416 27.3543C21.8416 27.2281 21.8093 27.1325 21.777 27.0368C21.7401 26.9411 21.6801 26.8585 21.5878 26.7932L21.5832 26.7976Z" fill="#D6081D"/>
<path d="M25.1778 25.3798H24.6609V27.0064C24.6609 27.163 24.6517 27.3282 24.624 27.4283C24.5963 27.5283 24.5548 27.6109 24.4948 27.6675C24.4348 27.7283 24.3471 27.7675 24.241 27.7892C24.1349 27.811 23.8488 27.824 23.6873 27.824C23.5258 27.824 23.3919 27.811 23.2812 27.7892C23.1751 27.7675 23.0874 27.724 23.0274 27.6675C22.9674 27.6066 22.9213 27.5283 22.8982 27.4283C22.8705 27.3282 22.8567 27.163 22.8567 27.0064C22.8567 27.0064 22.8567 25.4538 22.8567 25.3798H22.3398V27.0325C22.3398 27.2543 22.3629 27.4761 22.4091 27.6327C22.4552 27.7849 22.529 27.9067 22.6306 27.998C22.7321 28.0893 22.8705 28.1546 23.0412 28.198C23.212 28.2415 23.4243 28.2589 23.678 28.2589C23.8811 28.2589 24.2087 28.2459 24.3564 28.2198C24.504 28.1937 24.6332 28.1502 24.7394 28.0937C24.8455 28.0371 24.9286 27.9588 24.9886 27.8675C25.0532 27.7762 25.0947 27.6631 25.127 27.5283C25.1547 27.3978 25.1685 27.2021 25.1685 27.0281V25.3755L25.1778 25.3798Z" fill="#D6081D"/>
<path d="M28.6523 25.3798H28.1585C28.1585 25.3798 28.177 27.6978 28.177 27.7239H28.0939C28.0708 27.6761 26.5988 25.3798 26.5988 25.3798H25.7451V28.1675H26.2435L26.2204 25.819H26.2896C26.3081 25.8582 27.8309 28.1675 27.8309 28.1675H28.6523V25.3798Z" fill="#D6081D"/>
<path d="M17.6147 25.3798H16.8717L15.6396 28.1675H16.1703L16.4564 27.4847H18.03L18.3161 28.1675H18.8467L17.6147 25.3798ZM17.2593 27.0759H16.6272L17.167 25.8234H17.3193L17.8592 27.0759H17.2593Z" fill="#D6081D"/>
</g>
<circle cx="20" cy="20" r="19.5" stroke="black" stroke-opacity="0.05"/>
<defs>
<clipPath id="clip0_17713_27895">
<rect width="24" height="15" fill="white" transform="translate(8.03516 13.2632)"/>
</clipPath>
</defs>
</svg>
