<svg width="40" height="40" viewBox="0 0 40 40" fill="none" xmlns="http://www.w3.org/2000/svg">
<circle cx="20" cy="20" r="20" fill="#003F8B"/>
<path d="M20.5146 21.249L23.0946 21.2509C23.1638 21.2509 23.1894 21.2849 23.1715 21.3528L23.0062 21.9637C22.987 22.0328 22.9416 22.0674 22.8698 22.0674H20.2764C20.2047 22.0674 20.1554 22.1007 20.1285 22.1673C19.6905 23.2354 19.1776 24.2305 18.3073 25.0085C17.9001 25.3735 17.195 25.5234 16.8223 25.0316C16.2844 24.3208 16.2864 23.124 16.3363 22.2499C16.3401 22.1654 16.3754 22.0975 16.442 22.0463C16.4829 22.013 16.5303 21.997 16.5841 21.9982C16.643 21.9982 16.6808 21.9701 16.6975 21.9137L17.7675 18.2118C17.7944 18.1183 17.7592 18.0741 17.6618 18.0793L17.4659 18.0869C17.453 18.0875 17.4402 18.0848 17.4285 18.0792C17.4169 18.0736 17.4069 18.0652 17.3995 18.0549C17.392 18.0446 17.3873 18.0326 17.3858 18.02C17.3843 18.0075 17.3861 17.9948 17.391 17.9832C17.7771 17.0188 18.34 15.9872 19.1084 15.3072C19.679 14.8039 20.5012 14.7693 20.8297 15.5857C21.0871 16.2274 21.1831 17.0009 21.1178 17.9064C21.1114 17.9909 21.1505 18.0332 21.235 18.0332H24.0052C24.1 18.0332 24.1339 18.0786 24.107 18.1696L23.9456 18.7132C23.9187 18.8041 23.8579 18.8496 23.7631 18.8496H21.0909C21.0461 18.8496 21.0205 18.8714 21.0141 18.9149L20.9065 19.5739C20.9014 19.602 20.9136 19.6161 20.943 19.6161L23.2733 19.62C23.3245 19.62 23.3431 19.6443 23.329 19.693L23.1311 20.3769C23.1196 20.4153 23.094 20.4345 23.0543 20.4345H20.749C20.7195 20.4345 20.7003 20.4492 20.6914 20.4787L20.4839 21.2087C20.4762 21.2356 20.4864 21.249 20.5146 21.249ZM18.8971 18.1792L17.8117 21.9425C17.7886 22.0219 17.7355 22.0629 17.6522 22.0655L17.2738 22.0732C17.1931 22.0757 17.1476 22.1173 17.1374 22.198C17.0644 22.7417 17.0087 23.683 17.3545 24.1748C17.3797 24.2104 17.412 24.2405 17.4494 24.263C17.4868 24.2855 17.5284 24.3 17.5716 24.3056C17.6147 24.3112 17.6585 24.3078 17.7002 24.2955C17.7419 24.2832 17.7805 24.2624 17.8136 24.2344C18.1581 23.9449 18.4386 23.5927 18.655 23.1778C19.508 21.5397 20.0279 19.7429 20.2149 17.7873C20.2649 17.2609 20.2137 16.7473 20.0612 16.2466C20.0459 16.1967 20.0196 16.1508 19.9844 16.1123C19.9492 16.0738 19.906 16.0436 19.8578 16.0239C19.8096 16.0042 19.7577 15.9956 19.7058 15.9985C19.6539 16.0015 19.6034 16.016 19.5579 16.041C18.9989 16.3445 18.5321 17.3012 18.2843 17.8891C18.2433 17.9851 18.2753 18.0332 18.3803 18.0332H18.7876C18.8888 18.0332 18.9253 18.0818 18.8971 18.1792Z" fill="white"/>
<path d="M18.787 18.0332H18.3797C18.2747 18.0332 18.2427 17.9852 18.2836 17.8892C18.5315 17.3013 18.9983 16.3446 19.5573 16.0411C19.6028 16.0161 19.6533 16.0016 19.7052 15.9986C19.757 15.9957 19.809 16.0043 19.8572 16.024C19.9054 16.0437 19.9486 16.0739 19.9838 16.1124C20.019 16.1509 20.0452 16.1968 20.0606 16.2467C20.213 16.7474 20.2643 17.261 20.2143 17.7874C20.0273 19.743 19.5074 21.5398 18.6544 23.1779C18.438 23.5928 18.1575 23.945 17.813 24.2344C17.7799 24.2625 17.7413 24.2833 17.6996 24.2956C17.6579 24.3079 17.6141 24.3113 17.5709 24.3057C17.5278 24.3001 17.4862 24.2856 17.4488 24.2631C17.4114 24.2405 17.3791 24.2105 17.3538 24.1749C17.0081 23.6831 17.0638 22.7418 17.1368 22.1981C17.147 22.1174 17.1925 22.0758 17.2732 22.0732L17.6516 22.0656C17.7349 22.063 17.788 22.022 17.8111 21.9426L18.8965 18.1793C18.9246 18.0819 18.8881 18.0332 18.787 18.0332Z" fill="#003F8B"/>
<path d="M10.3481 20.5824C9.70839 22.2825 8.31754 22.3363 6.77493 22.2595C4.80392 22.1615 4.68097 20.665 5.40905 19.2184C6.11792 17.8103 7.65477 17.7949 9.06484 17.9121C10.642 18.0447 10.8149 19.3472 10.3481 20.5824ZM6.40993 19.618C6.29978 19.9382 6.20949 20.2833 6.13906 20.6535C5.95271 21.6332 7.29554 21.5852 7.88338 21.516C9.06484 21.3777 9.27999 20.3327 9.4356 19.3625C9.499 18.9687 9.16281 18.6825 8.79973 18.6364C7.87378 18.5153 6.74803 18.6421 6.40993 19.618Z" fill="white"/>
<path d="M14.9995 20.7994L15.7621 21.9347C15.8211 22.0231 15.7974 22.0673 15.6911 22.0673H14.7421C14.6229 22.0673 14.5307 22.0173 14.4654 21.9174L13.307 20.1289C13.2981 20.1148 13.2933 20.0985 13.2931 20.0818C13.2928 20.0651 13.2973 20.0487 13.3058 20.0344C13.3144 20.02 13.3267 20.0084 13.3415 20.0006C13.3563 19.9929 13.373 19.9894 13.3896 19.9906C13.8263 20.02 14.2304 20.0143 14.6018 19.9733C15.3722 19.8868 15.3587 18.8533 14.6441 18.8168C14.2163 18.7938 13.7309 18.7906 13.1879 18.8072C13.1252 18.8098 13.0855 18.8418 13.0688 18.9033L12.2524 21.9597C12.2331 22.0314 12.187 22.0673 12.114 22.0673H11.1785C11.1651 22.0674 11.1518 22.0645 11.1397 22.0587C11.1276 22.0528 11.117 22.0443 11.1088 22.0336C11.1006 22.023 11.095 22.0106 11.0924 21.9975C11.0899 21.9843 11.0904 21.9707 11.094 21.9578L12.1313 18.1079C12.1368 18.0887 12.1483 18.0717 12.1643 18.0595C12.1802 18.0474 12.1997 18.0408 12.2197 18.0407C13.1059 18.0228 13.9935 18.026 14.8823 18.0503C16.7323 18.1003 16.813 20.419 15.061 20.6649C14.9687 20.6777 14.9482 20.7225 14.9995 20.7994Z" fill="white"/>
<path d="M28.7385 18.0332H29.7125C29.7234 18.0334 29.7341 18.0361 29.7438 18.041C29.7534 18.046 29.7618 18.0531 29.7683 18.0618C29.7748 18.0705 29.7792 18.0806 29.7812 18.0913C29.7832 18.102 29.7827 18.113 29.7798 18.1235L28.6617 22.0156C28.6575 22.0306 28.6484 22.0439 28.6359 22.0532C28.6234 22.0626 28.6082 22.0676 28.5925 22.0674H27.4822C27.4694 22.0671 27.457 22.0634 27.4462 22.0567C27.4353 22.0499 27.4265 22.0404 27.4207 22.029L26.0644 19.4586C26.0577 19.4463 26.0475 19.4362 26.0351 19.4296C26.0227 19.423 26.0086 19.4203 25.9946 19.4217C25.9806 19.4232 25.9674 19.4287 25.9566 19.4377C25.9457 19.4466 25.9378 19.4586 25.9338 19.4721L25.1999 22.0156C25.1957 22.0306 25.1867 22.0439 25.1741 22.0532C25.1616 22.0626 25.1464 22.0676 25.1308 22.0674L24.1568 22.0617C24.1459 22.0615 24.1352 22.0588 24.1256 22.0539C24.1159 22.0489 24.1075 22.0418 24.101 22.0331C24.0945 22.0243 24.0901 22.0142 24.0881 22.0036C24.0861 21.9929 24.0866 21.9819 24.0896 21.9714L25.2115 18.0851C25.2157 18.07 25.2247 18.0568 25.2373 18.0474C25.2498 18.038 25.265 18.033 25.2806 18.0332H26.2815C26.2942 18.0335 26.3067 18.0372 26.3175 18.044C26.3283 18.0508 26.3371 18.0603 26.343 18.0716L27.7703 20.7707C27.777 20.7831 27.7872 20.7932 27.7996 20.7998C27.8121 20.8063 27.8261 20.8091 27.8401 20.8076C27.8541 20.8062 27.8673 20.8006 27.8782 20.7917C27.889 20.7827 27.8969 20.7707 27.901 20.7573L28.6694 18.0851C28.6736 18.07 28.6827 18.0568 28.6952 18.0474C28.7077 18.038 28.7229 18.033 28.7385 18.0332Z" fill="white"/>
<path d="M31.7215 18.8497H30.2442C30.2337 18.8497 30.2232 18.8473 30.2137 18.8427C30.2042 18.8381 30.1959 18.8313 30.1894 18.823C30.1829 18.8146 30.1784 18.8049 30.1762 18.7945C30.1741 18.7842 30.1744 18.7735 30.177 18.7632L30.3518 18.0851C30.3557 18.0702 30.3644 18.057 30.3765 18.0476C30.3887 18.0382 30.4037 18.0331 30.4191 18.0332H34.9297C34.9405 18.0331 34.9512 18.0355 34.9609 18.0402C34.9706 18.045 34.979 18.0519 34.9856 18.0605C34.9921 18.0691 34.9965 18.0791 34.9985 18.0897C35.0005 18.1003 34.9999 18.1112 34.9969 18.1216L34.8048 18.7997C34.8007 18.8139 34.7922 18.8265 34.7804 18.8354C34.7687 18.8444 34.7543 18.8494 34.7395 18.8497H33.1009C33.0861 18.8499 33.0717 18.8549 33.06 18.8639C33.0482 18.8729 33.0397 18.8854 33.0355 18.8996L32.1442 22.0175C32.1401 22.0317 32.1315 22.0442 32.1197 22.0532C32.108 22.0622 32.0937 22.0672 32.0789 22.0674L30.9762 22.0655C30.9654 22.0656 30.9547 22.0632 30.945 22.0585C30.9353 22.0538 30.9269 22.0468 30.9203 22.0382C30.9138 22.0297 30.9094 22.0197 30.9074 22.0091C30.9054 21.9984 30.9059 21.9875 30.9089 21.9772L31.7888 18.938C31.7918 18.9277 31.7923 18.9167 31.7903 18.9061C31.7883 18.8955 31.7839 18.8855 31.7774 18.8769C31.7708 18.8683 31.7624 18.8614 31.7527 18.8567C31.743 18.8519 31.7323 18.8495 31.7215 18.8497Z" fill="white"/>
<path d="M6.40955 19.6181C6.74766 18.6422 7.8734 18.5154 8.79935 18.6365C9.16243 18.6826 9.49862 18.9688 9.43523 19.3626C9.27962 20.3328 9.06446 21.3778 7.88301 21.5161C7.29516 21.5853 5.95234 21.6333 6.13868 20.6536C6.20912 20.2835 6.29941 19.9383 6.40955 19.6181Z" fill="#003F8B"/>
<circle cx="20" cy="20" r="19.5" stroke="black" stroke-opacity="0.05"/>
</svg>
