<svg width="40" height="40" viewBox="0 0 40 40" fill="none" xmlns="http://www.w3.org/2000/svg">
<circle cx="20" cy="20" r="20" fill="#F6F8FA"/>
<circle cx="20" cy="20" r="19.5" stroke="black" stroke-opacity="0.05"/>
<path d="M18.6915 8.57829C10.6985 10.5702 4.56684 15.305 5.02399 19.3686L5.03125 19.3323C5.4884 23.3923 12.7303 28.5951 21.2312 31.1494C29.7321 33.7 35.8711 29.0487 34.8987 20.3482L34.8951 20.4099C33.9191 11.7094 26.6844 6.60091 18.6915 8.57829Z" fill="#CDE0F4"/>
<path d="M15.5347 10.9511C9.686 14.1802 5.87275 19.169 7.08095 22.2566V22.2313C8.28189 25.3152 15.0449 27.8804 22.2396 28.1053C29.4307 28.3267 33.2694 23.3995 30.6897 16.7889L30.7006 16.8361C28.121 10.2219 21.387 7.72928 15.5347 10.9511Z" fill="#94C0E7"/>
<path d="M18.5859 13.3457C13.6914 13.7557 9.65321 15.8456 9.5625 18.1314L9.56975 18.1132C9.47905 20.3954 13.2887 23.8966 18.0815 26.0372C22.8708 28.1779 26.9054 26.1388 27.1049 21.2444L27.0977 21.277C27.2936 16.3862 23.4767 12.9394 18.5859 13.3457Z" fill="#0060B0"/>
<path d="M20.9194 16.2846V16.466L20.9121 22.0353H22.338L22.3489 16.1721H20.9194V16.2846Z" fill="white"/>
<path d="M13.2747 21.9011C13.7174 21.8322 14.1818 21.5129 14.2072 21.4984L14.2108 21.4947V21.4911C14.3414 21.3823 14.4539 21.2625 14.5301 21.1246C14.6244 20.9578 14.6716 20.7618 14.6716 20.5441C14.6716 20.5042 14.6752 16.1649 14.6752 16.1649L13.2493 16.1613V16.2774C13.2493 16.2774 13.2457 19.9237 13.2421 20.4389C13.2348 20.5441 13.2131 20.7147 13.1296 20.7981C13.097 20.8235 13.0534 20.8562 13.0208 20.8852C12.9337 20.936 12.7704 21.0049 12.4874 21.0593C12.3858 21.0702 12.1065 21.0884 12.0012 21.0992C11.9214 21.1065 11.8307 21.1101 11.7436 21.1174L11.0361 21.1428C11.2937 21.4403 11.5804 21.7378 11.896 22.0353C12.0665 22.0353 12.2806 22.0245 12.4185 22.0172C12.901 21.9809 13.2747 21.9011 13.2747 21.9011Z" fill="white"/>
<path d="M19.5367 16.2012C19.5185 16.2012 18.9525 16.1685 18.9525 16.1685C18.9453 16.1685 18.0527 16.1649 18.0527 16.1649C18.0527 16.1649 18.0346 16.1649 18.0056 16.1685C17.8713 16.1613 17.0985 16.1431 16.4708 16.4044C16.4708 16.4044 16.2713 16.4733 16.0536 16.6329C16.0499 16.6366 16.0499 16.6366 16.0463 16.6402C16.0427 16.6402 16.0391 16.6475 16.0354 16.6511C15.9629 16.7055 15.8939 16.7672 15.8286 16.8398C15.8214 16.8506 15.8177 16.8579 15.8105 16.8652C15.7669 16.9196 15.7234 16.9776 15.6835 17.0429C15.6762 17.0538 15.6654 17.0647 15.6581 17.0756C15.5674 17.2389 15.5202 17.4348 15.5202 17.6525C15.5202 17.696 15.5166 20.4934 15.5166 20.4934C15.5166 20.7546 15.5638 20.9469 15.6545 21.1102C15.6581 21.1138 15.6581 21.1174 15.6581 21.1174C15.7016 21.2081 15.8032 21.3678 16.0064 21.5238C16.0137 21.531 16.0173 21.5347 16.0245 21.5419C16.0245 21.5419 16.0318 21.5456 16.0354 21.5492C16.1515 21.6363 16.3039 21.7197 16.4962 21.7959C16.5035 21.8032 16.5107 21.8032 16.5107 21.8032C16.5144 21.8032 16.5289 21.8104 16.547 21.814C16.6921 21.8685 16.859 21.9156 17.055 21.9519C17.055 21.9519 17.269 21.9918 17.5593 22.0136C17.5738 22.0136 17.5847 22.0172 17.5847 22.0172C17.5847 22.0172 17.5992 22.0172 17.6173 22.0172C17.7407 22.0245 17.8713 22.0317 18.0128 22.0317C18.031 22.0317 18.0455 22.0317 18.0455 22.0317C18.0491 22.0317 18.9416 22.0354 18.9416 22.0354C18.9489 22.0354 19.5149 22.0063 19.5149 22.0063C19.5294 22.0063 19.9104 21.912 20.0156 21.8866V21.1029L18.2922 21.0993C18.2922 21.0993 18.1362 21.092 17.9983 21.0848C17.9838 21.0848 17.9729 21.0811 17.9729 21.0811C17.3271 21.0231 17.0912 20.8634 17.0042 20.7619C16.9643 20.7074 16.9425 20.6385 16.9425 20.5405V20.4897C16.9425 20.4535 16.9461 19.775 16.9461 19.5246C17.142 19.5283 18.6187 19.5283 18.6187 19.5283C18.626 19.5283 19.3045 19.4956 19.3045 19.4956C19.3081 19.4956 19.3335 19.4884 19.3661 19.4811C19.5185 19.4593 19.8305 19.3686 19.8305 19.3686L19.8922 19.3541V19.1038V19.1001V19.0929V18.6938C19.8088 18.6829 19.2682 18.6067 19.123 18.5922C19.1013 18.5922 19.0868 18.5922 19.0868 18.5922H16.9461C16.9461 18.4144 16.9461 17.7178 16.9461 17.7178C16.9461 17.7105 16.9461 17.6597 16.9461 17.6597C16.9461 17.5799 16.9606 17.5219 16.986 17.4711C17.0695 17.355 17.3271 17.1627 18.1434 17.1046C18.2305 17.101 18.2994 17.0974 18.2994 17.0974L20.0156 17.101V16.3137L19.9067 16.2883L19.5367 16.2012Z" fill="white"/>
<path d="M27.1013 21.2516V21.1754H27.0977C27.0977 21.2081 27.0977 21.2443 27.0977 21.2806L27.1013 21.2516Z" fill="white"/>
<path d="M27.094 21.2806C27.094 21.248 27.094 21.2117 27.094 21.1754C26.9815 21.1682 26.4264 21.1428 26.1869 21.1319C26.1107 21.1246 26.02 21.1174 25.9039 21.1101C25.9039 21.1101 25.7479 21.0956 25.6173 21.0811C25.0948 20.994 24.8916 20.8344 24.8154 20.7146C24.79 20.6566 24.7755 20.5913 24.7792 20.5006C24.7792 20.4969 24.7864 16.1758 24.7864 16.1758L23.3605 16.1721V16.2882L23.3533 20.5151C23.346 20.7437 23.3932 20.9541 23.4911 21.1319C23.5093 21.1645 23.5347 21.1936 23.5564 21.2226C23.5782 21.2553 23.6 21.2879 23.6254 21.3206C23.6508 21.3532 23.6798 21.3822 23.7088 21.4149C23.7342 21.4403 23.7633 21.4693 23.7923 21.4947C23.8141 21.5129 23.8358 21.5382 23.8612 21.5564C23.8648 21.56 23.8721 21.5636 23.8866 21.5709C24.5578 22.0607 25.6209 22.0462 25.8205 22.0353C25.8567 22.0353 25.8785 22.0389 25.8785 22.0389C25.8785 22.0389 25.9148 22.0389 25.9728 22.0389C26.2232 22.0426 26.8073 22.0426 27.025 22.0426C27.0577 21.7922 27.0831 21.5346 27.094 21.2661V21.248V21.2806Z" fill="white"/>
</svg>
