<svg width="40" height="40" viewBox="0 0 40 40" fill="none" xmlns="http://www.w3.org/2000/svg">
<circle cx="20" cy="20" r="20" fill="#F6F8FA"/>
<g clip-path="url(#clip0_17713_27864)">
<path d="M6.92116 17.9822C7.04032 18.2699 7.59017 19.6164 7.66677 19.8037H6.12448C6.20789 19.6113 6.79689 18.2716 6.92116 17.9873M6.61815 17.097L4 23.0398H4.74731L5.86573 20.4387H7.9085L8.97755 23.0483H9.76572L7.28375 17.0902L6.61815 17.097Z" fill="#316094"/>
<path d="M15.7345 17.1311L13.6645 21.8465C13.5215 21.5162 11.6217 17.1141 11.6217 17.1141H10.6735L10.6514 23.0722H11.3595L11.3766 18.2546L13.4721 23.079H13.8228C13.8228 23.079 15.6664 18.8589 15.92 18.2733L15.903 23.0875H16.6094L16.6333 17.1294L15.7345 17.1311Z" fill="#316094"/>
<path d="M31.8258 17.1873L31.8037 23.1385L35.9982 23.1556L35.9999 22.4951L32.5153 22.4831L32.5238 20.3978L35.6901 20.4097L35.6935 19.7509L32.5255 19.739L32.5323 17.8478L35.8858 17.8614L35.8893 17.2026L31.8258 17.1873Z" fill="#316094"/>
<path d="M28.9661 20.3263C29.899 20.1697 30.396 19.6454 30.3994 18.784C30.3994 17.7184 29.6845 17.1787 28.2647 17.1736L25.7777 17.1634L25.7692 19.7169H24.1945C24.0243 18.1099 22.8208 17.0153 21.1576 17.0102C19.3463 17.0102 18.0781 18.2818 18.0713 20.1203C18.0645 21.9588 19.3242 23.2492 21.1355 23.256C22.8667 23.256 24.1026 22.0882 24.2098 20.3757H25.7675L25.7572 23.1215H26.4654L26.4756 20.3757H28.229L29.8513 23.1317H30.6616L28.9746 20.3229M21.1355 22.5784C19.7413 22.5784 18.771 21.5571 18.7778 20.105C18.7846 18.6529 19.76 17.6452 21.161 17.6503C22.562 17.6554 23.5221 18.6716 23.517 20.1237C23.5119 21.5758 22.5314 22.5904 21.1355 22.5784ZM26.4688 19.6964V17.8069H28.4094C29.5568 17.8069 29.6794 18.4725 29.6777 18.7568C29.676 19.041 29.55 19.7015 28.4026 19.6964H26.4688Z" fill="#316094"/>
</g>
<circle cx="20" cy="20" r="19.5" stroke="black" stroke-opacity="0.05"/>
<defs>
<clipPath id="clip0_17713_27864">
<rect width="32" height="6.24577" fill="white" transform="translate(4 17)"/>
</clipPath>
</defs>
</svg>
