<svg width="40" height="40" viewBox="0 0 40 40" fill="none" xmlns="http://www.w3.org/2000/svg">
<circle cx="20" cy="20" r="20" fill="#004097"/>
<g clip-path="url(#clip0_17713_28155)">
<path d="M16.3657 16.6843V16.0241C16.3657 16.0241 16.3743 16 16.3871 16H17.4529C17.4529 16 17.4785 16.0096 17.4785 16.0337V16.6795C17.4785 16.6795 17.4913 16.7084 17.5083 16.7084H19.8489C19.8489 16.7084 19.8745 16.7229 19.8745 16.7373V17.5422C19.8745 17.5422 19.866 17.5711 19.8489 17.5711H19.1156C19.1156 17.5711 19.1028 17.5759 19.1071 17.5855C19.4908 18.106 19.4993 18.612 19.1242 19.1133C18.9963 19.2867 18.8215 19.4361 18.5998 19.5614C17.9006 19.9566 17.0564 20.0337 16.2549 19.9133C15.6879 19.8265 15.0739 19.5807 14.6945 19.094C14.3449 18.641 14.3577 18.0578 14.7201 17.6096C14.7371 17.5855 14.7329 17.5759 14.7073 17.5759H13.9953C13.9953 17.5759 13.9697 17.5663 13.9697 17.547V16.7422C13.9697 16.7422 13.9783 16.7133 13.9953 16.7133H16.3316C16.3316 16.7133 16.353 16.7036 16.353 16.6892L16.3657 16.6843ZM18.2587 18.5398C18.3823 18.2506 18.2075 17.9663 17.9816 17.8217C17.7343 17.6675 17.4401 17.5855 17.1033 17.5711C16.6642 17.5566 16.2208 17.5855 15.8456 17.841C15.5088 18.0723 15.4363 18.4964 15.7646 18.7904C15.8797 18.8964 16.0076 18.9687 16.1441 19.012C16.7239 19.1952 17.2781 19.1807 17.8025 18.9687C18.0199 18.8819 18.1734 18.7373 18.2587 18.5398Z" fill="white"/>
<path d="M12.601 16.5928H11.5053C11.4959 16.5928 11.4883 16.6014 11.4883 16.6121V21.4313C11.4883 21.442 11.4959 21.4506 11.5053 21.4506H12.601C12.6104 21.4506 12.6181 21.442 12.6181 21.4313V16.6121C12.6181 16.6014 12.6104 16.5928 12.601 16.5928Z" fill="white"/>
<path d="M26.3247 16.5928H25.2589C25.2518 16.5928 25.2461 16.5992 25.2461 16.6072V23.5181C25.2461 23.5261 25.2518 23.5325 25.2589 23.5325H26.3247C26.3318 23.5325 26.3375 23.5261 26.3375 23.5181V16.6072C26.3375 16.5992 26.3318 16.5928 26.3247 16.5928Z" fill="white"/>
<path d="M32.3698 17.9807V16.6361C32.3698 16.6361 32.3741 16.6216 32.3826 16.6216H33.4697C33.4697 16.6216 33.4953 16.6313 33.4953 16.6505V20.2891C33.4953 20.2891 33.4868 20.3228 33.4655 20.3228H32.3911C32.3911 20.3228 32.3655 20.3132 32.3655 20.2939V18.9108C32.3655 18.9108 32.357 18.8819 32.3399 18.8819H31.4489C31.4489 18.8819 31.4276 18.8867 31.4233 18.9011C31.2357 19.5566 30.7156 20.0144 30.14 20.1975C29.5474 20.3903 28.9761 20.3566 28.4219 20.0963C27.7014 19.759 27.1599 18.959 27.3731 18.0481C27.4456 17.7397 27.5948 17.4698 27.8208 17.2337C28.3707 16.6602 29.1509 16.4722 29.88 16.6216C30.5493 16.7614 31.1974 17.224 31.4148 17.9758C31.4191 17.9951 31.4318 18.0048 31.4489 18.0048H32.3272C32.3485 18.0048 32.3613 17.9903 32.3613 17.9662L32.3698 17.9807ZM30.3703 18.4626C30.3703 17.9035 29.9397 17.4505 29.411 17.4554C28.8823 17.4554 28.456 17.9084 28.456 18.4674C28.456 19.0264 28.8866 19.4795 29.4153 19.4746C29.9439 19.4746 30.3703 19.0216 30.3703 18.4626Z" fill="white"/>
<path d="M8.81028 19.2143C8.69943 19.4794 8.49479 19.7541 8.19635 20.0336C7.80838 20.3999 7.41189 20.6601 7.01966 20.8143C7.00261 20.8192 6.99408 20.8143 6.98129 20.8047L6.50379 20.1782C6.50379 20.1782 6.49526 20.1541 6.50379 20.1445C6.50379 20.1445 6.50379 20.1445 6.50805 20.1445C6.7468 20.024 6.9685 19.8842 7.18167 19.73C7.84249 19.2336 8.14519 18.4866 8.21341 17.6095C8.21341 17.5854 8.20488 17.5758 8.18783 17.5758H6.67859C6.67859 17.5758 6.64448 17.5565 6.64448 17.5372V16.7469C6.64448 16.7469 6.65301 16.7131 6.67432 16.7131H10.9718C10.9718 16.7131 10.9974 16.7228 10.9974 16.7421V17.5613C10.9974 17.5613 10.9931 17.5758 10.9846 17.5758H9.44126C9.44126 17.5758 9.41994 17.5854 9.41994 17.6047C9.46684 18.3372 9.65017 19.0842 10.1319 19.5854C10.3408 19.8071 10.6009 19.9902 10.9121 20.1445C10.9207 20.1445 10.9249 20.1589 10.9207 20.1686C10.9207 20.1686 10.9207 20.1686 10.9207 20.1734L10.4346 20.8143C10.4346 20.8143 10.409 20.8336 10.392 20.824C9.78233 20.5493 9.30483 20.1107 8.95097 19.5035C8.90407 19.4216 8.8657 19.3252 8.83586 19.224C8.82733 19.1951 8.81881 19.1951 8.80602 19.224L8.81028 19.2143Z" fill="white"/>
<path d="M23.2463 17.5951H20.9483C20.9483 17.5951 20.9313 17.5854 20.9313 17.571V16.7565C20.9313 16.7565 20.9398 16.7324 20.9526 16.7324C21.963 16.7324 22.9607 16.7324 23.954 16.7324C24.4955 16.7324 24.4571 17.3156 24.3846 17.7445C24.0521 19.7445 23.144 21.6047 21.6859 22.7999C21.6731 22.8143 21.6561 22.8143 21.639 22.7999L20.8162 22.2457C20.8162 22.2457 20.7991 22.2216 20.8162 22.2119C21.9801 21.2144 22.7603 19.9421 23.1568 18.3903C23.2207 18.1445 23.2591 17.8939 23.2804 17.6288C23.2804 17.6047 23.2719 17.5951 23.2506 17.5951H23.2463Z" fill="white"/>
<path d="M14.8607 21.07C14.8905 21.0507 14.8905 21.0362 14.8521 21.0362H13.8332C13.8332 21.0362 13.8076 21.0266 13.8076 21.0073V20.2025C13.8076 20.2025 13.8161 20.1736 13.8332 20.1736H19.9554C19.9554 20.1736 19.9767 20.1832 19.9767 20.1977V21.0218C19.9767 21.0218 19.9682 21.0411 19.9597 21.0411H18.9962C18.9962 21.0411 18.9834 21.0507 18.9834 21.0555C18.9834 21.0603 18.9834 21.0652 18.9876 21.0652C19.4481 21.3736 19.7721 21.923 19.6271 22.5398C19.5163 23.0025 19.1326 23.3591 18.7531 23.5712C18.4163 23.7591 18.0369 23.8844 17.6191 23.9471C16.6854 24.0868 15.5769 23.9712 14.801 23.3736C14.4386 23.0941 14.153 22.6603 14.1956 22.1543C14.234 21.6917 14.5196 21.3061 14.8607 21.0748V21.07ZM18.4973 22.0435C18.3993 21.5519 17.8109 21.3591 17.4358 21.2965C16.971 21.2242 16.5319 21.2435 16.1226 21.3639C15.6835 21.4892 15.1207 21.8844 15.4277 22.4627C15.5897 22.7712 16.0203 22.9302 16.3145 22.988C16.8389 23.0892 17.4187 23.0652 17.9005 22.8724C18.1946 22.7567 18.5741 22.4627 18.4931 22.0435H18.4973Z" fill="white"/>
<path d="M32.3705 21.2819V20.7373C32.3705 20.7373 32.379 20.7036 32.4003 20.7036H33.4576C33.4576 20.7036 33.4832 20.7181 33.4832 20.7373V23.4747C33.4832 23.4747 33.4747 23.5036 33.4619 23.5036C31.829 23.5036 30.1663 23.5036 28.478 23.5036C28.3373 23.5036 28.2307 23.3639 28.2307 23.2048C28.2265 22.4675 28.2265 21.6434 28.2307 20.7373C28.2307 20.7181 28.2393 20.7084 28.2563 20.7084H29.3094C29.3094 20.7084 29.335 20.7229 29.335 20.7373V21.2867C29.335 21.3108 29.3435 21.3253 29.3648 21.3253H32.3449C32.3662 21.3253 32.379 21.3108 32.379 21.2867L32.3705 21.2819ZM32.3705 22.2169C32.3705 22.2169 32.362 22.1976 32.3534 22.1976H29.3477C29.3477 22.1976 29.3307 22.2072 29.3307 22.2169V22.6217C29.3307 22.6217 29.3392 22.641 29.3477 22.641H32.3534C32.3534 22.641 32.3705 22.6313 32.3705 22.6217V22.2169Z" fill="white"/>
<path d="M8.45678 22.7276H12.605C12.605 22.7276 12.6178 22.7324 12.6178 22.7421V23.571C12.6178 23.571 12.6093 23.5951 12.5965 23.5951C10.985 23.5951 9.31372 23.5951 7.58705 23.5951C7.42078 23.5951 7.30993 23.4457 7.30993 23.2529C7.30993 22.5927 7.30566 21.918 7.30566 21.2385C7.30566 21.224 7.31419 21.2144 7.32698 21.2144H8.40562C8.40562 21.2144 8.42693 21.224 8.4312 21.2385V22.6987C8.4312 22.6987 8.43972 22.7324 8.46104 22.7324L8.45678 22.7276Z" fill="white"/>
</g>
<circle cx="20" cy="20" r="19.5" stroke="black" stroke-opacity="0.05"/>
<defs>
<clipPath id="clip0_17713_28155">
<rect width="27" height="8" fill="white" transform="translate(6.5 16)"/>
</clipPath>
</defs>
</svg>
