<svg width="40" height="40" viewBox="0 0 40 40" fill="none" xmlns="http://www.w3.org/2000/svg">
<circle cx="20" cy="20" r="20" fill="#F6F8FA"/>
<path d="M22.83 16.6437C22.3073 18.3071 22.0387 20.0145 22.024 21.766C22.0019 24.5138 22.0001 27.2402 22.0185 29.9452C22.0191 30.0644 21.9751 30.1815 21.8935 30.2777C21.8119 30.374 21.6975 30.4437 21.5687 30.4758C21.5466 30.4807 21.524 30.4819 21.5007 30.4795C21.3639 30.4637 21.2376 30.3974 21.1459 30.2932C21.0542 30.1889 21.0034 30.054 21.0032 29.914C21.0056 23.99 21.0038 17.9466 20.9977 11.7839C20.9977 11.2588 20.5442 10.8604 20.0411 10.8274C19.1801 10.7686 18.8294 11.3745 18.8312 12.1364C18.8435 18.14 18.841 24.061 18.8239 29.8993C18.8227 30.1282 18.7278 30.3063 18.5393 30.4336C18.4781 30.474 18.4151 30.4887 18.3502 30.4777C18.0418 30.4238 17.8857 30.2396 17.882 29.925C17.8637 27.7831 17.8649 25.4704 17.8857 22.9869C17.9022 20.7856 17.6966 18.5109 16.9953 16.5262C16.2994 14.5599 14.089 15.2943 14.7536 17.2808C15.0131 18.0605 15.2028 18.8609 15.3227 19.6822C15.6679 22.0671 15.5008 24.5273 15.543 26.87C15.5467 27.0744 15.4763 27.1044 15.3319 26.96C13.4629 25.0861 11.5021 23.1246 9.44949 21.0757C8.79038 20.4184 8.89135 19.5574 9.52292 18.9258C12.5706 15.8732 15.6875 12.7515 18.8735 9.56058C19.5675 8.86659 20.4028 8.77479 21.1519 9.52386C24.1433 12.5128 27.1353 15.5024 30.1279 18.4925C30.3274 18.692 30.5128 18.8879 30.6842 19.08C31.2111 19.6712 31.0275 20.5194 30.5098 21.0353C28.571 22.9692 26.5857 24.9594 24.5539 27.0059C24.5025 27.0573 24.4419 27.0921 24.3722 27.1105C24.3663 27.1119 24.3602 27.1119 24.3543 27.1106C24.3484 27.1093 24.3429 27.1068 24.3382 27.1031C24.3334 27.0994 24.3296 27.0947 24.3269 27.0893C24.3242 27.0839 24.3227 27.078 24.3226 27.072C24.3189 25.2556 24.3263 23.5463 24.3446 21.9441C24.3618 20.3921 24.6353 18.7832 25.1653 17.1174C25.3183 16.6388 25.2736 16.2123 25.0313 15.8377C24.6659 15.2722 23.9315 15.186 23.4432 15.6633C23.1494 15.9497 22.945 16.2765 22.83 16.6437Z" fill="#0081CC"/>
<circle cx="20" cy="20" r="19.5" stroke="black" stroke-opacity="0.05"/>
</svg>
