<svg width="40" height="40" viewBox="0 0 40 40" fill="none" xmlns="http://www.w3.org/2000/svg">
<circle cx="20" cy="20" r="20" fill="#EB6246"/>
<g clip-path="url(#clip0_17713_28112)">
<path d="M11.4183 15.282C14.297 14.5836 17.3637 15.1925 19.7678 16.9564C19.7813 16.9654 19.7813 16.9743 19.7678 16.9788C19.7634 16.9788 19.7589 16.9788 19.7544 16.9788C18.8546 16.9788 18.1069 16.9788 17.507 16.9743C17.4891 16.9743 17.4667 16.9743 17.4488 16.9699C17.4309 16.9699 17.4175 16.9609 17.3995 16.9564C15.8281 16.2401 14.0821 15.9536 12.3585 16.173C10.5722 16.3968 8.98289 17.0683 7.58609 18.1921C6.78919 18.8323 6.11317 19.5933 5.55355 20.4663C5.5446 20.4798 5.52669 20.4843 5.51326 20.4798L4.97155 20.1977C4.97155 20.1977 4.9626 20.1888 4.96707 20.1798C5.89828 18.5368 7.17868 17.2474 8.81277 16.3117C9.61414 15.8506 10.4827 15.5104 11.4183 15.282Z" fill="white"/>
<path d="M12.6277 22.566C12.2561 23.4614 11.4055 23.8912 10.4609 23.8733C9.59233 23.8554 8.91183 23.5062 8.41937 22.8212C8.33878 22.7093 8.26715 22.5839 8.2 22.4631C8.19104 22.4496 8.2 22.4362 8.20895 22.4272L9.18045 21.89C9.18045 21.89 9.20283 21.89 9.20731 21.899C9.48488 22.5392 10.0624 22.8123 10.7474 22.7272C11.1906 22.6735 11.5353 22.4093 11.607 21.9482C11.6472 21.6975 11.5174 21.4244 11.2757 21.3304C11.1682 21.2901 11.0518 21.2543 10.9265 21.2319C10.4832 21.1468 10.0176 21.0662 9.60128 20.9364C8.76857 20.6768 8.2 19.9515 8.32535 19.0695C8.43728 18.2861 9.073 17.6951 9.81617 17.5071C10.7966 17.2564 11.8084 17.6011 12.4262 18.398C12.4397 18.4114 12.4352 18.4248 12.4173 18.4338L11.5174 18.9307C11.5174 18.9307 11.4682 18.9397 11.4503 18.9263C11.3518 18.8457 11.2443 18.7741 11.1324 18.7069C10.8101 18.5099 10.4519 18.4607 10.0624 18.5547C9.85647 18.6039 9.64157 18.7472 9.53413 18.9352C9.43563 19.1098 9.42668 19.3023 9.51174 19.5127C9.58785 19.6963 9.8117 19.8217 9.99077 19.8754C10.4832 20.0231 10.9981 20.0679 11.495 20.2111C11.9517 20.341 12.2964 20.5962 12.5247 20.9767C12.6993 21.2677 12.7799 21.5766 12.7665 21.9079C12.7575 22.1497 12.7128 22.369 12.6322 22.5705L12.6277 22.566Z" fill="white"/>
<path d="M27.5402 20.4753C27.5402 20.4753 27.5402 20.5022 27.5492 20.5111C28.3237 21.308 29.2683 21.9661 30.2219 22.5347C30.2398 22.5481 30.2533 22.566 30.2533 22.5929V23.739C30.2533 23.739 30.2533 23.7569 30.2398 23.7569C30.2219 23.7569 30.1995 23.748 30.1861 23.739C29.8638 23.5778 29.5369 23.3898 29.2056 23.1749C29.1922 23.166 29.1698 23.166 29.1564 23.1749C28.4446 23.7121 27.4417 23.9494 26.5687 23.8465C25.6241 23.7345 24.7511 23.0898 24.7779 22.0557C24.7959 21.3797 25.3062 20.8245 25.8032 20.4126C25.8166 20.3992 25.8211 20.3813 25.8076 20.3679C25.5569 20.05 25.3197 19.6963 25.2615 19.2934C25.2033 18.9084 25.2838 18.5592 25.4943 18.2413C25.9061 17.6325 26.6448 17.3817 27.3567 17.525C28.0103 17.6548 28.5475 18.116 28.6639 18.7875C28.8117 19.6247 28.1536 20.0679 27.5626 20.4619C27.5537 20.4664 27.5447 20.4753 27.5447 20.4843L27.5402 20.4753ZM26.3896 18.9039C26.3628 19.2083 26.5329 19.4859 26.7299 19.7142C26.7388 19.7232 26.7478 19.7232 26.7568 19.7142C26.8821 19.6381 27.0075 19.5575 27.1373 19.4725C27.4104 19.2889 27.6611 19.0427 27.491 18.7069C27.2671 18.2637 26.4344 18.3846 26.3896 18.9039ZM26.506 21.1424C26.1255 21.4155 25.7853 21.8856 26.0181 22.3512C26.2016 22.7138 26.6583 22.8839 27.0433 22.8929C27.4507 22.9018 27.8894 22.7451 28.2565 22.5347C28.2655 22.5302 28.27 22.5168 28.2655 22.5078C28.2655 22.5078 28.2655 22.5078 28.261 22.5034C27.688 22.0736 27.1194 21.599 26.6001 21.1289C26.5777 21.1066 26.5553 21.1066 26.5329 21.1289C26.5284 21.1334 26.5195 21.1379 26.515 21.1424H26.506Z" fill="white"/>
<path d="M18.1878 21.6572C18.1878 22.8078 17.364 23.6718 16.2493 23.842C15.5688 23.9449 14.839 23.8061 14.2884 23.3808C13.8183 23.0182 13.5452 22.5481 13.4736 21.9751C13.4556 21.8497 13.4512 21.6796 13.4512 21.4647C13.4512 20.1709 13.4512 18.8994 13.4512 17.6503C13.4512 17.628 13.4601 17.619 13.4825 17.619H14.5794C14.5794 17.619 14.6017 17.6235 14.6017 17.6369C14.6017 18.8994 14.6017 20.1619 14.6017 21.4334C14.6017 21.6841 14.6152 21.8542 14.6376 21.9482C14.8256 22.6511 15.6046 22.9242 16.2493 22.7227C16.6253 22.6063 16.9208 22.3243 17.0103 21.9348C17.0327 21.8273 17.0462 21.6706 17.0462 21.4602C17.0462 20.1395 17.0462 18.8591 17.0462 17.628C17.0462 17.6235 17.0506 17.6145 17.0596 17.6145H18.1654C18.1654 17.6145 18.1967 17.628 18.1967 17.6459C18.1967 18.9576 18.1967 20.2962 18.1967 21.6572H18.1878Z" fill="white"/>
<path d="M22.9114 20.7171C22.9204 20.6589 22.9249 20.5917 22.9249 20.5201C22.9249 19.5665 22.9249 18.6084 22.9249 17.6459C22.9249 17.628 22.9338 17.619 22.9517 17.619H24.053C24.053 17.619 24.0754 17.628 24.0754 17.6414V23.7166C24.0754 23.7166 24.062 23.7435 24.0486 23.7435C23.6725 23.7435 23.2964 23.7435 22.9114 23.7435C22.7368 23.7435 22.6965 23.6271 22.6562 23.4659C22.2757 21.805 21.5057 20.341 20.3417 19.083C20.3327 19.074 20.3238 19.0651 20.3148 19.0606C20.3103 19.0606 20.3014 19.0606 20.3014 19.0651C20.3014 19.0651 20.3014 19.0651 20.3014 19.0695V23.7121C20.3014 23.7121 20.2879 23.739 20.2745 23.739H19.1777C19.1777 23.739 19.1553 23.7256 19.1553 23.7166V17.628C19.1553 17.628 19.1597 17.6145 19.1687 17.6145C19.5716 17.6145 19.9611 17.6145 20.3282 17.6145C20.561 17.6145 20.6909 17.7041 20.861 17.8697C21.6713 18.6666 22.3294 19.5665 22.8308 20.5693C22.8532 20.6141 22.8756 20.6633 22.8935 20.7171C22.9025 20.7484 22.9114 20.7484 22.9159 20.7171H22.9114Z" fill="white"/>
<path d="M32.2003 22.6824H34.9402C34.9402 22.6824 34.9626 22.6914 34.9626 22.7048V23.7121C34.9626 23.7256 34.9536 23.7345 34.9402 23.7345H31.0497C31.0497 23.7345 31.0273 23.7256 31.0273 23.7121V17.6369C31.0273 17.6369 31.0363 17.6145 31.0497 17.6145H32.1555C32.1555 17.6145 32.1779 17.6235 32.1779 17.6324V22.66C32.1779 22.6735 32.1869 22.6824 32.2003 22.6824Z" fill="white"/>
</g>
<circle cx="20" cy="20" r="19.5" stroke="black" stroke-opacity="0.05"/>
<defs>
<clipPath id="clip0_17713_28112">
<rect width="30" height="8.8733" fill="white" transform="translate(4.96289 15)"/>
</clipPath>
</defs>
</svg>
