<svg width="40" height="40" viewBox="0 0 40 40" fill="none" xmlns="http://www.w3.org/2000/svg">
<circle cx="20" cy="20" r="20" fill="#F6F8FA"/>
<path d="M10.7651 15.1397C10.762 15.015 10.8124 14.9258 10.9161 14.8721C10.9958 14.8307 11.0927 14.7985 11.2067 14.7755C11.3084 14.7556 11.4108 14.7686 11.5141 14.8146C11.7783 14.9322 11.8859 15.1328 11.8368 15.4164C11.8138 15.5513 11.7553 15.6581 11.6613 15.7369C11.556 15.8253 11.4305 15.8646 11.2849 15.8549C10.8704 15.8273 10.6859 15.6001 10.7314 15.1734C10.7324 15.1616 10.7383 15.1535 10.749 15.1489C10.7515 15.1478 10.7541 15.1476 10.7567 15.1481C10.7623 15.1486 10.7651 15.1458 10.7651 15.1397Z" fill="#DDEAA8"/>
<path d="M26.2484 24.7814C26.2535 24.8852 26.2745 24.9825 26.3113 25.0735C26.3205 25.0965 26.3363 25.1133 26.3588 25.1241C26.392 25.1394 26.4124 25.1662 26.4201 25.2046C26.4416 25.3145 26.46 25.43 26.4753 25.5511C26.4778 25.5687 26.4763 25.5871 26.4707 25.6047C26.4436 25.6911 26.425 25.778 26.4147 25.8654C26.3917 26.0535 26.3041 26.2395 26.1518 26.4235C26.1119 26.472 26.0588 26.5065 25.9923 26.527C25.9658 26.5357 25.9476 26.553 25.9379 26.5791C25.9159 26.6384 25.874 26.6754 25.8122 26.6903C25.642 26.7322 25.459 26.7557 25.2633 26.7608C25.2495 26.7613 25.2411 26.7549 25.238 26.7416C25.2334 26.7258 25.2229 26.7168 25.2066 26.7148C24.9899 26.6913 24.8033 26.608 24.6469 26.4649C24.6101 26.4317 24.5713 26.4061 24.5304 26.3882C24.4875 26.3688 24.4561 26.3376 24.4361 26.2947C24.4198 26.2579 24.3986 26.2548 24.3725 26.2855C24.3321 26.333 24.313 26.4046 24.315 26.5001C24.273 26.1509 24.3491 25.7976 24.5312 25.4966C24.7134 25.1957 24.9911 24.9644 25.32 24.8397C25.6166 24.7268 25.9403 24.7065 26.2484 24.7814ZM25.7018 25.5649C25.7018 25.4697 25.664 25.3785 25.5967 25.3112C25.5294 25.2439 25.4382 25.2061 25.343 25.2061C25.2479 25.2061 25.1566 25.2439 25.0893 25.3112C25.022 25.3785 24.9842 25.4697 24.9842 25.5649C24.9842 25.66 25.022 25.7513 25.0893 25.8186C25.1566 25.8859 25.2479 25.9237 25.343 25.9237C25.4382 25.9237 25.5294 25.8859 25.5967 25.8186C25.664 25.7513 25.7018 25.66 25.7018 25.5649Z" fill="#FCB63E"/>
<path d="M26.248 24.7814C26.6471 24.8777 26.9929 25.1261 27.2116 25.4736C27.3266 25.6563 27.4027 25.8606 27.4354 26.0738C27.4681 26.2871 27.4567 26.5047 27.4017 26.7132C27.2962 27.1135 27.037 27.4564 26.6804 27.6677C26.3434 27.8669 25.9442 27.9336 25.5603 27.8547C25.237 27.788 24.9428 27.6213 24.7193 27.3783C24.4957 27.1352 24.3542 26.828 24.3146 26.5001C24.3126 26.4045 24.3317 26.333 24.3721 26.2855C24.3982 26.2548 24.4194 26.2579 24.4357 26.2947C24.4557 26.3376 24.4871 26.3688 24.53 26.3882C24.5709 26.4061 24.6097 26.4316 24.6465 26.4649C24.8029 26.608 24.9895 26.6913 25.2062 26.7148C25.2225 26.7168 25.233 26.7258 25.2376 26.7416C25.2407 26.7549 25.2491 26.7613 25.2629 26.7608C25.4586 26.7557 25.6416 26.7321 25.8118 26.6902C25.8736 26.6754 25.9155 26.6384 25.9375 26.5791C25.9472 26.553 25.9654 26.5356 25.9919 26.5269C26.0584 26.5065 26.1115 26.472 26.1514 26.4235C26.3037 26.2395 26.3914 26.0534 26.4144 25.8654C26.4246 25.778 26.4432 25.6911 26.4703 25.6047C26.4759 25.587 26.4774 25.5687 26.4749 25.5511C26.4596 25.4299 26.4412 25.3144 26.4197 25.2045C26.4121 25.1662 26.3916 25.1394 26.3584 25.124C26.3359 25.1133 26.3201 25.0965 26.3109 25.0735C26.2741 24.9825 26.2531 24.8851 26.248 24.7814Z" fill="#FAA333"/>
<path d="M30.8159 12.1545C30.9739 12.3467 31.1285 12.5266 31.2797 12.6942C31.4336 12.8659 31.5327 13.0159 31.5772 13.1442C31.7336 13.5975 31.7073 14.0483 31.4982 14.4965C31.418 14.6687 31.3334 14.8348 31.2445 14.9948C31.1839 15.1037 31.0843 15.1719 31.0061 15.2654C30.8834 15.4141 30.7063 15.4831 30.563 15.6081C30.4935 15.6689 30.4168 15.7141 30.333 15.7438C30.1495 15.8087 29.9581 15.8537 29.7588 15.8787C29.5809 15.9009 29.4061 15.8542 29.2291 15.8473C28.7267 15.8274 28.3244 15.6237 28.0224 15.2363C27.9805 15.1831 27.9378 15.1371 27.8944 15.0983C27.8801 15.0855 27.8683 15.0707 27.8591 15.0538L27.8032 14.945C27.7966 14.9326 27.7876 14.9217 27.7768 14.9129C27.766 14.904 27.7536 14.8975 27.7403 14.8936C27.7014 14.8819 27.6846 14.8571 27.6897 14.8193C27.6923 14.8034 27.6856 14.794 27.6698 14.7909C27.6212 14.7817 27.5967 14.7503 27.5962 14.6966C27.5951 14.599 27.5862 14.5798 27.5693 14.6391C27.6207 14.0839 27.8376 13.557 28.1919 13.1267C28.5462 12.6963 29.0216 12.3825 29.5564 12.2258C29.9654 12.1058 30.3964 12.0814 30.8159 12.1545ZM28.9485 12.9303C28.9155 12.9802 28.8841 13.017 28.8296 13.0461C28.7949 13.0645 28.7719 13.0836 28.7607 13.1036C28.7392 13.1404 28.7333 13.183 28.743 13.2316C28.7446 13.2382 28.7425 13.2439 28.7369 13.2485C28.7348 13.25 28.7328 13.2513 28.7308 13.2523C28.7195 13.2569 28.7124 13.2653 28.7093 13.2776C28.6745 13.4059 28.6278 13.5326 28.569 13.6578C28.5189 13.7647 28.5003 13.8684 28.513 13.9691C28.5258 14.0698 28.569 14.1648 28.6426 14.2543C28.6968 14.3197 28.7535 14.3854 28.8128 14.4513C28.868 14.5126 28.9331 14.5555 29.0083 14.5801C29.2469 14.6583 29.4831 14.6624 29.7166 14.5923C29.8416 14.5555 29.9182 14.4727 30.0424 14.4337C30.0511 14.4311 30.0555 14.4252 30.0555 14.416C30.055 14.4135 30.0539 14.4112 30.0524 14.4091C30.0483 14.404 30.0486 14.3986 30.0532 14.393C30.1155 14.3189 30.1794 14.2489 30.2448 14.183C30.3026 14.1242 30.3447 14.0475 30.3713 13.953C30.4081 13.8216 30.4288 13.6928 30.4334 13.5666C30.4365 13.4848 30.4173 13.4026 30.3759 13.3198C30.3371 13.2416 30.3023 13.1608 30.2716 13.0775C30.263 13.0535 30.2489 13.0336 30.2295 13.0177C30.2039 12.9973 30.1827 12.9735 30.1659 12.9464C30.1331 12.8938 30.1081 12.8598 30.0907 12.8445C30.0412 12.8 29.9872 12.7573 29.929 12.7164C29.8684 12.6735 29.7802 12.7065 29.7021 12.6781C29.4465 12.5876 29.2334 12.6449 29.0627 12.8498C29.0469 12.8692 29.0269 12.8825 29.0029 12.8897C28.9799 12.8968 28.9618 12.9104 28.9485 12.9303Z" fill="#40A0D7"/>
<path d="M30.816 12.1545C31.4487 12.2646 32.0237 12.5902 32.4436 13.076C32.7991 13.4876 33.0262 13.9945 33.0967 14.5341C33.1734 15.1189 33.062 15.7131 32.7786 16.2306C32.558 16.6336 32.241 16.9757 31.8558 17.2263C31.4707 17.4768 31.0294 17.6281 30.5715 17.6665C29.9483 17.7186 29.3258 17.5593 28.8045 17.2142C28.3849 16.9367 28.0485 16.5506 27.831 16.0971C27.6135 15.6437 27.5231 15.1398 27.5694 14.6391C27.5863 14.5798 27.5952 14.599 27.5963 14.6966C27.5968 14.7503 27.6213 14.7817 27.6699 14.7909C27.6857 14.794 27.6924 14.8034 27.6898 14.8193C27.6847 14.8571 27.7016 14.8819 27.7404 14.8936C27.7537 14.8975 27.7661 14.9041 27.7769 14.9129C27.7877 14.9217 27.7967 14.9326 27.8033 14.945L27.8592 15.0539C27.8684 15.0707 27.8802 15.0856 27.8945 15.0983C27.9379 15.1372 27.9806 15.1832 28.0225 15.2363C28.3246 15.6237 28.7268 15.8274 29.2292 15.8473C29.4062 15.8542 29.581 15.901 29.7589 15.8787C29.9582 15.8537 30.1496 15.8087 30.3331 15.7438C30.4169 15.7142 30.4936 15.6689 30.5631 15.6081C30.7064 15.4832 30.8835 15.4142 31.0062 15.2655C31.0844 15.1719 31.184 15.1037 31.2446 14.9948C31.3335 14.8349 31.4181 14.6688 31.4983 14.4965C31.7074 14.0483 31.7337 13.5976 31.5773 13.1442C31.5328 13.016 31.4337 12.866 31.2798 12.6942C31.1286 12.5266 30.974 12.3467 30.816 12.1545Z" fill="#308BC0"/>
<path d="M14.0899 16.2942C14.0899 16.8503 13.869 17.3836 13.4757 17.7768C13.0825 18.17 12.5492 18.3909 11.9932 18.3909C11.7178 18.3909 11.4452 18.3366 11.1908 18.2313C10.9364 18.1259 10.7053 17.9715 10.5106 17.7768C10.1174 17.3836 9.89648 16.8503 9.89648 16.2942C9.89648 15.7381 10.1174 15.2048 10.5106 14.8116C10.9038 14.4184 11.4371 14.1975 11.9932 14.1975C12.5492 14.1975 13.0825 14.4184 13.4757 14.8116C13.869 15.2048 14.0899 15.7381 14.0899 16.2942ZM10.7566 15.1481C10.7541 15.1476 10.7515 15.1479 10.749 15.1489C10.7382 15.1535 10.7323 15.1617 10.7313 15.1734C10.6858 15.6002 10.8703 15.8273 11.2848 15.8549C11.4305 15.8646 11.5559 15.8253 11.6612 15.7369C11.7553 15.6582 11.8138 15.5513 11.8368 15.4164C11.8858 15.1328 11.7783 14.9322 11.514 14.8146C11.4108 14.7686 11.3083 14.7556 11.2066 14.7755C11.0927 14.7985 10.9958 14.8307 10.9161 14.8721C10.8123 14.9258 10.762 15.015 10.7651 15.1397C10.7651 15.1458 10.7622 15.1486 10.7566 15.1481Z" fill="#9BCA3C"/>
<path d="M28.9481 12.9304C28.9614 12.9104 28.9796 12.8969 29.0025 12.8897C29.0266 12.8826 29.0465 12.8693 29.0623 12.8499C29.233 12.6449 29.4462 12.5877 29.7017 12.6781C29.7799 12.7065 29.8681 12.6735 29.9286 12.7165C29.9869 12.7574 30.0408 12.8 30.0904 12.8445C30.1077 12.8598 30.1328 12.8938 30.1655 12.9465C30.1824 12.9736 30.2036 12.9973 30.2291 13.0178C30.2485 13.0336 30.2626 13.0535 30.2713 13.0776C30.302 13.1609 30.3367 13.2416 30.3756 13.3198C30.4169 13.4026 30.4361 13.4849 30.433 13.5667C30.4284 13.6929 30.4078 13.8217 30.371 13.953C30.3444 14.0476 30.3022 14.1242 30.2445 14.183C30.179 14.2489 30.1152 14.319 30.0528 14.3931C30.0482 14.3987 30.048 14.404 30.052 14.4092C30.0536 14.4112 30.0546 14.4135 30.0551 14.4161C30.0551 14.4253 30.0508 14.4311 30.0421 14.4337C29.9179 14.4728 29.8412 14.5556 29.7163 14.5924C29.4827 14.6624 29.2466 14.6583 29.0079 14.5801C28.9328 14.5556 28.8676 14.5127 28.8124 14.4513C28.7531 14.3854 28.6964 14.3197 28.6422 14.2543C28.5686 14.1649 28.5255 14.0698 28.5127 13.9691C28.4999 13.8684 28.5186 13.7647 28.5686 13.6579C28.6274 13.5327 28.6742 13.4059 28.7089 13.2776C28.712 13.2654 28.7192 13.2569 28.7304 13.2523C28.7324 13.2513 28.7345 13.25 28.7365 13.2485C28.7422 13.2439 28.7442 13.2383 28.7427 13.2316C28.733 13.1831 28.7388 13.1404 28.7603 13.1036C28.7715 13.0837 28.7945 13.0645 28.8293 13.0461C28.8837 13.017 28.9152 12.9802 28.9481 12.9304ZM29.7186 13.8434C29.7546 13.7851 29.809 13.756 29.8251 13.6816C29.8425 13.6004 29.844 13.5201 29.8297 13.4409C29.8159 13.3668 29.7802 13.2976 29.7224 13.2332C29.6151 13.1131 29.4761 13.0272 29.3054 12.9756C29.1684 12.9342 29.0493 12.9636 28.9481 13.0638C28.8766 13.1353 28.8436 13.2278 28.8492 13.3413C28.8548 13.4665 28.8602 13.5879 28.8653 13.7054C28.8694 13.7918 28.9111 13.8506 28.9903 13.8817C29.0066 13.8884 29.0151 13.9004 29.0156 13.9178C29.0156 13.9254 29.0181 13.9323 29.0232 13.9385C29.033 13.9497 29.045 13.9561 29.0593 13.9576C29.1247 13.9638 29.1886 13.9801 29.2509 14.0067C29.3133 14.0333 29.3782 14.0397 29.4457 14.0259C29.5678 14.0008 29.6588 13.94 29.7186 13.8434Z" fill="#7BB8E5"/>
<path d="M29.7186 13.8434C29.6588 13.94 29.5678 14.0008 29.4457 14.0258C29.3782 14.0396 29.3133 14.0332 29.251 14.0066C29.1886 13.9801 29.1247 13.9637 29.0593 13.9576C29.045 13.9561 29.033 13.9497 29.0233 13.9384C29.0182 13.9323 29.0156 13.9254 29.0156 13.9177C29.0151 13.9003 29.0067 13.8883 28.9903 13.8817C28.9111 13.8505 28.8694 13.7917 28.8653 13.7054C28.8602 13.5878 28.8549 13.4664 28.8492 13.3412C28.8436 13.2278 28.8766 13.1353 28.9481 13.0637C29.0493 12.9635 29.1684 12.9342 29.3054 12.9756C29.4761 13.0272 29.6151 13.113 29.7224 13.2331C29.7802 13.2975 29.8159 13.3668 29.8297 13.4409C29.8441 13.5201 29.8425 13.6003 29.8251 13.6816C29.809 13.756 29.7546 13.7851 29.7186 13.8434Z" fill="#D1E4F7"/>
<path d="M6.79326 22.0745C7.33142 21.9587 7.36055 21.3999 6.92588 21.1208C6.19836 20.6547 5.13431 20.4945 5.01471 19.4343C4.80236 17.5591 6.93891 17.3966 8.16932 17.809C8.19437 17.8177 8.20689 17.8351 8.20689 17.8612L8.20612 18.8938C8.20612 18.928 8.19156 18.936 8.16243 18.9176C7.73721 18.6477 7.28287 18.5407 6.79939 18.5964C6.54538 18.6255 6.36344 18.728 6.25356 18.9038C6.01591 19.2848 6.53951 19.6252 6.84155 19.7532C7.53764 20.0476 8.33185 20.4094 8.42307 21.2718C8.63466 23.2574 6.34939 23.2926 5.08371 22.8281C5.06645 22.8218 5.05153 22.8102 5.04097 22.795C5.03041 22.7798 5.02473 22.7616 5.02468 22.743V21.6398C5.02468 21.5959 5.04078 21.589 5.07298 21.6191C5.52988 22.0476 6.22366 22.1971 6.79326 22.0745Z" fill="#231F20"/>
<path d="M10.9322 22.5114C10.647 22.978 10.2001 23.1541 9.59141 23.0396C9.18587 22.963 8.86849 22.6034 8.8156 22.1941C8.67914 21.1453 9.26483 20.7406 10.1625 20.6378C10.4324 20.6067 10.693 20.5701 10.9445 20.5282C10.9567 20.5261 10.9676 20.5196 10.9751 20.5099C10.9827 20.5003 10.9862 20.4882 10.9851 20.4761C10.913 19.5393 9.61594 20.013 9.19047 20.3143C9.16032 20.3363 9.14524 20.3286 9.14524 20.2913V19.4879C9.14524 19.4613 9.15649 19.4411 9.17897 19.4273C9.23519 19.3926 9.29601 19.3637 9.36143 19.3407C10.0095 19.1143 10.5773 19.0642 11.0648 19.1905C11.8284 19.3882 12.0323 20.0414 12.0369 20.7436C12.041 21.4831 12.0415 22.2137 12.0384 22.9354C12.0384 22.963 12.0246 22.9768 11.997 22.9768L11.0342 22.9775C11.003 22.9775 10.9872 22.9617 10.9866 22.93L10.9813 22.5245C10.9803 22.4642 10.9639 22.4598 10.9322 22.5114ZM10.1909 21.3324C9.7478 21.4313 9.66884 22.0898 10.1434 22.2109C10.2998 22.2508 10.4459 22.237 10.5819 22.1695C10.9261 21.9993 11.0112 21.6206 10.9843 21.2557C10.9823 21.2286 10.9677 21.2164 10.9406 21.2189C10.6463 21.2481 10.3964 21.2859 10.1909 21.3324Z" fill="#231F20"/>
<path d="M13.9747 19.7164C14.2793 19.3045 14.6713 19.1072 15.1507 19.1246C15.58 19.1391 15.9288 19.3561 16.096 19.7586C16.0977 19.7628 16.1005 19.7666 16.1042 19.7693C16.1079 19.772 16.1124 19.7737 16.117 19.7741C16.1217 19.7745 16.1264 19.7736 16.1306 19.7715C16.1349 19.7695 16.1385 19.7663 16.1412 19.7624C16.457 19.2753 16.9139 19.0666 17.5119 19.1361C18.2386 19.2204 18.4786 19.8843 18.4786 20.5183C18.4786 21.3948 18.4791 22.1997 18.4801 22.9331C18.4801 22.9388 18.479 22.9445 18.4768 22.9498C18.4746 22.9551 18.4714 22.9599 18.4673 22.964C18.4633 22.9681 18.4585 22.9713 18.4532 22.9735C18.4479 22.9757 18.4422 22.9768 18.4364 22.9768L17.4199 22.9776C17.3831 22.9776 17.3647 22.9589 17.3647 22.9216C17.3703 22.157 17.3696 21.4101 17.3624 20.6808C17.3614 20.5668 17.3335 20.4483 17.2788 20.3251C17.147 20.0253 16.7729 19.9326 16.523 20.1273C16.318 20.2868 16.2125 20.5247 16.2064 20.841C16.1936 21.4666 16.192 22.1634 16.2018 22.9316C16.2023 22.9617 16.1874 22.9768 16.1573 22.9768H15.1285C15.0994 22.9773 15.0848 22.9627 15.0848 22.9331C15.0884 22.1435 15.0879 21.3899 15.0833 20.6724C15.0817 20.4431 14.9805 20.1649 14.7536 20.0721C14.25 19.8659 13.9395 20.3611 13.938 20.8149C13.9354 21.5591 13.9349 22.2656 13.9364 22.9346C13.9364 22.9458 13.9321 22.9565 13.9243 22.9644C13.9165 22.9724 13.906 22.9768 13.895 22.9768L12.8448 22.9776C12.8187 22.9776 12.8057 22.9645 12.8057 22.9385V19.2587C12.8057 19.2486 12.8097 19.2388 12.8169 19.2316C12.8241 19.2244 12.8338 19.2204 12.844 19.2204H13.8981C13.9236 19.2204 13.9364 19.2332 13.9364 19.2587L13.9357 19.7041C13.9357 19.7476 13.9487 19.7517 13.9747 19.7164Z" fill="#231F20"/>
<path d="M28.4083 19.7341C28.7328 19.2434 29.1964 19.0484 29.7989 19.1491C30.5004 19.2664 30.7035 19.9479 30.7051 20.5628C30.7071 21.3539 30.7076 22.145 30.7066 22.9362C30.7066 22.9633 30.6928 22.9768 30.6652 22.9768L29.6364 22.9776C29.6073 22.9776 29.593 22.963 29.5935 22.9339C29.5976 22.2542 29.5968 21.5397 29.5912 20.7904C29.5827 19.6842 28.3753 19.8582 28.3707 20.8119C28.3671 21.5131 28.3666 22.2204 28.3692 22.9339C28.3697 22.9625 28.3556 22.9768 28.327 22.9768L27.276 22.9776C27.2709 22.9776 27.266 22.9755 27.2624 22.9718C27.2589 22.968 27.2568 22.9629 27.2568 22.9577V19.2588C27.2568 19.2332 27.2696 19.2204 27.2952 19.2204L28.3301 19.2197C28.3556 19.2197 28.3684 19.2327 28.3684 19.2588V19.7218C28.3684 19.7698 28.3817 19.7739 28.4083 19.7341Z" fill="#231F20"/>
<path d="M33.8235 22.5382C33.769 22.6042 33.72 22.6854 33.6571 22.7414C33.305 23.0547 32.8749 23.1485 32.3669 23.0227C31.3619 22.7744 31.2039 21.5777 31.3059 20.7221C31.3803 20.0981 31.7406 19.4319 32.3416 19.2242C32.9677 19.008 33.4637 19.1202 33.8296 19.5607C33.8577 19.5945 33.8715 19.5893 33.871 19.5454L33.8672 19.2602C33.8666 19.2336 33.8797 19.2203 33.9063 19.2203H34.9588C34.9859 19.2203 34.9994 19.2339 34.9994 19.261C35.001 20.3961 35.0002 21.514 34.9971 22.6149C34.9941 23.7602 34.3563 24.5659 33.2132 24.7124C32.7134 24.7768 32.12 24.7553 31.6486 24.5514C31.621 24.5391 31.6072 24.5181 31.6072 24.4885V23.5724C31.6072 23.5382 31.6217 23.53 31.6509 23.5479C32.5969 24.119 33.9852 23.9856 33.8687 22.552C33.8651 22.5106 33.85 22.506 33.8235 22.5382ZM32.8936 20.0935C32.4528 20.3051 32.3792 20.9015 32.4183 21.3408C32.5164 22.4578 33.7867 22.4263 33.8787 21.3485C33.8965 21.1451 33.8965 20.9414 33.8787 20.7375C33.838 20.2668 33.3842 19.8574 32.8936 20.0935Z" fill="#231F20"/>
<path d="M20.7572 21.8453C20.7664 21.8913 20.7776 21.8918 20.7909 21.8468L21.546 19.261C21.5537 19.2339 21.5716 19.2204 21.5997 19.2204L22.6408 19.2196C22.644 19.2195 22.6472 19.2203 22.6501 19.2217C22.6531 19.2232 22.6556 19.2253 22.6574 19.228C22.6593 19.2306 22.6606 19.2337 22.661 19.2369C22.6614 19.2401 22.6611 19.2434 22.6599 19.2464C22.1529 20.6877 21.6442 22.1077 21.1336 23.5065C21.0224 23.8093 20.817 24.1259 20.5816 24.3567C20.2024 24.7277 19.6862 24.8299 19.0331 24.6633C19.0172 24.6591 19.0032 24.6497 18.9932 24.6367C18.9832 24.6237 18.9778 24.6077 18.9779 24.5913L18.9756 23.7641C18.9756 23.7206 18.9953 23.7081 19.0346 23.7265C19.4016 23.8972 19.6865 23.874 19.8894 23.6568C19.9977 23.5407 20.1038 23.3166 20.2075 22.9844C20.2167 22.9563 20.216 22.9285 20.2052 22.9009L18.797 19.2595C18.7952 19.2552 18.7946 19.2506 18.7951 19.246C18.7956 19.2414 18.7972 19.237 18.7999 19.2331C18.8025 19.2293 18.8061 19.2261 18.8103 19.2239C18.8144 19.2217 18.8191 19.2205 18.8238 19.2204H19.9944C20.0026 19.2204 20.0106 19.223 20.0171 19.2278C20.0236 19.2327 20.0283 19.2395 20.0304 19.2472C20.2681 20.0552 20.4983 20.8456 20.7212 21.6183C20.7426 21.6927 20.7419 21.7701 20.7572 21.8453Z" fill="#231F20"/>
<path d="M25.2563 22.48C24.9655 22.921 24.558 23.115 24.0336 23.0618C23.2294 22.9806 22.9672 22.2968 22.9649 21.5892C22.9629 20.7914 22.9624 20.0151 22.9634 19.2602C22.9634 19.2496 22.9677 19.2395 22.9753 19.232C22.9829 19.2245 22.9933 19.2203 23.004 19.2203H24.0336C24.0622 19.2203 24.0765 19.2346 24.0765 19.2633C24.0735 20.0043 24.074 20.7362 24.0781 21.4588C24.0786 21.5994 24.109 21.7346 24.1693 21.8644C24.308 22.1657 24.6745 22.2347 24.942 22.0982C25.2433 21.9441 25.3077 21.6106 25.3054 21.291C25.3003 20.6352 25.2993 19.9581 25.3023 19.2594C25.3023 19.2334 25.3156 19.2203 25.3422 19.2203H26.3748C26.4004 19.2203 26.4132 19.2331 26.4132 19.2587V22.9384C26.4132 22.9486 26.4091 22.9583 26.4019 22.9655C26.3947 22.9727 26.385 22.9767 26.3748 22.9767L25.3399 22.9775C25.3138 22.9775 25.3008 22.9645 25.3008 22.9384L25.3016 22.4938C25.3021 22.4386 25.287 22.434 25.2563 22.48Z" fill="#231F20"/>
<path d="M25.3432 25.9236C25.5413 25.9236 25.7019 25.763 25.7019 25.5648C25.7019 25.3667 25.5413 25.2061 25.3432 25.2061C25.145 25.2061 24.9844 25.3667 24.9844 25.5648C24.9844 25.763 25.145 25.9236 25.3432 25.9236Z" fill="#FFE4B4"/>
<circle cx="20" cy="20" r="19.5" stroke="black" stroke-opacity="0.05"/>
</svg>
