<svg width="40" height="40" viewBox="0 0 40 40" fill="none" xmlns="http://www.w3.org/2000/svg">
<circle cx="20" cy="20" r="20" fill="#F6F8FA"/>
<path d="M22.9765 12L19.9802 13.9478L16.9902 15.8925L10.9883 19.7944L17.029 23.7288L20.0206 21.7841L16.97 19.7975L19.9802 17.8403L22.9703 15.8956L22.9765 15.891L29.0188 19.827L23.0122 23.7319L23.0107 23.7304L20.0191 25.6751L23.0107 27.6244L35.0004 19.8285L22.9765 12Z" fill="#22337D"/>
<path d="M22.9699 15.8956L19.9798 17.8403L23.0305 19.827L20.0202 21.7841L17.0286 23.7288L17.0239 23.7319L10.9817 19.7975L16.9867 15.891L16.9898 15.8925L19.9798 13.9478L16.9882 12L5 19.7944L17.0224 27.6244L20.0187 25.6751L23.0103 23.7304L29.0122 19.8285L22.9699 15.8956Z" fill="#46CEE0"/>
<circle cx="20" cy="20" r="19.5" stroke="black" stroke-opacity="0.05"/>
</svg>
