<svg width="40" height="40" viewBox="0 0 40 40" fill="none" xmlns="http://www.w3.org/2000/svg">
<circle cx="20" cy="20" r="20" fill="#E60012"/>
<path d="M11.0004 18.1663C10.9955 18.4223 11.0408 18.6769 11.1337 18.9155C11.2302 19.1953 11.3855 19.4512 11.589 19.666C11.7926 19.8809 12.0397 20.0497 12.3139 20.1611C12.588 20.2726 12.8829 20.3241 13.1786 20.3122C13.4743 20.3003 13.7641 20.2253 14.0284 20.0922L23.505 16.1698C23.505 16.1698 19.9042 25.5483 19.7669 25.8974C19.2413 27.2428 19.8689 28.4587 20.9436 28.8666C21.1766 28.9554 21.4239 29.0006 21.6732 29C22.5479 29 23.3206 28.4665 23.6972 27.4036C23.756 27.2467 28.2589 14.5459 28.357 14.24C28.4486 13.9471 28.5039 13.6442 28.5217 13.3378C28.5269 13.03 28.4709 12.7241 28.3572 12.438C28.2434 12.1518 28.074 11.8911 27.8588 11.6708C27.65 11.4562 27.3998 11.2861 27.1234 11.1708C26.847 11.0555 26.5501 10.9974 26.2506 11.0001C25.9451 11.0084 25.643 11.0667 25.3563 11.1727C25.1406 11.2433 13.5303 15.6834 12.5379 16.0639C12.096 16.2079 11.7102 16.4865 11.4344 16.8606C11.1587 17.2348 11.007 17.6859 11.0004 18.1506" fill="white"/>
<circle cx="20" cy="20" r="19.5" stroke="black" stroke-opacity="0.05"/>
</svg>
