<svg width="40" height="40" viewBox="0 0 40 40" fill="none" xmlns="http://www.w3.org/2000/svg">
<circle cx="20" cy="20" r="20" fill="#F6F8FA"/>
<g clip-path="url(#clip0_17713_27978)">
<path d="M29.8905 19.819C29.9347 18.2243 29.3809 16.6744 28.3657 15.4727C27.7856 15.7561 27.274 16.1576 26.8613 16.6454C27.2562 17.0977 27.5562 17.6218 27.7473 18.1854C28.5615 18.5704 29.2952 19.1242 29.8905 19.8184V19.819Z" fill="url(#paint0_linear_17713_27978)"/>
<path d="M27.8996 20.5239C27.8508 20.7678 27.7823 21.011 27.6907 21.251C27.4929 21.7725 27.2087 22.2366 26.8613 22.6328C27.274 23.1206 27.7856 23.5221 28.3657 23.8055C28.7125 23.3962 29.0124 22.9386 29.2537 22.437C28.9683 21.6657 28.4936 21.0163 27.8996 20.5232V20.5239Z" fill="url(#paint1_linear_17713_27978)"/>
<path d="M32.8984 18.767C32.9472 18.5185 33.0171 18.2712 33.11 18.0267C33.3098 17.5013 33.5965 17.0345 33.9473 16.6363C33.5333 16.1492 33.021 15.749 32.4396 15.4662C32.0869 15.8815 31.783 16.3469 31.5391 16.8578C31.8258 17.6272 32.3031 18.2759 32.8978 18.767H32.8984Z" fill="url(#paint2_linear_17713_27978)"/>
<path d="M30.9102 19.4775C30.8706 21.0683 31.4257 22.6122 32.4409 23.8107C33.0224 23.5279 33.5346 23.1277 33.9486 22.6406C33.5524 22.191 33.2511 21.6675 33.0593 21.1052C32.2432 20.7228 31.5081 20.1711 30.9102 19.4782V19.4775Z" fill="url(#paint3_linear_17713_27978)"/>
<path d="M29.8907 19.8191C29.8716 20.5218 29.7358 21.2325 29.4728 21.9273C29.4062 22.102 29.3337 22.2721 29.2539 22.4376C29.273 22.4897 29.2915 22.5424 29.3093 22.5951C29.4833 23.1252 29.5545 23.6644 29.5341 24.1912C30.1623 24.3105 30.8123 24.3006 31.4419 24.1562C31.4577 23.4436 31.3556 22.7158 31.1196 21.9999C30.8479 21.1738 30.4247 20.4408 29.8914 19.8198L29.8907 19.8191Z" fill="#00A0E3"/>
<path d="M27.747 18.1854C27.2552 17.9534 26.7337 17.782 26.1958 17.6798C25.9235 18.2652 25.7792 18.8987 25.7646 19.5382C26.5505 19.6747 27.2875 20.0162 27.8986 20.5238C28.0581 19.7274 27.9955 18.9231 27.7463 18.1854H27.747Z" fill="#00A0E3"/>
<path d="M29.8912 19.8191C29.2953 19.1243 28.5622 18.5705 27.748 18.1862C27.9972 18.9232 28.0599 19.7275 27.9003 20.5245C28.4943 21.0176 28.969 21.6669 29.2544 22.4383C29.3342 22.2728 29.4074 22.1027 29.4733 21.928C29.7363 21.2332 29.8721 20.5225 29.8912 19.8198V19.8191Z" fill="url(#paint4_linear_17713_27978)"/>
<path d="M35.035 19.7465C34.2492 19.6121 33.5115 19.2726 32.8991 18.7676C32.7428 19.5639 32.8068 20.3689 33.0593 21.1052C33.5484 21.3347 34.0653 21.5034 34.5999 21.6049C34.8735 21.0195 35.0198 20.386 35.035 19.7472V19.7465Z" fill="#00A0E3"/>
<path d="M31.5404 16.8578C31.5193 16.8017 31.4995 16.745 31.4804 16.6877C31.3044 16.1537 31.2345 15.6105 31.2562 15.0798C30.628 14.9618 29.978 14.973 29.3484 15.1193C29.3319 15.8346 29.4341 16.565 29.6701 17.283C29.9437 18.1156 30.3715 18.8526 30.9101 19.4776C30.9279 18.7689 31.0631 18.051 31.3287 17.3502C31.3927 17.1814 31.4639 17.0173 31.5397 16.8578H31.5404Z" fill="#00A0E3"/>
<path d="M32.8984 18.7669C32.3031 18.2752 31.8265 17.6271 31.5397 16.8578C31.4633 17.0173 31.3927 17.1815 31.3288 17.3502C31.0631 18.0504 30.9273 18.7689 30.9102 19.4776C31.5081 20.1705 32.2431 20.7222 33.0593 21.1046C32.8074 20.3676 32.7428 19.5633 32.8991 18.7669H32.8984Z" fill="url(#paint5_linear_17713_27978)"/>
<path d="M14.2467 20.8856H11.6401L11.3817 21.6853H13.7272C13.7272 21.6853 13.9698 21.6635 13.8788 21.9154L13.7114 22.4493H11.3039C11.3039 22.4493 10.6288 22.3973 10.3902 23.0545L10.2458 23.4995C9.83771 24.6532 10.9775 24.6367 10.9775 24.6367H13.2941C13.9896 24.6393 14.1445 23.9274 14.1445 23.9274L14.8664 21.6273C15.0826 20.8731 14.2467 20.885 14.2467 20.885V20.8856ZM13.3422 23.6261C13.275 23.8397 13.0647 23.8628 13.0647 23.8628H12.4331L11.2149 23.8641C11.2149 23.8641 10.9327 23.9109 11.1133 23.4428L11.147 23.3578C11.1997 23.2114 11.41 23.2259 11.41 23.2259H13.24H13.4688L13.3429 23.6261H13.3422ZM20.2471 20.8856L19.069 24.6407H19.9643L21.143 20.8856H20.2478H20.2471ZM24.869 20.8784L24.0839 23.3808L22.5782 21.0445C22.4819 20.9028 22.3184 20.8098 22.1338 20.8098C21.8919 20.8098 21.6869 20.9694 21.619 21.1882L20.5352 24.6413H21.4271L22.2228 22.1059L23.3383 23.7856L23.774 24.4699C23.9079 24.665 24.1577 24.7593 24.395 24.6855C24.577 24.6294 24.7088 24.4884 24.7728 24.282L25.8381 20.8784H24.8703H24.869ZM9.5694 20.8817L9.07497 22.4566H6.65952L7.14406 20.8817H6.21388L5.03516 24.6407H5.96468L6.41692 23.2253H8.83369L8.39002 24.6407H9.31955L10.4996 20.8823H9.57006L9.5694 20.8817ZM15.8302 23.2332H18.1389C18.1389 23.2332 18.8779 23.3017 19.1238 22.6221L19.4112 21.7644C19.4112 21.7644 19.6353 20.9206 18.5937 20.8856H16.2963C15.6001 20.883 15.461 21.5554 15.461 21.5554L14.7392 23.8562C14.5078 24.6499 15.343 24.638 15.343 24.638H17.9424L18.2008 23.8232H15.875C15.875 23.8232 15.6258 23.845 15.7168 23.5925L15.8302 23.2332ZM16.2495 21.8936C16.3174 21.6807 16.5105 21.6958 16.5105 21.6958H18.2964C18.6043 21.6958 18.4922 21.9345 18.4922 21.9345L18.3795 22.2938C18.3215 22.4704 18.1296 22.4573 18.1296 22.4573H16.0735L16.2488 21.8943L16.2495 21.8936Z" fill="#404041"/>
</g>
<circle cx="20" cy="20" r="19.5" stroke="black" stroke-opacity="0.05"/>
<defs>
<linearGradient id="paint0_linear_17713_27978" x1="28.7085" y1="19.7452" x2="27.6129" y2="13.5299" gradientUnits="userSpaceOnUse">
<stop stop-color="#C6C5C6"/>
<stop offset="0.11" stop-color="#B9B8B9"/>
<stop offset="0.5" stop-color="#929192"/>
<stop offset="0.81" stop-color="#7A7879"/>
<stop offset="1" stop-color="#727071"/>
</linearGradient>
<linearGradient id="paint1_linear_17713_27978" x1="27.6003" y1="19.9404" x2="26.5047" y2="13.7251" gradientUnits="userSpaceOnUse">
<stop stop-color="#C6C5C6"/>
<stop offset="0.11" stop-color="#B9B8B9"/>
<stop offset="0.5" stop-color="#929192"/>
<stop offset="0.81" stop-color="#7A7879"/>
<stop offset="1" stop-color="#727071"/>
</linearGradient>
<linearGradient id="paint2_linear_17713_27978" x1="33.205" y1="18.5996" x2="34.9308" y2="25.5196" gradientUnits="userSpaceOnUse">
<stop stop-color="#C6C5C6"/>
<stop offset="0.11" stop-color="#B9B8B9"/>
<stop offset="0.5" stop-color="#929192"/>
<stop offset="0.81" stop-color="#7A7879"/>
<stop offset="1" stop-color="#727071"/>
</linearGradient>
<linearGradient id="paint3_linear_17713_27978" x1="31.7857" y1="18.9534" x2="33.5109" y2="25.8735" gradientUnits="userSpaceOnUse">
<stop stop-color="#C6C5C6"/>
<stop offset="0.11" stop-color="#B9B8B9"/>
<stop offset="0.5" stop-color="#929192"/>
<stop offset="0.81" stop-color="#7A7879"/>
<stop offset="1" stop-color="#727071"/>
</linearGradient>
<linearGradient id="paint4_linear_17713_27978" x1="29.3217" y1="22.5866" x2="27.9432" y2="14.7693" gradientUnits="userSpaceOnUse">
<stop stop-color="#0092D0"/>
<stop offset="1" stop-color="#00689D"/>
</linearGradient>
<linearGradient id="paint5_linear_17713_27978" x1="31.1646" y1="16.1577" x2="33.4271" y2="25.2308" gradientUnits="userSpaceOnUse">
<stop stop-color="#0092D0"/>
<stop offset="1" stop-color="#00689D"/>
</linearGradient>
<clipPath id="clip0_17713_27978">
<rect width="30" height="9.71059" fill="white" transform="translate(5.03516 15)"/>
</clipPath>
</defs>
</svg>
