<svg width="40" height="40" viewBox="0 0 40 40" fill="none" xmlns="http://www.w3.org/2000/svg">
<circle cx="20" cy="20" r="20" fill="#1E1E23"/>
<path d="M15.9704 12.5114C15.9013 12.3355 15.8376 12.0827 15.5966 12.1686L9 28.2848C10.1489 28.2848 11.2588 28.2792 12.3685 28.2893C12.6036 28.2914 12.7208 28.2373 12.8105 27.9913C13.1622 27.0265 13.5544 26.0766 13.9214 25.1173C14.0071 24.8934 14.1547 24.8558 14.3705 24.8584C15.2304 24.8687 16.0906 24.8595 16.9507 24.8634C18.1289 24.8686 19.3071 24.8791 20.511 24.8638C20.6973 24.685 20.6371 24.5175 20.5716 24.3436L20.5578 24.3071C20.29 23.5961 20.0223 22.885 19.7263 22.1852C19.6478 21.9993 19.5894 21.706 19.3109 21.6551C19.0022 21.6551 18.7244 21.654 18.4455 21.6551C17.6398 21.6581 16.8339 21.6654 16.0283 21.6518C15.6643 21.6457 15.5964 21.5513 15.7263 21.2138C16.2942 19.7383 16.9049 18.2794 17.4496 16.7597C17.5052 16.561 17.4738 16.3979 17.4153 16.2398C16.9527 14.9897 16.458 13.7519 15.9704 12.5114Z" fill="#D9D9D9"/>
<path d="M18.6123 11.0393C19.6766 11.0126 20.7191 11.0213 21.7611 11.0002C22.0783 10.9938 22.2347 11.1129 22.3459 11.3979C23.1329 13.4156 23.9326 15.4284 24.7254 17.4439C25.6249 19.7306 26.5279 22.016 27.416 24.3072C27.7799 25.246 28.1911 26.1412 28.9339 26.8608C29.4653 27.3756 30.0655 27.7482 30.7535 27.9977C30.8518 28.0334 31.015 28.0397 30.9993 28.177C30.9828 28.3217 30.8235 28.2845 30.7217 28.2812C29.7236 28.2483 28.7218 28.3692 27.6918 28.2062C26.0595 28.2927 25.0281 27.4525 24.3153 26.1312C23.6792 24.9523 23.3028 23.6629 22.8144 22.422C21.908 20.119 21.0178 17.8094 20.1213 15.5024C19.6227 14.2192 19.1287 12.9343 18.6344 11.6495C18.5639 11.4662 18.4188 11.2719 18.6123 11.0393Z" fill="white"/>
<path d="M19.7265 13.9003C19.3561 12.941 18.9976 11.9771 18.595 11.0131C17.4255 11.0109 16.2946 11.0109 15.1416 11.0109L20.4997 24.9126C20.7728 25.6887 21.1082 26.3982 21.6496 26.9911C22.4902 27.9116 23.6038 28.2038 24.7826 28.2747C25.6388 28.3262 26.5006 28.2869 27.3599 28.2821C27.4603 28.2815 27.586 28.3368 27.624 28.1968C25.8276 27.933 24.7401 26.8865 24.1166 25.2622C22.6617 21.4717 21.1889 17.688 19.7265 13.9003Z" fill="#E51C2A"/>
<circle cx="20" cy="20" r="19.5" stroke="black" stroke-opacity="0.05"/>
</svg>
