<svg width="40" height="40" viewBox="0 0 40 40" fill="none" xmlns="http://www.w3.org/2000/svg">
<circle cx="20" cy="20" r="20" fill="#F6F8FA"/>
<g clip-path="url(#clip0_18011_45681)">
<path d="M27.1569 9.44592C27.5003 9.44592 27.7787 9.16754 27.7787 8.82415C27.7787 8.48076 27.5003 8.20239 27.1569 8.20239C26.8135 8.20239 26.5352 8.48076 26.5352 8.82415C26.5352 9.16754 26.8135 9.44592 27.1569 9.44592Z" fill="#0F3170"/>
<path d="M26.1039 10.5723C26.3512 10.5723 26.5516 10.3719 26.5516 10.1247C26.5516 9.87743 26.3512 9.677 26.1039 9.677C25.8567 9.677 25.6562 9.87743 25.6562 10.1247C25.6562 10.3719 25.8567 10.5723 26.1039 10.5723Z" fill="#0F3170"/>
<path d="M25.9765 12.0676C26.2289 12.0676 26.4335 11.863 26.4335 11.6106C26.4335 11.3582 26.2289 11.1536 25.9765 11.1536C25.7241 11.1536 25.5195 11.3582 25.5195 11.6106C25.5195 11.863 25.7241 12.0676 25.9765 12.0676Z" fill="#0F3170"/>
<path d="M27.3051 13.6407C27.7584 13.6407 28.1258 13.2733 28.1258 12.82C28.1258 12.3667 27.7584 11.9993 27.3051 11.9993C26.8518 11.9993 26.4844 12.3667 26.4844 12.82C26.4844 13.2733 26.8518 13.6407 27.3051 13.6407Z" fill="#DE0061"/>
<path d="M21.2812 13.423C21.5336 13.423 21.7382 13.2184 21.7382 12.966C21.7382 12.7136 21.5336 12.509 21.2812 12.509C21.0288 12.509 20.8242 12.7136 20.8242 12.966C20.8242 13.2184 21.0288 13.423 21.2812 13.423Z" fill="#0F3170"/>
<path d="M19.6507 13.8612C19.9907 13.8612 20.2662 13.5856 20.2662 13.2457C20.2662 12.9057 19.9907 12.6301 19.6507 12.6301C19.3107 12.6301 19.0352 12.9057 19.0352 13.2457C19.0352 13.5856 19.3107 13.8612 19.6507 13.8612Z" fill="#0F3170"/>
<path d="M30.7176 14.2256C31.1658 14.2256 31.529 13.8623 31.529 13.4142C31.529 12.9661 31.1658 12.6028 30.7176 12.6028C30.2695 12.6028 29.9062 12.9661 29.9062 13.4142C29.9062 13.8623 30.2695 14.2256 30.7176 14.2256Z" fill="#0F3170"/>
<path d="M22.6085 14.0483C22.8626 14.0483 23.0686 13.8423 23.0686 13.5882C23.0686 13.334 22.8626 13.1281 22.6085 13.1281C22.3544 13.1281 22.1484 13.334 22.1484 13.5882C22.1484 13.8423 22.3544 14.0483 22.6085 14.0483Z" fill="#0F3170"/>
<path d="M25.1332 14.9082C25.5865 14.9082 25.954 14.5407 25.954 14.0874C25.954 13.6342 25.5865 13.2667 25.1332 13.2667C24.68 13.2667 24.3125 13.6342 24.3125 14.0874C24.3125 14.5407 24.68 14.9082 25.1332 14.9082Z" fill="#DE0061"/>
<path d="M28.5588 15.6892C29.1134 15.6892 29.563 15.2396 29.563 14.6851C29.563 14.1305 29.1134 13.6809 28.5588 13.6809C28.0043 13.6809 27.5547 14.1305 27.5547 14.6851C27.5547 15.2396 28.0043 15.6892 28.5588 15.6892Z" fill="#DE0061"/>
<path d="M22.9621 16.1892C23.4137 16.1892 23.7798 15.8231 23.7798 15.3716C23.7798 14.92 23.4137 14.554 22.9621 14.554C22.5106 14.554 22.1445 14.92 22.1445 15.3716C22.1445 15.8231 22.5106 16.1892 22.9621 16.1892Z" fill="#DE0061"/>
<path d="M32.0567 16.5853C32.5065 16.5853 32.8712 16.2206 32.8712 15.7708C32.8712 15.321 32.5065 14.9563 32.0567 14.9563C31.6069 14.9563 31.2422 15.321 31.2422 15.7708C31.2422 16.2206 31.6069 16.5853 32.0567 16.5853Z" fill="#DE0061"/>
<path d="M26.2463 17.0504C26.8009 17.0504 27.2505 16.6008 27.2505 16.0463C27.2505 15.4917 26.8009 15.0421 26.2463 15.0421C25.6918 15.0421 25.2422 15.4917 25.2422 16.0463C25.2422 16.6008 25.6918 17.0504 26.2463 17.0504Z" fill="#0F3170"/>
<path d="M29.9651 18.0074C30.5197 18.0074 30.9692 17.5579 30.9692 17.0033C30.9692 16.4487 30.5197 15.9991 29.9651 15.9991C29.4105 15.9991 28.9609 16.4487 28.9609 17.0033C28.9609 17.5579 29.4105 18.0074 29.9651 18.0074Z" fill="#0F3170"/>
<path d="M23.9307 18.4133C24.4836 18.4133 24.9318 17.9651 24.9318 17.4123C24.9318 16.8594 24.4836 16.4113 23.9307 16.4113C23.3779 16.4113 22.9297 16.8594 22.9297 17.4123C22.9297 17.9651 23.3779 18.4133 23.9307 18.4133Z" fill="#DE0061"/>
<path d="M27.5727 19.5997C28.232 19.5997 28.7665 19.0652 28.7665 18.4059C28.7665 17.7466 28.232 17.2122 27.5727 17.2122C26.9134 17.2122 26.3789 17.7466 26.3789 18.4059C26.3789 19.0652 26.9134 19.5997 27.5727 19.5997Z" fill="#DE0061"/>
<path d="M33.3661 18.8934C33.8142 18.8934 34.1775 18.5302 34.1775 18.082C34.1775 17.6339 33.8142 17.2706 33.3661 17.2706C32.918 17.2706 32.5547 17.6339 32.5547 18.082C32.5547 18.5302 32.918 18.8934 33.3661 18.8934Z" fill="#DE0061"/>
<path d="M21.7676 19.4856C22.2175 19.4856 22.5821 19.1209 22.5821 18.6711C22.5821 18.2212 22.2175 17.8566 21.7676 17.8566C21.3178 17.8566 20.9531 18.2212 20.9531 18.6711C20.9531 19.1209 21.3178 19.4856 21.7676 19.4856Z" fill="#0F3170"/>
<path d="M27.834 24.8119C28.2839 24.8119 28.6485 24.4472 28.6485 23.9974C28.6485 23.5475 28.2839 23.1829 27.834 23.1829C27.3842 23.1829 27.0195 23.5475 27.0195 23.9974C27.0195 24.4472 27.3842 24.8119 27.834 24.8119Z" fill="#0F3170"/>
<path d="M31.2034 20.3689C31.7579 20.3689 32.2075 19.9193 32.2075 19.3647C32.2075 18.8102 31.7579 18.3606 31.2034 18.3606C30.6488 18.3606 30.1992 18.8102 30.1992 19.3647C30.1992 19.9193 30.6488 20.3689 31.2034 20.3689Z" fill="#0F3170"/>
<path d="M7.47656 27.6169L7.49832 21.9837L7.52009 19.2479C7.52088 19.1985 7.53673 19.1504 7.56557 19.11C7.59441 19.0695 7.6349 19.0385 7.68174 19.021C9.6434 18.2904 12.5874 18.2065 14.0361 19.9878C15.2797 21.5174 15.2548 24.3495 14.4683 25.9785C13.9232 27.1018 12.9999 27.7723 11.6983 27.9899C10.3678 28.2117 8.9605 28.0873 7.47656 27.6169ZM9.87345 20.2832L9.88589 26.2956C9.88589 26.3657 9.91373 26.4329 9.96328 26.4825C10.0128 26.532 10.0801 26.5599 10.1501 26.5599L10.6755 26.5568C10.9246 26.5564 11.1712 26.4974 11.4012 26.383C11.6311 26.2687 11.84 26.1012 12.0158 25.8901C12.1916 25.6791 12.3309 25.4287 12.4258 25.1531C12.5207 24.8776 12.5693 24.5823 12.5688 24.2842L12.5626 22.2821C12.5616 21.6804 12.3609 21.1036 12.0047 20.6786C11.6485 20.2536 11.1659 20.0152 10.6631 20.0158L10.1377 20.0189C10.0676 20.0189 10.0004 20.0468 9.95085 20.0963C9.90129 20.1459 9.87345 20.2131 9.87345 20.2832Z" fill="#0F3170"/>
<path d="M18.9231 18.6808H16.7097C16.6564 18.6808 16.6133 18.7239 16.6133 18.7772V27.8611C16.6133 27.9143 16.6564 27.9575 16.7097 27.9575H18.9231C18.9764 27.9575 19.0195 27.9143 19.0195 27.8611V18.7772C19.0195 18.7239 18.9764 18.6808 18.9231 18.6808Z" fill="#0F3170"/>
<path d="M25.1838 20.8219C25.7384 20.8219 26.188 20.3723 26.188 19.8177C26.188 19.2632 25.7384 18.8136 25.1838 18.8136C24.6293 18.8136 24.1797 19.2632 24.1797 19.8177C24.1797 20.3723 24.6293 20.8219 25.1838 20.8219Z" fill="#0F3170"/>
<path d="M28.8956 21.718C29.4484 21.718 29.8966 21.2698 29.8966 20.717C29.8966 20.1641 29.4484 19.7159 28.8956 19.7159C28.3427 19.7159 27.8945 20.1641 27.8945 20.717C27.8945 21.2698 28.3427 21.718 28.8956 21.718Z" fill="#DE0061"/>
<path d="M23.1036 21.8547C23.5534 21.8547 23.9181 21.4901 23.9181 21.0402C23.9181 20.5904 23.5534 20.2257 23.1036 20.2257C22.6537 20.2257 22.2891 20.5904 22.2891 21.0402C22.2891 21.4901 22.6537 21.8547 23.1036 21.8547Z" fill="#DE0061"/>
<path d="M24.4278 24.14C24.8776 24.14 25.2423 23.7753 25.2423 23.3255C25.2423 22.8757 24.8776 22.511 24.4278 22.511C23.9779 22.511 23.6133 22.8757 23.6133 23.3255C23.6133 23.7753 23.9779 24.14 24.4278 24.14Z" fill="#DE0061"/>
<path d="M30.0411 23.5598C30.4909 23.5598 30.8556 23.1951 30.8556 22.7453C30.8556 22.2955 30.4909 21.9308 30.0411 21.9308C29.5912 21.9308 29.2266 22.2955 29.2266 22.7453C29.2266 23.1951 29.5912 23.5598 30.0411 23.5598Z" fill="#DE0061"/>
<path d="M32.5176 22.2786C32.9675 22.2786 33.3321 21.9139 33.3321 21.464C33.3321 21.0142 32.9675 20.6495 32.5176 20.6495C32.0678 20.6495 31.7031 21.0142 31.7031 21.464C31.7031 21.9139 32.0678 22.2786 32.5176 22.2786Z" fill="#DE0061"/>
<path d="M26.5753 23.0852C27.1281 23.0852 27.5763 22.637 27.5763 22.0842C27.5763 21.5313 27.1281 21.0831 26.5753 21.0831C26.0224 21.0831 25.5742 21.5313 25.5742 22.0842C25.5742 22.637 26.0224 23.0852 26.5753 23.0852Z" fill="#DE0061"/>
</g>
<circle cx="20" cy="20" r="19.5" stroke="black" stroke-opacity="0.05"/>
<defs>
<clipPath id="clip0_18011_45681">
<rect width="28" height="20.5333" fill="white" transform="translate(7 7.7334)"/>
</clipPath>
</defs>
</svg>
