<svg width="40" height="40" viewBox="0 0 40 40" fill="none" xmlns="http://www.w3.org/2000/svg">
<circle cx="20" cy="20" r="20" fill="#002C61"/>
<path d="M18.1719 21.2219C17.1936 20.2108 15.8248 19.1343 13.7033 19.1343C12.8891 19.1385 11.9053 19.4691 11.9053 19.4691L11.9091 28.3059L14.8351 28.3065V22.1369C15.5181 22.2644 16.0758 22.8732 16.7193 23.5747L19.6274 26.7177C21.1367 28.2665 22.6579 28.959 24.4157 28.8983C25.5193 28.8601 26.4965 28.5707 27.3041 27.9762C28.2646 27.269 28.8409 26.2067 28.9715 24.904C29.1847 22.7734 28.1851 21.1933 26.0138 19.8298L23.9267 18.5367C22.6839 17.774 22.0674 17.2836 22.1549 16.3932C22.2725 15.204 23.425 14.9028 24.3034 14.8596C25.5022 14.8778 26.3537 15.2997 27.3923 16.0304L28.8138 14.0743C26.8304 12.4925 25.2303 12.2671 24.2439 12.2869C21.2456 12.3494 19.2998 13.817 19.166 16.1174C19.0798 17.6055 19.9034 19.2388 21.5626 20.2644L24.2503 22.0057C25.3168 22.6908 26.0222 23.32 26.0222 24.4018C26.0222 25.2202 25.5501 26.1485 24.2211 26.1756C22.7357 26.2059 21.7088 24.8903 20.5099 23.6454L18.1719 21.2219Z" fill="#E60044"/>
<path d="M15.9249 14.6539C15.9249 13.3461 14.8702 12.2858 13.5693 12.2858C12.2684 12.2858 11.2139 13.3461 11.2139 14.6539C11.2139 15.9618 12.2684 17.0221 13.5693 17.0221C14.8702 17.0221 15.9249 15.9618 15.9249 14.6539Z" fill="#E60044"/>
<circle cx="20" cy="20" r="19.5" stroke="black" stroke-opacity="0.05"/>
</svg>
