<svg width="40" height="40" viewBox="0 0 40 40" fill="none" xmlns="http://www.w3.org/2000/svg">
<circle cx="20" cy="20" r="20" fill="#009542"/>
<path d="M21.5036 17.8779C21.739 17.8774 21.9628 17.8769 22.1866 17.876C22.1934 17.8759 22.2002 17.8707 22.2195 17.8626C22.2195 16.9298 22.2195 15.9918 22.2195 15.0537C22.2195 14.1189 22.2195 13.184 22.2195 12.246C22.2367 12.2471 22.2496 12.2441 22.2579 12.2489C22.8311 12.5827 23.4033 12.918 23.9768 13.2512C25.1174 13.9137 26.2594 14.5736 27.3994 15.2371C29.856 16.6671 32.3116 18.0988 34.7678 19.5295C34.8476 19.576 34.924 19.6258 34.9878 19.7091C34.7877 19.841 34.5983 19.9827 34.3938 20.0972C33.8003 20.4294 33.2389 20.8108 32.6752 21.1893C32.4607 21.3334 32.2435 21.4748 32.0188 21.6017C31.3529 21.9776 30.7207 22.4066 30.0765 22.8168C29.084 23.4489 28.0847 24.07 27.0887 24.6965C25.5572 25.66 24.0276 26.6263 22.494 27.5864C22.0822 27.8442 21.6571 28.0808 21.2419 28.3332C20.9948 28.4834 20.7513 28.6401 20.5134 28.8045C20.3647 28.9071 20.2301 28.9176 20.0758 28.8196C19.8252 28.6604 19.5679 28.5116 19.3145 28.3567C19.2688 28.3287 19.2265 28.2943 19.1854 28.2597C19.1355 28.2177 19.1152 28.1639 19.1152 28.0963C19.1154 27.4624 19.1129 26.8285 19.1115 26.1946C19.1114 26.173 19.1144 26.1513 19.1163 26.1249C19.1348 26.1293 19.1465 26.1294 19.155 26.1346C19.3987 26.2829 19.6421 26.4318 19.8856 26.5806C19.9579 26.6247 20.0282 26.6729 20.1033 26.7117C20.2369 26.781 20.3714 26.7763 20.4991 26.6949C20.5639 26.6535 20.6246 26.6055 20.6871 26.5605C20.7841 26.4907 20.8762 26.4124 20.9788 26.3523C22.2209 25.6243 23.4167 24.8233 24.6266 24.0443C25.6613 23.3782 26.7126 22.7378 27.7497 22.0753C28.9137 21.3317 30.07 20.5761 31.2296 19.8256C31.2554 19.8089 31.2805 19.791 31.3144 19.7679C31.2863 19.7476 31.264 19.7289 31.2392 19.7141C30.3078 19.16 29.3767 18.6051 28.4442 18.0526C27.7142 17.6201 26.9829 17.1899 26.2509 16.7607C26.1621 16.7086 26.0659 16.6689 25.9553 16.6147C25.9489 16.6973 25.9394 16.764 25.9393 16.8306C25.9368 17.9864 25.9343 19.1421 25.9344 20.2979C25.9344 20.8041 25.9358 21.3105 25.9452 21.8166C25.9492 22.0289 25.8659 22.1757 25.6867 22.2848C25.4725 22.415 25.267 22.5593 25.0557 22.6943C24.6786 22.9351 24.3051 23.1821 23.9207 23.4108C23.4259 23.7052 22.9583 24.0395 22.4819 24.3611C22.4135 24.4072 22.3351 24.4386 22.2451 24.4853C22.2451 23.4581 22.2451 22.4549 22.2451 21.4435C20.8763 21.4435 19.516 21.4435 18.1455 21.4435C18.1455 23.5049 18.1455 25.5668 18.1455 27.6519C18.0933 27.6237 18.0572 27.606 18.0229 27.5853C17.1872 27.0814 16.3536 26.5739 15.5156 26.0739C14.6743 25.572 13.8277 25.0789 12.985 24.5794C11.5783 23.7455 10.1717 22.9112 8.76698 22.0738C7.62725 21.3943 6.48993 20.7108 5.35289 20.0269C5.23173 19.954 5.11964 19.866 4.98779 19.7742C5.12835 19.6782 5.24618 19.5836 5.37623 19.511C9.55498 17.1783 13.7165 14.8148 17.8908 12.4742C18.6073 12.0724 19.3184 11.661 20.0312 11.2527C20.1073 11.209 20.1781 11.1558 20.262 11.1C20.2801 11.1097 20.3106 11.1247 20.3398 11.1418C20.5665 11.2737 20.79 11.4115 21.0206 11.536C21.1597 11.6111 21.2191 11.7127 21.2162 11.8709C21.208 12.3269 21.2086 12.783 21.2067 13.239C21.2061 13.3859 21.2088 13.5327 21.2092 13.6796C21.2093 13.7087 21.206 13.7379 21.2029 13.7881C20.9565 13.6453 20.7239 13.5109 20.4917 13.3757C20.4618 13.3583 20.4341 13.3369 20.4049 13.3182C20.3002 13.2512 20.1971 13.2541 20.089 13.3155C19.6568 13.5614 19.2222 13.8032 18.7901 14.0493C17.272 14.9139 15.7195 15.7149 14.1877 16.5543C13.9241 16.6987 13.6696 16.8598 13.4075 17.0071C13.1017 17.1788 12.7907 17.3412 12.4845 17.5122C11.9391 17.8168 11.398 18.1291 10.8507 18.4302C10.3879 18.6847 9.91758 18.9252 9.45329 19.1769C9.14842 19.3422 8.84835 19.5164 8.52336 19.6994C10.4687 20.879 12.3955 22.0451 14.3406 23.2229C14.3406 23.1747 14.3406 23.1457 14.3406 23.1166C14.3416 22.0575 14.3448 20.9983 14.3429 19.9392C14.3417 19.3248 14.3322 18.7104 14.3266 18.096C14.3261 18.0457 14.3271 17.9955 14.3263 17.9452C14.3217 17.6808 14.4326 17.4848 14.6675 17.3597C14.824 17.2764 14.9789 17.1898 15.1346 17.1048C16.0486 16.6058 16.9583 16.0993 17.8421 15.5474C17.8877 15.5189 17.9358 15.4937 17.9846 15.4709C18.0257 15.4516 18.0694 15.4381 18.1258 15.4168C18.1258 16.2407 18.1258 17.0536 18.1258 17.8779C19.2556 17.8779 20.3738 17.8779 21.5036 17.8779Z" fill="#FEFEFE"/>
<circle cx="20" cy="20" r="19.5" stroke="black" stroke-opacity="0.05"/>
</svg>
