<svg width="40" height="40" viewBox="0 0 40 40" fill="none" xmlns="http://www.w3.org/2000/svg">
<circle cx="20" cy="20" r="20" fill="#F6F8FA"/>
<path d="M23.3163 11.1291C23.3165 11.1012 23.3101 11.0737 23.2977 11.0487C23.2853 11.0237 23.2671 11.002 23.2447 10.9854C23.2223 10.9688 23.1963 10.9576 23.1688 10.9529C23.1413 10.9483 23.1131 10.9501 23.0864 10.9584C22.6268 11.097 22.1839 11.2677 21.7578 11.4706C20.1702 12.2235 18.5716 12.9648 16.9621 13.6944C16.8753 13.7336 16.8017 13.797 16.75 13.877C16.6984 13.957 16.6709 14.0501 16.6709 14.1453L16.6622 29.7452C16.662 29.7637 16.6577 29.7818 16.6496 29.7984C16.6414 29.8149 16.6297 29.8294 16.6152 29.8407C16.6006 29.8521 16.5838 29.86 16.5657 29.864C16.5477 29.8679 16.5291 29.8677 16.5112 29.8634C15.8822 29.7073 15.2511 29.5315 14.6178 29.3359C12.6938 28.7384 11.3039 27.0114 10.7042 25.1443C10.1278 23.3509 9.90523 21.4298 10.0366 19.3811C10.2554 15.9599 10.9799 12.565 14.2413 11.1466C17.7085 9.6407 22.0183 9.88804 25.6386 11.1247C27.6808 11.823 29.0182 14.0534 29.4998 16.0496C30.2658 19.2191 30.152 22.3309 29.1583 25.3851C28.7468 26.6502 27.9428 27.7483 26.7462 28.6793C25.9122 29.3272 24.5245 29.5876 23.4826 29.8853C23.3805 29.9145 23.3287 29.8758 23.3272 29.7693C23.2674 23.1079 23.2637 16.8945 23.3163 11.1291Z" fill="#FF0000"/>
<circle cx="20" cy="20" r="19.5" stroke="black" stroke-opacity="0.05"/>
</svg>
