<svg width="40" height="40" viewBox="0 0 40 40" fill="none" xmlns="http://www.w3.org/2000/svg">
<circle cx="20" cy="20" r="20" fill="#E31D1A"/>
<path d="M6 19.492C6 23.5937 10.3583 26.0759 13.7192 27.1038C12.1894 27.8911 11.4182 29.1787 11.5384 30.8575C11.5545 30.9938 11.6908 31.0179 11.7661 30.9024C12.0923 30.4765 12.5255 30.1445 13.0216 29.9403C14.3397 29.3663 16.389 29.0632 18.714 28.7153C21.937 28.2342 25.609 27.6714 28.6123 26.2635C31.3062 24.992 34 22.5852 34 19.4985C34 14.207 26.8565 11 20 11C13.1435 11 6 14.1877 6 19.492Z" fill="white"/>
<path d="M7.42554 19.4919C7.42554 22.4744 10.9676 25.335 16.0972 26.2891C20.1844 25.2901 26.4653 25.0624 29.9769 23.2312C31.4954 22.4359 32.581 21.2557 32.581 19.4919C32.581 15.573 26.7539 12.3484 20.0033 12.3484C13.2526 12.3484 7.42554 15.565 7.42554 19.4919Z" fill="#E31D1A"/>
<path d="M6.27429 19.4923C6.27429 22.7778 9.48125 25.6079 14.1153 26.9404C14.5604 26.7423 15.0211 26.5815 15.4927 26.4594C10.4979 25.3418 7.12253 22.4972 7.12253 19.4923C7.12253 15.6439 12.6321 12.0762 20.0033 12.0762C27.3745 12.0762 32.8841 15.6439 32.8841 19.4923C32.8841 26.1676 19.0797 24.9569 14.1233 27.2114C12.2777 28.0452 11.7774 29.4563 11.7774 30.4665C13.6102 28.2216 22.5095 28.8165 28.5034 26.0168C31.1523 24.7597 33.7243 22.4298 33.7243 19.4923C33.7243 14.9528 27.5798 11.2744 19.9969 11.2744C12.414 11.2744 6.27429 14.9448 6.27429 19.4923Z" fill="#FFB718"/>
<path d="M16.4003 16.5465H14.8866C14.7503 16.5465 14.7054 16.4839 14.7054 16.3669V15.5731C14.7054 15.3936 14.5884 15.2043 14.2741 15.2043H13.9534C13.6471 15.2043 13.5301 15.3936 13.5301 15.5731V16.3669C13.5301 16.4839 13.4852 16.5465 13.3505 16.5465H11.8368C11.7869 16.5433 11.737 16.5511 11.6905 16.5694C11.644 16.5877 11.602 16.6159 11.5676 16.6522C11.5332 16.6884 11.5072 16.7318 11.4914 16.7792C11.4755 16.8265 11.4703 16.8768 11.476 16.9265V17.1782C11.4703 17.2278 11.4755 17.278 11.4913 17.3254C11.5072 17.3727 11.5332 17.416 11.5677 17.4521C11.6021 17.4882 11.6441 17.5163 11.6906 17.5344C11.7371 17.5524 11.787 17.56 11.8368 17.5567H12.6129C12.3814 17.7431 12.1941 17.9786 12.0646 18.2462C11.9352 18.5138 11.8666 18.8068 11.8641 19.104C11.8641 20.2393 12.8727 21.1757 14.117 21.1757C15.3613 21.1757 16.3779 20.2136 16.3779 19.0912C16.3765 18.7978 16.3097 18.5084 16.1824 18.244C16.0551 17.9797 15.8704 17.7471 15.6419 17.5631H16.4051C16.4549 17.5665 16.5049 17.5589 16.5514 17.5408C16.5979 17.5227 16.6399 17.4946 16.6743 17.4585C16.7087 17.4224 16.7348 17.3791 16.7506 17.3318C16.7665 17.2845 16.7717 17.2342 16.7659 17.1846V16.9265C16.7716 16.8768 16.7664 16.8265 16.7506 16.7792C16.7348 16.7318 16.7087 16.6884 16.6743 16.6522C16.6399 16.6159 16.598 16.5877 16.5515 16.5694C16.505 16.5511 16.455 16.5433 16.4051 16.5465M14.1122 20.1655C13.9685 20.1711 13.8253 20.1476 13.691 20.0965C13.5566 20.0454 13.434 19.9677 13.3304 19.868C13.2268 19.7684 13.1444 19.6489 13.0882 19.5166C13.0319 19.3844 13.0029 19.2421 13.0029 19.0984C13.0029 18.9547 13.0319 18.8124 13.0882 18.6802C13.1444 18.5479 13.2268 18.4284 13.3304 18.3288C13.434 18.2291 13.5566 18.1514 13.691 18.1003C13.8253 18.0492 13.9685 18.0257 14.1122 18.0313C14.2534 18.0283 14.3938 18.0536 14.5252 18.1057C14.6565 18.1579 14.776 18.2358 14.8768 18.3349C14.9775 18.434 15.0574 18.5522 15.1117 18.6827C15.166 18.8131 15.1936 18.9531 15.1929 19.0944C15.1887 19.3788 15.0732 19.6503 14.8712 19.8505C14.6691 20.0508 14.3966 20.1639 14.1122 20.1655Z" fill="white"/>
<path d="M19.644 18.0492H18.6338C18.5167 18.0492 18.4542 18.0043 18.4542 17.868V15.7899C18.4542 15.6103 18.3371 15.4211 18.0212 15.4211H17.7005C17.6479 15.4137 17.5943 15.4177 17.5434 15.4329C17.4925 15.4481 17.4454 15.4741 17.4054 15.5091C17.3654 15.544 17.3334 15.5872 17.3115 15.6357C17.2897 15.6841 17.2785 15.7367 17.2788 15.7899V23.0055C17.2783 23.0588 17.2893 23.1116 17.311 23.1602C17.3328 23.2088 17.3647 23.2522 17.4048 23.2874C17.4448 23.3226 17.492 23.3487 17.543 23.3639C17.594 23.3792 17.6478 23.3833 17.7005 23.3759H18.0212C18.3419 23.3759 18.4542 23.1867 18.4542 23.0055V19.2694C18.4542 19.1347 18.5167 19.0882 18.6338 19.0882H19.644C19.6946 19.0893 19.7449 19.0794 19.7915 19.0594C19.838 19.0393 19.8797 19.0095 19.9137 18.972C19.9478 18.9344 19.9734 18.89 19.9888 18.8418C20.0042 18.7935 20.0091 18.7425 20.0031 18.6922V18.4404C20.0091 18.3901 20.0042 18.3391 19.9888 18.2908C19.9734 18.2425 19.9478 18.1981 19.9137 18.1606C19.8797 18.1231 19.838 18.0932 19.7915 18.0732C19.7449 18.0531 19.6946 18.0433 19.644 18.0444" fill="white"/>
<path d="M26.7795 20.4367H21.9434C21.8944 20.4298 21.8444 20.4344 21.7974 20.4501C21.7504 20.4657 21.7077 20.4921 21.6726 20.527C21.6374 20.562 21.6109 20.6046 21.595 20.6515C21.5792 20.6984 21.5744 20.7484 21.581 20.7975V22.5389C21.581 23.129 22.0477 23.4721 22.7131 23.4721H26.0067C26.6737 23.4721 27.1387 23.129 27.1387 22.5389V20.7975C27.1453 20.7487 27.1405 20.6991 27.1248 20.6524C27.1091 20.6058 27.0829 20.5634 27.0482 20.5285C27.0134 20.4936 26.9711 20.4672 26.9246 20.4513C26.878 20.4353 26.8283 20.4304 26.7795 20.4367ZM25.9586 22.2871C25.9586 22.4218 25.896 22.4667 25.779 22.4667H22.9424C22.8253 22.4667 22.7628 22.4218 22.7628 22.2871V21.6265C22.7628 21.4902 22.8253 21.4469 22.9424 21.4469H25.779C25.896 21.4469 25.9586 21.4902 25.9586 21.6265V22.2871Z" fill="white"/>
<path d="M26.7073 15.3567H26.3866C26.0804 15.3567 25.9633 15.5459 25.9633 15.7255V18.631C25.5672 18.8138 25.1856 18.8972 24.1385 18.8972H21.7333C21.6163 18.8972 21.5537 18.8523 21.5537 18.716V18.3953C21.5537 18.259 21.6163 18.2141 21.7333 18.2141H24.2796C24.3286 18.2207 24.3784 18.2159 24.4252 18.2001C24.472 18.1844 24.5145 18.158 24.5494 18.1231C24.5843 18.0881 24.6107 18.0456 24.6265 17.9988C24.6423 17.9521 24.6471 17.9022 24.6404 17.8533V15.9981C24.646 15.9496 24.6404 15.9006 24.6241 15.8546C24.6079 15.8086 24.5813 15.767 24.5465 15.7328C24.5118 15.6987 24.4696 15.6729 24.4234 15.6574C24.3771 15.642 24.328 15.6373 24.2796 15.6437H20.7151C20.6653 15.6403 20.6154 15.6479 20.5689 15.666C20.5224 15.6841 20.4804 15.7122 20.4459 15.7483C20.4115 15.7844 20.3855 15.8277 20.3696 15.875C20.3538 15.9223 20.3486 15.9726 20.3543 16.0221V16.2466C20.3486 16.2963 20.3538 16.3466 20.3697 16.394C20.3855 16.4413 20.4115 16.4847 20.4459 16.5209C20.4803 16.5572 20.5223 16.5854 20.5688 16.6037C20.6153 16.622 20.6652 16.6298 20.7151 16.6266H23.2919C23.409 16.6266 23.4715 16.6699 23.4715 16.8062V17.066C23.4715 17.2007 23.409 17.2456 23.2919 17.2456H20.7424C20.6934 17.239 20.6436 17.2437 20.5968 17.2595C20.5501 17.2753 20.5075 17.3017 20.4726 17.3366C20.4377 17.3715 20.4113 17.4141 20.3955 17.4608C20.3797 17.5076 20.375 17.5574 20.3816 17.6064V18.9309C20.3816 19.5209 20.7536 19.8929 21.5345 19.8929H24.1193C25.184 19.8929 25.5945 19.7679 25.9521 19.5722V19.7615C25.9521 19.9426 26.0691 20.1303 26.3754 20.1303H26.6961C27.0168 20.1303 27.1274 19.9426 27.1274 19.7615V15.7255C27.1274 15.5459 27.0104 15.3567 26.6961 15.3567" fill="white"/>
<circle cx="20" cy="20" r="19.5" stroke="black" stroke-opacity="0.05"/>
</svg>
