<svg width="40" height="40" viewBox="0 0 40 40" fill="none" xmlns="http://www.w3.org/2000/svg">
<circle cx="20" cy="20" r="20" fill="#F6F8FA"/>
<path d="M20.415 8.00064L20.4259 8.3217C20.4273 8.39162 20.4628 8.43585 20.5324 8.4544C20.557 8.46011 20.5809 8.4594 20.6041 8.45226C20.7476 8.40803 20.7816 8.45012 20.7063 8.57855C20.6295 8.71125 20.5135 8.82042 20.3585 8.90603C20.3416 8.91527 20.3221 8.91882 20.3032 8.9161C20.2843 8.91339 20.267 8.90457 20.2541 8.89105C20.2338 8.86822 20.2251 8.84182 20.228 8.81185C20.2297 8.79659 20.2265 8.78119 20.219 8.76774C20.2115 8.75429 20.1999 8.74345 20.1859 8.73668C20.1719 8.7299 20.1562 8.72753 20.1408 8.72987C20.1254 8.73222 20.111 8.73917 20.0998 8.74978C20.0577 8.78831 20.0338 8.83683 20.028 8.89533C20.0237 8.92672 20.0266 8.9574 20.0367 8.98737C20.0918 9.16859 20.0411 9.29487 19.8846 9.36622C19.8078 9.40047 19.8005 9.4447 19.8628 9.49893C19.9092 9.54031 19.9505 9.58597 19.9867 9.63591C20.0433 9.7144 20.0222 9.75649 19.9237 9.7622C19.8396 9.76648 19.7838 9.72724 19.7563 9.64448C19.7526 9.6339 19.7462 9.62442 19.7378 9.61692C19.7293 9.60942 19.7191 9.60414 19.7081 9.60158C19.697 9.59902 19.6854 9.59925 19.6745 9.60226C19.6636 9.60527 19.6536 9.61096 19.6454 9.61879L18.9933 10.2823C18.9815 10.2943 18.9748 10.3102 18.9744 10.3269C18.974 10.3435 18.9799 10.3597 18.9911 10.3722C19.0215 10.405 19.0578 10.4286 19.0998 10.4429C19.1839 10.4714 19.1969 10.5185 19.1389 10.5841C19.1128 10.6155 19.0788 10.6298 19.0368 10.6269C19.0063 10.6255 18.981 10.6127 18.9607 10.5884C18.8824 10.4928 18.7839 10.4871 18.665 10.5713C18.4853 10.6983 18.4919 10.8039 18.6846 10.8881C18.7121 10.9009 18.7114 10.933 18.6824 10.9844C18.6462 11.0472 18.5947 11.0621 18.5281 11.0293C18.5092 11.0193 18.4933 11.0051 18.4803 10.9865C18.4281 10.9052 18.3672 10.898 18.2977 10.9651L17.789 11.4638C17.7672 11.4852 17.7455 11.4852 17.7238 11.4638L17.6825 11.421C17.6564 11.3968 17.6564 11.3718 17.6825 11.3461C17.7911 11.2391 17.9035 11.1078 18.0194 10.9523C18.1093 10.831 18.0926 10.8146 17.9694 10.903C17.8361 11.0001 17.6991 11.1092 17.5585 11.2305C17.5049 11.2776 17.4962 11.3311 17.5325 11.3911C17.6803 11.6379 17.7136 11.9297 17.6325 12.2665C17.6267 12.2879 17.6172 12.3079 17.6042 12.3264C17.5912 12.3435 17.5752 12.3564 17.5564 12.3649C17.497 12.3921 17.4636 12.437 17.4564 12.4998L17.3912 12.9857C17.381 13.0613 17.3477 13.1248 17.2912 13.1762C17.2057 13.2561 17.1636 13.3538 17.1651 13.4694C17.1657 13.4992 17.1582 13.5285 17.1432 13.5541C17.1283 13.5798 17.1065 13.6008 17.0803 13.6149C16.8745 13.7291 16.7571 13.8846 16.7281 14.0816C16.718 14.15 16.6854 14.205 16.6303 14.2464C16.5303 14.322 16.4912 14.4205 16.5129 14.5417C16.5274 14.6231 16.4941 14.6516 16.4129 14.6274C16.3854 14.6202 16.3593 14.6252 16.3347 14.6423C16.2839 14.678 16.2542 14.7258 16.2455 14.7858C16.1977 15.1175 15.7695 15.3059 15.5477 15.5477C15.39 15.7216 15.2381 15.9004 15.0934 16.0828C14.918 16.304 14.7043 16.4353 14.4521 16.4767C14.3434 16.4938 14.2681 16.5523 14.226 16.6522C14.1492 16.8348 14.0159 16.9597 13.826 17.0268C13.5333 17.1295 13.3376 17.2073 13.2391 17.2601C12.9304 17.4242 12.5819 17.4812 12.1935 17.4313C12.0051 17.407 11.816 17.4249 11.6261 17.4848C11.4928 17.5262 11.4616 17.6061 11.5326 17.7245C11.608 17.8501 11.6174 17.97 11.5609 18.0841C11.5131 18.184 11.4587 18.1876 11.3978 18.0948C11.3007 17.9521 11.271 17.7916 11.3087 17.6132C11.316 17.5804 11.3029 17.5604 11.2696 17.5533L11.2152 17.5405C11.208 17.539 11.2037 17.5419 11.2022 17.549C11.1471 17.8587 11.0971 18.1655 11.0522 18.4694C11.0479 18.4951 11.0348 18.5144 11.0131 18.5272C11.0058 18.5315 10.9986 18.5322 10.9913 18.5293C10.9421 18.5151 10.9182 18.4823 10.9196 18.4309C10.9254 18.2811 10.9029 18.1412 10.8522 18.0114C10.8406 17.98 10.8153 17.9657 10.7761 17.9685C10.6863 17.9757 10.6413 18.0242 10.6413 18.1141V18.4673C10.6399 18.5614 10.5935 18.5964 10.5022 18.5721C10.4443 18.5564 10.4037 18.5201 10.3805 18.463C10.3529 18.3973 10.3269 18.3981 10.3022 18.4651C10.295 18.4865 10.2819 18.5044 10.2631 18.5186C10.1805 18.5857 10.1914 18.6085 10.2957 18.5871C10.416 18.5629 10.5298 18.5821 10.637 18.6449C10.7008 18.6849 10.7703 18.702 10.8457 18.6963L11.3783 18.6642L11.3718 18.7669C11.3689 18.8326 11.3341 18.8654 11.2674 18.8654L8.31315 18.8632C8.1349 18.8632 8.06243 18.7769 8.09577 18.6043C8.18417 18.1462 8.27112 17.6903 8.35663 17.2365C8.43924 16.7985 8.56677 16.3625 8.73923 15.9287C9.60877 13.7284 10.8145 11.9982 12.3565 10.7382C14.0217 9.37835 15.8528 8.51862 17.8498 8.15903C18.4803 8.0463 19.3353 7.9935 20.415 8.00064Z" fill="#000099"/>
<path d="M20.4156 8.00061C23.1112 8.09336 25.5191 8.9852 27.6393 10.6761C27.9074 10.8902 28.1531 11.1463 28.3763 11.4445C28.4197 11.503 28.4045 11.5359 28.3306 11.543C25.9104 11.8098 23.6836 12.5954 21.6504 13.8996C19.8011 15.0854 18.3642 16.6393 17.3396 18.5614C17.1556 18.6799 17.0527 18.8568 17.0309 19.0922C16.8295 19.3234 16.7099 19.5888 16.6723 19.8885C16.4875 20.2652 16.1831 20.8966 16.3201 21.3054C16.3335 21.3465 16.3571 21.3836 16.3888 21.4134C16.4205 21.4432 16.4593 21.4648 16.5017 21.4762C16.5442 21.4877 16.5889 21.4886 16.6319 21.479C16.6749 21.4694 16.7149 21.4494 16.7483 21.421C17.3548 20.903 17.507 20.2609 17.9461 19.653C18.1795 19.3305 18.32 19.1315 18.3679 19.0559C19.7403 16.9297 21.5062 15.2516 23.6655 14.0216C24.2873 13.6677 25.0264 13.3588 25.8829 13.0948C25.7959 13.3602 25.6343 13.5329 25.3981 13.6128C25.2387 13.667 25.1387 13.759 25.0981 13.8889C25.0865 13.9274 25.0604 13.9438 25.0198 13.9381C24.9793 13.9324 24.9496 13.9474 24.9307 13.9831C24.7322 14.3555 24.4793 14.6737 24.172 14.9377C23.9706 15.1118 23.7735 15.1125 23.5808 14.9398C23.5518 14.9127 23.5344 14.9184 23.5286 14.957C23.5228 14.9912 23.5018 15.0076 23.4655 15.0062C23.3221 14.9962 23.1887 15.0326 23.0655 15.1154C23.0119 15.151 22.9525 15.1653 22.8873 15.1582C22.7583 15.1467 22.6764 15.2045 22.6416 15.3315C22.6315 15.3701 22.646 15.3936 22.6851 15.4022C22.7156 15.4093 22.7264 15.4271 22.7177 15.4557C22.696 15.5299 22.6482 15.5556 22.5743 15.5327C22.4728 15.5013 22.3967 15.5313 22.346 15.6226C22.317 15.6754 22.2735 15.7111 22.2156 15.7297C21.9373 15.8181 21.7931 15.9943 21.783 16.2583C21.7801 16.324 21.7475 16.3682 21.6852 16.391C21.4924 16.4595 21.3228 16.5566 21.1765 16.6821C20.9214 16.9019 20.6468 17.1145 20.3526 17.32C20.2859 17.3656 20.249 17.4284 20.2417 17.5083L20.1787 18.1505C20.17 18.2375 20.1374 18.3146 20.0808 18.3816C19.8953 18.5985 19.7345 18.8397 19.5983 19.1051C19.5577 19.1821 19.5019 19.2464 19.4309 19.2977C19.328 19.3719 19.2801 19.4661 19.2874 19.5803C19.2917 19.653 19.2715 19.7187 19.2265 19.7772C18.8497 20.2495 18.499 20.7268 18.1744 21.2091C17.928 21.573 17.5599 21.8662 17.0701 22.0888C16.9889 22.1259 16.9092 22.1245 16.8309 22.0845L16.2592 21.7849C16.1983 21.7521 16.136 21.7506 16.0723 21.7806C15.9433 21.8391 15.894 21.9418 15.9244 22.0888C15.9263 22.0993 15.9261 22.1101 15.9236 22.1204C15.9212 22.1307 15.9167 22.1404 15.9103 22.1489C15.904 22.1573 15.896 22.1643 15.8868 22.1695C15.8777 22.1746 15.8675 22.1778 15.8571 22.1787C15.7744 22.1873 15.7114 22.223 15.6679 22.2857C15.5549 22.4498 15.4259 22.6004 15.281 22.7374C15.223 22.7916 15.2237 22.8458 15.2832 22.9C15.3368 22.95 15.3774 23.0028 15.4049 23.0584C14.1919 22.5897 14.0397 21.2027 14.1158 20.0982C14.2028 18.8033 13.7376 17.8529 12.2441 18.0242C11.8514 18.0684 11.563 18.2817 11.3789 18.6642L10.8463 18.6963C10.771 18.702 10.7014 18.6849 10.6376 18.6449C10.5304 18.5821 10.4166 18.5628 10.2963 18.5871C10.192 18.6085 10.1811 18.5857 10.2637 18.5186C10.2826 18.5043 10.2956 18.4865 10.3029 18.4651C10.3275 18.398 10.3536 18.3973 10.3811 18.463C10.4043 18.52 10.4449 18.5564 10.5029 18.5721C10.5942 18.5964 10.6405 18.5614 10.642 18.4672V18.1141C10.642 18.0242 10.6869 17.9757 10.7768 17.9685C10.8159 17.9657 10.8413 17.9799 10.8528 18.0113C10.9036 18.1412 10.926 18.281 10.9202 18.4309C10.9188 18.4822 10.9427 18.515 10.992 18.5293C10.9992 18.5322 11.0065 18.5315 11.0137 18.5272C11.0355 18.5143 11.0485 18.4951 11.0528 18.4694C11.0978 18.1654 11.1478 17.8587 11.2028 17.549C11.2043 17.5419 11.2086 17.539 11.2159 17.5404L11.2702 17.5533C11.3036 17.5604 11.3166 17.5804 11.3094 17.6132C11.2717 17.7916 11.3014 17.9521 11.3985 18.0948C11.4594 18.1876 11.5137 18.184 11.5615 18.0841C11.618 17.97 11.6086 17.8501 11.5333 17.7245C11.4623 17.6061 11.4934 17.5262 11.6267 17.4848C11.8166 17.4249 12.0057 17.407 12.1941 17.4313C12.5825 17.4812 12.9311 17.4241 13.2397 17.26C13.3383 17.2072 13.5339 17.1295 13.8267 17.0267C14.0165 16.9597 14.1499 16.8348 14.2267 16.6522C14.2687 16.5523 14.3441 16.4938 14.4527 16.4767C14.7049 16.4353 14.9187 16.304 15.094 16.0828C15.2388 15.9004 15.3906 15.7216 15.5484 15.5477C15.7701 15.3058 16.1984 15.1175 16.2462 14.7857C16.2549 14.7258 16.2846 14.678 16.3353 14.6423C16.3599 14.6252 16.386 14.6202 16.4136 14.6273C16.4947 14.6516 16.5281 14.6231 16.5136 14.5417C16.4918 14.4204 16.5309 14.322 16.6309 14.2463C16.686 14.205 16.7186 14.15 16.7288 14.0815C16.7578 13.8846 16.8751 13.7291 17.0809 13.6149C17.1071 13.6008 17.1289 13.5798 17.1439 13.5541C17.1588 13.5284 17.1664 13.4991 17.1657 13.4694C17.1643 13.3538 17.2063 13.256 17.2918 13.1761C17.3483 13.1248 17.3816 13.0613 17.3918 12.9856L17.457 12.4998C17.4643 12.437 17.4976 12.392 17.557 12.3649C17.5758 12.3564 17.5918 12.3435 17.6048 12.3264C17.6179 12.3078 17.6273 12.2879 17.6331 12.2665C17.7142 11.9297 17.6809 11.6379 17.5331 11.391C17.4969 11.3311 17.5056 11.2776 17.5592 11.2305C17.6998 11.1092 17.8367 11 17.97 10.903C18.0932 10.8145 18.1099 10.831 18.02 10.9522C17.9041 11.1078 17.7918 11.2391 17.6831 11.3461C17.657 11.3718 17.657 11.3967 17.6831 11.421L17.7244 11.4638C17.7461 11.4852 17.7679 11.4852 17.7896 11.4638L18.2983 10.9651C18.3679 10.898 18.4287 10.9052 18.4809 10.9865C18.4939 11.005 18.5099 11.0193 18.5287 11.0293C18.5954 11.0621 18.6468 11.0471 18.6831 10.9843C18.712 10.933 18.7128 10.9009 18.6852 10.888C18.4925 10.8038 18.486 10.6982 18.6657 10.5712C18.7845 10.4871 18.8831 10.4928 18.9613 10.5884C18.9816 10.6126 19.007 10.6255 19.0374 10.6269C19.0794 10.6298 19.1135 10.6155 19.1396 10.5841C19.1975 10.5185 19.1845 10.4714 19.1004 10.4428C19.0584 10.4286 19.0222 10.405 18.9917 10.3722C18.9806 10.3597 18.9746 10.3435 18.975 10.3268C18.9754 10.3102 18.9822 10.2943 18.9939 10.2823L19.6461 9.61876C19.6542 9.61093 19.6642 9.60524 19.6751 9.60223C19.6861 9.59922 19.6976 9.59899 19.7087 9.60155C19.7198 9.60412 19.73 9.60939 19.7384 9.61689C19.7469 9.62439 19.7532 9.63387 19.7569 9.64445C19.7845 9.72721 19.8403 9.76645 19.9243 9.76217C20.0229 9.75646 20.0439 9.71437 19.9874 9.63589C19.9511 9.58594 19.9098 9.54028 19.8635 9.4989C19.8011 9.44468 19.8084 9.40044 19.8852 9.3662C20.0417 9.29485 20.0924 9.16856 20.0374 8.98734C20.0272 8.95738 20.0243 8.9267 20.0287 8.8953C20.0345 8.8368 20.0584 8.78828 20.1004 8.74976C20.1117 8.73914 20.126 8.73219 20.1414 8.72985C20.1568 8.7275 20.1726 8.72988 20.1866 8.73665C20.2006 8.74342 20.2121 8.75427 20.2196 8.76771C20.2272 8.78116 20.2303 8.79656 20.2287 8.81183C20.2258 8.84179 20.2345 8.86819 20.2548 8.89102C20.2677 8.90455 20.285 8.91336 20.3039 8.91608C20.3228 8.91879 20.3422 8.91525 20.3591 8.90601C20.5142 8.82039 20.6301 8.71123 20.7069 8.57852C20.7823 8.4501 20.7482 8.408 20.6047 8.45224C20.5816 8.45937 20.5576 8.46009 20.533 8.45438C20.4634 8.43583 20.4279 8.39159 20.4265 8.32167L20.4156 8.00061Z" fill="#000099"/>
<path d="M20.1065 20.201C19.7442 20.5563 19.5507 20.968 19.5261 21.436L19.063 22.5533C18.75 23.1398 18.6196 23.8419 18.6717 24.6595C18.5167 25.002 18.4254 25.3359 18.3978 25.6612C18.0906 26.9983 17.5884 28.2568 16.8913 29.4369C16.5334 30.0448 16.0798 30.5899 15.5305 31.0722C15.4769 31.1193 15.4167 31.1278 15.3501 31.0979C12.8574 29.9792 10.9227 28.2347 9.5459 25.8646C9.63575 25.8574 9.71836 25.8425 9.79372 25.8196C9.83285 25.8068 9.87198 25.8039 9.91111 25.8111C9.95458 25.8182 9.9611 25.8453 9.93067 25.8924C9.92126 25.9069 9.91616 25.9237 9.91595 25.9409C9.91574 25.9581 9.92043 25.975 9.92948 25.9897C9.93853 26.0044 9.95159 26.0163 9.96717 26.0241C9.98275 26.0319 10.0002 26.0352 10.0176 26.0337C10.1944 26.0208 10.2879 25.9259 10.2981 25.749C10.2995 25.7147 10.3176 25.694 10.3524 25.6869C10.3741 25.6826 10.3923 25.6726 10.4067 25.6569C10.5009 25.5571 10.5183 25.5685 10.4589 25.6912C10.4169 25.7768 10.4075 25.8639 10.4307 25.9523C10.4422 25.9966 10.4712 26.0187 10.5176 26.0187H10.6024C10.6835 26.0187 10.714 25.9802 10.6937 25.9031C10.6575 25.759 10.7024 25.6569 10.8285 25.597C10.8879 25.5685 10.9125 25.5214 10.9024 25.4558C10.898 25.4315 10.8857 25.4137 10.8654 25.4022C10.8002 25.3651 10.7451 25.3766 10.7002 25.4365C10.6843 25.4579 10.6647 25.4743 10.6415 25.4857C10.5401 25.5328 10.527 25.5164 10.6024 25.4365C10.7314 25.2981 10.9024 25.236 11.1154 25.2503C11.2444 25.2588 11.3212 25.2003 11.3458 25.0748C11.3499 25.0579 11.3489 25.04 11.3432 25.0231C11.3375 25.0061 11.3271 24.9907 11.3132 24.9784L11.2719 24.9421C11.169 24.8507 11.1872 24.8072 11.3263 24.8115C11.3495 24.8115 11.3734 24.8151 11.398 24.8222C11.456 24.8379 11.5067 24.825 11.5502 24.7837C11.7096 24.6324 11.8082 24.469 11.8458 24.2935C11.856 24.2407 11.8792 24.235 11.9154 24.2764C11.9821 24.352 12.0603 24.372 12.1502 24.3363C12.1775 24.3262 12.2004 24.3069 12.2147 24.2819C12.229 24.2568 12.2339 24.2276 12.2284 24.1993C12.2081 24.0866 12.2263 23.9781 12.2828 23.874C12.3045 23.8326 12.3342 23.8255 12.3719 23.8526L12.4197 23.8868C12.469 23.9225 12.5205 23.9246 12.5741 23.8932C12.6552 23.8447 12.6886 23.777 12.6741 23.6899C12.6731 23.6837 12.6704 23.6778 12.6663 23.673C12.6622 23.6682 12.6568 23.6646 12.6507 23.6626C12.6446 23.6606 12.6381 23.6603 12.6319 23.6618C12.6257 23.6632 12.6199 23.6662 12.6154 23.6706C12.5994 23.6878 12.5813 23.6928 12.561 23.6856C12.4436 23.6485 12.4444 23.6143 12.5632 23.5829C12.6806 23.5529 12.8052 23.523 12.9371 23.493C13.0704 23.4616 13.111 23.3881 13.0588 23.2725C13.0386 23.2297 13.0523 23.2126 13.1001 23.2212C13.1726 23.234 13.2349 23.2126 13.2871 23.1569C13.3132 23.1284 13.3313 23.0842 13.3414 23.0242C13.3849 22.7788 13.4509 22.7174 13.5393 22.8402C13.7566 23.1569 13.8523 23.5315 14.1719 23.7477C15.0088 24.3128 16.2283 24.3128 17.2196 24.1437C17.2776 24.1337 17.2993 24.1009 17.2848 24.0452C17.2341 23.8512 17.2196 23.6564 17.2413 23.4609C17.2471 23.4038 17.221 23.3746 17.1631 23.3731L16.5435 23.3453L15.4044 23.0585C15.3769 23.0028 15.3363 22.95 15.2827 22.9001C15.2233 22.8459 15.2225 22.7916 15.2805 22.7374C15.4254 22.6004 15.5544 22.4499 15.6675 22.2858C15.7109 22.223 15.774 22.1873 15.8566 22.1788C15.8671 22.1778 15.8772 22.1747 15.8864 22.1695C15.8955 22.1644 15.9035 22.1574 15.9099 22.1489C15.9162 22.1405 15.9207 22.1308 15.9232 22.1204C15.9256 22.1101 15.9259 22.0994 15.924 22.0889C15.8935 21.9419 15.9428 21.8392 16.0718 21.7807C16.1356 21.7507 16.1979 21.7521 16.2588 21.7849L16.8305 22.0846C16.9087 22.1246 16.9884 22.126 17.0696 22.0889C17.5594 21.8663 17.9275 21.573 18.1739 21.2092C18.4985 20.7269 18.8493 20.2495 19.2261 19.7772C19.271 19.7187 19.2913 19.6531 19.2869 19.5803C19.2797 19.4662 19.3275 19.372 19.4304 19.2978C19.5014 19.2464 19.5572 19.1822 19.5978 19.1051C19.734 18.8397 19.8949 18.5986 20.0804 18.3817C20.1369 18.3146 20.1695 18.2376 20.1782 18.1505L20.2412 17.5084C20.2485 17.4285 20.2855 17.3657 20.3521 17.32C20.6463 17.1146 20.9209 16.9019 21.176 16.6822C21.3224 16.5566 21.4919 16.4596 21.6847 16.3911C21.747 16.3683 21.7796 16.324 21.7825 16.2584C21.7927 15.9944 21.9369 15.8182 22.2151 15.7297C22.2731 15.7112 22.3166 15.6755 22.3455 15.6227C22.3963 15.5314 22.4723 15.5014 22.5738 15.5328C22.6477 15.5556 22.6955 15.5299 22.7173 15.4557C22.726 15.4272 22.7151 15.4094 22.6847 15.4022C22.6455 15.3937 22.631 15.3701 22.6412 15.3316C22.676 15.2046 22.7578 15.1468 22.8868 15.1582C22.952 15.1653 23.0115 15.1511 23.0651 15.1154C23.1883 15.0326 23.3216 14.9963 23.4651 15.0062C23.5013 15.0077 23.5223 14.9913 23.5281 14.957C23.5339 14.9185 23.5513 14.9128 23.5803 14.9399C23.773 15.1125 23.9701 15.1118 24.1716 14.9377C24.4788 14.6738 24.7317 14.3556 24.9302 13.9831C24.9491 13.9475 24.9788 13.9325 25.0194 13.9382C25.06 13.9439 25.086 13.9275 25.0976 13.8889C25.1382 13.7591 25.2382 13.6671 25.3976 13.6128C25.6339 13.5329 25.7954 13.3603 25.8824 13.0949C26.9679 12.7624 28.0954 12.5954 29.2649 12.594C29.3403 12.594 29.404 12.6204 29.4562 12.6732C29.7084 12.93 29.9547 13.2582 30.1953 13.6578C30.975 14.9506 31.4793 16.2184 31.7083 17.4613C31.8561 18.2661 32.0474 19.1244 32.0344 19.9356C32.0214 20.7304 31.9206 21.588 31.7322 22.5084C31.283 24.7087 30.2569 26.6465 28.6541 28.3218C26.1614 30.9245 23.0651 32.146 19.3652 31.9862C18.4362 31.9462 17.5515 31.8135 16.7109 31.588C16.6998 31.5853 16.6896 31.5799 16.6812 31.5724C16.6727 31.5649 16.6662 31.5554 16.6624 31.5448C16.6585 31.5342 16.6573 31.5229 16.659 31.5118C16.6606 31.5006 16.665 31.4901 16.6718 31.481C17.4848 30.398 18.1138 29.2557 18.5587 28.0542C19.0224 26.8042 19.3855 25.3923 19.6478 23.8183C19.7478 23.219 19.9355 22.6304 20.2108 22.0525C20.4876 21.4732 20.8007 20.9259 21.1499 20.4108C23.0267 17.6439 25.673 16.0179 29.0888 15.5328C29.1671 15.5214 29.2062 15.4771 29.2062 15.4001V14.8607C29.2062 14.7722 29.1613 14.7323 29.0714 14.7408C26.5585 14.972 24.502 15.7411 22.902 17.0482C22.4731 17.3978 21.9637 17.8787 21.3738 18.4908C21.1709 18.7006 20.9579 18.9831 20.7347 19.3384C20.5434 19.641 20.334 19.9285 20.1065 20.201ZM22.1651 21.5816C21.6216 22.502 21.2869 23.4837 21.1608 24.5268C21.1405 24.6881 21.2093 24.7944 21.3673 24.8457L21.539 24.9014C21.7419 24.967 21.8695 24.8978 21.9216 24.6938C22.4071 22.7374 23.3223 21.2184 24.6672 20.1368C25.4715 19.489 26.4817 18.9517 27.6976 18.5251C27.807 18.4872 27.9014 18.4161 27.9674 18.3219C28.0334 18.2277 28.0675 18.1153 28.0649 18.0007C28.0635 17.9907 28.062 17.9393 28.0606 17.8466C28.0533 17.584 27.9207 17.4856 27.6628 17.5512C26.1309 17.9422 24.7585 18.6856 23.5455 19.7815C23.0919 20.1896 22.6318 20.7896 22.1651 21.5816Z" fill="#000099"/>
<path d="M17.3399 18.5615C17.2776 18.7741 17.1747 18.951 17.0312 19.0923C17.053 18.8568 17.1559 18.6799 17.3399 18.5615Z" fill="#000099"/>
<path d="M17.0306 19.0923C16.9784 19.3949 16.8588 19.6603 16.6719 19.8886C16.7096 19.5889 16.8291 19.3235 17.0306 19.0923Z" fill="#000099"/>
<path d="M13.5393 22.8401C13.4509 22.7174 13.3849 22.7788 13.3415 23.0242C13.3313 23.0841 13.3132 23.1284 13.2871 23.1569C13.2349 23.2126 13.1726 23.234 13.1002 23.2211C13.0523 23.2126 13.0386 23.2297 13.0589 23.2725C13.111 23.3881 13.0704 23.4616 12.9371 23.493C12.8052 23.5229 12.6806 23.5529 12.5632 23.5828C12.4444 23.6142 12.4437 23.6485 12.561 23.6856C12.5813 23.6927 12.5994 23.6877 12.6154 23.6706C12.62 23.6662 12.6257 23.6631 12.6319 23.6617C12.6381 23.6603 12.6446 23.6606 12.6507 23.6626C12.6568 23.6646 12.6622 23.6682 12.6663 23.673C12.6704 23.6778 12.6731 23.6836 12.6741 23.6899C12.6886 23.7769 12.6552 23.8447 12.5741 23.8932C12.5205 23.9246 12.469 23.9225 12.4197 23.8868L12.3719 23.8525C12.3342 23.8254 12.3045 23.8326 12.2828 23.8739C12.2263 23.9781 12.2082 24.0866 12.2284 24.1993C12.2339 24.2275 12.229 24.2568 12.2147 24.2818C12.2004 24.3069 12.1775 24.3262 12.1502 24.3363C12.0603 24.3719 11.9821 24.352 11.9154 24.2763C11.8792 24.235 11.856 24.2407 11.8458 24.2935C11.8082 24.469 11.7096 24.6324 11.5502 24.7836C11.5067 24.825 11.456 24.8378 11.398 24.8221C11.3734 24.815 11.3495 24.8114 11.3263 24.8114C11.1872 24.8072 11.1691 24.8507 11.2719 24.942L11.3133 24.9784C11.3271 24.9907 11.3375 25.0061 11.3432 25.023C11.349 25.04 11.3499 25.0578 11.3459 25.0747C11.3212 25.2003 11.2444 25.2588 11.1154 25.2502C10.9024 25.236 10.7314 25.298 10.6024 25.4364C10.527 25.5164 10.5401 25.5328 10.6415 25.4857C10.6647 25.4743 10.6843 25.4579 10.7002 25.4364C10.7452 25.3765 10.8002 25.3651 10.8654 25.4022C10.8857 25.4136 10.898 25.4315 10.9024 25.4557C10.9125 25.5214 10.8879 25.5684 10.8285 25.597C10.7024 25.6569 10.6575 25.7589 10.6937 25.9031C10.714 25.9801 10.6836 26.0186 10.6024 26.0186H10.5176C10.4712 26.0186 10.4423 25.9965 10.4307 25.9523C10.4075 25.8638 10.4169 25.7768 10.4589 25.6912C10.5183 25.5684 10.501 25.557 10.4068 25.6569C10.3923 25.6726 10.3741 25.6826 10.3524 25.6869C10.3176 25.694 10.2995 25.7147 10.2981 25.7489C10.2879 25.9259 10.1944 26.0208 10.0176 26.0336C10.0002 26.0351 9.98276 26.0318 9.96718 26.024C9.9516 26.0163 9.93854 26.0044 9.92949 25.9896C9.92044 25.9749 9.91575 25.958 9.91596 25.9408C9.91617 25.9236 9.92127 25.9068 9.93068 25.8924C9.96111 25.8453 9.95459 25.8182 9.91112 25.811C9.87199 25.8039 9.83286 25.8067 9.79373 25.8196C9.71837 25.8424 9.63576 25.8574 9.54591 25.8645C9.3749 25.5178 9.20969 25.1618 9.05027 24.7965C8.31116 23.0927 7.97566 21.3697 8.04378 19.6274C8.04668 19.5475 8.0887 19.5075 8.16986 19.5075C9.5104 19.5218 10.7901 19.5196 12.0089 19.5011C12.748 19.4904 13.361 20.3273 13.3893 20.9651C13.4342 21.9654 13.4842 22.5904 13.5393 22.8401Z" fill="#000099"/>
<path d="M20.1068 20.201L19.5264 21.436C19.551 20.968 19.7445 20.5563 20.1068 20.201Z" fill="#000099"/>
<path d="M19.0626 22.5534L18.6713 24.6596C18.6192 23.8419 18.7496 23.1399 19.0626 22.5534Z" fill="#000099"/>
<path d="M15.4043 23.0586L16.5434 23.3454C16.1202 23.3226 15.7405 23.227 15.4043 23.0586Z" fill="#000099"/>
<path d="M18.6723 24.6595C18.6347 25.0149 18.5434 25.3488 18.3984 25.6613C18.426 25.3359 18.5173 25.002 18.6723 24.6595Z" fill="#000099"/>
<circle cx="20" cy="20" r="19.5" stroke="black" stroke-opacity="0.05"/>
</svg>
