<svg width="40" height="40" viewBox="0 0 40 40" fill="none" xmlns="http://www.w3.org/2000/svg">
<circle cx="20" cy="20" r="20" fill="#003087"/>
<g clip-path="url(#clip0_14382_18709)">
<path d="M20 29.9618C25.5228 29.9618 30 25.4932 30 19.9809C30 14.4686 25.5228 10 20 10C14.4772 10 10 14.4686 10 19.9809C10 25.4932 14.4772 29.9618 20 29.9618Z" fill="white"/>
<path d="M11.5241 18.2659C11.5241 20.5997 13.4149 22.4943 15.7525 22.4943C18.0902 22.4943 19.981 20.6035 19.981 18.2659V16.2567C19.981 15.4393 20.8671 14.0565 22.9183 14.0565C25.7105 14.0565 29.1559 17.12 29.1559 20.764C29.1559 23.4072 28.0864 25.191 27.4829 25.9435C28.7854 24.3277 29.5761 22.2575 29.5761 20.0229C29.5761 14.725 25.4355 10.4316 19.9848 10.4316C17.4867 10.4316 15.214 11.3866 13.5065 12.9488C11.1994 15.2598 11.5318 18.2659 11.5318 18.2659H11.5241Z" fill="#DA291C"/>
<path d="M28.476 21.6921C28.476 19.3583 26.5852 17.4637 24.2476 17.4637C21.9099 17.4637 20.0191 19.3545 20.0191 21.6921V23.7013C20.0191 24.5187 19.133 25.9015 17.0818 25.9015C14.2896 25.9015 10.8442 22.8381 10.8442 19.1941C10.8442 16.5508 11.9137 14.767 12.5172 14.0145C11.2185 15.6341 10.4279 17.7044 10.4279 19.9389C10.4279 25.2368 14.5684 29.5302 20.0191 29.5302C22.5172 29.5302 24.79 28.5753 26.4974 27.013C28.8045 24.7021 28.4722 21.696 28.4722 21.696L28.476 21.6921Z" fill="#003087"/>
</g>
<circle cx="20" cy="20" r="19.5" stroke="black" stroke-opacity="0.05"/>
<defs>
<clipPath id="clip0_14382_18709">
<rect width="20" height="19.958" fill="white" transform="translate(10 10)"/>
</clipPath>
</defs>
</svg>
