<svg width="40" height="40" viewBox="0 0 40 40" fill="none" xmlns="http://www.w3.org/2000/svg">
<circle cx="20" cy="20" r="20" fill="#F6F8FA"/>
<path d="M25.0975 10.9891L25.0468 10.9951C25.0089 11 24.9912 11.0209 24.9937 11.0579C24.9961 11.0877 25.0114 11.1195 25.0395 11.1533C24.8125 11.0801 24.5947 10.9871 24.3862 10.8744C24.1214 10.7311 23.9072 10.6357 23.7438 10.5882C23.4137 10.4924 23.0901 10.4296 22.7729 10.3998C22.2287 10.3483 21.6756 10.312 21.1137 10.2911C20.1677 10.2565 19.3571 10.37 18.6816 10.6317C18.2485 10.7999 17.8283 10.9432 17.4209 11.0616C17.1335 11.1453 16.8244 11.2902 16.4935 11.4963C15.7939 11.9318 15.054 12.5058 14.2739 13.2183C13.8811 13.5774 13.4838 14.0403 13.082 14.607C12.5435 15.3646 12.1148 16.0811 11.796 16.7565C11.6499 17.0645 11.6366 17.3869 11.5388 17.7081C11.2912 18.5148 11.2453 19.3806 11.1077 20.2018C11.0316 20.663 11.1958 21.1376 11.1765 21.6158C11.1499 22.2454 11.2107 22.7626 11.3588 23.1676C11.5698 23.7448 11.7529 24.3063 11.9083 24.8522C12.0641 25.4004 12.3877 25.8351 12.628 26.3314C13.0277 27.1526 13.6617 27.7721 14.4068 28.2503C14.7948 28.4999 15.1736 28.7518 15.5431 29.0062C15.6196 29.0586 15.6941 29.1282 15.7665 29.2152C15.7871 29.2404 15.8142 29.2596 15.845 29.2707L16.2604 29.4265L16.0443 29.47C15.2819 29.2598 14.6213 29.0087 14.0626 28.7164C13.6496 28.4999 13.2708 28.3123 12.9263 28.1537C12.5374 27.9738 12.2995 27.7178 11.953 27.5076C11.296 27.1115 10.5449 26.5428 10.3638 25.7917C10.3533 25.7498 10.3312 25.716 10.2974 25.6902C9.77971 25.2925 9.35545 24.7527 9.02457 24.0709C8.67759 23.3552 8.45177 22.732 8.34712 22.2015C8.26258 21.7728 8.0585 21.4118 8.04643 20.9529C8.03516 20.5101 8.03234 20.0464 8.03797 19.5617C8.03797 19.5311 8.05166 19.5086 8.07903 19.4941C8.09513 19.4853 8.11164 19.4849 8.12854 19.4929C8.14101 19.4985 8.15211 19.5069 8.16108 19.5173C8.17005 19.5277 8.17666 19.54 8.18047 19.5533C8.22998 19.7284 8.32779 19.8431 8.33504 20.0375C8.35678 20.6449 8.41595 21.5023 8.68162 22.0614C8.91589 22.5517 9.0765 23.0746 9.24556 23.5878C9.30272 23.7601 9.38805 23.9014 9.50156 24.0117C9.56758 24.0753 9.58449 24.0644 9.55228 23.9791C9.40737 23.5926 9.27655 23.1889 9.15982 22.7679C9.04268 22.3452 8.82773 21.9552 8.77581 21.5108C8.72992 21.1207 8.57897 20.7536 8.5512 20.3696C8.52785 20.0411 8.48881 19.7227 8.43406 19.4144C8.39381 19.1898 8.39341 18.9587 8.43285 18.7213C8.49645 18.3405 8.52262 17.9351 8.51135 17.5052C8.50652 17.3482 8.48961 17.3466 8.46063 17.5004C8.393 17.8506 8.31612 18.1992 8.22998 18.5462C8.2171 18.5977 8.18932 18.5904 8.14666 18.5244C8.11137 18.4711 8.09402 18.4081 8.09715 18.3445C8.15591 17.1522 8.41434 15.9776 8.87241 14.8208C9.02215 14.4424 9.19524 14.0459 9.39167 13.6313C9.61629 13.1555 9.95803 12.8053 10.2165 12.3694C10.404 12.053 10.691 11.7197 11.0775 11.3695C11.1225 11.3292 11.158 11.3361 11.1837 11.39C11.1861 11.394 11.1894 11.3961 11.1934 11.3961C11.2167 11.3961 11.2361 11.3876 11.2514 11.3707C11.3222 11.2934 11.3777 11.2117 11.418 11.1256C11.7102 10.5049 12.3611 10.1317 12.9214 9.78514C13.3087 9.54443 13.712 9.37899 14.1314 9.28882C14.6507 9.17611 14.6704 9.23408 14.1906 9.46271C13.9986 9.55449 13.803 9.62574 13.6303 9.75133C13.2475 10.0291 12.8393 10.2223 12.4915 10.5507C12.3346 10.6997 12.1776 10.845 12.0206 10.9867C11.6197 11.3482 11.234 11.8139 10.8637 12.3839C10.859 12.391 10.857 12.3996 10.8581 12.4082C10.8592 12.4168 10.8633 12.4249 10.8698 12.431L10.8915 12.4515C10.9003 12.4595 10.908 12.4587 10.9144 12.4491C11.3842 11.7112 12.0061 11.0217 12.7451 10.5495C12.911 10.4425 13.0849 10.3205 13.2668 10.1836C13.5784 9.94776 14.0191 9.76823 14.5891 9.64506C14.6604 9.62936 14.705 9.64506 14.7727 9.66559C14.8121 9.67766 14.8508 9.67525 14.8886 9.65834C15.1361 9.55087 15.3897 9.46875 15.6083 9.30452C15.8655 9.11131 16.1674 9.09682 16.456 8.94225C16.7177 8.80136 17.061 8.71602 17.4861 8.68624C18.0666 8.64599 18.5979 8.62787 19.0801 8.6319C19.4967 8.63431 20.0824 8.76232 20.5377 8.89273C20.8818 8.99296 21.232 9.0461 21.5798 9.15478C22.5821 9.46875 23.52 9.91918 24.3935 10.5061C24.4313 10.5318 24.538 10.624 24.7135 10.7826C24.8318 10.8889 24.9598 10.9577 25.0975 10.9891Z" fill="#107DBE"/>
<path d="M25.04 11.1534C26.655 12.6098 27.7672 14.3797 28.3766 16.4632C28.4502 16.718 28.4527 16.9571 28.5179 17.2071C28.5678 17.3922 28.5943 17.5814 28.5976 17.7746C28.6064 18.2158 28.6394 18.6477 28.6966 19.0704C28.7715 19.6198 28.5432 20.1246 28.5106 20.6632C28.4744 21.2758 28.3532 21.975 28.1471 22.7607C27.9563 23.4901 27.582 24.1024 27.2113 24.7424C26.7765 25.4935 26.2295 25.9826 25.6776 26.567C25.4748 26.782 25.2344 26.98 24.9567 27.1612C24.7961 27.2662 24.8251 27.4594 24.6729 27.585C24.3292 27.8692 23.9846 28.1413 23.6392 28.4014C23.353 28.6163 22.9726 28.6501 22.6599 28.8373C22.0054 29.2298 21.2494 29.5461 20.4935 29.5522C20.202 29.5546 19.909 29.5791 19.6144 29.6258C19.017 29.7216 18.509 29.7667 18.0904 29.7611C17.5413 29.7547 16.9315 29.6432 16.2609 29.4266L15.8455 29.2708C15.8147 29.2598 15.7876 29.2405 15.767 29.2153C15.6945 29.1283 15.6201 29.0587 15.5436 29.0064C15.1741 28.752 14.7953 28.5 14.4073 28.2504C13.6622 27.7722 13.0282 27.1527 12.6285 26.3316C12.3882 25.8352 12.0645 25.4005 11.9088 24.8523C11.7534 24.3064 11.5702 23.7449 11.3593 23.1677C11.2112 22.7627 11.1504 22.2455 11.177 21.6159C11.1963 21.1377 11.0321 20.6632 11.1081 20.2019C11.2458 19.3807 11.2917 18.5149 11.5392 17.7082C11.6371 17.387 11.6503 17.0646 11.7965 16.7566C12.1153 16.0812 12.544 15.3647 13.0825 14.6071C13.4843 14.0404 13.8816 13.5775 14.2744 13.2184C15.0545 12.5059 15.7944 11.9319 16.494 11.4964C16.8248 11.2903 17.134 11.1454 17.4214 11.0617C17.8287 10.9433 18.249 10.8 18.6821 10.6318C19.3575 10.3701 20.1682 10.2566 21.1142 10.2912C21.6761 10.3122 22.2292 10.3484 22.7734 10.3999C23.0906 10.4297 23.4142 10.4925 23.7443 10.5883C23.9077 10.6358 24.1219 10.7312 24.3867 10.8745C24.5952 10.9872 24.813 11.0802 25.04 11.1534ZM17.6013 24.4743L17.745 24.5914C17.9117 24.8426 18.0594 25.0012 18.1882 25.0672C18.6342 25.295 19.3129 25.572 20.2242 25.898C20.4955 25.9954 20.7286 26.0562 20.9234 26.0804C21.5839 26.1637 22.2698 26.0309 22.9497 25.8823C23.469 25.7676 23.9303 25.514 24.3807 25.281C24.7248 25.1022 25.0123 24.8088 25.3129 24.5624C26.0459 23.9623 26.4336 22.9552 26.6968 22.0301C26.8917 21.345 26.9122 20.5678 26.7584 19.6983C26.5515 18.5245 25.9868 17.5472 25.0642 16.7663C24.6335 16.4016 24.0567 16.047 23.3337 15.7024C23.0447 15.5647 22.779 15.5482 22.5367 15.6529C22.4924 15.6006 22.4284 15.5502 22.3447 15.5019C22.0984 15.1831 21.8017 14.9239 21.4547 14.7243C21.1432 14.5443 20.805 14.4912 20.4923 14.3258C20.2854 14.2147 20.0583 14.1382 19.8112 14.0963C19.3644 14.0202 18.8729 13.8258 18.4225 13.9067C18.1157 13.9615 17.8082 13.9969 17.4999 14.013C16.7729 14.0516 16.2295 14.4127 15.6293 14.7822C15.3967 14.9255 15.1906 15.095 15.011 15.2906C14.3984 15.9564 13.9689 16.5662 13.7226 17.1201C13.5036 17.6136 13.3486 18.2114 13.2576 18.9134C13.219 19.2145 13.2315 19.5353 13.2951 19.8758C13.3868 20.3673 13.4038 20.8189 13.6791 21.2887C13.7813 21.4642 13.8695 21.6489 13.9435 21.843C14.1512 22.384 14.4705 22.8127 14.9012 23.129C15.034 23.2265 15.1515 23.3396 15.2538 23.4684C15.5001 23.7775 15.8564 23.8222 16.1824 24.0045C16.5519 24.2122 16.9565 24.3761 17.396 24.496C17.4323 24.5057 17.5007 24.4984 17.6013 24.4743Z" fill="#116EB1"/>
<path d="M25.0972 10.989C25.5199 11.1379 25.9244 11.3267 26.3108 11.5554C26.6562 11.7607 26.9931 11.9539 27.3216 12.135C27.7684 12.3822 28.1785 12.6861 28.5521 13.0467C29.5544 14.0164 30.4166 14.9511 31.0252 16.0971C31.2993 16.6127 31.4189 17.1622 31.6169 17.6971C31.7546 18.0715 31.8532 18.4945 31.9128 18.9663C32.0199 19.8285 32.0565 20.545 32.0227 21.1158C31.9937 21.5996 31.945 22.0931 31.8766 22.5963C31.7792 23.3168 31.5236 24.0076 31.1098 24.6685C31.0864 24.7056 31.0594 24.7088 31.0288 24.6782L31.0047 24.654C30.9999 24.6492 30.9987 24.6436 31.0011 24.6371C31.5614 23.4404 31.8645 22.0807 31.6169 20.768C31.5912 20.6279 31.6165 20.5036 31.693 20.3949C31.7212 20.3554 31.7357 20.312 31.7365 20.2645C31.7618 19.2042 31.431 18.0727 31.0228 17.1139C31.0212 17.109 31.018 17.1074 31.0131 17.109L30.9842 17.1199C30.964 17.128 30.9572 17.1425 30.9636 17.1634C31.0989 17.5752 31.3175 18.2176 31.2716 18.6306C31.2559 18.7683 31.2293 18.9192 31.2824 19.0533C31.375 19.2875 31.4294 19.5242 31.4455 19.7633C31.5091 20.7052 31.4644 21.683 31.3114 22.6965C31.0458 24.4524 30.3478 26.0866 29.2175 27.5993C28.8946 28.03 28.5839 28.3247 28.2852 28.4833C28.1033 28.5799 27.9374 28.6942 27.7877 28.8262C27.5003 29.0798 26.9351 29.5363 26.533 29.5411C26.3736 29.5427 26.3587 29.4972 26.4883 29.4047L28.319 28.0956C28.3545 28.0699 28.375 28.0349 28.3806 27.9906C28.3991 27.8288 28.4647 27.6871 28.5775 27.5655C29.0476 27.0567 29.4755 26.4755 29.8611 25.8218C30.1437 25.3411 30.2632 24.8968 30.4504 24.3944C30.7161 23.6795 30.8956 22.8998 30.989 22.0553C31.0341 21.6496 31.0236 21.2527 30.9576 20.8646C30.9536 20.8389 30.9391 20.8276 30.9141 20.8308L30.8827 20.8344C30.8809 20.8346 30.8791 20.8351 30.8774 20.836C30.8758 20.8368 30.8744 20.8379 30.8732 20.8393C30.8721 20.8407 30.8713 20.8422 30.8708 20.8439C30.8704 20.8456 30.8703 20.8473 30.8707 20.8489C30.9697 21.5872 30.8884 22.3818 30.6267 23.2327C30.3482 24.1392 30.0358 24.9507 29.6896 25.6672C28.8866 27.3312 27.3385 28.8178 25.5983 29.3781C25.1862 29.5109 24.753 29.6413 24.299 29.7694C24.2926 29.771 24.2866 29.774 24.2814 29.778C24.2761 29.782 24.2718 29.787 24.2685 29.7928C24.2652 29.7985 24.2632 29.8048 24.2624 29.8114C24.2616 29.8179 24.2621 29.8246 24.264 29.8309L24.2724 29.8611C24.2756 29.8716 24.2821 29.8752 24.2917 29.872C24.6758 29.7673 25.0658 29.6997 25.4619 29.6691C25.4805 29.6676 25.4993 29.6705 25.5166 29.6777C25.5339 29.6848 25.5492 29.696 25.5612 29.7104C25.5733 29.7247 25.5818 29.7416 25.5859 29.7599C25.59 29.7781 25.5898 29.7971 25.5851 29.8152C25.5738 29.8571 25.5778 29.8965 25.5971 29.9336C25.6052 29.9496 25.6192 29.9618 25.6361 29.9676C25.653 29.9735 25.6715 29.9725 25.6877 29.965C25.7344 29.9424 25.7827 29.9328 25.8326 29.936C25.9284 29.9416 25.9361 29.9706 25.8556 30.0229C25.4683 30.2765 25.0787 30.4553 24.6866 30.5591C22.748 31.0719 20.7821 31.1045 18.7888 30.6569C18.2248 30.5301 17.5897 30.2596 17.0016 30.0688C16.7037 29.9722 16.3845 29.7726 16.0439 29.4699L16.2601 29.4264C16.9307 29.643 17.5405 29.7545 18.0896 29.7609C18.5082 29.7665 19.0162 29.7214 19.6136 29.6256C19.9082 29.579 20.2013 29.5544 20.4927 29.552C21.2486 29.5459 22.0046 29.2296 22.6591 28.8371C22.9719 28.6499 23.3522 28.6161 23.6384 28.4012C23.9838 28.1411 24.3284 27.869 24.6721 27.5848C24.8243 27.4592 24.7953 27.266 24.9559 27.161C25.2337 26.9798 25.474 26.7818 25.6768 26.5668C26.2287 25.9824 26.7757 25.4933 27.2105 24.7422C27.5812 24.1022 27.9555 23.4899 28.1463 22.7605C28.3524 21.9748 28.4736 21.2756 28.5098 20.663C28.5424 20.1244 28.7707 19.6196 28.6958 19.0702C28.6386 18.6475 28.6056 18.2156 28.5968 17.7744C28.5936 17.5812 28.567 17.392 28.5171 17.2069C28.4519 16.9569 28.4494 16.7178 28.3758 16.463C27.7664 14.3795 26.6542 12.6096 25.0392 11.1532C25.0111 11.1194 24.9958 11.0876 24.9933 11.0578C24.9909 11.0208 25.0086 10.9999 25.0465 10.9951L25.0972 10.989Z" fill="#0DB7EA"/>
<path d="M22.3443 15.5018C21.9176 15.4945 21.4934 15.47 21.0715 15.4281C20.853 15.4064 20.4907 15.4631 20.2866 15.538C19.7999 15.7143 19.2916 15.8387 18.8327 16.0886C18.2176 16.4235 17.6738 16.9042 17.2012 17.5305C16.944 17.8722 16.8148 18.2563 16.6168 18.627C16.3306 19.1595 16.298 19.7537 16.1869 20.3369C16.1253 20.6569 16.1856 20.9914 16.1989 21.3187C16.2183 21.7788 16.3668 22.1833 16.4803 22.6217C16.5878 23.0395 16.8836 23.6107 17.1324 23.8908C17.3787 24.1678 17.5349 24.3622 17.6009 24.4741C17.5003 24.4983 17.4319 24.5055 17.3956 24.4958C16.9561 24.3759 16.5515 24.2121 16.182 24.0044C15.856 23.822 15.4997 23.7773 15.2534 23.4682C15.1512 23.3394 15.0336 23.2263 14.9008 23.1289C14.4701 22.8125 14.1509 22.3838 13.9432 21.8428C13.8691 21.6488 13.7809 21.464 13.6787 21.2885C13.4034 20.8187 13.3865 20.3671 13.2947 19.8756C13.2311 19.5351 13.2186 19.2143 13.2573 18.9132C13.3482 18.2112 13.5032 17.6134 13.7222 17.1199C13.9685 16.566 14.398 15.9562 15.0107 15.2904C15.1902 15.0948 15.3963 14.9253 15.629 14.782C16.2291 14.4125 16.7725 14.0514 17.4995 14.0128C17.8078 13.9967 18.1154 13.9613 18.4221 13.9065C18.8725 13.8256 19.364 14.0201 19.8108 14.0961C20.058 14.138 20.285 14.2145 20.4919 14.3256C20.8047 14.491 21.1428 14.5441 21.4543 14.7241C21.8013 14.9237 22.098 15.183 22.3443 15.5018Z" fill="#0DB7EA"/>
<path d="M22.3439 15.5017C22.4276 15.55 22.4916 15.6003 22.5359 15.6526L23.2785 16.6658C23.3799 16.8031 23.4552 16.9578 23.5007 17.1223C23.6368 17.6077 23.762 18.1246 23.8763 18.6728C23.9028 18.8032 23.9093 18.9256 23.8956 19.0399C23.8557 19.3599 23.863 19.6848 23.7905 19.9903C23.7277 20.26 23.6722 20.5373 23.6239 20.8223C23.5055 21.5203 23.0467 22.2883 22.5974 22.7701C21.8922 23.5249 20.8247 24.3098 19.791 24.5006C19.5632 24.5433 19.335 24.5855 19.1063 24.6274C18.6201 24.7176 18.166 24.7055 17.7442 24.5912L17.6005 24.474C17.5344 24.3621 17.3783 24.1677 17.1319 23.8908C16.8832 23.6106 16.5873 23.0394 16.4798 22.6216C16.3663 22.1833 16.2178 21.7787 16.1985 21.3186C16.1852 20.9914 16.1248 20.6569 16.1864 20.3369C16.2975 19.7536 16.3301 19.1595 16.6163 18.6269C16.8143 18.2562 16.9435 17.8722 17.2008 17.5304C17.6733 16.9041 18.2171 16.4235 18.8322 16.0886C19.2911 15.8386 19.7995 15.7142 20.2861 15.5379C20.4902 15.463 20.8525 15.4063 21.0711 15.428C21.4929 15.4699 21.9172 15.4944 22.3439 15.5017Z" fill="white"/>
<path d="M17.7441 24.5913C18.166 24.7056 18.62 24.7177 19.1063 24.6275C19.3349 24.5857 19.5632 24.5434 19.791 24.5007C20.8247 24.3099 21.8922 23.525 22.5974 22.7703C23.0466 22.2884 23.5055 21.5204 23.6239 20.8224C23.6722 20.5374 23.7277 20.2601 23.7905 19.9904C23.863 19.6849 23.8557 19.36 23.8956 19.04C23.9093 18.9257 23.9028 18.8033 23.8762 18.6729C23.7619 18.1247 23.6367 17.6078 23.5007 17.1224C23.4552 16.9579 23.3799 16.8032 23.2785 16.6659L22.5358 15.6528C22.7782 15.5481 23.0438 15.5646 23.3328 15.7023C24.0558 16.0468 24.6326 16.4015 25.0633 16.7662C25.9859 17.5471 26.5506 18.5244 26.7575 19.6982C26.9113 20.5676 26.8908 21.3449 26.696 22.03C26.4327 22.955 26.0451 23.9621 25.3121 24.5623C25.0114 24.8087 24.724 25.1021 24.3798 25.2808C23.9294 25.5139 23.4681 25.7675 22.9488 25.8822C22.269 26.0307 21.583 26.1636 20.9225 26.0802C20.7277 26.0561 20.4946 25.9953 20.2233 25.8979C19.312 25.5718 18.6333 25.2949 18.1873 25.0671C18.0585 25.0011 17.9108 24.8425 17.7441 24.5913Z" fill="#107DBE"/>
<circle cx="20" cy="20" r="19.5" stroke="black" stroke-opacity="0.05"/>
</svg>
