<svg width="40" height="40" viewBox="0 0 40 40" fill="none" xmlns="http://www.w3.org/2000/svg">
<circle cx="20" cy="20" r="20" fill="#F6F8FA"/>
<path d="M20.3838 9.00058L20.3938 9.29489C20.3951 9.35898 20.4277 9.39953 20.4914 9.41654C20.514 9.42177 20.5359 9.42112 20.5572 9.41458C20.6887 9.37403 20.7199 9.41261 20.6508 9.53034C20.5804 9.65198 20.4742 9.75205 20.332 9.83053C20.3165 9.839 20.2987 9.84225 20.2814 9.83976C20.2641 9.83727 20.2482 9.82919 20.2364 9.8168C20.2178 9.79587 20.2098 9.77167 20.2125 9.7442C20.214 9.7302 20.2111 9.71609 20.2042 9.70376C20.1973 9.69144 20.1867 9.6815 20.1739 9.67529C20.161 9.66908 20.1466 9.6669 20.1325 9.66905C20.1183 9.6712 20.1052 9.67757 20.0949 9.6873C20.0564 9.72262 20.0344 9.76709 20.0291 9.82072C20.0251 9.8495 20.0278 9.87762 20.0371 9.90509C20.0876 10.0712 20.0411 10.187 19.8976 10.2524C19.8272 10.2838 19.8206 10.3243 19.8777 10.374C19.9202 10.4119 19.958 10.4538 19.9913 10.4996C20.0431 10.5715 20.0238 10.6101 19.9335 10.6153C19.8564 10.6193 19.8053 10.5833 19.78 10.5074C19.7766 10.4977 19.7708 10.4891 19.7631 10.4822C19.7553 10.4753 19.7459 10.4705 19.7358 10.4681C19.7257 10.4658 19.7151 10.466 19.705 10.4687C19.695 10.4715 19.6858 10.4767 19.6784 10.4839L19.0806 11.0921C19.0698 11.1031 19.0636 11.1177 19.0633 11.1329C19.0629 11.1482 19.0684 11.1631 19.0786 11.1745C19.1065 11.2046 19.1397 11.2262 19.1782 11.2393C19.2553 11.2654 19.2672 11.3086 19.2141 11.3688C19.1902 11.3976 19.159 11.4106 19.1205 11.408C19.0926 11.4067 19.0693 11.3949 19.0507 11.3727C18.979 11.2851 18.8886 11.2798 18.7797 11.357C18.615 11.4734 18.6209 11.5702 18.7976 11.6474C18.8229 11.6592 18.8222 11.6886 18.7956 11.7357C18.7624 11.7932 18.7153 11.807 18.6542 11.7769C18.6369 11.7677 18.6223 11.7546 18.6103 11.7376C18.5625 11.6631 18.5067 11.6565 18.4429 11.718L17.9766 12.1752C17.9567 12.1948 17.9368 12.1948 17.9169 12.1752L17.879 12.1359C17.8551 12.1137 17.8551 12.0908 17.879 12.0673C17.9786 11.9692 18.0816 11.8488 18.1879 11.7062C18.2702 11.5951 18.255 11.58 18.142 11.6611C18.0198 11.7501 17.8943 11.8501 17.7654 11.9613C17.7163 12.0045 17.7083 12.0535 17.7415 12.1085C17.877 12.3348 17.9076 12.6022 17.8332 12.9109C17.8279 12.9306 17.8192 12.9489 17.8073 12.9659C17.7953 12.9816 17.7807 12.9933 17.7634 13.0012C17.709 13.0261 17.6784 13.0673 17.6718 13.1248L17.612 13.5702C17.6027 13.6395 17.5721 13.6977 17.5203 13.7448C17.4419 13.8181 17.4034 13.9077 17.4047 14.0136C17.4053 14.0409 17.3984 14.0678 17.3847 14.0913C17.371 14.1148 17.351 14.1341 17.327 14.147C17.1384 14.2517 17.0308 14.3943 17.0042 14.5748C16.9949 14.6375 16.965 14.6879 16.9145 14.7258C16.8229 14.7952 16.787 14.8854 16.8069 14.9966C16.8202 15.0712 16.7897 15.0973 16.7153 15.0751C16.69 15.0685 16.6661 15.0731 16.6435 15.0888C16.597 15.1215 16.5698 15.1653 16.5618 15.2203C16.518 15.5244 16.1254 15.6971 15.9222 15.9188C15.7776 16.0781 15.6384 16.2421 15.5057 16.4093C15.345 16.612 15.149 16.7324 14.9179 16.7703C14.8182 16.786 14.7491 16.8396 14.7106 16.9312C14.6402 17.0986 14.518 17.2131 14.344 17.2745C14.0756 17.3687 13.8963 17.44 13.8059 17.4884C13.523 17.6388 13.2035 17.6911 12.8474 17.6454C12.6747 17.6231 12.5014 17.6395 12.3273 17.6944C12.2051 17.7323 12.1766 17.8056 12.2417 17.9142C12.3107 18.0293 12.3194 18.1391 12.2676 18.2438C12.2237 18.3354 12.1739 18.3386 12.1181 18.2536C12.0291 18.1228 12.0019 17.9756 12.0364 17.8121C12.0431 17.7821 12.0311 17.7637 12.0005 17.7572L11.9507 17.7454C11.9441 17.7441 11.9401 17.7467 11.9388 17.7533C11.8883 18.0371 11.8425 18.3183 11.8013 18.597C11.7973 18.6205 11.7853 18.6382 11.7654 18.6499C11.7588 18.6539 11.7521 18.6545 11.7455 18.6519C11.7003 18.6388 11.6784 18.6087 11.6797 18.5616C11.685 18.4243 11.6644 18.2961 11.6179 18.1771C11.6073 18.1483 11.5841 18.1352 11.5482 18.1378C11.4658 18.1444 11.4247 18.1889 11.4247 18.2713V18.595C11.4233 18.6813 11.3808 18.7134 11.2971 18.6911C11.244 18.6767 11.2068 18.6434 11.1855 18.5911C11.1603 18.5309 11.1364 18.5316 11.1138 18.593C11.1072 18.6127 11.0952 18.629 11.0779 18.6421C11.0022 18.7036 11.0122 18.7245 11.1078 18.7049C11.2181 18.6826 11.3224 18.7003 11.4207 18.7578C11.4791 18.7945 11.5429 18.8102 11.612 18.8049L12.1002 18.7755L12.0942 18.8697C12.0915 18.9299 12.0597 18.9599 11.9986 18.9599L9.29047 18.958C9.12707 18.958 9.06065 18.8788 9.0912 18.7206C9.17224 18.3007 9.25195 17.8828 9.33033 17.4668C9.40605 17.0653 9.52296 16.6656 9.68104 16.268C10.4781 14.251 11.5834 12.665 12.9969 11.51C14.5233 10.2635 16.2018 9.4754 18.0324 9.14578C18.6103 9.04244 19.3941 8.99404 20.3838 9.00058Z" fill="#000099"/>
<path d="M20.3834 9.00061C22.8544 9.08563 25.0616 9.90315 27.0052 11.4532C27.2509 11.6494 27.4761 11.8842 27.6807 12.1575C27.7205 12.2112 27.7066 12.2413 27.6388 12.2478C25.4203 12.4924 23.3791 13.2125 21.5153 14.408C19.8202 15.495 18.503 16.9194 17.5638 18.6814C17.395 18.7899 17.3007 18.9521 17.2808 19.1679C17.0961 19.3798 16.9865 19.6231 16.952 19.8978C16.7826 20.2431 16.5036 20.8219 16.6292 21.1967C16.6415 21.2343 16.6632 21.2683 16.6922 21.2957C16.7213 21.323 16.7568 21.3428 16.7957 21.3533C16.8346 21.3637 16.8756 21.3646 16.915 21.3558C16.9545 21.347 16.9911 21.3287 17.0217 21.3026C17.5777 20.8278 17.7172 20.2392 18.1197 19.682C18.3336 19.3864 18.4625 19.2039 18.5063 19.1346C19.7644 17.1856 21.3831 15.6474 23.3625 14.5198C23.9324 14.1955 24.6099 13.9123 25.3951 13.6703C25.3154 13.9136 25.1672 14.0718 24.9507 14.1451C24.8046 14.1948 24.7129 14.2792 24.6757 14.3982C24.6651 14.4335 24.6412 14.4486 24.604 14.4433C24.5668 14.4381 24.5395 14.4518 24.5223 14.4845C24.3403 14.8259 24.1084 15.1176 23.8268 15.3596C23.6422 15.5192 23.4615 15.5198 23.2848 15.3616C23.2582 15.3367 23.2423 15.3419 23.237 15.3773C23.2317 15.4087 23.2124 15.4237 23.1792 15.4224C23.0477 15.4132 22.9254 15.4466 22.8125 15.5225C22.7634 15.5552 22.7089 15.5682 22.6491 15.5617C22.5309 15.5512 22.4558 15.6042 22.424 15.7206C22.4147 15.7559 22.4279 15.7775 22.4638 15.7854C22.4917 15.7919 22.5017 15.8083 22.4937 15.8344C22.4738 15.9024 22.4299 15.926 22.3622 15.9051C22.2692 15.8763 22.1994 15.9037 22.1529 15.9875C22.1264 16.0359 22.0865 16.0686 22.0334 16.0856C21.7783 16.1667 21.6461 16.3282 21.6368 16.5702C21.6342 16.6304 21.6043 16.6709 21.5472 16.6918C21.3705 16.7546 21.215 16.8436 21.0809 16.9587C20.8471 17.1601 20.5953 17.355 20.3256 17.5434C20.2645 17.5852 20.2307 17.6428 20.224 17.716L20.1662 18.3046C20.1583 18.3844 20.1284 18.4551 20.0766 18.5165C19.9065 18.7154 19.7591 18.9364 19.6342 19.1797C19.597 19.2503 19.5458 19.3092 19.4807 19.3563C19.3864 19.4243 19.3426 19.5106 19.3492 19.6153C19.3532 19.682 19.3346 19.7422 19.2934 19.7958C18.948 20.2288 18.6265 20.6663 18.329 21.1084C18.1031 21.442 17.7657 21.7108 17.3167 21.9148C17.2423 21.9488 17.1692 21.9475 17.0975 21.9109L16.5734 21.6362C16.5176 21.6061 16.4605 21.6048 16.402 21.6323C16.2838 21.6859 16.2386 21.7801 16.2665 21.9148C16.2682 21.9244 16.268 21.9343 16.2658 21.9437C16.2635 21.9532 16.2594 21.9621 16.2536 21.9698C16.2478 21.9776 16.2404 21.984 16.232 21.9887C16.2236 21.9934 16.2143 21.9963 16.2047 21.9972C16.129 22.0051 16.0712 22.0378 16.0314 22.0953C15.9278 22.2457 15.8095 22.3837 15.6767 22.5093C15.6235 22.559 15.6242 22.6087 15.6787 22.6584C15.7278 22.7042 15.765 22.7526 15.7903 22.8036C14.6783 22.3739 14.5388 21.1025 14.6086 20.0901C14.6883 18.9031 14.2619 18.0319 12.8929 18.1889C12.5329 18.2294 12.2685 18.425 12.0998 18.7755L11.6116 18.805C11.5425 18.8102 11.4787 18.7945 11.4203 18.7579C11.322 18.7003 11.2177 18.6827 11.1074 18.7049C11.0118 18.7245 11.0018 18.7036 11.0775 18.6421C11.0948 18.629 11.1068 18.6127 11.1134 18.5931C11.136 18.5316 11.1599 18.5309 11.1851 18.5911C11.2064 18.6434 11.2436 18.6768 11.2967 18.6912C11.3804 18.7134 11.4229 18.6814 11.4243 18.595V18.2713C11.4243 18.1889 11.4654 18.1444 11.5478 18.1379C11.5837 18.1352 11.6069 18.1483 11.6176 18.1771C11.664 18.2961 11.6846 18.4243 11.6793 18.5617C11.678 18.6088 11.6999 18.6388 11.7451 18.6519C11.7517 18.6545 11.7584 18.6539 11.765 18.65C11.7849 18.6382 11.7969 18.6205 11.8009 18.597C11.8421 18.3184 11.8879 18.0371 11.9384 17.7533C11.9397 17.7468 11.9437 17.7441 11.9503 17.7455L12.0002 17.7572C12.0307 17.7638 12.0427 17.7821 12.036 17.8122C12.0015 17.9757 12.0287 18.1228 12.1177 18.2536C12.1735 18.3386 12.2233 18.3354 12.2672 18.2438C12.319 18.1392 12.3103 18.0293 12.2413 17.9142C12.1762 17.8056 12.2047 17.7324 12.327 17.6944C12.501 17.6395 12.6743 17.6232 12.847 17.6454C13.2031 17.6912 13.5226 17.6389 13.8055 17.4884C13.8959 17.44 14.0752 17.3687 14.3436 17.2746C14.5176 17.2131 14.6398 17.0986 14.7102 16.9312C14.7487 16.8396 14.8178 16.786 14.9175 16.7703C15.1486 16.7324 15.3446 16.612 15.5053 16.4093C15.638 16.2421 15.7772 16.0782 15.9218 15.9188C16.125 15.6971 16.5176 15.5244 16.5614 15.2203C16.5694 15.1654 16.5966 15.1215 16.6431 15.0888C16.6657 15.0731 16.6896 15.0686 16.7149 15.0751C16.7893 15.0973 16.8198 15.0712 16.8065 14.9966C16.7866 14.8854 16.8225 14.7952 16.9141 14.7259C16.9646 14.6879 16.9945 14.6376 17.0038 14.5748C17.0304 14.3943 17.138 14.2517 17.3266 14.1471C17.3507 14.1341 17.3706 14.1148 17.3843 14.0913C17.398 14.0678 17.4049 14.0409 17.4043 14.0136C17.403 13.9077 17.4415 13.8181 17.5199 13.7448C17.5717 13.6978 17.6023 13.6395 17.6116 13.5702L17.6714 13.1248C17.678 13.0673 17.7086 13.0261 17.763 13.0012C17.7803 12.9934 17.7949 12.9816 17.8069 12.9659C17.8188 12.9489 17.8275 12.9306 17.8328 12.911C17.9072 12.6023 17.8766 12.3348 17.7411 12.1085C17.7079 12.0536 17.7159 12.0045 17.765 11.9613C17.8939 11.8502 18.0194 11.7501 18.1416 11.6611C18.2546 11.58 18.2698 11.5951 18.1875 11.7063C18.0812 11.8488 17.9782 11.9692 17.8786 12.0673C17.8547 12.0908 17.8547 12.1137 17.8786 12.136L17.9165 12.1752C17.9364 12.1948 17.9563 12.1948 17.9763 12.1752L18.4425 11.718C18.5063 11.6566 18.5621 11.6631 18.6099 11.7377C18.6219 11.7547 18.6365 11.7678 18.6538 11.7769C18.7149 11.807 18.762 11.7933 18.7952 11.7357C18.8218 11.6886 18.8225 11.6592 18.7972 11.6474C18.6206 11.5702 18.6146 11.4734 18.7793 11.357C18.8882 11.2799 18.9786 11.2851 19.0503 11.3727C19.0689 11.395 19.0922 11.4067 19.1201 11.408C19.1586 11.4107 19.1898 11.3976 19.2137 11.3688C19.2669 11.3086 19.2549 11.2655 19.1778 11.2393C19.1393 11.2262 19.1061 11.2046 19.0782 11.1746C19.068 11.1631 19.0625 11.1482 19.0629 11.133C19.0632 11.1177 19.0694 11.1031 19.0802 11.0922L19.678 10.4839C19.6855 10.4767 19.6946 10.4715 19.7047 10.4688C19.7147 10.466 19.7253 10.4658 19.7354 10.4681C19.7456 10.4705 19.7549 10.4753 19.7627 10.4822C19.7704 10.4891 19.7762 10.4978 19.7796 10.5075C19.8049 10.5833 19.856 10.6193 19.9331 10.6154C20.0234 10.6101 20.0427 10.5716 19.9909 10.4996C19.9577 10.4538 19.9198 10.412 19.8773 10.374C19.8202 10.3243 19.8268 10.2838 19.8972 10.2524C20.0407 10.187 20.0872 10.0712 20.0367 9.90511C20.0274 9.87765 20.0247 9.84952 20.0287 9.82075C20.034 9.76712 20.056 9.72264 20.0945 9.68733C20.1048 9.6776 20.1179 9.67123 20.1321 9.66908C20.1462 9.66693 20.1606 9.66911 20.1735 9.67531C20.1863 9.68152 20.1969 9.69146 20.2038 9.70379C20.2107 9.71611 20.2136 9.73023 20.2121 9.74423C20.2094 9.77169 20.2174 9.79589 20.236 9.81682C20.2478 9.82922 20.2637 9.8373 20.281 9.83979C20.2983 9.84227 20.3161 9.83903 20.3316 9.83056C20.4738 9.75207 20.58 9.65201 20.6504 9.53036C20.7195 9.41264 20.6883 9.37405 20.5568 9.4146C20.5355 9.42114 20.5136 9.4218 20.491 9.41656C20.4273 9.39956 20.3947 9.35901 20.3934 9.29492L20.3834 9.00061Z" fill="#000099"/>
<path d="M20.1004 20.1843C19.7683 20.51 19.591 20.8874 19.5684 21.3164L19.144 22.3406C18.857 22.8782 18.7374 23.5217 18.7853 24.2712C18.6431 24.5852 18.5594 24.8913 18.5342 25.1895C18.2526 26.4151 17.7922 27.5688 17.1532 28.6505C16.8251 29.2078 16.4093 29.7074 15.9058 30.1495C15.8567 30.1927 15.8015 30.2006 15.7404 30.1731C13.4555 29.1476 11.682 27.5485 10.4199 25.3759C10.5023 25.3693 10.578 25.3556 10.6471 25.3347C10.683 25.3229 10.7188 25.3203 10.7547 25.3268C10.7945 25.3334 10.8005 25.3582 10.7726 25.4014C10.764 25.4147 10.7593 25.4301 10.7591 25.4458C10.7589 25.4616 10.7632 25.4771 10.7715 25.4906C10.7798 25.504 10.7918 25.515 10.8061 25.5221C10.8204 25.5292 10.8364 25.5323 10.8523 25.5309C11.0144 25.5191 11.1001 25.4321 11.1094 25.2699C11.1107 25.2385 11.1273 25.2196 11.1592 25.213C11.1791 25.2091 11.1957 25.1999 11.209 25.1856C11.2954 25.094 11.3113 25.1045 11.2569 25.217C11.2183 25.2954 11.2097 25.3752 11.2309 25.4563C11.2416 25.4969 11.2681 25.5171 11.3107 25.5171H11.3884C11.4628 25.5171 11.4907 25.4818 11.4721 25.4112C11.4389 25.2791 11.48 25.1856 11.5956 25.1306C11.6501 25.1045 11.6727 25.0613 11.6634 25.0011C11.6594 24.9789 11.6481 24.9625 11.6295 24.9521C11.5697 24.9181 11.5192 24.9285 11.478 24.9835C11.4634 25.0031 11.4455 25.0181 11.4242 25.0286C11.3312 25.0718 11.3193 25.0567 11.3884 24.9835C11.5066 24.8566 11.6634 24.7997 11.8586 24.8128C11.9769 24.8206 12.0473 24.767 12.0699 24.6519C12.0735 24.6364 12.0727 24.62 12.0675 24.6045C12.0622 24.589 12.0527 24.5748 12.04 24.5636L12.0021 24.5302C11.9078 24.4465 11.9244 24.4066 12.0519 24.4105C12.0732 24.4105 12.0951 24.4138 12.1177 24.4204C12.1708 24.4347 12.2173 24.423 12.2572 24.385C12.4033 24.2464 12.4937 24.0966 12.5282 23.9357C12.5375 23.8873 12.5588 23.8821 12.592 23.92C12.6531 23.9894 12.7248 24.0077 12.8072 23.975C12.8322 23.9657 12.8532 23.9481 12.8663 23.9251C12.8794 23.9021 12.8839 23.8753 12.8789 23.8494C12.8603 23.7461 12.8769 23.6467 12.9287 23.5512C12.9487 23.5132 12.9759 23.5067 13.0104 23.5316L13.0543 23.5629C13.0994 23.5956 13.1466 23.5976 13.1957 23.5688C13.2701 23.5244 13.3007 23.4622 13.2874 23.3824C13.2865 23.3767 13.284 23.3714 13.2803 23.367C13.2765 23.3626 13.2715 23.3593 13.266 23.3574C13.2604 23.3556 13.2545 23.3553 13.2488 23.3566C13.243 23.3579 13.2378 23.3607 13.2336 23.3648C13.219 23.3805 13.2024 23.3851 13.1838 23.3785C13.0762 23.3445 13.0769 23.3131 13.1858 23.2843C13.2934 23.2569 13.4076 23.2294 13.5285 23.2019C13.6507 23.1732 13.6879 23.1058 13.6401 22.9998C13.6215 22.9606 13.6341 22.9449 13.678 22.9527C13.7444 22.9645 13.8015 22.9449 13.8494 22.8939C13.8733 22.8677 13.8899 22.8272 13.8992 22.7722C13.939 22.5473 13.9995 22.491 14.0805 22.6035C14.2798 22.8939 14.3675 23.2372 14.6604 23.4354C15.4276 23.9534 16.5455 23.9534 17.4541 23.7984C17.5073 23.7892 17.5272 23.7591 17.5139 23.7081C17.4674 23.5302 17.4541 23.3517 17.4741 23.1725C17.4794 23.1202 17.4555 23.0934 17.4023 23.0921L16.8344 23.0665L15.7902 22.8036C15.765 22.7526 15.7278 22.7042 15.6787 22.6584C15.6242 22.6087 15.6235 22.559 15.6767 22.5093C15.8095 22.3838 15.9277 22.2458 16.0314 22.0953C16.0712 22.0378 16.129 22.0051 16.2047 21.9972C16.2143 21.9963 16.2236 21.9935 16.232 21.9887C16.2404 21.984 16.2478 21.9776 16.2536 21.9699C16.2594 21.9621 16.2635 21.9532 16.2657 21.9438C16.268 21.9343 16.2682 21.9244 16.2665 21.9148C16.2386 21.7801 16.2838 21.6859 16.402 21.6323C16.4605 21.6048 16.5176 21.6061 16.5734 21.6362L17.0975 21.9109C17.1692 21.9475 17.2423 21.9488 17.3166 21.9148C17.7657 21.7108 18.1031 21.442 18.3289 21.1084C18.6265 20.6663 18.948 20.2288 19.2934 19.7958C19.3346 19.7422 19.3532 19.682 19.3492 19.6153C19.3426 19.5107 19.3864 19.4243 19.4807 19.3563C19.5458 19.3092 19.597 19.2504 19.6342 19.1797C19.759 18.9364 19.9065 18.7154 20.0765 18.5166C20.1283 18.4551 20.1582 18.3844 20.1662 18.3047L20.224 17.716C20.2306 17.6428 20.2645 17.5852 20.3256 17.5434C20.5953 17.355 20.847 17.1601 21.0809 16.9587C21.215 16.8436 21.3705 16.7546 21.5471 16.6919C21.6043 16.6709 21.6342 16.6304 21.6368 16.5702C21.6461 16.3282 21.7783 16.1667 22.0334 16.0856C22.0865 16.0686 22.1264 16.0359 22.1529 15.9875C22.1994 15.9038 22.2692 15.8763 22.3622 15.9051C22.4299 15.926 22.4737 15.9025 22.4937 15.8344C22.5016 15.8083 22.4917 15.7919 22.4638 15.7854C22.4279 15.7775 22.4146 15.756 22.4239 15.7206C22.4558 15.6042 22.5309 15.5512 22.6491 15.5617C22.7089 15.5683 22.7634 15.5552 22.8125 15.5225C22.9254 15.4466 23.0476 15.4133 23.1792 15.4224C23.2124 15.4237 23.2316 15.4087 23.237 15.3773C23.2423 15.342 23.2582 15.3367 23.2848 15.3616C23.4615 15.5199 23.6421 15.5192 23.8268 15.3596C24.1084 15.1176 24.3402 14.8259 24.5222 14.4846C24.5395 14.4518 24.5667 14.4381 24.6039 14.4433C24.6411 14.4486 24.6651 14.4335 24.6757 14.3982C24.7129 14.2792 24.8045 14.1948 24.9507 14.1451C25.1672 14.0719 25.3153 13.9136 25.395 13.6703C26.3901 13.3655 27.4236 13.2125 28.4957 13.2112C28.5648 13.2112 28.6232 13.2354 28.671 13.2838C28.9022 13.5192 29.128 13.8201 29.3486 14.1863C30.0633 15.3714 30.5256 16.5336 30.7355 17.6729C30.871 18.4106 31.0463 19.1974 31.0344 19.941C31.0224 20.6696 30.9301 21.4557 30.7574 22.2994C30.3456 24.3164 29.405 26.0927 27.9357 27.6283C25.6508 30.0142 22.8125 31.1338 19.4209 30.9873C18.5694 30.9507 17.7584 30.8291 16.9879 30.6224C16.9777 30.6199 16.9683 30.615 16.9606 30.608C16.9528 30.6011 16.9469 30.5924 16.9434 30.5828C16.9398 30.5731 16.9387 30.5627 16.9402 30.5525C16.9418 30.5423 16.9458 30.5326 16.952 30.5243C17.6973 29.5315 18.2738 28.4844 18.6816 27.383C19.1068 26.2372 19.4395 24.9429 19.68 23.5002C19.7717 22.9508 19.9437 22.4112 20.1961 21.8815C20.4498 21.3504 20.7368 20.8488 21.0569 20.3766C22.7773 17.8403 25.2031 16.3498 28.3343 15.9051C28.406 15.8946 28.4419 15.8541 28.4419 15.7834V15.289C28.4419 15.2079 28.4007 15.1713 28.3183 15.1791C26.0148 15.391 24.1297 16.096 22.6631 17.2942C22.2698 17.6147 21.8029 18.0555 21.2622 18.6166C21.0762 18.8089 20.8809 19.0679 20.6763 19.3936C20.501 19.6709 20.309 19.9345 20.1004 20.1843ZM21.9875 21.4498C21.4894 22.2935 21.1825 23.1934 21.0669 24.1496C21.0483 24.2974 21.1114 24.3949 21.2562 24.4419L21.4136 24.493C21.5996 24.5531 21.7165 24.4897 21.7643 24.3026C22.2094 22.5093 23.0483 21.1169 24.2811 20.1254C25.0184 19.5316 25.9444 19.0391 27.0589 18.648C27.1592 18.6133 27.2458 18.5481 27.3063 18.4618C27.3668 18.3754 27.3981 18.2724 27.3957 18.1673C27.3944 18.1582 27.3931 18.1111 27.3917 18.026C27.3851 17.7854 27.2635 17.6951 27.0271 17.7553C25.6229 18.1137 24.3648 18.7952 23.2529 19.7997C22.8371 20.1738 22.4153 20.7239 21.9875 21.4498Z" fill="#000099"/>
<path d="M17.5642 18.6813C17.5071 18.8762 17.4128 19.0384 17.2812 19.1679C17.3012 18.952 17.3955 18.7898 17.5642 18.6813Z" fill="#000099"/>
<path d="M17.2809 19.168C17.2331 19.4453 17.1235 19.6886 16.9521 19.8979C16.9867 19.6232 17.0963 19.3799 17.2809 19.168Z" fill="#000099"/>
<path d="M14.0806 22.6035C13.9996 22.491 13.9391 22.5472 13.8993 22.7722C13.89 22.8272 13.8734 22.8677 13.8494 22.8939C13.8016 22.9449 13.7445 22.9645 13.6781 22.9527C13.6342 22.9449 13.6216 22.9606 13.6402 22.9998C13.688 23.1058 13.6508 23.1731 13.5286 23.2019C13.4077 23.2294 13.2935 23.2569 13.1859 23.2843C13.0769 23.3131 13.0763 23.3445 13.1839 23.3785C13.2025 23.385 13.2191 23.3805 13.2337 23.3648C13.2379 23.3607 13.2431 23.3579 13.2488 23.3566C13.2546 23.3553 13.2605 23.3556 13.2661 23.3574C13.2716 23.3592 13.2766 23.3625 13.2804 23.367C13.2841 23.3714 13.2866 23.3767 13.2875 23.3824C13.3008 23.4622 13.2702 23.5243 13.1958 23.5688C13.1467 23.5976 13.0995 23.5956 13.0544 23.5629L13.0105 23.5315C12.976 23.5067 12.9487 23.5132 12.9288 23.5512C12.877 23.6466 12.8604 23.7461 12.879 23.8494C12.884 23.8753 12.8795 23.9021 12.8664 23.9251C12.8533 23.948 12.8323 23.9657 12.8073 23.975C12.7249 24.0077 12.6532 23.9893 12.5921 23.92C12.5588 23.8821 12.5376 23.8873 12.5283 23.9357C12.4937 24.0966 12.4034 24.2464 12.2573 24.385C12.2174 24.423 12.1709 24.4347 12.1178 24.4203C12.0952 24.4138 12.0733 24.4105 12.052 24.4105C11.9245 24.4066 11.9079 24.4465 12.0022 24.5302L12.0401 24.5636C12.0528 24.5748 12.0623 24.5889 12.0675 24.6045C12.0728 24.62 12.0736 24.6364 12.07 24.6519C12.0474 24.767 11.977 24.8206 11.8587 24.8128C11.6635 24.7997 11.5067 24.8566 11.3885 24.9835C11.3194 25.0567 11.3313 25.0717 11.4243 25.0286C11.4456 25.0181 11.4635 25.0031 11.4781 24.9835C11.5193 24.9285 11.5698 24.9181 11.6296 24.9521C11.6482 24.9625 11.6595 24.9789 11.6635 25.0011C11.6728 25.0613 11.6502 25.1044 11.5957 25.1306C11.4801 25.1855 11.4389 25.2791 11.4722 25.4112C11.4908 25.4818 11.4629 25.5171 11.3885 25.5171H11.3107C11.2682 25.5171 11.2417 25.4969 11.231 25.4563C11.2098 25.3752 11.2184 25.2954 11.2569 25.2169C11.3114 25.1044 11.2955 25.094 11.2091 25.1855C11.1958 25.1999 11.1792 25.2091 11.1593 25.213C11.1274 25.2196 11.1108 25.2385 11.1095 25.2699C11.1002 25.4321 11.0145 25.5191 10.8524 25.5309C10.8365 25.5322 10.8205 25.5292 10.8062 25.5221C10.7919 25.515 10.7799 25.504 10.7716 25.4905C10.7633 25.4771 10.759 25.4616 10.7592 25.4458C10.7594 25.43 10.7641 25.4146 10.7727 25.4014C10.8006 25.3582 10.7946 25.3334 10.7548 25.3268C10.7189 25.3203 10.683 25.3229 10.6472 25.3347C10.5781 25.3556 10.5024 25.3693 10.42 25.3759C10.2633 25.058 10.1118 24.7317 9.96568 24.3968C9.28816 22.835 8.98062 21.2556 9.04306 19.6585C9.04572 19.5852 9.08424 19.5486 9.15864 19.5486C10.3875 19.5617 11.5605 19.5597 12.6777 19.5427C13.3553 19.5329 13.9172 20.3 13.9431 20.8847C13.9843 21.8017 14.0301 22.3746 14.0806 22.6035Z" fill="#000099"/>
<path d="M20.1004 20.1843L19.5684 21.3164C19.5909 20.8874 19.7683 20.51 20.1004 20.1843Z" fill="#000099"/>
<path d="M19.1443 22.3407L18.7856 24.2714C18.7378 23.5219 18.8574 22.8783 19.1443 22.3407Z" fill="#000099"/>
<path d="M15.791 22.8037L16.8352 23.0666C16.4473 23.0457 16.0992 22.9581 15.791 22.8037Z" fill="#000099"/>
<path d="M18.7853 24.2712C18.7507 24.5969 18.667 24.903 18.5342 25.1895C18.5594 24.8912 18.6431 24.5852 18.7853 24.2712Z" fill="#000099"/>
<circle cx="20" cy="20" r="19.5" stroke="black" stroke-opacity="0.05"/>
</svg>
