<svg width="40" height="40" viewBox="0 0 40 40" fill="none" xmlns="http://www.w3.org/2000/svg">
<circle cx="20" cy="20" r="20" fill="#0066B2"/>
<mask id="mask0_14382_20304" style="mask-type:luminance" maskUnits="userSpaceOnUse" x="9" y="19" width="7" height="9">
<path fill-rule="evenodd" clip-rule="evenodd" d="M15.2608 19.9588L9.81594 19.992C9.65346 19.992 9.52393 20.1281 9.52961 20.2905V20.2939C9.52961 20.2939 9.52393 20.2996 9.52393 20.3042C9.61937 22.9564 10.6852 25.3559 12.3725 27.156C12.3725 27.1606 12.3816 27.1652 12.3816 27.1675C12.4339 27.2155 12.5066 27.251 12.5861 27.251C12.7088 27.251 12.8111 27.172 12.8531 27.0691L15.5324 20.3637C15.5483 20.3271 15.5574 20.287 15.5517 20.2516C15.5517 20.0869 15.4256 19.9588 15.2665 19.9588C15.2642 19.9588 15.2631 19.9588 15.2608 19.9588Z" fill="white"/>
</mask>
<g mask="url(#mask0_14382_20304)">
<path fill-rule="evenodd" clip-rule="evenodd" d="M9.81594 19.992C9.65346 19.992 9.52393 20.1281 9.52961 20.2905C9.52961 20.2939 9.52393 20.2996 9.52393 20.3042C9.61937 22.9564 10.6852 25.3559 12.3725 27.156C12.3725 27.1606 12.3816 27.1652 12.3816 27.1675C12.4339 27.2155 12.5066 27.251 12.5861 27.251C12.7088 27.251 12.8111 27.172 12.8531 27.0691L15.5324 20.3637C15.5483 20.3271 15.5574 20.287 15.5517 20.2516C15.5517 20.0869 15.4256 19.9588 15.2665 19.9588L9.81594 19.992Z" fill="white"/>
</g>
<mask id="mask1_14382_20304" style="mask-type:luminance" maskUnits="userSpaceOnUse" x="15" y="19" width="10" height="12">
<path fill-rule="evenodd" clip-rule="evenodd" d="M20.001 19.9268C19.3318 19.9302 18.7557 20.3545 18.5307 20.9458C18.5273 20.9504 18.5273 20.9538 18.5228 20.9572L15.2936 29.0408C15.2936 29.0442 15.2867 29.0488 15.2867 29.0488C15.2731 29.0888 15.2686 29.1186 15.2686 29.1586C15.2686 29.2696 15.3356 29.3702 15.4276 29.4171H15.4299C16.7934 30.0873 18.316 30.4659 19.9306 30.4761H20.0715C21.7338 30.4601 23.312 30.0598 24.7005 29.353C24.7051 29.3496 24.7085 29.3496 24.713 29.345C24.7994 29.2947 24.8562 29.1975 24.8562 29.0923C24.8562 29.0511 24.8471 29.0122 24.8346 28.9802V28.9768L21.4372 20.8188C21.1759 20.2893 20.6373 19.9268 20.0124 19.9268C20.009 19.9268 20.0044 19.9268 20.001 19.9268Z" fill="white"/>
</mask>
<g mask="url(#mask1_14382_20304)">
<path fill-rule="evenodd" clip-rule="evenodd" d="M20.001 19.9268C19.3318 19.9302 18.7557 20.3545 18.5307 20.9458C18.5273 20.9504 18.5273 20.9538 18.5228 20.9572L15.2936 29.0408C15.2936 29.0442 15.2867 29.0488 15.2867 29.0488C15.2731 29.0888 15.2686 29.1186 15.2686 29.1586C15.2686 29.2696 15.3356 29.3702 15.4276 29.4171H15.4299C16.7934 30.0873 18.316 30.4659 19.9306 30.4761H20.0715C21.7338 30.4601 23.312 30.0598 24.7005 29.353C24.7051 29.3496 24.7085 29.3496 24.713 29.345C24.7994 29.2947 24.8562 29.1975 24.8562 29.0923C24.8562 29.0511 24.8471 29.0122 24.8346 28.9802V28.9768L21.4372 20.8188C21.1759 20.2893 20.6373 19.9268 20.0124 19.9268C20.009 19.9268 20.0044 19.9268 20.001 19.9268Z" fill="white"/>
</g>
<mask id="mask2_14382_20304" style="mask-type:luminance" maskUnits="userSpaceOnUse" x="24" y="19" width="7" height="9">
<path fill-rule="evenodd" clip-rule="evenodd" d="M24.7362 19.8902C24.5748 19.8902 24.4453 20.0252 24.4453 20.1887C24.4487 20.2242 24.4533 20.2596 24.4692 20.2939V20.3042L27.2428 26.9662C27.2859 27.0737 27.3916 27.1469 27.512 27.1469C27.5939 27.1469 27.6677 27.108 27.7234 27.0566C27.7234 27.0566 27.7234 27.0531 27.7279 27.0531C29.3903 25.2244 30.422 22.8043 30.4765 20.1487C30.4765 20.1487 30.4765 20.1452 30.472 20.1418C30.472 19.9828 30.3424 19.8513 30.1822 19.8513L24.7362 19.8902Z" fill="white"/>
</mask>
<g mask="url(#mask2_14382_20304)">
<path fill-rule="evenodd" clip-rule="evenodd" d="M24.7362 19.8902C24.5748 19.8902 24.4453 20.0252 24.4453 20.1887C24.4487 20.2242 24.4533 20.2596 24.4692 20.2939V20.3042L27.2428 26.9662C27.2859 27.0737 27.3916 27.1469 27.512 27.1469C27.5939 27.1469 27.6677 27.108 27.7234 27.0566C27.7234 27.0566 27.7234 27.0531 27.7279 27.0531C29.3903 25.2244 30.422 22.8043 30.4765 20.1487C30.4765 20.1487 30.4765 20.1452 30.472 20.1418C30.472 19.9828 30.3424 19.8513 30.1822 19.8513L24.7362 19.8902Z" fill="white"/>
</g>
<mask id="mask3_14382_20304" style="mask-type:luminance" maskUnits="userSpaceOnUse" x="21" y="9" width="9" height="8">
<path fill-rule="evenodd" clip-rule="evenodd" d="M21.7149 9.5238C21.5535 9.5238 21.4263 9.65533 21.4263 9.81773L21.432 10.3095C21.4263 11.9073 21.7615 13.6491 22.4648 15.4721L22.9761 16.7062C23.0159 16.8045 23.1091 16.8777 23.2193 16.8846H23.2443L29.622 16.8411C29.7845 16.8411 29.9129 16.7096 29.9129 16.5483C29.9129 16.5152 29.9095 16.4832 29.8993 16.4568L29.8947 16.4523C28.6573 12.8702 25.5577 10.1746 21.7649 9.52723C21.7649 9.52723 21.7581 9.52723 21.7535 9.5238H21.7149Z" fill="white"/>
</mask>
<g mask="url(#mask3_14382_20304)">
<path fill-rule="evenodd" clip-rule="evenodd" d="M21.7149 9.5238C21.5535 9.5238 21.4263 9.65533 21.4263 9.81773L21.432 10.3095C21.4263 11.9073 21.7615 13.6491 22.4648 15.4721L22.9761 16.7062C23.0159 16.8045 23.1091 16.8777 23.2193 16.8846H23.2443L29.622 16.8411C29.7845 16.8411 29.9129 16.7096 29.9129 16.5483C29.9129 16.5152 29.9095 16.4832 29.8993 16.4568L29.8947 16.4523C28.6573 12.8702 25.5577 10.1746 21.7649 9.52723C21.7649 9.52723 21.7581 9.52723 21.7535 9.5238H21.7149Z" fill="white"/>
</g>
<mask id="mask4_14382_20304" style="mask-type:luminance" maskUnits="userSpaceOnUse" x="10" y="9" width="9" height="8">
<path fill-rule="evenodd" clip-rule="evenodd" d="M18.0978 9.55241H18.0898C14.3061 10.2501 11.2406 12.9995 10.052 16.5918V16.5964C10.0441 16.6238 10.0361 16.6559 10.0361 16.6867C10.0395 16.8491 10.1713 16.9795 10.3361 16.9795L16.7184 16.9338C16.7184 16.9338 16.7298 16.9338 16.7434 16.9281H16.7502H16.7695C16.8638 16.9086 16.9422 16.8377 16.982 16.7496L17.474 15.5087C18.1501 13.6766 18.4603 11.9324 18.4319 10.3335H18.4364L18.4319 9.83833C18.4319 9.67479 18.2966 9.54669 18.1364 9.54669C18.1285 9.54669 18.1137 9.54669 18.0978 9.55241Z" fill="white"/>
</mask>
<g mask="url(#mask4_14382_20304)">
<path fill-rule="evenodd" clip-rule="evenodd" d="M18.0978 9.55241H18.0898C14.3061 10.2501 11.2406 12.9995 10.052 16.5918V16.5964C10.0441 16.6238 10.0361 16.6559 10.0361 16.6867C10.0395 16.8491 10.1713 16.9795 10.3361 16.9795L16.7184 16.9338C16.7184 16.9338 16.7298 16.9338 16.7434 16.9281H16.7502H16.7695C16.8638 16.9086 16.9422 16.8377 16.982 16.7496L17.474 15.5087C18.1501 13.6766 18.4603 11.9324 18.4319 10.3335H18.4364L18.4319 9.83833C18.4319 9.67479 18.2966 9.54669 18.1364 9.54669C18.1285 9.54669 18.1137 9.54669 18.0978 9.55241Z" fill="white"/>
</g>
<circle cx="20" cy="20" r="19.5" stroke="black" stroke-opacity="0.05"/>
</svg>
