<svg width="40" height="40" viewBox="0 0 40 40" fill="none" xmlns="http://www.w3.org/2000/svg">
<circle cx="20" cy="20" r="20" fill="#102D5D"/>
<path d="M12.3186 19.943L8.94688 19.9455L5 23.8986L8.37199 23.896L12.3186 19.943Z" fill="#ED1639"/>
<path d="M16.3584 18.9059C15.8629 18.725 15.5624 18.5703 15.4565 18.4421C15.3452 18.3139 15.2903 18.123 15.2903 17.8699C15.2903 17.673 15.3395 17.5263 15.4381 17.4292C15.5365 17.3323 15.682 17.2838 15.8741 17.2838C16.051 17.2838 16.2267 17.3197 16.3023 17.3917C16.3785 17.4634 16.4683 17.6306 16.4683 17.893V18.218H19.3321V17.9179C19.3321 17.3151 19.2369 17.1255 19.0476 16.8739C18.8579 16.6223 18.4713 16.4137 17.8872 16.2482C17.3034 16.0825 16.5971 16 15.768 16C15.0096 16 14.3622 16.0755 13.8267 16.2271C13.291 16.3788 12.9027 16.5887 12.6629 16.8575C12.4225 17.1262 12.3022 17.551 12.3022 18.132C12.3022 18.5351 12.3868 18.8661 12.5565 19.1254C12.7258 19.3849 12.9395 19.5879 13.1972 19.7349C13.4552 19.8816 13.9806 20.1175 14.7743 20.4423C15.5681 20.764 16.0662 20.9937 16.2684 21.1312C16.4654 21.2686 16.564 21.5608 16.564 22.0074C16.564 22.2104 16.5126 22.3635 16.4087 22.4666C16.3049 22.5696 16.147 22.621 15.9348 22.621C15.7225 22.621 15.5014 22.5807 15.418 22.4995C15.3346 22.4183 15.1589 22.2356 15.1589 21.9514V21.0279H12.3022V21.5246C12.3022 22.289 12.4731 22.5457 12.6816 22.8417C12.8999 23.1511 13.2642 23.4052 13.8684 23.6051C14.4724 23.8051 15.2017 23.9053 16.0561 23.9053C16.8344 23.9053 17.5171 23.8184 18.1035 23.6452C18.6899 23.4718 19.0856 23.257 19.2901 23.0008C19.4949 22.7449 19.5972 22.3466 19.5972 21.8057C19.5972 21.0623 19.4129 20.5235 19.0436 20.1892C18.6746 19.8549 17.7797 19.427 16.3584 18.9059ZM24.93 19.6205L22.4973 16.0008H20.4712V23.9045H22.6949V20.2583L25.133 23.9045H27.1537V16.0008H24.93V19.6205ZM28.0239 18.2006H30.1348V23.9042H32.9374V18.2006H35.0002V16.0008H28.0239V18.2006Z" fill="white"/>
<circle cx="20" cy="20" r="19.5" stroke="black" stroke-opacity="0.05"/>
</svg>
