<svg width="40" height="40" viewBox="0 0 40 40" fill="none" xmlns="http://www.w3.org/2000/svg">
<circle cx="20" cy="20" r="20" fill="#E87127"/>
<g clip-path="url(#clip0_17713_28028)">
<path d="M16.7134 20.7127C16.4277 18.1126 19.1543 16.0278 22.8039 16.0559C26.4534 16.084 29.6392 18.2156 29.925 20.8111C30.2108 23.4065 27.4888 25.496 23.8346 25.4679C20.1803 25.4398 16.9992 23.3128 16.7088 20.7127M30.5996 21.5185C30.2717 18.2953 26.5987 15.653 22.401 15.6202C18.2033 15.5874 15.0643 18.1735 15.3736 21.3967C15.6828 24.6199 19.3698 27.2622 23.5722 27.295C27.7746 27.3278 30.9088 24.7464 30.5996 21.5185Z" fill="white"/>
<path d="M24.2658 27.3747C22.1998 29.5391 18.8782 29.7171 16.8496 27.7776C14.821 25.838 14.8585 22.5117 16.9292 20.3519C19 18.1922 22.3169 18.0095 24.3455 19.9537C26.3741 21.898 26.3366 25.2149 24.2658 27.3747ZM16.6294 20.2817C14.2213 22.7928 14.1839 26.6579 16.5404 28.9113C18.8969 31.1648 22.7526 30.9586 25.156 28.4428C27.5594 25.927 27.6015 22.0666 25.245 19.8132C22.8885 17.5597 19.0328 17.7659 16.6294 20.2817Z" fill="white"/>
<path d="M16.821 12.1955C21.1265 10.5839 25.3757 12.1955 26.3221 15.8357C27.2685 19.4759 24.5465 23.7064 20.2317 25.318C15.9169 26.9296 11.677 25.318 10.7306 21.6731C9.78427 18.0282 12.5062 13.8071 16.821 12.1955ZM12.8295 13.601C8.36473 17.1334 7.20755 22.254 10.2902 25.0322C13.3729 27.8104 19.4493 27.206 23.914 23.6736C28.3788 20.1411 29.5125 15.0205 26.4533 12.2376C23.394 9.45479 17.2895 10.0638 12.8295 13.601Z" fill="white"/>
</g>
<circle cx="20" cy="20" r="19.5" stroke="black" stroke-opacity="0.05"/>
<defs>
<clipPath id="clip0_17713_28028">
<rect width="22.0567" height="20" fill="white" transform="translate(8.57129 10.4761)"/>
</clipPath>
</defs>
</svg>
