<svg width="40" height="40" viewBox="0 0 40 40" fill="none" xmlns="http://www.w3.org/2000/svg">
<circle cx="20" cy="20" r="20" fill="#F6F8FA"/>
<path d="M20.034 25.1255L20.0307 9.60191C20.0307 9.51539 20.0605 9.50319 20.1203 9.56531C20.9376 10.405 21.5232 11.4183 21.8772 12.6051C22.0254 13.1032 22.1111 13.609 22.1343 14.1226C22.1564 14.594 22.1094 15.0998 21.9933 15.64C21.7024 16.9954 21.1251 18.2256 20.2613 19.3304C20.2472 19.3478 20.2383 19.3689 20.2356 19.3912C20.2329 19.4135 20.2365 19.4361 20.2459 19.4566C20.2554 19.4771 20.2703 19.4947 20.2891 19.5074C20.308 19.52 20.3299 19.5273 20.3525 19.5284C20.6993 19.5433 20.9597 19.6848 21.2998 19.728C22.2134 19.8412 22.955 19.8234 23.5246 19.6748C25.9086 19.0492 26.8111 16.3987 26.5705 14.1625C26.3382 12.0012 24.296 10.3689 22.272 9.75665C22.262 9.75443 22.2582 9.74833 22.2604 9.73834L22.2703 9.69509C22.2714 9.68732 22.2764 9.68399 22.2853 9.6851C22.5861 9.71949 22.9638 9.82653 23.4184 10.0062C27.2905 11.5303 29.8172 14.8763 30.0229 18.9959C30.1938 22.4251 28.5663 25.7561 25.7659 27.7078C22.632 29.8957 18.7001 30.1104 15.334 28.3467C10.6207 25.8742 8.6714 19.8861 11.0521 15.0759C12.3826 12.3872 14.5592 10.5913 17.582 9.68843C17.6019 9.68288 17.6151 9.69009 17.6218 9.71006H17.6234C17.6312 9.73446 17.6234 9.7511 17.6002 9.75997C17.3403 9.86202 17.0832 9.97073 16.8288 10.0861C12.0608 12.2441 10.6838 18.3088 13.9471 22.302C15.449 24.14 17.4387 25.1183 19.9162 25.237C19.9947 25.2414 20.034 25.2043 20.034 25.1255Z" fill="#00A1E9"/>
<circle cx="20" cy="20" r="19.5" stroke="black" stroke-opacity="0.05"/>
</svg>
