<svg width="40" height="40" viewBox="0 0 40 40" fill="none" xmlns="http://www.w3.org/2000/svg">
<circle cx="20" cy="20" r="20" fill="#F6F8FA"/>
<path d="M33 20.0091C33 22.203 31.6304 24.3071 29.1924 25.8584C26.7544 27.4098 23.4478 28.2813 20 28.2813C16.5522 28.2813 13.2456 27.4098 10.8076 25.8584C8.36964 24.3071 7 22.203 7 20.0091C7 17.8151 8.36964 15.711 10.8076 14.1597C13.2456 12.6084 16.5522 11.7368 20 11.7368C23.4478 11.7368 26.7544 12.6084 29.1924 14.1597C31.6304 15.711 33 17.8151 33 20.0091ZM19.2045 14.0822C19.2045 14.0653 19.1978 14.0492 19.1859 14.0372C19.174 14.0253 19.1579 14.0186 19.141 14.0186H17.5766C17.5597 14.0186 17.5436 14.0253 17.5316 14.0372C17.5197 14.0492 17.513 14.0653 17.513 14.0822V18.7411C17.513 18.7579 17.5197 18.7741 17.5316 18.786C17.5436 18.7979 17.5597 18.8046 17.5766 18.8046H19.141C19.1579 18.8046 19.174 18.7979 19.1859 18.786C19.1978 18.7741 19.2045 18.7579 19.2045 18.7411V14.0822ZM13.1956 14.9345C13.3385 14.9337 13.3862 15.0003 13.3385 15.1344C12.9741 16.1553 12.2735 16.8828 11.2367 17.3169C11.1785 17.3416 11.1648 17.3814 11.1957 17.4361L11.6351 18.2262C11.673 18.2933 11.7291 18.3176 11.8032 18.299C12.7773 18.0661 13.5657 17.5768 14.1684 16.8312C14.2134 16.7756 14.2575 16.7765 14.3008 16.8338C14.8911 17.6077 15.6601 18.0992 16.6077 18.3083C16.628 18.313 16.6492 18.3111 16.6683 18.303C16.6873 18.2949 16.7032 18.281 16.7136 18.2633L17.1702 17.4903C17.1791 17.4754 17.1848 17.4588 17.187 17.4416C17.1892 17.4244 17.188 17.4069 17.1833 17.3902C17.1786 17.3735 17.1705 17.358 17.1597 17.3445C17.1488 17.3309 17.1353 17.3198 17.1199 17.3116C16.1776 16.8087 15.3133 16.0516 15.1108 15.0563C15.0993 15.0016 15.1218 14.9742 15.1783 14.9742L16.6607 14.9848C16.7057 14.9848 16.7282 14.9623 16.7282 14.9173V14.1219C16.7282 14.0778 16.7065 14.0557 16.6633 14.0557L11.7992 14.057C11.711 14.057 11.6669 14.1007 11.6669 14.188V14.8459C11.666 14.9094 11.6978 14.9407 11.7622 14.9398L13.1956 14.9345ZM25.7835 15.7369C25.7945 15.3137 25.6371 14.9034 25.3457 14.5964C25.0542 14.2893 24.6528 14.1105 24.2296 14.0994L22.4487 14.0528C22.0255 14.0417 21.6152 14.1992 21.3081 14.4906C21.0011 14.782 20.8223 15.1835 20.8112 15.6067L20.8052 15.8369C20.7941 16.2601 20.9516 16.6704 21.243 16.9775C21.5344 17.2845 21.9359 17.4633 22.3591 17.4744L24.14 17.521C24.5632 17.5321 24.9734 17.3746 25.2805 17.0832C25.5876 16.7918 25.7664 16.3903 25.7774 15.9671L25.7835 15.7369ZM28.2167 15.6453C28.2163 15.6366 28.2177 15.6278 28.2208 15.6197C28.2239 15.6115 28.2286 15.604 28.2347 15.5977C28.2407 15.5914 28.248 15.5864 28.2561 15.583C28.2641 15.5795 28.2728 15.5778 28.2815 15.5778L28.9751 15.5804C28.9923 15.5804 29.0088 15.5736 29.0209 15.5614C29.0331 15.5493 29.0399 15.5328 29.0399 15.5156L29.0386 14.6473C29.0386 14.6386 29.0368 14.6299 29.0334 14.6219C29.03 14.6138 29.025 14.6066 29.0187 14.6005C29.0124 14.5944 29.0049 14.5897 28.9967 14.5866C28.9885 14.5835 28.9798 14.5821 28.9711 14.5825L28.2736 14.605C28.2647 14.6053 28.2559 14.6039 28.2476 14.6007C28.2394 14.5975 28.2318 14.5927 28.2255 14.5865C28.2192 14.5803 28.2142 14.5729 28.2108 14.5646C28.2075 14.5564 28.2059 14.5476 28.2061 14.5388L28.2153 14.1523C28.2155 14.1437 28.214 14.1351 28.2108 14.1271C28.2076 14.1191 28.2029 14.1118 28.1968 14.1056C28.1908 14.0994 28.1836 14.0945 28.1756 14.0912C28.1677 14.0879 28.1591 14.0861 28.1505 14.0861H26.7157C26.6985 14.0861 26.682 14.093 26.6699 14.1051C26.6577 14.1173 26.6509 14.1338 26.6509 14.151L26.6535 17.403C26.6535 17.4202 26.6604 17.4367 26.6725 17.4488C26.6847 17.461 26.7012 17.4678 26.7184 17.4678L28.214 17.4784C28.2312 17.4784 28.2477 17.4716 28.2599 17.4594C28.272 17.4473 28.2789 17.4308 28.2789 17.4136L28.2775 16.8947C28.2775 16.8861 28.2793 16.8776 28.2826 16.8696C28.2859 16.8616 28.2908 16.8544 28.297 16.8484C28.3032 16.8424 28.3105 16.8376 28.3185 16.8344C28.3265 16.8312 28.3351 16.8297 28.3437 16.8299L29.0095 16.8471C29.0181 16.8473 29.0267 16.8457 29.0347 16.8425C29.0427 16.8393 29.05 16.8346 29.0562 16.8286C29.0623 16.8225 29.0672 16.8153 29.0706 16.8074C29.0739 16.7994 29.0756 16.7909 29.0756 16.7822L29.0809 16.0225C29.0811 16.0138 29.0795 16.0051 29.0763 15.997C29.073 15.9889 29.0681 15.9815 29.062 15.9753C29.0558 15.9691 29.0484 15.9643 29.0403 15.961C29.0322 15.9577 29.0235 15.9561 29.0148 15.9563L28.2895 15.9643C28.2725 15.9643 28.2562 15.9576 28.2441 15.9457C28.2319 15.9339 28.2249 15.9177 28.2246 15.9007L28.2167 15.6453ZM28.653 19.204C28.6517 18.834 28.5035 18.4797 28.241 18.219C27.9785 17.9583 27.6231 17.8126 27.2531 17.8139L22.2792 17.8312C22.096 17.8319 21.9147 17.8686 21.7457 17.9393C21.5767 18.01 21.4233 18.1133 21.2942 18.2433C21.1651 18.3733 21.0629 18.5274 20.9934 18.6969C20.9239 18.8664 20.8884 19.0479 20.8891 19.2311L20.8898 19.4535C20.8911 19.8235 21.0394 20.1778 21.3019 20.4385C21.5644 20.6992 21.9198 20.8449 22.2897 20.8436L27.2636 20.8263C27.4468 20.8256 27.6281 20.7889 27.7971 20.7182C27.9661 20.6475 28.1196 20.5442 28.2486 20.4142C28.3777 20.2842 28.48 20.1301 28.5495 19.9606C28.619 19.7911 28.6544 19.6096 28.6538 19.4264L28.653 19.204ZM13.4801 19.9416C13.4629 19.9416 13.4465 19.9347 13.4343 19.9226C13.4221 19.9104 13.4153 19.8939 13.4153 19.8767L13.4219 18.7874C13.4219 18.7702 13.4151 18.7537 13.4029 18.7416C13.3908 18.7294 13.3743 18.7226 13.3571 18.7226L11.7317 18.7265C11.7232 18.7265 11.7148 18.7282 11.7069 18.7315C11.699 18.7347 11.6919 18.7395 11.6859 18.7455C11.6798 18.7516 11.6751 18.7587 11.6718 18.7666C11.6685 18.7744 11.6669 18.7829 11.6669 18.7914L11.6708 20.8085C11.6708 20.8257 11.6777 20.8422 11.6898 20.8544C11.702 20.8665 11.7185 20.8733 11.7357 20.8733H19.1423C19.1595 20.8733 19.176 20.8665 19.1882 20.8544C19.2004 20.8422 19.2072 20.8257 19.2072 20.8085L19.2032 20.0077C19.2032 19.9905 19.1964 19.974 19.1842 19.9619C19.1721 19.9497 19.1556 19.9429 19.1384 19.9429L13.4801 19.9416ZM13.1307 22.2048C12.097 22.5728 10.6914 22.4894 9.67094 21.9335C9.01358 21.5753 8.28915 21.1072 7.49766 20.5292C7.3953 20.4542 7.35692 20.4789 7.38251 20.6033L7.59163 21.6185C7.61888 21.749 7.69228 21.8648 7.79811 21.9441C8.55871 22.5176 9.40535 22.9297 10.338 23.1803C11.6192 23.5258 12.6926 23.2822 13.901 22.8468C14.5399 22.6165 15.2833 22.4934 16.1312 22.4775C16.7599 22.4643 17.2999 22.6443 17.8744 22.8362C19.2045 23.2809 20.671 23.3378 21.9933 22.864C23.1461 22.4497 24.5425 22.1916 25.7244 22.6085C26.6774 22.9465 27.6563 23.1225 28.6614 23.1366C29.5985 23.1512 30.611 22.7237 31.4554 22.3134C31.8966 22.0981 32.1865 21.8691 32.325 21.6265C32.5456 21.2409 32.6537 20.786 32.6493 20.2619C32.6475 20.1048 32.6047 20.0924 32.5209 20.2248C32.0034 21.0375 31.0914 21.6887 30.1795 21.9759C28.7483 22.4276 27.3515 22.3676 25.9891 21.7959C24.6814 21.2479 23.2599 21.5722 21.9893 21.9957C20.439 22.5137 19.0166 22.4806 17.7222 21.8965C16.302 21.2572 14.5416 21.7032 13.1307 22.2048ZM13.7554 23.6541C12.101 24.2246 10.076 24.2206 8.59224 23.228C8.49253 23.1618 8.47224 23.1808 8.53136 23.2849C8.81328 23.7786 9.24343 24.4152 9.79139 24.6137C11.0382 25.0664 12.1976 25.0823 13.2697 24.6614C14.6594 24.1161 16.3986 23.9162 17.7777 24.492C19.2456 25.1048 20.6353 25.1114 22.078 24.5409C23.1011 24.1372 24.6285 23.9083 25.7284 24.2736C26.9513 24.6799 28.1174 24.9221 29.4158 24.7831C29.8835 24.7328 30.2841 24.5798 30.6176 24.3239C31.072 23.9762 31.3923 23.5844 31.5785 23.1485C31.6367 23.0127 31.6023 22.9822 31.4753 23.0572C30.4014 23.6916 29.3007 23.9961 28.173 23.9705C27.4927 23.9559 26.9566 23.7428 26.324 23.5787C25.2722 23.3078 24.1913 23.258 23.0812 23.4291C22.6498 23.4953 22.2342 23.6502 21.8225 23.7852C20.6552 24.1664 19.2945 24.0936 18.155 23.7177C16.7255 23.2438 15.1015 23.1896 13.7554 23.6541ZM17.6322 26.1041C19.0854 26.6502 20.5109 26.6913 21.9086 26.2271C23.2943 25.7679 24.5147 25.6461 25.9388 26.0207C26.4144 26.1468 26.8785 26.2761 27.3312 26.4085C27.3655 26.4188 27.4023 26.4174 27.4358 26.4045C27.9475 26.206 28.4275 25.9576 28.8758 25.6593C28.9834 25.5879 28.9729 25.5557 28.844 25.5627C28.0578 25.6024 27.3352 25.5318 26.676 25.3509C25.874 25.1304 25.4178 25.0143 25.3075 25.0029C24.1657 24.8793 23.1695 24.9521 22.3189 25.2212C21.5962 25.4498 21.129 25.576 20.9172 25.5998C19.8465 25.7229 18.8392 25.6289 17.8611 25.2636C16.5045 24.7553 14.8408 24.8546 13.5384 25.4224C12.8488 25.7242 12.1036 25.8049 11.3505 25.7176C11.2376 25.7043 11.2288 25.7295 11.3241 25.793C11.6938 26.0383 12.0957 26.2642 12.5298 26.4707C12.627 26.5159 12.7374 26.5234 12.8395 26.4919C13.4581 26.3013 14.1097 26.1195 14.7944 25.9466C15.7589 25.703 16.7048 25.7555 17.6322 26.1041Z" fill="#261B81"/>
<path d="M19.1407 14.0188H17.5762C17.5411 14.0188 17.5127 14.0472 17.5127 14.0823V18.7413C17.5127 18.7763 17.5411 18.8048 17.5762 18.8048H19.1407C19.1758 18.8048 19.2042 18.7763 19.2042 18.7413V14.0823C19.2042 14.0472 19.1758 14.0188 19.1407 14.0188Z" fill="white"/>
<path d="M13.1956 14.9346L11.7622 14.9399C11.6978 14.9408 11.666 14.9095 11.6669 14.846V14.1881C11.6669 14.1008 11.711 14.0571 11.7993 14.0571L16.6634 14.0558C16.7066 14.0558 16.7282 14.0778 16.7282 14.122V14.9174C16.7282 14.9624 16.7057 14.9849 16.6607 14.9849L15.1783 14.9743C15.1219 14.9743 15.0994 15.0017 15.1108 15.0564C15.3133 16.0517 16.1776 16.8088 17.12 17.3117C17.1353 17.3199 17.1488 17.331 17.1597 17.3446C17.1706 17.3581 17.1786 17.3736 17.1833 17.3903C17.188 17.407 17.1893 17.4245 17.1871 17.4417C17.1848 17.4589 17.1791 17.4755 17.1703 17.4904L16.7137 18.2634C16.7032 18.2811 16.6874 18.295 16.6683 18.3031C16.6493 18.3112 16.6281 18.313 16.6078 18.3084C15.6601 18.0993 14.8911 17.6078 14.3008 16.8339C14.2576 16.7766 14.2135 16.7757 14.1685 16.8313C13.5658 17.5769 12.7774 18.0662 11.8033 18.2991C11.7291 18.3176 11.6731 18.2934 11.6352 18.2263L11.1957 17.4362C11.1649 17.3814 11.1785 17.3417 11.2368 17.317C12.2736 16.8829 12.9742 16.1554 13.3386 15.1345C13.3862 15.0004 13.3386 14.9337 13.1956 14.9346Z" fill="white"/>
<path d="M25.7775 15.9675C25.7664 16.3907 25.5876 16.7921 25.2806 17.0835C24.9735 17.3749 24.5632 17.5324 24.14 17.5213L22.3591 17.4747C21.9359 17.4636 21.5345 17.2849 21.243 16.9778C20.9516 16.6707 20.7942 16.2604 20.8052 15.8373L20.8113 15.607C20.8223 15.1838 21.0011 14.7824 21.3082 14.491C21.6153 14.1996 22.0255 14.0421 22.4487 14.0532L24.2296 14.0998C24.6528 14.1109 25.0543 14.2896 25.3457 14.5967C25.6371 14.9038 25.7946 15.314 25.7835 15.7372L25.7775 15.9675ZM24.3474 15.7491C24.3538 15.6475 24.3401 15.5456 24.3071 15.4492C24.2741 15.3528 24.2225 15.2639 24.1551 15.1875C24.0878 15.1111 24.006 15.0487 23.9145 15.0039C23.8231 14.9591 23.7237 14.9327 23.622 14.9264L23.1069 14.8939C23.0052 14.8875 22.9033 14.9012 22.8069 14.9342C22.7106 14.9672 22.6216 15.0189 22.5452 15.0862C22.4688 15.1536 22.4064 15.2353 22.3616 15.3268C22.3168 15.4183 22.2905 15.5177 22.2841 15.6193L22.2704 15.836C22.264 15.9376 22.2777 16.0395 22.3107 16.1359C22.3437 16.2323 22.3954 16.3212 22.4627 16.3976C22.5301 16.474 22.6118 16.5364 22.7033 16.5812C22.7948 16.626 22.8942 16.6523 22.9958 16.6587L23.511 16.6911C23.6126 16.6975 23.7146 16.6839 23.8109 16.6509C23.9073 16.6179 23.9962 16.5662 24.0726 16.4989C24.149 16.4315 24.2114 16.3498 24.2562 16.2583C24.301 16.1668 24.3274 16.0674 24.3338 15.9658L24.3474 15.7491Z" fill="white"/>
<path d="M28.2171 15.6457L28.2251 15.9011C28.2254 15.9181 28.2324 15.9343 28.2445 15.9462C28.2567 15.958 28.273 15.9647 28.2899 15.9647L29.0152 15.9567C29.024 15.9566 29.0327 15.9581 29.0408 15.9614C29.0489 15.9647 29.0563 15.9695 29.0624 15.9757C29.0686 15.9819 29.0735 15.9893 29.0768 15.9974C29.08 16.0055 29.0816 16.0142 29.0814 16.0229L29.0761 16.7826C29.0761 16.7913 29.0744 16.7998 29.0711 16.8078C29.0677 16.8157 29.0628 16.8229 29.0567 16.829C29.0505 16.835 29.0432 16.8398 29.0352 16.8429C29.0272 16.8461 29.0186 16.8477 29.0099 16.8475L28.3442 16.8303C28.3356 16.8301 28.327 16.8317 28.319 16.8348C28.311 16.838 28.3036 16.8428 28.2975 16.8488C28.2913 16.8548 28.2864 16.8621 28.2831 16.87C28.2797 16.878 28.278 16.8865 28.278 16.8951L28.2793 17.414C28.2793 17.4312 28.2725 17.4477 28.2603 17.4598C28.2482 17.472 28.2317 17.4788 28.2145 17.4788L26.7189 17.4682C26.7017 17.4682 26.6852 17.4614 26.673 17.4492C26.6608 17.4371 26.654 17.4206 26.654 17.4034L26.6514 14.1514C26.6514 14.1342 26.6582 14.1177 26.6704 14.1055C26.6825 14.0934 26.699 14.0865 26.7162 14.0865H28.151C28.1596 14.0865 28.1681 14.0883 28.1761 14.0916C28.184 14.0949 28.1913 14.0998 28.1973 14.106C28.2033 14.1122 28.2081 14.1195 28.2113 14.1275C28.2144 14.1355 28.216 14.1441 28.2158 14.1527L28.2065 14.5392C28.2064 14.5481 28.208 14.5569 28.2113 14.5651C28.2147 14.5733 28.2197 14.5807 28.226 14.5869C28.2323 14.5931 28.2398 14.5979 28.2481 14.6011C28.2564 14.6043 28.2652 14.6057 28.2741 14.6054L28.9716 14.5829C28.9803 14.5825 28.989 14.5839 28.9972 14.587C29.0054 14.5901 29.0128 14.5949 29.0191 14.6009C29.0255 14.607 29.0305 14.6142 29.0339 14.6223C29.0373 14.6303 29.0391 14.639 29.0391 14.6477L29.0404 15.516C29.0404 15.5332 29.0336 15.5497 29.0214 15.5619C29.0092 15.574 28.9927 15.5808 28.9755 15.5808L28.282 15.5782C28.2732 15.5782 28.2646 15.58 28.2565 15.5834C28.2485 15.5868 28.2412 15.5918 28.2352 15.5981C28.2291 15.6044 28.2244 15.6119 28.2213 15.6201C28.2182 15.6282 28.2168 15.637 28.2171 15.6457Z" fill="white"/>
<path d="M23.6223 14.9262L23.1071 14.8938C22.6796 14.8669 22.3112 15.1917 22.2843 15.6192L22.2707 15.8358C22.2438 16.2633 22.5685 16.6317 22.9961 16.6586L23.5112 16.691C23.9387 16.7179 24.3071 16.3931 24.334 15.9656L24.3476 15.749C24.3745 15.3215 24.0498 14.9531 23.6223 14.9262Z" fill="#261B81"/>
<path d="M28.6534 19.4261C28.6541 19.6093 28.6186 19.7908 28.5491 19.9603C28.4796 20.1298 28.3774 20.284 28.2483 20.414C28.1192 20.544 27.9658 20.6473 27.7967 20.718C27.6277 20.7886 27.4465 20.8254 27.2633 20.826L22.2894 20.8434C21.9194 20.8447 21.564 20.6989 21.3015 20.4382C21.039 20.1775 20.8908 19.8232 20.8895 19.4532L20.8887 19.2309C20.888 19.0477 20.9235 18.8661 20.993 18.6966C21.0625 18.5271 21.1647 18.373 21.2938 18.243C21.4229 18.113 21.5764 18.0097 21.7454 17.939C21.9144 17.8683 22.0956 17.8316 22.2788 17.831L27.2528 17.8136C27.6227 17.8123 27.9781 17.9581 28.2406 18.2188C28.5031 18.4795 28.6513 18.8338 28.6526 19.2038L28.6534 19.4261ZM27.0173 19.2186C27.0175 19.0964 26.9692 18.9792 26.883 18.8927C26.7968 18.8061 26.6797 18.7574 26.5575 18.7572L22.9839 18.7509C22.9235 18.7508 22.8635 18.7626 22.8076 18.7857C22.7517 18.8087 22.7009 18.8426 22.658 18.8853C22.6152 18.928 22.5811 18.9787 22.5579 19.0345C22.5347 19.0904 22.5226 19.1503 22.5225 19.2107L22.5221 19.449C22.5219 19.5711 22.5702 19.6884 22.6565 19.7749C22.7427 19.8614 22.8598 19.9102 22.9819 19.9104L26.5555 19.9166C26.616 19.9167 26.6759 19.9049 26.7318 19.8819C26.7878 19.8588 26.8386 19.825 26.8814 19.7823C26.9243 19.7396 26.9583 19.6889 26.9816 19.633C27.0048 19.5772 27.0168 19.5173 27.0169 19.4568L27.0173 19.2186Z" fill="white"/>
<path d="M13.4803 19.9414L19.1385 19.9427C19.1557 19.9427 19.1722 19.9496 19.1843 19.9617C19.1965 19.9739 19.2033 19.9904 19.2033 20.0076L19.2073 20.8083C19.2073 20.8255 19.2005 20.842 19.1883 20.8542C19.1762 20.8664 19.1597 20.8732 19.1425 20.8732H11.7358C11.7186 20.8732 11.7021 20.8664 11.69 20.8542C11.6778 20.842 11.671 20.8255 11.671 20.8083L11.667 18.7912C11.667 18.7827 11.6687 18.7743 11.6719 18.7664C11.6752 18.7586 11.68 18.7514 11.686 18.7454C11.692 18.7394 11.6992 18.7346 11.707 18.7313C11.7149 18.7281 11.7233 18.7264 11.7318 18.7264L13.3572 18.7224C13.3744 18.7224 13.3909 18.7292 13.403 18.7414C13.4152 18.7536 13.422 18.7701 13.422 18.7873L13.4154 19.8766C13.4154 19.8938 13.4222 19.9103 13.4344 19.9224C13.4466 19.9346 13.4631 19.9414 13.4803 19.9414Z" fill="white"/>
<path d="M26.5576 18.7569L22.984 18.7507C22.7297 18.7502 22.5231 18.9561 22.5226 19.2105L22.5222 19.4487C22.5218 19.7031 22.7276 19.9097 22.982 19.9101L26.5556 19.9164C26.81 19.9168 27.0166 19.7109 27.017 19.4566L27.0174 19.2183C27.0179 18.9639 26.812 18.7574 26.5576 18.7569Z" fill="#261B81"/>
<path d="M9.67013 21.9332C10.6906 22.4891 12.0962 22.5725 13.1299 22.2045C14.5408 21.7029 16.3012 21.2568 17.7213 21.8961C19.0158 22.4802 20.4382 22.5133 21.9885 21.9954C23.2591 21.5718 24.6806 21.2476 25.9883 21.7955C27.3507 22.3673 28.7475 22.4273 30.1787 21.9755C31.0906 21.6883 32.0026 21.0371 32.5201 20.2245C32.6039 20.0921 32.6467 20.1045 32.6484 20.2615C32.6529 20.7856 32.5448 21.2405 32.3242 21.6261C32.1856 21.8688 31.8958 22.0977 31.4546 22.313C30.6102 22.7233 29.5976 23.1509 28.6606 23.1363C27.6555 23.1222 26.6765 22.9461 25.7236 22.6082C24.5416 22.1913 23.1453 22.4494 21.9925 22.8636C20.6702 23.3375 19.2037 23.2806 17.8736 22.8358C17.2991 22.6439 16.7591 22.4639 16.1304 22.4772C15.2825 22.493 14.5391 22.6161 13.9002 22.8464C12.6918 23.2819 11.6184 23.5254 10.3372 23.18C9.40454 22.9294 8.5579 22.5173 7.7973 21.9438C7.69147 21.8644 7.61807 21.7487 7.59082 21.6182L7.3817 20.603C7.35611 20.4786 7.39449 20.4539 7.49685 20.5289C8.28834 21.1068 9.01277 21.5749 9.67013 21.9332Z" fill="white"/>
<path d="M8.59194 23.2285C10.0756 24.2211 12.1007 24.2251 13.7551 23.6546C15.1012 23.1901 16.7252 23.2443 18.1547 23.7182C19.2942 24.0941 20.6549 24.1669 21.8222 23.7857C22.2339 23.6507 22.6495 23.4958 23.0809 23.4296C24.191 23.2585 25.2719 23.3083 26.3237 23.5792C26.9563 23.7433 27.4924 23.9564 28.1727 23.971C29.3004 23.9966 30.4011 23.6921 31.475 23.0577C31.602 22.9827 31.6364 23.0132 31.5782 23.149C31.392 23.5849 31.0717 23.9767 30.6173 24.3244C30.2838 24.5802 29.8832 24.7333 29.4155 24.7836C28.1171 24.9226 26.951 24.6804 25.7281 24.2741C24.6282 23.9088 23.1008 24.1377 22.0777 24.5414C20.635 25.1119 19.2453 25.1053 17.7774 24.4924C16.3983 23.9167 14.6591 24.1166 13.2694 24.6619C12.1973 25.0828 11.0379 25.0669 9.79108 24.6142C9.24313 24.4157 8.81297 23.7791 8.53105 23.2854C8.47194 23.1812 8.49223 23.1623 8.59194 23.2285Z" fill="white"/>
<path d="M17.6313 26.1039C16.7039 25.7554 15.758 25.7029 14.7936 25.9464C14.1089 26.1194 13.4572 26.3011 12.8387 26.4917C12.7365 26.5233 12.6262 26.5157 12.529 26.4706C12.0949 26.2641 11.6929 26.0382 11.3232 25.7929C11.2279 25.7294 11.2368 25.7042 11.3497 25.7175C12.1028 25.8048 12.848 25.7241 13.5375 25.4223C14.8399 24.8545 16.5036 24.7552 17.8603 25.2635C18.8384 25.6288 19.8456 25.7227 20.9164 25.5997C21.1282 25.5758 21.5954 25.4497 22.318 25.2211C23.1686 24.952 24.1648 24.8792 25.3066 25.0027C25.4169 25.0142 25.8731 25.1302 26.6752 25.3508C27.3343 25.5317 28.057 25.6023 28.8432 25.5626C28.972 25.5555 28.9826 25.5877 28.875 25.6592C28.4267 25.9575 27.9467 26.2058 27.4349 26.4044C27.4015 26.4173 27.3647 26.4187 27.3304 26.4084C26.8777 26.276 26.4136 26.1467 25.938 26.0206C24.5138 25.646 23.2935 25.7678 21.9077 26.227C20.5101 26.6912 19.0846 26.6501 17.6313 26.1039Z" fill="white"/>
<circle cx="20" cy="20" r="19.5" stroke="black" stroke-opacity="0.05"/>
</svg>
