<svg width="40" height="40" viewBox="0 0 40 40" fill="none" xmlns="http://www.w3.org/2000/svg">
<circle cx="20" cy="20" r="20" fill="#B39758"/>
<path d="M13.3139 13.0848H29.3926L29.9802 14.0916L13.8965 14.0945L13.3139 13.0848Z" fill="white"/>
<path d="M14.363 14.9163H30.4466L31.0302 15.923H14.9476L14.363 14.9163Z" fill="white"/>
<path d="M27.7629 11.2632C28.0818 11.2632 28.4715 11.4935 28.6339 11.7651L28.9262 12.2729H12.8474L12.257 11.2632H27.7629Z" fill="white"/>
<path d="M17.9561 28.4343L9.91866 14.5059L10.5032 13.4932L18.5465 27.4206L17.9561 28.4343Z" fill="white"/>
<path d="M19.0169 26.6068L10.9668 12.6774L11.5543 11.6706L19.5946 25.5961L19.0169 26.6068Z" fill="white"/>
<path d="M9.15694 16.8324C8.99456 16.5568 8.99456 16.1002 9.15694 15.8286L9.44628 15.3208L17.4896 29.2462L16.908 30.2618L9.15694 16.8324Z" fill="white"/>
<path d="M28.9262 16.7379L20.8799 30.6604H19.7157L27.7541 16.7379H28.9262Z" fill="white"/>
<path d="M26.8182 16.7379L18.7778 30.6604H17.6077L25.6539 16.7379H26.8182Z" fill="white"/>
<path d="M23.2802 30.1585C23.1178 30.439 22.7281 30.6604 22.4122 30.6604H21.8217L29.865 16.7379H31.0352L23.2802 30.1585Z" fill="white"/>
<circle cx="20" cy="20" r="19.5" stroke="black" stroke-opacity="0.05"/>
</svg>
