<svg width="40" height="40" viewBox="0 0 40 40" fill="none" xmlns="http://www.w3.org/2000/svg">
<circle cx="20" cy="20" r="20" fill="#F6F8FA"/>
<path d="M33.1869 18C31.6937 18 30.7419 18.7943 30.7419 20.2137C30.7419 21.6243 31.8857 22.4305 33.2519 22.4305C34.0541 22.4305 34.4646 22.2178 34.6103 22.1312V20.7737C34.6103 20.507 34.7343 20.3407 35 20.3407V20.2393H33.6613V20.3407C33.8809 20.3407 34.0855 20.4165 34.0855 20.8023V21.8605C34.0855 21.9392 34.0423 22.0111 33.9724 22.0455C33.749 22.1558 33.5767 22.1606 33.3228 22.1606C32.3443 22.1606 31.3197 21.4096 31.3197 19.9952C31.3197 18.631 32.3217 18.2411 33.0402 18.2411C33.745 18.2411 34.0984 18.4163 34.2775 18.5739C34.3848 18.6674 34.4892 18.8651 34.4892 19.1329H34.5886L34.6634 18.3002C34.2047 18.0934 33.5934 18 33.1869 18ZM10.7171 18.0064C9.79444 18.034 8.84376 18.9106 8.84376 20.2156C8.84376 21.6557 10.0013 22.5741 11.0014 22.4058C10.026 22.2414 9.46591 21.3033 9.46591 20.2156C9.46591 19.127 10.026 18.1899 11.0014 18.0256C10.9074 18.0099 10.8122 18.0034 10.717 18.0064H10.7171ZM11.0014 18.0256C11.9768 18.1899 12.5369 19.127 12.5369 20.2156C12.5369 21.3033 11.9769 22.2415 11.0014 22.4058C12.0024 22.5741 13.16 21.6557 13.16 20.2156C13.16 18.7756 12.0024 17.8573 11.0014 18.0256ZM26.3865 18.0251C26.3504 18.0284 26.3174 18.0573 26.3174 18.1003V21.7935C26.3174 22.2709 26.026 22.262 25.8892 22.2699V22.3703L27.0537 22.3723V22.2679C26.8351 22.2679 26.6244 22.201 26.6244 21.7905V19.0267L29.8678 22.389C29.915 22.4392 29.9987 22.4057 29.9987 22.3369V18.6566C29.9987 18.2943 30.1562 18.1703 30.4288 18.1703V18.0669H29.2615V18.1703C29.5912 18.1703 29.6907 18.3651 29.6907 18.6377V21.4284L26.4483 18.0492C26.4405 18.0407 26.431 18.034 26.4202 18.0299C26.4095 18.0257 26.398 18.0241 26.3865 18.0252V18.0251ZM21.4519 18.0658V18.1693C21.7915 18.1693 21.8811 18.3926 21.8811 18.6308V20.6349C21.8811 21.1389 21.9559 22.4303 23.6292 22.4303C25.2671 22.4303 25.3015 20.9302 25.3015 20.5178V18.6536C25.3015 18.189 25.5556 18.1772 25.7308 18.1693V18.0669H24.5151V18.1693C24.8507 18.1693 24.9432 18.3681 24.9432 18.6733V20.5533C24.9432 21.1783 24.8389 22.1517 23.6981 22.1517C22.5444 22.1517 22.4293 21.1339 22.4293 20.7835V18.6633C22.4293 18.2411 22.6212 18.1693 22.8565 18.1693V18.0659L21.4519 18.0658ZM20.13 18.0668V18.1693C20.4292 18.1693 20.3918 18.4074 20.3269 18.5265C20.2599 18.6515 19.5167 19.9252 19.3376 20.2304C19.25 20.0827 18.3739 18.6229 18.2843 18.4527C18.1889 18.2745 18.2873 18.1693 18.4409 18.1693V18.0679H17.0983V18.1693C17.4261 18.1693 17.6633 18.4331 17.7676 18.6014C17.8552 18.7431 18.6634 20.0326 18.7539 20.1901C18.8455 20.3466 18.9567 20.5365 18.9567 20.8141V21.8024C18.9567 22.1932 18.747 22.2689 18.5285 22.2689V22.3703H19.9036V22.27C19.5787 22.27 19.4764 22.084 19.4764 21.7827V20.8161C19.4764 20.633 19.5108 20.4676 19.6092 20.2669C19.7077 20.0661 20.4017 18.9518 20.6163 18.5925C20.817 18.2559 21.063 18.1693 21.2569 18.1693V18.0669L20.13 18.0668ZM5 18.068V18.1703C5.33273 18.1703 5.42818 18.3563 5.42818 18.6851V21.6873C5.42818 22.2758 5.21164 22.2542 5 22.2689V22.3713H6.90964C7.80238 22.3713 8.32411 21.8988 8.32411 21.1625C8.32411 20.378 7.71675 20.0523 7.28365 19.9685C7.48836 19.8997 7.88998 19.6743 7.88998 18.9794C7.88998 18.4242 7.45885 18.0679 6.695 18.0679L5 18.068ZM13.5951 18.068V18.1693C13.9278 18.1693 14.0242 18.3563 14.0242 18.6851V21.7413C14.0242 22.2266 13.8186 22.2561 13.5961 22.2689V22.3703H14.9751V22.2679C14.6404 22.262 14.543 22.1223 14.543 21.697V20.5522H15.3402C15.3402 20.5522 16.2222 21.7069 16.4181 21.9352C16.6622 22.2187 16.8256 22.3703 17.1761 22.3703H17.8591V22.2688C17.5806 22.2688 17.3414 22.1941 17.1406 22.0209C16.8492 21.7699 15.8383 20.4489 15.8383 20.4489C16.0254 20.3554 16.5106 20.069 16.5106 19.19C16.5106 18.6407 16.173 18.0679 15.171 18.0679L13.5951 18.068ZM6.12505 18.2981H6.59065C6.87413 18.2981 7.4126 18.3612 7.4126 19.0935C7.4126 19.6241 7.14685 19.9095 6.84173 19.9095H5.94795V18.4557C5.94795 18.3199 6.03156 18.2981 6.12505 18.2981ZM14.7467 18.2992H14.9928C15.3619 18.2992 15.9889 18.433 15.9889 19.3465C15.9889 20.1418 15.5913 20.3052 15.1709 20.3052H14.543V18.4449C14.543 18.3248 14.6021 18.2992 14.7467 18.2992ZM5.948 20.1458H6.75707C7.32304 20.1458 7.78471 20.4253 7.78471 21.2147C7.78471 22.1213 6.98938 22.1449 6.66751 22.1449C6.37416 22.1449 5.948 22.1843 5.948 21.8033V20.1458Z" fill="black"/>
<circle cx="20" cy="20" r="19.5" stroke="black" stroke-opacity="0.05"/>
</svg>
