<svg width="40" height="40" viewBox="0 0 40 40" fill="none" xmlns="http://www.w3.org/2000/svg">
<circle cx="20" cy="20" r="20" fill="#010101"/>
<g clip-path="url(#clip0_17713_28065)">
<path d="M23.5646 19.6457C22.1586 19.5339 21.0019 18.5191 20.8815 17.083C20.7654 15.6769 21.6297 14.4772 22.9798 14.1118C24.0419 13.8237 25.19 14.0817 25.9726 14.8384C26.9658 15.7973 27.0733 17.3883 26.2563 18.4933C25.6329 19.3361 24.6052 19.7274 23.5646 19.6457Z" fill="#E21F26"/>
<path d="M18.1157 17.2161C18.1157 17.2161 18.1286 17.2419 18.1458 17.2419C18.5371 17.2419 18.9542 17.2419 19.3971 17.2419C19.5734 17.2419 19.7066 17.2849 19.7066 17.4827C19.7066 17.8267 19.7066 18.1535 19.7066 18.4545C19.7066 18.4674 19.6938 18.4803 19.6809 18.4803C19.4401 18.4803 19.1907 18.4803 18.9413 18.4803C18.5672 18.4889 18.2619 18.6136 18.1415 18.9533C18.1071 19.0522 18.0899 19.2284 18.0899 19.4864C18.0899 20.9312 18.0899 22.3846 18.0899 23.8508C18.0899 23.9024 18.0813 23.9626 18.0641 24.0314C17.9222 24.6248 17.5051 24.8312 16.9418 24.8312C15.0327 24.8312 13.2181 24.8312 11.4939 24.8312C10.6941 24.8312 10.191 24.3926 10.1953 23.5756C10.1953 22.8575 10.1953 22.1395 10.1953 21.4214C10.1953 21.1892 10.2082 21.0215 10.2383 20.9226C10.2899 20.7463 10.3888 20.6044 10.5436 20.4926C10.8016 20.2991 11.0854 20.2561 11.4251 20.2561C13.1751 20.2604 14.9252 20.2604 16.6709 20.2561C16.7698 20.2561 16.8214 20.2045 16.8257 20.1056C16.83 20.0325 16.8343 19.9637 16.8343 19.8906C16.8343 18.0589 16.8343 16.2314 16.8343 14.404C16.8343 14.2363 16.9246 14.1546 17.1052 14.1546C17.4105 14.1546 17.7373 14.1546 18.0727 14.1546C18.0942 14.1546 18.1114 14.1718 18.1114 14.1933C18.1114 15.178 18.1114 16.1583 18.1114 17.1301C18.1114 17.1645 18.1114 17.1903 18.1157 17.2161ZM11.7519 21.5719C11.5713 21.6579 11.4724 21.8514 11.4724 22.0535C11.4724 22.3889 11.4724 22.7371 11.4638 23.0983C11.4595 23.4638 11.6874 23.5756 12.0056 23.5756C13.3686 23.5756 14.7489 23.5756 16.1464 23.5756C16.5806 23.5756 16.7999 23.18 16.8214 22.793C16.8343 22.5264 16.8386 22.1782 16.83 21.7439C16.83 21.688 16.8171 21.6321 16.7956 21.5762C16.7956 21.5676 16.7827 21.559 16.7741 21.5547C16.744 21.5418 16.7096 21.5375 16.6752 21.5375C15.1359 21.5375 13.575 21.5375 11.9884 21.5375C11.8895 21.5375 11.8121 21.5504 11.7519 21.5805V21.5719Z" fill="white"/>
<path d="M30.0093 17.212C30.0093 17.212 30.0222 17.2378 30.0394 17.2378C30.6026 17.2378 31.1573 17.2378 31.6991 17.2378C31.8926 17.2378 31.9528 17.3711 31.9528 17.5474C31.9528 17.8656 31.9528 18.1709 31.9528 18.459C31.9528 18.4719 31.9485 18.4762 31.9356 18.4762C31.6217 18.4762 31.2863 18.4762 30.9251 18.4762C30.5338 18.4805 30.1899 18.5665 30.0437 18.9664C30.0179 19.0395 30.005 19.1298 30.0136 19.2372C30.0265 19.4264 30.0265 19.6285 30.0136 19.8392C29.9964 20.2606 30.005 20.6476 30.005 21.0604C30.005 21.2969 30.0093 21.5248 30.0179 21.7355C30.0308 22.0709 30.0265 22.3031 30.0136 22.4364C29.9405 23.1587 29.6438 23.7564 29.1235 24.2251C28.5989 24.6981 27.9668 24.9561 27.2272 24.9948C25.3525 25.098 23.8346 23.6618 24.0883 21.7398C24.2345 20.6218 25.0515 19.7446 26.1222 19.4307C26.9177 19.1985 27.8464 19.2759 28.5946 19.6543C28.7322 19.7231 28.7623 19.5726 28.7623 19.4823C28.7623 17.8527 28.7623 16.2144 28.7623 14.5719C28.7623 14.5074 28.7752 14.4429 28.7752 14.3784C28.7752 14.2752 28.8526 14.1806 28.9601 14.1806C29.274 14.1806 29.6094 14.1806 29.9663 14.1806C29.9878 14.1806 30.005 14.1978 30.005 14.2193C30.005 14.4558 30.005 14.7052 30.005 14.9761C30.005 14.9976 30.005 15.0234 30.0093 15.0449C30.0093 15.0664 30.0222 15.075 30.0437 15.075C30.6327 15.075 31.1659 15.075 31.6432 15.075C31.8453 15.075 31.9442 15.1352 31.9485 15.3502C31.9528 15.6641 31.9571 15.9822 31.9528 16.3004C31.9528 16.3133 31.9442 16.3219 31.9313 16.3219C31.54 16.3219 31.1573 16.3219 30.7875 16.3219C30.2758 16.3305 29.9276 16.6788 30.0093 17.2077V17.212ZM28.8225 22.1655C28.8225 21.2625 28.0313 20.5272 27.0466 20.5272C26.0663 20.5272 25.2665 21.2582 25.2665 22.1612C25.2665 23.0641 26.0577 23.7994 27.0423 23.7994C28.0227 23.7994 28.8225 23.0684 28.8225 22.1655Z" fill="white"/>
<path d="M10.0195 19.1256C9.60671 18.9579 9.31001 18.6526 9.12512 18.2097C8.98322 17.8743 8.95312 17.526 8.95312 17.1562C8.95742 16.4167 8.96172 15.6599 8.95312 14.8859C8.95312 14.5978 8.96602 14.443 9.30571 14.4387C9.58951 14.4387 9.8905 14.4387 10.2044 14.4387C10.2216 14.4387 10.2345 14.4516 10.2345 14.4688C10.2302 15.3675 10.2259 16.2619 10.2345 17.1519C10.2345 17.6507 10.4968 18.0334 11.0257 18.0334C12.5521 18.0334 14.0915 18.0334 15.6394 18.0334C15.6566 18.0334 15.6738 18.0463 15.6738 18.0678V19.2933C15.6738 19.2933 15.6609 19.3191 15.648 19.3191C15.6222 19.3191 15.6007 19.3191 15.5749 19.3191C13.9926 19.3191 12.4102 19.3191 10.8236 19.3105C10.5871 19.3105 10.3205 19.2503 10.0195 19.1256Z" fill="white"/>
</g>
<circle cx="20" cy="20" r="19.5" stroke="black" stroke-opacity="0.05"/>
<defs>
<clipPath id="clip0_17713_28065">
<rect width="23" height="11.012" fill="white" transform="translate(8.03516 14)"/>
</clipPath>
</defs>
</svg>
