<svg width="40" height="40" viewBox="0 0 40 40" fill="none" xmlns="http://www.w3.org/2000/svg">
<circle cx="20" cy="20" r="20" fill="#010101"/>
<g clip-path="url(#clip0_17671_18626)">
<path d="M23.5637 19.6456C22.1576 19.5338 21.0009 18.5191 20.8805 17.0829C20.7644 15.6769 21.6287 14.4772 22.9789 14.1117C24.0409 13.8236 25.189 14.0816 25.9716 14.8384C26.9648 15.7972 27.0723 17.3882 26.2554 18.4933C25.6319 19.336 24.6042 19.7273 23.5637 19.6456Z" fill="#E21F26"/>
<path d="M18.1157 17.216C18.1157 17.216 18.1286 17.2418 18.1458 17.2418C18.5371 17.2418 18.9542 17.2418 19.3971 17.2418C19.5734 17.2418 19.7066 17.2848 19.7066 17.4826C19.7066 17.8266 19.7066 18.1534 19.7066 18.4544C19.7066 18.4673 19.6938 18.4802 19.6809 18.4802C19.4401 18.4802 19.1907 18.4802 18.9413 18.4802C18.5672 18.4888 18.2619 18.6135 18.1415 18.9532C18.1071 19.0521 18.0899 19.2284 18.0899 19.4864C18.0899 20.9311 18.0899 22.3845 18.0899 23.8507C18.0899 23.9023 18.0813 23.9625 18.0641 24.0313C17.9222 24.6247 17.5051 24.8311 16.9418 24.8311C15.0327 24.8311 13.2181 24.8311 11.4939 24.8311C10.6941 24.8311 10.191 24.3925 10.1953 23.5756C10.1953 22.8575 10.1953 22.1394 10.1953 21.4213C10.1953 21.1891 10.2082 21.0214 10.2383 20.9225C10.2899 20.7462 10.3888 20.6043 10.5436 20.4925C10.8016 20.2991 11.0854 20.2561 11.4251 20.2561C13.1751 20.2604 14.9252 20.2604 16.6709 20.2561C16.7698 20.2561 16.8214 20.2045 16.8257 20.1056C16.83 20.0325 16.8343 19.9637 16.8343 19.8906C16.8343 18.0588 16.8343 16.2314 16.8343 14.4039C16.8343 14.2362 16.9246 14.1545 17.1052 14.1545C17.4105 14.1545 17.7373 14.1545 18.0727 14.1545C18.0942 14.1545 18.1114 14.1717 18.1114 14.1932C18.1114 15.1779 18.1114 16.1583 18.1114 17.1301C18.1114 17.1644 18.1114 17.1902 18.1157 17.216ZM11.7519 21.5718C11.5713 21.6578 11.4724 21.8513 11.4724 22.0534C11.4724 22.3888 11.4724 22.7371 11.4638 23.0983C11.4595 23.4638 11.6874 23.5756 12.0056 23.5756C13.3686 23.5756 14.7489 23.5756 16.1464 23.5756C16.5806 23.5756 16.7999 23.18 16.8214 22.793C16.8343 22.5264 16.8386 22.1781 16.83 21.7438C16.83 21.6879 16.8171 21.632 16.7956 21.5761C16.7956 21.5675 16.7827 21.5589 16.7741 21.5546C16.744 21.5417 16.7096 21.5374 16.6752 21.5374C15.1359 21.5374 13.575 21.5374 11.9884 21.5374C11.8895 21.5374 11.8121 21.5503 11.7519 21.5804V21.5718Z" fill="white"/>
<path d="M30.0093 17.2119C30.0093 17.2119 30.0222 17.2377 30.0394 17.2377C30.6026 17.2377 31.1573 17.2377 31.6991 17.2377C31.8926 17.2377 31.9528 17.371 31.9528 17.5473C31.9528 17.8655 31.9528 18.1708 31.9528 18.4589C31.9528 18.4718 31.9485 18.4761 31.9356 18.4761C31.6217 18.4761 31.2863 18.4761 30.9251 18.4761C30.5338 18.4804 30.1899 18.5664 30.0437 18.9663C30.0179 19.0394 30.005 19.1297 30.0136 19.2372C30.0265 19.4264 30.0265 19.6285 30.0136 19.8392C29.9964 20.2606 30.005 20.6475 30.005 21.0603C30.005 21.2968 30.0093 21.5247 30.0179 21.7354C30.0308 22.0708 30.0265 22.303 30.0136 22.4363C29.9405 23.1587 29.6438 23.7563 29.1235 24.225C28.5989 24.698 27.9668 24.956 27.2272 24.9947C25.3525 25.0979 23.8346 23.6618 24.0883 21.7397C24.2345 20.6217 25.0515 19.7446 26.1222 19.4307C26.9177 19.1985 27.8464 19.2759 28.5946 19.6543C28.7322 19.7231 28.7623 19.5726 28.7623 19.4823C28.7623 17.8526 28.7623 16.2144 28.7623 14.5718C28.7623 14.5073 28.7752 14.4428 28.7752 14.3783C28.7752 14.2751 28.8526 14.1805 28.9601 14.1805C29.274 14.1805 29.6094 14.1805 29.9663 14.1805C29.9878 14.1805 30.005 14.1977 30.005 14.2192C30.005 14.4557 30.005 14.7051 30.005 14.976C30.005 14.9975 30.005 15.0233 30.0093 15.0448C30.0093 15.0663 30.0222 15.0749 30.0437 15.0749C30.6327 15.0749 31.1659 15.0749 31.6432 15.0749C31.8453 15.0749 31.9442 15.1351 31.9485 15.3501C31.9528 15.664 31.9571 15.9822 31.9528 16.3004C31.9528 16.3133 31.9442 16.3219 31.9313 16.3219C31.54 16.3219 31.1573 16.3219 30.7875 16.3219C30.2758 16.3305 29.9276 16.6788 30.0093 17.2076V17.2119ZM28.8225 22.1654C28.8225 21.2624 28.0313 20.5271 27.0466 20.5271C26.0663 20.5271 25.2665 21.2581 25.2665 22.1611C25.2665 23.0641 26.0577 23.7993 27.0423 23.7993C28.0227 23.7993 28.8225 23.0684 28.8225 22.1654Z" fill="white"/>
<path d="M10.019 19.1255C9.60622 18.9578 9.30953 18.6525 9.12463 18.2096C8.98274 17.8742 8.95264 17.5259 8.95264 17.1561C8.95694 16.4165 8.96124 15.6598 8.95264 14.8858C8.95264 14.5977 8.96554 14.4429 9.30523 14.4386C9.58902 14.4386 9.89001 14.4386 10.2039 14.4386C10.2211 14.4386 10.234 14.4515 10.234 14.4687C10.2297 15.3674 10.2254 16.2617 10.234 17.1518C10.234 17.6506 10.4963 18.0333 11.0252 18.0333C12.5516 18.0333 14.091 18.0333 15.6389 18.0333C15.6561 18.0333 15.6733 18.0462 15.6733 18.0677V19.2932C15.6733 19.2932 15.6604 19.319 15.6475 19.319C15.6217 19.319 15.6002 19.319 15.5744 19.319C13.9921 19.319 12.4097 19.3189 10.8231 19.3103C10.5866 19.3103 10.32 19.2502 10.019 19.1255Z" fill="white"/>
</g>
<circle cx="20" cy="20" r="19.5" stroke="black" stroke-opacity="0.05"/>
<defs>
<clipPath id="clip0_17671_18626">
<rect width="23" height="11.012" fill="white" transform="translate(8.03516 14)"/>
</clipPath>
</defs>
</svg>
