<svg width="40" height="40" viewBox="0 0 40 40" fill="none" xmlns="http://www.w3.org/2000/svg">
<circle cx="20" cy="20" r="20" fill="#F6F8FA"/>
<g clip-path="url(#clip0_14382_18895)">
<path d="M20.0011 20.7754C19.1967 20.767 18.4029 20.9593 17.6914 21.3347C16.98 21.7102 16.3733 22.257 15.9262 22.9258V28.4167H11.0101V11.496H15.9363V17.3965C17.1316 16.5638 18.5534 16.1173 20.0101 16.1173C21.4669 16.1173 22.8887 16.5638 24.084 17.3965V11.496H29.0101V28.4208H24.0739V22.9338C23.6279 22.2639 23.022 21.7157 22.3108 21.3388C21.5997 20.9619 20.8058 20.7683 20.0011 20.7754Z" fill="url(#paint0_linear_14382_18895)"/>
</g>
<circle cx="20" cy="20" r="19.5" stroke="black" stroke-opacity="0.05"/>
<defs>
<linearGradient id="paint0_linear_14382_18895" x1="22.2953" y1="29.785" x2="22.2953" y2="12.3516" gradientUnits="userSpaceOnUse">
<stop stop-color="#0D3385"/>
<stop offset="1" stop-color="#1997BA"/>
</linearGradient>
<clipPath id="clip0_14382_18895">
<rect width="18" height="16.9248" fill="white" transform="translate(11 11.5)"/>
</clipPath>
</defs>
</svg>
