<svg width="40" height="40" viewBox="0 0 40 40" fill="none" xmlns="http://www.w3.org/2000/svg">
<circle cx="20" cy="20" r="20" fill="#C42215"/>
<path d="M26.134 16.6106C24.4883 16.2252 22.5919 15.6043 21.2743 14.4668C21.1173 14.3311 21.1425 14.2632 21.3501 14.2632L23.5813 14.2649C23.6408 14.2649 23.6817 14.2929 23.7042 14.349C24.251 15.7355 26.2871 16.3952 27.751 16.6829C30.9594 17.31 33.3836 19.0415 35.0237 21.8774C35.031 21.8904 35.0348 21.9051 35.0347 21.92C35.0346 21.9349 35.0306 21.9496 35.0232 21.9625C35.0157 21.9754 35.005 21.9861 34.9921 21.9936C34.9792 22.0011 34.9646 22.0052 34.9496 22.0053H31.3789C31.3206 22.0053 31.2886 21.9767 31.283 21.9195C31.0054 19.0387 28.8229 17.2399 26.134 16.6106Z" fill="white"/>
<path d="M7.14518 20.6658C6.53268 20.6372 5.1394 20.9098 5.34301 19.8043C5.46304 19.1525 5.83267 18.8126 6.45191 18.7845C6.99935 18.761 7.61297 18.7554 8.29278 18.7677C8.34887 18.7688 8.37187 18.7969 8.36177 18.8519L8.28605 19.2742C8.27596 19.3281 8.24342 19.355 8.18846 19.355H6.66561C6.64444 19.355 6.62395 19.3584 6.60503 19.3651C6.24269 19.4974 6.06657 19.6399 6.07667 19.7925C6.08901 19.9776 6.18829 20.0696 6.3745 20.0684C6.71217 20.0673 7.0846 20.0712 7.49182 20.0802C7.90576 20.0886 8.15312 20.3326 8.10769 20.7415C7.99326 21.7831 7.32018 21.9548 6.38628 21.9261C5.97234 21.9138 5.54549 21.9127 5.10575 21.9228C5.04854 21.9239 5.0261 21.897 5.03844 21.842L5.13772 21.3658C5.14894 21.3153 5.18035 21.2901 5.23195 21.2901H6.93821C7.12331 21.2901 7.24895 21.2031 7.31513 21.0293L7.34037 20.9636C7.41105 20.7752 7.34598 20.6759 7.14518 20.6658Z" fill="white"/>
<path d="M10.2915 20.6187L9.27516 20.617C9.26183 20.6167 9.24881 20.6211 9.23836 20.6294C9.22792 20.6377 9.2207 20.6494 9.21795 20.6624L8.96891 21.8756C8.96617 21.8887 8.95895 21.9004 8.9485 21.9087C8.93806 21.917 8.92504 21.9214 8.9117 21.9211H8.33117C8.3227 21.921 8.31434 21.9191 8.30671 21.9154C8.29908 21.9117 8.29237 21.9063 8.28706 21.8997C8.28174 21.8931 8.27796 21.8854 8.27599 21.8772C8.27401 21.8689 8.2739 21.8604 8.27564 21.8521L8.9117 18.8114C8.91444 18.7984 8.92166 18.7867 8.93211 18.7784C8.94256 18.7701 8.95558 18.7657 8.96891 18.766L9.55113 18.7677C9.5596 18.7678 9.56795 18.7697 9.57558 18.7734C9.58321 18.7771 9.58993 18.7824 9.59524 18.789C9.60055 18.7956 9.60433 18.8033 9.60631 18.8116C9.60828 18.8198 9.6084 18.8284 9.60666 18.8367L9.3694 19.9624C9.36765 19.9707 9.36777 19.9793 9.36974 19.9875C9.37172 19.9958 9.3755 20.0035 9.38081 20.0101C9.38613 20.0167 9.39284 20.022 9.40047 20.0257C9.4081 20.0294 9.41645 20.0313 9.42493 20.0314L10.448 20.0263C10.4611 20.0262 10.4737 20.0217 10.4838 20.0134C10.4939 20.0052 10.5008 19.9937 10.5035 19.9809L10.7357 18.8131C10.7384 18.8003 10.7454 18.7889 10.7555 18.7806C10.7656 18.7724 10.7782 18.7678 10.7913 18.7677L11.3718 18.766C11.3803 18.7661 11.3886 18.768 11.3963 18.7717C11.4039 18.7754 11.4106 18.7807 11.4159 18.7873C11.4212 18.7939 11.425 18.8016 11.427 18.8099C11.429 18.8181 11.4291 18.8267 11.4273 18.835L10.7879 21.8756C10.7852 21.8887 10.7779 21.9004 10.7675 21.9087C10.7571 21.917 10.744 21.9214 10.7307 21.9211H10.1535C10.1451 21.921 10.1367 21.9191 10.1291 21.9154C10.1214 21.9117 10.1147 21.9063 10.1094 21.8997C10.1041 21.8931 10.1003 21.8854 10.0984 21.8772C10.0964 21.8689 10.0963 21.8604 10.098 21.8521L10.347 20.6876C10.3488 20.6794 10.3487 20.6708 10.3467 20.6625C10.3447 20.6543 10.3409 20.6466 10.3356 20.64C10.3303 20.6334 10.3236 20.6281 10.316 20.6244C10.3083 20.6207 10.3 20.6187 10.2915 20.6187Z" fill="white"/>
<path d="M11.3128 21.8554L11.9539 18.8081C11.9566 18.7962 11.9632 18.7856 11.9727 18.7779C11.9822 18.7703 11.9939 18.7661 12.0061 18.766H12.6203C12.6283 18.766 12.6363 18.7679 12.6435 18.7714C12.6507 18.7749 12.6571 18.78 12.6621 18.7863C12.6671 18.7926 12.6706 18.8 12.6724 18.8078C12.6742 18.8156 12.6742 18.8238 12.6724 18.8316L12.0347 21.879C12.032 21.8909 12.0254 21.9015 12.016 21.9091C12.0065 21.9168 11.9947 21.921 11.9825 21.9211H11.365C11.357 21.921 11.349 21.9191 11.3418 21.9156C11.3346 21.9121 11.3282 21.907 11.3232 21.9007C11.3182 21.8944 11.3147 21.8871 11.3129 21.8793C11.3111 21.8714 11.3111 21.8633 11.3128 21.8554Z" fill="white"/>
<path d="M13.2127 21.9211H12.617C12.6083 21.921 12.5997 21.919 12.5919 21.9152C12.5841 21.9115 12.5772 21.906 12.5717 21.8992C12.5662 21.8925 12.5623 21.8846 12.5603 21.8762C12.5582 21.8677 12.558 21.8589 12.5598 21.8504L13.1992 18.8148C13.2019 18.8016 13.2091 18.7897 13.2195 18.7811C13.2299 18.7726 13.2429 18.7678 13.2564 18.7677L14.0237 18.766C14.0358 18.766 14.0477 18.7697 14.0576 18.7766C14.0676 18.7835 14.0751 18.7933 14.0793 18.8047L14.754 20.7297C14.758 20.7424 14.7661 20.7534 14.7771 20.7609C14.7881 20.7684 14.8013 20.7719 14.8146 20.771C14.8278 20.77 14.8404 20.7646 14.8502 20.7555C14.86 20.7465 14.8664 20.7345 14.8684 20.7213L15.242 18.8182C15.2443 18.8049 15.2511 18.7929 15.2612 18.784C15.2713 18.7751 15.2841 18.77 15.2975 18.7694L15.8814 18.7593C15.8903 18.7591 15.899 18.7609 15.9071 18.7646C15.9151 18.7683 15.9222 18.7737 15.9279 18.7805C15.9335 18.7873 15.9376 18.7952 15.9397 18.8038C15.9419 18.8124 15.9421 18.8213 15.9403 18.83L15.3009 21.874C15.2982 21.8872 15.2911 21.8991 15.2806 21.9077C15.2702 21.9162 15.2572 21.921 15.2437 21.9211H14.5538C14.5417 21.9211 14.5298 21.9174 14.5199 21.9105C14.51 21.9036 14.5024 21.8938 14.4983 21.8824L13.7848 19.853C13.7805 19.8411 13.7724 19.8309 13.7618 19.8239C13.7512 19.8169 13.7386 19.8136 13.7259 19.8143C13.7132 19.8151 13.7011 19.8199 13.6914 19.8281C13.6817 19.8363 13.6749 19.8474 13.672 19.8598L13.2716 21.874C13.2688 21.8875 13.2614 21.8996 13.2507 21.9082C13.2399 21.9168 13.2264 21.9214 13.2127 21.9211Z" fill="white"/>
<path d="M16.9771 20.0264L17.9901 20.0281C18.0034 20.0284 18.0165 20.024 18.0269 20.0157C18.0374 20.0074 18.0446 19.9957 18.0473 19.9827L18.293 18.8149C18.2957 18.8021 18.3026 18.7906 18.3127 18.7824C18.3228 18.7741 18.3355 18.7695 18.3485 18.7694L18.924 18.7627C18.9325 18.7628 18.9408 18.7647 18.9485 18.7684C18.9561 18.7721 18.9628 18.7774 18.9681 18.784C18.9734 18.7906 18.9772 18.7983 18.9792 18.8066C18.9812 18.8148 18.9813 18.8234 18.9795 18.8317L18.3401 21.8757C18.3374 21.8887 18.3301 21.9004 18.3197 21.9087C18.3092 21.917 18.2962 21.9214 18.2829 21.9211H17.7108C17.7023 21.9211 17.6939 21.9191 17.6863 21.9154C17.6787 21.9117 17.672 21.9064 17.6667 21.8998C17.6613 21.8932 17.6576 21.8855 17.6556 21.8772C17.6536 21.869 17.6535 21.8604 17.6552 21.8521L17.8992 20.686C17.901 20.6777 17.9009 20.6692 17.8989 20.6609C17.8969 20.6527 17.8931 20.645 17.8878 20.6384C17.8825 20.6318 17.8758 20.6264 17.8682 20.6227C17.8605 20.619 17.8522 20.6171 17.8437 20.617L16.8257 20.6187C16.8123 20.6184 16.7993 20.6228 16.7889 20.6311C16.7784 20.6394 16.7712 20.6511 16.7685 20.6641L16.5194 21.8757C16.5167 21.8887 16.5095 21.9004 16.499 21.9087C16.4886 21.917 16.4755 21.9214 16.4622 21.9211H15.88C15.8715 21.9211 15.8632 21.9191 15.8555 21.9154C15.8479 21.9117 15.8412 21.9064 15.8359 21.8998C15.8306 21.8932 15.8268 21.8855 15.8248 21.8772C15.8228 21.869 15.8227 21.8604 15.8245 21.8521L16.4656 18.8115C16.4683 18.7984 16.4755 18.7868 16.486 18.7785C16.4964 18.7702 16.5095 18.7658 16.5228 18.7661H17.0983C17.1067 18.7661 17.1151 18.7681 17.1227 18.7718C17.1304 18.7755 17.1371 18.7808 17.1424 18.7874C17.1477 18.794 17.1515 18.8017 17.1535 18.8099C17.1554 18.8182 17.1555 18.8268 17.1538 18.8351L16.9216 19.9574C16.9198 19.9657 16.92 19.9743 16.9219 19.9825C16.9239 19.9908 16.9277 19.9985 16.933 20.0051C16.9383 20.0117 16.945 20.017 16.9527 20.0207C16.9603 20.0244 16.9686 20.0263 16.9771 20.0264Z" fill="white"/>
<path d="M19.7768 20.7684C19.6724 21.2732 20.0662 21.5475 20.534 21.3792C20.847 21.2682 21.0377 21.05 21.1061 20.7247L21.5066 18.8501C21.5189 18.794 21.5537 18.766 21.6109 18.766L22.1527 18.7677C22.1909 18.7677 22.2066 18.7867 22.1999 18.8249C22.0585 19.5518 21.9093 20.2485 21.7523 20.9148C21.5083 21.9497 20.5727 22.0001 19.7095 21.8992C19.1188 21.8302 18.964 21.3523 19.07 20.8441C19.2069 20.1856 19.3466 19.5226 19.489 18.8552C19.4944 18.8299 19.5081 18.8073 19.5277 18.791C19.5473 18.7748 19.5717 18.766 19.5967 18.766H20.0999C20.1126 18.7662 20.1251 18.7692 20.1365 18.7749C20.1479 18.7805 20.1579 18.7886 20.1658 18.7986C20.1737 18.8086 20.1793 18.8202 20.1822 18.8326C20.185 18.845 20.1851 18.8579 20.1823 18.8703C20.0421 19.5041 19.9069 20.1368 19.7768 20.7684Z" fill="white"/>
<path d="M24.3814 20.7482L24.7718 18.8013C24.7774 18.7778 24.792 18.766 24.8156 18.766L25.4197 18.7694C25.4601 18.7694 25.4758 18.789 25.4668 18.8283L24.8391 21.7932C24.8212 21.8784 24.769 21.9211 24.6826 21.9211H24.1694C24.0819 21.9211 24.0236 21.8801 23.9944 21.7982L23.3247 19.8984C23.2653 19.7324 23.2187 19.7358 23.185 19.9085L22.8064 21.8285C22.7952 21.8902 22.7582 21.9211 22.6954 21.9211H22.1552C22.0969 21.9211 22.0739 21.8924 22.0862 21.8352L22.7173 18.8552C22.7296 18.7957 22.7666 18.766 22.8283 18.766H23.5014C23.5608 18.766 23.6007 18.794 23.6209 18.8501L24.2872 20.7549C24.3265 20.8682 24.3579 20.866 24.3814 20.7482Z" fill="white"/>
<path d="M27.386 21.2901C27.423 21.2901 27.4455 21.2722 27.4533 21.2363L27.5762 20.6608C27.5818 20.6339 27.5705 20.6204 27.5425 20.6204L26.7786 20.6154C26.7725 20.6155 26.7664 20.6142 26.7609 20.6117C26.7553 20.6092 26.7504 20.6054 26.7465 20.6007C26.7427 20.596 26.7399 20.5905 26.7384 20.5846C26.737 20.5787 26.7369 20.5725 26.7382 20.5666L26.8358 20.0819C26.8425 20.046 26.8644 20.0281 26.9014 20.0281H28.3115C28.3777 20.0281 28.4046 20.0606 28.3923 20.1257L28.0439 21.8269C28.0294 21.8987 27.9856 21.9329 27.9127 21.9296C27.2783 21.9009 26.5447 22.0053 25.9624 21.8C25.0269 21.4668 25.4442 20.0752 25.8127 19.4779C26.0752 19.0504 26.4858 18.8205 27.0444 18.7879C27.5302 18.7588 28.0613 18.7532 28.6379 18.7711C28.6431 18.7713 28.6481 18.7726 28.6527 18.7748C28.6572 18.777 28.6613 18.7801 28.6645 18.784C28.6677 18.7878 28.67 18.7923 28.6712 18.797C28.6724 18.8018 28.6726 18.8067 28.6716 18.8115L28.5774 19.3079C28.5706 19.3427 28.5493 19.3595 28.5134 19.3584C28.0288 19.3505 27.5672 19.3511 27.1286 19.3601C26.3983 19.3752 26.156 20.3057 26.198 20.893C26.2061 21.0009 26.2546 21.1017 26.3338 21.1754C26.4131 21.249 26.5172 21.29 26.6254 21.2901H27.386Z" fill="white"/>
<circle cx="20" cy="20" r="19.5" stroke="black" stroke-opacity="0.05"/>
</svg>
