<svg width="40" height="40" viewBox="0 0 40 40" fill="none" xmlns="http://www.w3.org/2000/svg">
<circle cx="20" cy="20" r="20" fill="#ED1164"/>
<g clip-path="url(#clip0_16523_10718)">
<path d="M19.6248 27H19.6393V24.757L19.5423 24.7527C17.8022 24.7396 16.0973 24.2997 14.8527 23.5397C13.2778 22.5794 12.4274 21.1291 12.3964 19.35V13H10.6791C10.3653 13.0065 10 13.2069 10 13.7513V26.2444C10 26.7953 10.3798 26.9956 10.7059 26.9956H12.3943V24.3912L12.5409 24.5284C14.6999 26.6799 17.9054 27 19.6228 27H19.6248Z" fill="white"/>
<path d="M27.5736 13.3942C26.4486 13.0174 25.3567 13 25.0327 13H21.0325C16.7784 13 14.64 14.7138 13.7112 16.4515C12.9062 17.9585 13.0403 19.4828 13.1023 19.9096C14.3758 15.4803 19.4782 15.5239 20.8488 15.5239H25.6375C27.2619 15.5239 28.6097 16.6475 28.6097 18.2024C28.6097 19.7572 27.4291 20.8809 25.8088 20.8809H22.9397V17.9171H20.9375C20.7187 17.9367 20.5495 18.1305 20.5474 18.3722V26.9978H22.5042C22.7292 26.9978 22.9191 26.8149 22.9397 26.5775V23.4047H25.8088C27.2124 23.4047 28.5148 22.8799 29.4829 21.9348C30.4633 20.968 31.0041 19.644 31.0041 18.2024C31.0041 15.7678 29.359 14.1106 27.5777 13.3963L27.5736 13.3942Z" fill="white"/>
</g>
<circle cx="20" cy="20" r="19.5" stroke="black" stroke-opacity="0.05"/>
<defs>
<clipPath id="clip0_16523_10718">
<rect width="21" height="14" fill="white" transform="translate(10 13)"/>
</clipPath>
</defs>
</svg>
