<svg width="40" height="40" viewBox="0 0 40 40" fill="none" xmlns="http://www.w3.org/2000/svg">
<circle cx="20" cy="20" r="20" fill="#19334C"/>
<path d="M7.65431 21.6107C7.37338 21.5293 7.21756 21.3244 7.18686 20.9959C7.15309 20.6182 7.08477 20.2928 6.98192 20.0195C6.85911 19.6941 6.7716 19.3847 6.71941 19.0915C6.64572 18.6755 6.53519 18.2572 6.38782 17.8365C6.34637 17.7199 6.33409 17.4996 6.35097 17.1756C6.36325 16.9515 6.32794 16.7435 6.24505 16.5516C6.05162 16.1064 5.85665 15.6344 5.66016 15.1354C6.0117 14.6058 6.52982 14.4216 7.21449 14.5828C8.44645 14.8752 9.54484 16.1809 10.1666 17.2885C10.2203 17.3852 10.1919 17.4335 10.0814 17.4335H8.56619C8.47408 17.4335 8.41958 17.4788 8.40269 17.5694L7.65431 21.6107Z" fill="#FDFEFE"/>
<path d="M5.66024 15.1354C5.85674 15.6343 6.0517 16.1064 6.24513 16.5515C6.32803 16.7434 6.36333 16.9515 6.35105 17.1756C6.33417 17.4995 6.34645 17.7198 6.3879 17.8365C6.53527 18.2571 6.6458 18.6754 6.71949 19.0914C6.77168 19.3847 6.85919 19.694 6.982 20.0194C7.08485 20.2927 7.15317 20.6181 7.18694 20.9958C7.21764 21.3243 7.37346 21.5293 7.65439 21.6106L7.62906 21.9468C7.62292 22.0312 7.66207 22.0727 7.7465 22.0712L8.95082 22.0527C8.95543 22.283 9.06366 22.4949 9.27551 22.6883C9.32617 22.7359 9.34843 22.795 9.34229 22.8656C9.33 22.993 9.37299 23.0966 9.47124 23.1765C9.56181 23.2517 9.61861 23.3469 9.64164 23.462C9.67848 23.6554 9.77903 23.8228 9.94329 23.964C9.98317 23.9983 10.0124 24.0435 10.0275 24.0945C10.0425 24.1455 10.0429 24.2 10.0285 24.2518C9.95481 24.5036 9.97169 24.7531 10.0792 25.0002C8.86102 25.2236 7.80177 24.2726 7.11786 23.3791C5.55661 21.3435 4.19801 17.5555 5.66024 15.1354Z" fill="white"/>
<path d="M10.0795 25.0003C9.97204 24.7531 9.95516 24.5037 10.0288 24.2519C10.0433 24.2001 10.0429 24.1455 10.0278 24.0945C10.0127 24.0436 9.98352 23.9983 9.94364 23.9641C9.77938 23.8228 9.67883 23.6555 9.64199 23.4621C9.61896 23.3469 9.56216 23.2517 9.47159 23.1765C9.37334 23.0967 9.33035 22.9931 9.34263 22.8657C9.34877 22.795 9.32651 22.7359 9.27586 22.6883C9.06401 22.4949 8.95578 22.2831 8.95117 22.0528L9.43244 19.4024C9.46161 19.2458 9.50689 19.2404 9.5683 19.3862L10.5631 21.7557C10.6721 22.0152 10.7519 22.0067 10.8026 21.7304L11.5786 17.5049C11.5939 17.419 11.6446 17.376 11.7306 17.376L12.9533 17.3783C12.9678 17.3784 12.9821 17.3817 12.9952 17.3878C13.0084 17.394 13.0199 17.4028 13.0292 17.4138C13.0384 17.4248 13.045 17.4376 13.0486 17.4514C13.0522 17.4651 13.0527 17.4795 13.05 17.4934L12.2441 22.0298C12.2287 22.1142 12.1788 22.1557 12.0944 22.1541L11.6223 22.1495C11.5195 22.148 11.4665 22.1979 11.4634 22.2992C11.4335 23.3009 11.1365 24.6526 10.0795 25.0003Z" fill="#FDFEFE"/>
<path d="M15.3457 19.5613L13.1949 19.559C13.0829 19.559 13.0453 19.5068 13.0821 19.4024L13.2341 18.9649C13.244 18.9372 13.2624 18.9133 13.2867 18.8965C13.3111 18.8796 13.3401 18.8705 13.3699 18.8705L15.9421 18.8728C16.3704 18.8728 16.5477 19.0839 16.474 19.506L16.0273 22.0574C16.0235 22.0798 16.012 22.1002 15.9947 22.1149C15.9775 22.1296 15.9556 22.1378 15.9329 22.138L13.4252 22.1565C12.8603 22.1595 12.6054 21.8801 12.6607 21.3183C12.6776 21.1509 12.706 20.9836 12.7459 20.8163C12.8733 20.2867 13.2095 20.0218 13.7545 20.0218L15.2789 20.0241C15.3894 20.0241 15.4508 19.9689 15.4631 19.8583L15.4792 19.7133C15.4915 19.6135 15.447 19.5628 15.3457 19.5613ZM13.8881 20.7127C13.854 20.7127 13.8208 20.7237 13.7934 20.744C13.7661 20.7643 13.746 20.7929 13.7361 20.8255L13.6209 21.1962C13.6138 21.2198 13.6122 21.2447 13.6164 21.2689C13.6205 21.2932 13.6302 21.3161 13.6447 21.336C13.6592 21.3559 13.6781 21.3721 13.7 21.3834C13.7218 21.3947 13.746 21.4008 13.7706 21.4012L15.0141 21.4058C15.0492 21.406 15.0833 21.3946 15.1112 21.3733C15.1391 21.3521 15.1592 21.3222 15.1684 21.2883L15.272 20.9199C15.2783 20.8965 15.2792 20.8719 15.2746 20.848C15.2699 20.8242 15.2599 20.8018 15.2452 20.7824C15.2305 20.7631 15.2116 20.7473 15.1899 20.7365C15.1682 20.7256 15.1443 20.7198 15.12 20.7196L13.8881 20.7127Z" fill="#FDFEFE"/>
<path d="M18.3987 19.7087C18.414 19.612 18.3726 19.5559 18.2743 19.5406L18.1592 19.5245C18.0797 19.5125 17.9986 19.5323 17.9333 19.5796C17.8679 19.6269 17.8234 19.698 17.8092 19.7778L17.4062 21.9953C17.3909 22.0797 17.3402 22.1235 17.2542 22.1265L16.6026 22.1542C16.4982 22.1588 16.4544 22.1097 16.4713 22.0068L17.0009 18.9948C17.0147 18.9135 17.0631 18.8728 17.146 18.8728H20.4066C20.4827 18.8726 20.5578 18.8892 20.6267 18.9213C20.6957 18.9534 20.7568 19.0003 20.8057 19.0587C20.8547 19.117 20.8903 19.1855 20.9101 19.2592C20.9298 19.3329 20.9333 19.4101 20.9202 19.4853L20.4711 22.0252C20.4573 22.1035 20.4113 22.1434 20.333 22.145L19.6421 22.1542C19.5715 22.1542 19.5416 22.1196 19.5523 22.0506L19.9369 19.6995C19.9538 19.5889 19.907 19.5268 19.7964 19.513C19.755 19.5068 19.7143 19.5068 19.6744 19.513C19.5911 19.5229 19.5131 19.5593 19.4518 19.6168C19.3905 19.6744 19.3491 19.7502 19.3336 19.833L18.9536 21.9584C18.9321 22.0828 18.8585 22.1457 18.7326 22.1473L18.1776 22.1496C18.0579 22.1496 18.008 22.0905 18.0279 21.9723L18.3987 19.7087Z" fill="#FDFEFE"/>
<path d="M22.2602 20.0886L23.3793 20.0817C24.0179 20.0771 24.2712 20.3872 24.1392 21.012L24.0816 21.2837C23.9619 21.8487 23.6127 22.1327 23.0339 22.1357L21.1226 22.1427C20.9707 22.1442 20.9108 22.0705 20.943 21.9216L21.0006 21.6499C21.0328 21.4994 21.1265 21.4242 21.2815 21.4242L22.8911 21.415C23.04 21.415 23.1283 21.3413 23.1559 21.1939L23.1882 21.012C23.2112 20.8892 23.1598 20.8278 23.0339 20.8278L21.9631 20.8301C21.4489 20.8301 21.2025 20.573 21.224 20.0587C21.2332 19.8822 21.2554 19.7041 21.2907 19.5245C21.3798 19.0869 21.6469 18.869 22.0921 18.8705L24.3534 18.8728C24.3948 18.8728 24.4117 18.8935 24.404 18.935L24.2981 19.5083C24.2904 19.5437 24.2682 19.5613 24.2313 19.5613H22.3431C22.231 19.5613 22.1688 19.6173 22.1566 19.7294L22.1335 19.9505C22.1243 20.0441 22.1665 20.0902 22.2602 20.0886Z" fill="#FDFEFE"/>
<path d="M25.3281 21.3137C25.3174 21.3782 25.3442 21.4096 25.4087 21.4081L26.4449 21.4058C26.4827 21.405 26.519 21.3916 26.5478 21.3678C26.5767 21.3439 26.5965 21.311 26.6038 21.2745L27.0275 19.0501C27.0377 18.9991 27.0654 18.9533 27.1057 18.9205C27.1461 18.8877 27.1966 18.87 27.2486 18.8705L27.7897 18.8774C27.8956 18.8789 27.9386 18.9319 27.9187 19.0363C27.7805 19.7747 27.6508 20.5238 27.5295 21.2837C27.3499 22.4098 25.9268 22.1749 25.1232 22.1381C25.0168 22.1334 24.9125 22.1062 24.8175 22.058C24.7225 22.0099 24.6388 21.9421 24.5721 21.859C24.5054 21.7759 24.4572 21.6796 24.4307 21.5764C24.4042 21.4733 24.4001 21.3656 24.4185 21.2607L24.8169 18.9925C24.8233 18.9583 24.8414 18.9273 24.8679 18.905C24.8943 18.8827 24.9276 18.8705 24.962 18.8705L25.6275 18.8728C25.7134 18.8728 25.7487 18.915 25.7334 18.9994L25.3281 21.3137Z" fill="#FDFEFE"/>
<path d="M30.4006 19.6304C30.4082 19.5843 30.389 19.5613 30.343 19.5613L29.1939 19.5636C29.1617 19.5636 29.1425 19.5797 29.1364 19.612L28.7012 22.0275C28.6873 22.1058 28.6413 22.145 28.563 22.145L27.8491 22.1473C27.7693 22.1473 27.7363 22.1081 27.7501 22.0298L28.2959 18.9902C28.3097 18.912 28.3565 18.8728 28.4363 18.8728H30.8634C30.9367 18.8725 31.0091 18.8884 31.0755 18.9195C31.1419 18.9506 31.2006 18.996 31.2475 19.0526C31.2943 19.1091 31.3282 19.1754 31.3466 19.2466C31.365 19.3178 31.3675 19.3923 31.3539 19.4646L30.8634 22.016C30.8465 22.1035 30.7936 22.1473 30.7045 22.1473L30.0851 22.1496C30.0684 22.1499 30.0518 22.1465 30.0365 22.1395C30.0213 22.1325 30.0078 22.1221 29.997 22.1091C29.9862 22.0961 29.9784 22.0808 29.9741 22.0643C29.9698 22.0478 29.9692 22.0305 29.9723 22.0137L30.4006 19.6304Z" fill="#FDFEFE"/>
<path d="M32.3743 21.1686C32.3451 21.3267 32.4111 21.4058 32.5723 21.4058H33.452C33.5748 21.4058 33.6477 21.3459 33.6707 21.2262L33.825 20.4202C33.8341 20.3736 33.8593 20.3316 33.8962 20.3013C33.9332 20.2711 33.9796 20.2545 34.0277 20.2544H34.6632C34.7461 20.2544 34.7806 20.2959 34.7668 20.3788L34.4629 22.0206C34.4475 22.1112 34.3938 22.1557 34.3017 22.1542L32.1325 22.1519C32.0358 22.152 31.9401 22.1319 31.8516 22.0927C31.7631 22.0535 31.6838 21.9962 31.6187 21.9244C31.5537 21.8526 31.5043 21.7679 31.4738 21.6758C31.4433 21.5837 31.4324 21.4863 31.4417 21.3897C31.5062 20.7081 31.6136 20.0403 31.7641 19.3863C31.7975 19.2397 31.8797 19.1088 31.9973 19.0151C32.1149 18.9214 32.2608 18.8704 32.4111 18.8705L34.9925 18.8728C35.0263 18.8728 35.0401 18.8897 35.0339 18.9234L34.9165 19.4968C34.9133 19.5154 34.9034 19.5323 34.8887 19.5445C34.874 19.5567 34.8553 19.5634 34.8359 19.5636L32.8256 19.5613C32.7811 19.5612 32.7379 19.577 32.7034 19.606C32.6689 19.635 32.6454 19.6754 32.6368 19.7202L32.3743 21.1686Z" fill="#FDFEFE"/>
<path d="M13.8882 20.7126L15.1202 20.7196C15.1444 20.7198 15.1683 20.7255 15.19 20.7364C15.2117 20.7473 15.2307 20.7631 15.2453 20.7824C15.26 20.8018 15.2701 20.8242 15.2747 20.848C15.2793 20.8719 15.2785 20.8964 15.2721 20.9199L15.1685 21.2883C15.1594 21.3222 15.1393 21.3521 15.1114 21.3733C15.0835 21.3945 15.0493 21.406 15.0142 21.4058L13.7708 21.4012C13.7462 21.4008 13.722 21.3947 13.7001 21.3834C13.6783 21.3721 13.6593 21.3559 13.6448 21.336C13.6303 21.3161 13.6206 21.2932 13.6165 21.2689C13.6124 21.2446 13.6139 21.2198 13.6211 21.1962L13.7362 20.8255C13.7461 20.7929 13.7662 20.7643 13.7936 20.744C13.8209 20.7236 13.8541 20.7127 13.8882 20.7126Z" fill="#19334C"/>
<circle cx="20" cy="20" r="19.5" stroke="black" stroke-opacity="0.05"/>
</svg>
