<svg width="40" height="40" viewBox="0 0 40 40" fill="none" xmlns="http://www.w3.org/2000/svg">
<circle cx="20" cy="20" r="20" fill="#E83426"/>
<g clip-path="url(#clip0_17713_28130)">
<path d="M16.4477 26.5795C13.445 25.879 10.5561 24.909 7.96656 23.4331C7.00559 22.8853 6.3829 22.038 6.0985 20.8885C5.87397 19.9874 6.03863 19.1102 6.4308 18.281C6.73915 17.6313 7.24508 17.0985 7.9486 16.6793C8.40664 16.4069 8.85569 16.1644 9.30474 15.9519C10.9273 15.1795 12.7235 14.5149 14.6934 13.9611C16.304 13.509 17.7559 13.2067 19.0492 13.054C19.9832 12.9432 20.9981 13.021 21.9441 13.1917C24.8929 13.7216 27.671 14.5778 30.2815 15.7633C30.9252 16.0567 31.5389 16.377 32.1227 16.7302C33.2962 17.4367 33.9817 18.718 33.9967 20.0712C33.9997 20.4095 33.9159 20.6999 33.853 21.0232C33.7243 21.6908 33.2932 22.3703 32.8262 22.8194C32.5148 23.1188 32.1346 23.3912 31.6856 23.6307C30.3205 24.3641 28.9044 24.9808 27.4375 25.4838C25.9108 26.0047 24.363 26.4208 22.7943 26.7352C22.1417 26.8669 21.5609 26.9627 21.055 27.0225C20.6329 27.0734 20.1569 27.1363 19.7288 27.0944C19.3785 27.0615 19.0312 27.0315 18.693 27.0076C18.6361 27.0046 18.6091 26.9746 18.6091 26.9178L18.6211 23.2445C18.6211 23.1786 18.675 23.1278 18.7379 23.1278C19.4833 23.1278 20.2197 23.1278 20.9442 23.1278C21.8513 23.1278 22.6327 22.4572 22.9021 21.6519C23.0159 21.3136 23.0608 20.8765 23.0398 20.3376C23.0218 19.8796 23.0218 19.4126 23.0398 18.9306C23.0787 17.9397 22.465 17.0595 21.5609 16.7183C21.3005 16.6195 20.9712 16.5686 20.573 16.5626C19.7827 16.5536 19.2348 16.5656 18.9325 16.6075C18.0793 16.7183 17.4775 17.1733 17.1243 17.9696C17.0404 18.1612 16.9955 18.3558 16.9985 18.5504C16.9985 23.7953 16.9985 26.4657 16.9866 26.5525C16.9806 26.6184 16.9417 26.6513 16.8728 26.6453C16.7291 26.6334 16.5884 26.6094 16.4477 26.5765V26.5795ZM11.571 18.8707C11.571 18.5055 11.7596 18.263 12.1577 18.251C12.7146 18.2361 13.2474 18.2361 13.7534 18.251C14.1455 18.26 14.3431 18.4756 14.3431 18.8947C14.3431 20.2329 14.3431 21.6249 14.3491 23.0679C14.3491 23.1218 14.391 23.1667 14.4449 23.1667L15.8639 23.1906C15.9238 23.1906 15.9717 23.1457 15.9717 23.0858C15.9717 21.8375 15.9777 20.5592 15.9777 19.2509C15.9777 18.6222 16.0076 18.1253 15.6125 17.5625C15.1574 16.9158 14.5078 16.5955 13.6576 16.6015C13.1576 16.6045 12.6607 16.6075 12.1607 16.6075C11.1249 16.6075 10.3585 17.2032 10.0262 18.1642C9.94539 18.3977 9.90947 18.757 9.91546 19.2479C9.93342 20.628 9.93342 21.9153 9.91845 23.1098C9.91845 23.1397 9.9424 23.1637 9.97234 23.1637L11.4722 23.1846C11.538 23.1846 11.568 23.1547 11.568 23.0888C11.574 21.6519 11.574 20.2448 11.568 18.8677L11.571 18.8707ZM26.1981 21.5231C25.7162 21.5231 25.6473 21.0382 25.6503 20.6729C25.6563 20.1281 25.6563 19.5683 25.6503 18.9995C25.6503 18.5953 25.7431 18.281 26.1802 18.257C26.6233 18.2331 27.1681 18.2331 27.8177 18.257C28.0692 18.266 28.3416 18.2989 28.3596 18.5773C28.3746 18.8019 28.3805 19.0264 28.3746 19.2509C28.3746 19.2749 28.3925 19.2958 28.4165 19.2958L29.9971 19.2779C30.0331 19.2779 30.054 19.2599 30.057 19.224C30.2037 17.769 29.2367 16.5925 27.7429 16.6045C27.198 16.6075 26.6771 16.6135 26.1802 16.6165C25.6772 16.6225 25.2462 16.7632 24.8869 17.0386C24.4588 17.3679 23.9858 18.0774 23.9978 18.6881C24.0157 19.4156 23.9858 20.167 23.9978 20.9184C24.0008 21.2537 24.0547 21.5321 24.1594 21.7566C24.3331 22.1338 24.5277 22.4123 24.7402 22.5979C25.4976 23.2595 26.3718 23.1757 27.3477 23.1816C27.8986 23.1846 28.3147 23.1337 28.5991 23.026C29.3266 22.7505 29.7876 22.2386 29.9792 21.4932C30.048 21.2268 30.084 20.9034 30.087 20.5232C30.087 20.4903 30.072 20.4753 30.0391 20.4753L28.4135 20.4694C28.3895 20.4694 28.3686 20.4903 28.3686 20.5143C28.3895 21.0531 28.4554 21.5291 27.7279 21.5261C27.198 21.5261 26.6861 21.5261 26.1952 21.5261L26.1981 21.5231Z" fill="white"/>
<path d="M21.4143 20.604C21.4143 21.0501 21.3364 21.5111 20.7796 21.5051C20.0791 21.4962 19.4055 21.4992 18.7619 21.5111C18.6661 21.5111 18.6182 21.4662 18.6182 21.3704C18.6271 20.6909 18.6242 19.8646 18.6182 18.8976C18.6182 18.4965 18.7828 18.245 19.2289 18.248C19.7228 18.254 20.2228 18.248 20.7287 18.239C21.088 18.23 21.3783 18.4635 21.3903 18.8228C21.4083 19.3646 21.4173 19.9604 21.4203 20.607L21.4143 20.604Z" fill="white"/>
</g>
<circle cx="20" cy="20" r="19.5" stroke="black" stroke-opacity="0.05"/>
<defs>
<clipPath id="clip0_17713_28130">
<rect width="28" height="14.1033" fill="white" transform="translate(6 13)"/>
</clipPath>
</defs>
</svg>
