<svg width="40" height="40" viewBox="0 0 40 40" fill="none" xmlns="http://www.w3.org/2000/svg">
<circle cx="20" cy="20" r="20" fill="#E83426"/>
<g clip-path="url(#clip0_18006_42372)">
<path d="M16.4477 26.5794C13.445 25.8788 10.5561 24.9089 7.96656 23.433C7.00559 22.8851 6.3829 22.0379 6.0985 20.8883C5.87397 19.9872 6.03863 19.1101 6.4308 18.2808C6.73915 17.6312 7.24508 17.0983 7.9486 16.6792C8.40664 16.4068 8.85569 16.1643 9.30474 15.9517C10.9273 15.1794 12.7235 14.5148 14.6934 13.9609C16.304 13.5089 17.7559 13.2065 19.0492 13.0539C19.9832 12.9431 20.9981 13.0209 21.9441 13.1916C24.8929 13.7214 27.671 14.5776 30.2815 15.7631C30.9252 16.0565 31.5389 16.3769 32.1227 16.7301C33.2962 17.4366 33.9817 18.7179 33.9967 20.0711C33.9997 20.4094 33.9159 20.6997 33.853 21.0231C33.7243 21.6907 33.2932 22.3702 32.8262 22.8193C32.5148 23.1186 32.1346 23.3911 31.6856 23.6306C30.3205 24.364 28.9044 24.9807 27.4375 25.4837C25.9108 26.0046 24.363 26.4207 22.7943 26.735C22.1417 26.8668 21.5609 26.9625 21.055 27.0224C20.6329 27.0733 20.1569 27.1362 19.7288 27.0943C19.3785 27.0613 19.0312 27.0314 18.693 27.0075C18.6361 27.0045 18.6091 26.9745 18.6091 26.9176L18.6211 23.2444C18.6211 23.1785 18.675 23.1276 18.7379 23.1276C19.4833 23.1276 20.2197 23.1276 20.9442 23.1276C21.8513 23.1276 22.6327 22.457 22.9021 21.6517C23.0159 21.3135 23.0608 20.8764 23.0398 20.3375C23.0218 19.8795 23.0218 19.4125 23.0398 18.9305C23.0787 17.9396 22.465 17.0594 21.5609 16.7181C21.3005 16.6193 20.9712 16.5685 20.573 16.5625C19.7827 16.5535 19.2348 16.5655 18.9325 16.6074C18.0793 16.7181 17.4775 17.1732 17.1243 17.9695C17.0404 18.1611 16.9955 18.3557 16.9985 18.5503C16.9985 23.7952 16.9985 26.4656 16.9866 26.5524C16.9806 26.6183 16.9417 26.6512 16.8728 26.6452C16.7291 26.6332 16.5884 26.6093 16.4477 26.5764V26.5794ZM11.571 18.8706C11.571 18.5054 11.7596 18.2629 12.1577 18.2509C12.7146 18.2359 13.2474 18.2359 13.7534 18.2509C14.1455 18.2599 14.3431 18.4754 14.3431 18.8945C14.3431 20.2327 14.3431 21.6248 14.3491 23.0678C14.3491 23.1216 14.391 23.1665 14.4449 23.1665L15.8639 23.1905C15.9238 23.1905 15.9717 23.1456 15.9717 23.0857C15.9717 21.8373 15.9777 20.559 15.9777 19.2508C15.9777 18.6221 16.0076 18.1252 15.6125 17.5624C15.1574 16.9157 14.5078 16.5954 13.6576 16.6014C13.1576 16.6044 12.6607 16.6074 12.1607 16.6074C11.1249 16.6074 10.3585 17.2031 10.0262 18.1641C9.94539 18.3976 9.90947 18.7568 9.91546 19.2478C9.93342 20.6279 9.93342 21.9152 9.91845 23.1097C9.91845 23.1396 9.9424 23.1636 9.97234 23.1636L11.4722 23.1845C11.538 23.1845 11.568 23.1546 11.568 23.0887C11.574 21.6517 11.574 20.2447 11.568 18.8676L11.571 18.8706ZM26.1981 21.523C25.7162 21.523 25.6473 21.038 25.6503 20.6728C25.6563 20.1279 25.6563 19.5681 25.6503 18.9993C25.6503 18.5952 25.7431 18.2808 26.1802 18.2569C26.6233 18.2329 27.1681 18.2329 27.8177 18.2569C28.0692 18.2659 28.3416 18.2988 28.3596 18.5772C28.3746 18.8017 28.3805 19.0263 28.3746 19.2508C28.3746 19.2747 28.3925 19.2957 28.4165 19.2957L29.9971 19.2777C30.0331 19.2777 30.054 19.2598 30.057 19.2239C30.2037 17.7689 29.2367 16.5924 27.7429 16.6044C27.198 16.6074 26.6771 16.6134 26.1802 16.6163C25.6772 16.6223 25.2462 16.763 24.8869 17.0385C24.4588 17.3678 23.9858 18.0773 23.9978 18.688C24.0157 19.4155 23.9858 20.1669 23.9978 20.9183C24.0008 21.2536 24.0547 21.532 24.1594 21.7565C24.3331 22.1337 24.5277 22.4121 24.7402 22.5977C25.4976 23.2594 26.3718 23.1755 27.3477 23.1815C27.8986 23.1845 28.3147 23.1336 28.5991 23.0258C29.3266 22.7504 29.7876 22.2385 29.9792 21.4931C30.048 21.2266 30.084 20.9033 30.087 20.5231C30.087 20.4902 30.072 20.4752 30.0391 20.4752L28.4135 20.4692C28.3895 20.4692 28.3686 20.4902 28.3686 20.5141C28.3895 21.053 28.4554 21.529 27.7279 21.526C27.198 21.526 26.6861 21.526 26.1952 21.526L26.1981 21.523Z" fill="white"/>
<path d="M21.4143 20.604C21.4143 21.0501 21.3364 21.5111 20.7796 21.5051C20.0791 21.4962 19.4055 21.4992 18.7619 21.5111C18.6661 21.5111 18.6182 21.4662 18.6182 21.3704C18.6271 20.6909 18.6242 19.8646 18.6182 18.8976C18.6182 18.4965 18.7828 18.245 19.2289 18.248C19.7228 18.254 20.2228 18.248 20.7287 18.239C21.088 18.23 21.3783 18.4635 21.3903 18.8228C21.4083 19.3646 21.4173 19.9604 21.4203 20.607L21.4143 20.604Z" fill="white"/>
</g>
<circle cx="20" cy="20" r="19.5" stroke="black" stroke-opacity="0.05"/>
<defs>
<clipPath id="clip0_18006_42372">
<rect width="28" height="14.1033" fill="white" transform="translate(6 13)"/>
</clipPath>
</defs>
</svg>
