<svg width="40" height="40" viewBox="0 0 40 40" fill="none" xmlns="http://www.w3.org/2000/svg">
<circle cx="20" cy="20" r="20" fill="#B7364C"/>
<circle cx="20" cy="20" r="19.5" stroke="black" stroke-opacity="0.05"/>
<g clip-path="url(#clip0_18005_40043)">
<path d="M20.5596 23.0739C20.8473 23.6564 21.1294 24.2178 21.4059 24.7583C21.5772 25.0939 21.6764 25.3727 21.7036 25.5948C21.8967 27.172 20.6872 27.9925 19.3041 28.2991C19.0657 28.3514 18.8291 28.4125 18.5828 28.3939C18.3595 28.3774 18.3548 28.3357 18.5686 28.269C19.3838 28.0147 19.9181 27.4591 20.3124 26.7387C20.5753 26.2585 20.6167 25.8128 20.4365 25.4016C20.3219 25.1405 20.1978 24.8756 20.0643 24.6068C18.6525 21.7578 17.1506 18.8131 15.5586 15.7726C15.3737 15.4194 15.2547 14.9814 15.2015 14.4586C15.1478 13.9216 15.289 13.3989 15.6251 12.8902C16.2778 11.9049 17.2183 11.4052 18.4464 11.391C18.5255 11.3904 18.5314 11.4108 18.4641 11.4521C18.2869 11.5602 18.091 11.6515 17.9236 11.7676C16.9359 12.4469 16.461 13.3932 16.4988 14.6066C16.5067 14.8724 16.6264 15.1754 16.7504 15.4226C17.9761 17.8647 19.2459 20.4151 20.5596 23.0739Z" fill="white"/>
<path d="M19.9134 12.9601C19.6432 13.6052 19.5333 14.4337 19.8488 15.0681C21.5075 18.3956 23.1272 21.6502 24.708 24.8318C24.9159 25.2506 24.9729 25.6904 24.879 26.1511C24.8111 26.4855 24.6129 26.8213 24.2845 27.1586C23.5605 27.902 22.4272 28.4567 21.3462 28.4044C21.2033 28.3979 21.1997 28.3722 21.3356 28.3273C22.4166 27.9685 23.2353 27.2011 23.6332 26.1804C23.7702 25.8301 23.7369 25.4435 23.5331 25.0205C23.0871 24.0919 22.6163 23.14 22.1207 22.1647C21.0414 20.0399 19.9279 17.874 18.7802 15.6671C18.6189 15.3564 18.4975 15.0025 18.416 14.6056C18.2751 13.9198 18.3867 13.3199 18.7695 12.7111C19.3747 11.748 20.4026 11.3519 21.4907 11.4325C21.5072 11.4337 21.5217 11.4399 21.5341 11.4511C21.5394 11.4563 21.5434 11.4627 21.5457 11.4697C21.548 11.4768 21.5485 11.4843 21.5472 11.4915C21.5459 11.4987 21.5428 11.5055 21.5382 11.5111C21.5335 11.5168 21.5276 11.5211 21.5208 11.5238C20.8084 11.8047 20.2112 12.2495 19.9134 12.9601Z" fill="white"/>
<path d="M31.9113 21.5436C31.5134 23.1367 30.4475 24.5421 29.1503 25.577C27.9284 26.5526 26.5098 27.2481 24.9946 27.7426C24.9904 27.7438 24.9878 27.7423 24.9866 27.7381L24.9777 27.716C24.9683 27.6918 24.9757 27.6746 24.9999 27.6646C25.7932 27.3332 26.326 26.7286 26.5984 25.8508C26.8606 25.0073 26.4911 24.4065 26.1358 23.6976C24.2249 19.8893 22.8048 17.0981 21.8756 15.3242C21.4556 14.5241 21.1658 13.4307 21.5335 12.6057C21.7648 12.0883 22.4249 11.5442 23.0479 11.6656C25.8957 12.2221 28.709 13.5503 30.5281 15.7921C31.8625 17.4375 32.4243 19.4879 31.9113 21.5436Z" fill="white"/>
<path d="M8.33267 16.9714C9.65824 14.3026 12.6496 12.6022 15.4541 11.8836C15.4631 11.8813 15.4727 11.8825 15.4808 11.887C15.4889 11.8914 15.4948 11.8988 15.4975 11.9075C15.5063 11.9364 15.4975 11.9574 15.4709 11.9704C14.7257 12.347 13.6589 13.0762 13.4152 13.9056C13.2439 14.4857 13.2891 15.0374 13.5508 15.5608C15.0772 18.6148 16.6706 21.8174 18.3311 25.1685C18.6194 25.7504 18.6903 26.3207 18.5438 26.8795C18.3205 27.7337 17.6099 28.354 16.6786 28.1599C14.6649 27.7393 12.932 27.0414 11.48 26.0661C9.72203 24.885 8.22368 23.1828 7.78064 21.074C7.48587 19.6728 7.66988 18.3053 8.33267 16.9714Z" fill="white"/>
</g>
<defs>
<clipPath id="clip0_18005_40043">
<rect width="28" height="17.5443" fill="white" transform="translate(6 11.2279)"/>
</clipPath>
</defs>
</svg>
