<svg width="40" height="40" viewBox="0 0 40 40" fill="none" xmlns="http://www.w3.org/2000/svg">
<circle cx="20" cy="20" r="20" fill="#29424E"/>
<g clip-path="url(#clip0_18005_40030)">
<path d="M9.95255 19.426C9.84007 19.2341 9.63269 19.1026 9.33462 19.0366L7.58067 18.6457C7.4464 18.6155 7.37469 18.5831 7.34798 18.5395C7.3402 18.5245 7.33551 18.508 7.33418 18.4911C7.33285 18.4742 7.33491 18.4572 7.34025 18.4411L7.4225 18.2155H10.3188L10.716 17H7.59613C7.10404 17 6.7645 17.0612 6.52338 17.1919C6.23515 17.3487 6.04253 17.5975 5.93427 17.9518L5.7761 18.4439C5.73412 18.5784 5.72019 18.72 5.73519 18.86C5.75018 19 5.79378 19.1355 5.86327 19.258C5.93268 19.3763 6.0263 19.4786 6.138 19.5582C6.2497 19.6378 6.37695 19.6929 6.51142 19.7199L8.18805 20.0946C8.25979 20.1012 8.32622 20.1352 8.37364 20.1895C8.38189 20.203 8.38727 20.2181 8.38944 20.2338C8.39162 20.2496 8.39055 20.2656 8.38629 20.2808L8.30264 20.5332H5.39156L5 21.7466H7.98489C8.6471 21.7466 8.99367 21.7121 9.29596 21.509C9.60949 21.2981 9.73251 20.9599 9.85202 20.5719L9.99262 20.0967C10.0714 19.8387 10.0573 19.6067 9.95255 19.426Z" fill="white"/>
<path d="M24.8389 19.0682C24.7032 18.8826 24.462 18.787 24.1232 18.787H22.0684C21.3471 18.787 20.8852 19.0745 20.6561 19.6657L19.1475 23.5322H20.7383L21.2178 22.2872H22.5415L22.1415 23.5322H23.7042L24.8993 19.8105C24.9921 19.509 24.9696 19.251 24.8389 19.0682ZM22.9288 21.1068H21.6712L22.0009 20.245C22.0712 20.0664 22.1281 20.0039 22.3348 20.0039H23.2761L22.9288 21.1068Z" fill="white"/>
<path d="M32.3516 20.006H34.6012L35.0012 18.7891H31.9854C31.2824 18.7891 30.9006 19.0401 30.6982 19.6327L29.7618 22.5607C29.6725 22.8264 29.695 23.0724 29.8244 23.2524C29.9537 23.4324 30.1949 23.5385 30.5063 23.5385H32.5836C33.0799 23.5385 33.2866 23.5083 33.5123 23.4035C33.7836 23.2763 33.9383 23.0759 34.0627 22.6886L34.5196 21.2608C34.5899 21.0499 34.5766 20.8861 34.4894 20.7652C34.4022 20.6443 34.2335 20.5761 34.01 20.5761H32.5337L32.1576 21.7487H32.8064L32.6602 22.2063C32.6265 22.3027 32.597 22.3209 32.4746 22.3209H31.3977L32.0838 20.1853C32.1323 20.032 32.211 20.006 32.3516 20.006Z" fill="white"/>
<path d="M28.7231 18.7891L27.9751 21.1209L27.3853 19.0865C27.3311 18.8918 27.1821 18.7891 26.955 18.7891H25.9231L24.4137 23.4942L24.4004 23.535H25.9596L26.6978 21.2355L27.3009 23.251C27.3333 23.3578 27.4296 23.5322 27.7101 23.5322H28.7596L30.2823 18.7863L28.7231 18.7891Z" fill="white"/>
<path d="M19.8479 19.0373C19.7312 18.877 19.5077 18.7891 19.2195 18.7891H12.5411L12.6852 18.3385C12.721 18.2211 12.8019 18.2155 12.9411 18.2155H15.2173L15.6068 17H12.9087C12.4166 17 12.0778 17.0612 11.8367 17.1919C11.5485 17.3494 11.3558 17.5975 11.2476 17.9518L10.0293 21.748H14.1066L14.4954 20.5339H11.9857L12.1692 19.961H18.2339L18.0869 20.4179C18.0616 20.4931 18.0258 20.5339 17.9084 20.5339H15.1281L14.1657 23.5364H17.2947C17.9021 23.5364 18.1797 23.4935 18.437 23.3599C18.655 23.2467 18.7984 23.0478 18.9031 22.7153L19.1351 21.9996C19.2089 21.7796 19.2637 21.5301 19.1112 21.3445L18.946 21.1596L19.2054 20.9796C19.4803 20.8039 19.5569 20.6984 19.6637 20.3617L19.8964 19.632C19.9731 19.3902 19.9562 19.1842 19.8479 19.0373ZM17.5323 22.1459C17.4767 22.309 17.3917 22.3167 17.2595 22.3167H16.1186L16.3014 21.7459H17.6588L17.5323 22.1459Z" fill="white"/>
</g>
<circle cx="20" cy="20" r="19.5" stroke="black" stroke-opacity="0.05"/>
<defs>
<clipPath id="clip0_18005_40030">
<rect width="30" height="6.53708" fill="white" transform="translate(5 17)"/>
</clipPath>
</defs>
</svg>
