<svg width="40" height="40" viewBox="0 0 40 40" fill="none" xmlns="http://www.w3.org/2000/svg">
<circle cx="20" cy="20" r="20" fill="#F6F8FA"/>
<path d="M26.5199 28.8658L26.4901 28.0863C26.4987 28.0777 26.5062 28.0695 26.5128 28.0615C26.5202 28.0522 26.5285 28.0439 26.5378 28.0363C27.317 27.3995 27.9848 26.6751 28.5411 25.8631C29.4395 24.5516 30.0078 23.1069 30.246 21.5289C30.2629 21.4171 30.2774 21.306 30.2895 21.1956C30.3823 20.3536 30.3788 19.5309 30.279 18.7275C30.0805 17.1296 29.5361 15.6522 28.6459 14.2952C28.5847 14.202 28.5215 14.1098 28.4564 14.0187C27.5285 12.7182 26.3667 11.6824 24.9709 10.9113C24.1303 10.447 23.2177 10.1058 22.2997 9.89959C20.7516 9.55174 19.1981 9.55624 17.6391 9.91308C17.5287 9.93841 17.4195 9.96573 17.3116 9.99505C16.4795 10.2212 15.702 10.5361 14.9792 10.94C13.664 11.6747 12.5605 12.644 11.6688 13.8479C10.4392 15.5082 9.73181 17.5105 9.65151 19.5749C9.58154 21.3705 9.96104 23.1469 10.7865 24.7399C11.3705 25.8666 12.1327 26.8548 13.073 27.7045L13.0189 28.5056C12.0099 27.6722 11.1754 26.6973 10.5155 25.581C10.4573 25.4824 10.4026 25.3862 10.3515 25.2923C9.4266 23.5911 8.97641 21.7787 9.00095 19.8553C9.02339 18.093 9.44987 16.4223 10.2804 14.8433C10.3318 14.7458 10.3849 14.6494 10.4397 14.5541C11.3154 13.0321 12.4853 11.7844 13.9495 10.8112C14.0438 10.7486 14.1375 10.6887 14.2307 10.6316C15.6852 9.74132 17.2563 9.21416 18.944 9.05012C19.7207 8.9746 20.5161 8.98443 21.3302 9.07961C21.4463 9.09316 21.5596 9.10859 21.67 9.12592C23.3616 9.39103 24.8989 10.0058 26.2817 10.9703C27.6717 11.9397 28.7875 13.1746 29.6291 14.675C29.6834 14.7719 29.7362 14.8706 29.7874 14.9712C30.5709 16.5096 30.9748 18.134 30.9988 19.8445C31.0228 21.547 30.6711 23.1708 29.9436 24.7159C29.8968 24.8154 29.8476 24.915 29.796 25.0148C29.0036 26.5491 27.9116 27.8328 26.5199 28.8658Z" fill="#D0101B"/>
<path d="M26.3798 27.3485C26.2063 26.8763 25.8998 26.5298 25.4603 26.3092C25.1423 26.1494 24.7708 26.0689 24.4228 26.0636C23.9952 26.0568 23.5209 26.0831 22.9999 26.1424C22.3162 26.2202 21.6318 26.3716 20.9638 26.5882C19.9817 26.9067 18.9573 27.0867 17.8904 27.128C17.7771 27.1323 17.6658 27.1327 17.5564 27.1293C17.5444 27.1289 17.533 27.1239 17.5246 27.1155C17.0148 26.6055 16.3562 26.1637 15.6495 26.0078C15.4262 25.9585 15.2027 25.9225 14.979 25.9C14.3821 25.8399 13.7339 25.9261 13.375 26.4536C13.2811 26.5918 13.2113 26.7587 13.1658 26.9544C12.2846 26.084 11.5971 25.0977 11.1033 23.9955C10.4891 22.6246 10.2073 21.1701 10.2577 19.6318C10.2612 19.5207 10.2672 19.4098 10.2757 19.2992C10.4 17.6608 10.897 16.1539 11.7669 14.7786C12.1493 14.174 12.6003 13.613 13.12 13.0957C13.2796 13.251 13.4523 13.4252 13.6381 13.6183C13.6717 13.6532 13.7116 13.6762 13.7577 13.6872C13.815 13.7008 13.8472 13.7092 13.8541 13.7126C13.9864 13.7742 14.111 13.891 14.203 14.0038C14.2683 14.084 14.3507 14.1598 14.4502 14.2312C14.481 14.2533 14.5173 14.2716 14.5592 14.2863C14.6951 14.334 14.8261 14.4129 14.9274 14.5074C14.989 14.5645 15.0323 14.6352 15.0661 14.712C15.1392 14.8779 15.1922 15.0438 15.2251 15.2097C15.2434 15.3027 15.2376 15.473 15.1173 15.4926C15.0456 15.5044 14.9901 15.5389 14.9505 15.5961C14.9255 15.6324 14.9555 15.6637 14.9905 15.6699C15.1546 15.6989 15.3507 15.7149 15.3875 15.9189C15.4148 16.0709 15.2849 16.1307 15.1756 16.1878C15.0567 16.25 14.9581 16.2898 14.8795 16.3073C14.6658 16.3549 14.4337 16.3618 14.2028 16.3832C14.1072 16.3921 14.0325 16.3927 13.9786 16.3851C13.8718 16.3697 13.5968 16.2924 13.6466 16.131C13.6847 16.0071 13.7862 15.8931 13.89 15.8211C13.9301 15.7934 13.9799 15.77 14.0396 15.751C14.1392 15.7194 14.2387 15.6849 14.3379 15.6477C14.3964 15.6258 14.4481 15.6 14.4932 15.5703C14.591 15.5056 14.476 15.4331 14.4169 15.4127C14.3327 15.3837 14.2491 15.3833 14.1662 15.4117C13.9524 15.4848 13.7242 15.5686 13.5808 15.734C13.4875 15.8416 13.3975 15.9563 13.2891 16.0464C13.1416 16.1688 12.8807 16.4547 13.0805 16.6403C13.3026 16.8464 13.5563 16.9803 13.8453 17.0131C13.9491 17.0249 14.0616 17.0273 14.183 17.0203C14.5785 16.9974 14.9412 16.9466 15.271 16.8677C15.3636 16.8455 15.4553 16.8093 15.5463 16.7592C15.6246 16.7159 15.8696 16.592 15.9373 16.6936C16.0091 16.8019 16.138 16.9785 16.0802 17.1146C16.0512 17.1829 15.9797 17.2304 15.9314 17.2884C15.8698 17.3623 15.802 17.4533 15.7282 17.5614C15.6922 17.6142 15.6489 17.66 15.6092 17.7085C15.5151 17.8235 15.5358 18.0137 15.5899 18.142C15.6764 18.3471 15.7208 18.5678 15.7155 18.7865C15.7114 18.9509 15.6712 19.1056 15.5949 19.2507C15.4331 19.5584 15.2732 19.8647 15.1153 20.1696C15.078 20.2417 15.0429 20.3178 15.0102 20.3979C14.9752 20.4832 14.9588 20.5719 14.9175 20.6566C14.8538 20.7867 14.7802 20.9174 14.6968 21.0484C14.5567 21.2681 14.4196 21.4865 14.2853 21.7036C14.1797 21.8747 14.0552 22.016 13.8956 22.1494C13.7344 22.2843 13.5856 22.4378 13.4493 22.6099C13.3846 22.6919 13.3347 22.7625 13.2997 22.8216C13.2371 22.9276 13.2034 23.0552 13.1988 23.2043C13.1925 23.4055 13.2492 23.5875 13.3687 23.7506C13.5819 24.0413 13.8278 24.2993 14.1062 24.5244C14.1948 24.5961 14.2876 24.6599 14.3844 24.716C14.5407 24.8066 14.7272 24.8766 14.944 24.9259C15.3255 25.0127 15.7352 25.0474 16.1277 25.0034C16.4541 24.9668 16.7561 24.9124 17.0336 24.8399C17.1927 24.7985 17.395 24.7348 17.5167 24.6224C17.6464 24.5023 17.791 24.4 17.9745 24.4576C18.0101 24.4687 18.0449 24.4804 18.0788 24.4928C18.1801 24.5294 18.3052 24.5188 18.4137 24.5078C18.5918 24.4894 18.7635 24.4708 18.944 24.4714C19.0701 24.4718 19.194 24.4739 19.3136 24.4656C19.5524 24.4486 19.8283 24.4194 20.1411 24.3778C20.2583 24.3623 20.3779 24.348 20.4998 24.335C20.6457 24.3196 20.8141 24.2717 21.0047 24.1914C21.1224 24.1417 21.2275 24.0609 21.3139 23.9673C21.4282 23.8434 21.5473 23.7168 21.6713 23.5877C21.7952 23.4585 21.9325 23.3414 22.0974 23.2456C22.346 23.1015 22.5774 22.861 22.7728 22.6181C22.838 22.537 22.8906 22.461 22.9306 22.3902C23.0226 22.2272 23.0899 21.971 22.9681 21.8107C22.929 21.7592 22.885 21.752 22.8361 21.7891C22.8091 21.8094 22.7868 21.8311 22.7692 21.8541C22.5614 22.1242 22.3902 22.3442 22.2557 22.5141C22.0766 22.7405 21.8607 22.9514 21.6515 23.1553C21.5572 23.2472 21.4575 23.3285 21.3524 23.3992C21.2911 23.4405 21.2107 23.4849 21.1112 23.5322C20.9524 23.6075 20.8072 23.6796 20.6352 23.7093C20.4513 23.7411 20.2812 23.7521 20.1248 23.7423C19.9174 23.7291 19.7545 23.6521 19.6358 23.5112C19.5754 23.4395 19.5207 23.3648 19.4717 23.2869C19.3991 23.1718 19.3443 23.0177 19.4627 22.9084C19.5357 22.8411 19.6278 22.8138 19.7218 22.7827C19.8254 22.7485 19.9327 22.7023 20.0435 22.6442C20.4557 22.4282 20.8695 22.1511 21.2431 21.8559C21.3593 21.7643 21.4847 21.6425 21.5457 21.5045C21.5953 21.3918 21.5723 21.2513 21.4414 21.2063C21.2573 21.1429 21.0287 21.2148 20.8616 21.3083C20.5543 21.4803 20.2452 21.6574 19.9342 21.8394C19.7147 21.9678 19.5058 22.0841 19.3075 22.1884C19.0948 22.3001 18.8934 22.3864 18.7032 22.4473C18.5945 22.4821 18.4866 22.4953 18.3794 22.487C18.2821 22.4795 18.2031 22.4237 18.2503 22.314C18.3102 22.1744 18.4735 22.071 18.6068 22.0108C18.9355 21.8624 19.272 21.6955 19.5842 21.5525C19.6525 21.5213 19.7212 21.4933 19.7903 21.4686C19.8757 21.438 19.9436 21.4068 19.994 21.3749C20.1893 21.2515 20.3612 21.0431 20.4733 20.8473C20.5858 20.6512 20.5634 20.4127 20.5644 20.1958C20.5648 20.1266 20.5751 20.058 20.5716 19.9887C20.5684 19.9255 20.5343 19.8982 20.4693 19.9067C20.3342 19.9247 20.1981 19.9904 20.0721 20.0333C19.9118 20.0882 19.7495 20.1121 19.5852 20.105C19.4661 20.0999 19.3413 20.0895 19.2107 20.0738C19.1567 20.0673 19.1033 20.0632 19.0504 20.0615C18.9918 20.0595 18.8653 20.0592 18.8885 20.1516C18.9323 20.3269 19.1086 20.4717 19.0023 20.6609C18.9071 20.8303 18.7509 20.9679 18.5488 20.9671C18.3794 20.9663 18.2454 21.0359 18.1102 21.1582C17.8665 21.3782 17.6551 21.5796 17.4761 21.7623C17.3771 21.8634 17.2912 21.972 17.1964 22.078C17.0549 22.2361 16.8842 22.3484 16.6661 22.2482C16.5192 22.1808 16.3446 22.0685 16.4637 21.8799C16.5318 21.7719 16.6401 21.6811 16.7359 21.6013C16.835 21.5187 16.9332 21.4274 17.0265 21.3373C17.2188 21.1516 17.4301 20.945 17.6603 20.7176C17.6981 20.6802 17.7423 20.6416 17.7928 20.6018C17.9171 20.5036 18.0009 20.3745 18.0663 20.2276C18.124 20.098 18.1666 19.9585 18.1591 19.8161C18.1495 19.6305 18.1318 19.4369 18.2856 19.3012C18.4137 19.188 18.6614 19.0003 18.833 19.0541C18.8652 19.0642 18.898 19.0831 18.9315 19.1107C19.0419 19.2025 19.1804 19.2695 19.3165 19.2882C19.3988 19.2994 19.5064 19.3022 19.6393 19.2967C19.8086 19.2897 19.954 19.2027 20.0798 19.0962C20.2801 18.9268 20.8133 18.474 21.0796 18.7037C21.2075 18.8142 21.3409 18.9405 21.4945 19.0008C21.6835 19.0751 21.8382 18.9926 21.9325 18.8254C21.9603 18.7762 21.9776 18.7344 21.9843 18.7001C22.0114 18.5648 22.033 18.429 22.049 18.2928C22.0618 18.1841 22.0805 18.0743 22.0785 17.9702C22.075 17.7928 21.9863 17.6064 21.8074 17.5447C21.5822 17.4674 21.3549 17.4128 21.1074 17.4226C20.8831 17.4315 20.6542 17.4511 20.4283 17.4386C20.2216 17.4271 20.059 17.3587 19.8937 17.2467C19.6533 17.0836 19.3108 17.0116 19.0203 17.1074C18.9568 17.1284 18.8979 17.1487 18.8435 17.1682C18.6366 17.2429 18.4147 17.2919 18.1956 17.2794C17.9002 17.2622 17.6262 17.1291 17.3448 17.0513C17.2732 17.0315 17.2049 17.03 17.1334 17.035C16.9935 17.0448 16.8505 16.9925 16.7342 16.9102C16.5442 16.7756 16.3848 16.6068 16.256 16.4037C16.1928 16.3044 16.064 16.0322 16.2974 16.0211C16.3599 16.0181 16.4254 16.0135 16.4942 16.0074C16.6691 15.9919 16.8932 15.9053 16.9813 15.7453C17.0671 15.5894 17.1143 15.411 17.3415 15.4445C17.4946 15.467 17.6364 15.5303 17.781 15.5846C17.8823 15.6227 17.9701 15.6351 18.0705 15.6226C18.2601 15.5991 18.4547 15.5449 18.6458 15.5481C18.7289 15.5495 18.7951 15.5749 18.8443 15.6241C18.9365 15.7162 19.0684 15.874 19.2099 15.747C19.2971 15.6685 19.3626 15.5598 19.4742 15.5048C19.5579 15.4635 19.6453 15.5154 19.6971 15.5891C19.7864 15.7152 20.0866 16.1655 20.2901 15.9738C20.3725 15.896 20.4844 15.8602 20.6259 15.8663C20.6836 15.8688 20.7684 15.8848 20.8073 15.9321C20.8225 15.9504 20.8384 15.9678 20.8548 15.9842C20.9171 16.0462 21.0066 15.9393 21.0499 15.9028C21.147 15.8211 21.2471 15.9053 21.3329 15.9501C21.3814 15.9753 21.4459 15.9932 21.5267 16.0039C21.6462 16.0196 21.7646 16.0248 21.882 16.0197C21.9928 16.0149 22.0971 15.9824 22.1164 15.8571C22.1263 15.7935 22.1258 15.7171 22.1149 15.6279C22.1029 15.5299 22.1822 15.4868 22.2617 15.4568C22.3808 15.412 22.4603 15.4715 22.5236 15.5688C22.5969 15.6814 22.6667 15.7877 22.733 15.8878C22.8941 16.1314 23.0997 16.2401 23.3896 16.1315C23.4893 16.0941 23.5868 16.0483 23.6819 15.9941C23.892 15.8745 24.097 15.733 24.297 15.5696C24.3731 15.5075 24.4306 15.4514 24.4694 15.4013C24.6723 15.1404 24.3435 14.6128 24.1826 14.3936C24.0276 14.1825 23.8619 13.9652 23.6854 13.7419C23.6179 13.6565 23.5422 13.5518 23.4582 13.428C23.392 13.3305 23.3288 13.2509 23.2684 13.1891C22.9556 12.8681 22.5146 12.7643 22.1244 12.5754C21.9123 12.4726 21.7024 12.365 21.4947 12.2525C21.1275 12.0536 20.7828 11.8683 20.4605 11.6968C20.3539 11.64 20.2359 11.5839 20.1066 11.5283C19.9329 11.4537 19.7405 11.3955 19.5684 11.4955C19.5248 11.5208 19.4944 11.5499 19.4771 11.5828C19.3558 11.8112 19.7803 12.2087 19.935 12.33C20.4083 12.7007 20.9163 13.0802 21.4021 13.4758C21.7114 13.7279 21.9872 14.0039 22.1837 14.3428C22.2735 14.4974 22.3752 14.7433 22.2347 14.9004C22.1209 15.0277 21.9715 15.0556 21.8106 15.0375C21.7066 15.0256 21.6037 15.0068 21.5017 14.9812C21.3294 14.9376 21.17 14.8975 21.0232 14.8609C20.8774 14.8245 20.6912 14.7868 20.4646 14.7479C20.2005 14.7026 19.8857 14.6594 19.5201 14.6183C19.182 14.5803 18.8407 14.5447 18.5193 14.6525C18.4234 14.6846 18.3306 14.7315 18.2338 14.7556C18.0421 14.8033 17.8484 14.8287 17.6527 14.8321C17.4186 14.8361 17.1876 14.8399 16.9597 14.8436C16.7587 14.8467 16.5585 14.8356 16.4046 14.7021C16.1804 14.5077 15.9929 14.3017 15.842 14.0842C15.794 14.0153 15.7592 13.9707 15.7377 13.9505C15.6509 13.8688 15.5008 13.856 15.3753 13.8425C15.1782 13.8212 14.9983 13.7457 14.8356 13.6159C14.6698 13.4837 14.51 13.3384 14.3386 13.2178C14.2785 13.1755 14.2095 13.1563 14.1539 13.106C14.1309 13.0852 14.1127 13.0661 14.0994 13.0485C13.976 12.8855 13.8414 12.7242 13.6957 12.5647C14.4023 11.9661 15.1608 11.4845 15.9712 11.1198C17.4394 10.4592 18.979 10.176 20.5899 10.27C22.3142 10.3707 23.9948 10.9357 25.424 11.8985C26.6759 12.7419 27.684 13.819 28.4482 15.1298C28.5052 15.2275 28.5587 15.3238 28.6087 15.4185C29.3402 16.8045 29.7196 18.2723 29.7468 19.8219C29.7766 21.5204 29.3903 23.1209 28.588 24.6232C28.0392 25.6506 27.2931 26.5735 26.4118 27.3482C26.4001 27.3584 26.3894 27.3585 26.3798 27.3485ZM25.6004 17.376C25.803 17.4786 25.9715 17.4639 26.1727 17.3762C26.346 17.3007 26.5252 17.2249 26.71 17.1842C26.9669 17.1278 27.2327 17.0273 27.4585 16.9193C27.5334 16.8835 27.6048 16.8413 27.6726 16.7927C27.8145 16.6913 27.9674 16.6033 28.0859 16.4784C28.1788 16.3804 28.2088 16.2647 28.1757 16.1314C28.1165 15.8928 27.9121 15.6744 27.6877 15.5798C27.5824 15.5353 27.4391 15.4855 27.2577 15.4303C27.0506 15.3672 26.8466 15.3076 26.6457 15.2516C26.5553 15.2263 26.4497 15.21 26.3291 15.2026C26.0436 15.1849 25.7801 15.1959 25.5386 15.2354C25.453 15.2496 25.36 15.2726 25.2864 15.3164C24.8194 15.5949 24.3846 15.8742 23.9821 16.1543C23.8617 16.2381 23.7562 16.3503 23.7233 16.4942C23.6974 16.6066 23.7309 16.6963 23.8089 16.7881C23.9267 16.9265 24.0196 17.0814 24.2102 17.1214C24.2838 17.1369 24.3601 17.1528 24.4391 17.1692C24.5213 17.1863 24.5799 17.22 24.6149 17.2702C24.6775 17.3605 24.7723 17.4143 24.8799 17.4478C25.0118 17.489 25.1446 17.4873 25.2786 17.4428C25.3432 17.4212 25.4072 17.3977 25.4707 17.3722C25.516 17.3538 25.5592 17.3551 25.6004 17.376ZM27.5291 18.2889C27.3336 18.1886 27.1403 18.0864 26.9492 17.9822C26.8362 17.9205 26.7116 17.879 26.5752 17.8579C26.5136 17.8483 26.3868 17.8463 26.3929 17.9392C26.4008 18.0625 26.5474 18.1588 26.6492 18.2003C26.7833 18.2551 26.9157 18.3201 27.0328 18.4045C27.0868 18.4434 27.1251 18.4821 27.1476 18.5205C27.1756 18.5681 27.2031 18.6174 27.2302 18.6683C27.3342 18.8638 27.4978 18.9428 27.719 18.9496C28.0026 18.9585 28.2678 18.902 28.4457 18.6656C28.4875 18.61 28.5573 18.481 28.4559 18.4467C28.4141 18.4326 28.3687 18.4279 28.3196 18.4327C28.2336 18.4409 28.1475 18.4486 28.0612 18.4559C27.999 18.4611 27.9454 18.4582 27.9005 18.4474C27.7755 18.4167 27.6487 18.3502 27.5291 18.2889ZM24.6051 25.7364C24.7703 25.7558 24.9378 25.7424 25.0979 25.697C25.2581 25.6516 25.4077 25.5751 25.5383 25.4718C25.6689 25.3684 25.7779 25.2404 25.8592 25.0949C25.9404 24.9494 25.9922 24.7893 26.0116 24.6238C26.0509 24.2895 25.956 23.9533 25.7477 23.6892C25.5395 23.4251 25.235 23.2547 24.9012 23.2155C24.7359 23.1961 24.5685 23.2094 24.4083 23.2549C24.2482 23.3003 24.0986 23.3768 23.968 23.4801C23.8374 23.5834 23.7283 23.7115 23.6471 23.857C23.5659 24.0025 23.5141 24.1626 23.4947 24.3281C23.4554 24.6624 23.5503 24.9986 23.7586 25.2627C23.9668 25.5268 24.2713 25.6972 24.6051 25.7364ZM21.0024 25.6696C21.2421 25.7221 21.4982 25.837 21.6833 25.9931C21.7926 26.0852 21.9105 26.1815 22.0413 26.2197C22.1376 26.2478 22.2104 26.2189 22.2792 26.1487C22.359 26.0673 22.4583 26.0194 22.5554 25.9605C22.5774 25.947 22.5941 25.9304 22.6056 25.9105C22.6092 25.9041 22.6108 25.8968 22.6101 25.8894C22.6093 25.8821 22.6064 25.8752 22.6016 25.8697C22.5776 25.8422 22.5474 25.8206 22.5109 25.8047C22.3744 25.7454 22.238 25.6905 22.1016 25.6401C21.9955 25.6008 21.8962 25.5567 21.8036 25.5078C21.7382 25.4734 21.6882 25.4361 21.6538 25.396C21.5926 25.3247 21.5497 25.2299 21.5252 25.1117C21.5045 25.0127 21.5424 24.9204 21.6237 24.8596C21.7444 24.7691 21.8413 24.6609 21.9144 24.5349C21.9687 24.4415 22.0062 24.3023 21.8782 24.2515C21.7513 24.2012 21.6082 24.2912 21.5374 24.398C21.4064 24.5954 21.2584 24.7861 21.0934 24.9699C21.0046 25.0689 20.925 25.1387 20.8545 25.1793C20.759 25.2344 20.6945 25.3144 20.6824 25.422C20.6712 25.5203 20.7037 25.5894 20.78 25.6293C20.8155 25.6478 20.863 25.6508 20.9041 25.6544C20.9372 25.6575 20.97 25.6626 21.0024 25.6696ZM14.8411 25.4352C14.5718 25.4529 14.3353 25.2211 14.1515 25.0499C14.0955 24.9977 14.0081 24.9677 13.9449 25.0227C13.9101 25.053 13.838 25.1183 13.8252 25.1663C13.8235 25.1724 13.8242 25.1782 13.8273 25.1836C13.8472 25.2183 13.8705 25.2469 13.8973 25.2694C13.9894 25.3473 14.0704 25.4233 14.1405 25.4973C14.2433 25.6058 14.3376 25.6744 14.48 25.7002C14.5299 25.7092 14.5634 25.7143 14.5805 25.7154C14.729 25.7253 14.8981 25.7388 15.0878 25.7559C15.263 25.7715 15.4266 25.8069 15.5784 25.862C15.7538 25.9256 15.8471 25.9556 15.9906 25.984C16.1093 26.0074 16.2728 26.0229 16.3722 25.9548C16.4978 25.8688 16.6246 25.773 16.7694 25.7131C16.8149 25.6941 16.8627 25.6856 16.9112 25.6778C16.9781 25.6669 17.0426 25.6364 17.0961 25.5956C17.1376 25.5638 17.1979 25.5025 17.1879 25.4454C17.1716 25.3517 16.9077 25.3636 16.8174 25.3619C16.6203 25.3582 16.4289 25.3616 16.2326 25.3917C16.0804 25.415 15.9291 25.4414 15.7808 25.4487C15.5707 25.4589 15.3673 25.4412 15.1403 25.4277C15.0368 25.4215 14.9405 25.4287 14.8411 25.4352Z" fill="#D0101B"/>
<path d="M13.1188 13.0955L12.9576 12.9376C12.9565 12.9365 12.9556 12.9352 12.955 12.9338C12.9544 12.9323 12.9541 12.9308 12.9541 12.9293C12.9541 12.9278 12.9544 12.9262 12.955 12.9248C12.9556 12.9234 12.9565 12.9222 12.9576 12.9211L13.5027 12.3758C13.5037 12.3748 13.5049 12.374 13.5063 12.3734C13.5077 12.3729 13.5091 12.3726 13.5106 12.3727C13.5121 12.3727 13.5135 12.373 13.5149 12.3736C13.5162 12.3742 13.5175 12.3751 13.5185 12.3762L13.6946 12.5646C13.8403 12.7241 13.9748 12.8853 14.0982 13.0484C14.1116 13.0659 14.1297 13.0851 14.1527 13.1058C14.2083 13.1562 14.2773 13.1753 14.3375 13.2176C14.5089 13.3382 14.6687 13.4835 14.8344 13.6158C14.9971 13.7455 15.177 13.821 15.3742 13.8424C15.4996 13.8559 15.6497 13.8687 15.7365 13.9503C15.7581 13.9705 15.7928 14.0151 15.8408 14.0841C15.9918 14.3016 16.1793 14.5075 16.4034 14.702C16.5573 14.8354 16.7576 14.8466 16.9585 14.8434C17.1864 14.8398 17.4174 14.8359 17.6515 14.8319C17.8472 14.8286 18.0409 14.8031 18.2326 14.7555C18.3294 14.7313 18.4222 14.6845 18.5182 14.6524C18.8395 14.5446 19.1809 14.5802 19.5189 14.6182C19.8845 14.6593 20.1994 14.7025 20.4635 14.7478C20.6901 14.7867 20.8763 14.8243 21.0221 14.8608C21.1688 14.8974 21.3283 14.9375 21.5006 14.981C21.6025 15.0067 21.7055 15.0255 21.8094 15.0374C21.9704 15.0555 22.1198 15.0275 22.2336 14.9002C22.374 14.7431 22.2724 14.4973 22.1826 14.3427C21.986 14.0038 21.7103 13.7277 21.4009 13.4757C20.9151 13.08 20.4072 12.7005 19.9339 12.3298C19.7791 12.2086 19.3546 11.8111 19.4759 11.5827C19.4933 11.5498 19.5237 11.5207 19.5672 11.4954C19.7393 11.3954 19.9317 11.4536 20.1055 11.5282C20.2348 11.5837 20.3527 11.6399 20.4593 11.6966C20.7816 11.8682 21.1264 12.0535 21.4936 12.2524C21.7012 12.3649 21.9112 12.4725 22.1233 12.5752C22.5135 12.7642 22.9544 12.868 23.2673 13.189C23.3276 13.2507 23.3909 13.3304 23.4571 13.4279C23.541 13.5517 23.6168 13.6563 23.6843 13.7417C23.8608 13.9651 24.0265 14.1823 24.1814 14.3935C24.3423 14.6127 24.6712 15.1403 24.4683 15.4012C24.4294 15.4513 24.3719 15.5074 24.2959 15.5695C24.0958 15.7328 23.8908 15.8743 23.6808 15.9939C23.5856 16.0481 23.4881 16.094 23.3884 16.1314C23.0985 16.24 22.893 16.1312 22.7319 15.8877C22.6656 15.7876 22.5958 15.6812 22.5225 15.5686C22.4591 15.4713 22.3797 15.4119 22.2606 15.4567C22.1811 15.4867 22.1018 15.5298 22.1138 15.6278C22.1247 15.717 22.1252 15.7934 22.1153 15.857C22.096 15.9823 21.9917 16.0148 21.8809 16.0196C21.7635 16.0247 21.645 16.0194 21.5255 16.0038C21.4448 15.9931 21.3802 15.9752 21.3318 15.95C21.246 15.9051 21.1459 15.821 21.0487 15.9026C21.0054 15.9391 20.916 16.0461 20.8537 15.9841C20.8372 15.9677 20.8214 15.9503 20.8062 15.932C20.7672 15.8847 20.6824 15.8687 20.6248 15.8662C20.4833 15.8601 20.3713 15.8959 20.2889 15.9736C20.0855 16.1654 19.7853 15.7151 19.696 15.589C19.6442 15.5153 19.5567 15.4633 19.4731 15.5047C19.3615 15.5596 19.296 15.6684 19.2087 15.7469C19.0673 15.8738 18.9353 15.7161 18.8432 15.6239C18.794 15.5747 18.7278 15.5494 18.6446 15.548C18.4535 15.5448 18.2589 15.5989 18.0694 15.6224C17.9689 15.6349 17.8811 15.6226 17.7798 15.5845C17.6352 15.5301 17.4934 15.4668 17.3403 15.4443C17.1131 15.4109 17.066 15.5893 16.9802 15.7452C16.892 15.9051 16.668 15.9918 16.493 16.0073C16.4243 16.0134 16.3587 16.0179 16.2963 16.0209C16.0629 16.0321 16.1917 16.3043 16.2548 16.4036C16.3836 16.6066 16.5431 16.7754 16.7331 16.91C16.8494 16.9923 16.9923 17.0447 17.1323 17.0348C17.2037 17.0298 17.272 17.0313 17.3437 17.0512C17.6251 17.129 17.8991 17.2621 18.1945 17.2792C18.4135 17.2917 18.6355 17.2427 18.8424 17.1681C18.8968 17.1486 18.9557 17.1283 19.0191 17.1073C19.3097 17.0115 19.6522 17.0835 19.8926 17.2466C20.0578 17.3585 20.2204 17.427 20.4272 17.4385C20.6531 17.451 20.882 17.4313 21.1062 17.4225C21.3538 17.4127 21.581 17.4673 21.8063 17.5446C21.9852 17.6063 22.0738 17.7927 22.0773 17.9701C22.0793 18.0742 22.0606 18.184 22.0478 18.2926C22.0318 18.4289 22.0103 18.5647 21.9832 18.6999C21.9764 18.7343 21.9591 18.776 21.9314 18.8252C21.8371 18.9925 21.6823 19.075 21.4934 19.0007C21.3398 18.9403 21.2063 18.8141 21.0784 18.7036C20.8122 18.4739 20.2789 18.9267 20.0787 19.0961C19.9529 19.2026 19.8074 19.2895 19.6382 19.2965C19.5052 19.3021 19.3976 19.2992 19.3153 19.288C19.1792 19.2694 19.0408 19.2024 18.9303 19.1106C18.8969 19.083 18.8641 19.0641 18.8319 19.054C18.6603 19.0002 18.4125 19.1879 18.2844 19.301C18.1307 19.4368 18.1483 19.6304 18.158 19.816C18.1655 19.9584 18.1228 20.0978 18.0652 20.2275C17.9997 20.3744 17.9159 20.5035 17.7916 20.6016C17.7411 20.6415 17.697 20.6801 17.6592 20.7174C17.429 20.9449 17.2177 21.1515 17.0253 21.3372C16.932 21.4273 16.8339 21.5186 16.7348 21.6012C16.639 21.681 16.5307 21.7718 16.4625 21.8798C16.3434 22.0683 16.518 22.1806 16.665 22.2481C16.883 22.3482 17.0538 22.2359 17.1952 22.0778C17.29 21.9719 17.376 21.8633 17.4749 21.7621C17.654 21.5794 17.8653 21.3781 18.109 21.1581C18.2443 21.0358 18.3782 20.9661 18.5477 20.967C18.7497 20.9678 18.906 20.8302 19.0011 20.6608C19.1074 20.4715 18.9312 20.3268 18.8873 20.1515C18.8642 20.059 18.9906 20.0594 19.0493 20.0614C19.1021 20.063 19.1556 20.0671 19.2095 20.0737C19.3401 20.0894 19.465 20.0997 19.584 20.1048C19.7483 20.112 19.9106 20.0881 20.071 20.0332C20.1969 19.9902 20.3331 19.9246 20.4682 19.9066C20.5331 19.898 20.5672 19.9254 20.5705 19.9886C20.574 20.0579 20.5636 20.1265 20.5633 20.1956C20.5623 20.4125 20.5846 20.6511 20.4722 20.8472C20.36 21.0429 20.1881 21.2514 19.9929 21.3748C19.9424 21.4067 19.8745 21.4379 19.7891 21.4684C19.72 21.4932 19.6513 21.5212 19.583 21.5524C19.2708 21.6953 18.9343 21.8623 18.6056 22.0107C18.4724 22.0708 18.3091 22.1743 18.2491 22.3139C18.202 22.4235 18.2809 22.4793 18.3782 22.4868C18.4854 22.4952 18.5934 22.4819 18.7021 22.4472C18.8922 22.3863 19.0936 22.3 19.3063 22.1883C19.5047 22.084 19.7136 21.9677 19.9331 21.8393C20.244 21.6572 20.5532 21.4802 20.8605 21.3082C21.0276 21.2147 21.2562 21.1427 21.4402 21.2062C21.5712 21.2512 21.5942 21.3916 21.5445 21.5044C21.4836 21.6424 21.3581 21.7641 21.242 21.8558C20.8683 22.151 20.4545 22.428 20.0423 22.6441C19.9315 22.7022 19.8243 22.7483 19.7207 22.7825C19.6267 22.8137 19.5346 22.841 19.4616 22.9083C19.3431 23.0176 19.398 23.1717 19.4706 23.2868C19.5196 23.3647 19.5743 23.4394 19.6347 23.5111C19.7533 23.652 19.9163 23.729 20.1236 23.7421C20.28 23.752 20.4502 23.741 20.6341 23.7091C20.806 23.6795 20.9513 23.6073 21.1101 23.532C21.2096 23.4847 21.29 23.4404 21.3513 23.3991C21.4564 23.3284 21.556 23.2471 21.6503 23.1552C21.8596 22.9513 22.0755 22.7404 22.2546 22.514C22.3891 22.3441 22.5602 22.124 22.768 21.8539C22.7857 21.8309 22.808 21.8093 22.835 21.789C22.8839 21.7519 22.9278 21.7591 22.9669 21.8106C23.0887 21.9709 23.0214 22.2271 22.9294 22.39C22.8895 22.4609 22.8369 22.5369 22.7717 22.6179C22.5763 22.8608 22.3449 23.1014 22.0963 23.2455C21.9314 23.3413 21.7941 23.4584 21.6701 23.5875C21.5462 23.7167 21.4271 23.8432 21.3128 23.9672C21.2263 24.0608 21.1212 24.1416 21.0036 24.1913C20.8129 24.2716 20.6446 24.3194 20.4987 24.3349C20.3767 24.3479 20.2571 24.3621 20.14 24.3777C19.8271 24.4192 19.5513 24.4485 19.3125 24.4655C19.1929 24.4738 19.0689 24.4716 18.9428 24.4713C18.7624 24.4706 18.5906 24.4893 18.4125 24.5076C18.3041 24.5186 18.179 24.5293 18.0777 24.4926C18.0437 24.4803 18.0089 24.4686 17.9734 24.4575C17.7898 24.3998 17.6452 24.5021 17.5156 24.6222C17.3938 24.7347 17.1916 24.7983 17.0325 24.8398C16.7549 24.9122 16.4529 24.9667 16.1265 25.0032C15.734 25.0472 15.3244 25.0126 14.9429 24.9258C14.7261 24.8765 14.5395 24.8065 14.3833 24.7159C14.2864 24.6598 14.1937 24.5959 14.1051 24.5243C13.8266 24.2992 13.5808 24.0412 13.3675 23.7504C13.248 23.5874 13.1914 23.4053 13.1976 23.2042C13.2023 23.055 13.2359 22.9275 13.2986 22.8215C13.3336 22.7623 13.3834 22.6917 13.4482 22.6098C13.5845 22.4376 13.7332 22.2841 13.8945 22.1493C14.0541 22.0159 14.1785 21.8746 14.2842 21.7035C14.4184 21.4864 14.5556 21.268 14.6956 21.0483C14.779 20.9172 14.8526 20.7866 14.9164 20.6564C14.9577 20.5718 14.974 20.483 15.009 20.3977C15.0418 20.3176 15.0768 20.2416 15.1141 20.1695C15.2721 19.8646 15.4319 19.5583 15.5938 19.2505C15.6701 19.1055 15.7103 18.9508 15.7144 18.7864C15.7197 18.5677 15.6752 18.3469 15.5888 18.1419C15.5346 18.0136 15.514 17.8233 15.6081 17.7084C15.6477 17.6599 15.691 17.6141 15.727 17.5613C15.8009 17.4532 15.8686 17.3622 15.9303 17.2882C15.9786 17.2302 16.0501 17.1828 16.079 17.1145C16.1369 16.9784 16.0079 16.8018 15.9361 16.6935C15.8685 16.5919 15.6234 16.7158 15.5451 16.7591C15.4541 16.8092 15.3624 16.8454 15.2699 16.8676C14.94 16.9464 14.5774 16.9973 14.1819 17.0202C14.0605 17.0272 13.9479 17.0248 13.8442 17.013C13.5551 16.9802 13.3014 16.8462 13.0793 16.6402C12.8796 16.4546 13.1405 16.1687 13.2879 16.0463C13.3964 15.9561 13.4863 15.8415 13.5796 15.7339C13.7231 15.5685 13.9513 15.4847 14.165 15.4115C14.248 15.3832 14.3316 15.3835 14.4158 15.4125C14.4749 15.433 14.5899 15.5055 14.4921 15.5701C14.447 15.5999 14.3952 15.6257 14.3368 15.6476C14.2375 15.6848 14.138 15.7192 14.0384 15.7509C13.9788 15.7699 13.9289 15.7933 13.8888 15.821C13.785 15.893 13.6836 16.0069 13.6454 16.1309C13.5956 16.2923 13.8707 16.3696 13.9774 16.3849C14.0313 16.3926 14.1061 16.392 14.2017 16.3831C14.4326 16.3616 14.6647 16.3548 14.8784 16.3071C14.9569 16.2897 15.0556 16.2499 15.1744 16.1877C15.2837 16.1306 15.4137 16.0707 15.3863 15.9188C15.3495 15.7147 15.1534 15.6987 14.9893 15.6697C14.9544 15.6636 14.9244 15.6323 14.9494 15.5959C14.9889 15.5387 15.0445 15.5043 15.1161 15.4925C15.2364 15.4728 15.2422 15.3026 15.2239 15.2096C15.191 15.0437 15.1381 14.8778 15.065 14.7118C15.0312 14.635 14.9878 14.5644 14.9262 14.5072C14.8249 14.4128 14.694 14.3338 14.558 14.2862C14.5162 14.2715 14.4798 14.2531 14.4491 14.231C14.3496 14.1596 14.2672 14.0838 14.2019 14.0036C14.1099 13.8908 13.9853 13.7741 13.853 13.7124C13.846 13.7091 13.8139 13.7006 13.7565 13.6871C13.7105 13.6761 13.6706 13.6531 13.6369 13.6181C13.4511 13.4251 13.2784 13.2509 13.1188 13.0955ZM19.5459 20.6471C19.5617 20.7259 19.6717 20.7444 19.7398 20.7446C19.8447 20.7448 19.9561 20.7368 20.074 20.7206C20.1146 20.715 20.1495 20.7041 20.1785 20.6878C20.2619 20.6408 20.2644 20.5303 20.1833 20.4797C20.069 20.4087 19.8862 20.414 19.738 20.4295C19.6633 20.4374 19.59 20.4529 19.5606 20.532C19.5442 20.576 19.5393 20.6143 19.5459 20.6471ZM17.3227 23.7749C17.1561 23.544 16.8709 23.4397 16.5872 23.4369C16.2553 23.4336 15.9962 23.641 15.9593 23.9767C15.9464 24.0931 15.9746 24.2652 16.0962 24.3234C16.1272 24.3381 16.157 24.3444 16.1857 24.3422C16.4779 24.3196 16.7743 24.3137 17.075 24.3242C17.1342 24.3263 17.1798 24.3225 17.2119 24.3127C17.2698 24.295 17.3166 24.266 17.3523 24.2256C17.4736 24.0888 17.4208 23.911 17.3227 23.7749Z" fill="#FEFEFE"/>
<path d="M25.6006 17.3762C25.5594 17.3553 25.5162 17.354 25.4709 17.3723C25.4074 17.3979 25.3434 17.4214 25.2788 17.443C25.1448 17.4875 25.0119 17.4892 24.8801 17.448C24.7725 17.4145 24.6777 17.3607 24.6151 17.2704C24.5801 17.2202 24.5215 17.1865 24.4393 17.1694C24.3603 17.153 24.284 17.137 24.2104 17.1216C24.0198 17.0816 23.9268 16.9267 23.8091 16.7882C23.7311 16.6965 23.6976 16.6068 23.7234 16.4944C23.7564 16.3504 23.8619 16.2383 23.9823 16.1545C24.3848 15.8744 24.8196 15.5951 25.2866 15.3165C25.3602 15.2727 25.4532 15.2497 25.5388 15.2356C25.7803 15.196 26.0438 15.1851 26.3293 15.2028C26.4499 15.2102 26.5554 15.2265 26.6458 15.2517C26.8468 15.3078 27.0508 15.3674 27.2579 15.4305C27.4393 15.4857 27.5826 15.5355 27.6879 15.5799C27.9123 15.6746 28.1167 15.893 28.1759 16.1315C28.209 16.2649 28.179 16.3806 28.0861 16.4785C27.9676 16.6035 27.8147 16.6915 27.6727 16.7929C27.605 16.8414 27.5336 16.8836 27.4587 16.9195C27.2329 17.0275 26.967 17.1279 26.7102 17.1844C26.5254 17.2251 26.3461 17.3009 26.1729 17.3763C25.9716 17.4641 25.8032 17.4788 25.6006 17.3762ZM24.2209 16.8231C24.2955 16.8632 24.3649 16.8987 24.4291 16.9297C24.4728 16.9507 24.5244 16.9598 24.5671 16.931C24.7172 16.8292 24.8571 16.7156 25.0515 16.7434C25.1065 16.7513 25.1582 16.7585 25.2066 16.7649C25.3436 16.7829 25.4359 16.7194 25.5328 16.631C25.7231 16.4577 25.9235 16.5252 26.1439 16.5713C26.2123 16.5857 26.2742 16.5789 26.3295 16.551C26.4651 16.4825 26.609 16.4443 26.7611 16.4364C26.9117 16.4286 27.0669 16.4257 27.2266 16.4277C27.3317 16.4289 27.463 16.4214 27.563 16.3776C27.6921 16.3209 27.6971 16.2128 27.6941 16.0874C27.6902 15.9269 27.6071 15.8513 27.4745 15.79C27.3678 15.7406 27.2534 15.6986 27.1313 15.6641C26.7233 15.5483 26.3032 15.5035 25.8712 15.5295C25.737 15.5374 25.6126 15.5602 25.4978 15.5976C25.3477 15.6466 25.2056 15.7277 25.0629 15.7997C24.9451 15.8588 24.8331 15.9011 24.7097 15.9446C24.4801 16.0252 24.2241 16.1632 24.1251 16.4002C24.0892 16.4861 24.0741 16.5848 24.0796 16.6965C24.0826 16.7554 24.1756 16.7987 24.2209 16.8231Z" fill="#FEFEFE"/>
<path d="M24.2205 16.823C24.1752 16.7987 24.0822 16.7553 24.0792 16.6964C24.0737 16.5847 24.0888 16.486 24.1247 16.4002C24.2237 16.1631 24.4797 16.0252 24.7093 15.9445C24.8328 15.901 24.9447 15.8587 25.0625 15.7996C25.2053 15.7276 25.3474 15.6465 25.4975 15.5975C25.6122 15.5601 25.7366 15.5374 25.8708 15.5294C26.3028 15.5034 26.7229 15.5482 27.1309 15.664C27.253 15.6985 27.3674 15.7405 27.4741 15.7899C27.6067 15.8512 27.6899 15.9269 27.6937 16.0873C27.6967 16.2127 27.6917 16.3209 27.5626 16.3775C27.4626 16.4213 27.3313 16.4288 27.2262 16.4276C27.0665 16.4256 26.9114 16.4285 26.7608 16.4363C26.6086 16.4442 26.4647 16.4824 26.3291 16.5509C26.2738 16.5788 26.2119 16.5856 26.1435 16.5713C25.9231 16.5251 25.7227 16.4576 25.5325 16.6309C25.4355 16.7194 25.3432 16.7828 25.2063 16.7648C25.1578 16.7584 25.1061 16.7512 25.0512 16.7433C24.8567 16.7155 24.7168 16.8291 24.5667 16.9309C24.5241 16.9598 24.4724 16.9506 24.4288 16.9296C24.3646 16.8986 24.2951 16.8631 24.2205 16.823Z" fill="#D0101B"/>
<path d="M27.528 18.2887C27.6476 18.35 27.7744 18.4165 27.8993 18.4471C27.9443 18.458 27.9979 18.4609 28.0601 18.4556C28.1464 18.4484 28.2325 18.4407 28.3185 18.4325C28.3676 18.4277 28.413 18.4324 28.4548 18.4465C28.5562 18.4808 28.4864 18.6097 28.4446 18.6654C28.2667 18.9018 28.0015 18.9582 27.7179 18.9494C27.4967 18.9426 27.3331 18.8636 27.2291 18.668C27.202 18.6172 27.1745 18.5679 27.1465 18.5203C27.1239 18.4818 27.0857 18.4432 27.0317 18.4043C26.9146 18.3199 26.7822 18.2549 26.648 18.2001C26.5463 18.1586 26.3996 18.0623 26.3918 17.939C26.3857 17.8461 26.5124 17.8481 26.5741 17.8577C26.7105 17.8788 26.8351 17.9202 26.9481 17.982C27.1392 18.0862 27.3325 18.1884 27.528 18.2887Z" fill="#FEFEFE"/>
<path d="M19.7397 20.7447C19.6716 20.7445 19.5616 20.726 19.5458 20.6472C19.5392 20.6144 19.5441 20.5761 19.5604 20.5321C19.5899 20.4529 19.6632 20.4375 19.7379 20.4296C19.8861 20.4141 20.0689 20.4088 20.1832 20.4798C20.2643 20.5304 20.2618 20.6409 20.1783 20.6878C20.1494 20.7042 20.1145 20.7151 20.0739 20.7207C19.9559 20.7369 19.8445 20.7449 19.7397 20.7447Z" fill="#D0101B"/>
<path d="M24.6035 25.7371C24.2697 25.6979 23.9652 25.5275 23.757 25.2634C23.5487 24.9992 23.4538 24.6631 23.4931 24.3288C23.5125 24.1633 23.5643 24.0032 23.6455 23.8577C23.7267 23.7122 23.8357 23.5841 23.9664 23.4808C24.097 23.3775 24.2466 23.3009 24.4067 23.2555C24.5669 23.2101 24.7343 23.1967 24.8996 23.2162C25.2334 23.2554 25.5379 23.4258 25.7461 23.6899C25.9543 23.954 26.0493 24.2902 26.01 24.6245C25.9906 24.79 25.9388 24.9501 25.8575 25.0956C25.7763 25.241 25.6673 25.3691 25.5367 25.4724C25.4061 25.5757 25.2565 25.6523 25.0963 25.6977C24.9362 25.7431 24.7687 25.7565 24.6035 25.7371ZM24.7173 25.5706C25.0062 25.5786 25.2865 25.4712 25.4965 25.2719C25.7065 25.0726 25.829 24.7978 25.8371 24.5079C25.8411 24.3643 25.8169 24.2214 25.7659 24.0872C25.7149 23.9531 25.638 23.8304 25.5397 23.726C25.4414 23.6217 25.3235 23.5378 25.1929 23.4792C25.0623 23.4206 24.9214 23.3883 24.7784 23.3843C24.4895 23.3763 24.2092 23.4837 23.9992 23.683C23.7892 23.8823 23.6667 24.1571 23.6586 24.447C23.6546 24.5906 23.6788 24.7335 23.7298 24.8676C23.7809 25.0018 23.8577 25.1245 23.956 25.2289C24.0544 25.3332 24.1722 25.4171 24.3028 25.4757C24.4334 25.5343 24.5743 25.5666 24.7173 25.5706Z" fill="#FEFEFE"/>
<path d="M24.7183 25.5704C24.5753 25.5664 24.4344 25.5342 24.3038 25.4756C24.1732 25.4169 24.0554 25.3331 23.9571 25.2287C23.8587 25.1244 23.7819 25.0017 23.7308 24.8675C23.6798 24.7334 23.6556 24.5904 23.6596 24.4469C23.6677 24.157 23.7902 23.8822 24.0002 23.6829C24.2102 23.4836 24.4905 23.3761 24.7794 23.3842C24.9225 23.3882 25.0633 23.4204 25.1939 23.4791C25.3246 23.5377 25.4424 23.6216 25.5407 23.7259C25.639 23.8302 25.7159 23.953 25.7669 24.0871C25.818 24.2213 25.8422 24.3642 25.8382 24.5077C25.8301 24.7977 25.7075 25.0725 25.4975 25.2718C25.2875 25.4711 25.0072 25.5785 24.7183 25.5704ZM25.0308 24.5235C25.0091 24.5182 25.0092 24.5135 25.0311 24.5093C25.0751 24.5008 25.1182 24.4859 25.1605 24.4647C25.3255 24.3822 25.3525 24.1884 25.3013 24.0263C25.2343 23.8148 25.0073 23.7751 24.8025 23.7735C24.5929 23.7718 24.4075 23.7717 24.2461 23.7731C24.244 23.7731 24.2419 23.774 24.2404 23.7755C24.2389 23.777 24.2381 23.779 24.2381 23.7811L24.2383 25.155C24.2383 25.1581 24.2395 25.1611 24.2417 25.1633C24.2439 25.1655 24.2468 25.1667 24.2499 25.1667L24.4753 25.1674C24.4787 25.1674 24.4819 25.166 24.4843 25.1636C24.4867 25.1613 24.488 25.1581 24.488 25.1547V24.6218C24.488 24.62 24.4886 24.6184 24.4898 24.6172C24.491 24.6159 24.4926 24.6152 24.4943 24.6151C24.6132 24.6103 24.7226 24.6132 24.8227 24.6238C25.1067 24.6536 25.0781 24.9313 25.0819 25.1379C25.0822 25.1576 25.0923 25.1675 25.1121 25.1675L25.3126 25.1674C25.3138 25.1673 25.3148 25.1671 25.3158 25.1665C25.3168 25.166 25.3176 25.1653 25.3183 25.1644C25.3189 25.1635 25.3193 25.1624 25.3194 25.1614C25.3195 25.1603 25.3194 25.1592 25.319 25.1582C25.2933 25.0946 25.2976 24.9883 25.3001 24.9181C25.3066 24.7384 25.2163 24.5676 25.0308 24.5235Z" fill="#D0101B"/>
<path d="M16.5878 23.4375C16.8715 23.4404 17.1567 23.5447 17.3233 23.7756C17.4214 23.9117 17.4742 24.0894 17.3529 24.2262C17.3172 24.2666 17.2704 24.2957 17.2125 24.3133C17.1804 24.3231 17.1348 24.3269 17.0756 24.3248C16.7749 24.3143 16.4785 24.3203 16.1863 24.3428C16.1576 24.345 16.1278 24.3388 16.0968 24.324C15.9752 24.2659 15.947 24.0938 15.9599 23.9773C15.9969 23.6416 16.2559 23.4342 16.5878 23.4375Z" fill="#D0101B"/>
<path d="M25.0309 24.5228C25.2165 24.567 25.3068 24.7377 25.3003 24.9175C25.2978 24.9876 25.2935 25.0939 25.3192 25.1576C25.3196 25.1586 25.3197 25.1597 25.3196 25.1607C25.3195 25.1618 25.3191 25.1629 25.3184 25.1638C25.3178 25.1647 25.317 25.1654 25.316 25.1659C25.315 25.1664 25.3139 25.1667 25.3128 25.1667L25.1122 25.1669C25.0925 25.1669 25.0824 25.157 25.0821 25.1372C25.0783 24.9307 25.1069 24.6529 24.8229 24.6231C24.7228 24.6126 24.6133 24.6097 24.4945 24.6145C24.4928 24.6145 24.4912 24.6153 24.49 24.6165C24.4888 24.6178 24.4882 24.6194 24.4882 24.6211V25.1541C24.4882 25.1574 24.4868 25.1606 24.4845 25.163C24.4821 25.1654 24.4789 25.1667 24.4755 25.1667L24.2501 25.1661C24.247 25.1661 24.244 25.1648 24.2419 25.1626C24.2397 25.1605 24.2384 25.1575 24.2384 25.1544L24.2383 23.7805C24.2383 23.7784 24.2391 23.7763 24.2406 23.7748C24.2421 23.7733 24.2442 23.7725 24.2463 23.7725C24.4077 23.771 24.5931 23.7712 24.8027 23.7728C25.0075 23.7745 25.2345 23.8141 25.3015 24.0257C25.3526 24.1878 25.3256 24.3816 25.1607 24.464C25.1184 24.4852 25.0753 24.5001 25.0313 24.5087C25.0094 24.5129 25.0093 24.5176 25.0309 24.5228ZM24.4875 23.9547L24.4892 24.4329C24.4892 24.4346 24.4899 24.4362 24.4911 24.4375C24.4923 24.4387 24.4939 24.4394 24.4957 24.4394L24.8167 24.4382C24.8874 24.438 24.9551 24.4147 25.005 24.3734C25.0548 24.3321 25.0828 24.2763 25.0826 24.2181L25.0823 24.1655C25.0822 24.1367 25.0752 24.1082 25.0617 24.0816C25.0482 24.0551 25.0285 24.031 25.0037 24.0107C24.9789 23.9904 24.9495 23.9744 24.9171 23.9634C24.8847 23.9525 24.85 23.947 24.815 23.9471L24.494 23.9482C24.4923 23.9482 24.4906 23.9489 24.4894 23.9502C24.4882 23.9514 24.4875 23.953 24.4875 23.9547Z" fill="#FEFEFE"/>
<path d="M24.4883 23.9554C24.4883 23.9537 24.489 23.952 24.4902 23.9508C24.4914 23.9496 24.4931 23.9489 24.4948 23.9489L24.8158 23.9478C24.8508 23.9476 24.8855 23.9532 24.9179 23.9641C24.9502 23.975 24.9797 23.9911 25.0045 24.0114C25.0293 24.0317 25.049 24.0558 25.0625 24.0823C25.076 24.1089 25.0829 24.1374 25.083 24.1662L25.0834 24.2188C25.0835 24.2769 25.0556 24.3328 25.0058 24.3741C24.9559 24.4153 24.8882 24.4387 24.8175 24.4389L24.4964 24.44C24.4947 24.44 24.4931 24.4394 24.4919 24.4381C24.4906 24.4369 24.4899 24.4353 24.4899 24.4335L24.4883 23.9554Z" fill="#D0101B"/>
<path d="M21.6818 25.9937C21.4967 25.8376 21.2406 25.7227 21.0009 25.6702C20.9685 25.6632 20.9357 25.6581 20.9026 25.655C20.8615 25.6514 20.814 25.6484 20.7785 25.6299C20.7022 25.59 20.6697 25.5209 20.6809 25.4226C20.693 25.315 20.7575 25.2351 20.853 25.1799C20.9235 25.1393 21.0031 25.0695 21.0919 24.9705C21.2569 24.7867 21.4049 24.596 21.5358 24.3986C21.6066 24.2918 21.7497 24.2018 21.8767 24.2521C22.0046 24.303 21.9671 24.4421 21.9128 24.5355C21.8398 24.6615 21.7429 24.7697 21.6221 24.8602C21.5408 24.921 21.503 25.0133 21.5237 25.1123C21.5482 25.2306 21.5911 25.3253 21.6523 25.3966C21.6867 25.4367 21.7366 25.474 21.8021 25.5084C21.8947 25.5573 21.994 25.6014 22.1001 25.6407C22.2365 25.6911 22.3729 25.746 22.5094 25.8053C22.5458 25.8212 22.5761 25.8428 22.6 25.8703C22.6049 25.8758 22.6078 25.8827 22.6085 25.8901C22.6093 25.8974 22.6077 25.9047 22.604 25.9111C22.5926 25.931 22.5759 25.9476 22.5539 25.9611C22.4568 26.02 22.3575 26.0679 22.2777 26.1493C22.2089 26.2195 22.1361 26.2485 22.0398 26.2203C21.909 26.1821 21.7911 26.0859 21.6818 25.9937Z" fill="#FEFEFE"/>
<path d="M14.1505 25.0499C14.3342 25.2211 14.5708 25.4529 14.84 25.4352C14.9395 25.4287 15.0358 25.4216 15.1392 25.4277C15.3663 25.4412 15.5697 25.4589 15.7798 25.4487C15.928 25.4414 16.0793 25.4151 16.2316 25.3917C16.4278 25.3616 16.6192 25.3582 16.8163 25.3619C16.9066 25.3636 17.1705 25.3518 17.1868 25.4454C17.1968 25.5025 17.1365 25.5638 17.095 25.5956C17.0416 25.6365 16.9771 25.6669 16.9101 25.6778C16.8616 25.6856 16.8138 25.6941 16.7684 25.7131C16.6236 25.7731 16.4968 25.8689 16.3712 25.9548C16.2717 26.023 16.1083 26.0075 15.9895 25.984C15.8461 25.9557 15.7528 25.9257 15.5774 25.862C15.4255 25.8069 15.262 25.7716 15.0867 25.7559C14.897 25.7388 14.7279 25.7253 14.5795 25.7154C14.5624 25.7143 14.5289 25.7093 14.479 25.7003C14.3366 25.6744 14.2423 25.6058 14.1395 25.4974C14.0694 25.4233 13.9883 25.3473 13.8962 25.2695C13.8695 25.2469 13.8462 25.2183 13.8263 25.1837C13.8232 25.1782 13.8224 25.1724 13.8241 25.1663C13.8369 25.1184 13.9091 25.053 13.9439 25.0227C14.007 24.9677 14.0945 24.9977 14.1505 25.0499Z" fill="#FEFEFE"/>
<path d="M26.3796 27.3491C26.4357 27.5206 26.4694 27.6893 26.4809 27.8552C26.4833 27.8903 26.4866 27.9675 26.4907 28.0866L26.5205 28.8661C26.524 29.2253 26.5183 29.5849 26.5035 29.9448C26.4849 30.4006 26.3338 30.8048 26.0131 31.1305C25.7185 31.4299 25.3112 31.6141 24.8966 31.7164C24.5751 31.7955 24.2356 31.8394 23.878 31.8482C23.2931 31.8624 22.711 31.7149 22.2337 31.3746C22.2255 31.3687 22.2077 31.3663 22.1804 31.3674C21.948 31.3769 21.6971 31.4119 21.4842 31.4424C20.6653 31.5595 19.8624 31.6756 19.0754 31.7905C18.9711 31.8058 18.861 31.8199 18.745 31.8329C17.8563 31.9327 16.9608 31.9273 16.0877 31.7684C15.4783 31.6574 14.8817 31.4657 14.3399 31.1575C14.1457 31.0471 13.9736 30.9227 13.8236 30.7843C13.6155 30.5923 13.4473 30.4011 13.319 30.2107C13.1788 30.0026 13.0913 29.7713 13.0568 29.5169C13.0214 29.255 13.0078 28.9951 13.016 28.7372C13.0199 28.6175 13.021 28.5404 13.0195 28.506L13.0736 27.7048C13.0889 27.5499 13.0997 27.4441 13.1061 27.3876C13.1217 27.2504 13.1415 27.1062 13.1656 26.955C13.2111 26.7593 13.2809 26.5923 13.3748 26.4542C13.7337 25.9267 14.3819 25.8404 14.9788 25.9006C15.2025 25.9231 15.426 25.959 15.6494 26.0084C16.3561 26.1643 17.0146 26.6061 17.5244 27.1161C17.5329 27.1245 17.5442 27.1295 17.5562 27.1299C17.6656 27.1333 17.777 27.1329 17.8902 27.1285C18.9571 27.0872 19.9816 26.9073 20.9636 26.5888C21.6316 26.3722 22.316 26.2208 22.9997 26.143C23.5207 26.0837 23.995 26.0574 24.4226 26.0642C24.7706 26.0695 25.1421 26.15 25.4602 26.3097C25.8996 26.5304 26.2061 26.8769 26.3796 27.3491ZM17.2913 27.661C16.8402 27.154 16.205 26.6929 15.5531 26.544C15.2735 26.48 15.0034 26.4422 14.7428 26.4307C14.4007 26.4155 13.9941 26.4697 13.8023 26.7965C13.7419 26.8996 13.7024 27.0178 13.6837 27.151C13.6293 27.54 13.5929 27.9361 13.5746 28.3395C13.5601 28.6547 13.5498 28.9621 13.5731 29.2785C13.5952 29.583 13.6789 29.8216 13.8823 30.0623C13.9734 30.1701 14.0662 30.2688 14.1608 30.3583C14.2913 30.4817 14.456 30.599 14.655 30.7102C15.1559 30.9901 15.731 31.1627 16.3008 31.2564C17.25 31.4125 18.2096 31.3716 19.163 31.2313C19.9986 31.1083 20.7781 30.995 21.5017 30.8913C21.6084 30.8759 21.7361 30.8605 21.8849 30.845C22.0348 30.8294 22.1666 30.8242 22.2804 30.8295C22.3751 30.834 22.4541 30.8629 22.5306 30.9216C23.1313 31.3814 23.9713 31.3606 24.6762 31.211C25.331 31.072 25.9175 30.7125 25.9571 29.983C25.9826 29.5107 25.9883 29.0329 25.9664 28.5583C25.9591 28.3993 25.9525 28.2274 25.9466 28.0423C25.9423 27.9052 25.9316 27.7968 25.9146 27.7173C25.746 26.9288 25.0497 26.5958 24.3022 26.6036C23.2369 26.6148 22.1701 26.7682 21.1508 27.0994C20.3385 27.3633 19.5029 27.5389 18.6447 27.6233C18.1812 27.669 17.7376 27.685 17.314 27.6715C17.3097 27.6714 17.3055 27.6704 17.3016 27.6686C17.2977 27.6668 17.2942 27.6642 17.2913 27.661Z" fill="#FEFEFE"/>
<path d="M15.5523 26.5438C16.2042 26.6927 16.8395 27.1538 17.2906 27.6608C17.2935 27.664 17.297 27.6666 17.3009 27.6684C17.3048 27.6702 17.309 27.6712 17.3133 27.6713C17.7369 27.6848 18.1804 27.6688 18.644 27.6231C19.5021 27.5387 20.3378 27.3631 21.1501 27.0992C22.1693 26.768 23.2362 26.6146 24.3014 26.6034C25.0489 26.5956 25.7453 26.9286 25.9139 27.7171C25.9309 27.7966 25.9416 27.905 25.9459 28.0421C25.9518 28.2272 25.9584 28.3991 25.9657 28.5581C25.9875 29.0327 25.9819 29.5105 25.9564 29.9828C25.9167 30.7123 25.3303 31.0718 24.6754 31.2108C23.9706 31.3604 23.1306 31.3812 22.5299 30.9214C22.4534 30.8628 22.3744 30.8338 22.2796 30.8293C22.1659 30.8241 22.0341 30.8292 21.8841 30.8448C21.7354 30.8603 21.6077 30.8758 21.501 30.8911C20.7774 30.9948 19.9978 31.1082 19.1623 31.2311C18.2089 31.3714 17.2493 31.4124 16.3 31.2563C15.7303 31.1625 15.1552 30.9899 14.6542 30.71C14.4553 30.5988 14.2906 30.4815 14.1601 30.3581C14.0655 30.2686 13.9726 30.1699 13.8816 30.0621C13.6781 29.8214 13.5945 29.5828 13.5724 29.2783C13.549 28.9619 13.5594 28.6545 13.5739 28.3393C13.5922 27.936 13.6286 27.5398 13.683 27.1509C13.7016 27.0176 13.7412 26.8994 13.8016 26.7963C13.9933 26.4695 14.4 26.4153 14.742 26.4305C15.0027 26.442 15.2728 26.4798 15.5523 26.5438ZM15.1485 27.2428C15.4302 27.3543 15.6976 27.5092 15.9857 27.6291C16.0891 27.6721 16.262 27.7496 16.3692 27.6973C16.3766 27.6936 16.3825 27.6874 16.3857 27.6797C16.389 27.672 16.3894 27.6634 16.3868 27.6555C16.2633 27.2746 16.0038 27.0493 15.6082 26.9794C15.3826 26.9396 15.1557 26.8928 14.9196 26.88C14.6984 26.868 14.4275 26.9036 14.3264 27.1342C14.2948 27.2064 14.2763 27.2877 14.2709 27.3783C14.2369 27.9473 14.2507 28.5303 14.3124 29.1272C14.3324 29.3209 14.3901 29.493 14.4856 29.6436C14.6905 29.9668 15.0775 30.1582 15.4399 30.2465C15.6275 30.2923 15.8167 30.3303 16.0076 30.3606C16.5511 30.4469 17.0968 30.4967 17.6479 30.5252C18.2717 30.5576 18.8937 30.5504 19.5141 30.5039C19.6201 30.4959 19.7308 30.4852 19.8462 30.4718C20.1187 30.4401 20.3191 30.4112 20.4474 30.385C20.661 30.3414 20.8803 30.2957 21.1053 30.2479C21.8666 30.0861 22.6314 29.9505 23.3996 29.841C23.6107 29.8109 23.8274 29.789 24.0499 29.7752C24.1965 29.7662 24.7039 29.7567 24.7013 30.0011C24.6986 30.2319 24.4217 30.283 24.2463 30.3052C24.127 30.32 24.0115 30.3275 23.8998 30.3275C23.6911 30.3275 23.5004 30.3296 23.3278 30.3338C23.255 30.3357 23.1461 30.3421 23.1026 30.3793C23.0994 30.3821 23.0967 30.3854 23.0948 30.3892C23.0929 30.393 23.0918 30.3972 23.0916 30.4014C23.0913 30.4056 23.0919 30.4099 23.0933 30.4139C23.0947 30.4178 23.0969 30.4215 23.0998 30.4246C23.1683 30.4995 23.2575 30.5531 23.3675 30.5854C23.6325 30.663 23.9359 30.6692 24.213 30.6352C24.4624 30.6047 24.7061 30.5034 24.9002 30.3631C25.0594 30.248 25.1537 30.0758 25.191 29.8833C25.2124 29.7736 25.2231 29.6815 25.2234 29.607C25.2248 29.1348 25.2251 28.6347 25.2244 28.1066C25.2242 28.0151 25.2327 27.925 25.2324 27.8331C25.2304 27.4112 24.9125 27.2353 24.5388 27.1685C24.4301 27.1491 24.3322 27.1378 24.2453 27.1347C23.5538 27.1105 22.8625 27.1752 22.1713 27.3288C21.7898 27.4136 21.4543 27.4959 21.101 27.5733C20.6666 27.6686 20.2313 27.7624 19.7975 27.8619C19.5052 27.9288 19.2496 27.9812 19.0307 28.019C18.5871 28.0953 18.1213 28.1426 17.6333 28.1609C17.323 28.1726 16.9741 28.1788 16.5866 28.1796C16.0968 28.1807 15.593 28.1173 15.1292 27.9542C14.9648 27.8962 14.8023 27.8256 14.6905 27.6953C14.5951 27.5838 14.5809 27.4647 14.6519 27.3443C14.6999 27.2625 14.7594 27.1823 14.8591 27.175C14.9578 27.1678 15.0574 27.2068 15.1485 27.2428Z" fill="#D0101B"/>
<path d="M15.1487 27.2426C15.0575 27.2066 14.9579 27.1676 14.8593 27.1748C14.7595 27.1821 14.7 27.2622 14.6521 27.344C14.5811 27.4645 14.5952 27.5836 14.6907 27.695C14.8025 27.8253 14.9649 27.8959 15.1293 27.9539C15.5931 28.117 16.0969 28.1805 16.5867 28.1793C16.9742 28.1786 17.3231 28.1723 17.6334 28.1607C18.1215 28.1423 18.5873 28.095 19.0308 28.0187C19.2497 27.981 19.5054 27.9286 19.7977 27.8616C20.2315 27.7622 20.6668 27.6684 21.1011 27.5731C21.4545 27.4956 21.79 27.4133 22.1715 27.3285C22.8626 27.1749 23.554 27.1102 24.2454 27.1344C24.3324 27.1376 24.4302 27.1488 24.539 27.1683C24.9127 27.2351 25.2305 27.411 25.2325 27.8328C25.2328 27.9248 25.2244 28.0149 25.2245 28.1064C25.2253 28.6345 25.225 29.1346 25.2235 29.6067C25.2233 29.6812 25.2125 29.7734 25.1912 29.8831C25.1539 30.0755 25.0596 30.2478 24.9003 30.3629C24.7062 30.5032 24.4625 30.6045 24.2131 30.6349C23.9361 30.6689 23.6327 30.6628 23.3676 30.5851C23.2577 30.5528 23.1685 30.4992 23.0999 30.4244C23.0971 30.4213 23.0949 30.4176 23.0935 30.4136C23.0921 30.4096 23.0915 30.4054 23.0917 30.4012C23.092 30.3969 23.0931 30.3928 23.095 30.389C23.0969 30.3852 23.0995 30.3818 23.1028 30.3791C23.1462 30.3419 23.2552 30.3354 23.328 30.3336C23.5006 30.3293 23.6912 30.3272 23.8999 30.3272C24.0116 30.3272 24.1272 30.3198 24.2464 30.3049C24.4219 30.2828 24.6987 30.2316 24.7014 30.0009C24.7041 29.7565 24.1966 29.766 24.05 29.775C23.8276 29.7887 23.6108 29.8107 23.3998 29.8408C22.6316 29.9503 21.8668 30.0859 21.1055 30.2476C20.8804 30.2955 20.6611 30.3412 20.4476 30.3847C20.3193 30.4109 20.1189 30.4399 19.8463 30.4715C19.7309 30.485 19.6203 30.4957 19.5143 30.5037C18.8939 30.5502 18.2718 30.5573 17.6481 30.525C17.097 30.4965 16.5512 30.4467 16.0078 30.3604C15.8169 30.3301 15.6276 30.292 15.44 30.2463C15.0777 30.158 14.6907 29.9666 14.4858 29.6434C14.3903 29.4928 14.3325 29.3206 14.3125 29.1269C14.2509 28.5301 14.2371 27.9471 14.271 27.378C14.2765 27.2875 14.295 27.2061 14.3265 27.1339C14.4276 26.9034 14.6985 26.8677 14.9198 26.8797C15.1558 26.8925 15.3827 26.9394 15.6083 26.9792C16.0039 27.049 16.2635 27.2744 16.387 27.6552C16.3895 27.6632 16.3891 27.6718 16.3859 27.6794C16.3827 27.6871 16.3768 27.6934 16.3693 27.697C16.2622 27.7493 16.0893 27.6719 15.9858 27.6289C15.6978 27.5089 15.4304 27.354 15.1487 27.2426ZM22.9811 28.3931C22.8922 28.4031 22.7931 28.4029 22.7114 28.4361C22.6548 28.459 22.6357 28.503 22.6541 28.568C22.7041 28.7436 22.9343 28.5732 23.0216 28.7261C23.0386 28.7557 23.047 28.7947 23.0468 28.8429C23.0466 28.904 23.0568 29.1591 22.951 29.1479C22.8629 29.1386 22.606 29.1051 22.6501 29.2767C22.6759 29.3766 22.8854 29.3955 22.967 29.3958C23.331 29.3966 23.67 29.4066 24.0184 29.4301C24.2172 29.4436 24.4129 29.4747 24.6056 29.5236C24.6266 29.5288 24.6497 29.5314 24.6748 29.5314C24.6792 29.5314 24.6837 29.5305 24.6878 29.5287C24.6919 29.527 24.6957 29.5244 24.6988 29.5212C24.7019 29.518 24.7044 29.5142 24.7061 29.5101C24.7078 29.5059 24.7086 29.5014 24.7086 29.4969C24.7077 29.4358 24.7005 29.3708 24.6869 29.3017C24.6779 29.2557 24.6589 29.2054 24.6038 29.2031C24.49 29.1982 24.3579 29.1376 24.3759 29.0011C24.3899 28.8959 24.4415 28.7692 24.5585 28.7654C24.6491 28.7624 24.8124 28.7684 24.8647 28.6733C24.8868 28.6331 24.882 28.5728 24.8737 28.5285C24.8658 28.4866 24.8375 28.4637 24.7887 28.4595C24.6847 28.4509 24.5828 28.4532 24.4853 28.4194C24.3827 28.3836 24.388 28.2765 24.3867 28.1892C24.3852 28.0925 24.389 27.9569 24.5077 27.9348C24.603 27.9169 24.7282 27.9083 24.775 27.805C24.803 27.7433 24.7792 27.6812 24.7126 27.6592C24.6586 27.6414 24.6002 27.632 24.5373 27.6307C24.0156 27.6205 23.476 27.6048 22.9185 27.5836C22.845 27.5808 22.7539 27.6011 22.7324 27.6819C22.7071 27.7768 22.7864 27.8693 22.8839 27.8616C22.958 27.8558 23.0323 27.8488 23.0406 27.9464C23.047 28.0192 23.0528 28.0957 23.0583 28.176C23.0626 28.239 23.0739 28.3827 22.9811 28.3931ZM21.9997 29.6579C22.0306 29.7482 22.1135 29.7433 22.1912 29.7308C22.2884 29.7152 22.3439 29.6468 22.3576 29.5258C22.3707 29.4083 22.3712 29.3092 22.3791 29.2016C22.3971 28.9528 22.4148 28.6978 22.4322 28.4367C22.4382 28.3468 22.4415 28.258 22.4422 28.1705C22.4429 28.0839 22.4507 28.0031 22.4537 27.9178C22.457 27.823 22.3897 27.8117 22.3176 27.8057C22.2041 27.796 22.1127 27.8148 22.084 27.9404C22.0687 28.0077 22.0581 28.0752 22.0522 28.1428C22.0232 28.4754 22.0001 28.7892 21.9829 29.0844C21.9744 29.2292 21.9762 29.3718 21.9767 29.5193C21.977 29.5672 21.9846 29.6134 21.9997 29.6579ZM20.676 29.6052C20.6687 29.5228 20.6677 29.4422 20.6728 29.3633C20.6833 29.2042 20.8309 29.1386 20.9675 29.1366C21.2136 29.1331 21.6834 29.1631 21.701 28.7949C21.7148 28.5072 21.7197 28.2587 21.7157 28.0492C21.7137 27.9539 21.6762 27.9396 21.5874 27.9513C21.4193 27.9736 21.2567 28.0356 21.1005 28.0807C20.8718 28.1467 20.6347 28.1877 20.3893 28.2037C20.311 28.2088 20.2205 28.2401 20.2073 28.3316C20.1778 28.5375 20.3911 28.5208 20.5207 28.4885C20.7194 28.439 20.9234 28.3816 21.1293 28.3764C21.1926 28.3747 21.2895 28.3897 21.3059 28.4654C21.3428 28.6371 21.2474 28.7732 21.0856 28.8262C21.0212 28.8474 20.9451 28.8613 20.8572 28.8677C20.7415 28.8763 20.6308 28.8979 20.525 28.9325C20.3936 28.9755 20.2435 29.0771 20.2392 29.2349C20.2358 29.3634 20.2404 29.5614 20.253 29.829C20.2571 29.9207 20.3278 29.9326 20.4054 29.9299C20.5968 29.9234 20.8005 29.9145 21.0165 29.9033C21.2051 29.8935 21.3873 29.8558 21.5633 29.7901C21.6467 29.759 21.8286 29.6695 21.7787 29.5451C21.722 29.4043 21.4696 29.4553 21.3645 29.4929C21.1541 29.5681 20.9105 29.6239 20.6861 29.6149C20.6799 29.6147 20.6765 29.6114 20.676 29.6052ZM19.4305 29.4744C19.4428 29.5993 19.4535 29.7231 19.4625 29.8459C19.4713 29.9656 19.4667 30.0882 19.4695 30.2066C19.471 30.2716 19.498 30.3384 19.5681 30.3496C19.7619 30.3807 19.8028 30.2319 19.811 30.0825C19.8358 29.6356 19.8461 29.1806 19.842 28.7174C19.8413 28.6518 19.8313 28.5869 19.812 28.5228C19.795 28.4664 19.7633 28.4311 19.7169 28.4167C19.5678 28.3707 19.476 28.5075 19.4712 28.6358C19.4642 28.8233 19.4547 29.0177 19.4428 29.2192C19.4427 29.2224 19.4413 29.2254 19.439 29.2276C19.4366 29.2299 19.4336 29.2311 19.4303 29.2312L19.0365 29.2447C19.0356 29.2448 19.0346 29.2444 19.0339 29.2438C19.0332 29.2432 19.0328 29.2423 19.0327 29.2414C19.0175 29.0957 19.0078 28.9495 19.0039 28.8029C19.0015 28.7184 18.9799 28.653 18.9016 28.6171C18.8493 28.5931 18.7996 28.5799 18.7526 28.5773C18.5656 28.5672 18.3632 28.5573 18.1456 28.5475C17.886 28.536 17.6967 28.6496 17.6916 28.9302C17.6856 29.2637 17.6803 29.5929 17.6758 29.9179C17.6731 30.1095 17.7737 30.2856 17.983 30.2986C18.0418 30.3023 18.0978 30.3031 18.1509 30.3013C18.2878 30.2964 18.4385 30.2891 18.6029 30.2794C18.6316 30.2778 18.6611 30.2776 18.6912 30.2791C18.8496 30.2871 18.9869 30.1388 18.9897 29.9776C18.9921 29.8308 19.0012 29.6765 19.0168 29.5146C19.0175 29.508 19.0211 29.5044 19.0277 29.5038L19.4182 29.4643C19.4256 29.4635 19.4297 29.4669 19.4305 29.4744ZM16.9252 29.5139C16.9923 29.546 17.0596 29.564 17.1272 29.5679C17.196 29.5718 17.2519 29.5418 17.2949 29.4779C17.3282 29.4285 17.2581 29.3667 17.2233 29.3458C16.9952 29.2102 16.8076 29.0491 16.5909 28.852C16.4667 28.739 16.3695 28.6396 16.2993 28.5538C16.1942 28.4254 16.0806 28.3754 15.9172 28.4529C15.8133 28.5021 15.7391 28.5346 15.6946 28.5505C15.5448 28.6036 15.37 28.6515 15.1703 28.6943C15.0737 28.7149 15.0073 28.7336 14.9711 28.7504C14.8656 28.7989 14.7642 28.8892 14.7438 29.0085C14.735 29.0607 14.7538 29.0987 14.8005 29.1226C14.9684 29.2086 15.2018 29.1824 15.3711 29.1158C15.527 29.0545 15.6833 28.9755 15.8454 28.926C15.9458 28.8954 16.0941 28.8715 16.1759 28.9585C16.4012 29.1976 16.651 29.3828 16.9252 29.5139ZM16.2794 29.8468C16.2982 29.7087 16.3062 29.5244 16.2369 29.4033C16.1846 29.3117 16.0759 29.3158 15.9855 29.3325C15.86 29.3555 15.8967 29.4578 15.8535 29.5376C15.81 29.6179 15.735 29.6459 15.6286 29.6217C15.4798 29.5879 15.3296 29.5507 15.178 29.5099C15.0735 29.4818 14.9371 29.4691 14.8725 29.5759C14.829 29.6477 14.8506 29.7373 14.9123 29.7896C14.9705 29.8389 15.0343 29.8683 15.1039 29.8776C15.5573 29.9386 15.9835 30.0135 16.3825 30.1025C16.4483 30.1172 16.516 30.1344 16.5856 30.1541C16.7145 30.1911 16.8281 30.2624 16.9487 30.3146C17.0287 30.3492 17.1203 30.3544 17.18 30.2776C17.2115 30.2371 17.2701 30.1318 17.2248 30.0892C17.2038 30.0693 17.167 30.057 17.1388 30.0529C17.0476 30.0396 16.9623 30.0198 16.8829 29.9934C16.689 29.9287 16.4904 29.8904 16.2915 29.8628C16.2821 29.8614 16.278 29.8561 16.2794 29.8468Z" fill="#FEFEFE"/>
<path d="M22.9806 28.3927C23.0734 28.3824 23.0621 28.2386 23.0577 28.1757C23.0523 28.0954 23.0464 28.0188 23.0401 27.9461C23.0318 27.8485 22.9575 27.8555 22.8833 27.8613C22.7859 27.869 22.7066 27.7765 22.7319 27.6815C22.7534 27.6008 22.8445 27.5804 22.918 27.5833C23.4755 27.6045 24.0151 27.6202 24.5368 27.6304C24.5996 27.6316 24.6581 27.6411 24.712 27.6589C24.7787 27.6809 24.8025 27.743 24.7745 27.8047C24.7277 27.908 24.6024 27.9166 24.5071 27.9344C24.3885 27.9566 24.3847 28.0922 24.3862 28.1888C24.3875 28.2761 24.3822 28.3832 24.4848 28.4191C24.5823 28.4529 24.6842 28.4506 24.7882 28.4592C24.8369 28.4633 24.8653 28.4863 24.8731 28.5282C24.8815 28.5725 24.8863 28.6328 24.8641 28.673C24.8118 28.7681 24.6486 28.7621 24.5579 28.7651C24.441 28.7689 24.3893 28.8955 24.3754 29.0008C24.3574 29.1373 24.4895 29.1979 24.6033 29.2027C24.6584 29.2051 24.6774 29.2554 24.6864 29.3014C24.6999 29.3704 24.7072 29.4355 24.708 29.4966C24.7081 29.5011 24.7072 29.5056 24.7056 29.5097C24.7039 29.5139 24.7014 29.5177 24.6983 29.5209C24.6951 29.5241 24.6914 29.5267 24.6873 29.5284C24.6831 29.5302 24.6787 29.5311 24.6742 29.5311C24.6491 29.5311 24.6261 29.5285 24.6051 29.5233C24.4124 29.4744 24.2166 29.4432 24.0178 29.4298C23.6695 29.4063 23.3305 29.3963 22.9665 29.3955C22.8848 29.3951 22.6754 29.3763 22.6496 29.2764C22.6054 29.1048 22.8623 29.1383 22.9505 29.1476C23.0563 29.1587 23.0461 28.9037 23.0463 28.8426C23.0465 28.7944 23.0381 28.7554 23.0211 28.7258C22.9338 28.5728 22.7036 28.7433 22.6536 28.5677C22.6352 28.5027 22.6543 28.4587 22.7109 28.4357C22.7925 28.4026 22.8917 28.4027 22.9806 28.3927ZM23.8981 27.8781C23.7599 27.8158 23.6417 27.8363 23.5066 27.88C23.4303 27.9048 23.3858 27.9454 23.3736 28.0266C23.3498 28.1842 23.3061 28.4487 23.5414 28.4634C23.7181 28.4745 24.034 28.476 24.0776 28.2458C24.1071 28.0905 24.0448 27.9444 23.8981 27.8781ZM24.0918 28.9308C24.2013 28.6921 23.6717 28.6951 23.544 28.6966C23.4419 28.6978 23.3779 28.7476 23.3476 28.8459C23.2828 29.0556 23.4118 29.1431 23.6017 29.1496C23.8006 29.1564 24.0018 29.1271 24.0918 28.9308Z" fill="#D0101B"/>
<path d="M22.0001 29.6576C21.985 29.6132 21.9773 29.567 21.9771 29.519C21.9766 29.3716 21.9747 29.2289 21.9832 29.0842C22.0005 28.789 22.0236 28.4751 22.0525 28.1426C22.0584 28.0749 22.069 28.0075 22.0844 27.9402C22.113 27.8146 22.2045 27.7957 22.3179 27.8054C22.3901 27.8114 22.4574 27.8227 22.454 27.9175C22.451 28.0028 22.4432 28.0836 22.4425 28.1702C22.4419 28.2578 22.4385 28.3465 22.4325 28.4365C22.4151 28.6976 22.3974 28.9525 22.3794 29.2013C22.3716 29.3089 22.3711 29.408 22.3579 29.5255C22.3443 29.6465 22.2888 29.7149 22.1915 29.7306C22.1139 29.7431 22.0309 29.7479 22.0001 29.6576Z" fill="#D0101B"/>
<path d="M23.8975 27.8784C24.0442 27.9447 24.1065 28.0908 24.0771 28.246C24.0334 28.4763 23.7175 28.4748 23.5408 28.4636C23.3055 28.4489 23.3492 28.1844 23.373 28.0268C23.3852 27.9457 23.4297 27.905 23.506 27.8802C23.6411 27.8365 23.7594 27.8161 23.8975 27.8784Z" fill="#FEFEFE"/>
<path d="M20.6857 29.6153C20.9101 29.6243 21.1536 29.5685 21.364 29.4934C21.4692 29.4557 21.7215 29.4047 21.7782 29.5455C21.8282 29.67 21.6462 29.7594 21.5628 29.7906C21.3869 29.8562 21.2046 29.8939 21.016 29.9037C20.8 29.9149 20.5963 29.9238 20.4049 29.9304C20.3273 29.933 20.2567 29.9212 20.2525 29.8294C20.24 29.5618 20.2354 29.3638 20.2387 29.2353C20.243 29.0775 20.3931 28.9759 20.5246 28.9329C20.6303 28.8983 20.741 28.8767 20.8568 28.8681C20.9446 28.8617 21.0207 28.8479 21.0852 28.8267C21.2469 28.7737 21.3424 28.6376 21.3054 28.4658C21.2891 28.3902 21.1921 28.3752 21.1288 28.3768C20.9229 28.382 20.719 28.4395 20.5202 28.489C20.3906 28.5213 20.1774 28.5379 20.2069 28.332C20.22 28.2406 20.3105 28.2093 20.3888 28.2041C20.6342 28.1881 20.8713 28.1471 21.1 28.0811C21.2562 28.036 21.4188 27.974 21.5869 27.9517C21.6757 27.94 21.7132 27.9544 21.7152 28.0497C21.7192 28.2591 21.7143 28.5077 21.7006 28.7953C21.6829 29.1635 21.2131 29.1335 20.967 29.137C20.8304 29.139 20.6828 29.2047 20.6723 29.3638C20.6672 29.4426 20.6683 29.5232 20.6755 29.6057C20.6761 29.6119 20.6794 29.6151 20.6857 29.6153Z" fill="#D0101B"/>
<path d="M19.4192 29.4641L19.0287 29.5036C19.0222 29.5043 19.0186 29.5079 19.0179 29.5144C19.0022 29.6764 18.9932 29.8307 18.9907 29.9774C18.9879 30.1387 18.8506 30.2869 18.6922 30.2789C18.6621 30.2775 18.6327 30.2776 18.6039 30.2793C18.4395 30.2889 18.2889 30.2962 18.1519 30.3011C18.0989 30.303 18.0429 30.3021 17.984 30.2984C17.7748 30.2854 17.6741 30.1093 17.6768 29.9178C17.6814 29.5928 17.6866 29.2635 17.6926 28.93C17.6978 28.6495 17.8871 28.5359 18.1466 28.5473C18.3643 28.5571 18.5667 28.5671 18.7537 28.5772C18.8007 28.5797 18.8503 28.593 18.9026 28.617C18.9809 28.6528 19.0026 28.7183 19.0049 28.8027C19.0089 28.9493 19.0185 29.0955 19.0337 29.2412C19.0338 29.2422 19.0343 29.243 19.035 29.2437C19.0357 29.2443 19.0366 29.2446 19.0376 29.2445L19.4314 29.2311C19.4346 29.231 19.4377 29.2297 19.44 29.2275C19.4423 29.2253 19.4437 29.2222 19.4439 29.2191C19.4558 29.0176 19.4652 28.8231 19.4722 28.6356C19.477 28.5074 19.5688 28.3706 19.7179 28.4166C19.7644 28.4309 19.7961 28.4663 19.8131 28.5227C19.8324 28.5868 19.8424 28.6516 19.843 28.7173C19.8472 29.1804 19.8368 29.6354 19.8121 30.0824C19.8039 30.2318 19.7629 30.3806 19.5692 30.3494C19.499 30.3382 19.472 30.2714 19.4705 30.2065C19.4677 30.088 19.4724 29.9654 19.4635 29.8458C19.4545 29.723 19.4439 29.5991 19.4316 29.4743C19.4308 29.4667 19.4267 29.4633 19.4192 29.4641ZM18.0878 29.9872C18.0878 29.9887 18.088 29.9901 18.0886 29.9915C18.0891 29.9928 18.0899 29.9941 18.091 29.9951C18.092 29.9962 18.0932 29.997 18.0945 29.9975C18.0959 29.9981 18.0973 29.9984 18.0988 29.9984H18.6114C18.6143 29.9984 18.6171 29.9972 18.6192 29.9952C18.6212 29.9931 18.6224 29.9903 18.6224 29.9874L18.6216 28.8847C18.6216 28.8818 18.6205 28.8791 18.6185 28.877C18.6165 28.875 18.6138 28.8738 18.6109 28.8737L18.113 28.8614C18.1115 28.8613 18.11 28.8616 18.1087 28.8621C18.1073 28.8626 18.1061 28.8634 18.105 28.8644C18.104 28.8654 18.1031 28.8666 18.1025 28.868C18.102 28.8693 18.1016 28.8708 18.1016 28.8722L18.0878 29.9872Z" fill="#D0101B"/>
<path d="M16.9257 29.5144C16.6515 29.3832 16.4017 29.1981 16.1764 28.9589C16.0946 28.872 15.9463 28.8958 15.8458 28.9265C15.6838 28.9759 15.5275 29.0549 15.3716 29.1162C15.2023 29.1829 14.9689 29.209 14.801 29.123C14.7543 29.0992 14.7354 29.0611 14.7443 29.0089C14.7646 28.8896 14.8661 28.7993 14.9716 28.7509C15.0078 28.7341 15.0742 28.7154 15.1708 28.6947C15.3705 28.652 15.5453 28.604 15.6951 28.551C15.7396 28.5351 15.8138 28.5025 15.9176 28.4533C16.0811 28.3759 16.1947 28.4258 16.2998 28.5543C16.37 28.64 16.4672 28.7394 16.5914 28.8525C16.8081 29.0496 16.9957 29.2107 17.2238 29.3463C17.2586 29.3671 17.3287 29.4289 17.2954 29.4784C17.2524 29.5423 17.1965 29.5722 17.1276 29.5684C17.0601 29.5645 16.9928 29.5465 16.9257 29.5144Z" fill="#D0101B"/>
<path d="M24.0922 28.9313C24.0022 29.1275 23.801 29.1568 23.6021 29.15C23.4121 29.1435 23.2832 29.0561 23.348 28.8463C23.3783 28.748 23.4423 28.6982 23.5444 28.697C23.672 28.6955 24.2016 28.6925 24.0922 28.9313Z" fill="#FEFEFE"/>
<path d="M18.0869 29.9872L18.1007 28.8722C18.1008 28.8707 18.1011 28.8693 18.1017 28.8679C18.1022 28.8666 18.1031 28.8654 18.1041 28.8644C18.1052 28.8634 18.1064 28.8626 18.1078 28.8621C18.1092 28.8615 18.1106 28.8613 18.1121 28.8613L18.61 28.8737C18.6129 28.8737 18.6156 28.8749 18.6176 28.877C18.6196 28.879 18.6207 28.8818 18.6207 28.8847L18.6215 29.9873C18.6215 29.9903 18.6204 29.9931 18.6183 29.9951C18.6162 29.9972 18.6134 29.9983 18.6105 29.9983H18.0979C18.0965 29.9983 18.095 29.9981 18.0937 29.9975C18.0923 29.9969 18.0911 29.9961 18.0901 29.9951C18.0891 29.994 18.0882 29.9928 18.0877 29.9914C18.0872 29.9901 18.0869 29.9886 18.0869 29.9872Z" fill="#FEFEFE"/>
<path d="M16.2925 29.8629C16.4914 29.8906 16.6899 29.9289 16.8839 29.9935C16.9633 30.02 17.0486 30.0398 17.1398 30.053C17.1679 30.0572 17.2047 30.0695 17.2257 30.0893C17.271 30.132 17.2124 30.2373 17.1809 30.2778C17.1213 30.3546 17.0296 30.3494 16.9497 30.3147C16.8291 30.2626 16.7154 30.1913 16.5865 30.1543C16.517 30.1345 16.4493 30.1173 16.3834 30.1027C15.9845 30.0137 15.5583 29.9387 15.1048 29.8778C15.0353 29.8684 14.9714 29.8391 14.9132 29.7898C14.8516 29.7375 14.8299 29.6479 14.8734 29.5761C14.938 29.4693 15.0745 29.4819 15.1789 29.5101C15.3305 29.5509 15.4807 29.5881 15.6296 29.6219C15.736 29.6461 15.8109 29.618 15.8545 29.5377C15.8976 29.4579 15.861 29.3557 15.9864 29.3327C16.0769 29.316 16.1855 29.3118 16.2378 29.4035C16.3071 29.5246 16.2991 29.7088 16.2803 29.8469C16.279 29.8563 16.283 29.8616 16.2925 29.8629Z" fill="#D0101B"/>
<circle cx="20" cy="20" r="19.5" stroke="black" stroke-opacity="0.05"/>
</svg>
