<svg width="40" height="40" viewBox="0 0 40 40" fill="none" xmlns="http://www.w3.org/2000/svg">
<circle cx="20" cy="20" r="20" fill="#F6F8FA"/>
<g clip-path="url(#clip0_17713_28048)">
<path d="M30.8232 11.2357C30.4551 11.3771 30.099 11.4493 29.7489 11.4493C29.5244 11.4493 28.884 11.2847 27.8217 10.9585C26.7623 10.6324 25.715 10.4707 24.6736 10.4707C23.7189 10.4707 22.7793 10.5602 21.8576 10.7392C20.9389 10.9239 20.3045 11.1231 19.9603 11.3454C19.4666 11.6456 19.1224 12.0064 18.9219 12.4279C18.7214 12.8493 18.6167 13.4671 18.6167 14.2869V23.4001C18.5569 24.1044 18.3863 24.6413 18.099 25.0022C17.7399 25.4554 17.1773 25.6834 16.4052 25.6834C16.0252 25.6834 15.6571 25.6055 15.31 25.4582C14.9598 25.3081 14.5379 25.0368 14.0471 24.6384C14.0052 24.6067 13.9424 24.5576 13.8646 24.4941C12.9878 23.7898 12.1499 23.4405 11.3569 23.4405C10.5638 23.4405 9.82169 23.6974 9.19326 24.2054C8.56782 24.7164 8.18179 25.3745 8.03516 26.177C8.47805 25.8653 8.88503 25.6401 9.24713 25.4958C9.61221 25.3543 9.97132 25.2822 10.3244 25.2822C10.5489 25.2822 11.1893 25.4438 12.2486 25.77C13.308 26.0933 14.3554 26.2578 15.3968 26.2578C16.3544 26.2578 17.291 26.1655 18.2127 25.9865C19.1344 25.8075 19.7688 25.6026 20.113 25.3803C20.6037 25.0801 20.9509 24.7221 21.1484 24.2978C21.3489 23.8764 21.4506 23.2557 21.4506 22.4417V13.5998C21.4506 13.5046 21.4506 13.418 21.4506 13.3314C21.5105 12.6299 21.681 12.093 21.9683 11.7293C22.3274 11.2761 22.896 11.048 23.6651 11.048C24.0451 11.048 24.4102 11.1231 24.7603 11.2732C25.1075 11.4233 25.5324 11.6946 26.0232 12.0901C26.0681 12.1248 26.1279 12.1738 26.2027 12.2345C27.0825 12.9359 27.9204 13.2881 28.7135 13.2881C29.5065 13.2881 30.2486 13.0341 30.8741 12.5231C31.5025 12.0122 31.8855 11.354 32.0352 10.5486C31.5923 10.8633 31.1883 11.0884 30.8232 11.2328" fill="#004FA2"/>
<path d="M26.2689 13.3891C26.2689 14.0444 25.7213 14.5698 25.045 14.5698C24.3687 14.5698 23.821 14.0444 23.821 13.3891C23.821 12.7339 24.3687 12.2085 25.045 12.2085C25.7213 12.2085 26.2689 12.7368 26.2689 13.3891ZM22.6659 26.076V17.9414C22.6659 17.1072 22.9592 16.4201 23.5487 15.8832C24.1352 15.3463 25.0809 14.896 26.3826 14.5496C26.0475 14.7661 25.811 15.0172 25.6794 15.3059C25.5477 15.5945 25.4789 16.0968 25.4789 16.8156V25.6632C25.4789 26.4801 25.3771 27.095 25.1796 27.5222C24.9791 27.9437 24.632 28.3045 24.1412 28.6018C23.7941 28.827 23.1657 29.0291 22.244 29.208C21.3223 29.387 20.3856 29.4765 19.428 29.4765C18.3866 29.4765 17.3392 29.3177 16.2799 28.9887C15.2205 28.6625 14.5801 28.5008 14.3557 28.5008C14.0056 28.5008 13.6465 28.573 13.2784 28.7144C12.9133 28.8559 12.5093 29.0839 12.0664 29.3957C12.213 28.5932 12.6021 27.935 13.2245 27.427C13.8499 26.9131 14.5711 26.6591 15.3881 26.6591C16.2051 26.6591 17.019 27.0084 17.8958 27.7156C17.9736 27.7763 18.0305 27.8224 18.0754 27.8571C18.5691 28.2497 18.9911 28.5268 19.3412 28.6769C19.6913 28.827 20.0564 28.8992 20.4365 28.8992C21.2056 28.8992 21.7711 28.674 22.1302 28.2179C22.4893 27.7676 22.6719 27.0546 22.6719 26.0789" fill="#F6AB00"/>
</g>
<circle cx="20" cy="20" r="19.5" stroke="black" stroke-opacity="0.05"/>
<defs>
<clipPath id="clip0_17713_28048">
<rect width="24" height="19" fill="white" transform="translate(8.03516 10.4736)"/>
</clipPath>
</defs>
</svg>
