<svg width="40" height="40" viewBox="0 0 40 40" fill="none" xmlns="http://www.w3.org/2000/svg">
<circle cx="20" cy="20" r="20" fill="#0134A0"/>
<path d="M17.5955 19.7648C17.2284 19.9019 16.8716 20.0395 16.5082 20.1592C15.4387 20.5118 14.3476 20.7634 13.2241 20.855C12.5936 20.9066 11.9626 20.9076 11.3428 20.7512C11.0536 20.6784 10.7795 20.5676 10.5593 20.3564C10.2597 20.0695 10.2255 19.7221 10.3377 19.3442C10.455 18.9498 10.694 18.631 10.9654 18.3319C11.5654 17.67 12.3044 17.1967 13.0809 16.7775C13.9743 16.2948 14.9053 15.8986 15.8758 15.5976C16.7082 15.3394 17.5584 15.1586 18.4218 15.0403C18.4514 15.0361 18.4819 15.0399 18.5129 15.0399C18.5232 15.1042 18.4852 15.1417 18.4472 15.177C17.8687 15.7155 17.3157 16.2798 16.7575 16.8385C16.6795 16.9164 16.5964 16.9582 16.4903 16.9803C15.8603 17.1117 15.256 17.3122 14.7227 17.6864C14.4936 17.8469 14.2795 18.0221 14.1382 18.2728C13.9617 18.5859 14.0504 18.8366 14.3894 18.9488C14.687 19.0474 14.9908 19.0197 15.2931 18.9742C15.7823 18.9005 16.2514 18.7606 16.6978 18.5455C16.7368 18.5268 16.7767 18.5066 16.8101 18.4794C17.0378 18.293 17.2978 18.2502 17.5824 18.2897C17.7279 18.3099 17.8767 18.3141 18.0241 18.316C18.5519 18.3225 19.0796 18.324 19.6073 18.3296C20.3134 18.3371 21.0195 18.3465 21.7256 18.3559C21.9214 18.3587 22.1176 18.3639 22.3134 18.3704C22.3444 18.3714 22.3881 18.3484 22.404 18.3953C22.4167 18.4315 22.3951 18.462 22.3721 18.4901C22.3444 18.524 22.3186 18.5587 22.2923 18.5939C22.0575 18.9089 22.1505 19.2742 22.5082 19.4352C22.5707 19.4634 22.6378 19.4822 22.7097 19.508C22.6895 19.531 22.673 19.5507 22.6552 19.5686C21.6923 20.5381 20.7336 21.5118 19.7627 22.4733C19.4838 22.7494 19.2195 23.04 18.935 23.3099C18.8791 23.363 18.8223 23.3977 18.7458 23.4146C17.9119 23.5991 17.0941 23.8334 16.334 24.2348C15.8274 24.5024 15.3556 24.8193 14.9739 25.2541C14.856 25.3884 14.7504 25.5325 14.6851 25.7015C14.5574 26.0311 14.6579 26.302 14.9696 26.4701C15.2457 26.6189 15.5476 26.6583 15.8532 26.664C16.8767 26.6837 17.8406 26.4222 18.7753 26.0306C19.3927 25.7724 19.9735 25.4513 20.4829 25.0123C20.665 24.8555 20.8256 24.6785 20.9472 24.4677C21.188 24.0517 21.0444 23.6348 20.596 23.4578C20.4862 23.4146 20.3735 23.3836 20.2566 23.3658C20.2322 23.362 20.1998 23.3691 20.1918 23.3353C20.1857 23.309 20.1984 23.2902 20.2204 23.2696C20.4782 23.0287 20.7186 22.7696 20.9664 22.5184C21.819 21.6545 22.6777 20.7963 23.5331 19.9352C23.6252 19.8423 23.7181 19.7493 23.8017 19.6493C23.928 19.4991 24.0923 19.4484 24.2792 19.4141C25.2684 19.2319 26.174 18.8667 26.9139 18.1592C27.0557 18.0235 27.1769 17.8685 27.2393 17.6765C27.32 17.4282 27.2416 17.2296 27.0092 17.1084C26.6783 16.9357 26.3205 16.8873 25.9566 16.9221C25.0275 17.0113 24.1533 17.2854 23.3392 17.7446C23.1801 17.8343 23.0106 17.8178 22.8435 17.8038C22.5782 17.7812 22.3129 17.7822 22.0472 17.7793C21.2885 17.7718 20.5293 17.769 19.7711 17.7516C19.1739 17.738 18.5767 17.7272 17.9791 17.7272C17.8481 17.7272 17.842 17.7178 17.8983 17.5995C17.9171 17.5606 17.9396 17.523 17.9565 17.4831C18.0321 17.3056 17.9885 17.1634 17.827 17.054C17.7687 17.0145 17.7068 16.9854 17.6396 16.9648C17.5734 16.9446 17.5082 16.9211 17.4335 16.8962C17.4744 16.823 17.5288 16.7699 17.5824 16.7159C17.9429 16.3549 18.3049 15.9948 18.6641 15.6319C18.8171 15.477 18.9683 15.3192 19.1124 15.1558C19.234 15.0173 19.3744 14.9516 19.5613 14.9713C19.9974 15.0178 20.4383 15.0352 20.8617 15.1657C21.1984 15.2694 21.4974 15.4272 21.6782 15.7493C21.743 15.8643 21.781 15.9892 21.7913 16.1211C21.7984 16.2103 21.8317 16.2211 21.912 16.1864C22.4937 15.9333 23.082 15.6957 23.6782 15.4774C25.0365 14.9798 26.4313 14.645 27.8731 14.5183C28.7116 14.4446 29.5506 14.4253 30.3816 14.5971C30.7976 14.6831 31.1985 14.8117 31.537 15.0817C31.9722 15.4281 32.1042 15.9117 31.9178 16.4643C31.7835 16.8629 31.553 17.2047 31.2774 17.5164C30.6731 18.2005 29.9238 18.7014 29.1576 19.1775C28.3426 19.6836 27.4759 20.0874 26.5895 20.4507C26.5665 20.4601 26.5445 20.4719 26.4998 20.493C26.582 20.5446 26.6477 20.5906 26.7177 20.6296C27.0989 20.8432 27.4154 21.1179 27.5853 21.5339C27.7694 21.9841 27.7144 22.4306 27.5595 22.8728C27.3783 23.3883 27.0454 23.8057 26.6886 24.2085C25.7304 25.2898 24.5454 26.0715 23.3054 26.7804C21.8693 27.6015 20.3608 28.2588 18.7866 28.7635C17.3899 29.2114 15.9748 29.5865 14.5189 29.7898C13.564 29.9232 12.6039 29.9833 11.641 29.9537C10.9048 29.9312 10.1743 29.8476 9.47803 29.5856C9.01699 29.4124 8.586 29.1847 8.28881 28.7734C7.98552 28.3537 7.94561 27.8818 8.05641 27.3889C8.20242 26.7377 8.57238 26.2142 9.01558 25.7381C10.1414 24.5297 11.4827 23.6128 12.9382 22.8503C14.0926 22.2456 15.2945 21.7545 16.5246 21.3296C16.919 21.1935 17.3162 21.0667 17.7124 20.9371C17.7687 20.9188 17.8162 20.8963 17.7687 20.832C17.5415 20.5235 17.5199 20.1822 17.5993 19.8226C17.603 19.8108 17.5983 19.7967 17.5955 19.7648Z" fill="white"/>
<path d="M19.9642 14.3801C19.9769 14.3449 19.9779 14.3238 19.9887 14.3139C20.4192 13.9369 20.7882 13.4994 21.1985 13.1022C21.3399 12.9651 21.5159 12.9289 21.6938 12.89C22.2591 12.767 22.7615 12.5271 23.1685 12.1059C23.1868 12.0871 23.2065 12.0698 23.223 12.0496C23.4333 11.7909 23.3666 11.566 23.0479 11.4637C22.7568 11.3698 22.4605 11.3965 22.169 11.45C21.5957 11.5557 21.0685 11.7731 20.6042 12.1317C20.4821 12.2261 20.3797 12.3388 20.3018 12.4717C20.1699 12.697 20.2356 12.8787 20.4797 12.9674C20.5159 12.9806 20.5525 12.9919 20.5882 13.0036C20.5873 13.0153 20.5905 13.0275 20.5859 13.0318C20.1455 13.4853 19.699 13.9337 19.2356 14.3637C19.2098 14.3881 19.1868 14.4107 19.1469 14.4083C18.7163 14.3848 18.2821 14.3703 17.8825 14.1862C17.3482 13.9402 17.2032 13.467 17.4872 12.9402C17.7229 12.5036 18.0792 12.1773 18.4788 11.9017C19.8478 10.9571 21.3615 10.3712 23.0009 10.105C23.6789 9.9951 24.3587 9.95942 25.0413 10.0566C25.292 10.0923 25.5357 10.1571 25.7606 10.2787C26.1662 10.4975 26.308 10.8726 26.1526 11.3073C26.0582 11.5716 25.8878 11.7857 25.6977 11.9857C25.2878 12.4167 24.8047 12.7501 24.2836 13.0289C23.2338 13.59 22.1262 13.9956 20.96 14.2355C20.6366 14.3027 20.3107 14.3534 19.9642 14.3801Z" fill="white"/>
<circle cx="20" cy="20" r="19.5" stroke="black" stroke-opacity="0.05"/>
</svg>
