<svg width="40" height="40" viewBox="0 0 40 40" fill="none" xmlns="http://www.w3.org/2000/svg">
<circle cx="20" cy="20" r="20" fill="#4E4EB5"/>
<path d="M23.4938 18.3866C23.6359 18.3879 23.6724 18.3262 23.6034 18.2013C23.3271 17.6979 23.3111 17.2317 23.5555 16.8027C23.9872 16.0429 24.3791 15.2811 24.7311 14.5174C24.9582 14.0272 25.281 13.555 25.6436 13.1645C26.1716 12.5947 27.4746 12.8457 27.5882 13.6845C27.6599 14.2185 27.4228 14.9019 27.2017 15.394C26.7846 16.3278 26.4007 17.2636 26.05 18.2013C26.0424 18.2217 26.04 18.2437 26.043 18.2652C26.0459 18.2868 26.0542 18.3073 26.0671 18.3249C26.0799 18.3424 26.0969 18.3565 26.1165 18.3659C26.1362 18.3753 26.1578 18.3797 26.1796 18.3787C27.2734 18.3348 28.3832 18.3189 29.4272 18.7233C30.0707 18.9724 30.1943 20.2176 29.6842 20.65C29.2751 20.9967 28.8374 21.1694 28.3712 21.168C26.8503 21.1654 25.3222 21.166 23.7867 21.17C23.7677 21.17 23.7488 21.1738 23.7313 21.1811C23.7138 21.1885 23.6979 21.1992 23.6845 21.2127C23.6712 21.2263 23.6606 21.2423 23.6536 21.26C23.6465 21.2776 23.643 21.2965 23.6432 21.3155L23.6532 25.4378C23.6545 25.5693 23.7143 25.6629 23.8325 25.7187C24.219 25.9 24.6892 26.0693 25.1315 26.0534C25.9624 26.0235 27.2116 25.8502 27.7695 26.6133C28.2975 27.3325 27.9727 28.5758 26.9566 28.6934C25.6947 28.8408 24.3273 28.775 22.8542 28.4961C22.5647 28.4403 22.297 28.3248 22.0513 28.1494C21.2503 27.5736 20.7741 26.96 20.7941 25.886C20.8233 24.3824 20.8319 22.835 20.82 21.2437C20.8186 21.1295 20.7615 21.0677 20.6486 21.0584C20.1067 21.0199 19.5096 21.0106 18.8574 21.0305C18.5048 21.0425 18.3295 21.2796 18.3095 21.6064C18.186 23.5151 17.5259 25.2744 16.3291 26.8842C15.7194 27.7051 13.47 29.9864 12.3841 28.5001C12.0275 28.0119 12.0813 27.2588 12.6212 26.8723C13.5032 26.2374 14.2271 25.372 14.7929 24.2762C15.303 23.2879 15.4305 22.2957 15.3428 21.2397C15.3269 21.0498 15.2233 20.9601 15.032 20.9708C14.2019 21.0159 13.4208 21.0425 12.6889 21.0505C12.2639 21.0545 11.6011 20.9741 10.7005 20.8094C10.0012 20.6819 9.97529 19.7574 10.0092 19.2274C10.045 18.639 10.3711 18.3268 10.9874 18.291C12.0779 18.2286 13.1917 18.2452 14.3287 18.3408C14.4682 18.3527 14.603 18.3368 14.7332 18.293C14.8567 18.2518 14.8919 18.1714 14.8388 18.0519C14.3725 16.9906 13.8499 15.9565 13.2707 14.9497C12.8623 14.2404 12.7547 13.6028 13.5377 13.0549C14.3347 12.499 15.1994 13.0549 15.5879 13.826C16.0315 14.7133 16.4533 15.5674 16.8531 16.3882C17.1426 16.9833 17.1367 17.5744 16.8352 18.1615C16.8236 18.1843 16.818 18.2097 16.819 18.2352C16.8201 18.2608 16.8276 18.2857 16.841 18.3075C16.8544 18.3293 16.8732 18.3473 16.8956 18.3597C16.9179 18.3722 16.9431 18.3787 16.9686 18.3787L18.3135 18.3727C18.3598 18.3727 18.4056 18.3634 18.4483 18.3454C18.491 18.3274 18.5298 18.3011 18.5622 18.2679C18.5947 18.2347 18.6202 18.1953 18.6374 18.1521C18.6546 18.1088 18.663 18.0626 18.6622 18.016C18.637 16.2773 18.6031 14.6621 18.5606 13.1705C18.5466 12.7003 18.8375 12.1524 19.3595 12.0926C19.762 12.0468 20.3398 11.8754 20.6646 12.1623C21.0405 12.4944 21.2304 12.8271 21.2344 13.1605C21.2517 14.8488 21.2583 16.529 21.2543 18.2013C21.2543 18.2427 21.2704 18.2825 21.2991 18.3119C21.3278 18.3414 21.3669 18.3582 21.4077 18.3587L23.4938 18.3866Z" fill="white"/>
<circle cx="20" cy="20" r="19.5" stroke="black" stroke-opacity="0.05"/>
</svg>
