<svg width="40" height="40" viewBox="0 0 40 40" fill="none" xmlns="http://www.w3.org/2000/svg">
<circle cx="20" cy="20" r="20" fill="#F6F8FA"/>
<path d="M20.3969 16.3589C20.796 17.2185 21.2635 18.0497 21.7991 18.8524C21.8795 18.9722 21.9939 19.2718 21.7956 19.3403C21.7314 19.3622 21.6686 19.3732 21.6074 19.3732C20.1375 19.3749 18.5185 19.3757 16.7503 19.3757C16.4893 19.3757 16.2965 19.2684 16.172 19.0536C15.7978 18.4084 15.4777 17.7622 15.2117 17.115C14.6639 15.7826 14.3258 14.3389 14.511 12.9281C14.6973 11.5128 15.4619 10.2214 16.7373 9.55772C17.6685 9.07365 18.6397 8.90469 19.6508 9.05084C20.8818 9.22912 22.0678 9.89781 22.9822 10.7493C22.9978 10.7639 23.0057 10.7821 23.0057 10.8037L23.0052 12.7009C23.0048 12.7648 22.983 12.7733 22.9397 12.7263C22.3105 12.0492 21.2099 11.2571 20.245 11.746C19.6298 12.0577 19.4945 12.9111 19.5419 13.5284C19.6148 14.4787 19.9889 15.4815 20.3969 16.3589Z" fill="#FF0000"/>
<path d="M7.07062 22.9703C7.65441 23.5546 8.38951 24.1609 9.25745 24.1134C9.47285 24.1018 9.66978 24.0437 9.84822 23.9392C10.2887 23.6805 10.4904 23.0787 10.5034 22.5918C10.5141 22.1806 10.4665 21.7627 10.3606 21.3378C10.2214 20.7789 10.0225 20.2086 9.76383 19.6269C9.34035 18.6744 8.84395 17.7714 8.27465 16.9177C8.1463 16.725 7.98051 16.3419 8.40299 16.3419C9.95676 16.3409 11.5901 16.3406 13.303 16.3409C13.5412 16.3409 13.7465 16.4483 13.8628 16.6511C14.4141 17.6136 14.8301 18.5183 15.1108 19.3652C15.4928 20.5178 15.6961 21.7423 15.5098 22.9034C15.3264 24.047 14.8301 24.9722 14.0211 25.679C13.7441 25.9207 13.3634 26.1513 12.879 26.3707C11.8328 26.8446 10.6293 26.9465 9.5406 26.5884C8.60474 26.2811 7.78808 25.7624 7.0906 25.0323C7.05497 24.9947 7.03716 24.9493 7.03716 24.896C7.03683 24.2298 7.03616 23.5927 7.03516 22.9848C7.03483 22.9509 7.04665 22.946 7.07062 22.9703Z" fill="#0031FF"/>
<path d="M21.204 21.9935C21.2023 21.9941 21.2008 21.9953 21.1997 21.9968C21.1986 21.9983 21.198 22.0002 21.198 22.002C21.1997 22.9432 21.2002 23.8844 21.1995 24.8256C21.1995 25.1319 21.1281 25.3965 20.9853 25.6196C20.6312 26.1724 20.0355 26.518 19.3912 26.6214C18.5098 26.7627 17.2798 26.5345 16.744 25.7399C16.5562 25.4623 16.4873 25.1327 16.4883 24.7971C16.4913 23.3599 16.4916 21.8933 16.4893 20.3975C16.4892 20.3938 16.4899 20.3902 16.4913 20.3868C16.4927 20.3834 16.4947 20.3803 16.4973 20.3777C16.4999 20.3751 16.503 20.3731 16.5064 20.3717C16.5099 20.3702 16.5135 20.3695 16.5173 20.3695H17.2823C17.2911 20.3695 17.2994 20.373 17.3056 20.3792C17.3118 20.3853 17.3153 20.3937 17.3153 20.4025C17.3156 21.8291 17.3153 23.2715 17.3143 24.7297C17.3143 24.8369 17.3348 24.9374 17.3757 25.0313C17.7373 25.8568 18.763 26.115 19.5456 25.8019C19.9268 25.6491 20.1823 25.3814 20.3121 24.9989C20.3571 24.8657 20.3792 24.6834 20.3785 24.452C20.3722 21.7839 20.3727 20.4268 20.38 20.3805C20.3814 20.3712 20.3864 20.3665 20.395 20.3665L21.1716 20.371C21.1822 20.3712 21.1927 20.3739 21.2021 20.3789C21.2115 20.3839 21.2195 20.3912 21.2255 20.4L24.2109 24.8206C24.2338 24.8549 24.2453 24.8514 24.2453 24.8101L24.2448 20.3955C24.2448 20.392 24.2455 20.3886 24.2468 20.3854C24.2482 20.3821 24.2501 20.3792 24.2526 20.3768C24.255 20.3743 24.2579 20.3724 24.2612 20.371C24.2644 20.3697 24.2678 20.369 24.2713 20.369L25.0478 20.371C25.051 20.371 25.0541 20.3716 25.057 20.3728C25.0599 20.374 25.0626 20.3757 25.0648 20.3779C25.067 20.3801 25.0688 20.3827 25.07 20.3855C25.0712 20.3883 25.0718 20.3914 25.0718 20.3945V26.5105C25.0718 26.517 25.0692 26.5232 25.0646 26.5278C25.06 26.5324 25.0538 26.535 25.0473 26.535L24.2733 26.5345C24.2647 26.5345 24.2562 26.5323 24.2487 26.5282C24.2411 26.5241 24.2346 26.5182 24.2298 26.511C23.2257 25.0072 22.2208 23.5025 21.215 21.997C21.2137 21.9947 21.2117 21.9934 21.209 21.993C21.2074 21.9927 21.2057 21.9929 21.204 21.9935Z" fill="black"/>
<path d="M26.5529 22.008C26.5323 21.9777 26.522 21.9809 26.522 22.0175V26.516C26.522 26.5209 26.52 26.5256 26.5165 26.5291C26.5131 26.5326 26.5084 26.5345 26.5035 26.5345L25.7224 26.5355C25.6998 26.5358 25.6885 26.5245 25.6885 26.5015C25.6908 22.4492 25.6916 20.4206 25.691 20.416C25.6873 20.3837 25.7018 20.3677 25.7344 20.368C26.0241 20.371 26.2788 20.3719 26.4985 20.3705C26.5044 20.3704 26.5104 20.3717 26.5157 20.3744C26.521 20.3771 26.5256 20.3811 26.529 20.386L29.6092 24.8411C29.6342 24.8774 29.6466 24.8735 29.6466 24.8296L29.6451 20.4015C29.6451 20.3802 29.6558 20.3695 29.6771 20.3695L30.4212 20.371C30.4364 20.3712 30.4513 20.3751 30.4647 20.3824C30.478 20.3898 30.4893 20.4003 30.4976 20.413L32.3159 23.25C32.3182 23.2536 32.3214 23.2566 32.3251 23.2587C32.3289 23.2607 32.3331 23.2618 32.3373 23.2618C32.3416 23.2618 32.3458 23.2607 32.3496 23.2587C32.3533 23.2566 32.3565 23.2536 32.3588 23.25L34.2041 20.3995C34.2101 20.3903 34.2183 20.3828 34.2279 20.3775C34.2376 20.3723 34.2485 20.3696 34.2595 20.3695H35.0086C35.0134 20.3696 35.0181 20.3709 35.0222 20.3734C35.0263 20.3759 35.0297 20.3794 35.032 20.3837C35.0343 20.3879 35.0354 20.3927 35.0353 20.3975C35.0351 20.4023 35.0336 20.4069 35.0311 20.411C34.2923 21.5546 33.5359 22.7285 32.7618 23.9327C32.7342 23.9753 32.7204 24.0232 32.7204 24.0765C32.7207 24.8805 32.7212 25.693 32.7219 26.514C32.7219 26.5193 32.7197 26.5244 32.7159 26.5282C32.712 26.5319 32.7068 26.534 32.7014 26.534L31.9149 26.5355C31.9085 26.5355 31.9024 26.533 31.8979 26.5286C31.8934 26.5242 31.8909 26.5183 31.8909 26.512L31.8919 23.9452C31.8919 23.9135 31.8834 23.8844 31.8664 23.8578L30.5061 21.6964C30.4844 21.6618 30.4736 21.6648 30.4736 21.7054L30.4751 26.4996C30.4751 26.5042 30.4742 26.5088 30.4724 26.5131C30.4706 26.5174 30.468 26.5213 30.4647 26.5246C30.4614 26.5279 30.4575 26.5305 30.4532 26.5323C30.4489 26.5341 30.4443 26.535 30.4397 26.535L29.6901 26.5355C29.6773 26.5355 29.6647 26.5324 29.6534 26.5264C29.6421 26.5204 29.6324 26.5117 29.6252 26.501L26.5529 22.008Z" fill="black"/>
<circle cx="20" cy="20" r="19.5" stroke="black" stroke-opacity="0.05"/>
</svg>
