<svg width="40" height="40" viewBox="0 0 40 40" fill="none" xmlns="http://www.w3.org/2000/svg">
<circle cx="20" cy="20" r="20" fill="#F6F8FA"/>
<g clip-path="url(#clip0_16523_11328)">
<path d="M19.2236 18.6285H20.6012V19.2221H20.6169C20.7677 18.9999 20.9707 18.8181 21.2082 18.6927C21.4456 18.5674 21.7103 18.5022 21.9788 18.5031C23.4236 18.5031 23.5468 19.5558 23.5468 20.1808V22.9629H22.1266V20.8662C22.1266 20.2726 22.1938 19.6723 21.4166 19.6723C20.8835 19.6723 20.6483 20.1203 20.6483 20.5997V22.9629H19.2304L19.2236 18.6285Z" fill="#555658"/>
<path d="M25.4106 21.5494C25.407 21.6423 25.4253 21.7348 25.4643 21.8193C25.5032 21.9038 25.5616 21.9779 25.6346 22.0355C25.7902 22.1392 25.9742 22.1917 26.161 22.1855C26.4366 22.1855 26.833 22.0691 26.833 21.7376C26.833 21.406 26.385 21.3366 26.1409 21.2784C25.2449 21.0544 24.1249 21.0275 24.1249 19.8582C24.1249 18.8144 25.2449 18.5299 26.105 18.5299C27.057 18.5299 28.0493 18.8054 28.1009 19.9321H26.7882C26.7948 19.8589 26.7812 19.7853 26.7488 19.7194C26.7164 19.6534 26.6665 19.5976 26.6046 19.5581C26.4686 19.4798 26.3133 19.4418 26.1566 19.4483C25.9326 19.4483 25.5473 19.4729 25.5473 19.7753C25.5473 20.183 26.4993 20.2592 27.1511 20.4003C28.0269 20.5772 28.2532 21.2112 28.2532 21.5696C28.2532 22.7321 27.1511 23.1151 26.1745 23.1151C25.1463 23.1151 24.0935 22.7724 24.0532 21.5606L25.4106 21.5494Z" fill="#555658"/>
<path d="M30.8449 18.494C31.2985 18.4914 31.7426 18.6233 32.1213 18.873C32.4999 19.1227 32.796 19.4791 32.9721 19.8971C33.1482 20.315 33.1964 20.7758 33.1107 21.2212C33.025 21.6666 32.8092 22.0766 32.4905 22.3993C32.1718 22.7221 31.7646 22.9431 31.3204 23.0344C30.8761 23.1258 30.4147 23.0834 29.9946 22.9126C29.5744 22.7418 29.2143 22.4503 28.9598 22.0749C28.7053 21.6994 28.5678 21.257 28.5646 20.8034C28.5529 20.4995 28.6036 20.1964 28.7137 19.9128C28.8238 19.6292 28.9908 19.3712 29.2045 19.1548C29.4182 18.9383 29.6741 18.768 29.9562 18.6544C30.2384 18.5407 30.5409 18.4861 30.8449 18.494ZM30.8449 21.9929C31.5057 21.9929 31.7141 21.3433 31.7141 20.7922C31.7141 20.2412 31.5057 19.5804 30.8449 19.5804C30.1842 19.5804 29.9848 20.239 29.9848 20.7922C29.9848 21.3455 30.1864 21.9929 30.8449 21.9929Z" fill="#555658"/>
<path d="M33.582 16.9955H35.0022V22.9583H33.582V16.9955Z" fill="#555658"/>
<path d="M8.49414 16.9955H10.1181V19.2019H12.0042V16.9955H13.6147V22.9583H12.0042V20.6063H10.1181V22.9583H8.49414V16.9955Z" fill="#555658"/>
<path d="M6.85246 17H5V19.1168H6.85246V17Z" fill="#007DC5"/>
<path d="M6.85246 20.7699H5V22.9628H6.85246V20.7699Z" fill="#00A650"/>
<path d="M14.3227 19.9657C14.3229 19.73 14.3851 19.4986 14.5031 19.2945C14.621 19.0905 14.7906 18.921 14.9947 18.8032C15.4219 18.5905 15.8953 18.4873 16.3722 18.503C17.3982 18.503 18.3882 18.727 18.3882 19.9568V21.8518C18.3582 22.233 18.4157 22.6161 18.5562 22.9718H17.1361C17.0916 22.8391 17.0637 22.7014 17.0532 22.5619C16.8635 22.7423 16.6393 22.8826 16.3942 22.9746C16.1491 23.0666 15.8879 23.1083 15.6263 23.0972C14.7975 23.0972 14.1479 22.6783 14.1479 21.7868C14.1479 20.3756 15.6846 20.4832 16.6679 20.2838C16.9121 20.2323 17.0442 20.1494 17.0442 19.8828C17.0442 19.5558 16.6522 19.4349 16.3588 19.4349C16.1929 19.4139 16.0254 19.4593 15.8928 19.5612C15.7602 19.6632 15.6733 19.8134 15.651 19.9792L14.3227 19.9657ZM16.1594 22.2057C16.8314 22.2057 17.0554 21.8227 17.0286 20.9289C16.827 21.0544 16.4596 21.079 16.1505 21.1529C15.8414 21.2268 15.5659 21.3612 15.5659 21.7017C15.5659 22.0422 15.8414 22.2102 16.1594 22.2102V22.2057Z" fill="#555658"/>
</g>
<circle cx="20" cy="20" r="19.5" stroke="black" stroke-opacity="0.05"/>
<defs>
<clipPath id="clip0_16523_11328">
<rect width="30" height="6.10394" fill="white" transform="translate(5 17)"/>
</clipPath>
</defs>
</svg>
