<svg width="40" height="40" viewBox="0 0 40 40" fill="none" xmlns="http://www.w3.org/2000/svg">
<circle cx="20" cy="20" r="20" fill="#D22D27"/>
<g clip-path="url(#clip0_17713_28057)">
<path d="M21.9173 16.7354H20.9312C20.7817 16.7344 20.6367 16.7865 20.522 16.8823C20.4072 16.9782 20.3302 17.1116 20.3045 17.2588C20.0888 18.3242 19.9561 19.4909 19.805 20.5342C19.6667 19.5426 19.4363 18.2136 19.2372 17.1906C19.1994 17.0545 19.1163 16.9353 19.0018 16.8526C18.8873 16.7698 18.748 16.7285 18.6069 16.7354H17.6023C17.4612 16.7285 17.3219 16.7698 17.2074 16.8526C17.0928 16.9353 17.0098 17.0545 16.9719 17.1906C16.7256 18.2911 16.5355 19.4033 16.4024 20.5231C16.2531 19.4836 16.1185 18.3113 15.9066 17.2588C15.8801 17.1116 15.8026 16.9784 15.6876 16.8826C15.5727 16.7869 15.4276 16.7347 15.278 16.7354H14.2919C14.2009 16.7315 14.1101 16.7472 14.0256 16.7815C13.9412 16.8157 13.8651 16.8678 13.8025 16.934C13.74 17.0003 13.6924 17.0792 13.6629 17.1654C13.6335 17.2517 13.623 17.3433 13.6321 17.4339C13.8256 19.1352 14.3214 21.3471 14.891 23.358C14.9235 23.5056 15.0064 23.6374 15.1254 23.7306C15.2445 23.8237 15.3923 23.8725 15.5435 23.8686H16.8429C16.9936 23.8699 17.1402 23.8193 17.258 23.7254C17.3758 23.6314 17.4577 23.4997 17.4899 23.3525L18.0926 20.678H18.1184L18.7193 23.3525C18.7515 23.4997 18.8333 23.6314 18.9512 23.7254C19.069 23.8193 19.2156 23.8699 19.3663 23.8686H20.6565C20.8077 23.8725 20.9555 23.8237 21.0745 23.7306C21.1936 23.6374 21.2765 23.5056 21.309 23.358C21.8786 21.3471 22.3744 19.1352 22.5679 17.4339C22.577 17.3433 22.5664 17.2517 22.537 17.1654C22.5076 17.0792 22.46 17.0003 22.3974 16.934C22.3349 16.8678 22.2588 16.8157 22.1743 16.7815C22.0899 16.7472 21.9991 16.7315 21.9081 16.7354" fill="white"/>
<path d="M5.94741 15.283C5.94984 15.1102 6.02067 14.9455 6.14436 14.8249C6.26806 14.7043 6.43453 14.6377 6.60727 14.6397H7.81273C7.89818 14.6387 7.98298 14.6546 8.06229 14.6864C8.14161 14.7182 8.21388 14.7653 8.27498 14.825C8.33609 14.8848 8.38483 14.956 8.41842 15.0345C8.45201 15.1131 8.46979 15.1975 8.47075 15.283V16.7354H9.10851C9.16708 16.7347 9.22523 16.7455 9.27963 16.7672C9.33403 16.789 9.38361 16.8212 9.42554 16.8621C9.46748 16.903 9.50094 16.9518 9.52403 17.0057C9.54711 17.0595 9.55937 17.1174 9.56009 17.1759V17.8911C9.55815 18.0091 9.50954 18.1215 9.4249 18.2037C9.34026 18.2859 9.22649 18.3313 9.10851 18.3298H8.47075V21.6918C8.47075 22.101 8.73433 22.2448 9.10851 22.2448C9.16708 22.244 9.22523 22.2548 9.27963 22.2766C9.33403 22.2983 9.38361 22.3306 9.42554 22.3715C9.46748 22.4124 9.50094 22.4612 9.52403 22.515C9.54711 22.5688 9.55937 22.6267 9.56009 22.6853V23.4226C9.55937 23.4811 9.54711 23.539 9.52403 23.5928C9.50094 23.6467 9.46748 23.6955 9.42554 23.7364C9.38361 23.7773 9.33403 23.8095 9.27963 23.8313C9.22523 23.853 9.16708 23.8638 9.10851 23.8631C8.75645 23.8889 8.3915 23.9018 8.12423 23.9018C6.7105 23.9018 5.94741 23.0576 5.94741 21.4761V18.3298H5.45159C5.3336 18.3313 5.21983 18.2859 5.13519 18.2037C5.05055 18.1215 5.00194 18.0091 5 17.8911V17.1759C5.00072 17.1174 5.01298 17.0595 5.03606 17.0057C5.05915 16.9518 5.09261 16.903 5.13455 16.8621C5.17648 16.8212 5.22607 16.789 5.28046 16.7672C5.33486 16.7455 5.39301 16.7347 5.45159 16.7354H5.94741V15.283Z" fill="white"/>
<path d="M32.7589 17.2459C32.7921 17.0999 32.8742 16.9698 32.9915 16.8769C33.1089 16.784 33.2544 16.7341 33.4041 16.7353H34.3441C34.4295 16.7341 34.5144 16.7497 34.5938 16.7813C34.6732 16.8128 34.7456 16.8598 34.8069 16.9193C34.8682 16.9789 34.9171 17.0499 34.9509 17.1284C34.9847 17.2069 35.0028 17.2913 35.004 17.3767C35.0059 17.4111 35.0059 17.4456 35.004 17.4799C34.6703 19.4669 33.9404 21.9221 33.2769 24.0344C32.7718 25.6435 32.112 26.1854 30.866 26.1854C30.56 26.1854 30.2264 26.1854 29.9665 26.167C29.9077 26.1679 29.8494 26.1573 29.7948 26.1357C29.7402 26.114 29.6904 26.0818 29.6483 26.0409C29.6061 26 29.5725 25.9511 29.5493 25.8972C29.5261 25.8432 29.5138 25.7852 29.5131 25.7264V24.9633C29.515 24.8449 29.5638 24.732 29.6488 24.6494C29.7338 24.5669 29.848 24.5213 29.9665 24.5228H30.0273C30.6061 24.5228 30.8015 24.1265 30.7996 23.9828C30.7935 23.8027 30.7586 23.6247 30.6964 23.4556C30.2356 22.0161 29.6882 19.7268 29.2218 17.5094C29.2114 17.4654 29.2065 17.4202 29.2071 17.3749C29.2095 17.2026 29.2801 17.0384 29.4035 16.9181C29.5268 16.7979 29.6929 16.7315 29.8651 16.7334H30.8291C30.9731 16.7328 31.1134 16.7792 31.2286 16.8658C31.3437 16.9523 31.4274 17.0741 31.4668 17.2127C31.7138 18.1011 31.9719 19.7821 32.1765 20.8143H32.2004C32.3848 19.6623 32.5875 18.0679 32.7718 17.244" fill="white"/>
<path d="M26.2685 20.6889C26.1531 20.7725 26.0296 20.8441 25.8998 20.9027C25.5699 21.0649 25.1957 21.2474 25.1459 21.6639C25.133 21.7441 25.1378 21.8261 25.1601 21.9041C25.1824 21.9821 25.2216 22.0543 25.275 22.1155C25.321 22.1641 25.3765 22.2029 25.4379 22.2295C25.4994 22.2561 25.5656 22.27 25.6326 22.2703C26.0178 22.2703 26.274 22.1008 26.274 21.2695L26.2685 20.6889ZM24.7533 23.955C23.5331 23.955 22.7461 23.1588 22.7461 21.9275C22.7461 20.6575 23.6511 19.8373 25.5957 19.347C26.0362 19.2456 26.2242 19.0374 26.2242 18.654C26.2203 18.5406 26.1766 18.4321 26.1009 18.3476C26.0253 18.263 25.9223 18.2077 25.81 18.1913C25.6977 18.1748 25.5832 18.1983 25.4865 18.2576C25.3897 18.3169 25.3168 18.4082 25.2805 18.5157C25.1883 18.8844 24.9321 19.0558 24.475 19.0558H23.8373C23.3802 19.0558 23.1 18.7867 23.1 18.3535C23.0996 18.2816 23.1108 18.21 23.1332 18.1416C23.5442 16.7757 24.9543 16.573 25.7579 16.573C26.6795 16.573 27.3154 16.7186 27.7615 17.0301C28.2831 17.3988 28.5522 18.0033 28.5891 18.8862C28.6351 19.935 28.6702 22.0197 28.602 23.1735C28.5957 23.3635 28.5148 23.5434 28.3768 23.6742C28.2388 23.805 28.0548 23.8761 27.8647 23.8721H27.0315C26.849 23.8731 26.6725 23.8064 26.5363 23.6849C26.4001 23.5633 26.3139 23.3956 26.2943 23.2141C25.9772 23.6896 25.4261 23.9513 24.7533 23.9513" fill="white"/>
<path d="M12.6902 14.8406L12.6589 14.7797C12.5319 14.5421 12.3423 14.3438 12.1107 14.2064C11.879 14.0689 11.6141 13.9976 11.3447 14.0001C10.9586 13.9966 10.5868 14.1461 10.3106 14.4158C10.0343 14.6855 9.87594 15.0535 9.87012 15.4396C9.87069 15.6598 9.92223 15.877 10.0207 16.0739C10.1192 16.2709 10.262 16.4424 10.4378 16.575C10.8599 16.8939 11.2912 17.4966 10.2738 18.4182C10.0895 18.6154 10.2185 18.7666 10.3475 18.8495C10.659 19.0449 10.8654 19.0173 11.1972 18.8495C12.0525 18.4164 13.5934 16.6672 12.6939 14.8332" fill="#7CA73E"/>
</g>
<circle cx="20" cy="20" r="19.5" stroke="black" stroke-opacity="0.05"/>
<defs>
<clipPath id="clip0_17713_28057">
<rect width="30" height="12.1836" fill="white" transform="translate(5 14)"/>
</clipPath>
</defs>
</svg>
