<svg width="40" height="40" viewBox="0 0 40 40" fill="none" xmlns="http://www.w3.org/2000/svg">
<circle cx="20" cy="20" r="20" fill="#F6F8FA"/>
<path d="M31 20C31 22.9174 29.8411 25.7153 27.7782 27.7782C25.7153 29.8411 22.9174 31 20 31C17.0826 31 14.2847 29.8411 12.2218 27.7782C10.1589 25.7153 9 22.9174 9 20C9 17.0826 10.1589 14.2847 12.2218 12.2218C14.2847 10.1589 17.0826 9 20 9C22.9174 9 25.7153 10.1589 27.7782 12.2218C29.8411 14.2847 31 17.0826 31 20ZM27.7819 22.1143C27.7404 22.1034 27.7252 22.0772 27.7361 22.0357C28.0833 20.6895 28.0856 19.3427 27.743 17.9954C27.7269 17.9326 27.7502 17.8929 27.813 17.8762L28.9841 17.5601C29.0285 17.548 29.0443 17.52 29.0316 17.4763C28.5819 15.9072 27.7836 14.5374 26.6366 13.3668C26.6327 13.3628 26.628 13.3596 26.6228 13.3574C26.6176 13.3553 26.612 13.3541 26.6064 13.3541C26.6008 13.3541 26.5952 13.3553 26.59 13.3574C26.5848 13.3596 26.5801 13.3628 26.5762 13.3668L25.6727 14.2746C25.661 14.2861 25.6452 14.2925 25.6287 14.2925C25.6122 14.2925 25.5964 14.2861 25.5846 14.2746C24.5902 13.3141 23.4297 12.6505 22.1031 12.2838C22.0674 12.274 22.0544 12.2512 22.0642 12.2155L22.395 11.0055C22.3976 10.9961 22.3983 10.9864 22.397 10.9767C22.3958 10.9671 22.3926 10.9578 22.3877 10.9494C22.3828 10.9411 22.3762 10.9338 22.3684 10.928C22.3606 10.9222 22.3518 10.918 22.3423 10.9157C20.7837 10.527 19.2158 10.529 17.6387 10.9217C17.6018 10.9304 17.5883 10.9531 17.5981 10.9899L17.9349 12.2242C17.9381 12.2356 17.9366 12.2479 17.9308 12.2582C17.925 12.2686 17.9153 12.2762 17.9038 12.2794C16.5639 12.6549 15.4023 13.319 14.4188 14.272C14.3866 14.3031 14.3546 14.3025 14.3229 14.2703L13.4333 13.3703C13.4288 13.3657 13.4233 13.362 13.4173 13.3595C13.4113 13.357 13.4049 13.3557 13.3984 13.3557C13.3919 13.3557 13.3854 13.357 13.3794 13.3595C13.3734 13.362 13.368 13.3657 13.3634 13.3703C12.2089 14.5449 11.4065 15.9239 10.9563 17.5074C10.9551 17.5118 10.9547 17.5164 10.9553 17.521C10.9559 17.5255 10.9573 17.5299 10.9596 17.5339C10.9618 17.5378 10.9648 17.5412 10.9684 17.5439C10.972 17.5467 10.9761 17.5486 10.9804 17.5497L12.2121 17.8831C12.2593 17.8958 12.2769 17.9257 12.2648 17.9729C11.9164 19.3283 11.9193 20.6915 12.2734 22.0625C12.2747 22.0672 12.2751 22.072 12.2745 22.0768C12.2739 22.0816 12.2723 22.0862 12.2699 22.0904C12.2675 22.0946 12.2642 22.0982 12.2604 22.1012C12.2566 22.1041 12.2522 22.1062 12.2475 22.1074L11.0003 22.4451C10.9658 22.4543 10.9534 22.4762 10.9632 22.5108C11.4106 24.089 12.2101 25.4614 13.3617 26.628C13.3705 26.6365 13.3822 26.6412 13.3943 26.6412C13.4064 26.6412 13.4179 26.6365 13.4264 26.628L14.3463 25.7073C14.3525 25.7013 14.3609 25.6979 14.3696 25.6979C14.3783 25.6979 14.3866 25.7013 14.3929 25.7073C15.408 26.6838 16.5697 27.3512 17.8779 27.7093C17.9274 27.7226 17.9453 27.754 17.9315 27.8035L17.5938 29.0204C17.5922 29.0261 17.5918 29.032 17.5926 29.0378C17.5933 29.0437 17.5953 29.0493 17.5982 29.0544C17.6012 29.0594 17.6052 29.0639 17.6099 29.0674C17.6146 29.0709 17.62 29.0734 17.6257 29.0748C19.2253 29.4773 20.8044 29.4779 22.3631 29.0766C22.3696 29.0748 22.3757 29.0718 22.3811 29.0678C22.3865 29.0637 22.391 29.0586 22.3943 29.0528C22.3977 29.047 22.3999 29.0407 22.4008 29.0341C22.4016 29.0275 22.4011 29.0208 22.3993 29.0144L22.0556 27.7508C22.0543 27.745 22.0552 27.7388 22.0583 27.7337C22.0613 27.7285 22.0662 27.7248 22.072 27.7231C23.4176 27.3598 24.59 26.6913 25.589 25.7177C25.6131 25.694 25.6373 25.6943 25.6615 25.7185L26.5356 26.5926C26.5811 26.6386 26.6265 26.6386 26.672 26.5926C27.7862 25.4669 28.5736 24.1095 29.0342 22.5203C29.0366 22.5122 29.0373 22.5038 29.0364 22.4954C29.0354 22.4871 29.0328 22.479 29.0287 22.4717C29.0246 22.4644 29.0191 22.458 29.0125 22.4528C29.0059 22.4476 28.9983 22.4439 28.9902 22.4417L27.7819 22.1143Z" fill="#018000"/>
<path d="M27.7819 22.1142L28.9902 22.4415C28.9983 22.4437 29.0059 22.4475 29.0125 22.4527C29.0191 22.4578 29.0247 22.4643 29.0288 22.4716C29.0329 22.4789 29.0355 22.487 29.0364 22.4953C29.0374 22.5036 29.0366 22.5121 29.0343 22.5201C28.5736 24.1093 27.7862 25.4668 26.6721 26.5924C26.6266 26.6385 26.5811 26.6385 26.5356 26.5924L25.6616 25.7184C25.6374 25.6942 25.6132 25.6939 25.589 25.7175C24.59 26.6912 23.4177 27.3597 22.072 27.723C22.0663 27.7246 22.0614 27.7284 22.0583 27.7336C22.0553 27.7387 22.0543 27.7448 22.0556 27.7507L22.3994 29.0142C22.4012 29.0206 22.4017 29.0273 22.4008 29.0339C22.3999 29.0405 22.3978 29.0469 22.3944 29.0527C22.391 29.0585 22.3865 29.0636 22.3811 29.0676C22.3758 29.0717 22.3696 29.0747 22.3631 29.0764C20.8044 29.4778 19.2253 29.4772 17.6257 29.0747C17.62 29.0733 17.6147 29.0708 17.6099 29.0672C17.6052 29.0637 17.6013 29.0593 17.5983 29.0542C17.5953 29.0492 17.5934 29.0435 17.5926 29.0377C17.5918 29.0319 17.5922 29.026 17.5938 29.0203L17.9315 27.8033C17.9453 27.7538 17.9275 27.7224 17.8779 27.7092C16.5697 27.3511 15.4081 26.6837 14.3929 25.7072C14.3867 25.7011 14.3783 25.6978 14.3696 25.6978C14.3609 25.6978 14.3526 25.7011 14.3463 25.7072L13.4265 26.6279C13.418 26.6363 13.4064 26.6411 13.3943 26.6411C13.3822 26.6411 13.3705 26.6363 13.3617 26.6279C12.2101 25.4613 11.4106 24.0889 10.9632 22.5106C10.9534 22.4761 10.9658 22.4542 11.0004 22.445L12.2475 22.1073C12.2522 22.1061 12.2566 22.104 12.2604 22.101C12.2643 22.0981 12.2675 22.0945 12.2699 22.0903C12.2723 22.0861 12.2739 22.0815 12.2745 22.0767C12.2751 22.0719 12.2747 22.067 12.2734 22.0624C11.9193 20.6914 11.9164 19.3282 12.2648 17.9728C12.2769 17.9256 12.2593 17.8956 12.2121 17.883L10.9805 17.5496C10.9761 17.5485 10.9721 17.5465 10.9685 17.5438C10.9649 17.5411 10.9619 17.5377 10.9596 17.5337C10.9574 17.5298 10.9559 17.5254 10.9554 17.5209C10.9548 17.5163 10.9551 17.5117 10.9563 17.5072C11.4066 15.9238 12.2089 14.5448 13.3634 13.3702C13.368 13.3655 13.3734 13.3619 13.3794 13.3594C13.3855 13.3569 13.3919 13.3556 13.3984 13.3556C13.4049 13.3556 13.4113 13.3569 13.4173 13.3594C13.4234 13.3619 13.4288 13.3655 13.4334 13.3702L14.323 14.2701C14.3547 14.3024 14.3866 14.3029 14.4189 14.2719C15.4023 13.3189 16.564 12.6547 17.9039 12.2793C17.9153 12.2761 17.925 12.2685 17.9308 12.2581C17.9367 12.2477 17.9381 12.2355 17.935 12.224L17.5981 10.9898C17.5883 10.953 17.6019 10.9302 17.6387 10.9216C19.2158 10.5289 20.7837 10.5269 22.3424 10.9155C22.3518 10.9178 22.3607 10.922 22.3685 10.9278C22.3763 10.9336 22.3828 10.9409 22.3877 10.9493C22.3926 10.9577 22.3958 10.967 22.3971 10.9766C22.3983 10.9862 22.3977 10.996 22.3951 11.0054L22.0643 12.2154C22.0545 12.2511 22.0674 12.2738 22.1031 12.2836C23.4298 12.6504 24.5903 13.314 25.5847 14.2744C25.5965 14.2859 25.6123 14.2924 25.6287 14.2924C25.6452 14.2924 25.661 14.2859 25.6728 14.2744L26.5762 13.3667C26.5801 13.3627 26.5848 13.3595 26.59 13.3573C26.5952 13.3551 26.6008 13.354 26.6064 13.354C26.6121 13.354 26.6176 13.3551 26.6228 13.3573C26.628 13.3595 26.6327 13.3627 26.6367 13.3667C27.7836 14.5373 28.582 15.9071 29.0317 17.4762C29.0444 17.5199 29.0285 17.5478 28.9842 17.5599L27.813 17.876C27.7503 17.8927 27.7269 17.9325 27.7431 17.9952C28.0857 19.3426 28.0833 20.6894 27.7361 22.0356C27.7252 22.0771 27.7405 22.1033 27.7819 22.1142ZM25.64 21.6884C25.9854 21.5649 26.2342 21.3239 26.2316 20.9396C26.2276 20.2993 26.2273 19.682 26.2307 19.0878C26.2342 18.5592 25.8153 18.345 25.3765 18.2163C24.2889 17.8985 23.1114 17.6906 21.844 17.5928C19.5587 17.4166 17.2811 17.5383 15.0813 18.0851C14.5484 18.2181 13.7616 18.3994 13.765 19.0749C13.7685 19.6213 13.7673 20.2267 13.7616 20.8912C13.759 21.2574 13.9585 21.5329 14.2962 21.6608C14.8288 21.8629 15.434 22.0247 16.1117 22.1461C18.5482 22.5832 21.0935 22.5961 23.587 22.2014C24.3188 22.0851 25.0031 21.9141 25.64 21.6884Z" fill="#FFFF00"/>
<path d="M25.6401 21.6885C25.0033 21.9142 24.319 22.0853 23.5871 22.2016C21.0936 22.5963 18.5483 22.5833 16.1119 22.1463C15.4341 22.0248 14.829 21.863 14.2964 21.6609C13.9587 21.5331 13.7592 21.2575 13.7617 20.8913C13.7675 20.2269 13.7687 19.6214 13.7652 19.075C13.7617 18.3996 14.5486 18.2182 15.0815 18.0852C17.2813 17.5385 19.5589 17.4167 21.8442 17.5929C23.1115 17.6908 24.289 17.8986 25.3767 18.2165C25.8154 18.3452 26.2343 18.5594 26.2309 19.0879C26.2274 19.6822 26.2277 20.2994 26.2318 20.9397C26.2343 21.324 25.9856 21.565 25.6401 21.6885Z" fill="#FE0000"/>
<circle cx="20" cy="20" r="19.5" stroke="black" stroke-opacity="0.05"/>
</svg>
