<svg width="40" height="40" viewBox="0 0 40 40" fill="none" xmlns="http://www.w3.org/2000/svg">
<circle cx="20" cy="20" r="20" fill="#F6F8FA"/>
<path d="M4.96289 18.1707C4.96289 17.8614 5.08573 17.5649 5.30438 17.3462C5.52304 17.1276 5.8196 17.0047 6.12882 17.0047H10.9206C11.7872 17.0047 12.6184 17.3449 13.2312 17.9505C13.844 18.5561 14.1883 19.3775 14.1883 20.2339C14.1883 21.0903 13.844 21.9116 13.2312 22.5172C12.6184 23.1228 11.7872 23.463 10.9206 23.463H6.12882C5.97571 23.463 5.8241 23.4329 5.68264 23.3743C5.54118 23.3157 5.41265 23.2298 5.30438 23.1215C5.19612 23.0133 5.11024 22.8847 5.05164 22.7433C4.99305 22.6018 4.96289 22.4502 4.96289 22.2971V18.1707ZM6.44225 18.708V21.758C6.44225 21.8547 6.48064 21.9474 6.549 22.0157C6.61735 22.0841 6.71005 22.1225 6.80671 22.1225H10.7961C11.3044 22.1225 11.7918 21.9234 12.1512 21.5691C12.5106 21.2147 12.7125 20.7341 12.7125 20.233C12.7125 19.7319 12.5106 19.2513 12.1512 18.8969C11.7918 18.5426 11.3044 18.3435 10.7961 18.3435H6.80671C6.71005 18.3435 6.61735 18.3819 6.549 18.4502C6.48064 18.5186 6.44225 18.6113 6.44225 18.708Z" fill="#E1002C"/>
<path d="M20.5498 21.1786C20.4865 21.1792 20.4826 21.195 20.5381 21.226L24.4496 23.3958C24.5225 23.4364 24.5171 23.4567 24.4335 23.4567H21.9781C21.9082 23.4567 21.8431 23.4391 21.7828 23.4039C20.4969 22.6523 19.2355 21.9153 17.9985 21.1929C17.4881 20.8947 17.6045 20.0709 18.148 19.8935C18.274 19.8523 18.4089 19.8321 18.5528 19.8326C19.8471 19.8368 21.1059 19.8371 22.3291 19.8335C23.315 19.8309 23.324 18.347 22.2942 18.347C20.6357 18.3464 18.9797 18.3467 17.326 18.3479C17.2053 18.3479 17.0896 18.3958 17.0043 18.4812C16.919 18.5665 16.8711 18.6822 16.8711 18.8028V23.403C16.8711 23.4388 16.8535 23.4567 16.8182 23.4567H15.4257C15.4042 23.4567 15.3938 23.446 15.3944 23.4245C15.3998 21.9684 15.3992 20.364 15.3926 18.6112C15.3881 17.4327 15.9344 16.9921 17.0815 17.0011C18.8194 17.0142 20.5065 17.0139 22.1428 17.0002C22.5816 16.9966 22.9246 17.0402 23.1718 17.1309C25.0084 17.807 25.0093 20.3986 23.1583 21.055C22.8986 21.1469 22.5563 21.189 22.1312 21.1813C21.5945 21.1711 21.0673 21.1702 20.5498 21.1786Z" fill="#E1002C"/>
<path d="M34.5202 20.2724C35.3611 21.372 34.959 22.8254 33.6892 23.3385C33.4773 23.4245 33.0868 23.4663 32.5179 23.4639C30.7723 23.4567 29.012 23.4523 27.2372 23.4505C26.3533 23.4505 25.7139 23.0905 25.7077 22.0831C25.6993 20.8532 25.699 19.6187 25.7068 18.3793C25.7148 17.174 26.5593 16.9949 27.5954 17.0011C29.4807 17.0131 31.2726 17.0149 32.971 17.0065C34.6796 16.9975 35.5384 18.8727 34.5202 20.1918C34.4999 20.2186 34.4999 20.2455 34.5202 20.2724ZM28.5804 20.9019C27.6831 20.8983 27.6778 19.5605 28.6019 19.5613C29.9559 19.5625 31.3848 19.5622 32.8886 19.5605C33.6722 19.5596 33.674 18.3471 32.8815 18.3471C31.1293 18.3488 29.3631 18.3486 27.5828 18.3462C27.3455 18.3462 27.1852 18.4724 27.1843 18.7214C27.1802 19.6784 27.1799 20.6727 27.1834 21.7043C27.184 21.9801 27.3222 22.1174 27.5981 22.1162C29.2726 22.1102 31.0027 22.112 32.7883 22.1216C32.9507 22.1222 33.0824 22.092 33.1833 22.0311C33.5871 21.7866 33.5916 21.2207 33.185 20.9888C33.0752 20.9255 32.8994 20.8947 32.6576 20.8965C31.2457 20.9067 29.8866 20.9085 28.5804 20.9019Z" fill="#E1002C"/>
<circle cx="20" cy="20" r="19.5" stroke="black" stroke-opacity="0.05"/>
</svg>
