<svg width="40" height="40" viewBox="0 0 40 40" fill="none" xmlns="http://www.w3.org/2000/svg">
<circle cx="20" cy="20" r="20" fill="#F6F8FA"/>
<path d="M8.67047 20.6565C8.42791 20.9397 8.12269 21.0199 7.75483 20.8973C7.36799 20.7686 7.1421 20.3438 7.28982 19.9535C7.41512 19.6224 7.67435 19.4571 8.06751 19.4575C8.31544 19.4575 8.50838 19.5469 8.64633 19.7259C8.66625 19.7523 8.67622 19.7491 8.67622 19.7161V18.8413C8.67622 18.8198 8.66683 18.8041 8.64805 18.7941C8.59326 18.765 8.53578 18.7403 8.47562 18.72C7.88281 18.5223 7.33523 18.5951 6.83286 18.9384C6.36459 19.258 6.14866 19.709 6.18507 20.2915C6.18507 20.2938 6.18392 20.2951 6.18162 20.2955L6.16725 20.2972C6.16035 20.2984 6.15613 20.2953 6.1546 20.288C5.93158 19.245 6.02087 18.2485 6.42246 17.2985C7.4157 14.9482 10.0051 13.74 12.4359 14.4798C13.8746 14.9177 15.0518 15.9938 15.6082 17.4192C15.9734 18.355 16.0426 19.3331 15.8157 20.3536C15.805 20.4011 15.8006 20.4005 15.8025 20.3518C15.8067 20.2376 15.8036 20.1286 15.7933 20.0248C15.7284 19.3707 15.257 18.8602 14.6472 18.6775C14.1011 18.5142 13.4838 18.6826 13.0866 19.0936C12.2457 19.9633 12.6291 21.4307 13.8195 21.7359C13.8827 21.752 13.8817 21.7601 13.8166 21.7601H12.3083C12.288 21.7601 12.2779 21.7499 12.2779 21.7296V18.7694C12.2779 18.751 12.2689 18.7418 12.2509 18.7418H11.2013C11.1821 18.7418 11.1725 18.7516 11.1725 18.7712V19.7058C11.1729 19.7253 11.1632 19.7351 11.1432 19.7351H10.4673C10.4454 19.7351 10.4345 19.7242 10.4345 19.7023L10.4357 18.7821C10.4357 18.7714 10.4314 18.7612 10.4239 18.7536C10.4163 18.7461 10.4061 18.7418 10.3954 18.7418H9.347C9.33666 18.7418 9.33148 18.747 9.33148 18.7574V21.725C9.33148 21.7488 9.31979 21.7607 9.29642 21.7607L8.73025 21.7601C8.71032 21.7597 8.70036 21.7495 8.70036 21.7296L8.70093 20.668C8.70093 20.6369 8.69078 20.6331 8.67047 20.6565Z" fill="#E50113"/>
<path d="M33.0418 20.4681L32.5411 20.4721C32.5323 20.4721 32.5279 20.4677 32.5279 20.4589L32.5267 20.0203C32.5267 20.0165 32.5283 20.0129 32.531 20.0102C32.5337 20.0075 32.5373 20.006 32.5411 20.006H33.9913C34.0003 20.0059 34.0089 20.0092 34.0156 20.0152C34.0222 20.0211 34.0262 20.0293 34.027 20.0381C34.048 20.2903 34.0258 20.5342 33.9603 20.7699C33.7792 21.4171 33.2556 21.6872 32.6285 21.7493C31.5864 21.8528 30.7495 20.9371 30.9484 19.91C31.0668 19.2967 31.5105 18.8512 32.1186 18.7046C32.7026 18.5644 33.2044 18.7293 33.6074 19.157C33.6254 19.1765 33.6246 19.1951 33.6051 19.2127L33.1015 19.6755C33.0835 19.6919 33.0657 19.6915 33.0481 19.6743C32.421 19.0524 31.4329 19.9238 31.9422 20.6227C32.1296 20.8798 32.3888 20.9791 32.7199 20.9205C32.9366 20.8819 33.0831 20.7331 33.0814 20.5072C33.0814 20.4807 33.0682 20.4677 33.0418 20.4681Z" fill="#E50113"/>
<path d="M17.4839 21.6302H16.4924C16.4877 21.6302 16.4832 21.6283 16.4798 21.6249C16.4765 21.6216 16.4746 21.6171 16.4746 21.6123L16.4752 18.8188C16.4752 18.8141 16.4771 18.8096 16.4804 18.8062C16.4837 18.8029 16.4883 18.801 16.493 18.801L17.4839 18.8016C17.4887 18.8016 17.4932 18.8035 17.4965 18.8068C17.4999 18.8102 17.5018 18.8147 17.5018 18.8194L17.5006 20.042C17.5005 20.046 17.5017 20.0499 17.5041 20.0531C17.5065 20.0563 17.5099 20.0586 17.5137 20.0596C17.5175 20.0607 17.5216 20.0604 17.5253 20.0589C17.5289 20.0574 17.532 20.0547 17.534 20.0512L18.2789 18.8096C18.2805 18.807 18.2828 18.8048 18.2855 18.8033C18.2882 18.8018 18.2913 18.801 18.2944 18.801L19.4078 18.8016C19.411 18.8016 19.4142 18.8025 19.417 18.8043C19.4198 18.806 19.422 18.8084 19.4235 18.8113C19.425 18.8142 19.4257 18.8175 19.4254 18.8207C19.4252 18.824 19.424 18.8271 19.4221 18.8298L18.5031 20.1156C18.5008 20.1185 18.4996 20.1221 18.4995 20.1258C18.4993 20.1295 18.5004 20.1332 18.5025 20.1363L19.5164 21.6003C19.5183 21.6029 19.5194 21.606 19.5197 21.6093C19.5199 21.6126 19.5193 21.6158 19.5178 21.6187C19.5163 21.6216 19.514 21.6241 19.5113 21.6258C19.5085 21.6275 19.5053 21.6284 19.502 21.6284H18.3283C18.3252 21.6285 18.3221 21.6277 18.3194 21.6262C18.3167 21.6247 18.3144 21.6225 18.3128 21.6198L17.534 20.2897C17.532 20.2863 17.529 20.2836 17.5254 20.2821C17.5218 20.2806 17.5178 20.2803 17.514 20.2812C17.5102 20.2822 17.5068 20.2844 17.5044 20.2875C17.502 20.2906 17.5006 20.2944 17.5006 20.2984L17.5018 21.6123C17.5018 21.6171 17.4999 21.6216 17.4965 21.6249C17.4932 21.6283 17.4887 21.6302 17.4839 21.6302Z" fill="#E50113"/>
<path d="M23.0023 20.8064L23.3857 18.8309C23.3903 18.8079 23.4042 18.7964 23.4276 18.7964H24.2536C24.2777 18.7964 24.2869 18.8081 24.2812 18.8314L23.6156 21.6106C23.6148 21.6138 23.613 21.6167 23.6104 21.6188C23.6078 21.6209 23.6045 21.622 23.6012 21.6221L22.4993 21.6215C22.4944 21.6215 22.4896 21.6199 22.4857 21.6169C22.4817 21.6139 22.4789 21.6097 22.4775 21.6048L21.9613 19.589C21.9537 19.5595 21.9462 19.5597 21.9389 19.5896L21.4532 21.6014C21.4519 21.6071 21.4486 21.6122 21.4439 21.6159C21.4392 21.6196 21.4334 21.6215 21.4273 21.6215L20.3209 21.6221C20.313 21.6221 20.3055 21.6194 20.2994 21.6145C20.2933 21.6096 20.2891 21.6027 20.2875 21.5951L19.6409 18.8274C19.6363 18.8067 19.6445 18.7964 19.6656 18.7964H20.5324C20.5561 18.7964 20.5703 18.8079 20.5749 18.8309L20.9618 20.784C20.9702 20.8266 20.9796 20.8267 20.9899 20.7846L21.4848 18.8355C21.4876 18.8243 21.4941 18.8144 21.5031 18.8074C21.5122 18.8003 21.5233 18.7964 21.5348 18.7964H22.4562C22.4792 18.7964 22.4934 18.8075 22.4988 18.8297L22.9787 20.807C22.9871 20.8426 22.995 20.8425 23.0023 20.8064Z" fill="#E50113"/>
<path d="M25.62 19.589L25.1124 21.6111C25.1111 21.6164 25.1081 21.6211 25.1038 21.6244C25.0995 21.6277 25.0943 21.6295 25.0889 21.6295H24.133C24.1111 21.6295 24.1038 21.6194 24.1111 21.599L25.0768 18.8337C25.0801 18.8238 25.0866 18.8153 25.0951 18.8092C25.1037 18.8031 25.1139 18.7998 25.1245 18.7998H26.1603C26.1677 18.7998 26.1749 18.8021 26.181 18.8064C26.1871 18.8107 26.1917 18.8169 26.1942 18.8239L27.1817 21.5956C27.183 21.5995 27.1835 21.6036 27.1829 21.6077C27.1824 21.6118 27.1808 21.6157 27.1785 21.6191C27.1761 21.6224 27.173 21.6252 27.1693 21.6271C27.1657 21.629 27.1616 21.63 27.1575 21.6301L26.2068 21.6295C26.1869 21.6295 26.1744 21.6201 26.1695 21.6013L25.6395 19.589C25.6388 19.587 25.6375 19.5852 25.6357 19.584C25.634 19.5827 25.6319 19.5821 25.6297 19.5821C25.6276 19.5821 25.6255 19.5827 25.6237 19.584C25.622 19.5852 25.6207 19.587 25.62 19.589Z" fill="#E50113"/>
<path d="M29.6947 21.1323L29.6959 18.8274C29.6959 18.8196 29.699 18.8122 29.7045 18.8067C29.71 18.8012 29.7174 18.7981 29.7252 18.7981H30.5293C30.5489 18.7981 30.5587 18.8079 30.5587 18.8274V21.5979C30.5587 21.6048 30.5559 21.6114 30.5511 21.6162C30.5462 21.6211 30.5397 21.6238 30.5328 21.6238L29.0079 21.6244C29.0041 21.6243 29.0004 21.623 28.9974 21.6206C28.9944 21.6182 28.9922 21.6149 28.9912 21.6111L28.3808 19.335C28.3486 19.2146 28.3325 19.2167 28.3325 19.3413L28.3331 21.5996C28.3331 21.6192 28.3233 21.629 28.3037 21.629L27.4985 21.6301C27.4908 21.6301 27.4835 21.6271 27.4781 21.6217C27.4728 21.6163 27.4697 21.609 27.4697 21.6014V18.813C27.4697 18.8112 27.4701 18.8094 27.4708 18.8078C27.4715 18.8061 27.4725 18.8046 27.4738 18.8033C27.475 18.802 27.4766 18.801 27.4782 18.8003C27.4799 18.7996 27.4817 18.7992 27.4835 18.7992H29.0217C29.033 18.7992 29.044 18.803 29.053 18.8098C29.0619 18.8167 29.0683 18.8263 29.0711 18.8372L29.6735 21.1352C29.6877 21.19 29.6947 21.189 29.6947 21.1323Z" fill="#E50113"/>
<path d="M14.217 20.7777C14.5347 20.7777 14.7923 20.5201 14.7923 20.2023C14.7923 19.8846 14.5347 19.627 14.217 19.627C13.8992 19.627 13.6416 19.8846 13.6416 20.2023C13.6416 20.5201 13.8992 20.7777 14.217 20.7777Z" fill="#E50113"/>
<path d="M11.1523 20.584H10.4557C10.4446 20.584 10.4355 20.593 10.4355 20.6041V21.7399C10.4355 21.751 10.4446 21.76 10.4557 21.76H11.1523C11.1634 21.76 11.1724 21.751 11.1724 21.7399V20.6041C11.1724 20.593 11.1634 20.584 11.1523 20.584Z" fill="#E50113"/>
<path d="M29.0211 23.9468C29.0213 24.0506 28.9973 24.1535 28.9504 24.2495C28.9035 24.3456 28.8347 24.4329 28.7478 24.5065C28.661 24.5801 28.5579 24.6385 28.4444 24.6785C28.3308 24.7184 28.2091 24.7391 28.0862 24.7393C27.9632 24.7395 27.8414 24.7193 27.7277 24.6797C27.6141 24.6402 27.5107 24.5821 27.4237 24.5088C27.3366 24.4355 27.2675 24.3484 27.2202 24.2526C27.173 24.1567 27.1486 24.0539 27.1484 23.95C27.1483 23.8462 27.1723 23.7433 27.2192 23.6472C27.2661 23.5512 27.3349 23.4639 27.4217 23.3903C27.5085 23.3167 27.6116 23.2582 27.7252 23.2183C27.8387 23.1784 27.9604 23.1577 28.0834 23.1575C28.2064 23.1573 28.3282 23.1775 28.4418 23.2171C28.5555 23.2566 28.6588 23.3147 28.7459 23.388C28.833 23.4613 28.9021 23.5483 28.9493 23.6442C28.9965 23.7401 29.0209 23.8429 29.0211 23.9468ZM28.0815 24.3685C28.1263 24.3692 28.1709 24.3588 28.2126 24.3378C28.2544 24.3167 28.2925 24.2856 28.3248 24.2461C28.3572 24.2065 28.3831 24.1594 28.401 24.1074C28.419 24.0553 28.4287 23.9994 28.4296 23.9428C28.4305 23.8862 28.4226 23.83 28.4062 23.7775C28.3899 23.7249 28.3655 23.677 28.3344 23.6365C28.3033 23.5959 28.2662 23.5636 28.2251 23.5413C28.184 23.519 28.1398 23.5071 28.095 23.5064C28.0502 23.5057 28.0056 23.5162 27.9638 23.5372C27.9221 23.5582 27.8839 23.5894 27.8516 23.6289C27.8193 23.6684 27.7934 23.7155 27.7754 23.7676C27.7574 23.8196 27.7477 23.8755 27.7468 23.9321C27.7459 23.9887 27.7539 24.0449 27.7702 24.0975C27.7866 24.15 27.811 24.1979 27.842 24.2385C27.8731 24.279 27.9102 24.3113 27.9513 24.3336C27.9924 24.356 28.0366 24.3678 28.0815 24.3685Z" fill="#004098"/>
<path d="M22.2517 24.8024V23.2671C22.2517 23.2468 22.2618 23.2367 22.2821 23.2367L22.8276 23.2361C22.8483 23.2361 22.8586 23.2466 22.8586 23.2677V23.9845C22.8586 24.0105 22.8717 24.0236 22.8977 24.0236L23.3007 24.0241C23.3068 24.0241 23.3099 24.0274 23.3099 24.0339L23.3093 24.3713C23.3093 24.3762 23.3073 24.3809 23.3039 24.3843C23.3004 24.3878 23.2958 24.3897 23.2909 24.3897H22.8885C22.8678 24.3893 22.8575 24.3995 22.8575 24.4202C22.8606 24.7447 22.8602 25.0647 22.8563 25.3801C22.8535 25.6761 22.5471 25.8658 22.2959 25.9393C21.7736 26.0918 21.2337 26.1005 20.6762 25.9652C20.4865 25.9192 20.2422 25.8054 20.1295 25.6416C19.9002 25.3082 20.1767 25.0254 20.4871 24.9001C21.0049 24.6909 21.6855 24.707 22.2155 24.8311C22.2396 24.8369 22.2517 24.8273 22.2517 24.8024ZM22.2511 25.3962C22.2508 25.3186 22.1651 25.2445 22.0128 25.1901C21.8605 25.1358 21.6541 25.1057 21.439 25.1065C21.3325 25.1068 21.2271 25.1148 21.1287 25.1298C21.0304 25.1449 20.9411 25.1667 20.8658 25.1942C20.7906 25.2216 20.731 25.254 20.6904 25.2897C20.6497 25.3253 20.6289 25.3634 20.629 25.4019C20.6293 25.4795 20.715 25.5536 20.8673 25.6079C21.0196 25.6622 21.226 25.6924 21.4411 25.6916C21.5476 25.6912 21.653 25.6833 21.7514 25.6682C21.8497 25.6532 21.9391 25.6313 22.0143 25.6039C22.0895 25.5765 22.1491 25.544 22.1897 25.5084C22.2304 25.4727 22.2512 25.4346 22.2511 25.3962Z" fill="#004098"/>
<path d="M24.998 24.4949V25.2093C24.998 25.212 24.9985 25.2146 24.9996 25.2171C25.0007 25.2195 25.0022 25.2217 25.0041 25.2236C25.0061 25.2254 25.0084 25.2268 25.0109 25.2277C25.0134 25.2286 25.016 25.229 25.0187 25.2289L25.1544 25.2225C25.157 25.2224 25.1597 25.2228 25.1622 25.2237C25.1647 25.2246 25.167 25.226 25.1689 25.2278C25.1709 25.2297 25.1724 25.2319 25.1735 25.2343C25.1745 25.2368 25.1751 25.2394 25.175 25.2421L25.1739 25.5484C25.1739 25.5536 25.1718 25.5586 25.1682 25.5623C25.1645 25.5659 25.1595 25.568 25.1544 25.568H23.6358C23.6306 25.568 23.6256 25.5659 23.6219 25.5623C23.6183 25.5586 23.6162 25.5536 23.6162 25.5484V25.2438C23.6162 25.2412 23.6167 25.2386 23.6178 25.2362C23.6188 25.2338 23.6203 25.2316 23.6221 25.2298C23.624 25.228 23.6262 25.2265 23.6287 25.2256C23.6311 25.2246 23.6337 25.2242 23.6363 25.2243L23.7875 25.2266C23.7901 25.2266 23.7927 25.2262 23.7952 25.2252C23.7976 25.2243 23.7998 25.2229 23.8017 25.221C23.8036 25.2192 23.8051 25.217 23.8061 25.2146C23.8071 25.2122 23.8076 25.2096 23.8076 25.207V23.6361C23.8076 23.6335 23.8071 23.631 23.8061 23.6286C23.8051 23.6263 23.8037 23.6241 23.8019 23.6223C23.8001 23.6205 23.7979 23.619 23.7956 23.6181C23.7932 23.6171 23.7906 23.6166 23.7881 23.6166H23.6358C23.6306 23.6166 23.6256 23.6145 23.6219 23.6108C23.6183 23.6072 23.6162 23.6022 23.6162 23.597L23.6168 23.2907C23.6168 23.2855 23.6188 23.2805 23.6225 23.2768C23.6262 23.2732 23.6311 23.2711 23.6363 23.2711H25.1549C25.1601 23.2711 25.1651 23.2732 25.1688 23.2768C25.1724 23.2805 25.1745 23.2855 25.1745 23.2907V23.5964C25.1745 23.6016 25.1724 23.6066 25.1688 23.6103C25.1651 23.6139 25.1601 23.616 25.1549 23.616L25.0176 23.6154C25.015 23.6154 25.0124 23.6159 25.0101 23.6169C25.0077 23.6179 25.0056 23.6193 25.0037 23.6211C25.0019 23.623 25.0005 23.6251 24.9995 23.6275C24.9985 23.6299 24.998 23.6324 24.998 23.635V24.0908C24.998 24.0933 24.9985 24.0959 24.9995 24.0982C25.0005 24.1006 25.0019 24.1028 25.0037 24.1046C25.0056 24.1064 25.0077 24.1078 25.0101 24.1088C25.0124 24.1098 25.015 24.1103 25.0176 24.1103L25.3348 24.1126C25.34 24.1126 25.345 24.1106 25.3487 24.1069C25.3523 24.1032 25.3544 24.0983 25.3544 24.0931L25.3555 23.259C25.3555 23.2539 25.3576 23.2489 25.3613 23.2452C25.3649 23.2416 25.3699 23.2395 25.3751 23.2395L25.8493 23.2401C25.8545 23.2401 25.8594 23.2421 25.8631 23.2458C25.8668 23.2495 25.8688 23.2544 25.8688 23.2596V25.9468C25.8688 25.952 25.8668 25.9569 25.8631 25.9606C25.8594 25.9643 25.8545 25.9663 25.8493 25.9663H25.3745C25.3693 25.9663 25.3643 25.9643 25.3607 25.9606C25.357 25.9569 25.355 25.952 25.355 25.9468V24.496C25.355 24.4934 25.3545 24.4909 25.3535 24.4885C25.3525 24.4861 25.3511 24.484 25.3492 24.4822C25.3474 24.4804 25.3453 24.4789 25.3429 24.4779C25.3405 24.477 25.338 24.4765 25.3354 24.4765L25.0176 24.4753C25.015 24.4753 25.0124 24.4758 25.0101 24.4768C25.0077 24.4778 25.0056 24.4792 25.0037 24.481C25.0019 24.4828 25.0005 24.485 24.9995 24.4874C24.9985 24.4897 24.998 24.4923 24.998 24.4949ZM24.4939 23.6344C24.4939 23.6297 24.492 23.6251 24.4887 23.6218C24.4854 23.6184 24.4808 23.6166 24.4761 23.6166H24.3324C24.3277 23.6166 24.3231 23.6184 24.3198 23.6218C24.3165 23.6251 24.3146 23.6297 24.3146 23.6344V25.207C24.3146 25.2117 24.3165 25.2163 24.3198 25.2196C24.3231 25.223 24.3277 25.2248 24.3324 25.2248H24.4761C24.4808 25.2248 24.4854 25.223 24.4887 25.2196C24.492 25.2163 24.4939 25.2117 24.4939 25.207V23.6344Z" fill="#004098"/>
<path d="M26.5593 23.2395H26.0477C26.0375 23.2395 26.0293 23.2477 26.0293 23.2579V25.9479C26.0293 25.9581 26.0375 25.9663 26.0477 25.9663H26.5593C26.5694 25.9663 26.5776 25.9581 26.5776 25.9479V23.2579C26.5776 23.2477 26.5694 23.2395 26.5593 23.2395Z" fill="#004098"/>
<path d="M28.1817 25.5681C28.1817 25.5737 28.184 25.5791 28.188 25.5831C28.1919 25.5871 28.1974 25.5893 28.203 25.5893L29.5049 25.5905C29.5271 25.5905 29.5382 25.5794 29.5382 25.5572V23.2678C29.5382 23.2486 29.5478 23.239 29.567 23.239H30.113C30.1208 23.239 30.1283 23.2421 30.1338 23.2476C30.1393 23.2531 30.1423 23.2606 30.1423 23.2683V25.9262C30.1423 25.9503 30.1303 25.9624 30.1061 25.9624H27.6937C27.6561 25.9624 27.62 25.9474 27.5933 25.9208C27.5667 25.8942 27.5518 25.8581 27.5518 25.8204L27.5523 25.0887C27.5523 25.0649 27.5642 25.0531 27.588 25.0531L28.1432 25.0525C28.1689 25.0525 28.1817 25.0655 28.1817 25.0916V25.5681Z" fill="#004098"/>
<path d="M21.8097 24.272L22.0856 24.2708C22.1009 24.2708 22.1085 24.2785 22.1085 24.2938L22.108 24.576C22.108 24.5948 22.0986 24.6042 22.0798 24.6042H19.8657C19.8614 24.6042 19.8573 24.6025 19.8543 24.5995C19.8513 24.5965 19.8496 24.5924 19.8496 24.5881V24.2886C19.8496 24.2842 19.8514 24.28 19.8547 24.2769C19.8579 24.2737 19.8623 24.272 19.8669 24.272L20.3422 24.2714C20.3698 24.2714 20.3836 24.2576 20.3836 24.23V23.8869C20.3836 23.8394 20.4075 23.8156 20.4554 23.8156L20.8612 23.8162C20.9222 23.8162 20.9488 23.8462 20.9411 23.9064C20.9323 23.9727 20.9281 24.0702 20.9285 24.199C20.9289 24.2476 20.9532 24.272 21.0015 24.272H21.2222C21.3 24.272 21.3393 24.2331 21.34 24.1553L21.3435 23.6253C21.3439 23.6073 21.3351 23.5983 21.3171 23.5983H20.0335C20.0194 23.5983 20.0123 23.5914 20.0123 23.5776V23.3012C20.0123 23.2854 20.0199 23.2776 20.0353 23.2776H21.8097C21.8471 23.2776 21.883 23.2923 21.9096 23.3185C21.9363 23.3448 21.9516 23.3804 21.9522 23.4178C21.9549 23.588 21.9541 23.7549 21.9499 23.9185C21.9468 24.0415 21.8957 24.148 21.7964 24.2381C21.7711 24.2611 21.7755 24.2724 21.8097 24.272Z" fill="#004098"/>
<path d="M17.507 23.7098H16.5948C16.5876 23.7098 16.5839 23.7062 16.5839 23.6989L16.5828 23.3557C16.5828 23.3416 16.5899 23.3345 16.604 23.3345H19.2458C19.2561 23.3345 19.2613 23.3396 19.2613 23.35L19.2602 23.6949C19.2602 23.7037 19.2556 23.7081 19.2464 23.7081L18.3422 23.7069C18.338 23.7069 18.3339 23.708 18.3302 23.7099C18.3265 23.7119 18.3233 23.7147 18.3209 23.7181C18.3186 23.7216 18.3171 23.7256 18.3166 23.7297C18.3161 23.7339 18.3166 23.7381 18.3181 23.742C18.4763 24.1612 18.8126 24.3837 19.3268 24.4093C19.3322 24.4097 19.3349 24.4126 19.3349 24.418L19.3355 24.7789C19.3355 24.7916 19.3291 24.7981 19.3165 24.7985C18.7478 24.8169 18.2924 24.6373 17.9502 24.2599C17.9349 24.243 17.9195 24.2432 17.9042 24.2605C17.5369 24.668 17.0438 24.8031 16.5109 24.7996C16.5036 24.7996 16.5 24.796 16.5 24.7887L16.5011 24.418C16.5011 24.4091 16.5056 24.4047 16.5144 24.4047C16.961 24.403 17.3823 24.1811 17.5358 23.75C17.5454 23.7232 17.5358 23.7098 17.507 23.7098Z" fill="#004098"/>
<path d="M31.5593 23.6857C31.5531 23.6857 31.5501 23.6888 31.5501 23.6949L31.5472 23.9593C31.5468 23.9724 31.5531 23.9789 31.5662 23.9789H33.5147C33.5228 23.9789 33.5268 23.9829 33.5268 23.991V24.2979C33.5268 24.3105 33.5205 24.3169 33.5078 24.3169H31.5639C31.5618 24.3169 31.5598 24.3173 31.5579 24.318C31.556 24.3188 31.5543 24.32 31.5529 24.3214C31.5514 24.3228 31.5503 24.3246 31.5495 24.3264C31.5487 24.3283 31.5483 24.3303 31.5483 24.3324L31.5478 24.6336C31.5478 24.6383 31.5496 24.6428 31.553 24.6462C31.5563 24.6495 31.5609 24.6514 31.5656 24.6514L33.5354 24.6508C33.5434 24.6508 33.5475 24.655 33.5475 24.6635L33.548 24.979C33.548 24.989 33.5429 24.994 33.5325 24.994H31.0753C31.0364 24.994 30.9991 24.9785 30.9716 24.951C30.9442 24.9235 30.9287 24.8863 30.9287 24.8474L30.9293 23.3685C30.9293 23.3625 30.9316 23.3568 30.9359 23.3526C30.9401 23.3484 30.9458 23.346 30.9517 23.346L33.5274 23.3455C33.5411 23.3455 33.548 23.3525 33.548 23.3667L33.5475 23.6708C33.5475 23.6808 33.5427 23.6857 33.5331 23.6857H31.5593Z" fill="#004098"/>
<path d="M17.6113 25.4784V24.8686C17.6113 24.8635 17.6133 24.8587 17.6168 24.8552C17.6204 24.8516 17.6252 24.8496 17.6303 24.8496H18.2108C18.2158 24.8496 18.2207 24.8516 18.2242 24.8552C18.2278 24.8587 18.2298 24.8635 18.2298 24.8686L18.2292 25.4779C18.2292 25.4829 18.2312 25.4877 18.2347 25.4913C18.2383 25.4948 18.2431 25.4968 18.2482 25.4968H19.3995C19.4045 25.4968 19.4093 25.4988 19.4129 25.5024C19.4164 25.5059 19.4184 25.5108 19.4184 25.5158L19.4173 25.8601C19.4173 25.8651 19.4153 25.87 19.4117 25.8735C19.4082 25.8771 19.4034 25.8791 19.3983 25.8791H16.4508C16.4458 25.8791 16.4409 25.8771 16.4374 25.8735C16.4338 25.87 16.4318 25.8651 16.4318 25.8601L16.4307 25.5164C16.4307 25.5113 16.4327 25.5065 16.4362 25.503C16.4398 25.4994 16.4446 25.4974 16.4496 25.4974H17.5923C17.5974 25.4974 17.6022 25.4954 17.6057 25.4918C17.6093 25.4883 17.6113 25.4835 17.6113 25.4784Z" fill="#004098"/>
<path d="M33.7343 25.4849H30.7799C30.7688 25.4849 30.7598 25.4939 30.7598 25.505V25.8476C30.7598 25.8587 30.7688 25.8677 30.7799 25.8677H33.7343C33.7454 25.8677 33.7544 25.8587 33.7544 25.8476V25.505C33.7544 25.4939 33.7454 25.4849 33.7343 25.4849Z" fill="#004098"/>
<circle cx="20" cy="20" r="19.5" stroke="black" stroke-opacity="0.05"/>
</svg>
