<svg width="40" height="40" viewBox="0 0 40 40" fill="none" xmlns="http://www.w3.org/2000/svg">
<circle cx="20" cy="20" r="20" fill="#282828"/>
<path d="M31.8843 22.1809C29.8468 31.4985 18.6274 35.3425 11.6132 28.5695C8.70108 25.7578 7.54925 22.1936 8.15776 17.8768C8.96549 13.7368 11.2691 10.7934 15.0687 9.04646C19.0784 7.20569 23.7726 7.85537 27.3041 10.5083C30.9262 13.2261 32.4529 17.117 31.8843 22.1809ZM30.9335 19.9828C30.9335 17.0938 29.7817 14.3231 27.7317 12.2803C25.6817 10.2374 22.9012 9.08978 20.002 9.08978C17.1028 9.08978 14.3223 10.2374 12.2723 12.2803C10.2222 14.3231 9.07053 17.0938 9.07053 19.9828C9.07053 22.8719 10.2222 25.6425 12.2723 27.6854C14.3223 29.7282 17.1028 30.8759 20.002 30.8759C22.9012 30.8759 25.6817 29.7282 27.7317 27.6854C29.7817 25.6425 30.9335 22.8719 30.9335 19.9828Z" fill="white"/>
<path d="M30.9332 19.983C30.9332 22.872 29.7815 25.6427 27.7315 27.6855C25.6814 29.7284 22.901 30.876 20.0018 30.876C17.1026 30.876 14.3221 29.7284 12.2721 27.6855C10.222 25.6427 9.07031 22.872 9.07031 19.983C9.07031 17.0939 10.222 14.3233 12.2721 12.2804C14.3221 10.2376 17.1026 9.0899 20.0018 9.0899C22.901 9.0899 25.6814 10.2376 27.7315 12.2804C29.7815 14.3233 30.9332 17.0939 30.9332 19.983ZM30.2269 19.9884C30.2269 18.651 29.9626 17.3268 29.449 16.0912C28.9354 14.8556 28.1826 13.733 27.2336 12.7873C26.2847 11.8417 25.158 11.0915 23.9181 10.5798C22.6782 10.068 21.3493 9.80456 20.0072 9.80456C17.2968 9.80456 14.6973 10.8775 12.7808 12.7873C10.8642 14.6972 9.78749 17.2875 9.78749 19.9884C9.78749 22.6893 10.8642 25.2796 12.7808 27.1894C14.6973 29.0993 17.2968 30.1722 20.0072 30.1722C21.3493 30.1722 22.6782 29.9088 23.9181 29.397C25.158 28.8852 26.2847 28.1351 27.2336 27.1894C28.1826 26.2438 28.9354 25.1211 29.449 23.8856C29.9626 22.65 30.2269 21.3257 30.2269 19.9884Z" fill="#322733"/>
<path d="M30.2275 19.988C30.2275 21.3254 29.9632 22.6496 29.4496 23.8852C28.936 25.1208 28.1832 26.2434 27.2342 27.1891C26.2853 28.1347 25.1586 28.8849 23.9187 29.3966C22.6788 29.9084 21.3499 30.1718 20.0078 30.1718C17.2974 30.1718 14.6979 29.0989 12.7814 27.1891C10.8648 25.2792 9.78809 22.6889 9.78809 19.988C9.78809 17.2871 10.8648 14.6968 12.7814 12.787C14.6979 10.8771 17.2974 9.8042 20.0078 9.8042C21.3499 9.8042 22.6788 10.0676 23.9187 10.5794C25.1586 11.0912 26.2853 11.8413 27.2342 12.787C28.1832 13.7326 28.936 14.8553 29.4496 16.0908C29.9632 17.3264 30.2275 18.6507 30.2275 19.988ZM16.1992 16.5393C16.1557 16.6187 16.1775 16.6692 16.2644 16.6909C16.3477 16.7089 16.3966 16.6818 16.4111 16.6097C16.4256 16.523 16.4672 16.4526 16.536 16.3985C18.7564 14.6299 20.9785 14.5523 23.2025 16.1657C23.4415 16.339 23.4868 16.2992 23.3383 16.0466L20.0784 10.508C20.0555 10.4687 20.0226 10.4361 19.983 10.4134C19.9435 10.3907 19.8986 10.3787 19.853 10.3787C19.8073 10.3787 19.7625 10.3907 19.7229 10.4134C19.6833 10.4361 19.6504 10.4687 19.6275 10.508L16.1992 16.5393ZM18.1986 24.8931C18.6912 24.8751 18.7111 24.7704 18.2583 24.5791C15.578 23.4494 14.5964 21.3307 15.3136 18.223C15.3462 18.0967 15.3299 18.0913 15.2647 18.2068L11.6299 24.5737C11.5031 24.8011 11.5702 24.9184 11.8309 24.9256C13.9499 24.9798 16.0724 24.9689 18.1986 24.8931ZM24.9248 19.0189C25.1457 21.7115 24.1605 23.5414 21.9692 24.5087C21.4911 24.7217 21.5128 24.8282 22.0344 24.8282L28.1847 24.8228C28.2189 24.8226 28.2525 24.8135 28.2821 24.7963C28.3117 24.7791 28.3363 24.7545 28.3533 24.7249C28.3704 24.6953 28.3793 24.6618 28.3793 24.6276C28.3793 24.5935 28.3702 24.56 28.3531 24.5304L25.0606 18.9756C24.9556 18.7987 24.9103 18.8132 24.9248 19.0189Z" fill="white"/>
<path d="M16.1995 16.5394L19.6278 10.5081C19.6507 10.4688 19.6836 10.4362 19.7232 10.4135C19.7627 10.3908 19.8076 10.3788 19.8532 10.3788C19.8989 10.3788 19.9438 10.3908 19.9833 10.4135C20.0229 10.4362 20.0558 10.4688 20.0787 10.5081L23.3386 16.0467C23.4871 16.2994 23.4418 16.3391 23.2028 16.1658C20.9788 14.5524 18.7567 14.63 16.5363 16.3986C16.4675 16.4528 16.4258 16.5231 16.4114 16.6098C16.3969 16.682 16.348 16.709 16.2647 16.691C16.1777 16.6693 16.156 16.6188 16.1995 16.5394Z" fill="#322733"/>
<path d="M18.1982 24.8931C16.0721 24.9689 13.9495 24.9797 11.8306 24.9255C11.5698 24.9183 11.5028 24.801 11.6296 24.5736L15.2644 18.2067C15.3295 18.0912 15.3458 18.0966 15.3132 18.223C14.5961 21.3306 15.5777 23.4493 18.258 24.579C18.7108 24.7703 18.6908 24.875 18.1982 24.8931Z" fill="#382C34"/>
<path d="M24.9246 19.0193C24.9101 18.8135 24.9554 18.7991 25.0604 18.976L28.3529 24.5308C28.37 24.5603 28.3791 24.5939 28.3791 24.628C28.3792 24.6621 28.3702 24.6957 28.3531 24.7253C28.3361 24.7549 28.3115 24.7795 28.2819 24.7967C28.2523 24.8138 28.2187 24.823 28.1845 24.8231L22.0342 24.8285C21.5126 24.8285 21.4909 24.7221 21.969 24.5091C24.1603 23.5418 25.1455 21.7119 24.9246 19.0193Z" fill="#382C34"/>
<circle cx="20" cy="20" r="19.5" stroke="black" stroke-opacity="0.05"/>
</svg>
