<svg width="40" height="40" viewBox="0 0 40 40" fill="none" xmlns="http://www.w3.org/2000/svg">
<circle cx="20" cy="20" r="20" fill="#477ABD"/>
<path d="M28.5175 13.2943H11.4805V16.4961H28.5175V13.2943Z" fill="white"/>
<path d="M28.5175 23.856H11.4805V27.0588H28.5175V23.856Z" fill="white"/>
<path d="M5.03614 21.806C5.52147 21.9175 5.94277 21.964 6.43223 21.964C6.93408 21.964 8.09473 21.8545 8.09473 20.8231C8.09473 20.0001 7.37604 19.8587 6.85457 19.7585C6.51277 19.6935 6.24326 19.6398 6.24326 19.4271C6.24326 19.1401 6.66973 19.1401 6.87935 19.1401C7.20875 19.1401 7.55055 19.1948 7.86963 19.3001V18.502C7.50305 18.4307 7.10756 18.3894 6.75647 18.3894C5.59065 18.3884 5 18.7591 5 19.487C5 20.3171 5.71353 20.4606 6.23397 20.5691C6.57989 20.6413 6.85147 20.6961 6.85147 20.916C6.85147 21.1029 6.6119 21.2123 6.18957 21.2123C5.80131 21.2123 5.38516 21.1339 5.03511 20.9996V21.806H5.03614Z" fill="white"/>
<path d="M21.3486 21.806C21.836 21.9175 22.2553 21.964 22.7468 21.964C23.2466 21.964 24.4083 21.8545 24.4083 20.8231C24.4083 20.0001 23.6906 19.8587 23.1671 19.7585C22.8253 19.6935 22.5558 19.6398 22.5558 19.4271C22.5558 19.1401 22.9853 19.1401 23.1908 19.1401C23.5192 19.1401 23.861 19.1948 24.1801 19.3001V18.502C23.8135 18.4307 23.4201 18.3894 23.069 18.3894C21.9042 18.3894 21.3125 18.7601 21.3125 19.488C21.3125 20.3182 22.025 20.4617 22.5465 20.5701C22.8914 20.6424 23.164 20.6971 23.164 20.917C23.164 21.1039 22.9234 21.2133 22.5031 21.2133C22.1149 21.2133 21.6966 21.1349 21.3466 21.0007V21.806H21.3486Z" fill="white"/>
<path d="M12.1247 18.4504H10.9134V20.5123C10.9134 20.8437 10.8535 21.1504 10.4281 21.1504C10.109 21.1504 9.95513 20.9408 9.95513 20.5071V18.4504H8.71289V20.5588C8.71289 21.7812 9.77857 21.964 10.4136 21.964C11.5815 21.964 12.1247 21.4953 12.1247 20.4865V18.4504Z" fill="white"/>
<path d="M14.9206 21.9051H16.5222V18.4504H15.471V20.8189L14.5458 18.4504H12.9102V21.9051H13.9603V19.4602L14.9206 21.9051Z" fill="white"/>
<path d="M33.3992 21.9051H34.9997V18.4504H33.9495V20.8189L33.0243 18.4504H31.3887V21.9051H32.4388V19.4602L33.3992 21.9051Z" fill="white"/>
<path d="M20.4731 18.5093C20.1375 18.4319 19.8329 18.3885 19.2102 18.3885C18.2623 18.3885 17.1553 18.8428 17.1553 20.1242C17.1553 21.4819 18.2168 21.9641 19.2102 21.9641C19.7533 21.9641 20.1726 21.9114 20.6156 21.7834C20.6156 21.7566 20.6156 20.2026 20.6156 20.2026H19.5644V21.1216L19.5654 21.1339L19.5541 21.137C19.5541 21.137 19.5293 21.1453 19.5293 21.1463C19.5293 21.1463 19.5293 21.1463 19.5303 21.1463C19.4405 21.1814 19.3238 21.1814 19.2215 21.1814C18.7176 21.1814 18.4295 20.8273 18.4295 20.2109C18.4295 19.5583 18.8663 19.1691 19.5995 19.1691C19.9206 19.1691 20.2428 19.2351 20.4731 19.3456V18.5093Z" fill="white"/>
<path d="M28.5307 21.9051V18.4504H27.2885V19.6791H26.2744V18.4504H25.0322V21.9051H26.2744V20.6248H27.2885V21.9051H28.5307Z" fill="white"/>
<path d="M30.5928 18.4504H29.3506V21.9051H30.5928V18.4504Z" fill="white"/>
<circle cx="20" cy="20" r="19.5" stroke="black" stroke-opacity="0.05"/>
</svg>
