<svg width="40" height="40" viewBox="0 0 40 40" fill="none" xmlns="http://www.w3.org/2000/svg">
<circle cx="20" cy="20" r="20" fill="#E60012"/>
<path d="M30.2208 23.1461C28.631 23.1461 27.3437 21.7368 27.3437 19.9977C27.3437 18.2593 28.631 16.8493 30.2208 16.8493C31.1429 16.8493 32.0532 17.2699 32.5958 17.9992L34.9988 15.962C33.834 14.6822 32.1254 13.8739 30.2208 13.8739C27.1651 13.8739 24.6134 15.9515 24.0036 18.7203H20.5111V21.3909H22.9247V22.4299C22.3448 22.9408 21.4507 23.1467 20.6711 23.1467C19.0825 23.1467 17.7946 21.7374 17.7946 19.9983C17.7946 18.2599 19.0676 16.896 20.7258 16.8499C21.6971 16.8232 22.5937 17.0198 23.3304 17.4423C23.6944 16.5164 24.2463 15.6802 24.9575 14.9877C23.7236 14.2591 22.1525 13.8739 20.6717 13.8739C17.4212 13.8739 14.7432 16.224 14.3637 19.2573C13.6033 18.9381 12.6563 18.7122 11.5569 18.5305C9.7394 18.2132 9.26776 17.9898 9.26776 17.4491V17.4149C9.26776 16.9924 9.72135 16.6851 10.6005 16.6595C11.6104 16.6278 12.7329 16.8667 13.7981 17.4062C14.1584 16.5239 14.719 15.6889 15.4183 14.9939C14.1266 14.2454 12.6153 13.8285 10.6939 13.8876C7.54734 13.984 5.49404 15.5066 5.49404 17.8666C5.49404 20.2261 7.77258 20.9447 10.5632 21.4363C12.3434 21.7542 12.7018 22.0044 12.7018 22.5015C12.7018 22.9203 12.2158 23.1523 11.2812 23.2245C9.77175 23.3421 8.14778 22.9669 7.02406 22.102L5 24.3457C6.61215 25.5989 8.82225 26.1912 11.1456 26.1203C13.3028 26.0543 14.8048 25.2573 15.9005 24.0409C17.0653 25.3158 18.7708 26.1228 20.6729 26.1228C22.5756 26.1228 24.2824 25.3158 25.4472 24.0384C26.6119 25.3152 28.3187 26.1228 30.2226 26.1228C32.1266 26.1228 33.8352 25.3145 35 24.0353L32.5995 22.0075C32.0059 22.6844 31.1404 23.1461 30.2208 23.1461Z" fill="white"/>
<circle cx="20" cy="20" r="19.5" stroke="black" stroke-opacity="0.05"/>
</svg>
