<svg width="40" height="40" viewBox="0 0 40 40" fill="none" xmlns="http://www.w3.org/2000/svg">
<circle cx="20" cy="20" r="20" fill="#1C67B2"/>
<g clip-path="url(#clip0_17713_28122)">
<path d="M18.5636 13.6624C17.9569 14.2527 17.3501 14.8431 16.7269 15.4253C16.4236 15.7122 16.2924 16.0894 16.317 16.5076C16.317 16.565 16.3006 16.5732 16.2596 16.5322C15.8742 16.1304 15.4888 15.7204 15.087 15.3105C14.7591 14.9743 14.5377 14.6217 14.4311 14.1461C14.2835 13.482 14.4803 12.8834 15.0378 12.3504C16.4564 10.9811 17.7929 9.6856 19.0392 8.46387C19.2278 8.28348 19.4082 8.11129 19.6624 8.03749C20.3593 7.8325 20.9579 7.9883 21.4417 8.49667C21.909 8.98044 22.36 9.45601 22.811 9.93158C22.852 9.97258 22.8438 9.98898 22.7864 9.98898C22.7536 9.98898 22.729 9.98898 22.6962 9.98078C22.4912 9.96438 22.1222 10.235 21.9664 10.3744C21.3351 10.9729 20.7037 11.5797 20.0641 12.2028C20.0313 12.2356 20.0313 12.293 20.0641 12.3258L20.5807 12.8588C20.5807 12.8588 20.6381 12.8834 20.6627 12.8588C21.0973 12.4488 21.5811 11.9815 22.114 11.4485C22.237 11.3255 22.3682 11.2435 22.5076 11.1861C23.303 10.8745 23.9671 11.1287 24.5083 11.7109C24.9347 12.1619 25.3528 12.5964 25.771 13.031C25.7956 13.0556 25.7874 13.0638 25.7546 13.072C25.4512 13.1048 25.1888 13.2278 24.9675 13.441C23.7293 14.6217 22.196 16.1058 20.3593 17.8933C20.1625 18.0819 19.9493 18.2869 19.7116 18.5083C19.3918 18.7953 19.2442 19.1478 19.2688 19.5578C19.2688 19.6562 19.2442 19.6644 19.1786 19.5988C18.8588 19.2626 18.5062 18.9019 18.1373 18.5247C17.8913 18.2705 17.7109 18.0491 17.6043 17.8441C17.3009 17.2866 17.2681 16.6388 17.5469 16.0566C17.6371 15.8598 17.7929 15.663 18.0143 15.4581C18.416 15.0809 18.8096 14.7037 19.195 14.3183C19.2114 14.3019 19.2114 14.2691 19.195 14.2445L18.6538 13.6952C18.6538 13.6952 18.5964 13.6624 18.5636 13.6952V13.6624Z" fill="white"/>
<path d="M14.308 20.8123L13.7422 21.3535C13.7422 21.3535 13.7176 21.4109 13.7422 21.4355C14.3572 22.0587 14.9558 22.6736 15.5133 23.2722C15.8085 23.5838 16.1775 23.715 16.6039 23.6986C16.6613 23.6986 16.6613 23.715 16.6285 23.7478C16.2431 24.0922 15.8741 24.4447 15.5215 24.7973C15.2263 25.0925 14.964 25.2975 14.7262 25.4041C14.1112 25.6911 13.3651 25.6747 12.8075 25.2811C12.7173 25.2237 12.5205 25.0269 12.2007 24.6989C10.8806 23.3378 9.60967 22.0259 8.37155 20.755C8.32235 20.7058 8.28135 20.632 8.24035 20.5336C7.90417 19.7628 8.01077 19.1068 8.57653 18.5657C9.05211 18.1065 9.53588 17.6473 10.0196 17.18C10.0524 17.1472 10.0688 17.1554 10.0688 17.1964C10.077 17.4587 10.1918 17.7047 10.3968 17.9261C11.0036 18.5821 11.6514 19.2544 12.3319 19.9432C12.3483 19.9596 12.3647 19.9596 12.3811 19.9432L12.9551 19.402C12.9551 19.402 12.9797 19.3364 12.9551 19.3118C12.4303 18.7789 11.9301 18.2705 11.4628 17.7703C11.3316 17.6309 11.2414 17.4505 11.1922 17.2128C11.0118 16.3846 11.3562 15.868 11.9711 15.2941C12.3729 14.9169 12.7583 14.5479 13.1273 14.1871C13.1273 14.1871 13.1437 14.1871 13.1519 14.1871C13.1519 14.1871 13.1519 14.1871 13.1519 14.2035C13.1765 14.5069 13.2913 14.7693 13.5126 14.9989C15.1853 16.7536 16.8581 18.4263 18.498 20.1728C18.8669 20.5664 19.1703 20.7386 19.6869 20.6976C19.7525 20.6976 19.7607 20.714 19.7115 20.755C19.3343 21.1075 18.9653 21.4601 18.5963 21.8291C18.3012 22.1243 18.0306 22.3293 17.7928 22.4277C17.227 22.6818 16.6121 22.69 16.0545 22.3949C15.8987 22.3129 15.7183 22.1571 15.4969 21.9357C15.128 21.5585 14.759 21.1731 14.39 20.7877C14.3654 20.7631 14.3408 20.7631 14.308 20.7877V20.8123Z" fill="white"/>
<path d="M26.3369 18.582C26.3369 18.582 26.3615 18.5328 26.3369 18.5082C25.8449 18.0245 25.3694 17.5243 24.8938 17.0323C24.5822 16.7043 24.3854 16.5076 24.3116 16.4584C24.0738 16.2944 23.7951 16.2288 23.4835 16.2534C23.4179 16.2534 23.4097 16.237 23.4589 16.196C23.7623 15.9172 24.0902 15.5974 24.4592 15.2366C24.8118 14.884 25.0906 14.6627 25.312 14.5561C25.9023 14.2691 26.6157 14.2445 27.1733 14.5889C27.3126 14.6791 27.4848 14.8184 27.6734 15.0234C29.0345 16.4256 30.3875 17.8277 31.7404 19.2134C31.806 19.279 31.847 19.3528 31.8798 19.4266C32.1832 20.1973 32.0356 20.8615 31.4534 21.4273C30.986 21.87 30.5269 22.321 30.0595 22.7556C30.0349 22.7802 30.0185 22.772 30.0185 22.7392C30.0021 22.4604 29.8955 22.2144 29.6905 21.993C29.0509 21.3125 28.4032 20.6319 27.7472 19.9677C27.739 19.9595 27.7144 19.9514 27.7062 19.9677L27.1323 20.5171C27.1323 20.5171 27.1077 20.5745 27.1323 20.5991C27.5832 21.0747 28.0342 21.5339 28.477 21.9766C28.6492 22.1488 28.764 22.321 28.8214 22.4768C29.1165 23.2804 28.846 23.9199 28.2638 24.4611C27.821 24.8793 27.3864 25.2892 26.9683 25.6992C26.9355 25.732 26.9273 25.7238 26.9273 25.6828C26.9355 25.3876 26.7141 25.0515 26.5255 24.8547C25.148 23.4279 23.7131 21.9438 22.2207 20.4023C21.942 20.1153 21.6714 19.8366 21.4172 19.5742C21.1548 19.3036 20.8186 19.1806 20.4168 19.1888C20.3185 19.1888 20.3103 19.1642 20.3841 19.1068C20.4168 19.0822 20.4578 19.0494 20.4906 19.0248C20.8186 18.7214 21.1056 18.4426 21.368 18.1803C21.7124 17.8277 21.9994 17.6063 22.2289 17.4997C23.0243 17.1225 23.8934 17.2455 24.5002 17.8851C24.9102 18.3196 25.312 18.7378 25.7055 19.1232C25.7219 19.1396 25.7465 19.1396 25.7547 19.1232L26.3369 18.5738V18.582Z" fill="white"/>
<path d="M20.8759 25.7403L21.4171 26.2732C21.4171 26.2732 21.4827 26.306 21.5155 26.2732C22.1387 25.6583 22.7536 25.0679 23.3768 24.4857C23.6638 24.2152 23.7786 23.8298 23.7622 23.4526C23.7622 23.387 23.7786 23.3788 23.8278 23.428C24.1475 23.7724 24.4673 24.1086 24.8117 24.4529C25.1643 24.8055 25.3857 25.1007 25.4923 25.3303C25.8448 26.1338 25.7219 26.9456 25.0987 27.536C23.8852 28.7085 22.483 30.0614 20.9005 31.6111C20.4496 32.0539 19.6952 32.0949 19.1704 31.8407C18.9327 31.7259 18.6457 31.4963 18.3259 31.1438C17.9487 30.7256 17.5879 30.3566 17.2599 30.0368C17.2354 30.0122 17.2436 30.004 17.2763 29.9958C17.5633 29.963 17.8257 29.84 18.0471 29.6268C18.7441 28.9709 19.4082 28.3313 20.0478 27.7082C20.056 27.7 20.056 27.6754 20.0478 27.6672L19.4738 27.085C19.4738 27.085 19.4328 27.0686 19.4164 27.085C18.9245 27.5606 18.4243 28.0443 17.9159 28.5445C17.8175 28.6429 17.7027 28.7167 17.5715 28.7659C16.8336 29.0529 16.1776 28.8971 15.6118 28.2985C15.1609 27.8311 14.7263 27.372 14.2917 26.921C14.2589 26.8882 14.2671 26.88 14.3081 26.88C14.6197 26.9046 15.0133 26.6176 15.2101 26.4208C17.014 24.6661 18.7359 23.0016 20.3676 21.4355C20.6955 21.1239 20.8185 20.8042 20.8103 20.3696C20.8103 20.304 20.8267 20.2958 20.8759 20.345C21.1465 20.6402 21.4909 21.0009 21.9173 21.4273C22.2207 21.7389 22.4256 22.0095 22.5322 22.2391C22.7864 22.8294 22.7946 23.4444 22.4994 23.9938C22.4092 24.1578 22.2535 24.3463 22.0239 24.5595C21.6221 24.9285 21.2449 25.3057 20.8841 25.6747C20.8595 25.6993 20.8595 25.7239 20.8841 25.7403H20.8759Z" fill="white"/>
</g>
<circle cx="20" cy="20" r="19.5" stroke="black" stroke-opacity="0.05"/>
<defs>
<clipPath id="clip0_17713_28122">
<rect width="24" height="24.0492" fill="white" transform="translate(8.03516 7.94727)"/>
</clipPath>
</defs>
</svg>
