<svg width="40" height="40" viewBox="0 0 40 40" fill="none" xmlns="http://www.w3.org/2000/svg">
<circle cx="20" cy="20" r="20" fill="#1C2680"/>
<path d="M21.0262 14.8191L9.09253 14.8L7 25.1954H18.6977C19.4201 25.1954 20.1209 24.9485 20.6838 24.4956C21.2466 24.0427 21.6377 23.411 21.7923 22.7053L22.9842 17.2561C23.0482 16.9632 23.0458 16.6597 22.9772 16.3678C22.9086 16.076 22.7755 15.8032 22.5878 15.5695C22.4 15.3358 22.1623 15.1471 21.8921 15.0173C21.6218 14.8874 21.326 14.8197 21.0262 14.8191ZM17.6775 18.1838L16.8883 21.7895C16.7862 22.2565 16.5274 22.6745 16.155 22.9742C15.7826 23.2739 15.319 23.4373 14.841 23.4373H12.4231L13.8078 16.5592L16.3823 16.5713C16.5807 16.5714 16.7766 16.6161 16.9555 16.702C17.1344 16.7878 17.2917 16.9127 17.416 17.0674C17.5403 17.2221 17.6283 17.4027 17.6735 17.5959C17.7188 17.7891 17.7202 17.99 17.6775 18.1838Z" fill="white"/>
<path d="M27.1008 14.822H32.9999L28.6371 19.5192L31.2638 25.1732H25.4983L22.9609 19.5192L27.1008 14.822Z" fill="#F3591E"/>
<circle cx="20" cy="20" r="19.5" stroke="black" stroke-opacity="0.05"/>
</svg>
