<svg width="40" height="40" viewBox="0 0 40 40" fill="none" xmlns="http://www.w3.org/2000/svg">
<circle cx="20" cy="20" r="20" fill="#E60012"/>
<path d="M24.5333 29.1313C22.0252 31.6232 17.9766 31.6232 15.4684 29.1313L10.8702 24.5322C8.37662 22.0254 8.37662 17.9748 10.8702 15.4679L15.4685 10.8688C17.9766 8.37705 22.0252 8.37705 24.5333 10.8688L29.1316 15.4679C31.6228 17.9757 31.6228 22.0245 29.1316 24.5322L24.5333 29.1313Z" fill="white"/>
<path d="M17.2704 26.7628C16.9039 26.7548 16.6121 26.4532 16.6163 26.0867C16.6203 25.72 16.9185 25.425 17.285 25.425C17.6516 25.425 17.9498 25.72 17.9538 26.0867C17.9578 26.4532 17.6662 26.7548 17.2997 26.7628H17.2704M19.7473 14.1906C19.5783 14.1843 19.4099 14.2128 19.2524 14.2743C19.0949 14.3358 18.9517 14.429 18.8316 14.548C18.3112 15.0686 18.0375 16.1389 18.0605 17.5646C18.0897 19.3249 18.5099 22.7741 19.8914 24.5511C20.092 24.8155 20.3342 25.0456 20.6084 25.2325C20.8802 25.4375 21.2106 25.5496 21.551 25.5524C21.6751 25.5513 21.7989 25.5394 21.9209 25.5169C22.7131 25.3266 23.7059 24.4444 24.4458 23.2695C24.6248 22.9874 24.9975 22.9016 25.2818 23.0772C25.3499 23.1194 25.4089 23.1748 25.4552 23.2402C25.5015 23.3055 25.5342 23.3795 25.5515 23.4577C25.5698 23.536 25.5723 23.6172 25.5591 23.6965C25.5458 23.7758 25.5169 23.8517 25.4741 23.9197C24.5399 25.404 23.3068 26.4471 22.1739 26.7105H22.1467C21.9468 26.7473 21.7439 26.7662 21.5406 26.7669C20.9627 26.7628 20.4001 26.5811 19.929 26.2465C19.544 25.986 19.2038 25.6647 18.9216 25.2952C16.9757 22.7867 16.8419 18.106 16.8315 17.5793C16.8105 16.325 16.9903 14.6525 17.9643 13.6763C18.1957 13.4437 18.4719 13.2606 18.7763 13.138C19.0806 13.0155 19.4066 12.9561 19.7346 12.9635H19.8475C20.1757 12.9555 20.5021 13.0145 20.8068 13.1367C21.1116 13.2589 21.3882 13.4418 21.62 13.6743C22.5939 14.6401 22.7737 16.3312 22.7529 17.5772C22.7319 18.8774 22.4936 21.3965 21.1455 23.6521C20.9636 23.9202 20.6041 23.9995 20.3264 23.8329C20.0488 23.6662 19.9494 23.3116 20.1005 23.025C21.0431 21.4467 21.5008 19.7095 21.5363 17.5562C21.5594 16.1305 21.2856 15.0582 20.763 14.5397C20.6438 14.4207 20.5013 14.3275 20.3445 14.266C20.1877 14.2045 20.0199 14.176 19.8516 14.1822L19.7473 14.1906Z" fill="#E60012"/>
<circle cx="20" cy="20" r="19.5" stroke="black" stroke-opacity="0.05"/>
</svg>
