<svg width="40" height="40" viewBox="0 0 40 40" fill="none" xmlns="http://www.w3.org/2000/svg">
<circle cx="20" cy="20" r="20" fill="#002C5F"/>
<g clip-path="url(#clip0_14382_18525)">
<rect width="28" height="14" transform="translate(6 13)" fill="#002C5F"/>
<path d="M19.9987 26.5C27.4563 26.5 33.5 23.59 33.5 20.0012C33.5 16.4124 27.4563 13.5 19.9987 13.5C12.5412 13.5 6.5 16.41 6.5 20.0012C6.5 23.5924 12.5487 26.5 19.9987 26.5ZM22.5392 23.3147C22.3199 23.7894 21.9268 24.8504 21.027 25.2705C20.7422 25.3909 20.4344 25.4555 20.1222 25.4604C20.0786 25.4629 20.0348 25.4629 19.9912 25.4604C17.7454 25.4758 15.5086 25.1914 13.3477 24.6154C13.2065 24.575 12.894 24.5038 12.894 24.3234C12.8966 24.2841 12.9078 24.2456 12.9269 24.2105C12.946 24.1754 12.9725 24.1443 13.0049 24.1193C13.0326 24.0932 13.0729 24.0624 13.1259 24.0196C13.572 23.6636 14.9304 22.7427 17.4684 21.8312C18.4983 21.4377 19.5592 21.1203 20.6414 20.8818C21.3446 20.7441 23.8901 20.3833 22.5392 23.3147ZM29.3617 16.7636C29.3806 16.7207 29.4119 16.6835 29.4519 16.6563C29.492 16.6291 29.5392 16.6128 29.5885 16.6094C29.6881 16.6073 29.7857 16.6365 29.8657 16.6924C31.4535 17.6134 32.386 18.7551 32.386 19.9988C32.386 22.2418 29.3239 24.1668 24.9385 25.0094C24.6563 25.0616 24.4723 25.0616 24.4067 24.9928C24.3836 24.9637 24.3711 24.9283 24.3711 24.8919C24.3711 24.8555 24.3836 24.8202 24.4067 24.791C24.4392 24.7372 24.4781 24.687 24.5227 24.6415C26.9145 21.9926 28.7391 18.0928 29.2508 16.9607C29.2861 16.8894 29.3314 16.8111 29.3617 16.7636ZM17.5011 16.6758C17.7229 16.1892 18.1136 15.1378 19.0133 14.72C19.2962 14.5986 19.6023 14.5323 19.9131 14.5254H20.0517C22.2966 14.5109 24.5321 14.7995 26.6901 15.3822C26.8288 15.4226 27.1362 15.4748 27.1362 15.6623C27.1337 15.7023 27.1222 15.7413 27.1027 15.7769C27.0832 15.8124 27.056 15.8437 27.0228 15.8688C26.9853 15.9065 26.9439 15.9407 26.8993 15.9709C26.4532 16.3245 25.1024 17.2431 22.5619 18.1546C21.5318 18.5499 20.4699 18.8673 19.3863 19.104C18.6983 19.2393 16.1578 19.6024 17.5011 16.6687M15.069 14.9906C15.3538 14.936 15.5731 14.936 15.6361 15.0072C15.6602 15.0355 15.6734 15.0706 15.6734 15.1069C15.6734 15.1432 15.6602 15.1783 15.6361 15.2066C15.6033 15.2541 15.5731 15.292 15.5176 15.3585C13.1208 18.0098 11.3037 21.9095 10.7845 23.0346C10.7442 23.1129 10.7039 23.1913 10.6761 23.2411C10.6545 23.2828 10.6218 23.3185 10.5812 23.3447C10.5405 23.3709 10.4934 23.3867 10.4443 23.3906C10.3447 23.3878 10.2482 23.3572 10.167 23.3028C8.58933 22.3866 7.61145 21.2402 7.61145 20.0012C7.61145 17.7724 10.6787 15.8285 15.069 14.9906Z" fill="white"/>
</g>
<circle cx="20" cy="20" r="19.5" stroke="black" stroke-opacity="0.05"/>
<defs>
<clipPath id="clip0_14382_18525">
<rect width="28" height="14" fill="white" transform="translate(6 13)"/>
</clipPath>
</defs>
</svg>
