<svg width="40" height="40" viewBox="0 0 40 40" fill="none" xmlns="http://www.w3.org/2000/svg">
<circle cx="20" cy="20" r="20" fill="#00B3F1"/>
<g clip-path="url(#clip0_14382_19440)">
<path d="M21.8594 18.5087H30.9841C30.9841 18.5087 30.7812 11.4576 18.2618 12.0332C5.74246 12.6088 7.03757 20.2355 7.03757 20.2355C7.03757 20.2355 7.32537 25.9916 17.974 24.1208C17.974 24.1208 12.749 22.6171 14.1607 17.5734C15.168 13.9758 20.134 14.1586 21.3557 15.9904C21.9313 16.8538 21.8594 18.5087 21.8594 18.5087Z" fill="white"/>
<path d="M24.9301 19.6685H33.0001C33.0001 19.6685 30.6372 24.5525 25.6007 26.2793C20.5642 28.0061 15.8154 27.5744 12.5777 26.2793C9.33991 24.9842 8.9082 24.1207 8.9082 24.1207C8.9082 24.1207 13.4612 27.0909 18.9913 25.354C24.5214 23.6171 24.9301 19.6685 24.9301 19.6685Z" fill="#113B5B"/>
</g>
<circle cx="20" cy="20" r="19.5" stroke="black" stroke-opacity="0.05"/>
<defs>
<clipPath id="clip0_14382_19440">
<rect width="26" height="15.419" fill="white" transform="translate(7 12)"/>
</clipPath>
</defs>
</svg>
