<svg width="40" height="40" viewBox="0 0 40 40" fill="none" xmlns="http://www.w3.org/2000/svg">
<circle cx="20" cy="20" r="20" fill="#05507D"/>
<g clip-path="url(#clip0_14382_18510)">
<path d="M28.6954 20.2508C28.2773 21.4262 27.2835 22.1493 26.0061 22.1493C24.4246 22.1493 23.1789 20.9404 23.1789 19.3221C23.1789 17.7037 24.422 16.4949 26.0061 16.4949C27.3169 16.4949 28.4126 17.3199 28.763 18.4833C28.8307 18.7995 28.7288 18.8337 28.56 18.8671C28.3472 18.9011 28.1291 18.8657 27.938 18.7661C27.7572 18.6641 27.4865 18.2803 27.4865 18.2803C27.3345 18.0244 27.1174 17.8133 26.8574 17.6684C26.5974 17.5235 26.3037 17.4499 26.0061 17.4553C25.0123 17.4553 24.1761 18.312 24.1761 19.3195C24.1761 20.327 25.0123 21.1726 26.0061 21.1726C26.6958 21.1726 27.2492 20.7999 27.5876 20.2456C27.7239 20.0372 27.9338 19.8879 28.1753 19.8275C28.6277 19.7264 28.7288 19.8618 28.7288 19.8618C28.7288 19.8618 28.8307 19.8961 28.6954 20.2456V20.2508Z" fill="white"/>
<path d="M14.0522 17.4604C15.058 17.4604 15.883 18.3171 15.883 19.3246C15.883 20.3321 15.058 21.1777 14.0522 21.1777V22.1493C15.6457 22.1493 16.8794 20.9404 16.8794 19.3221C16.8794 17.7037 15.6483 16.4949 14.0522 16.4949V17.4604ZM14.0522 21.1777C13.0584 21.1777 12.2333 20.321 12.2333 19.3246C12.2333 18.3283 13.0584 17.4604 14.0522 17.4604V16.5C12.4707 16.5 11.225 17.6994 11.225 19.3272C11.225 20.955 12.4681 22.1544 14.0522 22.1544V21.1777Z" fill="white"/>
<path d="M32.1753 17.4604C33.1691 17.4604 33.9942 18.3171 33.9942 19.3246C33.9942 20.3321 33.1734 21.1777 32.1753 21.1777V22.1493C33.7569 22.1493 35.0025 20.9404 35.0025 19.3221C35.0025 17.7037 33.7594 16.4949 32.1753 16.4949V17.4604ZM32.1753 17.4604V16.5C30.5818 16.5 29.3481 17.6994 29.3481 19.3272C29.3481 20.955 30.5793 22.1544 32.1753 22.1544V21.1777C31.1695 21.1777 30.3445 20.321 30.3445 19.3246C30.3445 18.3283 31.1695 17.4604 32.1753 17.4604Z" fill="white"/>
<path d="M21.2838 19.8327C21.6334 19.8669 21.7019 20.0134 21.5999 20.285C21.3969 20.8051 20.673 21.2111 20.0184 21.2111C19.2611 21.2111 18.8773 20.8385 18.5714 20.5258C18.2896 20.2208 17.7361 20.1831 17.5665 20.2542C17.3968 20.3253 17.4645 20.5969 17.5322 20.7399C18.018 21.6327 19.0126 22.1527 19.9842 22.1527C21.0122 22.1861 21.9049 21.6669 22.4584 20.8085C22.9784 19.9518 22.7634 18.8757 21.5323 18.8757L18.7753 18.8423C18.3572 18.8423 18.323 18.605 18.4249 18.3223C18.7076 17.8142 19.3288 17.4295 20.0861 17.4295C20.8092 17.4295 21.1819 17.8819 21.4303 18.1149C21.7019 18.3522 22.2211 18.4199 22.4584 18.318C22.5937 18.2503 22.5603 18.0807 22.4584 17.8776C22.0069 17.0072 21.0122 16.4991 20.0184 16.4991C19.148 16.4991 18.1876 16.8718 17.5999 17.7645C17.1253 18.5356 17.1595 19.7984 18.8773 19.7984L21.2838 19.8327Z" fill="white"/>
<path d="M7.82708 22.1489C9.4086 22.1489 10.6543 20.9401 10.6543 19.3217C10.6543 17.7033 9.41117 16.4945 7.82708 16.4945V17.4549C8.31539 17.4612 8.78122 17.6611 9.12225 18.0107C9.46329 18.3602 9.65163 18.8308 9.64591 19.3191C9.64591 20.3138 8.82088 21.1722 7.82708 21.1722V22.1489ZM7.82708 16.4996C6.23357 16.4996 4.99988 17.6991 4.99988 19.3268V23.0665C4.99988 23.0665 4.96561 23.5522 5.17123 23.8915C5.34257 24.1288 5.58931 24.3096 5.82577 24.343C5.99711 24.3096 6.02967 24.0945 6.02967 24.0945V21.5269C6.54406 21.9276 7.1768 22.1463 7.82879 22.1489V21.1774C6.823 21.1774 5.99797 20.3206 5.99797 19.3243C5.99548 19.0816 6.0409 18.8408 6.13161 18.6156C6.22233 18.3905 6.35656 18.1855 6.52663 18.0123C6.69669 17.8392 6.89925 17.7012 7.1227 17.6065C7.34614 17.5117 7.58609 17.4619 7.82879 17.46V16.4996H7.82708Z" fill="white"/>
</g>
<circle cx="20" cy="20" r="19.5" stroke="black" stroke-opacity="0.05"/>
<defs>
<clipPath id="clip0_14382_18510">
<rect width="30" height="7.84076" fill="white" transform="translate(5 16.5)"/>
</clipPath>
</defs>
</svg>
