<svg width="40" height="40" viewBox="0 0 40 40" fill="none" xmlns="http://www.w3.org/2000/svg">
<circle cx="20" cy="20" r="20" fill="#F6F8FA"/>
<path d="M10.8534 22.2052L10.7007 22.562C10.6966 22.5713 10.6902 22.5785 10.6814 22.5835C10.5995 22.6307 10.5167 22.6704 10.433 22.7028C10.1431 22.8148 9.82962 22.89 9.49251 22.9283C8.5004 23.0415 7.45114 22.8661 6.63772 22.2983C5.86221 21.7572 5.39556 20.8933 5.26008 19.9564C5.1299 19.0577 5.29549 18.1024 5.82151 17.3567C6.13744 16.9088 6.5724 16.595 7.12639 16.4153C7.46963 16.3042 7.81901 16.2495 8.17453 16.2511C8.18754 16.2513 8.19376 16.2579 8.1932 16.2709L8.19097 16.3239C8.1906 16.3356 8.18493 16.3436 8.17397 16.3479C8.0292 16.4057 7.90394 16.4912 7.7982 16.6046C7.50494 16.9199 7.34995 17.3679 7.27803 17.7932C7.06785 19.0396 7.34828 20.4588 8.22749 21.3809C8.53106 21.6992 8.89624 21.9354 9.31076 22.0742C9.80333 22.2389 10.3466 22.3186 10.8409 22.1904C10.855 22.1867 10.8592 22.1916 10.8534 22.2052Z" fill="#9F1758"/>
<path d="M10.5384 18.7017C10.2656 18.1044 9.93888 17.5633 9.55828 17.0785C9.33359 16.7925 9.06487 16.514 8.75182 16.3297C8.74178 16.3238 8.73695 16.315 8.73732 16.3032L8.73872 16.2639C8.73909 16.2546 8.74392 16.25 8.75321 16.25H10.6485C10.6574 16.25 10.6619 16.2546 10.6619 16.2637V18.7028C10.6619 18.7061 10.6605 18.7093 10.6581 18.7117C10.6557 18.714 10.6525 18.7154 10.6491 18.7154L10.5587 18.7148C10.5491 18.7148 10.5423 18.7104 10.5384 18.7017Z" fill="#FF7F00"/>
<path d="M22.1906 19.1848C22.4588 20.7749 21.9743 22.4302 20.2379 22.8659C19.757 22.9867 19.2574 22.9942 18.7393 22.8884C18.0457 22.7468 17.4637 22.3423 17.1211 21.7305C16.8105 21.1757 16.7331 20.4878 16.7542 19.8597C16.7707 19.3621 16.8808 18.8531 17.12 18.4205C17.5403 17.6603 18.2543 17.219 19.1198 17.1256C19.6595 17.0674 20.2332 17.1022 20.7492 17.2692C21.62 17.5513 22.0465 18.3304 22.1906 19.1848ZM18.5093 18.2719C18.2509 19.0976 18.2353 20.0233 18.3694 20.8669C18.4742 21.5259 18.7552 22.7491 19.6609 22.6548C20.1306 22.6061 20.4063 22.1308 20.5259 21.7271C20.5794 21.5461 20.6194 21.3626 20.6457 21.1766C20.7639 20.342 20.7444 19.5563 20.5872 18.8196C20.4643 18.2432 20.1468 17.3801 19.4136 17.4021C18.913 17.4172 18.644 17.8412 18.5093 18.2719Z" fill="#9F1758"/>
<path d="M14.779 19.8471C14.7667 19.8505 14.7639 19.8575 14.7706 19.868C15.2086 20.5755 15.6678 21.2732 16.1482 21.961C16.3515 22.252 16.5591 22.5314 16.771 22.7992C16.7717 22.8001 16.7721 22.8012 16.7723 22.8023C16.7724 22.8035 16.7723 22.8046 16.7718 22.8057C16.7713 22.8067 16.7706 22.8077 16.7697 22.8083C16.7688 22.809 16.7677 22.8094 16.7665 22.8095C16.3677 22.8404 15.9585 22.8454 15.5389 22.8246C15.0209 22.7989 14.7553 22.4452 14.5189 22.0315C14.1178 21.3294 13.7412 20.6018 13.3891 19.8488C13.3882 19.8469 13.3877 19.8447 13.3878 19.8426C13.3879 19.8405 13.3885 19.8384 13.3895 19.8365C13.3905 19.8347 13.392 19.833 13.3937 19.8318C13.3955 19.8306 13.3975 19.8299 13.3996 19.8296C13.8487 19.7649 14.3109 19.591 14.4578 19.1123C14.6064 18.6278 14.4968 17.9061 13.9429 17.7104C13.687 17.6198 13.3843 17.6073 13.1209 17.675C13.0943 17.6819 13.081 17.699 13.081 17.7263C13.081 17.7906 13.0806 17.8583 13.0796 17.9293C13.0679 18.7856 13.0667 19.996 13.076 21.5604C13.0771 21.7442 13.0859 21.9387 13.1022 22.1438C13.1208 22.3791 13.1635 22.5951 13.2304 22.7917C13.2342 22.8023 13.2303 22.8076 13.219 22.8076H11.5208C11.5196 22.8076 11.5184 22.8073 11.5173 22.8067C11.5162 22.8061 11.5153 22.8053 11.5146 22.8043C11.5139 22.8032 11.5135 22.8021 11.5133 22.8009C11.5132 22.7996 11.5134 22.7984 11.5138 22.7973C11.5874 22.6118 11.6324 22.4194 11.6487 22.22C11.6712 21.9445 11.6858 21.6624 11.6925 21.3736C11.7159 20.3457 11.7107 19.2987 11.6769 18.2326C11.6695 18.0006 11.635 17.7606 11.5735 17.5125C11.5531 17.4303 11.513 17.3408 11.4628 17.2697C11.4617 17.2683 11.4611 17.2666 11.461 17.2648C11.4608 17.263 11.4612 17.2612 11.462 17.2596C11.4629 17.258 11.4641 17.2566 11.4657 17.2556C11.4673 17.2547 11.4691 17.2541 11.4709 17.2541C12.5213 17.2519 13.5544 17.2525 14.5704 17.2561C15.1776 17.258 15.8282 17.4849 15.9868 18.1297C16.1296 18.7112 15.8862 19.3077 15.3677 19.6071C15.1861 19.7119 14.9899 19.7919 14.779 19.8471Z" fill="#9F1758"/>
<path d="M25.3057 21.6817C25.4334 21.3154 25.5543 20.9305 25.6684 20.5271C25.7515 20.2333 25.8157 19.9655 25.861 19.7237C25.8956 19.5389 25.9332 19.2782 25.883 19.0719C25.787 18.678 25.6801 18.3137 25.5625 17.9792C25.4794 17.7425 25.3723 17.4702 25.2104 17.2723C25.209 17.2706 25.2081 17.2685 25.2079 17.2664C25.2076 17.2642 25.208 17.262 25.2089 17.2601C25.2098 17.2581 25.2113 17.2565 25.2132 17.2553C25.215 17.2542 25.2171 17.2536 25.2193 17.2536H26.8788C26.8882 17.2536 26.8938 17.2582 26.8955 17.2675C27.0064 17.8849 27.1248 18.4614 27.2506 18.9969C27.5459 20.253 27.9017 21.5182 28.318 22.7923C28.3212 22.8025 28.3175 22.8076 28.3069 22.8076H26.8924C26.8899 22.8076 26.8875 22.8068 26.8855 22.8053C26.8836 22.8038 26.8822 22.8017 26.8816 22.7992C26.7405 22.2716 26.5968 21.7259 26.4503 21.1621C26.3607 20.8168 26.2851 20.541 26.2234 20.3347C26.2184 20.3174 26.2132 20.3174 26.2078 20.3347L25.4571 22.7959C25.4561 22.7993 25.4541 22.8023 25.4512 22.8044C25.4484 22.8065 25.445 22.8076 25.4415 22.8076H24.1971C24.1865 22.8076 24.1802 22.8024 24.1781 22.792C23.8784 21.3475 23.5037 19.9129 23.0542 18.4882C22.9212 18.0664 22.7258 17.5923 22.43 17.2672C22.4289 17.266 22.4281 17.2645 22.4279 17.2628C22.4276 17.2611 22.4278 17.2594 22.4285 17.2579C22.4292 17.2563 22.4303 17.255 22.4317 17.2541C22.4331 17.2532 22.4347 17.2527 22.4364 17.2527C22.9887 17.2546 23.4943 17.2541 23.9532 17.2513C24.0663 17.2508 24.1397 17.2957 24.1742 17.4063C24.2166 17.5411 24.2556 17.6719 24.2913 17.7988C24.6663 19.133 24.9981 20.4269 25.2865 21.6806C25.2917 21.7031 25.2981 21.7034 25.3057 21.6817Z" fill="#9F1758"/>
<path d="M29.7479 17.2616C29.3635 18.1537 28.9939 19.0546 28.69 19.9737C28.6865 19.9843 28.6792 19.9893 28.668 19.9887C28.6556 19.9882 28.6435 19.9857 28.6318 19.9812C28.6223 19.9773 28.6173 19.9703 28.6167 19.96C28.5837 19.3239 28.4832 18.6977 28.3154 18.0815C28.2407 17.8069 28.144 17.4902 27.9703 17.2652C27.9694 17.2642 27.9689 17.2629 27.9688 17.2615C27.9686 17.2601 27.9689 17.2588 27.9695 17.2575C27.9701 17.2563 27.9711 17.2553 27.9722 17.2546C27.9734 17.2539 27.9748 17.2535 27.9761 17.2535H29.7426C29.7436 17.2536 29.7445 17.2538 29.7454 17.2543C29.7462 17.2547 29.7469 17.2554 29.7474 17.2562C29.748 17.257 29.7483 17.2579 29.7484 17.2588C29.7485 17.2598 29.7483 17.2607 29.7479 17.2616Z" fill="#9F1758"/>
<path d="M34.3642 21.0241C34.3677 20.2307 34.3632 19.4444 34.3505 18.6649C34.3425 18.1752 34.2873 17.7213 34.1286 17.2622C34.1283 17.2613 34.1282 17.2603 34.1283 17.2593C34.1284 17.2583 34.1288 17.2573 34.1294 17.2565C34.13 17.2557 34.1308 17.255 34.1318 17.2546C34.1327 17.2541 34.1337 17.2538 34.1348 17.2539L35.2069 17.2536C35.2085 17.2536 35.2101 17.2539 35.2115 17.2546C35.213 17.2553 35.2142 17.2563 35.2152 17.2576C35.2162 17.2588 35.2168 17.2603 35.2171 17.2618C35.2174 17.2633 35.2174 17.2649 35.2169 17.2664C35.0633 17.832 35.0235 18.3658 35.0126 18.9721C34.9897 20.2578 34.9918 21.5313 35.0187 22.7928C35.0189 22.8029 35.014 22.8079 35.004 22.8079L33.7802 22.8076C33.7761 22.8076 33.7721 22.8065 33.7686 22.8045C33.7651 22.8024 33.7621 22.7995 33.7601 22.7959L31.2962 18.6229C31.2839 18.602 31.2777 18.6037 31.2775 18.6279C31.2732 19.5805 31.2794 20.5394 31.2962 21.5047C31.303 21.8996 31.3721 22.329 31.5033 22.7928C31.5061 22.8027 31.5023 22.8076 31.4918 22.8076L30.376 22.8079C30.3745 22.8079 30.3731 22.8076 30.3718 22.8069C30.3704 22.8063 30.3693 22.8054 30.3684 22.8042C30.3676 22.803 30.367 22.8017 30.3667 22.8002C30.3665 22.7988 30.3666 22.7973 30.367 22.7959C30.5803 22.075 30.6135 21.3143 30.6271 20.5608C30.6388 19.9239 30.6364 19.26 30.6199 18.569C30.6093 18.1294 30.5443 17.6413 30.3071 17.2681C30.3062 17.2666 30.3057 17.2649 30.3057 17.2631C30.3056 17.2614 30.306 17.2597 30.3069 17.2582C30.3077 17.2567 30.3089 17.2554 30.3104 17.2546C30.3118 17.2537 30.3135 17.2533 30.3152 17.2533H32.07C32.0756 17.2533 32.0798 17.2557 32.0825 17.2605C32.8138 18.5198 33.5697 19.7757 34.3503 21.0283C34.3596 21.0431 34.3642 21.0418 34.3642 21.0241Z" fill="#9F1758"/>
<circle cx="20" cy="20" r="19.5" stroke="black" stroke-opacity="0.05"/>
</svg>
