<svg width="40" height="40" viewBox="0 0 40 40" fill="none" xmlns="http://www.w3.org/2000/svg">
<circle cx="20" cy="20" r="20" fill="#F6F8FA"/>
<path d="M10.8183 22.6328L10.6655 22.9896C10.6614 22.9989 10.655 23.0061 10.6463 23.0111C10.5643 23.0583 10.4815 23.0981 10.3979 23.1304C10.108 23.2425 9.79447 23.3176 9.45735 23.3559C8.46524 23.4691 7.41599 23.2937 6.60256 22.7259C5.82705 22.1848 5.3604 21.321 5.22493 20.384C5.09474 19.4853 5.26033 18.53 5.78635 17.7843C6.10228 17.3364 6.53724 17.0226 7.09123 16.8429C7.43448 16.7318 7.78386 16.6771 8.13937 16.6787C8.15238 16.6789 8.15861 16.6855 8.15805 16.6985L8.15582 16.7515C8.15545 16.7632 8.14978 16.7712 8.13881 16.7755C7.99404 16.8333 7.86879 16.9189 7.76304 17.0322C7.46979 17.3475 7.3148 17.7955 7.24288 18.2209C7.03269 19.4672 7.31312 20.8864 8.19234 21.8085C8.49591 22.1269 8.86108 22.363 9.2756 22.5018C9.76817 22.6665 10.3115 22.7463 10.8057 22.618C10.8198 22.6143 10.824 22.6192 10.8183 22.6328Z" fill="#9F1758"/>
<path d="M10.5032 19.1294C10.2304 18.5321 9.90372 17.9911 9.52312 17.5062C9.29844 17.2202 9.02971 16.9417 8.71666 16.7575C8.70663 16.7515 8.7018 16.7427 8.70217 16.731L8.70356 16.6917C8.70393 16.6824 8.70877 16.6777 8.71806 16.6777H10.6134C10.6223 16.6777 10.6267 16.6823 10.6267 16.6914V19.1306C10.6267 19.1339 10.6254 19.1371 10.623 19.1394C10.6206 19.1418 10.6173 19.1431 10.6139 19.1431L10.5236 19.1425C10.5139 19.1425 10.5071 19.1382 10.5032 19.1294Z" fill="#FF7F00"/>
<path d="M22.1555 19.6126C22.4236 21.2026 21.9392 22.8579 20.2028 23.2936C19.7218 23.4144 19.2223 23.4219 18.7041 23.3162C18.0106 23.1746 17.4285 22.7701 17.0859 22.1582C16.7754 21.6035 16.6979 20.9155 16.7191 20.2874C16.7355 19.7899 16.8456 19.2808 17.0848 18.8482C17.5052 18.088 18.2191 17.6467 19.0846 17.5534C19.6243 17.4951 20.198 17.5299 20.714 17.6969C21.5849 17.979 22.0114 18.7582 22.1555 19.6126ZM18.4742 18.6996C18.2157 19.5253 18.2001 20.4511 18.3342 21.2946C18.439 21.9536 18.72 23.1768 19.6257 23.0826C20.0954 23.0338 20.3711 22.5585 20.4907 22.1549C20.5442 21.9738 20.5842 21.7903 20.6106 21.6043C20.7288 20.7697 20.7093 19.9841 20.552 19.2474C20.4291 18.6709 20.1116 17.8079 19.3785 17.8299C18.8778 17.8449 18.6088 18.2689 18.4742 18.6996Z" fill="#9F1758"/>
<path d="M14.7438 20.2747C14.7315 20.2781 14.7287 20.2851 14.7354 20.2957C15.1735 21.0032 15.6327 21.7008 16.1131 22.3886C16.3164 22.6796 16.524 22.959 16.7358 23.2268C16.7365 23.2277 16.737 23.2288 16.7371 23.23C16.7373 23.2311 16.7371 23.2322 16.7366 23.2333C16.7362 23.2344 16.7355 23.2353 16.7345 23.2359C16.7336 23.2366 16.7325 23.237 16.7314 23.2371C16.3325 23.268 15.9233 23.273 15.5037 23.2522C14.9858 23.2265 14.7201 22.8728 14.4837 22.4591C14.0827 21.757 13.7061 21.0294 13.3539 20.2764C13.353 20.2745 13.3526 20.2724 13.3527 20.2702C13.3527 20.2681 13.3533 20.266 13.3543 20.2641C13.3554 20.2623 13.3568 20.2607 13.3586 20.2595C13.3604 20.2582 13.3624 20.2575 13.3645 20.2572C13.8136 20.1925 14.2758 20.0186 14.4227 19.5399C14.5712 19.0554 14.4617 18.3337 13.9078 18.138C13.6519 18.0474 13.3492 18.0349 13.0857 18.1026C13.0592 18.1095 13.0459 18.1266 13.0459 18.1539C13.0459 18.2182 13.0454 18.2859 13.0445 18.3569C13.0328 19.2132 13.0316 20.4236 13.0408 21.988C13.042 22.1718 13.0507 22.3663 13.067 22.5715C13.0856 22.8067 13.1284 23.0227 13.1953 23.2193C13.199 23.2299 13.1952 23.2352 13.1839 23.2352H11.4856C11.4844 23.2352 11.4832 23.2349 11.4821 23.2343C11.481 23.2337 11.4801 23.2329 11.4794 23.2319C11.4787 23.2309 11.4783 23.2297 11.4782 23.2285C11.478 23.2273 11.4782 23.226 11.4787 23.2249C11.5523 23.0394 11.5972 22.847 11.6136 22.6476C11.6361 22.3721 11.6507 22.09 11.6574 21.8012C11.6808 20.7734 11.6756 19.7263 11.6417 18.6602C11.6343 18.4282 11.5998 18.1882 11.5383 17.9401C11.518 17.8579 11.4778 17.7684 11.4277 17.6973C11.4266 17.6959 11.4259 17.6942 11.4258 17.6924C11.4257 17.6906 11.426 17.6888 11.4269 17.6872C11.4277 17.6856 11.429 17.6842 11.4305 17.6833C11.4321 17.6823 11.4339 17.6818 11.4357 17.6817C12.4861 17.6795 13.5193 17.6801 14.5353 17.6837C15.1424 17.6856 15.7931 17.9125 15.9517 18.5573C16.0944 19.1388 15.851 19.7353 15.3325 20.0347C15.151 20.1395 14.9547 20.2196 14.7438 20.2747Z" fill="#9F1758"/>
<path d="M25.2706 22.1093C25.3982 21.743 25.5191 21.3581 25.6332 20.9547C25.7163 20.6609 25.7805 20.3931 25.8259 20.1513C25.8604 19.9665 25.8981 19.7058 25.8479 19.4995C25.7518 19.1056 25.6449 18.7413 25.5273 18.4068C25.4442 18.1701 25.3372 17.8978 25.1752 17.6999C25.1738 17.6982 25.173 17.6962 25.1727 17.694C25.1725 17.6918 25.1728 17.6897 25.1737 17.6877C25.1747 17.6857 25.1762 17.6841 25.178 17.6829C25.1798 17.6818 25.182 17.6812 25.1841 17.6812H26.8436C26.8531 17.6812 26.8587 17.6858 26.8603 17.6951C26.9713 18.3125 27.0897 18.889 27.2155 19.4246C27.5108 20.6807 27.8666 21.9458 28.2829 23.2199C28.286 23.2301 28.2823 23.2352 28.2717 23.2352H26.8573C26.8548 23.2352 26.8524 23.2344 26.8504 23.2329C26.8484 23.2314 26.847 23.2293 26.8464 23.2269C26.7053 22.6993 26.5616 22.1535 26.4152 21.5897C26.3256 21.2444 26.2499 20.9686 26.1882 20.7623C26.1832 20.7451 26.178 20.7451 26.1726 20.7623L25.4219 23.2235C25.421 23.2269 25.4189 23.2299 25.4161 23.232C25.4133 23.2341 25.4098 23.2352 25.4063 23.2352H24.1619C24.1513 23.2352 24.145 23.23 24.143 23.2196C23.8432 21.7751 23.4686 20.3405 23.019 18.9158C22.886 18.4941 22.6906 18.0199 22.3949 17.6948C22.3937 17.6936 22.393 17.6921 22.3927 17.6904C22.3924 17.6887 22.3926 17.687 22.3933 17.6855C22.394 17.684 22.3951 17.6827 22.3965 17.6817C22.3979 17.6808 22.3996 17.6803 22.4013 17.6804C22.9536 17.6822 23.4592 17.6817 23.918 17.679C24.0312 17.6784 24.1045 17.7233 24.1391 17.834C24.1814 17.9687 24.2205 18.0995 24.2561 18.2264C24.6312 19.5606 24.9629 20.8545 25.2513 22.1082C25.2565 22.1307 25.2629 22.1311 25.2706 22.1093Z" fill="#9F1758"/>
<path d="M29.7128 17.6892C29.3284 18.5813 28.9587 19.4822 28.6549 20.4013C28.6514 20.4119 28.644 20.4169 28.6329 20.4164C28.6204 20.4158 28.6083 20.4133 28.5966 20.4088C28.5872 20.4049 28.5821 20.3979 28.5816 20.3876C28.5485 19.7515 28.4481 19.1253 28.2802 18.5091C28.2055 18.2345 28.1088 17.9178 27.9351 17.6929C27.9343 17.6918 27.9338 17.6905 27.9336 17.6891C27.9335 17.6878 27.9337 17.6864 27.9344 17.6852C27.935 17.6839 27.9359 17.6829 27.9371 17.6822C27.9383 17.6815 27.9396 17.6811 27.941 17.6812H29.7075C29.7084 17.6812 29.7094 17.6814 29.7102 17.6819C29.711 17.6823 29.7118 17.683 29.7123 17.6838C29.7128 17.6846 29.7131 17.6855 29.7132 17.6865C29.7133 17.6874 29.7132 17.6884 29.7128 17.6892Z" fill="#9F1758"/>
<path d="M34.329 21.4517C34.3326 20.6584 34.328 19.872 34.3154 19.0926C34.3073 18.6028 34.2521 18.1489 34.0935 17.6898C34.0931 17.6889 34.093 17.6879 34.0931 17.6869C34.0933 17.6859 34.0937 17.685 34.0943 17.6841C34.0949 17.6833 34.0957 17.6826 34.0966 17.6822C34.0975 17.6817 34.0986 17.6815 34.0996 17.6815L35.1717 17.6812C35.1733 17.6812 35.1749 17.6815 35.1764 17.6822C35.1778 17.6829 35.1791 17.6839 35.18 17.6852C35.181 17.6864 35.1817 17.6879 35.182 17.6894C35.1823 17.6909 35.1822 17.6925 35.1818 17.694C35.0282 18.2596 34.9883 18.7934 34.9774 19.3997C34.9546 20.6854 34.9566 21.959 34.9836 23.2204C34.9838 23.2305 34.9788 23.2355 34.9688 23.2355L33.745 23.2352C33.741 23.2352 33.737 23.2341 33.7334 23.2321C33.7299 23.23 33.727 23.2271 33.725 23.2235L31.261 19.0505C31.2487 19.0296 31.2425 19.0313 31.2423 19.0555C31.238 20.0081 31.2443 20.967 31.261 21.9323C31.2679 22.3272 31.3369 22.7566 31.4681 23.2204C31.4709 23.2303 31.4671 23.2352 31.4567 23.2352L30.3408 23.2355C30.3394 23.2355 30.3379 23.2352 30.3366 23.2346C30.3353 23.2339 30.3341 23.233 30.3333 23.2318C30.3324 23.2306 30.3318 23.2293 30.3316 23.2278C30.3313 23.2264 30.3314 23.2249 30.3319 23.2235C30.5451 22.5026 30.5783 21.7419 30.592 20.9884C30.6037 20.3515 30.6013 19.6876 30.5847 18.9967C30.5741 18.5571 30.5092 18.0689 30.272 17.6957C30.2711 17.6942 30.2706 17.6925 30.2705 17.6907C30.2705 17.689 30.2709 17.6873 30.2717 17.6858C30.2725 17.6843 30.2737 17.683 30.2752 17.6822C30.2767 17.6813 30.2783 17.6809 30.28 17.6809H32.0348C32.0404 17.6809 32.0446 17.6833 32.0474 17.6882C32.7787 18.9474 33.5346 20.2033 34.3151 21.4559C34.3244 21.4708 34.329 21.4694 34.329 21.4517Z" fill="#9F1758"/>
<circle cx="20" cy="20" r="19.5" stroke="black" stroke-opacity="0.05"/>
</svg>
