<svg width="40" height="40" viewBox="0 0 40 40" fill="none" xmlns="http://www.w3.org/2000/svg">
<circle cx="20" cy="20" r="20" fill="#151C5A"/>
<path d="M25.2899 22.7058C24.1892 22.7058 24.0212 22.3043 24.2137 21.4474C24.4054 20.5905 25.8505 15.0127 25.8505 15.0127H22.543C22.543 15.0127 21.0768 20.4099 20.7771 21.7861C20.3692 23.6573 21.3244 25.5683 24.2549 25.5835C26.1215 25.5923 31.2403 25.5835 31.2403 25.5835L32 22.7058H25.2899Z" fill="white"/>
<path d="M13.5193 15L13.5174 15.0074C11.8923 15.0074 10.753 15.8918 9.95581 17.1676H20.4892L21.0731 15H13.5193Z" fill="white"/>
<path d="M16.9531 18.9387C15.0689 18.9387 9.47239 18.941 9.47239 18.941C9.56953 20.2147 10.7698 21.3548 12.6274 21.3548H15.6493C15.6664 21.3548 15.6832 21.3565 15.6998 21.3573C15.7268 21.3581 15.7529 21.3613 15.7786 21.3653C15.798 21.3682 15.8168 21.3719 15.8352 21.376C16.1193 21.4478 16.2934 21.7133 16.2367 22.0316C16.1961 22.265 16.0416 22.4706 15.841 22.5921C15.686 22.6833 15.4324 22.7044 15.2557 22.7076H15.1182C15.1069 22.7076 15.094 22.707 15.0865 22.7068V22.7076H12.1933V22.7083H8.75927L8 25.583C8 25.583 14.887 25.5788 15.0161 25.583C18.0112 25.6753 19.2843 24.1108 19.6398 22.2713C19.9787 20.515 19.1717 18.9387 16.9531 18.9387Z" fill="white"/>
<circle cx="20" cy="20" r="19.5" stroke="black" stroke-opacity="0.05"/>
</svg>
