<svg width="40" height="40" viewBox="0 0 40 40" fill="none" xmlns="http://www.w3.org/2000/svg">
<circle cx="20" cy="20" r="20" fill="#F6F8FA"/>
<circle cx="20" cy="20" r="20" fill="#F6F8FA"/>
<circle cx="20" cy="20" r="19.5" stroke="black" stroke-opacity="0.05"/>
<path d="M16.8872 17.6127C16.2125 16.9918 15.3936 16.4816 14.4048 16.1338C13.9078 15.9586 13.0889 15.7035 12.3911 15.7035C11.7911 15.7035 11.2786 15.8942 11.1499 16.4919C10.9001 17.6334 11.0185 27.4373 11.1061 28.571C11.1679 29.4058 11.5207 29.8928 12.4966 29.8722C19.3103 29.7614 21.0974 21.5008 16.8872 17.6127Z" fill="url(#paint0_linear_14382_18795)"/>
<path d="M24.6924 9.73405C24.0795 9.16977 23.3302 8.70599 22.4392 8.39164C21.986 8.23189 21.2444 8 20.6109 8C20.0624 8 19.5989 8.17778 19.4779 8.71887C19.2538 9.75208 19.3594 18.6542 19.4392 19.6874C19.4985 20.4424 19.8152 20.883 20.701 20.8701C26.8889 20.7644 28.5138 13.264 24.6924 9.73405Z" fill="url(#paint1_linear_14382_18795)"/>
<path d="M27.4242 18.0088C26.6568 17.3003 25.7092 16.7154 24.5916 16.3237C24.0199 16.1202 23.0851 15.8316 22.292 15.8316C21.6045 15.8316 21.0174 16.0506 20.868 16.7334C20.5822 18.032 20.7186 29.217 20.8191 30.513C20.8937 31.4664 21.2877 32.0152 22.4027 31.9997C30.1795 31.876 32.2267 22.4457 27.4242 18.0088Z" fill="url(#paint2_linear_14382_18795)"/>
<circle cx="20" cy="20" r="19.5" stroke="black" stroke-opacity="0.05"/>
<defs>
<linearGradient id="paint0_linear_14382_18795" x1="19.1859" y1="15.527" x2="10.7621" y2="15.5004" gradientUnits="userSpaceOnUse">
<stop stop-color="#EE7700"/>
<stop offset="0.0997" stop-color="#EE7700"/>
<stop offset="0.2644" stop-color="#EC7200"/>
<stop offset="0.4789" stop-color="#E56305"/>
<stop offset="0.7208" stop-color="#D94913"/>
<stop offset="0.9812" stop-color="#CA1B1D"/>
<stop offset="0.9997" stop-color="#C8161D"/>
<stop offset="1" stop-color="#C8161D"/>
</linearGradient>
<linearGradient id="paint1_linear_14382_18795" x1="19.3148" y1="20.9841" x2="26.8605" y2="21.0079" gradientUnits="userSpaceOnUse">
<stop stop-color="#23ADE5"/>
<stop offset="0.3285" stop-color="#0091D2"/>
<stop offset="1" stop-color="#0054A7"/>
</linearGradient>
<linearGradient id="paint2_linear_14382_18795" x1="19.9203" y1="33.5782" x2="31.067" y2="33.6134" gradientUnits="userSpaceOnUse">
<stop stop-color="#8EC31F"/>
<stop offset="0.1465" stop-color="#87C124"/>
<stop offset="0.3383" stop-color="#73B82F"/>
<stop offset="0.5552" stop-color="#4BAB3C"/>
<stop offset="0.7887" stop-color="#009B48"/>
<stop offset="1" stop-color="#008D50"/>
</linearGradient>
</defs>
</svg>
