<svg width="40" height="40" viewBox="0 0 40 40" fill="none" xmlns="http://www.w3.org/2000/svg">
<circle cx="20" cy="20" r="20" fill="#F6F8FA"/>
<path d="M12.0351 23.7121V22.4645H14.3131C14.3539 22.4578 14.3879 22.4241 14.3879 22.3836C14.3675 21.9385 14.3675 21.48 14.4015 21.0214C14.4015 20.9877 14.3879 20.9742 14.3607 20.9742H12.1031C12.1031 20.9742 12.0487 20.9472 12.0487 20.9203V19.5716C12.0487 19.5716 12.0623 19.5244 12.0963 19.5244H14.5987C14.5987 19.5244 14.6327 19.5109 14.6395 19.4907L14.9999 18.061C14.9999 18.061 14.9999 18.0408 14.9863 18.0341H12.1031C12.1031 18.0341 12.0487 18.0071 12.0487 17.9801V16.6314C12.0487 16.6314 12.0623 16.5977 12.0827 16.5977H15.4147C15.4623 16.5977 15.5099 16.5707 15.5235 16.5235L16.1083 15.1141C16.1083 15.1141 16.1083 15.1007 16.1083 15.0939H12.1167C12.0759 15.0939 12.0419 15.0669 12.0419 15.0265L12.0283 13.7654V13.752L12.0419 13.698C12.0419 13.698 12.0623 13.6643 12.0895 13.6643H20.7527C20.8003 13.6643 20.8343 13.6373 20.8547 13.5969L21.3307 12.2077C21.3307 12.2077 21.3307 12.1875 21.3171 12.1807C21.3171 12.1807 21.3171 12.1807 21.3103 12.1807H12.1235C12.0759 12.1807 12.0487 12.1538 12.0487 12.1066L12.0351 10.8523V10.7376H21.8203C21.8883 10.7376 21.9495 10.6904 21.9767 10.6297C22.3439 9.74634 22.7451 8.88318 23.1803 8.0335C23.1939 8.01327 23.2143 8.00653 23.2415 8.01327C23.2483 8.01327 23.2551 8.02676 23.2619 8.0335C23.7039 8.89667 24.1187 9.7868 24.4995 10.6904C24.5131 10.7174 24.5403 10.7376 24.5675 10.7376H28.9875C28.9875 10.7376 29.0351 10.7511 29.0351 10.7781V12.147C29.0351 12.147 29.0215 12.1807 29.0011 12.1807H25.1659C25.1659 12.1807 25.1251 12.201 25.1251 12.2279C25.1251 12.2279 25.1251 12.2347 25.1251 12.2414L25.6011 13.6373C25.6011 13.6373 25.6283 13.671 25.6487 13.671H28.9943C28.9943 13.671 29.0351 13.6913 29.0351 13.7182V15.0467C29.0351 15.0872 29.0147 15.1074 28.9739 15.1074H26.0839C26.0839 15.1074 26.0567 15.1209 26.0567 15.1411L26.3967 16.564C26.3967 16.564 26.4239 16.6112 26.4511 16.6112H28.9875C28.9875 16.6112 29.0351 16.6314 29.0351 16.6584V18.0071C29.0351 18.0273 29.0147 18.0476 28.9943 18.0476H26.6959C26.6959 18.0476 26.6687 18.061 26.6687 18.0745L26.7979 19.4974C26.7979 19.4974 26.8115 19.5311 26.8387 19.5311H28.9943C28.9943 19.5311 29.0351 19.5513 29.0351 19.5716V20.9C29.0351 20.954 29.0079 20.981 28.9535 20.981H26.8387C26.8387 20.981 26.7843 21.0012 26.7843 21.0282C26.7503 21.5069 26.6891 21.9655 26.5939 22.4038C26.5871 22.451 26.6007 22.4713 26.6483 22.4713H28.9875C28.9875 22.4713 29.0351 22.4848 29.0351 22.5117V23.8537C29.0351 23.8537 29.0215 23.8941 28.9943 23.8941H26.1383C26.1383 23.8941 26.0839 23.9144 26.0703 23.9413C25.8255 24.4606 25.5127 24.9326 25.1251 25.344C25.1115 25.3575 25.1115 25.3844 25.1251 25.3979C25.1251 25.3979 25.1387 25.4047 25.1523 25.4047H28.9807C28.9807 25.4047 29.0419 25.4316 29.0419 25.4654V26.8141C29.0419 26.8141 29.0283 26.8343 29.0215 26.8343H12.0827C12.0827 26.8343 12.0487 26.8208 12.0487 26.8006V25.4519C12.0487 25.4519 12.0623 25.4047 12.0895 25.4047H15.9587C16.0131 25.4047 16.0131 25.3912 15.9723 25.3575C15.8431 25.2698 15.7071 25.1956 15.5915 25.0945C15.2107 24.764 14.9387 24.3932 14.7415 23.9413C14.7279 23.9144 14.7007 23.8941 14.6667 23.8941H12.1099C12.1099 23.8941 12.0623 23.8806 12.0555 23.8537L12.0283 23.7255L12.0351 23.7121ZM16.2919 15.0939C16.2919 15.0939 16.2647 15.1074 16.2647 15.1209C16.2647 15.1209 16.2647 15.1276 16.2647 15.1344L16.8699 16.5842C16.8699 16.5842 16.8835 16.6044 16.8971 16.6044H20.0251C20.0251 16.6044 20.0523 16.5977 20.0523 16.5842L20.4059 15.1411C20.4059 15.1411 20.4059 15.1141 20.3855 15.1074H16.3055L16.2919 15.0939ZM17.4003 18.0273C17.4003 18.0273 17.3731 18.0408 17.3731 18.0543C17.3731 18.0543 17.3731 18.0543 17.3731 18.061L17.7403 19.4974C17.7403 19.4974 17.7539 19.5176 17.7675 19.5176H19.6171C19.6171 19.5176 19.6443 19.5041 19.6443 19.4907L19.7803 18.061C19.7803 18.061 19.7667 18.0341 19.7531 18.0273H17.4003ZM19.8279 22.451C19.8279 22.451 19.8551 22.4375 19.8551 22.4241L19.6579 20.9877C19.6579 20.9877 19.6443 20.9675 19.6307 20.9675H18.0191C18.0191 20.9675 17.9919 20.9742 17.9919 20.9877L18.0055 22.4308C18.0055 22.4308 18.0191 22.4578 18.0327 22.4578H19.8279V22.451ZM17.6315 23.9346C17.3799 24.5348 16.9787 24.9866 16.4347 25.3238C16.3667 25.371 16.3735 25.3912 16.4551 25.3912H21.3511C21.3511 25.3912 21.3715 25.3777 21.3715 25.371C21.3715 25.371 21.3715 25.3642 21.3715 25.3575C20.9703 24.9259 20.6439 24.4471 20.3923 23.9211C20.3787 23.8941 20.3583 23.8806 20.3243 23.8806H17.7131C17.7131 23.8806 17.6519 23.9009 17.6383 23.9346H17.6315Z" fill="#81C41C"/>
<path d="M14.5442 30.5096H13.3678C13.3678 30.5096 13.3338 30.5231 13.3338 30.5433V31.9662C13.3338 31.9662 13.3134 31.9999 13.2998 31.9999H12.2186C12.2186 31.9999 12.1846 31.9864 12.1846 31.9662V28.3584C12.1846 28.3584 12.1982 28.3247 12.2186 28.3247H13.2998C13.2998 28.3247 13.3338 28.3449 13.3338 28.3652V29.5722C13.3338 29.5925 13.3474 29.606 13.3678 29.606H14.551C14.551 29.606 14.585 29.5857 14.585 29.5722V28.3652C14.585 28.3652 14.585 28.3315 14.6122 28.3315H15.7002C15.7002 28.3315 15.7342 28.3517 15.7342 28.3719V31.9729C15.7342 31.9729 15.7138 32.0066 15.6934 32.0066H14.619C14.619 32.0066 14.585 31.9864 14.585 31.9729V30.5568C14.585 30.5366 14.5714 30.5231 14.551 30.5231L14.5442 30.5096Z" fill="#4C4C4C"/>
<path d="M18.5292 31.3997H17.312C17.312 31.3997 17.278 31.4132 17.2712 31.4267L17.108 31.9662C17.108 31.9662 17.0876 31.9932 17.0672 31.9932H15.9724C15.9724 31.9932 15.9316 31.9797 15.9316 31.9594C15.9316 31.9594 15.9316 31.9527 15.9316 31.9459L17.2916 28.3517C17.2916 28.3517 17.312 28.3247 17.3324 28.3247H18.5428C18.5428 28.3247 18.5768 28.3382 18.5836 28.3517L19.93 31.9459C19.93 31.9459 19.93 31.9864 19.9028 31.9999C19.9028 31.9999 19.896 31.9999 19.8892 31.9999H18.7672C18.7672 31.9999 18.7332 31.9932 18.7264 31.9729L18.5632 31.4334C18.5632 31.4334 18.5428 31.4065 18.5224 31.4065L18.5292 31.3997ZM17.5364 30.5635C17.5364 30.5635 17.5364 30.5905 17.5568 30.5973C17.5568 30.5973 17.5568 30.5973 17.5636 30.5973H18.2776C18.2776 30.5973 18.3048 30.5838 18.3048 30.5703C18.3048 30.5703 18.3048 30.5703 18.3048 30.5635L17.9444 29.3902C17.9444 29.3902 17.924 29.3699 17.9104 29.3699C17.9036 29.3699 17.8968 29.3767 17.89 29.3902L17.5296 30.5635H17.5364Z" fill="#4C4C4C"/>
<path d="M21.1741 32H20.1473C20.1473 32 20.1201 31.9865 20.1201 31.973V28.3585C20.1201 28.3585 20.1269 28.3315 20.1473 28.3315H21.1877C21.1877 28.3315 21.2081 28.3383 21.2081 28.345L22.5205 30.2669C22.5205 30.2669 22.5477 30.2804 22.5613 30.2737C22.5681 30.2737 22.5749 30.2602 22.5749 30.2534L22.5613 28.3585C22.5613 28.3585 22.5749 28.3315 22.5885 28.3315H23.6357C23.6357 28.3315 23.6629 28.3383 23.6629 28.3585V31.973C23.6629 31.973 23.6493 32 23.6357 32H22.5817C22.5817 32 22.5613 32 22.5613 31.9865L21.2557 30.0714C21.2557 30.0714 21.2285 30.0579 21.2149 30.0646C21.2081 30.0646 21.2013 30.0781 21.2013 30.0848V31.973C21.2013 31.973 21.1945 32 21.1809 32H21.1741Z" fill="#4C4C4C"/>
<path d="M25.3974 28.3247H24.3026C24.2838 28.3247 24.2686 28.3398 24.2686 28.3584V31.9594C24.2686 31.9781 24.2838 31.9932 24.3026 31.9932H25.3974C25.4161 31.9932 25.4314 31.9781 25.4314 31.9594V28.3584C25.4314 28.3398 25.4161 28.3247 25.3974 28.3247Z" fill="#4C4C4C"/>
<path d="M27.233 31.0828H28.9398C28.9398 31.0828 28.9806 31.103 28.9806 31.1232V31.9594C28.9806 31.9594 28.9602 31.9999 28.933 31.9999H26.0906C26.0906 31.9999 26.0498 31.9797 26.0498 31.9594V28.3652C26.0498 28.3652 26.0634 28.3247 26.0906 28.3247H27.1582C27.1582 28.3247 27.199 28.3382 27.199 28.3652V31.0423C27.199 31.0423 27.2194 31.0828 27.2398 31.0828H27.233Z" fill="#4C4C4C"/>
<circle cx="20" cy="20" r="19.5" stroke="black" stroke-opacity="0.05"/>
</svg>
