<svg width="40" height="40" viewBox="0 0 40 40" fill="none" xmlns="http://www.w3.org/2000/svg">
<circle cx="20" cy="20" r="20" fill="#D3B369"/>
<g clip-path="url(#clip0_17658_17233)">
<path d="M9.66348 18.0012C8.3487 18.0012 7.27979 19.0649 7.27979 20.3727C7.27979 21.6805 8.32661 22.7448 9.66348 22.7448C11.0003 22.7448 12.0466 21.7032 12.0466 20.3727C12.0466 19.0422 10.9777 18.0012 9.66348 18.0012ZM9.66348 22.0391C8.7579 22.0391 8.02088 21.2917 8.02088 20.3733C8.02088 19.4549 8.72709 18.7074 9.66348 18.7074C10.5999 18.7074 11.3061 19.4235 11.3061 20.3733C11.3061 21.3231 10.5691 22.0391 9.66348 22.0391Z" fill="white"/>
<path d="M11.8484 18.0012C10.5342 18.0012 9.46533 19.0649 9.46533 20.3727C9.46533 21.6805 10.5122 22.7448 11.849 22.7448C13.1859 22.7448 14.2321 21.7032 14.2321 20.3727C14.2321 19.0422 13.1626 18.0012 11.8484 18.0012ZM11.8484 22.0391C10.9423 22.0391 10.2058 21.2917 10.2058 20.3733C10.2058 19.4549 10.9121 18.7074 11.8484 18.7074C12.7848 18.7074 13.4911 19.4235 13.4911 20.3733C13.4911 21.3231 12.754 22.0391 11.8484 22.0391Z" fill="white"/>
<path d="M5.21829 18.0936H4V22.6524H4.74051V21.2452H5.21771C6.39067 21.2452 7.06317 20.6668 7.06317 19.6583C7.06317 18.6499 6.39125 18.0936 5.21829 18.0936ZM5.28514 20.5616H4.74109V18.7766H5.28514C5.53682 18.7766 6.35812 18.8405 6.35812 19.6578C6.35812 20.325 5.77978 20.5616 5.28514 20.5616Z" fill="white"/>
<path d="M25.8856 19.924C25.8856 19.924 25.8879 19.924 25.5275 19.8019C25.098 19.6584 24.8684 19.47 24.8638 19.2585C24.8614 19.148 24.9073 19.0411 24.9974 18.9481C25.1404 18.8016 25.3776 18.7069 25.6014 18.7069C26.0791 18.7069 26.3843 19.0114 26.3843 19.2213V19.2463H27.1544L27.1504 19.2172C27.026 18.4191 26.2762 18.0012 25.5996 18.0012C25.134 18.0012 24.6888 18.1727 24.4081 18.4598C24.1942 18.679 24.0849 18.9556 24.0919 19.2596C24.1081 19.9548 24.7097 20.2692 25.2323 20.4651C25.2323 20.4651 25.3473 20.5076 25.5775 20.5924C26.1006 20.7825 26.4052 20.9621 26.4134 21.3184C26.4174 21.498 26.3523 21.6613 26.2256 21.7915C26.0722 21.9485 25.8426 22.0386 25.5955 22.0386C25.3485 22.0386 25.13 21.9601 24.9661 21.8177C24.8661 21.7299 24.6981 21.548 24.6958 21.3103L24.6946 21.194H23.9053V21.2196C23.9204 21.8322 24.372 22.7442 25.5583 22.7442C26.0716 22.7442 26.5186 22.5756 26.8179 22.2693C27.0673 22.0142 27.1946 21.6852 27.1858 21.3172C27.1661 20.4744 26.518 20.1396 25.8862 19.9234L25.8856 19.924Z" fill="white"/>
<path d="M21.3421 20.1146V20.8092H22.7824C22.765 21.4992 22.0413 22.0508 21.4403 22.0508C20.59 22.0508 19.8436 21.2643 19.8436 20.3675C19.8436 19.4706 20.5655 18.6958 21.4868 18.6958C21.9809 18.6958 22.4761 18.9527 22.7783 19.3666L22.8446 19.4572L23.373 18.9527L23.3172 18.8824C22.8772 18.3308 22.1843 18.0012 21.463 18.0012C20.1616 18.0012 19.1025 19.0707 19.1025 20.3849C19.1025 21.6991 20.1569 22.7448 21.4054 22.7448C22.654 22.7448 23.5688 21.813 23.5688 20.5291V20.1141H21.3415L21.3421 20.1146Z" fill="white"/>
<path d="M18.6354 22.5936V18.0936H17.8949V21.133L14.8038 18.0936C14.716 18.0099 14.6201 18.0547 14.6201 18.1639V22.6523H15.3606V19.6455L18.45 22.664C18.5377 22.7477 18.6348 22.7029 18.6348 22.5936H18.6354Z" fill="white"/>
<path d="M36 22.5936V18.0936H35.2595V21.133L32.169 18.0936C32.0813 18.0099 31.9854 18.0547 31.9854 18.1639V22.6523H32.7259V19.6455L35.8146 22.664C35.9024 22.7477 35.9994 22.7029 35.9994 22.5936H36Z" fill="white"/>
<path d="M28.3283 22.6523H31.835L29.5402 18.0762C29.4891 17.9744 29.3938 17.9744 29.3426 18.0762L27.0479 22.6523H27.85C27.85 22.6523 29.3978 19.5735 29.4414 19.4869C29.4839 19.5717 30.6376 21.8892 30.6719 21.9577H28.6788L28.3283 22.6523Z" fill="white"/>
</g>
<circle cx="20" cy="20" r="19.5" stroke="black" stroke-opacity="0.05"/>
<defs>
<clipPath id="clip0_17658_17233">
<rect width="32" height="4.74472" fill="white" transform="translate(4 18)"/>
</clipPath>
</defs>
</svg>
