<svg width="40" height="40" viewBox="0 0 40 40" fill="none" xmlns="http://www.w3.org/2000/svg">
<circle cx="20" cy="20" r="20" fill="#F6F8FA"/>
<circle cx="20" cy="20" r="19.5" stroke="black" stroke-opacity="0.05"/>
<g clip-path="url(#clip0_17713_28079)">
<path d="M22.4944 26.564C26.4436 26.564 29.6451 23.3626 29.6451 19.4134C29.6451 15.4642 26.4436 12.2627 22.4944 12.2627C18.5452 12.2627 15.3438 15.4642 15.3438 19.4134C15.3438 23.3626 18.5452 26.564 22.4944 26.564Z" fill="#C02E45"/>
<path d="M16.7112 13.9563C14.8752 15.9194 14.1225 18.7116 14.7938 21.3257C15.7347 24.9976 19.0151 27.5253 22.8345 27.3778C23.7245 27.3422 24.584 27.1489 25.4079 26.8031C25.4639 26.7828 25.5249 26.8031 25.5453 26.8591C25.5503 26.8692 25.5554 26.8845 25.5554 26.8997V28.1712C25.5605 28.2221 25.5198 28.2678 25.469 28.2678L11.1778 28.2577C11.0812 28.2577 11.0049 28.1814 11.0049 28.0898V13.8495C11.0049 13.7783 11.0608 13.7173 11.1371 13.7173H16.6095C16.8332 13.7173 16.8688 13.7936 16.7163 13.9563H16.7112Z" fill="#327495"/>
</g>
<defs>
<clipPath id="clip0_17713_28079">
<rect width="18.6446" height="16" fill="white" transform="translate(11 12.2627)"/>
</clipPath>
</defs>
</svg>
