<svg width="40" height="40" viewBox="0 0 40 40" fill="none" xmlns="http://www.w3.org/2000/svg">
<circle cx="20" cy="20" r="20" fill="#005BAC"/>
<circle cx="20" cy="20" r="19.5" stroke="black" stroke-opacity="0.05"/>
<path d="M27.7491 14.818L25.0753 15.944L25.1329 15.9948C26.8069 17.4662 27.7667 19.5845 27.7667 21.8092C27.7667 26.0636 24.3156 29.524 20.0734 29.524C15.8328 29.524 12.381 26.0636 12.381 21.8092C12.381 19.5823 13.3431 17.4641 15.0187 15.9948L15.0763 15.944L12.4044 14.818V11.0514L17.045 13.0358C17.0683 13.0799 19.558 17.8133 19.6154 17.9225C17.6449 18.1592 16.1662 19.8159 16.1661 21.8092C16.1661 23.9705 17.9169 25.7301 20.0734 25.7301C22.2282 25.7301 23.9806 23.9705 23.9806 21.8092C23.9805 19.8159 22.5009 18.1592 20.5294 17.9225C20.5857 17.8133 23.0774 13.0837 23.1027 13.0358L27.7491 11.0514V14.818ZM20.0724 17.6168L16.3292 10.4762L20.0724 12.3639L23.8234 10.4762L20.0724 17.6168Z" fill="#FCB813"/>
</svg>
