<svg width="40" height="40" viewBox="0 0 40 40" fill="none" xmlns="http://www.w3.org/2000/svg">
<circle cx="20" cy="20" r="20" fill="#F6F8FA"/>
<g clip-path="url(#clip0_17713_27843)">
<path d="M17.9164 23.6716C19.9419 24.8412 22.5344 24.1474 23.7032 22.1207C24.874 20.0945 24.1795 17.5037 22.1538 16.3336C20.1269 15.1651 17.5361 15.8605 16.3665 17.8841C15.1959 19.9107 15.8909 22.5015 17.9164 23.6716Z" fill="#ED6D00"/>
<path d="M29.906 24.8542C30.0502 24.5619 30.1802 24.2644 30.2964 23.9669L24.7837 20.7845C24.731 21.1089 24.6438 21.4303 24.5195 21.7456L29.906 24.8542Z" fill="#ED6D00"/>
<path d="M29.1607 26.144L23.7718 23.0358C23.558 23.2986 23.3224 23.5332 23.0674 23.7401L28.5853 26.9251C28.7864 26.6765 28.9794 26.4159 29.1608 26.144L29.1607 26.144Z" fill="#ED6D00"/>
<path d="M29.561 25.5013C29.6399 25.3638 29.7167 25.2228 29.79 25.0823L24.4195 21.9815C24.3547 22.1255 24.2818 22.2686 24.2018 22.4082C24.12 22.5496 24.0306 22.6862 23.9365 22.8163L29.3081 25.9159C29.3953 25.7806 29.4785 25.6414 29.561 25.5013Z" fill="#ED6D00"/>
<path d="M29.174 13.8774C28.9933 13.608 28.8027 13.3461 28.6021 13.0972L23.0869 16.2786C23.3424 16.488 23.5767 16.7227 23.7879 16.9855L29.174 13.8774H29.174Z" fill="#ED6D00"/>
<path d="M29.9196 15.1716L24.5322 18.2813C24.6519 18.5967 24.7378 18.9193 24.7899 19.2446L30.3091 16.0591C30.1944 15.7595 30.0625 15.4622 29.9196 15.1716Z" fill="#ED6D00"/>
<path d="M29.562 14.5014C29.4828 14.3635 29.3975 14.2269 29.3142 14.0929L23.9434 17.1937C24.0364 17.3225 24.1206 17.4551 24.2023 17.5944C24.2835 17.7371 24.3579 17.8815 24.4234 18.0285L29.7958 14.9274C29.7205 14.786 29.6433 14.6428 29.562 14.5015V14.5014Z" fill="#ED6D00"/>
<path d="M19.2997 9.02515C18.9752 9.04598 18.6551 9.08155 18.3369 9.12881V15.4955C18.6447 15.3793 18.9666 15.2938 19.2997 15.2414V9.02515Z" fill="#ED6D00"/>
<path d="M20.793 9.02515V15.2457C21.1265 15.2991 21.4493 15.3858 21.7555 15.5042V9.13222C21.4393 9.08234 21.1174 9.04677 20.793 9.02509V9.02515Z" fill="#ED6D00"/>
<path d="M20.0335 9C19.873 9 19.7155 9.00518 19.5576 9.01127V15.2106C19.7149 15.1967 19.873 15.1881 20.0335 15.1881C20.194 15.1881 20.3605 15.1967 20.5202 15.2124V9.01127C20.3592 9.00518 20.1975 9 20.0335 9Z" fill="#ED6D00"/>
<path d="M10.1602 15.146C10.0145 15.4374 9.8848 15.7339 9.76855 16.0322L15.2828 19.215C15.3346 18.8898 15.4229 18.5693 15.5457 18.2557L10.1602 15.146Z" fill="#ED6D00"/>
<path d="M10.9053 13.8531L16.2937 16.9655C16.5067 16.7027 16.7436 16.4664 16.9995 16.259L11.4814 13.0746C11.2796 13.3244 11.0866 13.5837 10.9053 13.8531Z" fill="#ED6D00"/>
<path d="M10.5048 14.4988C10.4258 14.6376 10.3486 14.7768 10.2744 14.9169L15.6464 18.0181C15.7113 17.875 15.7843 17.7323 15.8641 17.5918C15.9459 17.45 16.0331 17.3147 16.1287 17.1837L10.7574 14.0829C10.6704 14.2191 10.585 14.3583 10.5047 14.4988H10.5048Z" fill="#ED6D00"/>
<path d="M10.8906 26.1214C11.0722 26.3929 11.2648 26.6523 11.4638 26.9038L16.9777 23.7197C16.7243 23.5119 16.4888 23.2769 16.2771 23.0128L10.8906 26.1214Z" fill="#ED6D00"/>
<path d="M10.1454 24.8287L15.533 21.7187C15.4133 21.4034 15.3274 21.0807 15.2753 20.7563L9.75781 23.9422C9.87344 24.2406 10.0027 24.5368 10.1454 24.8287Z" fill="#ED6D00"/>
<path d="M10.5043 25.4992C10.5849 25.6379 10.668 25.7719 10.752 25.9055L16.1218 22.8051C16.0298 22.6785 15.9444 22.5445 15.8641 22.404C15.781 22.2639 15.708 22.1182 15.6407 21.9716L10.2705 25.0724C10.3462 25.2156 10.4215 25.3565 10.5043 25.4992H10.5043Z" fill="#ED6D00"/>
<path d="M20.7666 30.9762C21.0896 30.9541 21.4114 30.9194 21.7294 30.8699V24.5056C21.4199 24.621 21.0995 24.7073 20.7666 24.7584V30.9762Z" fill="#ED6D00"/>
<path d="M19.2734 30.9762V24.7567C18.9399 24.7021 18.6171 24.6154 18.3096 24.4965V30.8674C18.6262 30.9168 18.9481 30.9524 19.2734 30.9762Z" fill="#ED6D00"/>
<path d="M20.0333 31C20.1917 31 20.3513 30.9961 20.5079 30.9883V24.7905C20.3522 24.8044 20.1941 24.8122 20.0333 24.8122C19.8726 24.8122 19.7065 24.8044 19.5469 24.7879V30.9883C19.7076 30.9961 19.869 31 20.0333 31Z" fill="#ED6D00"/>
<path d="M25.5354 10.4763C25.3973 10.3973 25.2574 10.321 25.1177 10.2469L22.0166 15.6181C22.1593 15.6831 22.3009 15.7556 22.44 15.8345C22.5827 15.9178 22.7193 16.0058 22.8499 16.0986L25.9512 10.7292C25.8165 10.6424 25.6768 10.5579 25.5354 10.4763V10.4763Z" fill="#ED6D00"/>
<path d="M24.8886 10.1302C24.5964 9.98753 24.3015 9.85736 24.0023 9.7403L22.0293 13.1535L22.0319 15.0753L24.8886 10.1302Z" fill="#ED6D00"/>
<path d="M26.9601 11.4511C26.7126 11.2495 26.4524 11.0578 26.1803 10.8774L23.3252 15.8205L24.9914 14.8613L26.9601 11.4511Z" fill="#ED6D00"/>
<path d="M14.535 10.4763C14.3975 10.5552 14.2613 10.6398 14.1279 10.7248L17.2284 16.0938C17.356 16.0005 17.4889 15.9138 17.6295 15.8344C17.7711 15.7516 17.9166 15.6805 18.062 15.6124L14.9599 10.2425C14.8187 10.3167 14.6751 10.3947 14.535 10.4763Z" fill="#ED6D00"/>
<path d="M13.9127 10.864C13.6407 11.0444 13.3787 11.2357 13.1299 11.4369L15.1008 14.8497L16.7665 15.8093L13.9127 10.864Z" fill="#ED6D00"/>
<path d="M16.0925 9.72986C15.7938 9.84437 15.4954 9.9749 15.2041 10.1189L18.0597 15.0631L18.0621 13.1396L16.0925 9.72986Z" fill="#ED6D00"/>
<path d="M9.03516 20.0013C9.03516 20.1596 9.0393 20.3188 9.04405 20.4771H15.2463C15.2292 20.32 15.2228 20.161 15.2228 20.0013C15.2228 19.8417 15.232 19.6743 15.2463 19.5147H9.04533C9.03924 19.6761 9.03516 19.8378 9.03516 20.0013Z" fill="#ED6D00"/>
<path d="M9.05859 20.7338C9.08114 21.0587 9.11409 21.3804 9.16448 21.697L13.1058 21.6958L14.7689 20.7338H9.05859Z" fill="#ED6D00"/>
<path d="M9.16637 18.2783C9.11671 18.5966 9.08114 18.9166 9.05859 19.2428H14.7689L13.1045 18.2783H9.16637Z" fill="#ED6D00"/>
<path d="M14.5346 29.5247C14.6727 29.6053 14.8113 29.6816 14.9519 29.7546L18.0526 24.3847C17.9081 24.3196 17.768 24.2485 17.629 24.1674C17.4847 24.085 17.3494 23.997 17.2204 23.9025L14.1182 29.2723C14.2537 29.3591 14.3932 29.4432 14.5346 29.5247V29.5247Z" fill="#ED6D00"/>
<path d="M15.1816 29.8721C15.4727 30.0165 15.7686 30.1466 16.0692 30.2615L18.0398 26.8493L18.0372 24.9268L15.1816 29.8721Z" fill="#ED6D00"/>
<path d="M13.1094 28.5502C13.3579 28.7527 13.6169 28.9431 13.8891 29.1244L16.7441 24.1816L15.0779 25.1397L13.1094 28.5502Z" fill="#ED6D00"/>
<path d="M25.5348 29.5276C25.673 29.4456 25.809 29.3641 25.9409 29.2783L22.8419 23.9088C22.714 24.0007 22.5799 24.0857 22.4393 24.1673C22.2968 24.2497 22.1535 24.3234 22.0068 24.3889L25.1088 29.7583C25.2505 29.6842 25.3934 29.6078 25.5348 29.5276Z" fill="#ED6D00"/>
<path d="M26.1559 29.1381C26.4279 28.9573 26.6899 28.7673 26.9389 28.5661L24.9665 25.1526L23.3008 24.1929L26.1559 29.1382V29.1381Z" fill="#ED6D00"/>
<path d="M23.9745 30.2714C24.2755 30.156 24.5716 30.0276 24.8647 29.8837L22.0087 24.9414L22.0078 26.8609L23.9746 30.2714H23.9745Z" fill="#ED6D00"/>
<path d="M31.0352 20.0013C31.0352 19.8413 31.0298 19.6822 31.024 19.5239H24.8213C24.8382 19.6808 24.8462 19.8409 24.8462 20.0013C24.8462 20.1618 24.8382 20.3266 24.8213 20.4857H31.024C31.0298 20.3266 31.0352 20.1635 31.0352 20.0013Z" fill="#ED6D00"/>
<path d="M31.0111 19.2683C30.991 18.9417 30.9554 18.6217 30.9055 18.3055H26.9652L25.3008 19.2683H31.0111H31.0111Z" fill="#ED6D00"/>
<path d="M30.9033 21.7226C30.9528 21.406 30.9896 21.0842 31.0111 20.7607H25.3008L26.9652 21.7226H30.9033Z" fill="#ED6D00"/>
</g>
<circle cx="20" cy="20" r="19.5" stroke="black" stroke-opacity="0.05"/>
<defs>
<clipPath id="clip0_17713_27843">
<rect width="22" height="22" fill="white" transform="translate(9.03516 9)"/>
</clipPath>
</defs>
</svg>
