<svg width="40" height="40" viewBox="0 0 40 40" fill="none" xmlns="http://www.w3.org/2000/svg">
<circle cx="20" cy="20" r="20" fill="#215EAC"/>
<g clip-path="url(#clip0_14382_19408)">
<path d="M28.3233 12.2107C26.0961 10.1305 23.1342 9 19.98 9C16.8259 9 13.8752 10.1418 11.648 12.2107C9.42092 14.2909 8.19995 17.0606 8.19995 20C8.19995 22.9394 9.42092 25.6978 11.648 27.778C13.8752 29.8582 16.8372 31 19.98 31C23.1229 31 26.0961 29.8582 28.3233 27.778C30.5504 25.6978 31.7714 22.9394 31.7714 20C31.7714 17.0606 30.5391 14.3022 28.3233 12.222M19.2565 29.7564C18.6347 29.7112 18.0129 29.6095 17.4024 29.4512C16.5658 29.1799 15.7632 28.7729 15.0283 28.2528C16.3963 27.7893 17.8094 27.5067 19.2565 27.4502V29.7564ZM19.2565 26.3196C17.4476 26.3875 15.6727 26.7605 13.9995 27.4162C13.8413 27.258 13.6717 27.111 13.5247 26.9414C12.9482 26.3196 12.462 25.63 12.055 24.8952C14.4178 24.4317 16.8372 24.1716 19.2678 24.1377V26.3309L19.2565 26.3196ZM19.2565 22.7811C16.6337 22.815 14.0222 23.1089 11.4672 23.629C11.1054 22.668 10.8793 21.6393 10.8115 20.5766H19.2565V22.7698V22.7811ZM19.2565 19.3443H10.8228C10.9019 18.2929 11.1393 17.2641 11.5124 16.3032C14.0448 16.8232 16.645 17.1059 19.2565 17.1398V19.3443ZM19.2565 15.7945C16.8485 15.7492 14.4404 15.5005 12.1003 15.0483C12.4959 14.3474 12.9708 13.6917 13.5134 13.0925C13.6943 12.9003 13.8752 12.7194 14.0787 12.5385C15.7405 13.1716 17.4702 13.5334 19.2565 13.6012V15.7945ZM19.2565 12.4707C17.8546 12.4142 16.4641 12.1542 15.1301 11.702C16.3736 10.8541 17.7755 10.3453 19.2565 10.1984V12.4707ZM20.7149 10.1984C22.1958 10.334 23.5977 10.8541 24.8413 11.702C23.5072 12.1429 22.128 12.4029 20.7149 12.4707V10.1871V10.1984ZM20.7149 13.6012C22.5011 13.5334 24.2421 13.1716 25.8927 12.5385C26.0848 12.7194 26.2657 12.9003 26.4466 13.0925C27.0006 13.6917 27.4754 14.3361 27.8598 15.0483C25.5196 15.5118 23.1116 15.7605 20.7035 15.7945V13.6012H20.7149ZM20.7149 17.1398C23.3264 17.1059 25.9266 16.8232 28.4589 16.3032C28.832 17.2641 29.0581 18.2816 29.1486 19.3443H20.7149V17.1398ZM22.5689 29.4512C21.9697 29.6095 21.3479 29.7112 20.7149 29.7564V27.4502C22.1619 27.5067 23.5864 27.7893 24.943 28.2528C24.2082 28.7729 23.4055 29.1799 22.5576 29.4512M26.4466 26.9301C26.2883 27.0997 26.1301 27.2467 25.9718 27.4049C24.2873 26.7492 22.5237 26.3875 20.7035 26.3083V24.1151C23.1342 24.149 25.5535 24.409 27.9163 24.8726C27.5206 25.6074 27.0232 26.297 26.4466 26.9188M28.4929 23.6064C25.9492 23.0863 23.3264 22.7924 20.7035 22.7585V20.5653H29.1486C29.0807 21.628 28.8546 22.6454 28.4929 23.6177" fill="white"/>
</g>
<circle cx="20" cy="20" r="19.5" stroke="black" stroke-opacity="0.05"/>
<defs>
<clipPath id="clip0_14382_19408">
<rect width="23.5827" height="22" fill="white" transform="translate(8.19995 9)"/>
</clipPath>
</defs>
</svg>
