<svg width="40" height="40" viewBox="0 0 40 40" fill="none" xmlns="http://www.w3.org/2000/svg">
<circle cx="20" cy="20" r="20" fill="#234F99"/>
<g clip-path="url(#clip0_18553_55884)">
<path d="M16.8552 18.5677L14.6652 18.5977C14.6152 18.5977 14.5652 18.6177 14.5352 18.6577L11.2352 22.6777C11.1152 22.8277 11.0452 22.8077 11.0452 22.6077C11.0452 19.3977 11.0352 16.1477 11.0352 12.8577C11.0352 12.1477 11.4152 11.5677 12.0652 11.2877C12.2652 11.1977 12.5552 11.1577 12.9452 11.1577C16.1252 11.1777 19.2852 11.1777 22.4252 11.1577C22.4952 11.1577 22.5652 11.1777 22.6152 11.2177C22.6452 11.2377 22.6452 11.2777 22.6352 11.2977C22.6352 11.2977 22.6252 11.3077 22.6152 11.3177C22.4752 11.3977 22.3452 11.4877 22.2252 11.5777C21.5052 12.1677 20.7352 12.8977 20.1352 13.6677C18.6552 15.5877 17.8852 17.7877 17.8152 20.2777C17.7952 20.8877 17.8452 21.5277 17.9652 22.2177C18.3452 24.4777 19.3352 26.4477 20.9452 28.1277C21.0052 28.1877 20.9952 28.2777 20.9452 28.3377C20.9152 28.3677 20.8752 28.3777 20.8452 28.3777C19.6652 28.3577 18.4452 28.3477 17.1852 28.3477C17.0452 28.3477 16.9352 28.2977 16.8452 28.1877C15.6052 26.6377 14.3552 25.0677 13.1052 23.4877C13.0552 23.4277 13.0552 23.3377 13.1052 23.2777C14.2752 21.8677 15.4652 20.4377 16.6652 18.9777C16.7552 18.8677 16.8352 18.7477 16.9052 18.6177C16.9152 18.5977 16.9052 18.5777 16.8852 18.5577C16.8852 18.5577 16.8752 18.5577 16.8652 18.5577L16.8552 18.5677Z" fill="white"/>
<path d="M24.3354 18.8476V21.9976C24.3354 22.0676 24.3854 22.1176 24.4554 22.1176H28.1554C28.2754 22.1176 28.3354 22.1676 28.3354 22.2876C28.3354 23.7176 28.3354 25.1776 28.3354 26.6676C28.3354 27.1776 28.1554 27.6076 27.7854 27.9476C27.6854 28.0476 27.5654 28.0776 27.4354 28.0476C26.2554 27.8076 25.1954 27.3276 24.2654 26.6176C22.5954 25.3276 21.6054 23.6176 21.2854 21.4876C21.2054 20.9776 21.1854 20.5076 21.2154 20.0576C21.3554 18.0176 22.1154 16.3176 23.4954 14.9476C24.6654 13.7876 26.0554 13.0676 27.6554 12.7976C27.8254 12.7676 28.0154 12.7476 28.2054 12.7476C28.2754 12.7476 28.3154 12.7876 28.3154 12.8576C28.3154 14.6476 28.3154 16.4076 28.3154 18.1376C28.3154 18.3076 28.3154 18.4776 28.2954 18.6576C28.2954 18.7176 28.2454 18.7576 28.1854 18.7576H24.4054C24.3554 18.7576 24.3154 18.7976 24.3154 18.8476H24.3354Z" fill="white"/>
<path d="M11.2052 27.4475C11.0952 27.2475 11.0352 27.0275 11.0352 26.8075C11.0352 25.9375 11.0352 25.0675 11.0352 24.2175C11.0352 24.1875 11.0552 24.1575 11.0852 24.1475C11.1152 24.1375 11.1452 24.1475 11.1652 24.1675C11.9652 25.1775 12.7652 26.2175 13.5652 27.2575C13.7852 27.5475 14.0152 27.8375 14.2552 28.1175C14.3152 28.1875 14.3052 28.2875 14.2352 28.3375C14.2052 28.3575 14.1652 28.3775 14.1352 28.3775C13.6852 28.3675 13.2452 28.3575 12.8052 28.3675C12.0652 28.3675 11.5352 28.0675 11.2052 27.4475Z" fill="white"/>
</g>
<circle cx="20" cy="20" r="19.5" stroke="black" stroke-opacity="0.05"/>
<defs>
<clipPath id="clip0_18553_55884">
<rect width="17.3" height="17.23" fill="white" transform="translate(11.0352 11.1577)"/>
</clipPath>
</defs>
</svg>
