<svg width="40" height="40" viewBox="0 0 40 40" fill="none" xmlns="http://www.w3.org/2000/svg">
<circle cx="20" cy="20" r="20" fill="#2B4985"/>
<g clip-path="url(#clip0_14382_19478)">
<path d="M10.5172 17.711C10.5172 17.711 9.4865 17 7.36731 17C5.24812 17 4.33596 17.9852 4.33596 18.9359C4.33596 19.8867 4.94362 20.7272 7.56711 21.113C7.56711 21.113 8.96429 21.1819 8.96429 21.9039C8.96429 22.6259 7.87575 22.6025 7.47479 22.5928C7.07383 22.5832 5.59674 22.4674 4.93122 21.9742L4.00391 23.1316C4.00391 23.1316 5.18338 23.8991 7.48582 23.8991C9.78827 23.8991 10.7735 22.8684 10.7735 21.8033C10.7735 20.4971 9.47962 19.9817 7.9791 19.7875C6.80239 19.6345 6.20301 19.4885 6.18785 18.9731C6.16305 18.422 7.1386 18.1464 7.95155 18.2635C8.56516 18.3556 9.16293 18.5328 9.72763 18.7899L10.5172 17.711Z" fill="white"/>
<path d="M15.5259 18.0182H14.1095L11.1553 23.7323H12.8928L13.6961 22.174H15.9365L16.715 23.7323H18.5187L15.5259 18.0182ZM14.1866 21.2205L14.8342 19.7227L15.486 21.2205H14.1866Z" fill="white"/>
<path d="M32.5815 17.1957H30.9666L27.5867 23.7324H29.422L30.1399 22.2332H33.4468L34.2088 23.7324H35.9931L32.5815 17.1957ZM30.7558 21.1626L31.7906 19.1454L32.7978 21.1667L30.7558 21.1626Z" fill="white"/>
<path d="M19.3909 18.0182H21.1863L23.0423 20.5398L24.8749 18.0182H26.7074V23.7323H25.1876V20.3111L23.5231 22.7844H22.7061L20.8969 20.2573V23.7323H19.3922L19.3909 18.0182Z" fill="white"/>
</g>
<circle cx="20" cy="20" r="19.5" stroke="black" stroke-opacity="0.05"/>
<defs>
<clipPath id="clip0_14382_19478">
<rect width="32" height="6.89631" fill="white" transform="translate(4 17)"/>
</clipPath>
</defs>
</svg>
