<svg width="40" height="40" viewBox="0 0 40 40" fill="none" xmlns="http://www.w3.org/2000/svg">
<circle cx="20" cy="20" r="20" fill="white"/>
<circle cx="20" cy="20" r="20" fill="#0646FF"/>
<circle cx="20" cy="20" r="19.5" stroke="black" stroke-opacity="0.05"/>
<path d="M20.0001 9.5238C17.9281 9.5238 15.9027 10.1382 14.1799 11.2894C12.4571 12.4405 11.1143 14.0767 10.3214 15.9909C9.52847 17.9052 9.321 20.0116 9.72523 22.0438C10.1295 24.076 11.1272 25.9427 12.5923 27.4078C14.0575 28.8729 15.9241 29.8707 17.9563 30.2749C19.9885 30.6791 22.0949 30.4716 24.0092 29.6787C25.9235 28.8858 27.5596 27.5431 28.7108 25.8203C29.8619 24.0975 30.4763 22.072 30.4763 20C30.4765 18.6242 30.2057 17.2618 29.6793 15.9907C29.1529 14.7196 28.3812 13.5646 27.4084 12.5917C26.4355 11.6189 25.2805 10.8472 24.0094 10.3208C22.7383 9.79443 21.3759 9.5236 20.0001 9.5238ZM20.2188 28.5571C18.9604 28.7333 16.9265 28.4155 15.5438 27.5425C14.5014 26.8948 13.6684 25.9596 13.145 24.8496C12.6731 23.857 12.4418 22.6474 12.9499 22.7134C13.189 22.7402 13.3951 23.1932 13.8544 23.7815C14.169 24.1826 14.4584 24.5208 14.6771 24.568C14.7746 24.5884 14.8564 24.5444 14.9256 24.4107C15.0562 24.1606 15.2308 23.6871 15.5454 23.3096C15.7986 23.0154 16.1054 22.8786 16.2831 23.5959C16.367 23.9396 16.4316 24.2878 16.4766 24.6388C16.5332 25.0918 16.5615 25.3639 16.7188 25.4394C16.8761 25.5149 17.1247 25.419 17.5384 25.2648C17.8341 25.1547 18.2132 25.0147 18.6945 24.8763C19.1381 24.7489 19.4197 24.815 19.135 25.5055C18.9379 25.9637 18.6859 26.3963 18.3846 26.7938C18.3444 26.8449 18.3258 26.9098 18.3328 26.9745C18.3399 27.0392 18.372 27.0986 18.4224 27.1398C18.702 27.3617 19.0139 27.5394 19.3473 27.6668C19.6576 27.7959 19.9754 27.9062 20.299 27.9971C20.6938 28.1025 20.6167 28.5005 20.2188 28.5555V28.5571ZM25.5953 26.303C25.2068 26.9322 24.3888 27.6243 23.3931 28.0805C23.2358 28.1481 23.0785 28.1261 23.0423 28.005C23.0061 27.8839 23.0911 27.7769 23.1886 27.6605C24.4816 25.9837 23.5221 24.4484 21.4363 23.2561C19.8963 22.3752 18.9195 21.8687 17.779 21.2002C14.449 19.2387 13.8056 17.5304 13.6751 16.5189C13.3463 13.966 15.4573 12.0532 17.628 11.5923C17.6957 11.5797 17.8687 11.5514 17.9253 11.6945C17.982 11.8377 17.853 11.9447 17.7775 11.9903C16.8054 12.5235 15.8521 13.6592 15.9559 14.9192C16.0141 15.6239 16.3161 16.6369 18.2211 17.996C19.3709 18.8155 20.7803 19.4888 23.6212 21.1923C26.6225 22.9918 26.2811 25.1799 25.5953 26.303ZM26.0672 16.7219C25.3814 17.5618 24.6971 17.2488 24.1701 16.0691C23.8414 15.3313 23.4072 15.1551 23.1021 15.3471C22.7702 15.5578 22.9023 16.0628 23.2751 16.6448C23.3806 16.8137 23.4262 17.0133 23.4045 17.2113C23.3829 17.4094 23.2952 17.5943 23.1556 17.7364C22.8897 18.0149 22.454 18.125 21.979 18.0196C21.1327 17.834 20.3037 16.703 20.9093 14.2334C21.1547 13.2361 20.6765 12.8177 20.3729 12.426C20.2156 12.2341 20.203 12.1193 20.2581 12.0406C20.3131 11.962 20.4579 11.9509 20.7064 12.0029C21.032 12.0721 21.5149 12.2388 21.9066 12.2986C22.1936 12.3393 22.4838 12.353 22.7733 12.3395C23.4961 12.2882 24.2195 12.431 24.8686 12.7532C25.9476 13.2864 26.0577 14.2051 25.4569 14.1327C25.2127 14.0691 24.9787 13.9717 24.7616 13.8433C24.6137 13.7725 24.4863 13.7489 24.3919 13.8165C24.3447 13.8557 24.3126 13.9101 24.3012 13.9704C24.2897 14.0307 24.2995 14.0931 24.329 14.1469C24.4627 14.4284 24.9157 14.5747 25.5292 14.7446C26.6036 15.0387 26.6256 16.0345 26.0672 16.7219Z" fill="white"/>
</svg>
