<svg width="40" height="40" viewBox="0 0 40 40" fill="none" xmlns="http://www.w3.org/2000/svg">
<circle cx="20" cy="20" r="20" fill="#003976"/>
<g clip-path="url(#clip0_14382_18992)">
<path d="M24.34 22.046C24.9826 22.046 25.3388 22.1363 25.3465 22.5673C25.3517 22.8022 25.1891 23.0784 25.0162 23.2126C24.6239 23.5145 24.278 23.5481 22.4378 23.5481H13.3554L15.1105 16.2208H12.0753C11.8714 16.2208 11.7966 16.2776 11.7372 16.5202L10.0725 23.3855C9.76019 24.7508 10.4648 26 12.0366 26H16.2022C17.2578 26 18.6696 24.8489 19.2426 23.783C19.2736 23.7236 19.2942 23.6875 19.3174 23.6384C19.3174 23.6384 19.3303 23.6229 19.3329 23.6462C19.2426 24.0282 18.9226 25.3806 18.8709 25.6C18.8038 25.8864 18.9535 25.9974 19.0929 25.9974H23.576C27.3777 25.9974 28.8618 24.1882 28.9908 22.0176C29.0631 20.7968 28.2914 20.007 26.1079 20.007H24.4303C23.8341 20.007 23.2224 19.8109 23.2224 19.3283C23.2224 18.8456 23.8857 18.4223 24.7865 18.4223H28.8669C28.8669 18.4223 29.2231 16.9925 29.2954 16.6931C29.3831 16.3163 29.2696 16.2079 28.996 16.2079H23.9502C21.0209 16.2079 19.7046 18.1668 19.7046 19.5657C19.7046 20.9646 20.8325 22.0434 23.7412 22.0434H24.3374L24.34 22.046Z" fill="white"/>
<path d="M26.322 15H34.4417L30.2657 17.1448C30.2657 17.1448 30.4335 16.4427 30.4851 16.2337C30.5367 16.0117 30.467 15.844 30.1521 15.7794C29.8399 15.7175 26.322 15 26.322 15Z" fill="#ED174C"/>
</g>
<circle cx="20" cy="20" r="19.5" stroke="black" stroke-opacity="0.05"/>
<defs>
<clipPath id="clip0_14382_18992">
<rect width="25" height="11" fill="white" transform="translate(10 15)"/>
</clipPath>
</defs>
</svg>
