<svg width="40" height="40" viewBox="0 0 40 40" fill="none" xmlns="http://www.w3.org/2000/svg">
<circle cx="20" cy="20" r="20" fill="#FF0000"/>
<path d="M20.1233 12.6616C22.4522 11.4044 24.826 11.1973 27.2446 12.0401C28.6186 12.5181 29.786 13.286 30.7468 14.3436C34.72 18.7134 33.3389 25.6204 28.0006 28.0656C25.4168 29.2495 22.7898 29.1497 20.1198 27.7663C20.0537 27.7309 19.987 27.7309 19.9197 27.7663C16.8035 29.4395 13.2783 29.2111 10.4702 27.1095C5.14603 23.1292 6.22077 14.8907 12.2443 12.2756C14.8057 11.1613 17.3766 11.29 19.9569 12.6616C20.0124 12.6911 20.0679 12.6911 20.1233 12.6616ZM19.0893 26.6102C14.3884 23.5648 14.4522 16.7658 19.1389 13.7752C19.2286 13.7174 19.2221 13.6767 19.1194 13.6531C17.3311 13.2317 15.6928 13.407 14.2043 14.1789C10.0558 16.3337 9.19357 22.0793 12.7507 25.2309C14.5094 26.7902 16.6111 27.3089 19.0557 26.7872C19.2079 26.7542 19.2192 26.6951 19.0893 26.6102ZM29.0169 22.8247C31.2213 17.5129 26.3717 12.2366 20.936 13.6672C20.9259 13.6702 20.9167 13.676 20.9096 13.6839C20.9026 13.6918 20.8979 13.7015 20.8962 13.7118C20.8946 13.7221 20.8959 13.7326 20.9001 13.742C20.9044 13.7513 20.9113 13.7592 20.9201 13.7646C25.667 16.8985 25.6723 23.4939 20.9502 26.6332C20.9379 26.6415 20.9282 26.6532 20.9223 26.6668C20.9164 26.6805 20.9145 26.6955 20.917 26.71C20.9194 26.7245 20.9261 26.7379 20.936 26.7484C20.946 26.759 20.959 26.7663 20.9732 26.7695C24.3408 27.5804 27.6996 25.9993 29.0169 22.8247ZM22.4428 16.9605C21.6106 16.1543 20.8239 15.3853 20.0826 14.6535C20.0701 14.6418 20.0537 14.6352 20.0366 14.6352C20.0195 14.6352 20.003 14.6418 19.9905 14.6535L17.1151 17.474C17.0944 17.4942 17.0779 17.5184 17.0666 17.5451C17.0554 17.5719 17.0496 17.6007 17.0496 17.6298V22.791C17.0496 22.8548 17.0715 22.9096 17.1151 22.9557L19.9923 25.9905C19.9986 25.9968 20.006 26.0018 20.0142 26.0052C20.0224 26.0086 20.0312 26.0104 20.0401 26.0104C20.049 26.0104 20.0578 26.0086 20.066 26.0052C20.0742 26.0018 20.0817 25.9968 20.0879 25.9905L22.9687 22.9362C23.0111 22.8914 23.0324 22.8376 23.0324 22.7751L23.0306 17.6811C23.0306 17.6221 23.0117 17.5702 22.974 17.5253C22.8087 17.3317 22.6317 17.1435 22.4428 16.9605Z" fill="white"/>
<path d="M19.1382 13.7752C14.4515 16.7657 14.3878 23.5647 19.0887 26.6101C19.2185 26.6951 19.2073 26.7541 19.055 26.7871C16.6104 27.3089 14.5088 26.7901 12.75 25.2308C9.19291 22.0792 10.0552 16.3337 14.2036 14.1789C15.6921 13.4069 17.3305 13.2316 19.1188 13.653C19.2215 13.6766 19.228 13.7173 19.1382 13.7752Z" fill="#FF0000"/>
<path d="M29.0169 22.8249C27.6996 25.9996 24.3408 27.5807 20.9732 26.7698C20.9589 26.7666 20.946 26.7593 20.936 26.7487C20.926 26.7381 20.9194 26.7247 20.9169 26.7102C20.9145 26.6957 20.9163 26.6807 20.9222 26.6671C20.9281 26.6534 20.9379 26.6417 20.9502 26.6334C25.6723 23.4942 25.667 16.8988 20.9201 13.7649C20.9113 13.7595 20.9044 13.7516 20.9001 13.7422C20.8959 13.7328 20.8945 13.7224 20.8962 13.712C20.8979 13.7017 20.9026 13.692 20.9096 13.6841C20.9167 13.6762 20.9258 13.6704 20.936 13.6675C26.3717 12.2369 31.2213 17.5132 29.0169 22.8249Z" fill="#FF0000"/>
<path d="M22.443 16.9603C22.6318 17.1432 22.8089 17.3315 22.9742 17.5251C23.0119 17.57 23.0308 17.6219 23.0308 17.6809L23.0326 22.7749C23.0326 22.8374 23.0113 22.8911 22.9688 22.936L20.0881 25.9902C20.0819 25.9965 20.0744 26.0016 20.0662 26.005C20.058 26.0084 20.0492 26.0102 20.0403 26.0102C20.0314 26.0102 20.0226 26.0084 20.0144 26.005C20.0062 26.0016 19.9988 25.9965 19.9925 25.9902L17.1153 22.9555C17.0716 22.9094 17.0498 22.8545 17.0498 22.7908V17.6296C17.0498 17.6004 17.0556 17.5716 17.0668 17.5449C17.0781 17.5181 17.0946 17.4939 17.1153 17.4738L19.9907 14.6532C20.0032 14.6415 20.0197 14.635 20.0368 14.635C20.0539 14.635 20.0703 14.6415 20.0828 14.6532C20.8241 15.3851 21.6108 16.1541 22.443 16.9603Z" fill="#FF0000"/>
<circle cx="20" cy="20" r="19.5" stroke="black" stroke-opacity="0.05"/>
</svg>
