<svg width="40" height="40" viewBox="0 0 40 40" fill="none" xmlns="http://www.w3.org/2000/svg">
<circle cx="20" cy="20" r="20" fill="#D13831"/>
<g clip-path="url(#clip0_17713_28095)">
<path d="M7.58808 22.0551C7.62942 22.0682 7.67184 22.0748 7.71533 22.075C7.91141 22.0757 8.11343 22.0698 8.31221 22.079C8.38051 22.0822 8.44844 22.0757 8.51656 22.0757C9.00093 22.0757 9.48458 22.0757 9.96751 22.0757C9.97344 22.0757 9.9783 22.0806 9.9783 22.0865C9.9783 22.0872 9.9783 22.0879 9.97812 22.0887L9.78635 23.0285C9.78383 23.0405 9.77646 23.0466 9.76424 23.0466C8.60157 23.0472 7.44196 23.0472 6.28541 23.0463C6.11484 23.0463 5.9441 23.017 5.77336 22.9589C5.4157 22.8374 5.16731 22.5524 5.06505 22.1852C4.97195 21.8518 4.98758 21.5152 5.0566 21.1765C5.17432 20.5998 5.29258 20.011 5.41156 19.4103C5.43942 19.2698 5.4689 19.1519 5.50035 19.0566C5.75053 18.2957 6.39288 17.6406 7.20077 17.4962C7.28362 17.4813 7.38229 17.4739 7.4966 17.4741C8.63914 17.4752 9.77502 17.4752 10.9046 17.4743C10.9167 17.4743 10.9215 17.4802 10.9192 17.4921L10.7262 18.4366C10.7253 18.4407 10.7229 18.4427 10.7188 18.4427C9.94559 18.4414 9.17778 18.4416 8.41519 18.4429C8.37296 18.4429 8.32875 18.4493 8.2822 18.4625C8.11882 18.5081 7.97773 18.5884 7.85929 18.7035C7.67166 18.8857 7.57263 19.1017 7.5223 19.355C7.39451 19.9968 7.27032 20.6145 7.14972 21.2082C7.12115 21.3491 7.12025 21.5071 7.16734 21.6406C7.24174 21.8514 7.38193 21.9896 7.58808 22.0551Z" fill="white"/>
<path d="M14.8542 19.4358C14.8978 19.2009 14.9058 18.9731 14.8114 18.7577C14.7215 18.5528 14.5145 18.4431 14.2958 18.4428C13.3599 18.4415 12.4408 18.4415 11.5382 18.4428C11.5222 18.4428 11.5159 18.4352 11.5189 18.4196L11.706 17.4845C11.7071 17.4791 11.7118 17.4753 11.7172 17.4753C12.9113 17.4746 14.1216 17.4747 15.3482 17.4758C15.4856 17.4758 15.6448 17.4965 15.8258 17.5373C16.3008 17.6444 16.6781 17.9237 16.8499 18.3836C16.9818 18.7363 16.9886 19.1272 16.9131 19.4969C16.6723 20.677 16.4322 21.8574 16.1926 23.0384C16.1917 23.0435 16.1872 23.0471 16.182 23.0471C14.8272 23.0462 13.4453 23.0463 12.0362 23.048C11.8804 23.048 11.7601 23.0404 11.6753 23.025C11.0746 22.9153 10.8049 22.3373 10.7734 21.7848C10.7405 21.2052 10.8725 20.6182 11.2262 20.1601C11.5191 19.7807 11.948 19.5217 12.4228 19.4608C12.5053 19.4501 12.6126 19.4451 12.7449 19.4455C13.4278 19.4475 14.1266 19.4476 14.8414 19.4464C14.8486 19.4464 14.8529 19.4428 14.8542 19.4358ZM13.2868 22.0478C13.3466 22.0661 13.4201 22.0753 13.5069 22.0754C13.7839 22.076 14.0511 22.0758 14.3087 22.0749C14.3146 22.0749 14.3182 22.0719 14.3195 22.0661L14.6881 20.2647C14.6899 20.2561 14.6863 20.2517 14.6775 20.2517C14.4149 20.2514 14.1464 20.2514 13.8721 20.2517C13.5574 20.2523 13.308 20.3642 13.1234 20.588C12.9645 20.7807 12.8755 21.0438 12.841 21.2956C12.7948 21.6335 12.9021 21.918 13.2427 22.0361C13.2576 22.0413 13.2713 22.0427 13.2868 22.0476V22.0478Z" fill="white"/>
<path d="M19.4169 23.0579C19.4021 23.1246 19.3772 23.2459 19.3421 23.4217C19.1823 24.2217 19.0128 25.0698 18.8333 25.9661C18.8328 25.9692 18.8301 25.9713 18.827 25.9713H16.7693C16.7641 25.9713 16.7598 25.967 16.7598 25.9618C16.7598 25.9611 16.7598 25.9606 16.7599 25.9598C17.1397 24.0855 17.5204 22.2186 17.9019 20.3597C17.9889 19.9357 18.0777 19.509 18.1683 19.0795C18.2138 18.8643 18.2104 18.6339 18.1582 18.3884C18.1005 18.1174 17.9764 17.8593 17.7853 17.614C17.7512 17.5701 17.7138 17.5293 17.6731 17.4917C17.6606 17.4801 17.6629 17.4741 17.6802 17.4741C19.3026 17.4752 20.9289 17.4756 22.5591 17.475C22.753 17.4748 22.9726 17.5128 23.1558 17.5881C23.5564 17.7529 23.7944 18.0669 23.8698 18.5304C23.9139 18.8007 23.8885 19.0809 23.8303 19.3649C23.7106 19.9481 23.5923 20.5347 23.4757 21.1248C23.4487 21.2615 23.4205 21.3771 23.3909 21.4717C23.2573 21.899 23.0239 22.2603 22.6908 22.5556C22.4189 22.7964 22.0943 22.9521 21.7169 23.0225C21.6081 23.0428 21.462 23.0473 21.3367 23.0472C20.6978 23.0463 20.0623 23.0461 19.4305 23.0468C19.423 23.0468 19.4185 23.0506 19.4169 23.0579ZM20.3536 18.4509L19.6146 22.0759C19.614 22.079 19.6155 22.0804 19.6189 22.0804C19.8135 22.0806 20.0129 22.0808 20.217 22.0806C20.3105 22.0804 20.4039 22.0766 20.4976 22.0666C20.8973 22.0238 21.2156 21.7734 21.3438 21.3872C21.3682 21.3133 21.3907 21.2238 21.4112 21.119C21.5005 20.6629 21.5871 20.2319 21.6707 19.8261C21.7363 19.5078 21.7756 19.305 21.7888 19.2179C21.8066 19.098 21.7997 18.9849 21.7681 18.8787C21.6752 18.568 21.3718 18.4434 21.0663 18.4429C20.8427 18.4423 20.6088 18.4421 20.3646 18.4421C20.3585 18.4421 20.3549 18.445 20.3536 18.4509Z" fill="white"/>
<path d="M29.1158 17.4866L28.9217 18.4352C28.9208 18.4395 28.9167 18.4427 28.9118 18.4427C28.5942 18.4422 28.281 18.4418 27.972 18.4418C27.8716 18.4418 27.7781 18.4481 27.6812 18.4825C27.3512 18.5991 27.1205 18.818 26.9891 19.139C26.9422 19.2531 26.9215 19.3937 26.8958 19.5204C26.6586 20.6928 26.4224 21.8655 26.1875 23.0382C26.1864 23.0431 26.1821 23.0467 26.1772 23.0467H24.142C24.1276 23.0467 24.1219 23.0397 24.1247 23.0255C24.3747 21.7794 24.6203 20.5578 24.8613 19.3604C24.9222 19.0585 25.0219 18.783 25.1609 18.5339C25.4635 17.9914 25.958 17.5953 26.5739 17.4967C26.6719 17.481 26.7917 17.4733 26.9337 17.4736C27.6652 17.4756 28.3892 17.4758 29.1056 17.4742C29.1113 17.4742 29.116 17.4789 29.116 17.4846C29.116 17.4853 29.116 17.4859 29.1158 17.4866Z" fill="white"/>
<path d="M28.6221 21.2448C28.7384 20.6561 28.8617 20.0597 28.979 19.4664C29.0109 19.3059 29.0376 19.1893 29.0594 19.1165C29.1954 18.6641 29.4438 18.282 29.8047 17.9702C30.0811 17.7313 30.3917 17.576 30.7362 17.5041C30.8355 17.4835 30.9379 17.4738 31.0405 17.4739C31.8854 17.4759 32.7526 17.4757 33.6417 17.4738C33.758 17.4734 33.861 17.4797 33.9511 17.4926C34.4162 17.5591 34.7722 17.8304 34.916 18.2843C35.0124 18.5881 35.0262 18.913 34.9575 19.2592C34.8323 19.89 34.7101 20.4995 34.5911 21.0874C34.57 21.1911 34.5461 21.2909 34.5192 21.3868C34.4263 21.7184 34.262 22.0218 34.0265 22.297C33.9049 22.4393 33.7634 22.5675 33.6024 22.6814C33.2805 22.9093 32.9043 23.0459 32.5129 23.0464C31.6212 23.0473 30.7294 23.047 29.8371 23.0454C29.7131 23.0452 29.5811 23.0258 29.4413 22.9873C28.868 22.8293 28.5986 22.3473 28.5813 21.7779C28.5757 21.5894 28.5892 21.4118 28.6221 21.2448ZM31.4818 22.077C31.6793 22.072 31.8509 22.029 32.0267 21.9278C32.2424 21.8034 32.3946 21.6219 32.4836 21.3831C32.5051 21.325 32.5237 21.2572 32.5391 21.1796C32.6545 20.6003 32.7767 19.9936 32.9056 19.3591C32.9309 19.2344 32.9404 19.1384 32.9342 19.0714C32.9187 18.9051 32.8612 18.7705 32.7616 18.6672C32.6387 18.5397 32.4891 18.4662 32.3132 18.4466C32.2749 18.4423 32.1823 18.4405 32.0355 18.4413C31.9586 18.4414 31.8892 18.4515 31.8272 18.4714C31.4945 18.5782 31.2485 18.8462 31.1473 19.174C31.1216 19.2572 31.0959 19.3651 31.07 19.4979C30.9604 20.0581 30.8459 20.6289 30.7267 21.2103C30.6796 21.44 30.714 21.6392 30.8299 21.8078C30.9431 21.9722 31.0957 22.061 31.2875 22.0741C31.3445 22.0779 31.4093 22.079 31.4818 22.077Z" fill="white"/>
</g>
<circle cx="20" cy="20" r="19.5" stroke="black" stroke-opacity="0.05"/>
<defs>
<clipPath id="clip0_17713_28095">
<rect width="30" height="8.49776" fill="white" transform="translate(5 17.4736)"/>
</clipPath>
</defs>
</svg>
