<svg width="40" height="40" viewBox="0 0 40 40" fill="none" xmlns="http://www.w3.org/2000/svg">
<circle cx="20" cy="20" r="20" fill="#F6F8FA"/>
<path d="M29.4866 21.8273C29.4864 21.8287 29.4865 21.8302 29.4868 21.8316C29.4872 21.833 29.4879 21.8344 29.4888 21.8355C29.4898 21.8366 29.4909 21.8375 29.4922 21.8381C29.4935 21.8387 29.495 21.839 29.4964 21.839H30.4187C30.4212 21.839 30.4236 21.8399 30.4254 21.8417C30.4272 21.8435 30.4282 21.8459 30.4282 21.8484L30.4278 22.8162C30.4278 22.8185 30.427 22.8206 30.4254 22.8222C30.4239 22.8238 30.4219 22.8247 30.4197 22.8247H17.5264C17.5155 22.8247 17.5101 22.8191 17.5101 22.8081C17.5108 21.9917 17.5108 21.6709 17.5101 21.8458C17.5106 21.8455 17.5116 21.8447 17.513 21.8435C17.5145 21.8423 17.5162 21.8408 17.5179 21.8393C17.5194 21.838 21.1748 21.8378 28.484 21.8386C28.4955 21.8386 28.5024 21.833 28.5048 21.8217C28.5978 21.3802 28.653 20.9325 28.6706 20.4788C28.7587 18.2132 28.1236 16.2026 26.7651 14.4472C26.0472 13.5193 25.0852 12.6844 24.0163 12.1027C22.3867 11.2158 20.6457 10.8575 18.7932 11.0276C15.6515 11.3158 12.8974 13.2457 11.512 16.079C11.5093 16.0844 11.5052 16.089 11.5001 16.0922C11.495 16.0954 11.4891 16.0971 11.483 16.0972H10.4872C10.4853 16.0972 10.4834 16.0967 10.4817 16.0958C10.48 16.0949 10.4786 16.0936 10.4775 16.0919C10.4765 16.0903 10.4758 16.0884 10.4756 16.0864C10.4755 16.0845 10.4758 16.0825 10.4765 16.0806C11.288 14.2142 12.63 12.6048 14.3612 11.5268C16.0878 10.4519 17.9699 9.94456 20.0074 10.0048C21.3549 10.0448 22.7579 10.3766 24.0007 10.9869C25.8389 11.8898 27.2775 13.2228 28.3166 14.986C28.9894 16.1274 29.4197 17.4252 29.5838 18.7248C29.6707 19.4121 29.6876 20.0609 29.6345 20.6712C29.6027 21.0385 29.5534 21.4238 29.4866 21.8273Z" fill="#86754D"/>
<path d="M9.8171 18.0713H9.05141C9.04057 18.0713 9.03516 18.0659 9.03516 18.055V17.145C9.03516 17.1407 9.03687 17.1366 9.03992 17.1335C9.04296 17.1305 9.0471 17.1288 9.05141 17.1288H21.9373C21.9414 17.1288 21.9454 17.1305 21.9483 17.1334C21.9512 17.1364 21.9529 17.1405 21.9529 17.1447L21.9525 18.0557C21.9525 18.0661 21.9473 18.0713 21.9369 18.0713H10.848C10.8372 18.0713 10.8307 18.0765 10.8285 18.0869C10.222 20.7324 10.8886 23.5884 12.6075 25.6967C13.7929 27.1505 15.287 28.149 17.0899 28.6922C17.3048 28.757 17.5187 28.8114 17.7315 28.8554C19.7122 29.2646 21.6084 29.056 23.4199 28.2294C23.6149 28.1404 23.8069 28.0427 23.9958 27.9363C25.6955 26.9799 26.9713 25.6248 27.823 23.8709C27.8277 23.8611 27.8355 23.8562 27.8464 23.8562H28.8438C28.8454 23.8563 28.847 23.8567 28.8484 23.8575C28.8498 23.8583 28.851 23.8594 28.8518 23.8607C28.8527 23.8621 28.8532 23.8636 28.8534 23.8652C28.8535 23.8668 28.8532 23.8684 28.8526 23.8699C27.7654 26.4611 25.6686 28.4374 23.0445 29.4046C20.8202 30.2243 18.3025 30.1905 16.0873 29.3477C14.9816 28.9269 13.915 28.2908 13.0284 27.4936C11.4439 26.0684 10.4095 24.3311 9.925 22.2816C9.60607 20.9318 9.57574 19.5351 9.834 18.0914C9.83639 18.078 9.83075 18.0713 9.8171 18.0713Z" fill="#86754D"/>
<path d="M26.2005 19.5065H13.2637C13.2572 19.5065 13.252 19.5117 13.252 19.5182V20.4808C13.252 20.4873 13.2572 20.4925 13.2637 20.4925H26.2005C26.207 20.4925 26.2122 20.4873 26.2122 20.4808V19.5182C26.2122 19.5117 26.207 19.5065 26.2005 19.5065Z" fill="#86754D"/>
<circle cx="20" cy="20" r="19.5" stroke="black" stroke-opacity="0.05"/>
</svg>
