<svg width="40" height="40" viewBox="0 0 40 40" fill="none" xmlns="http://www.w3.org/2000/svg">
<circle cx="20" cy="20" r="20" fill="#F6F8FA"/>
<path d="M13.5644 11.8059H18.5624V18.9346H13.5644C12.619 18.9346 11.7124 18.5591 11.044 17.8906C10.3755 17.2222 10 16.3156 10 15.3703C10 14.4249 10.3755 13.5183 11.044 12.8499C11.7124 12.1814 12.619 11.8059 13.5644 11.8059Z" fill="#F04E23"/>
<path d="M26.4376 18.9287H21.4376V11.8H26.4376C27.3829 11.8 28.2895 12.1755 28.958 12.844C29.6264 13.5124 30.002 14.419 30.002 15.3644C30.002 16.3097 29.6264 17.2163 28.958 17.8847C28.2895 18.5532 27.3829 18.9287 26.4376 18.9287Z" fill="#224095"/>
<path d="M26.4376 28.2515H21.4376V21.1228H26.4376C27.3829 21.1228 28.2895 21.4983 28.958 22.1667C29.6264 22.8352 30.002 23.7418 30.002 24.6871C30.002 25.6324 29.6264 26.539 28.958 27.2075C28.2895 27.8759 27.3829 28.2515 26.4376 28.2515Z" fill="#FAA73F"/>
<path d="M15.4356 28.2515H10.4436V21.1228H15.4356C16.381 21.1228 17.2876 21.4983 17.956 22.1667C18.6245 22.8352 19 23.7418 19 24.6871C19 25.6324 18.6245 26.539 17.956 27.2075C17.2876 27.8759 16.381 28.2515 15.4356 28.2515Z" fill="#A7C638"/>
<circle cx="20" cy="20" r="19.5" stroke="black" stroke-opacity="0.05"/>
</svg>
