<svg width="40" height="40" viewBox="0 0 40 40" fill="none" xmlns="http://www.w3.org/2000/svg">
<circle cx="20" cy="20" r="20" fill="#F6F8FA"/>
<path d="M29.0138 16.6369C28.3132 16.3392 27.5365 16.1907 26.6838 16.1912C23.1085 16.1935 19.5329 16.1932 15.957 16.1904C15.9769 16.0936 16.0425 16.0781 16.0952 16.0254C17.3284 14.7928 18.5409 13.5803 19.7327 12.3879C20.2284 11.8916 20.8706 11.5117 21.6594 11.248C23.1085 10.7626 24.7459 11.0044 26.012 11.8447C26.4524 12.1366 26.8787 12.5278 27.291 13.0184C28.1454 14.0363 28.7228 15.2154 29.0233 16.5557C29.028 16.5776 29.0248 16.6046 29.0138 16.6369Z" fill="#40C8F4"/>
<path d="M15.9081 16.2146L15.0833 17.0376C14.243 17.0653 13.433 17.523 13.6273 18.5023L11.3016 20.8297C11.2987 20.8309 11.2958 20.832 11.293 20.8332C10.75 19.3593 10.4763 17.8281 10.4717 16.2397C10.4717 16.2262 10.477 16.2132 10.4866 16.2036C10.4962 16.1941 10.5091 16.1887 10.5226 16.1887L15.9081 16.2146Z" fill="#B2D234"/>
<path d="M15.9566 16.1904C19.5325 16.1933 23.1081 16.1936 26.6834 16.1913C27.5361 16.1907 28.3127 16.3393 29.0134 16.6369C29.033 16.6421 29.0488 16.6533 29.0609 16.6706C29.0773 16.9331 29.1421 17.2276 29.1619 17.4366C29.3324 19.2035 28.9863 20.8663 28.1239 22.4248C27.2085 22.6683 26.7202 23.2887 26.6592 24.2858L26.3138 24.595L26.3129 22.5526C26.3129 22.495 26.2841 22.4662 26.2265 22.4662L25.7075 22.4654C25.6826 22.4654 25.6586 22.4753 25.641 22.4929C25.6233 22.5106 25.6134 22.5345 25.6134 22.5595L25.6143 25.0674C25.6143 25.1163 25.6004 25.1207 25.5728 25.0804L23.843 22.4973C23.8364 22.4875 23.8274 22.4794 23.8168 22.4739C23.8063 22.4683 23.7945 22.4654 23.7826 22.4654L23.1253 22.4662C23.1167 22.4662 23.1082 22.468 23.1002 22.4713C23.0923 22.4746 23.085 22.4795 23.0789 22.4857C23.0728 22.4919 23.068 22.4992 23.0647 22.5073C23.0614 22.5154 23.0597 22.524 23.0597 22.5327L23.0589 26.1564C23.0589 26.1832 23.0695 26.2089 23.0884 26.2279C23.1074 26.2468 23.1331 26.2575 23.1599 26.2575H23.6608C23.7253 26.2575 23.7575 26.2252 23.7575 26.1607L23.7584 23.6114C23.7584 23.567 23.7707 23.5633 23.7955 23.6001L25.1151 25.5804C22.9002 27.1326 20.4424 27.953 17.7416 28.0417C17.7019 28.0388 17.6728 28.0324 17.6544 28.0227C14.7173 26.4803 12.4573 23.9473 11.3018 20.8297L13.6274 18.5023C13.8546 19.2985 14.8382 19.4583 15.5015 19.6915C15.7752 19.7873 16.0853 19.9868 16.0334 20.3202C15.9874 20.6236 15.8014 20.8127 15.4756 20.8876C14.8607 21.0292 14.4004 20.8003 14.0947 20.201C14.0929 20.1981 14.0903 20.197 14.0869 20.1975C13.9349 20.2194 13.6893 20.2851 13.3502 20.3945C13.3399 20.3979 13.3367 20.4048 13.3407 20.4152C13.7147 21.3038 14.5809 21.6285 15.5127 21.5068C16.0732 21.4334 16.5991 21.1458 16.7805 20.5965C17.0214 19.8677 16.587 19.3149 15.8918 19.0576C15.57 18.939 15.2539 18.8224 14.9436 18.7078C14.8267 18.6647 14.7141 18.6033 14.6059 18.5239C14.2622 18.27 14.365 17.8503 14.7614 17.7112C15.2346 17.5446 15.6647 17.7354 15.9695 18.1119C16.0144 18.1672 16.066 18.1744 16.1241 18.1335L16.562 17.8261C16.6253 17.7818 16.6311 17.7305 16.5792 17.6724C16.1733 17.2155 15.6923 17.0687 15.0835 17.0376L15.9082 16.2146C15.9232 16.2002 15.9393 16.1922 15.9566 16.1904ZM25.7222 20.0127C25.7258 20.013 25.7294 20.0141 25.7326 20.0158C25.7358 20.0176 25.7385 20.0201 25.7407 20.0231C25.7428 20.026 25.7443 20.0294 25.745 20.033C25.7457 20.0366 25.7455 20.0403 25.7447 20.0438C25.5953 20.6095 25.084 20.9066 24.5227 20.8548C23.1867 20.7313 23.1219 18.4652 24.4233 18.2009C24.8042 18.124 25.2213 18.2277 25.4916 18.5204C25.7464 18.7959 26.0227 18.6085 26.2283 18.4073C26.2542 18.382 26.2568 18.3543 26.236 18.3244C25.985 17.9623 25.6741 17.7322 25.3034 17.6344C23.419 17.1352 22.2315 18.8374 22.9742 20.4989C23.3577 21.3574 24.3784 21.6415 25.2153 21.4195C26.116 21.1803 26.5668 20.3254 26.5254 19.4324C26.5247 19.4177 26.5184 19.4039 26.5078 19.3938C26.4972 19.3836 26.483 19.378 26.4684 19.378L25.0417 19.3789C24.8379 19.3789 24.7147 19.4782 24.6721 19.6768C24.668 19.6969 24.6634 19.7165 24.6582 19.7355C24.6035 19.9336 24.6787 20.0268 24.8836 20.0153C25.1571 19.9998 25.4366 19.9989 25.7222 20.0127ZM17.9057 21.4014C18.0888 21.3646 18.1804 21.2526 18.1804 21.0655V17.7121C18.1804 17.6476 18.1481 17.6154 18.0836 17.6154L17.5508 17.6136C17.5231 17.6136 17.4965 17.6247 17.4769 17.6445C17.4573 17.6643 17.4463 17.6911 17.4463 17.719L17.4454 21.2209C17.4454 21.4029 17.5347 21.476 17.7131 21.4403C17.7701 21.4288 17.8343 21.4158 17.9057 21.4014ZM21.4845 20.2286L19.7685 17.6646C19.7579 17.6487 19.7434 17.6356 19.7264 17.6266C19.7094 17.6176 19.6903 17.6128 19.6709 17.6128L19.0517 17.6154C19.0315 17.6156 19.0122 17.6238 18.9979 17.6382C18.9837 17.6526 18.9757 17.672 18.9757 17.6922V21.3228C18.9757 21.3942 19.0111 21.4296 19.082 21.429L19.5837 21.4282C19.6413 21.4282 19.6701 21.3997 19.6701 21.3427V18.7786C19.6701 18.7193 19.6865 18.7145 19.7193 18.764L21.4638 21.3841C21.4706 21.3939 21.4793 21.4022 21.4894 21.4085C21.4995 21.4147 21.5108 21.4188 21.5225 21.4204C21.8256 21.4619 22.2341 21.4437 22.235 21.0586C22.2367 19.9687 22.237 18.8492 22.2358 17.7C22.2358 17.6776 22.2268 17.656 22.2108 17.6402C22.1948 17.6243 22.173 17.6154 22.1503 17.6154H21.6313C21.5668 17.6154 21.5346 17.6476 21.5346 17.7121L21.5329 20.214C21.5329 20.2715 21.5167 20.2764 21.4845 20.2286ZM17.8634 24.1572C17.579 24.042 17.2667 23.9254 16.9264 23.8074C16.7226 23.7366 16.5824 23.6307 16.5058 23.4896C16.3789 23.2547 16.581 23.0379 16.802 22.9801C17.2563 22.8618 17.5301 23.0569 17.8263 23.3678C17.8672 23.4104 17.9118 23.4148 17.9601 23.3808L18.4144 23.0613C18.4633 23.0267 18.4676 22.987 18.4273 22.9421C17.9311 22.3876 17.296 22.21 16.5222 22.4092C15.8555 22.5811 15.4721 23.1994 15.7761 23.8471C15.9272 24.1701 16.2804 24.3774 16.6069 24.4862C16.8901 24.58 17.1754 24.6785 17.4627 24.7816C17.9955 24.9741 17.9368 25.5761 17.4282 25.7212C16.8936 25.8723 16.4549 25.6642 16.2148 25.1866C16.1866 25.1296 16.142 25.1097 16.0809 25.127L15.517 25.2842C15.4571 25.3009 15.4393 25.338 15.4635 25.3956C15.8262 26.2609 16.7537 26.5165 17.638 26.3188C18.8039 26.0571 19.031 24.6296 17.8634 24.1572ZM22.6054 24.0938C22.6039 23.649 22.4257 23.223 22.1101 22.9096C21.7944 22.5962 21.3672 22.421 20.9225 22.4225L20.6029 22.4236C20.3827 22.4244 20.1647 22.4685 19.9616 22.5535C19.7584 22.6385 19.5739 22.7627 19.4187 22.919C19.2635 23.0753 19.1407 23.2606 19.0571 23.4643C18.9735 23.6681 18.9309 23.8863 18.9317 24.1066L18.9335 24.623C18.935 25.0678 19.1132 25.4938 19.4288 25.8072C19.7444 26.1206 20.1716 26.2958 20.6164 26.2943L20.936 26.2932C21.1562 26.2924 21.3741 26.2482 21.5773 26.1633C21.7805 26.0783 21.9649 25.9541 22.1201 25.7978C22.2753 25.6415 22.3982 25.4562 22.4818 25.2524C22.5654 25.0487 22.608 24.8304 22.6072 24.6102L22.6054 24.0938Z" fill="#00793A"/>
<path d="M29.0605 16.6709C29.3558 16.7964 29.6074 16.9349 29.8152 17.0863C31.3502 18.2072 32.0762 19.7318 31.9933 21.6599C31.8637 24.6618 30.1037 27.3027 27.4395 28.6482C26.4872 29.1295 25.5312 29.403 24.5714 29.4686C24.3342 29.4853 23.9347 29.4925 23.3728 29.4902C21.4374 29.4825 19.4874 28.9548 17.7628 28.0826C17.7484 28.0659 17.7412 28.0523 17.7412 28.042C20.442 27.9533 22.8998 27.1329 25.1147 25.5807C25.2523 25.7741 25.3792 25.967 25.4955 26.1593C25.5358 26.2255 25.6003 26.2583 25.689 26.2578C25.8726 26.2566 25.9875 26.2488 26.0335 26.2344C26.2345 26.1728 26.3323 26.0329 26.3272 25.8147C26.3174 25.4031 26.3128 24.9966 26.3133 24.5953L26.6588 24.2862C26.6234 25.6981 27.7469 26.6023 29.1192 26.2413C30.0096 26.0064 30.4189 25.1601 30.4094 24.2965C30.4088 24.2441 30.3821 24.2179 30.3291 24.2179H28.9007C28.8174 24.2179 28.7371 24.2487 28.6754 24.3044C28.6136 24.3601 28.5748 24.4367 28.5665 24.5193C28.5642 24.5424 28.5601 24.5648 28.5544 24.5867C28.5118 24.756 28.5777 24.8406 28.7521 24.8406L29.5993 24.8414C29.6043 24.8414 29.6092 24.8425 29.6137 24.8447C29.6181 24.8468 29.622 24.85 29.625 24.854C29.6281 24.8579 29.6301 24.8625 29.631 24.8674C29.632 24.8722 29.6318 24.8773 29.6304 24.882C29.3826 25.7966 28.1822 25.9641 27.6493 25.2378C27.3281 24.7991 27.3099 24.1108 27.5535 23.6359C27.9317 22.8975 28.8748 22.8336 29.4266 23.4061C29.4724 23.4539 29.5323 23.4857 29.5976 23.4969C29.6629 23.5081 29.7301 23.4981 29.7893 23.4683C29.8417 23.4418 29.9114 23.4067 29.9983 23.363C30.1307 23.2962 30.1521 23.2041 30.0622 23.0866C29.711 22.6243 29.2107 22.3992 28.5613 22.4113C28.4231 22.4136 28.2772 22.4182 28.1234 22.4251C28.9859 20.8666 29.3319 19.2038 29.1615 17.4369C29.1416 17.2279 29.0769 16.9334 29.0605 16.6709Z" fill="#B2D234"/>
<path d="M15.0843 17.0374C15.6931 17.0684 16.1742 17.2153 16.58 17.6721C16.6319 17.7303 16.6261 17.7815 16.5628 17.8258L16.1249 18.1333C16.0668 18.1741 16.0153 18.1669 15.9703 18.1117C15.6655 17.7351 15.2354 17.5443 14.7622 17.711C14.3658 17.85 14.263 18.2697 14.6067 18.5236C14.715 18.6031 14.8275 18.6644 14.9444 18.7076C15.2547 18.8221 15.5708 18.9387 15.8926 19.0573C16.5878 19.3147 17.0222 19.8674 16.7813 20.5963C16.5999 21.1455 16.074 21.4331 15.5135 21.5065C14.5817 21.6283 13.7155 21.3036 13.3415 20.4149C13.3375 20.4045 13.3407 20.3976 13.351 20.3942C13.6901 20.2848 13.9357 20.2192 14.0877 20.1973C14.0911 20.1967 14.0937 20.1979 14.0955 20.2007C14.4012 20.8001 14.8615 21.0289 15.4764 20.8873C15.8022 20.8125 15.9882 20.6233 16.0343 20.3199C16.0861 19.9866 15.776 19.7871 15.5023 19.6912C14.839 19.458 13.8554 19.2983 13.6283 18.502C13.4339 17.5227 14.244 17.065 15.0843 17.0374Z" fill="white"/>
<path d="M25.723 20.0125C25.4374 19.9987 25.1579 19.9995 24.8844 20.0151C24.6795 20.0266 24.6044 19.9333 24.659 19.7353C24.6642 19.7163 24.6688 19.6967 24.6729 19.6766C24.7155 19.4779 24.8387 19.3786 25.0425 19.3786L26.4692 19.3777C26.4838 19.3777 26.498 19.3834 26.5086 19.3935C26.5192 19.4037 26.5255 19.4175 26.5262 19.4322C26.5676 20.3251 26.1168 21.1801 25.2161 21.4193C24.3792 21.6413 23.3585 21.3571 22.975 20.4987C22.2323 18.8371 23.4198 17.135 25.3042 17.6341C25.6749 17.732 25.9858 17.962 26.2369 18.3242C26.2576 18.3541 26.255 18.3817 26.2291 18.4071C26.0235 18.6083 25.7472 18.7957 25.4924 18.5202C25.2221 18.2274 24.805 18.1238 24.4241 18.2007C23.1227 18.4649 23.1875 20.731 24.5235 20.8545C25.0848 20.9063 25.5961 20.6092 25.7455 20.0436C25.7464 20.04 25.7465 20.0363 25.7458 20.0328C25.7451 20.0292 25.7436 20.0258 25.7415 20.0228C25.7393 20.0198 25.7366 20.0174 25.7334 20.0156C25.7302 20.0138 25.7267 20.0128 25.723 20.0125Z" fill="white"/>
<path d="M17.9056 21.401C17.8342 21.4154 17.77 21.4284 17.713 21.4399C17.5346 21.4756 17.4453 21.4025 17.4453 21.2206L17.4462 17.7186C17.4462 17.6907 17.4572 17.6639 17.4768 17.6441C17.4964 17.6244 17.523 17.6133 17.5507 17.6133L18.0835 17.615C18.148 17.615 18.1802 17.6472 18.1802 17.7117V21.0651C18.1802 21.2522 18.0887 21.3642 17.9056 21.401Z" fill="white"/>
<path d="M21.4853 20.2284C21.5176 20.2762 21.5337 20.2713 21.5337 20.2137L21.5354 17.7119C21.5354 17.6474 21.5677 17.6151 21.6321 17.6151H22.1512C22.1738 17.6151 22.1956 17.6241 22.2116 17.6399C22.2277 17.6558 22.2367 17.6773 22.2367 17.6998C22.2378 18.8489 22.2375 19.9685 22.2358 21.0583C22.2349 21.4435 21.8265 21.4616 21.5233 21.4202C21.5116 21.4185 21.5003 21.4145 21.4902 21.4082C21.4801 21.402 21.4714 21.3937 21.4646 21.3839L19.7201 18.7637C19.6873 18.7142 19.6709 18.7191 19.6709 18.7784V21.3425C19.6709 21.3995 19.6421 21.4279 19.5845 21.4279L19.0828 21.4288C19.012 21.4294 18.9766 21.394 18.9766 21.3226V17.692C18.9766 17.6718 18.9845 17.6523 18.9988 17.638C19.013 17.6236 19.0323 17.6154 19.0526 17.6151L19.6718 17.6125C19.6911 17.6126 19.7102 17.6173 19.7272 17.6264C19.7442 17.6354 19.7587 17.6484 19.7693 17.6644L21.4853 20.2284Z" fill="white"/>
<path d="M11.2933 20.8328C11.2962 20.8316 11.2991 20.8305 11.3019 20.8293C12.4574 23.947 14.7175 26.4799 17.6546 28.0223C17.673 28.0321 17.7021 28.0384 17.7418 28.0413C17.7418 28.0517 17.749 28.0652 17.7634 28.0819C17.6966 28.0485 17.6321 28.0353 17.57 28.0422C17.4888 28.0508 17.4462 28.0551 17.4422 28.0551C13.7632 28.0108 10.622 26.7234 8.01851 24.1931C8.01274 24.1876 8.00812 24.181 8.00494 24.1737C8.00176 24.1664 8.00008 24.1585 8 24.1505C7.99992 24.1425 8.00144 24.1346 8.00447 24.1273C8.0075 24.1199 8.01198 24.1132 8.01765 24.1076L11.2933 20.8328Z" fill="#40C8F4"/>
<path d="M17.8635 24.1567C19.0311 24.6291 18.804 26.0567 17.6381 26.3183C16.7538 26.5161 15.8263 26.2605 15.4636 25.3952C15.4394 25.3376 15.4572 25.3004 15.5171 25.2838L16.081 25.1266C16.1421 25.1093 16.1867 25.1292 16.2149 25.1862C16.455 25.6637 16.8937 25.8719 17.4283 25.7207C17.9369 25.5756 17.9956 24.9737 17.4628 24.7811C17.1755 24.6781 16.8902 24.5796 16.607 24.4858C16.2805 24.377 15.9273 24.1697 15.7762 23.8467C15.4722 23.199 15.8556 22.5807 16.5223 22.4088C17.2961 22.2096 17.9312 22.3872 18.4274 22.9417C18.4677 22.9866 18.4634 23.0263 18.4145 23.0608L17.9602 23.3804C17.9119 23.4143 17.8673 23.41 17.8264 23.3674C17.5302 23.0565 17.2564 22.8613 16.8021 22.9797C16.5811 23.0375 16.379 23.2543 16.5059 23.4892C16.5825 23.6302 16.7227 23.7362 16.9265 23.807C17.2668 23.925 17.5791 24.0416 17.8635 24.1567Z" fill="white"/>
<path d="M22.6072 24.6105C22.608 24.8308 22.5653 25.049 22.4818 25.2528C22.3982 25.4566 22.2753 25.6419 22.1201 25.7982C21.9649 25.9544 21.7805 26.0786 21.5773 26.1636C21.3741 26.2486 21.1562 26.2927 20.9359 26.2935L20.6164 26.2946C20.1716 26.2962 19.7444 26.121 19.4288 25.8075C19.1132 25.4941 18.935 25.0682 18.9335 24.6234L18.9317 24.1069C18.9309 23.8867 18.9735 23.6685 19.0571 23.4647C19.1406 23.2609 19.2635 23.0756 19.4187 22.9193C19.5739 22.7631 19.7584 22.6389 19.9615 22.5539C20.1647 22.4689 20.3827 22.4247 20.6029 22.424L20.9224 22.4229C21.3672 22.4213 21.7944 22.5965 22.11 22.9099C22.4257 23.2234 22.6038 23.6493 22.6054 24.0941L22.6072 24.6105ZM20.4706 25.7371C21.0164 25.9426 21.4707 25.6015 21.6175 25.066C21.7911 24.4287 21.7971 22.9856 20.8281 22.926C20.2642 22.8915 19.9585 23.3397 19.8765 23.844C19.7815 24.4339 19.791 25.4823 20.4706 25.7371Z" fill="white"/>
<path d="M26.659 24.2855C26.72 23.2883 27.2083 22.668 28.1237 22.4244C28.2774 22.4175 28.4234 22.4129 28.5615 22.4106C29.211 22.3985 29.7113 22.6236 30.0625 23.086C30.1523 23.2034 30.131 23.2955 29.9986 23.3623C29.9116 23.4061 29.842 23.4412 29.7896 23.4677C29.7303 23.4975 29.6631 23.5075 29.5978 23.4963C29.5325 23.4851 29.4726 23.4533 29.4269 23.4055C28.875 22.8329 27.932 22.8968 27.5537 23.6352C27.3102 24.1102 27.3283 24.7985 27.6496 25.2372C28.1824 25.9635 29.3828 25.7959 29.6307 24.8814C29.632 24.8766 29.6322 24.8716 29.6313 24.8667C29.6304 24.8618 29.6283 24.8573 29.6253 24.8533C29.6223 24.8494 29.6184 24.8462 29.6139 24.844C29.6095 24.8419 29.6045 24.8407 29.5996 24.8408L28.7524 24.8399C28.5779 24.8399 28.512 24.7553 28.5546 24.586C28.5604 24.5642 28.5644 24.5417 28.5667 24.5187C28.5751 24.436 28.6139 24.3595 28.6756 24.3038C28.7374 24.2481 28.8177 24.2173 28.9009 24.2173H30.3293C30.3823 24.2173 30.4091 24.2435 30.4096 24.2959C30.4191 25.1595 30.0098 26.0058 29.1194 26.2407C27.7472 26.6017 26.6236 25.6975 26.659 24.2855Z" fill="white"/>
<path d="M26.3145 24.595C26.3139 24.9963 26.3185 25.4027 26.3283 25.8144C26.3335 26.0326 26.2356 26.1725 26.0347 26.2341C25.9886 26.2485 25.8738 26.2563 25.6901 26.2574C25.6014 26.258 25.537 26.2252 25.4967 26.159C25.3804 25.9667 25.2534 25.7738 25.1158 25.5803L23.7962 23.6001C23.7715 23.5633 23.7591 23.567 23.7591 23.6113L23.7582 26.1607C23.7582 26.2252 23.726 26.2574 23.6615 26.2574H23.1606C23.1338 26.2574 23.1081 26.2468 23.0892 26.2278C23.0702 26.2089 23.0596 26.1832 23.0596 26.1564L23.0604 22.5327C23.0604 22.524 23.0621 22.5153 23.0654 22.5072C23.0687 22.4992 23.0736 22.4918 23.0797 22.4857C23.0858 22.4795 23.093 22.4746 23.101 22.4713C23.1089 22.4679 23.1174 22.4662 23.1261 22.4662L23.7833 22.4653C23.7952 22.4653 23.807 22.4683 23.8176 22.4738C23.8281 22.4794 23.8371 22.4875 23.8437 22.4973L25.5735 25.0803C25.6012 25.1206 25.615 25.1163 25.615 25.0674L25.6141 22.5595C25.6141 22.5345 25.624 22.5106 25.6417 22.4929C25.6593 22.4752 25.6833 22.4653 25.7082 22.4653L26.2273 22.4662C26.2848 22.4662 26.3136 22.495 26.3136 22.5526L26.3145 24.595Z" fill="white"/>
<path d="M20.4711 25.737C19.7915 25.4822 19.782 24.4338 19.877 23.844C19.959 23.3396 20.2647 22.8914 20.8287 22.9259C21.7976 22.9855 21.7916 24.4286 21.618 25.066C21.4712 25.6014 21.0169 25.9425 20.4711 25.737Z" fill="#00793A"/>
<circle cx="20" cy="20" r="19.5" stroke="black" stroke-opacity="0.05"/>
</svg>
