<svg width="40" height="40" viewBox="0 0 40 40" fill="none" xmlns="http://www.w3.org/2000/svg">
<circle cx="20" cy="20" r="20" fill="#F6F8FA"/>
<path d="M26.5422 16.714C26.458 16.8947 26.4514 17.0088 26.5224 17.0561C26.4788 17.0296 26.4504 17.0499 26.4372 17.1171C26.2442 18.1343 25.736 19.0328 24.9128 19.8125C24.3024 20.1276 23.6807 20.1702 23.0477 19.9403C22.2916 19.6659 21.9013 19.1118 21.8767 18.2782C21.8653 17.8552 22.0158 17.4578 22.1393 17.0589C22.416 16.1704 22.2755 15.1839 21.915 14.3365C21.5904 13.5738 21.1007 12.9848 20.4459 12.5693C20.1847 12.3763 19.978 12.2528 19.8256 12.1989C18.1498 11.6075 16.7006 11.8762 15.478 13.0051C14.5526 13.8605 14.1234 14.9729 14.1906 16.3421C14.0979 16.3828 13.9843 16.4017 13.85 16.3989C13.6371 14.5622 14.0889 12.9729 15.2055 11.6311C17.6511 8.69156 21.9774 8.31258 24.7524 11.1386C26.221 12.6346 26.8176 14.4931 26.5422 16.714Z" fill="#456BF7"/>
<path d="M20.4467 12.5694C20.2357 12.7075 19.9981 12.8036 19.7341 12.8575C19.367 12.9332 19.1243 13.0009 19.006 13.0605C18.0843 13.5232 17.5587 14.2793 17.429 15.3287C17.413 15.4555 17.4224 15.6651 17.4574 15.9575C17.4839 16.1808 17.4797 16.3923 17.4447 16.5919C16.4416 16.1652 15.3572 16.0819 14.1914 16.3421C14.1242 14.9729 14.5533 13.8605 15.4788 13.0051C16.7014 11.8762 18.1506 11.6075 19.8264 12.1989C19.9787 12.2528 20.1855 12.3763 20.4467 12.5694Z" fill="#DBDCDC"/>
<path d="M20.4468 12.5693C21.1016 12.9847 21.5913 13.5738 21.9159 14.3365C22.2764 15.1839 22.417 16.1703 22.1402 17.0589C22.0167 17.4577 21.8662 17.8552 21.8776 18.2782C21.9022 19.1118 22.2925 19.6659 23.0486 19.9403C23.6816 20.1702 24.3033 20.1276 24.9137 19.8125C25.9782 20.1929 26.6903 20.7801 27.0499 21.574C27.3309 22.1947 27.3886 22.7701 27.223 23.3C27.0451 23.8696 26.9444 24.2638 26.9207 24.4823C25.4956 25.1504 24.1269 25.0581 22.8144 24.2056C22.1828 23.7968 21.6874 23.229 20.9876 22.8955C19.7882 22.3234 18.41 23.1183 18.3248 24.4568C18.164 24.4577 18.005 24.5192 17.8479 24.6413C17.6066 24.8296 17.4746 24.9299 17.4519 24.9422C16.0779 25.713 14.359 25.2077 13.5997 23.855C13.5448 23.7566 13.4658 23.5436 13.3626 23.2162C13.2907 22.9863 13.1923 22.7767 13.0674 22.5874C13.427 21.7983 13.9668 21.1884 14.6869 20.7578C15.4165 20.3207 16.2497 20.2114 17.0516 19.9687C17.7102 19.769 18.1256 19.3806 18.2979 18.8033C18.5675 17.9034 18.2832 17.1663 17.4448 16.5919C17.4798 16.3922 17.4841 16.1808 17.4576 15.9574C17.4226 15.665 17.4131 15.4554 17.4292 15.3286C17.5588 14.2792 18.0845 13.5232 19.0061 13.0604C19.1244 13.0008 19.3671 12.9332 19.7343 12.8575C19.9983 12.8035 20.2358 12.7075 20.4468 12.5693Z" fill="#F6F8FA"/>
<path d="M17.4445 16.5919C18.2829 17.1663 18.5672 17.9034 18.2976 18.8033C18.1253 19.3805 17.7099 19.769 17.0513 19.9686C16.2494 20.2113 15.4162 20.3206 14.6866 20.7578C13.9665 21.1884 13.4267 21.7982 13.0671 22.5874C12.5485 23.7712 12.5585 24.9048 13.0969 25.9883C14.2097 28.2309 16.9321 29.0939 19.0768 27.6447C19.3115 27.4867 19.5499 27.3239 19.7922 27.1565C19.8016 27.2009 19.8329 27.2501 19.8859 27.3041C18.6548 28.4651 17.2023 29.0585 15.5283 29.084C14.5764 29.0982 13.6897 28.9123 12.8684 28.5262C10.7847 27.5458 9.53608 25.9083 9.12257 23.6136C8.85004 22.1048 9.22902 20.4754 10.0608 19.1681C10.9361 17.7922 12.1993 16.8691 13.8506 16.3988C13.9849 16.4017 14.0985 16.3828 14.1912 16.3421C15.357 16.0818 16.4415 16.1651 17.4445 16.5919Z" fill="#5A5A5A"/>
<path d="M19.8856 27.3041C19.8326 27.2502 19.8013 27.201 19.7919 27.1565C19.6575 27.0013 19.5061 26.8381 19.3377 26.6668C18.7387 26.0555 18.4009 25.3189 18.3242 24.4568C18.4094 23.1183 19.7876 22.3234 20.987 22.8955C21.6868 23.229 22.1821 23.7968 22.8138 24.2056C24.1262 25.0582 25.495 25.1504 26.9201 24.4824C28.63 23.4405 29.3406 22.0301 29.052 20.2511C28.9309 19.5055 28.6631 18.8696 28.2486 18.3435C27.8039 17.7785 27.2286 17.3494 26.5227 17.0561C26.4517 17.0088 26.4583 16.8947 26.5425 16.714C28.0073 17.1729 29.1386 17.9981 29.9363 19.1894C31.3827 21.3469 31.4082 24.0821 29.969 26.2523C29.1135 27.5421 27.8981 28.4032 26.3225 28.8356C24.121 29.4389 21.6555 28.6923 19.8927 27.2686C19.8917 27.2677 19.8908 27.2677 19.8898 27.2686C19.8889 27.28 19.8874 27.2918 19.8856 27.3041Z" fill="#EF5F00"/>
<path d="M26.5227 17.0562C27.2286 17.3495 27.8039 17.7786 28.2487 18.3436C28.6631 18.8697 28.9309 19.5056 29.052 20.2512C29.3407 22.0302 28.63 23.4406 26.9201 24.4824C26.9438 24.2639 27.0445 23.8697 27.2224 23.3001C27.388 22.7702 27.3303 22.1949 27.0493 21.5741C26.6897 20.7802 25.9776 20.193 24.9131 19.8126C25.7363 19.0329 26.2445 18.1344 26.4375 17.1172C26.4508 17.05 26.4792 17.0297 26.5227 17.0562Z" fill="#DBDCDC"/>
<path d="M13.0672 22.5875C13.1921 22.7768 13.2905 22.9864 13.3624 23.2163C13.4655 23.5437 13.5445 23.7566 13.5994 23.855C14.3588 25.2077 16.0777 25.713 17.4517 24.9423C17.4744 24.93 17.6064 24.8297 17.8477 24.6414C18.0048 24.5193 18.1637 24.4578 18.3246 24.4569C18.4012 25.3189 18.7391 26.0556 19.338 26.6669C19.5065 26.8381 19.6579 27.0014 19.7923 27.1566C19.55 27.3241 19.3116 27.4868 19.0769 27.6448C16.9322 29.094 14.2098 28.231 13.097 25.9884C12.5585 24.9049 12.5486 23.7713 13.0672 22.5875Z" fill="#DBDCDC"/>
<circle cx="20" cy="20" r="19.5" stroke="black" stroke-opacity="0.05"/>
</svg>
