<svg width="40" height="40" viewBox="0 0 40 40" fill="none" xmlns="http://www.w3.org/2000/svg">
<circle cx="20" cy="20" r="20" fill="#F6F8FA"/>
<path d="M13.6103 26.275C13.5365 26.275 13.4688 26.2585 13.4072 26.2255C13.3457 26.1815 13.3088 26.1265 13.2965 26.0605L9.09073 15.0055C9.07842 14.9835 9.07227 14.956 9.07227 14.923C9.07227 14.791 9.15843 14.725 9.33075 14.725H11.9195C12.0795 14.725 12.178 14.7965 12.2149 14.9395L14.3343 20.3185C14.3466 20.3515 14.3651 20.3735 14.3897 20.3845C14.4143 20.3845 14.4328 20.3625 14.4451 20.3185L16.2321 14.9395C16.269 14.7965 16.3737 14.725 16.546 14.725H18.1416C18.3016 14.725 18.4001 14.7965 18.437 14.9395L20.3718 20.3185C20.3841 20.3625 20.4026 20.3845 20.4272 20.3845C20.4518 20.3845 20.4703 20.3625 20.4826 20.3185L22.4173 14.9395C22.4542 14.7965 22.5527 14.725 22.7127 14.725H25.3199C25.4184 14.725 25.4861 14.7525 25.523 14.8075C25.5723 14.8515 25.5846 14.9175 25.56 15.0055L21.7235 26.0605C21.6866 26.2035 21.5881 26.275 21.4281 26.275H19.574C19.4016 26.275 19.297 26.2035 19.2601 26.0605L17.3807 20.3845C17.3684 20.3515 17.35 20.335 17.3253 20.335C17.3007 20.335 17.2823 20.3515 17.27 20.3845L15.5568 26.044C15.5198 26.198 15.4214 26.275 15.2614 26.275H13.6103Z" fill="#F90303"/>
<circle cx="28.8719" cy="17.475" r="2.2" fill="#F90303"/>
<circle cx="28.8719" cy="23.525" r="2.2" fill="#F90303"/>
<circle cx="20" cy="20" r="19.5" stroke="black" stroke-opacity="0.05"/>
</svg>
