<svg width="40" height="40" viewBox="0 0 40 40" fill="none" xmlns="http://www.w3.org/2000/svg">
<circle cx="20" cy="20" r="20" fill="#E91E24"/>
<path d="M27.7479 16.9755L27.716 11.0449C27.716 10.9088 27.648 10.8407 27.5118 10.8407L11.7012 10.8439C11.4566 10.8439 11.3333 10.9662 11.3312 11.2108L11.3152 13.3961C11.3131 13.696 11.462 13.8427 11.7618 13.8363L13.2868 13.8012C13.4526 13.797 13.5367 13.8778 13.5388 14.0437L13.542 14.8763C13.5419 14.9271 13.5262 14.9766 13.4971 15.0183C13.468 15.0599 13.4269 15.0916 13.3793 15.1092C11.848 15.6866 11.3025 17.3711 11.2993 18.9247C11.2971 21.8214 11.2939 24.8616 11.2897 28.0455C11.2897 28.0886 11.3068 28.13 11.3373 28.1605C11.3679 28.191 11.4092 28.2082 11.4524 28.2082H16.7641C17.1554 28.2082 17.1958 28.0869 16.8853 27.8445C15.5263 26.7885 14.0014 24.5362 14.0109 22.6157C14.0141 22.0319 14.6809 21.7384 15.0637 21.362C15.153 21.2705 15.253 21.2578 15.3636 21.3237C15.9091 21.6427 16.6556 22.0575 16.7896 22.7465C17.8615 28.2369 25.7604 27.8062 26.3155 22.2361C26.3187 22.2076 26.3299 22.1806 26.3479 22.1583C26.3659 22.136 26.3899 22.1194 26.4171 22.1103C26.4443 22.1012 26.4736 22.1002 26.5013 22.1072C26.5291 22.1142 26.5543 22.1291 26.5739 22.15C26.8717 22.4669 27.2279 22.7189 27.6426 22.9061C27.7532 22.955 27.8532 22.9401 27.9425 22.8614L28.705 22.1883C28.9347 21.9883 29.0378 22.0394 29.0144 22.3414C28.7688 25.4805 26.7015 28.2752 23.6517 29.1652C22.7861 29.4162 21.7908 29.5364 20.6657 29.5257C17.0905 29.4896 13.6026 29.4885 10.2018 29.5225C10.1511 29.5225 10.1024 29.5024 10.0665 29.4665C10.0306 29.4306 10.0104 29.3819 10.0104 29.3311C9.99553 25.756 9.9966 22.2234 10.0136 18.7333C10.02 17.4444 10.3518 16.3215 11.009 15.3644C11.1174 15.207 11.0759 15.1326 10.8845 15.1411L10.3039 15.1634C10.2668 15.1652 10.2298 15.1594 10.195 15.1463C10.1602 15.1333 10.1285 15.1134 10.1016 15.0877C10.0748 15.0621 10.0534 15.0313 10.0388 14.9971C10.0243 14.963 10.0168 14.9262 10.0168 14.8891L10.0072 9.66036C10.0072 9.62482 10.0213 9.59074 10.0465 9.56561C10.0716 9.54048 10.1057 9.52637 10.1412 9.52637L28.8166 9.53913C28.9336 9.53913 28.9921 9.59761 28.9921 9.71459V20.7335C28.9922 20.8558 28.953 20.9744 28.8804 21.0717C28.6252 21.412 28.286 21.7257 27.8628 22.0128C27.7607 22.0809 27.6575 22.0819 27.5533 22.016C27.0588 21.7065 26.3921 21.3205 26.2517 20.708C25.7126 18.4047 23.8782 16.7458 21.4824 16.7681C18.9813 16.7936 17.0033 18.6535 16.7258 21.1068C16.7232 21.1348 16.7133 21.1616 16.697 21.1845C16.6807 21.2074 16.6587 21.2257 16.6331 21.2373C16.6075 21.249 16.5793 21.2537 16.5513 21.2509C16.5233 21.2482 16.4966 21.2381 16.4738 21.2216L15.3572 20.4241C15.3104 20.3916 15.2536 20.3769 15.1973 20.3828C15.141 20.3887 15.089 20.4147 15.0509 20.456C14.8 20.7325 14.5182 20.9547 14.2055 21.1227C14.08 21.1908 14.0141 21.1536 14.0077 21.0111C13.9886 20.59 14.0471 20.1604 14.1832 19.7222C15.0616 16.9255 16.779 15.1156 19.3354 14.2925C22.3054 13.3355 25.6073 14.468 27.5661 17.0393C27.6873 17.1988 27.7479 17.1775 27.7479 16.9755Z" fill="white"/>
<circle cx="20" cy="20" r="19.5" stroke="black" stroke-opacity="0.05"/>
</svg>
