<svg width="40" height="40" viewBox="0 0 40 40" fill="none" xmlns="http://www.w3.org/2000/svg">
<circle cx="20" cy="20" r="20" fill="#F6F8FA"/>
<path d="M14.7374 22.0095C14.6231 22.0663 14.5107 22.1273 14.4002 22.1924C14.2859 22.2595 14.176 22.3106 14.0706 22.3457C13.0244 22.69 12.0437 22.7813 11.1284 22.6197C9.37065 22.31 8.32029 21.2743 7.9773 19.5127C7.80677 18.6364 7.82273 17.6729 8.02521 16.6222C8.77314 15.668 9.7526 15.1347 10.9636 15.0223C11.5448 14.968 12.0826 15.013 12.577 15.1573C13.8158 15.5195 15.0047 16.4766 15.3037 17.7844C15.5636 18.9226 15.3056 19.9119 14.5295 20.7525C13.6852 21.6677 12.6402 21.974 11.3947 21.6713C11.3749 21.6661 11.3586 21.6553 11.3459 21.6387C11.3344 21.6233 11.3353 21.6087 11.3487 21.5946C11.3564 21.5863 11.3663 21.5815 11.3784 21.5802C12.265 21.5208 12.8976 21.1268 13.2764 20.398C13.6127 19.7513 13.5753 18.8708 13.17 18.2557C12.737 17.5998 12.1372 17.2677 11.3708 17.2593C10.6685 17.2517 9.97967 17.6368 9.6156 18.2289C9.18 18.936 9.13784 19.6526 9.48914 20.3788C9.92027 21.2708 10.9971 21.8974 11.9686 22.1158C12.7312 22.2863 13.5533 22.3065 14.3121 22.1005C14.4519 22.0621 14.5937 22.0318 14.7374 22.0095Z" fill="#F16123"/>
<path d="M8.02552 16.6223C7.82305 17.6729 7.80708 18.6364 7.97762 19.5127C8.32061 21.2743 9.37097 22.31 11.1287 22.6198C12.044 22.7814 13.0247 22.69 14.0709 22.3458C14.1763 22.3106 14.2862 22.2595 14.4005 22.1925C14.511 22.1273 14.6234 22.0663 14.7378 22.0095C14.7761 21.9667 14.8208 21.9517 14.8719 21.9644C14.8799 21.9665 14.8873 21.9704 14.8935 21.9758C14.8997 21.9813 14.9045 21.9881 14.9074 21.9958C14.9103 22.0034 14.9113 22.0116 14.9103 22.0197C14.9093 22.0278 14.9063 22.0354 14.9016 22.042C13.4808 24.0655 10.8643 24.9191 8.57737 23.9668C8.57038 23.9639 8.56431 23.9592 8.55976 23.9533C8.55522 23.9474 8.55237 23.9405 8.5515 23.9333C8.54895 23.9128 8.55374 23.8965 8.56587 23.8844C8.57673 23.8742 8.58982 23.8691 8.60515 23.8691C9.07269 23.8796 9.67436 23.9218 10.1208 23.7771C10.2473 23.7356 10.2473 23.6944 10.1208 23.6535C8.64827 23.1707 7.53787 22.0191 7.17092 20.5312C6.84997 19.232 7.08374 17.6665 8.02552 16.6223Z" fill="#4C5355"/>
<path d="M21.4976 19.9928C21.3041 20.0822 21.0387 20.1703 20.7014 20.2572C20.1822 20.3907 19.6623 20.5226 19.1417 20.6529C18.7406 20.7525 18.244 20.8889 17.6519 21.062C17.1658 21.2044 16.6692 21.3401 16.1621 21.4691C16.5434 19.553 16.8082 18.2692 16.9563 17.6177C17.0445 17.2297 17.3856 17.0994 17.7688 17.1128C18.2638 17.1294 18.7323 17.1291 19.1743 17.1118C19.1811 17.1114 19.188 17.1126 19.1944 17.1152C19.2007 17.1179 19.2064 17.122 19.2109 17.1271C19.2155 17.1323 19.2188 17.1385 19.2205 17.1451C19.2223 17.1518 19.2226 17.1587 19.2212 17.1655L18.8016 19.2273C18.8004 19.2326 18.8005 19.238 18.8018 19.2433C18.803 19.2486 18.8054 19.2535 18.8088 19.2577C18.8122 19.262 18.8165 19.2654 18.8214 19.2677C18.8263 19.2701 18.8316 19.2713 18.837 19.2713H19.4301C19.4601 19.2713 19.478 19.2566 19.4837 19.2273L19.9091 17.1607C19.9155 17.1313 19.9337 17.1166 19.9637 17.1166L22.0264 17.1185C22.0667 17.1192 22.083 17.1393 22.0753 17.1789L21.4976 19.9928Z" fill="#F16123"/>
<path d="M27.0183 18.8765L22.5 19.7905C22.7216 18.568 22.8804 17.8041 22.9762 17.4988C23.0681 17.2057 23.3556 17.1089 23.6497 17.1137C24.144 17.1233 24.6432 17.1265 25.1471 17.1233C25.1511 17.1233 25.155 17.1243 25.1586 17.126C25.1622 17.1277 25.1653 17.1302 25.1678 17.1332C25.1703 17.1362 25.172 17.1397 25.1729 17.1435C25.1738 17.1473 25.1739 17.1511 25.173 17.1549L24.7955 18.9886C24.7751 19.087 24.7907 19.0931 24.8425 19.0068L25.9222 17.2114C25.9401 17.1821 25.9653 17.1579 25.9953 17.1412C26.0254 17.1244 26.0592 17.1156 26.0937 17.1156L28.0367 17.1166C28.0454 17.1166 28.0539 17.119 28.0614 17.1234C28.0689 17.1279 28.075 17.1342 28.0792 17.1418C28.0834 17.1495 28.0855 17.1581 28.0853 17.1667C28.085 17.1754 28.0825 17.1839 28.0779 17.1913L27.0183 18.8765Z" fill="#F16123"/>
<path d="M32.9288 18.2749C31.3991 18.3266 29.8658 18.4553 28.3291 18.661C28.3751 18.3372 28.4354 18.0392 28.5245 17.7269C28.6376 17.3296 28.9499 17.1281 29.4615 17.1223C30.5723 17.1089 31.546 17.1105 32.3827 17.1271C32.6931 17.1329 32.9036 17.2798 33.0141 17.5678C33.06 17.6866 33.0316 17.9223 32.9288 18.2749Z" fill="#F16123"/>
<path d="M32.9283 18.2749C32.8562 18.7392 32.5885 19.0302 32.1255 19.1477C31.6643 19.2646 31.1866 19.3281 30.6922 19.3384C30.6864 19.3384 30.6807 19.3373 30.6754 19.3349C30.6702 19.3325 30.6655 19.329 30.6617 19.3246C30.658 19.3202 30.6553 19.315 30.6537 19.3095C30.6522 19.3039 30.6519 19.2981 30.6529 19.2924L30.7238 18.9312C30.7379 18.8603 30.7088 18.8277 30.6366 18.8335L30.4805 18.8459C30.4089 18.8517 30.3626 18.8887 30.3415 18.957C30.2888 19.1238 30.1547 19.4849 30.3904 19.5807C30.6702 19.6938 31.0783 19.6564 31.3858 19.644C31.9693 19.621 32.4043 19.9065 32.3956 20.5398C32.3889 21.0945 32.2443 21.6473 32.1331 22.1915C32.0488 22.5977 31.9837 23.0863 31.5286 23.2387C31.3185 23.3089 31.0847 23.3412 30.8273 23.3354C30.0723 23.3182 29.2273 23.3175 28.2922 23.3335C27.4127 23.3479 27.4204 22.6926 27.6158 22.0602C27.7327 21.6802 27.994 21.4282 28.3995 21.3043C28.7828 21.1874 29.2561 21.1258 29.8194 21.1194C29.8278 21.1193 29.836 21.121 29.8436 21.1247C29.8511 21.1283 29.8577 21.1336 29.8628 21.1402C29.8679 21.1468 29.8714 21.1545 29.873 21.1627C29.8747 21.1709 29.8743 21.1794 29.8721 21.1874L29.7542 21.6157C29.744 21.6534 29.7584 21.6748 29.7974 21.6799C30.003 21.7061 30.1285 21.6457 30.1739 21.4988C30.2649 21.2056 30.4048 20.6816 29.8798 20.7065C29.074 20.7448 28.0489 20.8004 28.1543 19.6315C28.1824 19.3211 28.2405 18.9976 28.3286 18.661C29.8654 18.4553 31.3986 18.3266 32.9283 18.2749Z" fill="#4C5355"/>
<path d="M27.0181 18.8766L26.0792 20.4019C26.0338 20.476 26.0265 20.5539 26.0572 20.6357L27.0526 23.2675C27.0554 23.275 27.0563 23.2831 27.0553 23.2911C27.0542 23.2991 27.0513 23.3067 27.0467 23.3133C27.0421 23.3199 27.0359 23.3253 27.0288 23.329C27.0216 23.3327 27.0137 23.3346 27.0056 23.3345L24.9103 23.3307C24.8656 23.3301 24.8363 23.3087 24.8222 23.2665L24.325 21.7346C24.2866 21.6183 24.2557 21.6199 24.232 21.7394L23.9302 23.2636C23.9267 23.2817 23.9169 23.2979 23.9026 23.3096C23.8883 23.3214 23.8703 23.3278 23.8517 23.3278L21.8464 23.3288C21.787 23.3288 21.7634 23.2997 21.7755 23.2416L22.4998 19.7906L27.0181 18.8766Z" fill="#4C5355"/>
<path d="M21.4983 19.9927L20.82 23.276C20.8136 23.3099 20.7932 23.3268 20.7587 23.3268L18.6931 23.3306C18.6863 23.3307 18.6795 23.3292 18.6733 23.3262C18.6671 23.3232 18.6616 23.3188 18.6573 23.3134C18.653 23.308 18.6499 23.3017 18.6483 23.2949C18.6467 23.2881 18.6467 23.281 18.6481 23.2741L19.0763 21.2296C19.0773 21.2246 19.0772 21.2195 19.076 21.2146C19.0748 21.2096 19.0725 21.2051 19.0693 21.2011C19.0661 21.1972 19.062 21.194 19.0575 21.1918C19.0529 21.1896 19.0479 21.1885 19.0428 21.1884L18.4354 21.1874C18.4067 21.1874 18.3897 21.2015 18.3846 21.2296L17.9688 23.2617C17.9651 23.2798 17.9551 23.2961 17.9406 23.3078C17.9262 23.3195 17.908 23.3258 17.8893 23.3259L15.8381 23.3335C15.8306 23.3335 15.8233 23.3319 15.8165 23.3287C15.8098 23.3256 15.8039 23.321 15.7992 23.3153C15.7945 23.3096 15.7912 23.3029 15.7894 23.2958C15.7877 23.2887 15.7876 23.2813 15.7892 23.2741L16.1629 21.4691C16.67 21.3401 17.1666 21.2044 17.6527 21.0619C18.2447 20.8889 18.7413 20.7525 19.1425 20.6528C19.663 20.5225 20.1829 20.3907 20.7022 20.2572C21.0394 20.1703 21.3048 20.0822 21.4983 19.9927Z" fill="#4C5355"/>
<circle cx="20" cy="20" r="19.5" stroke="black" stroke-opacity="0.05"/>
</svg>
