<svg width="40" height="40" viewBox="0 0 40 40" fill="none" xmlns="http://www.w3.org/2000/svg">
<circle cx="20" cy="20" r="20" fill="#005AAB"/>
<g clip-path="url(#clip0_17752_43632)">
<path d="M28.1015 14.3075L25.3678 15.7739L25.3385 13.9739C25.3378 13.9348 25.3217 13.8976 25.2938 13.8702C25.2659 13.8429 25.2284 13.8275 25.1893 13.8275L14.0176 13.7866C13.7893 13.7866 13.6751 13.9007 13.6751 14.129L13.6634 26.091C13.6634 26.1274 13.6776 26.1624 13.7029 26.1882C13.7281 26.214 13.7623 26.2285 13.7981 26.2285L25.2068 26.2314C25.2425 26.2314 25.2768 26.2173 25.302 26.192C25.3273 26.1668 25.3415 26.1325 25.3415 26.0968L25.3473 23.3368L28.1044 22.0549V28.5641C28.1044 28.6597 28.0576 28.7075 27.9639 28.7075L11.1463 28.7105C11.1275 28.7105 11.1089 28.7068 11.0915 28.6996C11.0741 28.6923 11.0583 28.6818 11.0449 28.6685C11.0316 28.6551 11.0211 28.6393 11.0138 28.6219C11.0066 28.6045 11.0029 28.5859 11.0029 28.5671V11.3719C11.0029 11.3347 11.0174 11.2989 11.0432 11.2726C11.069 11.2462 11.104 11.2314 11.1405 11.2314H28.0341C28.0559 11.2314 28.0767 11.2401 28.0921 11.2554C28.1075 11.2708 28.1161 11.2917 28.1161 11.3134L28.1015 14.3075Z" fill="white"/>
<path d="M28.1046 22.0548L25.3475 23.3367C24.1455 23.6762 23.0002 23.8987 21.9114 24.004C21.5231 24.0411 21.4665 23.9221 21.7416 23.647C24.046 21.3231 26.5124 19.1465 29.1407 17.1172C29.5777 16.7797 29.9943 16.4196 30.3904 16.0372C30.7299 15.7094 30.6958 15.6645 30.288 15.9026C26.7875 17.9416 23.6148 20.5611 20.7699 23.7611C20.2109 24.3904 19.7251 25.0723 19.2099 25.7338C19.0909 25.884 19.048 25.8645 19.0812 25.6753C19.8129 21.4879 21.9085 18.1875 25.368 15.7738L28.1016 14.3075C29.3016 13.845 30.528 13.4831 31.7807 13.2216C32.7953 13.0109 33.7982 12.9006 34.7894 12.8909C34.8165 12.891 34.843 12.8981 34.8665 12.9116C34.8899 12.9252 34.9094 12.9446 34.923 12.9679C34.9366 12.9913 34.9438 13.0178 34.944 13.0449C34.9442 13.0719 34.9373 13.0985 34.9241 13.1221C33.7446 15.2265 32.5475 17.5621 31.128 19.2626C30.3553 20.1875 29.3475 21.1182 28.1046 22.0548Z" fill="#4DB848"/>
</g>
<circle cx="20" cy="20" r="19.5" stroke="black" stroke-opacity="0.05"/>
<defs>
<clipPath id="clip0_17752_43632">
<rect width="24" height="17.561" fill="white" transform="translate(11 11.2195)"/>
</clipPath>
</defs>
</svg>
