<svg width="40" height="40" viewBox="0 0 40 40" fill="none" xmlns="http://www.w3.org/2000/svg">
<circle cx="20" cy="20" r="20" fill="#FFF100"/>
<g clip-path="url(#clip0_14382_19483)">
<path d="M30.624 17.1393C30.624 17.1393 29.3989 15.6394 27.2836 15.3723C27.2817 15.3704 26.8907 8.50581 20.0126 8.5H20.0068H19.9894C13.1112 8.50387 12.7183 15.3704 12.7183 15.3704C10.6011 15.6375 9.37795 17.1374 9.37795 17.1374C7.17361 19.3901 8.27481 22.7711 8.27481 22.7711C9.66244 27.412 13.0202 29.4673 13.0202 29.4673C15.7181 31.2711 18.3385 31.6291 19.999 31.6543H20.0029C21.6615 31.6272 24.2838 31.2711 26.9817 29.4673C26.9817 29.4673 30.3356 27.412 31.7252 22.7711C31.7252 22.7711 32.8264 19.392 30.624 17.1374V17.1393Z" fill="#DF3232"/>
<path d="M29.7511 17.6599C29.7511 17.6599 28.6905 16.4697 26.3333 16.2297C26.3333 16.2297 26.2036 9.41539 20.0028 9.41345C20.0028 9.41345 20.0028 9.41345 20.0009 9.41345H19.999C13.7943 9.41732 13.6705 16.2297 13.6705 16.2297C11.3113 16.4716 10.2507 17.6599 10.2507 17.6599C8.24766 19.7113 9.30242 22.6317 9.30242 22.6317C10.5836 26.9224 13.6666 28.7435 13.6666 28.7435C16.1535 30.406 18.5107 30.7408 19.999 30.7427H20.0028C21.4911 30.7408 23.8483 30.406 26.3352 28.7435C26.3352 28.7435 29.4201 26.9224 30.7033 22.6317C30.7033 22.6317 31.758 19.7113 29.753 17.6599H29.7511Z" fill="white"/>
<path d="M29.7957 20.2765C29.7957 20.2765 29.339 17.7451 26.7998 17.6367H24.6729C24.9477 17.0097 25.0426 16.4949 25.0348 15.5717C25.0155 12.839 22.8208 10.7063 20.0243 10.7063H19.9759C17.1793 10.7063 14.9692 12.8139 14.9479 15.5446C14.9401 16.4678 15.0659 17.0484 15.3582 17.6348H13.1035C10.5644 17.8012 10.2044 20.2746 10.2044 20.2746C9.98765 22.0763 10.6205 23.2472 10.6205 23.2472C10.6205 23.2472 12.2191 27.6985 17.309 29.0842C17.309 29.0842 18.4102 29.4325 19.9991 29.448C21.5861 29.4325 22.6911 29.0842 22.6911 29.0842C27.7772 27.6985 29.3777 23.2472 29.3777 23.2472C29.3777 23.2472 30.0105 22.0763 29.7957 20.2746V20.2765ZM29.1938 23.1872C29.1938 23.1872 27.6243 27.5514 22.6389 28.91C22.6389 28.91 21.5551 29.2525 19.9991 29.2661C18.4412 29.2506 17.3632 28.91 17.3632 28.91C12.3739 27.5514 10.8044 23.1872 10.8044 23.1872C10.8044 23.1872 10.185 22.0376 10.3979 20.2726C10.3979 20.2726 10.8469 17.8864 13.3358 17.8186H15.6407C15.2982 17.12 15.1472 16.609 15.155 15.7033C15.1763 13.0248 17.2354 10.8921 19.9778 10.8921H20.0262C22.7666 10.8921 24.8297 13.0268 24.849 15.7033C24.8568 16.609 24.7058 17.12 24.3652 17.8186H26.6682C29.1571 17.8864 29.6061 20.2726 29.6061 20.2726C29.817 22.0376 29.1977 23.1872 29.1977 23.1872H29.1938Z" fill="#DF3232"/>
<path d="M28.7505 19.2353C27.9299 18.1031 26.5404 18.1186 26.5404 18.1186H23.0974L23.0606 18.1883C22.3949 19.1753 21.2743 19.8314 19.999 19.8585C18.7236 19.8314 17.603 19.1772 16.9353 18.1883L16.9024 18.1186H13.4575C13.4575 18.1186 12.0699 18.1031 11.2532 19.2353C11.2532 19.2353 10.1443 20.3849 11.1197 23.0034C11.1197 23.0034 12.5615 27.1353 17.4366 28.5229C17.4366 28.5229 18.4739 28.85 19.9738 28.8693C19.9835 28.8693 19.9931 28.8693 20.0028 28.8693C20.0125 28.8693 20.0222 28.8693 20.0319 28.8693C21.5298 28.85 22.5691 28.521 22.5691 28.521C27.4442 27.1334 28.884 23.0014 28.884 23.0014C29.8595 20.3829 28.7544 19.2334 28.7544 19.2334L28.7505 19.2353Z" fill="#DF3232"/>
<path d="M15.7916 23.7639C16.7554 23.5278 17.456 22.8137 17.456 21.9718C17.456 20.9345 16.3954 20.0926 15.0891 20.0926C13.7827 20.0926 12.7222 20.9345 12.7222 21.9718C12.7222 22.8117 13.4208 23.5239 14.3807 23.762V24.8883H12.8325V25.4863H17.3573V24.8883H15.7916V23.7639ZM15.0775 23.282C14.4969 23.282 14.0246 22.6724 14.0246 21.9234C14.0246 21.1744 14.4969 20.5629 15.0775 20.5629C15.6581 20.5629 16.1303 21.1725 16.1303 21.9234C16.1303 22.6743 15.66 23.282 15.0775 23.282Z" fill="white"/>
<path d="M17.843 22.5214V22.5273C17.8468 22.7421 18.021 22.9163 18.2358 22.9163C18.2358 22.9163 18.2358 22.9163 18.2416 22.9163L19.8576 22.9182V22.3279H19.1571V20.7796H19.8576V20.1874H17.8372V22.5156L17.841 22.5214H17.843Z" fill="white"/>
<path d="M20.6162 22.9163L22.3696 22.9182V22.3337H21.5297V20.7777H22.3696V20.1894H20.2175V22.5273L20.2253 22.5331C20.2291 22.744 20.4014 22.9143 20.6143 22.9163H20.6162Z" fill="white"/>
<path d="M22.4258 23.344H17.7849V23.9594H19.3351V25.1845C19.3312 25.2019 19.3312 25.2232 19.3312 25.2406C19.3312 25.5425 19.6467 25.7883 20.0338 25.7883C20.4208 25.7883 20.7363 25.5444 20.7382 25.2444H20.7402V23.9536H22.4239V23.3401L22.4258 23.344Z" fill="white"/>
<path d="M25.9521 20.0907V25.1419C25.9521 25.4419 26.2424 25.6838 26.6295 25.6838C27.0166 25.6838 27.2778 25.4419 27.2778 25.1419V20.0907H25.9521Z" fill="white"/>
<path d="M22.8537 20.7932H24.1329V24.0001C24.1329 24.0001 24.1329 24.6136 23.1982 24.7916H23.202C22.9698 24.8265 22.8459 24.9523 22.8459 25.1477C22.8459 25.3432 22.9659 25.498 23.1653 25.498L23.1691 25.5019C23.1691 25.5019 25.389 25.5929 25.389 24.1375V20.1797H22.8556V20.7952L22.8537 20.7932Z" fill="white"/>
<path d="M23.6896 15.7865C23.6896 15.7865 23.9219 14.4047 22.4878 12.7094C22.4878 12.7094 21.0092 10.4857 19.1087 11.883C19.1087 11.883 18.2107 11.1979 17.4869 11.9352C17.4869 11.9352 16.8792 12.2642 17.2121 13.2764C17.2121 13.2764 15.4393 15.322 16.7109 17.1393C16.7109 17.1393 17.2024 17.6232 17.245 18.0702C17.245 18.0702 17.6998 18.9605 19.1668 19.4385C19.1668 19.4385 21.5279 20.2726 23.1342 17.6599C23.1342 17.6599 24.876 17.0793 23.6877 15.7865H23.6896ZM23.0665 16.8277C22.9833 16.7077 22.7413 16.729 22.7413 16.729C22.4162 16.729 22.4801 16.9942 22.4801 16.9942C22.4414 17.3599 21.9362 17.7702 21.9362 17.7702C21.7756 17.8109 21.8782 18.0141 21.8782 18.0141C21.9208 18.2173 21.7582 18.3199 21.7582 18.3199C21.1137 19.0127 19.7725 18.943 19.7725 18.943C19.0216 19.0108 18.0191 18.1631 18.0191 18.1631C17.7734 18.0644 17.8353 17.8612 17.8353 17.8612C17.8527 17.6386 17.6901 17.5574 17.6901 17.5574C16.8521 16.9129 16.885 15.9588 16.885 15.9588C16.7747 14.8227 17.7211 13.7583 17.7211 13.7583C18.6365 13.8744 19.101 13.5261 19.101 13.5261C20.4267 14.3079 20.5834 13.3712 20.5834 13.3712C19.9332 13.437 20.2157 13.0693 20.2157 13.0693C20.3764 12.8448 20.7634 12.9222 20.7634 12.9222C22.7742 13.2532 22.1356 14.5982 22.1356 14.5982C22.7471 14.9389 22.4665 15.2253 22.4665 15.2253C21.6517 15.0027 22.2672 15.8368 22.2672 15.8368C22.5323 15.8543 22.6581 16.3826 22.6581 16.3826C22.6407 16.8084 23.0665 16.4987 23.0665 16.4987C23.4071 16.0691 23.471 16.5974 23.471 16.5974C23.4361 17.0851 23.0684 16.8239 23.0684 16.8239L23.0665 16.8277Z" fill="#DF3232"/>
<path d="M17.6862 14.3679C17.6862 14.3679 18.3113 13.9983 18.5591 14.3215C18.5591 14.3215 18.7429 14.4415 18.6984 14.1376C18.6984 14.1376 18.3713 13.4699 17.6243 14.2073C17.6243 14.2073 17.2411 14.6156 17.6862 14.3679Z" fill="#DF3232"/>
<path d="M21.1755 13.5629L20.6801 13.7796C20.3492 13.9441 20.5446 14.1706 20.5446 14.1706C20.8214 14.4473 21.0478 14.2228 21.0478 14.2228C21.4155 13.8086 21.8181 14.0041 21.8181 14.0041C21.702 13.228 21.1775 13.5629 21.1775 13.5629H21.1755Z" fill="#DF3232"/>
<path d="M20.3066 15.9084C20.5911 15.9046 20.8194 15.6762 20.8156 15.3917C20.8156 15.1091 20.5833 14.8808 20.2988 14.8827C20.0163 14.8846 19.786 15.1149 19.7898 15.3975C19.7898 15.6839 20.024 15.9104 20.3066 15.9084Z" fill="#DF3232"/>
<path d="M18.7893 15.2543C18.7893 15.2543 18.3442 15.3588 18.8532 15.6607C18.8532 15.6607 19.3235 15.922 19.3215 15.6375C19.3215 15.6375 18.9983 15.6801 19.2577 15.2717C19.2577 15.2717 19.2751 14.7627 18.9093 14.726C18.9093 14.726 19.217 15.2524 18.7913 15.2562L18.7893 15.2543Z" fill="#DF3232"/>
<path d="M18.3635 15.1769C18.3635 15.1769 18.8087 15.0704 18.321 15.0549C18.321 15.0549 17.8546 15.1188 17.6688 14.755C17.6688 14.755 17.2798 14.3931 17.5081 14.8382C17.5081 14.8382 17.6746 15.4052 18.3635 15.1769Z" fill="#DF3232"/>
<path d="M21.2995 16.7194L20.9763 16.9245C20.9763 16.9245 20.6918 17.0484 20.7925 16.7232C20.7925 16.7232 20.8467 15.8891 20.3222 16.2394C20.3222 16.2394 19.9584 16.6284 19.6951 16.7097C19.6951 16.7097 19.2113 16.9787 18.7004 16.6168C18.7004 16.6168 18.1682 16.0323 17.8624 16.0749C17.8624 16.0749 17.4134 15.9356 17.8024 16.1968C17.8024 16.1968 18.1295 16.2162 18.2707 16.4175C18.2707 16.4175 18.5591 16.7387 18.7836 16.8394C18.7836 16.8394 19.1126 17.2032 19.8422 17.1974C19.8422 17.1974 20.8389 17.3116 21.4234 16.8006C21.4234 16.8006 21.644 16.4949 21.3015 16.7194H21.2995ZM20.1306 16.9477L19.8867 16.9071C19.8867 16.9071 20.2506 16.7852 20.3744 16.6226C20.3744 16.6226 20.2951 16.9071 20.1306 16.9477Z" fill="#DF3232"/>
<path d="M21.7349 16.4175C21.7349 16.4175 21.4987 16.3129 21.6787 16.5433C21.6787 16.5433 21.7813 16.6187 21.7813 16.729C21.7813 16.729 21.8568 16.669 21.8161 16.522C21.8161 16.522 21.7755 16.4349 21.7349 16.4155V16.4175Z" fill="#DF3232"/>
<path d="M19.2366 18.0238C19.1456 17.9618 19.014 18.0973 19.014 18.0973C18.7392 18.1902 18.4431 18.0102 18.4431 18.0102C18.2399 17.9967 18.1625 17.867 18.1373 17.807C18.1354 17.6948 18.0754 17.6445 18.0754 17.6445C17.8818 17.4238 17.8934 17.687 17.8934 17.687C17.9747 17.7664 17.9747 17.8477 17.9747 17.8477C17.9554 17.9599 18.0792 18.0605 18.0792 18.0605C18.7179 18.5502 18.8127 18.3702 18.8127 18.3702C18.8514 18.3605 19.0043 18.2986 19.0043 18.2986C19.0082 18.2773 19.2075 18.1244 19.2075 18.1244C19.4611 17.9928 19.2366 18.0238 19.2366 18.0238Z" fill="#DF3232"/>
</g>
<circle cx="20" cy="20" r="19.5" stroke="black" stroke-opacity="0.05"/>
<defs>
<clipPath id="clip0_14382_19483">
<rect width="24" height="23.1562" fill="white" transform="translate(8 8.5)"/>
</clipPath>
</defs>
</svg>
