<svg width="40" height="40" viewBox="0 0 40 40" fill="none" xmlns="http://www.w3.org/2000/svg">
<circle cx="20" cy="20" r="20" fill="#C98A34"/>
<path d="M17.9191 16.483C17.9642 16.5509 18.0134 16.6176 18.0663 16.683C18.4021 17.0963 17.817 17.5047 17.5437 17.0765C17.4969 17.0032 17.4482 16.9353 17.3971 16.8735C17.3617 16.8308 17.2986 16.8248 17.256 16.8596C17.25 16.8644 17.2452 16.8699 17.2404 16.8759C17.1473 16.9948 17.041 17.2026 16.8938 17.2411C16.5947 17.3185 16.3544 17.0152 16.531 16.7509C16.5917 16.6602 16.6547 16.5725 16.7202 16.4872C16.7508 16.4476 16.743 16.3905 16.7034 16.3599C16.695 16.3533 16.6854 16.3485 16.6758 16.3455C16.564 16.31 16.4571 16.274 16.3556 16.2368C16.0685 16.1304 16.0853 15.6932 16.3916 15.6241C16.5538 15.5868 16.7472 15.6914 16.904 15.7322C16.9418 15.7418 16.9803 15.719 16.9899 15.6811C16.9911 15.6775 16.9917 15.6733 16.9917 15.6697C16.9989 15.5832 16.9995 15.4937 16.9941 15.4018C16.9803 15.1784 17.1022 14.985 17.3479 15.0012C17.7137 15.0252 17.6314 15.4259 17.6494 15.6589C17.653 15.704 17.6921 15.7376 17.7371 15.734C17.7425 15.734 17.7485 15.7328 17.7539 15.731C17.8368 15.7064 17.9215 15.6781 18.0086 15.6463C18.5084 15.4613 18.6868 16.1599 18.217 16.2656C18.1263 16.286 18.0399 16.3154 17.9564 16.3533C17.8933 16.3821 17.8813 16.4254 17.9191 16.483ZM17.4927 16.0662C17.465 16.0596 17.4434 16.0379 17.4368 16.0103L17.3959 15.8463C17.3851 15.8055 17.3437 15.7803 17.3022 15.7911C17.2752 15.7983 17.2536 15.8193 17.247 15.8463L17.2055 16.0097C17.1989 16.0373 17.1773 16.059 17.1497 16.0656L16.9857 16.1064C16.9448 16.1172 16.9196 16.1587 16.9304 16.2001C16.9376 16.2271 16.9587 16.2488 16.9857 16.2554L17.1491 16.2968C17.1767 16.3034 17.1983 16.3251 17.2049 16.3527L17.2458 16.5167C17.2566 16.5575 17.298 16.5827 17.3395 16.5719C17.3665 16.5647 17.3881 16.5437 17.3947 16.5167L17.4362 16.3533C17.4428 16.3257 17.4644 16.304 17.4921 16.2974L17.656 16.2566C17.6969 16.2458 17.7221 16.2043 17.7113 16.1629C17.7041 16.1358 17.6831 16.1142 17.656 16.1076L17.4927 16.0662Z" fill="white"/>
<path d="M7.71345 17.0741C7.878 17.0741 8.01138 16.9407 8.01138 16.7762C8.01138 16.6117 7.878 16.4783 7.71345 16.4783C7.54891 16.4783 7.41553 16.6117 7.41553 16.7762C7.41553 16.9407 7.54891 17.0741 7.71345 17.0741Z" fill="white"/>
<path d="M6.67667 17.7563C6.96559 17.8476 7.11575 18.0392 7.12777 18.3318C7.14759 18.8387 6.73133 19.0273 6.29825 19.0333C5.94927 19.0387 5.59969 19.0393 5.2495 19.0351C5.23629 19.0351 5.22607 19.0243 5.22607 19.0111L5.22848 16.6025C5.22848 16.5808 5.2465 16.5628 5.26812 16.5628C5.62431 16.561 5.96068 16.5616 6.27843 16.564C6.64303 16.567 6.9722 16.695 7.02686 17.1028C7.0671 17.4049 6.94997 17.6128 6.67547 17.7251C6.64664 17.7365 6.64724 17.7473 6.67667 17.7563ZM5.71141 16.9617L5.7066 17.5455C5.7066 17.5551 5.71441 17.5629 5.72402 17.5629L6.25621 17.5677C6.41718 17.5695 6.54933 17.4416 6.55113 17.2824C6.55113 17.2824 6.55113 17.2824 6.55113 17.2818V17.2398C6.55233 17.0806 6.42259 16.9502 6.26161 16.949L5.72943 16.9442C5.71982 16.9442 5.71201 16.9514 5.71141 16.9611C5.71141 16.9611 5.71141 16.9611 5.71141 16.9617ZM5.70961 17.981V18.6141C5.70961 18.6261 5.71922 18.6357 5.73123 18.6357H6.29825C6.47965 18.6357 6.62621 18.5017 6.62621 18.3372V18.2579C6.62621 18.0933 6.47965 17.9594 6.29825 17.9594H5.73123C5.71922 17.9594 5.70961 17.969 5.70961 17.981Z" fill="white"/>
<path d="M12.0945 17.283V17.0415C12.0945 16.9983 12.1149 16.9689 12.1558 16.9532L12.5054 16.8193C12.551 16.8019 12.5738 16.8181 12.5738 16.8667L12.5726 17.2806C12.5726 17.3016 12.5834 17.3124 12.6045 17.313H12.921C12.9505 17.313 12.9649 17.328 12.9655 17.3575V17.6031C12.9655 17.6374 12.9493 17.6542 12.915 17.6542L12.6051 17.656C12.5871 17.656 12.5726 17.6704 12.5726 17.6884C12.5744 17.9551 12.575 18.2296 12.5744 18.5119C12.5744 18.6976 12.7703 18.7096 12.9018 18.6819C12.9354 18.6753 12.9523 18.6885 12.9523 18.7228V18.9685C12.9523 18.9949 12.9342 19.0177 12.9078 19.0243C12.5 19.1216 12.0831 19.1018 12.0909 18.572C12.0951 18.2711 12.0963 17.978 12.0933 17.6938C12.0933 17.668 12.0795 17.6548 12.0537 17.6548H11.8152C11.7906 17.6548 11.7786 17.6422 11.7786 17.6176L11.7798 17.3419C11.7798 17.322 11.79 17.3124 11.8098 17.3124L12.0639 17.3136C12.0843 17.3136 12.0945 17.3034 12.0945 17.283Z" fill="white"/>
<path d="M9.15197 19.1128C8.65883 19.1128 8.25879 18.6959 8.25879 18.1818C8.25879 17.6676 8.65883 17.2507 9.15197 17.2507C9.64511 17.2507 10.0452 17.6676 10.0452 18.1818C10.0452 18.6959 9.64511 19.1128 9.15197 19.1128ZM9.15197 18.7175C9.3604 18.7175 9.52979 18.4773 9.52979 18.1806C9.52979 17.8838 9.3604 17.6436 9.15197 17.6436C8.94354 17.6436 8.77416 17.8838 8.77416 18.1806C8.77416 18.4773 8.94354 18.7175 9.15197 18.7175Z" fill="white"/>
<path d="M14.1823 18.8507C13.8639 19.2718 13.0699 19.0964 13.1846 18.4639C13.2687 18.0026 13.7288 17.9083 14.1318 17.9299C14.1516 17.9311 14.1691 17.9161 14.1703 17.8963C14.1793 17.7611 14.1582 17.6008 14.0009 17.5623C13.8615 17.5293 13.7186 17.6188 13.7198 17.7708C13.7198 17.793 13.7084 17.8044 13.6855 17.8044L13.2717 17.8062C13.2567 17.8062 13.2446 17.7942 13.2446 17.7792C13.2446 17.7786 13.2446 17.7774 13.2446 17.7768C13.2657 17.5119 13.4074 17.3485 13.6693 17.2866C14.0898 17.1869 14.6142 17.298 14.6262 17.8326C14.6328 18.1011 14.6358 18.3822 14.6352 18.676C14.6352 18.7763 14.646 18.8754 14.667 18.9733C14.676 19.0159 14.6592 19.0376 14.6154 19.0376L14.279 19.0364C14.2447 19.0364 14.2273 19.0195 14.2255 18.9853L14.2207 18.8628C14.2189 18.8237 14.2063 18.8195 14.1823 18.8507ZM14.1366 18.2146C13.9318 18.2062 13.6375 18.2579 13.6471 18.5234C13.6561 18.7673 13.9618 18.8177 14.0868 18.6357C14.1576 18.533 14.1847 18.4021 14.1673 18.2435C14.1655 18.2249 14.1552 18.2152 14.1366 18.2146Z" fill="white"/>
<path d="M10.7484 17.8046C10.764 17.8406 10.7947 17.8689 10.8325 17.8809C11.0277 17.9439 11.2067 18.0058 11.3695 18.0677C11.8176 18.2377 11.7449 18.8215 11.3569 18.9999C10.9581 19.1831 10.3099 19.1032 10.2391 18.5602C10.2361 18.5392 10.2457 18.5284 10.2673 18.5284H10.6673C10.6836 18.5284 10.6926 18.5368 10.6956 18.5524C10.7262 18.7122 10.8355 18.7837 11.0235 18.7663C11.113 18.7578 11.1725 18.7158 11.2007 18.6401C11.2716 18.4539 11.0572 18.3878 10.9262 18.35C10.8247 18.3206 10.7202 18.2857 10.6139 18.2467C10.1249 18.0665 10.2006 17.4334 10.6878 17.306C11.077 17.2039 11.5731 17.2886 11.6278 17.7607C11.629 17.7716 11.6242 17.777 11.6134 17.777H11.2097C11.1983 17.777 11.1911 17.7716 11.1887 17.7601C11.1509 17.595 11.0403 17.5379 10.8577 17.5884C10.737 17.6226 10.7004 17.6947 10.7484 17.8046Z" fill="white"/>
<path d="M7.92829 17.301H7.49702C7.48276 17.301 7.47119 17.3126 7.47119 17.3269V19.0111C7.47119 19.0254 7.48276 19.0369 7.49702 19.0369H7.92829C7.94256 19.0369 7.95412 19.0254 7.95412 19.0111V17.3269C7.95412 17.3126 7.94256 17.301 7.92829 17.301Z" fill="white"/>
<path d="M15.5464 17.5349C15.6365 17.3661 15.7969 17.2868 16.0276 17.2982C16.0474 17.2988 16.0576 17.3096 16.0576 17.33V17.7169C16.0576 17.7379 16.0474 17.7481 16.0264 17.7481C15.6281 17.7445 15.532 17.8724 15.5356 18.2593C15.538 18.5247 15.5386 18.7734 15.5374 19.0059C15.5374 19.0269 15.5266 19.0377 15.5056 19.0377H15.0845C15.0689 19.0377 15.0563 19.0257 15.0563 19.0101L15.0503 17.3366C15.0503 17.3108 15.0629 17.2982 15.0887 17.2982H15.4443C15.4738 17.2982 15.4888 17.3132 15.4894 17.3426L15.4924 17.5216C15.4936 17.5955 15.5116 17.5997 15.5464 17.5349Z" fill="white"/>
<path d="M33.4648 24.61C33.5104 24.6383 33.5609 24.6581 33.6167 24.6695C33.642 24.6749 33.654 24.6899 33.6534 24.7151L33.651 24.7872C33.6504 24.8094 33.639 24.8203 33.6167 24.8203H32.9386C32.9188 24.8203 32.9086 24.8106 32.9086 24.7908V24.7031C32.908 24.6761 32.9218 24.6617 32.9488 24.6611C33.0323 24.6587 33.1332 24.6142 33.1332 24.5169C33.1332 23.2165 33.1332 21.9191 33.1326 20.624C33.1326 20.5249 33.0353 20.4727 32.9482 20.4733C32.926 20.4733 32.908 20.4553 32.908 20.433L32.9086 20.3447C32.9086 20.3279 32.9218 20.3147 32.9386 20.3147H33.3873C33.4107 20.3153 33.4221 20.3267 33.4221 20.3501C33.4221 21.7383 33.4221 23.1174 33.4221 24.4875C33.4221 24.5127 33.4245 24.5373 33.4299 24.5608C33.4347 24.5818 33.4462 24.5986 33.4648 24.61Z" fill="white"/>
<path d="M34.8974 24.6503C34.9766 24.6575 35.0103 24.7007 34.9977 24.7806C34.9935 24.8064 34.9784 24.8197 34.952 24.8197H34.2727C34.2649 24.8197 34.2595 24.8166 34.257 24.8094C34.2444 24.7758 34.242 24.7338 34.2498 24.6839C34.251 24.6755 34.2558 24.6707 34.2649 24.6701C34.4036 24.6623 34.4727 24.5998 34.4733 24.4827C34.4769 23.2033 34.4787 21.9245 34.4781 20.6457C34.4781 20.5369 34.4192 20.4799 34.3021 20.4751C34.2655 20.4739 34.2468 20.4547 34.2462 20.418V20.3597C34.245 20.3297 34.2601 20.3147 34.2901 20.3147H34.7376C34.7556 20.3153 34.7646 20.3243 34.7646 20.3429V24.5037C34.764 24.5794 34.8217 24.6431 34.8974 24.6503Z" fill="white"/>
<path d="M27.7519 24.8953H27.3819C26.711 24.8136 26.2119 24.5073 25.8833 23.9757C25.0099 22.5635 25.759 20.4198 27.6192 20.4258C28.1958 20.4276 28.7058 20.6534 29.1497 21.1039C29.1581 21.1117 29.1581 21.125 29.1503 21.1334L28.9605 21.3406C28.9533 21.3478 28.9413 21.3484 28.9334 21.3406C28.2631 20.6522 27.3057 20.4756 26.5284 21.0889C25.6947 21.7466 25.6142 23.1636 26.2881 23.9805C26.4629 24.1925 26.6521 24.3451 26.8546 24.4376C27.6426 24.7956 28.3971 24.5601 28.9665 23.9445C28.9755 23.9343 28.9851 23.9343 28.9947 23.9445L29.1743 24.1265C29.1809 24.1331 29.1815 24.1403 29.1749 24.1469C28.7923 24.5848 28.3178 24.8346 27.7519 24.8959V24.8953Z" fill="white"/>
<path d="M8.30916 24.2039C8.31576 24.2135 8.32898 24.2153 8.33859 24.2087C8.344 24.2045 8.3476 24.1979 8.3476 24.1906L8.344 20.7897C8.344 20.7398 8.31096 20.696 8.26351 20.6822L8.15839 20.6528C8.13677 20.6467 8.12175 20.6263 8.12235 20.6035L8.12355 20.544C8.12415 20.5122 8.14037 20.4966 8.17221 20.4966H8.82212C8.86237 20.4966 8.88039 20.5164 8.87738 20.5566L8.87258 20.6107C8.86957 20.6437 8.85215 20.6612 8.81972 20.663C8.70139 20.6708 8.64252 20.7314 8.64312 20.8462C8.65273 21.8433 8.65213 23.0476 8.64192 24.4591C8.64132 24.5895 8.70439 24.6562 8.83233 24.6604C8.85516 24.661 8.87378 24.6802 8.87378 24.7036V24.7799C8.87258 24.8075 8.85876 24.8213 8.83113 24.8213H8.45031C8.42568 24.8213 8.40646 24.8117 8.39205 24.7925L5.57135 21.0462C5.54311 21.0089 5.5293 21.0138 5.5293 21.06C5.5293 22.1862 5.5287 23.3275 5.5269 24.4844C5.5269 24.5937 5.58396 24.652 5.69869 24.6586C5.73052 24.6604 5.75575 24.6868 5.75575 24.7186V24.7757C5.75695 24.8057 5.74193 24.8207 5.7125 24.8207H5.04457C5.01874 24.8207 5.00492 24.8081 5.00372 24.7823L5.00012 24.7156C4.99832 24.6904 5.01754 24.6682 5.04336 24.6664C5.04336 24.6664 5.04336 24.6664 5.04397 24.6664C5.13767 24.6616 5.23197 24.6039 5.23197 24.5006C5.23197 23.262 5.23077 22.0277 5.23017 20.7969C5.23017 20.6972 5.09923 20.6606 5.01874 20.6491C5.01153 20.6479 5.00732 20.6437 5.00612 20.6365C4.99952 20.5915 5.00072 20.5488 5.01093 20.5086C5.01273 20.5008 5.01814 20.4966 5.02595 20.4966L5.47584 20.4978C5.50407 20.4978 5.5269 20.5092 5.54432 20.5326L8.30916 24.2039Z" fill="white"/>
<path d="M13.0238 21.952L12.6682 21.9532C12.6388 21.9532 12.6238 21.9388 12.6238 21.9094L12.6226 21.722C12.6226 21.6949 12.6334 21.6733 12.6556 21.6577C12.9439 21.4541 13.034 21.0793 13.0592 20.6882C13.0604 20.675 13.0707 20.6648 13.0839 20.6648H13.3241C13.3391 20.6648 13.3464 20.6732 13.3464 20.6882V21.6349C13.3464 21.6565 13.3632 21.6739 13.3848 21.6739L14.3615 21.6715C14.3873 21.6715 14.3999 21.6841 14.3993 21.7099L14.3939 21.9076C14.3933 21.9376 14.3777 21.9526 14.3471 21.9526H13.374C13.359 21.9526 13.3464 21.9652 13.3464 21.9802C13.3464 22.6079 13.3452 23.2639 13.3446 23.9492C13.344 24.5835 13.8611 24.7295 14.3711 24.4886C14.3789 24.485 14.3831 24.4874 14.3831 24.4964V24.7559C14.3837 24.7673 14.3783 24.7751 14.3681 24.7793C13.9086 24.9721 13.3049 24.9019 13.1181 24.3811C13.0731 24.2555 13.052 24.0796 13.0538 23.8525C13.0592 23.2116 13.0604 22.5887 13.0562 21.9838C13.0562 21.9628 13.0448 21.952 13.0238 21.952Z" fill="white"/>
<path d="M22.1333 24.8952H21.7957C20.7872 24.7282 20.3379 23.7804 20.5205 22.853C20.6815 22.0313 21.3969 21.4138 22.2624 21.6481C23.0048 21.8493 23.2926 22.6355 23.2757 23.3317C23.2751 23.3539 23.2571 23.372 23.2349 23.372H20.819C20.7998 23.372 20.7908 23.3816 20.7926 23.4008C20.8629 24.3114 21.6365 24.8652 22.5117 24.4856C22.6769 24.4141 22.8288 24.2958 22.967 24.1312C22.9748 24.1222 22.988 24.1204 22.9976 24.1282C22.9976 24.1282 22.9976 24.1282 22.9982 24.1288L23.1718 24.288C23.1796 24.2958 23.1802 24.3036 23.173 24.3126C22.9015 24.6423 22.5549 24.8364 22.1333 24.8952ZM20.8244 23.0974L22.94 23.0938C22.9478 23.0938 22.9544 23.0872 22.9544 23.0794V23.0692C22.9532 22.4115 22.4721 21.8787 21.8804 21.8799C21.2882 21.8811 20.8094 22.4151 20.8106 23.0728V23.083C20.8106 23.0908 20.8172 23.0974 20.825 23.0974H20.8244Z" fill="white"/>
<path d="M31.2183 24.8953H30.891C30.2429 24.7776 29.8332 24.4172 29.662 23.8141C29.4596 23.1035 29.6362 22.2644 30.2651 21.8277C30.5258 21.6463 30.8255 21.5736 31.1637 21.6103C32.025 21.7028 32.4022 22.5593 32.3734 23.3378C32.3728 23.3612 32.3602 23.3732 32.3368 23.3732L29.9323 23.372C29.9107 23.372 29.8927 23.3894 29.8927 23.4111C29.8927 23.4117 29.8927 23.4129 29.8927 23.4135C29.9726 24.6112 31.2994 25.0208 32.0761 24.1241C32.0809 24.1186 32.0857 24.118 32.0911 24.1229L32.2725 24.2922C32.2797 24.2988 32.2803 24.3061 32.2737 24.3139C31.9932 24.6478 31.6418 24.8418 31.2183 24.8953ZM29.9239 23.0957H32.0418C32.0484 23.0957 32.0538 23.0903 32.0538 23.0837V23.0747C32.0538 22.4158 31.5751 21.8812 30.9847 21.8812H30.9811C30.3906 21.8812 29.9119 22.4158 29.9119 23.0747V23.0837C29.9119 23.0903 29.9173 23.0957 29.9239 23.0957Z" fill="white"/>
<path d="M10.7516 24.8953H10.4566C9.76347 24.8196 9.29796 24.3211 9.47696 23.6111C9.70521 22.7071 11.0471 22.8128 11.6946 22.9972C11.721 23.005 11.7342 22.9948 11.7348 22.9672C11.7505 22.3155 11.4621 21.9647 10.8699 21.9154C10.5137 21.886 10.1683 21.9665 9.83255 22.1557C9.82114 22.1623 9.81273 22.1593 9.80732 22.1467L9.70701 21.9112C9.70341 21.9028 9.70701 21.8938 9.71482 21.8896C10.4416 21.5292 11.5408 21.4235 11.9204 22.2915C11.9967 22.465 12.0304 22.7864 12.0214 23.2555C12.0148 23.6177 12.0148 24.0484 12.0214 24.5469C12.0214 24.5662 12.0292 24.5824 12.043 24.595C12.0844 24.6328 12.1391 24.6557 12.2064 24.6635C12.228 24.6659 12.2448 24.6845 12.2454 24.7061L12.2478 24.7656C12.2496 24.8028 12.2316 24.8214 12.1949 24.8214H11.7655C11.7481 24.8214 11.7336 24.8082 11.7336 24.7908V24.3577C11.7348 24.3277 11.7252 24.3247 11.7066 24.3481C11.4621 24.6593 11.1438 24.8419 10.7516 24.8953ZM11.6976 23.2723C11.1792 23.139 9.98031 22.9396 9.77188 23.676C9.71122 23.8892 9.73644 24.0808 9.84757 24.2508C10.1221 24.6707 10.748 24.6851 11.1678 24.4851C11.6826 24.2394 11.7793 23.8267 11.7306 23.312C11.7288 23.291 11.7174 23.2777 11.6976 23.2723Z" fill="white"/>
<path d="M18.9222 22.4963C19.1733 21.9785 19.6028 21.641 20.171 21.6199C20.2029 21.6187 20.2191 21.6344 20.2191 21.6662V21.9113C20.2191 21.9407 20.2041 21.9557 20.1746 21.9569C19.4118 21.9929 18.9637 22.5768 18.9048 23.2964C18.8868 23.5156 18.885 23.9283 18.8988 24.5349C18.8994 24.5632 18.9108 24.5866 18.9331 24.604C18.9757 24.6383 19.0286 24.6599 19.0922 24.6677C19.1097 24.6701 19.1229 24.6851 19.1223 24.7025V24.7914C19.1211 24.8112 19.1109 24.8215 19.091 24.8215H18.4003C18.3919 24.8215 18.3871 24.8173 18.3853 24.8088C18.3762 24.7656 18.3768 24.7217 18.3853 24.6779C18.3865 24.6719 18.3901 24.6689 18.3961 24.6683C18.5384 24.6593 18.6093 24.595 18.6093 24.4749C18.6075 23.6766 18.6057 22.8435 18.6039 21.9761C18.6039 21.9161 18.5625 21.8638 18.5042 21.8494L18.4093 21.8266C18.3847 21.8206 18.3726 21.8049 18.3744 21.7791L18.3786 21.7046C18.3805 21.6818 18.3925 21.6704 18.4147 21.6704H18.8676C18.882 21.671 18.894 21.683 18.894 21.6974V22.4897C18.894 22.5329 18.9036 22.5353 18.9222 22.4963Z" fill="white"/>
<path d="M16.4271 24.8954H16.0847C15.4294 24.7638 15.0918 24.353 15.0726 23.6616C15.0636 23.3475 15.063 22.7924 15.0696 21.9966C15.0702 21.8981 15.0077 21.8428 14.8822 21.8314C14.8539 21.829 14.8395 21.8134 14.8401 21.7851L14.8419 21.7137C14.8425 21.6848 14.8575 21.6704 14.8864 21.6704H15.3116C15.3411 21.6704 15.3561 21.6848 15.3555 21.7143C15.3519 22.363 15.3537 22.9925 15.3603 23.6033C15.3657 24.0598 15.6059 24.5097 16.0847 24.5938C16.4901 24.6653 16.8187 24.5566 17.071 24.2689C17.3665 23.9307 17.3497 23.5385 17.3497 23.1156C17.3497 22.7522 17.3473 22.3834 17.3443 22.0098C17.3431 21.8722 17.274 21.8512 17.1587 21.8266C17.128 21.82 17.1124 21.8014 17.1124 21.7695V21.7137C17.1124 21.6866 17.1262 21.6728 17.1539 21.6722L17.5917 21.6704C17.6194 21.6704 17.6332 21.6842 17.6332 21.7125V24.5284C17.6338 24.5464 17.6392 24.5626 17.65 24.577C17.6878 24.6281 17.7443 24.6575 17.8188 24.6653C17.847 24.6683 17.8608 24.6839 17.8608 24.7122V24.7908C17.8602 24.8077 17.847 24.8209 17.8308 24.8209L17.3785 24.8221C17.3563 24.8221 17.3449 24.8107 17.3449 24.7878L17.3413 24.2983C17.3413 24.2659 17.3328 24.2635 17.3166 24.2917C17.1172 24.6311 16.8205 24.8323 16.4271 24.8954Z" fill="white"/>
<circle cx="20" cy="20" r="19.5" stroke="black" stroke-opacity="0.05"/>
</svg>
