<svg width="40" height="40" viewBox="0 0 40 40" fill="none" xmlns="http://www.w3.org/2000/svg">
<circle cx="20" cy="20" r="20" fill="#E20413"/>
<g clip-path="url(#clip0_17671_18648)">
<path d="M25.9416 24.5433C24.9585 24.5271 24.0238 24.4143 23.1374 24.1968C20.3815 23.5199 17.5129 23.4393 14.9585 24.1484C14.894 24.1645 14.8618 24.1484 14.8618 24.0759V22.1178C14.8618 22.1178 14.886 22.0453 14.9263 22.0292C15.7401 21.7713 16.5862 21.6101 17.4404 21.5618C19.1325 21.457 20.7764 21.5618 22.3799 21.9002C23.4194 22.1178 24.2333 22.2628 24.8215 22.3434C26.8038 22.6254 28.8183 22.4804 30.865 21.9163C30.9214 21.9002 30.9456 21.9163 30.9456 21.9808V23.9147C30.9456 23.9631 30.9214 23.9953 30.865 24.0114L28.9633 24.3821C28.9069 24.3902 28.8666 24.4224 28.8344 24.4707C26.9085 27.847 23.4919 29.8454 19.5918 29.6762C12.2268 29.3539 7.76268 21.449 11.2276 14.9542C13.6773 10.3692 19.334 8.42722 24.0721 10.5384C26.4009 11.5779 28.1172 13.3023 29.2212 15.6955C29.2453 15.752 29.2856 15.7681 29.3501 15.752L30.8086 15.3893C30.8811 15.3732 30.9134 15.3974 30.9134 15.4699V17.3474C30.9134 17.4038 30.8811 17.4441 30.8247 17.4603C29.7449 17.7262 28.6491 17.9034 27.5371 17.984C25.998 18.0968 24.5556 17.9921 23.218 17.6778C20.5266 17.0412 17.5612 16.8398 14.9343 17.6134C14.8698 17.6295 14.8376 17.6134 14.8376 17.5408V15.5908C14.8376 15.5263 14.8698 15.486 14.9263 15.4699C16.2639 15.0912 17.6579 14.93 19.1164 14.9864C20.4379 15.0429 21.558 15.1718 22.4847 15.3732C23.919 15.6875 25.2486 15.9534 26.7232 15.9292C26.8038 15.9292 26.8279 15.8889 26.7877 15.8164C25.6676 13.9308 24.0802 12.706 22.0334 12.1339C17.8916 10.9816 13.5242 13.5279 12.4524 17.6778C11.977 19.5231 12.1462 21.312 12.9682 23.0364C14.3461 25.9373 17.4887 27.7423 20.6877 27.428C22.8231 27.2185 24.5959 26.2838 26.006 24.6238C26.0624 24.5594 26.0463 24.5271 25.9577 24.5271L25.9416 24.5433Z" fill="white"/>
<path d="M14.9185 20.933C14.9185 20.933 14.8701 20.933 14.8701 20.9089C14.8701 20.9089 14.8701 20.9008 14.8701 20.8928V18.9024C14.8701 18.846 14.9023 18.8057 14.9588 18.7896C17.4084 18.0724 20.0111 18.2094 22.5333 18.6929C24.1207 18.9991 24.9829 19.1603 25.1199 19.1764C27.07 19.3698 28.9878 19.2086 30.8733 18.6929C30.9297 18.6768 30.9539 18.6929 30.9539 18.7574V20.6671C30.9539 20.7155 30.9297 20.7477 30.8814 20.7638C28.8347 21.3118 26.6912 21.4649 24.4511 21.2392C24.3222 21.2231 23.597 21.0781 22.2916 20.7961C19.9144 20.2884 17.2795 20.2884 14.9346 20.9411L14.9185 20.933Z" fill="white"/>
</g>
<circle cx="20" cy="20" r="19.5" stroke="black" stroke-opacity="0.05"/>
<defs>
<clipPath id="clip0_17671_18648">
<rect width="20.9106" height="20" fill="white" transform="translate(10.0352 9.68408)"/>
</clipPath>
</defs>
</svg>
