<svg width="40" height="40" viewBox="0 0 40 40" fill="none" xmlns="http://www.w3.org/2000/svg">
<circle cx="20" cy="20" r="20" fill="#E72410"/>
<path d="M24.7436 11.8215C28.4378 13.5677 30.1661 16.454 30.0274 20.3094C29.896 23.9633 28.0767 26.6456 24.5597 28.146C23.3003 28.6832 21.9407 28.8966 20.5723 28.9204C18.2224 28.9611 15.8711 28.9257 13.5206 28.9462C13.1253 28.9497 13.0344 28.839 13.0352 28.4703C13.0472 22.7836 13.0432 17.097 13.0449 11.4103C13.0449 11.2016 12.9662 10.9527 13.3544 10.9623C16.1849 11.0328 19.0212 10.8115 21.8464 11.0969C22.827 11.1959 23.7899 11.4124 24.7436 11.8215Z" fill="#FFFEFE"/>
<circle cx="20" cy="20" r="19.5" stroke="black" stroke-opacity="0.05"/>
</svg>
