<svg width="40" height="40" viewBox="0 0 40 40" fill="none" xmlns="http://www.w3.org/2000/svg">
<circle cx="20" cy="20" r="20" fill="#0085CF"/>
<g clip-path="url(#clip0_14382_19263)">
<path d="M29.1864 15.0399V22.0832C29.1864 22.6786 28.763 23.0294 28.2533 23.0294C27.7293 23.0294 27.3306 22.6851 27.3306 22.0832V15.0399H24.5171V22.3041C24.5171 24.4801 25.966 26 28.2431 26C30.5202 26 31.9978 24.4801 31.9978 22.3041C31.9978 22.3041 31.9999 15.3669 31.9999 15.0399H29.1864Z" fill="white"/>
<path d="M10.8115 25.9177H13.6209V15.0399H10.8115V25.9177Z" fill="white"/>
<path d="M8 15.0399H10.8114V12H8V15.0399Z" fill="#9CC711"/>
<path d="M19.106 22.3322C19.4513 22.6462 19.2766 23.0835 18.882 23.0835H16.0192V25.9177H19.5047C22.7457 25.9177 23.0766 22.0962 21.4098 20.5676L19.2951 18.6233C18.9437 18.3028 19.0834 17.872 19.4986 17.872H22.1024V15.0399H18.8943C15.6595 15.0399 15.3307 18.8614 16.9913 20.3901L19.106 22.3322Z" fill="white"/>
</g>
<circle cx="20" cy="20" r="19.5" stroke="black" stroke-opacity="0.05"/>
<defs>
<clipPath id="clip0_14382_19263">
<rect width="24" height="14" fill="white" transform="translate(8 12)"/>
</clipPath>
</defs>
</svg>
