<svg width="40" height="40" viewBox="0 0 40 40" fill="none" xmlns="http://www.w3.org/2000/svg">
<circle cx="20" cy="20" r="20" fill="#0F6BA9"/>
<g clip-path="url(#clip0_17752_43815)">
<path d="M11.5913 21.9029C12.0718 21.8805 12.2737 21.6281 12.1933 21.1476C12.111 20.6559 11.8699 20.4129 11.324 20.4036C10.0097 20.3793 8.65245 20.3793 7.25219 20.3998C6.17162 20.4166 5.26864 19.7997 5.08356 18.7304C4.90783 17.7189 5.21069 16.9711 5.99027 16.4869C6.26696 16.3112 6.58665 16.2252 6.94559 16.2271C8.57394 16.2327 10.1611 16.2346 11.7091 16.2327C12.7766 16.2308 13.4833 17.2329 13.5674 18.2237C13.5693 18.2518 13.5487 18.2761 13.5188 18.2779C13.5188 18.2779 13.5169 18.2779 13.515 18.2779L12.2569 18.2817C12.2288 18.2817 12.2064 18.2611 12.2027 18.2349C12.1391 17.7844 11.8605 17.5582 11.367 17.5563C10.163 17.5488 8.72537 17.5526 7.05589 17.5675C6.06692 17.575 6.14357 19.0313 7.12881 19.0332C8.59637 19.0388 10.0322 19.0407 11.4362 19.0426C12.3728 19.0444 13.014 19.4501 13.358 20.2577C13.5001 20.5905 13.545 21.0392 13.4926 21.6057C13.401 22.6171 12.513 23.2471 11.5427 23.2452C10.1051 23.2396 8.62441 23.2415 7.10076 23.2452C6.05384 23.249 4.977 22.3946 5.05739 21.2766C5.063 21.2 5.10413 21.1607 5.18265 21.1607H6.20153C6.28192 21.1626 6.33053 21.2 6.35109 21.2766C6.45765 21.6935 6.74369 21.9104 7.20546 21.9272C8.61693 21.9777 10.0789 21.9702 11.5913 21.901V21.9029Z" fill="white"/>
<path d="M19.9893 21.9613C20.0772 21.9669 20.1613 21.9482 20.2379 21.9015C20.5296 21.7239 20.6791 21.4659 20.6866 21.1238C20.6997 20.4937 20.6978 19.8244 20.681 19.1159C20.6548 17.9886 20.8399 17.0763 21.7803 16.4874C22.0925 16.2911 22.4683 16.2013 22.9039 16.2144C23.7414 16.2406 24.3509 16.6463 24.7341 17.4296C24.908 17.7867 24.9902 18.2896 24.9809 18.9402C24.9585 20.4937 24.9585 21.894 24.9809 23.1447C24.9809 23.2139 24.9491 23.2475 24.8799 23.2475L23.6704 23.24C23.6255 23.24 23.6031 23.2176 23.6049 23.1746C23.618 21.6921 23.6143 20.075 23.5918 18.3251C23.5788 17.3156 22.1131 17.2408 22.0645 18.3195C22.0327 19.0542 22.0289 19.8375 22.0551 20.6695C22.085 21.6566 21.928 22.4642 21.068 23.0026C20.7932 23.1746 20.4567 23.2625 20.0566 23.2681C18.6115 23.2886 17.9029 22.266 17.9459 20.9256C17.974 20.017 17.9702 19.1626 17.9328 18.3644C17.8805 17.2202 16.3998 17.3268 16.383 18.327C16.3568 20.0077 16.3512 21.6304 16.3662 23.197C16.3662 23.2251 16.3438 23.2475 16.3176 23.2475L15.0557 23.24C15.022 23.24 14.9958 23.2139 14.994 23.1802C14.9921 22.0024 14.9902 20.5461 14.9902 18.8093C14.9902 18.2092 15.0912 17.7194 15.2912 17.3399C15.6633 16.6295 16.254 16.2537 17.0617 16.2144C18.6489 16.1378 19.3481 17.5418 19.3125 18.9271C19.292 19.6655 19.292 20.4376 19.3107 21.2434C19.3219 21.6865 19.5481 21.9258 19.9893 21.9613Z" fill="white"/>
<path d="M33.0439 21.9254C33.4458 21.8413 33.6496 21.6581 33.6589 21.3795C33.6627 21.2692 33.7206 21.2131 33.8309 21.215H34.8068C34.9657 21.2187 35.0424 21.2972 35.0349 21.4561C34.9975 22.2451 34.3189 23.0546 33.5636 23.2041C33.3336 23.2509 32.9055 23.2677 32.283 23.2546C31.0042 23.2303 29.7012 23.2284 28.3757 23.2527C27.2035 23.2714 26.4557 22.1759 26.4894 21.0991C26.5174 20.2484 26.5174 19.3885 26.4912 18.5192C26.4632 17.6106 26.7829 16.8702 27.5718 16.4346C27.8223 16.2982 28.1682 16.229 28.6075 16.229C29.8021 16.229 30.9781 16.229 32.1334 16.2346C32.9541 16.2384 33.3766 16.2421 33.4047 16.2458C34.2759 16.3879 34.9732 17.1731 35.0312 18.0761C35.0405 18.2126 34.9769 18.2799 34.8405 18.2799H33.8384C33.7318 18.2817 33.672 18.2294 33.6608 18.1228C33.6178 17.7414 33.2776 17.5564 32.9186 17.5564C31.5464 17.5564 30.1256 17.5564 28.6543 17.5564C28.1102 17.5564 27.841 17.8312 27.8429 18.3752C27.8485 19.4128 27.8485 20.327 27.8429 21.1215C27.8373 21.6543 28.114 21.9254 28.6711 21.9329C30.0732 21.9497 31.4679 21.9534 32.855 21.9441C32.9186 21.9441 32.9822 21.9366 33.0439 21.9235V21.9254Z" fill="white"/>
</g>
<circle cx="20" cy="20" r="19.5" stroke="black" stroke-opacity="0.05"/>
<defs>
<clipPath id="clip0_17752_43815">
<rect width="30" height="7.05739" fill="white" transform="translate(5.03516 16.2104)"/>
</clipPath>
</defs>
</svg>
