<svg width="40" height="40" viewBox="0 0 40 40" fill="none" xmlns="http://www.w3.org/2000/svg">
<circle cx="20" cy="20" r="20" fill="#F6F8FA"/>
<path d="M32.6531 20.6009C32.576 20.5138 32.4892 20.4359 32.3943 20.3687C32.0789 20.1042 31.5081 20.073 31.1782 20.0892C31.0277 20.1007 30.9102 20.1007 30.8025 20.1013C30.5902 20.0989 30.378 20.1136 30.1681 20.1453C29.9412 20.18 29.6217 20.2345 29.2877 20.29L28.6 20.4041C28.053 20.4967 27.6767 20.5337 27.1535 20.5864C26.6632 20.6373 26.4299 20.6194 26.0855 20.5962C25.9547 20.5864 25.8024 20.5777 25.6317 20.5696C25.6884 20.4075 25.7625 20.1633 25.7625 19.9751C25.7625 19.9549 25.7625 19.9358 25.7613 19.9167C25.7625 19.8796 25.7619 19.842 25.759 19.8067C25.8534 19.5688 25.88 19.3465 25.8464 19.1364C25.972 19.1578 26.0982 19.1624 26.1943 19.148C26.2707 19.192 26.3674 19.2365 26.4872 19.2695C26.5845 19.2933 26.6765 19.3031 26.7894 19.3118C27.0394 19.4231 27.3128 19.4718 27.5859 19.4536L27.6964 19.4559C27.7989 19.4559 27.906 19.4484 27.9911 19.4345C28.0605 19.4333 28.1306 19.4304 28.2637 19.4096L28.376 19.3946C28.3824 19.394 28.4634 19.3818 28.4692 19.3801C28.5028 19.3749 28.5392 19.3673 28.5357 19.3644C28.6735 19.3731 28.8032 19.3702 28.9444 19.35L29.1846 19.3401C29.2217 19.3367 29.2581 19.332 29.2935 19.3251C29.3427 19.3158 29.3901 19.3077 29.4683 19.2973C29.5487 19.284 29.6315 19.2759 29.7131 19.2672L29.8335 19.2533C29.9313 19.2428 30.0276 19.2214 30.1206 19.1896L30.2046 19.17C30.4535 19.1294 30.7203 19.0455 31.0254 18.6681C31.1255 18.539 31.2939 18.3248 31.3599 18.0198C31.3915 17.8799 31.3913 17.7347 31.3592 17.595C31.3272 17.4552 31.2641 17.3244 31.1747 17.2123C31.1342 17.1624 31.0886 17.1168 31.0387 17.0763C31.0213 17.0346 31.0011 16.9947 30.9767 16.9547C30.9073 16.8036 30.8176 16.6966 30.74 16.6254C30.648 16.4297 30.4593 16.138 30.0859 16.0783C29.9086 15.9997 29.7215 15.9456 29.5296 15.9174C29.2923 15.7912 29.055 15.7912 28.9676 15.7912C28.9137 15.7912 28.8576 15.7936 28.8101 15.8028C28.4084 15.7553 28.2168 15.7814 27.9934 15.8109C27.9303 15.819 27.862 15.8283 27.7694 15.8335C27.4811 15.848 27.2478 15.9134 27.0597 15.9666C26.963 15.9933 26.8692 16.0239 26.75 16.0343C26.361 16.072 25.9448 16.1825 25.4401 16.3828C25.4308 16.3851 25.425 16.3932 25.4163 16.3973C25.4014 16.3719 25.3854 16.3472 25.3683 16.3232C25.3793 16.3191 25.3949 16.3157 25.4053 16.3116C25.443 16.296 25.5674 16.2474 25.5512 16.2456V16.2445C25.8505 16.1825 26.2574 15.9695 26.2649 15.9666C26.3089 15.9452 26.3929 15.9041 26.4623 15.8781C26.9538 15.6928 27.3746 15.4156 27.7728 15.1267C27.7746 15.1261 27.7764 15.1253 27.778 15.1244C27.8579 15.0891 27.9864 15.0324 28.1161 14.9253C28.2388 14.8309 28.321 14.7291 28.3453 14.6781C28.4929 14.6127 28.5948 14.5265 28.6596 14.4651C28.7818 14.3846 28.8593 14.2949 28.9051 14.244C28.9224 14.2272 28.9641 14.1763 28.9786 14.1572C29.2113 13.8718 29.2819 13.6154 29.2749 13.4012C29.5823 13.0116 29.5111 12.5873 29.3444 12.3309C29.249 12.1826 29.1154 12.0629 28.9575 11.9843C28.7997 11.9057 28.6236 11.8713 28.4478 11.8846C28.3476 11.8661 28.2747 11.8672 28.2469 11.8724C27.9106 11.7984 27.4209 11.8724 27.2223 11.9182C27.1957 11.9245 27.1702 11.9321 27.1448 11.9396L27.0556 11.9691C27.0274 11.9805 26.9986 11.9906 26.9694 11.9992C26.9168 12.013 26.8649 12.0291 26.8137 12.0473C26.7162 12.061 26.6212 12.0889 26.5318 12.13C26.4808 12.1357 26.4302 12.1442 26.3801 12.1555C26.0565 12.2325 25.8325 12.416 25.6849 12.5375L25.4661 12.6614C25.2526 12.7874 25.0473 12.9268 24.8514 13.0788C24.7576 13.1552 24.661 13.2345 24.5741 13.2924C24.4545 13.356 24.3454 13.4376 24.2506 13.5343C24.2176 13.5696 24.1846 13.6078 24.107 13.6877C23.9935 13.7751 23.8772 13.8643 23.7811 13.9841C23.7343 14.034 23.6912 14.0872 23.652 14.1433C23.5487 14.042 23.4332 13.9539 23.3082 13.881C23.3441 13.8318 23.38 13.7803 23.3979 13.7467C23.5073 13.5922 23.5611 13.4463 23.6017 13.3132L23.6555 13.2426C23.8685 13.0614 23.9802 12.8495 24.0572 12.7043C24.0717 12.677 24.0844 12.6487 24.1018 12.6249L24.0908 12.6371L24.1093 12.6122C24.2106 12.4905 24.3021 12.361 24.3831 12.225L24.3814 12.2232C24.4346 12.137 24.5029 12.0148 24.5649 11.8939C24.6013 11.8232 24.6349 11.7544 24.6743 11.6924C24.7102 11.6316 24.7541 11.5691 24.7935 11.5159C24.8109 11.4898 24.8334 11.4568 24.8491 11.4296C24.8624 11.414 24.8855 11.381 24.8983 11.3631L24.9139 11.3388C24.933 11.3144 24.9504 11.2884 24.9672 11.2618C24.9857 11.234 25.0025 11.2045 25.0187 11.1761C25.0482 11.1252 25.0696 11.0783 25.0835 11.0441L25.0899 11.047C25.0986 11.0331 25.1426 10.9573 25.1501 10.9422L25.1993 10.856C25.2357 10.7964 25.2699 10.7298 25.3058 10.6615L25.3509 10.5706C25.392 10.4786 25.4308 10.3854 25.4632 10.2783C25.4737 10.2442 25.4823 10.2059 25.4887 10.1706C25.5032 10.0821 25.5321 9.91653 25.5084 9.76545C25.4894 9.54642 25.4108 9.33679 25.2809 9.1594C25.2026 9.06509 25.109 8.98449 25.0042 8.92091C24.918 8.86824 24.7449 8.76173 24.4861 8.74147C24.3579 8.69511 24.2231 8.66952 24.0867 8.66564C23.6642 8.41037 23.0547 8.49604 22.727 8.79299C22.6188 8.88277 22.5255 8.98904 22.4503 9.10788C22.1881 9.32032 22.0498 9.57559 21.9496 9.7614C21.9236 9.81002 21.901 9.85922 21.9062 9.85922L21.908 9.85864C21.7638 10.0132 21.6978 10.1845 21.6504 10.3246C21.6002 10.4117 21.5634 10.5057 21.541 10.6036C21.5184 10.6471 21.5024 10.6938 21.4935 10.742C21.3835 10.8919 21.306 11.0788 21.1919 11.3683C21.1607 11.4482 21.1323 11.5228 21.0877 11.6154C21.0482 11.7064 21.0206 11.8022 21.0055 11.9002C20.9223 12.0727 20.8818 12.2627 20.8875 12.4542C20.8861 12.4841 20.8865 12.514 20.8886 12.5439C20.8462 12.6365 20.8161 12.7342 20.7989 12.8345C20.7885 12.8762 20.7902 12.9202 20.7862 12.9624C20.699 12.9338 20.6074 12.9215 20.5158 12.9259C20.4268 12.9087 20.3359 12.9037 20.2455 12.9109L20.0973 12.9005C20.0468 12.8978 19.9962 12.898 19.9457 12.9011C19.9457 12.8617 19.9572 12.8235 19.9509 12.7836C19.9393 12.7106 19.9243 12.5891 19.9109 12.486L19.8901 12.3205C19.8739 12.2138 19.8544 12.1076 19.8316 12.0021C19.8131 11.9153 19.7917 11.8302 19.7859 11.7283C19.7709 11.5228 19.7425 11.322 19.7182 11.1622C19.6829 10.8386 19.5671 10.0259 19.2551 9.44535C19.1972 9.3371 19.159 9.23812 19.1214 9.14319C19.0473 8.95738 18.9732 8.77852 18.8563 8.58402C18.487 7.95366 17.5822 7.80837 16.8778 8.27203C16.745 8.35917 16.6338 8.47536 16.5525 8.61181C16.2115 8.78604 16.0744 9.05463 16.0269 9.24391C15.9907 9.36764 15.9805 9.4975 15.9968 9.62537C15.9968 9.66415 15.9997 9.69946 16.0032 9.73072C15.9554 9.81476 15.924 9.90707 15.9105 10.0028C15.8867 10.1232 15.8824 10.2468 15.8978 10.3686C15.8948 10.4283 15.8969 10.4881 15.9042 10.5475L15.9082 10.5926C15.9239 10.7605 15.9817 10.9104 16.1097 11.1715L16.1212 11.2432C16.1455 11.3741 16.1791 11.4997 16.2075 11.5934C16.2451 11.7422 16.3175 11.8834 16.4136 12.0635C16.4178 12.14 16.432 12.2157 16.4558 12.2886L16.5258 12.5155C16.5803 12.6695 16.67 12.7986 16.7939 12.9034C16.8384 12.9896 16.8963 13.0695 16.9687 13.1401C17.004 13.2223 17.0561 13.3086 17.1331 13.3908C17.1464 13.4226 17.1632 13.4556 17.1823 13.488C17.1979 13.521 17.2239 13.5407 17.2413 13.5714C17.21 13.5893 17.1759 13.6078 17.147 13.6264C16.9738 13.7265 16.8072 13.8375 16.648 13.9586C16.6347 13.9684 16.6237 13.9777 16.6104 13.9887C16.5259 13.8558 16.4265 13.7331 16.314 13.6229C16.2678 13.5434 16.2145 13.4682 16.1548 13.3983C16.1027 13.2848 16.0055 13.0938 15.7624 12.8924C15.6615 12.7943 15.5496 12.7083 15.4289 12.6359C15.3682 12.6001 15.2946 12.5312 15.2084 12.4513C15.1083 12.3581 15.0058 12.2655 14.9224 12.2035C14.7511 12.0629 14.5861 11.9107 14.4217 11.7607L14.3094 11.6565C14.284 11.634 14.2574 11.6131 14.229 11.5934C14.1708 11.534 14.1073 11.4802 14.0391 11.4325C13.9581 11.3665 13.8689 11.3052 13.7792 11.2444L13.6085 11.1263C13.5413 11.0817 13.4215 11.0019 13.2461 10.9486C12.9636 10.7663 12.5897 10.6858 12.2621 10.7975V10.7964C12.2049 10.8167 12.1491 10.8411 12.0954 10.8693C11.8216 10.8757 11.6138 10.9868 11.4604 11.0713C11.0766 11.3098 11.0077 11.7445 10.995 11.8927C10.9871 12.0168 10.9996 12.1414 11.032 12.2614C10.9076 12.5555 10.9411 12.8715 10.9597 13.0487C10.9597 13.3803 11.1403 13.7051 11.1478 13.7184C11.1611 13.7427 11.175 13.7664 11.1912 13.7884C11.3596 14.031 11.5576 14.1994 11.7174 14.3343C11.7764 14.3841 11.8355 14.4333 11.8974 14.4952C12.0317 14.6231 12.801 15.1834 12.9816 15.2593C13.0968 15.3143 13.2015 15.3415 13.2849 15.3565C13.337 15.3884 13.3914 15.4185 13.4499 15.4474L13.5245 15.481L13.5263 15.4821C13.5732 15.5169 13.6536 15.5765 13.7532 15.6251C13.8076 15.6645 13.8614 15.7009 13.9089 15.7281C14.049 15.808 14.4698 16.0089 14.7621 16.0899C14.7696 16.0928 14.7864 16.0969 14.7963 16.1015C14.7702 16.1519 14.7494 16.204 14.7251 16.2549C14.7089 16.2474 14.6984 16.2341 14.6799 16.2259C14.185 16.032 13.7734 15.8954 13.3642 15.8549C13.2577 15.8451 13.1616 15.8144 13.0632 15.7872C12.8289 15.7144 12.5868 15.6697 12.342 15.654C12.2499 15.6494 12.1816 15.6402 12.1168 15.6315C11.8974 15.602 11.7052 15.5869 11.3122 15.617L11.1524 15.6124C11.0621 15.6124 10.8126 15.6124 10.5817 15.7403C10.3978 15.7679 10.2187 15.8213 10.0497 15.8989C9.67463 15.9695 9.48766 16.23 9.38636 16.4372C9.27415 16.5329 9.1876 16.6551 9.13457 16.7926C9.118 16.8245 9.10293 16.8572 9.08942 16.8905C9.03682 16.9316 8.98905 16.9786 8.94702 17.0305C8.76642 17.2511 8.69754 17.5434 8.76179 17.8554C8.82836 18.1448 8.98927 18.3526 9.12646 18.5286C9.39273 18.8626 9.65842 18.9471 9.90675 18.9894L9.99936 19.0108C10.0792 19.0362 10.1394 19.0565 10.3009 19.0768L10.4231 19.0901C10.5024 19.0988 10.5823 19.108 10.7171 19.1277L10.8115 19.1422C10.8427 19.1485 10.8746 19.1532 10.9058 19.1566C10.9716 19.1633 11.0377 19.1674 11.1038 19.1688L11.1362 19.1676C11.2462 19.1833 11.3475 19.1914 11.4482 19.1914C11.4719 19.1914 11.5385 19.1879 11.5622 19.1867C11.5871 19.1879 11.6242 19.1948 11.6832 19.2047L11.5159 19.2713C11.3724 19.3286 11.2115 19.394 11.0118 19.4669C10.8689 19.5203 10.7302 19.5842 10.5967 19.6579C10.5412 19.6874 10.4867 19.7187 10.4283 19.7413C10.2743 19.7997 10.1299 19.8808 9.99994 19.9821L9.93337 20.0267C9.90732 20.0423 7.6915 21.3632 7.24405 22.4972L7.23479 22.4931C7.01136 22.9938 6.97663 23.4164 7.12481 23.7839C7.24521 24.0768 7.47733 24.3049 7.77601 24.4236C7.86168 24.4583 7.93056 24.4959 7.99482 24.5307C8.2061 24.6412 8.48857 24.7911 8.94239 24.8097C9.27349 24.8623 9.67984 24.8565 10.1059 24.8102C8.8162 25.2044 8.31839 26.0849 8.31839 26.923C8.31839 28.0645 9.09057 28.6561 9.89691 29.0294C9.63006 28.8957 9.07726 28.9264 8.8243 29.081C8.69944 29.1574 8.5963 29.2646 8.52474 29.3923C8.45318 29.52 8.41562 29.6639 8.41564 29.8103V30.7891C8.41564 31.2024 8.71143 31.5567 9.1172 31.6302L9.33079 31.669C9.63816 31.7234 10.4538 31.8669 11.2717 31.8669C12.2875 31.8669 13.0325 31.7118 13.5882 31.4809C13.7416 31.6186 13.9419 31.6979 14.1537 31.6979H15.3438C15.6796 31.6979 15.9829 31.5028 16.1218 31.1972L16.5999 30.1472H17.375L17.8514 31.1972C17.9903 31.5028 18.2942 31.6979 18.63 31.6979H20.3723C20.403 31.6979 20.4319 31.6904 20.4614 31.6869C20.4655 31.6881 20.4707 31.691 20.4747 31.691C20.7843 31.708 21.0943 31.7161 21.4044 31.7153C21.9028 31.7153 22.3305 31.6725 22.6888 31.5868C23.0899 31.5069 23.4721 31.3511 23.8147 31.1278C24.1041 30.9437 24.3217 30.7075 24.489 30.4412C24.6164 30.5958 24.7495 30.7475 24.9093 30.8829C25.6519 31.5069 26.6522 31.823 27.8799 31.823C29.1065 31.823 30.1056 31.5127 30.8465 30.8997C31.6401 30.2444 32.0418 29.3443 32.0418 28.2254C32.0418 27.1083 31.6407 26.2093 30.8511 25.5552C30.3886 25.1685 29.8127 24.9162 29.1528 24.7703C29.6228 24.5966 30.046 24.3703 30.296 24.0635C30.3296 24.0195 30.3591 23.9726 30.3846 23.9234C30.7371 23.8007 31.1267 23.6161 31.5886 23.2612C31.6899 23.1912 31.8572 23.0743 32.0366 22.8815C32.1993 22.7165 32.2896 22.485 32.2907 22.2552C32.518 22.1811 32.7176 22.0403 32.8638 21.8512C32.8974 21.8072 32.9263 21.7597 32.95 21.7088C33.1052 21.3846 33.0716 20.9175 32.6531 20.6009Z" fill="white"/>
<path d="M29.4187 28.224C29.4187 27.9096 29.3764 27.6416 29.2954 27.4199C29.2222 27.2176 29.1075 27.0328 28.9585 26.8776C28.8097 26.7328 28.6413 26.6287 28.4607 26.565C28.2755 26.5042 28.0844 26.4729 27.8842 26.4729C27.6712 26.4729 27.483 26.5025 27.3117 26.5609C27.1267 26.6272 26.9585 26.7333 26.8191 26.8718C26.6807 27.0061 26.5667 27.189 26.4787 27.4159C26.389 27.6416 26.3496 27.9114 26.3496 28.2257C26.3496 28.5493 26.3861 28.8196 26.4724 29.0314C26.5534 29.2456 26.6663 29.4216 26.8092 29.5675C26.9569 29.7133 27.1218 29.8193 27.3076 29.8812C27.494 29.9437 27.6868 29.9738 27.8842 29.9738C28.0844 29.9738 28.2818 29.9425 28.4711 29.8742C28.6587 29.8048 28.8254 29.7029 28.9637 29.5582C29.1061 29.4054 29.2213 29.2294 29.2989 29.0257C29.3793 28.8196 29.4187 28.5516 29.4187 28.224ZM31.1871 28.2257C31.1871 29.0801 30.8942 29.7515 30.302 30.2395C29.7162 30.724 28.907 30.9683 27.8795 30.9683C26.8515 30.9683 26.0492 30.724 25.4582 30.2285C24.8724 29.7313 24.583 29.0644 24.583 28.2257C24.583 27.3788 24.8724 26.7126 25.4582 26.2159C26.0492 25.7245 26.8515 25.4791 27.8795 25.4791C28.907 25.4791 29.7162 25.721 30.302 26.2113C30.8942 26.7016 31.1871 27.369 31.1871 28.2257Z" fill="#002F6A"/>
<path d="M22.4473 25.6654H21.6671V25.8882C22.2222 25.9311 22.2123 26.4538 22.2123 26.7854V29.0435C22.2106 29.1211 22.2042 29.1905 22.2031 29.2559C22.1982 29.3957 22.1569 29.5318 22.0832 29.6507C22.0115 29.7624 21.8916 29.8527 21.7278 29.9187C21.5559 29.9789 21.318 30.0137 21.0025 30.0137C20.7612 30.0137 20.6986 30.0206 20.5435 29.9841L20.5244 30.8374C20.7988 30.853 21.0934 30.8611 21.4043 30.8611C21.8251 30.8611 22.1967 30.8246 22.5156 30.7499C22.8154 30.6905 23.1009 30.5736 23.3561 30.4055C23.5492 30.2884 23.7085 30.1231 23.8184 29.9258C23.9283 29.7285 23.9851 29.5061 23.983 29.2803V25.6654H22.4473Z" fill="#002F6A"/>
<path d="M12.2932 27.6711C11.5824 27.4419 10.9665 27.2422 10.9665 26.8046C10.9665 26.2367 11.6241 26.1945 11.8226 26.1945C12.5265 26.1945 13.0289 26.2854 13.3282 26.4648L13.5551 26.6002V25.6104L13.4 25.5902C13.1082 25.5479 12.4281 25.4524 11.7074 25.4524C10.1208 25.4524 9.17383 26.0017 9.17383 26.9232C9.17383 27.9113 10.2007 28.2708 11.1043 28.5874C11.7954 28.8282 12.4437 29.0569 12.4437 29.4991C12.4437 30.207 11.6449 30.2823 11.3005 30.2823C10.4948 30.2823 9.75846 30.0606 9.48351 29.9188L9.27107 29.8099V30.7894L9.46672 30.8247C9.75499 30.8756 10.5191 31.0122 11.2716 31.0122C13.1679 31.0122 14.2972 30.4021 14.2972 29.3804C14.2972 28.3206 13.2344 27.9738 12.2932 27.6711Z" fill="#002F6A"/>
<path d="M16.3869 28.5066L16.9455 27.0884L17.5498 28.4846L16.3869 28.5066ZM18.3828 26.3985C18.1171 25.8092 17.9452 25.3201 17.1718 25.3496C16.7302 25.3612 16.5328 25.5904 16.2949 26.0564H16.2931L14.1543 30.844H15.3438L16.05 29.2921H17.9261L18.6305 30.844H20.3728L18.3828 26.3985Z" fill="#002F6A"/>
<path d="M32.0298 21.1969C32.0043 21.1309 31.9007 21.0724 31.8451 21.0232C31.7936 20.9798 31.3149 20.9335 31.2455 20.9416C30.8362 20.9729 30.64 20.9358 30.2996 20.9902C29.9187 21.0487 29.2768 21.1604 28.7425 21.2473C28.1701 21.3439 27.7782 21.3827 27.2398 21.4377C26.4578 21.517 26.2489 21.4487 25.4622 21.4163C25.1629 21.403 24.6148 21.3161 23.9699 21.161C23.398 21.0238 23.1098 20.9532 22.1744 20.5752C22.0574 20.5301 21.3044 20.2841 21.1695 20.2163C21.074 20.1689 20.8749 20.155 20.777 20.1092C20.3313 19.9049 19.8902 19.8256 19.433 19.6676C19.0034 19.5194 18.8836 19.5148 18.2353 19.4268C18.0703 19.4036 17.9505 19.362 17.6802 19.3481C17.5477 19.3405 17.3827 19.3191 17.2507 19.3046C17.1454 19.3035 16.5416 19.3018 16.4201 19.2682C15.9437 19.252 15.5535 19.2334 14.9457 19.3018C14.7096 19.3272 14.6685 19.4245 14.3466 19.4349C14.0306 19.4401 13.7116 19.5304 13.4054 19.5952C12.2506 19.8401 12.1215 19.9697 11.2996 20.2719C11.0987 20.3431 10.9349 20.4612 10.7404 20.537C10.5367 20.6169 10.5413 20.6673 10.3514 20.7732C9.06177 21.495 7.9747 22.6683 8.01579 22.8397C7.86356 23.1818 7.80741 23.5158 8.09741 23.6321C8.46671 23.7814 8.62011 23.9615 9.0253 23.9568C9.46233 24.0367 10.095 23.9892 10.7011 23.848C11.8501 23.5835 12.4932 22.8802 16.8195 22.8518C18.1398 22.8489 19.4607 23.0567 20.652 23.3247C21.1921 23.4833 21.5481 23.5366 21.922 23.6263C22.1327 23.6945 22.344 23.7609 22.5558 23.8254C23.7511 24.1988 23.9184 24.1803 24.198 24.2162C25.3146 24.3678 25.6353 24.4975 26.6234 24.4188C28.2511 24.2839 29.3428 23.8787 29.623 23.5366C29.7289 23.4011 29.0401 23.5696 29.0401 23.5696C29.0401 23.5696 28.375 23.7571 27.7209 23.7936C27.1166 23.8266 26.5244 23.6691 26.5244 23.6691C27.5026 23.6234 29.0511 23.4185 29.8655 23.191C30.2302 23.0845 30.5896 22.9502 31.0417 22.6018C31.1343 22.5334 31.2622 22.4594 31.4272 22.2817C31.5198 22.1873 31.0597 22.2921 30.974 22.2272C30.7945 22.0767 31.2698 22.031 31.0313 21.9673C30.9057 21.9297 30.4472 22.0142 30.3245 22.0281C30.1555 22.0478 29.9975 22.0901 29.8273 22.0901C29.7654 22.0935 29.6785 22.1873 29.6687 22.0982C29.6606 21.9598 29.9263 21.972 30.0114 21.9326C30.093 21.8944 30.3147 21.851 30.4015 21.7873C30.7181 21.7387 30.7882 21.737 31.1181 21.6438C31.2819 21.6565 31.4261 21.5425 31.5928 21.5413C31.6628 21.5378 31.9904 21.4661 32.0483 21.4331C32.0982 21.4124 32.1427 21.3807 32.1786 21.3404C32.2035 21.2895 32.0512 21.2513 32.0298 21.1969Z" fill="#002F6A"/>
<path d="M19.0433 12.4384C19.0126 12.2202 18.9455 12.0077 18.9333 11.7913C18.9194 11.6072 18.894 11.4277 18.8679 11.2558C18.8552 11.1314 18.7637 10.3372 18.4998 9.84575C18.3366 9.53896 18.2914 9.30511 18.1177 9.01511C17.9638 8.75057 17.5927 8.82409 17.3548 8.9798C17.2107 9.07704 17.2958 9.18529 17.1684 9.27964C17.0648 9.35663 16.8871 9.32537 16.8466 9.48745C16.8362 9.52276 16.8605 9.55691 16.8524 9.59337C16.8466 9.62984 16.8617 9.65705 16.8692 9.69294C16.8802 9.71956 16.8755 9.74735 16.8831 9.76471C16.8871 9.7815 16.8999 9.79597 16.9074 9.81044C16.956 9.8799 16.9844 9.96094 16.9479 10.0327C16.945 10.046 16.9369 10.0628 16.9253 10.0686C16.9161 10.0686 16.901 10.0669 16.8906 10.0686C16.8617 10.0732 16.8431 10.0866 16.8188 10.0975C16.7829 10.1138 16.7557 10.1219 16.7511 10.1595C16.7396 10.2042 16.7406 10.2513 16.754 10.2955C16.7644 10.3482 16.7459 10.3945 16.7522 10.4437C16.7522 10.4663 16.7598 10.4906 16.7598 10.5149C16.7656 10.5815 16.8964 10.8344 16.9253 10.8929C16.9479 10.9525 16.9479 11.0254 16.9601 11.0827C16.9803 11.1858 17.0069 11.2848 17.0359 11.3826C17.0602 11.4781 17.2061 11.7218 17.235 11.7901C17.253 11.8277 17.2819 11.8717 17.2755 11.9128C17.2674 11.9504 17.2472 11.9724 17.2657 12.0164C17.29 12.0882 17.3079 12.1606 17.3305 12.2289C17.3548 12.2972 17.5036 12.2891 17.525 12.362C17.536 12.4135 17.525 12.5067 17.58 12.5449C17.6871 12.6121 17.6269 12.4859 17.7224 12.6404C17.7554 12.6914 17.7328 12.7348 17.7739 12.7782C17.6963 12.8158 17.8486 12.843 17.8926 12.9131C17.9123 12.9617 17.8937 13.0265 17.9256 13.0636C17.9528 13.1041 17.9701 13.1834 18.0153 13.1996C18.3111 13.0983 18.7921 12.9733 19.1064 12.9194C19.0867 12.7967 19.0578 12.549 19.0433 12.4384Z" fill="#D22329"/>
<path d="M22.6939 13.2616C22.7669 13.1666 22.7744 13.0833 22.8155 12.9617C22.8398 12.8894 22.8849 12.8396 22.9272 12.7881C22.9729 12.7296 23.0227 12.6549 23.0748 12.6127C23.245 12.49 23.3006 12.259 23.4227 12.1056C23.4441 12.083 23.4632 12.0523 23.4812 12.0327C23.5396 11.9522 23.5958 11.8775 23.6444 11.7948C23.7034 11.7201 23.8881 11.3236 23.9448 11.2477C23.9929 11.1679 24.0496 11.0857 24.1011 11.0145C24.1254 10.9722 24.1532 10.9329 24.1845 10.8929C24.1972 10.8744 24.2099 10.857 24.2255 10.8304C24.2325 10.8217 24.2487 10.8171 24.2499 10.7974C24.2591 10.7893 24.2591 10.7835 24.262 10.7777C24.263 10.7714 24.2656 10.7654 24.2695 10.7604C24.2829 10.743 24.291 10.7256 24.2979 10.7054C24.3164 10.6718 24.3396 10.6376 24.3575 10.6075C24.394 10.5375 24.4316 10.4819 24.4681 10.4131C24.5034 10.3557 24.537 10.2869 24.5717 10.2203C24.5989 10.1601 24.625 10.0987 24.6458 10.0293C24.6551 9.97602 24.6672 9.90772 24.6585 9.84694C24.6541 9.78441 24.6329 9.72422 24.5972 9.67271C24.5549 9.64956 24.4808 9.59514 24.4334 9.59341C24.4154 9.59341 24.394 9.61077 24.3772 9.61077C24.3546 9.61077 24.335 9.60151 24.3153 9.59804C24.265 9.58217 24.2165 9.56122 24.1706 9.53552C24.0965 9.50369 24.0507 9.528 23.983 9.55752C23.9309 9.58704 23.7474 9.48285 23.682 9.42381C23.5471 9.30977 23.3706 9.36303 23.2739 9.45101C23.1616 9.54421 23.0916 9.68139 22.988 9.77285C22.7744 9.94535 22.7003 10.2296 22.5347 10.4408C22.474 10.5062 22.4508 10.6799 22.3947 10.747C22.357 10.8015 22.375 10.8842 22.3356 10.9311C22.2974 10.9855 22.2824 11.055 22.2563 11.1175C22.2308 11.1632 22.2141 11.2084 22.184 11.2477C22.0942 11.3693 21.9408 11.8289 21.8679 11.9644C21.8424 12.0217 21.8407 12.1751 21.806 12.2237C21.7527 12.2908 21.7411 12.3811 21.7417 12.4587C21.7435 12.5206 21.7348 12.4992 21.7545 12.5606C21.7817 12.6323 21.733 12.7464 21.7076 12.8072C21.6827 12.8714 21.6439 12.9299 21.6393 12.9999C21.6294 13.0456 21.6219 13.0242 21.6312 13.0532C21.9552 13.1542 22.2726 13.2752 22.5816 13.4155C22.6436 13.3756 22.6517 13.3119 22.6939 13.2616Z" fill="#D22329"/>
<path d="M15.3739 15.0895C15.3872 15.0687 15.3849 15.0733 15.3965 15.0832C15.4318 15.0369 15.4666 14.9853 15.5065 14.9408C15.5105 14.9275 15.5181 14.9194 15.5308 14.9118C15.6443 14.7787 15.7988 14.6525 15.9215 14.5275C15.9262 14.4482 15.7369 14.2572 15.6882 14.2091C15.6049 14.1269 15.5667 14.01 15.4775 13.9272C15.3936 13.8439 15.3739 13.6829 15.2767 13.6036C15.1887 13.5319 15.0972 13.4323 15 13.3756C14.758 13.2349 14.5983 13.0271 14.3795 12.8633C14.1578 12.6821 13.9453 12.4824 13.7335 12.2891C13.6553 12.2445 13.6113 12.1675 13.5292 12.1206C13.4221 12.0263 13.2895 11.9493 13.1668 11.8596C13.1078 11.8214 13.0557 11.7797 12.9908 11.7641C12.9256 11.7501 12.8636 11.7235 12.8085 11.6859C12.7616 11.6425 12.6007 11.5777 12.5445 11.6031C12.5082 11.614 12.4756 11.6346 12.4502 11.6628C12.4259 11.6859 12.4033 11.7172 12.3593 11.7322C12.28 11.7658 12.2134 11.7288 12.1272 11.7247C12.0514 11.7201 11.9738 11.7641 11.9101 11.7976C11.8719 11.8214 11.8511 11.9163 11.8482 11.9493C11.8462 11.9888 11.8521 12.0284 11.8655 12.0656C11.898 12.1675 11.9663 12.2544 12.0514 12.329C12.0954 12.3724 12.144 12.4101 12.1845 12.4494C12.3113 12.5606 11.7631 12.3707 11.8916 12.4876C11.9009 12.5067 11.8847 12.5397 11.8569 12.5525C11.7399 12.6358 11.8204 12.9194 11.8146 13.0485C11.8146 13.1105 11.865 13.25 11.8933 13.3015C12.0525 13.5319 12.2835 13.6766 12.489 13.8769C12.5914 13.9758 13.2779 14.4569 13.3474 14.4864C13.4643 14.5419 13.5511 14.5066 13.6553 14.5732C13.7069 14.6149 13.759 14.6461 13.8238 14.6786C13.8805 14.7058 13.9407 14.7254 13.9911 14.7636C14.0426 14.7984 14.0924 14.8435 14.1474 14.8632C14.1995 14.8835 14.2776 14.9552 14.3291 14.9842C14.4993 15.0803 14.9039 15.2528 15.0156 15.2719C15.0689 15.2858 15.165 15.3442 15.2171 15.3217C15.2541 15.2661 15.2906 15.2117 15.3317 15.1619C15.3299 15.1382 15.3571 15.1277 15.3739 15.0895Z" fill="#D22329"/>
<path d="M14.3684 17.0216C13.9389 16.8537 13.591 16.7362 13.2889 16.7061C12.9462 16.676 12.6741 16.5273 12.3054 16.507C11.9517 16.492 11.8574 16.4196 11.4117 16.4723C11.3034 16.4833 11.0603 16.4387 10.9793 16.5006C10.9145 16.5461 10.8392 16.574 10.7605 16.5817C10.6296 16.5875 10.5231 16.6239 10.3993 16.6726C10.3395 16.7034 10.2755 16.7254 10.2094 16.738C10.1533 16.749 10.1046 16.9788 10.0606 17.0123C9.9877 17.065 9.9466 17.0546 9.91477 17.1518C9.88582 17.2242 9.8372 17.2358 9.87714 17.278C10.001 17.3955 10.056 17.476 10.0693 17.3967C10.0757 17.3625 10.2065 17.4239 10.2713 17.4424C10.3234 17.4546 10.4612 17.4772 10.4201 17.5455C10.3929 17.5912 10.2823 17.6033 10.2412 17.6086C10.1808 17.6194 10.1185 17.6142 10.0606 17.5935C9.86499 17.5165 10.0606 17.5321 9.86035 17.5385C9.799 17.5385 9.55762 17.4841 9.59466 17.663C9.62361 17.7886 9.7278 17.9061 9.79495 17.9952C9.92692 18.1602 9.98018 18.1231 10.1654 18.1689C10.2777 18.1967 10.2823 18.2123 10.401 18.2268C10.5295 18.2424 10.6615 18.2545 10.7906 18.2742C10.86 18.2841 10.9254 18.2916 10.9926 18.3066C11.0817 18.3147 11.1703 18.313 11.26 18.3211C11.3532 18.335 11.4371 18.3396 11.5257 18.3338C11.6345 18.3246 11.7619 18.3524 11.8655 18.3686C11.9228 18.3773 11.9795 18.3836 12.0333 18.3935C12.1138 18.4068 12.1914 18.3935 12.2643 18.4079C12.3465 18.4247 12.4327 18.4207 12.5086 18.4189C12.6788 18.4207 12.857 18.4207 13.0093 18.3379C13.143 18.2609 13.2738 18.2951 13.4318 18.2586C13.5441 18.2297 13.6107 18.1116 13.7247 18.0983C13.7751 18.0948 13.822 18.078 13.8579 18.0826C13.9522 18.104 14.0894 18.1602 14.1479 18.1162C14.1496 18.0612 14.1571 17.9744 14.1675 17.9206C14.248 17.5518 14.2758 17.3058 14.3684 17.0216Z" fill="#D22329"/>
<path d="M25.7549 17.1773C26.1844 17.0071 26.5288 16.9145 26.8321 16.885C27.1754 16.8566 27.4457 16.7067 27.8133 16.687C28.1669 16.6697 28.2607 16.5991 28.7099 16.6517C28.8164 16.6627 29.0595 16.6164 29.1411 16.6812C29.2057 16.7257 29.2807 16.7529 29.3588 16.76C29.489 16.7669 29.5949 16.8051 29.72 16.8509C29.7805 16.8812 29.8447 16.9038 29.911 16.918C29.9683 16.9261 30.0152 17.1565 30.0609 17.1906C30.1339 17.2456 30.1721 17.2352 30.2068 17.3307C30.234 17.4036 30.2826 17.4135 30.2433 17.4592C30.1188 17.575 30.0638 17.6543 30.0505 17.5802C30.0441 17.5432 29.9127 17.6062 29.8485 17.6213C29.7964 17.6323 29.6586 17.6566 29.6997 17.7238C29.724 17.7701 29.8381 17.7828 29.8786 17.7892C29.9399 17.8006 30.0033 17.7939 30.0609 17.7701C30.2548 17.6989 30.058 17.7116 30.2595 17.7174C30.3208 17.7174 30.5622 17.6636 30.5234 17.8407C30.4962 17.9674 30.3938 18.0855 30.3255 18.1741C30.1912 18.3402 30.1396 18.3038 29.955 18.3477C29.841 18.3761 29.8381 18.3906 29.72 18.4068C29.5903 18.4207 29.4578 18.4323 29.3298 18.4537C29.2615 18.4622 29.1935 18.4734 29.1261 18.4872C29.0387 18.4925 28.9501 18.4925 28.8604 18.4988C28.772 18.5133 28.6823 18.5176 28.593 18.5116C28.4841 18.5069 28.3585 18.5341 28.2561 18.548C28.197 18.5567 28.142 18.5619 28.0859 18.5729C28.0072 18.5845 27.929 18.5729 27.8573 18.5885C27.7733 18.6042 27.6853 18.6013 27.6112 18.5995C27.4399 18.6013 27.2634 18.6013 27.1105 18.5168C26.9768 18.4409 26.8448 18.4763 26.688 18.4386C26.5763 18.4079 26.5091 18.2904 26.3939 18.2783C26.3441 18.2748 26.2978 18.2557 26.262 18.2621C26.1659 18.2841 25.9992 18.3315 25.9384 18.2904C25.9355 18.2366 25.9419 18.1643 25.9297 18.1093C25.8504 17.74 25.8267 17.4123 25.7549 17.1773Z" fill="#D22329"/>
<path d="M24.5281 14.9033C24.6983 15.1082 24.7683 15.1892 24.9073 15.415C24.92 15.4173 24.9518 15.5116 24.9657 15.5255C25.0051 15.5678 25.0143 15.5446 25.063 15.529C25.1052 15.5099 25.3478 15.415 25.3918 15.4063C25.4242 15.4045 25.8091 15.2402 25.8855 15.2002C25.9446 15.1719 26.0927 15.1012 26.1616 15.0781C26.5772 14.9212 26.9477 14.6712 27.3014 14.4124C27.3818 14.3499 27.5063 14.3256 27.5821 14.2573C27.6591 14.2023 27.7112 14.1201 27.776 14.0501C27.842 13.9893 27.9173 13.9285 27.9995 13.8955C28.077 13.8613 28.0955 13.7971 28.176 13.7583C28.2217 13.7346 28.2507 13.6917 28.2895 13.6512C28.3265 13.6003 28.4747 13.4475 28.3989 13.3838C28.3595 13.3433 28.2976 13.3676 28.2588 13.3172C28.1893 13.2235 28.3062 13.1378 28.3734 13.088C28.4272 13.0533 28.4758 13.0047 28.5198 12.9607C28.5551 12.9103 28.6634 12.8513 28.62 12.7859C28.5644 12.6961 28.422 12.7667 28.3392 12.7372C28.2414 12.7077 28.1685 12.7228 28.066 12.7077C27.8796 12.6678 27.5856 12.7129 27.4102 12.7523C27.332 12.7783 27.2527 12.809 27.1723 12.8298C27.0924 12.8495 27.0224 12.8935 26.9431 12.8935C26.8447 12.8987 26.8823 12.9578 26.7868 12.9693C26.7138 12.9751 26.6409 12.9734 26.579 12.9861C26.4105 13.0267 26.2739 13.1656 26.1431 13.2657C26.069 13.3172 25.9735 13.3578 25.8913 13.4029C25.7176 13.5058 25.5504 13.6193 25.3906 13.7427C25.2748 13.8359 25.155 13.9331 25.0225 14.02C24.9686 14.0518 24.92 14.0726 24.8731 14.1201C24.8245 14.1716 24.7805 14.2312 24.7301 14.2827C24.6786 14.3337 24.4766 14.4691 24.4407 14.5299C24.3973 14.5814 24.3342 14.6266 24.3203 14.703C24.3672 14.751 24.428 14.7898 24.4731 14.8436C24.4992 14.8014 24.5542 14.9669 24.5281 14.9033Z" fill="#D22329"/>
<path d="M24.8664 19.7414C24.8676 19.5978 25.1049 19.3825 24.9666 19.1787C25.0181 19.0832 24.977 19.0328 24.9486 18.9564C24.9527 18.9188 24.9556 18.8818 24.9556 18.8465C24.988 18.8256 24.988 18.7834 24.988 18.7359C24.9753 18.7286 24.9652 18.7174 24.9591 18.7041C24.956 18.659 24.9516 18.614 24.9457 18.5692C25.0181 18.4841 25.0412 18.4378 24.9133 17.8069C24.9133 17.8069 24.8861 17.3779 24.7889 17.2766C24.7809 17.2188 24.7641 17.1626 24.7391 17.1099C24.7096 17.0387 24.7096 17.0532 24.7055 16.9531C24.7831 16.8766 24.6251 16.8917 24.6905 16.8234C24.6598 16.7505 24.6025 16.8153 24.562 16.8234C24.5162 16.7985 24.5249 16.5699 24.496 16.5363C24.5006 16.4269 24.4416 16.4211 24.2714 16.1068C24.2135 15.8776 24.1556 15.9372 24.0561 15.7352C23.9559 15.6425 23.7568 15.4104 23.6734 15.4046C23.4656 15.0232 23.4801 15.1291 23.1803 14.8831C23.1936 14.875 22.8949 14.5445 22.7369 14.5445C22.6848 14.5723 22.5111 14.4374 22.5198 14.409C22.3137 14.361 21.9977 14.1428 21.7806 14.0745C21.3725 13.8238 21.277 13.9303 20.5969 13.807C20.5737 13.7862 20.5448 13.7723 20.4915 13.7873V13.807C20.4585 13.807 20.4232 13.8093 20.3873 13.8117L20.3931 13.825C20.3863 13.8218 20.3809 13.8161 20.3781 13.8091C20.3753 13.8022 20.3753 13.7944 20.3781 13.7873L20.3202 13.7509L20.275 13.77L20.0308 13.752C19.9034 13.7428 19.6933 13.807 19.4519 13.7914C19.2198 13.8568 19.199 13.807 19.0346 13.8342C18.9304 13.8516 18.8603 13.8452 18.7469 13.8967C18.6826 13.9153 18.5593 13.906 18.4974 13.9303L18.4806 13.9315C18.4747 13.9338 18.4691 13.9367 18.4638 13.9402C18.3168 13.9921 18.1723 14.051 18.0308 14.1167C17.8762 14.1909 17.7255 14.2731 17.5793 14.3627C17.4381 14.445 17.3019 14.5354 17.1713 14.6336C17.0086 14.7598 16.8616 14.8953 16.6989 15.0185C15.8521 15.6732 15.0718 17.1209 15.0411 18.3822C15.0336 18.5067 15.0492 18.5067 15.0504 18.5727C15.1042 18.5727 15.2038 18.5431 15.2478 18.5443C15.5574 18.5339 15.881 18.4928 16.0992 18.4795C16.5926 18.4415 17.0883 18.4481 17.5805 18.4992C17.6974 18.5067 18.0436 18.5211 18.1345 18.5293C18.256 18.5431 19.0334 18.6653 19.1804 18.6902C19.4947 18.744 19.7836 18.8661 20.0487 18.9391C20.3127 19.0091 20.6148 19.0548 20.8301 19.1336C21.1896 19.2609 21.4258 19.3605 21.6469 19.4473C21.8078 19.5144 21.9572 19.5741 22.0828 19.6238C22.3427 19.7286 22.4399 19.7524 22.584 19.7888L22.782 19.8537C22.782 19.8537 23.0286 19.9515 22.9464 19.9167C23.113 19.9795 23.2801 20.0411 23.4477 20.1014C23.4778 20.1159 23.5143 20.1338 23.5507 20.1489C23.5773 20.0811 23.5999 20.0099 23.6237 19.9405C23.7342 19.4085 23.8037 18.9101 23.7024 18.1437C23.6549 17.7692 23.6155 17.5811 23.476 17.2934C23.3273 16.9803 23.3169 16.9704 23.5154 17.0497L23.6954 17.2708C23.7944 17.5238 23.9495 17.8613 24.0132 18.2248C24.03 18.3897 24.0092 18.3938 24.0497 18.5443C24.0254 18.6653 23.9605 18.7978 24.0775 18.8169C24.0757 18.8847 24.1683 18.9651 24.0757 19.0242C24.1307 19.2609 23.9739 19.5006 23.9889 19.6812C23.9785 19.7616 24.0103 19.8751 23.927 19.9011C23.9073 19.9908 23.8037 20.0788 23.8951 20.1124L23.8361 20.2884C23.9559 20.3434 24.0618 20.3937 24.1122 20.4076C24.3628 20.4886 24.5799 20.5315 24.7073 20.594C24.742 20.5512 24.7339 20.4869 24.7802 20.4117C24.8618 20.2114 24.907 20.0088 24.907 19.9746L24.8925 19.9926C24.8989 19.9573 24.907 19.9179 24.9168 19.8803C24.9527 19.838 24.8288 19.8091 24.8664 19.7414Z" fill="#D22329"/>
<circle cx="20" cy="20" r="19.5" stroke="black" stroke-opacity="0.05"/>
</svg>
