<svg width="40" height="40" viewBox="0 0 40 40" fill="none" xmlns="http://www.w3.org/2000/svg">
<circle cx="20" cy="20" r="20" fill="#040204"/>
<path d="M14.7702 15.7016C14.8323 15.6759 14.873 15.6298 14.8923 15.5634C15.7023 12.8379 17.0693 10.4263 18.9935 8.32858C19.0663 8.25144 19.1563 8.20966 19.2634 8.20323C21.9632 8.07467 24.4616 8.74641 26.7586 10.2184C26.7726 10.227 26.7836 10.2396 26.7902 10.2546C26.7968 10.2697 26.7987 10.2863 26.7955 10.3024C26.7924 10.3185 26.7844 10.3333 26.7726 10.3447C26.7608 10.3561 26.7459 10.3636 26.7297 10.3663C24.8559 10.7102 23.1942 11.1312 21.5422 12.1629C21.4993 12.1908 21.4726 12.2294 21.4619 12.2786C21.4383 12.3965 21.4833 12.4351 21.5968 12.3944C23.6324 11.638 25.7773 11.2994 28.0314 11.3787C28.1599 11.3851 28.2681 11.4355 28.356 11.5298L29.4809 12.7415C29.7273 13.0093 29.6737 13.1014 29.3202 13.0179C27.0661 12.4929 24.8559 12.5208 22.6896 13.1014C22.6619 13.1096 22.638 13.1273 22.6221 13.1514C22.6062 13.1756 22.5994 13.2045 22.6028 13.2332L22.6125 13.3296C22.6125 13.3489 22.6275 13.3564 22.6575 13.3521C25.3594 13.0479 27.9542 13.4453 30.4419 14.5446C30.5873 14.6089 30.7055 14.7214 30.7762 14.8627C31.629 16.5855 32.0361 18.3414 31.9975 20.1306C31.9911 20.3856 31.9022 20.4177 31.7307 20.227C29.7895 18.0843 27.4475 16.5351 24.7048 15.5795C24.2806 15.4316 23.8274 15.3341 23.3453 15.287C22.725 15.2227 22.2172 14.7599 21.6193 14.6185C18.761 13.9521 16.5444 14.8563 14.9695 17.3311C14.7145 17.734 14.5538 18.23 14.4874 18.8192C14.4488 19.1642 14.3706 19.1728 14.2527 18.845C14.062 18.3157 13.9453 17.7597 13.9024 17.1769C13.701 14.4064 14.2067 11.7398 15.4194 9.17709C15.4488 9.11623 15.4903 9.06222 15.5412 9.01851C15.5921 8.9748 15.6513 8.94233 15.7151 8.92318L17.0972 8.51178C17.425 8.41536 17.4989 8.51178 17.3189 8.80105C16.0944 10.7648 14.8795 13.2364 14.6159 15.5859C14.6139 15.6052 14.617 15.6247 14.6248 15.6425C14.6325 15.6603 14.6448 15.6758 14.6603 15.6874C14.6759 15.699 14.6941 15.7065 14.7134 15.709C14.7326 15.7115 14.7522 15.7089 14.7702 15.7016Z" fill="#B99A04"/>
<path d="M12.7804 20.9019C11.2612 18.9456 10.2948 16.7408 9.8813 14.2874C9.82987 13.9853 9.7913 13.7153 9.98415 13.4421C11.0084 11.9979 12.264 10.8152 13.751 9.89379C14.0424 9.71166 14.141 9.78559 14.0467 10.1156C13.3246 12.6118 13.1639 15.1145 13.5646 17.6236C13.6267 18.0114 13.7221 18.38 13.8506 18.7292C14.0403 19.2435 14.2878 19.6581 14.307 20.227C14.4324 23.8299 17.6882 26.1601 21.2205 25.5205C21.5912 25.4541 21.6329 25.543 21.3458 25.7873C18.9224 27.8475 16.1069 28.6671 12.8864 29.3195C12.6786 29.3602 12.4965 29.3088 12.34 29.1652L11.1862 28.1046C11.1663 28.0871 11.1522 28.0638 11.1461 28.0379C11.1399 28.0121 11.1419 27.985 11.1518 27.9603C11.1616 27.9357 11.1789 27.9147 11.2012 27.9002C11.2234 27.8858 11.2497 27.8786 11.2762 27.8796C13.7221 27.9053 16.1937 27.7961 18.3825 26.8286C18.5067 26.7751 18.6149 26.7001 18.7071 26.6036C18.8721 26.4279 18.8378 26.3712 18.6042 26.4333C15.8551 27.1854 13.0407 27.2507 10.1609 26.6294C10.0452 26.6036 9.95522 26.5415 9.89094 26.4429C8.45533 24.251 7.83716 21.8008 8.03643 19.0924C8.05143 18.9167 8.1125 18.8985 8.21963 19.0378C9.2867 20.3973 10.6687 21.789 12.2436 22.5186C12.6572 22.7093 12.6947 22.6525 12.3561 22.3482C10.7877 20.9437 9.46026 19.4974 8.48319 17.5979C8.36534 17.3729 8.33855 17.1372 8.40283 16.8908C8.52283 16.4237 8.67924 15.9855 8.87209 15.5762C8.99636 15.3148 9.1035 15.3223 9.19349 15.5987C9.77845 17.4082 11.1091 20.1113 12.6743 21.024C12.9186 21.1655 12.9539 21.1248 12.7804 20.9019Z" fill="#B99A04"/>
<path d="M26.0099 17.7298C26.057 17.8219 26.1202 17.9034 26.1995 17.9741C28.2651 19.8768 29.7264 22.283 30.5835 25.1928C30.6099 25.2811 30.6178 25.374 30.6068 25.4657C30.5957 25.5575 30.5659 25.6462 30.5192 25.7264C29.1886 28.0298 27.303 29.7407 24.8625 30.8592C24.8506 30.8651 24.8374 30.8679 24.8241 30.8674C24.8109 30.8669 24.798 30.8632 24.7865 30.8565C24.775 30.8498 24.7654 30.8404 24.7585 30.8291C24.7516 30.8178 24.7475 30.8049 24.7468 30.7917C24.7382 30.6974 24.7553 30.6096 24.7982 30.5281C25.561 29.0947 25.9531 27.5691 25.9745 25.9513C25.9767 25.6321 25.9467 25.3889 25.8845 25.2218C25.7903 24.9689 25.7249 24.9753 25.6885 25.241C25.4014 27.2959 24.645 29.2457 23.4194 31.0906C23.2501 31.3456 23.0144 31.5031 22.7123 31.5631L21.5199 31.7913C21.1685 31.8598 21.1117 31.7602 21.3495 31.4924C22.558 30.1392 24.0397 28.063 24.2582 26.2085C24.3397 25.5014 24.2507 25.4799 23.9915 26.1442C23.2394 28.0533 21.8627 29.805 19.8614 31.3992C19.5014 31.6852 19.1286 31.8555 18.6561 31.8009C16.9527 31.6038 15.3992 31.1024 13.9958 30.2967C13.8051 30.1875 13.8158 30.105 14.0279 30.0493C16.9206 29.2843 20.1796 27.9248 21.9602 25.6653C22.2066 25.3503 22.4969 25.0932 22.8312 24.8939C24.4211 23.9468 25.3553 22.5873 25.6338 20.8153C25.9006 19.1376 25.3285 17.3248 24.0847 16.1388C23.6668 15.7382 23.729 15.6407 24.2711 15.8464C27.348 17.0099 29.8314 18.9501 31.7213 21.667C31.8305 21.8234 31.8627 21.9948 31.8177 22.1813L31.4706 23.5472C31.4106 23.7894 31.3216 23.8001 31.2038 23.5794C29.6953 20.7146 27.9962 18.7347 26.1063 17.6398C25.9713 17.5605 25.9392 17.5905 26.0099 17.7298Z" fill="#B99A04"/>
<path d="M19.1759 19.8383C19.1159 19.354 19.1074 18.8569 19.1502 18.347C19.1738 18.0534 19.042 17.9002 18.7549 17.8874C18.7227 17.8865 18.6922 17.8734 18.6694 17.8507C18.6467 17.828 18.6336 17.7974 18.6327 17.7652L18.6295 17.6656C18.6274 17.5799 18.6702 17.5381 18.7581 17.5402L19.9023 17.5627C20.1037 17.5649 20.1198 17.6217 19.9505 17.7331C19.8627 17.7909 19.7716 17.8424 19.6773 17.8874C19.5702 17.9409 19.5155 18.0277 19.5134 18.1477L19.4845 21.921C19.4802 22.3688 19.3377 22.4181 19.057 22.0688L16.5854 19.0058C16.3947 18.7701 16.3015 18.8034 16.3058 19.1055L16.3379 21.5514C16.3401 21.6778 16.399 21.7667 16.5147 21.8181C16.6218 21.8653 16.7215 21.9242 16.8136 21.9949C16.9764 22.117 16.955 22.1781 16.7493 22.1781L15.5473 22.1813C15.3544 22.1835 15.3308 22.1213 15.4766 21.9949C15.5558 21.9263 15.6458 21.8728 15.7465 21.8342C15.8086 21.8105 15.862 21.7685 15.8994 21.7139C15.9367 21.6593 15.9563 21.5947 15.9554 21.5289L15.9137 18.3052C15.9137 18.183 15.8644 18.0866 15.7658 18.0159L15.4894 17.8102C15.2687 17.6474 15.2955 17.567 15.5698 17.5692L16.6272 17.5756C16.7579 17.5756 16.865 17.627 16.9486 17.7299L18.7838 20.0054C19.1095 20.4104 19.2402 20.3547 19.1759 19.8383Z" fill="#B99A04"/>
<path d="M22.5513 21.5512L22.5577 18.0897C22.5578 18.0353 22.5374 17.9828 22.5004 17.9428C22.4634 17.9029 22.4127 17.8784 22.3584 17.8744C22.2277 17.8615 22.1141 17.8101 22.0177 17.7201C21.902 17.6108 21.9245 17.5572 22.0852 17.5594L24.2418 17.5722C24.2761 17.5722 24.2911 17.5894 24.2868 17.6237L24.2804 17.7104C24.2761 17.7362 24.2633 17.7544 24.2418 17.7651L23.7437 17.9611C23.6365 18.004 23.5883 18.0822 23.599 18.1958C23.6976 19.3035 23.7105 20.3685 23.6376 21.3905C23.614 21.7119 23.7683 21.8866 24.1004 21.9144C24.1947 21.923 24.2504 21.9723 24.2676 22.0623C24.2761 22.1051 24.2461 22.1416 24.1776 22.1715C24.1626 22.178 24.1465 22.1812 24.1294 22.1812L22.0884 22.1844C21.8956 22.1844 21.8774 22.1276 22.0338 22.0141C22.1345 21.9412 22.2416 21.8823 22.3552 21.8373C22.4131 21.8146 22.4628 21.7752 22.4978 21.7241C22.5328 21.6731 22.5514 21.6128 22.5513 21.5512Z" fill="#B99A04"/>
<path d="M20.9477 22.2744C21.2672 22.2744 21.5262 22.0154 21.5262 21.6959C21.5262 21.3764 21.2672 21.1174 20.9477 21.1174C20.6282 21.1174 20.3691 21.3764 20.3691 21.6959C20.3691 22.0154 20.6282 22.2744 20.9477 22.2744Z" fill="#B99A04"/>
<circle cx="20" cy="20" r="19.5" stroke="black" stroke-opacity="0.05"/>
</svg>
