<svg width="40" height="40" viewBox="0 0 40 40" fill="none" xmlns="http://www.w3.org/2000/svg">
<circle cx="20" cy="20" r="20" fill="#020202"/>
<g clip-path="url(#clip0_18553_55633)">
<path d="M13.2381 20.4386C13.254 21.5434 12.3611 22.4531 11.243 22.4697C10.1249 22.4863 9.2044 21.6099 9.18859 20.505C9.17674 19.4043 10.0696 18.4946 11.1837 18.4739C12.3018 18.4573 13.2223 19.3337 13.2381 20.4386ZM12.6416 20.4386C12.6218 19.6494 11.9699 19.0305 11.1837 19.0471C10.3975 19.0678 9.77726 19.7241 9.79306 20.5092C9.81282 21.2984 10.4647 21.9173 11.2509 21.9007C12.0371 21.8799 12.6574 21.2236 12.6416 20.4386Z" fill="white"/>
<path d="M36.951 21.7261L36.9708 21.1114C36.9708 21.0781 36.9471 21.0449 36.9115 21.0449L36.3229 21.0241C36.2596 21.0241 36.228 20.9867 36.228 20.9203V20.5631C36.2359 20.5091 36.2596 20.4842 36.311 20.4842H37.437C37.4725 20.48 37.5002 20.5091 37.5002 20.5465L37.4923 22.0875C37.4923 22.1332 37.4646 22.1747 37.4251 22.1913C36.872 22.4198 36.2794 22.4904 35.6433 22.4032C34.5727 22.2536 33.901 21.1114 34.1539 20.048C34.2645 19.5953 34.462 19.2422 34.7544 18.9847C35.4892 18.3409 36.5046 18.3699 37.3619 18.8019C37.4251 18.8351 37.4686 18.9058 37.4646 18.9805L37.4528 19.3087C37.4528 19.3917 37.4133 19.4167 37.3422 19.3793C36.5283 18.9639 35.5959 18.7811 34.9717 19.616C34.5371 20.1934 34.6359 21.1155 35.2008 21.5973C35.6986 22.021 36.311 21.9795 36.8957 21.8009C36.9313 21.7884 36.9471 21.7676 36.951 21.7303V21.7261Z" fill="white"/>
<path d="M20.7802 20.7871C20.7802 20.7871 20.7565 20.7996 20.7565 20.8162V22.2907C20.7604 22.3364 20.7407 22.3655 20.6932 22.3697C20.5471 22.3904 20.4088 22.3904 20.2705 22.3697C20.2152 22.3614 20.1875 22.3281 20.1836 22.27V18.6023C20.1836 18.5649 20.2112 18.5358 20.2468 18.5358C20.5787 18.5275 20.9145 18.5234 21.2582 18.5275C21.8508 18.5317 22.4632 18.7684 22.5185 19.4538C22.5936 20.3593 22.0997 20.7248 21.3372 20.7497C21.1397 20.758 20.95 20.7705 20.7762 20.7871H20.7802ZM20.7644 19.1256V20.1682C20.7644 20.1973 20.7841 20.2181 20.8118 20.2181H21.3886C21.6928 20.2181 21.9417 19.9938 21.9417 19.7196V19.5742C21.9417 19.2959 21.6928 19.0758 21.3886 19.0758H20.8118C20.7841 19.0758 20.7644 19.0966 20.7644 19.1256Z" fill="white"/>
<path d="M5.27309 19.4416C5.23753 19.562 5.19802 19.6866 5.14666 19.8113C4.79504 20.696 4.46317 21.5516 4.14316 22.3741C4.12341 22.4281 4.06415 22.453 4.01279 22.4322C4.01279 22.4322 4.00883 22.4322 4.00488 22.4322C3.96933 22.4156 3.94562 22.3865 3.93377 22.3492C3.51894 21.2733 3.04089 20.0356 2.50754 18.6358C2.48778 18.5818 2.50754 18.5568 2.5589 18.561L2.98163 18.5735C3.04089 18.5735 3.09225 18.615 3.11596 18.6731C3.39251 19.4042 3.68487 20.1685 3.99698 20.9701C4.00883 20.9992 4.02464 21.0283 4.04439 21.0532C4.05624 21.0657 4.07205 21.0657 4.0839 21.0532C4.0839 21.0532 4.0918 21.0449 4.0918 21.0407C4.35255 20.3471 4.63306 19.6077 4.94122 18.8185C4.97283 18.7396 5.01233 18.6648 5.05579 18.6025C5.0716 18.5776 5.09925 18.5651 5.13086 18.5651H5.52594C5.55359 18.5651 5.5773 18.5776 5.58915 18.5984C5.64841 18.6981 5.70372 18.8061 5.75113 18.9307C5.98028 19.5163 6.21732 20.1435 6.46622 20.8123C6.50178 20.9037 6.53339 20.9909 6.56499 21.0781C6.56894 21.0906 6.5808 21.0947 6.59265 21.0906C6.5966 21.0906 6.60055 21.0864 6.6045 21.0823C6.68747 20.9037 6.75858 20.7251 6.82574 20.5506C7.05884 19.9234 7.29589 19.3045 7.53689 18.6898C7.56454 18.6233 7.6238 18.5818 7.69097 18.5776L7.99913 18.5651C8.1137 18.561 8.14926 18.615 8.1058 18.7271C7.64356 19.9109 7.18527 21.0906 6.73488 22.2661C6.71512 22.3159 6.69537 22.3616 6.66771 22.4032C6.64006 22.4447 6.5887 22.4571 6.54919 22.4322C6.54129 22.4239 6.52943 22.4156 6.52548 22.4073C6.48203 22.3408 6.44647 22.2702 6.41881 22.1996C6.07509 21.2858 5.71557 20.372 5.3363 19.4499C5.31654 19.4 5.29679 19.4 5.28099 19.4499L5.27309 19.4416Z" fill="white"/>
<path d="M17.7656 21.3769C17.8012 21.4018 17.8209 21.3935 17.8209 21.3437V18.6396C17.8209 18.5898 17.8446 18.569 17.8881 18.569H18.3108C18.3582 18.569 18.378 18.594 18.378 18.6438L18.3859 22.2907C18.3859 22.3323 18.3661 22.3572 18.3266 22.3655C18.0856 22.4153 17.8802 22.4153 17.6984 22.1994C16.9478 21.3063 16.2406 20.4507 15.5769 19.6448C15.5136 19.5659 15.4781 19.5784 15.4781 19.6822L15.4702 22.3198C15.4702 22.3655 15.4504 22.3863 15.407 22.3863L14.9566 22.3655C14.925 22.3655 14.9092 22.3447 14.9092 22.3115V18.6396C14.9092 18.6023 14.9289 18.5856 14.9605 18.5815C15.1897 18.5649 15.3556 18.5026 15.5374 18.7144C16.2485 19.5618 16.9399 20.3883 17.6076 21.19C17.655 21.244 17.7142 21.3395 17.7656 21.3769Z" fill="white"/>
<path d="M25.9435 21.8711C26.3939 21.7465 26.6151 21.3104 26.6151 20.8369C26.6151 20.1141 26.6151 19.3872 26.623 18.6562C26.623 18.5939 26.6546 18.5606 26.7139 18.5648L27.0853 18.5773C27.1485 18.5773 27.1801 18.6146 27.1801 18.6811C27.1722 19.2792 27.1722 19.8691 27.1801 20.4506C27.188 20.9739 27.1485 21.3436 27.0615 21.5638C26.8719 22.0414 26.5282 22.3239 26.0343 22.407C25.6985 22.4651 25.2165 22.4651 24.8886 22.353C24.2565 22.137 23.9404 21.6178 23.9404 20.7953C23.9404 20.1224 23.9404 19.3997 23.9483 18.6354C23.9483 18.5897 23.9681 18.569 24.0115 18.569H24.4422C24.5014 18.569 24.5291 18.6022 24.5291 18.6645C24.5133 19.8109 24.5172 20.596 24.5409 21.0155C24.5489 21.1816 24.6002 21.3685 24.699 21.5015C25.0111 21.9085 25.4654 22.0041 25.9356 21.8711H25.9435Z" fill="white"/>
<path d="M29.5271 19.6325V22.2992C29.5311 22.3407 29.5113 22.3656 29.4718 22.3698C29.3138 22.3905 29.1557 22.3905 28.9977 22.3698C28.9621 22.3656 28.9424 22.3448 28.9424 22.3033V18.6522C28.9463 18.6107 28.9661 18.5858 29.0095 18.5775C29.1834 18.5442 29.4165 18.5276 29.5469 18.6813C30.2817 19.5536 31.0165 20.4342 31.7474 21.3189C31.8186 21.4061 31.8541 21.3895 31.8541 21.2773L31.866 18.6356C31.866 18.5941 31.9015 18.5567 31.941 18.5567L32.348 18.5691C32.3993 18.5691 32.423 18.5982 32.423 18.6522V22.2992C32.423 22.3324 32.4112 22.3532 32.3796 22.3615C32.1899 22.403 31.9292 22.4155 31.7869 22.2452C31.0205 21.3189 30.2856 20.4425 29.5864 19.6117C29.5508 19.5702 29.535 19.5743 29.535 19.6325H29.5271Z" fill="white"/>
</g>
<circle cx="20" cy="20" r="19.5" stroke="black" stroke-opacity="0.05"/>
<defs>
<clipPath id="clip0_18553_55633">
<rect width="35" height="4" fill="white" transform="translate(2.5 18.4736)"/>
</clipPath>
</defs>
</svg>
