<svg width="40" height="40" viewBox="0 0 40 40" fill="none" xmlns="http://www.w3.org/2000/svg">
<circle cx="20" cy="20" r="20" fill="#F6F8FA"/>
<g clip-path="url(#clip0_43895_83153)">
<path d="M28.5773 9.91201C28.0136 9.36266 27.1039 9.36266 26.5402 9.91201L11.7431 24.3698C11.1794 24.9191 11.1794 25.8056 11.7431 26.3549C12.3068 26.9043 13.2164 26.9043 13.7801 26.3549L28.5773 11.8971C29.141 11.3478 29.141 10.4614 28.5773 9.91201Z" fill="#D71085"/>
<path d="M25.6946 16.8163L16.0605 26.2301C15.4968 26.7794 15.4968 27.6659 16.0605 28.2152C16.6242 28.7646 17.5338 28.7646 18.0975 28.2152L27.7316 18.8014C28.2953 18.2521 28.2953 17.3657 27.7316 16.8163C27.1679 16.267 26.2583 16.267 25.6946 16.8163Z" fill="#D71085"/>
<path d="M24.3495 24.1952L20.3652 28.0906C19.8015 28.6399 19.8015 29.5264 20.3652 30.0757C20.9289 30.6251 21.8385 30.6251 22.4022 30.0757L26.3865 26.1803C26.9502 25.631 26.9502 24.7446 26.3865 24.1952C25.8228 23.6459 24.9132 23.6459 24.3495 24.1952Z" fill="#D71085"/>
<path d="M19.9936 12.2344C19.4299 11.6725 18.5075 11.6725 17.931 12.2344L11.4228 18.5893C10.8591 19.1511 10.8591 20.0501 11.4228 20.5994C11.9865 21.1612 12.9089 21.1612 13.4854 20.5994L19.9936 14.2445C20.5573 13.6826 20.5573 12.7837 19.9936 12.2344Z" fill="#EEAA1E"/>
</g>
<circle cx="20" cy="20" r="19.5" stroke="black" stroke-opacity="0.05"/>
<defs>
<clipPath id="clip0_43895_83153">
<rect width="18" height="21" fill="white" transform="translate(11 9.5)"/>
</clipPath>
</defs>
</svg>
