<svg width="40" height="40" viewBox="0 0 40 40" fill="none" xmlns="http://www.w3.org/2000/svg">
<circle cx="20" cy="20" r="20" fill="#F6F8FA"/>
<g clip-path="url(#clip0_16850_10968)">
<path d="M20.3687 15.6199V21.225C21.2405 20.7423 22.094 20.337 22.923 20.0011V18.7926L23.2582 19.8687C24.0667 19.5596 24.8211 19.3394 25.5795 19.1482L24.4827 15.6199H20.3687Z" fill="url(#paint0_linear_16850_10968)"/>
<path d="M20.3677 25.1492H22.923V19.9979C22.0941 20.3184 21.2375 20.6885 20.3677 21.1475V25.1492Z" fill="#DE111A"/>
<path d="M27.5735 15.6199L26.5605 18.9063C28.5046 18.5052 30.1993 18.4473 31.6671 18.5548V15.621H27.5735V15.6199Z" fill="url(#paint1_linear_16850_10968)"/>
<path d="M26.569 18.867L26.0794 20.7371L25.5704 19.1234C25.3915 19.1513 25.2453 19.1823 25.1084 19.2123C24.4777 19.3808 23.9125 19.5907 23.2471 19.8357L24.861 25.1492H27.1741L29.1141 19.1937V25.1492H31.6674V18.5476C29.3778 18.3987 28.0511 18.591 26.57 18.867" fill="#DE111A"/>
<path d="M10.9667 15.2405C10.2532 15.5031 9.71458 15.8597 9.36092 16.3156C9.00215 16.7695 8.82634 17.2533 8.82634 17.767C8.82634 18.5455 9.17284 19.1854 9.86892 19.6888C10.5568 20.1912 11.7159 20.5954 13.334 20.8963C14.3224 21.0761 14.954 21.2726 15.2249 21.4752C15.4988 21.6788 15.6348 21.9114 15.6348 22.1678C15.6348 22.4407 15.4907 22.6795 15.2055 22.8863C14.9213 23.0941 14.5125 23.1974 13.9851 23.1974C13.2767 23.1974 12.7329 22.9938 12.3517 22.5885C12.1176 22.3394 11.9622 21.9755 11.8846 21.4979L8.37354 21.683C8.47473 22.6909 8.91731 23.5179 9.70231 24.1702C10.4832 24.8246 11.8938 25.1502 13.9258 25.1502C14.1506 25.1502 14.3632 25.143 14.5738 25.1327C15.2331 24.6003 15.8893 24.1092 16.5414 23.6471C17.0688 23.2553 17.7036 22.8284 18.4436 22.3932C18.7032 22.234 18.9567 22.081 19.2123 21.9352C19.2184 21.8701 19.2184 21.8049 19.2184 21.7409C19.2184 21.1971 19.06 20.706 18.7431 20.2667C18.4252 19.8253 17.9141 19.4593 17.2191 19.1616C16.5189 18.8659 15.367 18.5734 13.7489 18.2829C13.0948 18.1702 12.6839 18.0482 12.5101 17.9159C12.3323 17.7898 12.2433 17.6471 12.2433 17.4879C12.2433 17.2698 12.3496 17.0858 12.5674 16.9349C12.7871 16.7829 13.1101 16.7043 13.5394 16.7043C14.0627 16.7043 14.4726 16.8077 14.769 17.0134C15.0634 17.214 15.2597 17.5396 15.3506 17.9883L18.8422 17.8187C18.6889 16.786 18.2075 16.0344 17.4082 15.561C16.6038 15.0896 15.4416 14.8528 13.9094 14.8528C12.6634 14.8528 11.6832 14.9852 10.9667 15.2426" fill="url(#paint2_linear_16850_10968)"/>
<path d="M17.1807 24.8401C17.8011 24.6572 18.2999 24.2178 18.6576 23.7009C18.9786 23.2368 19.1687 22.479 19.2137 21.9332C18.2682 22.4087 16.7207 23.3794 15.6178 24.2891C15.2938 24.5507 14.6999 24.9849 14.5742 25.1306C14.6652 25.1213 14.9391 25.1213 15.0056 25.1203C15.1262 25.1182 15.2478 25.1161 15.3705 25.1141C15.9929 25.1079 16.5623 25.02 17.1807 24.8391" fill="#DE111A"/>
</g>
<circle cx="20" cy="20" r="19.5" stroke="black" stroke-opacity="0.05"/>
<defs>
<linearGradient id="paint0_linear_16850_10968" x1="22.5005" y1="17.5001" x2="23.0005" y2="20.0001" gradientUnits="userSpaceOnUse">
<stop stop-color="#DF121B"/>
<stop offset="0.570657" stop-color="#F39E12"/>
<stop offset="1" stop-color="#FBDAA4"/>
</linearGradient>
<linearGradient id="paint1_linear_16850_10968" x1="29" y1="16.5001" x2="29.1138" y2="18.9063" gradientUnits="userSpaceOnUse">
<stop stop-color="#DF121B"/>
<stop offset="0.570657" stop-color="#F39E12"/>
<stop offset="1" stop-color="#FBDAA4"/>
</linearGradient>
<linearGradient id="paint2_linear_16850_10968" x1="14.9995" y1="20.0001" x2="16.8167" y2="23.107" gradientUnits="userSpaceOnUse">
<stop stop-color="#DF121B"/>
<stop offset="0.570657" stop-color="#F39E12"/>
<stop offset="1" stop-color="#FBDAA4"/>
</linearGradient>
<clipPath id="clip0_16850_10968">
<rect width="25" height="11" fill="white" transform="translate(7.40723 14.5)"/>
</clipPath>
</defs>
</svg>
