<svg width="40" height="40" viewBox="0 0 40 40" fill="none" xmlns="http://www.w3.org/2000/svg">
<circle cx="20" cy="20" r="20" fill="#C13E21"/>
<g clip-path="url(#clip0_24563_42798)">
<path d="M19.9268 29.9998C14.4037 29.9593 9.95924 25.4547 9.99979 19.931C10.0403 14.4074 14.5497 9.95935 20.0728 9.99979C25.5959 10.0402 30.0403 14.5449 29.9998 20.0685C29.9592 25.5922 25.4499 30.0402 19.9268 29.9998ZM20.0566 28.9646C25.0038 28.9323 28.9941 24.8886 28.9617 19.9391C28.9292 14.9897 24.8822 11.0026 19.9349 11.035C14.9876 11.0673 10.9974 15.111 11.0379 20.0604C11.0703 25.0099 15.1174 28.997 20.0647 28.9646H20.0566Z" fill="white"/>
<path d="M19.5943 12.3694C19.5294 12.2481 19.5619 12.2158 19.6916 12.2643C21.0704 12.8466 21.7111 13.8494 21.63 15.2809C21.5732 16.1947 20.9082 16.8822 19.9674 16.8175C18.6211 16.7204 18.0939 15.0544 19.0834 14.1648C19.6349 13.6634 19.9998 13.1054 19.6024 12.3694H19.5943Z" fill="white"/>
<path d="M24.6634 16.6963C24.412 19.4541 21.7194 21.4274 19.0024 20.7885C17.7778 20.4973 16.8289 19.8423 16.1557 18.8152C15.296 17.5131 15.1419 16.0817 15.6934 14.5208C15.8556 14.0517 16.1557 13.615 16.4558 13.2187C16.6829 12.9195 16.7234 12.9438 16.5855 13.2915C16.1719 14.3105 16.18 15.3214 16.6018 16.3162C17.5182 18.4755 20.1703 19.1791 22.0843 17.9417C23.6902 16.9066 24.1687 14.909 23.4306 13.1945C23.3252 12.9518 23.3576 12.9276 23.528 13.1298C24.4039 14.173 24.7851 15.3619 24.6634 16.6963Z" fill="white"/>
<path d="M21.5815 25.0911C21.5897 25.6572 21.5897 26.1909 21.5815 26.7005C21.5572 28.698 18.5402 28.7061 18.4834 26.7894C18.4672 26.1829 18.4672 25.6006 18.4834 25.0587C18.4834 25.0021 18.4591 24.9698 18.4023 24.9617C15.1176 24.2662 12.6278 21.6863 12.6845 18.2654C12.6845 18.2168 12.6927 18.1683 12.717 18.1198C12.7251 18.0955 12.7575 18.0874 12.7819 18.0955C12.7819 18.0955 12.7981 18.1036 12.7981 18.1117C15.807 22.9641 22.5872 23.4898 26.391 19.2682C26.7154 18.9123 26.983 18.5484 27.1939 18.1683C27.2669 18.047 27.3074 18.0551 27.3236 18.1926C27.348 18.3947 27.3723 18.6455 27.3561 18.8476C27.0965 21.9936 24.7283 24.2904 21.687 24.9455C21.614 24.9617 21.5653 25.0264 21.5653 25.0911H21.5815Z" fill="white"/>
</g>
<circle cx="20" cy="20" r="19.5" stroke="black" stroke-opacity="0.05"/>
<defs>
<clipPath id="clip0_24563_42798">
<rect width="20" height="20" fill="white" transform="translate(10 10)"/>
</clipPath>
</defs>
</svg>
