<svg width="40" height="40" viewBox="0 0 40 40" fill="none" xmlns="http://www.w3.org/2000/svg">
<circle cx="20" cy="20" r="20" fill="#49433B"/>
<g clip-path="url(#clip0_17713_28099)">
<path d="M4.428 17.1896C3.95238 17.1896 3.476 17.1786 3 17.1622C3.01672 17.223 3.02735 17.2785 3.02735 17.3336C3.02735 17.3943 3.01672 17.4551 3 17.5106C3.31037 17.4718 3.80232 17.4494 4.18449 17.4494C4.19551 17.8316 4.20197 18.2141 4.20197 18.5955V19.5472C4.20197 20.0228 4.17955 20.5045 4.1579 20.9805C4.25135 20.9638 4.33949 20.9531 4.428 20.9531C4.51651 20.9531 4.60503 20.9638 4.69886 20.9805C4.67683 20.5045 4.65441 20.0228 4.65441 19.5472V18.5955C4.65441 18.2138 4.66011 17.8312 4.67113 17.4494C5.05292 17.4494 5.54563 17.4718 5.85562 17.5106C5.8389 17.4551 5.82789 17.3943 5.82789 17.3393C5.82789 17.2785 5.8389 17.223 5.85562 17.1622C5.37924 17.1786 4.90286 17.1896 4.42762 17.1896H4.428Z" fill="white"/>
<path d="M10.0887 17.6918V17.6842L10.0819 17.6853C9.99182 17.7013 9.91774 17.7089 9.84936 17.7089C9.78098 17.7089 9.70653 17.7013 9.61801 17.6853L9.60966 17.6842V17.6918C9.62903 18.0937 9.64726 18.5097 9.64726 18.9245V19.0852C9.63587 19.0852 9.32284 19.0909 9.32284 19.0909L8.65842 19.0997L7.99475 19.0909C7.99475 19.0909 7.68096 19.0852 7.66957 19.0852V18.9245C7.66957 18.5298 7.68704 18.1325 7.70755 17.6918L7.70831 17.6842L7.70034 17.6853C7.61068 17.7013 7.53661 17.7089 7.46785 17.7089C7.39909 17.7089 7.32501 17.7013 7.23611 17.6853L7.22852 17.6842V17.6918L7.2289 17.7074C7.24789 18.1066 7.26726 18.5203 7.26726 18.9245V19.744C7.26726 20.1485 7.24789 20.563 7.2289 20.9634V20.9847L7.23611 20.9835C7.32577 20.9672 7.39909 20.96 7.46785 20.96C7.53661 20.96 7.61068 20.9672 7.70034 20.9835L7.70831 20.9847L7.70755 20.9771C7.68704 20.5364 7.66957 20.139 7.66957 19.744V19.3211C7.67906 19.3208 7.71705 19.3204 7.71705 19.3204L8.65842 19.3116L9.60092 19.3204C9.60092 19.3204 9.63777 19.3204 9.64726 19.3211V19.744C9.64726 20.1584 9.62903 20.5748 9.60966 20.9771V20.9847L9.61801 20.9835C9.70767 20.9672 9.78098 20.96 9.84936 20.96C9.91774 20.96 9.99106 20.9672 10.0819 20.9835L10.0887 20.9847V20.9771C10.0697 20.5721 10.0507 20.1535 10.0507 19.744V18.9245C10.0507 18.515 10.0701 18.0968 10.0887 17.6918Z" fill="white"/>
<path d="M14.0126 20.6838L14.0031 20.6853C13.7178 20.74 13.1973 20.7472 12.7247 20.7472C12.7209 20.6446 12.7152 20.4205 12.7152 20.0391C12.7152 19.5924 12.7152 19.4674 12.7202 19.3545C12.9162 19.3545 13.5297 19.3629 13.8705 19.3975L13.8792 19.399L13.8773 19.3903C13.8678 19.3439 13.8625 19.2964 13.8625 19.2489C13.8625 19.2015 13.8682 19.1479 13.8773 19.1023L13.8792 19.0939L13.8709 19.0947C13.5791 19.1198 13.271 19.1422 12.7202 19.1422C12.7202 19.1312 12.7187 18.9416 12.7187 18.9416L12.7152 18.5203L12.7259 18.1461C12.7259 18.1461 12.7339 17.933 12.7339 17.9216C13.2156 17.9216 13.4583 17.9417 13.7387 17.9649L13.9886 17.9843L13.9867 17.9759C13.9772 17.9277 13.9719 17.8806 13.9719 17.8342C13.9719 17.7879 13.9769 17.7404 13.9867 17.6929L13.9886 17.6849H13.9803C13.6714 17.7009 13.3941 17.7089 13.1327 17.7089C12.8714 17.7089 12.5982 17.7013 12.2799 17.6853H12.2734V17.6918C12.2951 18.1267 12.3122 18.5199 12.3122 18.9196V19.7394C12.3122 20.1622 12.2917 20.5953 12.2738 20.9767V20.9835L12.2799 20.9831C12.6058 20.9668 12.8813 20.9596 13.1464 20.9596C13.4116 20.9596 13.6927 20.9676 14.0038 20.9831H14.0118L14.0107 20.9755C14.0012 20.9353 13.9955 20.8847 13.9955 20.8391C13.9955 20.7993 14.0004 20.7362 14.0107 20.6929L14.0126 20.6842V20.6838Z" fill="white"/>
<path d="M16.4758 17.9125C16.4758 17.4988 16.7816 17.2104 17.2059 17.2104C17.6303 17.2104 17.8009 17.533 17.8795 17.7423H17.9482C17.9935 17.5277 18.0333 17.3973 18.101 17.267C17.8745 17.0851 17.6196 17.0004 17.2629 17.0004C16.5096 17.0004 16.0344 17.4426 16.0344 18.0713C16.0344 19.402 17.8176 18.9545 17.8176 19.9965C17.8176 20.4501 17.5121 20.8182 17.008 20.8182C16.5039 20.8182 16.2376 20.495 16.113 20.229H16.0446C16.0222 20.4444 16.0055 20.5573 15.9375 20.7328C16.1362 20.8912 16.4021 21.0561 16.872 21.0561C17.7442 21.0561 18.2594 20.4725 18.2594 19.7819C18.2594 18.5306 16.4754 18.9716 16.4754 17.9129L16.4758 17.9125Z" fill="white"/>
<path d="M22.9609 17.7701L22.9647 17.6843L22.9571 17.6854C22.867 17.7014 22.7937 17.709 22.7246 17.709C22.6554 17.709 22.5833 17.7014 22.4928 17.6854L22.4856 17.6843V17.6919C22.505 18.0949 22.5236 18.5109 22.5236 18.9246V19.0853C22.5118 19.0853 22.1992 19.091 22.1992 19.091L21.5344 19.0997L20.87 19.091C20.87 19.091 20.5569 19.0853 20.5459 19.0853V18.9246C20.5459 18.517 20.5649 18.1006 20.5835 17.6979V17.6793C20.4939 17.6957 20.4122 17.7093 20.3446 17.7093C20.277 17.7093 20.2014 17.7017 20.1125 17.6858L20.1045 17.6846L20.1053 17.6922L20.1068 17.7203C20.1246 18.1158 20.1432 18.525 20.1432 18.925V19.7444C20.1432 20.1448 20.1246 20.5539 20.1068 20.9505L20.1045 20.9847L20.1125 20.9836C20.2021 20.9673 20.2762 20.96 20.3446 20.96C20.413 20.96 20.4844 20.9673 20.5763 20.9836L20.5839 20.9847V20.9726C20.5649 20.5688 20.5463 20.1516 20.5463 19.744V19.3212C20.555 19.3208 20.5915 19.3204 20.5915 19.3204L21.5348 19.3117L22.4773 19.3204C22.4773 19.3204 22.5141 19.3204 22.524 19.3212V19.744C22.524 20.1573 22.505 20.5741 22.486 20.9771V20.9847L22.4932 20.9836C22.5836 20.9673 22.6573 20.96 22.725 20.96C22.7926 20.96 22.867 20.9673 22.9575 20.9836L22.965 20.9847L22.9613 20.9C22.9442 20.5201 22.9267 20.1273 22.9267 19.7444V18.925C22.9267 18.5413 22.9442 18.1496 22.9613 17.7705L22.9609 17.7701Z" fill="white"/>
<path d="M25.6516 17.7362L25.6538 17.6846L25.6462 17.6857C25.5562 17.7017 25.4825 17.7093 25.4149 17.7093C25.3473 17.7093 25.2721 17.7017 25.182 17.6857L25.1748 17.6846V17.6922C25.1934 18.0941 25.2124 18.5101 25.2124 18.9249V19.7443C25.2124 20.1588 25.1934 20.5751 25.1752 20.9774V20.985L25.182 20.9839C25.2721 20.9676 25.3454 20.9603 25.4149 20.9603C25.4844 20.9603 25.5547 20.9676 25.6462 20.9839L25.6538 20.985L25.6516 20.9345C25.6341 20.544 25.6155 20.1394 25.6155 19.7443V18.9249C25.6155 18.5302 25.6341 18.1264 25.6516 17.7366V17.7362Z" fill="white"/>
<path d="M29.6657 20.6842L29.6562 20.6853C29.1821 20.7472 28.7954 20.7472 28.3479 20.7472C28.3479 20.7358 28.3445 20.4278 28.3445 20.4278L28.3342 18.9245C28.3342 18.5207 28.3532 18.1078 28.3718 17.7089L28.3734 17.6842L28.3654 17.6853C28.2757 17.7013 28.202 17.7089 28.1336 17.7089C28.0653 17.7089 27.9908 17.7013 27.9008 17.6853L27.8936 17.6842V17.6918L27.8951 17.7362C27.9125 18.126 27.9312 18.5298 27.9312 18.9245V19.744C27.9312 20.139 27.9125 20.5432 27.8951 20.9341L27.8936 20.9839H27.8996C28.2301 20.9672 28.5105 20.96 28.781 20.96C29.0515 20.96 29.3356 20.968 29.6562 20.9835H29.6657L29.6631 20.9756C29.6467 20.9239 29.6395 20.8775 29.6395 20.8342C29.6395 20.7909 29.6464 20.7442 29.6631 20.6929L29.6657 20.6842Z" fill="white"/>
<path d="M32.93 20.6842L32.9209 20.6853C32.4479 20.7472 32.0612 20.7472 31.6144 20.7472C31.6137 20.7362 31.611 20.4745 31.611 20.4745L31.5989 18.9245C31.5989 18.507 31.6198 18.074 31.6376 17.6918V17.6842L31.63 17.6853C31.54 17.7013 31.4667 17.7089 31.3983 17.7089C31.3299 17.7089 31.257 17.7013 31.1654 17.6853L31.1582 17.6842V17.6918C31.1795 18.1325 31.1966 18.5298 31.1966 18.9245V19.744C31.1966 20.139 31.1795 20.5364 31.1586 20.9771V20.9839L31.165 20.9835C31.4959 20.9672 31.7755 20.96 32.0452 20.96C32.315 20.96 32.6014 20.968 32.922 20.9835H32.9304L32.9281 20.9756C32.9121 20.9209 32.9046 20.8756 32.9046 20.8342C32.9046 20.7928 32.9121 20.7476 32.9281 20.6929L32.9304 20.6842H32.93Z" fill="white"/>
<path d="M35.5259 17.6473C35.4959 17.571 35.4777 17.5227 35.4777 17.5227C35.4002 17.6424 35.203 17.854 35.1495 17.906C35.1495 17.906 35.1844 17.9664 35.2361 18.0591L33.9346 20.9956C34.1371 20.9299 34.3 21.0036 34.3 21.0036C34.3 21.0036 34.5443 20.3419 34.757 19.8047C34.9945 19.7842 35.6486 19.8081 35.6486 19.8081C35.6486 19.8081 35.6646 19.7462 35.6783 19.6949C35.6923 19.6432 35.7299 19.5707 35.7299 19.5707C35.7299 19.5707 35.0773 19.5882 34.8474 19.5806C35.0188 19.1585 35.3652 18.3201 35.3652 18.3201C35.3652 18.3201 35.6236 18.9169 35.9385 19.6706C36.3222 20.5907 36.4468 20.9968 36.4468 20.9968C36.7461 20.9318 36.9627 21.0006 36.9627 21.0006L35.5267 17.6469L35.5259 17.6473Z" fill="white"/>
<path d="M14.7556 24.7128C14.8772 24.9768 15.009 25.0167 15.1648 25.0167C15.3733 25.0167 15.5105 24.8769 15.5105 24.6874C15.5105 24.478 15.3441 24.404 15.2939 24.3831C15.2202 24.3519 15.096 24.304 15.0219 24.2725C14.7659 24.1589 14.6895 24.0241 14.6895 23.8049C14.6895 23.5731 14.8267 23.2776 15.3046 23.2776C15.4972 23.2776 15.613 23.3277 15.7429 23.3855C15.6898 23.515 15.6848 23.5359 15.6605 23.6358H15.6237C15.5838 23.4858 15.4444 23.4067 15.278 23.4067C15.0694 23.4067 14.9661 23.5359 14.9661 23.6917C14.9661 23.8846 15.1013 23.9371 15.333 24.0267C15.5367 24.1061 15.6157 24.135 15.692 24.2197C15.803 24.3379 15.8212 24.494 15.8212 24.5677C15.8212 24.837 15.6339 25.1455 15.1507 25.1455C14.9235 25.1455 14.7522 25.0585 14.6572 25.0106C14.7021 24.8735 14.7047 24.8393 14.718 24.7124H14.7552L14.7556 24.7128Z" fill="white"/>
<path d="M17.181 24.0826C17.3158 24.0826 17.6114 24.08 17.7512 24.064C17.7436 24.0933 17.7383 24.1195 17.7383 24.1594C17.7383 24.1962 17.7436 24.2304 17.7516 24.2486C17.6828 24.2437 17.6141 24.2384 17.5483 24.2357C17.4268 24.2331 17.3029 24.2308 17.1814 24.2308V24.9461C17.2501 24.9461 17.5878 24.9385 17.812 24.9283C17.8017 24.9514 17.7991 24.9776 17.7991 25.0149C17.7991 25.0548 17.8017 25.0806 17.812 25.1102C17.6539 25.1 17.4955 25.0943 17.3265 25.0943C17.1684 25.0943 17.0021 25.1 16.833 25.1102C16.8387 24.9997 16.8436 24.8907 16.8459 24.7801C16.8516 24.6274 16.8566 24.3052 16.8566 24.1837C16.8566 24.0728 16.8516 23.5637 16.833 23.2997C16.9625 23.3077 17.1684 23.3156 17.3109 23.3156C17.4325 23.3156 17.6065 23.3054 17.7964 23.2997C17.7884 23.3308 17.7835 23.3521 17.7835 23.384C17.7835 23.4235 17.7888 23.4604 17.7964 23.4816L17.5483 23.468C17.4507 23.463 17.4245 23.463 17.1814 23.463V24.0834L17.181 24.0826Z" fill="white"/>
<path d="M19.0954 24.2117C19.0954 23.8505 19.2641 23.4121 19.7181 23.4121C20.172 23.4121 20.3411 23.7813 20.3411 24.2117C20.3411 24.5894 20.1667 25.011 19.7181 25.011C19.2694 25.011 19.0954 24.6049 19.0954 24.2117ZM19.726 23.2776C19.1931 23.2776 18.7334 23.5732 18.7334 24.2433C18.7334 24.8211 19.1691 25.1455 19.7177 25.1455C20.3042 25.1455 20.7027 24.7683 20.7027 24.1798C20.7027 23.5462 20.2199 23.2772 19.726 23.2772V23.2776Z" fill="white"/>
<path d="M22.0513 23.4987C22.0433 23.6996 22.0433 23.9534 22.0433 24.1802C22.0433 24.5996 22.0486 24.6949 22.1246 24.7979C22.2013 24.9008 22.3438 24.959 22.5288 24.959C22.7427 24.959 22.9121 24.8476 22.9691 24.6873C22.9907 24.6292 23.0033 24.5472 23.0033 24.3306C23.0033 23.9876 23.001 23.6411 22.9805 23.2985C23.0169 23.3038 23.0568 23.3144 23.0986 23.3144C23.1404 23.3144 23.1837 23.3042 23.2232 23.2985L23.2152 23.425C23.2016 23.6521 23.194 24.1958 23.1887 24.4621C23.1837 24.7736 23.0937 24.916 22.9193 25.027C22.7951 25.1064 22.6181 25.1405 22.4764 25.1405C22.1595 25.1405 21.7789 25.0402 21.7208 24.6311C21.7154 24.5943 21.7154 24.5149 21.7154 24.4917V23.7737C21.7154 23.6385 21.7105 23.4326 21.7021 23.2988C21.7633 23.3068 21.829 23.3148 21.8872 23.3148C21.9453 23.3148 22.0064 23.3068 22.0585 23.2988L22.0509 23.4987H22.0513Z" fill="white"/>
<path d="M24.3128 24.0191C24.3128 23.9032 24.3128 23.8766 24.3052 23.6415C24.3025 23.5868 24.2968 23.3486 24.2949 23.2988C24.3606 23.3121 24.4108 23.3148 24.4769 23.3148C24.543 23.3148 24.5962 23.3095 24.6619 23.2988C24.6433 23.697 24.6349 24.0297 24.6349 24.4362C24.6349 24.6216 24.641 24.7925 24.6433 24.938H24.6911C24.7671 24.938 25.1478 24.938 25.3031 24.9145C25.2952 24.943 25.2898 24.9593 25.2898 25.0193C25.2898 25.0592 25.2925 25.0752 25.3031 25.1094C25.1679 25.1037 24.9411 25.0934 24.799 25.0934C24.6307 25.0934 24.4875 25.0991 24.2953 25.1094C24.2953 25.0672 24.3132 24.4548 24.3132 24.3883V24.0191H24.3128Z" fill="white"/>
</g>
<circle cx="20" cy="20" r="19.5" stroke="black" stroke-opacity="0.05"/>
<defs>
<clipPath id="clip0_17713_28099">
<rect width="34" height="8.1676" fill="white" transform="translate(3 17)"/>
</clipPath>
</defs>
</svg>
