<svg width="40" height="40" viewBox="0 0 40 40" fill="none" xmlns="http://www.w3.org/2000/svg">
<circle cx="20" cy="20" r="20" fill="#231F20"/>
<path d="M27.9741 10.9965C30.6272 12.1142 32.0315 14.8664 31.9995 17.7054C31.9522 21.8207 30.3909 25.8735 27.349 28.7035C23.4807 32.2973 17.6684 32.6068 13.4982 29.4216C9.80827 26.6039 7.94046 21.9137 8.00145 17.3365C8.02584 15.4869 8.65709 13.8707 9.89518 12.4862C11.1988 11.0286 13.2923 10.4141 15.2227 10.1015C17.4107 9.74625 19.7725 9.65019 22.3112 9.81487C24.2553 9.9399 26.1856 10.2433 27.9741 10.9965ZM15.4315 30.2297C18.7128 31.8734 22.9165 31.5959 25.9416 29.417C29.662 26.7365 31.6091 22.2446 31.6579 17.6963C31.6686 16.8226 31.5497 15.9108 31.2615 15.089C30.5113 12.9406 29.0049 11.5439 26.7437 10.8959C25.5162 10.5437 24.2431 10.3119 22.9242 10.2006C20.8978 10.0299 18.8851 10.036 16.8892 10.2205C15.3889 10.3592 14.0349 10.6306 12.8288 11.0377C11.4794 11.4921 10.4288 12.2057 9.61158 13.3828C8.79889 14.5553 8.37501 15.8224 8.34299 17.184C8.26523 20.3768 9.0642 23.2845 10.7399 25.9055C11.9749 27.8404 13.5393 29.2829 15.4315 30.2297Z" fill="white"/>
<path d="M22.6465 29.9797C17.4578 31.4145 12.8881 28.5464 10.694 23.9143C9.86 22.1547 9.3858 20.2655 9.26992 18.2483C9.11745 15.6029 10.1573 13.1633 12.6762 12.102C13.4965 11.7559 14.4266 11.5089 15.3186 11.3686C18.3681 10.8883 21.413 10.8761 24.4549 11.332C25.3164 11.4616 26.158 11.6705 26.9768 11.9602C29.514 12.8553 30.7811 15.1332 30.7445 17.7756C30.7003 20.9761 29.5933 24.2406 27.5242 26.6924C26.2434 28.2125 24.5296 29.4598 22.6465 29.9797ZM23.8221 17.5774L21.3627 27.9152C21.349 27.9686 21.3825 28.0219 21.4359 28.0357C21.4511 28.0387 21.4664 28.0387 21.4801 28.0357C21.5884 28.0128 21.6951 27.9686 21.7973 27.903C22.4636 27.4761 23.168 27.043 23.909 26.6039C24.0051 26.5475 24.0661 26.4652 24.092 26.3569L25.7052 19.4849C25.7189 19.4239 25.7738 19.3797 25.8378 19.3797L27.1506 19.3842C27.2116 19.3842 27.2635 19.3629 27.3062 19.3187L29.3631 17.2404C29.4119 17.1916 29.4119 17.1124 29.3631 17.0636C29.3387 17.0392 29.3066 17.027 29.2731 17.027L26.37 17.0361C26.3303 17.0361 26.2983 17.0041 26.2983 16.9645C26.2983 16.9584 26.2983 16.9523 26.2998 16.9462L26.5118 16.0755C26.5423 15.9475 26.5209 15.8102 26.4508 15.6989C25.9461 14.8954 25.4704 14.1284 25.0236 13.3996C24.9947 13.3523 24.9535 13.334 24.9001 13.3417C24.8498 13.3493 24.8086 13.3859 24.7964 13.4362L23.9746 16.9096C23.9532 17.0011 23.8724 17.0666 23.7779 17.0666H16.1938C16.1221 17.0651 16.0612 17.0163 16.0444 16.9462L15.2073 13.4148C15.1936 13.3539 15.1326 13.3173 15.0716 13.331C15.0426 13.3371 15.0167 13.3554 15.0015 13.3813L13.5697 15.6837C13.495 15.8026 13.4721 15.9459 13.5041 16.0832L13.7054 16.9248C13.7222 16.995 13.6947 17.03 13.6216 17.03H10.8572C10.569 17.03 10.5263 17.1322 10.7306 17.335L12.7174 19.3202C12.7601 19.3629 12.8119 19.3842 12.8729 19.3842L14.2193 19.3751C14.2543 19.3751 14.2833 19.398 14.2909 19.4315L15.9056 26.3035C15.9361 26.4377 16.02 26.5536 16.1359 26.6253C16.883 27.0873 17.6286 27.5401 18.3727 27.9869C18.4321 28.0219 18.4977 28.0357 18.5663 28.028C18.6349 28.0189 18.6624 27.9808 18.6456 27.9122L16.1877 17.6018C16.1587 17.4844 16.1892 17.4676 16.2777 17.55L18.1119 19.2684C18.1562 19.3095 18.2065 19.3293 18.2659 19.3293L21.7469 19.3187C21.8064 19.3187 21.8628 19.2958 21.9055 19.2562L23.7459 17.5332C23.8206 17.4615 23.8465 17.4768 23.8221 17.5774Z" fill="white"/>
<circle cx="20" cy="20" r="19.5" stroke="black" stroke-opacity="0.05"/>
</svg>
