<svg width="40" height="40" viewBox="0 0 40 40" fill="none" xmlns="http://www.w3.org/2000/svg">
<circle cx="20" cy="20" r="20" fill="#1E1E23"/>
<g clip-path="url(#clip0_44746_83181)">
<path d="M28.023 20.5879C28.015 21.5156 27.371 22.3369 26.4292 22.6107C25.8818 22.7704 25.2861 22.7248 24.7709 22.489C23.9981 22.1316 23.5071 21.4016 23.499 20.5879H28.023Z" fill="#982246"/>
<path d="M35.026 20.5877C35.0179 21.7512 34.0197 22.6941 32.7881 22.7018C32.1683 22.7018 31.5806 22.4736 31.1459 22.0554C30.7354 21.6599 30.51 21.1352 30.502 20.5801H35.026V20.5877Z" fill="#982246"/>
<path d="M22.5491 20.4585C22.5733 18.8083 24.0303 17.4775 25.8013 17.5003C27.5722 17.5231 28.9971 18.8767 28.9729 20.5345C28.9488 22.1923 27.4998 23.5155 25.7208 23.4927C23.9498 23.4699 22.525 22.1163 22.5491 20.4585ZM23.499 20.5193C23.5071 21.3254 23.9981 22.063 24.7709 22.4204C25.2861 22.6562 25.8818 22.7018 26.4292 22.5421C27.371 22.2684 28.015 21.4547 28.023 20.5193C28.023 20.314 27.9989 20.1163 27.9425 19.9185C27.6366 18.8995 26.5902 18.2455 25.4793 18.3748C24.3442 18.5117 23.491 19.4318 23.5071 20.5193H23.499Z" fill="#E3537F"/>
<path d="M36.0004 20.4433V20.527C35.944 21.4395 35.5979 22.162 34.962 22.7019C32.4746 24.7855 28.6348 22.4814 29.7618 19.4547C29.9228 19.0289 30.2206 18.6258 30.6553 18.2532C31.8628 17.219 33.7142 17.2874 34.9217 18.2608C35.5818 18.7931 35.944 19.5232 36.0084 20.4433H36.0004ZM30.5104 20.5194C30.5104 21.0745 30.7438 21.5992 31.1544 21.9947C31.5891 22.4129 32.1767 22.6411 32.7966 22.6411C34.0282 22.6335 35.0264 21.6905 35.0344 20.527C35.0425 19.7285 34.5836 18.9909 33.835 18.6182C33.3278 18.3673 32.7402 18.2989 32.1848 18.4433C31.3395 18.6563 30.7036 19.3179 30.5506 20.1316C30.5265 20.2608 30.5104 20.3901 30.5184 20.527L30.5104 20.5194Z" fill="#E3537F"/>
<path d="M5 23.4546V17.5611L6.20748 17.5459C6.20748 17.5459 6.27993 17.5611 6.29603 17.5991L7.8255 20.5877C7.8255 20.5877 7.84965 20.6105 7.86575 20.6029C7.86575 20.6029 7.8738 20.6029 7.88185 20.5877L9.33887 17.6143C9.33887 17.6143 9.39522 17.5535 9.43547 17.5535H10.6027C10.643 17.5535 10.6751 17.5839 10.6751 17.6219V23.409C10.6751 23.409 10.659 23.447 10.6349 23.447H9.78967C9.78967 23.447 9.74942 23.4318 9.74942 23.409V18.8767C9.74942 18.8767 9.73332 18.8387 9.70917 18.8387C9.69307 18.8387 9.67697 18.8463 9.67697 18.8615L8.25214 21.7436C8.22799 21.7816 8.18774 21.8121 8.13944 21.8121H7.47131C7.47131 21.8121 7.39886 21.7892 7.37471 21.7588L5.91768 18.8995C5.91768 18.8995 5.90158 18.8919 5.89353 18.8995C5.89353 18.8995 5.88548 18.9071 5.88548 18.9147V23.3862C5.88548 23.4242 5.85328 23.4622 5.80499 23.4622H5V23.4546Z" fill="#E3537F"/>
<path d="M15.9079 17.561H12.1164C11.9475 17.561 11.8105 17.6904 11.8105 17.85V18.1162C11.8105 18.2758 11.9475 18.4051 12.1164 18.4051H15.9079C16.0769 18.4051 16.2138 18.2758 16.2138 18.1162V17.85C16.2138 17.6904 16.0769 17.561 15.9079 17.561Z" fill="#E3537F"/>
<path d="M22.0984 18.3674L18.5001 22.5271C18.5001 22.5271 18.492 22.5651 18.5001 22.5803C18.5001 22.5803 18.5162 22.5879 18.5242 22.5879H22.2272C22.2272 22.5879 22.2674 22.6031 22.2674 22.626V23.4092C22.2674 23.4092 22.2513 23.4472 22.2272 23.4472H17.1799C17.1799 23.4472 17.1396 23.432 17.1396 23.4092V22.6488C17.1396 22.6488 17.1396 22.6336 17.1477 22.626L20.8748 18.451C20.8748 18.451 20.8828 18.413 20.8748 18.3978C20.8748 18.3978 20.8587 18.3902 20.8506 18.3902H17.2765C17.2765 18.3902 17.2362 18.375 17.2362 18.3522V17.5917C17.2362 17.5917 17.2523 17.5537 17.2765 17.5537H22.0581C22.0581 17.5537 22.0984 17.5689 22.0984 17.5917V18.3446C22.0984 18.3446 22.0984 18.3598 22.0903 18.3674H22.0984Z" fill="#E3537F"/>
<path d="M15.8996 20.0781H12.1082C11.9481 20.0781 11.8184 20.2007 11.8184 20.3519V20.6333C11.8184 20.7845 11.9481 20.907 12.1082 20.907H15.8996C16.0597 20.907 16.1894 20.7845 16.1894 20.6333V20.3519C16.1894 20.2007 16.0597 20.0781 15.8996 20.0781Z" fill="#E3537F"/>
<path d="M15.8996 22.603H12.1082C11.9481 22.603 11.8184 22.7256 11.8184 22.8768V23.1734C11.8184 23.3246 11.9481 23.4471 12.1082 23.4471H15.8996C16.0597 23.4471 16.1894 23.3246 16.1894 23.1734V22.8768C16.1894 22.7256 16.0597 22.603 15.8996 22.603Z" fill="#E3537F"/>
</g>
<circle cx="20" cy="20" r="19.5" stroke="black" stroke-opacity="0.05"/>
<defs>
<clipPath id="clip0_44746_83181">
<rect width="32" height="7.00024" fill="white" transform="translate(5 17.5)"/>
</clipPath>
</defs>
</svg>
