<svg width="40" height="40" viewBox="0 0 40 40" fill="none" xmlns="http://www.w3.org/2000/svg">
<circle cx="20" cy="20" r="20" fill="#E91F1F"/>
<path d="M25.2503 29.4022C25.0562 29.5248 24.8797 29.6656 24.7208 29.8245C24.6186 29.9276 24.4964 30.0107 24.3543 30.0739C24.2279 30.1306 24.1081 30.2007 23.9947 30.2843C23.8312 30.4061 23.6403 30.4836 23.4219 30.5171C23.1711 30.557 22.9142 30.6244 22.6513 30.7192C22.5723 30.747 22.4952 30.7419 22.42 30.7038C22.3828 30.6843 22.3572 30.6546 22.3433 30.6146C22.3275 30.571 22.341 30.5398 22.3837 30.5213C23.5088 30.0279 24.377 29.2025 24.9884 28.0448C25.5792 26.9272 25.727 25.7036 25.3827 24.4953C25.0748 23.4139 24.4518 22.5011 23.7759 21.5995C22.4046 19.7711 22.1078 17.565 22.5217 15.3408C22.6676 14.5567 22.9258 13.806 23.2965 13.0888C24.3794 10.997 25.9736 9.17416 28.3121 8.74075C28.4115 8.72309 28.4589 8.7649 28.4542 8.86617C28.4533 8.8894 28.4487 8.91123 28.4403 8.93167C28.4254 8.96512 28.4185 8.99903 28.4194 9.0334C28.4528 11.685 28.4807 14.3648 28.503 17.0731C28.5197 18.907 28.6019 20.8163 28.542 22.646C28.5234 23.1942 28.4445 23.8092 28.3051 24.4912C28.175 25.1304 27.9874 25.7055 27.7421 26.2164C27.4578 26.8073 27.1382 27.3466 26.7833 27.8344C26.6059 28.0788 26.3996 28.3194 26.1645 28.5563C25.9258 28.7978 25.6889 29.0278 25.4538 29.2461C25.3916 29.3037 25.3237 29.3557 25.2503 29.4022Z" fill="white"/>
<path d="M16.2648 30.1463C14.0114 28.9227 12.498 26.6149 12.1036 24.0939C12.02 23.556 12.013 22.907 12.0827 22.147C12.2081 20.7794 12.6122 19.5568 13.2951 18.4791C13.7782 17.7154 14.4049 17.0372 15.1751 16.4444C16.2045 15.651 17.3602 15.1108 18.6423 14.8237C19.0846 14.7243 19.5226 14.6671 19.9565 14.6523C20.5251 14.6328 21.2637 14.5937 21.7333 14.8181C21.7699 14.8354 21.7999 14.8641 21.8188 14.8998C21.8376 14.9355 21.8443 14.9763 21.8378 15.016C21.7496 15.5697 21.691 16.1253 21.6622 16.6827C21.5944 18.0141 21.8476 19.3287 22.4218 20.6266C22.4349 20.6563 22.4386 20.6894 22.4325 20.7213C22.4265 20.7532 22.4108 20.7825 22.3877 20.8053C22.3646 20.8282 22.335 20.8434 22.303 20.8491C22.2711 20.8547 22.2381 20.8505 22.2085 20.837C21.9595 20.7218 21.7101 20.6489 21.4602 20.6183C20.6491 20.5207 19.6151 20.4998 18.843 20.7172C17.3286 21.1409 16.2314 22.0402 15.5513 23.4152C15.3915 23.7367 15.2424 24.2755 15.104 25.0318C14.7695 26.8546 15.2517 28.3922 16.5505 29.6446C16.9268 30.0069 17.3217 30.3107 17.7351 30.556C17.8484 30.6229 17.8433 30.6791 17.7198 30.7246C17.6789 30.7395 17.6361 30.7399 17.5916 30.726C17.1414 30.5839 16.6857 30.3748 16.2648 30.1463Z" fill="white"/>
<circle cx="20" cy="20" r="19.5" stroke="black" stroke-opacity="0.05"/>
</svg>
