<svg width="40" height="40" viewBox="0 0 40 40" fill="none" xmlns="http://www.w3.org/2000/svg">
<circle cx="20" cy="20" r="20" fill="#011B78"/>
<path d="M5.38873 17.3916C5.38386 17.3759 5.37466 17.373 5.36113 17.3827L5.34409 17.3941C5.33651 17.3995 5.33408 17.4065 5.33678 17.4152L6.70678 22.1752C6.71436 22.2007 6.70489 22.2145 6.67837 22.2166L6.64997 22.2191C6.64179 22.2198 6.63365 22.2176 6.62697 22.213C6.62029 22.2084 6.6155 22.2017 6.61345 22.1939L5.25806 17.4533C5.24832 17.4198 5.2264 17.3997 5.19232 17.3932C5.09898 17.3754 5.0162 17.3559 5.00159 17.2472C4.99347 17.1903 5.01647 17.1438 5.07057 17.1076C5.22749 17.0026 5.37736 16.9745 5.52021 17.0231C5.54442 17.0315 5.56587 17.0464 5.5822 17.0661C5.59852 17.0859 5.60908 17.1097 5.61269 17.135C5.61631 17.1603 5.61284 17.1861 5.60267 17.2095C5.59251 17.2328 5.57605 17.2529 5.55511 17.2674C5.52426 17.2885 5.49938 17.3148 5.48044 17.3462C5.47361 17.3571 5.47006 17.3698 5.47022 17.3827C5.47037 17.3956 5.47423 17.4081 5.48132 17.4189C5.48841 17.4297 5.49845 17.4382 5.51023 17.4434C5.52202 17.4486 5.53506 17.4504 5.5478 17.4484C6.32478 17.331 7.03467 17.3467 7.67747 17.4955C8.13197 17.6002 8.6863 17.653 9.12781 17.6083C9.78441 17.5418 10.415 17.4208 11.0765 17.4663C11.0949 17.4674 11.1123 17.4747 11.1259 17.4872C11.1395 17.4996 11.1484 17.5163 11.1512 17.5345C11.221 17.9787 11.3543 18.3466 11.5513 18.6383C11.8759 19.1212 12.1097 19.6536 12.203 20.2225C12.2639 20.5926 12.4132 20.9497 12.6096 21.2679C12.613 21.2735 12.6148 21.28 12.6145 21.2866C12.6143 21.2933 12.6122 21.2997 12.6084 21.3051C12.6046 21.3105 12.5994 21.3147 12.5932 21.3172C12.5871 21.3196 12.5804 21.3203 12.5739 21.319C11.841 21.1689 11.1487 21.1404 10.402 21.3515C9.76574 21.5325 9.18868 21.4196 8.55319 21.3523C7.97587 21.2906 7.40531 21.3296 6.84151 21.4691C6.83222 21.4715 6.8235 21.4757 6.8159 21.4815C6.80831 21.4873 6.80199 21.4947 6.79735 21.503C6.7927 21.5114 6.78983 21.5206 6.78891 21.5302C6.78799 21.5397 6.78904 21.5493 6.792 21.5584L6.9949 22.189C7.00031 22.2058 6.99409 22.2156 6.97624 22.2183L6.94783 22.2231C6.93694 22.2248 6.92582 22.2224 6.91645 22.2164C6.90708 22.2105 6.90007 22.2013 6.8967 22.1907L5.38873 17.3916ZM5.48859 17.1563C5.48617 17.146 5.4791 17.1368 5.46777 17.1293C5.45644 17.1218 5.44108 17.1162 5.42256 17.1128C5.40404 17.1093 5.38273 17.1082 5.35984 17.1093C5.33696 17.1104 5.31294 17.1139 5.28917 17.1194C5.24116 17.1306 5.19705 17.1496 5.16655 17.1723C5.13606 17.1951 5.12166 17.2196 5.12654 17.2406C5.12896 17.251 5.13603 17.2602 5.14736 17.2676C5.15869 17.2751 5.17405 17.2807 5.19257 17.2841C5.21109 17.2876 5.2324 17.2887 5.25529 17.2876C5.27817 17.2865 5.30219 17.283 5.32596 17.2775C5.37397 17.2663 5.41808 17.2473 5.44858 17.2246C5.47907 17.2018 5.49347 17.1773 5.48859 17.1563ZM5.53482 17.5799L6.68 21.1989C6.73789 21.3812 6.76089 21.3769 6.74898 21.1859C6.67269 19.9095 6.29529 18.7135 5.61679 17.5978C5.60326 17.5756 5.58405 17.5612 5.55916 17.5548C5.5359 17.5488 5.52778 17.5572 5.53482 17.5799ZM8.94033 20.4895C8.94447 20.4897 8.94858 20.4888 8.95234 20.4871C8.9561 20.4854 8.9594 20.4828 8.962 20.4796C8.96459 20.4763 8.96641 20.4726 8.96729 20.4685C8.96818 20.4645 8.96812 20.4603 8.96712 20.4563L8.79181 19.7656C8.79031 19.7601 8.7906 19.7542 8.79265 19.7489C8.7947 19.7436 8.79839 19.7391 8.80319 19.736C8.80798 19.7329 8.81364 19.7314 8.81933 19.7318C8.82502 19.7322 8.83045 19.7343 8.83482 19.738L9.7211 20.4506C9.72596 20.4544 9.73198 20.4564 9.73814 20.4563L10.833 20.4595C10.8386 20.4596 10.8441 20.458 10.8488 20.4548C10.8534 20.4516 10.8569 20.447 10.8588 20.4417C10.8607 20.4364 10.8609 20.4307 10.8593 20.4253C10.8577 20.4199 10.8545 20.4151 10.8501 20.4116L9.44921 19.3346C9.4459 19.3321 9.44323 19.3288 9.44142 19.325C9.43961 19.3212 9.43871 19.3171 9.43879 19.3129C9.43887 19.3087 9.43993 19.3046 9.44188 19.3009C9.44383 19.2972 9.44662 19.294 9.45002 19.2916L10.5157 18.5141C10.52 18.5107 10.5232 18.5061 10.5248 18.5008C10.5264 18.4956 10.5264 18.49 10.5247 18.4847C10.523 18.4795 10.5198 18.4749 10.5154 18.4716C10.511 18.4683 10.5057 18.4664 10.5002 18.4662L9.62046 18.4719C9.61467 18.4717 9.60897 18.4734 9.60423 18.4767L8.68143 19.1642C8.67786 19.1669 8.67368 19.1686 8.66926 19.1693C8.66484 19.1699 8.66033 19.1695 8.65614 19.1679C8.65194 19.1664 8.6482 19.1638 8.64525 19.1605C8.64229 19.1571 8.64022 19.1531 8.63922 19.1488L8.49476 18.5206C8.49331 18.5148 8.48997 18.5096 8.48526 18.506C8.48056 18.5023 8.47476 18.5003 8.46879 18.5003L7.59062 18.493C7.58649 18.4929 7.58238 18.4937 7.57862 18.4954C7.57486 18.4971 7.57155 18.4997 7.56896 18.503C7.56636 18.5062 7.56455 18.51 7.56366 18.514C7.56278 18.518 7.56284 18.5222 7.56384 18.5263L8.05081 20.4636C8.05225 20.4694 8.0556 20.4745 8.0603 20.4782C8.06501 20.4819 8.07081 20.4839 8.07678 20.4839L8.94033 20.4895Z" fill="white"/>
<path d="M21.808 17.8948C21.5304 17.931 21.2677 18.0509 21.0199 18.2543C20.3155 18.8314 20.4339 20.0106 21.3007 20.3799C21.5837 20.5006 21.9043 20.5268 22.2625 20.4587C22.8704 20.3426 23.4905 20.1722 23.9425 19.7875C23.9544 19.7777 23.9634 19.7799 23.9693 19.7939L24.1852 20.3093C24.1922 20.3272 24.1879 20.3415 24.1722 20.3523C23.4234 20.8696 22.6375 21.1978 21.8145 21.3368C20.9623 21.4813 19.9957 21.3563 19.3358 20.8263C18.5867 20.2249 18.5672 19.1682 19.0656 18.4061C19.3312 17.9992 19.6721 17.7151 20.0882 17.5539C21.1 17.1632 22.081 17.1535 23.0311 17.5247C23.5375 17.7233 23.9409 18.0874 24.2412 18.6171C24.2424 18.6192 24.243 18.6216 24.243 18.6241C24.243 18.6265 24.2424 18.6289 24.2412 18.6309C24.2401 18.633 24.2384 18.6347 24.2364 18.6358C24.2344 18.6369 24.2322 18.6375 24.2298 18.6374L23.4815 18.6366C23.4664 18.6366 23.4542 18.6306 23.445 18.6187C23.0181 18.049 22.4724 17.8077 21.808 17.8948ZM18.8951 19.923C18.9682 20.3742 19.3188 20.7362 19.727 20.9448C20.1404 21.1564 20.5946 21.263 21.0897 21.2646C21.3256 21.2657 21.5556 21.2492 21.7796 21.2151C22.4781 21.109 23.1634 20.8528 23.8354 20.4465C23.8971 20.4086 23.9582 20.3648 24.0188 20.315C24.0405 20.2971 24.0459 20.2755 24.0351 20.2501L23.9458 20.0293C23.9263 19.9822 23.8949 19.9722 23.8516 19.9993C23.4913 20.2233 23.1017 20.3859 22.6829 20.4871C22.5049 20.5298 22.3301 20.5661 22.1586 20.5958C21.9811 20.6267 21.8172 20.6302 21.6668 20.6064C21.0819 20.5138 20.6893 20.1795 20.4891 19.6032C20.4215 19.4073 20.4085 19.222 20.4502 19.0473C20.4962 18.8541 20.5654 18.675 20.658 18.51C20.7808 18.2898 20.9877 18.1036 21.2788 17.9516C21.8118 17.6735 22.3588 17.6862 22.9199 17.9897C23.1463 18.1123 23.3022 18.2973 23.4726 18.4791C23.4943 18.5019 23.5205 18.5124 23.5513 18.5108L23.9344 18.4913C23.9419 18.4908 23.9491 18.4884 23.9554 18.4844C23.9618 18.4805 23.967 18.475 23.9706 18.4685C23.9743 18.462 23.9762 18.4548 23.9763 18.4474C23.9763 18.4401 23.9745 18.4328 23.9709 18.4264C23.8963 18.2925 23.8013 18.1602 23.6836 18.0636C23.1112 17.5902 22.4421 17.3632 21.6765 17.3827C21.4314 17.3891 21.1974 17.4065 20.9745 17.4346C19.6434 17.6034 18.663 18.4856 18.8951 19.923Z" fill="white"/>
<path d="M33.465 18.0101C32.8076 17.7552 32.2246 17.8564 31.716 18.3136C31.0423 18.9199 31.2574 20.1016 32.138 20.4116C32.3847 20.4982 32.6526 20.5179 32.9415 20.4709C33.5426 20.3718 34.0491 20.2049 34.4608 19.9701C34.5323 19.9295 34.5958 19.8797 34.6516 19.8208C34.6938 19.7758 34.7268 19.7818 34.7506 19.8386L34.9275 20.2671C34.947 20.3137 34.9359 20.351 34.8942 20.3791C33.9706 21.0114 32.836 21.4286 31.7403 21.3912C31.0699 21.3685 30.2908 21.1023 29.8728 20.6096C29.204 19.8191 29.4581 18.6658 30.1691 17.9898C31.0894 17.1148 32.9099 17.0653 33.9909 17.6189C34.4292 17.8429 34.7652 18.1781 34.9989 18.6244C34.9998 18.626 35.0003 18.6277 35.0003 18.6294C35.0002 18.6312 34.9997 18.6329 34.9988 18.6344C34.9979 18.6359 34.9966 18.6371 34.9951 18.6379C34.9935 18.6388 34.9918 18.6391 34.99 18.6391L34.2214 18.6358C34.2154 18.6358 34.2096 18.6344 34.2045 18.6317C34.1994 18.629 34.1951 18.6251 34.1922 18.6204C34.0093 18.3304 33.7669 18.1269 33.465 18.0101ZM29.6399 19.2047C29.5392 19.5472 29.6374 19.9733 29.7908 20.2866C30.122 20.9627 31.0805 21.2541 31.7728 21.2573C32.1239 21.2595 32.3994 21.2427 32.599 21.207C33.3457 21.0733 34.0637 20.7879 34.753 20.3507C34.7769 20.3356 34.7947 20.3125 34.803 20.2855C34.8113 20.2586 34.8097 20.2296 34.7985 20.2038L34.7141 20.0131C34.6903 19.9585 34.6543 19.949 34.6061 19.9847C34.1654 20.3158 33.5908 20.47 33.0422 20.5772C32.7208 20.6399 32.4305 20.6307 32.1713 20.5496C31.5951 20.3694 31.1673 19.794 31.2055 19.1804C31.2444 18.5449 31.6908 18.0701 32.289 17.8485C32.965 17.5986 33.771 17.8851 34.1922 18.4313C34.2409 18.4946 34.305 18.523 34.3846 18.5165L34.7043 18.4913C34.7676 18.4859 34.7804 18.4581 34.7425 18.4077C34.3572 17.8981 33.8511 17.5829 33.224 17.4622C32.8998 17.4 32.6234 17.3738 32.3945 17.3835C32.0953 17.3959 31.8158 17.4224 31.5561 17.463C31.1768 17.5231 30.8354 17.6516 30.5318 17.8485C30.1699 18.0834 29.8969 18.4205 29.7129 18.8598C29.6683 18.9661 29.6732 19.0919 29.6399 19.2047Z" fill="white"/>
<path d="M19.7274 20.9449C19.3191 20.7363 18.9685 20.3743 18.8955 19.9231C18.6633 18.4857 19.6438 17.6035 20.9748 17.4347C21.1977 17.4066 21.4317 17.3892 21.6768 17.3827C22.4425 17.3633 23.1115 17.5902 23.684 18.0637C23.8016 18.1603 23.8966 18.2926 23.9713 18.4265C23.9748 18.4329 23.9766 18.4402 23.9766 18.4475C23.9765 18.4549 23.9746 18.4621 23.9709 18.4686C23.9673 18.4751 23.9621 18.4806 23.9558 18.4845C23.9494 18.4885 23.9422 18.4909 23.9347 18.4914L23.5517 18.5109C23.5208 18.5125 23.4946 18.502 23.4729 18.4792C23.3025 18.2974 23.1467 18.1124 22.9202 17.9898C22.3591 17.6863 21.8121 17.6736 21.2792 17.9517C20.9881 18.1037 20.7811 18.2899 20.6583 18.5101C20.5657 18.6751 20.4965 18.8542 20.4505 19.0474C20.4088 19.2221 20.4218 19.4074 20.4895 19.6033C20.6897 20.1796 21.0822 20.5139 21.6671 20.6065C21.8175 20.6303 21.9815 20.6268 22.1589 20.5959C22.3305 20.5662 22.5052 20.5299 22.6832 20.4872C23.102 20.386 23.4916 20.2234 23.852 19.9994C23.8952 19.9723 23.9266 19.9823 23.9461 20.0294L24.0354 20.2502C24.0462 20.2756 24.0408 20.2972 24.0191 20.3151C23.9585 20.3649 23.8974 20.4087 23.8357 20.4466C23.1637 20.8529 22.4784 21.1091 21.7799 21.2152C21.5559 21.2493 21.326 21.2658 21.09 21.2647C20.595 21.2631 20.1407 21.1565 19.7274 20.9449Z" fill="white"/>
<path d="M29.6396 19.2047C29.6728 19.0919 29.668 18.9661 29.7126 18.8598C29.8966 18.4204 30.1695 18.0833 30.5315 17.8485C30.8351 17.6515 31.1765 17.523 31.5558 17.463C31.8155 17.4224 32.0949 17.3959 32.3942 17.3834C32.623 17.3737 32.8995 17.3999 33.2236 17.4622C33.8507 17.5828 34.3569 17.898 34.7422 18.4077C34.78 18.458 34.7673 18.4859 34.704 18.4913L34.3842 18.5165C34.3047 18.5229 34.2406 18.4945 34.1919 18.4312C33.7707 17.885 32.9647 17.5985 32.2887 17.8485C31.6905 18.0701 31.2441 18.5449 31.2052 19.1804C31.167 19.7939 31.5947 20.3694 32.171 20.5495C32.4301 20.6307 32.7204 20.6399 33.0418 20.5771C33.5905 20.47 34.1651 20.3158 34.6058 19.9847C34.654 19.9489 34.6899 19.9584 34.7137 20.0131L34.7982 20.2038C34.8094 20.2296 34.811 20.2585 34.8027 20.2855C34.7943 20.3124 34.7766 20.3355 34.7527 20.3507C34.0634 20.7879 33.3454 21.0733 32.5987 21.2069C32.399 21.2427 32.1236 21.2594 31.7725 21.2573C31.0802 21.254 30.1217 20.9626 29.7905 20.2866C29.6371 19.9733 29.5389 19.5472 29.6396 19.2047Z" fill="white"/>
<path d="M15.5526 18.6593L17.2627 17.4955C17.267 17.4925 17.2721 17.4908 17.2773 17.4906L18.89 17.4841C18.8958 17.484 18.9016 17.4859 18.9063 17.4893C18.911 17.4928 18.9144 17.4977 18.9161 17.5033C18.9178 17.509 18.9175 17.515 18.9154 17.5204C18.9134 17.5259 18.9095 17.5305 18.9046 17.5336L16.753 18.9921C16.7501 18.9941 16.7475 18.9966 16.7456 18.9995C16.7436 19.0025 16.7422 19.0058 16.7416 19.0093C16.7409 19.0127 16.7409 19.0163 16.7416 19.0198C16.7423 19.0232 16.7437 19.0265 16.7457 19.0294L18.3665 21.3247C18.3693 21.3287 18.371 21.3334 18.3713 21.3383C18.3716 21.3432 18.3706 21.3481 18.3684 21.3524C18.3661 21.3568 18.3627 21.3604 18.3585 21.363C18.3543 21.3655 18.3495 21.3669 18.3446 21.3669H16.6743C16.67 21.3669 16.6657 21.3658 16.6619 21.3639C16.6581 21.3619 16.6548 21.359 16.6524 21.3555L15.4017 19.5659C15.3985 19.5617 15.3943 19.5585 15.3893 19.5567C15.3844 19.5549 15.3791 19.5546 15.374 19.5558C15.3689 19.557 15.3643 19.5597 15.3607 19.5635C15.3571 19.5673 15.3547 19.5721 15.3538 19.5773L15.0632 21.3433C15.0623 21.3497 15.059 21.3555 15.0541 21.3597C15.0492 21.3639 15.0429 21.3661 15.0364 21.3661L13.3767 21.3669C13.3728 21.3669 13.369 21.3661 13.3654 21.3645C13.3619 21.3629 13.3587 21.3606 13.3562 21.3577C13.3536 21.3547 13.3517 21.3513 13.3507 21.3475C13.3496 21.3438 13.3493 21.3399 13.3499 21.336L13.9895 17.5288C13.9904 17.5224 13.9937 17.5166 13.9986 17.5124C14.0035 17.5082 14.0098 17.506 14.0163 17.506L15.676 17.5069C15.6799 17.5069 15.6837 17.5078 15.6872 17.5095C15.6908 17.5112 15.6939 17.5136 15.6963 17.5167C15.6988 17.5197 15.7006 17.5232 15.7016 17.527C15.7025 17.5307 15.7027 17.5347 15.702 17.5385L15.5112 18.6326C15.5103 18.6377 15.511 18.6431 15.5131 18.6479C15.5152 18.6527 15.5187 18.6568 15.5231 18.6596C15.5275 18.6625 15.5326 18.664 15.5379 18.6639C15.5432 18.6639 15.5483 18.6623 15.5526 18.6593ZM15.2694 19.5497C15.2785 19.5278 15.2933 19.5088 15.3122 19.4945C15.3311 19.4803 15.3535 19.4714 15.377 19.4687C15.4004 19.4661 15.4241 19.4698 15.4456 19.4794C15.4671 19.4891 15.4856 19.5044 15.4991 19.5237L16.6597 21.1721C16.6747 21.1937 16.6947 21.2113 16.7181 21.2234C16.7414 21.2356 16.7673 21.2419 16.7936 21.2419L18.05 21.2346C18.1327 21.234 18.1503 21.2 18.1027 21.1323L16.6702 19.0984C16.6599 19.0839 16.6526 19.0676 16.6487 19.0503C16.6448 19.033 16.6443 19.015 16.6473 18.9975C16.6503 18.98 16.6568 18.9633 16.6663 18.9483C16.6758 18.9333 16.6881 18.9203 16.7027 18.9101C17.1832 18.5703 17.6542 18.2503 18.1157 17.95C18.2391 17.8694 18.3508 17.7823 18.4509 17.6887C18.5185 17.6254 18.5061 17.5948 18.4136 17.5969L17.3893 17.6197C17.3152 17.6218 17.2475 17.6435 17.1864 17.6846L15.6176 18.7494C15.595 18.7648 15.5681 18.7722 15.541 18.7706C15.514 18.769 15.4883 18.7584 15.4682 18.7405C15.4147 18.6926 15.3952 18.6171 15.4082 18.5465C15.4579 18.2663 15.5047 17.986 15.5486 17.7057C15.55 17.6971 15.5495 17.6883 15.5472 17.6799C15.5449 17.6715 15.5407 17.6637 15.5351 17.6571C15.5295 17.6505 15.5224 17.6451 15.5145 17.6415C15.5066 17.6378 15.498 17.6359 15.4893 17.6359H14.1948C14.1266 17.6359 14.0871 17.6695 14.0763 17.7365L13.5066 21.155C13.505 21.1646 13.5056 21.1745 13.5082 21.1838C13.5108 21.1931 13.5154 21.2018 13.5216 21.2091C13.5279 21.2165 13.5357 21.2224 13.5444 21.2263C13.5532 21.2303 13.5627 21.2323 13.5723 21.2322L14.9042 21.2289C14.935 21.2289 14.9558 21.2146 14.9666 21.1859C14.9999 21.1015 14.9813 21 15.0015 20.9059C15.0659 20.6132 15.1222 20.2885 15.1704 19.932C15.1904 19.7886 15.2234 19.6611 15.2694 19.5497Z" fill="white"/>
<path d="M27.866 18.3704L27.3352 21.3441C27.3341 21.3501 27.3308 21.3556 27.3261 21.3594C27.3213 21.3633 27.3154 21.3653 27.3092 21.3652L25.6495 21.3669C25.6457 21.3668 25.642 21.3659 25.6385 21.3643C25.6351 21.3626 25.6321 21.3602 25.6297 21.3573C25.6273 21.3544 25.6256 21.3509 25.6247 21.3473C25.6237 21.3436 25.6236 21.3397 25.6243 21.336L26.1559 18.3801C26.1566 18.3764 26.1565 18.3726 26.1556 18.3689C26.1547 18.3652 26.1529 18.3618 26.1505 18.3588C26.1481 18.3559 26.1451 18.3535 26.1417 18.3519C26.1383 18.3502 26.1346 18.3493 26.1308 18.3493L24.5676 18.3525C24.5638 18.3525 24.5601 18.3516 24.5567 18.35C24.5533 18.3483 24.5502 18.3459 24.5478 18.343C24.5454 18.34 24.5437 18.3366 24.5428 18.3329C24.5419 18.3293 24.5417 18.3254 24.5425 18.3217L24.704 17.5279C24.7051 17.5221 24.7082 17.5168 24.7128 17.5129C24.7174 17.5091 24.7231 17.5069 24.7291 17.5068H29.6329C29.6367 17.5069 29.6404 17.5078 29.6438 17.5094C29.6472 17.5111 29.6502 17.5134 29.6526 17.5164C29.655 17.5193 29.6568 17.5228 29.6577 17.5264C29.6586 17.5301 29.6587 17.534 29.658 17.5377L29.5022 18.3298C29.5011 18.3357 29.498 18.341 29.4934 18.3448C29.4888 18.3487 29.483 18.3508 29.477 18.3509L27.892 18.3493C27.8858 18.3492 27.8799 18.3512 27.8751 18.3551C27.8704 18.359 27.8671 18.3644 27.866 18.3704ZM26.2387 18.3485C26.2541 18.4053 26.2639 18.4483 26.2533 18.5084C26.1034 19.3649 25.9452 20.2425 25.7785 21.1412C25.7765 21.1527 25.777 21.1645 25.78 21.1758C25.783 21.187 25.7884 21.1975 25.7958 21.2064C25.8033 21.2153 25.8125 21.2224 25.823 21.2273C25.8335 21.2322 25.8449 21.2346 25.8565 21.2346L27.1859 21.2289C27.1975 21.2289 27.2087 21.2248 27.2176 21.2174C27.2265 21.21 27.2325 21.1997 27.2346 21.1883L27.7337 18.4272C27.7438 18.3715 27.7731 18.321 27.8166 18.2847C27.86 18.2483 27.9149 18.2284 27.9715 18.2284L29.3017 18.2275C29.3683 18.2275 29.4078 18.1951 29.4202 18.1302L29.4998 17.7162C29.5111 17.6578 29.4871 17.6286 29.4275 17.6286L24.8825 17.6343C24.8387 17.6348 24.8095 17.6556 24.7949 17.6968C24.7413 17.8461 24.7124 17.9916 24.708 18.1334C24.7059 18.1967 24.7364 18.2284 24.7997 18.2284L26.0829 18.2292C26.1185 18.2292 26.153 18.2409 26.1812 18.2625C26.2094 18.284 26.2296 18.3143 26.2387 18.3485Z" fill="white"/>
<path d="M15.2695 19.5496C15.2235 19.6611 15.1905 19.7885 15.1705 19.9319C15.1224 20.2885 15.0661 20.6131 15.0017 20.9058C14.9814 21 15.0001 21.1014 14.9668 21.1858C14.956 21.2145 14.9351 21.2289 14.9043 21.2289L13.5725 21.2321C13.5629 21.2323 13.5533 21.2303 13.5446 21.2263C13.5358 21.2223 13.5281 21.2165 13.5218 21.2091C13.5155 21.2018 13.5109 21.1931 13.5083 21.1838C13.5057 21.1744 13.5052 21.1646 13.5067 21.155L14.0765 17.7365C14.0873 17.6694 14.1268 17.6359 14.195 17.6359H15.4895C15.4982 17.6359 15.5068 17.6378 15.5147 17.6414C15.5226 17.6451 15.5296 17.6504 15.5352 17.6571C15.5409 17.6637 15.545 17.6715 15.5473 17.6799C15.5497 17.6883 15.5501 17.6971 15.5487 17.7057C15.5049 17.9859 15.4581 18.2662 15.4083 18.5465C15.3953 18.6171 15.4148 18.6926 15.4684 18.7405C15.4885 18.7584 15.5141 18.7689 15.5412 18.7706C15.5682 18.7722 15.5952 18.7647 15.6177 18.7494L17.1866 17.6846C17.2477 17.6434 17.3153 17.6218 17.3895 17.6196L18.4137 17.5969C18.5062 17.5947 18.5187 17.6253 18.451 17.6886C18.3509 17.7822 18.2392 17.8693 18.1158 17.95C17.6543 18.2503 17.1833 18.5703 16.7028 18.9101C16.6883 18.9203 16.6759 18.9333 16.6664 18.9483C16.6569 18.9633 16.6505 18.98 16.6474 18.9975C16.6444 19.015 16.6449 19.0329 16.6488 19.0502C16.6528 19.0675 16.6601 19.0839 16.6704 19.0984L18.1029 21.1323C18.1505 21.1999 18.1329 21.234 18.0501 21.2345L16.7937 21.2419C16.7674 21.2419 16.7415 21.2355 16.7182 21.2234C16.6949 21.2112 16.6749 21.1936 16.6598 21.1721L15.4992 19.5237C15.4857 19.5044 15.4673 19.4891 15.4458 19.4794C15.4243 19.4697 15.4006 19.466 15.3771 19.4687C15.3536 19.4713 15.3313 19.4803 15.3124 19.4945C15.2934 19.5087 15.2786 19.5278 15.2695 19.5496Z" fill="white"/>
<path d="M26.2388 18.3486C26.2297 18.3144 26.2095 18.2841 26.1813 18.2625C26.1531 18.241 26.1186 18.2293 26.083 18.2293L24.7998 18.2284C24.7365 18.2284 24.706 18.1968 24.7081 18.1335C24.7124 17.9917 24.7414 17.8462 24.795 17.6968C24.8096 17.6557 24.8388 17.6349 24.8826 17.6343L29.4276 17.6287C29.4871 17.6287 29.5112 17.6579 29.4999 17.7163L29.4203 18.1302C29.4079 18.1952 29.3684 18.2276 29.3018 18.2276L27.9716 18.2284C27.9149 18.2285 27.8601 18.2484 27.8167 18.2848C27.7732 18.3211 27.7439 18.3715 27.7338 18.4273L27.2347 21.1884C27.2326 21.1998 27.2266 21.2101 27.2177 21.2175C27.2088 21.2249 27.1975 21.229 27.186 21.229L25.8565 21.2346C25.845 21.2347 25.8336 21.2322 25.8231 21.2274C25.8126 21.2225 25.8033 21.2154 25.7959 21.2064C25.7885 21.1975 25.7831 21.1871 25.7801 21.1758C25.7771 21.1646 25.7766 21.1528 25.7786 21.1413C25.9453 20.2426 26.1035 19.365 26.2534 18.5084C26.264 18.4484 26.2542 18.4054 26.2388 18.3486Z" fill="white"/>
<circle cx="20" cy="20" r="19.5" stroke="black" stroke-opacity="0.05"/>
</svg>
