<svg width="40" height="40" viewBox="0 0 40 40" fill="none" xmlns="http://www.w3.org/2000/svg">
<circle cx="20" cy="20" r="20" fill="#2B61A6"/>
<g clip-path="url(#clip0_17713_28108)">
<path d="M33 20.0013C33 24.4209 27.181 28.0036 20.0022 28.0036C12.819 27.999 7 24.4209 7 20.0013C7 15.5818 12.819 11.999 19.9978 11.999C27.1766 11.999 32.9956 15.5818 32.9956 20.0013H33ZM31.6402 20.0013C31.6402 15.8453 26.4261 12.4798 19.9978 12.4798C13.5695 12.4798 8.35982 15.8499 8.35982 20.0013C8.35982 24.1527 13.574 27.5229 20.0022 27.5229C26.4305 27.5229 31.6446 24.1574 31.6446 20.0013H31.6402Z" fill="white"/>
<path d="M13.4499 19.257L16.9466 15.8776C16.9466 15.8776 16.9686 15.8638 16.9775 15.8638H19.026C19.0525 15.8638 19.0746 15.8869 19.0746 15.9146C19.0746 15.9285 19.0702 15.9424 19.0569 15.9516L15.6397 19.086C15.6397 19.086 15.6176 19.1276 15.6309 19.1461L18.1563 24.0602C18.1695 24.0834 18.1563 24.1157 18.1386 24.1296C18.1298 24.1296 18.1254 24.1342 18.1165 24.1342L16.377 24.125C16.377 24.125 16.3417 24.1157 16.3373 24.0972L14.4565 20.2556C14.4432 20.2325 14.4168 20.2232 14.3947 20.2324C14.3947 20.2324 14.3859 20.2324 14.3859 20.2417L12.9245 21.5823C12.9245 21.5823 12.9112 21.5962 12.9112 21.6101L12.4079 24.0926C12.4035 24.1157 12.3814 24.1342 12.3594 24.1342H10.8318C10.8053 24.1296 10.7832 24.1065 10.7832 24.0787C10.7832 24.0787 10.7832 24.0741 10.7832 24.0695L12.4079 15.9054C12.4123 15.8823 12.4344 15.8638 12.4565 15.8638H13.9885C14.015 15.8638 14.0371 15.8823 14.0371 15.91C14.0371 15.91 14.0371 15.9146 14.0371 15.9192L13.3836 19.2015C13.3792 19.2293 13.3969 19.2524 13.419 19.2616C13.4322 19.2616 13.4499 19.2616 13.4587 19.2478L13.4499 19.257Z" fill="white"/>
<path d="M18.6553 24.0233L20.28 15.947C20.2888 15.9054 20.3241 15.8777 20.3639 15.8777L21.8253 15.8684C21.8738 15.8684 21.9091 15.91 21.9091 15.9562C21.9091 15.9609 21.9091 15.9701 21.9091 15.9747L20.2888 24.0556C20.28 24.0972 20.2447 24.125 20.2049 24.125H18.7436C18.695 24.125 18.6597 24.088 18.6597 24.0371C18.6597 24.0325 18.6597 24.0233 18.6597 24.0187L18.6553 24.0233Z" fill="white"/>
<path d="M23.7067 22.7474H28.104C28.1393 22.7474 28.1658 22.7751 28.1658 22.8121C28.1658 22.8167 28.1658 22.8213 28.1658 22.826L27.8921 24.0927C27.8877 24.1204 27.8612 24.1435 27.8303 24.1435H21.8479C21.8126 24.1435 21.7861 24.1111 21.7861 24.0742C21.7861 24.0742 21.7861 24.0649 21.7861 24.0603L23.4109 15.9285C23.4153 15.9008 23.4418 15.8777 23.4727 15.8777H29.1504C29.1857 15.8777 29.2122 15.9054 29.2122 15.9424C29.2122 15.9424 29.2122 15.9517 29.2122 15.9563L28.9694 17.2276C28.9649 17.2553 28.9384 17.2784 28.9075 17.2784H24.8104C24.7795 17.2784 24.7574 17.2969 24.7486 17.3247L24.4042 19.049C24.3954 19.086 24.4175 19.1184 24.4528 19.123C24.4528 19.123 24.4616 19.123 24.466 19.123H28.3689C28.4042 19.123 28.4307 19.1507 28.4307 19.1831C28.4307 19.1831 28.4307 19.1923 28.4307 19.197L28.1835 20.459C28.1791 20.4868 28.1526 20.5099 28.1217 20.5099H24.1526C24.1217 20.5099 24.0996 20.533 24.0908 20.5607L23.6493 22.6734C23.6404 22.7104 23.6625 22.7428 23.6978 22.7474C23.6978 22.7474 23.7067 22.7474 23.7111 22.7474H23.7067Z" fill="white"/>
</g>
<circle cx="20" cy="20" r="19.5" stroke="black" stroke-opacity="0.05"/>
<defs>
<clipPath id="clip0_17713_28108">
<rect width="26" height="16" fill="white" transform="translate(7 11.999)"/>
</clipPath>
</defs>
</svg>
