<svg width="40" height="40" viewBox="0 0 40 40" fill="none" xmlns="http://www.w3.org/2000/svg">
<circle cx="20" cy="20" r="20" fill="#F6F8FA"/>
<g clip-path="url(#clip0_16604_10945)">
<path d="M19.9952 15.5449C18.7433 15.5449 17.5427 16.0422 16.6574 16.9275C15.7722 17.8127 15.2749 19.0133 15.2749 20.2652C15.2747 20.8852 15.3967 21.4991 15.6339 22.0719C15.871 22.6448 16.2187 23.1653 16.657 23.6037C17.0953 24.0422 17.6158 24.39 18.1885 24.6273C18.7613 24.8646 19.3752 24.9867 19.9952 24.9867C21.2474 24.9867 22.4483 24.4893 23.3338 23.6038C24.2192 22.7184 24.7167 21.5174 24.7167 20.2652C24.7164 19.0132 24.2188 17.8126 23.3334 16.9274C22.4479 16.0422 21.2472 15.5449 19.9952 15.5449ZM19.9952 22.766C19.3323 22.765 18.697 22.5012 18.2284 22.0324C17.7598 21.5636 17.4963 20.928 17.4956 20.2652C17.4963 19.6025 17.7598 18.9671 18.2285 18.4985C18.6971 18.0299 19.3325 17.7663 19.9952 17.7656C20.658 17.7663 21.2935 18.0298 21.7623 18.4984C22.2312 18.967 22.495 19.6024 22.496 20.2652C22.4953 20.9282 22.2316 21.564 21.7628 22.0328C21.2939 22.5016 20.6582 22.7653 19.9952 22.766Z" fill="#0074C2"/>
<path d="M18.8336 11.5436V12.4689C17.0959 12.7294 15.495 13.5628 14.2849 14.8368C13.0749 16.1108 12.3249 17.7524 12.1541 19.5012H14.3897C14.5778 18.1471 15.2483 16.9065 16.2781 16.0073C17.3078 15.1081 18.6275 14.6109 19.9945 14.6069C21.3634 14.6099 22.685 15.1075 23.7159 16.008C24.7468 16.9085 25.4175 18.1513 25.6043 19.5073H27.8399C27.6681 17.7398 26.9047 16.0819 25.6731 14.8025C24.4415 13.523 22.814 12.6968 21.0543 12.4578V11.5337C23.0585 11.7783 24.918 12.7038 26.3216 14.1552C27.7252 15.6066 28.5878 17.496 28.7652 19.5073H30.9945C30.8138 16.9045 29.7158 14.4502 27.8956 12.5808C26.0755 10.7115 23.6514 9.54829 21.0543 9.29817V7.00342H18.8336V9.30187C16.2583 9.57647 13.8619 10.7489 12.0647 12.6137C10.2674 14.4784 9.18398 16.9163 9.00439 19.4999H11.235C11.4115 17.5086 12.2597 15.6363 13.6404 14.1906C15.0212 12.7448 16.8524 11.8114 18.8336 11.5436Z" fill="#0074C2"/>
<path d="M31 20.9487H28.7719C28.6113 22.975 27.7554 24.8834 26.3491 26.3509C24.9427 27.8184 23.0724 28.7547 21.0548 29.0013V28.0773C22.8288 27.8372 24.4681 27.0006 25.7034 25.705C26.9387 24.4095 27.6962 22.7321 27.8515 20.9487H25.6197C25.4501 22.3216 24.7849 23.5853 23.7491 24.5022C22.7134 25.4191 21.3784 25.9262 19.9951 25.9281C18.6126 25.925 17.2788 25.4174 16.2441 24.5006C15.2094 23.5837 14.5449 22.3208 14.3754 20.9487H12.1485C12.3021 22.713 13.0452 24.3742 14.258 25.6647C15.4708 26.9552 17.0828 27.7998 18.8341 28.0625V28.9878C16.8389 28.7179 14.9961 27.7731 13.6124 26.3106C12.2286 24.848 11.3872 22.9559 11.2281 20.9487H9C9.16191 23.547 10.2381 26.0041 12.0381 27.8849C13.838 29.7656 16.2455 30.9487 18.8341 31.2245V33.3799H21.0548V31.2369C23.6655 30.9856 26.101 29.8117 27.9238 27.926C29.7467 26.0403 30.8374 23.5664 31 20.9487Z" fill="#0074C2"/>
</g>
<circle cx="20" cy="20" r="19.5" stroke="black" stroke-opacity="0.05"/>
<defs>
<clipPath id="clip0_16604_10945">
<rect width="22" height="26.3798" fill="white" transform="translate(9 7)"/>
</clipPath>
</defs>
</svg>
