<svg width="40" height="40" viewBox="0 0 40 40" fill="none" xmlns="http://www.w3.org/2000/svg">
<circle cx="20" cy="20" r="20" fill="#F6F8FA"/>
<g clip-path="url(#clip0_17713_28102)">
<path d="M26.0904 13.791C26.5504 14.191 26.9404 14.661 27.2604 15.171C28.5804 17.281 27.4104 18.751 25.1004 18.891C24.1004 18.951 23.3504 18.531 22.8604 17.641C22.3904 16.781 22.0304 15.831 21.4404 14.981C22.6904 13.511 24.2304 13.111 26.0904 13.781V13.791Z" fill="#6FB45D"/>
<path d="M21.4404 14.9809C22.6904 13.5109 24.2304 13.1109 26.0904 13.7809C24.0904 12.0209 21.8304 11.2409 19.2904 11.4509C16.5604 11.6809 14.3504 12.9409 12.6704 15.2309C10.6004 18.2109 10.4104 22.1609 12.3404 25.2509C14.8804 29.3209 20.0904 30.7709 24.3904 28.4209C23.8904 28.5409 23.4104 28.6309 22.9404 28.6709C22.4204 28.7209 21.9604 28.6709 21.5704 28.5209C20.6904 28.1809 20.0604 27.5309 19.7104 26.5609C19.6204 26.4509 19.5504 26.3109 19.4904 26.1409C19.1204 25.0909 18.9104 24.0109 18.8704 22.8809C18.6804 20.1209 19.3904 17.6509 21.0104 15.4509C21.1204 15.3109 21.2604 15.1409 21.4504 14.9709L21.4404 14.9809Z" fill="url(#paint0_radial_17713_28102)"/>
<path d="M24.39 28.4209C23.89 28.5409 23.41 28.6309 22.94 28.6709C22.42 28.7209 21.96 28.6709 21.57 28.5209C20.69 28.1809 20.06 27.5309 19.71 26.5609C20.7 26.1109 21.46 25.3609 21.97 24.3109C22.4 23.4409 22.82 22.6509 23.23 21.9309C23.93 20.7009 25.2 19.9409 26.65 20.0109C27.96 20.0809 28.64 21.1109 28.54 22.3509C28.45 23.3809 28.13 24.3709 27.58 25.3009C26.78 26.6409 25.72 27.6809 24.38 28.4109L24.39 28.4209Z" fill="#6FB45D"/>
</g>
<circle cx="20" cy="20" r="19.5" stroke="black" stroke-opacity="0.05"/>
<defs>
<radialGradient id="paint0_radial_17713_28102" cx="0" cy="0" r="1" gradientUnits="userSpaceOnUse" gradientTransform="translate(18.8304 15.7709) scale(8.8)">
<stop offset="0.17" stop-color="#77AEC7"/>
<stop offset="0.74" stop-color="#0F5EAB"/>
</radialGradient>
<clipPath id="clip0_17713_28102">
<rect width="17.55" height="18.13" fill="white" transform="translate(11 11.4209)"/>
</clipPath>
</defs>
</svg>
