<svg width="40" height="40" viewBox="0 0 40 40" fill="none" xmlns="http://www.w3.org/2000/svg">
<circle cx="20" cy="20" r="20" fill="#F6F8FA"/>
<path d="M7.03619 19.83C6.8848 19.074 7.20945 18.6771 7.99093 18.5766C8.97757 18.4497 9.97026 18.3447 10.9433 18.1467C11.5692 18.0194 12.1644 17.7417 12.8796 17.4947C12.1573 16.7443 11.5087 16.0679 10.8571 15.3943C10.6164 15.1456 10.3576 14.9136 10.1265 14.6564C9.69349 14.1744 9.73877 13.4913 10.2169 13.0609C10.6884 12.6366 11.2331 12.6905 11.7155 13.1892C12.2542 13.7461 12.8233 14.2745 13.3474 14.8445C13.9448 15.4941 14.5071 16.176 15.0899 16.85C15.1609 16.4652 15.2228 16.0388 15.3199 15.6205C15.61 14.3703 16.1504 13.2215 16.7867 12.1159C17.1003 11.5711 17.6762 11.4148 18.2114 11.705C18.7608 12.003 18.9307 12.5855 18.6741 13.1612C18.2478 14.1176 17.7803 15.0628 17.4493 16.0526C17.09 17.1268 17.1856 18.2317 17.5608 19.3078C18.087 20.8167 18.3714 22.3807 18.5342 23.9637C18.5644 24.2583 18.4401 24.6265 18.2633 24.8712C17.9858 25.2555 17.5412 25.3693 17.0704 25.234C16.6052 25.1004 16.4969 24.7124 16.4535 24.2968C16.3888 23.678 16.3443 23.057 16.2708 22.4394C16.2351 22.1389 16.1814 21.8346 16.0871 21.5481C15.7894 20.6444 15.4687 19.7482 15.1436 18.8108C13.0151 20.0356 10.6474 20.463 8.22973 20.7002C7.68392 20.7537 7.29552 20.4705 7.03619 19.83Z" fill="#02B2CE"/>
<path d="M21.9944 31.1938C21.4556 31.6117 20.9935 31.6289 20.5393 31.2681C20.1416 30.952 19.9935 30.418 20.2108 30.0111C20.2872 29.868 20.4021 29.7398 20.5195 29.6254C21.8972 28.2827 22.8893 26.6776 23.6924 24.9475C24.065 24.1449 23.8985 23.7727 23.0485 23.5313C22.654 23.4194 22.235 23.3843 21.8243 23.3417C21.2281 23.2798 20.8314 22.8301 20.8571 22.2124C20.8818 21.6177 21.2722 21.1824 21.8575 21.2324C22.5528 21.2918 23.2731 21.358 23.923 21.589C25.5583 22.1701 26.3528 23.3711 25.8835 25.2754C25.5219 26.7426 24.736 27.9975 23.8099 29.1614C23.2513 29.8633 22.6165 30.5044 21.9944 31.1938Z" fill="#038ED1"/>
<path d="M29.9523 24.01C29.4731 24.2339 29.0017 24.4082 28.5819 24.6665C28.1122 24.9556 28.1242 25.2392 28.5717 25.5601C29.5475 26.2598 30.677 26.4257 31.837 26.4666C32.5957 26.4933 33.0314 26.9211 32.9982 27.6248C32.9708 28.205 32.574 28.6428 31.9943 28.6289C30.4742 28.5925 28.9905 28.3666 27.6499 27.579C26.7654 27.0594 26.1706 26.3271 26.0923 25.2693C26.0228 24.3314 26.4712 23.6129 27.1642 23.042C28.2928 22.1123 29.6267 21.6906 31.0624 21.5781C31.6931 21.5286 32.1096 21.9128 32.1651 22.5118C32.2234 23.1414 31.8441 23.6261 31.2363 23.7313C30.8157 23.8041 30.4005 23.9077 29.9523 24.01Z" fill="#028ED1"/>
<path d="M20.5546 12.4067C20.3438 11.5976 20.1538 10.8196 19.9391 10.0485C19.7286 9.29255 19.9469 8.78932 20.6004 8.59442C21.2719 8.39415 21.7959 8.69783 22.0168 9.42937C22.5174 11.0871 22.904 12.7609 22.9531 14.5081C22.9954 16.0086 22.5973 17.3752 21.91 18.6811C21.807 18.8768 21.704 19.0727 21.5949 19.265C21.2759 19.8275 20.7383 19.9946 20.1889 19.7055C19.6265 19.4096 19.4204 18.7746 19.7106 18.2192C19.7745 18.0969 19.8416 17.9723 19.9293 17.8671C20.7728 16.8548 20.8691 15.652 20.7906 14.4162C20.7487 13.7556 20.642 13.0992 20.5546 12.4067Z" fill="#FFC20C"/>
<path d="M25.6855 17.0755C25.7387 17.4398 25.7753 17.7696 25.8482 18.0912C25.993 18.7296 25.7432 19.1964 25.135 19.3806C24.5545 19.5564 23.9661 19.2624 23.7714 18.6812C23.5057 17.8878 23.5646 17.0726 23.6302 16.2573C23.7107 15.2561 23.9201 14.2406 23.8226 13.2562C23.7152 12.1721 23.3451 11.11 23.0467 10.0503C22.8255 9.26475 22.9845 8.78766 23.6302 8.57137C24.2935 8.34917 24.8676 8.65288 25.1012 9.38404C25.42 10.382 25.7491 11.3787 26.0099 12.3924C26.2567 13.3513 26.046 14.3131 25.8944 15.2699C25.8015 15.8554 25.7535 16.448 25.6855 17.0755Z" fill="#FFC20C"/>
<circle cx="20" cy="20" r="19.5" stroke="black" stroke-opacity="0.05"/>
</svg>
