<svg width="40" height="40" viewBox="0 0 40 40" fill="none" xmlns="http://www.w3.org/2000/svg">
<circle cx="20" cy="20" r="20" fill="#F6F8FA"/>
<path d="M9.03062 19.8581C8.90252 19.2183 9.17722 18.8825 9.83848 18.7974C10.6733 18.6901 11.5133 18.6012 12.3367 18.4337C12.8662 18.326 13.3699 18.091 13.975 17.882C13.3639 17.247 12.8151 16.6747 12.2637 16.1048C12.06 15.8943 11.841 15.698 11.6455 15.4804C11.2791 15.0725 11.3174 14.4945 11.722 14.1303C12.121 13.7713 12.5819 13.8169 12.99 14.2389C13.4458 14.7101 13.9274 15.1572 14.3709 15.6395C14.8764 16.1892 15.3521 16.7662 15.8453 17.3365C15.9053 17.0109 15.9578 16.6501 16.0399 16.2961C16.2854 15.2383 16.7427 14.2662 17.2811 13.3307C17.5464 12.8697 18.0337 12.7374 18.4866 12.983C18.9515 13.2351 19.0952 13.7281 18.8781 14.2152C18.5174 15.0245 18.1218 15.8243 17.8417 16.6618C17.5377 17.5707 17.6186 18.5056 17.9361 19.4162C18.3813 20.693 18.622 22.0163 18.7597 23.3558C18.7853 23.605 18.6801 23.9166 18.5305 24.1237C18.2957 24.4488 17.9194 24.5451 17.5211 24.4307C17.1274 24.3176 17.0359 23.9893 16.9991 23.6376C16.9443 23.1141 16.9067 22.5886 16.8445 22.066C16.8143 21.8117 16.7689 21.5543 16.689 21.3118C16.4372 20.5471 16.1658 19.7888 15.8907 18.9956C14.0897 20.032 12.0863 20.3937 10.0405 20.5943C9.5787 20.6396 9.25006 20.4 9.03062 19.8581Z" fill="#02B2CE"/>
<path d="M21.6875 29.4735C21.2316 29.8271 20.8406 29.8417 20.4563 29.5364C20.1197 29.2689 19.9944 28.8171 20.1783 28.4728C20.2429 28.3517 20.3402 28.2432 20.4395 28.1464C21.6053 27.0103 22.4447 25.6521 23.1243 24.1882C23.4395 23.5091 23.2986 23.1941 22.5794 22.9899C22.2456 22.8952 21.8911 22.8655 21.5435 22.8294C21.0391 22.777 20.7034 22.3965 20.7251 21.8739C20.746 21.3707 21.0764 21.0023 21.5716 21.0446C22.16 21.0949 22.7695 21.1509 23.3194 21.3464C24.7031 21.8381 25.3754 22.8543 24.9783 24.4657C24.6723 25.7072 24.0073 26.769 23.2236 27.7538C22.751 28.3477 22.2139 28.8902 21.6875 29.4735Z" fill="#038ED1"/>
<path d="M28.4214 23.3949C28.0159 23.5843 27.6169 23.7318 27.2617 23.9504C26.8643 24.195 26.8745 24.4349 27.2531 24.7065C28.0788 25.2985 29.0346 25.4389 30.0161 25.4735C30.658 25.4961 31.0267 25.8581 30.9986 26.4535C30.9754 26.9444 30.6397 27.3149 30.1492 27.3032C28.8629 27.2723 27.6075 27.0812 26.4732 26.4148C25.7247 25.9751 25.2214 25.3555 25.1552 24.4604C25.0964 23.6668 25.4758 23.0588 26.0622 22.5758C27.0171 21.7891 28.1458 21.4323 29.3607 21.337C29.8943 21.2952 30.2467 21.6203 30.2937 22.1272C30.343 22.6598 30.0221 23.07 29.5078 23.159C29.1519 23.2206 28.8006 23.3083 28.4214 23.3949Z" fill="#028ED1"/>
<path d="M20.4693 13.5768C20.2909 12.8922 20.1301 12.2339 19.9484 11.5814C19.7704 10.9417 19.9551 10.5159 20.508 10.351C21.0762 10.1816 21.5196 10.4385 21.7065 11.0575C22.1301 12.4602 22.4572 13.8765 22.4988 15.3549C22.5346 16.6246 22.1977 17.7809 21.6161 18.8859C21.529 19.0515 21.4419 19.2172 21.3496 19.38C21.0796 19.8559 20.6248 19.9973 20.1598 19.7527C19.684 19.5023 19.5096 18.965 19.7552 18.4951C19.8092 18.3916 19.866 18.2861 19.9402 18.1971C20.6539 17.3406 20.7354 16.3228 20.669 15.2771C20.6335 14.7182 20.5433 14.1627 20.4693 13.5768Z" fill="#FFC20C"/>
<path d="M24.8109 17.5273C24.856 17.8355 24.8869 18.1146 24.9486 18.3867C25.0712 18.9269 24.8598 19.3219 24.3452 19.4777C23.854 19.6264 23.356 19.3777 23.1913 18.8859C22.9665 18.2146 23.0164 17.5248 23.0718 16.835C23.14 15.9877 23.3172 15.1285 23.2347 14.2955C23.1438 13.3782 22.8306 12.4795 22.5781 11.5828C22.3909 10.9182 22.5255 10.5145 23.0719 10.3314C23.6331 10.1434 24.1189 10.4004 24.3165 11.0191C24.5863 11.8635 24.8648 12.7069 25.0855 13.5647C25.2943 14.376 25.116 15.1899 24.9877 15.9995C24.9091 16.4949 24.8685 16.9963 24.8109 17.5273Z" fill="#FFC20C"/>
<circle cx="20" cy="20" r="19.5" stroke="black" stroke-opacity="0.05"/>
</svg>
