<svg width="40" height="40" viewBox="0 0 40 40" fill="none" xmlns="http://www.w3.org/2000/svg">
<circle cx="20" cy="20" r="20" fill="#295DA4"/>
<path d="M36 19.9999C36 20.9023 35.5861 21.7959 34.7821 22.6297C33.978 23.4634 32.7994 24.221 31.3137 24.8591C29.828 25.4972 28.0641 26.0034 26.1229 26.3487C24.1817 26.6941 22.1012 26.8718 20 26.8718C15.7565 26.8718 11.6869 26.1478 8.68629 24.8591C5.68571 23.5703 4 21.8224 4 19.9999C4 18.1773 5.68571 16.4294 8.68629 15.1407C11.6869 13.8519 15.7565 13.1279 20 13.1279C24.2435 13.1279 28.3131 13.8519 31.3137 15.1407C34.3143 16.4294 36 18.1773 36 19.9999ZM20.9161 20.4442C20.9046 20.4528 20.899 20.45 20.8992 20.4359C20.9043 19.8045 20.9058 19.2313 20.9035 18.7162C20.9032 18.6727 20.9215 18.6358 20.9493 18.6057C21.3752 18.1451 21.758 17.6253 22.0405 17.0613C22.2094 16.7243 22.3198 16.4009 22.3715 16.0911C22.4966 15.3414 22.2885 14.6747 21.6824 14.1972C21.2819 13.8817 20.7724 13.6933 20.2576 13.5908C19.7935 13.4983 19.3105 13.454 18.8085 13.458C17.4545 13.4686 16.0881 13.738 14.7707 14.1499C13.0819 14.6778 11.485 15.4159 9.98021 16.3642C9.00059 16.9817 8.06191 17.706 7.27294 18.525C6.73303 19.0852 6.24838 19.7093 5.92002 20.3975C5.49033 21.2984 5.40645 22.339 6.21231 23.0701C6.82092 23.6221 7.72754 23.819 8.52624 23.8786C9.07645 23.9198 9.66016 23.908 10.2774 23.8431C11.9134 23.6707 13.6133 23.1686 15.1674 22.5007C15.26 22.4609 15.256 22.4437 15.1554 22.4492C15.1138 22.4513 15.068 22.4548 15.018 22.4595C15.0124 22.4601 15.0067 22.4592 15.0015 22.457C14.9963 22.4548 14.9917 22.4513 14.9882 22.4468C14.9847 22.4424 14.9824 22.4371 14.9814 22.4315C14.9805 22.4259 14.981 22.4202 14.9828 22.4149L16.6455 17.5468C16.6496 17.5347 16.6574 17.5241 16.6678 17.5167C16.6782 17.5092 16.6908 17.5052 16.7036 17.5053L17.6972 17.5073C17.7196 17.5073 17.7312 17.5185 17.7322 17.5408L17.8352 19.9658C17.836 19.9843 17.8399 19.9851 17.847 19.9681L18.8718 17.5428C18.8765 17.5317 18.8843 17.5223 18.8943 17.5156C18.9044 17.509 18.9162 17.5055 18.9282 17.5056L19.8975 17.507C19.9044 17.507 19.911 17.5098 19.9159 17.5147C19.9208 17.5195 19.9236 17.5262 19.9236 17.5331V22.4074C19.9236 22.4359 19.9378 22.4501 19.9662 22.4501L20.9496 22.4506C20.9572 22.4507 20.9647 22.4484 20.9711 22.4441C20.9775 22.4398 20.9826 22.4338 20.9856 22.4266C21.3269 21.6229 21.6614 20.8292 21.9893 20.0454C21.996 20.0294 22.0079 20.0207 22.0251 20.0193C22.0279 20.0191 22.0308 20.0195 22.0335 20.0205C22.0362 20.0215 22.0387 20.0231 22.0407 20.0251C22.0428 20.0271 22.0444 20.0295 22.0454 20.0321C22.0465 20.0348 22.047 20.0377 22.0468 20.0405C22.0434 20.1085 22.0429 20.1732 22.0454 20.2346C22.0723 20.9362 22.1036 21.6653 22.1393 22.422C22.1396 22.4296 22.1428 22.4367 22.1483 22.4419C22.1538 22.4472 22.1612 22.4501 22.1688 22.4501H23.1842C23.1894 22.4501 23.1944 22.4485 23.1986 22.4454C23.2028 22.4424 23.206 22.4381 23.2077 22.4332L24.8798 17.5405C24.8808 17.5374 24.8811 17.5341 24.8806 17.5309C24.8802 17.5277 24.8789 17.5246 24.877 17.5219C24.8751 17.5193 24.8726 17.5171 24.8697 17.5156C24.8668 17.5141 24.8636 17.5133 24.8603 17.5133L23.8678 17.513C23.8595 17.513 23.8513 17.5156 23.8446 17.5205C23.8378 17.5253 23.8327 17.5321 23.83 17.5399C23.5289 18.4079 23.2255 19.2791 22.92 20.1536C22.9089 20.1847 22.8949 20.2158 22.8779 20.2469C22.864 20.2723 22.8564 20.2705 22.8553 20.2415C22.8481 20.0629 22.8722 19.8857 22.8719 19.7042C22.8715 18.985 22.8711 18.2643 22.8707 17.542C22.8707 17.5346 22.8678 17.5275 22.8626 17.5222C22.8574 17.517 22.8504 17.514 22.843 17.5139L22.0717 17.5125C22.0601 17.5125 22.0486 17.516 22.039 17.5227C22.0294 17.5293 22.0221 17.5387 22.0179 17.5497C21.6271 18.5812 21.2732 19.5261 20.9564 20.3843C20.9463 20.4116 20.9329 20.4316 20.9161 20.4442ZM26.8631 20.3225L26.525 22.4289C26.5246 22.4317 26.5248 22.4345 26.5255 22.4372C26.5263 22.4398 26.5277 22.4423 26.5295 22.4444C26.5313 22.4466 26.5335 22.4483 26.5361 22.4494C26.5386 22.4506 26.5414 22.4512 26.5442 22.4512L27.4826 22.4501C27.4869 22.4501 27.491 22.4485 27.4943 22.4457C27.4976 22.4428 27.4999 22.4389 27.5006 22.4346L28.3062 17.5411C28.3092 17.5224 28.3013 17.513 28.2824 17.513H27.332C27.3265 17.513 27.3211 17.515 27.317 17.5187C27.3128 17.5223 27.31 17.5273 27.3091 17.5328L27.0122 19.3807C27.011 19.388 27.0072 19.3947 27.0016 19.3996C26.9959 19.4044 26.9887 19.407 26.9813 19.407H26.0856C26.0822 19.407 26.0788 19.4063 26.0757 19.4049C26.0727 19.4035 26.0699 19.4014 26.0678 19.3988C26.0656 19.3963 26.064 19.3933 26.0631 19.39C26.0622 19.3868 26.0621 19.3834 26.0627 19.3801L26.3658 17.5408C26.3664 17.5374 26.3662 17.534 26.3653 17.5307C26.3644 17.5274 26.3628 17.5243 26.3605 17.5217C26.3583 17.5191 26.3555 17.517 26.3524 17.5155C26.3492 17.5141 26.3458 17.5133 26.3423 17.5133H25.3928C25.3868 17.5133 25.381 17.5154 25.3764 17.5193C25.3719 17.5232 25.3688 17.5286 25.3679 17.5345L25.0744 19.3675C25.0726 19.3791 25.0667 19.3896 25.0578 19.3971C25.0488 19.4047 25.0375 19.4088 25.0258 19.4087L24.4461 19.4044C24.4423 19.4044 24.4385 19.4054 24.4352 19.4073C24.4319 19.4092 24.4292 19.412 24.4273 19.4154C24.4255 19.4187 24.4246 19.4225 24.4247 19.4263C24.4248 19.4301 24.426 19.4339 24.428 19.4371C24.5926 19.6947 24.755 19.9463 24.9153 20.192C24.9565 20.2549 24.9236 20.3113 24.9133 20.3766C24.8035 21.0541 24.6952 21.7369 24.5884 22.4249C24.5879 22.428 24.5881 22.4312 24.5889 22.4343C24.5898 22.4374 24.5914 22.4402 24.5935 22.4426C24.5956 22.445 24.5982 22.447 24.6011 22.4483C24.604 22.4497 24.6072 22.4504 24.6104 22.4504L25.5416 22.4509C25.5461 22.4509 25.5504 22.4493 25.5538 22.4465C25.5572 22.4436 25.5595 22.4396 25.5603 22.4352L25.9086 20.3156C25.9107 20.3032 25.9181 20.297 25.9307 20.297L26.8419 20.2976C26.845 20.2976 26.8481 20.2983 26.8509 20.2996C26.8537 20.3009 26.8562 20.3028 26.8582 20.3052C26.8602 20.3075 26.8617 20.3103 26.8626 20.3133C26.8634 20.3163 26.8636 20.3194 26.8631 20.3225ZM29.812 17.5128C29.8067 17.5127 29.8015 17.5143 29.7971 17.5173C29.7927 17.5202 29.7893 17.5244 29.7873 17.5294L28.5163 20.7682C28.5144 20.7732 28.511 20.7775 28.5066 20.7805C28.5022 20.7835 28.497 20.7851 28.4917 20.7851L27.9449 20.7831C27.9402 20.7831 27.9356 20.7843 27.9315 20.7867C27.9275 20.789 27.9241 20.7924 27.9218 20.7965C27.9195 20.8006 27.9183 20.8052 27.9184 20.8099C27.9185 20.8146 27.9198 20.8192 27.9223 20.8232L28.2649 21.3786C28.2671 21.382 28.2684 21.386 28.2687 21.3901C28.2691 21.3941 28.2685 21.3982 28.2669 21.402L27.8662 22.4154C27.8646 22.4194 27.864 22.4238 27.8645 22.4281C27.8649 22.4324 27.8665 22.4365 27.8689 22.44C27.8713 22.4436 27.8746 22.4465 27.8784 22.4485C27.8822 22.4505 27.8865 22.4515 27.8908 22.4515L28.877 22.4501C28.8822 22.4501 28.8873 22.4485 28.8916 22.4456C28.896 22.4427 28.8993 22.4386 28.9013 22.4338L29.2005 21.6935C29.2024 21.6886 29.2058 21.6844 29.2101 21.6814C29.2144 21.6785 29.2196 21.6769 29.2248 21.6769L30.1372 21.6774C30.1438 21.6774 30.1502 21.6799 30.1551 21.6844C30.16 21.6889 30.163 21.6951 30.1635 21.7018L30.2193 22.426C30.2198 22.4327 30.2228 22.4389 30.2277 22.4434C30.2326 22.4479 30.239 22.4504 30.2457 22.4504H31.1904C31.194 22.4504 31.1976 22.4496 31.2009 22.4482C31.2043 22.4467 31.2072 22.4446 31.2097 22.442C31.2122 22.4393 31.2141 22.4361 31.2153 22.4327C31.2165 22.4293 31.217 22.4256 31.2167 22.422L30.8488 17.5379C30.8483 17.5314 30.8454 17.5252 30.8405 17.5207C30.8357 17.5162 30.8294 17.5137 30.8228 17.5136L29.812 17.5128ZM18.9611 19.5215C18.9612 19.5189 18.9603 19.5164 18.9587 19.5144C18.957 19.5124 18.9547 19.511 18.9521 19.5106C18.9496 19.5101 18.9469 19.5106 18.9447 19.5119C18.9425 19.5132 18.9408 19.5153 18.9399 19.5178L18.514 20.6609C18.513 20.6631 18.5129 20.6655 18.5135 20.6679C18.5141 20.6702 18.5154 20.6722 18.5173 20.6737C18.5192 20.6752 18.5215 20.676 18.5239 20.676C18.5263 20.676 18.5287 20.6752 18.5306 20.6738L18.9505 20.3729C18.9519 20.3719 18.953 20.3706 18.9538 20.3691C18.9546 20.3676 18.9551 20.366 18.9551 20.3643L18.9611 19.5215ZM16.1809 22.021C16.1803 22.0226 16.1803 22.0243 16.1808 22.0259C16.1812 22.0275 16.1822 22.029 16.1834 22.0301C16.1847 22.0312 16.1863 22.0319 16.188 22.0321C16.1897 22.0323 16.1914 22.032 16.1929 22.0313L16.9841 21.619C16.9855 21.6183 16.9866 21.6172 16.9874 21.6159C16.9882 21.6146 16.9887 21.6131 16.9887 21.6116L16.9893 19.7505C16.9892 19.7486 16.9884 19.7467 16.9871 19.7452C16.9858 19.7438 16.984 19.7428 16.982 19.7425C16.9801 19.7422 16.9781 19.7426 16.9764 19.7436C16.9747 19.7446 16.9734 19.7461 16.9727 19.748L16.1809 22.021Z" fill="white"/>
<path d="M20.9162 20.4442C20.933 20.4316 20.9464 20.4116 20.9565 20.3844C21.2734 19.5261 21.6272 18.5812 22.018 17.5497C22.0222 17.5388 22.0295 17.5293 22.0391 17.5227C22.0488 17.516 22.0602 17.5125 22.0719 17.5125L22.8431 17.5139C22.8505 17.514 22.8575 17.517 22.8627 17.5222C22.8679 17.5275 22.8708 17.5346 22.8708 17.542C22.8712 18.2643 22.8716 18.9851 22.872 19.7042C22.8723 19.8857 22.8482 20.0629 22.8554 20.2415C22.8565 20.2705 22.8641 20.2723 22.878 20.2469C22.895 20.2158 22.909 20.1847 22.9201 20.1536C23.2256 19.2792 23.529 18.4079 23.8301 17.54C23.8328 17.5321 23.8379 17.5253 23.8447 17.5205C23.8515 17.5157 23.8596 17.5131 23.8679 17.513L24.8604 17.5133C24.8637 17.5133 24.8669 17.5141 24.8698 17.5156C24.8727 17.5171 24.8752 17.5193 24.8771 17.522C24.879 17.5246 24.8803 17.5277 24.8808 17.5309C24.8812 17.5341 24.8809 17.5374 24.8799 17.5405L23.2078 22.4332C23.2061 22.4381 23.2029 22.4424 23.1987 22.4455C23.1945 22.4485 23.1895 22.4501 23.1843 22.4501H22.1689C22.1613 22.4501 22.1539 22.4472 22.1485 22.4419C22.143 22.4367 22.1397 22.4296 22.1394 22.422C22.1037 21.6653 22.0724 20.9362 22.0455 20.2346C22.043 20.1732 22.0435 20.1085 22.047 20.0405C22.0471 20.0377 22.0466 20.0348 22.0455 20.0321C22.0445 20.0295 22.0429 20.0271 22.0408 20.0251C22.0388 20.0231 22.0363 20.0215 22.0336 20.0205C22.0309 20.0196 22.0281 20.0192 22.0252 20.0194C22.008 20.0207 21.9961 20.0294 21.9894 20.0454C21.6615 20.8292 21.327 21.623 20.9857 22.4266C20.9827 22.4338 20.9776 22.4399 20.9712 22.4441C20.9648 22.4484 20.9573 22.4507 20.9497 22.4507L19.9663 22.4501C19.9379 22.4501 19.9237 22.4359 19.9237 22.4074V17.5331C19.9237 17.5262 19.9209 17.5196 19.916 17.5147C19.9112 17.5098 19.9045 17.507 19.8976 17.507L18.9283 17.5056C18.9163 17.5055 18.9045 17.509 18.8945 17.5156C18.8844 17.5223 18.8766 17.5317 18.8719 17.5428L17.8471 19.9681C17.84 19.9851 17.8361 19.9843 17.8353 19.9658L17.7323 17.5408C17.7313 17.5185 17.7197 17.5073 17.6973 17.5073L16.7037 17.5053C16.6909 17.5053 16.6784 17.5092 16.6679 17.5167C16.6575 17.5241 16.6497 17.5347 16.6456 17.5468L14.9829 22.4149C14.9811 22.4202 14.9806 22.426 14.9815 22.4315C14.9825 22.4371 14.9848 22.4424 14.9883 22.4468C14.9918 22.4513 14.9964 22.4548 15.0016 22.457C15.0068 22.4592 15.0125 22.4601 15.0181 22.4595C15.0681 22.4548 15.1139 22.4513 15.1555 22.4492C15.2561 22.4437 15.2601 22.4609 15.1676 22.5008C13.6134 23.1686 11.9135 23.6708 10.2775 23.8431C9.66027 23.908 9.07657 23.9198 8.52635 23.8786C7.72765 23.819 6.82103 23.6221 6.21242 23.0702C5.40656 22.339 5.49044 21.2984 5.92014 20.3975C6.24849 19.7093 6.73315 19.0853 7.27305 18.525C8.06202 17.706 9.0007 16.9817 9.98032 16.3642C11.4852 15.4159 13.082 14.6778 14.7708 14.1499C16.0882 13.738 17.4546 13.4686 18.8087 13.458C19.3106 13.454 19.7936 13.4983 20.2578 13.5908C20.7725 13.6933 21.282 13.8817 21.6825 14.1972C22.2886 14.6747 22.4967 15.3414 22.3716 16.0911C22.3199 16.4009 22.2096 16.7243 22.0407 17.0613C21.7581 17.6253 21.3754 18.1451 20.9494 18.6057C20.9216 18.6358 20.9033 18.6727 20.9036 18.7162C20.9059 19.2313 20.9044 19.8046 20.8993 20.4359C20.8991 20.45 20.9047 20.4528 20.9162 20.4442ZM8.48284 19.9423C8.94059 20.1802 9.42124 20.4282 9.90504 20.6815C10.0491 20.7569 10.1321 20.8044 10.1541 20.8241C10.3682 21.0139 10.3144 21.3408 10.059 21.4613C9.99989 21.4892 9.91773 21.503 9.81257 21.5028C9.03105 21.5007 8.24437 21.5 7.45255 21.5005C7.44293 21.5005 7.43355 21.5034 7.42564 21.5088C7.41772 21.5141 7.41164 21.5217 7.40817 21.5306L7.05778 22.4143C7.04633 22.4431 7.05616 22.4575 7.08726 22.4575C8.00391 22.4579 8.93572 22.4572 9.88271 22.4555C10.4487 22.4547 10.9402 22.1555 11.16 21.6351C11.4266 21.003 11.1526 20.2464 10.5457 19.9283C10.0258 19.6558 9.48689 19.3745 8.92885 19.0844C8.70642 18.9687 8.68208 18.6933 8.89049 18.5522C8.92942 18.5257 9.00156 18.5116 9.10691 18.5098C9.91515 18.4971 10.6813 18.4956 11.4054 18.5056C11.452 18.5061 11.4861 18.5013 11.5064 18.454C11.6368 18.1517 11.7641 17.8474 11.8883 17.5411C11.8906 17.5356 11.8907 17.5294 11.8885 17.5238C11.8863 17.5183 11.882 17.5138 11.8766 17.5113C11.869 17.5079 11.8608 17.5062 11.8523 17.5062C10.9539 17.5062 10.0606 17.5062 9.17218 17.5062C8.80976 17.5062 8.48885 17.5846 8.21117 17.8314C7.5181 18.4466 7.66868 19.5192 8.48284 19.9423ZM12.7008 21.7026C12.7029 21.6975 12.7065 21.693 12.7111 21.6899C12.7158 21.6868 12.7212 21.6852 12.7268 21.6852H13.624C13.631 21.6851 13.6379 21.6878 13.6431 21.6926C13.6483 21.6973 13.6515 21.7039 13.652 21.7109L13.7133 22.4323C13.7139 22.4394 13.7171 22.4459 13.7223 22.4507C13.7275 22.4555 13.7343 22.4581 13.7414 22.4581L14.6932 22.4572C14.6971 22.4573 14.7009 22.4565 14.7044 22.4549C14.708 22.4534 14.7112 22.4512 14.7138 22.4483C14.7164 22.4455 14.7184 22.4422 14.7197 22.4385C14.721 22.4349 14.7215 22.431 14.7213 22.4272L14.3531 17.5328C14.3526 17.5257 14.3494 17.5191 14.3442 17.5142C14.339 17.5094 14.3322 17.5067 14.3251 17.5068L13.3077 17.5059C13.302 17.5059 13.2965 17.5076 13.2919 17.5108C13.2873 17.5139 13.2837 17.5184 13.2816 17.5236L12.0103 20.7619C12.0082 20.7673 12.0046 20.7719 11.9999 20.7751C11.9952 20.7783 11.9896 20.78 11.9839 20.78L11.434 20.7765C11.429 20.7765 11.424 20.7778 11.4197 20.7803C11.4153 20.7829 11.4117 20.7865 11.4093 20.7909C11.4068 20.7953 11.4056 20.8003 11.4057 20.8053C11.4058 20.8103 11.4073 20.8152 11.41 20.8195L11.7572 21.378C11.7595 21.3817 11.761 21.3859 11.7614 21.3903C11.7618 21.3947 11.7611 21.3991 11.7595 21.4032L11.3553 22.4197C11.3536 22.424 11.353 22.4286 11.3535 22.4331C11.354 22.4377 11.3556 22.442 11.3582 22.4458C11.3607 22.4496 11.3642 22.4527 11.3682 22.4548C11.3723 22.457 11.3768 22.4581 11.3813 22.4581L12.3761 22.4578C12.3817 22.4578 12.3872 22.4562 12.3918 22.4531C12.3965 22.45 12.4001 22.4455 12.4022 22.4404L12.7008 21.7026Z" fill="#295DA4"/>
<path d="M9.90461 20.6812C9.42081 20.4278 8.94016 20.1799 8.48242 19.942C7.66826 19.5189 7.51768 18.4463 8.21074 17.8311C8.48843 17.5843 8.80934 17.5059 9.17176 17.5059C10.0602 17.5059 10.9535 17.5059 11.8518 17.5059C11.8604 17.5059 11.8685 17.5076 11.8762 17.511C11.8816 17.5135 11.8859 17.5179 11.8881 17.5235C11.8903 17.5291 11.8902 17.5353 11.8879 17.5408C11.7637 17.8471 11.6364 18.1514 11.506 18.4537C11.4857 18.5009 11.4516 18.5058 11.405 18.5052C10.6809 18.4953 9.91473 18.4967 9.10649 18.5095C9.00114 18.5112 8.929 18.5254 8.89007 18.5519C8.68166 18.693 8.70599 18.9684 8.92843 19.0841C9.48646 19.3742 10.0254 19.6555 10.5453 19.928C11.1522 20.2461 11.4261 21.0027 11.1596 21.6348C10.9398 22.1552 10.4482 22.4543 9.88228 22.4552C8.9353 22.4569 8.00348 22.4576 7.08684 22.4572C7.05573 22.4572 7.0459 22.4428 7.05736 22.414L7.40775 21.5303C7.41121 21.5214 7.4173 21.5138 7.42521 21.5084C7.43313 21.5031 7.44251 21.5002 7.45212 21.5002C8.24395 21.4996 9.03063 21.5004 9.81215 21.5025C9.9173 21.5027 9.99946 21.4889 10.0586 21.461C10.314 21.3405 10.3678 21.0135 10.1537 20.8237C10.1317 20.8041 10.0487 20.7566 9.90461 20.6812Z" fill="white"/>
<path d="M12.701 21.7024L12.4024 22.4401C12.4003 22.4453 12.3967 22.4497 12.392 22.4528C12.3874 22.4559 12.3819 22.4576 12.3763 22.4575L11.3815 22.4578C11.377 22.4578 11.3725 22.4567 11.3684 22.4546C11.3644 22.4524 11.3609 22.4493 11.3584 22.4455C11.3558 22.4418 11.3542 22.4374 11.3537 22.4329C11.3532 22.4283 11.3538 22.4237 11.3555 22.4195L11.7597 21.4029C11.7613 21.3988 11.7619 21.3944 11.7615 21.39C11.7611 21.3857 11.7597 21.3814 11.7574 21.3777L11.4102 20.8192C11.4075 20.8149 11.406 20.81 11.4059 20.805C11.4058 20.8 11.407 20.795 11.4095 20.7906C11.4119 20.7862 11.4155 20.7826 11.4199 20.78C11.4242 20.7775 11.4292 20.7762 11.4342 20.7763L11.9841 20.7797C11.9898 20.7797 11.9954 20.778 12.0001 20.7748C12.0048 20.7716 12.0084 20.767 12.0105 20.7617L13.2818 17.5234C13.2839 17.5181 13.2874 17.5136 13.2921 17.5105C13.2967 17.5073 13.3022 17.5056 13.3078 17.5056L14.3253 17.5065C14.3324 17.5065 14.3392 17.5091 14.3444 17.514C14.3496 17.5188 14.3528 17.5254 14.3533 17.5325L14.7215 22.4269C14.7217 22.4308 14.7212 22.4346 14.7199 22.4383C14.7186 22.4419 14.7166 22.4452 14.714 22.4481C14.7114 22.4509 14.7082 22.4531 14.7046 22.4547C14.7011 22.4562 14.6973 22.457 14.6934 22.457L13.7415 22.4578C13.7345 22.4578 13.7277 22.4552 13.7225 22.4504C13.7173 22.4457 13.7141 22.4391 13.7135 22.4321L13.6522 21.7107C13.6517 21.7036 13.6484 21.6971 13.6432 21.6923C13.638 21.6875 13.6312 21.6849 13.6242 21.6849H12.727C12.7214 21.6849 12.716 21.6865 12.7113 21.6896C12.7067 21.6928 12.7031 21.6972 12.701 21.7024ZM13.0734 20.7671C13.0728 20.7686 13.0726 20.7703 13.0727 20.7719C13.0729 20.7736 13.0735 20.7751 13.0744 20.7765C13.0754 20.7779 13.0766 20.779 13.0781 20.7797C13.0796 20.7805 13.0812 20.7809 13.0828 20.7808L13.5612 20.7783C13.5626 20.7783 13.564 20.778 13.5652 20.7774C13.5665 20.7769 13.5677 20.7761 13.5686 20.775C13.5695 20.774 13.5703 20.7728 13.5707 20.7715C13.5712 20.7702 13.5713 20.7688 13.5712 20.7674L13.4913 19.7594C13.4912 19.7571 13.4903 19.7549 13.4888 19.7532C13.4872 19.7514 13.4851 19.7503 13.4828 19.75C13.4805 19.7496 13.4781 19.7501 13.4762 19.7513C13.4742 19.7525 13.4727 19.7544 13.4719 19.7566L13.0734 20.7671Z" fill="white"/>
<path d="M26.8632 20.3224C26.8637 20.3193 26.8635 20.3162 26.8627 20.3132C26.8618 20.3102 26.8604 20.3074 26.8584 20.3051C26.8563 20.3027 26.8538 20.3008 26.851 20.2995C26.8482 20.2982 26.8451 20.2975 26.842 20.2975L25.9308 20.2969C25.9182 20.2969 25.9109 20.3031 25.9088 20.3155L25.5604 22.4351C25.5596 22.4395 25.5574 22.4435 25.5539 22.4464C25.5505 22.4492 25.5462 22.4508 25.5418 22.4508L24.6105 22.4503C24.6073 22.4503 24.6041 22.4496 24.6012 22.4482C24.5983 22.4469 24.5957 22.4449 24.5936 22.4425C24.5915 22.4401 24.5899 22.4373 24.5891 22.4342C24.5882 22.4311 24.588 22.4279 24.5885 22.4248C24.6954 21.7368 24.8037 21.054 24.9134 20.3765C24.9237 20.3112 24.9566 20.2548 24.9154 20.1919C24.7551 19.9462 24.5927 19.6946 24.4282 19.437C24.4261 19.4338 24.4249 19.43 24.4248 19.4262C24.4247 19.4224 24.4256 19.4186 24.4274 19.4153C24.4293 19.4119 24.432 19.4091 24.4353 19.4072C24.4386 19.4053 24.4424 19.4043 24.4462 19.4043L25.0259 19.4086C25.0376 19.4087 25.0489 19.4046 25.0579 19.397C25.0668 19.3895 25.0727 19.379 25.0746 19.3674L25.368 17.5344C25.3689 17.5285 25.372 17.5231 25.3765 17.5192C25.3811 17.5153 25.3869 17.5132 25.3929 17.5132H26.3425C26.3459 17.5132 26.3494 17.514 26.3525 17.5154C26.3556 17.5169 26.3584 17.519 26.3607 17.5216C26.3629 17.5242 26.3645 17.5273 26.3654 17.5306C26.3664 17.5339 26.3665 17.5373 26.3659 17.5407L26.0628 19.38C26.0622 19.3833 26.0623 19.3867 26.0632 19.3899C26.0641 19.3932 26.0657 19.3962 26.0679 19.3987C26.0701 19.4013 26.0728 19.4034 26.0759 19.4048C26.0789 19.4062 26.0823 19.4069 26.0857 19.4069H26.9814C26.9888 19.4069 26.996 19.4043 27.0017 19.3995C27.0073 19.3946 27.0111 19.3879 27.0123 19.3806L27.3092 17.5327C27.3101 17.5272 27.3129 17.5222 27.3171 17.5186C27.3213 17.5149 27.3266 17.5129 27.3321 17.5129H28.2825C28.3014 17.5129 28.3093 17.5223 28.3063 17.541L27.5007 22.4345C27.5 22.4388 27.4978 22.4427 27.4945 22.4456C27.4912 22.4484 27.487 22.45 27.4827 22.45L26.5443 22.4511C26.5415 22.4511 26.5387 22.4505 26.5362 22.4493C26.5337 22.4482 26.5314 22.4465 26.5296 22.4443C26.5278 22.4422 26.5264 22.4397 26.5257 22.4371C26.5249 22.4344 26.5247 22.4316 26.5251 22.4288L26.8632 20.3224Z" fill="#295DA4"/>
<path d="M29.8119 17.5127L30.8227 17.5136C30.8293 17.5136 30.8357 17.5161 30.8405 17.5206C30.8453 17.5252 30.8483 17.5313 30.8488 17.5379L31.2166 22.422C31.2169 22.4256 31.2164 22.4292 31.2152 22.4327C31.214 22.4361 31.2121 22.4392 31.2097 22.4419C31.2072 22.4446 31.2042 22.4467 31.2009 22.4481C31.1975 22.4496 31.1939 22.4503 31.1903 22.4503H30.2456C30.239 22.4503 30.2325 22.4478 30.2277 22.4433C30.2228 22.4388 30.2198 22.4326 30.2193 22.426L30.1635 21.7017C30.1629 21.6951 30.1599 21.6889 30.1551 21.6844C30.1502 21.6799 30.1438 21.6774 30.1371 21.6774L29.2248 21.6768C29.2195 21.6768 29.2144 21.6784 29.2101 21.6814C29.2057 21.6843 29.2024 21.6885 29.2004 21.6934L28.9013 22.4337C28.8993 22.4385 28.8959 22.4427 28.8916 22.4456C28.8873 22.4485 28.8822 22.45 28.8769 22.45L27.8907 22.4515C27.8864 22.4515 27.8822 22.4504 27.8784 22.4484C27.8745 22.4464 27.8713 22.4435 27.8688 22.44C27.8664 22.4364 27.8649 22.4323 27.8644 22.428C27.8639 22.4237 27.8645 22.4194 27.8661 22.4154L28.2669 21.402C28.2684 21.3982 28.269 21.3941 28.2687 21.39C28.2683 21.3859 28.267 21.382 28.2649 21.3785L27.9222 20.8231C27.9198 20.8191 27.9184 20.8146 27.9184 20.8099C27.9183 20.8052 27.9195 20.8005 27.9218 20.7965C27.9241 20.7924 27.9274 20.789 27.9315 20.7866C27.9355 20.7843 27.9402 20.783 27.9448 20.7831L28.4916 20.7851C28.497 20.7851 28.5022 20.7835 28.5066 20.7804C28.511 20.7774 28.5143 20.7732 28.5162 20.7682L29.7873 17.5293C29.7892 17.5244 29.7926 17.5202 29.797 17.5172C29.8014 17.5142 29.8066 17.5127 29.8119 17.5127ZM29.572 20.7613C29.5709 20.7641 29.5704 20.7671 29.5707 20.77C29.5711 20.773 29.5721 20.7758 29.5738 20.7783C29.5754 20.7808 29.5777 20.7828 29.5803 20.7842C29.583 20.7855 29.5859 20.7862 29.5889 20.7862L30.0621 20.7839C30.0646 20.7839 30.067 20.7834 30.0693 20.7823C30.0715 20.7813 30.0735 20.7799 30.0752 20.778C30.0769 20.7762 30.0781 20.7741 30.0789 20.7717C30.0797 20.7694 30.0801 20.7669 30.0799 20.7645L29.9994 19.7742C29.999 19.7702 29.9973 19.7665 29.9946 19.7635C29.9918 19.7606 29.9881 19.7587 29.9841 19.7581C29.9801 19.7575 29.9761 19.7583 29.9726 19.7603C29.969 19.7622 29.9663 19.7654 29.9648 19.7691L29.572 20.7613Z" fill="#295DA4"/>
<path d="M18.9607 19.5216L18.9547 20.3644C18.9546 20.3661 18.9542 20.3678 18.9534 20.3692C18.9526 20.3707 18.9515 20.372 18.9501 20.373L18.5301 20.6739C18.5282 20.6753 18.5259 20.6761 18.5235 20.6761C18.5211 20.6761 18.5188 20.6753 18.5169 20.6738C18.515 20.6723 18.5137 20.6703 18.5131 20.668C18.5124 20.6656 18.5126 20.6632 18.5135 20.661L18.9395 19.5179C18.9403 19.5154 18.942 19.5134 18.9443 19.512C18.9465 19.5107 18.9491 19.5102 18.9517 19.5107C18.9543 19.5111 18.9566 19.5125 18.9582 19.5145C18.9599 19.5165 18.9608 19.519 18.9607 19.5216Z" fill="#295DA4"/>
<path d="M16.1811 22.0212L16.9729 19.7482C16.9736 19.7464 16.9749 19.7448 16.9766 19.7438C16.9783 19.7429 16.9803 19.7425 16.9822 19.7428C16.9842 19.7431 16.986 19.744 16.9873 19.7455C16.9886 19.747 16.9894 19.7488 16.9895 19.7508L16.9889 21.6118C16.9889 21.6134 16.9885 21.6149 16.9877 21.6162C16.9869 21.6175 16.9857 21.6186 16.9844 21.6193L16.1931 22.0315C16.1916 22.0323 16.1899 22.0326 16.1882 22.0324C16.1865 22.0322 16.1849 22.0315 16.1837 22.0304C16.1824 22.0293 16.1814 22.0278 16.181 22.0262C16.1805 22.0245 16.1806 22.0228 16.1811 22.0212Z" fill="#295DA4"/>
<path d="M13.073 20.7675L13.4715 19.757C13.4722 19.7548 13.4738 19.7529 13.4757 19.7517C13.4777 19.7505 13.4801 19.75 13.4824 19.7504C13.4847 19.7507 13.4868 19.7518 13.4884 19.7535C13.4899 19.7553 13.4908 19.7575 13.4909 19.7598L13.5708 20.7678C13.5709 20.7692 13.5708 20.7706 13.5703 20.7719C13.5699 20.7732 13.5691 20.7744 13.5682 20.7754C13.5673 20.7764 13.5661 20.7773 13.5648 20.7778C13.5636 20.7784 13.5622 20.7787 13.5608 20.7787L13.0824 20.7812C13.0808 20.7813 13.0792 20.7809 13.0777 20.7801C13.0762 20.7794 13.075 20.7783 13.074 20.7769C13.0731 20.7755 13.0725 20.774 13.0723 20.7723C13.0721 20.7707 13.0724 20.769 13.073 20.7675Z" fill="#295DA4"/>
<path d="M29.5717 20.7615L29.9644 19.7692C29.966 19.7655 29.9687 19.7624 29.9722 19.7604C29.9757 19.7584 29.9798 19.7577 29.9838 19.7583C29.9878 19.7588 29.9914 19.7608 29.9942 19.7637C29.997 19.7666 29.9987 19.7704 29.9991 19.7744L30.0795 20.7646C30.0797 20.7671 30.0794 20.7695 30.0786 20.7719C30.0778 20.7742 30.0765 20.7764 30.0749 20.7782C30.0732 20.78 30.0712 20.7815 30.0689 20.7825C30.0667 20.7835 30.0642 20.784 30.0618 20.7841L29.5886 20.7864C29.5856 20.7864 29.5826 20.7857 29.58 20.7843C29.5774 20.7829 29.5751 20.7809 29.5734 20.7785C29.5717 20.776 29.5707 20.7731 29.5704 20.7702C29.5701 20.7672 29.5705 20.7642 29.5717 20.7615Z" fill="white"/>
<circle cx="20" cy="20" r="19.5" stroke="black" stroke-opacity="0.05"/>
</svg>
