<svg width="40" height="40" viewBox="0 0 40 40" fill="none" xmlns="http://www.w3.org/2000/svg">
<circle cx="20" cy="20" r="20" fill="#05507D"/>
<g clip-path="url(#clip0_14382_20607)">
<path d="M28.6953 20.2505C28.2772 21.4259 27.2834 22.149 26.006 22.149C24.4245 22.149 23.1788 20.9402 23.1788 19.3218C23.1788 17.7035 24.4219 16.4946 26.006 16.4946C27.3168 16.4946 28.4126 17.3197 28.763 18.4831C28.8307 18.7992 28.7287 18.8335 28.5599 18.8669C28.3471 18.9009 28.129 18.8654 27.938 18.7658C27.7572 18.6639 27.4865 18.28 27.4865 18.28C27.3344 18.0241 27.1174 17.813 26.8574 17.6681C26.5974 17.5232 26.3036 17.4497 26.006 17.455C25.0122 17.455 24.1761 18.3117 24.1761 19.3193C24.1761 20.3268 25.0122 21.1724 26.006 21.1724C26.6957 21.1724 27.2491 20.7997 27.5875 20.2454C27.7238 20.037 27.9337 19.8877 28.1753 19.8273C28.6276 19.7262 28.7287 19.8616 28.7287 19.8616C28.7287 19.8616 28.8307 19.8958 28.6953 20.2454V20.2505Z" fill="white"/>
<path d="M14.0522 17.4602C15.058 17.4602 15.883 18.3169 15.883 19.3244C15.883 20.3319 15.058 21.1775 14.0522 21.1775V22.149C15.6457 22.149 16.8794 20.9402 16.8794 19.3218C16.8794 17.7035 15.6483 16.4946 14.0522 16.4946V17.4602ZM14.0522 21.1775C13.0584 21.1775 12.2333 20.3208 12.2333 19.3244C12.2333 18.328 13.0584 17.4602 14.0522 17.4602V16.4998C12.4707 16.4998 11.225 17.6992 11.225 19.327C11.225 20.9547 12.4681 22.1542 14.0522 22.1542V21.1775Z" fill="white"/>
<path d="M32.1753 17.4602C33.1691 17.4602 33.9942 18.3169 33.9942 19.3244C33.9942 20.3319 33.1734 21.1775 32.1753 21.1775V22.149C33.7569 22.149 35.0025 20.9402 35.0025 19.3218C35.0025 17.7035 33.7594 16.4946 32.1753 16.4946V17.4602ZM32.1753 17.4602V16.4998C30.5818 16.4998 29.3481 17.6992 29.3481 19.327C29.3481 20.9547 30.5793 22.1542 32.1753 22.1542V21.1775C31.1695 21.1775 30.3445 20.3208 30.3445 19.3244C30.3445 18.328 31.1695 17.4602 32.1753 17.4602Z" fill="white"/>
<path d="M21.2838 19.8325C21.6334 19.8668 21.7019 20.0133 21.5999 20.2849C21.3969 20.8049 20.673 21.211 20.0184 21.211C19.2611 21.211 18.8773 20.8383 18.5714 20.5256C18.2896 20.2206 17.7361 20.1829 17.5665 20.2541C17.3968 20.3252 17.4645 20.5967 17.5322 20.7398C18.018 21.6325 19.0126 22.1526 19.9842 22.1526C21.0122 22.186 21.9049 21.6668 22.4584 20.8084C22.9784 19.9516 22.7634 18.8756 21.5323 18.8756L18.7753 18.8422C18.3572 18.8422 18.323 18.6049 18.4249 18.3221C18.7076 17.8141 19.3288 17.4294 20.0861 17.4294C20.8092 17.4294 21.1819 17.8818 21.4303 18.1148C21.7019 18.3521 22.2211 18.4198 22.4584 18.3179C22.5937 18.2502 22.5603 18.0805 22.4584 17.8775C22.0069 17.0071 21.0122 16.499 20.0184 16.499C19.148 16.499 18.1876 16.8717 17.5999 17.7644C17.1253 18.5355 17.1595 19.7983 18.8773 19.7983L21.2838 19.8325Z" fill="white"/>
<path d="M7.82702 22.149C9.40854 22.149 10.6542 20.9402 10.6542 19.3218C10.6542 17.7035 9.41111 16.4946 7.82702 16.4946V17.455C8.31533 17.4613 8.78116 17.6612 9.12219 18.0108C9.46322 18.3603 9.65157 18.8309 9.64585 19.3193C9.64585 20.3139 8.82082 21.1724 7.82702 21.1724V22.149ZM7.82702 16.4998C6.23351 16.4998 4.99982 17.6992 4.99982 19.327V23.0666C4.99982 23.0666 4.96555 23.5523 5.17117 23.8916C5.34251 24.1289 5.58925 24.3097 5.82571 24.3431C5.99705 24.3097 6.02961 24.0946 6.02961 24.0946V21.527C6.544 21.9277 7.17673 22.1464 7.82873 22.149V21.1775C6.82294 21.1775 5.99791 20.3208 5.99791 19.3244C5.99542 19.0817 6.04084 18.8409 6.13155 18.6158C6.22227 18.3906 6.3565 18.1856 6.52657 18.0125C6.69663 17.8393 6.89919 17.7014 7.12263 17.6066C7.34608 17.5118 7.58603 17.4621 7.82873 17.4602V16.4998H7.82702Z" fill="white"/>
</g>
<circle cx="20" cy="20" r="19.5" stroke="black" stroke-opacity="0.05"/>
<defs>
<clipPath id="clip0_14382_20607">
<rect width="30" height="7.84076" fill="white" transform="translate(5 16.5)"/>
</clipPath>
</defs>
</svg>
