<svg width="40" height="40" viewBox="0 0 40 40" fill="none" xmlns="http://www.w3.org/2000/svg">
<circle cx="20" cy="20" r="20" fill="#86BA43"/>
<path d="M34.2267 18.8279L34.1694 19.159L34.1113 19.5169C34.1062 19.5472 34.0882 19.5624 34.0574 19.5624C33.6901 19.5607 33.3437 19.5773 33.018 19.6121C32.8686 19.6284 32.728 19.6688 32.596 19.7334C32.5438 19.7586 32.5219 19.7426 32.5303 19.6854L32.6415 18.9324C32.6926 18.8156 32.7095 18.7005 32.692 18.5871L33.2244 15.277C33.2252 15.2722 33.2247 15.2673 33.223 15.2627C33.2213 15.2582 33.2184 15.2542 33.2146 15.2512C33.2108 15.2482 33.2063 15.2463 33.2015 15.2456C33.1967 15.2449 33.1918 15.2456 33.1873 15.2475C31.3354 16.0061 29.4297 16.6193 27.47 17.087L27.2873 17.1358C24.9626 17.6698 22.6107 18.0407 20.2316 18.2485C17.3443 18.5006 14.4315 18.5699 11.4931 18.4565C9.97145 18.3981 8.62467 18.3181 7.4528 18.2165C7.42417 18.2142 7.4076 18.2274 7.40311 18.2561L7.29783 18.9172L7.21444 19.3998L7.12264 19.9827C7.11814 20.0108 7.10158 20.0245 7.07294 20.024C6.6038 20.0096 5.99906 20.0964 5.63015 20.4013C5.54817 20.4692 5.51476 20.4504 5.52992 20.3449L5.68321 19.2743C5.74217 19.1087 5.76378 18.9703 5.74806 18.8591L5.95526 17.6319C5.95975 17.6039 5.97603 17.5915 6.00411 17.5949C8.45116 17.8891 10.9036 18.0533 13.3613 18.0876C13.9941 18.1353 14.4315 18.1474 14.6735 18.1238C15.0188 18.0907 15.3723 18.0724 15.7339 18.0691C16.6997 18.0511 17.5746 18.0154 18.3584 17.9621C20.135 17.8408 21.9597 17.6187 23.8323 17.2959C23.9204 17.2959 24.0294 17.2731 24.1591 17.2276C25.3366 17.0255 26.5132 16.7689 27.689 16.4578C27.7682 16.45 27.8451 16.4278 27.9198 16.3913C30.3388 15.7573 32.6766 14.9154 34.9333 13.8653C34.9409 13.8617 34.9494 13.8602 34.9577 13.8611C34.9661 13.8619 34.9741 13.865 34.9809 13.87C34.9876 13.875 34.9929 13.8818 34.9961 13.8896C34.9993 13.8974 35.0003 13.9059 34.999 13.9142L34.2267 18.8279Z" fill="white"/>
<path d="M30.585 22.1262C30.5873 22.13 30.5905 22.1331 30.5943 22.1355C30.5981 22.1378 30.6024 22.1392 30.6068 22.1395C30.6112 22.1398 30.6155 22.1391 30.6195 22.1374C30.6235 22.1356 30.6269 22.1329 30.6296 22.1296C30.9441 21.7438 31.2616 21.346 31.5822 20.9361C31.8282 20.6227 32.0337 20.4155 32.1987 20.3145C32.7597 19.9708 33.3543 20.0087 33.9843 20.0281C34.0124 20.0287 34.0242 20.0427 34.0197 20.0702L33.4394 23.8318C33.4338 23.8677 33.413 23.8857 33.3771 23.8857L31.941 23.8848C31.9096 23.8848 31.8964 23.8694 31.9014 23.8385L32.1676 22.1253C32.1788 22.054 32.1608 22.0456 32.1137 22.1001L30.6389 23.7989C30.6347 23.8036 30.6295 23.8072 30.6237 23.8095C30.6178 23.8117 30.6116 23.8126 30.6054 23.8121C30.5993 23.8115 30.5934 23.8095 30.5882 23.8061C30.583 23.8028 30.5787 23.7983 30.5757 23.793L29.4353 21.8103C29.4123 21.7705 29.3974 21.7736 29.3906 21.8196L29.0841 23.8301C29.0784 23.8666 29.0574 23.8848 29.0209 23.8848L27.5815 23.8857C27.5466 23.8857 27.5323 23.8685 27.5385 23.8343C27.6536 23.1728 27.7533 22.5204 27.8375 21.8769C27.8864 21.5035 27.9582 21.2384 28.0531 21.0818C28.3816 20.5419 28.9476 20.4509 29.5422 20.4947C29.5737 20.497 29.5978 20.5116 29.6147 20.5385L30.585 22.1262Z" fill="white"/>
<path d="M13.5794 24.1384C12.466 24.1561 11.5066 23.8748 11.5277 22.5567C11.5445 21.5156 12.012 20.686 13.0716 20.4476C13.6757 20.3112 14.2794 20.3129 14.8824 20.4527C15.9681 20.7029 16.0953 21.6672 15.8797 22.5904C15.6017 23.7805 14.6786 24.1216 13.5794 24.1384ZM13.8372 21.0414C13.3023 21.0701 13.2316 22.3267 13.2248 22.7041C13.2198 22.9963 13.2787 23.4891 13.6847 23.4352C14.2069 23.3652 14.2718 22.1069 14.2667 21.7102C14.2634 21.4238 14.1875 21.0229 13.8372 21.0414Z" fill="white"/>
<path d="M20.6874 21.5779L20.706 22.1717C20.6369 22.5648 20.5471 22.8736 20.4365 23.0982C19.9757 24.0356 18.9061 24.183 17.9004 24.1283C17.0118 24.0803 16.3102 23.724 16.2689 22.7344C16.2386 22.0184 16.4121 21.3033 16.9773 20.8367C17.1862 20.6632 17.4675 20.5344 17.8212 20.4501C18.381 20.3171 18.9591 20.3131 19.5554 20.4383C20.2085 20.5748 20.5858 20.9547 20.6874 21.5779ZM18.885 21.2107C18.7056 20.9243 18.3687 21.0254 18.2348 21.289C18.0293 21.6958 17.9779 22.1903 17.9619 22.6409C17.9523 22.9284 17.9888 23.1361 18.0714 23.2641C18.1887 23.4461 18.3384 23.4927 18.5203 23.404C18.9793 23.1791 19.1419 21.6226 18.885 21.2107Z" fill="white"/>
<path d="M6.8469 21.8323L6.54031 23.836C6.53526 23.8686 6.51645 23.8849 6.48388 23.8849L5.04951 23.8857C5.01076 23.8857 4.99476 23.8666 5.0015 23.8284C5.11829 23.1249 5.22049 22.4471 5.30808 21.7952C5.34963 21.4841 5.41645 21.2477 5.50854 21.086C5.8126 20.5554 6.43334 20.4366 7.01703 20.4981C7.02804 20.4994 7.03862 20.5032 7.04796 20.5092C7.05729 20.5152 7.06515 20.5232 7.07094 20.5326L8.02859 22.1052C8.03321 22.1127 8.03945 22.1192 8.04688 22.124C8.0543 22.1289 8.06271 22.1321 8.07149 22.1333C8.08028 22.1345 8.08923 22.1337 8.09769 22.131C8.10615 22.1284 8.1139 22.1238 8.1204 22.1178C8.49324 21.7668 8.87029 21.4167 9.25156 21.0675C9.86135 20.5091 10.52 20.4467 11.3564 20.4947C11.3889 20.4964 11.403 20.5136 11.3985 20.5461L10.8931 23.8554C10.8903 23.8745 10.8794 23.884 10.8603 23.884L9.40569 23.8865C9.36919 23.8865 9.35375 23.8686 9.35936 23.8326L9.55477 22.5516C9.56151 22.5044 9.54719 22.4968 9.51181 22.5288L8.11787 23.7872C8.11097 23.7934 8.10274 23.7981 8.0938 23.8007C8.08487 23.8034 8.07544 23.804 8.06623 23.8026C8.05701 23.8011 8.04824 23.7976 8.04056 23.7923C8.03288 23.787 8.02649 23.7801 8.02185 23.772L6.9008 21.8222C6.87329 21.7739 6.85532 21.7772 6.8469 21.8323Z" fill="white"/>
<path d="M24.1833 22.1852C24.34 22.2627 24.4515 22.3668 24.5177 22.4977C24.6957 22.8481 24.8816 23.1982 25.0753 23.548C25.1562 23.6945 25.2656 23.7964 25.4198 23.868C25.4282 23.8719 25.4374 23.8738 25.4467 23.8735C25.456 23.8732 25.4651 23.8708 25.4733 23.8664C25.4814 23.8619 25.4885 23.8557 25.4938 23.8481C25.4991 23.8405 25.5026 23.8317 25.504 23.8225L26.006 20.536C26.0111 20.5046 26.0299 20.4889 26.0624 20.4889H27.5035C27.5355 20.4889 27.549 20.5049 27.544 20.5369L27.0319 23.8386C27.0274 23.8683 27.0103 23.8832 26.9805 23.8832C26.0108 23.8871 25.0818 23.8964 24.1934 23.911C24.0199 23.9135 23.8591 23.8032 23.7715 23.6617C23.5778 23.3495 23.3756 22.9887 23.165 22.5794C23.053 22.3621 22.8214 22.3958 22.6142 22.4042C22.6021 22.4046 22.5906 22.4092 22.5815 22.4172C22.5725 22.4252 22.5665 22.4361 22.5645 22.448L22.3354 23.8554C22.3304 23.888 22.3113 23.9042 22.2781 23.9042L20.9263 23.9051C20.9202 23.905 20.9142 23.9037 20.9087 23.9011C20.9031 23.8985 20.8982 23.8948 20.8942 23.8902C20.8902 23.8856 20.8873 23.8801 20.8855 23.8743C20.8838 23.8684 20.8834 23.8623 20.8842 23.8562L21.3862 20.5276C21.3878 20.5169 21.3932 20.5071 21.4014 20.5C21.4095 20.4929 21.42 20.489 21.4308 20.4889C22.2759 20.4878 23.1215 20.4883 23.9677 20.4906C24.3712 20.4914 24.8942 20.6405 24.9978 21.0683C25.1233 21.5855 24.666 22.0471 24.1892 22.1406C24.1426 22.1495 24.1407 22.1644 24.1833 22.1852ZM22.6546 22.0487C23.1516 22.0749 23.5567 21.7405 23.5382 21.2233C23.5309 21.0189 23.4312 20.8805 23.2392 20.8081C23.1999 20.7935 23.1535 20.7761 23.1002 20.7559C22.9138 20.6862 22.8057 20.7497 22.7759 20.9462L22.6167 22.0016C22.6122 22.0313 22.6249 22.0471 22.6546 22.0487Z" fill="white"/>
<circle cx="20" cy="20" r="19.5" stroke="black" stroke-opacity="0.05"/>
</svg>
