<svg width="40" height="40" viewBox="0 0 40 40" fill="none" xmlns="http://www.w3.org/2000/svg">
<circle cx="20" cy="20" r="20" fill="#004098"/>
<path d="M14.415 15.8H14.8519C15.6457 15.9168 16.2439 16.3078 16.6464 16.973C16.67 17.0115 16.6932 17.0115 16.7162 16.973C16.9066 16.6513 17.1688 16.378 17.4824 16.1745C17.7959 15.971 18.1523 15.8428 18.5237 15.8H18.9252C19.4536 15.8718 19.9424 16.1196 20.3125 16.5035C20.6051 16.8035 20.774 17.2026 20.7858 17.6215C20.792 18.8128 20.792 19.9761 20.7858 21.1115C20.7857 21.1184 20.7869 21.1252 20.7894 21.1316C20.7919 21.138 20.7957 21.1438 20.8004 21.1487C20.8052 21.1536 20.8109 21.1576 20.8171 21.1603C20.8234 21.1631 20.8302 21.1645 20.837 21.1646H22.0221C22.0289 21.1638 22.0357 21.1645 22.0421 21.1666C22.0486 21.1687 22.0545 21.1721 22.0595 21.1767C22.0644 21.1814 22.0683 21.187 22.0709 21.1933C22.0735 21.1996 22.0746 21.2063 22.0743 21.2131C22.1274 21.8494 22.6976 22.3814 23.292 22.523C23.8603 22.6581 24.7529 22.5855 25.2644 22.1727C25.583 21.9156 25.5252 21.4563 25.2196 21.2122C25.0177 21.0508 24.785 20.9322 24.5358 20.8637C24.029 20.7227 23.5196 20.5699 23.0078 20.4053C21.9299 20.0587 21.0513 19.2696 21.1035 18.0976C21.1724 16.5556 22.5429 15.7889 23.946 15.8205C25.4488 15.855 26.5743 16.7597 26.7905 18.2839C26.7951 18.3146 26.7811 18.3305 26.7495 18.3305H25.2457C25.2315 18.3315 25.2173 18.3273 25.2059 18.3188C25.1944 18.3102 25.1864 18.2979 25.1833 18.2839C25.1337 18.1041 25.0417 17.9388 24.9149 17.8019C24.7881 17.6651 24.6303 17.5607 24.4547 17.4976C23.878 17.2777 23.0619 17.3746 22.7554 17.9802C22.4759 18.5392 23.128 18.7796 23.5156 18.8979C24.0516 19.0612 24.5672 19.2165 25.0622 19.3637C25.5226 19.4974 25.9529 19.7189 26.3293 20.0159C26.9246 20.4817 27.178 21.4134 27.0439 22.1457C26.8575 23.137 26.0283 23.7873 25.0668 24.0333C23.7243 24.3761 22.5336 24.2112 21.4333 23.2879C21.2135 23.1065 21.0299 22.8852 20.892 22.6358C20.824 22.51 20.7895 22.5184 20.7895 22.6618V23.9764C20.7906 23.9842 20.7899 23.992 20.7874 23.9994C20.7849 24.0068 20.7808 24.0135 20.7753 24.019C20.7698 24.0245 20.763 24.0287 20.7557 24.0312C20.7483 24.0336 20.7404 24.0344 20.7327 24.0333H17.9703C17.9601 24.0333 17.9504 24.0293 17.9433 24.0221C17.9361 24.0149 17.9321 24.0052 17.9321 23.9951C17.9283 22.4615 17.9283 20.9004 17.9321 19.3115C17.9332 19.2141 17.9099 19.118 17.8641 19.032C17.5137 18.3799 16.6827 18.6976 16.6827 19.3674C16.6827 20.9451 16.6827 22.4876 16.6827 23.9951C16.6827 24.0052 16.6787 24.0149 16.6715 24.0221C16.6643 24.0293 16.6546 24.0333 16.6445 24.0333H13.9016C13.8936 24.0347 13.8852 24.034 13.8776 24.0311C13.8699 24.0283 13.8631 24.0234 13.8579 24.017C13.8528 24.0106 13.8495 24.003 13.8483 23.9948C13.8471 23.9867 13.8482 23.9784 13.8513 23.9709C13.8513 22.4914 13.8513 20.9696 13.8513 19.4056C13.8513 18.7656 13.1535 18.351 12.7054 18.9398C12.6362 19.0244 12.5972 19.1296 12.5945 19.2389C12.587 20.9737 12.587 22.5448 12.5945 23.9522C12.5957 23.9606 12.595 23.9692 12.5923 23.9773C12.5897 23.9853 12.5852 23.9927 12.5793 23.9987C12.5733 24.0048 12.566 24.0093 12.558 24.0121C12.55 24.0149 12.5414 24.0157 12.533 24.0146L9.75194 24.0202L9.73145 16.1308L12.5265 16.1047C12.5352 16.1033 12.5442 16.1039 12.5527 16.1066C12.5612 16.1093 12.5689 16.114 12.5751 16.1203C12.5814 16.1266 12.5861 16.1343 12.5888 16.1428C12.5916 16.1512 12.5922 16.1602 12.5908 16.169V16.9143C12.5908 16.9879 12.6094 16.9935 12.6485 16.9311C13.0454 16.3013 13.6342 15.9243 14.415 15.8Z" fill="white"/>
<path d="M34.9998 21.1813V21.3676C34.8731 21.6126 34.7772 21.8875 34.6514 22.1027C34.1064 23.0344 33.1262 23.8533 32.0371 24.049C30.5887 24.3092 29.3734 23.9754 28.3915 23.0474C27.021 21.7515 26.7508 19.6785 27.5856 18.0164C28.4762 16.2406 30.5744 15.4664 32.4303 16.0598C33.4439 16.3822 34.3868 17.2477 34.8526 18.2735C34.8685 18.3071 34.8573 18.3238 34.821 18.3248L34.4213 18.3331C34.4062 18.3334 34.3914 18.3296 34.3783 18.3223C34.3652 18.3149 34.3543 18.3042 34.3467 18.2912C33.7812 17.3074 32.9669 16.6468 31.8424 16.4008C31.2573 16.2696 30.647 16.3071 30.0824 16.5089C29.1682 16.8313 28.4899 17.3822 28.0477 18.1617C27.4151 19.2797 27.3685 20.572 27.9722 21.7151C28.6644 23.0269 30.1887 23.9344 31.7436 23.626C33.0902 23.3564 34.0269 22.5574 34.5536 21.2288C34.5581 21.2151 34.567 21.2032 34.579 21.1951C34.591 21.187 34.6053 21.1831 34.6197 21.1841L34.9998 21.1813Z" fill="white"/>
<path d="M9.73106 16.1308L9.75155 24.0202H5V16.1084L9.73106 16.1308Z" fill="#E60012"/>
<circle cx="20" cy="20" r="19.5" stroke="black" stroke-opacity="0.05"/>
</svg>
