<svg width="40" height="40" viewBox="0 0 40 40" fill="none" xmlns="http://www.w3.org/2000/svg">
<circle cx="20" cy="20" r="20" fill="#F6F8FA"/>
<g clip-path="url(#clip0_24000_40128)">
<path d="M21.8486 18.7724V19.65V20.7622V21.6397C21.852 21.8064 21.8486 22.6295 21.8486 22.752H27.2263V21.6397H23.0667V20.7622H26.6173V19.65H23.0667V18.7724H27.2263V17.6602H21.8486V18.7724Z" fill="#213368"/>
<path d="M32.9148 17.6636L31.4156 21.1228L30.0001 17.6636H27.835V22.752H29.0564V18.5581L30.7798 22.752H31.9343L33.7681 18.5581V22.752H34.9996V17.6636H32.9148Z" fill="#213368"/>
<path d="M14.262 17.6636H13.0439V22.752H14.262V17.6636Z" fill="#213368"/>
<path d="M21.2362 19.2384C21.2362 18.2656 20.6204 17.6636 19.3822 17.6636H15.4736V22.752H16.6817V20.7622H18.1976L19.5228 22.752H21.206L19.7002 20.7996C20.7308 20.6874 21.2362 20.1126 21.2362 19.2384ZM19.3755 19.6738H16.6817V18.7622H19.3755C19.7303 18.7622 19.9612 18.9119 19.9612 19.201C19.9612 19.5173 19.7303 19.6772 19.3755 19.6772V19.6738Z" fill="#213368"/>
<path d="M8.3726 17.1265V21.7081L7.27832 22.351V17.7693L8.3726 17.1265Z" fill="white"/>
<path d="M6 15.6875V23.1127L7.27833 22.3508V17.7691L8.37261 17.1263H8.37595L6 15.6875Z" fill="#213368"/>
<path d="M8.3726 17.1297V21.7079L7.27832 22.3507L10.8456 24.6841V15.6841L8.3726 17.1297Z" fill="url(#paint0_linear_24000_40128)"/>
</g>
<circle cx="20" cy="20" r="19.5" stroke="black" stroke-opacity="0.05"/>
<defs>
<linearGradient id="paint0_linear_24000_40128" x1="7.27832" y1="20.1841" x2="10.8456" y2="20.1841" gradientUnits="userSpaceOnUse">
<stop offset="0.15" stop-color="#1C75BC"/>
<stop offset="0.9" stop-color="#52C6D8"/>
</linearGradient>
<clipPath id="clip0_24000_40128">
<rect width="29" height="9" fill="white" transform="translate(6 15.6841)"/>
</clipPath>
</defs>
</svg>
