<svg width="40" height="40" viewBox="0 0 40 40" fill="none" xmlns="http://www.w3.org/2000/svg">
<circle cx="20" cy="20" r="20" fill="#F6F8FA"/>
<g clip-path="url(#clip0_17713_28037)">
<path d="M16.8925 18.064C18.0049 18.02 18.9824 17.635 19.7914 16.92C19.8701 16.843 19.8588 16.821 19.7465 16.832C18.0948 17.074 16.3307 16.502 15.2633 15.204C14.533 14.335 14.3307 13.125 15.0611 12.19C15.5105 11.607 16.3757 11.299 17.1173 11.453C18.3307 11.706 19.1173 12.861 18.8027 14.049C18.5218 15.083 17.5442 15.754 16.488 15.677C16.297 15.666 16.2858 15.699 16.4543 15.787C17.6566 16.414 19.2409 16.304 20.488 15.875C20.6229 15.831 20.7577 15.732 20.8139 15.6C21.6004 14.005 21.5105 12.487 20.5442 11.035C19.8364 9.957 18.8139 9.297 17.4656 9.066C14.9263 8.626 12.4543 10.397 12.1173 12.916C11.7465 15.71 13.9937 18.185 16.8925 18.064Z" fill="#4DB848"/>
<path d="M20.2525 16.986C19.5559 18.504 19.6682 19.978 20.5671 21.419C20.6795 21.595 20.7244 21.573 20.7244 21.375C20.7132 19.857 21.612 18.405 22.8255 17.514C23.466 17.041 24.2188 16.876 25.0727 17.03H25.0952C25.1177 17.03 25.1289 16.997 25.1177 16.975C25.0952 16.931 25.0615 16.898 25.0165 16.865C24.3873 16.469 23.7356 16.26 23.039 16.238C22.4435 16.227 20.5334 16.381 20.2525 16.997V16.986Z" fill="url(#paint0_linear_17713_28037)"/>
<path d="M28.8703 17.635C28.6905 17.085 28.4658 16.634 28.1737 16.26C26.4658 14.093 23.4209 13.719 21.2973 15.556C21.2074 15.633 21.2186 15.666 21.3422 15.644C22.9602 15.391 24.3647 15.798 25.5557 16.876C25.9939 17.294 26.3085 17.756 26.5107 18.251C26.8141 19.461 26.2523 20.605 25.0276 20.946C24.3534 21.133 23.7355 21.034 23.1512 20.627C22.4883 20.165 22.1175 19.285 22.286 18.504C22.331 18.317 22.286 18.295 22.1737 18.46C21.4995 19.362 21.4096 20.66 21.5669 21.738C21.6119 22.013 21.6343 22.563 21.8928 22.717C22.9714 23.366 24.2186 23.619 25.4321 23.322C26.7355 23.014 27.7242 22.31 28.3871 21.232C29.0838 20.11 29.2411 18.911 28.8591 17.635H28.8703Z" fill="url(#paint1_linear_17713_28037)"/>
<path d="M21.9712 23.245C22.4319 25.005 21.8252 27.117 20.2521 28.118C19.2521 28.756 17.8701 28.624 17.1735 27.623C16.3533 26.424 16.9488 24.95 18.2634 24.466C18.7915 24.268 19.4319 24.301 19.9263 24.554C20.7128 24.95 21.1173 25.599 21.151 26.479C21.151 26.655 21.196 26.666 21.2634 26.501C21.3308 26.336 21.387 26.16 21.4432 25.973C21.7465 24.895 21.3757 23.443 20.8701 22.453C20.6679 22.068 19.3196 21.936 18.9825 21.936C16.7128 21.936 14.7915 23.564 14.4207 25.742C13.7241 29.834 18.6005 32.606 21.8926 29.999C24.1061 28.25 24.1847 25.104 22.1623 23.157C21.9825 22.992 21.9263 23.025 21.9937 23.256L21.9712 23.245Z" fill="#234099"/>
</g>
<circle cx="20" cy="20" r="19.5" stroke="black" stroke-opacity="0.05"/>
<defs>
<linearGradient id="paint0_linear_17713_28037" x1="22.4547" y1="16.227" x2="22.4547" y2="21.529" gradientUnits="userSpaceOnUse">
<stop stop-color="#4BB24C"/>
<stop offset="1" stop-color="#234099"/>
</linearGradient>
<linearGradient id="paint1_linear_17713_28037" x1="25.1624" y1="14.379" x2="25.1624" y2="23.443" gradientUnits="userSpaceOnUse">
<stop offset="0.18" stop-color="#4BB24C"/>
<stop offset="0.56" stop-color="#234099"/>
</linearGradient>
<clipPath id="clip0_17713_28037">
<rect width="17" height="22" fill="white" transform="translate(12.0723 9)"/>
</clipPath>
</defs>
</svg>
