<svg width="40" height="40" viewBox="0 0 40 40" fill="none" xmlns="http://www.w3.org/2000/svg">
<circle cx="20" cy="20" r="20" fill="black"/>
<path d="M16.6862 19.5212C16.6904 19.5297 16.6969 19.5369 16.7049 19.542C16.7129 19.5471 16.7221 19.5499 16.7315 19.5501C16.7408 19.5503 16.7499 19.5478 16.7578 19.543C16.7656 19.5382 16.7719 19.5312 16.7759 19.5229L17.5971 17.8619C17.616 17.8239 17.6476 17.7936 17.6862 17.7763C17.7248 17.759 17.7681 17.7558 17.8087 17.7671L17.851 17.779C17.921 17.7982 17.9402 17.8399 17.9086 17.9043C17.6298 18.4698 17.3205 19.0793 16.9808 19.7328C16.7725 20.1358 16.8809 20.7504 16.8572 21.1855C16.8565 21.199 16.8532 21.2123 16.8473 21.2244C16.8414 21.2366 16.8331 21.2474 16.8229 21.2561C16.8127 21.2649 16.8009 21.2714 16.7882 21.2753C16.7754 21.2791 16.762 21.2803 16.7488 21.2787L16.6929 21.2736C16.6049 21.2645 16.5614 21.2154 16.5626 21.1263C16.566 20.5929 16.6455 20.0579 16.3729 19.5449C16.0795 18.9929 15.8119 18.4415 15.5704 17.8907C15.5658 17.8798 15.5634 17.8681 15.5635 17.8563C15.5636 17.8445 15.5661 17.8329 15.5709 17.8222C15.5756 17.8115 15.5826 17.802 15.5913 17.7943C15.5999 17.7865 15.6101 17.7807 15.6212 17.7773L15.6923 17.7553C15.786 17.7259 15.8537 17.7553 15.8955 17.8433L16.6862 19.5212Z" fill="#FEFEFE"/>
<path d="M21.8142 19.7751H21.2808C21.2546 19.7751 21.2291 19.7663 21.2082 19.75C21.1874 19.7338 21.1724 19.711 21.1657 19.6853L21.1454 19.6108C21.1415 19.5969 21.1409 19.5822 21.1435 19.568C21.1462 19.5537 21.1521 19.5403 21.1607 19.5287C21.1694 19.5171 21.1806 19.5076 21.1935 19.501C21.2064 19.4944 21.2206 19.4909 21.2351 19.4906L22.1443 19.4821C22.2233 19.481 22.2628 19.52 22.2628 19.599V20.9128C22.2629 20.9454 22.2539 20.9774 22.2369 21.0052C22.2198 21.033 22.1954 21.0556 22.1663 21.0703C21.2199 21.5596 20.0313 21.3446 19.6842 20.2085C19.5521 19.7818 19.5505 19.2637 19.713 18.8506C20.1069 17.8494 20.9202 17.5232 22.1528 17.872C22.1584 17.8731 22.1624 17.8765 22.1646 17.8821C22.2075 17.9916 22.212 18.1028 22.1782 18.2157C22.177 18.2189 22.1752 18.2219 22.1729 18.2244C22.1706 18.227 22.1679 18.229 22.1649 18.2304C22.1619 18.2319 22.1587 18.2326 22.1554 18.2327C22.1522 18.2328 22.149 18.2322 22.146 18.2309C21.1719 17.8178 20.4805 18.0103 20.0719 18.8083C19.9839 18.9821 19.9337 19.187 19.9212 19.4229C19.8654 20.5759 20.5579 21.2328 21.7651 20.9382C21.8847 20.9089 21.9445 20.8333 21.9445 20.7113L21.9428 19.9054C21.9428 19.8196 21.8999 19.7762 21.8142 19.7751Z" fill="#FEFEFE"/>
<path d="M4.33315 20.0172L4.32976 21.1956C4.32988 21.2137 4.32324 21.2313 4.31108 21.245C4.29893 21.2587 4.28209 21.2676 4.26373 21.2701L4.19092 21.2786C4.08708 21.2921 4.03516 21.2464 4.03516 21.1414V17.8788C4.03516 17.8201 4.0645 17.789 4.1232 17.7857C4.9596 17.7484 6.02288 17.6807 5.97039 18.8811C5.9512 19.3033 5.74747 19.6075 5.35918 19.7937C5.0578 19.9376 4.77505 19.9021 4.45336 19.8987C4.37322 19.8975 4.33315 19.937 4.33315 20.0172ZM4.33145 18.1294V19.5414C4.33145 19.5571 4.3377 19.5722 4.34881 19.5833C4.35992 19.5944 4.37499 19.6007 4.39071 19.6007H4.89695C5.09902 19.6007 5.29282 19.5254 5.4357 19.3914C5.57859 19.2574 5.65886 19.0757 5.65886 18.8862V18.7846C5.65886 18.5951 5.57859 18.4134 5.4357 18.2794C5.29282 18.1454 5.09902 18.0701 4.89695 18.0701H4.39071C4.37499 18.0701 4.35992 18.0763 4.34881 18.0875C4.3377 18.0986 4.33145 18.1136 4.33145 18.1294Z" fill="#FEFEFE"/>
<path d="M8.32893 20.967L9.56491 20.9636C9.57933 20.9636 9.59326 20.969 9.60392 20.9787C9.61458 20.9884 9.6212 21.0018 9.62247 21.0161L9.63771 21.1922C9.63842 21.2002 9.63745 21.2082 9.63488 21.2158C9.6323 21.2234 9.62817 21.2304 9.62276 21.2362C9.61734 21.2421 9.61075 21.2468 9.60341 21.25C9.59608 21.2533 9.58815 21.2549 9.58014 21.2549L8.02925 21.2566C8.02169 21.2566 8.0142 21.2551 8.00722 21.2522C8.00023 21.2493 7.99389 21.245 7.98854 21.2397C7.9832 21.2343 7.97895 21.228 7.97606 21.221C7.97317 21.214 7.97168 21.2065 7.97168 21.199L7.97337 17.828C7.97332 17.8198 7.975 17.8117 7.9783 17.8043C7.98161 17.7968 7.98647 17.7901 7.99255 17.7847C7.99864 17.7792 8.00581 17.7752 8.0136 17.7727C8.02138 17.7702 8.0296 17.7695 8.03771 17.7704L8.22226 17.7924C8.23604 17.7941 8.24877 17.8006 8.2581 17.8109C8.26743 17.8211 8.27274 17.8344 8.27306 17.8483L8.27136 20.9095C8.27136 20.9247 8.27743 20.9394 8.28822 20.9502C8.29902 20.961 8.31366 20.967 8.32893 20.967Z" fill="#FEFEFE"/>
<path d="M11.8488 20.3372L11.5694 21.0906C11.5355 21.1798 11.4735 21.2379 11.3832 21.265C11.3504 21.2752 11.3166 21.2791 11.2816 21.2769C11.1992 21.2724 11.1726 21.2317 11.202 21.155L12.3973 17.9025C12.4177 17.8483 12.4555 17.8122 12.5108 17.7941C12.5582 17.7794 12.6084 17.7727 12.6615 17.7738C12.7213 17.7761 12.7614 17.8054 12.7817 17.8618L13.9838 21.1313C14.0154 21.2159 13.986 21.2588 13.8957 21.2599H13.8246C13.7821 21.2604 13.7404 21.2477 13.7053 21.2235C13.6701 21.1992 13.6432 21.1647 13.6282 21.1245L13.3421 20.3287C13.3218 20.2734 13.2817 20.2458 13.2219 20.2458H11.9791C11.9148 20.2469 11.8713 20.2774 11.8488 20.3372ZM12.0079 19.853C12.005 19.8616 12.0041 19.8708 12.0054 19.8799C12.0067 19.8889 12.0102 19.8975 12.0155 19.9049C12.0208 19.9124 12.0278 19.9185 12.0359 19.9227C12.044 19.9269 12.053 19.9291 12.0621 19.9291L13.1135 19.9325C13.1229 19.9326 13.1321 19.9304 13.1404 19.9261C13.1486 19.9218 13.1558 19.9155 13.1611 19.9078C13.1664 19.9002 13.1698 19.8913 13.171 19.8821C13.1721 19.8728 13.171 19.8634 13.1677 19.8546L12.6445 18.3495C12.6405 18.3383 12.6332 18.3287 12.6235 18.3218C12.6138 18.315 12.6022 18.3113 12.5903 18.3113C12.5785 18.3113 12.5669 18.315 12.5572 18.3218C12.5475 18.3287 12.5402 18.3383 12.5362 18.3495L12.0079 19.853Z" fill="#FEFEFE"/>
<path d="M25.6403 19.7108C25.9936 20.1577 26.2769 20.66 26.4902 21.2176C26.4919 21.2214 26.4926 21.2255 26.4923 21.2296C26.492 21.2337 26.4907 21.2377 26.4886 21.2412C26.4864 21.2447 26.4834 21.2476 26.4799 21.2497C26.4763 21.2518 26.4723 21.253 26.4682 21.2532L26.2227 21.2566C26.2033 21.2571 26.1842 21.2517 26.1678 21.2411C26.1515 21.2305 26.1388 21.2153 26.1313 21.1973C25.9326 20.7469 25.7306 20.3575 25.5252 20.0291C25.3671 19.7751 25.1126 19.6814 24.7616 19.748C24.7017 19.7593 24.6718 19.796 24.6718 19.8581L24.6701 21.1618C24.6701 21.1927 24.6578 21.2225 24.6359 21.2444C24.614 21.2663 24.5843 21.2786 24.5533 21.2786H24.489C24.3987 21.2786 24.3535 21.2334 24.3535 21.1431V17.8754C24.3535 17.863 24.356 17.8508 24.3609 17.8394C24.3658 17.828 24.3729 17.8176 24.3819 17.809C24.3909 17.8003 24.4015 17.7935 24.4132 17.7889C24.4249 17.7843 24.4374 17.7821 24.45 17.7823C24.8411 17.7908 25.3474 17.7264 25.7283 17.8585C26.5156 18.1328 26.4784 19.3738 25.6792 19.5922C25.607 19.6126 25.594 19.6521 25.6403 19.7108ZM24.6718 18.1395L24.6684 19.3755C24.6684 19.3939 24.6757 19.4116 24.6888 19.4246C24.7018 19.4376 24.7194 19.4449 24.7379 19.4449L25.2847 19.4466C25.3728 19.4469 25.46 19.4305 25.5414 19.3984C25.6229 19.3664 25.6969 19.3193 25.7593 19.2599C25.8218 19.2005 25.8713 19.1298 25.9052 19.0521C25.9391 18.9743 25.9567 18.8909 25.9569 18.8066V18.7152C25.9573 18.545 25.8871 18.3816 25.7617 18.261C25.6363 18.1403 25.4659 18.0723 25.2881 18.0718L24.7412 18.0701C24.7321 18.0701 24.7231 18.0719 24.7147 18.0754C24.7063 18.0789 24.6986 18.084 24.6922 18.0905C24.6857 18.0969 24.6806 18.1046 24.6771 18.113C24.6736 18.1214 24.6718 18.1304 24.6718 18.1395Z" fill="#FEFEFE"/>
<path d="M30.1284 20.2474L28.9145 20.2457C28.8242 20.2457 28.7643 20.2886 28.735 20.3744L28.4963 21.0753C28.4624 21.1747 28.3885 21.243 28.2745 21.2802C28.2598 21.2847 28.2446 21.287 28.2288 21.287C28.1215 21.2892 28.0865 21.2407 28.1238 21.1414L29.3039 17.9143C29.3124 17.8907 29.3255 17.8691 29.3424 17.8508C29.3592 17.8325 29.3795 17.8178 29.4021 17.8076C29.4732 17.7749 29.5449 17.7692 29.6171 17.7907C29.6611 17.8042 29.691 17.8325 29.7068 17.8753L30.9124 21.1803C30.9153 21.1884 30.9163 21.197 30.9153 21.2055C30.9142 21.214 30.9112 21.2222 30.9064 21.2293C30.9016 21.2364 30.8952 21.2422 30.8877 21.2464C30.8802 21.2505 30.8718 21.2528 30.8632 21.2531L30.7007 21.2582C30.6262 21.2593 30.5765 21.2249 30.5517 21.1549L30.2707 20.3473C30.247 20.2807 30.1995 20.2474 30.1284 20.2474ZM29.4597 18.3071L28.9348 19.8241C28.9088 19.8975 28.9348 19.9342 29.0127 19.9342L29.9998 19.9291C30.0754 19.9291 30.1008 19.893 30.0759 19.8207L29.5443 18.3071C29.5161 18.2269 29.4879 18.2269 29.4597 18.3071Z" fill="#FEFEFE"/>
<path d="M33.0735 18.5561V21.1703C33.0735 21.2267 33.0453 21.2555 32.9888 21.2566L32.889 21.2583C32.8224 21.2594 32.7891 21.2261 32.7891 21.1584L32.7908 17.9059C32.7908 17.8405 32.8224 17.8004 32.8856 17.7857C33.0176 17.7536 33.1531 17.784 33.2107 17.9195C33.608 18.8473 34.003 19.7554 34.3958 20.6437C34.3983 20.6495 34.4024 20.6545 34.4077 20.658C34.413 20.6615 34.4191 20.6634 34.4255 20.6634C34.4318 20.6634 34.438 20.6615 34.4432 20.658C34.4485 20.6545 34.4526 20.6495 34.4551 20.6437C34.8253 19.7655 35.2255 18.8507 35.6555 17.8992C35.7244 17.7479 35.8265 17.7107 35.962 17.7874C36.0105 17.8156 36.0348 17.8574 36.0348 17.9127V21.1415C36.0348 21.1792 36.0196 21.2154 35.9926 21.2421C35.9656 21.2687 35.929 21.2837 35.8909 21.2837L35.8282 21.2854C35.8049 21.2854 35.7825 21.2761 35.766 21.2596C35.7494 21.2431 35.7402 21.2207 35.7402 21.1974L35.7385 18.5459C35.7385 18.4432 35.7182 18.4387 35.6775 18.5324L34.5194 21.1821C34.5112 21.2018 34.4973 21.2186 34.4795 21.2304C34.4617 21.2422 34.4409 21.2485 34.4195 21.2485C34.3982 21.2485 34.3773 21.2422 34.3596 21.2304C34.3418 21.2186 34.3279 21.2018 34.3196 21.1821L33.1514 18.5409C33.0995 18.4235 33.0735 18.4285 33.0735 18.5561Z" fill="#FEFEFE"/>
<path d="M4.33105 18.1294C4.33105 18.1137 4.3373 18.0987 4.34841 18.0875C4.35952 18.0764 4.3746 18.0702 4.39031 18.0702H4.89656C5.09863 18.0702 5.29242 18.1455 5.4353 18.2795C5.57819 18.4135 5.65846 18.5952 5.65846 18.7847V18.8863C5.65846 19.0758 5.57819 19.2575 5.4353 19.3915C5.29242 19.5255 5.09863 19.6008 4.89656 19.6008H4.39031C4.3746 19.6008 4.35952 19.5945 4.34841 19.5834C4.3373 19.5723 4.33105 19.5572 4.33105 19.5415V18.1294Z" fill="black"/>
<path d="M24.6733 18.1396C24.6733 18.1305 24.6751 18.1215 24.6786 18.113C24.6821 18.1046 24.6872 18.097 24.6936 18.0905C24.7001 18.0841 24.7077 18.079 24.7162 18.0755C24.7246 18.072 24.7336 18.0702 24.7427 18.0702L25.2896 18.0719C25.4674 18.0723 25.6378 18.1404 25.7632 18.261C25.8886 18.3817 25.9588 18.5451 25.9584 18.7153V18.8067C25.9582 18.891 25.9406 18.9744 25.9067 19.0521C25.8728 19.1299 25.8232 19.2005 25.7608 19.26C25.6984 19.3194 25.6244 19.3665 25.5429 19.3985C25.4615 19.4305 25.3743 19.4469 25.2862 19.4467L24.7393 19.445C24.7209 19.445 24.7033 19.4377 24.6903 19.4247C24.6772 19.4117 24.6699 19.394 24.6699 19.3756L24.6733 18.1396Z" fill="black"/>
<path d="M28.9345 19.8242L29.4594 18.3072C29.4876 18.227 29.5158 18.227 29.5441 18.3072L30.0757 19.8208C30.1005 19.8931 30.0751 19.9292 29.9995 19.9292L29.0124 19.9343C28.9345 19.9343 28.9086 19.8976 28.9345 19.8242Z" fill="black"/>
<path d="M12.008 19.853L12.5362 18.3495C12.5402 18.3384 12.5476 18.3287 12.5573 18.3219C12.567 18.3151 12.5786 18.3114 12.5904 18.3114C12.6023 18.3114 12.6138 18.3151 12.6235 18.3219C12.6332 18.3287 12.6406 18.3384 12.6446 18.3495L13.1678 19.8547C13.1711 19.8634 13.1722 19.8728 13.171 19.8821C13.1699 19.8914 13.1665 19.9002 13.1612 19.9079C13.1558 19.9156 13.1487 19.9218 13.1404 19.9261C13.1321 19.9304 13.1229 19.9326 13.1136 19.9326L12.0622 19.9292C12.053 19.9292 12.044 19.9269 12.0359 19.9227C12.0278 19.9185 12.0208 19.9124 12.0155 19.905C12.0102 19.8975 12.0068 19.889 12.0055 19.8799C12.0042 19.8709 12.005 19.8616 12.008 19.853Z" fill="black"/>
<circle cx="20" cy="20" r="19.5" stroke="black" stroke-opacity="0.05"/>
</svg>
