<svg width="40" height="40" viewBox="0 0 40 40" fill="none" xmlns="http://www.w3.org/2000/svg">
<circle cx="20" cy="20" r="20" fill="black"/>
<g clip-path="url(#clip0_19631_63554)">
<path d="M10.2371 20.1185C10.2371 20.6364 10.0835 21.1426 9.7958 21.5732C9.5081 22.0038 9.09918 22.3395 8.62075 22.5377C8.14231 22.7359 7.61585 22.7878 7.10792 22.6868C6.59999 22.5858 6.13342 22.3365 5.76718 21.9703C5.40095 21.6042 5.15151 21.1377 5.0504 20.6298C4.94928 20.1219 5.00105 19.5954 5.19914 19.1169C5.39723 18.6384 5.73275 18.2294 6.16328 17.9416C6.59381 17.6538 7.10001 17.5001 7.61788 17.5C8.31241 17.5 8.97851 17.7759 9.46969 18.2669C9.96086 18.758 10.2369 19.424 10.2371 20.1185ZM8.9729 20.1185C8.9729 19.7592 8.83014 19.4145 8.57602 19.1604C8.3219 18.9063 7.97725 18.7635 7.61788 18.7635C7.2585 18.7635 6.91385 18.9063 6.65973 19.1604C6.40562 19.4145 6.26286 19.7592 6.26286 20.1185C6.2632 20.4777 6.40612 20.822 6.66019 21.0758C6.91427 21.3297 7.25873 21.4722 7.61788 21.4722C7.97725 21.4722 8.3219 21.3295 8.57602 21.0754C8.83014 20.8212 8.9729 20.4766 8.9729 20.1172V20.1185Z" fill="white"/>
<path d="M22.3464 19.3356C22.1563 19.062 21.8704 18.8699 21.5453 18.7973C21.2202 18.7246 20.8798 18.7768 20.5913 18.9434C19.5546 19.5382 19.8285 21.3318 21.0737 21.4606C21.6398 21.5188 22.0411 21.303 22.3712 20.8827C22.3753 20.8757 22.3809 20.8697 22.3877 20.8652C22.3944 20.8607 22.402 20.8577 22.4101 20.8565C22.4181 20.8553 22.4263 20.8559 22.4341 20.8583C22.4418 20.8607 22.4489 20.8648 22.4549 20.8703L23.4073 21.5527C23.4134 21.5572 23.4175 21.5639 23.4187 21.5713C23.4199 21.5788 23.4182 21.5864 23.4138 21.5926C22.2771 23.1803 20.022 23.1124 18.9886 21.4501C18.6304 20.8736 18.5389 20.0925 18.7147 19.4454C18.8582 18.8989 19.1763 18.4144 19.6205 18.0653C20.0647 17.7163 20.6108 17.522 21.1757 17.5119C22.0825 17.4979 22.812 17.8557 23.3641 18.5852C23.366 18.5876 23.3674 18.5904 23.3682 18.5933C23.369 18.5963 23.3692 18.5994 23.3688 18.6025C23.3684 18.6055 23.3673 18.6085 23.3657 18.6111C23.3641 18.6137 23.362 18.616 23.3595 18.6178L22.4137 19.3486C22.4038 19.3559 22.3915 19.3591 22.3793 19.3575C22.3671 19.3559 22.356 19.3497 22.3483 19.3401L22.3464 19.3356Z" fill="white"/>
<path d="M28.9724 20.1184C28.9728 20.4623 28.9054 20.8029 28.774 21.1207C28.6426 21.4386 28.4498 21.7273 28.2066 21.9705C27.9634 22.2137 27.6746 22.4065 27.3568 22.5379C27.039 22.6693 26.6984 22.7367 26.3545 22.7363C25.8377 22.7356 25.3326 22.5818 24.9031 22.2943C24.4737 22.0067 24.1391 21.5984 23.9416 21.1207C23.7441 20.6431 23.6926 20.1177 23.7936 19.6108C23.8946 19.1039 24.1435 18.6383 24.509 18.2729C24.8744 17.9074 25.34 17.6585 25.8469 17.5575C26.3538 17.4565 26.8792 17.508 27.3568 17.7055C27.8345 17.903 28.2428 18.2376 28.5304 18.6671C28.8179 19.0965 28.9717 19.6016 28.9724 20.1184ZM27.7089 20.1184C27.7089 19.759 27.5661 19.4144 27.312 19.1603C27.0579 18.9062 26.7132 18.7634 26.3538 18.7634C25.9945 18.7634 25.6498 18.9062 25.3957 19.1603C25.1416 19.4144 24.9988 19.759 24.9988 20.1184C24.9988 20.4778 25.1416 20.8224 25.3957 21.0766C25.6498 21.3307 25.9945 21.4734 26.3538 21.4734C26.5318 21.4734 26.7081 21.4384 26.8725 21.3702C27.037 21.3021 27.1864 21.2022 27.3122 21.0763C27.4381 20.9504 27.5379 20.801 27.6059 20.6365C27.674 20.472 27.709 20.2958 27.7089 20.1178V20.1184Z" fill="white"/>
<path d="M14.327 20.9094L15.4767 22.5919C15.4798 22.5967 15.4809 22.6025 15.4798 22.6081C15.4787 22.6137 15.4755 22.6187 15.4709 22.622C15.4672 22.6245 15.4629 22.6259 15.4584 22.6259H13.9472C13.9284 22.626 13.9099 22.6214 13.8933 22.6125C13.8768 22.6036 13.8627 22.5907 13.8524 22.5749L12.9014 21.1441C12.8952 21.1355 12.8871 21.1284 12.8776 21.1237C12.8682 21.1189 12.8577 21.1165 12.8471 21.1166H12.3046C12.2996 21.1159 12.2946 21.1163 12.2899 21.1178C12.2851 21.1193 12.2808 21.1219 12.2773 21.1254C12.2737 21.1289 12.271 21.1332 12.2694 21.1379C12.2678 21.1426 12.2673 21.1476 12.268 21.1526V22.6024C12.2685 22.6057 12.2683 22.6091 12.2673 22.6123C12.2663 22.6155 12.2645 22.6184 12.2621 22.6207C12.2598 22.6231 12.2569 22.6249 12.2537 22.6259C12.2505 22.6269 12.2471 22.6271 12.2438 22.6266H10.8979C10.8943 22.6266 10.8908 22.6259 10.8875 22.6245C10.8842 22.6231 10.8812 22.621 10.8787 22.6185C10.8762 22.6159 10.8743 22.6129 10.873 22.6096C10.8717 22.6062 10.871 22.6027 10.8711 22.5991V17.6052C10.8709 17.6008 10.8723 17.5966 10.8751 17.5932C10.8779 17.5898 10.8818 17.5876 10.8861 17.5869C11.6439 17.5869 12.4052 17.5869 13.17 17.5869C14.0792 17.5869 15.1408 17.8967 15.3029 18.9367C15.4336 19.7865 15.1558 20.5015 14.3374 20.8624C14.3172 20.8735 14.3132 20.8892 14.327 20.9094ZM12.2654 18.8354V19.995C12.2654 20.0009 12.2677 20.0065 12.2719 20.0107C12.276 20.0148 12.2817 20.0172 12.2876 20.0172H13.2681C13.6361 20.0172 13.9341 19.7557 13.9335 19.4413V19.3864C13.9335 19.0694 13.6341 18.8125 13.2654 18.8132H12.285C12.2795 18.8138 12.2745 18.8164 12.2709 18.8205C12.2673 18.8246 12.2653 18.8299 12.2654 18.8354Z" fill="white"/>
<path d="M17.7535 17.5889H16.4044C16.3892 17.5889 16.377 17.6012 16.377 17.6163V20.8584C16.377 20.8736 16.3892 20.8859 16.4044 20.8859H17.7535C17.7687 20.8859 17.781 20.8736 17.781 20.8584V17.6163C17.781 17.6012 17.7687 17.5889 17.7535 17.5889Z" fill="white"/>
<path d="M33.5835 19.7872L32.3416 21.6893C32.3357 21.6982 32.3266 21.7044 32.3162 21.7066C32.3058 21.7088 32.2949 21.7068 32.286 21.7011C32.2814 21.6979 32.2775 21.6939 32.2742 21.6893L31.0519 19.8192C31.029 19.7833 31.0173 19.7872 31.0173 19.8297V22.5835C31.0181 22.5893 31.0176 22.5953 31.0158 22.6008C31.014 22.6064 31.0109 22.6115 31.0068 22.6157C31.0026 22.6199 30.9976 22.623 30.9921 22.6249C30.9865 22.6269 30.9806 22.6274 30.9748 22.6267H29.6812C29.6761 22.6275 29.6709 22.627 29.6661 22.6254C29.6612 22.6238 29.6568 22.6211 29.6531 22.6175C29.6495 22.6139 29.6468 22.6094 29.6452 22.6045C29.6436 22.5997 29.6432 22.5945 29.6439 22.5894V17.6256C29.6432 17.6206 29.6436 17.6155 29.6452 17.6106C29.6467 17.6058 29.6494 17.6014 29.6529 17.5978C29.6565 17.5942 29.6608 17.5915 29.6656 17.5898C29.6704 17.5882 29.6755 17.5877 29.6805 17.5883H31.0643C31.0805 17.5884 31.0965 17.5926 31.1106 17.6004C31.1248 17.6083 31.1368 17.6197 31.1454 17.6334L32.3036 19.5173C32.3051 19.5197 32.3071 19.5219 32.3094 19.5236C32.3117 19.5253 32.3144 19.5265 32.3172 19.5272C32.32 19.5279 32.3229 19.528 32.3257 19.5275C32.3286 19.527 32.3313 19.526 32.3337 19.5244C32.3366 19.5226 32.339 19.5201 32.3409 19.5173L33.5064 17.6217C33.5122 17.6106 33.5211 17.6015 33.532 17.5953C33.5429 17.5892 33.5553 17.5863 33.5678 17.587H34.9725C34.9801 17.587 34.9874 17.59 34.9928 17.5954C34.9982 17.6008 35.0013 17.6082 35.0013 17.6158V22.5999C35.0013 22.6032 35.0008 22.6065 34.9996 22.6096C34.9984 22.6127 34.9965 22.6155 34.9942 22.6179C34.9919 22.6202 34.9891 22.6221 34.9861 22.6234C34.983 22.6247 34.9797 22.6254 34.9764 22.6254H33.6423C33.6382 22.626 33.634 22.6257 33.6301 22.6245C33.6261 22.6232 33.6225 22.621 33.6196 22.6181C33.6166 22.6151 33.6144 22.6115 33.6132 22.6076C33.6119 22.6036 33.6116 22.5994 33.6123 22.5953V19.7944C33.6101 19.7635 33.6005 19.7611 33.5835 19.7872Z" fill="white"/>
<path d="M17.0787 22.6351C17.4667 22.6351 17.7813 22.3205 17.7813 21.9324C17.7813 21.5443 17.4667 21.2297 17.0787 21.2297C16.6906 21.2297 16.376 21.5443 16.376 21.9324C16.376 22.3205 16.6906 22.6351 17.0787 22.6351Z" fill="white"/>
</g>
<circle cx="20" cy="20" r="19.5" stroke="black" stroke-opacity="0.05"/>
<defs>
<clipPath id="clip0_19631_63554">
<rect width="30" height="5.23836" fill="white" transform="translate(5 17.5)"/>
</clipPath>
</defs>
</svg>
