<svg width="40" height="40" viewBox="0 0 40 40" fill="none" xmlns="http://www.w3.org/2000/svg">
<circle cx="20" cy="20" r="20" fill="#E85900"/>
<g clip-path="url(#clip0_17713_28078)">
<path d="M14.1584 20.0151C14.3275 21.1872 13.7318 22.2613 12.504 22.4611C12.0102 22.5418 11.5414 22.4611 11.1014 22.2171C10.4077 21.8347 10.1022 21.0642 10.133 20.2783C10.1599 19.5539 10.4366 19.0006 10.963 18.622C11.4761 18.2512 12.2965 18.1628 12.8922 18.3857C13.6185 18.6585 14.0412 19.2023 14.1584 20.017V20.0151ZM11.209 20.0247C11.1187 20.6146 11.2243 21.3812 11.8603 21.5964C12.4521 21.7982 12.9575 21.4177 13.0939 20.8336C13.2284 20.2457 13.117 19.2715 12.3618 19.1331C11.7278 19.0159 11.3031 19.4233 11.2109 20.0247H11.209Z" fill="white"/>
<path d="M18.678 19.7787C18.9547 20.9315 18.4513 22.1421 17.2273 22.4303C16.3953 22.6263 15.473 22.3342 15.0061 21.5752C14.5354 20.8105 14.5738 19.5654 15.2271 18.8775C15.5326 18.5566 15.8996 18.3626 16.3281 18.2972C17.4367 18.1301 18.409 18.6565 18.678 19.7768V19.7787ZM16.3742 21.5791C16.9449 21.8 17.479 21.483 17.6347 20.9008C17.8191 20.211 17.6731 19.1811 16.7911 19.1139C16.2531 19.0735 15.89 19.4367 15.7881 19.9382C15.6767 20.4896 15.7536 21.337 16.3761 21.5771L16.3742 21.5791Z" fill="white"/>
<path d="M33.3521 21.6521C33.625 21.8769 33.9132 22.046 34.2187 22.1594C34.2418 22.169 34.2552 22.194 34.2456 22.219C34.2418 22.2266 34.236 22.2343 34.2302 22.2401C33.8075 22.5552 33.1293 22.511 32.7142 22.2305C32.6969 22.219 32.6796 22.219 32.6623 22.2305C32.3588 22.4149 31.9975 22.4995 31.5825 22.486C30.6198 22.4514 29.784 21.7982 29.8321 20.7702C29.859 20.1841 30.1606 19.7806 30.739 19.5558C30.7755 19.5405 30.8005 19.5059 30.7985 19.4655C30.7832 19.0716 30.9196 18.7642 31.2078 18.5432C31.6651 18.1916 32.5105 18.1493 32.9275 18.5913C33.1043 18.7776 33.1619 19.0082 33.1024 19.2811C33.0755 19.4021 33.0082 19.4924 32.8987 19.5501L32.843 19.5808C32.7315 19.6404 32.6873 19.6077 32.7065 19.4847C32.743 19.2503 32.6931 19.0428 32.5586 18.8583C32.4106 18.6566 32.1474 18.5701 31.9168 18.6681C31.5037 18.8449 31.6132 19.3329 31.7689 19.6538C32.0782 20.2956 32.5605 20.8682 33.0601 21.387C33.0831 21.4119 33.1254 21.4139 33.1504 21.3889C33.1542 21.385 33.1581 21.3793 33.1619 21.3735C33.4367 20.8912 33.3445 20.5089 32.8852 20.2245C32.8295 20.1899 32.8333 20.1707 32.9006 20.1688L33.5174 20.1553C33.5635 20.1553 33.6058 20.188 33.6135 20.2341C33.7134 20.7702 33.6231 21.2217 33.3464 21.5926C33.3291 21.6175 33.331 21.6387 33.3541 21.6579L33.3521 21.6521ZM30.8677 19.8402C30.8485 19.796 30.8178 19.7883 30.7774 19.8171C30.3989 20.0977 30.5545 20.6453 30.739 20.9931C31.0176 21.5215 31.6824 22.2881 32.378 22.0345C32.3991 22.0268 32.4106 22.0018 32.4029 21.9807C32.401 21.9749 32.3972 21.9672 32.3914 21.9634C31.7535 21.3908 31.2443 20.6837 30.8677 19.8402Z" fill="#CACACA"/>
<path d="M36.1053 21.6425C36.1572 21.3082 35.9612 21.0199 35.7056 20.8316C35.4155 20.6164 35.1311 20.4032 34.8564 20.1918C34.6277 20.0169 34.4471 19.7403 34.4087 19.4482C34.3049 18.6796 34.8852 18.2838 35.5884 18.2665C35.8824 18.2607 36.1783 18.2876 36.4761 18.3491C36.578 18.3703 36.6779 18.376 36.7778 18.3491C36.8009 18.3434 36.822 18.3568 36.8297 18.378C36.8297 18.3818 36.8297 18.3837 36.8297 18.3876C36.8355 18.6854 36.8335 18.9602 36.8239 19.2099C36.8201 19.306 36.8009 19.3099 36.7663 19.2195C36.626 18.8641 36.3897 18.6527 36.0611 18.5855C35.7806 18.5278 35.5654 18.5893 35.4136 18.7661C35.1234 19.1081 35.4424 19.4693 35.7172 19.6788C35.9766 19.8767 36.2379 20.0727 36.4973 20.2629C36.8028 20.4877 36.9796 20.7625 37.0257 21.0872C37.0833 21.4811 36.9258 21.8865 36.6126 22.1363C36.0496 22.5859 35.2118 22.5475 34.5547 22.315C34.4817 22.2881 34.4125 22.2516 34.3491 22.2055C34.328 22.1901 34.3184 22.1709 34.3184 22.1459C34.3184 21.898 34.3222 21.6463 34.3318 21.3927C34.3376 21.2428 34.3626 21.239 34.4106 21.3812C34.4798 21.5868 34.6066 21.7693 34.7891 21.9288C35.1484 22.242 36.0073 22.2708 36.1053 21.6406V21.6425Z" fill="#CACACA"/>
<path d="M4.12293 18.4011L6.19809 21.6137C6.20578 21.6272 6.20578 21.6426 6.19809 21.656L5.68891 22.4476C5.67738 22.4649 5.6524 22.4707 5.63511 22.4592C5.63126 22.4553 5.6255 22.4515 5.62358 22.4476L3.04115 18.4472C3.02963 18.428 3.03539 18.4049 3.05268 18.3934C3.05845 18.3896 3.06613 18.3876 3.07382 18.3876L4.08834 18.3838C4.10179 18.3838 4.11332 18.3915 4.12101 18.4011H4.12293Z" fill="white"/>
<path d="M7.52575 20.7222L9.02256 18.4011C9.02832 18.3915 9.03985 18.3857 9.0533 18.3857H10.0794C10.0986 18.3857 10.1159 18.4011 10.1159 18.4222C10.1159 18.4299 10.1139 18.4357 10.1101 18.4414L7.51999 22.4515C7.50846 22.4688 7.48732 22.4726 7.47003 22.4611C7.46619 22.4592 7.46234 22.4553 7.46042 22.4515L4.86839 18.4395C4.85686 18.4222 4.86263 18.4011 4.878 18.3896C4.88376 18.3857 4.89145 18.3838 4.89721 18.3838H8.24629C8.26551 18.3838 8.2828 18.3992 8.2828 18.4203C8.2828 18.428 8.28088 18.4337 8.27704 18.4395L7.14146 20.1957C7.13378 20.2072 7.13378 20.2226 7.14146 20.2341L7.46619 20.7222C7.47772 20.7395 7.49885 20.7433 7.51614 20.7318C7.51999 20.7299 7.52383 20.726 7.52575 20.7222ZM6.99543 18.7104C7.00504 18.6951 7.0012 18.6739 6.98583 18.6643C6.98006 18.6605 6.9743 18.6586 6.96853 18.6586H6.17882C6.1596 18.6586 6.14615 18.672 6.14615 18.6893C6.14615 18.6951 6.14615 18.7027 6.15192 18.7085L6.54581 19.3099C6.55542 19.3253 6.57656 19.3291 6.59193 19.3195C6.59577 19.3176 6.59961 19.3138 6.60154 19.3099L6.99735 18.7085L6.99543 18.7104Z" fill="white"/>
<path d="M20.9235 21.4696C20.9235 21.9711 20.6602 22.3228 20.128 22.3516C19.8379 22.3669 19.5131 22.3766 19.1557 22.3766C19.1308 22.3766 19.1173 22.3631 19.1173 22.3381V21.5695C19.1154 21.5465 19.1346 21.5254 19.1577 21.5254H19.1615C19.3575 21.5446 19.5362 21.5388 19.6995 21.5061C19.9224 21.4619 19.9013 21.1391 19.9013 20.9662C19.8993 20.1208 19.8993 19.2715 19.9013 18.4184C19.9013 18.3953 19.9128 18.3838 19.9359 18.3838H20.8716C20.9062 18.3838 20.9216 18.4011 20.9216 18.4357C20.9216 19.4502 20.9216 20.4628 20.9216 21.4696H20.9235Z" fill="white"/>
<path d="M22.7972 18.3838H21.848C21.8279 18.3838 21.8115 18.4001 21.8115 18.4203V22.3304C21.8115 22.3506 21.8279 22.3669 21.848 22.3669H22.7972C22.8174 22.3669 22.8337 22.3506 22.8337 22.3304V18.4203C22.8337 18.4001 22.8174 18.3838 22.7972 18.3838Z" fill="white"/>
<path d="M26.1425 20.6991C26.1829 20.7644 26.2021 20.7586 26.2021 20.6818V18.4125C26.2021 18.3972 26.2156 18.3856 26.2309 18.3837L27.0994 18.3799C27.1244 18.3799 27.1455 18.401 27.1455 18.426V22.2977C27.1455 22.3477 27.1206 22.3707 27.0725 22.3707L26.2098 22.3611C26.1771 22.3611 26.1464 22.3438 26.1272 22.315C25.6776 21.6021 25.2299 20.8912 24.7822 20.1822C24.7553 20.1399 24.7264 20.0996 24.6957 20.0631C24.665 20.0246 24.6496 20.0304 24.6496 20.0804L24.6534 22.3381C24.6534 22.3554 24.64 22.3688 24.6227 22.3688H23.76C23.733 22.3688 23.7119 22.3457 23.7119 22.3208V18.4087C23.7119 18.3953 23.7215 18.3856 23.735 18.3856H24.6361C24.6899 18.3837 24.7418 18.4125 24.7706 18.4587L26.1406 20.6991H26.1425Z" fill="white"/>
<path d="M29.5092 18.4587C29.4266 18.5816 29.3939 18.7296 29.3939 18.8775C29.3939 19.7979 29.392 20.7721 29.3939 21.802C29.3939 21.9941 29.4458 22.169 29.5476 22.3246C29.5553 22.3381 29.5515 22.3534 29.5399 22.363C29.5361 22.3669 29.5303 22.3669 29.5246 22.3669L28.3851 22.3727C28.3659 22.3727 28.3486 22.3573 28.3486 22.3361C28.3486 22.3304 28.3486 22.3246 28.3525 22.3189C28.4409 22.1632 28.487 21.9903 28.487 21.8001C28.487 20.7183 28.487 19.7364 28.487 18.8564C28.487 18.7008 28.4485 18.5586 28.3736 18.4356C28.364 18.4202 28.3698 18.401 28.3851 18.3914C28.3909 18.3876 28.3967 18.3876 28.4024 18.3876H29.4708C29.4977 18.3857 29.5188 18.4068 29.5188 18.4318C29.5188 18.4414 29.5169 18.4491 29.5111 18.4567L29.5092 18.4587Z" fill="#CACACA"/>
</g>
<circle cx="20" cy="20" r="19.5" stroke="black" stroke-opacity="0.05"/>
<defs>
<clipPath id="clip0_17713_28078">
<rect width="34" height="4.22718" fill="white" transform="translate(3.03516 18.2627)"/>
</clipPath>
</defs>
</svg>
