<svg width="40" height="40" viewBox="0 0 40 40" fill="none" xmlns="http://www.w3.org/2000/svg">
<circle cx="20" cy="20" r="20" fill="#F6F8FA"/>
<path d="M9.34762 16.9403C9.33302 16.9311 9.32036 16.9325 9.30966 16.9447C9.30642 16.9484 9.30401 16.9528 9.30258 16.9575C9.30115 16.9622 9.30073 16.9672 9.30135 16.9721C9.30197 16.977 9.30362 16.9817 9.30618 16.9859C9.30874 16.9901 9.31217 16.9937 9.31623 16.9965C9.93822 17.4316 9.99224 18.2464 9.4323 18.772C9.20453 18.9404 8.9478 19.0338 8.66211 19.0523L8.55918 19.0465C8.5183 19.0441 8.51148 19.0268 8.53874 18.9947C8.54409 18.9878 8.54725 18.9796 8.54823 18.9698C8.55066 18.9421 8.53971 18.9212 8.51538 18.9071L8.4504 18.8684C8.42947 18.8557 8.41147 18.8399 8.39638 18.8209C8.26984 18.6603 8.15303 18.4951 8.04596 18.3252C8.03915 18.315 8.03769 18.3045 8.04158 18.2938C8.04791 18.2763 8.04304 18.2629 8.02698 18.2537C7.95106 18.2104 7.89801 18.1422 7.86783 18.0493C7.8435 17.9753 7.80797 17.9042 7.76125 17.8361C7.54515 17.5202 7.37213 17.1864 7.24219 16.8345C7.85907 16.6403 8.38543 16.6454 8.96946 16.8359C9.096 16.8773 9.22205 16.9121 9.34762 16.9403Z" fill="#72BF45"/>
<path d="M7.24146 16.8345C7.3714 17.1864 7.54442 17.5202 7.76051 17.8361C7.80724 17.9042 7.84276 17.9753 7.8671 18.0493C7.89727 18.1422 7.95032 18.2104 8.02625 18.2537C8.04231 18.2629 8.04718 18.2763 8.04085 18.2938C8.03695 18.3045 8.03842 18.315 8.04523 18.3252C8.1523 18.4951 8.26911 18.6603 8.39565 18.8209C8.41073 18.8399 8.42874 18.8557 8.44967 18.8684L8.51464 18.9071C8.53898 18.9212 8.54993 18.9421 8.5475 18.9698C8.54652 18.9796 8.54336 18.9878 8.53801 18.9947C8.51075 19.0268 8.51756 19.0441 8.55845 19.0465L8.66138 19.0523C8.54896 19.0567 8.43069 19.075 8.31972 19.0567C7.87051 18.9827 7.43224 18.9749 7.00492 19.0334C6.96745 19.0387 6.94336 19.0613 6.93265 19.1012C6.92146 19.091 6.90564 19.083 6.8852 19.0772C6.89639 19.0591 6.90393 19.0397 6.90783 19.0187C6.9127 18.9959 6.9071 18.9759 6.89104 18.9589C6.88471 18.9521 6.87717 18.947 6.86841 18.9436C6.85137 18.9367 6.83847 18.9253 6.82971 18.9092C6.70074 18.6708 6.57006 18.4345 6.43768 18.2004C6.43184 18.1897 6.42673 18.1899 6.42235 18.2011C6.41992 18.2069 6.41578 18.2116 6.40994 18.215C6.40215 18.2184 6.39558 18.2169 6.39023 18.2106C6.34205 18.1512 6.29922 18.086 6.26174 18.0149C6.2598 18.0111 6.26053 18.0079 6.26393 18.0055C6.26588 18.004 6.26807 18.0028 6.2705 18.0018C6.27586 17.9994 6.27732 17.995 6.27488 17.9887C6.21064 17.8373 6.13399 17.6898 6.04492 17.5463C6.41237 17.2095 6.81122 16.9722 7.24146 16.8345Z" fill="#91C83E"/>
<path d="M9.34733 16.9403C9.57802 16.9432 9.76418 16.9729 9.90581 17.0294C10.264 17.6519 10.4154 18.2658 10.3599 18.8713L10.2307 19.4057C9.99074 19.1297 9.72452 18.9185 9.43201 18.772C9.99195 18.2464 9.93793 17.4316 9.31594 16.9965C9.31188 16.9937 9.30845 16.9901 9.30589 16.9859C9.30333 16.9817 9.30168 16.977 9.30106 16.9721C9.30044 16.9672 9.30086 16.9622 9.30229 16.9575C9.30372 16.9528 9.30613 16.9484 9.30937 16.9447C9.32007 16.9325 9.33273 16.9311 9.34733 16.9403Z" fill="#C01E2E"/>
<path d="M9.90527 17.0293C10.7633 17.3296 11.3846 17.8939 11.7691 18.7223C11.7365 18.7388 11.709 18.7588 11.6866 18.7821C11.6773 18.7919 11.6664 18.7943 11.6537 18.7894C11.643 18.7855 11.635 18.778 11.6296 18.7668C11.6263 18.7603 11.6213 18.7548 11.6151 18.7511C11.6089 18.7473 11.6018 18.7454 11.5946 18.7456C11.4895 18.7485 11.398 18.768 11.3201 18.804C11.2962 18.8152 11.2709 18.8191 11.2442 18.8157C11.1614 18.804 11.0879 18.8142 11.0237 18.8464C11.0023 18.8571 10.9794 18.8634 10.9551 18.8653L10.5448 18.8938C10.5185 18.8953 10.4968 18.9062 10.4798 18.9267C10.472 18.9359 10.4633 18.943 10.4535 18.9478C10.4316 18.9585 10.4158 18.9527 10.4061 18.9303C10.3973 18.9109 10.3817 18.8911 10.3594 18.8712C10.4148 18.2657 10.2635 17.6518 9.90527 17.0293Z" fill="#F68E1E"/>
<path d="M6.04523 17.5461C6.13429 17.6897 6.21095 17.8372 6.27519 17.9885C6.27762 17.9949 6.27616 17.9993 6.27081 18.0017C6.26838 18.0027 6.26619 18.0039 6.26424 18.0053C6.26083 18.0078 6.2601 18.0109 6.26205 18.0148C6.29953 18.0859 6.34235 18.1511 6.39054 18.2105C6.39589 18.2168 6.40246 18.2183 6.41025 18.2149C6.41609 18.2115 6.42023 18.2068 6.42266 18.201C6.42704 18.1898 6.43215 18.1896 6.43799 18.2003C6.57037 18.4344 6.70105 18.6706 6.83002 18.9091C6.83878 18.9252 6.85168 18.9366 6.86871 18.9434C6.87747 18.9468 6.88502 18.952 6.89134 18.9588C6.9074 18.9758 6.913 18.9958 6.90814 19.0186C6.90424 19.0396 6.8967 19.059 6.8855 19.077C6.3005 19.2114 5.83644 19.4893 5.49332 19.9107C5.42421 19.9954 5.27698 20.1974 5.05165 20.5167C4.86232 19.3583 5.19352 18.3682 6.04523 17.5461Z" fill="#B9D532"/>
<path d="M28.8512 20.3634C29.5666 20.086 30.8953 19.902 30.9069 21.0766C30.9128 21.6607 30.9138 22.2914 30.9099 22.9689C30.9094 22.9952 30.8967 23.0129 30.8719 23.0222C30.5346 23.1414 30.1886 23.1448 29.8338 23.0324C29.8225 23.0288 29.8126 23.0217 29.8055 23.0121C29.7985 23.0025 29.7946 22.991 29.7944 22.9791C29.7924 22.4715 29.7929 21.9605 29.7958 21.446C29.7963 21.357 29.779 21.2742 29.744 21.1978C29.6162 20.9219 29.0534 21.0737 28.8409 21.181C28.8271 21.1879 28.8155 21.1984 28.8074 21.2116C28.7992 21.2248 28.7949 21.24 28.7949 21.2555V22.9711C28.795 22.9827 28.7914 22.9941 28.7847 23.0035C28.778 23.0129 28.7686 23.02 28.7577 23.0237C28.4141 23.14 28.0703 23.1436 27.7262 23.0346C27.7124 23.0301 27.7004 23.0214 27.6919 23.0096C27.6833 22.9978 27.6787 22.9835 27.6787 22.9689V18.9208C27.6787 18.9053 27.686 18.8955 27.7006 18.8916L28.738 18.5857C28.7446 18.5838 28.7516 18.5835 28.7583 18.5847C28.7651 18.5859 28.7715 18.5887 28.777 18.5928C28.7825 18.5969 28.787 18.6022 28.7901 18.6083C28.7932 18.6145 28.7949 18.6212 28.7949 18.6281V20.3247C28.795 20.3315 28.7967 20.3382 28.7998 20.3442C28.803 20.3502 28.8075 20.3553 28.8131 20.3591C28.8186 20.3629 28.825 20.3653 28.8316 20.3661C28.8383 20.3668 28.845 20.3659 28.8512 20.3634Z" fill="#58585A"/>
<path d="M11.7693 18.7224C12.0233 19.2602 12.12 19.8296 12.0591 20.4307C12.0596 20.3806 12.0362 20.3414 11.989 20.3132C11.9696 20.3015 11.9489 20.2954 11.927 20.2949C11.8837 20.2944 11.8613 20.2708 11.8598 20.2241C11.8593 20.2149 11.8554 20.2129 11.8481 20.2183C11.8399 20.2241 11.8333 20.2239 11.8284 20.2175C11.8182 20.2044 11.8104 20.2056 11.8051 20.2212C11.7948 20.2494 11.7744 20.2716 11.7437 20.2876C11.7306 20.2939 11.7189 20.2922 11.7087 20.2825C11.6878 20.2635 11.6639 20.2582 11.6372 20.2664C11.6089 20.2752 11.5882 20.291 11.5751 20.3139C11.5634 20.3339 11.5461 20.3443 11.5233 20.3453C11.3675 20.3511 11.2072 20.3519 11.0422 20.3475C11.0354 20.3475 11.03 20.3499 11.0261 20.3548C11.0247 20.3567 11.0232 20.3589 11.0217 20.3613C11.0169 20.3696 11.0088 20.374 10.9976 20.3745C10.5372 20.4047 10.0722 20.4611 9.60254 20.5439C9.89893 20.1715 10.1082 19.7922 10.2304 19.4057L10.3596 18.8713C10.382 18.8913 10.3976 18.911 10.4063 18.9305C10.416 18.9529 10.4319 18.9587 10.4538 18.948C10.4635 18.9431 10.4723 18.9361 10.48 18.9268C10.4971 18.9064 10.5187 18.8954 10.545 18.894L10.9553 18.8655C10.9796 18.8636 11.0025 18.8572 11.0239 18.8465C11.0882 18.8144 11.1617 18.8042 11.2444 18.8159C11.2712 18.8193 11.2965 18.8154 11.3203 18.8042C11.3982 18.7682 11.4897 18.7487 11.5948 18.7458C11.602 18.7456 11.6091 18.7475 11.6153 18.7512C11.6215 18.755 11.6266 18.7604 11.6299 18.7669C11.6352 18.7781 11.6432 18.7857 11.6539 18.7896C11.6666 18.7944 11.6776 18.792 11.6868 18.7823C11.7092 18.7589 11.7367 18.739 11.7693 18.7224Z" fill="#F36C21"/>
<path d="M16.6027 20.0117C16.2924 19.8773 14.844 19.424 14.8513 20.019C14.8515 20.0338 14.8548 20.0485 14.8608 20.0621C14.8668 20.0758 14.8755 20.0882 14.8863 20.0985C14.9632 20.1711 15.0516 20.2227 15.1513 20.2533C15.5855 20.3876 15.9636 20.5317 16.2858 20.6855C17.4948 21.2608 17.2612 22.7179 15.9894 22.999C15.1883 23.1766 14.4072 23.0447 13.646 22.6033C13.6192 22.5877 13.602 22.5649 13.5942 22.5347C13.5143 22.2086 13.5117 21.8733 13.5861 21.5287C13.5876 21.5223 13.5905 21.5162 13.5948 21.5112C13.599 21.5062 13.6044 21.5022 13.6105 21.4998C13.6165 21.4973 13.6231 21.4964 13.6295 21.4971C13.636 21.4978 13.6421 21.5002 13.6475 21.5039C14.1458 21.8407 14.6688 22.0426 15.2163 22.1098C15.4682 22.1412 15.9573 22.0879 15.8354 21.701C15.8072 21.6114 15.7283 21.5448 15.5989 21.501C15.2991 21.3992 15.0034 21.3004 14.7119 21.2046C14.195 21.0352 13.7212 20.7249 13.6496 20.1438C13.5584 19.3977 14.1351 18.9239 14.8184 18.8064C15.4098 18.7047 16.0138 18.7806 16.6304 19.0342C16.6476 19.0413 16.663 19.052 16.6756 19.0656C16.6882 19.0792 16.6977 19.0954 16.7034 19.113C16.7915 19.3846 16.7934 19.6673 16.7092 19.9613C16.7061 19.972 16.7008 19.9819 16.6935 19.9904C16.6863 19.9988 16.6773 20.0057 16.6673 20.0104C16.6572 20.0152 16.6462 20.0178 16.6351 20.018C16.624 20.0182 16.6129 20.016 16.6027 20.0117Z" fill="#58585A"/>
<path d="M9.43232 18.772C9.72483 18.9185 9.99105 19.1297 10.231 19.4056C10.1088 19.7921 9.89955 20.1715 9.60315 20.5438C9.32476 20.9117 9.2099 21.3011 9.25857 21.7118C8.99965 21.8544 8.81593 21.942 8.70739 21.9747C8.59886 22.0073 8.47232 22.0445 8.32777 22.0864C8.27862 22.061 8.23311 22.0199 8.19126 21.963C8.00777 21.7123 7.84692 21.4376 7.7087 21.1388C7.55345 20.6345 7.25121 20.2707 6.80199 20.0474C6.77863 19.7183 6.82243 19.403 6.9334 19.1012C6.94411 19.0613 6.9682 19.0387 7.00567 19.0333C7.43299 18.9749 7.87126 18.9827 8.32047 19.0567C8.43144 19.0749 8.54971 19.0567 8.66213 19.0523C8.94782 19.0338 9.20455 18.9404 9.43232 18.772Z" fill="#F6F8FA"/>
<path d="M6.88562 19.0771C6.90606 19.083 6.92187 19.091 6.93307 19.1012C6.8221 19.403 6.7783 19.7184 6.80166 20.0474C6.57973 20.0045 6.38992 19.9953 6.23223 20.0196C5.91539 20.0688 5.67716 20.2299 5.51752 20.5029C5.47518 20.5749 5.43551 20.6767 5.39853 20.8081C5.36835 20.9132 5.33891 21.0188 5.31019 21.1249C5.1783 20.9434 5.09215 20.7407 5.05176 20.5168C5.2771 20.1975 5.42432 19.9955 5.49343 19.9109C5.83655 19.4894 6.30061 19.2115 6.88562 19.0771Z" fill="#01AC4E"/>
<path d="M6.80104 20.0473C7.25026 20.2707 7.55249 20.6345 7.70775 21.1387C7.63426 21.1957 7.57537 21.2808 7.53108 21.3942C7.52232 21.4171 7.50796 21.4356 7.48801 21.4497C7.40186 21.511 7.33665 21.5918 7.29236 21.6921C7.21497 21.8668 7.1315 22.0359 7.04195 22.1995C7.00642 22.2632 6.9743 22.3275 6.94559 22.3922C6.91103 22.4706 6.86358 22.5428 6.80323 22.609C6.7862 22.628 6.77598 22.6501 6.77257 22.6755C6.75724 22.8032 6.64554 22.8492 6.62437 22.9704C6.62048 22.9947 6.60734 23.0122 6.58495 23.023L6.43018 23.0996C5.77996 22.6076 5.40642 21.9493 5.30957 21.1249C5.33829 21.0188 5.36773 20.9131 5.3979 20.808C5.43489 20.6766 5.47456 20.5749 5.5169 20.5029C5.67654 20.2298 5.91477 20.0687 6.23161 20.0196C6.3893 19.9952 6.57911 20.0045 6.80104 20.0473Z" fill="#067CC1"/>
<path d="M23.1038 20.3503C23.6579 20.1349 24.3018 20.0174 24.7778 20.4211C24.8011 20.4405 24.8267 20.4444 24.8544 20.4328C25.2749 20.2532 25.7334 20.0991 26.1882 20.1707C26.6759 20.2476 26.9258 20.5408 26.938 21.0504C26.9516 21.6179 26.9528 22.2542 26.9416 22.9594C26.9411 22.994 26.9246 23.0166 26.892 23.0273C26.5493 23.1397 26.2103 23.1424 25.875 23.0354C25.8593 23.0303 25.8456 23.0203 25.8359 23.0069C25.8262 22.9935 25.821 22.9774 25.821 22.9609C25.82 22.4314 25.819 21.8997 25.8181 21.3658C25.8173 20.9131 25.2903 21.0241 25.0399 21.1635C25.0264 21.1708 25.0152 21.1815 25.0073 21.1946C24.9995 21.2077 24.9953 21.2227 24.9953 21.238V22.9675C24.9953 22.9957 24.9817 23.0144 24.9544 23.0237C24.6162 23.138 24.277 23.1432 23.9368 23.039C23.9183 23.0332 23.9022 23.0219 23.8908 23.0065C23.8794 22.9911 23.8732 22.9726 23.8733 22.9536C23.8767 22.41 23.8742 21.8736 23.8659 21.3446C23.8586 20.9029 23.2951 21.0365 23.076 21.1759C23.0658 21.1827 23.0573 21.1918 23.0514 21.2025C23.0456 21.2132 23.0425 21.2252 23.0425 21.2373V22.9675C23.0425 22.9947 23.0296 23.013 23.0038 23.0222C22.6538 23.1424 22.3054 23.1451 21.9584 23.0302C21.9461 23.0265 21.9354 23.0189 21.9278 23.0085C21.9202 22.9981 21.916 22.9855 21.916 22.9726L21.9182 20.4225C21.9182 20.3943 21.9318 20.3761 21.9591 20.3678L22.9695 20.0677C22.978 20.0652 22.9869 20.0648 22.9956 20.0663C23.0044 20.0679 23.0126 20.0715 23.0197 20.0768C23.0268 20.0821 23.0325 20.089 23.0365 20.097C23.0404 20.1049 23.0425 20.1136 23.0425 20.1225L23.041 20.3072C23.041 20.3525 23.0619 20.3668 23.1038 20.3503Z" fill="#58585A"/>
<path d="M19.944 22.8727C19.4938 23.1044 19.0135 23.1409 18.5029 22.9822C18.0284 22.8348 17.7344 22.5118 17.621 22.0135C17.4509 21.2652 17.7313 20.468 18.5183 20.238C19.0585 20.0808 19.5617 20.1317 20.028 20.3906C20.0523 20.4042 20.0781 20.4069 20.1054 20.3986L20.8551 20.1745C20.8649 20.1715 20.8753 20.1709 20.8854 20.1727C20.8955 20.1744 20.905 20.1785 20.9132 20.1846C20.9215 20.1907 20.9281 20.1987 20.9328 20.2078C20.9374 20.2169 20.9398 20.227 20.9398 20.2373C20.9422 20.758 20.9422 21.3372 20.9398 21.9748C20.9388 22.2244 21.0649 22.3208 21.318 22.2639C21.4187 22.241 21.4686 22.2814 21.4676 22.3851L21.464 22.7676C21.4636 22.811 21.4494 22.8532 21.4234 22.8881C21.3974 22.923 21.361 22.9488 21.3194 22.9618C20.888 23.0976 20.3996 23.1552 20.0207 22.8793C19.9964 22.8613 19.9708 22.8591 19.944 22.8727ZM19.8221 21.958L19.8207 21.2688C19.8207 21.1978 19.7924 21.1296 19.7422 21.0794C19.6919 21.0291 19.6238 21.0009 19.5527 21.0009L19.2454 21.0016C19.1733 21.0017 19.1019 21.016 19.0353 21.0437C18.9688 21.0714 18.9083 21.1119 18.8574 21.1629C18.8065 21.214 18.7661 21.2746 18.7386 21.3412C18.7111 21.4078 18.697 21.4793 18.6971 21.5513V21.6784C18.6972 21.7505 18.7115 21.8218 18.7392 21.8884C18.7669 21.955 18.8074 22.0154 18.8584 22.0664C18.9095 22.1173 18.9701 22.1576 19.0367 22.1851C19.1033 22.2126 19.1747 22.2267 19.2468 22.2266L19.5542 22.2259C19.6252 22.2259 19.6934 22.1977 19.7436 22.1474C19.7939 22.0972 19.8221 22.029 19.8221 21.958Z" fill="#58585A"/>
<path d="M33.2525 20.151C33.9008 20.1459 34.5592 20.3225 34.8542 20.9285C35.0323 21.295 35.0484 21.8111 34.8973 22.1936C34.7157 22.6536 34.3451 22.9324 33.7854 23.0303C32.6312 23.231 31.3945 22.8368 31.5354 21.403C31.6281 20.4642 32.4253 20.1576 33.2525 20.151ZM33.8742 21.5274C33.8749 21.3878 33.8202 21.2536 33.722 21.1544C33.6238 21.0552 33.4902 20.999 33.3506 20.9983L33.1783 20.9974C33.1092 20.997 33.0407 21.0103 32.9767 21.0364C32.9127 21.0625 32.8545 21.101 32.8053 21.1496C32.7562 21.1982 32.7171 21.256 32.6903 21.3198C32.6635 21.3835 32.6496 21.4519 32.6492 21.521L32.6483 21.6991C32.6475 21.8387 32.7023 21.9729 32.8005 22.0721C32.8987 22.1713 33.0323 22.2275 33.1719 22.2282L33.3442 22.2291C33.4133 22.2295 33.4818 22.2162 33.5458 22.1901C33.6098 22.164 33.668 22.1255 33.7172 22.0769C33.7663 22.0283 33.8054 21.9705 33.8321 21.9067C33.8589 21.843 33.8729 21.7746 33.8733 21.7055L33.8742 21.5274Z" fill="#58585A"/>
<path d="M12.0591 20.4307C11.9802 21.298 11.6023 21.9772 10.9253 22.4682C10.903 22.4614 10.884 22.4553 10.8684 22.45C10.8626 22.448 10.8594 22.4502 10.8589 22.4565C10.8584 22.4629 10.857 22.4694 10.8545 22.4763C10.8526 22.4811 10.8492 22.4845 10.8443 22.4865C10.2369 22.7425 9.75947 22.6184 9.41197 22.1142C9.37352 22.0587 9.34262 21.9942 9.31926 21.9207C9.2993 21.8565 9.27886 21.7869 9.25793 21.7119C9.20926 21.3011 9.32412 20.9118 9.60251 20.5438C10.0722 20.4611 10.5372 20.4046 10.9976 20.3745C11.0088 20.374 11.0168 20.3696 11.0217 20.3613C11.0232 20.3589 11.0246 20.3567 11.0261 20.3548C11.03 20.3499 11.0353 20.3475 11.0421 20.3475C11.2071 20.3518 11.3675 20.3511 11.5232 20.3453C11.5461 20.3443 11.5634 20.3338 11.5751 20.3139C11.5882 20.291 11.6089 20.2752 11.6371 20.2664C11.6639 20.2582 11.6877 20.2635 11.7087 20.2825C11.7189 20.2922 11.7306 20.2939 11.7437 20.2876C11.7744 20.2715 11.7948 20.2494 11.805 20.2212C11.8104 20.2056 11.8182 20.2044 11.8284 20.2175C11.8333 20.2238 11.8398 20.2241 11.8481 20.2182C11.8554 20.2129 11.8593 20.2148 11.8598 20.2241C11.8613 20.2708 11.8836 20.2944 11.927 20.2949C11.9489 20.2954 11.9695 20.3015 11.989 20.3132C12.0362 20.3414 12.0596 20.3806 12.0591 20.4307Z" fill="#EF3A24"/>
<path d="M19.8223 21.9578C19.8223 22.0289 19.794 22.097 19.7438 22.1473C19.6935 22.1975 19.6254 22.2257 19.5543 22.2257L19.247 22.2265C19.1749 22.2266 19.1035 22.2125 19.0368 22.185C18.9702 22.1575 18.9096 22.1171 18.8586 22.0662C18.8075 22.0153 18.767 21.9548 18.7393 21.8882C18.7117 21.8217 18.6974 21.7503 18.6973 21.6782V21.5512C18.6972 21.4791 18.7113 21.4077 18.7388 21.341C18.7663 21.2744 18.8066 21.2138 18.8575 21.1628C18.9085 21.1117 18.9689 21.0712 19.0355 21.0435C19.1021 21.0159 19.1734 21.0016 19.2455 21.0015L19.5529 21.0007C19.6239 21.0007 19.6921 21.029 19.7423 21.0792C19.7926 21.1295 19.8208 21.1976 19.8208 21.2687L19.8223 21.9578Z" fill="#F6F8FA"/>
<path d="M33.35 20.9983L33.1777 20.9974C32.887 20.9959 32.6501 21.2303 32.6486 21.521L32.6477 21.6991C32.6462 21.9898 32.8806 22.2267 33.1713 22.2282L33.3436 22.2291C33.6343 22.2306 33.8711 21.9962 33.8727 21.7055L33.8736 21.5274C33.8751 21.2367 33.6407 20.9998 33.35 20.9983Z" fill="#F6F8FA"/>
<path d="M7.70823 21.1387C7.84645 21.4375 8.00731 21.7122 8.19079 21.9629C8.23264 22.0198 8.27815 22.061 8.32731 22.0863C8.67091 22.4873 9.09871 22.7508 9.61071 22.8769C9.79614 22.9229 9.94288 22.966 10.148 22.9645C10.2668 22.9635 10.3867 22.974 10.5079 22.9959C9.35593 24.0296 7.64618 23.9975 6.43066 23.0996L6.58543 23.0229C6.60782 23.0122 6.62096 22.9947 6.62485 22.9703C6.64603 22.8492 6.75772 22.8032 6.77305 22.6754C6.77646 22.6501 6.78668 22.628 6.80371 22.609C6.86406 22.5428 6.91152 22.4705 6.94607 22.3921C6.97479 22.3274 7.00691 22.2632 7.04244 22.1994C7.13199 22.0359 7.21546 21.8668 7.29284 21.692C7.33713 21.5918 7.40235 21.511 7.48849 21.4497C7.50844 21.4356 7.5228 21.4171 7.53156 21.3942C7.57585 21.2808 7.63474 21.1956 7.70823 21.1387Z" fill="#009ADC"/>
<path d="M9.25795 21.7119C9.27888 21.7869 9.29932 21.8565 9.31927 21.9207C9.34263 21.9942 9.37354 22.0587 9.41199 22.1142C9.75949 22.6184 10.2369 22.7425 10.8443 22.4865C10.8492 22.4845 10.8526 22.4811 10.8545 22.4763C10.857 22.4695 10.8584 22.4629 10.8589 22.4566C10.8594 22.4502 10.8626 22.448 10.8684 22.45C10.884 22.4553 10.903 22.4614 10.9254 22.4682C10.8134 22.6722 10.6742 22.8481 10.5078 22.9961C10.3866 22.9742 10.2666 22.9637 10.1479 22.9647C9.94272 22.9661 9.79599 22.923 9.61056 22.8771C9.09856 22.751 8.67075 22.4875 8.32715 22.0864C8.4717 22.0446 8.59824 22.0073 8.70677 21.9747C8.8153 21.9421 8.99903 21.8545 9.25795 21.7119Z" fill="#0267B4"/>
<circle cx="20" cy="20" r="19.5" stroke="black" stroke-opacity="0.05"/>
</svg>
