<svg width="40" height="40" viewBox="0 0 40 40" fill="none" xmlns="http://www.w3.org/2000/svg">
<circle cx="20" cy="20" r="20" fill="#108449"/>
<g clip-path="url(#clip0_14382_18724)">
<path d="M27.228 18.5385V24.4501H29.2623V18.5385H29.1601H27.228Z" fill="white"/>
<path d="M32.461 23.1079V18.5382H32.3579H30.4259V24.4498H36V23.1079H32.461Z" fill="white"/>
<path d="M19.0157 20.8792H16.6948V22.145H19.0157V20.8792Z" fill="white"/>
<path d="M23.0736 18.313C21.1295 18.313 19.7883 19.4933 19.7883 21.4862C19.7883 24.0947 21.6783 24.66 23.0736 24.66C24.4624 24.66 26.3606 24.0947 26.3606 21.4862C26.3606 18.7789 24.4624 18.313 23.0736 18.313ZM23.0736 23.3269C22.3386 23.3269 21.981 22.7722 21.981 21.4862C21.981 20.2018 22.3386 19.6472 23.0736 19.6472C23.81 19.6472 24.1668 20.2019 24.1668 21.4862C24.1668 22.7723 23.81 23.3269 23.0736 23.3269Z" fill="white"/>
<path d="M14.1492 15.9111C13.5101 15.755 12.0832 15.8814 11.0001 16.5931C9.72031 17.4354 9.44165 18.958 9.44165 18.958C11.092 16.8087 13.4878 17.4103 13.4878 17.4103C13.4878 17.4103 13.7334 17.2262 13.9654 16.716C14.1609 16.2867 14.1492 15.9111 14.1492 15.9111Z" fill="#FAB20B"/>
<path d="M10.7122 14.0598C10.1135 14.3324 9.06993 15.3138 8.65911 16.5422C8.1729 17.9956 8.89501 19.3648 8.89501 19.3648C8.86346 16.6551 11.1191 15.6475 11.1191 15.6475C11.1191 15.6475 11.1986 15.3505 11.0656 14.8062C10.954 14.3483 10.7122 14.0598 10.7122 14.0598Z" fill="#FAB20B"/>
<path d="M6.86551 14.7292C6.56343 15.3136 6.35057 16.7304 6.7866 17.9507C7.30327 19.3924 8.71812 20.0226 8.71812 20.0226C7.01745 17.9115 8.16721 15.7254 8.16721 15.7254C8.16721 15.7254 8.04548 15.4433 7.60471 15.0971C7.23383 14.8066 6.86551 14.7292 6.86551 14.7292Z" fill="#FAB20B"/>
<path d="M4.27026 17.6127C4.39129 18.2593 5.09375 19.5079 6.18783 20.2016C7.4823 21.0219 8.9847 20.6489 8.9847 20.6489C6.34623 20.0291 5.90917 17.5983 5.90917 17.5983C5.90917 17.5983 5.63967 17.4502 5.07916 17.4484C4.60754 17.4472 4.27026 17.6127 4.27026 17.6127Z" fill="#FAB20B"/>
<path d="M4 21.5195C4.49574 21.9515 5.8217 22.4955 7.11008 22.3608C8.6343 22.2021 9.5817 20.9778 9.5817 20.9778C7.1273 22.1282 5.27712 20.4918 5.27712 20.4918C5.27712 20.4918 4.97344 20.5424 4.53293 20.8894C4.16198 21.1801 4 21.5195 4 21.5195Z" fill="#FAB20B"/>
<path d="M13.3681 20.6207C12.6911 20.3905 11.9934 20.2305 12.036 19.9198C12.0721 19.6544 12.3944 19.5053 13.0619 19.5077C13.8279 19.5103 14.5865 19.7368 15.1515 19.9471L15.8784 18.6632C15.3698 18.4566 14.1384 18.0876 12.9247 18.0868C11.0229 18.0852 9.79532 18.8579 9.79532 20.0506C9.79532 21.5151 11.2838 21.9247 12.4667 22.2979C13.1941 22.5275 13.837 22.6989 13.837 23.0525C13.837 23.5333 13.0392 23.5293 12.7096 23.5084C11.7796 23.4495 10.9416 23.0671 10.3435 22.755L9.55493 24.0222C10.0195 24.3102 11.3802 24.9471 12.9247 24.948C14.8401 24.9496 16.0779 24.2702 16.0779 22.8721C16.0779 21.4336 14.5754 21.032 13.3681 20.6207Z" fill="white"/>
</g>
<circle cx="20" cy="20" r="19.5" stroke="black" stroke-opacity="0.05"/>
<defs>
<clipPath id="clip0_14382_18724">
<rect width="32" height="11" fill="white" transform="translate(4 14)"/>
</clipPath>
</defs>
</svg>
