<svg width="40" height="40" viewBox="0 0 40 40" fill="none" xmlns="http://www.w3.org/2000/svg">
<circle cx="20" cy="20" r="20" fill="#EF4F26"/>
<g clip-path="url(#clip0_18553_55576)">
<path d="M10.3067 22.5457C10.0574 22.4664 9.68904 22.2813 9.94971 21.9998C10.1386 21.7977 10.5863 21.8336 10.8413 21.809C11.6101 21.7373 12.5432 21.7392 13.1854 21.248C13.7691 20.8023 13.9032 19.9466 13.5122 19.3289C13.1929 18.8246 12.6471 18.5091 12.0785 18.3675C11.2153 18.1521 10.3162 18.1465 9.45671 17.9255L9.47371 18.6565C10.2217 18.5412 10.981 18.4959 11.7347 18.4544C12.4884 18.4128 13.2553 18.3675 14.0127 18.409C14.6757 18.4449 15.3425 18.545 15.9885 18.6924C16.5552 18.8227 17.0633 19.089 17.579 19.3516C18.0115 19.5707 18.3723 18.9077 17.936 18.6848C17.3731 18.3996 16.8064 18.1049 16.1869 17.9614C15.4955 17.8008 14.7777 17.7007 14.0694 17.6554C13.2855 17.6062 12.4997 17.6554 11.7177 17.695C10.896 17.7385 10.0763 17.8008 9.26215 17.9255C8.86737 17.9859 8.94482 18.5696 9.27915 18.6565C10.0649 18.8586 10.8923 18.8869 11.6875 19.0512C12.1597 19.1495 12.7169 19.3346 12.9342 19.8389C13.0343 20.0731 12.9814 20.3961 12.8019 20.5794C12.5469 20.84 12.0879 20.908 11.7442 20.9571C11.3664 21.01 10.9829 21.0346 10.6033 21.0705C10.2557 21.1026 9.86093 21.1177 9.56626 21.3274C9.22248 21.571 9.00148 22.0376 9.12993 22.4532C9.26971 22.9046 9.70982 23.1407 10.1292 23.2748C10.5919 23.424 10.7676 22.6893 10.3067 22.54V22.5457Z" fill="white"/>
<path d="M11.2341 14.9015C11.1151 14.6692 10.9848 14.2782 11.3663 14.2631C11.6421 14.2536 11.9349 14.5955 12.1313 14.758C12.7263 15.251 13.3856 15.9121 14.1846 16.0179C14.9137 16.1142 15.6126 15.6042 15.7731 14.8921C15.9054 14.3084 15.741 13.7021 15.4388 13.1996C14.9817 12.4384 14.3489 11.7962 13.8994 11.0331L13.395 11.5601C14.0051 12.0077 14.5756 12.5121 15.1366 13.0164C15.6976 13.5207 16.2737 14.0288 16.7799 14.5955C17.2219 15.0904 17.6243 15.6325 17.9775 16.1935C18.2873 16.6846 18.4573 17.2343 18.6367 17.7859C18.7878 18.2468 19.5113 18.0314 19.3602 17.5668C19.1637 16.9661 18.971 16.3579 18.6348 15.8195C18.2589 15.217 17.8226 14.639 17.3541 14.1063C16.8347 13.517 16.2454 12.9956 15.6617 12.4724C15.0497 11.9227 14.4264 11.3863 13.7615 10.8989C13.4403 10.6628 13.0815 11.1294 13.2571 11.4259C13.6689 12.1248 14.2356 12.7293 14.6814 13.4074C14.9458 13.8097 15.2084 14.3367 15.0044 14.8467C14.9099 15.0829 14.6436 15.2755 14.3867 15.2774C14.0221 15.2812 13.6481 15.0054 13.3723 14.7957C13.0682 14.5653 12.7792 14.3122 12.4846 14.0685C12.2145 13.8456 11.9273 13.5774 11.5685 13.517C11.1529 13.4452 10.6674 13.6208 10.4634 14.0062C10.2443 14.4236 10.3879 14.9015 10.5881 15.2944C10.811 15.727 11.4532 15.3303 11.2322 14.8996L11.2341 14.9015Z" fill="white"/>
<path d="M17.2959 10.149C17.3752 9.89966 17.5603 9.53133 17.8418 9.792C18.0439 9.98089 18.008 10.4286 18.0325 10.6836C18.1043 11.4523 18.1024 12.3855 18.5935 13.0277C19.0393 13.6113 19.895 13.7455 20.5127 13.3545C21.017 13.0352 21.3324 12.4893 21.4741 11.9208C21.6895 11.0576 21.6951 10.1584 21.9161 9.29899L21.1851 9.31599C21.3003 10.064 21.3457 10.8233 21.3872 11.577C21.4288 12.3307 21.4741 13.0976 21.4326 13.855C21.3967 14.518 21.2966 15.1848 21.1492 15.8308C21.0189 16.3975 20.7526 16.9056 20.49 17.4213C20.2709 17.8538 20.9339 18.2146 21.1568 17.7783C21.442 17.2154 21.7367 16.6487 21.8802 16.0291C22.0408 15.3378 22.1409 14.62 22.1862 13.9117C22.2353 13.1278 22.1862 12.342 22.1466 11.56C22.1031 10.7383 22.0408 9.91855 21.9161 9.10444C21.8557 8.70966 21.272 8.7871 21.1851 9.12144C20.983 9.90722 20.9547 10.7346 20.7903 11.5298C20.6921 12.002 20.507 12.5592 20.0027 12.7765C19.7684 12.8766 19.4454 12.8237 19.2622 12.6442C19.0015 12.3892 18.9335 11.9302 18.8844 11.5864C18.8315 11.2087 18.807 10.8252 18.7711 10.4456C18.739 10.098 18.7239 9.70322 18.5142 9.40855C18.2705 9.06477 17.804 8.84377 17.3884 8.97221C16.937 9.11199 16.7009 9.55211 16.5668 9.97144C16.4175 10.4342 17.1523 10.6099 17.3015 10.149H17.2959Z" fill="white"/>
<path d="M24.9402 11.0764C25.1725 10.9574 25.5635 10.8271 25.5786 11.2086C25.5881 11.4844 25.2462 11.7772 25.0837 11.9736C24.5907 12.5686 23.9296 13.2279 23.8238 14.0269C23.7275 14.756 24.2375 15.4549 24.9496 15.6154C25.5333 15.7476 26.1396 15.5833 26.6421 15.2811C27.4033 14.824 28.0455 14.1912 28.8086 13.7416L28.2816 13.2373C27.834 13.8474 27.3296 14.4179 26.8253 14.9789C26.3209 15.5399 25.8128 16.116 25.2462 16.6222C24.7513 17.0642 24.2092 17.4665 23.6482 17.8198C23.157 18.1295 22.6074 18.2995 22.0558 18.479C21.5949 18.6301 21.8103 19.3536 22.2749 19.2024C22.8756 19.006 23.4838 18.8133 24.0222 18.4771C24.6247 18.1012 25.2027 17.6649 25.7354 17.1964C26.3247 16.677 26.8461 16.0876 27.3693 15.504C27.919 14.892 28.4554 14.2686 28.9427 13.6037C29.1788 13.2826 28.7123 12.9237 28.4157 13.0994C27.7168 13.5112 27.1124 14.0779 26.4343 14.5236C26.0319 14.7881 25.5049 15.0506 24.9949 14.8466C24.7588 14.7522 24.5662 14.4859 24.5643 14.229C24.5605 13.8644 24.8363 13.4904 25.0459 13.2146C25.2764 12.9105 25.5295 12.6215 25.7732 12.3269C25.9961 12.0567 26.2643 11.7696 26.3247 11.4107C26.3965 10.9952 26.2208 10.5097 25.8355 10.3057C25.4181 10.0866 24.9402 10.2302 24.5473 10.4304C24.1147 10.6533 24.5114 11.2955 24.942 11.0745L24.9402 11.0764Z" fill="white"/>
<path d="M29.6913 17.1377C29.9406 17.217 30.309 17.4021 30.0483 17.6836C29.8594 17.8857 29.4117 17.8498 29.1567 17.8743C28.388 17.9461 27.4548 17.9442 26.8126 18.4353C26.2289 18.8811 26.0948 19.7368 26.4858 20.3545C26.8051 20.8588 27.3509 21.1742 27.9195 21.3159C28.7827 21.5312 29.6818 21.5369 30.5413 21.7579L30.5243 21.0269C29.7763 21.1421 29.017 21.1875 28.2633 21.229C27.5096 21.2706 26.7427 21.3159 25.9853 21.2744C25.3223 21.2385 24.6555 21.1384 24.0095 20.991C23.4428 20.8607 22.9347 20.5944 22.419 20.3318C21.9865 20.1127 21.6257 20.7757 22.062 20.9986C22.6249 21.2838 23.1916 21.5785 23.8112 21.722C24.5025 21.8826 25.2203 21.9827 25.9286 22.028C26.7125 22.0771 27.4983 22.028 28.2803 21.9884C29.102 21.9449 29.9217 21.8826 30.7359 21.7579C31.1306 21.6975 31.0532 21.1138 30.7189 21.0269C29.9331 20.8248 29.1057 20.7965 28.3105 20.6321C27.8383 20.5339 27.2811 20.3488 27.0638 19.8445C26.9637 19.6102 27.0166 19.2872 27.1961 19.104C27.4511 18.8433 27.9101 18.7753 28.2538 18.7262C28.6316 18.6733 29.0151 18.6488 29.3947 18.6129C29.7423 18.5808 30.1371 18.5657 30.4317 18.356C30.7755 18.1123 30.9965 17.6458 30.8681 17.2302C30.7283 16.7788 30.2882 16.5427 29.8689 16.4086C29.4061 16.2593 29.2304 16.9941 29.6913 17.1433V17.1377Z" fill="white"/>
<path d="M28.7658 24.7824C28.8848 25.0148 29.0151 25.4058 28.6336 25.4209C28.3578 25.4303 28.065 25.0884 27.8686 24.926C27.2736 24.433 26.6144 23.7719 25.8154 23.6661C25.0862 23.5698 24.3873 24.0798 24.2268 24.7919C24.0946 25.3756 24.2589 25.9819 24.5611 26.4843C25.0182 27.2456 25.651 27.8878 26.1006 28.6509L26.6049 28.1239C25.9948 27.6762 25.4244 27.1719 24.8634 26.6676C24.3023 26.1632 23.7262 25.6551 23.22 25.0884C22.778 24.5936 22.3757 24.0514 22.0224 23.4904C21.7127 22.9993 21.5427 22.4497 21.3632 21.8981C21.2121 21.4372 20.4887 21.6525 20.6398 22.1172C20.8362 22.7179 21.0289 23.3261 21.3651 23.8644C21.741 24.467 22.1773 25.045 22.6458 25.5777C23.1652 26.167 23.7546 26.6883 24.3382 27.2116C24.9502 27.7612 25.5736 28.2977 26.2385 28.785C26.5596 29.0211 26.9185 28.5546 26.7428 28.258C26.331 27.5591 25.7644 26.9547 25.3186 26.2766C25.0541 25.8742 24.7916 25.3472 24.9956 24.8372C25.09 24.6011 25.3564 24.4084 25.6132 24.4066C25.9778 24.4028 26.3518 24.6786 26.6276 24.8882C26.9317 25.1187 27.2207 25.3718 27.5154 25.6155C27.7855 25.8383 28.0726 26.1066 28.4315 26.167C28.847 26.2388 29.3325 26.0631 29.5365 25.6778C29.7556 25.2603 29.612 24.7824 29.4118 24.3896C29.1889 23.957 28.5467 24.3537 28.7677 24.7843L28.7658 24.7824Z" fill="white"/>
<path d="M22.7039 29.5326C22.6246 29.7819 22.4395 30.1503 22.158 29.8896C21.9559 29.7007 21.9918 29.253 21.9672 28.998C21.8955 28.2293 21.8974 27.2961 21.4062 26.6539C20.9605 26.0703 20.1048 25.9361 19.4871 26.3271C18.9828 26.6464 18.6673 27.1923 18.5257 27.7608C18.3103 28.624 18.3047 29.5232 18.0837 30.3826L18.8147 30.3656C18.6994 29.6176 18.6541 28.8583 18.6126 28.1046C18.571 27.3509 18.5257 26.584 18.5672 25.8266C18.6031 25.1636 18.7032 24.4968 18.8506 23.8508C18.9809 23.2841 19.2472 22.776 19.5098 22.2603C19.7289 21.8278 19.0659 21.467 18.843 21.9033C18.5578 22.4662 18.2631 23.0329 18.1196 23.6525C17.959 24.3438 17.8589 25.0616 17.8136 25.7699C17.7644 26.5538 17.8136 27.3396 17.8532 28.1216C17.8967 28.9433 17.959 29.763 18.0837 30.5772C18.1441 30.9719 18.7278 30.8945 18.8147 30.5602C19.0168 29.7744 19.0451 28.947 19.2095 28.1518C19.3077 27.6796 19.4928 27.1224 19.9971 26.9051C20.2313 26.805 20.5543 26.8579 20.7376 27.0374C20.9982 27.2924 21.0662 27.7514 21.1154 28.0952C21.1682 28.4729 21.1928 28.8564 21.2287 29.236C21.2608 29.5836 21.2759 29.9784 21.4856 30.2731C21.7292 30.6168 22.1958 30.8378 22.6114 30.7094C23.0628 30.5696 23.2989 30.1295 23.433 29.7102C23.5823 29.2474 22.8475 29.0717 22.6982 29.5326H22.7039Z" fill="white"/>
<path d="M15.0592 28.6071C14.8269 28.7261 14.4359 28.8565 14.4208 28.4749C14.4113 28.1991 14.7532 27.9063 14.9157 27.7099C15.4087 27.1149 16.0698 26.4557 16.1756 25.6567C16.2719 24.9275 15.7619 24.2287 15.0498 24.0681C14.4661 23.9359 13.8598 24.1002 13.3573 24.4024C12.5961 24.8595 11.9539 25.4923 11.1908 25.9419L11.7178 26.4462C12.1654 25.8361 12.6698 25.2657 13.1741 24.7047C13.6784 24.1437 14.1866 23.5675 14.7532 23.0613C15.2481 22.6193 15.7902 22.217 16.3512 21.8638C16.8424 21.554 17.392 21.384 17.9436 21.2045C18.4045 21.0534 18.1891 20.33 17.7245 20.4811C17.1238 20.6775 16.5156 20.8702 15.9772 21.2064C15.3747 21.5823 14.7967 22.0186 14.264 22.4871C13.6747 23.0065 13.1533 23.5959 12.6301 24.1795C12.0804 24.7915 11.544 25.4149 11.0567 26.0798C10.8205 26.4009 11.2871 26.7598 11.5837 26.5841C12.2826 26.1723 12.887 25.6057 13.5651 25.1599C13.9675 24.8954 14.4945 24.6329 15.0045 24.8369C15.2406 24.9313 15.4332 25.1977 15.4351 25.4546C15.4389 25.8191 15.1631 26.1931 14.9535 26.4689C14.723 26.773 14.4699 27.062 14.2262 27.3567C14.0033 27.6268 13.7351 27.9139 13.6747 28.2728C13.6029 28.6883 13.7786 29.1738 14.1639 29.3778C14.5813 29.5969 15.0592 29.4533 15.4521 29.2531C15.8847 29.0302 15.488 28.388 15.0573 28.609L15.0592 28.6071Z" fill="white"/>
</g>
<circle cx="20" cy="20" r="19.5" stroke="black" stroke-opacity="0.05"/>
<defs>
<clipPath id="clip0_18553_55576">
<rect width="22" height="22" fill="white" transform="translate(9 8.8418)"/>
</clipPath>
</defs>
</svg>
