<svg width="40" height="40" viewBox="0 0 40 40" fill="none" xmlns="http://www.w3.org/2000/svg">
<circle cx="20" cy="20" r="20" fill="#DA3554"/>
<g clip-path="url(#clip0_17713_28106)">
<path d="M13.2355 20.0119C13.2693 20.7863 13.2806 21.6745 13.2656 22.6651C13.2656 22.7297 13.2129 22.7828 13.149 22.7828H11.8479C11.7953 22.7828 11.7539 22.7373 11.7539 22.6841V17.1651C11.7539 17.1272 11.7802 17.1006 11.8178 17.1006L12.7579 17.093C12.8519 17.093 12.9196 17.1348 12.961 17.2183L15.6722 22.6386C15.7135 22.7221 15.8 22.779 15.894 22.779H16.8642C16.8943 22.779 16.9169 22.76 16.9169 22.7297V17.2525C16.9169 17.1803 16.8793 17.1424 16.804 17.1424L15.4729 17.131C15.4466 17.131 15.4315 17.1424 15.4315 17.1689C15.4165 18.1862 15.424 19.1351 15.4466 20.0157C15.4541 20.2093 15.409 20.2207 15.3149 20.0537C15.0668 19.5982 14.8299 19.1427 14.6118 18.691C14.4651 18.3874 14.3185 18.1065 14.1793 17.8408C13.9763 17.465 13.8071 17.0854 13.6078 16.7021C13.2919 16.0986 12.9873 15.4912 12.6865 14.8725C12.6752 14.846 12.6865 14.8156 12.709 14.8042C12.7166 14.8042 12.7241 14.8004 12.7316 14.8004H35.0041C35.0417 14.8004 35.068 14.827 35.068 14.8649V24.9502C35.068 24.9995 35.0304 25.0375 34.9815 25.0375H16.052C16.0294 25.0375 16.0069 25.0261 15.9918 25.0033C15.7399 24.5744 15.5067 24.1379 15.2924 23.6938C15.157 23.4091 15.0141 23.1396 14.8712 22.8815C14.6719 22.5285 14.514 22.1451 14.3147 21.7883C13.9763 21.1848 13.7206 20.5509 13.3784 19.9664C13.2731 19.788 13.2242 19.8032 13.2355 20.0081V20.0119ZM26.1823 18.5582L25.3626 17.1803C25.3438 17.15 25.3099 17.131 25.2723 17.131H23.4561C23.3358 17.1348 23.3132 17.1841 23.3846 17.279C23.8284 17.856 24.1818 18.4443 24.5842 19.0288C24.7647 19.2908 24.9489 19.583 25.1407 19.9057C25.1633 19.9436 25.1633 19.993 25.1407 20.0347L23.4448 22.7183C23.4448 22.7183 23.4373 22.76 23.4561 22.7714C23.4636 22.7752 23.4711 22.779 23.4786 22.779L25.1219 22.7714C25.2084 22.7714 25.2874 22.7259 25.3287 22.65C25.5318 22.278 25.7574 21.9288 26.0018 21.6023C26.077 21.5037 26.1222 21.3898 26.1861 21.2835C26.2162 21.238 26.2763 21.2266 26.3215 21.2569C26.3327 21.2645 26.344 21.2759 26.3515 21.2873L27.239 22.6841C27.2728 22.7373 27.333 22.7714 27.4007 22.7714L29.1342 22.7828C29.1342 22.7828 29.1643 22.7714 29.168 22.7562C29.168 22.7525 29.168 22.7449 29.168 22.7411L27.4044 20.0461C27.3781 20.0043 27.3819 19.9512 27.412 19.9133C27.5323 19.7652 27.6376 19.6058 27.7241 19.4388C27.9046 19.082 28.1753 18.7897 28.3671 18.4481C28.6078 18.0192 28.8935 17.6358 29.1718 17.2373C29.2207 17.1689 29.2019 17.1348 29.1192 17.1348H27.3781C27.2916 17.1348 27.2127 17.1841 27.1713 17.26C27.0359 17.5106 26.8818 17.7497 26.7125 17.9812C26.5734 18.1672 26.4756 18.376 26.344 18.5658C26.3139 18.6075 26.2575 18.6189 26.2162 18.5885C26.2049 18.581 26.1974 18.5734 26.1899 18.562L26.1823 18.5582ZM19.6243 19.3135C19.5867 19.3135 19.5529 19.2832 19.5529 19.2414V18.3912C19.5604 18.3532 19.5905 18.319 19.6281 18.319H22.7153C22.7529 18.319 22.7867 18.2849 22.7867 18.2469L22.7792 17.279C22.7792 17.2411 22.7491 17.2069 22.7078 17.2069H18.1465C18.1089 17.2069 18.075 17.2373 18.075 17.279V22.612C18.0713 22.65 18.1014 22.6841 18.1427 22.6841H22.6965C22.7341 22.6841 22.7679 22.6538 22.7679 22.612L22.7604 21.5568C22.7604 21.5188 22.7303 21.4847 22.689 21.4847H19.6318C19.5942 21.4847 19.5604 21.4543 19.5604 21.4164V20.4712C19.5604 20.4333 19.5905 20.3991 19.6318 20.3991L22.7153 20.3915C22.7529 20.3915 22.7867 20.3611 22.7867 20.3194V19.3743C22.783 19.3363 22.7491 19.3021 22.7115 19.3021H19.6318L19.6243 19.3135Z" fill="white"/>
<path d="M7.41806 20.5662C7.38422 20.794 7.38422 21.0559 7.4143 21.3519C7.41806 21.3937 7.44063 21.4165 7.48199 21.4203C7.71137 21.4392 7.93323 21.4468 8.15133 21.4468C8.95228 21.4468 9.76076 21.4468 10.5692 21.4468C10.6144 21.4468 10.652 21.4848 10.652 21.5341V22.6463C10.652 22.688 10.6144 22.726 10.573 22.726C9.01997 22.7412 7.47447 22.7639 5.94777 22.726C5.87256 22.726 5.83496 22.6842 5.83496 22.6083V17.2564C5.83496 17.2108 5.8688 17.1729 5.91769 17.1729H10.588C10.6256 17.1729 10.6557 17.1994 10.6557 17.2374V18.2926C10.6557 18.3343 10.6219 18.3723 10.5805 18.3723L7.45191 18.3837C7.42559 18.3837 7.40302 18.4065 7.40302 18.433V19.2225C7.40302 19.2567 7.43311 19.2871 7.47071 19.2871H10.573C10.6106 19.2871 10.6407 19.3174 10.6407 19.3554L10.6482 20.3726C10.6482 20.4182 10.6144 20.4562 10.5692 20.4562L7.54968 20.4637C7.47447 20.4637 7.43311 20.5017 7.42182 20.5776L7.41806 20.5662Z" fill="white"/>
</g>
<circle cx="20" cy="20" r="19.5" stroke="black" stroke-opacity="0.05"/>
<defs>
<clipPath id="clip0_17713_28106">
<rect width="30" height="11" fill="white" transform="translate(5.03516 14.4209)"/>
</clipPath>
</defs>
</svg>
