<svg width="40" height="40" viewBox="0 0 40 40" fill="none" xmlns="http://www.w3.org/2000/svg">
<circle cx="20" cy="20" r="20" fill="#F6F8FA"/>
<g clip-path="url(#clip0_17713_28016)">
<path d="M30.112 16.5116C27.4432 15.4605 24.7478 15.5713 24.0642 16.8031C23.3805 18.0348 24.3783 20.9848 26.2772 23.4257C28.1761 25.8666 30.8552 25.7866 32.3353 23.1219C33.8154 20.4572 32.7746 17.5606 30.112 16.5116Z" fill="#F2921A"/>
<path d="M16.5403 17.3574C18.9073 18.973 21.5596 19.4637 22.4937 18.4146C23.4278 17.3656 23.1096 14.2678 21.808 11.4676C20.5065 8.66745 17.8685 8.15217 15.8341 10.4206C13.7997 12.6891 14.1713 15.7438 16.5341 17.3574" fill="#1768B3"/>
<path d="M25.0262 25.8687C24.6464 23.0254 23.2381 20.7262 21.8277 20.7364C20.4174 20.7467 18.3275 23.0439 17.1184 25.8892C15.9092 28.7345 17.2847 31.0379 20.3312 31.0338C23.3777 31.0297 25.4039 28.714 25.0262 25.8769" fill="#E02022"/>
<path d="M14.2158 18.4783C13.7334 18.4783 13.409 18.7759 13.409 19.2194V19.6648H14.5566C14.5566 19.6648 14.5935 23.4504 14.5566 23.8466C14.5196 24.2428 14.4129 24.8895 13.7026 25.2262C13.0867 25.5197 13.0867 25.7948 13.0395 26.0473C12.9902 26.3655 13.0498 26.4066 13.2817 26.3491C14.1932 26.1253 15.1622 25.7599 15.6528 24.8587C15.9197 24.3701 16.0265 23.8322 16.0265 23.0357V19.6648C16.513 19.6648 16.862 19.3487 16.862 18.9238V18.4783H14.2158Z" fill="#040000"/>
<path d="M12.9411 23.5817C12.6193 23.9926 12.2083 24.325 11.7392 24.5536C11.2701 24.7823 10.7552 24.9014 10.2333 24.9018C8.38571 24.9018 7 23.4894 7 21.6171C7 19.7449 8.38981 18.2894 10.2333 18.2894C10.7513 18.2936 11.2617 18.4145 11.7265 18.643C12.1914 18.8715 12.5988 19.2018 12.9185 19.6094C12.9185 19.6094 12.4258 20.1349 11.9557 20.1349C11.737 20.1188 11.5279 20.0388 11.3542 19.905C11.0267 19.6731 10.6346 19.5503 10.2333 19.554C9.18634 19.554 8.33233 20.4798 8.33233 21.6171C8.33233 22.7544 9.18634 23.6372 10.2333 23.6372C10.6507 23.6533 11.0622 23.5353 11.4076 23.3005C11.5835 23.1697 11.7942 23.094 12.0132 23.0829C12.5449 23.0808 12.9411 23.5817 12.9411 23.5817Z" fill="#040000"/>
</g>
<circle cx="20" cy="20" r="19.5" stroke="black" stroke-opacity="0.05"/>
<defs>
<clipPath id="clip0_17713_28016">
<rect width="26" height="22.0276" fill="white" transform="translate(7 9)"/>
</clipPath>
</defs>
</svg>
