<svg width="40" height="40" viewBox="0 0 40 40" fill="none" xmlns="http://www.w3.org/2000/svg">
<circle cx="20" cy="20" r="20" fill="#202857"/>
<g clip-path="url(#clip0_14382_18719)">
<path d="M19.9989 19.8406L17.3776 17.2926H14.8441V26.3321L17.582 26.9968V21.1409L19.9989 23.4845L22.4176 21.1409V26.9968L25.1554 26.3321V17.2926H22.6203L19.9984 19.8406H19.9989Z" fill="white"/>
<path d="M19.9938 17.9406L17.9314 15.933H6V15.0017H18.3099L19.9978 16.6453L21.7091 15H34V15.9313H22.0838L19.9938 17.9406Z" fill="#EE242D"/>
<path d="M11.3519 19.5763H8.6656V17.2926H6V24.1784L8.66504 24.8291V22.1433H11.3514V25.4832L14.0164 26.1305V17.2926H11.3514V19.5763H11.3519Z" fill="white"/>
<path d="M31.359 17.2926L29.9915 18.603L28.624 17.2926H25.983V26.1311L28.6391 25.4843V20.8172L29.9915 22.1131L31.3445 20.8172V24.8257L34 24.1789V17.2926H31.359Z" fill="white"/>
</g>
<circle cx="20" cy="20" r="19.5" stroke="black" stroke-opacity="0.05"/>
<defs>
<clipPath id="clip0_14382_18719">
<rect width="28" height="12" fill="white" transform="translate(6 15)"/>
</clipPath>
</defs>
</svg>
