<svg width="40" height="40" viewBox="0 0 40 40" fill="none" xmlns="http://www.w3.org/2000/svg">
<circle cx="20" cy="20" r="20" fill="#0376BC"/>
<path d="M20.1333 13.3692C20.1195 13.3451 20.0994 13.3252 20.0753 13.3115C20.0512 13.2978 20.0239 13.2908 19.9961 13.2912C19.9684 13.2917 19.9413 13.2995 19.9176 13.314C19.8939 13.3285 19.8746 13.349 19.8615 13.3735C17.4001 17.796 13.5987 19.9124 8.45735 19.7226C8.39084 19.7196 8.32569 19.7028 8.26604 19.6732C8.2064 19.6436 8.15359 19.6019 8.11097 19.5508C8.06835 19.4997 8.03686 19.4402 8.01853 19.3762C8.00019 19.3122 7.99539 19.2451 8.00446 19.1791L8.18561 17.911C8.22299 17.6407 8.37971 17.5171 8.65576 17.5401C11.8303 17.8161 14.4887 16.7407 16.6309 14.3138C18.0687 12.6834 18.8077 10.8388 18.8479 8.77993C18.8565 8.41186 19.0449 8.23071 19.413 8.23646L20.6724 8.26665C20.9858 8.2724 21.1526 8.43199 21.1727 8.74542C21.5394 14.1068 25.9734 17.9153 31.3218 17.5487C31.6352 17.5257 31.8092 17.6709 31.8437 17.9844L31.9946 19.2568C32.0292 19.5529 31.8969 19.7068 31.5978 19.7183C26.5571 19.9512 22.7356 17.8348 20.1333 13.3692Z" fill="white"/>
<path d="M9.20287 15.905C10.9052 12.1122 13.6484 9.77447 17.4325 8.89169C17.769 8.81118 17.9012 8.94058 17.8293 9.27988L17.5533 10.5652C17.5216 10.7145 17.4523 10.8534 17.3519 10.9688C17.2516 11.0842 17.1235 11.1724 16.9796 11.2251C14.5412 12.1309 12.7642 13.6693 11.6485 15.8403C11.4127 16.3004 11.036 16.5419 10.5184 16.5649L9.67302 16.5994C9.14105 16.6196 8.98434 16.3881 9.20287 15.905Z" fill="white"/>
<path d="M22.3543 10.397L22.199 9.37906C22.1243 8.89885 22.3212 8.72345 22.7899 8.85284C26.7437 9.92828 29.4352 12.3394 30.8643 16.0861C30.9994 16.4341 30.8801 16.6008 30.5063 16.5865L29.3719 16.539C28.9751 16.5218 28.6832 16.3363 28.4963 15.9826C27.3318 13.7656 25.5303 12.2057 23.0919 11.3028C22.672 11.1446 22.4262 10.8427 22.3543 10.397Z" fill="white"/>
<path d="M20.224 21.9824C20.205 21.9463 20.1764 21.916 20.1415 21.8949C20.1065 21.8738 20.0665 21.8627 20.0256 21.8627C19.9848 21.8627 19.9447 21.8738 19.9098 21.8949C19.8748 21.916 19.8463 21.9463 19.8272 21.9824C18.0933 25.2691 15.3371 27.3207 11.5588 28.1374C11.4037 28.1709 11.2422 28.16 11.0927 28.1058C10.9432 28.0517 10.8118 27.9565 10.7134 27.8311L9.73857 26.5717C9.54591 26.3215 9.60486 26.1792 9.91541 26.1447C15.0194 25.5667 18.0343 22.6797 18.9603 17.4837C19.0005 17.2565 19.1357 17.1429 19.3657 17.1429H20.664C20.9343 17.1429 21.0924 17.2767 21.1384 17.5441C21.9953 22.7084 24.9628 25.5624 30.0409 26.1058C30.432 26.149 30.5068 26.3272 30.2652 26.6407L29.4026 27.7621C29.161 28.0784 28.8462 28.1949 28.458 28.1115C24.7429 27.3207 21.9982 25.2777 20.224 21.9824Z" fill="white"/>
<path d="M31.6883 21.2752L30.748 24.7603C30.7198 24.8619 30.6579 24.951 30.5725 25.0129C30.4871 25.0748 30.3832 25.1058 30.2779 25.101L28.9364 25.0449C28.8664 25.0417 28.7981 25.0227 28.7365 24.9894C28.6748 24.9561 28.6215 24.9092 28.5805 24.8525C28.5394 24.7957 28.5117 24.7303 28.4994 24.6614C28.4871 24.5924 28.4905 24.5215 28.5094 24.454L29.4885 20.9431C29.5172 20.8391 29.581 20.7484 29.6691 20.6862C29.7572 20.6241 29.8641 20.5944 29.9716 20.6023L31.2699 20.6886C31.3387 20.6932 31.4056 20.713 31.4657 20.7466C31.5259 20.7802 31.5779 20.8268 31.6179 20.8829C31.6579 20.939 31.685 21.0033 31.6972 21.0711C31.7093 21.139 31.7063 21.2087 31.6883 21.2752Z" fill="white"/>
<path d="M10.6045 20.9601L11.6224 24.5013C11.6414 24.5661 11.6454 24.6344 11.6343 24.701C11.6232 24.7676 11.5971 24.8309 11.5582 24.886C11.5192 24.9411 11.4683 24.9868 11.4092 25.0195C11.3501 25.0522 11.2844 25.0712 11.217 25.075L9.71598 25.1612C9.61136 25.1673 9.50793 25.1365 9.42363 25.0743C9.33933 25.012 9.27948 24.9222 9.25446 24.8205L8.36594 21.2836C8.35001 21.2199 8.34826 21.1535 8.36081 21.0891C8.37336 21.0246 8.39991 20.9637 8.43858 20.9106C8.47725 20.8576 8.52709 20.8137 8.5846 20.782C8.6421 20.7503 8.70587 20.7316 8.77138 20.7272L10.143 20.6367C10.2453 20.6297 10.3469 20.658 10.4309 20.7169C10.5149 20.7757 10.5761 20.8616 10.6045 20.9601Z" fill="white"/>
<path d="M15.4102 28.2972C17.9981 29.7939 21.9146 30.0311 24.6146 28.3274C24.8734 28.1635 25.148 28.1333 25.4385 28.2368L27.0948 28.8277C27.4542 28.9571 27.4757 29.1282 27.1594 29.341C22.4063 32.5529 17.6675 32.5716 12.943 29.3971C12.552 29.1354 12.5764 28.9212 13.0164 28.7544L14.4225 28.2195C14.7647 28.0901 15.0939 28.116 15.4102 28.2972Z" fill="white"/>
<circle cx="20" cy="20" r="19.5" stroke="black" stroke-opacity="0.05"/>
</svg>
