<svg width="40" height="40" viewBox="0 0 40 40" fill="none" xmlns="http://www.w3.org/2000/svg">
<circle cx="20" cy="20" r="20" fill="#F6F8FA"/>
<path d="M26.9655 20.0671C26.986 20.0574 26.989 20.0423 26.9745 20.0217C26.9695 20.0143 26.9626 20.008 26.9545 20.0033C26.9463 19.9987 26.9371 19.9956 26.9274 19.9945C24.7046 19.8131 22.9498 18.7513 21.663 16.8091C21.2881 16.0363 21.0607 15.4763 20.9809 15.1292C20.4222 12.7166 20.961 10.6002 22.5972 8.78006C22.6088 8.76695 22.623 8.75635 22.6388 8.74892C22.6546 8.74148 22.6718 8.73738 22.6891 8.73687C22.7065 8.73636 22.7238 8.73945 22.7398 8.74595C22.7558 8.75244 22.7703 8.7622 22.7823 8.77462L24.3913 10.3764C24.4433 10.4284 24.4457 10.4816 24.3986 10.5361C23.2001 11.9534 22.9504 13.4748 23.6494 15.1002C23.9106 15.7097 24.343 16.24 24.9464 16.6911C26.5446 17.8848 28.6743 17.6998 30.1655 16.4045C30.2574 16.3247 30.3463 16.3277 30.4321 16.4136L31.9958 17.9954C32.049 18.0487 32.0478 18.1013 31.9922 18.1533C30.6063 19.4352 28.9597 20.0568 27.0525 20.0181C27.032 20.0181 27.003 20.0344 26.9655 20.0671Z" fill="#74BB51"/>
<path d="M21.6633 16.809C22.9501 18.7512 24.7049 19.8131 26.9277 19.9945C26.9374 19.9956 26.9466 19.9986 26.9548 20.0033C26.9629 20.008 26.9698 20.0143 26.9748 20.0217C26.9893 20.0422 26.9863 20.0574 26.9658 20.067C26.9924 22.0323 26.9924 23.4091 26.9658 24.1976C26.8714 27.0149 24.8651 28.9777 22.2347 29.6543C20.5912 30.0764 18.9023 30.1078 17.1681 29.7486C14.7899 29.257 12.593 27.6389 12.1776 25.1881C12.0748 24.5834 12.0277 23.9425 12.0361 23.2652C12.0688 20.2551 12.0754 17.1754 12.0561 14.0262C12.0561 13.9742 12.0821 13.9482 12.1341 13.9482L17.3114 13.9501C17.3292 13.9501 17.3463 13.9569 17.3588 13.9692C17.3714 13.9814 17.3785 13.998 17.3785 14.0154C17.3773 17.1234 17.3773 20.2273 17.3785 23.3269C17.3803 24.1178 17.5472 25.1228 18.4706 25.3441C19.3365 25.5509 20.1135 25.5152 20.8016 25.2371C21.4674 24.9686 21.6597 23.9618 21.656 23.3323C21.6464 21.2171 21.6488 19.0427 21.6633 16.809Z" fill="#165EA6"/>
<circle cx="20" cy="20" r="19.5" stroke="black" stroke-opacity="0.05"/>
</svg>
