<svg width="40" height="40" viewBox="0 0 40 40" fill="none" xmlns="http://www.w3.org/2000/svg">
<circle cx="20" cy="20" r="20" fill="#F6F8FA"/>
<path d="M22.8167 25.0823C21.9293 26.6189 21.0441 28.1618 20.1612 29.7108C20.0421 29.9175 19.9742 29.9017 19.9573 29.6636C19.9023 28.8897 19.6731 28.1505 19.2699 27.4462C16.3538 22.3656 13.5153 17.4282 10.7543 12.634C10.3375 11.9106 9.79892 11.3411 9.13843 10.9255C8.93736 10.7997 8.95533 10.7368 9.19235 10.7368C11.1952 10.7379 13.2159 10.7391 15.2547 10.7402C16.1764 10.7402 16.884 11.0687 17.3457 11.8725C19.2912 15.2659 21.2283 18.6341 23.157 21.977C23.681 22.8834 23.6541 23.768 23.0896 24.6358C22.9953 24.7807 22.9043 24.9295 22.8167 25.0823Z" fill="#F3C720"/>
<path d="M26.5701 18.5467C26.309 18.9965 26.0815 19.4885 25.7799 19.8963C25.6777 20.0322 25.6198 20.0154 25.6064 19.8457C25.5401 19.0246 25.3109 18.2658 24.9189 17.5694C23.981 15.9013 23.0588 14.2956 22.1523 12.7522C21.6883 11.9625 21.1503 11.3779 20.5381 10.9982C20.2607 10.8263 20.2848 10.7404 20.6106 10.7404C24.0029 10.7359 27.3986 10.7382 30.7976 10.7471C30.8616 10.7471 30.9206 10.7646 30.9745 10.7994C31.0015 10.8174 31.0066 10.8409 30.9897 10.8701C29.5182 13.438 28.045 15.9968 26.5701 18.5467Z" fill="#F3C720"/>
<path d="M11.0522 29.9334L14.7304 23.5273C14.7404 23.5098 14.7549 23.4953 14.7724 23.4852C14.7898 23.4751 14.8096 23.4697 14.8298 23.4697C14.85 23.4697 14.8698 23.4751 14.8873 23.4852C14.9047 23.4953 14.9192 23.5098 14.9292 23.5273C15.7032 24.8865 16.4867 26.2457 17.2797 27.6049C17.5527 28.0733 17.7621 28.5293 17.9082 28.973C18.0952 29.5442 17.7666 30.0295 17.1803 30.0261C15.2291 30.0149 13.2089 30.0171 11.1196 30.0328C11.1069 30.0329 11.0943 30.0299 11.083 30.0241C11.0717 30.0183 11.0621 30.0099 11.0553 29.9998C11.0484 29.9897 11.0446 29.9782 11.044 29.9666C11.0435 29.9549 11.0463 29.9435 11.0522 29.9334Z" fill="#F3C720"/>
<circle cx="20" cy="20" r="19.5" stroke="black" stroke-opacity="0.05"/>
</svg>
