<svg width="40" height="40" viewBox="0 0 40 40" fill="none" xmlns="http://www.w3.org/2000/svg">
<circle cx="20" cy="20" r="20" fill="#1E1E23"/>
<g clip-path="url(#clip0_46604_83233)">
<path d="M12.4552 17.6674C12.4478 18.9252 14.0294 19.6163 14.9575 18.6764C14.9947 18.6418 15.0466 18.6211 15.0986 18.6211H15.6407C15.6407 18.6211 15.6926 18.6418 15.6926 18.6695C15.6926 18.6764 15.6926 18.6833 15.6926 18.6971C14.6457 20.4594 11.8241 19.6577 11.8389 17.6743C11.8538 15.6909 14.6902 14.9238 15.7075 16.6999C15.7223 16.7206 15.7075 16.7483 15.6852 16.7621C15.6778 16.7621 15.6704 16.7621 15.6629 16.7621H15.1209C15.0689 16.7552 15.0169 16.7345 14.9798 16.693C14.0665 15.7393 12.4701 16.4166 12.4626 17.6674H12.4552Z" fill="white"/>
<path d="M5.58683 18.0613C5.52743 18.0613 5.4903 18.1097 5.4903 18.1581V19.5057C5.4903 19.5472 5.45318 19.5817 5.40862 19.5817H5.00024C4.94826 19.5817 4.91113 19.5472 4.91113 19.4988V15.8291C4.91113 15.8291 4.92598 15.7808 4.95568 15.7739C5.19329 15.7531 5.58683 15.7531 6.1363 15.7739C7.83668 15.836 7.7847 17.93 6.1363 18.0199C5.79474 18.0406 5.60911 18.0475 5.58683 18.0544V18.0613ZM5.48288 16.3475V17.467C5.48288 17.5016 5.52 17.5292 5.55713 17.5292H6.09917C6.47786 17.5292 6.78229 17.2804 6.78229 16.9694V16.8312C6.78229 16.5271 6.47786 16.2783 6.09917 16.2783H5.55713C5.52 16.2783 5.4903 16.306 5.4903 16.3475H5.48288Z" fill="white"/>
<path d="M8.45242 16.0435C8.45242 15.8909 8.31944 15.7671 8.15541 15.7671C7.99137 15.7671 7.8584 15.8909 7.8584 16.0435V19.2985C7.8584 19.4512 7.99137 19.575 8.15541 19.575C8.31944 19.575 8.45242 19.4512 8.45242 19.2985V16.0435Z" fill="white"/>
<path d="M11.289 17.6676C11.289 17.7298 11.289 17.7851 11.2816 17.8335C11.2816 17.8819 11.2296 17.9164 11.1851 17.9164H9.81885C9.81885 17.9164 9.76687 17.9372 9.76687 17.9648V19.0084C9.76687 19.0084 9.78915 19.0567 9.81885 19.0567H11.2148C11.2593 19.0567 11.2965 19.0913 11.2965 19.1327V19.4921C11.2965 19.5336 11.2593 19.575 11.2074 19.575H9.23968C9.23968 19.575 9.17285 19.5474 9.17285 19.5128C9.17285 18.8978 9.17285 18.2827 9.17285 17.6676V15.8225C9.17285 15.8225 9.20255 15.7603 9.23968 15.7603H11.2074C11.2593 15.7603 11.2965 15.7948 11.2965 15.8363V16.1956C11.2965 16.2371 11.2593 16.2717 11.2148 16.2717H9.81885C9.81885 16.2717 9.76687 16.2924 9.76687 16.32V17.3636C9.76687 17.3636 9.78915 17.4119 9.81885 17.4119H11.1851C11.2371 17.4119 11.2742 17.4465 11.2816 17.488C11.2816 17.5363 11.289 17.5916 11.289 17.6538V17.6676Z" fill="white"/>
<path d="M16.2412 17.6676V15.8225C16.2412 15.8225 16.2709 15.7603 16.308 15.7603H18.2757C18.3277 15.7603 18.3648 15.7948 18.3648 15.8363V16.1956C18.3648 16.2371 18.3277 16.2717 18.2832 16.2717H16.8872C16.8872 16.2717 16.8352 16.2924 16.8352 16.32V17.3636C16.8352 17.3636 16.8649 17.4119 16.8872 17.4119H18.2535C18.3054 17.4119 18.3426 17.4465 18.35 17.4949C18.3574 17.5433 18.3648 17.5985 18.3648 17.6607C18.3648 17.7229 18.3648 17.7782 18.35 17.8266C18.35 17.875 18.298 17.9095 18.2535 17.9095H16.8872C16.8872 17.9095 16.8352 17.9303 16.8352 17.9579V18.9945C16.8352 18.9945 16.8575 19.0429 16.8872 19.0429H18.2832C18.3277 19.0429 18.3648 19.0775 18.3648 19.1258V19.4852C18.3648 19.5267 18.3277 19.5681 18.2757 19.5681H16.308C16.308 19.5681 16.2412 19.5405 16.2412 19.5059V17.6676Z" fill="white"/>
<path d="M11.8389 22.3115C11.8537 20.3281 14.6902 19.561 15.7074 21.3371C15.7223 21.3578 15.7074 21.3855 15.6851 21.3993C15.6777 21.3993 15.6703 21.3993 15.6629 21.3993H15.1208C15.0688 21.3924 15.0169 21.3717 14.9797 21.3302C14.0664 20.3765 12.47 21.0469 12.4626 22.3046C12.4552 23.5624 14.0367 24.2535 14.9649 23.3136C15.002 23.2791 15.054 23.2583 15.106 23.2583H15.648C15.648 23.2583 15.7 23.2791 15.7 23.3067C15.7 23.3136 15.7 23.3205 15.7 23.3343C14.653 25.0966 11.8314 24.288 11.8463 22.3046L11.8389 22.3115Z" fill="white"/>
<path d="M36.3413 20.3559C37.4922 20.4389 38.3461 21.3926 38.2496 22.4845C38.153 23.5764 37.1506 24.385 35.9997 24.302C34.8488 24.2191 33.9949 23.2654 34.0914 22.1735C34.188 21.0816 35.1904 20.273 36.3413 20.3559ZM36.1408 20.9019C35.324 20.9157 34.678 21.5653 34.7003 22.3532C34.7151 23.141 35.3908 23.7699 36.2002 23.7561C37.017 23.7423 37.663 23.0926 37.6407 22.3048C37.6258 21.517 36.9501 20.8881 36.1408 20.9019Z" fill="white"/>
<path d="M20.7713 23.1273H21.0832C21.1352 23.1273 21.1797 23.1619 21.1946 23.2103C21.2763 23.5696 21.4693 23.7562 21.7812 23.777C22.5385 23.8253 22.7984 22.8094 22.1524 22.5952C21.7663 22.4639 21.4916 22.3671 21.3282 22.298C21.2614 22.2704 21.1946 22.2289 21.1426 22.1805C20.2813 21.3927 21.0758 20.0382 22.2787 20.4114C22.6722 20.5289 22.9024 20.8191 22.9692 21.2821C22.9692 21.3167 22.9469 21.3512 22.9098 21.3582C22.9098 21.3582 22.9098 21.3582 22.9024 21.3582H22.5088C22.4643 21.3582 22.4272 21.3305 22.4272 21.289C22.4123 20.7707 21.4842 20.6809 21.3654 21.2614C21.2391 21.8557 21.8406 21.8903 22.2638 22.0354C22.7167 22.1805 22.9841 22.4708 23.0583 22.8855C23.3553 24.5095 20.8307 24.8896 20.6748 23.231C20.6748 23.1826 20.7119 23.1342 20.7639 23.1273C20.7639 23.1273 20.7639 23.1273 20.7713 23.1273Z" fill="white"/>
<path d="M3.32917 22.8094V24.157C3.32917 24.1985 3.29204 24.233 3.24749 24.233H2.8391C2.78713 24.233 2.75 24.1985 2.75 24.1501V20.4873C2.75 20.4873 2.77228 20.439 2.80198 20.4321C3.03958 20.4113 3.43312 20.4113 3.98259 20.4321C5.68297 20.4943 5.631 22.5882 3.98259 22.6781C3.6336 22.6988 3.4554 22.7057 3.43312 22.7057C3.37372 22.7057 3.33659 22.7541 3.33659 22.8025L3.32917 22.8094ZM3.32917 20.9849V22.1321C3.32917 22.1321 3.35144 22.1874 3.38115 22.1874H3.93804C4.31673 22.1874 4.62859 21.9386 4.62859 21.6345V21.5032C4.62859 21.1922 4.32415 20.9435 3.94546 20.9365H3.38857C3.38857 20.9365 3.32917 20.9573 3.32917 20.9849Z" fill="white"/>
<path d="M5.70508 22.3185V20.4733C5.70508 20.4733 5.73478 20.4111 5.77191 20.4111H7.7396C7.79157 20.4111 7.8287 20.4457 7.8287 20.4872V20.8465C7.8287 20.888 7.79157 20.9225 7.74702 20.9225H6.35107C6.35107 20.9225 6.2991 20.9433 6.2991 20.9709V22.0075C6.2991 22.0075 6.32137 22.0559 6.35107 22.0559H7.71732C7.7693 22.0559 7.80642 22.0905 7.81385 22.1319C7.81385 22.1803 7.82127 22.2356 7.82127 22.3047C7.82127 22.3738 7.82127 22.4222 7.81385 22.4706C7.80642 22.5189 7.76187 22.5466 7.71732 22.5466H6.35107C6.35107 22.5466 6.2991 22.5673 6.2991 22.595V23.6385C6.2991 23.6385 6.32137 23.6869 6.35107 23.6869H7.74702C7.79157 23.6869 7.8287 23.7214 7.8287 23.7629V24.1223C7.8287 24.1637 7.79157 24.2052 7.7396 24.2052H5.77191C5.77191 24.2052 5.70508 24.1775 5.70508 24.143C5.70508 23.5279 5.70508 22.9129 5.70508 22.3047V22.3185Z" fill="white"/>
<path d="M9.90064 20.418C9.9749 20.418 10.0491 20.4249 10.1234 20.4387C10.1754 20.4525 10.2199 20.4871 10.2348 20.5285L11.7495 24.1498C11.7495 24.1498 11.7495 24.212 11.7124 24.2258C11.705 24.2258 11.6976 24.2258 11.6901 24.2258H11.252C11.1926 24.2258 11.1332 24.1913 11.1184 24.136L10.7323 23.21C10.71 23.1547 10.6506 23.1132 10.5838 23.1132C10.5021 23.1132 10.2719 23.1132 9.90064 23.1132C9.52938 23.1132 9.2992 23.1132 9.21752 23.1132C9.15069 23.1132 9.09129 23.1478 9.06902 23.21L8.6829 24.136C8.66063 24.1913 8.60865 24.2258 8.54925 24.2258H8.11116C8.11116 24.2258 8.05176 24.1982 8.05176 24.1706C8.05176 24.1636 8.05176 24.1567 8.05176 24.1498L9.57393 20.5355C9.59621 20.4871 9.63334 20.4525 9.68531 20.4456C9.75214 20.4318 9.82639 20.4249 9.90807 20.4249L9.90064 20.418ZM9.33633 22.5327C9.33633 22.5327 9.33633 22.5811 9.36603 22.588C9.36603 22.588 9.37345 22.588 9.38088 22.588H10.4204C10.4204 22.588 10.465 22.5672 10.465 22.5465V22.5327L9.95262 21.2404C9.95262 21.2404 9.91549 21.2058 9.89322 21.2127C9.87837 21.2127 9.87094 21.2265 9.86352 21.2404L9.34375 22.5258L9.33633 22.5327Z" fill="white"/>
<path d="M16.2412 22.3185C16.2412 21.7103 16.2412 21.0952 16.2412 20.4802C16.2412 20.4456 16.2709 20.418 16.308 20.418H18.2757C18.3277 20.418 18.3648 20.4525 18.3648 20.494V20.8464C18.3648 20.8879 18.3277 20.9294 18.2832 20.9294H16.8872C16.8872 20.9294 16.8352 20.957 16.8352 20.9847V22.0282C16.8352 22.0282 16.8649 22.0766 16.8872 22.0766H18.2535C18.3054 22.0766 18.3426 22.1042 18.35 22.1526C18.3574 22.201 18.3648 22.2563 18.3648 22.3185C18.3648 22.3807 18.3648 22.4359 18.35 22.4843C18.35 22.5327 18.298 22.5672 18.2535 22.5672H16.8872C16.8872 22.5672 16.8352 22.588 16.8352 22.6156V23.6522C16.8352 23.6522 16.8575 23.7006 16.8872 23.7006H18.2832C18.3277 23.7006 18.3648 23.7352 18.3648 23.7766V24.136C18.3648 24.1775 18.3277 24.2189 18.2757 24.2189H16.308C16.308 24.2189 16.2412 24.1982 16.2412 24.1636C16.2412 23.5486 16.2412 22.9335 16.2412 22.3185Z" fill="white"/>
<path d="M24.3645 20.418C24.7135 20.418 25.0328 20.418 25.3373 20.418C25.3892 20.418 25.4264 20.4594 25.4264 20.5009V20.8464C25.4264 20.8948 25.3892 20.9294 25.3373 20.9294H24.7432C24.6987 20.9294 24.6616 20.9639 24.6616 21.0054V24.1636C24.6616 24.1636 24.6319 24.2189 24.6022 24.2189C24.5279 24.2189 24.4462 24.2189 24.3645 24.2189C24.2829 24.2189 24.2086 24.2189 24.1269 24.2189C24.0972 24.2189 24.0675 24.1982 24.0675 24.1636V21.0054C24.0675 20.9639 24.0304 20.9294 23.9859 20.9294H23.3918C23.3399 20.9294 23.3027 20.8879 23.3027 20.8464V20.5009C23.3027 20.4525 23.3473 20.418 23.3918 20.418C23.6888 20.418 24.0156 20.418 24.3645 20.418Z" fill="white"/>
<path d="M27.0897 23.7559C27.5426 23.7559 27.7802 23.5279 27.7876 23.0994C27.8099 22.3323 27.8099 21.4615 27.7951 20.4871C27.7951 20.4525 27.8248 20.418 27.8693 20.418H28.3223C28.3594 20.418 28.3891 20.4456 28.3891 20.4871C28.3891 20.9501 28.3891 21.6343 28.3891 22.5396C28.3891 23.0372 28.3742 23.3413 28.3371 23.4518C28.1737 24.0116 27.6985 24.295 27.0822 24.295C26.4659 24.295 25.9907 24.0116 25.8274 23.4518C25.7902 23.3413 25.7754 23.0303 25.7754 22.5396C25.7754 21.6343 25.7754 20.9501 25.7754 20.4871C25.7754 20.4525 25.8051 20.418 25.8422 20.418H26.2952C26.3323 20.418 26.3694 20.4456 26.3694 20.4871C26.3546 21.4684 26.362 22.3392 26.3768 23.0994C26.3843 23.5209 26.6219 23.7559 27.0748 23.7559H27.0897Z" fill="white"/>
<path d="M29.043 20.4594C29.043 20.4594 29.0652 20.418 29.0875 20.418H30.4166C31.5156 20.418 32.414 21.2334 32.414 22.2493V22.4014C32.414 23.4104 31.523 24.2328 30.4166 24.2328H29.0875C29.0875 24.2328 29.043 24.212 29.043 24.1913V20.4663V20.4594ZM29.6147 21.0123V23.6661C29.6147 23.6661 29.6518 23.7283 29.689 23.7214H30.4018C31.1814 23.7214 31.8126 23.1339 31.8126 22.4083V22.2424C31.8126 21.5237 31.174 20.9432 30.3944 20.9432H29.6815C29.6815 20.9432 29.6147 20.9708 29.6147 21.0054V21.0123Z" fill="white"/>
<path d="M33.5569 20.7012C33.5569 20.5486 33.4239 20.4248 33.2599 20.4248C33.0959 20.4248 32.9629 20.5486 32.9629 20.7012V23.9562C32.9629 24.1089 33.0959 24.2327 33.2599 24.2327C33.4239 24.2327 33.5569 24.1089 33.5569 23.9562V20.7012Z" fill="white"/>
</g>
<circle cx="20" cy="20" r="19.5" stroke="black" stroke-opacity="0.05"/>
<defs>
<clipPath id="clip0_46604_83233">
<rect width="37" height="10" fill="white" transform="translate(2 15)"/>
</clipPath>
</defs>
</svg>
