<svg width="40" height="40" viewBox="0 0 40 40" fill="none" xmlns="http://www.w3.org/2000/svg">
<circle cx="20" cy="20" r="20" fill="#F6F8FA"/>
<path d="M31.6885 24.7159C32.9296 23.7502 33.7411 22.3352 33.9478 20.7763C34.1544 19.2175 33.7398 17.6399 32.7932 16.3841C31.8467 15.1284 30.4443 14.2953 28.8888 14.0648C27.3332 13.8342 25.7495 14.2246 24.4794 15.1518C23.2093 16.079 22.3548 17.4685 22.1004 19.0203C21.846 20.572 22.2121 22.1616 23.1197 23.4458C24.0273 24.7299 25.4035 25.6056 26.9512 25.8838C28.4989 26.1619 30.094 25.8202 31.3919 24.9324V20.2337H26.708V19.9519H31.6885V24.7159Z" fill="#EA5902"/>
<path d="M15.9581 18.0446V14.5087H6.42124C6.36581 14.5083 6.31086 14.5189 6.25957 14.5399C6.20829 14.561 6.1617 14.592 6.12251 14.6312C6.08331 14.6704 6.0523 14.717 6.03127 14.7682C6.01024 14.8195 5.99962 14.8745 6.00001 14.9299V25.2558C6.00001 25.3676 6.04439 25.4747 6.12338 25.5537C6.20238 25.6327 6.30952 25.6771 6.42124 25.6771H15.9581V22.1471H10.9776V21.8504H15.9581V18.3264H10.9776V18.0446H15.9581Z" fill="#7FBE26"/>
<path d="M15.8927 22.7731C15.8785 23.517 16.119 24.2433 16.5743 24.8318C17.0296 25.4203 17.6723 25.8355 18.3959 26.0086C19.1195 26.1817 19.8805 26.1023 20.5529 25.7836C21.2252 25.4649 21.7684 24.926 22.0924 24.2562L17.6933 19.8541C17.1518 20.1256 16.6966 20.5424 16.3786 21.058C16.0606 21.5735 15.8923 22.1673 15.8927 22.7731ZM20.3719 19.7296C20.9824 19.4544 21.4802 18.9783 21.7822 18.3806C22.0842 17.783 22.1722 17.0998 22.0315 16.4451C21.8908 15.7904 21.5299 15.2037 21.009 14.7829C20.4881 14.362 19.8387 14.1324 19.169 14.1324C18.4994 14.1324 17.85 14.362 17.3291 14.7829C16.8082 15.2037 16.4473 15.7904 16.3066 16.4451C16.1659 17.0998 16.2539 17.783 16.5559 18.3806C16.8579 18.9783 17.3556 19.4544 17.9662 19.7296L22.214 23.9744C22.373 23.5749 22.4515 23.1478 22.4449 22.7179C22.4383 22.2879 22.3467 21.8635 22.1756 21.469C22.0044 21.0745 21.7569 20.7178 21.4474 20.4192C21.1378 20.1207 20.7723 19.8863 20.3719 19.7296Z" fill="#008DD7"/>
<circle cx="20" cy="20" r="19.5" stroke="black" stroke-opacity="0.05"/>
</svg>
