<svg width="40" height="40" viewBox="0 0 40 40" fill="none" xmlns="http://www.w3.org/2000/svg">
<circle cx="20" cy="20" r="20" fill="#F6F8FA"/>
<path d="M16.8909 16.6086C16.2158 15.9876 15.3964 15.4775 14.407 15.1296C13.9097 14.9544 13.0903 14.6993 12.392 14.6993C11.7916 14.6993 11.2788 14.89 11.15 15.4878C10.9 16.6293 11.0186 26.4337 11.1062 27.5675C11.168 28.4023 11.521 28.8893 12.4976 28.8687C19.3156 28.7579 21.1039 20.4969 16.8909 16.6086Z" fill="url(#paint0_linear_17671_18620)"/>
<path d="M24.7012 8.73414C24.0879 8.16984 23.3381 7.70602 22.4465 7.39166C21.993 7.23191 21.2509 7 20.6171 7C20.0682 7 19.6044 7.17779 19.4833 7.71891C19.2591 8.75218 19.3648 17.6548 19.4447 18.6881C19.5039 19.443 19.8209 19.8837 20.7073 19.8708C26.8991 19.7651 28.5251 12.2643 24.7012 8.73414Z" fill="url(#paint1_linear_17671_18620)"/>
<path d="M27.4352 17.0081C26.6673 16.2995 25.7191 15.7146 24.6008 15.3229C24.0287 15.1193 23.0934 14.8307 22.2998 14.8307C21.6118 14.8307 21.0243 15.0498 20.8748 15.7326C20.5888 17.0313 20.7254 28.2169 20.8259 29.513C20.9006 30.4664 21.2948 31.0152 22.4106 30.9997C30.1923 30.8761 32.2408 21.4452 27.4352 17.0081Z" fill="url(#paint2_linear_17671_18620)"/>
<circle cx="20" cy="20" r="19.5" stroke="black" stroke-opacity="0.05"/>
<defs>
<linearGradient id="paint0_linear_17671_18620" x1="19.1912" y1="14.5228" x2="10.7619" y2="14.4962" gradientUnits="userSpaceOnUse">
<stop stop-color="#EE7700"/>
<stop offset="0.0997" stop-color="#EE7700"/>
<stop offset="0.2644" stop-color="#EC7200"/>
<stop offset="0.4789" stop-color="#E56305"/>
<stop offset="0.7208" stop-color="#D94913"/>
<stop offset="0.9812" stop-color="#CA1B1D"/>
<stop offset="0.9997" stop-color="#C8161D"/>
<stop offset="1" stop-color="#C8161D"/>
</linearGradient>
<linearGradient id="paint1_linear_17671_18620" x1="19.3201" y1="19.9848" x2="26.8707" y2="20.0086" gradientUnits="userSpaceOnUse">
<stop stop-color="#23ADE5"/>
<stop offset="0.3285" stop-color="#0091D2"/>
<stop offset="1" stop-color="#0054A7"/>
</linearGradient>
<linearGradient id="paint2_linear_17671_18620" x1="19.9265" y1="32.5783" x2="31.0803" y2="32.6136" gradientUnits="userSpaceOnUse">
<stop stop-color="#8EC31F"/>
<stop offset="0.1465" stop-color="#87C124"/>
<stop offset="0.3383" stop-color="#73B82F"/>
<stop offset="0.5552" stop-color="#4BAB3C"/>
<stop offset="0.7887" stop-color="#009B48"/>
<stop offset="1" stop-color="#008D50"/>
</linearGradient>
</defs>
</svg>
