<svg width="40" height="40" viewBox="0 0 40 40" fill="none" xmlns="http://www.w3.org/2000/svg">
<circle cx="20" cy="20" r="20" fill="#F6F8FA"/>
<g clip-path="url(#clip0_42155_78965)">
<path d="M3.31217 20.9724C3.85949 21.2448 4.35334 21.3727 4.97301 21.3727C5.65873 21.3727 6.04249 21.2152 6.04249 20.9298C6.03934 20.1949 3.03851 21.0249 3.03851 19.2828C3.03851 18.4692 3.70536 18 4.91639 18C5.65873 18 6.27211 18.1739 6.82572 18.4659L6.51117 19.2205C5.96385 18.958 5.49202 18.8432 4.89437 18.8432C4.24639 18.8432 3.90353 18.981 3.90353 19.2369C3.90353 19.9915 6.9484 19.1483 6.9484 20.8904C6.9484 21.727 6.23436 22.2159 4.95099 22.2159C4.17719 22.2159 3.55123 22.0289 3.00391 21.727L3.31531 20.9724H3.31217ZM7.58379 21.4646L8.96153 18.187H10.5658L11.9498 21.4678V22.1273H11.0627V21.7336L10.9684 21.4974H8.56205L8.46769 21.7336V22.1273H7.58065V21.4678L7.58379 21.4646ZM10.6444 20.6739L9.99012 19.0236H9.53717L8.8829 20.6739H10.6444ZM12.9029 18.187H14.2649L15.262 20.1391L16.2592 18.187H17.6212V22.124H16.7341V19.0925L15.6395 21.1824H14.8877L13.7931 19.0925V22.124H12.906V18.187H12.9029ZM19.3795 18.187L20.2823 20.3589H20.8579L21.7544 18.187H22.7389L20.7069 23.0033H19.7224L20.493 21.1955H19.6689L18.395 18.187H19.3795ZM22.6792 21.4646L24.0569 18.1837H25.6611L27.0452 21.4646V22.124H26.1581V21.7303L26.0638 21.4941H23.6574L23.5631 21.7303V22.124H22.676V21.4646H22.6792ZM25.7398 20.6739L25.0855 19.0236H24.6325L23.9783 20.6739H25.7398ZM27.9983 18.187H28.8947L31.0148 20.7559V18.187H31.9019V22.124H31.0054L28.8853 19.5551V22.124H27.9983V18.187ZM35.0631 22.2159C33.7388 22.2159 32.8204 21.3661 32.8204 20.149C32.8204 18.9318 33.7388 18.0951 35.0631 18.0951C35.6293 18.0951 36.2521 18.2526 36.8686 18.5381L36.5415 19.3222C35.9879 19.0794 35.4783 18.9514 35.0631 18.9514C34.261 18.9514 33.7231 19.4304 33.7231 20.1457C33.7231 20.8609 34.2547 21.353 35.0631 21.353C35.4878 21.353 35.8715 21.2776 36.1137 21.1693V20.6837H35.0851V19.8865H37.0008V21.7402C36.5855 22.019 35.7771 22.2126 35.0631 22.2126V22.2159Z" fill="#26247B"/>
</g>
<circle cx="20" cy="20" r="19.5" stroke="black" stroke-opacity="0.05"/>
<defs>
<clipPath id="clip0_42155_78965">
<rect width="34" height="5" fill="white" transform="translate(3 18)"/>
</clipPath>
</defs>
</svg>
