<svg width="40" height="40" viewBox="0 0 40 40" fill="none" xmlns="http://www.w3.org/2000/svg">
<circle cx="20" cy="20" r="20" fill="#003D6D"/>
<g clip-path="url(#clip0_17713_28049)">
<path d="M16.8577 18.6775C16.8577 18.4543 16.777 18.4255 16.6229 18.5839C15.6469 19.5774 14.5682 20.607 13.3867 21.6725C12.829 22.1764 12.286 22.5004 11.7576 22.6372C11.0165 22.8244 9.03516 22.8964 9.03516 21.7229C9.04249 19.7142 9.04249 17.6984 9.03516 15.6826C9.03516 15.6178 9.06451 15.589 9.13055 15.589H11.2146C11.266 15.589 11.288 15.6106 11.288 15.661V21.0605C11.288 21.2045 11.354 21.2477 11.4861 21.1757C11.5155 21.1613 11.5375 21.1469 11.5668 21.1325C11.5962 21.1181 11.6255 21.0965 11.6476 21.0749C12.8364 19.7862 14.1132 18.4975 15.4781 17.2016C16.5201 16.2081 18.0098 14.8906 19.4408 15.7545C19.7857 15.9633 19.8664 16.4169 19.8664 16.7913C19.8517 19.8078 19.859 22.63 19.8884 25.2722C19.8884 25.409 19.8223 25.4738 19.6903 25.4738H17.0338C16.9237 25.4738 16.865 25.4234 16.865 25.3082V18.6775H16.8577Z" fill="white"/>
<path d="M23.1686 22.5867C23.2053 22.7019 23.3301 22.7595 23.4401 22.7235C23.4695 22.7163 23.4989 22.6947 23.5209 22.6731C24.7977 21.478 26.2067 20.1749 27.7477 18.771C28.7457 17.8639 31.0572 17.9143 31.0352 19.6493C31.0059 21.5284 31.0059 23.3498 31.0352 25.1065C31.0352 25.2073 30.9838 25.2649 30.8738 25.2649H28.775C28.6796 25.2649 28.6356 25.2145 28.6356 25.1209V20.1317C28.6503 19.7285 28.5035 19.6709 28.2173 19.9589C26.5295 21.6076 24.9371 23.1483 23.4401 24.5809C22.9705 25.0273 22.4421 25.2793 21.8478 25.3441C21.0039 25.4305 20.2627 24.9481 20.2627 24.0914C20.2627 21.3052 20.2627 18.5622 20.2627 15.8768C20.2627 15.776 20.3214 15.7184 20.4241 15.7184H22.9705C23.0879 15.7112 23.1466 15.7616 23.1393 15.8768C23.1393 17.9143 23.1319 20.0597 23.1393 22.3131C23.1393 22.4067 23.154 22.5003 23.1906 22.5939L23.1686 22.5867Z" fill="white"/>
</g>
<circle cx="20" cy="20" r="19.5" stroke="black" stroke-opacity="0.05"/>
<defs>
<clipPath id="clip0_17713_28049">
<rect width="22" height="10" fill="white" transform="translate(9.03516 15.4736)"/>
</clipPath>
</defs>
</svg>
