<svg width="40" height="40" viewBox="0 0 40 40" fill="none" xmlns="http://www.w3.org/2000/svg">
<circle cx="20" cy="20" r="20" fill="#F6F8FA"/>
<g clip-path="url(#clip0_17713_28058)">
<path d="M11.1051 11.0066C12.2191 11.6141 13.297 12.1225 14.3356 12.5319C19.4335 14.5426 24.2464 13.6313 28.8987 11.0099C28.9249 10.9967 28.961 11.0066 28.9741 11.033C28.9774 11.0396 28.9806 11.0495 28.9806 11.0561L28.9937 13.3936C28.9937 13.4431 28.961 13.4894 28.9151 13.5059C22.9391 15.7674 16.9926 15.7542 11.0724 13.4696C11.0298 13.453 11.0068 13.4233 11.0068 13.3771L11.0134 11.0594C11.0134 11.0264 11.0429 11 11.0789 11C11.0887 11 11.0986 11 11.1051 11.0066Z" fill="#008CD5"/>
<path d="M28.9904 16.5598C28.9904 16.6093 28.9543 16.6555 28.9052 16.6621C23.0275 17.5932 17.0941 17.5932 11.105 16.6654C11.0592 16.6588 11.0231 16.6192 11.0231 16.5763C10.9871 15.7575 10.9936 14.9585 11.0395 14.1761C11.0395 14.1629 11.0526 14.1497 11.0657 14.1497C11.0657 14.1497 11.0723 14.1497 11.0755 14.1497C16.9794 16.3023 22.9194 16.3056 28.8986 14.1629C28.9347 14.1497 28.9773 14.1662 28.9904 14.2025C28.9936 14.2124 28.9969 14.2223 28.9969 14.2322L28.9904 16.5565V16.5598Z" fill="#008CD5"/>
<path d="M28.9967 17.5568V19.4123C28.9999 19.5477 28.8918 19.6566 28.7608 19.6566H11.1212C11.0458 19.6533 11.0098 19.617 11.0098 19.5411V17.3719C11.0098 17.3257 11.0294 17.3059 11.0753 17.3125C17.048 18.2303 22.9388 18.2402 28.7477 17.3422C28.9148 17.3191 28.9967 17.3885 28.9967 17.5568Z" fill="#008CD5"/>
<path d="M11.1051 22.6281C11.0527 22.6347 11.0265 22.6115 11.0265 22.5587L11.0068 20.383C11.0068 20.3269 11.033 20.3005 11.0887 20.3005H28.9446C28.9774 20.2972 28.9937 20.3137 28.9937 20.3467V22.5719C28.9937 22.6082 28.9642 22.638 28.9282 22.638C28.9249 22.638 28.9217 22.638 28.9184 22.638C23.0112 21.7168 17.0713 21.7135 11.1051 22.6281Z" fill="#004A94"/>
<path d="M28.8692 25.7316C22.6705 23.6615 16.7469 23.678 11.1018 25.7844C11.0658 25.7943 11.0298 25.7778 11.0199 25.7448C11.0199 25.7382 11.0199 25.7316 11.0199 25.725L11.0068 23.3677C11.0068 23.3214 11.0396 23.2818 11.0855 23.2752C16.9533 22.3607 22.8965 22.3574 28.9217 23.262C28.9773 23.2719 29.0036 23.3016 29.0036 23.3578L28.997 25.6424C28.997 25.7283 28.9544 25.758 28.8725 25.7316H28.8692Z" fill="#004A94"/>
<path d="M28.9013 28.9834C24.5864 26.5435 20.5336 25.7875 16.7429 26.7152C14.7935 27.1906 12.949 27.9302 11.2125 28.9339C11.147 28.9702 11.0651 28.9471 11.0291 28.881C11.0192 28.8612 11.0127 28.8414 11.0127 28.8183V26.702C11.0127 26.5468 11.0881 26.4412 11.2355 26.3851C17.2213 24.1928 23.1154 24.216 28.9177 26.4544C28.9701 26.4742 28.9963 26.5105 28.9963 26.5667L28.9865 28.9339C28.9865 28.9966 28.957 29.0131 28.9013 28.9834Z" fill="#004A94"/>
</g>
<circle cx="20" cy="20" r="19.5" stroke="black" stroke-opacity="0.05"/>
<defs>
<clipPath id="clip0_17713_28058">
<rect width="18" height="18" fill="white" transform="translate(11 11)"/>
</clipPath>
</defs>
</svg>
