<svg width="40" height="40" viewBox="0 0 40 40" fill="none" xmlns="http://www.w3.org/2000/svg">
<circle cx="20" cy="20" r="20" fill="#F6F8FA"/>
<path d="M12.0575 16.3502H4.74553C4.73718 16.3502 4.72917 16.3535 4.72327 16.3594C4.71736 16.3653 4.71404 16.3733 4.71404 16.3816V24.0807C4.71404 24.0891 4.71736 24.0971 4.72327 24.103C4.72917 24.1089 4.73718 24.1122 4.74553 24.1122H8.9454C8.95375 24.1122 8.96175 24.1089 8.96766 24.103C8.97356 24.0971 8.97688 24.0891 8.97688 24.0807V23.3935C8.97688 23.3851 8.9802 23.3771 8.9861 23.3712C8.992 23.3653 9.00001 23.362 9.00836 23.362L9.65408 23.3553C9.66243 23.3553 9.67044 23.3586 9.67634 23.3645C9.68225 23.3704 9.68556 23.3784 9.68556 23.3868L9.68958 24.7814C9.68958 24.7897 9.68627 24.7977 9.68036 24.8036C9.67446 24.8095 9.66645 24.8129 9.6581 24.8129H4.03148C4.02313 24.8129 4.01513 24.8095 4.00922 24.8036C4.00332 24.7977 4 24.7897 4 24.7814V15.6716C4 15.6633 4.00332 15.6553 4.00922 15.6494C4.01513 15.6435 4.02313 15.6401 4.03148 15.6401H12.7695C12.7778 15.6401 12.7858 15.6435 12.7917 15.6494C12.7977 15.6553 12.801 15.6633 12.801 15.6716V18.4756C12.801 18.4839 12.7977 18.4919 12.7917 18.4978C12.7858 18.5037 12.7778 18.507 12.7695 18.507H12.1231C12.1147 18.507 12.1067 18.5037 12.1008 18.4978C12.0949 18.4919 12.0916 18.4839 12.0916 18.4756V16.3837C12.0916 16.3753 12.0883 16.3673 12.0824 16.3614C12.0765 16.3555 12.0685 16.3522 12.0601 16.3522L12.0575 16.3502Z" fill="#CF5B0D"/>
<path d="M19.5307 17.8164C19.5307 17.9821 19.4648 18.1411 19.3476 18.2583C19.2304 18.3755 19.0715 18.4413 18.9057 18.4413C18.74 18.4413 18.581 18.3755 18.4638 18.2583C18.3466 18.1411 18.2808 17.9821 18.2808 17.8164C18.2808 17.6506 18.3466 17.4917 18.4638 17.3745C18.581 17.2572 18.74 17.1914 18.9057 17.1914C19.0715 17.1914 19.2304 17.2572 19.3476 17.3745C19.4648 17.4917 19.5307 17.6506 19.5307 17.8164Z" fill="#CF5B0D"/>
<path d="M9.63671 19.9561V22.9068C9.63671 22.9124 9.63445 22.9179 9.63043 22.9219C9.62641 22.9259 9.62096 22.9282 9.61528 22.9282H9.04927C9.04358 22.9282 9.03813 22.9259 9.03411 22.9219C9.03009 22.9179 9.02783 22.9124 9.02783 22.9068V18.934C9.02783 18.9283 9.03009 18.9228 9.03411 18.9188C9.03813 18.9148 9.04358 18.9125 9.04927 18.9125H10.0346C10.0378 18.9124 10.041 18.9131 10.044 18.9145C10.0469 18.9159 10.0494 18.918 10.0513 18.9206L12.0428 21.3742C12.0468 21.3781 12.0522 21.3804 12.0578 21.3804C12.0635 21.3804 12.0689 21.3781 12.0729 21.3742C12.0755 21.3722 12.0776 21.3697 12.079 21.3668C12.0804 21.3639 12.081 21.3607 12.0809 21.3574V18.9306C12.0809 18.9249 12.0832 18.9195 12.0872 18.9155C12.0912 18.9114 12.0967 18.9092 12.1024 18.9092H12.7253C12.731 18.9092 12.7365 18.9114 12.7405 18.9155C12.7445 18.9195 12.7468 18.9249 12.7468 18.9306V22.9034C12.7468 22.9091 12.7445 22.9145 12.7405 22.9186C12.7365 22.9226 12.731 22.9248 12.7253 22.9248H12.1278C12.1246 22.925 12.1214 22.9243 12.1185 22.9229C12.1156 22.9215 12.113 22.9194 12.1111 22.9168L9.67489 19.9421C9.67313 19.9399 9.67096 19.938 9.66849 19.9367C9.66603 19.9353 9.66332 19.9345 9.66052 19.9341C9.65772 19.9338 9.65488 19.9341 9.65218 19.9349C9.64947 19.9356 9.64695 19.937 9.64475 19.9387C9.64215 19.9408 9.64007 19.9435 9.63867 19.9465C9.63728 19.9495 9.63661 19.9528 9.63671 19.9561Z" fill="#04566B"/>
<path d="M16.0264 22.4639C16.5093 22.3742 16.7947 22.0439 16.7947 21.5677C16.7947 20.6848 16.7947 19.8163 16.7947 18.962C16.7938 18.9555 16.7945 18.9488 16.7966 18.9425C16.7987 18.9362 16.8022 18.9305 16.8068 18.9258C16.8115 18.9211 16.8172 18.9175 16.8234 18.9153C16.8296 18.9131 16.8363 18.9124 16.8429 18.9131H17.3948C17.4023 18.912 17.41 18.9127 17.4172 18.915C17.4244 18.9174 17.431 18.9214 17.4363 18.9267C17.4417 18.932 17.4458 18.9385 17.4483 18.9457C17.4507 18.9529 17.4514 18.9605 17.4504 18.968C17.4504 19.8487 17.4504 20.6996 17.4504 21.5208C17.4504 22.0064 17.2334 22.5497 16.7766 22.7761C16.5653 22.8731 16.3406 22.9379 16.1101 22.9683C15.2152 23.1076 14.1997 23.0514 13.8286 22.121C13.7442 21.9084 13.7056 21.5181 13.7128 20.9501C13.7212 20.2356 13.7212 19.5816 13.7128 18.9881C13.7116 18.9782 13.7127 18.9682 13.7159 18.9587C13.7192 18.9493 13.7245 18.9407 13.7315 18.9335C13.7385 18.9264 13.747 18.9209 13.7564 18.9175C13.7658 18.9141 13.7758 18.9128 13.7858 18.9138H14.6565C14.6743 18.9138 14.6914 18.9208 14.7039 18.9334C14.7165 18.946 14.7235 18.963 14.7235 18.9808C14.7235 19.835 14.7235 20.717 14.7235 21.6266C14.7215 22.3367 15.4382 22.5731 16.0264 22.4639Z" fill="#04566B"/>
<path d="M19.3508 22.8718C19.35 22.8884 19.343 22.9041 19.3313 22.9159C19.3195 22.9277 19.3038 22.9346 19.2872 22.9354H18.5396C18.5224 22.9355 18.5059 22.9289 18.4934 22.917C18.481 22.9052 18.4735 22.889 18.4727 22.8718V18.9801C18.4727 18.9623 18.4797 18.9453 18.4923 18.9327C18.5048 18.9201 18.5219 18.9131 18.5396 18.9131H19.2872C19.3044 18.9139 19.3205 18.9214 19.3324 18.9339C19.3442 18.9463 19.3508 18.9629 19.3508 18.9801V22.8718Z" fill="#04566B"/>
<path d="M21.0449 19.9484L21.0415 22.8662C21.0428 22.8747 21.042 22.8833 21.0393 22.8914C21.0366 22.8996 21.0321 22.9069 21.026 22.913C21.02 22.919 21.0126 22.9236 21.0045 22.9263C20.9963 22.929 20.9877 22.9297 20.9792 22.9285H20.5103C20.4926 22.9285 20.4755 22.9214 20.463 22.9089C20.4504 22.8963 20.4434 22.8793 20.4434 22.8615V18.9624C20.4434 18.949 20.4486 18.9362 20.458 18.9266C20.4674 18.9171 20.4802 18.9117 20.4936 18.9115H21.3939C21.4133 18.9114 21.4324 18.9157 21.4499 18.9241C21.4674 18.9324 21.4828 18.9446 21.495 18.9597C22.1202 19.73 22.7677 20.5298 23.4375 21.3591C23.4441 21.3674 23.4526 21.3741 23.4623 21.3785C23.4646 21.3796 23.4671 21.3803 23.4696 21.3804C23.4721 21.3805 23.4747 21.3801 23.477 21.3793C23.4794 21.3784 23.4816 21.377 23.4834 21.3753C23.4853 21.3735 23.4868 21.3714 23.4878 21.3691C23.4884 21.3665 23.4884 21.3637 23.4878 21.3611V18.9939C23.4861 18.9824 23.4871 18.9707 23.4907 18.9597C23.4944 18.9487 23.5005 18.9387 23.5087 18.9305C23.5169 18.9223 23.527 18.9161 23.538 18.9125C23.549 18.9088 23.5607 18.9078 23.5722 18.9095H24.096C24.1102 18.9098 24.1237 18.9157 24.1337 18.9258C24.1437 18.9359 24.1494 18.9495 24.1496 18.9637V22.8769C24.1496 22.8838 24.1482 22.8907 24.1455 22.8971C24.1429 22.9035 24.1389 22.9092 24.134 22.9141C24.1291 22.919 24.1233 22.9228 24.1168 22.9254C24.1104 22.928 24.1036 22.9293 24.0966 22.9292H23.5963C23.5756 22.9292 23.5551 22.9246 23.5364 22.9158C23.5176 22.907 23.501 22.8942 23.4878 22.8783L21.0817 19.9357C21.0798 19.9337 21.0775 19.9322 21.075 19.9311C21.0724 19.9301 21.0697 19.9295 21.067 19.9295C21.0642 19.9295 21.0615 19.9301 21.059 19.9311C21.0565 19.9322 21.0542 19.9337 21.0522 19.9357C21.0502 19.9372 21.0485 19.9391 21.0473 19.9413C21.046 19.9435 21.0452 19.9459 21.0449 19.9484Z" fill="#04566B"/>
<path d="M27.0113 19.4845L27.0073 22.8799C27.0073 22.8944 27.0015 22.9084 26.9912 22.9187C26.9809 22.929 26.967 22.9348 26.9524 22.9348L26.0555 22.9388C26.0409 22.9388 26.0269 22.933 26.0166 22.9227C26.0063 22.9124 26.0006 22.8984 26.0006 22.8839V19.4878C26.0006 19.4734 25.9949 19.4595 25.9847 19.4492C25.9745 19.4389 25.9607 19.4331 25.9463 19.4329L24.7888 19.4255C24.7743 19.4255 24.7603 19.4197 24.75 19.4094C24.7397 19.3991 24.7339 19.3852 24.7339 19.3706V18.9687C24.7338 18.9615 24.7351 18.9543 24.7378 18.9476C24.7405 18.9409 24.7445 18.9348 24.7495 18.9296C24.7545 18.9245 24.7605 18.9204 24.7672 18.9175C24.7738 18.9147 24.7809 18.9132 24.7881 18.9131H28.0864C28.101 18.9131 28.115 18.9189 28.1253 18.9292C28.1356 18.9395 28.1413 18.9534 28.1413 18.968V19.3766C28.1413 19.3912 28.1356 19.4052 28.1253 19.4155C28.115 19.4258 28.101 19.4315 28.0864 19.4315H27.0663C27.0517 19.4315 27.0377 19.4373 27.0274 19.4476C27.0171 19.4579 27.0113 19.4719 27.0113 19.4865V19.4845Z" fill="#04566B"/>
<path d="M29.7068 19.4313C29.6977 19.4313 29.689 19.4349 29.6826 19.4413C29.6762 19.4477 29.6726 19.4564 29.6726 19.4655V20.5031C29.6726 20.5208 29.6797 20.5379 29.6922 20.5504C29.7048 20.563 29.7218 20.57 29.7396 20.57H31.4638C31.4678 20.5694 31.472 20.5697 31.4759 20.5709C31.4798 20.5721 31.4834 20.5743 31.4863 20.5771C31.4892 20.58 31.4915 20.5835 31.4928 20.5874C31.4941 20.5913 31.4945 20.5954 31.4939 20.5995V21.0389C31.4944 21.0432 31.494 21.0475 31.4926 21.0516C31.4912 21.0557 31.4889 21.0594 31.4859 21.0624C31.4828 21.0654 31.4791 21.0677 31.4751 21.0691C31.471 21.0705 31.4667 21.0709 31.4624 21.0704H29.7563C29.7345 21.0704 29.7135 21.0791 29.6981 21.0945C29.6826 21.11 29.674 21.1309 29.674 21.1528V22.3585C29.674 22.3763 29.681 22.3933 29.6936 22.4059C29.7061 22.4184 29.7232 22.4255 29.7409 22.4255H31.5013C31.5061 22.4248 31.511 22.4252 31.5155 22.4268C31.5201 22.4283 31.5243 22.4309 31.5277 22.4344C31.5311 22.4379 31.5336 22.4421 31.5351 22.4467C31.5365 22.4513 31.5369 22.4562 31.5361 22.461V22.895C31.5369 22.9001 31.5365 22.9052 31.5349 22.91C31.5334 22.9149 31.5307 22.9193 31.5271 22.9229C31.5235 22.9265 31.5191 22.9292 31.5143 22.9307C31.5094 22.9323 31.5043 22.9327 31.4993 22.9319H29.0209C28.9498 22.9319 28.8817 22.9036 28.8314 22.8534C28.7812 22.8032 28.7529 22.735 28.7529 22.6639V19.1808C28.7529 19.1097 28.7812 19.0416 28.8314 18.9913C28.8817 18.9411 28.9498 18.9129 29.0209 18.9129H31.508C31.5118 18.9123 31.5157 18.9126 31.5194 18.9139C31.523 18.9151 31.5264 18.9171 31.5291 18.9199C31.5318 18.9226 31.5339 18.9259 31.5351 18.9296C31.5363 18.9333 31.5367 18.9372 31.5361 18.941V19.4052C31.5362 19.4086 31.5356 19.4121 31.5343 19.4153C31.533 19.4185 31.5311 19.4214 31.5287 19.4239C31.5262 19.4263 31.5233 19.4282 31.5201 19.4295C31.5169 19.4308 31.5134 19.4314 31.51 19.4313H29.7068Z" fill="#04566B"/>
<path d="M33.5405 22.9345H32.513C32.51 22.9345 32.5071 22.9339 32.5043 22.9328C32.5015 22.9317 32.499 22.93 32.4969 22.9279C32.4948 22.9257 32.4931 22.9232 32.492 22.9205C32.4908 22.9177 32.4902 22.9147 32.4902 22.9118V18.9329C32.4902 18.9269 32.4926 18.9211 32.4969 18.9168C32.5012 18.9126 32.507 18.9102 32.513 18.9102H33.5419C33.5479 18.9102 33.5537 18.9126 33.558 18.9168C33.5623 18.9211 33.5646 18.9269 33.5646 18.9329V20.4066C33.5646 20.4126 33.5671 20.4184 33.5713 20.4227C33.5756 20.4269 33.5814 20.4293 33.5874 20.4293C33.5906 20.4294 33.5937 20.4287 33.5966 20.4275C33.5995 20.4262 33.6021 20.4243 33.6042 20.422L34.9941 18.9242C34.9962 18.9219 34.9988 18.92 35.0017 18.9187C35.0045 18.9175 35.0077 18.9168 35.0108 18.9169H35.7088C35.7148 18.9169 35.7206 18.9193 35.7249 18.9235C35.7292 18.9278 35.7316 18.9336 35.7316 18.9396C35.7316 18.9425 35.7311 18.9453 35.7301 18.9479C35.7291 18.9506 35.7275 18.953 35.7255 18.955L34.0563 20.7931C34.0525 20.7973 34.0503 20.8028 34.0503 20.8085C34.0503 20.8142 34.0525 20.8197 34.0563 20.8239L35.9935 22.893C35.9977 22.8973 36.0001 22.903 36.0001 22.9091C36.0001 22.9151 35.9977 22.9209 35.9935 22.9252C35.9914 22.9271 35.989 22.9287 35.9864 22.9297C35.9837 22.9307 35.9809 22.9312 35.9781 22.9312L35.1193 22.9365C35.1162 22.9366 35.1131 22.9359 35.1102 22.9347C35.1073 22.9334 35.1047 22.9315 35.1026 22.9292L33.6075 21.2713C33.6033 21.2671 33.5975 21.2647 33.5914 21.2647C33.5854 21.2647 33.5796 21.2671 33.5754 21.2713C33.5731 21.2733 33.5712 21.2758 33.5699 21.2786C33.5687 21.2813 33.568 21.2844 33.568 21.2874V22.9131C33.5679 22.9164 33.567 22.9197 33.5655 22.9226C33.564 22.9256 33.5619 22.9282 33.5593 22.9302C33.5566 22.9322 33.5536 22.9337 33.5504 22.9344C33.5471 22.9352 33.5438 22.9352 33.5405 22.9345Z" fill="#04566B"/>
<circle cx="20" cy="20" r="19.5" stroke="black" stroke-opacity="0.05"/>
</svg>
