<svg width="40" height="40" viewBox="0 0 40 40" fill="none" xmlns="http://www.w3.org/2000/svg">
<circle cx="20" cy="20" r="20" fill="#0A2872"/>
<g clip-path="url(#clip0_14382_18550)">
<path d="M17.1652 18.6921H15.6792V18.7306C15.6792 18.9001 15.6238 19.0627 15.5555 19.2412C15.5555 19.2412 14.2338 22.6148 14.1837 22.7448C14.1293 22.6168 12.6294 19.0972 12.6294 19.0972L12.6045 19.0411C12.5594 18.9406 12.5136 18.8374 12.5136 18.7306V18.7001L12.4844 18.6921H10.8708V18.7665L10.8897 18.7757C11.1962 18.8875 11.2414 19.2956 11.2414 19.5298L11.2407 23.0583C11.2407 23.4674 11.1966 23.9246 10.8658 24.2152L10.8562 24.2255V24.2925H12.2874V24.2188L12.2695 24.2099C11.9563 24.0709 11.9301 23.7165 11.9301 23.3792V23.276L11.9308 23.1765C11.9308 23.1765 11.9331 19.9707 11.9331 19.7017C12.0376 19.9518 13.4751 23.3656 13.4751 23.3656C13.6847 23.8506 13.8098 24.0795 14.2262 24.3956L14.2573 24.4195C14.2573 24.4195 15.9937 19.979 16.1006 19.7037C16.1006 19.9929 16.0992 23.6057 16.0992 23.6057C16.0992 23.8665 16.0594 24.12 15.7758 24.2099L15.7545 24.2158V24.2925H17.3639V24.2218L17.3513 24.2125C17.0633 24.0115 16.9343 23.7544 16.9343 23.3785V19.2428C16.9343 19.1503 16.9522 18.8404 17.1751 18.7757L17.196 18.7684V18.6921H17.1662H17.1652Z" fill="white"/>
<path d="M18.329 21.7147C18.329 20.1698 19.582 18.9164 21.1296 18.9164C21.9265 18.9164 22.6451 19.2508 23.1543 19.7872C22.5943 18.9333 21.6293 18.37 20.5295 18.37C18.7951 18.37 17.3904 19.774 17.3904 21.509C17.3904 23.2441 18.7951 24.6481 20.5295 24.6481C20.8808 24.6481 21.2189 24.5867 21.534 24.4812C21.401 24.5011 21.267 24.5137 21.1293 24.5137C19.5817 24.5137 18.3286 23.2607 18.3286 21.7144L18.329 21.7147Z" fill="#EE3E33"/>
<path d="M21.3217 19.2588C20.3543 19.1699 19.4689 19.6602 19.0004 20.4398C19.4357 19.9379 20.0965 19.6423 20.8091 19.708C21.9832 19.8141 22.8484 20.8539 22.7406 22.0259C22.6338 23.2007 21.5954 24.0652 20.42 23.9581C20.2588 23.9435 20.1015 23.9093 19.9526 23.8599C20.2309 24.0078 20.5428 24.1037 20.8765 24.1356C22.2234 24.257 23.4151 23.266 23.5378 21.9185C23.6622 20.5729 22.6696 19.3812 21.322 19.2588H21.3217Z" fill="#EE3E33"/>
<path d="M26.5816 21.0307C27.1101 20.7789 27.3709 20.4226 27.3709 19.9419C27.3709 19.1599 26.7014 18.6921 25.5817 18.6921H23.5567V18.7665L23.5753 18.7757C23.9415 18.9108 23.9329 19.411 23.9279 19.7773L23.9266 19.901V23.0743L23.9279 23.1897C23.9322 23.5629 23.9376 24.0722 23.5746 24.2099L23.5567 24.2168V24.2925H25.1156C25.7095 24.2948 26.3225 24.2955 26.8739 24.0284C27.4989 23.7298 27.9004 23.141 27.9004 22.5275C27.9004 21.7957 27.3961 21.2307 26.5816 21.0307ZM24.8446 19.3291C24.893 19.3241 25.3827 19.2724 25.3827 19.2724C25.6676 19.2438 25.9523 19.3321 26.1467 19.5063C26.3076 19.6522 26.3929 19.851 26.3929 20.0789C26.3929 20.883 25.3094 20.9235 25.0924 20.9235H24.8442V19.3294L24.8446 19.3291ZM26.6062 23.3367C26.3577 23.5626 25.9729 23.6681 25.5522 23.627C25.5522 23.627 24.9693 23.5732 24.8446 23.5626V21.5366C24.8963 21.5346 25.4056 21.5051 25.4056 21.5051C25.883 21.4785 26.3302 21.6156 26.6022 21.873C26.8056 22.0644 26.9081 22.3106 26.9081 22.6042C26.9081 22.8978 26.8066 23.1565 26.6058 23.3364L26.6062 23.3367Z" fill="white"/>
<path d="M29.7137 18.6921H28.0835V18.7665L28.1031 18.7757C28.4677 18.9108 28.461 19.4147 28.4557 19.7819L28.4544 19.9097V23.0849L28.4557 23.196C28.4594 23.5689 28.466 24.0798 28.1031 24.2099L28.0835 24.2168V24.2925H29.7433V24.2168L29.723 24.2099C29.3604 24.0722 29.3671 23.5663 29.3707 23.196L29.372 23.0849V19.9097L29.3707 19.7975C29.3671 19.4237 29.3607 18.9131 29.723 18.7741L29.7433 18.7665V18.6921H29.7137Z" fill="white"/>
<path d="M30.0843 20.0533C30.0843 21.0327 30.9505 21.4195 31.7165 21.7629C32.3664 22.0525 32.9812 22.3288 32.9812 22.9157C32.9812 23.4674 32.2994 23.762 31.8074 23.762C31.1648 23.762 30.4831 23.5026 29.9818 23.07L29.9135 23.0106L30.1812 24.1667L30.1968 24.1721C30.6556 24.3413 31.1648 24.4272 31.7142 24.4272C32.9755 24.4272 34.0007 23.6313 34.0007 22.6543C34.0007 21.7974 33.1354 21.4019 32.3717 21.0536C31.7198 20.756 31.1035 20.4743 31.1035 19.9601C31.1035 19.416 31.6721 19.2236 32.1604 19.2236C32.6488 19.2236 33.152 19.4273 33.4616 19.7448L33.5113 19.7976V18.7505L33.4914 18.7446C33.0953 18.6208 32.6697 18.5571 32.2284 18.5571C31.2381 18.5571 30.0846 18.9479 30.0846 20.0533H30.0843Z" fill="white"/>
<path d="M7.68863 15.9611H6.53943V15H6V17.4616H6.53943V16.4421H7.68863V17.4616H8.22806V15H7.68863V15.9611Z" fill="white"/>
<path d="M19.4061 15.1407C19.2933 15.2558 19.289 15.4253 19.2857 15.5238V17.4616H19.8248V16.6757H20.9697V17.4616H21.5104V15H19.8285C19.6692 15.002 19.5186 15.0245 19.4061 15.1407ZM19.9618 15.4807H20.9697V16.1953H19.8248V15.6214C19.8268 15.5932 19.8212 15.5421 19.845 15.5116C19.8706 15.4794 19.9107 15.4827 19.9618 15.4807Z" fill="white"/>
<path d="M15.5896 15H13.9047V17.4616H14.4444V15.481H15.4563C15.5067 15.483 15.5475 15.4797 15.5727 15.5119C15.5973 15.5424 15.593 15.5935 15.5936 15.6217V17.4619H16.1327V15.5238C16.1297 15.4253 16.1261 15.2558 16.013 15.1407C15.8998 15.0242 15.7505 15.0017 15.5896 15Z" fill="white"/>
<path d="M12.8882 16.8399C12.8869 16.8684 12.8918 16.9185 12.8673 16.9487C12.8421 16.9812 12.8009 16.9786 12.7508 16.9796H11.7393V15H11.1999V17.4616H12.8845C13.0451 17.46 13.1944 17.4361 13.3069 17.3203C13.4197 17.2048 13.4243 17.0363 13.4276 16.9374V15H12.8882V16.8399Z" fill="white"/>
<path d="M18.8382 15.5238C18.8359 15.4253 18.8315 15.2558 18.7187 15.1407C18.6066 15.0242 18.4563 15.0017 18.2968 15H16.6115V17.4616H18.2968C18.4563 17.46 18.6063 17.4361 18.7187 17.3203C18.8315 17.2048 18.8359 17.0363 18.8382 16.9374V15.5238ZM18.3011 16.8399C18.2987 16.8684 18.3041 16.9185 18.2805 16.9487C18.255 16.9812 18.2142 16.9786 18.1634 16.9796H17.1509V15.481H18.1634C18.2142 15.483 18.255 15.4797 18.2805 15.5119C18.3044 15.5424 18.2987 15.5935 18.3011 15.6217V16.8402V16.8399Z" fill="white"/>
<path d="M9.714 16.0769L9.05978 15H8.41949L9.42537 16.5523V17.4616H10.002V16.5523L11.0095 15H10.3682L9.714 16.0769Z" fill="white"/>
<path d="M22.6265 15H22.0509V17.4616H22.6265V15Z" fill="white"/>
</g>
<circle cx="20" cy="20" r="19.5" stroke="black" stroke-opacity="0.05"/>
<defs>
<clipPath id="clip0_14382_18550">
<rect width="28" height="9.64806" fill="white" transform="translate(6 15)"/>
</clipPath>
</defs>
</svg>
