<svg width="40" height="40" viewBox="0 0 40 40" fill="none" xmlns="http://www.w3.org/2000/svg">
<circle cx="20" cy="20" r="20" fill="#00AAFF"/>
<g clip-path="url(#clip0_14382_19744)">
<path d="M11.6451 21.2002C11.056 21.2002 10.5782 20.7229 10.5782 20.1335C10.5782 19.5442 11.056 19.0667 11.6451 19.0667C12.2342 19.0667 12.7122 19.5442 12.7122 20.1335C12.7122 20.7228 12.2342 21.2002 11.6451 21.2002ZM11.6451 18.0001C10.4668 18.0001 9.51172 18.9552 9.51172 20.1335C9.51172 21.312 10.4668 22.2671 11.6451 22.2671C12.8235 22.2671 13.7786 21.312 13.7786 20.1335C13.7786 18.9552 12.8235 18.0001 11.6451 18.0001ZM24.621 21.2002C24.0319 21.2002 23.554 20.7229 23.554 20.1335C23.554 19.5442 24.0319 19.0667 24.621 19.0667C25.2101 19.0667 25.6881 19.5442 25.6881 20.1335C25.6881 20.7228 25.2101 21.2002 24.621 21.2002ZM24.621 18.0001C23.4427 18.0001 22.4876 18.9552 22.4876 20.1335C22.4876 21.312 23.4427 22.2671 24.621 22.2671C25.7994 22.2671 26.7545 21.312 26.7545 20.1335C26.7545 18.9552 25.7994 18.0001 24.621 18.0001Z" fill="white"/>
<path d="M7.90288 20.1392C7.90288 20.8103 7.46498 21.1905 6.80551 21.1905H6.35661V19.0762H6.80556C7.46498 19.0762 7.90288 19.4622 7.90288 20.1274V20.1392ZM6.78856 18.1438H5.18008L5.04929 18.1437V18.1438C5.03636 18.1438 5.02343 18.1486 5.01377 18.1587C4.99381 18.1783 4.99708 18.2086 5.01377 18.2298C5.03015 18.2511 5.2083 18.4796 5.2083 18.4796C5.24307 18.5244 5.254 18.5491 5.254 18.6185V22.0727C5.254 22.1006 5.27645 22.1232 5.3045 22.1232L6.76576 22.1233C8.19828 22.1233 9.03389 21.2706 9.03389 20.122V20.1107C9.03389 18.9624 8.20999 18.1438 6.78856 18.1438ZM22.1292 21.2416C22.1292 21.2136 22.1067 21.1911 22.0787 21.1911H22.0512L22.0509 21.1909H20.1344L22.0833 18.9968C22.1182 18.9519 22.1292 18.9276 22.1292 18.8581V18.1943C22.1292 18.1663 22.1065 18.1438 22.0787 18.1438H18.729C18.7224 18.1438 18.7158 18.1451 18.7097 18.1476C18.7036 18.1502 18.698 18.1539 18.6933 18.1586C18.6886 18.1633 18.6849 18.1688 18.6824 18.175C18.6798 18.1811 18.6785 18.1877 18.6785 18.1943V19.0255C18.6785 19.0535 18.7011 19.0759 18.729 19.0759H20.606L18.6561 21.2702C18.6211 21.3149 18.6102 21.3394 18.6102 21.409V22.0728C18.6102 22.1009 18.6328 22.1233 18.6608 22.1233H22.0787C22.1067 22.1233 22.1292 22.1009 22.1292 22.0728V21.2416ZM18.0417 18.1943C18.0417 18.1664 18.0192 18.1438 17.9912 18.1438L16.7172 18.1436V18.1438C16.7106 18.1438 16.7041 18.1451 16.698 18.1476C16.6919 18.1502 16.6863 18.1539 16.6817 18.1587C16.662 18.1784 16.6656 18.209 16.6817 18.2298L16.8764 18.4796C16.9113 18.5244 16.9221 18.5491 16.9221 18.6184V20.3835C16.9221 20.9405 16.6323 21.2024 16.1889 21.2024C15.7453 21.2024 15.4553 20.9292 15.4553 20.3551V18.1943C15.4553 18.1663 15.4329 18.1438 15.405 18.1438L14.131 18.1436V18.1438C14.1244 18.1438 14.1178 18.1451 14.1117 18.1476C14.1056 18.1502 14.1001 18.1539 14.0955 18.1587C14.0757 18.1784 14.0795 18.2095 14.0955 18.2298C14.1112 18.2501 14.29 18.4796 14.29 18.4796H14.2898C14.3248 18.5244 14.3355 18.5491 14.3355 18.6184V20.3779C14.3355 21.6228 15.0463 22.1971 16.1776 22.1971C17.3086 22.1971 18.0417 21.6344 18.0417 20.3495L18.0417 18.1943ZM31.018 18.1438L29.7412 18.1436V18.1438C29.7283 18.1438 29.7155 18.1486 29.7055 18.1587C29.6859 18.1784 29.6868 18.2055 29.7055 18.2298C29.7246 18.2539 29.9313 18.5196 29.9313 18.5196C29.9661 18.5644 29.9772 18.5889 29.9772 18.6583V20.2469L28.3922 18.2108C28.3568 18.1656 28.3249 18.1493 28.27 18.1438L27.1071 18.1436V18.1438C27.094 18.1438 27.0812 18.1486 27.0713 18.1587C27.0515 18.1784 27.0531 18.2064 27.0713 18.2298L27.2656 18.4794L27.2654 18.4796C27.3002 18.5244 27.3112 18.549 27.3112 18.6184L27.3111 22.0728C27.3111 22.0794 27.3124 22.086 27.3149 22.0921C27.3174 22.0982 27.3211 22.1038 27.3258 22.1085C27.3305 22.1132 27.336 22.1169 27.3421 22.1195C27.3483 22.122 27.3548 22.1233 27.3615 22.1233H28.3521C28.3588 22.1233 28.3653 22.122 28.3715 22.1195C28.3776 22.1169 28.3831 22.1132 28.3878 22.1085C28.3925 22.1038 28.3962 22.0982 28.3987 22.0921C28.4012 22.086 28.4025 22.0794 28.4025 22.0728V19.9401L30.0481 22.0537C30.0961 22.1153 30.1505 22.1233 30.2532 22.1233H31.018C31.0246 22.1233 31.0312 22.122 31.0373 22.1195C31.0435 22.1169 31.049 22.1132 31.0537 22.1085C31.0584 22.1038 31.0621 22.0982 31.0646 22.0921C31.0671 22.086 31.0684 22.0794 31.0683 22.0728V18.1941C31.0684 18.1875 31.0671 18.181 31.0645 18.1749C31.062 18.1687 31.0583 18.1632 31.0536 18.1585C31.049 18.1538 31.0434 18.1501 31.0373 18.1476C31.0312 18.1451 31.0246 18.1438 31.018 18.1438ZM34.9494 18.1438L31.6196 18.1436V18.1438C31.6068 18.1438 31.5938 18.1486 31.584 18.1587C31.5644 18.1784 31.5646 18.2048 31.584 18.2298C31.6034 18.2548 31.7784 18.4796 31.7784 18.4796C31.8135 18.5244 31.8244 18.549 31.8244 18.6184V22.0728C31.8244 22.0794 31.8257 22.086 31.8282 22.0921C31.8307 22.0982 31.8344 22.1038 31.8391 22.1085C31.8438 22.1132 31.8493 22.1169 31.8555 22.1195C31.8616 22.122 31.8681 22.1233 31.8748 22.1233H34.9494C34.9772 22.1233 34.9999 22.1009 34.9999 22.0728V21.2416C34.9999 21.2136 34.9772 21.191 34.9494 21.191H32.9269V20.5499H34.7413C34.7694 20.5499 34.7918 20.5273 34.7918 20.4993V19.7675C34.7918 19.7397 34.7694 19.7172 34.7413 19.7172H32.9269V19.0759H34.9494C34.9772 19.0759 34.9999 19.0535 34.9999 19.0255V18.1941C34.9999 18.1663 34.9772 18.1438 34.9494 18.1438Z" fill="white"/>
</g>
<circle cx="20" cy="20" r="19.5" stroke="black" stroke-opacity="0.05"/>
<defs>
<clipPath id="clip0_14382_19744">
<rect width="30" height="4.26708" fill="white" transform="translate(5 18)"/>
</clipPath>
</defs>
</svg>
