<svg width="40" height="40" viewBox="0 0 40 40" fill="none" xmlns="http://www.w3.org/2000/svg">
<circle cx="20" cy="20" r="20" fill="#F6F8FA"/>
<path d="M9.1549 9.1267C13.0091 8.62087 16.8416 9.64222 19.9431 11.9644C19.9762 11.9894 20.0097 11.9894 20.0436 11.9644C23.2964 9.58373 26.9304 8.63781 30.9455 9.1267C30.9606 9.12849 30.9745 9.13577 30.9846 9.14716C30.9946 9.15854 31.0001 9.17323 31 9.18842V30.2724C31 30.3127 30.9798 30.3329 30.9395 30.3329H9.05688C9.04179 30.3329 9.02732 30.3269 9.01666 30.3162C9.00599 30.3055 9 30.2911 9 30.276L9.00363 9.27192C9.00363 9.25511 9.0065 9.23872 9.0121 9.22351C9.0476 9.13558 9.08229 9.10089 9.11617 9.11944C9.12827 9.1259 9.14118 9.12832 9.1549 9.1267ZM14.2084 16.8872C14.2026 16.8962 14.1945 16.9036 14.1849 16.9085C14.1754 16.9133 14.1647 16.9156 14.154 16.915C14.1432 16.9143 14.1329 16.9109 14.1239 16.9049C14.115 16.899 14.1078 16.8908 14.1031 16.8812C13.7316 16.0946 12.6352 16.0885 12.1342 16.6803C12.039 16.7924 11.9942 16.7747 11.9999 16.627L12.0072 16.3874C12.0088 16.3487 11.9902 16.3297 11.9515 16.3306L11.3174 16.3378C11.2722 16.3378 11.2496 16.3608 11.2496 16.4068V19.8242C11.2496 19.8597 11.2678 19.877 11.3041 19.8762L11.9503 19.8641C11.9922 19.8633 12.0128 19.8423 12.012 19.8012C12.0031 19.1437 12.0031 18.5112 12.012 17.9037C12.0265 16.8424 13.5162 16.6633 13.5501 17.7718C13.5686 18.3648 13.5714 19.0384 13.5585 19.7927C13.5584 19.8041 13.5605 19.8155 13.5648 19.8261C13.569 19.8367 13.5754 19.8462 13.5834 19.8543C13.5914 19.8623 13.601 19.8686 13.6115 19.8728C13.622 19.877 13.6332 19.879 13.6444 19.8786L14.2398 19.8677C14.2527 19.8676 14.2654 19.8649 14.2772 19.8597C14.2891 19.8546 14.2998 19.8472 14.3088 19.8378C14.3178 19.8285 14.3249 19.8175 14.3296 19.8054C14.3344 19.7933 14.3368 19.7803 14.3366 19.7673C14.3205 19.0574 14.3205 18.4164 14.3366 17.8444C14.3657 16.8473 15.7972 16.6718 15.8614 17.7512C15.8928 18.2797 15.8949 18.963 15.8674 19.8012C15.8671 19.811 15.8688 19.8208 15.8724 19.83C15.8761 19.8392 15.8816 19.8475 15.8886 19.8545C15.8956 19.8615 15.904 19.8671 15.9133 19.8708C15.9225 19.8745 15.9325 19.8764 15.9425 19.8762L16.5548 19.8665C16.577 19.8659 16.5981 19.8566 16.6135 19.8408C16.6289 19.8249 16.6374 19.8038 16.6371 19.7818C16.6347 19.1743 16.6342 18.5475 16.6359 17.9013C16.6383 17.2091 16.412 16.4516 15.6532 16.3088C15.0038 16.1861 14.5222 16.379 14.2084 16.8872ZM19.0061 19.9573C19.4824 19.9589 19.9398 19.7655 20.2778 19.4194C20.6158 19.0734 20.8066 18.6031 20.8083 18.1121C20.8101 17.621 20.6225 17.1494 20.2869 16.801C19.9514 16.4527 19.4953 16.256 19.019 16.2543C18.5427 16.2527 18.0853 16.4461 17.7473 16.7922C17.4093 17.1382 17.2184 17.6085 17.2167 18.0995C17.215 18.5906 17.4026 19.0622 17.7381 19.4106C18.0737 19.759 18.5298 19.9556 19.0061 19.9573ZM22.1649 16.7263C22.1423 16.6399 22.1359 16.5512 22.1455 16.46C22.1544 16.3761 22.1169 16.3346 22.033 16.3354L21.509 16.3427C21.4437 16.3435 21.411 16.3761 21.411 16.4407L21.4074 19.8024C21.4074 19.8213 21.4149 19.8395 21.4283 19.8529C21.4417 19.8663 21.4598 19.8738 21.4788 19.8738L22.0717 19.8726C22.0823 19.8726 22.0928 19.8705 22.1026 19.8664C22.1123 19.8623 22.1212 19.8563 22.1286 19.8488C22.1361 19.8412 22.1419 19.8323 22.1459 19.8224C22.1498 19.8126 22.1518 19.8021 22.1516 19.7915C22.1459 19.2268 22.1464 18.6253 22.1528 17.9872C22.1576 17.4499 22.386 17.1321 22.8377 17.0336C23.3956 16.9126 23.7417 17.2878 23.7526 17.8238C23.7655 18.4709 23.7627 19.1263 23.7441 19.7903C23.7425 19.846 23.7699 19.8738 23.8264 19.8738L24.4303 19.8714C24.4803 19.8714 24.5053 19.8464 24.5053 19.7963C24.5166 18.9436 24.5089 18.1949 24.4823 17.5504C24.4375 16.4842 23.5045 15.9917 22.5618 16.437C22.4384 16.4963 22.3319 16.6476 22.2351 16.7456C22.2004 16.7811 22.177 16.7747 22.1649 16.7263ZM27.9856 16.7154C27.9853 16.7231 27.9827 16.7306 27.9781 16.7369C27.9736 16.7431 27.9672 16.7478 27.9599 16.7505C27.9526 16.7531 27.9447 16.7534 27.9372 16.7515C27.9297 16.7495 27.9229 16.7454 27.9178 16.7396C27.4459 16.1769 26.6061 16.1563 25.9877 16.4915C24.9204 17.0711 24.832 18.7689 25.7106 19.5253C26.3047 20.0384 27.3091 20.1352 27.8755 19.5144C27.9634 19.4184 28.005 19.4353 28.0001 19.5652C27.9969 19.6257 27.99 19.6878 27.9795 19.7516C27.965 19.8363 28.0005 19.8782 28.086 19.8774L28.6257 19.8738C28.7008 19.873 28.7383 19.8351 28.7383 19.76L28.7395 16.4189C28.7395 16.3616 28.7105 16.333 28.6524 16.333L28.0679 16.3342C28.013 16.335 27.9856 16.3624 27.9856 16.4165V16.7154ZM16.7351 21.7592C17.2304 21.6502 17.5616 21.7793 17.7286 22.1464C17.7867 22.2755 17.8819 22.3154 18.0142 22.2662C18.115 22.2291 18.2159 22.192 18.3167 22.1549C18.4603 22.1024 18.489 22.0129 18.4026 21.8862C18.0493 21.3643 17.6048 21.1069 17.0691 21.1142C16.719 21.119 16.4237 21.1981 16.1833 21.3513C15.5831 21.7362 15.4887 22.6232 16.1312 23.0116C16.5173 23.2452 17.0473 23.2839 17.4854 23.394C17.6983 23.4473 17.875 23.6687 17.8073 23.8914C17.7355 24.127 17.5443 24.252 17.2337 24.2665C16.7553 24.2891 16.4422 24.1241 16.2946 23.7716C16.268 23.7087 16.2216 23.6857 16.1554 23.7026L15.6678 23.8285C15.6024 23.8454 15.5798 23.8861 15.6 23.9507C15.7339 24.3944 16.0155 24.6747 16.4447 24.7917C17.1768 24.9914 18.3809 24.8861 18.5019 23.8902C18.6168 22.9366 17.6875 22.7394 16.959 22.628C16.6371 22.5784 16.2849 22.4066 16.4435 22.0072C16.4681 21.9453 16.5076 21.8903 16.5584 21.8471C16.6092 21.8039 16.6699 21.7737 16.7351 21.7592ZM21.866 21.6115C21.5167 21.2243 21.0322 21.0908 20.4127 21.211C19.7967 21.3296 19.2872 21.8487 19.1493 22.4392C18.9476 23.3073 19.1578 23.993 19.7798 24.4964C20.3521 24.9599 21.3493 24.9781 21.8454 24.3875C21.9261 24.2923 21.9652 24.3073 21.9628 24.4323L21.958 24.6574C21.9564 24.7316 21.9927 24.7691 22.0669 24.7699L22.6005 24.7748C22.6145 24.7749 22.6283 24.7723 22.6412 24.7671C22.6541 24.7619 22.6659 24.7542 22.6758 24.7444C22.6857 24.7346 22.6935 24.7229 22.6989 24.7101C22.7043 24.6972 22.707 24.6834 22.707 24.6695L22.7095 21.3538C22.7095 21.2634 22.6647 21.2186 22.5751 21.2194L22.0814 21.2243C22.0015 21.2251 21.9608 21.265 21.9592 21.3441L21.9543 21.5788C21.9527 21.6644 21.9233 21.6753 21.866 21.6115ZM14.9405 21.3102C14.9405 21.2858 14.9308 21.2624 14.9135 21.2452C14.8963 21.2279 14.8729 21.2182 14.8485 21.2182H14.2822C14.2578 21.2182 14.2344 21.2279 14.2171 21.2452C14.1999 21.2624 14.1902 21.2858 14.1902 21.3102V24.6792C14.1902 24.7036 14.1999 24.727 14.2171 24.7442C14.2344 24.7615 14.2578 24.7711 14.2822 24.7711H14.8485C14.8729 24.7711 14.8963 24.7615 14.9135 24.7442C14.9308 24.727 14.9405 24.7036 14.9405 24.6792V21.3102ZM12.0568 24.0862C12.0417 24.0862 12.0272 24.0802 12.0165 24.0696C12.0059 24.0589 11.9999 24.0444 11.9999 24.0293L12.0011 21.2812C12.0011 21.2737 11.9996 21.2663 11.9968 21.2594C11.9939 21.2525 11.9897 21.2462 11.9844 21.2409C11.9792 21.2357 11.9729 21.2315 11.966 21.2286C11.9591 21.2258 11.9517 21.2243 11.9442 21.2243L11.3077 21.2182C11.2926 21.2182 11.2781 21.2242 11.2675 21.2349C11.2568 21.2456 11.2508 21.26 11.2508 21.2751L11.2484 24.7143C11.2484 24.7217 11.2499 24.7291 11.2527 24.736C11.2556 24.7429 11.2598 24.7492 11.2651 24.7545C11.2703 24.7598 11.2766 24.764 11.2835 24.7668C11.2904 24.7697 11.2978 24.7711 11.3053 24.7711L13.4061 24.7627C13.4211 24.7627 13.4356 24.7567 13.4463 24.746C13.4569 24.7354 13.4629 24.7209 13.4629 24.7058L13.4666 24.1358C13.4666 24.1207 13.4606 24.1063 13.4499 24.0956C13.4392 24.0849 13.4248 24.079 13.4097 24.079L12.0568 24.0862ZM23.9764 24.804C24.1132 24.8124 24.2478 24.764 24.3507 24.6696C24.4535 24.5752 24.5162 24.4424 24.5249 24.3005C24.5336 24.1586 24.4875 24.0192 24.397 23.9129C24.3064 23.8066 24.1786 23.7422 24.0419 23.7339C23.9051 23.7255 23.7704 23.7739 23.6676 23.8683C23.5647 23.9627 23.5021 24.0955 23.4934 24.2374C23.4847 24.3793 23.5307 24.5187 23.6213 24.625C23.7119 24.7313 23.8396 24.7957 23.9764 24.804Z" fill="#06B1A9"/>
<path d="M14.2087 16.8871C14.5226 16.3788 15.0042 16.186 15.6536 16.3087C16.4124 16.4514 16.6387 17.209 16.6362 17.9012C16.6346 18.5474 16.635 19.1742 16.6375 19.7817C16.6378 19.8036 16.6293 19.8248 16.6139 19.8407C16.5985 19.8565 16.5774 19.8658 16.5552 19.8664L15.9428 19.8761C15.9328 19.8763 15.9229 19.8744 15.9137 19.8707C15.9044 19.867 15.896 19.8614 15.889 19.8544C15.882 19.8474 15.8765 19.839 15.8728 19.8299C15.8692 19.8207 15.8675 19.8109 15.8678 19.8011C15.8953 18.9628 15.8932 18.2795 15.8618 17.7511C15.7976 16.6717 14.3661 16.8472 14.337 17.8443C14.3209 18.4163 14.3209 19.0572 14.337 19.7672C14.3372 19.7802 14.3348 19.7931 14.33 19.8052C14.3252 19.8173 14.3182 19.8284 14.3092 19.8377C14.3002 19.847 14.2895 19.8545 14.2776 19.8596C14.2658 19.8647 14.2531 19.8675 14.2402 19.8676L13.6448 19.8785C13.6336 19.8788 13.6223 19.8769 13.6119 19.8727C13.6014 19.8685 13.5918 19.8622 13.5838 19.8542C13.5758 19.8461 13.5694 19.8365 13.5651 19.826C13.5609 19.8154 13.5587 19.804 13.5589 19.7926C13.5718 19.0383 13.569 18.3646 13.5504 17.7717C13.5166 16.6632 12.0269 16.8423 12.0124 17.9036C12.0035 18.5111 12.0035 19.1436 12.0124 19.8011C12.0132 19.8422 11.9926 19.8632 11.9507 19.864L11.3045 19.8761C11.2682 19.8769 11.25 19.8595 11.25 19.8241V16.4067C11.25 16.3607 11.2726 16.3377 11.3178 16.3377L11.9519 16.3304C11.9906 16.3296 12.0091 16.3486 12.0075 16.3873L12.0003 16.6269C11.9946 16.7745 12.0394 16.7923 12.1346 16.6802C12.6356 16.0884 13.732 16.0945 14.1035 16.881C14.1082 16.8907 14.1154 16.8989 14.1243 16.9048C14.1333 16.9108 14.1436 16.9142 14.1543 16.9148C14.1651 16.9155 14.1757 16.9132 14.1853 16.9083C14.1949 16.9035 14.203 16.8961 14.2087 16.8871Z" fill="white"/>
<path d="M19.0062 19.9573C18.5299 19.9556 18.0738 19.759 17.7382 19.4106C17.4027 19.0622 17.2151 18.5906 17.2168 18.0995C17.2185 17.6085 17.4094 17.1382 17.7474 16.7922C18.0853 16.4462 18.5428 16.2527 19.0191 16.2543C19.4954 16.256 19.9514 16.4527 20.287 16.8011C20.6226 17.1495 20.8101 17.621 20.8084 18.1121C20.8067 18.6031 20.6159 19.0734 20.2779 19.4194C19.9399 19.7655 19.4824 19.959 19.0062 19.9573ZM18.9821 19.1981C19.2599 19.2059 19.5296 19.0981 19.7318 18.8985C19.9339 18.6989 20.0521 18.4239 20.0602 18.1339C20.0642 17.9903 20.0411 17.8473 19.9921 17.7132C19.9432 17.579 19.8694 17.4563 19.7749 17.3521C19.6805 17.2478 19.5673 17.164 19.4417 17.1055C19.3162 17.047 19.1807 17.0149 19.0432 17.0111C18.7653 17.0033 18.4957 17.1111 18.2935 17.3107C18.0913 17.5103 17.9732 17.7853 17.9651 18.0753C17.9611 18.2189 17.9842 18.3619 18.0331 18.496C18.0821 18.6302 18.1558 18.7529 18.2503 18.8572C18.3447 18.9614 18.458 19.0452 18.5835 19.1037C18.7091 19.1622 18.8445 19.1943 18.9821 19.1981Z" fill="white"/>
<path d="M22.2349 16.7456C22.3318 16.6475 22.4382 16.4963 22.5617 16.437C23.5044 15.9916 24.4374 16.4842 24.4821 17.5503C24.5088 18.1949 24.5164 18.9435 24.5051 19.7963C24.5051 19.8463 24.4801 19.8713 24.4301 19.8713L23.8263 19.8737C23.7698 19.8737 23.7424 19.8459 23.744 19.7902C23.7625 19.1263 23.7653 18.4708 23.7524 17.8238C23.7415 17.2877 23.3955 16.9125 22.8376 17.0336C22.3858 17.132 22.1575 17.4498 22.1527 17.9871C22.1462 18.6253 22.1458 19.2267 22.1515 19.7914C22.1516 19.802 22.1497 19.8125 22.1457 19.8224C22.1418 19.8322 22.1359 19.8411 22.1285 19.8487C22.1211 19.8562 22.1122 19.8622 22.1024 19.8663C22.0927 19.8704 22.0822 19.8725 22.0716 19.8725L21.4786 19.8737C21.4597 19.8737 21.4415 19.8662 21.4281 19.8528C21.4147 19.8394 21.4072 19.8213 21.4072 19.8023L21.4109 16.4406C21.4109 16.3761 21.4435 16.3434 21.5089 16.3426L22.0329 16.3353C22.1168 16.3345 22.1543 16.3761 22.1454 16.46C22.1357 16.5511 22.1422 16.6399 22.1648 16.7262C22.1769 16.7746 22.2003 16.7811 22.2349 16.7456Z" fill="white"/>
<path d="M27.9859 16.7153V16.4164C27.9859 16.3623 28.0133 16.3349 28.0682 16.3341L28.6527 16.3329C28.7108 16.3329 28.7398 16.3615 28.7398 16.4188L28.7386 19.7599C28.7386 19.835 28.7011 19.8729 28.626 19.8737L28.0863 19.8773C28.0008 19.8781 27.9653 19.8362 27.9798 19.7515C27.9903 19.6877 27.9972 19.6256 28.0004 19.5651C28.0053 19.4352 27.9637 19.4183 27.8758 19.5143C27.3094 20.1351 26.305 20.0383 25.7109 19.5252C24.8323 18.7689 24.9207 17.0711 25.988 16.4914C26.6064 16.1562 27.4462 16.1768 27.9181 16.7395C27.9232 16.7453 27.93 16.7495 27.9375 16.7514C27.945 16.7533 27.9529 16.753 27.9602 16.7504C27.9675 16.7478 27.9739 16.743 27.9784 16.7368C27.983 16.7305 27.9856 16.723 27.9859 16.7153ZM26.9849 19.197C27.2667 19.1828 27.531 19.0537 27.7199 18.8383C27.9087 18.6228 28.0065 18.3387 27.9918 18.0483C27.9771 17.7579 27.851 17.485 27.6414 17.2898C27.4318 17.0945 27.1557 16.9928 26.874 17.0071C26.5922 17.0214 26.3279 17.1504 26.139 17.3659C25.9502 17.5813 25.8524 17.8655 25.8671 18.1559C25.8818 18.4463 26.0079 18.7191 26.2175 18.9144C26.4271 19.1096 26.7032 19.2113 26.9849 19.197Z" fill="white"/>
<path d="M17.9652 18.0753C17.9483 18.6792 18.4036 19.1819 18.9822 19.1981C19.5607 19.2142 20.0434 18.7377 20.0603 18.1338C20.0771 17.5299 19.6218 17.0272 19.0433 17.011C18.4647 16.9949 17.982 17.4713 17.9652 18.0753Z" fill="#06B1A9"/>
<path d="M25.8663 18.1558C25.897 18.7606 26.3974 19.2267 26.9841 19.197C27.5709 19.1673 28.0216 18.6529 27.991 18.0482C27.9604 17.4435 27.4599 16.9773 26.8732 17.0071C26.2865 17.0368 25.8357 17.5511 25.8663 18.1558Z" fill="#06B1A9"/>
<path d="M16.735 21.7592C16.6698 21.7737 16.6091 21.8039 16.5583 21.8472C16.5075 21.8904 16.468 21.9454 16.4434 22.0073C16.2848 22.4066 16.637 22.5785 16.9589 22.6281C17.6874 22.7394 18.6167 22.9367 18.5018 23.8902C18.3808 24.8862 17.1767 24.9915 16.4446 24.7918C16.0154 24.6748 15.7338 24.3945 15.5999 23.9507C15.5797 23.8862 15.6023 23.8455 15.6677 23.8285L16.1554 23.7027C16.2215 23.6857 16.2679 23.7087 16.2945 23.7716C16.4422 24.1242 16.7552 24.2892 17.2336 24.2666C17.5442 24.2521 17.7354 24.127 17.8072 23.8915C17.8749 23.6688 17.6983 23.4473 17.4853 23.3941C17.0472 23.284 16.5172 23.2452 16.1312 23.0117C15.4886 22.6232 15.583 21.7362 16.1832 21.3514C16.4236 21.1981 16.7189 21.1191 17.069 21.1142C17.6047 21.107 18.0492 21.3643 18.4025 21.8863C18.4889 22.0129 18.4602 22.1025 18.3166 22.1549C18.2158 22.192 18.1149 22.2291 18.0141 22.2663C17.8818 22.3155 17.7866 22.2755 17.7285 22.1465C17.5615 21.7794 17.2303 21.6503 16.735 21.7592Z" fill="white"/>
<path d="M21.9543 21.5788L21.9592 21.344C21.9608 21.265 22.0015 21.225 22.0814 21.2242L22.5751 21.2194C22.6647 21.2186 22.7094 21.2634 22.7094 21.3537L22.707 24.6695C22.707 24.6834 22.7043 24.6972 22.6989 24.71C22.6935 24.7229 22.6857 24.7345 22.6758 24.7443C22.6659 24.7541 22.6541 24.7618 22.6412 24.7671C22.6283 24.7723 22.6145 24.7749 22.6005 24.7747L22.0669 24.7699C21.9927 24.7691 21.9564 24.7316 21.958 24.6573L21.9628 24.4323C21.9652 24.3072 21.9261 24.2923 21.8454 24.3875C21.3493 24.978 20.3521 24.9599 19.7797 24.4964C19.1577 23.993 18.9476 23.3073 19.1493 22.4392C19.2872 21.8487 19.7967 21.3295 20.4126 21.2109C21.0322 21.0907 21.5167 21.2242 21.866 21.6115C21.9233 21.6752 21.9527 21.6643 21.9543 21.5788ZM21.981 22.9959C21.981 22.7093 21.8671 22.4344 21.6644 22.2317C21.4618 22.0291 21.1869 21.9152 20.9003 21.9152C20.6137 21.9152 20.3389 22.0291 20.1362 22.2317C19.9335 22.4344 19.8197 22.7093 19.8197 22.9959C19.8197 23.2825 19.9335 23.5573 20.1362 23.76C20.3389 23.9626 20.6137 24.0765 20.9003 24.0765C21.1869 24.0765 21.4618 23.9626 21.6644 23.76C21.8671 23.5573 21.981 23.2825 21.981 22.9959Z" fill="white"/>
<path d="M14.8487 21.2181H14.2824C14.2316 21.2181 14.1904 21.2593 14.1904 21.3101V24.6791C14.1904 24.7299 14.2316 24.7711 14.2824 24.7711H14.8487C14.8995 24.7711 14.9407 24.7299 14.9407 24.6791V21.3101C14.9407 21.2593 14.8995 21.2181 14.8487 21.2181Z" fill="white"/>
<path d="M12.0574 24.0861L13.4103 24.0789C13.4254 24.0789 13.4399 24.0849 13.4505 24.0955C13.4612 24.1062 13.4672 24.1207 13.4672 24.1357L13.4635 24.7057C13.4635 24.7208 13.4576 24.7353 13.4469 24.7459C13.4362 24.7566 13.4218 24.7626 13.4067 24.7626L11.3059 24.7711C11.2984 24.7711 11.291 24.7696 11.2841 24.7667C11.2772 24.7639 11.271 24.7597 11.2657 24.7544C11.2604 24.7491 11.2562 24.7428 11.2534 24.7359C11.2505 24.729 11.249 24.7216 11.249 24.7142L11.2514 21.275C11.2514 21.2599 11.2574 21.2455 11.2681 21.2348C11.2788 21.2241 11.2932 21.2181 11.3083 21.2181L11.9448 21.2242C11.9523 21.2242 11.9597 21.2257 11.9666 21.2285C11.9735 21.2314 11.9798 21.2356 11.9851 21.2408C11.9903 21.2461 11.9945 21.2524 11.9974 21.2593C12.0002 21.2662 12.0017 21.2736 12.0017 21.2811L12.0005 24.0293C12.0005 24.0443 12.0065 24.0588 12.0172 24.0695C12.0278 24.0801 12.0423 24.0861 12.0574 24.0861Z" fill="white"/>
<path d="M20.9 24.0765C21.4968 24.0765 21.9806 23.5927 21.9806 22.9959C21.9806 22.399 21.4968 21.9152 20.9 21.9152C20.3032 21.9152 19.8193 22.399 19.8193 22.9959C19.8193 23.5927 20.3032 24.0765 20.9 24.0765Z" fill="#06B1A9"/>
<path d="M23.4934 24.2374C23.4753 24.5329 23.6916 24.7866 23.9764 24.804C24.2613 24.8214 24.5068 24.596 24.5249 24.3005C24.543 24.0049 24.3267 23.7513 24.0419 23.7338C23.757 23.7164 23.5114 23.9419 23.4934 24.2374Z" fill="white"/>
<circle cx="20" cy="20" r="19.5" stroke="black" stroke-opacity="0.05"/>
</svg>
