<svg width="40" height="40" viewBox="0 0 40 40" fill="none" xmlns="http://www.w3.org/2000/svg">
<circle cx="20" cy="20" r="20" fill="#F6F8FA"/>
<path d="M15.1343 14.1694H18.2086C18.2286 14.1694 18.2484 14.1736 18.2666 14.1817C18.2848 14.1899 18.301 14.2017 18.3141 14.2165L18.3599 14.2699C18.3887 14.3038 18.4256 14.3207 18.4705 14.3207L23.8536 14.3156C23.8752 14.3156 23.8964 14.3219 23.9146 14.3336C23.9328 14.3453 23.9474 14.362 23.9566 14.3818L24.0227 14.528C24.0337 14.5528 24.0517 14.5739 24.0745 14.5886C24.0974 14.6033 24.124 14.6109 24.1511 14.6106L24.6483 14.6093C24.6736 14.6094 24.6985 14.6021 24.7199 14.5884C24.7413 14.5746 24.7583 14.555 24.7691 14.5318L24.8377 14.3843C24.8589 14.3394 24.8941 14.3169 24.9432 14.3169L30.4077 14.3182C30.4688 14.3182 30.4823 14.3436 30.4484 14.3945C30.1094 14.8979 29.7275 15.3599 29.3029 15.7803C29.2638 15.8186 29.2118 15.8401 29.158 15.8401H19.7521C19.7012 15.8401 19.6563 15.8231 19.6173 15.7892L19.4927 15.6786C19.463 15.6523 19.4325 15.6523 19.4012 15.6786L18.4273 16.5203C18.3883 16.5535 18.36 16.5974 18.3458 16.6467C18.3316 16.6959 18.332 16.7483 18.3472 16.7974C18.5646 17.4967 18.7667 18.1985 18.8608 18.9359C18.9371 19.5373 18.515 19.9798 18.8494 20.59C19.024 20.9104 19.1528 21.2062 19.2359 21.4775C19.3147 21.7335 19.2278 21.9267 18.9752 22.0572C18.9576 22.0665 18.9382 22.072 18.9183 22.0736C18.8984 22.0751 18.8784 22.0726 18.8595 22.0661C18.5239 21.9504 18.3357 21.5703 18.1844 21.2766C18.0738 21.0643 17.8615 20.9638 17.6403 20.9117C17.4089 20.8575 17.1673 20.8036 16.9156 20.7502C15.7103 20.4921 15.1496 19.442 14.8851 18.3269C14.8478 18.171 14.8063 18.1697 14.7605 18.3231C14.7088 18.4952 14.6355 18.6507 14.5406 18.7897C14.5319 18.8025 14.5203 18.8132 14.5069 18.8208C14.4934 18.8285 14.4784 18.833 14.463 18.834C14.4475 18.8349 14.432 18.8324 14.4177 18.8265C14.4034 18.8206 14.3906 18.8115 14.3804 18.7999C14.2761 18.6812 14.2113 18.56 14.1858 18.4363C14.1299 18.1684 14.0672 18.1676 13.9977 18.4337C13.737 19.4305 13.1802 20.4426 12.0893 20.7223C11.8833 20.7757 11.6837 20.838 11.4714 20.8647C11.1866 20.9015 10.8395 21.0172 10.6996 21.302C10.5598 21.583 10.3818 21.8614 10.1186 22.042C10.0827 22.0672 10.038 22.0773 9.99401 22.07C9.24897 21.9466 9.9635 20.7693 10.1072 20.4337C10.1949 20.2251 10.2191 20.0611 10.1568 19.8348C9.88086 18.8457 10.2216 17.7662 10.5534 16.8101C10.5744 16.7503 10.5755 16.6853 10.5565 16.6248C10.5375 16.5643 10.4994 16.5115 10.4479 16.4745C8.99977 15.4294 8.04494 13.8694 7.3266 12.1924C7.11936 11.7054 6.80913 10.7773 7.15623 10.3132C7.48425 9.87461 8.09961 9.96996 8.52426 10.1797C9.449 10.6375 10.3962 11.1647 11.3659 11.7614C12.4584 12.4335 13.3183 13.2705 13.9456 14.2724C13.971 14.3139 14.0002 14.3165 14.0333 14.28C14.1291 14.1715 14.1587 14.0491 14.1223 13.9126C13.9502 13.2625 13.6955 12.7082 13.3582 12.2496C13.3448 12.2315 13.3271 12.217 13.3068 12.2073C13.2865 12.1976 13.2641 12.1931 13.2417 12.1941C13.2192 12.1951 13.1973 12.2016 13.1779 12.2131C13.1586 12.2245 13.1423 12.2406 13.1306 12.2598C13.078 12.3445 13.0895 12.4293 13.1649 12.5141C13.4438 12.8268 13.6832 13.1328 13.8833 13.432C13.9095 13.4718 13.9252 13.5155 13.9303 13.563C13.9422 13.6681 13.9786 13.7664 14.0396 13.8579C14.0846 13.9257 14.0871 13.9978 14.0473 14.0741C14.0134 14.1402 13.9862 14.1372 13.9659 14.0652C13.8655 13.7155 13.7231 13.3379 13.4611 13.0773C13.2603 12.8802 12.8598 12.4657 13.0365 12.1593C13.0524 12.1316 13.0743 12.1078 13.1006 12.0896C13.1269 12.0714 13.1569 12.0594 13.1884 12.0542C13.22 12.0491 13.2523 12.0511 13.2829 12.06C13.3136 12.069 13.3419 12.0847 13.3658 12.1059C13.8566 12.5458 14.149 13.5058 14.2939 14.1084C14.3083 14.166 14.2943 14.216 14.252 14.2584C14.2231 14.2872 14.2248 14.3139 14.257 14.3385C14.2677 14.347 14.2803 14.3527 14.2937 14.3552C14.3071 14.3578 14.3208 14.357 14.3339 14.353C14.3469 14.349 14.3587 14.3419 14.3684 14.3323C14.378 14.3226 14.3852 14.3108 14.3893 14.2978C14.613 13.5922 14.861 12.6018 15.3962 12.1136C15.4219 12.0903 15.4541 12.0749 15.489 12.0691C15.6018 12.0521 15.6755 12.0729 15.7103 12.1314C15.7976 12.2788 15.7959 12.4259 15.7052 12.5725C15.5005 12.9044 15.203 13.1167 15.0212 13.4752C14.9457 13.6244 14.8766 13.7825 14.8139 13.9495C14.7944 14.002 14.7927 14.0563 14.8088 14.1122C14.836 14.2021 14.8682 14.2038 14.9055 14.1173C14.9741 13.9588 15.0661 13.8105 15.1814 13.6723C15.7374 13.0086 16.3905 12.4509 17.1406 11.9991C17.1813 11.9746 17.1923 11.9406 17.1737 11.8974C16.988 11.4766 16.7528 10.6718 17.0732 10.2789C17.6263 9.60126 18.7871 10.3603 19.3478 10.654C19.3918 10.6777 19.4351 10.676 19.4774 10.6489C19.8877 10.3844 20.3047 10.1861 20.7285 10.0539C21.3782 9.85172 21.9618 10.2331 21.8944 10.9515C21.8639 11.2778 21.7884 11.6101 21.6681 11.9483C21.661 11.9677 21.6481 11.9844 21.631 11.9962C21.614 12.0081 21.5936 12.0144 21.5727 12.0144L17.3885 12.0118C17.3394 12.0118 17.2949 12.0258 17.255 12.0538C16.3867 12.6628 15.6518 13.2032 15.0682 14.0423C15.0097 14.127 15.0318 14.1694 15.1343 14.1694ZM21.5854 11.816C21.8257 11.202 22.0775 10.1683 21.0413 10.1391C20.6293 10.1276 19.9898 10.5014 19.5893 10.715C19.5821 10.7189 19.5761 10.7246 19.5718 10.7315C19.5675 10.7385 19.5652 10.7465 19.5651 10.7547C19.5649 10.7629 19.567 10.7709 19.5711 10.778C19.5751 10.7851 19.581 10.791 19.5881 10.7951L21.4354 11.8682C21.5058 11.9097 21.5558 11.8923 21.5854 11.816ZM8.67048 10.3946C8.37212 10.2404 8.07927 10.1611 7.79193 10.1569C7.23251 10.148 7.04435 10.6247 7.13462 11.1066C7.19819 11.444 7.2821 11.7402 7.38635 11.9953C7.39545 12.0175 7.41094 12.0365 7.43087 12.0499C7.45079 12.0632 7.47425 12.0704 7.49824 12.0703L11.4485 12.0691C11.5748 12.0691 11.5841 12.0364 11.4765 11.9712C10.5661 11.4168 9.63081 10.8913 8.67048 10.3946ZM7.49315 12.2598C7.77795 12.9209 8.10724 13.5617 8.49502 14.1554C8.49821 14.1598 8.50229 14.1633 8.50694 14.1658C8.51158 14.1682 8.51665 14.1695 8.52172 14.1694L13.6379 14.1682C13.6495 14.168 13.6608 14.1647 13.6706 14.1585C13.6805 14.1524 13.6884 14.1437 13.6937 14.1333C13.6989 14.123 13.7012 14.1114 13.7003 14.0998C13.6995 14.0883 13.6955 14.0772 13.6887 14.0677C13.1759 13.3659 12.5843 12.7688 11.9138 12.2763C11.8494 12.2284 11.771 12.2026 11.6901 12.2026L7.52875 12.2038C7.52231 12.2039 7.51599 12.2055 7.51035 12.2087C7.50472 12.2118 7.49993 12.2164 7.49642 12.2219C7.49291 12.2274 7.49077 12.2337 7.4902 12.2404C7.48963 12.247 7.49065 12.2536 7.49315 12.2598ZM14.8406 13.5808C14.9881 13.2519 15.1839 12.9768 15.428 12.7556C15.5259 12.6666 15.6213 12.5115 15.6658 12.3831C15.6954 12.2949 15.6662 12.2352 15.578 12.2038C15.5563 12.1962 15.5329 12.195 15.5106 12.2001C15.4883 12.2053 15.4681 12.2167 15.4522 12.2331C15.0364 12.6552 14.936 13.1599 14.6906 13.6825C14.6703 13.7266 14.6732 13.7694 14.6995 13.8109C14.7359 13.8685 14.7605 13.8639 14.7732 13.7969C14.7868 13.7232 14.8093 13.6511 14.8406 13.5808ZM14.6703 14.027L14.6855 13.9571C14.694 13.9147 14.6779 13.9016 14.6372 13.9177C14.6143 13.9262 14.6012 13.9423 14.5978 13.966C14.5741 14.1135 14.605 14.258 14.6906 14.3996C14.6943 14.4054 14.6994 14.4103 14.7055 14.4136C14.7116 14.4169 14.7185 14.4186 14.7253 14.4185C14.7321 14.4184 14.7388 14.4164 14.7445 14.4129C14.7503 14.4093 14.7549 14.4043 14.758 14.3983C14.8122 14.2949 14.7944 14.2046 14.7046 14.1275C14.6732 14.1003 14.6618 14.0669 14.6703 14.027ZM14.6842 14.7034L14.1566 14.7098C14.1024 14.7098 14.0621 14.6865 14.0358 14.6398L13.8896 14.3779C13.8582 14.322 13.8099 14.294 13.7447 14.294H8.63996C8.63296 14.2938 8.62607 14.2956 8.62006 14.2992C8.61404 14.3028 8.60912 14.308 8.60584 14.3143C8.60256 14.3206 8.60105 14.3277 8.60146 14.3349C8.60187 14.3421 8.60419 14.3491 8.60818 14.3551C8.93535 14.8356 9.31381 15.2972 9.74355 15.7396C9.77689 15.7742 9.81694 15.8017 9.86128 15.8205C9.90562 15.8393 9.95336 15.8489 10.0016 15.849C12.9606 15.8481 15.9285 15.8481 18.9053 15.849C19.0922 15.849 19.1799 15.7027 19.3071 15.5959C19.3166 15.5879 19.3245 15.578 19.3301 15.5669C19.3358 15.5557 19.3391 15.5436 19.3399 15.5311C19.3408 15.5186 19.3391 15.5061 19.335 15.4943C19.3308 15.4825 19.3244 15.4717 19.316 15.4625C19.0015 15.1166 18.7256 14.7666 18.4883 14.4123C18.464 14.3759 18.4313 14.346 18.3929 14.3254C18.3545 14.3048 18.3117 14.294 18.2683 14.294H15.0402C14.9953 14.294 14.9567 14.3101 14.9245 14.3423C14.8516 14.4161 14.8097 14.5021 14.7987 14.6004C14.791 14.6691 14.7529 14.7034 14.6842 14.7034ZM14.2977 14.5407C14.2507 14.5445 14.21 14.5318 14.1706 14.5051C14.1121 14.4635 14.0926 14.4771 14.1121 14.5458C14.1197 14.5729 14.1367 14.5869 14.163 14.5877C14.3104 14.5953 14.4592 14.6017 14.6092 14.6068C14.633 14.6076 14.6448 14.5962 14.6448 14.5725L14.6461 14.5394C14.6469 14.5275 14.6414 14.5216 14.6296 14.5216C14.5177 14.5242 14.4071 14.5305 14.2977 14.5407ZM18.323 16.4338L18.7972 16.0397C18.8481 15.9973 18.84 15.9761 18.7731 15.9761L10.1428 15.9748C10.0487 15.9748 10.0385 16.0041 10.1123 16.0626L10.5585 16.4185C10.5975 16.4491 10.6242 16.4881 10.6386 16.5355C10.703 16.75 10.6708 16.9797 10.542 17.2246C10.5387 17.2306 10.5371 17.2373 10.5373 17.244C10.5374 17.2508 10.5394 17.2575 10.543 17.2634C10.5466 17.2692 10.5516 17.2742 10.5577 17.2776C10.5638 17.2811 10.5706 17.283 10.5776 17.2831H18.3039C18.3785 17.2831 18.3963 17.2517 18.3573 17.189C18.2361 16.9949 18.1976 16.7885 18.2416 16.5698C18.2527 16.5148 18.2798 16.4694 18.323 16.4338ZM14.0714 17.8489C14.0994 17.8455 14.1223 17.854 14.1401 17.8743C14.1553 17.8913 14.1642 17.9112 14.1668 17.9341C14.1897 18.1807 14.2698 18.41 14.4071 18.6219C14.4124 18.6301 14.4198 18.6368 14.4286 18.6412C14.4373 18.6456 14.4471 18.6477 14.4569 18.6472C14.4666 18.6467 14.4761 18.6436 14.4843 18.6383C14.4926 18.6329 14.4992 18.6255 14.5037 18.6168C14.6215 18.3829 14.7071 18.1417 14.7605 17.8934C14.7621 17.8855 14.7655 17.8781 14.7706 17.8717C14.7757 17.8653 14.7822 17.8601 14.7898 17.8565C14.8152 17.8429 14.8377 17.8434 14.8572 17.8578C14.8902 17.8832 14.9093 17.9163 14.9144 17.957C14.9406 18.1494 14.9847 18.3223 15.0466 18.4757C15.056 18.4986 15.0721 18.5182 15.0929 18.532C15.1137 18.5459 15.1383 18.5532 15.1636 18.5532H18.6587C18.6866 18.5532 18.6972 18.5393 18.6904 18.5113L18.4489 17.4802C18.4421 17.4505 18.4235 17.4357 18.3929 17.4357H10.5623C10.4996 17.4357 10.4606 17.4662 10.4454 17.5272L10.2191 18.4541C10.2029 18.5202 10.2288 18.5532 10.2966 18.5532H13.7625C13.821 18.5532 13.8574 18.5248 13.8718 18.4681L14.0244 17.8908C14.0303 17.8663 14.046 17.8523 14.0714 17.8489ZM13.3849 19.5335C13.3988 19.5333 13.4125 19.5291 13.4242 19.5215C13.4359 19.5138 13.4452 19.503 13.451 19.4903L13.7726 18.7846C13.7778 18.7734 13.78 18.761 13.779 18.7487C13.7781 18.7364 13.7741 18.7245 13.7674 18.7141C13.7607 18.7037 13.7515 18.6952 13.7407 18.6893C13.7298 18.6834 13.7176 18.6803 13.7053 18.6804H10.2292C10.2194 18.6804 10.2097 18.6823 10.2007 18.6861C10.1917 18.6899 10.1835 18.6954 10.1766 18.7024C10.1698 18.7094 10.1644 18.7177 10.1607 18.7268C10.1571 18.7359 10.1553 18.7456 10.1555 18.7554L10.1669 19.4598C10.1673 19.4791 10.1752 19.4975 10.189 19.5111C10.2028 19.5246 10.2213 19.5322 10.2407 19.5322L13.3849 19.5335ZM15.161 18.6804C15.1541 18.6805 15.1473 18.6822 15.1413 18.6855C15.1352 18.6889 15.1301 18.6936 15.1263 18.6994C15.1225 18.7052 15.1202 18.7118 15.1196 18.7187C15.119 18.7256 15.1202 18.7325 15.1229 18.7389L15.4382 19.5068C15.4414 19.5143 15.4467 19.5207 15.4535 19.5252C15.4602 19.5297 15.4682 19.5321 15.4763 19.5322H18.6866C18.6978 19.5322 18.7084 19.5278 18.7163 19.5199C18.7242 19.5121 18.7286 19.5014 18.7286 19.4903L18.74 18.7223C18.74 18.7112 18.7356 18.7005 18.7277 18.6927C18.7199 18.6848 18.7092 18.6804 18.6981 18.6804H15.161ZM12.6652 20.3803C12.6767 20.3802 12.6877 20.3757 12.6958 20.3675L13.3315 19.7268C13.3376 19.7206 13.3417 19.7128 13.3433 19.7043C13.3449 19.6958 13.344 19.6871 13.3406 19.6791C13.3371 19.6712 13.3314 19.6644 13.3241 19.6598C13.3168 19.6551 13.3083 19.6528 13.2997 19.653L10.3284 19.6556C10.3169 19.6556 10.3059 19.6601 10.2978 19.6682C10.2897 19.6763 10.2852 19.6873 10.2852 19.6988L10.2941 20.3383C10.2941 20.3498 10.2986 20.3608 10.3067 20.3689C10.3148 20.377 10.3258 20.3815 10.3373 20.3815L12.6652 20.3803ZM15.6378 19.6556C15.625 19.6556 15.6125 19.6594 15.6019 19.6665C15.5912 19.6737 15.5829 19.6838 15.578 19.6956C15.5731 19.7074 15.5719 19.7204 15.5743 19.733C15.5768 19.7456 15.583 19.7571 15.592 19.7662L16.1934 20.3612C16.2055 20.3734 16.222 20.3802 16.2392 20.3803H18.5328C18.5498 20.3803 18.5661 20.3736 18.5782 20.3617C18.5903 20.3498 18.5973 20.3337 18.5976 20.3167L18.6065 19.7217C18.6067 19.713 18.6052 19.7045 18.602 19.6965C18.5988 19.6884 18.594 19.6812 18.588 19.675C18.582 19.6688 18.5748 19.6639 18.5668 19.6606C18.5589 19.6573 18.5503 19.6556 18.5417 19.6556H15.6378ZM11.5044 20.7248C11.7494 20.6934 11.9774 20.6286 12.1885 20.5303C12.252 20.5006 12.2486 20.4858 12.1783 20.4858L10.2559 20.4985C10.2452 20.4986 10.2348 20.5016 10.2258 20.5072C10.2168 20.5128 10.2096 20.5208 10.2051 20.5303L9.98003 21.0134C9.97818 21.0178 9.9774 21.0225 9.97777 21.0272C9.97813 21.0319 9.97963 21.0364 9.98213 21.0404C9.98462 21.0444 9.98805 21.0477 9.99211 21.0501C9.99617 21.0525 10.0008 21.0539 10.0055 21.0541L10.589 21.063C10.6337 21.0639 10.6781 21.0505 10.7162 21.0249C10.9611 20.8613 11.2239 20.7613 11.5044 20.7248ZM18.7222 20.5697C18.7002 20.5214 18.6625 20.4968 18.6091 20.496L16.721 20.4921C16.627 20.4913 16.6231 20.5095 16.7096 20.5468C17.1838 20.749 17.6898 20.6943 18.1615 21.0223C18.1954 21.0462 18.2355 21.0587 18.276 21.0579H18.8494C18.9129 21.0579 18.9316 21.0291 18.9053 20.9715L18.7222 20.5697ZM10.5979 21.255C10.6026 21.2471 10.6052 21.2381 10.6053 21.2289C10.6054 21.2197 10.6031 21.2107 10.5986 21.2027C10.594 21.1947 10.5875 21.188 10.5796 21.1833C10.5716 21.1787 10.5626 21.1762 10.5534 21.1762L9.93044 21.1673C9.91927 21.167 9.90829 21.1703 9.89914 21.1767C9.88998 21.1831 9.88313 21.1923 9.87959 21.2029L9.73337 21.6313C9.73081 21.639 9.73005 21.6471 9.73117 21.6551C9.73228 21.6631 9.73523 21.6707 9.73979 21.6774C9.74435 21.684 9.7504 21.6895 9.75744 21.6935C9.76449 21.6974 9.77236 21.6996 9.78042 21.7L10.289 21.7191C10.2982 21.7192 10.3073 21.717 10.3153 21.7125C10.3233 21.708 10.33 21.7015 10.3348 21.6936L10.5979 21.255ZM19.0108 21.2092C19.0075 21.1987 19.0009 21.1896 18.992 21.1832C18.983 21.1767 18.9723 21.1734 18.9613 21.1736H18.3332C18.324 21.1737 18.3151 21.1763 18.3073 21.181C18.2995 21.1857 18.2931 21.1925 18.2888 21.2006C18.2845 21.2086 18.2825 21.2177 18.2829 21.2268C18.2833 21.236 18.2862 21.2448 18.2912 21.2524L18.5836 21.6911C18.5883 21.6982 18.5948 21.7041 18.6023 21.7081C18.6099 21.7121 18.6183 21.7141 18.6269 21.714L19.0935 21.7089C19.1015 21.7088 19.1093 21.7069 19.1164 21.7033C19.1235 21.6997 19.1296 21.6945 19.1343 21.688C19.139 21.6816 19.1422 21.6741 19.1435 21.6663C19.1448 21.6584 19.1442 21.6504 19.1418 21.6428L19.0108 21.2092ZM9.93553 21.8424C9.93042 21.843 9.92551 21.8447 9.9212 21.8475C9.91689 21.8503 9.91329 21.8541 9.9107 21.8586C9.90811 21.863 9.90659 21.868 9.90626 21.8731C9.90594 21.8783 9.90682 21.8834 9.90883 21.8881C9.92917 21.9407 9.96647 21.9657 10.0207 21.9632C10.0321 21.9627 10.0431 21.9586 10.0519 21.9513C10.0607 21.944 10.0669 21.9341 10.0695 21.9229C10.0721 21.9118 10.071 21.9001 10.0663 21.8897C10.0616 21.8793 10.0536 21.8707 10.0436 21.8653C10.0097 21.8458 9.97367 21.8381 9.93553 21.8424Z" fill="black"/>
<path d="M30.5676 10.1569C31.1232 9.88989 31.9967 9.9293 32.0005 10.7443C32.0022 11.0977 31.9103 11.4961 31.7246 11.9394C31.7043 11.9877 31.6678 12.0119 31.6153 12.0119L27.3395 12.0144C27.276 12.0153 27.2713 11.9987 27.3256 11.9648C28.4876 11.2401 29.5683 10.6375 30.5676 10.1569Z" fill="black"/>
<path d="M21.5858 11.8161C21.5561 11.8924 21.5061 11.9098 21.4358 11.8682L19.5884 10.7952C19.5813 10.7911 19.5755 10.7852 19.5714 10.7781C19.5674 10.771 19.5653 10.7629 19.5654 10.7547C19.5656 10.7466 19.5679 10.7386 19.5721 10.7316C19.5764 10.7246 19.5825 10.7189 19.5897 10.7151C19.9902 10.5015 20.6297 10.1277 21.0416 10.1391C22.0778 10.1684 21.8261 11.202 21.5858 11.8161Z" fill="#F6F8FA"/>
<path d="M8.67071 10.3946C9.63105 10.8913 10.5664 11.4168 11.4767 11.9712C11.5844 12.0364 11.575 12.0691 11.4487 12.0691L7.49847 12.0703C7.47448 12.0704 7.45103 12.0632 7.4311 12.0499C7.41118 12.0365 7.39568 12.0175 7.38659 11.9953C7.28233 11.7402 7.19842 11.444 7.13485 11.1066C7.04458 10.6247 7.23275 10.148 7.79217 10.1569C8.07951 10.1611 8.37235 10.2404 8.67071 10.3946Z" fill="#F6F8FA"/>
<path d="M24.4332 14.2839C24.601 13.4778 24.8769 12.7896 25.2609 12.2191C25.3575 12.0759 25.4851 12.0178 25.6436 12.0449C25.6679 12.0488 25.6909 12.0586 25.7106 12.0735C25.7303 12.0883 25.7461 12.1077 25.7567 12.1301C25.8288 12.2827 25.8152 12.4281 25.716 12.5662C25.5012 12.8701 25.224 13.1231 25.0397 13.4524C24.8761 13.7457 24.765 14.055 24.7066 14.3805C24.7015 14.4094 24.6864 14.4356 24.6641 14.4545C24.6418 14.4733 24.6136 14.4836 24.5845 14.4835L24.1726 14.4848C24.1192 14.4856 24.0861 14.4602 24.0734 14.4085C23.9971 14.0983 23.8924 13.7995 23.7594 13.5121C23.5814 13.1231 23.2571 12.8841 23.0219 12.5421C22.9985 12.5077 22.9825 12.4692 22.9749 12.4289C22.9452 12.2619 22.9664 12.1471 23.0385 12.0844C23.1402 11.9962 23.2423 11.9949 23.3449 12.0805C23.8712 12.5179 24.1929 13.6545 24.32 14.2699C24.3251 14.297 24.3408 14.3157 24.3671 14.3258C24.379 14.3301 24.3912 14.3288 24.404 14.322C24.4192 14.3136 24.429 14.3008 24.4332 14.2839Z" fill="black"/>
<path d="M17.3067 12.2572C17.3037 12.2508 17.3024 12.2438 17.3028 12.2367C17.3033 12.2297 17.3055 12.2228 17.3093 12.2169C17.3131 12.2109 17.3184 12.206 17.3246 12.2026C17.3308 12.1992 17.3378 12.1975 17.3448 12.1975L21.8164 12.1937C21.874 12.1937 21.9261 12.211 21.9728 12.2458C22.6576 12.7544 23.2484 13.36 23.7451 14.0626C23.7782 14.1093 23.7663 14.1326 23.7095 14.1326L18.3696 14.13C18.3238 14.13 18.2895 14.1109 18.2666 14.0728C17.9013 13.482 17.5813 12.8768 17.3067 12.2572Z" fill="black"/>
<path d="M31.613 12.2331C31.3087 12.9162 30.987 13.5295 30.648 14.0728C30.6243 14.1118 30.5891 14.1313 30.5425 14.1313H25.0373C24.9652 14.1313 24.9508 14.1025 24.994 14.0448C25.5289 13.3201 26.1671 12.7183 26.9088 12.2394C26.9554 12.2089 27.0071 12.1937 27.0639 12.1937L31.5901 12.1975C31.6155 12.1975 31.6232 12.2093 31.613 12.2331Z" fill="black"/>
<path d="M8.49521 14.1555C8.10743 13.5617 7.77813 12.9209 7.49334 12.2598C7.49083 12.2536 7.48982 12.247 7.49039 12.2404C7.49096 12.2338 7.49309 12.2274 7.4966 12.2219C7.50012 12.2164 7.5049 12.2119 7.51054 12.2087C7.51617 12.2056 7.52249 12.2039 7.52894 12.2038L11.6903 12.2026C11.7712 12.2026 11.8496 12.2284 11.914 12.2763C12.5845 12.7688 13.1761 13.3659 13.6889 14.0677C13.6956 14.0772 13.6997 14.0883 13.7005 14.0998C13.7014 14.1114 13.6991 14.123 13.6938 14.1333C13.6886 14.1437 13.6806 14.1524 13.6708 14.1585C13.661 14.1647 13.6496 14.168 13.6381 14.1682L8.52191 14.1694C8.51683 14.1695 8.51176 14.1682 8.50712 14.1658C8.50248 14.1634 8.49839 14.1598 8.49521 14.1555Z" fill="#F6F8FA"/>
<path d="M14.8411 13.5808C14.8097 13.6511 14.7873 13.7232 14.7737 13.7969C14.761 13.8639 14.7364 13.8685 14.6999 13.8109C14.6737 13.7694 14.6707 13.7266 14.691 13.6825C14.9364 13.1599 15.0369 12.6552 15.4526 12.2331C15.4685 12.2168 15.4888 12.2053 15.5111 12.2001C15.5334 12.195 15.5568 12.1962 15.5785 12.2038C15.6666 12.2352 15.6959 12.295 15.6662 12.3831C15.6217 12.5115 15.5264 12.6666 15.4285 12.7556C15.1844 12.9769 14.9886 13.2519 14.8411 13.5808Z" fill="#F6F8FA"/>
<path d="M14.7044 14.1275C14.7942 14.2046 14.812 14.2949 14.7578 14.3983C14.7547 14.4043 14.75 14.4094 14.7443 14.4129C14.7386 14.4165 14.7319 14.4184 14.7251 14.4185C14.7182 14.4187 14.7114 14.417 14.7053 14.4137C14.6992 14.4103 14.6941 14.4055 14.6904 14.3996C14.6048 14.258 14.5738 14.1135 14.5976 13.966C14.601 13.9423 14.6141 13.9262 14.637 13.9177C14.6777 13.9016 14.6938 13.9148 14.6853 13.9571L14.67 14.0271C14.6616 14.0669 14.673 14.1004 14.7044 14.1275Z" fill="#F6F8FA"/>
<path d="M14.7988 14.6005C14.8099 14.5022 14.8518 14.4161 14.9247 14.3424C14.9569 14.3102 14.9955 14.2941 15.0404 14.2941H18.2685C18.3119 14.2941 18.3547 14.3048 18.3931 14.3255C18.4314 14.3461 18.4642 14.3759 18.4885 14.4123C18.7258 14.7666 19.0017 15.1167 19.3162 15.4625C19.3246 15.4717 19.331 15.4826 19.3351 15.4944C19.3393 15.5062 19.3409 15.5187 19.3401 15.5311C19.3393 15.5436 19.3359 15.5558 19.3303 15.5669C19.3247 15.5781 19.3168 15.588 19.3073 15.596C19.1801 15.7028 19.0924 15.849 18.9055 15.849C15.9287 15.8482 12.9608 15.8482 10.0018 15.849C9.95353 15.849 9.90579 15.8393 9.86145 15.8205C9.8171 15.8017 9.77706 15.7742 9.74371 15.7397C9.31398 15.2972 8.93552 14.8357 8.60835 14.3551C8.60436 14.3491 8.60204 14.3421 8.60163 14.3349C8.60122 14.3278 8.60273 14.3206 8.60601 14.3143C8.60929 14.308 8.61421 14.3028 8.62022 14.2992C8.62624 14.2957 8.63313 14.2939 8.64013 14.2941H13.7448C13.8101 14.2941 13.8584 14.3221 13.8898 14.378L14.036 14.6399C14.0623 14.6865 14.1025 14.7098 14.1568 14.7098L14.6844 14.7035C14.7531 14.7035 14.7912 14.6691 14.7988 14.6005Z" fill="#F6F8FA"/>
<path d="M14.2974 14.5407C14.4068 14.5305 14.5174 14.5242 14.6293 14.5216C14.6411 14.5216 14.6466 14.5276 14.6458 14.5394L14.6445 14.5725C14.6445 14.5962 14.6327 14.6077 14.6089 14.6068C14.4589 14.6017 14.3101 14.5954 14.1627 14.5878C14.1364 14.5869 14.1194 14.5729 14.1118 14.5458C14.0923 14.4771 14.1118 14.4636 14.1703 14.5051C14.2097 14.5318 14.2504 14.5445 14.2974 14.5407Z" fill="#F6F8FA"/>
<path d="M18.2415 16.5699C18.1974 16.7886 18.236 16.9949 18.3572 17.189C18.3962 17.2518 18.3784 17.2831 18.3038 17.2831H10.5774C10.5704 17.283 10.5636 17.2811 10.5575 17.2776C10.5515 17.2742 10.5464 17.2693 10.5428 17.2634C10.5392 17.2575 10.5373 17.2509 10.5371 17.2441C10.5369 17.2373 10.5385 17.2306 10.5418 17.2246C10.6707 16.9797 10.7029 16.75 10.6384 16.5355C10.624 16.4881 10.5973 16.4491 10.5583 16.4186L10.1121 16.0626C10.0383 16.0041 10.0485 15.9749 10.1426 15.9749L18.7729 15.9761C18.8399 15.9761 18.8479 15.9973 18.7971 16.0397L18.3228 16.4338C18.2796 16.4694 18.2525 16.5148 18.2415 16.5699Z" fill="#F6F8FA"/>
<path d="M20.3954 17.2437C20.7972 16.6563 20.384 16.4008 19.9606 16.0994C19.8758 16.0401 19.8852 16.0104 19.9886 16.0104H28.9316C29.0139 16.0104 29.0232 16.0363 28.9596 16.088C28.7422 16.2634 28.2756 16.4961 28.3659 16.8369C28.404 16.9818 28.4481 17.1187 28.4981 17.2475C28.5176 17.3001 28.4994 17.3263 28.4434 17.3263L20.4399 17.3276C20.4301 17.3277 20.4204 17.3252 20.412 17.3202C20.4036 17.3151 20.3967 17.3079 20.3921 17.2992C20.3875 17.2906 20.3853 17.2808 20.3859 17.271C20.3865 17.2612 20.3898 17.2518 20.3954 17.2437Z" fill="black"/>
<path d="M14.0248 17.8908L13.8722 18.4681C13.8578 18.5248 13.8214 18.5532 13.7629 18.5532H10.297C10.2292 18.5532 10.2034 18.5202 10.2195 18.4541L10.4458 17.5272C10.461 17.4662 10.5 17.4357 10.5628 17.4357H18.3934C18.4239 17.4357 18.4425 17.4505 18.4493 17.4802L18.6909 18.5113C18.6977 18.5393 18.6871 18.5532 18.6591 18.5532H15.164C15.1388 18.5532 15.1142 18.5458 15.0933 18.532C15.0725 18.5182 15.0564 18.4986 15.047 18.4757C14.9851 18.3223 14.9411 18.1494 14.9148 17.9569C14.9097 17.9163 14.8906 17.8832 14.8576 17.8578C14.8381 17.8434 14.8156 17.8429 14.7902 17.8565C14.7827 17.8601 14.7761 17.8653 14.771 17.8717C14.7659 17.8781 14.7625 17.8855 14.761 17.8934C14.7076 18.1417 14.6219 18.3829 14.5041 18.6168C14.4997 18.6255 14.493 18.6329 14.4848 18.6382C14.4765 18.6436 14.4671 18.6467 14.4573 18.6472C14.4475 18.6477 14.4377 18.6456 14.429 18.6412C14.4203 18.6367 14.4129 18.6301 14.4075 18.6219C14.2702 18.41 14.1901 18.1807 14.1672 17.9341C14.1647 17.9112 14.1558 17.8913 14.1405 17.8743C14.1227 17.854 14.0998 17.8455 14.0718 17.8489C14.0464 17.8523 14.0307 17.8663 14.0248 17.8908Z" fill="#F6F8FA"/>
<path d="M24.0085 18.0498C24.0042 18.2176 23.9712 18.3765 23.9093 18.5266C23.8915 18.5698 23.8593 18.5914 23.8127 18.5914H20.1129C20.1073 18.5914 20.1018 18.5901 20.0968 18.5876C20.0918 18.5851 20.0874 18.5816 20.0839 18.5772C20.0805 18.5728 20.0781 18.5676 20.077 18.5622C20.0758 18.5567 20.0759 18.551 20.0773 18.5456L20.3061 17.5336C20.3104 17.5149 20.3222 17.5056 20.3417 17.5056H28.5474C28.5572 17.5056 28.5668 17.5088 28.5746 17.5148C28.5825 17.5207 28.5881 17.5292 28.5906 17.5387L28.836 18.5444C28.8428 18.5715 28.8318 18.585 28.8029 18.585L25.0752 18.5863C25.0269 18.5863 24.9976 18.5626 24.9874 18.5151C24.9535 18.3524 24.9171 18.1833 24.8781 18.0078C24.8747 17.9917 24.865 17.982 24.8489 17.9786C24.837 17.9752 24.8255 17.976 24.8145 17.9811C24.7984 17.9879 24.7895 17.9998 24.7878 18.0167C24.7599 18.2829 24.67 18.5287 24.5183 18.7541C24.5099 18.7664 24.4986 18.7763 24.4853 18.7829C24.472 18.7895 24.4572 18.7925 24.4424 18.7918C24.4276 18.791 24.4132 18.7864 24.4007 18.7785C24.3881 18.7706 24.3779 18.7596 24.3708 18.7465C24.2521 18.5219 24.1636 18.2719 24.1051 17.9964C24.1042 17.9913 24.1008 17.9892 24.0949 17.99L24.0619 17.9926C24.0271 17.996 24.0093 18.015 24.0085 18.0498Z" fill="black"/>
<path d="M13.3847 19.5335L10.2405 19.5323C10.2211 19.5323 10.2026 19.5247 10.1888 19.5111C10.175 19.4976 10.1671 19.4791 10.1667 19.4598L10.1553 18.7554C10.1551 18.7456 10.1569 18.7359 10.1605 18.7268C10.1642 18.7177 10.1696 18.7094 10.1764 18.7025C10.1833 18.6955 10.1915 18.6899 10.2005 18.6862C10.2095 18.6824 10.2192 18.6804 10.229 18.6804H13.7051C13.7174 18.6804 13.7296 18.6834 13.7405 18.6893C13.7513 18.6952 13.7605 18.7038 13.7672 18.7141C13.774 18.7245 13.7779 18.7364 13.7789 18.7487C13.7798 18.7611 13.7776 18.7734 13.7724 18.7847L13.4508 19.4903C13.445 19.503 13.4357 19.5139 13.424 19.5215C13.4123 19.5292 13.3986 19.5333 13.3847 19.5335Z" fill="#F6F8FA"/>
<path d="M15.1607 18.6804H18.6977C18.7089 18.6804 18.7195 18.6848 18.7274 18.6927C18.7353 18.7006 18.7397 18.7112 18.7397 18.7224L18.7282 19.4903C18.7282 19.5014 18.7238 19.5121 18.716 19.52C18.7081 19.5278 18.6974 19.5323 18.6863 19.5323H15.476C15.4678 19.5322 15.4599 19.5297 15.4531 19.5252C15.4464 19.5207 15.4411 19.5143 15.4378 19.5068L15.1225 18.7389C15.1198 18.7326 15.1187 18.7256 15.1193 18.7188C15.1199 18.7119 15.1222 18.7052 15.126 18.6995C15.1297 18.6937 15.1349 18.6889 15.1409 18.6856C15.147 18.6823 15.1538 18.6805 15.1607 18.6804Z" fill="#F6F8FA"/>
<path d="M20.0609 18.7782L23.7836 18.777C23.79 18.7771 23.7963 18.7788 23.802 18.7819C23.8076 18.785 23.8124 18.7895 23.8159 18.7949C23.8194 18.8003 23.8215 18.8064 23.8221 18.8129C23.8227 18.8193 23.8217 18.8257 23.8192 18.8316L23.5001 19.5614C23.4971 19.5685 23.4922 19.5745 23.4858 19.5788C23.4795 19.5831 23.4721 19.5854 23.4645 19.5856L20.0634 19.5843C20.053 19.5843 20.043 19.5802 20.0356 19.5728C20.0282 19.5654 20.024 19.5554 20.024 19.5449L20.0215 18.8177C20.0215 18.8072 20.0256 18.7972 20.033 18.7898C20.0404 18.7824 20.0504 18.7782 20.0609 18.7782Z" fill="black"/>
<path d="M25.1402 18.7732L28.8476 18.7745C28.8544 18.7745 28.8611 18.7758 28.8673 18.7785C28.8736 18.7811 28.8793 18.785 28.884 18.7898C28.8887 18.7947 28.8925 18.8004 28.8949 18.8067C28.8974 18.8131 28.8986 18.8198 28.8984 18.8266L28.8717 19.5348C28.8711 19.5476 28.8656 19.5597 28.8564 19.5687C28.8472 19.5776 28.835 19.5828 28.8222 19.5831L25.4504 19.5856C25.4406 19.5855 25.4311 19.5825 25.423 19.5771C25.4149 19.5717 25.4085 19.5641 25.4046 19.5551L25.0931 18.8444C25.0897 18.8366 25.0883 18.8281 25.0891 18.8197C25.0898 18.8112 25.0926 18.8031 25.0973 18.796C25.102 18.7889 25.1083 18.7831 25.1158 18.7792C25.1233 18.7752 25.1317 18.7731 25.1402 18.7732Z" fill="black"/>
<path d="M12.6652 20.3803L10.3373 20.3815C10.3258 20.3815 10.3148 20.377 10.3067 20.3689C10.2986 20.3608 10.2941 20.3498 10.2941 20.3383L10.2852 19.6988C10.2852 19.6873 10.2897 19.6763 10.2978 19.6682C10.3059 19.6601 10.3169 19.6556 10.3284 19.6556L13.2997 19.653C13.3083 19.6528 13.3168 19.6552 13.3241 19.6598C13.3314 19.6645 13.3371 19.6712 13.3405 19.6791C13.344 19.6871 13.3449 19.6959 13.3433 19.7043C13.3417 19.7128 13.3376 19.7207 13.3315 19.7268L12.6957 20.3676C12.6877 20.3757 12.6767 20.3802 12.6652 20.3803Z" fill="#F6F8FA"/>
<path d="M15.6379 19.6556H18.5418C18.5504 19.6556 18.559 19.6573 18.5669 19.6606C18.5749 19.664 18.5821 19.6689 18.5881 19.675C18.5942 19.6812 18.5989 19.6885 18.6021 19.6965C18.6053 19.7045 18.6068 19.7131 18.6067 19.7217L18.5978 20.3167C18.5974 20.3337 18.5905 20.3499 18.5783 20.3617C18.5662 20.3736 18.5499 20.3803 18.5329 20.3803H16.2393C16.2221 20.3802 16.2057 20.3734 16.1935 20.3612L15.5922 19.7662C15.5831 19.7571 15.577 19.7456 15.5745 19.733C15.572 19.7205 15.5733 19.7075 15.5782 19.6956C15.5831 19.6838 15.5913 19.6737 15.602 19.6666C15.6126 19.6594 15.6251 19.6556 15.6379 19.6556Z" fill="#F6F8FA"/>
<path d="M22.7649 20.4578L20.1954 20.4553C20.1847 20.4549 20.1745 20.4506 20.167 20.443C20.1594 20.4354 20.155 20.4253 20.1547 20.4146L20.1445 19.7992C20.1445 19.7881 20.149 19.7774 20.1568 19.7696C20.1647 19.7617 20.1754 19.7573 20.1865 19.7573H23.3409C23.3491 19.7572 23.3573 19.7595 23.3642 19.7641C23.3711 19.7686 23.3766 19.7751 23.3798 19.7827C23.3831 19.7903 23.384 19.7987 23.3825 19.8069C23.381 19.815 23.3771 19.8225 23.3714 19.8285L22.7954 20.4451C22.7915 20.4492 22.7867 20.4524 22.7815 20.4546C22.7762 20.4568 22.7706 20.4579 22.7649 20.4578Z" fill="black"/>
<path d="M25.5775 19.7611H28.7217C28.7271 19.7611 28.7325 19.7622 28.7376 19.7643C28.7426 19.7664 28.7471 19.7696 28.7509 19.7735C28.7547 19.7774 28.7577 19.782 28.7596 19.7871C28.7616 19.7922 28.7625 19.7976 28.7624 19.8031L28.7369 20.4172C28.7366 20.4277 28.7322 20.4377 28.7246 20.4451C28.717 20.4525 28.7068 20.4566 28.6963 20.4566L26.1547 20.4553C26.1492 20.4553 26.1438 20.4541 26.1388 20.4519C26.1338 20.4497 26.1292 20.4466 26.1255 20.4426L25.5482 19.8298C25.5428 19.824 25.5392 19.8168 25.5378 19.809C25.5363 19.8012 25.5373 19.7931 25.5404 19.7858C25.5435 19.7786 25.5486 19.7723 25.5552 19.7679C25.5618 19.7635 25.5696 19.7612 25.5775 19.7611Z" fill="black"/>
<path d="M11.5043 20.7249C11.2237 20.7613 10.961 20.8613 10.716 21.0249C10.678 21.0506 10.6336 21.0639 10.5889 21.0631L10.0053 21.0542C10.0006 21.0539 9.99603 21.0526 9.99197 21.0502C9.98791 21.0478 9.98448 21.0444 9.98198 21.0405C9.97949 21.0365 9.97799 21.0319 9.97763 21.0272C9.97726 21.0225 9.97804 21.0178 9.97989 21.0135L10.2049 20.5303C10.2095 20.5209 10.2166 20.5129 10.2256 20.5073C10.2346 20.5016 10.2451 20.4986 10.2558 20.4986L12.1782 20.4858C12.2485 20.4858 12.2519 20.5007 12.1883 20.5303C11.9773 20.6287 11.7493 20.6935 11.5043 20.7249Z" fill="#F6F8FA"/>
<path d="M18.7222 20.5697L18.9053 20.9715C18.9316 21.0291 18.9129 21.0579 18.8493 21.0579H18.2759C18.2355 21.0587 18.1954 21.0462 18.1615 21.0223C17.6898 20.6943 17.1838 20.749 16.7096 20.5468C16.6231 20.5095 16.6269 20.4913 16.721 20.4922L18.609 20.496C18.6624 20.4968 18.7002 20.5214 18.7222 20.5697Z" fill="#F6F8FA"/>
<path d="M22.3127 20.6752C22.3093 20.6897 22.3004 20.6986 22.286 20.7019C21.5732 20.8333 21.0676 20.966 20.7692 21.0999C20.7328 21.116 20.6947 21.1241 20.6548 21.1241L19.8627 21.1266C19.8365 21.1266 19.8288 21.1152 19.8398 21.0923L20.056 20.6333C20.0611 20.6231 20.0695 20.6176 20.0814 20.6168L22.2937 20.6015C22.3182 20.6015 22.3276 20.6134 22.3216 20.6371L22.3127 20.6752Z" fill="black"/>
<path d="M27.1275 20.8011C26.9953 20.7799 26.8652 20.749 26.7372 20.7083C26.5041 20.6354 26.5096 20.5998 26.7537 20.6015L28.8261 20.6206C28.8456 20.6206 28.8596 20.6295 28.8681 20.6473L29.0791 21.091C29.0806 21.0947 29.0812 21.0988 29.0808 21.1028C29.0805 21.1068 29.0792 21.1106 29.077 21.1139C29.0749 21.1172 29.0719 21.1198 29.0685 21.1216C29.0651 21.1234 29.0613 21.1242 29.0575 21.124C28.7333 21.1113 28.3315 21.1813 28.0251 21.0541C27.748 20.9388 27.4488 20.8545 27.1275 20.8011Z" fill="black"/>
<path d="M10.5977 21.255L10.3346 21.6937C10.3298 21.7016 10.3231 21.7081 10.3151 21.7126C10.3071 21.717 10.298 21.7193 10.2888 21.7191L9.78022 21.7C9.77216 21.6997 9.7643 21.6974 9.75725 21.6935C9.7502 21.6896 9.74415 21.6841 9.73959 21.6774C9.73503 21.6708 9.73208 21.6631 9.73097 21.6552C9.72985 21.6472 9.73061 21.639 9.73318 21.6314L9.87939 21.2029C9.88293 21.1923 9.88978 21.1831 9.89894 21.1767C9.9081 21.1703 9.91907 21.167 9.93025 21.1673L10.5532 21.1762C10.5624 21.1763 10.5714 21.1787 10.5794 21.1834C10.5873 21.188 10.5938 21.1947 10.5984 21.2027C10.6029 21.2107 10.6052 21.2198 10.6051 21.229C10.605 21.2382 10.6024 21.2472 10.5977 21.255Z" fill="#F6F8FA"/>
<path d="M19.0112 21.2093L19.1422 21.6428C19.1446 21.6504 19.1451 21.6585 19.1438 21.6663C19.1425 21.6742 19.1394 21.6816 19.1347 21.6881C19.13 21.6945 19.1239 21.6997 19.1168 21.7034C19.1097 21.707 19.1018 21.7089 19.0938 21.7089L18.6272 21.714C18.6187 21.7141 18.6102 21.7121 18.6027 21.7081C18.5951 21.7041 18.5887 21.6983 18.584 21.6911L18.2916 21.2525C18.2866 21.2449 18.2837 21.236 18.2833 21.2269C18.2828 21.2178 18.2849 21.2087 18.2892 21.2006C18.2935 21.1925 18.2998 21.1858 18.3077 21.181C18.3155 21.1763 18.3244 21.1737 18.3335 21.1737H18.9616C18.9726 21.1734 18.9834 21.1768 18.9923 21.1832C19.0013 21.1896 19.0079 21.1988 19.0112 21.2093Z" fill="#F6F8FA"/>
<path d="M20.3222 21.7801L19.6369 21.7839C19.631 21.7839 19.6252 21.7826 19.6199 21.78C19.6146 21.7774 19.61 21.7736 19.6065 21.7689C19.6029 21.7642 19.6004 21.7588 19.5993 21.753C19.5982 21.7472 19.5984 21.7413 19.6 21.7356L19.7068 21.3377C19.709 21.3296 19.7139 21.3225 19.7205 21.3174C19.7272 21.3124 19.7353 21.3097 19.7437 21.3097L20.5345 21.316C20.541 21.3162 20.5474 21.3179 20.553 21.3212C20.5587 21.3245 20.5633 21.3292 20.5667 21.3348C20.57 21.3404 20.5718 21.3468 20.572 21.3533C20.5721 21.3598 20.5706 21.3662 20.5676 21.372L20.3552 21.7598C20.352 21.7658 20.3473 21.7709 20.3415 21.7745C20.3357 21.778 20.329 21.78 20.3222 21.7801Z" fill="black"/>
<path d="M28.366 21.3199L29.153 21.3174C29.1608 21.3175 29.1684 21.3199 29.1748 21.3245C29.1812 21.329 29.186 21.3354 29.1886 21.3428L29.331 21.7293C29.3333 21.7351 29.3341 21.7414 29.3334 21.7476C29.3327 21.7538 29.3305 21.7597 29.327 21.7648C29.3235 21.77 29.3188 21.7742 29.3133 21.7771C29.3078 21.78 29.3016 21.7815 29.2954 21.7814L28.5974 21.7738C28.5908 21.774 28.5843 21.7724 28.5785 21.7693C28.5727 21.7661 28.5679 21.7616 28.5643 21.756L28.3342 21.3771C28.3309 21.3714 28.3292 21.365 28.3291 21.3584C28.329 21.3518 28.3307 21.3453 28.3339 21.3395C28.3371 21.3338 28.3417 21.3289 28.3474 21.3255C28.353 21.3221 28.3594 21.3201 28.366 21.3199Z" fill="black"/>
<path d="M9.93558 21.8424C9.97372 21.8381 10.0097 21.8458 10.0437 21.8653C10.0537 21.8707 10.0617 21.8793 10.0663 21.8897C10.071 21.9002 10.0721 21.9118 10.0695 21.9229C10.0669 21.9341 10.0608 21.944 10.0519 21.9513C10.0431 21.9586 10.0322 21.9627 10.0208 21.9632C9.96652 21.9657 9.92922 21.9407 9.90888 21.8882C9.90687 21.8834 9.90599 21.8783 9.90632 21.8731C9.90664 21.868 9.90816 21.863 9.91075 21.8586C9.91335 21.8541 9.91694 21.8503 9.92125 21.8475C9.92556 21.8447 9.93047 21.843 9.93558 21.8424Z" fill="#F6F8FA"/>
<path d="M19.7799 21.9975C19.8706 21.9678 19.9587 21.9695 20.0443 22.0026C20.1104 22.028 20.1113 22.056 20.0469 22.0865C19.9333 22.1399 19.8396 22.1369 19.7659 22.0776C19.721 22.042 19.7256 22.0153 19.7799 21.9975Z" fill="black"/>
<path d="M29.1532 22.0026C29.1981 22.0094 29.2032 22.0276 29.1685 22.0573C29.093 22.12 29.0019 22.134 28.8951 22.0993C28.8019 22.0687 28.7994 22.0331 28.8875 21.9925C28.9206 21.9764 29.0091 21.9797 29.1532 22.0026Z" fill="black"/>
<path d="M16.9247 24.4234C16.8408 25.1328 17.6685 25.4761 18.2228 25.6808C19.5031 26.155 20.266 27.0438 19.9964 28.4843C19.868 29.1696 19.3442 29.6934 18.6831 29.879C17.0836 30.3278 15.2795 29.5116 15.2744 27.668C15.2744 27.6163 15.3003 27.59 15.352 27.5892L16.6628 27.5854C16.6862 27.5854 16.7086 27.5944 16.7253 27.6106C16.7419 27.6268 16.7515 27.6488 16.7518 27.6718C16.7679 28.5245 17.1887 28.8873 18.0143 28.7602C18.5852 28.6724 18.6627 27.9414 18.4771 27.5282C18.3694 27.2891 18.1338 27.0959 17.7702 26.9484C17.1625 26.7018 16.4517 26.4259 16.0093 25.9516C15.0049 24.8773 15.338 23.1354 16.8154 22.6549C18.4161 22.1336 19.9151 22.885 20.046 24.6573C20.0511 24.7192 20.0223 24.7506 19.9596 24.7514L18.6602 24.7552C18.6119 24.7552 18.5869 24.7311 18.5852 24.6828C18.5792 24.5166 18.5462 24.3577 18.486 24.206C18.1847 23.4457 17.0239 23.5893 16.9247 24.4234Z" fill="#CE181E"/>
<path d="M23.4722 23.7139C22.6318 23.7215 22.4335 24.3509 22.389 25.0387C22.3365 25.8422 22.3343 26.6496 22.3827 27.4607C22.4094 27.893 22.4971 28.4423 22.9268 28.6482C23.2336 28.7957 23.56 28.8148 23.9058 28.7055C24.4042 28.5491 24.4614 27.9668 24.4741 27.5345C24.4758 27.476 24.5063 27.4468 24.5657 27.4468L25.8739 27.4506C25.9316 27.4506 25.9591 27.4794 25.9566 27.537C25.8841 29.2102 24.8123 30.1383 23.1379 29.9832C21.5766 29.8383 20.9371 28.572 20.8926 27.1467C20.8688 26.3576 20.876 25.6609 20.9142 25.0565C20.9955 23.7495 21.7508 22.6586 23.1353 22.5124C24.8632 22.3293 25.846 23.3172 25.9617 25.0031C25.9651 25.0472 25.9443 25.0696 25.8994 25.0705L24.5618 25.0718C24.5025 25.0718 24.4724 25.0425 24.4716 24.984C24.4601 24.2797 24.3279 23.7075 23.4722 23.7139Z" fill="#CE181E"/>
<path d="M30.0017 22.5595C31.4015 22.8455 31.9584 24.1704 31.9978 25.4532C32.0156 26.044 32.0156 26.6356 31.9978 27.2281C31.9419 29.1543 30.5675 30.3736 28.6362 29.8955C26.5346 29.3768 26.6884 26.9268 26.766 25.2752C26.8524 23.4469 28.0882 22.1692 30.0017 22.5595ZM29.0799 28.7067C30.0932 28.9305 30.4505 28.1702 30.5026 27.3336C30.5518 26.5436 30.5492 25.8037 30.495 25.1137C30.4403 24.4132 30.153 23.6885 29.3037 23.7406C28.5027 23.7889 28.2624 24.5658 28.237 25.2244C28.2124 25.8516 28.2099 26.5042 28.2293 27.1823C28.2459 27.7824 28.4061 28.5593 29.0799 28.7067Z" fill="#CE181E"/>
<path d="M8.54081 25.6782C8.55776 25.6723 8.57047 25.6613 8.57895 25.6452C9.17397 24.6026 9.74144 23.6058 10.2814 22.6548C10.3042 22.6141 10.3394 22.5938 10.3869 22.5938H12.0346C12.0948 22.5938 12.1084 22.6188 12.0753 22.6688L10.1148 25.682C10.0682 25.7524 10.0644 25.8253 10.1034 25.9007L12.1402 29.8332C12.1428 29.838 12.1441 29.8434 12.1439 29.8489C12.1437 29.8543 12.142 29.8597 12.1391 29.8644C12.1362 29.8691 12.132 29.8731 12.1271 29.8759C12.1222 29.8786 12.1166 29.8801 12.1109 29.8802L10.4937 29.8866C10.4683 29.8866 10.4434 29.8795 10.422 29.866C10.4006 29.8524 10.3836 29.8331 10.3729 29.8103L9.10785 27.1442C9.1045 27.137 9.09939 27.1308 9.09299 27.1261C9.08659 27.1214 9.0791 27.1184 9.07124 27.1174C9.06337 27.1164 9.05538 27.1174 9.048 27.1203C9.04062 27.1232 9.03409 27.1279 9.02903 27.134C8.83196 27.3705 8.51919 27.6998 8.51156 28.0036C8.49631 28.6181 8.49122 29.2149 8.49631 29.7938C8.49648 29.8037 8.49469 29.8136 8.49106 29.8229C8.48743 29.8321 8.48203 29.8406 8.47516 29.8477C8.4683 29.8548 8.46011 29.8604 8.45108 29.8642C8.44205 29.8681 8.43236 29.8701 8.42256 29.8701L7.14734 29.8828C7.13237 29.8828 7.11756 29.8798 7.10374 29.8741C7.08993 29.8684 7.0774 29.8601 7.06688 29.8496C7.05635 29.839 7.04804 29.8265 7.04243 29.8128C7.03682 29.7991 7.03402 29.7844 7.03419 29.7696L7.03546 22.6485C7.03546 22.6333 7.04149 22.6187 7.05222 22.608C7.06295 22.5973 7.0775 22.5912 7.09267 22.5912H8.43019C8.47766 22.5912 8.50097 22.6146 8.50012 22.6612L8.49249 25.6439C8.49231 25.6498 8.49359 25.6556 8.4962 25.6608C8.49881 25.6661 8.50268 25.6706 8.50746 25.674C8.51224 25.6774 8.51778 25.6796 8.5236 25.6803C8.52942 25.681 8.53533 25.6803 8.54081 25.6782Z" fill="#CE181E"/>
<path d="M14.1659 22.5938H12.8335C12.7928 22.5938 12.7598 22.6268 12.7598 22.6676V29.8256C12.7598 29.8663 12.7928 29.8993 12.8335 29.8993H14.1659C14.2067 29.8993 14.2397 29.8663 14.2397 29.8256V22.6676C14.2397 22.6268 14.2067 22.5938 14.1659 22.5938Z" fill="#CE181E"/>
<path d="M29.0803 28.7068C28.4065 28.5593 28.2463 27.7824 28.2297 27.1823C28.2102 26.5042 28.2128 25.8516 28.2374 25.2244C28.2628 24.5658 28.5031 23.7889 29.3041 23.7406C30.1534 23.6885 30.4407 24.4132 30.4954 25.1138C30.5496 25.8037 30.5522 26.5437 30.503 27.3336C30.4509 28.1702 30.0936 28.9305 29.0803 28.7068Z" fill="#F6F8FA"/>
<circle cx="20" cy="20" r="19.5" stroke="black" stroke-opacity="0.05"/>
</svg>
