<svg width="40" height="40" viewBox="0 0 40 40" fill="none" xmlns="http://www.w3.org/2000/svg">
<circle cx="20" cy="20" r="20" fill="#E72510"/>
<path d="M12.1778 15.1437H10.9153V16.0891H10.9175C11.2517 16.0894 11.5722 16.2223 11.8085 16.4586C12.0448 16.695 12.1776 17.0155 12.1778 17.3497V18.5217C12.1777 18.5607 12.1698 18.5993 12.1548 18.6352C12.1397 18.6712 12.1177 18.7039 12.0901 18.7313C12.0624 18.7588 12.0295 18.7805 11.9935 18.7952C11.9574 18.81 11.9187 18.8175 11.8797 18.8173H8.11788C8.07892 18.8175 8.04031 18.81 8.00425 18.7952C7.96819 18.7805 7.93541 18.7587 7.90777 18.7313C7.88013 18.7038 7.8582 18.6712 7.84321 18.6352C7.82823 18.5992 7.82049 18.5607 7.82045 18.5217V17.3497C7.82078 17.0155 7.9537 16.695 8.19003 16.4587C8.42636 16.2224 8.7468 16.0895 9.08103 16.0891H9.08196V15.1437H5V16.0891C5.33444 16.0891 5.65551 16.2219 5.89211 16.4583C6.12872 16.6946 6.2618 17.0153 6.26213 17.3497V21.8056C6.26197 21.9711 6.2292 22.1349 6.16569 22.2878C6.10218 22.4406 6.00918 22.5794 5.892 22.6963C5.77482 22.8132 5.63576 22.9059 5.48276 22.969C5.32976 23.0321 5.16582 23.0645 5.00031 23.0643L5 24.0116H9.08196V23.0643H9.08103C8.91561 23.0644 8.75179 23.0319 8.59891 22.9687C8.44604 22.9055 8.30711 22.8129 8.19005 22.696C8.073 22.5791 7.98011 22.4403 7.91669 22.2875C7.85328 22.1347 7.82057 21.971 7.82045 21.8056V20.6336C7.82045 20.4701 7.95285 20.3358 8.11788 20.3358H11.8797C11.9587 20.3359 12.0344 20.3673 12.0903 20.4231C12.1461 20.4789 12.1776 20.5546 12.1778 20.6336V21.8056C12.1777 21.971 12.145 22.1347 12.0816 22.2875C12.0183 22.4403 11.9254 22.5791 11.8084 22.696C11.6913 22.8129 11.5524 22.9055 11.3996 22.9687C11.2467 23.0319 11.0829 23.0644 10.9175 23.0643H10.9153V24.0116H14.9976V23.0643H14.9957C14.6619 23.0642 14.3417 22.9316 14.1056 22.6955C13.8694 22.4595 13.7367 22.1394 13.7364 21.8056V17.3497C13.7367 17.0157 13.8695 16.6954 14.1055 16.4591C14.3416 16.2228 14.6617 16.0898 14.9957 16.0891H14.9976V15.1437H13.7364H12.1778Z" fill="white"/>
<path d="M31.3048 16.4296C32.5875 16.4296 33.5988 17.1898 34.0538 18.2683H34.9999V15.1464H34.055C34.055 15.3621 33.8779 15.5386 33.661 15.5386C33.6153 15.5386 33.5696 15.529 33.5289 15.5147L33.5261 15.5165C32.8874 15.189 32.1461 15 31.33 15C28.6102 15 26.688 17.0863 26.688 19.5811V19.6044C26.688 22.097 28.5866 24.1581 31.3048 24.1581C31.3922 24.1581 31.4776 24.1544 31.5628 24.1507C31.6228 24.1479 31.6796 24.1423 31.7378 24.1376C31.7567 24.1364 31.7744 24.1355 31.7928 24.1333C33.1065 24.0006 34.2331 23.3411 34.9691 22.3646L33.9727 21.3678C33.3592 22.1781 32.3991 22.7288 31.3937 22.7288V22.726C31.372 22.726 31.3521 22.7288 31.33 22.7288C29.5715 22.7288 28.3209 21.2976 28.3209 19.5811V19.555C28.3209 17.8329 29.5473 16.4296 31.3048 16.4296Z" fill="white"/>
<path d="M24.0217 19.6026C24.0217 21.3377 22.8059 22.5908 20.9439 22.5908H19.1954V16.5624H20.9439C22.8059 16.5624 24.0217 17.8413 24.0217 19.5765V19.6026ZM20.9439 15.1427L17.6355 15.1436H16.374V16.0893C16.7083 16.0895 17.0292 16.2223 17.2656 16.4586C17.5021 16.6949 17.6351 17.0153 17.6355 17.3496V21.8055C17.6351 22.1396 17.502 22.4599 17.2655 22.6959C17.029 22.932 16.7085 23.0644 16.3743 23.0642L16.374 24.0115H17.6355L20.9439 24.0105C23.7302 24.0105 25.6568 22.0718 25.6568 19.5765V19.5507C25.6568 17.055 23.7302 15.1427 20.9439 15.1427Z" fill="white"/>
<circle cx="20" cy="20" r="19.5" stroke="black" stroke-opacity="0.05"/>
</svg>
