<svg width="40" height="40" viewBox="0 0 40 40" fill="none" xmlns="http://www.w3.org/2000/svg">
<circle cx="20" cy="20" r="20" fill="#04009A"/>
<g clip-path="url(#clip0_24563_41694)">
<path d="M12.2052 13H11.0752C11.0531 13 11.0352 13.0179 11.0352 13.04V28.15C11.0352 28.1721 11.0531 28.19 11.0752 28.19H12.2052C12.2272 28.19 12.2452 28.1721 12.2452 28.15V13.04C12.2452 13.0179 12.2272 13 12.2052 13Z" fill="white"/>
<path d="M15.405 15.9598C12.115 18.0698 12.105 22.6298 15.395 24.7598C15.435 24.7898 15.465 24.8298 15.465 24.8798V28.0998C15.465 28.0998 15.425 28.1798 15.385 28.1798H12.925C12.925 28.1798 12.855 28.1598 12.855 28.1098V13.0798C12.855 13.0798 12.875 13.0098 12.925 13.0098H15.385C15.435 13.0098 15.465 13.0398 15.465 13.0898V15.8598C15.465 15.8598 15.445 15.9398 15.415 15.9598H15.405Z" fill="white"/>
<path d="M19.7852 15.4898C18.6552 15.1098 17.5452 15.1098 16.4252 15.4898C16.3952 15.4898 16.3752 15.4898 16.3652 15.4598C16.3652 15.4598 16.3652 15.4598 16.3652 15.4498V13.0698C16.3652 13.0698 16.3952 13.0098 16.4252 13.0098H19.7452C19.7952 13.0098 19.8252 13.0398 19.8252 13.0898V15.4598C19.8252 15.4598 19.8152 15.4898 19.7952 15.4898C19.7952 15.4898 19.7952 15.4898 19.7852 15.4898Z" fill="white"/>
<path d="M22.7451 22.6098C23.8751 20.1598 23.0851 17.3998 20.7851 15.9598C20.7451 15.9398 20.7251 15.8998 20.7251 15.8598V13.0898C20.7251 13.0398 20.7551 13.0098 20.8051 13.0098H29.5951C29.6451 13.0098 29.6751 13.0398 29.6751 13.0898V23.4498C29.6751 23.4498 29.6551 23.5198 29.6151 23.5398C27.4251 24.2898 26.1851 25.8098 25.8751 28.0998C25.8751 28.1498 25.8351 28.1698 25.7851 28.1698H20.8151C20.7551 28.1698 20.7251 28.1398 20.7251 28.0798V24.8798C20.7251 24.8798 20.7451 24.7898 20.7851 24.7698C21.6951 24.1798 22.3451 23.4598 22.7351 22.6098H22.7451Z" fill="white"/>
<path d="M16.465 25.26C17.605 25.62 18.705 25.62 19.765 25.25C19.785 25.25 19.815 25.25 19.825 25.28C19.825 25.28 19.825 25.28 19.825 25.29V28.1C19.825 28.15 19.795 28.18 19.745 28.18H16.405C16.405 28.18 16.375 28.17 16.375 28.15V25.33C16.375 25.27 16.405 25.24 16.465 25.26Z" fill="white"/>
</g>
<circle cx="20" cy="20" r="19.5" stroke="black" stroke-opacity="0.05"/>
<defs>
<clipPath id="clip0_24563_41694">
<rect width="18.64" height="15.19" fill="white" transform="translate(11.0352 13)"/>
</clipPath>
</defs>
</svg>
