<svg width="40" height="40" viewBox="0 0 40 40" fill="none" xmlns="http://www.w3.org/2000/svg">
<circle cx="20" cy="20" r="20" fill="#094D8E"/>
<path d="M14.6643 23.0743C14.5007 23.3285 14.2999 23.5375 14.0325 23.6717C13.8708 23.751 13.6944 23.7962 13.5145 23.8044C13.3277 23.8148 13.1405 23.8237 12.9535 23.8239C12.2315 23.8253 11.5096 23.8239 10.7876 23.822C10.7683 23.822 10.7492 23.8199 10.7256 23.8184C10.8632 23.4826 10.9992 23.1518 11.1344 22.821C11.1821 22.7043 11.2269 22.5868 11.2775 22.4716C11.2838 22.4603 11.2927 22.4506 11.3033 22.4433C11.314 22.4361 11.3262 22.4314 11.339 22.4296C11.9482 22.4274 12.5573 22.4241 13.1665 22.4317C13.2698 22.4317 13.2581 22.3535 13.2757 22.3125C13.3874 22.0546 13.4868 21.7918 13.5894 21.5302C13.6058 21.4884 13.6018 21.4557 13.5443 21.4586C13.5267 21.4586 13.5092 21.4586 13.4916 21.4586C12.9008 21.4538 12.31 21.45 11.7192 21.4441C11.4569 21.4412 11.1485 21.2055 11.0659 20.9639C10.9729 20.6916 11.0027 20.4328 11.1198 20.174C11.1986 19.9999 11.2591 19.8162 11.3297 19.6392C11.4768 19.2681 11.6247 18.8972 11.7734 18.5266C11.9093 18.1877 12.047 17.8495 12.1865 17.5117C12.2013 17.4888 12.2245 17.4727 12.2511 17.4667C12.2806 17.4612 12.3107 17.4599 12.3405 17.4628C12.8519 17.4619 13.3633 17.4611 13.8746 17.4604C13.8921 17.4621 13.9094 17.4652 13.9264 17.4698C13.8723 17.6009 13.8186 17.7281 13.7671 17.8561C13.6791 18.0753 13.5934 18.2955 13.5047 18.5147C13.3814 18.8195 13.2562 19.1236 13.1319 19.4282C13.0654 19.5911 12.9976 19.7535 12.9328 19.9171C12.9125 19.9677 12.9518 19.9617 12.9826 19.9617C13.2908 19.9617 13.5991 19.961 13.9076 19.9596C13.9877 19.9557 14.0679 19.9563 14.148 19.9615C14.214 19.9691 14.2355 19.9297 14.2536 19.8854C14.3792 19.5787 14.5038 19.2713 14.6274 18.9633C14.7574 18.6389 14.884 18.3134 15.0142 17.989C15.0808 17.822 15.1514 17.6584 15.2225 17.4943C15.2275 17.4858 15.2344 17.4786 15.2426 17.4732C15.2509 17.4678 15.2603 17.4644 15.2702 17.4633C15.8067 17.4622 16.343 17.4622 16.8792 17.4633C16.8987 17.4633 16.9183 17.4671 16.9467 17.47C16.9021 17.5833 16.8598 17.692 16.8164 17.8003C16.7295 18.0167 16.642 18.2329 16.5541 18.4488C16.4661 18.6648 16.3787 18.8807 16.2917 19.0966C16.1536 19.4403 16.0174 19.7847 15.8779 20.128C15.7765 20.377 15.669 20.6233 15.5678 20.8723C15.4932 21.0565 15.4259 21.2435 15.352 21.4278C15.2819 21.6027 15.2053 21.7749 15.1345 21.9497C15.0603 22.1331 14.9928 22.3194 14.9165 22.5021C14.8377 22.6938 14.7512 22.8811 14.6643 23.0743Z" fill="white"/>
<path d="M8.43694 19.8033H7.38081C7.25416 20.1134 7.12274 20.4332 6.99323 20.7538C6.90498 20.9727 6.82079 21.1931 6.73087 21.4116C6.72509 21.421 6.71718 21.429 6.70779 21.4349C6.69839 21.4408 6.68776 21.4444 6.67673 21.4455C6.14056 21.4485 5.60431 21.4501 5.06798 21.4505C5.04512 21.4486 5.02242 21.4452 5 21.4404C5.05343 21.3024 5.10399 21.1709 5.15503 21.04C5.27556 20.7396 5.39664 20.4397 5.51828 20.1401C5.64422 19.83 5.77325 19.5231 5.89847 19.2135C6.02369 18.9039 6.14652 18.5902 6.27078 18.2788C6.3297 18.1311 6.39004 17.984 6.44919 17.8363C6.55056 17.5823 6.65073 17.3278 6.75281 17.0731C6.81769 16.9116 6.88352 16.7504 6.95269 16.5908C6.9593 16.5797 6.96842 16.5703 6.97931 16.5634C6.9902 16.5564 7.00256 16.5521 7.01541 16.5507C7.56876 16.5486 8.12234 16.5488 8.68737 16.5488L8.02097 18.2041H9.62448C9.74874 18.2041 9.75018 18.2041 9.79645 18.0903C9.90902 17.8146 10.0226 17.5391 10.1344 17.2629C10.2243 17.0409 10.3114 16.8174 10.403 16.5951C10.4093 16.5834 10.4183 16.5734 10.4291 16.5657C10.44 16.5581 10.4526 16.5531 10.4657 16.5512C11.0171 16.5488 11.5683 16.5493 12.1331 16.5493C12.1036 16.629 12.0783 16.7034 12.0489 16.7759C11.9513 17.0184 11.853 17.2606 11.7539 17.5024C11.6721 17.7027 11.5881 17.9024 11.5075 18.1032C11.4519 18.242 11.4026 18.3835 11.3468 18.522C11.2571 18.745 11.1631 18.9664 11.0734 19.1899C10.9415 19.5173 10.8111 19.8455 10.6806 20.1735C10.5788 20.4284 10.4772 20.6834 10.3739 20.9381C10.3135 21.0875 10.2465 21.2344 10.1909 21.3854C10.1707 21.44 10.1399 21.4493 10.092 21.4493C9.88136 21.4493 9.67099 21.4493 9.46039 21.4493C9.14476 21.4493 8.82913 21.4486 8.5135 21.4474C8.49442 21.4474 8.47534 21.4435 8.45029 21.4409C8.66638 20.8995 8.87961 20.3643 9.10429 19.8038C9.02653 19.8038 8.96834 19.8038 8.89607 19.8038C8.73388 19.8026 8.58624 19.8028 8.43694 19.8033Z" fill="white"/>
<path d="M33.4258 17.253H34.8862C34.8881 17.2601 34.8898 17.2673 34.8914 17.2744C34.8161 17.3221 34.7412 17.3698 34.6651 17.4175C34.5303 17.5003 34.3949 17.5821 34.2596 17.6642C34.1244 17.7462 33.9887 17.8268 33.8542 17.9098C33.5309 18.1087 33.2081 18.3082 32.8858 18.5082C32.6537 18.6514 32.4229 18.7983 32.1898 18.9407C32.0117 19.0492 31.8306 19.1532 31.6513 19.2596C31.6164 19.2771 31.5837 19.2988 31.554 19.3242C31.5463 19.3336 31.5411 19.3448 31.5388 19.3568C31.5365 19.3687 31.5372 19.381 31.5408 19.3926C31.6212 19.5183 31.7052 19.6417 31.7903 19.7645C31.9415 19.983 32.0936 20.2008 32.2464 20.418C32.3964 20.6303 32.55 20.8399 32.6995 21.0522C32.7887 21.1781 32.8741 21.3067 32.969 21.4453C32.9335 21.4474 32.9013 21.451 32.8691 21.451C32.2124 21.451 31.5557 21.4505 30.899 21.4496C30.869 21.4469 30.8389 21.4469 30.8089 21.4496C30.7077 21.4686 30.6512 21.415 30.6006 21.3372C30.5119 21.2003 30.4179 21.067 30.3254 20.9329C30.1723 20.7114 30.0189 20.4902 29.8653 20.2692C29.8291 20.2169 29.7916 20.1654 29.7558 20.1129C29.732 20.0793 29.7162 20.0672 29.6967 20.117C29.6245 20.3026 29.551 20.4876 29.4761 20.672C29.4045 20.8476 29.3313 21.0224 29.2581 21.1967C29.2316 21.2604 29.197 21.3212 29.1782 21.3875C29.1617 21.4455 29.1271 21.4517 29.0782 21.4517C28.6119 21.4508 28.1456 21.4508 27.6794 21.4517H27.438C27.4754 21.3563 27.5095 21.2676 27.5441 21.1805C27.6329 20.9624 27.7221 20.7444 27.8117 20.5265C27.9267 20.2451 28.0431 19.9641 28.1559 19.682C28.2442 19.4606 28.3257 19.2369 28.414 19.0158C28.5022 18.7947 28.596 18.5767 28.6854 18.3566C28.7808 18.1209 28.8743 17.8838 28.9697 17.6479C29.0503 17.449 29.134 17.2513 29.2144 17.0517C29.275 16.9019 29.331 16.7504 29.3935 16.6018C29.4002 16.5892 29.4097 16.5784 29.4213 16.5701C29.4329 16.5618 29.4462 16.5563 29.4603 16.5541C30.0044 16.551 30.5484 16.5515 31.0922 16.5513C31.1046 16.5523 31.117 16.554 31.1292 16.5565L30.4358 18.2838L30.4568 18.2998C30.5389 18.255 30.6238 18.2125 30.703 18.1648C30.8812 18.0587 31.0583 17.9512 31.2341 17.8421C31.3918 17.7445 31.5466 17.6427 31.7045 17.5456C31.8237 17.4726 31.9537 17.4161 32.0622 17.331C32.1708 17.2458 32.2845 17.2554 32.4031 17.2551C32.7415 17.2527 33.08 17.253 33.4258 17.253Z" fill="white"/>
<path d="M19.8919 16.5504H21.5273L20.1936 19.8591H22.7836C22.7144 20.0332 22.649 20.1985 22.5827 20.3635C22.5083 20.5484 22.4327 20.7325 22.3585 20.9173C22.2927 21.0812 22.2295 21.246 22.1615 21.4087C22.1537 21.4275 22.1231 21.439 22.1007 21.449C22.086 21.4518 22.0708 21.4518 22.0561 21.449H17.8345C17.8896 21.3104 17.9377 21.1866 17.9871 21.0647C18.0803 20.8339 18.1738 20.6031 18.2676 20.3723C18.3933 20.0642 18.5211 19.7567 18.6447 19.4474C18.7494 19.185 18.8472 18.9198 18.9526 18.6575C19.0719 18.3598 19.199 18.0648 19.3194 17.7673C19.4497 17.4458 19.5761 17.1234 19.7042 16.8006C19.728 16.741 19.7542 16.6814 19.774 16.6213C19.7924 16.5645 19.8244 16.5378 19.8919 16.5504Z" fill="white"/>
<path d="M17.3461 23.3265H36.6012L36.4658 23.6733H16.937C16.9797 23.5638 17.0172 23.4603 17.0613 23.3599C17.0691 23.3425 17.1047 23.3293 17.1281 23.3281C17.1982 23.3239 17.2681 23.3265 17.3461 23.3265Z" fill="#F50A0B"/>
<path d="M22.6104 22.3147H36.9997C36.9959 22.3382 36.9902 22.3614 36.9828 22.3841C36.9647 22.4273 36.9313 22.4678 36.9263 22.5122C36.9074 22.6768 36.8011 22.676 36.6711 22.6758C30.2558 22.6734 23.8406 22.6727 17.4254 22.6737H17.3374C17.3851 22.5608 17.4299 22.4554 17.4762 22.3507C17.4793 22.3448 17.4836 22.3397 17.4888 22.3356C17.4941 22.3315 17.5001 22.3285 17.5065 22.3269C17.5402 22.3194 17.5746 22.3153 17.6091 22.3145C19.2737 22.3145 20.9408 22.3145 22.6104 22.3147Z" fill="#EE0405"/>
<path d="M24.6562 23.1662H17.1362C17.1839 23.0543 17.2266 22.9534 17.2731 22.8547C17.2801 22.8399 17.3068 22.8308 17.3261 22.827C17.346 22.8246 17.3661 22.8246 17.386 22.827H36.7053C36.7356 22.827 36.7659 22.8327 36.7986 22.8361C36.7594 22.9396 36.727 23.0328 36.6877 23.1223C36.6812 23.133 36.6726 23.1423 36.6624 23.1495C36.6522 23.1567 36.6405 23.1616 36.6283 23.164C36.5886 23.1679 36.5487 23.1686 36.509 23.1659L24.6562 23.1662Z" fill="#F20708"/>
<path d="M17.4366 17.8439H18.8402C18.7951 17.9603 18.7536 18.0693 18.7107 18.1778C18.5835 18.5008 18.4552 18.8236 18.326 19.1464C18.3084 19.2002 18.287 19.2527 18.2618 19.3034C18.2527 19.3152 18.2411 19.325 18.2278 19.3319C18.2146 19.3388 18.2 19.3427 18.185 19.3434C17.6887 19.3451 17.1926 19.3434 16.6962 19.3434C16.6774 19.3434 16.6585 19.3401 16.6318 19.3375L16.8408 18.8223C16.9165 18.6361 16.9918 18.4497 17.0669 18.2632C17.1146 18.1428 17.1604 18.0211 17.21 17.9016C17.225 17.8659 17.2508 17.8377 17.3006 17.8449C17.3459 17.8478 17.3913 17.8475 17.4366 17.8439Z" fill="white"/>
<path d="M28.1619 17.9634C28.0925 17.755 27.9804 17.5856 27.8027 17.4559C27.6076 17.3128 27.3868 17.2555 27.1514 17.2536C26.6479 17.2493 26.1441 17.251 25.6404 17.2536C25.5332 17.2546 25.4262 17.2626 25.3201 17.2775C25.0227 17.3173 24.7465 17.417 24.5037 17.5959C24.3408 17.7151 24.1826 17.8418 24.0603 18.0066C23.9379 18.1714 23.8351 18.336 23.7645 18.5268C23.6796 18.7569 23.5794 18.9811 23.4883 19.2092C23.375 19.4927 23.2613 19.7763 23.1544 20.0623C23.0764 20.2698 23.0452 20.4845 23.105 20.7032C23.1675 20.9322 23.2784 21.1325 23.4754 21.2737C23.6346 21.3846 23.8241 21.4437 24.0181 21.443C24.5843 21.4526 25.1505 21.4537 25.7167 21.4464C25.8825 21.444 26.0506 21.4099 26.2123 21.3713C26.4509 21.3142 26.66 21.1917 26.8563 21.0421C27.0265 20.9123 27.1755 20.7568 27.298 20.5813C27.376 20.4699 27.4283 20.3404 27.492 20.213C27.5208 20.1367 27.5504 20.0664 27.5793 19.9958C27.6701 19.7728 27.7598 19.5497 27.8514 19.3279C27.9229 19.1543 28.0012 18.9838 28.0661 18.8082C28.1681 18.5358 28.2614 18.2635 28.1619 17.9634ZM26.4847 18.9034C26.4132 19.1042 26.3435 19.305 26.2672 19.5037C26.2114 19.648 26.1479 19.7899 26.085 19.9309C26.0153 20.0883 25.9085 20.2014 25.7289 20.2316C25.5059 20.2691 25.2814 20.2555 25.0625 20.2197C24.8717 20.1882 24.7429 19.9984 24.7763 19.8362C24.8001 19.7243 24.844 19.6168 24.8791 19.5073C24.9897 19.2435 25.0937 18.99 25.1989 18.7362C25.2726 18.5566 25.4226 18.4755 25.6001 18.4671C25.8131 18.4571 26.0294 18.4361 26.2412 18.4884C26.3836 18.5239 26.5401 18.7472 26.4847 18.9043V18.9034Z" fill="white"/>
<circle cx="20" cy="20" r="19.5" stroke="black" stroke-opacity="0.05"/>
</svg>
