<svg width="40" height="40" viewBox="0 0 40 40" fill="none" xmlns="http://www.w3.org/2000/svg">
<circle cx="20" cy="20" r="20" fill="#AC8571"/>
<path d="M25.6456 15.506C23.6718 12.8589 20.1345 11.9467 17.1272 13.3145C15.819 13.9093 14.693 14.9247 13.9618 16.1974C13.3225 17.3096 13.0112 18.5211 13.0279 19.8319C13.028 19.8389 13.0263 19.8458 13.0229 19.852C13.0196 19.8582 13.0148 19.8634 13.0089 19.8672C13.003 19.871 12.9962 19.8732 12.9892 19.8737C12.9822 19.8742 12.9752 19.8729 12.9689 19.8699L11.5065 19.2C11.4943 19.1944 11.481 19.1916 11.4675 19.1917C11.454 19.1919 11.4406 19.1951 11.4285 19.201L10.0692 19.8589C10.0655 19.8606 10.0614 19.8613 10.0573 19.861C10.0533 19.8607 10.0493 19.8594 10.0459 19.8571C10.0425 19.8549 10.0397 19.8518 10.0379 19.8481C10.036 19.8445 10.035 19.8405 10.0352 19.8364C10.0442 19.541 10.0317 19.2416 10.0562 18.9442C10.2414 16.6704 11.0935 14.6801 12.6125 12.9731C12.8241 12.7354 13.0545 12.5048 13.3037 12.2811C14.9839 10.7744 16.9479 9.9196 19.1956 9.71666C19.4011 9.69797 19.6202 9.68945 19.8527 9.69112C20.1485 9.69363 20.4443 9.68612 20.7315 9.70714C22.6393 9.84466 24.3651 10.4727 25.9088 11.5912C28.296 13.321 29.7939 16.0222 30.0076 18.9792C30.0083 18.9896 30.0041 18.9967 29.9951 19.0007L28.5413 19.6641C28.5231 19.6724 28.5033 19.6767 28.4833 19.6765C28.4634 19.6763 28.4437 19.6718 28.4257 19.6631L27.0419 18.9907C27.0128 18.9764 26.9965 18.9532 26.9928 18.9211C26.85 17.6578 26.4009 16.5194 25.6456 15.506Z" fill="white"/>
<path d="M19.9202 22.44L11.1036 29.5186C11.1016 29.5201 11.0992 29.5211 11.0967 29.5214C11.0942 29.5217 11.0917 29.5213 11.0894 29.5203C11.0871 29.5193 11.0851 29.5176 11.0836 29.5156C11.0822 29.5135 11.0813 29.5111 11.0811 29.5086C11.0807 29.4985 11.0834 29.4892 11.0891 29.4805C14.0555 25.2211 17.0167 20.9655 19.9728 16.7137C19.9762 16.7088 19.9808 16.7047 19.9861 16.7019C19.9914 16.6991 19.9973 16.6976 20.0033 16.6976C20.0093 16.6976 20.0153 16.6991 20.0206 16.7019C20.0259 16.7047 20.0304 16.7088 20.0339 16.7137L28.876 29.4775C28.9544 29.591 28.9397 29.6047 28.832 29.5186L19.9738 22.44C19.9561 22.4256 19.9383 22.4256 19.9202 22.44Z" fill="white"/>
<path d="M30.0353 19.8219C29.9898 22.2156 29.135 24.4692 27.573 26.2631C27.569 26.2677 27.564 26.2713 27.5584 26.2737C27.5528 26.2761 27.5467 26.2771 27.5406 26.2768C27.5346 26.2764 27.5286 26.2747 27.5233 26.2718C27.518 26.2688 27.5134 26.2646 27.51 26.2596L25.7889 23.7758C25.7783 23.7604 25.7726 23.7423 25.7725 23.7237C25.7724 23.7051 25.7779 23.6869 25.7884 23.6716C26.5598 22.5508 26.9731 21.3081 27.0285 19.9436C27.0302 19.9055 27.0297 19.8671 27.027 19.8284C27.0266 19.8227 27.0277 19.8169 27.0303 19.8118C27.0328 19.8066 27.0367 19.8022 27.0415 19.7989C27.0463 19.7957 27.0518 19.7938 27.0576 19.7933C27.0634 19.7929 27.0693 19.7939 27.0746 19.7964L28.4438 20.4633C28.454 20.4683 28.4651 20.471 28.4764 20.4711C28.4876 20.4713 28.4987 20.469 28.5089 20.4643L29.9828 19.7873C29.9885 19.7847 29.9948 19.7836 30.001 19.784C30.0073 19.7845 30.0134 19.7866 30.0186 19.79C30.0239 19.7935 30.0282 19.7982 30.0311 19.8038C30.034 19.8094 30.0355 19.8156 30.0353 19.8219Z" fill="white"/>
<path d="M13.1161 20.7761C13.2757 21.8025 13.6646 22.7864 14.2586 23.6425C14.2687 23.6569 14.2687 23.6712 14.2586 23.6856L12.503 26.2085C12.4998 26.2132 12.4955 26.217 12.4906 26.2198C12.4857 26.2225 12.4801 26.2241 12.4745 26.2244C12.4688 26.2247 12.4632 26.2237 12.458 26.2214C12.4528 26.2192 12.4482 26.2158 12.4445 26.2115C11.0992 24.6334 10.31 22.7954 10.0768 20.6975C10.0731 20.6652 10.086 20.642 10.1153 20.6279L11.4195 19.9956C11.4566 19.9776 11.4939 19.9772 11.5316 19.9946L13.048 20.6865C13.0659 20.6947 13.0814 20.7072 13.0933 20.7228C13.1052 20.7384 13.113 20.7568 13.1161 20.7761Z" fill="white"/>
<path d="M21.3832 29.6032C18.8639 29.9291 16.4146 29.3438 14.3247 27.9104C14.295 27.89 14.2941 27.8687 14.3222 27.8463L16.7324 25.9097C16.7422 25.9018 16.7541 25.8969 16.7666 25.8957C16.7792 25.8945 16.7918 25.8969 16.803 25.9027C17.6537 26.3463 18.5611 26.6041 19.525 26.6762C20.7795 26.77 21.9901 26.5303 23.1568 25.9572C23.1719 25.9497 23.1889 25.9467 23.2057 25.9484C23.2226 25.9502 23.2386 25.9567 23.2519 25.9673L25.6782 27.9089C25.6816 27.9116 25.6843 27.9152 25.6861 27.9192C25.6879 27.9232 25.6887 27.9275 25.6885 27.9319C25.6883 27.9363 25.6871 27.9406 25.685 27.9444C25.6828 27.9482 25.6798 27.9515 25.6762 27.9539C24.386 28.8266 22.9171 29.4049 21.3832 29.6032Z" fill="white"/>
<circle cx="20" cy="20" r="19.5" stroke="black" stroke-opacity="0.05"/>
</svg>
