<svg width="40" height="40" viewBox="0 0 40 40" fill="none" xmlns="http://www.w3.org/2000/svg">
<circle cx="20" cy="20" r="20" fill="#F6F8FA"/>
<path d="M15.5032 15.2754L11.8705 18.9069C11.8633 18.9139 11.8538 18.9178 11.8438 18.9178C11.8339 18.9178 11.8243 18.9139 11.8171 18.9069L8.17977 15.2754C8.1745 15.2699 8.17096 15.2631 8.16959 15.2557C8.16821 15.2482 8.16906 15.2406 8.17204 15.2336C8.17501 15.2267 8.17998 15.2208 8.1863 15.2167C8.19263 15.2125 8.20004 15.2104 8.20759 15.2105H15.4754C15.4829 15.2104 15.4904 15.2125 15.4967 15.2167C15.503 15.2208 15.508 15.2267 15.5109 15.2336C15.5139 15.2406 15.5148 15.2482 15.5134 15.2557C15.512 15.2631 15.5085 15.2699 15.5032 15.2754Z" fill="#29AAE2"/>
<path d="M18.8673 16.0763C18.8675 16.0679 18.8693 16.0596 18.8726 16.052C18.8759 16.0443 18.8808 16.0373 18.8868 16.0315C18.8928 16.0257 18.8999 16.0212 18.9077 16.0181C18.9155 16.015 18.9238 16.0135 18.9322 16.0137L22.4108 16.0253C22.8699 16.0269 23.3242 16.1189 23.7477 16.2958C24.1712 16.4728 24.5556 16.7313 24.8791 17.0565C25.2025 17.3818 25.4586 17.7675 25.6328 18.1916C25.8069 18.6157 25.8957 19.0699 25.894 19.5282L25.8917 20.2121C25.89 20.6704 25.7979 21.1239 25.6207 21.5468C25.4435 21.9696 25.1846 22.3534 24.8587 22.6763C24.5329 22.9992 24.1466 23.2549 23.7218 23.4287C23.297 23.6026 22.8421 23.6912 22.383 23.6895L18.9044 23.6779C18.896 23.6778 18.8878 23.676 18.8801 23.6726C18.8724 23.6693 18.8655 23.6645 18.8597 23.6584C18.8538 23.6524 18.8493 23.6453 18.8462 23.6375C18.8432 23.6297 18.8417 23.6214 18.8418 23.613L18.8673 16.0763ZM20.8506 17.7918L20.8576 21.9392C20.8576 21.9469 20.8606 21.9543 20.866 21.9597C20.8715 21.9651 20.8788 21.9682 20.8865 21.9682L22.1071 21.9659C22.5834 21.9649 23.0399 21.7753 23.3761 21.4386C23.7124 21.1019 23.9009 20.6457 23.9003 20.1704V19.5514C23.9 19.3158 23.8532 19.0826 23.7625 18.8651C23.6719 18.6475 23.5392 18.45 23.372 18.2837C23.2048 18.1174 23.0065 17.9855 22.7882 17.8958C22.57 17.806 22.3362 17.76 22.1002 17.7605L20.8796 17.7628C20.8719 17.7628 20.8645 17.7659 20.8591 17.7713C20.8537 17.7767 20.8506 17.7841 20.8506 17.7918Z" fill="#073773"/>
<path d="M29.2897 19.0993C29.7294 18.1434 30.2209 17.1411 30.7641 16.0925C30.776 16.0692 30.7942 16.0496 30.8165 16.0361C30.8388 16.0226 30.8645 16.0156 30.8905 16.016L32.992 16.0206C32.9996 16.0205 33.0071 16.0224 33.0137 16.0262C33.0203 16.03 33.0258 16.0356 33.0296 16.0423C33.0333 16.049 33.0353 16.0567 33.0352 16.0645C33.0351 16.0723 33.033 16.08 33.0291 16.0867C32.2076 17.4676 31.3854 18.8857 30.5624 20.3408C30.4326 20.5714 30.2692 20.7778 30.2703 21.0536C30.2734 21.9446 30.2738 22.8066 30.2715 23.6397C30.2715 23.6483 30.2681 23.6565 30.262 23.6626C30.2559 23.6687 30.2476 23.6721 30.239 23.6721H28.3357C28.2932 23.6721 28.272 23.6513 28.272 23.6095C28.272 22.6969 28.2731 21.8449 28.2754 21.0536C28.2754 20.9176 28.2414 20.7913 28.1734 20.6746C27.2701 19.1221 26.3837 17.5959 25.5144 16.096C25.5101 16.0884 25.5078 16.0798 25.5078 16.0711C25.5078 16.0624 25.51 16.0539 25.5142 16.0464C25.5184 16.0389 25.5245 16.0327 25.5319 16.0284C25.5392 16.024 25.5476 16.0218 25.5561 16.0218L27.6321 16.0195C27.6696 16.0195 27.7063 16.0302 27.7379 16.0503C27.7695 16.0704 27.7948 16.0991 27.8106 16.1331L29.2259 19.1005C29.2476 19.1453 29.2688 19.1449 29.2897 19.0993Z" fill="#073773"/>
<path d="M7.04226 16.3579C7.03685 16.3448 7.03453 16.3312 7.0353 16.3173C7.03607 16.2849 7.04805 16.2802 7.07123 16.3034L10.7306 19.9663C10.76 19.9964 10.76 20.0262 10.7306 20.0556L7.0863 23.7057C7.06157 23.7304 7.0496 23.7254 7.05037 23.6906C7.06042 21.2889 7.06235 18.8709 7.05617 16.4367C7.05617 16.4097 7.05153 16.3834 7.04226 16.3579Z" fill="#006AAC"/>
<path d="M15.9779 21.5451C15.9733 22.0308 15.7774 22.5918 15.5177 22.9987C15.1105 23.6355 14.5827 24.0686 13.9344 24.2981C13.5418 24.4372 12.9008 24.5013 12.0113 24.4905C10.8839 24.4774 9.74059 24.4762 8.58145 24.487C8.57195 24.487 8.56269 24.4841 8.5548 24.4788C8.54691 24.4735 8.54074 24.4661 8.53704 24.4573C8.53335 24.4486 8.53229 24.4389 8.534 24.4296C8.53571 24.4202 8.54012 24.4116 8.54667 24.4047L15.9165 17.0848C15.9218 17.0793 15.9285 17.0756 15.9359 17.0741C15.9433 17.0726 15.9511 17.0734 15.9581 17.0764C15.9652 17.0793 15.9713 17.0844 15.9756 17.0908C15.98 17.0973 15.9824 17.1048 15.9826 17.1126C15.9926 18.621 15.9911 20.0985 15.9779 21.5451Z" fill="#073773"/>
<path d="M20.8516 17.7919C20.8516 17.7842 20.8546 17.7769 20.86 17.7714C20.8655 17.766 20.8729 17.7629 20.8805 17.7629L22.1011 17.7606C22.3372 17.7602 22.571 17.8061 22.7892 17.8959C23.0074 17.9857 23.2058 18.1175 23.373 18.2838C23.5402 18.4501 23.6729 18.6477 23.7635 18.8652C23.8541 19.0827 23.901 19.3159 23.9013 19.5515V20.1705C23.9019 20.6459 23.7133 21.102 23.3771 21.4387C23.0408 21.7754 22.5844 21.9651 22.1081 21.966L20.8875 21.9683C20.8798 21.9683 20.8724 21.9652 20.867 21.9598C20.8616 21.9544 20.8585 21.947 20.8585 21.9393L20.8516 17.7919Z" fill="white"/>
<circle cx="20" cy="20" r="19.5" stroke="black" stroke-opacity="0.05"/>
</svg>
