<svg width="40" height="40" viewBox="0 0 40 40" fill="none" xmlns="http://www.w3.org/2000/svg">
<ellipse cx="20.0176" cy="20" rx="19.9824" ry="20" fill="#F6F8FA"/>
<g clip-path="url(#clip0_26401_47734)">
<path d="M12.6241 16.3702C10.7657 15.6902 8.63759 15.9202 7.36871 17.5302C6.54943 18.5702 6.22971 20.1702 6.75924 21.3902C7.55854 23.2502 9.52681 23.1902 11.1254 22.6002C11.3752 22.5102 11.4052 22.5402 11.1953 22.7202C9.71664 23.9402 7.64846 24.0802 6.0099 23.1602C4.40132 22.2502 3.78186 20.5502 4.12156 18.7802C4.84093 14.9802 8.84741 14.1602 11.8548 15.8002C12.1345 15.9502 12.4243 16.1102 12.6641 16.3102C12.774 16.4002 12.754 16.4202 12.6241 16.3702Z" fill="#2F277E"/>
<path d="M20.617 23.42C21.0766 23.17 21.2764 22.57 21.2964 22.09C21.2964 22.03 21.3564 21.98 21.4163 21.98H23.2447C23.2447 21.98 23.3046 22.01 23.3046 22.04C23.1548 24.05 21.9059 25.18 19.9176 25.26C17.9693 25.34 16.2009 24.56 16.071 22.37C16.041 21.8 16.0211 21.05 16.031 20.12C16.031 19.64 16.061 19.24 16.111 18.94C16.4307 16.98 18.1692 16.31 19.9676 16.41C21.0267 16.47 22.0458 16.88 22.6153 17.8C22.955 18.35 23.1748 18.94 23.2847 19.56C23.2847 19.6 23.2647 19.63 23.2347 19.64C23.2347 19.64 23.2347 19.64 23.2247 19.64H21.3064C21.3064 19.64 21.2465 19.61 21.2365 19.58C21.1865 19.17 21.0566 18.83 20.8468 18.55C20.4072 17.96 19.4181 17.89 18.8086 18.21C18.1692 18.55 17.9893 19.23 17.9993 19.91C17.9993 20.49 17.9993 21.08 17.9993 21.7C17.9993 22.5 18.2091 23.34 19.1083 23.55C19.5979 23.66 20.1874 23.66 20.637 23.41L20.617 23.42Z" fill="#2F277E"/>
<path d="M11.7848 19.6299C11.4152 19.0299 10.9955 18.5999 10.516 18.3299C8.93735 17.4299 7.47863 18.6299 6.88915 20.0499C6.87915 20.0899 6.84918 20.1099 6.80922 20.1099C6.76925 20.1099 6.74927 20.0999 6.75926 20.0599C6.92911 18.5499 7.6285 17.4899 8.86741 16.8999C9.57678 16.5599 10.446 16.4299 11.2353 16.5199C12.3743 16.6499 13.3734 17.1299 14.2327 17.9699C14.3826 18.1099 14.4825 18.2399 14.4825 18.4599C14.4825 18.9099 14.4825 19.3099 14.4825 19.6799C14.4825 19.7199 14.4525 19.7599 14.4125 19.7599C13.5633 19.7599 12.734 19.7599 11.9447 19.7599C11.8848 19.7599 11.8348 19.7299 11.8148 19.6699C11.8148 19.6499 11.7948 19.6399 11.7948 19.6199L11.7848 19.6299Z" fill="#D02D26"/>
<path d="M30.4984 20.6301C31.3976 21.0601 31.8173 21.9701 31.6774 22.9801C31.4776 24.4101 30.3485 25.0901 28.9698 25.1001C27.6209 25.1101 26.2721 25.1101 24.9233 25.1001C24.8833 25.1001 24.8434 25.0701 24.8434 25.0201V16.6501C24.8434 16.6501 24.8634 16.5901 24.9033 16.5901C26.0024 16.5901 27.2013 16.5801 28.4902 16.5801C29.809 16.5801 31.1778 17.1001 31.3577 18.5801C31.4576 19.4201 31.1678 20.0601 30.4784 20.5101C30.4485 20.5301 30.4385 20.5801 30.4584 20.6101C30.4584 20.6201 30.4784 20.6301 30.4884 20.6401L30.4984 20.6301ZM26.7117 18.2301V19.9401C26.7117 19.9401 26.7417 20.0001 26.7717 20.0001H28.6101C29.0897 20.0001 29.4793 19.6301 29.4793 19.1701V18.9901C29.4793 18.5301 29.0897 18.1701 28.6101 18.1701H26.7717C26.7717 18.1701 26.7117 18.2001 26.7117 18.2301ZM26.7317 21.5401L26.7117 23.4201C26.7117 23.4201 26.7417 23.5001 26.7917 23.5001L28.8299 23.5201C29.3594 23.5201 29.799 23.1101 29.809 22.5901V22.4301C29.809 21.9101 29.3894 21.4901 28.8599 21.4801L26.8216 21.4601C26.8216 21.4601 26.7417 21.4901 26.7417 21.5401H26.7317Z" fill="#2F277E"/>
<path d="M35.1642 16.5801H33.3958C33.3627 16.5801 33.3358 16.6069 33.3358 16.6401V25.0401C33.3358 25.0732 33.3627 25.1001 33.3958 25.1001H35.1642C35.1973 25.1001 35.2242 25.0732 35.2242 25.0401V16.6401C35.2242 16.6069 35.1973 16.5801 35.1642 16.5801Z" fill="#2F277E"/>
<path d="M4.55117 22.34C5.6602 23.76 7.69841 24.68 9.46685 24.22C10.7257 23.89 11.6849 22.9 12.0346 21.6C12.0346 21.57 12.0746 21.54 12.1045 21.54H14.4625C14.4625 21.54 14.5024 21.56 14.5024 21.58C14.5624 23.63 13.2835 24.96 11.4451 25.56C10.0264 26.01 8.57763 26.08 7.25879 25.41C5.98991 24.78 5.07071 23.77 4.49122 22.39C4.48123 22.36 4.49122 22.34 4.51121 22.33C4.53119 22.33 4.54118 22.33 4.55117 22.34Z" fill="#2F277E"/>
</g>
<path d="M19.9824 0.5C30.7419 0.5 39.4648 9.23003 39.4648 20C39.4648 30.77 30.7419 39.5 19.9824 39.5C9.22299 39.5 0.5 30.77 0.5 20C0.5 9.23004 9.22299 0.500008 19.9824 0.5Z" stroke="black" stroke-opacity="0.05"/>
<defs>
<clipPath id="clip0_26401_47734">
<rect width="31.1926" height="10.9" fill="white" transform="translate(4.03162 15)"/>
</clipPath>
</defs>
</svg>
