<svg width="40" height="40" viewBox="0 0 40 40" fill="none" xmlns="http://www.w3.org/2000/svg">
<circle cx="20" cy="20" r="20" fill="#F6F8FA"/>
<g clip-path="url(#clip0_18553_55878)">
<path d="M37.0352 15.7368H6.2108L3.03516 24.7368H33.8595L37.0352 15.7368Z" fill="#EA0026"/>
<path d="M24.4317 20.8272C24.8075 21.1836 25.2201 21.234 25.6769 20.982C25.8759 20.8704 26.0085 20.7084 26.0711 20.4996C26.0895 20.442 26.1264 20.424 26.1853 20.442L27.8026 20.9604C27.8505 20.9748 27.8653 21.0072 27.8468 21.0504C26.959 23.3616 23.9123 23.5992 22.6671 21.4968C22.1881 20.6868 22.1992 19.6356 22.6671 18.804C23.2381 17.796 24.5533 17.1012 25.7617 17.4216C26.749 17.6844 27.4379 18.2748 27.8284 19.2C27.8395 19.2252 27.8284 19.2432 27.8026 19.254L26.1743 19.866C26.1264 19.884 26.0932 19.8696 26.0748 19.8228C25.8722 19.3188 25.4006 19.0812 24.8885 19.2108C24.1849 19.3908 23.8791 20.3088 24.428 20.8272H24.4317Z" fill="white"/>
<path d="M31.0631 22.9406C29.501 22.9478 28.2301 21.7022 28.2227 20.1578C28.2153 18.6134 29.4716 17.3534 31.0336 17.3462C32.5956 17.339 33.8666 18.5846 33.874 20.129C33.8814 21.6734 32.6251 22.9334 31.0631 22.9406ZM32.0504 20.1578C32.0504 19.6178 31.601 19.1786 31.0483 19.1786C30.4957 19.1786 30.0463 19.6178 30.0463 20.1578C30.0463 20.6978 30.4957 21.137 31.0483 21.137C31.601 21.137 32.0504 20.6978 32.0504 20.1578Z" fill="white"/>
<path d="M9.74738 17.4109C11.0257 17.5117 11.9468 18.1669 12.2525 19.4269C12.2709 19.4989 12.2415 19.5385 12.1678 19.5493L10.8489 19.7149C10.8047 19.7221 10.7605 19.7005 10.7384 19.6645C10.4916 19.2721 10.2042 19.0165 9.71422 18.9877C9.49687 18.9733 9.30161 19.0309 9.13583 19.1569C9.11004 19.1749 9.08794 19.2001 9.06952 19.2253C8.90005 19.4593 8.96637 19.6177 9.27214 19.7077C9.68844 19.8265 10.0974 19.9381 10.4989 20.0497C11.3573 20.2873 11.7883 20.8345 11.7847 21.6877C11.7847 22.5157 11.0221 23.0701 10.2447 23.1925C9.80633 23.2645 9.32372 23.2753 8.79322 23.2321C8.01588 23.1637 7.37854 22.8613 6.88488 22.3249C6.83331 22.2673 6.81489 22.1881 6.84067 22.1125L7.33434 20.7229C7.33434 20.7229 7.34907 20.7049 7.36012 20.7121C7.36381 20.7121 7.37118 20.7157 7.37118 20.7229C7.66222 21.2773 8.16324 21.6085 8.87795 21.7129C9.13215 21.7525 9.34214 21.7309 9.50792 21.6517C9.77317 21.5257 9.80264 21.3529 9.6037 21.1333C9.47476 20.9893 9.29793 20.8957 9.0732 20.8525C8.27008 20.6941 7.52591 20.6113 7.2975 19.6897C7.14277 19.0669 7.30486 18.5377 7.78379 18.1021C8.35113 17.5837 9.00321 17.3569 9.74001 17.4145L9.74738 17.4109Z" fill="white"/>
<path d="M14.2271 19.7472C14.1092 20.694 14.0724 22.1808 14.6618 22.9944C14.7023 23.0484 14.6876 23.0772 14.6176 23.0772L12.8272 23.0952C12.7756 23.0952 12.7424 23.07 12.7314 23.0232C12.6798 22.8108 12.6024 22.5984 12.5877 22.3752C12.5103 21.3744 12.5582 20.2944 12.7277 19.1424C12.7756 18.8184 12.9156 18.1128 13.2029 17.9076C13.9545 17.364 14.8092 17.2596 15.767 17.598C17.1117 18.0732 17.3843 19.1568 17.0307 20.4204C16.7175 21.5292 15.6823 21.9468 14.5918 21.9756C14.5476 21.9756 14.5108 21.9432 14.5071 21.8964L14.4666 20.442C14.4666 20.3916 14.4887 20.37 14.5402 20.3772C15.0339 20.4636 15.4355 20.5176 15.6455 19.9488C15.9954 18.9948 14.3708 18.5988 14.2234 19.7544L14.2271 19.7472Z" fill="white"/>
<path d="M19.2005 20.7985C19.1674 20.7985 19.1526 20.8165 19.1563 20.8489L19.2153 21.2629C19.2226 21.3061 19.2484 21.3277 19.2926 21.3277H21.6099C21.6504 21.3277 21.6688 21.3457 21.6725 21.3817L21.8383 22.7605C21.8494 22.8433 21.8088 22.8865 21.7241 22.8865L17.9811 22.9117C17.9295 22.9117 17.8853 22.8793 17.8706 22.8289C17.3917 21.1297 17.5353 19.3405 18.0585 17.5981C18.0695 17.5585 18.0953 17.5405 18.1358 17.5405H21.9267C21.9783 17.5405 22.0004 17.5657 21.9857 17.6161C21.8604 18.0625 21.8088 18.4981 21.8273 18.9229C21.8273 18.9661 21.8088 18.9877 21.7646 18.9877L19.3184 18.9661C19.2853 18.9661 19.2668 18.9805 19.2595 19.0093L19.1563 19.5133C19.149 19.5421 19.1637 19.5565 19.1895 19.5565H21.6209C21.6725 19.5565 21.6946 19.5781 21.6873 19.6285C21.632 19.9849 21.6136 20.3593 21.632 20.7445C21.632 20.7913 21.6099 20.8165 21.562 20.8165L19.1968 20.7949L19.2005 20.7985Z" fill="white"/>
</g>
<circle cx="20" cy="20" r="19.5" stroke="black" stroke-opacity="0.05"/>
<defs>
<clipPath id="clip0_18553_55878">
<rect width="34" height="9" fill="white" transform="translate(3.03516 15.7368)"/>
</clipPath>
</defs>
</svg>
