<svg width="40" height="40" viewBox="0 0 40 40" fill="none" xmlns="http://www.w3.org/2000/svg">
<circle cx="20" cy="20" r="20" fill="#E72D28"/>
<g clip-path="url(#clip0_18553_55672)">
<path d="M17.0229 18.856V17.0372C17.0229 17.0212 17.0309 17.0132 17.0469 17.0132H17.7963C17.7963 17.0132 17.8123 17.0185 17.8123 17.0292C17.8123 18.1786 17.8123 19.3227 17.8123 20.4561C17.8123 21.4615 17.1775 22.2536 16.1561 22.3683C16.0441 22.3816 15.9188 22.3869 15.7721 22.3843C15.6201 22.3843 15.4814 22.3683 15.3561 22.3416C14.4947 22.1656 13.9213 21.4829 13.86 20.5975C13.8333 20.2348 13.884 19.9067 14.0066 19.6161C14.3 18.9173 14.884 18.5546 15.6228 18.512C16.1188 18.4826 16.6015 18.5866 17.0122 18.8667C17.0149 18.8667 17.0229 18.8667 17.0229 18.8667C17.0229 18.8667 17.0229 18.864 17.0229 18.8613V18.856ZM16.0175 19.2427C14.156 19.0373 14.204 21.9122 16.0548 21.6482C17.3669 21.4615 17.3482 19.3894 16.0175 19.2427Z" fill="white"/>
<path d="M18.9402 18.0454C19.2289 18.0454 19.4629 17.8114 19.4629 17.5227C19.4629 17.234 19.2289 17 18.9402 17C18.6515 17 18.4175 17.234 18.4175 17.5227C18.4175 17.8114 18.6515 18.0454 18.9402 18.0454Z" fill="white"/>
<path d="M5.89671 19.1361C6.23007 18.5414 7.03814 18.424 7.63018 18.5574C8.39024 18.728 8.7236 19.3974 8.7236 20.1335C8.7236 20.8962 8.7236 21.6083 8.7236 22.275C8.7236 22.283 8.71827 22.2883 8.71027 22.2883H7.94487C7.94487 22.2883 7.93421 22.283 7.93421 22.2777C7.93421 21.5123 7.93421 20.7815 7.93421 20.0802C7.93421 19.9548 7.90754 19.8295 7.85953 19.7015C7.61418 19.0587 6.58477 19.0774 6.34208 19.7175C6.28608 19.8641 6.27008 20.0215 6.27008 20.1762C6.27008 20.8749 6.27008 21.5736 6.27008 22.275C6.27008 22.283 6.26474 22.2883 6.25674 22.2883H5.50202C5.48868 22.2883 5.48068 22.283 5.48068 22.2697C5.48068 21.6243 5.48068 20.9549 5.48068 20.2615C5.48068 19.8641 5.41401 19.5094 5.04331 19.3254C4.61928 19.1121 4.01123 19.2668 3.86189 19.7575C3.81922 19.8961 3.80055 20.0562 3.80055 20.2348C3.80055 20.6162 3.80055 21.2962 3.80055 22.2697C3.80055 22.2857 3.79255 22.2937 3.77655 22.2937H3.05916C3.04316 22.2937 3.03516 22.2857 3.03516 22.2697C3.03516 21.5736 3.03516 20.7975 3.03516 19.9441C3.03516 19.7468 3.08849 19.5308 3.1925 19.3014C3.52586 18.5707 4.36326 18.384 5.09132 18.584C5.40334 18.6694 5.6567 18.8561 5.85138 19.1441C5.86738 19.1681 5.88071 19.1654 5.89405 19.1441L5.89671 19.1361Z" fill="white"/>
<path d="M10.1877 20.7069C10.1611 20.7069 10.1504 20.7202 10.1557 20.7469C10.2677 21.2003 10.5344 21.4936 10.9531 21.6296C11.3585 21.7603 11.9345 21.683 12.2306 21.3443C12.2412 21.3336 12.2546 21.3256 12.2706 21.3256H13.092C13.092 21.3256 13.1053 21.3309 13.1 21.3416C12.7906 21.8937 12.3532 22.227 11.7852 22.3444C11.5558 22.3924 11.3052 22.3817 11.0678 22.3737C10.9451 22.371 10.8251 22.3497 10.7078 22.315C9.66769 21.9977 9.15565 21.0563 9.369 20.0135C9.60102 18.8614 10.7291 18.32 11.8199 18.5654C12.8386 18.7921 13.3586 19.6855 13.2786 20.6962C13.2786 20.7042 13.2706 20.7096 13.2653 20.7096H10.1877V20.7069ZM11.4092 19.2108C10.8118 19.1628 10.3237 19.4695 10.1824 20.0748C10.1771 20.0935 10.1851 20.1042 10.2064 20.1042H12.4226C12.4226 20.1042 12.4439 20.0935 12.4439 20.0828C12.4439 20.0828 12.4439 20.0802 12.4439 20.0775C12.3052 19.5441 11.9612 19.2561 11.4118 19.2108H11.4092Z" fill="white"/>
<path d="M20.8233 20.7415C20.8287 20.7949 20.842 20.8456 20.8607 20.8962C20.9967 21.2589 21.2367 21.5016 21.5807 21.6189C22.0021 21.763 22.5808 21.6883 22.8902 21.3469C22.9035 21.3336 22.9195 21.3256 22.9382 21.3256H23.7409C23.7596 21.3256 23.7649 21.3336 23.7542 21.3496C23.3915 21.9923 22.7995 22.379 22.0768 22.379C21.7994 22.379 21.5327 22.379 21.2554 22.275C20.3433 21.9443 19.8846 21.1122 20.0019 20.1708C20.1593 18.9414 21.2874 18.3147 22.4448 18.552C23.2449 18.7147 23.7942 19.3068 23.9196 20.1255C23.9463 20.2988 23.9543 20.4855 23.9409 20.6909C23.9409 20.7015 23.9356 20.7069 23.9249 20.7069H20.8527C20.8313 20.7069 20.8207 20.7175 20.8233 20.7389V20.7415ZM22.0714 19.2134C21.4634 19.1734 20.9834 19.4694 20.8447 20.0775C20.8393 20.0962 20.8473 20.1068 20.8687 20.1068H23.0689C23.0982 20.1068 23.1089 20.0935 23.1009 20.0642C22.9462 19.5334 22.6048 19.2508 22.0714 19.2161V19.2134Z" fill="white"/>
<path d="M26.6158 19.2617C25.8798 19.1097 25.3117 19.523 25.3091 20.2884C25.3091 20.9151 25.3064 21.5712 25.3091 22.2592C25.3091 22.2752 25.2957 22.2886 25.2797 22.2886H24.5437C24.5277 22.2886 24.5197 22.2806 24.5197 22.2646C24.517 21.4565 24.5197 20.7738 24.5223 20.2191C24.5223 20.0857 24.5463 19.9311 24.589 19.7604C24.8237 18.8136 25.6104 18.4589 26.5172 18.5149C27.3652 18.5683 27.9733 19.0457 28.1119 19.8937C28.1413 20.0751 28.1573 20.2751 28.1546 20.4964C28.1519 21.0832 28.1519 21.6752 28.1546 22.2752C28.1546 22.2859 28.1493 22.2912 28.1386 22.2912H27.3839C27.3839 22.2912 27.3652 22.2832 27.3652 22.2726C27.3652 21.6352 27.3652 20.9765 27.3652 20.2964C27.3652 19.8084 27.1252 19.3683 26.6158 19.2617Z" fill="white"/>
<path d="M29.5199 20.4723C29.5279 21.2351 30.0799 21.7098 30.8293 21.6618C31.2773 21.6324 31.5947 21.3924 31.7974 21.0137C31.8054 21.0004 31.8161 20.9924 31.8321 20.9924H32.5974C32.5974 20.9924 32.6081 20.9977 32.6081 21.0031C32.4828 21.5071 32.1414 21.9391 31.6667 22.1738C31.4347 22.2885 31.2107 22.3525 30.9947 22.3685C30.8693 22.3765 30.7386 22.3792 30.6 22.3792C30.1919 22.3792 29.7732 22.2351 29.4585 21.9925C28.9492 21.5978 28.7038 21.0511 28.7305 20.3523C28.7491 19.8296 28.9332 19.3976 29.2852 19.0536C29.8559 18.4962 30.744 18.3762 31.4667 18.6375C32.0454 18.8482 32.4214 19.2589 32.6001 19.875C32.6054 19.8936 32.6001 19.9043 32.5788 19.9043H31.8347C31.8187 19.9043 31.8054 19.8963 31.8001 19.883C31.528 19.3869 31.104 19.1736 30.5306 19.2456C29.8852 19.3256 29.5172 19.8403 29.5252 20.4723H29.5199Z" fill="white"/>
<path d="M33.968 20.7067C33.928 20.7067 33.9147 20.7254 33.9253 20.7627C34.096 21.4108 34.6241 21.7468 35.2801 21.6748C35.5868 21.6428 35.8242 21.5308 35.9948 21.3414C36.0055 21.3281 36.0215 21.3228 36.0375 21.3228H36.8402C36.8616 21.3228 36.8669 21.3308 36.8562 21.3494C36.4962 21.9868 35.8855 22.3922 35.1628 22.3735C34.9948 22.3682 34.8321 22.3815 34.6667 22.3522C33.624 22.1682 33.0053 21.2828 33.0986 20.2453C33.1893 19.2186 33.9707 18.5385 34.9868 18.5039C36.0188 18.4692 36.8536 19.0639 37.0216 20.112C37.0376 20.2133 37.0403 20.4027 37.0296 20.6827C37.0296 20.696 37.0216 20.7041 37.0083 20.7041H33.968V20.7067ZM35.1788 19.2106C34.5814 19.1599 34.0854 19.4666 33.9467 20.072C33.9413 20.0933 33.9493 20.1013 33.9707 20.1013H36.1895C36.1895 20.1013 36.2082 20.0933 36.2082 20.0827C36.2082 20.0827 36.2082 20.08 36.2082 20.0773C36.0748 19.544 35.7308 19.2533 35.1814 19.2079L35.1788 19.2106Z" fill="white"/>
<path d="M19.3137 18.5386H18.5616C18.5513 18.5386 18.543 18.5469 18.543 18.5572V22.2695C18.543 22.2798 18.5513 22.2882 18.5616 22.2882H19.3137C19.324 22.2882 19.3324 22.2798 19.3324 22.2695V18.5572C19.3324 18.5469 19.324 18.5386 19.3137 18.5386Z" fill="white"/>
</g>
<circle cx="20" cy="20" r="19.5" stroke="black" stroke-opacity="0.05"/>
<defs>
<clipPath id="clip0_18553_55672">
<rect width="34" height="5.38176" fill="white" transform="translate(3.03516 17)"/>
</clipPath>
</defs>
</svg>
