<svg width="40" height="40" viewBox="0 0 40 40" fill="none" xmlns="http://www.w3.org/2000/svg">
<circle cx="20" cy="20" r="20" fill="#F6F8FA"/>
<path d="M7.94842 20.963L7.49138 20.9567C7.46341 20.9567 7.45062 20.9425 7.453 20.9139L7.58064 19.6035C7.58362 19.5684 7.56755 19.5508 7.53244 19.5508H6.42467C6.39015 19.5508 6.37111 19.5681 6.36754 19.6026L6.23632 20.9157C6.23334 20.946 6.21668 20.9612 6.18633 20.9612L5 20.9585C5.03511 20.8282 5.04433 20.7244 5.02767 20.647L5.34367 17.5281C5.34724 17.493 5.36658 17.4754 5.40169 17.4754L6.51482 17.4745C6.55708 17.4745 6.57612 17.4957 6.57195 17.5379L6.45055 18.7537C6.44639 18.7942 6.46454 18.8144 6.505 18.8144H7.61456C7.64491 18.8144 7.66158 18.7992 7.66455 18.7689L7.78863 17.5201C7.79016 17.5072 7.79629 17.4954 7.80584 17.4868C7.81538 17.4783 7.82769 17.4736 7.8404 17.4736L8.97853 17.4763C9.01067 17.4763 9.02495 17.4921 9.02138 17.5236L8.68485 20.9148C8.68128 20.9499 8.66194 20.9672 8.62683 20.9666L7.94842 20.963Z" fill="#E71518"/>
<path d="M15.7486 19.2402L15.8209 18.6591L15.9342 17.5192C15.9372 17.49 15.9536 17.4755 15.9833 17.4755H18.7987C18.8321 17.4755 18.8472 17.4918 18.8443 17.5246L18.7898 18.161C18.7883 18.1755 18.7815 18.1889 18.7708 18.1987C18.76 18.2084 18.7462 18.2137 18.7318 18.2137L17.1304 18.211C17.1066 18.211 17.0935 18.2229 17.0911 18.2467L17.0331 18.8127C17.0301 18.8424 17.0438 18.8573 17.0741 18.8573L18.3917 18.8609C18.3966 18.861 18.4015 18.8621 18.406 18.8641C18.4104 18.8662 18.4144 18.8692 18.4177 18.8729C18.421 18.8766 18.4234 18.8809 18.425 18.8856C18.4265 18.8903 18.427 18.8952 18.4265 18.9001L18.3605 19.5134C18.3575 19.5384 18.3432 19.5509 18.3176 19.5509H16.9965C16.9739 19.5509 16.9614 19.5622 16.959 19.5848L16.8974 20.2079C16.8969 20.2124 16.8974 20.2169 16.8987 20.2213C16.9001 20.2256 16.9024 20.2296 16.9055 20.2329C16.9085 20.2363 16.9122 20.239 16.9164 20.2408C16.9205 20.2427 16.925 20.2436 16.9295 20.2436L18.68 20.2409C18.7003 20.2409 18.7095 20.2507 18.7077 20.2703L18.6515 20.9264C18.6497 20.9508 18.6366 20.963 18.6122 20.963L15.6414 20.9621C15.6351 20.9622 15.6288 20.9609 15.6229 20.9583C15.6171 20.9557 15.6119 20.9518 15.6076 20.947C15.6033 20.9423 15.6 20.9366 15.598 20.9304C15.596 20.9243 15.5953 20.9177 15.5959 20.9113L15.7486 19.2402Z" fill="#0D3090"/>
<path d="M11.7513 20.6104C11.6781 20.7925 11.6739 20.9285 11.7388 21.0184L10.7801 21.0121C10.7521 21.0121 10.7393 20.9984 10.7417 20.971L10.83 19.9374C10.833 19.9052 10.8187 19.8918 10.7872 19.8972C10.6378 19.9234 10.4876 19.9502 10.3364 19.9775C10.1942 20.0037 10.1141 20.0933 10.0963 20.2462C10.0695 20.4845 10.2962 20.5738 10.4944 20.5524C10.545 20.547 10.5646 20.5691 10.5533 20.6184L10.4757 20.9568C10.4667 20.9948 10.4429 21.0154 10.4042 21.0184C9.95792 21.055 9.31968 21.0648 9.21256 20.5452C9.10544 20.0293 9.41519 19.7142 9.91329 19.6142C10.215 19.5541 10.506 19.5092 10.7863 19.4794C10.8224 19.4756 10.8557 19.4582 10.8794 19.4309C10.9031 19.4035 10.9155 19.3682 10.9139 19.3321C10.9134 19.3208 10.9128 19.3098 10.9122 19.2991C10.9086 19.2467 10.8854 19.1976 10.8473 19.1614C10.8091 19.1252 10.7587 19.1046 10.706 19.1036C10.3227 19.0971 9.94453 19.1533 9.57141 19.2723C9.55355 19.2783 9.54314 19.2717 9.54016 19.2527L9.46429 18.751C9.4625 18.7385 9.46756 18.7299 9.47946 18.7251C9.96506 18.5329 10.4819 18.4559 11.03 18.4939C11.2972 18.5124 11.5013 18.5862 11.6423 18.7153C11.8149 18.8724 11.8875 19.0917 11.8602 19.3732C11.8191 19.7916 11.7828 20.204 11.7513 20.6104Z" fill="#E71518"/>
<path d="M13.5154 18.784C13.904 18.4776 14.3185 18.4014 14.7589 18.5555C15.0061 18.6421 15.1382 18.9179 15.1186 19.1804C15.0751 19.7493 15.021 20.3262 14.9561 20.9112C14.952 20.9457 14.9326 20.963 14.8981 20.963L14.0394 20.9621C14.0055 20.9621 13.9906 20.9454 13.9947 20.9121C14.0435 20.4937 14.0938 20.007 14.1456 19.4517C14.1688 19.2071 14.0602 19.0816 13.8198 19.075C13.7865 19.0744 13.7546 19.0804 13.7243 19.0929C13.5362 19.1732 13.4333 19.3033 13.4154 19.483L13.2744 20.9085C13.2708 20.943 13.2518 20.9603 13.2172 20.9603L12.3532 20.963C12.324 20.963 12.3109 20.9487 12.3139 20.9201L12.5469 18.5984C12.5498 18.5638 12.5689 18.5466 12.604 18.5466H13.4404C13.472 18.5466 13.4868 18.5624 13.485 18.5939L13.4752 18.7626C13.4734 18.7995 13.4868 18.8066 13.5154 18.784Z" fill="#E71518"/>
<path d="M26.3243 18.8161C26.6088 18.5037 26.9691 18.4133 27.4053 18.5448C27.4083 18.5454 27.4095 18.5474 27.4089 18.551C27.3625 18.7736 27.292 18.9929 27.1974 19.2089C27.1944 19.2154 27.1893 19.2178 27.1822 19.216C26.419 19.0402 26.1842 19.5044 26.1405 20.1765C26.1244 20.4259 26.1009 20.6714 26.0699 20.913C26.0652 20.9469 26.0458 20.9638 26.0119 20.9638L25.1559 20.9612C25.1249 20.9612 25.1112 20.9457 25.1148 20.9147L25.3451 18.584C25.346 18.574 25.3505 18.5647 25.3578 18.558C25.3651 18.5512 25.3746 18.5474 25.3844 18.5474L26.2529 18.5457C26.2869 18.5457 26.302 18.5626 26.2985 18.5965L26.2797 18.7965C26.275 18.8483 26.2898 18.8548 26.3243 18.8161Z" fill="#0D3090"/>
<path d="M28.3204 20.1775C28.3275 20.196 28.3349 20.2135 28.3427 20.2302C28.401 20.3611 28.5019 20.4301 28.6453 20.4373C28.9863 20.4539 29.318 20.4105 29.6406 20.307C29.6493 20.3041 29.6585 20.3032 29.6676 20.3044C29.6767 20.3056 29.6854 20.3088 29.6931 20.3137C29.7008 20.3187 29.7073 20.3253 29.7121 20.3331C29.7169 20.3409 29.7199 20.3496 29.7209 20.3587L29.7629 20.7649C29.7682 20.8196 29.745 20.8553 29.6932 20.872C29.1642 21.0428 28.6384 21.0728 28.1159 20.9622C27.2849 20.7863 27.1804 19.8294 27.4902 19.201C27.7991 18.577 28.5355 18.4056 29.1889 18.5056C29.7852 18.5978 30.0533 18.9347 29.9932 19.5161C29.9622 19.8166 29.7947 19.9746 29.4906 19.9901C29.1895 20.0061 28.8437 20.0064 28.4534 19.991C28.3147 19.9856 28.2704 20.0478 28.3204 20.1775ZM28.3703 19.4304C28.3567 19.494 28.3825 19.5262 28.448 19.5268L29.063 19.5295C29.0982 19.5295 29.1193 19.5125 29.1264 19.4786C29.158 19.3405 29.1452 19.2146 29.088 19.101C29.0743 19.073 29.0529 19.054 29.0238 19.0439C28.6691 18.9207 28.4513 19.0495 28.3703 19.4304Z" fill="#0D3090"/>
<path d="M31.5484 20.2132C31.5396 20.1867 31.5232 20.1634 31.5013 20.1461C31.4795 20.1288 31.453 20.1183 31.4252 20.1159C31.1199 20.0927 30.8521 20.0469 30.6218 19.9784C30.3945 19.9112 30.265 19.7609 30.2335 19.5276C30.0666 18.294 31.7394 18.4011 32.4419 18.6064C32.4621 18.6124 32.4729 18.6261 32.474 18.6475C32.4758 18.7177 32.4116 18.9099 32.2812 19.2241C32.2664 19.2604 32.2408 19.2708 32.2045 19.2554C31.9286 19.1358 31.4288 18.9679 31.1449 19.1438C31.1309 19.1524 31.1189 19.1639 31.1096 19.1774C31.1003 19.1909 31.0939 19.2062 31.0909 19.2224C31.0879 19.2385 31.0883 19.2551 31.092 19.2711C31.0958 19.2871 31.1029 19.3021 31.1128 19.3152C31.1508 19.3664 31.2023 19.397 31.2672 19.4071C31.6225 19.4643 32.3901 19.4884 32.4616 19.9686C32.5062 20.2739 32.4345 20.5158 32.2464 20.6943C32.1063 20.8282 31.9144 20.9353 31.7207 20.9702C31.2166 21.06 30.7087 21.0407 30.1969 20.9121C30.1759 20.9069 30.1578 20.8935 30.1466 20.8749C30.1354 20.8564 30.132 20.8341 30.1371 20.813L30.2406 20.4024C30.2514 20.359 30.2781 20.3444 30.321 20.3587C30.6164 20.456 31.2092 20.564 31.485 20.3899C31.5516 20.3483 31.5728 20.2894 31.5484 20.2132Z" fill="#0D3090"/>
<path d="M34.0538 20.2248C34.046 20.1946 34.0289 20.1677 34.0051 20.1478C33.9812 20.128 33.9517 20.1162 33.9208 20.1141C33.4057 20.0766 32.6336 20.0213 32.7273 19.2822C32.8523 18.2886 34.3135 18.4136 34.9866 18.6198C34.9985 18.6234 35.0024 18.6311 34.9982 18.643L34.7884 19.25C34.7813 19.2714 34.767 19.2777 34.7456 19.2688C34.2118 19.048 33.8443 19.0075 33.6432 19.1474C33.6289 19.1573 33.6169 19.1702 33.6081 19.1852C33.5993 19.2002 33.5938 19.2169 33.5921 19.2341C33.5904 19.2514 33.5925 19.2688 33.5983 19.2851C33.604 19.3014 33.6132 19.3162 33.6253 19.3286C33.6705 19.3744 33.7259 19.4027 33.7913 19.4134C34.3153 19.4946 35.0732 19.4901 34.9732 20.2489C34.8447 21.221 33.3388 21.0692 32.6996 20.9112C32.6496 20.8993 32.6309 20.8684 32.6434 20.8184L32.7469 20.4078C32.7492 20.3991 32.7532 20.391 32.7587 20.3839C32.7642 20.3769 32.7711 20.371 32.779 20.3667C32.7869 20.3625 32.7955 20.3599 32.8044 20.3591C32.8134 20.3583 32.8224 20.3594 32.8309 20.3623C33.1373 20.4634 33.4599 20.4971 33.7985 20.4631C33.9172 20.4515 34.0913 20.3694 34.0538 20.2248Z" fill="#0D3090"/>
<path d="M20.3018 20.19L19.7671 20.9541C19.7644 20.958 19.7608 20.9612 19.7566 20.9634C19.7524 20.9656 19.7477 20.9667 19.743 20.9666L18.8762 20.9595C18.8709 20.9595 18.8656 20.9579 18.861 20.9551C18.8565 20.9522 18.8528 20.9481 18.8505 20.9433C18.8481 20.9384 18.8472 20.933 18.8478 20.9277C18.8484 20.9223 18.8506 20.9172 18.8539 20.913L19.7609 19.7401C19.7643 19.7355 19.7664 19.73 19.7667 19.7243C19.767 19.7186 19.7656 19.7129 19.7626 19.708L19.0914 18.5895C19.0888 18.5851 19.0875 18.5802 19.0875 18.5751C19.0876 18.5701 19.0889 18.5652 19.0914 18.5608C19.094 18.5565 19.0976 18.5529 19.102 18.5504C19.1064 18.5479 19.1113 18.5466 19.1164 18.5466H20.1215C20.127 18.5467 20.1323 18.5483 20.1369 18.5513C20.1415 18.5543 20.1451 18.5586 20.1474 18.5636L20.4125 19.1652C20.4145 19.1698 20.4177 19.1738 20.4217 19.1767C20.4258 19.1797 20.4305 19.1815 20.4355 19.182C20.4405 19.1826 20.4455 19.1818 20.4501 19.1798C20.4546 19.1778 20.4586 19.1746 20.4616 19.1706L20.907 18.56C20.9097 18.5564 20.9132 18.5534 20.9172 18.5514C20.9213 18.5494 20.9257 18.5484 20.9302 18.5484L21.8666 18.5529C21.872 18.5529 21.8773 18.5544 21.8818 18.5573C21.8864 18.5601 21.89 18.5642 21.8924 18.5691C21.8947 18.5739 21.8956 18.5793 21.895 18.5847C21.8944 18.59 21.8923 18.5951 21.8889 18.5993L21.0168 19.6776C21.013 19.682 21.0107 19.6874 21.01 19.6931C21.0094 19.6989 21.0105 19.7047 21.0132 19.7098L21.6792 20.9202C21.6815 20.9245 21.6826 20.9294 21.6825 20.9343C21.6824 20.9392 21.681 20.944 21.6785 20.9482C21.676 20.9524 21.6724 20.9559 21.6681 20.9583C21.6639 20.9608 21.6591 20.9621 21.6542 20.9621H20.674C20.6683 20.9622 20.6627 20.9605 20.6579 20.9573C20.6531 20.9542 20.6494 20.9496 20.6473 20.9443L20.3518 20.1954C20.3498 20.1906 20.3466 20.1864 20.3425 20.1833C20.3384 20.1802 20.3335 20.1783 20.3284 20.1778C20.3233 20.1772 20.3181 20.1781 20.3134 20.1802C20.3087 20.1824 20.3047 20.1857 20.3018 20.19Z" fill="#0D3090"/>
<path d="M23.0885 19.2036L22.8448 21.6557C22.8439 21.666 22.8392 21.6755 22.8316 21.6825C22.824 21.6894 22.814 21.6933 22.8037 21.6932H21.9236C21.9186 21.6932 21.9136 21.6922 21.909 21.6902C21.9045 21.6881 21.9003 21.6851 21.897 21.6813C21.8936 21.6775 21.8911 21.673 21.8895 21.6682C21.8879 21.6633 21.8874 21.6581 21.8879 21.653L22.1914 18.593C22.1949 18.5585 22.214 18.5416 22.2485 18.5422C22.7555 18.5517 23.2652 18.5514 23.7776 18.5413C24.3873 18.5288 24.8827 18.7475 24.8657 19.4375C24.8574 19.7577 24.8042 20.06 24.706 20.3444C24.5042 20.9318 23.7705 21.0273 23.217 20.9354C23.2033 20.933 23.1962 20.9249 23.1956 20.9113L23.167 20.5292C23.1666 20.5229 23.1675 20.5166 23.1698 20.5107C23.1721 20.5048 23.1757 20.4995 23.1804 20.4953C23.185 20.491 23.1905 20.4878 23.1966 20.4859C23.2026 20.4841 23.209 20.4836 23.2152 20.4846C23.5467 20.5393 23.741 20.4242 23.7981 20.1391C23.8565 19.8469 23.8779 19.5764 23.8624 19.3277C23.8553 19.2045 23.7907 19.1346 23.6687 19.1179C23.5354 19.0995 23.4018 19.081 23.2679 19.0626C23.1596 19.0471 23.0998 19.0941 23.0885 19.2036Z" fill="#0D3090"/>
<circle cx="20" cy="20" r="19.5" stroke="black" stroke-opacity="0.05"/>
</svg>
