<svg width="40" height="40" viewBox="0 0 40 40" fill="none" xmlns="http://www.w3.org/2000/svg">
<circle cx="20" cy="20" r="20" fill="#F6F8FA"/>
<circle cx="20" cy="20" r="19.5" stroke="black" stroke-opacity="0.05"/>
<path d="M24.5014 13.4343C23.083 12.4386 21.237 11.9833 19.5349 12.0641C19.5081 12.0648 19.4819 12.0721 19.4584 12.0852C19.435 12.0984 19.4152 12.1171 19.4006 12.1398C19.386 12.1624 19.3771 12.1883 19.3747 12.2151C19.3723 12.242 19.3764 12.269 19.3867 12.2939C19.9908 13.8202 20.3112 15.501 20.3479 17.3365C20.3648 18.2386 20.8475 19.0173 21.8933 18.7663C22.1106 18.7152 22.2927 18.6046 22.4394 18.4343C23.4641 17.223 24.2022 15.6911 24.6538 13.8386C24.6961 13.6684 24.6453 13.5336 24.5014 13.4343Z" stroke="#427A4C" stroke-width="2"/>
<path d="M16.4352 12.9109C14.1997 14.0896 12.7517 16.0386 12.2351 18.4854C12.1984 18.6584 12.2676 18.7506 12.4426 18.762C13.9838 18.8386 16.6088 19.0471 17.5445 17.9279C18.2939 17.0301 17.6969 13.7066 16.8078 12.9535C16.6921 12.8542 16.5679 12.84 16.4352 12.9109Z" stroke="#809CB9" stroke-width="2"/>
<path d="M25.3266 18.5661C25.3175 18.5858 25.3134 18.6075 25.3147 18.6292C25.3159 18.6509 25.3225 18.672 25.3338 18.6905C25.3451 18.709 25.3608 18.7245 25.3795 18.7354C25.3982 18.7464 25.4193 18.7526 25.4409 18.7534L27.8119 18.8087C27.8341 18.8097 27.8561 18.8051 27.876 18.7952C27.8959 18.7854 27.9129 18.7706 27.9256 18.7524C27.9383 18.7341 27.9462 18.7129 27.9485 18.6908C27.9508 18.6686 27.9475 18.6462 27.9389 18.6257L26.8169 15.8172C26.8073 15.7932 26.7908 15.7727 26.7696 15.7581C26.7484 15.7435 26.7234 15.7355 26.6977 15.735C26.672 15.7346 26.6467 15.7417 26.625 15.7555C26.6033 15.7694 26.5861 15.7894 26.5756 15.8129L25.3266 18.5661Z" stroke="#809CB9" stroke-width="2"/>
<path d="M13.5692 24.064C13.8444 23.1746 14.2635 22.2853 14.7589 21.498C14.8718 21.3193 14.8224 21.23 14.6107 21.23L12.4387 21.2257C12.2637 21.2257 12.1945 21.3122 12.2312 21.4853C12.4401 22.4498 12.7901 23.3222 13.2812 24.1023C13.4026 24.298 13.4986 24.2853 13.5692 24.064Z" stroke="#809CB9" stroke-width="2"/>
<path d="M17.6211 21.5618C16.516 22.7618 15.7751 24.5533 15.3728 26.1618C15.3305 26.3292 15.3813 26.4611 15.5253 26.5575C16.9789 27.5391 18.6189 27.9987 20.4451 27.9363C20.6342 27.9306 20.6949 27.8398 20.6272 27.6639C20.0118 26.01 19.6929 24.2838 19.6703 22.4852C19.6576 21.3788 18.4467 20.6597 17.6211 21.5618Z" stroke="#0168A6" stroke-width="2"/>
<path d="M27.6382 21.2301C26.2749 21.1748 23.6583 20.9407 22.5998 21.9577C21.6175 22.9024 22.4474 25.7705 22.9089 26.7535C22.9444 26.8294 22.9952 26.8971 23.0582 26.9522C23.1211 27.0074 23.1949 27.0489 23.2748 27.074C23.3547 27.0992 23.4391 27.1075 23.5225 27.0985C23.606 27.0895 23.6868 27.0633 23.7599 27.0216C25.9587 25.7648 27.308 23.9081 27.8076 21.4513C27.8386 21.3095 27.7822 21.2357 27.6382 21.2301Z" stroke="#809CB9" stroke-width="2"/>
<path d="M18.9421 10H21.1141C33.0963 11.7872 32.8422 28.3319 21.0676 30H18.8956C13.8515 29.0667 10.8863 26.0823 10 21.0468V18.9149C10.9145 13.8738 13.8952 10.9021 18.9421 10ZM24.5013 13.434C23.0829 12.4383 21.2369 11.983 19.5349 12.0638C19.5081 12.0645 19.4818 12.0718 19.4584 12.0849C19.435 12.0981 19.4151 12.1168 19.4005 12.1395C19.3859 12.1621 19.377 12.188 19.3746 12.2148C19.3722 12.2417 19.3764 12.2687 19.3867 12.2936C19.9907 13.8199 20.3111 15.5007 20.3478 17.3362C20.3647 18.2383 20.8474 19.017 21.8932 18.766C22.1105 18.7149 22.2926 18.6043 22.4394 18.434C23.464 17.2227 24.2021 15.6908 24.6537 13.8383C24.6961 13.6681 24.6453 13.5333 24.5013 13.434ZM16.4356 12.9106C14.2001 14.0894 12.7521 16.0383 12.2355 18.4851C12.1988 18.6582 12.268 18.7504 12.443 18.7617C13.9842 18.8383 16.6092 19.0468 17.5449 17.9277C18.2943 17.0298 17.6973 13.7064 16.8082 12.9532C16.6925 12.8539 16.5683 12.8397 16.4356 12.9106ZM25.3269 18.566C25.3179 18.5857 25.3138 18.6074 25.315 18.6291C25.3163 18.6508 25.3229 18.6718 25.3342 18.6904C25.3455 18.7089 25.3612 18.7243 25.3799 18.7353C25.3986 18.7462 25.4196 18.7524 25.4413 18.7532L27.8123 18.8085C27.8344 18.8095 27.8565 18.8049 27.8763 18.7951C27.8962 18.7852 27.9133 18.7705 27.926 18.7522C27.9387 18.7339 27.9465 18.7127 27.9489 18.6906C27.9512 18.6684 27.9479 18.6461 27.9393 18.6255L26.8173 15.817C26.8076 15.7931 26.7911 15.7725 26.7699 15.7579C26.7487 15.7433 26.7237 15.7353 26.698 15.7348C26.6723 15.7344 26.6471 15.7415 26.6254 15.7554C26.6037 15.7692 26.5865 15.7892 26.576 15.8128L25.3269 18.566ZM13.5692 24.0638C13.8444 23.1745 14.2636 22.2851 14.759 21.4979C14.8719 21.3191 14.8225 21.2298 14.6108 21.2298L12.4388 21.2255C12.2638 21.2255 12.1946 21.3121 12.2313 21.4851C12.4402 22.4496 12.7902 23.322 13.2813 24.1021C13.4027 24.2979 13.4987 24.2851 13.5692 24.0638ZM17.6211 21.5617C16.5161 22.7617 15.7751 24.5532 15.3729 26.1617C15.3306 26.3291 15.3814 26.461 15.5253 26.5574C16.979 27.539 18.6189 27.9986 20.4452 27.9362C20.6343 27.9305 20.695 27.8397 20.6272 27.6638C20.0119 26.0099 19.6929 24.2837 19.6704 22.4851C19.6577 21.3787 18.4468 20.6596 17.6211 21.5617ZM27.6387 21.2298C26.2753 21.1745 23.6588 20.9404 22.6003 21.9574C21.618 22.9021 22.4478 25.7702 22.9093 26.7532C22.9448 26.8291 22.9957 26.8968 23.0586 26.9519C23.1216 27.0071 23.1954 27.0486 23.2753 27.0737C23.3552 27.0989 23.4395 27.1073 23.523 27.0982C23.6065 27.0892 23.6873 27.063 23.7604 27.0213C25.9592 25.7645 27.3084 23.9078 27.808 21.4511C27.8391 21.3092 27.7826 21.2355 27.6387 21.2298Z" fill="#013973"/>
<path d="M19.5349 12.064C21.237 11.9832 23.083 12.4385 24.5014 13.4342C24.6453 13.5335 24.6961 13.6683 24.6538 13.8385C24.2022 15.691 23.4641 17.2229 22.4394 18.4342C22.2927 18.6044 22.1106 18.7151 21.8933 18.7661C20.8475 19.0172 20.3648 18.2385 20.3479 17.3364C20.3112 15.5009 19.9908 13.82 19.3867 12.2938C19.3764 12.2689 19.3723 12.2419 19.3747 12.215C19.3771 12.1881 19.386 12.1623 19.4006 12.1397C19.4152 12.117 19.435 12.0983 19.4584 12.0851C19.4819 12.0719 19.5081 12.0647 19.5349 12.064Z" fill="#82BB25"/>
<path d="M12.2361 18.4852C12.7526 16.0384 14.2007 14.0894 16.4362 12.9107C16.5689 12.8398 16.6931 12.854 16.8088 12.9533C17.6979 13.7065 18.2949 17.0299 17.5455 17.9277C16.6098 19.0469 13.9847 18.8384 12.4436 18.7618C12.2686 18.7504 12.1994 18.6582 12.2361 18.4852Z" fill="white"/>
<path d="M25.3266 18.566L26.5756 15.8128C26.5861 15.7892 26.6033 15.7693 26.625 15.7554C26.6467 15.7416 26.672 15.7344 26.6977 15.7349C26.7234 15.7353 26.7484 15.7434 26.7696 15.758C26.7908 15.7726 26.8073 15.7931 26.8169 15.8171L27.9389 18.6256C27.9475 18.6461 27.9508 18.6685 27.9485 18.6906C27.9462 18.7128 27.9383 18.734 27.9256 18.7523C27.9129 18.7705 27.8959 18.7853 27.876 18.7951C27.8561 18.805 27.8341 18.8096 27.8119 18.8085L25.4409 18.7532C25.4193 18.7524 25.3982 18.7463 25.3795 18.7353C25.3608 18.7244 25.3451 18.7089 25.3338 18.6904C25.3225 18.6719 25.3159 18.6508 25.3147 18.6291C25.3134 18.6074 25.3175 18.5857 25.3266 18.566Z" fill="white"/>
<path d="M14.7589 21.4979C14.2635 22.2852 13.8444 23.1745 13.5692 24.0639C13.4986 24.2852 13.4026 24.2979 13.2812 24.1022C12.7901 23.322 12.4401 22.4497 12.2312 21.4852C12.1945 21.3121 12.2637 21.2256 12.4387 21.2256L14.6107 21.2298C14.8224 21.2298 14.8718 21.3192 14.7589 21.4979Z" fill="white"/>
<path d="M15.3728 26.1616C15.7751 24.5531 16.516 22.7616 17.6211 21.5616C18.4467 20.6595 19.6576 21.3786 19.6703 22.485C19.6929 24.2836 20.0118 26.0098 20.6272 27.6637C20.6949 27.8396 20.6342 27.9304 20.4451 27.9361C18.6189 27.9985 16.9789 27.5389 15.5253 26.5574C15.3813 26.4609 15.3305 26.329 15.3728 26.1616Z" fill="#0097D8"/>
<path d="M27.6382 21.2299C27.7822 21.2356 27.8386 21.3094 27.8076 21.4512C27.308 23.908 25.9587 25.7647 23.7599 27.0214C23.6868 27.0632 23.606 27.0894 23.5225 27.0984C23.4391 27.1074 23.3547 27.0991 23.2748 27.0739C23.1949 27.0487 23.1211 27.0073 23.0582 26.9521C22.9952 26.8969 22.9444 26.8293 22.9089 26.7534C22.4474 25.7704 21.6175 22.9023 22.5998 21.9576C23.6583 20.9406 26.2749 21.1746 27.6382 21.2299Z" fill="white"/>
</svg>
