<svg width="40" height="40" viewBox="0 0 40 40" fill="none" xmlns="http://www.w3.org/2000/svg">
<circle cx="20" cy="20" r="20" fill="#F6F8FA"/>
<path d="M17.8603 12.1363L12.9825 20.2412C12.9773 20.2494 12.9702 20.2561 12.9618 20.2607C12.9533 20.2654 12.9438 20.2678 12.9342 20.2678C12.9246 20.2678 12.9151 20.2654 12.9066 20.2607C12.8982 20.2561 12.8911 20.2494 12.886 20.2412L8.00807 12.1363C8.00293 12.1277 8.00015 12.1178 8.00001 12.1078C7.99986 12.0978 8.00236 12.0879 8.00726 12.0792C8.01215 12.0704 8.01926 12.0631 8.02787 12.058C8.03649 12.0529 8.0463 12.0501 8.05632 12.05H17.8121C17.8221 12.0501 17.8319 12.0529 17.8405 12.058C17.8492 12.0631 17.8563 12.0704 17.8612 12.0792C17.866 12.0879 17.8686 12.0978 17.8684 12.1078C17.8683 12.1178 17.8655 12.1277 17.8603 12.1363Z" fill="#009B63"/>
<path d="M9.8194 27.9525L19.3807 12.0745C19.3851 12.0672 19.3913 12.0612 19.3987 12.0571C19.4062 12.053 19.4146 12.0509 19.4231 12.0511H27.2619C27.2704 12.0512 27.2788 12.0535 27.2861 12.0578C27.2934 12.0622 27.2994 12.0683 27.3036 12.0758C27.3078 12.0832 27.3099 12.0916 27.3097 12.1001C27.3096 12.1086 27.3072 12.1169 27.3029 12.1242L17.7401 28.0022C17.7357 28.0095 17.7295 28.0155 17.7221 28.0196C17.7146 28.0237 17.7062 28.0258 17.6977 28.0256H9.86034C9.85183 28.0255 9.8435 28.0232 9.83617 28.0188C9.82885 28.0145 9.82281 28.0083 9.81865 28.0009C9.8145 27.9935 9.81237 27.9851 9.81251 27.9766C9.81264 27.9681 9.81501 27.9598 9.8194 27.9525Z" fill="#00573D"/>
<path d="M31.9921 20.1007L27.1142 28.001C27.1095 28.0087 27.1028 28.015 27.0948 28.0194C27.0869 28.0237 27.078 28.0259 27.0689 28.0258H19.486C19.4768 28.0258 19.4677 28.0233 19.4597 28.0187C19.4518 28.0141 19.4452 28.0074 19.4406 27.9994C19.436 27.9914 19.4336 27.9824 19.4336 27.9731C19.4336 27.9639 19.436 27.9549 19.4406 27.9469L24.0773 20.0466C24.0819 20.0387 24.0885 20.0321 24.0964 20.0274C24.1044 20.0228 24.1134 20.0204 24.1226 20.0203H31.9468C31.9562 20.0202 31.9655 20.0226 31.9737 20.0274C31.9819 20.0321 31.9886 20.0389 31.9933 20.0471C31.9979 20.0553 32.0002 20.0647 32 20.0741C31.9998 20.0835 31.9971 20.0927 31.9921 20.1007Z" fill="#009B63"/>
<circle cx="20" cy="20" r="19.5" stroke="black" stroke-opacity="0.05"/>
</svg>
