<svg width="40" height="40" viewBox="0 0 40 40" fill="none" xmlns="http://www.w3.org/2000/svg">
<circle cx="20" cy="20" r="20" fill="#F6F8FA"/>
<path d="M26.5071 17.5664C26.4229 17.7471 26.4162 17.8612 26.4872 17.9085C26.4437 17.882 26.4153 17.9023 26.402 17.9695C26.209 18.9868 25.7009 19.8852 24.8776 20.665C24.2673 20.9801 23.6456 21.0226 23.0125 20.7927C22.2564 20.5183 21.8661 19.9642 21.8415 19.1306C21.8302 18.7076 21.9806 18.3102 22.1041 17.9113C22.3809 17.0228 22.2404 16.0363 21.8798 15.1889C21.5553 14.4262 21.0656 13.8372 20.4108 13.4218C20.1496 13.2287 19.9428 13.1052 19.7905 13.0513C18.1146 12.4599 16.6654 12.7286 15.4429 13.8575C14.5174 14.7129 14.0883 15.8253 14.1555 17.1945C14.0627 17.2352 13.9492 17.2541 13.8148 17.2513C13.6019 15.4146 14.0537 13.8253 15.1703 12.4835C17.616 9.54397 21.9423 9.16499 24.7172 11.991C26.1858 13.4871 26.7824 15.3455 26.5071 17.5664Z" fill="#456BF7"/>
<path d="M20.4115 13.4217C20.2005 13.5599 19.963 13.6559 19.699 13.7099C19.3318 13.7856 19.0891 13.8532 18.9708 13.9128C18.0492 14.3756 17.5235 15.1316 17.3939 16.181C17.3778 16.3078 17.3873 16.5174 17.4223 16.8098C17.4488 17.0331 17.4445 17.2446 17.4095 17.4443C16.4065 17.0175 15.322 16.9343 14.1562 17.1945C14.0891 15.8252 14.5182 14.7129 15.4436 13.8575C16.6662 12.7286 18.1154 12.4598 19.7912 13.0513C19.9436 13.1052 20.1504 13.2287 20.4115 13.4217Z" fill="#DBDCDC"/>
<path d="M20.4117 13.4218C21.0665 13.8372 21.5562 14.4263 21.8808 15.189C22.2413 16.0363 22.3818 17.0228 22.105 17.9114C21.9815 18.3102 21.8311 18.7077 21.8424 19.1306C21.867 19.9643 22.2574 20.5183 23.0134 20.7927C23.6465 21.0227 24.2682 20.9801 24.8785 20.665C25.9431 21.0454 26.6551 21.6326 27.0147 22.4265C27.2958 23.0472 27.3535 23.6226 27.1879 24.1525C27.01 24.7221 26.9092 25.1162 26.8855 25.3348C25.4605 26.0029 24.0917 25.9106 22.7792 25.058C22.1476 24.6492 21.6522 24.0815 20.9525 23.7479C19.7531 23.1759 18.3748 23.9708 18.2897 25.3093C18.1288 25.3102 17.9698 25.3717 17.8128 25.4938C17.5715 25.6821 17.4395 25.7824 17.4167 25.7947C16.0428 26.5654 14.3239 26.0601 13.5645 24.7074C13.5096 24.609 13.4306 24.3961 13.3275 24.0687C13.2555 23.8388 13.1571 23.6292 13.0322 23.4399C13.3918 22.6507 13.9317 22.0409 14.6518 21.6103C15.3813 21.1731 16.2145 21.0639 17.0165 20.8211C17.6751 20.6215 18.0905 20.233 18.2627 19.6558C18.5324 18.7559 18.248 18.0188 17.4096 17.4444C17.4447 17.2447 17.4489 17.0332 17.4224 16.8099C17.3874 16.5175 17.3779 16.3079 17.394 16.1811C17.5237 15.1317 18.0493 14.3756 18.971 13.9129C19.0893 13.8533 19.332 13.7857 19.6991 13.71C19.9631 13.656 20.2007 13.56 20.4117 13.4218Z" fill="#F6F8FA"/>
<path d="M17.4093 17.4443C18.2477 18.0187 18.5321 18.7558 18.2624 19.6557C18.0902 20.2329 17.6748 20.6214 17.0162 20.821C16.2142 21.0638 15.381 21.1731 14.6514 21.6102C13.9313 22.0408 13.3915 22.6507 13.0319 23.4398C12.5134 24.6236 12.5233 25.7572 13.0617 26.8407C14.1745 29.0834 16.8969 29.9464 19.0416 28.4971C19.2763 28.3391 19.5148 28.1764 19.757 28.0089C19.7665 28.0534 19.7977 28.1026 19.8507 28.1565C18.6196 29.3176 17.1671 29.9109 15.4932 29.9364C14.5412 29.9506 13.6546 29.7647 12.8332 29.3786C10.7495 28.3983 9.50093 26.7608 9.08741 24.4661C8.81488 22.9572 9.19386 21.3278 10.0256 20.0205C10.9009 18.6446 12.1642 17.7216 13.8154 17.2513C13.9498 17.2541 14.0633 17.2352 14.1561 17.1945C15.3219 16.9343 16.4063 17.0175 17.4093 17.4443Z" fill="#5A5A5A"/>
<path d="M19.8504 28.1564C19.7974 28.1025 19.7662 28.0533 19.7567 28.0088C19.6224 27.8536 19.4709 27.6904 19.3025 27.5191C18.7035 26.9078 18.3657 26.1711 18.2891 25.3091C18.3742 23.9706 19.7525 23.1757 20.9519 23.7478C21.6516 24.0813 22.147 24.6491 22.7786 25.0579C24.0911 25.9104 25.4599 26.0027 26.8849 25.3346C28.5948 24.2928 29.3055 22.8824 29.0169 21.1034C28.8957 20.3578 28.628 19.7219 28.2135 19.1958C27.7687 18.6308 27.1934 18.2017 26.4875 17.9084C26.4165 17.861 26.4232 17.747 26.5074 17.5663C27.9722 18.0252 29.1035 18.8504 29.9012 20.0417C31.3475 22.1992 31.3731 24.9344 29.9338 27.1046C29.0784 28.3944 27.8629 29.2555 26.2874 29.6879C24.0859 30.2912 21.6204 29.5446 19.8575 28.1209C19.8566 28.12 19.8556 28.12 19.8547 28.1209C19.8537 28.1323 19.8523 28.1441 19.8504 28.1564Z" fill="#EF5F00"/>
<path d="M26.4875 17.9085C27.1934 18.2019 27.7688 18.631 28.2135 19.1959C28.628 19.722 28.8958 20.3579 29.0169 21.1036C29.3055 22.8826 28.5949 24.293 26.885 25.3348C26.9086 25.1162 27.0094 24.7221 27.1873 24.1524C27.3529 23.6225 27.2952 23.0472 27.0141 22.4265C26.6545 21.6325 25.9425 21.0454 24.8779 20.665C25.7012 19.8853 26.2093 18.9868 26.4024 17.9696C26.4156 17.9024 26.444 17.882 26.4875 17.9085Z" fill="#DBDCDC"/>
<path d="M13.032 23.4399C13.1569 23.6292 13.2553 23.8388 13.3272 24.0687C13.4304 24.3961 13.5094 24.6091 13.5643 24.7075C14.3236 26.0601 16.0425 26.5655 17.4165 25.7947C17.4392 25.7824 17.5712 25.6821 17.8125 25.4938C17.9696 25.3717 18.1286 25.3102 18.2894 25.3093C18.3661 26.1713 18.7039 26.908 19.3029 27.5193C19.4713 27.6906 19.6227 27.8538 19.7571 28.009C19.5149 28.1765 19.2764 28.3392 19.0417 28.4973C16.897 29.9465 14.1746 29.0835 13.0618 26.8408C12.5234 25.7573 12.5134 24.6237 13.032 23.4399Z" fill="#DBDCDC"/>
<circle cx="20" cy="20" r="19.5" stroke="black" stroke-opacity="0.05"/>
</svg>
