<svg width="40" height="40" viewBox="0 0 40 40" fill="none" xmlns="http://www.w3.org/2000/svg">
<circle cx="20" cy="20" r="20" fill="#F6F8FA"/>
<g clip-path="url(#clip0_14382_19292)">
<path d="M19.2239 18.6284H20.6015V19.222H20.6171C20.7679 18.9998 20.971 18.818 21.2084 18.6926C21.4459 18.5672 21.7105 18.5021 21.979 18.5029C23.4238 18.5029 23.547 19.5557 23.547 20.1807V22.9627H22.1269V20.8661C22.1269 20.2725 22.1941 19.6722 21.4168 19.6722C20.8837 19.6722 20.6485 20.1202 20.6485 20.5996V22.9627H19.2306L19.2239 18.6284Z" fill="#555658"/>
<path d="M25.4106 21.5493C25.407 21.6422 25.4253 21.7347 25.4643 21.8192C25.5032 21.9037 25.5616 21.9778 25.6346 22.0353C25.7902 22.1391 25.9742 22.1915 26.161 22.1854C26.4366 22.1854 26.833 22.0689 26.833 21.7374C26.833 21.4059 26.385 21.3365 26.1409 21.2782C25.2449 21.0542 24.1249 21.0274 24.1249 19.8581C24.1249 18.8143 25.2449 18.5298 26.105 18.5298C27.057 18.5298 28.0493 18.8053 28.1009 19.932H26.7882C26.7948 19.8588 26.7812 19.7852 26.7488 19.7192C26.7164 19.6533 26.6665 19.5975 26.6046 19.5579C26.4686 19.4797 26.3133 19.4416 26.1566 19.4482C25.9326 19.4482 25.5473 19.4728 25.5473 19.7752C25.5473 20.1829 26.4993 20.259 27.1511 20.4002C28.0269 20.5771 28.2532 21.211 28.2532 21.5694C28.2532 22.732 27.1511 23.115 26.1745 23.115C25.1463 23.115 24.0935 22.7723 24.0532 21.5605L25.4106 21.5493Z" fill="#555658"/>
<path d="M30.8449 18.4942C31.2985 18.4915 31.7426 18.6234 32.1213 18.8731C32.4999 19.1228 32.796 19.4792 32.9721 19.8972C33.1482 20.3152 33.1964 20.776 33.1107 21.2213C33.025 21.6667 32.8092 22.0767 32.4905 22.3994C32.1718 22.7222 31.7646 22.9432 31.3204 23.0346C30.8761 23.1259 30.4147 23.0835 29.9946 22.9127C29.5744 22.7419 29.2143 22.4504 28.9598 22.075C28.7053 21.6996 28.5678 21.2571 28.5646 20.8036C28.5529 20.4996 28.6036 20.1965 28.7137 19.9129C28.8238 19.6293 28.9908 19.3713 29.2045 19.1549C29.4182 18.9385 29.6741 18.7681 29.9562 18.6545C30.2384 18.5408 30.5409 18.4863 30.8449 18.4942ZM30.8449 21.993C31.5057 21.993 31.7141 21.3434 31.7141 20.7924C31.7141 20.2413 31.5057 19.5805 30.8449 19.5805C30.1842 19.5805 29.9848 20.2391 29.9848 20.7924C29.9848 21.3456 30.1864 21.993 30.8449 21.993Z" fill="#555658"/>
<path d="M33.582 16.9956H35.0022V22.9584H33.582V16.9956Z" fill="#555658"/>
<path d="M8.49438 16.9956H10.1184V19.202H12.0044V16.9956H13.615V22.9584H12.0044V20.6064H10.1184V22.9584H8.49438V16.9956Z" fill="#555658"/>
<path d="M6.85246 17H5V19.1168H6.85246V17Z" fill="#007DC5"/>
<path d="M6.85246 20.7698H5V22.9627H6.85246V20.7698Z" fill="#00A650"/>
<path d="M14.3227 19.9657C14.3229 19.73 14.3851 19.4986 14.5031 19.2945C14.621 19.0905 14.7906 18.921 14.9947 18.8032C15.4219 18.5905 15.8953 18.4873 16.3722 18.503C17.3982 18.503 18.3882 18.727 18.3882 19.9568V21.8518C18.3582 22.233 18.4157 22.6161 18.5562 22.9718H17.1361C17.0916 22.8391 17.0637 22.7014 17.0532 22.5619C16.8635 22.7423 16.6393 22.8826 16.3942 22.9746C16.1491 23.0666 15.8879 23.1083 15.6263 23.0972C14.7975 23.0972 14.1479 22.6783 14.1479 21.7868C14.1479 20.3756 15.6846 20.4832 16.6679 20.2838C16.9121 20.2323 17.0442 20.1494 17.0442 19.8828C17.0442 19.5558 16.6522 19.4349 16.3588 19.4349C16.1929 19.4139 16.0254 19.4593 15.8928 19.5612C15.7602 19.6632 15.6733 19.8134 15.651 19.9792L14.3227 19.9657ZM16.1594 22.2057C16.8314 22.2057 17.0554 21.8227 17.0286 20.9289C16.827 21.0544 16.4596 21.079 16.1505 21.1529C15.8414 21.2268 15.5659 21.3612 15.5659 21.7017C15.5659 22.0422 15.8414 22.2102 16.1594 22.2102V22.2057Z" fill="#555658"/>
</g>
<circle cx="20" cy="20" r="19.5" stroke="black" stroke-opacity="0.05"/>
<defs>
<clipPath id="clip0_14382_19292">
<rect width="30" height="6.10394" fill="white" transform="translate(5 17)"/>
</clipPath>
</defs>
</svg>
