<svg width="40" height="40" viewBox="0 0 40 40" fill="none" xmlns="http://www.w3.org/2000/svg">
<circle cx="20" cy="20" r="20" fill="#215EAC"/>
<g clip-path="url(#clip0_17713_28147)">
<path d="M28.3235 12.2107C26.0964 10.1305 23.1344 9 19.9803 9C16.8261 9 13.8754 10.1418 11.6483 12.2107C9.42116 14.2909 8.2002 17.0606 8.2002 20C8.2002 22.9394 9.42116 25.6978 11.6483 27.778C13.8754 29.8582 16.8374 31 19.9803 31C23.1231 31 26.0964 29.8582 28.3235 27.778C30.5507 25.6978 31.7716 22.9394 31.7716 20C31.7716 17.0606 30.5394 14.3022 28.3235 12.222M19.2567 29.7564C18.6349 29.7112 18.0131 29.6095 17.4027 29.4512C16.5661 29.1799 15.7634 28.7729 15.0286 28.2528C16.3965 27.7893 17.8097 27.5067 19.2567 27.4502V29.7564ZM19.2567 26.3196C17.4479 26.3875 15.673 26.7605 13.9998 27.4162C13.8415 27.258 13.6719 27.111 13.525 26.9414C12.9484 26.3196 12.4623 25.63 12.0553 24.8952C14.4181 24.4317 16.8374 24.1716 19.268 24.1377V26.3309L19.2567 26.3196ZM19.2567 22.7811C16.6339 22.815 14.0224 23.1089 11.4674 23.629C11.1056 22.668 10.8795 21.6393 10.8117 20.5766H19.2567V22.7698V22.7811ZM19.2567 19.3443H10.823C10.9021 18.2929 11.1396 17.2641 11.5126 16.3032C14.045 16.8232 16.6452 17.1059 19.2567 17.1398V19.3443ZM19.2567 15.7945C16.8487 15.7492 14.4407 15.5005 12.1005 15.0483C12.4962 14.3474 12.971 13.6917 13.5137 13.0925C13.6945 12.9003 13.8754 12.7194 14.0789 12.5385C15.7408 13.1716 17.4705 13.5334 19.2567 13.6012V15.7945ZM19.2567 12.4707C17.8549 12.4142 16.4643 12.1542 15.1303 11.702C16.3739 10.8541 17.7757 10.3453 19.2567 10.1984V12.4707ZM20.7151 10.1984C22.1961 10.334 23.5979 10.8541 24.8415 11.702C23.5075 12.1429 22.1283 12.4029 20.7151 12.4707V10.1871V10.1984ZM20.7151 13.6012C22.5013 13.5334 24.2423 13.1716 25.8929 12.5385C26.0851 12.7194 26.266 12.9003 26.4469 13.0925C27.0008 13.6917 27.4756 14.3361 27.86 15.0483C25.5198 15.5118 23.1118 15.7605 20.7038 15.7945V13.6012H20.7151ZM20.7151 17.1398C23.3266 17.1059 25.9268 16.8232 28.4592 16.3032C28.8323 17.2641 29.0584 18.2816 29.1488 19.3443H20.7151V17.1398ZM22.5692 29.4512C21.97 29.6095 21.3482 29.7112 20.7151 29.7564V27.4502C22.1622 27.5067 23.5866 27.7893 24.9433 28.2528C24.2084 28.7729 23.4057 29.1799 22.5579 29.4512M26.4469 26.9301C26.2886 27.0997 26.1303 27.2467 25.972 27.4049C24.2876 26.7492 22.5239 26.3875 20.7038 26.3083V24.1151C23.1344 24.149 25.5537 24.409 27.9165 24.8726C27.5209 25.6074 27.0234 26.297 26.4469 26.9188M28.4931 23.6064C25.9494 23.0863 23.3266 22.7924 20.7038 22.7585V20.5653H29.1488C29.081 21.628 28.8549 22.6454 28.4931 23.6177" fill="white"/>
</g>
<circle cx="20" cy="20" r="19.5" stroke="black" stroke-opacity="0.05"/>
<defs>
<clipPath id="clip0_17713_28147">
<rect width="23.5827" height="22" fill="white" transform="translate(8.2002 9)"/>
</clipPath>
</defs>
</svg>
