<svg width="40" height="40" viewBox="0 0 40 40" fill="none" xmlns="http://www.w3.org/2000/svg">
<circle cx="20" cy="20" r="20" fill="#DA2127"/>
<g clip-path="url(#clip0_17752_43636)">
<path d="M8.12109 20.2133V19.8133C8.17685 17.5531 8.85726 15.5377 10.1623 13.7672C14.6581 7.66906 23.8629 8.16118 27.7526 14.6448C27.8399 14.7895 27.8132 14.8153 27.6726 14.7224C26.6605 14.0521 25.5744 13.6303 24.3672 13.5612C22.7526 13.4691 21.3171 13.8941 20.0605 14.8363C16.789 17.2921 16.5865 22.0945 19.6047 24.8121C21.8459 26.8315 25.1441 27.0375 27.6447 25.32C27.8047 25.2101 27.835 25.2383 27.7356 25.4048C24.0823 31.4703 15.7635 32.3248 10.9332 27.1878C9.13847 25.28 8.20109 22.9551 8.12109 20.2133Z" fill="white"/>
<path d="M26.5707 25.2946C29.4888 25.2946 31.8544 22.929 31.8544 20.0109C31.8544 17.0929 29.4888 14.7273 26.5707 14.7273C23.6527 14.7273 21.2871 17.0929 21.2871 20.0109C21.2871 22.929 23.6527 25.2946 26.5707 25.2946Z" fill="#231F20"/>
</g>
<circle cx="20" cy="20" r="19.5" stroke="black" stroke-opacity="0.05"/>
<defs>
<clipPath id="clip0_17752_43636">
<rect width="24" height="21.4545" fill="white" transform="translate(8 9.27271)"/>
</clipPath>
</defs>
</svg>
