<svg width="40" height="40" viewBox="0 0 40 40" fill="none" xmlns="http://www.w3.org/2000/svg">
<circle cx="20" cy="20" r="20" fill="#009E4D"/>
<path d="M28.7801 30.1239H11.2199C10.6314 30.1233 10.0671 29.8892 9.65091 29.473C9.23473 29.0568 9.00064 28.4925 9 27.904V12.86C9.00064 12.2715 9.23473 11.7072 9.65091 11.291C10.0671 10.8749 10.6314 10.6408 11.2199 10.6401H28.7801C29.3686 10.6408 29.9329 10.8749 30.3491 11.291C30.7653 11.7072 30.9994 12.2715 31 12.86V27.904C30.9994 28.4925 30.7653 29.0568 30.3491 29.473C29.9329 29.8892 29.3686 30.1233 28.7801 30.1239ZM11.3389 11.7039C11.0344 11.7065 10.7434 11.8296 10.5294 12.0463C10.3155 12.2629 10.1961 12.5556 10.1974 12.86V27.904C10.1961 28.2085 10.3155 28.5011 10.5294 28.7178C10.7434 28.9344 11.0344 29.0575 11.3389 29.0601H28.6732C28.9777 29.0575 29.2688 28.9344 29.4827 28.7178C29.6967 28.5011 29.816 28.2085 29.8147 27.904V12.86C29.816 12.5556 29.6967 12.2629 29.4827 12.0463C29.2688 11.8296 28.9777 11.7065 28.6732 11.7039H11.3389Z" fill="white"/>
<path d="M14.9338 18.7766C15.3168 18.7577 15.6884 18.6397 16.0122 18.4342L19.5121 15.9811C19.6481 15.8668 19.8201 15.8042 19.9978 15.8042C20.1755 15.8042 20.3475 15.8668 20.4836 15.9811L23.9835 18.4366C24.3079 18.6404 24.6792 18.7575 25.0619 18.7766H27.9764C28.3019 18.7766 28.3504 18.6236 28.0833 18.4366L20.4812 13.154C20.3447 13.0406 20.1728 12.9785 19.9954 12.9785C19.818 12.9785 19.6461 13.0406 19.5096 13.154L11.9148 18.4366C11.6476 18.6236 11.6962 18.7766 12.0217 18.7766H14.9338Z" fill="white"/>
<path d="M11.9148 21.8539C11.6476 22.0409 11.6962 22.1939 12.0217 22.1939H14.9362C15.3193 22.1751 15.6908 22.0571 16.0146 21.8515L19.5145 19.396C19.6501 19.2808 19.8223 19.2176 20.0002 19.2176C20.1782 19.2176 20.3504 19.2808 20.486 19.396L23.9859 21.8515C24.3097 22.0571 24.6812 22.1751 25.0643 22.1939H27.9788C28.3043 22.1939 28.3529 22.0409 28.0857 21.8539L20.4836 16.5689C20.3461 16.4576 20.1746 16.397 19.9978 16.397C19.821 16.397 19.6495 16.4576 19.5121 16.5689L11.9148 21.8539Z" fill="white"/>
<path d="M11.9148 25.271C11.6476 25.4581 11.6962 25.6111 12.0217 25.6111H16.0073C16.3061 25.6111 16.4931 25.8151 16.4931 26.2037V26.8182C16.486 26.8978 16.4965 26.9779 16.5238 27.0531C16.5511 27.1282 16.5945 27.1964 16.651 27.2529C16.7075 27.3094 16.7757 27.3528 16.8508 27.3801C16.9259 27.4074 17.0061 27.4179 17.0857 27.4108H22.9464C23.0261 27.4183 23.1064 27.4081 23.1817 27.381C23.257 27.3539 23.3254 27.3104 23.382 27.2538C23.4386 27.1972 23.4821 27.1289 23.5092 27.0535C23.5363 26.9782 23.5465 26.8979 23.539 26.8182V26.1964C23.539 25.7932 23.6823 25.6038 24.0126 25.6038H27.9983C28.3237 25.6038 28.3723 25.4508 28.1051 25.2638L20.503 19.9787C20.1265 19.7115 19.9298 19.7115 19.5315 19.9787L11.9148 25.271Z" fill="white"/>
<circle cx="20" cy="20" r="19.5" stroke="black" stroke-opacity="0.05"/>
</svg>
