<svg width="40" height="40" viewBox="0 0 40 40" fill="none" xmlns="http://www.w3.org/2000/svg">
<circle cx="20" cy="20" r="20" fill="#F6F8FA"/>
<g clip-path="url(#clip0_17713_28111)">
<path d="M33.8618 18.6793C32.627 17.5251 31.0327 16.8213 29.4384 16.3272C27.6881 15.7851 25.8339 15.4529 23.9926 15.2649C22.0951 15.0681 20.1065 15.0069 18.0357 15.0725C16.671 15.1162 15.3279 15.2343 14.0196 15.431C13.1271 15.5622 12.2476 15.7414 11.3898 15.9688C10.0945 16.3054 8.83375 16.7732 7.68134 17.4465C7.07914 17.8006 6.5376 18.2203 6.05671 18.7012C6.00039 18.758 5.98739 18.7537 6.02205 18.6793C6.55926 17.5907 7.52538 16.6945 8.52182 16.0081C9.6439 15.2386 10.9133 14.6441 12.2 14.2025C13.7596 13.6691 15.3929 13.315 17.1085 13.1401C19.5736 12.8866 22.0171 12.9871 24.4389 13.4374C26.4664 13.8178 28.4636 14.4561 30.2832 15.431C31.1844 15.9119 32.0552 16.5065 32.7917 17.2147C33.2552 17.6607 33.6755 18.1722 33.9657 18.7405C33.9787 18.7624 33.9744 18.7668 33.9527 18.7537C33.9224 18.7318 33.8921 18.7099 33.8661 18.6793H33.8618Z" fill="#D22D26"/>
<path d="M8.20973 20.7252C8.13175 21.193 8.1794 21.8793 8.80759 21.9187C9.05887 21.9362 9.28848 21.8881 9.49644 21.7744C9.76504 21.6301 10.0293 21.464 10.2849 21.276C10.3802 21.2104 10.4582 21.1361 10.5232 21.0618C10.5449 21.0356 10.5665 21.0356 10.5969 21.0487L10.7312 21.1274C10.7701 21.1492 10.7745 21.1798 10.7442 21.2148C10.3846 21.5952 9.99033 21.9056 9.55276 22.146C9.14118 22.3734 8.70362 22.4521 8.24439 22.3821C7.40391 22.2553 7.20895 21.5602 7.33459 20.8213C7.48623 19.9295 8.01044 19.0813 8.78593 18.6092C9.29715 18.2988 9.83003 18.1895 10.3846 18.29C10.7225 18.3512 11.0041 18.5742 11.0258 18.9327C11.0561 19.3524 10.8091 19.7633 10.4669 20.0125C10.3239 20.1175 10.168 20.2093 10.0077 20.2705C9.44878 20.4891 8.84658 20.6202 8.24005 20.6946C8.22273 20.6946 8.21406 20.7077 8.20973 20.7208V20.7252ZM9.05887 19.0245C8.69495 19.383 8.44801 19.8333 8.30071 20.3229C8.30071 20.3273 8.30071 20.3361 8.30937 20.3361C8.30937 20.3361 8.30937 20.3361 8.3137 20.3361C8.56498 20.3011 8.81193 20.253 9.05454 20.1918C9.70439 20.0344 10.2373 19.5972 10.2546 18.8846C10.2546 18.7491 10.1723 18.6398 10.0336 18.6223C9.64807 18.5654 9.32748 18.7534 9.05887 19.0201V19.0245Z" fill="#211916"/>
<path d="M14.1059 21.617C14.4265 21.7176 14.7384 21.582 14.7298 21.2061C14.7298 20.9962 14.5218 20.782 14.3615 20.6596C14.0929 20.4541 13.8243 20.2836 13.5817 20.0388C13.4301 19.8857 13.3348 19.7065 13.2871 19.5054C13.1875 19.0463 13.3868 18.701 13.7853 18.4736C14.2879 18.1894 14.8944 18.2288 15.4143 18.4343C15.4273 18.4386 15.4403 18.4561 15.4403 18.4692V19.2037C15.4403 19.2387 15.4273 19.2474 15.397 19.2256C15.2453 19.1163 15.0937 19.0332 14.9377 18.9895C14.7341 18.9283 14.4698 18.937 14.3399 19.125C14.1666 19.3655 14.2922 19.5447 14.4915 19.7109C14.8121 19.9732 15.1674 20.2311 15.436 20.5284C15.7522 20.8782 15.7739 21.5165 15.475 21.8837C15.0374 22.4171 14.0799 22.4827 13.5167 22.1373C13.4994 22.1242 13.4864 22.1067 13.4864 22.0804V21.3634C13.4864 21.3634 13.4951 21.3416 13.5081 21.3416H13.5167C13.7117 21.4553 13.9066 21.5427 14.1016 21.6039L14.1059 21.617Z" fill="#211916"/>
<path d="M27.3111 22.2334C26.7999 22.0323 26.4966 21.5296 26.371 20.9875C26.2497 20.4585 26.267 19.9207 26.4186 19.3699C26.4793 19.1556 26.5573 18.9808 26.6569 18.8452C27.1118 18.2244 27.9783 18.1501 28.6368 18.4124C28.6498 18.4168 28.6585 18.4299 28.6585 18.4474V19.1381C28.6585 19.1381 28.6455 19.1644 28.6325 19.1644C28.6281 19.1644 28.6195 19.1644 28.6151 19.16C28.4159 19.0157 28.2166 18.9414 28.013 18.9414C27.5581 18.9414 27.3501 19.3742 27.2721 19.759C27.1768 20.2311 27.2071 20.7776 27.4194 21.2192C27.6187 21.6301 28.0519 21.7875 28.4505 21.5864C28.5112 21.5558 28.5718 21.5252 28.6325 21.4902C28.6411 21.4902 28.6498 21.4902 28.6541 21.4946C28.6541 21.4946 28.6541 21.499 28.6541 21.5033V22.1373C28.6541 22.1679 28.6368 22.1941 28.6108 22.2072C28.1732 22.3952 27.74 22.404 27.3024 22.2334H27.3111Z" fill="#211916"/>
<path d="M32.0422 21.6389C31.7519 22.3034 30.8638 22.4783 30.2399 22.2772C29.5381 22.0498 29.3388 21.1361 29.3301 20.5022C29.3215 19.9863 29.3648 19.4617 29.5684 18.9982C29.7417 18.6092 30.032 18.3818 30.4392 18.3206C31.0327 18.2288 31.6696 18.3687 31.9859 18.9021C32.0768 19.0551 32.1462 19.2562 32.1895 19.501C32.3021 20.0956 32.2848 20.7033 32.1418 21.3241C32.1158 21.4421 32.0812 21.5514 32.0378 21.6476L32.0422 21.6389ZM30.8378 21.6782C31.1151 21.6564 31.2277 21.3022 31.258 21.0749C31.3317 20.5372 31.3273 20.0213 31.2537 19.5316C31.2104 19.2649 31.0674 18.9327 30.7555 18.972C30.4392 19.0157 30.3786 19.5753 30.3569 19.8114C30.3222 20.2355 30.3222 20.6902 30.3959 21.088C30.4349 21.3154 30.5345 21.7001 30.8421 21.6782H30.8378Z" fill="#211916"/>
<path d="M23.9186 18.9589C23.9186 18.9589 23.8926 18.9677 23.8926 18.9851V22.2859C23.8926 22.2859 23.884 22.3034 23.8753 22.3034H22.9958C22.9958 22.3034 22.9785 22.2947 22.9785 22.2859V18.3206C22.9785 18.3206 22.9785 18.3075 22.9872 18.3075C23.3728 18.3075 23.7627 18.3075 24.1483 18.3075C24.7981 18.3162 25.7599 18.6092 25.7945 19.418C25.8119 19.8814 25.6429 20.3535 25.2097 20.5547C25.1923 20.5634 25.1794 20.5721 25.1707 20.5853C25.1577 20.6027 25.1577 20.6159 25.1707 20.6333C25.1837 20.6508 25.1967 20.6727 25.2097 20.6946C25.6949 21.6739 26.1801 22.6575 26.6697 23.6412C26.674 23.65 26.6697 23.6631 26.661 23.6674C26.661 23.6674 26.6567 23.6674 26.6524 23.6674H25.7469C25.7469 23.6674 25.7209 23.6587 25.7166 23.6456L24.0746 20.2574C24.0746 20.2574 24.0746 20.2399 24.0833 20.2355C24.0833 20.2355 24.0876 20.2355 24.0919 20.2355C24.2522 20.2486 24.4082 20.2268 24.5512 20.1568C24.8024 20.0431 24.9107 19.8333 24.8848 19.5273C24.8761 19.4267 24.8501 19.3436 24.8111 19.2693C24.7115 19.077 24.4688 18.9589 24.2696 18.9589C24.1483 18.9589 24.0313 18.9589 23.923 18.9502L23.9186 18.9589Z" fill="#211916"/>
<path d="M17.1034 18.9808H16.3669C16.3669 18.9808 16.3496 18.972 16.3496 18.9589V18.3425C16.3496 18.3337 16.3583 18.325 16.3669 18.325H18.832C18.832 18.325 18.8494 18.3337 18.8494 18.3425V18.9589C18.8494 18.9589 18.8407 18.9764 18.832 18.9764H18.1172C18.1172 18.9764 18.0999 18.9851 18.0999 18.9939V22.2859C18.0999 22.2859 18.0912 22.3034 18.0826 22.3034H17.1424C17.1424 22.3034 17.1251 22.2947 17.1251 22.2859V18.9983C17.1251 18.9983 17.1164 18.9808 17.1034 18.9808Z" fill="#211916"/>
<path d="M20.6433 19.9644C20.6216 19.9994 20.6086 20.0388 20.6 20.0781C20.4397 20.7995 20.2707 21.534 20.0974 22.2903C20.0974 22.299 20.0888 22.3078 20.0758 22.3078H19.166C19.14 22.3078 19.1313 22.2947 19.14 22.2728L20.275 18.3512C20.275 18.3512 20.2924 18.325 20.3097 18.325H21.0202C21.0202 18.325 21.0549 18.3337 21.0592 18.3556L22.1899 22.2859C22.1899 22.2859 22.1899 22.3078 22.1769 22.3122C22.1769 22.3122 22.1726 22.3122 22.1683 22.3122C21.8564 22.3078 21.5488 22.3078 21.2455 22.3122C21.2238 22.3122 21.2108 22.3034 21.2065 22.2816C21.0289 21.5514 20.8556 20.8257 20.6823 20.1087C20.6693 20.0606 20.6693 20.0125 20.6606 19.9644C20.6606 19.947 20.652 19.947 20.6433 19.9644Z" fill="#211916"/>
<path d="M11.7967 20.406C11.7014 20.3579 11.6061 20.3492 11.5108 20.3929C11.3591 20.4672 11.2422 20.5765 11.1599 20.7208C11.1512 20.7383 11.1382 20.7426 11.1209 20.7295C10.9519 20.6202 11.2898 20.2268 11.3765 20.1481C11.5238 20.0169 11.6797 19.995 11.8574 20.0825C11.983 20.1481 12.113 20.2136 12.2429 20.2836C12.5159 20.4279 12.7455 20.218 12.8798 19.995C12.8928 19.9732 12.9101 19.9688 12.9275 19.9819C12.9794 20.0125 12.9968 20.0562 12.9751 20.1131C12.9101 20.3098 12.8105 20.4585 12.6805 20.5721C12.4769 20.747 12.2776 20.6858 12.0696 20.559C11.983 20.5066 11.8877 20.4541 11.7924 20.406H11.7967Z" fill="#211916"/>
<path d="M7.3864 23.2696C8.34818 23.886 9.38794 24.3451 10.4624 24.6905C11.2812 24.9571 12.139 25.1757 13.0401 25.3506C14.6214 25.6567 16.2157 25.8272 17.836 25.9059C20.3271 26.0239 22.7879 25.9321 25.2097 25.6304C25.6559 25.5736 26.2408 25.4818 26.973 25.3462C27.5925 25.2326 28.251 25.0839 28.9485 24.8916C30.2915 24.5243 31.5913 24.0303 32.7523 23.3002C33.1812 23.0291 33.5885 22.7144 33.9697 22.3515C33.974 22.3471 33.9784 22.3428 33.987 22.3428C33.987 22.3428 33.9914 22.3427 33.9957 22.3515C33.9957 22.3515 33.9957 22.3602 33.9957 22.3646C33.5668 23.1778 32.891 23.8729 32.1545 24.4456C31.2403 25.1583 30.2092 25.731 29.1435 26.1944C26.96 27.1387 24.5988 27.6808 22.2117 27.8907C20.3315 28.0568 18.4729 28.0219 16.636 27.7814C14.9594 27.5628 13.3867 27.1824 11.918 26.6403C11.1512 26.3562 10.4277 26.0326 9.74753 25.661C8.6991 25.0927 7.72432 24.3932 6.9315 23.5144C6.56325 23.1078 6.26432 22.6663 6.03904 22.1985C6.01304 22.146 6.02171 22.1416 6.06503 22.181C6.15168 22.2641 6.23832 22.3471 6.32497 22.4302C6.66289 22.7493 7.01382 23.0248 7.38207 23.2652L7.3864 23.2696Z" fill="#D22D26"/>
</g>
<circle cx="20" cy="20" r="19.5" stroke="black" stroke-opacity="0.05"/>
<defs>
<clipPath id="clip0_17713_28111">
<rect width="28" height="15" fill="white" transform="translate(6 13)"/>
</clipPath>
</defs>
</svg>
