<svg width="40" height="40" viewBox="0 0 40 40" fill="none" xmlns="http://www.w3.org/2000/svg">
<circle cx="20" cy="20" r="20" fill="#760000"/>
<g clip-path="url(#clip0_33363_66881)">
<path d="M32.7554 24.1123C31.5352 24.1123 30.9609 23.6406 30.9609 22.4614V19.6313H30.197V18.5034H30.9609V17.1602H32.4734V18.5034H33.4783V19.6313H32.4734V22.2974C32.4734 22.8101 32.7041 22.9844 33.1553 22.9844C33.2886 22.9844 33.386 22.969 33.4783 22.9587V24.0559C33.3091 24.0815 33.0681 24.1123 32.7554 24.1123Z" fill="white"/>
<path d="M27.6617 24.1123C25.9852 24.1123 24.9496 23.0203 24.9496 21.2463V21.2412C24.9496 19.4827 26.0006 18.3906 27.6464 18.3906C29.1383 18.3906 30.0868 19.3083 30.1432 20.4978V20.5337H28.7538L28.7435 20.4875C28.6512 19.9646 28.2872 19.5647 27.6669 19.5647C26.9337 19.5647 26.4723 20.1953 26.4723 21.2463V21.2515C26.4723 22.3281 26.9337 22.9382 27.672 22.9382C28.2719 22.9382 28.6461 22.5691 28.7487 22.0154L28.7538 21.9692H30.1483V22C30.0765 23.1997 29.1281 24.1123 27.6617 24.1123Z" fill="white"/>
<path d="M18.0411 23.9998L20.6251 16.6016H22.4452L25.024 23.9998H23.3988L22.84 22.2053H20.2252L19.6664 23.9998H18.0411ZM21.5172 18.0371L20.5841 21.0466H22.4811L21.548 18.0371H21.5172Z" fill="white"/>
<path d="M15.3931 24.1123C13.7217 24.1123 12.6707 23.0408 12.6707 21.2515V21.2412C12.6707 19.4724 13.7473 18.3906 15.3879 18.3906C17.0337 18.3906 18.1155 19.4622 18.1155 21.2412V21.2515C18.1155 23.0459 17.0542 24.1123 15.3931 24.1123ZM15.3982 22.9382C16.1262 22.9382 16.5928 22.323 16.5928 21.2515V21.2412C16.5928 20.1799 16.116 19.5647 15.3879 19.5647C14.665 19.5647 14.1934 20.1799 14.1934 21.2412V21.2515C14.1934 22.3281 14.6599 22.9382 15.3982 22.9382Z" fill="white"/>
<path d="M6.79785 23.9998V16.6016H8.34619V19.9854H8.38208L11.0942 16.6016H12.8169L10.1663 19.8674L13.0066 23.9998H11.1558L9.03833 20.8774L8.34619 21.7336V23.9998H6.79785Z" fill="white"/>
</g>
<circle cx="20" cy="20" r="19.5" stroke="black" stroke-opacity="0.05"/>
<defs>
<clipPath id="clip0_33363_66881">
<rect width="28" height="9" fill="white" transform="translate(6 16)"/>
</clipPath>
</defs>
</svg>
