<svg width="40" height="40" viewBox="0 0 40 40" fill="none" xmlns="http://www.w3.org/2000/svg">
<circle cx="20" cy="20" r="20" fill="#F6F8FA"/>
<path d="M14.2827 13.0394C14.9115 13.0436 15.5542 13.0433 16.2109 13.0386C16.5383 13.0364 16.7733 13.0559 16.9159 13.097C17.5382 13.2761 17.9928 13.8419 18.0002 14.4993C18.0002 14.5039 17.9984 14.5083 17.9951 14.5115C17.9918 14.5148 17.9874 14.5166 17.9828 14.5166C17.2208 14.5156 16.414 14.5153 15.5624 14.5155C15.1335 14.5155 14.8873 14.518 14.8237 14.5229C13.9723 14.5867 13.2468 14.8822 12.647 15.4096C11.6742 16.2649 11.1927 17.5524 11.4552 18.8331C11.7655 20.3458 12.9801 21.4999 14.5124 21.7274C14.7148 21.7575 14.9539 21.772 15.2296 21.771C16.2881 21.7668 17.3327 21.7662 18.3636 21.7692C18.9486 21.7706 19.3914 21.5215 19.692 21.0217C20.4363 19.783 21.1987 18.5031 21.9791 17.1819C22.1195 16.9441 22.3411 16.7713 22.6003 16.7081C22.6931 16.6855 22.8015 16.6743 22.9253 16.6745C23.6689 16.677 24.4399 16.6773 25.2383 16.6756C25.4281 16.6751 25.5851 16.6919 25.7092 16.7258C26.4312 16.9231 26.9246 17.641 26.792 18.3977C26.6919 18.9705 26.2668 19.4407 25.6922 19.5803C25.5723 19.6093 25.4125 19.6233 25.2128 19.6224C24.2137 19.6169 23.1825 19.6171 22.1191 19.6227C21.8521 19.6242 21.6312 19.6512 21.4747 19.8883C21.3538 20.0714 21.2417 20.248 21.1386 20.4179C20.5558 21.3771 19.9641 22.356 19.3633 23.3546C19.3593 23.3612 19.3538 23.3666 19.347 23.3705C19.3403 23.3744 19.3327 23.3765 19.3249 23.3768C18.0973 23.4043 16.8772 23.5129 15.6647 23.7025C13.14 24.0973 10.6435 24.8536 8.43576 26.1451C8.42099 26.1537 8.40794 26.1517 8.39661 26.1389C6.75613 24.303 5.82731 21.9579 6.07475 19.489C6.35469 16.6911 8.06091 14.3242 10.2952 12.7066C12.8324 10.8701 15.9339 9.92018 19.0682 9.76138C22.2679 9.59962 25.5101 10.2334 28.2962 11.7645C31.5443 13.5498 34.1387 16.6479 34.032 20.529C33.9744 22.6271 33.0784 24.5578 31.6754 26.1425C31.6663 26.1529 31.6558 26.1546 31.644 26.1477C29.694 25.0125 27.5207 24.2838 25.3 23.8572C24.1571 23.6376 22.9978 23.4925 21.8222 23.4218C21.7961 23.4201 21.7894 23.4079 21.8022 23.3853C21.9827 23.0622 22.164 22.7332 22.3462 22.3981C22.5567 22.0114 22.8208 21.7729 23.2835 21.7699C23.9148 21.7662 24.5302 21.7662 25.1297 21.7699C25.4116 21.7716 25.6471 21.7586 25.8362 21.7308C27.127 21.5406 28.2042 20.6852 28.6906 19.4864C29.5877 17.275 28.0968 14.8047 25.7324 14.5425C25.5429 14.5216 25.3044 14.5116 25.0171 14.5126C23.9254 14.5172 22.7856 14.5179 21.5976 14.5144C21.3096 14.5133 21.0932 14.5831 20.9469 14.8379C20.1453 16.2339 19.3382 17.6361 18.5257 19.0444C18.4898 19.1067 18.4499 19.1686 18.4061 19.2301C18.1837 19.5422 17.8059 19.6216 17.4414 19.6201C16.6819 19.6172 15.8938 19.618 15.0771 19.6227C14.7735 19.6246 14.501 19.5636 14.2424 19.4034C13.7317 19.0869 13.4606 18.4989 13.5688 17.9054C13.6984 17.1912 14.2945 16.6767 15.0283 16.6764C16.3827 16.6754 17.6584 16.676 18.8555 16.6782C18.8621 16.6782 18.8685 16.6765 18.8742 16.6734C18.8799 16.6702 18.8846 16.6656 18.888 16.6601C19.279 16.002 19.6855 15.32 20.1075 14.6141C20.1378 14.5632 20.1519 14.5108 20.1499 14.4572C20.1221 13.7144 19.9116 13.0564 19.5184 12.4832C18.8703 11.5381 17.8078 10.9199 16.6611 10.8907C16.2728 10.8811 15.8732 10.8843 15.4623 10.9003C15.456 10.9007 15.4498 10.9026 15.4445 10.906C15.4391 10.9093 15.4347 10.914 15.4316 10.9195L14.2742 13.0246C14.2734 13.0261 14.273 13.0278 14.273 13.0295C14.273 13.0312 14.2734 13.0329 14.2743 13.0344C14.2751 13.0359 14.2764 13.0371 14.2778 13.038C14.2793 13.0389 14.281 13.0393 14.2827 13.0394Z" fill="#F30714"/>
<path d="M27.6003 25.539C28.6459 26.0075 29.6092 26.5781 30.4901 27.2507C30.4933 27.2531 30.4959 27.2562 30.4977 27.2598C30.4995 27.2634 30.5004 27.2673 30.5005 27.2713C30.5006 27.2753 30.4997 27.2793 30.4981 27.2829C30.4964 27.2866 30.4939 27.2899 30.4909 27.2925C27.8769 29.5083 24.3644 30.6395 20.9405 30.7994C19.0412 30.8883 17.2074 30.7021 15.4389 30.2407C13.3005 29.683 11.273 28.7054 9.58897 27.2998C9.58451 27.2962 9.58095 27.2915 9.57856 27.2863C9.57618 27.281 9.57504 27.2752 9.57521 27.2694C9.57539 27.2636 9.57689 27.2579 9.57959 27.2528C9.5823 27.2476 9.58613 27.2431 9.59082 27.2396C10.927 26.2455 12.3757 25.4857 13.9369 24.9603C15.5183 24.4282 17.1494 24.1134 18.8302 24.0159C21.8287 23.842 24.8511 24.3066 27.6003 25.539ZM25.9735 27.154L25.9868 27.2204C25.9882 27.2277 25.9921 27.2341 25.9977 27.2389C26.0033 27.2436 26.0104 27.2462 26.0178 27.2463L26.4414 27.2478C26.4434 27.2478 26.4453 27.2473 26.4471 27.2464C26.4489 27.2455 26.4504 27.2441 26.4515 27.2425C26.4526 27.2409 26.4534 27.239 26.4536 27.237C26.4538 27.235 26.4536 27.233 26.4528 27.2312L26.3284 26.8818C26.3242 26.8702 26.3268 26.8604 26.3361 26.8522C26.5215 26.6964 26.6646 26.505 26.7653 26.278C26.7675 26.273 26.7659 26.2706 26.7605 26.2706L26.4584 26.2691C26.4557 26.2691 26.4532 26.2698 26.4509 26.2713C26.4487 26.2727 26.4469 26.2748 26.4458 26.2772C26.3931 26.3905 26.3169 26.4983 26.2172 26.6007C26.217 26.601 26.2167 26.6011 26.2164 26.6012C26.2161 26.6013 26.2158 26.6013 26.2155 26.6013C26.2151 26.6013 26.2148 26.6012 26.2146 26.601C26.2143 26.6009 26.2141 26.6006 26.2139 26.6004C26.1964 26.5735 26.1576 26.4854 26.0975 26.3359C26.0956 26.3305 26.0969 26.3265 26.1016 26.3238C26.2166 26.2605 26.3165 26.1832 26.4015 26.0918C26.5544 25.9275 26.7438 25.532 26.3974 25.4441C26.0001 25.3432 25.5739 25.5541 25.49 25.9762C25.4726 26.0644 25.4878 26.152 25.5358 26.2392C25.5388 26.2447 25.5406 26.2508 25.5411 26.2571C25.5416 26.2634 25.5408 26.2697 25.5386 26.2756C25.5365 26.2816 25.5331 26.287 25.5288 26.2915C25.5244 26.296 25.5191 26.2996 25.5133 26.302C25.2348 26.4142 24.99 26.6617 24.9856 26.9697C24.9833 27.1396 25.0811 27.2389 25.2788 27.2677C25.5087 27.301 25.7264 27.2568 25.9317 27.1351C25.9544 27.1218 25.9683 27.1281 25.9735 27.154ZM14.1695 26.8774C14.1714 26.8774 14.1733 26.8778 14.175 26.8786C14.1767 26.8794 14.1783 26.8806 14.1795 26.882C14.1808 26.8834 14.1817 26.8851 14.1823 26.8869C14.1828 26.8887 14.183 26.8906 14.1828 26.8925L14.1448 27.2334C14.1446 27.2353 14.1448 27.2372 14.1454 27.2391C14.146 27.2409 14.1469 27.2426 14.1482 27.244C14.1495 27.2454 14.1511 27.2466 14.1529 27.2474C14.1546 27.2481 14.1565 27.2485 14.1585 27.2485L14.5555 27.247C14.5589 27.247 14.5622 27.2458 14.5648 27.2434C14.5673 27.2411 14.5689 27.2379 14.5691 27.2345L14.7095 25.4777C14.7096 25.4758 14.7094 25.4739 14.7088 25.4721C14.7081 25.4703 14.7072 25.4687 14.7059 25.4673C14.7046 25.4659 14.703 25.4648 14.7013 25.464C14.6996 25.4633 14.6977 25.4629 14.6958 25.4629L14.2537 25.4607C14.2516 25.4607 14.2494 25.4613 14.2475 25.4623C14.2456 25.4633 14.2439 25.4648 14.2427 25.4666L13.0077 27.2241C13.0062 27.2262 13.0052 27.2287 13.005 27.2312C13.0048 27.2338 13.0054 27.2364 13.0066 27.2386C13.0078 27.2409 13.0096 27.2428 13.0118 27.2441C13.014 27.2454 13.0166 27.246 13.0191 27.2459L13.3563 27.2445C13.3586 27.2444 13.3608 27.2439 13.3628 27.2428C13.3648 27.2417 13.3665 27.2401 13.3678 27.2382L13.5989 26.884C13.6002 26.8821 13.6019 26.8805 13.6039 26.8794C13.6059 26.8783 13.6081 26.8777 13.6104 26.8777L14.1695 26.8774ZM21.6736 26.1221L21.928 25.4729C21.9284 25.4717 21.9286 25.4704 21.9284 25.4692C21.9283 25.4679 21.9279 25.4667 21.9272 25.4657C21.9265 25.4647 21.9255 25.4639 21.9245 25.4633C21.9234 25.4628 21.9222 25.4625 21.921 25.4625H21.5912C21.5846 25.4625 21.5801 25.4655 21.5779 25.4714L20.8936 27.2142C20.8847 27.2368 20.8925 27.248 20.9169 27.2478L21.1647 27.2452C21.1756 27.2451 21.1862 27.2418 21.1952 27.2359C21.2043 27.2299 21.2113 27.2215 21.2156 27.2116L21.2581 27.1133C21.279 27.0651 21.2975 27.0659 21.3135 27.1159C21.3947 27.3696 21.7064 27.2655 21.8497 27.1506C22.0602 26.9819 22.1629 26.7795 22.2556 26.5328C22.3151 26.374 22.362 26.1325 22.2083 26.0235C22.0558 25.9153 21.8143 26.0183 21.6931 26.135C21.6911 26.1369 21.6885 26.1381 21.6857 26.1383C21.6829 26.1385 21.6802 26.1378 21.6779 26.1363C21.6756 26.1348 21.6739 26.1326 21.6731 26.13C21.6724 26.1274 21.6725 26.1246 21.6736 26.1221ZM23.1578 25.4784C23.1585 25.4766 23.1587 25.4747 23.1585 25.4728C23.1582 25.4709 23.1575 25.4691 23.1564 25.4676C23.1553 25.466 23.1539 25.4647 23.1522 25.4639C23.1505 25.463 23.1487 25.4625 23.1468 25.4625L22.814 25.4614C22.8116 25.4614 22.8092 25.4622 22.8072 25.4636C22.8053 25.4649 22.8038 25.4669 22.8029 25.4692L22.6895 25.7757C22.6889 25.7775 22.6887 25.7794 22.6889 25.7813C22.6892 25.7832 22.6899 25.785 22.6909 25.7865C22.692 25.7881 22.6935 25.7894 22.6952 25.7902C22.6969 25.7911 22.6987 25.7916 22.7006 25.7916L23.0308 25.7934C23.0332 25.7934 23.0356 25.7927 23.0375 25.7913C23.0395 25.7899 23.041 25.7879 23.0419 25.7857L23.1578 25.4784ZM23.7111 25.4806C23.7118 25.4786 23.7121 25.4764 23.7118 25.4742C23.7116 25.472 23.7108 25.4699 23.7096 25.4681C23.7083 25.4663 23.7067 25.4648 23.7048 25.4638C23.7028 25.4628 23.7007 25.4622 23.6985 25.4622L23.3776 25.4614C23.3748 25.4615 23.3722 25.4623 23.3699 25.4639C23.3677 25.4655 23.366 25.4677 23.365 25.4703L22.6766 27.2267C22.6758 27.2288 22.6755 27.231 22.6757 27.2332C22.6759 27.2354 22.6766 27.2375 22.6778 27.2393C22.679 27.2412 22.6806 27.2427 22.6825 27.2438C22.6845 27.2449 22.6866 27.2455 22.6888 27.2456L23.0086 27.25C23.0114 27.25 23.0142 27.2492 23.0165 27.2476C23.0188 27.246 23.0206 27.2438 23.0216 27.2411L23.7111 25.4806ZM16.7344 25.9888L16.8522 25.6941C16.8626 25.6677 16.8547 25.66 16.8286 25.6708L16.5003 25.8052C16.4739 25.8161 16.4559 25.8349 16.4463 25.8617L16.4031 25.9829C16.3994 25.9931 16.3927 26.002 16.3837 26.0082C16.3748 26.0144 16.3642 26.0177 16.3533 26.0176L16.2207 26.0161C16.2138 26.016 16.207 26.018 16.2012 26.0218C16.1955 26.0257 16.1911 26.0311 16.1886 26.0375L16.0925 26.2776C16.0864 26.2931 16.0917 26.3006 16.1084 26.3001L16.2432 26.2961C16.2466 26.2959 16.2499 26.2967 16.2529 26.2982C16.2559 26.2997 16.2585 26.3019 16.2605 26.3047C16.2624 26.3075 16.2636 26.3107 16.264 26.3141C16.2644 26.3175 16.264 26.3209 16.2628 26.3241C16.1803 26.5327 16.0977 26.745 16.015 26.9612C15.9721 27.0727 15.9415 27.2252 16.1099 27.2526C16.2313 27.2723 16.3482 27.2682 16.4607 27.2404C16.4738 27.2372 16.4827 27.2293 16.4873 27.2168L16.5745 26.9841C16.5752 26.9822 16.5754 26.9802 16.5751 26.9782C16.5747 26.9762 16.5738 26.9743 16.5725 26.9728C16.5712 26.9713 16.5694 26.9701 16.5675 26.9695C16.5656 26.9689 16.5635 26.9688 16.5616 26.9693C16.5113 26.9809 16.47 26.9804 16.4375 26.9678C16.4275 26.964 16.4183 26.9582 16.4105 26.9508C16.4027 26.9434 16.3965 26.9345 16.3922 26.9247C16.3879 26.9149 16.3855 26.9043 16.3853 26.8936C16.3851 26.8829 16.387 26.8722 16.3909 26.8622L16.6014 26.3193C16.6069 26.3055 16.617 26.2986 16.6317 26.2986H16.8086C16.8342 26.2986 16.8518 26.2868 16.8614 26.2632L16.9453 26.0534C16.9549 26.0293 16.9468 26.0174 16.9209 26.0176L16.7543 26.0183C16.7329 26.0186 16.7263 26.0087 16.7344 25.9888ZM17.6023 25.9711C17.1052 25.9785 16.7606 26.4563 16.71 26.9135C16.6886 27.1045 16.8024 27.2422 16.9966 27.267C17.5055 27.3312 17.8353 26.9161 17.9616 26.4759C18.0458 26.183 17.9313 25.9663 17.6023 25.9711ZM20.0892 27.267C20.5789 27.3246 20.8932 26.9483 21.0354 26.5128C21.1418 26.1886 21.0151 25.946 20.6513 25.9714C20.2096 26.0025 19.9319 26.3651 19.8178 26.7736C19.7513 27.011 19.8104 27.2341 20.0892 27.267ZM23.7148 26.7171L24.3777 26.7156C24.3944 26.7156 24.4059 26.7077 24.412 26.692C24.5006 26.4693 24.6613 26.0121 24.2569 25.9733C23.7642 25.926 23.491 26.3478 23.3517 26.7824C23.2683 27.0424 23.344 27.2751 23.6557 27.2714C23.9696 27.2675 24.196 27.1307 24.3348 26.8611C24.3368 26.8574 24.3356 26.8554 24.3311 26.8552L24.0309 26.8522C24.025 26.852 24.0205 26.8546 24.0176 26.86C23.9551 26.9765 23.8691 27.0354 23.7598 27.0369C23.7449 27.0372 23.7301 27.0344 23.7163 27.0288C23.7025 27.0231 23.6899 27.0148 23.6795 27.0042C23.669 26.9936 23.6607 26.981 23.6552 26.9671C23.6498 26.9533 23.6471 26.9384 23.6475 26.9235C23.649 26.8642 23.66 26.8037 23.6804 26.7422C23.6858 26.7254 23.6973 26.7171 23.7148 26.7171ZM18.5573 26.1901C18.5637 26.1455 18.5801 26.1008 18.6064 26.056C18.6284 26.0186 18.6178 26.0018 18.5747 26.0058C18.4944 26.0129 18.4095 26.0133 18.3199 26.0069C18.2915 26.0049 18.2725 26.0172 18.2626 26.0438C18.1255 26.4107 17.9717 26.8085 17.8013 27.2374C17.7986 27.2441 17.8008 27.2474 17.808 27.2474L18.1374 27.247C18.1436 27.247 18.1478 27.2442 18.15 27.2385C18.2529 26.9817 18.3464 26.7443 18.4306 26.5261C18.4816 26.3936 18.5732 26.2469 18.7324 26.2628C18.7473 26.2643 18.7614 26.2706 18.7725 26.2806C18.7836 26.2907 18.7912 26.304 18.7941 26.3186C18.8029 26.3633 18.797 26.4176 18.7808 26.46C18.6845 26.7104 18.5828 26.9702 18.4757 27.2393C18.4735 27.2445 18.4752 27.247 18.4809 27.247H18.8169C18.8216 27.247 18.8247 27.2449 18.8262 27.2408C18.9288 26.9726 19.0326 26.7098 19.1375 26.4523C19.1848 26.3367 19.3115 26.2148 19.4459 26.2805C19.457 26.286 19.4639 26.2947 19.4666 26.3068C19.4774 26.3582 19.4736 26.4086 19.4551 26.4578C19.3603 26.7082 19.2589 26.9692 19.1508 27.2408C19.1486 27.2459 19.1504 27.2485 19.1563 27.2485L19.4872 27.2459C19.4951 27.2459 19.5004 27.2422 19.5031 27.2348C19.6041 26.9751 19.7118 26.6989 19.8263 26.4061C19.8765 26.2772 19.9127 26.0774 19.7609 26.0047C19.5825 25.9194 19.3558 26.0516 19.2357 26.1849C19.2114 26.212 19.1988 26.2073 19.1981 26.1709C19.194 25.9991 19.0208 25.9519 18.8842 25.9943C18.7613 26.0322 18.659 26.1004 18.5773 26.1989C18.5603 26.2196 18.5536 26.2167 18.5573 26.1901ZM15.3373 27.0668C15.3427 27.0732 15.3439 27.0805 15.341 27.0886C15.324 27.1322 15.3084 27.1751 15.2941 27.2175C15.293 27.2205 15.2927 27.2238 15.2932 27.2269C15.2936 27.2301 15.2948 27.2331 15.2966 27.2358C15.2985 27.2384 15.3009 27.2406 15.3037 27.2421C15.3066 27.2436 15.3097 27.2444 15.3129 27.2445L15.591 27.2481C15.6102 27.2486 15.6234 27.2399 15.6305 27.2219L16.1021 26.0176C16.1025 26.0166 16.1026 26.0155 16.1025 26.0144C16.1024 26.0134 16.102 26.0124 16.1014 26.0115C16.1008 26.0106 16.1001 26.0099 16.0992 26.0094C16.0983 26.0089 16.0973 26.0087 16.0962 26.0087L15.7624 26.0121C15.7597 26.0121 15.757 26.0129 15.7548 26.0145C15.7525 26.0161 15.7508 26.0183 15.7498 26.0209C15.654 26.2723 15.5527 26.5295 15.4459 26.7924C15.3976 26.9113 15.3175 26.9766 15.2055 26.9881C15.1951 26.9893 15.1846 26.9883 15.1745 26.9853C15.1645 26.9823 15.1552 26.9774 15.1471 26.9708C15.139 26.9641 15.1323 26.956 15.1273 26.9467C15.1224 26.9375 15.1193 26.9273 15.1183 26.9169C15.1129 26.8622 15.119 26.812 15.1368 26.7662C15.233 26.5168 15.3308 26.2681 15.43 26.0202C15.4304 26.0192 15.4306 26.0181 15.4304 26.017C15.4303 26.0159 15.4299 26.0148 15.4292 26.0139C15.4286 26.013 15.4277 26.0123 15.4267 26.0117C15.4256 26.0112 15.4245 26.011 15.4233 26.011L15.0921 26.0095C15.0854 26.0095 15.081 26.0126 15.0788 26.0187C14.9938 26.244 14.9035 26.4757 14.8077 26.7138C14.7434 26.8737 14.599 27.2666 14.9255 27.2651C15.0769 27.2644 15.2055 27.1984 15.3111 27.0672C15.3197 27.0566 15.3284 27.0565 15.3373 27.0668ZM22.1201 27.2289C22.1194 27.2307 22.1192 27.2325 22.1194 27.2344C22.1196 27.2362 22.1203 27.238 22.1213 27.2395C22.1224 27.241 22.1238 27.2423 22.1255 27.2431C22.1271 27.244 22.1289 27.2445 22.1308 27.2445L22.4554 27.2481C22.4577 27.2481 22.46 27.2474 22.4619 27.2461C22.4638 27.2448 22.4653 27.2429 22.4661 27.2408L22.941 26.0268C22.9417 26.0251 22.9419 26.0232 22.9417 26.0214C22.9415 26.0195 22.9408 26.0178 22.9398 26.0163C22.9387 26.0147 22.9373 26.0135 22.9357 26.0126C22.934 26.0118 22.9322 26.0113 22.9303 26.0113L22.6053 26.0084C22.603 26.0084 22.6007 26.0091 22.5988 26.0104C22.5969 26.0117 22.5955 26.0136 22.5946 26.0158L22.1201 27.2289ZM20.6255 29.2897C20.4785 29.584 20.022 29.6224 20.1339 29.1697C20.2022 28.8934 20.3673 28.4783 20.6362 28.3516C20.7289 28.3081 20.9235 28.2992 20.9205 28.4554C20.9201 28.484 20.9187 28.5118 20.9165 28.5389C20.9148 28.5586 20.9237 28.5684 20.9434 28.5684L21.2659 28.5695C21.2763 28.5695 21.2864 28.5662 21.2948 28.5601C21.3033 28.5539 21.3095 28.5452 21.3128 28.5352C21.3866 28.3099 21.3571 28.064 21.0786 28.0082C20.6391 27.9199 20.285 28.1526 20.0482 28.5031C19.8204 28.8399 19.3613 29.8315 20.1557 29.8389C20.5486 29.8426 20.8367 29.6623 21.0199 29.2982C21.0386 29.2613 21.0273 29.2441 20.9859 29.2469C20.9 29.253 20.8036 29.2534 20.6967 29.248C20.6637 29.2465 20.64 29.2604 20.6255 29.2897ZM18.8679 29.1612C19.1948 29.1556 19.4584 29.18 19.7011 28.9071C19.8455 28.7446 20.0154 28.4196 19.9326 28.1973C19.8918 28.0872 19.7999 28.0305 19.6571 28.027C19.4154 28.0211 19.171 28.0204 18.924 28.0248C18.9197 28.0248 18.9155 28.0261 18.9119 28.0286C18.9083 28.031 18.9056 28.0345 18.9041 28.0385L18.2176 29.7979C18.2171 29.7989 18.217 29.8 18.2171 29.8012C18.2172 29.8023 18.2176 29.8034 18.2182 29.8043C18.2188 29.8052 18.2197 29.806 18.2206 29.8066C18.2216 29.8071 18.2227 29.8074 18.2238 29.8075L18.5754 29.8071C18.5833 29.8071 18.5887 29.8034 18.5917 29.796L18.831 29.1867C18.8376 29.1702 18.8499 29.1617 18.8679 29.1612ZM22.1958 28.8594C22.4373 28.7866 22.589 28.6207 22.6508 28.362C22.7099 28.1134 22.5115 28.0278 22.3062 28.0255C22.0952 28.0236 21.8817 28.0236 21.6658 28.0255C21.6496 28.0255 21.6385 28.0332 21.6326 28.0484L20.9512 29.7923C20.9505 29.7939 20.9503 29.7957 20.9505 29.7975C20.9507 29.7992 20.9513 29.8009 20.9524 29.8023C20.9534 29.8038 20.9548 29.805 20.9564 29.8058C20.9579 29.8066 20.9597 29.8071 20.9615 29.8071C21.174 29.8083 21.3934 29.8081 21.6196 29.8064C21.9178 29.8039 22.1372 29.6741 22.2778 29.4171C22.373 29.2428 22.4506 28.9887 22.195 28.9023C22.1512 28.8873 22.1515 28.873 22.1958 28.8594Z" fill="#F30714"/>
<path d="M25.9733 27.1541C25.9681 27.1283 25.9542 27.122 25.9316 27.1353C25.7262 27.2569 25.5086 27.3011 25.2786 27.2679C25.0809 27.2391 24.9832 27.1397 24.9854 26.9698C24.9898 26.6618 25.2347 26.4144 25.5131 26.3021C25.519 26.2998 25.5243 26.2962 25.5286 26.2917C25.533 26.2871 25.5363 26.2817 25.5385 26.2758C25.5406 26.2699 25.5414 26.2635 25.541 26.2573C25.5405 26.251 25.5387 26.2449 25.5357 26.2393C25.4877 26.1522 25.4724 26.0645 25.4899 25.9764C25.5737 25.5543 25.9999 25.3434 26.3973 25.4442C26.7437 25.5321 26.5542 25.9276 26.4013 26.092C26.3164 26.1833 26.2164 26.2606 26.1014 26.3239C26.0968 26.3266 26.0954 26.3307 26.0974 26.3361C26.1575 26.4855 26.1962 26.5737 26.2137 26.6005C26.2139 26.6008 26.2141 26.601 26.2144 26.6012C26.2147 26.6013 26.215 26.6014 26.2153 26.6015C26.2156 26.6015 26.2159 26.6015 26.2162 26.6014C26.2165 26.6013 26.2168 26.6011 26.217 26.6009C26.3168 26.4985 26.393 26.3906 26.4456 26.2774C26.4468 26.2749 26.4486 26.2729 26.4508 26.2714C26.453 26.27 26.4556 26.2692 26.4582 26.2693L26.7603 26.2707C26.7657 26.2707 26.7673 26.2732 26.7651 26.2781C26.6644 26.5051 26.5214 26.6965 26.336 26.8524C26.3266 26.8605 26.324 26.8704 26.3282 26.8819L26.4527 27.2313C26.4534 27.2332 26.4536 27.2352 26.4534 27.2371C26.4532 27.2391 26.4525 27.241 26.4513 27.2427C26.4502 27.2443 26.4487 27.2456 26.4469 27.2466C26.4452 27.2475 26.4432 27.2479 26.4412 27.2479L26.0176 27.2465C26.0103 27.2463 26.0032 27.2437 25.9975 27.239C25.9919 27.2343 25.988 27.2278 25.9866 27.2206L25.9733 27.1541ZM26.2082 25.8342C26.2473 25.7347 26.2154 25.6843 26.1125 25.6828C25.8987 25.6798 25.8459 25.89 25.9393 26.0595C25.9462 26.072 25.9561 26.075 25.9689 26.0683C26.0912 26.0063 26.171 25.9283 26.2082 25.8342ZM25.8293 26.8587C25.8008 26.7556 25.748 26.6622 25.7126 26.5606C25.7113 26.5569 25.7093 26.5534 25.7066 26.5505C25.704 26.5475 25.7007 26.5452 25.6971 26.5436C25.6934 26.5419 25.6895 26.5411 25.6855 26.541C25.6815 26.541 25.6775 26.5417 25.6738 26.5433C25.5501 26.5957 25.3702 26.7346 25.4079 26.8875C25.4526 27.0692 25.7214 26.9798 25.8171 26.8982C25.8294 26.8876 25.8335 26.8744 25.8293 26.8587Z" fill="#FFFEFC"/>
<path d="M14.1684 26.8774L13.6093 26.8777C13.607 26.8777 13.6048 26.8783 13.6028 26.8794C13.6008 26.8805 13.5991 26.8821 13.5979 26.884L13.3667 27.2382C13.3654 27.2401 13.3637 27.2417 13.3617 27.2428C13.3597 27.2439 13.3575 27.2445 13.3552 27.2445L13.018 27.2459C13.0155 27.246 13.0129 27.2454 13.0107 27.2441C13.0085 27.2428 13.0067 27.2409 13.0055 27.2386C13.0043 27.2364 13.0037 27.2338 13.0039 27.2312C13.0041 27.2287 13.0051 27.2262 13.0066 27.2242L14.2416 25.4666C14.2428 25.4648 14.2445 25.4633 14.2464 25.4623C14.2483 25.4613 14.2505 25.4607 14.2526 25.4607L14.6947 25.4629C14.6966 25.4629 14.6985 25.4633 14.7002 25.464C14.7019 25.4648 14.7035 25.4659 14.7048 25.4673C14.7061 25.4687 14.7071 25.4703 14.7077 25.4721C14.7083 25.4739 14.7085 25.4758 14.7084 25.4777L14.568 27.2345C14.5678 27.2379 14.5662 27.2411 14.5637 27.2434C14.5611 27.2458 14.5578 27.2471 14.5544 27.2471L14.1574 27.2485C14.1554 27.2485 14.1535 27.2481 14.1518 27.2474C14.15 27.2466 14.1484 27.2454 14.1471 27.244C14.1458 27.2426 14.1449 27.2409 14.1443 27.2391C14.1437 27.2372 14.1435 27.2353 14.1437 27.2334L14.1817 26.8925C14.1819 26.8906 14.1818 26.8887 14.1812 26.8869C14.1806 26.8851 14.1797 26.8834 14.1784 26.882C14.1772 26.8806 14.1756 26.8794 14.1739 26.8786C14.1722 26.8778 14.1703 26.8774 14.1684 26.8774ZM13.8239 26.5472C13.8224 26.5494 13.8216 26.5521 13.8215 26.5547C13.8213 26.5574 13.822 26.5601 13.8233 26.5624C13.8246 26.5648 13.8265 26.5667 13.8288 26.5681C13.8311 26.5695 13.8337 26.5701 13.8364 26.5701L14.208 26.5697C14.2115 26.5697 14.2148 26.5684 14.2175 26.5661C14.2201 26.5638 14.2218 26.5606 14.2224 26.5572L14.3313 25.8204C14.3318 25.8171 14.3312 25.8137 14.3295 25.8107C14.3278 25.8078 14.3251 25.8056 14.322 25.8044C14.3188 25.8032 14.3154 25.8031 14.3122 25.8041C14.309 25.8051 14.3062 25.8072 14.3043 25.8101L13.8239 26.5472Z" fill="#FFFEFC"/>
<path d="M21.6732 26.1222C21.6721 26.1248 21.672 26.1275 21.6728 26.1301C21.6735 26.1327 21.6752 26.1349 21.6775 26.1364C21.6798 26.138 21.6826 26.1386 21.6853 26.1384C21.6881 26.1382 21.6907 26.137 21.6928 26.1352C21.8139 26.0185 22.0554 25.9154 22.2079 26.0236C22.3616 26.1326 22.3147 26.3741 22.2552 26.5329C22.1625 26.7796 22.0598 26.982 21.8493 27.1508C21.706 27.2656 21.3943 27.3698 21.3131 27.1161C21.2971 27.0661 21.2786 27.0652 21.2577 27.1135L21.2152 27.2117C21.211 27.2216 21.2039 27.23 21.1948 27.236C21.1858 27.2419 21.1752 27.2452 21.1643 27.2453L20.9165 27.2479C20.8921 27.2481 20.8843 27.2369 20.8932 27.2143L21.5775 25.4715C21.5797 25.4656 21.5842 25.4627 21.5908 25.4627H21.9206C21.9218 25.4626 21.923 25.4629 21.9241 25.4634C21.9252 25.464 21.9261 25.4648 21.9268 25.4658C21.9275 25.4669 21.9279 25.468 21.9281 25.4693C21.9282 25.4705 21.9281 25.4718 21.9276 25.473L21.6732 26.1222ZM21.4731 27.0092C21.5168 27.0308 21.579 27.0106 21.6459 26.953C21.7128 26.8955 21.779 26.8053 21.8299 26.7023C21.8551 26.6513 21.8758 26.5987 21.8908 26.5475C21.9058 26.4963 21.9149 26.4474 21.9174 26.4038C21.9199 26.3602 21.9158 26.3226 21.9055 26.2932C21.8951 26.2638 21.8786 26.2432 21.857 26.2324C21.8133 26.2108 21.7511 26.231 21.6842 26.2886C21.6173 26.3461 21.5511 26.4363 21.5002 26.5393C21.475 26.5903 21.4543 26.6429 21.4393 26.6941C21.4243 26.7454 21.4153 26.7942 21.4127 26.8378C21.4102 26.8814 21.4143 26.919 21.4246 26.9484C21.435 26.9778 21.4515 26.9985 21.4731 27.0092Z" fill="#FFFEFC"/>
<path d="M23.1575 25.4784L23.0415 25.7857C23.0407 25.788 23.0392 25.7899 23.0372 25.7913C23.0352 25.7927 23.0329 25.7934 23.0304 25.7934L22.7003 25.7916C22.6984 25.7916 22.6965 25.7911 22.6948 25.7902C22.6931 25.7894 22.6917 25.7881 22.6906 25.7865C22.6895 25.785 22.6888 25.7832 22.6886 25.7813C22.6883 25.7794 22.6885 25.7775 22.6892 25.7757L22.8026 25.4692C22.8034 25.4669 22.8049 25.4649 22.8069 25.4636C22.8089 25.4622 22.8112 25.4614 22.8137 25.4614L23.1464 25.4625C23.1483 25.4625 23.1502 25.463 23.1519 25.4639C23.1535 25.4648 23.155 25.466 23.1561 25.4676C23.1572 25.4691 23.1579 25.4709 23.1581 25.4728C23.1583 25.4747 23.1581 25.4766 23.1575 25.4784Z" fill="#FFFEFC"/>
<path d="M23.7103 25.4806L23.0208 27.2411C23.0198 27.2438 23.018 27.246 23.0157 27.2476C23.0134 27.2492 23.0106 27.25 23.0078 27.25L22.688 27.2456C22.6858 27.2455 22.6837 27.2449 22.6817 27.2438C22.6798 27.2427 22.6782 27.2412 22.677 27.2393C22.6758 27.2375 22.6751 27.2354 22.6749 27.2332C22.6747 27.231 22.675 27.2288 22.6758 27.2267L23.3642 25.4703C23.3652 25.4677 23.3669 25.4655 23.3691 25.4639C23.3714 25.4623 23.374 25.4615 23.3768 25.4614L23.6977 25.4622C23.6999 25.4622 23.702 25.4628 23.704 25.4638C23.7059 25.4648 23.7075 25.4663 23.7088 25.4681C23.71 25.47 23.7108 25.472 23.711 25.4742C23.7113 25.4764 23.711 25.4786 23.7103 25.4806Z" fill="#FFFEFC"/>
<path d="M16.7545 26.0185L16.9211 26.0178C16.9469 26.0175 16.955 26.0295 16.9454 26.0536L16.8616 26.2634C16.852 26.287 16.8344 26.2988 16.8088 26.2988H16.6319C16.6171 26.2988 16.607 26.3057 16.6016 26.3195L16.3911 26.8624C16.3872 26.8724 16.3852 26.883 16.3855 26.8938C16.3857 26.9045 16.388 26.9151 16.3923 26.9249C16.3967 26.9347 16.4029 26.9436 16.4107 26.951C16.4184 26.9584 16.4276 26.9642 16.4376 26.968C16.4701 26.9806 16.5115 26.9811 16.5617 26.9695C16.5637 26.969 16.5657 26.9691 16.5677 26.9697C16.5696 26.9703 16.5713 26.9714 16.5726 26.973C16.574 26.9745 16.5749 26.9763 16.5752 26.9783C16.5756 26.9803 16.5754 26.9824 16.5746 26.9843L16.4875 27.2169C16.4828 27.2295 16.4739 27.2374 16.4609 27.2406C16.3484 27.2684 16.2314 27.2725 16.11 27.2528C15.9416 27.2254 15.9723 27.0729 16.0151 26.9614C16.0979 26.7452 16.1805 26.5328 16.2629 26.3243C16.2642 26.3211 16.2646 26.3177 16.2642 26.3143C16.2638 26.3109 16.2626 26.3076 16.2606 26.3049C16.2587 26.3021 16.2561 26.2998 16.2531 26.2983C16.2501 26.2968 16.2467 26.2961 16.2434 26.2962L16.1086 26.3003C16.0918 26.3008 16.0865 26.2933 16.0927 26.2778L16.1887 26.0377C16.1912 26.0313 16.1956 26.0258 16.2014 26.022C16.2071 26.0182 16.2139 26.0162 16.2208 26.0163L16.3534 26.0178C16.3643 26.0179 16.375 26.0146 16.3839 26.0084C16.3928 26.0022 16.3996 25.9933 16.4033 25.9831L16.4465 25.8619C16.4561 25.8351 16.4741 25.8163 16.5004 25.8054L16.8287 25.671C16.8548 25.6602 16.8627 25.6679 16.8524 25.6943L16.7345 25.989C16.7264 26.0089 16.7331 26.0188 16.7545 26.0185Z" fill="#FFFEFC"/>
<path d="M26.2077 25.8342C26.1705 25.9282 26.0907 26.0063 25.9684 26.0683C25.9556 26.075 25.9457 26.072 25.9388 26.0595C25.8454 25.89 25.8982 25.6798 26.112 25.6828C26.215 25.6842 26.2468 25.7347 26.2077 25.8342Z" fill="#F30714"/>
<path d="M13.8247 26.5473L14.3052 25.8101C14.307 25.8073 14.3098 25.8052 14.313 25.8042C14.3162 25.8031 14.3197 25.8032 14.3228 25.8044C14.326 25.8057 14.3286 25.8079 14.3303 25.8108C14.332 25.8137 14.3326 25.8172 14.3321 25.8205L14.2232 26.5573C14.2227 26.5607 14.2209 26.5639 14.2183 26.5662C14.2157 26.5685 14.2123 26.5698 14.2088 26.5698L13.8373 26.5702C13.8346 26.5702 13.8319 26.5695 13.8296 26.5682C13.8273 26.5668 13.8254 26.5649 13.8241 26.5625C13.8228 26.5602 13.8222 26.5575 13.8223 26.5548C13.8224 26.5521 13.8232 26.5495 13.8247 26.5473Z" fill="#F30714"/>
<path d="M16.7096 26.9138C16.7602 26.4565 17.1048 25.9787 17.6019 25.9713C17.9309 25.9665 18.0454 26.1833 17.9612 26.4761C17.8349 26.9163 17.5051 27.3314 16.9962 27.2672C16.8019 27.2424 16.6882 27.1047 16.7096 26.9138ZM17.1466 27.0342C17.169 27.0453 17.1965 27.0456 17.2273 27.0353C17.2582 27.025 17.2918 27.0041 17.3264 26.974C17.361 26.9438 17.3957 26.9049 17.4287 26.8595C17.4618 26.8142 17.4923 26.7632 17.5188 26.7095C17.5452 26.6558 17.5669 26.6004 17.5827 26.5466C17.5986 26.4927 17.6082 26.4415 17.611 26.3957C17.6138 26.3499 17.6097 26.3105 17.5991 26.2797C17.5885 26.249 17.5714 26.2275 17.549 26.2164C17.5265 26.2054 17.4991 26.205 17.4682 26.2153C17.4374 26.2257 17.4037 26.2465 17.3691 26.2767C17.3346 26.3068 17.2998 26.3457 17.2668 26.3911C17.2338 26.4365 17.2032 26.4875 17.1768 26.5412C17.1504 26.5949 17.1286 26.6502 17.1128 26.7041C17.097 26.7579 17.0874 26.8092 17.0846 26.855C17.0818 26.9008 17.0858 26.9401 17.0964 26.9709C17.1071 27.0017 17.1241 27.0232 17.1466 27.0342Z" fill="#FFFEFC"/>
<path d="M20.0893 27.2671C19.8104 27.2342 19.7514 27.0112 19.8178 26.7737C19.932 26.3652 20.2097 26.0026 20.6514 25.9716C21.0151 25.9461 21.1418 26.1887 21.0355 26.513C20.8933 26.9484 20.579 27.3247 20.0893 27.2671ZM20.2306 27.0341C20.253 27.0451 20.2804 27.0455 20.3113 27.0351C20.3421 27.0247 20.3757 27.0038 20.4103 26.9736C20.4448 26.9434 20.4796 26.9045 20.5126 26.8591C20.5456 26.8136 20.5762 26.7626 20.6027 26.7088C20.6291 26.6551 20.6509 26.5997 20.6667 26.5458C20.6826 26.492 20.6922 26.4407 20.6951 26.3949C20.6979 26.3491 20.6939 26.3097 20.6833 26.2789C20.6728 26.2482 20.6558 26.2267 20.6334 26.2156C20.611 26.2046 20.5836 26.2043 20.5527 26.2147C20.5219 26.225 20.4883 26.2459 20.4537 26.2761C20.4192 26.3063 20.3844 26.3453 20.3514 26.3907C20.3184 26.4361 20.2878 26.4872 20.2613 26.5409C20.2349 26.5946 20.2131 26.65 20.1973 26.7039C20.1814 26.7578 20.1718 26.8091 20.1689 26.8549C20.1661 26.9007 20.1701 26.9401 20.1806 26.9708C20.1912 27.0016 20.2082 27.0231 20.2306 27.0341Z" fill="#FFFEFC"/>
<path d="M23.6806 26.7423C23.6601 26.8038 23.6492 26.8643 23.6477 26.9236C23.6473 26.9385 23.6499 26.9533 23.6554 26.9672C23.6609 26.9811 23.6691 26.9937 23.6796 27.0043C23.6901 27.0149 23.7026 27.0232 23.7164 27.0288C23.7302 27.0345 23.745 27.0372 23.76 27.037C23.8693 27.0355 23.9552 26.9765 24.0177 26.8601C24.0207 26.8547 24.0251 26.8521 24.031 26.8523L24.3313 26.8553C24.3357 26.8555 24.3369 26.8575 24.335 26.8612C24.1961 27.1308 23.9697 27.2676 23.6558 27.2715C23.3441 27.2752 23.2684 27.0425 23.3519 26.7825C23.4911 26.3478 23.7644 25.9261 24.2571 25.9734C24.6614 26.0121 24.5008 26.4693 24.4122 26.692C24.406 26.7078 24.3946 26.7157 24.3778 26.7157L23.7149 26.7172C23.6974 26.7172 23.686 26.7255 23.6806 26.7423ZM24.0085 26.2153C23.9194 26.2564 23.8498 26.3377 23.7998 26.4594C23.7988 26.4619 23.7984 26.4646 23.7987 26.4673C23.799 26.47 23.7999 26.4726 23.8014 26.4748C23.8029 26.4771 23.8049 26.4789 23.8073 26.4802C23.8096 26.4815 23.8123 26.4822 23.815 26.4823L24.1433 26.4841C24.1502 26.4842 24.1569 26.4821 24.1625 26.4781C24.168 26.4742 24.1722 26.4685 24.1743 26.462C24.1946 26.4014 24.2242 26.2659 24.1636 26.2219C24.12 26.1901 24.0683 26.1879 24.0085 26.2153Z" fill="#FFFEFC"/>
<path d="M18.5569 26.1902C18.5532 26.2168 18.5599 26.2197 18.5768 26.1991C18.6586 26.1006 18.7609 26.0324 18.8837 25.9945C19.0204 25.952 19.1936 25.9993 19.1977 26.171C19.1984 26.2074 19.211 26.2121 19.2353 26.185C19.3554 26.0517 19.5821 25.9195 19.7605 26.0048C19.9123 26.0776 19.8761 26.2774 19.8259 26.4062C19.7114 26.699 19.6037 26.9752 19.5027 27.235C19.5 27.2424 19.4947 27.2461 19.4868 27.2461L19.1559 27.2486C19.15 27.2486 19.1482 27.2461 19.1504 27.2409C19.2585 26.9693 19.3599 26.7083 19.4547 26.458C19.4732 26.4087 19.477 26.3584 19.4661 26.3069C19.4634 26.2948 19.4565 26.2861 19.4455 26.2807C19.311 26.2149 19.1844 26.3368 19.1371 26.4524C19.0322 26.7099 18.9284 26.9728 18.8258 27.2409C18.8243 27.2451 18.8212 27.2472 18.8165 27.2472H18.4805C18.4748 27.2472 18.4731 27.2446 18.4753 27.2394C18.5824 26.9703 18.6841 26.7106 18.7803 26.4602C18.7966 26.4177 18.8025 26.3634 18.7936 26.3187C18.7908 26.3041 18.7832 26.2908 18.7721 26.2808C18.761 26.2707 18.7469 26.2645 18.732 26.263C18.5728 26.2471 18.4812 26.3937 18.4302 26.5263C18.346 26.7444 18.2525 26.9819 18.1496 27.2387C18.1473 27.2443 18.1432 27.2472 18.137 27.2472L17.8076 27.2475C17.8004 27.2475 17.7982 27.2442 17.8009 27.2376C17.9713 26.8087 18.1251 26.4108 18.2622 26.044C18.272 26.0174 18.2911 26.0051 18.3194 26.007C18.4091 26.0134 18.494 26.0131 18.5743 26.0059C18.6173 26.002 18.6279 26.0187 18.606 26.0561C18.5797 26.101 18.5633 26.1456 18.5569 26.1902Z" fill="#FFFEFC"/>
<path d="M15.3119 27.0674C15.2062 27.1986 15.0777 27.2646 14.9263 27.2653C14.5998 27.2668 14.7442 26.8738 14.8085 26.7139C14.9043 26.4758 14.9946 26.2442 15.0796 26.0189C15.0818 26.0127 15.0862 26.0097 15.0929 26.0097L15.4241 26.0111C15.4253 26.0111 15.4264 26.0114 15.4275 26.0119C15.4285 26.0124 15.4294 26.0132 15.43 26.0141C15.4307 26.015 15.4311 26.0161 15.4312 26.0172C15.4314 26.0182 15.4312 26.0193 15.4308 26.0204C15.3316 26.2683 15.2338 26.517 15.1375 26.7664C15.1198 26.8122 15.1137 26.8624 15.1191 26.917C15.1201 26.9275 15.1232 26.9376 15.1281 26.9469C15.1331 26.9561 15.1398 26.9643 15.1479 26.9709C15.156 26.9776 15.1653 26.9825 15.1753 26.9855C15.1853 26.9885 15.1959 26.9894 15.2062 26.9883C15.3183 26.9768 15.3984 26.9115 15.4467 26.7926C15.5535 26.5296 15.6548 26.2725 15.7506 26.0211C15.7516 26.0185 15.7533 26.0163 15.7555 26.0147C15.7578 26.0131 15.7604 26.0122 15.7632 26.0122L16.097 26.0089C16.098 26.0089 16.099 26.0091 16.1 26.0096C16.1009 26.0101 16.1016 26.0108 16.1022 26.0117C16.1028 26.0125 16.1032 26.0135 16.1033 26.0146C16.1034 26.0157 16.1033 26.0168 16.1029 26.0178L15.6313 27.2221C15.6242 27.2401 15.611 27.2488 15.5918 27.2483L15.3137 27.2446C15.3105 27.2446 15.3073 27.2438 15.3045 27.2422C15.3017 27.2407 15.2993 27.2386 15.2974 27.236C15.2956 27.2333 15.2944 27.2303 15.2939 27.2271C15.2935 27.2239 15.2938 27.2207 15.2949 27.2177C15.3092 27.1753 15.3248 27.1324 15.3418 27.0888C15.3447 27.0807 15.3435 27.0734 15.3381 27.067C15.3292 27.0566 15.3205 27.0568 15.3119 27.0674Z" fill="#FFFEFC"/>
<path d="M22.1199 27.2291L22.5945 26.0159C22.5953 26.0138 22.5967 26.0119 22.5987 26.0106C22.6006 26.0092 22.6028 26.0085 22.6052 26.0085L22.9302 26.0115C22.932 26.0115 22.9338 26.0119 22.9355 26.0128C22.9371 26.0137 22.9385 26.0149 22.9396 26.0164C22.9406 26.018 22.9413 26.0197 22.9415 26.0216C22.9417 26.0234 22.9415 26.0253 22.9409 26.027L22.4659 27.2409C22.4651 27.2431 22.4636 27.245 22.4617 27.2463C22.4598 27.2476 22.4575 27.2483 22.4552 27.2483L22.1306 27.2446C22.1287 27.2446 22.1269 27.2442 22.1253 27.2433C22.1236 27.2425 22.1222 27.2412 22.1212 27.2397C22.1201 27.2382 22.1194 27.2364 22.1192 27.2346C22.119 27.2327 22.1192 27.2309 22.1199 27.2291Z" fill="#FFFEFC"/>
<path d="M24.0087 26.2152C24.0686 26.1879 24.1203 26.1901 24.1638 26.2219C24.2244 26.2658 24.1949 26.4014 24.1745 26.4619C24.1724 26.4685 24.1683 26.4741 24.1627 26.4781C24.1571 26.4821 24.1504 26.4842 24.1435 26.4841L23.8152 26.4823C23.8125 26.4822 23.8098 26.4815 23.8075 26.4802C23.8051 26.4789 23.8031 26.4771 23.8016 26.4748C23.8001 26.4726 23.7992 26.47 23.7989 26.4673C23.7986 26.4646 23.799 26.4619 23.8001 26.4594C23.85 26.3377 23.9196 26.2564 24.0087 26.2152Z" fill="#F30714"/>
<path d="M17.1765 26.5411C17.0654 26.7669 17.0519 26.9876 17.1463 27.0341C17.2408 27.0806 17.4074 26.9352 17.5185 26.7093C17.6296 26.4835 17.6432 26.2627 17.5487 26.2163C17.4543 26.1698 17.2877 26.3152 17.1765 26.5411Z" fill="#F30714"/>
<path d="M20.262 26.5409C20.1508 26.7669 20.137 26.9877 20.2313 27.0341C20.3255 27.0804 20.4921 26.9348 20.6033 26.7088C20.7145 26.4828 20.7283 26.262 20.634 26.2156C20.5398 26.1692 20.3732 26.3148 20.262 26.5409Z" fill="#F30714"/>
<path d="M21.5008 26.5393C21.3948 26.7538 21.3826 26.9642 21.4737 27.0092C21.5648 27.0542 21.7245 26.9168 21.8305 26.7023C21.9365 26.4878 21.9486 26.2775 21.8576 26.2325C21.7665 26.1875 21.6068 26.3249 21.5008 26.5393Z" fill="#F30714"/>
<path d="M25.7121 26.5606C25.7476 26.6622 25.8004 26.7556 25.8288 26.8587C25.833 26.8744 25.8289 26.8876 25.8166 26.8982C25.721 26.9798 25.4521 27.0692 25.4074 26.8875C25.3698 26.7346 25.5496 26.5957 25.6733 26.5433C25.677 26.5417 25.681 26.541 25.685 26.541C25.689 26.5411 25.693 26.5419 25.6966 26.5436C25.7003 26.5452 25.7035 26.5475 25.7062 26.5505C25.7088 26.5534 25.7109 26.5569 25.7121 26.5606Z" fill="#F30714"/>
<path d="M20.1338 29.1698C20.0219 29.6225 20.4784 29.5841 20.6254 29.2898C20.6399 29.2605 20.6637 29.2466 20.6967 29.2481C20.8035 29.2535 20.8999 29.2531 20.9858 29.2469C21.0272 29.2442 21.0385 29.2613 21.0198 29.2983C20.8366 29.6624 20.5486 29.8426 20.1556 29.839C19.3612 29.8316 19.8203 28.84 20.0482 28.5032C20.2849 28.1527 20.6391 27.92 21.0785 28.0083C21.357 28.064 21.3865 28.31 21.3127 28.5353C21.3095 28.5453 21.3032 28.554 21.2948 28.5601C21.2863 28.5663 21.2762 28.5696 21.2658 28.5696L20.9434 28.5685C20.9237 28.5685 20.9147 28.5587 20.9164 28.539C20.9186 28.5119 20.92 28.4841 20.9205 28.4555C20.9234 28.2993 20.7288 28.3082 20.6361 28.3517C20.3672 28.4784 20.2022 28.8935 20.1338 29.1698Z" fill="#FFFEFC"/>
<path d="M18.8307 29.1868L18.5914 29.7962C18.5885 29.8035 18.583 29.8072 18.5752 29.8072L18.2236 29.8076C18.2224 29.8076 18.2213 29.8073 18.2204 29.8067C18.2194 29.8062 18.2186 29.8054 18.2179 29.8044C18.2173 29.8035 18.2169 29.8024 18.2168 29.8013C18.2167 29.8002 18.2169 29.7991 18.2173 29.798L18.9038 28.0386C18.9053 28.0346 18.9081 28.0311 18.9116 28.0287C18.9152 28.0263 18.9194 28.0249 18.9238 28.0249C19.1707 28.0205 19.4151 28.0213 19.6569 28.0272C19.7997 28.0306 19.8915 28.0874 19.9324 28.1974C20.0151 28.4197 19.8452 28.7447 19.7008 28.9072C19.4582 29.1801 19.1945 29.1558 18.8676 29.1613C18.8497 29.1618 18.8374 29.1703 18.8307 29.1868ZM19.5003 28.6199C19.5259 28.5638 19.5398 28.5096 19.542 28.4574C19.543 28.4315 19.5342 28.4061 19.5173 28.3863C19.5004 28.3665 19.4767 28.3538 19.4508 28.3507C19.3661 28.3403 19.2766 28.3379 19.1823 28.3433C19.1756 28.3437 19.1691 28.346 19.1637 28.3499C19.1583 28.3539 19.1541 28.3592 19.1517 28.3654L18.9777 28.8134C18.9766 28.8162 18.9762 28.8192 18.9766 28.8221C18.9769 28.8251 18.978 28.8279 18.9798 28.8303C18.9816 28.8327 18.9839 28.8347 18.9867 28.836C18.9894 28.8373 18.9924 28.8379 18.9954 28.8378C19.2152 28.8289 19.3913 28.8581 19.5003 28.6199Z" fill="#FFFEFC"/>
<path d="M22.1955 28.8596C22.1512 28.8731 22.151 28.8874 22.1948 28.9024C22.4504 28.9888 22.3728 29.2429 22.2775 29.4172C22.1369 29.6743 21.9176 29.804 21.6194 29.8065C21.3932 29.8082 21.1738 29.8084 20.9613 29.8072C20.9595 29.8072 20.9577 29.8067 20.9561 29.8059C20.9545 29.8051 20.9531 29.8039 20.9521 29.8024C20.9511 29.801 20.9505 29.7993 20.9503 29.7976C20.9501 29.7958 20.9503 29.7941 20.951 29.7924L21.6323 28.0485C21.6383 28.0333 21.6493 28.0256 21.6656 28.0256C21.8815 28.0237 22.095 28.0237 22.306 28.0256C22.5113 28.0279 22.7096 28.1135 22.6505 28.3621C22.5887 28.6209 22.4371 28.7867 22.1955 28.8596ZM22.0116 28.7428C22.1394 28.7259 22.2458 28.5597 22.2384 28.4249C22.2354 28.3705 22.2075 28.3426 22.1545 28.3414C22.0671 28.3394 21.9822 28.3402 21.8997 28.3436C21.8859 28.3444 21.8766 28.3511 21.8717 28.3639L21.7335 28.7196C21.7269 28.7373 21.7329 28.7467 21.7516 28.7477C21.8516 28.7541 21.9383 28.7525 22.0116 28.7428ZM21.4421 29.466C21.4411 29.4687 21.4407 29.4716 21.4411 29.4744C21.4415 29.4773 21.4425 29.48 21.4442 29.4824C21.4459 29.4847 21.4482 29.4866 21.4508 29.4879C21.4534 29.4891 21.4562 29.4897 21.4591 29.4896C21.5766 29.4855 21.7339 29.5136 21.8307 29.4456C21.9181 29.3846 21.9684 29.2931 21.9817 29.1713C21.9994 29.0102 21.7117 29.0468 21.6238 29.0523C21.6172 29.0528 21.6109 29.0551 21.6055 29.059C21.6001 29.0629 21.596 29.0683 21.5936 29.0745L21.4421 29.466Z" fill="#FFFEFC"/>
<path d="M19.5004 28.62C19.3915 28.8582 19.2153 28.829 18.9956 28.8379C18.9925 28.838 18.9895 28.8374 18.9868 28.8361C18.9841 28.8348 18.9817 28.8328 18.9799 28.8304C18.9782 28.828 18.9771 28.8251 18.9767 28.8222C18.9763 28.8192 18.9767 28.8163 18.9778 28.8135L19.1518 28.3655C19.1542 28.3593 19.1584 28.354 19.1638 28.35C19.1693 28.3461 19.1757 28.3438 19.1824 28.3434C19.2767 28.338 19.3662 28.3404 19.4509 28.3508C19.4768 28.3539 19.5005 28.3666 19.5174 28.3864C19.5343 28.4062 19.5432 28.4315 19.5421 28.4575C19.5399 28.5097 19.526 28.5638 19.5004 28.62Z" fill="#F30714"/>
<path d="M22.2379 28.4249C22.2453 28.5597 22.139 28.7259 22.0112 28.7428C21.9378 28.7524 21.8511 28.754 21.7512 28.7476C21.7325 28.7467 21.7264 28.7373 21.7331 28.7196L21.8712 28.3639C21.8761 28.3511 21.8855 28.3444 21.8993 28.3436C21.9818 28.3402 22.0667 28.3394 22.1541 28.3414C22.207 28.3426 22.235 28.3705 22.2379 28.4249Z" fill="#F30714"/>
<path d="M21.4426 29.466L21.594 29.0745C21.5964 29.0683 21.6006 29.063 21.6059 29.059C21.6113 29.0551 21.6177 29.0528 21.6243 29.0523C21.7122 29.0468 21.9999 29.0102 21.9822 29.1713C21.9689 29.2931 21.9185 29.3846 21.8311 29.4457C21.7343 29.5136 21.577 29.4855 21.4596 29.4896C21.4567 29.4897 21.4538 29.4892 21.4512 29.4879C21.4486 29.4866 21.4464 29.4848 21.4447 29.4824C21.443 29.4801 21.4419 29.4773 21.4415 29.4745C21.4412 29.4716 21.4415 29.4687 21.4426 29.466Z" fill="#F30714"/>
<circle cx="20" cy="20" r="19.5" stroke="black" stroke-opacity="0.05"/>
</svg>
