<svg width="40" height="40" viewBox="0 0 40 40" fill="none" xmlns="http://www.w3.org/2000/svg">
<circle cx="20" cy="20" r="20" fill="#003CA6"/>
<path d="M3.96289 22.3863H5.42766V17.1368H3.96289V22.3863ZM28.8721 17.1352V22.3874H30.3341V18.2491H31.6402V22.3895H33.1031V18.2491H33.8118H33.8069C33.9879 18.2489 34.1617 18.3206 34.29 18.4484C34.4183 18.5761 34.4906 18.7496 34.4912 18.9306V22.3884H35.9587V18.7866L35.9629 18.8052C35.9616 18.3621 35.7844 17.9376 35.4701 17.6252C35.1559 17.3127 34.7305 17.1379 34.2873 17.1391V17.1352H28.8721ZM8.16312 17.1352L6.2019 18.9554L6.18706 18.9608C6.05465 19.0668 5.9477 19.2012 5.87407 19.354C5.80043 19.5068 5.76199 19.6742 5.76157 19.8438C5.76115 20.0135 5.79875 20.1811 5.87162 20.3343C5.9445 20.4874 6.05078 20.6223 6.18265 20.7291L8.20741 22.3884H10.4555L7.55374 19.9949L7.55166 19.9935C7.49168 19.9478 7.4422 19.8897 7.40652 19.8232C7.37085 19.7568 7.34981 19.6834 7.34483 19.6082C7.33984 19.5329 7.35102 19.4574 7.37762 19.3868C7.40421 19.3162 7.44561 19.2522 7.49902 19.1989L9.74151 17.1352H8.16312ZM13.1452 18.0546C13.3415 18.0433 13.538 18.074 13.7214 18.1448C13.9049 18.2155 14.0712 18.3246 14.2091 18.4647C14.347 18.6048 14.4535 18.7728 14.5213 18.9573C14.5891 19.1419 14.6167 19.3388 14.6024 19.5349H14.6061V20.032H14.6035C14.6179 20.2283 14.5903 20.4253 14.5224 20.61C14.4546 20.7947 14.348 20.9627 14.21 21.1029C14.0719 21.2431 13.9055 21.3522 13.7219 21.4229C13.5383 21.4936 13.3417 21.5242 13.1452 21.5128H12.9669C12.7706 21.5241 12.5741 21.4933 12.3906 21.4225C12.2072 21.3517 12.0409 21.2426 11.903 21.1025C11.765 20.9623 11.6586 20.7943 11.5908 20.6097C11.523 20.4251 11.4954 20.2282 11.5098 20.032H11.5068V19.5349H11.5098C11.4954 19.3388 11.5231 19.1419 11.5909 18.9573C11.6587 18.7728 11.7651 18.6048 11.9031 18.4647C12.041 18.3246 12.2072 18.2155 12.3907 18.1448C12.5742 18.074 12.7706 18.0433 12.9669 18.0546H13.1452ZM13.3175 17.0021H12.7898C12.7898 17.0021 9.94996 16.8377 9.93304 19.4811V20.0469C9.94788 22.3527 12.1127 22.5215 12.6634 22.528H12.7228C12.7661 22.528 12.7898 22.5259 12.7898 22.5259H13.3187C13.3187 22.5259 13.3419 22.5273 13.3857 22.528H13.4451C13.9955 22.5224 16.1606 22.3538 16.1754 20.0469V19.4811C16.1596 17.1294 13.9104 17 13.4142 17C13.3532 17 13.3184 17.0021 13.3184 17.0021M16.7393 19.4811V20.0469C16.7542 22.3527 18.919 22.5215 19.4699 22.528H19.5293C19.5726 22.528 19.5963 22.5259 19.5963 22.5259H21.7776V21.5128H19.7734C19.5771 21.524 19.3806 21.4933 19.1971 21.4225C19.0136 21.3517 18.8474 21.2426 18.7094 21.1025C18.5715 20.9623 18.465 20.7943 18.3972 20.6097C18.3294 20.4251 18.3017 20.2282 18.3161 20.032H18.3135V19.5349H18.3161C18.3017 19.3388 18.3294 19.1419 18.3972 18.9573C18.465 18.7728 18.5714 18.6048 18.7094 18.4647C18.8473 18.3246 19.0135 18.2155 19.197 18.1448C19.3805 18.074 19.5769 18.0433 19.7732 18.0546H21.5633V17.0021H19.5954C19.5954 17.0021 19.5606 17 19.4987 17C19.0036 17 16.7535 17.1294 16.7393 19.4811ZM25.2956 18.0546C25.4919 18.0433 25.6884 18.074 25.8718 18.1448C26.0553 18.2155 26.2216 18.3246 26.3595 18.4647C26.4975 18.6048 26.6039 18.7727 26.6718 18.9573C26.7396 19.1419 26.7673 19.3388 26.753 19.5349H26.7555V20.032H26.753C26.7673 20.2282 26.7397 20.4251 26.6719 20.6097C26.604 20.7943 26.4976 20.9623 26.3596 21.1025C26.2217 21.2426 26.0554 21.3517 25.8719 21.4225C25.6884 21.4933 25.4919 21.524 25.2956 21.5128H25.1173C24.921 21.524 24.7245 21.4932 24.5411 21.4224C24.3576 21.3516 24.1913 21.2425 24.0534 21.1024C23.9155 20.9622 23.8091 20.7942 23.7413 20.6096C23.6734 20.4251 23.6458 20.2281 23.6602 20.032H23.6576V19.5349H23.6602C23.6458 19.3388 23.6734 19.1419 23.7413 18.9573C23.8091 18.7728 23.9155 18.6048 24.0534 18.4647C24.1914 18.3246 24.3576 18.2155 24.5411 18.1448C24.7245 18.074 24.921 18.0433 25.1173 18.0546H25.2956ZM25.4681 17.0021H24.939C24.939 17.0021 22.0992 16.8377 22.082 19.4811V20.0469C22.0971 22.3527 24.2617 22.5215 24.8126 22.528H24.872C24.9153 22.528 24.939 22.5259 24.939 22.5259H25.4679C25.4679 22.5259 25.4911 22.5273 25.5344 22.528H25.5938C26.1443 22.5224 28.3093 22.3538 28.3242 20.0469V19.4811C28.31 17.1294 26.0594 17 25.5634 17C25.502 17 25.4677 17.0021 25.4677 17.0021" fill="white"/>
<circle cx="20" cy="20" r="19.5" stroke="black" stroke-opacity="0.05"/>
</svg>
