<svg width="40" height="40" viewBox="0 0 40 40" fill="none" xmlns="http://www.w3.org/2000/svg">
<circle cx="20" cy="20" r="20" fill="#F6F8FA"/>
<path d="M26.5071 17.5663C26.4229 17.747 26.4162 17.861 26.4872 17.9084C26.4437 17.8819 26.4153 17.9022 26.402 17.9694C26.209 18.9866 25.7009 19.8851 24.8776 20.6648C24.2673 20.9799 23.6456 21.0225 23.0125 20.7926C22.2564 20.5182 21.8661 19.9641 21.8415 19.1305C21.8302 18.7075 21.9806 18.3101 22.1041 17.9112C22.3809 17.0227 22.2404 16.0362 21.8798 15.1888C21.5553 14.4261 21.0656 13.8371 20.4108 13.4216C20.1496 13.2286 19.9428 13.1051 19.7905 13.0512C18.1146 12.4598 16.6654 12.7285 15.4429 13.8574C14.5174 14.7128 14.0883 15.8252 14.1555 17.1944C14.0627 17.2351 13.9492 17.254 13.8148 17.2512C13.6019 15.4145 14.0537 13.8252 15.1703 12.4834C17.616 9.54385 21.9423 9.16487 24.7172 11.9909C26.1858 13.4869 26.7824 15.3454 26.5071 17.5663Z" fill="#456BF7"/>
<path d="M20.4115 13.4215C20.2005 13.5597 19.963 13.6557 19.699 13.7097C19.3318 13.7854 19.0891 13.853 18.9708 13.9126C18.0492 14.3754 17.5235 15.1314 17.3939 16.1808C17.3778 16.3076 17.3873 16.5172 17.4223 16.8096C17.4488 17.033 17.4445 17.2444 17.4095 17.4441C16.4065 17.0173 15.322 16.9341 14.1562 17.1943C14.0891 15.825 14.5182 14.7127 15.4436 13.8573C16.6662 12.7284 18.1154 12.4597 19.7912 13.0511C19.9436 13.105 20.1504 13.2285 20.4115 13.4215Z" fill="#DBDCDC"/>
<path d="M20.4117 13.4216C21.0665 13.837 21.5562 14.4261 21.8808 15.1888C22.2413 16.0362 22.3818 17.0226 22.105 17.9112C21.9815 18.31 21.8311 18.7075 21.8424 19.1304C21.867 19.9641 22.2574 20.5181 23.0134 20.7926C23.6465 21.0225 24.2682 20.9799 24.8785 20.6648C25.9431 21.0452 26.6551 21.6324 27.0147 22.4263C27.2958 23.047 27.3535 23.6224 27.1879 24.1523C27.01 24.7219 26.9092 25.116 26.8855 25.3346C25.4605 26.0027 24.0917 25.9104 22.7792 25.0579C22.1476 24.6491 21.6522 24.0813 20.9525 23.7477C19.7531 23.1757 18.3748 23.9706 18.2897 25.3091C18.1288 25.31 17.9698 25.3715 17.8128 25.4936C17.5715 25.6819 17.4395 25.7822 17.4167 25.7945C16.0428 26.5653 14.3239 26.0599 13.5645 24.7073C13.5096 24.6088 13.4306 24.3959 13.3275 24.0685C13.2555 23.8386 13.1571 23.629 13.0322 23.4397C13.3918 22.6506 13.9317 22.0407 14.6518 21.6101C15.3813 21.173 16.2145 21.0637 17.0165 20.821C17.6751 20.6213 18.0905 20.2328 18.2627 19.6556C18.5324 18.7557 18.248 18.0186 17.4096 17.4442C17.4447 17.2445 17.4489 17.0331 17.4224 16.8097C17.3874 16.5173 17.3779 16.3077 17.394 16.1809C17.5237 15.1315 18.0493 14.3755 18.971 13.9127C19.0893 13.8531 19.332 13.7855 19.6991 13.7098C19.9631 13.6558 20.2007 13.5598 20.4117 13.4216Z" fill="#F6F8FA"/>
<path d="M17.4093 17.4441C18.2477 18.0184 18.5321 18.7556 18.2624 19.6555C18.0902 20.2327 17.6748 20.6211 17.0162 20.8208C16.2142 21.0635 15.381 21.1728 14.6514 21.61C13.9313 22.0405 13.3915 22.6504 13.0319 23.4396C12.5134 24.6234 12.5233 25.757 13.0617 26.8405C14.1745 29.0831 16.8969 29.9461 19.0416 28.4969C19.2763 28.3389 19.5148 28.1761 19.757 28.0086C19.7665 28.0531 19.7977 28.1023 19.8507 28.1562C18.6196 29.3173 17.1671 29.9106 15.4932 29.9362C14.5412 29.9504 13.6546 29.7644 12.8332 29.3784C10.7495 28.398 9.50093 26.7605 9.08741 24.4658C8.81488 22.957 9.19386 21.3275 10.0256 20.0203C10.9009 18.6444 12.1642 17.7213 13.8154 17.251C13.9498 17.2539 14.0633 17.2349 14.1561 17.1942C15.3219 16.934 16.4063 17.0173 17.4093 17.4441Z" fill="#5A5A5A"/>
<path d="M19.8504 28.1563C19.7974 28.1024 19.7662 28.0531 19.7567 28.0087C19.6224 27.8535 19.4709 27.6903 19.3025 27.519C18.7035 26.9077 18.3657 26.171 18.2891 25.309C18.3742 23.9705 19.7525 23.1756 20.9519 23.7476C21.6516 24.0812 22.147 24.649 22.7786 25.0577C24.0911 25.9103 25.4599 26.0026 26.8849 25.3345C28.5948 24.2927 29.3055 22.8823 29.0169 21.1033C28.8957 20.3576 28.628 19.7218 28.2135 19.1956C27.7687 18.6307 27.1934 18.2016 26.4875 17.9082C26.4165 17.8609 26.4232 17.7469 26.5074 17.5662C27.9722 18.0251 29.1035 18.8502 29.9012 20.0416C31.3475 22.1991 31.3731 24.9343 29.9338 27.1045C29.0784 28.3943 27.8629 29.2554 26.2874 29.6878C24.0859 30.2911 21.6204 29.5445 19.8575 28.1208C19.8566 28.1199 19.8556 28.1199 19.8547 28.1208C19.8537 28.1322 19.8523 28.144 19.8504 28.1563Z" fill="#EF5F00"/>
<path d="M26.4875 17.9085C27.1934 18.2018 27.7688 18.6309 28.2135 19.1959C28.628 19.722 28.8958 20.3579 29.0169 21.1035C29.3055 22.8825 28.5949 24.2929 26.885 25.3347C26.9086 25.1162 27.0094 24.722 27.1873 24.1524C27.3529 23.6225 27.2952 23.0471 27.0141 22.4264C26.6545 21.6325 25.9425 21.0453 24.8779 20.6649C25.7012 19.8852 26.2093 18.9867 26.4024 17.9695C26.4156 17.9023 26.444 17.882 26.4875 17.9085Z" fill="#DBDCDC"/>
<path d="M13.032 23.4397C13.1569 23.629 13.2553 23.8385 13.3272 24.0685C13.4304 24.3959 13.5094 24.6088 13.5643 24.7072C14.3236 26.0599 16.0425 26.5652 17.4165 25.7945C17.4392 25.7822 17.5712 25.6819 17.8125 25.4936C17.9696 25.3715 18.1286 25.31 18.2894 25.309C18.3661 26.1711 18.7039 26.9078 19.3029 27.519C19.4713 27.6903 19.6227 27.8536 19.7571 28.0087C19.5149 28.1762 19.2764 28.339 19.0417 28.497C16.897 29.9462 14.1746 29.0832 13.0618 26.8406C12.5234 25.7571 12.5134 24.6235 13.032 23.4397Z" fill="#DBDCDC"/>
<circle cx="20" cy="20" r="19.5" stroke="black" stroke-opacity="0.05"/>
</svg>
