<svg width="40" height="40" viewBox="0 0 40 40" fill="none" xmlns="http://www.w3.org/2000/svg">
<circle cx="20" cy="20" r="20" fill="#F6F8FA"/>
<g clip-path="url(#clip0_18553_55953)">
<path d="M19.8413 12H15.3354C15.316 12 15.3003 12.016 15.3003 12.0358V16.6168C15.3003 16.6366 15.316 16.6526 15.3354 16.6526H19.8413C19.8607 16.6526 19.8764 16.6366 19.8764 16.6168V12.0358C19.8764 12.016 19.8607 12 19.8413 12Z" fill="#D22030"/>
<path d="M25.8491 12H21.3345C21.315 12 21.2993 12.016 21.2993 12.0358V16.6168C21.2993 16.6366 21.315 16.6526 21.3345 16.6526H25.8491C25.8685 16.6526 25.8842 16.6366 25.8842 16.6168V12.0358C25.8842 12.016 25.8685 12 25.8491 12Z" fill="#D22030"/>
<path d="M19.8325 18.1021H15.3442C15.32 18.1021 15.3003 18.1221 15.3003 18.1468V22.7189C15.3003 22.7436 15.32 22.7636 15.3442 22.7636H19.8325C19.8568 22.7636 19.8764 22.7436 19.8764 22.7189V18.1468C19.8764 18.1221 19.8568 18.1021 19.8325 18.1021Z" fill="#D22030"/>
<path d="M25.8403 18.1021H21.3432C21.319 18.1021 21.2993 18.1221 21.2993 18.1468V22.7189C21.2993 22.7436 21.319 22.7636 21.3432 22.7636H25.8403C25.8646 22.7636 25.8842 22.7436 25.8842 22.7189V18.1468C25.8842 18.1221 25.8646 18.1021 25.8403 18.1021Z" fill="#D22030"/>
<path d="M33.1919 25.9489C32.823 25.7699 32.1906 25.6625 31.8392 25.931C31.5143 26.1725 31.7075 26.5125 32.05 26.5483C32.3926 26.5841 32.7176 26.6289 33.025 26.6825C33.7979 26.8168 34.1229 27.2641 34.0087 28.0246C33.956 28.4004 33.7364 28.6689 33.35 28.8299C32.5419 29.1699 31.6636 28.9641 30.9258 28.4899C30.9082 28.481 30.9082 28.4631 30.9082 28.4452L31.1278 27.8815C31.1278 27.8815 31.1629 27.8457 31.1805 27.8546C31.6987 28.1857 32.6385 28.6241 33.1919 28.0962C33.3939 27.8994 33.3588 27.5773 33.0513 27.5146C32.7703 27.461 32.4716 27.4252 32.1554 27.3894C31.8129 27.3625 31.5494 27.2731 31.3562 27.1299C30.8643 26.772 30.8643 25.9489 31.2683 25.5104C31.6899 25.0541 32.4892 25.0273 33.025 25.1883C33.3061 25.2689 33.6223 25.4031 33.9736 25.582C33.9824 25.582 33.9912 25.5999 33.9824 25.6089L33.7277 26.1725C33.7277 26.1725 33.7101 26.1904 33.7013 26.1815C33.5169 26.092 33.3412 26.0025 33.1743 25.922L33.1919 25.9489Z" fill="#38383A"/>
<path d="M7.80809 28.302H10.0039C10.0039 28.302 10.0391 28.3199 10.0391 28.3378V28.9015C10.0391 28.9015 10.0215 28.9373 10.0039 28.9373H7.07029C7.07029 28.9373 7.03516 28.9104 7.03516 28.8925V25.2331C7.03516 25.2331 7.05272 25.1973 7.07029 25.1973H7.72904C7.72904 25.1973 7.76417 25.2152 7.76417 25.242V28.2662C7.76417 28.2662 7.78174 28.302 7.79931 28.302H7.80809Z" fill="#38383A"/>
<path d="M11.4795 26.6827H13.5875C13.5875 26.6827 13.6402 26.7006 13.6402 26.7274V27.2464C13.6402 27.2464 13.6226 27.3001 13.5963 27.3001H11.4795C11.4795 27.3001 11.4268 27.318 11.4268 27.3448V28.2306C11.4268 28.2306 11.4531 28.2843 11.4882 28.2843H13.7368C13.7368 28.2843 13.7895 28.3022 13.7895 28.338V28.8837C13.7895 28.8837 13.7719 28.9374 13.7456 28.9374H10.7417C10.7417 28.9374 10.689 28.9106 10.689 28.8748V25.2422C10.689 25.2422 10.7153 25.1885 10.7417 25.1885H13.6929C13.6929 25.1885 13.7456 25.2153 13.7456 25.2422V25.7701C13.7456 25.7701 13.7192 25.8237 13.6929 25.8237H11.4882C11.4882 25.8237 11.4355 25.8416 11.4355 25.8685V26.6201C11.4355 26.6201 11.4619 26.6737 11.4882 26.6737L11.4795 26.6827Z" fill="#38383A"/>
<path d="M16.8284 27.9802H15.3879C15.3879 27.9802 15.3616 27.9802 15.3616 27.9981L14.9839 28.9197C14.9839 28.9197 14.9663 28.9376 14.9576 28.9376H14.3076C14.3076 28.9376 14.2725 28.9286 14.2725 28.9108C14.2725 28.9108 14.2725 28.9108 14.2725 28.9018L15.8271 25.2244C15.8271 25.2244 15.8447 25.2065 15.8535 25.2065H16.4156C16.4156 25.2065 16.4419 25.2065 16.4419 25.2244L18.0493 28.8929C18.0493 28.8929 18.0493 28.9286 18.0317 28.9376C18.0317 28.9376 18.0317 28.9376 18.0229 28.9376H17.2764C17.2764 28.9376 17.25 28.9376 17.25 28.9197L16.8548 27.9981C16.8548 27.9981 16.8372 27.9802 16.8284 27.9802ZM15.6075 27.4165C15.6075 27.4165 15.6075 27.4434 15.6251 27.4523C15.6251 27.4523 15.6251 27.4523 15.6339 27.4523H16.5913C16.5913 27.4523 16.6176 27.4434 16.6176 27.4255C16.6176 27.4255 16.6176 27.4255 16.6176 27.4165L16.1433 26.2265C16.1433 26.2265 16.1257 26.2086 16.1082 26.2086C16.1082 26.2086 16.0994 26.2086 16.0906 26.2265L15.6075 27.4165Z" fill="#38383A"/>
<path d="M18.7607 25.2422C18.7607 25.2422 18.7871 25.1886 18.8134 25.1886H20.6492C21.5275 25.1796 22.2389 25.9043 22.2477 26.7991V27.2912C22.2477 28.1859 21.5451 28.9196 20.6667 28.9196H18.831C18.831 28.9196 18.7783 28.9017 18.7783 28.8749V25.2333L18.7607 25.2422ZM19.4985 25.8686V28.2575C19.4985 28.2575 19.5249 28.3022 19.5512 28.3022H20.5262C21.0708 28.3022 21.5011 27.828 21.5011 27.2465V26.8617C21.5011 26.2801 21.062 25.8149 20.5174 25.8149H19.5425C19.5425 25.8149 19.4985 25.8417 19.4985 25.8596V25.8686Z" fill="#38383A"/>
<path d="M23.8379 28.3023H26.1216C26.1216 28.3023 26.1655 28.3202 26.1655 28.3471V28.8929C26.1655 28.8929 26.1479 28.9376 26.1216 28.9376H23.1176C23.1176 28.9376 23.0737 28.9108 23.0737 28.8929V25.2513C23.0737 25.2513 23.0913 25.2065 23.1176 25.2065H26.0601C26.0601 25.2065 26.104 25.2244 26.104 25.2513V25.7881C26.104 25.7881 26.0776 25.8329 26.0513 25.8329H23.8291C23.8291 25.8329 23.7852 25.8508 23.7852 25.8776V26.6471C23.7852 26.6471 23.8115 26.6918 23.8379 26.6918H25.9722C25.9722 26.6918 26.0162 26.7097 26.0162 26.7365V27.2555C26.0162 27.2555 25.9986 27.3002 25.9722 27.3002H23.8379C23.8379 27.3002 23.794 27.3181 23.794 27.345V28.2486C23.794 28.2486 23.8115 28.2934 23.8379 28.2934V28.3023Z" fill="#38383A"/>
<path d="M29.3973 27.4523L30.302 28.8839C30.302 28.8839 30.302 28.9197 30.2932 28.9286C30.2932 28.9286 30.2845 28.9286 30.2757 28.9286H29.5467C29.5467 28.9286 29.4764 28.9107 29.45 28.8839L28.5893 27.4523C28.5893 27.4523 28.5454 27.4076 28.5102 27.4076H27.7461C27.7461 27.4076 27.6846 27.4255 27.6846 27.4702V28.875C27.6846 28.875 27.6758 28.9197 27.6407 28.9197H27.0083C27.0083 28.9197 26.9556 28.9018 26.9556 28.866V25.2244C26.9556 25.2244 26.9731 25.1797 26.9995 25.1797C27.6846 25.1797 28.3433 25.1797 28.9845 25.1797C29.898 25.1797 30.302 25.6181 30.223 26.5039C30.1791 26.9602 29.9156 27.2376 29.4237 27.345C29.3622 27.3539 29.3534 27.3897 29.3886 27.4344L29.3973 27.4523ZM27.6934 25.8686V26.7365C27.6934 26.7365 27.7109 26.7813 27.7285 26.7813H29.046C29.2919 26.7813 29.494 26.6113 29.494 26.3876V26.2265C29.494 26.0028 29.2919 25.8239 29.046 25.8239H27.7285C27.7285 25.8239 27.6846 25.8418 27.6846 25.8597L27.6934 25.8686Z" fill="#38383A"/>
</g>
<circle cx="20" cy="20" r="19.5" stroke="black" stroke-opacity="0.05"/>
<defs>
<clipPath id="clip0_18553_55953">
<rect width="27" height="17" fill="white" transform="translate(7.03516 12)"/>
</clipPath>
</defs>
</svg>
