<svg width="40" height="40" viewBox="0 0 40 40" fill="none" xmlns="http://www.w3.org/2000/svg">
<circle cx="20" cy="20" r="20" fill="#E60012"/>
<circle cx="20" cy="20" r="19.5" stroke="black" stroke-opacity="0.05"/>
<path d="M30.2208 23.1462C28.631 23.1462 27.3437 21.7369 27.3437 19.9978C27.3437 18.2594 28.631 16.8494 30.2208 16.8494C31.1429 16.8494 32.0532 17.2701 32.5958 17.9993L34.9988 15.9622C33.834 14.6823 32.1254 13.874 30.2208 13.874C27.1651 13.874 24.6134 15.9516 24.0036 18.7204H20.5111V21.391H22.9247V22.4301C22.3448 22.9409 21.4507 23.1469 20.6711 23.1469C19.0825 23.1469 17.7946 21.7376 17.7946 19.9985C17.7946 18.26 19.0676 16.8961 20.7258 16.8501C21.6971 16.8233 22.5937 17.0199 23.3304 17.4424C23.6944 16.5166 24.2463 15.6803 24.9575 14.9878C23.7236 14.2592 22.1525 13.874 20.6717 13.874C17.4212 13.874 14.7432 16.2241 14.3637 19.2574C13.6033 18.9382 12.6563 18.7124 11.5569 18.5307C9.7394 18.2133 9.26776 17.99 9.26776 17.4493V17.415C9.26776 16.9926 9.72135 16.6852 10.6005 16.6597C11.6104 16.6279 12.7329 16.8669 13.7981 17.4063C14.1584 16.524 14.719 15.689 15.4183 14.994C14.1266 14.2455 12.6153 13.8286 10.6939 13.8877C7.54734 13.9842 5.49404 15.5067 5.49404 17.8668C5.49404 20.2262 7.77258 20.9449 10.5632 21.4364C12.3434 21.7544 12.7018 22.0045 12.7018 22.5016C12.7018 22.9204 12.2158 23.1525 11.2812 23.2246C9.77175 23.3422 8.14778 22.967 7.02406 22.1022L5 24.3459C6.61215 25.599 8.82225 26.1914 11.1456 26.1204C13.3028 26.0545 14.8048 25.2574 15.9005 24.041C17.0653 25.3159 18.7708 26.1229 20.6729 26.1229C22.5756 26.1229 24.2824 25.3159 25.4472 24.0385C26.6119 25.3153 28.3187 26.1229 30.2226 26.1229C32.1266 26.1229 33.8352 25.3147 35 24.0354L32.5995 22.0076C32.0059 22.6846 31.1404 23.1462 30.2208 23.1462Z" fill="white"/>
</svg>
