<svg width="40" height="40" viewBox="0 0 40 40" fill="none" xmlns="http://www.w3.org/2000/svg">
<circle cx="20" cy="20" r="20" fill="#F6F8FA"/>
<path d="M32 20.0028C32 26.5137 26.6274 31.7951 20 31.7951C13.3726 31.7951 8 26.5178 8 20.0028C8 13.4918 13.3726 8.21045 20 8.21045C26.6274 8.21045 32 13.4877 32 20.0028ZM24.4357 15.7899C24.8134 15.0248 25.1265 14.2295 25.3719 13.4123C25.4633 13.1072 25.5293 12.7949 25.5693 12.4789C25.5712 12.4634 25.5689 12.4476 25.5625 12.4333C25.5561 12.4191 25.5458 12.4068 25.5329 12.398C23.7215 11.1219 21.4399 10.4578 19.2118 10.712C19.2037 10.7131 19.1963 10.7172 19.1912 10.7236C19.1861 10.73 19.1836 10.7381 19.1844 10.7463C19.1841 10.7493 19.1841 10.7522 19.1844 10.7552C19.8624 12.3563 20.2566 14.0632 20.3495 15.7995C20.3859 16.4211 20.3612 17.055 20.5449 17.6684C20.7016 18.193 21.0269 18.4952 21.5208 18.5752C22.1274 18.6746 22.6009 18.4641 23.0142 18.0063C23.5981 17.3621 24.0375 16.5986 24.4357 15.7899ZM14.8536 12.1376C12.6166 13.5878 11.0656 15.8762 10.6441 18.5114C10.64 18.5395 10.6523 18.5539 10.6804 18.5539C11.6783 18.5539 12.7649 18.5553 13.94 18.558C14.7912 18.5628 15.5451 18.4724 16.2305 18.164C16.8377 17.8898 17.2161 17.4836 17.3655 16.9454C17.4423 16.6189 17.4654 16.2821 17.434 15.9482C17.3655 14.8516 17.2284 13.7715 16.8665 12.7715C16.724 12.3768 16.4608 11.8216 16.0544 11.6366C16.0129 11.6149 15.9672 11.6027 15.9204 11.6011C15.8737 11.5994 15.8272 11.6083 15.7843 11.627C15.4618 11.7738 15.1507 11.9445 14.8536 12.1376ZM27.8693 14.9085C27.4471 16.1759 26.8717 17.387 26.1559 18.5149C26.1367 18.5457 26.145 18.5608 26.1813 18.5608H29.3209C29.349 18.5608 29.3607 18.5471 29.3559 18.519C29.1329 17.2239 28.6351 15.9916 27.8961 14.9051C27.894 14.9021 27.8908 14.9 27.8873 14.8992C27.8837 14.8985 27.88 14.8991 27.8769 14.901C27.875 14.9014 27.8734 14.9023 27.872 14.9037C27.8707 14.905 27.8698 14.9067 27.8693 14.9085ZM16.6417 22.4091C15.783 23.5817 15.0846 25.082 14.6446 26.5336C14.545 26.8613 14.4714 27.1963 14.4246 27.5356C14.4231 27.5488 14.4253 27.5622 14.4309 27.5742C14.4364 27.5863 14.4451 27.5966 14.4561 27.6041C16.1325 28.7674 17.9706 29.3486 19.9705 29.3477C20.2409 29.3447 20.5109 29.3269 20.7793 29.2942C20.8074 29.2908 20.8163 29.2764 20.8053 29.2504C20.0592 27.4625 19.658 25.5496 19.623 23.6126C19.6114 22.7353 19.5038 21.525 18.375 21.4139C17.5663 21.3365 17.0838 21.8094 16.6417 22.4091ZM22.6962 22.8758C22.6106 23.0825 22.5641 23.3033 22.5591 23.5269C22.555 24.5078 22.6668 25.4857 22.8922 26.4404C23.0046 26.9297 23.5344 28.7507 24.3383 28.3334C27.016 26.9407 28.8754 24.4535 29.36 21.4749C29.3614 21.4662 29.3593 21.4573 29.3541 21.4501C29.349 21.4429 29.3413 21.4381 29.3326 21.4366H29.3271H25.999C24.877 21.4379 23.1746 21.6853 22.699 22.8758H22.6962ZM12.1416 25.0745C12.5619 23.8125 13.1341 22.6063 13.8455 21.4825C13.848 21.4782 13.8488 21.4731 13.8477 21.4682C13.8465 21.4633 13.8435 21.4591 13.8393 21.4564C13.8359 21.4557 13.8324 21.4557 13.829 21.4564H10.6791C10.6517 21.4564 10.64 21.4695 10.6448 21.4962C10.8674 22.781 11.3598 24.0041 12.0896 25.0847C12.1135 25.1163 12.1314 25.1135 12.1444 25.0745H12.1416Z" fill="#003A79"/>
<path d="M24.4359 15.7898C24.0377 16.5985 23.5984 17.362 23.0152 18.0063C22.604 18.4641 22.1283 18.6745 21.5218 18.5751C21.0283 18.4952 20.703 18.1929 20.5458 17.6684C20.3621 17.055 20.3868 16.421 20.3505 15.7994C20.2576 14.0631 19.8633 12.3563 19.1854 10.7551C19.1837 10.7515 19.1828 10.7475 19.1826 10.7434C19.1825 10.7394 19.1832 10.7353 19.1847 10.7316C19.1861 10.7278 19.1884 10.7244 19.1912 10.7215C19.194 10.7186 19.1974 10.7163 19.2011 10.7147H19.2101C21.4382 10.4604 23.7197 11.1259 25.5311 12.4007C25.5441 12.4095 25.5543 12.4217 25.5607 12.436C25.5671 12.4503 25.5694 12.466 25.5675 12.4816C25.5275 12.7976 25.4615 13.1098 25.3701 13.415C25.1253 14.2312 24.8128 15.0256 24.4359 15.7898Z" fill="#7CC343"/>
<path d="M14.6472 26.5336C15.0872 25.0793 15.7856 23.5818 16.6443 22.4091C17.0837 21.8094 17.5661 21.3365 18.3749 21.4167C19.5037 21.5278 19.6085 22.7381 19.6229 23.6154C19.6588 25.5526 20.0608 27.4655 20.8079 29.2532C20.8189 29.2792 20.8079 29.2936 20.7819 29.297C20.5135 29.3296 20.2435 29.3475 19.9731 29.3505C17.9733 29.3505 16.1351 28.7693 14.4587 27.6069C14.4478 27.5994 14.439 27.5891 14.4335 27.577C14.4279 27.5649 14.4257 27.5516 14.4272 27.5384C14.4739 27.1982 14.5475 26.8622 14.6472 26.5336Z" fill="#009DDC"/>
<circle cx="20" cy="20" r="19.5" stroke="black" stroke-opacity="0.05"/>
</svg>
