<svg width="40" height="40" viewBox="0 0 40 40" fill="none" xmlns="http://www.w3.org/2000/svg">
<circle cx="20" cy="20" r="20" fill="#1E1E23"/>
<g clip-path="url(#clip0_18553_55669)">
<path d="M7.48105 21.837H10.224C10.3351 21.837 10.4283 21.7474 10.4283 21.6326V18.4594C10.4283 18.3053 10.353 18.23 10.1989 18.23H5.98947C5.92493 18.23 5.86039 18.1977 5.82454 18.1475L5.02138 17.0826C4.98194 17.0288 4.99629 17.0001 5.06082 17.0001C6.72809 17.0217 8.35591 17.0181 9.93712 17.0001C10.4068 16.993 10.769 17.0468 11.0199 17.1615C11.5183 17.391 11.7693 17.8248 11.7765 18.463C11.7837 19.6391 11.7837 20.7183 11.7729 21.7008C11.7729 21.9051 11.7263 22.1884 11.608 22.3569C11.2423 22.8768 10.8048 23.0382 10.1881 23.0382C8.7539 23.031 7.39858 23.0274 6.11497 23.0346C6.08628 23.0346 6.06118 23.0095 6.06118 22.9808V19.3738C6.06118 19.3307 6.09704 19.2985 6.13648 19.2985H7.35555C7.38782 19.2985 7.40575 19.3164 7.40575 19.3487V21.7617C7.40575 21.8119 7.43085 21.837 7.48105 21.837Z" fill="white"/>
<path d="M16.3839 18.538C16.3803 18.5702 16.3839 18.6025 16.4018 18.6348C16.4161 18.6635 16.4233 18.6922 16.4233 18.7208V22.9302C16.4233 22.9804 16.3982 23.0055 16.348 23.0055H15.3082C15.2652 23.0055 15.2329 22.9697 15.2329 22.9302V17.0858C15.2329 17.0536 15.2508 17.0356 15.2831 17.0356H16.9862C17.0472 17.0356 17.0866 17.0643 17.1045 17.1253L18.5065 21.9084C18.528 21.9837 18.5531 21.9837 18.5746 21.9084L19.9801 17.093C19.9909 17.0572 20.016 17.0356 20.0554 17.0356H21.8087C21.8087 17.0356 21.8338 17.0428 21.8338 17.0607V22.9553C21.8338 22.984 21.8123 23.0055 21.7836 23.0055H20.6901C20.6614 23.0055 20.6363 22.984 20.6363 22.9553L20.6721 18.685C20.6721 18.5093 20.6506 18.5057 20.6004 18.6742L19.3276 22.9517C19.3168 22.9912 19.2881 23.0127 19.2451 23.0127H17.8396C17.793 23.0127 17.7607 22.9912 17.7464 22.9446C17.3663 21.6717 16.9755 20.3702 16.5739 19.0399C16.5237 18.8678 16.495 18.7065 16.4161 18.5344C16.3982 18.4914 16.3839 18.4949 16.3803 18.5416L16.3839 18.538Z" fill="white"/>
<path d="M28.3885 22.0484C28.3885 22.579 27.9582 23.0093 27.4239 23.0093L23.7846 23.0021C23.254 23.0021 22.8237 22.5718 22.8237 22.0376L22.8309 17.9931C22.8309 17.4625 23.2612 17.0322 23.7954 17.0322L27.4347 17.0394C27.9654 17.0394 28.3956 17.4732 28.3956 18.0039L28.3885 22.0484ZM27.1981 18.0684C27.1981 18.0469 27.1801 18.029 27.1586 18.029H24.0643C24.0428 18.029 24.0249 18.0469 24.0249 18.0684V21.9731C24.0249 21.9946 24.0428 22.0125 24.0643 22.0125H27.1586C27.1801 22.0125 27.1981 21.9946 27.1981 21.9731V18.0684Z" fill="white"/>
<path d="M31.9055 18.4591L30.0912 22.984C30.0912 22.984 30.0733 23.0055 30.0589 23.0055H28.865C28.847 23.0091 28.8291 22.9948 28.8291 22.9768C28.8291 22.9733 28.8291 22.9697 28.8291 22.9625L31.2744 17.0572C31.2744 17.0572 31.2924 17.0356 31.3067 17.0356H32.5222C32.5222 17.0356 32.5509 17.0464 32.5545 17.0572L34.9998 22.9625C34.9998 22.9625 34.9998 23.0019 34.9818 23.0091C34.9783 23.0091 34.9747 23.0091 34.9675 23.0091L33.7556 22.9984C33.7556 22.9984 33.7269 22.9912 33.7233 22.9768L33.354 22.059C33.354 22.059 33.3361 22.0374 33.3218 22.0374H31.5326C31.5147 22.0374 31.4967 22.0231 31.4967 22.0052C31.4967 22.0016 31.4967 21.998 31.4967 21.9908L31.866 21.0693C31.866 21.0693 31.884 21.0478 31.8983 21.0478H32.9058C32.9238 21.0478 32.9417 21.0299 32.9381 21.012C32.9381 21.0084 32.9381 21.0048 32.9381 21.0012L31.9664 18.4555C31.9664 18.4555 31.9377 18.4304 31.9198 18.4376C31.9126 18.4376 31.9055 18.4483 31.9019 18.4555L31.9055 18.4591Z" fill="white"/>
<path d="M14.1177 18.8426C14.1299 18.5379 13.8768 18.2804 13.5523 18.2673C13.2278 18.2543 12.9548 18.4907 12.9426 18.7954C12.9303 19.1002 13.1835 19.3577 13.508 19.3708C13.8325 19.3838 14.1054 19.1473 14.1177 18.8426Z" fill="white"/>
<path d="M13.5984 21.7755C13.9209 21.737 14.1531 21.4604 14.1169 21.1576C14.0808 20.8548 13.7901 20.6405 13.4677 20.6789C13.1452 20.7174 12.9131 20.994 12.9492 21.2968C12.9853 21.5996 13.276 21.8139 13.5984 21.7755Z" fill="white"/>
</g>
<circle cx="20" cy="20" r="19.5" stroke="black" stroke-opacity="0.05"/>
<defs>
<clipPath id="clip0_18553_55669">
<rect width="30" height="6.03801" fill="white" transform="translate(5 17)"/>
</clipPath>
</defs>
</svg>
