<svg width="40" height="40" viewBox="0 0 40 40" fill="none" xmlns="http://www.w3.org/2000/svg">
<circle cx="20" cy="20" r="20" fill="#D2A740"/>
<path d="M32.9209 26.2846C32.7636 26.1989 32.5861 26.1678 32.3899 26.1927C31.2906 26.336 30.2177 26.3437 29.1698 26.2161C26.5944 25.9015 24.2339 25.1931 22.0275 23.8789C21.8889 23.7963 21.8998 23.7481 22.0602 23.7341C24.8582 23.4834 32.5254 22.3436 32.5363 18.6471C32.5487 14.9132 25.8283 13.7344 23.1128 13.4651C22.0321 13.3576 21.1633 13.2844 20.5077 13.2471H18.3122C16.3768 13.3545 14.474 13.6395 12.6071 14.1019C11.2944 14.4273 10.0939 14.9412 9.00709 15.6403C7.9545 16.3176 7.28495 17.2566 7 18.4571V18.9554C7.39394 20.5483 9.1083 21.5526 10.519 22.1303C12.3143 22.8636 14.2825 23.4117 16.4235 23.773C16.5559 23.7948 16.6757 23.8617 16.7661 23.9614C17.8389 25.1588 19.5252 25.7629 21.1072 26.1304C22.3809 26.4263 23.4273 26.6209 24.2448 26.7143C24.7695 26.7735 25.8081 26.8514 27.3605 26.9494H29.5575C30.1165 26.9121 30.674 26.8794 31.2314 26.8514C31.8122 26.8218 32.365 26.7268 32.8913 26.5664C32.9286 26.5539 32.9613 26.529 32.98 26.4948C33.0221 26.42 32.9956 26.3266 32.9209 26.2846ZM28.3088 20.8301C28.3088 20.8301 28.3041 20.8176 28.2994 20.813C28.3041 20.8176 28.3056 20.8239 28.3088 20.8301ZM28.2807 20.8067C28.2807 20.8067 28.2667 20.8005 28.2589 20.8005C28.2605 20.8005 28.262 20.8005 28.2636 20.8005C28.2698 20.8005 28.2745 20.8052 28.2792 20.8067H28.2807ZM31.0959 20.813C31.0959 20.813 31.0897 20.8021 31.085 20.7974C31.0897 20.8021 31.0928 20.8067 31.0959 20.813ZM31.0695 20.7896C31.0617 20.7865 31.0539 20.7834 31.0461 20.7849C31.0508 20.7849 31.0539 20.7849 31.0586 20.7849C31.0632 20.7849 31.0664 20.7896 31.071 20.7912L31.0695 20.7896ZM20.0141 23.1844C16.3005 23.1844 13.2891 21.1337 13.2891 18.6035C13.2891 16.0732 16.3005 14.0225 20.0141 14.0225C23.7278 14.0225 26.7392 16.0732 26.7392 18.6035C26.7392 21.1337 23.7278 23.1844 20.0141 23.1844Z" fill="white"/>
<circle cx="20" cy="20" r="19.5" stroke="black" stroke-opacity="0.05"/>
</svg>
