<svg width="40" height="40" viewBox="0 0 40 40" fill="none" xmlns="http://www.w3.org/2000/svg">
<circle cx="20" cy="20" r="20" fill="#F6F8FA"/>
<g clip-path="url(#clip0_14382_20827)">
<path d="M20.7309 12.0269L11.8434 27.0401C13.7528 27.7828 15.8609 27.8396 17.8075 27.2007C19.7542 26.5618 21.4186 25.2669 22.5166 23.5371C23.6642 21.7279 24.1157 19.5635 23.7873 17.4464C23.4588 15.3292 22.3727 13.4033 20.7309 12.0269Z" fill="#FCC427"/>
<path d="M25.613 12.022C25.5531 11.9723 25.4835 11.9356 25.4086 11.9142C25.3337 11.8928 25.2552 11.8872 25.178 11.8978C25.1009 11.9084 25.0268 11.935 24.9604 11.9758C24.8941 12.0165 24.837 12.0707 24.7927 12.1348C24.7491 12.1994 24.7194 12.2724 24.7054 12.3491C24.6914 12.4258 24.6935 12.5046 24.7116 12.5804C24.7296 12.6563 24.7632 12.7275 24.8102 12.7898C24.8572 12.852 24.9166 12.9038 24.9846 12.9418C25.052 12.9811 25.1271 13.0056 25.2048 13.0134C25.2825 13.0213 25.3609 13.0124 25.4349 12.9874C25.5089 12.9624 25.5766 12.9219 25.6336 12.8685C25.6906 12.8151 25.7355 12.7502 25.7653 12.678C25.8203 12.5688 25.8314 12.4427 25.7965 12.3255C25.7735 12.2057 25.7084 12.098 25.613 12.022Z" fill="#3B3F37"/>
<path d="M29.7037 12.6528C29.1148 12.2751 28.6375 11.8134 28.4037 11.1202C28.2492 10.6937 27.9946 10.3104 27.6614 10.0025C25.7894 8.18087 23.1402 9.11149 22.3679 10.6609L12.9671 26.4788C12.6469 27.0149 12.6469 27.0161 11.9873 26.8494V26.8434H11.9154C11.228 26.7156 10.5476 26.5531 9.87669 26.3565C9.21471 26.1598 9.2255 26.1598 9.01683 26.8362C8.95807 27.0269 9.01683 27.0892 9.17513 27.1348C9.60926 27.2547 10.0386 27.3951 10.4751 27.5066C11.0004 27.6409 11.5316 27.7524 12.0509 27.8723C12.0567 27.9906 12.0168 28.1066 11.9394 28.1961C11.5796 28.7958 11.2198 29.3954 10.8685 30.0022C10.5171 30.609 10.4511 30.4363 11.0975 30.8357C11.3745 31.006 11.3841 31.0012 11.5532 30.7157C12.0005 29.9686 12.4431 29.2179 12.8868 28.4696C13.1398 28.0438 13.1386 28.0546 13.6063 28.123C14.2059 28.2093 14.8056 28.3041 15.4124 28.3496C16.5318 28.4321 17.6573 28.3329 18.745 28.0558C19.0952 27.9683 19.1048 27.9779 19.1048 28.3424C19.1048 28.7946 19.1048 29.2455 19.1048 29.6976C19.1048 30.0298 19.0976 30.0358 18.7798 30.0394C18.3001 30.0394 17.8204 30.0394 17.3323 30.0394C16.7327 30.0394 16.7963 29.9638 16.7939 30.5946C16.7939 30.994 16.7939 30.9988 17.2016 30.9988H21.5453C22.296 30.9988 22.2888 30.9987 22.2384 30.2696C22.2252 30.0837 22.1569 30.0298 21.9842 30.0298C21.4709 30.037 20.9564 30.0298 20.4432 30.0298C20.0594 30.0298 20.0558 30.0298 20.0546 29.658C20.0546 29.1136 20.075 28.5667 20.045 28.0234C20.027 27.7056 20.1446 27.5701 20.4288 27.443C22.47 26.5476 24.1709 25.022 25.2821 23.0898C26.5893 20.8508 26.9802 18.4379 26.5569 15.8944C26.5161 15.6545 26.5569 15.555 26.7799 15.4399C27.6889 14.9829 28.2682 14.225 28.5524 13.262C28.6375 12.9742 28.7575 12.9023 29.0249 12.9023C29.2923 12.9023 29.5945 12.8555 29.9663 12.8219C29.8308 12.7332 29.766 12.6936 29.7037 12.6528ZM17.2544 21.147C17.902 20.0485 18.5568 18.9536 19.2091 17.8575L21.1591 14.58C21.3858 14.2814 21.399 14.2766 21.5345 14.5224C22.1415 15.5822 22.4328 16.7935 22.3739 18.0134C22.2912 19.8123 21.6064 21.3713 20.2933 22.6149C19.1212 23.7587 17.5582 24.4142 15.9208 24.4485C15.7287 24.472 15.5337 24.4507 15.3512 24.3862C15.9508 23.2769 16.6212 22.2215 17.2544 21.147ZM26.0916 14.7071C25.408 14.9122 25.4164 14.947 25.5579 15.6761C26.1911 18.9284 25.438 21.8138 23.2314 24.2914C22.2372 25.4075 20.9811 26.2589 19.5761 26.769L18.1874 27.1792C16.9162 27.5102 15.669 27.467 14.411 27.2751C14.2119 27.2451 14.0141 27.2092 13.8114 27.1744C13.7982 27.1744 13.7862 27.1588 13.7682 27.1468C13.6975 27.0269 13.8006 26.9465 13.8498 26.8614C14.0896 26.4441 14.3462 26.0351 14.5849 25.6166C14.6193 25.5317 14.6821 25.4614 14.7626 25.4177C14.8431 25.3739 14.9363 25.3595 15.0262 25.3767C18.8086 25.7641 22.4687 23.1234 23.2062 19.1527C23.494 17.6288 23.303 16.0533 22.6594 14.6424L22.2996 13.8593C21.8343 13.3496 21.887 13.3412 22.2036 12.8099C22.537 12.2487 22.9028 11.7042 23.1978 11.1238C23.5744 10.3803 24.6369 9.85141 25.5291 9.97733C26.0183 10.038 26.4785 10.2424 26.8515 10.5648C27.2245 10.8871 27.4934 11.3129 27.6242 11.7882C27.9852 13.0917 27.1517 14.3893 26.0916 14.7071Z" fill="#3B3F37"/>
</g>
<circle cx="20" cy="20" r="19.5" stroke="black" stroke-opacity="0.05"/>
<defs>
<clipPath id="clip0_14382_20827">
<rect width="20.9759" height="22" fill="white" transform="translate(9 9)"/>
</clipPath>
</defs>
</svg>
