<svg width="40" height="40" viewBox="0 0 40 40" fill="none" xmlns="http://www.w3.org/2000/svg">
<circle cx="20" cy="20" r="20" fill="#F6F8FA"/>
<g clip-path="url(#clip0_16523_11319)">
<path d="M33.9578 18.0471L33.9094 18.0437C33.8994 18.0421 33.8527 18.0239 33.8527 18.0239L33.8393 18.0124C33.7843 17.9876 33.826 17.943 33.826 17.943L33.886 17.8851C33.9044 17.8604 33.9361 17.8455 33.9361 17.8455C33.9528 17.8372 33.9661 17.829 33.9861 17.819C34.0162 17.8025 34.0495 17.7893 34.0862 17.7711C34.1246 17.7546 34.0979 17.7678 34.1396 17.748C34.1463 17.7447 34.1513 17.743 34.1563 17.7397C34.153 17.7348 34.1513 17.7282 34.148 17.7216C34.0712 17.5745 33.9945 17.411 33.9094 17.2656C33.8944 17.2424 33.881 17.2176 33.866 17.1929L33.8443 17.2061L33.6875 17.3036L33.5991 17.3647L33.574 17.3746H33.524C33.4939 17.3763 33.4606 17.363 33.4606 17.363C33.4272 17.3597 33.4172 17.3168 33.4172 17.3168L33.4105 17.2969L33.4172 17.2771L33.4339 17.2523L33.4639 17.2077L33.5307 17.1433C33.5991 17.0987 33.6641 17.0326 33.7325 16.9863C33.7359 16.983 33.7392 16.9814 33.7425 16.9781C33.6241 16.7782 33.4973 16.5832 33.3271 16.4279C33.3171 16.4411 33.3054 16.4527 33.2954 16.4675C33.2303 16.565 33.1286 16.6443 33.0652 16.7435L32.9934 16.7848C32.955 16.8046 32.9333 16.7848 32.9333 16.7848C32.91 16.7815 32.8933 16.7517 32.8933 16.7517L32.8816 16.7319C32.8583 16.7137 32.8683 16.6757 32.8683 16.6757L32.875 16.6295L32.9083 16.5634C32.9484 16.5221 32.9467 16.5072 32.9784 16.4609L33.0234 16.4048C33.0568 16.3618 33.0935 16.3188 33.1269 16.2759C33.0018 16.2098 32.8132 16.1338 32.7098 16.1222C32.6414 16.1156 32.5613 16.1222 32.4996 16.1619C32.4762 16.2247 32.4545 16.2924 32.4395 16.3585C32.4195 16.4461 32.4078 16.494 32.4011 16.5584C32.4011 16.5667 32.3928 16.6047 32.3828 16.6278C32.3727 16.6972 32.3661 16.7583 32.3494 16.831C32.3394 16.8855 32.3227 16.945 32.3127 16.9913C32.2993 17.0425 32.291 17.0904 32.2776 17.1416C32.2493 17.2573 32.2276 17.3696 32.2142 17.4886C32.2076 17.5382 32.2059 17.6076 32.2026 17.6538C32.1976 17.7034 32.1825 17.7662 32.1825 17.824C32.1892 17.9314 32.1609 18.0239 32.1675 18.128C32.1725 18.2238 32.1959 18.3428 32.276 18.4105C32.3144 18.4436 32.3694 18.4783 32.4128 18.5014C32.4745 18.5345 32.5563 18.5444 32.6247 18.5692C32.6831 18.589 32.7498 18.6005 32.8216 18.5989C32.9083 18.5956 33.0101 18.5427 33.0952 18.5196C33.3104 18.4585 33.5273 18.5526 33.7275 18.5857C33.7659 18.5923 33.8059 18.6005 33.8443 18.6105C33.9061 18.589 33.9628 18.5658 33.9945 18.5361C34.0746 18.4618 34.2064 18.323 34.2214 18.2238C34.2364 18.1297 34.2331 18.0272 34.2164 17.9297C34.153 17.9628 34.0979 17.9975 34.0279 18.0371C34.0095 18.0471 33.9611 18.0504 33.9611 18.0504L33.9578 18.0471Z" fill="#F3C300"/>
<path d="M35.7097 15.8827C35.7047 15.853 35.703 15.8199 35.6813 15.7951C35.6646 15.7803 35.5979 15.739 35.5812 15.734C35.4578 15.696 35.376 15.7753 35.376 15.7753L35.331 15.8084C35.331 15.8084 35.3193 15.8199 35.3109 15.8232C35.2942 15.8348 35.2809 15.8414 35.2625 15.8513C35.2409 15.8645 35.2208 15.891 35.1975 15.9075C35.1424 15.9521 35.064 16.005 35.0106 16.0562C34.9339 16.1289 34.8921 16.1685 34.8104 16.2131C34.777 16.2313 34.752 16.2578 34.727 16.2792C34.7019 16.2958 34.6819 16.309 34.6536 16.3238C34.5718 16.3668 34.4934 16.4098 34.4183 16.4643C34.3666 16.5039 34.2748 16.5634 34.2148 16.6196C34.1864 16.646 34.1597 16.6725 34.133 16.6906C34.1063 16.7088 34.0746 16.7319 34.0479 16.7534C34.0179 16.7765 33.9912 16.7881 33.9645 16.8145C33.9395 16.836 33.9078 16.8492 33.8811 16.8724C33.8394 16.912 33.7876 16.9451 33.7392 16.9781C33.7359 16.9814 33.7326 16.9831 33.7292 16.9864C33.6608 17.0326 33.5974 17.0987 33.5274 17.1433L33.4606 17.2078L33.4306 17.2524L33.4139 17.2772L33.4072 17.297L33.4139 17.3168C33.4139 17.3168 33.4239 17.3598 33.4573 17.3631C33.4573 17.3631 33.4907 17.3763 33.5207 17.3746H33.5707L33.5958 17.3647L33.6842 17.3036L33.841 17.2061L33.8627 17.1929L34.0679 17.069C34.1914 16.9996 34.2681 16.9236 34.3799 16.8641L34.4016 16.8492C34.4216 16.841 34.4634 16.8228 34.4834 16.8129C34.5985 16.7551 34.6519 16.7253 34.747 16.6576C34.8304 16.6014 34.9239 16.537 35.0123 16.4825C35.0623 16.4511 35.1107 16.4329 35.1524 16.3982C35.1574 16.3916 35.1658 16.3866 35.1724 16.3817L35.4845 16.195L35.6313 16.0744C35.6463 16.0644 35.6613 16.0529 35.673 16.0446C35.7214 16.0017 35.713 15.9504 35.7047 15.8877L35.7097 15.8827Z" fill="#6F7271"/>
<path d="M34.2182 15.0813C34.2016 15.0648 34.1749 15.04 34.1515 15.0351C34.0964 15.0202 34.0514 15.0582 34.0097 15.083C33.9746 15.1028 33.9263 15.126 33.9029 15.1574C33.8879 15.1788 33.8779 15.2069 33.8612 15.23C33.8462 15.2499 33.8345 15.2697 33.8178 15.2895C33.8045 15.311 33.7911 15.3325 33.7761 15.354C33.7578 15.3787 33.7527 15.3986 33.7311 15.4217C33.7044 15.4498 33.676 15.4828 33.661 15.5192C33.6476 15.5456 33.6259 15.5704 33.6026 15.5935C33.5392 15.6679 33.5008 15.7439 33.4391 15.8248C33.4157 15.8579 33.379 15.8942 33.364 15.9289C33.354 15.9504 33.3306 15.9884 33.3173 16.0066C33.2989 16.038 33.2789 16.0644 33.2489 16.0942C33.2222 16.1222 33.2038 16.1536 33.1838 16.1867C33.1604 16.2214 33.1488 16.2395 33.1271 16.266C33.1271 16.2676 33.1221 16.2709 33.1221 16.2726C33.0887 16.3156 33.052 16.3585 33.0186 16.4015L32.9736 16.4576C32.9435 16.5039 32.9435 16.5188 32.9035 16.5601L32.8701 16.6262L32.8635 16.6724C32.8635 16.6724 32.8535 16.7088 32.8768 16.7286L32.8885 16.7484C32.8885 16.7484 32.9052 16.7782 32.9285 16.7815C32.9285 16.7815 32.9486 16.8013 32.9886 16.7815L33.0603 16.7402C33.1254 16.641 33.2255 16.5617 33.2906 16.4642C33.3006 16.4494 33.3123 16.4378 33.3223 16.4246C33.3757 16.3552 33.4407 16.2891 33.4841 16.2148C33.5092 16.1735 33.5392 16.1305 33.5692 16.0942C33.636 16.0082 33.7027 15.9256 33.7761 15.848C33.8478 15.7703 33.9163 15.6927 33.968 15.6084C34.0097 15.5456 34.0814 15.501 34.1248 15.4415C34.1548 15.4002 34.1865 15.3606 34.1982 15.3143C34.2149 15.2581 34.2399 15.2053 34.2333 15.1425C34.2333 15.121 34.2299 15.0946 34.2116 15.078L34.2182 15.0813Z" fill="#6F7271"/>
<path d="M35.7213 17.0458C35.7062 17.0111 35.6762 16.9913 35.6328 16.9946C35.5978 16.9963 35.5594 17.0111 35.5277 17.0194C35.4943 17.0293 35.461 17.0442 35.4276 17.0624C35.3992 17.0739 35.3759 17.0938 35.3492 17.107C35.2891 17.1384 35.2257 17.1664 35.1723 17.2045C35.0772 17.2738 34.9721 17.3151 34.8653 17.368C34.7752 17.4126 34.6868 17.4672 34.6034 17.5217C34.5767 17.5398 34.5483 17.558 34.5133 17.5729C34.3515 17.6406 34.3364 17.6621 34.2463 17.6985C34.208 17.715 34.1863 17.7232 34.1546 17.7381C34.1496 17.7414 34.1446 17.7447 34.1379 17.7464C34.0962 17.7662 34.1229 17.753 34.0845 17.7695C34.0478 17.786 34.0161 17.7992 33.9844 17.8174C33.9627 17.8273 33.9494 17.8356 33.9343 17.8439C33.9343 17.8439 33.9026 17.8604 33.8843 17.8835L33.8242 17.9413C33.8242 17.9413 33.7825 17.9843 33.8376 18.0107L33.8509 18.0223C33.8509 18.0223 33.8993 18.0405 33.9076 18.0421L33.956 18.0454C33.956 18.0454 34.0061 18.0421 34.0228 18.0322C34.0928 17.9926 34.1496 17.9579 34.2113 17.9248C34.2563 17.9017 34.3064 17.8786 34.3681 17.8554C34.4532 17.824 34.5467 17.7943 34.6318 17.7546C34.7736 17.6869 34.9171 17.6043 35.0639 17.5547C35.1473 17.525 35.2457 17.4886 35.3308 17.4391C35.4009 17.3978 35.486 17.3664 35.5644 17.3383C35.6045 17.3218 35.6211 17.3151 35.6545 17.2854C35.6812 17.2606 35.7062 17.2358 35.7263 17.2045C35.7479 17.1648 35.7396 17.0855 35.7229 17.0425L35.7213 17.0458Z" fill="#6F7271"/>
<path d="M34.6919 18.9128C34.5701 18.855 34.4099 18.8153 34.2881 18.7625C34.148 18.7046 33.9945 18.6468 33.841 18.6105C33.8026 18.6005 33.7625 18.5923 33.7242 18.5857C33.524 18.5526 33.3054 18.4585 33.0918 18.5196C33.0067 18.5427 32.905 18.5956 32.8182 18.5989C32.7465 18.6005 32.6797 18.589 32.6213 18.5691C32.5529 18.546 32.4712 18.5345 32.4094 18.5014C32.3644 18.4783 32.311 18.4436 32.2726 18.4105C32.1925 18.3428 32.1708 18.2238 32.1642 18.128C32.1575 18.0239 32.1859 17.9314 32.1792 17.824C32.1792 17.7662 32.1942 17.705 32.1992 17.6538C32.2025 17.6076 32.2059 17.5365 32.2109 17.4886C32.2226 17.3696 32.2443 17.2556 32.2743 17.1416C32.2876 17.0904 32.2943 17.0425 32.3093 16.9913C32.3193 16.945 32.336 16.8855 32.346 16.831C32.3627 16.76 32.3694 16.6972 32.3794 16.6278C32.3894 16.6047 32.3978 16.5667 32.3978 16.5584C32.4061 16.4923 32.4161 16.4461 32.4361 16.3585C32.4528 16.2941 32.4728 16.2263 32.4962 16.1619C32.5079 16.1338 32.5196 16.1057 32.5329 16.0776C32.5896 15.9636 32.6263 15.8265 32.6897 15.7075C32.6897 15.7075 32.7281 15.6464 32.7348 15.6266C32.7448 15.61 32.7565 15.5853 32.7565 15.5853C32.7565 15.5853 32.7798 15.5522 32.8049 15.5126C32.8399 15.4564 32.8349 15.4762 32.8566 15.4382C32.8666 15.43 32.8749 15.4184 32.8783 15.4052C32.8883 15.3903 32.8966 15.3787 32.9016 15.3589C32.9083 15.3193 32.9016 15.273 32.8816 15.2399C32.8549 15.2003 32.8182 15.1425 32.7581 15.1392C32.7081 15.1375 32.648 15.1689 32.608 15.1953C32.5846 15.2119 32.5663 15.23 32.5513 15.2515C32.4912 15.3126 32.4445 15.4085 32.4211 15.4779C32.3911 15.5803 32.3494 15.6811 32.3243 15.7868C32.2993 15.8959 32.2476 15.9603 32.2176 16.0644C32.2025 16.114 32.1742 16.1817 32.1658 16.2329C32.1575 16.2759 32.1475 16.3651 32.1492 16.4031C32.1375 16.4692 32.1074 16.6179 32.0991 16.6675C32.0791 16.7996 32.0641 16.9202 32.024 17.0491C31.9623 17.2507 31.8839 17.4754 31.8922 17.6968C31.9006 17.9033 31.8822 18.1445 31.9439 18.3395C31.959 18.3824 31.9756 18.4205 32.0007 18.4585C32.0107 18.475 32.0207 18.4898 32.0307 18.5064C32.0524 18.5361 32.0641 18.551 32.0891 18.5741C32.1091 18.5923 32.1241 18.6055 32.1408 18.6237C32.1708 18.6584 32.2242 18.6832 32.2643 18.7079C32.311 18.7377 32.3327 18.7641 32.3861 18.7823C32.4328 18.8005 32.4728 18.8137 32.5162 18.8203C32.5663 18.8285 32.6297 18.8269 32.6781 18.8203C32.7465 18.812 32.8199 18.7939 32.8899 18.7988C32.945 18.8005 32.9934 18.8038 33.0501 18.8005C33.1669 18.7905 33.2804 18.7344 33.3972 18.7459C33.529 18.7575 33.6374 18.8203 33.7709 18.8665C33.8627 18.8996 33.9344 18.9145 33.9928 18.9508C34.0512 18.9855 34.1046 19.0235 34.1563 19.0582C34.2564 19.1226 34.3582 19.1871 34.4766 19.2383C34.5434 19.268 34.5851 19.3011 34.6318 19.3242C34.7102 19.3622 34.8187 19.3886 34.9054 19.4184C34.9572 19.4349 35.0206 19.4663 35.0656 19.4349C35.1006 19.4101 35.1157 19.3589 35.114 19.3242C35.159 19.0846 34.8754 19.0004 34.6869 18.9112L34.6919 18.9128Z" fill="#6F7271"/>
<path d="M29.241 12.8922C29.3578 12.8691 29.4663 12.8922 29.5864 12.9219L29.8383 13.0161C29.9434 13.0458 30.0152 13.0673 30.0919 13.1318L30.2354 13.2474C30.3322 13.3218 30.429 13.3994 30.5157 13.4903C30.5508 13.5299 30.5758 13.5762 30.5991 13.6258L30.6342 13.6952C30.7209 13.8439 30.741 14.0834 30.741 14.0851C30.7593 14.1941 30.741 14.2404 30.7093 14.3346L30.6659 14.4585C30.6358 14.5494 30.6075 14.6336 30.5591 14.7179C30.4924 14.8286 30.3856 14.9343 30.3122 15.0037C30.2638 15.0483 30.197 15.0797 30.1336 15.1095L30.0002 15.1788L29.9484 15.2152L29.84 15.2829C29.84 15.2829 29.83 15.2862 29.825 15.2879L29.9668 15.2962L30.0402 15.3077C30.0986 15.3176 30.162 15.3292 30.2271 15.3209C30.2921 15.3127 30.3522 15.2879 30.4089 15.2664L30.5658 15.2168L30.756 15.1772C30.9061 15.1326 31.0029 15.0682 31.0696 14.9657L31.113 14.8996C31.1898 14.784 31.2615 14.6766 31.2899 14.5411L31.3449 14.2751L31.3516 14.0834V13.905C31.3516 13.8125 31.3583 13.7233 31.3333 13.6274L31.3216 13.5795C31.2899 13.4407 31.2532 13.2838 31.1714 13.1698C31.068 13.026 30.9562 12.9005 30.8411 12.7931C30.7359 12.7451 30.6292 12.7055 30.5224 12.6741C29.583 12.5502 29.0224 12.7782 28.7305 13.1879C28.8773 13.0359 29.0642 12.9203 29.2444 12.8889L29.241 12.8922Z" fill="#F18A00"/>
<path d="M31.6587 13.8505L31.672 13.9298L31.6837 13.9942C31.6837 13.9942 31.6754 14.1743 31.6737 14.1809C31.662 14.2602 31.6203 14.3412 31.5786 14.4188L31.5285 14.5213C31.4968 14.594 31.4451 14.6535 31.3917 14.7129L31.3066 14.8121L31.2032 14.9128L31.1498 14.9575L31.0764 15.0302L30.9713 15.1309L30.9095 15.1673L30.8011 15.2383C30.721 15.3094 30.6543 15.3325 30.5542 15.3672L30.5275 15.3771C30.3072 15.4548 30.1053 15.4994 29.8951 15.5159C29.6315 15.5374 29.3362 15.5159 28.9675 15.4416C28.9274 15.4333 28.8907 15.4201 28.854 15.4069C29.0425 15.7109 29.3178 15.9422 29.7466 16.0364C31.0096 16.109 31.8606 15.0847 31.8923 14.1148C31.8606 13.8207 31.7504 13.5746 31.5936 13.3713C31.6236 13.4473 31.6437 13.525 31.6503 13.5993L31.6553 13.8505H31.6587Z" fill="#F18A00"/>
<path d="M29.8551 14.9739C30.0136 14.9078 30.1787 14.8401 30.2872 14.698L30.3639 14.6121C30.419 14.5576 30.4741 14.4981 30.4991 14.4337C30.5174 14.3857 30.5074 14.313 30.4991 14.2552L30.4941 14.2073C30.4807 14.0223 30.4424 13.8554 30.384 13.7116C30.3372 13.596 30.2772 13.5249 30.2004 13.4357L30.0619 13.2804C30.0586 13.2755 30.0386 13.2589 30.0386 13.2589C29.9401 13.178 29.8184 13.0739 29.6865 13.0788L29.4213 13.1003C29.3011 13.1185 29.1994 13.1995 29.0976 13.2788L29.0058 13.3482C28.914 13.4126 28.8256 13.5002 28.7806 13.5729L28.6654 13.7645C28.577 13.8917 28.552 14.0553 28.5353 14.2007C28.522 14.3527 28.5603 14.4981 28.6454 14.6005L28.6955 14.6633C28.7422 14.7244 28.7956 14.7955 28.859 14.8351L29.0058 14.8946L29.1927 15.0004C29.4046 15.1127 29.6048 15.0714 29.8384 14.9723L29.8551 14.964V14.9739Z" fill="#F18A00"/>
<path d="M29.4045 12.0297L29.0942 12.1239L28.8973 12.2214C28.7938 12.2709 28.6787 12.3337 28.5903 12.4362L28.4969 12.5915C28.4969 12.5915 28.4118 12.7104 28.4034 12.7187L28.355 12.8096L28.29 12.8756C28.1615 13.0442 28.0981 13.2276 28.0397 13.4556L27.9963 13.6637L27.993 13.8571C27.9763 14.0074 27.9763 14.1198 27.993 14.2238L28.0097 14.3312L28.0414 14.5146L28.1381 14.7839C28.1715 14.8682 28.1949 14.931 28.2616 14.9938L28.325 15.0714C28.355 15.1144 28.3834 15.1557 28.4318 15.1772L28.6303 15.2862C28.7037 15.3308 28.7788 15.3738 28.8572 15.4052C28.8939 15.42 28.9307 15.4333 28.9707 15.4399C29.3378 15.5126 29.6331 15.5357 29.8984 15.5142C30.1086 15.4977 30.3088 15.4514 30.5307 15.3754L30.5574 15.3655C30.6575 15.3308 30.7242 15.306 30.8043 15.2367L30.9128 15.1656L30.9745 15.1293L31.0796 15.0285L31.153 14.9558L31.2064 14.9112L31.3099 14.8104L31.395 14.7113C31.4483 14.6518 31.5001 14.5906 31.5318 14.5196L31.5818 14.4172C31.6219 14.3395 31.6636 14.2585 31.6769 14.1792C31.6769 14.1726 31.6869 13.9925 31.6869 13.9925L31.6753 13.9265L31.6619 13.8471L31.6569 13.596C31.6519 13.5233 31.6302 13.4457 31.6002 13.368C31.5668 13.2804 31.47 13.0838 31.47 13.0838C31.4333 13.0078 31.3783 12.9368 31.3266 12.869L31.2048 12.7104C31.103 12.5749 30.9962 12.4329 30.8777 12.3155C30.8227 12.2627 30.7359 12.2395 30.6575 12.2181L30.2738 12.0958C30.1169 12.0429 29.915 11.9851 29.7315 11.9967L29.4078 12.0248L29.4045 12.0297ZM29.1926 15.0086L29.0057 14.9029L28.8589 14.8434C28.7955 14.8021 28.7421 14.7311 28.6954 14.6716L28.6453 14.6088C28.5603 14.5064 28.5219 14.361 28.5352 14.209C28.5519 14.0636 28.5769 13.9 28.6654 13.7728L28.7805 13.5811C28.8255 13.5084 28.9123 13.4209 29.0057 13.3564L29.0975 13.287C29.1993 13.2077 29.301 13.1251 29.4212 13.1086L29.6865 13.0871C29.8183 13.0822 29.9401 13.1846 30.0385 13.2672C30.0385 13.2672 30.0585 13.2837 30.0619 13.2887C30.0619 13.2887 30.1987 13.4424 30.2003 13.444C30.2771 13.5332 30.3372 13.6043 30.3839 13.7199C30.4423 13.8637 30.4806 14.0305 30.494 14.2156L30.499 14.2635C30.5073 14.3213 30.5174 14.3924 30.499 14.4419C30.474 14.5064 30.4189 14.5659 30.3639 14.6204L30.2871 14.7063C30.1787 14.8484 30.0135 14.9161 29.855 14.9822L29.8383 14.9905C29.6047 15.088 29.4045 15.1309 29.1926 15.0186V15.0086ZM31.3482 13.9083V14.0867L31.3416 14.2784L31.2865 14.5444C31.2581 14.6799 31.1864 14.7889 31.1097 14.9029L31.0663 14.969C31.0012 15.0714 30.9028 15.1359 30.7526 15.1805L30.5624 15.2201L30.4056 15.2697C30.3488 15.2912 30.2888 15.316 30.2237 15.3242C30.1586 15.3325 30.0952 15.3209 30.0368 15.311L29.9634 15.2994L29.8216 15.2912C29.8216 15.2912 29.8299 15.2879 29.8366 15.2862L29.9451 15.2185L29.9968 15.1821L30.1303 15.1127C30.1937 15.083 30.2604 15.0516 30.3088 15.007C30.3822 14.9376 30.489 14.8319 30.5557 14.7212C30.6058 14.6386 30.6341 14.5526 30.6625 14.4618L30.7059 14.3379C30.7393 14.2437 30.7559 14.1974 30.7376 14.0884C30.7376 14.0867 30.7176 13.8471 30.6308 13.6984L30.5958 13.6291C30.5724 13.5795 30.5491 13.5349 30.5123 13.4936C30.4256 13.4027 30.3288 13.325 30.232 13.2507L30.0886 13.135C30.0135 13.0706 29.9417 13.0508 29.835 13.0194L29.583 12.9252C29.4629 12.8955 29.3544 12.8723 29.2376 12.8955C29.0575 12.9285 28.8706 13.0425 28.7238 13.1945C28.6437 13.2771 28.5769 13.3697 28.5319 13.4671C28.4451 13.6505 28.3534 13.867 28.3834 14.0917L28.3884 14.1545C28.3951 14.2404 28.4018 14.323 28.4418 14.4006C28.4702 14.4552 28.4818 14.5196 28.4935 14.5774C28.5102 14.6848 28.5569 14.7839 28.6103 14.8765L28.5202 14.7972L28.3701 14.6584C28.2966 14.584 28.2666 14.508 28.2266 14.4006L28.1415 14.2519L28.1181 14.2189C28.0864 14.171 28.0881 14.0999 28.0881 14.0355V13.8339C28.1081 13.7034 28.1648 13.5828 28.2166 13.4671L28.2616 13.363C28.2983 13.2788 28.3417 13.2226 28.3917 13.1598L28.5536 12.9698L28.6086 12.8823L28.6787 12.7782C28.7221 12.7303 28.7855 12.684 28.8472 12.6394L28.919 12.5882L29.1409 12.4362C29.281 12.3602 29.4228 12.2924 29.5964 12.2825H29.8483C29.8617 12.2858 30.1586 12.3469 30.2788 12.4064L30.3939 12.4758L30.4673 12.5237C30.5974 12.6014 30.7209 12.6923 30.836 12.8013C30.9511 12.9087 31.0629 13.0343 31.1664 13.178C31.2481 13.2904 31.2865 13.449 31.3165 13.5877L31.3282 13.6357C31.3532 13.7315 31.3482 13.8207 31.3466 13.9132L31.3482 13.9083Z" fill="#6F7271"/>
<path d="M26.0509 19.9488C25.8206 19.9488 25.6721 20.1272 25.6671 20.4015V22.4734C25.6671 22.779 25.6087 22.9674 25.4836 23.0516L25.3351 23.1557C25.21 23.24 25.1499 23.3507 25.1499 23.4928C25.1499 23.7307 25.3351 23.9009 25.5987 23.9009C25.9424 23.9009 26.2911 23.5853 26.3912 23.1871C26.4296 23.0467 26.4296 22.9971 26.4296 22.6568V20.4015C26.4296 20.1338 26.2811 19.9488 26.0525 19.9488H26.0509Z" fill="#4D525A"/>
<path d="M27.5291 19.9488C27.3056 19.9488 27.1554 20.1272 27.1504 20.4015V22.4899C27.1504 22.7592 27.3056 22.9409 27.5341 22.9409C27.7627 22.9409 27.9062 22.7642 27.9129 22.4899V20.4015C27.9129 20.1338 27.7577 19.9488 27.5291 19.9488Z" fill="#4D525A"/>
<path d="M20.2265 19.9488C19.4239 19.9488 18.7949 20.6196 18.7949 21.482V22.4783C18.7949 22.7559 18.9534 22.9426 19.1887 22.9426C19.4239 22.9426 19.5691 22.7609 19.5758 22.4783V21.4589C19.5824 21.0624 19.8577 20.76 20.2265 20.76C20.5952 20.76 20.8588 21.0607 20.8655 21.4391V22.4767C20.8655 22.7542 21.0223 22.9409 21.2559 22.9409C21.4895 22.9409 21.6363 22.7592 21.643 22.4767V21.4622C21.643 20.6196 21.0106 19.9471 20.2265 19.9471V19.9488Z" fill="#4D525A"/>
<path d="M29.9767 19.9488C29.1725 19.9488 28.5435 20.6196 28.5435 21.482V22.4783C28.5435 22.7559 28.7036 22.9426 28.9389 22.9426C29.1741 22.9426 29.3193 22.7609 29.326 22.4783V21.4589C29.3293 21.0624 29.6063 20.76 29.9767 20.76C30.3254 20.76 30.6073 21.0607 30.6173 21.4391V22.4767C30.6173 22.7542 30.7708 22.9409 31.0061 22.9409C31.2413 22.9409 31.3865 22.7592 31.3932 22.4767V21.4622C31.3932 20.6196 30.7625 19.9471 29.9783 19.9471L29.9767 19.9488Z" fill="#4D525A"/>
<path d="M11.6624 19.9488C11.4338 19.9488 11.2837 20.1272 11.277 20.3999V21.6027C11.277 21.8968 11.0785 22.1297 10.8149 22.1297C10.6363 22.1297 10.4645 22.0141 10.3961 21.8488C10.3544 21.7431 10.3443 21.6721 10.3443 21.4275V20.3982C10.3443 20.1305 10.1909 19.9471 9.96728 19.9471H9.9606C9.73703 19.9471 9.58854 20.1256 9.58353 20.3982V21.601C9.58353 21.8951 9.38332 22.1281 9.11804 22.1281C8.93951 22.1281 8.76933 22.0124 8.69926 21.8472C8.65921 21.7414 8.6492 21.6704 8.6492 21.4259V20.3965C8.6492 20.1289 8.4957 19.9455 8.26379 19.9455C8.03187 19.9455 7.89339 20.1239 7.88672 20.3965V21.4969C7.88672 21.8224 7.94511 22.1016 8.0519 22.2916C8.28214 22.6898 8.69925 22.9376 9.12304 22.9376C9.43671 22.9376 9.74204 22.8022 9.96728 22.5709C10.2009 22.8022 10.5095 22.9376 10.8199 22.9376C11.1852 22.9376 11.5423 22.7543 11.7709 22.4486C11.9627 22.1925 12.0412 21.9182 12.0412 21.5217V20.3965C12.0412 20.1289 11.886 19.9455 11.6641 19.9455L11.6624 19.9488Z" fill="#4D525A"/>
<path d="M15.6501 21.8703C15.8186 22.5048 16.3609 22.9591 17.0065 22.9591C17.8074 22.9591 18.4397 22.29 18.4397 21.4292C18.4397 20.6212 17.7924 19.9488 17.0132 19.9488C16.3625 19.9488 15.8086 20.4246 15.6434 21.0558H15.1679C15.0044 20.4279 14.4455 19.9571 13.7914 19.9571C13.0123 19.9571 12.3716 20.6345 12.3716 21.454C12.3716 22.2735 12.9989 22.969 13.7848 22.969C14.4455 22.969 14.9894 22.5114 15.1612 21.8703H15.6484H15.6501ZM17.0132 20.7732C17.3686 20.7732 17.6606 21.0806 17.6606 21.4391C17.6606 21.8422 17.3786 22.1479 17.0065 22.1479C16.6345 22.1479 16.3675 21.8422 16.3675 21.4573C16.3675 21.0723 16.6578 20.7732 17.0132 20.7732ZM13.7864 22.1578C13.4327 22.1578 13.1457 21.8521 13.1457 21.4672C13.1457 21.0822 13.4377 20.7815 13.7931 20.7815C14.1485 20.7815 14.4405 21.0872 14.4405 21.449C14.4405 21.8505 14.1585 22.1578 13.7864 22.1578Z" fill="#4D525A"/>
<path d="M23.8953 23.1293V22.7113C24.4909 22.5428 24.9197 22.0091 24.9197 21.3664C24.9197 20.5733 24.289 19.9488 23.4832 19.9488C22.7257 19.9488 22.0967 20.5898 22.0967 21.3631C22.0967 22.0058 22.5422 22.5543 23.1361 22.7179V23.1243C22.5472 23.2879 22.105 23.8414 22.105 24.4891C22.105 25.2606 22.739 25.8951 23.5065 25.8951C24.274 25.8951 24.9264 25.2722 24.9264 24.494C24.9264 23.8381 24.4976 23.3011 23.8936 23.1309L23.8953 23.1293ZM22.8692 21.3631C22.8692 21.0112 23.1561 20.722 23.4932 20.722C23.8719 20.722 24.1572 20.9996 24.1572 21.368C24.1572 21.7365 23.8702 22.0041 23.5099 22.0041C23.1495 22.0041 22.8692 21.7134 22.8692 21.3647V21.3631ZM23.5199 25.1285C23.1612 25.1285 22.8742 24.8393 22.8742 24.4891C22.8742 24.1388 23.1612 23.848 23.4998 23.848C23.8786 23.848 24.1656 24.1256 24.1656 24.494C24.1656 24.8625 23.8786 25.1301 23.5199 25.1301V25.1285Z" fill="#4D525A"/>
<path d="M7.41943 18.8964C7.33934 18.8336 7.28595 18.789 7.28595 18.789C7.14747 18.6799 7.02567 18.599 6.88886 18.4899C6.8655 18.4701 6.82045 18.4222 6.79876 18.404C6.75705 18.3709 6.71701 18.3379 6.6753 18.3065C6.63525 18.2735 6.59187 18.2487 6.55183 18.2173C6.5218 18.1925 6.49343 18.1611 6.46674 18.1363C6.40167 18.0851 6.33994 18.0356 6.27987 17.986C6.21147 17.9298 6.1464 17.8869 6.08299 17.8356C6.01793 17.7795 5.95452 17.715 5.89446 17.6638L5.84441 17.6225L5.82438 17.677C5.79602 17.758 5.79602 17.8489 5.79602 17.9364L5.78101 18.1429C5.70092 18.6436 5.52907 19.2598 5.35889 19.8546C5.73763 19.7638 5.93617 19.6646 6.34494 19.5473C6.58019 19.4779 6.76039 19.3722 6.98396 19.2813C7.22588 19.1838 7.38772 19.1657 7.61463 19.05C7.57793 19.0203 7.54456 18.9971 7.50952 18.9707C7.47949 18.9459 7.44445 18.9145 7.41776 18.893L7.41943 18.8964Z" fill="#00A0DF"/>
<path d="M5.5595 15.9158C5.718 15.7621 5.62457 15.5622 5.57619 15.4152C5.2792 15.0533 5.02726 15.1425 4.79702 15.3144C4.70525 15.4532 4.56343 15.6432 4.69357 15.8332C4.96553 16.0546 5.25084 16.0463 5.5595 15.9158Z" fill="#CF3339"/>
<path d="M5.54276 17.3218C5.57779 17.4391 5.59948 17.558 5.60282 17.568C5.60282 17.6489 5.60616 17.7315 5.60115 17.8125C5.59948 17.8472 5.60115 17.8703 5.59782 17.9067C5.59448 17.9348 5.58614 17.9728 5.5828 18.0008C5.56445 18.1297 5.53775 18.2569 5.50438 18.3858C5.48436 18.4635 5.46267 18.5428 5.44098 18.6204C5.41262 18.7196 5.39593 18.7889 5.37591 18.8567C5.35756 18.9145 5.32753 18.9823 5.3075 19.0417C5.27247 19.1557 5.23576 19.273 5.19906 19.3937C5.15568 19.539 5.13565 19.6977 5.10229 19.8513C5.07392 19.9719 5.01386 20.1058 4.9905 20.2165C4.97548 20.2958 4.95046 20.3668 4.94211 20.4312C4.93711 20.4692 4.94712 20.5006 4.94211 20.5353C4.95046 20.537 4.98716 20.6427 5.01553 20.6526C5.06057 20.6692 5.15568 20.5865 5.16235 20.5882C5.16569 20.5733 5.18404 20.5519 5.19739 20.5039C5.20573 20.4692 5.20907 20.4114 5.22241 20.3668C5.24577 20.2776 5.28915 20.2115 5.31418 20.1239L5.3609 19.8596C5.52941 19.2648 5.70293 18.6502 5.78301 18.1479L5.79803 17.9414C5.79803 17.8521 5.79803 17.7613 5.82639 17.682L5.84641 17.6274L5.89647 17.6687C5.95653 17.72 6.01827 17.7844 6.085 17.8406C6.1484 17.8918 6.21347 17.9348 6.28188 17.9909C6.34195 18.0405 6.40535 18.0901 6.46875 18.1413C6.49711 18.1661 6.52547 18.1975 6.55384 18.2222C6.59388 18.2536 6.63726 18.2784 6.6773 18.3115C6.71735 18.3428 6.75906 18.3759 6.80077 18.4089C6.82246 18.4271 6.86918 18.475 6.89087 18.4949C7.02935 18.6039 7.14948 18.6849 7.28796 18.7939C7.28796 18.7939 7.34135 18.8385 7.42143 18.9013C7.44813 18.9228 7.4815 18.9542 7.5132 18.9789C7.54824 19.007 7.5816 19.0302 7.61831 19.0583C7.62665 19.0649 7.63666 19.0715 7.64834 19.0797C7.6667 19.0946 7.68505 19.1177 7.7034 19.1326C7.72676 19.1491 7.75012 19.159 7.77181 19.1772C7.83354 19.2251 7.89361 19.2896 7.94533 19.3292C7.98036 19.3573 8.00873 19.3639 8.03542 19.3854C8.08548 19.425 8.11885 19.4498 8.12052 19.4531C8.13219 19.4548 8.17391 19.4548 8.20227 19.4531C8.24064 19.4465 8.264 19.4283 8.264 19.4283C8.2907 19.4135 8.32073 19.3457 8.33074 19.3011C8.33575 19.278 8.30071 19.2416 8.30404 19.2367C8.27234 19.2086 8.25065 19.1772 8.21395 19.1458C8.17557 19.1111 8.11384 19.0731 8.07213 19.0368C7.97536 18.9575 7.88026 18.8716 7.77014 18.7856C7.7301 18.7542 7.67003 18.7212 7.62832 18.6898C7.52655 18.6138 7.43645 18.5362 7.33301 18.4602C7.22789 18.3825 7.12278 18.2999 7.02434 18.2272C6.87585 18.1215 6.73737 18.0322 6.61891 17.948C6.57887 17.9199 6.54716 17.8934 6.51046 17.8687C6.44873 17.8274 6.37865 17.791 6.31859 17.7514C6.3019 17.7414 6.29356 17.7299 6.27854 17.7183C6.2652 17.7101 6.24684 17.7018 6.23516 17.6919C6.1801 17.6522 6.12671 17.6109 6.06999 17.5614C6.0483 17.5415 6.02494 17.5267 6.00158 17.5019C5.96988 17.4705 5.93818 17.4308 5.90648 17.3945L5.8364 17.2606L5.76633 17.1318C5.80304 17.1169 5.83974 17.102 5.87812 17.0888C5.93985 17.0657 5.9899 17.0442 6.06999 17.0062C6.14507 16.9699 6.23683 16.9434 6.30858 16.9054C6.38199 16.8658 6.44038 16.8146 6.5138 16.7683C6.60723 16.7088 6.704 16.6444 6.80077 16.575C6.86751 16.5238 6.94259 16.4841 7.03435 16.4048C7.10776 16.3404 7.19286 16.2445 7.2646 16.1702C7.34802 16.0909 7.40141 16.0165 7.47649 15.9273C7.49985 15.9009 7.53989 15.8711 7.56325 15.8447C7.71341 15.6679 7.85523 15.4796 7.96368 15.2929C8.03709 15.169 8.09716 15.045 8.1372 14.9261C8.18225 14.7922 8.19059 14.67 8.17891 14.551C8.17391 14.5064 8.14387 14.4486 8.13053 14.4089C8.03209 14.4089 7.96702 14.4139 7.90028 14.442C7.71508 14.5213 7.62832 14.7245 7.55992 14.9178C7.53989 14.9789 7.50319 15.0467 7.47983 15.1095C7.44646 15.2053 7.42143 15.2929 7.36304 15.3788C7.328 15.4283 7.26126 15.4812 7.21788 15.5308C7.11778 15.6481 7.02434 15.7571 6.89253 15.8662C6.84081 15.9091 6.80077 15.9653 6.74571 16.0066C6.68064 16.0595 6.60055 16.0975 6.53382 16.1504C6.43037 16.228 6.33193 16.304 6.24017 16.3751C6.10336 16.4825 5.96154 16.5568 5.84975 16.6229C5.77133 16.6692 5.70126 16.7088 5.62618 16.7485C5.62117 16.7237 5.6145 16.689 5.61617 16.6923C5.60949 16.6559 5.57279 16.5535 5.53441 16.4643C5.51773 16.4279 5.50605 16.3883 5.49103 16.3569C5.46934 16.3123 5.44599 16.2776 5.43764 16.2511C5.41095 16.1867 5.35923 16.1851 5.35923 16.1851C5.35923 16.1851 5.32419 16.19 5.29749 16.2065C5.28748 16.2131 5.28081 16.2264 5.27247 16.2346C5.2708 16.2478 5.27914 16.2842 5.28581 16.3172C5.29249 16.3503 5.29583 16.38 5.3025 16.4081C5.31251 16.4478 5.31251 16.5056 5.33086 16.5568L5.35756 16.7072C5.35756 16.7072 5.40094 16.8426 5.40594 16.8559C5.35589 16.879 5.3025 16.9021 5.2441 16.9253C5.19739 16.9434 5.1123 16.9699 5.06224 16.9913C4.98382 17.0244 4.87204 17.0789 4.73022 17.1318C4.66181 17.1566 4.57339 17.1764 4.50331 17.2045C4.41488 17.2408 4.32812 17.264 4.25137 17.302C4.20799 17.3218 4.16795 17.3548 4.13458 17.373C4.07952 17.4044 4.02446 17.4325 3.99777 17.4606C3.95439 17.5085 3.97274 17.5564 4.04615 17.5927C4.09454 17.6159 4.21967 17.5779 4.21967 17.5779C4.31311 17.5531 4.40487 17.53 4.49497 17.5052C4.58673 17.482 4.6835 17.4655 4.7736 17.4424C4.85202 17.4226 4.9271 17.3945 5.00385 17.373C5.1807 17.3251 5.35088 17.2772 5.51773 17.221L5.54609 17.3267L5.54276 17.3218Z" fill="#6F7271"/>
<path d="M19.9112 25.5547H19.8395C19.726 25.5564 19.6209 25.5812 19.5441 25.601C19.4841 25.6175 19.4207 25.6208 19.3589 25.6258C19.3156 25.6291 19.2688 25.6307 19.2255 25.639L19.132 25.6572C19.082 25.6687 19.0319 25.6803 18.9752 25.6853L18.8117 25.6952C18.6265 25.7051 18.4346 25.7167 18.2528 25.7679C18.1426 25.7993 18.0342 25.8439 17.9307 25.8868C17.9307 25.8868 17.9107 25.8951 17.894 25.9017V25.9149C17.9074 25.9232 17.9224 25.9281 17.9341 25.9314C18.0325 25.9645 18.1426 26.0124 18.2461 26.0273C18.453 26.0603 18.6265 26.138 18.82 26.1958C18.9385 26.2321 18.9168 26.2454 19.0336 26.2718C19.1704 26.3032 19.1404 26.3065 19.2772 26.3379C19.3623 26.3561 19.3523 26.3875 19.4407 26.4007C19.4908 26.4106 19.5375 26.4172 19.5875 26.4304C19.6125 26.4337 19.6409 26.4502 19.6593 26.4535C19.731 26.4717 19.751 26.4056 19.751 26.4056C19.7494 26.3941 19.7677 26.3759 19.7744 26.3643C19.7894 26.3379 19.8094 26.2834 19.8161 26.2421C19.8278 26.2057 19.8628 26.1528 19.8695 26.1148C19.9162 25.8835 20.023 25.758 20.068 25.6258C20.0714 25.6192 20.0831 25.5498 20.0914 25.5349C20.0847 25.5349 20.0397 25.5481 20.0397 25.5481C19.998 25.5564 19.9546 25.5547 19.9129 25.5514L19.9112 25.5547Z" fill="#CF3339"/>
<path d="M17.5871 26.1908C17.572 26.1479 17.5487 26.0901 17.537 26.0554C17.4436 26.0868 17.3535 26.1181 17.2634 26.1793L17.2267 26.2041C17.1349 26.2685 17.0482 26.3313 16.9497 26.3891L16.873 26.4304L16.7929 26.513L16.6627 26.6568C16.6244 26.703 16.631 26.6716 16.5943 26.7179L16.3975 26.8798L16.2239 27.0037C16.2239 27.0037 16.1756 27.0582 16.1188 27.1095C16.0771 27.1475 16.0254 27.1838 16.0237 27.1838C16.0104 27.1987 16.0054 27.2086 16.0054 27.2185C16.0054 27.2317 16.012 27.24 16.0154 27.2433L16.1088 27.3061C16.1572 27.3309 16.2289 27.3556 16.2673 27.4036L16.571 27.5275L16.7645 27.6415C16.7645 27.6415 16.8763 27.7142 16.8696 27.7109L17.0281 27.7852L17.0682 27.8117C17.0682 27.8117 17.1583 27.8546 17.17 27.8612C17.1816 27.8711 17.1916 27.8744 17.2 27.8711C17.2283 27.8596 17.2517 27.7737 17.2567 27.7208C17.2567 27.6349 17.2851 27.5655 17.3101 27.4961C17.3368 27.435 17.3618 27.3689 17.3652 27.2929L17.4119 27.1425C17.4536 27.0285 17.5086 26.8749 17.5086 26.7708L17.5337 26.6221C17.5337 26.6221 17.5837 26.3577 17.6004 26.2735C17.6004 26.2619 17.5971 26.252 17.5937 26.2404C17.5937 26.2222 17.5887 26.2074 17.5871 26.1908Z" fill="#A8AD00"/>
<path d="M18.4695 23.7042C18.4562 23.9091 18.3728 24.071 18.2893 24.228C18.236 24.3288 18.1792 24.4345 18.1459 24.5535L18.0958 24.7088L18.0391 24.9004L18.0191 24.9814L17.999 25.0723L17.969 25.1879L17.9506 25.2639L17.929 25.3532L17.8939 25.4787C17.8906 25.4969 17.8856 25.5134 17.8789 25.5299C17.8872 25.5316 17.9106 25.5365 17.939 25.5498L17.9557 25.5465C17.999 25.5399 18.0407 25.5399 18.0808 25.5382C18.1108 25.525 18.1392 25.5151 18.1776 25.5035C18.3144 25.4639 18.3027 25.4225 18.4195 25.335C18.4829 25.2887 18.6214 25.2309 18.6831 25.1879C18.7632 25.1301 18.9 25.0525 18.9801 25.0062L19.2087 24.8575C19.2253 24.8509 19.2604 24.836 19.2954 24.8195C19.2954 24.8195 19.3688 24.7881 19.3054 24.6857C19.2387 24.5997 19.1453 24.489 19.1119 24.4411C19.0151 24.3123 19.0552 24.3403 18.9818 24.261C18.9384 24.2131 18.9033 24.109 18.8533 24.0661C18.8099 24.0264 18.6798 23.7604 18.6347 23.7224C18.5463 23.6514 18.5079 23.5175 18.4178 23.4581C18.4579 23.5126 18.4712 23.5836 18.4712 23.6547C18.4712 23.6729 18.4712 23.691 18.4712 23.7076L18.4695 23.7042Z" fill="#F3C300"/>
<path d="M20.6067 25.3747C20.565 25.1946 20.1779 25.2392 20.1329 25.2458C20.0945 25.2507 20.0578 25.2574 20.0244 25.2689C19.931 25.2954 19.8726 25.2937 19.8726 25.2937C19.8042 25.3003 19.7325 25.3069 19.664 25.3185L19.5089 25.3383C19.4188 25.3499 19.3337 25.3565 19.2453 25.3829C19.1485 25.411 19.0451 25.4391 18.9383 25.449C18.8765 25.454 18.8231 25.4523 18.7698 25.449C18.678 25.4474 18.5912 25.4441 18.4911 25.4754C18.4361 25.492 18.3793 25.5002 18.3209 25.5101L18.2425 25.5217C18.1941 25.5316 18.0874 25.5333 18.0824 25.5333C18.0423 25.5333 18.0006 25.5349 17.9572 25.5415L17.9405 25.5448C17.9122 25.5333 17.8888 25.5283 17.8805 25.525C17.8871 25.5085 17.8922 25.4903 17.8955 25.4738L17.9305 25.3482L17.9522 25.259L17.9706 25.183L18.0006 25.0673L18.0206 24.9765L18.0406 24.8955L18.0974 24.7039L18.1474 24.5486C18.1808 24.4312 18.2375 24.3239 18.2909 24.2231C18.3743 24.0661 18.4578 23.9042 18.4711 23.6993C18.4711 23.6828 18.4711 23.6646 18.4711 23.6464C18.4711 23.5771 18.4578 23.5044 18.416 23.4548C18.396 23.4267 18.3677 23.4052 18.326 23.3953L18.2842 23.3771L18.2459 23.3804C18.1958 23.387 18.1324 23.392 18.0974 23.4432C18.0757 23.4763 18.0657 23.5126 18.059 23.549L18.029 23.6514L18.0039 23.7291L17.9839 23.8133C17.9639 23.9224 17.9155 24.0198 17.9155 24.0198C17.9022 24.0512 17.8855 24.0826 17.8721 24.1206C17.8621 24.152 17.8554 24.1851 17.8504 24.2132C17.8421 24.2512 17.8354 24.2875 17.8171 24.3255C17.7837 24.3949 17.777 24.461 17.7687 24.5221C17.762 24.5717 17.757 24.6179 17.7403 24.6675L17.6886 24.8426L17.6569 24.96C17.6202 25.0806 17.5751 25.2392 17.5568 25.3747C17.4951 25.3367 17.4483 25.3003 17.4133 25.264C17.4133 25.264 17.168 25.0194 17.1113 24.9451C17.0563 24.874 16.9895 24.8162 16.9245 24.7617C16.8861 24.7286 16.8477 24.6956 16.811 24.6593C16.7493 24.5981 16.6708 24.5221 16.5858 24.4147C16.5858 24.4147 16.4656 24.2611 16.4256 24.2049C16.3922 24.157 16.3588 24.1124 16.3155 24.0612C16.2838 24.0215 16.2654 24.0116 16.2404 23.9967L16.2003 23.9703L16.152 23.9604C16.152 23.9604 16.1002 23.9818 16.0869 24.0033C16.0719 24.0265 16.0685 24.0512 16.0685 24.0727C16.0685 24.0909 16.0685 24.1058 16.0735 24.114C16.0852 24.1685 16.1169 24.1966 16.1436 24.2214L16.1736 24.2512C16.2154 24.2991 16.2421 24.3619 16.2721 24.4279C16.2971 24.4858 16.3238 24.5469 16.3622 24.5965C16.3622 24.5965 16.5207 24.836 16.5691 24.874L16.6358 24.9451C16.6608 24.9765 16.6825 25.0161 16.7059 25.0558C16.7393 25.1169 16.7743 25.1764 16.8227 25.221C16.8477 25.2458 16.8844 25.2937 16.9144 25.33C16.9144 25.33 17.0913 25.5514 17.138 25.6308C17.1614 25.6704 17.1831 25.7001 17.2031 25.7266C17.1263 25.7514 17.0462 25.7811 16.9678 25.8191C16.9678 25.8191 16.6625 25.9794 16.5824 26.0124C16.5257 26.0372 16.4656 26.0554 16.4072 26.0735C16.3422 26.095 16.2738 26.1148 16.212 26.1446C16.1436 26.1743 16.0869 26.214 16.0318 26.2503L15.9317 26.3164C15.8733 26.3495 15.6498 26.4536 15.603 26.4783L15.3811 26.6072C15.2176 26.6964 15.0992 26.7609 15.0758 26.9294C15.0725 26.9509 15.0708 26.9707 15.0708 26.9905C15.0708 27.0979 15.1209 27.164 15.2343 27.2185C15.3961 27.2945 15.4596 27.2681 15.6281 27.197L15.6965 27.1574C15.7449 27.1128 15.7949 27.0814 15.85 27.0483L15.915 27.0103C15.915 27.0103 16.1036 26.8798 16.152 26.8534L16.2921 26.784C16.3488 26.7576 16.4056 26.7295 16.4606 26.6997C16.5257 26.6617 16.5607 26.632 16.6041 26.5973L16.6442 26.5659C16.7042 26.518 16.7693 26.4849 16.8394 26.4502L16.8811 26.4288L16.9578 26.3875C17.0579 26.3296 17.1447 26.2669 17.2348 26.2024L17.2715 26.1776C17.3616 26.1165 17.4517 26.0835 17.5451 26.0537C17.5585 26.0868 17.5802 26.1462 17.5952 26.1892C17.5985 26.2057 17.6018 26.2206 17.6018 26.2388C17.6035 26.2503 17.6068 26.2602 17.6085 26.2718C17.6135 26.3049 17.6235 26.3329 17.6319 26.3627L17.6502 26.4321C17.6669 26.4982 17.6936 26.5527 17.7186 26.6039C17.7487 26.665 17.777 26.7212 17.7887 26.7939C17.8187 26.9823 17.9155 27.1723 18.0073 27.3573C18.0907 27.5275 18.1324 27.6266 18.1324 27.6266C18.1808 27.739 18.2642 27.9455 18.3627 27.9868C18.411 28.005 18.4361 27.9951 18.4494 27.9818C18.4628 27.967 18.4694 27.9488 18.4694 27.924C18.4694 27.8992 18.4628 27.8745 18.4528 27.853L18.4211 27.7753C18.4027 27.7357 18.3843 27.6993 18.3727 27.658L18.3193 27.4928C18.2809 27.3771 18.2425 27.2664 18.2192 27.1475C18.2125 27.1144 18.2008 27.0797 18.1875 27.045C18.1725 27.0037 18.1574 26.9608 18.1541 26.9195C18.1424 26.8484 18.1224 26.784 18.1024 26.7212L18.0323 26.4635C18.0156 26.3908 17.9973 26.3148 17.9739 26.2371L17.9622 26.2041C17.9305 26.1082 17.9005 26.0108 17.8988 25.9166V25.9001C17.9138 25.8935 17.9355 25.8852 17.9355 25.8852C18.039 25.8422 18.1474 25.7976 18.2575 25.7662C18.4394 25.715 18.6313 25.7034 18.8165 25.6935L18.98 25.6836C19.0367 25.6787 19.0884 25.6688 19.1368 25.6555L19.2303 25.6374C19.2736 25.6291 19.3203 25.6274 19.3637 25.6241C19.4255 25.6192 19.4872 25.6159 19.5489 25.5994C19.6273 25.5779 19.7325 25.5547 19.8442 25.5514H19.916C19.9594 25.5564 20.0027 25.5581 20.0428 25.5498C20.0428 25.5498 20.1412 25.5201 20.1796 25.5201C20.2297 25.5201 20.2714 25.5201 20.3198 25.5134H20.3615C20.4365 25.5085 20.555 25.5019 20.5967 25.4457C20.6117 25.4259 20.6167 25.4011 20.6101 25.373L20.6067 25.3747Z" fill="#6F7271"/>
<path d="M32.6148 25.7761C32.7182 25.7877 32.785 25.8191 32.8918 25.8372C32.9452 25.8455 32.9985 25.8703 33.0536 25.8703C33.0953 25.8703 33.1637 25.8785 33.1988 25.8951H33.2021C33.2021 25.8951 33.2088 25.9 33.2104 25.9017C33.2455 25.9066 33.2788 25.9116 33.3156 25.9182C33.4073 25.9364 33.5058 25.9777 33.5975 26.0041C33.6643 26.0223 33.7126 26.0339 33.7777 26.0553C33.8962 26.0933 33.9663 26.0867 34.0797 26.1016C34.1147 26.1065 34.1565 26.1214 34.1882 26.1231C34.1882 26.1231 34.2632 26.1363 34.2199 26.0752C34.1481 25.9959 34.0981 25.9694 34.033 25.8852C33.9929 25.8339 33.9396 25.7761 33.9028 25.7232C33.8294 25.6142 33.7877 25.5564 33.7243 25.4407C33.6843 25.3713 33.7126 25.3581 33.6759 25.2854C33.6309 25.1929 33.5591 25.0343 33.5241 24.9368C33.4941 24.8459 33.4724 24.7352 33.4507 24.6658C33.4157 24.5584 33.4107 24.3965 33.3873 24.2875C33.3706 24.2098 33.3456 23.919 33.3272 23.7555C33.3172 23.6745 33.3222 23.5968 33.3222 23.5192C33.3206 23.5142 33.3172 23.5126 33.3139 23.5076C33.3022 23.4944 33.2822 23.4564 33.2104 23.5076C33.1821 23.5291 33.0886 23.6233 33.0786 23.6398C33.072 23.6497 33.0102 23.7571 33.0052 23.7687C32.9351 23.8447 32.8751 23.9438 32.8334 24.0115C32.6465 24.3222 32.493 24.565 32.4012 24.7071C32.2444 24.9401 32.1026 25.135 31.9608 25.3746C31.9074 25.4638 31.859 25.5465 31.9324 25.6092C31.9891 25.6605 32.1226 25.6902 32.211 25.7216C32.2728 25.7464 32.3345 25.7662 32.3946 25.7844C32.4029 25.7778 32.4113 25.7728 32.4213 25.7695C32.4763 25.7563 32.5631 25.7662 32.6165 25.7728L32.6148 25.7761Z" fill="#CF3339"/>
<path d="M34.0799 22.1429C34.2117 21.9149 34.0365 21.7398 33.9197 21.558C33.581 21.3961 33.2023 21.3961 33.0354 21.7381C33.0004 21.943 32.9003 22.1495 33.0988 22.3114C33.4609 22.4337 33.7879 22.4205 34.0815 22.1429H34.0799Z" fill="#00A0DF"/>
<path d="M34.8356 26.2784C34.8173 26.2321 34.7939 26.2057 34.7506 26.1743C34.7289 26.1594 34.6738 26.1148 34.6688 26.1082C34.5987 26.0504 34.5303 25.9843 34.4653 25.9149C34.4219 25.8687 34.3752 25.834 34.3368 25.7844C34.2967 25.7348 34.265 25.6687 34.2283 25.6142C34.1683 25.5233 34.1332 25.482 34.0815 25.3862C34.0581 25.3416 34.0081 25.2425 33.9881 25.1979C33.948 25.1119 33.9097 25.0145 33.8746 24.9285C33.8563 24.8823 33.8563 24.8294 33.8413 24.7848C33.8129 24.7105 33.8095 24.6725 33.7829 24.5783C33.7628 24.5138 33.7361 24.3503 33.7245 24.2842C33.7011 24.1867 33.6944 23.9504 33.6844 23.8711C33.6677 23.7456 33.6577 23.6233 33.6611 23.506L33.6544 23.2763L33.626 23.1062L33.601 22.8071C33.5359 22.6535 33.4575 22.6915 33.4024 22.8121C33.3891 22.8418 33.3774 22.8749 33.3657 22.9129C33.3591 22.9376 33.3541 22.9641 33.3491 22.9938C33.3374 23.0549 33.3307 23.1095 33.324 23.159C33.314 23.273 33.324 23.5176 33.324 23.5225C33.324 23.6002 33.319 23.6778 33.329 23.7588C33.3474 23.9224 33.3724 24.2131 33.3891 24.2908C33.4125 24.3998 33.4175 24.5618 33.4525 24.6692C33.4759 24.7385 33.4975 24.8492 33.5259 24.9401C33.561 25.0376 33.6327 25.1962 33.6777 25.2887C33.7144 25.3598 33.6861 25.3746 33.7261 25.444C33.7912 25.5597 33.8312 25.6175 33.9047 25.7266C33.9414 25.7794 33.9947 25.8373 34.0348 25.8885C34.0999 25.9727 34.1482 26.0008 34.2217 26.0785C34.265 26.1396 34.19 26.1264 34.19 26.1264C34.1583 26.1264 34.1165 26.1099 34.0815 26.1049C33.9697 26.0901 33.898 26.0967 33.7795 26.0587C33.7144 26.0372 33.6661 26.0256 33.5993 26.0074C33.5076 25.981 33.4091 25.9397 33.3174 25.9215C33.2807 25.9133 33.2473 25.91 33.2122 25.905C33.2089 25.9034 33.2056 25.9017 33.2039 25.8984H33.2006C33.1655 25.8819 33.0971 25.8736 33.0554 25.8736C33.0004 25.8736 32.947 25.8472 32.8936 25.8406C32.7868 25.8224 32.7201 25.7927 32.6166 25.7794C32.5632 25.7728 32.4765 25.7629 32.4214 25.7761C32.4131 25.7794 32.403 25.7844 32.3947 25.791C32.3613 25.8158 32.343 25.862 32.3814 25.8934C32.4164 25.9215 32.4648 25.9281 32.5082 25.9397C32.5732 25.9546 32.63 25.9761 32.6917 25.9975C32.7501 26.0174 32.8051 26.0388 32.8635 26.0504C32.9052 26.0587 32.9169 26.0554 32.952 26.0686C32.972 26.0752 32.9937 26.0851 33.0137 26.0917C33.017 26.0917 33.1088 26.1181 33.1538 26.1347C33.1855 26.1462 33.2373 26.1793 33.2706 26.1908C33.3641 26.2222 33.4625 26.252 33.5643 26.2817C33.6394 26.3032 33.7195 26.3247 33.7945 26.3478C33.8029 26.3494 33.9097 26.3775 33.953 26.3891C34.0014 26.4023 34.0481 26.4139 34.0982 26.4271C34.1549 26.442 34.2083 26.4535 34.2667 26.4568C34.3768 26.4601 34.4903 26.4717 34.6021 26.4668C34.7105 26.4618 34.8857 26.4122 34.834 26.2817L34.8356 26.2784Z" fill="#6F7271"/>
<path d="M27.6158 18.3329C27.6726 18.3015 27.7109 18.2833 27.7593 18.2404C27.8544 18.1528 27.9595 18.0603 28.0563 17.9744C28.1197 17.9182 28.1664 17.8587 28.2232 17.8009C28.2932 17.7282 28.375 17.6555 28.4417 17.5762C28.5168 17.487 28.5535 17.3565 28.5769 17.2425C28.5919 17.1664 28.6136 17.0326 28.5685 16.9649C28.5335 16.9137 28.3366 16.8691 28.3183 16.9484C28.1814 16.9451 28.0329 17.0111 27.9212 17.0838C27.8511 17.1301 27.8027 17.1912 27.7443 17.2524C27.7176 17.2805 27.6909 17.3085 27.6676 17.3399C27.6509 17.3647 27.6208 17.3862 27.6058 17.4093C27.5925 17.4308 27.5925 17.4605 27.5775 17.4837C27.5658 17.5035 27.5474 17.5167 27.5374 17.5365C27.5141 17.5845 27.5041 17.6192 27.4707 17.6638C27.4206 17.7365 27.3439 17.7794 27.2838 17.8439C27.2521 17.8752 27.2288 17.9166 27.2071 17.9546C27.1637 18.0256 27.1136 18.0851 27.0652 18.1528C27.0452 18.1809 27.0486 18.204 27.0386 18.2321C27.0018 18.3395 26.9451 18.404 26.8884 18.4998C26.8851 18.5163 26.8483 18.5725 26.8467 18.594C26.8467 18.6204 26.9051 18.6997 26.9151 18.7129L27.0335 18.6749L27.2371 18.5973L27.5291 18.4205L27.5658 18.4007C27.5658 18.4007 27.5574 18.3825 27.6158 18.3329Z" fill="#CB007B"/>
<path d="M26.453 18.3097C26.4396 18.2932 26.4213 18.2883 26.4079 18.2751C26.3762 18.247 26.3712 18.2271 26.3528 18.1858C26.3178 18.0983 26.2628 18.0454 26.196 17.9793C26.1543 17.9364 26.1259 17.8802 26.0859 17.8372C26.0192 17.7645 25.9124 17.7331 25.8306 17.6786C25.7989 17.6588 25.7872 17.6373 25.7589 17.6125C25.6938 17.553 25.597 17.515 25.5236 17.4704C25.4485 17.4258 25.3768 17.3647 25.2934 17.3432C25.2333 17.3267 25.1682 17.3349 25.1065 17.3234C25.0031 17.3052 24.9046 17.2705 24.8029 17.2523C24.6794 17.2325 24.5543 17.2077 24.4308 17.1978C24.3123 17.1879 24.1905 17.1499 24.0704 17.1532C24.012 17.1532 23.9369 17.1449 23.8902 17.1796C23.8452 17.211 23.8218 17.3036 23.8151 17.3564C23.7951 17.4985 23.8018 17.6819 23.8418 17.8157C23.8535 17.8504 23.8618 17.8719 23.8769 17.9C23.9252 17.9694 23.962 18.057 24.0153 18.1214C24.0704 18.1858 24.1238 18.2486 24.1705 18.323C24.2206 18.4006 24.3057 18.4931 24.3524 18.5278C24.4041 18.5625 24.5109 18.5906 24.5643 18.6286C24.586 18.6451 24.5893 18.6369 24.6127 18.6551C24.6577 18.698 24.7178 18.7245 24.7745 18.7459C24.9497 18.8153 25.1249 18.8864 25.2984 18.9657C25.4719 19.0433 25.6571 19.0698 25.8406 19.0252C25.9591 18.9971 26.0759 18.9756 26.1893 18.9459C26.2794 18.9227 26.3629 18.8665 26.4413 18.8137C26.493 18.779 26.5514 18.7261 26.5814 18.6633C26.5881 18.6485 26.6131 18.6038 26.6131 18.5857L26.6065 18.5807C26.5514 18.4965 26.523 18.3841 26.4546 18.3114L26.453 18.3097Z" fill="#A8AD00"/>
<path d="M28.677 16.9004C28.6085 16.8344 28.5768 16.8178 28.4851 16.8178C28.4217 16.8178 28.395 16.798 28.3366 16.8046C28.2915 16.8079 28.1764 16.836 28.133 16.8459C28.0329 16.8707 27.9845 16.9318 27.8928 16.9698C27.8027 17.0062 27.7359 17.0805 27.6625 17.1417C27.5758 17.2111 27.5174 17.3168 27.4406 17.3961C27.3572 17.4804 27.3238 17.5729 27.2421 17.6472C27.1653 17.7166 27.0919 17.8141 27.0402 17.9066C27.0052 17.9661 26.9718 18.0091 26.9301 18.0653C26.9051 18.0983 26.8934 18.1396 26.865 18.1776C26.8183 18.247 26.7916 18.3098 26.7365 18.3693C26.7199 18.3891 26.6414 18.2239 26.6414 18.2239C26.6131 18.176 26.5463 18.095 26.518 18.0586C26.4913 18.0206 26.4713 17.981 26.4362 17.9496C26.3027 17.8406 26.2177 17.7249 26.0658 17.6324C25.9991 17.5927 25.9691 17.5547 25.8489 17.4655C25.8539 17.4622 25.6771 17.3317 25.612 17.2937C25.5486 17.2557 25.4635 17.2391 25.4135 17.1929C25.3818 17.1648 25.3651 17.1433 25.32 17.1251C25.0314 17.0045 24.8045 16.8856 24.4958 16.8393C24.4007 16.8261 24.3006 16.7914 24.2005 16.798C24.1655 16.7997 24.0437 16.8063 24.012 16.8112C23.9619 16.8195 23.8601 16.8525 23.8201 16.8757C23.71 16.9434 23.6666 17.0491 23.6332 17.1896C23.6182 17.2557 23.6282 17.3366 23.6282 17.4044C23.6282 17.449 23.6199 17.5349 23.6282 17.5861C23.6332 17.5828 23.6382 17.7051 23.6416 17.7018C23.6416 17.7414 23.6482 17.7563 23.6616 17.7959C23.6733 17.8356 23.69 17.8686 23.7 17.9116C23.7133 17.9694 23.7517 17.9942 23.7734 18.0504C23.7917 18.0983 23.8084 18.0933 23.8251 18.1396C23.8635 18.2437 23.9386 18.3081 23.9986 18.3957C24.0453 18.4585 24.1037 18.5113 24.1454 18.5543C24.1738 18.584 24.2172 18.6254 24.2522 18.6518C24.2873 18.6782 24.3256 18.6898 24.3607 18.7212C24.404 18.7608 24.5993 18.9277 24.6627 18.9624C24.7211 18.9954 24.983 19.0665 25.0381 19.0814C25.1382 19.1078 25.2383 19.1293 25.3434 19.1491C25.4602 19.1689 25.5519 19.1673 25.6654 19.1805C25.7288 19.1871 25.7922 19.1805 25.8589 19.1755C25.9057 19.1739 25.949 19.164 25.9941 19.159C26.0642 19.1491 26.1242 19.1425 26.191 19.1111C26.246 19.0847 26.3011 19.0566 26.3578 19.0285C26.4095 19.0021 26.4679 18.9674 26.5096 18.9327C26.543 18.9029 26.563 18.8649 26.5964 18.8368C26.6331 18.8054 26.6481 18.7988 26.6681 18.7559C26.7449 18.784 26.7399 18.8781 26.7566 18.9178C26.7749 18.9608 26.7833 18.9756 26.7866 19.0235C26.7866 19.0615 26.8016 19.0962 26.8016 19.1293C26.8083 19.2053 26.7966 19.2581 26.7833 19.3342C26.7783 19.3556 26.7566 19.4052 26.7699 19.43C26.7966 19.4812 26.8483 19.4168 26.8633 19.3953C26.9151 19.3209 26.9568 19.2912 26.9685 19.1987C26.9718 19.1706 26.9968 19.1243 26.9902 19.0913C26.9918 19.0632 26.9868 19.0054 26.9918 18.9723L26.9835 18.9128C26.9635 18.822 26.9785 18.8467 26.9534 18.7724C26.9468 18.7476 26.9301 18.7311 26.9117 18.7129C26.9034 18.6997 26.8433 18.622 26.8433 18.594C26.8433 18.5725 26.8817 18.5163 26.885 18.4998C26.9418 18.404 27.0002 18.3395 27.0352 18.2321C27.0452 18.2024 27.0419 18.1793 27.0619 18.1528C27.1103 18.0851 27.1603 18.0273 27.2037 17.9546C27.2254 17.9166 27.2488 17.8752 27.2805 17.8439C27.3405 17.7811 27.4173 17.7365 27.4673 17.6638C27.499 17.6175 27.5107 17.5845 27.5341 17.5365C27.5441 17.5167 27.5624 17.5035 27.5741 17.4837C27.5891 17.4605 27.5891 17.4308 27.6025 17.4093C27.6175 17.3845 27.6459 17.3647 27.6642 17.3399C27.6876 17.3085 27.7143 17.2805 27.741 17.2524C27.7994 17.1896 27.8477 17.1285 27.9178 17.0838C28.0296 17.0128 28.1781 16.9467 28.3149 16.9484C28.3333 16.8691 28.5301 16.9137 28.5652 16.9649C28.6102 17.0326 28.5885 17.1665 28.5735 17.2425C28.5502 17.3565 28.5134 17.487 28.4384 17.5762C28.3716 17.6555 28.2899 17.7282 28.2198 17.8009C28.1631 17.8587 28.1164 17.9182 28.053 17.9744C27.9579 18.0619 27.8511 18.1545 27.756 18.2404C27.7076 18.2833 27.6692 18.3015 27.6125 18.3329C27.5558 18.3825 27.5558 18.3957 27.5624 18.4007C27.5641 18.4023 27.5674 18.404 27.5674 18.4056C27.5824 18.4056 27.6475 18.3759 27.6859 18.3511C27.7209 18.3296 27.7927 18.2916 27.8244 18.2652C27.9161 18.1974 28.0062 18.1165 28.0963 18.0487C28.1397 18.0157 28.1864 17.9694 28.2265 17.9364C28.2749 17.8934 28.3366 17.8604 28.385 17.8158C28.4651 17.7431 28.5335 17.6737 28.5985 17.5878C28.6319 17.5432 28.6569 17.4556 28.6986 17.3664C28.7303 17.297 28.7337 17.2028 28.737 17.1251C28.742 17.0409 28.7337 16.9566 28.6736 16.8988L28.677 16.9004ZM26.5814 18.6634C26.5497 18.7261 26.493 18.7774 26.4412 18.8137C26.3628 18.8666 26.2794 18.9211 26.1893 18.9459C26.0758 18.9756 25.9574 18.9954 25.8406 19.0252C25.6571 19.0698 25.4735 19.0434 25.2983 18.9657C25.1248 18.8864 24.9496 18.8154 24.7744 18.746C24.7177 18.7245 24.6577 18.698 24.6126 18.6551C24.5892 18.6369 24.5859 18.6452 24.5642 18.6287C24.5108 18.5907 24.4057 18.5626 24.3523 18.5279C24.3039 18.4932 24.2205 18.4007 24.1705 18.323C24.1237 18.2486 24.0704 18.1859 24.0153 18.1214C23.9619 18.0586 23.9252 17.9694 23.8768 17.9C23.8618 17.8719 23.8535 17.8505 23.8418 17.8158C23.8017 17.6836 23.7951 17.4985 23.8151 17.3565C23.8234 17.3036 23.8451 17.2094 23.8902 17.1797C23.9386 17.145 24.012 17.1532 24.0704 17.1532C24.1905 17.1499 24.314 17.1896 24.4307 17.1978C24.5542 17.2078 24.6793 17.2325 24.8028 17.2524C24.9029 17.2705 25.003 17.3036 25.1065 17.3234C25.1682 17.335 25.2333 17.3267 25.2933 17.3432C25.3768 17.3631 25.4485 17.4258 25.5236 17.4705C25.597 17.5151 25.6954 17.5531 25.7588 17.6125C25.7872 17.6373 25.8005 17.6588 25.8306 17.6786C25.9107 17.7332 26.0191 17.7646 26.0859 17.8372C26.1259 17.8819 26.1543 17.9364 26.196 17.9793C26.261 18.0454 26.3161 18.0966 26.3528 18.1859C26.3712 18.2272 26.3762 18.247 26.4079 18.2751C26.4212 18.2883 26.4396 18.2933 26.4529 18.3098C26.523 18.3825 26.5513 18.4948 26.6047 18.5791L26.6114 18.584C26.6114 18.6022 26.5864 18.6468 26.5797 18.6617L26.5814 18.6634Z" fill="#6F7271"/>
</g>
<circle cx="20" cy="20" r="19.5" stroke="black" stroke-opacity="0.05"/>
<defs>
<clipPath id="clip0_16523_11319">
<rect width="31.7673" height="16" fill="white" transform="translate(3.9707 12)"/>
</clipPath>
</defs>
</svg>
