<svg width="40" height="40" viewBox="0 0 40 40" fill="none" xmlns="http://www.w3.org/2000/svg">
<ellipse cx="19.9824" cy="20" rx="19.9824" ry="20" fill="#F6F8FA"/>
<path d="M20.0176 0.5C30.777 0.5 39.5 9.23003 39.5 20C39.5 30.77 30.777 39.5 20.0176 39.5C9.25815 39.5 0.535156 30.77 0.535156 20C0.535156 9.23004 9.25815 0.500008 20.0176 0.5Z" stroke="black" stroke-opacity="0.05"/>
<path d="M11 11H29.7257C29.7257 11.43 29.7257 11.3594 29.7235 11.5664V25.25L25.7271 25.26C25.4007 25.26 25.4873 25.26 25.2375 25.26V29.93C24.608 29.93 25.0277 29.93 24.608 29.93L11 29.94V11Z" fill="#ED3424"/>
</svg>
