<svg width="40" height="40" viewBox="0 0 40 40" fill="none" xmlns="http://www.w3.org/2000/svg">
<circle cx="20" cy="20" r="20" fill="#00A1E4"/>
<path d="M22.3521 16.3902C22.3628 16.416 22.3843 16.4028 22.4167 16.3504C22.4234 16.3397 22.4263 16.3406 22.4254 16.3532C22.4245 16.3665 22.4188 16.378 22.4083 16.3878C22.4025 16.3933 22.4016 16.3995 22.4055 16.4062C22.4074 16.4095 22.4101 16.4109 22.4135 16.4104C22.4322 16.4083 22.4359 16.4146 22.4247 16.4293C22.4217 16.4332 22.4183 16.4367 22.4146 16.4398C22.4062 16.447 22.4032 16.4559 22.4055 16.4666L22.4209 16.5357C22.4237 16.5474 22.4225 16.5586 22.4174 16.5696C22.3825 16.6433 22.3732 16.723 22.3895 16.8086C22.3904 16.814 22.3926 16.8189 22.3961 16.8233C22.3984 16.8261 22.4016 16.8277 22.4055 16.8282C22.4155 16.8294 22.4213 16.8349 22.423 16.8449C22.4265 16.8656 22.4219 16.8818 22.4094 16.8935C22.4015 16.9011 22.3966 16.9113 22.3957 16.9221C22.3913 16.987 22.3912 17.0512 22.3954 17.1147C22.3998 17.1808 22.4018 17.2437 22.4013 17.3035C22.3997 17.4999 22.407 17.6967 22.4233 17.894C22.4398 18.0927 22.4481 18.2825 22.4481 18.4633C22.4486 19.8758 22.4484 21.2641 22.4477 22.6282C22.4477 22.7166 22.4425 22.8039 22.432 22.89C22.419 22.9958 22.4111 23.0832 22.4083 23.1521C22.3967 23.4485 22.392 23.7833 22.3943 24.1565C22.3943 24.1579 22.3948 24.1593 22.3957 24.1607C22.3985 24.1644 22.4023 24.1663 22.4069 24.1663C22.4146 24.1663 22.4163 24.1695 22.4121 24.176L22.4041 24.1886C22.4007 24.1938 22.3985 24.1997 22.3978 24.2059C22.3972 24.2121 22.398 24.2184 22.4003 24.2242L22.4139 24.2595C22.4188 24.2723 22.4154 24.2825 22.4038 24.2902C22.3847 24.303 22.3793 24.3232 22.3877 24.3509C22.3905 24.3611 22.387 24.3678 22.3772 24.3708C22.371 24.3729 22.3696 24.3766 22.3731 24.382C22.3866 24.4031 22.391 24.4277 22.3863 24.4556C22.3857 24.4594 22.3863 24.4632 22.3879 24.4667C22.3895 24.4701 22.3921 24.4729 22.3954 24.4748C22.4152 24.4857 22.4218 24.5024 22.4153 24.5247C22.4088 24.5463 22.4142 24.5501 22.4317 24.5359C22.434 24.534 22.4365 24.536 22.439 24.5418C22.4418 24.5485 22.4398 24.5534 22.4331 24.5565C22.4147 24.5641 22.4084 24.5758 22.4142 24.5914L21.8342 23.9625C21.8312 23.9591 21.8272 23.9568 21.8229 23.9556C21.8185 23.9545 21.814 23.9546 21.8097 23.956C21.8054 23.9574 21.8016 23.96 21.7988 23.9635C21.796 23.967 21.7942 23.9713 21.7937 23.9757C21.5182 26.5402 21.1806 28.976 20.7809 31.2831C20.739 31.5263 20.4228 31.5417 20.3775 31.3002C20.2923 30.8458 20.2019 30.3051 20.1063 29.678C19.8222 27.8146 19.578 25.9459 19.3738 24.072C19.3734 24.0684 19.3721 24.065 19.3701 24.0619C19.3681 24.0589 19.3653 24.0565 19.3621 24.0548C19.3589 24.0531 19.3553 24.0522 19.3517 24.0522C19.348 24.0523 19.3445 24.0532 19.3413 24.0549C19.3376 24.057 19.3335 24.0596 19.3291 24.0626C19.3174 24.0491 19.3114 24.0198 19.3109 23.9747C19.3109 23.9658 19.3069 23.9596 19.2987 23.9558C19.2934 23.9533 19.288 23.9538 19.2827 23.9576C19.2675 23.9683 19.262 23.9646 19.2659 23.9464C19.2673 23.9399 19.268 23.9333 19.268 23.9265C19.2678 23.9116 19.275 23.9052 19.2896 23.9073C19.2959 23.9082 19.3019 23.9063 19.3074 23.9014C19.3177 23.8923 19.3159 23.8887 19.3022 23.8906C19.275 23.8948 19.2502 23.8875 19.2279 23.8689C19.2153 23.8582 19.2173 23.8519 19.2338 23.8501L19.2579 23.8476C19.266 23.8469 19.2735 23.8441 19.2802 23.8393C19.2905 23.832 19.2919 23.8229 19.2844 23.8117C19.2828 23.8091 19.2806 23.807 19.278 23.8055C19.2753 23.8041 19.2724 23.8033 19.2694 23.8033C19.2557 23.8035 19.2433 23.7998 19.2324 23.7921C19.2215 23.7845 19.2214 23.7767 19.2321 23.7688L19.2771 23.736C19.2882 23.7278 19.2905 23.7176 19.2837 23.7052L19.2711 23.6833C19.2699 23.6809 19.2691 23.6783 19.2691 23.6756C19.269 23.6729 19.2696 23.6703 19.2708 23.6679C19.2914 23.6264 19.2725 23.5925 19.2753 23.5499C19.2834 23.4292 19.275 23.314 19.2855 23.1971C19.2885 23.1617 19.2837 23.124 19.2711 23.084C19.2593 23.0466 19.2606 23.0076 19.275 22.9671C19.2787 22.9571 19.278 22.9474 19.2729 22.9381C19.2585 22.9128 19.2486 22.8851 19.2432 22.8551C19.2395 22.833 19.2405 22.8113 19.2464 22.7902C19.264 22.7255 19.2646 22.6552 19.2481 22.5794C19.2476 22.5777 19.2468 22.5763 19.2457 22.5752C19.2415 22.571 19.2368 22.5706 19.2317 22.5741C19.2314 22.5743 19.2311 22.5743 19.2308 22.5744C19.2305 22.5744 19.2302 22.5743 19.2299 22.5742C19.2297 22.5741 19.2294 22.574 19.2293 22.5738C19.2291 22.5736 19.229 22.5733 19.2289 22.5731C19.2261 22.551 19.2302 22.5332 19.2411 22.5197C19.249 22.5104 19.2529 22.4996 19.2526 22.4872C19.2524 22.4575 19.2578 22.4294 19.2687 22.4031C19.2707 22.3984 19.2714 22.3932 19.2707 22.3881C19.27 22.383 19.268 22.3782 19.2649 22.3742L19.2565 22.364C19.2504 22.3561 19.25 22.348 19.2551 22.3396C19.2653 22.3231 19.265 22.3073 19.254 22.2921C19.25 22.2866 19.2471 22.2804 19.2457 22.2737C19.2442 22.267 19.2442 22.2601 19.2457 22.2534L19.2718 22.1257C19.2737 22.1159 19.273 22.1062 19.2697 22.0967L19.2656 22.0852C19.2621 22.0747 19.2627 22.0646 19.2673 22.0548C19.2747 22.0392 19.2732 22.024 19.2628 22.0091C19.2563 22 19.2533 21.9898 19.254 21.9784C19.2566 21.9344 19.2639 21.8899 19.276 21.8447C19.2784 21.8363 19.278 21.8281 19.275 21.8199C19.2734 21.8158 19.2716 21.8116 19.2697 21.8074C19.2646 21.7953 19.2642 21.7828 19.2684 21.77C19.2758 21.7479 19.2718 21.7296 19.2565 21.7149C19.2507 21.7095 19.2485 21.703 19.2499 21.6954L19.2725 21.5624C19.2749 21.5494 19.2721 21.5377 19.2642 21.5275C19.259 21.5205 19.2595 21.5132 19.2656 21.5055C19.2685 21.5016 19.2703 21.4969 19.2708 21.4919C19.272 21.474 19.2675 21.4577 19.2575 21.443C19.2501 21.4321 19.2474 21.4202 19.2495 21.4074L19.2722 21.2755C19.2729 21.2713 19.2725 21.2672 19.2711 21.2633L19.2656 21.2472C19.2635 21.2407 19.2632 21.2342 19.2649 21.2277C19.2704 21.2042 19.2666 21.1823 19.2533 21.1621C19.2478 21.1537 19.2459 21.1446 19.2478 21.1349L19.275 20.9907C19.2754 20.9879 19.2747 20.9855 19.2729 20.9834C19.2701 20.9799 19.2675 20.9763 19.2652 20.9726C19.2603 20.9644 19.2599 20.9559 19.2638 20.9471C19.2741 20.9241 19.2717 20.9023 19.2568 20.8818C19.2501 20.8725 19.2475 20.8622 19.2492 20.8508C19.2552 20.808 19.2631 20.7664 19.2729 20.7262C19.2754 20.715 19.2744 20.704 19.2697 20.693C19.2653 20.6826 19.2645 20.6718 19.2673 20.6609C19.2736 20.6374 19.2691 20.6162 19.2537 20.5974C19.2456 20.5876 19.2439 20.5768 19.2488 20.5649C19.2695 20.5135 19.2711 20.4634 19.2537 20.4145C19.2516 20.4089 19.2511 20.4028 19.2523 20.3969C19.2534 20.3911 19.2562 20.3857 19.2603 20.3814C19.2799 20.3597 19.283 20.3363 19.2697 20.3112C19.2646 20.3017 19.2618 20.2916 19.2614 20.2809L19.254 20.1262C19.2533 20.1137 19.257 20.1025 19.2649 20.0927C19.2809 20.0734 19.2831 20.0541 19.2715 20.0348C19.2654 20.0248 19.2621 20.0141 19.2614 20.0027L19.254 19.8484C19.2533 19.8368 19.2563 19.8263 19.2628 19.817C19.2686 19.8082 19.2734 19.7988 19.2771 19.7888C19.281 19.7785 19.2801 19.7689 19.2743 19.7598C19.261 19.7386 19.2563 19.7152 19.26 19.6896C19.2653 19.6527 19.264 19.6151 19.2561 19.5769C19.2538 19.566 19.256 19.556 19.2628 19.5469C19.2828 19.5208 19.2856 19.4949 19.2711 19.4691C19.2672 19.4623 19.2651 19.455 19.2649 19.4471L19.2596 19.289C19.2594 19.2774 19.2627 19.267 19.2694 19.2579C19.2836 19.2389 19.2867 19.2197 19.2788 19.2003C19.2732 19.1871 19.2701 19.1725 19.2694 19.1567C19.2668 19.11 19.2649 19.0628 19.2635 19.0154C19.2632 19.0012 19.2668 18.9879 19.2743 18.9756C19.2868 18.9551 19.2884 18.936 19.2788 18.9184C19.2728 18.9072 19.2694 18.8947 19.2687 18.881C19.2659 18.8312 19.2622 18.7832 19.2575 18.7369C19.2561 18.7238 19.2593 18.7121 19.267 18.7016C19.283 18.68 19.2845 18.6589 19.2715 18.6385C19.2654 18.6289 19.2621 18.6183 19.2614 18.6067L19.2537 18.45C19.2532 18.4372 19.2568 18.4256 19.2645 18.4151C19.2785 18.3962 19.278 18.379 19.2631 18.3634C19.2604 18.3607 19.2587 18.3573 19.2582 18.3537L19.2422 18.2483C19.2405 18.2366 19.2417 18.2254 19.2457 18.2144L19.2642 18.1635C19.2679 18.1525 19.2688 18.1414 19.267 18.13C19.2514 18.0385 19.25 17.9456 19.2628 17.8511C19.2644 17.8387 19.2636 17.826 19.2603 17.8138C19.2538 17.7907 19.2552 17.7672 19.2645 17.7433C19.2664 17.7386 19.2665 17.734 19.2649 17.7293C19.2635 17.7244 19.2608 17.7214 19.2568 17.7202C19.2433 17.7167 19.2414 17.71 19.2509 17.7C19.2665 17.6839 19.2696 17.6632 19.2603 17.6379C19.2579 17.6314 19.2574 17.6244 19.2588 17.6177C19.2602 17.6111 19.2636 17.605 19.2684 17.6002L19.2757 17.5932C19.2859 17.5827 19.2914 17.5703 19.2921 17.5559C19.2932 17.5282 19.2974 17.4973 19.3046 17.4634C19.3107 17.4355 19.3122 17.4092 19.3092 17.3845C19.3043 17.344 19.3083 17.3012 19.3211 17.2561C19.3297 17.2263 19.3319 17.1958 19.3277 17.1646C19.3219 17.122 19.3113 17.0801 19.2959 17.0386C19.2809 16.9989 19.2928 16.9563 19.3197 16.9252C19.3229 16.9215 19.3247 16.9167 19.3248 16.9118C19.325 16.9069 19.3234 16.9022 19.3204 16.8983C19.3141 16.8904 19.3148 16.8831 19.3224 16.8764C19.3241 16.8749 19.326 16.8739 19.3281 16.8734C19.3302 16.8728 19.3325 16.8728 19.3347 16.8732C19.39 16.8851 19.4034 16.8748 19.3748 16.8425C19.651 14.309 19.981 11.9157 20.3649 9.66251C20.4068 9.41681 20.7418 9.40425 20.7858 9.66356C21.1862 12.0272 21.5193 14.4402 21.785 16.9025C21.7862 16.9137 21.7899 16.9239 21.7962 16.9332C21.8118 16.9563 21.8289 16.9577 21.8475 16.9374L22.3521 16.3902Z" fill="white"/>
<path d="M17.0802 14.4155L17.0481 14.427C17.0376 14.4308 17.0318 14.4381 17.0306 14.449L17.0254 14.4965C17.0242 14.5077 17.0183 14.5148 17.0076 14.5178C17.0001 14.5199 16.9965 14.5262 16.9968 14.5366C16.9974 14.5601 17.0072 14.5648 17.0261 14.5506C17.0377 14.5417 17.0457 14.5445 17.0501 14.559C17.0505 14.5602 17.0506 14.5615 17.0504 14.5627C17.0502 14.564 17.0498 14.5652 17.0491 14.5662C17.0484 14.5673 17.0475 14.5682 17.0464 14.5689C17.0453 14.5696 17.0441 14.57 17.0428 14.5701C17.0121 14.5727 16.9935 14.5861 16.987 14.6103C16.9864 14.6126 16.9862 14.615 16.9867 14.6173C16.9871 14.6197 16.988 14.6219 16.9893 14.6239C16.9907 14.6258 16.9925 14.6275 16.9945 14.6287C16.9966 14.6299 16.9989 14.6306 17.0013 14.6309C17.0083 14.6316 17.0119 14.635 17.0121 14.6413C17.0128 14.6506 17.0099 14.6587 17.0034 14.6654C16.965 14.7045 16.9425 14.7479 16.936 14.7956C16.9238 14.8828 16.8781 14.9537 16.8753 15.0381C16.8674 15.2864 16.8638 15.5373 16.8645 15.7909C16.8645 15.8248 16.8551 15.8586 16.8547 15.8928C16.8528 16.0915 16.8517 16.287 16.8512 16.4792C16.8512 16.4904 16.8471 16.5014 16.8397 16.5102C16.8376 16.5128 16.8353 16.515 16.8327 16.5169C16.8211 16.5262 16.8214 16.5348 16.8338 16.5427C16.8519 16.5543 16.8591 16.5712 16.8554 16.5933C16.8459 16.6496 16.8431 16.7044 16.847 16.7577C16.8477 16.7684 16.8442 16.7776 16.8366 16.7852L16.8243 16.7974C16.8224 16.7994 16.8208 16.8018 16.8198 16.8044C16.8188 16.8071 16.8183 16.8099 16.8184 16.8127C16.8185 16.8155 16.8191 16.8183 16.8203 16.8208C16.8216 16.8233 16.8233 16.8256 16.8254 16.8275C16.8305 16.8319 16.8345 16.8371 16.8373 16.8432C16.8412 16.852 16.8383 16.8558 16.8285 16.8547C16.825 16.8542 16.8217 16.8545 16.8184 16.8554C16.8142 16.8565 16.8104 16.8589 16.8075 16.8622C16.8046 16.8655 16.8028 16.8696 16.8024 16.8739C16.7998 16.9006 16.804 16.924 16.8149 16.944C16.8174 16.9485 16.8209 16.9523 16.8252 16.9551C16.8294 16.958 16.8343 16.9598 16.8394 16.9604C16.8487 16.9618 16.8566 16.9661 16.8631 16.9733C16.8722 16.9838 16.8701 16.9911 16.8568 16.9953C16.8514 16.9972 16.8496 17.0011 16.8512 17.0072C16.8552 17.0223 16.8492 17.0298 16.8334 17.0295L16.7894 17.0288C15.8188 15.3234 14.891 13.595 14.0062 11.8437C13.9657 11.7638 13.9517 11.6546 14.0152 11.5834C14.1311 11.4542 14.2672 11.537 14.3719 11.6399C14.9299 12.1872 15.3413 12.5998 15.6063 12.8778C15.9183 13.2054 16.2309 13.5324 16.5441 13.8589C16.7223 14.0448 16.901 14.2303 17.0802 14.4155Z" fill="white"/>
<path d="M25.4118 19.016C25.4134 19.0055 25.4091 18.9971 25.3989 18.9909C25.3893 18.9848 25.3807 18.9846 25.3731 18.9902C25.3691 18.9932 25.3676 18.9923 25.3685 18.9874C25.369 18.9841 25.3685 18.9811 25.3671 18.9783C25.365 18.9739 25.3661 18.9706 25.3703 18.9685C25.4007 18.952 25.4042 18.9316 25.3807 18.9075C25.374 18.9007 25.3747 18.8947 25.3828 18.8893L25.3933 18.8827C25.4059 18.8743 25.4069 18.8648 25.3964 18.8541C25.3869 18.8443 25.3778 18.844 25.3692 18.8534C25.3592 18.8641 25.3509 18.8628 25.3444 18.8495C25.3342 18.8297 25.3328 18.8121 25.3402 18.7965C25.3458 18.7851 25.3548 18.7812 25.3671 18.785C25.3713 18.7861 25.3755 18.7859 25.3797 18.7843C25.3941 18.7787 25.4006 18.7682 25.3992 18.7528C25.3961 18.711 25.4076 18.6687 25.4062 18.6258C25.3925 18.1181 25.3927 17.6266 25.4069 17.1513C25.4132 16.9435 25.4173 16.7438 25.4195 16.5538C25.426 15.9984 25.4217 15.3781 25.4066 14.6929C25.4047 14.6075 25.4038 14.5221 25.4038 14.4368C25.4035 14.2723 25.4002 14.091 25.3936 13.893C25.3922 13.8521 25.3767 13.8252 25.3469 13.8124C25.3322 13.8061 25.3311 13.798 25.3434 13.788C25.3459 13.7859 25.3489 13.7845 25.3521 13.7838C25.3712 13.7807 25.3737 13.7726 25.3598 13.7593C25.3058 13.7093 25.3022 13.6702 25.349 13.6421C25.523 13.6058 25.6446 13.5876 25.7137 13.5876C27.1613 13.5872 28.5926 13.5874 30.0074 13.5883C30.017 13.5884 30.0265 13.5905 30.0351 13.5947C30.0438 13.5989 30.0514 13.605 30.0574 13.6125C30.0634 13.62 30.0676 13.6287 30.0698 13.6381C30.0719 13.6474 30.072 13.6571 30.0699 13.6665C30.0608 13.7056 30.0399 13.7439 30.0071 13.7813C28.4738 15.5247 26.942 17.2696 25.4118 19.016Z" fill="white"/>
<path d="M25.3488 13.6422C25.3021 13.6704 25.3057 13.7095 25.3596 13.7595C25.3736 13.7727 25.371 13.7809 25.352 13.7839C25.3487 13.7846 25.3458 13.786 25.3432 13.7881C25.3309 13.7981 25.3321 13.8062 25.3467 13.8125C25.3765 13.8253 25.3921 13.8522 25.3935 13.8931C25.4 14.0911 25.4034 14.2724 25.4036 14.4369C25.4036 14.5223 25.4045 14.6077 25.4064 14.6931C25.4215 15.3783 25.4258 15.9985 25.4193 16.5539C25.4172 16.7439 25.413 16.9436 25.4068 17.1514C25.3926 17.6268 25.3923 18.1183 25.4061 18.6259C25.4075 18.6689 25.3959 18.7111 25.3991 18.753C25.4005 18.7683 25.394 18.7788 25.3795 18.7844C25.3753 18.786 25.3712 18.7862 25.367 18.7851C25.3546 18.7814 25.3457 18.7852 25.3401 18.7966C25.3327 18.8122 25.3341 18.8299 25.3443 18.8496C25.3508 18.8629 25.3591 18.8642 25.3691 18.8535C25.3777 18.8442 25.3867 18.8444 25.3963 18.8542C25.4068 18.8649 25.4057 18.8744 25.3931 18.8828L25.3827 18.8894C25.3745 18.8948 25.3738 18.9008 25.3806 18.9076C25.4041 18.9318 25.4006 18.9521 25.3701 18.9687C25.3659 18.9708 25.3649 18.974 25.367 18.9784C25.3684 18.9812 25.3688 18.9842 25.3684 18.9875C25.3674 18.9924 25.3689 18.9933 25.3729 18.9903C25.3806 18.9847 25.3892 18.9849 25.3987 18.991C25.409 18.9973 25.4133 19.0057 25.4116 19.0161L24.3632 20.2118C24.3156 20.213 24.3097 20.1978 24.3458 20.1664C24.3544 20.1592 24.355 20.1513 24.3475 20.1427C24.3364 20.1304 24.3353 20.117 24.3444 20.1026C24.3514 20.0914 24.3487 20.0834 24.3364 20.0785C24.3268 20.075 24.3181 20.0762 24.3102 20.082C24.3037 20.0869 24.2978 20.0863 24.2924 20.0802C24.2868 20.0744 24.285 20.0672 24.2868 20.0586C24.2876 20.0547 24.2892 20.0511 24.2917 20.0481C24.2941 20.045 24.2972 20.0426 24.3008 20.0411C24.3136 20.0353 24.3201 20.0252 24.3203 20.0108C24.3206 19.9984 24.3167 19.9876 24.3088 19.9783C24.3035 19.972 24.3028 19.9653 24.3067 19.9581C24.323 19.9281 24.3194 19.9047 24.2959 19.8879C24.284 19.8795 24.2851 19.8732 24.299 19.8687C24.3109 19.865 24.3166 19.8571 24.3161 19.845C24.2959 19.2091 24.2994 18.6564 24.3266 18.1869C24.3366 18.0159 24.3409 17.8975 24.3395 17.8316C24.3393 17.8251 24.3409 17.819 24.3444 17.8135C24.3472 17.8093 24.3486 17.8059 24.3486 17.8033C24.3486 17.4583 24.3486 17.1133 24.3486 16.7682C24.3486 16.6191 24.3449 16.4833 24.3374 16.3609C24.3267 16.1913 24.3207 16.0521 24.3193 15.9432C24.3139 15.5593 24.309 15.1751 24.3046 14.7908C24.3044 14.7638 24.2909 14.753 24.2641 14.7583C24.2425 14.7625 24.2384 14.7559 24.2519 14.7384C24.2691 14.7159 24.2766 14.6907 24.2743 14.663C24.274 14.6582 24.2761 14.6545 24.2805 14.6522C24.2815 14.6515 24.2825 14.6513 24.2837 14.6515C24.2953 14.6525 24.2998 14.647 24.2973 14.6351C24.2968 14.633 24.2958 14.6314 24.2941 14.6302C24.28 14.6195 24.2796 14.6089 24.2931 14.5985C24.3173 14.5796 24.3201 14.5559 24.3015 14.5273C24.2988 14.5234 24.2973 14.5189 24.2972 14.5142C24.297 14.5095 24.2981 14.5048 24.3004 14.5008C24.3172 14.4717 24.3263 14.439 24.3276 14.4027C24.3281 14.389 24.3216 14.3831 24.3081 14.3852C24.3023 14.3859 24.2976 14.3837 24.2941 14.3786C24.2931 14.3772 24.2925 14.3755 24.2921 14.3738C24.2917 14.372 24.2917 14.3702 24.2921 14.3685C24.2932 14.3622 24.2971 14.3585 24.3036 14.3573C24.3071 14.3566 24.3103 14.3547 24.3124 14.3518C24.3145 14.349 24.3155 14.3454 24.3151 14.342C24.3146 14.3368 24.3125 14.3328 24.3088 14.3297C24.3037 14.3256 24.2988 14.3257 24.2941 14.3301C24.2802 14.3434 24.2646 14.3463 24.2474 14.3388C24.36 14.2081 24.4597 14.1043 24.5465 14.0275C24.7694 13.8302 25.0368 13.7018 25.3488 13.6422Z" fill="white"/>
<path d="M24.3636 20.2118C24.3226 20.2599 24.2837 20.3091 24.247 20.3594C24.2021 20.4204 24.2018 20.4828 24.2463 20.5468C24.2958 20.618 24.3498 20.6864 24.4082 20.752C24.388 20.7616 24.3649 20.7642 24.3391 20.7601C24.3121 20.7554 24.3098 20.761 24.3321 20.7768C24.3398 20.7824 24.343 20.7902 24.3416 20.8002C24.3392 20.8158 24.3455 20.8215 24.3604 20.8173C24.3648 20.8159 24.3693 20.8168 24.3737 20.8201C24.3832 20.8271 24.3822 20.8295 24.3705 20.8274C24.3638 20.8262 24.3576 20.8278 24.352 20.8319C24.3404 20.8406 24.3385 20.8509 24.3464 20.863C24.3604 20.8851 24.3802 20.9026 24.4058 20.9154C24.4176 20.9214 24.4222 20.9309 24.4194 20.944L24.4159 20.9614C24.4133 20.9735 24.4061 20.9812 24.3943 20.9845C24.3682 20.9917 24.3588 21.0094 24.366 21.0375C24.3675 21.0434 24.3678 21.0496 24.3668 21.0556C24.3657 21.0616 24.3635 21.0674 24.3601 21.0724C24.3373 21.1073 24.3224 21.1467 24.3154 21.1907C24.3102 21.2256 24.3307 21.2497 24.3217 21.2853C24.3159 21.3083 24.3132 21.3312 24.3136 21.354C24.3155 21.4504 24.3141 21.5554 24.3095 21.6692C24.296 21.9877 24.3032 22.402 24.3311 22.912C24.3441 23.1491 24.3504 23.3715 24.3499 23.5793C24.3492 23.9387 24.3573 24.3146 24.3346 24.6807C24.3255 24.8282 24.3213 24.9721 24.322 25.1124C24.322 25.121 24.3198 25.129 24.3154 25.1362C24.3128 25.1404 24.3115 25.1449 24.3115 25.1498C24.3178 25.57 24.3157 25.9507 24.3053 26.3291C24.305 26.3416 24.2986 26.3478 24.2861 26.3476C24.2642 26.3473 24.252 26.3379 24.2494 26.3193C24.2476 26.3056 24.2437 26.305 24.2379 26.3175C24.2321 26.3301 24.2223 26.3371 24.2086 26.3385C24.1932 26.3401 24.1932 26.3422 24.2086 26.3448C24.2125 26.3452 24.2164 26.345 24.2201 26.3441C24.2226 26.3435 24.2252 26.3435 24.2277 26.3443C24.2302 26.345 24.2324 26.3464 24.2342 26.3483C24.236 26.3501 24.2372 26.3524 24.2378 26.355C24.2384 26.3575 24.2383 26.3601 24.2376 26.3626C24.2259 26.4019 24.2307 26.4381 24.2519 26.4711C24.2537 26.4741 24.2538 26.4771 24.2522 26.4802C24.2497 26.4855 24.2452 26.4873 24.239 26.4854C24.2355 26.4842 24.2343 26.4854 24.2355 26.4889C24.2366 26.4926 24.2387 26.4944 24.2417 26.4941C24.2555 26.493 24.2571 26.4969 24.2466 26.506C24.2424 26.5095 24.2405 26.514 24.2407 26.5196C24.2407 26.5257 24.2438 26.5284 24.2501 26.528C24.2548 26.5273 24.2592 26.5283 24.2634 26.5311C24.2704 26.5355 24.2735 26.5418 24.2728 26.55C24.2719 26.5644 24.2785 26.5728 24.2927 26.5751C24.2974 26.5758 24.2976 26.5773 24.2934 26.5796C24.2922 26.5801 24.2913 26.581 24.2906 26.5824C24.288 26.5871 24.2889 26.5914 24.2931 26.5953C24.3396 26.6402 24.3753 26.6886 24.4002 26.7405L22.4137 24.5914C22.4079 24.5758 22.4142 24.5642 22.4325 24.5565C22.4393 24.5535 22.4413 24.5486 22.4385 24.5418C22.4359 24.536 22.4335 24.534 22.4311 24.5359C22.4137 24.5501 22.4082 24.5464 22.4147 24.5247C22.4212 24.5024 22.4146 24.4857 22.3948 24.4748C22.3916 24.473 22.389 24.4701 22.3873 24.4667C22.3857 24.4633 22.3852 24.4594 22.3858 24.4556C22.3904 24.4277 22.386 24.4032 22.3725 24.382C22.369 24.3766 22.3704 24.3729 22.3767 24.3708C22.3865 24.3678 22.39 24.3612 22.3872 24.3509C22.3788 24.3232 22.3841 24.303 22.4032 24.2902C22.4148 24.2825 22.4182 24.2723 22.4133 24.2595L22.3997 24.2242C22.3975 24.2184 22.3966 24.2122 22.3973 24.206C22.398 24.1998 22.4001 24.1938 22.4036 24.1886L22.4116 24.1761C22.4158 24.1696 22.414 24.1663 22.4064 24.1663C22.4017 24.1663 22.398 24.1644 22.3952 24.1607C22.3943 24.1593 22.3938 24.1579 22.3938 24.1565C22.3915 23.7833 22.3961 23.4485 22.4078 23.1521C22.4105 23.0832 22.4185 22.9959 22.4315 22.89C22.442 22.8039 22.4472 22.7167 22.4472 22.6283C22.4479 21.2641 22.448 19.8758 22.4475 18.4633C22.4475 18.2825 22.4393 18.0928 22.4228 17.8941C22.4065 17.6968 22.3991 17.4999 22.4008 17.3035C22.4012 17.2438 22.3993 17.1808 22.3948 17.1147C22.3907 17.0512 22.3908 16.987 22.3952 16.9221C22.3961 16.9113 22.4009 16.9011 22.4088 16.8935C22.4214 16.8818 22.4259 16.8657 22.4224 16.845C22.4208 16.835 22.415 16.8294 22.405 16.8282C22.401 16.8277 22.3979 16.8261 22.3955 16.8233C22.392 16.8189 22.3898 16.814 22.3889 16.8087C22.3726 16.723 22.3819 16.6434 22.4168 16.5696C22.4219 16.5587 22.4231 16.5474 22.4203 16.5357L22.405 16.4666C22.4026 16.4559 22.4057 16.447 22.414 16.4398C22.4178 16.4367 22.4211 16.4333 22.4242 16.4293C22.4353 16.4146 22.4316 16.4084 22.413 16.4105C22.4095 16.4109 22.4068 16.4095 22.405 16.4063C22.401 16.3995 22.4019 16.3934 22.4078 16.3878C22.4182 16.378 22.4239 16.3665 22.4249 16.3532C22.4258 16.3407 22.4229 16.3397 22.4161 16.3504C22.3838 16.4028 22.3623 16.416 22.3516 16.3902L24.2477 14.3388C24.2649 14.3462 24.2805 14.3433 24.2944 14.3301C24.2991 14.3256 24.304 14.3255 24.3091 14.3297C24.3128 14.3327 24.3149 14.3368 24.3154 14.3419C24.3158 14.3454 24.3148 14.3489 24.3127 14.3518C24.3106 14.3546 24.3074 14.3566 24.3039 14.3573C24.2974 14.3585 24.2935 14.3622 24.2924 14.3685C24.292 14.3702 24.292 14.372 24.2924 14.3738C24.2928 14.3755 24.2935 14.3771 24.2944 14.3786C24.2979 14.3837 24.3026 14.3859 24.3084 14.3852C24.3219 14.3831 24.3284 14.3889 24.328 14.4027C24.3266 14.439 24.3175 14.4716 24.3007 14.5007C24.2984 14.5048 24.2973 14.5095 24.2975 14.5141C24.2977 14.5188 24.2991 14.5234 24.3018 14.5273C24.3204 14.5559 24.3176 14.5796 24.2934 14.5984C24.2799 14.6089 24.2803 14.6195 24.2944 14.6302C24.2961 14.6314 24.2971 14.633 24.2976 14.6351C24.3001 14.647 24.2956 14.6524 24.284 14.6515C24.2828 14.6513 24.2818 14.6515 24.2808 14.6522C24.2764 14.6545 24.2743 14.6581 24.2746 14.663C24.2769 14.6907 24.2694 14.7158 24.2522 14.7384C24.2387 14.7558 24.2428 14.7625 24.2644 14.7583C24.2912 14.7529 24.3047 14.7638 24.3049 14.7907C24.3093 15.1751 24.3142 15.5592 24.3196 15.9431C24.321 16.052 24.327 16.1913 24.3377 16.3609C24.3452 16.4833 24.3489 16.619 24.3489 16.7682C24.3489 17.1132 24.3489 17.4583 24.3489 17.8033C24.3489 17.8059 24.3475 17.8093 24.3447 17.8134C24.3412 17.819 24.3396 17.8251 24.3398 17.8316C24.3412 17.8974 24.3369 18.0159 24.3269 18.1869C24.2997 18.6564 24.2962 19.2091 24.3164 19.845C24.3169 19.8571 24.3112 19.865 24.2993 19.8687C24.2854 19.8731 24.2843 19.8795 24.2962 19.8879C24.3197 19.9047 24.3233 19.928 24.307 19.958C24.3031 19.9653 24.3038 19.972 24.3091 19.9783C24.317 19.9876 24.3209 19.9984 24.3206 20.0107C24.3204 20.0252 24.3139 20.0353 24.3011 20.0411C24.2975 20.0426 24.2944 20.045 24.292 20.048C24.2895 20.0511 24.2879 20.0547 24.2871 20.0586C24.2853 20.0672 24.2871 20.0744 24.2927 20.0802C24.2981 20.0862 24.304 20.0868 24.3105 20.0819C24.3184 20.0761 24.3271 20.075 24.3367 20.0785C24.349 20.0833 24.3517 20.0914 24.3447 20.1025C24.3356 20.117 24.3367 20.1303 24.3478 20.1427C24.3553 20.1513 24.3547 20.1592 24.3461 20.1664C24.31 20.1978 24.3159 20.2129 24.3636 20.2118Z" fill="white"/>
<path d="M17.0804 14.4155C17.8352 15.2194 18.5845 16.0311 19.3283 16.8505C19.3319 16.8545 19.3365 16.8575 19.3417 16.8592C19.3468 16.8608 19.3523 16.8611 19.3576 16.8599C19.3644 16.8583 19.37 16.8525 19.3744 16.8425C19.403 16.8748 19.3896 16.8851 19.3343 16.8732C19.3321 16.8728 19.3298 16.8728 19.3277 16.8734C19.3256 16.8739 19.3237 16.8749 19.322 16.8763C19.3144 16.8831 19.3137 16.8904 19.3199 16.8983C19.323 16.9021 19.3246 16.9069 19.3244 16.9118C19.3243 16.9167 19.3225 16.9214 19.3192 16.9252C19.2924 16.9563 19.2805 16.9988 19.2955 17.0386C19.3109 17.08 19.3215 17.122 19.3273 17.1646C19.3315 17.1958 19.3293 17.2263 19.3206 17.256C19.3078 17.3012 19.3039 17.344 19.3088 17.3845C19.3118 17.4091 19.3103 17.4354 19.3042 17.4633C19.297 17.4973 19.2928 17.5281 19.2917 17.5558C19.291 17.5703 19.2855 17.5827 19.2753 17.5932L19.2679 17.6002C19.2631 17.6049 19.2598 17.611 19.2584 17.6177C19.257 17.6244 19.2575 17.6314 19.2599 17.6378C19.2692 17.6632 19.2661 17.6839 19.2505 17.7C19.241 17.71 19.2429 17.7167 19.2564 17.7202C19.2604 17.7214 19.2631 17.7244 19.2645 17.7293C19.2661 17.7339 19.266 17.7386 19.2641 17.7432C19.2548 17.7672 19.2534 17.7907 19.2599 17.8137C19.2631 17.826 19.264 17.8386 19.2624 17.8511C19.2496 17.9456 19.251 18.0385 19.2665 18.1299C19.2684 18.1413 19.2675 18.1525 19.2638 18.1634L19.2453 18.2144C19.2413 18.2253 19.2401 18.2366 19.2418 18.2483L19.2578 18.3536C19.2583 18.3573 19.26 18.3607 19.2627 18.3634C19.2776 18.379 19.2781 18.3962 19.2641 18.4151C19.2564 18.4255 19.2528 18.4372 19.2533 18.45L19.261 18.6067C19.2617 18.6183 19.265 18.6289 19.2711 18.6384C19.2841 18.6589 19.2826 18.68 19.2665 18.7016C19.2589 18.7121 19.2557 18.7238 19.2571 18.7369C19.2618 18.7832 19.2655 18.8312 19.2683 18.881C19.269 18.8947 19.2724 18.9072 19.2784 18.9183C19.288 18.936 19.2864 18.9551 19.2739 18.9756C19.2664 18.9879 19.2628 19.0012 19.2631 19.0154C19.2645 19.0628 19.2664 19.1099 19.269 19.1567C19.2697 19.1725 19.2728 19.1871 19.2784 19.2003C19.2863 19.2196 19.2832 19.2388 19.269 19.2579C19.2622 19.267 19.259 19.2773 19.2592 19.289L19.2645 19.4471C19.2647 19.455 19.2668 19.4623 19.2707 19.4691C19.2852 19.4949 19.2824 19.5208 19.2624 19.5469C19.2556 19.556 19.2534 19.566 19.2557 19.5769C19.2636 19.6151 19.2649 19.6526 19.2596 19.6896C19.2558 19.7152 19.2606 19.7386 19.2739 19.7598C19.2797 19.7688 19.2806 19.7785 19.2767 19.7887C19.2729 19.7987 19.2682 19.8082 19.2624 19.817C19.2558 19.8263 19.2529 19.8368 19.2536 19.8484L19.261 20.0027C19.2617 20.0141 19.265 20.0248 19.2711 20.0348C19.2827 20.0541 19.2805 20.0734 19.2645 20.0927C19.2565 20.1025 19.2529 20.1137 19.2536 20.1262L19.261 20.2808C19.2614 20.2915 19.2642 20.3017 19.2693 20.3112C19.2826 20.3363 19.2795 20.3597 19.2599 20.3813C19.2558 20.3857 19.253 20.3911 19.2519 20.3969C19.2507 20.4028 19.2512 20.4089 19.2533 20.4145C19.2707 20.4634 19.2691 20.5135 19.2484 20.5649C19.2435 20.5768 19.2451 20.5876 19.2533 20.5974C19.2686 20.6162 19.2732 20.6374 19.2669 20.6609C19.2641 20.6718 19.2649 20.6825 19.2693 20.693C19.274 20.7039 19.275 20.715 19.2725 20.7262C19.2627 20.7664 19.2548 20.8079 19.2487 20.8507C19.2471 20.8621 19.2497 20.8725 19.2564 20.8818C19.2713 20.9023 19.2736 20.924 19.2634 20.9471C19.2595 20.9559 19.2599 20.9644 19.2648 20.9725C19.2671 20.9763 19.2697 20.9799 19.2725 20.9834C19.2743 20.9855 19.275 20.9879 19.2746 20.9907L19.2474 21.1348C19.2455 21.1446 19.2474 21.1537 19.2529 21.1621C19.2662 21.1823 19.27 21.2042 19.2645 21.2277C19.2628 21.2342 19.2631 21.2407 19.2652 21.2472L19.2707 21.2633C19.2721 21.2672 19.2725 21.2713 19.2718 21.2755L19.2491 21.4074C19.247 21.4202 19.2497 21.4321 19.2571 21.443C19.2671 21.4577 19.2716 21.4739 19.2704 21.4919C19.2699 21.4969 19.2681 21.5016 19.2652 21.5055C19.2591 21.5132 19.2586 21.5205 19.2638 21.5275C19.2717 21.5377 19.2745 21.5493 19.2721 21.5624L19.2494 21.6953C19.2481 21.703 19.2503 21.7095 19.2561 21.7149C19.2714 21.7295 19.2754 21.7479 19.2679 21.77C19.2638 21.7828 19.2642 21.7953 19.2693 21.8074C19.2712 21.8115 19.2729 21.8157 19.2746 21.8199C19.2776 21.8281 19.2779 21.8363 19.2756 21.8447C19.2635 21.8898 19.2562 21.9344 19.2536 21.9784C19.2529 21.9898 19.2558 22 19.2624 22.0091C19.2728 22.024 19.2743 22.0392 19.2669 22.0548C19.2622 22.0646 19.2617 22.0747 19.2652 22.0852L19.2693 22.0967C19.2726 22.1062 19.2733 22.1159 19.2714 22.1256L19.2453 22.2534C19.2438 22.2601 19.2438 22.267 19.2453 22.2737C19.2467 22.2803 19.2496 22.2866 19.2536 22.2921C19.2646 22.3072 19.2649 22.3231 19.2547 22.3396C19.2496 22.348 19.25 22.3561 19.2561 22.364L19.2645 22.3741C19.2676 22.3782 19.2696 22.383 19.2703 22.388C19.271 22.3931 19.2703 22.3983 19.2683 22.4031C19.2574 22.4294 19.252 22.4574 19.2522 22.4872C19.2525 22.4995 19.2486 22.5104 19.2407 22.5197C19.2298 22.5332 19.2257 22.551 19.2285 22.5731C19.2286 22.5733 19.2287 22.5736 19.2289 22.5738C19.229 22.5739 19.2293 22.5741 19.2295 22.5742C19.2298 22.5743 19.2301 22.5743 19.2304 22.5743C19.2307 22.5743 19.231 22.5742 19.2313 22.5741C19.2364 22.5706 19.2411 22.571 19.2453 22.5752C19.2464 22.5763 19.2472 22.5777 19.2477 22.5793C19.2642 22.6552 19.2636 22.7255 19.246 22.7901C19.2401 22.8113 19.2391 22.833 19.2428 22.8551C19.2482 22.8851 19.2581 22.9128 19.2725 22.9381C19.2776 22.9474 19.2783 22.9571 19.2746 22.9671C19.2602 23.0076 19.2589 23.0465 19.2707 23.084C19.2833 23.124 19.2881 23.1617 19.285 23.1971C19.2746 23.314 19.283 23.4292 19.2749 23.5499C19.2721 23.5925 19.291 23.6264 19.2704 23.6679C19.2692 23.6703 19.2686 23.6729 19.2687 23.6756C19.2687 23.6782 19.2694 23.6809 19.2707 23.6832L19.2833 23.7052C19.29 23.7176 19.2878 23.7278 19.2767 23.7359L19.2316 23.7687C19.2209 23.7767 19.2211 23.7844 19.232 23.7921C19.2429 23.7998 19.2553 23.8035 19.269 23.8033C19.272 23.8033 19.2749 23.804 19.2775 23.8055C19.2802 23.807 19.2824 23.8091 19.284 23.8117C19.2914 23.8228 19.29 23.832 19.2798 23.8392C19.2731 23.8441 19.2656 23.8469 19.2575 23.8476L19.2334 23.8501C19.2169 23.8519 19.2149 23.8582 19.2275 23.8689C19.2498 23.8875 19.2746 23.8947 19.3018 23.8905C19.3155 23.8887 19.3173 23.8923 19.307 23.9014C19.3014 23.9062 19.2955 23.9082 19.2892 23.9073C19.2746 23.9052 19.2674 23.9116 19.2676 23.9265C19.2676 23.9332 19.2669 23.9399 19.2655 23.9464C19.2615 23.9645 19.2671 23.9683 19.2823 23.9576C19.2876 23.9538 19.293 23.9532 19.2983 23.9558C19.3065 23.9595 19.3105 23.9658 19.3105 23.9747C19.311 24.0198 19.317 24.0491 19.3287 24.0626L16.6581 26.945C16.6572 26.902 16.6424 26.8661 16.6138 26.8375C16.5929 26.817 16.5968 26.8096 16.6257 26.8152C16.641 26.818 16.655 26.8175 16.6675 26.8138C16.6775 26.811 16.6786 26.8062 16.6707 26.7995C16.6581 26.789 16.6515 26.7755 16.6508 26.759C16.6504 26.7503 16.656 26.7482 16.6637 26.7489C16.6695 26.7493 16.6724 26.7525 16.6724 26.7583C16.6724 26.7625 16.6716 26.7665 16.67 26.7705C16.6697 26.7713 16.6696 26.7722 16.6697 26.773C16.6698 26.7739 16.6701 26.7747 16.6706 26.7754C16.6711 26.7761 16.6717 26.7766 16.6725 26.7769C16.6732 26.7772 16.6741 26.7773 16.6749 26.7771C16.6923 26.7755 16.7052 26.7826 16.7136 26.7984C16.7231 26.8173 16.7316 26.8168 16.7391 26.797C16.7412 26.7919 16.7414 26.7867 16.7398 26.7813C16.7368 26.7697 16.7292 26.7644 16.7171 26.7656C16.7099 26.7665 16.703 26.7646 16.6965 26.7597C16.6853 26.7518 16.6864 26.7464 16.6997 26.7436L16.7558 26.7321C16.7684 26.7295 16.7747 26.7218 16.7747 26.7087V26.6232C16.7747 26.6183 16.7758 26.6135 16.778 26.6091C16.7802 26.6048 16.7834 26.601 16.7874 26.5981C16.7913 26.5952 16.7959 26.5933 16.8007 26.5925C16.8056 26.5917 16.8105 26.5921 16.8152 26.5936C16.8273 26.5973 16.838 26.5954 16.8473 26.588C16.8516 26.5844 16.8549 26.5797 16.8568 26.5744C16.8587 26.569 16.8591 26.5632 16.8581 26.5576C16.8513 26.5206 16.8487 26.4823 16.8501 26.4428C16.8581 26.2051 16.8434 25.9688 16.8497 25.7326C16.859 25.391 16.8614 25.0257 16.8567 24.6367C16.856 24.566 16.8524 24.4952 16.8459 24.4245C16.8447 24.4129 16.8399 24.4029 16.8316 24.3945C16.8141 24.3773 16.8005 24.3563 16.7907 24.3317C16.7905 24.3307 16.7907 24.3298 16.7914 24.3289L16.7977 24.3226C16.8059 24.3145 16.8054 24.3069 16.7963 24.2999C16.7898 24.2948 16.7856 24.2876 16.7838 24.2783C16.7817 24.2662 16.777 24.2651 16.7698 24.2751C16.7644 24.2826 16.7565 24.2856 16.7461 24.2842C16.7405 24.2833 16.7385 24.2801 16.7401 24.2748C16.7415 24.2697 16.7404 24.2649 16.7366 24.2605C16.7338 24.2572 16.73 24.2551 16.7257 24.2545C16.7214 24.2538 16.717 24.2547 16.7133 24.257C16.7005 24.2647 16.6879 24.2744 16.6756 24.2863C16.6656 24.2961 16.6675 24.3004 16.6815 24.2992C16.6873 24.2988 16.6915 24.3015 16.6941 24.3076C16.6978 24.3167 16.695 24.3195 16.6857 24.316C16.6636 24.3078 16.6447 24.2963 16.6292 24.2814C16.6287 24.281 16.6284 24.2804 16.6282 24.2798C16.628 24.2792 16.628 24.2785 16.6282 24.2779C16.6284 24.2773 16.6288 24.2768 16.6292 24.2763C16.6297 24.2759 16.6303 24.2756 16.6309 24.2755C16.6428 24.2739 16.6532 24.2697 16.6623 24.2629C16.6732 24.2548 16.6731 24.2468 16.662 24.2388C16.6561 24.2349 16.6529 24.2288 16.6522 24.2207C16.6517 24.2121 16.6544 24.2046 16.6602 24.1984C16.667 24.1909 16.6742 24.1879 16.6819 24.1893C16.6946 24.1916 16.7021 24.1864 16.7042 24.1736C16.7102 24.1368 16.6949 24.1183 16.6581 24.1181L17.4643 22.698C17.4662 22.6946 17.4671 22.6907 17.4669 22.6868C17.4667 22.6829 17.4654 22.6791 17.4631 22.676C17.4609 22.6728 17.4577 22.6703 17.4541 22.6688C17.4505 22.6674 17.4465 22.6669 17.4427 22.6676L17.2319 22.7092C17.2051 22.7043 17.2055 22.6975 17.2329 22.6889C17.2453 22.6852 17.2465 22.6793 17.2368 22.6711C17.2286 22.6642 17.2223 22.6546 17.2179 22.6425C17.2164 22.6381 17.2164 22.6334 17.2178 22.629C17.2193 22.6245 17.2221 22.6207 17.2259 22.6181C17.2399 22.6083 17.2428 22.5959 17.2347 22.5807C17.2284 22.5693 17.2308 22.5603 17.242 22.5535C17.2469 22.5507 17.2506 22.5464 17.2532 22.5406C17.2581 22.5301 17.2548 22.5258 17.2434 22.5277C17.2362 22.5291 17.2293 22.5314 17.2228 22.5347C17.2197 22.5363 17.2163 22.5371 17.2128 22.5369C17.2093 22.5368 17.206 22.5356 17.2031 22.5337C17.2002 22.5317 17.1978 22.529 17.1963 22.5258C17.1948 22.5226 17.1942 22.519 17.1945 22.5155C17.2127 22.3289 17.2162 22.1446 17.205 21.9627C17.1971 21.8321 17.2008 21.6944 17.2162 21.5494C17.225 21.4662 17.23 21.3868 17.2312 21.3114C17.2326 21.2346 17.2359 21.1557 17.2413 21.0745C17.2415 21.0707 17.2435 21.0688 17.2472 21.0685C17.251 21.0685 17.253 21.0704 17.2535 21.0741C17.2617 21.1644 17.2662 21.2549 17.2671 21.3456C17.2688 21.5183 17.2706 21.6957 17.2727 21.8779C17.2743 22.0414 17.272 22.1909 17.2657 22.3263C17.2633 22.3776 17.2919 22.4108 17.2793 22.4642C17.2789 22.4656 17.2793 22.4665 17.2807 22.467C17.2819 22.4674 17.2831 22.4676 17.2842 22.4673C17.2863 22.4669 17.2874 22.4656 17.2874 22.4635C17.2871 22.4111 17.2883 22.3604 17.2909 22.3113C17.2941 22.2536 17.2952 22.203 17.294 22.1595C17.2853 21.8531 17.3006 21.5501 17.2919 21.2469C17.2891 21.1494 17.2889 21.0543 17.2912 20.9617C17.2924 20.9108 17.2841 20.9091 17.2664 20.9568L17.2542 20.99C17.2486 21.0051 17.2428 21.0051 17.2368 20.99C17.2287 20.9705 17.2364 20.9303 17.2312 20.9045C17.2295 20.8964 17.2301 20.8884 17.2329 20.8808C17.2357 20.8738 17.2407 20.8699 17.2479 20.8692C17.257 20.8685 17.2627 20.8639 17.265 20.8553C17.2711 20.8348 17.2655 20.8209 17.2483 20.8134C17.2445 20.8118 17.2412 20.8091 17.239 20.8056C17.2367 20.8022 17.2356 20.798 17.2357 20.7939C17.2357 20.7906 17.2364 20.7875 17.2378 20.7844C17.2471 20.7623 17.2529 20.7631 17.2553 20.7869C17.2557 20.7915 17.2555 20.7961 17.2546 20.8005C17.2567 20.8017 17.2565 20.8014 17.2542 20.7998C17.253 20.7989 17.2527 20.7978 17.2532 20.7967C17.2627 20.775 17.2594 20.758 17.2434 20.7457C17.2343 20.7387 17.2304 20.7296 17.2315 20.7185L17.2409 20.6082C17.2416 20.5984 17.2466 20.5919 17.256 20.5886L17.2706 20.5838C17.2764 20.5817 17.2795 20.5836 17.2797 20.5897C17.2822 20.6588 17.2822 20.6917 17.2797 20.6885C17.2785 20.6868 17.2789 20.6864 17.2807 20.6871C17.2824 20.6878 17.2831 20.6873 17.2828 20.6857C17.2762 20.5517 17.2916 20.4204 17.2888 20.2885C17.2869 20.1959 17.2877 20.1 17.2912 20.0009C17.2945 19.9027 17.295 19.804 17.293 19.7046C17.2899 19.572 17.29 19.4357 17.2933 19.2956C17.2999 19.0119 17.2856 18.725 17.2916 18.4402C17.2918 18.4283 17.289 18.4173 17.2832 18.407C17.2648 18.374 17.265 18.3411 17.2839 18.3083C17.2899 18.298 17.2879 18.2895 17.2779 18.2828C17.2458 18.2619 17.2304 18.2352 17.2315 18.2029L17.4493 18.2462C17.4527 18.2468 17.4562 18.2465 17.4594 18.2453C17.4626 18.244 17.4654 18.2418 17.4673 18.239C17.4693 18.2362 17.4705 18.2329 17.4706 18.2294C17.4708 18.226 17.4699 18.2226 17.4681 18.2196L16.7897 17.0288L16.8337 17.0295C16.8495 17.0298 16.8554 17.0223 16.8515 17.0072C16.8498 17.0012 16.8517 16.9972 16.857 16.9953C16.8703 16.9912 16.8724 16.9838 16.8633 16.9734C16.8568 16.9661 16.8489 16.9618 16.8396 16.9604C16.8345 16.9598 16.8296 16.958 16.8254 16.9551C16.8212 16.9523 16.8177 16.9485 16.8152 16.944C16.8042 16.924 16.8 16.9006 16.8026 16.8739C16.8031 16.8696 16.8049 16.8655 16.8078 16.8622C16.8106 16.8589 16.8144 16.8565 16.8187 16.8554C16.8219 16.8545 16.8253 16.8542 16.8288 16.8547C16.8386 16.8559 16.8415 16.852 16.8375 16.8432C16.8347 16.8371 16.8308 16.8319 16.8256 16.8275C16.8235 16.8256 16.8218 16.8233 16.8206 16.8208C16.8194 16.8183 16.8187 16.8155 16.8186 16.8127C16.8185 16.8099 16.819 16.8071 16.82 16.8045C16.8211 16.8018 16.8226 16.7995 16.8246 16.7975L16.8368 16.7852C16.8445 16.7776 16.848 16.7684 16.8473 16.7577C16.8433 16.7044 16.8461 16.6496 16.8557 16.5933C16.8594 16.5712 16.8522 16.5543 16.834 16.5427C16.8217 16.5348 16.8213 16.5262 16.833 16.5169C16.8355 16.515 16.8379 16.5128 16.8399 16.5102C16.8474 16.5015 16.8515 16.4905 16.8515 16.4792C16.8519 16.287 16.8531 16.0915 16.855 15.8928C16.8553 15.8586 16.8647 15.8248 16.8647 15.7909C16.864 15.5373 16.8676 15.2864 16.8755 15.0381C16.8783 14.9537 16.9241 14.8828 16.9363 14.7956C16.9428 14.7479 16.9652 14.7045 17.0036 14.6654C17.0101 14.6587 17.0131 14.6506 17.0124 14.6413C17.0121 14.635 17.0085 14.6316 17.0015 14.6309C16.9992 14.6306 16.9969 14.6299 16.9948 14.6287C16.9927 14.6275 16.991 14.6259 16.9896 14.6239C16.9882 14.6219 16.9873 14.6197 16.9869 14.6173C16.9865 14.615 16.9866 14.6126 16.9872 14.6103C16.9937 14.5861 17.0124 14.5727 17.0431 14.5701C17.0443 14.57 17.0455 14.5696 17.0466 14.5689C17.0477 14.5682 17.0486 14.5673 17.0493 14.5663C17.05 14.5652 17.0505 14.564 17.0507 14.5627C17.0509 14.5615 17.0508 14.5602 17.0504 14.559C17.046 14.5445 17.0379 14.5417 17.0263 14.5506C17.0075 14.5648 16.9977 14.5601 16.997 14.5366C16.9968 14.5262 17.0004 14.5199 17.0078 14.5178C17.0185 14.5148 17.0245 14.5077 17.0256 14.4965L17.0309 14.449C17.032 14.4381 17.0378 14.4308 17.0483 14.427L17.0804 14.4155Z" fill="white"/>
<path d="M17.2314 18.2029C17.2302 18.2352 17.2457 18.2619 17.2778 18.2828C17.2878 18.2896 17.2898 18.298 17.2837 18.3083C17.2649 18.3411 17.2647 18.374 17.283 18.4071C17.2889 18.4173 17.2916 18.4283 17.2914 18.4402C17.2855 18.725 17.2998 19.0119 17.2932 19.2956C17.2899 19.4357 17.2898 19.572 17.2928 19.7046C17.2949 19.804 17.2943 19.9028 17.2911 20.0009C17.2876 20.1001 17.2868 20.1959 17.2886 20.2885C17.2914 20.4204 17.2761 20.5517 17.2827 20.6857C17.2829 20.6873 17.2822 20.6878 17.2806 20.6871C17.2787 20.6864 17.2784 20.6868 17.2795 20.6885C17.2821 20.6917 17.2821 20.6588 17.2795 20.5897C17.2793 20.5837 17.2763 20.5817 17.2705 20.5838L17.2558 20.5887C17.2465 20.5919 17.2415 20.5984 17.2408 20.6082L17.2314 20.7185C17.2302 20.7297 17.2342 20.7387 17.2433 20.7457C17.2593 20.758 17.2626 20.775 17.253 20.7967C17.2526 20.7978 17.2529 20.7989 17.2541 20.7998C17.2564 20.8014 17.2565 20.8017 17.2544 20.8005C17.2554 20.7961 17.2556 20.7915 17.2551 20.7869C17.2528 20.7632 17.247 20.7623 17.2377 20.7844C17.2363 20.7875 17.2356 20.7906 17.2356 20.7939C17.2355 20.7981 17.2366 20.8022 17.2388 20.8057C17.2411 20.8091 17.2443 20.8119 17.2481 20.8134C17.2654 20.8209 17.2709 20.8348 17.2649 20.8553C17.2626 20.8639 17.2569 20.8686 17.2478 20.8693C17.2406 20.87 17.2356 20.8738 17.2328 20.8808C17.23 20.8884 17.2294 20.8964 17.231 20.9045C17.2363 20.9303 17.2286 20.9705 17.2366 20.99C17.2427 21.0051 17.2485 21.0051 17.2541 20.99L17.2663 20.9569C17.284 20.9092 17.2922 20.9108 17.2911 20.9617C17.2887 21.0543 17.289 21.1494 17.2918 21.2469C17.3005 21.5502 17.2851 21.8531 17.2939 22.1595C17.295 22.203 17.294 22.2536 17.2907 22.3113C17.2882 22.3604 17.287 22.4111 17.2872 22.4635C17.2872 22.4656 17.2862 22.4669 17.2841 22.4673C17.2829 22.4676 17.2818 22.4674 17.2806 22.467C17.2792 22.4665 17.2787 22.4656 17.2792 22.4642C17.2918 22.4108 17.2631 22.3776 17.2656 22.3263C17.2719 22.1909 17.2742 22.0414 17.2726 21.8779C17.2705 21.6957 17.2686 21.5183 17.267 21.3456C17.2661 21.2549 17.2615 21.1644 17.2534 21.0741C17.2529 21.0704 17.2508 21.0685 17.2471 21.0685C17.2434 21.0688 17.2414 21.0707 17.2412 21.0745C17.2358 21.1557 17.2324 21.2347 17.231 21.3114C17.2299 21.3868 17.2249 21.4662 17.216 21.5495C17.2007 21.6944 17.197 21.8321 17.2049 21.9627C17.216 22.1446 17.2125 22.3289 17.1944 22.5155C17.1941 22.519 17.1947 22.5226 17.1962 22.5258C17.1977 22.529 17.2 22.5317 17.2029 22.5337C17.2058 22.5356 17.2092 22.5368 17.2127 22.537C17.2161 22.5371 17.2196 22.5363 17.2227 22.5347C17.2292 22.5314 17.236 22.5291 17.2433 22.5277C17.2547 22.5258 17.2579 22.5301 17.253 22.5406C17.2505 22.5464 17.2467 22.5507 17.2419 22.5535C17.2307 22.5603 17.2282 22.5694 17.2345 22.5808C17.2427 22.5959 17.2398 22.6083 17.2258 22.6181C17.222 22.6207 17.2191 22.6246 17.2177 22.629C17.2162 22.6334 17.2163 22.6381 17.2178 22.6425C17.2222 22.6546 17.2285 22.6642 17.2366 22.6711C17.2464 22.6793 17.2451 22.6852 17.2328 22.6889C17.2053 22.6975 17.205 22.7043 17.2317 22.7092C14.9905 23.1827 12.7381 23.5959 10.4747 23.9488C10.3505 23.9684 10.1195 24.0347 10.0538 23.8682C9.99905 23.7286 10.0873 23.6476 10.2088 23.5848C12.3415 22.4813 14.5169 21.4531 16.7131 20.4798C16.7215 20.476 16.7278 20.4701 16.732 20.462C16.7333 20.4596 16.734 20.4569 16.7343 20.4542C16.7345 20.4515 16.7341 20.4487 16.7333 20.4461C16.7324 20.4435 16.731 20.4412 16.7291 20.4391C16.7273 20.4371 16.725 20.4355 16.7225 20.4344C15.1399 19.7336 13.5185 18.9757 11.8582 18.1607C11.1972 17.8363 10.6217 17.5435 10.1317 17.2822C10.0256 17.2257 10.0001 17.0651 10.0898 16.9838C10.1417 16.9366 10.205 16.9187 10.2796 16.9301C12.5591 17.277 14.8763 17.7013 17.2314 18.2029Z" fill="white"/>
<path d="M24.4084 20.7521L26.3352 22.9511C26.3241 22.9628 26.3141 22.9587 26.3052 22.9389C26.2994 22.9263 26.2906 22.9236 26.2787 22.9305C26.2622 22.9403 26.2525 22.9559 26.2497 22.9773C26.2462 23.0055 26.2519 23.0075 26.2668 22.9836C26.2741 22.972 26.2846 22.9733 26.2986 22.9878C26.301 22.9902 26.3027 22.9932 26.3036 22.9964C26.3045 22.9997 26.3045 23.0032 26.3036 23.0065C26.3028 23.0098 26.301 23.0129 26.2986 23.0153C26.2962 23.0178 26.2932 23.0196 26.2899 23.0206C26.2393 23.0345 26.2176 23.09 26.2469 23.1344C26.2784 23.1816 26.308 23.2261 26.3359 23.268C26.3515 23.2918 26.3466 23.3099 26.3213 23.3225C26.282 23.3422 26.2589 23.3842 26.2522 23.4485C26.2426 23.542 26.2373 23.6264 26.2361 23.7018C26.2317 24.0266 26.2311 24.3578 26.2344 24.6954C26.2344 24.701 26.2353 24.7064 26.2372 24.7115C26.2407 24.7203 26.2424 24.7295 26.2424 24.7391V26.171C26.2424 26.1803 26.2408 26.1893 26.2375 26.1979C26.2357 26.2032 26.2347 26.2088 26.2347 26.2146C26.2333 26.4571 26.2332 26.703 26.2344 26.9524C26.2344 26.9636 26.2298 26.9724 26.2208 26.9789C26.2047 26.9906 26.1997 27.0072 26.2058 27.0289C26.209 27.0403 26.2165 27.0466 26.2281 27.048C26.2516 27.0511 26.2639 27.0642 26.2651 27.0875C26.2658 27.101 26.2594 27.109 26.2459 27.1116C26.1952 27.1209 26.1725 27.1522 26.1778 27.2054C26.1792 27.2192 26.184 27.2206 26.1922 27.2096C26.2038 27.1943 26.2194 27.1911 26.2389 27.2002C26.251 27.2058 26.2526 27.2136 26.2438 27.2236C26.2231 27.2478 26.1953 27.2581 26.1604 27.2547C26.149 27.2537 26.1426 27.259 26.1412 27.2704C26.1389 27.2883 26.1395 27.3057 26.1429 27.3227C25.4791 27.3569 24.8792 27.2215 24.4004 26.7406C24.3755 26.6887 24.3398 26.6403 24.2932 26.5954C24.2891 26.5914 24.2882 26.5871 24.2908 26.5825C24.2915 26.5811 24.2924 26.5802 24.2936 26.5797C24.2978 26.5774 24.2975 26.5758 24.2929 26.5751C24.2787 26.5728 24.2721 26.5644 24.273 26.55C24.2737 26.5419 24.2706 26.5356 24.2636 26.5312C24.2594 26.5284 24.255 26.5273 24.2503 26.528C24.244 26.5285 24.2409 26.5257 24.2409 26.5197C24.2407 26.5141 24.2426 26.5095 24.2468 26.506C24.2573 26.497 24.2557 26.493 24.2419 26.4942C24.2389 26.4944 24.2368 26.4927 24.2357 26.4889C24.2345 26.4855 24.2357 26.4843 24.2391 26.4855C24.2454 26.4873 24.2498 26.4856 24.2524 26.4802C24.254 26.4772 24.2539 26.4742 24.2521 26.4711C24.2309 26.4381 24.2261 26.4019 24.2378 26.3626C24.2385 26.3601 24.2386 26.3575 24.238 26.355C24.2374 26.3525 24.2362 26.3502 24.2344 26.3483C24.2326 26.3464 24.2304 26.3451 24.2279 26.3443C24.2254 26.3436 24.2228 26.3435 24.2203 26.3441C24.2166 26.345 24.2127 26.3453 24.2088 26.3448C24.1934 26.3422 24.1934 26.3402 24.2088 26.3385C24.2225 26.3371 24.2323 26.3302 24.2381 26.3176C24.2439 26.305 24.2478 26.3056 24.2496 26.3193C24.2522 26.3379 24.2644 26.3474 24.2863 26.3476C24.2988 26.3478 24.3052 26.3417 24.3055 26.3291C24.3159 25.9508 24.318 25.57 24.3117 25.1498C24.3117 25.1449 24.313 25.1404 24.3156 25.1362C24.32 25.129 24.3222 25.1211 24.3222 25.1125C24.3215 24.9722 24.3257 24.8283 24.3348 24.6808C24.3575 24.3147 24.3494 23.9388 24.3501 23.5793C24.3506 23.3716 24.3443 23.1491 24.3313 22.912C24.3034 22.402 24.2961 21.9878 24.3096 21.6692C24.3143 21.5555 24.3157 21.4504 24.3138 21.3541C24.3134 21.3313 24.316 21.3084 24.3219 21.2853C24.3309 21.2497 24.3103 21.2257 24.3156 21.1908C24.3226 21.1468 24.3374 21.1074 24.3602 21.0725C24.3636 21.0674 24.3659 21.0617 24.367 21.0557C24.368 21.0497 24.3677 21.0435 24.3662 21.0376C24.359 21.0094 24.3684 20.9917 24.3945 20.9845C24.4063 20.9813 24.4135 20.9736 24.4161 20.9615L24.4196 20.944C24.4224 20.931 24.4178 20.9215 24.406 20.9154C24.3804 20.9026 24.3606 20.8852 24.3466 20.8631C24.3387 20.851 24.3406 20.8406 24.3522 20.832C24.3578 20.8278 24.364 20.8263 24.3707 20.8275C24.3824 20.8296 24.3834 20.8271 24.3739 20.8201C24.3694 20.8169 24.365 20.8159 24.3606 20.8173C24.3457 20.8215 24.3394 20.8158 24.3418 20.8002C24.3431 20.7902 24.34 20.7824 24.3323 20.7769C24.31 20.761 24.3123 20.7554 24.3393 20.7601C24.3651 20.7643 24.3882 20.7616 24.4084 20.7521Z" fill="white"/>
<path d="M26.3351 22.9511C27.5615 24.3501 28.7877 25.7494 30.0139 27.1489C30.0423 27.1814 30.0615 27.214 30.0715 27.2466C30.0742 27.2553 30.0747 27.2645 30.0732 27.2735C30.0716 27.2825 30.068 27.291 30.0625 27.2983C30.057 27.3057 30.0499 27.3116 30.0417 27.3157C30.0335 27.3198 30.0245 27.322 30.0153 27.322L26.1428 27.3227C26.1393 27.3057 26.1387 27.2882 26.141 27.2703C26.1424 27.2589 26.1488 27.2537 26.1602 27.2546C26.1951 27.2581 26.2229 27.2477 26.2437 27.2236C26.2525 27.2135 26.2509 27.2058 26.2388 27.2002C26.2192 27.1911 26.2036 27.1942 26.192 27.2096C26.1839 27.2205 26.1791 27.2191 26.1777 27.2054C26.1723 27.1521 26.195 27.1208 26.2457 27.1115C26.2592 27.109 26.2656 27.1009 26.2649 27.0874C26.2638 27.0642 26.2514 27.051 26.2279 27.048C26.2163 27.0466 26.2089 27.0402 26.2056 27.0288C26.1996 27.0072 26.2046 26.9905 26.2206 26.9789C26.2297 26.9724 26.2342 26.9635 26.2342 26.9524C26.2331 26.703 26.2332 26.457 26.2346 26.2146C26.2346 26.2088 26.2355 26.2032 26.2374 26.1978C26.2406 26.1892 26.2423 26.1803 26.2423 26.171V24.739C26.2423 24.7295 26.2405 24.7203 26.237 24.7114C26.2352 24.7063 26.2342 24.701 26.2342 24.6954C26.231 24.3578 26.2316 24.0266 26.236 23.7018C26.2371 23.6264 26.2425 23.5419 26.252 23.4484C26.2588 23.3842 26.2818 23.3422 26.3211 23.3224C26.3465 23.3099 26.3514 23.2917 26.3358 23.268C26.3079 23.2261 26.2782 23.1815 26.2468 23.1343C26.2175 23.09 26.2391 23.0345 26.2897 23.0205C26.293 23.0196 26.296 23.0177 26.2985 23.0153C26.3009 23.0128 26.3026 23.0098 26.3035 23.0065C26.3044 23.0031 26.3044 22.9997 26.3035 22.9964C26.3026 22.9931 26.3009 22.9901 26.2984 22.9877C26.2845 22.9733 26.2739 22.9719 26.2667 22.9835C26.2518 23.0075 26.2461 23.0054 26.2496 22.9773C26.2524 22.9559 26.262 22.9403 26.2786 22.9305C26.2904 22.9235 26.2993 22.9263 26.3051 22.9389C26.3139 22.9586 26.3239 22.9627 26.3351 22.9511Z" fill="white"/>
<path d="M16.6579 24.1182C16.6947 24.1184 16.71 24.1369 16.704 24.1737C16.7019 24.1865 16.6945 24.1917 16.6817 24.1894C16.674 24.188 16.6668 24.191 16.66 24.1984C16.6542 24.2047 16.6515 24.2122 16.652 24.2208C16.6527 24.2289 16.6559 24.235 16.6618 24.2389C16.6729 24.2468 16.673 24.2549 16.6621 24.263C16.653 24.2697 16.6426 24.2739 16.6307 24.2756C16.6301 24.2757 16.6295 24.276 16.629 24.2764C16.6286 24.2768 16.6282 24.2774 16.628 24.278C16.6279 24.2786 16.6278 24.2793 16.628 24.2799C16.6282 24.2805 16.6285 24.2811 16.629 24.2815C16.6445 24.2964 16.6634 24.3079 16.6855 24.316C16.6948 24.3195 16.6976 24.3167 16.6939 24.3077C16.6913 24.3016 16.6871 24.2988 16.6813 24.2993C16.6673 24.3005 16.6654 24.2962 16.6754 24.2864C16.6877 24.2745 16.7003 24.2647 16.7131 24.2571C16.7168 24.2548 16.7212 24.2539 16.7255 24.2545C16.7298 24.2552 16.7336 24.2573 16.7365 24.2606C16.7402 24.265 16.7413 24.2697 16.7399 24.2749C16.7383 24.2802 16.7403 24.2834 16.7459 24.2843C16.7563 24.2857 16.7643 24.2827 16.7696 24.2752C16.7768 24.2652 16.7815 24.2663 16.7836 24.2784C16.7854 24.2877 16.7896 24.2949 16.7961 24.3C16.8052 24.307 16.8057 24.3145 16.7975 24.3227L16.7912 24.329C16.7905 24.3299 16.7903 24.3308 16.7905 24.3318C16.8003 24.3564 16.8139 24.3774 16.8314 24.3946C16.8398 24.4029 16.8445 24.413 16.8457 24.4246C16.8522 24.4953 16.8558 24.566 16.8565 24.6368C16.8612 25.0258 16.8588 25.3911 16.8495 25.7326C16.8432 25.9689 16.8579 26.2052 16.8499 26.4429C16.8485 26.4824 16.8512 26.5207 16.8579 26.5577C16.859 26.5633 16.8585 26.5691 16.8566 26.5744C16.8547 26.5798 16.8514 26.5845 16.8471 26.588C16.8378 26.5955 16.8271 26.5973 16.815 26.5936C16.8103 26.5921 16.8054 26.5918 16.8005 26.5926C16.7957 26.5934 16.7911 26.5953 16.7872 26.5982C16.7832 26.6011 16.78 26.6048 16.7778 26.6092C16.7756 26.6136 16.7745 26.6184 16.7745 26.6233V26.7088C16.7745 26.7218 16.7682 26.7296 16.7556 26.7322L16.6995 26.7437C16.6862 26.7465 16.6851 26.7518 16.6963 26.7597C16.7028 26.7646 16.7097 26.7666 16.7169 26.7657C16.729 26.7645 16.7366 26.7698 16.7396 26.7814C16.7412 26.7867 16.741 26.792 16.7389 26.7971C16.7314 26.8169 16.723 26.8173 16.7134 26.7985C16.705 26.7827 16.6921 26.7756 16.6747 26.7772C16.6739 26.7774 16.6731 26.7773 16.6723 26.777C16.6715 26.7767 16.6709 26.7761 16.6704 26.7755C16.6699 26.7748 16.6696 26.774 16.6695 26.7731C16.6694 26.7723 16.6695 26.7714 16.6698 26.7706C16.6714 26.7666 16.6722 26.7625 16.6722 26.7584C16.6722 26.7525 16.6693 26.7494 16.6635 26.7489C16.6558 26.7482 16.6502 26.7503 16.6506 26.7591C16.6513 26.7756 16.6579 26.7891 16.6705 26.7995C16.6784 26.8063 16.6774 26.8111 16.6673 26.8138C16.6548 26.8176 16.6408 26.818 16.6255 26.8152C16.5966 26.8097 16.5927 26.8171 16.6136 26.8376C16.6422 26.8662 16.657 26.902 16.6579 26.9451C15.8894 27.7538 15.1085 28.5502 14.3151 29.3343C14.2865 29.3627 14.2496 29.3802 14.2045 29.3867C13.9884 29.4177 13.927 29.2443 14.0104 29.0785C14.8513 27.4033 15.7338 25.7499 16.6579 24.1182Z" fill="white"/>
<circle cx="20" cy="20" r="19.5" stroke="black" stroke-opacity="0.05"/>
</svg>
