<svg width="40" height="40" viewBox="0 0 40 40" fill="none" xmlns="http://www.w3.org/2000/svg">
<circle cx="20" cy="20" r="20" fill="#F6F8FA"/>
<path d="M32 25.8763C32 26.9149 31.5875 27.9109 30.8531 28.6452C30.1188 29.3795 29.1228 29.7921 28.0842 29.7921H11.9158C10.8772 29.7921 9.88125 29.3795 9.1469 28.6452C8.41255 27.9109 8 26.9149 8 25.8763V13.9158C8 12.8772 8.41255 11.8813 9.1469 11.1469C9.88125 10.4126 10.8772 10 11.9158 10H28.0842C29.1228 10 30.1188 10.4126 30.8531 11.1469C31.5875 11.8813 32 12.8772 32 13.9158V25.8763ZM18.5542 18.4326H17.7569C17.7558 18.4326 17.7548 18.4329 17.7539 18.4335C17.753 18.434 17.7523 18.4348 17.7518 18.4357C17.7513 18.4366 17.7511 18.4377 17.7511 18.4387C17.7512 18.4398 17.7515 18.4408 17.7521 18.4417L18.6657 19.726C18.6678 19.7291 18.6707 19.7315 18.6741 19.7332C18.6775 19.7348 18.6813 19.7355 18.685 19.7353C19.1301 19.7147 19.5152 19.4738 19.7179 19.0809C19.9181 18.6926 19.9319 18.2091 19.7199 17.8212C19.6888 17.7643 19.6182 17.6585 19.5082 17.5037C18.4172 15.9675 17.3557 14.4649 16.3236 12.9959C15.9137 12.4127 15.0787 12.2617 14.497 12.693C14.3947 12.7688 14.3172 12.8397 14.2646 12.9055C13.1063 14.3572 11.9203 15.8372 10.7065 17.3455C10.5292 17.5659 10.4277 17.6957 10.4021 17.7351C9.97459 18.3937 10.2311 19.3336 10.9748 19.6436C11.1615 19.7213 11.3631 19.752 11.5794 19.7358C11.582 19.7356 11.5846 19.7349 11.5869 19.7337C11.5893 19.7325 11.5913 19.7308 11.593 19.7288L12.6628 18.4454C12.6638 18.4443 12.6644 18.4429 12.6646 18.4414C12.6648 18.44 12.6645 18.4384 12.6639 18.4371C12.6633 18.4358 12.6623 18.4346 12.661 18.4338C12.6597 18.433 12.6583 18.4326 12.6568 18.4326H11.532C11.5182 18.4326 11.5157 18.4273 11.5244 18.4166L15.2518 13.7585C15.2527 13.7574 15.2538 13.7566 15.255 13.756C15.2563 13.7554 15.2577 13.7551 15.2591 13.7552C15.2605 13.7552 15.2619 13.7556 15.2632 13.7563C15.2644 13.7569 15.2655 13.7579 15.2664 13.759L18.5582 18.4248C18.5587 18.4256 18.559 18.4265 18.559 18.4273C18.5591 18.4282 18.5589 18.4291 18.5585 18.4299C18.558 18.4307 18.5574 18.4314 18.5567 18.4319C18.5559 18.4323 18.5551 18.4326 18.5542 18.4326ZM28.4452 18.4326H27.6527C27.6513 18.4327 27.6499 18.4331 27.6487 18.4338C27.6475 18.4346 27.6465 18.4356 27.6458 18.4369C27.6452 18.4381 27.6449 18.4395 27.645 18.4409C27.6451 18.4423 27.6456 18.4436 27.6464 18.4447L28.5572 19.725C28.5597 19.7284 28.563 19.7311 28.5667 19.7329C28.5705 19.7347 28.5747 19.7355 28.5788 19.7353C29.3477 19.6991 29.8451 19.0129 29.7536 18.2754C29.7267 18.059 29.655 17.8686 29.5386 17.7042C28.4675 16.1909 27.3893 14.6628 26.3038 13.12C26.1869 12.9537 26.0883 12.8363 26.0079 12.7678C25.5199 12.3516 24.8404 12.3368 24.338 12.7307C24.2607 12.7913 24.1502 12.9114 24.0067 13.0911C22.8636 14.5212 21.7076 15.9662 20.5385 17.4261C20.4967 17.4784 20.4543 17.5294 20.4114 17.5793C20.2785 17.7344 20.1869 17.9036 20.1366 18.087C20.006 18.562 20.1424 19.087 20.5144 19.4206C20.775 19.6545 21.0923 19.7598 21.4664 19.7365C21.4748 19.736 21.4817 19.7326 21.487 19.7262L22.5541 18.4454C22.5613 18.4369 22.5593 18.4326 22.5481 18.4326H21.4152C21.4141 18.4326 21.413 18.4323 21.4121 18.4316C21.4111 18.431 21.4104 18.4301 21.4099 18.4291C21.4094 18.4281 21.4093 18.427 21.4094 18.4259C21.4095 18.4248 21.41 18.4237 21.4107 18.4228L25.1431 13.7588C25.144 13.7577 25.1451 13.7568 25.1464 13.7562C25.1477 13.7556 25.1492 13.7553 25.1506 13.7553C25.152 13.7554 25.1535 13.7558 25.1547 13.7565C25.156 13.7571 25.1571 13.7581 25.1579 13.7593L28.4497 18.4241C28.4502 18.4249 28.4506 18.4259 28.4506 18.4269C28.4506 18.4278 28.4504 18.4288 28.45 18.4297C28.4495 18.4306 28.4488 18.4313 28.448 18.4318C28.4471 18.4323 28.4462 18.4326 28.4452 18.4326ZM11.5257 22.5373C11.5243 22.5373 11.5229 22.5369 11.5218 22.5362C11.5206 22.5355 11.5197 22.5344 11.5191 22.5332C11.5185 22.532 11.5182 22.5306 11.5184 22.5292C11.5185 22.5279 11.519 22.5266 11.5199 22.5255L15.2518 17.8627C15.2527 17.8616 15.2538 17.8608 15.2551 17.8602C15.2563 17.8596 15.2577 17.8594 15.2591 17.8594C15.2605 17.8595 15.2618 17.8598 15.263 17.8605C15.2643 17.8611 15.2653 17.8621 15.2661 17.8632L18.5574 22.5272C18.5581 22.5282 18.5585 22.5293 18.5586 22.5304C18.5587 22.5316 18.5584 22.5327 18.5579 22.5337C18.5574 22.5348 18.5565 22.5357 18.5555 22.5363C18.5545 22.5369 18.5533 22.5373 18.5522 22.5373H16.9423C16.9327 22.5373 16.928 22.5421 16.928 22.5516L16.9285 23.8304C16.9285 23.8318 16.9287 23.8331 16.9293 23.8343C16.9298 23.8356 16.9305 23.8367 16.9315 23.8377C16.9324 23.8386 16.9336 23.8394 16.9348 23.8399C16.9361 23.8404 16.9374 23.8407 16.9388 23.8407C17.4311 23.8374 17.9261 23.8373 18.4238 23.8405C18.6256 23.8418 18.7776 23.8292 18.88 23.8028C19.5037 23.642 19.9111 23.0892 19.8686 22.4484C19.8527 22.2071 19.776 21.9893 19.6385 21.795C18.5655 20.28 17.4803 18.7428 16.3829 17.1832C16.2925 17.0546 16.2117 16.9572 16.1405 16.8911C15.5846 16.3741 14.7032 16.4573 14.2365 17.0438C13.0601 18.5216 11.8818 19.9922 10.7015 21.4554C10.5316 21.6661 10.4323 21.7937 10.4036 21.8382C10.169 22.2025 10.1266 22.6729 10.3069 23.0663C10.4819 23.4478 10.7732 23.6935 11.1808 23.8035C11.2928 23.8338 11.4108 23.8467 11.5347 23.842C11.5957 23.8398 11.656 23.8387 11.7158 23.8387C12.2237 23.8387 12.73 23.8388 13.2345 23.8389C13.2379 23.8389 13.2412 23.8376 13.2436 23.8352C13.246 23.8328 13.2473 23.8295 13.2473 23.8261L13.2471 22.5443C13.2471 22.5434 13.2469 22.5425 13.2465 22.5416C13.2461 22.5408 13.2456 22.54 13.2449 22.5394C13.2443 22.5387 13.2435 22.5382 13.2426 22.5378C13.2417 22.5375 13.2407 22.5373 13.2398 22.5373H11.5257ZM28.4434 22.5373H26.8288C26.8263 22.5373 26.824 22.5383 26.8222 22.54C26.8205 22.5418 26.8195 22.5441 26.8195 22.5466L26.8208 23.8299C26.8208 23.8322 26.8217 23.8343 26.8233 23.8359C26.8249 23.8375 26.827 23.8384 26.8293 23.8384C27.3096 23.8383 27.8119 23.8391 28.3362 23.841C28.5199 23.8416 28.6645 23.8288 28.77 23.8025C29.3972 23.6465 29.7966 23.0881 29.7624 22.4446C29.7522 22.2545 29.698 22.0736 29.5999 21.9018C29.5719 21.8529 29.4791 21.7175 29.3213 21.4956C28.3189 20.0861 27.3212 18.6734 26.3282 17.2573C26.2059 17.083 26.1081 16.962 26.0345 16.8944C25.5626 16.4603 24.864 16.4342 24.3548 16.8208C24.2741 16.8822 24.1642 16.9999 24.025 17.1737C22.8436 18.6512 21.6716 20.116 20.5089 21.5682C20.4729 21.6131 20.4363 21.657 20.3991 21.6998C20.0693 22.0794 20.0025 22.6074 20.1962 23.0598C20.3821 23.4943 20.7943 23.7907 21.2602 23.8354C21.3267 23.8418 21.494 23.8436 21.7621 23.8407C22.2142 23.8357 22.6676 23.8358 23.1223 23.841C23.133 23.8411 23.1383 23.8358 23.1383 23.8251V22.5511C23.1383 22.5474 23.1369 22.5439 23.1343 22.5413C23.1317 22.5387 23.1282 22.5373 23.1245 22.5373H21.4217C21.4085 22.5373 21.406 22.5321 21.4142 22.5217L25.1433 17.8627C25.1442 17.8616 25.1453 17.8608 25.1466 17.8602C25.1478 17.8596 25.1492 17.8594 25.1506 17.8594C25.152 17.8595 25.1533 17.8598 25.1546 17.8605C25.1558 17.8611 25.1568 17.8621 25.1576 17.8632L28.449 22.5267C28.4496 22.5278 28.45 22.5289 28.4501 22.5301C28.4502 22.5314 28.4499 22.5326 28.4493 22.5337C28.4488 22.5347 28.4479 22.5356 28.4469 22.5363C28.4458 22.5369 28.4447 22.5373 28.4434 22.5373ZM16.928 25.4312C16.928 25.4284 16.9268 25.4256 16.9248 25.4236C16.9228 25.4216 16.92 25.4204 16.9172 25.4204H13.2579C13.255 25.4204 13.2523 25.4216 13.2502 25.4236C13.2482 25.4256 13.2471 25.4284 13.2471 25.4312V26.7108C13.2471 26.7136 13.2482 26.7164 13.2502 26.7184C13.2523 26.7204 13.255 26.7216 13.2579 26.7216H16.9172C16.92 26.7216 16.9228 26.7204 16.9248 26.7184C16.9268 26.7164 16.928 26.7136 16.928 26.7108V25.4312ZM26.819 25.4285C26.819 25.4263 26.8182 25.4243 26.8166 25.4228C26.8151 25.4213 26.8131 25.4204 26.811 25.4204H23.1466C23.1445 25.4204 23.1425 25.4213 23.1409 25.4228C23.1394 25.4243 23.1386 25.4263 23.1386 25.4285V26.7135C23.1386 26.7157 23.1394 26.7177 23.1409 26.7192C23.1425 26.7207 23.1445 26.7216 23.1466 26.7216H26.811C26.8131 26.7216 26.8151 26.7207 26.8166 26.7192C26.8182 26.7177 26.819 26.7157 26.819 26.7135V25.4285Z" fill="#27B043"/>
<path d="M18.5542 18.4327C18.5551 18.4326 18.556 18.4324 18.5567 18.4319C18.5575 18.4314 18.5581 18.4307 18.5585 18.4299C18.5589 18.4291 18.5591 18.4283 18.5591 18.4274C18.559 18.4265 18.5587 18.4256 18.5582 18.4249L15.2664 13.7591C15.2656 13.7579 15.2645 13.757 15.2632 13.7563C15.262 13.7556 15.2606 13.7552 15.2592 13.7552C15.2578 13.7551 15.2564 13.7554 15.2551 13.756C15.2538 13.7566 15.2527 13.7575 15.2519 13.7586L11.5245 18.4166C11.5158 18.4273 11.5183 18.4327 11.532 18.4327H12.6568C12.6583 18.4326 12.6598 18.4331 12.6611 18.4338C12.6623 18.4346 12.6633 18.4358 12.664 18.4371C12.6646 18.4385 12.6648 18.44 12.6646 18.4415C12.6644 18.4429 12.6638 18.4443 12.6629 18.4455L11.5931 19.7288C11.5914 19.7308 11.5893 19.7325 11.587 19.7337C11.5847 19.735 11.5821 19.7357 11.5795 19.7358C11.3631 19.7521 11.1616 19.7213 10.9749 19.6436C10.2311 19.3337 9.97466 18.3937 10.4022 17.7351C10.4278 17.6958 10.5293 17.5659 10.7066 17.3455C11.9204 15.8372 13.1064 14.3572 14.2647 12.9055C14.3173 12.8397 14.3947 12.7689 14.497 12.693C15.0788 12.2617 15.9137 12.4127 16.3237 12.9959C17.3557 14.4649 18.4172 15.9675 19.5082 17.5038C19.6183 17.6585 19.6888 17.7643 19.72 17.8213C19.932 18.2091 19.9182 18.6926 19.718 19.081C19.5153 19.4738 19.1302 19.7147 18.6851 19.7353C18.6813 19.7355 18.6776 19.7348 18.6742 19.7332C18.6708 19.7316 18.6679 19.7291 18.6658 19.726L17.7522 18.4417C17.7516 18.4408 17.7512 18.4398 17.7512 18.4388C17.7511 18.4377 17.7514 18.4367 17.7518 18.4357C17.7523 18.4348 17.7531 18.434 17.754 18.4335C17.7549 18.4329 17.7559 18.4327 17.757 18.4327H18.5542Z" fill="white"/>
<path d="M28.4448 18.4327C28.4458 18.4326 28.4468 18.4324 28.4476 18.4318C28.4485 18.4313 28.4491 18.4306 28.4496 18.4297C28.4501 18.4289 28.4503 18.4279 28.4502 18.4269C28.4502 18.4259 28.4499 18.4249 28.4493 18.4241L25.1575 13.7593C25.1567 13.7581 25.1556 13.7572 25.1543 13.7565C25.1531 13.7558 25.1517 13.7554 25.1502 13.7554C25.1488 13.7553 25.1474 13.7556 25.1461 13.7562C25.1448 13.7568 25.1436 13.7577 25.1427 13.7588L21.4103 18.4229C21.4096 18.4237 21.4092 18.4248 21.409 18.4259C21.4089 18.427 21.4091 18.4281 21.4095 18.4292C21.41 18.4302 21.4108 18.431 21.4117 18.4317C21.4126 18.4323 21.4137 18.4326 21.4148 18.4327H22.5477C22.5589 18.4327 22.5609 18.4369 22.5537 18.4455L21.4867 19.7263C21.4813 19.7326 21.4744 19.7361 21.4661 19.7366C21.092 19.7599 20.7746 19.6545 20.5141 19.4206C20.1421 19.087 20.0057 18.562 20.1363 18.087C20.1865 17.9037 20.2781 17.7344 20.4111 17.5794C20.4539 17.5295 20.4963 17.4784 20.5382 17.4262C21.7072 15.9662 22.8633 14.5212 24.0063 13.0912C24.1498 12.9115 24.2603 12.7913 24.3376 12.7307C24.84 12.3368 25.5195 12.3517 26.0075 12.7679C26.0879 12.8364 26.1866 12.9538 26.3034 13.12C27.3889 14.6628 28.4672 16.1909 29.5382 17.7042C29.6546 17.8687 29.7263 18.0591 29.7533 18.2754C29.8447 19.0129 29.3473 19.6992 28.5785 19.7353C28.5743 19.7356 28.5701 19.7347 28.5664 19.7329C28.5626 19.7311 28.5593 19.7284 28.5569 19.725L27.646 18.4447C27.6452 18.4436 27.6447 18.4423 27.6446 18.4409C27.6445 18.4395 27.6448 18.4381 27.6455 18.4369C27.6461 18.4357 27.6471 18.4346 27.6483 18.4339C27.6495 18.4331 27.6509 18.4327 27.6523 18.4327H28.4448Z" fill="white"/>
<path d="M11.5257 22.5373H13.2398C13.2408 22.5373 13.2417 22.5375 13.2426 22.5378C13.2435 22.5382 13.2443 22.5387 13.2449 22.5394C13.2456 22.54 13.2462 22.5408 13.2465 22.5416C13.2469 22.5425 13.2471 22.5434 13.2471 22.5443L13.2473 23.8261C13.2473 23.8295 13.246 23.8328 13.2436 23.8352C13.2412 23.8376 13.2379 23.839 13.2345 23.839C12.73 23.8388 12.2237 23.8387 11.7158 23.8387C11.6561 23.8387 11.5957 23.8398 11.5347 23.842C11.4108 23.8467 11.2928 23.8339 11.1808 23.8035C10.7732 23.6935 10.4819 23.4478 10.3069 23.0663C10.1266 22.6729 10.169 22.2025 10.4036 21.8382C10.4323 21.7937 10.5316 21.6661 10.7015 21.4554C11.8818 19.9922 13.0601 18.5216 14.2365 17.0438C14.7032 16.4573 15.5846 16.3742 16.1405 16.8911C16.2117 16.9572 16.2925 17.0546 16.3829 17.1832C17.4803 18.7428 18.5655 20.28 19.6386 21.795C19.776 21.9893 19.8527 22.2071 19.8686 22.4484C19.9111 23.0892 19.5037 23.642 18.88 23.8028C18.7777 23.8292 18.6256 23.8418 18.4238 23.8405C17.9261 23.8373 17.4311 23.8374 16.9388 23.8407C16.9374 23.8407 16.9361 23.8405 16.9348 23.8399C16.9336 23.8394 16.9325 23.8387 16.9315 23.8377C16.9306 23.8367 16.9298 23.8356 16.9293 23.8344C16.9288 23.8331 16.9285 23.8318 16.9285 23.8304L16.928 22.5516C16.928 22.5421 16.9328 22.5373 16.9423 22.5373H18.5522C18.5534 22.5373 18.5545 22.5369 18.5555 22.5363C18.5565 22.5357 18.5574 22.5348 18.5579 22.5338C18.5585 22.5327 18.5587 22.5316 18.5586 22.5304C18.5585 22.5293 18.5581 22.5282 18.5574 22.5273L15.2661 17.8632C15.2653 17.8621 15.2643 17.8611 15.2631 17.8605C15.2618 17.8598 15.2605 17.8595 15.2591 17.8594C15.2577 17.8594 15.2563 17.8596 15.2551 17.8602C15.2538 17.8608 15.2527 17.8616 15.2518 17.8627L11.5199 22.5255C11.5191 22.5266 11.5185 22.5279 11.5184 22.5292C11.5182 22.5306 11.5185 22.532 11.5191 22.5332C11.5197 22.5345 11.5206 22.5355 11.5218 22.5362C11.523 22.5369 11.5243 22.5373 11.5257 22.5373Z" fill="white"/>
<path d="M28.443 22.5373C28.4442 22.5373 28.4454 22.5369 28.4465 22.5363C28.4475 22.5357 28.4483 22.5348 28.4489 22.5337C28.4495 22.5326 28.4497 22.5314 28.4497 22.5302C28.4496 22.529 28.4492 22.5278 28.4485 22.5268L25.1572 17.8632C25.1564 17.8621 25.1554 17.8612 25.1541 17.8605C25.1529 17.8599 25.1516 17.8595 25.1502 17.8594C25.1488 17.8594 25.1474 17.8597 25.1462 17.8602C25.1449 17.8608 25.1438 17.8616 25.1429 17.8627L21.4138 22.5217C21.4056 22.5321 21.4081 22.5373 21.4213 22.5373H23.1241C23.1278 22.5373 23.1313 22.5388 23.1339 22.5414C23.1365 22.544 23.1379 22.5475 23.1379 22.5511V23.8252C23.1379 23.8359 23.1326 23.8411 23.1218 23.841C22.6672 23.8358 22.2138 23.8357 21.7617 23.8407C21.4936 23.8436 21.3263 23.8418 21.2598 23.8355C20.7938 23.7907 20.3816 23.4943 20.1958 23.0598C20.0021 22.6074 20.0689 22.0794 20.3987 21.6999C20.4359 21.657 20.4725 21.6131 20.5085 21.5682C21.6711 20.116 22.8432 18.6512 24.0246 17.1737C24.1638 16.9999 24.2737 16.8822 24.3544 16.8208C24.8636 16.4342 25.5621 16.4603 26.0341 16.8944C26.1076 16.962 26.2055 17.083 26.3278 17.2573C27.3208 18.6734 28.3185 20.0861 29.3209 21.4956C29.4787 21.7175 29.5715 21.8529 29.5995 21.9018C29.6976 22.0736 29.7518 22.2546 29.762 22.4446C29.7962 23.0882 29.3968 23.6466 28.7696 23.8025C28.6641 23.8288 28.5195 23.8416 28.3357 23.841C27.8114 23.8391 27.3091 23.8383 26.8289 23.8385C26.8266 23.8385 26.8244 23.8376 26.8228 23.836C26.8212 23.8344 26.8203 23.8322 26.8203 23.8299L26.8191 22.5466C26.8191 22.5441 26.8201 22.5418 26.8218 22.54C26.8235 22.5383 26.8259 22.5373 26.8284 22.5373H28.443Z" fill="white"/>
<path d="M16.9172 25.4204H13.2579C13.2519 25.4204 13.2471 25.4252 13.2471 25.4312V26.7108C13.2471 26.7167 13.2519 26.7216 13.2579 26.7216H16.9172C16.9231 26.7216 16.928 26.7167 16.928 26.7108V25.4312C16.928 25.4252 16.9231 25.4204 16.9172 25.4204Z" fill="white"/>
<path d="M26.811 25.4204H23.1467C23.1423 25.4204 23.1387 25.424 23.1387 25.4284V26.7135C23.1387 26.718 23.1423 26.7216 23.1467 26.7216H26.811C26.8155 26.7216 26.8191 26.718 26.8191 26.7135V25.4284C26.8191 25.424 26.8155 25.4204 26.811 25.4204Z" fill="white"/>
<circle cx="20" cy="20" r="19.5" stroke="black" stroke-opacity="0.05"/>
</svg>
