<svg width="40" height="40" viewBox="0 0 40 40" fill="none" xmlns="http://www.w3.org/2000/svg">
<circle cx="20" cy="20" r="20" fill="#F6F8FA"/>
<path d="M8 20C8 26.7578 13.3844 32.2541 20 32.2541C26.6156 32.2541 32 26.7578 32 20C32 13.2423 26.6156 7.74591 20 7.74591C13.3844 7.74894 8 13.2453 8 20ZM8.67457 20C8.67457 13.6234 13.7535 8.43863 20 8.43863C26.2435 8.43863 31.3224 13.6264 31.3224 20C31.3224 26.3766 26.2435 31.5614 20 31.5614C13.7565 31.5614 8.67457 26.3766 8.67457 20Z" fill="#009FE8"/>
<path d="M26.0861 27.4686H27.399C27.399 27.4686 28.1401 26.9635 28.9599 24.9156H29.2321L29.6526 24.0807C29.6526 24.0807 29.825 23.8296 29.3561 23.8296C28.8873 23.8296 17.946 23.8296 17.946 23.8296C17.946 23.8296 17.6495 23.8054 17.4499 24.0565C17.2502 24.3106 17.0778 24.6373 17.0778 24.6373C17.0778 24.6373 16.854 24.9156 17.1655 24.9156C17.4771 24.9156 27.7347 24.9156 27.7347 24.9156C27.7347 24.9156 27.6833 25.8382 26.0861 27.4686Z" fill="#E50012"/>
<path d="M26.4312 23.0491H24.1413C24.1413 23.0491 22.8889 21.0436 18.1458 21.6395C17.4954 21.7212 14.8667 22.1023 14.894 24.2924C14.9 24.7189 15.5141 26.7335 19.3437 26.7033C20.0001 26.6972 23.0795 26.7698 24.0868 25.1454H26.4675C26.4675 25.1454 25.7596 28.3912 19.2378 28.0766C18.5269 28.0433 12.1897 28.0403 12.1534 23.996C12.1473 23.2155 12.8612 20.7139 18.7478 20.2662C19.4072 20.2178 24.8158 19.9334 26.8335 22.7345L26.4312 23.0491Z" fill="white"/>
<path d="M18.7421 20.1906C12.2385 20.6837 12.0751 23.6572 12.0782 23.993C12.0993 26.5188 14.5919 27.9919 19.09 28.1432L19.2322 28.1492C25.7419 28.4638 26.5072 25.2967 26.5375 25.1606L26.5556 25.0698H24.0449L24.0237 25.1031C23.4006 26.1074 21.8639 26.6186 19.45 26.6247H19.3411C15.1818 26.6579 14.964 24.3106 14.964 24.2864C14.9398 22.3928 16.9514 21.8604 18.1523 21.7091C22.7835 21.1283 24.0661 23.0643 24.0782 23.0855L24.0993 23.1187H26.4528L26.9277 22.7437L26.8853 22.6862C24.8253 19.8185 19.3592 20.1452 18.7421 20.1906ZM19.2413 28.001L19.0961 27.995C14.6857 27.8467 12.2476 26.428 12.2264 23.993C12.2234 23.6693 12.3807 20.8228 18.7542 20.3388C18.9962 20.3207 24.6348 19.9335 26.725 22.7225C26.6403 22.789 26.4376 22.9493 26.4104 22.9705C26.362 22.9705 24.2536 22.9705 24.184 22.9705C24.0298 22.7467 22.6746 20.9952 18.1432 21.5609C16.8878 21.7212 14.7976 22.2808 14.8218 24.2924C14.8309 24.9458 15.6779 26.8062 19.3471 26.7789H19.453C21.8881 26.7729 23.458 26.2465 24.1205 25.2211C24.184 25.2211 26.1835 25.2211 26.365 25.2211C26.1956 25.7232 25.0219 28.2793 19.2413 28.001Z" fill="#E50012"/>
<path d="M26.34 23.0461C26.34 23.0461 28.884 23.0461 29.1562 23.0461C29.4285 23.0461 29.7491 22.6922 28.9838 22.1356C28.2155 21.579 23.8353 19.4827 17.9427 19.9879C17.1804 20.0544 10.4166 20.7471 10.4681 24.2077C10.4711 24.5646 10.4166 27.7711 18.8835 28.4033C19.6004 28.4577 26.6062 29.0113 27.5712 24.5858H26.3098C26.3098 24.5858 25.8651 28.3004 18.7353 27.6954C18.0426 27.638 12.5704 27.4686 12.4494 24.1562C12.4252 23.4938 13.1179 20.9468 18.4146 20.617C18.9137 20.5868 23.911 20.2631 26.1615 22.7648L26.34 23.0461Z" fill="#E50012" stroke="#E50012" stroke-width="0.2824"/>
<path d="M20.9951 9.64862C20.9951 9.64862 19.5855 11.4696 20.6987 15.033C20.9951 15.9859 21.8633 18.3181 21.2674 24.2077H18.0488C18.0488 24.2077 19.5341 20.4417 18.9654 16.727C18.7718 15.4656 17.3803 10.1054 20.9951 9.64862Z" fill="#009FE8"/>
<circle cx="20" cy="20" r="19.5" stroke="black" stroke-opacity="0.05"/>
</svg>
