<svg width="40" height="40" viewBox="0 0 40 40" fill="none" xmlns="http://www.w3.org/2000/svg">
<circle cx="20" cy="20" r="20" fill="#F6F8FA"/>
<circle cx="20" cy="20" r="19.5" stroke="black" stroke-opacity="0.05"/>
<path d="M33.6328 17.5518L33.173 20.1406L31.8269 17.5518H30.5109L29.5703 22.848H30.9617L31.4238 20.2472L32.7676 22.848H34.0943L35.035 17.5518H33.6328Z" fill="#005A8B"/>
<path d="M8.24432 21.3746L5.65317 19.8505L5.92533 18.3185L7.04287 17.5452H10.2248L9.98894 18.8725H7.34791C7.26059 18.8725 7.23734 18.9768 7.32353 19.0086L9.91637 20.4975L9.61416 22.2001L8.67863 22.8511H5.03516L5.27102 21.5237H8.19385C8.30725 21.5237 8.34127 21.4387 8.24432 21.3746Z" fill="#005A8B"/>
<path d="M22.3277 21.3746L19.7366 19.8505L20.0087 18.3185L21.1263 17.5452H24.3082L24.0724 18.8725H21.4313C21.344 18.8725 21.3208 18.9768 21.4069 19.0086L24.0004 20.4975L23.6981 22.2001L22.7626 22.8511H19.1191L19.355 21.5237H22.2778C22.3912 21.5237 22.4253 21.4387 22.3283 21.3746H22.3277Z" fill="#005A8B"/>
<path d="M27.6691 22.8533H29.2142L28.3382 17.5491H26.5136L23.7529 22.8533H25.2985L25.7646 21.9121H27.537L27.6691 22.8533ZM27.3595 20.6477H26.3917L27.1464 19.1253L27.3601 20.6477H27.3595Z" fill="#005A8B"/>
<path d="M18.5566 17.4736H15.8583L15.1819 17.9771L14.684 17.4736H11.9857L10.8546 18.3156L10.1855 22.081L11.0179 22.9224H13.7162L14.3926 22.4189L14.8904 22.9224H17.5887L18.7199 22.081L19.3889 18.3156L18.5566 17.4736ZM13.9458 18.873L13.473 21.5333C13.4661 21.5701 13.431 21.6002 13.3941 21.6002H11.8128C11.776 21.6002 11.751 21.5701 11.7578 21.5333L12.2301 18.873C12.2369 18.8361 12.2721 18.8061 12.3089 18.8061H13.8908C13.9277 18.8061 13.9521 18.8361 13.9458 18.873ZM17.8178 18.873L17.3455 21.5333C17.3387 21.5701 17.3035 21.6002 17.2667 21.6002H15.6853C15.6485 21.6002 15.6235 21.5701 15.6303 21.5333L16.1026 18.873C16.1095 18.8361 16.1446 18.8061 16.1815 18.8061H17.7634C17.8002 18.8061 17.8252 18.8361 17.8184 18.873H17.8178Z" fill="#005A8B"/>
<mask id="mask0_17713_27861" style="mask-type:luminance" maskUnits="userSpaceOnUse" x="10" y="17" width="10" height="6">
<path d="M18.5556 17.4736H15.8573L15.1809 17.9771L14.6831 17.4736H11.9848L10.8536 18.3156L10.1846 22.081L11.0169 22.9224H13.7152L14.3916 22.4189L14.8894 22.9224H17.5877L18.7189 22.081L19.3879 18.3156L18.5556 17.4736ZM13.9448 18.873L13.472 21.5333C13.4652 21.5701 13.43 21.6002 13.3932 21.6002H11.8118C11.775 21.6002 11.75 21.5701 11.7568 21.5333L12.2291 18.873C12.2359 18.8361 12.2711 18.8061 12.3079 18.8061H13.8898C13.9267 18.8061 13.9511 18.8361 13.9448 18.873ZM17.8168 18.873L17.3445 21.5333C17.3377 21.5701 17.3026 21.6002 17.2657 21.6002H15.6844C15.6475 21.6002 15.6226 21.5701 15.6294 21.5333L16.1017 18.873C16.1085 18.8361 16.1436 18.8061 16.1805 18.8061H17.7624C17.7992 18.8061 17.8242 18.8361 17.8174 18.873H17.8168Z" fill="white"/>
</mask>
<g mask="url(#mask0_17713_27861)">
<path d="M19.4968 18.146L10.4238 22.9223L10.7963 22.9699L19.3879 20.0516L19.4968 18.146Z" fill="url(#paint0_linear_17713_27861)"/>
<path d="M10.6865 22.7805L10.4932 22.5555L18.1333 16.9326L19.6506 18.1794L10.6865 22.7805Z" fill="url(#paint1_linear_17713_27861)"/>
</g>
<defs>
<linearGradient id="paint0_linear_17713_27861" x1="8.65992" y1="23.6503" x2="17.1449" y2="20.0687" gradientUnits="userSpaceOnUse">
<stop stop-color="#005A75"/>
<stop offset="1" stop-color="#4BC0F0"/>
</linearGradient>
<linearGradient id="paint1_linear_17713_27861" x1="17.6701" y1="18.2951" x2="10.2244" y2="22.7998" gradientUnits="userSpaceOnUse">
<stop stop-color="#C4D700"/>
<stop offset="0.3" stop-color="#95C637"/>
<stop offset="1" stop-color="#005B77"/>
</linearGradient>
</defs>
</svg>
