<svg width="40" height="40" viewBox="0 0 40 40" fill="none" xmlns="http://www.w3.org/2000/svg">
<circle cx="20" cy="20" r="20" fill="#F6F8FA"/>
<g clip-path="url(#clip0_18553_55949)">
<path d="M26.21 10.8531C24.4159 10.8592 22.6279 10.8654 20.8338 10.8654C20.4472 10.8654 20.0545 10.8838 19.6619 10.8654C19.5048 10.8654 19.3478 10.8592 19.1787 10.8592C17.3604 10.8592 15.5301 10.8592 13.6756 10.8592C13.6575 10.8592 13.6454 10.847 13.6394 10.8285C13.6333 10.7979 13.6394 10.7733 13.6635 10.761C14.4972 10.1965 15.3972 9.73008 16.3577 9.37415C16.7382 9.23301 17.1309 9.12868 17.5114 9.00595C17.6141 8.97527 17.7108 9.00595 17.7531 9.11027C17.8014 9.22687 17.8799 9.33119 17.9766 9.42324C18.1457 9.5828 18.3148 9.77304 18.5081 9.90191C18.7558 10.0737 18.9914 10.1658 19.2632 10.264C19.378 10.3069 19.4988 10.3376 19.6136 10.3499C20.7794 10.4972 21.7097 10.0799 22.3923 9.08573C22.4406 9.01209 22.5191 8.98754 22.6218 9.01822C23.9689 9.36188 25.2012 9.92032 26.3126 10.6874C26.367 10.7242 26.4093 10.7672 26.4395 10.8224C26.4516 10.847 26.4455 10.8592 26.4214 10.8592C26.3489 10.8592 26.2764 10.8408 26.2039 10.8408L26.21 10.8531Z" fill="#E03C25"/>
<path d="M18.1454 12.7496C18.5803 12.9276 18.9186 13.0319 19.1723 13.0626C19.4441 13.0932 19.7341 13.1546 20.0059 13.1485C21.4979 13.1362 22.7363 12.5594 23.7088 11.4241C23.8357 11.2768 24.1135 11.2829 24.3008 11.2829C25.3096 11.2768 26.1553 11.2768 26.8439 11.2829C27.007 11.2829 27.158 11.3443 27.2849 11.4486C27.8225 11.8966 28.2755 12.4305 28.7286 12.9766C28.8856 13.1669 29.0306 13.3817 29.1575 13.621C29.1635 13.6333 29.1575 13.6455 29.1454 13.6578C29.1454 13.6578 29.1333 13.6578 29.1273 13.6578C29.0306 13.6394 28.946 13.6333 28.8796 13.6333C28.0218 13.6333 27.0614 13.6333 25.9982 13.6517C25.8895 13.6517 25.823 13.6517 25.8049 13.6517C24.633 13.6517 23.582 13.6517 22.6457 13.6517C18.9911 13.6701 15.1613 13.6517 11.5671 13.6701C11.3618 13.6701 11.1564 13.6517 10.957 13.6578C10.945 13.6578 10.9389 13.6578 10.9329 13.6578C10.9268 13.6578 10.9208 13.6578 10.9147 13.6517C10.9027 13.6517 10.8906 13.6333 10.8966 13.621C10.8966 13.621 10.8966 13.6149 10.8966 13.6087C11.1443 13.3142 11.3497 12.9951 11.5973 12.7005C11.9719 12.2525 12.3766 11.8291 12.8055 11.4363C12.9021 11.3504 13.0229 11.2952 13.1498 11.3013C14.2492 11.3013 15.2761 11.3075 16.2305 11.3013C16.297 11.3013 16.3634 11.3382 16.3936 11.3995C16.4721 11.5468 16.5809 11.6879 16.7258 11.8107C17.2151 12.2464 17.6863 12.5532 18.1333 12.7435L18.1454 12.7496Z" fill="#E03C25"/>
<path d="M18.1093 16.6096C15.5662 16.6341 13.0835 16.6096 10.5706 16.6096C10.2203 16.6096 9.90011 16.6219 9.62224 16.6464C9.59203 16.6464 9.56787 16.628 9.56787 16.5973C9.56787 16.5973 9.56787 16.585 9.56787 16.5789C9.62828 16.3212 9.70681 16.0634 9.8095 15.8057C10.0511 15.1981 10.3109 14.652 10.5767 14.1733C10.6008 14.1304 10.6371 14.1058 10.6854 14.1058C10.8243 14.0935 10.9572 14.0874 11.078 14.0935C12.6003 14.0997 13.6876 14.0997 14.34 14.0935C14.5816 14.0935 14.6843 14.1365 14.8836 14.2961C15.3608 14.6765 15.8622 15.0079 16.3938 15.2841C16.6898 15.4375 17.0099 15.5541 17.324 15.6707C17.8677 15.8732 18.4416 16.0082 19.0456 16.0757C21.0753 16.315 22.9237 15.867 24.5909 14.744C24.8748 14.5538 25.1286 14.3267 25.4125 14.1426C25.497 14.0874 25.5937 14.0629 25.7024 14.0629C26.8622 14.069 27.9737 14.069 29.0368 14.0629C29.212 14.0629 29.4355 13.9892 29.5443 14.1917C29.9127 14.8913 30.2873 15.7014 30.5228 16.4868C30.5349 16.5298 30.5108 16.5789 30.4685 16.5912C30.4624 16.5912 30.4504 16.5912 30.4443 16.5912C27.5388 16.5912 24.6393 16.5973 21.7458 16.6096C21.4015 16.6096 21.0088 16.6096 20.5739 16.6219C19.7584 16.6341 18.9067 16.6034 18.1214 16.6157L18.1093 16.6096Z" fill="#E03C25"/>
<path d="M13.0834 17.1125C13.1136 17.1247 13.1438 17.1432 13.174 17.1616C13.6694 17.4868 14.1587 17.7568 14.648 17.9839C15.2339 18.2478 15.8742 18.5178 16.4964 18.6896C17.3179 18.9228 18.079 19.0762 18.7737 19.1437C19.414 19.2112 20.1691 19.2174 21.045 19.1683C21.2806 19.156 21.5222 19.1314 21.7699 19.0946C23.6123 18.8307 25.3942 18.1373 26.9709 17.1247C27.0917 17.0511 27.2548 17.0266 27.4118 17.0204C28.4689 17.0081 29.514 17.0081 30.5469 17.0143C30.6375 17.0143 30.6919 17.0511 30.7161 17.1493C30.8912 17.9716 30.9879 18.7816 31.006 19.5856C31.006 19.6285 30.9698 19.6653 30.9275 19.6653C29.9489 19.6653 28.9522 19.6653 27.9494 19.6653C27.6232 19.6653 27.3273 19.6285 26.9829 19.5181C26.0285 19.2051 25.0379 19.1621 24.017 19.3953C23.7029 19.469 23.2196 19.6899 22.7907 19.6899C21.486 19.6837 20.1812 19.6899 18.8824 19.6899C18.1878 19.6899 17.5112 19.696 16.8407 19.696C14.3338 19.696 11.7666 19.696 9.14493 19.696C9.10265 19.696 9.06641 19.6592 9.06641 19.6162C9.10265 18.7878 9.21138 17.9655 9.38656 17.1432C9.40468 17.0695 9.47717 17.0327 9.54966 17.0327C10.6793 17.0388 11.7545 17.045 12.7693 17.0388C12.878 17.0388 12.9807 17.0634 13.0895 17.1063L13.0834 17.1125Z" fill="#E03C25"/>
<path d="M9.26572 22.5007C9.09658 21.7336 8.95161 20.899 9.01201 20.1136C9.01201 20.1013 9.01805 20.1013 9.03013 20.1013H9.06034C9.06034 20.1013 9.07242 20.1074 9.07242 20.1197C9.03618 20.4695 9.03618 20.7518 9.07242 20.9666C9.39257 22.7462 10.2866 24.1392 11.7424 25.1456C12.5579 25.7102 13.464 26.0416 14.4546 26.152C15.6326 26.2809 16.7682 26.0784 17.8495 25.5384C18.8401 25.0474 19.6375 24.3417 20.2536 23.4151C20.2899 23.3599 20.4228 23.1205 20.6584 22.6848C21.2987 21.5004 22.2652 20.6843 23.5639 20.2363C24.0592 20.0645 24.6029 19.9785 25.2009 19.9847C26.0527 19.9847 26.8561 20.1872 27.6111 20.5738C28.8434 21.212 29.7254 22.3105 30.1844 23.6667C30.2388 23.8201 30.1724 23.9551 30.118 24.1024C29.8099 24.8572 29.4415 25.5445 29.0126 26.1705C28.783 26.5018 28.5656 26.8271 28.2998 27.1339C28.1367 27.318 27.9917 27.4776 27.8528 27.6126C25.811 29.699 23.0867 30.9632 20.1872 31.0062C19.1361 31.0246 18.1757 30.9202 17.2998 30.6993C15.4876 30.2391 13.7237 29.337 12.4189 28.0053C12.0927 27.6739 11.833 27.3917 11.6276 27.1462C10.9148 26.3055 10.3289 25.3543 9.87582 24.2926C9.64024 23.7465 9.40465 23.1021 9.27176 22.5007H9.26572Z" fill="#2241B0"/>
<path d="M30.5045 22.8384C30.0877 21.8198 29.4414 20.9545 28.5776 20.3224C28.5655 20.3101 28.5594 20.2917 28.5715 20.2794C28.5715 20.2794 28.5715 20.2794 28.5776 20.2733C28.6803 20.2119 28.7829 20.1567 28.8917 20.1199C28.9702 20.0892 29.091 20.0769 29.2481 20.0769C29.7615 20.0769 30.3052 20.0769 30.8851 20.0708C30.9334 20.0708 30.9757 20.1076 30.9757 20.1567C30.9757 21.0404 30.8005 21.9364 30.5529 22.8323C30.5408 22.8814 30.5227 22.8814 30.5045 22.8323V22.8384Z" fill="#E03C25"/>
<path d="M13.1921 21.0707C14.3398 21.5494 15.4755 21.8992 16.6051 22.1201C17.1125 22.2183 17.6743 22.3042 18.2904 22.3717C18.7858 22.4269 19.4019 22.4515 20.1389 22.4515C20.1932 22.4515 20.2113 22.476 20.1993 22.5312C20.1751 22.6171 20.1449 22.7031 20.1087 22.7828C20.0603 22.881 19.9818 22.9301 19.8731 22.9301H10.643C10.5705 22.9301 10.504 22.8872 10.4678 22.8258C10.2564 22.433 10.0389 22.0403 9.8879 21.623C9.71272 21.1443 9.60399 20.6595 9.55566 20.1686C9.55566 20.1379 9.56775 20.1257 9.59795 20.1257C9.93622 20.1318 10.2866 20.1257 10.643 20.1257C11.0235 20.1134 11.3135 20.1502 11.6578 20.3466C12.0807 20.5798 12.5881 20.8252 13.1861 21.0768L13.1921 21.0707Z" fill="#E03C25"/>
</g>
<circle cx="20" cy="20" r="19.5" stroke="black" stroke-opacity="0.05"/>
<defs>
<clipPath id="clip0_18553_55949">
<rect width="22" height="22" fill="white" transform="translate(9 9)"/>
</clipPath>
</defs>
</svg>
