<svg width="40" height="40" viewBox="0 0 40 40" fill="none" xmlns="http://www.w3.org/2000/svg">
<circle cx="20" cy="20" r="20" fill="#DA364A"/>
<g clip-path="url(#clip0_17991_36375)">
<path d="M13.264 16.4402V24.0043C13.264 24.0043 13.2854 24.0541 13.3139 24.0541C13.3281 24.0541 13.3352 24.0541 13.3423 24.047C15.179 22.8433 17.037 21.6253 18.9234 20.386C18.9377 20.3718 18.959 20.3718 18.9804 20.3647C18.9946 20.3647 19.0089 20.3647 19.0302 20.3647C19.0729 20.3647 19.1014 20.4003 19.1014 20.443L19.0872 22.7721C19.0872 22.8718 19.0373 22.9715 18.9519 23.0214L11.1996 28.1282C11.0999 28.1923 11.043 28.1709 11.043 28.0427V12.4373C11.043 12.2949 11.0928 12.2664 11.2138 12.3447L18.9377 17.4088C19.0373 17.4729 19.0872 17.4444 19.0872 17.3305V9.5883C19.0872 9.46722 19.1441 9.35326 19.2438 9.28916L21.1872 8.01423C21.1872 8.01423 21.2655 7.99998 21.2869 8.03559C21.294 8.04984 21.3011 8.06408 21.3011 8.07121V18.698C21.3011 18.7407 21.3367 18.7692 21.3794 18.7692C21.3937 18.7692 21.4079 18.7692 21.4221 18.755C24.1202 16.9886 26.7399 15.2578 29.2884 13.584C29.5091 13.4416 29.7369 13.2991 29.9789 13.1709C30.0003 13.1567 30.0287 13.1709 30.043 13.1852C30.043 13.1852 30.043 13.1994 30.043 13.2065V15.5926C30.043 15.6923 29.986 15.7849 29.9006 15.8419L23.3228 20.1652C23.3228 20.1652 23.2801 20.2222 23.3015 20.2578C23.3015 20.2649 23.3157 20.2721 23.3228 20.2792L29.9148 24.6025C29.9931 24.6524 30.043 24.7379 30.043 24.8376V27.1595C30.043 27.2664 29.986 27.3732 29.8935 27.4302L21.415 32.9929C21.415 32.9929 21.3367 33.0071 21.3082 32.9715C21.3011 32.9572 21.294 32.943 21.294 32.9288V30.5142C21.294 30.4501 21.3225 30.386 21.3794 30.3504L27.8433 26.1196C27.9002 26.084 27.9145 26.0057 27.8789 25.9487C27.8717 25.9345 27.8575 25.9202 27.8433 25.9131L13.3423 16.3974C13.3423 16.3974 13.2854 16.3903 13.2711 16.4117C13.2711 16.4188 13.264 16.4259 13.264 16.4402Z" fill="white"/>
</g>
<circle cx="20" cy="20" r="19.5" stroke="black" stroke-opacity="0.05"/>
<defs>
<clipPath id="clip0_17991_36375">
<rect width="19" height="25" fill="white" transform="translate(11.0352 8)"/>
</clipPath>
</defs>
</svg>
