<svg width="40" height="40" viewBox="0 0 40 40" fill="none" xmlns="http://www.w3.org/2000/svg">
<circle cx="20" cy="20" r="20" fill="#0057AF"/>
<g clip-path="url(#clip0_17752_43814)">
<path d="M11.9655 13.1932H14.2449C14.2344 16.1233 14.2344 19.4577 14.2344 22.3878C14.2298 22.6837 14.1811 22.9773 14.0902 23.2589C13.9046 23.8723 13.4678 24.2183 12.8998 24.2167C12.2597 24.2167 11.8877 23.9979 11.673 23.3254C11.6041 23.1082 11.5044 22.5702 11.4631 22.3449L7.99902 22.3287C8.02819 24.1308 8.84256 26.2117 10.6334 27.1055C12.2888 27.932 13.997 27.8875 15.6865 27.1509C16.4668 26.8105 17.1507 26.3179 17.6515 25.6307C18.4683 24.5101 18.6895 23.1998 18.7187 21.8482C18.7479 20.4852 18.7389 19.1215 18.743 17.7585C18.743 16.368 18.743 14.5837 18.743 13.1932H19.666C19.666 17.6208 19.666 22.917 19.666 27.3421H29.1556C30.3589 27.3372 30.9958 26.766 30.9966 25.5708C31.0015 21.7628 31.0015 17.9543 30.9966 14.1453C31.0085 13.8621 30.9681 13.5792 30.8775 13.3107C30.5744 12.5117 30.0874 12.2078 29.0761 12.207H11.9655M22.7622 15.5804C23.908 15.5966 25.4111 15.5804 26.5569 15.5941C27.351 15.6023 27.8493 16.1111 27.8534 16.9142C27.8631 17.9797 27.8534 19.0461 27.8534 20.1554C27.8534 21.0857 27.8437 21.9762 27.8534 22.8659C27.8672 23.8213 27.3891 24.288 26.4758 24.3431C25.3471 24.4104 23.8869 24.352 22.7541 24.3658L22.7622 15.5804Z" fill="white"/>
</g>
<circle cx="20" cy="20" r="19.5" stroke="black" stroke-opacity="0.05"/>
<defs>
<clipPath id="clip0_17752_43814">
<rect width="23" height="15.5038" fill="white" transform="translate(8 12.2104)"/>
</clipPath>
</defs>
</svg>
