<svg width="40" height="40" viewBox="0 0 40 40" fill="none" xmlns="http://www.w3.org/2000/svg">
<circle cx="20" cy="20" r="20" fill="#760000"/>
<g clip-path="url(#clip0_33363_65726)">
<path d="M18.4677 23.8447L15.8953 20.5243C15.7775 20.369 15.5812 20.2816 15.3553 20.2816C15.1786 20.2816 15.0117 20.3399 14.8939 20.437C14.5699 20.6991 14.5012 21.1069 14.727 21.437L15.807 22.7865L13.5783 23.2525V16.835L16.8477 17.5049V21.3107L18.183 23.0195V17.2039C18.183 16.7768 17.8884 16.3593 17.5055 16.2622L12.891 15.0389C12.7928 15.0195 12.6848 15.0098 12.5768 15.0098C12.1448 15.0098 11.6833 15.2234 11.6833 15.8253V24.1166C11.6833 24.6311 12.0663 24.9903 12.6063 24.9903C12.6946 24.9903 12.7928 24.9806 12.8812 24.9612L16.779 24.0001L17.4171 24.7962C17.5153 24.9127 17.6921 24.9806 17.9081 24.9806C18.1339 24.9806 18.3499 24.903 18.4481 24.7865C18.6641 24.4952 18.6837 24.1263 18.4677 23.8447Z" fill="white"/>
<path d="M10.2597 24.9711C9.8964 24.9711 9.00294 24.5536 9.00294 23.9128V17.9711L8.42367 18.4954C8.29604 18.6022 8.12913 18.6604 7.94258 18.6604C7.66767 18.6604 7.4124 18.5342 7.24549 18.3303C6.96076 17.9517 7.11785 17.3303 7.44185 17.0682L9.30731 15.4274C9.58222 15.1847 9.91603 15.0391 10.2302 15.0391C10.6328 15.0391 10.8782 15.2624 10.8782 15.6313V24.4274C10.888 24.7575 10.6328 24.9711 10.2597 24.9711Z" fill="white"/>
<path d="M34 16.498V17.2404H31.2955V19.7449H33.9277V20.4873H31.2955V23.5463H30.3096V16.498H34Z" fill="white"/>
<path d="M27.2448 23.5463H26.2678V17.2404H24.1061V16.498H29.4247V17.2404H27.2448V23.5463Z" fill="white"/>
<path d="M23.3559 16.498V17.2404H20.6513V19.4676H23.2835V20.21H20.6513V22.8039H23.591V23.5463H19.6654V16.498H23.3559Z" fill="white"/>
</g>
<circle cx="20" cy="20" r="19.5" stroke="black" stroke-opacity="0.05"/>
<defs>
<clipPath id="clip0_33363_65726">
<rect width="27" height="10" fill="white" transform="translate(7 15)"/>
</clipPath>
</defs>
</svg>
