<svg width="40" height="40" viewBox="0 0 40 40" fill="none" xmlns="http://www.w3.org/2000/svg">
<circle cx="20" cy="20" r="20" fill="#760000"/>
<g clip-path="url(#clip0_33938_59899)">
<path d="M11.0823 22.9651L8.951 19.8337H7.62383V17.3379H6V22.9651H7.62383V20.7408L9.13837 22.9651H11.0823Z" fill="white"/>
<path d="M11.6106 20.2838L12.6046 15L7.42867 16.7015C7.42867 16.7015 8.41494 16.9398 9.33615 17.4805L7.25171 19.8405L8.47479 20.8885L10.5592 18.5285C11.2358 19.3511 11.6106 20.2838 11.6106 20.2838Z" fill="white"/>
<path d="M12.589 17.3574H13.7314V22.9H12.589V17.3574Z" fill="white"/>
<path d="M14.0437 17.3574H15.2147L15.566 19.9455C15.6337 20.5297 15.7066 21.114 15.7716 21.6982H15.8029C15.9017 21.114 16.0032 20.5221 16.1047 19.9455L16.6486 17.3574H17.6193L18.1631 19.9455C18.2646 20.5092 18.3661 21.1063 18.4676 21.6982H18.4988C18.5665 21.1063 18.6368 20.5169 18.7018 19.9455L19.0531 17.3574H20.1461L19.2483 22.9H17.8118L17.3174 20.3837C17.2367 19.9558 17.1691 19.5125 17.1144 19.0973H17.0832C17.0233 19.5125 16.9583 19.9558 16.8776 20.3837L16.3988 22.9H14.9883L14.0489 17.3574H14.0437Z" fill="white"/>
<path d="M20.2007 20.1053C20.2007 18.2937 21.1323 17.2559 22.4985 17.2559C23.8647 17.2559 24.7963 18.3013 24.7963 20.1053C24.7963 21.9093 23.8647 23.0035 22.4985 23.0035C21.1323 23.0035 20.2007 21.917 20.2007 20.1053ZM23.6227 20.1053C23.6227 18.9932 23.1881 18.3372 22.4985 18.3372C21.8089 18.3372 21.3743 18.9932 21.3743 20.1053C21.3743 21.2174 21.8089 21.9195 22.4985 21.9195C23.1881 21.9195 23.6227 21.2149 23.6227 20.1053Z" fill="white"/>
<path d="M25.1217 20.1053C25.1217 18.2937 26.0533 17.2559 27.4195 17.2559C28.7857 17.2559 29.7174 18.3013 29.7174 20.1053C29.7174 21.9093 28.7857 23.0035 27.4195 23.0035C26.0533 23.0035 25.1217 21.917 25.1217 20.1053ZM28.5437 20.1053C28.5437 18.9932 28.1091 18.3372 27.4195 18.3372C26.7299 18.3372 26.2953 18.9932 26.2953 20.1053C26.2953 21.2174 26.7299 21.9195 27.4195 21.9195C28.1091 21.9195 28.5437 21.2149 28.5437 20.1053Z" fill="white"/>
<path d="M30.2795 17.3574H31.526L32.3457 19.8199C32.4472 20.1479 32.5356 20.5016 32.6371 20.8424H32.6684C32.7699 20.5016 32.8557 20.1454 32.9572 19.8199L33.7509 17.3574H34.9974V22.9H33.9565V20.8654C33.9565 20.3248 34.0476 19.5176 34.1022 18.982H34.071L33.6572 20.294L32.9416 22.4183H32.3066L31.591 20.294L31.1877 18.982H31.1564C31.2111 19.5176 31.3022 20.3248 31.3022 20.8654V22.9H30.2769V17.3574H30.2795Z" fill="white"/>
</g>
<circle cx="20" cy="20" r="19.5" stroke="black" stroke-opacity="0.05"/>
<defs>
<clipPath id="clip0_33938_59899">
<rect width="29" height="8" fill="white" transform="translate(6 15)"/>
</clipPath>
</defs>
</svg>
