<svg width="40" height="40" viewBox="0 0 40 40" fill="none" xmlns="http://www.w3.org/2000/svg">
<circle cx="20" cy="20" r="20" fill="#760000"/>
<g clip-path="url(#clip0_33363_65647)">
<path d="M12.3109 14L12.3241 14.9739C12.3249 15.0184 12.3012 15.0406 12.2528 15.0406H10.3457C10.2929 15.0406 10.2669 15.0649 10.2678 15.1134L10.285 19.3366H9.09584L9.08528 15.1122C9.08528 15.0718 9.06328 15.0516 9.01929 15.0516H7V14.0667C7.02376 14.0481 7.04311 14.0259 7.05807 14H12.3109Z" fill="white"/>
<path d="M14.1428 14L14.1441 19.3366H12.955V14H14.1428Z" fill="white"/>
<path d="M20.421 14L20.4171 14.9824C20.4171 15.0245 20.3942 15.0455 20.3484 15.0455C19.2319 15.0463 18.1153 15.0463 16.9988 15.0455C16.6728 15.0443 16.3877 15.1049 16.3138 15.4142C16.3094 15.432 16.3063 15.6014 16.3046 15.9224C16.3002 16.6873 16.3015 17.3374 16.3085 17.8727C16.3096 17.9837 16.3584 18.0898 16.4445 18.1679C16.5305 18.2461 16.6467 18.2899 16.7678 18.2899H18.8676C18.967 18.2899 19.0624 18.2536 19.1327 18.189C19.203 18.1244 19.2424 18.0368 19.2424 17.9455V17.4045C19.2424 17.2663 19.1672 17.1971 19.0168 17.1971H17.5439C17.5104 17.1971 17.4937 17.1814 17.4937 17.1498V16.2135C17.4937 16.1739 17.5153 16.1541 17.5584 16.1541H20.359C20.4083 16.1541 20.4325 16.1763 20.4316 16.2208C20.4228 16.6048 20.4245 17.0609 20.4369 17.5889C20.458 18.5034 20.0528 19.1086 19.0696 19.3366H16.3494C15.8611 19.2388 15.5136 19.0152 15.3068 18.6659C15.1722 18.4379 15.1062 18.085 15.1088 17.6071C15.1141 16.8325 15.1207 16.0582 15.1286 15.2844C15.1304 15.0766 15.2347 14.8583 15.4414 14.6295C15.7318 14.3085 16.1066 14.0986 16.5659 14H20.421Z" fill="white"/>
<path d="M26.2624 14L26.2531 14.9836C26.2531 15.0273 26.2294 15.0491 26.1819 15.0491H22.7781C22.7403 15.0491 22.7214 15.0665 22.7214 15.1013V16.0837C22.7214 16.0963 22.7269 16.1083 22.7368 16.1172C22.7467 16.126 22.7602 16.131 22.7742 16.131H25.7701C25.7793 16.131 25.7884 16.1327 25.7969 16.1359C25.8053 16.1391 25.8131 16.1439 25.8196 16.1498C25.8261 16.1558 25.8312 16.1629 25.8347 16.1707C25.8382 16.1785 25.84 16.1869 25.84 16.1953V17.1462C25.84 17.1623 25.8331 17.1777 25.8207 17.1891C25.8083 17.2004 25.7916 17.2068 25.7741 17.2068H22.7702C22.7376 17.2068 22.7214 17.2214 22.7214 17.2505V18.2378C22.7214 18.275 22.742 18.2936 22.7834 18.2936H26.1806C26.2298 18.2936 26.2549 18.3166 26.2558 18.3627L26.2637 19.3366H21.5322V14H26.2624Z" fill="white"/>
<path d="M31.0638 14C32.1601 14.1924 32.6731 14.7702 32.6027 15.7332C32.5486 16.4585 32.1804 16.9291 31.4505 17.1389C31.4446 17.1405 31.4393 17.1434 31.4348 17.1473C31.4304 17.1512 31.427 17.1561 31.425 17.1615C31.4229 17.1669 31.4223 17.1727 31.423 17.1785C31.4238 17.1843 31.426 17.1898 31.4294 17.1947L32.9643 19.3366H31.5825L30.0858 17.259C30.063 17.2275 30.0308 17.2117 29.9895 17.2117H28.6829C28.6398 17.2117 28.6182 17.2319 28.6182 17.2723L28.6156 19.3366H27.4251L27.4225 14H31.0638ZM28.6129 15.0831L28.6103 16.0922C28.6103 16.1029 28.6148 16.1132 28.623 16.1209C28.6311 16.1286 28.6422 16.1331 28.6539 16.1334L30.9397 16.1407C31.0025 16.141 31.0647 16.1315 31.1228 16.1127C31.1809 16.0938 31.2338 16.066 31.2784 16.0309C31.323 15.9958 31.3585 15.954 31.3828 15.9079C31.4071 15.8618 31.4198 15.8123 31.4201 15.7623V15.4324C31.4208 15.3314 31.3712 15.2343 31.2821 15.1624C31.193 15.0905 31.0717 15.0498 30.945 15.0491L28.6591 15.0419C28.6531 15.0417 28.6472 15.0426 28.6416 15.0446C28.636 15.0466 28.6309 15.0497 28.6265 15.0535C28.6222 15.0573 28.6188 15.0619 28.6165 15.067C28.6141 15.0721 28.6129 15.0776 28.6129 15.0831Z" fill="white"/>
<path d="M16.5923 21.875L16.5818 22.8623C16.5809 22.9035 16.558 22.9241 16.5131 22.9241H13.1107C13.0808 22.9241 13.0658 22.9379 13.0658 22.9654V23.9611C13.0658 23.9927 13.0826 24.0084 13.116 24.0084H16.1423C16.1713 24.0084 16.1858 24.0218 16.1858 24.0485V25.0357C16.1858 25.0673 16.1687 25.083 16.1344 25.083H13.1358C13.0892 25.083 13.0658 25.1045 13.0658 25.1473V26.1249C13.0658 26.1532 13.0812 26.1674 13.112 26.1674H16.5171C16.5611 26.1674 16.5835 26.188 16.5844 26.2292L16.5963 27.2116H11.8833V21.875H16.5923Z" fill="white"/>
<path d="M22.633 21.875L22.6277 22.8441C22.6277 22.8918 22.6013 22.9156 22.5485 22.9156H20.6612C20.6022 22.9156 20.5727 22.9431 20.5727 22.9981L20.5939 27.2116H19.4074L19.3955 23.0078C19.3946 22.9536 19.3647 22.9266 19.3057 22.9266H17.4105C17.3648 22.9266 17.3414 22.9055 17.3406 22.8635L17.326 21.875H22.633Z" fill="white"/>
<path d="M28.3121 21.875V22.9169L24.6048 22.9193C24.5687 22.9193 24.5507 22.9359 24.5507 22.969V23.9672C24.5507 23.9971 24.5669 24.0121 24.5995 24.0121H27.8092C27.8585 24.0121 27.8831 24.0351 27.8831 24.0812V25.0285C27.8831 25.0681 27.8616 25.0879 27.8185 25.0879H24.6219C24.5806 25.0879 24.5599 25.1069 24.5599 25.1449L24.5546 27.2116H23.3655L23.3668 21.875H28.3121Z" fill="white"/>
</g>
<circle cx="20" cy="20" r="19.5" stroke="black" stroke-opacity="0.05"/>
<defs>
<clipPath id="clip0_33363_65647">
<rect width="26" height="14" fill="white" transform="translate(7 14)"/>
</clipPath>
</defs>
</svg>
