<svg width="40" height="40" viewBox="0 0 40 40" fill="none" xmlns="http://www.w3.org/2000/svg">
<circle cx="20" cy="20" r="20" fill="#0092C3"/>
<path d="M28.0909 17.0856L26.2793 22.9151H28.5163C28.5881 22.6848 30.2389 17.3734 30.3286 17.0856H28.0909Z" fill="white"/>
<path d="M24.9798 17.0856H17.0314L16.4026 19.0758H14.3855C14.6598 18.2026 14.9806 17.1962 15.015 17.0856H12.7772L11.4748 21.2912H7.68491C7.51668 21.2904 7.3679 21.1536 7.35369 20.9861C7.34995 20.9465 7.35444 20.9099 7.36416 20.8755C7.46285 20.5615 7.77762 19.5013 7.85313 19.259C7.95556 18.9375 8.25163 18.7102 8.62098 18.7102H10.6793L11.1885 17.0856H7.54285C6.76229 17.0908 6.13874 17.5768 5.92865 18.2616L5.05164 21.117C5.00753 21.2643 4.99033 21.425 5.00528 21.5925C5.06958 22.3229 5.71332 22.9151 6.44379 22.9151H13.2012C13.2296 22.8261 13.4591 22.0942 13.898 20.7043H15.9152L15.2191 22.9151H17.4546C17.5002 22.77 18.3122 20.1293 18.7593 18.708H19.9137L19.16 21.1162C19.1159 21.2635 19.0987 21.4243 19.1137 21.5917C19.178 22.3222 19.8225 22.9143 20.5529 22.9143H23.8643C24.6449 22.9099 25.2684 22.4231 25.4793 21.7383L26.372 18.8837C26.4161 18.7364 26.4333 18.5757 26.4183 18.4074C26.3548 17.6777 25.711 17.0856 24.9798 17.0856ZM24.0595 19.1259C23.9608 19.4392 23.631 20.5001 23.5548 20.7424C23.4524 21.0646 23.1563 21.2919 22.7869 21.2919C22.4699 21.2919 22.5327 21.2919 21.7948 21.2919C21.6266 21.2912 21.4778 21.1544 21.4628 20.9869C21.4591 20.9472 21.4636 20.9106 21.474 20.8762C21.572 20.5622 21.9025 19.502 21.978 19.2598C22.0811 18.9383 22.3772 18.711 22.7458 18.711C23.0636 18.711 23.0008 18.711 23.7387 18.711C23.9069 18.711 24.055 18.8471 24.0699 19.016C24.0737 19.0542 24.0699 19.0923 24.0595 19.1259Z" fill="white"/>
<path d="M32.8785 21.2904C32.7103 21.2897 32.5615 21.1536 32.5473 20.9854C32.5435 20.9458 32.548 20.9091 32.5577 20.8747C32.6377 20.6205 33.6845 17.2202 33.7271 17.0848H31.4901L30.246 21.1155C30.2019 21.2635 30.1847 21.4235 30.1996 21.5917C30.2639 22.3222 30.9077 22.9144 31.6381 22.9144H34.4905L34.9996 21.2904C34.8912 21.2904 33.0923 21.2904 32.8785 21.2904Z" fill="white"/>
<circle cx="20" cy="20" r="19.5" stroke="black" stroke-opacity="0.05"/>
</svg>
