<svg width="40" height="40" viewBox="0 0 40 40" fill="none" xmlns="http://www.w3.org/2000/svg">
<circle cx="20" cy="20" r="20" fill="#760000"/>
<path d="M26.7488 25.0305V16.9277H32.1169V18.3259H28.4446V20.28H31.9092V21.5828H28.4446V23.6323H32.1169V25.0305H26.7488Z" fill="white"/>
<path d="M17.3157 25.0305V16.9277H19.2585L21.499 22.8574H21.6001L23.835 16.9277H25.7778V25.0305H24.2673V19.5164H24.155L22.0774 25.0305H21.0161L18.9385 19.5164H18.8262V25.0305H17.3157Z" fill="white"/>
<path d="M14.6545 25.0305V16.9277H16.3503V25.0305H14.6545Z" fill="white"/>
<path d="M10.0281 25.0305V18.3259H7.59668V16.9277H14.1553V18.3259H11.7239V25.0305H10.0281Z" fill="white"/>
<circle cx="20" cy="20" r="19.5" stroke="black" stroke-opacity="0.05"/>
</svg>
