<svg width="40" height="40" viewBox="0 0 40 40" fill="none" xmlns="http://www.w3.org/2000/svg">
<circle cx="20" cy="20" r="20" fill="#0B3B5E"/>
<g clip-path="url(#clip0_14382_18859)">
<path d="M9.10655 24.4936C9.50341 24.4936 9.70184 24.613 9.70184 24.854V25.1496C9.70184 25.3865 9.50341 25.506 9.10655 25.506H7.68311V25.2589H9.10655C9.29283 25.2589 9.38597 25.2225 9.38597 25.1496V24.854C9.38597 24.777 9.29283 24.7406 9.10655 24.7406H8.21968C7.82282 24.7406 7.62439 24.6211 7.62439 24.3802V24.1979C7.62439 23.957 7.82282 23.8375 8.21968 23.8375H9.59655V24.0825H8.21968C8.0334 24.0825 7.94026 24.121 7.94026 24.1979V24.3802C7.94026 24.4571 8.0334 24.4956 8.21968 24.4956H9.10655V24.4936Z" fill="white"/>
<path d="M16.2622 24.4936C16.659 24.4936 16.8575 24.613 16.8575 24.854V25.1496C16.8575 25.3865 16.659 25.506 16.2622 25.506H14.8367V25.2589H16.2622C16.4485 25.2589 16.5416 25.2225 16.5416 25.1496V24.854C16.5416 24.777 16.4485 24.7406 16.2622 24.7406H15.3753C14.9785 24.7406 14.78 24.6211 14.78 24.3802V24.1979C14.78 23.957 14.9785 23.8375 15.3753 23.8375H16.7522V24.0825H15.3753C15.189 24.0825 15.0959 24.121 15.0959 24.1979V24.3802C15.0959 24.4571 15.1911 24.4956 15.3753 24.4956H16.2622V24.4936Z" fill="white"/>
<path d="M31.8349 24.4936C32.2318 24.4936 32.4302 24.613 32.4302 24.854V25.1496C32.4302 25.3865 32.2318 25.506 31.8349 25.506H30.4095V25.2589H31.8349C32.0212 25.2589 32.1144 25.2225 32.1144 25.1496V24.854C32.1144 24.777 32.0212 24.7406 31.8349 24.7406H30.9481C30.5512 24.7406 30.3528 24.6211 30.3528 24.3802V24.1979C30.3528 23.957 30.5512 23.8375 30.9481 23.8375H32.3249V24.0825H30.9481C30.7618 24.0825 30.6687 24.121 30.6687 24.1979V24.3802C30.6687 24.4571 30.7618 24.4956 30.9481 24.4956H31.8349V24.4936Z" fill="white"/>
<path d="M20.6236 23.8375H18.5138V24.0825H19.4108V25.506H19.7267V24.0825H20.6236V23.8375Z" fill="white"/>
<path d="M24.3412 24.0825V23.8375H22.3164V25.5019H24.3392V25.2549H22.6323V24.7467H24.2683V24.5017H22.6323V24.0825H24.3412Z" fill="white"/>
<path d="M13.4903 23.8375H13.0955L12.241 24.6312L11.3865 23.8375H10.9917L12.0831 24.854V25.506H12.3989V24.854L13.4903 23.8375Z" fill="white"/>
<path d="M28.2794 23.8375L27.3237 25.1516L26.368 23.8375H26.0521V25.506H26.368V24.2567L27.2771 25.506H27.3703L28.2794 24.2567V25.506H28.5933V23.8375H28.2794Z" fill="white"/>
<path d="M4 22.3816H4.65806V20.5512H8.93647V22.3816H9.59453V19.8871H4V22.3816Z" fill="white"/>
<path d="M4.65806 18H4V19.306H4.65806V18Z" fill="#E53F30"/>
<path d="M9.59458 18H8.93652V19.306H9.59458V18Z" fill="#E53F30"/>
<path d="M15.426 21.7237H11.4168C11.186 21.7237 10.9896 21.5272 10.9896 21.2964V20.9806C10.9896 20.7477 11.186 20.5533 11.4168 20.5533H15.426V21.7257V21.7237ZM10.3315 20.9725V21.2944C10.3315 21.8917 10.8195 22.3797 11.4168 22.3797H16.084V19.8851H11.4168C10.8195 19.8851 10.3315 20.3731 10.3315 20.9704" fill="white"/>
<path d="M16.084 19.0165C16.0638 18.4536 15.6021 18 15.0332 18H10.7102V18.6581H15.0332C15.2377 18.6581 15.4057 18.816 15.4239 19.0165V19.306H16.0861V19.0165H16.084Z" fill="#E53F30"/>
<path d="M17.6937 19.8871H17.0356V22.3816H17.6937V19.8871Z" fill="white"/>
<path d="M22.6282 19.8871H21.9701V22.3816H22.6282V19.8871Z" fill="white"/>
<path d="M17.6978 19.0165C17.716 18.816 17.8841 18.6581 18.0886 18.6581H21.5753C21.7798 18.6581 21.9479 18.816 21.9661 19.0165H21.9681V19.306H22.6282V19.0165H22.6262C22.6059 18.4536 22.1443 18 21.5753 18H18.0886C17.5196 18 17.0559 18.4536 17.0377 19.0165V19.306H17.6978V19.0165Z" fill="#E53F30"/>
<path d="M31.0655 19.8871H30.4075V22.3816H31.0655V19.8871Z" fill="white"/>
<path d="M36 19.8871H35.3419V22.3816H36V19.8871Z" fill="white"/>
<path d="M31.0676 19.0165C31.0858 18.816 31.2538 18.6581 31.4583 18.6581H34.9451C35.1496 18.6581 35.3176 18.816 35.3358 19.0165H35.3379V19.306H35.998V19.0165H35.9959C35.9757 18.4536 35.512 18 34.9451 18H31.4583C30.8894 18 30.4257 18.4536 30.4075 19.0165V19.306H31.0676V19.0165Z" fill="#E53F30"/>
<path d="M28.8443 19.9358V20.6586C28.8443 21.2458 28.3665 21.7237 27.7793 21.7237H25.2442C24.657 21.7237 24.1792 21.2458 24.1792 20.6586V19.9358C24.1792 19.9196 24.1792 19.9034 24.1792 19.8851H23.5211C23.5211 19.9013 23.5211 19.9175 23.5211 19.9358V20.6586C23.5211 21.6062 24.2966 22.3817 25.2442 22.3817H27.7793C28.7269 22.3817 29.5024 21.6062 29.5024 20.6586V19.9358C29.5024 19.9196 29.5024 19.9034 29.5004 19.8851H28.8423C28.8423 19.9013 28.8443 19.9175 28.8443 19.9358Z" fill="white"/>
<path d="M25.2442 18.6581H27.7793C28.2187 18.6581 28.5953 18.9253 28.7573 19.306H29.4498C29.2615 18.5588 28.5831 18 27.7793 18H25.2442C24.4404 18 23.7621 18.5588 23.5758 19.306H24.2663C24.4282 18.9253 24.8049 18.6581 25.2442 18.6581Z" fill="#E53F30"/>
</g>
<circle cx="20" cy="20" r="19.5" stroke="black" stroke-opacity="0.05"/>
<defs>
<clipPath id="clip0_14382_18859">
<rect width="32" height="7.50595" fill="white" transform="translate(4 18)"/>
</clipPath>
</defs>
</svg>
