<svg width="40" height="40" viewBox="0 0 40 40" fill="none" xmlns="http://www.w3.org/2000/svg">
<circle cx="20" cy="20" r="20" fill="#760000"/>
<g clip-path="url(#clip0_33939_59935)">
<path d="M24.7864 28.0977C23.509 28.0977 22.6731 27.4258 22.595 26.4531L22.5911 26.4023H23.7161L23.7239 26.4453C23.7747 26.8477 24.1731 27.1484 24.7825 27.1484C25.3879 27.1484 25.7786 26.8242 25.7786 26.3633V26.3555C25.7786 25.8164 25.3762 25.5195 24.6965 25.5195H24.052V24.6797H24.6809C25.2708 24.6797 25.6536 24.3672 25.6536 23.9102V23.9023C25.6536 23.4453 25.3293 23.1719 24.7747 23.1719C24.2239 23.1719 23.8489 23.457 23.802 23.8945L23.7981 23.9297H22.7161L22.72 23.8828C22.7981 22.9062 23.5911 22.2656 24.7747 22.2656C25.9895 22.2656 26.7708 22.8594 26.7708 23.7461V23.7539C26.7708 24.457 26.2551 24.9141 25.595 25.0508V25.0742C26.4309 25.1523 26.9778 25.6367 26.9778 26.4023V26.4102C26.9778 27.418 26.1028 28.0977 24.7864 28.0977Z" fill="white"/>
<path d="M20.4965 28V26.9648H17.6918V25.9805L19.9535 22.3633H21.6176V26.0234H22.3597V26.9648H21.6176V28H20.4965ZM18.7191 26.0547H20.5199V23.2148H20.4926L18.7191 26.0234V26.0547Z" fill="white"/>
<path d="M15.1676 28.0977C13.8903 28.0977 13.0543 27.4258 12.9762 26.4531L12.9723 26.4023H14.0973L14.1051 26.4453C14.1559 26.8477 14.5543 27.1484 15.1637 27.1484C15.7692 27.1484 16.1598 26.8242 16.1598 26.3633V26.3555C16.1598 25.8164 15.7574 25.5195 15.0778 25.5195H14.4332V24.6797H15.0621C15.652 24.6797 16.0348 24.3672 16.0348 23.9102V23.9023C16.0348 23.4453 15.7106 23.1719 15.1559 23.1719C14.6051 23.1719 14.2301 23.457 14.1832 23.8945L14.1793 23.9297H13.0973L13.1012 23.8828C13.1793 22.9062 13.9723 22.2656 15.1559 22.2656C16.3707 22.2656 17.152 22.8594 17.152 23.7461V23.7539C17.152 24.457 16.6364 24.9141 15.9762 25.0508V25.0742C16.8121 25.1523 17.359 25.6367 17.359 26.4023V26.4102C17.359 27.418 16.484 28.0977 15.1676 28.0977Z" fill="white"/>
<path d="M29.7253 20V14.3633H30.7566L33.3035 18.0273H33.3269V14.3633H34.5027V20H33.4792L30.9246 16.3086H30.9011V20H29.7253Z" fill="white"/>
<path d="M27.9082 20V14.3633H29.0879V20H27.9082Z" fill="white"/>
<path d="M22.3723 20V14.3633H23.552V16.6523H26.0911V14.3633H27.2708V20H26.0911V17.625H23.552V20H22.3723Z" fill="white"/>
<path d="M19.6761 20.0977C18.3363 20.0977 17.473 19.4844 17.4066 18.4453L17.4027 18.3828H18.516L18.5238 18.4258C18.598 18.8633 19.0629 19.1367 19.7074 19.1367C20.3597 19.1367 20.7699 18.8516 20.7699 18.4219V18.418C20.7699 18.0352 20.4926 17.8438 19.7933 17.6992L19.1996 17.582C18.0863 17.3594 17.5238 16.8281 17.5238 15.9805V15.9766C17.5238 14.9453 18.4222 14.2656 19.6722 14.2656C20.9769 14.2656 21.7777 14.918 21.8324 15.9062L21.8363 15.9805H20.723L20.7191 15.9336C20.6605 15.4922 20.2543 15.2227 19.6722 15.2227C19.0668 15.2266 18.7035 15.5039 18.7035 15.9062V15.9102C18.7035 16.2656 18.9926 16.4727 19.641 16.6016L20.2386 16.7227C21.4183 16.957 21.9496 17.4375 21.9496 18.3242V18.3281C21.9496 19.4102 21.098 20.0977 19.6761 20.0977Z" fill="white"/>
<path d="M15.8004 20V14.3633H16.9801V20H15.8004Z" fill="white"/>
<path d="M10.2019 20L12.1707 14.3633H13.5574L15.5222 20H14.2839L13.8582 18.6328H11.866L11.4402 20H10.2019ZM12.8503 15.457L12.1394 17.75H13.5847L12.8738 15.457H12.8503Z" fill="white"/>
<path d="M5.49414 20V14.3633H7.64648C9.33398 14.3633 10.334 15.3672 10.334 17.1523V17.1602C10.334 18.9492 9.33789 20 7.64648 20H5.49414ZM6.67383 19.0234H7.50586C8.56055 19.0234 9.13086 18.3828 9.13086 17.1641V17.1562C9.13086 15.9805 8.54102 15.3359 7.50586 15.3359H6.67383V19.0234Z" fill="white"/>
</g>
<circle cx="20" cy="20" r="19.5" stroke="black" stroke-opacity="0.05"/>
<defs>
<clipPath id="clip0_33939_59935">
<rect width="30" height="15" fill="white" transform="translate(5 14)"/>
</clipPath>
</defs>
</svg>
