<svg width="40" height="40" viewBox="0 0 40 40" fill="none" xmlns="http://www.w3.org/2000/svg">
<circle cx="20" cy="20" r="20" fill="#00B451"/>
<g clip-path="url(#clip0_14382_19781)">
<path d="M23.9557 18.0385C24.1437 18.1693 24.3236 18.3115 24.4943 18.4643C24.4382 18.0358 24.3587 17.6107 24.2563 17.1909H23.772C23.8402 17.4693 23.9042 17.7476 23.9557 18.0385Z" fill="white"/>
<path d="M28.4608 17.1909C28.6987 17.9802 28.8289 18.798 28.8477 19.6222H25.4701C25.5675 19.7781 25.6552 19.9367 25.7387 20.1009H28.8477C28.825 21.0574 28.6532 22.0045 28.3384 22.908H26.2898C26.2801 23.0694 26.262 23.2309 26.2383 23.3881H28.163C27.7493 24.3794 27.1621 25.289 26.429 26.0741H24.9928C24.9162 26.1659 24.8355 26.255 24.752 26.3399C24.6805 26.4156 24.6048 26.4871 24.5251 26.5542H25.9558C24.5548 27.87 22.7592 28.6873 20.8469 28.8797C21.0417 28.6626 21.3382 28.3231 21.6819 27.868C21.4777 27.8919 21.2724 27.904 21.0668 27.9042C20.8052 28.2408 20.5211 28.5593 20.2165 28.8575V27.9042H19.7489V28.8575C19.4437 28.5606 19.1605 28.242 18.9013 27.9042H18.3112C18.6425 28.3425 18.925 28.6696 19.1156 28.8783C17.9894 28.7685 16.896 28.4375 15.898 27.9042H14.395C16.246 29.2499 18.5206 29.8821 20.8005 29.6848C23.0805 29.4874 25.2126 28.4736 26.8047 26.8298C28.6283 24.9698 29.6436 22.4649 29.6299 19.8602C29.6314 18.9584 29.5111 18.0605 29.2722 17.1909H28.4608Z" fill="white"/>
<path d="M16.0288 21.8113C15.8405 21.6996 15.6605 21.5745 15.4902 21.4369C15.5415 21.7955 15.6107 22.1513 15.6976 22.5029H16.1819C16.1262 22.2761 16.0734 22.0451 16.0288 21.8071" fill="white"/>
<path d="M11.4905 22.5029C11.2581 21.7231 11.1308 20.9158 11.112 20.1023H14.2864C14.1862 19.945 14.0958 19.7836 14.0081 19.6221H11.112C11.1364 18.6471 11.3139 17.682 11.6381 16.7622H13.457C13.4667 16.5994 13.4862 16.4421 13.5113 16.2821H11.8232C12.2519 15.2685 12.8596 14.3403 13.617 13.5418H14.8083C14.9597 13.3719 15.1219 13.212 15.294 13.0631H14.1111C15.4945 11.8016 17.2483 11.0207 19.1114 10.8364C19.0711 10.8837 19.0307 10.9268 18.9848 10.9755C18.7663 11.2233 18.5381 11.5016 18.3196 11.7953C18.4379 11.7953 18.5603 11.7855 18.6814 11.7855H18.9138C19.17 11.4585 19.4466 11.148 19.7419 10.8559V11.7855H20.2137V10.8559C20.509 11.148 20.7855 11.4585 21.0417 11.7855H21.6318C21.3075 11.361 21.0348 11.041 20.8469 10.8364C21.9548 10.946 23.0312 11.2683 24.0172 11.7855H25.5285C23.6774 10.452 21.4084 9.82896 19.1359 10.03C16.8634 10.2311 14.739 11.243 13.1508 12.8808C11.3292 14.7433 10.3138 17.2479 10.3243 19.8531C10.3233 20.746 10.4403 21.6351 10.6722 22.4974L11.4905 22.5029Z" fill="white"/>
<path d="M18.6814 15.5097C18.2463 15.5145 17.8309 15.6917 17.5264 16.0025C17.2219 16.3133 17.0532 16.7322 17.0573 17.1672C17.0561 17.6044 17.2265 18.0247 17.5318 18.3376C17.6806 18.4923 17.8591 18.6152 18.0567 18.6989C18.2543 18.7826 18.4668 18.8254 18.6814 18.8247H21.057C21.5293 18.8249 21.9968 18.9199 22.4317 19.1042C22.8665 19.2886 23.2599 19.5584 23.5885 19.8977C24.2749 20.6007 24.6573 21.5455 24.6531 22.528C24.6531 24.5655 23.0388 26.223 21.057 26.223H10.1823L10 27.3363H21.057C21.674 27.337 22.2849 27.2135 22.8532 26.9732C23.4215 26.7329 23.9356 26.3808 24.365 25.9377C25.2541 25.0217 25.7513 23.7954 25.7513 22.519C25.7513 21.2425 25.2541 20.0162 24.365 19.1003C23.9356 18.6571 23.4215 18.3046 22.8532 18.0639C22.285 17.8231 21.6741 17.699 21.057 17.6988H18.6814C18.6117 17.6987 18.5427 17.6848 18.4784 17.6578C18.4141 17.6308 18.3559 17.5913 18.307 17.5416C18.2089 17.4395 18.154 17.3033 18.154 17.1617C18.154 17.02 18.2089 16.8839 18.307 16.7817C18.3558 16.7321 18.4141 16.6929 18.4785 16.6664C18.5428 16.6398 18.6118 16.6265 18.6814 16.6272H29.3L29.4837 15.5042L18.6814 15.5097Z" fill="white"/>
<path d="M15.5222 17.1965C15.5187 18.0487 15.8506 18.868 16.4463 19.4775C16.7362 19.7771 17.0835 20.0153 17.4676 20.1777C17.8516 20.34 18.2644 20.4233 18.6814 20.4224H21.057C21.3291 20.4217 21.5985 20.4759 21.8491 20.5819C22.0998 20.6878 22.3264 20.8433 22.5155 21.0389C22.9029 21.4372 23.1191 21.9711 23.1181 22.5266C23.1229 23.0789 22.9087 23.6105 22.5224 24.0052C22.1361 24.3998 21.6092 24.6253 21.057 24.6323H10.444L10.2603 25.7456H21.057C21.4736 25.7459 21.8861 25.6624 22.2698 25.5001C22.6535 25.3377 23.0007 25.0999 23.2907 24.8007C23.8832 24.1895 24.2145 23.3716 24.2145 22.5204C24.2145 21.6691 23.8832 20.8513 23.2907 20.2401C23.0006 19.941 22.6534 19.7031 22.2698 19.5405C21.8861 19.378 21.4737 19.2941 21.057 19.2937H18.6814C18.4103 19.2958 18.1417 19.2435 17.8912 19.14C17.6407 19.0365 17.4134 18.8839 17.2229 18.6911C16.8363 18.2921 16.6201 17.7583 16.6201 17.2027C16.6201 16.6471 16.8363 16.1133 17.2229 15.7143C17.4124 15.5193 17.6391 15.3643 17.8897 15.2587C18.1402 15.153 18.4095 15.0988 18.6814 15.0992H29.5533L29.7356 13.9789H18.6814C17.8356 13.9899 17.0286 14.3352 16.4366 14.9394C15.8446 15.5436 15.5159 16.3576 15.5222 17.2034" fill="white"/>
<path d="M21.057 24.1883C21.2714 24.1877 21.4835 24.1443 21.6809 24.0607C21.8783 23.977 22.057 23.8548 22.2065 23.7012C22.5101 23.3861 22.6798 22.9656 22.6798 22.528C22.6798 22.0904 22.5101 21.6699 22.2065 21.3548C22.0571 21.2013 21.8783 21.0793 21.6809 20.9962C21.4834 20.913 21.2713 20.8702 21.057 20.8705H18.6814C18.2088 20.8702 17.741 20.775 17.3059 20.5904C16.8708 20.4058 16.4772 20.1357 16.1485 19.7961C15.4656 19.0919 15.0837 18.1495 15.0837 17.1686C15.0837 16.1877 15.4656 15.2453 16.1485 14.5411C16.4773 14.2017 16.8709 13.9318 17.306 13.7474C17.7411 13.5631 18.2088 13.4681 18.6814 13.4681H29.8149L29.9986 12.3547H18.6814C16.0928 12.3547 13.9858 14.5174 13.9858 17.1742C13.9819 18.4522 14.482 19.6803 15.3775 20.5922C15.8064 21.0361 16.3204 21.389 16.8888 21.6298C17.4572 21.8706 18.0683 21.9943 18.6856 21.9936H21.057C21.1265 21.9935 21.1953 22.0071 21.2596 22.0336C21.3238 22.0601 21.3822 22.099 21.4314 22.1481C21.5298 22.2517 21.5846 22.3892 21.5845 22.5322C21.5852 22.6731 21.5301 22.8085 21.4313 22.9089C21.3325 23.0093 21.1979 23.0665 21.057 23.068H10.7028L10.5205 24.1925L21.057 24.1883Z" fill="white"/>
</g>
<circle cx="20" cy="20" r="19.5" stroke="black" stroke-opacity="0.05"/>
<defs>
<clipPath id="clip0_14382_19781">
<rect width="20" height="19.7203" fill="white" transform="translate(10 10)"/>
</clipPath>
</defs>
</svg>
