<svg width="40" height="40" viewBox="0 0 40 40" fill="none" xmlns="http://www.w3.org/2000/svg">
<circle cx="20" cy="20" r="20" fill="#760000"/>
<path d="M25.3395 24V15.5449H27.109V22.541H30.8063V24H25.3395Z" fill="white"/>
<path d="M20.4187 24.1465C17.905 24.1465 16.3406 22.4648 16.3406 19.7754V19.7637C16.3406 17.0742 17.9167 15.3984 20.4187 15.3984C22.9265 15.3984 24.4968 17.0801 24.4968 19.7637V19.7754C24.4968 22.4648 22.9324 24.1465 20.4187 24.1465ZM20.4187 22.6465C21.825 22.6465 22.6921 21.5273 22.6921 19.7754V19.7637C22.6921 18 21.8074 16.8984 20.4187 16.8984C19.0359 16.8984 18.1453 17.9941 18.1453 19.7637V19.7754C18.1453 21.5449 19.03 22.6465 20.4187 22.6465Z" fill="white"/>
<path d="M12.4102 24.1465C10.4004 24.1465 9.10547 23.2266 9.00586 21.668L9 21.5742H10.6699L10.6816 21.6387C10.793 22.2949 11.4902 22.7051 12.457 22.7051C13.4355 22.7051 14.0508 22.2773 14.0508 21.6328V21.627C14.0508 21.0527 13.6348 20.7656 12.5859 20.5488L11.6953 20.373C10.0254 20.0391 9.18164 19.2422 9.18164 17.9707V17.9648C9.18164 16.418 10.5293 15.3984 12.4043 15.3984C14.3613 15.3984 15.5625 16.377 15.6445 17.8594L15.6504 17.9707H13.9805L13.9746 17.9004C13.8867 17.2383 13.2773 16.834 12.4043 16.834C11.4961 16.8398 10.9512 17.2559 10.9512 17.8594V17.8652C10.9512 18.3984 11.3848 18.709 12.3574 18.9023L13.2539 19.084C15.0234 19.4355 15.8203 20.1562 15.8203 21.4863V21.4922C15.8203 23.1152 14.543 24.1465 12.4102 24.1465Z" fill="white"/>
<circle cx="20" cy="20" r="19.5" stroke="black" stroke-opacity="0.05"/>
</svg>
