<svg width="40" height="40" viewBox="0 0 40 40" fill="none" xmlns="http://www.w3.org/2000/svg">
<circle cx="20" cy="20" r="20" fill="#F6F8FA"/>
<g clip-path="url(#clip0_22307_36553)">
<path d="M29.3124 20.8646H25.1483C25.1483 20.8646 25.024 20.8076 25.024 20.7506C25.024 20.7316 25.024 20.6936 25.0654 20.6746L26.6192 19.0024C26.7021 18.9074 26.8471 18.8504 26.9921 18.8504H32.565C32.71 18.8504 32.8343 18.9454 32.8758 19.0784C33.2901 20.5986 32.7929 21.8337 31.4049 22.7648C30.6798 23.2589 29.9754 23.601 29.2917 23.753C28.0901 24.038 26.7435 24.095 25.2519 23.924C23.2216 23.696 20.6941 22.4038 20.4662 20.3895C20.3419 19.3254 20.7355 18.4133 21.6471 17.6532C22.828 16.6651 24.1953 16.133 25.7491 16.076C27.6965 16 29.8096 16 32.0678 16C32.3371 16 32.3786 16.095 32.2128 16.285L30.9284 17.7292C30.7212 17.9572 30.3897 18.0903 30.079 18.0713C26.9921 17.9002 25.0033 18.0713 24.1124 18.5843C23.4288 18.9834 22.683 19.7625 23.1594 20.5606C23.4081 20.9786 23.7188 21.2637 24.0917 21.4347C25.8527 22.2518 27.6343 22.2328 29.4575 21.3777C30.1826 21.0356 30.1411 20.8646 29.3332 20.8646H29.3124Z" fill="#E31222"/>
<path d="M16.7991 16.2662L12.5936 20.9218C12.5936 20.9218 12.5521 20.9598 12.5107 20.9598H9.23737C9.23737 20.9598 9.13379 20.9218 9.13379 20.8648C9.13379 20.8458 9.13379 20.8268 9.15451 20.8078L13.3394 16.2092C13.3394 16.2092 13.3808 16.1712 13.4222 16.1712L16.7163 16.0952C16.7163 16.0952 16.8198 16.1332 16.8198 16.1902C16.8198 16.2092 16.8198 16.2282 16.7991 16.2472V16.2662Z" fill="#E31222"/>
<path d="M11.9514 16.3419L10.4183 17.9951C10.4183 17.9951 10.3562 18.0331 10.3147 18.0331H7.1243C7.1243 18.0331 7 18.0141 7 17.9381C7 17.9191 7 17.8811 7.02072 17.8621L8.55378 16.1899C8.55378 16.1899 8.61594 16.1519 8.65737 16.1519H11.8478C11.8478 16.1519 11.9721 16.1899 11.9721 16.2469C11.9721 16.2849 11.9721 16.3039 11.9307 16.3229L11.9514 16.3419Z" fill="#E31222"/>
<path d="M21.5643 16.3039L14.7069 23.8668C14.7069 23.8668 14.6447 23.9048 14.6033 23.9048H11.4129C11.4129 23.9048 11.2886 23.8478 11.2886 23.7908C11.2886 23.7718 11.2886 23.7338 11.3093 23.7148L18.1667 16.1899C18.1667 16.1899 18.2288 16.1519 18.2702 16.1519H21.4814C21.4814 16.1519 21.6057 16.1709 21.6057 16.2279C21.6057 16.2469 21.6057 16.2849 21.585 16.3039H21.5643Z" fill="#E31222"/>
</g>
<circle cx="20" cy="20" r="19.5" stroke="black" stroke-opacity="0.05"/>
<defs>
<clipPath id="clip0_22307_36553">
<rect width="26" height="8" fill="white" transform="translate(7 16)"/>
</clipPath>
</defs>
</svg>
