<svg width="40" height="40" viewBox="0 0 40 40" fill="none" xmlns="http://www.w3.org/2000/svg">
<circle cx="20" cy="20" r="20" fill="#2B0E73"/>
<g clip-path="url(#clip0_17713_28090)">
<rect x="8.14551" y="15.5528" width="7.46919" height="7.00819" transform="rotate(22.8995 8.14551 15.5528)" fill="white"/>
<path d="M12.2414 25.2181L5.05443 22.1729C5.05443 22.1729 5.0309 22.1494 5.04031 22.1353L8.05255 15.0188C8.05255 15.0188 8.07608 14.9953 8.0902 15.0047L15.3808 18.0123C15.3808 18.0123 15.4043 18.0358 15.3949 18.0499L12.2791 25.2087C12.2791 25.2087 12.2556 25.2275 12.2414 25.2228V25.2181ZM9.69045 19.8761C9.68574 19.8996 9.66221 19.9184 9.63397 19.9184H8.55615C8.52791 19.9184 8.49967 19.8949 8.49967 19.862V19.8525L8.80561 18.337C8.81031 18.3088 8.79149 18.2758 8.76325 18.2711H8.75383H7.32302C7.29478 18.2711 7.27595 18.2899 7.26654 18.3135L6.43817 22.2812C6.43347 22.3094 6.45229 22.3423 6.48053 22.3471H6.48995H7.949C7.97724 22.3518 7.99607 22.3376 8.00548 22.3094L8.32553 20.695C8.33024 20.6715 8.35377 20.6527 8.38201 20.6527H9.45983C9.48806 20.6574 9.5163 20.6856 9.5163 20.7139C9.5163 20.7139 9.5163 20.7186 9.5163 20.7233L9.22449 22.2859C9.21979 22.3141 9.23861 22.3423 9.26685 22.3518C9.26685 22.3518 9.27156 22.3518 9.27627 22.3518H10.6365C10.6647 22.3518 10.6835 22.3376 10.693 22.3094L11.5166 18.337C11.5213 18.3088 11.5025 18.2758 11.4743 18.2711H11.4648H10.067C10.0387 18.2711 10.0199 18.2899 10.0105 18.3135L9.69516 19.8761H9.69045ZM12.4297 18.2711C12.4297 18.2711 12.392 18.2852 12.3873 18.3088L12.1991 19.283C12.1991 19.3066 12.2085 19.3301 12.232 19.3348C12.232 19.3348 12.2367 19.3348 12.2414 19.3348H13.7052C13.7052 19.3348 13.7429 19.3207 13.7476 19.2972L13.9594 18.3229C13.9594 18.3229 13.9499 18.2758 13.9264 18.2711C13.9264 18.2711 13.9217 18.2711 13.917 18.2711H12.4297ZM13.6111 19.9749C13.6111 19.9749 13.6017 19.9279 13.5781 19.9231C13.5781 19.9231 13.5734 19.9231 13.5687 19.9231H12.0814C12.0814 19.9231 12.0438 19.9373 12.0391 19.9561L11.5402 22.3047C11.5402 22.3047 11.5496 22.3518 11.5731 22.3565C11.5731 22.3565 11.5778 22.3565 11.5825 22.3565H13.0227C13.0227 22.3565 13.0604 22.3471 13.0651 22.3282L13.6158 19.9796L13.6111 19.9749Z" fill="#C43F29"/>
<path d="M29.6412 20.2667C29.6648 21.5234 28.5399 22.5588 27.1279 22.587C25.7159 22.6106 24.5581 21.6128 24.5345 20.3561C24.511 19.0994 25.6359 18.064 27.0479 18.0357C28.4599 18.0122 29.6177 19.01 29.6412 20.2667ZM26.789 21.6269C27.3162 21.7399 27.8715 21.241 28.0221 20.5161C28.1728 19.7913 27.8715 19.1136 27.3397 19.0006C26.8125 18.8876 26.2572 19.3865 26.1066 20.1114C25.9559 20.8362 26.2572 21.5139 26.789 21.6269Z" fill="white"/>
<path d="M18.4536 19.0383L17.6723 22.3235C17.6723 22.3235 17.6487 22.3612 17.6252 22.3612H16.2179C16.1897 22.3612 16.1709 22.3423 16.1662 22.3141V22.3047L16.9098 19.0571C16.9145 19.0289 16.9004 19.0053 16.8721 18.9959H16.8627L15.752 19.0053C15.7237 19.0053 15.7049 18.9818 15.7002 18.9583V18.9489L15.8461 18.3182C15.8461 18.3182 15.8696 18.2805 15.8932 18.2805H19.7714C19.7997 18.2805 19.8185 18.3041 19.8185 18.3276C19.8185 18.3276 19.8185 18.3323 19.8185 18.337L19.6773 18.9677C19.6773 18.9677 19.6538 19.0053 19.6302 19.0053H18.4959C18.4959 19.0053 18.4536 19.0195 18.4489 19.043L18.4536 19.0383Z" fill="white"/>
<path d="M22.9207 20.662C22.9207 20.662 22.9207 20.6903 22.9301 20.6997L24.3185 22.2529C24.3185 22.2529 24.3373 22.3094 24.3185 22.3282C24.3091 22.3376 24.295 22.3423 24.2856 22.3423L22.7559 22.3611C22.7136 22.3611 22.6806 22.3423 22.6524 22.3094L21.4804 20.7138C21.4804 20.7138 21.4475 20.6809 21.424 20.6667C21.3439 20.6291 21.2969 20.6479 21.278 20.7232C21.151 21.2504 21.0286 21.7775 20.9015 22.3046C20.8921 22.3376 20.8733 22.3517 20.8403 22.3517H19.5319C19.4989 22.3517 19.4707 22.3282 19.4707 22.2952C19.4707 22.2952 19.4707 22.2858 19.4707 22.2811L20.3226 18.2993C20.3226 18.2993 20.3461 18.2617 20.3697 18.2617C21.0474 18.2617 21.7346 18.2617 22.4312 18.2617C23.0336 18.2617 23.9608 18.2946 24.1726 18.9629C24.2715 19.2689 24.2432 19.5701 24.0926 19.8666C23.8996 20.2479 23.5466 20.4785 23.0336 20.5679C23.0101 20.5679 22.9913 20.582 22.9677 20.5914C22.9442 20.6056 22.9301 20.6244 22.9254 20.6479L22.9207 20.662ZM22.3182 19.0241C22.1299 19.0053 21.937 19.0006 21.7393 19.01C21.6875 19.01 21.6405 19.0524 21.631 19.1041L21.4804 19.8713C21.4757 19.8996 21.4945 19.9325 21.5228 19.9372C21.5228 19.9372 21.5275 19.9372 21.5322 19.9372C21.8805 19.9419 22.5582 20.0125 22.6994 19.5513C22.7795 19.2924 22.5818 19.0571 22.3182 19.0288V19.0241Z" fill="white"/>
<path d="M30.931 22.3565H29.6555C29.6272 22.3565 29.6084 22.3376 29.6084 22.3094C29.6084 22.3094 29.6084 22.3047 29.6084 22.3L30.4368 18.3088C30.4368 18.3088 30.4603 18.2711 30.4838 18.2711H31.9758C31.9758 18.2711 32.0135 18.2805 32.0182 18.2994L33.0301 20.5774C33.0395 20.6009 33.0678 20.6103 33.0913 20.6009C33.1054 20.5962 33.1148 20.5821 33.1195 20.5679L33.6326 18.3088C33.6326 18.3088 33.6561 18.2711 33.6796 18.2711H34.9928C35.021 18.2711 35.0398 18.2899 35.0398 18.3182C35.0398 18.3182 35.0398 18.3229 35.0398 18.3276L34.2068 22.3188C34.2068 22.3188 34.1832 22.3565 34.1597 22.3565H32.5783C32.5783 22.3565 32.5406 22.3471 32.5359 22.3282L31.6134 20.2197C31.604 20.1961 31.5758 20.1867 31.5522 20.1961C31.5381 20.2008 31.5287 20.215 31.524 20.2291L30.9827 22.3235C30.9827 22.3235 30.9592 22.3565 30.9357 22.3612L30.931 22.3565Z" fill="white"/>
<path d="M17.5407 23.4786C17.4278 23.168 17.0889 23.1586 16.8206 23.248C16.5523 23.3374 16.5617 23.6622 16.83 23.7422C17.1077 23.8222 17.5595 23.8646 17.7243 24.1187C17.9784 24.5094 17.6113 24.8859 17.2065 24.9095C16.7594 24.9377 16.477 24.773 16.3546 24.4106C16.3358 24.3447 16.3546 24.3023 16.4158 24.2788C16.4394 24.2694 16.4629 24.2647 16.4864 24.2694C16.5194 24.2694 16.5429 24.2929 16.5523 24.3258C16.6323 24.6082 16.8394 24.74 17.183 24.7165C17.3572 24.7071 17.5737 24.6129 17.5925 24.4153C17.6066 24.2647 17.5407 24.1658 17.3901 24.114C17.0842 24.0105 16.2511 23.9305 16.43 23.3892C16.6135 22.8338 17.6301 22.8809 17.7619 23.4786C17.7666 23.5022 17.7525 23.5257 17.729 23.5304C17.729 23.5304 17.7243 23.5304 17.7196 23.5304H17.6207C17.5784 23.5304 17.5548 23.5163 17.5407 23.4739V23.4786Z" fill="white"/>
<path d="M21.0138 23.3373C20.8962 23.2243 20.7173 23.182 20.4726 23.2149C20.1102 23.2573 20.0207 23.6667 20.4161 23.7656C20.7408 23.8456 21.3527 23.8974 21.3386 24.3774C21.3245 24.7728 20.9432 24.9328 20.5902 24.914C20.2137 24.8952 19.9784 24.721 19.8889 24.3963C19.8701 24.321 19.8936 24.2833 19.9737 24.2786H20.0066C20.0443 24.2739 20.0772 24.2974 20.0913 24.3304C20.1337 24.4339 20.1619 24.5422 20.2608 24.6081C20.4631 24.7351 20.6797 24.7587 20.9056 24.6787C21.2162 24.5704 21.2021 24.1892 20.882 24.1045C20.5855 24.0244 19.8795 23.9397 19.9548 23.4691C20.0537 22.8431 21.1597 22.876 21.2915 23.4361C21.3056 23.4879 21.2727 23.5397 21.2209 23.5491C21.2021 23.5491 21.188 23.5491 21.1691 23.5491C21.0938 23.5255 21.0515 23.4785 21.0421 23.4079C21.0421 23.3796 21.0279 23.3608 21.0044 23.342L21.0138 23.3373Z" fill="white"/>
<path d="M27.7439 23.2385C27.4615 23.3185 27.4286 23.6433 27.7251 23.7374C27.8945 23.7892 28.0781 23.841 28.2664 23.8833C28.8265 24.0151 28.8265 24.6929 28.3087 24.867C27.8804 25.0082 27.3298 24.8623 27.2403 24.354C27.2309 24.3069 27.2544 24.2834 27.3015 24.2787H27.3439C27.4051 24.2693 27.4615 24.3116 27.471 24.3728C27.5368 24.7352 28.0216 24.7776 28.2993 24.6599C28.5723 24.5423 28.5535 24.1846 28.257 24.1093C28.0405 24.0528 27.8381 23.9916 27.6451 23.9257C27.2403 23.7892 27.1791 23.3138 27.5557 23.1115C27.9275 22.9138 28.5205 22.975 28.6617 23.455C28.6758 23.5068 28.6617 23.5303 28.6052 23.535H28.5111C28.4782 23.535 28.4499 23.5162 28.4452 23.4833C28.3699 23.1868 27.9934 23.1726 27.7486 23.2385H27.7439Z" fill="white"/>
<path d="M32.8931 24.6271C33.1943 24.8201 33.6979 24.726 33.7873 24.3259C33.7968 24.2835 33.8203 24.2694 33.8626 24.2694L33.9474 24.2788C33.9897 24.2788 34.0227 24.3212 34.018 24.3636C34.018 24.373 34.018 24.3777 34.0133 24.3871C33.825 24.8295 33.4908 24.9942 33.006 24.886C32.4412 24.7589 32.3 24.0294 32.4601 23.5776C32.6954 22.9045 33.632 22.7868 33.9662 23.4458C33.9944 23.4975 33.9803 23.5352 33.9285 23.554L33.8909 23.5728C33.8297 23.6011 33.7873 23.5823 33.7591 23.5211C33.6697 23.3187 33.5096 23.2151 33.2649 23.2104C32.7801 23.2104 32.6013 23.554 32.6107 24.0153C32.6154 24.3024 32.7142 24.5095 32.8978 24.6318L32.8931 24.6271Z" fill="white"/>
<path d="M19.4421 23.0459H19.588C19.6116 23.0459 19.6304 23.0647 19.6304 23.0883C19.6304 23.0977 19.6304 23.1071 19.621 23.1118L18.9526 24.0908C18.9526 24.0908 18.9432 24.1049 18.9432 24.1143V24.8532C18.9432 24.8768 18.9291 24.8956 18.9056 24.8956H18.7738C18.7502 24.8956 18.7314 24.8768 18.7314 24.8532V24.1002C18.7314 24.1002 18.7314 24.0814 18.7267 24.0766L18.0678 23.1165C18.0678 23.1165 18.0584 23.0694 18.0772 23.0553C18.0866 23.0506 18.0913 23.0459 18.1007 23.0459H18.2466C18.2466 23.0459 18.2749 23.0553 18.2843 23.0647L18.8208 23.8837C18.8208 23.8837 18.8585 23.9119 18.882 23.8978C18.8867 23.8978 18.8914 23.8884 18.8961 23.8837L19.4092 23.0647C19.4092 23.0647 19.4327 23.0459 19.4468 23.0459H19.4421Z" fill="white"/>
<path d="M22.4448 23.2809V24.867C22.4448 24.867 22.4307 24.9094 22.4072 24.9094C22.4072 24.9094 22.4072 24.9094 22.4025 24.9094L22.2613 24.8906C22.2613 24.8906 22.2236 24.8718 22.2236 24.8482V23.2762C22.2236 23.2762 22.2095 23.2339 22.186 23.2339H21.64C21.64 23.2339 21.6024 23.2244 21.5977 23.2009V23.0927C21.5977 23.0927 21.6071 23.0503 21.6306 23.0503H23.0238C23.0238 23.0503 23.0661 23.0597 23.0661 23.0832V23.1962C23.0661 23.1962 23.0473 23.2386 23.0238 23.2386H22.4825C22.4825 23.2386 22.4401 23.2527 22.4401 23.2762L22.4448 23.2809Z" fill="white"/>
<path d="M23.621 24.6885H24.6894C24.6894 24.6885 24.7318 24.6979 24.7318 24.7215V24.8438C24.7318 24.8438 24.7223 24.8862 24.6988 24.8862H23.3998C23.3998 24.8862 23.3574 24.8674 23.3574 24.8438V23.0883C23.3574 23.0883 23.3762 23.0459 23.3998 23.0459H24.6612C24.6612 23.0459 24.7035 23.06 24.7035 23.0836V23.1965C24.7035 23.1965 24.6894 23.2389 24.6659 23.2389H23.621C23.621 23.2389 23.5786 23.2577 23.5786 23.2812V23.799C23.5786 23.799 23.5975 23.8413 23.621 23.8413L24.5953 23.8319C24.5953 23.8319 24.6329 23.846 24.6376 23.8696L24.6517 23.9966C24.6517 23.9966 24.6376 24.039 24.6141 24.0437C24.6141 24.0437 24.6141 24.0437 24.6094 24.0437H23.6163C23.6163 24.0437 23.5739 24.0531 23.5739 24.0766V24.6509C23.5739 24.6509 23.5928 24.6932 23.6163 24.6932L23.621 24.6885Z" fill="white"/>
<path d="M25.3157 23.3421V24.8435C25.3157 24.8765 25.2921 24.9047 25.2592 24.9047H25.2215C25.1509 24.9047 25.1133 24.8623 25.1133 24.7917V23.1256C25.1133 23.0785 25.1368 23.055 25.1839 23.055H25.4286C25.4663 23.055 25.4898 23.0691 25.4992 23.1021C25.6357 23.5492 25.7769 24.0104 25.9228 24.4764C25.9322 24.5093 25.9511 24.5423 25.9699 24.5658C25.984 24.5847 26.0075 24.5847 26.0217 24.5752C26.0264 24.5705 26.0311 24.5658 26.0358 24.5564L26.4876 23.1115C26.5017 23.0691 26.53 23.0503 26.5723 23.0503H26.8077C26.8594 23.055 26.8877 23.0832 26.8877 23.135V24.8106C26.8877 24.8718 26.8594 24.9 26.7983 24.9H26.77C26.6994 24.9 26.6665 24.867 26.6665 24.7964C26.6665 24.3352 26.6665 23.8692 26.6759 23.4127C26.6759 23.3892 26.6665 23.375 26.6476 23.3656C26.6288 23.3562 26.6053 23.3656 26.5959 23.3892L26.1629 24.7964C26.1487 24.8435 26.1111 24.8765 26.064 24.8859C25.9322 24.9188 25.8475 24.867 25.8099 24.74C25.6734 24.2834 25.5275 23.8128 25.3721 23.3327C25.3721 23.3186 25.3533 23.3139 25.3439 23.3139C25.3345 23.3139 25.3251 23.328 25.3251 23.3374L25.3157 23.3421Z" fill="white"/>
<path d="M30.0036 23.0503H29.9001C29.8663 23.0503 29.8389 23.0777 29.8389 23.1115V24.8294C29.8389 24.8632 29.8663 24.8906 29.9001 24.8906H30.0036C30.0374 24.8906 30.0648 24.8632 30.0648 24.8294V23.1115C30.0648 23.0777 30.0374 23.0503 30.0036 23.0503Z" fill="white"/>
<path d="M31.8297 24.401L31.8203 23.1349C31.8203 23.0737 31.8486 23.0455 31.9097 23.0455H31.9521C31.9992 23.0455 32.0227 23.069 32.0227 23.1161V24.5893C32.0227 25.0129 31.905 25.0458 31.6697 24.6975L30.8837 23.5303C30.8178 23.4314 30.7849 23.4408 30.7849 23.5585V24.8058C30.7849 24.8669 30.7566 24.8952 30.6954 24.8905H30.639C30.5919 24.8811 30.5684 24.8575 30.5684 24.8105V23.1114C30.5684 23.0831 30.5872 23.0549 30.6154 23.0455C30.7096 23.022 30.799 23.0408 30.8555 23.1255C31.1379 23.5491 31.4297 23.9821 31.7356 24.4245C31.7921 24.5092 31.825 24.4998 31.8203 24.3963L31.8297 24.401Z" fill="white"/>
<path d="M34.4839 24.6602H34.5263C34.6016 24.6649 34.6345 24.7072 34.6251 24.7825C34.6063 24.8955 34.5498 24.9284 34.4557 24.8861C34.3898 24.8578 34.3709 24.8014 34.3945 24.7308C34.4086 24.6837 34.4415 24.6602 34.4886 24.6649L34.4839 24.6602Z" fill="white"/>
</g>
<circle cx="20" cy="20" r="19.5" stroke="black" stroke-opacity="0.05"/>
<defs>
<clipPath id="clip0_17713_28090">
<rect width="30" height="10.2228" fill="white" transform="translate(5.03516 15)"/>
</clipPath>
</defs>
</svg>
