<svg width="40" height="40" viewBox="0 0 40 40" fill="none" xmlns="http://www.w3.org/2000/svg">
<circle cx="20" cy="20" r="20" fill="#48535A"/>
<path d="M11.3725 20.5907C11.1656 20.2896 10.8687 20.0423 10.326 19.8287C9.9567 19.6823 9.7384 19.6213 9.30439 19.4971C8.91177 19.3849 8.29412 19.2892 7.6744 18.939C7.54353 18.865 7.35575 18.6824 7.35575 18.4501C7.35575 18.3296 7.35368 18.0451 7.81149 17.8154C8.09341 17.6731 8.53414 17.6002 8.91746 17.5842C9.0085 17.5811 9.09592 17.579 9.18231 17.579C10.0643 17.58 10.7895 17.7368 11.251 17.8713V16.6913C11.251 16.2583 10.9256 16.1559 10.8428 16.1378C9.99343 15.9847 8.86935 15.8983 7.88494 16.0225C7.30506 16.0964 6.75724 16.217 6.29323 16.4373C5.82715 16.6582 5.48832 16.9526 5.27468 17.3302C5.13088 17.5826 5.03828 17.879 5.01035 18.2411C5.00362 18.3286 5 18.4134 5 18.4941C5 18.9017 5.08277 19.2183 5.21106 19.4795C5.34193 19.7402 5.52298 19.9766 5.74594 20.1541C6.19132 20.5089 6.7112 20.7221 7.2435 20.8617C7.6894 20.9781 8.58484 21.2218 8.83728 21.3599C9.08972 21.497 9.20352 21.6346 9.23507 21.8192C9.30129 22.1979 9.0623 22.4069 8.90608 22.5072C8.6226 22.6904 8.2336 22.7731 7.50887 22.7426C6.57309 22.7038 5.63213 22.5476 5.08846 22.3671V24.0415C5.2333 24.0783 5.43401 24.1196 5.6911 24.1636C6.28858 24.266 7.05727 24.401 8.23773 24.3685C9.39595 24.3359 10.31 24.0793 10.8852 23.652C11.461 23.2211 11.67 22.7007 11.7108 22.0701C11.717 21.9786 11.7186 21.8906 11.7186 21.8068C11.717 21.2497 11.5784 20.8917 11.3725 20.5907Z" fill="white"/>
<path d="M14.542 20.1387C14.5849 19.9763 14.6604 19.7807 14.8498 19.6214C14.9755 19.5149 15.1607 19.4367 15.3681 19.4254C15.3929 19.4243 15.4193 19.4223 15.4452 19.4223C15.6412 19.4217 15.8243 19.4761 15.9578 19.5661C16.0939 19.6566 16.1792 19.7714 16.2346 19.8826C16.3453 20.1051 16.3282 20.6353 16.3282 20.6353H14.5084C14.5084 20.6353 14.5001 20.3017 14.542 20.1387ZM15.3619 22.9186C15.0531 22.811 14.8027 22.6672 14.618 22.3538C14.4323 22.0408 14.4721 21.6658 14.4721 21.6658H17.8511C17.9913 21.6606 18.4253 21.6032 18.3834 21.0807C18.3586 20.7476 18.3017 20.3694 18.1806 20.0068C17.9939 19.4502 17.729 19.0612 17.1662 18.7001C16.7063 18.4042 16.0152 18.2433 15.4172 18.2433C14.738 18.2433 14.108 18.412 13.6745 18.6101C13.2431 18.8098 12.9554 19.0643 12.7506 19.3462C12.345 19.9059 12.2597 20.6301 12.2618 21.2566C12.2618 21.3802 12.2638 21.4987 12.268 21.6114C12.2845 22.1261 12.4557 22.7686 12.8706 23.2895C13.2881 23.8079 13.9466 24.2377 15.0427 24.336C15.3536 24.3624 15.6469 24.3738 15.9206 24.3738C16.9867 24.3738 17.5697 24.2005 17.938 24.0944V22.8426C17.5661 22.959 17.19 23.0707 16.4229 23.0702C16.0266 23.0697 15.6723 23.0283 15.3619 22.9186Z" fill="white"/>
<path d="M21.7424 20.8004L22.7005 17.8607L22.7046 17.8462C22.7165 17.8162 22.7548 17.7438 22.8536 17.7438C22.9472 17.7438 22.9855 17.8084 22.9984 17.8415L23.9497 20.8004H21.7424ZM24.5069 16.1334H21.925L21.9276 16.1345C21.9131 16.1334 21.8997 16.1334 21.8857 16.1334H21.8185C21.3622 16.1479 21.1646 16.4598 21.0886 16.6383L21.0467 16.7609L18.5078 24.2172H20.8967L21.4284 22.2902H24.2234L24.7924 24.2172H27.3059L24.5069 16.1334Z" fill="white"/>
<path d="M33.264 16.1334C32.6613 16.1334 32.591 16.5923 32.5848 16.748V19.2093H30.1985V16.1334H28.463C27.8598 16.1334 27.789 16.5923 27.7822 16.748V24.2172H30.1985V21.0141H32.5848V24.2172H35V16.1334H33.264Z" fill="white"/>
<path d="M12.6211 16.0336L15.0519 17.392C15.1626 17.4546 15.2898 17.4897 15.4259 17.4897C15.5609 17.4897 15.6886 17.4546 15.7999 17.392L17.9435 16.1763C18.0863 16.0905 18.1339 15.9006 18.0521 15.7537L17.628 15L15.7999 16.0294C15.6886 16.0915 15.5609 16.1277 15.4259 16.1277C15.2898 16.1277 15.1626 16.0915 15.0519 16.0294L13.472 15.1438C13.3287 15.06 13.1456 15.1102 13.0618 15.2576L12.6211 16.0336Z" fill="#E5573D"/>
<circle cx="20" cy="20" r="19.5" stroke="black" stroke-opacity="0.05"/>
</svg>
