<svg width="40" height="40" viewBox="0 0 40 40" fill="none" xmlns="http://www.w3.org/2000/svg">
<circle cx="20" cy="20" r="20" fill="#F6F8FA"/>
<g clip-path="url(#clip0_18553_55618)">
<path d="M34.5483 17.6617H28.7746C28.7746 17.6617 28.7166 17.647 28.7021 17.6176L28.3975 17.1323C28.3975 17.1323 28.3975 17.0441 28.4265 17.0146C28.4265 17.0146 28.4555 17.0146 28.47 17.0146H34.8385C34.8385 17.0146 34.9255 17.0588 34.9255 17.1029C34.9255 17.1176 34.9255 17.1323 34.9255 17.147L34.6354 17.6323C34.6354 17.6323 34.5919 17.6764 34.5628 17.6764L34.5483 17.6617Z" fill="#05285A"/>
<path d="M6.49251 21.2498V23.7792C6.49251 23.7792 6.4635 23.8675 6.40547 23.8675H5.02733C5.02733 23.8675 4.92578 23.8381 4.92578 23.7792V17.1175C4.92578 17.1175 4.9693 17.0145 5.01282 17.0145C5.86872 16.9998 6.69561 16.9998 7.49348 17.0292C8.68303 17.0734 9.39387 17.5881 9.59696 18.5734C10.0177 20.5587 8.26234 21.1763 6.66659 21.0734C6.55054 21.0734 6.49251 21.1175 6.49251 21.2351V21.2498ZM6.49251 18.441V19.7351C6.49251 19.7351 6.53603 19.8381 6.59406 19.8381H7.27588C7.72559 19.8381 8.08826 19.5292 8.08826 19.1469V19.0292C8.08826 18.6469 7.72559 18.3381 7.27588 18.3381H6.59406C6.59406 18.3381 6.49251 18.3822 6.49251 18.441Z" fill="#05285A"/>
<path d="M20.8685 17.6618H10.119C10.119 17.6618 10.0755 17.6618 10.061 17.6324L9.52423 17.1471C9.52423 17.1471 9.4807 17.0588 9.52423 17.0294C9.53873 17.0147 9.56775 17 9.58225 17H27.3821C27.3821 17 27.4691 17.0441 27.4691 17.0882C27.4691 17.1029 27.4691 17.1176 27.4691 17.1324L27.179 17.6176C27.179 17.6176 27.1354 17.6618 27.1064 17.6618H22.6238C22.6238 17.6618 22.5368 17.7059 22.5368 17.75V23.7941C22.5368 23.7941 22.5078 23.8824 22.4643 23.8824H21.0571C21.0571 23.8824 20.9701 23.8529 20.9701 23.8088V17.75C20.9701 17.75 20.9411 17.6618 20.8975 17.6618H20.8685Z" fill="#05285A"/>
<path d="M26.9471 19.1615H26.86C26.7585 19.1321 26.744 19.088 26.7875 18.9998L27.861 17.1027C27.861 17.1027 27.9335 17.0586 27.9771 17.0733C27.9771 17.0733 27.9916 17.088 28.0061 17.1027L29.0796 18.9998C29.1376 19.088 29.1086 19.1468 29.007 19.1763C28.9635 19.1763 28.92 19.1763 28.8765 19.1763C28.8184 19.1615 28.7604 19.1763 28.7314 19.2498V19.2792C28.7604 21.3086 29.1521 23.8233 26.3088 23.9851C24.1328 24.1027 23.4364 22.8086 23.509 20.7939C23.538 19.941 23.538 19.088 23.509 18.2645C23.509 18.2204 23.538 18.191 23.5815 18.191H25.0612C25.0612 18.191 25.1337 18.2057 25.1337 18.2498C25.1337 19.2939 25.1337 20.3674 25.1337 21.4704C25.1337 22.1468 25.656 22.7351 26.3668 22.5292C26.8745 22.3821 27.1357 22.0439 27.1357 21.4998V19.3821C27.1357 19.2645 27.0776 19.191 26.9616 19.1763L26.9471 19.1615Z" fill="#C30D23"/>
<path d="M32.2131 22.4707C32.3291 22.3383 32.3292 22.1324 32.1841 22.0001C32.1406 21.9707 32.097 21.9413 32.0535 21.9266C31.5023 21.7795 30.9365 21.603 30.3852 21.4119C29.4713 21.0883 29.1232 20.4413 29.3262 19.5001C29.7615 17.5883 32.4162 17.9119 33.6348 18.7648C33.7073 18.8089 33.7218 18.8824 33.6638 18.956L33.0255 19.8972C33.0255 19.8972 32.9094 19.9707 32.8369 19.9266C32.4162 19.6324 31.4878 19.2354 30.9945 19.5295C30.835 19.6177 30.7914 19.8236 30.8785 19.9707C30.922 20.0442 30.9945 20.103 31.0671 20.1177C31.6909 20.2795 32.2711 20.456 32.8079 20.6472C34.6067 21.2942 33.9829 23.6472 32.2566 23.9119C31.009 24.103 29.9355 23.8236 29.0216 23.0736C28.9926 23.0442 28.9781 23.0148 29.0216 22.9707L29.8195 22.0001C29.8195 22.0001 29.8775 21.9707 29.9065 22.0001C30.3272 22.353 31.7199 23.0001 32.1986 22.4707H32.2131Z" fill="#05285A"/>
<path d="M14.3548 22.5733V23.7792C14.3548 23.7792 14.3113 23.8674 14.2533 23.8674H10.1769C10.1769 23.8674 10.0898 23.8233 10.0898 23.7792V18.2645C10.0898 18.2645 10.1334 18.1763 10.1769 18.1763H11.555C11.555 18.1763 11.6421 18.2204 11.6421 18.2645V22.3969C11.6421 22.3969 11.6856 22.4851 11.7291 22.4851H14.2533C14.2533 22.4851 14.3403 22.5292 14.3403 22.5733H14.3548Z" fill="#05285A"/>
<path d="M16.3284 21.3823C16.3284 22.9411 18.3159 22.9411 18.3449 21.4264C18.3594 20.3529 18.3594 19.294 18.3449 18.2793C18.3449 18.2205 18.3884 18.1617 18.4464 18.1617H19.8246C19.8246 18.1617 19.9261 18.2058 19.9261 18.2646C19.9261 19.2793 19.9261 20.3234 19.9261 21.4264C19.9261 22.6617 19.3459 23.647 18.1128 23.8823C16.1544 24.2646 14.6892 23.4117 14.7182 21.2499C14.7182 20.1617 14.7182 19.1617 14.7182 18.2499C14.7182 18.1764 14.7472 18.147 14.8197 18.147H16.2414C16.2414 18.147 16.3139 18.1764 16.3139 18.2352C16.3139 19.147 16.3139 20.1911 16.3139 21.3676L16.3284 21.3823Z" fill="#05285A"/>
</g>
<circle cx="20" cy="20" r="19.5" stroke="black" stroke-opacity="0.05"/>
<defs>
<clipPath id="clip0_18553_55618">
<rect width="30" height="7" fill="white" transform="translate(4.92578 17)"/>
</clipPath>
</defs>
</svg>
