<svg width="40" height="40" viewBox="0 0 40 40" fill="none" xmlns="http://www.w3.org/2000/svg">
<circle cx="20" cy="20" r="20" fill="#211E1F"/>
<g clip-path="url(#clip0_18553_55702)">
<path d="M7.17448 21.3174H5.89309C5.89309 21.3174 5.87737 21.3088 5.87737 21.2958V20.2026C5.87737 20.2026 5.88916 20.1725 5.90488 20.1725H8.47945C8.47945 20.1725 8.50303 20.1854 8.50303 20.1983C8.50696 20.5082 8.50303 20.7923 8.4991 21.0548C8.49517 21.2098 8.4598 21.3819 8.39297 21.5756C8.165 22.2514 7.72477 22.841 7.11552 23.1466C5.96384 23.7234 4.63922 23.5469 3.74696 22.5225C3.18488 21.8769 2.94118 21.0376 3.01193 20.1552C3.0591 19.5871 3.23991 19.0921 3.55829 18.6703C4.1754 17.8439 4.97332 17.4436 5.94812 17.4737C6.87968 17.5039 7.60685 17.9386 8.12569 18.7822C8.14141 18.808 8.13748 18.8296 8.11783 18.8511L7.35136 19.5871C7.35136 19.5871 7.32777 19.5957 7.31991 19.5871C7.27667 19.5139 7.22951 19.4451 7.18234 19.3762C6.65956 18.6574 5.70442 18.4938 5.01263 19.0017C4.55667 19.3375 4.25795 19.8626 4.26581 20.4781C4.27367 20.9773 4.44269 21.3948 4.76893 21.7306C5.2524 22.2298 5.94812 22.3934 6.57702 22.0921C6.87182 21.9501 7.08014 21.6789 7.20199 21.3561C7.20985 21.3303 7.20199 21.3174 7.17841 21.3174H7.17448Z" fill="white"/>
<path d="M16.7218 23.4265C15.7391 23.5771 14.7682 23.3146 14.0764 22.514C13.6834 22.0578 13.4515 21.5068 13.3886 20.8612C13.2903 19.8583 13.5615 18.9459 14.269 18.2701C14.7682 17.7966 15.3421 17.5384 15.9985 17.4997C16.5056 17.4695 17.0441 17.5513 17.504 17.7794C18.2704 18.1582 18.864 18.8856 19.0369 19.7938C19.2295 20.7966 19.0133 21.821 18.3373 22.557C17.8931 23.0391 17.3585 23.3275 16.7257 23.4265H16.7218ZM16.4781 18.6833C15.3854 18.5154 14.6464 19.3418 14.6503 20.5169C14.6543 21.5886 15.3696 22.3806 16.3562 22.2988C16.8475 22.2601 17.2563 22.0233 17.5354 21.5671C17.8852 20.9946 17.897 20.0563 17.5904 19.4796C17.3467 19.0233 16.9733 18.7565 16.4781 18.679V18.6833Z" fill="white"/>
<path d="M30.6051 21.6315C30.2868 22.488 29.5792 23.1164 28.7853 23.3446C28.4001 23.4565 27.9952 23.4909 27.5668 23.4436C26.816 23.3618 26.1989 23.0261 25.7194 22.4364C25.3892 22.0318 25.1887 21.554 25.1101 21.0117C24.9883 20.138 25.1534 19.2169 25.7115 18.5497C26.3325 17.8051 27.1069 17.4522 28.0345 17.4952C28.6673 17.521 29.2648 17.7233 29.7601 18.1408C30.4361 18.7133 30.786 19.4751 30.8017 20.4177C30.8095 20.8568 30.7427 21.2613 30.6051 21.6315ZM26.3522 20.5555C26.3718 21.5885 27.0558 22.346 28.007 22.303C28.8049 22.2642 29.3709 21.6875 29.4849 20.8395C29.6343 19.7592 29.1351 18.7606 28.0738 18.6702C27.3899 18.6143 26.8239 18.9113 26.5212 19.6086C26.4033 19.8797 26.3443 20.1939 26.3522 20.5555Z" fill="white"/>
<path d="M33.2107 19.6818V23.3748C33.2107 23.3748 33.2068 23.392 33.195 23.392H32.008C32.008 23.392 31.9844 23.3791 31.9844 23.3619V17.5771C31.9844 17.5771 31.9883 17.5556 32.0001 17.5556H33.1636C33.1832 17.5556 33.2029 17.5642 33.2147 17.5814L35.7814 21.2744C35.7814 21.2744 35.7892 21.2787 35.7932 21.2744C35.7971 21.2744 35.801 21.2658 35.801 21.2615C35.801 20.1338 35.801 18.9071 35.801 17.5771C35.801 17.5642 35.8089 17.5556 35.8207 17.5556C36.1784 17.5556 36.5321 17.5556 36.8819 17.5556C36.9095 17.5556 36.937 17.5556 36.9645 17.5513C36.9881 17.5513 37.0038 17.5599 37.0038 17.59V23.3748C37.0038 23.3748 36.992 23.4006 36.9802 23.4006C36.9802 23.4006 36.9763 23.4006 36.9724 23.4006C36.9606 23.4006 36.9448 23.392 36.933 23.392C36.5596 23.392 36.1902 23.392 35.8207 23.392C35.8128 23.392 35.8089 23.392 35.805 23.3834L33.25 19.6689C33.2265 19.6345 33.2147 19.6388 33.2147 19.6818H33.2107Z" fill="white"/>
<path d="M10.8964 22.1305H12.5354C12.5354 22.1305 12.5551 22.1391 12.5551 22.152V23.3744C12.5551 23.3744 12.5472 23.3959 12.5354 23.3959H9.67786C9.67786 23.3959 9.6582 23.3873 9.6582 23.3744V17.5767C9.6582 17.5767 9.66606 17.5552 9.67786 17.5552H10.857C10.857 17.5552 10.8767 17.5638 10.8767 17.5767V22.109C10.8767 22.1219 10.8846 22.1305 10.8964 22.1305Z" fill="white"/>
<path d="M23.2309 20.1678C23.2309 20.1678 23.2151 20.1936 23.2348 20.2065C23.3213 20.2453 23.4038 20.284 23.4864 20.3228C23.9541 20.5638 24.2135 20.9727 24.2725 21.5451C24.3196 22.0315 24.1664 22.548 23.8126 22.8751C23.3763 23.2797 22.7828 23.3873 22.1971 23.3873C21.6075 23.3873 20.9904 23.3873 20.3458 23.3873C20.3379 23.3873 20.334 23.383 20.334 23.3744V17.5681C20.334 17.5681 20.3379 17.5552 20.3458 17.5552C20.959 17.5552 21.5682 17.5552 22.1696 17.5552C22.3661 17.5552 22.5744 17.5853 22.7985 17.6413C23.0933 17.7144 23.3331 17.8522 23.5178 18.1276C23.7615 18.4892 23.844 18.8981 23.7615 19.3629C23.7025 19.69 23.4746 19.9698 23.2387 20.1635L23.2309 20.1678ZM22.5548 19.2295C22.6255 18.8335 22.3032 18.5839 21.9809 18.5451C21.8512 18.5322 21.7136 18.5279 21.5721 18.5322C21.5603 18.5322 21.5525 18.5408 21.5525 18.5537V19.789C21.5525 19.789 21.5603 19.8106 21.5721 19.8106C21.7018 19.8149 21.8198 19.8106 21.9338 19.8019C22.2207 19.7718 22.4998 19.5523 22.5548 19.2295ZM21.5525 20.8263V22.3931C21.5525 22.3931 21.5603 22.406 21.5682 22.406H22.1971C22.6373 22.406 22.999 22.0702 22.995 21.6613V21.5494C22.995 21.1405 22.6373 20.8091 22.1932 20.8091H21.5643C21.5643 20.8091 21.5525 20.8177 21.5525 20.8263Z" fill="white"/>
</g>
<circle cx="20" cy="20" r="19.5" stroke="black" stroke-opacity="0.05"/>
<defs>
<clipPath id="clip0_18553_55702">
<rect width="34" height="6" fill="white" transform="translate(3 17.4736)"/>
</clipPath>
</defs>
</svg>
