<svg width="40" height="40" viewBox="0 0 40 40" fill="none" xmlns="http://www.w3.org/2000/svg">
<circle cx="20" cy="20" r="20" fill="#687C82"/>
<g clip-path="url(#clip0_17713_28097)">
<path d="M11.8932 15.9022C12.2834 15.9022 12.5998 15.5824 12.5998 15.1879C12.5998 14.7934 12.2834 14.4736 11.8932 14.4736C11.5029 14.4736 11.1865 14.7934 11.1865 15.1879C11.1865 15.5824 11.5029 15.9022 11.8932 15.9022Z" fill="#E20014"/>
<path d="M12.0771 16.4522C12.7272 16.1451 13.3808 15.8486 14.0274 15.5415C14.2076 15.4558 14.3313 15.4094 14.3913 15.3986C14.5256 15.3736 14.6634 15.4022 14.8012 15.4844C14.9072 15.5451 14.9884 15.6415 15.0379 15.7665C15.0909 15.8915 15.1439 16.0236 15.2004 16.1629C15.204 16.1736 15.2004 16.1879 15.1898 16.1915C14.2995 16.5665 13.3914 16.9451 12.4763 17.3308C12.3209 17.3951 12.123 17.4451 11.9464 17.4379C11.8474 17.4379 11.7485 17.4415 11.6496 17.4272C11.5224 17.4058 11.4023 17.3701 11.2892 17.3236C10.4024 16.9522 9.50848 16.5736 8.60045 16.1951C8.58279 16.1879 8.57572 16.1736 8.58279 16.1558C8.63932 16.0236 8.68878 15.8951 8.73825 15.7736C8.81244 15.5915 8.94317 15.4736 9.13396 15.4165C9.27176 15.3772 9.39895 15.3844 9.52261 15.4415C10.1692 15.7415 10.897 16.0772 11.7026 16.4522C11.8262 16.5094 11.9499 16.5094 12.0736 16.4522H12.0771Z" fill="#E20014"/>
<path d="M36.0353 20.6557C36.0353 22.2129 34.7881 23.4736 33.2476 23.4736C31.7072 23.4736 30.46 22.2129 30.46 20.6557C30.46 19.0986 31.7072 17.8379 33.2476 17.8379C34.7881 17.8379 36.0353 19.0986 36.0353 20.6557ZM34.933 20.6557C34.933 19.7165 34.1804 18.9522 33.2476 18.9522C32.3149 18.9522 31.5623 19.7129 31.5623 20.6557C31.5623 21.5986 32.3149 22.3593 33.2476 22.3593C34.1804 22.3593 34.933 21.5986 34.933 20.6557Z" fill="white"/>
<path d="M25.4714 23.3522C25.0368 23.3522 24.5881 23.3486 24.1182 23.3522C24.051 23.3522 24.0228 23.2915 23.9839 23.2486C23.3621 22.5843 22.7438 21.9236 22.129 21.2665C21.9594 21.0843 21.8534 20.8129 21.864 20.5593C21.8711 20.3879 21.9205 20.2272 22.0124 20.0772C22.0831 19.9593 22.1785 19.8629 22.2703 19.7593C22.7932 19.17 23.3197 18.5808 23.8426 17.9879C23.8673 17.9629 23.8956 17.9486 23.9274 17.9486C24.3584 17.9486 24.7789 17.9486 25.1923 17.9486C25.2241 17.9486 25.2523 17.9379 25.2841 17.9343C25.2983 17.9343 25.2983 17.9379 25.2912 17.9486C25.2488 17.9915 25.2064 18.0379 25.164 18.0879C24.5139 18.8058 23.7931 19.5915 23.0017 20.4486C22.9699 20.4808 22.9452 20.52 22.924 20.5593C22.9204 20.5665 22.924 20.5772 22.924 20.5843C23.0123 20.6915 23.1077 20.7915 23.2031 20.8915C23.3091 20.9986 23.4009 21.1058 23.5069 21.2093C23.5776 21.2808 23.6483 21.3558 23.7119 21.4236C23.8002 21.52 23.8956 21.6093 23.9839 21.7093C24.1005 21.8415 24.2242 21.9629 24.3443 22.095C24.4362 22.1986 24.5386 22.295 24.6305 22.395C24.7824 22.5593 24.9308 22.7165 25.0792 22.8665C25.2205 23.0129 25.3477 23.1629 25.5032 23.3093C25.5244 23.3272 25.5208 23.3379 25.4926 23.3415C25.4855 23.3415 25.4785 23.3415 25.4714 23.3415V23.3522Z" fill="white"/>
<path d="M27.9333 20.0379C27.9333 20.0379 27.9581 20.0558 27.9687 20.0486C27.9722 20.0486 27.9757 20.0415 27.9793 20.0379C28.4033 19.3701 28.8308 18.6986 29.2583 18.0272C29.2759 17.9986 29.2971 17.9736 29.3219 17.9522C29.3289 17.9451 29.336 17.9451 29.3431 17.9451C29.7529 17.9451 30.1592 17.9451 30.5656 17.9451C30.5797 17.9451 30.5903 17.9451 30.6044 17.9451C30.6221 17.9451 30.6327 17.9451 30.6433 17.9451C30.6645 17.9486 30.6716 17.9629 30.6574 17.9808C29.9473 19.0236 29.2512 20.0451 28.5622 21.0522C28.5234 21.1094 28.5057 21.1701 28.5057 21.2344C28.5057 21.9451 28.5057 22.6451 28.5057 23.3308C28.5057 23.3415 28.4986 23.3486 28.488 23.3486H27.4175C27.4175 23.3486 27.3998 23.3415 27.3998 23.3308C27.3998 22.6736 27.3998 22.0094 27.3998 21.3379C27.3998 21.2736 27.3998 21.2094 27.3892 21.1486C27.3892 21.1236 27.3786 21.0986 27.3645 21.0736C27.3044 20.9772 27.2479 20.8879 27.1878 20.7986C26.5978 19.9022 25.983 18.9665 25.3435 17.9879C25.3365 17.9772 25.34 17.9594 25.3506 17.9522C25.3541 17.9522 25.3612 17.9486 25.3647 17.9486H26.6296C26.6508 17.9486 26.6649 17.9558 26.6755 17.9736C27.0924 18.6522 27.4988 19.3236 27.898 19.9808C27.9086 19.9986 27.9192 20.0201 27.9298 20.0379H27.9333Z" fill="white"/>
<path d="M6.21513 17.9486C7.13022 17.9486 7.97818 18.3308 8.4481 19.145C8.59296 19.3986 8.69895 19.67 8.75902 19.9629C8.79081 20.12 8.81201 20.2593 8.81555 20.3772C8.81908 20.4629 8.82261 20.5558 8.82261 20.6522C8.82261 21.0736 8.73428 21.5022 8.57529 21.87C8.28557 22.5343 7.80859 22.9772 7.14082 23.2022C6.83343 23.3058 6.49778 23.3486 6.16566 23.3486C5.87948 23.3486 5.58622 23.3486 5.28943 23.3486C4.96438 23.3486 4.68173 23.2379 4.44147 23.0165C4.24715 22.8379 4.12349 22.6165 4.06695 22.3522C4.04576 22.2558 4.03516 22.1165 4.03516 21.9308C4.03516 20.6379 4.03516 19.3236 4.03516 17.9843C4.03516 17.9593 4.04576 17.9486 4.07049 17.9486C4.81952 17.9486 5.53322 17.9486 6.21513 17.9486ZM6.72037 22.195C7.26448 22.0165 7.60013 21.5808 7.69906 21.02C7.82272 20.32 7.58953 19.4736 6.88996 19.1629C6.67797 19.0665 6.47305 19.02 6.27519 19.0165C5.89714 19.0093 5.51909 19.0093 5.14104 19.0165C5.13397 19.0165 5.12691 19.0236 5.12691 19.0308C5.12691 19.9879 5.12691 20.9772 5.12691 21.9915C5.12691 22.0986 5.14457 22.1879 5.2435 22.2486C5.27177 22.2665 5.3071 22.2772 5.34243 22.2772C5.61802 22.2772 5.89714 22.2772 6.1798 22.2772C6.36352 22.2772 6.55078 22.2522 6.72037 22.195Z" fill="white"/>
<path d="M11.8643 19.2558L10.3733 23.3343C10.3733 23.3343 10.3627 23.3486 10.3521 23.3486H9.01301C9.01301 23.3486 8.98828 23.3379 8.98828 23.3236C8.98828 23.32 8.98828 23.3165 8.98828 23.3129C9.68785 21.7022 10.3839 20.0915 11.0835 18.4772C11.2424 18.1058 11.6028 17.9022 12.0056 17.9522C12.3342 17.995 12.5674 18.1808 12.7123 18.5129C13.3942 20.0879 14.0902 21.695 14.8004 23.3308C14.8039 23.3415 14.8004 23.3486 14.7898 23.3486H13.4436C13.4436 23.3486 13.4224 23.345 13.4154 23.3343C13.38 23.2736 13.3624 23.2093 13.3412 23.145C12.8748 21.87 12.4084 20.5986 11.9491 19.3343C11.9385 19.3058 11.9208 19.2808 11.8961 19.2522C11.889 19.245 11.882 19.245 11.8749 19.2522C11.8749 19.2522 11.8749 19.2558 11.8714 19.2593L11.8643 19.2558Z" fill="white"/>
<path d="M16.4328 21.12C16.4328 21.3843 16.4328 21.6808 16.4328 22.0129C16.4328 22.2058 16.5741 22.2629 16.7367 22.2629C17.62 22.2629 18.4926 22.2629 19.3583 22.2629C19.3653 22.2629 19.3689 22.27 19.3689 22.2736V23.3236C19.3689 23.3236 19.3618 23.3486 19.3441 23.3486C18.4255 23.3486 17.4998 23.3486 16.5706 23.3486C15.9982 23.3486 15.5036 22.9522 15.3658 22.395C15.3446 22.3058 15.334 22.195 15.334 22.0629C15.334 20.6808 15.334 19.3736 15.334 18.1415C15.334 18.0772 15.3375 18.0165 15.3446 17.9593C15.3446 17.9522 15.3481 17.9486 15.3552 17.9486H19.3477C19.3477 17.9486 19.3618 17.9522 19.3618 17.9629C19.3618 18.2772 19.3618 18.5915 19.3618 18.9022C19.3618 18.9379 19.3618 18.9772 19.3583 19.0129C19.3583 19.02 19.3512 19.0236 19.3477 19.0236H16.4505C16.4505 19.0236 16.4293 19.0343 16.4293 19.045V20.02C16.4293 20.02 16.4399 20.0486 16.4575 20.0486H19.2311C19.2558 20.0486 19.2664 20.0629 19.2664 20.0843V21.0629C19.2664 21.0843 19.2558 21.095 19.2346 21.095H16.4469C16.4469 21.095 16.4257 21.1058 16.4257 21.1165L16.4328 21.12Z" fill="white"/>
<path d="M21.6765 17.9486H20.613C20.6013 17.9486 20.5918 17.9582 20.5918 17.97V23.3272C20.5918 23.339 20.6013 23.3486 20.613 23.3486H21.6765C21.6882 23.3486 21.6977 23.339 21.6977 23.3272V17.97C21.6977 17.9582 21.6882 17.9486 21.6765 17.9486Z" fill="white"/>
</g>
<circle cx="20" cy="20" r="19.5" stroke="black" stroke-opacity="0.05"/>
<defs>
<clipPath id="clip0_17713_28097">
<rect width="32" height="9" fill="white" transform="translate(4.03516 14.4736)"/>
</clipPath>
</defs>
</svg>
