<svg width="40" height="40" viewBox="0 0 40 40" fill="none" xmlns="http://www.w3.org/2000/svg">
<circle cx="20" cy="20" r="20" fill="#E95506"/>
<path d="M5 15.4736H5.36267C5.18667 15.4903 5.066 15.5376 5 15.6156V15.4736Z" fill="white"/>
<path d="M5.36267 15.4736H5.73333L5.96 15.5263C6.03067 15.5423 6.08067 15.605 6.08067 15.6776V17.077C6.08067 17.099 6.07333 17.1203 6.05933 17.137C6.01067 17.195 5.94133 17.2316 5.85067 17.2463C5.50867 17.301 5.22533 17.267 5 17.145V15.6156C5.066 15.5376 5.18667 15.4903 5.36267 15.4736Z" fill="white"/>
<path d="M26.5893 15.4736H26.984L27.2087 15.5283C27.2707 15.543 27.3147 15.599 27.3147 15.663V17.0583C27.3153 17.1383 27.2593 17.2076 27.1807 17.2243C26.8993 17.2856 26.6273 17.2843 26.3653 17.2196C26.2933 17.2023 26.2427 17.1376 26.2427 17.063C26.244 16.6603 26.244 16.2003 26.2427 15.683C26.242 15.4996 26.4627 15.5076 26.5893 15.4736Z" fill="white"/>
<path d="M21.9826 18.193C22.3686 18.193 22.7699 18.1917 23.1852 18.191C23.4686 18.191 23.3792 18.8563 23.3459 18.999C23.3306 19.0657 23.2712 19.1123 23.2026 19.1123H21.9559C21.9432 19.1123 21.9332 19.1217 21.9332 19.1343V22.673C21.9332 22.6963 21.9266 22.717 21.9126 22.7357C21.7799 22.9137 21.3019 22.873 21.0786 22.849C20.9299 22.8337 20.8552 22.7523 20.8552 22.6063C20.8572 20.681 20.8572 18.7583 20.8552 16.839C20.8552 16.7423 20.9052 16.6837 21.0052 16.663C21.2199 16.6197 21.7472 16.5663 21.9106 16.747C21.9259 16.7637 21.9332 16.7837 21.9332 16.8063V18.1437C21.9332 18.1763 21.9492 18.193 21.9819 18.193H21.9826Z" fill="white"/>
<path d="M35 22.6816V22.761C34.926 22.817 34.798 22.851 34.616 22.863C34.4306 22.875 33.984 22.889 33.9013 22.671C33.7253 22.209 33.5453 21.7283 33.362 21.2296C33.28 21.0063 33.0946 20.8983 32.8566 20.8716C32.6493 20.8483 32.448 20.8376 32.2526 20.841C32.2286 20.841 32.2166 20.853 32.2166 20.877V22.6976C32.2173 22.7196 32.21 22.739 32.1953 22.7556C32.024 22.9496 31.4366 22.8776 31.2413 22.8196C31.2173 22.813 31.1966 22.7976 31.1833 22.777C31.1546 22.733 31.1406 22.683 31.1406 22.627C31.1426 20.6383 31.1426 18.697 31.1413 16.8016C31.1413 16.769 31.158 16.739 31.1853 16.721C31.4166 16.5716 31.876 16.613 32.1086 16.6783C32.1806 16.6983 32.2166 16.7456 32.2166 16.821V19.8703C32.2166 19.8843 32.228 19.8963 32.2426 19.897C32.48 19.9063 32.718 19.891 32.9573 19.8516C33.154 19.819 33.296 19.705 33.3633 19.519C33.5146 19.101 33.6606 18.713 33.8026 18.355C33.818 18.317 33.8446 18.2923 33.884 18.2803C34.1846 18.189 34.4853 18.181 34.7853 18.257C34.8426 18.2716 34.8766 18.3296 34.862 18.387C34.8613 18.3903 34.86 18.3943 34.8586 18.3976C34.654 18.9463 34.4573 19.4756 34.268 19.9863C34.218 20.1216 34.1213 20.2423 33.9773 20.349C33.9553 20.3656 33.9546 20.3823 33.976 20.399C34.1273 20.5183 34.2233 20.633 34.264 20.7416C34.5033 21.389 34.7486 22.0356 35 22.6816Z" fill="white"/>
<path d="M7.094 22.9401H6.40267C6.10733 22.9094 5.8 22.8221 5.48067 22.6781C5.212 22.5567 5.05133 22.3767 5 22.1387V18.9314C5.05067 18.7481 5.18467 18.5967 5.40267 18.4781C5.68067 18.3267 5.90867 18.2354 6.086 18.2041C6.79067 18.0801 7.57 18.1314 8.18 18.5174C8.38733 18.6487 8.49067 18.8234 8.49133 19.0421C8.49267 19.5361 8.49133 20.0147 8.488 20.4774C8.484 20.9774 7.70467 21.2121 7.31267 21.2681C6.97333 21.3161 6.576 21.3341 6.12067 21.3227C6.094 21.3221 6.08067 21.3347 6.08067 21.3614L6.08333 21.8361C6.08333 21.8574 6.09067 21.8774 6.10467 21.8934C6.18133 21.9847 6.286 22.0407 6.418 22.0627C6.64067 22.0994 7.33933 22.1414 7.39067 21.8347C7.40733 21.7367 7.47533 21.6774 7.59333 21.6581C7.77267 21.6281 8.434 21.5601 8.47667 21.8081C8.544 22.2034 8.394 22.4894 8.02667 22.6654C7.722 22.8114 7.41067 22.9027 7.094 22.9401ZM7.17933 19.0674C6.92467 19.0021 6.084 18.9087 6.08133 19.3354C6.07933 19.6527 6.08 19.9907 6.08333 20.3501C6.08333 20.3694 6.09867 20.3847 6.118 20.3854C6.43667 20.3901 6.73667 20.3834 7.01867 20.3661C7.184 20.3561 7.396 20.2654 7.39867 20.0727C7.402 19.8121 7.40133 19.5674 7.39667 19.3387C7.39333 19.1941 7.32133 19.1041 7.17933 19.0674Z" fill="white"/>
<path d="M11.4052 19.055C11.1186 18.9964 10.3392 18.9164 10.3392 19.3564C10.3386 20.3837 10.3392 21.4777 10.3406 22.637C10.3406 22.739 10.2912 22.8017 10.1932 22.8244C9.94722 22.881 9.69122 22.8837 9.42455 22.8317C9.31322 22.8097 9.25788 22.747 9.25855 22.643C9.26055 21.4664 9.26055 20.2604 9.25988 19.0257C9.25988 18.8424 9.33722 18.693 9.49388 18.5777C10.1232 18.1157 11.0459 18.061 11.7786 18.2324C11.9879 18.281 12.2079 18.3797 12.4379 18.527C12.6946 18.6917 12.7466 18.877 12.7446 19.169C12.7359 20.4057 12.7352 21.5644 12.7426 22.6444C12.7452 22.957 11.9859 22.865 11.8072 22.8257C11.7079 22.8037 11.6579 22.743 11.6586 22.6424C11.6599 21.6104 11.6599 20.5137 11.6586 19.353C11.6586 19.1977 11.5592 19.0864 11.4052 19.055Z" fill="white"/>
<path d="M15.64 22.9401H14.9347C14.5607 22.9001 14.2073 22.7868 13.8733 22.6008C13.6487 22.4748 13.536 22.2915 13.5353 22.0508C13.5327 21.0461 13.5333 20.0375 13.5367 19.0248C13.5367 18.6921 13.794 18.5315 14.0673 18.3928C14.616 18.1135 15.3367 18.0941 15.9167 18.2075C16.3033 18.2835 17.012 18.5321 17.014 19.0181C17.016 19.5195 17.016 19.9988 17.014 20.4568C17.0113 21.0255 16.1247 21.2441 15.646 21.2901C15.314 21.3221 14.9847 21.3328 14.6587 21.3221C14.6353 21.3215 14.616 21.3395 14.6153 21.3628C14.6153 21.3628 14.6153 21.3628 14.6153 21.3635C14.614 21.5021 14.6147 21.6455 14.6167 21.7941C14.622 22.1781 15.4893 22.0901 15.6993 22.0375C15.8293 22.0055 15.908 21.9288 15.9367 21.8068C15.952 21.7428 16.002 21.6921 16.0667 21.6761C16.3327 21.6101 16.6047 21.6088 16.884 21.6721C16.9547 21.6881 17.0067 21.7495 17.0113 21.8221C17.0347 22.1741 17.0033 22.4088 16.6753 22.5988C16.3587 22.7815 16.014 22.8955 15.64 22.9401ZM14.846 19.0628C14.6907 19.1041 14.6133 19.1995 14.614 19.3481C14.6153 19.6748 14.6153 20.0055 14.614 20.3408C14.614 20.3688 14.6273 20.3835 14.6553 20.3841C15.0153 20.3955 15.3327 20.3875 15.608 20.3595C15.76 20.3435 15.9373 20.2368 15.936 20.0615C15.934 19.8268 15.9333 19.5868 15.9347 19.3415C15.9367 18.9061 15.0713 19.0028 14.8453 19.0628H14.846Z" fill="white"/>
<path d="M25.9414 22.9401H25.2514C24.9141 22.9061 24.5794 22.8075 24.2474 22.6441C24.0348 22.5395 23.8494 22.3555 23.8474 22.1101C23.8394 21.0775 23.8381 20.0395 23.8428 18.9968C23.8448 18.5088 24.6048 18.2648 24.9801 18.2001C25.7161 18.0721 26.6248 18.1381 27.1788 18.6621C27.2808 18.7595 27.3154 18.9235 27.3154 19.0608C27.3154 19.9695 27.3154 20.9715 27.3154 22.0681C27.3154 22.3415 27.1414 22.5275 26.9021 22.6455C26.5788 22.8041 26.2581 22.9021 25.9414 22.9401ZM26.2441 19.3815C26.2441 19.1835 26.0841 19.0228 25.8861 19.0221L25.2768 19.0208C25.0788 19.0208 24.9181 19.1808 24.9174 19.3788L24.9134 21.7068C24.9134 21.9048 25.0734 22.0655 25.2714 22.0661L25.8808 22.0675C26.0788 22.0675 26.2394 21.9075 26.2401 21.7095L26.2441 19.3815Z" fill="white"/>
<path d="M19.4592 19.1363C19.2486 19.1389 18.8866 19.1803 18.8859 19.4629C18.8839 20.5156 18.8839 21.5916 18.8859 22.6923C18.8859 22.7136 18.8792 22.7349 18.8652 22.7523C18.7066 22.9463 18.1126 22.8789 17.9339 22.8289C17.8546 22.8069 17.8152 22.7543 17.8152 22.6709C17.8166 21.5343 17.8152 20.3509 17.8132 19.1209C17.8119 18.7123 18.0599 18.5703 18.3812 18.4176C18.6679 18.2809 18.9806 18.2096 19.3192 18.2029C19.6292 18.1969 19.9379 18.2009 20.2452 18.2136C20.3012 18.2163 20.3492 18.2529 20.3659 18.3063C20.4386 18.5376 20.4399 18.7763 20.3699 19.0216C20.3512 19.0876 20.2912 19.1329 20.2232 19.1323C19.9786 19.1323 19.7239 19.1329 19.4599 19.1363H19.4592Z" fill="white"/>
<path d="M29.7713 19.1169C29.5533 19.1203 29.1786 19.1543 29.1786 19.4443C29.1799 20.4396 29.1799 21.5083 29.1793 22.6496C29.1786 22.9589 28.4173 22.8636 28.2353 22.8243C28.1586 22.8076 28.1033 22.7396 28.1033 22.6609C28.1046 21.4429 28.1046 20.2409 28.1039 19.0536C28.1039 18.8676 28.1833 18.7169 28.3433 18.6029C28.9699 18.1563 29.7886 18.2009 30.5153 18.2083C30.7846 18.2109 30.7013 18.8676 30.6619 19.0096C30.6453 19.0709 30.5893 19.1129 30.5259 19.1123C30.2913 19.1109 30.0399 19.1123 29.7713 19.1169Z" fill="white"/>
<path d="M5 22.1392C5.05133 22.3772 5.212 22.5572 5.48067 22.6785C5.8 22.8225 6.10733 22.9098 6.40267 22.9405H5V22.1392Z" fill="white"/>
<circle cx="20" cy="20" r="19.5" stroke="black" stroke-opacity="0.05"/>
</svg>
