<svg width="40" height="40" viewBox="0 0 40 40" fill="none" xmlns="http://www.w3.org/2000/svg">
<circle cx="20" cy="20" r="20" fill="#0D8E45"/>
<g clip-path="url(#clip0_18553_55888)">
<path d="M20.9198 16.7573C20.9198 16.5719 20.8278 16.4758 20.6296 16.4758C18.0606 16.4758 15.7039 16.4758 13.5596 16.4827C13.1279 16.4827 12.866 16.6406 12.774 16.9564C12.7457 17.0593 12.7315 17.2653 12.7315 17.5674C12.7457 19.7847 12.7528 22.215 12.7528 24.858C12.7528 25.2355 12.5971 25.5513 12.2928 25.8053C12.1158 25.9564 11.9318 26.0319 11.7407 26.0319C11.2029 26.0388 10.757 26.0319 10.4102 26.0113C10.1625 25.9907 10.0352 25.8671 10.0352 25.6269C10.0352 23.1074 10.0352 20.588 10.0352 18.0685C10.0352 17.8763 10.113 17.7115 10.2616 17.5674C11.394 16.469 12.4202 15.4804 13.3331 14.5948C13.4817 14.4575 13.6657 14.3202 13.8851 14.1829C14.1187 14.0525 14.3876 14.0662 14.6495 14.0593C17.1265 14.0525 19.6105 14.0525 22.1088 14.0593C22.314 14.0593 22.4202 14.1623 22.4202 14.3614C22.4202 15.7962 22.4202 17.2378 22.4202 18.7001C22.4202 19.2767 21.9248 19.6131 21.3373 19.6131C19.8582 19.6131 18.3154 19.6131 16.716 19.6131C16.348 19.6131 15.9516 19.8328 15.9587 20.231C15.9658 21.8305 15.9587 23.382 15.9587 24.8854C15.9587 25.4003 15.7252 25.7504 15.2722 25.9426C14.9042 26.0937 14.2602 26.0319 13.8143 26.025C13.6091 26.025 13.4393 25.8534 13.4393 25.6543C13.4393 24.1097 13.4393 22.5513 13.4393 20.9793C13.4393 20.7939 13.503 20.636 13.6374 20.5056C14.607 19.5788 15.6049 18.6177 16.6381 17.6291C16.8858 17.3889 17.2538 17.1829 17.6148 17.1829C18.6268 17.1829 19.6035 17.1829 20.5518 17.1829C20.7853 17.1829 20.9056 17.0662 20.9056 16.8397V16.7504L20.9198 16.7573Z" fill="white"/>
<path d="M29.9289 14.1554C29.9997 14.2309 30.0351 14.3202 30.0351 14.4232C30.0351 16.7161 30.0351 19.2973 30.0351 21.7344C30.0351 22.2767 29.5822 22.771 29.1363 23.1966C28.2233 24.0753 27.3175 24.9403 26.3762 25.7298C26.0719 25.9838 25.711 26.0524 25.3146 26.0456C22.7173 26.0387 20.2545 26.0387 17.9332 26.0456C17.7067 26.0456 17.5298 25.8671 17.5298 25.6543C17.5298 24.4048 17.5298 23.0662 17.5298 21.6383C17.5298 20.9655 17.9261 20.5055 18.6409 20.5055C20.0846 20.4987 21.6062 20.4918 23.1986 20.4918C23.5312 20.4918 23.9488 20.3957 24.0337 20.0318C24.1044 19.7298 24.1328 19.3522 24.1257 18.906C24.1044 17.4163 24.1115 16.0227 24.1257 14.7183C24.1257 14.684 24.1398 14.6497 24.1681 14.6222L24.6494 14.1486C24.6494 14.1486 24.7202 14.1005 24.7626 14.1005C25.2226 14.0662 25.6968 14.0593 26.1781 14.0868C26.2559 14.0868 26.3833 14.1074 26.4682 14.1417C26.5178 14.1623 26.5531 14.2035 26.5814 14.2447L26.5956 14.279C26.5956 14.279 26.6168 14.327 26.6168 14.3476C26.6381 14.4643 26.6239 14.5742 26.6239 14.6222C26.6239 16.0364 26.6239 17.4643 26.6168 18.8991C26.6168 19.2836 26.4328 19.5994 26.1214 19.8945C25.3005 20.684 24.3663 21.5559 23.3189 22.5101C22.9933 22.8053 22.6466 22.9426 22.2007 22.9426C21.2524 22.9426 20.3111 22.9426 19.3769 22.9426C19.2212 22.9426 19.1434 23.0181 19.1434 23.1691V23.43C19.1434 23.581 19.2283 23.6566 19.384 23.6566C21.8327 23.6566 24.2318 23.6428 26.5814 23.636C27.0061 23.636 27.2184 23.43 27.2184 23.025C27.2325 20.636 27.2396 18.0959 27.2255 15.398C27.2255 14.89 27.3953 14.5467 27.7987 14.2172C27.9049 14.128 28.0393 14.0799 28.1809 14.0799C28.5914 14.0799 29.2566 14.0799 29.7237 14.0868C29.7945 14.0868 29.8652 14.1142 29.9148 14.1691H29.9219L29.9289 14.1554Z" fill="white"/>
</g>
<circle cx="20" cy="20" r="19.5" stroke="black" stroke-opacity="0.05"/>
<defs>
<clipPath id="clip0_18553_55888">
<rect width="20" height="12" fill="white" transform="translate(10.0352 14.0522)"/>
</clipPath>
</defs>
</svg>
