<svg width="40" height="40" viewBox="0 0 40 40" fill="none" xmlns="http://www.w3.org/2000/svg">
<circle cx="20" cy="20" r="20" fill="#E60012"/>
<path d="M24.5333 29.1313C22.0252 31.6232 17.9766 31.6232 15.4684 29.1313L10.8702 24.5322C8.37662 22.0254 8.37662 17.9748 10.8702 15.4679L15.4685 10.8688C17.9766 8.37705 22.0252 8.37705 24.5333 10.8688L29.1316 15.4679C31.6228 17.9757 31.6228 22.0245 29.1316 24.5322L24.5333 29.1313Z" fill="white"/>
<path d="M17.2702 26.7628C16.9037 26.7548 16.6119 26.4532 16.616 26.0867C16.62 25.72 16.9182 25.425 17.2847 25.425C17.6514 25.425 17.9496 25.72 17.9535 26.0867C17.9575 26.4532 17.6659 26.7548 17.2994 26.7628H17.2702M19.747 14.1906C19.5781 14.1843 19.4096 14.2128 19.2521 14.2743C19.0946 14.3358 18.9514 14.429 18.8314 14.548C18.311 15.0686 18.0372 16.1389 18.0603 17.5646C18.0895 19.3249 18.5096 22.7741 19.8912 24.5511C20.0918 24.8155 20.3339 25.0456 20.6081 25.2325C20.8799 25.4375 21.2104 25.5496 21.5508 25.5524C21.6749 25.5513 21.7986 25.5394 21.9207 25.5169C22.7129 25.3266 23.7057 24.4444 24.4455 23.2695C24.6245 22.9874 24.9972 22.9016 25.2816 23.0772C25.3497 23.1194 25.4086 23.1748 25.4549 23.2402C25.5012 23.3055 25.534 23.3795 25.5513 23.4577C25.5695 23.536 25.5721 23.6172 25.5588 23.6965C25.5455 23.7758 25.5167 23.8517 25.4739 23.9197C24.5396 25.404 23.3065 26.4471 22.1736 26.7105H22.1465C21.9465 26.7473 21.7437 26.7662 21.5403 26.7669C20.9625 26.7628 20.3999 26.5811 19.9287 26.2465C19.5437 25.986 19.2035 25.6647 18.9214 25.2952C16.9754 22.7867 16.8417 18.106 16.8312 17.5793C16.8103 16.325 16.9901 14.6525 17.9641 13.6763C18.1955 13.4437 18.4717 13.2606 18.776 13.138C19.0803 13.0155 19.4064 12.9561 19.7344 12.9635H19.8473C20.1755 12.9555 20.5019 13.0145 20.8066 13.1367C21.1113 13.2589 21.388 13.4418 21.6198 13.6743C22.5936 14.6401 22.7735 16.3312 22.7526 17.5772C22.7316 18.8774 22.4934 21.3965 21.1453 23.6521C20.9634 23.9202 20.6039 23.9995 20.3261 23.8329C20.0485 23.6662 19.9492 23.3116 20.1002 23.025C21.0428 21.4467 21.5006 19.7095 21.5361 17.5562C21.5591 16.1305 21.2853 15.0582 20.7627 14.5397C20.6435 14.4207 20.5011 14.3275 20.3443 14.266C20.1875 14.2045 20.0197 14.176 19.8514 14.1822L19.747 14.1906Z" fill="#E60012"/>
<circle cx="20" cy="20" r="19.5" stroke="black" stroke-opacity="0.05"/>
</svg>
