<svg width="40" height="40" viewBox="0 0 40 40" fill="none" xmlns="http://www.w3.org/2000/svg">
<circle cx="20" cy="20" r="20" fill="#760000"/>
<path d="M25.3 24.1787V16.707H26.6049L30.0534 21.4655H30.1362V16.707H31.6326V24.1787H30.3381L26.8793 19.3995H26.7965V24.1787H25.3Z" fill="white"/>
<path d="M20.8774 24.3705C18.6561 24.3705 17.2788 22.8585 17.2788 20.4456V20.4353C17.2788 18.0172 18.6768 16.5156 20.8774 16.5156C23.078 16.5156 24.4709 18.0224 24.4709 20.4353V20.4456C24.4709 22.8585 23.0832 24.3705 20.8774 24.3705ZM20.8774 23.0449C22.0942 23.0449 22.8761 22.0249 22.8761 20.4456V20.4353C22.8761 18.8509 22.0891 17.8412 20.8774 17.8412C19.6606 17.8412 18.8736 18.8509 18.8736 20.4353V20.4456C18.8736 22.0249 19.6451 23.0449 20.8774 23.0449Z" fill="white"/>
<path d="M9.278 24.1787L7.30005 16.707H8.92591L10.0909 22.0454H10.1738L11.5356 16.707H12.8559L14.2436 22.0454H14.3264L15.4811 16.707H17.0966L15.1135 24.1787H13.6481L12.2346 19.1458H12.1517L10.7537 24.1787H9.278Z" fill="white"/>
<circle cx="20" cy="20" r="19.5" stroke="black" stroke-opacity="0.05"/>
</svg>
