<svg width="40" height="40" viewBox="0 0 40 40" fill="none" xmlns="http://www.w3.org/2000/svg">
<circle cx="20" cy="20" r="20" fill="#F6F8FA"/>
<g clip-path="url(#clip0_18553_55665)">
<path d="M30.0352 29.5203C30.0352 29.5203 30.0284 29.54 30.0149 29.54H10.0554C10.0554 29.54 10.0352 29.5335 10.0352 29.5203V10.5598C10.0352 10.5598 10.0419 10.54 10.0554 10.54H30.0149C30.0149 10.54 30.0352 10.5466 30.0352 10.5598V29.5269V29.5203ZM29.5771 22.3969V21.8571V21.2448V20.7116V19.8689V19.3356V18.7563V18.2164V11.0404C29.5771 11.0206 29.5704 11.0141 29.5501 11.0141H10.5067C10.5067 11.0141 10.4932 11.0141 10.4932 11.0272V29.0068C10.4932 29.0068 10.5 29.0331 10.5202 29.0331H29.5434C29.5434 29.0331 29.5704 29.0265 29.5704 29.0068V22.3838L29.5771 22.3969Z" fill="#7F7400"/>
<path d="M29.5703 18.2297C29.1055 18.1112 28.7485 17.8808 28.4992 17.5318C28.4049 17.4068 28.2971 17.1829 28.1691 16.8735C26.7006 13.2723 22.8946 11.0998 18.9539 11.5672C15.9091 11.9227 13.2955 13.8319 11.9954 16.5575C10.7155 19.2436 10.9916 22.4629 12.6959 24.9317C14.0364 26.8607 16.1045 28.2037 18.4689 28.5987C20.1328 28.8752 21.8909 28.7041 23.447 28.0457C25.5083 27.1701 27.1587 25.6164 28.0681 23.5887C28.351 22.9501 28.863 22.5353 29.577 22.4036V29.0267C29.577 29.0267 29.5636 29.053 29.5501 29.053H10.5201C10.5201 29.053 10.4932 29.0464 10.4932 29.0267V11.0405C10.4932 11.0405 10.4932 11.0273 10.5066 11.0273H29.5433C29.5433 11.0273 29.5703 11.0339 29.5703 11.0537V18.2297Z" fill="#FFE900"/>
<path d="M29.57 18.2294V18.7693C28.8627 18.6376 28.3305 18.2887 27.9668 17.7291C27.8253 17.5053 27.7445 17.2617 27.6367 17.0115C26.249 13.7461 22.8472 11.7183 19.2164 12.0673C16.4073 12.3372 13.9486 13.9962 12.6485 16.4453C11.5774 18.4664 11.4494 20.8497 12.2713 22.9696C13.3086 25.649 15.7876 27.6439 18.6977 28.0849C20.2403 28.322 21.702 28.1574 23.083 27.6044C25.1039 26.7946 26.5791 25.4252 27.5087 23.5028C27.6704 23.1737 27.7916 22.9498 27.8792 22.8379C28.2901 22.2915 28.856 21.9689 29.57 21.8569V22.3968C28.8627 22.5285 28.3508 22.9498 28.0678 23.5818C27.1652 25.6095 25.508 27.1633 23.4467 28.0389C21.8907 28.6972 20.1325 28.8684 18.4686 28.5919C16.1042 28.1969 14.0362 26.8538 12.6956 24.9249C10.9846 22.4626 10.7152 19.2433 11.9951 16.5506C13.2884 13.8251 15.9089 11.9224 18.9536 11.5603C22.8944 11.0929 26.7004 13.2721 28.1689 16.8732C28.2969 17.1892 28.4046 17.4065 28.4989 17.5316C28.7549 17.8805 29.1119 18.1109 29.57 18.2294Z" fill="#69615F"/>
<path d="M29.5701 18.7692V19.3486C28.7079 19.3486 27.8389 19.3486 26.9767 19.3486C26.6196 19.3486 26.3771 19.3288 26.2424 19.2827C25.7507 19.1181 25.4475 18.7692 25.2724 18.3084C24.491 16.1753 22.497 14.7467 20.173 14.6216C18.489 14.5294 16.879 15.2207 15.754 16.4123C14.2047 18.0582 13.814 20.369 14.7234 22.4231C15.2623 23.641 16.3131 24.6615 17.5189 25.2013C18.6304 25.7016 19.7823 25.8399 20.9949 25.6226C22.8069 25.2935 24.262 24.1611 25.0636 22.535C25.1713 22.3111 25.2387 22.0741 25.3869 21.87C25.5688 21.6133 25.8113 21.429 26.1144 21.3236C26.2626 21.2709 26.5321 21.2446 26.9295 21.2446H29.5769V21.8569C28.8561 21.9622 28.2902 22.2914 27.8861 22.8378C27.7985 22.9497 27.6772 23.1736 27.5156 23.5028C26.586 25.4251 25.1107 26.7879 23.0898 27.6043C21.7089 28.1573 20.2471 28.3219 18.7045 28.0849C15.7945 27.6438 13.3155 25.649 12.2781 22.9695C11.463 20.8496 11.5843 18.4664 12.6553 16.4452C13.9555 13.9962 16.4142 12.3371 19.2232 12.0672C22.8473 11.7183 26.2559 13.746 27.6436 17.0114C27.7513 17.255 27.8254 17.4986 27.9736 17.729C28.3307 18.2886 28.8696 18.6375 29.5701 18.7692Z" fill="#FEFFFF"/>
<path d="M29.5703 19.3489V19.8822C28.607 19.8822 27.6572 19.8822 26.7074 19.8822C26.283 19.8822 25.899 19.7703 25.5622 19.5399C25.1513 19.2633 24.9155 18.9013 24.7471 18.4536C24.3901 17.5187 23.8175 16.755 23.0226 16.1691C20.9748 14.6615 18.186 14.8326 16.3403 16.5839C14.5753 18.2627 14.2587 20.9421 15.6397 22.9501C16.8185 24.6552 18.8259 25.4782 20.9142 25.1029C22.6454 24.7935 24.0937 23.569 24.7202 21.9692C25.0233 21.1989 25.7643 20.7249 26.6063 20.7249C27.5966 20.7249 28.5868 20.7249 29.5838 20.7249V21.2582H26.9297C26.5322 21.2582 26.2628 21.2845 26.1146 21.3372C25.8115 21.4425 25.5689 21.6268 25.3871 21.8836C25.2389 22.0877 25.1715 22.3247 25.0637 22.5485C24.2621 24.1746 22.8071 25.3004 20.995 25.6362C19.7892 25.8534 18.6306 25.7152 17.5191 25.2148C16.3133 24.675 15.2692 23.6545 14.7235 22.4366C13.8141 20.3825 14.2049 18.0717 15.7542 16.4259C16.8792 15.2342 18.4959 14.543 20.1732 14.6351C22.4972 14.7602 24.4911 16.1889 25.2726 18.3219C25.441 18.7893 25.7508 19.1317 26.2426 19.2963C26.3706 19.3424 26.6131 19.3621 26.9768 19.3621C27.8391 19.3621 28.7081 19.3621 29.5703 19.3621V19.3489Z" fill="#69615F"/>
<path d="M29.5708 19.8753V20.718C28.5738 20.718 27.5836 20.718 26.5934 20.718C25.7513 20.718 25.0103 21.192 24.7072 21.9623C24.0807 23.5621 22.6324 24.7801 20.9012 25.0961C18.813 25.4713 16.8056 24.655 15.6267 22.9433C14.2458 20.9419 14.5624 18.2558 16.3273 16.577C18.1663 14.8258 20.9618 14.6546 23.0097 16.1622C23.8045 16.7482 24.3839 17.5119 24.7342 18.4467C24.9026 18.8878 25.1451 19.2565 25.5492 19.533C25.8861 19.7634 26.27 19.8753 26.6944 19.8753C27.6375 19.8753 28.594 19.8753 29.5573 19.8753H29.5708Z" fill="#E82208"/>
</g>
<circle cx="20" cy="20" r="19.5" stroke="black" stroke-opacity="0.05"/>
<defs>
<clipPath id="clip0_18553_55665">
<rect width="20" height="19" fill="white" transform="translate(10.0352 10.54)"/>
</clipPath>
</defs>
</svg>
