<svg width="40" height="40" viewBox="0 0 40 40" fill="none" xmlns="http://www.w3.org/2000/svg">
<circle cx="20" cy="20" r="20" fill="#760000"/>
<g clip-path="url(#clip0_33363_65634)">
<path d="M10.1259 18.7136C10.1259 17.9643 9.78304 17.286 9.22903 16.7949C8.67502 16.3037 7.9096 16 7.06395 16C6.21831 16 5.45288 16.3037 4.89887 16.7949C4.34461 17.2858 4.00201 17.9643 4.00201 18.7136C4.00201 18.7136 3.82326 20.8835 7.06395 23.8962C10.3046 20.8835 10.1259 18.7136 10.1259 18.7136Z" fill="white"/>
<path d="M19.5189 18.5879C18.9003 18.5879 18.3332 18.8153 17.9218 19.228C17.5113 19.6402 17.285 20.2079 17.285 20.8267C17.285 21.4455 17.5113 22.0132 17.9218 22.4254C18.3332 22.8381 18.9003 23.0656 19.5189 23.0656C20.1374 23.0656 20.7045 22.8381 21.1158 22.4254C21.5263 22.0135 21.7526 21.4458 21.7526 20.8267C21.7526 20.2077 21.5263 19.6399 21.1158 19.228C20.7045 18.8153 20.1374 18.5879 19.5189 18.5879ZM20.3498 21.7619C20.1348 22.0048 19.8395 22.1385 19.5186 22.1385C19.1977 22.1385 18.9023 22.0048 18.6873 21.7619C18.4727 21.5197 18.3546 21.1873 18.3546 20.8264C18.3546 20.4656 18.4727 20.1332 18.6873 19.891C18.9023 19.6481 19.1977 19.5144 19.5183 19.5144C19.8389 19.5144 20.1343 19.6481 20.3496 19.891C20.5641 20.1332 20.6822 20.4653 20.6822 20.8264C20.6822 21.1876 20.5641 21.5197 20.3496 21.7619H20.3498Z" fill="white"/>
<path d="M17.5546 22.993L14.9644 19.9614L17.5011 17.1777H15.9783L13.7145 19.6545V19.6408V17.1777H12.5421V22.993H13.7145V20.2454L16.0661 22.993H17.5546Z" fill="white"/>
<path d="M34.6873 22.9942L33.7497 21.6774L32.8034 22.9942H31.5096L33.0985 20.7849L31.5792 18.6621H32.873L33.75 19.8836L34.627 18.6621H35.9119L34.3926 20.7762L35.9814 22.9942H34.6876H34.6873Z" fill="white"/>
<path d="M31.6357 20.4397C31.4445 19.3679 30.5317 18.5898 29.4652 18.5898C28.2462 18.5898 27.2542 19.5924 27.2542 20.8247C27.2542 22.057 28.2459 23.0673 29.4652 23.0673C30.2322 23.0673 30.9788 22.6856 31.3669 22.1168L30.5024 21.6843C30.2437 21.9457 29.8551 22.1052 29.4652 22.1052C28.8879 22.1052 28.4348 21.7604 28.3117 21.2382H31.6363L31.6441 21.174C31.6807 20.8787 31.6778 20.6447 31.6357 20.4397ZM28.3151 20.387C28.434 19.9656 28.8255 19.5437 29.4573 19.5437C30.0893 19.5437 30.4731 19.9656 30.5915 20.387H28.3151Z" fill="white"/>
<path d="M25.5936 17.0527V19.0701C25.5936 19.0701 25.1497 18.5914 24.3864 18.5914C23.7367 18.5914 23.2036 18.7961 22.8019 19.1999C22.3836 19.6202 22.1533 20.1982 22.1533 20.8273C22.1533 21.4564 22.3838 22.0357 22.8019 22.456C23.2046 22.8598 23.7377 23.0645 24.3864 23.0645C25.0673 23.0645 25.5936 22.6518 25.5936 22.6518L25.671 22.9935H26.7659V16.7637L25.5936 17.0527ZM25.584 20.8286V21.5964C25.5335 21.6988 25.4024 21.8122 25.3846 21.8283C25.1486 22.0383 24.8688 22.1628 24.4666 22.1415C24.1222 22.1238 23.8316 21.9941 23.6254 21.7654C23.4059 21.5224 23.2856 21.1905 23.2856 20.8299V20.8276C23.2856 20.467 23.4061 20.1351 23.6254 19.8921C23.8316 19.6634 24.1222 19.5334 24.4666 19.516C24.8688 19.4947 25.1486 19.6192 25.3846 19.8292C25.4024 19.8455 25.5335 19.9587 25.584 20.0611V20.8289V20.8286Z" fill="white"/>
</g>
<circle cx="20" cy="20" r="19.5" stroke="black" stroke-opacity="0.05"/>
<defs>
<clipPath id="clip0_33363_65634">
<rect width="32" height="8" fill="white" transform="translate(4 16)"/>
</clipPath>
</defs>
</svg>
