<svg width="40" height="40" viewBox="0 0 40 40" fill="none" xmlns="http://www.w3.org/2000/svg">
<circle cx="20" cy="20" r="20" fill="#EE4D22"/>
<path d="M26.514 28.5636C26.4876 28.6019 26.472 28.6465 26.4686 28.6929C26.4688 28.6977 26.4681 28.7025 26.4663 28.707C26.4645 28.7115 26.4618 28.7155 26.4583 28.7188C26.4548 28.7222 26.4507 28.7247 26.4461 28.7262C26.4415 28.7278 26.4367 28.7283 26.4319 28.7278C26.4163 28.7276 26.401 28.7246 26.3865 28.7191C26.372 28.7123 26.3594 28.7023 26.3494 28.6899C26.3394 28.6775 26.3324 28.663 26.3288 28.6475C26.0959 27.6448 25.4758 26.6673 24.4686 25.7147C23.6123 24.8926 22.6529 24.1851 21.6145 23.6099C21.1743 23.3689 20.7265 23.1284 20.2712 22.8886C20.5099 21.2113 20.9124 19.5615 21.473 17.9628C21.4799 17.9431 21.4828 17.9222 21.4816 17.9014C21.4804 17.8805 21.4752 17.8601 21.4661 17.8412C21.457 17.8224 21.4443 17.8056 21.4287 17.7917C21.4131 17.7778 21.3949 17.7671 21.3752 17.7602C21.3613 17.7547 21.3465 17.7517 21.3315 17.7515C19.6805 17.6557 18.0529 17.3154 16.5018 16.7419C14.9301 16.0991 13.5664 15.0346 12.5613 13.6659C12.2756 13.2009 12.0313 12.7117 11.8311 12.2039C11.7689 11.8623 11.787 11.5108 11.8841 11.1773C11.9811 10.8439 12.1543 10.5375 12.3901 10.2826C13.6407 8.85724 15.1674 9.65024 16.4704 10.5219C19.7245 12.6948 23.3856 12.3629 26.8913 11.0581C28.3212 10.5271 29.4694 10.7635 30.3358 11.7673C31.431 13.0371 31.0676 14.6703 29.9969 15.7969C27.6936 18.2225 26.4709 21.0755 26.3288 24.3558C26.2789 25.5679 26.3315 26.7822 26.486 27.9855C26.5082 28.1773 26.5176 28.3705 26.514 28.5636Z" fill="white"/>
<path d="M16.5019 16.7419C16.381 18.3248 16.0953 19.8908 15.6495 21.4144C15.5953 21.6013 15.6635 21.7043 15.8556 21.7235C17.3806 21.8807 18.8721 22.2738 20.2765 22.8886C20.7318 23.1285 21.1796 23.3689 21.6197 23.61C22.6582 24.1851 23.6176 24.8926 24.4739 25.7148C25.4811 26.6673 26.1012 27.6449 26.3341 28.6475C26.3376 28.663 26.3447 28.6775 26.3547 28.69C26.3646 28.7024 26.3773 28.7123 26.3917 28.7191C26.4062 28.7247 26.4216 28.7276 26.4372 28.7278C26.4419 28.7284 26.4468 28.7278 26.4514 28.7263C26.4559 28.7247 26.4601 28.7222 26.4636 28.7189C26.4671 28.7155 26.4698 28.7115 26.4716 28.707C26.4734 28.7025 26.4741 28.6977 26.4738 28.6929C26.4772 28.6466 26.4929 28.6019 26.5192 28.5636C26.4075 30.3488 25.4433 31.5785 23.5236 31.4579C22.5437 31.3968 21.7962 30.9479 21.0992 30.2737C18.3901 27.6536 15.4329 25.7637 11.5762 26.2929C10.5438 26.4344 9.65477 26.3052 9.17094 25.2973C8.80937 24.5322 9.0574 23.6798 9.57792 23.0266C11.2233 20.9847 12.3499 18.8345 12.2906 16.1917C12.285 15.5973 12.2401 15.0038 12.1561 14.4153C11.9721 13.2508 11.8655 12.512 11.8364 12.1987C12.0366 12.7065 12.2809 13.1957 12.5665 13.6607C13.5696 15.0306 14.9314 16.0968 16.5019 16.7419Z" fill="#6C6257"/>
<circle cx="20" cy="20" r="19.5" stroke="black" stroke-opacity="0.05"/>
</svg>
