<svg width="40" height="40" viewBox="0 0 40 40" fill="none" xmlns="http://www.w3.org/2000/svg">
<circle cx="20" cy="20" r="20" fill="#F6F8FA"/>
<g clip-path="url(#clip0_17713_28064)">
<path d="M31.8652 14H32.881C33.5666 14.0623 34.1025 14.2867 34.4951 14.673C34.8192 14.9909 34.9874 15.3897 34.9999 15.8696C35.0684 18.3873 32.5944 20.5373 30.569 22.008C30.5005 22.0579 30.4506 22.1264 30.4257 22.2074L29.9022 23.9212C29.7962 24.2702 29.4722 24.507 29.1107 24.507H27.7148C27.6213 24.507 27.5964 24.4696 27.6275 24.3824L27.9828 23.5099C28.0326 23.3977 28.0015 23.3666 27.8893 23.4227C26.6741 24.0085 25.3716 24.3574 23.9756 24.4821C23.9507 24.4821 23.932 24.4759 23.9258 24.4447C23.9258 24.4447 23.932 24.4011 23.9569 24.3948C25.1659 24.1269 26.2503 23.6969 27.2038 23.1173C29.6093 21.6466 32.8063 18.8422 33.0493 15.9444C33.1116 15.1778 32.719 14.5297 31.8652 14Z" fill="#F47933"/>
<path d="M31.884 15.8696C31.2795 15.3586 30.4818 15.2838 29.7651 15.5892C28.3941 16.175 26.2254 16.175 25.677 14.4799C25.6396 14.3739 25.6645 14.3552 25.7518 14.43C26.6305 15.1903 27.7709 14.8476 28.7805 14.5297C30.0144 14.1371 31.5848 14.3802 32.0273 15.7761C32.0896 15.9755 32.0398 16.0067 31.884 15.8696Z" fill="#30B457"/>
<path d="M7 24.0707V23.5223C7.69174 21.3599 8.35856 19.2036 9.00045 17.0474C9.16248 16.5052 9.58625 16.2497 10.1347 16.2497C11.0507 16.2497 11.8858 16.2622 12.6523 16.2746C13.0512 16.2746 13.369 16.5987 13.3815 16.9975L13.5248 22.0454C13.5248 22.1825 13.5684 22.1887 13.637 22.0765C14.74 20.3565 15.8556 18.6178 16.9898 16.848C17.2453 16.4491 17.613 16.2559 18.0866 16.2559C19.0899 16.2559 19.9935 16.2622 20.7975 16.2684C21.4954 16.2684 21.7447 16.6049 21.5453 17.2717L19.414 24.3761C19.3891 24.4571 19.333 24.5008 19.2519 24.5008H16.7841C16.6906 24.5008 16.6595 24.4571 16.6906 24.3699L18.6724 18.0632C18.7659 17.7641 18.7285 17.7454 18.554 18.0071C17.2827 19.8954 15.9428 21.8771 14.5406 23.9586C14.0483 24.6877 13.1634 24.5257 12.3844 24.4945C12.0167 24.4821 11.7238 24.1892 11.7113 23.8215L11.5244 17.9448C11.5181 17.6893 11.4745 17.683 11.3997 17.9261L9.38059 24.3699C9.35566 24.4509 9.29958 24.4883 9.21856 24.4945C8.74494 24.5132 8.27754 24.5132 7.82261 24.4945C7.36145 24.4758 7.08725 24.3387 7 24.077L7 24.0707Z" fill="#00ACEC"/>
<path d="M24.8796 19.5651H28.7497C28.8743 19.5651 28.9802 19.4841 29.0176 19.3657L29.7904 16.7794C29.8589 16.5613 30.0521 16.4055 30.2765 16.393C30.8187 16.3556 31.2798 16.3245 31.6724 16.2996C31.8968 16.2809 31.984 16.3868 31.9217 16.6049C31.579 17.8762 30.2391 20.9423 28.6811 20.9361C27.2478 20.9299 25.8207 20.9236 24.3936 20.9361C24.3125 20.9361 24.2627 20.9797 24.2378 21.0545L23.1721 24.4634C23.1596 24.4945 23.1409 24.5132 23.1098 24.5132H20.8912C20.8538 24.5132 20.8351 24.4945 20.8476 24.4571C21.583 22.0267 22.3121 19.6025 23.035 17.1845C23.116 16.9165 23.1098 16.6485 23.0101 16.3868C22.9789 16.2933 23.0101 16.2497 23.1098 16.2497L24.942 16.2622C25.2598 16.2622 25.5153 16.5239 25.5153 16.8417C25.5153 16.8978 25.5091 16.9539 25.4904 17.01L24.7488 19.403C24.7114 19.5215 24.755 19.5775 24.8734 19.5775L24.8796 19.5651Z" fill="#30B457"/>
</g>
<circle cx="20" cy="20" r="19.5" stroke="black" stroke-opacity="0.05"/>
<defs>
<clipPath id="clip0_17713_28064">
<rect width="28" height="10.5257" fill="white" transform="translate(7 14)"/>
</clipPath>
</defs>
</svg>
