<svg width="40" height="40" viewBox="0 0 40 40" fill="none" xmlns="http://www.w3.org/2000/svg">
<circle cx="20" cy="20" r="20" fill="#254698"/>
<path d="M10 19.9991C10.0027 22.4752 10.9227 24.8624 12.5825 26.6998C14.2423 28.5372 16.524 29.6943 18.9871 29.9479V27.6946C17.3016 27.4706 15.7359 26.7006 14.5295 25.5023C13.3232 24.304 12.5426 22.7435 12.3073 21.0596L18.8883 21.0875V18.851L12.3167 18.8231C12.5732 17.1624 13.3606 15.6295 14.561 14.4536C15.7614 13.2777 17.3103 12.5222 18.9759 12.2999V10.0466C16.5144 10.3032 14.235 11.4621 12.5776 13.3C10.9201 15.1378 10.0019 17.5243 10 19.9991Z" fill="white"/>
<path d="M19.9989 10H19.9784V12.2365V26.5H22.2149V12.5683C23.8161 13.0474 25.2202 14.0296 26.2193 15.3694C27.2183 16.7092 27.7591 18.3352 27.7615 20.0065C27.759 22.065 26.9402 24.0385 25.4846 25.4941C24.029 26.9497 22.0556 27.7685 19.9971 27.7709H19.9766V30.0075H19.9971C22.6486 30.0045 25.1906 28.9499 27.0655 27.075C28.9404 25.2001 29.995 22.658 29.998 20.0065C29.9965 17.3544 28.9428 14.8112 27.0682 12.9351C25.1935 11.0591 22.6511 10.0035 19.9989 10Z" fill="white"/>
<circle cx="20" cy="20" r="19.5" stroke="black" stroke-opacity="0.05"/>
</svg>
