<svg width="40" height="40" viewBox="0 0 40 40" fill="none" xmlns="http://www.w3.org/2000/svg">
<circle cx="20" cy="20" r="20" fill="#F6F8FA"/>
<path d="M25.978 18.2383H23.8056L23.0214 18.2411C23.0172 18.2404 23.0129 18.2407 23.0088 18.242C23.0048 18.2434 23.0011 18.2456 22.9981 18.2486C22.9951 18.2516 22.9929 18.2553 22.9915 18.2593C22.9902 18.2634 22.9899 18.2677 22.9906 18.2719C22.9906 19.1394 22.9906 20.0142 22.9906 20.8963C22.9906 21.0577 22.9932 21.2158 22.9984 21.3708C23.9911 21.0448 24.9871 20.688 25.9763 20.2964V20.2544L25.978 18.2383Z" fill="white"/>
<path d="M23.0123 21.7253C23.0122 21.7292 23.0128 21.7331 23.0143 21.7367C23.0157 21.7403 23.0179 21.7435 23.0207 21.7462C23.0236 21.7488 23.0269 21.7508 23.0306 21.7521C23.0343 21.7533 23.0382 21.7538 23.042 21.7533H25.9701L25.974 20.2969C24.9847 20.689 23.9887 21.0453 22.9961 21.3713C23 21.4912 23.0056 21.6094 23.0123 21.7253Z" fill="white"/>
<path d="M28.9908 19.0166L28.9975 21.1968L29.0054 21.7273C29.0049 21.7312 29.0053 21.7351 29.0066 21.7388C29.0079 21.7424 29.01 21.7458 29.0127 21.7485C29.0155 21.7513 29.0188 21.7534 29.0225 21.7546C29.0262 21.7559 29.0301 21.7564 29.0339 21.7559H31.9351C31.9393 21.7566 31.9436 21.7562 31.9477 21.7549C31.9517 21.7536 31.9554 21.7514 31.9584 21.7484C31.9614 21.7454 31.9636 21.7417 31.965 21.7376C31.9663 21.7336 31.9666 21.7293 31.9659 21.7251V18.308C31.9665 18.3005 31.9655 18.2929 31.9629 18.2859C31.9603 18.2788 31.9561 18.2724 31.9508 18.2671C31.9455 18.2617 31.9391 18.2576 31.932 18.255C31.925 18.2524 31.9174 18.2514 31.9099 18.252L30.4366 18.248C29.9597 18.5035 29.4776 18.7488 28.9902 18.9841L28.9908 19.0166Z" fill="white"/>
<path d="M29.0039 18.2389H28.9989L28.9944 18.2423H28.9899L28.9866 18.2468C28.9864 18.2484 28.9864 18.2501 28.9866 18.2518C28.9866 18.2518 28.9866 18.2552 28.9866 18.2574C28.9862 18.2593 28.9862 18.2612 28.9866 18.263L28.9978 18.9733C29.4833 18.7381 29.9654 18.4927 30.4442 18.2372L29.0151 18.2339L29.0039 18.2389Z" fill="white"/>
<path d="M30.4365 18.241L31.9098 18.245C31.9173 18.2444 31.9248 18.2454 31.9319 18.248C31.9389 18.2506 31.9453 18.2547 31.9507 18.2601C31.956 18.2654 31.9601 18.2718 31.9627 18.2789C31.9653 18.2859 31.9664 18.2935 31.9658 18.301V21.7181C31.9664 21.7223 31.9661 21.7266 31.9648 21.7306C31.9635 21.7347 31.9612 21.7383 31.9582 21.7414C31.9552 21.7444 31.9515 21.7466 31.9475 21.7479C31.9435 21.7492 31.9392 21.7496 31.935 21.7489H29.0338C29.0299 21.7493 29.026 21.7489 29.0223 21.7476C29.0187 21.7464 29.0153 21.7443 29.0126 21.7415C29.0098 21.7388 29.0077 21.7354 29.0065 21.7318C29.0052 21.7281 29.0048 21.7242 29.0052 21.7203L28.9974 21.1898L28.9906 19.0096V18.9704C28.0002 19.4583 26.9914 19.8947 25.9746 20.2986L25.9707 21.7551L25.9847 24.7655H28.8377C30.7558 24.7711 32.6737 24.7722 34.5913 24.7688C34.7155 24.7685 34.8394 24.7794 34.9616 24.8013H34.9678C34.9763 24.8012 34.9844 24.7977 34.9904 24.7916C34.9964 24.7855 34.9997 24.7774 34.9997 24.7688V15.3018C33.565 16.4095 32.0384 17.3928 30.4365 18.241ZM28.929 21.8111C28.929 21.8111 28.929 21.8111 28.929 21.8083V21.8049C28.929 21.8049 28.9296 21.8111 28.929 21.8111Z" fill="url(#paint0_linear_17752_43870)"/>
<path d="M25.9746 20.2554V20.2986C26.9913 19.8958 28.0002 19.4583 28.9901 18.9782L28.9789 18.2679C28.9786 18.2662 28.9786 18.2645 28.9789 18.2629C28.9789 18.2629 28.9789 18.259 28.9789 18.2573C28.9787 18.2556 28.9787 18.2539 28.9789 18.2522L28.9822 18.2477H28.9867L28.9912 18.2444H28.9962H29.0018L30.4309 18.2477C32.0332 17.3989 33.5602 16.4148 34.9952 15.3062C34.9964 15.2986 34.9957 15.2908 34.9933 15.2835C34.9909 15.2762 34.9868 15.2696 34.9813 15.2641C34.9759 15.2587 34.9692 15.2546 34.9619 15.2522C34.9546 15.2497 34.9468 15.2491 34.9392 15.2502L25.9785 15.2485V18.2382L25.9746 20.2554Z" fill="url(#paint1_linear_17752_43870)"/>
<path d="M10.9777 24.0196L10.9945 21.7693L10.9995 15.2712C10.9999 15.2687 10.9997 15.2661 10.9989 15.2637C10.9981 15.2613 10.9968 15.2591 10.995 15.2573C10.9932 15.2555 10.991 15.2541 10.9886 15.2533C10.9861 15.2526 10.9836 15.2523 10.9811 15.2527H8.0233C8.01837 15.2521 8.01335 15.2526 8.00864 15.2542C8.00393 15.2558 7.99965 15.2584 7.99613 15.262C7.99262 15.2655 7.98995 15.2698 7.98835 15.2745C7.98675 15.2792 7.98625 15.2842 7.98689 15.2891L7.99753 21.7704H5.02801C5.02058 21.7704 5.01346 21.7734 5.0082 21.7786C5.00295 21.7839 5 21.791 5 21.7984V24.7142C5 24.7142 7.39198 24.6229 10.9749 24.1131L10.9777 24.0196Z" fill="url(#paint2_linear_17752_43870)"/>
<path d="M5.00195 24.7134C5.00195 24.7266 5.00721 24.7393 5.01656 24.7486C5.02591 24.758 5.03859 24.7632 5.05181 24.7632H7.71603L10.9763 24.7666V24.1123C7.39393 24.6221 5.00195 24.7134 5.00195 24.7134Z" fill="url(#paint3_linear_17752_43870)"/>
<path d="M21.6615 21.7853L21.6643 21.792C22.1073 21.6583 22.5517 21.5183 22.9976 21.3719C22.9927 21.2165 22.9901 21.0584 22.9897 20.8974C22.9897 20.0157 22.9897 19.1409 22.9897 18.273C22.9891 18.2688 22.9894 18.2645 22.9907 18.2604C22.992 18.2564 22.9943 18.2527 22.9973 18.2497C23.0003 18.2467 23.004 18.2444 23.008 18.2431C23.012 18.2418 23.0163 18.2415 23.0205 18.2421L23.8048 18.2393H25.9772V15.2485L23.4978 15.2569L20.0023 15.2541L19.9944 18.2259L19.9883 22.1511V22.2727C20.5429 22.1233 21.1016 21.9629 21.6643 21.7915L21.6615 21.7853ZM21.6106 21.7634H21.6201H21.6246C21.6197 21.7629 21.6148 21.7629 21.61 21.7634H21.6106Z" fill="url(#paint4_linear_17752_43870)"/>
<path d="M23.0438 21.755C23.04 21.7554 23.0361 21.755 23.0324 21.7538C23.0287 21.7525 23.0253 21.7505 23.0225 21.7478C23.0197 21.7452 23.0175 21.7419 23.016 21.7383C23.0146 21.7347 23.0139 21.7309 23.0141 21.727C23.0074 21.6111 23.0018 21.4929 22.9979 21.3735C22.5527 21.5199 22.1083 21.66 21.6646 21.7937C21.1022 21.9632 20.5435 22.1236 19.9886 22.2749V24.7313C19.9879 24.7359 19.9884 24.7406 19.9898 24.7451C19.9913 24.7495 19.9938 24.7536 19.9971 24.7569C20.0005 24.7602 20.0045 24.7627 20.0089 24.7642C20.0134 24.7657 20.0181 24.7661 20.0227 24.7654H22.3576H25.987L25.9719 21.755H23.0438Z" fill="url(#paint5_linear_17752_43870)"/>
<path d="M17.0022 18.2434C17.0072 18.2391 17.0131 18.236 17.0195 18.2344L19.993 18.226L20.0008 15.2514L17.1831 15.2571L14.0253 15.2475C14.0211 15.2467 14.0166 15.247 14.0125 15.2483C14.0083 15.2496 14.0045 15.2519 14.0014 15.2549C13.9983 15.258 13.996 15.2618 13.9947 15.266C13.9934 15.2702 13.9932 15.2746 13.994 15.2789C13.999 17.4238 14.0136 19.5738 13.9867 21.721C13.9864 21.7329 13.9815 21.7442 13.973 21.7526C13.9646 21.7609 13.9532 21.7657 13.9413 21.7658H10.9953L10.9785 24.0161V24.109C12.7442 23.8575 14.7995 23.5046 17.001 23.0105L16.9893 18.2714C16.9894 18.2661 16.9907 18.2609 16.9929 18.2561C16.9951 18.2513 16.9982 18.247 17.0022 18.2434Z" fill="url(#paint6_linear_17752_43870)"/>
<path d="M10.9746 24.7669H16.1188L16.9562 24.7703C16.9681 24.7703 16.9795 24.7655 16.9879 24.7571C16.9963 24.7487 17.001 24.7373 17.001 24.7254L16.9971 23.0146C14.7956 23.5087 12.7397 23.8616 10.9746 24.1132V24.7669Z" fill="url(#paint7_linear_17752_43870)"/>
<circle cx="20" cy="20" r="19.5" stroke="black" stroke-opacity="0.05"/>
<defs>
<linearGradient id="paint0_linear_17752_43870" x1="26" y1="24.7469" x2="35" y2="24.7469" gradientUnits="userSpaceOnUse">
<stop stop-color="#32A7B3"/>
<stop offset="1" stop-color="#00C8C5"/>
</linearGradient>
<linearGradient id="paint1_linear_17752_43870" x1="26.0039" y1="20.2697" x2="34.996" y2="20.2697" gradientUnits="userSpaceOnUse">
<stop stop-color="#00C8C5"/>
<stop offset="1" stop-color="#32A7B3"/>
</linearGradient>
<linearGradient id="paint2_linear_17752_43870" x1="5.0127" y1="24.6618" x2="10.5136" y2="24.6618" gradientUnits="userSpaceOnUse">
<stop stop-color="#135CA7"/>
<stop offset="1" stop-color="#0D6BB1"/>
</linearGradient>
<linearGradient id="paint3_linear_17752_43870" x1="5.0146" y1="24.763" x2="10.4922" y2="24.763" gradientUnits="userSpaceOnUse">
<stop stop-color="#0D6BB1"/>
<stop offset="1" stop-color="#135CA7"/>
</linearGradient>
<linearGradient id="paint4_linear_17752_43870" x1="20.001" y1="22.2338" x2="25.492" y2="22.2338" gradientUnits="userSpaceOnUse">
<stop stop-color="#0D6BB1"/>
<stop offset="1" stop-color="#135CA7"/>
</linearGradient>
<linearGradient id="paint5_linear_17752_43870" x1="20.001" y1="24.7469" x2="25.501" y2="24.7469" gradientUnits="userSpaceOnUse">
<stop stop-color="#135CA7"/>
<stop offset="1" stop-color="#0D6BB1"/>
</linearGradient>
<linearGradient id="paint6_linear_17752_43870" x1="11.0078" y1="24.0583" x2="20.0011" y2="24.0583" gradientUnits="userSpaceOnUse">
<stop stop-color="#00C8C5"/>
<stop offset="1" stop-color="#32A7B3"/>
</linearGradient>
<linearGradient id="paint7_linear_17752_43870" x1="10.9942" y1="24.7602" x2="17.0012" y2="24.7602" gradientUnits="userSpaceOnUse">
<stop stop-color="#32A7B3"/>
<stop offset="1" stop-color="#00C8C5"/>
</linearGradient>
</defs>
</svg>
