<svg width="40" height="40" viewBox="0 0 40 40" fill="none" xmlns="http://www.w3.org/2000/svg">
<circle cx="20" cy="20" r="20" fill="#F6F8FA"/>
<g clip-path="url(#clip0_18553_55572)">
<path d="M14.62 26.9199C14.62 28.1999 13.59 29.2299 12.31 29.2299C11.03 29.2299 10 28.1999 10 26.9199C10 25.6399 11.03 24.6099 12.31 24.6099C13.59 24.6099 14.62 25.6399 14.62 26.9199Z" fill="#005EA5"/>
<path d="M21.8202 26.9199C21.8202 28.1999 20.7902 29.2299 19.5102 29.2299C18.2302 29.2299 17.2002 28.1999 17.2002 26.9199C17.2002 25.6399 18.2302 24.6099 19.5102 24.6099C20.7902 24.6099 21.8202 25.6399 21.8202 26.9199Z" fill="#9FDBED"/>
<path d="M29.0702 26.9199C29.0702 28.1999 28.0402 29.2299 26.7602 29.2299C25.4802 29.2299 24.4502 28.1999 24.4502 26.9199C24.4502 25.6399 25.4802 24.6099 26.7602 24.6099C28.0402 24.6099 29.0702 25.6399 29.0702 26.9199Z" fill="#9FDBED"/>
<path d="M29.0702 19.81C29.0702 21.09 28.0402 22.12 26.7602 22.12C25.4802 22.12 24.4502 21.09 24.4502 19.81C24.4502 18.53 25.4802 17.5 26.7602 17.5C28.0402 17.5 29.0702 18.53 29.0702 19.81Z" fill="#9FDBED"/>
<path d="M27.42 11.1198C26.61 10.8498 25.68 11.0398 25.04 11.6898C23.3 13.4798 23 13.4798 21.23 11.7198C20.9 11.3898 20.49 11.1798 20.06 11.0898C19.28 10.8798 18.41 11.0898 17.8 11.6898C16.06 13.4798 15.76 13.4798 13.99 11.7198C13.59 11.3098 13.09 11.0898 12.58 11.0498C12.49 11.0398 12.4 11.0298 12.31 11.0298C11.03 11.0298 10 12.0598 10 13.3398C10 14.6198 11.03 15.6498 12.31 15.6498C12.8 15.6498 13.25 15.4998 13.62 15.2398C13.76 15.1498 13.89 15.0498 14.01 14.9198C15.78 13.1498 16.08 13.1498 17.85 14.9198C17.97 15.0398 18.1 15.1398 18.23 15.2298C18.61 15.4898 19.06 15.6498 19.55 15.6498C20.04 15.6498 20.5 15.4898 20.88 15.2298C21.01 15.1398 21.14 15.0398 21.25 14.9298C23.02 13.1598 23.32 13.1598 25.09 14.9298C25.21 15.0498 25.34 15.1498 25.47 15.2398C25.84 15.4998 26.3 15.6598 26.79 15.6598C28.07 15.6598 29.1 14.6298 29.1 13.3498C29.1 12.2898 28.39 11.3998 27.42 11.1298V11.1198Z" fill="url(#paint0_linear_18553_55572)"/>
<path d="M19.55 17.4998C19.55 17.4998 19.51 17.4998 19.5 17.4998C18.89 17.4898 18.26 17.7198 17.8 18.1798C16.06 19.9698 15.76 19.9698 13.99 18.2098C13.92 18.1398 13.86 18.0898 13.78 18.0298C13.38 17.6998 12.87 17.4998 12.31 17.4998C11.03 17.4998 10 18.5298 10 19.8098C10 21.0898 11.03 22.1198 12.31 22.1198C12.31 22.1198 12.33 22.1198 12.34 22.1198C12.94 22.1198 13.54 21.8998 14.01 21.4298C15.78 19.6598 16.08 19.6598 17.85 21.4298C18.13 21.7098 18.47 21.9098 18.83 22.0098C19.06 22.0898 19.3 22.1298 19.56 22.1298C20.84 22.1298 21.87 21.0998 21.87 19.8198C21.87 18.5398 20.84 17.5098 19.56 17.5098L19.55 17.4998Z" fill="url(#paint1_linear_18553_55572)"/>
</g>
<circle cx="20" cy="20" r="19.5" stroke="black" stroke-opacity="0.05"/>
<defs>
<linearGradient id="paint0_linear_18553_55572" x1="10" y1="13.3198" x2="29.1" y2="13.3198" gradientUnits="userSpaceOnUse">
<stop stop-color="#005EA5"/>
<stop offset="0.16" stop-color="#0461A6"/>
<stop offset="0.31" stop-color="#106AAC"/>
<stop offset="0.48" stop-color="#247BB5"/>
<stop offset="0.64" stop-color="#4191C2"/>
<stop offset="0.8" stop-color="#66AED3"/>
<stop offset="0.96" stop-color="#93D1E7"/>
<stop offset="1" stop-color="#9FDBED"/>
</linearGradient>
<linearGradient id="paint1_linear_18553_55572" x1="10" y1="19.8098" x2="21.86" y2="19.8098" gradientUnits="userSpaceOnUse">
<stop stop-color="#005EA5"/>
<stop offset="0.16" stop-color="#0461A6"/>
<stop offset="0.31" stop-color="#106AAC"/>
<stop offset="0.48" stop-color="#247BB5"/>
<stop offset="0.64" stop-color="#4191C2"/>
<stop offset="0.8" stop-color="#66AED3"/>
<stop offset="0.96" stop-color="#93D1E7"/>
<stop offset="1" stop-color="#9FDBED"/>
</linearGradient>
<clipPath id="clip0_18553_55572">
<rect width="19.1" height="18.23" fill="white" transform="translate(10 11)"/>
</clipPath>
</defs>
</svg>
