<svg width="40" height="40" viewBox="0 0 40 40" fill="none" xmlns="http://www.w3.org/2000/svg">
<circle cx="20" cy="20" r="20" fill="#F6F8FA"/>
<path d="M26.6075 9.71185C26.5497 9.79926 26.4697 9.86515 26.3682 9.9102C26.268 9.95457 26.2155 9.9781 26.2115 9.98012C24.53 10.8602 22.8283 11.7484 21.1051 12.646C20.5221 12.5471 19.87 12.4833 19.1492 12.4557L19.125 8.23337C19.6427 8.1184 20.1591 8.04579 20.6734 8.01687C22.7005 7.90123 24.573 8.38868 26.2908 9.4799C26.4327 9.56999 26.5383 9.64731 26.6075 9.71185Z" fill="#6CB9E5"/>
<path d="M19.1249 8.2334L19.1491 12.4557C18.8062 12.4705 18.4303 12.4866 18.0222 12.5041C17.8797 12.5102 17.7889 12.5505 17.721 12.6702C17.6827 12.7368 17.645 12.8033 17.6074 12.8699C17.6013 12.8504 17.5933 12.8363 17.5832 12.8275C17.5758 12.8201 17.5617 12.8195 17.5415 12.8248C17.5072 12.8336 17.4783 12.8322 17.4548 12.8201C16.9902 12.5808 15.9218 12.0207 14.249 11.1406C14.3129 11.0579 14.3795 10.9799 14.4487 10.9073C15.7215 9.57204 17.2806 8.68051 19.1249 8.2334Z" fill="#9BD0F0"/>
<path d="M26.6074 9.71191L27.2011 10.1321L27.181 10.1718C27.1662 10.2007 27.146 10.2054 27.1204 10.1852C27.1144 10.1805 27.1077 10.1785 27.1003 10.1778C27.072 10.1745 27.0579 10.1873 27.0579 10.2162L27.0613 17.3538C27.0613 17.3867 27.0882 17.4136 27.1211 17.4136C27.1299 17.4136 27.1386 17.4116 27.1467 17.4076C28.0839 16.9618 29.0259 16.512 29.9719 16.0588C30.1877 15.956 30.3316 15.8982 30.4035 15.8861C30.5642 16.9813 30.5171 18.0644 30.261 19.1341C29.8703 18.9224 29.4864 18.7193 29.1079 18.5243C28.4282 18.1734 27.7504 17.8224 27.0761 17.4714C27.0203 17.4419 26.9658 17.4096 26.914 17.3746C26.7863 17.2879 26.629 17.2502 26.4891 17.1763C26.1832 17.0156 25.888 16.867 25.603 16.7319C25.5532 16.7083 25.5048 16.6828 25.4571 16.6552C25.4053 16.625 25.367 16.633 25.3421 16.6787C25.2466 16.3641 25.1659 16.122 25.0994 15.9533C24.5333 14.5178 23.4508 13.3917 21.9979 12.9035C21.7343 12.8148 21.4364 12.7287 21.105 12.646C22.8282 11.7484 24.5299 10.8603 26.2114 9.98018C26.2155 9.97816 26.2679 9.95463 26.3681 9.91026C26.4696 9.86521 26.5496 9.79932 26.6074 9.71191Z" fill="#0B90C9"/>
<path d="M27.2008 10.1321C28.1959 10.9665 28.9805 11.9642 29.5547 13.1247C29.9937 14.0122 30.2768 14.9326 30.4032 15.886C30.3313 15.8981 30.1874 15.9559 29.9716 16.0588C29.0256 16.512 28.0836 16.9618 27.1464 17.4075C27.1168 17.4216 27.0811 17.4089 27.067 17.3793C27.063 17.3712 27.0617 17.3625 27.061 17.3537L27.0576 10.2161C27.0576 10.1872 27.0717 10.1744 27.1 10.1778C27.1074 10.1778 27.1141 10.1805 27.1201 10.1852C27.1457 10.2054 27.1659 10.2007 27.1807 10.1717L27.2008 10.1321Z" fill="#16B3DE"/>
<path d="M14.249 11.1406C15.9218 12.0207 16.9901 12.5808 17.4547 12.8201C17.4783 12.8322 17.5072 12.8336 17.5415 12.8248C17.5616 12.8195 17.5758 12.8201 17.5831 12.8275C17.5932 12.8363 17.6013 12.8504 17.6074 12.8699C17.2564 13.4663 16.9794 14.1057 16.7763 14.7888L12.1714 16.9833C12.1519 16.9934 12.1304 16.9981 12.1082 16.9981C12.0377 16.9981 12.002 17.0431 12 17.1326V16.3399C12.1634 14.6335 12.7544 13.0904 13.773 11.7101C13.9229 11.5077 14.0816 11.3175 14.249 11.1406Z" fill="#6CB9E5"/>
<path d="M18.6363 14.9366C18.7479 14.7093 18.8487 14.4726 18.9704 14.2521C19.0182 14.1667 19.0935 14.1822 19.1768 14.1761C19.3779 14.162 19.5856 14.1486 19.8014 14.1358C19.8566 14.1324 19.909 14.158 19.9399 14.2037L20.3171 14.7584C20.3548 14.8142 20.3595 14.8855 20.3306 14.946L20.022 15.5786C20.0011 15.621 19.9594 15.6492 19.9124 15.6519L19.1519 15.7037C19.1197 15.7057 19.0894 15.6903 19.0719 15.664L18.6416 15.0172C18.6255 14.993 18.6235 14.9621 18.6363 14.9366Z" fill="#004C80"/>
<path d="M16.7763 14.7888C16.7024 15.0652 16.6425 15.359 16.5968 15.6709C16.4422 16.7326 16.5827 17.7673 17.0587 18.7375C17.5932 19.828 18.3886 20.7054 19.4435 21.3704C19.3756 21.4625 19.2869 21.5176 19.1759 21.5344C19.0428 21.5217 18.9514 21.5028 18.9016 21.4766C18.1869 21.1048 17.4715 20.735 16.7541 20.3673C15.6858 19.8193 14.6195 19.2666 13.5558 18.7093C13.0408 18.439 12.5224 18.1647 12 17.887V17.1326C12.002 17.0432 12.0377 16.9988 12.1082 16.9981C12.1304 16.9981 12.1519 16.9934 12.1714 16.9834L16.7763 14.7888Z" fill="#0B90C9"/>
<path d="M30.2607 19.1341C30.2405 19.2343 30.2136 19.3452 30.1793 19.4669C29.8526 20.6314 29.3584 21.8248 28.6309 22.7762C28.4225 23.0485 28.1515 23.3094 27.8012 23.3605C27.5552 23.3961 27.305 23.39 27.0516 23.341L27.0543 17.5474C27.0543 17.5131 27.0267 17.4855 26.9924 17.4855C26.9823 17.4855 26.9729 17.4875 26.9642 17.4922L25.5341 18.2325C25.5368 17.6966 25.4729 17.1782 25.3418 16.6787C25.3667 16.633 25.405 16.6249 25.4568 16.6552C25.5045 16.6827 25.5529 16.7083 25.6027 16.7318C25.8877 16.867 26.1829 17.0155 26.4888 17.1762C26.6287 17.2502 26.786 17.2878 26.9137 17.3746C26.9655 17.4095 27.02 17.4418 27.0758 17.4714C27.7501 17.8224 28.4279 18.1733 29.1076 18.5243C29.4861 18.7193 29.87 18.9223 30.2607 19.1341Z" fill="#006BAB"/>
<path d="M27.0516 23.3408C26.7363 23.2716 26.4149 23.1277 26.0875 22.9085C25.2585 22.3545 25.1953 21.3897 25.249 20.4887C25.2605 20.2984 25.2954 20.0362 25.3546 19.7014C25.4413 19.2119 25.5012 18.7225 25.5341 18.2323L26.9642 17.4921C26.9944 17.4766 27.0321 17.4887 27.0476 17.519C27.0523 17.5277 27.0543 17.5371 27.0543 17.5472L27.0516 23.3408Z" fill="#003D6B"/>
<path d="M12 17.887C12.5224 18.1646 13.0408 18.439 13.5558 18.7092C14.6195 19.2666 15.6858 19.8193 16.7541 20.3672C17.4715 20.735 18.1869 21.1048 18.9016 21.4766C18.9514 21.5028 19.0428 21.5217 19.1759 21.5344C19.1679 21.5526 19.1638 21.5687 19.1632 21.5828C18.7039 21.7839 18.2508 21.9963 17.805 22.2216C17.5004 22.3755 17.1791 22.5006 16.8819 22.6552C16.5847 22.8092 16.1497 23.0183 15.5775 23.2825C14.8615 23.6133 14.1071 23.9676 13.3138 24.3462C13.1645 24.4174 13.0078 24.5364 12.8357 24.6044C12.5601 24.7139 12.2817 24.8289 12 24.9506V17.887Z" fill="#006BAB"/>
<path d="M19.4434 21.3704C20.0673 21.7207 20.7289 21.9795 21.4288 22.1462C21.7663 22.2263 22.1011 22.3143 22.4333 22.4091C22.9873 22.5678 23.4505 22.8401 23.823 23.2254C24.016 23.425 24.1457 23.6792 24.2116 23.9878C24.172 23.9717 24.133 23.971 24.096 23.9858C24.0724 23.9952 24.0536 23.9898 24.0388 23.9696C24.014 23.936 23.9803 23.9172 23.9373 23.9138C23.9111 23.9118 23.8869 23.9024 23.866 23.8869C23.4821 23.5978 23.0478 23.4795 22.6444 23.2697C22.4568 23.1722 22.2733 23.0808 22.0924 22.9968C21.7031 22.8159 21.3326 22.6223 20.9319 22.4522C20.5897 22.3063 20.2495 22.1489 19.9127 21.9802C19.7291 21.8887 19.5543 21.7832 19.3882 21.6628C19.3701 21.6501 19.3499 21.6453 19.3277 21.6494C19.2679 21.6608 19.2148 21.683 19.169 21.7153C19.1294 21.677 19.1274 21.6332 19.163 21.5828C19.163 21.5687 19.1677 21.5526 19.1758 21.5344C19.2867 21.5176 19.3755 21.4625 19.4434 21.3704Z" fill="#003D6B"/>
<path d="M19.1632 21.5828C19.1275 21.6332 19.1295 21.6769 19.1692 21.7152C19.1443 21.7791 19.1322 21.8309 19.1322 21.8719C19.1457 24.211 19.1537 26.5507 19.1571 28.8898C19.1571 29.1016 19.1423 29.31 19.1114 29.5137C18.905 29.4109 18.6972 29.3248 18.5029 29.2152C18.1069 28.9913 17.7089 28.7789 17.3075 28.5772C16.732 28.2874 16.1907 27.9425 15.5782 27.6749C15.2945 27.5505 15.0067 27.408 14.7156 27.2473C14.2039 26.9642 13.701 26.6845 13.2082 26.4082C12.991 26.2865 12.7745 26.1816 12.5574 26.0942C12.4814 26.0633 12.392 26.0101 12.2891 25.9342C12.2004 25.8683 12.1042 25.8172 12 25.7809V24.9505C12.2817 24.8288 12.5601 24.7139 12.8357 24.6043C13.0078 24.5364 13.1645 24.4174 13.3138 24.3461C14.1071 23.9676 14.8615 23.6132 15.5775 23.2824C16.1497 23.0182 16.5847 22.8091 16.8819 22.6552C17.1791 22.5005 17.5004 22.3755 17.805 22.2215C18.2508 21.9963 18.7039 21.7838 19.1632 21.5828Z" fill="#004C80"/>
<path d="M24.2117 23.9879C24.2615 24.4242 24.203 24.8498 24.0356 25.2646C23.7162 26.0587 22.8381 26.1689 22.1019 26.218C21.2776 26.2732 20.4843 26.2456 19.7218 26.136C19.709 26.134 19.6976 26.1427 19.6956 26.1555C19.6956 26.1568 19.6956 26.1582 19.6956 26.1589C19.7003 26.8574 19.701 27.5251 19.6963 28.1631C19.6842 30.0531 18.3805 31.5921 16.5537 31.9363C15.8928 32.0607 15.1889 32.0042 14.4419 31.7669C14.5347 31.6694 14.651 31.5934 14.7902 31.539C15.0221 31.4489 15.1492 31.3984 15.17 31.3883C15.4786 31.2351 15.7947 31.0831 16.1187 30.9325C16.5376 30.7382 17.3357 30.355 18.5136 29.7835C18.6071 29.7384 18.7066 29.694 18.8135 29.6503C18.9096 29.6107 19.0091 29.5656 19.1113 29.5139C19.1423 29.3101 19.1577 29.1017 19.157 28.8899C19.1537 26.5508 19.1456 24.2111 19.1322 21.872C19.1322 21.831 19.1443 21.7792 19.1691 21.7153C19.2149 21.6831 19.268 21.6609 19.3278 21.6494C19.35 21.6454 19.3702 21.6494 19.3883 21.6629C19.5544 21.7832 19.7292 21.8888 19.9128 21.9802C20.2496 22.149 20.5898 22.3063 20.932 22.4522C21.3328 22.6223 21.7032 22.816 22.0925 22.9968C22.2734 23.0809 22.4569 23.1723 22.6445 23.2698C23.0479 23.4796 23.4822 23.5979 23.8661 23.887C23.887 23.9025 23.9112 23.9119 23.9374 23.9139C23.9804 23.9173 24.0141 23.9361 24.0389 23.9697C24.0537 23.9899 24.0726 23.9953 24.0961 23.9858C24.1331 23.971 24.1721 23.9717 24.2117 23.9879Z" fill="#012349"/>
<path d="M12 25.7808C12.1042 25.8171 12.2004 25.8682 12.2891 25.9341C12.392 26.01 12.4814 26.0631 12.5574 26.0941C12.7745 26.1815 12.991 26.2864 13.2082 26.4081C13.701 26.6844 14.2039 26.9641 14.7156 27.2471C15.0067 27.4078 15.2945 27.5504 15.5782 27.6748C16.1907 27.9423 16.732 28.2873 17.3075 28.577C17.7089 28.7787 18.1069 28.9912 18.5029 29.2151C18.6972 29.3247 18.905 29.4107 19.1114 29.5136C19.0092 29.5654 18.9097 29.6104 18.8135 29.6501C18.7066 29.6938 18.6071 29.7382 18.5137 29.7832C17.3357 30.3547 16.5377 30.738 16.1188 30.9323C15.7947 31.0829 15.4787 31.2348 15.1701 31.3881C15.1493 31.3982 15.0222 31.4486 14.7902 31.5387C14.6511 31.5932 14.5347 31.6692 14.442 31.7666C14.2113 31.6786 14.0016 31.5757 13.8113 31.4574C12.7692 30.8072 12.1654 29.8653 12 28.6302V25.7808Z" fill="#003D6B"/>
<circle cx="20" cy="20" r="19.5" stroke="black" stroke-opacity="0.05"/>
</svg>
