<svg width="40" height="40" viewBox="0 0 40 40" fill="none" xmlns="http://www.w3.org/2000/svg">
<circle cx="20" cy="20" r="20" fill="#17879B"/>
<path d="M31.8222 19.0178C31.3145 19.1464 30.8716 19.0503 30.495 18.7269C30.1301 18.4126 29.9678 18.0282 30.0106 17.575C30.0691 16.9672 30.4288 16.5218 31.0898 16.2387C31.1184 16.2257 31.1352 16.1958 31.1301 16.1647L31.1236 16.1257C31.1197 16.0984 31.0937 16.079 31.0664 16.0829C31.0638 16.0829 31.0625 16.0829 31.0599 16.0842C30.3028 16.2932 29.7041 16.6712 29.2665 17.2205C28.7159 17.9127 28.5535 18.9243 29.2457 19.5567C29.3288 19.6334 29.473 19.723 29.6782 19.8282C29.8327 19.9074 29.9821 19.9931 30.1236 20.0827C28.8198 19.9606 28.2276 19.197 28.3484 17.7906C28.4509 16.5945 29.7145 15.7608 30.7418 15.3699C31.7067 15.0024 32.5235 14.205 32.53 13.1259C32.53 12.9778 32.5793 12.9596 32.6767 13.0726C33.3481 13.8518 33.3819 14.9647 32.5417 15.6283C32.0261 16.0374 31.2807 16.479 30.7898 17.0594C30.3872 17.5348 30.3392 18.2984 30.9236 18.6581C31.1664 18.8074 31.4664 18.9282 31.8222 19.0178Z" fill="#FFB31A"/>
<path d="M7.42989 17.0049L6.41825 16.6686C6.40526 16.6647 6.39877 16.6556 6.40007 16.6413L6.47539 15.4868C6.47539 15.4609 6.48967 15.4518 6.51435 15.4583L8.98047 16.0673C9.03372 16.0816 9.06099 16.0608 9.06489 16.005L9.11034 15.2206C9.11423 15.1648 9.1428 15.1414 9.19735 15.1531L10.4947 15.4154C10.5388 15.4245 10.5596 15.4505 10.557 15.4959L10.5116 16.2699C10.5077 16.3245 10.5337 16.3569 10.5882 16.3673L12.5933 16.7322C12.6582 16.7439 12.6894 16.7816 12.6855 16.8478L12.6271 17.8192C12.6219 17.8958 12.5816 17.927 12.5076 17.9127L12.131 17.8426C12.0738 17.8322 12.0531 17.8556 12.07 17.9114C12.4167 19.0581 11.6284 19.8827 10.5207 20.0152C9.17527 20.1762 7.56235 19.6776 7.19484 18.2257C7.08185 17.7763 7.17276 17.4374 7.45976 17.1114C7.50262 17.0621 7.49352 17.027 7.42989 17.0049ZM10.6817 18.3776C10.7713 18.0062 10.3791 17.5945 9.80641 17.4569C9.23371 17.3192 8.69737 17.5088 8.60776 17.8802C8.51816 18.2516 8.91035 18.6633 9.48305 18.801C10.0558 18.9386 10.5921 18.749 10.6817 18.3776Z" fill="white"/>
<path d="M31.8223 19.0177C32.6248 18.8527 33.1599 18.1112 33.0482 17.2866C33.0092 16.9996 32.7534 16.8788 32.4989 16.8463C31.9015 16.7697 31.3691 17.0333 30.9158 17.4151C30.886 17.4411 30.8405 17.4372 30.8158 17.4061C30.8093 17.3983 30.8054 17.3905 30.8015 17.3814C30.7938 17.3541 30.7976 17.3294 30.8145 17.3074C31.2924 16.6619 32.1703 16.036 32.9976 16.2347C33.3988 16.3321 33.6806 16.5905 33.8456 17.0113C34.2975 18.1645 33.3027 19.2956 32.3093 19.7514C31.6301 20.0631 30.9015 20.1735 30.1237 20.0826C29.9821 19.993 29.8328 19.9072 29.6782 19.828C29.473 19.7228 29.3289 19.6332 29.2458 19.5566C28.5536 18.9242 28.7159 17.9125 29.2665 17.2204C29.7042 16.671 30.3029 16.2931 31.06 16.084C31.0872 16.0762 31.1145 16.0918 31.1223 16.1191C31.1223 16.1217 31.1223 16.123 31.1236 16.1256L31.1301 16.1646C31.1353 16.1957 31.1184 16.2256 31.0898 16.2386C30.4288 16.5217 30.0691 16.9671 30.0107 17.5749C29.9678 18.0281 30.1301 18.4125 30.4951 18.7268C30.8717 19.0501 31.3145 19.1462 31.8223 19.0177Z" fill="white"/>
<path d="M17.9878 18.6205C17.9878 18.5737 17.9528 18.536 17.906 18.5321L13.8036 18.2335C13.7789 18.2309 13.7607 18.2114 13.7607 18.188L13.7633 17.3075C13.7633 17.288 13.7789 17.2725 13.7984 17.2725C13.7997 17.2725 13.8023 17.2725 13.8036 17.2725C15.097 17.4192 16.4476 17.5231 17.8541 17.5867C18.1437 17.601 18.3787 17.6621 18.5618 17.7711C18.8579 17.9465 19.1618 18.2244 19.1566 18.601C19.1488 19.2269 19.1488 19.8165 19.1566 20.3684C19.1566 20.4165 19.1332 20.4399 19.0865 20.4386L18.0541 20.423C18.0177 20.423 17.9891 20.3931 17.9891 20.358V18.6205H17.9878Z" fill="white"/>
<path d="M25.7317 18.1892L24.4214 18.2567C24.3954 18.258 24.3824 18.2464 24.3837 18.2204V17.4944C24.3837 17.4672 24.3967 17.4529 24.424 17.4516L26.6018 17.3139C26.781 17.3022 26.9369 17.4399 26.9473 17.6191C26.9473 17.6256 26.9473 17.6334 26.9473 17.6412L26.9408 20.3852C26.9408 20.4359 26.9148 20.4631 26.8642 20.4644C26.3902 20.4852 25.8967 20.506 25.3811 20.5255C25.1538 20.5346 24.9422 20.4904 24.7461 20.393C24.0357 20.0437 23.4435 19.6645 22.9708 19.2528C22.9526 19.2359 22.9241 19.2372 22.9046 19.2528C22.2683 19.8515 21.515 20.3437 20.6436 20.7268C20.4982 20.7904 20.4255 20.7436 20.4268 20.5839V19.819C20.4268 19.6956 20.48 19.6047 20.5878 19.5437C21.067 19.2749 21.8605 18.884 22.0774 18.3476C22.1851 18.0827 22.154 17.762 22.1592 17.4724C22.1605 17.4217 22.1877 17.3944 22.2384 17.3931L23.515 17.3555C23.5786 17.3529 23.6085 17.3841 23.6046 17.4477C23.5825 17.8048 23.5656 18.258 23.8487 18.5204C24.2214 18.8671 24.6993 19.0983 25.0941 19.4489C25.2447 19.584 25.4642 19.6437 25.7538 19.6281C25.7876 19.6255 25.8045 19.6073 25.8045 19.5736L25.8084 18.2632C25.8084 18.21 25.7824 18.1853 25.7304 18.1879L25.7317 18.1892Z" fill="white"/>
<path d="M32.9871 21.2111V24.1448C32.9871 24.1811 32.9689 24.1993 32.9339 24.1993L31.7521 24.1967C31.7093 24.1967 31.6885 24.1759 31.6885 24.1331C31.7015 22.9526 31.7067 21.7942 31.7054 20.6605C31.7054 20.3436 31.8625 20.1735 32.1768 20.1501C33.0676 20.0839 33.9936 20.0073 34.9559 19.9229C34.9779 19.9203 34.9974 19.9372 35 19.9592C35 19.9605 35 19.9618 35 19.9631V20.9501C35 20.9774 34.987 20.9917 34.9598 20.993L33.0767 21.115C33.017 21.1189 32.9871 21.1514 32.9871 21.2111Z" fill="white"/>
<path d="M7.109 21.1399L5.03636 21.0165C5.01558 21.0152 5 20.9983 5 20.9776L5.0026 20.0088C5.0026 19.9906 5.01169 19.9815 5.02987 19.9828C7.55833 20.1984 10.0491 20.3633 12.501 20.4763C12.588 20.4802 12.6308 20.5256 12.6308 20.6113V21.3035C12.6308 21.371 12.5971 21.4035 12.5295 21.3996L12.0413 21.3749C11.9672 21.371 11.9542 21.397 12.0049 21.4529C12.4789 21.9827 12.562 22.5359 12.2568 23.1138C11.9218 23.7476 10.979 24.132 10.2946 24.1787C9.35566 24.2436 8.42193 24.2657 7.60248 23.7696C6.69343 23.219 6.31293 22.0372 7.14276 21.2347C7.2025 21.1762 7.19081 21.1451 7.109 21.1399ZM10.9387 22.445C10.9543 22.0282 10.3491 21.6658 9.58681 21.6373C8.82451 21.6074 8.19337 21.923 8.17649 22.3398C8.1609 22.7567 8.76607 23.119 9.52838 23.1476C10.2907 23.1775 10.9218 22.8619 10.9387 22.445Z" fill="white"/>
<path d="M29.3236 21.276L27.7808 21.3462C27.7522 21.3475 27.7288 21.3267 27.7275 21.2981C27.7275 21.2981 27.7275 21.2968 27.7275 21.2955L27.7444 20.4514C27.7444 20.4163 27.7626 20.3982 27.7977 20.3956L30.2937 20.2462C30.4988 20.2345 30.6755 20.3904 30.6872 20.5956C30.6872 20.6033 30.6872 20.6111 30.6872 20.6189L30.6833 24.1512C30.6833 24.1837 30.6677 24.1993 30.6352 24.198C29.8391 24.1967 29.4405 24.1954 29.4392 24.1954C29.4106 24.1954 29.3963 24.1811 29.3963 24.1538C29.395 23.2695 29.4002 22.3383 29.4132 21.3631C29.4132 21.302 29.3833 21.2722 29.3223 21.276H29.3236Z" fill="white"/>
<path d="M15.9889 21.6176L13.1981 21.5539C13.1748 21.5539 13.1553 21.5332 13.1553 21.5098V20.7605C13.1553 20.7358 13.1748 20.7163 13.1994 20.7163C13.1994 20.7163 13.1994 20.7163 13.2007 20.7163L19.7251 20.8501C19.7485 20.8501 19.768 20.8708 19.768 20.8942V21.6163C19.768 21.6409 19.7485 21.6604 19.7238 21.6604L17.2265 21.637C17.2019 21.637 17.1824 21.6565 17.1824 21.6812L17.1954 24.0447C17.1954 24.0694 17.1759 24.0889 17.1512 24.0889L16.085 24.0863C16.0603 24.0863 16.0409 24.0668 16.0409 24.0421L16.0318 21.6617C16.0318 21.6383 16.0123 21.6189 15.9889 21.6176Z" fill="white"/>
<path d="M25.7968 21.6307C25.7968 21.6073 25.7773 21.5892 25.7539 21.5892L20.5204 21.6658C20.4866 21.6658 20.4697 21.6489 20.4697 21.6151L20.4723 20.9178C20.4723 20.8957 20.4905 20.8775 20.5126 20.8775L26.5344 20.7502C26.8032 20.7437 26.9383 20.8762 26.9383 21.145L26.9305 24.0345C26.9305 24.0696 26.9123 24.0877 26.8759 24.0877H25.8669C25.8188 24.0877 25.7955 24.0631 25.7955 24.0163V21.6307H25.7968Z" fill="white"/>
<circle cx="20" cy="20" r="19.5" stroke="black" stroke-opacity="0.05"/>
</svg>
