<svg width="40" height="40" viewBox="0 0 40 40" fill="none" xmlns="http://www.w3.org/2000/svg">
<circle cx="20" cy="20" r="20" fill="#F6F8FA"/>
<path fill-rule="evenodd" clip-rule="evenodd" d="M12.7207 18.9391H13.2692H14.7356V19.4048H13.2376V20.8921H14.7318L14.6444 21.3593H13.1374C12.8721 21.3593 12.7207 21.2024 12.7207 20.9538V20.9494V20.9479V20.9467V20.9451V20.9439V20.9423V20.941V20.9394V19.4048V18.9391ZM32.8289 18.8621H33.2855C33.2855 18.8621 33.2686 20.3351 33.9684 20.9733L33.6436 21.382C33.6436 21.382 33.227 21.0387 32.9808 20.2947C32.9808 20.2947 32.6604 20.977 32.174 21.3558L31.8759 20.9368C31.8759 20.9368 32.375 20.5337 32.5638 19.9101C32.7211 19.3541 32.7743 19.1187 32.7738 18.8621H32.8289ZM34.5325 18.8502H34.5444H34.687H34.6924H35.0346L34.9395 19.359H34.5792V22.1207H34.0405V19.6483V19.5411V19.4119V19.4615V19.3326V19.2901C34.0405 19.0372 34.2435 18.8504 34.4708 18.8504L34.4807 18.8502H34.5325ZM31.0644 18.8531H31.5788L31.5875 22.1234H31.0736L31.0644 18.8531ZM30.6043 19.3069H30.8141L30.9062 18.891H30.2371V18.5526H29.7452V18.891H29.0183V19.3149H29.2972C29.2175 19.4491 29.1968 19.6527 29.1968 19.8259C29.1968 20.2064 29.4703 20.527 29.7033 20.6143V20.8551H29.0379V21.3208H30.8009L30.8977 20.8551H30.1958V20.617C30.5444 20.4414 30.6858 20.179 30.7094 19.7999C30.7094 19.6267 30.684 19.4412 30.6043 19.3069ZM29.9502 19.367C30.1265 19.367 30.2469 19.5821 30.2469 19.7668C30.2469 19.9756 30.0806 20.1507 29.9449 20.1507C29.7976 20.1507 29.6535 19.9683 29.6535 19.7594C29.6535 19.5665 29.8017 19.367 29.9502 19.367ZM25.902 20.1166C25.902 20.1166 26.2595 19.9515 26.5243 19.5297C26.5243 19.5297 26.7298 19.1983 26.7431 18.829H27.2327C27.2327 18.829 27.2613 19.1632 27.3049 19.2795C27.4568 19.6853 27.58 19.9541 27.9574 20.1309L27.7149 20.5738C27.7149 20.5738 27.204 20.4008 26.9762 19.7591C26.9762 19.7591 26.6905 20.2773 26.1837 20.5266L25.902 20.1166ZM26.1665 20.7083H28.0664H28.1519H28.5845V22.1313H28.0842V21.1908H26.1665V20.7083ZM28.0664 18.8432H28.5845V20.561H28.0664V18.8432ZM23.1275 18.8825H25.6268L25.532 19.3484H24.6876C24.9667 20.0144 25.6242 20.0535 25.6242 20.0535L25.4815 20.5609C24.7112 20.4153 24.4087 19.8769 24.4087 19.8769C23.8624 20.5856 23.1365 20.5934 23.1365 20.5934V20.0494C23.1504 20.0563 23.4621 19.9943 23.717 19.8494C23.899 19.7275 24.0705 19.4689 24.1032 19.3484H23.1275V18.8825ZM24.668 21.1871V22.1182H24.1498V21.1871H23.0176V20.7213H25.7253L25.5902 21.1871H24.668ZM21.2648 18.8692V19.4859H20.972C20.8767 19.1168 20.575 18.8248 20.2382 18.8248C19.8235 18.8248 19.4857 19.2322 19.4857 19.7317C19.4857 20.2312 19.8235 20.6385 20.2382 20.6385C20.5749 20.6385 20.8613 20.3691 20.9567 20.0003H21.2648V20.5698H21.7574V18.8692H21.2648ZM20.4691 21.2248V21.5922C20.4691 21.5922 20.4829 21.6255 20.5054 21.6491C20.528 21.6729 20.5594 21.6767 20.5594 21.6767H21.9447V21.2248H20.4691ZM19.9549 20.7213H20.3056H22.1073H22.4463V21.0864V21.7878V22.1312H22.1073H20.3499H20.3056C20.0689 22.1312 19.9549 21.9007 19.9549 21.727V21.6991V21.0864V20.7213ZM20.2476 19.3221C20.4047 19.3221 20.5327 19.5074 20.5327 19.7352C20.5327 19.9629 20.4047 20.1482 20.2476 20.1482C20.0904 20.1482 19.9623 19.9629 19.9623 19.7352C19.9623 19.5074 20.0904 19.3221 20.2476 19.3221ZM21.9532 18.8692H22.458V20.5685H21.9532V18.8692ZM18.6164 18.8621H19.174V22.1015H18.6164V18.8621ZM16.6246 18.8621C16.619 20.2421 15.6854 20.7779 15.6721 20.7711L15.6766 20.7747L15.9439 21.1914C16.1761 21.0279 16.5873 20.673 16.8202 20.1402C17.1096 19.5015 17.1143 19.0955 17.1092 18.8621H16.6246ZM17.3482 18.872H17.8237C17.8237 18.872 17.7953 20.3044 18.4953 20.9425L18.1681 21.3466C18.1681 21.3466 17.7084 20.8633 17.5709 20.2934C17.5709 20.2934 17.3146 20.9875 16.8282 21.3662L16.5215 20.9773C16.5215 20.9773 16.9927 20.5822 17.17 19.9555C17.3273 19.3994 17.3486 19.1289 17.3482 18.872ZM14.9723 18.8698H15.4698V22.1266H14.9723V18.8698Z" fill="#232021"/>
<path fill-rule="evenodd" clip-rule="evenodd" d="M10.0593 22.0165C9.86679 22.3323 9.61528 22.4221 9.51051 22.4413C9.00908 22.5325 8.83139 22.3305 8.57302 22.1147C8.47248 22.0308 8.23757 21.8415 8.23614 21.8414C8.23614 21.8414 8.16285 22.0072 8.07672 22.1147C8.00599 22.2026 7.84673 22.3356 7.61469 22.4041C7.43104 22.4586 7.17893 22.4091 7.04918 22.322C6.78031 22.1412 5.83127 21.3511 5.82999 21.3495C5.76643 21.2846 5.66679 21.139 5.63758 21.0243C5.61947 20.9531 5.61871 20.7652 5.66732 20.6207C5.74801 20.3805 5.9377 20.1467 6.2588 20.0693C6.32417 20.0537 6.49159 20.0407 6.59243 20.0546C6.68369 20.0668 6.76937 20.0817 6.84764 20.1433C6.88583 20.1732 6.98774 20.2532 6.98774 20.2533C7.04254 20.0546 7.70271 17.6323 7.70225 17.6314C7.70391 17.6345 8.16858 18.0251 8.16934 18.0254C8.16934 18.0218 8.34521 17.3672 8.34302 17.3671C8.34287 17.3665 9.78572 18.4924 9.78496 18.4899C9.78451 18.4902 9.12774 20.9717 9.12698 20.9711C9.12698 20.9721 10.169 21.8095 10.1687 21.8108C10.1699 21.8108 10.1012 21.9475 10.0593 22.0165ZM10.2066 17H5.74031C5.35097 17 5.03516 17.3157 5.03516 17.7053V22.1715C5.03516 22.561 5.35097 22.8767 5.74031 22.8767H10.2066C10.5961 22.8767 10.9119 22.561 10.9119 22.1715V17.7053C10.9119 17.3157 10.5961 17 10.2066 17Z" fill="#0065A6"/>
<path fill-rule="evenodd" clip-rule="evenodd" d="M9.4278 18.6144C9.42796 18.6145 8.51379 17.897 8.51379 17.8968C8.48797 17.9954 8.45438 18.1417 8.42676 18.2386C8.42887 18.2399 9.05553 18.7487 9.05537 18.7481C9.05439 18.749 8.31784 21.5008 8.31738 21.5044C8.31753 21.505 8.62346 21.805 8.62316 21.8068C8.62377 21.7114 8.61758 21.6753 8.64188 21.5743L9.4278 18.6144Z" fill="#0065A6"/>
<path fill-rule="evenodd" clip-rule="evenodd" d="M7.85466 18.1882C7.85881 18.1854 7.22913 20.4409 7.24355 20.4641C7.24385 20.4637 7.8505 20.9844 7.85141 20.9816L7.91157 21.0348C7.87987 21.1425 7.861 21.1994 7.82092 21.3232C7.59092 21.2526 7.47664 21.3213 7.3838 21.3611C7.06413 21.4982 6.93913 22.0443 7.39912 22.1324C7.57967 22.1669 7.79835 22.0344 7.9167 21.8187C7.93837 21.7793 7.98275 21.6962 8.00034 21.6302C7.99988 21.6303 8.69998 18.8774 8.70074 18.8782C8.70134 18.878 7.8613 18.1922 7.85466 18.1882Z" fill="#0065A6"/>
<path fill-rule="evenodd" clip-rule="evenodd" d="M7.24916 20.8674C7.24992 20.8678 6.6841 20.3863 6.68244 20.3863C6.59594 20.3375 6.53314 20.3396 6.4606 20.3449C6.27484 20.358 6.13316 20.4512 6.06756 20.5324C5.98514 20.6342 5.83342 20.9383 6.01208 21.1326C6.0142 21.1348 6.78034 21.772 6.78004 21.772C6.77944 21.754 6.78978 21.6175 6.81982 21.5285C6.87251 21.3719 6.94942 21.2626 7.04438 21.1843C7.12341 21.1197 7.21822 21.0464 7.40383 21.0041L7.24916 20.8674Z" fill="#0065A6"/>
<path fill-rule="evenodd" clip-rule="evenodd" d="M8.93 21.7304C8.92721 21.7422 8.88358 21.8798 9.00254 22.0245C9.16189 22.2182 9.51688 22.1528 9.66407 22.026C9.70249 21.9925 9.78122 21.8986 9.77994 21.8924C9.78024 21.8905 9.04481 21.2885 9.04474 21.2852L8.93 21.7304Z" fill="#0065A6"/>
<circle cx="20" cy="20" r="19.5" stroke="black" stroke-opacity="0.05"/>
</svg>
