<svg width="40" height="40" viewBox="0 0 40 40" fill="none" xmlns="http://www.w3.org/2000/svg">
<circle cx="20" cy="20" r="20" fill="#004898"/>
<circle cx="20" cy="20" r="19.5" stroke="black" stroke-opacity="0.04"/>
<path fill-rule="evenodd" clip-rule="evenodd" d="M14.6816 9.77862C14.1094 10.0639 13.6809 10.5549 13.4805 11.1638L9.64764 22.6614C9.44511 23.2641 9.49249 23.9157 9.77883 24.4877C10.0667 25.0562 10.5577 25.4838 11.1616 25.6864L23.7347 29.9003C24.3454 30.1004 24.9941 30.0536 25.5663 29.7678C26.139 29.48 26.5669 28.9895 26.7674 28.3826L30.6028 16.8892C31.0219 15.6365 30.3388 14.2783 29.0841 13.86L16.5131 9.6482C15.905 9.44608 15.2558 9.49076 14.6816 9.77862Z" fill="white"/>
<path fill-rule="evenodd" clip-rule="evenodd" d="M14.9181 23.1244H15.7834V17.1517H14.9181V23.1244ZM20.8256 20.8221C20.1431 21.5848 19.2914 22.1979 18.3043 22.5783L17.7389 22.7986V17.4691L18.298 17.6853C19.2872 18.063 20.141 18.6746 20.8256 19.4321C21.3145 18.6476 21.6165 17.7367 21.6795 16.7495C21.8351 14.1952 20.2332 11.8518 18.0294 11.0355L16.2155 10.4328C15.3955 10.1606 14.5235 10.6105 14.2527 11.4268L10.4095 22.9337C10.1346 23.752 10.5943 24.6385 11.4164 24.9086L20.141 27.8158C21.0287 26.8711 21.6055 25.621 21.6909 24.2243C21.7701 22.981 21.4431 21.8067 20.8256 20.8221Z" fill="#00A4E3"/>
<path fill-rule="evenodd" clip-rule="evenodd" d="M26.6841 23.1043L25.6023 23.1069L23.3761 20.1224L25.6387 17.1342L26.7268 17.1316L24.4647 20.1276L26.6841 23.1043ZM28.8067 14.6287L20.7985 11.9575C21.8736 13.1318 22.5311 14.6921 22.5358 16.4011C22.5358 17.7546 22.1146 19.0453 21.38 20.1297C22.1172 21.2068 22.5426 22.4974 22.5472 23.851C22.5472 25.4659 21.9641 26.9503 20.9973 28.1018L24.005 29.104C24.8271 29.3789 25.6949 28.9269 25.9678 28.108L29.8141 16.6032C30.0864 15.7869 29.6272 14.8989 28.8067 14.6287Z" fill="#004898"/>
<path fill-rule="evenodd" clip-rule="evenodd" d="M20.3235 20.1296C19.8368 19.558 19.2464 19.0795 18.568 18.7308V21.5371C19.2464 21.1843 19.8388 20.7006 20.3235 20.1296Z" fill="#E7380D"/>
</svg>
