<svg width="40" height="40" viewBox="0 0 40 40" fill="none" xmlns="http://www.w3.org/2000/svg">
<circle cx="20" cy="20" r="20" fill="#ED1B3C"/>
<g clip-path="url(#clip0_18695_28984)">
<path d="M20.0352 9.5C13.4086 9.5 8.03516 14.2045 8.03516 20.0041C8.03516 20.9915 8.18777 21.9457 8.48496 22.8501C8.48496 22.8667 8.50905 22.8667 8.51708 22.8501L14.4448 16.3866C15.0392 15.7394 16.0191 15.7311 16.6295 16.3534C17.1757 16.9176 17.2319 17.822 16.7821 18.4526L15.8103 19.5229C15.6817 19.664 15.6898 19.8963 15.8263 20.029C15.9629 20.1618 16.1878 20.1535 16.3163 20.0124L16.4046 19.9129C16.4046 19.9129 16.4207 19.8963 16.4287 19.888L19.5372 16.5028C20.1235 15.8639 21.1034 15.839 21.7219 16.4447C22.3404 17.0504 22.3645 18.0626 21.7781 18.7015L21.007 19.5395C21.007 19.5395 20.999 19.5395 20.991 19.5561L20.7741 19.7967L20.4046 20.195L19.9468 20.7011C19.8344 20.8256 19.8424 21.0247 19.9629 21.1409C20.0834 21.257 20.2761 21.257 20.3886 21.1326L21.4408 19.9793C21.4408 19.9793 21.4408 19.9793 21.4408 19.971L26.0512 14.9512C26.6376 14.3123 27.6175 14.2874 28.236 14.8931C28.8544 15.4988 28.8785 16.5111 28.2922 17.1499L16.501 29.9939C16.501 29.9939 16.501 30.0271 16.5091 30.0271C17.6255 30.3258 18.8062 30.4834 20.0271 30.4834C26.6536 30.4834 32.0271 25.7789 32.0271 19.9793C32.0271 14.1796 26.6617 9.5 20.0352 9.5Z" fill="white"/>
<path d="M13.3282 23.3063C13.4567 23.1652 13.4486 22.9329 13.3121 22.8002C13.1755 22.6674 12.9506 22.6757 12.8221 22.8168L12.782 22.8582L10.0591 25.8203C10.2037 26.0111 10.3482 26.1937 10.5089 26.3679L12.2679 24.4513C12.2679 24.4513 12.3322 24.4098 12.3563 24.3766L13.3282 23.3063Z" fill="white"/>
<path d="M16.8222 25.0239L16.9828 24.8496L17.8423 23.9121L17.8824 23.8623C17.9949 23.7378 17.9869 23.5387 17.8664 23.4225C17.7459 23.3064 17.5531 23.3064 17.4407 23.4308L16.3885 24.5841C16.3885 24.5841 16.3885 24.5924 16.3804 24.6007L12.8784 28.4091C13.0471 28.5253 13.2238 28.6331 13.4085 28.7327L16.8222 25.0156C16.8222 25.0156 16.8222 25.0156 16.8302 25.0073L16.8222 25.0239Z" fill="white"/>
</g>
<circle cx="20" cy="20" r="19.5" stroke="black" stroke-opacity="0.05"/>
<defs>
<clipPath id="clip0_18695_28984">
<rect width="24" height="21" fill="white" transform="translate(8.03516 9.5)"/>
</clipPath>
</defs>
</svg>
