<svg width="40" height="40" viewBox="0 0 40 40" fill="none" xmlns="http://www.w3.org/2000/svg">
<circle cx="20" cy="20" r="20" fill="#E0C408"/>
<path d="M33.0352 19.7818C33.0352 21.7061 31.6655 23.5516 29.2275 24.9122C26.7896 26.2729 23.483 27.0373 20.0352 27.0373C16.5873 27.0373 13.2807 26.2729 10.8428 24.9122C8.4048 23.5516 7.03516 21.7061 7.03516 19.7818C7.03516 17.8576 8.4048 16.0121 10.8428 14.6514C13.2807 13.2908 16.5873 12.5264 20.0352 12.5264C23.483 12.5264 26.7896 13.2908 29.2275 14.6514C31.6655 16.0121 33.0352 17.8576 33.0352 19.7818ZM19.2725 25.9725L19.2495 13.6143C19.2495 13.5959 19.2422 13.5784 19.2292 13.5654C19.2163 13.5525 19.1987 13.5452 19.1804 13.5452H19.1343C16.201 13.5504 13.3889 14.2094 11.3164 15.3773C9.24399 16.5452 8.08084 18.1264 8.08275 19.7732V19.848C8.0837 20.6639 8.37093 21.4712 8.92805 22.224C9.48516 22.9769 10.3012 23.6604 11.3297 24.2355C12.3581 24.8107 13.5787 25.2662 14.9218 25.5761C16.2649 25.886 17.7042 26.0441 19.1574 26.0415H19.2034C19.2125 26.0415 19.2215 26.0397 19.2298 26.0363C19.2382 26.0328 19.2458 26.0277 19.2523 26.0213C19.2587 26.0149 19.2638 26.0073 19.2672 25.9989C19.2707 25.9905 19.2725 25.9815 19.2725 25.9725ZM20.8237 13.6258V25.9609C20.8237 25.98 20.8313 25.9983 20.8448 26.0118C20.8583 26.0253 20.8766 26.0329 20.8957 26.0329H20.9475C22.3999 26.0329 23.8382 25.8725 25.18 25.5608C26.5219 25.2491 27.7412 24.7923 28.7682 24.2163C29.7953 23.6404 30.61 22.9567 31.1658 22.2042C31.7216 21.4517 32.0077 20.6452 32.0077 19.8308V19.7559C32.0077 18.9415 31.7216 18.135 31.1658 17.3825C30.61 16.63 29.7953 15.9463 28.7682 15.3704C27.7412 14.7945 26.5219 14.3376 25.18 14.0259C23.8382 13.7142 22.3999 13.5538 20.9475 13.5538H20.8957C20.8766 13.5538 20.8583 13.5614 20.8448 13.5749C20.8313 13.5884 20.8237 13.6067 20.8237 13.6258Z" fill="white"/>
<path d="M19.2718 25.9724C19.2718 25.9815 19.27 25.9905 19.2665 25.9989C19.263 26.0073 19.2579 26.0149 19.2515 26.0213C19.2451 26.0277 19.2375 26.0328 19.2291 26.0363C19.2207 26.0397 19.2118 26.0415 19.2027 26.0415H19.1566C17.7035 26.0441 16.2642 25.8859 14.9211 25.5761C13.578 25.2662 12.3574 24.8106 11.329 24.2355C10.3005 23.6603 9.48444 22.9768 8.92733 22.224C8.37021 21.4712 8.08298 20.6638 8.08203 19.848V19.7732C8.08012 18.1264 9.24327 16.5452 11.3157 15.3773C13.3882 14.2094 16.2002 13.5504 19.1336 13.5452H19.1797C19.198 13.5452 19.2156 13.5524 19.2285 13.5654C19.2415 13.5783 19.2487 13.5959 19.2487 13.6142L19.2718 25.9724Z" fill="#E0C408"/>
<path d="M20.8242 13.6255C20.8242 13.6065 20.8318 13.5882 20.8453 13.5747C20.8588 13.5612 20.8771 13.5536 20.8962 13.5536H20.948C22.4004 13.5536 23.8387 13.714 25.1805 14.0257C26.5224 14.3374 27.7417 14.7942 28.7687 15.3701C29.7958 15.9461 30.6105 16.6298 31.1663 17.3823C31.7221 18.1347 32.0082 18.9412 32.0082 19.7557V19.8305C32.0082 20.645 31.7221 21.4515 31.1663 22.204C30.6105 22.9565 29.7958 23.6402 28.7687 24.2161C27.7417 24.792 26.5224 25.2489 25.1805 25.5606C23.8387 25.8722 22.4004 26.0327 20.948 26.0327H20.8962C20.8771 26.0327 20.8588 26.0251 20.8453 26.0116C20.8318 25.9981 20.8242 25.9798 20.8242 25.9607V13.6255Z" fill="#E0C408"/>
<circle cx="20" cy="20" r="19.5" stroke="black" stroke-opacity="0.05"/>
</svg>
