<svg width="40" height="40" viewBox="0 0 40 40" fill="none" xmlns="http://www.w3.org/2000/svg">
<circle cx="20" cy="20" r="20" fill="#C1CD00"/>
<path d="M11.4429 18.2645C11.4429 18.3389 11.4646 18.3458 11.508 18.2852C12.4463 16.946 13.7352 15.662 15.2808 15.185C15.4556 15.1317 15.4655 15.1524 15.3085 15.2462C14.0181 16.0287 12.9075 17.0747 12.0493 18.3158C10.3446 20.7592 9.4271 23.8268 9.07451 26.8095C9.07443 26.8179 9.07257 26.8263 9.06906 26.8339C9.06555 26.8416 9.06046 26.8485 9.05413 26.8541C9.04779 26.8597 9.04036 26.8639 9.0323 26.8664C9.02424 26.8689 9.01574 26.8697 9.00735 26.8687H7.04986C7.03676 26.8687 7.0242 26.8635 7.01494 26.8543C7.00568 26.845 7.00047 26.8325 7.00047 26.8194V26.371C6.99947 26.3643 7.00006 26.3574 7.00219 26.351C7.00432 26.3445 7.00793 26.3387 7.01273 26.3339C7.01753 26.3291 7.02339 26.3254 7.02984 26.3233C7.03628 26.3212 7.04314 26.3206 7.04986 26.3216H8.65476C8.66148 26.3226 8.66834 26.322 8.67478 26.3199C8.68123 26.3178 8.68709 26.3141 8.69189 26.3093C8.69669 26.3045 8.7003 26.2987 8.70243 26.2922C8.70456 26.2858 8.70515 26.2789 8.70415 26.2722V13.8033C8.70515 13.7966 8.70456 13.7897 8.70243 13.7833C8.7003 13.7768 8.69669 13.771 8.69189 13.7662C8.68709 13.7614 8.68123 13.7578 8.67478 13.7556C8.66834 13.7535 8.66148 13.7529 8.65476 13.7539H7.02516C7.02181 13.7544 7.01838 13.7541 7.01515 13.7531C7.01193 13.752 7.009 13.7502 7.0066 13.7478C7.0042 13.7454 7.0024 13.7425 7.00133 13.7392C7.00027 13.736 6.99997 13.7326 7.00047 13.7292V13.2354C6.99979 13.2321 6.99991 13.2287 7.00084 13.2255C7.00178 13.2222 7.00348 13.2193 7.00582 13.2168C7.00815 13.2144 7.01104 13.2126 7.01424 13.2115C7.01744 13.2104 7.02085 13.2102 7.02418 13.2107C9.28191 13.2107 11.5373 13.2124 13.7905 13.2157C14.3771 13.2157 14.9733 13.242 15.5791 13.2947C16.0008 13.3266 16.4176 13.4061 16.8215 13.5317C18.2171 13.9811 19.1099 15.1821 19.2116 16.6467C19.2771 17.4944 19.0235 18.3359 18.5005 19.0062C17.7015 20.0304 16.462 20.3889 15.1959 20.4323C14.0726 20.4725 12.9243 20.4814 11.751 20.459C11.743 20.4577 11.7348 20.4582 11.7271 20.4607C11.7193 20.4631 11.7123 20.4673 11.7065 20.473C11.7007 20.4787 11.6964 20.4857 11.6938 20.4934C11.6913 20.5011 11.6905 20.5092 11.6917 20.5173V26.2722C11.6907 26.2789 11.6913 26.2858 11.6935 26.2922C11.6956 26.2987 11.6992 26.3045 11.704 26.3093C11.7088 26.3141 11.7147 26.3178 11.7211 26.3199C11.7276 26.322 11.7344 26.3226 11.7411 26.3216H13.3213C13.3371 26.3216 13.345 26.3295 13.345 26.3463V26.8401C13.3455 26.8435 13.3453 26.8469 13.3442 26.8501C13.3431 26.8533 13.3413 26.8563 13.3389 26.8587C13.3365 26.8611 13.3336 26.8629 13.3304 26.8639C13.3271 26.865 13.3237 26.8653 13.3204 26.8648H9.66116C9.65264 26.8663 9.64389 26.8656 9.63571 26.8628C9.62754 26.8599 9.6202 26.8551 9.61439 26.8487C9.60858 26.8423 9.60448 26.8345 9.60247 26.8261C9.60046 26.8177 9.60061 26.8089 9.60289 26.8006C9.82511 24.4046 10.3802 22.0382 11.3915 19.8773C11.462 19.7291 11.54 19.5836 11.6256 19.4407C11.6283 19.4345 11.6325 19.4289 11.6377 19.4244C11.643 19.42 11.6492 19.4168 11.6558 19.4151C11.6625 19.4134 11.6694 19.4132 11.6762 19.4145C11.6829 19.4159 11.6892 19.4188 11.6947 19.423C11.9714 19.589 12.2801 19.6944 12.6005 19.7322C12.921 19.77 13.2457 19.7393 13.5534 19.6422C14.5263 19.3588 15.2828 18.4699 15.6936 17.5623C16.1983 16.4502 16.4996 15.3588 17.4131 14.5292C17.4329 14.5114 17.4299 14.5006 17.4042 14.4956C16.5407 14.3328 15.6541 14.3365 14.7919 14.5065C12.9559 14.867 11.4201 16.3168 11.4429 18.2645Z" fill="white"/>
<path d="M21.6741 26.3218H23.3126C23.3169 26.3218 23.3211 26.3226 23.3251 26.3243C23.329 26.3259 23.3326 26.3283 23.3357 26.3313C23.3387 26.3344 23.3411 26.338 23.3427 26.3419C23.3444 26.3459 23.3452 26.3501 23.3452 26.3544V26.8077C23.3452 26.812 23.3444 26.8162 23.3427 26.8202C23.3411 26.8241 23.3387 26.8277 23.3357 26.8308C23.3326 26.8338 23.329 26.8362 23.3251 26.8378C23.3211 26.8395 23.3169 26.8403 23.3126 26.8403H19.3285C19.3198 26.8403 19.3116 26.8369 19.3054 26.8308C19.2993 26.8247 19.2959 26.8164 19.2959 26.8077V26.3544C19.2959 26.3458 19.2993 26.3375 19.3054 26.3313C19.3116 26.3252 19.3198 26.3218 19.3285 26.3218H20.966C20.9746 26.3218 20.9829 26.3184 20.989 26.3123C20.9951 26.3061 20.9986 26.2979 20.9986 26.2892V13.7571C20.9986 13.7485 20.9951 13.7402 20.989 13.7341C20.9829 13.7279 20.9746 13.7245 20.966 13.7245L19.3295 13.7611C19.3252 13.7612 19.3209 13.7605 19.3169 13.759C19.3129 13.7574 19.3093 13.7551 19.3061 13.7522C19.303 13.7493 19.3005 13.7458 19.2988 13.7418C19.297 13.7379 19.296 13.7337 19.2959 13.7294V13.2435C19.2959 13.2392 19.2967 13.235 19.2984 13.2311C19.3 13.2271 19.3024 13.2235 19.3054 13.2205C19.3116 13.2144 19.3198 13.2109 19.3285 13.2109H23.8815C23.8865 13.211 23.8914 13.2122 23.8958 13.2144C23.9003 13.2166 23.9042 13.2198 23.9072 13.2238L30.5708 21.7787C30.576 21.7854 30.5837 21.7899 30.5923 21.791C30.6008 21.7921 30.6094 21.7898 30.6162 21.7846C30.62 21.7815 30.6232 21.7776 30.6254 21.7732C30.6276 21.7687 30.6288 21.7639 30.629 21.7589V13.7591C30.629 13.7504 30.6256 13.7421 30.6195 13.736C30.6134 13.7299 30.6051 13.7265 30.5964 13.7265L28.9846 13.763C28.9801 13.7633 28.9755 13.7626 28.9713 13.7611C28.967 13.7595 28.9632 13.757 28.9599 13.7539C28.9567 13.7507 28.9541 13.7469 28.9524 13.7427C28.9507 13.7385 28.9499 13.734 28.95 13.7294V13.2435C28.95 13.2392 28.9509 13.235 28.9525 13.2311C28.9542 13.2271 28.9566 13.2235 28.9596 13.2205C28.9657 13.2144 28.974 13.2109 28.9826 13.2109H32.9668C32.971 13.2109 32.9753 13.2118 32.9792 13.2134C32.9832 13.2151 32.9868 13.2175 32.9898 13.2205C32.9928 13.2235 32.9952 13.2271 32.9969 13.2311C32.9985 13.235 32.9993 13.2392 32.9993 13.2435V13.7294C32.9993 13.7381 32.9959 13.7464 32.9898 13.7525C32.9837 13.7586 32.9754 13.762 32.9668 13.762L31.3293 13.7294C31.325 13.7293 31.3207 13.73 31.3167 13.7315C31.3127 13.7331 31.309 13.7354 31.3059 13.7383C31.3028 13.7412 31.3003 13.7447 31.2985 13.7487C31.2968 13.7526 31.2958 13.7568 31.2957 13.7611V26.8324C31.2957 26.8367 31.2948 26.8409 31.2932 26.8449C31.2916 26.8488 31.2892 26.8524 31.2861 26.8555C31.2831 26.8585 31.2795 26.8609 31.2756 26.8625C31.2716 26.8642 31.2674 26.865 31.2631 26.865H30.8028C30.7979 26.865 30.793 26.8638 30.7885 26.8616C30.7841 26.8593 30.7802 26.8561 30.7772 26.8522L21.6998 15.0005C21.6945 14.9938 21.6868 14.9894 21.6783 14.9882C21.6698 14.9871 21.6612 14.9894 21.6544 14.9946C21.6505 14.9977 21.6474 15.0016 21.6452 15.0061C21.6429 15.0105 21.6417 15.0153 21.6415 15.0203V26.2892C21.6415 26.2935 21.6424 26.2977 21.644 26.3017C21.6457 26.3056 21.6481 26.3092 21.6511 26.3123C21.6541 26.3153 21.6577 26.3177 21.6617 26.3193C21.6656 26.321 21.6698 26.3218 21.6741 26.3218Z" fill="white"/>
<circle cx="20" cy="20" r="19.5" stroke="black" stroke-opacity="0.05"/>
</svg>
