<svg width="40" height="40" viewBox="0 0 40 40" fill="none" xmlns="http://www.w3.org/2000/svg">
<circle cx="20" cy="20" r="20" fill="#CBE9FF"/>
<path d="M6.21641 18.7496C5.96436 19.1504 5.74737 19.619 5.65657 20.0781C5.59003 20.414 5.57578 20.7236 5.66126 21.0469C5.78807 21.5263 6.17508 21.8674 6.64365 22.0013C6.97367 22.0954 7.3123 22.1101 7.64404 22.0785C8.27481 22.0182 8.90557 21.804 9.47371 21.5169C10.0107 21.2455 10.5061 20.917 10.9599 20.5312C11.0383 20.4646 11.1165 20.3962 11.1946 20.3258C11.5859 19.9734 11.9309 19.5809 12.2297 19.1485C12.3679 18.9486 12.4906 18.7416 12.5979 18.5275C12.5985 18.5263 12.5994 18.5252 12.6005 18.5244C12.6016 18.5235 12.6028 18.523 12.6041 18.5227C12.6054 18.5224 12.6068 18.5224 12.6081 18.5227C12.6094 18.523 12.6107 18.5236 12.6117 18.5245C13.3303 19.094 13.5576 20.1641 13.2522 20.9941C13.0842 21.4507 12.7542 21.8799 12.3927 22.2161C11.6985 22.8616 10.896 23.3341 9.98518 23.6335C9.64723 23.7447 9.28172 23.8232 8.88866 23.8691C8.80517 23.8788 8.72036 23.8854 8.63426 23.8887C8.51481 23.8934 8.40068 23.9003 8.28044 23.8972C8.16292 23.8939 8.05349 23.8886 7.95214 23.8812C7.85132 23.8738 7.73568 23.8588 7.60522 23.8361C7.16289 23.7593 6.75778 23.6093 6.38987 23.3862C5.97578 23.135 5.6334 22.7729 5.39825 22.3548C4.89508 21.4604 4.9231 20.4049 5.27942 19.4522C5.44428 19.012 5.68318 18.6032 5.96483 18.2233C6.33539 17.7235 6.80349 17.2842 7.31575 16.9248C7.8089 16.5787 8.34802 16.2895 8.93312 16.0573C9.19353 15.954 9.47538 15.8647 9.77868 15.7895C10.0306 15.7269 10.285 15.6866 10.5417 15.6686C10.5723 15.6664 10.6033 15.6673 10.6346 15.6713C10.6466 15.6728 10.6559 15.6781 10.6626 15.6871C10.664 15.6889 10.665 15.6911 10.6654 15.6933C10.6659 15.6956 10.6659 15.698 10.6654 15.7002C10.6648 15.7025 10.6638 15.7047 10.6624 15.7065C10.661 15.7084 10.6592 15.7099 10.6571 15.711C10.6274 15.7267 10.5949 15.7379 10.5596 15.7448C10.2862 15.7981 10.0211 15.8701 9.76412 15.9609C8.97205 16.2407 8.25518 16.6464 7.61351 17.1779C7.53492 17.243 7.4556 17.3109 7.37555 17.3818C6.92603 17.7794 6.53965 18.2354 6.21641 18.7496Z" fill="#297BBC"/>
<path d="M13.5571 17.0968C13.2258 16.947 12.8495 16.8823 12.4859 16.8817C11.9305 16.8806 11.3647 17.0168 10.8513 17.2374C10.555 17.3648 10.2458 17.5265 9.96679 17.7114C9.27241 18.1716 8.68643 18.7452 8.20883 19.4321C7.92755 19.8368 7.70404 20.2684 7.5383 20.727C7.53781 20.7284 7.53696 20.7295 7.53584 20.7304C7.53472 20.7313 7.53338 20.7318 7.53197 20.732C7.53056 20.7322 7.52913 20.7319 7.52784 20.7313C7.52655 20.7307 7.52546 20.7298 7.52468 20.7286C7.38221 20.5091 7.29965 20.2613 7.27701 19.9853C7.21094 19.1821 7.74824 18.384 8.32718 17.8578C8.80155 17.4267 9.34276 17.0775 9.94127 16.812C10.1863 16.7034 10.4543 16.5985 10.7153 16.5213C11.0673 16.4172 11.4178 16.3444 11.7667 16.3028C11.8367 16.2944 11.9038 16.289 11.9677 16.2865C12.1074 16.281 12.2506 16.2719 12.3884 16.2783C12.4889 16.283 12.59 16.2833 12.6857 16.2934C12.9848 16.3248 13.2567 16.3837 13.5012 16.4703C13.728 16.5506 13.984 16.6782 14.1904 16.8293C14.7588 17.2456 15.1163 17.801 15.2631 18.4955C15.283 18.5896 15.2985 18.6921 15.3096 18.8028C15.3503 19.2112 15.3255 19.6148 15.2352 20.0138C15.0473 20.8444 14.6461 21.6108 14.1016 22.2697C13.1331 23.4419 11.7221 24.33 10.1914 24.4922C10.1288 24.4989 10.0271 24.5061 9.98088 24.4759C9.9779 24.474 9.97542 24.4713 9.97365 24.4683C9.97189 24.4652 9.97089 24.4617 9.97074 24.4581C9.97058 24.4546 9.97128 24.451 9.97277 24.4478C9.97427 24.4445 9.97651 24.4416 9.97931 24.4394C9.99925 24.4238 10.0231 24.4133 10.0509 24.408C10.1603 24.3868 10.2741 24.3727 10.3835 24.3497C11.3168 24.1542 12.1553 23.6853 12.8794 23.0494C13.156 22.8064 13.412 22.5312 13.651 22.2425C14.0364 21.7769 14.3402 21.2533 14.5625 20.6716C14.6532 20.4342 14.7245 20.1815 14.7763 19.9136C14.8574 19.4947 14.8593 19.0792 14.7818 18.6671C14.7487 18.4912 14.6937 18.3191 14.6168 18.1507C14.396 17.6678 14.0427 17.3165 13.5571 17.0968Z" fill="#53AE62"/>
<path d="M18.1943 16.7274C18.2468 16.6009 18.3406 16.5377 18.4757 16.5378C18.8246 16.538 19.1675 16.538 19.5045 16.5379C19.5072 16.5379 19.5098 16.539 19.5117 16.5409C19.5136 16.5428 19.5146 16.5453 19.5146 16.548V22.8996C19.5146 22.9054 19.5117 22.9083 19.5059 22.9083C19.1368 22.9088 18.7843 22.9086 18.4482 22.9079C18.3305 22.9076 18.2296 22.8222 18.1907 22.7091C18.1806 22.6799 18.1757 22.6413 18.1758 22.5932C18.1767 20.6386 18.1768 18.7122 18.1761 16.8141C18.1761 16.7855 18.1821 16.7566 18.1943 16.7274Z" fill="#7F7E82"/>
<path d="M20.9689 19.5142C20.9681 19.5152 20.9676 19.5165 20.9676 19.5177C20.9675 19.5189 20.9679 19.5201 20.9686 19.5209L23.6538 22.9018C23.6542 22.9023 23.6544 22.9029 23.6545 22.9035C23.6546 22.9041 23.6544 22.9047 23.6542 22.9053C23.6539 22.9059 23.6535 22.9064 23.6529 22.9067C23.6524 22.907 23.6518 22.9072 23.6512 22.9072C23.2216 22.9081 22.7965 22.9079 22.3759 22.9068C22.1725 22.9062 21.9563 22.7241 21.8181 22.5708C21.7552 22.5011 21.6892 22.4188 21.62 22.3241C21.0167 21.4971 20.4221 20.6799 19.8362 19.8724C19.7237 19.7174 19.6739 19.5559 19.7389 19.3735C19.7573 19.3217 19.7996 19.2506 19.8657 19.1602C20.3999 18.4295 20.9228 17.7143 21.4342 17.0145C21.5123 16.9076 21.6047 16.8113 21.7054 16.7235C21.8254 16.6186 21.9676 16.5389 22.1277 16.5382C22.5163 16.5368 22.9056 16.5367 23.2956 16.5381C23.2964 16.5381 23.2971 16.5383 23.2978 16.5387C23.2984 16.5391 23.2989 16.5397 23.2993 16.5404C23.2996 16.5411 23.2997 16.5419 23.2996 16.5427C23.2995 16.5434 23.2993 16.5442 23.2988 16.5448L20.9689 19.5142Z" fill="#7F7E82"/>
<path d="M25.5496 17.3826V22.8997C25.5496 22.9056 25.5466 22.9085 25.5408 22.9085C25.2149 22.9087 24.8856 22.9086 24.5528 22.9082C24.3984 22.9079 24.2746 22.7718 24.2746 22.6176C24.2747 20.6914 24.2746 18.7634 24.2744 16.8337C24.2744 16.666 24.4001 16.5383 24.5708 16.5381C25.4651 16.5371 26.3571 16.5371 27.2466 16.5383C27.4285 16.5386 27.6067 16.5606 27.7811 16.6045C28.1354 16.6934 28.4435 16.8986 28.6423 17.1991C28.7396 17.346 28.8106 17.492 28.8554 17.6371C28.9759 18.0284 29.0011 18.4515 28.8781 18.8504C28.7015 19.4219 28.3112 19.835 27.7559 20.037C27.5554 20.1099 27.3545 20.1579 27.1532 20.181C26.9007 20.2099 26.6692 20.216 26.4587 20.1993C26.3652 20.192 26.2863 20.1554 26.2221 20.0894C26.1856 20.0519 26.1503 19.9939 26.1161 19.9152C26.0318 19.7209 25.9453 19.528 25.8567 19.3364C25.8561 19.335 25.8558 19.3335 25.856 19.3321C25.8561 19.3306 25.8567 19.3292 25.8575 19.328C25.8584 19.3268 25.8596 19.3258 25.861 19.3252C25.8624 19.3246 25.8639 19.3244 25.8653 19.3246C26.0666 19.3528 26.2623 19.3687 26.4526 19.3722C26.6393 19.3758 26.8491 19.3494 27.0282 19.2861C27.3672 19.1664 27.59 18.9138 27.6674 18.5586C27.7254 18.2936 27.7301 17.9944 27.6116 17.752C27.5674 17.6619 27.4947 17.5837 27.3935 17.5177C27.2328 17.4129 27.0109 17.3763 26.8183 17.3743C26.423 17.37 26.0033 17.3696 25.559 17.373C25.5527 17.373 25.5496 17.3762 25.5496 17.3826Z" fill="#7F7E82"/>
<path d="M31.7702 20.4711C31.3688 21.1521 30.9778 21.8109 30.5971 22.4476C30.4836 22.6375 30.3094 22.8116 30.0949 22.885C30.0464 22.9016 29.98 22.9082 29.929 22.9083C29.5735 22.9086 29.2206 22.9086 28.8703 22.9083C28.8698 22.9083 28.8692 22.9081 28.8687 22.9078C28.8682 22.9075 28.8678 22.9071 28.8676 22.9066C28.8673 22.9061 28.8672 22.9055 28.8672 22.9049C28.8672 22.9043 28.8674 22.9038 28.8677 22.9033L31.1061 19.5655C31.1087 19.5616 31.1088 19.5576 31.1063 19.5536L29.1883 16.5462C29.1846 16.5404 29.1863 16.5374 29.1932 16.5374C29.5415 16.537 29.9037 16.5371 30.2795 16.5376C30.443 16.5378 30.588 16.5917 30.7143 16.6992C30.823 16.7916 30.9108 16.8954 30.9777 17.0105C31.3102 17.5823 31.6374 18.1454 31.9595 18.6999C31.9599 18.7007 31.9605 18.7013 31.9613 18.7018C31.962 18.7022 31.9629 18.7024 31.9638 18.7025C31.9646 18.7025 31.9655 18.7023 31.9662 18.7019C31.967 18.7014 31.9676 18.7008 31.9681 18.7001C32.301 18.1314 32.634 17.5627 32.9671 16.9939C33.0751 16.8095 33.2672 16.6226 33.4786 16.5584C33.5015 16.5514 33.5399 16.5457 33.5936 16.5413C33.6318 16.5383 33.6701 16.5368 33.7085 16.5368C34.0168 16.5373 34.3273 16.5375 34.6399 16.5373C34.6406 16.5373 34.6413 16.5375 34.6419 16.5379C34.6425 16.5383 34.643 16.5388 34.6434 16.5395C34.6437 16.5401 34.6439 16.5408 34.6438 16.5416C34.6438 16.5423 34.6436 16.5431 34.6432 16.5437L32.6397 19.6314C32.6396 19.6317 32.6395 19.6319 32.6395 19.6322C32.6395 19.6325 32.6396 19.6328 32.6397 19.633C33.3243 20.726 34.0113 21.8156 34.7008 22.9019C34.7012 22.9025 34.7015 22.9033 34.7015 22.9041C34.7015 22.9048 34.7014 22.9056 34.701 22.9063C34.7006 22.9069 34.7001 22.9075 34.6994 22.9079C34.6987 22.9083 34.698 22.9085 34.6972 22.9085C34.3373 22.9085 33.9759 22.9085 33.6129 22.9086C33.5871 22.9086 33.5615 22.9072 33.536 22.9044C33.5042 22.9011 33.4718 22.9003 33.4407 22.8906C33.2669 22.8366 33.1233 22.7178 33.009 22.5739C32.9738 22.5295 32.9239 22.4518 32.8595 22.3406C32.5027 21.7258 32.1435 21.1026 31.7818 20.4712C31.7779 20.4644 31.7741 20.4644 31.7702 20.4711Z" fill="#7F7E82"/>
<circle cx="20" cy="20" r="19.5" stroke="black" stroke-opacity="0.05"/>
</svg>
