<svg width="40" height="40" viewBox="0 0 40 40" fill="none" xmlns="http://www.w3.org/2000/svg">
<circle cx="20" cy="20" r="20" fill="#F6F8FA"/>
<path d="M17.7402 24.637C17.7565 24.4337 17.7636 24.2233 17.7613 24.0059C17.7546 23.3069 17.7528 22.4654 17.7558 21.4814C17.7558 21.4383 17.7777 21.4168 17.8214 21.4168L22.16 21.4146C22.1748 21.4146 22.189 21.4205 22.1994 21.4309C22.2098 21.4413 22.2157 21.4555 22.2157 21.4702L22.2135 24.3843C22.2135 24.4361 22.2031 24.4873 22.1831 24.5349C22.163 24.5825 22.1336 24.6256 22.0966 24.6615C20.5369 26.1813 19.0691 27.6265 17.6934 28.9971C17.5699 29.1206 17.3985 29.1017 17.2271 29.0906C14.791 28.9303 12.8028 28.0079 11.2623 26.3234C6.61205 21.2398 9.43583 13.1798 16.183 12C16.1924 11.9983 16.2021 11.9988 16.2113 12.0014C16.2205 12.0039 16.229 12.0085 16.2364 12.0147C16.2437 12.021 16.2496 12.0288 16.2536 12.0376C16.2577 12.0464 16.2598 12.0559 16.2598 12.0656V16.4379C16.2598 16.4787 16.242 16.5088 16.2064 16.5281C16.055 16.6093 15.887 16.6572 15.7356 16.7351C12.9185 18.1777 12.5701 21.9121 15.0789 23.8434C15.8039 24.4014 16.6676 24.6871 17.6701 24.7005C17.7131 24.7012 17.7365 24.6801 17.7402 24.637Z" fill="#013560"/>
<path d="M22.2182 16.4603L22.216 19.5492C22.216 19.6234 22.1793 19.6605 22.1058 19.6605L17.844 19.6616C17.8223 19.6616 17.8016 19.6531 17.7861 19.6379C17.7707 19.6227 17.7619 19.602 17.7616 19.5804C17.7349 18.3597 17.7338 17.0837 17.7583 15.7524C17.7593 15.6999 17.7722 15.6483 17.7959 15.6013C17.8196 15.5543 17.8535 15.5131 17.8952 15.4808C19.2375 14.4486 20.6674 13.3384 22.1848 12.1504C22.3377 12.0302 22.5032 11.9756 22.6812 11.9868C25.5009 12.1641 27.7225 13.3455 29.3461 15.5309C31.7937 18.8235 31.4965 23.5319 28.6415 26.5128C27.3289 27.8834 25.7195 28.7394 23.8132 29.0807C23.8038 29.0823 23.7941 29.0819 23.7849 29.0795C23.7756 29.077 23.7671 29.0726 23.7597 29.0666C23.7524 29.0605 23.7465 29.053 23.7425 29.0445C23.7385 29.036 23.7364 29.0267 23.7364 29.0173L23.7442 24.6717C23.7445 24.6424 23.7534 24.6138 23.7698 24.5896C23.7863 24.5654 23.8095 24.5467 23.8366 24.5359C25.2153 23.9734 26.0897 22.9957 26.46 21.6029C26.7416 20.541 26.5424 19.3043 25.9402 18.3693C25.1195 17.0952 23.9048 16.4332 22.2961 16.3835C22.2442 16.382 22.2182 16.4076 22.2182 16.4603Z" fill="#01AAE0"/>
<circle cx="20" cy="20" r="19.5" stroke="black" stroke-opacity="0.05"/>
</svg>
