<svg width="40" height="40" viewBox="0 0 40 40" fill="none" xmlns="http://www.w3.org/2000/svg">
<circle cx="20" cy="20" r="20" fill="#F6F8FA"/>
<path d="M30.0357 11.1575H11.2021V30H30.0357V11.1575Z" fill="black"/>
<path d="M28.8687 10H10.0352V28.8425H28.8687V10Z" fill="#EF3E42"/>
<path d="M15.7903 19.0417V19.0511C15.7903 19.1546 15.8429 19.2393 15.8693 19.275L15.8824 19.2901L18.1438 21.6485C18.1438 21.6485 18.2585 21.7652 18.2472 21.9233V25.4787C18.2472 25.6011 18.33 25.7008 18.4278 25.7008H19.0449C19.1446 25.7008 19.2255 25.6011 19.2255 25.4787V22.0419C19.2349 21.8837 19.1201 21.7671 19.1201 21.7671L16.4995 19.0379C16.4995 19.0379 16.3829 18.925 16.3904 18.765V13.3537C16.3904 13.2313 16.3095 13.1316 16.2098 13.1316H13.9052C13.8055 13.1316 13.7246 13.2313 13.7246 13.3537V15.6349C13.7246 15.7572 13.8055 15.857 13.9052 15.857H14.2175V23.4064H13.9052C13.8055 23.4064 13.7246 23.5062 13.7246 23.6285V25.4975C13.7246 25.6199 13.8055 25.7196 13.9052 25.7196H15.5495C15.6492 25.7196 15.7301 25.6199 15.7301 25.4975V23.6285C15.7301 23.5062 15.6492 23.4064 15.5495 23.4064H15.1092V15.8589H15.7865V19.0417" fill="white"/>
<path d="M17.8367 19.302C17.8367 19.302 17.7201 19.1891 17.7276 19.0291V13.3845C17.7276 13.2621 17.6467 13.1624 17.547 13.1624H17.0259C16.9262 13.1624 16.8716 13.2621 16.8716 13.3845V18.7393C16.8622 18.8974 16.9789 19.0122 16.9789 19.0122L19.592 21.7263C19.592 21.7263 19.7067 21.843 19.6954 22.0011V25.4794C19.6973 25.6017 19.7801 25.7015 19.8779 25.7015H20.1996C20.2993 25.7015 20.3802 25.6017 20.3802 25.4794V22.1272C20.3934 21.9691 20.2786 21.8524 20.2786 21.8524L17.8349 19.3039L17.8367 19.302Z" fill="white"/>
<path d="M21.5731 17.4926L19.8461 20.2594L18.9281 19.3014C18.9281 19.3014 18.8114 19.1885 18.8189 19.0285V13.3537C18.8189 13.2313 18.738 13.1316 18.6383 13.1316H18.3919C18.2922 13.1316 18.2113 13.2313 18.2113 13.3537V19.0247C18.2038 19.1828 18.3204 19.2976 18.3204 19.2976L20.7529 21.8367C20.7529 21.8367 20.8677 21.9534 20.8564 22.1115V25.4768C20.8583 25.5992 20.9392 25.6989 21.0389 25.6989H21.2759C21.3756 25.6989 21.4603 25.5992 21.4603 25.4768V21.5882L22.8825 19.3108C22.9822 19.196 22.9615 19.0247 22.9615 19.0247V14.6957H23.9059V23.4046H23.4657C23.366 23.4046 23.2851 23.5043 23.2851 23.6267V25.4957C23.2851 25.618 23.366 25.7178 23.4657 25.7178H25.11C25.2097 25.7178 25.2906 25.618 25.2906 25.4957V23.6267C25.2906 23.5043 25.2097 23.4046 25.11 23.4046H24.8014V18.6709H25.1118C25.2116 18.6709 25.2925 18.5711 25.2925 18.4488V13.3537C25.2925 13.2313 25.2116 13.1316 25.1118 13.1316H21.8309C21.7312 13.1316 21.6503 13.2313 21.6503 13.3537V17.2197C21.6503 17.2197 21.6653 17.3383 21.575 17.4926H21.5731Z" fill="white"/>
<circle cx="20" cy="20" r="19.5" stroke="black" stroke-opacity="0.05"/>
</svg>
