<svg width="40" height="40" viewBox="0 0 40 40" fill="none" xmlns="http://www.w3.org/2000/svg">
<circle cx="20" cy="20" r="20" fill="#F6F8FA"/>
<g clip-path="url(#clip0_17713_28060)">
<path d="M32.9372 24.7397C28.952 25.1319 25.0332 24.6036 21.3136 23.2747C18.5156 22.298 15.5848 21.8017 12.5627 21.8337C11.0682 21.8497 9.59037 21.9938 8.13742 22.266C6.84221 22.5062 6.84221 22.7624 8.13742 22.6503C8.78502 22.5942 9.44092 22.5622 10.0968 22.5542C13.119 22.5222 16.0498 23.0185 18.8478 23.9872C23.3311 25.5962 28.0968 26.0285 32.9372 25.0999C34.0581 24.8838 34.2075 24.6116 32.9372 24.7317V24.7397Z" fill="#13B5EA"/>
<path d="M27.8897 25.7484C24.8261 25.7484 21.779 25.2121 18.7901 24.1474H18.7652C15.9506 23.1627 13.0364 22.6824 10.0973 22.7224C9.458 22.7224 8.80209 22.7624 8.15449 22.8185C7.13327 22.9065 7.02534 22.7705 7.00873 22.6264C6.98383 22.4743 7.05025 22.3141 8.11298 22.122C9.58254 21.8498 11.077 21.7057 12.5632 21.6897C15.5521 21.6577 18.5078 22.138 21.3722 23.1387L21.4303 23.1627C25.1831 24.4916 29.0521 24.9799 32.9294 24.5957C33.7929 24.5076 33.9838 24.5957 34.0087 24.7718C34.0253 24.8759 34.0502 25.068 32.9792 25.2681C31.2855 25.5963 29.5835 25.7564 27.898 25.7564L27.8897 25.7484ZM18.9312 23.8592C23.4977 25.4843 28.1969 25.8525 32.9045 24.9559C33.0456 24.9319 33.1619 24.8999 33.2532 24.8759C33.1702 24.8759 33.0622 24.8919 32.946 24.8999C29.0023 25.2841 25.0669 24.7878 21.2477 23.4269L21.1895 23.4029C18.3833 22.4342 15.4774 21.9619 12.5466 21.9939C11.077 22.0099 9.59914 22.154 8.15449 22.4262C7.96353 22.4582 7.81409 22.4903 7.69785 22.5223C7.80578 22.5223 7.93862 22.5143 8.10468 22.4983C8.76888 22.4422 9.43309 22.4102 10.0807 22.4022C13.0696 22.3702 16.0253 22.8505 18.8897 23.8512L18.9229 23.8672L18.9312 23.8592Z" fill="#13B5EA"/>
<path d="M18.0589 14.6931V24.0033C18.0589 24.4116 17.7102 24.7478 17.2785 24.7478C17.2204 24.7478 17.1705 24.7478 17.1207 24.7318C16.9049 24.6918 16.7056 24.6037 16.5312 24.4916V26.0207C16.8966 26.3329 17.3781 26.517 17.9012 26.517C18.6235 26.517 19.2545 26.1648 19.6281 25.6204C19.9021 25.2121 20.0682 24.7238 20.0682 24.2035V14.6931H18.0589Z" fill="#0067B1"/>
<path d="M16.257 22.3941C16.257 22.3941 16.257 22.3701 16.257 22.3621C16.2404 22.2821 16.2238 22.21 16.2071 22.13C16.149 21.9058 16.0577 21.5856 15.9249 21.3134C15.8584 21.1773 15.6758 20.9292 15.5595 20.7771C15.518 20.721 15.4848 20.681 15.4516 20.641C15.4516 20.633 15.435 20.625 15.4267 20.609C15.3686 20.5369 15.3354 20.4969 15.3354 20.4969C15.0697 20.1927 14.7625 19.9285 14.4221 19.7124C13.6915 19.2721 13.1933 18.5036 13.1435 17.623C13.1435 17.623 13.1435 17.5749 13.1435 17.5429C13.1435 16.8625 13.7164 16.3101 14.4221 16.3101C14.9036 16.3101 15.3188 16.5663 15.5429 16.9425V14.8211C15.1444 14.629 14.6961 14.5249 14.2228 14.5249C12.8612 14.5249 11.7154 15.3975 11.3418 16.5903C11.2339 16.9265 11.1758 17.2947 11.1758 17.663C11.1758 18.6477 11.5743 19.5362 12.2136 20.2087C12.3132 20.3128 12.4212 20.4088 12.5291 20.4969C12.554 20.5209 12.5789 20.5369 12.6038 20.5609C12.637 20.5929 12.6785 20.617 12.7118 20.641C12.9442 20.8091 13.1352 20.9852 13.3012 21.1613C13.5337 21.4095 13.6915 21.6416 13.7911 21.8098C13.7911 21.8178 13.7994 21.8338 13.8077 21.8418C14.0319 22.2501 14.173 22.6984 14.2062 23.1947C14.2062 23.1947 14.2062 23.2507 14.2062 23.2827C14.2062 24.0753 13.542 24.7157 12.7201 24.7157C12.1804 24.7157 11.7154 24.4355 11.4498 24.0272V25.9725C11.9147 26.3008 12.4793 26.5009 13.0937 26.5009C13.4507 26.5009 13.7994 26.4368 14.1149 26.3168C15.269 25.8685 16.1241 24.8438 16.2736 23.611C16.2985 23.4428 16.3068 23.2747 16.3068 23.1066C16.3068 22.8665 16.2819 22.6343 16.2404 22.4102L16.257 22.3941Z" fill="#0067B1"/>
<path d="M28.8606 14.6931H26.5276L25.4565 21.5857H25.4316L24.3606 14.6931H22.0193L21.0479 26.3649H23.0322L23.6133 19.3122H23.6383L24.7425 26.3649H26.1955L27.2499 19.3122H27.2748L27.8477 26.3649H29.8403L28.8606 14.6931Z" fill="#0067B1"/>
</g>
<circle cx="20" cy="20" r="19.5" stroke="black" stroke-opacity="0.05"/>
<defs>
<clipPath id="clip0_17713_28060">
<rect width="27" height="12" fill="white" transform="translate(7 14.5249)"/>
</clipPath>
</defs>
</svg>
