<svg width="40" height="40" viewBox="0 0 40 40" fill="none" xmlns="http://www.w3.org/2000/svg">
<circle cx="20" cy="20" r="20" fill="#1E1E23"/>
<g clip-path="url(#clip0_17713_28120)">
<path d="M12 12.4736H19.3579V27.4517C19.3579 27.4517 19.3493 27.4736 19.3364 27.4736H12.0215C12.0215 27.4736 12 27.4649 12 27.4517V22.4926C12 22.4926 12.0086 22.4707 12.0215 22.4707H14.444C14.444 22.4707 14.4655 22.4795 14.4655 22.4926V24.9415C14.4655 24.9634 14.4784 24.9766 14.4999 24.9766H16.9009C16.9009 24.9766 16.9138 24.9722 16.9138 24.9634V14.9882C16.9138 14.9882 16.9095 14.9751 16.9009 14.9751H12.0129C12.0129 14.9751 12 14.9751 12 14.962V12.4736Z" fill="white"/>
<path d="M20.6289 12.4736H27.9954V14.9663C27.9954 14.9663 27.9911 14.9795 27.9868 14.9795H23.103C23.103 14.9795 23.0901 14.9839 23.0901 14.9926V24.959C23.0901 24.959 23.0987 24.9809 23.1116 24.9809H25.5213C25.5213 24.9809 25.5341 24.9766 25.5341 24.9678V22.4882C25.5341 22.4882 25.5384 22.4751 25.547 22.4751H27.9911C27.9911 22.4751 28.0039 22.4751 28.0039 22.4882V27.4693C28.0039 27.4693 27.9996 27.4824 27.9911 27.4824H20.6547C20.6547 27.4824 20.6332 27.4736 20.6332 27.4605V12.4736H20.6289Z" fill="white"/>
</g>
<circle cx="20" cy="20" r="19.5" stroke="black" stroke-opacity="0.05"/>
<defs>
<clipPath id="clip0_17713_28120">
<rect width="16" height="15" fill="white" transform="translate(12 12.4736)"/>
</clipPath>
</defs>
</svg>
