<svg width="40" height="40" viewBox="0 0 40 40" fill="none" xmlns="http://www.w3.org/2000/svg">
<circle cx="20" cy="20" r="20" fill="#E51D39"/>
<g clip-path="url(#clip0_14382_21591)">
<path d="M5.00123 22.1464V17.4628C4.98451 17.1775 5.13793 17.0232 5.4616 17.0002H6.49786C6.70872 17.0002 6.83389 17.1439 6.87228 17.4323V20.4879C6.87228 20.7137 6.88687 20.8684 6.91546 20.9505C6.94414 21.0329 7.03543 20.9614 7.18845 20.7339L10.9019 17.0002H13.1473C13.4133 17.013 13.4423 17.1462 13.2333 17.401L11.0708 19.859L9.7571 21.2481L8.95502 22.1733C8.28651 22.8444 7.63028 23.18 6.98731 23.18H6.18128C5.39461 23.1801 5.00123 22.8351 5.00123 22.1464Z" fill="white"/>
<path d="M11.3182 20.3901L11.588 20.6569L13.7289 22.7781C13.9375 23.0338 13.9088 23.167 13.6424 23.1798H11.3976L10.4692 22.2467L10.0049 21.7796L11.3182 20.3901Z" fill="#F38520"/>
<path d="M16.5782 17.0002C16.8278 17.1025 16.9715 17.2978 17.0099 17.5858V22.6248C16.9715 22.9334 16.8278 23.1183 16.5781 23.18H15.1388C14.9425 23.1081 14.7988 22.9225 14.707 22.6248V17.5241C14.8103 17.2467 14.9641 17.072 15.1679 17.0002H16.5782ZM20.7809 18.4812C20.4162 18.4812 20.2341 18.6775 20.2341 19.0682V21.1121C20.2341 21.4926 20.3779 21.6773 20.6658 21.6677H25.6453C25.8759 21.6677 25.9905 21.7802 25.9905 22.0068V22.8019C25.9905 23.0537 25.8658 23.1798 25.6162 23.1798H19.0827C18.4058 23.1084 18.0226 22.7375 17.9308 22.0681V18.0804C18.0345 17.4326 18.4565 17.0719 19.1978 17H25.6744C25.8851 17 25.9905 17.1133 25.9905 17.3395V18.0804C25.9905 18.3481 25.8851 18.4812 25.6744 18.4812H21.5292H20.7809ZM29.7898 18.4812C29.4255 18.4812 29.2434 18.6775 29.2434 19.0682V21.1121C29.2434 21.4926 29.3867 21.6773 29.6751 21.6677H34.6545C34.8856 21.6677 34.9998 21.7802 34.9998 22.0068V22.8019C34.9998 23.0537 34.875 23.1798 34.625 23.1798H28.092C27.4151 23.1084 27.0315 22.7375 26.9402 22.0681V18.0804C27.0434 17.4326 27.4654 17.0719 28.2067 17H34.6828C34.8945 17 34.9999 17.1133 34.9999 17.3395V18.0804C34.9999 18.3481 34.8944 18.4812 34.6828 18.4812H30.5381H29.7898Z" fill="white"/>
</g>
<circle cx="20" cy="20" r="19.5" stroke="black" stroke-opacity="0.05"/>
<defs>
<clipPath id="clip0_14382_21591">
<rect width="30" height="6.17998" fill="white" transform="translate(5 17)"/>
</clipPath>
</defs>
</svg>
