<svg width="40" height="40" viewBox="0 0 40 40" fill="none" xmlns="http://www.w3.org/2000/svg">
<circle cx="20" cy="20" r="20" fill="#F6F8FA"/>
<path d="M19.5549 8H20.3943C22.3166 8.07573 24.0964 8.57243 25.7337 9.4901C29.523 11.614 31.8549 15.5909 31.9999 19.9575V20.7579C31.9661 21.6755 31.8331 22.5862 31.6009 23.4899C31.5973 23.504 31.589 23.5166 31.5774 23.5255C31.5658 23.5345 31.5515 23.5394 31.5368 23.5394C29.6751 23.5402 27.8019 23.5402 25.9172 23.5394C25.8582 23.5394 25.8011 23.5359 25.746 23.5289C25.7262 23.5262 25.7211 23.5163 25.7308 23.4992C26.2329 22.5808 26.5011 21.6068 26.5353 20.5773C26.5458 20.2604 26.5285 19.9068 26.4834 19.5165C26.3926 18.7377 26.1462 18.0561 25.7611 17.3454C24.8267 15.6182 23.2155 14.4678 21.2966 14.0722C20.9696 14.0047 20.6009 13.9699 20.1904 13.968C16.0378 13.9505 12.6091 13.9518 9.90422 13.972C9.86732 13.9724 9.83198 13.9713 9.7982 13.9685C9.7446 13.9647 9.73159 13.9396 9.75917 13.8934C11.8429 10.3994 15.4592 8.18816 19.5549 8Z" fill="#E04141"/>
<path d="M21.5586 14.5814C22.4912 14.7987 23.4122 15.2956 24.1123 15.9317C25.2533 16.9678 25.9125 18.2466 26.09 19.7682C26.2939 21.5146 25.6555 23.2744 24.4793 24.5228C23.7384 25.3088 22.8069 25.8668 21.685 26.1969C21.5654 26.2319 21.4333 26.2614 21.2889 26.2855C21.1065 26.3158 20.9446 26.395 20.7593 26.3956C20.3613 26.3967 19.9555 26.3979 19.5419 26.3991C19.404 26.3991 19.2607 26.3802 19.112 26.3426C18.9644 26.3053 18.8205 26.2719 18.6803 26.2424C17.3207 25.9563 16.0619 25.0971 15.2224 23.9927C14.3661 22.8655 13.9217 21.3602 14.0516 19.9045C14.2747 17.4055 15.9378 15.3958 18.3267 14.6496C18.6436 14.5499 18.9722 14.5092 19.2966 14.4311C19.424 14.4008 19.5545 14.387 19.6881 14.3897C19.9541 14.3956 20.2193 14.3954 20.4838 14.3892C20.6209 14.3861 20.7694 14.4024 20.9294 14.4381C21.1349 14.4839 21.3446 14.5317 21.5586 14.5814ZM20.0964 15.3742C20.1004 15.3745 20.1044 15.3739 20.1081 15.3725C20.1118 15.3711 20.1153 15.3689 20.1181 15.3662C20.121 15.3634 20.1233 15.36 20.1249 15.3563C20.1265 15.3526 20.1273 15.3486 20.1273 15.3445L20.1261 14.5249C20.1261 14.5063 20.1168 14.4965 20.0982 14.4958C19.6951 14.4783 19.3223 14.4859 18.9896 14.6962C18.745 14.8507 18.5386 15.0185 18.3704 15.1995C18.3677 15.2023 18.3658 15.2059 18.365 15.2098C18.3642 15.2137 18.3645 15.2177 18.3658 15.2214C18.3671 15.2252 18.3695 15.2284 18.3725 15.2309C18.3756 15.2334 18.3793 15.235 18.3832 15.2356C18.9374 15.3051 19.5085 15.3513 20.0964 15.3742ZM20.789 14.5301C20.6162 14.5053 20.4372 14.4958 20.252 14.5016C20.2302 14.5024 20.2193 14.5136 20.2193 14.5354L20.2188 15.3404C20.2188 15.3515 20.2231 15.362 20.2308 15.3699C20.2386 15.3777 20.2491 15.3822 20.2601 15.3824C20.8019 15.3897 21.3496 15.369 21.9034 15.32C21.906 15.3198 21.9085 15.3188 21.9106 15.3173C21.9127 15.3157 21.9143 15.3136 21.9153 15.3113C21.9162 15.3089 21.9165 15.3064 21.9161 15.3039C21.9156 15.3014 21.9145 15.2991 21.9127 15.2973C21.7422 15.1047 21.5267 14.9195 21.2661 14.7416C21.0902 14.6216 20.9312 14.5511 20.789 14.5301ZM18.9011 14.6076C18.9043 14.6049 18.9064 14.6011 18.9072 14.597C18.9079 14.5929 18.9072 14.5886 18.9051 14.5849C18.903 14.5813 18.8998 14.5785 18.8958 14.577C18.8919 14.5755 18.8876 14.5754 18.8836 14.5767L17.4797 15.0492C17.4759 15.0504 17.4726 15.0529 17.4703 15.0562C17.4681 15.0595 17.467 15.0635 17.4673 15.0676C17.4675 15.0716 17.4691 15.0754 17.4718 15.0784C17.4745 15.0814 17.4781 15.0834 17.4821 15.0841L18.1846 15.2099C18.1872 15.2104 18.1898 15.2102 18.1923 15.2095C18.1948 15.2088 18.1972 15.2076 18.1991 15.2059L18.9011 14.6076ZM22.112 15.2985L22.843 15.2292C22.8741 15.2261 22.8782 15.2138 22.8553 15.1925C22.8312 15.1707 22.805 15.1527 22.7766 15.1383C22.3242 14.9096 21.8422 14.7383 21.3308 14.6245C21.2877 14.6148 21.2828 14.6243 21.3162 14.6531C21.3675 14.6973 21.4215 14.7379 21.4782 14.7748C21.6745 14.9012 21.8545 15.0998 22.0147 15.263C22.0415 15.2905 22.0739 15.3024 22.112 15.2985ZM15.6471 16.4752L15.2353 16.9855C15.2298 16.9923 15.226 17.0002 15.2241 17.0087C15.2221 17.0172 15.2221 17.0259 15.2241 17.0344C15.2261 17.0428 15.2299 17.0507 15.2354 17.0573C15.2409 17.064 15.2478 17.0693 15.2556 17.0729C15.7923 17.3214 16.3382 17.5315 16.8931 17.7031C16.8971 17.7044 16.9014 17.7049 16.9056 17.7045C16.9098 17.7041 16.9138 17.7029 16.9175 17.701C16.9212 17.699 16.9245 17.6963 16.9271 17.6931C16.9297 17.6899 16.9316 17.6862 16.9327 17.6822C17.0632 17.2086 17.2549 16.7676 17.4617 16.3121C17.6469 15.9688 17.8656 15.6395 18.1176 15.3241C18.1201 15.3211 18.1218 15.3174 18.1224 15.3135C18.1231 15.3096 18.1227 15.3056 18.1212 15.3019C18.1198 15.2983 18.1174 15.295 18.1143 15.2926C18.1112 15.2901 18.1075 15.2885 18.1036 15.288C17.8873 15.2565 17.6584 15.2191 17.4168 15.1756C17.2654 15.1488 16.8844 15.4121 16.7248 15.521C16.331 15.7896 15.9407 16.0995 15.6471 16.4752ZM22.7755 16.4228L23.1063 17.2057L23.3725 18.1365C23.378 18.1556 23.3904 18.1635 23.4098 18.1604L24.0698 18.0597L25.3438 17.748C25.3473 17.7471 25.3507 17.7455 25.3535 17.7432C25.3563 17.7409 25.3586 17.738 25.3602 17.7347C25.3617 17.7314 25.3625 17.7278 25.3625 17.7242C25.3625 17.7205 25.3617 17.7169 25.3601 17.7136C25.0083 16.9989 24.4455 16.3039 23.8426 15.8408C23.6186 15.6373 23.3562 15.4571 23.0556 15.3002C23.0401 15.2921 23.0238 15.2892 23.0067 15.2915L22.1667 15.3975C22.1422 15.4006 22.1376 15.4117 22.1527 15.4307C22.3931 15.7332 22.6007 16.0639 22.7755 16.4228ZM17.5823 16.3144C17.3473 16.761 17.1652 17.2266 17.0358 17.7113C17.034 17.7181 17.0349 17.7253 17.0382 17.7315C17.0416 17.7377 17.0472 17.7424 17.0539 17.7445C17.6442 17.927 18.2483 18.0616 18.8661 18.1482L20.0923 18.2932C20.1075 18.2952 20.1153 18.2884 20.1156 18.2729L20.1267 17.7998L20.1197 16.7682L20.1168 15.5018C20.1168 15.4804 20.1061 15.4694 20.0848 15.4686C19.4968 15.448 18.9021 15.3979 18.3005 15.3183C18.2876 15.3165 18.2745 15.318 18.2623 15.3227C18.25 15.3274 18.2392 15.3351 18.2306 15.3451C17.9797 15.6383 17.7636 15.9614 17.5823 16.3144ZM20.224 16.781L20.2287 17.8593L20.2281 18.2641C20.2277 18.2866 20.2389 18.2987 20.2619 18.3002L20.5822 18.32C20.5978 18.3208 20.611 18.3156 20.6219 18.3043C20.6261 18.2997 20.6314 18.2967 20.6376 18.2956L21.1333 18.3329C21.8452 18.3426 22.5525 18.2954 23.2555 18.1913C23.2753 18.1882 23.2822 18.1771 23.2764 18.1581L23.0003 17.2191L22.7137 16.548C22.5455 16.155 22.316 15.7831 22.0252 15.4325C22.0189 15.4251 22.0109 15.4193 22.002 15.4157C21.993 15.412 21.9834 15.4106 21.9739 15.4115C21.4069 15.46 20.8345 15.4795 20.2566 15.4697C20.2368 15.4697 20.2269 15.4797 20.2269 15.4995L20.224 16.781ZM16.5972 21.1843C16.5151 20.0822 16.6106 18.9375 16.8797 17.8424C16.8823 17.832 16.8808 17.8211 16.8756 17.8118C16.8704 17.8026 16.8619 17.7958 16.8518 17.7929C16.2786 17.6228 15.7232 17.4066 15.1857 17.1445C15.1689 17.1362 15.1495 17.1344 15.1315 17.1396C15.1135 17.1448 15.0981 17.1565 15.0885 17.1725C14.6947 17.8045 14.3696 18.5216 14.2543 19.2468C14.1925 19.633 14.1139 20.0198 14.132 20.4113C14.1323 20.4205 14.1353 20.4294 14.1405 20.4369C14.1458 20.4445 14.1531 20.4504 14.1617 20.4538C14.9201 20.7719 15.718 21.0274 16.5553 21.2204C16.5605 21.2216 16.566 21.2216 16.5712 21.2203C16.5764 21.219 16.5813 21.2165 16.5854 21.213C16.5894 21.2095 16.5926 21.205 16.5947 21.2001C16.5968 21.1951 16.5976 21.1897 16.5972 21.1843ZM18.738 21.5501C19.1877 21.601 19.6374 21.6222 20.0871 21.6136C20.1073 21.6132 20.1174 21.6031 20.1174 21.5833L20.118 20.3659L20.111 20.0816L20.125 19.2276L20.1133 19.0622L20.1186 18.4284C20.1189 18.4074 20.1087 18.396 20.0877 18.394L19.2605 18.3206C18.5102 18.2 17.7623 18.062 17.0399 17.8534C17.0344 17.8518 17.0285 17.8512 17.0228 17.8518C17.017 17.8525 17.0115 17.8542 17.0064 17.8571C17.0013 17.8599 16.9969 17.8637 16.9934 17.8683C16.9898 17.8729 16.9872 17.8781 16.9857 17.8837C16.7061 18.9443 16.6092 20.054 16.6951 21.2129C16.6966 21.2342 16.7079 21.2472 16.7289 21.2519C17.3929 21.401 18.0626 21.5004 18.738 21.5501ZM24.1397 18.1482L23.4238 18.2705C23.409 18.2732 23.4032 18.282 23.4063 18.2967C23.6063 19.2777 23.6661 20.2663 23.5857 21.2624C23.5855 21.2665 23.5861 21.2706 23.5877 21.2743C23.5893 21.2781 23.5917 21.2815 23.5949 21.2841C23.598 21.2868 23.6017 21.2887 23.6057 21.2897C23.6096 21.2906 23.6138 21.2907 23.6178 21.2897L24.5323 21.0748L24.7805 20.9991C24.8081 20.9835 24.8353 20.9746 24.8621 20.9723C24.9059 20.9707 24.9454 20.9649 24.9803 20.9548C25.3162 20.8554 25.6483 20.7406 25.9764 20.6105C25.9962 20.6024 26.0083 20.588 26.0125 20.5674C26.0312 20.4781 26.0366 20.3874 26.0288 20.2954C26.0063 20.0251 25.9751 19.743 25.9351 19.449C25.8605 18.9055 25.6764 18.3591 25.4364 17.8668C25.4324 17.8586 25.4258 17.852 25.4175 17.8481C25.4092 17.8442 25.3999 17.8432 25.391 17.8453L24.1397 18.1482ZM21.1234 18.4377L20.7489 18.436L20.252 18.4016C20.2486 18.4014 20.2452 18.4018 20.2421 18.4029C20.2389 18.404 20.236 18.4058 20.2335 18.4081C20.2311 18.4104 20.2291 18.4132 20.2278 18.4163C20.2264 18.4194 20.2257 18.4227 20.2257 18.4261L20.2473 19.9762C20.2189 20.081 20.2155 20.203 20.2368 20.342L20.2252 21.5886C20.2248 21.6084 20.2347 21.6185 20.2549 21.6189C21.3275 21.6255 22.3912 21.5301 23.4459 21.3329C23.4723 21.3278 23.4867 21.3121 23.489 21.2857C23.5718 20.2771 23.5141 19.2962 23.316 18.3428C23.309 18.3082 23.2879 18.293 23.2525 18.2973C22.55 18.3824 21.8376 18.4138 21.1234 18.4377ZM14.743 23.0012C14.9065 23.3406 15.0986 23.6558 15.3191 23.9466C15.3334 23.9658 15.3544 23.9788 15.378 23.9833L16.4044 24.1861L16.6753 24.2332L17.3323 24.3317C17.3537 24.3348 17.3601 24.3264 17.3516 24.3066L17.171 23.8843C16.8696 23.0591 16.6817 22.2171 16.6071 21.3585C16.6052 21.3375 16.5939 21.3247 16.5733 21.32C15.7508 21.1418 14.9522 20.8899 14.1774 20.5645C14.1456 20.5509 14.1304 20.5614 14.132 20.596C14.1654 21.453 14.369 22.2548 14.743 23.0012ZM24.9191 21.0812C24.8826 21.1162 24.8356 21.1315 24.7782 21.1272L24.6442 21.1668L23.5991 21.3981C23.5793 21.4024 23.5687 21.4146 23.5671 21.4348C23.4774 22.4989 23.2147 23.4894 22.7789 24.4063C22.7775 24.4093 22.7769 24.4127 22.7772 24.4161C22.7774 24.4195 22.7786 24.4228 22.7806 24.4255C22.7825 24.4283 22.7852 24.4305 22.7883 24.432C22.7914 24.4334 22.7948 24.434 22.7982 24.4336C23.364 24.3789 23.9417 24.3002 24.5312 24.1977C24.6015 24.1853 24.6739 24.1309 24.7485 24.0346C25.1139 23.5628 25.3916 23.0864 25.5815 22.6057C25.8358 22.0255 25.978 21.4026 26.0079 20.7369C26.008 20.7342 26.0075 20.7315 26.0063 20.729C26.0052 20.7265 26.0034 20.7243 26.0013 20.7227C25.9991 20.721 25.9965 20.7199 25.9938 20.7194C25.9911 20.719 25.9883 20.7192 25.9857 20.72L24.9191 21.0812ZM17.372 24.0835L17.4791 24.3177C17.4855 24.3315 17.4954 24.3434 17.5077 24.3522C17.5201 24.361 17.5346 24.3664 17.5496 24.3678L18.3856 24.4418C18.4609 24.4686 18.5869 24.4771 18.7636 24.4674L19.3153 24.4802C19.3801 24.5059 19.4628 24.5179 19.5634 24.5163L20.0935 24.5297C20.1141 24.5305 20.1244 24.5204 20.1244 24.4995L20.1256 21.7365C20.1256 21.7187 20.1166 21.7094 20.0988 21.7086L18.6931 21.6521C18.0294 21.5876 17.3741 21.4894 16.7271 21.3573C16.7252 21.357 16.7232 21.357 16.7213 21.3576C16.7195 21.3581 16.7177 21.359 16.7163 21.3603C16.7148 21.3616 16.7137 21.3632 16.7129 21.365C16.7122 21.3668 16.7118 21.3688 16.712 21.3707C16.7823 22.3074 17.0023 23.2117 17.372 24.0835ZM21.0547 24.5338L22.024 24.482L22.6094 24.4505C22.6223 24.4498 22.6347 24.4457 22.6455 24.4385C22.6563 24.4313 22.6649 24.4214 22.6706 24.4097C23.1098 23.4971 23.3762 22.5144 23.4698 21.4616C23.4722 21.4356 23.4605 21.4249 23.4349 21.4296C22.3933 21.6253 21.331 21.7177 20.2479 21.7068C20.2439 21.7068 20.2399 21.7075 20.2362 21.709C20.2325 21.7105 20.2291 21.7127 20.2263 21.7155C20.2235 21.7184 20.2212 21.7217 20.2197 21.7254C20.2182 21.7292 20.2175 21.7331 20.2176 21.7371L20.2222 24.5152C20.2222 24.5334 20.2312 24.5424 20.249 24.542L21.0547 24.5338ZM16.8652 24.3789L16.4621 24.3084L15.5021 24.108C15.4624 24.0998 15.4549 24.1117 15.4793 24.1435C15.5951 24.2962 15.7273 24.4451 15.876 24.5903C16.5133 25.2121 17.2523 25.6707 18.0931 25.9662C18.269 26.0284 18.4386 26.0565 18.6017 26.0507C18.6525 26.0492 18.6584 26.0319 18.6191 25.9989C18.1221 25.5798 17.7316 25.0744 17.4477 24.4826C17.4391 24.4647 17.425 24.4544 17.4052 24.4517L16.8652 24.3789ZM22.5034 24.9195L22.3135 25.2125L22.077 25.5136L21.4642 26.0862C21.4273 26.1208 21.4337 26.1336 21.4834 26.1247C21.6718 26.0901 21.8419 26.041 21.9937 25.9773C22.958 25.6565 23.7838 25.1231 24.4712 24.3771C24.5252 24.3189 24.5131 24.2965 24.4351 24.3101C23.9054 24.4006 23.344 24.4758 22.751 24.5356C22.7316 24.5375 22.717 24.5468 22.7073 24.5635L22.5034 24.9195ZM19.8722 26.1165C19.9498 26.1383 20.0234 26.141 20.0929 26.1247C20.112 26.12 20.1213 26.108 20.1209 26.0886L20.1127 25.8626L20.1256 24.6672C20.1259 24.6443 20.1147 24.6327 20.0918 24.6323L19.1993 24.6177C19.1784 24.6173 19.169 24.6276 19.1714 24.6486L19.176 24.6899C19.1473 24.6499 19.1071 24.6416 19.0555 24.6649C18.9436 24.7162 18.8725 24.6305 18.7904 24.6229C18.7368 24.6183 18.7077 24.656 18.703 24.736C18.6669 24.7189 18.6376 24.6983 18.6151 24.6742C18.6551 24.6804 18.6838 24.6678 18.7013 24.6363C18.7044 24.6305 18.706 24.624 18.706 24.6174C18.706 24.6108 18.7043 24.6043 18.7011 24.5985C18.6979 24.5927 18.6933 24.5878 18.6878 24.5843C18.6822 24.5807 18.6758 24.5786 18.6692 24.5781L18.4834 24.5624L17.5997 24.4779C17.5737 24.4756 17.5665 24.4861 17.5782 24.5094C17.8916 25.1412 18.2964 25.641 18.7927 26.0088C18.8522 26.0525 18.8935 26.0635 18.9663 26.0694C19.2712 26.0942 19.5731 26.1099 19.8722 26.1165ZM22.2267 24.5868L21.3401 24.6346L20.2589 24.6299C20.2492 24.6299 20.2399 24.6338 20.233 24.6407C20.2261 24.6476 20.2222 24.6569 20.2222 24.6666L20.2292 25.8317L20.2182 26.1096C20.218 26.1133 20.2186 26.117 20.2199 26.1205C20.2212 26.124 20.2232 26.1272 20.2257 26.1299C20.2283 26.1326 20.2314 26.1348 20.2348 26.1363C20.2382 26.1378 20.2418 26.1386 20.2456 26.1387C20.4902 26.1406 20.7589 26.141 21.0518 26.1398C21.1512 26.1395 21.2417 26.1111 21.3232 26.0548C21.484 25.9437 21.6087 25.8418 21.6972 25.749C21.9077 25.5626 22.0832 25.3589 22.2238 25.1379L22.4353 24.8082L22.5634 24.5886C22.5751 24.5692 22.5694 24.5602 22.5465 24.5618L22.2267 24.5868ZM20.1118 26.2682C20.112 26.2659 20.1117 26.2636 20.1109 26.2614C20.1102 26.2593 20.109 26.2573 20.1075 26.2555C20.106 26.2538 20.1041 26.2524 20.102 26.2514C20.1 26.2504 20.0977 26.2498 20.0955 26.2497L19.2105 26.1955C19.2082 26.1954 19.2059 26.1957 19.2037 26.1965C19.2016 26.1972 19.1996 26.1984 19.1979 26.1999C19.1961 26.2014 19.1947 26.2033 19.1937 26.2053C19.1927 26.2074 19.1921 26.2096 19.192 26.2119L19.1909 26.2294C19.1908 26.2317 19.1911 26.234 19.1918 26.2361C19.1926 26.2383 19.1938 26.2403 19.1953 26.242C19.1968 26.2437 19.1986 26.2451 19.2007 26.2461C19.2028 26.2471 19.205 26.2477 19.2073 26.2479L20.0922 26.302C20.0945 26.3021 20.0968 26.3018 20.099 26.3011C20.1012 26.3003 20.1032 26.2992 20.1049 26.2976C20.1066 26.2961 20.108 26.2943 20.109 26.2922C20.11 26.2902 20.1106 26.2879 20.1108 26.2856L20.1118 26.2682ZM20.8616 26.2498C20.8615 26.2471 20.8609 26.2444 20.8598 26.2419C20.8586 26.2394 20.857 26.2371 20.855 26.2352C20.853 26.2334 20.8506 26.2319 20.848 26.2309C20.8454 26.23 20.8427 26.2295 20.8399 26.2296L20.2426 26.2505C20.2399 26.2506 20.2372 26.2512 20.2347 26.2524C20.2322 26.2535 20.2299 26.2551 20.228 26.2571C20.2261 26.2591 20.2247 26.2615 20.2237 26.2641C20.2228 26.2667 20.2223 26.2694 20.2224 26.2722L20.2225 26.2745C20.2226 26.2773 20.2232 26.28 20.2244 26.2825C20.2255 26.285 20.2271 26.2872 20.2291 26.2891C20.2312 26.291 20.2335 26.2924 20.2361 26.2934C20.2387 26.2944 20.2414 26.2948 20.2442 26.2947L20.8415 26.2739C20.8442 26.2738 20.8469 26.2731 20.8494 26.272C20.852 26.2708 20.8542 26.2692 20.8561 26.2672C20.858 26.2652 20.8594 26.2628 20.8604 26.2603C20.8614 26.2577 20.8618 26.2549 20.8617 26.2522L20.8616 26.2498Z" fill="#020304"/>
<path d="M20.0971 15.3741C19.5091 15.3512 18.9381 15.305 18.3839 15.2355C18.38 15.235 18.3763 15.2334 18.3732 15.2309C18.3701 15.2284 18.3678 15.2251 18.3665 15.2213C18.3652 15.2176 18.3649 15.2136 18.3657 15.2097C18.3665 15.2058 18.3684 15.2023 18.3711 15.1994C18.5392 15.0184 18.7456 14.8506 18.9903 14.6961C19.3229 14.4858 19.6957 14.4782 20.0988 14.4957C20.1175 14.4965 20.1268 14.5062 20.1268 14.5248L20.128 15.3444C20.128 15.3485 20.1272 15.3525 20.1256 15.3562C20.124 15.3599 20.1217 15.3633 20.1188 15.3661C20.1159 15.3689 20.1125 15.371 20.1088 15.3724C20.105 15.3738 20.1011 15.3744 20.0971 15.3741Z" fill="#2161C0"/>
<path d="M21.2661 14.7415C21.5267 14.9194 21.7422 15.1046 21.9127 15.2973C21.9145 15.2991 21.9156 15.3014 21.9161 15.3038C21.9165 15.3063 21.9162 15.3089 21.9153 15.3112C21.9143 15.3136 21.9127 15.3157 21.9106 15.3172C21.9085 15.3188 21.906 15.3197 21.9034 15.32C21.3496 15.3689 20.8019 15.3897 20.2601 15.3823C20.2491 15.3822 20.2386 15.3777 20.2308 15.3698C20.2231 15.362 20.2187 15.3514 20.2188 15.3404L20.2193 14.5353C20.2193 14.5136 20.2302 14.5023 20.252 14.5015C20.4372 14.4957 20.6162 14.5052 20.789 14.5301C20.9312 14.5511 21.0902 14.6215 21.2661 14.7415Z" fill="#2161C0"/>
<path d="M18.9016 14.6076L18.1997 15.2059C18.1977 15.2076 18.1954 15.2088 18.1929 15.2095C18.1903 15.2102 18.1877 15.2104 18.1851 15.21L17.4826 15.0841C17.4786 15.0834 17.475 15.0814 17.4724 15.0784C17.4697 15.0754 17.4681 15.0716 17.4678 15.0676C17.4675 15.0636 17.4686 15.0596 17.4709 15.0562C17.4731 15.0529 17.4764 15.0504 17.4803 15.0492L18.8842 14.5768C18.8881 14.5754 18.8925 14.5755 18.8964 14.577C18.9003 14.5785 18.9036 14.5813 18.9057 14.585C18.9077 14.5886 18.9085 14.5929 18.9077 14.597C18.907 14.6012 18.9048 14.6049 18.9016 14.6076Z" fill="#2161C0"/>
<path d="M22.1125 15.2985C22.0745 15.3024 22.042 15.2905 22.0152 15.263C21.855 15.0999 21.675 14.9012 21.4787 14.7748C21.422 14.7379 21.3681 14.6973 21.3168 14.6531C21.2834 14.6243 21.2882 14.6148 21.3314 14.6245C21.8428 14.7383 22.3248 14.9096 22.7772 15.1383C22.8055 15.1527 22.8317 15.1707 22.8558 15.1925C22.8787 15.2138 22.8747 15.2261 22.8436 15.2292L22.1125 15.2985Z" fill="#2161C0"/>
<path d="M17.462 16.312C17.3207 16.2871 17.1915 16.2998 17.0746 16.3499C16.9791 16.391 16.9065 16.4126 16.8568 16.4145C16.7298 16.42 16.6168 16.411 16.5178 16.3877C16.3284 16.3434 16.1688 16.4122 15.9882 16.3353C15.9776 16.3309 15.9662 16.3288 15.9547 16.3292C15.9433 16.3296 15.9321 16.3325 15.9218 16.3376L15.6475 16.4751C15.9411 16.0994 16.3313 15.7895 16.7251 15.5209C16.8847 15.412 17.2657 15.1487 17.4172 15.1755C17.6587 15.219 17.8877 15.2565 18.104 15.2879C18.1079 15.2885 18.1116 15.29 18.1147 15.2925C18.1178 15.2949 18.1202 15.2982 18.1216 15.3019C18.123 15.3055 18.1234 15.3095 18.1228 15.3134C18.1222 15.3173 18.1205 15.321 18.1179 15.324C17.8659 15.6394 17.6473 15.9687 17.462 16.312Z" fill="#2161C0"/>
<path d="M23.8431 15.8407L22.9973 16.0277C22.9625 16.0354 22.9314 16.055 22.9094 16.0832C22.8874 16.1113 22.8758 16.1463 22.8767 16.1821C22.8783 16.2656 22.8447 16.3458 22.7759 16.4227C22.6012 16.0639 22.3936 15.7332 22.1532 15.4306C22.1381 15.4116 22.1427 15.4006 22.1672 15.3974L23.0072 15.2914C23.0243 15.2891 23.0406 15.292 23.0561 15.3002C23.3567 15.4571 23.619 15.6373 23.8431 15.8407Z" fill="#2161C0"/>
<path d="M20.1205 16.7681C19.4762 16.7165 19.0719 16.6765 18.9077 16.6481C18.7166 16.6155 18.5448 16.4541 18.3327 16.4145C18.144 16.3788 18.0106 16.3675 17.9325 16.3808C17.7772 16.4064 17.6607 16.3842 17.583 16.3143C17.7644 15.9613 17.9805 15.6382 18.2314 15.345C18.2399 15.335 18.2508 15.3273 18.263 15.3227C18.2752 15.318 18.2884 15.3164 18.3013 15.3182C18.9028 15.3978 19.4976 15.4479 20.0855 15.4685C20.1069 15.4693 20.1176 15.4804 20.1176 15.5017L20.1205 16.7681Z" fill="#2161C0"/>
<path d="M22.7143 16.548L22.6304 16.7129C22.6219 16.73 22.6099 16.7439 22.5943 16.7548C22.5017 16.8201 22.4394 16.8859 22.3223 16.9098C22.2238 16.9296 21.9716 17.0082 22.0211 17.1451C22.03 17.1692 22.0473 17.1803 22.073 17.1783C22.099 17.1764 22.1242 17.1783 22.1487 17.1841C22.2151 17.1993 22.2166 17.2197 22.1533 17.2453C22.1188 17.2589 22.0897 17.2775 22.066 17.3012C21.9366 17.4309 21.7867 17.5325 21.6163 17.6059C21.6081 17.6095 21.6017 17.6161 21.5984 17.6242C21.595 17.6324 21.5949 17.6415 21.5982 17.6496C21.604 17.6651 21.6155 17.6721 21.6326 17.6706C21.9349 17.6414 22.2768 17.4836 22.5326 17.3426C22.6001 17.3053 22.6745 17.2781 22.7557 17.261C22.8353 17.2443 22.917 17.2304 23.0009 17.2191L23.277 18.1581C23.2829 18.1772 23.2759 18.1882 23.2561 18.1913C22.5532 18.2954 21.8458 18.3426 21.1339 18.3329C21.1176 18.3096 21.0965 18.2931 21.0704 18.2834C20.986 18.2502 20.9528 18.2344 20.9097 18.157C20.8438 18.0381 20.6906 17.9234 20.5968 17.8203C20.5915 17.8144 20.5877 17.8073 20.5859 17.7996C20.584 17.792 20.5842 17.784 20.5864 17.7766C20.5941 17.7502 20.6102 17.7354 20.6347 17.7323C20.7384 17.7199 20.8421 17.7084 20.9458 17.6979C20.9757 17.6952 20.9999 17.6824 21.0186 17.6595L21.1648 17.4841C21.1811 17.4643 21.1819 17.4438 21.1671 17.4224C21.1318 17.3707 21.0866 17.3265 21.0314 17.2896C21.0217 17.2834 21.0149 17.275 21.011 17.2645C21.0013 17.2389 21.0095 17.2306 21.0355 17.2395C21.1908 17.2911 21.344 17.3241 21.4951 17.3385C21.5844 17.3474 21.5945 17.3234 21.5254 17.2663C21.4031 17.1665 21.2481 17.0787 21.0605 17.003C20.9807 16.9704 20.9102 16.9872 20.8293 16.9872C20.6458 16.989 20.3935 16.862 20.2246 16.781L20.2275 15.4995C20.2275 15.4797 20.2374 15.4698 20.2572 15.4698C20.8351 15.4795 21.4075 15.4601 21.9745 15.4115C21.984 15.4106 21.9937 15.412 22.0026 15.4157C22.0115 15.4193 22.0195 15.4251 22.0258 15.4325C22.3166 15.7832 22.5462 16.155 22.7143 16.548Z" fill="#2161C0"/>
<path d="M23.8426 15.8407C24.4455 16.3038 25.0082 16.9988 25.36 17.7135C25.3616 17.7168 25.3625 17.7204 25.3625 17.724C25.3625 17.7277 25.3617 17.7313 25.3601 17.7346C25.3585 17.7379 25.3563 17.7408 25.3534 17.7431C25.3506 17.7454 25.3473 17.747 25.3437 17.7479L24.0698 18.0595C23.9362 17.8646 23.8037 17.6731 23.6725 17.4852C23.5484 17.3075 23.3369 17.1176 23.1063 17.2056L22.7754 16.4226C22.8441 16.3457 22.8777 16.2656 22.8762 16.1821C22.8753 16.1463 22.8869 16.1113 22.9089 16.0831C22.9308 16.055 22.9619 16.0354 22.9968 16.0277L23.8426 15.8407Z" fill="#80C142"/>
<path d="M17.4617 16.312C17.2549 16.7676 17.0633 17.2086 16.9328 17.6821C16.9317 17.6861 16.9297 17.6899 16.9271 17.6931C16.9245 17.6963 16.9213 17.699 16.9176 17.7009C16.9139 17.7029 16.9098 17.7041 16.9056 17.7045C16.9014 17.7048 16.8972 17.7044 16.8932 17.7031C16.3382 17.5315 15.7924 17.3214 15.2557 17.0728C15.2478 17.0693 15.2409 17.064 15.2354 17.0573C15.23 17.0506 15.2261 17.0428 15.2241 17.0343C15.2222 17.0259 15.2222 17.0171 15.2241 17.0086C15.226 17.0002 15.2299 16.9922 15.2353 16.9854L15.6471 16.4752L15.9215 16.3377C15.9317 16.3326 15.9429 16.3297 15.9544 16.3293C15.9659 16.3289 15.9773 16.331 15.9879 16.3353C16.1685 16.4122 16.3281 16.3435 16.5174 16.3878C16.6165 16.4111 16.7295 16.42 16.8565 16.4146C16.9062 16.4126 16.9788 16.3911 17.0743 16.3499C17.1912 16.2998 17.3203 16.2872 17.4617 16.312Z" fill="#80C142"/>
<path d="M17.5825 16.3145C17.6602 16.3844 17.7767 16.4065 17.932 16.3809C18.0101 16.3677 18.1435 16.3789 18.3322 16.4146C18.5443 16.4543 18.7161 16.6156 18.9072 16.6482C19.0714 16.6766 19.4757 16.7166 20.12 16.7682L20.127 17.7999C20.0357 17.7704 19.9396 17.7649 19.8386 17.7836C19.813 17.7886 19.7881 17.7857 19.7641 17.7748C19.505 17.6564 19.1895 17.6475 18.8175 17.748C18.8019 17.7524 18.7886 17.7627 18.7807 17.7768C18.7727 17.7909 18.7706 17.8076 18.7749 17.8232L18.8664 18.1482C18.2485 18.0616 17.6445 17.9271 17.0542 17.7445C17.0475 17.7424 17.0418 17.7377 17.0385 17.7316C17.0351 17.7254 17.0343 17.7181 17.0361 17.7113C17.1654 17.2267 17.3476 16.7611 17.5825 16.3145Z" fill="#80C142"/>
<path d="M22.7142 16.548L23.0008 17.219C22.9169 17.2303 22.8352 17.2443 22.7556 17.261C22.6744 17.2781 22.6001 17.3053 22.5325 17.3425C22.2768 17.4835 21.9348 17.6414 21.6325 17.6705C21.6154 17.6721 21.6039 17.6651 21.5981 17.6495C21.5948 17.6414 21.5949 17.6323 21.5983 17.6242C21.6016 17.616 21.6081 17.6095 21.6162 17.6058C21.7867 17.5324 21.9366 17.4309 22.0659 17.3012C22.0896 17.2775 22.1187 17.2588 22.1533 17.2453C22.2166 17.2196 22.215 17.1992 22.1486 17.1841C22.1241 17.1783 22.0989 17.1763 22.0729 17.1783C22.0472 17.1802 22.03 17.1691 22.021 17.1451C21.9715 17.0082 22.2237 16.9295 22.3222 16.9097C22.4393 16.8858 22.5016 16.82 22.5942 16.7548C22.6098 16.7439 22.6218 16.7299 22.6303 16.7128L22.7142 16.548Z" fill="#80C142"/>
<path d="M20.2246 16.781C20.3935 16.862 20.6458 16.989 20.8293 16.9872C20.9102 16.9872 20.9807 16.9703 21.0605 17.0029C21.2481 17.0787 21.4031 17.1664 21.5254 17.2662C21.5945 17.3233 21.5844 17.3474 21.4951 17.3385C21.344 17.3241 21.1908 17.2911 21.0355 17.2395C21.0095 17.2305 21.0013 17.2389 21.011 17.2645C21.0149 17.275 21.0217 17.2833 21.0314 17.2895C21.0866 17.3264 21.1318 17.3707 21.1671 17.4224C21.1819 17.4437 21.1811 17.4643 21.1648 17.4841L21.0186 17.6595C20.9999 17.6824 20.9757 17.6952 20.9458 17.6979C20.8421 17.7084 20.7384 17.7198 20.6347 17.7323C20.6102 17.7354 20.5941 17.7501 20.5864 17.7765C20.5842 17.784 20.584 17.792 20.5859 17.7996C20.5877 17.8073 20.5915 17.8144 20.5968 17.8202C20.6906 17.9233 20.8438 18.0381 20.9097 18.1569C20.9528 18.2344 20.986 18.2501 21.0704 18.2833C21.0965 18.293 21.1176 18.3095 21.1339 18.3328L20.6382 18.2956C20.5718 18.2202 20.4924 18.1018 20.3999 17.9402C20.3658 17.8812 20.3089 17.8542 20.2293 17.8593L20.2246 16.781Z" fill="#80C142"/>
<path d="M16.8803 17.8423C16.6112 18.9374 16.5156 20.0821 16.5978 21.1842C16.5982 21.1896 16.5973 21.195 16.5952 21.2C16.5932 21.205 16.59 21.2094 16.5859 21.2129C16.5818 21.2164 16.577 21.2189 16.5718 21.2202C16.5665 21.2215 16.5611 21.2215 16.5558 21.2203C15.7185 21.0273 14.9207 20.7718 14.1622 20.4537C14.1537 20.4503 14.1464 20.4444 14.1411 20.4369C14.1358 20.4293 14.1328 20.4204 14.1325 20.4112C14.1145 20.0198 14.1931 19.633 14.2548 19.2468C14.3702 18.5215 14.6952 17.8044 15.089 17.1724C15.0987 17.1564 15.1141 17.1447 15.1321 17.1395C15.1501 17.1343 15.1694 17.1361 15.1863 17.1444C15.7238 17.4066 16.2791 17.6227 16.8523 17.7928C16.8624 17.7957 16.871 17.8025 16.8762 17.8118C16.8814 17.821 16.8829 17.8319 16.8803 17.8423Z" fill="#80C142"/>
<path d="M24.0699 18.0595L23.4099 18.1603C23.3905 18.1634 23.3781 18.1555 23.3727 18.1364L23.1064 17.2056C23.3371 17.1176 23.5486 17.3075 23.6727 17.4852C23.8039 17.6731 23.9363 17.8646 24.0699 18.0595Z" fill="#2161C0"/>
<path d="M20.4887 32.6408H19.5625C17.7039 32.5592 15.9918 32.0916 14.4264 31.238C10.5619 29.1305 8.2132 25.2124 8 20.8266V19.8048C8.04 18.9656 8.16116 18.1279 8.36349 17.2918C8.37087 17.2623 8.3899 17.2476 8.42058 17.2476L14.4217 17.2511C14.4271 17.251 14.4324 17.2524 14.437 17.255C14.4417 17.2576 14.4456 17.2614 14.4483 17.266C14.4511 17.2706 14.4526 17.2758 14.4528 17.2811C14.4529 17.2865 14.4516 17.2918 14.4491 17.2965C13.9944 18.1396 13.7303 19.0349 13.6569 19.9825C13.6278 20.3619 13.639 20.7493 13.6907 21.1446C13.9353 23.0076 14.921 24.6759 16.4938 25.7285C17.2918 26.2621 18.1382 26.6019 19.033 26.7479C19.4687 26.819 19.965 26.8542 20.5219 26.8534C23.7091 26.8491 26.9025 26.8493 30.1021 26.854C30.1177 26.854 30.1307 26.8596 30.1412 26.8709C30.146 26.8761 30.1491 26.8827 30.1498 26.8898C30.1505 26.8969 30.1489 26.9039 30.1452 26.9099C29.3186 28.2427 28.252 29.4165 26.9897 30.3392C25.0716 31.7419 22.9047 32.5091 20.4887 32.6408Z" fill="#E04141"/>
<path d="M20.1267 17.7998L20.1156 18.2728C20.1152 18.2884 20.1075 18.2952 20.0923 18.2932L18.8661 18.1482L18.7747 17.8231C18.7704 17.8075 18.7724 17.7909 18.7804 17.7768C18.7884 17.7627 18.8016 17.7523 18.8172 17.748C19.1892 17.6474 19.5048 17.6563 19.7638 17.7748C19.7879 17.7857 19.8127 17.7886 19.8383 17.7835C19.9393 17.7649 20.0354 17.7703 20.1267 17.7998Z" fill="#2161C0"/>
<path d="M19.2607 18.3206C19.2999 18.4119 19.3609 18.4882 19.4436 18.5495C19.4466 18.5517 19.4501 18.553 19.4537 18.5531C19.4574 18.5533 19.461 18.5523 19.4641 18.5504C19.4672 18.5484 19.4697 18.5455 19.4711 18.5422C19.4725 18.5388 19.4729 18.5351 19.4722 18.5315C19.466 18.4961 19.4491 18.4666 19.4215 18.4429C19.4137 18.4363 19.4082 18.4275 19.4057 18.4176C19.4032 18.4077 19.4038 18.3972 19.4076 18.3877C19.4113 18.3782 19.4179 18.3701 19.4264 18.3646C19.435 18.359 19.4451 18.3563 19.4553 18.3567L19.5362 18.3602C19.5557 18.361 19.5714 18.3689 19.5834 18.3841L20.1135 19.0621L20.1252 19.2276C20.0075 19.254 19.9124 19.2332 19.8397 19.1653C19.8234 19.1501 19.8155 19.1315 19.8159 19.1093C19.8159 19.0818 19.8141 19.0542 19.8106 19.0266C19.8009 18.9563 19.7795 18.9526 19.7465 19.0155L19.6527 19.1932C19.643 19.2119 19.6423 19.2307 19.6504 19.2497L19.7028 19.3709C19.7141 19.3965 19.7106 19.42 19.6924 19.4414C19.6116 19.5357 19.5329 19.6284 19.4564 19.7192C19.3784 19.8119 19.27 19.862 19.1727 19.9307C19.1649 19.9361 19.1595 19.9444 19.1577 19.9537C19.1558 19.9631 19.1577 19.9728 19.1628 19.9808C19.2386 20.0979 19.3749 20.2552 19.3737 20.3973C19.3729 20.4567 19.3438 20.4942 19.2863 20.5097L19.1436 20.5482C19.0788 20.566 19.0487 20.5414 19.0533 20.4742C19.0619 20.3429 19.0192 20.2423 18.9252 20.1724C18.9042 20.1573 18.892 20.1369 18.8885 20.1113L18.871 19.9936C18.8685 19.9773 18.8603 19.9624 18.848 19.9516C18.8356 19.9409 18.8198 19.9349 18.8034 19.9348C18.631 19.9336 18.3992 19.9528 18.2628 19.8509C18.2454 19.8377 18.226 19.8334 18.2046 19.8381C18.1386 19.8528 18.0813 19.8901 18.0327 19.9499C17.9951 19.9969 17.9999 20.0388 18.0473 20.0757C18.1848 20.1823 18.2891 20.134 18.4324 20.1928C18.4444 20.1977 18.4551 20.2054 18.4636 20.2153C18.472 20.2253 18.478 20.2371 18.4809 20.2498C18.4838 20.2624 18.4836 20.2757 18.4803 20.2883C18.4771 20.3009 18.4708 20.3125 18.4621 20.3221L18.3875 20.4043C18.3798 20.4127 18.3748 20.4233 18.3733 20.4347C18.3717 20.446 18.3736 20.4576 18.3788 20.4678C18.5096 20.7307 18.6384 20.9567 18.765 21.1458C18.7995 21.1975 18.8079 21.2526 18.79 21.3113C18.7601 21.4087 18.7428 21.4884 18.7382 21.5501C18.0628 21.5004 17.3931 21.401 16.7291 21.2519C16.7081 21.2472 16.6968 21.2342 16.6953 21.2128C16.6094 20.054 16.7063 18.9443 16.986 17.8837C16.9874 17.8781 16.99 17.8729 16.9936 17.8683C16.9971 17.8637 17.0015 17.8599 17.0066 17.857C17.0117 17.8542 17.0172 17.8524 17.023 17.8518C17.0288 17.8512 17.0346 17.8517 17.0401 17.8534C17.7625 18.062 18.5104 18.2 19.2607 18.3206Z" fill="#80C142"/>
<path d="M24.862 20.9722C24.7688 20.8487 24.7008 20.7083 24.6581 20.551C24.6573 20.5477 24.6555 20.5447 24.6529 20.5424C24.6503 20.54 24.6471 20.5383 24.6436 20.5376L24.6057 20.5301C24.5925 20.5273 24.5874 20.5328 24.5906 20.5464C24.629 20.711 24.6923 20.8619 24.7805 20.999L24.5323 21.0747C24.5012 20.8778 24.4546 20.6891 24.3925 20.5085C24.3478 20.3796 24.2859 20.2503 24.2067 20.1205C24.0603 19.8809 23.9723 19.5877 23.9428 19.2409C23.9207 18.9753 24.0587 18.6753 24.1688 18.4283C24.2092 18.3382 24.1995 18.2448 24.1397 18.1481L25.3909 17.8452C25.3998 17.8431 25.4092 17.8441 25.4174 17.848C25.4257 17.8519 25.4324 17.8585 25.4364 17.8668C25.6764 18.359 25.8605 18.9054 25.935 19.4489C25.975 19.7429 26.0063 20.025 26.0288 20.2953C26.0366 20.3873 26.0311 20.478 26.0125 20.5673C26.0082 20.5879 25.9962 20.6023 25.9764 20.6104C25.6482 20.7405 25.3162 20.8553 24.9803 20.9547C24.9453 20.9648 24.9059 20.9706 24.862 20.9722Z" fill="#80C142"/>
<path d="M20.2291 17.8592C20.3087 17.8542 20.3656 17.8812 20.3998 17.9402C20.4922 18.1018 20.5716 18.2202 20.638 18.2956C20.6318 18.2967 20.6266 18.2996 20.6223 18.3043C20.6114 18.3155 20.5982 18.3208 20.5827 18.32L20.2623 18.3002C20.2394 18.2987 20.2281 18.2866 20.2285 18.2641L20.2291 17.8592Z" fill="#2161C0"/>
<path d="M24.1405 18.1482C24.2003 18.2449 24.21 18.3383 24.1696 18.4284C24.0595 18.6754 23.9214 18.9754 23.9436 19.241C23.9731 19.5878 24.061 19.881 24.2074 20.1206C24.2867 20.2503 24.3486 20.3796 24.3933 20.5086C24.4554 20.6892 24.502 20.8779 24.5331 21.0748L23.6185 21.2897C23.6145 21.2907 23.6104 21.2906 23.6064 21.2897C23.6024 21.2887 23.5987 21.2868 23.5956 21.2841C23.5925 21.2815 23.59 21.2781 23.5885 21.2743C23.5869 21.2706 23.5862 21.2665 23.5865 21.2624C23.6669 20.2663 23.6071 19.2777 23.4071 18.2967C23.404 18.282 23.4098 18.2732 23.4245 18.2705L24.1405 18.1482Z" fill="#2161C0"/>
<path d="M20.2372 20.3419L20.3905 20.3232C20.4522 20.3159 20.4858 20.2813 20.4912 20.2195C20.5072 20.0289 20.5466 19.836 20.6095 19.6411C20.632 19.572 20.6106 19.5211 20.5454 19.4885L20.5122 19.4716C20.4683 19.4494 20.445 19.4628 20.4423 19.5118C20.433 19.6741 20.3681 19.8289 20.2477 19.976L20.2262 18.426C20.2262 18.4226 20.2269 18.4193 20.2282 18.4162C20.2295 18.4131 20.2315 18.4103 20.234 18.408C20.2364 18.4057 20.2393 18.4039 20.2425 18.4028C20.2457 18.4017 20.249 18.4012 20.2524 18.4015L20.7493 18.4359L21.1308 18.6858C21.1495 18.6978 21.1596 18.6927 21.1611 18.6706C21.1666 18.5949 21.1541 18.5172 21.1238 18.4376C21.838 18.4137 22.5505 18.3823 23.253 18.2972C23.2883 18.2929 23.3095 18.3081 23.3165 18.3427C23.5145 19.296 23.5722 20.277 23.4895 21.2856C23.4871 21.312 23.4728 21.3277 23.4464 21.3327C22.3916 21.53 21.3279 21.6254 20.2553 21.6188C20.2351 21.6184 20.2252 21.6083 20.2256 21.5885L20.2372 20.3419ZM20.3258 19.1122C20.352 19.259 20.4475 19.372 20.592 19.425C20.6065 19.4303 20.6219 19.4326 20.6373 19.4317C20.6527 19.4309 20.6677 19.4268 20.6815 19.4199C20.6952 19.4129 20.7074 19.4033 20.7173 19.3914C20.7272 19.3796 20.7345 19.3658 20.7388 19.351C20.8046 19.1244 20.5 19.0597 20.3392 19.0924C20.3283 19.0943 20.3238 19.1009 20.3258 19.1122Z" fill="#2161C0"/>
<path d="M19.2607 18.3206L20.0879 18.394C20.1089 18.3959 20.1192 18.4074 20.1188 18.4283L20.1136 19.0621L19.5835 18.3841C19.5714 18.3689 19.5557 18.3609 19.5363 18.3602L19.4553 18.3567C19.4451 18.3562 19.435 18.359 19.4265 18.3645C19.4179 18.3701 19.4113 18.3782 19.4076 18.3877C19.4039 18.3972 19.4032 18.4076 19.4057 18.4175C19.4082 18.4274 19.4137 18.4363 19.4215 18.4429C19.4491 18.4666 19.466 18.4961 19.4722 18.5314C19.4729 18.535 19.4726 18.5388 19.4711 18.5421C19.4697 18.5455 19.4673 18.5484 19.4642 18.5503C19.4611 18.5523 19.4574 18.5532 19.4538 18.5531C19.4501 18.553 19.4466 18.5517 19.4437 18.5495C19.3609 18.4881 19.3 18.4118 19.2607 18.3206Z" fill="#2161C0"/>
<path d="M20.749 18.4359L21.1236 18.4377C21.1539 18.5173 21.1663 18.5949 21.1609 18.6707C21.1593 18.6928 21.1492 18.6979 21.1306 18.6858L20.749 18.4359Z" fill="#80C142"/>
<path d="M20.1253 19.2276L20.1113 20.0815C20.0309 20.127 19.9767 20.198 19.8981 20.233C19.8101 20.2714 19.7257 20.2825 19.6488 20.3437C19.5719 20.4054 19.4934 20.4606 19.4134 20.5091C19.3855 20.5262 19.3781 20.5495 19.3913 20.579L19.481 20.7759C19.4996 20.8171 19.5185 20.8173 19.5375 20.7765C19.5744 20.6965 19.595 20.6103 19.5992 20.5178C19.6004 20.4926 19.6047 20.4922 19.6121 20.5167C19.6323 20.5815 19.6585 20.6027 19.6907 20.5802C19.8185 20.4905 19.961 20.419 20.1183 20.3658L20.1177 21.5833C20.1177 21.6031 20.1076 21.6132 20.0874 21.6136C19.6377 21.6221 19.188 21.601 18.7383 21.5501C18.7429 21.4883 18.7602 21.4087 18.7901 21.3112C18.808 21.2526 18.7996 21.1975 18.7651 21.1458C18.6385 20.9567 18.5097 20.7307 18.3789 20.4678C18.3737 20.4575 18.3718 20.446 18.3734 20.4346C18.3749 20.4233 18.3799 20.4127 18.3876 20.4043L18.4622 20.3221C18.4709 20.3125 18.4772 20.3008 18.4804 20.2882C18.4837 20.2756 18.4839 20.2624 18.481 20.2497C18.4781 20.237 18.4721 20.2252 18.4637 20.2153C18.4552 20.2054 18.4445 20.1977 18.4325 20.1928C18.2892 20.134 18.1849 20.1823 18.0474 20.0757C18 20.0388 17.9952 19.9969 18.0328 19.9499C18.0814 19.8901 18.1387 19.8528 18.2047 19.838C18.226 19.8334 18.2455 19.8377 18.2629 19.8509C18.3992 19.9528 18.6311 19.9336 18.8035 19.9347C18.8199 19.9348 18.8357 19.9408 18.848 19.9516C18.8604 19.9624 18.8686 19.9773 18.8711 19.9936L18.8886 20.1112C18.8921 20.1369 18.9043 20.1573 18.9253 20.1724C19.0192 20.2423 19.062 20.3429 19.0534 20.4742C19.0488 20.5413 19.0789 20.566 19.1437 20.5481L19.2864 20.5097C19.3439 20.4942 19.373 20.4567 19.3738 20.3973C19.375 20.2551 19.2387 20.0978 19.1629 19.9808C19.1578 19.9728 19.1559 19.9631 19.1577 19.9537C19.1596 19.9444 19.165 19.9361 19.1728 19.9307C19.2701 19.8619 19.3785 19.8118 19.4565 19.7192C19.533 19.6283 19.6117 19.5357 19.6925 19.4413C19.7107 19.42 19.7142 19.3965 19.7029 19.3709L19.6505 19.2497C19.6424 19.2307 19.6431 19.2118 19.6528 19.1932L19.7466 19.0155C19.7796 18.9526 19.801 18.9563 19.8107 19.0266C19.8142 19.0542 19.8159 19.0817 19.8159 19.1093C19.8156 19.1314 19.8235 19.1501 19.8398 19.1652C19.9125 19.2332 20.0076 19.254 20.1253 19.2276Z" fill="#2161C0"/>
<path d="M20.5919 19.425C20.4474 19.372 20.3519 19.259 20.3256 19.1122C20.3237 19.1009 20.3282 19.0943 20.339 19.0924C20.4998 19.0598 20.8045 19.1244 20.7386 19.351C20.7343 19.3658 20.727 19.3796 20.7171 19.3914C20.7073 19.4033 20.6951 19.413 20.6813 19.4199C20.6676 19.4269 20.6525 19.4309 20.6371 19.4318C20.6217 19.4326 20.6063 19.4303 20.5919 19.425Z" fill="#80C142"/>
<path d="M20.2374 20.3419C20.216 20.2029 20.2195 20.081 20.2479 19.9761C20.3683 19.8289 20.4331 19.6742 20.4424 19.5118C20.4452 19.4629 20.4685 19.4495 20.5124 19.4716L20.5456 19.4885C20.6108 19.5212 20.6322 19.572 20.6096 19.6412C20.5467 19.8361 20.5073 20.0289 20.4914 20.2196C20.4859 20.2814 20.4524 20.3159 20.3906 20.3233L20.2374 20.3419Z" fill="#80C142"/>
<path d="M20.1111 20.0815L20.1181 20.3658C19.9608 20.419 19.8183 20.4905 19.6905 20.5802C19.6583 20.6027 19.6321 20.5815 19.6119 20.5167C19.6045 20.4922 19.6002 20.4926 19.5991 20.5179C19.5948 20.6103 19.5742 20.6965 19.5373 20.7765C19.5183 20.8173 19.4995 20.8171 19.4808 20.7759L19.3911 20.579C19.3779 20.5495 19.3853 20.5262 19.4133 20.5091C19.4933 20.4606 19.5717 20.4054 19.6486 20.3437C19.7255 20.2825 19.81 20.2714 19.8979 20.233C19.9766 20.198 20.0307 20.127 20.1111 20.0815Z" fill="#80C142"/>
<path d="M24.8622 20.9722C24.8354 20.9746 24.8082 20.9835 24.7806 20.999C24.6925 20.8619 24.6292 20.7111 24.5907 20.5464C24.5876 20.5328 24.5927 20.5274 24.6059 20.5301L24.6437 20.5377C24.6473 20.5384 24.6505 20.54 24.6531 20.5424C24.6557 20.5448 24.6575 20.5478 24.6583 20.5511C24.701 20.7084 24.769 20.8487 24.8622 20.9722Z" fill="#2161C0"/>
<path d="M17.171 23.8843C17.0265 23.7588 16.8754 23.6728 16.7178 23.6262C16.6937 23.6192 16.6774 23.6276 16.6688 23.6513C16.623 23.7794 16.5925 23.9089 16.5774 24.0398C16.5755 24.0572 16.5794 24.0748 16.5884 24.0899L16.6752 24.2332L16.4044 24.186C16.4335 23.9666 16.4694 23.7534 16.5121 23.5464C16.5362 23.4299 16.4822 23.3254 16.3502 23.233C16.3365 23.2235 16.3262 23.2103 16.3205 23.1951C16.3178 23.1882 16.3145 23.1814 16.3106 23.1748C16.3086 23.1712 16.3058 23.1681 16.3024 23.1657C16.299 23.1633 16.2952 23.1617 16.2911 23.1609C16.287 23.1602 16.2829 23.1604 16.2789 23.1615C16.2749 23.1626 16.2712 23.1645 16.2681 23.1672L16.1958 23.2284C16.1851 23.2373 16.1722 23.2433 16.1584 23.2457C16.1447 23.2481 16.1306 23.2468 16.1175 23.242C16.1044 23.2373 16.0929 23.2291 16.084 23.2184C16.0752 23.2077 16.0693 23.1949 16.0671 23.1812C16.0071 22.8247 15.7275 22.6004 15.4904 22.3505C15.4756 22.335 15.4576 22.3264 15.4362 22.3249C15.343 22.3186 15.2566 22.3402 15.177 22.3895C15.1265 22.4206 15.0721 22.4911 15.0139 22.601C14.9389 22.7419 14.8486 22.8753 14.743 23.0012C14.369 22.2548 14.1653 21.453 14.1319 20.5959C14.1304 20.5614 14.1455 20.5509 14.1774 20.5645C14.9521 20.8899 15.7508 21.1418 16.5733 21.32C16.5939 21.3247 16.6051 21.3375 16.6071 21.3585C16.6817 22.2171 16.8696 23.059 17.171 23.8843Z" fill="#80C142"/>
<path d="M25.5813 22.6056C25.4318 22.3831 25.3401 22.1427 25.3063 21.8844C25.2923 21.7761 25.2516 21.62 25.2067 21.5518C25.1108 21.4046 25.0149 21.2477 24.9189 21.0811L25.9855 20.72C25.9882 20.7191 25.9909 20.7189 25.9936 20.7194C25.9963 20.7198 25.9989 20.7209 26.0011 20.7226C26.0032 20.7242 26.005 20.7264 26.0061 20.7289C26.0073 20.7314 26.0078 20.7341 26.0077 20.7368C25.9778 21.4025 25.8356 22.0254 25.5813 22.6056Z" fill="#80C142"/>
<path d="M24.9194 21.0812C25.0153 21.2478 25.1112 21.4047 25.2072 21.5519C25.252 21.62 25.2928 21.7761 25.3068 21.8845C25.3406 22.1427 25.4322 22.3831 25.5817 22.6056C25.3918 23.0864 25.1142 23.5627 24.7487 24.0346C24.6742 24.1309 24.6017 24.1853 24.5314 24.1977C23.9419 24.3002 23.3642 24.3788 22.7984 24.4336C22.795 24.4339 22.7916 24.4334 22.7885 24.4319C22.7854 24.4305 22.7828 24.4283 22.7808 24.4255C22.7789 24.4227 22.7777 24.4195 22.7774 24.4161C22.7771 24.4127 22.7777 24.4093 22.7792 24.4062C23.2149 23.4893 23.4776 22.4988 23.5674 21.4348C23.5689 21.4146 23.5796 21.4023 23.5994 21.3981L24.6444 21.1668C24.7124 21.2453 24.7654 21.3348 24.8035 21.4354C24.8171 21.4707 24.8345 21.5039 24.8559 21.535C24.8885 21.5827 24.9231 21.5963 24.9596 21.5757C24.9685 21.5707 24.9712 21.5631 24.9677 21.553L24.8349 21.2128C24.8315 21.204 24.8299 21.1947 24.8303 21.1854C24.8314 21.1408 24.8142 21.1214 24.7784 21.1272C24.8359 21.1315 24.8829 21.1161 24.9194 21.0812Z" fill="#2161C0"/>
<path d="M24.7785 21.1272C24.8142 21.1214 24.8315 21.1408 24.8304 21.1855C24.83 21.1947 24.8316 21.204 24.835 21.2129L24.9678 21.5531C24.9713 21.5632 24.9686 21.5707 24.9597 21.5758C24.9232 21.5964 24.8886 21.5828 24.856 21.535C24.8346 21.5039 24.8172 21.4707 24.8036 21.4354C24.7655 21.3348 24.7125 21.2453 24.6445 21.1668L24.7785 21.1272Z" fill="#80C142"/>
<path d="M18.6931 21.652C18.6049 21.8171 18.5096 21.9691 18.4071 22.1081C18.3244 22.22 18.2061 22.28 18.0908 22.3505C17.9248 22.4518 17.5974 22.7291 17.7622 22.9511C17.8745 23.1021 17.8972 23.267 17.8304 23.4456C17.8253 23.4592 17.8157 23.4705 17.8031 23.4778C17.7906 23.485 17.7759 23.4876 17.7616 23.4852L17.556 23.4485C17.5442 23.4464 17.5321 23.4469 17.5205 23.4498C17.5089 23.4528 17.4981 23.4581 17.4888 23.4656C17.4794 23.473 17.4718 23.4824 17.4664 23.493C17.4611 23.5036 17.458 23.5153 17.4576 23.5272C17.4541 23.6052 17.4807 23.678 17.5374 23.7456C17.5471 23.7572 17.5529 23.7716 17.5537 23.7866C17.5546 23.8016 17.5505 23.8165 17.542 23.8289L17.3719 24.0835C17.0022 23.2116 16.7822 22.3074 16.7119 21.3707C16.7118 21.3687 16.7121 21.3668 16.7129 21.365C16.7136 21.3632 16.7148 21.3616 16.7162 21.3603C16.7177 21.359 16.7194 21.358 16.7213 21.3575C16.7232 21.357 16.7252 21.3569 16.7271 21.3573C17.3741 21.4893 18.0294 21.5876 18.6931 21.652Z" fill="#80C142"/>
<path d="M22.0242 24.482C21.8793 24.4066 21.7304 24.3598 21.5774 24.3416C21.4731 24.3293 21.4021 24.2967 21.3106 24.253C21.2197 24.2099 21.1055 24.2175 21.0094 24.2291C21.0006 24.2302 20.9922 24.2335 20.9851 24.2388C20.978 24.2441 20.9724 24.2511 20.9688 24.2593C20.9653 24.2674 20.9639 24.2763 20.9649 24.2852C20.9659 24.294 20.9692 24.3024 20.9745 24.3095C21.0219 24.3744 21.0487 24.4491 21.0549 24.5338L20.2492 24.542C20.2314 24.5423 20.2224 24.5334 20.2224 24.5152L20.2178 21.7371C20.2177 21.7331 20.2184 21.7291 20.2199 21.7254C20.2214 21.7217 20.2236 21.7183 20.2265 21.7155C20.2293 21.7127 20.2327 21.7104 20.2364 21.709C20.2401 21.7075 20.2441 21.7067 20.2481 21.7068C21.3312 21.7177 22.3935 21.6253 23.4351 21.4295C23.4607 21.4249 23.4723 21.4355 23.47 21.4616C23.3764 22.5144 23.11 23.4971 22.6708 24.4097C22.6651 24.4214 22.6564 24.4313 22.6457 24.4385C22.6349 24.4456 22.6225 24.4498 22.6096 24.4505L22.0242 24.482Z" fill="#2161C0"/>
<path d="M18.6932 21.6521L20.0989 21.7086C20.1167 21.7094 20.1257 21.7187 20.1257 21.7366L20.1245 24.4995C20.1245 24.5204 20.1142 24.5305 20.0936 24.5298L19.5635 24.5164C19.5841 24.4748 19.6014 24.4323 19.6154 24.3888C19.666 24.2321 19.8781 24.1476 19.8297 23.9659C19.8076 23.8839 19.8041 23.8001 19.8193 23.7142C19.8249 23.6816 19.8229 23.6482 19.8135 23.6165C19.8041 23.5847 19.7875 23.5556 19.7651 23.5313L19.7027 23.4632C19.6515 23.4076 19.6121 23.415 19.5845 23.4853C19.5383 23.6018 19.4779 23.694 19.4033 23.762C19.3002 23.8558 19.1255 23.8581 18.9944 23.9047C18.8511 23.9554 18.9105 24.1884 18.9787 24.2682C19.0548 24.356 19.167 24.4267 19.3154 24.4803L18.7637 24.4674C18.5827 24.2166 18.4008 23.9814 18.2179 23.762C18.1662 23.7003 18.1101 23.6647 18.0495 23.6554C18.0409 23.6541 18.0322 23.6551 18.0241 23.6582C18.016 23.6614 18.0088 23.6666 18.0034 23.6734C17.998 23.6802 17.9944 23.6883 17.9931 23.6969C17.9918 23.7055 17.9928 23.7143 17.996 23.7224C18.0911 23.9655 18.221 24.2053 18.3857 24.4418L17.5497 24.3678C17.5347 24.3664 17.5202 24.3611 17.5079 24.3523C17.4955 24.3435 17.4856 24.3316 17.4793 24.3177L17.3721 24.0836L17.5422 23.829C17.5506 23.8166 17.5547 23.8017 17.5539 23.7867C17.553 23.7716 17.5473 23.7572 17.5375 23.7457C17.4808 23.6781 17.4542 23.6053 17.4577 23.5272C17.4582 23.5154 17.4612 23.5037 17.4666 23.4931C17.472 23.4825 17.4796 23.4731 17.4889 23.4657C17.4982 23.4582 17.509 23.4528 17.5206 23.4499C17.5322 23.4469 17.5444 23.4465 17.5561 23.4486L17.7618 23.4853C17.7761 23.4877 17.7907 23.4851 17.8033 23.4778C17.8158 23.4706 17.8254 23.4592 17.8305 23.4457C17.8973 23.2671 17.8746 23.1022 17.7624 22.9511C17.5975 22.7292 17.9249 22.4519 18.0909 22.3505C18.2062 22.2801 18.3245 22.2201 18.4072 22.1082C18.5097 21.9692 18.6051 21.8171 18.6932 21.6521Z" fill="#2161C0"/>
<path d="M16.4045 24.1861L15.3781 23.9833C15.3545 23.9789 15.3335 23.9658 15.3193 23.9466C15.0987 23.6558 14.9067 23.3406 14.7432 23.0012C14.8488 22.8754 14.9391 22.742 15.014 22.601C15.0723 22.4911 15.1267 22.4206 15.1771 22.3896C15.2568 22.3402 15.3432 22.3187 15.4364 22.3249C15.4577 22.3264 15.4758 22.335 15.4905 22.3505C15.7276 22.6004 16.0072 22.8247 16.0672 23.1812C16.0695 23.1949 16.0753 23.2077 16.0842 23.2184C16.093 23.2291 16.1046 23.2373 16.1176 23.2421C16.1307 23.2469 16.1448 23.2481 16.1586 23.2457C16.1724 23.2433 16.1853 23.2373 16.196 23.2284L16.2682 23.1672C16.2714 23.1645 16.2751 23.1626 16.279 23.1615C16.283 23.1604 16.2872 23.1602 16.2913 23.161C16.2953 23.1617 16.2992 23.1633 16.3026 23.1657C16.3059 23.1681 16.3087 23.1712 16.3107 23.1748C16.3146 23.1814 16.3179 23.1882 16.3206 23.1952C16.3263 23.2103 16.3367 23.2235 16.3503 23.2331C16.4824 23.3255 16.5364 23.4299 16.5123 23.5464C16.4696 23.7534 16.4336 23.9666 16.4045 24.1861Z" fill="#2161C0"/>
<path d="M19.5634 24.5162C19.4628 24.5178 19.3801 24.5058 19.3152 24.4801C19.1669 24.4265 19.0546 24.3558 18.9785 24.2681C18.9103 24.1883 18.8509 23.9553 18.9942 23.9046C19.1253 23.858 19.3001 23.8557 19.4032 23.7619C19.4777 23.6939 19.5381 23.6017 19.5843 23.4852C19.6119 23.4149 19.6513 23.4075 19.7026 23.463L19.7649 23.5312C19.7874 23.5555 19.8039 23.5846 19.8133 23.6163C19.8227 23.648 19.8247 23.6815 19.8191 23.7141C19.8039 23.7999 19.8074 23.8838 19.8296 23.9658C19.8779 24.1475 19.6659 24.232 19.6152 24.3887C19.6012 24.4322 19.5839 24.4747 19.5634 24.5162Z" fill="#80C142"/>
<path d="M17.1712 23.8842L17.3518 24.3066C17.3603 24.3264 17.3539 24.3347 17.3326 24.3316L16.6755 24.2332L16.5887 24.0899C16.5796 24.0747 16.5757 24.0571 16.5776 24.0398C16.5928 23.9089 16.6232 23.7794 16.6691 23.6512C16.6776 23.6275 16.6939 23.6192 16.718 23.6262C16.8757 23.6728 17.0267 23.7588 17.1712 23.8842Z" fill="#2161C0"/>
<path d="M18.7643 24.4674C18.5876 24.4771 18.4616 24.4686 18.3863 24.4418C18.2216 24.2053 18.0917 23.9655 17.9966 23.7223C17.9934 23.7142 17.9924 23.7055 17.9937 23.6969C17.995 23.6883 17.9986 23.6802 18.004 23.6734C18.0094 23.6666 18.0166 23.6613 18.0247 23.6582C18.0328 23.655 18.0416 23.654 18.0502 23.6554C18.1107 23.6647 18.1669 23.7002 18.2185 23.762C18.4014 23.9814 18.5834 24.2165 18.7643 24.4674Z" fill="#80C142"/>
<path d="M16.4626 24.3084C16.5033 24.3518 16.5443 24.3924 16.5855 24.4301C16.634 24.4748 16.6688 24.5221 16.6897 24.5722C16.7678 24.7592 16.8587 24.9759 17.0037 25.1181C17.0721 25.1852 17.0998 25.1713 17.087 25.0761C17.0758 24.9918 17.0674 24.9095 17.062 24.8291C17.0509 24.6567 16.9594 24.5204 16.8657 24.3788L17.4057 24.4517C17.4255 24.4544 17.4396 24.4647 17.4482 24.4825C17.7321 25.0744 18.1226 25.5798 18.6196 25.9988C18.6589 26.0318 18.653 26.0491 18.6022 26.0507C18.4391 26.0565 18.2695 26.0284 18.0936 25.9662C17.2528 25.6707 16.5138 25.212 15.8765 24.5903C15.7278 24.445 15.5956 24.2961 15.4798 24.1435C15.4554 24.1117 15.4629 24.0998 15.5026 24.108L16.4626 24.3084Z" fill="#2161C0"/>
<path d="M22.0244 24.482L21.0551 24.5338C21.0489 24.4492 21.0221 24.3744 20.9747 24.3096C20.9695 24.3024 20.9662 24.294 20.9652 24.2852C20.9642 24.2764 20.9655 24.2674 20.969 24.2593C20.9726 24.2512 20.9782 24.2441 20.9853 24.2388C20.9925 24.2335 21.0008 24.2302 21.0097 24.2292C21.1058 24.2175 21.22 24.2099 21.3108 24.253C21.4023 24.2967 21.4734 24.3294 21.5776 24.3416C21.7306 24.3598 21.8796 24.4066 22.0244 24.482Z" fill="#80C142"/>
<path d="M21.9941 25.9773C22.104 25.7979 22.1318 25.6433 22.0774 25.5136L22.3139 25.2125C22.4254 25.3022 22.5365 25.3554 22.6472 25.3721C22.6534 25.3731 22.6599 25.3723 22.6658 25.3699C22.6717 25.3676 22.6769 25.3636 22.6807 25.3585C22.6846 25.3533 22.687 25.3473 22.6878 25.3408C22.6885 25.3344 22.6876 25.3279 22.685 25.322L22.5038 24.9195L22.7077 24.5635C22.7174 24.5468 22.732 24.5375 22.7514 24.5356C23.3444 24.4758 23.9058 24.4006 24.4355 24.3101C24.5136 24.2965 24.5256 24.3189 24.4716 24.3771C23.7842 25.1231 22.9584 25.6565 21.9941 25.9773Z" fill="#2161C0"/>
<path d="M16.4619 24.3083L16.865 24.3788C16.9588 24.5204 17.0503 24.6567 17.0613 24.8291C17.0668 24.9095 17.0751 24.9918 17.0864 25.0761C17.0992 25.1713 17.0714 25.1852 17.0031 25.1181C16.858 24.9759 16.7672 24.7592 16.6891 24.5722C16.6681 24.5221 16.6334 24.4748 16.5848 24.4301C16.5437 24.3924 16.5027 24.3518 16.4619 24.3083Z" fill="#80C142"/>
<path d="M18.4839 24.5623C18.4998 24.6035 18.5437 24.6408 18.6155 24.6742C18.6381 24.6982 18.6674 24.7188 18.7035 24.7359C18.7785 24.8283 18.8519 24.8728 18.9237 24.8693C19.0775 24.8615 19.228 24.8796 19.3752 24.9235C19.3792 24.9246 19.3835 24.9244 19.3874 24.9228C19.3913 24.9212 19.3946 24.9184 19.3967 24.9149C19.3988 24.9113 19.3996 24.9071 19.399 24.9031C19.3983 24.899 19.3963 24.8953 19.3932 24.8926L19.1765 24.6899L19.1719 24.6485C19.1695 24.6276 19.1788 24.6173 19.1998 24.6177L20.0922 24.6322C20.1152 24.6326 20.1264 24.6443 20.126 24.6672L20.1132 25.8625C20.0247 25.8652 19.9726 25.9111 19.9571 26C19.9536 26.0186 19.9445 26.0342 19.9297 26.0466C19.9049 26.0676 19.8858 26.0909 19.8726 26.1165C19.5736 26.1099 19.2717 26.0942 18.9668 26.0693C18.894 26.0635 18.8526 26.0524 18.7932 26.0087C18.2969 25.641 17.892 25.1412 17.5786 24.5093C17.567 24.486 17.5742 24.4755 17.6002 24.4779L18.4839 24.5623Z" fill="#2161C0"/>
<path d="M18.4834 24.5624L18.6692 24.5781C18.6758 24.5786 18.6822 24.5807 18.6877 24.5843C18.6933 24.5878 18.6979 24.5927 18.7011 24.5985C18.7043 24.6043 18.7059 24.6108 18.706 24.6174C18.706 24.624 18.7044 24.6305 18.7013 24.6364C18.6838 24.6678 18.655 24.6804 18.615 24.6742C18.5432 24.6408 18.4993 24.6035 18.4834 24.5624Z" fill="#80C142"/>
<path d="M22.4351 24.8081C22.3283 24.7452 22.2588 24.6714 22.2266 24.5867L22.5464 24.5617C22.5693 24.5601 22.5749 24.5691 22.5633 24.5885L22.4351 24.8081Z" fill="#2161C0"/>
<path d="M22.2274 24.5868C22.2597 24.6715 22.3292 24.7452 22.436 24.8082L22.2245 25.1379C22.0746 25.0951 21.9226 25.052 21.7684 25.0085C21.6884 24.986 21.6416 24.9629 21.628 24.9392C21.5632 24.8266 21.4674 24.725 21.3408 24.6346L22.2274 24.5868Z" fill="#80C142"/>
<path d="M19.1761 24.6899L19.3928 24.8927C19.3959 24.8954 19.398 24.8991 19.3986 24.9031C19.3992 24.9072 19.3984 24.9113 19.3963 24.9149C19.3942 24.9185 19.391 24.9213 19.387 24.9229C19.3831 24.9244 19.3788 24.9247 19.3748 24.9235C19.2276 24.8796 19.0771 24.8616 18.9233 24.8694C18.8515 24.8728 18.7781 24.8284 18.7031 24.736C18.7078 24.656 18.7369 24.6183 18.7905 24.6229C18.8726 24.6305 18.9437 24.7161 19.0556 24.6649C19.1072 24.6416 19.1474 24.6499 19.1761 24.6899Z" fill="#80C142"/>
<path d="M21.3405 24.6345C21.4671 24.725 21.5628 24.8266 21.6277 24.9392C21.6413 24.9629 21.6881 24.986 21.7681 25.0085C21.9223 25.052 22.0743 25.0951 22.2242 25.1378C22.0836 25.3588 21.9081 25.5625 21.6976 25.7489C21.512 25.6464 21.3285 25.5371 21.1471 25.4209C21.0873 25.3825 21.0034 25.3687 20.8955 25.3796C20.8201 25.3874 20.7452 25.419 20.6706 25.4745C20.5234 25.5837 20.3764 25.7027 20.2296 25.8316L20.2227 24.6666C20.2227 24.6568 20.2265 24.6475 20.2334 24.6406C20.2403 24.6337 20.2496 24.6299 20.2594 24.6299L21.3405 24.6345Z" fill="#2161C0"/>
<path d="M22.5034 24.9194L22.6845 25.322C22.6871 25.3279 22.6881 25.3344 22.6873 25.3408C22.6866 25.3472 22.6841 25.3533 22.6803 25.3584C22.6764 25.3636 22.6712 25.3675 22.6653 25.3699C22.6594 25.3723 22.653 25.3731 22.6467 25.3721C22.536 25.3554 22.4249 25.3022 22.3135 25.2124L22.5034 24.9194Z" fill="#80C142"/>
<path d="M21.6978 25.7489C21.6093 25.8417 21.4846 25.9436 21.3238 26.0547C21.2423 26.111 21.1518 26.1394 21.0524 26.1398C20.7596 26.1409 20.4908 26.1405 20.2462 26.1386C20.2424 26.1385 20.2388 26.1377 20.2354 26.1362C20.232 26.1347 20.2289 26.1325 20.2263 26.1298C20.2238 26.1271 20.2218 26.1239 20.2205 26.1204C20.2192 26.1169 20.2186 26.1132 20.2188 26.1095L20.2298 25.8316C20.3766 25.7027 20.5236 25.5837 20.6708 25.4745C20.7454 25.419 20.8203 25.3873 20.8957 25.3796C21.0036 25.3687 21.0875 25.3825 21.1473 25.4209C21.3287 25.537 21.5122 25.6464 21.6978 25.7489Z" fill="#80C142"/>
<path d="M22.0768 25.5135C22.1312 25.6433 22.1034 25.7978 21.9935 25.9772C21.8417 26.0409 21.6716 26.0901 21.4832 26.1246C21.4335 26.1336 21.4271 26.1207 21.464 26.0862L22.0768 25.5135Z" fill="#80C142"/>
<path d="M20.1127 25.8625L20.1208 26.0886C20.1212 26.108 20.1119 26.12 20.0928 26.1247C20.0233 26.141 19.9497 26.1383 19.8721 26.1165C19.8853 26.0909 19.9043 26.0676 19.9292 26.0466C19.9439 26.0342 19.953 26.0187 19.9565 26C19.9721 25.9111 20.0241 25.8653 20.1127 25.8625Z" fill="#80C142"/>
<path d="M20.0958 26.2497L19.2108 26.1955C19.2012 26.1949 19.1929 26.2023 19.1923 26.2119L19.1912 26.2293C19.1906 26.239 19.198 26.2473 19.2076 26.2479L20.0925 26.302C20.1022 26.3026 20.1105 26.2952 20.1111 26.2856L20.1121 26.2682C20.1127 26.2585 20.1054 26.2502 20.0958 26.2497Z" fill="#80C142"/>
<path d="M20.8399 26.2295L20.2426 26.2504C20.2311 26.2508 20.222 26.2605 20.2224 26.2721L20.2225 26.2744C20.2229 26.286 20.2326 26.295 20.2442 26.2946L20.8415 26.2738C20.8531 26.2733 20.8621 26.2636 20.8617 26.2521L20.8616 26.2497C20.8612 26.2382 20.8515 26.2291 20.8399 26.2295Z" fill="#80C142"/>
<circle cx="20" cy="20" r="19.5" stroke="black" stroke-opacity="0.05"/>
</svg>
