<svg width="40" height="41" viewBox="0 0 40 41" fill="none" xmlns="http://www.w3.org/2000/svg">
<circle cx="20" cy="20.1895" r="20" fill="#2A89C8"/>
<path d="M20.6928 23.0354C19.5531 23.0442 19.5487 23.0456 19.3044 21.9791C18.5392 18.636 17.7989 15.2871 16.9957 11.9528C16.8274 11.2549 17.0483 11.1671 17.6409 11.1934C18.9576 11.252 20.1763 11.6324 21.376 12.1225C22.5455 12.6069 23.6738 13.1852 24.7498 13.8518C25.0146 14.0113 25.1887 14.1766 25.1887 14.5321C25.177 17.9908 25.1887 21.4509 25.177 24.9096C25.1626 25.0333 25.1382 25.1556 25.1039 25.2753C23.8574 24.042 22.5084 23.1334 20.6928 23.0354Z" fill="#FBFDFE"/>
<path d="M19.2573 24.9549C19.5119 25.9483 19.7548 26.8832 20.0459 28.0009C19.0218 27.5064 18.1249 27.0982 17.2661 26.6432C17.1037 26.5584 17.0232 26.2921 16.9384 26.096C15.1344 21.9249 13.3451 17.7479 11.5251 13.584C11.272 12.9988 11.3788 12.8525 11.9947 12.7706C13.0821 12.6514 14.1787 12.644 15.2676 12.7486C15.9596 12.8042 16.1908 13.1217 16.3502 13.7493C17.2807 17.4684 18.2668 21.1787 19.2573 24.9549Z" fill="#FCFEFE"/>
<path d="M12.6282 18.4109C13.7094 20.9829 14.7658 23.5052 15.8236 26.0261L15.6568 26.13C14.618 25.4335 13.4929 24.9303 12.8506 23.6618C11.5002 20.9917 10.0035 18.3948 8.52439 15.792C8.22153 15.2595 8.29176 14.8981 8.68385 14.5148C8.82284 14.3787 8.9516 14.2222 9.09936 14.1037C10.1937 13.1717 10.4395 13.2258 10.9896 14.5265C11.5397 15.8271 12.0664 17.0824 12.6282 18.4109Z" fill="#FBFDFE"/>
<path d="M27.4812 18.0476C28.4336 18.6328 28.7218 19.3307 28.5053 20.4514C27.9947 23.1025 27.648 25.7857 27.2602 28.4602C27.19 28.9444 26.9969 29.082 26.5126 29.0702C25.9903 29.0571 26.0737 28.722 26.0591 28.4309C25.9196 24.7547 25.7855 21.0781 25.6567 17.401C25.6625 17.2869 25.6767 17.1735 25.6992 17.0615C26.3375 17.3029 26.9376 17.635 27.4812 18.0476Z" fill="#FBFDFE"/>
<path d="M28.693 23.5431C28.8846 22.238 29.0631 20.9959 29.2592 19.6367C30.1194 20.2759 30.7829 21.1437 31.1743 22.1415C31.2016 22.2214 31.21 22.3067 31.1988 22.3904C31.1876 22.4742 31.1572 22.5542 31.1099 22.6243C30.1472 24.5565 29.1836 26.4887 28.2189 28.4209C28.1765 28.5057 28.1326 28.5994 27.96 28.5672C28.1984 26.9139 28.4384 25.2607 28.693 23.5431Z" fill="#F9FCFD"/>
<path d="M12.567 24.0975C11.2643 23.136 10.0755 22.0291 9.02348 20.7983C7.99934 19.5708 7.76672 18.1546 8.22319 16.4092C9.7316 19.0061 11.1493 21.4596 12.6036 23.96C12.6226 24.0346 12.6211 24.077 12.567 24.0975Z" fill="#F7FBFD"/>
<path d="M30.0842 27.7345C29.66 28.0125 29.3074 28.3095 28.7061 28.5114C29.6673 26.627 30.5685 24.8625 31.4932 23.0527C31.845 23.5793 32.0217 24.2035 31.9981 24.8363C31.9744 25.4692 31.7517 26.0784 31.3615 26.5772C30.9878 27.0168 30.5585 27.4059 30.0842 27.7345Z" fill="#F8FBFD"/>
<circle cx="20" cy="20.1895" r="19.5" stroke="black" stroke-opacity="0.05"/>
</svg>
