<svg width="40" height="40" viewBox="0 0 40 40" fill="none" xmlns="http://www.w3.org/2000/svg">
<circle cx="20" cy="20" r="20" fill="#FFB2B8"/>
<g clip-path="url(#clip0_18553_55671)">
<path d="M28.0681 24.9387C28.0681 24.9387 28.0397 24.9671 28.0254 24.9671H12.0444C12.0444 24.9671 12.0088 24.9529 12.0017 24.9387L8.04202 15.8249C8.0207 15.7752 8.03492 15.768 8.07757 15.7894C9.09416 16.3723 10.1463 16.8486 11.2979 17.0832C11.3335 17.0832 11.3548 17.1116 11.3619 17.1401C11.7956 18.5761 12.5278 20.2254 13.8572 20.9861C14.8809 21.5761 16.0752 21.4695 16.8643 20.5524C17.7316 19.5429 17.5254 17.7088 17.17 16.5287C17.1629 16.5003 17.17 16.4789 17.1913 16.4647C18.5989 15.2633 19.5444 13.7846 20.0278 12.0145C20.0349 11.9861 20.042 11.9861 20.0491 12.0145C20.5254 13.7704 21.4638 15.2562 22.8785 16.4647C22.8998 16.4861 22.907 16.5074 22.8998 16.5358C22.5231 17.8083 22.3027 19.7989 23.4117 20.7728C24.6558 21.8747 26.2624 21.2846 27.2079 20.1401C27.9046 19.2941 28.3667 18.2491 28.7008 17.1401C28.7079 17.1045 28.7292 17.0832 28.7648 17.0832C29.888 16.8699 30.9899 16.3652 31.9852 15.7894C32.0349 15.7609 32.042 15.7752 32.0207 15.8249L28.0681 24.9387Z" fill="white"/>
<path d="M26.8955 27.7179H13.1751L12.5068 26.161C12.5068 26.161 12.5068 26.1326 12.5211 26.1255C12.5211 26.1255 12.5211 26.1255 12.5282 26.1255H27.5566C27.5566 26.1255 27.5779 26.1326 27.5779 26.1468C27.5779 26.1468 27.5779 26.1468 27.5779 26.1539L26.9026 27.725L26.8955 27.7179Z" fill="white"/>
</g>
<circle cx="20" cy="20" r="19.5" stroke="black" stroke-opacity="0.05"/>
<defs>
<clipPath id="clip0_18553_55671">
<rect width="24" height="15.718" fill="white" transform="translate(8.03516 12)"/>
</clipPath>
</defs>
</svg>
