<svg width="40" height="40" viewBox="0 0 40 40" fill="none" xmlns="http://www.w3.org/2000/svg">
<circle cx="20" cy="20" r="20" fill="#1D2087"/>
<g clip-path="url(#clip0_17752_43613)">
<path d="M22.4982 19.2077L18.6561 25.8462C18.6497 25.8574 18.6404 25.8668 18.6292 25.8733C18.618 25.8798 18.6053 25.8833 18.5924 25.8834L6.44779 25.8852C6.43479 25.8851 6.42203 25.8816 6.41081 25.875C6.39959 25.8684 6.39028 25.859 6.38383 25.8477C6.37738 25.8364 6.37399 25.8236 6.37402 25.8106C6.37405 25.7976 6.37749 25.7848 6.384 25.7736L13.7703 13.1275C13.7768 13.1163 13.7861 13.1069 13.7973 13.1004C13.8085 13.0939 13.8212 13.0904 13.8341 13.0903L25.9592 13.085C25.9722 13.0851 25.9849 13.0886 25.9962 13.0952C26.0074 13.1018 26.0167 13.1112 26.0232 13.1225C26.0296 13.1338 26.033 13.1465 26.033 13.1596C26.0329 13.1726 26.0295 13.1853 26.023 13.1966L24.7045 15.4561C24.698 15.4673 24.6887 15.4767 24.6775 15.4832C24.6664 15.4897 24.6537 15.4932 24.6407 15.4933L20.4655 15.4915C20.4526 15.4917 20.4399 15.4952 20.4287 15.5017C20.4175 15.5082 20.4082 15.5175 20.4017 15.5288L18.4045 18.9969C18.3979 19.0083 18.3945 19.0212 18.3945 19.0344C18.3946 19.0475 18.3981 19.0604 18.4048 19.0718C18.4114 19.0831 18.421 19.0925 18.4325 19.099C18.4439 19.1054 18.4569 19.1087 18.4701 19.1085L22.4344 19.0961C22.4474 19.0962 22.4601 19.0997 22.4714 19.1063C22.4826 19.1129 22.4919 19.1223 22.4983 19.1336C22.5048 19.1449 22.5082 19.1577 22.5081 19.1707C22.5081 19.1837 22.5047 19.1965 22.4982 19.2077Z" fill="white"/>
<path d="M31.5366 19.165H28.2422C28.1898 19.1651 28.1383 19.1788 28.0929 19.2049C28.0475 19.231 28.0098 19.2686 27.9834 19.3139L24.2991 25.7025C24.2754 25.743 24.2414 25.7765 24.2007 25.7998C24.16 25.8231 24.1139 25.8354 24.067 25.8354L20.0708 25.8407C19.9184 25.8407 19.88 25.7746 19.9556 25.6422C21.1925 23.4979 22.4065 21.3968 23.5974 19.3387C24.2247 18.2541 24.5809 17.6557 24.666 17.5435C25.5839 16.3154 27.0318 15.4329 28.5913 15.4311C30.2228 15.4287 31.9017 15.4293 33.6277 15.4329C33.6679 15.4329 33.7051 15.44 33.7394 15.4541C33.8174 15.4849 33.8357 15.5363 33.7943 15.6083L31.852 18.9825C31.8202 19.038 31.7742 19.0841 31.7189 19.1162C31.6635 19.1482 31.6006 19.1651 31.5366 19.165Z" fill="#E50013"/>
</g>
<circle cx="20" cy="20" r="19.5" stroke="black" stroke-opacity="0.05"/>
<defs>
<clipPath id="clip0_17752_43613">
<rect width="28" height="13.2911" fill="white" transform="translate(6.03516 12.8936)"/>
</clipPath>
</defs>
</svg>
