<svg width="40" height="40" viewBox="0 0 40 40" fill="none" xmlns="http://www.w3.org/2000/svg">
<circle cx="20" cy="20" r="20" fill="#F6F8FA"/>
<circle cx="20" cy="20" r="19.5" stroke="black" stroke-opacity="0.05"/>
<path d="M15.7403 14.8504L15.746 25.3123C15.7459 25.3479 15.7367 25.383 15.7194 25.414C15.702 25.4451 15.6772 25.4712 15.6472 25.4896C15.6173 25.508 15.5833 25.5182 15.5486 25.5191C15.5139 25.5201 15.4796 25.5117 15.4492 25.4949L8.34336 21.7223C8.25036 21.6726 8.17257 21.598 8.1183 21.5066C8.06402 21.4151 8.03529 21.3102 8.03516 21.2029V11.911C8.03516 11.7056 8.13028 11.5648 8.32053 11.4887L15.746 8.59497C15.9895 8.49984 16.2312 8.50365 16.4709 8.60638L22.6807 11.3003C23.0612 11.4639 23.044 11.5343 22.6293 11.5115L21.9216 11.4716C21.6742 11.4563 21.4402 11.5058 21.2195 11.62L16.0656 14.3082C15.8488 14.4223 15.7403 14.6031 15.7403 14.8504Z" fill="#D64D49"/>
<path d="M20.6721 18.857C22.0933 18.6915 23.2006 19.3536 22.9609 20.9402C22.8125 21.9219 22.3311 22.6982 21.5168 23.2689C20.7825 23.7826 20.2365 24.1631 19.8788 24.4104C19.0721 24.9774 18.6688 24.7681 18.6688 23.7826L18.6631 15.7007C18.6631 15.4877 18.7468 15.3145 18.9142 15.1814C19.4583 14.7438 20.0824 14.4508 20.7863 14.3024C21.0506 14.2465 21.3262 14.2918 21.5579 14.4294C21.7896 14.5669 21.9604 14.7866 22.0362 15.0444C22.4072 16.3114 21.4369 17.7326 20.5352 18.5545C20.2726 18.7942 20.3183 18.8951 20.6721 18.857Z" fill="#D64D49"/>
<path d="M24.085 17.3215C23.8148 17.2721 23.7444 17.1256 23.8738 16.882L23.9765 16.6994C24.0983 16.4749 24.2771 16.414 24.513 16.5168C26.4688 17.3729 28.2363 18.3013 29.8153 19.302C32.9145 21.2654 32.4008 25.626 30.5174 28.2457C28.8108 30.6201 25.8144 32.007 23.2973 33.4225C23.1926 33.4833 23.0734 33.5158 22.9514 33.5168C22.8294 33.5178 22.7087 33.4873 22.601 33.4282L15.0557 29.3644C15.018 29.3437 14.987 29.3127 14.9661 29.2751C14.9453 29.2374 14.9355 29.1947 14.9379 29.1518C14.9402 29.1088 14.9547 29.0674 14.9796 29.0323C15.0045 28.9972 15.0388 28.9699 15.0785 28.9535C19.1309 27.3439 26.6305 24.6386 25.723 18.971C25.5785 18.0464 25.0324 17.4966 24.085 17.3215Z" fill="#00A561"/>
</svg>
