<svg width="40" height="40" viewBox="0 0 40 40" fill="none" xmlns="http://www.w3.org/2000/svg">
<circle cx="20" cy="20" r="20" fill="#0266B2"/>
<path d="M12.975 23.5305L15.4473 23.5343C15.4772 23.5343 15.4966 23.5192 15.5053 23.4891L17.6817 15.8203C17.6851 15.8075 17.6856 15.7941 17.6831 15.7811C17.6806 15.7681 17.6751 15.7559 17.6672 15.7454C17.6592 15.7348 17.649 15.7262 17.6372 15.7203C17.6254 15.7143 17.6125 15.7112 17.5993 15.7111C16.6235 15.7054 15.7338 15.6904 14.8741 16.1687C14.7518 16.2378 14.2698 16.5994 13.4282 17.2535C11.3879 18.8417 9.35453 20.43 7.32799 22.0182C7.27804 22.0571 7.22747 22.0578 7.17628 22.0201C6.56444 21.5719 5.94387 21.1004 5.31456 20.6058C4.91562 20.295 4.88378 19.7112 5.29021 19.4023C10.0688 15.7776 14.773 12.2069 19.403 8.69018C19.7775 8.4058 20.2851 8.45853 20.6391 8.72784C23.2712 10.7279 25.8328 12.6715 28.3239 14.5585C28.3813 14.6025 28.4 14.659 28.38 14.728L26.5689 21.0935C26.4678 21.4476 26.2349 21.6428 25.8703 21.6792C25.6393 21.7018 25.4152 21.705 25.1979 21.6886C24.7172 21.6535 24.543 21.403 24.6753 20.9372L26.1456 15.7789C26.148 15.7707 26.1484 15.762 26.147 15.7537C26.1456 15.7453 26.1423 15.7374 26.1373 15.7306C26.1324 15.7238 26.126 15.7184 26.1187 15.7147C26.1113 15.7109 26.1032 15.7091 26.095 15.7092L23.7314 15.7111C23.6564 15.7111 23.6084 15.7469 23.5871 15.8184C22.7855 18.5567 22.2698 20.3854 22.0401 21.3045C21.7104 22.6209 22.4222 23.5927 23.7426 23.7113C24.789 23.8055 25.7161 23.8017 26.5239 23.7C27.6627 23.5581 28.3875 22.9366 28.6985 21.8355C29.2266 19.9598 29.7554 18.0947 30.2848 16.2403C30.3086 16.1599 30.3541 16.1449 30.4216 16.1951C31.7751 17.1945 33.1723 18.2466 34.6133 19.3515C35.2107 19.8091 35.0553 20.3308 34.5589 20.7056C29.899 24.2336 25.2428 27.7667 20.5904 31.3047C20.1671 31.6268 19.667 31.5175 19.2718 31.2162C15.8044 28.5708 12.3856 25.9744 9.01552 23.4269C9.01008 23.4227 9.00567 23.4173 9.00264 23.4111C8.99961 23.4049 8.99803 23.3981 8.99803 23.3911C8.99803 23.3842 8.99961 23.3774 9.00264 23.3712C9.00567 23.365 9.01008 23.3596 9.01552 23.3554L14.2261 19.2724C14.3347 19.187 14.3672 19.2102 14.3235 19.3421L12.9394 23.4815C12.9376 23.4872 12.9372 23.4931 12.9381 23.499C12.9391 23.5048 12.9414 23.5103 12.9449 23.5151C12.9483 23.5198 12.9529 23.5237 12.9581 23.5264C12.9633 23.5291 12.9691 23.5305 12.975 23.5305ZM17.3521 22.8751C16.9756 24.1671 16.1515 25.1577 14.8947 25.395C14.8211 25.41 14.7742 25.4533 14.7543 25.5249L14.6344 25.9505C14.6144 26.0221 14.6413 26.0604 14.7149 26.0654C16.9737 26.2142 19.1632 25.4703 19.8356 23.1312C20.4837 20.8776 21.1854 18.4199 21.9408 15.7582C21.9496 15.7268 21.9377 15.7111 21.9052 15.7111H19.4854C19.4572 15.7112 19.4298 15.7205 19.4075 15.7375C19.3852 15.7545 19.3691 15.7783 19.3617 15.8052C18.67 18.2862 18.0001 20.6428 17.3521 22.8751Z" fill="white"/>
<circle cx="20" cy="20" r="19.5" stroke="black" stroke-opacity="0.05"/>
</svg>
