<svg width="40" height="40" viewBox="0 0 40 40" fill="none" xmlns="http://www.w3.org/2000/svg">
<circle cx="20" cy="20" r="20" fill="#0062B0"/>
<path d="M29.4103 17.2148H31.0904L32.0889 18.5841C32.1078 18.6102 32.1273 18.6102 32.1468 18.5841L33.1923 17.2148H34.9999L33.0021 19.8028C32.9988 19.8065 32.9969 19.8113 32.9969 19.8163C32.9969 19.8213 32.9988 19.8261 33.0021 19.8298L34.9318 22.3932C34.9332 22.3946 34.934 22.3964 34.934 22.3984C34.934 22.4004 34.9332 22.4023 34.9318 22.4037C34.9305 22.4046 34.9289 22.4051 34.9273 22.4052H33.2376C33.2328 22.4051 33.228 22.404 33.2237 22.4017C33.2195 22.3995 33.2158 22.3962 33.213 22.3923L32.1732 20.8844C32.1725 20.8834 32.1717 20.8826 32.1707 20.882C32.1697 20.8813 32.1686 20.8809 32.1675 20.8807C32.1663 20.8805 32.1651 20.8806 32.164 20.8808C32.1629 20.8811 32.1618 20.8816 32.1609 20.8823L32.1591 20.8838C31.6682 21.4692 31.1931 22.0177 30.7337 22.5294C30.728 22.5362 30.7207 22.5414 30.7125 22.5447C30.7043 22.548 30.6954 22.5492 30.6866 22.5483C30.6815 22.5478 30.6765 22.5463 30.672 22.5439C30.6675 22.5415 30.6635 22.5382 30.6603 22.5342C30.6571 22.5303 30.6546 22.5257 30.6532 22.5208C30.6517 22.5159 30.6512 22.5107 30.6518 22.5057C30.6523 22.4998 30.6542 22.4942 30.6572 22.4892C31.0624 21.8257 31.4848 21.1799 31.9244 20.5516C31.9279 20.5478 31.9299 20.5429 31.9299 20.5377C31.9299 20.5325 31.9279 20.5276 31.9244 20.5237L31.8842 20.4754C31.8832 20.4741 31.8818 20.4729 31.8803 20.4721C31.8788 20.4713 31.8771 20.4707 31.8754 20.4705C31.8737 20.4703 31.8719 20.4705 31.8702 20.471C31.8686 20.4714 31.867 20.4723 31.8656 20.4733C31.8649 20.474 31.8642 20.4747 31.8635 20.4754C31.2935 21.1877 30.7307 21.8255 30.082 22.5612C30.0748 22.5694 30.0658 22.5758 30.0557 22.5801C30.0457 22.5843 30.0348 22.5863 30.0238 22.5858C30.0206 22.5857 30.0176 22.5845 30.0151 22.5825C30.01 22.5793 30.0056 22.5751 30.0022 22.5701C29.9987 22.5651 29.9964 22.5595 29.9953 22.5536C29.9942 22.5476 29.9944 22.5415 29.9958 22.5356C29.9972 22.5298 29.9998 22.5243 30.0034 22.5195C30.5035 21.6942 31.0355 20.8942 31.5995 20.1193C31.6034 20.1149 31.6055 20.1092 31.6055 20.1033C31.6055 20.0974 31.6034 20.0917 31.5995 20.0872L31.5644 20.038C31.5625 20.0354 31.5595 20.0336 31.5563 20.0331C31.553 20.0326 31.5497 20.0334 31.547 20.0353C31.5461 20.036 31.5453 20.0368 31.5446 20.0377C30.8291 20.9525 30.1504 21.7391 29.41 22.5696C29.4039 22.5772 29.3955 22.5828 29.3861 22.5853C29.3766 22.5878 29.3666 22.5873 29.3575 22.5837C29.3486 22.5806 29.3412 22.5742 29.3369 22.5658C29.3326 22.5574 29.3318 22.5477 29.3347 22.5387C29.3356 22.5362 29.3367 22.5337 29.338 22.5315C29.9306 21.5572 30.5748 20.606 31.2704 19.678C31.2756 19.6724 31.2784 19.6652 31.2784 19.6576C31.2784 19.65 31.2756 19.6427 31.2704 19.6372L29.4103 17.2148Z" fill="white"/>
<path d="M5 17.2378L6.38638 17.2396C6.38829 17.2393 6.39023 17.2395 6.39206 17.2401C6.39388 17.2408 6.39553 17.2418 6.3969 17.2432C6.39826 17.2445 6.39929 17.2462 6.39991 17.248C6.40053 17.2498 6.40073 17.2518 6.40048 17.2537V19.1864C6.40013 19.1886 6.4003 19.1908 6.40097 19.1929C6.40164 19.195 6.4028 19.1969 6.40434 19.1985C6.40589 19.2001 6.40779 19.2013 6.40988 19.202C6.41197 19.2027 6.4142 19.2029 6.41638 19.2026H8.3845C8.38697 19.2026 8.38934 19.2016 8.39108 19.1999C8.39282 19.1981 8.3938 19.1958 8.3938 19.1933V17.2543C8.3935 17.252 8.39373 17.2496 8.39449 17.2474C8.39525 17.2452 8.3965 17.2432 8.39816 17.2416C8.39982 17.24 8.40183 17.2388 8.40405 17.238C8.40626 17.2373 8.40861 17.2371 8.4109 17.2375H9.77779C9.77983 17.2372 9.78191 17.2373 9.78387 17.238C9.78583 17.2386 9.78761 17.2397 9.78906 17.2412C9.79052 17.2427 9.79162 17.2444 9.79227 17.2464C9.79291 17.2483 9.79309 17.2504 9.79279 17.2525V22.3753C9.79309 22.3773 9.79291 22.3794 9.79227 22.3814C9.79162 22.3833 9.79052 22.3851 9.78906 22.3866C9.78761 22.388 9.78583 22.3891 9.78387 22.3898C9.78191 22.3904 9.77983 22.3906 9.77779 22.3903H8.4031C8.40064 22.3903 8.39827 22.3893 8.39653 22.3876C8.39478 22.3858 8.3938 22.3834 8.3938 22.381V20.292C8.3941 20.2897 8.39387 20.2874 8.39313 20.2852C8.39239 20.283 8.39116 20.281 8.38953 20.2794C8.38791 20.2778 8.38594 20.2766 8.38376 20.2758C8.38159 20.2751 8.37928 20.2749 8.377 20.2752H6.41818C6.41576 20.2749 6.4133 20.2751 6.411 20.2759C6.40869 20.2767 6.4066 20.278 6.40489 20.2798C6.40318 20.2815 6.40189 20.2836 6.40113 20.286C6.40036 20.2883 6.40014 20.2907 6.40048 20.2932V22.3693C6.40041 22.3745 6.3983 22.3795 6.3946 22.3832C6.3909 22.3869 6.38591 22.389 6.38068 22.3891H5V17.2378Z" fill="white"/>
<path d="M13.4039 22.6153H13.0403C13.0005 22.6085 12.9605 22.6038 12.9203 22.6012C12.1915 22.5565 11.527 22.2823 11.1304 21.6478C10.959 21.3738 10.8873 21.0177 10.8873 20.6973C10.8873 19.5464 10.8873 18.3986 10.8873 17.2537C10.887 17.2515 10.8873 17.2493 10.888 17.2472C10.8887 17.2451 10.8899 17.2432 10.8914 17.2416C10.893 17.24 10.8949 17.2388 10.897 17.2381C10.8991 17.2374 10.9013 17.2372 10.9035 17.2375H12.2602C12.2625 17.2371 12.2648 17.2373 12.2669 17.238C12.2691 17.2387 12.2711 17.2399 12.2727 17.2415C12.2743 17.2431 12.2755 17.2451 12.2762 17.2473C12.2769 17.2494 12.2771 17.2518 12.2767 17.254C12.2793 18.2787 12.282 19.3106 12.2848 20.3499C12.285 20.4911 12.2968 20.6321 12.3202 20.7714C12.3802 21.1197 12.5884 21.3648 12.9461 21.4165C13.0864 21.4358 13.2283 21.4411 13.3697 21.4321C14.1338 21.3858 14.1707 20.7636 14.1701 20.1615C14.1701 19.1922 14.1701 18.2237 14.1701 17.2558C14.1698 17.2533 14.17 17.2508 14.1708 17.2484C14.1716 17.246 14.1729 17.2439 14.1747 17.2421C14.1765 17.2403 14.1787 17.239 14.181 17.2382C14.1834 17.2374 14.1859 17.2371 14.1884 17.2375H15.5304C15.5331 17.2371 15.5359 17.2373 15.5384 17.2382C15.541 17.239 15.5434 17.2405 15.5453 17.2424C15.5472 17.2443 15.5487 17.2467 15.5495 17.2493C15.5504 17.2519 15.5506 17.2546 15.5502 17.2573C15.5522 18.3774 15.5506 19.5218 15.5454 20.6907C15.5455 20.8933 15.519 21.0951 15.4665 21.2907C15.3144 21.8485 14.8365 22.2769 14.2964 22.4536C14.0074 22.5468 13.7073 22.6012 13.4039 22.6153Z" fill="white"/>
<path d="M19.6551 19.9751L20.7844 17.2551C20.7863 17.2496 20.7899 17.2449 20.7947 17.2417C20.7995 17.2385 20.8053 17.237 20.8111 17.2374H22.1551C22.1575 17.2372 22.1599 17.2374 22.1622 17.2381C22.1645 17.2388 22.1666 17.24 22.1684 17.2415C22.1702 17.243 22.1717 17.2449 22.1728 17.2471C22.1739 17.2492 22.1745 17.2515 22.1746 17.2539L22.9874 22.3773C22.9889 22.386 22.9853 22.3902 22.9766 22.3902H21.6139C21.6121 22.3904 21.6103 22.3903 21.6086 22.3897C21.6069 22.3892 21.6053 22.3883 21.6039 22.3871C21.6026 22.3859 21.6015 22.3845 21.6007 22.3828C21.5999 22.3812 21.5995 22.3794 21.5995 22.3776C21.4689 21.3925 21.3382 20.4072 21.2074 19.4215C21.2074 19.4215 21.2047 19.4191 21.2002 19.4182C21.198 19.4177 21.1958 19.4179 21.1938 19.4189C21.1918 19.4199 21.1902 19.4216 21.1894 19.4236L19.9203 22.3752C19.9186 22.38 19.9153 22.3841 19.911 22.3869C19.9068 22.3898 19.9017 22.3911 19.8966 22.3908H19.3788C19.3739 22.3911 19.3692 22.3897 19.3652 22.387C19.3611 22.3843 19.3581 22.3804 19.3566 22.3758L18.1409 19.4443C18.1271 19.4105 18.1171 19.4117 18.1109 19.4479L17.678 22.3752C17.6779 22.3773 17.6774 22.3794 17.6765 22.3814C17.6756 22.3833 17.6743 22.385 17.6727 22.3864C17.6711 22.3878 17.6692 22.3889 17.6672 22.3895C17.6651 22.3902 17.663 22.3904 17.6609 22.3902H16.303C16.3021 22.3902 16.3013 22.39 16.3005 22.3897C16.2997 22.3894 16.2989 22.3889 16.2983 22.3883C16.2977 22.3877 16.2972 22.3869 16.2969 22.3861C16.2966 22.3853 16.2964 22.3845 16.2964 22.3836L17.1898 17.2473C17.1903 17.2445 17.1918 17.242 17.194 17.2401C17.1962 17.2383 17.199 17.2374 17.2018 17.2374H18.5519C18.5537 17.2374 18.5555 17.2379 18.557 17.239C18.5585 17.24 18.5597 17.2414 18.5603 17.2431L19.641 19.9751C19.6413 19.976 19.6418 19.9768 19.6425 19.9775C19.6431 19.9781 19.6439 19.9787 19.6448 19.9791C19.6456 19.9795 19.6466 19.9797 19.6475 19.9797C19.6485 19.9798 19.6494 19.9796 19.6503 19.9793C19.6514 19.979 19.6524 19.9785 19.6532 19.9778C19.6541 19.977 19.6547 19.9761 19.6551 19.9751Z" fill="white"/>
<path d="M24.9232 22.3904H23.4726C23.47 22.3904 23.4674 22.3894 23.4654 22.3875C23.4635 22.3857 23.4623 22.3832 23.4621 22.3805C23.4618 22.3791 23.4618 22.3777 23.4621 22.3763L25.5011 17.2451C25.5019 17.2432 25.5032 17.2416 25.5049 17.2404C25.5066 17.2393 25.5086 17.2387 25.5107 17.2388H27.0132C27.015 17.2389 27.0168 17.2396 27.0183 17.2407C27.0197 17.2418 27.0209 17.2433 27.0216 17.2451L29.0374 22.3754C29.0379 22.3766 29.0381 22.378 29.038 22.3793C29.038 22.3807 29.0377 22.382 29.0371 22.3832C29.0366 22.3845 29.0358 22.3856 29.0348 22.3865C29.0338 22.3874 29.0326 22.3881 29.0314 22.3886H29.0278H27.57C27.5679 22.3886 27.5659 22.3879 27.5642 22.3867C27.5625 22.3856 27.5612 22.3839 27.5604 22.382L26.2676 18.8316C26.2669 18.8296 26.2656 18.8279 26.2639 18.8267C26.2622 18.8255 26.2601 18.8248 26.258 18.8248C26.2559 18.8248 26.2539 18.8255 26.2521 18.8267C26.2504 18.8279 26.2491 18.8296 26.2484 18.8316L24.9328 22.3838C24.9321 22.3857 24.9307 22.3874 24.929 22.3885C24.9273 22.3897 24.9253 22.3904 24.9232 22.3904Z" fill="white"/>
<circle cx="20" cy="20" r="19.5" stroke="black" stroke-opacity="0.05"/>
</svg>
