<svg width="40" height="40" viewBox="0 0 40 40" fill="none" xmlns="http://www.w3.org/2000/svg">
<circle cx="20" cy="20" r="20" fill="#17315D"/>
<path d="M23.2391 10.7225C24.1787 11.0661 25.1167 11.4008 26.0532 11.7266C26.0744 11.734 26.0861 11.7574 26.0883 11.7967L26.1167 12.7546C26.0443 12.719 25.9753 12.6756 25.9096 12.6244C25.8373 12.568 25.7688 12.5218 25.7043 12.4858C25.5868 12.4201 25.4911 12.3316 25.3792 12.2587C24.6263 11.7693 23.8761 11.2757 23.1284 10.7782C23.0928 10.7544 23.0404 10.7603 22.9714 10.796L22.9007 10.6479C22.8993 10.6446 22.8987 10.641 22.899 10.6375C22.8994 10.6339 22.9007 10.6305 22.9027 10.6276C22.9048 10.6246 22.9076 10.6223 22.9109 10.6208C22.9142 10.6193 22.9177 10.6187 22.9213 10.619C23.0501 10.6331 23.156 10.6676 23.2391 10.7225Z" fill="#477F1B"/>
<path d="M33.7459 11.9742L33.053 12.2052C33.0177 12.2003 32.9832 12.2057 32.9495 12.2213C32.932 12.2296 32.9125 12.2327 32.8932 12.2302C32.6923 12.2057 32.4363 12.282 32.2465 12.341C32.1003 12.3862 31.945 12.43 31.7806 12.4723C31.1892 12.6248 30.5908 12.7853 29.9856 12.9538C29.9456 12.9653 29.8923 12.9749 29.8259 12.9827C29.7736 12.9894 29.7198 12.9994 29.6645 13.0128L26.1157 11.7643C26.1131 11.7634 26.1103 11.763 26.1076 11.7632C26.1048 11.7633 26.1022 11.7641 26.0997 11.7653C26.0972 11.7666 26.0951 11.7683 26.0933 11.7704C26.0916 11.7726 26.0903 11.775 26.0895 11.7777C26.0877 11.7836 26.0873 11.7899 26.0884 11.7966C26.0862 11.7573 26.0745 11.7339 26.0534 11.7265C25.1168 11.4007 24.1788 11.066 23.2393 10.7224C23.322 10.6875 23.4296 10.6782 23.5621 10.6946C26.3587 11.0356 29.1556 11.3762 31.9526 11.7165C32.4669 11.7788 32.9819 11.8343 33.4977 11.8829C33.6283 11.8951 33.7111 11.9256 33.7459 11.9742Z" fill="#76CCEF"/>
<path d="M26.1169 12.7546L26.1871 14.9943C26.1871 15.1579 26.1902 15.3208 26.1965 15.483C26.2225 16.1505 26.2489 16.8182 26.2756 17.4861C26.2782 17.5459 26.265 17.6069 26.2361 17.6693L22.9717 10.796C23.0407 10.7604 23.093 10.7544 23.1286 10.7782C23.8763 11.2758 24.6266 11.7693 25.3795 12.2587C25.4913 12.3316 25.5871 12.4201 25.7045 12.4858C25.7691 12.5218 25.8375 12.568 25.9099 12.6244C25.9756 12.6756 26.0446 12.719 26.1169 12.7546Z" fill="#6AB32F"/>
<path d="M33.746 11.9742L26.4614 17.7015C26.3705 17.6392 26.3378 17.5839 26.3634 17.5357C26.5471 17.1917 26.5755 16.7915 26.7152 16.4269C26.7976 16.2121 26.8348 15.9867 26.905 15.7674C26.9881 15.5073 27.0688 15.2364 27.1471 14.9548C27.1746 14.8564 27.2139 14.7611 27.2651 14.6687C27.2705 14.6588 27.2721 14.6473 27.2696 14.6364C27.2672 14.6254 27.2608 14.6157 27.2517 14.6091C27.2343 14.5958 27.2152 14.5878 27.1944 14.5852L30.4449 13.28C31.4682 12.8804 32.2081 12.5857 32.6645 12.3961C32.7232 12.372 32.8527 12.3084 33.053 12.2052L33.746 11.9742Z" fill="#006AA7"/>
<path d="M33.053 12.2052C32.8527 12.3084 32.7232 12.372 32.6646 12.3961C32.2081 12.5857 31.4683 12.8803 30.4449 13.28L29.6646 13.0128C29.7198 12.9995 29.7736 12.9894 29.826 12.9828C29.8924 12.975 29.9456 12.9653 29.9857 12.9538C30.5909 12.7853 31.1892 12.6249 31.7807 12.4724C31.9451 12.4301 32.1004 12.3863 32.2466 12.341C32.4363 12.282 32.6924 12.2058 32.8933 12.2302C32.9125 12.2328 32.9321 12.2297 32.9495 12.2213C32.9833 12.2058 33.0178 12.2004 33.053 12.2052Z" fill="#59A2C5"/>
<path d="M27.1944 14.5852C27.2152 14.5878 27.2343 14.5958 27.2518 14.6091C27.2608 14.6157 27.2672 14.6254 27.2697 14.6364C27.2721 14.6474 27.2705 14.6588 27.2651 14.6687C27.2139 14.7611 27.1746 14.8564 27.1471 14.9548C27.0688 15.2364 26.9881 15.5073 26.905 15.7674C26.8349 15.9867 26.7976 16.2121 26.7152 16.4269C26.5755 16.7915 26.5471 17.1917 26.3634 17.5357C26.3378 17.5839 26.3705 17.6392 26.4614 17.7015L26.3223 17.7989C26.3059 17.8104 26.2939 17.8071 26.2861 17.7889L26.236 17.6692C26.2649 17.6069 26.2781 17.5459 26.2755 17.4861C26.2488 16.8182 26.2224 16.1505 26.1965 15.483C26.1902 15.3208 26.187 15.1579 26.187 14.9943L27.1944 14.5852Z" fill="#024772"/>
<path d="M8.21246 20.2106C8.54493 20.3123 8.85792 20.4038 9.15143 20.485C9.92063 20.6976 10.5473 21.0539 10.7533 21.8793C10.8026 22.0759 10.8271 22.2789 10.8268 22.4882C10.8229 23.8167 9.87499 24.4785 8.65718 24.5481C8.00115 24.5852 7.3017 24.5112 6.55885 24.326C6.1659 24.2281 6.26664 23.8791 6.24716 23.5874C6.22879 23.3208 6.45087 23.1756 6.70245 23.2429C7.44085 23.4407 8.09502 23.5156 8.66497 23.4678C9.11859 23.4294 9.52156 23.2602 9.6223 22.7776C9.69131 22.4464 9.65681 21.98 9.33232 21.7808C9.17981 21.6873 9.00838 21.6171 8.81803 21.5704C8.45551 21.4813 8.10263 21.3856 7.7594 21.2832C7.06256 21.075 6.51209 20.603 6.36682 19.87C6.10022 18.5286 6.96348 17.5457 8.27814 17.4299C8.96237 17.3698 9.62341 17.4373 10.2613 17.6325C10.6152 17.7411 10.5596 18.095 10.5457 18.3806C10.5323 18.6644 10.2963 18.7318 10.0537 18.6694C9.53324 18.5364 9.03677 18.4652 8.4863 18.4902C7.9197 18.5158 7.50282 18.7318 7.49391 19.3663C7.48668 19.8706 7.76608 20.0748 8.21246 20.2106Z" fill="white"/>
<path d="M12.4894 17.4811L12.2223 17.482C11.9889 17.4829 11.8005 17.6727 11.8013 17.906L11.8025 18.2444C11.8033 18.4777 11.9931 18.6662 12.2264 18.6653L12.4935 18.6644C12.7269 18.6636 12.9153 18.4738 12.9145 18.2405L12.9133 17.9021C12.9125 17.6688 12.7227 17.4803 12.4894 17.4811Z" fill="white"/>
<path d="M22.0508 24.051C21.6189 24.2464 21.1185 24.459 20.6849 24.5319C20.3959 24.5805 20.1116 24.5497 19.8322 24.4395C19.0936 24.1479 18.9712 23.2963 18.9712 22.6039C18.9712 22.0963 18.9729 21.5865 18.9762 21.0744C18.9807 20.3575 19.1849 19.6206 19.909 19.3612C20.0961 19.2941 20.3807 19.267 20.7628 19.28C21.2211 19.2952 21.6517 19.3097 22.0547 19.3234C22.0836 19.3241 22.0981 19.31 22.0981 19.2811C22.0992 18.831 22.0981 18.3932 22.0948 17.9676C22.094 17.8518 22.1163 17.7562 22.1615 17.6809C22.2923 17.4633 22.5089 17.4805 22.7304 17.4783C23.0187 17.475 23.2118 17.6564 23.2118 17.9509C23.2137 19.9301 23.2139 21.9514 23.2124 24.0149C23.212 24.2542 23.1009 24.4056 22.879 24.469C22.7782 24.4974 22.6508 24.4869 22.5445 24.483C22.2799 24.4726 22.1285 24.3356 22.0903 24.0722C22.0866 24.0481 22.0734 24.041 22.0508 24.051ZM20.6643 20.3219C20.2497 20.3158 20.0961 20.6464 20.0944 21.0082C20.0918 21.5525 20.0899 22.1019 20.0888 22.6562C20.0877 23.2084 20.2263 23.6225 20.8936 23.4839C21.235 23.4126 21.6298 23.2833 22.0781 23.0959C22.0836 23.0936 22.0884 23.0898 22.0918 23.0848C22.0951 23.0799 22.097 23.074 22.097 23.0681L22.0975 20.4054C22.0975 20.3813 22.0855 20.3687 22.0614 20.3676C21.6302 20.3442 21.1645 20.329 20.6643 20.3219Z" fill="white"/>
<path d="M30.7366 19.2543C31.1748 19.2339 31.6186 19.2185 32.0679 19.2081C32.4171 19.2003 32.6832 19.2343 32.8661 19.31C33.6448 19.6339 33.7488 20.461 33.7494 21.1929C33.7501 22.4642 33.7485 23.417 33.7444 24.0515C33.7416 24.4545 33.3754 24.5146 33.047 24.4812C32.7832 24.4551 32.6312 24.2847 32.6323 24.0259C32.6364 22.9714 32.636 21.9495 32.6312 20.9603C32.6305 20.7788 32.5874 20.615 32.5021 20.4688C32.3652 20.2328 32.1069 20.2478 31.872 20.2545C31.4746 20.266 31.0908 20.277 30.7204 20.2873C30.7143 20.2875 30.7085 20.29 30.7043 20.2944C30.7 20.2988 30.6976 20.3046 30.6976 20.3107C30.6965 21.5096 30.6967 22.7424 30.6982 24.0092C30.6987 24.435 30.3859 24.5035 30.0342 24.4846C29.7793 24.4712 29.5845 24.3215 29.5839 24.0499C29.5824 22.0506 29.5828 20.0068 29.585 17.9185C29.585 17.7204 29.7069 17.5295 29.9056 17.4961C30.2557 17.4371 30.6976 17.4627 30.6987 17.9319C30.6999 18.3734 30.6993 18.8016 30.6971 19.2165C30.6971 19.2432 30.7102 19.2558 30.7366 19.2543Z" fill="white"/>
<path d="M15.0718 20.2863C15.0649 20.2866 15.0583 20.2895 15.0535 20.2945C15.0486 20.2994 15.0458 20.3061 15.0457 20.313C15.0416 21.4377 15.042 22.6514 15.0468 23.9542C15.0472 24.0767 15.029 24.175 14.9922 24.2492C14.8765 24.483 14.6544 24.4869 14.4223 24.4891C14.1351 24.4924 13.9269 24.3355 13.9269 24.0321C13.9266 22.6114 13.9268 21.1716 13.9275 19.713C13.9275 19.4514 14.114 19.2928 14.3628 19.2811C15.4793 19.2299 16.2429 19.2073 16.6537 19.2132C17.7084 19.2282 18.0785 20.0542 18.0852 20.977C18.0934 22.154 18.0932 23.1796 18.0846 24.0538C18.0824 24.2954 17.9249 24.4596 17.6833 24.4819C17.3889 24.5091 16.9798 24.4663 16.9793 24.0817C16.9789 23 16.9785 22.0078 16.9781 21.105C16.9781 20.8245 16.9431 20.4243 16.6525 20.2997C16.5676 20.2629 16.4555 20.2466 16.3164 20.2507C15.8793 20.264 15.4644 20.2759 15.0718 20.2863Z" fill="white"/>
<path d="M25.5459 19.33C26.8015 18.9644 28.1184 19.3868 28.4936 20.7465C28.6906 21.4597 28.686 22.2068 28.4796 22.9879C28.2782 23.751 27.7188 24.3304 26.9184 24.4974C26.393 24.607 25.7323 24.567 25.2537 24.3337C24.7346 24.0814 24.3878 23.6478 24.2134 23.033C23.8566 21.7751 23.998 19.7814 25.5459 19.33ZM25.2403 22.5588C25.3477 23.1143 25.68 23.4838 26.2511 23.5089C26.777 23.5317 27.1711 23.3542 27.3676 22.8248C27.4726 22.5417 27.5227 22.1983 27.5179 21.7946C27.5095 21.0738 27.3904 20.3124 26.4793 20.2562C25.8292 20.2161 25.3572 20.4393 25.2275 21.1473C25.1433 21.6093 25.1475 22.0798 25.2403 22.5588Z" fill="white"/>
<path d="M12.4941 19.2816H12.2247C11.9914 19.2816 11.8022 19.4708 11.8022 19.7041V24.061C11.8022 24.2943 11.9914 24.4835 12.2247 24.4835H12.4941C12.7274 24.4835 12.9165 24.2943 12.9165 24.061V19.7041C12.9165 19.4708 12.7274 19.2816 12.4941 19.2816Z" fill="white"/>
<circle cx="20" cy="20" r="19.5" stroke="black" stroke-opacity="0.05"/>
</svg>
