<svg width="40" height="40" viewBox="0 0 40 40" fill="none" xmlns="http://www.w3.org/2000/svg">
<circle cx="20" cy="20" r="20" fill="#003DE5"/>
<circle cx="20" cy="20" r="19.5" stroke="black" stroke-opacity="0.05"/>
<path d="M7.27491 17.9211C7.12423 18.2662 6.87634 18.6308 6.56526 18.9613C6.24446 19.3064 5.85561 19.6077 5.45217 19.8508L4.76196 19.0391C5.25775 18.7571 5.72923 18.3634 6.08406 17.8676C6.43888 17.3767 6.66247 16.808 6.66247 16.1713V15.4227H7.8193V16.1518C7.8193 16.7837 8.05261 17.3135 8.39772 17.751C8.74282 18.203 9.21431 18.5433 9.67607 18.762L9.05391 19.6077C8.19843 19.146 7.63946 18.5967 7.27491 17.9211ZM6.66247 20.2494H11.3287V23.6518H6.66247V20.2494ZM7.75611 21.1826V22.7283H10.2253V21.1826H7.75611ZM11.3287 19.9286H10.2253V15.238H11.3287V17.1045H12.6168V18.0378H11.3287V19.9286Z" fill="white"/>
<path d="M15.7423 18.9516C15.4312 18.6599 15.193 18.3488 15.0472 18.0621C14.916 18.3829 14.6729 18.728 14.3618 19.0585C14.041 19.389 13.6619 19.7244 13.2342 19.982L12.5488 19.1557C13.0932 18.8009 13.5793 18.3926 13.9098 17.9211C14.2403 17.4593 14.4445 16.9247 14.4445 16.322V15.4227H15.6159V16.3025C15.6159 16.9684 15.8298 17.4837 16.1749 17.9017C16.5054 18.3294 16.9769 18.6502 17.4435 18.8884L16.8213 19.7487C16.4325 19.5397 16.0533 19.2626 15.7423 18.9516ZM18.7073 23.3699C18.3184 23.7004 17.774 23.8948 17.1324 23.8948C16.4908 23.8948 15.961 23.7004 15.577 23.3699C15.1882 23.0248 14.9646 22.5436 14.9646 21.9506C14.9646 21.3819 15.1882 20.9007 15.577 20.5556C15.961 20.2105 16.4908 20.0063 17.1324 20.0063C17.774 20.0063 18.3135 20.2105 18.7073 20.5556C19.0912 20.9007 19.3197 21.3819 19.3197 21.9506C19.3197 22.5436 19.0912 23.0248 18.7073 23.3699ZM17.9247 21.2166C17.7205 21.0368 17.4532 20.9298 17.1324 20.9298C16.4908 20.9298 16.0485 21.3381 16.0485 21.9409C16.0485 22.5533 16.4908 22.9616 17.1324 22.9616C17.774 22.9616 18.2358 22.5533 18.2358 21.9409C18.2358 21.6541 18.1143 21.3965 17.9247 21.2166ZM18.3524 17.6927H16.797V16.7108H18.3524V15.238H19.4558V19.9723H18.3524V17.6927Z" fill="white"/>
<path d="M22.6981 18.8106C22.8293 18.6696 22.9654 18.5238 23.0724 18.3683L20.9823 18.5384L20.7976 17.5711L23.5341 17.4642C23.6119 17.1969 23.6751 16.915 23.7042 16.6087H21.1378V15.6755H24.8271C24.8028 17.0608 24.4382 18.1544 23.7966 19.0148C23.155 19.8945 22.2509 20.5507 21.1573 21.0854L20.5254 20.225C21.3809 19.8313 22.1343 19.389 22.6981 18.8106ZM26.6838 22.6943H25.5707V15.238H26.6838V17.6197H27.9719V18.5433H26.6838V22.6943Z" fill="white"/>
<path d="M27.9717 20.9153H35.2383V21.8291H27.9717V20.9153ZM29.1139 19.4571V15.6172H34.1204V16.5407H30.2173V18.5238H34.1641V19.4571H29.1139Z" fill="white"/>
</svg>
