<svg width="40" height="40" viewBox="0 0 40 40" fill="none" xmlns="http://www.w3.org/2000/svg">
<circle cx="20" cy="20" r="20" fill="#004899"/>
<g clip-path="url(#clip0_14382_20135)">
<path d="M28.0681 19.8484L20.9585 19.5174L20.6423 12.6152H20.6324L20.3063 19.5174L13.2114 19.8484V19.8633L20.3063 20.1646L20.6324 27.467H20.6423L20.9585 20.1646L28.0681 19.8633V19.8484Z" fill="#F39200"/>
<path d="M18.3943 9.30016V9.61143H18.2412C17.7965 9.61143 17.3123 9.70036 17.3123 10.9355V15.6737C17.3054 16.0256 17.3269 16.3776 17.3765 16.726H16.9813L11.6157 10.7478V15.0363C11.6157 15.9454 11.7935 16.2567 12.6038 16.2567H12.7817V16.563H9.99512V16.2567H10.1433C10.8597 16.2567 11.0771 15.7626 11.0771 14.9326V10.5502C11.0778 10.4259 11.0537 10.3027 11.0061 10.1878C10.9585 10.073 10.8885 9.9688 10.8002 9.88137C10.7118 9.79393 10.6069 9.72503 10.4916 9.67867C10.3762 9.63232 10.2528 9.60945 10.1285 9.61143H9.99512V9.30016H12.1196L16.754 14.5175L16.7787 14.4929V10.5897C16.7973 10.4624 16.7873 10.3326 16.7494 10.2096C16.7115 10.0867 16.6466 9.97379 16.5595 9.87912C16.4724 9.78444 16.3653 9.71039 16.2459 9.66237C16.1266 9.61436 15.998 9.59358 15.8696 9.60155H15.6423V9.29028L18.3943 9.30016Z" fill="white"/>
<path d="M25.583 16.5629V16.2566H25.7312C26.1067 16.2566 26.5069 16.2022 26.5069 15.6637V10.2289C26.5069 9.68544 26.1067 9.63109 25.7312 9.63109H25.583V9.31982H28.7698V9.63109H28.6216C28.2461 9.63109 27.8557 9.68544 27.8557 10.2289V15.6637C27.8557 16.2022 28.2461 16.2566 28.6216 16.2566H28.7698V16.5629H25.583Z" fill="white"/>
<path d="M16.9122 30.0462C16.1584 30.3627 15.3482 30.5224 14.5307 30.5156C12.1888 30.5156 10.4497 29.2359 10.4497 26.6223C10.4497 24.2903 12.337 22.9365 14.4813 22.9365C15.6967 22.9365 16.092 23.312 17.0703 23.4553L17.1542 25.1944L16.843 25.234C16.5515 24.2458 16.0722 23.396 14.511 23.396C12.8064 23.396 11.9072 24.735 11.9072 26.5581C11.9072 28.2972 12.7965 30.0561 14.758 30.0561C15.2609 30.0654 15.7507 29.8956 16.1399 29.577C16.5291 29.2584 16.7923 28.8118 16.8825 28.317L17.179 28.3614L16.9122 30.0462Z" fill="white"/>
<path d="M24.0713 30.3574V30.0461H24.2195C24.6 30.0461 24.9903 29.9967 24.9903 29.4532V24.0185C24.9903 23.475 24.6 23.4206 24.2195 23.4206H24.0713V23.1094H29.3381C29.311 23.641 29.311 24.1736 29.3381 24.7052L29.0268 24.7892C28.9725 24.1074 28.849 23.5689 27.7571 23.5689H26.3094V26.2961H27.5496C28.1721 26.2961 28.3055 25.9453 28.3697 25.3821H28.681V27.7833L28.3697 27.8525C28.3055 27.225 28.2808 26.8199 27.5594 26.8199H26.3094V29.2457C26.3094 29.9226 26.9122 29.9226 27.5792 29.9226C28.8292 29.9226 29.3776 29.8386 29.6938 28.6479L29.9853 28.722C29.8519 29.2754 29.7284 29.8287 29.6345 30.3772L24.0713 30.3574Z" fill="white"/>
</g>
<circle cx="20" cy="20" r="19.5" stroke="black" stroke-opacity="0.05"/>
<defs>
<clipPath id="clip0_14382_20135">
<rect width="20" height="21.2154" fill="white" transform="translate(10 9.30005)"/>
</clipPath>
</defs>
</svg>
