<svg width="40" height="40" viewBox="0 0 40 40" fill="none" xmlns="http://www.w3.org/2000/svg">
<circle cx="20" cy="20" r="20" fill="black"/>
<g clip-path="url(#clip0_14382_18694)">
<path d="M16.7436 21.7561L20.8867 16.6578H18.628C17.6135 16.6578 16.9191 16.9676 16.3047 17.6878L14.1235 20.3699V13H11.9319C11.4182 13 11 13.4182 11 13.9345V27.6855H13.189C13.7053 27.6855 14.1209 27.2673 14.1209 26.751V23.0932L15.8943 25.2693L17.4018 27.1253C17.7064 27.5074 18.1066 27.6829 18.5196 27.6829H21.5734L19.5986 25.259L16.7462 21.7509L16.7436 21.7561ZM26.3205 25.0912C25.8585 25.0912 25.4842 24.7143 25.4842 24.2523V13H23.2951C22.7789 13 22.3607 13.4182 22.3607 13.9319V24.8382C22.3607 26.5239 23.5249 27.6855 25.2105 27.6855H27.6138C28.1301 27.6855 28.5483 27.2673 28.5483 26.751V25.0886H26.3179L26.3205 25.0912Z" fill="white"/>
<path d="M14.4177 19.9956L14.4229 19.9904C14.4229 19.9904 14.4177 19.993 14.4177 19.9956ZM28.9974 17.9176V15.8447L28.8038 16.0487C28.796 16.0512 28.2101 16.6501 26.527 16.6501H18.5712C17.314 16.6501 16.7203 17.1612 16.2712 17.7162L16.0259 18.0183C16.0259 18.0183 16.0104 18.0363 16.0027 18.0441L14.4229 19.9878C14.9985 19.5542 15.7833 19.2935 16.5861 19.2935H26.527C27.7325 19.2935 28.8916 18.9398 28.9871 18.0363C29 17.9615 28.9974 17.915 28.9974 17.915V17.9176Z" fill="#ED1C24"/>
</g>
<circle cx="20" cy="20" r="19.5" stroke="black" stroke-opacity="0.05"/>
<defs>
<clipPath id="clip0_14382_18694">
<rect width="18" height="14.6855" fill="white" transform="translate(11 13)"/>
</clipPath>
</defs>
</svg>
