<svg width="40" height="40" viewBox="0 0 40 40" fill="none" xmlns="http://www.w3.org/2000/svg">
<circle cx="20" cy="20" r="20" fill="#083F88"/>
<path d="M20.9008 13H22.0655C22.4129 13.0334 22.7575 13.0761 23.0991 13.1281C25.3398 13.4662 27.5006 14.5856 28.8386 16.4362C30.2248 18.3542 30.3944 20.7471 29.2153 22.8221C28.1768 24.6504 26.2887 25.8931 24.2619 26.4567C22.2273 27.0225 20.1851 26.9679 18.1351 26.2929C16.4599 25.7409 14.8348 24.6177 13.883 23.1303C11.6558 19.6479 13.4534 15.7908 16.9165 14.0664C18.1643 13.4447 19.4924 13.0893 20.9008 13ZM26.7405 21.3299C26.7405 20.1401 26.1694 18.999 25.1528 18.1576C24.1363 17.3163 22.7575 16.8437 21.3199 16.8437C19.8822 16.8437 18.5035 17.3163 17.4869 18.1576C16.4703 18.999 15.8992 20.1401 15.8992 21.3299C15.8992 22.5197 16.4703 23.6608 17.4869 24.5021C18.5035 25.3434 19.8822 25.8161 21.3199 25.8161C22.7575 25.8161 24.1363 25.3434 25.1528 24.5021C26.1694 23.6608 26.7405 22.5197 26.7405 21.3299Z" fill="white"/>
<path d="M18.9233 26.8712H17.8309C16.5907 26.7768 15.4104 26.4763 14.2897 25.9696C13.424 25.5778 12.6485 25.056 11.9633 24.4042C10.8285 23.3227 10.174 22.0068 10 20.4565V19.576C10.1098 18.5298 10.4486 17.5909 11.0163 16.7592C12.6568 14.3557 15.6653 13.1477 18.5071 13.167C18.6079 13.1676 18.6092 13.1795 18.511 13.2026C16.8521 13.5969 15.4595 14.3917 14.333 15.5868C11.8737 18.1965 12.0018 22.0565 14.5556 24.5371C15.8085 25.7541 17.3132 26.51 19.0697 26.8048C19.123 26.8144 19.1233 26.8253 19.0707 26.8375L18.9233 26.8712Z" fill="#A7A9AC"/>
<path d="M18.9507 25.0613C18.0962 24.7164 17.132 23.9939 16.6917 23.1404C16.6686 23.0955 16.6818 23.0788 16.7312 23.0903C18.6964 23.547 21.0219 23.1009 22.5063 21.6897C23.6739 20.578 24.0926 19.2753 23.7625 17.7815C23.7522 17.7339 23.7693 17.7204 23.8136 17.741C24.703 18.1514 25.3722 18.6806 25.8211 19.3286C27.3249 21.4989 26.115 24.0238 23.8656 24.9958C22.2331 25.7009 20.5948 25.7228 18.9507 25.0613Z" fill="#A7A9AC"/>
<circle cx="20" cy="20" r="19.5" stroke="black" stroke-opacity="0.05"/>
</svg>
