<svg width="40" height="40" viewBox="0 0 40 40" fill="none" xmlns="http://www.w3.org/2000/svg">
<circle cx="20" cy="20" r="20" fill="#F6F8FA"/>
<circle cx="20" cy="20" r="19.5" stroke="black" stroke-opacity="0.05"/>
<g clip-path="url(#clip0_17713_28103)">
<path d="M31.0352 20.4241C31.0352 26.4984 26.1095 31.4241 20.0352 31.4241C13.9608 31.4241 9.03516 26.4984 9.03516 20.4241C9.03516 14.3498 13.9608 9.42078 20.0352 9.42078C26.1095 9.42078 31.0352 14.3464 31.0352 20.4241Z" fill="#4987C6"/>
<path d="M29.2544 21.9864C27.9237 21.1887 26.4473 21.1556 25.4278 21.3873C25.4543 21.0496 25.4675 20.712 25.4675 20.371C25.4675 20.0301 25.4543 19.6924 25.4278 19.3581C26.4407 19.5898 27.9038 19.5534 29.2246 18.7755C29.2246 18.7755 29.5557 18.6497 29.7079 18.3716C29.8635 18.0969 29.7808 17.8221 29.7808 17.8221C28.6354 13.5353 24.7425 10.427 20.0784 10.427C14.5172 10.4237 10.002 14.929 10.002 20.4604C10.002 25.9919 14.5205 30.4938 20.0751 30.4938C24.7061 30.4938 28.6189 27.3623 29.7874 23.1152C29.7874 23.1152 29.8106 22.6816 29.6914 22.4201C29.5689 22.1619 29.2544 21.9864 29.2544 21.9864ZM18.6517 11.3009C17.1521 12.8435 16.0332 14.7337 15.4374 16.8324C14.3748 17.1369 13.4943 17.554 12.8157 17.9545C11.9186 18.4776 11.2565 19.0271 10.8229 19.4442C11.2797 15.2765 14.5171 11.9365 18.6517 11.2976V11.3009ZM15.1958 22.91C14.5436 22.6882 13.9081 22.4002 13.3056 22.046C12.2264 21.4204 11.5114 20.7418 11.1572 20.371C11.5114 20.0003 12.2264 19.3217 13.3056 18.696C13.9081 18.3418 14.5403 18.0572 15.1958 17.8321C15.0269 18.653 14.9442 19.4971 14.9442 20.3677C14.9442 21.2383 15.0302 22.0857 15.1958 22.91ZM10.803 21.278C11.24 21.6918 11.9087 22.2546 12.8157 22.7908C13.4943 23.1881 14.3781 23.6018 15.444 23.913C16.0697 26.1044 17.2647 28.0674 18.8668 29.6497C14.5701 29.087 11.1903 25.6046 10.8063 21.278H10.803ZM19.7705 29.2889C18.2611 27.8886 17.1058 26.1276 16.4503 24.158C17.4269 24.3467 18.5391 24.4393 19.7705 24.3599V29.2889ZM19.7705 23.4694C18.5126 23.5588 17.3077 23.4661 16.169 23.1914C15.9538 22.2844 15.8346 21.3409 15.8346 20.3677C15.8346 19.3945 15.9538 18.4544 16.169 17.5474C17.3077 17.2726 18.5159 17.1799 19.7705 17.2726V23.4727V23.4694ZM19.7705 16.3822C18.5391 16.3027 17.4269 16.3954 16.4437 16.5874C17.1058 14.6079 18.2611 12.8468 19.7705 11.4433V16.3789V16.3822ZM28.791 17.2064C28.8671 17.4249 28.9631 17.6202 28.8738 17.8056C28.7943 17.9876 28.6718 18.0671 28.5063 18.1432C28.0793 18.3551 27.6688 18.4742 27.3179 18.5272C26.4937 18.6629 25.7687 18.5504 25.3152 18.4014C24.9014 15.7003 23.6469 13.2639 21.8163 11.3539C25.0305 11.9563 27.6655 14.2206 28.7943 17.2031L28.791 17.2064ZM20.6643 11.4598C22.4849 13.1613 23.7859 15.3792 24.3155 17.8685C22.4088 16.8257 20.9953 16.5212 20.6643 16.4649V11.4598ZM20.6643 17.3686C21.1807 17.4878 22.6571 17.8817 24.4976 19.0006C24.5506 19.4508 24.577 19.9076 24.577 20.3644C24.577 20.8212 24.5506 21.288 24.4976 21.7349C22.6505 22.8537 21.1807 23.2476 20.6643 23.3668V17.3686ZM20.6643 29.2657V24.2705C20.9953 24.2176 22.4088 23.913 24.3155 22.8703C23.7859 25.3563 22.4816 27.5708 20.6643 29.269V29.2657ZM28.9069 23.3801C27.831 26.5976 25.0272 29.0373 21.5945 29.6033C23.5376 27.6602 24.8849 25.1411 25.3119 22.3373C25.7654 22.1851 26.4904 22.0659 27.3146 22.2115C27.6887 22.2744 28.1356 22.4035 28.5924 22.6386C28.7447 22.718 28.8804 22.8372 28.9168 22.9431C28.9598 23.0457 28.9565 23.2311 28.9035 23.3867L28.9069 23.3801Z" fill="white"/>
</g>
<defs>
<clipPath id="clip0_17713_28103">
<rect width="22" height="22.0033" fill="white" transform="translate(9.03516 9.42078)"/>
</clipPath>
</defs>
</svg>
