<svg width="40" height="40" viewBox="0 0 40 40" fill="none" xmlns="http://www.w3.org/2000/svg">
<circle cx="20" cy="20" r="20" fill="#E60013"/>
<g clip-path="url(#clip0_18553_55876)">
<path d="M6.66232 21.3218C6.37647 21.3218 6.12726 21.2802 5.92937 21.19C5.72414 21.1068 5.55556 20.9819 5.42362 20.8293C5.29169 20.6767 5.18908 20.4894 5.13044 20.2813C5.0718 20.0732 5.03516 19.8374 5.03516 19.5877V18.8732C5.03516 18.6235 5.06447 18.3946 5.13044 18.1796C5.18908 17.9646 5.29169 17.7842 5.42362 17.6247C5.55556 17.4721 5.72414 17.3472 5.92937 17.264C6.13459 17.1807 6.37647 17.1322 6.66232 17.1322C6.94818 17.1322 7.19738 17.1738 7.39528 17.264C7.60051 17.3472 7.76909 17.4721 7.90103 17.6247C8.03296 17.7773 8.13557 17.9646 8.19421 18.1796C8.25285 18.3946 8.28949 18.6235 8.28949 18.8732V19.5877C8.28949 19.8443 8.26017 20.0732 8.19421 20.2813C8.13557 20.4894 8.03296 20.6767 7.90103 20.8293C7.76909 20.9819 7.60051 21.1068 7.39528 21.19C7.19005 21.2732 6.94818 21.3218 6.66232 21.3218ZM6.66232 17.8536C6.37647 17.8536 6.17124 17.9507 6.04664 18.138C5.92204 18.3253 5.85607 18.6027 5.85607 18.9703V19.4906C5.85607 19.8582 5.92204 20.1357 6.04664 20.3229C6.17124 20.5102 6.37647 20.6073 6.66232 20.6073C6.94818 20.6073 7.15341 20.5102 7.27801 20.3229C7.40261 20.1357 7.46858 19.8582 7.46858 19.4906V18.9703C7.46858 18.6027 7.40261 18.3253 7.27801 18.138C7.15341 17.9507 6.94818 17.8536 6.66232 17.8536ZM9.88734 18.8663H10.7596V19.5738H9.88734V22.7368H9.02245V16.7368H9.88734V18.8663Z" fill="white"/>
<path d="M13.0173 21.3218C12.7241 21.3218 12.4749 21.2802 12.2697 21.19C12.0645 21.1068 11.8959 20.9819 11.764 20.8293C11.632 20.6767 11.5367 20.4894 11.4708 20.2813C11.4121 20.0732 11.3755 19.8374 11.3755 19.5877V18.8732C11.3755 18.6235 11.4048 18.3946 11.4708 18.1796C11.5367 17.9646 11.632 17.7842 11.764 17.6247C11.8959 17.4721 12.0645 17.3472 12.2697 17.264C12.4749 17.1807 12.7241 17.1322 13.0173 17.1322C13.3105 17.1322 13.5597 17.1738 13.7649 17.264C13.9702 17.3472 14.1387 17.4721 14.2707 17.6247C14.4026 17.7773 14.4979 17.9646 14.5639 18.1796C14.6225 18.3946 14.6591 18.6235 14.6591 18.8732V19.5877C14.6591 19.8443 14.6298 20.0732 14.5639 20.2813C14.5052 20.4894 14.4026 20.6767 14.2707 20.8293C14.1387 20.9819 13.9702 21.1068 13.7649 21.19C13.5597 21.2732 13.3105 21.3218 13.0173 21.3218ZM13.0173 17.8536C12.7241 17.8536 12.5189 17.9507 12.3943 18.138C12.2697 18.3253 12.2037 18.6027 12.2037 18.9703V19.4906C12.2037 19.8582 12.2697 20.1357 12.3943 20.3229C12.5189 20.5102 12.7241 20.6073 13.0173 20.6073C13.3105 20.6073 13.5157 20.5102 13.6403 20.3229C13.7649 20.1357 13.8309 19.8582 13.8309 19.4906V18.9703C13.8309 18.6027 13.7649 18.3253 13.6403 18.138C13.5157 17.9507 13.3105 17.8536 13.0173 17.8536ZM16.3963 22.7368H15.5314V16.7368H16.3963V22.7368Z" fill="white"/>
<path d="M23.0731 21.294V21.9877H17.2681V21.294H23.0731ZM17.979 17.2432H22.3548V17.9368H20.603V18.1865C20.603 18.3946 20.647 18.568 20.7423 18.7067C20.8376 18.8455 20.9988 18.9842 21.2334 19.116C21.4459 19.2409 21.6731 19.3588 21.915 19.4836C22.1569 19.6085 22.4134 19.7264 22.692 19.8582L22.3108 20.4894C22.1935 20.4409 22.0763 20.3784 21.9443 20.316C21.8124 20.2536 21.6805 20.1842 21.5485 20.1148C21.4166 20.0455 21.2847 19.9761 21.1527 19.9067C21.0208 19.8374 20.9035 19.775 20.7936 19.7125C20.6177 19.6154 20.4784 19.5252 20.3905 19.4559C20.2952 19.3796 20.2365 19.3172 20.1999 19.2547C20.1706 19.3172 20.1046 19.3796 20.002 19.4559C19.8994 19.5322 19.7528 19.6224 19.5622 19.7264C19.4523 19.7888 19.335 19.8513 19.2031 19.9206C19.0711 19.99 18.9392 20.0593 18.8146 20.1287C18.6827 20.1981 18.5507 20.2674 18.4188 20.3299C18.2869 20.3923 18.1623 20.4547 18.0523 20.5033L17.6639 19.8582C17.9424 19.7264 18.1989 19.6015 18.4408 19.4836C18.6827 19.3657 18.9026 19.2409 19.1225 19.116C19.357 18.9842 19.5256 18.8455 19.6135 18.7067C19.7015 18.568 19.7528 18.3946 19.7528 18.1865V17.9368H18.001V17.2432H17.979Z" fill="white"/>
<path d="M26.9505 21.19H23.8867V17.2154H24.737V18.5611H26.0929V17.2154H26.9432V21.19H26.9505ZM24.7443 20.5033H26.1003V19.2547H24.7443V20.5033ZM28.8049 22.7368H27.94V16.7368H28.8049V22.7368Z" fill="white"/>
<path d="M29.9704 17.1114H33.2394V17.805H32.0593V18.3114C32.0593 18.3877 32.0593 18.464 32.074 18.5264C32.0887 18.5958 32.1106 18.6582 32.14 18.7137C32.1766 18.7692 32.2206 18.8316 32.2792 18.894C32.3379 18.9565 32.4112 19.0189 32.4991 19.0813C32.6457 19.1854 32.7996 19.2894 32.9609 19.4004C33.1221 19.5114 33.2907 19.6154 33.4666 19.7195L33.0049 20.3021C32.8583 20.212 32.7117 20.1218 32.5724 20.0247C32.4258 19.9276 32.2939 19.8374 32.1693 19.7542C32.0227 19.657 31.9127 19.5669 31.8248 19.4975C31.7442 19.4281 31.6929 19.3727 31.6782 19.338C31.6635 19.3796 31.6122 19.4351 31.5243 19.5253C31.4363 19.6085 31.3117 19.7125 31.1505 19.8235C31.0039 19.9345 30.8573 20.0455 30.7034 20.1565C30.5494 20.2675 30.3882 20.3784 30.2196 20.4894L29.7139 19.8929C29.9338 19.7542 30.139 19.6154 30.3296 19.4767C30.5201 19.338 30.6887 19.2062 30.8353 19.0813C30.9526 18.9842 31.0479 18.8732 31.1138 18.7484C31.1798 18.6235 31.2091 18.4848 31.2091 18.3253V17.8189H29.9777V17.1114H29.9704ZM31.7662 21.9738H35.0351V22.6675H30.8939V20.6559H31.7588V21.9738H31.7662ZM34.075 18.9565H33.0562V18.2628H34.075V16.7368H34.9325V21.0096H34.075V18.9565Z" fill="white"/>
</g>
<circle cx="20" cy="20" r="19.5" stroke="black" stroke-opacity="0.05"/>
<defs>
<clipPath id="clip0_18553_55876">
<rect width="30" height="6" fill="white" transform="translate(5.03516 16.7368)"/>
</clipPath>
</defs>
</svg>
