<svg width="40" height="40" viewBox="0 0 40 40" fill="none" xmlns="http://www.w3.org/2000/svg">
<circle cx="20" cy="20" r="20" fill="#D91E26"/>
<path d="M20.4137 9.59998C20.159 9.80109 19.8966 9.99646 19.6313 10.187C19.147 10.565 18.7023 10.9911 18.3039 11.4589L17.9889 11.8898C17.9218 11.976 17.8624 12.0689 17.8069 12.1666C17.7803 12.2099 17.7588 12.2562 17.7427 12.3045C17.6986 12.376 17.6633 12.4525 17.6374 12.5324C17.5923 12.6785 17.5511 12.8257 17.5138 12.9739L17.4851 13.311C17.4803 13.4164 17.4803 13.5207 17.4851 13.629C17.5253 14.1902 17.6412 14.7437 17.8174 15.2791C18.0865 15.8364 18.3748 16.3823 18.6774 16.9206C19.209 17.4932 19.7328 18.0803 20.2413 18.675C20.6637 18.1703 21.0793 17.6541 21.4796 17.1303L21.8991 16.4273C22.1864 15.9523 22.3923 15.4313 22.5159 14.8893L22.5867 14.3099C22.625 14.0475 22.6135 13.786 22.558 13.5275C22.5417 13.4307 22.5273 13.3292 22.5005 13.2325L22.3741 12.8245C22.2731 12.5076 22.1349 12.2038 21.9623 11.9195C21.7449 11.5747 21.5428 11.2271 21.3523 10.868C21.3055 10.8071 21.263 10.7431 21.2249 10.6764L20.4137 9.59998ZM12.5952 13.3369C12.3443 13.2737 12.0933 13.2028 11.8424 13.1243C11.7434 13.1087 11.645 13.0895 11.5475 13.0668C11.5398 13.1239 11.536 13.1816 11.536 13.2392L11.6107 13.8904L11.6413 14.1681L11.6892 14.5158C11.8056 15.4548 12.1164 16.3593 12.6019 17.1715C13.0137 17.7624 13.5222 18.2824 14.1054 18.7057C14.7148 19.0353 15.3731 19.2649 16.0553 19.3856C16.9208 19.3555 17.7792 19.2171 18.6104 18.9738C18.6064 18.9137 18.5987 18.8539 18.5874 18.7947L18.4648 18.1962C18.2816 17.3861 17.9294 16.6238 17.4315 15.959L16.9335 15.3988C16.5478 14.9403 16.0862 14.5516 15.5688 14.2496L15.3179 14.1222C15.1037 14.0163 14.884 13.9216 14.6599 13.8387C14.1709 13.6843 13.6689 13.5741 13.1602 13.5093C13.0969 13.4874 13.033 13.4673 12.9687 13.4489C12.8416 13.4207 12.7168 13.3833 12.5952 13.3369ZM26.6655 14.0475C26.1049 13.9428 25.5271 13.9803 24.9848 14.1566C24.7722 14.2428 24.5624 14.3472 24.368 14.4708C23.8621 14.8183 23.3986 15.224 22.987 15.6794C22.7965 15.9217 22.6394 16.1918 22.5197 16.4791C22.4143 16.7338 22.2918 16.9809 22.1529 17.2126L22.0408 17.4856C21.9821 17.6283 21.9322 17.7744 21.8914 17.9232L21.6108 19.0868C21.6999 19.106 21.7938 19.1203 21.8838 19.1347L22.9353 19.2707C23.1671 19.308 23.3988 19.3263 23.6344 19.3186C24.5757 19.2725 25.4964 19.0264 26.3351 18.5965C26.3878 18.5745 26.4443 18.5524 26.496 18.5256C26.9215 18.313 27.3306 18.0691 27.7199 17.7959C28.2179 17.4636 28.6431 17.0336 28.9688 16.5317C29.0703 16.39 29.1603 16.2329 29.2312 16.072C29.3882 15.6755 29.4849 15.2561 29.5223 14.8299L28.2323 14.3846L28.0896 14.3463C27.9699 14.3137 27.854 14.2792 27.7352 14.2534C27.3802 14.1754 27.0241 14.1067 26.6655 14.0475ZM15.1158 23.7738C15.4156 23.655 15.6885 23.475 15.9164 23.2432L16.4144 22.749C16.7994 22.3344 17.1518 21.8928 17.4688 21.4255L17.6115 21.2081C17.7121 21.0549 17.8174 20.9055 17.9257 20.7551C17.2217 20.43 16.4967 20.1526 15.7555 19.9248C15.3112 19.7974 14.8582 19.6854 14.4052 19.5954C14.2282 19.5683 14.0497 19.5523 13.8708 19.5475L12.9543 19.4948C12.7071 19.4883 12.4603 19.5161 12.2207 19.5772C11.1933 19.857 10.2326 20.3403 9.39553 20.9984L9 21.3202C9.35434 21.8699 9.74413 22.4014 10.1674 22.9061C10.2306 22.9885 10.3015 23.0632 10.3762 23.1379L10.8445 23.6062C11.0351 23.6991 11.2257 23.7853 11.4201 23.8714C11.7907 24.0697 12.1949 24.1894 12.6095 24.2267L12.916 24.2603C13.5383 24.2197 14.1538 24.1069 14.75 23.9241C14.8755 23.8837 14.9978 23.8328 15.1158 23.7738ZM26.0325 19.536C25.9353 19.5283 25.8376 19.5283 25.7404 19.536C25.5278 19.558 25.3142 19.5839 25.1007 19.6222C24.8057 19.7189 24.5098 19.831 24.2215 19.9507C23.5156 20.2169 22.8565 20.5934 22.2688 21.0664L22.5197 21.5299C22.6729 21.8105 22.8415 22.0834 23.0282 22.3449C23.2198 22.5843 23.4362 22.8017 23.6756 22.9923L23.825 23.1014C23.9227 23.1761 24.0271 23.2394 24.1353 23.292L24.2885 23.3849C24.3642 23.4338 24.4418 23.475 24.5212 23.5161L25.0078 23.7077L25.2204 23.7891C25.4636 23.8676 25.7107 23.9232 25.9654 23.95C26.2681 23.9797 26.5707 23.9988 26.8781 23.9988H27.039C27.1252 24.0065 27.2066 24.0026 27.289 23.9873C27.3713 23.9873 27.4537 23.9835 27.5361 23.9797L27.8808 23.9538C28.0637 23.9385 28.2428 23.9155 28.4229 23.8935L28.7782 23.8418C29.2158 23.7699 29.6458 23.6809 30.0768 23.5794C30.2377 23.52 30.4024 23.4644 30.5662 23.4146L30.6782 23.3811C30.7894 23.3418 30.8971 23.2931 31 23.2355C30.7716 22.6587 30.5107 22.0954 30.2185 21.5481C30.1588 21.4545 30.1026 21.3586 30.05 21.2608C29.8863 21.0581 29.7104 20.8656 29.5233 20.6843L29.1708 20.397C29.068 20.3257 28.9619 20.2592 28.8529 20.1978C28.1963 19.8919 27.4978 19.6853 26.7804 19.5848L26.6195 19.5733C26.4253 19.5439 26.2289 19.531 26.0325 19.535M24.8507 24.6606C24.5869 24.3644 24.2921 24.0973 23.9715 23.8638C23.0229 23.2171 21.9859 22.7107 20.8926 22.3602L20.8514 22.5518C20.6183 23.2503 20.4566 23.9706 20.3687 24.7018C20.3474 24.8845 20.341 25.0686 20.3496 25.2524C20.3534 25.6068 20.3984 25.9592 20.4884 26.2992C20.5258 26.4237 20.5746 26.5424 20.6302 26.6583C20.7872 26.8977 20.9443 27.1372 21.109 27.3728C21.1579 27.4398 21.2144 27.5078 21.2699 27.5681C21.5361 27.8296 21.8158 28.069 22.1155 28.2893C22.6576 28.6714 23.2418 29.0008 23.848 29.2738L24.2406 29.4117L25.4751 29.8455C25.7145 29.9432 25.9539 30.0332 26.1972 30.1117L26.2307 28.634C26.2232 28.3123 26.197 27.9912 26.1522 27.6725C26.1273 27.3849 26.0873 27.0988 26.0325 26.8154C25.9688 26.4218 25.8261 26.0452 25.613 25.7083C25.3784 25.3452 25.124 24.9955 24.8507 24.6606ZM19.1639 22.3832C18.1957 22.7643 17.2412 23.1796 16.3024 23.6282L15.8197 23.9347C15.5276 24.2382 15.225 24.5265 14.9099 24.8109C14.6086 25.0961 14.3792 25.4486 14.2405 25.8395C14.1926 25.9851 14.1658 26.1344 14.1658 26.2886C14.1416 26.8404 14.1756 27.3932 14.2673 27.9378C14.3908 28.5287 14.5517 29.109 14.75 29.6779L14.884 30.2314L15.0488 30.2085C15.7555 29.9729 16.4479 29.7038 17.1212 29.3973C17.6346 29.1453 18.1062 28.8159 18.5194 28.4205C18.6093 28.33 18.6934 28.234 18.7713 28.1331C18.8268 28.0757 18.8795 28.0125 18.9284 27.9493C19.4637 27.2272 19.7663 26.3595 19.796 25.4574C19.7916 25.3265 19.7928 25.1955 19.7999 25.0647C19.7702 24.8061 19.7328 24.5485 19.6849 24.2909L19.6619 24.1224C19.6133 23.9593 19.5708 23.7944 19.5346 23.6282C19.4196 23.2107 19.2961 22.7956 19.1639 22.3832Z" fill="white"/>
<circle cx="20" cy="20" r="19.5" stroke="black" stroke-opacity="0.05"/>
</svg>
