<svg width="40" height="40" viewBox="0 0 40 40" fill="none" xmlns="http://www.w3.org/2000/svg">
<circle cx="20" cy="20" r="20" fill="#F6F8FA"/>
<g clip-path="url(#clip0_18553_55769)">
<path d="M6.00765 19.5087L5.01543 21.9425C5.01543 21.9425 5.01066 21.9502 5.00589 21.9502H3.01193C3.01193 21.9502 3 21.945 3 21.9399C3 21.9399 3 21.9373 3 21.9347L5.1657 17.0077C5.1657 17.0077 5.17047 17 5.17524 17H7.01179C7.01179 17 7.02371 17.0052 7.02371 17.0129C7.02371 17.0129 7.02371 17.0155 7.02371 17.0181L6.54668 18.1898C6.54668 18.1898 6.54669 18.2027 6.55146 18.2053C6.55146 18.2053 6.55384 18.2053 6.55623 18.2053H7.82988C7.82988 18.2053 7.83704 18.2079 7.83942 18.213L9.47562 21.9347C9.47562 21.9347 9.47562 21.9476 9.47085 21.9502C9.47085 21.9502 9.46847 21.9502 9.46608 21.9502H7.62953C7.62953 21.9502 7.62238 21.9476 7.61999 21.9425L6.15552 18.6079C6.15552 18.6079 6.15075 18.6002 6.14598 18.6002H5.63557C5.63557 18.6002 5.62364 18.6053 5.62364 18.6131C5.62364 18.6131 5.62364 18.6157 5.62364 18.6182L6.01003 19.4957C6.01003 19.4957 6.01003 19.5035 6.01003 19.5061L6.00765 19.5087Z" fill="#4F86C6"/>
<path d="M12.4449 21.2096C12.5904 21.2096 12.7383 21.189 12.8934 21.1503C13.0484 21.109 13.2941 20.998 13.3465 20.8173C13.3561 20.7863 13.3608 20.7296 13.3608 20.647C13.3608 19.8624 13.3608 19.0545 13.3608 18.2235C13.3608 18.2132 13.3656 18.208 13.3751 18.208H15.0304C15.0304 18.208 15.0424 18.2132 15.0424 18.2209C15.0424 19.1371 15.0424 20.1153 15.0424 21.1554C15.0424 21.3283 14.9851 21.4651 14.8706 21.5632C14.7275 21.6871 14.5677 21.7826 14.3888 21.8497C13.7711 22.0845 13.0961 22.1517 12.4426 22.1517C11.7867 22.1517 11.114 22.0845 10.4963 21.8497C10.3198 21.7826 10.1576 21.6871 10.0145 21.5632C9.90002 21.4651 9.84277 21.3283 9.84277 21.1554C9.84277 20.1127 9.84277 19.1346 9.84277 18.2209C9.84277 18.2132 9.84754 18.208 9.8547 18.208H11.51C11.51 18.208 11.5243 18.2132 11.5243 18.2261C11.5243 19.0571 11.5243 19.865 11.5243 20.6496C11.5243 20.7321 11.5291 20.7889 11.5386 20.8199C11.5911 21.0006 11.8367 21.1115 11.9918 21.1528C12.1468 21.1941 12.2947 21.2148 12.4402 21.2148L12.4449 21.2096Z" fill="#9D9D9D"/>
<path d="M20.3043 18.2132V19.1371C20.3043 19.1371 20.302 19.1423 20.2996 19.1423C18.921 19.1423 18.1172 19.1423 17.893 19.1423C17.7761 19.1423 17.6091 19.1552 17.5257 19.2507C17.4589 19.3255 17.4684 19.452 17.54 19.5165C17.6211 19.5888 17.7642 19.6069 17.8691 19.6069C18.4034 19.6069 18.7707 19.6094 18.9734 19.612C19.231 19.6172 19.4719 19.6482 19.6937 19.7049C19.9323 19.7669 20.1875 19.8804 20.3592 20.0637C20.5548 20.2727 20.643 20.5308 20.6287 20.838C20.612 21.189 20.4689 21.4574 20.197 21.6432C20.0515 21.7413 19.8917 21.8136 19.7152 21.86C19.4576 21.9271 19.1833 21.9607 18.8971 21.9607C18.0766 21.9607 17.1226 21.9607 16.0326 21.9607C16.023 21.9607 16.0159 21.9529 16.0159 21.9426V21.029C16.0159 21.029 16.0207 21.016 16.0278 21.016C17.051 21.016 17.9073 21.016 18.5942 21.016C18.6801 21.016 18.7707 20.9928 18.8613 20.9489C18.89 20.936 18.9114 20.9076 18.9257 20.8689C18.9567 20.7863 18.9472 20.7167 18.8971 20.6599C18.8113 20.567 18.6419 20.5541 18.5131 20.5541C17.8763 20.5541 17.5114 20.5541 17.4207 20.5515C17.144 20.5463 16.8793 20.505 16.6265 20.4276C16.3808 20.3528 16.1471 20.2185 15.9873 20.0069C15.8585 19.8366 15.7941 19.6224 15.7965 19.3643C15.8012 18.399 16.8149 18.208 17.4994 18.208C17.9645 18.208 18.8971 18.208 20.2948 18.208C20.2996 18.208 20.302 18.2106 20.302 18.2183L20.3043 18.2132Z" fill="#9D9D9D"/>
<path d="M23.3835 18.2051C25.0507 18.2051 25.9165 18.2051 25.9762 18.2051C25.9833 18.2051 25.9857 18.2077 25.9857 18.2154V19.1316C25.9857 19.1316 25.9833 19.1445 25.9762 19.1445H24.247C24.235 19.1445 24.2279 19.1497 24.2279 19.1626V21.9345C24.2279 21.9345 24.2207 21.95 24.2136 21.95C24.0776 21.95 23.8009 21.95 23.3859 21.95C22.9709 21.95 22.6942 21.95 22.5583 21.95C22.5487 21.95 22.544 21.9422 22.544 21.9345V19.1626C22.544 19.1626 22.5368 19.1445 22.5249 19.1445H20.7957C20.7957 19.1445 20.7861 19.1394 20.7861 19.1316V18.2154C20.7861 18.2154 20.7885 18.2051 20.7957 18.2051C20.8553 18.2051 21.7211 18.2051 23.3883 18.2051H23.3835Z" fill="#9D9D9D"/>
<path d="M30.9679 20.0762C30.9679 20.2492 30.9679 20.404 30.9679 20.5382C30.9679 20.546 30.9631 20.5511 30.956 20.5511H28.1892C28.1892 20.5511 28.1844 20.5537 28.1844 20.5563V21.0002C28.1844 21.0002 28.1892 21.0105 28.194 21.0105H30.956C30.956 21.0105 30.9679 21.0157 30.9679 21.0234V21.9397C30.9679 21.9397 30.9631 21.95 30.956 21.95H26.5172C26.5172 21.95 26.5029 21.9422 26.5029 21.9345V20.0788C26.5029 19.4671 26.5029 18.8477 26.5029 18.2231C26.5029 18.2128 26.5101 18.2051 26.5172 18.2051H30.956C30.956 18.2051 30.9679 18.2077 30.9679 18.2154V19.1316C30.9679 19.1316 30.9631 19.1445 30.956 19.1445H28.194C28.194 19.1445 28.1844 19.1497 28.1844 19.1549V19.5988C28.1844 19.5988 28.1868 19.6039 28.1916 19.6039H30.9583C30.9583 19.6039 30.9703 19.6065 30.9703 19.6143C30.9703 19.7485 30.9703 19.9033 30.9703 20.0762H30.9679Z" fill="#9D9D9D"/>
<path d="M33.4985 20.1408C33.4985 20.1408 33.4842 20.133 33.4842 20.1459V21.9371C33.4842 21.9371 33.4794 21.95 33.4723 21.95H31.817C31.817 21.95 31.8003 21.9422 31.8003 21.9319V18.2154C31.8003 18.2154 31.8051 18.2051 31.8098 18.2051C32.1438 18.2051 32.4968 18.2051 32.8688 18.2051C32.9261 18.2051 32.969 18.2206 33 18.2541C33.6655 18.9639 34.1306 19.4594 34.3953 19.7459C34.4049 19.7562 34.4144 19.7562 34.4239 19.7459L35.8431 18.2283C35.855 18.2154 35.8741 18.2077 35.8932 18.2077H36.9832C36.9832 18.2077 36.9999 18.2154 36.9999 18.2231V21.9422C36.9999 21.9422 36.9951 21.9552 36.9879 21.9552H35.3327C35.3327 21.9552 35.316 21.9474 35.316 21.9371V20.1898C35.316 20.1717 35.3088 20.1692 35.2969 20.1821L34.4311 21.106C34.4168 21.1215 34.3953 21.1215 34.3834 21.106L33.4961 20.1433L33.4985 20.1408Z" fill="#9D9D9D"/>
</g>
<circle cx="20" cy="20" r="19.5" stroke="black" stroke-opacity="0.05"/>
<defs>
<clipPath id="clip0_18553_55769">
<rect width="34" height="5.15152" fill="white" transform="translate(3 17)"/>
</clipPath>
</defs>
</svg>
