<svg width="40" height="40" viewBox="0 0 40 40" fill="none" xmlns="http://www.w3.org/2000/svg">
<circle cx="20" cy="20" r="20" fill="#F6F8FA"/>
<path d="M11.5907 18.6634C10.8925 19.2959 10.4807 20.2687 10.5975 21.2048C10.7364 22.3117 11.6327 23.0729 12.7578 22.9781C12.7736 22.9767 12.779 22.9833 12.774 22.998L11.5681 26.6355C11.5631 26.651 11.5525 26.659 11.5363 26.6598C10.6488 26.7118 9.84114 26.5839 9.11332 26.2759C7.22593 25.4776 6.1062 23.7124 6.00822 21.6829C5.94434 20.3604 6.2528 19.1107 6.93361 17.9339C8.06411 15.9793 10.0069 14.4084 12.2426 13.8636C13.4273 13.5747 14.5898 13.6483 15.73 14.0843C15.7344 14.086 15.738 14.0894 15.74 14.0937C15.742 14.098 15.7423 14.103 15.7407 14.1075L14.4654 17.9458C14.4646 17.9483 14.4632 17.9507 14.4615 17.9527C14.4597 17.9547 14.4575 17.9564 14.455 17.9575C14.4525 17.9587 14.4499 17.9593 14.4471 17.9595C14.4444 17.9596 14.4416 17.9591 14.439 17.9582C14.3529 17.9255 14.2648 17.9027 14.1747 17.8898C13.1781 17.7473 12.3167 18.0052 11.5907 18.6634Z" fill="#00A651"/>
<path d="M25.3933 18.0841L26.2885 18.0847C26.2918 18.0847 26.2951 18.0855 26.298 18.087C26.301 18.0885 26.3035 18.0907 26.3055 18.0933C26.3074 18.096 26.3087 18.0991 26.3092 18.1024C26.3097 18.1056 26.3095 18.109 26.3084 18.1121L25.9165 19.3072C25.9108 19.3255 25.8984 19.3347 25.8794 19.3347L24.9653 19.3341C24.9463 19.3341 24.9337 19.3433 24.9276 19.3616C24.8056 19.7341 24.6834 20.1095 24.561 20.4878C24.5029 20.6676 24.4555 20.9136 24.7085 20.9744C24.9109 21.0234 25.1306 21.0283 25.3351 21.0035C25.34 21.0029 25.345 21.0035 25.3496 21.0054C25.3542 21.0072 25.3582 21.0102 25.3614 21.0141C25.3645 21.0179 25.3667 21.0225 25.3677 21.0274C25.3686 21.0324 25.3684 21.0375 25.3669 21.0423L24.9723 22.24C24.9666 22.258 24.9544 22.2671 24.9357 22.2675C24.5829 22.2747 24.2811 22.2723 24.0302 22.2605C23.868 22.2526 23.7056 22.2113 23.543 22.1367C23.0122 21.8934 22.9794 21.2926 23.1517 20.7677C23.522 19.6361 23.9188 18.4235 24.3419 17.1297C24.3487 17.1085 24.3633 17.0979 24.3855 17.0979H25.6431C25.6664 17.0979 25.6745 17.1088 25.6673 17.1307L25.3669 18.0475C25.3586 18.0719 25.3674 18.0841 25.3933 18.0841Z" fill="#2E3192"/>
<path d="M16.2988 18.5075C16.4582 18.6864 16.5672 18.9073 16.6194 19.1574C16.6716 19.4075 16.6661 19.682 16.6031 19.9651C16.5401 20.2483 16.4209 20.5346 16.2523 20.8077C16.0837 21.0808 15.869 21.3353 15.6204 21.5568C15.3718 21.7782 15.0943 21.9623 14.8036 22.0984C14.513 22.2345 14.2149 22.32 13.9264 22.35C13.6378 22.38 13.3645 22.354 13.1221 22.2734C12.8796 22.1928 12.6728 22.0592 12.5133 21.8802C12.3538 21.7012 12.2449 21.4803 12.1927 21.2302C12.1404 20.9801 12.146 20.7056 12.209 20.4225C12.272 20.1393 12.3912 19.853 12.5598 19.5799C12.7284 19.3068 12.9431 19.0523 13.1917 18.8308C13.4402 18.6094 13.7178 18.4253 14.0084 18.2892C14.2991 18.1531 14.5972 18.0676 14.8857 18.0376C15.1742 18.0076 15.4475 18.0336 15.69 18.1142C15.9324 18.1948 16.1393 18.3285 16.2988 18.5075ZM15.1148 19.4751C15.0478 19.409 14.9631 19.3622 14.8656 19.3373C14.7681 19.3124 14.6596 19.3098 14.5464 19.3299C14.4332 19.3499 14.3175 19.3921 14.2059 19.454C14.0943 19.5159 13.9889 19.5963 13.8958 19.6907C13.8028 19.7851 13.7238 19.8916 13.6635 20.004C13.6031 20.1165 13.5626 20.2328 13.5441 20.3463C13.5257 20.4597 13.5297 20.5681 13.556 20.6653C13.5823 20.7624 13.6303 20.8464 13.6973 20.9125C13.7643 20.9786 13.849 21.0254 13.9465 21.0503C14.044 21.0753 14.1524 21.0778 14.2656 21.0578C14.3788 21.0377 14.4945 20.9956 14.6062 20.9337C14.7178 20.8717 14.8231 20.7913 14.9162 20.6969C15.0093 20.6025 15.0883 20.4961 15.1486 20.3836C15.2089 20.2711 15.2495 20.1548 15.2679 20.0414C15.2864 19.9279 15.2823 19.8195 15.2561 19.7224C15.2298 19.6252 15.1818 19.5412 15.1148 19.4751Z" fill="#2E3192"/>
<path d="M20.4807 18.5686C20.9281 18.2123 21.4971 17.9522 22.0752 18.0362C22.6841 18.125 23.1428 18.5159 23.1148 19.1586C23.1079 19.3187 23.0529 19.5527 22.9495 19.8606C22.6803 20.6627 22.421 21.4546 22.1716 22.2363C22.1648 22.2582 22.1497 22.2691 22.1264 22.2691L20.8091 22.2697C20.7962 22.2697 20.7919 22.2634 20.7962 22.2508C21.0933 21.3432 21.3614 20.523 21.6004 19.7901C21.7926 19.2028 21.1036 19.2566 20.8818 19.5349C20.8093 19.6261 20.7474 19.7508 20.696 19.9091C20.4401 20.6979 20.1875 21.4738 19.9381 22.2368C19.9309 22.2584 19.916 22.2691 19.8934 22.2691L18.589 22.2697C18.5682 22.2697 18.561 22.2598 18.5675 22.2401C18.8219 21.4606 19.0848 20.6593 19.3561 19.8364C19.4175 19.6501 19.4487 19.3815 19.1806 19.3444C18.758 19.2852 18.5745 19.5662 18.4555 19.9344C18.1734 20.8094 17.9227 21.5774 17.7034 22.2384C17.6966 22.2589 17.6825 22.2691 17.6609 22.2691L16.3522 22.2697C16.3492 22.2696 16.3462 22.2689 16.3435 22.2675C16.3408 22.2661 16.3385 22.2641 16.3367 22.2617C16.3349 22.2593 16.3337 22.2565 16.3332 22.2536C16.3328 22.2507 16.333 22.2477 16.3339 22.2449C16.6002 21.4291 16.8881 20.5511 17.1974 19.6108C17.5005 18.6898 18.3914 18.0895 19.3443 18.0206C19.7798 17.9894 20.19 18.1821 20.4204 18.5584C20.4366 18.5846 20.4567 18.588 20.4807 18.5686Z" fill="#2E3192"/>
<path d="M28.6987 19.3606C28.548 19.283 28.3777 19.2723 28.1879 19.3283C27.7104 19.4688 27.3427 19.886 27.2818 20.3855C27.2463 20.6746 27.3604 20.9836 27.6635 21.0606C28.1556 21.1866 28.6024 20.7861 28.8387 20.3947C28.8502 20.376 28.8662 20.3706 28.8866 20.3785L29.9471 20.7877C29.9512 20.7892 29.955 20.7917 29.958 20.7949C29.961 20.7982 29.9632 20.802 29.9644 20.8063C29.9657 20.8105 29.9659 20.8149 29.9652 20.8193C29.9644 20.8236 29.9627 20.8277 29.96 20.8313C29.5202 21.424 28.9604 21.9596 28.2815 22.2164C27.4681 22.5238 26.4517 22.4 26.0168 21.5553C25.6695 20.8808 25.8827 20.0895 26.2983 19.4704C26.7984 18.7242 27.6554 18.1272 28.5388 18.032C29.4836 17.9302 30.1328 18.3506 30.338 19.297C30.3423 19.3161 30.336 19.3304 30.3191 19.3401L27.9795 20.687C27.9777 20.688 27.9758 20.6887 27.9737 20.6889C27.9717 20.6891 27.9696 20.6889 27.9676 20.6883C27.9657 20.6877 27.9638 20.6867 27.9623 20.6854C27.9607 20.684 27.9594 20.6824 27.9585 20.6805L27.6388 20.0098C27.635 20.0017 27.6344 19.9926 27.6371 19.9842C27.6398 19.9758 27.6456 19.9688 27.6533 19.9646L28.6987 19.395C28.7206 19.3832 28.7206 19.3717 28.6987 19.3606Z" fill="#2E3192"/>
<path d="M32.5871 19.508C32.1591 19.7777 31.8561 20.274 32.0402 20.7838C32.1188 21.0013 32.2926 21.0864 32.5317 21.0891C32.7043 21.0909 32.8746 21.0905 33.0425 21.088C33.0455 21.088 33.0484 21.0887 33.0511 21.0901C33.0537 21.0915 33.056 21.0934 33.0577 21.0959C33.0595 21.0983 33.0606 21.1011 33.061 21.104C33.0615 21.1069 33.0612 21.1099 33.0603 21.1128L32.6372 22.3342C32.6347 22.3417 32.6298 22.3483 32.6233 22.3528C32.6168 22.3574 32.609 22.3597 32.6011 22.3595C32.3336 22.3579 32.052 22.4004 31.7915 22.3455C31.5302 22.291 31.2989 22.1706 31.0975 21.9843C30.451 21.3873 30.346 20.4614 30.697 19.6641C31.1045 18.7393 32.0509 18.1842 33.0404 18.1304C33.3081 18.116 33.6234 18.1132 33.9862 18.1218C33.9884 18.1219 33.9905 18.1224 33.9924 18.1235C33.9944 18.1245 33.996 18.1259 33.9973 18.1276C33.9985 18.1293 33.9993 18.1313 33.9997 18.1334C34 18.1355 33.9998 18.1376 33.9992 18.1396L33.6083 19.3325C33.6022 19.3515 33.5893 19.361 33.5696 19.361C33.2202 19.3659 32.8956 19.3131 32.5871 19.508Z" fill="#2E3192"/>
<path d="M14.9166 20.6969C15.308 20.3 15.3969 19.753 15.1151 19.4751C14.8334 19.1973 14.2877 19.2938 13.8962 19.6907C13.5048 20.0877 13.4159 20.6347 13.6977 20.9125C13.9794 21.1904 14.5252 21.0939 14.9166 20.6969Z" fill="#F6F8FA"/>
<circle cx="20" cy="20" r="19.5" stroke="black" stroke-opacity="0.05"/>
</svg>
