<svg width="40" height="40" viewBox="0 0 40 40" fill="none" xmlns="http://www.w3.org/2000/svg">
<circle cx="20" cy="20" r="20" fill="#073C77"/>
<path d="M18.9904 11.8996L18.987 9.82907C18.987 9.76757 19.0177 9.73682 19.0775 9.73682H20.9498C20.9908 9.73682 21.0233 9.77098 21.0233 9.81198L21.0045 13.1074C21.0045 13.162 21.0353 13.2133 21.0831 13.2423L30.8582 18.8799C30.9453 18.9311 31 19.0234 31 19.1241V26.0566C31 26.1147 30.9778 26.1625 30.9351 26.2018C30.7625 26.3555 30.5627 26.4956 30.3372 26.6203C28.6835 27.5446 26.9632 28.5354 25.1763 29.5929C25.0618 29.6595 24.9217 29.6595 24.8056 29.5929L20.135 26.892C20.053 26.8458 19.9539 26.8458 19.8719 26.892L15.1022 29.6441C15.0492 29.6749 14.9826 29.6749 14.9296 29.6441L9.12983 26.294C9.04954 26.2462 9 26.1608 9 26.0668V23.9229C9 23.8921 9.02563 23.8665 9.05638 23.8648C9.06663 23.8648 9.07688 23.8665 9.08542 23.8733L14.916 27.2353C14.9758 27.2695 15.0475 27.2712 15.1073 27.2353L18.9169 25.0538C18.9596 25.0282 18.9852 24.982 18.9852 24.9325V20.6241C18.9835 20.5386 18.9391 20.4618 18.8657 20.4191L13.0573 17.0844C13.0146 17.0605 12.9992 17.0058 13.0231 16.9631C13.03 16.9494 13.0419 16.9375 13.0556 16.9306L14.9296 15.8441C14.986 15.8117 15.0424 15.8117 15.0988 15.8441L20.931 19.2044C20.9806 19.2335 21.0113 19.2864 21.0113 19.3445V24.9052C21.0113 24.9735 21.0404 25.0248 21.1002 25.0589L24.8483 27.2166C24.9303 27.2644 25.0294 27.2644 25.1114 27.2166L28.8236 25.076C28.8936 25.0367 28.9278 24.9786 28.9278 24.8983V20.2756C28.9278 20.2158 28.8953 20.1594 28.8441 20.1304L15.0731 12.1815C15.0373 12.161 14.9929 12.161 14.9553 12.1815L11.1645 14.3664C11.1081 14.3989 11.079 14.4484 11.079 14.515L11.0842 18.844C11.0842 18.9226 11.1183 18.9806 11.185 19.0199L17.0189 22.3837C17.048 22.4007 17.0599 22.4383 17.0429 22.4674C17.0377 22.4776 17.0292 22.4862 17.0189 22.4913L15.1825 23.5522C15.0817 23.6102 14.957 23.6102 14.8562 23.5522L9.12813 20.2482C9.04954 20.2021 9.00171 20.1184 9.00171 20.0279V13.3226C9 13.256 9.03588 13.1945 9.09396 13.1603L14.8852 9.82223C14.9672 9.77611 15.0663 9.77611 15.1466 9.82223L18.8759 11.9662C18.9135 11.9867 18.9596 11.973 18.9801 11.9372C18.987 11.9252 18.9904 11.9132 18.9904 11.8996Z" fill="white"/>
<path d="M28.9294 15.5244L28.938 9.85445C28.938 9.80149 28.9824 9.75708 29.0354 9.75708L30.8992 9.74512C30.9521 9.74512 30.9965 9.78953 30.9965 9.84249L30.9914 16.6024C30.9914 16.6554 30.9487 16.6998 30.894 16.6998C30.877 16.6998 30.8599 16.6964 30.8462 16.6878L28.979 15.6081C28.9482 15.5911 28.9294 15.5586 28.9294 15.5244Z" fill="#2CA6D1"/>
<circle cx="20" cy="20" r="19.5" stroke="black" stroke-opacity="0.05"/>
</svg>
