<svg width="40" height="40" viewBox="0 0 40 40" fill="none" xmlns="http://www.w3.org/2000/svg">
<circle cx="20" cy="20" r="20" fill="#231F20"/>
<path d="M17.5012 16.0405C16.8827 16.0441 16.2909 16.2932 15.856 16.7329C15.421 17.1727 15.1785 17.7671 15.1817 18.3857V18.4519C15.1785 19.0704 15.421 19.6649 15.856 20.1046C16.2909 20.5444 16.8827 20.7934 17.5012 20.797H21.8046C21.8376 20.7974 21.8702 20.8043 21.9006 20.8173C21.9309 20.8303 21.9584 20.8491 21.9815 20.8728C22.0045 20.8964 22.0227 20.9243 22.035 20.955C22.0473 20.9856 22.0534 21.0184 22.053 21.0514V21.1176C22.053 21.1838 22.0269 21.2473 21.9804 21.2943C21.9339 21.3414 21.8708 21.3682 21.8046 21.369H15.6016V23.4612H21.8046C22.4213 23.4553 23.0105 23.2054 23.4435 22.7662C23.8765 22.327 24.1179 21.7343 24.1151 21.1176V21.0529C24.1175 20.4363 23.8759 19.8438 23.4431 19.4047C23.0102 18.9656 22.4212 18.7156 21.8046 18.7093H17.5012C17.4682 18.7091 17.4355 18.7024 17.4051 18.6896C17.3747 18.6767 17.3471 18.6581 17.3239 18.6346C17.3007 18.6111 17.2823 18.5833 17.2699 18.5527C17.2574 18.5221 17.2511 18.4894 17.2513 18.4564V18.3902C17.2513 18.3236 17.2776 18.2598 17.3243 18.2124C17.3711 18.1651 17.4347 18.1381 17.5012 18.1373H23.7734V16.0405H17.5012Z" fill="white"/>
<path d="M6 16.0405V18.1072H12.3896C12.4559 18.1072 12.5195 18.1335 12.5663 18.1804C12.6132 18.2272 12.6395 18.2908 12.6395 18.3571V18.4218C12.6395 18.488 12.6132 18.5516 12.5663 18.5985C12.5195 18.6453 12.4559 18.6716 12.3896 18.6716H8.42942C7.81594 18.6724 7.2278 18.9164 6.79386 19.35C6.35993 19.7837 6.11559 20.3717 6.1144 20.9852V23.4838H8.17955V20.9852C8.17995 20.919 8.2064 20.8557 8.25317 20.8089C8.29994 20.7621 8.36327 20.7357 8.42942 20.7353H12.3896C13.0034 20.7345 13.5917 20.4903 14.0257 20.0564C14.4597 19.6224 14.7039 19.034 14.7047 18.4203V18.3555C14.7039 17.7418 14.4597 17.1534 14.0257 16.7195C13.5917 16.2855 13.0034 16.0413 12.3896 16.0405H6Z" fill="white"/>
<path d="M26.9675 16.0361H24.9023V23.4629H26.9675V16.0361Z" fill="#BD1B21"/>
<path d="M27.7066 20.9371C27.7025 20.9309 27.699 20.9244 27.696 20.9175C27.5531 20.6102 27.4763 20.2763 27.4706 19.9374C27.4649 19.5985 27.5304 19.2622 27.6629 18.9502C27.6629 18.9502 27.7201 18.5829 28.6413 17.6693L30.3166 16H33.2533L30.7862 18.4339L29.6483 19.6035C29.5845 19.6772 29.5483 19.7709 29.546 19.8684C29.5496 19.935 29.567 20.0002 29.597 20.0598C29.6271 20.1194 29.6691 20.1721 29.7206 20.2146L33.9969 23.4719H30.58L28.8791 22.212C28.8791 22.212 27.976 21.5693 27.7066 20.9371Z" fill="white"/>
<circle cx="20" cy="20" r="19.5" stroke="black" stroke-opacity="0.05"/>
</svg>
