<svg width="40" height="40" viewBox="0 0 40 40" fill="none" xmlns="http://www.w3.org/2000/svg">
<circle cx="20" cy="20" r="20" fill="#005BAC"/>
<g clip-path="url(#clip0_14382_21288)">
<path d="M5.25195 14.4238V15.6565C5.5514 15.231 5.87055 14.8201 6.20659 14.4238H5.25195Z" fill="white"/>
<path d="M10.8087 22.894C11.1228 21.8831 11.613 20.9487 12.2429 20.1275L11.2077 18.5244C10.5464 19.2865 10.0032 20.1275 9.58667 21.0253L10.7107 22.894H10.8087Z" fill="white"/>
<path d="M13.1925 21.5984L12.449 20.4468C11.8934 21.1926 11.4684 22.0183 11.1853 22.8942H12.53C12.7079 22.4382 12.9302 22.0043 13.1925 21.5984Z" fill="white"/>
<path d="M6.14136 22.894H7.9465V20.2496L8.68161 19.5201L9.36776 20.6605C9.80511 19.7711 10.3579 18.9488 11.0074 18.2137L10.6185 17.6108L13.7148 14.4238H11.7605C11.0682 14.8961 10.4153 15.4359 9.80961 16.0415C7.90991 17.9429 6.65132 20.3143 6.14136 22.894Z" fill="white"/>
<path d="M5.77591 22.894C6.44686 19.4368 8.41298 16.4372 11.148 14.4238H10.4489L7.94692 17.2202V14.4238H6.67426C6.15417 15.0137 5.67966 15.634 5.25244 16.2813V22.8945H5.77648L5.77591 22.894Z" fill="white"/>
<path d="M13.9989 22.8465L13.4073 21.9302C13.2182 22.2392 13.0538 22.5612 12.9165 22.8944H13.9747C13.9826 22.8786 13.991 22.8629 13.9989 22.8465Z" fill="white"/>
<path d="M17.4156 19.8974C17.9858 19.7072 18.5942 19.6014 19.2263 19.5952L18.9573 18.6411C18.3347 18.6698 17.728 18.7813 17.1482 18.9698L17.4156 19.8969V19.8974Z" fill="white"/>
<path d="M19.661 18.2805C20.2751 18.312 20.8751 18.4195 21.4498 18.5991L21.5809 18.142V18.6413C22.504 18.9492 23.3591 19.4434 24.1004 20.1053V18.5C22.8896 17.6647 21.4886 17.1615 20.0088 17.0371L19.6604 18.2805H19.661Z" fill="white"/>
<path d="M21.084 19.8723L21.3497 18.9481C20.7756 18.768 20.175 18.6633 19.5603 18.6396L19.293 19.5943C19.9099 19.5954 20.5122 19.6911 21.084 19.8729V19.8723Z" fill="white"/>
<path d="M21.5811 21.6616V22.8938H22.9235C22.7839 22.7013 22.6291 22.5178 22.458 22.3466C22.1912 22.0793 21.8968 21.8507 21.5811 21.6616Z" fill="white"/>
<path d="M23.4734 21.331C23.7048 21.5623 23.913 21.8106 24.1005 22.0712V20.6021C23.3727 19.8884 22.5154 19.3553 21.5811 19.0249V20.055C22.2796 20.3488 22.9213 20.7783 23.4734 21.331Z" fill="white"/>
<path d="M20.216 22.8939L20.6865 21.2548C20.2391 21.1079 19.7674 21.0308 19.2827 21.0308C18.7745 21.0308 18.2797 21.1158 17.8125 21.2767L18.2791 22.8939H20.2154H20.216Z" fill="white"/>
<path d="M24.1004 14.4238H20.7412L20.7029 14.56C21.8917 14.712 23.036 15.0537 24.1004 15.571V14.4238Z" fill="white"/>
<path d="M17.767 14.4238H14.4077V15.6076C15.458 15.088 16.6024 14.7306 17.808 14.569L17.767 14.4244V14.4238Z" fill="white"/>
<path d="M16.9097 21.7104C16.6232 21.89 16.3541 22.1022 16.1093 22.3471C15.9382 22.5182 15.7834 22.7017 15.6438 22.8942H16.9097V21.7104Z" fill="white"/>
<path d="M14.4077 22.8404V22.8945H15.2092C15.6376 22.2325 16.2213 21.6809 16.9103 21.2925V20.4854C16.3384 20.7561 15.811 21.1259 15.35 21.5875C14.9734 21.9646 14.6582 22.3867 14.4083 22.841L14.4077 22.8404Z" fill="white"/>
<path d="M22.7134 22.0908C22.9605 22.3379 23.1761 22.6075 23.3613 22.894H24.0998V22.7364C23.8594 22.3216 23.5645 21.9349 23.2166 21.5871C22.7359 21.1058 22.1815 20.7247 21.5803 20.4512V21.2454C21.9918 21.4677 22.3734 21.7503 22.7128 22.0908H22.7134Z" fill="white"/>
<path d="M16.9097 20.0918V19.0527C15.9832 19.3927 15.1338 19.9325 14.4156 20.6519C14.4128 20.6547 14.4105 20.6575 14.4077 20.6597V22.1598C15.0308 21.2581 15.896 20.537 16.9097 20.0918Z" fill="white"/>
<path d="M19.2834 20.6682C19.8018 20.6682 20.3078 20.7503 20.7868 20.9063L20.9838 20.2207C20.4412 20.0468 19.8693 19.9556 19.2834 19.9556C18.6974 19.9556 18.0777 20.0552 17.5154 20.2432L17.7135 20.931C18.2066 20.7616 18.734 20.6687 19.2834 20.6687V20.6682Z" fill="white"/>
<path d="M16.9097 18.6714V18.1423L17.0487 18.6247C17.6234 18.4378 18.2291 18.3208 18.8567 18.2842L18.506 17.0425C17.0217 17.1764 15.6168 17.6915 14.4077 18.5414V20.1631C15.1254 19.509 15.9742 18.9968 16.9097 18.6714Z" fill="white"/>
<path d="M24.1004 18.0647V15.9753C23.0112 15.4231 21.832 15.0634 20.6038 14.9126L20.1079 16.6828C21.5421 16.8146 22.9048 17.2885 24.0998 18.0647H24.1004Z" fill="white"/>
<path d="M18.4059 16.6879L17.9066 14.9199C16.6767 15.0775 15.4964 15.4451 14.4072 16.0057V18.1097C15.5769 17.3363 16.9396 16.8326 18.4053 16.6879H18.4059Z" fill="white"/>
<path d="M24.7466 15.9115C25.5949 16.3961 26.3835 16.9973 27.0927 17.7071C27.3088 17.9232 27.5143 18.1472 27.7102 18.378L27.0066 14.4238H24.387L24.7466 15.9115Z" fill="white"/>
<path d="M29.4887 21.2832L30.1664 17.9848L31.1053 22.8942H32.4252C31.9153 20.3145 30.6567 17.9431 28.757 16.0417C28.7316 16.0164 28.7058 15.9916 28.6799 15.9663L28.1001 18.8651C28.6675 19.6143 29.133 20.426 29.4887 21.2832Z" fill="white"/>
<path d="M27.9387 19.6714L27.8419 19.1226C27.5374 18.7162 27.2025 18.3289 26.8372 17.963C26.2349 17.3602 25.5729 16.839 24.866 16.4033L25.551 19.2391C25.551 19.2391 25.5549 19.243 25.5566 19.2447C26.5929 20.2821 27.3409 21.5305 27.7614 22.8933H29.1579L29.3538 21.9398C29.0279 21.0195 28.5747 20.1476 28.004 19.3443L27.9387 19.6708V19.6714Z" fill="white"/>
<path d="M35.9466 14.4238H33.2752L33.1069 15.3514C33.8336 16.3359 34.4477 17.3885 34.943 18.4929L35.9466 14.4238Z" fill="white"/>
<path d="M27.3815 22.8941C27.0347 21.8218 26.4758 20.825 25.7244 19.957L26.4341 22.8941H27.3815Z" fill="white"/>
<path d="M32.3245 19.6715L31.2866 14.4238H28.9889L28.7649 15.5428C28.8488 15.6228 28.9315 15.7032 29.0137 15.7854C30.9821 17.7555 32.28 20.2175 32.794 22.894H33.8583L34.8 19.0737C34.3295 17.9395 33.7328 16.8577 33.0174 15.8457L32.324 19.6721L32.3245 19.6715Z" fill="white"/>
<path d="M19.2935 19.5938C19.2901 19.5938 19.2867 19.5938 19.2839 19.5938C19.2648 19.5938 19.2462 19.5949 19.2271 19.5954L19.2603 19.7131L19.2935 19.5943V19.5938Z" fill="white"/>
<path d="M4 25.5757C4 25.0815 13.1518 23.7773 20.0532 23.7773C26.3174 23.7773 36 25.081 36 25.5757H4Z" fill="white"/>
</g>
<circle cx="20" cy="20" r="19.5" stroke="black" stroke-opacity="0.05"/>
<defs>
<clipPath id="clip0_14382_21288">
<rect width="32" height="11.1517" fill="white" transform="translate(4 14.4238)"/>
</clipPath>
</defs>
</svg>
