<svg width="40" height="40" viewBox="0 0 40 40" fill="none" xmlns="http://www.w3.org/2000/svg">
<circle cx="20" cy="20" r="20" fill="#F6F8FA"/>
<g clip-path="url(#clip0_17752_43920)">
<path d="M20 15.698V17.8652H22.58V25.302H25.0549V17.8652H27.6274V15.698H20Z" fill="black"/>
<path d="M31.9242 15.698H34.399V21.9176C34.399 23.9958 33.0942 25.5098 30.769 25.5098C28.4439 25.5098 27.1465 23.929 27.1465 21.8063H29.6214C29.6214 22.6525 30.0788 23.1792 30.7688 23.1792C31.4588 23.1792 31.9162 22.7266 31.9162 21.8063V15.698H31.9237H31.9242Z" fill="black"/>
<path d="M14.2695 14.5625L17.5995 17.8652V14.5625H14.2695Z" fill="#00AFEC"/>
<path d="M17.5696 21.1308C17.5696 23.3277 15.267 26.4375 11.5996 26.4375C7.93217 26.4375 5.59961 23.7803 5.59961 20.5C5.59961 17.2197 8.28449 14.5625 11.5996 14.5625H14.2622V17.8652H11.5996C10.1296 17.8652 8.93705 19.0453 8.93705 20.5C8.93705 21.9547 10.1296 23.1348 11.5996 23.1348C13.0696 23.1348 14.2622 21.9547 14.2622 20.5V17.8652L17.5622 21.1308H17.5696Z" fill="black"/>
</g>
<circle cx="20" cy="20" r="19.5" stroke="black" stroke-opacity="0.05"/>
<defs>
<clipPath id="clip0_17752_43920">
<rect width="30" height="13" fill="white" transform="translate(5 13.7368)"/>
</clipPath>
</defs>
</svg>
