<svg width="40" height="40" viewBox="0 0 40 40" fill="none" xmlns="http://www.w3.org/2000/svg">
<circle cx="20" cy="20" r="20" fill="#F6F8FA"/>
<path d="M19.9992 14.3767H27.9038C28.1578 12.3747 28.4643 11.0067 28.4718 10.9745L28.4868 10.907C28.4868 10.907 26.4419 10.6643 23.9357 9.95477C21.4187 9.24261 20.2318 8.40398 19.9992 8.2877C19.7667 8.40398 18.5797 9.24261 16.0628 9.95477C13.5566 10.6643 11.5117 10.907 11.5117 10.907L11.5267 10.9745C11.5342 11.0067 11.8407 12.3747 12.0947 14.3767H19.9992Z" fill="#231916"/>
<path d="M20.0162 19.1084V17.0223H14.9229V26.1566H20.0162V24.0716H17.009V22.6328H20.0162V20.5472H17.009V19.1084H20.0162Z" fill="#E94D08"/>
<path d="M16.0919 12.6288C16.0747 12.743 16.0152 13.0264 15.989 13.1122H14.5293V13.0029C14.7801 12.9809 14.8079 12.9654 14.8079 12.721V11.5834C14.8079 11.3326 14.7801 11.3165 14.5652 11.301V11.1911H15.9183C15.9215 11.2463 15.9338 11.4574 15.9477 11.6284L15.832 11.6439C15.8052 11.5309 15.7709 11.4548 15.7286 11.3964C15.6916 11.3433 15.6101 11.3165 15.4312 11.3165H15.2511C15.1493 11.3165 15.1386 11.3224 15.1386 11.4199V12.048H15.3669C15.6144 12.048 15.6428 12.0292 15.6814 11.8272H15.7923V12.4204H15.6814C15.6428 12.2044 15.6144 12.1921 15.3669 12.1921H15.1386V12.7146C15.1386 12.8528 15.1589 12.9198 15.2136 12.9498C15.2634 12.9777 15.3669 12.9841 15.4922 12.9841C15.6643 12.9841 15.7612 12.9654 15.8255 12.8919C15.8802 12.8309 15.9306 12.7365 15.9793 12.6085L16.0919 12.6288Z" fill="white"/>
<path d="M17.424 11.6629C17.3661 11.478 17.283 11.2717 17.0403 11.2717C16.8511 11.2717 16.7381 11.4062 16.7381 11.567C16.7381 11.7502 16.8634 11.8494 17.1073 11.9716C17.38 12.1055 17.6195 12.2625 17.6195 12.5739C17.6195 12.9013 17.3441 13.1553 16.9304 13.1553C16.8179 13.1553 16.722 13.1344 16.6427 13.1124C16.5612 13.0904 16.5108 13.0674 16.4749 13.0519C16.4471 12.9747 16.4106 12.748 16.3887 12.5706L16.5044 12.538C16.5548 12.718 16.6984 13.0299 16.9915 13.0299C17.1844 13.0299 17.3061 12.9013 17.3061 12.7051C17.3061 12.5165 17.1608 12.4067 16.9433 12.292C16.6861 12.1639 16.4439 12.0058 16.4439 11.702C16.4439 11.3934 16.6834 11.1474 17.0869 11.1474C17.2519 11.1474 17.3988 11.1946 17.4792 11.2213C17.4915 11.3264 17.5113 11.4512 17.5365 11.6409L17.424 11.6629Z" fill="white"/>
<path d="M19.1487 11.5408C19.0137 11.5408 18.8905 11.6721 18.8905 11.8993C18.8905 12.1281 19.0175 12.2878 19.1825 12.2878C19.3192 12.2862 19.4445 12.1635 19.4445 11.9368C19.4445 11.6989 19.3192 11.5408 19.1514 11.5408H19.1487ZM19.227 12.8022C19.0844 12.8022 19.0175 12.8231 18.9591 12.873C18.8712 12.9383 18.8133 13.0262 18.8133 13.1146C18.8133 13.277 18.9885 13.3863 19.2066 13.3863C19.4976 13.3863 19.6482 13.2427 19.6482 13.0562C19.6482 12.9587 19.6016 12.881 19.5196 12.8467C19.4445 12.8119 19.3572 12.8022 19.2302 12.8022H19.227ZM19.8861 11.5033C19.8609 11.5531 19.7966 11.6314 19.75 11.6549L19.5839 11.6421C19.6401 11.7069 19.6718 11.805 19.6718 11.91C19.6718 12.2299 19.4097 12.3875 19.1514 12.3875C19.108 12.3875 19.0512 12.3816 19.0003 12.3725C18.9564 12.4046 18.9044 12.463 18.9044 12.5037C18.9044 12.5616 18.9532 12.6131 19.0844 12.6131C19.2039 12.6131 19.3117 12.612 19.4129 12.612C19.6016 12.612 19.8379 12.6741 19.8379 12.9651C19.8379 13.2631 19.4949 13.5449 19.1048 13.5449C18.7795 13.5449 18.5931 13.352 18.5898 13.1784C18.5898 13.1173 18.6129 13.053 18.6606 13.0064C18.7147 12.948 18.8337 12.8494 18.9012 12.7963C18.7999 12.7685 18.7211 12.6977 18.6836 12.6366C18.6606 12.5959 18.6504 12.5439 18.6541 12.5177C18.7651 12.4769 18.8572 12.3955 18.9044 12.3344C18.7854 12.2824 18.6541 12.1485 18.6541 11.9432C18.6541 11.6046 18.9591 11.4481 19.1825 11.4481H19.1863C19.2784 11.4481 19.3808 11.4749 19.4649 11.5204C19.6074 11.5124 19.7468 11.4969 19.8657 11.4765L19.8861 11.5033Z" fill="white"/>
<path d="M20.4426 11.7611C20.532 11.6143 20.6569 11.4482 20.8096 11.4482C20.9141 11.4482 20.98 11.5237 20.98 11.5939C20.98 11.6454 20.9516 11.7006 20.8937 11.73C20.8573 11.7413 20.8353 11.7397 20.8155 11.7241C20.7748 11.6786 20.7389 11.6625 20.6933 11.6625C20.6092 11.6625 20.5004 11.7643 20.4361 11.9433V12.469C20.4361 12.6662 20.449 12.6871 20.6837 12.701V12.7852H20.0117V12.701C20.2084 12.6871 20.2287 12.6662 20.2287 12.4706V11.8662C20.2287 11.6657 20.2159 11.6582 20.039 11.6379V11.5612C20.1752 11.5371 20.3032 11.4996 20.4361 11.4385V11.7611H20.4426Z" fill="white"/>
<path d="M21.3458 12.0699C21.3458 12.4423 21.513 12.7146 21.7729 12.7146C21.9669 12.7146 22.1239 12.5683 22.1239 12.1712C22.1239 11.8416 21.9765 11.5533 21.7054 11.5533C21.5162 11.5533 21.3458 11.7334 21.3458 12.0699ZM21.7364 11.4483C22.0955 11.4483 22.3773 11.7398 22.3773 12.1106C22.3773 12.5993 22.0221 12.8196 21.7364 12.8196C21.3356 12.8196 21.0918 12.4943 21.0918 12.1637C21.0918 11.6659 21.4723 11.4483 21.7343 11.4483H21.7364Z" fill="white"/>
<path d="M23.9964 12.7146C23.9353 12.7247 23.8538 12.7387 23.7761 12.7622C23.7006 12.7826 23.6256 12.8024 23.5784 12.8196L23.5586 12.8024V12.5913C23.4846 12.6492 23.4155 12.7012 23.3249 12.751C23.2387 12.7992 23.1819 12.8196 23.1042 12.8196C22.9161 12.8196 22.735 12.707 22.735 12.3689V11.8052C22.735 11.6391 22.7098 11.6251 22.639 11.6107L22.5469 11.5935V11.5158C22.6112 11.5126 22.6766 11.503 22.7553 11.4971C22.8346 11.4826 22.9161 11.4719 22.9536 11.459C22.9445 11.5582 22.9445 11.7034 22.9445 11.8995V12.2907C22.9445 12.5683 23.0806 12.6363 23.2199 12.6363C23.3341 12.6363 23.4471 12.5881 23.5586 12.4831V11.8052C23.5586 11.6391 23.528 11.6251 23.4268 11.6107L23.3169 11.5935V11.5158C23.3951 11.5126 23.5029 11.503 23.5843 11.4955C23.6663 11.4826 23.7322 11.4719 23.7697 11.459V12.4536C23.7697 12.6058 23.796 12.6224 23.9123 12.6288L23.9964 12.632V12.7146Z" fill="white"/>
<path d="M24.4885 12.5553C24.5554 12.6223 24.6621 12.6695 24.773 12.6695C25.0474 12.6695 25.2178 12.4487 25.2178 12.1202C25.2178 11.8019 25.035 11.6219 24.811 11.6219C24.7124 11.6219 24.5795 11.6985 24.4885 11.7639V12.5553ZM24.7762 11.4922C24.8234 11.459 24.8812 11.4483 24.9225 11.4483C25.2446 11.4483 25.4482 11.713 25.4482 12.0114C25.4482 12.4691 25.0881 12.7541 24.6985 12.8195C24.6074 12.8147 24.5292 12.7852 24.4885 12.7622V13.1405C24.4885 13.3661 24.5088 13.3822 24.7435 13.402V13.4883H24.0576V13.402C24.2537 13.3822 24.2784 13.3661 24.2784 13.1657V11.8491C24.2784 11.6513 24.2709 11.6454 24.0737 11.6251V11.5431C24.1959 11.5233 24.3588 11.4718 24.4885 11.4182V11.6578L24.7762 11.4922Z" fill="white"/>
<path d="M29.0981 11.1887C29.0815 11.2611 27.4793 18.4743 28.663 24.0092L28.7048 24.2048L28.6598 24.3999C28.618 24.5799 27.5591 28.8416 20.2902 31.5118L19.9997 31.6185L19.7093 31.5118C12.4403 28.8416 11.3815 24.5799 11.3402 24.3999L11.2952 24.2048L11.337 24.0092C12.5207 18.4743 10.9185 11.2611 10.9019 11.1887L10.732 10.4358C10.732 10.4358 16.4496 9.79923 19.9997 7.38946C23.5504 9.79923 29.268 10.4358 29.268 10.4358L29.0981 11.1887ZM30 9.94767C30 9.94767 23.8306 9.2773 19.9997 6.73678C16.1694 9.2773 10 9.94767 10 9.94767L10.1838 10.7407C10.2015 10.8174 11.9307 18.4191 10.6538 24.252L10.6087 24.4583L10.657 24.6635C10.702 24.8532 11.8444 29.3448 19.6873 32.1586L19.9997 32.2706L20.3127 32.1586C28.1556 29.3448 29.298 24.8532 29.343 24.6635L29.3913 24.4583L29.3462 24.252C28.0693 18.4191 29.7985 10.8174 29.8162 10.7407L30 9.94767Z" fill="#231916"/>
<path d="M13.5353 26.4591C12.574 25.3258 12.2819 24.4341 12.2267 24.2417C12.8767 21.1911 12.7133 17.6801 12.4432 15.1781H19.9994V30.5976C16.4536 29.296 14.5277 27.6294 13.5353 26.4591ZM28.1076 24.2106C27.4313 21.0726 27.6328 17.4239 27.9205 14.9156L27.9254 14.8679H27.8429H27.5905H19.9994H12.4089H12.1565H12.0735L12.0788 14.9156C12.3671 17.4239 12.5681 21.0726 11.8918 24.2106L11.8838 24.2476L11.8924 24.2846C11.902 24.3275 12.1517 25.3408 13.2679 26.6628C14.2925 27.877 16.2821 29.603 19.9432 30.9363L19.9994 30.9572L20.0562 30.9363C23.7172 29.603 25.7069 27.877 26.7315 26.6628C27.8477 25.3408 28.0974 24.3275 28.1065 24.2846L28.1156 24.2476L28.1076 24.2106Z" fill="#E94D08"/>
<path d="M25.7497 23.3429C25.7459 21.8189 24.5199 20.5784 23.0018 20.5484V20.5452H22.4643C22.0673 20.5452 21.7436 20.2242 21.7436 19.8266C21.7436 19.4295 22.0673 19.1085 22.4643 19.1085H25.1093V17.0224H22.5452H22.4643C20.9178 17.0224 19.6602 18.2806 19.6602 19.8266C19.6602 21.3731 20.9178 22.6313 22.4643 22.6313H22.9461C23.3431 22.6313 23.6663 22.9523 23.6663 23.3499V23.3526C23.6663 23.7502 23.3431 24.0712 22.9461 24.0712H20.016V26.1567H22.9461C24.492 26.1567 25.7502 24.8985 25.7502 23.3526V23.3499V23.3429H25.7497Z" fill="white"/>
<circle cx="20" cy="20" r="19.5" stroke="black" stroke-opacity="0.05"/>
</svg>
