<svg width="40" height="40" viewBox="0 0 40 40" fill="none" xmlns="http://www.w3.org/2000/svg">
<circle cx="20" cy="20" r="20" fill="#F6F8FA"/>
<g clip-path="url(#clip0_18553_55597)">
<path d="M20.0352 31.2632C26.1103 31.2632 31.0352 26.3383 31.0352 20.2632C31.0352 14.1881 26.1103 9.26318 20.0352 9.26318C13.96 9.26318 9.03516 14.1881 9.03516 20.2632C9.03516 26.3383 13.96 31.2632 20.0352 31.2632Z" fill="url(#paint0_linear_18553_55597)"/>
<path d="M20.0352 20.2632L28.9782 13.9136C29.6043 14.8079 30.1408 15.7916 30.4986 16.8648C30.8563 17.938 31.0352 19.0111 31.0352 20.0843L20.0352 20.2632Z" fill="url(#paint1_linear_18553_55597)"/>
<path d="M16.3687 21.9625L16.637 22.4991C16.1004 23.0357 15.4744 23.3934 14.7589 23.5722C14.6695 23.5722 14.5801 23.5722 14.4906 23.5722C14.3118 23.5722 14.0435 23.5722 13.8646 23.5722C12.1654 23.3934 10.824 21.9625 10.9134 20.2633C10.9134 18.8324 11.9866 17.6698 13.4175 17.3121C13.6858 17.3121 13.9541 17.2227 14.2223 17.2227C15.2061 17.2227 16.011 17.5804 16.637 18.2958C16.4581 18.5641 16.2793 18.9218 16.1898 19.2796C15.8321 18.6536 15.3849 18.2958 14.7589 18.2064C13.5963 17.9381 12.3443 18.6536 12.076 19.8162C11.7183 21.3365 12.9703 22.7674 14.5801 22.5885C15.2955 22.5885 15.8321 22.1414 16.1898 21.5153L16.3687 21.9625Z" fill="white"/>
<path d="M22.1816 18.2958C22.1816 18.2958 22.6287 18.9218 22.8076 19.2796C22.9864 19.7267 23.0759 20.1739 22.9864 20.7105V20.7999H17.71C17.8889 21.8731 18.8726 22.6779 19.9458 22.5885C20.7507 22.5885 21.3767 22.0519 21.7344 21.4259H22.8076C22.4498 22.4096 21.7344 23.1251 20.7507 23.4828C19.1409 24.0194 17.4417 23.2145 16.8157 21.6942C16.3685 20.5316 16.5474 19.1901 17.4417 18.2958C17.9783 17.6698 18.6937 17.3121 19.5881 17.2227C19.6775 17.2227 19.8563 17.2227 20.0352 17.2227C20.9295 17.2227 21.645 17.6698 22.1816 18.2958ZM18.4255 19.8162H21.8238C21.645 19.1901 21.3767 18.743 20.8401 18.4747C20.3929 18.2064 19.8563 18.117 19.3198 18.2064C18.5149 18.3853 17.8889 19.0113 17.6206 19.8162H18.336H18.4255Z" fill="white"/>
<path d="M27.1005 17.2228C27.6371 17.4016 28.0843 17.6699 28.442 18.0277C28.7997 18.4748 29.068 19.0114 29.068 19.6374V20.6211V23.3041H27.9948C27.9948 22.4098 27.9948 21.5155 27.9948 20.7106C27.9948 20.7106 27.9948 20.7106 27.9948 20.6211C27.9948 20.6211 27.9948 20.6211 27.9948 20.5317C27.9948 20.0846 27.9948 19.8163 27.9948 19.6374C27.9948 19.1008 27.7265 18.7431 27.3688 18.4748C26.8322 18.1171 26.2956 18.1171 25.7591 18.2959C25.133 18.5642 24.8648 19.0114 24.7753 19.7268V23.3935H23.7021V22.4992V20.6211C23.7021 20.2634 23.7021 19.9951 23.7021 19.6374C23.7021 19.3691 23.7021 19.1008 23.7916 18.8325C24.2387 17.4911 25.8485 16.865 27.19 17.2228H27.1005Z" fill="white"/>
</g>
<circle cx="20" cy="20" r="19.5" stroke="black" stroke-opacity="0.05"/>
<defs>
<linearGradient id="paint0_linear_18553_55597" x1="15.1165" y1="10.6046" x2="25.1327" y2="30.19" gradientUnits="userSpaceOnUse">
<stop offset="0.01" stop-color="#E84709"/>
<stop offset="0.58" stop-color="#E31F0D"/>
<stop offset="0.89" stop-color="#E10F0F"/>
</linearGradient>
<linearGradient id="paint1_linear_18553_55597" x1="24.8644" y1="17.3119" x2="25.6693" y2="19.9054" gradientUnits="userSpaceOnUse">
<stop offset="0.06" stop-color="#D8492A"/>
<stop offset="0.46" stop-color="#EA5B06"/>
<stop offset="0.55" stop-color="#EB620D"/>
<stop offset="0.7" stop-color="#F07522"/>
<stop offset="0.88" stop-color="#F89644"/>
<stop offset="1" stop-color="#FFAF5F"/>
</linearGradient>
<clipPath id="clip0_18553_55597">
<rect width="22" height="22" fill="white" transform="translate(9.03516 9.26318)"/>
</clipPath>
</defs>
</svg>
