<svg width="40" height="40" viewBox="0 0 40 40" fill="none" xmlns="http://www.w3.org/2000/svg">
<circle cx="20" cy="20" r="20" fill="#1C8FCF"/>
<g clip-path="url(#clip0_18553_55938)">
<path d="M24.3234 17.6925C26.0169 17.422 27.7355 17.3646 29.4961 17.5039C31.6003 17.6761 35.5658 18.5777 36.0017 21.0531C36.2951 22.7171 34.3502 23.9712 32.9082 24.5695C30.1919 25.7007 26.9978 25.9384 24.0384 25.422C22.2359 25.1105 20.2826 24.4548 19.0083 23.2007C18.9663 23.1597 18.916 23.1433 18.8574 23.1597C15.5039 23.9712 12.1421 23.9384 8.76356 23.0531C7.58987 22.7498 6.54192 22.2744 5.62812 21.6351C4.42927 20.8072 3.64122 19.3482 4.24483 17.9466C4.85683 16.5203 6.46647 15.5449 7.90006 14.963C11.178 13.6351 15.0764 13.3646 18.522 14.0449C20.7604 14.4875 23.2168 15.5367 24.1809 17.6187C24.2061 17.6761 24.2564 17.7007 24.3234 17.6925ZM21.1041 18.922C20.9784 19.8072 20.8359 20.7171 20.685 21.6351C20.685 21.6761 20.6934 21.7007 20.7353 21.7007H22.0431C22.0934 21.7007 22.1269 21.6761 22.1353 21.6269L22.7809 17.3728C22.7809 17.3318 22.7557 17.2908 22.7138 17.2826C22.7138 17.2826 22.7138 17.2826 22.7054 17.2826L20.6431 17.3236C20.5844 17.3236 20.5508 17.3482 20.5257 17.4056L19.6203 19.8318C19.57 19.9712 19.5364 19.9712 19.5364 19.8154L19.4358 17.4466C19.4358 17.3892 19.4023 17.3646 19.3436 17.3646H17.2058C17.1471 17.3646 17.122 17.3892 17.1136 17.4466L16.4597 21.8072C16.4597 21.8072 16.4597 21.8482 16.4932 21.8482H17.8346C17.8346 21.8482 17.8765 21.84 17.8849 21.8072C18.0274 20.8892 18.1699 19.9548 18.2957 19.0121C18.2957 18.9957 18.304 18.9875 18.3208 18.9793C18.3208 18.9793 18.3292 18.9793 18.3376 18.9793C18.346 18.9793 18.3543 18.9957 18.3543 19.0121C18.413 19.9466 18.4382 20.84 18.4549 21.6761C18.4549 21.7334 18.5052 21.7826 18.5639 21.7826H19.9556C20.0143 21.7826 20.0478 21.758 20.0646 21.7089L21.0706 18.922C21.1041 18.8318 21.1125 18.84 21.0958 18.922H21.1041ZM14.4811 21.3974C14.4644 21.5449 14.4811 21.6843 14.5147 21.8236C14.5314 21.8728 14.565 21.9056 14.6237 21.9056H16.1914C16.1914 21.9056 16.2417 21.881 16.2501 21.8564C16.2501 21.8564 16.2501 21.8564 16.2501 21.8482L15.6129 17.6433C15.6129 17.6023 15.5626 17.5613 15.5207 17.5613H13.4584C13.4584 17.5613 13.3913 17.5859 13.3745 17.6187L11.3792 21.8564C11.3289 21.963 11.3625 22.0121 11.4798 22.0121H12.7457C12.8464 22.0121 12.9218 21.9712 12.9553 21.8728L13.1649 21.34C13.1817 21.2908 13.2236 21.2662 13.2739 21.2662H14.3722C14.4392 21.2662 14.4895 21.3236 14.4895 21.3892C14.4895 21.3892 14.4895 21.3892 14.4895 21.3974H14.4811ZM9.53485 19.0941C9.34203 18.9793 9.33365 18.8646 9.52647 18.7416C9.80312 18.5531 10.0127 18.5941 10.1468 18.8646C10.172 18.9138 10.2055 18.9302 10.2558 18.9302L11.5469 18.9466C11.6391 18.9466 11.681 18.9056 11.6894 18.8236C11.8319 17.3892 9.74444 17.4875 8.86417 17.8154C8.24378 18.0449 7.87491 18.4793 7.75754 19.1105C7.63179 19.7334 8.02581 20.2416 8.67135 20.3646C8.98154 20.422 9.64384 20.5203 9.83666 20.7662C9.92049 20.8728 9.89534 21.0285 9.78636 21.1105C9.76959 21.1187 9.76121 21.1269 9.74444 21.1351C9.3588 21.3154 9.11567 21.2334 9.01507 20.9056C8.9983 20.8482 8.95639 20.8236 8.8977 20.8236H7.50603C7.44735 20.8236 7.4222 20.8482 7.41381 20.9056C7.32998 22.1023 8.36115 22.3236 9.31688 22.2826C10.1049 22.2498 10.9265 21.9384 11.2786 21.2171C11.4379 20.8892 11.614 20.1925 11.3457 19.8564C11.0355 19.4548 10.3732 19.3154 9.88696 19.2252C9.76959 19.2007 9.65222 19.1597 9.54323 19.0941H9.53485ZM28.7835 20.8728L29.2278 23.2416C29.2278 23.2416 29.2613 23.2908 29.2865 23.2908H31.2063C31.2566 23.2908 31.2818 23.2662 31.2902 23.2171L31.9189 18.8646C31.9189 18.8646 31.9189 18.84 31.8938 18.84H30.6279C30.6279 18.84 30.5692 18.8646 30.5692 18.8892L30.2338 21.1679C30.2003 21.3728 30.1668 21.3728 30.1332 21.1679L29.7308 19.0285C29.7224 18.9793 29.6889 18.9466 29.6302 18.9466H27.7439C27.702 18.9466 27.6685 18.9793 27.6601 19.0203L26.9391 23.2908C26.9391 23.2908 26.9391 23.34 26.981 23.34H28.2805C28.2805 23.34 28.3308 23.3236 28.3308 23.299L28.7164 20.8728C28.7332 20.7416 28.7583 20.7416 28.7835 20.8728ZM26.9978 19.0777C26.9978 19.0777 26.981 19.0285 26.9559 19.0203H25.3295C25.3295 19.0203 25.2875 19.0367 25.2792 19.0613L24.6336 23.3892C24.6336 23.3892 24.6504 23.4384 24.6755 23.4466H26.2768C26.2768 23.4466 26.3187 23.422 26.3271 23.3974L26.9978 19.0695V19.0777ZM22.0347 22.4056C22.0096 22.3482 22.0012 22.2826 22.0012 22.2171C22.0012 22.1433 21.9677 22.1105 21.8922 22.1105H20.685C20.6263 22.1105 20.5844 22.1433 20.576 22.2007C20.4502 23.0695 20.8359 23.5285 21.7497 23.5777C22.8647 23.6433 24.1306 23.3154 24.315 22.0695C24.4492 21.1515 24.5917 20.1843 24.7426 19.1515C24.751 19.0859 24.7258 19.0531 24.6588 19.0531H23.2252C23.1581 19.0531 23.1246 19.0859 23.1078 19.1515C22.9569 20.1187 22.806 21.0859 22.6551 22.0695C22.6132 22.3564 22.4623 22.5039 22.194 22.5203C22.1102 22.5203 22.0515 22.4875 22.0263 22.4056H22.0347Z" fill="white"/>
<path d="M13.6594 20.0692L14.2547 18.725C14.305 18.6184 14.3301 18.6184 14.3301 18.7413V20.0364C14.3301 20.1266 14.2798 20.1676 14.1876 20.1594C14.0451 20.1348 13.9026 20.143 13.76 20.1676C13.6594 20.184 13.6343 20.1512 13.6678 20.0692H13.6594Z" fill="white"/>
</g>
<circle cx="20" cy="20" r="19.5" stroke="black" stroke-opacity="0.05"/>
<defs>
<clipPath id="clip0_18553_55938">
<rect width="32" height="12" fill="white" transform="translate(4.03516 13.6841)"/>
</clipPath>
</defs>
</svg>
