<svg width="40" height="40" viewBox="0 0 40 40" fill="none" xmlns="http://www.w3.org/2000/svg">
<circle cx="20" cy="20" r="20" fill="#003DE5"/>
<circle cx="20" cy="20" r="19.5" stroke="black" stroke-opacity="0.05"/>
<g clip-path="url(#clip0_14382_18603)">
<path d="M6.18237 23.6324H10.8394V20.2371H6.18237V23.6324ZM7.27295 21.1676H9.73777V22.7103H7.27295V21.1676Z" fill="white"/>
<path d="M12.123 17.1H10.8377V15.238H9.73779V19.9187H10.8377V18.0305H12.123V17.1Z" fill="white"/>
<path d="M8.5676 19.6004L9.18825 18.7536C8.6907 18.5214 8.25389 18.1767 7.91223 17.7469C7.54176 17.2976 7.33804 16.734 7.33561 16.1517V15.4243H6.18237V16.1694C6.17774 16.7812 5.97581 17.3751 5.6066 17.8629C5.2554 18.3435 4.8049 18.7428 4.28571 19.0339L4.97663 19.84C5.386 19.5982 5.75914 19.2997 6.085 18.9535C6.37876 18.6506 6.61872 18.2998 6.79455 17.9162C7.1578 18.5894 7.71664 19.1389 8.5676 19.6004Z" fill="white"/>
<path d="M18.1999 20.5411C17.8096 20.1948 17.2686 19.9907 16.631 19.9907C15.9934 19.9907 15.4608 20.1948 15.0789 20.5411C14.8822 20.7148 14.7257 20.9292 14.6201 21.1694C14.5146 21.4096 14.4625 21.6699 14.4676 21.9323C14.4597 22.1991 14.5104 22.4644 14.616 22.7096C14.7216 22.9547 14.8796 23.1738 15.0789 23.3514C15.4608 23.6791 15.9925 23.8738 16.631 23.8738C17.2694 23.8738 17.8096 23.6791 18.1999 23.3514C18.3977 23.1726 18.5547 22.9533 18.6602 22.7084C18.7656 22.4635 18.8172 22.1988 18.8113 21.9323C18.8144 21.6702 18.7615 21.4105 18.6561 21.1706C18.5507 20.9306 18.3951 20.716 18.1999 20.5411ZM16.6335 22.9551C15.9951 22.9551 15.5514 22.5478 15.5514 21.939C15.5514 21.3302 15.9925 20.923 16.6335 20.923C16.9223 20.9169 17.2031 21.018 17.4218 21.2066C17.5202 21.3003 17.5985 21.413 17.6519 21.5379C17.7053 21.6628 17.7328 21.7973 17.7326 21.9331C17.7343 22.5444 17.2686 22.9551 16.6335 22.9551Z" fill="white"/>
<path d="M15.2389 18.9442C15.5601 19.2595 15.9241 19.528 16.3202 19.7418L16.9408 18.8823C16.4709 18.6427 16.001 18.3235 15.6707 17.8976C15.2975 17.451 15.0989 16.8842 15.1119 16.3024V15.4243H13.9443V16.3202C13.9413 16.8944 13.7563 17.4529 13.4159 17.9154C13.0882 18.3853 12.6005 18.7934 12.0612 19.1482L12.7436 19.9721C13.1563 19.7137 13.5347 19.4042 13.8698 19.0508C14.1537 18.7623 14.3847 18.4261 14.5522 18.0576C14.7292 18.3899 14.9614 18.6897 15.2389 18.9442Z" fill="white"/>
<path d="M17.846 16.7096H16.2939V17.6851H17.846V19.9636H18.945V15.238H17.846V16.7096Z" fill="white"/>
<path d="M23.5318 19.812L24.0737 18.9704C23.6273 18.7265 23.2454 18.38 22.9594 17.9594C22.63 17.4925 22.4542 16.9347 22.4564 16.3633V15.5166H21.4505V16.3853C21.4491 16.9865 21.2742 17.5746 20.9467 18.0788C20.6517 18.5476 20.2585 18.9468 19.7943 19.249L20.398 20.0559C20.7609 19.8079 21.0865 19.5094 21.365 19.1694C21.6258 18.8579 21.8348 18.5066 21.9839 18.1287C22.3015 18.8061 22.7892 19.3514 23.5318 19.812Z" fill="white"/>
<path d="M25.9738 16.9754H25.3175V15.2693H24.2177V19.696H25.3175V17.9509H25.9738V19.994H27.0728V15.2693H25.9738V16.9754Z" fill="white"/>
<path d="M26.3454 20.5411C25.9356 20.1948 25.3675 19.9907 24.6969 19.9907C24.0262 19.9907 23.4674 20.1948 23.0669 20.5411C22.8624 20.71 22.6984 20.9227 22.5872 21.1635C22.4759 21.4043 22.4203 21.667 22.4242 21.9323C22.4176 22.2021 22.4722 22.4699 22.5838 22.7157C22.6954 22.9614 22.8611 23.1788 23.0686 23.3514C23.4691 23.6791 24.0279 23.8738 24.6985 23.8738C25.3692 23.8738 25.9373 23.6791 26.3471 23.3514C26.5527 23.1772 26.717 22.9596 26.8282 22.7142C26.9393 22.4687 26.9945 22.2016 26.9898 21.9323C26.9915 21.6672 26.9346 21.4051 26.8232 21.1646C26.7118 20.9241 26.5487 20.7112 26.3454 20.5411ZM24.6969 22.9551C24.0262 22.9551 23.5605 22.5478 23.5605 21.939C23.5605 21.3302 24.0262 20.923 24.6969 20.923C24.9981 20.9162 25.2919 21.0167 25.5258 21.2066C25.628 21.2981 25.7098 21.4101 25.766 21.5352C25.8222 21.6604 25.8514 21.7959 25.8518 21.9331C25.8518 22.5444 25.3675 22.9551 24.6969 22.9551Z" fill="white"/>
<path d="M33.9533 20.3938C33.5613 20.0483 33.0168 19.8442 32.3742 19.8442C31.7315 19.8442 31.1964 20.0483 30.8128 20.3938C30.6151 20.567 30.4575 20.7813 30.3512 21.0218C30.2449 21.2622 30.1923 21.5229 30.1972 21.7858C30.1896 22.0529 30.2407 22.3183 30.3471 22.5634C30.4535 22.8085 30.6125 23.0272 30.8128 23.204C31.1964 23.5317 31.7323 23.7273 32.3742 23.7273C33.016 23.7273 33.5596 23.5317 33.9533 23.204C34.1521 23.026 34.31 22.8071 34.4163 22.5623C34.5225 22.3175 34.5746 22.0526 34.5689 21.7858C34.5718 21.5232 34.5184 21.2631 34.4122 21.0229C34.306 20.7828 34.1495 20.5682 33.9533 20.3938ZM32.3742 22.8052C31.7323 22.8052 31.2861 22.3971 31.2861 21.7892C31.2861 21.1812 31.7323 20.7782 32.3742 20.7782C32.6647 20.7722 32.9474 20.8731 33.1684 21.0618C33.2672 21.1554 33.3458 21.2682 33.3996 21.3933C33.4533 21.5184 33.4809 21.6531 33.4808 21.7892C33.4834 22.3971 33.0168 22.8052 32.3742 22.8052Z" fill="white"/>
<path d="M33.662 15.238V16.2296H32.0101V15.5725H28.1558V19.3734H32.0101V18.8832H33.662V19.9636H34.7628V15.238H33.662ZM30.9068 18.3938H29.259V16.553H30.9068V18.3938ZM33.662 17.9035H32.0101V17.205H33.662V17.9035Z" fill="white"/>
</g>
<defs>
<clipPath id="clip0_14382_18603">
<rect width="30.4762" height="8.63575" fill="white" transform="translate(4.28571 15.238)"/>
</clipPath>
</defs>
</svg>
