<svg width="40" height="40" viewBox="0 0 40 40" fill="none" xmlns="http://www.w3.org/2000/svg">
<circle cx="20" cy="20" r="20" fill="#F6F8FA"/>
<circle cx="20" cy="20" r="19.5" stroke="black" stroke-opacity="0.05"/>
<g clip-path="url(#clip0_18553_55690)">
<path d="M19.035 27.1086C19.035 27.1086 19.015 27.0986 19.005 27.0886L25.405 22.5886C25.465 22.5486 25.505 22.4786 25.505 22.4086V13.8286C25.505 13.7686 25.475 13.7186 25.415 13.6986L23.015 12.5986L16.315 9.49861C15.375 9.06861 14.435 8.63861 13.505 8.21861C13.505 8.21861 13.435 8.18861 13.295 8.13861C13.215 8.10861 13.155 8.06861 13.105 8.01861C13.245 7.95861 13.405 7.90861 13.595 7.87861C13.885 7.82861 14.375 7.72861 15.085 7.58861C15.185 7.56861 15.285 7.57861 15.385 7.61861C19.485 9.44861 23.575 11.2586 27.655 13.0686C27.705 13.0886 27.725 13.1386 27.725 13.1886V32.1186C27.725 32.1186 27.705 32.1686 27.675 32.1686H27.655L19.025 27.1086H19.035Z" fill="#E5843B"/>
<path d="M16.1652 17.2686C18.3052 15.7886 20.4452 14.3086 22.5752 12.8186C22.6952 12.7286 22.8452 12.6586 23.0152 12.5986L16.3152 9.49855C15.3752 9.06855 14.4352 8.63855 13.5052 8.21855C13.5052 8.21855 13.4352 8.18855 13.2952 8.13855C13.2152 8.10855 13.1552 8.06855 13.1052 8.01855C13.0552 8.06855 13.0352 8.12855 13.0352 8.18855C13.0352 15.8786 13.0352 23.5686 13.0452 31.2586C13.0452 31.2986 13.0452 31.3286 13.0452 31.3586C13.0452 31.3586 13.0452 31.3786 13.0552 31.3886C13.0752 31.4186 13.1152 31.4186 13.1452 31.3986L19.0252 27.1086C19.0252 27.1086 19.0052 27.0986 18.9952 27.0886L16.0952 25.3386C16.0952 25.3386 16.0352 25.2786 16.0352 25.2386C16.0252 25.0486 16.0152 24.8486 16.0152 24.6386C16.0352 21.7386 16.0352 19.3786 16.0152 17.5486C16.0152 17.4286 16.0552 17.3386 16.1452 17.2886L16.1652 17.2686Z" fill="url(#paint0_linear_18553_55690)"/>
<path d="M23.0154 12.5986L25.4154 13.6986C25.4654 13.7186 25.4954 13.7686 25.4954 13.8286V22.3986C25.4954 22.4686 25.4654 22.5386 25.4054 22.5786L19.0054 27.0786L16.1054 25.3286C16.1054 25.3286 16.0454 25.2686 16.0454 25.2286C16.0354 25.0386 16.0254 24.8386 16.0254 24.6286C16.0454 21.7286 16.0454 19.3686 16.0254 17.5386C16.0254 17.4186 16.0654 17.3286 16.1554 17.2786C18.2954 15.7986 20.4354 14.3186 22.5654 12.8286C22.6854 12.7386 22.8354 12.6686 23.0054 12.6086L23.0154 12.5986Z" fill="#86539C"/>
</g>
<defs>
<linearGradient id="paint0_linear_18553_55690" x1="13.0352" y1="19.7086" x2="23.0152" y2="19.7086" gradientUnits="userSpaceOnUse">
<stop offset="0.19" stop-color="#A4C9EB"/>
<stop offset="0.78" stop-color="#B9E5FA"/>
</linearGradient>
<clipPath id="clip0_18553_55690">
<rect width="14.69" height="24.6" fill="white" transform="translate(13.0352 7.57861)"/>
</clipPath>
</defs>
</svg>
