<svg width="40" height="40" viewBox="0 0 40 40" fill="none" xmlns="http://www.w3.org/2000/svg">
<circle cx="20" cy="20" r="20" fill="#006CD8"/>
<path d="M17.8377 15.9399C17.9693 13.9198 19.6306 12.2973 21.6627 12.2204C24.9252 12.0962 26.9606 15.6767 25.1811 18.4128C24.8199 18.9681 24.3311 19.415 23.7148 19.7535C23.7037 19.7595 23.6949 19.7689 23.6896 19.7803C23.6843 19.7918 23.6829 19.8046 23.6854 19.8169C23.9185 20.9372 23.8117 22.0387 23.334 23.0601C21.968 25.9832 18.2586 26.9017 15.6841 24.9251C13.4844 23.2364 13.0662 20.0501 14.7743 17.8583C15.5461 16.8684 16.553 16.2451 17.795 15.9886C17.8217 15.9833 17.836 15.967 17.8377 15.9399ZM22.5465 13.3233C20.7823 12.9165 19.133 14.0554 18.8665 15.847C18.8616 15.8813 18.8763 15.8989 18.9105 15.8998C19.4801 15.9105 20.0268 16.0176 20.5505 16.2211C21.7823 16.6985 22.703 17.5415 23.3127 18.7501C23.3157 18.7561 23.32 18.7614 23.3252 18.7656C23.3304 18.7699 23.3364 18.773 23.3429 18.7747C23.3494 18.7765 23.3562 18.7769 23.3628 18.7759C23.3695 18.7748 23.3758 18.7724 23.3815 18.7688C24.8992 17.8123 25.2866 15.8016 24.1757 14.3694C23.7823 13.8624 23.1657 13.4663 22.5465 13.3233ZM22.3514 19.1249C21.6814 17.841 20.4169 16.9819 18.9606 16.9185C18.9564 16.9183 18.9522 16.9191 18.9484 16.9209C18.9446 16.9227 18.9412 16.9254 18.9386 16.9287C18.936 16.932 18.9342 16.9359 18.9334 16.94C18.9326 16.9442 18.9328 16.9485 18.9339 16.9525C19.3828 18.4863 20.7295 19.374 22.33 19.1656C22.3568 19.1621 22.3639 19.1485 22.3514 19.1249ZM14.7456 21.0013C14.7963 23.6813 17.3969 25.5724 19.9693 24.7701C21.9085 24.1649 23.0909 22.1743 22.7201 20.183C22.7139 20.1496 22.6941 20.136 22.6607 20.1422C21.5678 20.3382 20.5854 20.1636 19.7135 19.6185C18.7756 19.032 18.1611 18.1336 17.9079 17.0547C17.9053 17.0438 17.8986 17.0343 17.8892 17.0284C17.8799 17.0224 17.8686 17.0203 17.8578 17.0227C16.0228 17.4288 14.7102 19.1369 14.7456 21.0013Z" fill="white"/>
<path d="M7.35417 21.6172L8.21188 17.9552C8.2137 17.9467 8.21847 17.9391 8.2254 17.9337C8.23232 17.9282 8.24098 17.9252 8.24995 17.9251L9.53986 17.9238C9.55582 17.9238 9.57131 17.9293 9.5838 17.9392C9.59629 17.9492 9.60505 17.963 9.60866 17.9786L10.4557 21.6025C10.4677 21.6532 10.4797 21.6532 10.4918 21.6025L11.3468 17.9552C11.3486 17.9478 11.3527 17.9411 11.3586 17.9363C11.3646 17.9315 11.3719 17.9287 11.3795 17.9285L12.6461 17.9185C12.7022 17.918 12.7238 17.9452 12.7109 18L11.1651 24.5904C11.1636 24.5967 11.16 24.6023 11.1549 24.6063C11.1498 24.6103 11.1435 24.6125 11.137 24.6125L9.80973 24.6105C9.80291 24.6105 9.79628 24.6082 9.79094 24.6039C9.78559 24.5997 9.78186 24.5938 9.78034 24.5871L8.9253 20.9265C8.92129 20.9091 8.91172 20.9049 8.89658 20.9138C8.8899 20.9178 8.88567 20.9236 8.88388 20.9311C8.60288 22.1522 8.31965 23.3653 8.03419 24.5704C8.02751 24.5989 8.0097 24.6132 7.98075 24.6132L6.70153 24.6105C6.66769 24.6105 6.64676 24.5938 6.63874 24.5604L5.09833 17.9779C5.08898 17.9383 5.10457 17.9185 5.14509 17.9185L6.40895 17.9245C6.44324 17.9245 6.46417 17.9412 6.47174 17.9746L7.32477 21.6172C7.32573 21.6203 7.32768 21.6231 7.33033 21.625C7.33297 21.627 7.33618 21.6281 7.33947 21.6281C7.34276 21.6281 7.34597 21.627 7.34861 21.625C7.35126 21.6231 7.35321 21.6203 7.35417 21.6172Z" fill="white"/>
<path d="M30.7584 22.0276L32.5934 24.5607C32.5969 24.5656 32.599 24.5715 32.5995 24.5776C32.5999 24.5836 32.5987 24.5897 32.596 24.5951C32.5932 24.6006 32.589 24.6052 32.5839 24.6084C32.5787 24.6116 32.5728 24.6134 32.5667 24.6135L31.1679 24.6108C31.1466 24.6108 31.1255 24.6057 31.1065 24.5959C31.0875 24.5862 31.071 24.572 31.0583 24.5547C30.5248 23.819 29.9826 23.0626 29.4317 22.2855C29.3614 22.1857 29.2676 22.1363 29.1505 22.1372C28.8281 22.1399 28.5299 22.1416 28.2561 22.1425C28.2478 22.1427 28.2399 22.1461 28.2341 22.1519C28.2282 22.1578 28.2248 22.1656 28.2247 22.1739L28.2213 24.5674C28.2213 24.5787 28.2168 24.5896 28.2088 24.5976C28.2008 24.6056 28.1899 24.6101 28.1786 24.6101L26.9548 24.6108C26.9412 24.6108 26.9281 24.6053 26.9184 24.5955C26.9088 24.5857 26.9034 24.5725 26.9034 24.5587L26.9014 17.9655C26.9014 17.9533 26.9063 17.9416 26.9151 17.9329C26.9238 17.9243 26.9357 17.9194 26.9481 17.9194C27.9541 17.9266 28.9397 17.9283 29.9047 17.9248C31.4611 17.9194 32.4618 19.5714 31.7871 20.9648C31.5774 21.3981 31.2407 21.7275 30.7771 21.9528C30.7415 21.9702 30.7352 21.9951 30.7584 22.0276ZM28.222 19.1739L28.2247 20.896C28.2247 20.9036 28.2262 20.9111 28.229 20.918C28.2319 20.925 28.2362 20.9313 28.2415 20.9367C28.2468 20.942 28.2532 20.9462 28.2601 20.9491C28.2671 20.952 28.2746 20.9535 28.2821 20.9535L29.6829 20.9508C29.9318 20.9504 30.1704 20.8537 30.3462 20.6818C30.5219 20.5099 30.6205 20.277 30.6201 20.0343V20.0276C30.6199 19.9075 30.5955 19.7885 30.5482 19.6775C30.5009 19.5665 30.4316 19.4658 30.3443 19.3809C30.257 19.296 30.1535 19.2288 30.0395 19.183C29.9256 19.1371 29.8035 19.1136 29.6802 19.1138L28.2794 19.1165C28.2642 19.1165 28.2496 19.1225 28.2388 19.1333C28.2281 19.1441 28.222 19.1587 28.222 19.1739Z" fill="white"/>
<path d="M34.858 17.9258H33.6262C33.6007 17.9258 33.5801 17.9464 33.5801 17.9719V24.5677C33.5801 24.5932 33.6007 24.6138 33.6262 24.6138H34.858C34.8834 24.6138 34.9041 24.5932 34.9041 24.5677V17.9719C34.9041 17.9464 34.8834 17.9258 34.858 17.9258Z" fill="white"/>
<circle cx="20" cy="20" r="19.5" stroke="black" stroke-opacity="0.05"/>
</svg>
