<svg width="40" height="40" viewBox="0 0 40 40" fill="none" xmlns="http://www.w3.org/2000/svg">
<circle cx="20" cy="20" r="20" fill="#C30E2E"/>
<g clip-path="url(#clip0_18553_55929)">
<path d="M16.7323 24.6556C17.7118 22.5924 18.5965 20.4913 19.5391 18.3902C19.834 17.735 18.9651 17.3776 18.6913 17.9949C18.1752 19.1538 17.6486 20.3451 17.1115 21.5744C17.101 21.5906 17.0799 21.6014 17.0641 21.5906C17.0588 21.5906 17.0483 21.5798 17.0483 21.5744C16.5059 20.383 15.953 19.1754 15.379 17.9624C15.1104 17.3884 14.2521 17.7513 14.547 18.3848C15.2368 19.8632 15.9161 21.2928 16.5744 22.6682C16.5902 22.7061 16.5902 22.7386 16.5744 22.7765L15.7265 24.6989C15.7265 24.6989 15.695 24.7314 15.6739 24.7368C13.6518 24.7368 11.5717 24.7368 9.42849 24.7368C8.83871 24.7368 8.28579 24.6827 7.73287 24.4498C6.46378 23.9191 5.60543 22.9877 5.15783 21.661C4.96299 21.0816 4.99985 20.4588 4.99985 19.8686C4.99985 19.4191 5.07357 19.0022 5.22628 18.6123C5.83186 17.0852 6.95351 16.1321 8.59121 15.7639C8.60701 15.7639 8.62807 15.7693 8.63334 15.791C8.63334 15.791 8.63334 15.791 8.63334 15.7964C8.64914 17.2693 8.64914 18.6827 8.63334 20.0365C8.62807 20.6321 8.69126 21.1032 8.82291 21.4661C9.39163 22.9877 11.1505 23.643 12.5881 22.9282C14.2521 22.105 14.5891 19.7224 13.2832 18.3902C12.3195 17.4047 10.6607 17.3668 9.66546 18.3523C9.61807 18.4011 9.597 18.3902 9.597 18.3198V15.8072C9.597 15.7639 9.61807 15.7368 9.6602 15.7368C16.7955 15.7368 23.794 15.7368 30.6607 15.7476C30.9977 15.7476 31.3506 15.7585 31.6876 15.8451C33.1673 16.235 34.1994 17.1664 34.7839 18.6448C34.9103 18.9697 34.9788 19.3108 34.9893 19.6736C35.0051 20.318 35.0472 21.0166 34.8524 21.6285C34.2679 23.4643 32.6512 24.7368 30.766 24.7368H16.785C16.7271 24.7368 16.7113 24.7097 16.7376 24.6556H16.7323ZM25.4053 20.4209C25.4053 18.8668 24.1784 17.605 22.667 17.605C21.1557 17.605 19.9288 18.8668 19.9288 20.4209C19.9288 21.9751 21.1557 23.2368 22.667 23.2368C24.1784 23.2368 25.4053 21.9751 25.4053 20.4209ZM27.3221 18.1303C27.2853 17.6159 26.6955 17.5347 26.4269 17.9137C26.3953 17.9624 26.3743 18.0166 26.3743 18.0762C26.3743 19.7007 26.3743 21.2332 26.3743 22.6736C26.3743 23.3343 27.3116 23.3235 27.3169 22.6736C27.3169 21.7747 27.3169 20.865 27.3169 19.9498C27.3063 18.5744 29.1389 18.1195 29.9709 18.9913C30.25 19.2837 30.3922 19.6195 30.3922 20.004C30.3974 20.9137 30.4027 21.8018 30.408 22.6682C30.408 23.3235 31.3611 23.3397 31.3506 22.6249C31.34 22.0238 31.3453 21.3415 31.3558 20.5726C31.3664 19.9065 31.2979 19.3975 31.1557 19.0401C30.824 18.217 30.1815 17.7513 29.2389 17.6375C28.5228 17.5509 27.9119 17.7242 27.3958 18.1628C27.3485 18.2007 27.3221 18.1899 27.3169 18.1303H27.3221Z" fill="white"/>
<path d="M13.1484 20.4342C13.1554 19.3965 12.3619 18.5495 11.376 18.5424C10.3902 18.5353 9.58523 19.3708 9.57819 20.4086C9.57114 21.4463 10.3646 22.2933 11.3505 22.3004C12.3364 22.3075 13.1414 21.472 13.1484 20.4342Z" fill="white"/>
<path d="M24.4465 20.4271C24.4483 19.3863 23.6505 18.5412 22.6646 18.5394C21.6787 18.5377 20.878 19.3799 20.8762 20.4207C20.8745 21.4615 21.6723 22.3066 22.6582 22.3084C23.6441 22.3101 24.4448 21.4679 24.4465 20.4271Z" fill="white"/>
</g>
<circle cx="20" cy="20" r="19.5" stroke="black" stroke-opacity="0.05"/>
<defs>
<clipPath id="clip0_18553_55929">
<rect width="30" height="9" fill="white" transform="translate(5 15.7368)"/>
</clipPath>
</defs>
</svg>
