<svg width="40" height="40" viewBox="0 0 40 40" fill="none" xmlns="http://www.w3.org/2000/svg">
<circle cx="20" cy="20" r="20" fill="#F6F8FA"/>
<g clip-path="url(#clip0_18553_55696)">
<path d="M14.6508 25.7638C14.4426 25.9652 14.4495 26.2985 14.4703 26.5624C14.4842 26.7499 14.4148 26.7846 14.276 26.6527C9.41153 22.3124 10.1332 14.6388 15.7125 11.2916C17.3502 10.3124 19.2099 9.8888 21.3056 10.0277C22.9294 10.1319 24.4561 10.6596 25.8717 11.5971C26.0174 11.6944 26.0036 11.743 25.8301 11.7569C25.1431 11.7846 24.4353 11.8402 23.6997 11.9235C22.2147 12.0902 20.7296 12.1249 19.2585 12.361C18.974 12.4096 18.745 12.5416 18.5576 12.7638C17.718 13.7846 17.2183 14.9582 17.0518 16.2777C16.913 17.3749 16.9546 18.6249 17.142 19.7291C17.3432 20.9027 17.3849 22.0763 17.2738 23.2638C17.1836 24.2221 16.8367 25.0624 16.2399 25.7985C16.1635 25.8957 16.0247 25.9096 15.9345 25.8332C15.9345 25.8332 15.9207 25.8194 15.9137 25.8194C15.4904 25.3888 15.0671 25.3749 14.6438 25.7777L14.6508 25.7638Z" fill="#D22D20"/>
<path d="M15.3027 27.4513C15.2263 27.4096 15.1153 27.4096 15.0598 27.3679C14.9557 27.2985 14.9626 27.2568 15.0876 27.2429C15.955 27.1526 16.8432 27.1388 17.7176 27.0276C18.925 26.8749 20.2296 26.8749 21.4787 26.6874C21.8743 26.6318 22.2351 26.5415 22.5127 26.2221C24.4973 23.9026 24.2059 20.9374 23.7826 18.1735C23.5675 16.7638 23.7063 15.4304 24.2059 14.1665C24.3516 13.7846 24.5876 13.4721 24.8651 13.1874C24.9137 13.1388 24.99 13.1249 25.0525 13.1665C25.3995 13.3749 25.8436 13.6388 26.2183 13.3471C26.4195 13.1943 26.5722 12.986 26.6832 12.7082C26.7041 12.6596 26.7041 12.604 26.6832 12.5554L26.5583 12.2013C26.5167 12.0832 26.5445 12.0693 26.6347 12.1526C26.9469 12.4374 27.2523 12.7499 27.5576 13.0832C30.7636 16.604 30.8607 21.9721 27.8282 25.6179C26.6069 27.0832 24.8859 28.1804 23.0817 28.6665C20.8472 29.2707 18.6405 29.0832 16.4546 28.104C16.0382 27.9165 15.6913 27.6596 15.2957 27.4582L15.3027 27.4513Z" fill="#D22D20"/>
</g>
<circle cx="20" cy="20" r="19.5" stroke="black" stroke-opacity="0.05"/>
<defs>
<clipPath id="clip0_18553_55696">
<rect width="19" height="20" fill="white" transform="translate(11.0352 10)"/>
</clipPath>
</defs>
</svg>
