<svg width="40" height="40" viewBox="0 0 40 40" fill="none" xmlns="http://www.w3.org/2000/svg">
<circle cx="20" cy="20" r="20" fill="#54AF4D"/>
<path d="M21.3035 26.558C22.0932 28.4325 23.3325 30.0837 24.9118 31.3656C25.4294 31.7839 25.3844 31.8567 24.7766 31.584C16.5929 27.941 15.456 16.8076 22.6206 11.3379C25.1198 9.42454 28.8806 9.49386 30.9222 11.9999C32.0152 13.3425 32.2798 14.8769 31.716 16.603C31.2514 18.0841 30.2313 19.3277 28.8696 20.0729C27.5079 20.818 25.9105 21.0068 24.4127 20.5996C23.969 20.4748 23.9759 20.4159 24.4369 20.4193C25.2619 20.4595 26.0852 20.3111 26.8444 19.9856C27.6035 19.6601 28.2785 19.1659 28.8182 18.5407C29.516 17.7396 29.9582 16.7481 30.0879 15.6937C30.2176 14.6393 30.0289 13.5701 29.5461 12.6238C28.2844 10.1975 24.8355 9.7157 22.8598 11.584C22.2351 12.1691 21.7382 12.8772 21.4005 13.6637C19.5334 18.045 19.501 22.3431 21.3035 26.558Z" fill="white"/>
<path d="M10.7176 10.9704C12.2512 14.0641 14.6388 16.6538 17.598 18.4332C17.6524 18.4661 17.6958 18.5143 17.7228 18.5718C17.7338 18.5922 17.7373 18.6158 17.7329 18.6385C17.7285 18.6613 17.7163 18.6818 17.6985 18.6966C17.6815 18.7133 17.6601 18.7248 17.6367 18.7297C17.6134 18.7347 17.5891 18.7328 17.5668 18.7243C13.9889 17.49 10.7404 15.4544 8.06942 12.7729C8.0237 12.7268 7.99805 12.6645 7.99805 12.5995C7.99805 12.5346 8.0237 12.4723 8.06942 12.4262L8.10408 12.3985L10.3848 10.8838C10.4092 10.8587 10.4397 10.8405 10.4734 10.831C10.5071 10.8216 10.5426 10.8213 10.5765 10.8301C10.6103 10.8389 10.6412 10.8566 10.666 10.8812C10.6908 10.9059 10.7086 10.9366 10.7176 10.9704Z" fill="white"/>
<circle cx="20" cy="20" r="19.5" stroke="black" stroke-opacity="0.05"/>
</svg>
