<svg width="41" height="40" viewBox="0 0 41 40" fill="none" xmlns="http://www.w3.org/2000/svg">
<circle cx="20" cy="20" r="20" fill="#0A4595"/>
<path d="M36.0352 20.3354C36.0352 22.7299 28.872 24.6708 20.0352 24.6708C11.1983 24.6708 4.03516 22.7299 4.03516 20.3354C4.03516 17.9409 11.1983 16 20.0352 16C28.872 16 36.0352 17.9409 36.0352 20.3354ZM20.0817 16.6256C20.0871 16.6148 20.0999 16.6108 20.1107 16.6155C20.1155 16.6182 20.1195 16.6222 20.1209 16.6276C21.0178 19.1247 21.9181 21.6211 22.8217 24.1174C22.8501 24.1957 22.8825 24.2747 22.9182 24.355C22.927 24.3759 22.9432 24.386 22.9668 24.3847C24.4212 24.3017 25.9133 24.1255 27.4426 23.8563C28.7512 23.6261 29.9775 23.3042 31.1214 22.8912C31.8219 22.6381 32.4495 22.3277 33.005 21.9612C33.2641 21.7898 33.501 21.5839 33.7156 21.3444C34.512 20.4528 34.0915 19.5438 33.2803 18.9148C32.7681 18.518 32.1499 18.1792 31.4244 17.8978C30.3682 17.4881 29.2337 17.1642 28.0223 16.9259C25.7554 16.4798 23.4352 16.2409 21.061 16.2092C20.1506 16.1971 19.313 16.1991 18.5471 16.2153C17.3883 16.2396 16.1195 16.3334 14.7421 16.4967C12.5791 16.7538 10.3851 17.177 8.39892 18.0003C7.55734 18.3492 6.64356 18.8561 6.16912 19.5769C5.37074 20.7889 6.67865 21.7965 7.6309 22.3007C9.03263 23.0437 10.626 23.4756 12.2673 23.7888C13.8364 24.0884 15.4365 24.2868 17.0677 24.3833C17.0961 24.3847 17.1231 24.3712 17.1379 24.3476C17.1818 24.2787 17.2223 24.1944 17.2594 24.0945C18.1576 21.6953 19.0782 19.2529 20.0203 16.7687C20.0392 16.7194 20.0595 16.6715 20.0817 16.6256ZM17.2506 24.384C17.2479 24.3881 17.2486 24.3941 17.2526 24.3968C17.254 24.3982 17.256 24.3982 17.258 24.3989C19.0937 24.4994 20.9226 24.5001 22.7455 24.4009C22.765 24.3995 22.7806 24.3827 22.7792 24.3624C22.7792 24.3563 22.7765 24.3503 22.7731 24.3449L20.0277 20.1316C20.0163 20.1141 19.9926 20.1087 19.9751 20.1201C19.9704 20.1228 19.967 20.1269 19.9636 20.1316L17.2506 24.384Z" fill="white"/>
<path d="M12.1664 19.7308C11.4517 19.3219 10.3051 19.1693 9.59515 19.6951C9.14838 20.0258 9.07347 20.5866 9.46895 20.9983C9.68221 21.221 9.98928 21.36 10.3902 21.416C11.0137 21.5031 11.5955 21.3944 12.1361 21.0887C12.1806 21.0637 12.2359 21.0691 12.2751 21.1029L12.7347 21.5051C12.7482 21.5172 12.7502 21.5382 12.7381 21.5517C12.736 21.5544 12.7333 21.5564 12.73 21.5584C11.8978 22.0558 10.9712 22.2245 9.95148 22.0646C9.2955 21.9613 8.68002 21.6731 8.3392 21.0981C8.18533 20.839 8.15496 20.5805 8.16913 20.2842C8.2022 19.61 8.75965 19.0857 9.36772 18.892C10.567 18.51 11.6913 18.6389 12.7414 19.278C12.7536 19.2854 12.7576 19.3009 12.7502 19.3131C12.7489 19.3158 12.7468 19.3178 12.7441 19.3198L12.2515 19.7234C12.2278 19.743 12.1934 19.7464 12.1664 19.7308Z" fill="white"/>
<path d="M23.1479 19.678C23.1222 19.7293 23.1398 19.7921 23.1884 19.8238C23.2883 19.8886 23.4037 19.9264 23.5339 19.9372C23.9706 19.9729 24.3755 20.0127 24.7494 20.0553C24.9012 20.0728 25.0645 20.116 25.24 20.1842C25.7576 20.3846 26.037 20.9103 25.7853 21.4266C25.6308 21.7445 25.3082 21.9328 24.9761 22.0185C24.0124 22.2675 23.1128 22.113 22.2152 21.7155C22.1828 21.7013 22.168 21.6635 22.1821 21.6311C22.1848 21.6257 22.1875 21.6203 22.1916 21.6156L22.6228 21.0905C22.6417 21.0683 22.6633 21.0649 22.6876 21.0804C23.2241 21.4212 24.2857 21.6891 24.856 21.2457C24.9532 21.1702 24.9815 20.9994 24.8472 20.9427C24.7102 20.884 24.5516 20.8489 24.3701 20.8368C23.9854 20.8111 23.5892 20.7706 23.1816 20.7146C22.5493 20.6282 21.9972 20.0816 22.3191 19.4067C22.5425 18.939 23.1101 18.7662 23.6048 18.7224C24.308 18.661 25.024 18.8034 25.7522 19.1489C25.7745 19.159 25.7839 19.186 25.7738 19.2083C25.7718 19.213 25.7684 19.2177 25.7644 19.2218L25.2731 19.7084C25.2508 19.73 25.2164 19.7347 25.1894 19.7185C24.7311 19.4492 24.2324 19.3419 23.6932 19.3966C23.484 19.4182 23.2491 19.4715 23.1479 19.678Z" fill="white"/>
<path d="M30.4522 19.6524C30.4117 19.7131 30.4286 19.7954 30.49 19.8359C30.4975 19.8407 30.5056 19.8454 30.5137 19.8481C30.6574 19.9054 30.8072 19.9399 30.9631 19.9513C31.3147 19.9777 31.6535 20.0101 31.9802 20.0485C32.3574 20.0931 32.8001 20.2253 33.0161 20.5554C33.3751 21.1054 33.0566 21.7195 32.4937 21.9409C32.2609 22.032 32.0078 22.0914 31.7338 22.119C30.9705 22.1967 30.2262 22.0583 29.5007 21.7053C29.4554 21.6831 29.4487 21.6527 29.4811 21.6136L29.9123 21.0912C29.9326 21.0669 29.9555 21.0635 29.9819 21.0811C30.5076 21.4307 31.6576 21.6972 32.1732 21.2167C32.24 21.154 32.244 21.0494 32.1813 20.9826C32.1786 20.9799 32.1752 20.9765 32.1725 20.9738C32.1172 20.9232 32.0443 20.8914 31.9538 20.8793C31.5732 20.8287 31.1906 20.7889 30.8052 20.7598C30.4306 20.7315 30.0392 20.6519 29.7652 20.39C29.4676 20.1059 29.448 19.5937 29.6917 19.2663C29.8516 19.0511 30.0797 18.9026 30.3746 18.8209C31.2607 18.5759 32.1955 18.7548 33.0323 19.1388C33.0768 19.1597 33.0816 19.1874 33.0471 19.2218L32.5619 19.7064C32.5369 19.7313 32.5086 19.7347 32.4782 19.7172C31.9471 19.4121 31.3896 19.3149 30.8066 19.4263C30.6507 19.4553 30.5326 19.5309 30.4522 19.6524Z" fill="white"/>
<path d="M14.1921 20.7235L14.1908 22.026C14.1908 22.0469 14.1739 22.0638 14.153 22.0638H13.196C13.1751 22.0631 13.1582 22.0462 13.1582 22.0253V18.8007C13.1575 18.7798 13.1744 18.763 13.1953 18.763L14.153 18.7603C14.1739 18.7603 14.1908 18.7771 14.1908 18.798L14.1942 19.9953C14.1942 20.0162 14.211 20.0331 14.232 20.0331H16.4287C16.4496 20.0331 16.4665 20.0162 16.4665 19.9953L16.4678 18.8021C16.4678 18.7812 16.4847 18.7643 16.5056 18.7643L17.4606 18.7623C17.4815 18.7623 17.4984 18.7792 17.4984 18.8001L17.4997 22.0388C17.4997 22.0597 17.4828 22.0766 17.4619 22.0766L16.5049 22.078C16.484 22.078 16.4671 22.0611 16.4671 22.0402L16.4658 20.7187C16.4658 20.6978 16.4489 20.681 16.428 20.681L14.2299 20.6857C14.209 20.6857 14.1921 20.7026 14.1921 20.7235Z" fill="white"/>
<path d="M27.7044 19.9493C27.7146 19.9628 27.7341 19.9648 27.7476 19.954C27.749 19.9526 27.7503 19.9513 27.7517 19.9499L28.7073 18.8297C28.7431 18.7878 28.795 18.7635 28.8504 18.7628L29.7608 18.7595C29.777 18.7595 29.7905 18.773 29.7905 18.7892C29.7905 18.7959 29.7878 18.8027 29.7837 18.8081L28.2477 20.6646C28.2174 20.7011 28.2005 20.7477 28.2012 20.7949L28.2093 22.0299C28.2093 22.0603 28.1944 22.0751 28.164 22.0751L27.2779 22.0785C27.2543 22.0785 27.2422 22.067 27.2422 22.0427C27.2422 21.6776 27.2422 21.2984 27.2442 20.9062C27.2442 20.8124 27.2442 20.7126 27.1794 20.6376C26.6577 20.0309 26.1354 19.4175 25.6123 18.7979C25.6036 18.7878 25.6049 18.773 25.6143 18.7649C25.6191 18.7608 25.6245 18.7588 25.6305 18.7588L26.7036 18.7608C26.74 18.7608 26.7745 18.7784 26.7974 18.8067L27.7044 19.9493Z" fill="white"/>
<circle cx="20.0352" cy="20" r="19.5" stroke="black" stroke-opacity="0.05"/>
</svg>
