<svg width="40" height="40" viewBox="0 0 40 40" fill="none" xmlns="http://www.w3.org/2000/svg">
<circle cx="20" cy="20" r="20" fill="#0052AD"/>
<path d="M8.02148 20.7976C8.02148 16.8561 13.6132 13.6611 20.5105 13.6611C27.4073 13.6611 32.9995 16.8561 32.9995 20.7976C32.9995 24.7387 27.4078 27.9347 20.5105 27.9347C13.6132 27.9347 8.02148 24.7387 8.02148 20.7976ZM13.4376 14.9092V21.287C13.4376 21.287 13.4256 22.3671 12.6543 22.3671C11.8835 22.3671 11.7557 21.2173 11.7557 21.2173V19.955H9.44286V21.4274C9.44286 21.4274 9.72319 24.0206 12.7371 24.0206C15.7505 24.0206 15.9611 21.8487 15.9611 21.8487V14.9092H13.4376ZM20.0958 16.8786C18.2377 16.7754 16.7264 18.476 16.7264 20.4465C16.7264 22.4171 18.235 24.0145 20.0958 24.0145C20.0958 24.0145 22.8524 24.2312 23.3664 21.2403H21.0777C21.0777 21.2403 21.0777 22.7835 20.0958 22.7835C19.1144 22.7835 19.2082 21.2875 19.2082 21.2875V19.7455C19.2082 19.7455 19.1615 18.0635 20.1896 18.0635C21.2176 18.0635 21.0777 19.6988 21.0777 19.6988H23.3198C23.3198 19.6988 23.4597 17.0651 20.0958 16.8786ZM23.8947 14.6996L23.8804 23.7633L26.2635 23.8105V19.5584C26.2635 19.5584 26.3595 19.1969 26.6568 18.9292C27.0019 18.6176 27.6498 18.5391 28.1791 19.1382V23.7638H30.515V18.4843C30.515 18.4843 29.053 15.681 26.297 17.8304V14.7106L23.8947 14.6996Z" fill="white"/>
<path d="M9.86328 15.33V12.7368H13.1575V15.33H9.86328ZM12.7373 14.9092V13.2278H10.4245V14.9092H12.7373Z" fill="white"/>
<path d="M7 17.5732V14.9795H10.2937V17.5732H7ZM9.87347 17.1524V15.4705H7.56065V17.1524H9.87347Z" fill="white"/>
<circle cx="20" cy="20" r="19.5" stroke="black" stroke-opacity="0.05"/>
</svg>
