<svg width="40" height="40" viewBox="0 0 40 40" fill="none" xmlns="http://www.w3.org/2000/svg">
<circle cx="20" cy="20" r="20" fill="#3F68B2"/>
<path d="M29.584 19.4252C29.1052 20.009 29.1852 20.9483 29.8011 21.4133C30.3357 21.8167 31.0225 21.7045 31.5223 21.288C31.5283 21.2812 31.5358 21.276 31.5442 21.2726C31.5527 21.2692 31.5618 21.2679 31.5708 21.2686C31.5798 21.2694 31.5886 21.2723 31.5963 21.277C31.6041 21.2817 31.6106 21.2882 31.6154 21.2959L31.7079 21.4035C31.7172 21.4117 31.7244 21.422 31.7289 21.4336C31.7334 21.4452 31.7351 21.4577 31.7337 21.47C31.7324 21.4824 31.7281 21.4942 31.7212 21.5045C31.7143 21.5149 31.705 21.5234 31.6941 21.5294C31.2568 21.8665 30.8005 22.0014 30.3252 21.9341C28.6526 21.6973 28.4447 19.3039 30.0589 18.7621C30.6059 18.5784 31.1995 18.7352 31.6298 19.0632C31.6426 19.0728 31.651 19.0871 31.6534 19.1029C31.6557 19.1187 31.6517 19.1349 31.6423 19.1478L31.5387 19.2888C31.5346 19.2966 31.5287 19.3033 31.5215 19.3084C31.5144 19.3135 31.5061 19.3168 31.4974 19.3181C31.4887 19.3193 31.4798 19.3185 31.4715 19.3157C31.4632 19.3129 31.4556 19.3082 31.4494 19.3019C30.8827 18.8736 30.0524 18.8539 29.584 19.4252Z" fill="white"/>
<path d="M4.98298 20.8024C4.95004 21.1546 4.95996 21.5094 5.01249 21.8591C5.01643 21.8847 5.00528 21.8972 4.9797 21.8972H4.0319C4.02408 21.8972 4.01657 21.8941 4.01103 21.8885C4.0055 21.883 4.00239 21.8755 4.00239 21.8676V21.8644C4.02105 21.7725 4.03419 21.6797 4.04174 21.5863C4.04786 20.741 4.04786 19.8951 4.04174 19.0485C4.03812 18.9638 4.02402 18.8799 3.99976 18.7986C3.99124 18.7691 4.00304 18.754 4.03387 18.754C4.79604 18.7602 5.53788 18.7602 6.25938 18.754C6.71852 18.7501 7.11994 18.8386 7.12322 19.3778C7.12322 19.6437 7.12322 19.9089 7.12322 20.1734C7.11928 20.6129 6.82675 20.7736 6.43582 20.7841C5.97275 20.7968 5.49393 20.7968 4.99937 20.7841C4.99485 20.7846 4.99067 20.7867 4.98764 20.7901C4.98461 20.7935 4.98295 20.7979 4.98298 20.8024ZM4.97051 19.2053V20.3446C4.97085 20.3556 4.9754 20.366 4.98322 20.3737C4.99104 20.3814 5.00152 20.3858 5.01249 20.3859H6.03572C6.06043 20.3873 6.08516 20.3837 6.10848 20.3754C6.13179 20.367 6.15322 20.3542 6.17152 20.3375C6.18983 20.3209 6.20465 20.3007 6.21511 20.2783C6.22558 20.2559 6.23148 20.2316 6.23249 20.2069V19.3411C6.23148 19.3163 6.22558 19.2921 6.21511 19.2696C6.20465 19.2472 6.18983 19.2271 6.17152 19.2104C6.15322 19.1938 6.13179 19.1809 6.10848 19.1726C6.08516 19.1643 6.06043 19.1607 6.03572 19.162H5.01249C5.00119 19.162 4.99034 19.1665 4.98235 19.1745C4.97435 19.1825 4.96986 19.1933 4.96986 19.2046L4.97051 19.2053Z" fill="white"/>
<path d="M9.96341 21.0422C9.95777 21.0309 9.94902 21.0216 9.93821 21.0152C9.92739 21.0088 9.91497 21.0056 9.90241 21.0061H8.57288C8.5625 21.0055 8.5522 21.0081 8.54331 21.0135C8.53442 21.0189 8.52736 21.0268 8.52303 21.0362C8.38179 21.2915 8.28675 21.5698 8.2423 21.8581C8.24197 21.8638 8.24051 21.8693 8.23801 21.8744C8.23551 21.8795 8.23202 21.884 8.22775 21.8878C8.22347 21.8915 8.2185 21.8943 8.21311 21.8961C8.20773 21.8979 8.20204 21.8986 8.19639 21.8981L7.68477 21.9021C7.67747 21.9021 7.67046 21.8991 7.6653 21.894C7.66013 21.8888 7.65723 21.8818 7.65723 21.8745C7.65745 21.8692 7.65903 21.864 7.66182 21.8594C7.74707 21.7406 7.8219 21.6146 7.88548 21.4829C8.25323 20.6678 8.62492 19.841 9.00054 19.0023C9.0049 18.9927 9.00717 18.9823 9.00717 18.9718C9.00717 18.9612 9.0049 18.9508 9.00054 18.9413C8.98888 18.9118 8.97072 18.8853 8.94741 18.8639C8.85995 18.783 8.87526 18.7454 8.99332 18.751C9.27667 18.765 9.5609 18.765 9.84601 18.751C9.86441 18.7503 9.88261 18.7551 9.89827 18.7648C9.91393 18.7745 9.92634 18.7887 9.9339 18.8055C10.3423 19.7128 10.7577 20.6254 11.1801 21.5433C11.2314 21.6552 11.2947 21.7612 11.369 21.8594C11.3711 21.8621 11.3725 21.8651 11.3734 21.8683C11.3742 21.8716 11.3744 21.8749 11.3739 21.8782C11.3734 21.8815 11.3723 21.8847 11.3705 21.8876C11.3688 21.8904 11.3665 21.8929 11.3638 21.8948C11.3594 21.8981 11.3542 21.8999 11.3487 21.9001H10.3045C10.2994 21.9006 10.2942 21.9001 10.2893 21.8986C10.2844 21.8971 10.2799 21.8946 10.2759 21.8913C10.272 21.888 10.2688 21.884 10.2665 21.8794C10.2642 21.8748 10.2628 21.8698 10.2625 21.8647C10.2085 21.576 10.1075 21.2981 9.96341 21.0422ZM8.73227 20.5705C8.73007 20.5759 8.73008 20.582 8.73229 20.5874C8.73449 20.5928 8.73872 20.5971 8.74407 20.5994C8.74688 20.6 8.74979 20.6 8.7526 20.5994H9.73647C9.74238 20.5994 9.74806 20.5971 9.75224 20.5929C9.75642 20.5887 9.75877 20.583 9.75877 20.5771C9.75945 20.5741 9.75945 20.5709 9.75877 20.5679L9.26224 19.468C9.26104 19.4653 9.25932 19.4629 9.25718 19.4609C9.25505 19.4589 9.25254 19.4573 9.2498 19.4563C9.24706 19.4552 9.24414 19.4547 9.24121 19.4548C9.23828 19.4549 9.2354 19.4556 9.23273 19.4568C9.23018 19.4578 9.22787 19.4593 9.22594 19.4612C9.22402 19.4631 9.22253 19.4654 9.22158 19.468L8.73227 20.5705Z" fill="white"/>
<path d="M13.2805 20.5601C13.2731 20.9471 13.2766 21.31 13.291 21.6489C13.294 21.7217 13.3072 21.7936 13.3303 21.8627C13.3315 21.866 13.332 21.8695 13.3317 21.8729C13.3315 21.8764 13.3306 21.8798 13.3291 21.8829C13.3276 21.886 13.3255 21.8887 13.3229 21.891C13.3203 21.8933 13.3172 21.8951 13.3139 21.8962H13.3061L12.3425 21.9014C12.3331 21.9014 12.3241 21.8977 12.3175 21.891C12.3109 21.8844 12.3071 21.8754 12.3071 21.866C12.3065 21.8625 12.3065 21.859 12.3071 21.8555C12.3377 21.7636 12.3545 21.6677 12.357 21.5708C12.3609 20.7483 12.3609 19.9269 12.357 19.1066C12.3543 18.998 12.3389 18.8901 12.3111 18.7852C12.3104 18.7826 12.3102 18.7798 12.3106 18.7771C12.311 18.7744 12.3119 18.7719 12.3133 18.7695C12.3147 18.7672 12.3166 18.7652 12.3188 18.7636C12.321 18.762 12.3235 18.7609 12.3261 18.7603H14.8048C15.3237 18.7603 15.4207 19.1184 15.4089 19.5578C15.3991 19.9422 15.5139 20.4322 14.9747 20.5142C14.9683 20.5151 14.9622 20.5173 14.9566 20.5207C14.9511 20.5241 14.9463 20.5285 14.9425 20.5338C14.9387 20.539 14.936 20.545 14.9345 20.5513C14.9331 20.5576 14.9329 20.5642 14.9341 20.5706C14.9335 20.574 14.9335 20.5776 14.9341 20.5811C15.0613 20.8968 15.1892 21.2186 15.3178 21.5466C15.3671 21.6631 15.4351 21.7707 15.5191 21.8653C15.5217 21.8685 15.5234 21.8723 15.5239 21.8764C15.5244 21.8804 15.5238 21.8845 15.5221 21.8882C15.5204 21.8919 15.5176 21.8951 15.5142 21.8973C15.5108 21.8995 15.5068 21.9007 15.5027 21.9008H14.5628C14.5459 21.9008 14.5295 21.8958 14.5155 21.8863C14.5016 21.8768 14.4909 21.8633 14.4848 21.8476L13.9882 20.5712C13.9819 20.5548 13.9707 20.5407 13.9562 20.5308C13.9417 20.5208 13.9245 20.5155 13.9069 20.5155H13.3251C13.3133 20.5156 13.3021 20.5204 13.2937 20.5287C13.2854 20.5371 13.2807 20.5483 13.2805 20.5601ZM14.5136 19.977V19.3001C14.5134 19.2638 14.4989 19.229 14.4733 19.2033C14.4476 19.1777 14.4128 19.1632 14.3765 19.163H13.333C13.3175 19.1642 13.3031 19.1713 13.2928 19.183C13.2825 19.1946 13.2771 19.2098 13.2779 19.2253V20.0517C13.2771 20.0597 13.2779 20.0677 13.2802 20.0754C13.2826 20.083 13.2864 20.0901 13.2915 20.0962C13.2967 20.1023 13.303 20.1073 13.3101 20.111C13.3172 20.1146 13.325 20.1168 13.333 20.1173H14.3765C14.3948 20.1173 14.4128 20.1135 14.4296 20.1064C14.4465 20.0993 14.4617 20.0889 14.4744 20.0758C14.4872 20.0628 14.4972 20.0473 14.504 20.0303C14.5107 20.0134 14.514 19.9952 14.5136 19.977Z" fill="white"/>
<path d="M18.6227 21.0076H17.3063C17.2943 21.0075 17.2825 21.0107 17.2723 21.0168C17.262 21.023 17.2535 21.0318 17.2479 21.0424C17.1067 21.2959 17.0123 21.5727 16.9692 21.8596C16.9689 21.8657 16.9674 21.8716 16.9648 21.877C16.9622 21.8825 16.9586 21.8874 16.954 21.8913C16.9495 21.8953 16.9442 21.8984 16.9384 21.9002C16.9327 21.9021 16.9266 21.9028 16.9206 21.9023H16.4247C16.4152 21.9023 16.406 21.8985 16.3992 21.8917C16.3925 21.8849 16.3887 21.8757 16.3887 21.8662C16.3887 21.8581 16.3914 21.8502 16.3965 21.8439C16.4684 21.754 16.5296 21.656 16.5789 21.552C16.9904 20.6468 17.3743 19.7957 17.7307 18.9985C17.7356 18.9881 17.7378 18.9765 17.7369 18.965C17.7359 18.9535 17.732 18.9424 17.7254 18.9329L17.6342 18.7972C17.6165 18.7709 17.6238 18.7578 17.6552 18.7578L18.5932 18.7617C18.6072 18.7624 18.6207 18.767 18.6323 18.7748C18.6438 18.7827 18.653 18.7936 18.6588 18.8064C19.0751 19.7286 19.4984 20.6578 19.9286 21.594C19.9739 21.6917 20.0401 21.777 20.0952 21.8708C20.0978 21.8755 20.0984 21.881 20.097 21.8862C20.0955 21.8913 20.092 21.8957 20.0874 21.8983C20.0841 21.8992 20.0807 21.8992 20.0775 21.8983H19.0281C19.0236 21.8988 19.0191 21.8983 19.0149 21.897C19.0106 21.8957 19.0066 21.8935 19.0032 21.8907C18.9998 21.8878 18.997 21.8843 18.9949 21.8803C18.9929 21.8763 18.9917 21.872 18.9913 21.8675C18.9394 21.5787 18.8394 21.3007 18.6955 21.045C18.6882 21.0325 18.6775 21.0223 18.6646 21.0157C18.6517 21.009 18.6371 21.0062 18.6227 21.0076ZM17.4617 20.5708C17.4605 20.5735 17.4597 20.5765 17.4596 20.5795C17.4595 20.5825 17.46 20.5856 17.4612 20.5884C17.4623 20.5912 17.4639 20.5938 17.4661 20.5959C17.4682 20.5981 17.4707 20.5998 17.4736 20.6009C17.4766 20.6016 17.4797 20.6016 17.4827 20.6009L18.4627 20.5957C18.4688 20.5957 18.4746 20.5933 18.4789 20.589C18.4832 20.5846 18.4856 20.5788 18.4856 20.5727C18.4862 20.5695 18.4862 20.5661 18.4856 20.5629L17.9878 19.4616C17.9853 19.456 17.9808 19.4517 17.9751 19.4495C17.9695 19.4473 17.9632 19.4474 17.9576 19.4498C17.9525 19.4523 17.9483 19.4565 17.9458 19.4616L17.4617 20.5708Z" fill="white"/>
<path d="M33.8719 20.5119L33.8784 21.844C33.8786 21.8591 33.8729 21.8737 33.8625 21.8846C33.852 21.8955 33.8378 21.9019 33.8227 21.9024L33.6535 21.9109C33.6458 21.9114 33.6381 21.9103 33.6308 21.9078C33.6236 21.9052 33.6169 21.9013 33.6112 21.8962C33.6055 21.8911 33.6008 21.8849 33.5975 21.8779C33.5941 21.871 33.5922 21.8635 33.5918 21.8558L33.5977 18.8117C33.5979 18.7967 33.6038 18.7823 33.6143 18.7716C33.6248 18.7608 33.6391 18.7545 33.6541 18.754L33.7938 18.7501C33.8015 18.7499 33.8091 18.7513 33.8163 18.754C33.8234 18.7568 33.8299 18.761 33.8355 18.7663C33.841 18.7716 33.8455 18.7779 33.8486 18.7849C33.8517 18.7919 33.8533 18.7995 33.8535 18.8072L33.8758 20.1406C33.876 20.156 33.8822 20.1707 33.8931 20.1815C33.9041 20.1923 33.9188 20.1983 33.9342 20.1983H35.6625C35.678 20.1983 35.6928 20.1922 35.7038 20.1812C35.7147 20.1703 35.7209 20.1555 35.7209 20.14L35.7242 18.8052C35.7242 18.79 35.73 18.7755 35.7406 18.7646C35.7511 18.7537 35.7654 18.7473 35.7806 18.7468L35.9387 18.7422C35.9463 18.742 35.954 18.7432 35.9611 18.7459C35.9683 18.7486 35.9749 18.7527 35.9805 18.7579C35.9861 18.7632 35.9906 18.7694 35.9938 18.7764C35.997 18.7834 35.9987 18.791 35.999 18.7986V21.8473C35.999 21.8628 35.9928 21.8776 35.9819 21.8886C35.9709 21.8995 35.9561 21.9057 35.9406 21.9057H35.7845C35.7691 21.9055 35.7545 21.8993 35.7437 21.8884C35.7329 21.8774 35.7268 21.8627 35.7268 21.8473L35.7215 20.5053C35.7215 20.4898 35.7154 20.475 35.7044 20.464C35.6935 20.4531 35.6786 20.4469 35.6632 20.4469L33.927 20.4515C33.9117 20.4524 33.8974 20.4592 33.8871 20.4705C33.8768 20.4817 33.8713 20.4966 33.8719 20.5119Z" fill="white"/>
<path d="M22.6874 19.0741L22.7045 21.8571C22.7045 21.8694 22.6997 21.8812 22.6911 21.8901C22.6825 21.8989 22.6709 21.904 22.6586 21.9044L22.4526 21.9116C22.4464 21.9118 22.4402 21.9109 22.4344 21.9087C22.4285 21.9066 22.4232 21.9033 22.4186 21.8991C22.414 21.8949 22.4104 21.8899 22.4077 21.8842C22.4051 21.8786 22.4037 21.8725 22.4034 21.8663L22.4067 19.0787C22.4069 19.0663 22.4021 19.0543 22.3935 19.0453C22.385 19.0364 22.3732 19.0311 22.3608 19.0308L21.3008 19.0078C21.2946 19.0077 21.2885 19.0063 21.2828 19.0038C21.2772 19.0012 21.2721 18.9976 21.2678 18.9931C21.2635 18.9886 21.2602 18.9833 21.258 18.9775C21.2558 18.9717 21.2547 18.9655 21.2549 18.9593L21.2641 18.8281C21.2649 18.8162 21.2703 18.805 21.279 18.7968C21.2878 18.7887 21.2993 18.7842 21.3113 18.7842H23.7716C23.7832 18.7843 23.7943 18.7886 23.8029 18.7963C23.8115 18.8041 23.8169 18.8147 23.8182 18.8262L23.8339 18.9646C23.8352 18.9771 23.8316 18.9896 23.8237 18.9994C23.8159 19.0092 23.8045 19.0155 23.792 19.017H23.788L22.734 19.0321C22.7225 19.0323 22.7114 19.0367 22.7029 19.0444C22.6943 19.0521 22.6888 19.0627 22.6874 19.0741Z" fill="white"/>
<path d="M25.8049 21.6133C26.291 21.6434 26.7784 21.6482 27.265 21.6277C27.2747 21.6263 27.2847 21.6271 27.2941 21.6301C27.3035 21.633 27.3121 21.6381 27.3193 21.6448C27.3265 21.6516 27.332 21.6598 27.3356 21.669C27.3391 21.6782 27.3406 21.6881 27.3398 21.6979V21.7989C27.3414 21.8091 27.3407 21.8195 27.3375 21.8293C27.3344 21.8391 27.329 21.8481 27.3218 21.8554C27.3146 21.8627 27.3058 21.8683 27.296 21.8716C27.2862 21.8749 27.2758 21.8758 27.2657 21.8743L25.5603 21.8848C25.5429 21.8848 25.5262 21.8779 25.5139 21.8656C25.5016 21.8533 25.4947 21.8366 25.4947 21.8192C25.4685 21.0977 25.5072 20.4051 25.4947 19.6941C25.4899 19.4059 25.4899 19.1132 25.4947 18.8158C25.4948 18.809 25.4962 18.8022 25.4989 18.7959C25.5017 18.7896 25.5056 18.7839 25.5106 18.7791C25.5155 18.7744 25.5213 18.7707 25.5277 18.7682C25.5341 18.7657 25.541 18.7645 25.5478 18.7647C26.0929 18.7935 26.6393 18.7647 27.1732 18.8027C27.1859 18.8041 27.198 18.8091 27.2079 18.8173C27.2178 18.8255 27.2251 18.8364 27.2289 18.8486C27.2372 18.8778 27.241 18.9081 27.2401 18.9385C27.2408 18.9451 27.24 18.9519 27.2378 18.9582C27.2356 18.9645 27.232 18.9703 27.2273 18.9751C27.2226 18.9798 27.2169 18.9835 27.2106 18.9858C27.2043 18.9881 27.1976 18.989 27.1909 18.9883L25.8581 19.0342C25.8462 19.0331 25.8342 19.0347 25.823 19.0389C25.8119 19.0431 25.8018 19.0498 25.7936 19.0584C25.7854 19.0671 25.7792 19.0775 25.7756 19.0889C25.772 19.1003 25.7711 19.1123 25.7728 19.1241L25.7859 20.1244C25.7861 20.1392 25.792 20.1533 25.8024 20.1638C25.8128 20.1744 25.8269 20.1804 25.8417 20.1808L26.9239 20.2077C26.9303 20.2069 26.9367 20.2076 26.9427 20.2097C26.9487 20.2118 26.9542 20.2153 26.9586 20.2199C26.9631 20.2245 26.9664 20.23 26.9683 20.2361C26.9703 20.2421 26.9708 20.2486 26.9698 20.2549V20.3546C26.9709 20.3622 26.9702 20.37 26.9678 20.3773C26.9654 20.3846 26.9613 20.3913 26.9559 20.3968C26.9505 20.4023 26.944 20.4065 26.9367 20.4091C26.9295 20.4116 26.9217 20.4125 26.9141 20.4117L25.8764 20.4386C25.863 20.4371 25.8493 20.4388 25.8366 20.4434C25.8239 20.448 25.8124 20.4555 25.8029 20.4652C25.7935 20.475 25.7864 20.4867 25.7822 20.4996C25.778 20.5125 25.7768 20.5261 25.7787 20.5396V21.5884C25.7787 21.5918 25.7794 21.5951 25.7807 21.5982C25.782 21.6013 25.784 21.6041 25.7865 21.6065C25.7889 21.6088 25.7918 21.6106 25.795 21.6118C25.7982 21.613 25.8016 21.6135 25.8049 21.6133Z" fill="white"/>
<circle cx="20" cy="20" r="19.5" stroke="black" stroke-opacity="0.05"/>
</svg>
