<svg width="40" height="40" viewBox="0 0 40 40" fill="none" xmlns="http://www.w3.org/2000/svg">
<circle cx="20" cy="20" r="20" fill="#2A3088"/>
<path d="M9.03516 24.1595V24.0905L10.0308 23.31C10.0443 23.299 10.0543 23.2845 10.0598 23.2681C10.0652 23.2517 10.0658 23.2342 10.0616 23.2176C9.43488 20.7803 9.60278 18.4677 10.5652 16.2798C11.8186 13.4263 14.2331 11.3636 17.2317 10.4951C17.2513 10.4895 17.2688 10.4782 17.2821 10.4625C17.2954 10.4469 17.3038 10.4276 17.3064 10.4071L17.444 9.11899C17.4474 9.09031 17.4597 9.06341 17.4791 9.04209C17.4986 9.02077 17.5242 9.00611 17.5524 9.00016C19.2177 8.64806 20.8732 8.64904 22.5189 9.00309C22.55 9.00949 22.5783 9.02574 22.5996 9.04948C22.6209 9.07322 22.6342 9.10322 22.6375 9.13513L22.7679 10.4027C22.7712 10.4373 22.785 10.4702 22.8074 10.4971C22.8299 10.5241 22.8599 10.5438 22.8938 10.5538C28.2674 12.1573 31.3114 17.6794 29.9131 23.1046C29.8985 23.1604 29.9141 23.2059 29.96 23.2411L30.9908 24.0465C31.0327 24.0798 31.045 24.1218 31.0274 24.1727C30.51 25.6534 29.6857 27.0119 28.5544 28.2482C28.5143 28.2922 28.4665 28.3025 28.4109 28.279L27.2688 27.8066C27.2466 27.7975 27.2224 27.795 27.1989 27.7994C27.1755 27.8038 27.154 27.815 27.137 27.8316C25.2511 29.6507 22.7415 30.7129 20.1206 30.7364C17.3152 30.7613 14.9168 29.7578 12.8391 27.8756C12.7991 27.8384 12.7542 27.8306 12.7044 27.8521L11.6678 28.2805C11.6432 28.2903 11.6162 28.2925 11.5903 28.2867C11.5645 28.281 11.541 28.2676 11.5228 28.2482C10.4178 27.0491 9.58862 25.6862 9.03516 24.1595ZM11.1319 22.3403C14.0925 19.4795 16.1643 15.8705 17.0297 11.8595C17.0315 11.8521 17.0312 11.8443 17.0289 11.837C17.0266 11.8297 17.0223 11.8232 17.0164 11.8181C17.0106 11.813 17.0034 11.8095 16.9957 11.808C16.988 11.8065 16.98 11.8071 16.9726 11.8096C12.681 13.3853 10.0982 17.7557 11.0572 22.3168C11.0679 22.3696 11.0928 22.3775 11.1319 22.3403ZM23.0578 11.9328C23.9612 15.8793 25.9305 19.4017 28.8282 22.2229C28.8363 22.2309 28.8464 22.2365 28.8575 22.239C28.8686 22.2416 28.8802 22.241 28.8909 22.2373C28.9017 22.2337 28.9113 22.2271 28.9185 22.2184C28.9258 22.2096 28.9305 22.199 28.9321 22.1877C29.387 19.5118 28.8345 17.1111 27.2746 14.9858C26.2424 13.5789 24.7723 12.4903 23.1324 11.8668C23.067 11.8424 23.0421 11.8644 23.0578 11.9328ZM18.9009 18.2545C18.9917 18.2056 19.0917 18.1684 19.2011 18.143C19.4051 18.0951 19.4026 18.0667 19.1937 18.0579C17.8604 17.9982 16.4791 17.8535 15.0501 17.6236C14.9534 17.609 14.9383 17.6368 15.0047 17.7073C15.9496 18.7147 16.8042 19.8218 17.5685 21.0287C17.5717 21.034 17.5767 21.038 17.5826 21.04C17.5885 21.042 17.5949 21.0418 17.6007 21.0395C17.6064 21.0373 17.6112 21.033 17.6142 21.0275C17.6171 21.0221 17.6181 21.0157 17.6168 21.0096C17.3991 19.7558 17.8272 18.8374 18.9009 18.2545ZM22.2803 21.2048C22.2471 21.3251 22.1973 21.4385 22.1309 21.5451C22.1221 21.5598 22.1256 21.571 22.1412 21.5789C22.1509 21.5838 22.1587 21.5813 22.1646 21.5715C22.9758 20.1886 23.926 18.9176 25.0154 17.7586C25.1247 17.6422 25.1008 17.5987 24.9436 17.628C23.5878 17.8833 22.1485 17.9772 20.7399 18.0667C20.573 18.0775 20.5706 18.1029 20.7326 18.143C21.0157 18.2134 21.2636 18.3396 21.4764 18.5215C22.3139 19.2335 22.5819 20.1279 22.2803 21.2048ZM21.6258 20.4331C21.6258 19.9938 21.4516 19.5725 21.1416 19.2619C20.8316 18.9513 20.4111 18.7768 19.9727 18.7768C19.7556 18.7768 19.5407 18.8196 19.3401 18.9028C19.1395 18.9861 18.9573 19.1081 18.8038 19.2619C18.6503 19.4157 18.5285 19.5983 18.4455 19.7992C18.3624 20.0002 18.3196 20.2156 18.3196 20.4331C18.3196 20.6506 18.3624 20.866 18.4455 21.0669C18.5285 21.2679 18.6503 21.4505 18.8038 21.6043C18.9573 21.7581 19.1395 21.8801 19.3401 21.9633C19.5407 22.0466 19.7556 22.0894 19.9727 22.0894C20.4111 22.0894 20.8316 21.9149 21.1416 21.6043C21.4516 21.2937 21.6258 20.8724 21.6258 20.4331ZM21.9098 21.9075C21.0108 23.0195 19.4734 23.2059 18.4148 22.2904C18.282 22.175 18.2576 22.1946 18.3416 22.3491C19.0015 23.5599 19.5408 24.8646 19.9595 26.2632C19.9673 26.2887 19.9825 26.3097 20.0049 26.3263C20.0527 26.3596 20.085 26.3483 20.1016 26.2926C20.5486 24.759 21.1675 23.3076 21.9582 21.9383C21.966 21.9236 21.9625 21.9114 21.9479 21.9016V21.9002C21.9333 21.8914 21.9206 21.8938 21.9098 21.9075ZM14.1877 27.478C17.5802 30.3153 22.4487 30.217 25.8119 27.4369C25.8214 27.4289 25.8286 27.4184 25.8326 27.4067C25.8367 27.3949 25.8374 27.3822 25.8349 27.37C25.8323 27.3579 25.8265 27.3466 25.8181 27.3374C25.8097 27.3283 25.7989 27.3216 25.787 27.3181C21.9294 26.2422 18.0732 26.2496 14.2184 27.3401C14.2044 27.3442 14.1917 27.3519 14.1816 27.3626C14.1716 27.3732 14.1646 27.3863 14.1614 27.4005C14.1583 27.4147 14.1591 27.4294 14.1637 27.4431C14.1683 27.4567 14.1766 27.4688 14.1877 27.478Z" fill="white"/>
<path d="M17.0294 11.8595C16.1641 15.8705 14.0923 19.4795 11.1317 22.3403C11.0926 22.3775 11.0677 22.3697 11.057 22.3169C10.0979 17.7557 12.6808 13.3853 16.9723 11.8097C16.9798 11.8071 16.9878 11.8066 16.9955 11.8081C17.0032 11.8096 17.0104 11.813 17.0162 11.8181C17.0221 11.8232 17.0264 11.8298 17.0287 11.8371C17.031 11.8443 17.0313 11.8521 17.0294 11.8595Z" fill="#2A3088"/>
<path d="M28.8286 22.2229C25.931 19.4017 23.9616 15.8793 23.0582 11.9328C23.0426 11.8644 23.0675 11.8424 23.1329 11.8668C24.7728 12.4903 26.2429 13.5789 27.2751 14.9858C28.835 17.1111 29.3875 19.5118 28.9326 22.1877C28.931 22.199 28.9263 22.2096 28.919 22.2184C28.9117 22.2271 28.9022 22.2337 28.8914 22.2373C28.8806 22.241 28.8691 22.2416 28.858 22.239C28.8469 22.2365 28.8367 22.2309 28.8286 22.2229Z" fill="#2A3088"/>
<path d="M18.9006 18.2545C17.8269 18.8374 17.3989 19.7558 17.6165 21.0097C17.6178 21.0158 17.6169 21.0221 17.6139 21.0276C17.6109 21.033 17.6062 21.0373 17.6004 21.0396C17.5946 21.0419 17.5882 21.042 17.5823 21.04C17.5764 21.0381 17.5714 21.0341 17.5682 21.0288C16.8039 19.8218 15.9493 18.7147 15.0044 17.7073C14.938 17.6369 14.9532 17.609 15.0498 17.6237C16.4789 17.8535 17.8601 17.9983 19.1935 18.0579C19.4024 18.0667 19.4048 18.0951 19.2008 18.143C19.0915 18.1684 18.9914 18.2056 18.9006 18.2545Z" fill="#2A3088"/>
<path d="M22.2807 21.2049C22.5823 20.128 22.3143 19.2336 21.4768 18.5216C21.264 18.3397 21.0161 18.2135 20.733 18.1431C20.571 18.103 20.5734 18.0775 20.7403 18.0668C22.1489 17.9773 23.5882 17.8834 24.944 17.6281C25.1012 17.5988 25.1251 17.6423 25.0158 17.7587C23.9264 18.9177 22.9762 20.1887 22.165 21.5716C22.1591 21.5814 22.1513 21.5839 22.1416 21.579C22.1259 21.5711 22.1225 21.5599 22.1313 21.5452C22.1977 21.4386 22.2475 21.3252 22.2807 21.2049Z" fill="#2A3088"/>
<path d="M19.9724 22.0894C20.8854 22.0894 21.6255 21.3478 21.6255 20.4331C21.6255 19.5183 20.8854 18.7767 19.9724 18.7767C19.0594 18.7767 18.3193 19.5183 18.3193 20.4331C18.3193 21.3478 19.0594 22.0894 19.9724 22.0894Z" fill="#2A3088"/>
<path d="M18.415 22.2903C19.4736 23.2058 21.011 23.0194 21.91 21.9074C21.9207 21.8937 21.9334 21.8913 21.9481 21.9001V21.9015C21.9627 21.9113 21.9661 21.9235 21.9583 21.9382C21.1676 23.3075 20.5488 24.7589 20.1017 26.2925C20.0851 26.3482 20.0529 26.3595 20.0051 26.3262C19.9826 26.3096 19.9675 26.2886 19.9597 26.2631C19.5409 24.8645 19.0016 23.5598 18.3417 22.349C18.2578 22.1945 18.2822 22.1749 18.415 22.2903Z" fill="#2A3088"/>
<path d="M25.8116 27.437C22.4483 30.2171 17.5799 30.3154 14.1873 27.4781C14.1762 27.4689 14.1679 27.4568 14.1633 27.4431C14.1587 27.4295 14.1579 27.4148 14.1611 27.4006C14.1643 27.3864 14.1712 27.3733 14.1813 27.3627C14.1913 27.352 14.204 27.3442 14.2181 27.3402C18.0728 26.2496 21.929 26.2423 25.7867 27.3182C25.7986 27.3217 25.8093 27.3284 25.8178 27.3375C25.8262 27.3467 25.832 27.3579 25.8345 27.3701C25.8371 27.3823 25.8363 27.395 25.8323 27.4067C25.8282 27.4185 25.8211 27.429 25.8116 27.437Z" fill="#2A3088"/>
<circle cx="20" cy="20" r="19.5" stroke="black" stroke-opacity="0.05"/>
</svg>
