<svg width="40" height="40" viewBox="0 0 40 40" fill="none" xmlns="http://www.w3.org/2000/svg">
<circle cx="20" cy="20" r="20" fill="#F6A800"/>
<g clip-path="url(#clip0_14382_21349)">
<path d="M7.69444 18.3863C8.18385 18.3863 8.47704 18.5215 8.64349 18.7013C8.79085 18.8603 8.7794 19.1784 8.7794 19.5879V21.4863H10.1888V19.6455C10.1888 19.4219 10.1843 19.2406 10.1751 19.1C10.1659 18.9594 10.1522 18.8304 10.1339 18.712C10.0728 18.3586 9.94757 18.0797 9.75746 17.8754C9.43296 17.5281 8.87713 17.3545 8.08841 17.3545C7.88074 17.3545 7.69979 17.366 7.54708 17.3875C7.39362 17.4106 7.26077 17.4421 7.14853 17.4836C6.82709 17.5996 6.6072 17.8208 6.48733 18.1481C6.46595 18.1927 6.4522 18.225 6.4461 18.2442C6.43999 18.2641 6.42777 18.3072 6.40945 18.374V17.429H5V21.4863H6.41021V19.7123C6.41021 19.3197 6.50336 19.024 6.69118 18.8257C6.85381 18.6629 7.16914 18.3871 7.69444 18.3871V18.3863Z" fill="white"/>
<path d="M28.9315 19.77L28.9361 19.4381L28.914 18.9426C28.914 18.8435 28.9086 18.7628 28.8987 18.6967C28.8903 18.6307 28.872 18.5469 28.8475 18.4417C28.7269 17.9139 28.378 17.5881 27.8008 17.4644C27.5122 17.3968 27.0128 17.3638 26.302 17.3638C25.8202 17.3638 25.4201 17.3907 25.101 17.4444C24.7811 17.4974 24.5299 17.5766 24.3466 17.6811C24.0733 17.8424 23.8946 18.1159 23.8114 18.5008C23.7496 18.772 23.7183 19.1062 23.7183 19.505C23.7183 19.654 23.7259 19.7946 23.7419 19.9291C23.758 20.0635 23.7793 20.1949 23.8068 20.3239C23.9496 20.9716 24.3871 21.3481 25.1193 21.4518C25.4545 21.4994 25.8439 21.5225 26.2875 21.5225C26.7036 21.5225 27.0617 21.5086 27.3625 21.4802C27.6633 21.4518 27.8977 21.4126 28.0665 21.3611C28.3268 21.2858 28.5368 21.1414 28.6964 20.9294C28.8567 20.7165 28.9361 20.4653 28.9361 20.1741V20.0988H27.4885C27.4602 20.2448 27.4045 20.3578 27.3198 20.4361C27.2358 20.5137 27.1235 20.5529 26.9838 20.5529C26.8494 20.559 26.725 20.5644 26.6097 20.5667C26.4952 20.5706 26.3845 20.5713 26.2776 20.5713C25.9638 20.5713 25.7171 20.5475 25.54 20.5007C25.2812 20.4215 25.1521 20.2341 25.1521 19.9344V19.7692H28.93L28.9315 19.77ZM25.1239 18.8711C25.1239 18.7021 25.1827 18.5707 25.3003 18.4755C25.4178 18.381 25.5797 18.3326 25.7843 18.3326C25.9302 18.321 26.1088 18.3149 26.3196 18.3149L26.8784 18.3326C27.0518 18.3326 27.1877 18.3687 27.2885 18.4409C27.3877 18.5131 27.4496 18.6138 27.474 18.7413L27.4931 18.8704H25.1239V18.8711Z" fill="white"/>
<path d="M33.4577 20.4483C33.3966 20.4982 33.3073 20.5228 33.1912 20.5228C33.0118 20.5481 32.7919 20.5604 32.53 20.5604H32.0765L31.7222 20.5228C31.4229 20.4951 31.2893 20.3246 31.242 20.0772H29.7974V20.4283C29.7974 20.711 29.8967 20.9392 30.0944 21.1121C30.2922 21.2849 30.5602 21.3994 30.8999 21.4524C31.2389 21.5062 31.7451 21.5331 32.5369 21.5331H33.3607C33.628 21.5331 33.8631 21.5085 34.0678 21.4593C34.2716 21.4102 34.4381 21.3441 34.5671 21.2611C34.8565 21.0737 35.0008 20.6987 35.0008 20.1356C35.0008 19.5724 34.7748 19.196 34.3243 19.0523C34.1922 19.0085 34.0632 18.9739 33.9387 18.9501C33.815 18.9263 33.6845 18.914 33.5486 18.914C33.5295 18.914 33.4493 18.9109 33.3073 18.9048C33.1653 18.8987 33.0462 18.8956 32.9484 18.8956L32.0261 18.8587L31.5764 18.8503C31.4665 18.8503 31.384 18.8287 31.3283 18.7842C31.2733 18.7404 31.245 18.6751 31.245 18.5906C31.245 18.4577 31.3321 18.3816 31.5046 18.3624C31.678 18.344 31.8383 18.3347 31.9864 18.3347H32.8278C33.0508 18.357 33.2058 18.4308 33.2897 18.556L33.3569 18.672H34.8206V18.4246C34.8206 18.2279 34.7748 18.062 34.6839 17.9283C34.5931 17.7939 34.4633 17.6871 34.293 17.6079C34.1861 17.5542 34.0479 17.4942 33.899 17.4558C33.7524 17.4182 33.5409 17.3629 33.2645 17.3629H32.7973C32.401 17.3629 32.1506 17.3613 32.0475 17.3613C31.8223 17.3613 31.5932 17.3682 31.3626 17.3821C31.132 17.3967 30.9457 17.4128 30.8045 17.432C30.1326 17.5265 29.7959 17.9452 29.7959 18.6851C29.7959 19.1699 29.9822 19.4918 30.354 19.65C30.4579 19.6977 30.6106 19.7368 30.8106 19.7668C31.0106 19.7968 31.2496 19.8121 31.5268 19.8121L32.4308 19.849L32.9607 19.8767C33.15 19.8951 33.279 19.9166 33.3485 19.9374C33.4837 19.9835 33.5524 20.0864 33.5524 20.2416C33.5524 20.3284 33.5211 20.3968 33.46 20.4475L33.4577 20.4483Z" fill="white"/>
<path d="M16.268 19.76L16.2725 19.4281L16.2504 18.9326C16.2504 18.8335 16.2451 18.7528 16.2351 18.6867C16.2267 18.6207 16.2084 18.5369 16.184 18.4317C16.0633 17.9038 15.7144 17.5781 15.1372 17.4544C14.8486 17.3868 14.3493 17.3538 13.6384 17.3538C13.1574 17.3538 12.7566 17.3806 12.4374 17.4344C12.1175 17.4874 11.8663 17.5666 11.6831 17.6711C11.4097 17.8324 11.2318 18.1059 11.1478 18.4908C11.086 18.762 11.0547 19.0962 11.0547 19.495C11.0547 19.644 11.0623 19.7846 11.0784 19.919C11.0936 20.0535 11.1158 20.1849 11.1433 20.3139C11.286 20.9616 11.7235 21.3381 12.4557 21.4418C12.7909 21.4894 13.1803 21.5125 13.6239 21.5125C14.04 21.5125 14.3981 21.4986 14.6989 21.4702C14.9998 21.4418 15.2342 21.4026 15.4029 21.3511C15.6633 21.2758 15.8732 21.1314 16.0328 20.9193C16.1931 20.7065 16.2725 20.4553 16.2725 20.1641V20.0888H14.8249C14.7967 20.2348 14.7402 20.3477 14.6562 20.4261C14.5722 20.5037 14.46 20.5429 14.3202 20.5429C14.1859 20.549 14.0614 20.5544 13.9461 20.5567C13.8316 20.5606 13.7209 20.5613 13.614 20.5613C13.3002 20.5613 13.0536 20.5375 12.8764 20.4906C12.6184 20.4115 12.4886 20.224 12.4886 19.9244V19.7592H16.2664L16.268 19.76ZM12.4603 18.8611C12.4603 18.6921 12.5191 18.5607 12.6367 18.4655C12.755 18.371 12.9161 18.3226 13.1208 18.3226C13.2674 18.311 13.4453 18.3049 13.6567 18.3049L14.2156 18.3226C14.389 18.3226 14.5249 18.3587 14.6256 18.4309C14.7249 18.5031 14.7867 18.6037 14.8112 18.7313L14.8303 18.8604H12.4611L12.4603 18.8611Z" fill="white"/>
<path d="M22.1347 16.809C22.0362 16.7091 21.9041 16.6545 21.7637 16.6545C21.6232 16.6545 21.4919 16.7099 21.3918 16.809C21.3918 16.809 20.9582 17.2453 20.9597 17.2438C20.8597 17.3445 20.8047 17.4766 20.8047 17.6187C20.8047 17.7609 20.8597 17.8938 20.9597 17.9937C21.0566 18.092 21.1887 18.1465 21.3285 18.1473C21.4689 18.1473 21.6018 18.0928 21.7003 17.9929L22.134 17.5557C22.3386 17.3498 22.3386 17.0141 22.134 16.8082L22.1347 16.809Z" fill="#283583"/>
<path d="M22.1181 20.2101L21.6821 19.7721C21.5829 19.6723 21.4508 19.6169 21.3103 19.6169C21.1698 19.6169 21.0385 19.6723 20.9392 19.7737C20.7361 19.9773 20.7354 20.3122 20.9392 20.5189C20.9408 20.5197 21.3737 20.9561 21.3737 20.9561C21.5783 21.162 21.9104 21.162 22.1158 20.9561C22.3197 20.7494 22.3197 20.4152 22.1173 20.2101H22.1181Z" fill="white"/>
<path d="M19.1792 17.2446C19.1792 17.2446 18.7456 16.8082 18.7448 16.8075C18.5394 16.6031 18.208 16.6031 18.0034 16.8082C17.7988 17.0141 17.7988 17.3491 18.0027 17.555C18.0034 17.555 18.4379 17.9922 18.4379 17.9922C18.5356 18.0913 18.6684 18.1466 18.8089 18.1466C18.9494 18.1466 19.0815 18.0913 19.1808 17.9914C19.2792 17.8931 19.3335 17.7601 19.3335 17.6188C19.3335 17.4774 19.2792 17.3445 19.18 17.2446H19.1792Z" fill="#3FA535"/>
<path d="M18.7845 18.8118C18.7761 18.7542 18.7585 18.6996 18.7326 18.6489H17.1857C17.1597 18.6989 17.1422 18.7542 17.1338 18.8118H18.7845Z" fill="white"/>
<path d="M17.136 18.9832C17.1451 19.0354 17.1619 19.0846 17.1856 19.1307H18.7325C18.7562 19.0853 18.773 19.0354 18.7821 18.9832H17.136Z" fill="white"/>
<path d="M18.5929 18.4769C18.5028 18.4046 18.3898 18.3608 18.2661 18.3608H17.653C17.5293 18.3608 17.4155 18.4039 17.3254 18.4769H18.5929Z" fill="white"/>
<path d="M17.3254 19.302C17.4155 19.3742 17.5293 19.4172 17.653 19.4172H18.2661C18.3898 19.4172 18.5035 19.3742 18.5929 19.302H17.3254Z" fill="white"/>
<path d="M21.3591 18.9817C21.3683 19.0339 21.3851 19.0831 21.4088 19.1292H22.9556C22.9793 19.0839 22.9961 19.0339 23.0053 18.9817H21.3591Z" fill="white"/>
<path d="M23.0074 18.8103C22.999 18.7527 22.9814 18.6982 22.9555 18.6475H21.4086C21.3826 18.6974 21.3651 18.7527 21.3567 18.8103H23.0074Z" fill="white"/>
<path d="M21.5483 19.3013C21.6384 19.3735 21.7522 19.4165 21.8751 19.4165H22.4882C22.6119 19.4165 22.7257 19.3735 22.8158 19.3013H21.5483Z" fill="white"/>
<path d="M22.8158 18.4761C22.7257 18.4039 22.6119 18.3601 22.4882 18.3601H21.8751C21.7514 18.3601 21.6377 18.4031 21.5483 18.4761H22.8165H22.8158Z" fill="white"/>
<path d="M19.9764 16.0007C19.9245 16.01 19.8756 16.0269 19.8298 16.0499V17.6087C19.8756 17.6318 19.9245 17.6487 19.9764 17.6579V16.0007Z" fill="#CD1719"/>
<path d="M19.6594 16.1875C19.5853 16.2782 19.5403 16.3942 19.5403 16.5209V17.1386C19.5403 17.2654 19.5853 17.3814 19.6594 17.4721V16.1875Z" fill="#CD1719"/>
<path d="M20.3084 16.0538C20.2596 16.0284 20.2069 16.0092 20.1504 16V17.6587C20.2061 17.6495 20.2596 17.6311 20.3084 17.6049V16.0538Z" fill="#CD1719"/>
<path d="M20.4795 16.1968V17.4614C20.549 17.3722 20.591 17.2601 20.591 17.1379V16.5202C20.591 16.3981 20.5497 16.2859 20.4795 16.1968Z" fill="#CD1719"/>
<path d="M19.9757 20.0918C19.9237 20.1002 19.8749 20.1179 19.8298 20.141V21.6998C19.8756 21.7229 19.9245 21.7398 19.9757 21.7482V20.0918Z" fill="white"/>
<path d="M19.6587 20.2778C19.5846 20.3685 19.5396 20.4845 19.5396 20.6113V21.2282C19.5396 21.355 19.5846 21.471 19.6587 21.5616V20.2778Z" fill="white"/>
<path d="M20.3177 20.1441C20.2688 20.1188 20.2162 20.0996 20.1597 20.0903V21.7483C20.2162 21.7391 20.2688 21.7206 20.3177 21.6953V20.1441Z" fill="white"/>
<path d="M20.4878 20.2878V21.5524C20.5573 21.4633 20.5993 21.3511 20.5993 21.229V20.6121C20.5993 20.4899 20.5573 20.3777 20.4878 20.2878Z" fill="white"/>
<path d="M18.3844 20.1955H17.4788C17.3506 20.1955 17.2299 20.1663 17.123 20.1148V23.7142H18.7837V20.0918C18.6669 20.1571 18.531 20.1955 18.3844 20.1955Z" fill="white"/>
</g>
<circle cx="20" cy="20" r="19.5" stroke="black" stroke-opacity="0.05"/>
<defs>
<clipPath id="clip0_14382_21349">
<rect width="30" height="7.71429" fill="white" transform="translate(5 16)"/>
</clipPath>
</defs>
</svg>
