<svg width="40" height="40" viewBox="0 0 40 40" fill="none" xmlns="http://www.w3.org/2000/svg">
<circle cx="20" cy="20" r="20" fill="#262B37"/>
<g clip-path="url(#clip0_18553_55659)">
<path d="M22.246 9.71717C21.7728 9.60892 21.2995 9.54126 20.8262 9.50066C20.2582 9.46007 19.6767 9.46007 19.1088 9.50066C16.7559 9.71717 14.5517 10.7591 12.9019 12.4506C10.9546 14.4398 9.92691 17.1326 10.0351 19.9066C10.0621 20.5832 10.1568 21.2733 10.3326 21.9364C11.0222 23.1001 11.7525 23.9662 12.5233 24.4939C13.3076 25.0487 14.1189 25.2652 14.9844 25.617C15.4712 25.82 15.9715 25.8741 16.4719 25.7929C16.2285 25.6035 15.9851 25.4276 15.7552 25.2652C14.8897 24.6427 14.1595 23.7632 13.6186 22.8701C12.7396 21.3951 12.3475 19.7848 12.4556 18.0528C12.4962 17.4574 12.5638 17.0108 12.6314 16.7131C13.551 13.0054 16.3502 10.5155 20.0959 9.97427C20.8126 9.86602 21.4076 9.87955 21.8945 9.97427C22.2866 10.0555 22.6788 10.1367 23.1115 10.2314C23.2738 10.2584 23.4225 10.3126 23.5713 10.3667C23.72 10.4208 23.8823 10.475 24.031 10.5291C24.0716 10.5426 24.2068 10.6103 24.4502 10.7456C24.626 10.8403 24.8018 10.8538 24.9506 10.7727C24.0986 10.2855 23.1926 9.93368 22.2325 9.71717H22.246Z" fill="url(#paint0_linear_18553_55659)"/>
<path d="M28.3448 14.1962C28.3448 14.1962 28.3177 14.1421 28.3312 14.115C28.3312 14.1015 28.3312 14.0744 28.3312 14.0609C28.3177 14.0067 28.3312 13.9932 28.3718 14.0203C28.3853 14.0203 28.4124 14.0338 28.4259 14.0338C28.0743 13.5061 27.6821 13.0054 27.2494 12.5453C26.5868 11.8552 25.816 11.2598 24.9776 10.7726C24.8289 10.8538 24.6531 10.8538 24.4773 10.7456C24.2474 10.6103 24.0986 10.5426 24.0581 10.5291C23.9093 10.4749 23.7471 10.4208 23.5983 10.3667C23.4496 10.3126 23.2873 10.272 23.1385 10.2314C22.7193 10.1502 22.3137 10.069 21.9215 9.97426C21.4347 9.866 20.8397 9.866 20.123 9.97426C16.3502 10.5155 13.551 13.0054 12.645 16.686C12.5773 16.9973 12.5097 17.4438 12.4692 18.0257C12.361 19.7577 12.7396 21.368 13.6321 22.843C14.173 23.7361 14.9032 24.6157 15.7687 25.2381C15.9986 25.4005 16.242 25.5764 16.4854 25.7659C16.6206 25.8335 16.7694 25.9147 16.9181 26.0094C17.0669 26.1042 17.2156 26.1854 17.3508 26.2395C18.1352 26.5507 18.7031 26.7402 19.0277 26.8349C19.6497 26.9973 20.4205 27.0649 21.3535 27.0379L21.8674 26.9837C22.7193 26.9567 23.5172 26.6996 24.3015 26.4019C24.7477 26.226 25.1669 26.023 25.532 25.7794C26.5733 25.1028 27.4523 24.2368 28.169 23.1948C28.8181 22.1529 29.2373 21.0839 29.4266 19.9607C29.7646 17.9445 29.413 16.023 28.3448 14.1826V14.1962ZM26.3705 21.5169C26.1135 21.8281 25.789 22.1258 25.4103 22.4235C25.0182 22.7212 24.6396 22.9648 24.288 23.1542C24.0175 23.3031 23.6389 23.4384 23.125 23.5602C21.9621 23.8444 20.8262 23.8579 19.7038 23.5602C18.8248 23.3437 18.054 22.9648 17.3914 22.4235C15.8904 21.2192 15.0249 19.663 14.8086 17.755C14.768 17.3626 14.768 16.9431 14.8356 16.5236C15.1331 14.4262 16.2014 12.7347 18.027 11.5981C19.5686 10.6373 21.4617 10.4885 23.2332 10.935C23.5983 11.0297 23.9229 11.1515 24.1933 11.3004C25.0452 11.7875 25.6402 12.1935 25.9918 12.5182C26.1811 12.6941 26.5057 13.1272 26.979 13.8038C27.5199 14.6427 27.8444 15.5358 27.9391 16.456C28.1284 18.364 27.601 20.0554 26.384 21.5034L26.3705 21.5169Z" fill="url(#paint1_linear_18553_55659)"/>
<path d="M30.022 19.176C29.9949 18.3641 29.8732 17.5657 29.6569 16.7944C29.3864 15.8201 28.9672 14.8864 28.4128 14.0339C28.3993 14.0339 28.3722 14.0339 28.3587 14.0204C28.3046 13.9933 28.2911 14.0068 28.3181 14.061C28.3181 14.0745 28.3181 14.1016 28.3181 14.1151C28.3181 14.1422 28.3181 14.1692 28.3317 14.1963C29.3864 16.0366 29.7515 17.9581 29.4135 19.9744C29.2241 21.0975 28.8049 22.1665 28.1559 23.2085C27.4392 24.2504 26.5602 25.1164 25.5189 25.793C25.1538 26.0366 24.7346 26.2396 24.2884 26.4155C23.5041 26.7132 22.7198 26.9703 21.8543 26.9974L21.3404 27.0515C20.4074 27.0786 19.6231 26.9974 19.0145 26.8485C18.69 26.7673 18.1221 26.5643 17.3377 26.2531C17.2025 26.199 17.0538 26.1313 16.905 26.0231C16.7563 25.9284 16.6075 25.8472 16.4723 25.7795C15.972 25.8607 15.4716 25.8066 14.9848 25.6036C14.1193 25.2518 13.308 25.0353 12.5237 24.4804C11.7529 23.9392 11.0227 23.0867 10.333 21.9229C10.7387 23.5062 11.523 24.9676 12.6183 26.1855C12.9699 26.5779 13.3486 26.9297 13.7542 27.268C14.809 28.1205 16.0125 28.743 17.3107 29.1083C18.0274 29.3113 18.7711 29.4331 19.5149 29.4737C19.6907 29.4737 19.8665 29.4737 20.0423 29.4737C20.4209 29.4737 20.7995 29.4466 21.1646 29.406C21.692 29.3519 22.2059 29.2436 22.7198 29.0948C23.9909 28.7294 25.1809 28.134 26.2221 27.3086C26.7495 26.8891 27.2363 26.4155 27.669 25.9013C29.2512 24.0204 30.0761 21.6252 30.0085 19.1625L30.022 19.176Z" fill="url(#paint2_linear_18553_55659)"/>
</g>
<circle cx="20" cy="20" r="19.5" stroke="black" stroke-opacity="0.05"/>
<defs>
<linearGradient id="paint0_linear_18553_55659" x1="9.83225" y1="20.6915" x2="26.2655" y2="13.9469" gradientUnits="userSpaceOnUse">
<stop offset="0.05" stop-color="#00895E"/>
<stop offset="0.57" stop-color="#84AE3F"/>
</linearGradient>
<linearGradient id="paint1_linear_18553_55659" x1="13.4158" y1="16.8213" x2="30.1308" y2="20.5648" gradientUnits="userSpaceOnUse">
<stop offset="0.04" stop-color="#F8CD1B"/>
<stop offset="0.96" stop-color="#CE6324"/>
</linearGradient>
<linearGradient id="paint2_linear_18553_55659" x1="12.0774" y1="27.1191" x2="30.7964" y2="19.4285" gradientUnits="userSpaceOnUse">
<stop offset="0.04" stop-color="#1A70AC"/>
<stop offset="0.96" stop-color="#46A8EB"/>
</linearGradient>
<clipPath id="clip0_18553_55659">
<rect width="20" height="20" fill="white" transform="translate(10.0352 9.47363)"/>
</clipPath>
</defs>
</svg>
