<svg width="40" height="40" viewBox="0 0 40 40" fill="none" xmlns="http://www.w3.org/2000/svg">
<circle cx="20" cy="20" r="20" fill="#F6F8FA"/>
<path d="M14.0687 15.6772H7.84891C7.62129 15.6846 7.40544 15.7801 7.24701 15.9437C7.08858 16.1073 7 16.3261 7 16.5538C7 16.7816 7.08858 17.0004 7.24701 17.164C7.40544 17.3276 7.62129 17.4231 7.84891 17.4305H9.86315V23.5238C9.86315 23.8143 9.97859 24.093 10.1841 24.2985C10.3895 24.504 10.6682 24.6194 10.9588 24.6194C11.2494 24.6194 11.5281 24.504 11.7335 24.2985C11.939 24.093 12.0544 23.8143 12.0544 23.5238V17.4305H14.0687C14.2963 17.4231 14.5121 17.3276 14.6706 17.164C14.829 17.0004 14.9176 16.7816 14.9176 16.5538C14.9176 16.3261 14.829 16.1073 14.6706 15.9437C14.5121 15.7801 14.2963 15.6846 14.0687 15.6772Z" fill="#F15D2F"/>
<path d="M24.3072 22.7787L19.7007 20.0934L24.3163 17.4161C24.4662 17.3286 24.5906 17.2033 24.677 17.0528C24.7635 16.9022 24.809 16.7316 24.809 16.558C24.809 16.3844 24.7635 16.2139 24.677 16.0633C24.5906 15.9127 24.4662 15.7875 24.3163 15.7L18.1968 12.1357C18.0457 12.0475 17.874 12.0006 17.6991 12C17.5241 11.9994 17.3521 12.0449 17.2004 12.1321C17.0487 12.2193 16.9228 12.3449 16.8352 12.4964C16.7477 12.6479 16.7017 12.8198 16.7019 12.9947L16.6928 20.069L16.6865 27.1857C16.6861 27.3606 16.7319 27.5326 16.8192 27.6842C16.9066 27.8358 17.0325 27.9616 17.1841 28.049C17.3357 28.1363 17.5077 28.1821 17.6826 28.1817C17.8576 28.1812 18.0293 28.1346 18.1805 28.0465L24.3063 24.4949C24.4573 24.4077 24.5827 24.2822 24.6699 24.1312C24.757 23.9802 24.8029 23.8089 24.8029 23.6345C24.8029 23.4602 24.757 23.2889 24.6699 23.1379C24.5827 22.9868 24.4573 22.8614 24.3063 22.7742L24.3072 22.7787ZM18.8489 18.2841V14.8166L21.8296 16.5526C20.7358 17.1903 19.9256 17.6591 18.8489 18.2841ZM18.8417 25.3665V21.8989C19.9165 22.5258 20.7259 22.9964 21.8224 23.635L18.8417 25.3665Z" fill="#004FA3"/>
<path d="M32.2052 22.7299C31.0057 22.4797 30.0166 22.1717 29.182 21.7878C28.4504 21.469 27.6862 21.002 27.3105 20.5947C27.1795 20.4596 27.1024 20.2813 27.0937 20.0933C27.1001 19.9105 27.1726 19.7362 27.2978 19.6029C27.67 19.2145 28.4377 18.724 29.1631 18.4079C30.0166 18.0159 31.0057 17.7079 32.2052 17.4568C32.329 17.431 32.4466 17.381 32.5511 17.3098C32.6556 17.2386 32.7451 17.1475 32.8144 17.0417C32.8838 16.9358 32.9316 16.8174 32.9551 16.6931C32.9787 16.5689 32.9775 16.4412 32.9517 16.3173C32.9259 16.1935 32.876 16.0759 32.8048 15.9714C32.7335 15.8669 32.6424 15.7774 32.5366 15.7081C32.4308 15.6387 32.3124 15.5909 32.1881 15.5674C32.0638 15.5438 31.9361 15.545 31.8123 15.5708C30.4682 15.8508 29.3437 16.2031 28.3799 16.6493C27.838 16.8823 25.0479 18.1848 25.0479 20.0933C25.0479 22.0019 27.8407 23.3053 28.3998 23.5474C29.3482 23.9836 30.4773 24.3368 31.8159 24.6168C32.0646 24.6652 32.3224 24.6136 32.5334 24.4733C32.7444 24.333 32.8916 24.1153 32.9433 23.8672C32.9949 23.6192 32.9468 23.3607 32.8094 23.1479C32.6719 22.935 32.4562 22.7849 32.2088 22.7299H32.2052Z" fill="#F15D2F"/>
<circle cx="20" cy="20" r="19.5" stroke="black" stroke-opacity="0.05"/>
</svg>
