<svg width="40" height="40" viewBox="0 0 40 40" fill="none" xmlns="http://www.w3.org/2000/svg">
<circle cx="20" cy="20" r="20" fill="#A50034"/>
<g clip-path="url(#clip0_14382_18869)">
<path d="M20 32C22.3713 31.9982 24.6888 31.2927 26.6595 29.9729C28.6301 28.6531 30.1656 26.7781 31.0716 24.585C31.9776 22.392 32.2136 19.9793 31.7496 17.6521C31.2856 15.3248 30.1426 13.1875 28.465 11.5103C26.7874 9.83316 24.6505 8.69144 22.3246 8.22952C19.9987 7.76761 17.5882 8.00623 15.3977 8.91523C13.2073 9.82424 11.3354 11.3628 10.0186 13.3364C8.70187 15.31 7.99939 17.63 8 20.0031C8.00082 21.5794 8.31185 23.1401 8.91535 24.596C9.51885 26.052 10.403 27.3748 11.5173 28.4888C12.6316 29.6028 13.9542 30.4862 15.4097 31.0887C16.8652 31.6912 18.425 32.0008 20 32Z" fill="#A50034"/>
<path d="M19.5156 14.7363V25.2635H22.8626V24.3189H20.4812V14.7363H19.5156Z" fill="white"/>
<path d="M16.1687 17.6074C16.4539 17.608 16.7329 17.5239 16.9703 17.3657C17.2076 17.2075 17.3928 16.9824 17.5022 16.7188C17.6116 16.4552 17.6404 16.1651 17.5849 15.8851C17.5294 15.6052 17.3922 15.348 17.1905 15.1462C16.9888 14.9443 16.7319 14.807 16.4521 14.7514C16.1724 14.6959 15.8825 14.7247 15.6191 14.8342C15.3557 14.9437 15.1308 15.129 14.9727 15.3666C14.8146 15.6041 14.7306 15.8833 14.7312 16.1687C14.7312 16.5503 14.8827 16.9162 15.1522 17.186C15.4218 17.4558 15.7875 17.6074 16.1687 17.6074Z" fill="white"/>
<path d="M20.4813 9.95752H20.0032C18.0169 9.95752 16.0752 10.5471 14.4238 11.6517C12.7724 12.7563 11.4854 14.3262 10.7257 16.1629C9.96601 17.9996 9.76771 20.0205 10.1559 21.97C10.5441 23.9195 11.5013 25.71 12.9065 27.115C14.3117 28.5199 16.1016 29.4763 18.05 29.8629C19.9984 30.2496 22.0175 30.0493 23.8521 29.2873C25.6867 28.5253 27.2542 27.2359 28.3564 25.5822C29.4586 23.9284 30.0459 21.9847 30.044 19.9969V19.5494H22.872V20.4816H29.0816C29.0816 20.5034 29.0816 20.5997 29.0816 20.6245C28.963 22.3703 28.3447 24.045 27.3004 25.4484C26.256 26.8518 24.83 27.9246 23.1926 28.5384C21.5553 29.1522 19.7759 29.2812 18.0673 28.9098C16.3587 28.5385 14.7931 27.6825 13.5576 26.4443C12.2821 25.17 11.4133 23.5454 11.0612 21.7765C10.7092 20.0075 10.8897 18.1738 11.58 16.5076C12.2703 14.8414 13.4393 13.4178 14.9388 12.4171C16.4383 11.4165 18.2009 10.8838 20.0032 10.8866C20.1087 10.8866 20.3633 10.8866 20.4813 10.8866V9.95752Z" fill="white"/>
</g>
<circle cx="20" cy="20" r="19.5" stroke="black" stroke-opacity="0.05"/>
<defs>
<clipPath id="clip0_14382_18869">
<rect width="24" height="24" fill="white" transform="translate(8 8)"/>
</clipPath>
</defs>
</svg>
