<svg width="40" height="41" viewBox="0 0 40 41" fill="none" xmlns="http://www.w3.org/2000/svg">
<circle cx="20" cy="20" r="20" fill="#96846E"/>
<g clip-path="url(#clip0_14382_20539)">
<path d="M16.7242 30.0797V24.3166C15.1638 24.0862 13.771 23.4404 12.6994 22.456C11.1146 20.9934 10.3397 18.906 10.5282 16.5777C10.6853 14.6439 11.5998 12.8427 13.1113 11.5057C14.8671 9.95238 16.9685 9.22632 19.7262 9.22632C25.6674 9.22632 30.5055 13.9248 30.5055 19.6949C30.5055 22.4281 29.4304 25.0112 27.4756 26.973C25.3672 29.0988 22.442 30.2228 19.0211 30.2228C18.0053 30.2228 16.9162 30.0902 16.7277 30.0762L16.7242 30.0797ZM19.3841 14.2704C22.606 14.41 24.6167 16.3857 24.5259 19.3284C24.4422 21.9778 22.4559 23.9396 19.4644 24.327C19.1572 24.3654 18.843 24.3934 18.5428 24.4073V28.467C18.7104 28.474 18.878 28.474 19.0385 28.474C21.9498 28.474 24.4177 27.5385 26.177 25.7652C27.8107 24.1281 28.7078 21.9743 28.7078 19.6949C28.7078 14.8847 24.6795 10.9717 19.7262 10.9717H19.5831C14.9195 11.045 12.5598 13.9981 12.3433 16.7104C12.2002 18.4976 12.7727 20.0824 13.9561 21.1645C14.6996 21.8487 15.6351 22.3024 16.7277 22.5154V14.3192C17.7086 14.2494 18.5079 14.232 19.3876 14.2704H19.3841ZM18.5463 16.0192V22.6376C18.7697 22.6236 18.9966 22.6026 19.2235 22.5747C20.8642 22.3618 22.6375 21.3844 22.7038 19.276C22.7666 17.3073 21.5239 16.1309 19.3073 16.0401C19.0455 16.0297 18.8047 16.0227 18.5463 16.0192Z" fill="white"/>
</g>
<circle cx="20" cy="20.2263" r="19.5" stroke="black" stroke-opacity="0.05"/>
<defs>
<clipPath id="clip0_14382_20539">
<rect width="20.0053" height="21" fill="white" transform="translate(10.5 9.22632)"/>
</clipPath>
</defs>
</svg>
