<svg width="40" height="40" viewBox="0 0 40 40" fill="none" xmlns="http://www.w3.org/2000/svg">
<circle cx="20" cy="20" r="20" fill="#F6F8FA"/>
<path d="M28.6334 20.4813C28.6334 18.1747 27.7171 15.9625 26.0861 14.3315C24.4551 12.7005 22.243 11.7842 19.9363 11.7842C17.6297 11.7842 15.4176 12.7005 13.7866 14.3315C12.1556 15.9625 11.2393 18.1747 11.2393 20.4813C11.2393 22.7879 12.1556 25 13.7866 26.631C15.4176 28.2621 17.6297 29.1783 19.9363 29.1783C22.243 29.1783 24.4551 28.2621 26.0861 26.631C27.7171 25 28.6334 22.7879 28.6334 20.4813Z" stroke="#FBF687" stroke-width="2"/>
<path d="M28.0075 20.4759C28.0075 18.3623 27.1679 16.3352 25.6733 14.8406C24.1787 13.346 22.1516 12.5063 20.0379 12.5063C17.9243 12.5063 15.8972 13.346 14.4026 14.8406C12.908 16.3352 12.0684 18.3623 12.0684 20.4759C12.0684 22.5896 12.908 24.6167 14.4026 26.1113C15.8972 27.6059 17.9243 28.4455 20.0379 28.4455C22.1516 28.4455 24.1787 27.6059 25.6733 26.1113C27.1679 24.6167 28.0075 22.5896 28.0075 20.4759Z" stroke="#FBF687" stroke-width="2"/>
<path d="M26.8948 20.4864C26.8948 18.6484 26.1646 16.8857 24.8649 15.586C23.5652 14.2863 21.8025 13.5562 19.9645 13.5562C18.1264 13.5562 16.3637 14.2863 15.064 15.586C13.7643 16.8857 13.0342 18.6484 13.0342 20.4864C13.0342 22.3245 13.7643 24.0872 15.064 25.3869C16.3637 26.6866 18.1264 27.4167 19.9645 27.4167C21.8025 27.4167 23.5652 26.6866 24.8649 25.3869C26.1646 24.0872 26.8948 22.3245 26.8948 20.4864Z" stroke="#FBF687" stroke-width="2"/>
<path d="M17.7315 21.2696C17.227 22.4559 16.6313 23.5104 17.3639 24.8082C19.2296 28.1137 24.1979 25.7715 22.7479 22.3368C21.854 20.2193 21.0234 18.1737 20.2562 16.1999C20.1091 15.823 19.9613 15.823 19.8126 16.1999C19.1552 17.8627 18.4615 19.5526 17.7315 21.2696Z" stroke="#8ECF9D" stroke-width="2"/>
<path d="M30.0352 20.4736C30.0352 23.1258 28.9816 25.6693 27.1062 27.5447C25.2309 29.4201 22.6873 30.4736 20.0352 30.4736C17.383 30.4736 14.8395 29.4201 12.9641 27.5447C11.0887 25.6693 10.0352 23.1258 10.0352 20.4736C10.0352 17.8215 11.0887 15.2779 12.9641 13.4026C14.8395 11.5272 17.383 10.4736 20.0352 10.4736C22.6873 10.4736 25.2309 11.5272 27.1062 13.4026C28.9816 15.2779 30.0352 17.8215 30.0352 20.4736ZM28.6334 20.4812C28.6334 18.1746 27.7171 15.9625 26.0861 14.3315C24.455 12.7004 22.2429 11.7842 19.9363 11.7842C17.6297 11.7842 15.4175 12.7004 13.7865 14.3315C12.1555 15.9625 11.2392 18.1746 11.2392 20.4812C11.2392 22.7878 12.1555 25 13.7865 26.631C15.4175 28.262 17.6297 29.1783 19.9363 29.1783C22.2429 29.1783 24.455 28.262 26.0861 26.631C27.7171 25 28.6334 22.7878 28.6334 20.4812Z" fill="#F6ED0E"/>
<path d="M28.6334 20.4813C28.6334 22.7879 27.7171 25 26.0861 26.631C24.4551 28.2621 22.243 29.1783 19.9363 29.1783C17.6297 29.1783 15.4176 28.2621 13.7866 26.631C12.1556 25 11.2393 22.7879 11.2393 20.4813C11.2393 18.1747 12.1556 15.9625 13.7866 14.3315C15.4176 12.7005 17.6297 11.7842 19.9363 11.7842C22.243 11.7842 24.4551 12.7005 26.0861 14.3315C27.7171 15.9625 28.6334 18.1747 28.6334 20.4813ZM28.0073 20.4762C28.0073 18.3625 27.1677 16.3354 25.6731 14.8408C24.1785 13.3463 22.1514 12.5066 20.0377 12.5066C17.9241 12.5066 15.897 13.3463 14.4024 14.8408C12.9078 16.3354 12.0682 18.3625 12.0682 20.4762C12.0682 22.5899 12.9078 24.617 14.4024 26.1115C15.897 27.6061 17.9241 28.4458 20.0377 28.4458C22.1514 28.4458 24.1785 27.6061 25.6731 26.1115C27.1677 24.617 28.0073 22.5899 28.0073 20.4762Z" fill="white"/>
<path d="M28.0075 20.4764C28.0075 22.5901 27.1679 24.6172 25.6733 26.1118C24.1787 27.6063 22.1516 28.446 20.0379 28.446C17.9243 28.446 15.8972 27.6063 14.4026 26.1118C12.908 24.6172 12.0684 22.5901 12.0684 20.4764C12.0684 18.3628 12.908 16.3357 14.4026 14.8411C15.8972 13.3465 17.9243 12.5068 20.0379 12.5068C22.1516 12.5068 24.1787 13.3465 25.6733 14.8411C27.1679 16.3357 28.0075 18.3628 28.0075 20.4764ZM26.8947 20.4866C26.8947 18.6485 26.1646 16.8858 24.8649 15.5861C23.5652 14.2864 21.8025 13.5563 19.9644 13.5563C18.1264 13.5563 16.3637 14.2864 15.064 15.5861C13.7643 16.8858 13.0341 18.6485 13.0341 20.4866C13.0341 22.3246 13.7643 24.0873 15.064 25.387C16.3637 26.6867 18.1264 27.4168 19.9644 27.4168C21.8025 27.4168 23.5652 26.6867 24.8649 25.387C26.1646 24.0873 26.8947 22.3246 26.8947 20.4866Z" fill="#F6ED0E"/>
<path d="M26.8948 20.4864C26.8948 22.3245 26.1646 24.0872 24.8649 25.3869C23.5652 26.6866 21.8025 27.4167 19.9645 27.4167C18.1264 27.4167 16.3637 26.6866 15.064 25.3869C13.7643 24.0872 13.0342 22.3245 13.0342 20.4864C13.0342 18.6484 13.7643 16.8857 15.064 15.586C16.3637 14.2863 18.1264 13.5562 19.9645 13.5562C21.8025 13.5562 23.5652 14.2863 24.8649 15.586C26.1646 16.8857 26.8948 18.6484 26.8948 20.4864ZM17.7313 21.2697C17.2268 22.456 16.6311 23.5105 17.3637 24.8084C19.2294 28.1138 24.1977 25.7716 22.7477 22.3369C21.8538 20.2194 21.0232 18.1738 20.256 16.2C20.109 15.8232 19.9611 15.8232 19.8124 16.2C19.155 17.8629 18.4613 19.5528 17.7313 21.2697Z" fill="white"/>
<path d="M17.7315 21.2696C18.4615 19.5526 19.1552 17.8627 19.8126 16.1999C19.9613 15.823 20.1091 15.823 20.2562 16.1999C21.0234 18.1737 21.854 20.2193 22.7479 22.3368C24.1979 25.7715 19.2296 28.1137 17.3639 24.8082C16.6313 23.5104 17.227 22.4559 17.7315 21.2696Z" fill="#1C9E3A"/>
<circle cx="20" cy="20" r="19.5" stroke="black" stroke-opacity="0.05"/>
</svg>
