<svg width="40" height="40" viewBox="0 0 40 40" fill="none" xmlns="http://www.w3.org/2000/svg">
<circle cx="20" cy="20" r="20" fill="#EA002C"/>
<path d="M14.655 22.1056C14.0432 21.821 13.5452 21.5898 13.5452 21.1238C13.5452 20.7681 13.8298 20.5084 14.3918 20.5084C14.577 20.5098 14.7616 20.5289 14.9431 20.5653C15.0322 20.5832 15.1227 20.5928 15.2135 20.5938C15.7044 20.5938 15.9818 20.3021 16.1668 19.7472L16.2415 19.5195C15.6295 19.2686 14.9749 19.1382 14.3135 19.1354C12.6488 19.1354 11.7702 20.2025 11.7702 21.3123C11.7536 21.7814 11.9135 22.2396 12.2184 22.5965C12.5951 22.986 13.0463 23.2956 13.5452 23.5071C14.2317 23.8414 14.8507 24.0904 14.8507 24.592C14.8507 25.0331 14.3953 25.2856 13.7835 25.2856C13.1891 25.2522 12.6144 25.0606 12.1188 24.7307L11.4287 26.0326C12.1785 26.4648 13.0321 26.6838 13.8973 26.6658C15.4518 26.6658 16.6292 25.773 16.6292 24.4035C16.6292 23.034 15.5265 22.5324 14.655 22.1056Z" fill="white"/>
<path d="M20.7302 22.7423L23.551 19.2848H21.5412L19.2931 22.2692H19.2611V19.2848H17.6035V26.6089H17.7031C18.4145 26.6089 19.2718 26.2781 19.2718 25.0793V23.4004H19.3038L21.5982 26.5093H23.7075L20.7302 22.7423Z" fill="white"/>
<path d="M23.6442 11.441C23.0644 11.5513 22.2 12.0813 22.2 13.0168C22.2 13.867 22.9115 14.3828 22.9115 15.5068C22.911 15.8519 22.8201 16.1907 22.6478 16.4897C22.4756 16.7886 22.228 17.0372 21.9297 17.2107C22.1289 17.1929 22.353 17.1787 22.5949 17.1787C22.8743 17.175 23.1537 17.1917 23.4308 17.2285L26.0453 14.0271C25.3913 13.0399 24.5802 12.1664 23.6442 11.441Z" fill="white"/>
<path d="M25.8424 20.1064C26.1733 19.5941 26.1982 18.7796 26.2408 17.9472C26.2729 17.1717 26.4329 16.5884 27.4716 16.5848C27.7028 16.5848 27.9198 16.6133 28.3182 16.6133C29.4215 16.6099 30.5033 16.3075 31.4485 15.7382C29.8353 14.6997 27.976 14.1069 26.0594 14.0201C25.91 14.4399 24.754 17.6591 24.665 17.933C24.8408 18.1422 24.9968 18.3673 25.131 18.6053C25.4216 19.0785 25.6601 19.5818 25.8424 20.1064Z" fill="white"/>
<path d="M20.3175 17.4776C20.1859 17.4776 20.1219 17.3922 20.1041 17.2392C20.0863 17.0863 19.4389 11.1032 19.3358 10.1997C19.3358 10.0645 19.286 9.82265 19.286 9.73728C19.2835 9.70983 19.2868 9.68216 19.2957 9.65608C19.3046 9.63 19.319 9.60611 19.3378 9.58596C19.3566 9.5658 19.3794 9.54986 19.4048 9.53915C19.4302 9.52845 19.4576 9.52324 19.4852 9.52385C19.7946 9.52385 21.4843 9.91869 23.2735 11.1744C22.8731 11.2753 22.5161 11.5031 22.2559 11.8236C21.9956 12.1442 21.8459 12.5403 21.8293 12.9529C21.8293 13.9347 22.5407 14.4789 22.5407 15.4642C22.5478 17.0898 20.7017 17.4776 20.3175 17.4776Z" fill="white"/>
<path d="M25.9912 20.5331C26.0139 20.5956 26.0412 20.6562 26.073 20.7146C26.0875 20.7449 26.1102 20.7706 26.1384 20.7888C26.1667 20.807 26.1995 20.817 26.2331 20.8177C26.285 20.8148 26.3358 20.8015 26.3825 20.7786L32.8066 17.7906C32.924 17.7337 33.1624 17.6341 33.2264 17.5914C33.2589 17.5752 33.2864 17.5504 33.3058 17.5196C33.3253 17.4889 33.3359 17.4535 33.3367 17.4171C33.3365 17.3797 33.3267 17.3429 33.3082 17.3104C32.8739 16.7893 32.3629 16.3371 31.7929 15.9694C30.7601 16.5997 29.5771 16.9412 28.3674 16.9582C27.969 16.9582 27.8765 16.9333 27.6061 16.9333C26.8093 16.9333 26.6102 17.2891 26.5817 17.972C26.5817 18.1036 26.5817 18.2815 26.5817 18.4771C26.5532 19.0996 26.4679 19.9604 25.9912 20.5331Z" fill="white"/>
<circle cx="20" cy="20" r="19.5" stroke="black" stroke-opacity="0.05"/>
</svg>
