<svg width="40" height="40" viewBox="0 0 40 40" fill="none" xmlns="http://www.w3.org/2000/svg">
<circle cx="20" cy="20" r="20" fill="#F6F8FA"/>
<circle cx="20" cy="20" r="19.5" stroke="black" stroke-opacity="0.05"/>
<g clip-path="url(#clip0_17671_18635)">
<path d="M25.4977 21.2886H30.6903C31.4032 21.2886 31.9946 20.6984 31.9946 19.9738C31.9946 19.2568 31.4032 18.6664 30.6903 18.6664H25.4977C25.4345 18.6664 25.375 18.7226 25.375 18.7856V21.1623C25.375 21.232 25.4345 21.2886 25.4977 21.2886Z" fill="#2D4C74"/>
<path d="M14.5291 18.6664H9.33332C8.62363 18.6664 8.03223 19.2568 8.03223 19.9738C8.03223 20.6984 8.62363 21.2886 9.33332 21.2886H14.5291C14.5924 21.2886 14.6528 21.232 14.6528 21.1623V18.7856C14.6528 18.7226 14.5924 18.6664 14.5291 18.6664Z" fill="#2D4C74"/>
<path d="M17.9915 21.1624V12.753C17.9915 12.043 17.4043 11.4526 16.6873 11.4526C15.9674 11.4526 15.3833 12.043 15.3833 12.753V21.1624C15.3833 21.2324 15.4361 21.282 15.506 21.282H17.8723C17.9387 21.282 17.9915 21.2324 17.9915 21.1624Z" fill="#9DC65D"/>
<path d="M21.3248 21.1624V9.31491C21.3248 8.58392 20.7337 8.00014 20.0205 8.00014C19.8481 8.00001 19.6774 8.03398 19.5182 8.10009C19.359 8.1662 19.2145 8.26315 19.0929 8.38535C18.9713 8.50755 18.8751 8.65259 18.8098 8.81212C18.7445 8.97166 18.7114 9.14253 18.7124 9.31491V21.1624C18.7124 21.2324 18.7728 21.282 18.8361 21.282H21.1947C21.2685 21.282 21.3248 21.2324 21.3248 21.1624Z" fill="#9DC65D"/>
<path d="M24.6643 21.1624V12.753C24.6643 12.043 24.0805 11.4526 23.3594 11.4526C22.6459 11.4526 22.0596 12.043 22.0596 12.753V21.1624C22.0596 21.2324 22.1117 21.282 22.1756 21.282H24.5409C24.6115 21.282 24.6643 21.2324 24.6643 21.1624Z" fill="#9DC65D"/>
<path d="M27.9789 15.8325C27.9789 15.1088 27.396 14.5251 26.6787 14.5251C26.5074 14.5251 26.3377 14.5591 26.1795 14.6249C26.0213 14.6907 25.8776 14.7871 25.7568 14.9086C25.6359 15.0301 25.5402 15.1742 25.4752 15.3328C25.4102 15.4913 25.3771 15.6612 25.3779 15.8325V17.8153C25.3777 17.8311 25.3807 17.8467 25.3866 17.8613C25.3925 17.8759 25.4014 17.8891 25.4125 17.9002C25.4237 17.9113 25.4369 17.9201 25.4515 17.926C25.4661 17.9319 25.4818 17.9348 25.4975 17.9346H27.8666C27.9302 17.9346 27.9789 17.8792 27.9789 17.8153V15.8325Z" fill="#9DC65D"/>
<path d="M14.6526 15.8325C14.6521 15.4863 14.5146 15.1544 14.2701 14.9094C14.0255 14.6644 13.6938 14.5262 13.3477 14.5251C12.6338 14.5251 12.0469 15.1089 12.0469 15.8325V17.8153C12.0469 17.8792 12.1028 17.9346 12.1629 17.9346H14.5324C14.603 17.9346 14.6526 17.8792 14.6526 17.8153V15.8325Z" fill="#9DC65D"/>
<path d="M29.291 22.0134H10.7393C10.7229 22.0134 10.7066 22.0166 10.6915 22.023C10.6764 22.0293 10.6626 22.0386 10.6512 22.0504C10.6397 22.0621 10.6307 22.076 10.6247 22.0913C10.6187 22.1066 10.6158 22.1229 10.6163 22.1393V22.9479C10.6163 23.876 11.3574 24.6213 12.2789 24.6213H27.7476C27.967 24.6212 28.1842 24.5778 28.3868 24.4936C28.5893 24.4093 28.7733 24.2859 28.9281 24.1305C29.0829 23.975 29.2054 23.7905 29.2888 23.5876C29.3721 23.3847 29.4146 23.1673 29.4138 22.9479V22.1393C29.4138 22.0694 29.3578 22.0134 29.291 22.0134Z" fill="#2D4C74"/>
<path d="M25.7085 25.3533H14.3147C14.2553 25.3533 14.2022 25.4093 14.2022 25.4726V26.2951C14.2018 26.5134 14.2445 26.7297 14.328 26.9314C14.4115 27.1331 14.534 27.3163 14.6885 27.4705C14.843 27.6247 15.0264 27.7469 15.2283 27.8299C15.4302 27.913 15.6465 27.9554 15.8648 27.9546H24.1578C25.0793 27.9546 25.8271 27.2163 25.8271 26.2951V25.4726C25.8262 25.4413 25.8135 25.4116 25.7914 25.3895C25.7694 25.3673 25.7397 25.3544 25.7085 25.3533Z" fill="#2D4C74"/>
<path d="M21.9642 28.6928H18.0587C17.9954 28.6928 17.9385 28.7421 17.9385 28.805V29.6276C17.9385 30.549 18.6911 31.301 19.6087 31.301H20.4208C21.3381 31.301 22.0844 30.549 22.0844 29.6276V28.805C22.0844 28.7421 22.0309 28.6928 21.9642 28.6928Z" fill="#2D4C74"/>
</g>
<defs>
<clipPath id="clip0_17671_18635">
<rect width="24" height="23.301" fill="white" transform="translate(8 8)"/>
</clipPath>
</defs>
</svg>
