<svg width="40" height="40" viewBox="0 0 40 40" fill="none" xmlns="http://www.w3.org/2000/svg">
<circle cx="20" cy="20" r="20" fill="#C81028"/>
<path d="M19.7271 19.5204C19.7066 19.5419 19.7124 19.5809 19.7408 19.6093L27.958 27.8958C28.0215 27.9593 28.0127 28.012 27.9336 28.0531C24.1477 30.0324 19.482 30.0451 15.6824 28.1165C13.7226 27.1224 12.0586 25.605 11.0255 23.6578C10.172 22.0486 9.85077 20.325 10.0636 18.4882C10.4738 14.9504 13.1035 12.141 16.2722 10.7202C19.938 9.07574 24.345 9.19683 27.9336 11.0532C27.9854 11.0805 28.0059 11.144 27.9795 11.1967C27.9746 11.2065 27.9678 11.2153 27.96 11.2231L19.7271 19.5204ZM20.3794 13.7825C20.6655 13.9124 20.9223 14.1077 21.1508 14.3703C21.2163 14.4455 21.2319 14.4358 21.1977 14.342C21.1137 14.1106 20.9653 13.8791 20.7934 13.6995C19.4713 12.3197 17.1667 12.5365 16.2342 14.2932C16.1648 14.425 16.1824 14.4377 16.2888 14.3332C17.3562 13.2806 19.0894 13.1976 20.3794 13.7825Z" fill="white"/>
<circle cx="20" cy="20" r="19.5" stroke="black" stroke-opacity="0.05"/>
</svg>
