<svg width="40" height="40" viewBox="0 0 40 40" fill="none" xmlns="http://www.w3.org/2000/svg">
<circle cx="20" cy="20" r="20" fill="#F6F8FA"/>
<g clip-path="url(#clip0_17713_27899)">
<path d="M22.4717 25.6358H23.6769L23.0769 23.7439L22.4717 25.6358Z" fill="#D22239"/>
<path d="M26.8174 24.9578C26.3883 24.9578 26.1094 25.3338 26.1094 25.9118C26.1094 26.4914 26.3883 26.9052 26.7782 26.9052C27.2088 26.9052 27.4818 26.5232 27.4818 25.9222C27.4818 25.3338 27.228 24.9578 26.8174 24.9578Z" fill="#D22239"/>
<path d="M28.3772 27.5741H27.5108V27.1388C27.3229 27.466 26.9804 27.6481 26.5587 27.6481C25.7537 27.6481 25.2018 26.9427 25.2018 25.9116C25.2018 24.9013 25.7404 24.2019 26.518 24.2019C26.956 24.2019 27.2519 24.3521 27.4694 24.6904V23.0257H28.3772V27.5741ZM24.3044 27.5741L23.9352 26.4497H22.224L21.8607 27.5741H20.8886H20.8819L20.9966 27.2661L22.4688 23.0257H23.7207L25.3024 27.5741H24.3044ZM17.9899 27.6866C16.8638 27.6866 16.1447 27.0404 16.1447 26.0264H17.1302C17.1302 26.5815 17.4631 26.9138 18.0062 26.9138C18.4848 26.9138 18.7874 26.7014 18.7874 26.3572C18.7874 26.0508 18.6054 25.8976 18.015 25.7229L17.2574 25.506C16.5982 25.3062 16.2298 24.8636 16.2298 24.2581C16.2298 23.4484 16.9186 22.9095 17.9714 22.9095C18.9665 22.9095 19.6138 23.5017 19.6397 24.4335H18.6661V24.3788C18.6661 23.9495 18.3568 23.6726 17.873 23.6726C17.4823 23.6726 17.2094 23.8821 17.2094 24.1856C17.2094 24.4713 17.3669 24.5904 17.9462 24.7607L18.5995 24.9465C19.3956 25.1789 19.7773 25.5897 19.7773 26.2181C19.7773 27.1189 19.0834 27.6866 17.9899 27.6866ZM15.6845 27.5726H14.7294V25.6082H12.8369V27.5726H11.8825V23.0257H12.8369V24.8103H14.7294V23.0257H15.6845V27.5726ZM10.0352 29.7368H30.0352V9.73682H10.0352V29.7368Z" fill="#D22239"/>
</g>
<circle cx="20" cy="20" r="19.5" stroke="black" stroke-opacity="0.05"/>
<defs>
<clipPath id="clip0_17713_27899">
<rect width="20" height="20" fill="white" transform="translate(10.0352 9.73682)"/>
</clipPath>
</defs>
</svg>
