<svg width="40" height="40" viewBox="0 0 40 40" fill="none" xmlns="http://www.w3.org/2000/svg">
<circle cx="20" cy="20" r="20" fill="#F6F8FA"/>
<g clip-path="url(#clip0_18553_55694)">
<path d="M13.9142 23.1602C13.9326 23.3716 14.0245 23.6014 14.1716 23.8496C14.3922 24.2266 14.8611 24.4748 15.284 24.5759C15.4586 24.6127 15.6793 24.6402 15.9551 24.6311C17.5087 24.6311 18.9888 24.6311 20.3953 24.6311C20.4505 24.6311 20.4964 24.6678 20.5056 24.723C20.524 24.8241 20.5332 24.916 20.5332 24.9988C20.5332 25.6239 20.5332 26.3226 20.5148 27.0948C20.5148 27.1408 20.478 27.1775 20.4321 27.1775C20.3126 27.1775 20.239 27.1867 20.2298 27.1867C18.8141 27.1683 17.288 27.1683 15.6425 27.1775C15.4402 27.1775 15.2012 27.1775 14.9346 27.15C14.6864 27.1316 14.4474 27.104 14.2176 27.0488C12.7651 26.7455 11.7998 25.8997 11.3218 24.5207C11.1103 23.9324 11 23.2521 11 22.4983C11 19.0049 11 15.5483 11 12.1377C11 12.0733 11.0552 12.0182 11.1195 12.0182C12.0112 11.9998 12.8938 11.9998 13.7579 12.0182C13.8498 12.0182 13.8958 12.0641 13.8958 12.1653C13.8866 12.8456 13.8774 13.5167 13.8774 14.1969C13.8774 16.8078 13.8774 19.4278 13.8774 22.0386C13.8774 22.5902 13.8866 22.9671 13.905 23.1694L13.9142 23.1602Z" fill="#3C8642"/>
<path d="M20.5058 21.4412C20.5425 22.2226 20.5241 23.0224 20.5058 23.767C20.5058 23.8314 20.4506 23.8773 20.3954 23.8773C18.9889 23.8957 17.6375 23.8957 16.3413 23.8865C15.992 23.8865 15.7254 23.8498 15.5507 23.7854C14.9899 23.5924 14.6774 23.1235 14.5762 22.5535C14.5487 22.3789 14.5303 22.149 14.5303 21.8457C14.5303 18.6281 14.5303 15.3922 14.5303 12.1378C14.5303 12.0367 14.5762 11.9907 14.6774 11.9907C15.4588 11.9907 16.2586 11.9907 17.0676 11.9999C17.1687 11.9999 17.2514 12.0183 17.325 12.0551C17.3433 12.0643 17.3617 12.0827 17.3617 12.101C17.3893 12.2022 17.3617 12.3033 17.3617 12.4136C17.3617 15.0796 17.3617 17.7548 17.3617 20.4299C17.3617 20.623 17.3617 20.8069 17.3801 20.9723C17.3985 21.1838 17.518 21.2849 17.7478 21.2941C18.5752 21.3033 19.4486 21.3033 20.3679 21.2941C20.4414 21.2941 20.4966 21.3493 20.4966 21.4228L20.5058 21.4412Z" fill="#3C8642"/>
<path d="M24.2195 15.4935C23.7782 14.5374 22.5739 14.5926 21.7006 14.5834C20.5147 14.5834 19.3288 14.5834 18.1705 14.5834C18.1153 14.5834 18.0693 14.5374 18.0693 14.4915C18.0877 13.7652 18.0877 13.0206 18.0693 12.2575C18.0693 12.2116 18.0969 12.184 18.1429 12.184C18.2808 12.184 18.4279 12.2024 18.5658 12.2024C20.4044 12.184 21.7833 12.1656 23.291 12.2024C24.6975 12.2392 25.9018 12.8459 26.5729 14.0778C26.8763 14.6385 27.0601 15.2361 27.1153 15.8612C27.1429 16.1922 27.1613 16.615 27.1521 17.1207C27.1429 21.7264 27.1429 26.3321 27.1521 30.9378C27.1521 31.0114 27.1521 31.0941 27.1521 31.1768C27.1521 31.2412 27.1061 31.2964 27.0418 31.3056H24.4861C24.4861 31.3056 24.4401 31.2964 24.4401 31.2688C24.4401 31.2228 24.4309 31.186 24.4309 31.1401C24.4309 26.1942 24.4309 21.2759 24.4309 16.3668C24.4309 16.091 24.3574 15.7969 24.2103 15.4843L24.2195 15.4935Z" fill="#152186"/>
<path d="M22.8036 15.4199C23.4471 15.6129 23.7872 16.4035 23.7872 17.0195C23.7872 21.662 23.7872 26.332 23.7872 31.0205C23.7872 31.094 23.7872 31.1676 23.7781 31.2411C23.7781 31.2595 23.7597 31.2779 23.7413 31.2871C23.6769 31.3055 23.6126 31.3147 23.539 31.3147C22.7117 31.3147 21.9211 31.3147 21.1672 31.3147C21.1396 31.3147 21.1121 31.2963 21.1121 31.2687C21.1029 31.186 21.0937 31.094 21.0937 31.0021C21.0937 26.8744 21.0937 22.7559 21.0937 18.6282C21.0937 18.4352 21.1029 18.0859 21.0109 17.9204C20.9374 17.7917 20.6892 17.7641 20.5697 17.7549C19.7975 17.7457 19.0069 17.7549 18.2163 17.7549C18.1519 17.7549 18.1059 17.7089 18.0967 17.6446C18.0967 16.9827 18.0876 16.3208 18.0692 15.6773C18.0692 15.6037 18.0692 15.521 18.0508 15.4383C18.0508 15.3923 18.0784 15.3555 18.1243 15.3555C18.5656 15.3555 19.0161 15.3371 19.4573 15.3463C20.2939 15.3555 21.1029 15.3555 21.8935 15.3463C22.1785 15.3463 22.5186 15.3279 22.7852 15.4107L22.8036 15.4199Z" fill="#152186"/>
<path d="M28.8597 21.309L27.8576 21.3108C27.7815 21.3109 27.7198 21.3728 27.72 21.4489L27.724 23.7472C27.7241 23.8233 27.786 23.885 27.8621 23.8848L28.8642 23.8831C28.9403 23.883 29.0019 23.8211 29.0018 23.745L28.9978 21.4467C28.9977 21.3705 28.9358 21.3089 28.8597 21.309Z" fill="#3C8642"/>
<path d="M28.8161 24.6221H27.8876C27.7911 24.6221 27.7129 24.7003 27.7129 24.7967V27.0123C27.7129 27.1087 27.7911 27.1869 27.8876 27.1869H28.8161C28.9125 27.1869 28.9907 27.1087 28.9907 27.0123V24.7967C28.9907 24.7003 28.9125 24.6221 28.8161 24.6221Z" fill="#3C8642"/>
</g>
<circle cx="20" cy="20" r="19.5" stroke="black" stroke-opacity="0.05"/>
<defs>
<clipPath id="clip0_18553_55694">
<rect width="18" height="19.3238" fill="white" transform="translate(11 12)"/>
</clipPath>
</defs>
</svg>
