<svg width="40" height="40" viewBox="0 0 40 40" fill="none" xmlns="http://www.w3.org/2000/svg">
<circle cx="20" cy="20" r="20" fill="black"/>
<path d="M19.7559 12.7106C19.6496 13.0511 19.6153 13.4448 19.4903 13.7916C18.9029 15.4195 18.3717 17.0411 17.8968 18.6596C17.8812 18.7096 17.8406 18.7471 17.7906 18.7533L14.7192 19.2938C14.6911 19.297 14.663 19.2813 14.6567 19.2532C14.6567 19.2438 14.6567 19.2376 14.6567 19.2282L17.7218 9.74234C17.775 9.58299 17.9218 9.47363 18.0905 9.47363L21.9711 9.48301C22.0711 9.48301 22.1617 9.54862 22.193 9.64235C23.2084 12.7231 24.2457 15.935 25.3049 19.2782C25.3143 19.3063 25.2987 19.3376 25.2706 19.3438C25.2612 19.3438 25.2549 19.3469 25.2456 19.3438L22.2679 18.7908C22.1773 18.7752 22.118 18.7221 22.0898 18.6377L20.1496 12.7043C20.0152 12.2982 19.884 12.2982 19.7559 12.7075V12.7106Z" fill="white"/>
<path d="M26.4735 22.8402L28.5325 29.1829C28.545 29.2235 28.5325 29.2422 28.4887 29.2422L25.6267 29.2641C25.5799 29.2641 25.5486 29.2422 25.533 29.1953L23.299 22.334C23.2646 22.2309 23.1928 22.1747 23.0834 22.1653C20.9057 22.0309 18.8404 22.0309 16.8876 22.1653C16.7782 22.1747 16.7064 22.2309 16.672 22.334L14.4255 29.1797C14.413 29.2141 14.388 29.2328 14.3505 29.2328C12.932 29.2828 11.9666 29.2766 11.4573 29.2172C11.4354 29.2172 11.4292 29.2047 11.4354 29.1829C12.1665 26.9614 12.8477 24.8398 13.4788 22.8183C13.4975 22.7652 13.4663 22.7058 13.4132 22.6871C13.3944 22.6808 13.3726 22.6808 13.3538 22.6871L9.34826 23.7369C8.92645 23.8463 8.88896 23.765 9.22953 23.4994C11.048 22.0841 13.0289 21.103 15.1754 20.5562C20.587 19.1783 26.4172 20.0594 30.8477 23.6088C31.0758 23.7931 31.0477 23.8494 30.7633 23.7744L26.6172 22.6871C26.4766 22.6527 26.4266 22.7027 26.4735 22.8402Z" fill="white"/>
<circle cx="20" cy="20" r="19.5" stroke="black" stroke-opacity="0.05"/>
</svg>
