<svg width="40" height="40" viewBox="0 0 40 40" fill="none" xmlns="http://www.w3.org/2000/svg">
<circle cx="20" cy="20" r="20" fill="#F6F8FA"/>
<g clip-path="url(#clip0_14382_20617)">
<path d="M30.1115 16.5114C27.4428 15.4603 24.7473 15.5712 24.0637 16.8029C23.3801 18.0346 24.3778 20.9847 26.2767 23.4256C28.1756 25.8665 30.8547 25.7864 32.3348 23.1217C33.815 20.4571 32.7741 17.5604 30.1115 16.5114Z" fill="#F2921A"/>
<path d="M16.5398 17.3574C18.9068 18.9731 21.5592 19.4637 22.4932 18.4147C23.4273 17.3657 23.1091 14.2678 21.8076 11.4677C20.506 8.66752 17.868 8.15224 15.8336 10.4207C13.7992 12.6891 14.1708 15.7439 16.5337 17.3574" fill="#1768B3"/>
<path d="M25.0265 25.8686C24.6467 23.0253 23.2385 20.7261 21.8281 20.7364C20.4178 20.7466 18.3279 23.0438 17.1188 25.8891C15.9096 28.7345 17.285 31.0378 20.3315 31.0337C23.378 31.0296 25.4043 28.7139 25.0265 25.8768" fill="#E02022"/>
<path d="M14.2159 18.478C13.7335 18.478 13.4091 18.7757 13.4091 19.2191V19.6646H14.5567C14.5567 19.6646 14.5937 23.4502 14.5567 23.8464C14.5198 24.2426 14.413 24.8892 13.7027 25.2259C13.0868 25.5195 13.0868 25.7946 13.0396 26.0471C12.9903 26.3653 13.0499 26.4063 13.2819 26.3489C14.1933 26.1251 15.1623 25.7597 15.653 24.8584C15.9198 24.3699 16.0266 23.832 16.0266 23.0355V19.6646C16.5131 19.6646 16.8621 19.3485 16.8621 18.9235V18.478H14.2159Z" fill="#040000"/>
<path d="M12.9411 23.5819C12.6193 23.9928 12.2083 24.3251 11.7392 24.5538C11.2701 24.7825 10.7552 24.9015 10.2333 24.9019C8.38571 24.9019 7 23.4895 7 21.6173C7 19.7451 8.38981 18.2896 10.2333 18.2896C10.7513 18.2938 11.2617 18.4147 11.7265 18.6432C12.1914 18.8717 12.5988 19.202 12.9185 19.6096C12.9185 19.6096 12.4258 20.1351 11.9557 20.1351C11.737 20.1189 11.5279 20.039 11.3542 19.9052C11.0267 19.6733 10.6346 19.5505 10.2333 19.5541C9.18634 19.5541 8.33233 20.48 8.33233 21.6173C8.33233 22.7546 9.18634 23.6374 10.2333 23.6374C10.6507 23.6535 11.0622 23.5355 11.4076 23.3007C11.5835 23.1699 11.7942 23.0941 12.0132 23.0831C12.5449 23.081 12.9411 23.5819 12.9411 23.5819Z" fill="#040000"/>
</g>
<circle cx="20" cy="20" r="19.5" stroke="black" stroke-opacity="0.05"/>
<defs>
<clipPath id="clip0_14382_20617">
<rect width="26" height="22.0276" fill="white" transform="translate(7 9)"/>
</clipPath>
</defs>
</svg>
