<svg width="40" height="40" viewBox="0 0 40 40" fill="none" xmlns="http://www.w3.org/2000/svg">
<circle cx="20" cy="20" r="20" fill="#FFCD00"/>
<g clip-path="url(#clip0_14382_18555)">
<path d="M6.97667 24.4147H6V16.2124L6.97667 16V24.4147ZM9.58689 18.4621L10.3512 19.014L8.47317 21.3698L10.6488 23.9801L9.89558 24.5641L7.32734 21.4229L9.58813 18.4633L9.58689 18.4621Z" fill="#181600"/>
<path d="M11.5119 22.8552C11.5119 22.2675 11.7082 21.8205 12.1008 21.5131C12.4935 21.2056 13.0639 21.0513 13.8146 21.0513H14.9395V20.6796C14.9395 19.7807 14.5431 19.3325 13.7504 19.3325C13.4961 19.3325 13.2294 19.3683 12.9503 19.4387C12.67 19.5091 12.4144 19.598 12.1811 19.7042L11.8946 19.014C12.1848 18.851 12.4972 18.7263 12.8343 18.6374C13.1701 18.5497 13.4973 18.5052 13.8146 18.5052C15.1876 18.5052 15.8729 19.2374 15.8729 20.7018V24.4159H15.1518L15.0345 23.7788C14.7444 24.0122 14.4345 24.1924 14.106 24.3196C13.7776 24.4468 13.464 24.511 13.1664 24.511C12.6503 24.511 12.2453 24.364 11.9514 24.0702C11.6576 23.7763 11.5106 23.3713 11.5106 22.8552H11.5119ZM13.3442 23.7257C13.4788 23.7257 13.6171 23.7084 13.7615 23.6726C13.906 23.6368 14.0505 23.5911 14.1949 23.5343C14.3394 23.4775 14.4752 23.4084 14.6024 23.3269C14.7296 23.2454 14.8419 23.159 14.9407 23.0663V21.7081H13.9258C13.4121 21.7081 13.0367 21.797 12.8009 21.9736C12.5651 22.1502 12.4478 22.4305 12.4478 22.812C12.4478 23.4207 12.7466 23.7245 13.3454 23.7245L13.3442 23.7257Z" fill="#181600"/>
<path d="M18.5868 24.4147H17.6102V16.2124L18.5868 16V24.4147ZM21.1971 18.4621L21.9614 19.014L20.0833 21.3698L22.2577 23.9801L21.5045 24.5641L18.9363 21.4229L21.1958 18.4633L21.1971 18.4621Z" fill="#181600"/>
<path d="M23.122 22.8552C23.122 22.2675 23.3183 21.8205 23.711 21.5131C24.1036 21.2056 24.6741 21.0513 25.4248 21.0513H26.5496V20.6796C26.5496 19.7807 26.1533 19.3325 25.3618 19.3325C25.1075 19.3325 24.8408 19.3683 24.5605 19.4387C24.2802 19.5091 24.0246 19.598 23.7912 19.7042L23.5048 19.014C23.7949 18.851 24.1073 18.7263 24.4432 18.6374C24.779 18.5497 25.1062 18.5052 25.4248 18.5052C26.7966 18.5052 27.4831 19.2374 27.4831 20.7018V24.4159H26.7608L26.6435 23.7788C26.3533 24.0122 26.0446 24.1924 25.7149 24.3196C25.3865 24.4468 25.0729 24.511 24.7766 24.511C24.2604 24.511 23.8554 24.364 23.5616 24.0702C23.2677 23.7763 23.122 23.3713 23.122 22.8552ZM24.9543 23.7257C25.0877 23.7257 25.2272 23.7084 25.3717 23.6726C25.5162 23.6368 25.6606 23.5911 25.8051 23.5343C25.9495 23.4775 26.0854 23.4084 26.2125 23.3269C26.3385 23.2454 26.4521 23.159 26.5509 23.0663V21.7081H25.5371C25.0223 21.7081 24.6469 21.797 24.4123 21.9736C24.1765 22.1502 24.0592 22.4305 24.0592 22.812C24.0592 23.4207 24.358 23.7245 24.9568 23.7245L24.9543 23.7257Z" fill="#181600"/>
<path d="M31.4108 18.5151C32.217 18.5151 32.8505 18.7769 33.3098 19.3004C33.7703 19.824 34 20.5734 34 21.5501C34 22.5268 33.7716 23.2516 33.316 23.7677C32.8603 24.2838 32.2245 24.5419 31.4108 24.5419C30.5971 24.5419 29.9711 24.2838 29.5117 23.7677C29.0512 23.2516 28.8215 22.512 28.8215 21.5501C28.8215 20.5883 29.0524 19.824 29.5167 19.3004C29.9797 18.7769 30.6119 18.5151 31.4108 18.5151ZM31.4108 19.3004C30.9021 19.3004 30.5106 19.4918 30.239 19.8733C29.9661 20.2549 29.8303 20.8142 29.8303 21.5501C29.8303 22.286 29.9661 22.8293 30.239 23.1997C30.5106 23.5714 30.9021 23.7566 31.4108 23.7566C31.9195 23.7566 32.3208 23.5714 32.5936 23.1997C32.8653 22.8281 33.0023 22.2786 33.0023 21.5501C33.0023 20.8216 32.8665 20.2561 32.5936 19.8733C32.3208 19.4918 31.9269 19.3004 31.4108 19.3004Z" fill="#181600"/>
</g>
<circle cx="20" cy="20" r="19.5" stroke="black" stroke-opacity="0.05"/>
<defs>
<clipPath id="clip0_14382_18555">
<rect width="28" height="8.56286" fill="white" transform="translate(6 16)"/>
</clipPath>
</defs>
</svg>
