<svg width="40" height="40" viewBox="0 0 40 40" fill="none" xmlns="http://www.w3.org/2000/svg">
<circle cx="20" cy="20" r="20" fill="#25559A"/>
<path d="M20.0049 9.2998C13.9291 9.2998 9.00488 14.0807 9.00488 19.9775C9.00488 25.875 13.9291 30.656 20.0049 30.656C26.0798 30.656 31.0049 25.875 31.0049 19.9775C31.0049 14.0807 26.0798 9.2998 20.0049 9.2998ZM25.634 23.8089V18.1584L21.3045 13.3213V26.7668C21.0075 26.8578 20.705 26.9331 20.3969 26.9917V14.3421L19.5115 15.3518L19.4767 27.1216C19.2153 27.1437 18.95 27.1564 18.6824 27.1564C18.657 27.1564 18.6301 27.1564 18.6063 27.154V16.329L17.7217 17.338L17.6813 27.0994C17.4049 27.0693 17.1301 27.0262 16.8577 26.9703V18.2748L15.9723 19.2838L15.9367 26.728C12.4601 25.6097 9.95204 22.4301 9.95204 18.6819C9.95204 14.0015 13.861 10.2074 18.6816 10.2074C23.5037 10.2074 27.4119 14.0007 27.4119 18.6811C27.4119 20.6087 26.7498 22.385 25.634 23.8089Z" fill="white"/>
<circle cx="20" cy="20" r="19.5" stroke="black" stroke-opacity="0.05"/>
</svg>
