<svg width="40" height="40" viewBox="0 0 40 40" fill="none" xmlns="http://www.w3.org/2000/svg">
<circle cx="20" cy="20" r="20" fill="#80A2BE"/>
<path d="M9.06005 23.7446H8.35491C6.81642 23.5882 5.49011 22.7779 4.68497 21.4567C3.47469 19.4676 3.90483 16.8265 5.68627 15.347C6.85509 14.3726 8.22649 14.0248 9.80045 14.3034C9.87289 14.3162 9.87737 14.3406 9.81327 14.3771C8.79658 14.9575 8.20768 15.8244 8.04657 16.9778C8.01644 17.1951 8.02862 17.4201 8.00362 17.6381C7.95326 18.1705 7.70453 18.6645 7.30681 19.0221C6.87988 19.4067 6.27346 19.6041 5.72473 19.4407C5.01959 19.2304 4.6183 18.6163 4.62856 17.8938C4.62856 17.7817 4.63368 17.6708 4.63817 17.5618C4.63817 17.5272 4.63304 17.5252 4.6183 17.5567C4.61673 17.5621 4.61673 17.5679 4.6183 17.5733C4.61895 17.5849 4.61698 17.5966 4.61253 17.6073C4.58166 17.6788 4.55699 17.7528 4.53881 17.8285C4.16274 19.4221 4.4918 20.8059 5.52601 21.9798C5.97828 22.4869 6.54083 22.8835 7.17039 23.1391C7.79994 23.3947 8.47974 23.5025 9.15749 23.4542C10.1126 23.391 11.0227 23.0255 11.7563 22.4106C11.8466 22.3369 11.83 22.2253 11.83 22.1228C11.83 20.9262 11.83 19.6964 11.83 18.4336C11.8301 18.4215 11.835 18.41 11.8434 18.4014C11.8519 18.3928 11.8634 18.3878 11.8755 18.3874H12.6877C12.6935 18.3874 12.6992 18.3884 12.7046 18.3906C12.7099 18.3927 12.7148 18.3959 12.7189 18.4C12.723 18.404 12.7263 18.4089 12.7285 18.4142C12.7308 18.4195 12.7319 18.4253 12.7319 18.431V21.5554C12.7319 21.5661 12.7361 21.5762 12.7435 21.5838C12.7509 21.5913 12.7611 21.5957 12.7717 21.5958H14.6736C14.6808 21.5948 14.6882 21.5954 14.6951 21.5977C14.702 21.5999 14.7083 21.6038 14.7135 21.6088C14.7187 21.6139 14.7227 21.6201 14.7251 21.627C14.7275 21.6339 14.7283 21.6412 14.7275 21.6484L14.7332 22.3305C14.7332 22.3475 14.7265 22.3638 14.7145 22.3758C14.7024 22.3878 14.6861 22.3946 14.6691 22.3946C13.8571 22.3946 13.0129 22.3946 12.1364 22.3946C12.106 22.3936 12.0758 22.3994 12.048 22.4116C12.0201 22.4238 11.9954 22.4421 11.9755 22.4651C11.1817 23.2172 10.151 23.6696 9.06005 23.7446ZM7.20489 15.6316C6.9145 16.1445 6.60808 16.6496 6.37154 17.199C6.09786 17.8284 5.9084 18.4912 5.80807 19.1701C5.80621 19.1823 5.80921 19.1947 5.8164 19.2046C5.8236 19.2146 5.83442 19.2213 5.84653 19.2234C6.69142 19.3753 7.44912 18.7035 7.64464 17.9176C7.69061 17.7128 7.71383 17.5037 7.71387 17.2938C7.7147 16.7912 7.81776 16.294 8.01679 15.8325C8.21581 15.371 8.50664 14.9548 8.87158 14.6092C8.89402 14.5874 8.88953 14.5765 8.85876 14.5771C7.00873 14.588 5.46896 15.6162 4.72215 17.2964C4.71929 17.3013 4.71756 17.3068 4.7171 17.3124C4.71664 17.3181 4.71745 17.3237 4.71948 17.329C4.72151 17.3343 4.72471 17.3391 4.72883 17.343C4.73296 17.3469 4.7379 17.3498 4.7433 17.3515C4.76579 17.3614 4.78434 17.3784 4.79596 17.4001C4.80758 17.4217 4.81161 17.4466 4.80741 17.4708C4.74074 18.1797 4.94202 18.9233 5.67986 19.181C5.68356 19.1824 5.68748 19.1829 5.6914 19.1827C5.69532 19.1824 5.69915 19.1814 5.70268 19.1797C5.7062 19.178 5.70934 19.1756 5.71192 19.1726C5.71449 19.1696 5.71645 19.1662 5.71768 19.1625C5.71899 19.1576 5.71899 19.1525 5.71768 19.1477C5.6705 18.8442 5.67071 18.5351 5.71832 18.2317C5.87815 17.1958 6.36513 16.3218 7.17925 15.6098C7.22989 15.5656 7.23822 15.5733 7.20489 15.6316Z" fill="white"/>
<path d="M8.78448 21.2851C9.34026 21.8621 10.4909 21.7762 10.8012 20.9556C10.8044 20.945 10.8111 20.9358 10.8202 20.9295C10.8292 20.9231 10.8401 20.9199 10.8512 20.9204H11.6602C11.6884 20.9204 11.7012 20.9345 11.6993 20.9627C11.6917 21.0673 11.6668 21.17 11.6256 21.2665C11.305 22.0262 10.5198 22.4922 9.70245 22.4845C8.79431 22.4777 8.14302 22.098 7.74857 21.3454C7.49728 20.8601 7.46395 20.155 7.65882 19.6421C7.94002 18.9032 8.48405 18.4601 9.2909 18.3126C9.83771 18.2133 10.4794 18.3261 10.9525 18.6588C11.3166 18.9152 11.5576 19.2808 11.6756 19.7556C11.6766 19.7597 11.6768 19.764 11.6762 19.7682C11.6756 19.7724 11.6741 19.7765 11.6719 19.7801C11.6697 19.7838 11.6668 19.7869 11.6633 19.7894C11.6599 19.7919 11.656 19.7937 11.6518 19.7947H10.8326C10.8157 19.7948 10.7992 19.7898 10.7852 19.7803C10.7712 19.7708 10.7605 19.7573 10.7544 19.7415C10.5621 19.2441 10.0191 19.0543 9.51398 19.1235C9.31768 19.1434 9.12959 19.2126 8.96719 19.3247C8.8048 19.4368 8.67337 19.5881 8.58512 19.7646C8.32935 20.246 8.40114 20.8883 8.78448 21.2851Z" fill="white"/>
<path d="M18.8597 20.4283C18.8353 21.5989 17.8411 22.5271 16.6391 22.5014C15.4372 22.4764 14.4827 21.5072 14.507 20.3373C14.5314 19.1674 15.5257 18.2385 16.7276 18.2642C17.9263 18.2892 18.8808 19.2572 18.8597 20.4283ZM16.4507 19.3533C17.0481 19.252 17.5885 19.8841 17.2488 20.4347C17.0968 20.6809 16.7552 20.7886 16.5 20.6271C16.0731 20.3559 16.2359 19.7828 16.7564 19.7995C16.7578 19.7998 16.7592 19.7998 16.7605 19.7994C16.7618 19.7991 16.763 19.7985 16.7641 19.7976C16.7651 19.7968 16.766 19.7957 16.7665 19.7944C16.7671 19.7932 16.7674 19.7919 16.7673 19.7905C16.7676 19.7891 16.7676 19.7877 16.7673 19.7864C16.767 19.785 16.7664 19.7838 16.7655 19.7827C16.7647 19.7816 16.7636 19.7807 16.7623 19.78C16.7611 19.7794 16.7598 19.779 16.7584 19.779C16.5067 19.7401 16.3265 19.823 16.218 20.0277C16.0141 20.4168 16.3462 20.8181 16.7372 20.8572C17.2263 20.9065 17.6007 20.4476 17.5706 19.9802C17.5616 19.8528 17.5251 19.7288 17.4635 19.6168C17.402 19.5048 17.3169 19.4075 17.2141 19.3315C16.6936 18.9142 16.0154 19.0604 15.6308 19.5758C15.1071 20.277 15.4289 21.2533 16.2013 21.62C17.6629 22.3123 19.0116 20.7174 18.4962 19.3315C18.4956 19.3294 18.4945 19.3275 18.4931 19.3258C18.4916 19.3241 18.4899 19.3227 18.4879 19.3218C18.4859 19.3208 18.4837 19.3203 18.4815 19.3202C18.4793 19.3201 18.4771 19.3205 18.4751 19.3213L18.459 19.3257C18.459 19.3257 18.459 19.3257 18.459 19.3309C18.6078 19.8997 18.5163 20.4142 18.1847 20.8745C17.7308 21.504 16.8821 21.7803 16.2122 21.329C15.9349 21.1444 15.7609 20.9239 15.6904 20.6674C15.534 20.0905 15.8257 19.4591 16.4507 19.3533Z" fill="white"/>
<path d="M19.821 20.5919C19.821 21.2329 20.1627 21.7195 20.8704 21.6669C21.3897 21.6285 21.68 21.1631 21.6832 20.6733C21.6884 19.9041 21.6884 19.1521 21.6832 18.4175C21.6832 18.4135 21.684 18.4096 21.6855 18.406C21.6871 18.4023 21.6893 18.399 21.6921 18.3962C21.6949 18.3934 21.6982 18.3912 21.7019 18.3897C21.7055 18.3882 21.7094 18.3874 21.7134 18.3874L22.5313 18.3835C22.5393 18.3822 22.5474 18.3828 22.555 18.3853C22.5627 18.3877 22.5697 18.3919 22.5754 18.3975C22.5811 18.4031 22.5855 18.41 22.5881 18.4176C22.5906 18.4252 22.5914 18.4333 22.5903 18.4412C22.5903 19.1549 22.5903 19.8932 22.5903 20.656C22.5977 21.1218 22.4334 21.574 22.1288 21.9265C21.6345 22.5035 20.7332 22.6092 20.0326 22.3637C19.3319 22.1182 18.9294 21.4227 18.9268 20.6836C18.9247 19.9254 18.9236 19.1684 18.9236 18.4124C18.9236 18.4037 18.927 18.3954 18.9332 18.3893C18.9393 18.3831 18.9476 18.3797 18.9563 18.3797H19.7896C19.7942 18.379 19.7989 18.3795 19.8033 18.381C19.8078 18.3824 19.8118 18.3849 19.8151 18.3882C19.8184 18.3915 19.8208 18.3955 19.8223 18.3999C19.8238 18.4043 19.8242 18.409 19.8236 18.4137C19.8245 19.1329 19.8236 19.859 19.821 20.5919Z" fill="white"/>
<path d="M22.8489 18.4285C22.8489 18.4168 22.8535 18.4055 22.8618 18.3972C22.8701 18.3889 22.8814 18.3843 22.8931 18.3843H24.5649C25.6585 18.3843 26.5451 19.2394 26.5451 20.2946V20.4753C26.5451 21.5305 25.6585 22.3856 24.5649 22.3856H22.8931C22.8814 22.3856 22.8701 22.381 22.8618 22.3727C22.8535 22.3644 22.8489 22.3531 22.8489 22.3414V18.4285ZM23.754 19.1978L23.7412 21.5696C23.7412 21.575 23.7434 21.5803 23.7472 21.5841C23.7511 21.5879 23.7563 21.5901 23.7617 21.5901L24.5066 21.594C24.8027 21.5996 25.0889 21.4875 25.3022 21.2821C25.5156 21.0768 25.6387 20.7951 25.6444 20.4991V20.2914C25.6437 20.1445 25.614 19.9992 25.557 19.8639C25.5 19.7285 25.4169 19.6057 25.3124 19.5025C25.2079 19.3993 25.0841 19.3178 24.948 19.2625C24.8119 19.2072 24.6663 19.1793 24.5194 19.1804L23.7745 19.176C23.7691 19.176 23.7639 19.1781 23.76 19.182C23.7562 19.1858 23.754 19.191 23.754 19.1965V19.1978Z" fill="white"/>
<path d="M31.3951 22.276V18.4067C31.3951 18.4008 31.3975 18.3951 31.4017 18.3908C31.4059 18.3866 31.4116 18.3843 31.4176 18.3843H32.274C32.2799 18.3843 32.2856 18.3866 32.2898 18.3908C32.2941 18.3951 32.2964 18.4008 32.2964 18.4067V22.3696C32.2964 22.3756 32.2941 22.3813 32.2898 22.3855C32.2856 22.3897 32.2799 22.392 32.274 22.392L30.4041 22.3863C30.3995 22.3863 30.395 22.3849 30.3912 22.3822C30.3874 22.3796 30.3845 22.3759 30.3829 22.3715L30.1188 21.6292C30.1172 21.6249 30.1144 21.6211 30.1106 21.6185C30.1068 21.6159 30.1023 21.6144 30.0977 21.6145H28.5816C28.577 21.6144 28.5725 21.6159 28.5687 21.6185C28.5649 21.6211 28.562 21.6249 28.5604 21.6292L28.2919 22.3786C28.2903 22.3829 28.2874 22.3867 28.2836 22.3893C28.2798 22.3919 28.2753 22.3933 28.2707 22.3933L27.3886 22.3895C27.3827 22.3895 27.377 22.3871 27.3728 22.3829C27.3686 22.3787 27.3662 22.373 27.3662 22.367C27.3659 22.3645 27.3659 22.3619 27.3662 22.3594L28.8989 18.4041C28.9007 18.4 28.9036 18.3964 28.9074 18.3939C28.9111 18.3914 28.9156 18.3901 28.9201 18.39L29.8239 18.3843C29.8286 18.3843 29.8331 18.3857 29.8368 18.3883C29.8406 18.3909 29.8435 18.3947 29.8451 18.399L31.3502 22.2863C31.352 22.2913 31.3556 22.2956 31.3602 22.2983C31.3649 22.301 31.3704 22.3019 31.3756 22.3009C31.3809 22.2999 31.3857 22.297 31.389 22.2928C31.3923 22.2886 31.3941 22.2833 31.3938 22.2779L31.3951 22.276ZM28.8521 20.8016C28.8511 20.8044 28.8506 20.8074 28.8508 20.8103C28.8509 20.8133 28.8516 20.8162 28.8529 20.8189C28.8541 20.8215 28.8559 20.8239 28.8581 20.8259C28.8602 20.8279 28.8628 20.8295 28.8656 20.8305H28.8733H29.8021C29.808 20.8301 29.8136 20.8276 29.8176 20.8233C29.8217 20.819 29.8239 20.8133 29.8239 20.8074C29.8243 20.8053 29.8243 20.8031 29.8239 20.801L29.3566 19.5074C29.3557 19.5045 29.3542 19.5019 29.3522 19.4997C29.3502 19.4975 29.3478 19.4956 29.3451 19.4944C29.3424 19.4931 29.3395 19.4924 29.3365 19.4923C29.3335 19.4923 29.3305 19.4928 29.3278 19.4939C29.3247 19.495 29.3218 19.4968 29.3195 19.4991C29.3172 19.5014 29.3154 19.5043 29.3143 19.5074L28.8521 20.8016Z" fill="white"/>
<path d="M33.4933 21.1805L33.4965 22.3543C33.4966 22.3594 33.4957 22.3645 33.4938 22.3692C33.4919 22.3739 33.4891 22.3783 33.4855 22.3819C33.4819 22.3855 33.4776 22.3884 33.4729 22.3904C33.4682 22.3924 33.4632 22.3934 33.4581 22.3934H32.6433C32.6331 22.3934 32.6233 22.3893 32.6161 22.3821C32.6089 22.3749 32.6048 22.3651 32.6048 22.3549V18.4298C32.6041 18.4248 32.6046 18.4196 32.6062 18.4147C32.6078 18.4098 32.6105 18.4054 32.6141 18.4017C32.6177 18.3981 32.622 18.3953 32.6269 18.3936C32.6317 18.3919 32.6369 18.3914 32.642 18.392C33.3561 18.3805 33.9574 18.3837 34.4459 18.4016C34.9773 18.4215 35.5357 18.7119 35.728 19.235C35.9677 19.8856 35.7709 20.5914 35.135 20.9376C35.1304 20.94 35.1263 20.9433 35.1229 20.9474C35.1195 20.9514 35.117 20.956 35.1155 20.961C35.1139 20.966 35.1134 20.9713 35.1139 20.9765C35.1144 20.9817 35.1159 20.9868 35.1183 20.9914V20.9953L35.9959 22.353C35.9978 22.356 35.9991 22.3593 35.9997 22.3628C36.0003 22.3663 36.0002 22.3699 35.9995 22.3733C35.9987 22.3768 35.9972 22.38 35.9952 22.3829C35.9932 22.3858 35.9906 22.3883 35.9876 22.3902C35.9834 22.3928 35.9785 22.3941 35.9735 22.394L35.0119 22.3902C34.9991 22.3901 34.9865 22.3867 34.9753 22.3805C34.9641 22.3742 34.9546 22.3652 34.9478 22.3543L34.2215 21.1639C34.2149 21.1527 34.2056 21.1434 34.1943 21.1369C34.1831 21.1304 34.1704 21.1269 34.1574 21.1267L33.5388 21.1331C33.5326 21.1327 33.5263 21.1337 33.5205 21.1359C33.5146 21.1382 33.5094 21.1417 33.505 21.1462C33.5007 21.1507 33.4974 21.1562 33.4954 21.1621C33.4933 21.168 33.4926 21.1743 33.4933 21.1805ZM33.4933 19.2209L33.4984 20.3004C33.4984 20.3094 33.502 20.318 33.5084 20.3244C33.5148 20.3308 33.5234 20.3344 33.5324 20.3344L34.2863 20.3299C34.6395 20.3299 34.9273 20.0863 34.9235 19.7901V19.7138C34.9235 19.4177 34.6344 19.1786 34.2824 19.1805L33.5286 19.185C33.5241 19.1849 33.5196 19.1857 33.5154 19.1874C33.5112 19.1891 33.5074 19.1915 33.5041 19.1947C33.5009 19.1979 33.4983 19.2016 33.4966 19.2058C33.4948 19.21 33.494 19.2144 33.494 19.219L33.4933 19.2209Z" fill="white"/>
<circle cx="20" cy="20" r="19.5" stroke="black" stroke-opacity="0.05"/>
</svg>
