<svg width="40" height="40" viewBox="0 0 40 40" fill="none" xmlns="http://www.w3.org/2000/svg">
<circle cx="20" cy="20" r="20" fill="#F6F8FA"/>
<path d="M14.2019 18.4203C13.6347 17.727 13.0743 17.0199 12.5208 16.2991C12.2744 15.9783 12.0315 15.7978 11.792 15.7577C11.3622 15.6843 11.0826 15.5531 10.9531 15.364C15.0946 12.2012 18.2334 9.81643 20.3695 8.2098C21.3871 7.44487 22.5972 7.62364 23.3346 8.63094C23.6475 9.05896 23.9466 9.49728 24.2852 9.90295C24.7058 10.4095 25.1344 10.9521 25.571 11.5308C26.2603 12.447 26.7467 12.918 26.6195 13.86C26.576 14.19 26.4316 14.4914 26.1864 14.7641C25.4931 15.5365 24.6794 15.8006 23.7455 15.5565C23.4532 15.4809 23.2126 15.3239 23.0235 15.0856C22.4746 14.3957 21.9629 13.7104 21.4885 13.0297C21.4679 13.0011 21.4432 12.9976 21.4146 13.0194L14.2019 18.4203Z" fill="#79D6D4"/>
<path d="M10.9528 15.364C11.0823 15.5531 11.3619 15.6843 11.7917 15.7577C12.0312 15.7978 12.2741 15.9782 12.5205 16.2991C13.074 17.0199 13.6344 17.727 14.2016 18.4203C14.3781 18.7297 14.6348 18.9108 14.9717 18.9635C16.3835 19.1824 17.6733 19.3846 18.841 19.5703C19.5034 19.6745 19.9664 19.8264 20.2299 20.0258C21.012 20.6171 21.1599 21.7327 20.8934 22.6472C20.7078 23.278 20.0632 23.7645 19.3756 23.6527C17.314 23.317 15.2994 23.0041 13.3318 22.7142C12.6775 22.6168 12.1091 22.2564 11.6266 21.633C10.9952 20.8148 10.3363 19.9662 9.64986 19.0872C9.02932 18.2879 8.75429 17.3992 9.42296 16.5518C9.55016 16.3902 9.79826 16.1845 10.1673 15.9347C10.4366 15.7525 10.6984 15.5623 10.9528 15.364Z" fill="#4AD2CB"/>
<path d="M28.9796 24.22C28.8936 24.2235 28.8524 24.1433 28.8558 23.9794C28.857 23.9141 28.8255 23.874 28.7613 23.8591C28.4691 23.7949 28.1929 23.6923 27.9328 23.5514C27.7265 23.4414 27.5214 23.2517 27.3174 22.9824C26.8246 22.3349 26.3324 21.6898 25.8408 21.0469C25.7113 20.7558 25.5119 20.5902 25.2426 20.5501C22.7696 20.1823 21.222 19.9405 20.5998 19.8247C18.8911 19.505 18.4305 16.7341 19.9913 15.9399C20.1654 15.8505 20.3465 15.8202 20.5344 15.8488C22.7599 16.1915 24.8341 16.5117 26.757 16.8097C27.4841 16.9214 28.0204 17.3769 28.5052 17.982C29.2076 18.8598 29.9095 19.7772 30.6109 20.734C31.1174 21.425 31.1707 22.096 30.7707 22.7469C30.4149 23.3262 29.5726 23.7645 28.9796 24.22Z" fill="#12A8B2"/>
<path d="M25.8402 21.0469C26.3318 21.6898 26.824 22.3349 27.3167 22.9824C27.5207 23.2517 27.7258 23.4414 27.9321 23.5514C28.1922 23.6923 28.4684 23.7949 28.7606 23.8591C28.8248 23.874 28.8563 23.9141 28.8552 23.9794C28.8517 24.1433 28.893 24.2235 28.9789 24.22C24.4329 27.6831 21.2712 30.0776 19.4938 31.4035C19.0778 31.7146 18.0877 31.6183 17.6253 31.5702C17.3795 31.5444 17.1303 31.345 16.9807 31.1508C16.056 29.9464 15.0796 28.6847 14.0517 27.3657C13.7044 26.9211 13.5085 26.5492 13.4638 26.2501C13.3538 25.5304 13.6323 24.9093 14.2992 24.3868C14.635 24.1232 14.9455 23.9628 15.2309 23.9055C15.9952 23.7519 16.6031 23.9496 17.0547 24.4985C17.5279 25.0738 18.0276 25.7281 18.5536 26.4615C18.5602 26.4709 18.5687 26.4789 18.5785 26.485C18.5883 26.491 18.5992 26.4951 18.6106 26.4968C18.622 26.4986 18.6336 26.4981 18.6448 26.4952C18.6559 26.4924 18.6664 26.4874 18.6756 26.4804L25.8402 21.0469Z" fill="#20B8BC"/>
<circle cx="20" cy="20" r="19.5" stroke="black" stroke-opacity="0.05"/>
</svg>
