<svg width="40" height="40" viewBox="0 0 40 40" fill="none" xmlns="http://www.w3.org/2000/svg">
<circle cx="20" cy="20" r="20" fill="#F6F8FA"/>
<g clip-path="url(#clip0_18553_55918)">
<path d="M11.7112 15.7012C12.6562 15.7012 13.4224 14.9144 13.4224 13.9438C13.4224 12.9733 12.6562 12.1865 11.7112 12.1865C10.7661 12.1865 10 12.9733 10 13.9438C10 14.9144 10.7661 15.7012 11.7112 15.7012Z" fill="#5E00F2"/>
<path d="M27.2097 18.1158C27.6462 18.1158 28 17.7525 28 17.3043C28 16.856 27.6462 16.4927 27.2097 16.4927C26.7733 16.4927 26.4194 16.856 26.4194 17.3043C26.4194 17.7525 26.7733 18.1158 27.2097 18.1158Z" fill="#F8006E"/>
<path d="M26.354 13.1055C26.243 10.8586 24.0093 9.336 21.9585 10.2951C20.9854 10.7445 20.2669 11.6903 20.1363 12.8037C20.0579 13.4744 19.96 14.3732 19.8555 15.5L19.5746 18.1695L19.2872 20.8122L19.2219 21.3555C19.2219 21.3555 19.2089 21.3891 19.1893 21.3622L16.6486 17.8878C16.4788 17.6128 16.296 17.3915 16.1066 17.2305C15.6102 16.8012 15.0224 16.6604 14.3562 16.8012C13.5333 17.0427 13.0238 17.5726 12.8409 18.3909C12.7626 18.7397 12.7756 19.0817 12.8736 19.4171C12.9324 19.625 13.0891 19.9134 13.3373 20.2958C14.7677 22.4756 16.198 24.6622 17.6349 26.8555C18.1312 27.6269 18.5166 28.2037 18.7778 28.5994C19.1566 29.1628 19.7248 29.5116 20.4759 29.6323C21.005 29.7195 21.547 29.6055 22.1087 29.2836C22.4549 29.0622 22.7357 28.7671 22.9513 28.4049C23.2386 27.9019 23.317 27.3854 23.4542 26.7214C24.3751 22.6098 25.2894 18.4982 26.2038 14.3799C26.3279 13.8232 26.3801 13.4006 26.3671 13.1189L26.354 13.1055Z" fill="url(#paint0_linear_18553_55918)"/>
<path d="M20.9069 31.9931C22.714 31.9931 24.179 31.7468 24.179 31.4431C24.179 31.1393 22.714 30.8931 20.9069 30.8931C19.0998 30.8931 17.6348 31.1393 17.6348 31.4431C17.6348 31.7468 19.0998 31.9931 20.9069 31.9931Z" fill="#9FA0A0"/>
</g>
<circle cx="20" cy="20" r="19.5" stroke="black" stroke-opacity="0.05"/>
<defs>
<linearGradient id="paint0_linear_18553_55918" x1="12.7822" y1="19.8262" x2="26.354" y2="19.8262" gradientUnits="userSpaceOnUse">
<stop offset="0.14" stop-color="#5E00F2"/>
<stop offset="1" stop-color="#F8006E"/>
</linearGradient>
<clipPath id="clip0_18553_55918">
<rect width="18" height="22" fill="white" transform="translate(10 10)"/>
</clipPath>
</defs>
</svg>
