<svg width="40" height="40" viewBox="0 0 40 40" fill="none" xmlns="http://www.w3.org/2000/svg">
<circle cx="20" cy="20" r="20" fill="#F6F8FA"/>
<path d="M21.7177 15.4181C22.0816 15.7011 22.0416 16.224 21.9486 16.623C21.945 16.6386 21.9363 16.6525 21.9237 16.6625C21.9112 16.6725 21.8957 16.6779 21.8796 16.678L20.6478 16.683C20.6395 16.683 20.6313 16.6812 20.6238 16.6776C20.6163 16.6741 20.6097 16.6689 20.6044 16.6625C20.5992 16.6561 20.5954 16.6486 20.5934 16.6406C20.5914 16.6325 20.5912 16.6241 20.5928 16.616C20.6358 16.402 20.7248 16.012 20.4048 15.9511C19.9402 15.8617 19.5079 16.0037 19.108 16.377C18.827 16.639 18.977 16.8879 19.2559 17.0319C20.0159 17.4249 20.6568 17.9938 20.0988 18.9267C19.9615 19.156 19.7592 19.3883 19.4919 19.6236C18.819 20.2166 17.8041 20.2946 16.9602 20.1836C16.3753 20.1066 15.7993 19.8286 15.9103 19.1237C15.937 18.9544 16.022 18.7471 16.1653 18.5018C16.182 18.4744 16.2063 18.4608 16.2383 18.4608H17.4281C17.4855 18.4608 17.5015 18.4864 17.4761 18.5378C17.3552 18.7827 17.1132 19.2367 17.5951 19.3107C17.9764 19.3693 18.347 19.282 18.707 19.0487C18.876 18.9397 19.049 18.6887 18.983 18.4848C18.833 18.0148 18.1871 17.9958 17.8801 17.6489C17.5381 17.2629 17.6161 16.694 17.9181 16.311C18.582 15.4698 19.4529 15.0528 20.5308 15.0602C21.0201 15.0635 21.4157 15.1828 21.7177 15.4181Z" fill="#0A51A1"/>
<path d="M4.18767 19.9916C3.70673 19.7606 3.52675 19.1817 3.79072 18.7108C3.81738 18.6628 3.91504 18.5158 4.08369 18.2698C4.77894 17.2566 5.47053 16.2494 6.15845 15.2481C6.1702 15.2312 6.18579 15.2173 6.2039 15.2078C6.22201 15.1982 6.24209 15.1932 6.26244 15.1931H7.71228C7.71909 15.1933 7.72575 15.1952 7.73155 15.1988C7.73735 15.2024 7.74208 15.2074 7.74525 15.2135C7.74842 15.2195 7.74991 15.2263 7.74956 15.2331C7.74921 15.2399 7.74704 15.2465 7.74328 15.2521L5.35054 18.8147C5.18923 19.0547 5.24556 19.221 5.51952 19.3137C5.54552 19.323 5.57219 19.329 5.59952 19.3317C5.89415 19.3623 6.11313 19.27 6.25644 19.0547C7.15634 17.6995 8.01125 16.4283 8.82116 15.2411C8.83138 15.2263 8.8451 15.2142 8.86113 15.2058C8.87715 15.1975 8.895 15.1931 8.91315 15.1931L10.365 15.1921C10.3723 15.192 10.3794 15.1939 10.3857 15.1976C10.392 15.2012 10.3972 15.2065 10.4006 15.2129C10.4041 15.2193 10.4058 15.2265 10.4055 15.2338C10.4052 15.241 10.403 15.2481 10.399 15.2541C9.69239 16.3807 8.98414 17.5062 8.27422 18.6308C8.01925 19.0337 7.75627 19.4737 7.34332 19.7436C6.55541 20.2576 5.07657 20.4176 4.18767 19.9916Z" fill="#008738"/>
<path d="M12.3238 17.7519C12.3038 17.8605 12.3218 17.8672 12.3778 17.7719L13.8536 15.2481C13.8756 15.2115 13.908 15.1931 13.9506 15.1931L15.3355 15.1941C15.3411 15.1941 15.3467 15.1955 15.3516 15.1983C15.3565 15.2011 15.3606 15.2051 15.3634 15.21C15.3662 15.2149 15.3677 15.2204 15.3678 15.2261C15.3678 15.2317 15.3663 15.2372 15.3635 15.2421L12.6008 20.0226C12.5868 20.0466 12.5668 20.0666 12.5427 20.0805C12.5187 20.0943 12.4915 20.1016 12.4638 20.1016L11.005 20.1006C10.9623 20.1006 10.9446 20.0796 10.952 20.0376L11.3669 17.5629C11.3856 17.4516 11.3669 17.4449 11.3109 17.5429L9.89808 20.0126C9.8826 20.0399 9.86015 20.0625 9.83308 20.0781C9.80601 20.0938 9.77529 20.1019 9.7441 20.1016L8.40625 20.1006C8.39957 20.1006 8.39301 20.0989 8.38722 20.0955C8.38143 20.0922 8.37662 20.0874 8.37328 20.0816C8.36993 20.0759 8.36817 20.0693 8.36816 20.0626C8.36816 20.0559 8.36992 20.0494 8.37325 20.0436L11.1479 15.2461C11.1574 15.2303 11.1708 15.2172 11.1867 15.2081C11.2027 15.199 11.2206 15.1942 11.2389 15.1941L12.7588 15.1921C12.7637 15.1922 12.7686 15.1933 12.773 15.1955C12.7775 15.1976 12.7814 15.2007 12.7845 15.2045C12.7877 15.2083 12.7899 15.2127 12.7912 15.2175C12.7924 15.2223 12.7926 15.2273 12.7918 15.2321L12.3238 17.7519Z" fill="#008738"/>
<path d="M17.7771 15.2461L14.9774 20.0876C14.9744 20.0929 14.97 20.0974 14.9648 20.1006C14.9595 20.1038 14.9535 20.1055 14.9474 20.1056L13.4455 20.0976C13.4395 20.0975 13.4336 20.0958 13.4284 20.0927C13.4232 20.0897 13.4188 20.0853 13.4158 20.0801C13.4128 20.0748 13.4112 20.0689 13.4111 20.0629C13.4111 20.0568 13.4126 20.0509 13.4155 20.0456L16.2102 15.2111C16.2133 15.2059 16.2177 15.2017 16.223 15.1987C16.2282 15.1957 16.2342 15.1941 16.2402 15.1941L17.7461 15.1931C17.7523 15.193 17.7585 15.1945 17.764 15.1975C17.7695 15.2006 17.7741 15.205 17.7773 15.2104C17.7804 15.2159 17.7821 15.222 17.782 15.2283C17.782 15.2346 17.7803 15.2407 17.7771 15.2461Z" fill="#008738"/>
<path d="M23.5125 17.0689L25.7462 17.0659C25.7519 17.066 25.7575 17.0675 25.7624 17.0704C25.7673 17.0733 25.7714 17.0775 25.7741 17.0825C25.7769 17.0875 25.7782 17.0931 25.7781 17.0988C25.7779 17.1045 25.7762 17.1101 25.7732 17.1149L25.1993 18.0528C25.1964 18.0574 25.1924 18.0612 25.1877 18.0638C25.183 18.0664 25.1777 18.0678 25.1723 18.0678H22.9645C22.959 18.0679 22.9536 18.0695 22.9489 18.0723C22.9442 18.0751 22.9403 18.0791 22.9375 18.0838L22.3756 19.0557C22.3728 19.0605 22.3713 19.066 22.3713 19.0715C22.3713 19.0771 22.3727 19.0826 22.3754 19.0874C22.3781 19.0923 22.3821 19.0963 22.3868 19.0992C22.3916 19.102 22.397 19.1036 22.4026 19.1037H24.5493C24.5549 19.1038 24.5603 19.1054 24.5651 19.1083C24.5699 19.1111 24.5738 19.1152 24.5765 19.12C24.5792 19.1249 24.5807 19.1303 24.5806 19.1359C24.5806 19.1414 24.5791 19.1469 24.5763 19.1517L24.0384 20.0846C24.0356 20.0894 24.0317 20.0933 24.027 20.0961C24.0223 20.0989 24.0169 20.1005 24.0114 20.1006L20.3438 20.1066C20.3382 20.1066 20.3326 20.1052 20.3277 20.1024C20.3228 20.0996 20.3187 20.0956 20.3159 20.0907C20.313 20.0859 20.3115 20.0803 20.3115 20.0747C20.3115 20.069 20.313 20.0635 20.3158 20.0586L23.1195 15.2081C23.1222 15.2034 23.1262 15.1994 23.1309 15.1966C23.1356 15.1938 23.141 15.1923 23.1465 15.1921H26.6931C26.6987 15.192 26.7042 15.1934 26.7091 15.196C26.714 15.1987 26.7181 15.2026 26.7211 15.2073C26.724 15.2121 26.7256 15.2175 26.7258 15.2231C26.726 15.2287 26.7247 15.2342 26.7221 15.2391L26.2172 16.175C26.2144 16.1801 26.2104 16.1844 26.2055 16.1874C26.2006 16.1904 26.1949 16.192 26.1892 16.192L24.0614 16.19C24.0561 16.1899 24.0508 16.1912 24.0461 16.1936C24.0414 16.1961 24.0374 16.1996 24.0344 16.204L23.4865 17.0189C23.4832 17.0237 23.4813 17.0293 23.481 17.0351C23.4806 17.0408 23.4819 17.0466 23.4845 17.0517C23.4872 17.0568 23.4912 17.0611 23.4961 17.0642C23.501 17.0672 23.5067 17.0689 23.5125 17.0689Z" fill="#0A51A1"/>
<path d="M28.8323 17.9048C28.8003 17.9888 28.8156 17.9985 28.8783 17.9338L31.477 15.2361C31.5056 15.2068 31.5403 15.1921 31.581 15.1921H33.6597C33.6672 15.1922 33.6745 15.1943 33.6809 15.198C33.6874 15.2018 33.6927 15.2072 33.6964 15.2136C33.7002 15.2201 33.7022 15.2274 33.7022 15.2348C33.7023 15.2423 33.7004 15.2496 33.6967 15.2561L30.949 20.0086C30.9347 20.0336 30.9141 20.0544 30.8892 20.0689C30.8643 20.0835 30.836 20.0913 30.8071 20.0916L29.4432 20.1056C29.4365 20.1056 29.43 20.1039 29.4242 20.1005C29.4184 20.0972 29.4136 20.0924 29.4102 20.0866C29.4069 20.0809 29.4051 20.0743 29.4051 20.0676C29.4051 20.0609 29.4069 20.0544 29.4102 20.0486L31.069 17.3209C31.071 17.3173 31.0716 17.313 31.0708 17.3089C31.0699 17.3047 31.0676 17.3011 31.0644 17.2986C31.0611 17.2961 31.0572 17.2949 31.0532 17.2954C31.0493 17.2958 31.0456 17.2978 31.043 17.3009L28.5063 20.0256C28.4829 20.0506 28.4547 20.0705 28.4235 20.0843C28.3922 20.098 28.3585 20.1053 28.3243 20.1056L27.3114 20.1076C27.3033 20.1077 27.2953 20.106 27.288 20.1025C27.2807 20.099 27.2743 20.0938 27.2694 20.0874C27.2644 20.081 27.261 20.0735 27.2595 20.0656C27.2579 20.0576 27.2583 20.0494 27.2605 20.0416L28.0114 17.1969C28.054 17.0369 28.0347 17.0293 27.9534 17.1739L26.3486 20.0256C26.3352 20.0493 26.3157 20.069 26.292 20.0827C26.2683 20.0964 26.2412 20.1036 26.2136 20.1036L24.8397 20.1056C24.8346 20.1056 24.8295 20.1043 24.825 20.1017C24.8206 20.0991 24.8169 20.0954 24.8143 20.0909C24.8118 20.0864 24.8105 20.0814 24.8105 20.0762C24.8106 20.0711 24.8121 20.066 24.8147 20.0616L27.5994 15.2451C27.6194 15.2105 27.6491 15.1931 27.6884 15.1931L29.8082 15.1921C29.8139 15.1921 29.8196 15.1934 29.8247 15.196C29.8299 15.1987 29.8342 15.2026 29.8375 15.2073C29.8408 15.2121 29.8428 15.2175 29.8435 15.2233C29.8441 15.229 29.8433 15.2348 29.8412 15.2401L28.8323 17.9048Z" fill="#0A51A1"/>
<path d="M10.3524 22.5433C8.91459 22.4683 7.39476 22.3694 5.93392 22.1444C5.93059 22.1437 5.92725 22.1441 5.92392 22.1454C5.92126 22.1467 5.91992 22.1487 5.91992 22.1514C5.92059 22.1534 5.92192 22.1541 5.92392 22.1534C6.1339 22.1394 6.27955 22.1331 6.36087 22.1344C8.55729 22.1737 10.5821 22.1797 12.4352 22.1524C15.8415 22.1031 19.2911 21.8981 22.784 21.5375C23.413 21.4725 24.2749 21.3435 25.0318 21.2585C26.0657 21.1425 27.0826 20.9435 28.1314 20.7585C30.0086 20.4279 31.8184 19.983 33.5608 19.4237C34.4677 19.1327 35.3946 18.7648 36.2695 18.2918C36.3295 18.2592 36.3465 18.2745 36.3205 18.3378L35.6826 19.8696C35.676 19.8853 35.6661 19.8994 35.6534 19.9108C35.6408 19.9222 35.6259 19.9307 35.6096 19.9356C33.1179 20.6702 30.6002 21.2442 28.0564 21.6574C25.1508 22.1294 22.2931 22.4307 19.4834 22.5613C16.4018 22.7053 13.3581 22.6993 10.3524 22.5433Z" fill="#0A51A1"/>
<path d="M27.4108 23.9513C27.388 23.93 27.3608 23.9138 27.3311 23.904C27.3014 23.8942 27.2699 23.8908 27.2389 23.8943C27.0802 23.9103 26.9919 23.983 26.9739 24.1123C26.9339 24.4036 26.9332 24.6752 26.9719 24.9272C26.9912 25.0498 27.0669 25.1305 27.1989 25.1692C27.2293 25.1782 27.2614 25.1806 27.2929 25.1762C27.3244 25.1717 27.3546 25.1605 27.3814 25.1434C27.4081 25.1262 27.4309 25.1034 27.448 25.0766C27.4652 25.0499 27.4764 25.0197 27.4808 24.9882L27.5128 24.7562C27.5168 24.7249 27.5348 24.7095 27.5668 24.7102L27.7778 24.7132C27.7876 24.7132 27.7971 24.7169 27.8044 24.7236C27.8116 24.7302 27.816 24.7394 27.8168 24.7492C27.8478 25.1122 27.6568 25.4011 27.2718 25.4031C26.8979 25.4051 26.6952 25.1992 26.6639 24.7852C26.6259 24.2813 26.6409 23.5683 27.3638 23.6693C27.6925 23.7147 27.8454 23.896 27.8228 24.2133C27.8195 24.2579 27.7958 24.2803 27.7518 24.2803H27.5718C27.562 24.2803 27.5522 24.2783 27.5432 24.2743C27.5342 24.2703 27.526 24.2645 27.5194 24.2571C27.5127 24.2498 27.5076 24.2411 27.5044 24.2317C27.5012 24.2222 27.5 24.2122 27.5008 24.2023C27.5095 24.0989 27.4795 24.0153 27.4108 23.9513Z" fill="black"/>
<path d="M34.5397 24.0412L34.5317 23.7413C34.5303 23.6913 34.555 23.6669 34.6057 23.6683L34.7627 23.6733C34.8007 23.6746 34.8196 23.6943 34.8196 23.7323L34.8167 25.3081C34.8167 25.3461 34.7977 25.3647 34.7597 25.3641C34.579 25.3621 34.3987 25.3717 34.2187 25.3931C34.0527 25.4121 33.8958 25.2981 33.8558 25.1361C33.7558 24.7311 33.7548 23.8602 34.4717 24.0912C34.5177 24.1066 34.5403 24.0899 34.5397 24.0412ZM34.5273 24.5124C34.5281 24.4617 34.5087 24.4129 34.4734 24.3765C34.4382 24.3401 34.3899 24.3192 34.3393 24.3184L34.3153 24.3181C34.2902 24.3177 34.2653 24.3222 34.242 24.3314C34.2187 24.3407 34.1974 24.3544 34.1794 24.3719C34.1614 24.3893 34.147 24.4101 34.137 24.4332C34.1271 24.4562 34.1217 24.4809 34.1213 24.506L34.1142 24.9639C34.1134 25.0145 34.1327 25.0634 34.168 25.0998C34.2032 25.1362 34.2515 25.1571 34.3021 25.1579L34.3261 25.1582C34.3512 25.1586 34.3761 25.1541 34.3994 25.1449C34.4227 25.1356 34.444 25.1219 34.462 25.1044C34.48 25.087 34.4944 25.0661 34.5044 25.0431C34.5143 25.0201 34.5197 24.9954 34.5201 24.9703L34.5273 24.5124Z" fill="black"/>
<path d="M21.9162 23.9733C21.5072 23.7443 21.3083 24.2932 21.6342 24.3932C21.9892 24.5022 22.3821 24.3992 22.3342 24.9742C22.3062 25.3071 21.9902 25.4241 21.7022 25.4201C21.3269 25.4155 21.1483 25.2105 21.1663 24.8052C21.167 24.7919 21.174 24.7855 21.1873 24.7862L21.4293 24.7892C21.4433 24.7899 21.4516 24.7972 21.4543 24.8112L21.4942 25.0442C21.4997 25.0781 21.5159 25.1094 21.5406 25.1335C21.5652 25.1576 21.597 25.1733 21.6312 25.1781C21.8972 25.2175 22.0232 25.1148 22.0092 24.8702C22.0045 24.7875 21.9625 24.7352 21.8832 24.7132C21.6362 24.6432 21.1523 24.5462 21.1553 24.2023C21.1586 23.9143 21.3016 23.7463 21.5842 23.6983C22.0022 23.6277 22.2335 23.7816 22.2782 24.1603C22.2835 24.2023 22.2648 24.2233 22.2222 24.2233L22.0842 24.2213C22.0614 24.2211 22.0395 24.2123 22.0228 24.1968C22.0062 24.1812 21.9959 24.16 21.9942 24.1373C21.9892 24.0713 21.9802 24.0093 21.9162 23.9733Z" fill="black"/>
<path d="M17.9602 25.1641C18.0263 25.1638 18.0896 25.1373 18.1363 25.0902C18.183 25.0432 18.2092 24.9795 18.2092 24.9131V23.7623C18.2092 23.7485 18.2146 23.7352 18.2244 23.7255C18.2341 23.7157 18.2474 23.7103 18.2611 23.7103L18.4351 23.7093C18.4778 23.7093 18.4995 23.7309 18.5001 23.7743C18.5021 24.1276 18.5025 24.4992 18.5011 24.8891C18.4998 25.2204 18.3431 25.3914 18.0312 25.4021C17.7082 25.4131 17.3352 25.3791 17.3312 24.9661C17.3279 24.5668 17.3272 24.1646 17.3292 23.7593C17.3299 23.7246 17.3476 23.7076 17.3822 23.7083L17.5742 23.7133C17.5849 23.7135 17.5951 23.718 17.6026 23.7256C17.61 23.7333 17.6142 23.7436 17.6142 23.7543L17.6112 24.8781C17.6106 25.0701 17.7062 25.1654 17.8982 25.1641H17.9602Z" fill="black"/>
<path d="M19.1957 24.297L19.2037 25.2939C19.2044 25.3432 19.1797 25.3679 19.1297 25.3679L18.9617 25.3669C18.9111 25.3669 18.8857 25.3415 18.8857 25.2909V23.7631C18.8857 23.7304 18.9024 23.7137 18.9357 23.7131L19.2137 23.7071C19.2408 23.7065 19.2673 23.7141 19.2898 23.729C19.3123 23.7438 19.3297 23.7651 19.3397 23.7901L19.7456 24.8049C19.7763 24.8816 19.7913 24.8786 19.7906 24.7959L19.7836 23.7741C19.7836 23.7301 19.8056 23.7084 19.8496 23.7091L20.0536 23.7121C20.0661 23.7121 20.078 23.7169 20.0868 23.7255C20.0957 23.7342 20.1006 23.7459 20.1006 23.7581L20.1016 25.2949C20.1016 25.3141 20.0939 25.3325 20.0803 25.3461C20.0666 25.3598 20.0481 25.3676 20.0286 25.3679H19.7276C19.687 25.3679 19.6593 25.3489 19.6447 25.3109L19.2537 24.286C19.2137 24.1813 19.1944 24.185 19.1957 24.297Z" fill="black"/>
<path d="M20.7408 23.7092H20.5549C20.5278 23.7092 20.5059 23.7312 20.5059 23.7582V25.32C20.5059 25.3471 20.5278 25.369 20.5549 25.369H20.7408C20.7679 25.369 20.7898 25.3471 20.7898 25.32V23.7582C20.7898 23.7312 20.7679 23.7092 20.7408 23.7092Z" fill="black"/>
<path d="M22.9902 24.3661L23.5681 24.3651C23.5753 24.3651 23.5823 24.3666 23.5889 24.3693C23.5954 24.3721 23.6014 24.3762 23.6063 24.3814C23.6113 24.3865 23.6151 24.3926 23.6177 24.3992C23.6202 24.4059 23.6214 24.413 23.6211 24.4201L23.6171 24.5691C23.6166 24.5828 23.6108 24.5958 23.6009 24.6053C23.591 24.6148 23.5778 24.6201 23.5641 24.6201L22.9922 24.6191C22.9781 24.6191 22.9647 24.6247 22.9547 24.6346C22.9448 24.6446 22.9392 24.658 22.9392 24.6721L22.9382 25.0831C22.9382 25.0971 22.9438 25.1106 22.9537 25.1205C22.9637 25.1305 22.9771 25.136 22.9912 25.136L23.6051 25.135C23.6192 25.135 23.6327 25.1406 23.6426 25.1506C23.6525 25.1605 23.6581 25.174 23.6581 25.188L23.6601 25.314C23.6601 25.3281 23.6545 25.3416 23.6446 25.3515C23.6347 25.3614 23.6212 25.367 23.6071 25.367H22.7102C22.6962 25.367 22.6827 25.3614 22.6727 25.3515C22.6628 25.3416 22.6572 25.3281 22.6572 25.314V23.7632C22.6572 23.7491 22.6628 23.7357 22.6727 23.7257C22.6827 23.7158 22.6962 23.7102 22.7102 23.7102L23.6301 23.7112C23.6372 23.7112 23.6443 23.7126 23.6509 23.7154C23.6574 23.7182 23.6634 23.7223 23.6683 23.7274C23.6733 23.7326 23.6771 23.7386 23.6797 23.7453C23.6822 23.752 23.6834 23.7591 23.6831 23.7662L23.6771 23.8912C23.6766 23.9049 23.6708 23.9179 23.6609 23.9274C23.651 23.9369 23.6378 23.9422 23.6241 23.9422L22.9942 23.9402C22.9871 23.94 22.9801 23.9413 22.9736 23.9439C22.9671 23.9465 22.9611 23.9504 22.9561 23.9553C22.951 23.9603 22.947 23.9662 22.9443 23.9727C22.9416 23.9792 22.9402 23.9861 22.9402 23.9932L22.9372 24.3121C22.9371 24.3192 22.9383 24.3262 22.9409 24.3327C22.9435 24.3393 22.9474 24.3452 22.9524 24.3503C22.9573 24.3553 22.9632 24.3593 22.9697 24.362C22.9762 24.3647 22.9831 24.3661 22.9902 24.3661Z" fill="black"/>
<path d="M25.1245 24.3342C25.0345 24.6288 24.9506 24.9248 24.8726 25.2221C24.8372 25.3554 24.7492 25.4054 24.6086 25.372C24.582 25.3657 24.5576 25.3523 24.538 25.3333C24.5185 25.3143 24.5045 25.2904 24.4976 25.2641L24.2466 24.3312C24.244 24.3232 24.239 24.3172 24.2316 24.3132C24.2243 24.3098 24.2153 24.3095 24.2046 24.3122C24.2 24.3135 24.1976 24.3165 24.1976 24.3212L24.1956 25.2981C24.1956 25.3073 24.1938 25.3165 24.1902 25.3251C24.1866 25.3336 24.1814 25.3414 24.1748 25.3479C24.1682 25.3544 24.1603 25.3595 24.1517 25.363C24.1431 25.3665 24.1339 25.3682 24.1246 25.368L23.9377 25.366C23.9057 25.366 23.8897 25.35 23.8897 25.318L23.8887 23.7722C23.8887 23.7302 23.9093 23.7096 23.9507 23.7102L24.2896 23.7112C24.3303 23.7112 24.356 23.7309 24.3666 23.7702L24.6516 24.8131C24.6769 24.9038 24.7019 24.9038 24.7266 24.8131L25.0145 23.7732C25.0194 23.7549 25.0302 23.7387 25.0452 23.7271C25.0602 23.7155 25.0786 23.7093 25.0975 23.7092L25.4165 23.7112C25.4565 23.7112 25.4765 23.7316 25.4765 23.7722L25.4775 25.319C25.4775 25.351 25.4612 25.367 25.4285 25.367L25.2055 25.366C25.1702 25.366 25.1532 25.3484 25.1545 25.3131C25.1632 25.0004 25.1652 24.6758 25.1605 24.3392C25.1592 24.2598 25.1472 24.2582 25.1245 24.3342Z" fill="black"/>
<path d="M32.0441 25.136L32.704 25.137C32.7155 25.1372 32.7265 25.1415 32.735 25.1493C32.7435 25.157 32.7488 25.1676 32.75 25.179L32.764 25.313C32.7647 25.3195 32.7641 25.3262 32.762 25.3325C32.76 25.3388 32.7566 25.3446 32.7522 25.3495C32.7477 25.3544 32.7423 25.3583 32.7363 25.361C32.7302 25.3636 32.7237 25.365 32.717 25.365L31.7492 25.367C31.7429 25.367 31.7367 25.3657 31.7309 25.3633C31.7252 25.3609 31.7199 25.3573 31.7156 25.3528C31.7112 25.3484 31.7077 25.3431 31.7054 25.3373C31.7031 25.3314 31.702 25.3252 31.7022 25.319L31.7302 23.7501C31.7303 23.7439 31.7317 23.7377 31.7342 23.732C31.7368 23.7263 31.7404 23.7211 31.745 23.7168C31.7495 23.7125 31.7549 23.7092 31.7608 23.707C31.7667 23.7049 31.7729 23.7039 31.7791 23.7041L31.9321 23.7121C31.9441 23.7127 31.9554 23.7177 31.9637 23.7262C31.9721 23.7348 31.9769 23.7462 31.9771 23.7581L31.9971 25.09C31.9974 25.1023 32.0025 25.114 32.0112 25.1226C32.02 25.1312 32.0318 25.136 32.0441 25.136Z" fill="black"/>
<path d="M33.3863 24.0982L33.4933 24.1132C33.5141 24.1158 33.5334 24.1255 33.5481 24.1405C33.5628 24.1556 33.572 24.1752 33.5743 24.1962C33.5776 24.2282 33.573 24.2592 33.5603 24.2892C33.5463 24.3206 33.5223 24.3382 33.4883 24.3422L33.3933 24.3522C33.356 24.3569 33.3373 24.3779 33.3373 24.4152L33.3383 25.0611C33.3383 25.1018 33.3583 25.1235 33.3983 25.1261L33.4743 25.1301C33.5136 25.1321 33.5383 25.1518 33.5483 25.1891C33.5576 25.2245 33.559 25.2608 33.5523 25.2981C33.5436 25.3448 33.5156 25.3678 33.4683 25.3671L33.1933 25.3641C33.1568 25.3636 33.122 25.3487 33.0964 25.3227C33.0707 25.2967 33.0564 25.2616 33.0564 25.2251L33.0574 24.4402C33.0574 24.4042 33.0407 24.3795 33.0074 24.3662L32.9174 24.3302C32.9001 24.3235 32.8853 24.3117 32.8749 24.2963C32.8646 24.2809 32.8591 24.2628 32.8594 24.2442C32.8607 24.1662 32.8997 24.1176 32.9764 24.0982C33.0237 24.0862 33.0487 24.0559 33.0514 24.0073C33.0534 23.9606 33.0644 23.9153 33.0844 23.8713C33.0964 23.8453 33.116 23.8283 33.1434 23.8203C33.1873 23.8076 33.2297 23.8099 33.2703 23.8273C33.3063 23.8433 33.3257 23.8709 33.3283 23.9103L33.3363 24.0443C33.3371 24.0578 33.3426 24.0706 33.3517 24.0805C33.3609 24.0903 33.3731 24.0966 33.3863 24.0982Z" fill="black"/>
<path d="M29.1148 24.9374C29.1151 24.9991 29.1032 25.0603 29.0799 25.1174C29.0566 25.1745 29.0223 25.2265 28.9789 25.2704C28.9354 25.3143 28.8838 25.3491 28.8269 25.3731C28.77 25.397 28.709 25.4095 28.6473 25.4098L28.5653 25.4102C28.5036 25.4105 28.4424 25.3987 28.3853 25.3754C28.3281 25.3521 28.2761 25.3177 28.2323 25.2743C28.1884 25.2309 28.1535 25.1793 28.1296 25.1224C28.1057 25.0655 28.0932 25.0044 28.0929 24.9427L28.0908 24.5488C28.0905 24.4871 28.1023 24.4259 28.1257 24.3687C28.149 24.3116 28.1833 24.2596 28.2267 24.2157C28.2701 24.1719 28.3218 24.137 28.3787 24.1131C28.4355 24.0892 28.4966 24.0767 28.5583 24.0764L28.6403 24.0759C28.702 24.0756 28.7632 24.0874 28.8203 24.1108C28.8775 24.1341 28.9294 24.1684 28.9733 24.2118C29.0172 24.2553 29.0521 24.3069 29.076 24.3638C29.0999 24.4207 29.1124 24.4817 29.1127 24.5434L29.1148 24.9374ZM28.804 24.5294C28.8037 24.5027 28.7981 24.4762 28.7875 24.4516C28.777 24.427 28.7617 24.4047 28.7425 24.386C28.7234 24.3672 28.7007 24.3525 28.6758 24.3425C28.6509 24.3326 28.6244 24.3276 28.5976 24.328L28.5696 24.3283C28.5428 24.3286 28.5163 24.3342 28.4917 24.3448C28.4671 24.3553 28.4448 24.3706 28.4261 24.3898C28.4074 24.409 28.3926 24.4317 28.3827 24.4565C28.3727 24.4814 28.3678 24.508 28.3681 24.5348L28.3736 24.9807C28.3739 25.0075 28.3795 25.0339 28.39 25.0586C28.4006 25.0832 28.4159 25.1055 28.4351 25.1242C28.4542 25.1429 28.4769 25.1576 28.5018 25.1676C28.5266 25.1775 28.5532 25.1825 28.58 25.1822L28.608 25.1818C28.6348 25.1815 28.6613 25.1759 28.6859 25.1653C28.7105 25.1548 28.7328 25.1395 28.7515 25.1203C28.7702 25.1011 28.785 25.0785 28.7949 25.0536C28.8049 25.0287 28.8098 25.0021 28.8095 24.9754L28.804 24.5294Z" fill="black"/>
<path d="M28.5982 24.328L28.5702 24.3283C28.4575 24.3297 28.3673 24.4221 28.3687 24.5348L28.3742 24.9807C28.3755 25.0933 28.468 25.1835 28.5806 25.1822L28.6086 25.1818C28.7212 25.1804 28.8114 25.088 28.8101 24.9754L28.8046 24.5294C28.8032 24.4168 28.7108 24.3266 28.5982 24.328Z" fill="white"/>
<path d="M34.339 24.3183L34.315 24.3179C34.2095 24.3163 34.1227 24.4004 34.121 24.5059L34.1138 24.9638C34.1122 25.0693 34.1963 25.1561 34.3018 25.1577L34.3258 25.1581C34.4312 25.1598 34.5181 25.0756 34.5197 24.9702L34.5269 24.5123C34.5286 24.4068 34.4444 24.32 34.339 24.3183Z" fill="white"/>
<path d="M29.7008 25.0731L29.5248 25.0747C29.4917 25.075 29.4651 25.1021 29.4654 25.1352L29.4669 25.3092C29.4672 25.3423 29.4943 25.3689 29.5274 25.3686L29.7034 25.3671C29.7365 25.3668 29.7631 25.3397 29.7628 25.3066L29.7613 25.1326C29.761 25.0995 29.7339 25.0728 29.7008 25.0731Z" fill="black"/>
<path d="M35.2935 25.0754L35.1495 25.0728C35.1004 25.072 35.0599 25.1111 35.059 25.1603L35.057 25.2722C35.0562 25.3214 35.0953 25.3619 35.1445 25.3628L35.2884 25.3653C35.3376 25.3661 35.3781 25.327 35.379 25.2779L35.3809 25.1659C35.3818 25.1167 35.3426 25.0762 35.2935 25.0754Z" fill="black"/>
<path d="M30.236 25.3961C30.1581 25.3374 30.1327 25.2507 30.1601 25.1361C30.1674 25.1028 30.1887 25.0858 30.224 25.0851L30.455 25.0801C30.4698 25.0798 30.4841 25.0852 30.4949 25.095C30.5058 25.1049 30.5122 25.1186 30.513 25.1331C30.526 25.3611 30.544 25.675 30.207 25.636C30.1504 25.6287 30.1397 25.6027 30.1751 25.558L30.246 25.469C30.268 25.4417 30.2647 25.4174 30.236 25.3961Z" fill="black"/>
<circle cx="20" cy="20" r="19.5" stroke="black" stroke-opacity="0.05"/>
</svg>
