<svg width="40" height="40" viewBox="0 0 40 40" fill="none" xmlns="http://www.w3.org/2000/svg">
<circle cx="20" cy="20" r="20" fill="#0064F0"/>
<g clip-path="url(#clip0_20940_31883)">
<path d="M14.9488 19.9976C14.9488 22.2083 13.1686 23.9952 10.9768 23.9952C8.78502 23.9952 7 22.2083 7 19.9976C7 17.7917 8.78023 16 10.972 16C13.1686 16 14.944 17.7917 14.944 19.9976H14.9488ZM13.1064 19.9976C13.1064 18.8128 12.1493 17.8495 10.972 17.8495C9.79477 17.8495 8.83766 18.8128 8.83766 19.9976C8.83766 21.1824 9.79477 22.1457 10.972 22.1457C12.1493 22.1457 13.1064 21.1824 13.1064 19.9976Z" fill="white"/>
<path d="M28.1906 18.0756C26.932 18.7162 26.6114 20.3538 27.5445 21.4182C28.0614 22.0106 28.8462 22.2611 29.6167 22.0925C30.2532 21.948 30.7748 21.5145 31.0619 20.9269C31.0619 20.9173 31.0763 20.9125 31.0859 20.9125H32.9857C32.9857 20.9125 33.0097 20.9221 33.0049 20.9366C32.8182 21.6975 32.445 22.3478 31.8851 22.8872C30.7126 24.0287 28.9324 24.308 27.4728 23.6241C26.0562 22.9594 25.1709 21.553 25.1709 19.9781C25.1709 17.7096 27.0564 15.9179 29.2913 15.9998C31.0811 16.0672 32.5885 17.3243 33.0049 19.0678C33.0049 19.0678 33.0049 19.0774 33.0001 19.0774H31.0906C31.0906 19.0774 31.0763 19.0774 31.0715 19.063C30.7796 18.485 30.3345 18.1093 29.7363 17.9263C29.2338 17.7722 28.6644 17.83 28.2002 18.066L28.1906 18.0756Z" fill="white"/>
<path d="M18.2987 20.9321V23.8364C18.2987 23.8364 18.2987 23.846 18.2891 23.846H16.4754C16.4754 23.846 16.4658 23.846 16.4658 23.8364V16.1639C16.4658 16.1639 16.4658 16.1543 16.4754 16.1543H18.2891C18.2891 16.1543 18.2987 16.1543 18.2987 16.1639V19.0682C18.2987 19.0682 18.2987 19.0778 18.3083 19.0778H21.8017C21.8017 19.0778 21.8113 19.0778 21.8113 19.0682V16.1639C21.8113 16.1639 21.8113 16.1543 21.8209 16.1543H23.6442C23.6442 16.1543 23.6537 16.1543 23.6537 16.1639V23.8364C23.6537 23.8364 23.6537 23.846 23.6442 23.846H21.8209C21.8209 23.846 21.8113 23.846 21.8113 23.8364V20.9321C21.8113 20.9321 21.8113 20.9225 21.8017 20.9225H18.3083C18.3083 20.9225 18.2987 20.9225 18.2987 20.9321Z" fill="white"/>
</g>
<circle cx="20" cy="20" r="19.5" stroke="black" stroke-opacity="0.05"/>
<defs>
<clipPath id="clip0_20940_31883">
<rect width="26" height="8" fill="white" transform="translate(7 16)"/>
</clipPath>
</defs>
</svg>
