<svg width="40" height="40" viewBox="0 0 40 40" fill="none" xmlns="http://www.w3.org/2000/svg">
<circle cx="20" cy="20" r="20" fill="#1F4F91"/>
<path d="M23.2555 10H10V29.5209H23.2555C28.6472 29.5209 32 25.1487 32 19.7605C32 14.3688 28.6472 10 23.2555 10ZM26.9132 24.153C21.9584 30.7401 13.512 27.4178 13.2275 26.29L15.1444 23.9837C15.1444 23.9837 9.11607 22.3513 12.6958 16.1265C16.3534 9.76293 25.335 10.7485 26.8556 13.1158L24.8236 15.1986C24.8236 15.1986 32.0474 17.3254 26.9132 24.153Z" fill="white"/>
<path d="M21.711 13.7695H17.6944V17.6304H13.8369V21.647H17.6944V25.5044H21.711V21.647H25.5718V17.6304H21.711V13.7695Z" fill="white"/>
<circle cx="20" cy="20" r="19.5" stroke="black" stroke-opacity="0.05"/>
</svg>
