<svg width="40" height="40" viewBox="0 0 40 40" fill="none" xmlns="http://www.w3.org/2000/svg">
<circle cx="20" cy="20" r="20" fill="#F6F8FA"/>
<circle cx="20" cy="20" r="19.5" stroke="black" stroke-opacity="0.05"/>
<path d="M16.2 16.8515L16.7367 16.8517C16.7402 16.8517 16.7435 16.8531 16.746 16.8556C16.7485 16.8581 16.7499 16.8615 16.7499 16.865L16.7487 17.6646C16.7487 17.6663 16.7483 17.668 16.7477 17.6696C16.747 17.6713 16.746 17.6727 16.7448 17.6739C16.7436 17.6752 16.7421 17.6762 16.7405 17.6768C16.7389 17.6775 16.7371 17.6778 16.7354 17.6778L16.2005 17.6773C16.197 17.6773 16.1936 17.6787 16.1911 17.6812C16.1886 17.6837 16.1872 17.6871 16.1872 17.6906L16.187 19.6288C16.187 19.6306 16.1866 19.6323 16.186 19.6339C16.1853 19.6355 16.1843 19.637 16.1831 19.6382C16.1819 19.6395 16.1804 19.6404 16.1788 19.6411C16.1772 19.6418 16.1755 19.6421 16.1737 19.6421H15.2116C15.2081 19.6421 15.2047 19.6407 15.2022 19.6382C15.1997 19.6357 15.1983 19.6324 15.1983 19.6288L15.1986 17.6911C15.1986 17.6876 15.1972 17.6842 15.1947 17.6817C15.1922 17.6792 15.1888 17.6778 15.1853 17.6778H14.8868C14.8833 17.6778 14.8799 17.6764 14.8774 17.6739C14.8749 17.6715 14.8735 17.6681 14.8735 17.6646L14.873 16.8657C14.873 16.8622 14.8744 16.8588 14.8769 16.8563C14.8794 16.8539 14.8828 16.8525 14.8863 16.8525L15.1853 16.8495C15.1871 16.8495 15.1888 16.8491 15.1904 16.8484C15.192 16.8478 15.1935 16.8468 15.1947 16.8456C15.1959 16.8443 15.1969 16.8429 15.1976 16.8413C15.1982 16.8397 15.1986 16.8379 15.1986 16.8362L15.1981 16.0266C15.1981 16.0231 15.1995 16.0197 15.202 16.0172C15.2045 16.0147 15.2078 16.0133 15.2114 16.0133L16.174 16.0131C16.1757 16.0131 16.1774 16.0134 16.179 16.0141C16.1807 16.0147 16.1821 16.0157 16.1834 16.0169C16.1846 16.0182 16.1856 16.0196 16.1862 16.0213C16.1869 16.0229 16.1872 16.0246 16.1872 16.0263L16.1867 16.8382C16.1867 16.8417 16.1881 16.8451 16.1906 16.8476C16.1931 16.8501 16.1965 16.8515 16.2 16.8515Z" fill="#CF162D"/>
<path d="M25.0477 19.6421L24.0931 19.6426C24.0888 19.6426 24.0846 19.6409 24.0816 19.6379C24.0785 19.6348 24.0768 19.6307 24.0768 19.6264L24.0765 17.6931C24.0765 17.691 24.0761 17.6889 24.0753 17.6869C24.0745 17.6849 24.0733 17.6831 24.0718 17.6816C24.0703 17.6801 24.0685 17.6789 24.0665 17.6781C24.0645 17.6773 24.0624 17.6769 24.0603 17.6769L23.7663 17.6779C23.762 17.6779 23.7578 17.6761 23.7548 17.6731C23.7517 17.67 23.75 17.6659 23.75 17.6616L23.7515 16.868C23.7515 16.8659 23.7519 16.8638 23.7527 16.8618C23.7536 16.8598 23.7548 16.858 23.7563 16.8565C23.7578 16.855 23.7596 16.8538 23.7616 16.853C23.7635 16.8521 23.7656 16.8517 23.7678 16.8517L24.0608 16.8512C24.0651 16.8512 24.0692 16.8495 24.0723 16.8465C24.0753 16.8434 24.077 16.8393 24.077 16.835L24.0765 16.0286C24.0765 16.0265 24.077 16.0244 24.0778 16.0224C24.0786 16.0204 24.0798 16.0186 24.0813 16.0171C24.0828 16.0156 24.0846 16.0144 24.0866 16.0136C24.0886 16.0128 24.0907 16.0123 24.0928 16.0123L25.0484 16.0141C25.0527 16.0141 25.0569 16.0158 25.0599 16.0188C25.063 16.0219 25.0647 16.026 25.0647 16.0304L25.0632 16.835C25.0632 16.8393 25.0649 16.8434 25.068 16.8465C25.071 16.8495 25.0751 16.8512 25.0795 16.8512L25.6048 16.8517C25.6092 16.8517 25.6133 16.8534 25.6164 16.8565C25.6194 16.8595 25.6211 16.8637 25.6211 16.868L25.6214 17.6608C25.6214 17.6651 25.6197 17.6693 25.6166 17.6723C25.6135 17.6754 25.6094 17.6771 25.6051 17.6771L25.0802 17.6779C25.0781 17.6779 25.076 17.6783 25.074 17.6791C25.072 17.6799 25.0702 17.6811 25.0687 17.6826C25.0672 17.6841 25.066 17.6859 25.0652 17.6879C25.0644 17.6899 25.0639 17.692 25.0639 17.6941V19.6259C25.0639 19.6302 25.0622 19.6343 25.0592 19.6374C25.0561 19.6404 25.052 19.6421 25.0477 19.6421Z" fill="#CF162D"/>
<path d="M6.72611 17.5503C6.45266 17.5944 6.212 17.7709 6.11284 18.0281C6.04848 18.1949 6.07077 18.413 6.16868 18.5708C6.25599 18.7113 6.37085 18.8133 6.51326 18.8768C6.6216 18.925 6.75791 18.9419 6.92219 18.9274C7.13154 18.9087 7.31259 18.8405 7.46534 18.7228C7.4666 18.7218 7.46812 18.7212 7.46971 18.721C7.47131 18.7208 7.47292 18.7211 7.47435 18.7218C7.47579 18.7225 7.477 18.7236 7.47785 18.725C7.47869 18.7263 7.47913 18.7279 7.47912 18.7295L7.47937 19.5687C7.47937 19.579 7.47453 19.5861 7.46484 19.59C7.04431 19.7607 6.61918 19.7885 6.18947 19.6733C5.43421 19.471 4.91209 18.8144 5.04857 18.0096C5.13796 17.4827 5.52185 17.065 6.01618 16.8794C6.47469 16.7072 6.98655 16.6951 7.44806 16.8855C7.47661 16.8972 7.47987 16.923 7.47987 16.9501C7.47937 17.209 7.47903 17.4687 7.47887 17.7291C7.47883 17.7308 7.47835 17.7324 7.47749 17.7338C7.47662 17.7352 7.47539 17.7363 7.47395 17.7371C7.4725 17.7378 7.47088 17.7382 7.46928 17.738C7.46767 17.7379 7.46614 17.7373 7.46484 17.7364C7.23296 17.5704 6.98671 17.5084 6.72611 17.5503Z" fill="#CF162D"/>
<path d="M17.9915 18.4323C17.9917 18.8327 18.2169 19.0661 18.6238 19.0418C18.8116 19.0308 18.953 18.9522 19.048 18.8061C19.0532 18.7982 19.0603 18.7917 19.0687 18.7871C19.0771 18.7826 19.0865 18.7802 19.0961 18.7801L20.0111 18.7798C20.0194 18.7798 20.0224 18.7838 20.0201 18.7919C19.8744 19.2779 19.5345 19.601 19.0405 19.6984C18.7109 19.7635 18.3946 19.7595 18.0914 19.6864C17.5142 19.5474 17.0905 19.1041 17.0106 18.5124C16.8951 17.6585 17.3256 16.8972 18.2221 16.7702C18.9135 16.6723 19.649 16.8764 19.9277 17.5746C20.0359 17.8453 20.0649 18.1115 20.0619 18.397C20.0619 18.402 20.0598 18.4069 20.0563 18.4104C20.0527 18.414 20.0479 18.416 20.0429 18.416L18.0083 18.4155C17.9971 18.4155 17.9915 18.4211 17.9915 18.4323ZM18.4515 17.3965C18.2299 17.4333 18.0641 17.5874 18.0248 17.816C18.0244 17.8183 18.0245 17.8206 18.0251 17.8229C18.0257 17.8252 18.0268 17.8273 18.0283 17.829C18.0298 17.8308 18.0317 17.8323 18.0338 17.8333C18.0359 17.8342 18.0382 17.8348 18.0406 17.8348L19.1186 17.8343C19.1296 17.8343 19.1337 17.8289 19.1309 17.8182C19.049 17.5077 18.767 17.3439 18.4515 17.3965Z" fill="#CF162D"/>
<path d="M29.4893 18.4353C29.4893 18.6782 29.574 18.9159 29.8179 19.0002C30.0863 19.0932 30.3821 19.0503 30.5488 18.8024C30.5536 18.7955 30.5599 18.7898 30.5674 18.7859C30.5748 18.7819 30.5832 18.7799 30.5917 18.7799H31.5054C31.5165 18.7799 31.5203 18.7851 31.517 18.7957C31.3473 19.3431 30.9672 19.6529 30.3766 19.7252C30.1415 19.7539 29.9193 19.7497 29.7099 19.7124C29.1172 19.607 28.6524 19.2164 28.525 18.6204C28.4281 18.1676 28.5092 17.6187 28.8165 17.2516C29.17 16.8291 29.7247 16.7034 30.2691 16.7588C30.4751 16.7796 30.6655 16.8354 30.8403 16.926C31.3945 17.2135 31.5773 17.8143 31.553 18.402C31.5529 18.4058 31.5513 18.4093 31.5486 18.4119C31.5459 18.4146 31.5423 18.416 31.5385 18.416L29.5089 18.4155C29.4958 18.4155 29.4893 18.4221 29.4893 18.4353ZM29.5276 17.8326L30.6089 17.8366C30.6097 17.8366 30.6105 17.8362 30.6111 17.8357C30.6116 17.8351 30.6119 17.8344 30.6119 17.8336V17.8321C30.6122 17.7744 30.5984 17.7172 30.5714 17.6638C30.5445 17.6104 30.5048 17.5618 30.4548 17.5208C30.4048 17.4799 30.3453 17.4473 30.2798 17.425C30.2143 17.4027 30.144 17.3911 30.0731 17.3908H30.0665C29.9232 17.3903 29.7857 17.4361 29.684 17.5181C29.5824 17.6001 29.5251 17.7116 29.5246 17.828V17.8295C29.5246 17.8299 29.5247 17.8303 29.5249 17.8307C29.525 17.8311 29.5252 17.8314 29.5255 17.8317C29.5258 17.832 29.5261 17.8322 29.5265 17.8323C29.5269 17.8325 29.5272 17.8326 29.5276 17.8326Z" fill="#CF162D"/>
<path d="M32.9215 18.429C32.9173 18.5896 32.9561 18.7296 33.0379 18.849C33.1401 18.9982 33.3607 19.0515 33.5377 19.0438C33.7299 19.0354 33.8773 18.9561 33.98 18.8059C33.9855 18.7978 33.993 18.7911 34.0016 18.7866C34.0102 18.782 34.0198 18.7796 34.0296 18.7796L34.9428 18.7801C34.9477 18.7801 34.9494 18.7824 34.9481 18.7871C34.8945 18.9803 34.8042 19.1511 34.6771 19.2997C34.4362 19.5817 34.0874 19.7051 33.717 19.7347C33.3372 19.7652 32.9523 19.7164 32.633 19.5348C32.2514 19.318 32.0221 18.9929 31.9451 18.5595C31.8997 18.3042 31.9103 18.048 31.9769 17.7909C32.1958 16.9475 33.0144 16.6393 33.822 16.7765C34.6496 16.9175 35.0325 17.6101 34.9847 18.4072C34.9845 18.4097 34.9834 18.412 34.9816 18.4136C34.9798 18.4153 34.9774 18.4162 34.9749 18.4162L32.9352 18.4152C32.9262 18.4152 32.9216 18.4198 32.9215 18.429ZM33.6051 17.3958C33.2996 17.3449 33.0256 17.4872 32.954 17.805C32.9497 17.8245 32.9575 17.8343 32.9776 17.8343L34.0493 17.8345C34.0509 17.8345 34.0525 17.8341 34.0539 17.8334C34.0553 17.8327 34.0565 17.8317 34.0574 17.8304C34.0584 17.8291 34.059 17.8277 34.0593 17.8261C34.0596 17.8246 34.0595 17.823 34.0591 17.8215C33.996 17.5984 33.8352 17.4338 33.6051 17.3958Z" fill="#CF162D"/>
<path d="M8.82739 16.8958C9.86562 16.5367 11.161 17.0991 11.0827 18.3549C11.0511 18.861 10.7496 19.2963 10.2891 19.5184C10.0742 19.6219 9.83724 19.6809 9.57814 19.6954C8.85719 19.7357 8.19334 19.439 7.9299 18.7438C7.843 18.5145 7.81896 18.2115 7.86579 17.9653C7.9627 17.4577 8.33983 17.0643 8.82739 16.8958ZM10.0792 18.2395C10.0792 18.1588 10.0633 18.0789 10.0325 18.0043C10.0016 17.9298 9.9563 17.862 9.89924 17.805C9.84217 17.7479 9.77443 17.7026 9.69987 17.6718C9.62532 17.6409 9.5454 17.625 9.4647 17.625C9.30172 17.625 9.14542 17.6897 9.03017 17.805C8.91492 17.9202 8.85018 18.0765 8.85018 18.2395C8.85018 18.4025 8.91492 18.5588 9.03017 18.674C9.14542 18.7893 9.30172 18.854 9.4647 18.854C9.5454 18.854 9.62532 18.8381 9.69987 18.8072C9.77443 18.7764 9.84217 18.7311 9.89924 18.674C9.9563 18.617 10.0016 18.5492 10.0325 18.4747C10.0633 18.4001 10.0792 18.3202 10.0792 18.2395Z" fill="#CF162D"/>
<path d="M12.4547 17.173C12.6232 16.9965 12.7674 16.871 13.0133 16.8214C13.2317 16.7773 13.4474 16.7795 13.6604 16.8279C13.8215 16.8645 13.9707 16.9455 14.1079 17.0708C14.3218 17.2662 14.3894 17.5243 14.3899 17.8033C14.3909 18.4188 14.3911 19.0274 14.3904 19.6291C14.3902 19.6378 14.3858 19.6421 14.3771 19.6421L13.4215 19.6424C13.4163 19.6424 13.4112 19.6403 13.4075 19.6365C13.4038 19.6327 13.4017 19.6277 13.4017 19.6223C13.4032 19.1158 13.4027 18.6087 13.4 18.1011C13.398 17.7622 13.2257 17.5319 12.8588 17.5832C12.525 17.6295 12.4361 17.8962 12.4366 18.19C12.4376 18.6711 12.4378 19.1514 12.4371 19.6309C12.4371 19.634 12.4359 19.637 12.4336 19.6392C12.4314 19.6414 12.4283 19.6426 12.4251 19.6426L11.465 19.6421C11.4629 19.6421 11.4608 19.6417 11.4588 19.6409C11.4568 19.6401 11.455 19.6389 11.4535 19.6374C11.452 19.6358 11.4508 19.634 11.45 19.6321C11.4492 19.6301 11.4487 19.628 11.4487 19.6258V16.867C11.4487 16.8566 11.4538 16.8515 11.464 16.8515H12.4186C12.4236 16.8515 12.4284 16.8534 12.4319 16.857C12.4354 16.8605 12.4374 16.8653 12.4374 16.8703V17.166C12.4374 17.1827 12.4431 17.185 12.4547 17.173Z" fill="#CF162D"/>
<path d="M21.433 17.1712C21.433 17.1879 21.4383 17.1899 21.449 17.1772C21.5842 17.0192 21.7432 16.8857 21.9496 16.8354C22.33 16.7425 22.7659 16.7773 23.0727 17.0432C23.3449 17.2794 23.388 17.5679 23.3867 17.9097C23.3849 18.4866 23.3849 19.0616 23.3867 19.6346C23.3867 19.6364 23.386 19.6382 23.3847 19.6395C23.3834 19.6408 23.3816 19.6416 23.3797 19.6416L22.4149 19.6428C22.4104 19.6428 22.4061 19.6411 22.403 19.638C22.3998 19.6349 22.3981 19.6307 22.3981 19.6263C22.3987 19.1121 22.3986 18.616 22.3976 18.1381C22.3971 17.9139 22.3382 17.6678 22.0998 17.5994C21.9548 17.558 21.8149 17.5699 21.6801 17.635C21.4745 17.7341 21.4302 17.9838 21.4312 18.1866C21.4337 18.6482 21.4339 19.1279 21.4317 19.6255C21.4317 19.6299 21.43 19.6341 21.4269 19.6372C21.4238 19.6403 21.4196 19.6421 21.4152 19.6421L20.4506 19.6428C20.4491 19.6428 20.4477 19.6422 20.4467 19.6412C20.4457 19.6402 20.4451 19.6388 20.4451 19.6373L20.4448 16.8574C20.4448 16.8558 20.4455 16.8542 20.4467 16.853C20.4478 16.8518 20.4494 16.8512 20.4511 16.8512L21.4144 16.8514C21.4194 16.8514 21.4241 16.8534 21.4275 16.8568C21.431 16.8603 21.433 16.865 21.433 16.8699V17.1712Z" fill="#CF162D"/>
<path d="M27.0965 17.2656C27.0965 17.2781 27.1003 17.2795 27.1078 17.2696C27.1699 17.1895 27.2357 17.1161 27.3051 17.0495C27.5423 16.8221 27.8813 16.7643 28.1921 16.7968C28.1961 16.7973 28.1998 16.7992 28.2025 16.8022C28.2052 16.8052 28.2066 16.8091 28.2066 16.8131L28.2069 17.7289C28.2069 17.7308 28.2064 17.7327 28.2055 17.7343C28.2046 17.736 28.2033 17.7374 28.2017 17.7384C28.2001 17.7394 28.1982 17.7401 28.1963 17.7402C28.1944 17.7403 28.1926 17.74 28.1908 17.7392C28.0342 17.6677 27.8739 17.6377 27.7098 17.6493C27.4093 17.6705 27.2094 17.8283 27.1358 18.124C27.1136 18.2134 27.1021 18.2954 27.1013 18.3702C27.0973 18.7799 27.0968 19.1996 27.0998 19.6293C27.0998 19.631 27.0995 19.6328 27.0988 19.6344C27.0982 19.636 27.0973 19.6374 27.096 19.6387C27.0948 19.6399 27.0934 19.6409 27.0918 19.6416C27.0902 19.6422 27.0885 19.6426 27.0867 19.6426H26.1159C26.1143 19.6426 26.1129 19.642 26.1118 19.6409C26.1107 19.6398 26.1101 19.6383 26.1101 19.6368L26.1099 16.8705C26.1099 16.8654 26.1119 16.8606 26.1154 16.857C26.119 16.8534 26.1238 16.8514 26.1289 16.8514L27.0872 16.8512C27.0959 16.8512 27.1002 16.8556 27.1 16.8644L27.0965 17.2656Z" fill="#CF162D"/>
<path d="M5.70828 24.2964C5.34743 24.2363 5.07297 23.9971 5.0274 23.6308C5.01671 23.546 5.01396 23.4192 5.01913 23.2504C5.0193 23.2412 5.02398 23.2366 5.03316 23.2366L5.55027 23.2369C5.55232 23.2369 5.55435 23.2373 5.55623 23.2381C5.55811 23.2389 5.5598 23.2401 5.56119 23.2416C5.56258 23.243 5.56364 23.2448 5.5643 23.2467C5.56497 23.2486 5.56522 23.2506 5.56504 23.2526C5.55853 23.353 5.56279 23.4493 5.57782 23.5416C5.59785 23.6638 5.66296 23.763 5.78767 23.7958C5.92665 23.8321 6.11246 23.8128 6.17356 23.6616C6.20161 23.592 6.21538 23.5133 6.21513 23.4374C6.21413 22.8117 6.21396 22.1839 6.21463 21.5538C6.21463 21.5451 6.21897 21.5408 6.22765 21.5408L6.80361 21.5403C6.80673 21.5403 6.80972 21.5415 6.81193 21.5437C6.81414 21.5459 6.81538 21.5489 6.81538 21.5521C6.81588 22.1566 6.81588 22.7868 6.81538 23.4427C6.81488 23.8599 6.64109 24.1774 6.22264 24.2821C6.06304 24.322 5.89159 24.3268 5.70828 24.2964Z" fill="#848381"/>
<path d="M17.1069 23.6601L16.9021 24.242C16.9011 24.2448 16.8993 24.2472 16.8969 24.2489C16.8945 24.2506 16.8917 24.2515 16.8888 24.2516L16.3108 24.2518C16.3085 24.2518 16.3062 24.2513 16.3041 24.2502C16.3021 24.2492 16.3003 24.2476 16.299 24.2457C16.2976 24.2438 16.2968 24.2416 16.2965 24.2393C16.2962 24.237 16.2965 24.2347 16.2973 24.2325L17.312 21.5498C17.313 21.5471 17.3148 21.5448 17.3172 21.5431C17.3196 21.5414 17.3224 21.5406 17.3253 21.5405L17.925 21.5403C17.9279 21.5403 17.9308 21.5411 17.9332 21.5428C17.9356 21.5444 17.9375 21.5468 17.9385 21.5495L18.9415 24.2328C18.9423 24.2349 18.9425 24.2372 18.9423 24.2395C18.942 24.2418 18.9411 24.244 18.9398 24.2459C18.9385 24.2478 18.9368 24.2493 18.9348 24.2504C18.9327 24.2515 18.9305 24.252 18.9282 24.2521L18.3319 24.2513C18.3289 24.2513 18.326 24.2504 18.3236 24.2486C18.3212 24.2468 18.3194 24.2444 18.3184 24.2415L18.1198 23.6601C18.1189 23.6572 18.1171 23.6548 18.1146 23.653C18.1122 23.6513 18.1093 23.6503 18.1063 23.6503L17.1202 23.6506C17.1172 23.6506 17.1144 23.6515 17.112 23.6532C17.1097 23.6549 17.1079 23.6573 17.1069 23.6601ZM17.2732 23.1883C17.2728 23.1894 17.2726 23.1907 17.2728 23.1919C17.273 23.1931 17.2735 23.1942 17.2742 23.1952C17.2749 23.1962 17.2758 23.197 17.2769 23.1975C17.278 23.1981 17.2792 23.1983 17.2804 23.1983L17.9498 23.2006C17.951 23.2006 17.9522 23.2003 17.9532 23.1998C17.9543 23.1992 17.9552 23.1985 17.9559 23.1975C17.9566 23.1966 17.9571 23.1955 17.9573 23.1943C17.9575 23.1931 17.9574 23.1919 17.9571 23.1908L17.6255 22.2314C17.625 22.23 17.624 22.2288 17.6227 22.2279C17.6215 22.2271 17.62 22.2266 17.6185 22.2266C17.617 22.2266 17.6155 22.2271 17.6142 22.2279C17.613 22.2288 17.612 22.23 17.6115 22.2314L17.2732 23.1883Z" fill="#848381"/>
<path d="M9.23132 23.3749C9.23132 23.6191 9.13431 23.8533 8.96163 24.0259C8.78895 24.1986 8.55474 24.2956 8.31053 24.2956H8.13123C7.88703 24.2956 7.65282 24.1986 7.48014 24.0259C7.30746 23.8533 7.21045 23.6191 7.21045 23.3749V23.162C7.21045 22.9178 7.30746 22.6836 7.48014 22.5109C7.65282 22.3382 7.88703 22.2412 8.13123 22.2412H8.31053C8.55474 22.2412 8.78895 22.3382 8.96163 22.5109C9.13431 22.6836 9.23132 22.9178 9.23132 23.162V23.3749ZM8.16279 23.8912C8.62406 23.9298 8.72848 23.4903 8.68491 23.1362C8.65561 22.8953 8.55219 22.6912 8.29926 22.6516C8.05185 22.6131 7.85728 22.7393 7.78816 22.9792C7.70002 23.2842 7.72856 23.8547 8.16279 23.8912Z" fill="#848381"/>
<path d="M11.5437 23.3725C11.5439 23.4934 11.5203 23.6132 11.4742 23.725C11.4282 23.8368 11.3605 23.9384 11.2752 24.024C11.1898 24.1097 11.0884 24.1777 10.9768 24.2242C10.8652 24.2706 10.7455 24.2947 10.6245 24.2949L10.4442 24.2952C10.2 24.2956 9.96566 24.199 9.79268 24.0266C9.6197 23.8542 9.52228 23.6202 9.52185 23.376L9.52149 23.1647C9.52127 23.0437 9.54488 22.924 9.59096 22.8122C9.63704 22.7004 9.70469 22.5987 9.79004 22.5131C9.87539 22.4274 9.97678 22.3594 10.0884 22.313C10.2 22.2665 10.3197 22.2425 10.4407 22.2423L10.621 22.2419C10.8652 22.2415 11.0995 22.3381 11.2725 22.5105C11.4455 22.6829 11.5429 22.9169 11.5434 23.1611L11.5437 23.3725ZM10.4898 23.8921C10.9924 23.9384 11.0535 23.3722 10.9773 23.0164C10.948 22.8783 10.8769 22.7742 10.7642 22.7041C10.6258 22.6182 10.4192 22.6237 10.2812 22.7179C10.0508 22.8752 10.0335 23.2403 10.0831 23.4889C10.1324 23.7373 10.2679 23.8717 10.4898 23.8921Z" fill="#848381"/>
<path d="M12.4186 22.5411C12.4186 22.5567 12.4231 22.558 12.4319 22.5452C12.6035 22.2962 12.8358 22.2204 13.1248 22.2356C13.6106 22.2614 13.7494 22.5915 13.7509 23.0415C13.752 23.4338 13.7522 23.8328 13.7514 24.2385C13.7514 24.2402 13.751 24.2418 13.7504 24.2434C13.7497 24.2449 13.7488 24.2463 13.7475 24.2475C13.7463 24.2487 13.7449 24.2496 13.7433 24.2503C13.7417 24.2509 13.7401 24.2512 13.7383 24.2512H13.219C13.2167 24.2512 13.2145 24.2508 13.2124 24.2499C13.2103 24.2491 13.2084 24.2478 13.2068 24.2462C13.2052 24.2446 13.2039 24.2427 13.203 24.2406C13.2021 24.2385 13.2017 24.2362 13.2017 24.234C13.2005 23.856 13.2005 23.4813 13.2017 23.1098C13.2022 22.8857 13.1469 22.6691 12.8734 22.6644C12.5561 22.6586 12.4537 22.8732 12.4514 23.1434C12.4486 23.4995 12.4483 23.8605 12.4504 24.2265C12.4504 24.233 12.4478 24.2393 12.4432 24.244C12.4385 24.2486 12.4322 24.2512 12.4257 24.2512L11.9241 24.2515C11.919 24.2515 11.9142 24.2495 11.9106 24.246C11.907 24.2425 11.905 24.2377 11.905 24.2327L11.9048 22.2992C11.9048 22.2899 11.9095 22.2852 11.9191 22.2852L12.4059 22.2857C12.4142 22.2857 12.4184 22.2898 12.4184 22.298L12.4186 22.5411Z" fill="#848381"/>
<path d="M15.5373 22.5164L15.5363 22.298C15.5363 22.2895 15.5405 22.2853 15.5491 22.2853L16.0426 22.2858C16.0528 22.2858 16.0579 22.2908 16.0579 22.301C16.0552 22.805 16.0552 23.3635 16.0579 23.9766C16.0587 24.1797 16.0438 24.3329 16.0131 24.4361C15.9129 24.7736 15.5874 24.9572 15.2308 24.985C15.1416 24.9918 15.0534 24.9936 14.9661 24.9903C14.603 24.9765 14.1925 24.7814 14.1665 24.3662C14.1664 24.3651 14.1665 24.3639 14.1669 24.3628C14.1673 24.3617 14.1679 24.3607 14.1687 24.3599C14.1695 24.359 14.1705 24.3584 14.1716 24.3579C14.1727 24.3574 14.1738 24.3572 14.175 24.3572L14.6909 24.358C14.7019 24.358 14.7093 24.3631 14.7132 24.3735C14.7457 24.4634 14.7823 24.534 14.8704 24.5743C14.9858 24.6274 15.1077 24.64 15.236 24.6121C15.5553 24.5425 15.5473 24.1764 15.5348 23.9257C15.5336 23.9032 15.5274 23.9017 15.5163 23.9212C15.3953 24.1326 15.1206 24.207 14.8832 24.1954C14.448 24.1741 14.1923 23.8837 14.1237 23.4682C14.0891 23.2595 14.096 23.0642 14.1442 22.8822C14.2329 22.5489 14.4685 22.286 14.8131 22.2417C15.0269 22.2144 15.2496 22.2427 15.4136 22.3912C15.4562 22.4295 15.4885 22.4761 15.523 22.5214C15.5325 22.5339 15.5373 22.5322 15.5373 22.5164ZM15.1391 22.6469C14.8604 22.6206 14.6946 22.8086 14.6576 23.0703C14.62 23.3363 14.6884 23.7467 15.0249 23.7802C15.1595 23.7938 15.2729 23.7595 15.3653 23.6773C15.5528 23.5105 15.5648 23.2176 15.504 22.9812C15.4574 22.8011 15.3282 22.6646 15.1391 22.6469Z" fill="#848381"/>
<path d="M19.6942 22.5369C19.6942 22.5385 19.6947 22.5401 19.6956 22.5414C19.6966 22.5427 19.6979 22.5437 19.6995 22.5442C19.701 22.5447 19.7027 22.5446 19.7042 22.5441C19.7058 22.5435 19.7071 22.5425 19.708 22.5412C19.8813 22.273 20.1757 22.2016 20.483 22.2449C20.9305 22.3078 21.0199 22.6604 21.0202 23.0468C21.0207 23.4534 21.0207 23.8509 21.0204 24.239C21.0204 24.2422 21.0191 24.2452 21.0169 24.2475C21.0146 24.2498 21.0116 24.251 21.0084 24.251L20.4888 24.2515C20.4801 24.2515 20.4757 24.2472 20.4757 24.2385C20.4762 23.8934 20.4762 23.5369 20.4755 23.169C20.4752 22.9453 20.4505 22.6704 20.1547 22.6644C19.7856 22.6566 19.7212 22.9173 19.7197 23.2118C19.7179 23.5605 19.7178 23.9029 19.7195 24.2387C19.7195 24.2421 19.7182 24.2453 19.7158 24.2476C19.7135 24.2499 19.7103 24.2513 19.707 24.2513L19.1863 24.2515C19.178 24.2515 19.1738 24.2473 19.1738 24.239V22.298C19.1738 22.2895 19.178 22.2852 19.1863 22.2852L19.6814 22.2855C19.6899 22.2855 19.6942 22.2898 19.6942 22.2985V22.5369Z" fill="#848381"/>
<path d="M22.782 22.5111C22.7967 22.5358 22.8041 22.5337 22.8043 22.5048L22.8045 22.3042C22.8045 22.2917 22.8108 22.2854 22.8233 22.2854H23.3131C23.3164 22.2854 23.3196 22.2868 23.322 22.2891C23.3243 22.2914 23.3256 22.2946 23.3256 22.298C23.3226 22.8534 23.3229 23.4093 23.3264 23.9657C23.3277 24.1701 23.3163 24.3173 23.2921 24.4075C23.2029 24.7395 22.9189 24.9266 22.5912 24.9737C22.3534 25.0079 22.1407 24.9974 21.9531 24.9421C21.6819 24.8622 21.459 24.6664 21.439 24.3732C21.4388 24.3712 21.4391 24.3692 21.4397 24.3673C21.4404 24.3654 21.4414 24.3637 21.4428 24.3623C21.4441 24.3608 21.4458 24.3596 21.4476 24.3588C21.4495 24.358 21.4515 24.3576 21.4535 24.3576H21.9601C21.9723 24.3576 21.9801 24.3635 21.9836 24.3752C22.0503 24.605 22.2944 24.6569 22.5038 24.6123C22.8293 24.5429 22.8155 24.1851 22.802 23.9249C22.8012 23.9084 22.7964 23.9071 22.7877 23.9212C22.6332 24.1738 22.2789 24.2347 22.0039 24.1758C21.6629 24.103 21.466 23.8428 21.4007 23.5065C21.3428 23.2097 21.3669 22.906 21.5126 22.641C21.6441 22.4019 21.8795 22.2491 22.1547 22.2348C22.4083 22.2218 22.649 22.2877 22.782 22.5111ZM22.6488 23.665C22.8228 23.5017 22.8323 23.2067 22.7755 22.9863C22.7255 22.7924 22.6108 22.68 22.4311 22.6493C22.3505 22.6356 22.2721 22.6442 22.196 22.6751C21.9531 22.7737 21.902 23.063 21.923 23.2929C21.9451 23.533 22.0525 23.7687 22.329 23.7834C22.4512 23.7899 22.5578 23.7505 22.6488 23.665Z" fill="#848381"/>
</svg>
