<svg width="40" height="40" viewBox="0 0 40 40" fill="none" xmlns="http://www.w3.org/2000/svg">
<circle cx="20" cy="20" r="20" fill="#0D3D76"/>
<path d="M25.4275 18.0854H31.7084C31.8693 18.0854 32 17.9548 32 17.7938V14.2915C32 14.1306 31.8693 14 31.7084 14H23.4926C23.4295 14 23.367 14.0128 23.309 14.0377C23.251 14.0625 23.1986 14.0989 23.1551 14.1446L20.8617 16.5542L18.5683 14.1446C18.5247 14.0989 18.4724 14.0625 18.4144 14.0377C18.3564 14.0128 18.2939 14 18.2308 14H10.6293C10.566 14 10.5035 14.0129 10.4454 14.0378C10.3873 14.0628 10.3349 14.0994 10.2914 14.1453L8.12785 16.4255C8.04578 16.5121 8.00002 16.6268 8 16.7461V26.5722C8 26.7333 8.13051 26.8639 8.29153 26.8639H11.7937C11.9548 26.8639 12.0853 26.7333 12.0853 26.5722V18.6224C12.0853 18.3568 12.3006 18.1415 12.5663 18.1415H16.2974C16.5631 18.1415 16.7784 18.3568 16.7784 18.6224V26.5722C16.7784 26.7333 16.9089 26.8639 17.07 26.8639H20.5722C20.7332 26.8639 20.8637 26.7333 20.8637 26.5722V24.315L23.1553 26.7193C23.1987 26.765 23.251 26.8013 23.309 26.8262C23.3669 26.8511 23.4293 26.8639 23.4924 26.8639H31.7084C31.8693 26.8639 32 26.7333 32 26.5722V23.0701C32 22.909 31.8693 22.7785 31.7084 22.7785H25.4275C25.1618 22.7785 24.9465 22.563 24.9465 22.2974V18.5663C24.9465 18.3008 25.1618 18.0854 25.4275 18.0854Z" fill="white"/>
<circle cx="20" cy="20" r="19.5" stroke="black" stroke-opacity="0.05"/>
</svg>
