<svg width="40" height="40" viewBox="0 0 40 40" fill="none" xmlns="http://www.w3.org/2000/svg">
<circle cx="20" cy="20" r="20" fill="#D7A631"/>
<path d="M32.751 18.5165C31.7674 18.474 30.7838 18.4315 29.7528 18.3855C28.5434 14.174 25.8293 11.567 21.4322 10.6036C20.8384 10.4725 20.3794 9.74991 20.0588 9.47363H20.026C19.7055 9.74637 19.2501 10.469 18.6526 10.6C14.2556 11.5635 11.5415 14.1704 10.3321 18.3819C9.30109 18.428 8.31749 18.4705 7.33388 18.513C7.23552 18.6724 7.13352 18.8282 7.03516 18.9876C7.35574 19.1506 7.66904 19.3241 7.9969 19.4694C9.8439 20.2911 10.3321 21.8957 10.8749 23.6419C12.0078 27.2938 15.567 29.8051 19.629 29.9964C19.629 27.5878 19.68 25.1827 19.6144 22.7812C19.5452 20.2415 17.72 18.5449 15.0643 18.4528C14.1863 18.4209 13.3047 18.4492 12.3831 18.4492C13.1007 15.3145 15.3667 13.1432 18.2046 12.828C17.5634 15.5837 17.9313 18.0632 20.037 20.1282C22.139 18.0667 22.5069 15.5873 21.8658 12.8315C24.7036 13.1468 26.9696 15.3181 27.6873 18.4528C26.7656 18.4528 25.884 18.428 25.006 18.4563C22.3539 18.5484 20.5251 20.2451 20.4559 22.7847C20.3903 25.1863 20.4413 27.5913 20.4413 30C24.5033 29.8087 28.0625 27.2973 29.1954 23.6455C29.7383 21.8992 30.2264 20.2947 32.0734 19.4729C32.4013 19.3277 32.7146 19.1506 33.0352 18.9912C32.9368 18.8318 32.8348 18.6759 32.7364 18.5165H32.751ZM17.3193 27.4957C14.6964 27.1875 12.5834 24.6054 12.0661 20.9039C16.853 19.8484 17.8767 21.6761 17.3193 27.4957ZM22.7692 27.4957C22.2118 21.6761 23.2355 19.8448 28.0224 20.9039C27.5051 24.6089 25.3958 27.1875 22.7692 27.4957Z" fill="white"/>
<circle cx="20" cy="20" r="19.5" stroke="black" stroke-opacity="0.05"/>
</svg>
