<svg width="40" height="40" viewBox="0 0 40 40" fill="none" xmlns="http://www.w3.org/2000/svg">
<circle cx="20" cy="20" r="20" fill="#045FAD"/>
<g clip-path="url(#clip0_18553_55870)">
<path d="M11.9515 17.9998H11.985C12.5046 18.0054 12.985 18.0673 13.4208 18.1797C14.0632 18.3485 14.2196 19.0909 14.1079 19.6702C13.9794 20.3226 13.8062 20.9863 13.4599 21.5206C13.1247 22.0436 12.3425 22.2405 11.756 22.2405C11.2699 22.2405 10.7392 22.2067 10.1638 22.1392C9.92914 22.1111 9.74478 22.0493 9.60512 21.9593C9.09674 21.6274 9.1135 20.8738 9.21406 20.317C9.32579 19.6983 9.52691 19.0571 9.91797 18.5847C10.404 17.9941 11.2587 18.0223 11.9515 17.9941V17.9998ZM11.0241 19.3665C10.7951 19.732 10.2643 21.0931 10.985 21.2337C11.1638 21.2675 11.3537 21.2844 11.5548 21.2844C11.9291 21.2844 12.1917 21.065 12.3425 20.7332C12.5269 20.3226 12.7448 19.7096 12.5939 19.3046C12.4934 19.0346 12.1079 19.0009 11.8509 19.0009C11.5101 19.0009 11.2141 19.0571 11.0241 19.3608V19.3665Z" fill="white"/>
<path d="M5.03516 20.6826V20.6433C5.06868 20.019 5.24745 19.4734 5.5603 19.001C6.04633 18.2754 6.9346 18.0111 7.80611 18.0448C8.29773 18.0673 8.78935 18.1123 9.28097 18.1742C9.40946 18.1911 9.45974 18.2642 9.4318 18.3879L9.25303 19.1528C9.23069 19.2541 9.13571 19.3215 9.03516 19.3215C8.72789 19.3103 8.40946 19.2934 8.07426 19.2765C7.37594 19.2484 6.71113 19.4453 6.56588 20.2327C6.43739 20.9132 7.05192 21.0763 7.56588 21.0819C7.87873 21.0876 8.23069 21.0819 8.62175 21.0707C8.69996 21.0707 8.76141 21.1269 8.76141 21.2057C8.76141 21.2169 8.76141 21.2282 8.76141 21.2394C8.71113 21.47 8.66085 21.7006 8.60499 21.9143C8.57706 22.0381 8.49884 22.1056 8.37035 22.1168C7.83963 22.1674 7.35918 22.1956 6.92342 22.2012C6.70555 22.2012 6.4765 22.1787 6.23069 22.1168C5.46532 21.9481 5.06868 21.4644 5.03516 20.6826Z" fill="white"/>
<path d="M18.2977 19.9405C18.2977 19.9405 18.2753 19.9405 18.2697 19.9574C17.901 20.5648 17.5155 21.2116 17.1021 21.8978C17.0351 22.0102 16.9401 22.0721 16.8116 22.0777C16.644 22.0834 16.4708 22.0834 16.3032 22.0777C16.2027 22.0777 16.1245 21.999 16.1077 21.9034L15.7949 20.0361C15.7725 19.9124 15.7446 19.9068 15.7167 20.0361L15.2586 21.8978C15.2306 22.0102 15.1301 22.089 15.0127 22.089H14.0518C13.9122 22.089 13.8563 22.0215 13.8898 21.8809L14.6999 18.4107C14.7278 18.3038 14.8228 18.2251 14.9345 18.2251H16.5491C16.6496 18.2251 16.7334 18.3038 16.7446 18.4051L16.8842 20.2723C16.8842 20.2723 16.901 20.3061 16.9178 20.3117C16.9345 20.3117 16.9513 20.3117 16.9625 20.2892C17.32 19.6537 17.672 19.0294 18.0183 18.4107C18.0854 18.2926 18.1859 18.2363 18.3256 18.2363C18.8842 18.2363 19.4261 18.2363 19.9457 18.2363C20.0183 18.2363 20.0798 18.2982 20.0798 18.3713C20.0798 18.3826 20.0798 18.3938 20.0798 18.4051L19.2474 21.909C19.225 22.0159 19.1301 22.089 19.0239 22.089H18.0686C17.9289 22.089 17.8787 22.0215 17.9066 21.8865L18.32 19.9799C18.32 19.9799 18.32 19.9574 18.3088 19.9574L18.2977 19.9405Z" fill="white"/>
<path d="M35.0353 18.2304V18.3091L33.5102 20.1595C33.4822 20.1933 33.4766 20.2327 33.4878 20.272L34.1023 22.1843C34.1247 22.2518 34.0856 22.3193 34.0241 22.3418C34.013 22.3418 34.0018 22.3474 33.985 22.3474C33.6163 22.3474 33.2588 22.3474 32.9068 22.3474C32.7783 22.3474 32.6666 22.2912 32.6219 22.1618C32.4822 21.7625 32.337 21.3463 32.1861 20.9132C32.1861 20.8963 32.175 20.8907 32.1582 20.8851C32.1415 20.8738 32.1191 20.8851 32.1023 20.9019C31.6331 21.5487 31.1638 22.1955 30.6945 22.8536C30.6275 22.9492 30.5046 23.0054 30.3873 23.0054C29.8901 23.0054 29.4096 23.0054 28.9459 23.0054C28.9236 23.0054 28.9012 22.9998 28.8845 22.9829C28.8509 22.9548 28.8509 22.9267 28.8733 22.8929C29.0297 22.6961 29.175 22.5105 29.3202 22.3305C29.3426 22.3024 29.337 22.2574 29.3091 22.2349C29.2979 22.2237 29.2811 22.218 29.2699 22.218H28.4711C28.3761 22.218 28.2979 22.1393 28.2979 22.0381V21.65C28.2979 21.56 28.2253 21.4869 28.1359 21.4869C27.7504 21.4869 27.3649 21.4869 26.9794 21.4869C26.7336 21.4869 26.6498 21.7793 26.5381 21.9424C26.4655 22.0549 26.3482 22.0774 26.2253 22.0774C25.4152 22.0774 24.6107 22.0774 23.823 22.0774C23.7504 22.0774 23.6889 22.0156 23.6889 21.9424C23.6889 21.9312 23.6889 21.9256 23.6889 21.9143L24.1135 19.9683C24.1135 19.9683 24.1135 19.9458 24.0968 19.9402C24.0856 19.9402 24.08 19.9402 24.0688 19.9514C23.661 20.6264 23.2699 21.2788 22.8845 21.9143C22.823 22.0156 22.7336 22.0662 22.6107 22.0718C22.4599 22.0774 22.2979 22.0831 22.1303 22.0718C21.9962 22.0718 21.918 21.9987 21.8956 21.8637L21.5884 20.0246C21.566 19.8952 21.5381 19.8952 21.5102 20.0246L21.0521 21.8862C21.0241 21.9987 20.9236 22.0774 20.8118 22.0774H19.8398C19.7001 22.0774 19.6498 22.0099 19.6834 21.875L20.499 18.3935C20.5213 18.2923 20.6107 18.2192 20.7169 18.2192H22.3146C22.4543 18.2192 22.5269 18.2867 22.5381 18.4273L22.6778 20.272C22.6778 20.272 22.6945 20.3058 22.7169 20.3058C22.7392 20.3058 22.7504 20.2945 22.7616 20.2777C23.1079 19.659 23.4599 19.0403 23.8118 18.4104C23.8733 18.3035 23.9739 18.2248 24.1023 18.2248C24.6778 18.2248 25.2253 18.2248 25.7448 18.2248C25.8174 18.2248 25.8789 18.2867 25.8789 18.3598C25.8789 18.371 25.8789 18.3823 25.8789 18.3935L25.0968 21.6837C25.0968 21.6837 25.0968 21.695 25.1023 21.695C25.1079 21.695 25.1135 21.695 25.1191 21.695C25.7057 20.632 26.3146 19.5296 26.9403 18.3935C27.0018 18.281 27.1135 18.2135 27.242 18.2135C28.0521 18.2135 28.8286 18.2135 29.5772 18.2135C29.6778 18.2135 29.756 18.2979 29.756 18.3935V21.65C29.756 21.65 29.7727 21.6894 29.7951 21.6894H29.8063C29.823 21.6837 29.8398 21.6725 29.8509 21.6612C30.1806 21.2507 30.5325 20.8176 30.8956 20.3564C30.9794 20.2552 31.0018 20.137 30.9627 20.0021C30.8063 19.4621 30.6554 18.9166 30.5046 18.371C30.4878 18.3035 30.5269 18.236 30.594 18.2135C30.6051 18.2135 30.6163 18.2135 30.6275 18.2135H31.823C31.9403 18.2135 32.0409 18.2923 32.0744 18.4048L32.3314 19.2934C32.3314 19.2934 32.3482 19.3215 32.3593 19.3271C32.3984 19.3496 32.4375 19.3328 32.4766 19.2878C32.7169 18.9672 32.9459 18.6522 33.1694 18.3541C33.2476 18.2473 33.3761 18.2192 33.5158 18.2135C34.0185 18.2079 34.5213 18.2135 35.0241 18.2304H35.0353ZM28.1638 19.0403C27.8789 19.5634 27.5996 20.0752 27.3146 20.5814C27.2923 20.6264 27.3035 20.6826 27.3482 20.7051C27.3593 20.7107 27.3761 20.7163 27.3928 20.7163H28.1023C28.242 20.7163 28.309 20.6489 28.309 20.5082V18.9053C28.309 18.8435 28.2923 18.8378 28.2532 18.8885C28.2197 18.9334 28.1917 18.9841 28.1582 19.0403H28.1638Z" fill="white"/>
</g>
<circle cx="20" cy="20" r="19.5" stroke="black" stroke-opacity="0.05"/>
<defs>
<clipPath id="clip0_18553_55870">
<rect width="30" height="5" fill="white" transform="translate(5.03516 18)"/>
</clipPath>
</defs>
</svg>
