<svg width="40" height="40" viewBox="0 0 40 40" fill="none" xmlns="http://www.w3.org/2000/svg">
<circle cx="20" cy="20" r="20" fill="#555555"/>
<path d="M24.6628 16.0012C23.6394 16.0048 22.6162 16.0067 21.5931 16.0067H20.7986L16.4819 16.0088C16.3593 16.0078 16.2368 16.0194 16.1164 16.0432C15.7277 16.1242 15.4618 16.3453 15.3422 16.7289C15.2965 16.8789 15.2735 17.0349 15.2739 17.1917C15.2739 17.5844 15.2739 17.9771 15.2739 18.368C15.272 18.4759 15.281 18.5837 15.3008 18.6897C15.3742 19.0471 15.5745 19.2975 15.9231 19.4207C16.0942 19.4793 16.274 19.5079 16.4548 19.5053C18.7149 19.5053 20.9753 19.5053 23.2358 19.5053C23.2826 19.5053 23.3298 19.5074 23.3766 19.5111C23.5397 19.5238 23.6349 19.6138 23.6382 19.7778C23.644 20.0346 23.644 20.2913 23.6382 20.5481C23.6346 20.7043 23.5578 20.7828 23.4044 20.8085C23.3656 20.8143 23.3264 20.8169 23.2872 20.8163H15.4183C15.28 20.8163 15.2806 20.8163 15.2797 20.9529C15.2776 21.2468 15.2779 21.5407 15.2697 21.8347C15.2676 21.9002 15.2839 21.9096 15.3428 21.9096C17.9854 21.9082 20.63 21.9082 23.2766 21.9096C23.4726 21.9096 23.6627 21.9132 23.8505 21.8763C24.2022 21.8075 24.474 21.6329 24.6208 21.2942C24.6985 21.1076 24.7373 20.907 24.7347 20.7049C24.7365 20.34 24.7347 19.9754 24.7347 19.6108C24.7356 19.4874 24.7233 19.3642 24.6982 19.2434C24.6166 18.8619 24.3961 18.6018 24.0215 18.4819C23.8604 18.4318 23.6924 18.407 23.5237 18.4085C21.2593 18.4085 18.995 18.4085 16.7309 18.4085C16.7112 18.4085 16.6916 18.4085 16.6704 18.4085C16.475 18.4012 16.3765 18.3088 16.3726 18.114C16.3678 17.8723 16.3684 17.6306 16.3726 17.3905C16.3756 17.2026 16.4732 17.1092 16.6623 17.1005C16.6859 17.1005 16.7094 17.1005 16.7327 17.1005C19.3795 17.1005 22.0261 17.1005 24.6725 17.1005C24.7199 17.1005 24.7329 17.0914 24.7329 17.0401C24.7301 16.7179 24.7301 16.3964 24.7329 16.0758C24.7371 16.0178 24.7257 16.0012 24.6628 16.0012Z" fill="white"/>
<path d="M14.3516 21.2998C14.4297 21.1112 14.4686 20.9087 14.4657 20.7047C14.4675 19.9597 14.4657 19.2145 14.4675 18.4693C14.4675 18.4246 14.4561 18.4155 14.4129 18.4155C12.7859 18.4167 11.1587 18.4167 9.53129 18.4155C9.48598 18.4155 9.47782 18.4279 9.47812 18.4705C9.47993 18.7939 9.47993 19.1173 9.47812 19.4408C9.47812 19.4927 9.49051 19.5042 9.54156 19.5042C10.7885 19.5024 12.0354 19.5019 13.2822 19.5027C13.2979 19.5039 13.3136 19.5039 13.3293 19.5027C13.3674 19.4967 13.3743 19.5139 13.3737 19.5486C13.3719 19.6879 13.3737 19.8271 13.3737 19.9664C13.3737 20.1525 13.3767 20.3389 13.3707 20.5249C13.3647 20.711 13.2644 20.805 13.0759 20.8086H6.44042C6.4229 20.8086 6.40508 20.8086 6.38756 20.8086C6.22534 20.8019 6.1314 20.7128 6.11569 20.5506C6.11327 20.5252 6.11267 20.4999 6.11267 20.4742C6.11267 19.4725 6.11267 18.4707 6.11267 17.4688C6.11267 17.2054 6.20752 17.1117 6.46972 17.1117C9.11452 17.1117 11.7592 17.1117 14.4038 17.1117C14.4555 17.1117 14.4679 17.0997 14.4675 17.048C14.4647 16.7228 14.4647 16.3973 14.4675 16.0717C14.4675 16.0234 14.457 16.0113 14.4071 16.0113C13.8993 16.0134 13.3915 16.0113 12.878 16.0113H6.20843C6.09474 16.0104 5.98124 16.0206 5.86949 16.0415C5.47528 16.1185 5.20492 16.3375 5.08198 16.7269C5.03202 16.8983 5.00809 17.0762 5.01099 17.2546C5.00857 17.7132 5.01099 18.172 5.00857 18.6306C5.00676 19.2658 5.00475 19.9008 5.00253 20.5358C5.00253 20.5437 5.00253 20.5515 5.00253 20.5594C4.99382 20.7139 5.00397 20.8689 5.03274 21.0209C5.0998 21.3774 5.27652 21.6532 5.62149 21.7997C5.81104 21.876 6.01413 21.9129 6.2184 21.9081C8.55145 21.9081 10.8844 21.9081 13.2172 21.9081C13.3445 21.9093 13.4716 21.898 13.5967 21.8743C13.9431 21.8079 14.2078 21.6327 14.3516 21.2998Z" fill="white"/>
<path d="M34.9998 20.8895C34.9998 20.8312 34.9874 20.817 34.9279 20.817C32.2795 20.8188 29.6312 20.8194 26.9832 20.8185C26.9539 20.8193 26.9246 20.8184 26.8953 20.8158C26.7606 20.8013 26.6839 20.7361 26.6564 20.6116C26.6482 20.5753 26.644 20.5383 26.6437 20.5011C26.6437 19.468 26.6437 18.4348 26.6437 17.4017C26.6437 17.2181 26.7262 17.1271 26.9071 17.1054C26.9305 17.1034 26.954 17.1028 26.9775 17.1036H33.9344C34.2754 17.1036 34.6107 17.1036 34.946 17.1036C34.991 17.1036 35.0004 17.0912 35.0001 17.0483C34.998 16.7287 35.0001 16.4091 35.0001 16.0895C35.0001 16.0007 35.0119 16.0125 34.9218 16.0125H26.7222C26.6108 16.0117 26.4995 16.0218 26.3899 16.0427C26.0456 16.1113 25.7831 16.2865 25.6444 16.6197C25.5734 16.7985 25.5385 16.9897 25.5417 17.1821C25.5417 18.3407 25.5417 19.4992 25.5417 20.6575C25.5404 20.781 25.5505 20.9042 25.5719 21.0258C25.6299 21.336 25.7683 21.5943 26.0528 21.7541C26.2576 21.8692 26.4833 21.9078 26.7144 21.9081C29.4566 21.9096 32.199 21.9102 34.9415 21.91C34.9865 21.91 35.0019 21.9 35.0004 21.8526C34.9965 21.5327 34.9965 21.2109 34.9998 20.8895Z" fill="white"/>
<path d="M13.851 23.4021C14.4061 23.4021 14.9609 23.4021 15.5155 23.4021C15.5593 23.4021 15.5777 23.394 15.5759 23.3454C15.5721 23.2729 15.5721 23.2003 15.5759 23.1279C15.5759 23.0901 15.5644 23.0819 15.5294 23.0825C15.4019 23.0847 15.2744 23.0825 15.147 23.0825C14.6648 23.0825 14.1826 23.0825 13.7003 23.0825C13.4888 23.0825 13.3925 23.168 13.3735 23.3738V23.626C13.3735 23.8374 13.4641 23.9347 13.6755 23.945C13.6912 23.945 13.7057 23.945 13.7227 23.945H15.1044C15.2554 23.945 15.2512 23.945 15.2554 24.0945C15.2572 24.1531 15.2376 24.1658 15.1823 24.1655C14.8255 24.1631 14.4688 24.1655 14.112 24.1655C13.8849 24.1655 13.6574 24.167 13.4299 24.1655C13.3822 24.1655 13.3695 24.1797 13.3728 24.2259C13.376 24.2945 13.3754 24.3631 13.371 24.4316C13.368 24.4754 13.3804 24.4872 13.4251 24.4869C13.7936 24.4848 14.1622 24.4869 14.5307 24.4869C14.7775 24.4869 15.0246 24.4869 15.2717 24.4869C15.4478 24.4869 15.5599 24.3915 15.5699 24.2289C15.5765 24.1134 15.5765 23.9977 15.5699 23.8822C15.5623 23.7429 15.4702 23.6511 15.3327 23.6338C15.3016 23.6302 15.2704 23.6284 15.2391 23.6284C14.7449 23.6284 14.2509 23.6284 13.7571 23.6284C13.7106 23.6284 13.6906 23.6172 13.6903 23.5665C13.6906 23.4021 13.6888 23.4021 13.851 23.4021Z" fill="white"/>
<path d="M7.23555 23.0816C7.0827 23.084 6.92985 23.0816 6.7767 23.0816C6.30666 23.0816 5.83633 23.0816 5.36599 23.0864C5.19471 23.0879 5.09412 23.1946 5.0914 23.3652C5.08838 23.6357 5.08707 23.906 5.08747 24.1763C5.08747 24.3733 5.19743 24.4811 5.39439 24.4814C5.92363 24.4814 6.45277 24.4814 6.98181 24.4814C7.17 24.4814 7.27482 24.3908 7.28389 24.205C7.29385 24.0238 7.28781 23.8407 7.29053 23.6585C7.29053 23.6223 7.2721 23.6226 7.24673 23.6226C6.87638 23.6226 6.50593 23.6226 6.13538 23.6226C6.10518 23.6226 6.08977 23.6271 6.09098 23.6634C6.094 23.7437 6.09309 23.8241 6.09098 23.905C6.09098 23.9325 6.09793 23.9431 6.12692 23.9422C6.18372 23.9401 6.24081 23.9422 6.30334 23.9422C6.47583 23.9422 6.64257 23.9422 6.80902 23.9422C6.85947 23.9422 6.92562 23.9204 6.95643 23.951C6.98724 23.9815 6.96247 24.0515 6.96821 24.102C6.97365 24.1485 6.95371 24.1645 6.9078 24.1642C6.42568 24.1642 5.94346 24.1642 5.46114 24.1642C5.42187 24.1642 5.40707 24.1512 5.40737 24.1092C5.40919 23.8936 5.40979 23.6782 5.40737 23.4625C5.40737 23.4148 5.42218 23.4021 5.46779 23.4021C5.6149 23.4042 5.76171 23.4021 5.90882 23.4021C6.34986 23.4021 6.79089 23.4021 7.23193 23.4021C7.27845 23.4021 7.29234 23.3903 7.28962 23.3438C7.28539 23.2734 7.28539 23.2027 7.28962 23.1323C7.29355 23.0888 7.27543 23.081 7.23555 23.0816Z" fill="white"/>
<path d="M23.4471 23.0819C23.0217 23.0819 22.5964 23.0819 22.1714 23.0819C21.9775 23.0819 21.7832 23.0804 21.5896 23.0868C21.4026 23.0931 21.3059 23.1928 21.3032 23.3798C21.2994 23.648 21.2988 23.9164 21.3014 24.1848C21.3029 24.3724 21.4126 24.4809 21.5992 24.4812C22.1363 24.4828 22.6733 24.4828 23.2102 24.4812C23.3888 24.4812 23.4963 24.376 23.5008 24.1972C23.5054 24.0184 23.5008 23.8405 23.5029 23.6622C23.5029 23.632 23.4942 23.6221 23.4631 23.6224C23.0909 23.6224 22.7183 23.6224 22.3454 23.6224C22.317 23.6224 22.3082 23.6314 22.3088 23.6595C22.3103 23.7338 22.3119 23.8084 22.3088 23.8828C22.3067 23.9272 22.3173 23.9432 22.3656 23.9432C22.5892 23.9405 22.8124 23.9432 23.0359 23.9432C23.0828 23.9432 23.1462 23.9266 23.1722 23.9501C23.2024 23.9782 23.1761 24.0432 23.183 24.0909C23.1921 24.1513 23.1646 24.1673 23.1081 24.1673C22.6361 24.1657 22.1638 24.1657 21.6914 24.1673C21.6364 24.1673 21.6219 24.1486 21.6228 24.0957C21.6255 23.9145 21.6228 23.7353 21.6228 23.549C21.6242 23.5255 21.6242 23.502 21.6228 23.4786C21.6162 23.4242 21.634 23.4028 21.6935 23.4046C21.8325 23.4088 21.9717 23.4046 22.1107 23.4046C22.5556 23.4046 23.0006 23.4046 23.4452 23.4046C23.493 23.4046 23.5057 23.391 23.5023 23.346C23.4983 23.2755 23.4983 23.2049 23.5023 23.1345C23.5063 23.0886 23.4887 23.0816 23.4471 23.0819Z" fill="white"/>
<path d="M12.9317 23.6532C12.9317 23.4771 12.9299 23.3065 12.9317 23.1361C12.9317 23.0905 12.9181 23.0793 12.8752 23.0817C12.8109 23.0853 12.7459 23.0844 12.6813 23.0817C12.6668 23.0813 12.6524 23.0838 12.6388 23.089C12.6253 23.0941 12.6129 23.1019 12.6024 23.1119C12.304 23.3593 12.0046 23.6055 11.7068 23.8538C11.6747 23.8807 11.6569 23.8813 11.624 23.8538C11.3159 23.6058 11.0062 23.3602 10.6969 23.1137C10.6779 23.0939 10.6519 23.0821 10.6244 23.0808C10.5519 23.0832 10.4794 23.0826 10.4069 23.0808C10.3767 23.0808 10.3652 23.0866 10.3652 23.1195C10.3664 23.5601 10.3664 24.0009 10.3652 24.442C10.3652 24.4722 10.3749 24.4825 10.4054 24.4819C10.48 24.48 10.5546 24.4782 10.6286 24.4819C10.6764 24.4843 10.6912 24.4731 10.6906 24.4214C10.6879 24.1375 10.6891 23.8532 10.6906 23.5693C10.6906 23.5536 10.6824 23.5348 10.7002 23.5209C11.0084 23.7674 11.3162 24.0127 11.6225 24.2598C11.659 24.29 11.6805 24.2918 11.7185 24.2598C11.962 24.0538 12.2082 23.8508 12.4538 23.6469C12.5024 23.6064 12.5517 23.5663 12.6076 23.5203V23.5656C12.6076 23.8538 12.6076 24.1417 12.6076 24.4299C12.6076 24.4716 12.6193 24.4828 12.6598 24.4809C12.7303 24.4773 12.8008 24.4773 12.8713 24.4809C12.919 24.4837 12.9341 24.4707 12.9335 24.4205C12.9302 24.1686 12.9317 23.9139 12.9317 23.6532Z" fill="white"/>
<path d="M26.9182 24.1637C26.334 24.1658 25.7501 24.1637 25.1662 24.1661C25.1154 24.1661 25.0976 24.1531 25.0994 24.1002C25.1033 23.9885 25.0994 23.8767 25.0994 23.7592V23.4873C25.0994 23.3991 25.0994 23.3991 25.19 23.3991C25.7682 23.3991 26.3465 23.3991 26.9249 23.3991C26.9675 23.3991 26.9871 23.3928 26.9835 23.3435C26.9794 23.275 26.9794 23.2063 26.9835 23.1378C26.9856 23.094 26.9759 23.0774 26.9276 23.0795C26.704 23.0822 26.4808 23.0795 26.2573 23.0795H25.0885C24.8867 23.0795 24.7828 23.1831 24.7822 23.3816C24.7822 23.6434 24.7822 23.906 24.7822 24.1694C24.7822 24.376 24.8867 24.4781 25.0949 24.4784H25.5888C26.0359 24.4784 26.4826 24.4784 26.9294 24.4784C26.9708 24.4784 26.9898 24.4724 26.985 24.4253C26.9803 24.3588 26.9803 24.2921 26.985 24.2256C26.9871 24.1788 26.9729 24.1634 26.9182 24.1637Z" fill="white"/>
<path d="M20.8054 23.0817C20.735 23.0858 20.6644 23.0858 20.5939 23.0817C20.545 23.0784 20.5369 23.0974 20.5372 23.1422C20.539 23.4343 20.5372 23.7261 20.5372 24.0182V24.0822L19.16 23.2183C19.0262 23.1113 18.8815 23.0564 18.712 23.0836H18.7063C18.6652 23.0769 18.654 23.0938 18.6543 23.1349C18.6573 23.4506 18.6579 23.7659 18.6591 24.0813C18.6591 24.1991 18.6591 24.3166 18.6591 24.4341C18.6591 24.4713 18.6667 24.4864 18.7072 24.4846C18.7796 24.4808 18.8522 24.4808 18.9247 24.4846C18.9715 24.487 18.9833 24.4725 18.983 24.4263C18.9805 24.1342 18.983 23.8421 18.983 23.5503V23.4811C19.0089 23.4968 19.0256 23.5062 19.0416 23.5161C19.4902 23.7989 19.9412 24.0771 20.3849 24.3668C20.5172 24.4529 20.6477 24.506 20.8048 24.4837C20.8087 24.4832 20.8127 24.4832 20.8166 24.4837C20.8543 24.49 20.8622 24.4722 20.8619 24.4375C20.8601 24.2904 20.8619 24.1432 20.8619 23.9964C20.8619 23.7101 20.8619 23.424 20.8619 23.1379C20.8613 23.0926 20.8498 23.0793 20.8054 23.0817Z" fill="white"/>
<path d="M18.1706 23.0823C18.0981 23.0841 18.0256 23.086 17.9531 23.0823C17.9074 23.0796 17.8987 23.095 17.899 23.1379C17.9008 23.4536 17.899 23.769 17.899 24.0843C17.899 24.1653 17.899 24.1656 17.818 24.1656H16.7248C16.617 24.1656 16.5149 24.1635 16.4131 24.1656C16.3572 24.1671 16.3345 24.1523 16.3351 24.0901C16.3381 23.7708 16.3351 23.4515 16.3372 23.1319C16.3372 23.0965 16.3324 23.0796 16.2907 23.0814C16.2125 23.0851 16.1339 23.0838 16.0554 23.0814C16.0222 23.0814 16.0122 23.0911 16.0122 23.1246C16.0146 23.4832 16.0122 23.8418 16.0182 24.2C16.021 24.3813 16.1285 24.4813 16.3095 24.4819C16.8461 24.4831 17.383 24.4831 17.9201 24.4819C18.1041 24.4819 18.2147 24.3734 18.2159 24.1901C18.2186 23.8354 18.2159 23.4808 18.2177 23.1261C18.2177 23.0872 18.2029 23.0814 18.1706 23.0823Z" fill="white"/>
<path d="M32.2694 23.7343C32.2712 23.6135 32.2712 23.492 32.2694 23.3697C32.266 23.1885 32.1645 23.0827 31.9839 23.0821C31.3589 23.08 30.7339 23.0821 30.1092 23.0803C30.0702 23.0803 30.0645 23.0951 30.0651 23.1287C30.0672 23.2226 30.0651 23.3168 30.0651 23.4168C30.0651 23.7615 30.0651 24.1004 30.063 24.4394C30.063 24.4732 30.0714 24.4832 30.105 24.4823C30.1832 24.4799 30.2618 24.4789 30.34 24.4823C30.3811 24.4841 30.3883 24.4684 30.3877 24.4315C30.3856 24.314 30.3877 24.1965 30.3859 24.079C30.3859 24.0382 30.3959 24.0273 30.437 24.0276C30.8307 24.0293 31.2244 24.0293 31.6181 24.0276C31.6313 24.0262 31.6447 24.029 31.6562 24.0356C31.6678 24.0422 31.677 24.0523 31.6824 24.0645C31.7546 24.192 31.8289 24.3182 31.9032 24.4445C31.9126 24.4605 31.918 24.4814 31.9437 24.4814C32.0624 24.4814 32.1812 24.4814 32.3098 24.4814L32.0416 24.0249C32.2035 23.9742 32.2666 23.8935 32.2694 23.7343ZM31.893 23.7114C31.4048 23.7102 30.9167 23.7102 30.4285 23.7114C30.395 23.7114 30.3856 23.702 30.3868 23.6691C30.3907 23.6044 30.3907 23.5395 30.3868 23.4748C30.3817 23.4168 30.398 23.3906 30.4644 23.4029H31.87C31.9519 23.4029 31.9519 23.4029 31.9519 23.4878C31.9519 23.5428 31.9519 23.5978 31.9519 23.6528C31.9525 23.6947 31.9377 23.7129 31.893 23.7126V23.7114Z" fill="white"/>
<path d="M9.92635 23.3317C9.91094 23.1925 9.82394 23.0994 9.68468 23.0883C9.57563 23.0795 9.46537 23.084 9.34998 23.0825C8.90895 23.0825 8.47395 23.0825 8.03866 23.0825C7.84563 23.0825 7.73658 23.1834 7.73356 23.3767C7.72933 23.7314 7.73356 24.086 7.73145 24.4407C7.73145 24.4754 7.74323 24.4839 7.77555 24.483C7.85197 24.4811 7.9284 24.4805 8.00483 24.483C8.04138 24.483 8.05165 24.473 8.05104 24.4367C8.04893 24.3159 8.05104 24.1936 8.04953 24.0721C8.04953 24.0362 8.05829 24.0262 8.09485 24.0265C8.58482 24.0277 9.07479 24.0277 9.56476 24.0265C9.60161 24.0265 9.61007 24.0365 9.60947 24.0721C9.60705 24.193 9.60947 24.3153 9.60765 24.4367C9.60765 24.4715 9.6143 24.4851 9.65236 24.4833C9.72879 24.4802 9.80521 24.4799 9.88164 24.4833C9.92393 24.4851 9.93329 24.4706 9.93329 24.4301C9.93178 24.089 9.93329 23.7483 9.93329 23.4073C9.93231 23.382 9.92999 23.3568 9.92635 23.3317ZM9.56144 23.7069C9.39106 23.7048 9.22039 23.7069 9.04397 23.7069C8.7283 23.7069 8.41867 23.7069 8.10904 23.7069C8.06494 23.7069 8.04561 23.6991 8.04863 23.6501C8.05316 23.5858 8.05104 23.5208 8.04863 23.4562C8.04863 23.4151 8.06554 23.3991 8.10421 23.4006C8.12566 23.4006 8.14741 23.4006 8.16885 23.4006H9.52156C9.60735 23.4006 9.60735 23.4006 9.60735 23.4879C9.60735 23.5447 9.60493 23.6015 9.60735 23.6583C9.61128 23.6963 9.6004 23.7075 9.56144 23.7069Z" fill="white"/>
<path d="M29.3336 23.0838C28.7929 23.0808 28.252 23.0808 27.7111 23.0838C27.5356 23.0838 27.4335 23.1802 27.4287 23.3557C27.4208 23.6336 27.4184 23.9121 27.426 24.19C27.4314 24.3954 27.5356 24.4842 27.741 24.4842H28.7346C28.9403 24.4842 29.14 24.4821 29.3387 24.48C29.5218 24.4782 29.626 24.3749 29.6269 24.1909C29.6285 23.9225 29.6285 23.654 29.6269 23.3856C29.6269 23.1968 29.5212 23.085 29.3336 23.0838ZM29.2463 24.1619C28.7666 24.1603 28.2869 24.1603 27.8072 24.1619C27.7564 24.1619 27.745 24.1453 27.7468 24.0979C27.7489 23.8885 27.7492 23.6789 27.7468 23.4696C27.7468 23.4182 27.7601 23.4028 27.8123 23.4031C28.2863 23.4049 28.7602 23.4031 29.2396 23.4031C29.2982 23.3946 29.3118 23.42 29.3112 23.4696C29.3094 23.6792 29.3091 23.8885 29.3112 24.0982C29.3103 24.1483 29.2949 24.1622 29.2463 24.1619Z" fill="white"/>
<path d="M34.6007 23.0829H32.761C32.7329 23.0829 32.71 23.0786 32.71 23.1227C32.7118 23.5634 32.7118 24.0043 32.71 24.4455C32.71 24.4785 32.7223 24.4842 32.751 24.4836C32.8314 24.4836 32.9117 24.4815 32.9927 24.4836C33.0265 24.4836 33.0362 24.4733 33.0356 24.4404C33.0338 24.3265 33.0374 24.2129 33.0338 24.0994C33.0338 24.048 33.0432 24.0296 33.0999 24.0305C33.3368 24.0341 33.5739 24.032 33.8171 24.032C34.0856 24.032 34.3481 24.0338 34.6106 24.032C34.807 24.0302 34.9127 23.9223 34.9127 23.7299C34.9127 23.6182 34.9127 23.5064 34.9127 23.3949C34.9121 23.1873 34.8081 23.0833 34.6007 23.0829ZM34.5913 23.6478C34.5937 23.6967 34.5765 23.7115 34.5273 23.7112C34.2252 23.7097 33.9231 23.7112 33.6162 23.7112C33.4349 23.7112 33.2576 23.7112 33.0812 23.7112C33.0413 23.7112 33.0317 23.6997 33.0332 23.662C33.0359 23.5934 33.0368 23.5245 33.0332 23.4562C33.0308 23.4121 33.0435 23.4007 33.0879 23.4013C33.3818 23.4034 33.6757 23.4013 33.9696 23.4013C34.1578 23.4013 34.346 23.4013 34.5342 23.4013C34.5777 23.4013 34.5946 23.4133 34.5916 23.4578C34.5883 23.521 34.5882 23.5845 34.5913 23.6478Z" fill="white"/>
<circle cx="20" cy="20" r="19.5" stroke="black" stroke-opacity="0.05"/>
</svg>
