<svg width="40" height="40" viewBox="0 0 40 40" fill="none" xmlns="http://www.w3.org/2000/svg">
<circle cx="20" cy="20" r="20" fill="#0F4E9F"/>
<path d="M8.78693 16.4321C6.87456 12.7168 14.3322 10.4852 16.6178 9.94863C16.6209 9.94748 16.6243 9.94705 16.6276 9.94737C16.631 9.94769 16.6342 9.94875 16.6371 9.95047C16.6399 9.95219 16.6424 9.95454 16.6442 9.95733C16.6461 9.96012 16.6473 9.9633 16.6478 9.96661C16.6496 9.97112 16.6505 9.97598 16.6502 9.98084C16.65 9.98571 16.6487 9.99046 16.6464 9.99476C16.6441 9.99906 16.6409 10.0028 16.637 10.0057C16.6331 10.0086 16.6286 10.0106 16.6238 10.0116C15.6225 10.3561 14.66 10.8047 13.7522 11.3499C11.9388 12.429 10.1238 14.3474 12.0931 16.4366C12.1183 16.4642 12.1492 16.4862 12.1835 16.5009C12.2179 16.5156 12.2551 16.5228 12.2925 16.522H13.4525C13.4857 16.5217 13.5175 16.5083 13.5411 16.4847C13.5646 16.4612 13.578 16.4294 13.5784 16.3962C13.5785 16.3643 13.5662 16.3336 13.5439 16.3107C12.8725 15.6033 12.2655 14.9509 11.7229 14.3534C11.7204 14.3514 11.7184 14.3489 11.717 14.3461C11.7157 14.3432 11.7149 14.3401 11.7149 14.3369C11.7149 14.3337 11.7157 14.3306 11.717 14.3277C11.7184 14.3249 11.7204 14.3224 11.7229 14.3204C11.7252 14.3173 11.7281 14.3148 11.7315 14.3131C11.7349 14.3113 11.7386 14.3104 11.7424 14.3104C11.7462 14.3104 11.75 14.3113 11.7534 14.3131C11.7568 14.3148 11.7597 14.3173 11.7619 14.3204C12.3384 14.8919 12.9604 15.5199 13.6278 16.2043C13.6525 16.2288 13.6859 16.2426 13.7207 16.2426C13.7556 16.2426 13.789 16.2288 13.8137 16.2043C13.8374 16.1821 13.8515 16.1514 13.8526 16.1189C13.8956 15.2696 13.9316 14.4703 13.9605 13.7209C13.9605 13.7209 13.9605 13.7089 13.9725 13.7104C13.9845 13.7119 13.986 13.7209 13.9875 13.7389C14.034 14.4599 14.0385 15.183 14.001 15.9046C13.982 16.2972 14.1189 16.3632 14.4117 16.1024C14.9562 15.6188 15.5292 15.1107 16.1307 14.5782C16.1327 14.5757 16.1352 14.5737 16.138 14.5723C16.1409 14.5709 16.144 14.5702 16.1472 14.5702C16.1504 14.5702 16.1535 14.5709 16.1563 14.5723C16.1592 14.5737 16.1617 14.5757 16.1637 14.5782C16.1663 14.5806 16.1683 14.5835 16.1697 14.5867C16.1711 14.5899 16.1719 14.5934 16.1719 14.5969C16.1719 14.6005 16.1711 14.6039 16.1697 14.6072C16.1683 14.6104 16.1663 14.6133 16.1637 14.6157C15.5981 15.1722 15.0106 15.7342 14.4012 16.3017C14.2513 16.4516 14.2753 16.5176 14.4866 16.5161C17.7049 16.4911 20.9521 16.5141 24.2283 16.585C24.2301 16.5847 24.232 16.5849 24.2338 16.5855C24.2355 16.5861 24.2371 16.5871 24.2384 16.5884C24.2397 16.5897 24.2407 16.5913 24.2413 16.593C24.2419 16.5948 24.2421 16.5967 24.2418 16.5985C24.2418 16.621 24.2298 16.6315 24.2088 16.6315C20.9611 16.6315 17.6879 16.6315 14.4132 16.6674C14.3763 16.6682 14.3412 16.6834 14.3155 16.7097C14.2897 16.7361 14.2753 16.7715 14.2753 16.8083C14.2768 16.8434 14.2906 16.8768 14.3142 16.9027C14.8618 17.4762 15.3908 18.0348 15.9014 18.5783C15.9039 18.5806 15.906 18.5833 15.9074 18.5864C15.9088 18.5895 15.9095 18.5929 15.9095 18.5963C15.9095 18.5997 15.9088 18.6031 15.9074 18.6062C15.906 18.6093 15.9039 18.612 15.9014 18.6143C15.8993 18.6168 15.8966 18.6188 15.8937 18.6202C15.8907 18.6216 15.8874 18.6223 15.8842 18.6223C15.8809 18.6223 15.8776 18.6216 15.8746 18.6202C15.8717 18.6188 15.869 18.6168 15.8669 18.6143C15.3314 18.1107 14.7763 17.5727 14.2018 17.0001C14.1842 16.9826 14.1618 16.9705 14.1374 16.9655C14.113 16.9605 14.0877 16.9628 14.0646 16.9721C14.0414 16.9813 14.0215 16.9971 14.0073 17.0176C13.9931 17.038 13.9852 17.0622 13.9845 17.0871C13.9655 17.9693 13.9191 18.8231 13.8451 19.6484C13.8376 19.7338 13.8316 19.7338 13.8287 19.6484C13.7957 18.7931 13.7927 17.9144 13.8197 17.0121C13.8201 17.0027 13.8186 16.9932 13.8153 16.9844C13.8121 16.9755 13.8071 16.9673 13.8007 16.9604C13.7943 16.9534 13.7866 16.9478 13.778 16.9438C13.7694 16.9398 13.7602 16.9376 13.7507 16.9372C13.7411 16.9365 13.7314 16.9379 13.7224 16.9412C13.7133 16.9446 13.7051 16.9499 13.6983 16.9567L12.5382 18.0328C12.4946 18.0729 12.4638 18.125 12.4498 18.1826C12.0961 19.8312 10.1343 20.9373 8.71799 21.5593C7.2086 22.2227 5.63659 22.7333 4.02548 23.0835C4.02271 23.0844 4.01978 23.0847 4.01689 23.0843C4.01401 23.0839 4.01124 23.0829 4.00879 23.0813C4.00635 23.0797 4.00429 23.0776 4.00277 23.0752C4.00125 23.0727 4.0003 23.0699 4 23.067C4 23.0535 4 23.046 4.01199 23.043C5.46161 22.6696 6.82073 22.0069 8.0076 21.0947C9.31898 20.0605 9.80607 18.5468 9.11066 16.9762C9.06631 16.8738 9.00888 16.7775 8.9398 16.6899C8.92716 16.6737 8.91103 16.6606 8.8926 16.6515C8.87418 16.6424 8.85394 16.6376 8.83339 16.6374C7.90418 16.6225 6.99995 16.6145 6.1207 16.6135C6.11724 16.614 6.1137 16.6137 6.11038 16.6126C6.10706 16.6115 6.10405 16.6096 6.10157 16.6071C6.0991 16.6046 6.09723 16.6016 6.09613 16.5983C6.09503 16.595 6.09472 16.5915 6.09522 16.588C6.09493 16.5868 6.09497 16.5855 6.09532 16.5842C6.09567 16.583 6.09632 16.5819 6.09722 16.581C6.09812 16.5801 6.09924 16.5794 6.10046 16.5791C6.10168 16.5787 6.10297 16.5787 6.10421 16.579C6.9425 16.579 7.81126 16.57 8.7105 16.552C8.80642 16.5505 8.8274 16.5116 8.78693 16.4321ZM12.264 16.7139C12.4228 17.0487 12.4993 17.4166 12.4873 17.787C12.4873 17.8904 12.5143 17.9069 12.5892 17.8349L13.5559 16.9057C13.5813 16.8797 13.5956 16.8447 13.5956 16.8083C13.5956 16.7719 13.5813 16.7369 13.5559 16.7109C13.5431 16.6976 13.5277 16.687 13.5107 16.6798C13.4937 16.6725 13.4754 16.6689 13.457 16.6689H12.294C12.2855 16.6689 12.2773 16.6722 12.2712 16.678C12.265 16.6839 12.2614 16.6919 12.261 16.7004C12.2613 16.705 12.2623 16.7096 12.264 16.7139Z" fill="#6CC6E4"/>
<path d="M33.9941 22.7195C33.7461 22.4745 33.4283 22.3122 33.0844 22.2549C32.0023 22.0586 30.2368 21.8502 29.7168 20.6812C29.5939 20.4215 29.5468 20.1323 29.581 19.847C29.6152 19.5618 29.7293 19.2919 29.9101 19.0686C30.1305 18.7643 30.4121 18.5094 30.7368 18.3202C31.0615 18.131 31.4221 18.0117 31.7955 17.97C33.3991 17.7392 34.9983 18.0165 35.6832 19.6711C35.7812 19.9079 35.8168 20.1659 35.7866 20.4205C35.7837 20.4465 35.7712 20.4706 35.7515 20.4881C35.7319 20.5055 35.7065 20.515 35.6802 20.5149H34.0541C34.0409 20.5168 34.0275 20.5157 34.0148 20.5116C34.0021 20.5075 33.9906 20.5005 33.981 20.4913C33.9715 20.482 33.9642 20.4707 33.9597 20.4581C33.9552 20.4456 33.9537 20.4322 33.9552 20.419C33.9177 19.3698 32.8401 19.2979 32.0668 19.4837C31.9598 19.5072 31.8598 19.5555 31.7749 19.6248C31.6901 19.694 31.6227 19.7823 31.5782 19.8824C31.5491 19.9438 31.5427 20.0135 31.5603 20.0791C31.5779 20.1448 31.6182 20.202 31.6741 20.2406C31.9508 20.4343 32.2647 20.5685 32.5958 20.6348C33.8263 20.8806 35.9185 21.1563 35.9934 22.7989C36.0173 23.0625 35.9807 23.328 35.8865 23.5753C35.7922 23.8225 35.6427 24.045 35.4494 24.2257C35.0295 24.6426 34.4945 24.9245 33.9132 25.035C33.1848 25.1534 32.1147 25.1849 31.3939 24.9721C30.3537 24.6723 29.2042 23.6382 29.3061 22.4362C29.3056 22.4261 29.3073 22.4159 29.3112 22.4065C29.315 22.397 29.3208 22.3885 29.3282 22.3816C29.3356 22.3746 29.3444 22.3693 29.3541 22.3661C29.3637 22.3628 29.3739 22.3617 29.3841 22.3628H31.0671C31.0804 22.3628 31.0936 22.3654 31.1059 22.3706C31.1182 22.3757 31.1293 22.3833 31.1387 22.3927C31.148 22.4022 31.1554 22.4135 31.1603 22.4258C31.1653 22.4382 31.1677 22.4514 31.1675 22.4647C31.1421 23.7521 33.4876 24.0624 34.0451 23.1167C34.0826 23.0544 34.0981 22.9813 34.0888 22.9092C34.0796 22.8371 34.0462 22.7702 33.9941 22.7195Z" fill="white"/>
<path d="M24.8109 22.2921V24.8399C24.8124 24.8509 24.8113 24.8621 24.8078 24.8726C24.8042 24.8831 24.7983 24.8926 24.7905 24.9004C24.7827 24.9083 24.7731 24.9142 24.7626 24.9177C24.7521 24.9213 24.741 24.9223 24.73 24.9209H22.9315C22.8706 24.9209 22.8406 24.8909 22.8416 24.8309C22.8416 23.3322 22.8416 21.788 22.8416 20.1984C22.8416 19.5719 22.8166 18.9464 22.7666 18.322C22.764 18.3115 22.764 18.3006 22.7666 18.2902C22.7693 18.2798 22.7745 18.2702 22.7818 18.2623C22.7891 18.2544 22.7982 18.2484 22.8084 18.245C22.8186 18.2415 22.8295 18.2407 22.8401 18.2425C24.2499 18.2275 25.3899 18.2345 26.2602 18.2635C27.2224 18.2965 28.3809 18.7131 28.5982 19.7622C28.6778 20.0716 28.6704 20.397 28.5768 20.7025C28.4832 21.008 28.307 21.2816 28.0676 21.4933C28.0587 21.4991 28.0513 21.5071 28.0462 21.5165C28.0411 21.526 28.0384 21.5365 28.0384 21.5472C28.0384 21.5579 28.0411 21.5685 28.0462 21.5779C28.0513 21.5873 28.0587 21.5953 28.0676 21.6012C28.5323 22.0253 28.6177 22.5184 28.6387 23.1119C28.6842 23.7613 28.9484 24.3762 29.388 24.8564C29.392 24.8603 29.3952 24.865 29.3973 24.8701C29.3995 24.8753 29.4006 24.8808 29.4006 24.8864C29.4006 24.892 29.3995 24.8975 29.3973 24.9026C29.3952 24.9078 29.392 24.9125 29.388 24.9164C29.3799 24.9228 29.3699 24.9265 29.3595 24.9268H27.3168C27.2923 24.9276 27.2681 24.9219 27.2465 24.9104C27.2249 24.8988 27.2068 24.8817 27.1939 24.8609C26.8387 24.3274 26.7742 23.6424 26.7128 23.0265C26.6648 22.5544 26.3036 22.1422 25.7971 22.1752C25.5038 22.1961 25.2096 22.2001 24.9158 22.1872C24.9013 22.1837 24.8862 22.184 24.8719 22.188C24.8575 22.192 24.8445 22.1997 24.8339 22.2102C24.8234 22.2207 24.8158 22.2338 24.8117 22.2481C24.8077 22.2625 24.8074 22.2776 24.8109 22.2921ZM24.8109 19.7443V20.6645C24.8109 20.6772 24.816 20.6894 24.825 20.6984C24.834 20.7074 24.8462 20.7124 24.8589 20.7124H25.7806C26.2542 20.7124 26.6394 20.5176 26.6409 20.2748V20.1369C26.6409 19.8941 26.2572 19.6978 25.7836 19.6963H24.8619C24.8554 19.6961 24.849 19.6972 24.8431 19.6995C24.8371 19.7018 24.8316 19.7053 24.827 19.7098C24.8224 19.7143 24.8187 19.7196 24.8162 19.7255C24.8137 19.7315 24.8124 19.7378 24.8124 19.7443H24.8109Z" fill="white"/>
<path d="M20.0235 22.2159H18.174C18.163 22.2145 18.1519 22.2155 18.1414 22.2191C18.1309 22.2226 18.1213 22.2285 18.1135 22.2364C18.1057 22.2442 18.0998 22.2537 18.0962 22.2642C18.0927 22.2747 18.0916 22.2859 18.0931 22.2969V24.8312C18.0948 24.844 18.0936 24.8571 18.0894 24.8693C18.0853 24.8816 18.0784 24.8927 18.0693 24.9018C18.0601 24.911 18.049 24.9179 18.0368 24.922C18.0245 24.9261 18.0115 24.9274 17.9987 24.9256H16.2167C16.2021 24.9277 16.1872 24.9263 16.1733 24.9216C16.1593 24.9168 16.1467 24.9089 16.1364 24.8984C16.126 24.888 16.1183 24.8752 16.1137 24.8612C16.1092 24.8472 16.108 24.8323 16.1103 24.8177C16.1313 22.9543 16.1278 21.1129 16.0998 19.2934C16.0998 19.0027 16.0828 18.6785 16.0488 18.3208C16.0488 18.2698 16.0683 18.2443 16.1193 18.2443H18.0182C18.0284 18.2429 18.0388 18.2438 18.0487 18.247C18.0585 18.2502 18.0675 18.2557 18.0749 18.2629C18.0822 18.2702 18.0879 18.279 18.0913 18.2888C18.0947 18.2986 18.0958 18.309 18.0946 18.3193V20.6453C18.0931 20.6559 18.0941 20.6667 18.0975 20.6768C18.1008 20.6869 18.1065 20.6961 18.1141 20.7037C18.1217 20.7113 18.1309 20.717 18.141 20.7203C18.1512 20.7237 18.1619 20.7247 18.1725 20.7232H20.0175C20.0307 20.7249 20.0442 20.7235 20.0568 20.7192C20.0695 20.715 20.081 20.7079 20.0905 20.6985C20.1 20.6891 20.1073 20.6777 20.1118 20.6651C20.1163 20.6525 20.1178 20.6391 20.1164 20.6258C20.1296 19.8625 20.1015 19.099 20.0324 18.3387C20.0324 18.2773 20.0549 18.2458 20.1179 18.2458H21.9958C22.0068 18.2443 22.0179 18.2454 22.0284 18.2489C22.0389 18.2525 22.0485 18.2584 22.0563 18.2662C22.0641 18.2741 22.07 18.2836 22.0736 18.2941C22.0771 18.3046 22.0782 18.3158 22.0767 18.3268V24.8462C22.0782 24.8572 22.0771 24.8684 22.0736 24.8789C22.07 24.8894 22.0641 24.8989 22.0563 24.9067C22.0485 24.9146 22.0389 24.9205 22.0284 24.924C22.0179 24.9276 22.0068 24.9286 21.9958 24.9271H20.1598C20.1483 24.9271 20.1373 24.9226 20.1291 24.9144C20.121 24.9063 20.1164 24.8952 20.1164 24.8837V22.3044C20.1174 22.2921 20.1156 22.2798 20.1112 22.2683C20.1069 22.2568 20.1 22.2464 20.091 22.238C20.0821 22.2295 20.0714 22.2231 20.0597 22.2193C20.048 22.2155 20.0356 22.2143 20.0235 22.2159Z" fill="white"/>
<circle cx="20" cy="20" r="19.5" stroke="black" stroke-opacity="0.05"/>
</svg>
