<svg width="40" height="40" viewBox="0 0 40 40" fill="none" xmlns="http://www.w3.org/2000/svg">
<circle cx="20" cy="20" r="20" fill="#004899"/>
<path d="M27.3537 19.9529L20.8796 19.652L20.5928 13.366H20.5834L20.2872 19.652L13.8271 19.9529V19.967L20.2872 20.2444L20.5834 26.8925H20.5928L20.8796 20.2444L27.3537 19.967V19.9529Z" fill="#F39200"/>
<path d="M18.5378 10.3474V10.6295H18.3967C17.9924 10.6295 17.5504 10.7094 17.5504 11.8378V16.1492C17.5455 16.4636 17.5643 16.778 17.6069 17.0895H17.2448L12.3645 11.6686V15.5897C12.3645 16.4172 12.5244 16.704 13.2532 16.704H13.4271V16.9814H10.9023V16.704H11.034C11.6922 16.704 11.885 16.2338 11.885 15.4957V11.504C11.8856 11.3911 11.8638 11.2791 11.8207 11.1747C11.7776 11.0703 11.7142 10.9755 11.6341 10.8959C11.554 10.8162 11.4589 10.7533 11.3542 10.7108C11.2496 10.6683 11.1375 10.6471 11.0246 10.6483H10.9023V10.3662H12.8347L17.0662 15.1196V15.0961V11.5416C17.0825 11.4262 17.0728 11.3085 17.038 11.1973C17.0032 11.086 16.944 10.9839 16.8647 10.8983C16.7855 10.8128 16.6882 10.746 16.5799 10.7027C16.4716 10.6595 16.3551 10.6409 16.2387 10.6483H16.0318V10.3662L18.5378 10.3474Z" fill="white"/>
<path d="M25.0918 16.9626V16.6852H25.2281C25.5667 16.6852 25.9287 16.6288 25.9287 16.1351V11.1749C25.9287 10.6765 25.5667 10.6295 25.2281 10.6295H25.0918V10.3474H28.0021V10.6295H27.8705C27.5319 10.6295 27.1746 10.6765 27.1746 11.1749V16.1351C27.1746 16.6288 27.5319 16.6852 27.8705 16.6852H28.0021V16.9626H25.0918Z" fill="white"/>
<path d="M17.1882 29.2245C16.5015 29.5158 15.7619 29.6615 15.016 29.6523C12.8815 29.6523 11.3018 28.4863 11.3018 26.1073C11.3018 23.9869 13.0178 22.7598 14.969 22.7598C16.0786 22.7598 16.4406 23.0983 17.3198 23.2299L17.3998 24.8144L17.113 24.852C16.8497 23.9117 16.4124 23.1735 14.9878 23.1735C13.4363 23.1735 12.637 24.3959 12.637 26.0509C12.637 27.6306 13.4457 29.2386 15.237 29.2386C15.6942 29.2469 16.1395 29.0919 16.4927 28.8015C16.846 28.5111 17.0843 28.1043 17.1647 27.6542L17.4374 27.6918L17.1882 29.2245Z" fill="white"/>
<path d="M23.7148 29.5254V29.2245H23.8512C24.1991 29.2245 24.5517 29.1822 24.5517 28.6885V23.7283C24.5517 23.2581 24.1991 23.1876 23.8512 23.1876H23.7148V22.9055H28.5105C28.4847 23.3879 28.4847 23.8713 28.5105 24.3536L28.2284 24.4335C28.1767 23.8129 28.0638 23.324 27.0671 23.324H25.7506V25.8064H26.879C27.4479 25.8064 27.5749 25.482 27.6266 24.9695H27.9134V27.1605L27.6266 27.2216C27.5749 26.648 27.542 26.2813 26.8837 26.2813H25.7506V28.491C25.7506 29.107 26.3007 29.107 26.9072 29.107C28.0497 29.107 28.5481 29.0317 28.8349 27.9457L29.0982 28.0162C28.976 28.5193 28.8631 29.0176 28.7832 29.5254H23.7148Z" fill="white"/>
<circle cx="20" cy="20" r="19.5" stroke="black" stroke-opacity="0.05"/>
</svg>
