<svg width="40" height="40" viewBox="0 0 40 40" fill="none" xmlns="http://www.w3.org/2000/svg">
<circle cx="20" cy="20" r="20" fill="#007E3A"/>
<g clip-path="url(#clip0_14382_20632)">
<path d="M12.3414 22.5085H13.291V22.2698H12.3414V21.9987H13.3309V21.7607H12.0736V23.0502H13.338V22.8123H12.3414V22.5085Z" fill="white"/>
<path d="M14.7783 21.7607V22.7181L13.8579 21.7607H13.5431V23.0502H13.8118V22.0932L14.732 23.0502H15.0468V21.7607H14.7783Z" fill="white"/>
<path d="M15.9943 22.5971H16.5955V22.6546C16.5955 22.7183 16.5807 22.7627 16.5511 22.7857C16.5179 22.8116 16.4613 22.825 16.3826 22.825H15.7753C15.6837 22.825 15.6193 22.8083 15.5897 22.7768C15.5601 22.7453 15.5442 22.6861 15.5442 22.6051V22.1911C15.5442 22.1167 15.5604 22.0638 15.5912 22.034C15.6219 22.0041 15.6851 21.987 15.7742 21.987H16.2417C16.4576 21.987 16.5271 22.0086 16.5485 22.0215C16.5783 22.0384 16.5955 22.092 16.5955 22.1702V22.2243H16.852V22.1256C16.852 21.9536 16.7651 21.7485 16.3514 21.7485H15.7641C15.5942 21.7485 15.4735 21.7849 15.3959 21.8597C15.3184 21.9344 15.2785 22.0532 15.2759 22.2221V22.5705C15.2759 22.7458 15.3135 22.8687 15.3905 22.9464C15.4676 23.0242 15.5909 23.0622 15.7577 23.0622H16.4031C16.571 23.0622 16.6875 23.0254 16.759 22.949C16.8304 22.8727 16.8642 22.7545 16.8642 22.5943V22.3593H15.995L15.9943 22.5971Z" fill="white"/>
<path d="M17.1156 21.7607V23.0502H17.3839V21.7607H17.3299H17.1156Z" fill="white"/>
<path d="M18.8909 21.7607V22.7181L17.9704 21.7607H17.6554V23.0502H17.9242V22.0932L18.8448 23.0502H19.1596V21.7607H18.8909Z" fill="white"/>
<path d="M19.6909 22.5085H20.6404V22.2698H19.6909V21.9987H20.6813V21.7607H19.4219V23.0502H20.6865V22.8123H19.6909V22.5085Z" fill="white"/>
<path d="M21.1699 22.5085H22.1197V22.2698H21.1699V21.9987H22.1594V21.7607H20.9011V23.0502H22.1657V22.8123H21.1699V22.5085Z" fill="white"/>
<path d="M23.717 21.8434C23.6502 21.7878 23.5394 21.7607 23.3789 21.7607H22.3706V23.0502H22.6391V22.5804H23.3594C23.4642 22.5804 23.5022 22.5999 23.5152 22.6112C23.5358 22.6288 23.5473 22.672 23.5473 22.7331V23.0493H23.8058V22.6969C23.8079 22.6542 23.7993 22.6116 23.7808 22.5729C23.7624 22.5343 23.7346 22.5009 23.7 22.4756C23.7189 22.4675 23.7366 22.4567 23.7524 22.4437C23.7994 22.4 23.821 22.333 23.821 22.2381V22.1423C23.8206 21.9994 23.7865 21.901 23.717 21.8434ZM23.5525 22.225C23.5525 22.294 23.5253 22.3091 23.5147 22.3145C23.4787 22.334 23.4231 22.3434 23.3474 22.3434H22.6401V21.9987H23.3237C23.4412 21.9987 23.494 22.014 23.5173 22.0267C23.5405 22.0394 23.5525 22.0708 23.5525 22.1206V22.225Z" fill="white"/>
<path d="M24.0657 21.7607V23.0502H24.334V21.7607H24.2799H24.0657Z" fill="white"/>
<path d="M25.841 21.7607V22.7181C25.6868 22.5581 24.9205 21.7607 24.9205 21.7607H24.6057V23.0502H24.8742V22.0932L25.7944 23.0502H26.1095V21.7607H25.841Z" fill="white"/>
<path d="M27.0568 22.5971H27.6586V22.6546C27.6586 22.7183 27.6438 22.7627 27.614 22.7857C27.5842 22.8088 27.5243 22.825 27.446 22.825H26.8383C26.7464 22.825 26.6825 22.8083 26.6529 22.7768C26.6233 22.7453 26.6076 22.6861 26.6076 22.6051V22.1911C26.6076 22.1167 26.6238 22.0638 26.6546 22.034C26.6853 22.0041 26.7485 21.987 26.8373 21.987H27.3062C27.5219 21.987 27.5912 22.0086 27.6131 22.0215C27.6427 22.0384 27.6584 22.092 27.6584 22.1702V22.2243H27.9145V22.1256C27.9145 21.9536 27.828 21.7485 27.4136 21.7485H26.8263C26.6562 21.7485 26.5355 21.7849 26.4582 21.8597C26.3809 21.9344 26.3407 22.053 26.3376 22.2221V22.5705C26.3376 22.7456 26.3755 22.8687 26.4528 22.9464C26.5301 23.0242 26.6529 23.0622 26.8197 23.0622H27.4651C27.633 23.0622 27.7495 23.0254 27.821 22.949C27.8924 22.8727 27.9262 22.7545 27.9262 22.5943V22.3593H27.057L27.0568 22.5971Z" fill="white"/>
<path d="M10.1061 16.8804H8.45317V17.0065C8.45317 17.0086 8.452 17.0105 8.452 17.0122V20.0782C8.45193 20.1658 8.41712 20.2498 8.3552 20.3118C8.29327 20.3737 8.2093 20.4086 8.12169 20.4087H6.98512C6.89749 20.4086 6.81349 20.3737 6.75153 20.3118C6.68957 20.2498 6.65471 20.1658 6.65458 20.0782V18.9933C6.65458 18.9914 6.65458 18.99 6.65458 18.9881V18.8617H6.52467H6.52208H5.13156H5.12897H5V20.05C5 20.3302 5.11122 20.5989 5.30922 20.7971C5.50722 20.9953 5.77582 21.1068 6.05599 21.1072H9.04965C9.33003 21.1072 9.59892 20.9958 9.79718 20.7975C9.99543 20.5993 10.1068 20.3304 10.1068 20.05V17.0115L10.1061 16.8804Z" fill="white"/>
<path d="M34.8684 16.8804H30.9504C30.67 16.8804 30.4011 16.9918 30.2028 17.19C30.0046 17.3883 29.8932 17.6572 29.8932 17.9375V20.0505C29.8932 20.3308 30.0046 20.5997 30.2028 20.798C30.4011 20.9962 30.67 21.1076 30.9504 21.1076H33.9438C34.2242 21.1076 34.493 20.9962 34.6913 20.798C34.8896 20.5997 35.0009 20.3308 35.0009 20.0505V18.8547H34.8708H34.868H33.477H33.4739H33.3447V18.9862V20.0768C33.3449 20.1644 33.3104 20.2485 33.2488 20.3108C33.1872 20.3731 33.1034 20.4084 33.0158 20.4092H31.8783C31.791 20.4086 31.7074 20.3736 31.6458 20.3117C31.5842 20.2497 31.5495 20.166 31.5494 20.0786V18.6973V17.9082C31.55 17.8208 31.5851 17.7372 31.647 17.6756C31.709 17.6139 31.7928 17.5793 31.8802 17.5793H34.8684C34.8709 17.5789 34.8734 17.5782 34.8757 17.5774H35V16.8804H34.8684Z" fill="white"/>
<path d="M28.5833 16.8806H24.5327V17.6023V20.0784C24.5326 20.1658 24.498 20.2495 24.4364 20.3115C24.3748 20.3734 24.2912 20.4084 24.2038 20.4089H23.0663C22.9787 20.4088 22.8948 20.3739 22.8329 20.3119C22.7709 20.2499 22.7361 20.166 22.736 20.0784V17.6023H22.7376V16.8806H16.7769C16.4965 16.8806 16.2276 16.992 16.0293 17.1902C15.8311 17.3885 15.7197 17.6574 15.7197 17.9378V18.3768C15.7194 18.4519 15.7273 18.5267 15.7432 18.6C15.8437 19.0485 16.2469 19.3551 16.7752 19.3551H18.859C18.9398 19.3596 19.0162 19.3936 19.0736 19.4506C19.1311 19.5076 19.1657 19.5837 19.171 19.6645V20.1007C19.1682 20.1466 19.1559 20.1914 19.1347 20.2323C19.1135 20.2731 19.084 20.309 19.0481 20.3378C18.9954 20.3804 18.9307 20.4055 18.863 20.4094H15.466V18.2058V16.8806H13.813V17.0079C13.813 17.0093 13.813 17.011 13.813 17.0124V20.0784C13.8129 20.1659 13.7781 20.2499 13.7163 20.3118C13.6544 20.3738 13.5705 20.4087 13.483 20.4089H12.3445C12.2572 20.4084 12.1735 20.3734 12.1119 20.3115C12.0503 20.2495 12.0157 20.1658 12.0156 20.0784V17.0117C12.0156 17.0086 12.014 17.006 12.0137 17.003V16.8799H10.3601V17.6016V20.0495C10.3601 20.3299 10.4715 20.5988 10.6697 20.797C10.868 20.9953 11.1369 21.1067 11.4173 21.1067H19.7703C20.0507 21.1067 20.3196 20.9953 20.5178 20.797C20.7161 20.5988 20.8275 20.3299 20.8275 20.0495V19.6114C20.8275 19.044 20.3832 18.6327 19.7703 18.6327H17.6872C17.6361 18.63 17.5863 18.6154 17.5418 18.5901C17.5262 18.5815 17.5113 18.5717 17.4971 18.5608C17.4613 18.5319 17.432 18.4958 17.4109 18.4549C17.3898 18.414 17.3775 18.3692 17.3748 18.3233V17.8872C17.3775 17.8414 17.3898 17.7967 17.4109 17.7559C17.432 17.7151 17.4613 17.6792 17.4971 17.6504C17.55 17.6079 17.615 17.5833 17.6827 17.58H21.0807V20.0502C21.0807 20.3306 21.1921 20.5995 21.3903 20.7977C21.5886 20.996 21.8575 21.1074 22.1379 21.1074H25.537V21.1093H26.1863V20.9847C26.1863 20.9815 26.1882 20.9789 26.1882 20.9753V17.9084C26.1886 17.821 26.2236 17.7374 26.2855 17.6757C26.3474 17.6141 26.4312 17.5795 26.5185 17.5795H27.656C27.6993 17.5793 27.7422 17.5877 27.7823 17.6042C27.8223 17.6206 27.8587 17.6449 27.8894 17.6754C27.92 17.706 27.9444 17.7423 27.961 17.7823C27.9776 17.8222 27.9861 17.8651 27.9861 17.9084V20.9746C27.9861 20.9746 27.9861 20.9765 27.9861 20.9777V21.1085H28.6352V21.1067H28.9892V21.1085H29.6388V20.9789C29.6388 20.9772 29.6388 20.9763 29.6388 20.9746V17.9373C29.6387 17.6573 29.5275 17.3887 29.3296 17.1906C29.1317 16.9925 28.8633 16.881 28.5833 16.8806Z" fill="white"/>
</g>
<circle cx="20" cy="20" r="19.5" stroke="black" stroke-opacity="0.05"/>
<defs>
<clipPath id="clip0_14382_20632">
<rect width="30" height="6.18231" fill="white" transform="translate(5 16.8804)"/>
</clipPath>
</defs>
</svg>
