<svg width="40" height="40" viewBox="0 0 40 40" fill="none" xmlns="http://www.w3.org/2000/svg">
<circle cx="20" cy="20" r="20" fill="#F6F8FA"/>
<path d="M10.8643 14.6334C10.8643 14.6375 10.8626 14.6415 10.8597 14.6444C10.8568 14.6473 10.8529 14.649 10.8488 14.649H8.01553C8.01141 14.649 8.00746 14.6473 8.00455 14.6444C8.00164 14.6415 8 14.6375 8 14.6334V11.7506C8 11.7465 8.00164 11.7426 8.00455 11.7397C8.00746 11.7367 8.01141 11.7351 8.01553 11.7351H10.8488C10.8529 11.7351 10.8568 11.7367 10.8597 11.7397C10.8626 11.7426 10.8643 11.7465 10.8643 11.7506V14.6334Z" fill="#E47A18"/>
<path d="M28.1442 21.8282L26.2206 21.8192C26.1997 21.8192 26.1913 21.8073 26.1949 21.7828C26.2099 21.6744 26.2177 21.565 26.2182 21.4555C26.2182 20.7389 26.2182 19.9394 26.2182 19.0571C26.2182 19.0424 26.2241 19.0282 26.2345 19.0178C26.2449 19.0074 26.259 19.0015 26.2737 19.0015H31.9044C31.917 18.9997 31.9299 19.0009 31.942 19.005C31.9542 19.009 31.9652 19.0158 31.9742 19.0249C31.9832 19.0339 31.9901 19.0449 31.9941 19.057C31.9981 19.0692 31.9993 19.0821 31.9975 19.0947V26.124C31.9997 26.1394 31.9983 26.1551 31.9934 26.1699C31.9884 26.1847 31.9802 26.1981 31.9691 26.2091C31.9581 26.2201 31.9447 26.2284 31.9299 26.2333C31.9152 26.2383 31.8995 26.2397 31.8841 26.2375L29.3757 26.2417C29.3656 26.2418 29.3556 26.2398 29.3462 26.236C29.3368 26.2322 29.3283 26.2266 29.3211 26.2195C29.3139 26.2124 29.3081 26.204 29.3042 26.1947C29.3002 26.1854 29.2982 26.1753 29.2981 26.1652V24.7731C29.2981 24.708 29.2802 24.7026 29.2449 24.7576C28.8443 25.3864 28.2507 25.8683 27.553 26.1312C27.0045 26.3498 26.4229 26.4739 25.833 26.4985C25.2036 26.5309 24.5725 26.4888 23.9529 26.3731C23.1234 26.2082 22.2526 25.872 21.5915 25.3715C20.2316 24.3437 19.4176 22.6757 19.2199 21.0058C19.0851 19.9359 19.1313 18.8509 19.3567 17.7963C19.5637 16.8519 19.9344 16.0276 20.4687 15.3232C21.318 14.2041 22.4099 13.4675 23.7445 13.1135C24.7545 12.8455 25.8055 12.767 26.8441 12.8818C28.2697 13.0347 29.5782 13.6247 30.5534 14.6735C31.3067 15.4684 31.7608 16.5002 31.8381 17.5927C31.8434 17.6524 31.8148 17.6829 31.7527 17.6739C31.684 17.6644 31.6148 17.6592 31.5454 17.6584C30.5835 17.6484 29.5366 17.6423 28.4046 17.6399C28.3354 17.6399 28.2643 17.6494 28.1956 17.6399C28.1864 17.6397 28.1775 17.6362 28.1706 17.6301C28.1637 17.6239 28.1593 17.6156 28.158 17.6064C28.0565 17.1322 27.895 16.7438 27.6736 16.4412C27.2572 15.8667 26.7031 15.5601 26.0116 15.5215C25.6131 15.501 25.215 15.5704 24.847 15.7246C24.1446 16.0101 23.6123 16.5169 23.25 17.2451C23.0883 17.568 22.965 17.9088 22.8827 18.2604C22.599 19.4913 22.6647 20.7956 23.2315 21.9339C23.7363 22.9472 24.5514 23.5444 25.6765 23.7256C26.5694 23.8695 27.3685 23.4365 27.8265 22.6703C27.9754 22.4169 28.0914 22.1455 28.1717 21.8628C28.1727 21.8594 28.173 21.8558 28.1726 21.8523C28.1723 21.8488 28.1712 21.8454 28.1694 21.8422C28.1677 21.8391 28.1654 21.8364 28.1626 21.8342C28.1598 21.832 28.1566 21.8304 28.1532 21.8294L28.1442 21.8282Z" fill="#E47A18"/>
<path d="M11.8123 15.573V13.2205C11.8108 13.2111 11.8115 13.2015 11.8144 13.1925C11.8173 13.1835 11.8223 13.1752 11.829 13.1685C11.8357 13.1618 11.8439 13.1568 11.853 13.1539C11.862 13.151 11.8716 13.1503 11.881 13.1518L21.4425 13.1453C21.5333 13.1453 21.5417 13.1715 21.4676 13.2235C20.3795 13.9879 19.5087 15.0038 19.01 16.2359C19.0062 16.2454 18.9996 16.2536 18.9911 16.2594C18.9826 16.2651 18.9725 16.2682 18.9623 16.2681H13.3048C13.2889 16.2681 13.2737 16.2744 13.2625 16.2856C13.2513 16.2968 13.245 16.312 13.245 16.3279V18.2617C13.2452 18.2735 13.25 18.2848 13.2583 18.2932C13.2667 18.3015 13.278 18.3063 13.2898 18.3065L18.4086 18.3023C18.4313 18.3023 18.4409 18.3136 18.4379 18.3357C18.3101 19.2363 18.2978 20.1494 18.4015 21.0531C18.4025 21.0626 18.3998 21.0722 18.3939 21.0798C18.3879 21.0874 18.3793 21.0924 18.3698 21.0937H13.2922C13.2859 21.0928 13.2794 21.0934 13.2734 21.0954C13.2673 21.0974 13.2618 21.1008 13.2573 21.1054C13.2528 21.1099 13.2494 21.1154 13.2474 21.1215C13.2453 21.1275 13.2447 21.134 13.2456 21.1403V23.0401C13.2456 23.0498 13.2476 23.0595 13.2513 23.0684C13.2551 23.0774 13.2606 23.0856 13.2676 23.0924C13.2745 23.0993 13.2828 23.1046 13.2918 23.1083C13.3009 23.1119 13.3105 23.1137 13.3203 23.1135H18.8392C18.8589 23.1136 18.8782 23.1196 18.8944 23.1308C18.9106 23.142 18.923 23.1578 18.93 23.1762C19.3771 24.372 20.1561 25.4154 21.1756 26.1838C21.1869 26.1919 21.1965 26.2023 21.2036 26.2143C21.2047 26.2163 21.2053 26.2184 21.2055 26.2206C21.2057 26.2228 21.2055 26.225 21.2048 26.2271C21.2041 26.2292 21.2031 26.2312 21.2016 26.2329C21.2002 26.2346 21.1984 26.236 21.1965 26.237C21.1941 26.2375 21.1917 26.2375 21.1893 26.237L9.74472 26.2328C9.73115 26.2327 9.71817 26.2272 9.70857 26.2176C9.69898 26.208 9.69351 26.195 9.69336 26.1814L9.69635 15.6208C9.69635 15.6147 9.69874 15.609 9.70299 15.6047C9.70725 15.6004 9.71302 15.5981 9.71904 15.5981H11.7842C11.7878 15.5985 11.7914 15.5981 11.7948 15.5971C11.7982 15.596 11.8013 15.5942 11.8039 15.5919C11.8066 15.5895 11.8087 15.5866 11.8102 15.5833C11.8116 15.5801 11.8123 15.5765 11.8123 15.573Z" fill="#2C4C87"/>
<circle cx="20" cy="20" r="19.5" stroke="black" stroke-opacity="0.05"/>
</svg>
