<svg width="40" height="40" viewBox="0 0 40 40" fill="none" xmlns="http://www.w3.org/2000/svg">
<circle cx="20" cy="20" r="20" fill="#E7F30B"/>
<rect x="8" y="15" width="24" height="9.65854" fill="black"/>
<path d="M12.7561 23.1951V18.9512L14.6585 21.0731V23.1951H12.7561Z" fill="white"/>
<path d="M19.4146 16.4636V20.7075L17.5122 18.5856V16.4636H19.4146Z" fill="white"/>
<path d="M9.60974 16.4634H11.5122V23.1951H9.60974V16.4634Z" fill="white"/>
<path d="M28.4878 16.4634H30.3902V23.1951H28.4878V16.4634Z" fill="white"/>
<path d="M12.7561 17.2683V16.4634H14.6585L19.4146 22.2439V23.1951H17.5122L12.7561 17.2683Z" fill="white"/>
<path d="M20.5854 16.5L24.8293 16.5L22.7073 18.4024L20.5854 18.4024L20.5854 16.5Z" fill="white"/>
<path d="M27.3171 23.1587L23.0732 23.1587L25.1951 21.2563L27.3171 21.2563L27.3171 23.1587Z" fill="white"/>
<path d="M26.5122 16.5L27.3171 16.5L27.3171 18.4024L21.5366 23.1585L20.5854 23.1585L20.5854 21.2561L26.5122 16.5Z" fill="white"/>
<circle cx="20" cy="20" r="19.5" stroke="black" stroke-opacity="0.05"/>
</svg>
