<svg width="40" height="40" viewBox="0 0 40 40" fill="none" xmlns="http://www.w3.org/2000/svg">
<circle cx="20" cy="20" r="20" fill="#163984"/>
<path d="M18.3608 24.2623C17.0339 20.9117 14.5772 18.6739 11.0606 17.8389C11.0187 17.8281 10.9985 17.8017 11.0001 17.7582C11.0001 17.7303 11.0125 17.7086 11.0358 17.6915C11.0466 17.6837 11.0575 17.6806 11.0699 17.6791C13.449 17.4525 15.8017 16.5074 17.3583 14.7165C18.6401 13.2422 19.472 11.3566 19.8475 9.36548C19.9391 8.87973 20.0369 8.87818 20.1393 9.36082C20.3674 10.4332 20.7088 11.4512 21.1667 12.4119C22.253 14.6947 24.0393 16.2622 26.5239 17.1142C27.2703 17.3702 27.9966 17.541 28.7012 17.6279C29.0938 17.676 29.1 17.752 28.7167 17.8529C22.402 19.5227 20.3519 25.8406 20.0633 31.6137C20.0633 31.6277 20.0524 31.6385 20.0384 31.6385C20.0353 31.6385 20.0338 31.6385 20.0307 31.6385L19.9655 31.6184C19.936 31.609 19.9205 31.5889 19.9189 31.5594C19.7094 28.7892 19.1895 26.3574 18.3608 24.2638V24.2623Z" fill="white"/>
<circle cx="20" cy="20" r="19.5" stroke="black" stroke-opacity="0.05"/>
</svg>
