<svg width="40" height="40" viewBox="0 0 40 40" fill="none" xmlns="http://www.w3.org/2000/svg">
<circle cx="20" cy="20" r="20" fill="#404048"/>
<g clip-path="url(#clip0_18553_55921)">
<path d="M27.8722 27.857C27.1197 28.0231 26.3432 28.006 25.5847 27.9945C24.1871 27.9716 22.7835 27.4332 21.6487 26.6715C21.6367 26.6657 21.6367 26.6543 21.6487 26.6428L22.0011 26.1675C22.0011 26.1675 22.019 26.156 22.0309 26.1675C23.6077 27.2041 25.3458 27.5993 27.2331 27.353C27.2869 27.3473 27.3825 27.3244 27.5139 27.29C27.6393 27.2557 27.7826 27.2499 27.8961 27.2213C29.4789 26.8089 30.763 26.0243 31.7306 24.8559C34.2033 21.8948 33.7792 17.6451 30.7391 15.2053C26.8628 12.0896 20.9558 13.7219 19.3432 18.3095C19.3253 18.3611 19.2895 18.3782 19.2357 18.361L18.7758 18.2179C18.7221 18.2007 18.7041 18.1663 18.7221 18.1148C19.3731 16.2877 20.5676 14.9017 22.2997 13.9452C23.1359 13.4871 24.0139 13.195 24.9277 13.0747C25.3338 13.0231 25.8773 13.0002 26.5642 13.0117C27.1376 13.0231 27.6692 13.0919 28.1529 13.2121C30.7331 13.8765 32.8296 15.7723 33.6239 18.2179C34.2093 20.022 34.1077 21.7917 33.3253 23.5443C32.3458 25.7379 30.2673 27.3358 27.8662 27.8628L27.8722 27.857Z" fill="#ED1D24"/>
<path d="M21.9353 21.1845C21.9353 21.1845 21.9174 21.173 21.9055 21.1788C21.9055 21.1788 21.8995 21.1845 21.8935 21.1902L21.3022 23.0574C21.3022 23.0574 21.2783 23.0974 21.2485 23.0974H20.3048C20.2689 23.0974 20.251 23.0803 20.263 23.0459L21.6785 18.5442C21.6904 18.5041 21.7322 18.4697 21.78 18.4697C22.2877 18.4697 22.7894 18.4697 23.2971 18.4812C24.1094 18.4926 25.059 18.7905 24.844 19.7698C24.6768 20.5373 23.8824 20.9497 23.088 21.0413C23.0642 21.0413 23.0462 21.0642 23.0462 21.0929C23.0462 21.0986 23.0462 21.1043 23.0522 21.11L24.2587 23.0516C24.2587 23.0516 24.2587 23.086 24.2468 23.0917C24.2468 23.0917 24.2348 23.0917 24.2288 23.0917H23.088C23.088 23.0917 23.0343 23.0803 23.0223 23.0516L21.9293 21.1788L21.9353 21.1845ZM23.8227 19.5637C23.7809 19.2315 22.7894 19.2945 22.5625 19.2945C22.5206 19.2945 22.4848 19.3231 22.4729 19.3575L22.1862 20.291C22.1862 20.291 22.1862 20.3139 22.1981 20.3197C22.1981 20.3197 22.1981 20.3197 22.2041 20.3197C22.6938 20.3369 23.9123 20.3311 23.8227 19.5579V19.5637Z" fill="white"/>
<path d="M26.4447 20.211H28.6725C28.6725 20.211 28.7143 20.2282 28.7143 20.2511C28.7143 20.2511 28.7143 20.2568 28.7143 20.2625L28.4694 21.0014C28.4694 21.0014 28.4456 21.03 28.4276 21.03H26.164C26.164 21.03 26.1281 21.0415 26.1222 21.0586L25.7399 22.2499C25.7399 22.2499 25.7459 22.2957 25.7698 22.3015C25.7698 22.3015 25.7758 22.3015 25.7817 22.3015H28.0155C28.0155 22.3015 28.0573 22.3187 28.0573 22.3416V22.353L27.8244 23.0632C27.8244 23.0632 27.8005 23.0919 27.7826 23.0919H24.4857C24.4857 23.0919 24.4438 23.0747 24.4438 23.0518C24.4438 23.0518 24.4438 23.046 24.4438 23.0403L25.8713 18.5042C25.8713 18.5042 25.8952 18.4756 25.9131 18.4756H29.2101C29.2101 18.4756 29.2519 18.4928 29.2519 18.5157C29.2519 18.5157 29.2519 18.5214 29.2519 18.5271L29.0249 19.2602C29.0249 19.2602 29.001 19.2889 28.9831 19.2889H26.7075C26.7075 19.2889 26.6717 19.3003 26.6657 19.3175L26.4029 20.1537C26.4029 20.1537 26.4089 20.1995 26.4328 20.2053C26.4328 20.2053 26.4387 20.2053 26.4447 20.2053V20.211Z" fill="white"/>
<path d="M29.4071 22.3072H31.6528C31.6528 22.3072 31.6947 22.3244 31.6947 22.3416C31.6947 22.3416 31.6947 22.3473 31.6947 22.353L31.4557 23.0689C31.4557 23.0689 31.4378 23.0976 31.4199 23.0976H28.117C28.117 23.0976 28.0752 23.0804 28.0752 23.0632C28.0752 23.0632 28.0752 23.0575 28.0752 23.0518L29.5086 18.5042C29.5086 18.5042 29.5266 18.4756 29.5445 18.4756H32.8414C32.8414 18.4756 32.8832 18.4928 32.8832 18.5157C32.8832 18.5157 32.8832 18.5214 32.8832 18.5271L32.6622 19.266C32.6622 19.266 32.6443 19.2946 32.6264 19.2946H30.3388C30.3388 19.2946 30.303 19.3061 30.303 19.3232L30.0462 20.1652C30.0462 20.1652 30.0462 20.2053 30.0701 20.211C30.0701 20.211 30.076 20.211 30.082 20.211H32.3098C32.3098 20.211 32.3516 20.2224 32.3516 20.2453C32.3516 20.2453 32.3516 20.2511 32.3516 20.2568L32.1127 21.0071C32.1127 21.0071 32.0948 21.0357 32.0769 21.0357H29.8013C29.8013 21.0357 29.7655 21.0472 29.7655 21.0586L29.3832 22.2614C29.3832 22.2614 29.3832 22.3015 29.4071 22.3072C29.4071 22.3072 29.4131 22.3072 29.4191 22.3072H29.4071Z" fill="white"/>
<path d="M9.02816 20.3828L8.23976 23.0803C8.23976 23.0803 8.22184 23.1033 8.2099 23.1033H7.42747C7.42747 23.1033 7.40358 23.0975 7.39761 23.0861L6 18.55C6 18.55 6 18.5214 6.01792 18.5156C6.01792 18.5156 6.01792 18.5156 6.02389 18.5156H6.92577C6.92577 18.5156 6.94966 18.5271 6.95563 18.5385L7.80973 21.2247C7.80973 21.2247 7.83362 21.2476 7.84556 21.2419C7.85751 21.2419 7.86348 21.2304 7.86348 21.2247L8.65785 18.5328C8.65785 18.5328 8.6698 18.5156 8.68771 18.5156H9.4343C9.4343 18.5156 9.45819 18.5214 9.46416 18.5385L10.2466 21.2304C10.2466 21.2304 10.2645 21.2533 10.2824 21.2476C10.2944 21.2476 10.3003 21.2361 10.3003 21.2304L11.1604 18.5385C11.1604 18.5385 11.1783 18.5214 11.1903 18.5214H12.0922C12.0922 18.5214 12.122 18.5385 12.122 18.55C12.122 18.55 12.122 18.55 12.122 18.5557L10.7005 23.0803C10.7005 23.0803 10.6826 23.0975 10.6706 23.0975H9.90017C9.90017 23.0975 9.87628 23.0918 9.87031 23.0746L9.08788 20.377C9.08788 20.377 9.06997 20.3541 9.05205 20.3541C9.0401 20.3541 9.03413 20.3656 9.02816 20.377V20.3828Z" fill="white"/>
<path d="M16.1359 19.5809C16.1359 19.5809 16.1657 19.6038 16.1836 19.5923C16.1836 19.5923 16.1896 19.5866 16.1956 19.5809C16.6256 18.9795 17.1751 18.6301 17.856 18.5328C19.4208 18.3037 20.7587 19.5179 20.6094 21.0356C20.5318 21.8088 20.1435 22.3987 19.4388 22.8111C18.9908 23.0746 18.501 23.1777 17.9754 23.1147C17.2229 23.0287 16.6376 22.6851 16.2135 22.0837C16.1836 22.0379 16.1538 22.0379 16.1239 22.0837C16.0642 22.1811 15.9985 22.267 15.9208 22.3472C14.3202 24.0081 11.501 22.8111 11.7459 20.5717C11.8833 19.2945 13.0241 18.4068 14.356 18.5156C15.019 18.5671 15.8014 18.9738 16.1359 19.5751V19.5809ZM15.6461 20.8237C15.6461 20.0161 14.9592 19.3575 14.1171 19.3575C13.2749 19.3575 12.5881 20.0161 12.5881 20.8237C12.5881 21.6313 13.2749 22.2899 14.1171 22.2899C14.9592 22.2899 15.6461 21.6313 15.6461 20.8237ZM19.7553 20.8237C19.7553 20.0161 19.0684 19.3575 18.2263 19.3575C17.3841 19.3575 16.6973 20.0161 16.6973 20.8237C16.6973 21.6313 17.3841 22.2899 18.2263 22.2899C19.0684 22.2899 19.7553 21.6313 19.7553 20.8237Z" fill="white"/>
</g>
<circle cx="20" cy="20" r="19.5" stroke="black" stroke-opacity="0.05"/>
<defs>
<clipPath id="clip0_18553_55921">
<rect width="28" height="15" fill="white" transform="translate(6 13)"/>
</clipPath>
</defs>
</svg>
