<svg width="40" height="40" viewBox="0 0 40 40" fill="none" xmlns="http://www.w3.org/2000/svg">
<circle cx="20" cy="20" r="20" fill="#92D051"/>
<g clip-path="url(#clip0_16604_11834)">
<path d="M5.41029 22.789H4L5.64837 16.1895H7.05867L6.3884 18.9463C6.67196 18.7605 6.97761 18.6107 7.29827 18.5005C7.59215 18.4059 7.89939 18.3593 8.20813 18.3625C8.57319 18.3423 8.93395 18.4495 9.2287 18.6658C9.34953 18.7596 9.44654 18.8806 9.51188 19.0189C9.57722 19.1572 9.60905 19.309 9.60478 19.4619C9.57665 19.7342 9.52335 20.0032 9.44555 20.2657L8.76922 22.789H7.35892L8.02768 20.2111C8.08368 20.0358 8.12527 19.8563 8.15202 19.6742C8.15315 19.607 8.13851 19.5404 8.10928 19.4799C8.08005 19.4193 8.03704 19.3664 7.9837 19.3255C7.85158 19.2308 7.69103 19.1842 7.52877 19.1935C7.28291 19.1968 7.04288 19.2688 6.83575 19.4013C6.56226 19.5624 6.33423 19.7905 6.17306 20.064C6.02906 20.3866 5.91977 20.7236 5.84703 21.0694L5.41029 22.789Z" fill="white"/>
<path d="M11.6385 20.7039C11.9146 20.6779 12.1868 20.6204 12.4498 20.5325C12.6582 20.4497 12.8502 20.3306 13.017 20.1807C13.2104 20.0076 13.3725 19.8024 13.4962 19.5741C13.6198 19.3651 13.6891 19.1284 13.6978 18.8857C13.6998 18.8451 13.6925 18.8046 13.6765 18.7673C13.6605 18.73 13.6361 18.6968 13.6053 18.6703C13.5393 18.6174 13.4564 18.59 13.3718 18.593C13.1792 18.593 12.9669 18.7022 12.7258 18.9206C12.2901 19.3148 11.9277 19.9093 11.6385 20.7039ZM11.5839 20.9556C11.5526 21.1284 11.5349 21.3033 11.5308 21.4788C11.5264 21.5901 11.5474 21.7011 11.5923 21.803C11.6373 21.905 11.7049 21.9954 11.7902 22.0672C11.9872 22.2211 12.2336 22.2976 12.4832 22.2825C12.7694 22.2807 13.0531 22.2294 13.3218 22.1309C13.6659 21.9984 13.9928 21.8247 14.2953 21.6138L14.4712 21.7366C14.0856 22.1166 13.6352 22.4247 13.1413 22.6465C12.6876 22.8338 12.2006 22.9266 11.7098 22.9194C11.0486 22.9194 10.5937 22.789 10.345 22.5282C10.224 22.4096 10.1279 22.268 10.0626 22.1118C9.99719 21.9555 9.9638 21.7877 9.96436 21.6183C9.98026 21.0374 10.1793 20.4764 10.533 20.0154C10.9309 19.4634 11.4619 19.021 12.0768 18.7295C12.6843 18.4177 13.3562 18.2521 14.039 18.2457C14.3065 18.2268 14.5729 18.2961 14.7973 18.4429C14.8757 18.5009 14.9389 18.5769 14.9817 18.6645C15.0245 18.7522 15.0455 18.8488 15.0429 18.9463C15.0369 19.1988 14.9491 19.4426 14.7927 19.6409C14.561 19.9485 14.2643 20.2011 13.9238 20.3809C13.554 20.5753 13.1597 20.7191 12.7516 20.8085C12.3666 20.8873 11.9763 20.938 11.5839 20.9602" fill="white"/>
<path d="M17.0398 20.7037C17.3164 20.6772 17.589 20.6198 17.8527 20.5323C18.0604 20.4491 18.2518 20.33 18.4183 20.1805C18.6131 20.0083 18.7758 19.8029 18.899 19.574C19.0227 19.3639 19.0915 19.1261 19.0992 18.8825C19.1013 18.842 19.0943 18.8016 19.0785 18.7643C19.0627 18.727 19.0387 18.6938 19.0082 18.6671C18.9413 18.6135 18.8572 18.586 18.7716 18.5898C18.5826 18.5898 18.3682 18.699 18.1287 18.9173C17.6939 19.3136 17.331 19.9091 17.0398 20.7037ZM16.9853 20.9554C16.954 21.1282 16.9362 21.3031 16.9322 21.4786C16.9277 21.59 16.9487 21.7009 16.9937 21.8028C17.0386 21.9048 17.1063 21.9952 17.1915 22.067C17.389 22.2211 17.636 22.2977 17.886 22.2823C18.1717 22.2805 18.4549 22.2292 18.7231 22.1307C19.067 21.9975 19.3938 21.8239 19.6967 21.6136L19.8741 21.7364C19.4879 22.1158 19.0377 22.4239 18.5442 22.6463C18.0899 22.8333 17.6023 22.9261 17.1111 22.9192C16.4515 22.9192 15.9935 22.7888 15.7463 22.528C15.6254 22.4094 15.5296 22.2678 15.4645 22.1115C15.3994 21.9552 15.3663 21.7874 15.3672 21.6181C15.3833 21.0375 15.5817 20.4767 15.9344 20.0152C16.3318 19.4629 16.863 19.0204 17.4781 18.7293C18.0856 18.4174 18.7575 18.2517 19.4404 18.2455C19.708 18.2256 19.9746 18.2949 20.1986 18.4427C20.2779 18.4999 20.3418 18.5757 20.3846 18.6636C20.4275 18.7514 20.448 18.8485 20.4443 18.9461C20.439 19.1988 20.3511 19.4428 20.194 19.6407C19.9633 19.9485 19.667 20.2013 19.3266 20.3807C18.9568 20.5751 18.5625 20.7189 18.1544 20.8083C17.7689 20.887 17.3781 20.9377 16.9853 20.96" fill="white"/>
<path d="M21.6774 18.464H22.9967L22.792 19.2844C23.2878 18.6687 23.8201 18.3608 24.3948 18.3608C24.6189 18.364 24.8407 18.4066 25.0499 18.4867L24.5055 19.439C24.3114 19.3813 24.1069 19.3667 23.9065 19.3963C23.7061 19.4259 23.5146 19.499 23.3455 19.6104C23.0979 19.7574 22.8929 19.9665 22.751 20.217C22.5626 20.6032 22.4206 21.0105 22.3279 21.4301L21.9807 22.7889H20.5688L21.6774 18.464Z" fill="white"/>
<path d="M26.439 16.8232H27.8478L27.5794 17.8848H26.1676L26.439 16.8232ZM26.019 18.4686H27.4293L26.3283 22.7935H24.9165L26.019 18.4686Z" fill="white"/>
<path d="M28.6331 18.4642H29.9676L29.8448 18.9829C30.3051 18.5912 30.8872 18.3714 31.4916 18.3611C31.8078 18.3438 32.1227 18.4141 32.4015 18.5643C32.5037 18.6262 32.5927 18.7076 32.6635 18.8038C32.7343 18.9001 32.7854 19.0094 32.814 19.1254C33.0296 18.8863 33.2973 18.7001 33.5964 18.581C33.9317 18.4366 34.2929 18.3618 34.6579 18.3611C35.0095 18.3402 35.3577 18.4397 35.6452 18.6432C35.7587 18.7296 35.8501 18.8418 35.9117 18.9704C35.9734 19.0991 36.0037 19.2406 36 19.3832C35.976 19.645 35.9252 19.9037 35.8484 20.1551L35.1584 22.7937H33.745L34.432 20.1551C34.5154 19.8245 34.5579 19.6365 34.5624 19.594C34.5646 19.5388 34.5536 19.484 34.5304 19.4339C34.5072 19.3838 34.4724 19.3399 34.429 19.3059C34.3119 19.2261 34.1714 19.1882 34.0301 19.1982C33.8471 19.201 33.6669 19.2431 33.5015 19.3216C33.3362 19.4 33.1896 19.5131 33.0717 19.6531C32.8685 19.8761 32.6957 20.2597 32.5516 20.8253L32.0512 22.7876H30.6409L31.3051 20.1702C31.3612 19.9785 31.3998 19.7821 31.4203 19.5834C31.4211 19.5286 31.4085 19.4744 31.3837 19.4255C31.3589 19.3766 31.3225 19.3345 31.2778 19.3028C31.1637 19.2227 31.0257 19.1837 30.8865 19.1921C30.7199 19.1954 30.5559 19.2347 30.4058 19.3074C30.2413 19.3819 30.0933 19.4887 29.9706 19.6213C29.8358 19.7737 29.7271 19.9474 29.6491 20.1354C29.572 20.3535 29.5072 20.5757 29.455 20.8011L28.9455 22.7876H27.5337L28.6331 18.4642Z" fill="white"/>
</g>
<circle cx="20" cy="20" r="19.5" stroke="black" stroke-opacity="0.05"/>
<defs>
<clipPath id="clip0_16604_11834">
<rect width="32" height="6.73301" fill="white" transform="translate(4 16.1895)"/>
</clipPath>
</defs>
</svg>
