<svg width="40" height="40" viewBox="0 0 40 40" fill="none" xmlns="http://www.w3.org/2000/svg">
<circle cx="20" cy="20" r="20" fill="#0416BC"/>
<path d="M20.5404 17.2232C20.5404 17.1939 20.5172 17.1693 20.4879 17.1677C20.4802 17.1677 20.4725 17.1677 20.4648 17.1724L15.8354 19.2141C15.7814 19.2372 15.7521 19.2789 15.7459 19.3375L14.6572 29.628C14.6495 29.7067 14.6048 29.7499 14.5246 29.7545C13.3032 29.8254 12.0279 29.8887 10.8744 29.4214C9.11328 28.7074 8.16333 27.4151 8.02608 25.5414C7.92893 24.2399 8.10319 22.9846 8.54886 21.774C9.14412 20.1502 10.1527 18.5556 11.3062 17.2109C14.5554 13.4235 19.1787 11.2059 24.0903 10.313C24.9092 10.165 25.7204 10.1773 26.5546 10.2112C29.0205 10.3115 31.7562 11.7857 31.9767 14.5153C32.1217 16.3072 31.5943 18.1871 30.78 19.8233C29.3798 22.6376 27.1268 24.573 24.0209 25.6309C23.9562 25.6525 23.9238 25.6293 23.9238 25.5615L23.9423 22.1796C23.9423 22.1148 23.9716 22.0655 24.0287 22.0331C26.3958 20.6915 28.6859 18.9196 29.6157 16.3751C29.8702 15.6796 29.9273 14.9748 29.7885 14.2639C29.4507 12.5337 27.7529 11.8582 26.1568 11.6947C25.5908 11.6377 24.9724 11.6732 24.3001 11.8042C23.091 12.0402 21.9237 12.3517 20.7979 12.7403C16.1916 14.3287 12.3625 17.2957 10.2868 21.5936C10.0062 22.175 9.81186 22.7888 9.70237 23.438C9.28291 25.9115 10.3994 27.5986 12.9825 27.7312C13.0503 27.7359 13.0889 27.7035 13.0981 27.6372L14.4336 18.4878C14.4737 18.2102 14.651 17.9727 14.9039 17.8524C16.8254 16.9426 18.8425 15.988 20.9552 14.9887C21.6646 14.6541 22.3539 15.0242 22.3107 15.8754C22.1149 19.7184 21.9237 23.6338 21.734 27.6233C21.7324 27.6819 21.7602 27.7112 21.8173 27.7112H26.1907C26.2508 27.7112 26.2801 27.742 26.2801 27.8022V29.7129C26.2817 29.7638 26.257 29.7884 26.2061 29.7884H19.959C19.9359 29.7884 19.9158 29.7684 19.9158 29.7453C19.9158 29.7453 19.9158 29.7453 19.9158 29.7437L20.5404 17.2232Z" fill="white"/>
<circle cx="20" cy="20" r="19.5" stroke="black" stroke-opacity="0.05"/>
</svg>
