<svg width="40" height="40" viewBox="0 0 40 40" fill="none" xmlns="http://www.w3.org/2000/svg">
<circle cx="20" cy="20" r="20" fill="#F6F8FA"/>
<path d="M18.3234 16.4385C17.7866 17.8677 17.8018 19.3086 18.0171 20.762C18.0452 20.9519 18.068 21.089 17.7974 21.086C16.4996 21.0718 15.2445 20.8716 14.0739 20.2767C12.828 19.6434 12.1132 18.5969 11.7244 17.2862C11.182 15.4577 11.0659 13.5758 11.0072 11.6869C10.9892 11.1066 11.0112 10.5252 11.006 9.94431C11.0041 9.72982 11.075 9.69362 11.2652 9.78095C13.4137 10.7675 15.5087 11.8462 17.3424 13.3642C17.9028 13.8282 18.4061 14.3513 18.7801 14.9865C18.9017 15.1931 18.9337 15.369 18.7674 15.5776C18.5709 15.824 18.4568 16.1227 18.3234 16.4385Z" fill="#29BB57"/>
<path d="M18.8249 25.6133C18.3631 24.3828 18.2892 23.1381 18.3958 21.8695C18.4173 21.6146 18.5043 21.6082 18.7135 21.6698C19.922 22.0254 21.1535 22.1603 22.4086 22.0054C22.989 21.9337 23.5472 21.7715 24.0648 21.499C24.2771 21.3872 24.4332 21.4018 24.6219 21.5428C25.5056 22.2033 26.1104 23.0919 26.6459 24.0297C27.6273 25.7482 28.3553 27.5775 28.9638 29.4572C29.0354 29.6783 29.0173 29.768 28.7574 29.7407C26.2662 29.4789 23.7805 29.2022 21.4379 28.2168C20.2183 27.7036 19.3222 26.8828 18.8249 25.6133Z" fill="#238FCD"/>
<path d="M20.5069 14.3983C21.8347 13.6108 23.2702 13.1817 24.7275 12.8206C25.8659 12.5386 27.018 12.3184 28.1814 12.1605C28.3959 12.1314 28.5052 12.1505 28.4347 12.4144C27.8313 14.6738 27.1426 16.9006 25.9615 18.94C25.59 19.5815 25.1537 20.1749 24.574 20.6489C24.4529 20.7478 24.3409 20.84 24.1532 20.7597C22.6701 20.1251 21.1586 20.2107 19.6377 20.6014C19.3926 20.6644 19.1473 20.7265 18.9017 20.7874C18.8949 20.7891 18.8836 20.773 18.8512 20.7454C19.0364 20.2141 19.2732 19.6887 19.4192 19.1312C19.7346 17.9267 19.8254 16.7239 19.4285 15.5212C19.3777 15.3671 19.4129 15.2759 19.5161 15.1703C19.8058 14.8742 20.1294 14.6237 20.5069 14.3983Z" fill="#EE292F"/>
<circle cx="20" cy="20" r="19.5" stroke="black" stroke-opacity="0.05"/>
</svg>
