<svg width="40" height="40" viewBox="0 0 40 40" fill="none" xmlns="http://www.w3.org/2000/svg">
<circle cx="20" cy="20" r="20" fill="#E2100F"/>
<g clip-path="url(#clip0_17752_43647)">
<path d="M18.1613 17.4745V15.6639C18.1613 15.6622 18.162 15.6605 18.1632 15.6592C18.1645 15.6579 18.1662 15.6572 18.168 15.6572H19.2686C19.2727 15.6572 19.2748 15.6593 19.2748 15.6635V22.1116C19.2748 22.1211 19.2706 22.1281 19.2623 22.1327C18.5568 22.5275 17.8159 22.7063 17.0398 22.6692C16.7023 22.6532 16.3798 22.5834 16.0722 22.4598C15.561 22.2544 15.1779 21.9098 14.9229 21.4259C14.92 21.4206 14.9167 21.4202 14.9128 21.4247C14.7559 21.6074 14.5777 21.7721 14.3783 21.919C13.6014 22.4913 12.7279 22.7448 11.7577 22.6795C11.2623 22.6462 10.7371 22.4617 10.3419 22.2057C9.60987 21.7313 9.21663 20.9446 9.19551 20.0794C9.18376 19.5899 9.25909 19.095 9.46951 18.6571C9.8774 17.8092 10.649 17.3679 11.5708 17.3389C11.991 17.3256 12.3916 17.4218 12.7724 17.6273C13.7823 18.1727 14.0628 19.3414 13.8871 20.411C13.8869 20.4126 13.886 20.414 13.8847 20.4151C13.8835 20.4161 13.8818 20.4167 13.8802 20.4167L10.3253 20.4165C10.3124 20.4165 10.3074 20.4228 10.3105 20.4355C10.3957 20.7886 10.5662 21.067 10.8218 21.2704C11.2021 21.573 11.7496 21.7404 12.24 21.7114C12.9991 21.6666 13.6464 21.3959 14.1818 20.8992C14.3656 20.7287 14.5183 20.5466 14.64 20.3527C14.6467 20.3421 14.6498 20.3295 14.6487 20.3169C14.6009 19.7445 14.6916 19.111 14.9471 18.6067C15.3262 17.8586 16.0319 17.4056 16.8616 17.3406C17.2088 17.3136 17.5506 17.3399 17.887 17.4198C17.9777 17.4414 18.0656 17.4624 18.1507 17.4829C18.1578 17.4846 18.1613 17.4818 18.1613 17.4745ZM11.7738 18.2274C11.6134 18.2167 11.4563 18.2309 11.3026 18.2701C10.7071 18.4224 10.4009 18.9301 10.3131 19.5108C10.313 19.5117 10.313 19.5126 10.3133 19.5135C10.3136 19.5144 10.314 19.5153 10.3146 19.516C10.3153 19.5167 10.316 19.5173 10.3169 19.5176C10.3177 19.518 10.3187 19.5182 10.3196 19.5182L12.8322 19.5148C12.8379 19.5147 12.8406 19.5118 12.8401 19.5062C12.8222 19.2743 12.7688 19.0599 12.68 18.863C12.502 18.4679 12.1999 18.256 11.7738 18.2274ZM15.7617 19.7572C15.7065 20.3728 15.7783 21.0346 16.2857 21.4093C16.7989 21.7882 17.59 21.7433 18.1481 21.5197C18.1569 21.5162 18.1613 21.5096 18.1613 21.5V18.5395C18.1613 18.5364 18.1604 18.5334 18.1588 18.5307C18.1572 18.528 18.1549 18.5259 18.1522 18.5244C17.8239 18.3519 17.4456 18.2881 17.072 18.2979C16.22 18.3205 15.8303 18.9894 15.7617 19.7572Z" fill="white"/>
<path d="M27.4227 22.0639C27.1522 22.3252 26.8297 22.5077 26.4553 22.6112C25.7779 22.7988 24.9504 22.7165 24.4082 22.2251C24.4046 22.222 24.4001 22.2201 24.3954 22.2198C24.3907 22.2195 24.3859 22.2208 24.382 22.2234C23.4389 22.8775 22.0952 22.8293 21.1334 22.2755C20.7307 22.0437 20.4279 21.7098 20.2247 21.2738C19.7331 20.2183 19.8593 18.9357 20.6724 18.0813C21.4275 17.2878 22.6202 17.1448 23.6399 17.4392C23.7229 17.4632 23.8061 17.4972 23.8894 17.5412C23.8987 17.5461 23.9034 17.5539 23.9034 17.5644V18.4474C23.9034 18.4483 23.9031 18.4492 23.9027 18.45C23.9023 18.4508 23.9016 18.4515 23.9009 18.452C23.9001 18.4525 23.8992 18.4528 23.8983 18.4529C23.8974 18.4529 23.8965 18.4528 23.8957 18.4524C23.597 18.3134 23.2796 18.2419 22.9434 18.2379C22.3035 18.2303 21.6749 18.4539 21.3541 19.0273C21.1609 19.3728 21.1041 19.7788 21.1557 20.1727C21.2279 20.7253 21.4911 21.2071 21.9801 21.4876C22.4044 21.731 22.8653 21.8054 23.3626 21.7107C23.6022 21.6653 23.8115 21.58 23.9907 21.4549C23.9966 21.4508 24.0011 21.4451 24.0036 21.4384C24.0061 21.4317 24.0066 21.4244 24.0048 21.4175C23.9938 21.3718 23.9872 21.325 23.9849 21.2771C23.9521 20.6116 24.2633 19.9453 24.8835 19.6602C25.6539 19.3063 26.4829 19.3126 27.3128 19.3212C27.3225 19.3214 27.3277 19.3166 27.3281 19.3068C27.3418 18.9522 27.3106 18.6326 27.0146 18.4198C26.8372 18.2924 26.5992 18.2355 26.3828 18.2192C25.972 18.188 25.5466 18.2264 25.1529 18.3509C25.0299 18.39 24.9028 18.4273 24.7714 18.463C24.7634 18.4651 24.7594 18.462 24.7594 18.4539V17.5558C24.7594 17.548 24.7631 17.5426 24.7705 17.5397C24.9288 17.478 25.0969 17.4329 25.2748 17.4044C25.6531 17.3438 26.0486 17.3195 26.4613 17.3315C27.2346 17.3538 28.081 17.5676 28.379 18.3509C28.4571 18.5562 28.496 18.7767 28.4959 19.0127C28.4954 20.1295 28.4953 21.3066 28.4956 22.544C28.4956 22.5537 28.4908 22.5586 28.481 22.5586L27.4464 22.5584C27.4392 22.5584 27.4356 22.5549 27.4356 22.5478L27.4349 22.0692C27.4349 22.0677 27.4345 22.0663 27.4338 22.0651C27.433 22.0639 27.4319 22.063 27.4306 22.0624C27.4293 22.0618 27.4278 22.0617 27.4264 22.0619C27.425 22.0622 27.4237 22.0629 27.4227 22.0639ZM26.319 20.1905C25.9346 20.2027 25.4416 20.3323 25.2525 20.6884C25.1868 20.8123 25.1719 20.9498 25.2079 21.1008C25.2746 21.3803 25.4972 21.5667 25.7667 21.649C26.187 21.7772 26.7029 21.6857 27.0825 21.4758C27.1626 21.4315 27.2394 21.3861 27.313 21.3395C27.3197 21.3352 27.3231 21.329 27.3231 21.3208V20.1991C27.3231 20.1908 27.3189 20.1867 27.3106 20.1867C26.8954 20.1814 26.5648 20.1827 26.319 20.1905Z" fill="white"/>
<path d="M7.14731 18.1423C7.47746 17.7003 7.92277 17.4373 8.48325 17.3532C8.71647 17.3181 8.95672 17.3192 9.20401 17.3563C9.21328 17.3576 9.21792 17.3629 9.21792 17.3723L9.21768 18.4463C9.2177 18.4474 9.21748 18.4485 9.21702 18.4495C9.21656 18.4505 9.21587 18.4514 9.21502 18.4521C9.21417 18.4528 9.21317 18.4533 9.2121 18.4536C9.21102 18.4539 9.2099 18.4539 9.20881 18.4537C8.7523 18.3659 8.32666 18.4234 7.93189 18.6262C7.64893 18.7718 7.40588 18.973 7.20274 19.2299C7.19714 19.2371 7.1941 19.246 7.1941 19.2553V22.5505C7.1941 22.5526 7.19327 22.5547 7.19178 22.5561C7.1903 22.5576 7.18828 22.5585 7.18618 22.5585L6.02228 22.5582C6.01948 22.5582 6.01679 22.5571 6.01481 22.5552C6.01283 22.5533 6.01172 22.5506 6.01172 22.5479V17.3428C6.01172 17.3348 6.01572 17.3308 6.02372 17.3308H7.12668C7.1342 17.3308 7.13796 17.3346 7.13796 17.3421V18.1392C7.13796 18.1497 7.14108 18.1508 7.14731 18.1423Z" fill="white"/>
<path d="M30.426 22.6279L30.4262 24.3362C30.4262 24.338 30.4255 24.3396 30.4243 24.3408C30.4231 24.342 30.4215 24.3427 30.4197 24.3427H29.3244C29.3145 24.3427 29.3096 24.3377 29.3096 24.3276V17.8291C29.3096 17.8256 29.3106 17.8223 29.3125 17.8194C29.3143 17.8165 29.317 17.8142 29.3201 17.8127C29.9643 17.5149 30.6283 17.3554 31.3123 17.3341C31.8593 17.317 32.3922 17.4385 32.8658 17.7276C33.6406 18.2005 33.9578 18.9807 33.9866 19.8625C34.0187 20.8551 33.5998 21.8256 32.719 22.3074C32.0573 22.6692 31.1844 22.757 30.4425 22.6143C30.4315 22.6122 30.426 22.6167 30.426 22.6279ZM32.0673 18.4354C31.5726 18.2098 30.9567 18.2941 30.4392 18.4418C30.4304 18.4442 30.426 18.45 30.426 18.4591L30.4262 21.5773C30.4262 21.587 30.4309 21.5934 30.4404 21.5965C30.9411 21.7515 31.5177 21.7241 31.9999 21.5324C32.4469 21.3546 32.7003 20.9633 32.8121 20.5115C32.9029 20.1441 32.9029 19.7568 32.8121 19.3497C32.7188 18.9306 32.4738 18.6206 32.0673 18.4354Z" fill="white"/>
</g>
<circle cx="20" cy="20" r="19.5" stroke="black" stroke-opacity="0.05"/>
<defs>
<clipPath id="clip0_17752_43647">
<rect width="28" height="8.68552" fill="white" transform="translate(6 15.6572)"/>
</clipPath>
</defs>
</svg>
