<svg width="40" height="40" viewBox="0 0 40 40" fill="none" xmlns="http://www.w3.org/2000/svg">
<circle cx="20" cy="20" r="20" fill="#0095CE"/>
<g clip-path="url(#clip0_14382_21540)">
<path d="M19.4126 22.4951L20.3369 18.5115L18.0283 22.4124H17.1202L17.0092 18.5115L15.7842 22.4951H14.7126L16.3674 17.5328H17.9334L18.0081 20.7757L19.9333 17.5308H21.5679L20.5488 22.4931L19.4126 22.4951Z" fill="white"/>
<path d="M23.1884 18.3481H23.6627C24.1167 18.3481 24.4901 18.5035 24.4901 18.9737C24.4901 19.4742 24.0259 19.8798 23.3297 19.8798C23.1769 19.8819 23.0242 19.8697 22.8736 19.8435L23.1884 18.3481ZM21.1704 22.4952H22.3146L22.688 20.7133C22.809 20.7133 22.9725 20.7415 23.1662 20.7415C23.7841 20.7659 24.395 20.6042 24.9199 20.2774C25.1482 20.1241 25.3351 19.9168 25.4639 19.6738C25.5928 19.4309 25.6596 19.1599 25.6585 18.8849C25.666 18.6723 25.6148 18.4617 25.5105 18.2762C25.4062 18.0907 25.2528 17.9376 25.0672 17.8335C24.6636 17.5752 24.1087 17.5288 23.6122 17.5288H22.1996L21.1704 22.4952Z" fill="white"/>
<path d="M28.9842 17.5308H30.195L26.28 22.4931H24.9219L26.4959 20.6022L25.5979 17.5308H26.7462L27.285 19.6901L28.9842 17.5308Z" fill="white"/>
<path d="M32.322 17.0811C31.7604 17.0785 31.204 17.1883 30.6854 17.404L28.73 19.8781C28.6964 20.0639 28.6788 20.2523 28.6775 20.4411C28.6775 21.7125 29.6421 22.7174 31.3675 22.7174C32.2521 22.7459 33.119 22.4655 33.8194 21.9244C34.1912 21.6087 34.489 21.2151 34.6916 20.7715C34.8943 20.3279 34.9968 19.8451 34.9919 19.3574C35 18.0538 34.0737 17.0811 32.322 17.0811ZM31.5411 21.8598H31.531C30.4978 21.8598 30.0376 21.2544 30.0376 20.433C30.0376 19.3332 30.8812 17.9388 32.1707 17.9388C33.3008 17.9388 33.6217 18.637 33.6217 19.3514C33.6217 20.4431 32.7781 21.8537 31.5411 21.8537V21.8598Z" fill="white"/>
<path d="M13.6896 22.4951H14.9145L14.2829 17.5308H12.7815L10.1096 22.4931H11.3608L11.8714 21.4397H13.6008L13.6896 22.4951ZM12.2649 20.6325C12.2649 20.6325 13.1932 18.6609 13.3304 18.3602L13.5322 20.6325H12.2649Z" fill="white"/>
<path d="M9.06633 19.3875C8.40038 19.1373 7.96448 18.9839 7.89385 18.6711C7.82322 18.3583 8.09565 18.09 8.78986 18.0274C9.72622 17.9568 10.6828 18.3422 11.3063 18.6974L11.831 17.7227C10.8475 17.1678 9.71919 16.923 8.59411 17.0204C7.25212 17.1415 6.1301 17.7691 6.37428 18.8366C6.50545 19.4259 7.08664 19.8618 8.07346 20.2492C8.59411 20.451 9.14705 20.6892 9.21566 20.9959C9.30647 21.3995 8.81205 21.6598 8.24297 21.7143H8.22884C7.27028 21.7991 6.29154 21.4399 5.55899 21.0363L5 22.0978C6.01017 22.5873 7.12527 22.8209 8.24701 22.7778C8.75094 22.7715 9.24924 22.6709 9.71613 22.4812L10.7251 20.6125C10.5476 20.1342 10.0592 19.7609 9.06633 19.3875Z" fill="white"/>
</g>
<circle cx="20" cy="20" r="19.5" stroke="black" stroke-opacity="0.05"/>
<defs>
<clipPath id="clip0_14382_21540">
<rect width="30" height="5.78165" fill="white" transform="translate(5 17)"/>
</clipPath>
</defs>
</svg>
