<svg width="40" height="40" viewBox="0 0 40 40" fill="none" xmlns="http://www.w3.org/2000/svg">
<circle cx="20" cy="20" r="20" fill="#008DC6"/>
<g clip-path="url(#clip0_14382_20495)">
<path d="M28.8475 13.6533C29.4213 13.8617 30.0337 13.9343 30.5912 14.2138C31.7886 14.8143 32.5797 15.6877 32.8896 17.0385C33.0897 17.9171 33.0052 18.7341 32.785 19.5704C32.7287 19.7854 32.6367 19.8877 32.381 19.8818C30.7677 19.8469 29.1589 19.7335 27.5485 19.6482C27.04 19.6223 26.6018 19.1567 26.5491 18.6296C26.5042 18.2006 26.5497 17.7669 26.6826 17.3566L27.8881 13.6533H28.8475Z" fill="white"/>
<path d="M27.6627 13.6533C27.6627 13.7378 27.685 13.832 27.6553 13.9047C27.0896 15.3133 26.6033 16.7494 25.7477 18.0313C24.9922 19.1634 23.9365 19.6623 22.6338 19.7142C21.4521 19.7624 20.268 19.752 19.0863 19.7884C18.7237 19.7995 18.7296 19.6542 18.8349 19.3917C19.428 17.9089 20.403 16.7227 21.6722 15.7796C22.9764 14.8077 24.4154 14.1182 26.0242 13.8038C26.1288 13.7831 26.2118 13.7564 26.2548 13.6555L27.6627 13.6533Z" fill="white"/>
<path d="M14.9952 25.6327H7.40776C6.97182 25.6327 6.93773 25.5986 7.06376 25.193C7.57385 23.5456 8.09579 21.9027 8.60439 20.2553C8.66741 20.0514 8.76824 19.9914 8.97508 19.9958C11.6493 20.0574 14.3243 20.1085 16.9985 20.1678C17.4922 20.179 17.4618 20.2079 17.3291 20.675C17.1808 21.2013 16.8939 21.3244 16.3735 21.3051C15.1783 21.2614 13.9802 21.2911 12.7836 21.2925C12.5308 21.2925 12.1786 21.8352 12.2839 22.0651C12.3462 22.2 12.4789 22.1392 12.5805 22.1392C13.8409 22.1437 15.1012 22.1392 16.3557 22.1392C16.997 22.1392 17.639 22.1333 18.2833 22.1392C18.4953 22.1429 18.5636 22.0895 18.5228 21.8642C18.4383 21.4 18.4724 20.9337 18.5465 20.4681C18.5717 20.3109 18.6206 20.2064 18.7949 20.2168C20.245 20.305 21.7093 20.2071 23.1461 20.4518C23.6918 20.5452 23.9112 20.8373 23.8979 21.3741C23.8711 22.1183 23.7493 22.856 23.5353 23.5694C23.3871 24.0935 23.2099 24.611 23.0905 25.1419C23.0052 25.5126 22.8444 25.6468 22.4418 25.643C19.9618 25.6215 17.4826 25.6319 15.0026 25.6319L14.9952 25.6327Z" fill="white"/>
<path d="M15.3355 13.7725C16.779 13.7725 18.2225 13.7725 19.666 13.7725C19.8884 13.7725 20.0464 13.8014 19.9107 14.0735C19.5704 14.7563 19.5014 15.5244 19.2323 16.2302C19.1344 16.486 18.981 16.7203 18.9735 17.0138C18.9676 17.2615 18.7689 17.2689 18.5688 17.2681C17.1253 17.2622 15.6818 17.2763 14.2383 17.2548C13.8676 17.2496 13.6904 17.3608 13.5947 17.7278C13.4057 18.4514 13.3857 18.447 14.1196 18.4462C15.3659 18.4462 16.6122 18.4529 17.8577 18.4388C18.1595 18.4388 18.2032 18.5196 18.072 18.7724C17.903 19.0979 17.9008 19.5776 17.6035 19.7437C17.3284 19.8979 16.908 19.7956 16.5514 19.7993C14.0729 19.8237 11.5937 19.8423 9.11521 19.8734C8.80012 19.8779 8.74453 19.8185 8.8461 19.5109C9.4318 17.6885 9.99822 15.8602 10.5624 14.0305C10.6254 13.8266 10.7278 13.7717 10.9331 13.7732C12.4011 13.7814 13.869 13.7777 15.337 13.7777L15.3355 13.7725Z" fill="white"/>
<path d="M30.8685 20.0349C31.337 20.0349 31.8063 20.0483 32.2771 20.0305C32.5952 20.0186 32.5618 20.1595 32.461 20.3604C32.196 20.9167 31.8633 21.4381 31.4705 21.9129C29.6961 23.9804 27.4583 25.2015 24.7571 25.5761C24.3012 25.6384 23.8475 25.6199 23.3922 25.6369C23.1557 25.6451 23.0668 25.5746 23.1698 25.3404C23.5613 24.4433 23.7392 23.4513 24.3998 22.6713C24.6296 22.4 24.7386 22.0404 24.9595 21.749C25.6542 20.8312 26.6121 20.4523 27.7153 20.2877C28.7596 20.1334 29.813 20.0489 30.8685 20.0349Z" fill="white"/>
</g>
<circle cx="20" cy="20" r="19.5" stroke="black" stroke-opacity="0.05"/>
<defs>
<clipPath id="clip0_14382_20495">
<rect width="26" height="11.998" fill="white" transform="translate(7 13.6494)"/>
</clipPath>
</defs>
</svg>
