<svg width="40" height="40" viewBox="0 0 40 40" fill="none" xmlns="http://www.w3.org/2000/svg">
<circle cx="20" cy="20" r="20" fill="#F37022"/>
<path d="M28.947 13.7785L15.1556 19.4082C15.1133 19.4249 15.0664 19.4052 15.0498 19.3629C15.0452 19.3538 15.0437 19.3432 15.0437 19.3326V16.6856C15.0437 16.6569 15.0603 16.6297 15.0861 16.6146L28.8775 8.48462C28.9168 8.46193 28.9667 8.47554 28.9894 8.51487C28.997 8.52697 29 8.54209 29 8.55571V13.7029C28.9985 13.7362 28.9773 13.7664 28.947 13.7785Z" fill="white"/>
<path d="M28.9046 21.2898L11.052 24.7535C10.99 24.7656 10.931 24.7247 10.9189 24.6627C10.9189 24.6552 10.9174 24.6476 10.9174 24.6416L10.9128 22.2805C10.9128 22.2306 10.9446 22.1867 10.9915 22.1716L28.8517 16.3694C28.9106 16.3498 28.9757 16.383 28.9938 16.442C28.9969 16.4526 28.9999 16.4647 28.9999 16.4768L28.9969 21.1778C28.9969 21.2323 28.959 21.2792 28.9046 21.2898Z" fill="white"/>
<path d="M28.9183 28.6348L7.08017 28.6408C7.0363 28.6408 7 28.6045 7 28.5606V26.2737C7 26.2328 7.03176 26.198 7.0726 26.1935L28.9108 23.9262C28.9546 23.9217 28.994 23.9549 28.9985 23.9988C28.9985 24.0018 28.9985 24.0033 28.9985 24.0064V28.5546C28.9985 28.5985 28.9622 28.6348 28.9183 28.6348Z" fill="white"/>
<circle cx="20" cy="20" r="19.5" stroke="black" stroke-opacity="0.05"/>
</svg>
