<svg width="40" height="40" viewBox="0 0 40 40" fill="none" xmlns="http://www.w3.org/2000/svg">
<circle cx="20" cy="20" r="20" fill="#DF012A"/>
<path d="M18.1473 19.4306C18.1335 21.1168 17.5621 22.6113 16.5728 23.9592C16.0654 24.657 15.4402 25.261 14.7253 25.7441C13.8433 26.3371 12.8795 26.7196 11.8019 26.7348C10.1535 26.7574 8.82995 25.8054 8.29146 24.2462C7.90865 23.1381 7.93095 22.0204 8.19595 20.8996C8.5409 19.4419 9.26087 18.1838 10.3032 17.1139C11.0755 16.3221 11.9724 15.71 13.0419 15.3899C14.0499 15.0881 15.0547 15.0661 16.0248 15.5356C17.0073 16.0111 17.6028 16.8164 17.9226 17.841C18.0881 18.354 18.1641 18.8918 18.1473 19.4306ZM10.8116 21.6595C10.8095 21.8258 10.8247 21.9918 10.8569 22.1549C11.0313 23.1172 11.8609 23.6875 12.8187 23.5124C13.2858 23.4274 13.7197 23.2129 14.0708 22.8932C14.951 22.1025 15.4403 21.1352 15.3246 19.9213C15.2818 19.4727 15.0986 19.0754 14.7621 18.7725C14.2509 18.3126 13.6547 18.2712 13.0246 18.4782C11.7962 18.8861 10.8077 20.307 10.8116 21.6609V21.6595ZM16.8541 17.237C16.8622 16.372 16.2604 16.0009 15.6034 16.3579C15.0681 16.6483 14.7897 17.1196 14.7543 17.7182C14.7133 18.4304 15.3384 18.8352 15.9703 18.5079C16.5261 18.2224 16.8155 17.7472 16.8541 17.2392V17.237Z" fill="white"/>
<path d="M24.6847 21.6076H23.9064C23.6587 21.6076 23.6605 21.6076 23.6495 21.3684C23.6481 21.2974 23.6419 21.2264 23.6311 21.1562C23.537 20.6478 23.2119 20.3746 22.6939 20.375C22.0571 20.375 21.5639 20.658 21.1963 21.1714C20.7784 21.7544 20.6157 22.427 20.5134 23.1201C20.4632 23.4594 20.4427 23.8008 20.5113 24.1401C20.615 24.6443 20.9479 24.9273 21.4595 24.9538C22.2081 24.9935 22.8393 24.5728 23.1517 23.8086C23.2034 23.6826 23.2681 23.6409 23.3994 23.6423C23.9478 23.648 24.4962 23.6423 25.0445 23.6451C25.259 23.6451 25.2773 23.666 25.1928 23.8705C24.5559 25.4039 23.4645 26.3729 21.7853 26.6008C21.2473 26.6793 20.6993 26.6566 20.1695 26.5339C19.1301 26.2863 18.4497 25.5366 18.3761 24.4723C18.2562 22.7285 18.7501 21.1707 19.9382 19.8729C20.6022 19.1466 21.4687 18.797 22.4399 18.6884C23.0647 18.6177 23.6746 18.6714 24.2687 18.8805C25.197 19.2078 25.7476 19.9837 25.7497 20.9679C25.7497 21.1272 25.7433 21.2864 25.7355 21.4449C25.7299 21.5577 25.6708 21.6094 25.5519 21.6073C25.2625 21.6041 24.9734 21.6073 24.6847 21.6076Z" fill="white"/>
<path d="M28.406 21.1894C28.117 21.1894 27.8283 21.1866 27.5392 21.1894C27.4211 21.1894 27.3839 21.1565 27.4129 21.0323C27.5212 20.5674 27.6206 20.1008 27.7211 19.6341C27.7678 19.4179 27.7426 19.3865 27.5169 19.3865C27.0453 19.3843 26.5737 19.3812 26.1017 19.3896C25.9503 19.3925 25.9001 19.3624 25.9453 19.2021C26.0826 18.7144 26.2123 18.2245 26.3345 17.7324C26.3699 17.5909 26.4336 17.5478 26.5786 17.5513C27.0386 17.5616 27.4985 17.5481 27.9585 17.5591C28.1219 17.563 28.1892 17.5028 28.2203 17.3503C28.3179 16.8709 28.4326 16.3951 28.5245 15.9146C28.5599 15.7338 28.642 15.6779 28.8232 15.6818C29.3418 15.6932 29.8609 15.6854 30.3799 15.6857C30.6134 15.6857 30.618 15.6903 30.5702 15.9111C30.4688 16.3828 30.3661 16.8546 30.2621 17.3263C30.2175 17.5311 30.233 17.5527 30.4411 17.5531C30.895 17.5531 31.3489 17.5531 31.8028 17.5531C32.018 17.5531 32.0268 17.5644 31.9709 17.7774C31.8442 18.2621 31.7116 18.745 31.5888 19.2308C31.558 19.3518 31.4979 19.3879 31.3765 19.3861C30.9403 19.3797 30.5037 19.3907 30.0675 19.3794C29.8807 19.3744 29.7894 19.4349 29.7533 19.6239C29.6641 20.0866 29.5534 20.5437 29.4628 21.0079C29.4356 21.1494 29.3712 21.1919 29.2357 21.1884C28.9604 21.1859 28.6827 21.1891 28.406 21.1894Z" fill="white"/>
<path d="M28.0731 22.621C28.3504 22.621 28.6275 22.6263 28.9045 22.6185C29.0641 22.6142 29.0945 22.6747 29.0609 22.8219C28.9388 23.3558 28.8252 23.8918 28.7095 24.4271C28.6965 24.4844 28.6873 24.5426 28.682 24.6012C28.6653 24.8304 28.7315 24.9146 28.9547 24.9507C29.1753 24.9908 29.4008 24.9963 29.6231 24.967C29.8 24.9408 29.8212 24.967 29.7847 25.1439C29.7023 25.5479 29.6135 25.9506 29.5325 26.3546C29.5113 26.4607 29.4518 26.5067 29.352 26.5096C28.6989 26.5276 28.043 26.586 27.3963 26.4476C26.6575 26.2899 26.3907 25.8398 26.5556 25.0109C26.7035 24.2658 26.8776 23.5249 27.0361 22.7819C27.0616 22.6627 27.1192 22.6142 27.242 22.6171C27.519 22.6248 27.796 22.621 28.0731 22.621Z" fill="white"/>
<path d="M18.3729 15.991C18.4161 15.4957 18.6524 15.0251 19.2036 14.7665C19.7931 14.4898 20.3422 14.8405 20.328 15.4918C20.3149 16.0887 20.0269 16.5419 19.487 16.8009C18.9068 17.0782 18.375 16.7248 18.3729 15.991Z" fill="white"/>
<path d="M21.9418 15.0836C21.9559 14.7411 22.1632 14.3707 22.5729 14.1283C22.8319 13.9744 23.1213 13.9458 23.3754 14.1152C23.6294 14.2847 23.686 14.5628 23.6425 14.854C23.5767 15.2934 23.357 15.639 22.9607 15.8471C22.418 16.1305 21.9404 15.8315 21.9418 15.0836Z" fill="white"/>
<path d="M14.2764 20.9316C14.2445 21.3289 13.9265 21.8575 13.3179 22.1946C12.6553 22.5619 11.9975 22.2353 11.8776 21.4913C11.7612 20.7688 12.3475 19.8341 13.048 19.6257C13.7602 19.4138 14.3351 19.8804 14.2764 20.9316Z" fill="white"/>
<circle cx="20" cy="20" r="19.5" stroke="black" stroke-opacity="0.05"/>
</svg>
