<svg width="40" height="40" viewBox="0 0 40 40" fill="none" xmlns="http://www.w3.org/2000/svg">
<ellipse cx="20" cy="19.8433" rx="20" ry="19.8433" fill="#2FC3F4"/>
<path d="M9.87723 17.0494C9.8857 17.049 9.89417 17.0503 9.90208 17.0533C9.90999 17.0563 9.91718 17.061 9.92317 17.0669C9.92917 17.0729 9.93384 17.08 9.93688 17.0878C9.93992 17.0957 9.94127 17.1041 9.94083 17.1125V17.199C9.93949 17.2923 9.91961 17.3844 9.88234 17.4701C9.84506 17.5557 9.79111 17.6332 9.72359 17.6981C9.65607 17.7631 9.5763 17.8141 9.48886 17.8484C9.40141 17.8827 9.308 17.8995 9.21399 17.8979H4.7245C4.53504 17.9005 4.35231 17.8283 4.21647 17.6973C4.08062 17.5662 4.00279 17.387 4.00008 17.199V17.1125C3.99964 17.1041 4.00099 17.0957 4.00403 17.0878C4.00708 17.08 4.01175 17.0729 4.01774 17.0669C4.02374 17.061 4.03092 17.0563 4.03884 17.0533C4.04675 17.0503 4.05521 17.049 4.06368 17.0494H9.87845H9.87723Z" fill="white"/>
<path d="M12.3472 18.7956H13.0474C13.0591 18.7956 13.0703 18.8002 13.0786 18.8084C13.0869 18.8167 13.0916 18.8278 13.0916 18.8395V19.6327C13.0916 19.6367 13.09 19.6405 13.0871 19.6434C13.0843 19.6462 13.0804 19.6478 13.0764 19.6478H12.3387C12.3354 19.6478 12.3321 19.6484 12.329 19.6497C12.326 19.651 12.3232 19.6528 12.3209 19.6552C12.3186 19.6575 12.3168 19.6603 12.3156 19.6634C12.3143 19.6664 12.3138 19.6697 12.3138 19.673V22.4512C12.3138 22.461 12.31 22.4704 12.3031 22.4774C12.2962 22.4843 12.2868 22.4883 12.2769 22.4885H11.1036C11.0946 22.4883 11.086 22.4846 11.0796 22.4782C11.0733 22.4718 11.0697 22.4632 11.0697 22.4542V19.6898C11.0705 19.684 11.07 19.6781 11.0681 19.6726C11.0662 19.6671 11.0631 19.662 11.0589 19.6579C11.0547 19.6538 11.0497 19.6506 11.0441 19.6488C11.0385 19.6469 11.0326 19.6464 11.0267 19.6472H10.5767C10.5729 19.6472 10.5691 19.6464 10.5656 19.6449C10.5622 19.6435 10.559 19.6414 10.5563 19.6387C10.5537 19.636 10.5516 19.6328 10.5502 19.6293C10.5488 19.6258 10.5481 19.6221 10.5482 19.6183V18.8371C10.5474 18.8316 10.5479 18.826 10.5497 18.8207C10.5514 18.8154 10.5544 18.8106 10.5583 18.8067C10.5622 18.8027 10.567 18.7997 10.5723 18.7979C10.5776 18.7961 10.5832 18.7955 10.5888 18.7962H11.0255C11.0313 18.797 11.0373 18.7965 11.0428 18.7946C11.0484 18.7928 11.0534 18.7896 11.0576 18.7855C11.0617 18.7813 11.0648 18.7763 11.0666 18.7707C11.0684 18.7652 11.0688 18.7593 11.0679 18.7535C11.0564 17.7776 11.5422 17.1093 12.5822 17.0534C12.8232 17.0402 13.0648 17.0635 13.2987 17.1225C13.3033 17.1238 13.3073 17.1265 13.3101 17.1304C13.3128 17.1342 13.3142 17.1389 13.3139 17.1436L13.2642 17.9975C13.264 18.0008 13.2631 18.0039 13.2616 18.0068C13.2602 18.0097 13.2581 18.0123 13.2557 18.0144C13.2532 18.0166 13.2503 18.0182 13.2472 18.0192C13.2441 18.0202 13.2408 18.0206 13.2375 18.0204H13.2315C12.6215 17.816 12.2581 18.1339 12.3023 18.7547C12.3022 18.7604 12.3033 18.7661 12.3056 18.7714C12.3079 18.7766 12.3112 18.7813 12.3155 18.7852C12.3197 18.7891 12.3247 18.792 12.3302 18.7938C12.3356 18.7956 12.3414 18.7962 12.3472 18.7956Z" fill="white"/>
<path d="M33.2478 20.3152C33.249 20.3168 33.2504 20.3182 33.2521 20.3193C33.2538 20.3203 33.2557 20.321 33.2577 20.3214C33.2597 20.3217 33.2617 20.3217 33.2636 20.3212C33.2656 20.3208 33.2674 20.3199 33.269 20.3188C33.2711 20.3174 33.2728 20.3156 33.2739 20.3134C33.3269 20.2076 33.3877 20.1057 33.4556 20.0087C33.7492 19.5928 34.0347 19.1954 34.3121 18.8164C34.3169 18.8096 34.3234 18.8041 34.3309 18.8003C34.3384 18.7966 34.3467 18.7947 34.3551 18.7948H35.7639C35.7705 18.7948 35.7768 18.7974 35.7815 18.802C35.7862 18.8066 35.7888 18.8129 35.7888 18.8194C35.7887 18.8256 35.7863 18.8316 35.7821 18.8362L34.4181 20.2821C34.4156 20.2852 34.4143 20.289 34.4143 20.293C34.4143 20.2969 34.4156 20.3007 34.4181 20.3038L35.9983 22.4606C35.9997 22.4625 36.0007 22.4647 36.0013 22.467C36.0018 22.4694 36.0019 22.4718 36.0015 22.4741C36.0011 22.4765 36.0003 22.4787 35.999 22.4807C35.9977 22.4827 35.9961 22.4845 35.9941 22.4859C35.991 22.4882 35.9871 22.4895 35.9832 22.4895H34.5295C34.5174 22.4898 34.5055 22.4869 34.4949 22.4813C34.4842 22.4756 34.4753 22.4672 34.4689 22.457L33.5543 21.0069C33.5514 21.0021 33.5467 20.9987 33.5413 20.9973C33.5358 20.996 33.5301 20.9968 33.5253 20.9997L33.5198 21.0045L33.2703 21.3014C33.2482 21.3272 33.2361 21.36 33.2363 21.3939V22.4606C33.2362 22.4679 33.2332 22.4748 33.228 22.48C33.2228 22.4851 33.2158 22.4881 33.2085 22.4883H32.0237C32.0209 22.4887 32.0181 22.4884 32.0154 22.4875C32.0127 22.4866 32.0103 22.4851 32.0083 22.4832C32.0063 22.4812 32.0047 22.4788 32.0039 22.4761C32.003 22.4734 32.0027 22.4706 32.0031 22.4678V17.1698C32.0031 17.161 32.0066 17.1526 32.0129 17.1464C32.0191 17.1402 32.0276 17.1367 32.0364 17.1367H33.1945C33.2057 17.1369 33.2164 17.1414 33.2243 17.1492C33.2323 17.1571 33.2368 17.1677 33.2369 17.1788C33.2369 18.1499 33.2355 19.1836 33.2327 20.2797C33.2337 20.2929 33.239 20.3053 33.2478 20.3152Z" fill="white"/>
<path d="M19.4753 19.1655C19.4753 19.1998 19.4868 19.2046 19.5098 19.1787C19.8169 18.838 20.2469 18.7028 20.703 18.7124C21.502 18.7286 22.061 19.2484 22.2361 20.0297C22.5292 21.3392 21.7709 22.7045 20.2748 22.5591C20.088 22.5441 19.9067 22.4886 19.7438 22.3966C19.5808 22.3046 19.4402 22.1784 19.3317 22.0267C19.3051 21.9912 19.2905 21.9954 19.2875 22.0399L19.2627 22.4401C19.2631 22.4467 19.262 22.4534 19.2595 22.4595C19.2571 22.4657 19.2533 22.4713 19.2485 22.4759C19.2436 22.4804 19.2378 22.4839 19.2315 22.486C19.2252 22.4882 19.2184 22.4889 19.2118 22.4882L18.2493 22.4912C18.2389 22.4912 18.2289 22.4871 18.2215 22.4798C18.2141 22.4724 18.21 22.4625 18.21 22.4521C18.2402 20.6901 18.2318 18.9263 18.2251 17.1673C18.2251 17.1635 18.2259 17.1597 18.2274 17.1562C18.2289 17.1527 18.2311 17.1495 18.2339 17.1469C18.2366 17.1443 18.2399 17.1422 18.2435 17.1409C18.2471 17.1395 18.2509 17.1389 18.2548 17.1391H19.4274C19.4342 17.1382 19.4411 17.1388 19.4476 17.141C19.4541 17.1432 19.46 17.1469 19.4648 17.1517C19.4696 17.1565 19.4732 17.1624 19.4754 17.1689C19.4775 17.1754 19.4781 17.1822 19.4771 17.1889L19.4753 19.1655ZM20.4959 21.606C21.0362 21.4053 21.1131 20.722 20.9889 20.2364C20.9231 19.9784 20.787 19.7981 20.5807 19.6955C20.1343 19.4714 19.5782 19.704 19.4904 20.2046C19.4633 20.4309 19.4562 20.6591 19.4692 20.8866C19.4677 21.0244 19.4992 21.1606 19.5613 21.2839C19.6518 21.4403 19.7962 21.5591 19.9679 21.6183C20.1396 21.6775 20.3271 21.6731 20.4959 21.606Z" fill="white"/>
<path d="M7.30886 19.2826C7.3093 19.2849 7.31059 19.287 7.3125 19.2885C7.3144 19.2899 7.31677 19.2906 7.31915 19.2904C7.32093 19.2909 7.32283 19.2909 7.32461 19.2904C7.73972 18.8004 8.27698 18.6236 8.93639 18.7598C9.6069 18.898 9.94186 19.5176 9.95034 20.1931C9.95801 20.8341 9.95801 21.5921 9.95034 22.4671C9.95003 22.4738 9.94717 22.4801 9.94234 22.4848C9.9375 22.4895 9.93105 22.4922 9.92429 22.4923H8.75952C8.74972 22.4923 8.74032 22.4885 8.73339 22.4816C8.72647 22.4747 8.72257 22.4654 8.72257 22.4557C8.72257 21.7962 8.72257 21.1207 8.72257 20.4292C8.72257 20.0765 8.60143 19.7081 8.19803 19.6582C8.10388 19.6466 8.0083 19.655 7.9177 19.683C7.8271 19.7109 7.74357 19.7578 7.67269 19.8204C7.60181 19.883 7.54522 19.9598 7.50671 20.0459C7.4682 20.1319 7.44865 20.2251 7.44938 20.3193C7.45261 21.0404 7.45261 21.7536 7.44938 22.4587C7.44938 22.4635 7.44843 22.4683 7.44657 22.4727C7.44471 22.4772 7.44199 22.4812 7.43856 22.4846C7.43513 22.488 7.43106 22.4907 7.42657 22.4925C7.42209 22.4944 7.41729 22.4953 7.41243 22.4953L6.24342 22.4875C6.23507 22.4875 6.22706 22.4842 6.22115 22.4784C6.21524 22.4725 6.21193 22.4646 6.21193 22.4563C6.19739 21.2345 6.23373 20.0362 6.18164 18.8295C6.18164 18.8049 6.19254 18.7922 6.21738 18.7922H7.22345C7.22844 18.7917 7.23348 18.7923 7.23825 18.7938C7.24301 18.7954 7.24739 18.7979 7.25111 18.8012C7.25482 18.8046 7.25778 18.8087 7.2598 18.8132C7.26182 18.8178 7.26285 18.8227 7.26282 18.8277L7.30886 19.2826Z" fill="white"/>
<path d="M14.4925 22.3986C13.9316 22.1751 13.5774 21.771 13.4301 21.1865C13.2435 20.4479 13.4434 19.5958 14.086 19.1192C14.5561 18.7706 15.1157 18.6805 15.6984 18.7178C16.521 18.7694 17.2436 19.2803 17.4265 20.0837C17.5749 20.7382 17.4683 21.4455 17.0025 21.9437C16.3768 22.6174 15.2968 22.7195 14.4925 22.3986ZM15.3199 19.5501C14.5979 19.6745 14.5615 20.6535 14.736 21.1991C14.8195 21.4605 15.034 21.6883 15.3192 21.728C16.3762 21.874 16.4543 20.0531 15.7947 19.6396C15.6539 19.5505 15.4839 19.5184 15.3199 19.5501Z" fill="white"/>
<path d="M25.1728 22.1505C25.0982 22.2238 25.0171 22.2901 24.9305 22.3488C24.1007 22.8452 22.7075 22.5153 22.7917 21.3272C22.8699 20.2275 24.2115 20.0261 25.0625 20.0219C25.071 20.0219 25.0791 20.0187 25.0852 20.0129C25.0913 20.007 25.0949 19.9991 25.0952 19.9907C25.0983 19.665 24.8124 19.5291 24.5307 19.5099C24.1153 19.4868 23.7013 19.5763 23.3332 19.7689C23.325 19.773 23.3155 19.7736 23.3068 19.7708C23.2981 19.768 23.2909 19.7619 23.2866 19.7539C23.2864 19.7519 23.2864 19.7499 23.2866 19.7479L23.0849 19.0748C23.0813 19.0615 23.0825 19.0473 23.0883 19.0347C23.094 19.0221 23.1039 19.0119 23.1164 19.0057C23.5734 18.806 24.0676 18.7036 24.5671 18.7052C25.6131 18.6956 26.3194 19.1397 26.3381 20.2461C26.3458 20.712 26.3474 21.2373 26.343 21.8218C26.3408 22.037 26.3579 22.252 26.3939 22.4642C26.3944 22.4669 26.3944 22.4697 26.3938 22.4724C26.3932 22.475 26.3921 22.4776 26.3905 22.4798C26.3889 22.4821 26.3869 22.484 26.3846 22.4854C26.3822 22.4869 26.3796 22.4878 26.3769 22.4883H26.3708H25.3206C25.3149 22.4888 25.3091 22.4883 25.3036 22.4866C25.2981 22.485 25.293 22.4822 25.2886 22.4786C25.2842 22.475 25.2806 22.4705 25.278 22.4654C25.2754 22.4604 25.2738 22.4549 25.2733 22.4492L25.223 22.1662C25.2146 22.1337 25.1988 22.1271 25.1728 22.1505ZM24.2581 21.7118C24.4051 21.7646 24.566 21.7652 24.7133 21.7135C24.8607 21.6617 24.9854 21.5609 25.0662 21.4282C25.1722 21.2479 25.1267 20.9907 25.1364 20.7845C25.1367 20.7808 25.1362 20.7771 25.135 20.7736C25.1338 20.7701 25.1319 20.7668 25.1294 20.764C25.1269 20.7612 25.1239 20.759 25.1205 20.7573C25.1172 20.7557 25.1135 20.7547 25.1098 20.7545C24.8786 20.748 24.6478 20.7776 24.4259 20.8422C24.1188 20.9354 23.9068 21.2028 24.054 21.5255C24.0733 21.5688 24.1014 21.6077 24.1365 21.6397C24.1717 21.6718 24.2131 21.6963 24.2581 21.7118Z" fill="white"/>
<path d="M28.4204 19.2701C28.8852 18.7593 29.4459 18.5972 30.1025 18.7839C30.7615 18.9708 31.031 19.594 31.0334 20.2461C31.0358 21.0293 31.0358 21.7687 31.0334 22.4642C31.0334 22.4711 31.0307 22.4776 31.0258 22.4825C31.0209 22.4873 31.0143 22.4901 31.0074 22.4901H29.8565C29.8496 22.4911 29.8426 22.4905 29.836 22.4883C29.8294 22.4861 29.8233 22.4824 29.8184 22.4775C29.8135 22.4726 29.8099 22.4666 29.8078 22.46C29.8056 22.4534 29.8051 22.4464 29.8063 22.4396C29.8095 21.6996 29.8095 21.0057 29.8063 20.3579C29.8063 20.0574 29.6694 19.7317 29.3393 19.6649C29.1734 19.631 29.0007 19.6605 28.8558 19.7476C28.7109 19.8346 28.6045 19.9727 28.5579 20.1343C28.5372 20.3015 28.5299 20.4701 28.5361 20.6385C28.5361 21.2559 28.5361 21.8641 28.5361 22.463C28.5361 22.47 28.5333 22.4767 28.5283 22.4817C28.5233 22.4867 28.5165 22.4895 28.5094 22.4895L27.3404 22.4876C27.3351 22.4876 27.3298 22.4866 27.3249 22.4846C27.32 22.4826 27.3155 22.4796 27.3117 22.4759C27.308 22.4721 27.305 22.4677 27.3029 22.4628C27.3009 22.4579 27.2999 22.4527 27.2999 22.4474C27.2999 21.5129 27.3132 20.5652 27.2853 19.6229C27.2776 19.3713 27.2706 19.1055 27.2641 18.8254C27.2633 18.8208 27.2636 18.8161 27.265 18.8117C27.2663 18.8073 27.2687 18.8032 27.272 18.7999C27.2752 18.7965 27.2792 18.794 27.2837 18.7925C27.2881 18.791 27.2928 18.7905 27.2974 18.7912H28.3029C28.3078 18.7905 28.3128 18.791 28.3176 18.7925C28.3223 18.794 28.3267 18.7965 28.3303 18.7998C28.334 18.8031 28.3369 18.8071 28.3389 18.8117C28.3408 18.8162 28.3418 18.8211 28.3417 18.826L28.3877 19.2551C28.3895 19.2875 28.4004 19.2912 28.4204 19.2701Z" fill="white"/>
<path d="M5.24662 22.4507C5.24662 22.4556 5.24564 22.4604 5.24376 22.4649C5.24187 22.4694 5.2391 22.4736 5.23562 22.477C5.23213 22.4805 5.22799 22.4832 5.22343 22.4851C5.21888 22.487 5.21399 22.4879 5.20906 22.4879H4.04732C4.04239 22.4879 4.0375 22.487 4.03295 22.4851C4.02839 22.4832 4.02425 22.4805 4.02076 22.477C4.01728 22.4736 4.01451 22.4694 4.01262 22.4649C4.01074 22.4604 4.00977 22.4556 4.00977 22.4507V18.8317C4.00977 18.8218 4.01372 18.8123 4.02076 18.8053C4.02781 18.7984 4.03736 18.7944 4.04732 18.7944H5.20906C5.21902 18.7944 5.22857 18.7984 5.23562 18.8053C5.24266 18.8123 5.24662 18.8218 5.24662 18.8317V22.4507Z" fill="white"/>
<path d="M20 0.813477C30.7733 0.813477 39.5 9.47793 39.5 20.1572C39.4997 30.8363 30.7731 39.5 20 39.5C9.22689 39.5 0.500257 30.8363 0.5 20.1572C0.5 9.47793 9.22673 0.813477 20 0.813477Z" stroke="black" stroke-opacity="0.05"/>
</svg>
