<svg width="40" height="40" viewBox="0 0 40 40" fill="none" xmlns="http://www.w3.org/2000/svg">
<circle cx="20" cy="20" r="20" fill="#0C2E75"/>
<path d="M35.4338 19.6515C35.1079 20.6287 34.7861 21.5945 34.4632 22.56C34.3797 22.8097 34.2428 22.9101 33.9816 22.9155C33.8502 22.9182 33.7187 22.9162 33.5872 22.916C33.5672 22.9159 33.5471 22.9137 33.5143 22.9118C33.3745 22.4948 33.2333 22.0752 33.0932 21.6552C32.7294 20.5652 32.3693 19.4741 31.9996 18.3862C31.9367 18.2009 31.8335 18.0292 31.751 17.8556C32.066 17.8556 32.4121 17.8556 32.778 17.8556C33.2079 19.1687 33.6401 20.4888 34.083 21.8414C34.1119 21.761 34.133 21.7077 34.1503 21.6532C34.5373 20.4326 34.9253 19.2122 35.3084 17.9902C35.3427 17.8811 35.3896 17.8381 35.5077 17.8465C35.678 17.8585 35.8497 17.8495 36.0354 17.8495C35.8329 18.4558 35.6352 19.0479 35.4338 19.6515Z" fill="white"/>
<path d="M14.1 20.1569C13.5953 20.1569 13.1057 20.1569 12.6061 20.1569C12.6061 20.3705 12.6061 20.5749 12.6061 20.7989C12.6548 20.8011 12.7078 20.8054 12.7607 20.8055C13.0943 20.8061 13.4278 20.8045 13.7614 20.8061C14.0239 20.8073 14.1208 20.9032 14.1215 21.1618C14.1226 21.6166 14.1233 22.0714 14.1212 22.5263C14.1198 22.8227 14.0263 22.9137 13.7292 22.9161C13.5881 22.9173 13.447 22.9163 13.2917 22.9163C13.2917 22.331 13.2917 21.7526 13.2917 21.1596C12.3001 21.1596 11.3226 21.1596 10.3336 21.1596C10.3336 21.0375 10.3336 20.93 10.3336 20.8112C10.8075 20.8112 11.2759 20.8112 11.7541 20.8112C11.7541 20.5913 11.7541 20.3821 11.7541 20.1602C11.0993 20.1602 10.4446 20.1602 9.78027 20.1602C9.78027 20.0447 9.78027 19.9415 9.78027 19.8167C9.83476 19.8167 9.88809 19.8167 9.94142 19.8167C10.9774 19.8167 12.0135 19.8142 13.0494 19.82C13.1713 19.8207 13.2272 19.7791 13.2412 19.668C13.2658 19.4731 13.2993 19.2782 13.3071 19.0824C13.3184 18.8006 13.31 18.5181 13.31 18.2223C12.3394 18.2223 11.3771 18.2223 10.4067 18.2223C10.4067 18.1053 10.4067 18.0017 10.4067 17.8874C10.4497 17.8849 10.4933 17.8803 10.5369 17.8803C11.6083 17.8798 12.6797 17.8798 13.7511 17.8801C14.0591 17.8801 14.148 17.9656 14.1419 18.2775C14.1352 18.6203 14.1326 18.9643 14.0985 19.3048C14.0815 19.4748 13.9982 19.6381 13.9412 19.816C14.1896 19.816 14.4437 19.816 14.7047 19.816C14.7047 19.9336 14.7047 20.0372 14.7047 20.1569C14.5063 20.1569 14.3108 20.1569 14.1 20.1569Z" fill="white"/>
<path d="M19.8978 21.371C19.8945 21.5781 19.9098 21.7725 19.8841 21.9614C19.8339 22.331 19.6361 22.6175 19.3284 22.8267C18.789 23.1933 18.0098 23.1934 17.4687 22.8289C16.71 22.3178 16.7037 21.2617 17.4621 20.7503C17.8989 20.4558 18.3791 20.4056 18.8828 20.5415C18.9454 20.5584 19.0073 20.5781 19.0821 20.6003C19.0821 20.3461 19.0821 20.1024 19.0821 19.8417C18.7867 19.8417 18.4962 19.8417 18.2005 19.8417C18.2005 19.7205 18.2005 19.6161 18.2005 19.4965C18.496 19.4965 18.7867 19.4965 19.0848 19.4965C19.0848 19.3272 19.0848 19.1731 19.0848 19.0065C18.8016 19.0065 18.5204 19.0065 18.232 19.0065C18.232 18.8909 18.232 18.7874 18.232 18.6678C18.5133 18.6678 18.7934 18.6678 19.0696 18.6678C19.1267 18.4028 19.0919 18.1093 18.9765 17.8557C19.2797 17.8557 19.5802 17.8557 19.8978 17.8557C19.8978 19.025 19.8978 20.1904 19.8978 21.371ZM18.7662 22.6302C19.1854 22.3442 19.245 21.5556 18.9419 21.1288C18.6475 20.7141 18.0566 20.7447 17.8116 21.1961C17.6113 21.5651 17.6109 21.9551 17.7833 22.334C17.9623 22.7274 18.3614 22.8471 18.7662 22.6302Z" fill="white"/>
<path d="M28.5402 17.8499C29.4844 17.8499 30.4134 17.8499 31.351 17.8499C31.351 18.0034 31.351 18.1471 31.351 18.3042C30.7708 18.3042 30.1921 18.3042 29.5934 18.3042C29.5934 18.3702 29.5934 18.4234 29.5934 18.4766C29.5933 19.8058 29.5934 21.135 29.5931 22.4642C29.593 22.7843 29.4644 22.9135 29.1438 22.9161C29.0083 22.9172 28.8728 22.9163 28.7216 22.9163C28.7216 21.378 28.7216 19.85 28.7216 18.3088C28.1273 18.3088 27.5486 18.3088 26.9629 18.3088C26.9629 18.1519 26.9629 18.0084 26.9629 17.8499C27.4868 17.8499 28.0059 17.8499 28.5402 17.8499Z" fill="white"/>
<path d="M6.88618 19.4192C6.94689 20.2366 6.2394 20.8849 5.41244 20.7838C4.67172 20.6933 4.1843 20.161 4.21097 19.4717C4.22454 19.121 4.37614 18.8373 4.7277 18.5237C4.48679 18.5237 4.26438 18.5237 4.03516 18.5237C4.03516 18.403 4.03516 18.2992 4.03516 18.1806C4.39793 18.1806 4.75897 18.1806 5.15244 18.1806C5.13166 18.0219 5.11327 17.8815 5.09432 17.7368C5.36978 17.7368 5.66045 17.7368 5.96493 17.7368C5.96493 17.8748 5.96493 18.0138 5.96493 18.1721C6.34347 18.1721 6.70902 18.1721 7.0815 18.1721C7.0815 18.2951 7.0815 18.3987 7.0815 18.5126C6.85102 18.5126 6.6252 18.5126 6.35826 18.5126C6.66525 18.7603 6.85222 19.0409 6.88618 19.4192ZM5.05936 20.1067C5.17317 20.3177 5.33413 20.4547 5.58948 20.4357C5.84367 20.4168 5.98892 20.2542 6.07475 20.0366C6.2058 19.7043 6.20509 19.3654 6.07314 19.0328C5.96856 18.7691 5.77651 18.6306 5.53952 18.6366C5.26967 18.6435 5.11738 18.8105 5.02828 19.0408C4.8933 19.3897 4.89994 19.7404 5.05936 20.1067Z" fill="white"/>
<path d="M25.295 22.9163C25.2153 22.9163 25.1499 22.9163 25.0655 22.9163C25.0655 22.8493 25.0655 22.7901 25.0655 22.7309C25.0655 21.2905 25.0686 19.85 25.0618 18.4097C25.0609 18.2253 25.009 18.0413 24.9805 17.8557C25.2265 17.8557 25.5121 17.8557 25.8202 17.8557C25.8202 17.9085 25.8202 17.9612 25.8202 18.0139C25.8202 19.4695 25.8202 20.9251 25.8201 22.3807C25.8201 22.4211 25.82 22.4615 25.8182 22.5019C25.8044 22.8089 25.6939 22.9145 25.3851 22.9163C25.3598 22.9165 25.3346 22.9163 25.295 22.9163Z" fill="white"/>
<path d="M23.8799 17.973C23.8582 17.9317 23.8423 17.901 23.8207 17.8594C24.1111 17.8594 24.3936 17.8594 24.6893 17.8594C24.6893 17.9119 24.6893 17.9611 24.6893 18.0103C24.6893 19.3191 24.6898 20.6279 24.6882 21.9366C24.6881 22.0216 24.6808 22.1083 24.663 22.1912C24.6308 22.3409 24.5325 22.4315 24.3791 22.4416C24.2395 22.4508 24.0988 22.4436 23.9426 22.4436C23.9426 21.5622 23.9426 20.6861 23.9426 19.7976C23.666 19.7976 23.4051 19.7976 23.1377 19.7976C23.1377 19.6805 23.1377 19.5759 23.1377 19.4568C23.4019 19.4568 23.6621 19.4568 23.9637 19.4568C23.9371 18.955 23.9114 18.4692 23.8799 17.973Z" fill="white"/>
<path d="M21.9574 18.0476C22.3161 18.0477 22.6596 18.0461 23.0031 18.0482C23.2929 18.05 23.3871 18.1544 23.3624 18.4389C23.327 18.8451 23.1467 19.192 22.9124 19.5135C22.6561 19.8651 22.3441 20.1552 21.9447 20.3416C21.928 20.3493 21.9139 20.3626 21.8788 20.3871C22.3042 20.4749 22.6822 20.6237 23.0467 20.8194C23.3108 20.9613 23.4473 21.1342 23.4017 21.4488C23.3725 21.65 23.3962 21.8589 23.3962 22.1099C22.7293 21.194 21.863 20.6785 20.7656 20.489C21.7403 20.0958 22.5068 19.562 22.5567 18.3993C22.0744 18.3993 21.6023 18.3993 21.1207 18.3993C21.1207 18.2807 21.1207 18.1769 21.1207 18.0476C21.392 18.0476 21.6671 18.0476 21.9574 18.0476Z" fill="white"/>
<path d="M9.06037 19.3982C8.83492 19.3982 8.62435 19.3982 8.40123 19.3982C8.40123 19.7713 8.40157 20.1287 8.4011 20.486C8.40081 20.7031 8.40439 20.9204 8.39675 21.1374C8.39 21.329 8.29191 21.4266 8.10436 21.4332C7.93357 21.4392 7.7624 21.4344 7.57193 21.4344C7.57193 21.3752 7.57193 21.3218 7.57193 21.2684C7.57193 20.319 7.57475 19.3695 7.56953 18.4201C7.5685 18.2318 7.53661 18.0437 7.51855 17.8513C7.78862 17.8513 8.0848 17.8513 8.39861 17.8513C8.39861 18.2478 8.39861 18.6435 8.39861 19.0504C8.67668 19.0504 8.93758 19.0504 9.20935 19.0504C9.20935 19.1693 9.20935 19.2765 9.20935 19.3982C9.16345 19.3982 9.11935 19.3982 9.06037 19.3982Z" fill="white"/>
<path d="M16.9175 19.7574C17.227 19.3566 17.3418 18.9053 17.3485 18.4003C16.8025 18.4003 16.2607 18.4003 15.7107 18.4003C15.7107 18.2788 15.7107 18.1749 15.7107 18.0477C15.7636 18.0477 15.8165 18.0477 15.8695 18.0477C16.5111 18.0477 17.1528 18.0474 17.7944 18.0478C18.1447 18.048 18.2245 18.1512 18.1828 18.5055C18.0229 19.8645 17.1911 20.4533 16.1171 20.7022C16.0043 20.7283 15.8851 20.7326 15.7761 20.7688C15.5869 20.8316 15.4983 20.7394 15.4346 20.5654C16.0097 20.4522 16.5316 20.2377 16.9175 19.7574Z" fill="white"/>
<path d="M8.21343 22.5715C8.34373 22.5715 8.45906 22.5715 8.58441 22.5715C8.58441 22.6908 8.58441 22.7983 8.58441 22.9162C8.4058 22.9162 8.23476 22.9162 8.06372 22.9162C7.29567 22.9162 6.52762 22.9163 5.75957 22.9161C5.704 22.9161 5.64835 22.9166 5.59286 22.914C5.31976 22.9014 5.22154 22.8047 5.21678 22.5294C5.21198 22.2515 5.22239 21.9733 5.2132 21.6957C5.20712 21.512 5.17822 21.3291 5.1582 21.1328C5.28149 21.1328 5.43029 21.1328 5.5791 21.1328C5.73049 21.1328 5.88188 21.1328 6.05103 21.1328C6.05103 21.6092 6.05103 22.0807 6.05103 22.5715C6.77857 22.5715 7.48851 22.5715 8.21343 22.5715Z" fill="white"/>
<circle cx="20" cy="20" r="19.5" stroke="black" stroke-opacity="0.05"/>
</svg>
