<svg width="40" height="40" viewBox="0 0 40 40" fill="none" xmlns="http://www.w3.org/2000/svg">
<circle cx="20" cy="20" r="20" fill="#2E4190"/>
<path d="M25.4519 24.9714C30.5415 20.9091 33.2279 15.7866 31.4531 13.5318C29.6768 11.2771 24.1118 12.7438 19.0237 16.8077C13.9341 20.8716 11.2478 25.9925 13.0241 28.2473C14.7988 30.502 20.3638 29.0353 25.4519 24.9714Z" fill="white"/>
<path d="M19.1082 16.9219H20.5968L21.3145 19.2329L21.9321 16.9219H23.4207L22.137 21.6972H20.6468L19.9792 19.541L19.3646 21.6972H17.8245L19.1082 16.9219Z" fill="#2E4190"/>
<path d="M24.7153 20.917C25.0374 20.9435 25.2172 20.6199 25.2172 20.6199H26.5526C25.9881 21.9036 24.5511 21.9036 24.5511 21.9036C22.3182 21.63 23.4722 19.2861 23.4722 19.2861C24.6949 17.4551 26.1929 18.3104 26.1929 18.3104C27.2703 19.0813 26.7074 20.3634 26.7074 20.3634H24.5511C24.4917 20.673 24.5089 20.9029 24.7168 20.9185L24.7153 20.917ZM24.806 19.6958H25.4736C25.4736 19.6958 25.5847 19.2329 25.2672 19.2329C25.2672 19.2329 24.917 19.2501 24.8044 19.6958H24.806Z" fill="#2E4190"/>
<path d="M27.4753 19.6944H27.1031L27.4628 18.2575H27.8865L28.143 17.2817H29.5815L29.4267 18.2575H29.8895L29.5299 19.6944H29.017L28.5542 21.7491H26.9624L27.4753 19.6944Z" fill="#2E4190"/>
<path d="M9.61993 13.0718L8 18.815H9.76222L10.4565 16.8136L11.01 18.8275H13.1835L12.1796 15.9176L14.547 13.0843H12.5783L10.8677 14.9607L11.3571 13.0843H9.60742" fill="white"/>
<path d="M14.9692 13.0596L13.4133 18.8403H16.7564L17.2833 17.0125H15.7025L16.6923 13.0721H15.0067" fill="white"/>
<circle cx="20" cy="20" r="19.5" stroke="black" stroke-opacity="0.05"/>
</svg>
