<svg width="40" height="40" viewBox="0 0 40 40" fill="none" xmlns="http://www.w3.org/2000/svg">
<circle cx="20" cy="20" r="20" fill="#214897"/>
<g clip-path="url(#clip0_14382_21364)">
<path d="M29.0331 22.5074L27.5072 23.3481C27.4778 23.365 27.4395 23.3549 27.4226 23.3245C27.417 23.3154 27.4147 23.3042 27.4147 23.294L27.4181 21.519C27.426 19.9851 27.4249 18.4783 27.4136 17.0008C27.4125 16.8002 27.399 16.5624 27.2333 16.426C27.0507 16.2761 26.8478 16.2637 26.6258 16.3899C24.8621 17.3896 23.0667 18.4197 21.241 19.4813C21.1632 19.5264 21.0685 19.5264 20.9908 19.4813L18.2059 17.8449C18.1867 17.8336 18.1811 17.81 18.1924 17.7908C18.1958 17.7852 18.2003 17.7807 18.2059 17.7773C20.0452 16.6942 21.8811 15.6078 23.7125 14.5202C24.2704 14.1878 24.187 13.7505 23.6573 13.4372C22.5663 12.7914 21.4416 12.1276 20.283 11.4446L17.7224 9.95356C18.1991 9.6008 18.6984 9.3337 19.2202 9.15C19.9223 8.90318 20.5929 8.96066 21.2319 9.32468C23.7305 10.7458 26.1412 12.1355 28.4629 13.4958C28.7683 13.675 29.0771 13.933 29.3904 14.27C30.0215 14.953 29.9764 15.5165 29.9787 16.5534C29.9832 18.3701 29.9843 20.1519 29.9809 21.8988C29.9809 21.954 29.9505 22.0058 29.9021 22.0318L29.0331 22.5074Z" fill="#BF2331"/>
<path d="M17.7729 11.0489L19.2031 11.8818C19.2425 11.9054 19.256 11.9561 19.2324 11.9956C19.2245 12.008 19.2143 12.0181 19.202 12.026L17.7436 12.8566C16.2097 13.7312 14.7131 14.59 13.2558 15.4319C13.1217 15.5096 13.0383 15.6392 13.0079 15.8229C12.9684 16.0619 13.2006 16.2546 13.3832 16.3594C15.573 17.6115 17.7954 18.867 20.0495 20.1247C20.0731 20.1383 20.0878 20.1619 20.0878 20.189V31.2856C20.0889 31.3228 20.0709 31.3397 20.0337 31.3385C19.5536 31.3137 19.105 31.1808 18.6869 30.9407C16.1928 29.5083 13.8498 28.1626 11.6588 26.9015C11.3298 26.7133 10.9747 26.5104 10.7133 26.2399C10.2613 25.7745 10.0281 25.1738 10.0145 24.439C10.0021 23.818 10.0055 23.3536 10.0224 23.0448L12.5312 24.5257C13.8385 25.2977 15.1177 26.0416 16.3675 26.7584C16.6369 26.9116 16.8679 26.924 17.0618 26.7967C17.2601 26.6659 17.2759 26.4248 17.2736 26.2129C17.2612 24.901 17.259 23.5745 17.2646 22.2345C17.2646 22.1072 17.2049 21.9877 17.1012 21.9122C16.8837 21.7544 16.665 21.6102 16.4441 21.4794C14.3423 20.2374 12.2167 18.9955 10.0675 17.7535C10.0326 17.7332 10.0157 17.7039 10.0145 17.6645C9.99312 17.0593 9.99537 16.436 10.0213 15.7936C10.0799 14.3285 11.0063 13.7673 12.1344 13.1249C13.6875 12.2402 15.1898 11.3791 16.6402 10.5417C16.7113 10.5012 16.7992 10.5 16.8702 10.5406L17.7729 11.0489Z" fill="white"/>
<path d="M29.9708 23.073C30.0136 24.3093 30.1106 25.2504 29.4084 26.0968C29.2044 26.3425 28.8618 26.6039 28.3783 26.8812C26.0172 28.2359 23.619 29.6221 21.1835 31.041C21.1587 31.0556 21.1271 31.0478 21.1125 31.023C21.108 31.0151 21.1057 31.0061 21.1057 30.997V28.2437C21.1057 28.2065 21.126 28.1716 21.1587 28.1525L27.4756 24.5122L29.9708 23.073Z" fill="#BF2331"/>
</g>
<circle cx="20" cy="20" r="19.5" stroke="black" stroke-opacity="0.05"/>
<defs>
<clipPath id="clip0_14382_21364">
<rect width="20" height="22.3386" fill="white" transform="translate(10 9)"/>
</clipPath>
</defs>
</svg>
