<svg width="40" height="40" viewBox="0 0 40 40" fill="none" xmlns="http://www.w3.org/2000/svg">
<circle cx="20" cy="20" r="20" fill="white"/>
<circle cx="20" cy="20" r="19.5" stroke="black" stroke-opacity="0.05"/>
<circle cx="20" cy="20" r="20" fill="#003E79"/>
<circle cx="20" cy="20" r="19.5" stroke="black" stroke-opacity="0.05"/>
<g clip-path="url(#clip0_14382_19070)">
<path d="M25.3097 28.5715L20.2855 21.0823H17.1565V15.1096H13.3333V28.5715H17.1565V23.2491L20.7273 28.5715H25.3097Z" fill="#D7D8DA"/>
<path d="M26.5509 22.1597L28.8887 9.5238L16.701 13.5977C16.701 13.5977 19.027 14.1647 21.192 15.4645L16.2839 21.1106L19.1697 23.6195L24.0777 17.9724C25.6655 19.9362 26.5509 22.1597 26.5509 22.1597Z" fill="#D50982"/>
</g>
<circle cx="20" cy="20" r="20" fill="#003E79"/>
<circle cx="20" cy="20" r="19.5" stroke="black" stroke-opacity="0.05"/>
<path d="M24.9337 28L19.9275 20.5295H16.8096V14.5718H13V28H16.8096V22.6909L20.3677 28H24.9337Z" fill="#D7D8DA"/>
<path d="M26.1705 21.6043L28.5 9L16.3558 13.0637C16.3558 13.0637 18.6734 13.6293 20.8307 14.9258L15.9402 20.5578L18.8156 23.0605L23.7061 17.4275C25.2883 19.3864 26.1705 21.6043 26.1705 21.6043Z" fill="#D50982"/>
<defs>
<clipPath id="clip0_14382_19070">
<rect width="15.5564" height="19.0476" fill="white" transform="translate(13.3333 9.5238)"/>
</clipPath>
</defs>
</svg>
