<svg width="40" height="40" viewBox="0 0 40 40" fill="none" xmlns="http://www.w3.org/2000/svg">
<circle cx="20" cy="20" r="20" fill="#0F70B7"/>
<path d="M10.921 23.0001C8.99735 21.7682 8.02369 20.0436 8 17.8262C8.01051 16.661 8.36778 15.5254 9.02626 14.5641C10.1406 12.9835 11.6886 12.1306 13.67 12.0055C13.6777 12.005 13.6853 12.0059 13.6926 12.0083C13.6999 12.0107 13.7067 12.0145 13.7125 12.0195C13.7183 12.0246 13.7231 12.0307 13.7265 12.0375C13.7299 12.0444 13.732 12.0519 13.7325 12.0596V28.0077C13.7325 28.0221 13.7268 28.0358 13.7167 28.0459C13.7066 28.0561 13.6928 28.0618 13.6785 28.0618H8.07818C8.01421 28.0618 7.99858 28.0348 8.03127 27.9793L10.9395 23.0598C10.9443 23.0493 10.945 23.0375 10.9416 23.0265C10.9382 23.0154 10.9309 23.0061 10.921 23.0001Z" fill="white"/>
<path d="M20.6704 17.5692V12.0626C20.6704 12.0483 20.6761 12.0346 20.6862 12.0244C20.6964 12.0143 20.7101 12.0086 20.7244 12.0086H24.9375C24.9518 12.0086 24.9655 12.0143 24.9757 12.0244C24.9858 12.0346 24.9915 12.0483 24.9915 12.0626V28.0094C24.9915 28.0237 24.9858 28.0375 24.9757 28.0476C24.9655 28.0577 24.9518 28.0634 24.9375 28.0634H20.7116C20.6973 28.0634 20.6836 28.0577 20.6734 28.0476C20.6633 28.0375 20.6576 28.0237 20.6576 28.0094L20.6662 22.4972C20.6662 22.4829 20.6605 22.4691 20.6503 22.459C20.6402 22.4489 20.6265 22.4432 20.6121 22.4432L19.3954 22.456C19.3811 22.456 19.3673 22.4617 19.3572 22.4718C19.3471 22.4819 19.3414 22.4957 19.3414 22.51V28.0122C19.3414 28.0266 19.3357 28.0403 19.3256 28.0504C19.3154 28.0606 19.3017 28.0663 19.2874 28.0663H15.0601C15.0458 28.0663 15.0321 28.0606 15.0219 28.0504C15.0118 28.0403 15.0061 28.0266 15.0061 28.0122V12.0569C15.0061 12.0426 15.0118 12.0289 15.0219 12.0187C15.0321 12.0086 15.0458 12.0029 15.0601 12.0029H19.2888C19.3031 12.0029 19.3169 12.0086 19.327 12.0187C19.3371 12.0289 19.3428 12.0426 19.3428 12.0569L19.3357 17.5606C19.3357 17.575 19.3414 17.5887 19.3515 17.5988C19.3617 17.609 19.3754 17.6146 19.3897 17.6146H20.6164C20.6307 17.6146 20.6445 17.609 20.6546 17.5988C20.6647 17.5887 20.6704 17.575 20.6704 17.5606V17.5692Z" fill="white"/>
<path d="M29.1065 17.0915C29.3299 17.2267 29.5463 17.3733 29.7547 17.5307C31.3438 18.8573 32.0853 20.5488 31.9792 22.6051C31.8915 23.8744 31.3925 25.0805 30.5578 26.0407C29.4699 27.2725 28.0708 27.9477 26.3603 28.0662C26.3487 28.0689 26.3366 28.0687 26.3251 28.0657C26.3135 28.0626 26.3029 28.0567 26.2942 28.0485C26.2855 28.0404 26.2789 28.0302 26.2751 28.0189C26.2712 28.0076 26.2703 27.9955 26.2722 27.9837V12.064C26.2722 12.047 26.279 12.0307 26.291 12.0187C26.303 12.0067 26.3192 12 26.3362 12H31.9664C31.9707 12 31.9749 12.0008 31.9789 12.0025C31.9829 12.0041 31.9865 12.0065 31.9895 12.0096C31.9925 12.0126 31.9949 12.0162 31.9966 12.0202C31.9982 12.0241 31.9991 12.0284 31.9991 12.0327C32.0003 12.0373 32.0003 12.0423 31.9991 12.0469L29.088 16.9579C29.0789 16.9672 29.0721 16.9784 29.068 16.9908C29.0639 17.0032 29.0627 17.0163 29.0645 17.0292C29.0663 17.0421 29.071 17.0544 29.0783 17.0652C29.0856 17.076 29.0952 17.085 29.1065 17.0915Z" fill="white"/>
<circle cx="20" cy="20" r="19.5" stroke="black" stroke-opacity="0.05"/>
</svg>
