<svg width="40" height="40" viewBox="0 0 40 40" fill="none" xmlns="http://www.w3.org/2000/svg">
<circle cx="20" cy="20" r="20" fill="#F6F8FA"/>
<path d="M11.2644 19.8433C11.2644 19.75 11.2644 19.6933 11.2644 19.6366C11.2644 18.3152 11.2668 16.9938 11.2609 15.6724C11.2602 15.5227 11.2936 15.4688 11.4516 15.4757C11.7408 15.4886 12.0314 15.4883 12.3209 15.4757C12.4734 15.4691 12.5155 15.5116 12.5148 15.6668C12.5082 16.9419 12.5109 18.217 12.5109 19.4918C12.5109 20.8017 12.5061 22.1116 12.5158 23.4212C12.5172 23.607 12.4598 23.6425 12.2927 23.6352C12.0035 23.6224 11.7129 23.6269 11.4234 23.6342C11.3033 23.6373 11.2619 23.6011 11.2647 23.4779C11.272 23.1595 11.2605 22.8404 11.2682 22.5216C11.2967 21.3095 10.2906 20.2613 9.00437 20.2804C8.24501 20.2915 7.48565 20.279 6.72628 20.2853C6.59439 20.2863 6.55889 20.2487 6.56307 20.1196C6.57246 19.8071 6.56898 19.4939 6.56481 19.1807C6.56341 19.0773 6.59752 19.0356 6.70471 19.0373C7.58518 19.0523 8.46634 19.006 9.34612 19.0624C10.0171 19.1055 10.6139 19.3564 11.1513 19.7549C11.1784 19.7751 11.2049 19.7963 11.2644 19.8423V19.8433Z" fill="#7B95C0"/>
<path d="M33.4848 22.1316C33.4848 22.6056 33.4828 23.0556 33.4866 23.5056C33.4873 23.604 33.4121 23.5999 33.3585 23.6138C32.4258 23.8609 31.5934 23.6834 30.9217 22.9735C30.2922 22.3081 30.1192 21.5052 30.3854 20.6365C30.6552 19.7564 31.2736 19.2038 32.1694 19.0103C33.6307 18.695 34.9994 19.8194 35.0206 21.3322C35.0307 22.0509 35.0199 22.7702 35.0248 23.4889C35.0255 23.6002 34.999 23.6375 34.8825 23.6347C34.5637 23.6267 34.2446 23.6256 33.9258 23.6347C33.8047 23.6382 33.7814 23.594 33.782 23.4857C33.7855 22.8015 33.7862 22.1173 33.7831 21.4331C33.7803 20.814 33.4869 20.4037 32.9413 20.244C32.4756 20.1076 31.9679 20.3045 31.6881 20.7298C31.4309 21.121 31.4685 21.6607 31.7504 22.0331C32.106 22.5029 32.8974 22.6644 33.4111 22.1737C33.4232 22.1622 33.4406 22.156 33.4848 22.1302V22.1316Z" fill="#1A53A7"/>
<path d="M23.9783 18.9658C25.2965 18.969 26.3552 20.0241 26.3576 21.3379C26.3597 22.6387 25.2771 23.7259 23.9814 23.7242C22.6656 23.7225 21.5899 22.6464 21.5927 21.3347C21.5954 20.0273 22.6673 18.9627 23.9786 18.9658H23.9783Z" fill="#1A53A7"/>
<path d="M28.0134 19.7677C28.3312 19.5108 28.6496 19.3295 28.9955 19.1955C29.3554 19.056 29.727 18.9829 30.1123 18.9662C30.2115 18.962 30.2438 18.9916 30.2424 19.0904C30.2372 19.4266 30.2344 19.7628 30.2403 20.099C30.2421 20.1975 30.2021 20.2128 30.1203 20.2149C28.9645 20.2424 28.0044 21.2673 28.0145 22.4032C28.0176 22.7682 28.0072 23.1333 28.0113 23.4984C28.0127 23.6055 27.9807 23.6372 27.8742 23.6351C27.5495 23.6292 27.2248 23.6282 26.9005 23.6362C26.7877 23.639 26.7686 23.5975 26.7689 23.4963C26.7721 22.0586 26.7724 20.6213 26.7689 19.1837C26.7689 19.0689 26.8016 19.0358 26.9151 19.0382C27.2394 19.0455 27.5645 19.0449 27.8888 19.0393C27.988 19.0375 28.019 19.0685 28.0155 19.1667C28.0089 19.3546 28.0134 19.5432 28.0134 19.768V19.7677Z" fill="#1A53A7"/>
<path d="M19.3357 19.7731C19.841 19.3694 20.3759 19.1206 20.9752 19.0159C21.1346 18.988 21.295 18.9647 21.4583 18.9644C21.5331 18.9644 21.5588 18.9856 21.5581 19.0621C21.555 19.4098 21.554 19.7575 21.5592 20.1051C21.5609 20.2134 21.4948 20.2085 21.4241 20.2123C20.8336 20.2426 20.3443 20.4876 19.9378 20.9108C19.5369 21.3284 19.3524 21.8341 19.3382 22.4045C19.3291 22.7692 19.3315 23.1346 19.3382 23.4996C19.3402 23.6093 19.3061 23.6368 19.2007 23.6347C18.8819 23.6284 18.5631 23.6288 18.2444 23.6347C18.1438 23.6364 18.1034 23.6162 18.1038 23.5031C18.1076 22.0599 18.1072 20.6171 18.1038 19.1739C18.1038 19.0674 18.1344 19.0354 18.2409 19.0374C18.5597 19.0441 18.8784 19.0454 19.1972 19.0367C19.3204 19.0333 19.3409 19.0823 19.3368 19.1885C19.3298 19.3719 19.3347 19.5553 19.3347 19.7731H19.3357Z" fill="#1A53A7"/>
<path d="M16.006 22.212C16.006 22.6561 16.0032 23.0786 16.0085 23.5011C16.0095 23.587 15.9844 23.6152 15.9023 23.6392C14.748 23.9778 13.4568 23.2449 13.1558 22.0787C13.0959 21.847 13.0671 21.6138 13.0674 21.3754C13.0688 20.6512 13.0709 19.9273 13.065 19.2031C13.0639 19.0768 13.0904 19.0326 13.2258 19.0375C13.5264 19.0486 13.8285 19.0476 14.1292 19.0378C14.2642 19.0336 14.3053 19.0716 14.3039 19.2101C14.2969 19.9165 14.2987 20.6234 14.3018 21.3302C14.3028 21.5926 14.3276 21.8494 14.5002 22.0693C14.8698 22.5399 15.4485 22.6199 15.9281 22.2618C15.9462 22.2482 15.966 22.2374 16.006 22.2117V22.212Z" fill="#1A53A7"/>
<path d="M17.5505 21.3482C17.5505 22.0554 17.5473 22.7626 17.5533 23.4697C17.5543 23.5978 17.523 23.6399 17.39 23.6357C17.0772 23.626 16.764 23.6295 16.4511 23.6347C16.3474 23.6364 16.3001 23.6218 16.3004 23.4972C16.3053 22.0596 16.3046 20.6219 16.3011 19.1846C16.3011 19.0726 16.3293 19.0343 16.4455 19.0367C16.7699 19.044 17.0949 19.044 17.4193 19.0367C17.5296 19.0343 17.5529 19.0698 17.5522 19.1742C17.5477 19.8988 17.5498 20.6233 17.5498 21.3479H17.5505V21.3482Z" fill="#1A53A7"/>
<path d="M5.02549 23.6331C5.32235 23.251 5.59415 22.9002 5.86699 22.5501C6.34411 21.939 6.82367 21.3296 7.29697 20.7157C7.3704 20.6204 7.44313 20.5748 7.56842 20.5772C8.03127 20.5852 8.49413 20.5804 8.97926 20.5804C8.60967 21.0533 8.25191 21.5123 7.89277 21.9703C7.48211 22.4941 7.07007 23.0165 6.66011 23.5406C6.61974 23.5921 6.58563 23.6352 6.50837 23.6345C6.02812 23.631 5.54786 23.6328 5.02515 23.6328L5.02549 23.6331Z" fill="#1A53A7"/>
<path d="M8.83167 18.7401C9.54683 17.8332 10.2453 16.9468 10.9744 16.0225C10.9744 16.5838 10.9577 17.0971 10.9806 17.6084C10.9942 17.9118 10.9215 18.1551 10.7102 18.3726C10.57 18.517 10.4565 18.6879 10.3312 18.8469C10.2916 18.8974 10.2571 18.9472 10.1753 18.919C9.75076 18.7721 9.30844 18.7429 8.83201 18.7401H8.83167Z" fill="#1A53A7"/>
<path d="M23.9779 20.2043C24.6304 20.2168 25.1186 20.7263 25.1054 21.3806C25.0932 21.9844 24.5531 22.4928 23.9424 22.4758C23.3246 22.4584 22.8242 21.9409 22.8333 21.3284C22.8426 20.6936 23.3528 20.1925 23.9779 20.2043Z" fill="#FEFEFE"/>
<circle cx="20" cy="20" r="19.5" stroke="black" stroke-opacity="0.05"/>
</svg>
