<svg width="40" height="40" viewBox="0 0 40 40" fill="none" xmlns="http://www.w3.org/2000/svg">
<circle cx="20" cy="20" r="20" fill="#F16D9A"/>
<g clip-path="url(#clip0_14382_21227)">
<path fill-rule="evenodd" clip-rule="evenodd" d="M33.9999 14.3083C33.9999 15.0331 33.4048 15.6228 32.6765 15.6228C31.9481 15.6228 31.3871 15.0331 31.384 14.3114C31.384 13.5896 31.9481 12.9968 32.6734 12.9968C33.3986 12.9968 33.9999 13.5865 33.9999 14.3052" fill="white"/>
<path fill-rule="evenodd" clip-rule="evenodd" d="M26.9209 14.7751H26.8527C23.6417 14.7751 21.0599 17.3397 21.063 20.5186C21.0661 23.6698 23.651 26.2252 26.862 26.2221H26.9302C30.107 26.2221 32.6857 23.6637 32.6857 20.5125C32.6857 17.3643 30.0977 14.8089 26.924 14.7782L26.9209 14.7751ZM26.9271 23.5009C25.2379 23.5009 23.8494 22.1556 23.8463 20.4848C23.8463 18.814 25.2348 17.4349 26.924 17.4349C28.61 17.4349 29.9676 18.8109 29.9676 20.4787C29.9676 22.1526 28.6131 23.4978 26.9271 23.5009Z" fill="white"/>
<path fill-rule="evenodd" clip-rule="evenodd" d="M11.1294 15.0486H10.7637L5.99683 15.0517L6.00612 25.9734H10.773H10.9714C10.9714 25.9734 15.5399 26.0963 15.6019 20.4941C15.6019 20.4941 16.0296 15.2759 11.1294 15.0486ZM12.8868 20.4634C12.9891 23.0526 11.1697 23.4488 10.773 23.5133H8.62202L8.61892 17.2538H10.7699H10.804C13.1874 17.6807 12.8899 20.4665 12.8899 20.4665L12.8868 20.4634Z" fill="white"/>
<path d="M19.7056 15.0454H16.9905V26.001H19.7056V15.0454Z" fill="white"/>
</g>
<circle cx="20" cy="20" r="19.5" stroke="black" stroke-opacity="0.05"/>
<defs>
<clipPath id="clip0_14382_21227">
<rect width="28" height="13.2222" fill="white" transform="translate(6 13)"/>
</clipPath>
</defs>
</svg>
