<svg width="40" height="40" viewBox="0 0 40 40" fill="none" xmlns="http://www.w3.org/2000/svg">
<circle cx="20" cy="20" r="20" fill="#F6F8FA"/>
<g clip-path="url(#clip0_24563_42806)">
<path d="M13.6646 29.6233C13.7213 29.5879 13.7355 29.5453 13.7142 29.5028L13.7922 29.0489L18.5071 11.9708C18.7908 10.9496 19.0602 9.94957 19.3367 8.95666C19.4005 8.72262 19.5494 8.68007 19.7905 8.81482C24.0162 11.2403 28.0222 13.5453 31.8154 15.7297C32.021 15.8503 32.0849 16.0772 32.0069 16.2829C30.369 20.7013 28.7454 25.063 27.143 29.368C27.0083 29.7368 26.7176 29.7226 26.3276 29.7226C22.2011 29.7368 18.0746 29.7368 13.9552 29.7297C13.856 29.7297 13.7567 29.6943 13.6716 29.6233H13.6646ZM23.761 22.3538L23.6688 25.1127C23.6688 25.1907 23.7184 25.2616 23.7893 25.29C23.9666 25.3467 24.1651 25.3751 24.3849 25.3893C24.4416 25.3893 24.4913 25.3538 24.5054 25.3042C24.5338 25.2191 24.548 25.134 24.548 25.0489C24.6473 22.4106 24.7394 19.7581 24.8245 17.0843C24.8387 16.5311 24.548 16.0701 23.9879 15.9638C23.6617 15.8999 23.3568 16.0418 23.1796 16.3113C21.5134 18.8219 19.8259 21.368 18.1101 23.9496C18.0463 24.0489 17.9967 24.1552 17.9541 24.2616C17.9328 24.3255 17.9683 24.3893 18.025 24.4106C18.025 24.4106 18.0321 24.4106 18.0392 24.4106C18.2732 24.4602 18.5142 24.5028 18.7695 24.5382C18.9538 24.5595 19.0956 24.4957 19.1949 24.3396C19.7408 23.4815 20.3081 22.595 20.8965 21.673C20.9107 21.6446 20.9391 21.6375 20.9674 21.6446L23.7255 22.3255C23.7255 22.3255 23.7468 22.3396 23.7468 22.3538H23.761ZM27.4762 20.6233C27.696 20.2545 27.9016 20.212 28.3129 20.2616C28.4192 20.2758 28.5256 20.2262 28.5681 20.1269C28.639 19.9567 28.6036 19.7794 28.4405 19.6872C28.1427 19.5099 27.9442 19.3113 27.9725 18.9283C27.9938 18.6375 28.0151 18.3396 28.0293 18.0347C28.0293 17.9283 28.0151 17.8361 27.9796 17.7439C27.9655 17.7155 27.9442 17.7013 27.9158 17.6943C27.8166 17.673 27.7386 17.7155 27.6677 17.8361C27.5188 18.0914 27.377 18.3396 27.2423 18.5808C26.9728 19.0701 26.6963 18.907 26.2567 18.8928C26.0511 18.8857 25.9589 19.1694 26.0157 19.3255C26.044 19.3964 26.0936 19.4531 26.1716 19.5028C26.5049 19.7155 26.7247 19.8857 26.7105 20.3255C26.6963 20.6233 26.6821 20.9354 26.6609 21.2687C26.6609 21.3609 26.6609 21.5169 26.7743 21.5453C26.8736 21.5737 26.9587 21.5382 27.0154 21.4389C27.1714 21.1694 27.3273 20.8999 27.4833 20.6375L27.4762 20.6233ZM25.257 25.2829C25.2216 25.4035 25.2925 25.5311 25.413 25.5666C25.4272 25.5666 25.4414 25.5666 25.4555 25.5737L25.7746 25.6021C25.8809 25.6091 25.9873 25.5453 26.0157 25.4389L26.9445 22.29C26.9799 22.1694 26.909 22.0418 26.7885 22.0063L26.4907 21.9212C26.3702 21.8857 26.2425 21.9567 26.2071 22.0772L25.257 25.2758V25.2829Z" fill="#1D7FFA"/>
<path d="M18.5069 11.9711L13.7919 29.0491C13.7919 28.964 13.7706 28.8931 13.7281 28.8434C13.7068 28.8222 13.6997 28.8009 13.6997 28.7796C13.6997 27.7583 13.7352 26.7371 13.7919 25.7158C13.8202 25.1555 13.8415 24.6236 13.8628 24.12C13.8982 23.042 13.9691 21.9427 13.9975 20.8789C14.0329 19.581 14.118 18.2973 14.1606 17.0136C14.1889 16.0633 14.2315 15.0917 14.2882 14.0917C14.2882 14.0704 14.2882 14.0349 14.274 13.9853L14.4513 10.198C14.4513 10.1058 14.5293 10.0349 14.6143 10.0278C14.6994 10.0278 14.7916 10.042 14.8838 10.0917C16.0324 10.6803 17.1526 11.2477 18.2516 11.7938C18.3012 11.8222 18.3509 11.8505 18.3934 11.8931C18.443 11.9356 18.4856 11.964 18.521 11.9711H18.5069Z" fill="#80C418"/>
<path d="M14.2673 13.9849C14.2815 14.0345 14.2815 14.07 14.2815 14.0913C14.2318 15.0913 14.1893 16.0629 14.1538 17.0132C14.1113 18.2898 14.0262 19.5735 13.9908 20.8785C13.9624 21.9423 13.8915 23.0416 13.8561 24.1196C13.8419 24.6232 13.8206 25.1622 13.7852 25.7154C13.7284 26.7366 13.7001 27.7579 13.693 28.7792C13.693 28.8076 13.7001 28.8288 13.7213 28.843C13.771 28.8927 13.7922 28.9565 13.7852 29.0487L13.7072 29.5026C13.6292 29.531 13.5795 29.4813 13.5512 29.3466C12.7216 25.2757 11.8992 21.2047 11.0838 17.1338C11.0838 17.1196 11.0696 17.0983 11.0625 17.0913C11.0483 17.0771 11.0413 17.07 11.0271 17.0558C11.0413 17.0558 11.0483 17.0487 11.0554 17.0416C11.0554 17.0416 11.0554 17.0274 11.0554 17.0203C10.7789 15.6657 10.5024 14.2827 10.2117 12.8714C10.1833 12.7366 10.1833 12.6303 10.2117 12.5381C10.2259 12.4955 10.2613 12.4742 10.3039 12.4813C10.396 12.4955 10.4953 12.5168 10.6017 12.5593C11.8283 13.0274 13.0478 13.5026 14.2602 13.9849H14.2673Z" fill="#FD992A"/>
<path d="M23.761 22.3537C23.761 22.3537 23.7539 22.3254 23.7397 22.3254L20.9816 21.6445C20.9816 21.6445 20.9249 21.6445 20.9107 21.6729C20.3223 22.5949 19.748 23.4814 19.2091 24.3395C19.1098 24.4956 18.968 24.5665 18.7837 24.5381C18.5284 24.5098 18.2874 24.4672 18.0534 24.4105C17.9896 24.3963 17.947 24.3325 17.9612 24.2686C17.9612 24.2686 17.9612 24.2615 17.9612 24.2544C17.9967 24.141 18.0463 24.0346 18.1172 23.9424C19.8259 21.3608 21.5205 18.8147 23.1867 16.3041C23.364 16.0346 23.6688 15.8927 23.995 15.9566C24.5551 16.063 24.8458 16.5239 24.8316 17.0771C24.7465 19.7509 24.6544 22.4034 24.5551 25.0417C24.5551 25.1268 24.5409 25.2119 24.5126 25.297C24.4984 25.3537 24.4488 25.3892 24.392 25.3821C24.1722 25.3679 23.9737 25.3395 23.7965 25.2828C23.7185 25.2615 23.6688 25.1906 23.6759 25.1055L23.7681 22.3466L23.761 22.3537ZM21.5914 20.6161C21.5914 20.6161 21.5772 20.6871 21.6127 20.7083C21.6127 20.7083 21.6269 20.7083 21.6339 20.7154L23.7114 21.297C23.7114 21.297 23.7823 21.2828 23.7965 21.2473C23.7965 21.2473 23.7965 21.2403 23.7965 21.2332L23.9383 17.1764C23.9383 17.141 23.9099 17.1055 23.8744 17.1055C23.8532 17.1055 23.8248 17.1197 23.8177 17.1339L21.5985 20.609L21.5914 20.6161Z" fill="white"/>
<path d="M11.034 17.0558C11.034 17.0558 11.0624 17.077 11.0695 17.0912C11.0766 17.1054 11.0837 17.1196 11.0907 17.1338C11.9061 21.2047 12.7286 25.2756 13.5581 29.3465C13.5865 29.4742 13.6361 29.5309 13.7141 29.5026C13.7354 29.5451 13.7141 29.5806 13.6645 29.6231C13.5723 29.5806 13.5014 29.5097 13.4589 29.4175C11.3389 25.0416 9.22602 20.6657 7.10606 16.2898C7.07061 16.2189 7.04934 16.148 7.03516 16.077C7.03516 16.0416 7.04934 16.0061 7.09188 15.999C7.09897 15.999 7.11315 15.999 7.12024 15.999L11.0269 17.0629L11.034 17.0558Z" fill="#F46060"/>
<path d="M21.5915 20.6162L23.8107 17.141C23.8107 17.141 23.8745 17.0985 23.9029 17.1197C23.9241 17.1339 23.9312 17.1552 23.9312 17.1765L23.7894 21.2332C23.7894 21.2687 23.754 21.297 23.7185 21.297C23.7185 21.297 23.7114 21.297 23.7043 21.297L21.6269 20.7155C21.6269 20.7155 21.5702 20.6658 21.5773 20.6304C21.5773 20.6304 21.5773 20.6162 21.5844 20.6091L21.5915 20.6162Z" fill="#1D7FFA"/>
<path d="M28.313 20.2616C27.9017 20.212 27.6961 20.2616 27.4763 20.6233C27.3203 20.8857 27.1643 21.1552 27.0084 21.4247C26.9516 21.524 26.8737 21.5595 26.7673 21.5311C26.6609 21.5028 26.6539 21.3467 26.6539 21.2545C26.6751 20.9283 26.6893 20.6091 26.7035 20.3113C26.7248 19.8715 26.4979 19.7013 26.1646 19.4886C26.0866 19.4389 26.037 19.3822 26.0086 19.3113C25.9519 19.1623 26.0441 18.8715 26.2497 18.8786C26.6964 18.8928 26.9658 19.0489 27.2352 18.5666C27.37 18.3254 27.5118 18.0772 27.6607 17.8219C27.7316 17.7013 27.8096 17.6588 27.9088 17.6801C27.9372 17.6801 27.9584 17.7013 27.9726 17.7297C28.0081 17.8219 28.0294 17.9141 28.0223 18.0205C28.0081 18.3325 27.9868 18.6304 27.9655 18.9141C27.9372 19.2971 28.1357 19.4957 28.4335 19.673C28.5966 19.7723 28.6391 19.9425 28.5611 20.1127C28.5186 20.212 28.4122 20.2545 28.3059 20.2474L28.313 20.2616Z" fill="white"/>
<path d="M25.2571 25.2827L26.2072 22.0841C26.2426 21.9636 26.3702 21.8926 26.4908 21.9281L26.7885 22.0132C26.9091 22.0487 26.98 22.1763 26.9445 22.2969L26.0157 25.4458C25.9874 25.5522 25.881 25.616 25.7746 25.6089L25.4556 25.5806C25.328 25.5664 25.2358 25.46 25.25 25.3323C25.25 25.3182 25.25 25.304 25.2571 25.2898V25.2827Z" fill="white"/>
</g>
<circle cx="20" cy="20" r="19.5" stroke="black" stroke-opacity="0.05"/>
<defs>
<clipPath id="clip0_24563_42806">
<rect width="25" height="21" fill="white" transform="translate(7.03516 8.73682)"/>
</clipPath>
</defs>
</svg>
