<svg width="40" height="40" viewBox="0 0 40 40" fill="none" xmlns="http://www.w3.org/2000/svg">
<circle cx="20" cy="20" r="20" fill="#1C9DE9"/>
<g clip-path="url(#clip0_14382_21525)">
<path d="M23.6071 17.1934H22.3815L21.025 19.3244L19.6626 17.1934H17.7749L19.8212 20.3969V22.6137H20.9552C21.3715 22.6137 21.5756 22.359 21.5756 21.9124V20.3791L23.6071 17.1934Z" fill="#231F20"/>
<path d="M29.2253 17.1934H23.6702V18.2202H25.5678V22.6137H26.7077C27.117 22.6137 27.3272 22.3738 27.3272 21.9124V18.2202H29.2253V17.1934Z" fill="#231F20"/>
<path d="M30.2006 17.1934C29.7991 17.1934 29.5801 17.4694 29.5801 17.8912V22.6137H31.1164V19.1896L33.3778 22.6152H34.3794C34.7809 22.6152 35.0004 22.3372 35.0004 21.9139V17.1934H33.4641V20.6165L31.2027 17.1934H30.2006Z" fill="#231F20"/>
<path d="M16.6133 19.9027C16.6134 20.4769 16.4432 21.0383 16.1243 21.5158C15.8053 21.9933 15.3519 22.3655 14.8214 22.5853C14.291 22.8051 13.7072 22.8627 13.144 22.7507C12.5808 22.6387 12.0635 22.3623 11.6574 21.9563C11.2513 21.5503 10.9748 21.033 10.8627 20.4698C10.7506 19.9066 10.8081 19.3228 11.0278 18.7923C11.2476 18.2618 11.6197 17.8083 12.0971 17.4893C12.5745 17.1703 13.1359 17 13.7101 17C14.0913 16.9999 14.4688 17.075 14.8211 17.2208C15.1733 17.3667 15.4934 17.5805 15.7629 17.85C16.0325 18.1196 16.2464 18.4396 16.3923 18.7918C16.5382 19.144 16.6133 19.5215 16.6133 19.9027Z" fill="#231F20"/>
<path d="M10.8069 19.9027C10.8071 20.477 10.637 21.0385 10.3181 21.5161C9.99916 21.9938 9.54576 22.3661 9.01522 22.586C8.48468 22.806 7.90084 22.8637 7.33752 22.7518C6.77421 22.6399 6.25672 22.3635 5.85051 21.9575C5.4443 21.5515 5.16762 21.0341 5.05544 20.4709C4.94326 19.9076 5.00064 19.3237 5.22031 18.7931C5.43998 18.2624 5.81207 17.8088 6.28954 17.4897C6.76701 17.1705 7.3284 17.0001 7.90272 17C8.28406 16.9997 8.6617 17.0746 9.01408 17.2204C9.36645 17.3662 9.68665 17.5799 9.95636 17.8495C10.2261 18.1191 10.44 18.4392 10.586 18.7915C10.7319 19.1438 10.807 19.5214 10.8069 19.9027Z" fill="white"/>
</g>
<circle cx="20" cy="20" r="19.5" stroke="black" stroke-opacity="0.05"/>
<defs>
<clipPath id="clip0_14382_21525">
<rect width="30" height="5.80493" fill="white" transform="translate(5 17)"/>
</clipPath>
</defs>
</svg>
