<svg width="40" height="40" viewBox="0 0 40 40" fill="none" xmlns="http://www.w3.org/2000/svg">
<circle cx="20" cy="20" r="20" fill="#F3BC00"/>
<path d="M19.6998 8H21.9066C24.1245 8.28926 26.2097 9.21961 27.9065 10.6769C27.9119 10.6809 27.9163 10.6862 27.9193 10.6922C27.9223 10.6982 27.9238 10.7048 27.9238 10.7115C27.9238 10.7183 27.9223 10.7249 27.9193 10.7309C27.9163 10.7369 27.9119 10.7421 27.9065 10.7461C27.9025 10.7515 27.8973 10.7559 27.8913 10.7589C27.8853 10.7619 27.8786 10.7635 27.8719 10.7635C27.8652 10.7635 27.8586 10.7619 27.8526 10.7589C27.8466 10.7559 27.8413 10.7515 27.8373 10.7461C26.6687 9.90063 25.3281 9.32326 23.9108 9.0552C22.4936 8.78713 21.0347 8.83496 19.638 9.19528C18.2414 9.55559 16.9414 10.2195 15.8307 11.1398C14.72 12.06 13.826 13.2139 13.2123 14.5192C10.7921 19.6077 13.1171 25.4432 18.1854 27.7307C19.0826 28.1387 20.0422 28.3922 21.0239 28.4807C21.9935 28.5671 22.9703 28.5244 23.9287 28.3538C24.1277 28.3192 24.1392 28.3538 23.9633 28.4519C23.5134 28.6755 23.0226 28.805 22.521 28.8327C19.4575 29.2173 16.8518 28.6115 14.7037 27.0154C11.8325 24.8731 10.3739 22.0375 10.3277 18.5086C10.297 16.0086 11.1335 13.7154 12.8373 11.6288C14.4739 9.61923 16.7614 8.40961 19.6998 8Z" fill="white"/>
<path d="M25.9363 12.281C20.2565 9.03871 13.1344 13.4637 13.5787 20.0695C13.5787 20.0695 13.5787 20.0868 13.5642 20.0868H13.4864C13.4794 20.0876 13.4724 20.0869 13.4658 20.0848C13.4592 20.0827 13.4531 20.0793 13.4479 20.0746C13.4427 20.07 13.4386 20.0643 13.4357 20.0579C13.4329 20.0516 13.4315 20.0447 13.4315 20.0377C13.0315 17.3858 13.6017 15.0493 15.1421 13.0281C15.8769 12.0768 16.7972 11.2846 17.8471 10.6993C18.8971 10.1141 20.0549 9.74814 21.2505 9.62353C22.4461 9.49893 23.6545 9.61831 24.8026 9.97444C25.9507 10.3306 27.0145 10.916 27.9297 11.6954C28.8448 12.4747 29.5923 13.4317 30.1267 14.5084C30.6612 15.5851 30.9715 16.7591 31.0389 17.9593C31.1064 19.1594 30.9295 20.3608 30.5189 21.4905C30.1084 22.6203 29.4729 23.655 28.6508 24.532C28.6462 24.5374 28.6404 24.5418 28.6339 24.5448C28.6275 24.5478 28.6204 24.5494 28.6133 24.5494C28.6061 24.5494 28.5991 24.5478 28.5926 24.5448C28.5861 24.5418 28.5804 24.5374 28.5758 24.532C28.5685 24.5271 28.5622 24.5207 28.5575 24.5133C28.5528 24.5059 28.5496 24.4976 28.5483 24.489C28.5469 24.4803 28.5474 24.4714 28.5496 24.4629C28.5519 24.4544 28.5559 24.4465 28.5613 24.4396C29.252 23.5055 29.7376 22.4359 29.9861 21.301C30.2347 20.1661 30.2407 18.9915 30.0036 17.8541C29.7853 16.6802 29.3066 15.5702 28.6028 14.6057C27.8989 13.6413 26.9877 12.8469 25.9363 12.281Z" fill="white"/>
<path d="M11.8363 25.4258C14.3661 28.3306 17.6402 29.6633 21.4161 29.4008C26.1469 29.0749 29.9257 25.6912 31.2901 21.2489C31.6276 20.1153 31.6276 18.996 31.6276 17.8278C31.6276 17.2249 31.6998 17.222 31.8123 17.8278C32.1651 19.6826 32.0188 21.598 31.3882 23.3778C29.8863 27.7162 26.8488 30.4018 22.2757 31.4345C21.2489 31.6478 20.1965 31.71 19.1517 31.6191C16.2642 31.4259 13.5449 30.1917 11.4983 28.1457C9.45169 26.0996 8.21684 23.3806 8.02287 20.4931C7.79499 16.7893 9.27479 12.9008 12.2517 10.5066C12.2555 10.5018 12.2603 10.4979 12.2658 10.4953C12.2713 10.4926 12.2773 10.4912 12.2834 10.4912C12.2896 10.4912 12.2956 10.4926 12.3011 10.4953C12.3066 10.4979 12.3114 10.5018 12.3152 10.5066C12.3212 10.5118 12.3261 10.5182 12.3295 10.5254C12.3328 10.5326 12.3346 10.5405 12.3346 10.5484C12.3346 10.5564 12.3328 10.5643 12.3295 10.5715C12.3261 10.5787 12.3212 10.5851 12.3152 10.5903C8.34306 14.6114 8.18441 21.2316 11.8363 25.4258Z" fill="white"/>
<circle cx="20" cy="20" r="19.5" stroke="black" stroke-opacity="0.05"/>
</svg>
