<svg width="40" height="40" viewBox="0 0 40 40" fill="none" xmlns="http://www.w3.org/2000/svg">
<circle cx="20" cy="20" r="20" fill="#F6F8FA"/>
<path d="M10.5573 14.4217C10.3631 14.1209 9.77285 14.0219 9.93087 13.5649C9.97466 13.4412 10.0908 13.3574 10.2222 13.3574H13.6949C13.8795 13.3574 14.0281 13.5059 14.0281 13.6906V21.9002C14.0281 22.0754 13.9405 22.1648 13.7672 22.1706H13.6663C13.4931 22.1782 13.3484 22.0449 13.3369 21.8735C13.2417 20.3733 12.4231 19.4708 10.8809 19.1681C10.7457 19.1415 10.6486 19.0234 10.6486 18.8863V14.7301C10.6486 14.6178 10.6182 14.515 10.5573 14.4217Z" fill="#0073B8"/>
<path d="M29.2134 21.7244C29.2724 21.6844 29.3067 21.6197 29.3067 21.5492C29.3067 20.2375 29.3067 18.9295 29.3067 17.6234C29.3067 17.2598 29.4856 17.1037 29.8416 17.1551C31.6123 17.4083 32.8688 18.3069 33.6114 19.851C34.1692 21.0162 34.1692 22.5697 33.6437 23.7387C32.8422 25.517 31.1401 26.5679 29.1715 26.5051C26.8411 26.4327 24.6535 24.4851 24.6859 22.0614C24.6878 21.9357 24.7906 21.8348 24.9163 21.8329C26.2185 21.8272 27.5322 21.8253 28.8592 21.8329C28.9906 21.8329 29.1067 21.7987 29.2115 21.7263L29.2134 21.7244Z" fill="#0073B8"/>
<path d="M22.1085 24.226C22.1522 24.3021 22.236 24.3497 22.3255 24.3497L24.2808 24.3535C24.4141 24.3535 24.5283 24.4449 24.5569 24.5744L24.8501 25.8957C24.89 26.0765 24.7758 26.2555 24.5949 26.2955C24.5721 26.3012 24.5473 26.3031 24.5245 26.3031C22.8262 26.3031 21.1222 26.305 19.4144 26.305C19.0851 26.305 18.9651 25.9661 18.8909 25.7034C18.5234 24.4106 18.5901 23.1864 19.0927 22.0308C19.7514 20.5115 19.7115 19.0893 19.087 17.6233C18.5348 16.3267 18.512 14.9902 19.0203 13.6117C19.0756 13.4613 19.2183 13.3623 19.3783 13.3604C20.2579 13.3547 21.1241 13.3528 21.9771 13.3547C22.196 13.3547 22.3179 13.4461 22.3426 13.6232C22.356 13.7203 22.3464 13.8155 22.316 13.9088C21.8933 15.1844 21.9733 16.498 22.5216 17.7165C23.1899 19.2016 23.0452 20.7647 22.4188 22.2078C22.2017 22.7086 22.0761 23.2892 22.0437 23.9518C22.038 24.0508 22.0609 24.1422 22.1085 24.226Z" fill="#EB1350"/>
<path d="M8.05002 22.0653C8.1871 23.3828 9.16951 24.2852 10.4584 24.4718C10.5955 24.4908 10.6964 24.6089 10.6964 24.7459V26.21C10.6964 26.3604 10.5784 26.4842 10.4299 26.4899C10.1195 26.5051 9.82064 26.4709 9.52934 26.389C7.85011 25.9092 6.73442 24.8335 6.18039 23.1638C6.05664 22.7849 6.01094 22.4003 6.04521 22.01C6.05473 21.9091 6.1385 21.8311 6.23941 21.8311H7.78728C7.92245 21.8292 8.03669 21.9301 8.05002 22.0653Z" fill="#EB1350"/>
<path d="M27.8124 18.3332C26.91 17.8248 26.5368 17.1052 26.691 16.1704C27.0623 13.9466 30.1885 13.9066 30.6778 16.119C30.7178 16.296 30.6055 16.4731 30.4284 16.5131C30.4208 16.5131 30.4113 16.5169 30.4036 16.5169C29.9962 16.5759 29.524 16.4502 29.1661 16.6863C28.6273 17.0404 28.6806 17.663 28.6787 18.2266C28.6787 18.3637 28.5702 18.476 28.4331 18.4817C28.2104 18.4893 28.0028 18.4398 27.8124 18.3332Z" fill="#F99B18"/>
<path d="M12.7144 21.8303C12.7144 22.9517 11.8062 23.8599 10.6848 23.8599C9.56343 23.8599 8.65527 22.9517 8.65527 21.8303C8.65527 20.7089 9.56343 19.8008 10.6848 19.8008C11.8062 19.8008 12.7144 20.7089 12.7144 21.8303Z" fill="#F99B18"/>
<path d="M26.0803 16.0605C25.8308 17.5817 26.8989 18.9392 28.4316 19.1277C28.601 19.1486 28.6867 19.2457 28.6886 19.4171V19.5313C28.6886 19.7236 28.5934 19.8226 28.4011 19.8264C27.1445 19.8474 25.9946 18.8212 25.5681 17.7436C24.6257 15.3732 26.4953 12.9 29.0827 13.1742C30.4173 13.317 31.4473 14.2099 31.9157 15.4855C31.9443 15.5617 31.9919 15.6207 32.0604 15.6607L32.386 15.853C32.5135 15.9291 32.5821 16.0738 32.5573 16.2204C32.4831 16.6679 31.7386 16.5669 31.4626 16.4679C31.3826 16.4394 31.3274 16.367 31.3198 16.2833C31.2817 15.8511 31.156 15.4703 30.9428 15.1447C30.2498 14.0786 29.2636 13.6845 27.9842 13.9605C27.0455 14.1642 26.2364 15.1009 26.0803 16.0605Z" fill="#003B69"/>
<path d="M11.5954 25.7006C13.288 25.2551 14.6473 23.7663 14.6473 21.9671C14.6473 19.4863 14.6473 16.7218 14.6473 13.6737C14.6473 13.5728 14.7006 13.4776 14.7882 13.4262C14.8929 13.3615 14.9919 13.3424 15.0852 13.3691C15.2775 13.4224 15.3727 13.55 15.3708 13.7499C15.3461 16.1259 15.3461 18.62 15.3746 21.2303C15.3841 22.1613 15.3061 22.8638 15.1366 23.3398C14.5864 24.8857 13.4898 25.9005 11.8467 26.386C11.6125 26.4565 11.4393 26.3803 11.3308 26.1614C11.3136 26.129 11.306 26.0966 11.3079 26.0604C11.3136 25.8682 11.4088 25.7482 11.5935 25.7006H11.5954Z" fill="#003B69"/>
<path d="M18.4973 22.0032C17.9451 23.2921 17.8937 24.5754 18.3449 25.8548C18.3868 25.9747 18.3564 26.1061 18.265 26.1937C18.1641 26.2889 18.0365 26.3193 17.8804 26.287C17.7719 26.2641 17.6824 26.1841 17.65 26.0775C17.1855 24.6096 17.2159 23.2769 17.7433 22.0755C18.3373 20.7257 18.4363 19.2235 17.8442 17.8813C17.2369 16.5009 17.1569 15.0711 17.6386 13.6241C17.6652 13.5442 17.7205 13.4775 17.7947 13.4376C17.9604 13.3481 18.0936 13.3386 18.1945 13.4109C18.3449 13.5194 18.3906 13.6603 18.3316 13.8355C18.0289 14.7532 17.9642 15.6784 18.1374 16.6133C18.1393 16.6285 18.3107 17.1121 18.6496 18.0621C19.1141 19.3682 19.0627 20.6819 18.4973 22.0032Z" fill="#003B69"/>
<circle cx="20" cy="20" r="19.5" stroke="black" stroke-opacity="0.05"/>
</svg>
