<svg width="40" height="40" viewBox="0 0 40 40" fill="none" xmlns="http://www.w3.org/2000/svg">
<circle cx="20" cy="20" r="20" fill="#0046B8"/>
<path fill-rule="evenodd" clip-rule="evenodd" d="M15.0432 29.4805C14.9724 29.4659 14.9091 29.4264 14.8648 29.3692C14.8205 29.312 14.7981 29.2408 14.8017 29.1686L15.3724 15.6216L12.0079 14.3155C11.8449 14.252 11.7391 14.3406 11.7744 14.5129L14.7246 29.1747C14.7427 29.2509 14.7824 29.3203 14.8389 29.3745C14.8954 29.4288 14.9664 29.4656 15.0432 29.4805Z" fill="#FFA52E"/>
<path fill-rule="evenodd" clip-rule="evenodd" d="M15.8086 12.1567C15.6526 12.0774 15.5182 12.1558 15.5107 12.3308L14.8017 29.1682C14.798 29.2405 14.8203 29.3118 14.8646 29.3691C14.9089 29.4264 14.9722 29.466 15.0432 29.4806C14.907 29.4515 14.8316 29.3273 14.8722 29.1796L19.1017 13.8193L15.8086 12.1567Z" fill="#87CC25"/>
<path fill-rule="evenodd" clip-rule="evenodd" d="M14.7251 29.1747L12.5438 18.34L9.19827 17.3939C9.02905 17.3463 8.95326 17.4357 9.02993 17.5935L14.6484 29.2007C14.7255 29.3575 14.9313 29.4871 15.1067 29.4871C15.0177 29.4839 14.9322 29.4517 14.8632 29.3952C14.7943 29.3388 14.7458 29.2613 14.7251 29.1747Z" fill="#F46060"/>
<path fill-rule="evenodd" clip-rule="evenodd" d="M14.8019 29.1683L15.2258 19.0987L12.5439 18.3398L14.7252 29.1749C14.7432 29.2511 14.7828 29.3205 14.8392 29.3748C14.8957 29.429 14.9666 29.4658 15.0434 29.4808C14.9725 29.4661 14.9091 29.4266 14.8648 29.3693C14.8205 29.312 14.7982 29.2407 14.8019 29.1683Z" fill="#F98526"/>
<path fill-rule="evenodd" clip-rule="evenodd" d="M18.2935 16.7557L15.3719 15.6218L14.8017 29.1684C14.798 29.2407 14.8203 29.3121 14.8647 29.3694C14.9091 29.4267 14.9726 29.4662 15.0436 29.4808C14.907 29.4517 14.8316 29.3274 14.8726 29.1798L18.2935 16.7557Z" fill="#74B502"/>
<path fill-rule="evenodd" clip-rule="evenodd" d="M30.8145 17.16L20.1883 11.0374C20.0367 10.9501 19.8741 11.0167 19.8269 11.1863L14.873 29.1787C14.832 29.3273 14.9073 29.4511 15.0435 29.4797C15.0638 29.4841 15.0849 29.4859 15.107 29.4863L26.2514 29.4731C26.2743 29.4731 26.2924 29.4731 26.2514 29.4731C26.4264 29.4731 26.6203 29.3383 26.6815 29.1743L30.9798 17.6174C31.0079 17.5336 31.0069 17.4427 30.9769 17.3595C30.9469 17.2763 30.8897 17.2057 30.8145 17.1591" fill="#1C7EF9"/>
<path fill-rule="evenodd" clip-rule="evenodd" d="M19.051 21.5783C19.0113 21.5677 18.9685 21.5968 18.9562 21.6431L18.7945 22.2274C18.7821 22.2732 18.8037 22.3182 18.843 22.3287L27.1204 24.4091C27.1438 24.4157 27.1742 24.3924 27.1874 24.3576L27.3558 23.9143C27.369 23.879 27.3602 23.8451 27.3364 23.8385L19.0518 21.5778L19.051 21.5783ZM19.6705 19.3388C19.6313 19.3256 19.5881 19.3542 19.5745 19.4031L19.4048 20.0174C19.3916 20.0659 19.4136 20.1144 19.4533 20.1267L27.7528 22.7399C27.7766 22.7469 27.807 22.7245 27.8207 22.6879L27.9956 22.2274C28.0097 22.1908 28.0018 22.1542 27.978 22.1463L19.6705 19.3388ZM20.3232 16.9857C20.2826 16.9689 20.2394 16.9971 20.2244 17.0482L20.0464 17.6942C20.0332 17.7449 20.0535 17.7982 20.0936 17.8137L28.4107 21.0041C28.4345 21.0129 28.4658 20.9909 28.4799 20.9525L28.6619 20.4735C28.6764 20.4356 28.6685 20.3969 28.6447 20.3872L20.3232 16.9857ZM29.3392 18.5566L21.0093 14.5073C20.9696 14.488 20.9242 14.5162 20.9092 14.5699L20.7215 15.2503C20.7065 15.3032 20.7277 15.3614 20.7678 15.3799L29.0955 19.1991C29.1193 19.2101 29.1501 19.1872 29.1651 19.148L29.3546 18.6501C29.3696 18.6104 29.3625 18.5685 29.3392 18.5575V18.5566Z" fill="white"/>
<circle cx="20" cy="20" r="19.5" stroke="black" stroke-opacity="0.05"/>
</svg>
