<svg width="40" height="40" viewBox="0 0 40 40" fill="none" xmlns="http://www.w3.org/2000/svg">
<circle cx="20" cy="20" r="20" fill="#2131C6"/>
<path d="M21.8476 11.2739C23.7179 11.5653 25.4342 12.4821 26.7162 13.8748L26.1736 14.4086L25.794 14.0273C24.3352 12.6322 22.39 11.8609 20.3716 11.8772C18.3531 11.8936 16.4206 12.6964 14.9847 14.115C14.5973 14.494 14.2512 14.913 13.9521 15.365C13.5707 15.9419 13.2682 16.5672 13.0527 17.2242C12.8638 17.7955 12.7443 18.3873 12.6968 18.9871C12.6348 19.6899 12.6705 20.3979 12.8028 21.0909C12.9048 21.7121 13.0967 22.3151 13.3726 22.8809C13.7927 23.8396 14.4125 24.6977 15.1907 25.3976C18.2334 28.1247 22.633 28.1151 25.6748 25.3976L26.1701 24.9041L26.8424 25.587C26.1889 26.2207 25.432 26.7383 24.6045 27.1175C23.5998 27.5926 22.5195 27.8873 21.4128 27.988C20.2716 28.0626 19.1274 27.8978 18.0537 27.5041C17.1508 27.1652 16.3173 26.6647 15.5939 26.027C14.7547 25.3047 14.1411 24.5865 13.7531 23.8724C13.462 23.3435 13.2739 22.9914 13.1885 22.8161C12.5597 21.576 12.2886 20.2199 12.3751 18.7478C12.4642 17.4336 12.8741 16.1614 13.569 15.0424C14.1466 14.1253 14.8979 13.3299 15.7806 12.701C16.5536 12.1564 17.4131 11.7466 18.3228 11.4887C19.47 11.1728 20.6705 11.0996 21.8476 11.2739Z" fill="#00AAAC"/>
<path d="M28.192 19.3477C28.1705 18.7576 28.0823 18.1718 27.929 17.6015C27.7181 16.824 27.3862 16.0845 26.9455 15.4101L26.1758 14.4081L25.7963 14.0268C24.3375 12.6317 22.3922 11.8604 20.3738 11.8767C18.3554 11.8931 16.4229 12.6959 14.987 14.1144C14.5983 14.4936 14.251 14.9129 13.9508 15.3653C13.5695 15.9422 13.267 16.5675 13.0514 17.2246C12.8625 17.7958 12.743 18.3877 12.6955 18.9874C12.6336 19.6903 12.6693 20.3983 12.8016 21.0913C12.9035 21.7125 13.0955 22.3155 13.3714 22.8813C13.7914 23.84 14.4113 24.698 15.1895 25.398L17.714 22.8734L18.3391 22.2519C18.3436 22.2484 18.3473 22.2438 18.3498 22.2387C18.3524 22.2335 18.3537 22.2278 18.3537 22.2221C18.3537 22.2163 18.3524 22.2107 18.3498 22.2055C18.3473 22.2003 18.3436 22.1958 18.3391 22.1923C18.033 21.874 17.785 21.5047 17.6062 21.1009C17.3205 20.4178 17.2531 19.663 17.4134 18.9401C17.509 18.493 17.7047 18.0735 17.9858 17.7129C18.7455 16.8363 19.6878 16.4564 20.8128 16.5733C20.8593 16.5786 20.9057 16.5856 20.9522 16.5926H21.06C21.8951 16.5926 22.696 16.9243 23.2865 17.5148C23.877 18.1053 24.2087 18.9062 24.2087 19.7413C24.209 20.2809 24.0704 20.8114 23.8064 21.282C23.5423 21.7525 23.1617 22.1472 22.701 22.4281L22.793 22.5157L23.1805 22.9041L25.6727 25.4041L26.1679 24.9106C26.7165 24.3116 27.166 23.6289 27.4995 22.8883C27.7963 22.2454 28.0006 21.5636 28.1061 20.8634C28.1855 20.3623 28.2142 19.8545 28.192 19.3477Z" fill="url(#paint0_linear_17752_43866)"/>
<path d="M24.2116 19.7401C24.2114 18.9052 23.8796 18.1045 23.2891 17.5142C22.6986 16.9239 21.8978 16.5923 21.0629 16.5923H20.9551C21.4062 16.6653 21.8352 16.8388 22.2104 17.0998C22.767 17.4989 23.1814 18.0657 23.3929 18.7172L23.5384 19.5797C23.5488 20.117 23.4217 20.6481 23.1694 21.1225C22.9708 21.4796 22.7105 21.7987 22.4006 22.0649C22.3953 22.0681 22.391 22.0726 22.388 22.078C22.3849 22.0833 22.3834 22.0894 22.3834 22.0956C22.3834 22.1017 22.3849 22.1078 22.388 22.1131C22.391 22.1185 22.3953 22.123 22.4006 22.1262L22.7056 22.4252C23.1657 22.1442 23.5459 21.7497 23.8096 21.2795C24.0733 20.8093 24.2118 20.2792 24.2116 19.7401Z" fill="url(#paint1_linear_17752_43866)"/>
<path d="M9.35938 25.3164C11.0608 28.5966 14.029 30.9433 17.6318 31.7918C18.4372 31.9788 19.2597 32.0825 20.0863 32.1013C20.9767 32.1308 21.8675 32.0608 22.7424 31.8926C23.8475 31.6868 24.9186 31.3287 25.9253 30.8284C27.2474 30.1737 28.4424 29.2889 29.4545 28.2153L29.9804 28.7229C29.9865 28.7289 29.9913 28.7361 29.9946 28.744C29.9979 28.7519 29.9996 28.7603 29.9996 28.7689C29.9996 28.7774 29.9979 28.7859 29.9946 28.7938C29.9913 28.8017 29.9865 28.8089 29.9804 28.8149C27.2744 31.5569 23.6514 32.9253 19.8215 32.6342C16.5823 32.3833 13.5642 30.8943 11.394 28.4765C11.0066 28.0305 10.6457 27.5622 10.3131 27.074C10.302 27.0584 10.2873 27.0457 10.2702 27.0372C10.2616 27.0336 10.2543 27.0275 10.2493 27.0196C10.2442 27.0118 10.2418 27.0026 10.2421 26.9933C10.243 26.9711 10.2359 26.9493 10.2219 26.932C10.0465 26.6986 9.89165 26.4505 9.75911 26.1904C9.71703 26.108 9.6583 26.044 9.61096 25.9651C9.59454 25.9379 9.58242 25.9083 9.57502 25.8774C9.54684 25.771 9.50186 25.6698 9.44178 25.5776C9.39481 25.498 9.36663 25.4086 9.35938 25.3164Z" fill="#005BAB"/>
<path d="M26.8421 25.5888C26.1885 26.2225 25.4317 26.7401 24.6041 27.1193C23.5994 27.5938 22.5191 27.8879 21.4124 27.988C20.2713 28.0627 19.1271 27.8979 18.0533 27.5041C17.1505 27.1653 16.317 26.6647 15.5936 26.0271C14.7544 25.3048 14.1408 24.5865 13.7527 23.8724C13.4617 23.3435 13.2735 22.9914 13.1882 22.8161C12.5594 21.576 12.2882 20.2199 12.3747 18.7478C12.4639 17.4337 12.8738 16.1614 13.5687 15.0425C14.1463 14.1254 14.8976 13.33 15.7803 12.7011C16.5533 12.1565 17.4128 11.7466 18.3224 11.4887C19.4704 11.1722 20.6719 11.0987 21.8499 11.2731C23.7194 11.5652 25.4347 12.4824 26.7159 13.8748L27.1051 13.4909L29.4315 11.1486C29.4405 11.1392 29.4456 11.1266 29.4456 11.1135C29.4456 11.1005 29.4405 11.0879 29.4315 11.0785C28.2181 9.79691 26.7446 8.78967 25.1099 8.12436C23.6946 7.55098 22.1862 7.24198 20.6594 7.2127C19.4009 7.18879 18.146 7.35577 16.9374 7.70797C16.0279 7.97469 15.1522 8.34562 14.3278 8.81336C13.4193 9.32574 12.5795 9.95137 11.8286 10.6753C11.2179 11.2607 10.6683 11.9069 10.1885 12.6038C8.91881 14.4516 8.17175 16.6081 8.02624 18.8453C7.88074 21.0826 8.3422 23.3177 9.36188 25.3144C11.0634 28.5946 14.0315 30.9413 17.6343 31.7898C18.4397 31.9768 19.2622 32.0805 20.0888 32.0993C20.9785 32.1292 21.8688 32.0599 22.7431 31.8924C23.8482 31.6866 24.9194 31.3284 25.926 30.8282C27.2482 30.1735 28.4432 29.2886 29.4552 28.2151L26.8421 25.5888ZM26.5861 12.2777C26.5861 12.2777 26.5861 12.2847 26.5861 12.2882C26.5861 12.2917 26.5861 12.2812 26.5861 12.2777ZM26.5861 12.3083C26.5856 12.3052 26.5856 12.3019 26.5861 12.2987C26.5867 12.3021 26.5879 12.3054 26.5896 12.3083H26.5861ZM26.5914 12.3171C26.5932 12.3202 26.5953 12.3231 26.5975 12.3259C26.5965 12.323 26.5956 12.3201 26.5949 12.3171H26.5914ZM26.615 12.3382C26.6123 12.3363 26.6096 12.3343 26.6072 12.332C26.6098 12.3348 26.6131 12.337 26.6168 12.3382H26.615ZM10.2437 12.6949C10.2486 12.6948 10.2534 12.6936 10.2577 12.6915C10.2621 12.6893 10.266 12.6864 10.2692 12.6827C10.2658 12.6859 10.2618 12.6885 10.2574 12.6901C10.2531 12.6918 10.2484 12.6925 10.2437 12.6923V12.6949ZM10.2779 12.6695C10.2767 12.6727 10.2749 12.6757 10.2727 12.6783C10.2746 12.6748 10.2758 12.6709 10.2762 12.6669L10.2779 12.6695Z" fill="url(#paint2_linear_17752_43866)"/>
<circle cx="20" cy="20" r="19.5" stroke="black" stroke-opacity="0.05"/>
<defs>
<linearGradient id="paint0_linear_17752_43866" x1="19.999" y1="12.2107" x2="20.1823" y2="26.7084" gradientUnits="userSpaceOnUse">
<stop stop-color="white"/>
<stop offset="1" stop-color="#045EAC"/>
</linearGradient>
<linearGradient id="paint1_linear_17752_43866" x1="22.4924" y1="16.7364" x2="22.6549" y2="22.9843" gradientUnits="userSpaceOnUse">
<stop stop-color="#045EAC"/>
<stop offset="1" stop-color="white"/>
</linearGradient>
<linearGradient id="paint2_linear_17752_43866" x1="8" y1="20.7104" x2="31" y2="20.2104" gradientUnits="userSpaceOnUse">
<stop stop-color="white"/>
<stop offset="1" stop-color="#045EAC"/>
</linearGradient>
</defs>
</svg>
