<svg width="40" height="40" viewBox="0 0 40 40" fill="none" xmlns="http://www.w3.org/2000/svg">
<circle cx="20" cy="20" r="20" fill="#F6F8FA"/>
<g clip-path="url(#clip0_17752_43857)">
<path d="M13.036 16.0197C15.0841 17.6144 18.4472 22.7479 14.0061 24.0586C11.9365 24.6702 10.0824 24.6047 8.44393 23.8401C5.23166 22.3328 8.1421 17.5489 9.88837 16.0634C10.7938 15.2989 12.0874 15.277 13.036 15.9979V16.0197ZM12.497 17.3741C10.9879 17.5052 9.39252 18.794 8.5086 19.9736C8.31457 20.2139 8.31457 20.5634 8.5086 20.8037C9.60811 22.2236 11.0526 23.0537 12.8635 23.2503C12.9713 23.2503 13.1006 23.2066 13.1438 23.0974C14.0492 21.2188 13.9199 19.3401 12.7557 17.5052C12.691 17.4178 12.6048 17.3741 12.497 17.3741Z" fill="#A9373F"/>
<path d="M19.4178 21.5901H22.048C22.242 21.5683 22.3498 21.6557 22.3929 21.8523C22.3929 21.896 22.3929 21.9615 22.3929 22.0052C22.3929 22.1581 22.3282 22.2236 22.1773 22.2236H18.2967C17.7578 22.2236 17.4559 21.9397 17.4344 21.3935C17.3697 20.3013 17.2404 18.794 17.5206 17.7236C17.5637 17.5926 17.65 17.4834 17.7793 17.4397C18.0165 17.3523 18.2536 17.3086 18.5339 17.3086C19.7627 17.3086 20.97 17.3086 22.1558 17.3086C22.2851 17.3086 22.3714 17.3741 22.3714 17.5052C22.3714 17.5489 22.3714 17.5926 22.3714 17.6144C22.3714 17.811 22.1773 17.9639 21.9833 17.9639H19.3962C19.3962 17.9639 19.2022 18.0295 19.2022 18.1387V19.2746C19.2022 19.3838 19.2669 19.4275 19.3747 19.4275H21.1425C21.2719 19.4057 21.3365 19.4712 21.3581 19.6023V19.8426C21.3581 19.9955 21.2934 20.0829 21.1425 20.0829H19.3962C19.3962 20.0829 19.2238 20.1484 19.2238 20.2358V21.3717C19.2238 21.4809 19.2884 21.5465 19.3962 21.5465L19.4178 21.5901Z" fill="#353535"/>
<path d="M24.6563 21.4153C24.6563 21.4153 24.7425 21.6119 24.8503 21.6119H27.1787C27.3511 21.6119 27.502 21.7211 27.5236 21.8959V22.0051C27.5452 22.1361 27.4805 22.2454 27.3511 22.2672C27.3511 22.2672 27.3511 22.2672 27.3296 22.2672H23.6646C23.2765 22.2672 22.9531 21.9395 22.9531 21.5245V17.5488C22.9531 17.4395 23.0609 17.3303 23.1687 17.3303H24.5054C24.6347 17.3303 24.6994 17.3959 24.6994 17.5269V21.4153H24.6563Z" fill="#353535"/>
<path d="M30.0689 21.59L32.7206 21.6337C32.8499 21.6337 32.9577 21.7429 32.9793 21.874V22.0051C32.9793 22.0051 32.9362 22.2017 32.8284 22.2235C32.8284 22.2235 32.8284 22.2235 32.8068 22.2235H28.84C28.2579 22.2235 27.9561 21.9395 27.9776 21.3497V18.2696C27.9776 17.6361 28.301 17.3303 28.9262 17.3303H32.5912C32.7206 17.3522 32.8284 17.4614 32.8284 17.5925C32.8284 17.5925 32.8284 17.5925 32.8284 17.6143V17.7235C32.7853 17.8764 32.699 17.9638 32.5481 17.9638L30.0042 18.0294C29.8533 18.0294 29.7886 18.1167 29.7886 18.2696V21.3061C29.7886 21.459 29.9179 21.59 30.0904 21.59H30.0689Z" fill="#353535"/>
</g>
<circle cx="20" cy="20" r="19.5" stroke="black" stroke-opacity="0.05"/>
<defs>
<clipPath id="clip0_17752_43857">
<rect width="26" height="9" fill="white" transform="translate(7 15.4736)"/>
</clipPath>
</defs>
</svg>
