<svg width="40" height="40" viewBox="0 0 40 40" fill="none" xmlns="http://www.w3.org/2000/svg">
<circle cx="20" cy="20" r="20" fill="#F6F8FA"/>
<path d="M8.09003 19.9295L10.5041 19.9308C10.5152 19.9309 10.5261 19.9334 10.536 19.9384C10.546 19.9433 10.5546 19.9504 10.5614 19.9592C10.5681 19.968 10.5727 19.9783 10.5749 19.9891C10.577 20 10.5766 20.0112 10.5738 20.0219L10.267 21.1271C10.2629 21.1425 10.2538 21.156 10.2412 21.1657C10.2286 21.1754 10.2132 21.1807 10.1973 21.1807L7.71895 21.1821C7.70248 21.182 7.68646 21.1875 7.67355 21.1977C7.66064 21.2079 7.65161 21.2223 7.64795 21.2383L7.31169 22.6945C7.30803 22.7106 7.299 22.7249 7.28609 22.7352C7.27318 22.7454 7.25717 22.7509 7.24069 22.7508L5.07179 22.7521C5.06085 22.7521 5.05008 22.7495 5.04028 22.7447C5.03047 22.7398 5.0219 22.7328 5.01519 22.7242C5.00849 22.7155 5.00383 22.7055 5.00157 22.6948C4.9993 22.6841 4.9995 22.673 5.00213 22.6624L6.13682 18.066C6.14068 18.0504 6.14963 18.0366 6.16224 18.0266C6.17485 18.0167 6.19042 18.0112 6.20648 18.0111L11.5021 18.0098C11.5132 18.0098 11.5241 18.0124 11.5341 18.0173C11.544 18.0222 11.5527 18.0294 11.5594 18.0382C11.5661 18.047 11.5707 18.0572 11.5729 18.0681C11.575 18.0789 11.5747 18.0902 11.5718 18.1009L11.19 19.5517C11.1858 19.5673 11.1766 19.581 11.1637 19.5907C11.1508 19.6004 11.1351 19.6055 11.119 19.6053L8.11415 19.6066C8.09671 19.6068 8.07993 19.6133 8.06688 19.6248C8.05383 19.6364 8.04541 19.6523 8.04315 19.6696L8.01769 19.8478C8.01635 19.858 8.01722 19.8685 8.02025 19.8783C8.02328 19.8882 8.0284 19.8974 8.03526 19.9051C8.04211 19.9128 8.05055 19.919 8.06 19.9232C8.06945 19.9274 8.07969 19.9296 8.09003 19.9295Z" fill="#010101"/>
<path d="M13.4339 21.1352H16.5526C16.5621 21.1349 16.5714 21.1373 16.5796 21.1421C16.5878 21.1468 16.5945 21.1538 16.5989 21.1621C16.6034 21.1705 16.6054 21.1799 16.6048 21.1893C16.6042 21.1988 16.601 21.2078 16.5955 21.2156L15.5439 22.7294C15.5392 22.736 15.5329 22.7414 15.5257 22.7451C15.5185 22.7489 15.5105 22.7508 15.5024 22.7508L10.5885 22.7521C10.5806 22.7521 10.5728 22.7502 10.5658 22.7465C10.5587 22.7429 10.5526 22.7378 10.548 22.7314C10.5433 22.725 10.5402 22.7176 10.5388 22.7099C10.5375 22.7021 10.538 22.6941 10.5403 22.6865L12.0112 18.0459C12.0143 18.0356 12.0207 18.0265 12.0294 18.0199C12.0381 18.0134 12.0486 18.0099 12.0594 18.0098L14.3864 18.0124C14.3946 18.0124 14.4027 18.0143 14.4101 18.0181C14.4174 18.0218 14.4237 18.0273 14.4284 18.034C14.4331 18.0407 14.4362 18.0485 14.4373 18.0566C14.4384 18.0648 14.4375 18.073 14.4346 18.0808L13.3857 21.0669C13.3829 21.0746 13.382 21.0829 13.3831 21.091C13.3842 21.0992 13.3872 21.1069 13.3919 21.1136C13.3967 21.1203 13.403 21.1258 13.4103 21.1296C13.4176 21.1333 13.4257 21.1352 13.4339 21.1352Z" fill="#010101"/>
<path d="M20.5051 22.0112L18.6631 22.0125C18.6524 22.0126 18.642 22.0155 18.6328 22.0209C18.6236 22.0263 18.616 22.034 18.6108 22.0433L18.225 22.7212C18.2198 22.7305 18.2122 22.7383 18.203 22.7437C18.1938 22.7491 18.1834 22.752 18.1727 22.752L16.1793 22.7534C16.1686 22.7533 16.158 22.7504 16.1487 22.745C16.1394 22.7395 16.1318 22.7316 16.1266 22.7222C16.1214 22.7127 16.1188 22.7021 16.1192 22.6913C16.1195 22.6805 16.1227 22.67 16.1284 22.6609L19.1065 18.0364C19.1119 18.0278 19.1194 18.0207 19.1283 18.0158C19.1372 18.0109 19.1472 18.0083 19.1574 18.0083L21.3732 18.011C21.3865 18.0112 21.3993 18.0157 21.4097 18.024C21.4201 18.0322 21.4275 18.0437 21.4308 18.0565L22.5561 22.6783C22.5583 22.6872 22.5585 22.6964 22.5567 22.7053C22.5548 22.7142 22.551 22.7226 22.5455 22.7298C22.5399 22.737 22.5328 22.7429 22.5247 22.747C22.5165 22.751 22.5076 22.7532 22.4985 22.7534L20.7034 22.7493C20.6887 22.7495 20.6744 22.7442 20.6633 22.7346C20.6522 22.725 20.645 22.7117 20.6431 22.6971L20.5654 22.0648C20.5637 22.05 20.5566 22.0363 20.5455 22.0264C20.5344 22.0165 20.52 22.0111 20.5051 22.0112ZM19.5204 20.4759C19.5137 20.4873 19.5102 20.5002 19.5102 20.5134C19.5101 20.5266 19.5137 20.5396 19.5204 20.5509C19.5271 20.5623 19.5367 20.5717 19.5483 20.578C19.5598 20.5844 19.5729 20.5875 19.5861 20.5871L20.205 20.5778C20.2157 20.5777 20.2262 20.5753 20.2359 20.5708C20.2455 20.5663 20.2541 20.5597 20.261 20.5516C20.2678 20.5434 20.2729 20.5339 20.2757 20.5236C20.2785 20.5133 20.2791 20.5025 20.2773 20.492L20.1434 19.6855C20.141 19.6705 20.1341 19.6565 20.1234 19.6456C20.1128 19.6346 20.0991 19.6272 20.0841 19.6244C20.0691 19.6217 20.0536 19.6236 20.0397 19.63C20.0259 19.6364 20.0143 19.6469 20.0067 19.6601L19.5204 20.4759Z" fill="#010101"/>
<path d="M25.6076 21.2797C25.5031 21.1467 25.3646 21.0596 25.1923 21.0185C24.3215 20.8082 22.4339 20.4438 23.1225 19.0345C23.6905 17.8717 25.7455 17.9185 26.8173 18.094C27.5126 18.2079 28.4208 18.6942 28.4664 19.5127C28.4671 19.5246 28.4654 19.5365 28.4614 19.5477C28.4573 19.5589 28.451 19.5691 28.4429 19.5778C28.4347 19.5865 28.4248 19.5934 28.4139 19.5981C28.403 19.6028 28.3912 19.6052 28.3793 19.6052H26.6766C26.6535 19.6051 26.631 19.5982 26.6117 19.5854C26.5924 19.5725 26.5773 19.5542 26.5681 19.5328C26.3886 19.1068 25.8032 19.0532 25.4441 19.1952C25.4142 19.2072 25.3876 19.2262 25.3665 19.2506C25.3454 19.2749 25.3304 19.304 25.3228 19.3353C25.3152 19.3666 25.3152 19.3993 25.3228 19.4306C25.3304 19.462 25.3453 19.491 25.3664 19.5154C25.4539 19.6163 25.5741 19.6847 25.7268 19.7204C26.3122 19.861 26.9271 19.9307 27.4737 20.2067C28.5267 20.7385 28.2775 22.0273 27.3116 22.4452C26.9311 22.6105 26.5145 22.7123 26.0617 22.7507C24.856 22.8525 22.8224 22.8712 22.5732 21.2583C22.5715 21.2476 22.5721 21.2366 22.575 21.2262C22.5779 21.2158 22.583 21.2061 22.59 21.1978C22.597 21.1895 22.6057 21.1828 22.6156 21.1783C22.6254 21.1737 22.6361 21.1713 22.6469 21.1712L24.3282 21.1766C24.3621 21.1766 24.3871 21.1913 24.4032 21.2208C24.4246 21.2583 24.4349 21.2994 24.434 21.344C24.4332 21.3707 24.4391 21.397 24.4513 21.4207C24.4635 21.4444 24.4815 21.4646 24.5037 21.4793C24.7542 21.6522 25.3825 21.7151 25.6089 21.4003C25.6393 21.3592 25.6388 21.319 25.6076 21.2797Z" fill="#010101"/>
<path d="M30.9875 19.5719C31.2135 19.6318 31.3992 19.5759 31.5448 19.4045C31.9601 18.9195 32.3535 18.4734 32.7251 18.0661C32.7406 18.0485 32.7598 18.0343 32.7813 18.0246C32.8028 18.0149 32.8261 18.0099 32.8496 18.0099H34.9449C34.9555 18.0097 34.9659 18.0126 34.9748 18.0183C34.9837 18.024 34.9908 18.0322 34.9952 18.042C34.9996 18.0517 35.0011 18.0626 34.9995 18.0733C34.9979 18.084 34.9934 18.0941 34.9864 18.1023L32.9086 20.4467C32.8925 20.4652 32.8819 20.4876 32.8778 20.5115C32.8738 20.5354 32.8766 20.5598 32.8858 20.582L33.7539 22.6759C33.7574 22.6842 33.7588 22.6933 33.7579 22.7023C33.7569 22.7113 33.7537 22.72 33.7486 22.7276C33.7434 22.7351 33.7364 22.7413 33.7282 22.7456C33.72 22.7499 33.7109 22.7522 33.7017 22.7523L31.7632 22.7536C31.7141 22.7536 31.681 22.7308 31.664 22.6853L31.1188 21.2773C31.0974 21.2228 31.0572 21.1956 30.9982 21.1956L30.5963 21.1969C30.541 21.1969 30.5066 21.2237 30.4932 21.2773L30.1502 22.6973C30.1463 22.7131 30.1373 22.7271 30.1247 22.737C30.1121 22.747 30.0965 22.7524 30.0806 22.7523L28.272 22.7549C28.2627 22.7551 28.2534 22.753 28.2449 22.7489C28.2364 22.7448 28.229 22.7387 28.2232 22.7312C28.2174 22.7237 28.2133 22.715 28.2114 22.7056C28.2094 22.6963 28.2095 22.6866 28.2118 22.6772L29.3558 18.0929C29.3615 18.0696 29.3749 18.0488 29.3939 18.034C29.4129 18.0191 29.4363 18.0111 29.4603 18.0112L31.2273 18.0059C31.2916 18.0059 31.3157 18.0371 31.2997 18.0996L30.9433 19.4969C30.9393 19.5125 30.9417 19.5291 30.9499 19.5431C30.9582 19.5571 30.9717 19.5675 30.9875 19.5719Z" fill="#010101"/>
<circle cx="20" cy="20" r="19.5" stroke="black" stroke-opacity="0.05"/>
</svg>
