<svg width="40" height="40" viewBox="0 0 40 40" fill="none" xmlns="http://www.w3.org/2000/svg">
<circle cx="20" cy="20" r="20" fill="#F6F8FA"/>
<g clip-path="url(#clip0_19604_30831)">
<path d="M13.6407 29.9142C13.6407 29.9142 13.6645 29.9062 13.6725 29.8904C13.6804 29.8824 13.6884 29.8745 13.6804 29.8586V29.7793V29.6365C13.7122 29.5175 13.7439 29.4064 13.7756 29.2953C13.8153 29.1763 13.847 29.0573 13.8788 28.9542C14.3786 27.1373 14.8705 25.3442 15.3624 23.559C15.7195 22.2737 16.0527 21.044 16.37 19.8856C16.616 18.9891 16.8619 18.0925 17.1079 17.196C17.1872 16.9104 17.2666 16.6168 17.3539 16.3232C17.4253 16.0773 17.4887 15.8393 17.5601 15.6013C17.7347 14.9745 17.9013 14.3636 18.0679 13.7606C18.179 13.3559 18.2821 12.9592 18.3932 12.5546C18.4249 12.4435 18.4487 12.3325 18.4725 12.2214C18.7423 11.2376 19.02 10.2537 19.2897 9.27787C19.3612 9.01604 19.5357 8.94464 19.7737 9.08745C23.7486 11.3724 27.7394 13.6733 31.7461 15.9821C31.9921 16.1249 32.0555 16.3312 31.9603 16.6009C30.2863 21.1074 28.6677 25.4553 27.1047 29.6523C27.0492 29.7952 26.9619 29.8983 26.827 29.9538C26.7477 29.9935 26.6128 30.0094 26.4383 30.0094C25.7242 30.0094 25.0181 30.0094 24.3358 30.0094C24.0581 30.0094 23.8201 30.0094 23.6058 30.0094C20.3529 30.0094 17.1 30.0094 13.847 30.0094C13.7994 30.0094 13.736 29.9776 13.6487 29.9221L13.6407 29.9142ZM28.5487 18.4972C28.5328 18.4178 28.509 18.3464 28.4773 18.2829C27.9695 17.315 26.7794 16.9421 25.7639 16.9024C25.2244 16.8866 24.6928 16.9024 24.1612 16.95C24.0105 16.9659 23.8597 16.9897 23.701 17.0294C23.701 17.0294 23.701 17.0294 23.701 17.0373V17.0452C23.8439 17.0214 23.9867 17.0056 24.1374 16.9976C24.3834 16.9818 24.6928 16.9818 25.0578 16.9976C25.3354 16.9976 25.5973 17.0452 25.875 17.077C26.0495 17.1008 26.2637 17.1484 26.5017 17.2198C26.8826 17.3309 27.2396 17.5054 27.5808 17.7355C27.9061 17.9656 28.1441 18.2433 28.2076 18.6558C28.2948 19.1795 28.0013 19.7666 27.6284 20.1316C26.8905 20.8694 25.9702 21.3693 24.9625 21.6787C24.6452 21.7739 24.3437 21.8612 24.0422 21.9405C23.7725 22.004 23.5979 21.885 23.471 21.6628C23.4154 21.5676 23.1933 21.2106 23.0425 21.2899C22.868 21.3851 22.8997 21.7342 22.8997 21.9008C22.8997 22.1468 22.749 22.3451 22.5268 22.4404C22.3285 22.5276 22.1539 22.6228 21.9952 22.726C21.9159 22.7736 21.8604 22.8371 21.8128 22.9085C21.7096 23.083 21.9714 23.1306 22.0825 23.1306C22.2888 23.1306 22.4871 23.1147 22.6776 23.083C23.0822 23.0116 23.2488 23.2496 23.4234 23.5511C23.471 23.6384 23.6138 23.7891 23.7248 23.7653C23.8994 23.7257 23.9073 23.2972 23.8994 23.1623C23.8994 22.9481 23.9787 22.7577 24.2009 22.6863C24.5817 22.5673 24.9546 22.4324 25.3116 22.2896C26.0336 22.004 26.6842 21.6311 27.2713 21.1788C27.4459 21.044 27.6125 20.8932 27.7871 20.7187C28.3821 20.1078 28.7153 19.362 28.5487 18.5051V18.4972ZM22.749 17.0056C22.749 17.0056 22.749 16.9659 22.7252 16.9659C22.7252 16.9659 22.7252 16.9659 22.7172 16.9659H22.0032C22.0032 16.9659 21.9714 16.9738 21.9714 16.9897L19.5674 25.733C19.5674 25.733 19.5674 25.7726 19.5912 25.7726C19.5912 25.7726 19.5912 25.7726 19.5992 25.7726H20.3053C20.3053 25.7726 20.337 25.7726 20.337 25.7488L22.741 17.0056H22.749ZM19.2025 22.1309C18.6947 21.8294 18.1711 21.3931 18.1869 20.7425C18.2028 20.2268 18.4725 19.7904 18.8296 19.4175C19.1945 19.0287 19.6785 18.6876 20.2736 18.394C20.4243 18.3226 20.5195 18.394 20.6147 18.5051C20.6623 18.5527 20.7575 18.5844 20.821 18.5448C20.8289 18.5448 20.8369 18.5289 20.8369 18.513C20.8924 18.2909 20.7179 18.0449 20.94 17.8783C21.067 17.7831 21.2415 17.672 21.3288 17.5292C21.3685 17.4657 21.3129 17.3943 21.2494 17.3943C21.1225 17.3943 21.0035 17.4261 20.8924 17.4737C20.702 17.5451 20.5751 17.553 20.4402 17.3864C20.3688 17.2991 20.2894 17.2357 20.2022 17.2039C20.1863 17.2039 20.1784 17.2039 20.1704 17.2119C20.1308 17.2595 20.1069 17.315 20.099 17.3705C20.099 17.4499 20.1387 17.5213 20.099 17.6006C20.0752 17.6482 20.0435 17.6958 19.9959 17.7196C19.0993 18.3305 17.9965 19.2112 17.9092 20.3854C17.8934 20.6076 17.9251 20.8456 18.0124 21.0916C18.1949 21.6073 18.6868 21.9564 19.1866 22.1627C19.1945 22.1627 19.2025 22.1627 19.2104 22.1547V22.1389L19.2025 22.1309Z" fill="#3E7DF2"/>
<path d="M18.4646 12.2054C18.4408 12.3164 18.417 12.4275 18.3853 12.5386C18.2742 12.9353 18.1631 13.3399 18.06 13.7445C17.9013 14.3475 17.7267 14.9584 17.5522 15.5852C17.4887 15.8232 17.4173 16.0692 17.3459 16.3072C17.2666 16.6008 17.1793 16.8943 17.1 17.18C16.854 18.0765 16.6081 18.973 16.3621 19.8696C16.0447 21.0359 15.7036 22.2577 15.3545 23.543C14.8626 25.3282 14.3707 27.1292 13.8708 28.9381C13.8391 29.0492 13.8074 29.1603 13.7677 29.2793C13.736 29.3904 13.7042 29.5094 13.6725 29.6205C13.6407 29.6363 13.6169 29.6205 13.6169 29.549C13.6169 29.3666 13.6169 29.1841 13.609 29.0016C13.609 28.835 13.609 28.6525 13.6169 28.4542C13.6249 28.2717 13.6328 28.0813 13.6407 27.8908C13.6804 26.9705 13.7201 26.0898 13.7518 25.2409C13.7518 25.0981 13.7598 24.9394 13.7598 24.7649C13.7598 24.3682 13.8074 23.9556 13.8232 23.5748C13.8629 22.5275 13.9026 21.4564 13.9422 20.3536C13.9422 20.2266 13.966 20.0679 13.974 19.9251C13.9819 19.4888 14.0057 19.0762 14.0216 18.616C14.0216 18.4494 14.0374 18.2907 14.0533 18.14C14.0533 17.8861 14.0533 17.6401 14.0692 17.418C14.0692 17.418 14.0692 17.418 14.0692 17.41C14.0692 17.41 14.0692 17.4021 14.0692 17.3942C14.0692 17.1562 14.085 16.9261 14.093 16.7039C14.1168 16.1247 14.1406 15.5376 14.1644 14.9267C14.1644 14.7918 14.1803 14.6093 14.1961 14.3793C14.1961 14.3317 14.1961 14.2841 14.2041 14.2365C14.2041 14.1412 14.212 14.046 14.2199 13.9429C14.2596 12.8004 14.3072 11.65 14.3548 10.5075C14.3627 10.2615 14.5611 10.2298 14.7436 10.3171C15.9178 10.9121 17.0762 11.4992 18.2266 12.0784C18.2583 12.0943 18.298 12.1181 18.3297 12.1419C18.3615 12.1657 18.4011 12.1815 18.4329 12.2054H18.4646Z" fill="#8EC140"/>
<path d="M14.2358 14.2364C14.2358 14.284 14.2358 14.3316 14.2279 14.3792C14.212 14.6093 14.1962 14.7918 14.1962 14.9267C14.1724 15.5376 14.1486 16.1326 14.1248 16.7039C14.1168 16.926 14.1089 17.1561 14.101 17.3941C14.101 17.3941 14.101 17.4021 14.101 17.41C14.101 17.41 14.101 17.41 14.101 17.4179C14.093 17.648 14.0851 17.886 14.0851 18.1399C13.8867 18.1161 13.6963 18.0685 13.5059 18.0209C13.2441 17.9416 13.1171 17.9098 13.1171 17.9098C12.8315 17.8305 12.5618 17.7512 12.292 17.6718C11.9112 17.5528 11.5303 17.4576 11.1416 17.3386C11.1098 17.3307 11.0702 17.3227 11.0305 17.3227C11.0305 17.3227 11.0226 17.3227 11.0305 17.3069C11.0305 17.3069 11.0305 17.3069 11.0384 17.3069C11.0384 17.3069 11.0384 17.3069 11.0384 17.2989C11.0226 17.2593 11.0146 17.2275 11.0067 17.1879C10.9432 16.8943 10.8877 16.6087 10.8322 16.331C10.6179 15.2678 10.3958 14.1809 10.1816 13.0701C10.1736 13.0146 10.1657 12.967 10.1578 12.9194C10.134 12.6734 10.3958 12.729 10.5386 12.7845C11.7763 13.2685 13.014 13.7524 14.2596 14.2364H14.2358Z" fill="#F2A94A"/>
<path d="M11.0066 17.3227V17.3385C11.0145 17.3623 11.0225 17.3941 11.0304 17.4179C11.2526 18.5366 11.4827 19.6711 11.7207 20.8057C11.8714 21.5277 12.0222 22.3449 12.1491 22.9717C12.3475 23.9238 12.5458 24.8917 12.7283 25.8596C12.7838 26.1532 12.8473 26.4468 12.9108 26.7165C12.9663 26.9625 12.998 27.2164 13.0615 27.4702C13.1012 27.6448 13.1409 27.8352 13.1805 28.0336C13.2519 28.4065 13.3313 28.7873 13.4265 29.1681C13.4424 29.2316 13.4662 29.3744 13.4979 29.5966C13.4979 29.6442 13.5217 29.6838 13.5376 29.7235C13.5614 29.7632 13.5772 29.8028 13.609 29.8425C13.6169 29.8584 13.6407 29.8663 13.6566 29.8504C13.6566 29.8504 13.6645 29.8504 13.6645 29.8425C13.6724 29.8266 13.6804 29.8028 13.6804 29.7711V29.8504C13.6804 29.8504 13.6804 29.8742 13.6804 29.8822C13.6724 29.8901 13.6566 29.898 13.6486 29.906C13.4503 29.8028 13.3789 29.5966 13.2837 29.4061C11.205 25.1218 9.17386 20.9168 7.1745 16.807C7.11896 16.688 7.06342 16.5689 7.01582 16.4579C6.99202 16.4103 6.99202 16.3627 7.00789 16.3071C7.00789 16.2913 7.02375 16.2833 7.03169 16.2754C7.09516 16.2437 7.15863 16.2357 7.2221 16.2516C7.95996 16.4579 9.22147 16.8149 11.0066 17.3227Z" fill="#E26A65"/>
<path d="M28.5487 18.4972C28.7233 19.354 28.3821 20.0998 27.7871 20.7107C27.6125 20.8853 27.4459 21.044 27.2714 21.1709C26.6842 21.6232 26.0257 21.9961 25.3117 22.2817C24.9546 22.4245 24.5817 22.5594 24.2009 22.6784C23.9788 22.7498 23.8915 22.9402 23.8994 23.1544C23.8994 23.2893 23.8994 23.7177 23.7249 23.7574C23.6138 23.7812 23.471 23.6305 23.4234 23.5432C23.2488 23.2417 23.0822 23.0037 22.6776 23.0751C22.4872 23.1068 22.2809 23.1306 22.0825 23.1227C21.9715 23.1227 21.7096 23.0671 21.8128 22.9005C21.8604 22.8291 21.9159 22.7657 21.9953 22.718C22.1539 22.6149 22.3285 22.5197 22.5268 22.4324C22.749 22.3293 22.8918 22.1309 22.8997 21.8929C22.8997 21.7263 22.868 21.3772 23.0425 21.282C23.1933 21.2027 23.4154 21.5518 23.471 21.6549C23.5979 21.877 23.7725 22.004 24.0422 21.9326C24.3437 21.8532 24.6531 21.7739 24.9626 21.6708C25.9702 21.3613 26.8905 20.8615 27.6284 20.1236C27.9934 19.7587 28.2948 19.1636 28.2076 18.6479C28.1362 18.2353 27.9061 17.9656 27.5808 17.7276C27.2476 17.4895 26.8826 17.315 26.5018 17.2119C26.2637 17.1405 26.0495 17.0928 25.875 17.069C25.5973 17.0294 25.3355 16.9897 25.0578 16.9897C24.6928 16.9818 24.3834 16.9897 24.1374 16.9897C23.9867 16.9976 23.8439 17.0135 23.7011 17.0373V17.0214C23.8518 16.9818 24.0026 16.958 24.1612 16.9421C24.6928 16.8866 25.2323 16.8707 25.7639 16.8945C26.7795 16.9342 27.9696 17.3071 28.4773 18.275C28.5091 18.3385 28.5329 18.4099 28.5487 18.4892V18.4972Z" fill="white"/>
<path d="M22.7489 17.0056L20.3449 25.7489C20.3449 25.7489 20.329 25.7727 20.3132 25.7727H19.6071C19.6071 25.7727 19.5753 25.7568 19.5753 25.733C19.5753 25.733 19.5753 25.733 19.5753 25.7251L21.9793 16.9818C21.9793 16.9818 21.9952 16.958 22.0111 16.958H22.7251C22.7251 16.958 22.7568 16.9739 22.7568 16.9977C22.7568 16.9977 22.7568 16.9977 22.7568 17.0056H22.7489Z" fill="white"/>
<path d="M18.1948 20.7423C18.179 21.3929 18.7026 21.8292 19.2104 22.1307C19.2104 22.1307 19.1945 22.1545 19.1866 22.1466C18.6867 21.9403 18.1869 21.5912 18.0123 21.0755C17.9251 20.8296 17.8933 20.5995 17.9092 20.3694C17.9965 19.1952 19.0993 18.3145 19.9958 17.7036C20.0434 17.6718 20.0752 17.6322 20.099 17.5846C20.1307 17.5052 20.0911 17.4338 20.099 17.3545C20.099 17.291 20.1307 17.2434 20.1704 17.1958C20.1783 17.1879 20.1942 17.1799 20.2021 17.1879C20.2894 17.2196 20.3687 17.2831 20.4401 17.3703C20.575 17.537 20.7099 17.529 20.8924 17.4576C21.0035 17.41 21.1225 17.3862 21.2494 17.3783C21.3208 17.3783 21.3684 17.4497 21.3288 17.5132C21.2415 17.656 21.0749 17.767 20.94 17.8622C20.7258 18.0209 20.8924 18.2669 20.8368 18.497C20.8368 18.5049 20.8289 18.5208 20.821 18.5287C20.7575 18.5684 20.6702 18.5446 20.6147 18.489C20.5195 18.3859 20.4163 18.3065 20.2735 18.378C19.6785 18.6715 19.1945 19.0127 18.8295 19.4014C18.4725 19.7743 18.2028 20.2107 18.1869 20.7264L18.1948 20.7423Z" fill="white"/>
<path d="M11.0146 17.3389C11.0146 17.3389 11.094 17.3389 11.1257 17.3547C11.5066 17.4737 11.8953 17.569 12.2762 17.688C12.538 17.7752 12.8157 17.8546 13.1013 17.926C13.1013 17.926 13.2362 17.9657 13.4901 18.0371C13.6805 18.0926 13.8709 18.1323 14.0692 18.1561C14.0534 18.3068 14.0454 18.4655 14.0375 18.6321C14.0216 19.0923 13.9978 19.5048 13.9899 19.9412C13.9899 20.084 13.9661 20.2506 13.9582 20.3697C13.9106 21.4725 13.8709 22.5436 13.8391 23.5908C13.8233 23.9717 13.7836 24.3842 13.7757 24.7809C13.7757 24.9476 13.7757 25.1062 13.7677 25.257C13.7281 26.1059 13.6963 26.9866 13.6567 27.9069C13.6487 28.1053 13.6408 28.2957 13.6329 28.4703C13.6249 28.6686 13.617 28.8511 13.6249 29.0177C13.6249 29.2002 13.6249 29.3827 13.6329 29.5651C13.6329 29.6286 13.6487 29.6445 13.6884 29.6365V29.7794C13.6884 29.7794 13.6884 29.8349 13.6725 29.8508C13.6646 29.8666 13.6408 29.8746 13.6249 29.8587C13.6249 29.8587 13.617 29.8587 13.617 29.8508C13.5932 29.8111 13.5694 29.7714 13.5456 29.7318C13.5218 29.6921 13.5139 29.6524 13.5059 29.6048C13.4742 29.3827 13.4504 29.2399 13.4345 29.1764C13.3393 28.7955 13.26 28.4147 13.1886 28.0418C13.1489 27.8435 13.1092 27.6531 13.0696 27.4785C13.014 27.2246 12.9743 26.9707 12.9188 26.7248C12.8553 26.4471 12.7998 26.1615 12.7363 25.8679C12.5459 24.892 12.3555 23.932 12.1571 22.9799C12.0223 22.3531 11.8715 21.5359 11.7287 20.814C11.4986 19.6794 11.2685 18.5528 11.0385 17.4261C11.0385 17.3944 11.0226 17.3706 11.0146 17.3468V17.3389Z" fill="#EF9D46"/>
</g>
<circle cx="20" cy="20" r="19.5" stroke="black" stroke-opacity="0.05"/>
<defs>
<clipPath id="clip0_19604_30831">
<rect width="25" height="21.0013" fill="white" transform="translate(7 9)"/>
</clipPath>
</defs>
</svg>
