<svg width="40" height="40" viewBox="0 0 40 40" fill="none" xmlns="http://www.w3.org/2000/svg">
<circle cx="20" cy="20" r="20" fill="#08439B"/>
<path d="M16.3653 13.0291C16.7445 11.5268 17.212 10.0333 17.7823 8.58687C17.8092 8.51889 17.8537 8.45917 17.9116 8.41374C17.9694 8.36831 18.0384 8.33879 18.1116 8.32816C19.3738 8.1498 20.6781 8.15372 22.0246 8.33991C22.1363 8.35559 22.2128 8.41635 22.2539 8.52219C22.8106 9.94315 23.2996 11.4464 23.721 13.032C23.7261 13.051 23.7265 13.071 23.7219 13.0901C23.7174 13.1093 23.7081 13.127 23.6949 13.1416C23.6817 13.1562 23.6651 13.1673 23.6465 13.1739C23.628 13.1804 23.6081 13.1822 23.5887 13.179C21.223 12.7811 18.8544 12.7733 16.4829 13.1555C16.4658 13.1578 16.4483 13.156 16.4321 13.1502C16.4159 13.1445 16.4013 13.135 16.3897 13.1225C16.3781 13.11 16.3698 13.095 16.3656 13.0787C16.3613 13.0624 16.3612 13.0454 16.3653 13.0291Z" fill="white"/>
<path d="M16.4066 8.87187C15.0072 10.4594 14.2869 11.9676 13.502 13.8051C13.4797 13.8578 13.4467 13.9053 13.4052 13.9443C13.3637 13.9833 13.3145 14.013 13.2609 14.0314C11.5871 14.6233 10.0505 15.5386 8.65113 16.7773C8.49629 16.9125 8.45121 16.8822 8.51589 16.6862C9.81729 12.7722 12.4191 10.1262 16.3214 8.74839C16.5076 8.68372 16.536 8.72487 16.4066 8.87187Z" fill="white"/>
<path d="M23.8504 8.78373C27.6928 10.1714 30.3241 12.8937 31.5735 16.7244C31.6362 16.9165 31.5912 16.9469 31.4383 16.8156C30.0095 15.5847 28.4778 14.6743 26.8432 14.0844C26.7334 14.0432 26.655 13.9678 26.608 13.858C25.8289 12.0176 25.044 10.4183 23.721 8.9807C23.4956 8.73767 23.5387 8.67201 23.8504 8.78373Z" fill="white"/>
<path d="M15.7163 24.5357C15.2841 21.7898 15.2282 18.9058 15.7251 16.2246C15.7447 16.1227 15.8054 16.0648 15.9074 16.0511C18.8218 15.6474 21.5873 15.6748 24.2038 16.1334C24.3057 16.153 24.3645 16.2138 24.3802 16.3157C24.8075 19.0479 24.8026 21.7673 24.3655 24.474C24.3479 24.5857 24.2842 24.6504 24.1744 24.668C21.4658 25.1306 18.715 25.1551 15.9221 24.7415C15.8702 24.7339 15.8222 24.7097 15.7851 24.6727C15.7481 24.6356 15.7239 24.5876 15.7163 24.5357Z" fill="white"/>
<path d="M12.623 24.1271L8.51892 22.8688C8.38957 22.8296 8.31215 22.7434 8.28667 22.6101C7.99268 21.1519 7.95642 19.677 8.17789 18.1855C8.18589 18.1361 8.20743 18.0899 8.24013 18.052C8.27283 18.0141 8.3154 17.986 8.36311 17.9709L12.5584 16.6715C12.7014 16.6264 12.7612 16.6783 12.7377 16.8273C12.3438 19.4066 12.3722 21.7791 12.823 23.9448C12.8582 24.1173 12.7916 24.1781 12.623 24.1271Z" fill="white"/>
<path d="M31.5912 22.6955L27.4723 24.0096C27.3332 24.0547 27.2763 24.0057 27.3018 23.8626C27.6997 21.5067 27.7154 19.1881 27.3489 16.9068C27.3464 16.8916 27.3477 16.8759 27.3527 16.8614C27.3576 16.8468 27.3661 16.8338 27.3773 16.8235C27.3884 16.8132 27.4019 16.806 27.4165 16.8026C27.4311 16.7991 27.4462 16.7996 27.4606 16.8039C28.954 17.1978 30.3828 17.6633 31.747 18.2003C31.8548 18.2434 31.9155 18.3228 31.9292 18.4385C32.0958 19.781 32.0655 21.105 31.8381 22.4103C31.8265 22.476 31.7974 22.5372 31.7539 22.5875C31.7104 22.6377 31.6541 22.675 31.5912 22.6955Z" fill="white"/>
<path d="M23.6742 31.3916C24.8678 30.0863 25.7703 28.6311 26.3936 27.0141C26.4347 26.9083 26.5092 26.8358 26.617 26.7966C28.4339 26.1341 29.9744 25.2129 31.2386 24.033C31.4346 23.8488 31.4845 23.8821 31.3885 24.133C30.0087 27.7412 27.4647 30.202 23.7565 31.5151C23.5664 31.5818 23.5389 31.5406 23.6742 31.3916Z" fill="white"/>
<path d="M8.9927 24.3064C10.3774 25.4882 11.8385 26.1468 13.5172 26.8965C13.6172 26.9396 13.6868 27.0121 13.726 27.114C14.3355 28.6898 15.2096 30.102 16.3484 31.3504C16.4993 31.5151 16.4689 31.5602 16.2572 31.4857C12.7431 30.2627 10.2627 27.9127 8.8163 24.4358C8.69478 24.1476 8.75358 24.1045 8.9927 24.3064Z" fill="white"/>
<path d="M23.6829 27.8285C23.287 29.2593 22.8783 30.545 22.4569 31.6857C22.4389 31.7333 22.4089 31.7755 22.3698 31.8084C22.3307 31.8413 22.2838 31.8638 22.2335 31.8738C20.6793 32.1796 19.1828 32.1708 17.7442 31.8474C17.6619 31.8278 17.608 31.7778 17.5825 31.6975L16.3654 27.8226C16.3586 27.8 16.3575 27.7759 16.3624 27.7528C16.3673 27.7296 16.3779 27.7082 16.3932 27.6905C16.4086 27.6727 16.4282 27.6594 16.4501 27.6516C16.472 27.6439 16.4955 27.642 16.5183 27.6462C18.931 28.0637 21.2506 28.051 23.4771 27.608C23.6652 27.5708 23.7338 27.6443 23.6829 27.8285Z" fill="white"/>
<circle cx="20" cy="20" r="19.5" stroke="black" stroke-opacity="0.05"/>
</svg>
