<svg width="40" height="40" viewBox="0 0 40 40" fill="none" xmlns="http://www.w3.org/2000/svg">
<circle cx="20" cy="20" r="20" fill="#F6F8FA"/>
<path d="M22.1544 25.1374C23.0424 23.3401 23.3886 21.35 23.193 19.1672C23.0931 18.0565 22.754 16.9766 22.1758 15.9273C20.8567 13.5289 18.4819 12.7066 16.0514 11.9036C15.843 11.8351 15.6767 11.6959 15.5525 11.486C15.5054 11.4075 15.494 11.3247 15.5182 11.2376C15.591 10.9721 15.7502 10.748 15.9958 10.5652C18.1743 8.94064 20.5719 8.00628 23.1887 7.76216C24.0324 7.68221 24.9675 7.79142 25.9939 8.08979C28.4051 8.78788 30.2425 11.0685 30.7628 13.5097C31.6344 17.6104 30.0112 21.8654 27.373 24.9918C26.2124 26.368 24.9796 27.57 23.6748 28.5979C21.7875 30.0869 19.624 30.9763 17.1842 31.2661C16.9216 31.2975 16.6567 31.2918 16.3898 31.249C16.267 31.229 16.2592 31.1869 16.3662 31.1226C16.5782 30.9963 16.8159 30.962 17.0343 30.8207C19.2999 29.3545 21.0066 27.4601 22.1544 25.1374Z" fill="#CC0204"/>
<path d="M9.10074 22.1031C9.44765 19.315 10.7989 16.452 12.5505 14.2699C13.083 13.6075 13.6348 12.9394 14.2058 12.2656C14.2301 12.2356 14.2686 12.2341 14.3215 12.2613C14.3435 12.2729 14.3619 12.2902 14.3747 12.3114C14.3875 12.3325 14.3943 12.3566 14.3943 12.3812C14.3914 18.4927 14.3921 24.7035 14.3964 31.0134C14.3964 31.0506 14.3893 31.0863 14.375 31.1205C14.3621 31.1491 14.3514 31.1791 14.3429 31.2105C14.3391 31.2234 14.3327 31.2355 14.3239 31.2458C14.3152 31.2562 14.3044 31.2646 14.2921 31.2706C14.2799 31.2767 14.2665 31.2801 14.2527 31.2808C14.239 31.2815 14.2252 31.2794 14.2122 31.2747C11.6654 30.3353 10.0401 28.6415 9.3363 26.1932C8.98939 24.9897 8.91087 23.6264 9.10074 22.1031Z" fill="#0402CC"/>
<circle cx="20" cy="20" r="19.5" stroke="black" stroke-opacity="0.05"/>
</svg>
