<svg width="40" height="40" viewBox="0 0 40 40" fill="none" xmlns="http://www.w3.org/2000/svg">
<ellipse cx="20.0176" cy="20" rx="19.9824" ry="20" fill="#0053A0"/>
<g clip-path="url(#clip0_26419_48181)">
<path d="M13.1181 16.9931H8.00878C8.00878 16.9931 7.97078 16.9753 7.97078 16.9531C7.97078 16.9442 7.97078 16.9354 7.97922 16.9309C10.1454 13.7975 14.4946 12.3417 18.012 12.0666C18.6285 12.0178 19.4012 12 20.326 12C21.2127 12 21.9812 12.0444 22.6357 12.1243C26.0813 12.5326 30.5023 14.1037 32.3603 17.4502C33.1119 18.8039 33.2174 20.6325 32.5967 22.0705C32.5841 22.0971 32.5587 22.1148 32.5334 22.1148H28.8767C28.8218 22.1148 28.7922 22.0838 28.7922 22.0261V17.0419C28.7922 17.0108 28.7753 16.9931 28.7458 16.9931H26.9934C26.9934 16.9931 26.9554 17.0108 26.9554 17.033V23.0203C26.9554 23.0424 26.9723 23.0602 26.9934 23.0602H31.976C31.976 23.0602 32.014 23.0779 32.014 23.0957C32.014 23.1046 32.014 23.1135 32.0056 23.1179C29.8774 26.2069 25.5113 27.6316 22.0488 27.929C21.3352 27.9911 20.3682 28.0089 19.1479 27.9822C15.2589 27.8979 10.6183 26.5709 8.1439 23.3132C7.22339 22.0926 6.86869 20.6857 7.09671 19.1057C7.14738 18.7329 7.24872 18.3689 7.39229 18.0139C7.4134 17.9695 7.44718 17.9429 7.49363 17.9429H11.3193C11.3573 17.9429 11.3784 17.965 11.3784 18.005V22.9803C11.3784 23.0336 11.4037 23.0646 11.4586 23.0646H13.1223C13.1856 23.0646 13.2152 23.0336 13.2152 22.967V17.0907C13.2152 17.0241 13.1856 16.9931 13.1223 16.9931H13.1181ZM18.4089 17.61V17.0774C18.4089 17.0197 18.3878 16.9931 18.3329 16.9931H16.6735C16.6228 16.9931 16.5932 17.0197 16.5932 17.0774V23.0069C16.5932 23.038 16.6144 23.0602 16.6439 23.0602H20.2964C20.364 23.0602 20.3935 23.0247 20.3893 22.9581C20.3766 22.7983 20.4231 22.6341 20.3049 22.5054C19.663 21.8086 19.0423 21.1118 18.4301 20.4194C18.3456 20.3218 18.3583 20.2463 18.4807 20.1975C18.5145 20.1842 18.5441 20.1753 18.5821 20.1753C18.713 20.162 18.8185 20.2153 18.8988 20.3262C19.5533 21.276 20.8285 21.3293 21.597 20.4727C23.0622 18.8261 21.4238 15.8258 19.3717 17.0907C19.1606 17.2194 18.9917 17.3969 18.8565 17.6144C18.827 17.6632 18.7847 17.6899 18.7299 17.6899H18.4934C18.4385 17.6899 18.4132 17.6632 18.4132 17.6055L18.4089 17.61ZM13.8359 16.9931C13.8106 16.9931 13.7895 17.0153 13.7895 17.0419V19.4075C13.7852 19.4341 13.8064 19.4563 13.8317 19.4563C13.8444 19.4563 13.8528 19.4563 13.8612 19.443L16.0485 17.3969C16.0485 17.3969 16.0654 17.3748 16.0654 17.3614V17.0419C16.0654 17.0153 16.0485 16.9931 16.0232 16.9931H13.8359ZM24.6372 17.0552C24.6372 17.0197 24.6119 16.9931 24.5781 16.9931H23.0538C23.02 16.9931 22.9946 17.0197 22.9946 17.0552V23.0025C22.9946 23.038 23.02 23.0646 23.0538 23.0646H24.5781C24.6119 23.0646 24.6372 23.038 24.6372 23.0025V17.0552ZM24.937 18.7196C24.937 18.7196 24.937 18.7462 24.9497 18.7551L25.7224 19.9179C25.7435 19.9445 25.7815 19.9534 25.8069 19.9312C25.8111 19.9312 25.8153 19.9223 25.8195 19.9179L26.5923 18.7506C26.5923 18.7506 26.6049 18.7284 26.6049 18.7151L26.6134 17.0552C26.6134 17.0197 26.588 16.9931 26.5543 16.9931H24.9877C24.9539 16.9931 24.9286 17.0197 24.9286 17.0552L24.937 18.7196ZM13.8612 20.6103C13.8612 20.6103 13.8148 20.5925 13.7979 20.6103C13.7895 20.6191 13.7852 20.6325 13.7852 20.6413V23.0069C13.7852 23.0336 13.8106 23.0558 13.8359 23.0558H16.0274C16.0528 23.0558 16.0739 23.0336 16.0739 23.0069V22.6963C16.0739 22.6963 16.0654 22.6696 16.0528 22.6607L13.8612 20.6058V20.6103Z" fill="white"/>
</g>
<path d="M19.9824 0.5C30.7419 0.5 39.4648 9.23003 39.4648 20C39.4648 30.77 30.7419 39.5 19.9824 39.5C9.22299 39.5 0.5 30.77 0.5 20C0.5 9.23004 9.22299 0.500008 19.9824 0.5Z" stroke="black" stroke-opacity="0.05"/>
<defs>
<clipPath id="clip0_26419_48181">
<rect width="25.9772" height="16" fill="white" transform="translate(7.02893 12)"/>
</clipPath>
</defs>
</svg>
