<svg width="40" height="40" viewBox="0 0 40 40" fill="none" xmlns="http://www.w3.org/2000/svg">
<circle cx="20" cy="20" r="20" fill="#084FFF"/>
<path d="M29.2245 17.4837C29.7045 17.776 30.0258 18.2599 30.0258 18.8154C30.0258 19.1812 29.898 19.5547 29.6406 19.8218C29.3503 20.1218 28.9226 20.236 28.5297 20.3289C28.2509 20.3947 27.9238 20.4354 27.6587 20.5418C27.3684 20.6599 27.0684 20.8418 27.0684 21.2037H30.0858V22.1928H25.9477V21.347C25.9477 20.8263 26.1897 20.3425 26.7142 19.9825C27.0993 19.7173 27.5542 19.5779 28.0051 19.4889C28.4193 19.4076 28.9555 19.365 28.9555 18.8231C28.9555 18.2947 28.2916 18.1263 27.8445 18.1534C27.3277 18.1844 26.96 18.3876 26.6851 18.6837L25.9438 18.0121C26.3387 17.5476 27.0722 17.176 27.8445 17.1702C28.3516 17.1644 28.8393 17.2496 29.2245 17.4837Z" fill="white"/>
<path d="M30.3862 20.0271C30.2313 20.2264 30.092 20.4897 30.2178 20.8806C30.3165 21.1013 30.4887 21.318 30.9687 21.318H33.0358V22.1929H34.1062V21.318H34.981V20.4297H34.1062C34.1062 20.4297 34.1062 17.8903 34.1062 17.8884C34.1062 17.5051 33.8081 17.2226 33.4094 17.1858C33.0784 17.1548 32.7204 17.2709 32.4958 17.5458L30.3862 20.0271ZM33.0339 18.2851V20.4297H31.2087L33.0339 18.2851Z" fill="white"/>
<path d="M19.702 19.3748H16.9536C16.9536 19.3748 16.9536 18.8851 16.9536 18.8038C16.9536 18.4225 17.1046 18.2232 17.5014 18.2232H19.8956V17.2361H17.3175C16.3788 17.2361 15.8833 17.7896 15.8833 18.6161V22.1967H16.9536V20.2709H19.702V19.3748Z" fill="white"/>
<path d="M25.4214 19.3806C25.3595 18.8425 25.0769 18.2754 24.7111 17.9135C24.2389 17.447 23.604 17.1528 22.8879 17.1528C21.4789 17.1528 20.3389 18.3006 20.3389 19.7096C20.3389 20.627 20.8285 21.4283 21.5563 21.8773C21.9608 22.1309 22.4311 22.2548 22.8937 22.2548C23.5924 22.2548 24.2544 21.9644 24.7169 21.4883L23.9582 20.8225C23.6853 21.0838 23.2963 21.2522 22.8898 21.2541C22.4873 21.2541 22.0692 21.0838 21.7905 20.7973C21.6356 20.6367 21.5214 20.4567 21.446 20.267H25.3769C25.3769 20.2651 25.4795 19.8935 25.4214 19.3806ZM21.3744 19.3786C21.4363 19.0999 21.5737 18.8348 21.7885 18.6161C22.2879 18.1051 23.0718 18.0257 23.6447 18.349C24.0647 18.5851 24.3144 18.978 24.4034 19.3786H21.3744Z" fill="white"/>
<path d="M7.69437 21.3354C6.79437 21.3354 6.06663 20.6076 6.06469 19.7096C6.06663 18.8115 6.79437 18.0857 7.69243 18.0838C8.12211 18.0838 8.51114 18.2502 8.80147 18.5212L9.58921 17.8302C9.10534 17.3425 8.43372 17.0405 7.69243 17.0405C6.21566 17.0386 5.01953 18.2347 5.01953 19.7096C5.01953 21.1844 6.21566 22.3805 7.69437 22.3805C8.43179 22.3805 9.0976 22.0825 9.58147 21.6025L8.86147 20.8438C8.56534 21.1457 8.15114 21.3354 7.69437 21.3354Z" fill="white"/>
<path d="M13.7622 17.238V17.7606C13.4486 17.3774 12.8389 17.1587 12.2912 17.1587C10.8822 17.1587 9.74023 18.3006 9.74023 19.7097C9.74023 21.109 10.8744 22.2451 12.2583 22.2451C12.806 22.2451 13.3906 22.0922 13.7622 21.649V22.1929H14.8383V17.238H13.7622ZM12.2873 21.2503C11.4318 21.2503 10.7389 20.5574 10.7389 19.7019C10.7389 18.8464 11.4318 18.1535 12.2873 18.1535C13.1428 18.1535 13.8357 18.8464 13.8357 19.7019C13.8357 20.5574 13.1428 21.2503 12.2873 21.2503Z" fill="white"/>
<circle cx="20" cy="20" r="19.5" stroke="black" stroke-opacity="0.05"/>
</svg>
