<svg width="40" height="40" viewBox="0 0 40 40" fill="none" xmlns="http://www.w3.org/2000/svg">
<circle cx="20" cy="20" r="20" fill="#233C8B"/>
<path d="M8.23792 19.6883C8.20736 19.6931 8.18635 19.7227 8.19208 19.7532C8.19208 19.7561 8.19304 19.759 8.19399 19.7618L9.09256 22.3983C9.10211 22.427 9.08683 22.4575 9.05818 22.4671C9.05245 22.469 9.04672 22.47 9.041 22.47H7.87314C7.82158 22.4681 7.78815 22.4442 7.77287 22.3955L6.93924 19.7933C6.92873 19.7599 6.90582 19.7437 6.87144 19.7437H6.15812C6.13902 19.7446 6.12279 19.7561 6.11611 19.7743L5.16024 22.4079C5.14592 22.448 5.11823 22.4681 5.07526 22.4681H4.0535C4.0239 22.4681 3.99907 22.4432 4.00003 22.4127C4.00003 22.4069 4.00098 22.4012 4.00289 22.3955L6.41308 15.7799C6.42263 15.755 6.44555 15.7388 6.47133 15.7388C7.37277 15.735 8.27707 15.7369 9.18232 15.7426C10.6109 15.7512 11.0807 16.7119 10.5221 17.9418C10.0723 18.932 9.31123 19.5136 8.23792 19.6883ZM7.20088 16.7863L6.48948 18.7429C6.48375 18.7592 6.4933 18.7764 6.51144 18.7821C6.51526 18.7831 6.52003 18.784 6.52385 18.784C6.88099 18.7792 7.2429 18.7792 7.60959 18.784C8.04598 18.7897 8.39452 18.7334 8.65712 18.614C9.12407 18.403 9.59484 17.8052 9.51081 17.2772C9.45829 16.9439 9.21861 16.7682 8.79081 16.7481C8.32386 16.7262 7.81489 16.7243 7.262 16.7415C7.23431 16.7424 7.21043 16.7606 7.20088 16.7863Z" fill="white"/>
<path d="M11.7979 16.0435C11.7979 15.9842 11.8446 15.9365 11.9029 15.9355C11.9029 15.9355 11.9029 15.9355 11.9038 15.9355C12.3507 15.9355 12.8053 15.9413 13.2675 15.9546C13.2875 15.9546 13.3009 15.9671 13.3076 15.9909C13.3133 16.0129 13.3057 16.0358 13.2885 16.0501L11.9621 17.1683C11.9229 17.2008 11.8647 17.196 11.8313 17.1559C11.8179 17.1397 11.8103 17.1196 11.8103 17.0986L11.7979 16.0435Z" fill="#D31E26"/>
<path d="M33.4668 18.6131L32.593 18.6159C32.5825 18.6159 32.574 18.6073 32.574 18.5959C32.574 18.594 32.574 18.5921 32.574 18.5902L32.8833 17.7279C32.8881 17.7155 32.8967 17.7097 32.9091 17.7097L33.7915 17.7174C33.8306 17.7174 33.865 17.6935 33.8774 17.6572L34.2985 16.4874C34.3109 16.4531 34.3444 16.4292 34.3816 16.4292H35.368C35.3852 16.4292 35.3995 16.4435 35.3995 16.4607C35.3995 16.4645 35.3995 16.4684 35.3976 16.4722L34.967 17.6448C34.9574 17.6706 34.9708 17.7002 34.9975 17.7097C35.0032 17.7116 35.0099 17.7136 35.0157 17.7136L35.9906 17.7078C35.9963 17.7078 36.0002 17.7116 36.0002 17.7174C36.0002 17.7174 36.0002 17.7183 36.0002 17.7193C35.9114 18.0115 35.8082 18.3037 35.6908 18.5959C35.686 18.6083 35.6765 18.614 35.664 18.614L34.6614 18.6121C34.6327 18.6121 34.607 18.6303 34.5974 18.657C34.3081 19.4486 33.9939 20.3014 33.6568 21.2133C33.4429 21.7901 33.9337 21.8044 34.3176 21.7605C34.4265 21.748 34.4609 21.7929 34.4207 21.8951L34.1629 22.5588C34.139 22.6208 34.0932 22.6504 34.0273 22.6485C33.8087 22.6428 33.6024 22.6418 33.4085 22.6457C32.6255 22.659 32.2493 22.0765 32.5224 21.3212C32.8375 20.4532 33.165 19.5689 33.505 18.6704C33.5136 18.6484 33.5031 18.6245 33.4811 18.6159C33.4763 18.614 33.4706 18.6131 33.4658 18.6131H33.4668Z" fill="white"/>
<path d="M14.5595 18.0829C15.0532 17.7468 15.5621 17.5654 16.1666 17.6103C17.2208 17.6886 17.2876 18.5967 17.0002 19.3873C16.6183 20.4368 16.2516 21.448 15.8992 22.4211C15.8887 22.4497 15.862 22.4688 15.8314 22.4688L14.866 22.4727C14.8326 22.4727 14.8049 22.445 14.8049 22.4115C14.8049 22.4049 14.8058 22.3972 14.8087 22.3905C15.1544 21.4423 15.5096 20.4683 15.8744 19.4695C16.1513 18.7113 15.5803 18.4659 14.9768 18.6425C14.4382 18.7991 14.1088 19.1333 13.9187 19.6853C13.5921 20.6345 13.2656 21.5445 12.938 22.4163C12.9256 22.4488 12.8951 22.4698 12.8607 22.4698H11.9067C11.8704 22.4698 11.8418 22.4402 11.8418 22.4039C11.8418 22.3963 11.8428 22.3886 11.8456 22.3819L13.5444 17.7382C13.5511 17.721 13.5683 17.7096 13.5864 17.7096H14.5738C14.6005 17.7096 14.6225 17.7315 14.6225 17.7583C14.6225 17.764 14.6215 17.7707 14.6187 17.7764L14.5136 18.0467C14.4898 18.1087 14.505 18.1202 14.5595 18.0829Z" fill="white"/>
<path d="M19.987 22.09C19.944 22.111 19.9011 22.1339 19.86 22.1588C19.4045 22.4338 18.9271 22.5407 18.4267 22.4796C17.3448 22.3478 17.043 21.3366 17.2865 20.4304C17.5845 19.3227 18.1918 18.5062 19.1075 17.982C19.7435 17.6172 20.9028 17.3365 21.449 17.9935C21.511 18.0689 21.5464 18.0574 21.554 17.96C21.5607 17.8836 21.5855 17.8168 21.6304 17.7595C21.6581 17.7223 21.6944 17.7051 21.7393 17.706C22.0649 17.7165 22.3752 17.7165 22.6693 17.706C22.6923 17.706 22.7114 17.7232 22.7123 17.7452C22.7123 17.7509 22.7123 17.7557 22.7095 17.7614C22.2521 19.0038 21.7851 20.2986 21.3076 21.645C21.0842 22.2753 20.8674 22.7298 20.6564 23.0086C20.1446 23.6876 19.4694 24.1211 18.6301 24.3092C17.9464 24.462 17.0191 24.4506 16.4538 24.0189C16.4214 23.9951 16.4118 23.9636 16.4261 23.9254L16.79 22.9084C16.8005 22.8816 16.8301 22.8673 16.8568 22.8769C16.8654 22.8797 16.873 22.8855 16.8788 22.8921C17.1146 23.1729 17.4431 23.3639 17.8003 23.4049C18.8402 23.5243 19.5879 23.1041 20.0433 22.1464C20.0777 22.0747 20.0586 22.0556 19.987 22.09ZM18.5441 19.9262C18.2987 20.4905 18.1927 21.3939 19.0397 21.518C19.5583 21.5944 20.348 21.3013 20.538 20.7579C20.7318 20.2031 20.9247 19.6693 21.1157 19.1584C21.13 19.1222 21.1291 19.0859 21.1157 19.0505C20.8311 18.3353 19.8925 18.5167 19.394 18.8586C19.0302 19.1078 18.7466 19.464 18.5451 19.9262H18.5441Z" fill="white"/>
<path d="M24.7875 18.0757C24.8782 18.0117 24.9728 17.9535 25.0702 17.9C26.174 17.2946 27.847 17.5562 27.2454 19.277C26.8864 20.3064 26.513 21.3424 26.1263 22.3862C26.1062 22.4396 26.0547 22.4759 25.9974 22.4759H25.0873C25.0491 22.4759 25.0186 22.4444 25.0186 22.4062C25.0186 22.3976 25.0195 22.39 25.0224 22.3823C25.3652 21.4293 25.7205 20.4592 26.0871 19.4708C26.2791 18.9542 26.069 18.5417 25.4684 18.5933C24.8142 18.6496 24.3673 19.0421 24.141 19.6771C23.7629 20.7342 23.4315 21.649 23.1479 22.4225C23.1374 22.4511 23.1107 22.4702 23.0801 22.4702H22.1262C22.088 22.4702 22.0574 22.4396 22.0584 22.4014C22.0584 22.3938 22.0603 22.3852 22.0622 22.3785L23.7552 17.7453C23.7629 17.7243 23.7839 17.71 23.8059 17.71H24.777C24.8095 17.71 24.8352 17.7367 24.8362 17.7682C24.8362 17.7759 24.8352 17.7835 24.8314 17.7911L24.7331 18.0327C24.7016 18.1082 24.7197 18.1225 24.7875 18.0757Z" fill="white"/>
<path d="M28.6215 20.3249C28.5852 20.3249 28.5546 20.3507 28.547 20.386C28.3827 21.1365 28.6492 21.5491 29.3472 21.6235C29.8762 21.6808 30.4129 21.5567 30.9562 21.2521C31.0422 21.2034 31.0679 21.2254 31.0336 21.318L30.7672 22.0342C30.729 22.1354 30.6612 22.208 30.5628 22.2528C29.5258 22.7226 27.657 22.8735 27.4068 21.3905C27.3428 21.0105 27.4164 20.5521 27.6293 20.0145C28.0648 18.9173 28.9433 17.971 30.0662 17.6845C30.538 17.5633 30.9696 17.5719 31.3621 17.7103C32.4554 18.0961 32.0544 19.5371 31.7307 20.2876C31.7163 20.3191 31.6848 20.3401 31.6504 20.3401L28.6215 20.3249ZM30.4129 18.5172C29.7931 18.5105 29.2699 18.9288 28.9691 19.4521C28.9586 19.4693 28.9643 19.4912 28.9815 19.5017C28.9872 19.5056 28.9939 19.5075 29.0015 19.5075L30.8913 19.5027C30.9371 19.5027 30.9782 19.4712 30.9896 19.4253C31.11 18.9546 30.9801 18.523 30.4129 18.5172Z" fill="white"/>
<path d="M12.489 17.7729L10.8094 22.4453C10.8017 22.4653 10.7836 22.4777 10.7626 22.4777H9.74941C9.72172 22.4777 9.69976 22.4548 9.70071 22.4271C9.70071 22.4214 9.70167 22.4157 9.70358 22.4109L11.4148 17.7443C11.4215 17.7252 11.4406 17.7118 11.4606 17.7118L12.4423 17.7061C12.47 17.7061 12.4919 17.728 12.4919 17.7557C12.4919 17.7614 12.491 17.7672 12.489 17.7729Z" fill="white"/>
<circle cx="20" cy="20" r="19.5" stroke="black" stroke-opacity="0.05"/>
</svg>
