<svg width="40" height="40" viewBox="0 0 40 40" fill="none" xmlns="http://www.w3.org/2000/svg">
<circle cx="20" cy="20" r="20" fill="#0F0E89"/>
<path d="M25.3398 17.3067C28.4657 17.3067 30.9998 16.4773 30.9998 15.4541C30.9998 14.431 28.4657 13.6016 25.3398 13.6016C22.2138 13.6016 19.6797 14.431 19.6797 15.4541C19.6797 16.4773 22.2138 17.3067 25.3398 17.3067Z" fill="#FF0000"/>
<path d="M24.8919 12C24.8919 12 17.2847 12.9007 17.2847 16.0044C17.2847 19.108 23.692 19.508 23.692 19.508L17.3901 26.9152C17.3901 26.9152 7.57994 24.5123 9.17362 18.5065C10.7673 12.5007 24.8919 12 24.8919 12Z" fill="white"/>
<circle cx="20" cy="20" r="19.5" stroke="black" stroke-opacity="0.05"/>
</svg>
