<svg width="40" height="40" viewBox="0 0 40 40" fill="none" xmlns="http://www.w3.org/2000/svg">
<circle cx="20" cy="20" r="20" fill="#212222"/>
<g clip-path="url(#clip0_18553_55945)">
<path d="M17.6773 25.8963C17.8542 25.2663 17.9426 24.7063 17.9603 24.1813C17.9957 22.3088 18.0134 20.2788 18.0134 18.0913C18.0134 16.8313 17.8542 15.6938 17.5357 14.6788C17.4826 14.5388 17.5357 14.4513 17.695 14.4163C19.1811 14.2063 20.5965 14.2063 21.9765 14.4163C22.2065 14.4513 22.2596 14.5738 22.1357 14.7663C21.8703 15.2388 21.7465 15.8688 21.7465 16.4113C21.6757 19.1938 21.6757 21.9238 21.7465 24.6188C21.7465 25.1613 21.9411 25.6863 22.1711 26.1763C22.2065 26.2638 22.1711 26.3688 22.0826 26.4038C22.065 26.4038 22.0296 26.4038 22.0119 26.4038H17.6065C17.4296 26.3863 17.3942 26.2988 17.4826 26.1588C17.518 26.1063 17.5534 26.0538 17.5888 26.0188C17.6242 25.9663 17.6419 25.9138 17.6596 25.8613L17.6773 25.8963Z" fill="#A38049"/>
<path d="M12.7943 26.2115C13.1305 25.8265 13.2012 24.969 13.2012 24.514C13.2366 22.8165 13.2543 20.909 13.2543 18.7915C13.2543 17.689 13.1305 16.6565 12.8651 15.729C12.812 15.554 12.8651 15.449 13.0597 15.3965L16.1381 14.5565C16.4035 14.4865 16.492 14.5565 16.3858 14.8365C16.1558 15.379 15.9966 16.1315 15.9966 16.709C15.9435 19.194 15.9258 21.714 15.9966 24.269C15.9966 24.864 16.1205 25.5815 16.3858 26.1065C16.492 26.334 16.4212 26.439 16.1735 26.439H12.9181C12.7235 26.439 12.6881 26.369 12.812 26.2115H12.7943Z" fill="#A38049"/>
<path d="M26.789 15.5187C26.8775 15.5537 26.9305 15.6587 26.8952 15.7462C26.6298 16.2887 26.4529 16.9012 26.4529 17.5137C26.4529 19.7712 26.4529 22.0462 26.4529 24.3562C26.4529 24.9512 26.5767 25.6162 26.8598 26.1412C26.9836 26.3512 26.9129 26.4562 26.6652 26.4562L23.6221 26.4212C23.3744 26.4212 23.2859 26.2987 23.3744 26.0712C23.5867 25.4237 23.7459 24.7412 23.7636 24.0587C23.7813 21.7137 23.7636 19.4387 23.7459 17.2337C23.7459 16.4462 23.5867 15.6062 23.3213 14.7487C23.3036 14.6787 23.339 14.5912 23.4275 14.5737C23.4452 14.5737 23.4805 14.5737 23.4982 14.5737C24.6659 14.8187 25.7805 15.1337 26.8244 15.5187H26.789Z" fill="#A38049"/>
<path d="M9.96349 16.8314L11.8212 15.8339C11.8212 15.8339 12.0158 15.8164 12.0689 15.9039C12.0866 15.9564 12.1043 16.0089 12.0689 16.0614C11.8919 16.5339 11.7327 17.0414 11.7327 17.5314C11.6619 20.0514 11.6619 22.4839 11.7327 24.8464C11.7327 25.3364 11.9096 25.7389 12.0335 26.2114C12.0866 26.3689 12.0335 26.4389 11.8566 26.4389H10.0696C9.9281 26.4039 9.82195 26.2989 9.82195 26.1589C9.82195 26.1239 9.82195 26.1064 9.82195 26.0714C9.9281 25.7739 10.0873 25.4239 10.0873 25.1089C10.1227 23.0439 10.1227 20.8914 10.0873 18.6514C10.0873 18.1614 9.99887 17.6714 9.82195 17.1989C9.76887 17.0589 9.82195 16.9014 9.96349 16.8314Z" fill="#A38049"/>
<path d="M29.8144 16.9011C29.8144 16.9011 29.9205 17.0236 29.8851 17.0936C29.7259 17.4961 29.6374 17.8811 29.6374 18.2661C29.5844 20.2611 29.5667 22.4486 29.6021 24.8461C29.6021 25.2486 29.7082 25.7561 29.8851 26.1411C29.9736 26.3336 29.9028 26.4386 29.6905 26.4386H27.8505C27.6382 26.4386 27.5851 26.3336 27.6559 26.1586L27.8682 25.5986C27.939 25.4411 27.9567 25.2661 27.9744 25.0911C28.0274 22.5011 28.0274 19.9811 27.9744 17.5661C27.9744 17.0936 27.8682 16.6386 27.6913 16.2011C27.5144 15.7811 27.6205 15.6936 28.0274 15.9036L29.8321 16.9011H29.8144Z" fill="#A38049"/>
</g>
<circle cx="20" cy="20" r="19.5" stroke="black" stroke-opacity="0.05"/>
<defs>
<clipPath id="clip0_18553_55945">
<rect width="21" height="13" fill="white" transform="translate(9.03516 13.5264)"/>
</clipPath>
</defs>
</svg>
