<svg width="40" height="40" viewBox="0 0 40 40" fill="none" xmlns="http://www.w3.org/2000/svg">
<circle cx="20" cy="20" r="20" fill="#F6F8FA"/>
<circle cx="20" cy="20" r="19.5" stroke="black" stroke-opacity="0.05"/>
<g clip-path="url(#clip0_18553_55624)">
<path d="M23.5289 25.2239C23.0459 25.3336 22.5551 25.412 22.0565 25.4668C22.002 25.4668 21.963 25.4511 21.9475 25.3963C21.9163 25.2944 21.9475 25.2239 22.0254 25.1925C22.298 25.0749 22.5785 24.9495 22.8589 24.832C23.2095 24.6831 23.6302 24.3382 24.1132 23.7896C25.1571 22.6061 25.7959 21.1875 26.0452 19.5338C26.4269 16.9944 25.8115 14.7059 24.1833 12.6759C23.2173 11.4768 21.8851 10.5912 20.4205 10.0895C19.2208 9.67416 18.3795 9.37633 17.2654 9.54092C17.2187 9.54092 17.2031 9.52524 17.2031 9.48606V9.41552C17.2031 9.37633 17.2265 9.35282 17.2654 9.34498C20.1479 8.66311 22.8434 9.00013 25.3285 10.3482C26.5204 10.9909 27.4942 11.853 28.2421 12.9346C29.4885 14.7215 29.7924 16.5007 29.5898 18.5698C29.4496 20.0354 28.7329 21.4305 27.8214 22.5983C26.7775 23.9307 25.2272 24.8555 23.5289 25.2317V25.2239Z" fill="#E49D46"/>
<path d="M9.0624 18.6796C9.28832 16.9631 9.87259 15.3956 10.8074 13.9692C11.4229 13.0287 12.124 12.2841 12.9108 11.7277C15.3804 9.98771 18.8393 9.74475 21.4491 11.3044C23.8875 12.7622 25.243 14.9646 25.5157 17.9036C25.5234 18.0055 25.4767 18.0526 25.3754 18.029C25.3365 18.0212 25.3053 17.9977 25.2897 17.9585C24.4717 16.2499 23.1552 15.0586 21.34 14.3846C19.1665 13.5852 16.7827 13.593 14.7494 14.5492C12.5525 15.5916 11.0489 17.1669 10.2387 19.283C9.91934 20.1138 9.71679 21.0622 9.63109 22.1124C9.61551 22.3397 9.67004 22.5513 9.67783 22.7708C9.67783 22.9824 9.63109 22.998 9.50645 22.8335C9.39738 22.6767 9.31948 22.4886 9.28053 22.2613C9.07798 21.0778 8.90659 19.8709 9.07019 18.6639L9.0624 18.6796Z" fill="#3E8B4A"/>
<path d="M14.0249 20.0038C12.9498 25.3255 16.6658 29.9889 21.971 30.4435C22.2437 30.467 22.5086 30.4435 22.7579 30.3572C22.8124 30.3416 22.8747 30.3729 22.8981 30.4278C22.9059 30.4591 22.8981 30.4905 22.8903 30.514C22.8358 30.6081 22.7579 30.6708 22.6488 30.6943C19.6495 31.3683 16.8839 30.9451 14.352 29.4246C12.2331 28.1549 10.8308 26.172 10.4413 23.7659C10.2232 22.4256 10.3478 20.9679 10.8698 19.6433C11.6722 17.5977 13.09 16.1243 15.1077 15.1994C15.9413 14.8232 16.8917 14.6351 17.7954 14.5254C17.8577 14.5176 17.92 14.5254 17.9824 14.5489C18.0291 14.5646 18.0525 14.6195 18.0369 14.6665C18.0291 14.69 18.0135 14.7057 17.9901 14.7135C17.4526 14.9565 16.9462 15.2386 16.4944 15.6305C15.209 16.7434 14.3832 18.2012 14.0249 20.0038Z" fill="#244895"/>
<path d="M21.5662 26.2034C23.6384 26.3131 25.8041 25.4823 27.3544 24.1578C29.3955 22.4178 30.3537 19.949 30.4082 17.2842C30.4082 17.2372 30.4316 17.198 30.4784 17.1745C30.5407 17.1353 30.603 17.1432 30.6575 17.1902C30.6887 17.2215 30.7121 17.2607 30.7199 17.2999C31.3041 20.0117 30.9925 22.5903 29.7772 25.0356C29.1306 26.3366 28.2581 27.3947 27.1597 28.2098C24.5421 30.1456 20.8417 30.1927 18.1696 28.4057C16.0038 26.9558 14.8119 24.918 14.6094 22.2924C14.6016 22.1827 14.6405 22.1043 14.7262 22.0416C14.7808 22.0024 14.8509 22.0181 14.882 22.073C14.882 22.0808 14.8976 22.0965 14.8976 22.1043C15.0534 22.6686 15.2638 23.1467 15.6689 23.5856C17.2737 25.3334 19.2524 26.0858 21.5584 26.2034H21.5662Z" fill="#C1392D"/>
</g>
<defs>
<clipPath id="clip0_18553_55624">
<rect width="22" height="22" fill="white" transform="translate(9 9)"/>
</clipPath>
</defs>
</svg>
