<svg width="41" height="40" viewBox="0 0 41 40" fill="none" xmlns="http://www.w3.org/2000/svg">
<circle cx="20.0352" cy="20" r="20" fill="#F6F8FA"/>
<g clip-path="url(#clip0_29067_48008)">
<mask id="mask0_29067_48008" style="mask-type:luminance" maskUnits="userSpaceOnUse" x="6" y="11" width="30" height="18">
<path d="M35.0352 11H6.03516V29H35.0352V11Z" fill="white"/>
</mask>
<g mask="url(#mask0_29067_48008)">
<path d="M18.5745 11L15.7988 17.3553H16.1993L18.5745 11.9175C18.5745 11.9175 18.6022 11.8771 18.616 11.8636C18.6298 11.8636 18.6574 11.8501 18.685 11.8501C18.7126 11.8501 18.7264 11.8501 18.7541 11.8636C18.7679 11.8636 18.7817 11.8906 18.7955 11.9175L20.5493 15.9385L21.1707 17.3553H25.2998L22.4964 11H18.5607H18.5745Z" fill="url(#paint0_radial_29067_48008)"/>
<path d="M10.6885 29.0002H11.089L12.829 25.0332L12.967 24.7363H12.5666L12.2904 25.357L10.7023 29.0002H10.6885Z" fill="url(#paint1_radial_29067_48008)"/>
<path d="M26.2521 29H30.3811L28.0197 23.6162H23.8906L24.8849 25.8966L26.2382 29H26.2521Z" fill="url(#paint2_radial_29067_48008)"/>
<path d="M10.4814 22.2265V22.2535H11.0338V18.4619H10.4814V22.24V22.2265Z" fill="url(#paint3_linear_29067_48008)"/>
<path d="M14.4592 20.1889C14.4592 20.1889 14.3764 20.0944 14.335 20.0539C14.2797 20 14.2107 19.946 14.1278 19.892C13.9207 19.7706 13.6721 19.7031 13.4373 19.7031C13.3959 19.7031 13.3545 19.7031 13.313 19.7031C13.244 19.7031 13.1749 19.7301 13.1059 19.7436C13.0507 19.7571 12.9954 19.7841 12.9402 19.8111L12.8159 19.9055C12.8159 19.9055 12.7607 19.946 12.733 19.973V19.7301H12.1807V23.3193H12.733V21.9835C12.733 21.9835 12.8159 22.051 12.8573 22.0779C13.0369 22.1994 13.244 22.2668 13.465 22.2668C13.7688 22.2668 14.0726 22.1589 14.3073 21.97L14.3626 21.9295C14.3626 21.9295 14.4592 21.8216 14.5007 21.7676C14.6802 21.5382 14.7769 21.2683 14.7769 20.9715C14.7769 20.7421 14.7216 20.4992 14.5973 20.2968C14.5559 20.2429 14.5145 20.1889 14.473 20.1349L14.4592 20.1889ZM12.9402 21.5517C12.9402 21.5517 12.8573 21.4572 12.8297 21.4168C12.8021 21.3763 12.7883 21.3223 12.7607 21.2683C12.7469 21.2009 12.733 21.1334 12.7192 21.0659V20.958C12.7192 20.958 12.7192 20.8501 12.7469 20.7961C12.7745 20.7421 12.7883 20.7016 12.8021 20.6746C12.8159 20.6342 12.8435 20.6072 12.8573 20.5667C12.885 20.5262 12.9264 20.4722 12.9678 20.4453C13.023 20.4048 13.0783 20.3643 13.1335 20.3238C13.2302 20.2833 13.3269 20.2563 13.4373 20.2563H13.465C13.6307 20.2563 13.7826 20.3103 13.9207 20.4183C13.9621 20.4453 13.9897 20.4722 14.0173 20.5127C14.1416 20.6611 14.2107 20.8366 14.2107 21.0255C14.2107 21.1064 14.2107 21.1739 14.1692 21.2548C14.1416 21.3628 14.0726 21.4572 14.0035 21.5517C13.9759 21.5922 13.9345 21.6192 13.9069 21.6462C13.7826 21.7406 13.6307 21.7946 13.4788 21.7946H13.4511C13.3545 21.7946 13.2578 21.7676 13.1611 21.7271L13.0507 21.6596C13.0507 21.6596 12.9816 21.6057 12.954 21.5652L12.9402 21.5517Z" fill="url(#paint4_linear_29067_48008)"/>
<path d="M16.9172 19.7573H16.8896C16.793 19.7573 16.6963 19.7573 16.5996 19.7843C16.4892 19.8112 16.3787 19.8517 16.282 19.9057V18.4619H15.7158V22.2535H16.282V20.7558C16.282 20.5804 16.3372 20.4589 16.4477 20.3914C16.5858 20.324 16.7377 20.2835 16.8896 20.297H16.9311C17.0277 20.297 17.1244 20.3105 17.2072 20.351C17.2901 20.378 17.3592 20.4319 17.4006 20.4994C17.442 20.5669 17.4696 20.6613 17.4558 20.7423V22.24H17.4696L17.9806 22.2535H17.9944V20.7423C17.9944 20.5804 17.9668 20.4184 17.8977 20.27C17.7044 19.9327 17.373 19.7573 16.9172 19.7573Z" fill="url(#paint5_linear_29067_48008)"/>
<path d="M21.5295 19.7571H21.0047V20C20.9081 19.9055 20.7976 19.8246 20.6733 19.7841C20.549 19.7436 20.4109 19.7031 20.2866 19.7031C19.969 19.7031 19.6652 19.8111 19.4305 20.0135C19.1681 20.2429 19.0162 20.5667 18.9885 20.904C18.9609 21.2414 19.0714 21.5787 19.2924 21.8486C19.4166 21.997 19.5685 22.1049 19.7343 22.1859C19.9 22.2668 20.0933 22.3073 20.2866 22.3073C20.4247 22.3073 20.549 22.2938 20.6871 22.2399C20.8114 22.1859 20.9219 22.1184 21.0185 22.024V22.2264H21.0462H21.5433H21.5709V19.7571C21.5709 19.7571 21.5709 19.7571 21.5709 19.7436C21.5709 19.7436 21.5709 19.7436 21.5571 19.7436L21.5295 19.7571ZM19.5271 21.012C19.5271 20.8366 19.5824 20.6746 19.6928 20.5262C19.7619 20.4453 19.8447 20.3778 19.9414 20.3238C20.0381 20.2698 20.1485 20.2563 20.2452 20.2429H20.2866C20.4109 20.2429 20.549 20.2833 20.6595 20.3508C20.77 20.4183 20.8528 20.5127 20.9219 20.6342C20.9771 20.7421 21.0185 20.877 21.0185 20.9985C21.0185 21.1064 21.0047 21.2009 20.9633 21.2953C20.9219 21.3898 20.8666 21.4842 20.7838 21.5517C20.6457 21.6731 20.48 21.7406 20.3005 21.7406H20.2452C20.1209 21.7406 19.9966 21.7001 19.8862 21.6327C19.7757 21.5652 19.6928 21.4707 19.6376 21.3493C19.5824 21.2414 19.5409 21.1064 19.5409 20.985L19.5271 21.012Z" fill="url(#paint6_linear_29067_48008)"/>
<path d="M25.8659 18.3809H25.2859L25.2307 18.4348V21.093C24.3193 19.7707 23.6978 18.8666 23.394 18.4213L23.3664 18.3809H22.745L22.6621 18.4213V22.2534L22.6897 22.2804C22.6897 22.2804 22.7173 22.2939 22.7312 22.3074C22.7312 22.3074 22.7588 22.3074 22.7726 22.3074H23.2973L23.3526 22.2534V19.5953C23.6978 20.0945 23.9602 20.4858 24.1535 20.7557C24.7473 21.6327 25.1064 22.159 25.2031 22.2804L25.2307 22.3209H25.8659L25.9212 22.2669V18.4483L25.8659 18.3944V18.3809Z" fill="url(#paint7_linear_29067_48008)"/>
<path d="M28.7654 18.3809C28.3649 18.3809 27.9782 18.5023 27.6468 18.7452C27.5777 18.7992 27.5087 18.8531 27.4673 18.8801C27.2601 19.069 27.1082 19.2984 26.9977 19.5548C26.8873 19.8111 26.832 20.0675 26.832 20.3509C26.832 20.7422 26.9425 21.1065 27.1358 21.4168C27.2325 21.5653 27.343 21.7002 27.4673 21.8216C27.8263 22.1455 28.2958 22.3209 28.7792 22.3209C29.2625 22.3209 29.732 22.132 30.0773 21.8081C30.4639 21.4438 30.6849 20.9446 30.6987 20.4183C30.7125 19.8921 30.5192 19.3794 30.1601 19.0015C29.9806 18.8126 29.7596 18.6642 29.5249 18.5563C29.2901 18.4483 29.0277 18.3944 28.7516 18.3944L28.7654 18.3809ZM30.0082 20.3374V20.3644C30.0082 20.6342 29.9116 20.9041 29.7596 21.12C29.4835 21.4573 29.1658 21.6327 28.7792 21.6327C28.4754 21.6327 28.1992 21.5248 27.9782 21.3359C27.7297 21.1065 27.5639 20.7962 27.5363 20.4723C27.5087 20.1485 27.6054 19.8111 27.8125 19.5413C28.0887 19.2174 28.4063 19.069 28.7792 19.069C28.9449 19.069 29.1106 19.1095 29.2625 19.177C29.4144 19.2444 29.5525 19.3389 29.663 19.4603C29.8839 19.7032 30.0082 20.0135 30.0082 20.3509V20.3374Z" fill="url(#paint8_linear_29067_48008)"/>
<path d="M8.35502 19.0286C8.13407 18.4619 8.13407 18.4619 8.10645 18.4619H7.6093C7.49883 18.7453 7.41597 18.9342 7.37454 19.0286L6.5874 20.9042H6.14549L6.43549 21.309C6.26978 21.7003 6.14549 22.0106 6.04883 22.2265V22.2535H6.62883C6.79454 21.8487 6.90502 21.5923 6.96026 21.4439H8.75549C8.86597 21.7138 8.96264 21.9297 9.01788 22.0646C9.08692 22.2535 9.10073 22.2535 9.11454 22.2535H9.70835L8.35502 19.0286ZM7.19502 20.9042C7.37454 20.4724 7.51264 20.1621 7.59549 19.9462C7.76121 19.5549 7.83026 19.366 7.85788 19.2985C8.1893 20.0811 8.41026 20.6208 8.52073 20.9042H7.18121H7.19502Z" fill="url(#paint9_linear_29067_48008)"/>
<path d="M35.021 22.1726C34.3443 21.2686 33.8886 20.6479 33.64 20.3106L33.4053 20.0002H33.861C34.3995 19.2716 34.7586 18.7993 34.9381 18.543V18.516L34.9519 18.3945H34.1648L34.1372 18.435C33.6262 19.1367 33.2948 19.5819 33.1567 19.7843L32.1624 18.435L32.1348 18.3945H31.2648L31.3753 18.543C32.0105 19.393 32.4524 19.9867 32.6872 20.3106C31.9829 21.2551 31.5272 21.8758 31.2924 22.1861L31.251 22.2536L31.3338 22.3346H32.0657L32.0934 22.2941C32.6043 21.6059 32.9634 21.1067 33.1705 20.8233C33.2119 20.8908 33.281 20.9852 33.3915 21.1337C34.22 22.2806 34.2476 22.2941 34.2615 22.3076L34.2891 22.3346H35.0624V22.1861L35.021 22.1726Z" fill="url(#paint10_linear_29067_48008)"/>
</g>
</g>
<circle cx="20.0352" cy="20" r="19.5" stroke="black" stroke-opacity="0.05"/>
<defs>
<radialGradient id="paint0_radial_29067_48008" cx="0" cy="0" r="1" gradientUnits="userSpaceOnUse" gradientTransform="translate(26.0231 21.3056) scale(13.5227 13.213)">
<stop stop-color="#BBC6E5"/>
<stop offset="0.24" stop-color="#939CCE"/>
<stop offset="0.31" stop-color="#8790C7"/>
<stop offset="0.56" stop-color="#908DC4"/>
<stop offset="0.67" stop-color="#958BC2"/>
<stop offset="0.89" stop-color="#90B1D7"/>
<stop offset="1" stop-color="#ACDCE7"/>
</radialGradient>
<radialGradient id="paint1_radial_29067_48008" cx="0" cy="0" r="1" gradientUnits="userSpaceOnUse" gradientTransform="translate(32.6273 32.7587) scale(13.5227 13.213)">
<stop stop-color="#BBC6E5"/>
<stop offset="0.24" stop-color="#939CCE"/>
<stop offset="0.31" stop-color="#8790C7"/>
<stop offset="0.56" stop-color="#908DC4"/>
<stop offset="0.67" stop-color="#958BC2"/>
<stop offset="0.89" stop-color="#90B1D7"/>
<stop offset="1" stop-color="#ACDCE7"/>
</radialGradient>
<radialGradient id="paint2_radial_29067_48008" cx="0" cy="0" r="1" gradientUnits="userSpaceOnUse" gradientTransform="translate(32.6275 32.7586) scale(13.5227 13.213)">
<stop stop-color="#BBC6E5"/>
<stop offset="0.24" stop-color="#939CCE"/>
<stop offset="0.31" stop-color="#8790C7"/>
<stop offset="0.56" stop-color="#908DC4"/>
<stop offset="0.67" stop-color="#958BC2"/>
<stop offset="0.89" stop-color="#90B1D7"/>
<stop offset="1" stop-color="#ACDCE7"/>
</radialGradient>
<linearGradient id="paint3_linear_29067_48008" x1="5.28907" y1="20.351" x2="35.5871" y2="20.351" gradientUnits="userSpaceOnUse">
<stop/>
<stop offset="0.24" stop-color="#000103"/>
<stop offset="0.41" stop-color="#00050C"/>
<stop offset="0.55" stop-color="#000C1B"/>
<stop offset="0.68" stop-color="#001630"/>
<stop offset="0.79" stop-color="#00224C"/>
<stop offset="0.91" stop-color="#00316E"/>
<stop offset="1" stop-color="#004191"/>
</linearGradient>
<linearGradient id="paint4_linear_29067_48008" x1="5.28971" y1="21.5382" x2="35.5878" y2="21.5382" gradientUnits="userSpaceOnUse">
<stop/>
<stop offset="0.24" stop-color="#000103"/>
<stop offset="0.41" stop-color="#00050C"/>
<stop offset="0.55" stop-color="#000C1B"/>
<stop offset="0.68" stop-color="#001630"/>
<stop offset="0.79" stop-color="#00224C"/>
<stop offset="0.91" stop-color="#00316E"/>
<stop offset="1" stop-color="#004191"/>
</linearGradient>
<linearGradient id="paint5_linear_29067_48008" x1="-0.247986" y1="20.351" x2="30.0501" y2="20.351" gradientUnits="userSpaceOnUse">
<stop/>
<stop offset="0.24" stop-color="#000103"/>
<stop offset="0.41" stop-color="#00050C"/>
<stop offset="0.55" stop-color="#000C1B"/>
<stop offset="0.68" stop-color="#001630"/>
<stop offset="0.79" stop-color="#00224C"/>
<stop offset="0.91" stop-color="#00316E"/>
<stop offset="1" stop-color="#004191"/>
</linearGradient>
<linearGradient id="paint6_linear_29067_48008" x1="5.2895" y1="21.012" x2="35.5876" y2="21.012" gradientUnits="userSpaceOnUse">
<stop/>
<stop offset="0.24" stop-color="#000103"/>
<stop offset="0.41" stop-color="#00050C"/>
<stop offset="0.55" stop-color="#000C1B"/>
<stop offset="0.68" stop-color="#001630"/>
<stop offset="0.79" stop-color="#00224C"/>
<stop offset="0.91" stop-color="#00316E"/>
<stop offset="1" stop-color="#004191"/>
</linearGradient>
<linearGradient id="paint7_linear_29067_48008" x1="-0.247887" y1="20.3509" x2="30.0502" y2="20.3509" gradientUnits="userSpaceOnUse">
<stop/>
<stop offset="0.24" stop-color="#000103"/>
<stop offset="0.41" stop-color="#00050C"/>
<stop offset="0.55" stop-color="#000C1B"/>
<stop offset="0.68" stop-color="#001630"/>
<stop offset="0.79" stop-color="#00224C"/>
<stop offset="0.91" stop-color="#00316E"/>
<stop offset="1" stop-color="#004191"/>
</linearGradient>
<linearGradient id="paint8_linear_29067_48008" x1="-0.248445" y1="20.3509" x2="30.0497" y2="20.3509" gradientUnits="userSpaceOnUse">
<stop/>
<stop offset="0.24" stop-color="#000103"/>
<stop offset="0.41" stop-color="#00050C"/>
<stop offset="0.55" stop-color="#000C1B"/>
<stop offset="0.68" stop-color="#001630"/>
<stop offset="0.79" stop-color="#00224C"/>
<stop offset="0.91" stop-color="#00316E"/>
<stop offset="1" stop-color="#004191"/>
</linearGradient>
<linearGradient id="paint9_linear_29067_48008" x1="-0.248315" y1="20.351" x2="30.0498" y2="20.351" gradientUnits="userSpaceOnUse">
<stop/>
<stop offset="0.24" stop-color="#000103"/>
<stop offset="0.41" stop-color="#00050C"/>
<stop offset="0.55" stop-color="#000C1B"/>
<stop offset="0.68" stop-color="#001630"/>
<stop offset="0.79" stop-color="#00224C"/>
<stop offset="0.91" stop-color="#00316E"/>
<stop offset="1" stop-color="#004191"/>
</linearGradient>
<linearGradient id="paint10_linear_29067_48008" x1="-0.248551" y1="20.3511" x2="30.0495" y2="20.3511" gradientUnits="userSpaceOnUse">
<stop/>
<stop offset="0.24" stop-color="#000103"/>
<stop offset="0.41" stop-color="#00050C"/>
<stop offset="0.55" stop-color="#000C1B"/>
<stop offset="0.68" stop-color="#001630"/>
<stop offset="0.79" stop-color="#00224C"/>
<stop offset="0.91" stop-color="#00316E"/>
<stop offset="1" stop-color="#004191"/>
</linearGradient>
<clipPath id="clip0_29067_48008">
<rect width="29" height="18" fill="white" transform="translate(6.03516 11)"/>
</clipPath>
</defs>
</svg>
