<svg width="40" height="40" viewBox="0 0 40 40" fill="none" xmlns="http://www.w3.org/2000/svg">
<circle cx="20" cy="20" r="20" fill="#53AA49"/>
<g clip-path="url(#clip0_18553_55646)">
<path d="M20.1909 26.8245C18.3666 26.1145 16.4193 25.7146 14.4311 25.6044C13.7792 25.5677 13.1643 25.5636 12.5781 25.584C11.0981 25.6411 9.65097 25.837 8.23662 26.1716C7.4905 26.3471 6.78948 26.5593 6.13355 26.8C6.11715 26.8082 6.10075 26.8123 6.08435 26.8204C6.05155 26.8367 6.03516 26.8286 6.03516 26.7919V14.3095C6.03516 14.3095 6.04336 14.281 6.05565 14.2769C6.37542 14.1504 6.70338 14.0321 7.02725 13.93C9.16722 13.269 11.4384 12.9589 13.6931 13.0038C15.8946 13.0487 18.0264 13.4322 20.0884 14.1586C20.3959 14.2647 20.5476 14.3218 20.5476 14.3218C22.4826 14.9787 24.475 15.3378 26.5248 15.399C26.9552 15.4113 27.5087 15.4113 27.9883 15.395C29.4518 15.3378 30.8908 15.1379 32.3051 14.7951C32.875 14.6564 33.4407 14.485 33.9983 14.2851C34.0188 14.2769 34.0311 14.2851 34.0311 14.3055V26.8245C34.0311 26.8245 34.0311 26.8286 34.027 26.8327C33.9983 26.849 33.9696 26.8612 33.9409 26.8735C33.699 26.9592 33.4366 27.0408 33.1538 27.1224C31.3581 27.6324 29.5215 27.9222 27.6439 27.9956C27.4759 28.0038 27.2996 28.0038 27.111 28.0079C26.8199 28.0079 26.533 28.0079 26.2419 28.0038C25.7417 27.9997 25.176 27.9589 24.5365 27.8895C23.0155 27.7222 21.5643 27.3672 20.1868 26.8327L20.1909 26.8245ZM11.9221 21.5157C11.9221 21.4913 11.9344 21.479 11.959 21.479C12.2501 21.479 12.5289 21.479 12.7994 21.479C13.5865 21.4709 14.263 20.9404 14.4516 20.1773C14.4803 20.0631 14.4966 19.9284 14.4966 19.7693C14.4966 19.5693 14.4966 19.4224 14.4844 19.3245C14.4598 19.1082 14.3983 18.9083 14.2917 18.7206C14.0334 18.2595 13.6398 17.9738 13.1151 17.8637C12.9962 17.8392 12.8281 17.8269 12.615 17.8269C11.9344 17.8269 11.2703 17.8269 10.6308 17.8269C10.6226 17.8269 10.6144 17.831 10.6144 17.8433V23.1806C10.6144 23.1806 10.6226 23.201 10.6349 23.201H11.9016C11.9016 23.201 11.9221 23.1928 11.9221 23.1806V21.5157ZM16.0586 23.201C16.0586 23.201 16.0791 23.1928 16.0791 23.1847L16.2308 22.5563C16.2308 22.5563 16.2431 22.54 16.2513 22.54H17.9198C17.9198 22.54 17.9403 22.5481 17.9403 22.5563L18.1043 23.1847C18.1043 23.1847 18.1166 23.201 18.1248 23.201H19.412C19.412 23.201 19.4325 23.1928 19.4325 23.1806C19.4325 23.1806 19.4325 23.1765 19.4325 23.1724L17.9157 17.8433C17.9157 17.8433 17.9034 17.8269 17.8952 17.8269H16.2841C16.2841 17.8269 16.2636 17.8351 16.2636 17.8433L14.7467 23.1724C14.7467 23.1724 14.7467 23.1969 14.7631 23.201C14.7631 23.201 14.7631 23.201 14.7713 23.201H16.0586ZM23.4911 21.2464C23.983 20.9526 24.2659 20.5201 24.3397 19.957C24.3561 19.8305 24.3479 19.6999 24.3479 19.5775C24.3643 18.7369 23.7781 18.0228 22.954 17.8637C22.8475 17.8433 22.6712 17.8351 22.4252 17.831C21.7693 17.831 21.1174 17.831 20.4779 17.831C20.4656 17.831 20.4574 17.8392 20.4574 17.8514V23.1806C20.4574 23.1806 20.4656 23.201 20.4779 23.201H21.7488C21.7488 23.201 21.7611 23.1928 21.7611 23.1888V21.4994C21.7611 21.4994 21.7693 21.479 21.7816 21.479H22.1915C22.1915 21.479 22.2161 21.4831 22.2202 21.4953L22.9745 23.1765C22.9745 23.1765 22.995 23.201 23.0114 23.201H24.3356C24.3356 23.201 24.3438 23.1969 24.3438 23.1928L23.4788 21.2668C23.4788 21.2668 23.4788 21.2505 23.4829 21.2464H23.4911ZM28.0621 21.3036C27.9473 22.1115 26.7871 22.0544 26.7871 21.2179C26.7871 20.7568 26.7871 20.2385 26.7789 19.6673C26.7789 19.6183 26.7789 19.5653 26.7789 19.5163C26.7748 18.945 26.7707 18.386 26.7707 17.8433C26.7707 17.8351 26.7666 17.831 26.7584 17.831H25.4179C25.4179 17.831 25.3974 17.8392 25.3974 17.8514C25.3974 18.9001 25.3974 19.957 25.3974 21.0261C25.3974 21.2464 25.4056 21.4219 25.4261 21.5484C25.4917 21.9605 25.6639 22.3155 25.9344 22.6175C26.6641 23.4173 27.8653 23.4866 28.6893 22.8256C29.0911 22.4991 29.3494 22.0299 29.4231 21.5198C29.4354 21.4382 29.4354 21.3566 29.4395 21.275C29.4395 21.2179 29.4436 21.1607 29.4436 21.1036C29.4436 20.0345 29.4436 18.9491 29.4436 17.8596C29.4436 17.8433 29.4354 17.8351 29.4191 17.8351H28.0908C28.0908 17.8351 28.0703 17.8433 28.0703 17.8555C28.0703 18.8634 28.0703 19.9325 28.0703 21.075C28.0703 21.1526 28.0662 21.2342 28.0539 21.3117L28.0621 21.3036Z" fill="white"/>
<path d="M11.926 18.8923C11.926 18.8923 11.9383 18.8638 11.9547 18.8638H12.4302C12.8484 18.8638 13.1886 19.1984 13.1886 19.6023V19.6962C13.1886 20.1042 12.8443 20.4307 12.4261 20.4307H11.9506C11.9506 20.4307 11.9219 20.4144 11.9219 20.398V18.8923H11.926Z" fill="white"/>
<path d="M21.7738 18.8883C21.7738 18.8883 21.7861 18.8638 21.7984 18.8638H22.2904C22.7126 18.8679 23.0529 19.2106 23.0529 19.6309V19.6717C23.0529 20.092 22.7044 20.4307 22.2822 20.4266H21.7902C21.7902 20.4266 21.7656 20.4144 21.7656 20.4021L21.7738 18.8842V18.8883Z" fill="white"/>
<path d="M16.5381 21.4712L17.0874 19.3615C17.0874 19.3615 17.0956 19.3493 17.1038 19.3534C17.1079 19.3534 17.112 19.3575 17.112 19.3615L17.6532 21.4752C17.6532 21.4752 17.6532 21.4875 17.645 21.4916H16.5586C16.5586 21.4916 16.5463 21.4834 16.5463 21.4793L16.5381 21.4712Z" fill="white"/>
</g>
<circle cx="20" cy="20" r="19.5" stroke="black" stroke-opacity="0.05"/>
<defs>
<clipPath id="clip0_18553_55646">
<rect width="28" height="15" fill="white" transform="translate(6.03516 13)"/>
</clipPath>
</defs>
</svg>
