<svg width="40" height="40" viewBox="0 0 40 40" fill="none" xmlns="http://www.w3.org/2000/svg">
<circle cx="20" cy="20" r="20" fill="#C00C3F"/>
<path d="M19.9914 9H20.0181L28.9742 15.3334C28.9822 15.3392 28.9887 15.3466 28.9932 15.3551C28.9977 15.3635 29 15.3728 29 15.382V17.3903C29 17.395 28.9988 17.3996 28.9963 17.4036C28.9938 17.4076 28.9902 17.4109 28.986 17.413C28.9817 17.4152 28.9769 17.4161 28.9721 17.4157C28.9674 17.4153 28.9628 17.4137 28.9589 17.4109L23.5868 13.6187C23.5827 13.6157 23.5777 13.614 23.5725 13.614C23.5673 13.614 23.5623 13.6157 23.5582 13.6187L17.6206 17.7185C17.6158 17.7219 17.612 17.7263 17.6093 17.7314C17.6067 17.7365 17.6053 17.7422 17.6053 17.7479C17.6053 17.7537 17.6067 17.7593 17.6093 17.7645C17.612 17.7696 17.6158 17.774 17.6206 17.7774L28.9456 25.7732C28.9502 25.7763 28.954 25.7805 28.9566 25.7854C28.9592 25.7903 28.9605 25.7957 28.9605 25.8013C28.9605 25.8069 28.9592 25.8124 28.9566 25.8174C28.954 25.8225 28.9502 25.8268 28.9456 25.8302L20.0134 32H19.9904L11 25.6498V23.5611L16.3893 27.3673C16.3993 27.3744 16.4113 27.3782 16.4238 27.3782C16.4363 27.3782 16.4486 27.3744 16.459 27.3673L22.3823 23.2787C22.3866 23.2758 22.3902 23.2719 22.3926 23.2673C22.3951 23.2627 22.3963 23.2577 22.3963 23.2525C22.3963 23.2474 22.3951 23.2423 22.3926 23.2377C22.3902 23.2332 22.3866 23.2293 22.3823 23.2263L11.042 15.2203C11.0387 15.218 11.0359 15.2149 11.0341 15.2113C11.0322 15.2077 11.0312 15.2037 11.0312 15.1997C11.0312 15.1957 11.0322 15.1917 11.0341 15.1881C11.0359 15.1846 11.0387 15.1815 11.042 15.1791L19.9914 9Z" fill="white"/>
<circle cx="20" cy="20" r="19.5" stroke="black" stroke-opacity="0.05"/>
</svg>
