<svg width="40" height="40" viewBox="0 0 40 40" fill="none" xmlns="http://www.w3.org/2000/svg">
<circle cx="20" cy="20" r="20" fill="#0B4199"/>
<g clip-path="url(#clip0_24563_41702)">
<path d="M4.73567 16.4736H3.05052C3.04204 16.4736 3.03516 16.4811 3.03516 16.4902V23.7438C3.03516 23.753 3.04204 23.7605 3.05052 23.7605H4.73567C4.74415 23.7605 4.75103 23.753 4.75103 23.7438V16.4902C4.75103 16.4811 4.74415 16.4736 4.73567 16.4736Z" fill="white"/>
<path d="M37.0247 16.4736H35.3242C35.3186 16.4736 35.314 16.4786 35.314 16.4847V23.7494C35.314 23.7555 35.3186 23.7605 35.3242 23.7605H37.0247C37.0304 23.7605 37.035 23.7555 37.035 23.7494V16.4847C37.035 16.4786 37.0304 16.4736 37.0247 16.4736Z" fill="white"/>
<path d="M8.74607 21.1082C8.74607 21.1082 8.75631 21.1193 8.76143 21.1193C8.76143 21.1193 8.76655 21.1193 8.76655 21.1137L9.34534 19.9177C9.34534 19.9177 9.35046 19.89 9.34534 19.8734C9.15071 19.5412 8.89973 19.1425 8.85875 18.7494C8.79216 18.096 9.20705 17.5479 9.82681 17.5479C10.1905 17.5479 10.508 17.7306 10.6668 18.096C10.9434 18.7273 10.5951 19.364 10.2878 19.8845C10.2776 19.9011 10.2776 19.9177 10.2878 19.9399L10.8768 21.1082C10.8768 21.1082 10.8871 21.1193 10.8973 21.1137C10.8973 21.1137 10.8973 21.1137 10.9024 21.1082L12.0959 17.6309C12.0959 17.6309 12.1164 17.6032 12.1317 17.6032L12.9512 17.6143C12.9512 17.6143 12.9717 17.6254 12.9717 17.6364C12.9717 17.6364 12.9717 17.642 12.9717 17.6475L11.3993 22.0163C11.3993 22.0163 11.3839 22.0384 11.3737 22.0384H10.5849C10.5849 22.0384 10.549 22.0274 10.5439 22.0108L9.85242 20.6597C9.85242 20.6597 9.83706 20.6486 9.83194 20.6542C9.83194 20.6542 9.83194 20.6542 9.82681 20.6597L9.1251 22.0108C9.1251 22.0108 9.10461 22.0384 9.08412 22.0384H8.29533C8.29533 22.0384 8.25947 22.0274 8.25435 22.0108L6.68701 17.6531C6.68701 17.6531 6.68701 17.6198 6.7075 17.6198L7.51678 17.5921C7.51678 17.5921 7.56288 17.6088 7.568 17.6309L8.75119 21.1248L8.74607 21.1082ZM9.73974 18.2677C9.32485 18.4559 9.67827 19.0318 9.82169 19.2699C9.83193 19.2865 9.84218 19.2865 9.85242 19.2699C9.9856 19.0207 10.3032 18.5058 9.9395 18.2787C9.87803 18.24 9.81145 18.2345 9.73974 18.2677Z" fill="white"/>
<path d="M16.5725 21.9664C16.1986 21.8114 16.1116 21.4293 16.1064 21.0418C16.1064 19.9454 16.1064 18.7937 16.1064 17.5977C16.1064 17.5755 16.1167 17.5645 16.1372 17.5645H16.8338C16.8594 17.5645 16.8747 17.5755 16.8747 17.6032C16.8747 18.7383 16.8747 19.8513 16.8747 20.9421C16.8747 21.2743 17.1462 21.3906 17.4126 21.3186C17.4279 21.3186 17.4433 21.3241 17.4433 21.3408C17.4433 21.3408 17.4433 21.3408 17.4433 21.3463V21.9332C17.4433 21.9332 17.4279 21.9775 17.4074 21.9831C17.1052 22.0827 16.8235 22.0772 16.5725 21.972V21.9664Z" fill="white"/>
<path d="M18.647 20.1946L19.784 18.7771C19.784 18.7771 19.7892 18.7715 19.7943 18.7715H20.578C20.578 18.7715 20.5933 18.7771 20.5933 18.7882C20.5933 18.7882 20.5933 18.7937 20.5933 18.7992L19.5177 20.1447C19.5177 20.1447 19.5177 20.1558 19.5177 20.1669L20.6753 21.9997C20.6753 21.9997 20.6753 22.0163 20.6753 22.0218C20.6753 22.0218 20.6701 22.0218 20.665 22.0218H19.8814C19.8814 22.0218 19.8711 22.0218 19.8711 22.0163L19.0362 20.6486C19.0362 20.6486 19.0209 20.6375 19.0157 20.6486L18.6316 21.0639C18.6316 21.0639 18.6316 21.0694 18.6316 21.075V22.0107C18.6316 22.0107 18.6265 22.0274 18.6162 22.0274H17.8786C17.8786 22.0274 17.8633 22.0218 17.8633 22.0107V17.5811C17.8633 17.5811 17.8684 17.5645 17.8786 17.5645H18.6162C18.6162 17.5645 18.6316 17.5645 18.6316 17.5755V20.189C18.6316 20.189 18.6367 20.2056 18.647 20.2056C18.647 20.2056 18.6572 20.2056 18.6572 20.2001L18.647 20.1946Z" fill="white"/>
<path d="M32.3688 21.4127C32.4815 21.4072 32.6198 21.3573 32.6864 21.2521C32.8503 20.9974 32.5686 20.8369 32.379 20.7926C32.1537 20.7427 31.9386 20.6818 31.7234 20.6154C31.3188 20.488 31.0012 20.2721 31.0115 19.7571C31.0115 19.508 31.0883 19.2975 31.2317 19.1204C31.5903 18.6829 32.1895 18.6276 32.6966 18.766C32.9425 18.8324 33.1883 18.9432 33.4188 19.1038C33.4342 19.1148 33.4342 19.1314 33.4291 19.148L33.1166 19.6685C33.1166 19.6685 33.0961 19.6851 33.0859 19.6741C32.84 19.5024 32.5839 19.3972 32.3176 19.364C32.1332 19.3363 31.8566 19.3751 31.7798 19.5855C31.6876 19.8402 31.9539 19.9399 32.1332 19.9952C32.5173 20.1115 32.9169 20.1946 33.2447 20.4382C33.4086 20.56 33.5008 20.7372 33.511 20.9587C33.5571 21.7394 32.9783 22.0938 32.3278 22.1049C31.8464 22.1104 31.2829 21.9775 30.8732 21.673C30.8578 21.6619 30.8578 21.6453 30.8629 21.6287L31.1651 21.0694C31.1651 21.0694 31.1907 21.0473 31.2061 21.0583C31.5646 21.3131 31.9386 21.4515 32.3586 21.4238L32.3688 21.4127Z" fill="white"/>
<path d="M13.4019 20.6816C13.4019 20.6816 13.3917 20.7314 13.4019 20.7591C13.5095 21.2076 13.7605 21.4402 14.1498 21.4568C14.4468 21.4679 14.6825 21.335 14.8566 21.0526C14.8668 21.036 14.8771 21.036 14.8925 21.036L15.4866 21.2187C15.4866 21.2187 15.5173 21.2464 15.5122 21.263C15.5122 21.263 15.5122 21.2685 15.5122 21.2741C15.1588 21.9496 14.5083 22.1822 13.822 22.0603C13.0127 21.9164 12.5261 21.0913 12.5978 20.2386C12.6593 19.5133 13.0844 18.9319 13.7451 18.7547C14.5032 18.5498 15.2971 18.9153 15.5839 19.7237C15.6813 20.0061 15.7171 20.3051 15.6864 20.6318C15.6864 20.6484 15.671 20.6594 15.6556 20.6594H13.4327C13.4327 20.6594 13.4122 20.665 13.4122 20.6761L13.4019 20.6816ZM13.4019 20.1168H14.8925C14.8925 20.1168 14.8976 20.1168 14.8976 20.1113C14.8976 19.6738 14.5646 19.325 14.1498 19.325H14.1446C13.7298 19.325 13.3968 19.6738 13.3968 20.1113C13.3968 20.1113 13.3968 20.1224 13.4019 20.1224V20.1168Z" fill="white"/>
<path d="M21.4437 20.6654C21.4078 20.6654 21.3925 20.6876 21.3976 20.7263C21.4642 21.0918 21.6486 21.3299 21.9559 21.4296C22.2837 21.5348 22.6781 21.3853 22.8522 21.0641C22.8625 21.0475 22.8779 21.042 22.8983 21.042L23.5027 21.2247C23.5027 21.2247 23.5232 21.2413 23.5181 21.2579C23.1749 21.9168 22.5603 22.1605 21.8893 22.0663C21.2337 21.9777 20.7522 21.4572 20.619 20.754C20.5729 20.5049 20.5781 20.1948 20.6395 19.9512C20.7829 19.3642 21.1159 18.9766 21.6332 18.7884C21.9559 18.6721 22.3964 18.6721 22.7191 18.805C23.4362 19.0929 23.7588 19.8349 23.682 20.6322C23.682 20.6488 23.6666 20.6599 23.6513 20.6599H21.4488L21.4437 20.6654ZM21.3976 20.1173H22.8881H22.8932C22.8932 19.6798 22.5603 19.331 22.1505 19.331H22.1352C21.7254 19.331 21.3925 19.6798 21.3925 20.1117C21.3925 20.1117 21.3925 20.1173 21.3976 20.1173Z" fill="white"/>
<path d="M24.8087 20.6986C24.8189 20.8315 24.8548 20.9478 24.9163 21.0475C25.1211 21.3908 25.4131 21.5181 25.7921 21.424C25.997 21.3742 26.1558 21.2468 26.2685 21.0475C26.2787 21.0309 26.289 21.0253 26.3043 21.0309L26.9036 21.2136C26.9036 21.2136 26.9292 21.2357 26.9241 21.2579C26.9241 21.2579 26.9241 21.2579 26.9241 21.2634C26.7039 21.6898 26.3709 21.95 25.9355 22.0441C25.0443 22.2379 24.2197 21.7451 24.0353 20.7595C23.9636 20.3664 24.0148 19.9124 24.1889 19.5635C24.5116 18.9157 25.1211 18.6278 25.8075 18.7163C26.6987 18.8326 27.1956 19.7075 27.0982 20.6322C27.0982 20.6433 27.088 20.6543 27.0726 20.6543H24.8497C24.8497 20.6543 24.8189 20.6654 24.8189 20.6931L24.8087 20.6986ZM24.8087 20.1172H26.2992C26.2992 20.1172 26.3043 20.1172 26.3043 20.1117C26.3043 19.6743 25.9714 19.3254 25.5616 19.3254H25.5463C25.1365 19.3254 24.8036 19.6743 24.8036 20.1117C24.8036 20.1117 24.8036 20.1172 24.8087 20.1172Z" fill="white"/>
<path d="M28.3125 21.5734V23.2401C28.3125 23.2401 28.3023 23.2622 28.292 23.2622H27.5749C27.5749 23.2622 27.5493 23.2512 27.5493 23.2345V18.7938C27.5493 18.7938 27.5596 18.7606 27.58 18.7606H28.1896C28.1896 18.7606 28.2203 18.7716 28.2203 18.7938V19.2368C28.2203 19.2811 28.2305 19.2866 28.2562 19.2478C28.4866 18.9045 28.7888 18.7273 29.1628 18.7107C29.7979 18.683 30.305 19.1149 30.5098 19.7462C30.8325 20.7539 30.3511 22.2102 29.1474 22.0773C28.8042 22.0385 28.5379 21.8669 28.3381 21.5679C28.3227 21.5457 28.3176 21.5457 28.3176 21.5734H28.3125ZM29.1986 21.3519C29.6493 21.2467 29.8645 20.7207 29.8133 20.25C29.762 19.7739 29.3932 19.3586 28.9271 19.4472C28.5379 19.5191 28.3227 19.9123 28.3125 20.322C28.3125 20.4771 28.3279 20.6266 28.3688 20.7761C28.4713 21.1581 28.8247 21.4461 29.1986 21.3575V21.3519Z" fill="white"/>
<path d="M13.4432 25.0615H14.7032C14.7032 25.0615 14.7186 25.056 14.7186 25.0449V24.2808C14.7186 24.2808 14.7289 24.2642 14.7391 24.2642H15.0669C15.0669 24.2642 15.0823 24.2697 15.0823 24.2808V26.4513C15.0823 26.4624 15.0772 26.4679 15.0669 26.4679H14.734C14.734 26.4679 14.7186 26.4624 14.7186 26.4513V25.4879C14.7186 25.4768 14.7135 25.4712 14.7032 25.4712H13.4381C13.4381 25.4712 13.4227 25.4768 13.4227 25.4879V26.4513C13.4227 26.4513 13.4176 26.4679 13.4074 26.4679H13.0642C13.0642 26.4679 13.0488 26.4569 13.0488 26.4513V24.2863C13.0488 24.2863 13.0591 24.2697 13.0693 24.2697H13.4074C13.4074 24.2697 13.4227 24.2752 13.4227 24.2863V25.0504C13.4227 25.0504 13.4279 25.067 13.4381 25.067L13.4432 25.0615Z" fill="white"/>
<path d="M16.163 24.2588H15.8249C15.8164 24.2588 15.8096 24.2662 15.8096 24.2754V26.4459C15.8096 26.4551 15.8164 26.4626 15.8249 26.4626H16.163C16.1715 26.4626 16.1784 26.4551 16.1784 26.4459V24.2754C16.1784 24.2662 16.1715 24.2588 16.163 24.2588Z" fill="white"/>
<path d="M17.7048 24.6684H16.9109C16.9109 24.6684 16.8955 24.6628 16.8955 24.6518V24.2808C16.8955 24.2697 16.9006 24.2642 16.9109 24.2642H18.9136C18.9136 24.2642 18.929 24.2697 18.929 24.2808V24.6518C18.929 24.6628 18.9238 24.6684 18.9136 24.6684H18.1094C18.1094 24.6684 18.0941 24.6739 18.0941 24.685V26.4569C18.0941 26.4569 18.0889 26.4735 18.0787 26.4735H17.7355C17.7355 26.4735 17.7202 26.4624 17.7202 26.4513V24.6794C17.7202 24.6684 17.715 24.6628 17.7048 24.6628V24.6684Z" fill="white"/>
<path d="M20.0249 25.4991V25.859C20.0249 25.9752 20.1119 26.0694 20.2195 26.0694H21.6844C21.6844 26.0694 21.6946 26.0694 21.6946 26.0804V26.4459C21.6946 26.4459 21.6947 26.4625 21.6793 26.4625C21.2132 26.4625 20.7266 26.4625 20.2195 26.4625C19.8815 26.4625 19.6458 26.1967 19.651 25.8368C19.651 25.5101 19.651 25.1945 19.651 24.8789C19.651 24.7571 19.6715 24.6519 19.7227 24.5577C19.8456 24.3252 20.0351 24.2477 20.2758 24.2532C20.7573 24.2532 21.2234 24.2532 21.6742 24.2532C21.6895 24.2532 21.6946 24.2587 21.6946 24.2754V24.6463C21.6946 24.6463 21.6947 24.6629 21.6793 24.6629H20.2041C20.1273 24.6629 20.071 24.7017 20.0402 24.7737C20.0197 24.818 20.0095 24.8844 20.0095 24.973C20.0095 25.0284 20.03 25.0505 20.0812 25.0505H21.3054C21.3054 25.0505 21.3259 25.0616 21.3259 25.0782V25.4381C21.3259 25.4381 21.3207 25.4603 21.3054 25.4603H20.0454C20.0454 25.4603 20.0146 25.4714 20.0146 25.4935L20.0249 25.4991Z" fill="white"/>
<path d="M23.3493 26.075C23.6413 26.075 23.9384 26.075 24.2457 26.075C24.2559 26.075 24.2662 26.086 24.2662 26.0971V26.4404C24.2662 26.4404 24.2559 26.4681 24.2406 26.4681C23.9588 26.4681 23.6464 26.4681 23.3032 26.4681C23.1393 26.4681 22.9959 26.4459 22.8781 26.3961C22.2737 26.1359 22.0278 25.3385 22.4018 24.7461C22.6066 24.4194 22.9037 24.2588 23.293 24.2588C23.6054 24.2588 23.9179 24.2588 24.2406 24.2588C24.261 24.2588 24.2713 24.2699 24.2713 24.292V24.6353C24.2713 24.6353 24.261 24.663 24.2457 24.663C23.9845 24.663 23.7079 24.663 23.4108 24.663C23.2162 24.663 23.0727 24.6796 22.9754 24.7294C22.4786 24.9897 22.4683 25.7593 22.9857 26.003C23.083 26.0473 23.2059 26.075 23.3493 26.0694V26.075Z" fill="white"/>
<path d="M26.6322 25.4657H25.3671C25.3671 25.4657 25.3466 25.4768 25.3466 25.4879V26.4458C25.3466 26.4458 25.3466 26.4679 25.3312 26.4679H24.9931C24.9931 26.4679 24.9727 26.4624 24.9727 26.4513V24.2863C24.9727 24.2863 24.9829 24.2642 24.9931 24.2642H25.3261C25.3261 24.2642 25.3466 24.2752 25.3466 24.2863V25.0449C25.3466 25.0449 25.3517 25.067 25.3619 25.067H26.6219C26.6219 25.067 26.6424 25.056 26.6424 25.0449V24.2863C26.6424 24.2863 26.6527 24.2642 26.6629 24.2642H27.001C27.001 24.2642 27.0215 24.2752 27.0215 24.2863V26.4513C27.0215 26.4624 27.0112 26.4735 27.001 26.4735H26.6629C26.6629 26.4735 26.6424 26.4679 26.6424 26.4569V25.4934C26.6424 25.4934 26.6322 25.4712 26.6219 25.4712L26.6322 25.4657Z" fill="white"/>
</g>
<circle cx="20" cy="20" r="19.5" stroke="black" stroke-opacity="0.05"/>
<defs>
<clipPath id="clip0_24563_41702">
<rect width="34" height="10" fill="white" transform="translate(3.03516 16.4736)"/>
</clipPath>
</defs>
</svg>
