<svg width="40" height="40" viewBox="0 0 40 40" fill="none" xmlns="http://www.w3.org/2000/svg">
<circle cx="20" cy="20" r="20" fill="#201B57"/>
<g clip-path="url(#clip0_18066_47015)">
<path d="M18.3036 16.9763C18.3153 16.9776 18.3272 16.9788 18.3392 16.9803C18.7054 17.0361 18.986 17.3526 18.986 17.7348V22.6065H20.16V19.121L23.2674 22.6065H24.2451V16.7368H23.0711V20.3496L20.3044 17.2471C20.2594 17.1962 20.2106 17.1487 20.1597 17.1058C20.102 17.0561 20.041 17.0107 19.9775 16.9714C19.7368 16.8196 19.4555 16.7368 19.1654 16.7368H18.1641V16.9714H18.2012C18.2012 16.9714 18.268 16.972 18.3036 16.976V16.9763Z" fill="white"/>
<path d="M33.9981 22.3719C33.8521 22.3719 33.7092 22.3443 33.5767 22.294C33.3531 22.2075 33.1581 22.0545 33.0213 21.849L30.0314 17.3646C29.9265 17.2064 29.7913 17.0736 29.637 16.9717C29.41 16.8202 29.1398 16.7368 28.8592 16.7368H27.5156V16.9714H27.5527C27.699 16.9714 27.8416 16.999 27.9741 17.0496C28.1977 17.1358 28.3928 17.2892 28.5295 17.4946L29.7115 19.2673L31.5194 21.979C31.6249 22.1379 31.7602 22.2701 31.9138 22.3719C32.1411 22.5234 32.411 22.6065 32.6913 22.6065H34.0349V22.3719H33.9978H33.9981Z" fill="white"/>
<path d="M17.4004 16.7368H16.0957V22.6062H17.4004V16.7368Z" fill="white"/>
<path d="M26.8997 16.7368H25.5947V22.6062H26.8997V16.7368Z" fill="white"/>
<path d="M33.854 16.7368L29.1267 22.6065H27.6973L32.4221 16.7368H33.854Z" fill="white"/>
<path d="M10.1629 18.2891L9.40044 20.1961C9.40044 20.1961 8.27459 17.6003 8.2614 17.5739C8.13444 17.3233 7.94368 17.1166 7.71305 16.9716C7.47475 16.8216 7.19413 16.7369 6.90002 16.7369H6.03516V16.9716L6.07901 16.9771C6.36945 17.009 6.6243 17.1936 6.74299 17.4659V17.4672L8.97047 22.6067H9.6277L10.783 19.7189L12.0346 22.6067H12.6921L15.0395 16.7369H13.848L12.4646 20.1961L11.3712 17.6757C11.336 17.5941 11.3105 17.5469 11.3105 17.5469C10.8563 16.7164 10.0068 16.7363 9.97671 16.7369H9.09928V16.9716L9.14283 16.9771C9.43357 17.009 9.68812 17.1936 9.80681 17.4659L10.1632 18.2888L10.1629 18.2891Z" fill="white"/>
</g>
<circle cx="20" cy="20" r="19.5" stroke="black" stroke-opacity="0.05"/>
<defs>
<clipPath id="clip0_18066_47015">
<rect width="28" height="5.8697" fill="white" transform="translate(6.03516 16.7368)"/>
</clipPath>
</defs>
</svg>
