<svg width="40" height="40" viewBox="0 0 40 40" fill="none" xmlns="http://www.w3.org/2000/svg">
<circle cx="20" cy="20" r="20" fill="#1F1D1E"/>
<g clip-path="url(#clip0_18553_55962)">
<path d="M10.0205 17.5009C10.0274 15.2444 10.0343 12.7341 10.0343 9.97001C10.0343 9.90828 10.0343 9.86027 10.0205 9.8397C9.99311 9.77111 10.0137 9.73682 10.0823 9.73682C12.4828 9.73682 14.9451 9.73682 17.476 9.73682C17.6063 9.73682 17.7435 9.75739 17.8669 9.77797C17.9286 9.79169 17.9286 9.79854 17.8669 9.81226C17.6063 9.85341 17.3525 9.91514 17.1056 9.98373C15.2537 10.4844 13.4842 10.9577 11.8038 11.4035C11.7558 11.4172 11.7215 11.4446 11.7078 11.4926C11.6735 11.5887 11.6461 11.6847 11.6186 11.7807C11.4815 12.398 11.2894 12.981 11.1385 13.5914C11.0425 13.9755 10.919 14.339 10.8299 14.7162C10.6035 15.6422 10.3155 16.5612 10.0891 17.5077C10.0891 17.5283 10.0754 17.5352 10.0617 17.542C10.048 17.542 10.0274 17.542 10.0205 17.5215C10.0205 17.5215 10.0205 17.5215 10.0205 17.5146V17.5009Z" fill="white"/>
<path d="M28.2443 11.4035C28.1825 11.4035 28.1208 11.3898 28.0591 11.3692C26.2689 10.8822 24.4651 10.3953 22.6475 9.90828C22.4761 9.86027 22.3046 9.83284 22.1331 9.8054C22.0988 9.8054 22.0988 9.79169 22.1331 9.78483C22.2223 9.75739 22.3183 9.75053 22.4281 9.75053C24.9246 9.73682 27.4212 9.73682 29.9246 9.73682C29.9589 9.73682 29.9864 9.76425 29.9864 9.79854C29.9864 12.3088 29.9864 14.8123 30.0001 17.3088C30.0001 17.3706 30.0001 17.4254 30.0001 17.4872C30.0001 17.6175 29.9864 17.6243 29.9452 17.494C29.808 17.0139 29.664 16.5338 29.5337 16.0263C29.4377 15.649 29.3348 15.2649 29.225 14.874C29.1496 14.6065 29.0742 14.339 28.9987 14.0578C28.8615 13.5503 28.7244 13.029 28.5872 12.4872C28.5117 12.1922 28.4089 11.8424 28.2785 11.4309C28.2785 11.4103 28.258 11.4035 28.2374 11.3966L28.2443 11.4035Z" fill="white"/>
<path d="M14.362 15.6492C15.1158 15.6492 15.7268 15.0381 15.7268 14.2843C15.7268 13.5305 15.1158 12.9194 14.362 12.9194C13.6081 12.9194 12.9971 13.5305 12.9971 14.2843C12.9971 15.0381 13.6081 15.6492 14.362 15.6492Z" fill="#E36353"/>
<path d="M10 21.8013C10.0686 21.9248 10.1029 22.0071 10.1166 22.0619C10.2263 22.5146 10.3429 22.9742 10.4801 23.4268C10.6036 23.8521 10.6927 24.2773 10.8162 24.6888C11.0014 25.3198 11.1454 25.9508 11.3237 26.5681C11.454 27.0277 11.5706 27.4872 11.6735 27.933C11.6804 27.9673 11.7078 27.9947 11.7421 28.0084C12.7984 28.2965 13.8957 28.5914 15.0343 28.8932C15.5007 29.0167 15.9671 29.1401 16.4198 29.2567C16.9479 29.4008 17.4074 29.5311 17.7846 29.6477C17.8532 29.6683 17.8532 29.682 17.7846 29.682H10.0549C10.0549 29.682 10.0206 29.6683 10.0206 29.6477H10.0274C10.0274 27.2197 10.0274 24.7986 10.0274 22.3706C10.0274 22.254 10.0206 22.0619 10 21.7876V21.8013Z" fill="white"/>
<path d="M28.3196 27.9399C28.3882 27.5695 28.5254 27.2334 28.6145 26.8631C28.7791 26.1841 28.9918 25.4982 29.1564 24.8192C29.2455 24.442 29.369 24.0647 29.465 23.6944C29.6296 23.0565 29.7942 22.4529 29.9726 21.8768C29.9863 21.8425 29.9863 21.8425 29.9863 21.8768V29.6477C29.9863 29.6477 29.9726 29.6751 29.9588 29.6751H22.1193C22.1193 29.6751 22.0988 29.6751 22.0988 29.6683V29.6546C22.2359 29.634 22.3868 29.5997 22.5583 29.5585C24.321 29.0716 26.0905 28.5983 27.8669 28.1251C27.9904 28.0908 28.1138 28.0634 28.2373 28.0428C28.2853 28.0359 28.3196 27.9948 28.3265 27.9536L28.3196 27.9399Z" fill="white"/>
</g>
<circle cx="20" cy="20" r="19.5" stroke="black" stroke-opacity="0.05"/>
<defs>
<clipPath id="clip0_18553_55962">
<rect width="20" height="19.9451" fill="white" transform="translate(10 9.73682)"/>
</clipPath>
</defs>
</svg>
