<svg width="40" height="40" viewBox="0 0 40 40" fill="none" xmlns="http://www.w3.org/2000/svg">
<circle cx="20" cy="20" r="20" fill="#F6F8FA"/>
<path d="M20.8979 8.78406C20.8979 8.81886 20.915 8.83834 20.9493 8.8425C21.7058 8.93443 22.5036 9.1518 23.176 9.47435C25.1386 10.4178 26.5784 12.1397 27.0793 14.2721C27.5193 16.1451 27.2362 17.9471 26.2301 19.6783C26.2258 19.6858 26.2198 19.6922 26.2124 19.6968C26.2051 19.7014 26.1968 19.7041 26.1881 19.7047C26.1794 19.7053 26.1707 19.7038 26.1626 19.7003C26.1546 19.6968 26.1476 19.6914 26.1421 19.6845C25.8543 19.3267 25.5377 18.9963 25.1923 18.6935C25.1804 18.683 25.1722 18.6689 25.1693 18.6533C25.1663 18.6378 25.1687 18.6218 25.176 18.6078C25.8081 17.4002 25.9914 16.1303 25.726 14.798C25.4159 13.2444 24.4311 11.8654 23.0989 11.0661C21.7931 10.2818 20.393 10.0499 18.8987 10.3703C16.7211 10.8378 14.9954 12.6212 14.5638 14.7956C14.5435 14.8969 14.5001 14.9839 14.4337 15.0566C13.9278 15.6134 13.5034 16.2549 13.1606 16.981C13.1097 17.088 13.077 17.0828 13.0624 16.9655C12.7165 14.2378 13.8197 11.6434 16.0838 10.0618C17.0115 9.41358 18.089 9.00611 19.3163 8.83938C19.3475 8.83523 19.3654 8.81783 19.3701 8.78718C19.4121 8.51917 19.3537 8.30777 19.1948 8.15299C19.1247 8.08365 19.0358 8.07196 18.9657 8.01587C18.9423 7.99717 18.941 7.97717 18.9618 7.95587C19.1893 7.71513 19.4472 7.6193 19.7846 7.63255C20.0339 7.64241 20.2699 7.64241 20.4928 7.63255C20.5454 7.63012 20.598 7.63842 20.6473 7.65695C20.6967 7.67548 20.7418 7.70385 20.7799 7.74034C20.818 7.77683 20.8483 7.82068 20.869 7.86925C20.8896 7.91781 20.9003 7.97008 20.9002 8.02288L20.8979 8.78406Z" fill="#EB1C2E"/>
<path d="M20.9597 13.1329C21.3765 13.1952 21.8097 13.2599 22.2172 13.3838C23.2975 13.7141 24.261 14.2821 25.1077 15.0877C25.1788 15.1552 25.2186 15.2204 25.2269 15.2832C25.2939 15.7814 25.2954 16.2117 25.2315 16.5742C25.1921 16.797 25.1534 17.0313 25.1154 17.277C25.1035 17.3538 25.077 17.3593 25.036 17.2933C24.0917 15.7655 22.5561 14.7293 20.7665 14.5501C19.6539 14.4395 18.6167 14.6171 17.6547 15.083C16.2632 15.7577 15.1982 16.9848 14.7206 18.4441C14.0903 20.3692 14.5212 22.4183 15.8308 23.9415C16.6333 24.8748 17.6638 25.4903 18.9223 25.7879C19.7217 25.9765 20.7299 25.9663 21.5464 25.7451C23.0609 25.3348 24.2301 24.4559 25.0539 23.1086C25.0565 23.1042 25.0603 23.1007 25.0649 23.0986C25.0695 23.0965 25.0746 23.0958 25.0796 23.0966C25.0846 23.0975 25.0892 23.0998 25.0928 23.1033C25.0964 23.1069 25.0989 23.1114 25.0999 23.1164C25.2526 23.7386 25.3053 24.3666 25.258 25.0003C25.2461 25.1566 25.183 25.2872 25.0687 25.3921C23.4476 26.875 21.5378 27.5126 19.3392 27.3049C18.8281 27.2565 18.3297 27.1464 17.8441 26.9745C15.8651 26.2757 14.3474 24.8701 13.5356 22.9364C13.4333 22.6928 13.352 22.4609 13.2917 22.2407C12.7505 20.2498 12.9726 18.3846 13.9579 16.6451C14.8422 15.0854 16.3162 13.9401 18.0232 13.3939C18.4362 13.2622 18.8966 13.189 19.3259 13.1337C19.3364 13.1323 19.3462 13.1276 19.3538 13.1203C19.3614 13.113 19.3664 13.1035 19.368 13.0932C19.4202 12.7839 19.3462 12.4006 18.9901 12.3265C18.9818 12.3247 18.9741 12.3207 18.9678 12.3151C18.9614 12.3094 18.9566 12.3023 18.9538 12.2943C18.9509 12.2863 18.9502 12.2778 18.9517 12.2695C18.9531 12.2613 18.9567 12.2535 18.9621 12.2471C19.1171 12.0585 19.3282 11.9198 19.5861 11.9245C19.8822 11.9297 20.1928 11.9274 20.5179 11.9175C20.8156 11.9082 20.9091 12.1427 20.9028 12.3951C20.8966 12.6242 20.8948 12.8465 20.8974 13.062C20.8979 13.1036 20.9187 13.1272 20.9597 13.1329Z" fill="#EB1C2E"/>
<path d="M19.3728 17.3425C19.42 16.9618 19.2889 16.7098 18.9793 16.5867C18.9725 16.584 18.9665 16.5797 18.9618 16.5741C18.9571 16.5685 18.9538 16.5619 18.9522 16.5548C18.9506 16.5477 18.9507 16.5403 18.9526 16.5332C18.9545 16.5262 18.958 16.5197 18.963 16.5143C19.1562 16.307 19.3985 16.1847 19.6945 16.1964C19.9641 16.2063 20.2267 16.205 20.4822 16.1925C20.7627 16.1785 20.9247 16.4037 20.9084 16.6717C20.8944 16.9044 20.8928 17.1324 20.9037 17.3557C20.9041 17.3654 20.9079 17.3746 20.9143 17.3817C20.9207 17.3888 20.9294 17.3934 20.9388 17.3947C21.3533 17.4492 21.7727 17.538 22.197 17.6611C24.3497 18.2836 26.0567 19.9611 26.8265 21.9774C27.308 23.2385 27.4048 24.5824 27.1171 26.0093C26.7236 27.957 25.435 29.6781 23.7661 30.6426C22.1581 31.5718 20.4399 31.8461 18.6116 31.4653C18.1181 31.3625 17.6496 31.208 17.2061 31.0018C15.4474 30.1858 14.2063 28.8795 13.4827 27.0829C13.4048 26.8891 13.3376 26.6858 13.2809 26.4728C13.0168 25.4748 12.9335 24.5095 13.0721 23.4398C13.0846 23.3457 13.1106 23.3419 13.15 23.4281C13.4736 24.1381 13.9014 24.7863 14.4332 25.3727C14.4841 25.4288 14.5195 25.4953 14.5392 25.5722C14.6265 25.9087 14.6942 26.2516 14.829 26.5757C15.4206 27.9952 16.3961 29.0275 17.7553 29.6726C19.0245 30.2741 20.6131 30.3528 21.9072 29.9172C23.8472 29.2644 25.2877 27.6906 25.7186 25.6625C26.1346 23.7086 25.4903 21.7008 24.0303 20.3288C22.056 18.4737 19.0993 18.2914 16.8773 19.8224C16.8614 19.8333 16.8423 19.8385 16.823 19.8374C16.8037 19.8363 16.7853 19.8288 16.7706 19.8161C16.4262 19.5196 16.1319 19.1871 15.8878 18.8189C15.881 18.8086 15.8784 18.796 15.8806 18.7838C15.8828 18.7717 15.8896 18.7608 15.8995 18.7534C16.8609 18.0359 18.0701 17.5435 19.3112 17.4032C19.3476 17.3991 19.3681 17.3788 19.3728 17.3425Z" fill="#EB1C2E"/>
<path d="M15.1622 18.8401C15.1632 18.8345 15.1656 18.8294 15.1692 18.8253C15.1801 18.8113 15.1933 18.8082 15.2089 18.8159C15.2157 18.8196 15.2211 18.8245 15.2253 18.8307C16.0028 20.0872 17.0624 20.9317 18.404 21.3644C20.097 21.9113 22.0058 21.6223 23.4394 20.5775C23.4539 20.5666 23.468 20.5674 23.4815 20.5798C23.8331 20.8972 24.1372 21.2356 24.3938 21.595C24.4023 21.6067 24.406 21.6212 24.4043 21.6356C24.4026 21.65 24.3955 21.6633 24.3844 21.6729C24.3128 21.7342 24.2393 21.7903 24.164 21.8412C23.0265 22.599 21.7744 23.0075 20.4079 23.0667C18.5295 23.1478 16.7399 22.4622 15.3149 21.2094C15.17 21.0824 15.05 20.9523 15.0321 20.7489C14.9947 20.3168 14.99 20.0028 15.018 19.807C15.0653 19.4813 15.1133 19.159 15.1622 18.8401Z" fill="#EB1C2E"/>
<path d="M26.5548 20.1669C26.7901 19.8498 26.9561 19.5133 27.1205 19.1619C27.1646 19.0668 27.1942 19.0712 27.2093 19.1751C27.3095 19.8748 27.3069 20.5827 27.2015 21.299C27.1901 21.3748 27.1696 21.3774 27.14 21.3068C26.9911 20.9491 26.7847 20.5814 26.5541 20.2534C26.5338 20.2243 26.5341 20.1955 26.5548 20.1669Z" fill="#EB1C2E"/>
<circle cx="20" cy="20" r="19.5" stroke="black" stroke-opacity="0.05"/>
</svg>
