<svg width="40" height="40" viewBox="0 0 40 40" fill="none" xmlns="http://www.w3.org/2000/svg">
<circle cx="20" cy="20" r="20" fill="#1845A0"/>
<path d="M14.1536 17.1948C14.0042 18.3495 14.7087 19.1516 15.7892 19.081C16.0365 19.0648 16.2645 18.9742 16.4857 18.8739C16.6622 18.7939 16.7565 18.1661 16.6219 18.0378C16.5608 17.9795 16.481 17.9954 16.4076 17.9946C16.1826 17.9924 15.9575 17.9893 15.7327 17.9948C15.5693 17.9988 15.4858 17.9307 15.4876 17.7648C15.4879 17.7367 15.4869 17.7086 15.4862 17.6805C15.4732 17.1715 15.4731 17.1712 15.9848 17.1703C16.416 17.1696 16.8474 17.178 17.2783 17.1666C17.4999 17.1607 17.6035 17.2225 17.5965 17.4663C17.5824 17.9628 17.5915 18.4599 17.5936 18.9567C17.5941 19.092 17.5811 19.2145 17.4616 19.3078C16.4073 20.1318 14.8856 20.1936 13.928 19.3586C13.1373 18.6691 12.9165 17.4349 13.3858 16.418C13.8176 15.4825 14.875 14.9098 15.9063 15.0491C16.3868 15.114 16.8359 15.2553 17.2355 15.5412C17.4106 15.6665 17.4539 15.7853 17.279 15.942C17.1329 16.0728 17.0659 16.3108 16.8795 16.3617C16.6901 16.4135 16.564 16.1955 16.4017 16.1105C15.4167 15.5952 14.4226 16.0622 14.1536 17.1948Z" fill="white"/>
<path d="M31.9442 20.7462C31.9523 21.5725 32.0433 21.4613 31.2758 21.4699C30.732 21.476 30.188 21.4774 29.6444 21.4668C29.4271 21.4625 29.3443 21.5362 29.3493 21.7586C29.3704 22.6886 29.2273 22.5016 30.0959 22.5187C30.5645 22.528 31.0338 22.5292 31.5022 22.516C31.7514 22.509 31.8277 22.6123 31.828 22.8493C31.8286 23.3898 31.8371 23.3896 31.2878 23.3892C30.7346 23.3887 30.1812 23.3948 29.6282 23.385C29.4206 23.3813 29.3535 23.4587 29.3485 23.6636C29.3283 24.4942 29.3227 24.4941 30.142 24.4941C30.6577 24.4941 31.1735 24.4991 31.6891 24.4914C31.8804 24.4886 31.9569 24.5554 31.9545 24.7525C31.9461 25.44 32.0082 25.3559 31.3848 25.359C30.5879 25.3629 29.7908 25.3625 28.9938 25.3603C28.5271 25.359 28.3706 25.2015 28.37 24.7333C28.3685 23.4674 28.3756 22.2015 28.3653 20.9358C28.3632 20.6781 28.4451 20.595 28.7032 20.5982C29.6782 20.6104 30.6535 20.6011 31.6286 20.6047C31.7411 20.6051 31.8827 20.5578 31.9442 20.7462Z" fill="white"/>
<path d="M6.65756 17.0556C6.7512 17.0556 6.81687 17.0562 6.88253 17.0556C7.55119 17.05 7.41192 17.0526 7.41968 17.5931C7.42347 17.8572 7.32764 17.9346 7.07534 17.9291C6.4659 17.916 5.85587 17.932 5.24633 17.9215C5.02408 17.9176 4.93094 17.9782 4.9282 18.2198C4.91944 18.9917 4.91047 18.9914 5.67812 18.9902C6.19404 18.9894 6.71009 18.9958 7.22582 18.9859C7.47015 18.9812 7.58299 19.053 7.5727 19.3234C7.55077 19.8998 7.62745 19.8657 7.01922 19.857C6.19391 19.8451 5.36831 19.8548 4.54285 19.8525C4.12789 19.8513 3.97796 19.7138 3.97493 19.299C3.96548 18.005 3.96817 16.7109 3.95877 15.4168C3.95719 15.1999 4.02822 15.1268 4.25358 15.1288C5.22888 15.137 6.20437 15.1221 7.17974 15.1266C7.30564 15.1272 7.5111 15.0492 7.54579 15.2299C7.58854 15.4525 7.6275 15.7014 7.50864 15.9161C7.45735 16.0088 7.32056 15.9797 7.21907 15.9794C6.56254 15.9773 5.90578 15.9815 5.24962 15.9641C4.99823 15.9574 4.92838 16.0514 4.92811 16.2916C4.92726 17.0556 4.91934 17.0556 5.6728 17.0556C5.99173 17.0556 6.31066 17.0556 6.65756 17.0556Z" fill="white"/>
<path d="M23.1086 16.1472C23.1051 16.3595 23.1162 16.5481 23.0998 16.7342C23.0784 16.9761 23.1618 17.0667 23.4146 17.0605C24.0424 17.0453 24.6709 17.0626 25.2989 17.0523C25.5195 17.0487 25.5922 17.1279 25.5935 17.3464C25.597 17.9247 25.6053 17.9254 25.037 17.9259C24.4839 17.9263 23.9306 17.9313 23.3776 17.9217C23.1683 17.918 23.0875 17.9992 23.1025 18.2034C23.112 18.3339 23.1041 18.4657 23.1036 18.597C23.1023 19.0224 23.1156 19.042 23.5475 19.0127C24.166 18.9709 24.7847 19.007 25.4029 18.9889C25.6592 18.9814 25.7682 19.0868 25.7421 19.3398C25.7364 19.3955 25.7358 19.4528 25.742 19.5084C25.7713 19.7721 25.6716 19.8653 25.3932 19.8598C24.4935 19.8419 23.5932 19.8547 22.6932 19.8523C22.2869 19.8512 22.1465 19.7208 22.1448 19.315C22.1395 18.0212 22.1463 16.7274 22.1397 15.4336C22.1384 15.1975 22.2321 15.1317 22.4586 15.1338C23.4616 15.1431 24.4649 15.1426 25.468 15.1324C25.6837 15.1302 25.759 15.2103 25.7399 15.4113C25.7364 15.4485 25.7394 15.4862 25.7394 15.5237C25.7395 15.9629 25.7361 15.9666 25.3071 15.9667C24.6789 15.9667 24.0508 15.9646 23.4226 15.9676C23.298 15.9682 23.1458 15.9326 23.1086 16.1472Z" fill="white"/>
<path d="M12.1423 17.0517C12.5146 17.9792 12.879 18.8865 13.2588 19.8317C12.922 19.8641 12.6421 19.8731 12.366 19.8342C12.1946 19.8101 12.1102 19.6688 12.0465 19.5112C11.6011 18.4085 11.1508 17.3077 10.7005 16.207C10.6666 16.1241 10.6581 16.0247 10.5468 15.9549C10.2653 16.6459 9.98638 17.3286 9.7091 18.0119C9.51195 18.4977 9.31027 18.9818 9.12374 19.4717C9.01942 19.7457 8.8442 19.8761 8.54759 19.8562C8.3532 19.8432 8.15723 19.8537 7.97096 19.8537C7.89243 19.7303 7.96102 19.6357 7.997 19.5457C8.54571 18.1721 9.09964 16.8005 9.648 15.4268C9.72747 15.2277 9.85149 15.1294 10.0725 15.136C10.3909 15.1454 10.7103 15.1474 11.0283 15.1322C11.2853 15.1199 11.4251 15.2348 11.5134 15.4654C11.7141 15.9899 11.9267 16.5098 12.1423 17.0517Z" fill="white"/>
<path d="M32.7285 20.6037C33.8148 20.6035 34.8738 20.6107 35.9325 20.5982C36.198 20.5951 36.3216 20.6716 36.2848 20.9462C36.2774 21.0015 36.2777 21.0593 36.2848 21.1146C36.3195 21.3861 36.1985 21.4869 35.9321 21.4719C35.6705 21.4572 35.4066 21.4818 35.1453 21.4649C34.9032 21.4493 34.8149 21.5308 34.8175 21.7813C34.828 22.8308 34.8257 23.8804 34.8158 24.9298C34.8143 25.0893 34.9278 25.3298 34.6126 25.3604C34.1939 25.4011 33.9307 25.2735 33.8786 24.9743C33.8516 24.8187 33.8505 24.6573 33.85 24.4984C33.8474 23.6082 33.8382 22.7178 33.8544 21.8278C33.8597 21.5365 33.7559 21.4479 33.479 21.4666C33.1992 21.4856 32.917 21.4663 32.636 21.4689C32.4731 21.4705 32.3891 21.4111 32.4082 21.2348C32.4202 21.1235 32.4255 21.0094 32.4158 20.898C32.3971 20.6834 32.4764 20.5763 32.7285 20.6037Z" fill="white"/>
<path d="M19.2843 17.0163C19.2842 17.6068 19.2923 18.1694 19.2799 18.7315C19.2751 18.9449 19.3469 19.0024 19.5558 18.9972C20.1459 18.9827 20.7366 18.9893 21.3271 18.9912C21.6745 18.9923 21.699 19.0179 21.7006 19.3541C21.7036 19.9535 21.7098 19.8503 21.2046 19.853C20.4267 19.8572 19.6487 19.8551 18.8708 19.8519C18.4761 19.8503 18.324 19.6973 18.3233 19.3098C18.3208 18.0355 18.3251 16.7612 18.3128 15.487C18.3103 15.2238 18.3809 15.124 18.6603 15.1307C19.2838 15.1457 19.2841 15.1318 19.2841 15.751C19.2841 16.1634 19.2842 16.5758 19.2843 17.0163Z" fill="white"/>
<path d="M24.7412 22.9183C24.9186 23.3444 25.0975 23.7468 25.2557 24.1572C25.3692 24.4514 25.5579 24.5857 25.8777 24.5641C26.0397 24.5531 26.2142 24.5192 26.3682 24.6128C26.3515 25.1299 26.1289 25.3591 25.6466 25.3604C25.3843 25.3612 25.1218 25.3556 24.8596 25.361C24.6382 25.3656 24.4915 25.2836 24.4029 25.0683C23.9359 23.9344 23.4574 22.8052 22.9901 21.6715C22.853 21.3388 22.6776 21.0183 22.5898 20.6201C22.948 20.6005 23.2702 20.5762 23.5927 20.6357C23.7826 20.6707 23.8615 20.8205 23.9287 20.9813C24.1959 21.6207 24.4653 22.2592 24.7412 22.9183Z" fill="white"/>
<path d="M27.818 19.0116C28.0477 19.0024 28.2537 18.9955 28.4598 18.9923C28.6751 18.9889 28.748 19.0685 28.6554 19.2865C28.3548 19.9939 28.0654 20.7061 27.7705 21.416C27.4936 22.0823 27.2075 22.745 26.9414 23.4156C26.8485 23.6496 26.7149 23.7611 26.4583 23.7474C26.1817 23.7326 25.9037 23.7441 25.5925 23.7441C25.6808 23.3222 25.8593 23.002 25.9945 22.6691C26.4281 21.6014 26.8793 20.5409 27.3272 19.479C27.4181 19.2636 27.5016 19.0316 27.818 19.0116Z" fill="#ED7F23"/>
<circle cx="20" cy="20" r="19.5" stroke="black" stroke-opacity="0.05"/>
</svg>
