<svg width="40" height="40" viewBox="0 0 40 40" fill="none" xmlns="http://www.w3.org/2000/svg">
<circle cx="20" cy="20" r="20" fill="#ED1B24"/>
<g clip-path="url(#clip0_18695_29709)">
<path d="M19.7844 16.622C21.3402 16.622 22.6015 15.3517 22.6015 13.7846C22.6015 12.2176 21.3402 10.9473 19.7844 10.9473C18.2285 10.9473 16.9673 12.2176 16.9673 13.7846C16.9673 15.3517 18.2285 16.622 19.7844 16.622Z" fill="white"/>
<path d="M11.797 19.8447C11.797 21.4601 10.5025 22.764 8.89852 22.764C7.29456 22.764 6 21.4601 6 19.8447C6 18.2292 7.29456 16.9253 8.89852 16.9253C10.5025 16.9253 11.797 18.2292 11.797 19.8447ZM10.3966 19.8447C10.3966 19.0082 9.72085 18.3276 8.89038 18.3276C8.0599 18.3276 7.38412 19.0082 7.38412 19.8447C7.38412 20.6811 8.0599 21.3617 8.89038 21.3617C9.72085 21.3617 10.3966 20.6811 10.3966 19.8447Z" fill="white"/>
<path d="M22.5851 19.9433C22.5851 21.5588 21.2824 22.8626 19.6866 22.8626C18.0908 22.8626 16.7881 21.5506 16.7881 19.9433C16.7881 18.3278 18.0908 17.0239 19.6866 17.0239C21.2906 17.0239 22.5851 18.336 22.5851 19.9433ZM21.1766 19.9433C21.1766 19.1068 20.5089 18.4344 19.6785 18.4344C18.848 18.4344 18.1804 19.1068 18.1804 19.9433C18.1804 20.7797 18.848 21.4522 19.6785 21.4522C20.5089 21.4522 21.1766 20.7797 21.1766 19.9433Z" fill="white"/>
<path d="M13.5068 22.4851H12.3669C12.3181 22.4769 12.2773 22.4359 12.2773 22.3867V17.3106C12.2773 17.2614 12.3181 17.2204 12.3669 17.2204L13.5149 17.1958C13.5638 17.1958 13.6045 17.2368 13.6045 17.286L13.5882 19.4919C13.5882 19.5411 13.6289 19.5821 13.6778 19.5821C13.7022 19.5821 13.7266 19.5739 13.751 19.5493L15.6481 17.3352C15.6481 17.3352 15.6888 17.3024 15.7132 17.3024H17.0322C17.0811 17.2942 17.1218 17.3352 17.1218 17.3844C17.1218 17.409 17.1218 17.4254 17.0973 17.4418L15.1026 19.7871C15.1026 19.7871 15.0782 19.8691 15.1026 19.902L17.0811 22.3375C17.0811 22.3375 17.1055 22.4359 17.0729 22.4687C17.0566 22.4851 17.0322 22.4933 17.0159 22.4933L15.8028 22.4769C15.8028 22.4769 15.7458 22.4687 15.7295 22.4441L13.7592 19.9594C13.7592 19.9594 13.6696 19.9102 13.6289 19.943C13.6045 19.9594 13.5882 19.9922 13.5963 20.0168V22.3949C13.6045 22.4441 13.5638 22.4851 13.5149 22.4851H13.5068Z" fill="white"/>
<path d="M32.2416 20.7552L31.7286 20.7716C31.5577 20.7716 31.4762 20.6978 31.4844 20.5256V20.009C31.4844 19.8696 31.5658 19.7958 31.7042 19.7958H33.8781C33.9269 19.7958 33.9758 19.8368 33.9758 19.8942C34.0979 21.1899 33.528 22.3543 32.2823 22.7479C31.289 23.0596 30.1165 22.8053 29.4408 21.9771C28.2358 20.4928 28.48 18.1885 30.4259 17.434C31.7124 16.9338 33.0232 17.3602 33.7397 18.5657C33.7804 18.6313 33.756 18.7133 33.6908 18.7543C33.6908 18.7543 33.6827 18.7543 33.6745 18.7625L32.6975 19.1643C32.6487 19.1807 32.5998 19.1643 32.5591 19.1315C32.38 18.9511 32.266 18.7461 32.038 18.6149C31.6635 18.3935 31.2808 18.3771 30.89 18.5575C30.0433 18.9511 29.8479 19.9762 30.2142 20.7798C30.6458 21.7147 31.7042 21.9935 32.4288 21.1734C32.5184 21.075 32.5103 20.9192 32.4126 20.8208C32.3637 20.7798 32.3067 20.7552 32.2416 20.7552Z" fill="white"/>
<path d="M24.3112 19.5741C24.2786 20.4761 24.2786 21.4028 24.2949 22.3622C24.2949 22.477 24.2135 22.5672 24.0995 22.5754H23.1876C23.0573 22.5754 22.9922 22.518 22.9922 22.3868V17.4502C22.9922 17.3517 23.0329 17.3107 23.1306 17.3025H24.1646C24.246 17.2943 24.3193 17.3271 24.36 17.3927L26.6316 20.2957C26.7537 20.4515 26.8189 20.4351 26.8189 20.2301V17.4255C26.8189 17.3353 26.8596 17.2861 26.9492 17.2943L28.0972 17.3107C28.1623 17.3107 28.2111 17.3599 28.2111 17.4255V22.5262C28.2111 22.6082 28.1379 22.6738 28.0646 22.6738C27.7063 22.682 26.9329 22.8132 26.6968 22.5098C25.9233 21.5176 25.1661 20.5253 24.4333 19.5413C24.36 19.4347 24.3193 19.4511 24.3112 19.5823V19.5741Z" fill="white"/>
<path d="M19.7844 28.9472C21.3402 28.9472 22.6015 27.6768 22.6015 26.1098C22.6015 24.5428 21.3402 23.2725 19.7844 23.2725C18.2285 23.2725 16.9673 24.5428 16.9673 26.1098C16.9673 27.6768 18.2285 28.9472 19.7844 28.9472Z" fill="white"/>
</g>
<circle cx="20" cy="20" r="19.5" stroke="black" stroke-opacity="0.05"/>
<defs>
<clipPath id="clip0_18695_29709">
<rect width="28" height="18" fill="white" transform="translate(6 10.9473)"/>
</clipPath>
</defs>
</svg>
