<svg width="40" height="40" viewBox="0 0 40 40" fill="none" xmlns="http://www.w3.org/2000/svg">
<circle cx="20" cy="20" r="20" fill="#2458A6"/>
<g clip-path="url(#clip0_24563_41697)">
<path d="M35 20C35 23.3157 28.2828 26 19.9974 26C11.712 26 5 23.3157 5 20C5 16.6843 11.7172 14 19.9974 14C28.2776 14 35 16.6843 35 20ZM17.6817 16.1972C18.1992 16.2469 18.701 16.3065 19.229 16.401C19.2446 16.401 19.2551 16.401 19.2656 16.3861L19.7674 15.5957C19.7674 15.5957 19.7674 15.5659 19.7569 15.5609C19.7569 15.5609 19.7569 15.5609 19.7517 15.5609C19.2708 15.4416 18.7846 15.3571 18.2933 15.3074C17.9848 15.2775 17.6817 15.2477 17.3837 15.2378C16.4062 15.2129 15.4391 15.2527 14.4825 15.3521C14.1009 15.3919 13.7245 15.4615 13.3586 15.551C12.7313 15.71 12.0099 16.0431 11.6754 16.575C11.5708 16.739 11.5238 16.9279 11.5186 17.1417C11.5186 17.6835 12.0883 17.9669 12.5536 18.106C12.8568 18.1906 13.1495 18.2552 13.4422 18.2999C13.8813 18.3645 14.1688 18.3993 14.2995 18.4093C14.8066 18.4292 15.3346 18.459 15.873 18.4838C16.0559 18.4938 16.2389 18.5137 16.4166 18.5385C16.5944 18.5634 16.9237 18.7374 16.8662 18.9511C16.8139 19.14 16.6519 19.2494 16.4584 19.314C16.218 19.3985 15.9827 19.4482 15.758 19.4631C14.9634 19.5228 14.1636 19.5178 13.3586 19.4532C12.8515 19.4134 12.2661 19.319 11.6022 19.1748C11.5447 19.1599 11.4611 19.1549 11.414 19.1997C11.0951 19.488 10.8024 19.7365 10.541 19.9453C10.541 19.9453 10.5306 19.9553 10.5306 19.9602C10.5254 19.9702 10.5306 19.9851 10.541 19.9901C11.1631 20.1541 11.8113 20.2734 12.4961 20.348C13.2854 20.4374 14.1532 20.4325 14.8745 20.4027C15.345 20.3828 15.7841 20.343 16.1971 20.2833C16.265 20.2734 16.3278 20.2585 16.3905 20.2336C16.4114 20.2237 16.4375 20.2336 16.448 20.2585C16.448 20.2684 16.448 20.2784 16.448 20.2883C16.3382 20.6015 16.2232 20.9445 16.1082 21.3173C16.0193 21.5957 15.9723 21.889 15.9723 22.1624C15.9723 22.5352 16.0768 22.8782 16.333 23.1715C16.7146 23.599 17.2426 23.8227 17.8176 23.8824C18.7167 23.9718 19.7308 23.8376 20.426 23.2411C20.4522 23.2212 20.4888 23.2212 20.5149 23.2411C20.8442 23.6736 21.3513 23.8674 21.9106 23.8873C22.2399 23.8973 22.5431 23.8873 22.8202 23.8525C23.7454 23.7332 24.4929 23.3554 25.0732 22.7241C25.4443 22.3215 25.7057 21.8492 25.8677 21.3322C26.1396 20.4822 26.4062 19.6371 26.6728 18.797C26.6728 18.7821 26.6728 18.7672 26.6571 18.7672C26.6571 18.7672 26.6571 18.7672 26.6519 18.7672H24.5661C24.5191 18.7672 24.4929 18.7871 24.4773 18.8268C24.2368 19.5725 24.0068 20.2983 23.782 21.0141C23.6513 21.4316 23.4997 21.8244 23.3325 22.232C23.2227 22.5054 23.0815 22.7539 22.8097 22.8981C22.4595 23.082 22.0674 23.0174 21.8949 22.6446C21.8374 22.5253 21.8217 22.3911 21.8427 22.2519C21.8688 22.1127 21.8949 21.9884 21.9211 21.889C22.2295 20.85 22.5484 19.8161 22.8829 18.7821C22.8829 18.7722 22.8829 18.7622 22.8725 18.7622C22.8725 18.7622 22.8725 18.7622 22.8672 18.7622H20.7658C20.7292 18.7622 20.6926 18.7871 20.6822 18.8219C20.4522 19.5377 20.2274 20.2436 20.0078 20.9395C19.851 21.4366 19.6785 21.9188 19.4799 22.3811C19.344 22.6943 19.0042 23.0075 18.6226 22.9925C18.2776 22.9826 18.0423 22.6893 18.0423 22.3712C18.0423 22.2519 18.058 22.1326 18.0789 22.0182C18.126 21.8144 18.1783 21.6156 18.241 21.4118C18.4396 20.7755 18.7062 19.9254 19.0512 18.8616C19.0826 18.7622 19.114 18.6578 19.1401 18.5534C19.2028 18.29 19.0617 18.0066 18.8526 17.8476C18.5703 17.6338 18.2358 17.5095 17.8907 17.425C17.3994 17.3057 16.861 17.2262 16.3487 17.2013C15.7318 17.1715 15.0784 17.1566 14.4564 17.087C14.31 17.0721 14.1636 17.0323 14.012 16.9776C13.8813 16.9279 13.7716 16.8235 13.7716 16.6843C13.7768 16.2767 14.7439 16.1524 15.0523 16.1425C15.9775 16.1027 16.8453 16.1027 17.6764 16.1872L17.6817 16.1972ZM26.8191 18.3596C26.7825 18.4739 26.7512 18.5833 26.725 18.6877C26.7146 18.7175 26.7355 18.7523 26.7721 18.7572C26.7721 18.7572 26.7825 18.7572 26.7878 18.7572C27.2844 18.7523 27.8123 18.7523 28.3821 18.7572C28.4919 18.7572 28.586 18.7473 28.6696 18.7225C28.7689 18.6926 28.8578 18.633 28.9362 18.5435C28.9937 18.4739 29.046 18.3496 29.093 18.1657C29.1453 17.9569 29.2028 17.7481 29.2603 17.5394C29.2865 17.4548 29.3126 17.3654 29.344 17.2759C29.3544 17.2461 29.3387 17.2162 29.3074 17.2063C29.2603 17.1964 29.2133 17.1914 29.1662 17.1914C28.7062 17.2013 28.2201 17.2013 27.7078 17.1914C27.3314 17.1914 27.07 17.435 26.9812 17.7829C26.9603 17.8724 26.9341 17.9619 26.908 18.0514C26.8819 18.1508 26.8505 18.2502 26.8191 18.3496V18.3596ZM9.58442 23.6338C10.2849 23.9072 11.0167 24.1408 11.7747 24.3297C12.5431 24.5236 13.2802 24.6727 13.9911 24.7871C14.6027 24.8865 15.1359 24.9561 15.5907 25.0058C16.0455 25.0555 16.5055 25.1052 16.9498 25.1301C17.4412 25.1599 17.9482 25.1997 18.4239 25.2196C19.4433 25.2543 20.4626 25.2543 21.482 25.2196C21.6858 25.2146 21.9106 25.1997 22.1615 25.1848C22.7627 25.145 23.1547 25.1201 23.3429 25.1052C24.1218 25.0406 24.953 24.9412 25.8259 24.807C26.6623 24.6777 27.4882 24.5087 28.2985 24.2999C29.3021 24.0414 30.2901 23.7084 31.2154 23.256C31.9577 22.8981 32.6999 22.4109 33.1338 21.7697C33.3429 21.4615 33.4527 21.1036 33.4579 20.7009C33.4579 20.686 33.4527 20.6761 33.4422 20.6711C33.4318 20.6661 33.4161 20.6711 33.4056 20.681C33.2906 20.9843 33.1338 21.2527 32.93 21.4863C32.7993 21.6355 32.6581 21.7647 32.5065 21.884C32.1145 22.1872 31.6597 22.4557 31.1422 22.6993C30.494 23.0025 29.7778 23.2659 28.9885 23.4896C28.3089 23.6835 27.6085 23.8476 26.8819 23.9818C26.6257 24.0315 26.3644 24.0812 26.1082 24.121C25.7371 24.1756 25.3607 24.2303 24.9843 24.285C24.8641 24.2999 24.6079 24.3297 24.2159 24.3745C23.7977 24.4192 23.3691 24.449 22.9404 24.4838C22.747 24.4988 22.5484 24.5137 22.3445 24.5236C21.5186 24.5634 20.8965 24.5833 20.4731 24.5882C19.9242 24.5982 19.344 24.5882 18.7428 24.5684C18.058 24.5435 17.5876 24.5236 17.3366 24.5087C16.3278 24.4441 15.3189 24.3397 14.3048 24.1955C13.3847 24.0613 12.4752 23.8824 11.5708 23.6587C10.771 23.4598 10.0183 23.2162 9.31783 22.9329C8.63826 22.6595 7.96393 22.3065 7.39937 21.8542C7.00732 21.541 6.71458 21.1582 6.5264 20.7059C6.5264 20.7009 6.51594 20.6959 6.51072 20.7009C6.51072 20.7009 6.50549 20.7009 6.50549 20.7059C6.47935 20.7655 6.48458 20.8103 6.49503 20.865C6.54208 21.2527 6.68322 21.5957 6.91323 21.884C7.138 22.1674 7.42028 22.4308 7.77052 22.6794C8.25667 23.0224 8.86304 23.3405 9.58442 23.6239V23.6338Z" fill="white"/>
<path d="M19.2289 16.4008C18.7009 16.3064 18.1991 16.2467 17.6816 16.197C16.8504 16.1125 15.9827 16.1175 15.0574 16.1523C14.749 16.1672 13.7819 16.2865 13.7767 16.6941C13.7767 16.8382 13.8812 16.9426 14.0172 16.9874C14.1688 17.0421 14.3203 17.0769 14.4615 17.0967C15.0835 17.1663 15.737 17.1812 16.3538 17.2111C16.8661 17.2359 17.4097 17.3155 17.8959 17.4348C18.2409 17.5193 18.5754 17.6436 18.8577 17.8573C19.072 18.0213 19.2132 18.2997 19.1452 18.5632C19.1191 18.6676 19.0877 18.772 19.0564 18.8714C18.7166 19.9352 18.4448 20.7852 18.2461 21.4215C18.1834 21.6204 18.1311 21.8242 18.0841 22.028C18.0579 22.1423 18.0475 22.2616 18.0475 22.3809C18.0475 22.6991 18.2827 22.9924 18.6277 23.0023C19.0093 23.0172 19.3543 22.704 19.485 22.3909C19.6836 21.9286 19.8562 21.4464 20.013 20.9493C20.2325 20.2533 20.4573 19.5474 20.6873 18.8316C20.6978 18.7968 20.7344 18.772 20.7709 18.772H22.8724C22.8724 18.772 22.888 18.7769 22.888 18.7869C22.888 18.7869 22.888 18.7869 22.888 18.7919C22.5535 19.8258 22.2346 20.8598 21.9262 21.8987C21.8948 21.9981 21.8687 22.1175 21.8478 22.2616C21.8217 22.4008 21.8426 22.535 21.9001 22.6543C22.0778 23.0271 22.4646 23.0918 22.8149 22.9078C23.0919 22.7637 23.2278 22.5151 23.3376 22.2417C23.5049 21.8291 23.6512 21.4414 23.7871 21.0238C24.0119 20.313 24.2419 19.5822 24.4824 18.8366C24.4981 18.7968 24.5242 18.7769 24.5713 18.7769H26.657C26.657 18.7769 26.6831 18.7869 26.6831 18.8018C26.6831 18.8018 26.6831 18.8018 26.6831 18.8068C26.4165 19.6469 26.1447 20.4919 25.8781 21.342C25.7161 21.854 25.4495 22.3262 25.0835 22.7339C24.5033 23.3652 23.7558 23.738 22.8305 23.8623C22.5535 23.8971 22.2503 23.912 21.921 23.8971C21.3616 23.8772 20.8546 23.6833 20.5253 23.2508C20.5043 23.226 20.4678 23.221 20.4416 23.2359C19.7464 23.8275 18.7323 23.9617 17.8332 23.8772C17.2581 23.8225 16.7302 23.5938 16.3486 23.1663C16.0872 22.873 15.9827 22.53 15.9879 22.1572C15.9879 21.8838 16.0402 21.5905 16.1238 21.3122C16.2388 20.9393 16.3538 20.5963 16.4636 20.2832C16.4688 20.2633 16.4636 20.2384 16.4374 20.2334C16.427 20.2334 16.4165 20.2334 16.4061 20.2334C16.3433 20.2533 16.2806 20.2732 16.2127 20.2832C15.7997 20.3428 15.3606 20.3826 14.8901 20.4025C14.1688 20.4323 13.301 20.4323 12.5117 20.3478C11.8269 20.2732 11.1735 20.1489 10.5566 19.9899C10.5462 19.9899 10.5357 19.975 10.5409 19.965C10.5409 19.96 10.5462 19.9551 10.5514 19.9501C10.818 19.7413 11.1107 19.4928 11.4244 19.2044C11.4714 19.1597 11.5498 19.1696 11.6126 19.1796C12.2764 19.3238 12.8619 19.4182 13.369 19.458C14.1688 19.5226 14.9685 19.5226 15.7683 19.4679C15.9931 19.453 16.2231 19.4033 16.4688 19.3188C16.6622 19.2542 16.8243 19.1398 16.8765 18.9559C16.934 18.7421 16.6047 18.5682 16.427 18.5433C16.2493 18.5135 16.0663 18.4986 15.8833 18.4886C15.3397 18.4588 14.8169 18.4339 14.3099 18.4141C14.174 18.4091 13.8917 18.3743 13.4526 18.3047C13.1599 18.26 12.8619 18.1953 12.5639 18.1108C12.0935 17.9766 11.5237 17.6933 11.5289 17.1465C11.5289 16.9327 11.5812 16.7438 11.6857 16.5798C12.0203 16.0479 12.7364 15.7148 13.369 15.5557C13.7401 15.4613 14.1165 15.3967 14.4928 15.3569C15.4495 15.2575 16.4165 15.2177 17.3941 15.2426C17.6972 15.2475 17.9952 15.2774 18.3036 15.3122C18.795 15.3619 19.2811 15.4464 19.7621 15.5657C19.7777 15.5657 19.7882 15.5856 19.783 15.6005C19.783 15.6005 19.783 15.6005 19.783 15.6054L19.2811 16.3958C19.2811 16.3958 19.2602 16.4157 19.2445 16.4107L19.2289 16.4008Z" fill="#2458A6"/>
<path d="M26.8193 18.3595C26.8507 18.2601 26.8768 18.1606 26.9082 18.0612C26.9343 17.9718 26.9552 17.8823 26.9814 17.7928C27.0702 17.4448 27.3264 17.1963 27.708 17.2012C28.2203 17.2012 28.7064 17.2012 29.1664 17.2012C29.2135 17.2012 29.2605 17.2012 29.3076 17.2162C29.3389 17.2211 29.3546 17.251 29.3494 17.2808C29.318 17.3703 29.2867 17.4597 29.2658 17.5442C29.2083 17.753 29.1508 17.9618 29.0985 18.1706C29.0514 18.3545 28.9992 18.4788 28.9417 18.5484C28.8685 18.6379 28.7796 18.6975 28.6751 18.7273C28.5914 18.7522 28.4921 18.7671 28.3876 18.7621C27.823 18.7572 27.2898 18.7572 26.7932 18.7621C26.7566 18.7621 26.7305 18.7373 26.7305 18.7025C26.7305 18.6975 26.7305 18.6925 26.7305 18.6876C26.7566 18.5832 26.788 18.4738 26.8246 18.3595H26.8193Z" fill="#D93832"/>
<path d="M9.5842 23.6339C8.86282 23.3505 8.25645 23.0324 7.7703 22.6894C7.42006 22.4408 7.13778 22.1774 6.91301 21.894C6.683 21.6007 6.54709 21.2627 6.49482 20.875C6.48959 20.8153 6.47913 20.7706 6.50527 20.7159C6.50527 20.7109 6.51573 20.706 6.52095 20.7109C6.52095 20.7109 6.52618 20.7109 6.52618 20.7159C6.71437 21.1683 7.0071 21.551 7.39915 21.8642C7.96371 22.3166 8.63805 22.6695 9.31761 22.9429C10.0181 23.2263 10.7708 23.4698 11.5706 23.6687C12.4697 23.8924 13.3845 24.0713 14.3045 24.2055C15.3187 24.3547 16.3328 24.4591 17.3364 24.5187C17.5926 24.5336 18.0578 24.5535 18.7426 24.5784C19.3437 24.5982 19.9188 24.6082 20.4729 24.5982C20.8963 24.5933 21.5183 24.5684 22.3443 24.5336C22.5481 24.5237 22.7468 24.5137 22.9402 24.4939C23.3688 24.4591 23.7975 24.4292 24.2157 24.3845C24.6077 24.3398 24.8639 24.3099 24.9841 24.295C25.3605 24.2453 25.7368 24.1906 26.108 24.131C26.3641 24.0912 26.6203 24.0415 26.8816 23.9918C27.603 23.8576 28.3087 23.6935 28.9883 23.4997C29.7776 23.276 30.4938 23.0125 31.142 22.7093C31.6595 22.4657 32.1143 22.1923 32.5063 21.894C32.6579 21.7797 32.799 21.6455 32.9297 21.4963C33.1336 21.2627 33.2904 20.9943 33.4054 20.691C33.4054 20.6811 33.4263 20.6712 33.4368 20.6761C33.4472 20.6811 33.4525 20.691 33.4525 20.706C33.442 21.1086 33.3375 21.4665 33.1284 21.7747C32.6945 22.416 31.947 22.9031 31.2099 23.261C30.2847 23.7134 29.2967 24.0465 28.293 24.305C27.4828 24.5137 26.6621 24.6828 25.8205 24.812C24.9475 24.9512 24.1216 25.0506 23.3375 25.1103C23.1545 25.1252 22.7572 25.15 22.1561 25.1898C21.9052 25.2047 21.6804 25.2196 21.4765 25.2246C20.4572 25.2544 19.4378 25.2544 18.4185 25.2246C17.9428 25.2097 17.4357 25.1699 16.9444 25.1351C16.5 25.1053 16.0348 25.0556 15.5852 25.0108C15.1305 24.9611 14.5973 24.8915 13.9857 24.7921C13.2747 24.6778 12.5325 24.5237 11.7693 24.3348C11.0113 24.1459 10.2794 23.9122 9.57898 23.6388L9.5842 23.6339Z" fill="#2458A6"/>
</g>
<circle cx="20" cy="20" r="19.5" stroke="black" stroke-opacity="0.05"/>
<defs>
<clipPath id="clip0_24563_41697">
<rect width="30" height="12" fill="white" transform="translate(5 14)"/>
</clipPath>
</defs>
</svg>
