<svg width="40" height="40" viewBox="0 0 40 40" fill="none" xmlns="http://www.w3.org/2000/svg">
<circle cx="20" cy="20" r="20" fill="#02157B"/>
<g clip-path="url(#clip0_18553_55897)">
<path d="M30.5656 17L30.6972 17.091L27.482 22.888L27.3433 22.7971L30.5656 17Z" fill="#75CF1D"/>
<path d="M29.0148 17.4512C30.3948 17.4512 31.5222 18.5567 31.5222 19.9176C31.5222 21.2786 30.3948 22.3806 29.0148 22.3806C27.6348 22.3806 26.5073 21.2751 26.5073 19.9176C26.5073 18.5602 27.6348 17.4512 29.0148 17.4512Z" fill="#75CF1D"/>
<path d="M32.4717 21.7057V18.3296H33.6774L35.1748 20.7576V18.3296H35.9999V21.7057H34.7906L33.2968 19.2882V21.7057H32.4717Z" fill="#75CF1D"/>
<path d="M21.8871 21.7057L20.9517 18.3296H21.8977L22.5237 20.8136L23.2742 18.3296H24.3127L24.9814 20.88L25.6216 18.3296H26.4752L25.5398 21.7057H24.3732L23.7401 19.2917L23.0252 21.7057H21.8871Z" fill="#75CF1D"/>
<path d="M19.8846 21.013V20.4567H19.0665V19.8235H20.7986V21.5342C20.5674 21.6112 20.3185 21.6672 20.0517 21.7057C19.785 21.7442 19.5076 21.7651 19.2159 21.7651C18.5259 21.7651 18.0031 21.6217 17.6545 21.3313C17.3095 21.0479 17.1353 20.6176 17.1353 20.0474C17.1353 19.4771 17.306 19.0468 17.651 18.7459C17.9924 18.4415 18.4832 18.2876 19.1199 18.2876C19.6605 18.2876 20.0695 18.3821 20.3505 18.571C20.6279 18.7564 20.7773 19.0363 20.7986 19.4106H19.8063C19.7992 19.2567 19.7316 19.1342 19.6071 19.0433C19.4827 18.9523 19.3119 18.9103 19.095 18.9103C18.7749 18.9103 18.5295 19.0083 18.3552 19.1937C18.1809 19.3826 18.0956 19.652 18.0956 20.0019C18.0956 20.3727 18.188 20.6526 18.373 20.838C18.5544 21.027 18.8318 21.1214 19.1946 21.1214C19.3013 21.1214 19.4151 21.1109 19.5289 21.0969C19.6427 21.0794 19.7636 21.0549 19.8846 21.02V21.013Z" fill="#75CF1D"/>
<path d="M13.0596 21.7057V18.3296H14.2688L15.7626 20.7576V18.3296H16.5914V21.7057H15.3785L13.8883 19.2882V21.7057H13.0596Z" fill="#75CF1D"/>
<path d="M8.85205 18.3296H9.79813V20.2363C9.79813 20.5127 9.8657 20.7121 9.99374 20.8485C10.1218 20.9815 10.3174 21.0515 10.5842 21.0515C10.8651 21.0515 11.0679 20.985 11.2066 20.852C11.3382 20.7191 11.4057 20.5127 11.4057 20.2363V18.3296H12.3554V20.2398C12.3554 20.7681 12.2131 21.1529 11.9286 21.3978C11.6405 21.6427 11.1959 21.7652 10.5806 21.7652C10.2925 21.7652 10.0329 21.7337 9.8088 21.6707C9.58117 21.6112 9.40334 21.5238 9.26463 21.4048C9.1188 21.2824 9.00854 21.1284 8.94808 20.95C8.88406 20.7751 8.85205 20.5372 8.85205 20.2363V18.3296Z" fill="#75CF1D"/>
<path d="M29.5801 20.439V20.418V20.4075V20.4005H29.5907V20.3935H29.6085V20.3865H29.6156H29.6227L29.6334 20.4005H29.6405V20.4075V20.4145H29.6512V20.4285H29.6583L29.6512 20.4355L29.6441 20.4424L29.637 20.4634V20.4739L29.6263 20.4879L29.6192 20.4984H29.6085V20.4914H29.6156V20.4844V20.4774V20.4879V20.4984H29.605V20.4879V20.4809V20.4704L29.6121 20.4599L29.6192 20.4529L29.6263 20.4459V20.439V20.4285V20.418H29.6192L29.6121 20.425V20.432H29.6227V20.439H29.6156H29.6085H29.5801ZM27.8906 20.32C27.8622 20.3025 27.9013 20.1696 27.9049 20.1486C27.9049 20.1381 27.9226 20.0961 27.9155 20.0891C27.8657 20.0576 27.7946 20.0611 27.7448 20.0401C27.7021 20.0261 27.6737 20.0016 27.631 19.9946C27.631 19.9946 27.5883 20.0051 27.5848 20.0086C27.5385 20.0611 27.4923 20.0156 27.4318 20.0086C27.3891 20.0016 27.382 20.0436 27.3536 20.0681C27.3322 20.0821 27.3002 20.0891 27.2824 20.1066L27.2291 20.1311C27.2291 20.1311 27.1935 20.1241 27.1793 20.1171C27.1437 20.1066 27.1615 20.0856 27.1651 20.0576C27.1651 20.0401 27.222 19.9946 27.19 19.9736C27.1793 19.9527 27.2078 19.9002 27.2006 19.8827C27.1935 19.8687 27.1757 19.7917 27.1829 19.7742C27.19 19.7567 27.2149 19.7462 27.222 19.7252C27.222 19.7148 27.2149 19.6938 27.2327 19.6903C27.2327 19.6903 27.2433 19.6833 27.2469 19.6798C27.2647 19.6693 27.318 19.6028 27.3109 19.5958C27.3109 19.5888 27.3394 19.5538 27.3429 19.5503C27.4105 19.4664 27.3429 19.5293 27.3322 19.4838C27.3322 19.4734 27.3073 19.4524 27.3109 19.4419C27.3109 19.4349 27.3216 19.4209 27.3109 19.4139C27.3109 19.4139 27.318 19.3719 27.3322 19.3789C27.3322 19.3789 27.382 19.3929 27.3749 19.3719C27.3749 19.3614 27.3678 19.3194 27.3643 19.3159C27.35 19.3054 27.3714 19.2739 27.3749 19.2669C27.3749 19.2564 27.3749 19.239 27.3749 19.2285C27.3749 19.211 27.3536 19.19 27.3465 19.169C27.3465 19.1445 27.3073 19.12 27.2931 19.106V19.092L27.2647 19.0465C27.2647 19.0465 27.2362 18.9976 27.2362 18.9941C27.2042 18.9556 27.2611 18.8751 27.2611 18.8401C27.2611 18.8296 27.2398 18.8051 27.2433 18.7981C27.254 18.7771 27.286 18.7352 27.3073 18.7247C27.318 18.7177 27.3251 18.6967 27.3322 18.6862C27.3394 18.6652 27.2824 18.6092 27.2682 18.6302C27.2682 18.6302 27.254 18.6302 27.2469 18.6302C27.1971 18.6407 27.1864 18.6932 27.1722 18.7317C27.1651 18.7527 27.1722 18.7562 27.1509 18.7736H27.1437C27.1331 18.7736 27.1295 18.7946 27.1331 18.8051C27.1331 18.8121 27.1331 18.8331 27.1402 18.8366C27.1651 18.8681 27.1402 18.8926 27.1188 18.9241V18.9381C27.1046 18.9661 27.2291 18.9941 27.2255 19.022C27.2255 19.022 27.2042 19.0465 27.1971 19.0465C27.1686 19.0535 27.19 19.099 27.1473 19.1095C27.1331 19.1095 27.1224 19.1305 27.1082 19.1445C27.1082 19.1445 27.0904 19.127 27.0939 19.1235C27.0939 19.113 27.0726 19.1025 27.069 19.085C27.069 19.085 27.0086 19.0465 27.0015 19.0535C26.9944 19.0605 26.9801 19.0535 26.9766 19.0465C26.9695 19.0325 26.9552 19.022 26.941 19.015C26.941 19.015 26.941 19.015 26.9339 19.015C26.9339 19.015 26.9054 18.9906 26.909 18.9836C26.9161 18.9766 26.8948 18.9626 26.8912 18.9591C26.8912 18.9451 26.8343 18.9066 26.8414 18.8996L26.8343 18.8541C26.8272 18.8541 26.8272 18.8436 26.8236 18.8401L26.8699 18.7631L26.9339 18.6687L27.0015 18.5777L27.069 18.4868L27.1437 18.3993L27.222 18.3188L27.3038 18.2349L27.3287 18.2139C27.3287 18.2139 27.35 18.2139 27.3465 18.1999L27.3785 18.1754L27.3714 18.1859C27.3891 18.2069 27.3536 18.2419 27.4034 18.2454C27.4461 18.2454 27.4425 18.2034 27.4674 18.1999C27.503 18.1999 27.5207 18.1859 27.5563 18.1999C27.5812 18.2069 27.6025 18.1999 27.6203 18.1754C27.6274 18.1684 27.6523 18.1754 27.6595 18.1754C27.6808 18.1684 27.6844 18.1824 27.7021 18.1509C27.7021 18.1439 27.6701 18.1229 27.663 18.1194C27.663 18.1194 27.6559 18.0879 27.6523 18.0844C27.631 18.0564 27.6132 18.0285 27.6168 18.0005L27.6701 17.9655L27.7697 17.906L27.8159 17.878C27.8159 17.878 27.8053 17.913 27.7946 17.941C27.7839 17.9655 27.8053 17.9865 27.8053 17.9865C27.7946 18.004 27.7092 18.1159 27.7662 18.1229C27.7733 18.1229 27.8231 18.1579 27.8337 18.1474C27.8622 18.1299 27.8906 18.0879 27.9191 18.0669C27.9298 18.0599 27.9547 17.969 27.9511 17.962C27.9511 17.948 28.0151 17.885 28.0365 17.892C28.0649 17.906 28.0578 17.92 28.0898 17.927C28.0969 17.927 28.0969 17.8745 28.0969 17.871C28.0969 17.864 28.0791 17.8255 28.0756 17.8185C28.0756 17.8045 28.0471 17.7906 28.0329 17.7731L28.0791 17.7521L28.1858 17.7136L28.2925 17.6751L28.3992 17.6436L28.4384 17.6366C28.4384 17.6366 28.417 17.6541 28.4206 17.6646C28.4206 17.6856 28.4704 17.6926 28.4668 17.7066C28.4668 17.7136 28.4775 17.7311 28.4739 17.7381C28.4668 17.7556 28.4846 17.7661 28.4953 17.7661C28.5095 17.7661 28.5522 17.8045 28.5629 17.7941C28.5984 17.7486 28.6375 17.7941 28.6375 17.8325C28.6375 17.857 28.6375 17.8885 28.6375 17.913C28.6375 17.9235 28.6482 17.9375 28.6518 17.948C28.6518 17.955 28.6767 17.9585 28.6802 17.955C28.6909 17.941 28.7051 17.955 28.7158 17.955C28.7407 17.955 28.7371 17.8815 28.73 17.8675C28.73 17.8605 28.7371 17.8535 28.7371 17.8465C28.7371 17.836 28.7051 17.8185 28.7016 17.815C28.6802 17.7906 28.7478 17.7591 28.7727 17.7696C28.7834 17.7696 28.7976 17.7871 28.8047 17.7766C28.8332 17.7521 28.8794 17.7696 28.8901 17.7976C28.8901 17.808 28.915 17.8255 28.9185 17.822C28.9327 17.822 28.9399 17.8011 28.947 17.808C28.9612 17.8185 28.9648 17.7731 28.9683 17.7696C28.9683 17.7451 28.8865 17.6786 28.8652 17.6891C28.8474 17.6961 28.8011 17.6891 28.7834 17.6891C28.7691 17.6891 28.7549 17.6646 28.7371 17.6646C28.7158 17.6646 28.6375 17.6996 28.6304 17.6646C28.6304 17.6576 28.6447 17.6471 28.6411 17.6401C28.634 17.6261 28.6198 17.6296 28.6198 17.6086C28.6198 17.6086 28.6198 17.6016 28.6198 17.5981H28.6411L28.7514 17.5736L28.8652 17.5631L28.9719 17.5562C28.9719 17.5562 28.9825 17.5736 28.9932 17.5736C29.011 17.5736 29.0679 17.6016 29.0643 17.6261C29.0643 17.6261 29.075 17.6331 29.075 17.6366C29.0679 17.6436 29.075 17.6926 29.0857 17.6856C29.1106 17.6646 29.1355 17.7066 29.1533 17.7381C29.1924 17.8115 29.2137 17.8955 29.1746 17.997C29.1746 18.004 29.1675 18.0075 29.1639 18.0145C29.1355 18.0529 29.0715 17.9305 29.0679 17.934C29.0608 17.934 28.9719 17.9725 28.9861 17.9935C28.9932 18.004 28.9683 18.0424 28.9683 18.0494C28.9683 18.0564 29.0643 18.0285 29.0679 18.018C29.0679 18.018 29.0857 18.018 29.0857 18.025C29.0786 18.0355 29.0288 18.0844 29.0145 18.0809C28.9719 18.0669 28.9932 18.1019 29.0252 18.1089C29.0928 18.1194 29.0643 18.1439 29.0466 18.1894C29.0394 18.2104 29.1213 18.1964 29.1141 18.2139C29.1141 18.2314 29.1141 18.2594 29.1141 18.2804C29.1141 18.2908 29.0715 18.3748 29.0999 18.3748C29.0999 18.3748 29.0999 18.3748 29.107 18.3748C29.1248 18.3853 29.1533 18.3328 29.1639 18.3433C29.1639 18.3433 29.1924 18.3433 29.2066 18.3433C29.2635 18.3608 29.2244 18.4133 29.2671 18.4273C29.2671 18.4273 29.3062 18.4273 29.3098 18.4273C29.3169 18.4203 29.3169 18.4063 29.3311 18.4098C29.3489 18.4168 29.356 18.4378 29.3773 18.4308H29.42C29.4342 18.4133 29.4449 18.3853 29.4627 18.3818C29.4698 18.3818 29.5089 18.3713 29.5089 18.3678C29.5232 18.3538 29.5445 18.3293 29.5658 18.3328C29.5801 18.3328 29.5872 18.3573 29.6014 18.3468C29.6263 18.3363 29.6156 18.3748 29.6156 18.3853C29.6156 18.3923 29.605 18.3958 29.6014 18.4028C29.6014 18.4133 29.6476 18.4413 29.6405 18.4518C29.6263 18.4833 29.6583 18.4798 29.6832 18.5008V18.5078C29.733 18.5392 29.6583 18.5707 29.6405 18.5672C29.6405 18.5672 29.5232 18.6057 29.5409 18.6197C29.5516 18.6302 29.5694 18.6372 29.5836 18.6372C29.5907 18.6372 29.6761 18.7107 29.6796 18.7282C29.6796 18.7282 29.6903 18.7597 29.6868 18.7631C29.6868 18.7806 29.7152 18.7736 29.7259 18.7701C29.733 18.7631 29.7543 18.7352 29.765 18.7387C29.7899 18.7457 29.7828 18.7562 29.797 18.7736C29.8041 18.7841 29.8219 18.7911 29.829 18.7981C29.8361 18.8086 29.8397 18.8576 29.8397 18.8681C29.8397 18.8681 29.8326 18.8751 29.8326 18.8786C29.8326 18.8786 29.8397 18.8786 29.8433 18.8926C29.8433 18.8926 29.8895 18.9381 29.9002 18.9416C29.9144 18.9416 29.9464 18.9101 29.95 18.9031C29.95 18.8856 29.95 18.8891 29.9642 18.8891C29.9891 18.8891 30.0211 18.9031 30.046 18.9241C30.0567 18.9311 30.0353 18.9486 30.0389 18.9521C30.046 18.9661 30.0744 18.9801 30.0887 18.9696C30.1064 18.9556 30.1776 18.9941 30.206 18.9906C30.2203 18.9906 30.2487 18.9976 30.2701 18.9906C30.2772 18.9906 30.2807 18.9766 30.2843 18.9696C30.2843 18.9696 30.2736 18.9381 30.2843 18.9416C30.3127 18.9521 30.2843 18.8506 30.3163 18.8611C30.327 18.8611 30.359 18.8366 30.3768 18.8366C30.3874 18.8366 30.4017 18.8576 30.4159 18.8471C30.4408 18.8611 30.455 18.8296 30.4763 18.8331C30.4977 18.8331 30.5048 18.8856 30.5439 18.8646C30.5617 18.8576 30.5653 18.8366 30.5759 18.8226C30.5759 18.8226 30.5902 18.8226 30.5902 18.8296C30.5902 18.8296 30.5973 18.8436 30.5973 18.8471C30.5902 18.8576 30.6079 18.8681 30.6079 18.8681C30.6079 18.8821 30.6008 18.8961 30.5973 18.9031C30.5973 18.9031 30.6079 18.9136 30.6115 18.9171C30.6115 18.9171 30.6115 18.9381 30.6115 18.9416C30.6115 18.9486 30.6542 18.9416 30.6613 18.9696C30.6613 18.9801 30.6399 18.9941 30.6293 19.0011C30.6115 19.008 30.5937 19.0011 30.5759 19.008C30.551 19.008 30.5333 18.9731 30.5084 18.9731C30.4977 18.9731 30.5084 18.9871 30.5084 18.9906C30.5012 19.0011 30.5226 19.0325 30.5155 19.0465C30.5012 19.064 30.4763 19.057 30.4621 19.057C30.4194 19.057 30.4799 19.0955 30.4835 19.099C30.4941 19.113 30.5119 19.1375 30.5261 19.1445C30.5332 19.1445 30.5332 19.197 30.5261 19.2005C30.519 19.2285 30.4835 19.2774 30.5155 19.3019C30.5155 19.3019 30.5155 19.3229 30.5155 19.3264C30.5155 19.3649 30.4514 19.3054 30.4443 19.3089C30.4443 19.3089 30.4443 19.3089 30.4372 19.3089C30.4301 19.3229 30.4123 19.3544 30.4088 19.3544C30.4088 19.3544 30.3874 19.3614 30.3839 19.3614C30.3803 19.3614 30.3768 19.3614 30.3768 19.3614C30.3483 19.3859 30.3945 19.3964 30.4052 19.4209C30.4052 19.4279 30.4159 19.4454 30.4194 19.4489C30.4266 19.4559 30.4906 19.4978 30.4906 19.4978C30.4763 19.5258 30.4977 19.5608 30.4621 19.5818C30.4621 19.5818 30.4443 19.5818 30.4408 19.5818C30.4265 19.5993 30.4408 19.6133 30.4408 19.6238C30.4337 19.6308 30.4586 19.6623 30.455 19.6728C30.455 19.6728 30.4799 19.6833 30.455 19.6938C30.3803 19.7252 30.4408 19.7777 30.4052 19.8127H30.3803C30.3554 19.8057 30.3483 19.7602 30.327 19.7462V19.7287C30.327 19.7287 30.3199 19.7287 30.3199 19.7218C30.3199 19.6868 30.3198 19.6483 30.2736 19.6273C30.2594 19.6203 30.2807 19.5923 30.2807 19.5853C30.2807 19.5853 30.2594 19.5468 30.2558 19.5468L30.2487 19.5048C30.2594 19.4769 30.2416 19.4349 30.2665 19.4139C30.2843 19.4034 30.3021 19.4069 30.2985 19.3859C30.2985 19.3684 30.2985 19.3404 30.2878 19.3264C30.2878 19.3194 30.295 19.3159 30.2985 19.3124C30.3092 19.3019 30.3092 19.2809 30.3127 19.2669C30.3127 19.2599 30.2665 19.2529 30.2629 19.2564C30.2523 19.2634 30.2629 19.2704 30.2629 19.2739C30.2629 19.2844 30.2167 19.3404 30.2167 19.3404C30.1918 19.3404 30.1669 19.2879 30.1491 19.2599L30.1313 19.2669C30.1136 19.2424 30.0744 19.2809 30.0602 19.2949C30.0602 19.2949 30.078 19.3334 30.078 19.3369C30.078 19.3369 30.0887 19.3509 30.0887 19.3544C30.0887 19.3649 30.1207 19.3824 30.1207 19.3894C30.1207 19.4069 30.046 19.4279 30.046 19.3964C30.046 19.3824 30.0282 19.3859 30.0175 19.3824C30.0069 19.3824 29.9357 19.4349 29.9251 19.4419C29.8788 19.4699 29.9464 19.4804 29.9428 19.4978C29.9428 19.5118 29.9606 19.5153 29.9677 19.5293C29.9677 19.5433 29.9571 19.5503 29.982 19.5608C29.9891 19.5608 29.9962 19.5678 30.0069 19.5608C30.0567 19.5783 30.0567 19.6028 30.0673 19.6378C30.0744 19.6588 30.0567 19.6518 30.0816 19.6693C30.0887 19.6693 30.0531 19.6693 30.0531 19.6833C30.0531 19.6903 30.0353 19.7113 30.0389 19.7183C30.0602 19.7392 29.9997 19.7742 30.0033 19.7917C30.0033 19.8092 29.9891 19.8407 29.9784 19.8512L29.9677 19.8617C29.9677 19.8617 29.8859 19.9492 29.8717 19.9562C29.8717 19.9631 29.861 19.9701 29.8575 19.9736C29.8504 19.9806 29.8397 19.9876 29.8326 19.9946H29.8148C29.8077 19.9946 29.8041 20.0086 29.797 20.0086C29.7899 20.0086 29.7757 20.0156 29.7686 20.0016C29.7579 19.9806 29.7437 19.9876 29.7366 20.0016C29.7259 19.9946 29.7188 19.9876 29.7081 19.9841C29.7081 19.9841 29.6654 20.0086 29.6654 20.0156C29.6654 20.0646 29.6583 20.0401 29.6299 20.0576L29.6121 20.0646C29.6121 20.0646 29.5658 20.0646 29.5516 20.0891C29.5445 20.1136 29.5516 20.0891 29.5445 20.1031C29.5445 20.1101 29.5729 20.1241 29.5658 20.1381C29.5658 20.1381 29.5765 20.1766 29.5801 20.1976C29.5943 20.243 29.5907 20.2395 29.5801 20.285C29.5801 20.2955 29.5516 20.334 29.5409 20.3305C29.5338 20.3305 29.5409 20.3305 29.5409 20.3235C29.5303 20.3305 29.516 20.313 29.516 20.3305C29.516 20.3305 29.4947 20.3305 29.4983 20.32C29.4983 20.32 29.4805 20.32 29.484 20.32C29.4911 20.32 29.4734 20.334 29.4734 20.327C29.4734 20.306 29.4662 20.334 29.4591 20.334C29.4342 20.334 29.4591 20.327 29.4591 20.3235C29.4591 20.313 29.4307 20.3445 29.4342 20.3235C29.4342 20.3235 29.4129 20.341 29.42 20.3235C29.42 20.313 29.4058 20.334 29.4022 20.3235C29.4022 20.3235 29.4093 20.3235 29.4093 20.313C29.4093 20.3025 29.42 20.327 29.42 20.313C29.42 20.306 29.4378 20.32 29.42 20.3025V20.2885C29.42 20.2885 29.4307 20.306 29.4271 20.2815C29.4271 20.271 29.4449 20.2675 29.4414 20.264C29.4342 20.257 29.452 20.257 29.452 20.257C29.452 20.257 29.452 20.229 29.452 20.222C29.452 20.222 29.4662 20.2011 29.452 20.208C29.4449 20.208 29.4342 20.1941 29.452 20.1941C29.452 20.1941 29.452 20.2045 29.4591 20.1941C29.4591 20.1941 29.4662 20.2011 29.4662 20.1941C29.4662 20.1801 29.4769 20.2115 29.4769 20.1941C29.4769 20.1941 29.4769 20.1941 29.4769 20.1871C29.4698 20.1871 29.4876 20.1661 29.4769 20.1661C29.4698 20.1661 29.4769 20.1521 29.4769 20.1591C29.4698 20.1591 29.4662 20.1591 29.4662 20.1591C29.4662 20.1591 29.452 20.1591 29.4449 20.1521C29.4236 20.1276 29.4449 20.1451 29.4271 20.1521C29.4058 20.1626 29.4342 20.1416 29.4271 20.1451C29.4271 20.1451 29.4093 20.1451 29.4129 20.1381C29.4129 20.1381 29.4414 20.1381 29.4058 20.1276C29.3951 20.1276 29.4129 20.1206 29.4129 20.1206C29.4129 20.1031 29.4342 20.1136 29.4307 20.0961C29.4307 20.0961 29.4485 20.0786 29.452 20.0716C29.452 20.0576 29.452 20.0611 29.4378 20.0471C29.4271 20.0401 29.4271 20.0611 29.4271 20.0471C29.4271 20.0331 29.4093 20.0331 29.4271 20.0191C29.4271 20.0191 29.3809 20.0191 29.3773 20.0191C29.3489 20.0051 29.3702 19.9981 29.388 19.9911C29.3951 19.9911 29.4022 19.9841 29.4093 19.9841C29.4413 19.9841 29.3844 19.9492 29.3809 19.9422C29.3667 19.9072 29.356 19.9422 29.3382 19.9422C29.3275 19.9422 29.3062 19.9422 29.2991 19.9492C29.2777 19.9666 29.2528 19.9736 29.228 19.9701C29.2173 19.9701 29.2102 19.9806 29.1995 19.9771C29.1924 19.9771 29.1853 20.0226 29.1853 20.0261C29.1746 20.0506 29.2031 20.0541 29.2031 20.0786C29.2031 20.0856 29.2102 20.1031 29.2173 20.1136C29.2031 20.1136 29.1817 20.1136 29.1675 20.1206C29.1533 20.1311 29.139 20.1486 29.139 20.1626C29.139 20.1906 29.1213 20.2045 29.1141 20.229C29.1141 20.2395 29.107 20.2675 29.1141 20.278C29.1141 20.278 29.1141 20.2885 29.1141 20.292C29.1141 20.2955 29.1141 20.292 29.1212 20.292C29.1284 20.3165 29.1568 20.348 29.1568 20.369C29.1568 20.404 29.1782 20.425 29.1355 20.4634C29.0964 20.4984 29.0608 20.5614 29.011 20.5754C28.9968 20.5754 28.9825 20.5929 28.9648 20.5964C28.9505 20.5964 28.9078 20.6349 28.8936 20.6279C28.8936 20.6279 28.8367 20.6524 28.826 20.6489C28.8189 20.6489 28.794 20.6489 28.7869 20.6489C28.7763 20.6489 28.7549 20.6419 28.7407 20.6489C28.7193 20.6489 28.6518 20.5964 28.6518 20.5999C28.6375 20.6139 28.6518 20.6244 28.6304 20.6419C28.6304 20.6419 28.6055 20.6244 28.602 20.6209C28.5842 20.6069 28.6411 20.5474 28.6126 20.5159V20.5054C28.6126 20.5054 28.5984 20.5054 28.5949 20.5054C28.5771 20.4949 28.5308 20.4704 28.5024 20.4879C28.4917 20.4984 28.4704 20.5019 28.4561 20.5124C28.4455 20.5194 28.4384 20.5439 28.4277 20.5544C28.4206 20.5544 28.4028 20.5684 28.4028 20.5789C28.4028 20.5999 28.4028 20.6314 28.4028 20.6559C28.4099 20.6664 28.3957 20.6769 28.3957 20.6838C28.3957 20.7188 28.3459 20.7433 28.3459 20.7783C28.3459 20.7888 28.3246 20.8343 28.3103 20.8273C28.3032 20.8273 28.2925 20.8273 28.2854 20.8273C28.2676 20.8343 28.2463 20.8133 28.2356 20.8168C28.2356 20.8168 28.2285 20.8168 28.225 20.8168C28.2107 20.8343 28.1894 20.7958 28.1787 20.8098C28.1787 20.8098 28.0898 20.8168 28.1396 20.7748C28.1574 20.7573 28.1645 20.7608 28.1716 20.7398V20.7223C28.1716 20.7223 28.1787 20.6978 28.1645 20.6873C28.1645 20.6873 28.1645 20.6594 28.1645 20.6559C28.1645 20.6384 28.1894 20.6139 28.1858 20.6034C28.1787 20.5894 28.1609 20.5789 28.1503 20.5684C28.1503 20.5684 28.1574 20.5509 28.1503 20.5439C28.1503 20.5369 28.1503 20.5334 28.1503 20.5229C28.1396 20.4949 28.2179 20.4424 28.1325 20.4355C28.1218 20.4355 28.1147 20.4355 28.1147 20.4459C28.1147 20.4704 28.0578 20.5229 28.0436 20.5194H28.0365C28.0187 20.5089 27.9867 20.5824 27.9831 20.5999C27.976 20.6174 28.008 20.6069 28.0116 20.6069C28.0756 20.6209 27.9973 20.6489 27.9902 20.6873V20.7223C27.9973 20.7293 27.9689 20.7643 27.976 20.7783C27.9831 20.7923 27.976 20.8028 27.976 20.8133C27.976 20.8238 27.9867 20.8308 27.976 20.8413C27.9618 20.8798 27.9262 20.8413 27.9262 20.8133C27.9262 20.7888 27.912 20.7958 27.9191 20.7678C27.9191 20.7608 27.9191 20.7503 27.9191 20.7468C27.9191 20.7433 27.9191 20.7223 27.9191 20.7223C27.9084 20.7083 27.9084 20.6908 27.9013 20.6769C27.9013 20.6664 27.9013 20.6559 27.9013 20.6489C27.9013 20.6349 27.8906 20.6209 27.9013 20.6069C27.9013 20.6069 27.9013 20.6069 27.9084 20.6069C27.9262 20.5824 27.9475 20.5719 27.9618 20.5474C27.9618 20.5474 27.9689 20.5474 27.9724 20.5404V20.5159C27.9724 20.4949 27.9973 20.4494 28.008 20.4459C28.0614 20.432 28.0756 20.39 28.0791 20.3445C28.0791 20.3375 28.072 20.3305 28.072 20.3305C28.0791 20.306 28.072 20.2955 28.0436 20.3025C28.0329 20.3025 27.8408 20.313 27.8373 20.3095L27.8551 20.3025L27.8906 20.32ZM30.0353 19.3194C30.0353 19.3194 30.0246 19.3194 30.0211 19.3194H30.0353ZM28.417 21.492L28.3743 21.513C28.3743 21.513 28.3743 21.4815 28.3743 21.478C28.3601 21.478 28.3352 21.52 28.3317 21.5165C28.3139 21.5095 28.3068 21.5025 28.3068 21.485C28.3068 21.471 28.321 21.464 28.3281 21.45C28.3388 21.4255 28.3281 21.3941 28.3672 21.3801C28.3743 21.3801 28.3779 21.3801 28.3886 21.3801C28.3992 21.3801 28.4348 21.3311 28.449 21.3311C28.4597 21.3311 28.4739 21.3311 28.481 21.3311C28.4953 21.3311 28.4988 21.2926 28.5095 21.3416C28.5166 21.3696 28.5842 21.3486 28.5842 21.3626C28.5842 21.3871 28.5344 21.3871 28.5344 21.3871C28.5344 21.3871 28.5273 21.3871 28.5237 21.3871C28.4988 21.3801 28.4704 21.3766 28.4455 21.3941C28.417 21.4115 28.4704 21.4255 28.4882 21.422C28.5202 21.415 28.4882 21.4745 28.4633 21.464C28.4562 21.457 28.4313 21.4535 28.4277 21.464C28.4277 21.464 28.4277 21.4815 28.4206 21.4955L28.417 21.492ZM28.2107 21.6215C28.2107 21.6215 28.2179 21.6355 28.2179 21.6424C28.225 21.6669 28.2641 21.6739 28.2748 21.6949C28.2854 21.7194 28.3246 21.7299 28.353 21.7299C28.3637 21.7299 28.385 21.7299 28.3957 21.7299C28.4135 21.7369 28.4028 21.7439 28.4064 21.7544C28.417 21.7929 28.3246 21.7544 28.3566 21.8069C28.3566 21.8069 28.3637 21.8244 28.3637 21.8279C28.3637 21.8349 28.3637 21.8489 28.3637 21.8524C28.3743 21.8734 28.4597 21.9153 28.4846 21.9013C28.5059 21.8908 28.5131 21.8664 28.5202 21.8489C28.5344 21.8069 28.5913 21.8034 28.6126 21.7719C28.6233 21.7579 28.6624 21.7649 28.6589 21.7789C28.6518 21.7964 28.6126 21.8699 28.5949 21.8699C28.5664 21.8699 28.5735 21.9153 28.5735 21.9293C28.5735 21.9433 28.5629 21.9503 28.5522 21.9503C28.5451 21.9503 28.5451 21.9643 28.5415 21.9643H28.5273C28.5273 21.9643 28.5024 21.9818 28.5095 21.9888C28.5166 21.9958 28.5522 22.0063 28.5486 22.0203C28.5486 22.0343 28.5131 22.0518 28.5024 22.0588C28.4953 22.0658 28.4419 22.0588 28.4384 22.0588C28.4384 22.0588 28.4028 22.1043 28.4028 22.0973C28.4028 22.0973 28.3886 22.1078 28.385 22.1078C28.3743 22.1078 28.353 22.0938 28.3459 22.1008C28.3246 22.1113 28.2463 22.1008 28.2285 22.0938C28.2179 22.0938 28.2072 22.0763 28.1965 22.0728C28.1681 22.0658 28.1325 22.0798 28.1076 22.0728C28.072 22.0623 28.0329 22.0273 28.0045 22.0238C27.9973 22.0238 27.9724 22.0028 27.9724 21.9993C27.9475 21.9888 27.9155 22.0133 27.8942 22.0098C27.8551 21.9993 27.8159 21.9783 27.7911 21.9503C27.7839 21.9503 27.759 21.9328 27.7519 21.9293C27.7448 21.9293 27.7377 21.9293 27.7306 21.9293C27.6274 21.9223 27.6488 21.9013 27.6132 21.8629C27.6025 21.8524 27.5634 21.8349 27.5492 21.8279C27.5136 21.8069 27.4532 21.7684 27.4283 21.7614C27.4283 21.7614 27.3998 21.7789 27.3963 21.7509C27.3963 21.7369 27.3678 21.7264 27.3678 21.7089C27.3678 21.6914 27.3963 21.6914 27.4069 21.6879C27.4176 21.6879 27.4425 21.6529 27.4283 21.6529C27.414 21.6529 27.4176 21.6005 27.414 21.5935C27.4069 21.5935 27.4461 21.576 27.4532 21.576C27.5101 21.583 27.5528 21.597 27.5883 21.6215C27.6061 21.632 27.6417 21.6529 27.6701 21.6355C27.7164 21.6005 27.7519 21.6424 27.8053 21.618C27.8337 21.6075 27.8693 21.6005 27.8978 21.5935C27.9226 21.5865 27.9511 21.5935 27.976 21.5935C28.0045 21.6005 27.9867 21.618 27.976 21.6355L27.9618 21.6599C27.9796 21.6704 28.0187 21.6739 28.04 21.6669C28.0542 21.6669 28.0542 21.6494 28.0614 21.6424L28.072 21.6634L28.0614 21.6215C28.0614 21.6215 28.0614 21.6215 28.0614 21.6145C28.0898 21.6005 28.1218 21.5725 28.1467 21.569C28.1716 21.569 28.2036 21.597 28.2143 21.611L28.2107 21.6215ZM27.9831 21.3276L27.9724 21.2891C27.9724 21.2891 27.9796 21.2961 27.9796 21.2996C27.9796 21.2996 27.9796 21.3136 27.9796 21.3276H27.9831ZM27.9084 21.0197L27.8266 20.7013C27.8266 20.7013 27.8337 20.6769 27.8337 20.6664C27.8337 20.6524 27.8231 20.6384 27.8408 20.6454C27.848 20.6454 27.8551 20.6454 27.8622 20.6524C27.8764 20.6594 27.8942 20.6664 27.8942 20.6804C27.8942 20.6908 27.8835 20.6943 27.8835 20.7048C27.8835 20.7048 27.8835 20.7258 27.8835 20.7293C27.8835 20.7433 27.9049 20.7643 27.9084 20.7783C27.9084 20.7923 27.8942 20.8098 27.8942 20.8238C27.8942 20.8343 27.9262 20.8413 27.9298 20.8588C27.9369 20.8973 27.8835 20.8938 27.9155 20.9532C27.9155 20.9602 27.9155 20.9777 27.9155 20.9847C27.9155 20.9847 27.9369 21.0162 27.9226 21.0162C27.9155 21.0162 27.9084 21.0162 27.9049 21.0267L27.9084 21.0197ZM29.5765 20.4424V20.4529H29.5872H29.5943V20.4459H29.5872L29.5765 20.4424ZM29.5765 20.425V20.432V20.4145V20.4215L29.5836 20.4285L29.5765 20.425ZM29.5552 20.4145V20.4215V20.411V20.4145ZM29.5409 20.425H29.548V20.432H29.5374V20.425H29.5409ZM29.5765 20.4634V20.4774L29.5836 20.4704L29.5765 20.4634ZM29.6121 20.5089L29.605 20.5159V20.5299V20.5229L29.6121 20.5124V20.5054V20.5089ZM29.5943 20.5229V20.5299H29.5872V20.5229H29.5943ZM29.5836 20.362V20.369H29.5765V20.362H29.5836ZM29.5978 20.3515L29.5907 20.3585V20.3515H29.5978ZM29.669 20.418H29.6761L29.6832 20.411L29.6939 20.4005V20.3935H29.701V20.4005H29.7188L29.7259 20.39L29.733 20.383H29.7401L29.7472 20.39H29.7543V20.4005V20.411H29.7472L29.7366 20.4215L29.7259 20.432L29.7188 20.4215H29.7045L29.6974 20.4285V20.439L29.6868 20.4459H29.6796V20.439H29.669V20.432H29.6761V20.425H29.669H29.6619L29.669 20.418ZM29.7721 20.3795L29.765 20.3865V20.3935V20.383L29.7721 20.3795ZM29.637 20.39H29.6583L29.6654 20.397V20.3795H29.6761V20.39L29.6939 20.383H29.7188L29.7294 20.376H29.7437H29.7508H29.765L29.7579 20.3865H29.7508V20.4005V20.4075V20.4145L29.7615 20.425H29.7721L29.7792 20.418H29.7863L29.7935 20.404L29.8006 20.3935H29.8219L29.8148 20.383H29.8077V20.376L29.8148 20.3655H29.8219V20.376H29.829H29.8397L29.8326 20.383H29.8717H29.8788V20.376L29.8895 20.369H29.9002V20.376H29.9073V20.362H29.9144H29.9215V20.348H29.9322L29.9251 20.3585V20.369H29.9322H29.9393L29.9464 20.3585V20.3515L29.9535 20.3445H29.9642V20.334V20.32V20.313L29.9713 20.2955L29.9784 20.285V20.25V20.2395H29.9855H29.9926V20.2465H30.0033V20.222L30.0175 20.2045V20.1941L30.0246 20.1801V20.1661L30.014 20.1556L30.0069 20.1451V20.1276L30.014 20.1171H30.0033H29.9962V20.1241H30.0033V20.1346V20.1276L29.9962 20.1206V20.1276L29.9891 20.1381H29.9749V20.1486V20.1591V20.1661H29.9606V20.1766V20.1836V20.2045L29.95 20.2255L29.9393 20.243H29.9322H29.9251L29.9179 20.2535L29.9108 20.2675L29.9002 20.2745H29.8788V20.2815L29.8717 20.2885H29.861V20.2745H29.8682L29.8753 20.2675H29.8824H29.861L29.8539 20.2745V20.2815L29.8468 20.2955V20.3025H29.8397L29.829 20.3165L29.8219 20.3235V20.334V20.3445H29.8148H29.8077L29.8148 20.3375H29.8077H29.8006H29.7615H29.7437H29.7152L29.701 20.348L29.6939 20.355L29.6796 20.3655H29.6725H29.6619H29.6476V20.376V20.383H29.6548L29.637 20.39ZM29.9073 20.2395V20.25V20.257V20.264H29.9215V20.257V20.2465V20.2395H29.9073ZM29.9144 20.404H29.9073V20.411H29.9144V20.404ZM30.0104 20.1171L30.0033 20.1101L29.9926 20.1031H29.982V20.0961V20.0891V20.0821H29.9962L30.0033 20.0926H30.0104L30.0175 20.0856H30.0318L30.0389 20.0926H30.0531V20.0996L30.0638 20.1101L30.078 20.1206H30.0851V20.1101V20.0961H30.0922V20.0856H30.0993H30.1064H30.1278H30.1385V20.0786H30.1598V20.0681H30.1491H30.1385V20.0541H30.1313V20.0436L30.1385 20.0366V20.0296H30.1278L30.1207 20.0401H30.1064L30.0993 20.0331H30.0887H30.0816H30.0744L30.0638 20.0191L30.0531 20.0086L30.046 19.9946L30.0389 19.9876L30.0246 19.9666H30.0175L30.0104 19.9736V19.9806V20.0016V20.0086L30.0033 20.0226L29.9926 20.0366V20.0576H29.9713V20.0471V20.0611V20.0681H29.9535V20.0751V20.0961H29.9606V20.1171V20.1101H29.9749H29.982L30.0104 20.1171ZM30.2025 20.0541V20.0611H30.2131L30.206 20.0541H30.2025ZM30.2238 20.0471H30.2309V20.0401H30.238V20.0471H30.2309L30.2238 20.0541H30.2167V20.0471H30.2238ZM30.1669 20.0471L30.1776 20.0366L30.1847 20.0226L30.1954 20.0086H30.2025H30.2203L30.2131 20.0156H30.1954L30.1883 20.0296L30.1811 20.0366V20.0471H30.1669ZM30.238 20.0051H30.2452H30.2558V19.9946L30.2629 19.9876H30.2701L30.2807 19.9771H30.2914L30.2985 19.9666V19.9562H30.2914V19.9631L30.2772 19.9701H30.2665L30.2594 19.9841H30.2523L30.2452 19.9946L30.238 20.0016H30.2274V20.0086V20.0156L30.238 20.0051ZM29.5125 20.5999H29.5054V20.6069H29.5125V20.5999ZM29.4876 20.6209V20.6279H29.4947V20.6174L29.4876 20.6209ZM29.4414 20.6559V20.6629V20.6699H29.4165V20.6769L29.4093 20.6873H29.3987V20.6769L29.4093 20.6699H29.42L29.4307 20.6629L29.4414 20.6559ZM29.2706 20.7013V20.7083H29.2777V20.7013H29.2706ZM29.2244 20.6943V20.7013L29.2173 20.7083V20.7013L29.2244 20.6943ZM29.1924 20.6943H29.1853V20.7013H29.1959H29.2031V20.6943H29.1924ZM29.2422 20.6943L29.2351 20.7013V20.6943H29.2422ZM28.0969 21.422C28.0969 21.422 28.0863 21.3766 28.072 21.3801C28.0578 21.3801 28.008 21.3696 28.0293 21.4011C28.0293 21.4011 28.0293 21.415 28.0293 21.422C28.0365 21.429 28.1112 21.4815 28.1183 21.4465C28.1183 21.4185 28.1005 21.429 28.0934 21.422H28.0969ZM28.3957 21.0967C28.3957 21.1247 28.3957 21.1387 28.3957 21.1631C28.3957 21.1806 28.4241 21.1981 28.4028 21.2121C28.3957 21.2121 28.385 21.2121 28.3743 21.2121C28.3672 21.2121 28.3601 21.2121 28.353 21.2121C28.3388 21.2051 28.3317 21.1946 28.3246 21.1946C28.3174 21.1946 28.3317 21.2226 28.3246 21.2261C28.3139 21.2366 28.3068 21.2261 28.3068 21.2331C28.3068 21.2576 28.3388 21.3241 28.3068 21.3311C28.2676 21.3451 28.2499 21.2996 28.2143 21.3311C28.2143 21.3311 28.2036 21.3311 28.2001 21.3311C28.1894 21.3311 28.1716 21.3486 28.1645 21.3486C28.1574 21.3486 28.1467 21.3346 28.1361 21.3416C28.1361 21.3416 28.1005 21.3311 28.0969 21.3276C28.0969 21.3276 28.104 21.3101 28.1076 21.3031C28.1076 21.2961 28.072 21.2611 28.0685 21.2576C28.0685 21.2576 28.0685 21.2401 28.0614 21.2366C28.0614 21.2296 28.0471 21.2261 28.04 21.2226C28.0151 21.2016 28.04 21.1562 28.04 21.1422C28.0329 21.1037 28.0542 21.0722 28.0756 21.0477C28.0863 21.0372 28.104 21.0792 28.104 21.0827C28.1112 21.0897 28.1609 21.1142 28.1645 21.1037C28.1823 21.0512 28.2214 21.1037 28.2534 21.1177C28.2605 21.1177 28.2854 21.1282 28.289 21.1387C28.289 21.1457 28.3103 21.0862 28.3352 21.0862C28.353 21.0862 28.3743 21.0722 28.3921 21.0687C28.3921 21.0687 28.417 21.0687 28.4135 21.0757C28.4064 21.0827 28.3957 21.0862 28.3957 21.0967ZM28.5913 21.1911C28.5913 21.1911 28.5913 21.1736 28.5913 21.1701C28.5913 21.1701 28.5806 21.1631 28.5806 21.1701C28.5557 21.2016 28.5131 21.1701 28.4846 21.1701C28.4775 21.1701 28.4846 21.1911 28.4953 21.2121C28.4953 21.2121 28.4953 21.2261 28.4953 21.2331C28.4953 21.2331 28.5059 21.2436 28.5095 21.2471C28.5166 21.2576 28.5202 21.2646 28.5237 21.2681C28.5415 21.2751 28.5557 21.2366 28.5735 21.2401C28.5984 21.2401 28.602 21.2261 28.5984 21.2121C28.5984 21.2051 28.5984 21.1946 28.5913 21.1911ZM28.5913 21.1317C28.5913 21.1317 28.5415 21.1527 28.5415 21.1492C28.5202 21.1492 28.5344 21.1142 28.5486 21.1072C28.5593 21.1072 28.5913 21.1247 28.5913 21.1317ZM28.6624 21.1247C28.6624 21.1247 28.6624 21.1037 28.6447 21.1142C28.5842 21.1457 28.6553 21.1841 28.6696 21.1422L28.6624 21.1317V21.1247ZM28.5984 21.0302C28.5664 21.0057 28.5344 21.0967 28.57 21.0757C28.5771 21.0757 28.6055 21.0862 28.6091 21.0652L28.5984 21.0302ZM28.7727 20.9357C28.7727 20.9357 28.73 20.9777 28.7265 20.9952C28.7265 21.0092 28.6909 21.0232 28.7051 21.0267C28.7193 21.0267 28.7549 21.0442 28.73 21.0547C28.7051 21.0617 28.7158 21.0967 28.6909 21.0967C28.6731 21.0967 28.6767 21.0722 28.6731 21.0652C28.6731 21.0652 28.6838 21.0477 28.6802 21.0372C28.6731 21.0162 28.6447 21.0477 28.6375 21.0512C28.6269 21.0512 28.6162 21.0372 28.6304 21.0302C28.6411 21.0302 28.6518 21.0022 28.6553 20.9952C28.6553 20.9882 28.634 20.9672 28.6624 20.9742C28.6873 20.9742 28.7087 20.9392 28.7229 20.9322C28.7371 20.9217 28.7549 20.9078 28.7656 20.9008C28.7869 20.8868 28.7798 20.9183 28.7834 20.9252C28.7834 20.9252 28.7763 20.9322 28.7727 20.9357ZM30.1207 19.6203V19.6413C30.1254 19.6576 30.1254 19.6693 30.1207 19.6763C30.1207 19.6763 30.1278 19.6973 30.1278 19.7008C30.1278 19.7078 30.1456 19.7357 30.142 19.7462C30.142 19.7462 30.1598 19.7917 30.1491 19.7882C30.1278 19.7812 30.1136 19.7532 30.0958 19.7532C30.0816 19.7532 30.0958 19.8092 30.0958 19.8162C30.0958 19.8232 30.1136 19.8687 30.1207 19.8722C30.1278 19.8827 30.1527 19.9282 30.1349 19.9177C30.1242 19.9177 30.0993 19.8932 30.0958 19.8967C30.0887 19.9037 30.0673 19.9527 30.0495 19.9212C30.0495 19.9142 30.0495 19.9072 30.0495 19.9002C30.0495 19.8687 30.0673 19.8337 30.0567 19.8057C30.0567 19.7987 30.0495 19.7952 30.0567 19.7847C30.0744 19.7637 30.0744 19.7567 30.0816 19.7427C30.0887 19.7357 30.0816 19.7287 30.0816 19.7252C30.0709 19.7148 30.0709 19.7008 30.0744 19.6868C30.0744 19.6728 30.0744 19.6448 30.0744 19.6413C30.0744 19.5958 30.0887 19.5818 30.0922 19.5818C30.0993 19.5818 30.1064 19.5958 30.1064 19.5993C30.1064 19.6098 30.1064 19.6168 30.1064 19.6203H30.1207ZM29.4911 20.3305C29.4911 20.3305 29.4769 20.3375 29.4983 20.341C29.516 20.341 29.4983 20.3235 29.4983 20.334C29.4911 20.334 29.4983 20.341 29.4983 20.334L29.4911 20.3305ZM29.5196 20.3515C29.5196 20.3515 29.5338 20.3235 29.5196 20.334C29.5196 20.334 29.5196 20.334 29.5125 20.334V20.3515H29.5196ZM29.4093 20.383C29.4093 20.383 29.3631 20.39 29.3987 20.39C29.3987 20.39 29.4129 20.39 29.4093 20.383ZM29.4769 20.1696H29.484C29.4769 20.1836 29.4698 20.1801 29.4769 20.1696ZM29.6725 20.1941C29.6725 20.1941 29.6654 20.1941 29.6619 20.1941V20.2045C29.6619 20.2045 29.669 20.2045 29.6725 20.2045V20.1941ZM27.6274 20.7748L27.7768 21.0757C27.7768 21.0757 27.7484 21.1107 27.7306 21.0862C27.7235 21.0757 27.7235 21.0792 27.7164 21.0862C27.6915 21.1107 27.6595 21.0162 27.6666 21.0022V20.9882C27.6666 20.9882 27.6666 20.9707 27.6666 20.9672C27.6666 20.9218 27.6061 20.9078 27.6203 20.8658V20.7853C27.6203 20.7853 27.6203 20.7783 27.6203 20.7748H27.6274ZM27.8159 21.1946C27.8159 21.2261 27.8266 21.2786 27.8729 21.2681L27.88 21.2856C27.88 21.2856 27.88 21.3136 27.88 21.3171C27.88 21.3241 27.8942 21.3276 27.9013 21.3311L27.9191 21.3661C27.9191 21.3941 27.9191 21.429 27.9084 21.429C27.8978 21.429 27.8586 21.3416 27.8408 21.3346C27.8408 21.3346 27.8408 21.2996 27.8337 21.2961C27.8053 21.2751 27.7697 21.2961 27.7555 21.2681C27.7555 21.2611 27.7555 21.2471 27.7555 21.2366C27.7555 21.2191 27.7484 21.1981 27.7413 21.1806C27.7413 21.1736 27.8159 21.1387 27.8088 21.1981L27.8159 21.1946ZM29.0537 21.7964C29.0537 21.7964 29.0786 21.8104 29.0928 21.8069C29.1141 21.8069 29.1212 21.8174 29.1177 21.8279C29.1177 21.8664 29.075 21.8454 29.0537 21.8559C28.9968 21.8769 28.9683 21.8489 28.9327 21.8349C28.9256 21.8349 28.9043 21.8629 28.9007 21.8629C28.8936 21.8629 28.8545 21.8489 28.8474 21.8314C28.8403 21.8139 28.8474 21.7929 28.8367 21.7824C28.8189 21.7684 28.7869 21.7334 28.794 21.7089C28.794 21.7019 28.7727 21.6844 28.7371 21.6774C28.7122 21.6774 28.7051 21.6459 28.6838 21.6459C28.6696 21.6459 28.6553 21.6459 28.6553 21.6355C28.6553 21.618 28.6482 21.604 28.6553 21.604C28.6696 21.604 28.698 21.59 28.7087 21.618C28.7087 21.632 28.7905 21.6529 28.7869 21.618C28.7869 21.611 28.8083 21.5935 28.8118 21.59C28.8438 21.59 28.8794 21.618 28.9078 21.6285C28.9221 21.6355 28.915 21.6424 28.9185 21.6564C28.9185 21.6739 28.9363 21.6879 28.9399 21.7019C28.947 21.7229 28.9541 21.7649 28.9861 21.7649C29.0146 21.7649 29.0288 21.8069 29.0572 21.7929L29.0537 21.7964ZM28.7442 21.5655V21.576C28.7442 21.576 28.7371 21.576 28.7336 21.576C28.7336 21.576 28.7229 21.583 28.7193 21.583C28.7122 21.583 28.698 21.583 28.6909 21.576C28.6909 21.576 28.6589 21.576 28.6553 21.576C28.6518 21.576 28.6482 21.569 28.6447 21.569C28.6447 21.555 28.666 21.541 28.6553 21.5235C28.6624 21.506 28.6731 21.5095 28.6838 21.5165C28.698 21.5235 28.7158 21.5165 28.7265 21.5305C28.7265 21.5305 28.7336 21.5445 28.7336 21.548C28.7336 21.548 28.7336 21.555 28.7336 21.5585H28.7407L28.7442 21.5655ZM28.3708 21.5375C28.3708 21.5375 28.3708 21.5515 28.3779 21.555C28.4028 21.5725 28.4099 21.5445 28.4135 21.52L28.3708 21.5375ZM29.5907 17.6541L29.6548 17.6681L29.7615 17.6961L29.8717 17.7311L29.9784 17.7696L30.0816 17.815L30.1847 17.8605L30.1918 17.8675C30.1918 17.8675 30.1669 17.899 30.174 17.906C30.1811 17.913 30.1598 17.941 30.1562 17.9375C30.1491 17.9235 30.1278 17.9375 30.1171 17.9445C30.11 17.9515 30.0851 17.9865 30.0709 17.9795C30.0602 17.9795 30.0495 17.9655 30.0389 17.9585C30.0389 17.9585 30.0318 17.9655 30.0282 17.969C30.0069 17.969 29.982 17.9375 29.9606 17.9305C29.9428 17.9305 29.9073 17.9305 29.8895 17.9305C29.8682 17.9305 29.8219 17.899 29.8148 17.913C29.797 17.9375 29.7935 17.92 29.7828 17.927C29.7615 17.9375 29.765 17.927 29.7615 17.9165C29.7472 17.892 29.733 17.962 29.6974 17.9585C29.6832 17.9585 29.6476 17.9585 29.637 17.948C29.6299 17.941 29.637 17.934 29.637 17.9305C29.6512 17.913 29.6014 17.899 29.5978 17.885C29.5978 17.878 29.5978 17.8605 29.5978 17.85C29.5978 17.8395 29.5516 17.822 29.5978 17.815C29.6192 17.808 29.6263 17.7941 29.6121 17.7696C29.5978 17.7486 29.5694 17.7311 29.5587 17.7101C29.5516 17.6996 29.5729 17.6716 29.5801 17.6506L29.5907 17.6541ZM30.4159 17.9795L30.4906 18.025L30.583 18.0914L30.6755 18.1614L30.7644 18.2349L30.8498 18.3118L30.9316 18.3958L31.0098 18.4798L31.0347 18.5113C31.0347 18.5113 31.0276 18.5113 31.0241 18.5113C31.0098 18.5113 30.9956 18.5217 30.9778 18.5217C30.9672 18.5217 30.9707 18.4798 30.9352 18.4728C30.928 18.4728 30.9245 18.4938 30.9174 18.4973C30.896 18.5113 30.8818 18.4973 30.8818 18.5043C30.8711 18.5148 30.8498 18.5427 30.832 18.5497C30.8213 18.5567 30.8213 18.5287 30.8071 18.5252C30.7858 18.5113 30.7858 18.5812 30.7893 18.5882C30.7893 18.5952 30.7787 18.6092 30.7787 18.6197C30.7787 18.6337 30.7787 18.6442 30.7715 18.6547C30.7644 18.6617 30.7929 18.6792 30.7929 18.6792C30.8249 18.7387 30.8071 18.7841 30.8249 18.8436C30.8356 18.8716 30.7644 18.9031 30.7715 18.8786C30.7787 18.8576 30.7858 18.7841 30.7715 18.7736C30.7609 18.7666 30.7538 18.7317 30.7573 18.7282L30.7431 18.7177C30.7289 18.6967 30.7538 18.7002 30.7538 18.6862C30.7538 18.6757 30.7146 18.6722 30.7075 18.6757C30.6897 18.6932 30.6755 18.7142 30.6684 18.7387C30.6542 18.7946 30.6506 18.7527 30.6293 18.7631C30.6079 18.7736 30.6008 18.7631 30.583 18.7562C30.5759 18.7562 30.5581 18.7701 30.551 18.7666C30.4941 18.7457 30.5653 18.7177 30.5581 18.6827C30.5581 18.6827 30.5581 18.6722 30.5581 18.6687C30.5581 18.6582 30.5581 18.6582 30.5581 18.6477C30.5581 18.6197 30.4977 18.6582 30.4977 18.6862C30.4977 18.7072 30.4763 18.6932 30.4835 18.6757C30.4835 18.6617 30.4479 18.6197 30.4372 18.6092C30.4372 18.6092 30.4443 18.5777 30.4479 18.5742C30.455 18.5672 30.4479 18.5287 30.4586 18.5287C30.5048 18.5148 30.4799 18.5113 30.5119 18.4938C30.5119 18.4938 30.4799 18.4483 30.4835 18.4413C30.4977 18.4098 30.519 18.4308 30.5333 18.3993C30.5333 18.3853 30.5653 18.3853 30.5546 18.3573L30.5688 18.3118C30.5581 18.3013 30.5546 18.2908 30.5475 18.2838C30.5333 18.2629 30.4906 18.2279 30.4657 18.2139C30.4301 18.1964 30.423 18.1929 30.455 18.1684C30.4799 18.1474 30.4408 18.1194 30.4621 18.1054C30.4692 18.0984 30.4941 18.0914 30.5012 18.0809C30.519 18.0564 30.4266 18.011 30.423 17.997C30.423 17.9865 30.423 17.983 30.423 17.976L30.4159 17.9795ZM26.7134 19.1445L26.7383 19.085L26.7881 18.9836C26.813 19.0045 26.8379 19.029 26.8379 19.029C26.8379 19.0465 26.845 19.043 26.8592 19.0535C26.8592 19.0535 26.8521 19.078 26.8592 19.0815C26.8663 19.106 26.7774 19.127 26.7703 19.134C26.7703 19.134 26.7703 19.141 26.7632 19.141C26.7489 19.141 26.7418 19.141 26.7312 19.141H26.7134V19.1445Z" fill="white"/>
<path d="M30.5225 17.2134C31.4899 17.7382 32.1514 18.7527 32.1514 19.9178C32.1514 21.6145 30.743 23.0035 29.0144 23.0035C28.4738 23.0035 27.9617 22.867 27.5171 22.6256L27.6736 22.3422C28.0719 22.5592 28.5307 22.6781 29.0144 22.6781C30.5616 22.6781 31.8207 21.4396 31.8207 19.9213C31.8207 18.8787 31.2303 17.9691 30.366 17.5003L30.5225 17.2169V17.2134Z" fill="#75CF1D"/>
<path d="M30.5656 17L30.6972 17.091L30.0606 18.2385L29.9219 18.1545L30.5656 17Z" fill="#75CF1D"/>
<path d="M8.64204 17.6963L6.71076 21.0794H8.43575V21.9645H5.92829H5L6.94906 18.5639H5.38768V17.6963H8.64204Z" fill="#75CF1D"/>
</g>
<circle cx="20" cy="20" r="19.5" stroke="black" stroke-opacity="0.05"/>
<defs>
<clipPath id="clip0_18553_55897">
<rect width="31" height="6" fill="white" transform="translate(5 17)"/>
</clipPath>
</defs>
</svg>
