<svg width="40" height="40" viewBox="0 0 40 40" fill="none" xmlns="http://www.w3.org/2000/svg">
<circle cx="20" cy="20" r="20" fill="#C70750"/>
<path d="M15.538 17.0935H12.6211C12.6143 17.0935 12.6079 17.0908 12.6031 17.086C12.5984 17.0813 12.5957 17.0748 12.5957 17.0681V16.5283C12.5957 16.5216 12.5984 16.5151 12.6031 16.5104C12.6079 16.5056 12.6143 16.5029 12.6211 16.5029H20.1327C20.1394 16.5029 20.1458 16.5056 20.1506 16.5104C20.1553 16.5151 20.158 16.5216 20.158 16.5283V17.0681C20.158 17.0748 20.1553 17.0813 20.1506 17.086C20.1458 17.0908 20.1394 17.0935 20.1327 17.0935H17.2151C17.2084 17.0935 17.202 17.0961 17.1972 17.1009C17.1924 17.1056 17.1898 17.1121 17.1898 17.1188V22.5852C17.1898 22.5919 17.1871 22.5983 17.1824 22.6031C17.1776 22.6078 17.1712 22.6105 17.1644 22.6105H15.5887C15.582 22.6105 15.5755 22.6078 15.5708 22.6031C15.566 22.5983 15.5634 22.5919 15.5634 22.5852V17.1188C15.5634 17.1121 15.5607 17.1056 15.5559 17.1009C15.5512 17.0961 15.5447 17.0935 15.538 17.0935Z" fill="white"/>
<path d="M22.1748 19.2538H25.862C25.868 19.253 25.8741 19.2535 25.8798 19.2554C25.8855 19.2573 25.8907 19.2605 25.8949 19.2647C25.8992 19.269 25.9024 19.2742 25.9043 19.2799C25.9062 19.2856 25.9067 19.2917 25.9058 19.2976V19.8161C25.9064 19.8201 25.906 19.8241 25.9048 19.8279C25.9035 19.8317 25.9015 19.8351 25.8987 19.8379C25.8959 19.8408 25.8925 19.8429 25.8887 19.8443C25.885 19.8456 25.881 19.846 25.877 19.8455H22.1604C22.1566 19.8455 22.1529 19.8461 22.1494 19.8475C22.1459 19.8489 22.1427 19.851 22.1401 19.8536C22.1374 19.8562 22.1352 19.8594 22.1338 19.8628C22.1323 19.8663 22.1316 19.87 22.1316 19.8738V21.8038C22.1316 21.8572 22.1528 21.9084 22.1904 21.9462C22.2281 21.984 22.2793 22.0053 22.3327 22.0054H27.0431C27.0491 22.0046 27.0551 22.0051 27.0608 22.007C27.0666 22.0089 27.0717 22.0121 27.076 22.0163C27.0802 22.0206 27.0835 22.0258 27.0853 22.0315C27.0872 22.0372 27.0878 22.0433 27.0869 22.0492V22.581C27.0875 22.5852 27.0871 22.5895 27.0857 22.5936C27.0843 22.5976 27.0821 22.6013 27.079 22.6043C27.076 22.6073 27.0724 22.6095 27.0683 22.6109C27.0643 22.6123 27.06 22.6127 27.0558 22.6121C25.2095 22.6075 23.3436 22.6075 21.4581 22.6121C21.2922 22.6197 21.1266 22.5926 20.9718 22.5326C20.5968 22.3598 20.4867 22.0141 20.4873 21.6183C20.4915 20.1276 20.4925 18.7161 20.4902 17.3837C20.4902 16.8652 20.8313 16.4982 21.3544 16.4988C23.2718 16.5026 25.173 16.5026 27.0581 16.4988C27.0667 16.4988 27.075 16.5022 27.0811 16.5082C27.0872 16.5142 27.0908 16.5224 27.0909 16.531V17.0645C27.0914 17.0685 27.091 17.0725 27.0897 17.0763C27.0883 17.08 27.0862 17.0834 27.0833 17.0862C27.0805 17.089 27.0771 17.0911 27.0733 17.0923C27.0695 17.0936 27.0655 17.0939 27.0615 17.0933H22.362C22.2084 17.0933 22.1316 17.1702 22.1316 17.3238V19.2106C22.1307 19.2165 22.1312 19.2225 22.1331 19.2281C22.1349 19.2338 22.1381 19.2389 22.1423 19.2431C22.1465 19.2473 22.1516 19.2505 22.1573 19.2523C22.1629 19.2542 22.1689 19.2547 22.1748 19.2538Z" fill="white"/>
<path d="M33.9999 16.504V17.094H29.2848C29.1342 17.094 29.0589 17.1692 29.0589 17.3198V21.7889C29.0589 21.9348 29.1317 22.0074 29.2773 22.0066H34.0016V22.6121C32.1411 22.6121 30.2796 22.6121 28.4171 22.6121C28.1907 22.6121 28.0179 22.5868 27.8986 22.5355C27.5698 22.3915 27.4051 22.0932 27.4043 21.6408C27.4043 19.7415 27.4043 18.3223 27.4043 17.3832C27.4043 17.0421 27.584 16.6918 27.9136 16.5622C28.0511 16.5185 28.1952 16.499 28.3394 16.5046C30.2268 16.5023 32.1136 16.5021 33.9999 16.504Z" fill="white"/>
<path d="M6 22.6075V22.5775C7.25827 20.6079 8.51347 18.6385 9.7656 16.6693C9.89868 16.4601 10.1389 16.4717 10.2726 16.6745C11.5723 18.6521 12.8679 20.6181 14.1592 22.5723C14.1759 22.5971 14.169 22.6098 14.139 22.6098H12.2954C12.2862 22.6101 12.2771 22.608 12.269 22.6036C12.2609 22.5993 12.2541 22.5928 12.2493 22.585C11.4043 21.3021 10.5413 19.9916 9.66016 18.6535C9.52881 18.4518 9.32198 18.3821 9.16872 18.6201C8.33525 19.9298 7.49353 21.2501 6.64354 22.581C6.6387 22.5891 6.63177 22.5958 6.62346 22.6004C6.61515 22.6049 6.60577 22.6072 6.5963 22.6069L6 22.6075Z" fill="white"/>
<circle cx="20" cy="20" r="19.5" stroke="black" stroke-opacity="0.05"/>
</svg>
