<svg width="40" height="40" viewBox="0 0 40 40" fill="none" xmlns="http://www.w3.org/2000/svg">
<circle cx="20" cy="20" r="20" fill="#442279"/>
<path d="M25.4651 24.7488H12.6082C12.4567 24.7488 12.3115 24.6887 12.2044 24.5816C12.0973 24.4745 12.0371 24.3292 12.0371 24.1777C12.0371 24.4922 12.2928 24.8956 12.6082 25.0783L25.4651 32.5015C25.7806 32.6824 26.0354 32.5743 26.0354 32.2589V24.7032C26.0332 24.607 26.0136 24.512 25.9773 24.4228C25.9314 24.52 25.8589 24.6021 25.7683 24.6598C25.6776 24.7175 25.5725 24.7484 25.465 24.7488" fill="#EC0382"/>
<path d="M25.4651 23.8034L19.57 20.3994L12.6082 24.4194C12.2928 24.6012 12.0371 24.4932 12.0371 24.1777C12.037 24.2528 12.0517 24.3272 12.0803 24.3966C12.109 24.4659 12.151 24.529 12.2041 24.5821C12.2571 24.6353 12.3201 24.6774 12.3895 24.7062C12.4588 24.7349 12.5331 24.7497 12.6082 24.7497H25.4651C25.69 24.7497 25.8869 24.6152 25.9774 24.4237C25.8788 24.1666 25.6989 23.9488 25.4651 23.8034Z" fill="#801C8F"/>
<path d="M26.0343 8.53996C26.0343 8.22538 25.7794 8.11639 25.4649 8.2992L12.6071 15.7222C12.2917 15.9032 12.0352 16.3066 12.0352 16.6211C12.0356 16.4698 12.0961 16.3248 12.2033 16.2181C12.3106 16.1113 12.4558 16.0515 12.6071 16.0517H25.464C25.6889 16.0517 25.8849 16.1836 25.9762 16.376C26.0123 16.2871 26.0319 16.1925 26.0343 16.0966V8.53996Z" fill="#FAB220"/>
<path d="M25.4651 16.0513H12.6082C12.4569 16.0513 12.3118 16.1113 12.2047 16.2182C12.0976 16.3252 12.0373 16.4702 12.0371 16.6215C12.0371 16.3061 12.2928 16.1989 12.6082 16.3808L19.57 20.3999L25.466 16.9959C25.69 16.8658 25.8869 16.6206 25.9773 16.3756C25.9313 16.2786 25.8588 16.1967 25.7681 16.1393C25.6774 16.0819 25.5724 16.0514 25.465 16.0513" fill="#F57615"/>
<path d="M12.6082 24.4196L19.57 20.3997L12.6082 16.3806C12.2928 16.1986 12.0371 16.3058 12.0371 16.6212V24.178C12.0371 24.4934 12.2928 24.6015 12.6082 24.4196Z" fill="white"/>
<circle cx="20" cy="20" r="19.5" stroke="black" stroke-opacity="0.05"/>
</svg>
