<svg width="40" height="40" viewBox="0 0 40 40" fill="none" xmlns="http://www.w3.org/2000/svg">
<circle cx="20" cy="20" r="20" fill="#DF0013"/>
<path d="M20.179 20.1163C20.1808 20.1432 20.1904 20.1462 20.2078 20.1253C22.1743 17.7362 24.546 15.4808 27.405 14.2185C28.0979 13.9128 28.7931 13.694 29.4902 13.5616C29.9805 13.4687 30.4738 13.4657 30.9761 13.4801C31.3902 13.492 31.7918 13.579 32.1796 13.7402C33.6894 14.3689 34.257 15.9525 33.8938 17.5102C33.4574 19.3826 31.8517 20.8973 30.2508 21.8431C30.2035 21.8706 30.1945 21.861 30.2232 21.8149C30.7681 20.9236 31.2374 19.6847 30.9065 18.6526C30.7141 18.0526 30.3845 17.5983 29.9164 17.2897C29.2085 16.8227 28.1884 16.7832 27.3403 16.9318C25.7028 17.2195 24.1504 18.1276 22.8342 19.1873C21.8087 20.0126 20.8317 20.9242 19.9033 21.921C19.8913 21.9336 19.8835 21.9503 19.8817 21.9677C19.8128 22.5425 19.8637 23.0754 20.0346 23.5651C20.1688 23.9486 20.5278 24.2837 20.8707 24.4761C21.5528 24.8585 22.2666 24.9418 23.05 24.9832C23.9311 25.0299 24.8361 24.8525 25.6578 24.5336C25.6644 24.5312 25.6692 24.5336 25.6716 24.5402C25.6716 24.542 25.6722 24.5444 25.6722 24.5462C25.6722 24.5504 25.671 24.554 25.6674 24.5558C23.7189 25.8001 20.8569 26.4276 18.9419 24.7266C18.6494 24.4665 18.4324 24.1632 18.291 23.8162C18.2868 23.806 18.2748 23.8006 18.2646 23.8048C18.2616 23.806 18.2586 23.8084 18.2562 23.8108C17.6425 24.5636 17.0773 25.344 16.5612 26.1513C16.5049 26.2394 16.4935 26.234 16.5271 26.1351C16.8867 25.0815 17.4309 24.0769 18.0303 23.1287C18.0417 23.1113 18.0453 23.0921 18.0423 23.0712C17.9667 22.5875 17.9871 22.1038 18.104 21.6201C18.2143 21.161 18.285 20.6923 18.3084 20.2242C18.3108 20.1696 18.2946 20.1636 18.2604 20.2062C17.1654 21.5506 15.9457 22.7289 14.6007 23.7407C13.2431 24.7614 11.6248 25.6359 9.97714 25.9841C9.00616 26.1891 7.90932 26.1975 7.08039 25.664C6.30301 25.1636 5.94218 24.2148 6.00752 23.3115C6.13878 21.4924 7.68275 19.9964 9.17219 19.1207C9.21834 19.0938 9.22253 19.0985 9.18477 19.1363C9.12664 19.1944 9.0685 19.2502 9.01036 19.3035C8.59919 19.6781 8.26414 20.0977 8.00462 20.5616C7.62881 21.2329 7.45859 22.099 7.88354 22.7601C8.79758 24.1824 10.7581 24.0056 12.1564 23.5033C14.527 22.6522 16.4581 20.8847 18.1525 19.047C18.1711 19.0266 18.1759 19.0032 18.1663 18.9775C17.7989 17.9831 17.0317 17.4197 16.0152 17.2944C15.2564 17.2009 14.5198 17.2549 13.8053 17.4569C13.7106 17.4832 13.7064 17.4737 13.7933 17.4275C15.4458 16.5464 17.6293 16.6471 19.0774 17.9274C19.0971 17.9448 19.1151 17.9436 19.1313 17.9238C19.7768 17.1548 20.3834 16.3343 20.9504 15.4616C20.9822 15.413 20.9906 15.4172 20.9768 15.473C20.7238 16.4793 20.1844 17.4838 19.5814 18.4201C19.5689 18.4398 19.5695 18.4584 19.5832 18.477C19.9363 18.9553 20.1353 19.5019 20.179 20.1163Z" fill="white"/>
<circle cx="20" cy="20" r="19.5" stroke="black" stroke-opacity="0.05"/>
</svg>
