<svg width="40" height="40" viewBox="0 0 40 40" fill="none" xmlns="http://www.w3.org/2000/svg">
<circle cx="20" cy="20" r="20" fill="#F6F8FA"/>
<path d="M6.06252 17.8153C5.75438 17.6413 5.50331 17.4751 5.30929 17.3167C4.8371 16.9301 4.90557 16.7368 5.51472 16.7368H11.7845C11.8629 16.7368 11.9143 16.7739 11.9385 16.8481C11.9628 16.9194 11.9557 16.99 11.9171 17.0599C11.8915 17.1056 11.8515 17.137 11.7973 17.1541C10.8971 17.438 10.0212 17.6948 9.16958 17.9244C8.43204 18.1227 7.91135 18.366 7.60749 18.6541C6.68949 19.5315 6.65954 20.9438 7.56255 21.851C8.73519 23.0301 10.7531 22.4802 11.1746 20.8689C11.4071 19.9787 11.1603 19.1976 10.4342 18.5257C10.4043 18.4986 10.4057 18.4729 10.4385 18.4487L11.211 17.9137C11.2538 17.8838 11.2895 17.8902 11.318 17.933C12.3037 19.3781 12.3273 20.7975 11.3886 22.1913C10.7787 23.1007 9.61038 23.6293 8.49552 23.5479C5.82714 23.3511 4.29929 20.1777 6.09676 18.0015C6.10816 17.9875 6.11639 17.9713 6.12087 17.9538C6.12536 17.9364 6.126 17.9182 6.12274 17.9005C6.11948 17.8827 6.11241 17.8659 6.10201 17.8512C6.09161 17.8365 6.07813 17.8243 6.06252 17.8153Z" fill="#23408F"/>
<path d="M24.8528 18.5108C24.6003 18.2733 24.3392 18.0079 24.0225 17.8603C23.9842 17.8432 23.9516 17.8153 23.9284 17.7801C23.9053 17.7448 23.8927 17.7036 23.892 17.6613L23.8877 17.443C23.8874 17.4227 23.8912 17.4025 23.8987 17.3837C23.9062 17.3649 23.9174 17.3478 23.9316 17.3334C23.9457 17.3191 23.9626 17.3077 23.9812 17.3001C23.9997 17.2924 24.0196 17.2887 24.0396 17.289L24.8378 17.2975C24.922 17.2975 24.9655 17.3403 24.9683 17.4259L24.9855 18.453C24.9869 18.5786 24.9427 18.5978 24.8528 18.5108Z" fill="#B73A4B"/>
<path d="M30.1657 20.1434C30.1657 20.7603 29.9206 21.3519 29.4844 21.7881C29.0482 22.2243 28.4566 22.4694 27.8397 22.4694C27.2228 22.4694 26.6312 22.2243 26.1949 21.7881C25.7587 21.3519 25.5137 20.7603 25.5137 20.1434C25.5137 19.5265 25.7587 18.9349 26.1949 18.4987C26.6312 18.0624 27.2228 17.8174 27.8397 17.8174C28.4566 17.8174 29.0482 18.0624 29.4844 18.4987C29.9206 18.9349 30.1657 19.5265 30.1657 20.1434ZM29.0829 20.1434C29.0829 19.8131 28.9517 19.4963 28.7182 19.2628C28.4846 19.0292 28.1678 18.898 27.8375 18.898C27.5072 18.898 27.1905 19.0292 26.9569 19.2628C26.7234 19.4963 26.5922 19.8131 26.5922 20.1434C26.5922 20.4737 26.7234 20.7905 26.9569 21.024C27.1905 21.2576 27.5072 21.3888 27.8375 21.3888C28.1678 21.3888 28.4846 21.2576 28.7182 21.024C28.9517 20.7905 29.0829 20.4737 29.0829 20.1434Z" fill="#B73A4B"/>
<path d="M14.8782 20.0364C14.8632 21.7932 17.3048 21.8467 17.3005 19.8524C17.2977 19.2176 17.2827 18.5963 17.2556 17.9886C17.2527 17.9201 17.2855 17.8859 17.354 17.8859L18.1971 17.8795C18.2784 17.8795 18.317 17.9194 18.3127 17.9993C18.287 18.6441 18.282 19.3053 18.2977 19.9829C18.3683 23.2419 13.7141 23.1884 13.8597 19.8396C13.8853 19.2233 13.8782 18.6077 13.8383 17.9929C13.834 17.9215 13.8675 17.8859 13.9388 17.8859L14.7798 17.8773C14.854 17.8773 14.8911 17.9144 14.8911 17.9886C14.8882 18.6348 14.8839 19.3174 14.8782 20.0364Z" fill="#23408F"/>
<path d="M22.1517 20.4365C22.2373 18.4507 19.7636 18.4593 19.7679 20.2889C19.7708 20.9864 19.7808 21.6591 19.7979 22.3067C19.7993 22.3709 19.7686 22.403 19.7059 22.403L18.7986 22.4009C18.7472 22.4009 18.723 22.3752 18.7258 22.3239C18.7572 21.6905 18.7615 21.0735 18.7387 20.4729C18.6081 17.0128 23.2944 17.1454 23.1853 20.2824C23.161 20.9943 23.1674 21.6691 23.2045 22.3067C23.2088 22.3681 23.1803 22.3987 23.1189 22.3987L22.2095 22.4073C22.161 22.4073 22.136 22.3831 22.1346 22.3346C22.1175 21.7397 22.1232 21.107 22.1517 20.4365Z" fill="#23408F"/>
<path d="M30.5443 20.257C30.4566 17.8775 33.5252 16.9552 34.7299 19.0779C34.9211 19.4146 35.0045 19.8782 34.9803 20.4688C34.9531 21.1236 34.9596 21.7534 34.9995 22.3583C35.0024 22.384 34.9902 22.3975 34.9631 22.3989L33.9874 22.4054C33.956 22.4054 33.9396 22.3897 33.9381 22.3583C33.9196 21.7406 33.9267 21.1207 33.9595 20.4988C33.9795 20.1122 33.921 19.7955 33.7841 19.5487C33.3326 18.7398 32.2177 18.712 31.7512 19.5316C31.6186 19.7641 31.5579 20.0537 31.5693 20.4003C31.5936 21.1122 31.6014 21.7577 31.5929 22.3369C31.5929 22.3551 31.5857 22.3725 31.5728 22.3853C31.56 22.3982 31.5426 22.4054 31.5244 22.4054L30.5722 22.3989C30.5351 22.3975 30.518 22.3783 30.5208 22.3412C30.5636 21.6864 30.5715 20.9916 30.5443 20.257Z" fill="#B73A4B"/>
<path d="M24.6403 18.9559C24.8501 19.1945 24.9664 19.5009 24.9677 19.8182L24.9699 22.3347C24.9699 22.3818 24.9463 22.4053 24.8992 22.4053L23.9813 22.401C23.937 22.401 23.9156 22.3789 23.9171 22.3347L23.9278 18.6178C23.9278 18.3082 24.0305 18.269 24.2359 18.5001L24.6403 18.9559Z" fill="#23408F"/>
<path d="M27.8372 21.3887C28.525 21.3887 29.0826 20.8311 29.0826 20.1433C29.0826 19.4555 28.525 18.8979 27.8372 18.8979C27.1494 18.8979 26.5918 19.4555 26.5918 20.1433C26.5918 20.8311 27.1494 21.3887 27.8372 21.3887Z" fill="#F6F8FA"/>
<circle cx="20" cy="20" r="19.5" stroke="black" stroke-opacity="0.05"/>
</svg>
