<svg width="40" height="40" viewBox="0 0 40 40" fill="none" xmlns="http://www.w3.org/2000/svg">
<circle cx="20" cy="20" r="20" fill="#111111"/>
<path d="M13.019 17.0272C14.6834 17.0272 16.0326 15.678 16.0326 14.0136C16.0326 12.3492 14.6834 11 13.019 11C11.3546 11 10.0054 12.3492 10.0054 14.0136C10.0054 15.678 11.3546 17.0272 13.019 17.0272Z" fill="white"/>
<path d="M26.9863 17.0272C28.6507 17.0272 29.9999 15.678 29.9999 14.0136C29.9999 12.3492 28.6507 11 26.9863 11C25.3219 11 23.9727 12.3492 23.9727 14.0136C23.9727 15.678 25.3219 17.0272 26.9863 17.0272Z" fill="white"/>
<path d="M13.019 29.9261C14.6863 29.9261 16.0379 28.5745 16.0379 26.9072C16.0379 25.2398 14.6863 23.8882 13.019 23.8882C11.3516 23.8882 10 25.2398 10 26.9072C10 28.5745 11.3516 29.9261 13.019 29.9261Z" fill="white"/>
<path d="M26.9809 29.8994C28.6424 29.8994 29.9892 28.5525 29.9892 26.8911C29.9892 25.2297 28.6424 23.8828 26.9809 23.8828C25.3195 23.8828 23.9727 25.2297 23.9727 26.8911C23.9727 28.5525 25.3195 29.8994 26.9809 29.8994Z" fill="white"/>
<circle cx="20" cy="20" r="19.5" stroke="black" stroke-opacity="0.05"/>
</svg>
