<svg width="40" height="40" viewBox="0 0 40 40" fill="none" xmlns="http://www.w3.org/2000/svg">
<circle cx="20" cy="20" r="20" fill="#003B90"/>
<g clip-path="url(#clip0_14382_18874)">
<path d="M13.0588 18.3656L13.9632 15.3359H10.8801L9.64681 19.4467C9.23572 19.4796 8.07647 19.6728 7.55028 18.9205C6.17726 16.8651 10.136 13.3421 10.136 13.3421C11.5406 12.0754 13.0709 10.9555 14.7031 10C12.9761 10.7106 11.3461 11.6375 9.85235 12.7584C8.15457 14.0204 7.08164 15.2495 6.62534 16.121C5.74151 17.8024 5.65929 19.6975 7.30363 20.5196C9.18639 21.5145 12.8286 20.6142 16.3475 18.1395C16.3475 18.1395 18.6865 16.6637 19.7471 15.3194H16.6763C15.6916 16.5736 14.4533 17.606 13.0424 18.3491" fill="#008CBB"/>
<path d="M12.1621 21.2309L11.1303 24.6429H8.05127L9.05432 21.3213C10.9858 21.3741 12.9013 20.9579 14.6368 20.1086L16.5607 24.6306H13.5146L12.1621 21.2309Z" fill="white"/>
<path d="M30.5089 24.6511H27.4093L29.9621 15.3359H33L30.5089 24.6511Z" fill="white"/>
<path d="M21.9089 15.3359L17.1897 24.6511H20.2564L20.9264 23.1424H23.4135L23.5327 24.6511H26.5994L25.2716 15.3359H21.9089ZM21.8349 21.0911L23.0435 18.378L23.2573 21.0911H21.8349Z" fill="white"/>
<path d="M30.1265 26.3159H7.5415L7.82926 25.3499H30.3937L30.1265 26.3159Z" fill="white"/>
</g>
<circle cx="20" cy="20" r="19.5" stroke="black" stroke-opacity="0.05"/>
<defs>
<clipPath id="clip0_14382_18874">
<rect width="27" height="16.3118" fill="white" transform="translate(6 10)"/>
</clipPath>
</defs>
</svg>
