<svg width="40" height="40" viewBox="0 0 40 40" fill="none" xmlns="http://www.w3.org/2000/svg">
<circle cx="20" cy="20" r="20" fill="#3B8642"/>
<g clip-path="url(#clip0_18553_55695)">
<path d="M21.0787 16.4457C21.0787 16.4457 21.0514 16.3911 21.0241 16.3911H16.2181C16.2181 16.3911 16.1726 16.4093 16.1726 16.4366V20.6691C16.1726 20.7329 16.2272 20.7784 16.2819 20.7784H21.0878C21.1606 20.7693 21.197 20.7329 21.197 20.66V19.768C21.197 19.768 21.2243 19.6952 21.2699 19.6952H24.7287C24.7924 19.6952 24.847 19.7498 24.847 19.8135C24.847 19.8135 24.847 19.8226 24.847 19.8317C24.6195 21.2699 23.3907 22.2984 21.9343 22.2893C19.0853 22.2893 16.1817 22.2893 13.2235 22.2893C13.178 22.2893 13.1416 22.2529 13.1416 22.2074V14.8346C13.1416 14.7527 13.178 14.7163 13.2599 14.7163C16.2637 14.7163 19.3675 14.7163 22.5624 14.7163C22.9174 14.7163 23.2177 14.7618 23.4635 14.8619C24.4192 15.2442 24.9471 16.1727 24.847 17.2103C24.847 17.2467 24.8106 17.274 24.7742 17.274H21.1879C21.1242 17.274 21.0696 17.2194 21.0696 17.1466V16.4548L21.0787 16.4457Z" fill="white"/>
<path d="M25.1928 23.5727V19.1218C25.1928 19.1218 25.1655 19.049 25.1291 19.049H19.9409C19.8862 19.049 19.868 19.0854 19.868 19.14V20.1958C19.8771 20.2413 19.8407 20.2869 19.7861 20.2869H17.2557C17.192 20.2869 17.1465 20.2413 17.1465 20.1776V18.1934C17.1465 18.1205 17.192 18.0841 17.2648 18.0841C20.2776 18.075 23.0265 18.0841 25.5023 18.0841C26.8858 18.0841 28.1237 18.9397 28.1965 20.3779C28.2239 20.8512 28.233 21.3518 28.2239 21.8706C28.2239 22.6807 28.1874 23.1814 28.151 23.3634C28.0327 23.9095 27.7232 24.3737 27.2408 24.7469C26.6401 25.2111 25.9756 25.2931 25.2201 25.2931C22.6169 25.2931 19.95 25.2931 17.2193 25.2931C17.1829 25.2931 17.1647 25.2749 17.1647 25.2384C17.1647 24.6013 17.1647 23.9277 17.1647 23.1905C17.1647 23.0721 17.1738 22.972 17.192 22.8901C17.2011 22.8355 17.2375 22.8173 17.283 22.8173H19.7679C19.8407 22.8173 19.8953 22.881 19.8953 22.9538V23.5636C19.8953 23.5636 19.9136 23.6365 19.9591 23.6365H25.1473C25.1928 23.6365 25.2201 23.6183 25.2201 23.5636L25.1928 23.5727Z" fill="white"/>
<path d="M19.9954 10.5838C25.1837 10.5838 29.4162 14.8072 29.4162 20.0046C29.4162 25.2019 25.1928 29.4253 19.9954 29.4253C14.7981 29.4253 10.5838 25.1928 10.5838 19.9954C10.5838 14.7981 14.8072 10.5838 19.9954 10.5838ZM19.9954 9C13.9243 9 9 13.9243 9 19.9954C9 26.0666 13.9243 30.9909 19.9954 30.9909C26.0666 30.9909 30.9909 26.0666 30.9909 19.9954C30.9909 13.9243 26.0757 9 19.9954 9Z" fill="white"/>
</g>
<circle cx="20" cy="20" r="19.5" stroke="black" stroke-opacity="0.05"/>
<defs>
<clipPath id="clip0_18553_55695">
<rect width="22" height="22" fill="white" transform="translate(9 9)"/>
</clipPath>
</defs>
</svg>
