<svg width="40" height="40" viewBox="0 0 40 40" fill="none" xmlns="http://www.w3.org/2000/svg">
<ellipse cx="20" cy="19.7762" rx="20" ry="19.7762" fill="#1575BB"/>
<path d="M6.49765 17.0748C6.50177 16.6857 6.16999 16.3669 5.7566 16.3626C5.34321 16.3583 5.00474 16.6702 5.00062 17.0593C4.9965 17.4483 5.32829 17.7671 5.74168 17.7714C6.15507 17.7757 6.49353 17.4638 6.49765 17.0748Z" fill="white"/>
<path d="M28.6489 20.2071C28.6272 21.6917 27.3945 22.8777 25.8931 22.8577L25.3786 22.8506C23.8772 22.8292 22.6778 21.6103 22.698 20.1256L22.7096 19.2769C22.7312 17.7922 23.9639 16.6062 25.4653 16.6262L25.9798 16.6334C27.4812 16.6534 28.6807 17.8737 28.6604 19.3583L28.6489 20.2071ZM25.6763 21.7232C26.5448 21.7275 27.2529 20.8444 27.2587 19.7498C27.2645 18.6553 26.5651 17.7636 25.6966 17.7594C24.8281 17.7551 24.12 18.6381 24.1142 19.7327C24.1084 20.8272 24.8078 21.7189 25.6763 21.7232Z" fill="white"/>
<path d="M8.77026 18.6499C8.86564 19.8674 8.82518 21.2348 8.80639 22.7223C8.80639 22.7538 8.78038 22.7781 8.74859 22.7781L7.63587 22.7895C7.60119 22.7895 7.57373 22.7624 7.57373 22.7281L7.57951 16.7666C7.57951 16.7166 7.60552 16.6909 7.6561 16.6909H8.90177C8.96101 16.6923 9.00726 16.7166 9.04049 16.7666L11.607 20.6718C11.6648 20.759 11.6937 20.7504 11.6937 20.6461L11.6893 16.7337C11.6893 16.7137 11.7067 16.6966 11.7269 16.6966L12.8758 16.6895C12.9032 16.6895 12.9162 16.7009 12.9162 16.728V22.7152C12.9162 22.7652 12.8902 22.7895 12.8396 22.7895H11.7992C11.6706 22.7866 11.5708 22.7338 11.5 22.628L8.84541 18.6242C8.78616 18.5356 8.76159 18.5442 8.77026 18.6499Z" fill="white"/>
<path d="M20.6995 20.0144C20.6778 20.0215 20.6677 20.0444 20.6749 20.0658C20.6778 20.0744 20.6836 20.0816 20.6908 20.0858C20.9827 20.2802 21.2125 20.5074 21.3816 20.7674C21.8137 21.4305 22.2472 22.0963 22.6822 22.7651C22.6836 22.7679 22.6822 22.7722 22.6807 22.7751C22.6807 22.7751 22.6793 22.7751 22.6778 22.7751C22.4784 22.7879 21.9481 22.7865 21.0882 22.7708C21.0637 22.7708 21.0449 22.7594 21.0319 22.7379C20.4856 21.7905 20.0882 21.1432 19.8382 20.796C19.6316 20.5088 19.3426 20.3988 18.9741 20.4645C18.9278 20.4731 18.9047 20.5002 18.9047 20.546V22.7279C18.9047 22.7579 18.8917 22.7722 18.8614 22.7736L17.6171 22.7894C17.5911 22.7894 17.5781 22.7765 17.5781 22.7508V16.7893C17.5781 16.7322 17.6056 16.7022 17.6648 16.7007C18.7327 16.6664 19.6475 16.6822 20.4076 16.7479C21.1721 16.8151 21.8628 17.2766 21.9437 18.0711C22.0406 19.0184 21.6258 19.6672 20.6995 20.0144ZM18.9047 17.7881L18.8989 19.3257C18.8989 19.3628 18.9293 19.3928 18.9669 19.3928L19.5868 19.3957C20.0752 19.3971 20.4726 19.0456 20.4741 18.6083V18.5169C20.4741 18.0811 20.081 17.7253 19.5926 17.7238L18.9726 17.721C18.9351 17.721 18.9047 17.751 18.9047 17.7881Z" fill="white"/>
<path d="M30.8871 18.6543L30.9001 22.6581C30.9001 22.7381 30.8597 22.7781 30.7802 22.7781L29.7513 22.781C29.6718 22.781 29.6313 22.741 29.6313 22.6624L29.6371 16.7838C29.6371 16.7338 29.679 16.6924 29.7311 16.6924H30.9724C31.036 16.6924 31.0952 16.7238 31.1299 16.7767L33.7209 20.7119C33.7629 20.7762 33.7845 20.7705 33.7845 20.6934L33.7744 16.751C33.7744 16.7152 33.7918 16.6981 33.8279 16.6981L34.9392 16.6938C34.9724 16.6938 34.9984 16.721 34.9984 16.7538V22.6924C34.9984 22.7596 34.9652 22.7924 34.8987 22.791L33.8293 22.781C33.7325 22.781 33.6588 22.7396 33.6053 22.6595L30.9377 18.6386C30.903 18.5871 30.8857 18.5928 30.8857 18.6543H30.8871Z" fill="white"/>
<path d="M14.3109 19.4243L13.8384 19.4586C13.7835 19.4629 13.7358 19.4214 13.7314 19.3672C13.7314 19.3643 13.7314 19.3629 13.7314 19.36V18.5384C13.7314 18.4598 13.7705 18.4226 13.8485 18.4241L14.3312 18.4355C14.3803 18.4355 14.4193 18.3983 14.4208 18.3498C14.4208 18.3498 14.4208 18.3498 14.4208 18.3483L14.4236 17.6353C14.4236 17.5481 14.4655 17.4938 14.5494 17.4695L15.6534 17.1495C15.7517 17.1209 15.8008 17.158 15.8008 17.2595L15.795 18.3641C15.795 18.4026 15.8268 18.4341 15.8673 18.4355H16.665C16.7401 18.4355 16.7777 18.4726 16.7791 18.5455L16.7849 19.2971C16.7849 19.4043 16.7314 19.4572 16.6216 19.4543L15.9092 19.4372C15.8514 19.4357 15.8023 19.4815 15.8008 19.54C15.7907 20.1059 15.7921 20.6875 15.8023 21.2833C15.8124 21.8177 16.2054 21.9178 16.6476 21.7706C16.7387 21.7406 16.7835 21.7734 16.7835 21.8678V22.6179C16.7835 22.7194 16.7329 22.7808 16.6332 22.8037C15.5768 23.0438 14.454 22.8523 14.4309 21.5248C14.4208 20.9161 14.4179 20.2502 14.4222 19.5272C14.4222 19.4543 14.3861 19.42 14.3109 19.4243Z" fill="white"/>
<path d="M6.32207 18.4326H5.14866C5.11834 18.4326 5.09375 18.4569 5.09375 18.4869V22.7308C5.09375 22.7608 5.11834 22.7851 5.14866 22.7851H6.32207C6.3524 22.7851 6.37699 22.7608 6.37699 22.7308V18.4869C6.37699 18.4569 6.3524 18.4326 6.32207 18.4326Z" fill="white"/>
<path d="M20 0.947754C30.7749 0.947754 39.5 9.58345 39.5 20.2241C39.4999 30.8647 30.7748 39.5005 20 39.5005C9.22518 39.5005 0.500083 30.8647 0.5 20.2241C0.5 9.58345 9.22513 0.947754 20 0.947754Z" stroke="black" stroke-opacity="0.05"/>
</svg>
