<svg width="40" height="40" viewBox="0 0 40 40" fill="none" xmlns="http://www.w3.org/2000/svg">
<circle cx="20" cy="20" r="20" fill="#004098"/>
<g clip-path="url(#clip0_24563_42814)">
<path d="M16.6701 15.6273C16.6701 15.6273 16.7201 15.6973 16.7601 15.6973H22.7501C22.8501 15.6973 22.8901 15.7473 22.8501 15.8373L22.4401 17.0973C22.4401 17.0973 22.4001 17.1573 22.3501 17.1573C21.3901 17.1573 20.4601 17.1673 19.5601 17.1573C18.7701 17.1573 18.0301 17.2773 17.3501 17.5173C16.2501 17.9173 15.4301 19.9573 15.0901 21.0373C15.0701 21.1073 15.0001 21.1573 14.9201 21.1573H11.5601C11.5101 21.1573 11.4901 21.1273 11.5001 21.0773L14.3601 10.0073C14.3601 10.0073 14.4001 9.94727 14.4401 9.94727H24.1001C24.1601 9.94727 24.1801 9.97727 24.1701 10.0373L23.8901 11.3473C23.8701 11.4673 23.7601 11.5473 23.6401 11.5473H17.8701C17.7701 11.5473 17.6801 11.6173 17.6601 11.7073C17.3201 12.9873 16.9901 14.2073 16.6601 15.3873C16.6401 15.4673 16.6401 15.5473 16.6601 15.6273H16.6701Z" fill="white"/>
<path d="M18.7702 28.6771C21.6402 28.2971 24.1202 26.5471 24.4702 23.4871C24.5502 22.7871 24.4702 22.1871 24.2302 21.6671C23.7002 20.5371 22.3002 20.1271 21.1002 20.2471C21.0602 20.2471 21.0202 20.2171 21.0102 20.1771C21.0102 20.1671 21.0102 20.1571 21.0102 20.1471L21.4002 18.9571C21.4002 18.9571 21.4402 18.8871 21.4902 18.8871C22.7102 18.8871 23.7902 18.8871 24.7502 18.8871C25.2002 18.8871 25.7302 19.0171 26.3402 19.2771C27.8802 19.9171 28.6102 21.3271 28.5802 22.9771C28.5402 25.1871 26.8902 27.0071 25.0302 28.1371C23.5602 29.0371 21.9302 29.6371 20.1502 29.9471C19.3902 30.0771 18.5102 30.1371 17.5102 30.1271C16.3602 30.1071 15.1802 30.1071 13.9702 30.1271C13.9402 30.1271 13.9102 30.1071 13.9102 30.0671C13.9102 30.0671 13.9102 30.0671 13.9102 30.0571L16.7602 18.9171C16.7702 18.8671 16.8202 18.8271 16.8702 18.8271H20.4802C20.4802 18.8271 20.5202 18.8471 20.5202 18.8671C19.7302 21.8371 18.9202 24.8971 18.0802 28.0371C17.9502 28.5071 18.3602 28.7071 18.7502 28.6571L18.7702 28.6771Z" fill="#FDD100"/>
</g>
<circle cx="20" cy="20" r="19.5" stroke="black" stroke-opacity="0.05"/>
<defs>
<clipPath id="clip0_24563_42814">
<rect width="17.09" height="20.19" fill="white" transform="translate(11.5 9.94727)"/>
</clipPath>
</defs>
</svg>
