<svg width="40" height="40" viewBox="0 0 40 40" fill="none" xmlns="http://www.w3.org/2000/svg">
<circle cx="20" cy="20" r="20" fill="#129DD9"/>
<path d="M12.553 20.4489C12.4102 19.6721 11.8616 19.5617 11.1813 19.5693C10.8245 19.5715 10.4759 19.6761 10.1769 19.8706C9.77568 20.1283 9.38576 20.5239 9.25617 20.9918C9.05499 21.7253 8.77809 22.4867 8.01295 22.7828C7.44183 23.0043 6.87396 23.0853 6.30937 23.0258C5.74427 22.9666 5.04506 22.721 4.66606 22.27C4.24036 21.7618 4.04596 21.0227 4.00678 20.3691C3.99774 20.2204 3.99774 20.0259 4.00678 19.7855C4.04257 18.6832 4.49164 17.7368 5.5431 17.2776C6.14135 17.0161 6.83642 16.9291 7.46443 17.0606C8.30454 17.2369 9.12469 17.8868 9.12996 18.8109C9.12997 18.8175 9.12741 18.8238 9.12284 18.8285C9.11827 18.8332 9.11204 18.8359 9.10547 18.8361C8.8714 18.8379 8.63481 18.839 8.39571 18.8395C8.18738 18.8395 8.03706 18.7265 7.91349 18.5724C7.59666 18.175 7.15024 18.0804 6.66048 18.0977C6.19635 18.1143 5.83845 18.2811 5.5868 18.598C5.40557 18.8277 5.28659 19.1002 5.24133 19.3892C5.13836 20.0038 5.19173 20.5799 5.40144 21.1176C5.68851 21.8534 6.37605 22.102 7.12499 21.963C7.99374 21.8018 8.2145 20.9835 8.44017 20.2606C8.49464 20.1054 8.57293 19.9596 8.67223 19.8284C9.10547 19.2257 9.85028 18.8324 10.5774 18.6982C11.1877 18.5852 11.9231 18.5702 12.5062 18.8113C13.3373 19.1533 13.5893 20.2632 13.595 21.0735C13.595 21.079 13.5928 21.0843 13.5889 21.0882C13.585 21.0921 13.5798 21.0943 13.5743 21.0943H11.2856C11.2832 21.0943 11.2807 21.0938 11.2785 21.0928C11.2762 21.0919 11.2742 21.0905 11.2724 21.0887C11.2707 21.087 11.2694 21.0849 11.2685 21.0826C11.2676 21.0803 11.2671 21.0779 11.2672 21.0754V20.5002C11.2667 20.4974 11.2669 20.4945 11.2678 20.4918C11.2687 20.4891 11.2701 20.4867 11.2721 20.4847C11.2741 20.4827 11.2765 20.4811 11.2792 20.4802C11.2819 20.4793 11.2847 20.4791 11.2875 20.4794H12.5288C12.5481 20.4798 12.5567 20.4696 12.553 20.4489Z" fill="white"/>
<path d="M34.8351 18.9639C34.8551 18.9921 34.8649 18.9891 34.8649 18.9544V17.1386C34.8649 17.1339 34.8667 17.1294 34.87 17.1261C34.8734 17.1227 34.8779 17.1209 34.8826 17.1209C35.0631 17.1224 35.2425 17.1224 35.4205 17.1209C35.7645 17.1175 36.0007 17.3955 36 17.7282C35.9974 18.8536 35.9974 19.9356 36 20.9741C36 21.4718 35.8918 22.0131 35.5415 22.3586C35.4354 22.46 35.3152 22.5455 35.1847 22.6125C34.4821 22.9851 33.6503 23.0646 32.9051 22.779C31.8205 22.3646 31.7191 20.8151 31.9184 19.8808C32.0736 19.1541 32.5672 18.4662 33.3282 18.3562C33.9844 18.2615 34.4867 18.4641 34.8351 18.9639ZM34.2579 19.4058C34.0555 19.3236 33.8306 19.3154 33.6228 19.3828C33.2875 19.4875 33.0769 19.8462 33.0117 20.1882C32.893 20.8091 32.9812 21.8937 33.8285 21.9724C34.3996 22.0256 34.7164 21.6688 34.817 21.1335C34.9225 20.5717 34.9033 19.6601 34.2579 19.4058Z" fill="white"/>
<path d="M14.9422 17.4934C14.965 17.5462 14.9766 17.6032 14.9761 17.6607V22.8464C14.9761 22.8513 14.9741 22.856 14.9707 22.8595C14.9672 22.8629 14.9625 22.8649 14.9576 22.8649H13.8368C13.8294 22.8648 13.8223 22.8618 13.817 22.8565C13.8117 22.8512 13.8087 22.8441 13.8086 22.8366V17.148C13.8087 17.1434 13.8105 17.139 13.8138 17.1358C13.817 17.1326 13.8214 17.1307 13.8259 17.1306C14.0017 17.1306 14.1816 17.1306 14.3654 17.1306C14.6432 17.1291 14.8354 17.2501 14.9422 17.4934Z" fill="white"/>
<path d="M15.7231 17.1291C16.0934 17.1223 16.3862 17.3035 16.3865 17.7104C16.3883 19.4132 16.3883 21.1228 16.3865 22.8392C16.387 22.8427 16.3867 22.8463 16.3856 22.8496C16.3845 22.8529 16.3826 22.856 16.3801 22.8585C16.3777 22.8609 16.3746 22.8628 16.3713 22.8639C16.368 22.865 16.3644 22.8653 16.3609 22.8648H15.2405C15.2355 22.8648 15.2307 22.8629 15.2272 22.8593C15.2237 22.8558 15.2217 22.851 15.2217 22.846V17.1498C15.2217 17.137 15.2281 17.1306 15.2405 17.131C15.4045 17.133 15.5654 17.1324 15.7231 17.1291Z" fill="white"/>
<path d="M23.9589 18.6414C24.1598 18.4716 24.4398 18.3564 24.7987 18.2956C25.3252 18.1983 25.869 18.2714 26.3512 18.5043C26.5734 18.6118 26.7403 18.7374 26.8518 18.881C27.1031 19.2028 27.1909 19.6774 27.1909 20.0866C27.1947 20.9674 27.1955 21.861 27.1935 22.7674C27.1935 22.7696 27.1931 22.7717 27.1923 22.7737C27.1914 22.7758 27.1902 22.7776 27.1887 22.7791C27.1871 22.7807 27.1853 22.7819 27.1833 22.7827C27.1813 22.7835 27.1791 22.784 27.177 22.784C27.0386 22.7797 26.891 22.7797 26.7343 22.784C26.5603 22.7893 26.428 22.7704 26.3376 22.7275C26.1037 22.6144 26.0362 22.402 26.0362 22.1477C26.0425 21.3008 26.0425 20.5537 26.0362 19.9065C26.0362 19.7027 25.9556 19.4838 25.7797 19.3617C25.5802 19.2236 25.3734 19.1687 25.1592 19.1971C24.7384 19.2529 24.4792 19.5121 24.4792 19.9487C24.4792 20.8699 24.4792 21.8065 24.4792 22.7584C24.4796 22.7617 24.4793 22.7651 24.4782 22.7683C24.4771 22.7715 24.4753 22.7744 24.4729 22.7767C24.4704 22.7791 24.4675 22.7808 24.4643 22.7818C24.4611 22.7828 24.4576 22.783 24.4543 22.7825C24.3168 22.7783 24.1819 22.7783 24.0505 22.7825C23.9359 22.7896 23.8208 22.7806 23.7088 22.7557C23.3968 22.6747 23.3222 22.3952 23.3234 22.1025C23.3256 21.4306 23.3276 20.776 23.3294 20.1386C23.3294 19.9153 23.3182 19.764 23.2959 19.6846C23.2391 19.4879 23.1054 19.3468 22.8946 19.2612C22.6417 19.1582 22.4001 19.1643 22.1698 19.2796C21.9156 19.4069 21.7882 19.6241 21.7874 19.931C21.7857 20.8874 21.7857 21.8318 21.7874 22.7644C21.7874 22.7687 21.7857 22.7729 21.7827 22.776C21.7797 22.7791 21.7756 22.7809 21.7712 22.781H20.6437C20.6373 22.781 20.6311 22.7784 20.6266 22.7739C20.6221 22.7694 20.6196 22.7632 20.6196 22.7569C20.617 21.8622 20.6179 20.9568 20.6222 20.0406C20.6258 19.8412 20.6517 19.6428 20.6994 19.4491C20.7901 19.0601 20.9998 18.7743 21.3286 18.5917C21.9816 18.2295 22.6788 18.1585 23.4202 18.3785C23.5958 18.4362 23.7594 18.5256 23.9028 18.6422C23.9107 18.6487 23.9207 18.6523 23.931 18.6521C23.9413 18.652 23.9512 18.6482 23.9589 18.6414Z" fill="white"/>
<path d="M18.188 21.9634C18.6605 22.1446 19.2806 21.9136 19.2858 21.3278C19.2904 20.6384 19.2904 19.9 19.2858 19.1126C19.2806 18.9965 19.2976 18.8803 19.3359 18.7706C19.4573 18.4752 19.7176 18.4191 20.0246 18.4315C20.1636 18.4364 20.2955 18.4356 20.4206 18.4285C20.4252 18.4283 20.4297 18.4299 20.4332 18.433C20.4366 18.4361 20.4387 18.4404 20.439 18.4451C20.439 19.3492 20.4376 20.2795 20.4349 21.2359C20.4341 21.5096 20.3819 21.7806 20.2808 22.0349C20.1678 22.3243 19.9794 22.5157 19.692 22.6611C19.2385 22.8976 18.7238 22.9904 18.2163 22.927C17.8565 22.878 17.5104 22.7563 17.1991 22.5691C16.7188 22.2817 16.5851 21.6748 16.5847 21.1413C16.5847 20.2435 16.5838 19.3457 16.582 18.4481C16.582 18.4461 16.5823 18.4442 16.583 18.4424C16.5838 18.4406 16.5848 18.4389 16.5862 18.4376C16.5876 18.4362 16.5892 18.4351 16.591 18.4344C16.5929 18.4337 16.5948 18.4333 16.5967 18.4334H17.7269C17.7323 18.4334 17.7374 18.4355 17.7412 18.4392C17.745 18.4429 17.7472 18.448 17.7473 18.4533C17.749 19.4479 17.749 20.372 17.7473 21.2257C17.7469 21.5614 17.8535 21.8349 18.188 21.9634Z" fill="white"/>
<path d="M30.3276 20.4362C30.3327 20.4362 30.3376 20.4342 30.3412 20.4306C30.3448 20.427 30.3468 20.4221 30.3468 20.417C30.3329 20.0843 30.1761 19.7852 29.8401 19.6805C29.2844 19.5068 28.6813 19.778 28.6685 20.4185C28.6659 20.5589 28.6637 20.7109 28.6617 20.8747C28.6579 21.274 28.6775 21.6007 28.9902 21.8678C29.1346 21.9976 29.3182 22.0757 29.512 22.0897C29.8111 22.1081 30.155 22.0723 30.4029 21.8956C30.4095 21.8914 30.4172 21.8893 30.4251 21.8896C30.4329 21.8899 30.4404 21.8927 30.4466 21.8975L31.0965 22.4381C31.099 22.4401 31.101 22.4427 31.1023 22.4456C31.1036 22.4485 31.1042 22.4517 31.104 22.4549C31.1038 22.4581 31.1027 22.4612 31.101 22.464C31.0993 22.4667 31.097 22.4689 31.0942 22.4705C30.5738 22.7912 29.9664 22.9421 29.3564 22.9023C28.9977 22.8816 28.6673 22.8141 28.3652 22.634C27.574 22.1639 27.3928 21.2537 27.5047 20.3838C27.6128 19.5407 28.1651 18.9311 29.0094 18.7963C29.4105 18.7289 29.8213 18.747 30.2149 18.8494C31.2943 19.1372 31.6141 20.087 31.5448 21.0936C31.5449 21.0954 31.5445 21.0973 31.5438 21.099C31.5431 21.1007 31.542 21.1023 31.5407 21.1036C31.5393 21.1049 31.5377 21.1058 31.536 21.1065C31.5342 21.1071 31.5323 21.1073 31.5305 21.1071H29.2287C29.2232 21.1071 29.2179 21.105 29.214 21.1011C29.2101 21.0972 29.2079 21.0919 29.2079 21.0864V20.4543C29.2079 20.4519 29.2083 20.4495 29.2092 20.4473C29.2101 20.4451 29.2114 20.4431 29.2131 20.4414C29.2148 20.4397 29.2168 20.4383 29.219 20.4375C29.2213 20.4366 29.2236 20.4361 29.226 20.4362H30.3276Z" fill="white"/>
<path d="M10.5631 19.8582C10.6229 19.8371 10.6841 19.8146 10.7469 19.7907C10.7518 19.789 10.7571 19.7892 10.7618 19.7913C10.7665 19.7934 10.7702 19.7972 10.7722 19.802C10.7731 19.8057 10.7731 19.8096 10.7722 19.8133C10.7362 19.9772 10.7195 20.1447 10.7224 20.3125C10.724 20.4464 10.7233 20.5663 10.7206 20.6723C10.7153 20.8848 10.717 21.0814 10.7258 21.2622C10.7289 21.3908 10.7595 21.5171 10.8157 21.6328C10.8718 21.7484 10.9522 21.8506 11.0513 21.9324C11.2385 22.0903 11.4799 22.1691 11.7242 22.1521C12.0052 22.1404 12.2271 22.1197 12.455 21.9584C12.4621 21.9535 12.4706 21.951 12.4793 21.9513C12.4879 21.9517 12.4962 21.9548 12.5029 21.9603L13.1494 22.4975C13.153 22.5008 13.1554 22.5051 13.1565 22.5098C13.1575 22.5145 13.157 22.5195 13.155 22.5239C13.1512 22.5316 13.145 22.5378 13.1373 22.5416C12.5394 22.8973 11.8368 23.0349 11.1489 22.9308C10.6889 22.8641 10.1781 22.6437 9.93131 22.2331C9.69623 21.8417 9.58132 21.3267 9.54629 20.8768C9.53838 20.7781 9.5267 20.6791 9.59187 20.5932C9.86513 20.2343 10.1889 19.9893 10.5631 19.8582Z" fill="white"/>
<circle cx="20" cy="20" r="19.5" stroke="black" stroke-opacity="0.05"/>
</svg>
