<svg width="40" height="40" viewBox="0 0 40 40" fill="none" xmlns="http://www.w3.org/2000/svg">
<circle cx="20" cy="20" r="20" fill="#0071BD"/>
<g clip-path="url(#clip0_18553_55699)">
<path d="M8.29585 18.5088V18.6417C8.29585 18.7126 8.26041 18.748 8.18953 18.748H5.11511C5.04423 18.748 5.00879 18.7126 5.00879 18.6417C5.00879 18.3936 5.00879 18.1456 5.03537 17.8886C5.09739 17.1001 6.09857 16.7723 6.77193 16.7634C9.14641 16.7368 11.5741 16.7368 14.0637 16.7545C14.2321 16.7545 14.3118 16.8431 14.3118 17.0115V18.119C14.3118 18.2873 14.2232 18.3759 14.0549 18.3759H8.44647C8.34901 18.3759 8.29585 18.4202 8.29585 18.5177V18.5088Z" fill="white"/>
<path d="M24.1378 18.4557V18.6506C24.1378 18.7037 24.0935 18.748 24.0404 18.748H20.8951C20.8508 18.748 20.8065 18.7126 20.8065 18.6594V18.3228C20.8065 18.2519 20.7444 18.1899 20.6736 18.1899C20.6736 18.1899 20.6736 18.1899 20.6647 18.1899C20.0356 18.243 19.3889 18.2342 18.7244 18.1721C18.5915 18.1633 18.5206 18.2253 18.5206 18.3582V18.624C18.5206 18.7037 18.4763 18.748 18.3965 18.748H15.2778C15.2158 18.748 15.1892 18.7215 15.1804 18.6594C15.0652 17.1975 16.2967 16.7368 17.5105 16.7368C20.2128 16.7545 22.6759 16.7545 24.8909 16.7368C25.0593 16.7368 25.139 16.8166 25.139 16.9849V18.1278C25.139 18.2785 25.0593 18.3582 24.9086 18.3582H24.2264C24.1644 18.3582 24.1378 18.3936 24.1378 18.4557Z" fill="white"/>
<path d="M31.5269 18.3669H26.3969C26.202 18.3669 26.0957 18.2695 26.0957 18.0657V17.0202C26.0957 16.843 26.1843 16.7544 26.3615 16.7544C28.6385 16.7544 30.7915 16.7544 32.8205 16.7544C33.3432 16.7544 33.8216 16.8784 34.2646 17.1177C34.8317 17.4278 35.0709 17.9416 34.9823 18.6593C34.9823 18.7213 34.938 18.7479 34.876 18.7479H31.7661C31.6952 18.7479 31.6598 18.7125 31.6598 18.6416V18.491C31.6598 18.4024 31.6155 18.3581 31.5269 18.3581V18.3669Z" fill="white"/>
<path d="M13.5415 20.0861C14.1617 20.2279 14.4895 20.5646 14.5427 21.0873C14.5427 21.167 14.5161 21.2113 14.4275 21.2113C13.3377 21.1936 12.2479 21.2025 11.1493 21.2113C10.5645 21.2202 9.98861 21.167 9.43043 21.0607C8.33179 20.8392 7.25087 20.6177 6.18767 20.4051C5.51431 20.2722 4.93841 19.9355 5.01815 19.1913C5.01815 19.1647 5.04473 19.147 5.07131 19.147C6.00161 19.147 6.94963 19.147 7.91537 19.1292C8.54443 19.1204 9.21779 19.1824 9.91773 19.3242C11.4062 19.6165 12.6112 19.8646 13.5415 20.0773V20.0861Z" fill="white"/>
<path d="M18.5024 19.581C18.5024 19.6519 18.5644 19.7051 18.6353 19.7051H20.6377C20.6908 19.7051 20.7351 19.6785 20.7617 19.6431C20.8237 19.5545 20.8326 19.4481 20.7883 19.333C20.7617 19.2621 20.806 19.1735 20.8769 19.1558C20.8946 19.1558 20.9035 19.1558 20.9212 19.1558H24.0576C24.0576 19.1558 24.1108 19.1735 24.1197 19.2089C24.3057 20.7151 23.1273 21.2113 21.8869 21.2113C19.6453 21.2113 17.4303 21.2113 15.2508 21.2113C15.1976 21.2113 15.1533 21.167 15.1533 21.1227V19.2532C15.1533 19.1912 15.1888 19.1558 15.2508 19.1558H18.3961C18.4492 19.1558 18.4935 19.2001 18.4935 19.2532V19.5899L18.5024 19.581Z" fill="white"/>
<path d="M31.6512 19.3861V19.2887C31.6512 19.2001 31.6955 19.1558 31.7841 19.1558H34.8674C34.9383 19.1558 34.9737 19.1912 34.9737 19.2621V21.2024C34.9737 21.2733 34.9383 21.3087 34.8674 21.3087H31.7841C31.7221 21.3087 31.6778 21.2733 31.6601 21.2113L31.6158 21.0518C31.598 20.9809 31.5449 20.9455 31.474 20.9543C30.6589 20.9986 29.7551 20.8392 28.9046 20.9189C28.8337 20.9189 28.7983 20.9632 28.7983 21.0341V21.1936C28.7983 21.2733 28.754 21.3087 28.6831 21.3087H25.5289C25.458 21.3087 25.4226 21.2733 25.4137 21.2024C25.3517 20.0595 26.4061 19.5367 27.4072 19.5367C28.8337 19.5367 30.207 19.5367 31.5272 19.5013C31.598 19.5013 31.6335 19.4659 31.6335 19.3861H31.6512Z" fill="white"/>
<path d="M11.1754 21.9818V21.6628C11.1754 21.6185 11.2108 21.5742 11.264 21.5742H14.4093C14.4801 21.5742 14.5156 21.6097 14.5244 21.6717C14.7371 23.3374 13.3904 23.7095 12.0702 23.7095C9.8375 23.7095 7.54275 23.7095 5.19485 23.7095C5.07081 23.7095 5.00879 23.6475 5.00879 23.5234V22.2653C5.00879 22.159 5.09739 22.0792 5.19485 22.0792H11.0779C11.1488 22.0792 11.1842 22.0438 11.1842 21.9729L11.1754 21.9818Z" fill="white"/>
<path d="M18.6179 21.9378C19.9469 21.9378 21.338 21.9378 22.791 21.9378C23.8099 21.9378 25.0946 22.2568 25.1566 23.4617C25.1566 23.5503 25.1212 23.6035 25.0237 23.6035C22.3569 23.6035 19.7697 23.6035 17.2801 23.6035C16.0131 23.6035 15.0208 23.1782 15.1714 21.6986C15.1714 21.6277 15.2157 21.5923 15.2866 21.5923H18.423C18.423 21.5923 18.5028 21.6277 18.5028 21.672V21.8049C18.485 21.8935 18.5293 21.9378 18.6179 21.9378Z" fill="white"/>
<path d="M31.6508 21.9375V21.8134C31.6508 21.7514 31.7039 21.7071 31.766 21.7071H34.8847C34.9556 21.7071 34.991 21.7425 34.991 21.8046C35.0087 22.2033 34.9999 22.5665 34.9733 22.9209C34.9201 23.5943 34.1493 23.7272 33.6 23.7272C31.828 23.7095 29.9585 23.7095 27.9827 23.7272C26.5917 23.736 25.3425 23.4968 25.4399 21.7603C25.4399 21.7248 25.4665 21.6982 25.5019 21.6982H28.7093C28.7536 21.6982 28.789 21.716 28.7979 21.7603C28.8156 21.8134 28.8156 21.8666 28.7979 21.9197C28.7801 21.9995 28.8244 22.0792 28.9042 22.0969C28.913 22.0969 28.9308 22.0969 28.9396 22.0969L31.509 22.0526C31.5976 22.0526 31.6419 22.0083 31.6419 21.9197L31.6508 21.9375Z" fill="white"/>
<path d="M21.816 24.2413V24.0818C21.816 24.0198 21.8426 23.9844 21.9046 23.9844H25.0322C25.0943 23.9844 25.1297 24.011 25.1297 24.073C25.2803 25.6323 23.8804 25.9956 22.6755 25.9956C20.2744 25.9956 17.8556 25.9956 15.4103 25.9956C15.2419 25.9956 15.1533 25.907 15.1533 25.7387V24.6843C15.1533 24.4628 15.2685 24.3476 15.49 24.3476H21.7009C21.7717 24.3476 21.8072 24.3122 21.8072 24.2325L21.816 24.2413Z" fill="white"/>
</g>
<circle cx="20" cy="20" r="19.5" stroke="black" stroke-opacity="0.05"/>
<defs>
<clipPath id="clip0_18553_55699">
<rect width="30" height="9.25871" fill="white" transform="translate(5 16.7368)"/>
</clipPath>
</defs>
</svg>
