<svg width="40" height="40" viewBox="0 0 40 40" fill="none" xmlns="http://www.w3.org/2000/svg">
<circle cx="20" cy="20" r="20" fill="#004891"/>
<path d="M5.46097 15.0017H8.54222C8.54805 15.0017 8.55375 15.0034 8.5586 15.0066C8.56345 15.0099 8.56722 15.0145 8.56941 15.0199C8.57161 15.0253 8.57214 15.0312 8.57093 15.0369C8.56972 15.0426 8.56684 15.0479 8.56264 15.0519L8.2925 15.3156C8.28702 15.3209 8.27969 15.3238 8.27207 15.3238L5.17974 15.3279C5.17391 15.3279 5.1682 15.3262 5.16335 15.323C5.15851 15.3197 5.15474 15.3151 5.15254 15.3097C5.15034 15.3043 5.14982 15.2984 5.15102 15.2927C5.15223 15.287 5.15512 15.2817 5.15932 15.2777L5.44171 15.0081C5.44716 15.0038 5.45399 15.0015 5.46097 15.0017Z" fill="white"/>
<path d="M14.9207 15.0012H16.8146C16.8176 15.0011 16.8206 15.0017 16.8234 15.0028C16.8262 15.0039 16.8288 15.0056 16.8309 15.0077C16.833 15.0098 16.8347 15.0124 16.8358 15.0152C16.8369 15.018 16.8375 15.021 16.8374 15.024V15.3011C16.8375 15.3041 16.8369 15.3071 16.8358 15.3099C16.8347 15.3127 16.833 15.3153 16.8309 15.3174C16.8288 15.3195 16.8262 15.3212 16.8234 15.3223C16.8206 15.3234 16.8176 15.324 16.8146 15.3239H14.6424C14.6378 15.324 14.6333 15.3227 14.6295 15.3202C14.6257 15.3177 14.6227 15.3141 14.6209 15.3099C14.6191 15.3057 14.6187 15.301 14.6196 15.2966C14.6205 15.2921 14.6228 15.288 14.6261 15.2848L14.9067 15.0076C14.9105 15.0039 14.9154 15.0017 14.9207 15.0012Z" fill="white"/>
<path d="M20.4795 15L26.3981 15.0041C26.404 15.004 26.4097 15.0058 26.4145 15.009C26.4194 15.0122 26.4231 15.0169 26.4253 15.0223C26.4275 15.0277 26.428 15.0336 26.4268 15.0393C26.4256 15.045 26.4227 15.0502 26.4185 15.0543L26.1472 15.3157C26.1446 15.3183 26.1415 15.3203 26.1381 15.3217C26.1347 15.3231 26.1311 15.3238 26.1274 15.3238L20.1954 15.3372C20.1895 15.3373 20.1838 15.3356 20.179 15.3323C20.1741 15.3291 20.1704 15.3245 20.1682 15.3191C20.166 15.3137 20.1654 15.3077 20.1666 15.302C20.1679 15.2963 20.1707 15.2911 20.1749 15.2871L20.4591 15.0082C20.4646 15.0029 20.4719 15 20.4795 15Z" fill="white"/>
<path d="M7.72708 15.8646H4.63824C4.63368 15.8645 4.62923 15.8631 4.62545 15.8606C4.62167 15.858 4.61873 15.8544 4.61699 15.8502C4.61525 15.8459 4.61479 15.8413 4.61567 15.8368C4.61654 15.8323 4.61871 15.8282 4.62191 15.8249L4.91364 15.5373C4.91568 15.535 4.91821 15.5332 4.92103 15.532C4.92385 15.5308 4.92691 15.5302 4.92997 15.5303H8.02231C8.0254 15.5302 8.02847 15.5308 8.03133 15.5319C8.0342 15.533 8.03681 15.5348 8.03899 15.5369C8.04117 15.5391 8.04289 15.5417 8.04403 15.5446C8.04518 15.5475 8.04573 15.5505 8.04565 15.5536C8.04583 15.5568 8.0453 15.56 8.04409 15.5629C8.04288 15.5658 8.04101 15.5684 8.03865 15.5705L7.74692 15.8623C7.74395 15.864 7.74065 15.8651 7.73724 15.8655C7.73383 15.8659 7.73037 15.8656 7.72708 15.8646Z" fill="white"/>
<path d="M14.3866 15.5402L16.8225 15.5227C16.8275 15.5227 16.8322 15.5247 16.8357 15.5282C16.8392 15.5317 16.8412 15.5364 16.8412 15.5414L16.8342 15.8494C16.8339 15.8542 16.8318 15.8588 16.8284 15.8621C16.8249 15.8655 16.8203 15.8674 16.8155 15.8675L14.0954 15.864C14.0905 15.864 14.0858 15.8622 14.0822 15.8588C14.0786 15.8554 14.0765 15.8508 14.0762 15.8459C14.0762 15.8407 14.0783 15.8357 14.082 15.8319L14.3737 15.5449C14.3772 15.5417 14.3818 15.54 14.3866 15.5402Z" fill="white"/>
<path d="M25.5894 15.8635L19.6562 15.8675C19.6531 15.8676 19.65 15.8671 19.6471 15.8659C19.6443 15.8648 19.6417 15.8631 19.6395 15.8609C19.6373 15.8587 19.6356 15.8561 19.6344 15.8532C19.6333 15.8504 19.6327 15.8473 19.6328 15.8442C19.6327 15.8412 19.6332 15.8382 19.6343 15.8354C19.6355 15.8326 19.6371 15.83 19.6392 15.8279L19.9351 15.5326C19.9373 15.5304 19.9399 15.5286 19.9428 15.5274C19.9457 15.5262 19.9488 15.5256 19.952 15.5256H25.877C25.8816 15.5257 25.886 15.5271 25.8898 15.5297C25.8936 15.5322 25.8965 15.5359 25.8983 15.5401C25.9 15.5443 25.9005 15.549 25.8996 15.5534C25.8987 15.5579 25.8965 15.562 25.8933 15.5653L25.6063 15.857C25.604 15.8592 25.6014 15.8609 25.5985 15.862C25.5956 15.8631 25.5925 15.8636 25.5894 15.8635Z" fill="white"/>
<path d="M7.49621 16.0956C7.42736 16.1575 7.3626 16.2397 7.37952 16.3378C7.38419 16.371 7.3696 16.3874 7.33634 16.3874H4.12148C4.07636 16.3874 4.06994 16.3716 4.10223 16.3401L4.34553 16.1032C4.35946 16.0893 4.37603 16.0783 4.39426 16.0709C4.4125 16.0635 4.43204 16.0598 4.45172 16.06L7.48046 16.0542C7.5213 16.0542 7.52655 16.0682 7.49621 16.0956Z" fill="white"/>
<path d="M16.8277 16.3882H13.5685C13.5656 16.3882 13.5627 16.3876 13.56 16.3864C13.5573 16.3853 13.5548 16.3836 13.5528 16.3814C13.5508 16.3793 13.5492 16.3768 13.5482 16.374C13.5472 16.3713 13.5467 16.3683 13.5469 16.3654C13.5469 16.3626 13.5475 16.3598 13.5486 16.3572C13.5497 16.3546 13.5513 16.3522 13.5533 16.3502L13.8451 16.0661C13.847 16.0641 13.8494 16.0624 13.852 16.0613C13.8546 16.0602 13.8574 16.0597 13.8602 16.0597L16.8207 16.0515C16.8265 16.0515 16.832 16.0538 16.8362 16.0578C16.8403 16.0618 16.8427 16.0673 16.8429 16.0731L16.8499 16.3648C16.8499 16.3677 16.8495 16.3706 16.8484 16.3734C16.8474 16.3761 16.8458 16.3786 16.8438 16.3807C16.8418 16.3828 16.8394 16.3845 16.8367 16.3857C16.8341 16.3869 16.8312 16.3875 16.8283 16.3876L16.8277 16.3882Z" fill="white"/>
<path d="M25.0768 16.3879H19.1226C19.1181 16.3879 19.1136 16.3865 19.1098 16.3839C19.106 16.3813 19.1031 16.3777 19.1014 16.3735C19.0996 16.3693 19.0992 16.3646 19.1 16.3601C19.1009 16.3557 19.1031 16.3515 19.1063 16.3483L19.398 16.0612C19.4001 16.0589 19.4026 16.0571 19.4054 16.0559C19.4082 16.0547 19.4113 16.0541 19.4143 16.0542H25.358C25.3626 16.0543 25.3671 16.0557 25.3708 16.0582C25.3746 16.0608 25.3776 16.0644 25.3793 16.0687C25.381 16.0729 25.3815 16.0775 25.3806 16.082C25.3798 16.0865 25.3776 16.0906 25.3744 16.0939L25.0967 16.3774C25.0945 16.3807 25.0916 16.3834 25.0881 16.3852C25.0846 16.3871 25.0807 16.388 25.0768 16.3879Z" fill="white"/>
<path d="M7.38004 16.8899C7.37989 16.8969 7.37701 16.9037 7.37201 16.9087C7.36701 16.9137 7.36027 16.9165 7.3532 16.9167H5.23582C5.22875 16.9165 5.22201 16.9137 5.21701 16.9087C5.21201 16.9037 5.20913 16.8969 5.20898 16.8899V16.6086C5.20913 16.6016 5.21201 16.5948 5.21701 16.5898C5.22201 16.5848 5.22875 16.5819 5.23582 16.5818H7.35261C7.35969 16.5819 7.36643 16.5848 7.37143 16.5898C7.37643 16.5948 7.3793 16.6016 7.37945 16.6086L7.38004 16.8899Z" fill="white"/>
<path d="M16.8486 16.8822C16.8486 16.8921 16.8447 16.9016 16.8377 16.9086C16.8307 16.9156 16.8212 16.9196 16.8113 16.9196H14.719C14.7091 16.9196 14.6996 16.9156 14.6926 16.9086C14.6856 16.9016 14.6816 16.8921 14.6816 16.8822V16.6208C14.6816 16.6109 14.6856 16.6014 14.6926 16.5944C14.6996 16.5874 14.7091 16.5835 14.719 16.5835H16.8113C16.8212 16.5835 16.8307 16.5874 16.8377 16.5944C16.8447 16.6014 16.8486 16.6109 16.8486 16.6208V16.8822Z" fill="white"/>
<path d="M23.5177 16.8735C23.5177 16.8852 23.5131 16.8965 23.5048 16.9048C23.4964 16.9131 23.4852 16.9178 23.4734 16.9178H21.394C21.3822 16.9178 21.3709 16.9131 21.3626 16.9048C21.3543 16.8965 21.3496 16.8852 21.3496 16.8735V16.6249C21.3496 16.6131 21.3543 16.6019 21.3626 16.5936C21.3709 16.5852 21.3822 16.5806 21.394 16.5806H23.4734C23.4852 16.5806 23.4964 16.5852 23.5048 16.5936C23.5131 16.6019 23.5177 16.6131 23.5177 16.6249V16.8735Z" fill="white"/>
<path d="M7.37945 17.4195C7.37945 17.4261 7.37681 17.4325 7.3721 17.4372C7.3674 17.4419 7.36102 17.4446 7.35436 17.4446H5.23407C5.23078 17.4446 5.22752 17.4439 5.22447 17.4427C5.22143 17.4414 5.21866 17.4396 5.21633 17.4372C5.214 17.4349 5.21215 17.4321 5.21089 17.4291C5.20963 17.426 5.20898 17.4228 5.20898 17.4195V17.1359C5.20898 17.1326 5.20963 17.1294 5.21089 17.1263C5.21215 17.1233 5.214 17.1205 5.21633 17.1182C5.21866 17.1159 5.22143 17.114 5.22447 17.1127C5.22752 17.1115 5.23078 17.1108 5.23407 17.1108H7.35436C7.36102 17.1108 7.3674 17.1135 7.3721 17.1182C7.37681 17.1229 7.37945 17.1293 7.37945 17.1359V17.4195Z" fill="white"/>
<path d="M16.8459 17.4243C16.8459 17.4294 16.8439 17.4343 16.8403 17.4379C16.8366 17.4415 16.8317 17.4435 16.8266 17.4435H14.7028C14.6977 17.4435 14.6928 17.4415 14.6892 17.4379C14.6856 17.4343 14.6836 17.4294 14.6836 17.4243V17.1325C14.6836 17.1274 14.6856 17.1225 14.6892 17.1189C14.6928 17.1153 14.6977 17.1133 14.7028 17.1133H16.8266C16.8317 17.1133 16.8366 17.1153 16.8403 17.1189C16.8439 17.1225 16.8459 17.1274 16.8459 17.1325V17.4243Z" fill="white"/>
<path d="M23.5156 17.4166C23.5156 17.4233 23.513 17.4297 23.5083 17.4345C23.5036 17.4393 23.4972 17.4421 23.4905 17.4422L21.3772 17.4457C21.3704 17.4457 21.3639 17.443 21.3591 17.4382C21.3543 17.4334 21.3516 17.4269 21.3516 17.4201V17.14C21.3516 17.1332 21.3543 17.1267 21.3591 17.1219C21.3639 17.117 21.3704 17.1143 21.3772 17.1143L23.4905 17.1108C23.4973 17.1108 23.5039 17.1135 23.5087 17.1184C23.5135 17.1232 23.5162 17.1297 23.5162 17.1365L23.5156 17.4166Z" fill="white"/>
<path d="M28.1824 17.4453H25.8486C25.7756 17.4453 25.7721 17.4295 25.8375 17.398C25.9339 17.3527 26.0348 17.3175 26.1385 17.293C26.8176 17.119 27.5339 17.159 28.1894 17.4074C28.2555 17.4327 28.2532 17.4453 28.1824 17.4453Z" fill="white"/>
<path d="M33.3952 18.1021L33.4763 18.0169C33.5043 17.9872 33.4979 17.9726 33.4576 17.9726L31.0719 17.9697C31.0013 17.9697 30.9948 17.9493 31.0526 17.9113L31.3916 17.6745C31.4217 17.6539 31.4573 17.6429 31.4937 17.643H33.7488C33.7732 17.6437 33.7975 17.6389 33.8198 17.6288C33.842 17.6186 33.8617 17.6035 33.8771 17.5846L33.9355 17.5169C33.9705 17.4749 33.9606 17.4533 33.9057 17.4527C33.2526 17.4411 32.5904 17.4422 31.919 17.4562C31.9079 17.4561 31.8968 17.454 31.8864 17.4498C31.849 17.4341 31.8496 17.4189 31.8864 17.4055C32.6192 17.1418 33.3341 17.1211 34.0312 17.3436C35.0301 17.6628 35.7687 18.419 35.9986 19.4587C36.001 19.47 35.9989 19.4818 35.9927 19.4915C35.9864 19.5012 35.9766 19.5081 35.9653 19.5106H35.956H34.135C34.1237 19.5112 34.1125 19.5081 34.103 19.5017C34.0936 19.4954 34.0864 19.4863 34.0825 19.4756C33.8229 18.8752 33.3013 18.5777 32.6385 18.7935C32.5083 18.8355 32.4051 18.9306 32.3035 19.017C32.3006 19.0201 32.2971 19.0225 32.2932 19.0242C32.2893 19.0259 32.285 19.0267 32.2808 19.0267C32.2765 19.0267 32.2723 19.0259 32.2684 19.0242C32.2645 19.0225 32.261 19.0201 32.258 19.017C32.2471 19.0073 32.2329 19.0021 32.2184 19.0024C31.5069 19.0024 30.8472 19.0024 30.2393 19.0024C30.2365 19.0024 30.2338 19.0013 30.2318 18.9993C30.2299 18.9974 30.2288 18.9947 30.2288 18.9919C30.2284 18.9904 30.2284 18.9888 30.2288 18.9872L30.3863 18.6885C30.3886 18.6843 30.392 18.6809 30.3961 18.6784C30.4002 18.676 30.4049 18.6746 30.4096 18.6745C31.1755 18.6714 31.9266 18.6698 32.663 18.6698C32.72 18.672 32.7766 18.6591 32.827 18.6323C32.8774 18.6056 32.9198 18.566 32.95 18.5176C32.9623 18.4989 32.957 18.4896 32.9348 18.4896H30.601C30.5508 18.4896 30.5427 18.4703 30.5742 18.4312L30.7708 18.1978C30.7817 18.1844 30.7955 18.1736 30.8111 18.1663C30.8268 18.159 30.844 18.1554 30.8612 18.1558H33.2855C33.3065 18.155 33.3271 18.1498 33.346 18.1405C33.3649 18.1313 33.3817 18.1182 33.3952 18.1021Z" fill="white"/>
<path d="M7.38062 17.947C7.38062 17.9535 7.37806 17.9598 7.37348 17.9645C7.3689 17.9692 7.36267 17.9719 7.35612 17.9721L5.23466 17.9756C5.22795 17.9756 5.2215 17.9729 5.21671 17.9682C5.21191 17.9636 5.20914 17.9572 5.20898 17.9505V17.6646C5.20898 17.658 5.21155 17.6517 5.21613 17.647C5.2207 17.6423 5.22694 17.6396 5.23349 17.6395L7.35495 17.636C7.36166 17.636 7.3681 17.6386 7.3729 17.6433C7.3777 17.648 7.38047 17.6544 7.38062 17.6611V17.947Z" fill="white"/>
<path d="M16.8478 17.9565C16.8478 17.9604 16.8463 17.9642 16.8436 17.967C16.8409 17.9698 16.8372 17.9715 16.8332 17.9716L14.6954 17.9751C14.6934 17.9752 14.6914 17.9749 14.6895 17.9741C14.6875 17.9734 14.6858 17.9723 14.6843 17.9709C14.6829 17.9695 14.6817 17.9678 14.6809 17.9659C14.6801 17.964 14.6797 17.962 14.6797 17.96V17.6554C14.6797 17.6515 14.6812 17.6477 14.6839 17.6449C14.6866 17.642 14.6904 17.6404 14.6943 17.6402L16.8327 17.6367C16.8367 17.6367 16.8405 17.6383 16.8434 17.6412C16.8462 17.644 16.8478 17.6479 16.8478 17.6519V17.9565Z" fill="white"/>
<path d="M20.162 17.9746H17.7728C17.7689 17.9746 17.7651 17.9738 17.7615 17.9723C17.758 17.9708 17.7548 17.9686 17.7521 17.9658C17.7494 17.963 17.7474 17.9597 17.746 17.9561C17.7446 17.9525 17.744 17.9487 17.7442 17.9448C17.7442 17.9411 17.7449 17.9375 17.7463 17.9341C17.7477 17.9307 17.7497 17.9276 17.7523 17.925L18.0172 17.6578C18.0199 17.6549 18.0232 17.6527 18.0268 17.6511C18.0304 17.6496 18.0343 17.6489 18.0382 17.649L20.4537 17.6321C20.4596 17.632 20.4653 17.6338 20.4701 17.637C20.475 17.6402 20.4787 17.6449 20.4809 17.6503C20.4831 17.6557 20.4837 17.6616 20.4825 17.6673C20.4813 17.673 20.4784 17.6782 20.4742 17.6823L20.1824 17.967C20.1769 17.9721 20.1695 17.9748 20.162 17.9746Z" fill="white"/>
<path d="M23.5166 17.9453C23.5166 17.9518 23.514 17.958 23.5094 17.9626C23.5048 17.9672 23.4986 17.9698 23.4921 17.9698L21.3747 17.9733C21.3714 17.9734 21.3682 17.9728 21.3651 17.9716C21.3621 17.9704 21.3593 17.9686 21.357 17.9663C21.3547 17.964 21.3528 17.9613 21.3515 17.9583C21.3503 17.9553 21.3496 17.952 21.3496 17.9488V17.6652C21.3496 17.6587 21.3522 17.6525 21.3568 17.6479C21.3614 17.6433 21.3676 17.6407 21.3741 17.6407L23.4915 17.6372C23.4948 17.6371 23.498 17.6377 23.501 17.6389C23.5041 17.6401 23.5069 17.6419 23.5092 17.6442C23.5115 17.6465 23.5134 17.6492 23.5147 17.6522C23.5159 17.6552 23.5166 17.6585 23.5166 17.6617V17.9453Z" fill="white"/>
<path d="M29.0359 17.9722H24.9681C24.962 17.9722 24.9562 17.9698 24.952 17.9656C24.9477 17.9613 24.9453 17.9555 24.9453 17.9495C24.9454 17.9458 24.9463 17.9422 24.948 17.9389C24.9498 17.9357 24.9522 17.9329 24.9552 17.9308L25.3479 17.6583C25.3517 17.6558 25.3562 17.6543 25.3607 17.6542L28.6351 17.6292C28.6402 17.6292 28.6451 17.6308 28.6491 17.6338L29.0494 17.9325C29.0541 17.9363 29.0571 17.9418 29.0579 17.9478C29.0586 17.9538 29.057 17.9598 29.0535 17.9646C29.0513 17.9671 29.0486 17.9691 29.0456 17.9704C29.0425 17.9717 29.0392 17.9723 29.0359 17.9722Z" fill="white"/>
<path d="M11.8987 17.6372C12.2675 17.6372 12.6806 17.7107 12.9945 17.9184C13.0528 17.9552 13.0452 17.9768 12.9781 17.9768H8.55785C8.49951 17.9768 8.489 17.9564 8.53276 17.9149L8.75915 17.6991C8.77849 17.6801 8.80139 17.6652 8.82653 17.6552C8.85167 17.6452 8.87854 17.6403 8.90559 17.6407C9.88658 17.6407 10.8843 17.6395 11.8987 17.6372Z" fill="white"/>
<path d="M10.3977 18.4897H8.02185C7.974 18.4897 7.96758 18.4734 8.00259 18.4407L8.25114 18.2073C8.27836 18.181 8.31484 18.1666 8.35267 18.167C9.96379 18.1639 11.578 18.1593 13.1954 18.153C13.231 18.1538 13.2659 18.1637 13.2966 18.1819C13.3273 18.2001 13.3527 18.2259 13.3704 18.2569C13.6071 18.5846 13.7315 18.98 13.7252 19.3841C13.7252 20.2834 13.7252 21.2049 13.7252 22.1486C13.7246 22.1526 13.7249 22.1567 13.7262 22.1606C13.7275 22.1645 13.7297 22.168 13.7326 22.1709C13.7355 22.1738 13.739 22.176 13.7429 22.1773C13.7467 22.1785 13.7509 22.1789 13.7549 22.1783H14.6301C14.6442 22.1783 14.6578 22.1728 14.6679 22.1628C14.6779 22.1529 14.6836 22.1394 14.6838 22.1252V18.1659C14.6839 18.1601 14.6863 18.1546 14.6905 18.1506C14.6946 18.1465 14.7002 18.1443 14.706 18.1443C15.4078 18.1488 16.1089 18.1901 16.8064 18.268C16.8205 18.2698 16.8335 18.2768 16.8428 18.2875C16.8522 18.2983 16.8573 18.3121 16.8572 18.3263V18.7791C16.8572 18.8193 16.8712 18.8252 16.8998 18.7966L17.4879 18.195C17.5089 18.1739 17.5374 18.1619 17.5672 18.1618L19.9244 18.1542C19.9828 18.1542 19.9938 18.1746 19.9495 18.2166L19.7243 18.4308C19.6847 18.469 19.6317 18.49 19.5767 18.4891H17.9121C17.9056 18.4891 17.9027 18.4926 17.9021 18.4996C17.9018 18.5011 17.9018 18.5027 17.9021 18.5042C17.9025 18.5057 17.9031 18.5071 17.9041 18.5084C17.905 18.5096 17.9062 18.5106 17.9076 18.5113C17.909 18.512 17.9105 18.5124 17.9121 18.5124C18.3619 18.5755 18.8193 18.6426 19.2669 18.7814C19.277 18.7848 19.2854 18.792 19.2902 18.8015C19.295 18.811 19.2958 18.822 19.2925 18.8322C19.2908 18.8381 19.2876 18.8436 19.2832 18.8479L18.5895 19.5423C18.5827 19.5491 18.5786 19.5582 18.5778 19.5678C18.5771 19.5774 18.5798 19.5869 18.5854 19.5948L21.3171 23.2671C21.3358 23.2921 21.3451 23.2886 21.3451 23.2577V20.107C21.3452 20.104 21.3459 20.101 21.3471 20.0982C21.3484 20.0954 21.3502 20.0928 21.3524 20.0907C21.3546 20.0886 21.3572 20.0869 21.3601 20.0858C21.3629 20.0847 21.366 20.0842 21.3691 20.0843C21.3727 20.0835 21.3765 20.0835 21.3801 20.0843C21.5167 20.1648 21.6135 20.2138 21.7845 20.2121C22.3582 20.2051 22.9294 20.2027 23.4981 20.2051C23.5086 20.2051 23.5139 20.2103 23.5144 20.2214L23.5203 20.5131C23.5204 20.5157 23.5199 20.5183 23.519 20.5207C23.518 20.5231 23.5166 20.5253 23.5148 20.5271C23.5131 20.529 23.5109 20.5304 23.5085 20.5314C23.5062 20.5325 23.5036 20.533 23.501 20.533L22.7869 20.5394C22.6883 20.5394 22.6871 20.5516 22.7834 20.5732C22.9779 20.6172 23.2081 20.6633 23.4742 20.7115C23.4857 20.7135 23.4962 20.7195 23.5037 20.7285C23.5112 20.7374 23.5152 20.7488 23.515 20.7605V23.546C23.5155 23.55 23.5151 23.554 23.5137 23.5578C23.5124 23.5616 23.5102 23.5651 23.5073 23.5679C23.5045 23.5707 23.501 23.5728 23.4971 23.5741C23.4933 23.5753 23.4893 23.5757 23.4853 23.5751H18.7896C18.7746 23.5756 18.7598 23.5721 18.7465 23.5652C18.7332 23.5582 18.7219 23.548 18.7137 23.5355L16.8828 20.9256C16.8578 20.8889 16.8449 20.893 16.8449 20.9373V23.5384C16.8456 23.5434 16.8451 23.5484 16.8435 23.5532C16.8419 23.558 16.8392 23.5623 16.8356 23.5659C16.8321 23.5694 16.8278 23.5721 16.823 23.5737C16.8182 23.5753 16.8131 23.5758 16.8082 23.5751H14.7147C14.7062 23.5751 14.698 23.5717 14.692 23.5657C14.686 23.5597 14.6826 23.5515 14.6826 23.543L14.6873 22.442C14.6873 22.3919 14.6698 22.3837 14.6342 22.4199L13.511 23.546C13.4923 23.5642 13.4672 23.5744 13.441 23.5745H11.609C11.604 23.5752 11.599 23.5748 11.5943 23.5732C11.5896 23.5716 11.5854 23.5689 11.5819 23.5654C11.5784 23.5619 11.5757 23.5577 11.5741 23.553C11.5726 23.5483 11.5721 23.5433 11.5728 23.5384C11.5728 22.2874 11.5728 21.0381 11.5728 19.7902C11.5728 19.5201 11.5652 19.3596 11.5506 19.31C11.4938 19.1191 11.3341 19.0218 11.0716 19.0183C10.882 19.0142 10.7075 19.0131 10.5465 19.0142C10.5429 19.0137 10.5393 19.0141 10.5359 19.0152C10.5325 19.0164 10.5294 19.0183 10.5268 19.0208C10.5243 19.0234 10.5224 19.0265 10.5212 19.0299C10.5201 19.0333 10.5197 19.0369 10.5202 19.0405V23.56C10.5205 23.5623 10.5202 23.5647 10.5195 23.567C10.5187 23.5692 10.5174 23.5713 10.5157 23.573C10.514 23.5746 10.512 23.5759 10.5097 23.5767C10.5075 23.5775 10.5051 23.5777 10.5027 23.5775H8.38417C8.37576 23.5775 8.36769 23.5742 8.36169 23.5683C8.35568 23.5624 8.35224 23.5544 8.35208 23.546V22.3983C8.35216 22.3961 8.3518 22.3939 8.35102 22.3918C8.35024 22.3897 8.34906 22.3878 8.34754 22.3861C8.34603 22.3845 8.3442 22.3832 8.34218 22.3823C8.34016 22.3814 8.33797 22.3809 8.33575 22.3808C8.33337 22.3808 8.33101 22.3812 8.32881 22.3821C8.3266 22.383 8.3246 22.3844 8.32291 22.386L7.17816 23.5337C7.14353 23.568 7.09679 23.5873 7.04805 23.5874H4.02573C4.02242 23.5875 4.01911 23.587 4.016 23.5859C4.01289 23.5847 4.01005 23.5829 4.00765 23.5806C4.00524 23.5783 4.00333 23.5756 4.00203 23.5725C4.00073 23.5695 4.00006 23.5662 4.00006 23.5629C3.99981 23.5594 4.00036 23.5559 4.00167 23.5527C4.00299 23.5494 4.00503 23.5465 4.00765 23.5442L5.17456 22.3627C5.20031 22.3366 5.21476 22.3014 5.21482 22.2647V20.806C5.21482 20.8027 5.21547 20.7995 5.21673 20.7964C5.21799 20.7934 5.21984 20.7906 5.22217 20.7883C5.2245 20.786 5.22727 20.7841 5.23031 20.7828C5.23335 20.7816 5.23662 20.7809 5.23991 20.7809H5.24516C5.33715 20.8044 5.43377 20.8027 5.52484 20.7759C5.61592 20.7491 5.69808 20.6982 5.76269 20.6287C5.78661 20.6047 5.78136 20.5931 5.74752 20.5931L5.23291 20.5971C5.22765 20.5971 5.2226 20.5951 5.21888 20.5913C5.21516 20.5876 5.21307 20.5826 5.21307 20.5773V20.2792C5.21307 20.2669 5.21949 20.2611 5.23116 20.2617C5.51744 20.2648 5.80684 20.2663 6.09935 20.2663C6.19705 20.2721 6.29495 20.2589 6.38758 20.2272C6.47492 20.187 6.55917 20.1404 6.63963 20.0878C6.64164 20.0865 6.64318 20.0846 6.64402 20.0824C6.64487 20.0801 6.64497 20.0777 6.64431 20.0754C6.64366 20.0731 6.64228 20.0711 6.64039 20.0696C6.63849 20.0682 6.63618 20.0674 6.6338 20.0674L5.22532 20.0709C5.21541 20.0709 5.21074 20.0662 5.21132 20.0563L5.21774 19.7476C5.21774 19.74 5.22182 19.736 5.22941 19.736H7.34212C7.3471 19.7353 7.35218 19.7358 7.35694 19.7374C7.36171 19.739 7.36604 19.7417 7.3696 19.7452C7.37316 19.7488 7.37584 19.7531 7.37745 19.7579C7.37906 19.7627 7.37955 19.7677 7.37887 19.7727V22.1597C7.37887 22.1674 7.38195 22.1748 7.38742 22.1803C7.39289 22.1858 7.40031 22.1888 7.40805 22.1888H8.31649C8.32521 22.1888 8.33358 22.1854 8.33981 22.1793C8.34603 22.1732 8.3496 22.1649 8.34975 22.1562V19.2482C8.34897 19.2357 8.35223 19.2233 8.35906 19.2127C8.36589 19.2022 8.37593 19.1942 8.38767 19.1898C8.50437 19.1449 8.60881 19.1012 8.70391 19.0574C8.77101 19.0271 8.76809 19.0119 8.69399 19.0119H7.51307C7.46698 19.0119 7.45997 18.9956 7.49148 18.9623L7.70561 18.7394C7.72003 18.7241 7.73739 18.7119 7.75663 18.7035C7.77588 18.6951 7.79663 18.6906 7.81763 18.6904L9.58377 18.677C9.86733 18.677 10.1311 18.5825 10.4006 18.5189C10.4945 18.5002 10.4928 18.4891 10.3977 18.4897Z" fill="white"/>
<path d="M7.37986 18.4577C7.37986 18.4654 7.37678 18.4728 7.37131 18.4783C7.36584 18.4838 7.35842 18.4868 7.35069 18.4868L5.24206 18.4938C5.23433 18.4938 5.22691 18.4908 5.22144 18.4853C5.21596 18.4798 5.21289 18.4724 5.21289 18.4647V18.1951C5.21289 18.1874 5.21596 18.18 5.22144 18.1745C5.22691 18.169 5.23433 18.1659 5.24206 18.1659L7.35069 18.1589C7.35842 18.1589 7.36584 18.162 7.37131 18.1675C7.37678 18.173 7.37986 18.1804 7.37986 18.1881V18.4577Z" fill="white"/>
<path d="M23.5197 18.4436C23.5197 18.4537 23.5157 18.4633 23.5086 18.4704C23.5015 18.4776 23.4918 18.4816 23.4818 18.4816H21.3895C21.3794 18.4816 21.3698 18.4776 21.3627 18.4704C21.3556 18.4633 21.3516 18.4537 21.3516 18.4436V18.1881C21.3516 18.178 21.3556 18.1684 21.3627 18.1613C21.3698 18.1541 21.3794 18.1501 21.3895 18.1501H23.4847C23.4947 18.1501 23.5044 18.1541 23.5115 18.1613C23.5186 18.1684 23.5226 18.178 23.5226 18.1881L23.5197 18.4436Z" fill="white"/>
<path d="M29.4629 18.4821H24.5298C24.5219 18.4821 24.5143 18.479 24.5087 18.4734C24.5031 18.4678 24.5 18.4602 24.5 18.4523C24.4999 18.4453 24.5024 18.4384 24.507 18.4331L24.7351 18.1624C24.738 18.1591 24.7415 18.1565 24.7454 18.1547C24.7493 18.1529 24.7536 18.1519 24.7579 18.1519H29.2599C29.2644 18.1519 29.2688 18.153 29.2728 18.1551C29.2769 18.1571 29.2804 18.16 29.2832 18.1635L29.4886 18.4366C29.4919 18.441 29.494 18.4462 29.4946 18.4517C29.4951 18.4572 29.4941 18.4628 29.4917 18.4677C29.4893 18.4727 29.4855 18.4769 29.4808 18.4798C29.4762 18.4828 29.4708 18.4844 29.4652 18.4844L29.4629 18.4821Z" fill="white"/>
<path d="M23.5164 18.9629C23.5164 18.9716 23.513 18.98 23.5069 18.9862C23.5008 18.9924 23.4924 18.996 23.4837 18.9961L21.3874 18.9996C21.3829 18.9997 21.3786 18.9989 21.3744 18.9973C21.3703 18.9956 21.3666 18.9932 21.3635 18.9901C21.3603 18.987 21.3578 18.9833 21.3561 18.9793C21.3544 18.9752 21.3535 18.9708 21.3535 18.9664V18.7003C21.3535 18.6915 21.357 18.6831 21.3633 18.6768C21.3695 18.6706 21.378 18.6671 21.3868 18.6671L23.4837 18.6636C23.4925 18.6636 23.501 18.6671 23.5072 18.6733C23.5135 18.6796 23.517 18.688 23.517 18.6968L23.5164 18.9629Z" fill="white"/>
<path d="M29.6312 18.6811L29.7747 18.9828C29.7759 18.9853 29.7761 18.9881 29.7752 18.9907C29.7744 18.9934 29.7725 18.9955 29.77 18.9968H29.7654H27.7431C27.7223 18.997 27.702 18.9909 27.6847 18.9793C27.5891 18.9048 27.4839 18.8433 27.372 18.7966C27.2292 18.7428 27.0769 18.7186 26.9244 18.7256C26.7719 18.7326 26.6224 18.7707 26.4851 18.8375C26.3918 18.8824 26.306 18.9968 26.1981 18.9968C25.5135 18.9968 24.8369 18.9968 24.1682 18.9968C24.1643 18.9968 24.1632 18.995 24.1647 18.9915C24.2113 18.8774 24.271 18.7691 24.3427 18.6689C24.3433 18.6686 24.344 18.6685 24.3447 18.6685C24.3454 18.6685 24.3461 18.6686 24.3468 18.6689H29.6061C29.611 18.6684 29.6159 18.6693 29.6203 18.6715C29.6248 18.6736 29.6285 18.677 29.6312 18.6811Z" fill="white"/>
<path d="M7.37986 18.9786C7.37986 18.9884 7.37601 18.9978 7.36913 19.0048C7.36225 19.0118 7.3529 19.0158 7.3431 19.016L5.25082 19.0195C5.24586 19.0195 5.24094 19.0186 5.23635 19.0168C5.23175 19.0149 5.22756 19.0122 5.22403 19.0087C5.2205 19.0053 5.2177 19.0011 5.21579 18.9965C5.21387 18.992 5.21289 18.9871 5.21289 18.9821V18.7196C5.21289 18.7098 5.21674 18.7003 5.22362 18.6934C5.2305 18.6864 5.23985 18.6824 5.24965 18.6822L7.34193 18.6787C7.34689 18.6786 7.3518 18.6795 7.3564 18.6814C7.361 18.6832 7.36519 18.686 7.36872 18.6894C7.37225 18.6929 7.37505 18.6971 7.37696 18.7016C7.37887 18.7062 7.37986 18.7111 7.37986 18.7161V18.9786Z" fill="white"/>
<path d="M25.3229 21.0756C25.4824 21.1221 25.6443 21.1601 25.8078 21.1894C25.8209 21.1917 25.8329 21.1983 25.842 21.2081C25.851 21.2179 25.8566 21.2304 25.858 21.2436C25.8743 21.4161 25.9285 21.5828 26.0167 21.732C26.3018 22.2178 26.7102 22.424 27.2419 22.3504C27.4856 22.3179 27.715 22.2165 27.9031 22.0582C28.0911 21.8998 28.2302 21.6912 28.3038 21.4566C28.3132 21.4292 28.3301 21.4227 28.354 21.4385L29.7321 22.3219C29.7462 22.3308 29.7561 22.345 29.7597 22.3613C29.7634 22.3776 29.7603 22.3947 29.7514 22.4088V22.4123C29.0063 23.4153 27.8884 23.8669 26.6555 23.7408C25.1386 23.5856 24.0061 22.19 23.8386 20.7378C23.8383 20.7352 23.8385 20.7325 23.8392 20.73C23.8399 20.7274 23.8411 20.7251 23.8427 20.723C23.8444 20.721 23.8464 20.7192 23.8487 20.718C23.851 20.7167 23.8535 20.7159 23.8561 20.7156C25.7006 20.7222 27.5854 20.7236 29.5104 20.7197C29.6709 20.7197 29.7911 20.6497 29.9311 20.5913C30.0204 20.5546 30.0163 20.5359 29.92 20.5359L23.8637 20.54C23.8582 20.54 23.8528 20.5389 23.8477 20.5368C23.8426 20.5346 23.8381 20.5315 23.8342 20.5276C23.8303 20.5237 23.8273 20.5191 23.8253 20.514C23.8232 20.5089 23.8222 20.5035 23.8223 20.498L23.8252 20.2547C23.8244 20.2493 23.8249 20.2438 23.8266 20.2386C23.8283 20.2334 23.8312 20.2287 23.8351 20.2249C23.8389 20.221 23.8436 20.2181 23.8488 20.2164C23.854 20.2147 23.8595 20.2142 23.8649 20.215C26.0524 20.2103 28.2603 20.2064 30.4883 20.2033C30.6264 20.2104 30.7623 20.1668 30.8705 20.0808C30.9107 20.0464 30.9043 20.0289 30.8512 20.0289H23.8689C23.8643 20.0289 23.8619 20.0289 23.8625 20.0224C23.8667 19.9153 23.8833 19.8089 23.9121 19.7056C23.9125 19.7034 23.9138 19.7013 23.9156 19.6999C23.9175 19.6985 23.9197 19.6979 23.922 19.698C26.2835 19.6906 28.6444 19.6906 31.0047 19.698C31.3121 19.698 31.4603 19.7266 31.6465 19.537C31.6493 19.534 31.6508 19.53 31.6508 19.5259C31.6508 19.5218 31.6493 19.5179 31.6465 19.5148C31.6435 19.5119 31.6395 19.5102 31.6354 19.5102C31.1196 19.5078 30.5892 19.5078 30.0443 19.5102C30.0443 19.5102 30.0408 19.5102 30.0443 19.5061C30.0731 19.3985 30.111 19.2935 30.1575 19.1922C30.1586 19.1894 30.1605 19.187 30.163 19.1853C30.1655 19.1836 30.1685 19.1828 30.1715 19.1828L32.0531 19.1747C32.0789 19.1743 32.1041 19.1664 32.1255 19.1519L32.2422 19.0737C32.2748 19.0522 32.2807 19.0574 32.2591 19.0907C32.1699 19.2202 32.0979 19.3609 32.045 19.509C31.7392 20.4536 31.7311 21.8831 32.8822 22.2991C33.5112 22.5267 34.1804 22.0074 34.3782 21.456C34.3872 21.4307 34.4029 21.4255 34.4255 21.4402L35.8059 22.3248C35.8181 22.3331 35.8267 22.3457 35.83 22.3601C35.8332 22.3745 35.8309 22.3896 35.8234 22.4024C35.4325 23.0273 34.7295 23.4526 34.0392 23.6405C32.1523 24.1598 30.3693 22.9829 29.9719 21.0943C29.9699 21.0836 29.9641 21.074 29.9557 21.0672C29.9473 21.0604 29.9367 21.0567 29.9258 21.0569H25.3323C25.2803 21.0563 25.2792 21.0628 25.3229 21.0756Z" fill="white"/>
<path d="M23.5162 19.4797C23.5162 19.4867 23.5134 19.4934 23.5085 19.4983C23.5036 19.5032 23.4969 19.506 23.4899 19.506L21.3778 19.5095C21.3709 19.5095 21.3642 19.5067 21.3593 19.5018C21.3543 19.4969 21.3516 19.4902 21.3516 19.4832V19.2043C21.3516 19.1974 21.3543 19.1907 21.3593 19.1858C21.3642 19.1808 21.3709 19.1781 21.3778 19.1781L23.4899 19.1746C23.4969 19.1746 23.5036 19.1773 23.5085 19.1823C23.5134 19.1872 23.5162 19.1939 23.5162 19.2008V19.4797Z" fill="white"/>
<path d="M25.9409 19.5077H24.0015C23.993 19.5077 23.9848 19.5044 23.9788 19.4983C23.9728 19.4923 23.9694 19.4842 23.9694 19.4757C23.9685 19.4716 23.9685 19.4674 23.9694 19.4634L24.0756 19.202C24.078 19.1961 24.0821 19.1911 24.0874 19.1876C24.0927 19.184 24.099 19.1822 24.1053 19.1822L26.0517 19.1699C26.056 19.1699 26.0601 19.1708 26.064 19.1724C26.0679 19.174 26.0715 19.1763 26.0744 19.1793C26.0774 19.1823 26.0798 19.1858 26.0814 19.1897C26.083 19.1936 26.0838 19.1978 26.0838 19.202C26.0847 19.2061 26.0847 19.2102 26.0838 19.2143L25.9706 19.4879C25.9682 19.4938 25.9641 19.4988 25.9588 19.5024C25.9535 19.5059 25.9473 19.5078 25.9409 19.5077Z" fill="white"/>
<path d="M27.9261 19.1753H29.8288C29.833 19.1753 29.8372 19.1767 29.8406 19.1792C29.8441 19.1817 29.8467 19.1852 29.848 19.1893L29.9326 19.481C29.9333 19.4835 29.9335 19.4862 29.9332 19.4888C29.9329 19.4914 29.932 19.4939 29.9307 19.4962C29.9294 19.4984 29.9277 19.5004 29.9256 19.502C29.9235 19.5036 29.9212 19.5048 29.9186 19.5055H28.0574C28.0536 19.5054 28.0499 19.5043 28.0467 19.5022C28.0435 19.5002 28.0409 19.4973 28.0393 19.4938L27.908 19.2021C27.9069 19.1997 27.9063 19.1972 27.9063 19.1946C27.9062 19.1919 27.9066 19.1894 27.9075 19.1869C27.9085 19.1845 27.9098 19.1822 27.9116 19.1803C27.9134 19.1784 27.9156 19.1769 27.9179 19.1758C27.9206 19.175 27.9234 19.1748 27.9261 19.1753Z" fill="white"/>
<path d="M7.37907 19.5141C7.37907 19.5211 7.37631 19.5278 7.37138 19.5327C7.36646 19.5376 7.35978 19.5404 7.35282 19.5404H5.23719C5.23023 19.5404 5.22355 19.5376 5.21863 19.5327C5.2137 19.5278 5.21094 19.5211 5.21094 19.5141V19.2352C5.21094 19.2283 5.2137 19.2216 5.21863 19.2167C5.22355 19.2117 5.23023 19.209 5.23719 19.209H7.35048C7.35745 19.209 7.36412 19.2117 7.36905 19.2167C7.37397 19.2216 7.37674 19.2283 7.37674 19.2352L7.37907 19.5141Z" fill="white"/>
<path d="M23.515 20.0091C23.515 20.0136 23.5132 20.0179 23.5101 20.0211C23.5069 20.0243 23.5026 20.026 23.4981 20.026H21.3685C21.364 20.026 21.3597 20.0243 21.3565 20.0211C21.3533 20.0179 21.3516 20.0136 21.3516 20.0091V19.7127C21.3516 19.7082 21.3533 19.7039 21.3565 19.7008C21.3597 19.6976 21.364 19.6958 21.3685 19.6958H23.4981C23.5026 19.6958 23.5069 19.6976 23.5101 19.7008C23.5132 19.7039 23.515 19.7082 23.515 19.7127V20.0091Z" fill="white"/>
<circle cx="20" cy="20" r="19.5" stroke="black" stroke-opacity="0.05"/>
</svg>
