<svg width="40" height="40" viewBox="0 0 40 40" fill="none" xmlns="http://www.w3.org/2000/svg">
<circle cx="20" cy="20" r="20" fill="#F6F8FA"/>
<circle cx="20" cy="20" r="19.5" stroke="black" stroke-opacity="0.05"/>
<g clip-path="url(#clip0_18553_55874)">
<path d="M35.9866 16.8778C35.9866 16.8137 35.9331 16.7625 35.8661 16.7625L28.5757 16.7368H24.0837H18.0653L4.11381 16.7689C4.11381 16.7689 4.06695 16.7817 4.05356 16.8073C4.02008 16.8843 4 16.9676 4 17.0573C4 19.7368 4 22.4099 4 25.0702C4 25.1919 4.10042 25.2881 4.22092 25.2945C4.77657 25.3202 5.31213 25.4099 5.86778 25.4355C6.17573 25.4484 6.47699 25.474 6.78494 25.5125C7.34728 25.583 7.90962 25.5637 8.47866 25.6086C8.96067 25.6471 9.4159 25.6727 9.85774 25.6791C10.8552 25.6984 11.8728 25.7112 12.9105 25.724C14.0485 25.7368 15.6285 25.7176 17.6435 25.6599C18.1054 25.6471 18.5674 25.5766 19.0159 25.5701C19.451 25.5637 19.8527 25.5317 20.2209 25.4868C20.4418 25.4612 20.6628 25.4419 20.877 25.4291C21.2987 25.4099 21.7138 25.3137 22.1423 25.2881C22.3364 25.2753 22.5372 25.2496 22.7381 25.2048C22.959 25.1599 23.1799 25.1599 23.4008 25.1214C24.0703 25.0189 24.8669 24.8843 25.7841 24.7112C26.1724 24.6407 26.5941 24.5445 27.0561 24.4355C28.2678 24.1791 29.5197 23.8201 30.805 23.3586C31.1531 23.2304 31.5146 23.0958 31.9029 22.9484C32.0435 22.8971 32.1707 22.833 32.2912 22.7753C32.3983 22.7176 32.3916 22.6791 32.2711 22.6663C31.6351 22.5701 31.0795 22.3009 30.7715 21.756C30.5841 21.4227 30.5105 21.0509 30.564 20.6407C30.631 20.0894 30.9523 19.6599 31.528 19.3586C32.2243 19.0253 32.9473 19.0509 33.6904 19.224C33.7841 19.2432 33.831 19.3009 33.831 19.3971V19.8714C33.831 19.9484 33.7975 19.9676 33.7239 19.9355C33.3289 19.7368 32.9339 19.6791 32.5389 19.7689C31.7423 19.9419 31.4075 20.7304 31.7222 21.4291C31.9498 21.9419 32.5523 22.1727 33.108 22.0701C33.1414 22.0637 33.1682 22.0317 33.1682 21.9996V21.083H33.1615C33.1615 21.0573 33.1816 21.0317 33.2151 21.0317H33.918C33.9515 21.0317 33.9782 21.0573 33.9782 21.0958L33.9582 21.8971C33.9582 21.8971 33.9582 21.9163 33.9582 21.9227C33.9715 21.9548 34.0117 21.9676 34.0452 21.9548C34.2192 21.8843 34.3866 21.8009 34.5473 21.6984C35.0025 21.4163 35.451 21.1278 35.8862 20.8201C35.9665 20.7625 36.0067 20.6855 36.0067 20.5894C36.0067 19.3458 36.0067 18.1086 35.9933 16.8778H35.9866ZM8.15732 22.8458C7.82929 23.6086 7.05272 23.8843 6.24268 23.9035C6.22929 23.9035 6.22259 23.8971 6.22259 23.8843V23.2689C6.22259 23.2689 6.22259 23.256 6.23598 23.2496C6.67113 23.2176 6.97238 23.0509 7.12636 22.7496C7.20669 22.6022 7.24017 22.3586 7.24017 22.0317C7.23347 21.1984 7.22678 20.4612 7.24017 19.8201C7.24017 19.7945 7.22008 19.7817 7.2 19.7817H6.5841C6.51715 19.7817 6.48368 19.7496 6.48368 19.6919L6.4636 19.2753C6.4636 19.2176 6.49038 19.1855 6.55063 19.1855L8.21757 19.1727C8.25774 19.1727 8.29791 19.2048 8.29791 19.2496C8.29791 20.1278 8.29791 20.9996 8.29791 21.8778C8.29791 22.3202 8.25774 22.6471 8.16402 22.8586L8.15732 22.8458ZM12.2879 22.6471H11.3774C11.3238 22.6471 11.277 22.615 11.2569 22.5637L10.3866 20.2753C10.3866 20.2753 10.3665 20.256 10.3531 20.2496C10.3331 20.2496 10.313 20.2496 10.2929 20.2689C10.2594 20.2881 10.2326 20.3201 10.2192 20.3586C9.93808 21.0894 9.6569 21.833 9.36234 22.5766C9.34895 22.615 9.30879 22.6407 9.26862 22.6407H8.65272C8.57238 22.6535 8.5523 22.615 8.57908 22.5445L9.89121 19.2432C9.9113 19.1984 9.95816 19.1663 10.005 19.1663H10.9289C10.9824 19.1663 11.0226 19.1919 11.0427 19.2432L12.3615 22.5573C12.3816 22.615 12.3615 22.6471 12.3013 22.6471H12.2879ZM13.7473 20.583C13.7473 20.583 13.7607 20.6086 13.7741 20.6086H15.2736C15.2736 20.6086 15.3004 20.6214 15.3004 20.6407V21.1919C15.3004 21.1919 15.2937 21.2176 15.2736 21.2176H13.7607C13.7607 21.2176 13.7339 21.2304 13.7339 21.2432V22.006C13.7339 22.006 13.754 22.0317 13.7674 22.0317L15.3205 22.0509C15.3205 22.0509 15.3473 22.0637 15.3473 22.0766V22.6086C15.3473 22.6086 15.3473 22.6343 15.3272 22.6343L12.723 22.6663C12.723 22.6663 12.6962 22.6535 12.6962 22.6407V19.1984C12.6962 19.1984 12.7029 19.1727 12.7163 19.1727H14.9724C14.9724 19.1727 14.9925 19.1791 14.9925 19.1855L15.3473 19.7496C15.3473 19.7496 15.3473 19.756 15.3473 19.7625C15.3473 19.7753 15.3339 19.7881 15.3205 19.7881H13.7473V19.7817C13.7339 19.7817 13.7205 19.7945 13.7205 19.8073V20.5894L13.7473 20.583ZM17.9113 21.2112C17.8577 21.2817 17.831 21.3714 17.831 21.4612V22.5958C17.831 22.5958 17.8109 22.6471 17.7774 22.6471H16.9205C16.8335 22.6471 16.7866 22.6022 16.7866 22.5189V21.4612C16.7866 21.365 16.7531 21.2689 16.6929 21.1855L15.3874 19.2368C15.3874 19.2368 15.3874 19.224 15.3874 19.2176C15.3874 19.1984 15.4075 19.1791 15.4276 19.1791H16.4251C16.4787 19.1791 16.5322 19.2048 16.559 19.2496L17.4226 20.5573C17.4226 20.5573 17.436 20.5766 17.4494 20.583C17.4828 20.5958 17.5096 20.5958 17.5364 20.583C17.5498 20.583 17.5565 20.5701 17.5632 20.5573C17.8577 20.1278 18.1657 19.6855 18.4803 19.2368C18.5004 19.2112 18.5339 19.1919 18.5674 19.1919H19.2569C19.2569 19.1919 19.277 19.1919 19.2837 19.1919C19.3105 19.2048 19.3172 19.2368 19.2971 19.2625L17.9046 21.224L17.9113 21.2112ZM22.7113 21.2304C22.5506 22.2368 21.7874 22.8009 20.7163 22.724C19.9331 22.6663 19.3774 22.2625 19.1498 21.5189C18.9891 21.0125 19.036 20.3714 19.3305 19.8971C19.5649 19.5253 19.913 19.2817 20.395 19.1663C21.3389 18.9419 22.3498 19.3458 22.6377 20.2753C22.7314 20.5637 22.7113 20.9099 22.7113 21.2304ZM28.7699 16.8586L28.7565 16.8458C28.7565 16.8458 28.7632 16.8586 28.7699 16.8586ZM24.318 16.7625C24.318 16.7625 24.3113 16.7625 24.3046 16.7625C24.3046 16.7625 24.3113 16.7625 24.318 16.7625ZM25.5699 22.5958C25.2351 22.6919 24.8937 22.7304 24.5523 22.7112C24.1573 22.6855 23.8494 22.583 23.6151 22.3971C23.3138 22.1599 23.1598 21.8201 23.1531 21.3778C23.1531 21.2496 23.1531 21.1278 23.1531 21.0125V19.2368C23.1531 19.2368 23.1732 19.1855 23.2 19.1855H24.1238C24.1707 19.1855 24.2042 19.224 24.2042 19.2689C24.1841 19.9868 24.1908 20.6919 24.231 21.3778C24.2377 21.5509 24.2711 21.6791 24.3314 21.7625C24.4854 21.9932 24.8067 22.1599 25.0946 22.0381C25.4494 21.8907 25.5498 21.5766 25.5431 21.224C25.5364 20.5637 25.5431 19.8971 25.5632 19.224C25.5632 19.1984 25.5833 19.1791 25.61 19.1791H26.246C26.3063 19.1791 26.3397 19.2048 26.3397 19.2689C26.3464 19.9099 26.3531 20.5509 26.3531 21.2112C26.3531 21.8714 26.1925 22.333 25.5632 22.6086L25.5699 22.5958ZM30.149 22.6535H29.5866C29.4996 22.6471 29.4126 22.6086 29.359 22.5445C28.9238 22.0573 28.4418 21.5317 27.9264 20.9612C27.8728 20.9035 27.8126 20.865 27.7456 20.8458C27.7389 20.8458 27.7322 20.8522 27.7322 20.8586L27.7523 22.6086C27.7523 22.6086 27.7389 22.6471 27.7121 22.6471H26.9891V22.6535C26.9623 22.6535 26.9423 22.6343 26.9423 22.6086V19.7945V19.2432C26.9423 19.1984 26.9757 19.1663 27.0226 19.1663H27.6385C27.6921 19.1663 27.7389 19.1919 27.7724 19.2304C28.2343 19.7304 28.7096 20.2496 29.1916 20.7881C29.2251 20.8266 29.272 20.8586 29.3188 20.8843C29.3188 20.8843 29.3322 20.8843 29.3389 20.8843C29.359 20.8843 29.3791 20.865 29.3791 20.8458V19.1984C29.3791 19.1984 29.3925 19.1599 29.4126 19.1599H30.1155C30.149 19.1599 30.1757 19.1855 30.1757 19.2176V22.6407L30.149 22.6535Z" fill="url(#paint0_linear_18553_55874)"/>
<path d="M20.9067 22.1059C21.3282 22.1052 21.6689 21.5736 21.6677 20.9187C21.6665 20.2637 21.3238 19.7334 20.9023 19.7341C20.4808 19.7348 20.1401 20.2663 20.1413 20.9212C20.1425 21.5762 20.4852 22.1066 20.9067 22.1059Z" fill="#3160A3"/>
</g>
<defs>
<linearGradient id="paint0_linear_18553_55874" x1="3.55816" y1="23.2945" x2="35.6494" y2="15.4865" gradientUnits="userSpaceOnUse">
<stop stop-color="#18308E"/>
<stop offset="1" stop-color="#4682B6"/>
</linearGradient>
<clipPath id="clip0_18553_55874">
<rect width="32" height="9" fill="white" transform="translate(4 16.7368)"/>
</clipPath>
</defs>
</svg>
