<svg width="40" height="40" viewBox="0 0 40 40" fill="none" xmlns="http://www.w3.org/2000/svg">
<circle cx="20" cy="20" r="20" fill="#F6F8FA"/>
<path d="M30.3496 17.5173C32.0201 20.6185 30.3284 24.2645 26.9297 24.9373C26.6802 24.9867 26.4219 25.0119 26.1675 25.0127C24.0249 25.0203 21.8823 25.0196 19.7397 25.0205C19.6749 25.0205 19.6101 25.0099 19.542 25.0039C19.5182 24.8486 19.6439 24.8101 19.7119 24.748C20.5515 23.9817 20.891 22.9983 20.9425 21.8972C20.9796 21.104 20.946 20.3055 21.0181 19.5161C21.2171 17.338 22.6512 15.6829 24.7434 15.1563C26.8191 14.6339 28.9545 15.446 30.1625 17.2183C30.2231 17.3072 30.2772 17.4005 30.3496 17.5173Z" fill="#E50244"/>
<path d="M17.9724 23.0895C17.9557 23.1403 17.9441 23.1636 17.9023 23.1894C17.8607 23.2136 17.8392 23.2315 17.8109 23.2704C17.8028 23.2898 17.8 23.2815 17.8039 23.2836C17.7498 23.3163 17.7088 23.3654 17.6594 23.4365C17.6516 23.4591 17.6438 23.4504 17.6495 23.4519C17.6231 23.4561 17.5965 23.4692 17.5717 23.5175C17.5672 23.5404 17.5635 23.5286 17.568 23.5328C17.4432 23.5979 17.3622 23.7128 17.2535 23.8339C17.2403 23.8562 17.233 23.8479 17.2382 23.8498C17.2156 23.8594 17.1929 23.8746 17.1643 23.9154C17.1362 23.9538 17.119 23.9742 17.0816 23.9985C16.9788 24.0867 16.8229 24.0623 16.7559 24.2146C16.7379 24.2329 16.7344 24.2441 16.729 24.2417C16.6033 24.3597 16.3753 24.2554 16.2739 24.471C16.2586 24.4946 16.2459 24.5104 16.2359 24.5088C15.534 24.7721 14.8294 24.9625 14.0792 24.9785C13.337 24.9944 12.6413 24.8324 11.9719 24.5282C11.8858 24.4891 11.7992 24.4531 11.6725 24.4281C11.6408 24.4133 11.6463 24.4083 11.645 24.4117C11.5604 24.2803 11.4191 24.242 11.2571 24.1858C11.2326 24.1742 11.2409 24.1681 11.2383 24.1726C11.1926 24.0979 11.1132 24.0686 11.0169 24.0202C10.9958 24.007 11 24.0037 10.9995 24.0063C10.9827 23.9862 10.9641 23.9656 10.9237 23.94C10.9038 23.9334 10.9128 23.9307 10.9104 23.9347C10.88 23.8771 10.8285 23.8375 10.7522 23.7982C10.7278 23.7981 10.7459 23.7953 10.7371 23.7959C10.7396 23.7248 10.6825 23.724 10.6188 23.6939C10.5994 23.6782 10.5968 23.6804 10.5976 23.679C10.5254 23.5612 10.4662 23.4314 10.2984 23.3707C10.279 23.3534 10.2733 23.3558 10.2749 23.3531C10.1728 23.2056 10.1011 23.0386 9.94737 22.9047C9.92104 22.8995 9.92063 22.8816 9.92274 22.8903C9.93251 22.8661 9.92303 22.8392 9.87505 22.8086C9.85366 22.7988 9.86152 22.7977 9.86048 22.8015C9.85169 22.7789 9.83757 22.7564 9.80246 22.7238C9.78781 22.7097 9.78783 22.7097 9.78783 22.7097C9.71365 22.4518 9.5523 22.2357 9.44418 21.9938C9.14061 21.3144 9.03208 20.5973 9.00625 19.8301C8.99652 19.712 8.99782 19.6245 9.01249 19.507C9.18267 19.2335 9.11524 18.9417 9.20119 18.6507C9.20527 18.6194 9.198 18.6 9.2053 18.5926C9.29685 18.3888 9.39145 18.1961 9.44564 17.9575C9.45941 17.9313 9.46412 17.9364 9.46079 17.9354C9.55251 17.8649 9.58226 17.7636 9.60789 17.6304C10.3276 16.2808 11.4446 15.4941 12.9106 15.1277C14.9462 15.0498 16.9524 15.1423 18.9581 15.1065C19.2661 15.101 19.5733 15.1287 19.8813 15.1175C20.0156 15.1126 20.1613 15.1063 20.1637 15.3362C19.0923 16.4911 19.0082 17.8919 19.0069 19.3187C19.0064 19.9484 19.0561 20.5826 18.8615 21.2282C18.7848 21.4702 18.7068 21.6783 18.6226 21.916C18.6189 21.9465 18.6229 21.9671 18.6148 21.9738C18.5102 22.1168 18.4595 22.2752 18.3789 22.4497C18.3649 22.4736 18.3604 22.4686 18.3636 22.4697C18.2048 22.6469 18.0764 22.8444 17.9724 23.0895Z" fill="#2557A7"/>
<circle cx="20" cy="20" r="19.5" stroke="black" stroke-opacity="0.05"/>
</svg>
