<svg width="40" height="40" viewBox="0 0 40 40" fill="none" xmlns="http://www.w3.org/2000/svg">
<ellipse cx="20" cy="19.8166" rx="20" ry="19.8166" fill="#F6F8FA"/>
<ellipse cx="20" cy="20.1833" rx="20" ry="19.8166" fill="#EE1B24"/>
<path d="M8.91403 23.4766C8.30981 23.3097 7.83277 22.9916 7.47345 22.4865C7.04598 21.8852 6.8521 21.2115 6.77666 20.4712C6.77484 20.4568 6.7814 20.4492 6.79634 20.4481L9.20994 20.2777C9.22343 20.2766 9.23509 20.2864 9.23618 20.2997C9.27809 20.7363 9.41038 21.175 9.72634 21.4989C10.1053 21.8871 10.867 21.9625 11.3251 21.6939C11.9905 21.3035 11.9453 20.3542 11.2034 20.0726C10.9745 19.9856 10.7405 19.9025 10.5018 19.8234C9.52882 19.5006 8.59588 19.0013 7.86229 18.3174C7.49131 17.9714 7.20669 17.5316 7.10611 17.0272C6.97163 16.353 7.06274 15.7262 7.37943 15.1467C7.70741 14.5469 8.27191 14.1309 8.91148 13.9287C9.5853 13.7153 10.3644 13.6918 11.0736 13.7345C11.5689 13.7644 12.0197 13.8652 12.4256 14.0367C13.3396 14.4234 13.8786 15.303 13.9967 16.2671C14.0036 16.3234 14.0109 16.3827 14.0186 16.4448C14.02 16.4567 14.0145 16.4639 14.0025 16.4664C13.9526 16.4762 13.903 16.4827 13.8542 16.4863C13.098 16.5401 12.3433 16.5924 11.5893 16.6434C11.5692 16.6444 11.5521 16.6304 11.5496 16.6112C11.4574 15.8739 11.0507 15.433 10.2642 15.4478C10.027 15.4521 9.83421 15.5117 9.68661 15.6269C9.34879 15.8905 9.32656 16.3498 9.67313 16.6228C9.82838 16.7452 9.99565 16.8564 10.1746 16.9564C10.5933 17.1897 11.016 17.3764 11.4428 17.5165C12.3535 17.8151 13.3615 18.1303 13.8925 18.9948C14.2682 19.6068 14.3855 20.433 14.2503 21.1031C14.1578 21.5606 13.9613 22.0481 13.6822 22.4218C13.1315 23.1581 12.3028 23.5397 11.391 23.6387C10.855 23.6968 10.3018 23.6957 9.73071 23.6351C9.4563 23.6062 9.18006 23.5499 8.91403 23.4766Z" fill="white"/>
<path d="M18.0337 23.5096C17.7316 23.445 17.3924 23.3103 17.1398 23.1305C16.5134 22.6838 16.0906 22.1137 15.8716 21.4204C15.7444 21.0174 15.6624 20.5899 15.626 20.1382C15.6099 19.9363 15.6019 19.6958 15.6016 19.4171C15.6016 17.6712 15.6016 15.8275 15.6023 13.8856C15.6023 13.8733 15.6092 13.8621 15.6198 13.8567C15.6329 13.8498 15.6446 13.8498 15.6551 13.8567C15.6635 13.8621 15.6726 13.865 15.6825 13.865H18.1686C18.1799 13.865 18.1894 13.8744 18.1894 13.8856C18.1926 15.9669 18.1923 17.985 18.1886 19.9403C18.1883 20.1349 18.2163 20.3353 18.2732 20.5415C18.3738 20.908 18.591 21.1799 18.9244 21.3579C19.2331 21.5226 19.662 21.5301 20.0009 21.4478C20.467 21.3341 20.7972 20.9484 20.9069 20.4877C20.9557 20.2819 20.978 20.0699 20.9776 19.8558C20.9769 17.8554 20.9761 15.8629 20.9754 13.8787C20.9754 13.8708 20.9816 13.8647 20.9893 13.8647H23.5279C23.5424 13.8647 23.5497 13.8719 23.5497 13.8863C23.5537 15.8098 23.5585 17.7221 23.5643 19.624C23.565 19.8601 23.545 20.149 23.5045 20.4902C23.4524 20.9297 23.3482 21.3283 23.1918 21.6861C22.85 22.469 22.2046 23.1706 21.3909 23.4446C21.0042 23.575 20.6092 23.6494 20.2065 23.6681C19.4233 23.7046 18.6992 23.6519 18.0337 23.5096Z" fill="white"/>
<path d="M27.6984 18.4628C27.6984 18.4628 27.6973 18.4646 27.6962 18.4657C27.6941 18.4678 27.693 18.4704 27.693 18.4736C27.689 20.1501 27.6893 21.8317 27.6944 23.5184C27.6944 23.5267 27.6879 23.5332 27.6795 23.5332H25.2939C25.279 23.5332 25.2666 23.5209 25.2666 23.5057V13.8853C25.2663 13.8719 25.2732 13.8651 25.2867 13.8651L27.6084 13.8633C27.6511 13.8633 27.6901 13.886 27.7112 13.9225C28.744 15.7222 29.7571 17.4817 30.7501 19.2012C30.7545 19.2088 30.7611 19.2135 30.7695 19.2146C30.7782 19.216 30.7866 19.2102 30.7877 19.2016C30.7877 19.2005 30.7877 19.1998 30.7877 19.1987V13.8795C30.7873 13.8694 30.7924 13.8644 30.8023 13.8644H33.1827C33.2027 13.8644 33.2188 13.8803 33.2188 13.9001V23.5068C33.2188 23.5245 33.2097 23.5335 33.1914 23.5335H30.8307C30.8026 23.5335 30.7764 23.5184 30.7618 23.4945C29.7458 21.822 28.7276 20.1447 27.7075 18.4628C27.7061 18.4603 27.7028 18.4592 27.7003 18.4606C27.6995 18.461 27.6988 18.4617 27.6981 18.4628H27.6984Z" fill="white"/>
<path d="M31.6929 26.1452C32.8259 26.533 33.9213 27.0024 34.961 27.5661C35.0161 27.596 35.0128 27.6047 34.9512 27.5928C31.0573 26.8276 27.0708 26.3994 23.0826 26.2593C22.4605 26.2373 21.8216 26.2217 21.1664 26.212C17.7422 26.1604 14.3177 26.3221 10.8928 26.6969C9.89867 26.8056 8.7981 26.954 7.59112 27.1422C6.68443 27.2833 5.82511 27.4375 5.01353 27.6047C5.0015 27.6072 4.99749 27.6025 5.0015 27.5913C5.00442 27.5838 5.01207 27.5765 5.02446 27.5697C6.62102 26.7168 8.29155 26.0849 10.0331 25.6108C11.4315 25.2298 12.8786 24.9366 14.3746 24.7308C17.2124 24.3405 20.1187 24.2513 23.0931 24.464C24.8843 24.5922 26.6459 24.8446 28.378 25.2212C29.5016 25.4656 30.6065 25.7736 31.6929 26.1452Z" fill="white"/>
<path d="M20 0.866699C30.7738 0.866699 39.4999 9.51926 39.5 20.1831C39.5 30.8471 30.7739 39.4995 20 39.4995C9.2261 39.4995 0.5 30.8471 0.5 20.1831C0.500127 9.51926 9.22617 0.866699 20 0.866699Z" stroke="black" stroke-opacity="0.05"/>
<path d="M20 0.5C30.7738 0.5 39.4999 9.15256 39.5 19.8164C39.5 30.4804 30.7739 39.1328 20 39.1328C9.2261 39.1328 0.5 30.4804 0.5 19.8164C0.500127 9.15256 9.22617 0.5 20 0.5Z" stroke="black" stroke-opacity="0.05"/>
</svg>
