<svg width="40" height="40" viewBox="0 0 40 40" fill="none" xmlns="http://www.w3.org/2000/svg">
<circle cx="20" cy="20" r="20" fill="#F6F8FA"/>
<path d="M24.4328 10.5035C24.4328 10.9987 24.286 11.4827 24.0109 11.8944C23.7358 12.3061 23.3448 12.627 22.8873 12.8165C22.4299 13.0059 21.9265 13.0555 21.4409 12.9589C20.9552 12.8623 20.5092 12.6239 20.159 12.2738C19.8089 11.9236 19.5705 11.4776 19.4739 10.9919C19.3773 10.5063 19.4269 10.0029 19.6164 9.54546C19.8058 9.088 20.1267 8.69701 20.5384 8.42192C20.9501 8.14683 21.4341 8 21.9293 8C22.5933 8 23.23 8.26376 23.6995 8.73326C24.169 9.20276 24.4328 9.83954 24.4328 10.5035ZM23.9946 10.5035C23.9946 10.095 23.8735 9.69572 23.6465 9.35609C23.4196 9.01645 23.097 8.75174 22.7196 8.59542C22.3423 8.4391 21.927 8.3982 21.5264 8.47789C21.1257 8.55758 20.7577 8.75428 20.4689 9.04312C20.1801 9.33196 19.9834 9.69996 19.9037 10.1006C19.824 10.5012 19.8649 10.9165 20.0212 11.2939C20.1775 11.6713 20.4422 11.9938 20.7819 12.2207C21.1215 12.4477 21.5208 12.5688 21.9293 12.5688C22.4767 12.5685 23.0017 12.351 23.3889 11.964C23.7761 11.577 23.9939 11.0522 23.9946 10.5047V10.5035Z" fill="#F18101"/>
<path d="M19.7301 16.3588L19.3639 16.8141C19.3283 16.2531 19.2594 15.6947 19.1576 15.1419C19.0047 14.412 18.7413 13.7098 18.3764 13.0595C18.1046 12.5615 17.8198 12.2246 17.522 12.0488C15.9718 11.1236 13.4219 12.4919 14.0505 14.4119C14.2783 15.1077 14.5192 15.8466 14.7731 16.6286C15.3114 18.2862 15.0404 20.1367 14.4899 21.8028C13.9394 23.469 12.6748 24.7189 11.4383 26.0006C11.1474 26.2882 10.9006 26.6173 10.706 26.9771C10.4563 27.4402 10.368 27.9733 10.4548 28.4923C10.5417 29.0112 10.7988 29.4865 11.1857 29.8431C11.6117 30.2557 12.1622 30.6084 12.7725 30.5987C13.2127 30.5922 13.681 30.4262 14.1774 30.1007C15.1728 29.4439 16.0529 28.6273 16.7823 27.6838L16.7578 28.0378C16.7564 28.0558 16.7586 28.074 16.7643 28.0912C16.77 28.1083 16.779 28.1242 16.7908 28.1379C16.8087 28.158 16.8221 28.1817 16.8301 28.2073C16.8381 28.233 16.8405 28.2601 16.8372 28.2868C16.239 28.9898 15.567 29.6265 14.8329 30.1861C14.3669 30.5512 13.8304 30.8159 13.2571 30.9636C12.1024 31.2481 10.9586 30.451 10.3959 29.5282C9.61839 28.2539 10.07 26.8367 11.0453 25.8224C11.6776 25.1665 12.2472 24.5537 12.7542 23.9841C13.5314 23.1188 14.0725 22.0678 14.3251 20.9325C14.3854 20.6648 14.4452 20.395 14.5046 20.1232C14.7584 19.0154 14.7163 17.8603 14.3825 16.7738C14.2092 16.2042 13.9712 15.4832 13.6684 14.6109C13.5412 14.2414 13.5107 13.8456 13.5797 13.461C13.6487 13.0764 13.815 12.7159 14.0627 12.4138C15.204 11.043 17.4463 10.8416 18.4972 12.4528C19.259 13.6169 19.6855 14.9683 19.7301 16.3588Z" fill="#58AE0B"/>
<path d="M16.8327 28.2844C16.836 28.2577 16.8335 28.2306 16.8255 28.2049C16.8176 28.1792 16.8042 28.1555 16.7863 28.1354C16.7745 28.1218 16.7654 28.1059 16.7598 28.0887C16.7541 28.0715 16.7519 28.0534 16.7533 28.0353L16.7778 27.6814C16.7471 27.1528 16.75 26.6228 16.7863 26.0946C17.0141 23.8925 17.2786 22.0925 17.5797 20.6945C17.8925 19.2879 18.5017 17.9641 19.3667 16.8117L19.7329 16.3564C20.2518 15.8086 20.8243 15.3142 21.4418 14.8806C22.6956 14.0041 24.0267 13.2438 25.4186 12.609C26.5648 12.0842 27.9135 11.9145 28.9242 12.7836C30.3341 13.9969 30.3682 15.9682 28.9682 17.2267C28.6314 17.514 28.2484 17.7423 27.8354 17.9017C26.7002 18.368 25.559 18.9111 24.5397 19.6106C21.5895 21.6185 22.4378 25.1034 22.1558 28.0842C21.9642 30.1165 19.916 31.0576 18.1705 30.1666C17.8055 29.993 17.4909 29.7289 17.2568 29.3995C17.0226 29.07 16.8766 28.6862 16.8327 28.2844ZM19.7805 17.0155L19.4033 17.5416C18.6572 18.6604 18.1503 19.9212 17.9142 21.245C17.692 22.5112 17.478 23.9556 17.2721 25.5782C17.2213 26.0402 17.2001 26.505 17.2086 26.9697L17.2379 27.3359C17.2417 27.377 17.2375 27.4184 17.2257 27.458C17.1875 27.5809 17.1924 27.6651 17.2404 27.7107C17.1864 28.245 17.3354 28.7801 17.6578 29.2096C18.6343 30.462 20.8083 30.3314 21.5004 28.869C21.668 28.5126 21.7583 27.9926 21.7713 27.3091C21.7892 26.2585 21.8177 25.2112 21.8568 24.1672C21.9288 22.1739 22.5892 20.4113 24.27 19.2602C25.2868 18.5645 26.5098 17.9725 27.6999 17.483C28.4579 17.1705 29.0426 16.7006 29.3563 15.9877C29.4983 15.6906 29.572 15.3655 29.572 15.0363C29.572 14.707 29.4983 14.3819 29.3563 14.0848C29.1282 13.5448 28.7214 13.0996 28.2041 12.8239C27.0091 12.2136 25.371 13.068 24.298 13.649C23.1249 14.2735 22.0058 14.9946 20.9523 15.8046C20.5114 16.1563 20.1175 16.5633 19.7805 17.0155Z" fill="#F18101"/>
<circle cx="20" cy="20" r="19.5" stroke="black" stroke-opacity="0.05"/>
</svg>
