<svg width="40" height="40" viewBox="0 0 40 40" fill="none" xmlns="http://www.w3.org/2000/svg">
<circle cx="20" cy="20" r="20" fill="#FF5C39"/>
<g clip-path="url(#clip0_14382_21515)">
<path fill-rule="evenodd" clip-rule="evenodd" d="M6.17206 19.0013C6.15904 19.0004 6.11825 18.9995 6.11141 19.0004H6.10436H6.07635C5.75726 19.0004 5.49373 19.1276 5.31445 19.3347C5.13869 19.1134 4.81056 19.0004 4.51859 19.0004C3.90708 19.0004 3.5 19.4254 3.5 20.0761V21.7273H4.01381V20.0847C4.01381 19.6648 4.24117 19.484 4.54395 19.484C4.83085 19.484 5.0582 19.6655 5.0582 20.0847V21.7273H5.57202V20.0585C5.57202 19.6683 5.79563 19.4882 6.09333 19.4844C6.39214 19.4882 6.61574 19.6683 6.61574 20.0847V21.7273H7.13V20.0761C7.13 19.4482 6.74916 19.0285 6.17206 19.0013Z" fill="white"/>
<path fill-rule="evenodd" clip-rule="evenodd" d="M15.6321 19.4464C15.873 19.4464 16.0588 19.5822 16.1396 19.7821C16.1861 19.8932 16.1981 19.9698 16.2035 20.1084H15.0603C15.0657 19.9698 15.0777 19.8932 15.1246 19.7821C15.205 19.5822 15.3908 19.4464 15.6321 19.4464ZM16.6999 20.2806C16.6999 19.5248 16.3045 19 15.6267 19C14.979 19 14.5549 19.4985 14.5549 20.359V20.4437C14.5549 20.5032 14.5582 20.5605 14.5634 20.6172C14.6153 21.2267 14.945 21.6538 15.4861 21.7162C16.0252 21.778 16.3267 21.5673 16.4765 21.4122L16.2277 21.0767C16.0963 21.1939 15.9458 21.2483 15.7466 21.2612C15.1174 21.3006 15.0734 20.8059 15.0598 20.5915C15.0594 20.5881 15.0585 20.5167 15.0585 20.5167H16.6999V20.2806Z" fill="white"/>
<path fill-rule="evenodd" clip-rule="evenodd" d="M13.706 19C13.0354 19 12.74 19.4172 12.74 20.2697V21.7273H13.2228V20.108C13.2228 19.7398 13.3669 19.5085 13.7 19.5085C13.767 19.5085 13.8208 19.5184 13.8683 19.5381C13.9434 19.566 14.0098 19.6136 14.0704 19.6752L14.39 19.3204C14.2464 19.1281 14.0288 19 13.706 19Z" fill="white"/>
<path fill-rule="evenodd" clip-rule="evenodd" d="M30.7325 20.6609C30.7325 21.0901 30.5179 21.2496 30.1883 21.2496H30.1828C29.9085 21.2496 29.7247 21.0843 29.7247 20.9059C29.7247 20.7376 29.7743 20.5441 30.1627 20.5441H30.7325V20.6609ZM30.2242 19C29.9191 19 29.6822 19.0876 29.4764 19.2887L29.7293 19.6241C29.847 19.5448 30.0112 19.485 30.2187 19.485C30.5884 19.485 30.7325 19.6561 30.7325 19.9924V20.1078H30.1156C29.5753 20.1078 29.24 20.4154 29.24 20.911C29.24 21.3811 29.6539 21.7273 30.18 21.7273H30.2836C30.8234 21.7273 31.22 21.3604 31.22 20.6354V19.9641C31.22 19.5444 30.9798 19 30.2242 19Z" fill="white"/>
<path fill-rule="evenodd" clip-rule="evenodd" d="M25.1465 19.0011C25.1339 19.0006 25.0936 18.9997 25.0859 19.0001C25.0837 19.0001 25.081 19.0006 25.0793 19.0006H25.0513C24.7318 19.0006 24.4688 19.1282 24.2895 19.3348C24.1134 19.1131 23.7858 19.0006 23.4939 19.0006C22.8827 19.0006 22.4751 19.4259 22.4751 20.0761V21.7273H22.9892V20.0847C22.9892 19.6647 23.2165 19.4841 23.5192 19.4841C23.8061 19.4841 24.0334 19.6651 24.0334 20.0847V21.7273H24.5466V20.0575C24.5466 19.6679 24.7706 19.4878 25.0689 19.4845C25.3665 19.4878 25.5905 19.6679 25.5905 20.0847V21.7273H26.1051V20.0761C26.1051 19.4483 25.7239 19.0292 25.1465 19.0011Z" fill="white"/>
<path fill-rule="evenodd" clip-rule="evenodd" d="M21.2996 21.081C21.199 21.1818 21.0605 21.2381 20.9102 21.2381C20.7622 21.2381 20.6297 21.1832 20.5274 21.0805C20.3766 20.9213 20.3563 20.6435 20.3563 20.3666C20.3563 20.0888 20.3766 19.8097 20.5274 19.6525C20.6275 19.5494 20.7599 19.4951 20.9102 19.4951C21.0623 19.4951 21.2013 19.5507 21.2996 19.6525C21.4528 19.8131 21.466 20.1058 21.466 20.3666C21.466 20.6263 21.4528 20.9171 21.2996 21.081ZM21.6629 19.3097C21.4637 19.1073 21.2037 19 20.9102 19C20.6175 19 20.3583 19.1073 20.1603 19.3083C19.8735 19.6086 19.835 20.0116 19.835 20.3666C19.835 20.7223 19.8735 21.1248 20.1594 21.4199C20.3565 21.6209 20.6166 21.7273 20.9102 21.7273C21.205 21.7273 21.4651 21.6209 21.662 21.4203C21.9425 21.1237 21.98 20.7221 21.98 20.3666C21.98 20.0126 21.9425 19.6096 21.6633 19.3097H21.6629Z" fill="white"/>
<path fill-rule="evenodd" clip-rule="evenodd" d="M27.7508 21.3407C27.3937 21.3407 27.2542 21.087 27.2542 20.4331C27.2542 19.8174 27.3281 19.5243 27.7508 19.5243C28.1019 19.5243 28.2388 19.7794 28.2388 20.4331C28.2388 21.087 28.1019 21.3407 27.7508 21.3407ZM28.429 19.2544V19.2539C28.2916 19.0995 28.0392 19 27.7856 19C27.0324 19 26.7649 19.3972 26.7649 20.517V23H27.2517C27.2517 23 27.2525 21.6482 27.2517 21.6477C27.4473 21.8352 27.6572 21.8595 27.8166 21.8595C28.0646 21.8595 28.2876 21.7669 28.429 21.6056C28.6971 21.2957 28.7449 20.8072 28.7449 20.4523C28.7449 20.0968 28.6971 19.5686 28.429 19.2544Z" fill="white"/>
<path fill-rule="evenodd" clip-rule="evenodd" d="M36.4709 19H35.9472C35.9472 19 35.3804 20.7783 35.3454 20.8897C35.3099 20.7788 34.74 19 34.74 19H34.1899C34.1899 19 35.0836 21.5995 35.0881 21.6121C35.065 21.7109 34.9395 22.1578 34.5559 22.3824L34.4768 22.429L34.7409 22.8182L34.8013 22.787C35.2283 22.5642 35.4228 22.1348 35.5572 21.744L36.4999 19H36.4709Z" fill="white"/>
<path fill-rule="evenodd" clip-rule="evenodd" d="M32.8706 19C32.2502 19 31.8799 19.3943 31.8799 20.0549V21.7273H32.3778V20.09C32.3778 19.7101 32.5527 19.501 32.8706 19.501C33.1872 19.501 33.3622 19.7101 33.3622 20.09V21.7273H33.8599V20.0549C33.8599 19.3943 33.4898 19 32.8706 19Z" fill="white"/>
<path fill-rule="evenodd" clip-rule="evenodd" d="M18.465 19.4949C18.5251 19.4949 18.5768 19.5002 18.6228 19.512C18.6232 19.512 18.6617 19.5228 18.6617 19.5228C18.7836 19.56 18.8869 19.6328 19.0067 19.7677L19.0197 19.7822L19.3401 19.4625L19.2894 19.4021C19.0377 19.1089 18.8142 19 18.465 19C17.7836 19 17.3601 19.5237 17.3601 20.3665C17.3601 21.2052 17.7836 21.7273 18.465 21.7273C18.8151 21.7273 19.0381 21.619 19.2894 21.3309L19.3397 21.2709L19.0193 20.9419L19.0058 20.9575C18.9716 20.9984 18.8756 21.1007 18.7372 21.1698L18.7361 21.1703C18.6583 21.2178 18.5749 21.2381 18.465 21.2381C18.2603 21.2381 18.096 21.1519 17.9908 20.9881C17.8922 20.8412 17.8531 20.6668 17.8531 20.3665C17.8531 20.0666 17.8918 19.8918 17.9904 19.7427C18.0952 19.5802 18.2599 19.4949 18.465 19.4949Z" fill="white"/>
<path fill-rule="evenodd" clip-rule="evenodd" d="M11.1771 19.4464C11.4179 19.4464 11.6036 19.5822 11.6841 19.7821C11.7309 19.8932 11.7429 19.9698 11.7488 20.1084H10.6053C10.6108 19.9698 10.6232 19.8932 10.6692 19.7821C10.7501 19.5822 10.9358 19.4464 11.1771 19.4464ZM12.2451 20.2806C12.2451 19.5248 11.8497 19 11.1716 19C10.524 19 10.1001 19.4985 10.1001 20.359V20.4437C10.1001 20.5032 10.1034 20.5605 10.1086 20.6172C10.1605 21.2267 10.49 21.6538 11.031 21.7162C11.5701 21.778 11.8715 21.5673 12.0208 21.4122L11.7721 21.0767C11.6411 21.1939 11.4907 21.2483 11.2919 21.2612C10.6624 21.3006 10.6182 20.8059 10.6049 20.5915C10.6045 20.5881 10.604 20.5167 10.604 20.5167H12.2451V20.2806Z" fill="white"/>
<path fill-rule="evenodd" clip-rule="evenodd" d="M8.70219 19.4464C8.94309 19.4464 9.12883 19.5822 9.20928 19.7821C9.25615 19.8932 9.26814 19.9698 9.27359 20.1084H8.12991C8.13536 19.9698 8.14779 19.8932 8.19422 19.7821C8.27467 19.5822 8.46041 19.4464 8.70219 19.4464ZM9.77 20.2806C9.77 19.5248 9.37453 19 8.69674 19C8.04859 19 7.625 19.4985 7.625 20.359V20.4437C7.625 20.5032 7.62827 20.5605 7.63307 20.6172C7.68495 21.2267 8.01502 21.6538 8.55568 21.7162C9.09482 21.778 9.39633 21.5673 9.5461 21.4122L9.29735 21.0767C9.16589 21.1939 9.0159 21.2483 8.81664 21.2612C8.18747 21.3006 8.14321 20.8059 8.12948 20.5915C8.12948 20.5881 8.1286 20.5167 8.1286 20.5167H9.77V20.2806Z" fill="white"/>
</g>
<circle cx="20" cy="20" r="19.5" stroke="black" stroke-opacity="0.05"/>
<defs>
<clipPath id="clip0_14382_21515">
<rect width="33" height="4" fill="white" transform="translate(3.5 19)"/>
</clipPath>
</defs>
</svg>
