<svg width="40" height="40" viewBox="0 0 40 40" fill="none" xmlns="http://www.w3.org/2000/svg">
<circle cx="20" cy="20" r="20" fill="#0C6FB8"/>
<g clip-path="url(#clip0_24563_42810)">
<path d="M20.7874 9.80798C23.7763 11.5347 26.7844 13.2875 29.7925 15.0467C29.9394 15.1311 30.0288 15.2934 30.0288 15.4622V26.0045C30.0288 26.1733 29.9394 26.3356 29.7925 26.42C26.7972 28.1662 23.8019 29.9124 20.813 31.6522C20.5064 31.8275 20.3084 31.6846 19.9891 31.4964C17.0896 29.8086 14.1901 28.1143 11.2906 26.4265C11.131 26.3421 11.0352 26.1668 11.0352 25.9785V15.4751C11.0352 15.2999 11.1246 15.1376 11.2778 15.0532C14.2348 13.3264 17.2237 11.5802 20.251 9.82097C20.4362 9.7171 20.615 9.71061 20.7874 9.81448V9.80798ZM12.0634 25.6215C12.0634 25.6604 12.0826 25.6929 12.1145 25.7124L20.4809 30.5876C20.4809 30.5876 20.5511 30.607 20.5831 30.5876L28.9494 25.7124C28.9494 25.7124 29.0005 25.6604 29.0005 25.6215V15.8581C29.0005 15.8192 28.9814 15.7867 28.9494 15.7673L20.5894 10.8856C20.5894 10.8856 20.5192 10.8661 20.4873 10.8856L12.1145 15.7673C12.1145 15.7673 12.0634 15.8192 12.0634 15.8581V25.6215Z" fill="#F9FDFF"/>
<path d="M28.6491 16.0534V25.4207C28.6491 25.4597 28.63 25.4986 28.5917 25.5181L20.5893 30.1791C20.5574 30.1985 20.5127 30.1985 20.4807 30.1791L12.4784 25.5181C12.4464 25.4986 12.4209 25.4597 12.4209 25.4207V16.0534C12.4209 16.0144 12.4401 15.9755 12.4784 15.956L20.4807 11.2885C20.5127 11.2691 20.5574 11.2691 20.5893 11.2885L28.5917 15.956C28.6236 15.9755 28.6491 16.0144 28.6491 16.0534ZM14.4071 24.3626C14.4071 24.3626 14.388 24.3431 14.388 24.3236V19.02C14.388 19.02 14.4071 18.9811 14.4327 18.9811C14.439 18.9811 14.4454 18.9811 14.4518 18.9811L18.2901 21.0908C18.2901 21.0908 18.3348 21.0908 18.3476 21.0714C18.3476 21.0714 18.3476 21.0584 18.3476 21.0519V19.4225C18.3476 19.4225 18.3476 19.39 18.3285 19.3835L14.4327 17.2218C14.4327 17.2218 14.4071 17.1829 14.4135 17.1634C14.4135 17.1569 14.4199 17.1504 14.4263 17.1439L20.5127 13.5411C20.5127 13.5411 20.5382 13.5346 20.551 13.5411L24.2871 15.7872C24.2871 15.7872 24.319 15.7937 24.3318 15.7872L25.5836 15.0017C25.5836 15.0017 25.6091 14.9628 25.5964 14.9433C25.5964 14.9433 25.59 14.9303 25.5836 14.9303L20.551 11.9961C20.551 11.9961 20.5254 11.9896 20.5127 11.9961L13.0532 16.365C13.0532 16.365 13.034 16.3844 13.034 16.4039V25.0767C13.034 25.0767 13.0404 25.1026 13.0532 25.1156L18.188 28.1082C18.188 28.1082 18.2327 28.1082 18.2454 28.0953C18.2454 28.0953 18.2454 28.0823 18.2454 28.0758V26.5568C18.2454 26.5568 18.2327 26.5308 18.2199 26.5178L14.4007 24.3691L14.4071 24.3626ZM26.6246 21.4154C26.6246 21.4154 26.6693 21.4154 26.6821 21.4284C26.6821 21.4349 26.6821 21.4414 26.6821 21.4479V24.2717C26.6821 24.2717 26.6693 24.3042 26.6565 24.3107L20.551 27.92C20.551 27.92 20.519 27.9265 20.5063 27.92L18.7564 26.7515C18.7564 26.7515 18.7117 26.745 18.6989 26.7645C18.6989 26.771 18.6925 26.7775 18.6925 26.784V28.3679C18.6925 28.3679 18.7053 28.3939 18.718 28.4069L20.5127 29.4585C20.5127 29.4585 20.5382 29.465 20.551 29.4585L28.0105 25.1091C28.0105 25.1091 28.0296 25.0897 28.0296 25.0702V18.9681C28.0296 18.9681 28.0105 18.9226 27.9849 18.9226C27.9785 18.9226 27.9722 18.9226 27.9658 18.9226L20.3338 23.4538C20.3338 23.4538 20.2891 23.4538 20.2764 23.4408C20.2764 23.4343 20.2764 23.4278 20.2764 23.4213V20.5196C20.2764 20.5196 20.2827 20.4871 20.2955 20.4806L27.6528 16.2221C27.6528 16.2221 27.6784 16.1832 27.6656 16.1637C27.6656 16.1637 27.6592 16.1507 27.6528 16.1507L26.152 15.2679C26.152 15.2679 26.1201 15.2614 26.1073 15.2679L18.75 19.6108C18.75 19.6108 18.7308 19.6302 18.7308 19.6497V24.038C18.7308 24.038 18.7308 24.0705 18.75 24.077L20.5127 25.0961C20.5127 25.0961 20.5446 25.1026 20.5574 25.0961L26.6246 21.4154Z" fill="#F9FDFF"/>
</g>
<circle cx="20" cy="20" r="19.5" stroke="black" stroke-opacity="0.05"/>
<defs>
<clipPath id="clip0_24563_42810">
<rect width="19" height="22" fill="white" transform="translate(11.0352 9.73682)"/>
</clipPath>
</defs>
</svg>
