<svg width="40" height="40" viewBox="0 0 40 40" fill="none" xmlns="http://www.w3.org/2000/svg">
<circle cx="20" cy="20" r="20" fill="#005282"/>
<path d="M11.407 17H14.3008L14.8108 17.5095C14.8237 17.5229 14.8383 17.5241 14.8534 17.5128L15.5395 17H17.1761L15.799 18.0235L14.9717 18.6366L14.1455 19.2442L13.256 19.8932L13.5038 18.4965C13.5094 18.464 13.4875 18.4326 13.455 18.4276C13.4516 18.4276 13.4483 18.427 13.4449 18.4264H11.7612C11.7192 18.4264 11.6838 18.4567 11.6766 18.4976C11.5101 19.4336 11.3425 20.373 11.1727 21.3152C11.1637 21.3651 11.1749 21.3942 11.2057 21.4032L11.0617 21.5181L9.92167 22.3667L9.51363 21.9407C9.50074 21.9267 9.4957 21.9104 9.49906 21.8919L10.2014 17.9254C10.2047 17.908 10.2142 17.8929 10.2283 17.8822L11.407 17Z" fill="white"/>
<path d="M4 22.7556V22.7051L4.2483 21.3571C4.25166 21.3386 4.26287 21.3297 4.28137 21.3297H7.40721C7.43019 21.3297 7.45149 21.3185 7.46494 21.2994C7.49689 21.254 7.48456 21.2148 7.42795 21.1811C6.51491 20.6403 5.60076 20.1005 4.6866 19.5613C4.66698 19.5496 4.6597 19.5327 4.66362 19.5103L4.94274 17.9348C4.94667 17.9135 4.95732 17.8967 4.97469 17.8843L6.11192 17.0946C6.1321 17.0806 6.15676 17.0728 6.18198 17.0728H9.50232C9.52586 17.0728 9.53539 17.0845 9.53147 17.1075L9.29046 18.4701C9.28709 18.4897 9.27532 18.4992 9.25571 18.4992H6.45718C6.44205 18.4992 6.42692 18.5042 6.41459 18.5138C6.38208 18.5396 6.37535 18.5676 6.39441 18.5973C6.40506 18.6135 6.41963 18.6276 6.43869 18.6388C7.35621 19.1673 8.27093 19.6936 9.18172 20.2182C9.19797 20.2272 9.20638 20.2457 9.20358 20.2642L8.89083 22.0297C8.88746 22.0482 8.87794 22.0633 8.86224 22.0746L7.90773 22.7404C7.89316 22.7505 7.87578 22.7561 7.85785 22.7561H4V22.7556Z" fill="white"/>
<path d="M21.4082 18.5771C21.4087 18.5967 21.42 18.6147 21.4368 18.6242L24.2062 20.2188C24.2218 20.2277 24.2297 20.2451 24.2269 20.2625L23.9141 22.0297C23.9108 22.0482 23.9012 22.0633 23.8856 22.0746L22.9361 22.7371C22.9176 22.7494 22.8963 22.7561 22.8744 22.7561H19.0519C19.0312 22.7561 19.0227 22.746 19.0261 22.7258L19.2677 21.3627C19.2716 21.342 19.2839 21.3313 19.3052 21.3308C20.3416 21.3291 21.3774 21.3274 22.4115 21.3257C22.4518 21.3257 22.4776 21.3173 22.4888 21.3C22.5135 21.263 22.5028 21.2125 22.4653 21.1873C22.4642 21.1862 22.4625 21.1856 22.4613 21.1851C21.5539 20.6487 20.6364 20.1078 19.7088 19.5613C19.6897 19.5501 19.6824 19.5339 19.6864 19.512L19.9655 17.9342C19.9694 17.9135 19.9801 17.8967 19.998 17.8843L21.1442 17.0884C21.1588 17.0784 21.1761 17.0728 21.1941 17.0728H24.5245C24.5486 17.0728 24.5587 17.0845 24.5548 17.1086L24.3104 18.488C24.3087 18.4958 24.3042 18.4998 24.2964 18.4998C23.0493 18.4986 22.1105 18.4986 21.4794 18.5003C21.43 18.5003 21.4065 18.5261 21.4082 18.5771Z" fill="white"/>
<path d="M34.5197 17.0832L35.9815 17.082C35.9916 17.082 36 17.0904 36 17.1005C36 17.1016 36 17.1028 36 17.1039L35.0029 22.7368C35.0012 22.7458 34.9933 22.7519 34.9844 22.7519H33.5932C33.5865 22.7519 33.5803 22.748 33.577 22.7418L32.1758 20.0196C32.1713 20.0106 32.1601 20.0067 32.1511 20.0111C32.146 20.0139 32.1421 20.0184 32.141 20.0246L31.6612 22.7368C31.6595 22.7458 31.6517 22.7519 31.6427 22.7519H30.1933C30.1832 22.7519 30.1748 22.7441 30.1748 22.734C30.1748 22.7329 30.1748 22.7318 30.1748 22.7306L31.1719 17.0977C31.1736 17.0888 31.1814 17.0826 31.1904 17.0826H32.5703C32.5771 17.0826 32.5832 17.0865 32.5866 17.0927L33.9906 19.8032C33.9951 19.8122 34.0063 19.8161 34.0153 19.8116C34.0203 19.8088 34.0242 19.8043 34.0254 19.7982L34.5012 17.0983C34.5029 17.0893 34.5107 17.0832 34.5197 17.0832Z" fill="white"/>
<path d="M27.9856 21.7503H26.1253C26.1186 21.7503 26.1124 21.7542 26.1091 21.7604L25.6214 22.7463C25.6181 22.7524 25.6119 22.7563 25.6052 22.7563H23.9943C23.9842 22.7563 23.9758 22.7479 23.9758 22.7379C23.9758 22.7351 23.9764 22.7322 23.9781 22.7294L26.9038 17.0926C26.9072 17.0864 26.9134 17.0825 26.9201 17.0825H28.8442C28.8532 17.0825 28.8616 17.0892 28.8627 17.0982L29.7909 22.7351C29.7926 22.7451 29.7853 22.7547 29.7752 22.7563C29.7741 22.7563 29.773 22.7563 29.7724 22.7563H28.1593C28.1504 22.7563 28.1419 22.7496 28.1408 22.7407L28.0041 21.766C28.0029 21.757 27.9945 21.7503 27.9856 21.7503ZM26.7973 20.3698C26.7934 20.3782 26.7973 20.3883 26.8052 20.3922C26.8074 20.3933 26.8097 20.3939 26.8125 20.3939H27.7928C27.8023 20.3939 27.8096 20.386 27.809 20.3765C27.809 20.376 27.809 20.3754 27.809 20.3748L27.5938 18.8228C27.5921 18.8139 27.5837 18.8077 27.5742 18.8094C27.5691 18.8105 27.5646 18.8133 27.5624 18.8178L26.7973 20.3698Z" fill="white"/>
<path d="M19.2907 17.866C19.0055 17.5767 18.7202 17.2881 18.4343 17H17.176L15.7989 18.0235L14.9716 18.6366L14.1455 19.2442L13.256 19.8932L13.0334 21.1179L13.8529 20.7076L14.1707 20.5434L15.0585 20.0872L15.5803 19.8277L15.8191 18.4909C15.8241 18.4618 15.8499 18.4405 15.8796 18.4399L17.0628 18.4332L17.5745 18.4416C17.6177 18.4416 17.6351 18.4634 17.6278 18.5055L17.5773 18.7868L19.3025 17.9242C19.3154 17.9063 19.3115 17.8867 19.2907 17.866ZM15.8751 18.4035L15.8746 18.4018L15.8768 18.4035H15.8751Z" fill="url(#paint0_linear_18553_55719)"/>
<path d="M18.9645 19.8789L18.6002 21.9C18.5969 21.9174 18.5873 21.9337 18.5728 21.9443L17.3929 22.8293H14.5058L13.9975 22.3198C13.984 22.3064 13.97 22.3053 13.9549 22.3165L13.2677 22.8293H10.3616C10.3605 22.8237 10.3593 22.8181 10.3577 22.8119L12.3429 22.1315L13.8052 21.6355L15.3511 21.1114L15.3068 21.3664C15.3029 21.3883 15.3174 21.4096 15.3399 21.4135C15.3421 21.4135 15.3449 21.4141 15.3471 21.4141H17.0437C17.0858 21.4141 17.1211 21.3838 17.1284 21.3423L17.2836 20.4467L18.9645 19.8789Z" fill="white"/>
<path d="M11.0614 21.5182L11.2055 21.4033H12.4526L10.1405 22.5904L9.92139 22.3668L11.0614 21.5182Z" fill="url(#paint1_linear_18553_55719)"/>
<path d="M17.5774 18.7869L17.2837 20.4465L18.9646 19.8787L19.3026 17.9243L17.5774 18.7869Z" fill="#13BFF1"/>
<path d="M12.4526 21.4032L12.9274 21.4004C12.9532 21.4004 12.975 21.383 12.9806 21.3578L13.0333 21.1179L13.8527 20.7076L14.1705 20.5434L15.0584 20.0871L15.5802 19.8276L15.3509 21.1112L13.8051 21.6352L12.3428 22.1312L10.3575 22.8117L10.1406 22.5903L12.4526 21.4032Z" fill="url(#paint2_linear_18553_55719)"/>
<circle cx="20" cy="20" r="19.5" stroke="black" stroke-opacity="0.05"/>
<defs>
<linearGradient id="paint0_linear_18553_55719" x1="19" y1="18" x2="10" y2="22.5" gradientUnits="userSpaceOnUse">
<stop stop-color="#B7D500"/>
<stop offset="1" stop-color="#00648E"/>
</linearGradient>
<linearGradient id="paint1_linear_18553_55719" x1="9.99988" y1="22.5001" x2="19.4999" y2="18.0001" gradientUnits="userSpaceOnUse">
<stop stop-color="#00648E"/>
<stop offset="1" stop-color="#B7D500"/>
</linearGradient>
<linearGradient id="paint2_linear_18553_55719" x1="10.4999" y1="23" x2="18.9999" y2="19" gradientUnits="userSpaceOnUse">
<stop stop-color="#006696"/>
<stop offset="1" stop-color="#13BFF1"/>
</linearGradient>
</defs>
</svg>
