<svg width="40" height="40" viewBox="0 0 40 40" fill="none" xmlns="http://www.w3.org/2000/svg">
<circle cx="20" cy="20" r="20" fill="#1D2087"/>
<path d="M20.8887 8.00019L19.1081 8.0033C19.0716 8.00337 19.042 8.033 19.0421 8.0695L19.0452 9.85011C19.0453 9.8866 19.0749 9.91614 19.1114 9.91607L20.892 9.91296C20.9285 9.9129 20.958 9.88326 20.958 9.84677L20.9549 8.06616C20.9548 8.02966 20.9252 8.00013 20.8887 8.00019Z" fill="white"/>
<path d="M16.4866 10.1725L14.6886 10.1756C14.6454 10.1757 14.6104 10.2108 14.6105 10.254L14.6136 12.0555C14.6137 12.0987 14.6488 12.1337 14.692 12.1336L16.49 12.1305C16.5332 12.1304 16.5682 12.0953 16.5681 12.0521L16.565 10.2506C16.5649 10.2074 16.5298 10.1724 16.4866 10.1725Z" fill="white"/>
<path d="M18.6615 10.175L16.9017 10.1781C16.8595 10.1782 16.8253 10.2125 16.8253 10.2547L16.8285 12.0562C16.8285 12.0985 16.8629 12.1327 16.9051 12.1326L18.6649 12.1295C18.7071 12.1294 18.7413 12.0951 18.7412 12.0529L18.7381 10.2514C18.738 10.2091 18.7037 10.1749 18.6615 10.175Z" fill="white"/>
<path d="M20.88 10.1726L19.1168 10.1757C19.0755 10.1757 19.0421 10.2093 19.0421 10.2506L19.0453 12.059C19.0454 12.1003 19.0789 12.1337 19.1202 12.1336L20.8834 12.1306C20.9247 12.1305 20.9581 12.0969 20.958 12.0557L20.9549 10.2472C20.9548 10.2059 20.9213 10.1725 20.88 10.1726Z" fill="white"/>
<path d="M16.4951 12.3497L14.6762 12.3529C14.6388 12.353 14.6085 12.3834 14.6085 12.4208L14.6117 14.2397C14.6118 14.2772 14.6422 14.3075 14.6796 14.3074L16.4985 14.3042C16.5359 14.3042 16.5663 14.2738 16.5662 14.2363L16.563 12.4174C16.563 12.38 16.5325 12.3497 16.4951 12.3497Z" fill="white"/>
<path d="M18.6582 12.3486H16.9089C16.8637 12.3486 16.8271 12.3852 16.8271 12.4304V14.2214C16.8271 14.2665 16.8637 14.3031 16.9089 14.3031H18.6582C18.7033 14.3031 18.7399 14.2665 18.7399 14.2214V12.4304C18.7399 12.3852 18.7033 12.3486 18.6582 12.3486Z" fill="white"/>
<path d="M20.8817 12.3479L19.115 12.3509C19.0747 12.351 19.042 12.3838 19.0421 12.4241L19.0453 14.2325C19.0453 14.2729 19.0781 14.3055 19.1184 14.3054L20.8851 14.3024C20.9255 14.3023 20.9581 14.2695 20.958 14.2292L20.9549 12.4208C20.9548 12.3804 20.9221 12.3478 20.8817 12.3479Z" fill="white"/>
<path d="M16.4928 14.5692L14.6844 14.566C14.644 14.566 14.6113 14.5986 14.6112 14.639L14.608 16.4474C14.608 16.4877 14.6406 16.5205 14.6809 16.5205L16.4894 16.5237C16.5297 16.5238 16.5625 16.4911 16.5625 16.4508L16.5657 14.6424C16.5658 14.602 16.5331 14.5693 16.4928 14.5692Z" fill="white"/>
<path d="M18.6545 14.5671L16.9087 14.5702C16.8626 14.5702 16.8253 14.6077 16.8253 14.6538L16.8285 16.4413C16.8285 16.4874 16.866 16.5247 16.9121 16.5247L18.6579 16.5216C18.704 16.5215 18.7413 16.4841 18.7412 16.438L18.7381 14.6504C18.738 14.6043 18.7006 14.567 18.6545 14.5671Z" fill="white"/>
<path d="M20.8769 14.5691L19.1276 14.5661C19.0825 14.566 19.0458 14.6025 19.0458 14.6476L19.0426 16.4387C19.0426 16.4838 19.0791 16.5205 19.1242 16.5206L20.8735 16.5236C20.9187 16.5237 20.9553 16.4872 20.9554 16.442L20.9585 14.651C20.9586 14.6058 20.9221 14.5692 20.8769 14.5691Z" fill="white"/>
<path d="M23.1092 14.5646L21.2765 14.5678C21.2419 14.5678 21.2139 14.5959 21.214 14.6305L21.2172 16.4598C21.2172 16.4943 21.2453 16.5223 21.2799 16.5223L23.1127 16.5191C23.1472 16.519 23.1752 16.4909 23.1751 16.4564L23.172 14.6271C23.1719 14.5925 23.1438 14.5645 23.1092 14.5646Z" fill="white"/>
<path d="M25.3319 14.5692L23.4991 14.566C23.4646 14.566 23.4365 14.5939 23.4364 14.6285L23.4332 16.4578C23.4332 16.4924 23.4611 16.5205 23.4957 16.5205L25.3285 16.5237C25.3631 16.5238 25.3911 16.4958 25.3912 16.4612L25.3944 14.6319C25.3945 14.5974 25.3665 14.5693 25.3319 14.5692Z" fill="white"/>
<path d="M27.5336 14.5646L25.7252 14.5677C25.6839 14.5678 25.6504 14.6013 25.6505 14.6426L25.6537 16.4476C25.6537 16.4889 25.6873 16.5223 25.7286 16.5222L27.537 16.5191C27.5783 16.519 27.6117 16.4855 27.6117 16.4442L27.6085 14.6392C27.6084 14.5979 27.5749 14.5645 27.5336 14.5646Z" fill="white"/>
<path d="M29.7595 14.5692L27.9406 14.566C27.9022 14.566 27.871 14.5971 27.871 14.6355L27.8678 16.4509C27.8677 16.4893 27.8988 16.5205 27.9372 16.5205L29.7561 16.5237C29.7945 16.5238 29.8257 16.4927 29.8258 16.4543L29.829 14.6389C29.829 14.6005 29.7979 14.5693 29.7595 14.5692Z" fill="white"/>
<path d="M16.4777 16.7423L14.6936 16.7455C14.6465 16.7455 14.6085 16.7838 14.6085 16.8308L14.6117 18.6149C14.6117 18.662 14.65 18.7 14.697 18.7L16.4811 18.6968C16.5282 18.6968 16.5662 18.6585 16.5662 18.6115L16.563 16.8274C16.563 16.7803 16.5248 16.7423 16.4777 16.7423Z" fill="white"/>
<path d="M18.6582 16.7407H16.9089C16.8637 16.7407 16.8271 16.7773 16.8271 16.8225V18.6135C16.8271 18.6586 16.8637 18.6952 16.9089 18.6952H18.6582C18.7033 18.6952 18.7399 18.6586 18.7399 18.6135V16.8225C18.7399 16.7773 18.7033 16.7407 18.6582 16.7407Z" fill="white"/>
<path d="M20.8835 16.7424L19.1133 16.7455C19.0739 16.7455 19.042 16.7775 19.0421 16.8169L19.0453 18.6288C19.0453 18.6682 19.0773 18.7001 19.1167 18.7L20.8869 18.6969C20.9263 18.6968 20.9581 18.6648 20.958 18.6255L20.9549 16.8136C20.9548 16.7742 20.9228 16.7423 20.8835 16.7424Z" fill="white"/>
<path d="M23.094 16.744L21.2995 16.7409C21.2544 16.7408 21.2177 16.7773 21.2176 16.8225L21.2145 18.6135C21.2144 18.6586 21.251 18.6953 21.2961 18.6954L23.0906 18.6985C23.1358 18.6986 23.1724 18.6621 23.1725 18.6169L23.1756 16.8259C23.1757 16.7807 23.1392 16.7441 23.094 16.744Z" fill="white"/>
<path d="M25.3073 16.744L23.5198 16.7409C23.4727 16.7408 23.4345 16.7789 23.4344 16.8259L23.4313 18.61C23.4312 18.6571 23.4693 18.6953 23.5164 18.6954L25.3039 18.6985C25.351 18.6986 25.3892 18.6605 25.3893 18.6134L25.3924 16.8293C25.3925 16.7823 25.3544 16.7441 25.3073 16.744Z" fill="white"/>
<path d="M27.5338 16.7423L25.7254 16.7455C25.685 16.7455 25.6524 16.7783 25.6525 16.8186L25.6556 18.6271C25.6557 18.6674 25.6885 18.7001 25.7288 18.7L27.5372 18.6968C27.5776 18.6968 27.6102 18.664 27.6101 18.6237L27.607 16.8152C27.6069 16.7749 27.5741 16.7423 27.5338 16.7423Z" fill="white"/>
<path d="M29.7469 16.7423L27.942 16.7455C27.9007 16.7455 27.8672 16.7791 27.8673 16.8204L27.8705 18.6253C27.8705 18.6666 27.9041 18.7 27.9454 18.7L29.7503 18.6968C29.7916 18.6968 29.825 18.6632 29.825 18.6219L29.8218 16.817C29.8217 16.7757 29.7882 16.7423 29.7469 16.7423Z" fill="white"/>
<path d="M9.85581 18.9588L8.06477 18.9557C8.03115 18.9556 8.00386 18.9828 8.0038 19.0164L8.0006 20.8492C8.00054 20.8828 8.02774 20.9101 8.06136 20.9102L9.8524 20.9133C9.88602 20.9134 9.91331 20.8862 9.91337 20.8525L9.91657 19.0198C9.91663 18.9862 9.88943 18.9589 9.85581 18.9588Z" fill="white"/>
<path d="M12.0553 18.9547L10.2503 18.9579C10.2081 18.9579 10.1739 18.9923 10.174 19.0345L10.1771 20.8395C10.1772 20.8817 10.2115 20.9159 10.2538 20.9159L12.0587 20.9127C12.101 20.9126 12.1352 20.8783 12.1351 20.8361L12.1319 19.0311C12.1319 18.9888 12.0976 18.9547 12.0553 18.9547Z" fill="white"/>
<path d="M14.2706 18.9547L12.4691 18.9579C12.4268 18.9579 12.3926 18.9923 12.3927 19.0345L12.3959 20.8395C12.3959 20.8817 12.4303 20.9159 12.4725 20.9159L14.274 20.9127C14.3162 20.9126 14.3504 20.8783 14.3504 20.8361L14.3472 19.0311C14.3471 18.9889 14.3128 18.9547 14.2706 18.9547Z" fill="white"/>
<path d="M16.4968 18.9547L14.6745 18.9579C14.638 18.958 14.6085 18.9876 14.6085 19.0241L14.6117 20.8499C14.6118 20.8864 14.6414 20.9159 14.6779 20.9159L16.5002 20.9127C16.5367 20.9126 16.5663 20.883 16.5662 20.8465L16.563 19.0207C16.563 18.9842 16.5333 18.9546 16.4968 18.9547Z" fill="white"/>
<path d="M18.6632 18.9572L16.9 18.9603C16.8587 18.9604 16.8253 18.9939 16.8253 19.0352L16.8285 20.8402C16.8285 20.8815 16.8621 20.9149 16.9034 20.9148L18.6666 20.9117C18.7079 20.9117 18.7413 20.8781 18.7412 20.8368L18.7381 19.0319C18.738 18.9906 18.7045 18.9572 18.6632 18.9572Z" fill="white"/>
<path d="M20.8817 18.9548L19.115 18.9579C19.0747 18.958 19.042 18.9907 19.0421 19.031L19.0453 20.843C19.0454 20.8833 19.0781 20.9159 19.1184 20.9159L20.8851 20.9128C20.9255 20.9127 20.9581 20.88 20.9581 20.8396L20.9549 19.0277C20.9548 18.9874 20.9221 18.9547 20.8817 18.9548Z" fill="white"/>
<path d="M23.1079 18.9547L21.2821 18.9579C21.2466 18.958 21.2178 18.9868 21.2179 19.0223L21.2211 20.8516C21.2211 20.8872 21.25 20.9159 21.2855 20.9159L23.1114 20.9127C23.1469 20.9126 23.1756 20.8838 23.1756 20.8482L23.1724 19.0189C23.1723 18.9834 23.1435 18.9546 23.1079 18.9547Z" fill="white"/>
<path d="M25.3336 18.9589L23.4974 18.9557C23.4638 18.9556 23.4365 18.9828 23.4364 19.0164L23.4332 20.8527C23.4332 20.8863 23.4604 20.9136 23.494 20.9137L25.3302 20.9169C25.3638 20.9169 25.3911 20.8897 25.3912 20.8561L25.3944 19.0198C25.3945 18.9862 25.3673 18.9589 25.3336 18.9589Z" fill="white"/>
<path d="M27.5489 18.9613L25.7161 18.9581C25.6825 18.9581 25.6552 18.9853 25.6552 19.0189L25.652 20.8516C25.6519 20.8853 25.6791 20.9126 25.7127 20.9126L27.5455 20.9158C27.5791 20.9159 27.6064 20.8887 27.6065 20.8551L27.6097 19.0223C27.6097 18.9887 27.5825 18.9614 27.5489 18.9613Z" fill="white"/>
<path d="M29.7763 18.9547L27.9122 18.9579C27.8863 18.958 27.8653 18.979 27.8653 19.005L27.8686 20.8656C27.8686 20.8915 27.8897 20.9125 27.9156 20.9124L29.7797 20.9092C29.8056 20.9091 29.8266 20.8881 29.8265 20.8621L29.8233 19.0015C29.8233 18.9756 29.8022 18.9546 29.7763 18.9547Z" fill="white"/>
<path d="M31.9537 18.9588L30.1348 18.9556C30.1089 18.9556 30.0879 18.9766 30.0878 19.0025L30.0846 20.8631C30.0845 20.889 30.1055 20.9101 30.1314 20.9102L31.9503 20.9133C31.9762 20.9134 31.9973 20.8924 31.9973 20.8665L32.0006 19.0059C32.0006 18.9799 31.9796 18.9589 31.9537 18.9588Z" fill="white"/>
<path d="M12.0466 21.1295L10.2556 21.1327C10.2104 21.1327 10.1739 21.1694 10.174 21.2145L10.1771 23.0091C10.1772 23.0542 10.2138 23.0907 10.259 23.0906L12.05 23.0875C12.0952 23.0874 12.1317 23.0508 12.1316 23.0057L12.1285 21.2111C12.1284 21.166 12.0917 21.1295 12.0466 21.1295Z" fill="white"/>
<path d="M14.2654 21.1304H12.4743C12.4292 21.1304 12.3926 21.167 12.3926 21.2121V23.0066C12.3926 23.0518 12.4292 23.0884 12.4743 23.0884H14.2654C14.3105 23.0884 14.3471 23.0518 14.3471 23.0066V21.2121C14.3471 21.167 14.3105 21.1304 14.2654 21.1304Z" fill="white"/>
<path d="M16.4794 21.1295L14.6919 21.1327C14.6458 21.1327 14.6085 21.1702 14.6085 21.2163L14.6117 23.0073C14.6118 23.0534 14.6492 23.0907 14.6953 23.0906L16.4829 23.0875C16.5289 23.0874 16.5663 23.05 16.5662 23.0039L16.563 21.2129C16.563 21.1668 16.5255 21.1295 16.4794 21.1295Z" fill="white"/>
<path d="M18.6528 21.1321L16.9104 21.1351C16.8633 21.1352 16.8253 21.1734 16.8253 21.2205L16.8285 23.0046C16.8285 23.0516 16.8668 23.0897 16.9138 23.0896L18.6562 23.0866C18.7032 23.0865 18.7413 23.0483 18.7412 23.0012L18.7381 21.2171C18.738 21.1701 18.6998 21.132 18.6528 21.1321Z" fill="white"/>
<path d="M20.8748 21.1296L19.122 21.1327C19.0778 21.1327 19.0421 21.1686 19.0421 21.2128L19.0453 23.0108C19.0453 23.055 19.0812 23.0907 19.1254 23.0907L20.8782 23.0876C20.9224 23.0875 20.9581 23.0516 20.958 23.0075L20.9549 21.2095C20.9548 21.1653 20.9189 21.1295 20.8748 21.1296Z" fill="white"/>
<path d="M23.0923 21.1295L21.2978 21.1327C21.2536 21.1327 21.2178 21.1686 21.2179 21.2128L21.2211 23.0108C21.2211 23.055 21.257 23.0907 21.3012 23.0907L23.0957 23.0875C23.1399 23.0874 23.1756 23.0516 23.1756 23.0074L23.1724 21.2094C23.1723 21.1652 23.1365 21.1295 23.0923 21.1295Z" fill="white"/>
<path d="M25.3054 21.132L23.5143 21.1351C23.4692 21.1352 23.4327 21.1718 23.4328 21.217L23.4359 23.008C23.436 23.0532 23.4726 23.0897 23.5178 23.0896L25.3088 23.0865C25.3539 23.0864 25.3905 23.0498 25.3904 23.0046L25.3873 21.2136C25.3872 21.1684 25.3505 21.1319 25.3054 21.132Z" fill="white"/>
<path d="M12.0675 23.3468L10.2382 23.35C10.2026 23.35 10.1739 23.3789 10.1739 23.4144L10.1771 25.1985C10.1771 25.2341 10.206 25.2628 10.2415 25.2628L12.0708 25.2596C12.1063 25.2595 12.1351 25.2306 12.135 25.1951L12.1319 23.411C12.1319 23.3755 12.103 23.3467 12.0675 23.3468Z" fill="white"/>
<path d="M14.2783 23.3468L12.4594 23.35C12.422 23.35 12.3917 23.3805 12.3917 23.4179L12.3948 25.1951C12.3949 25.2325 12.4253 25.2628 12.4628 25.2627L14.2816 25.2596C14.3191 25.2595 14.3494 25.2291 14.3493 25.1916L14.3462 23.4145C14.3462 23.377 14.3157 23.3467 14.2783 23.3468Z" fill="white"/>
<path d="M16.502 23.3468L14.6693 23.35C14.6356 23.3501 14.6084 23.3773 14.6085 23.411L14.6116 25.202C14.6117 25.2356 14.639 25.2628 14.6726 25.2628L16.5054 25.2596C16.539 25.2595 16.5662 25.2322 16.5661 25.1986L16.563 23.4075C16.5629 23.3739 16.5357 23.3467 16.502 23.3468Z" fill="white"/>
<path d="M18.6688 23.3484L16.9021 23.3453C16.8618 23.3453 16.829 23.3779 16.829 23.4182L16.8259 25.185C16.8258 25.2253 16.8585 25.258 16.8988 25.2581L18.6655 25.2612C18.7058 25.2613 18.7386 25.2286 18.7387 25.1883L18.7417 23.4216C18.7418 23.3813 18.7092 23.3485 18.6688 23.3484Z" fill="white"/>
<path d="M20.88 23.3469L19.1168 23.35C19.0755 23.35 19.0421 23.3836 19.0421 23.4249L19.0452 25.1881C19.0453 25.2294 19.0788 25.2628 19.1201 25.2627L20.8833 25.2597C20.9246 25.2596 20.958 25.2261 20.958 25.1848L20.9549 23.4215C20.9548 23.3802 20.9213 23.3468 20.88 23.3469Z" fill="white"/>
<path d="M23.1112 23.3468L21.2749 23.35C21.2423 23.3501 21.2159 23.3766 21.2159 23.4092L21.2191 25.2037C21.2191 25.2364 21.2456 25.2628 21.2783 25.2628L23.1145 25.2596C23.1472 25.2595 23.1736 25.233 23.1736 25.2003L23.1704 23.4058C23.1704 23.3732 23.1439 23.3467 23.1112 23.3468Z" fill="white"/>
<path d="M25.318 23.3485L23.5096 23.3453C23.4692 23.3453 23.4365 23.3779 23.4364 23.4182L23.4333 25.185C23.4332 25.2253 23.4659 25.258 23.5062 25.2581L25.3147 25.2613C25.355 25.2613 25.3877 25.2287 25.3878 25.1884L25.3909 23.4217C25.391 23.3813 25.3583 23.3486 25.318 23.3485Z" fill="white"/>
<path d="M18.6741 25.5237L16.8969 25.5206C16.8595 25.5206 16.829 25.5509 16.829 25.5883L16.8258 27.4072C16.8257 27.4446 16.8561 27.4751 16.8935 27.4751L18.6706 27.4782C18.7081 27.4783 18.7385 27.448 18.7386 27.4105L18.7418 25.5917C18.7418 25.5542 18.7115 25.5238 18.6741 25.5237Z" fill="white"/>
<path d="M20.8839 25.5237L19.1207 25.5206C19.0794 25.5206 19.0458 25.554 19.0458 25.5953L19.0426 27.4002C19.0425 27.4415 19.076 27.4751 19.1173 27.4751L20.8805 27.4782C20.9218 27.4783 20.9553 27.4449 20.9554 27.4036L20.9585 25.5986C20.9586 25.5573 20.9252 25.5238 20.8839 25.5237Z" fill="white"/>
<path d="M23.1082 25.5238L21.2858 25.5206C21.2493 25.5206 21.2197 25.5501 21.2196 25.5866L21.2164 27.4089C21.2164 27.4454 21.2459 27.4751 21.2824 27.4751L23.1047 27.4783C23.1412 27.4784 23.1709 27.4488 23.1709 27.4123L23.1741 25.59C23.1742 25.5535 23.1446 25.5239 23.1082 25.5238Z" fill="white"/>
<path d="M25.3282 25.5238L23.4989 25.5206C23.4634 25.5206 23.4345 25.5493 23.4345 25.5848L23.4313 27.4107C23.4312 27.4462 23.46 27.4751 23.4955 27.4751L25.3248 27.4783C25.3603 27.4784 25.3892 27.4496 25.3893 27.4141L25.3924 25.5883C25.3925 25.5527 25.3637 25.5239 25.3282 25.5238Z" fill="white"/>
<path d="M20.8817 27.7365L19.115 27.7396C19.0747 27.7397 19.042 27.7724 19.0421 27.8128L19.0452 29.5795C19.0453 29.6198 19.078 29.6525 19.1184 29.6524L20.8851 29.6493C20.9254 29.6492 20.958 29.6165 20.958 29.5761L20.9549 27.8094C20.9548 27.7691 20.9221 27.7365 20.8817 27.7365Z" fill="white"/>
<path d="M23.0975 27.7365L21.2925 27.7396C21.2512 27.7397 21.2178 27.7732 21.2179 27.8145L21.221 29.5777C21.2211 29.619 21.2546 29.6525 21.2959 29.6524L23.1008 29.6492C23.1421 29.6492 23.1756 29.6156 23.1755 29.5743L23.1724 27.8111C23.1723 27.7698 23.1388 27.7364 23.0975 27.7365Z" fill="white"/>
<path d="M25.3195 27.7411L23.5076 27.7379C23.4673 27.7379 23.4345 27.7705 23.4344 27.8108L23.4314 29.5775C23.4313 29.6179 23.4639 29.6506 23.5043 29.6507L25.3162 29.6539C25.3565 29.6539 25.3893 29.6213 25.3893 29.5809L25.3924 27.8142C25.3925 27.7739 25.3599 27.7412 25.3195 27.7411Z" fill="white"/>
<path d="M20.8978 29.9134L19.1068 29.9103C19.0731 29.9102 19.0459 29.9374 19.0458 29.971L19.0426 31.8038C19.0425 31.8374 19.0697 31.8647 19.1033 31.8648L20.8944 31.8679C20.928 31.8679 20.9553 31.8407 20.9554 31.8071L20.9586 29.9744C20.9586 29.9407 20.9314 29.9134 20.8978 29.9134Z" fill="white"/>
<circle cx="20" cy="20" r="19.5" stroke="black" stroke-opacity="0.05"/>
</svg>
