<svg width="40" height="40" viewBox="0 0 40 40" fill="none" xmlns="http://www.w3.org/2000/svg">
<circle cx="20" cy="20" r="20" fill="#F6C533"/>
<path d="M20.6313 30.4949H20.5443C20.5353 30.0354 20.5337 29.576 20.5398 29.1169C20.5642 27.1673 20.5563 25.217 20.5478 23.2782C20.5459 22.8149 20.5724 22.4359 20.6273 22.1411C20.7948 21.249 21.1956 20.4665 21.8297 19.7937C22.4991 19.083 23.3354 18.6333 24.3385 18.4447C24.6234 18.3913 24.9964 18.367 25.4574 18.3719C26.395 18.3814 27.308 18.3822 28.1963 18.3742C28.2172 18.3742 28.2253 18.364 28.2208 18.3435C27.7037 16.0484 26.216 14.0851 24.1754 12.927C23.4742 12.5292 22.741 12.2391 21.9758 12.0565C21.9508 12.0504 21.9417 12.0599 21.9485 12.0849C22.1519 12.8162 22.2877 13.535 22.3639 14.3067C22.4021 14.6916 22.408 15.0651 22.3815 15.4273C22.2582 17.1224 21.6598 18.714 20.5387 19.9943C20.3951 20.1583 20.2464 20.3036 20.0926 20.4301C20.0771 20.4426 20.0619 20.4423 20.0471 20.429C19.8812 20.2831 19.7223 20.1212 19.5704 19.9431C18.4407 18.6191 17.8611 17.003 17.7713 15.2716C17.7546 14.9447 17.7666 14.5888 17.8071 14.2039C17.8848 13.4693 18.0225 12.7552 18.2202 12.0616C18.2208 12.0597 18.2209 12.0578 18.2204 12.0559C18.22 12.054 18.219 12.0523 18.2177 12.0509C18.2164 12.0495 18.2147 12.0485 18.2128 12.048C18.211 12.0475 18.209 12.0474 18.2071 12.0479C17.4088 12.2303 16.6496 12.5139 15.9376 12.9287C13.9824 14.0663 12.6721 15.7252 12.0065 17.9054C11.961 18.0539 11.9242 18.2013 11.8962 18.3475C11.8928 18.3653 11.9002 18.3744 11.9184 18.3748C12.8503 18.3816 13.7311 18.3805 14.5607 18.3714C15.0108 18.3665 15.3809 18.3916 15.6711 18.447C16.6784 18.6398 17.5128 19.0906 18.1742 19.7994C18.8133 20.4843 19.2141 21.2713 19.3766 22.1604C19.4243 22.4222 19.4478 22.7995 19.4471 23.2924C19.4437 25.693 19.449 28.0939 19.463 30.4949H19.3613C19.1662 30.4631 18.9705 30.4356 18.7743 30.4125C18.5511 30.3867 18.3479 30.3549 18.1645 30.317C17.9486 30.2727 17.7289 30.2282 17.5054 30.1835C17.341 30.1505 17.1701 30.103 16.9928 30.0409C16.8163 29.9795 16.6485 29.9198 16.4893 29.8619C15.7105 29.5781 14.952 29.1798 14.2141 28.6669C14.0482 28.5513 13.8828 28.4254 13.718 28.289C13.5009 28.1088 13.2731 27.9401 13.0759 27.7406C12.8088 27.4707 12.5406 27.2156 12.2946 26.9167C12.1042 26.6854 11.9093 26.4621 11.7468 26.2171C11.5479 25.9177 11.3371 25.6267 11.1672 25.3205C10.3409 23.8286 9.90659 22.2218 9.86417 20.5C9.86341 20.4769 9.85147 20.4654 9.82837 20.4654H8.81405C8.79359 20.4654 8.77597 20.4584 8.7612 20.4443L6.62403 18.4077C6.60243 18.3873 6.60641 18.3771 6.63596 18.3771H10.0165C10.0399 18.3771 10.0538 18.3657 10.0579 18.343C10.3368 16.8992 10.9058 15.5811 11.7649 14.3885C12.8598 12.8683 14.2671 11.7303 15.987 10.9745C16.3348 10.8222 16.7013 10.7063 17.0644 10.5785C17.2027 10.5296 17.3487 10.4873 17.5025 10.4517C17.9287 10.3529 18.145 10.3029 18.1515 10.3017C18.4094 10.2546 18.7066 10.2273 18.9339 10.192C18.9548 10.189 18.9701 10.178 18.98 10.1591C19.3054 9.53061 19.6653 8.95365 20.0596 8.42821C20.0725 8.41117 20.0854 8.41098 20.0983 8.42764C20.5021 8.96142 20.8628 9.53838 21.1802 10.1585C21.1872 10.1721 21.1975 10.1838 21.21 10.1926C21.2226 10.2013 21.2372 10.2068 21.2524 10.2085C22.2078 10.3184 23.1355 10.5682 24.0356 10.958C25.2365 11.4778 26.2986 12.2017 27.2218 13.1299C28.1211 14.0334 28.8235 15.0581 29.3289 16.2041C29.4065 16.3799 29.4796 16.5685 29.5482 16.7701C29.6368 17.0303 29.7386 17.2803 29.8033 17.5457C29.8689 17.8124 29.9369 18.084 30.0073 18.3606C30.0085 18.3653 30.0113 18.3695 30.0152 18.3725C30.0191 18.3755 30.0239 18.3771 30.0289 18.3771H33.364C33.3935 18.3771 33.3975 18.3873 33.3759 18.4077L31.241 20.4409C31.224 20.4572 31.2037 20.4654 31.1802 20.4654H30.2119C30.2057 20.4654 30.1997 20.4678 30.1952 20.4722C30.1908 20.4765 30.1882 20.4824 30.188 20.4887C30.1327 22.5825 29.5202 24.4734 28.3503 26.1615C28.1329 26.4751 27.8992 26.7731 27.6491 27.0553C26.5399 28.3077 25.1981 29.2347 23.6237 29.8363C23.3799 29.9295 23.1498 29.9948 22.9117 30.0778C22.8158 30.1111 22.7198 30.1396 22.6236 30.163C22.0856 30.2937 21.7367 30.3665 21.5768 30.3813C21.2609 30.4112 20.9457 30.4491 20.6313 30.4949ZM11.6837 20.5006C11.7763 23.8084 13.8379 26.7433 16.8746 28.0134C16.9625 28.0501 17.0498 28.0831 17.1366 28.1122C17.1585 28.1194 17.1695 28.1115 17.1695 28.0884C17.1699 26.72 17.1693 25.2858 17.1678 23.7856C17.1667 22.7457 16.7934 21.8881 16.0478 21.2126C15.7088 20.9058 15.3119 20.679 14.8573 20.5324C14.7134 20.4862 14.5719 20.4633 14.4329 20.4637C13.5373 20.4663 12.6325 20.4667 11.7184 20.4648C11.6945 20.4644 11.6829 20.4763 11.6837 20.5006ZM22.8673 23.2839C22.8454 23.4801 22.8342 23.6481 22.8338 23.7879C22.8289 25.3313 22.8279 26.7759 22.831 28.1219C22.831 28.1424 22.8406 28.1496 22.8599 28.1435C22.938 28.1193 23.0153 28.0924 23.0918 28.0628C24.1362 27.6639 25.0454 27.0894 25.8194 26.3393C27.3207 24.8842 28.1818 23.123 28.4026 21.0558C28.4223 20.8705 28.4346 20.6849 28.4396 20.4989C28.4399 20.4754 28.4284 20.4637 28.4049 20.4637C27.4044 20.4663 26.464 20.4659 25.5835 20.4625C25.4366 20.4621 25.2936 20.4841 25.1545 20.5284C24.4192 20.7626 23.8269 21.2111 23.3776 21.874C23.0961 22.2892 22.9261 22.7592 22.8673 23.2839Z" fill="white"/>
<circle cx="20" cy="20" r="19.5" stroke="black" stroke-opacity="0.05"/>
</svg>
