<svg width="40" height="40" viewBox="0 0 40 40" fill="none" xmlns="http://www.w3.org/2000/svg">
<circle cx="20" cy="20" r="20" fill="#0A2D87"/>
<path d="M12.9296 25.4041H16.3684C16.4296 25.4041 16.4594 25.4339 16.4544 25.495C16.4039 26.4665 16.4039 27.4399 16.4544 28.4114C16.4566 28.424 16.4558 28.4369 16.4521 28.4491C16.4483 28.4613 16.4418 28.4725 16.4329 28.4817C16.424 28.4908 16.4131 28.4978 16.4011 28.502C16.389 28.5061 16.3761 28.5074 16.3635 28.5056H10.081C10.0596 28.5044 10.0395 28.4953 10.0245 28.48C10.0095 28.4647 10.0008 28.4444 10 28.423L10.1141 10.3312C10.1121 10.3192 10.1128 10.3069 10.1162 10.2953C10.1196 10.2836 10.1255 10.2729 10.1336 10.2638C10.1417 10.2548 10.1517 10.2477 10.1629 10.243C10.1742 10.2383 10.1863 10.2363 10.1984 10.2369H17.7373C17.7647 10.236 17.7918 10.2418 17.8164 10.2539C17.8409 10.2661 17.862 10.2841 17.8779 10.3064L23.6974 18.1065C23.7737 18.2074 23.8149 18.3305 23.8148 18.457V22.8779C23.8148 23.035 23.7718 23.0432 23.6858 22.9159C23.5999 22.7886 23.5205 22.6812 23.4494 22.5753C21.245 19.5818 18.8831 16.4004 16.3635 13.031C16.3501 13.0123 16.3325 12.9972 16.3121 12.9868C16.2916 12.9765 16.269 12.9712 16.2461 12.9715H12.9395C12.9229 12.9693 12.9061 12.971 12.8903 12.9763C12.8744 12.9817 12.86 12.9907 12.8482 13.0025C12.8364 13.0143 12.8275 13.0287 12.8221 13.0445C12.8167 13.0604 12.815 13.0772 12.8172 13.0938L12.8106 25.2818C12.8091 25.2979 12.8112 25.3142 12.8166 25.3295C12.822 25.3447 12.8307 25.3587 12.842 25.3703C12.8533 25.3819 12.867 25.391 12.8821 25.3968C12.8972 25.4026 12.9134 25.4051 12.9296 25.4041Z" fill="#00A3E6"/>
<path d="M27.9233 13.7517H23.7224C23.7088 13.7517 23.6957 13.7463 23.6861 13.7367C23.6765 13.7271 23.6711 13.7141 23.6711 13.7005V11.5942C23.6711 11.5806 23.6765 11.5676 23.6861 11.558C23.6957 11.5484 23.7088 11.543 23.7224 11.543H29.9486C29.9622 11.543 29.9752 11.5484 29.9849 11.558C29.9945 11.5676 29.9999 11.5806 29.9999 11.5942V29.3636C29.9999 29.3772 29.9945 29.3903 29.9849 29.3999C29.9752 29.4095 29.9622 29.4149 29.9486 29.4149H22.4493C22.4418 29.4149 22.4344 29.4132 22.4275 29.4101C22.4207 29.4069 22.4146 29.4024 22.4097 29.3967L16.8348 22.6844C16.8272 22.6751 16.8231 22.6634 16.8232 22.6513V19.0488C16.8232 19.0354 16.8283 19.0224 16.8376 19.0126C16.8468 19.0027 16.8594 18.9968 16.8728 18.9959C16.8812 18.996 16.8894 18.998 16.8968 19.0017C16.9043 19.0054 16.9108 19.0108 16.9158 19.0174L23.4215 27.4491C23.4263 27.455 23.4324 27.4599 23.4392 27.4633C23.446 27.4667 23.4535 27.4686 23.4612 27.469H27.925C27.9317 27.469 27.9384 27.4677 27.9446 27.4651C27.9508 27.4625 27.9565 27.4587 27.9612 27.454C27.966 27.4492 27.9698 27.4436 27.9724 27.4373C27.9749 27.4311 27.9763 27.4245 27.9763 27.4177V13.803C27.9763 13.7961 27.9749 13.7893 27.9722 13.783C27.9695 13.7767 27.9656 13.7709 27.9607 13.7662C27.9557 13.7614 27.9499 13.7576 27.9435 13.7552C27.9371 13.7527 27.9302 13.7515 27.9233 13.7517Z" fill="white"/>
<circle cx="20" cy="20" r="19.5" stroke="black" stroke-opacity="0.05"/>
</svg>
