<svg width="40" height="40" viewBox="0 0 40 40" fill="none" xmlns="http://www.w3.org/2000/svg">
<circle cx="20" cy="20" r="20" fill="#E3B944"/>
<g clip-path="url(#clip0_18553_55913)">
<path d="M28.748 22.9391C28.9916 23.0352 29.2352 23.103 29.4843 23.1425C29.7874 23.1934 30.096 23.1764 30.4153 23.0973C30.4208 23.0973 30.4262 23.0973 30.4316 23.1086V23.1256C30.4316 23.1256 30.4316 23.1482 30.4208 23.1482C30.1717 23.2329 29.9552 23.2781 29.782 23.2894C29.6467 23.3007 29.5059 23.3007 29.3489 23.3007C29.1974 23.3007 29.0566 23.2894 28.9213 23.2668C28.6993 23.2273 28.5478 23.199 28.472 23.1708C28.2987 23.1086 28.1201 23.0352 27.9415 22.9448C27.7412 22.8431 27.5734 22.747 27.438 22.6453C27.1295 22.4137 26.8696 22.1369 26.6585 21.8205C26.4582 21.5097 26.2579 21.1312 26.1605 20.7527C25.9873 20.0691 25.9927 19.2668 26.22 18.6171C26.4366 17.9843 26.756 17.4419 27.2756 17.0126C27.4759 16.8487 27.687 16.6905 27.9144 16.5775C28.2609 16.4024 28.5532 16.2838 28.9321 16.2386C29.3922 16.1764 29.8415 16.2329 30.3017 16.3064C30.3666 16.3177 30.4262 16.3346 30.4803 16.3629C30.5398 16.3911 30.5994 16.4193 30.6644 16.4419C30.7293 16.4645 30.7943 16.4928 30.8538 16.5267C31.0379 16.6171 31.1624 16.6905 31.2327 16.747C31.3573 16.8487 31.4818 16.9448 31.6063 17.0408C31.6442 17.0691 31.6387 17.0917 31.5954 17.103C31.563 17.1143 31.5305 17.103 31.5088 17.0747C31.3627 16.9222 31.2003 16.8148 31.0108 16.7527C30.7022 16.6566 30.4153 16.5832 30.1501 16.538C30.0256 16.5154 29.8632 16.5154 29.6629 16.5323C29.4897 16.5493 29.3273 16.5775 29.1703 16.6171C29.0079 16.6623 28.8563 16.7075 28.721 16.7527C28.4611 16.8431 28.2013 16.99 27.9415 17.1934C27.7845 17.3177 27.6546 17.4702 27.5084 17.6058C27.4489 17.6679 27.3947 17.7301 27.3406 17.8035C26.9454 18.3629 26.6639 19.0408 26.6802 19.747C26.6802 19.9674 26.6639 20.1877 26.7127 20.408C26.7668 20.6679 26.8263 20.877 26.8913 21.0295C27.0375 21.3742 27.2486 21.7922 27.4813 22.0634C27.6275 22.2329 27.817 22.408 28.0497 22.5888C28.2013 22.7075 28.3691 22.764 28.5315 22.8544C28.6019 22.8883 28.6723 22.9222 28.7426 22.9504L28.748 22.9391Z" fill="white"/>
<path d="M27.0965 20.2387C27.0965 20.2387 27.0857 20.2613 27.0749 20.2613C27.0641 20.2613 27.0587 20.2556 27.0532 20.2443C26.9883 19.8319 26.9937 19.4421 27.0803 19.0749C27.2156 18.476 27.4809 17.9788 27.8815 17.589C28.2442 17.2274 28.6826 16.9732 29.1861 16.8206C29.2997 16.7867 29.4188 16.7641 29.5379 16.7585C29.9764 16.7302 30.3553 16.7585 30.6639 16.8545C30.8371 16.9054 31.0428 17.0014 31.2756 17.1483C31.4867 17.2782 31.6599 17.4025 31.8061 17.5268C32.1147 17.7924 32.3095 18.1596 32.4936 18.5381C32.5585 18.6737 32.6073 18.8093 32.6397 18.9562C32.7372 19.4308 32.7643 19.8658 32.7155 20.2613C32.6993 20.3969 32.6181 20.6455 32.4773 20.9958C32.3745 21.25 32.2338 21.476 32.0551 21.6737C32.0443 21.685 32.0389 21.685 32.0335 21.6681C32.0335 21.6172 32.0443 21.5664 32.0714 21.5155C32.1904 21.3008 32.3095 21.0862 32.3637 20.8376C32.5261 20.0918 32.4286 19.3856 32.0714 18.7246C31.8711 18.3517 31.5787 18.0297 31.1998 17.7585C30.94 17.572 30.6477 17.4477 30.3283 17.3856C29.814 17.2839 29.3268 17.3178 28.8613 17.4873C28.0439 17.7867 27.4484 18.4703 27.1832 19.3291C27.1344 19.4873 27.1561 19.6398 27.1236 19.798C27.0911 19.9393 27.1074 20.1031 27.0965 20.2443V20.2387Z" fill="white"/>
<path d="M11.2683 22.3575C11.2683 22.3575 11.3117 22.3405 11.3117 22.3123C11.3117 22.0919 11.2954 21.8321 11.3387 21.6174C11.3441 21.5778 11.3766 21.5552 11.4145 21.5552L12.0641 21.5778C12.0641 21.5778 12.102 21.5948 12.1074 21.6174C12.1399 21.8547 12.1453 22.0637 12.1236 22.2501C12.1074 22.4027 11.9883 22.5496 11.88 22.6513C11.7285 22.7925 11.5823 22.945 11.4416 23.0976C11.3874 23.1597 11.2954 23.1993 11.2142 23.1993C10.1586 23.2049 9.16258 23.2049 8.23149 23.1993C8.11781 23.1993 7.99872 23.1993 7.87422 23.188C7.83091 23.188 7.7876 23.1654 7.75512 23.1371C7.52235 22.9112 7.31665 22.6965 7.13801 22.4874C7.06764 22.4027 7.03516 22.284 7.03516 22.171C7.03516 20.9055 7.03516 19.6343 7.04057 18.3688C7.04057 18.1541 7.04057 17.9959 7.17049 17.8716C7.35995 17.6852 7.52777 17.51 7.67392 17.3518C7.76595 17.2558 7.87963 17.2049 8.01496 17.2049C9.02724 17.1993 10.0287 17.1936 11.0139 17.188C11.198 17.188 11.3495 17.2275 11.4903 17.3518C11.7176 17.5609 11.8909 17.7473 12.0154 17.9225C12.1724 18.1428 12.1399 18.527 12.1291 18.8038C12.1291 18.8264 12.1074 18.849 12.0858 18.849H11.3983C11.3495 18.849 11.3117 18.8095 11.3117 18.7643L11.3008 18.1823C11.3008 18.0863 11.2521 18.0411 11.1655 18.0411H7.93376C7.89046 18.0411 7.85256 18.0806 7.85256 18.1258V22.2784C7.85256 22.3179 7.88504 22.3518 7.92835 22.3575C9.06514 22.3801 10.1965 22.3575 11.2683 22.3631V22.3575Z" fill="white"/>
<path d="M17.5205 22.3292C17.5151 22.2105 17.4989 22.0862 17.4989 21.9619C17.5097 20.3518 17.5097 18.8037 17.4989 17.3009C17.4989 17.2501 17.5205 17.2275 17.5693 17.2218C17.802 17.1992 18.0186 17.1992 18.2134 17.2162C18.2676 17.2162 18.3055 17.2614 18.3109 17.3179C18.3163 17.3744 18.3217 17.4309 18.3217 17.4874C18.3325 18.702 18.3325 20.1371 18.3271 21.7868C18.3271 21.928 18.3271 22.0749 18.3163 22.2218C18.3163 22.2896 18.2946 22.3518 18.2568 22.4026C18.0835 22.6681 17.8183 22.8941 17.6126 23.1201C17.5639 23.171 17.4989 23.1992 17.4285 23.1992C16.492 23.1992 15.5285 23.1992 14.5378 23.2049C14.4079 23.2049 14.0777 23.2218 13.9694 23.1258C13.7691 22.945 13.558 22.7359 13.3361 22.4874C13.2765 22.4196 13.2441 22.3405 13.2386 22.2501C13.2332 22.0636 13.2278 21.8715 13.2278 21.6851C13.217 20.154 13.217 18.6794 13.2386 17.2727C13.2386 17.2444 13.2603 17.2162 13.2874 17.2162C13.5255 17.1936 13.7475 17.1936 13.9586 17.2162C14.0019 17.2162 14.0344 17.2614 14.0344 17.3066V22.2275C14.0344 22.2953 14.0885 22.3518 14.1589 22.3518H17.4881C17.4881 22.3518 17.5205 22.3405 17.5205 22.3179V22.3292Z" fill="white"/>
<path d="M22.9937 20.8433C22.9937 20.8433 22.9449 20.8659 22.9449 20.8942C22.9449 20.9055 22.9449 20.9168 22.9558 20.9224C23.2318 21.3066 23.5079 21.6682 23.7786 22.0128C24.0655 22.38 24.3199 22.7529 24.6014 23.1258C24.6122 23.1427 24.6177 23.1597 24.6177 23.1823C24.6177 23.1936 24.6068 23.2049 24.5906 23.2049L23.7569 23.1879C23.7028 23.1879 23.6487 23.1597 23.6162 23.1145L21.9327 20.8998C21.9056 20.8659 21.8623 20.8433 21.819 20.8433L20.4657 20.8546C20.4278 20.8546 20.4007 20.8829 20.4007 20.9224L20.3899 23.1653C20.3899 23.1653 20.379 23.1936 20.3628 23.1936C20.1355 23.2105 19.9135 23.2049 19.6916 23.1823C19.6428 23.1823 19.6049 23.1427 19.5995 23.0919C19.5887 23.0128 19.5833 22.9337 19.5833 22.8603C19.5779 20.9337 19.5833 19.0636 19.5887 17.2501C19.5887 17.2275 19.605 17.2105 19.6266 17.2105C20.9312 17.1936 22.225 17.1879 23.5133 17.1992C23.5837 17.1992 23.6378 17.2218 23.6866 17.2727C23.9031 17.4817 24.1088 17.7021 24.2929 17.9281C24.3957 18.0523 24.3903 18.3913 24.3903 18.5608C24.3903 19.0128 24.3903 19.4535 24.3903 19.8885C24.3903 19.9732 24.3578 20.0523 24.2929 20.1201C24.0655 20.3631 23.8544 20.5947 23.6487 20.8038C23.6324 20.8207 23.6054 20.832 23.5783 20.832H22.9883L22.9937 20.8433ZM23.5891 18.0919C23.5891 18.0919 23.5675 18.0467 23.5458 18.0467H20.444C20.444 18.0467 20.4007 18.0636 20.4007 18.0862V19.9563C20.4007 19.9845 20.4224 20.0015 20.444 20.0015H23.5458C23.5458 20.0015 23.5891 19.9845 23.5891 19.9619V18.0919Z" fill="white"/>
<path d="M28.7965 23.4306C28.9697 23.4589 29.1808 23.4645 29.4244 23.4645C29.6247 23.4645 29.825 23.4363 30.0361 23.3854C30.3339 23.312 30.5775 23.2329 30.7669 23.1425C31.2216 22.9278 31.606 22.6453 31.9091 22.3064C32.1852 21.99 32.4126 21.6397 32.5858 21.2442C32.6778 21.0352 32.7265 20.8035 32.8132 20.5832C32.9268 20.2894 32.9106 19.9278 32.9377 19.6114C32.9485 19.4928 32.9647 19.4928 32.981 19.6114C33.0243 19.8939 33.0567 20.2103 33.0134 20.4984C32.981 20.747 32.9701 21.0013 32.8944 21.2555C32.7536 21.7131 32.5641 22.1256 32.3205 22.4984C31.9903 23.0013 31.4977 23.4702 30.9618 23.747C30.6154 23.9222 30.2906 24.0465 29.9874 24.1199C29.5598 24.2216 29.1213 24.2386 28.6774 24.1821C27.7788 24.0634 26.8694 23.6171 26.2901 22.8826C26.1873 22.7527 26.0736 22.6397 25.987 22.5041C25.6784 22.0182 25.4673 21.521 25.3591 21.0013C25.2833 20.634 25.2616 20.2273 25.2995 19.7809C25.3103 19.6284 25.3374 19.4589 25.3753 19.2612C25.4078 19.086 25.4565 18.9278 25.5106 18.7753C25.6947 18.3064 25.922 17.9052 26.1927 17.5606C26.2847 17.4419 26.4038 17.3233 26.55 17.1934C26.55 17.1934 26.55 17.1934 26.5554 17.1934L26.5716 17.2103C26.5716 17.2103 26.5716 17.2216 26.5716 17.2273C26.4417 17.3629 26.3551 17.4589 26.3172 17.521C26.1169 17.8431 25.9708 18.1538 25.8679 18.4476C25.8084 18.6227 25.7596 18.8487 25.7109 19.1369C25.6243 19.6792 25.6839 20.1708 25.8192 20.6905C25.895 20.9787 25.987 21.2329 26.1061 21.4476C26.3389 21.8657 26.5825 22.199 26.8369 22.4476C27.4053 22.9956 28.0549 23.3233 28.7965 23.4306Z" fill="white"/>
</g>
<circle cx="20" cy="20" r="19.5" stroke="black" stroke-opacity="0.05"/>
<defs>
<clipPath id="clip0_18553_55913">
<rect width="26" height="8" fill="white" transform="translate(7.03516 16.2104)"/>
</clipPath>
</defs>
</svg>
