<svg width="40" height="40" viewBox="0 0 40 40" fill="none" xmlns="http://www.w3.org/2000/svg">
<circle cx="20" cy="20" r="20" fill="#A50034"/>
<g clip-path="url(#clip0_17671_18643)">
<path d="M20 32C22.3713 31.9982 24.6888 31.2927 26.6595 29.9729C28.6301 28.6531 30.1656 26.7781 31.0716 24.585C31.9776 22.392 32.2136 19.9793 31.7496 17.6521C31.2856 15.3248 30.1426 13.1875 28.465 11.5103C26.7874 9.83316 24.6505 8.69144 22.3246 8.22952C19.9987 7.76761 17.5882 8.00623 15.3977 8.91523C13.2073 9.82424 11.3354 11.3628 10.0186 13.3364C8.70187 15.31 7.99939 17.63 8 20.0031C8.00082 21.5794 8.31185 23.1401 8.91535 24.596C9.51885 26.052 10.403 27.3748 11.5173 28.4888C12.6316 29.6028 13.9542 30.4862 15.4097 31.0887C16.8652 31.6912 18.425 32.0008 20 32Z" fill="#A50034"/>
<path d="M19.5156 14.7365V25.2636H22.8626V24.3191H20.4812V14.7365H19.5156Z" fill="white"/>
<path d="M16.169 17.6075C16.4542 17.6081 16.7331 17.524 16.9705 17.3658C17.2079 17.2076 17.393 16.9825 17.5024 16.7189C17.6119 16.4553 17.6406 16.1652 17.5852 15.8852C17.5297 15.6053 17.3924 15.3481 17.1907 15.1463C16.9891 14.9445 16.7321 14.8071 16.4524 14.7516C16.1726 14.696 15.8827 14.7248 15.6193 14.8343C15.356 14.9438 15.131 15.1291 14.9729 15.3667C14.8149 15.6043 14.7308 15.8834 14.7314 16.1688C14.7314 16.5504 14.8829 16.9163 15.1525 17.1861C15.4221 17.4559 15.7877 17.6075 16.169 17.6075Z" fill="white"/>
<path d="M20.4809 9.95752H20.0028C18.0165 9.95752 16.0748 10.5471 14.4234 11.6517C12.772 12.7563 11.485 14.3262 10.7253 16.1629C9.96565 17.9996 9.76735 20.0205 10.1555 21.97C10.5437 23.9195 11.5009 25.71 12.9061 27.115C14.3113 28.5199 16.1013 29.4763 18.0496 29.8629C19.998 30.2496 22.0172 30.0493 23.8517 29.2873C25.6863 28.5253 27.2538 27.2359 28.356 25.5822C29.4582 23.9284 30.0455 21.9847 30.0437 19.9969V19.5494H22.8716V20.4816H29.0812C29.0812 20.5034 29.0812 20.5997 29.0812 20.6245C28.9627 22.3703 28.3443 24.045 27.3 25.4484C26.2557 26.8518 24.8296 27.9246 23.1923 28.5384C21.5549 29.1522 19.7756 29.2812 18.0669 28.9098C16.3583 28.5385 14.7927 27.6825 13.5573 26.4443C12.2817 25.17 11.4129 23.5454 11.0609 21.7765C10.7088 20.0075 10.8894 18.1738 11.5796 16.5076C12.2699 14.8414 13.4389 13.4178 14.9384 12.4171C16.4379 11.4165 18.2005 10.8838 20.0028 10.8866C20.1084 10.8866 20.3629 10.8866 20.4809 10.8866V9.95752Z" fill="white"/>
</g>
<circle cx="20" cy="20" r="19.5" stroke="black" stroke-opacity="0.05"/>
<defs>
<clipPath id="clip0_17671_18643">
<rect width="24" height="24" fill="white" transform="translate(8 8)"/>
</clipPath>
</defs>
</svg>
