<svg width="40" height="40" viewBox="0 0 40 40" fill="none" xmlns="http://www.w3.org/2000/svg">
<circle cx="20" cy="20" r="20" fill="#F6F8FA"/>
<path d="M25.7243 13.7274L22.3664 10.3696C21.0577 9.06089 18.9359 9.06088 17.6273 10.3695L14.2694 13.7274C12.9607 15.0361 12.9607 17.1579 14.2694 18.4665L17.6273 21.8244C18.9359 23.1331 21.0577 23.1331 22.3664 21.8244L25.7243 18.4665C27.033 17.1579 27.0329 15.0361 25.7243 13.7274Z" fill="url(#paint0_linear_14382_21023)"/>
<path d="M21.1312 31.3052V28.3646C21.1312 28.3646 20.9543 26.4821 22.6599 24.826C24.3655 23.17 28.7887 18.6565 28.7887 18.6565C28.7887 18.6565 30.4943 17.418 30.9119 19.2439C31.3294 21.0698 30.2042 23.1859 28.7887 24.7163L24.3177 29.3643C24.3177 29.3643 22.8952 31.0699 21.1312 31.3052Z" fill="url(#paint1_linear_14382_21023)"/>
<path d="M18.8594 31.3657V28.4322C18.8594 28.4322 19.0363 26.5496 17.329 24.9024C15.6216 23.2552 11.2107 18.724 11.2107 18.724C11.2107 18.724 9.50337 17.4855 9.08759 19.3132C8.6718 21.1409 9.79531 23.2552 11.2107 24.7839L15.6818 29.4318C15.6818 29.4318 17.0936 31.1303 18.8594 31.3657Z" fill="url(#paint2_linear_14382_21023)"/>
<circle cx="20" cy="20" r="19.5" stroke="black" stroke-opacity="0.05"/>
<defs>
<linearGradient id="paint0_linear_14382_21023" x1="16.149" y1="12.1347" x2="23.8414" y2="19.8271" gradientUnits="userSpaceOnUse">
<stop stop-color="#F9C701"/>
<stop offset="0.218663" stop-color="#F29005"/>
<stop offset="0.530674" stop-color="#EE7107"/>
</linearGradient>
<linearGradient id="paint1_linear_14382_21023" x1="24.9404" y1="22.0247" x2="28.2371" y2="25.3214" gradientUnits="userSpaceOnUse">
<stop stop-color="#CC97C1"/>
<stop offset="0.338723" stop-color="#8B4E9E"/>
<stop offset="0.793739" stop-color="#601D86"/>
</linearGradient>
<linearGradient id="paint2_linear_14382_21023" x1="12.3029" y1="26.4206" x2="15.5996" y2="23.1238" gradientUnits="userSpaceOnUse">
<stop stop-color="#E3E512"/>
<stop offset="0.467882" stop-color="#94A622"/>
<stop offset="1" stop-color="#6C8834"/>
</linearGradient>
</defs>
</svg>
