<svg width="40" height="40" viewBox="0 0 40 40" fill="none" xmlns="http://www.w3.org/2000/svg">
<circle cx="20" cy="20" r="20" fill="#F6F8FA"/>
<path d="M13.4948 19.2941L13.4683 19.2634C13.4503 19.2523 13.4302 19.2575 13.4112 19.2575C13.0994 19.2571 12.7876 19.2573 12.4759 19.2573C12.425 19.2573 12.3995 19.2838 12.3993 19.3368C12.3993 20.9624 12.3993 22.5881 12.3993 24.2135C12.3993 24.2442 12.4068 24.2772 12.3801 24.3022L12.3818 24.301C12.3628 24.3161 12.3408 24.3078 12.3202 24.3083C12.1713 24.3118 12.0225 24.3026 11.8738 24.3135C11.8525 24.3121 11.8315 24.3095 11.8102 24.3095C11.3493 24.3097 10.8884 24.3104 10.4275 24.3111C10.3924 24.3111 10.3559 24.3147 10.3458 24.2675C10.3329 24.1413 10.3428 24.0147 10.3409 23.8883C10.3402 23.8461 10.3334 23.803 10.3465 23.761C10.3514 23.4959 10.3542 23.2307 10.347 22.9656C10.3554 22.9467 10.3516 22.9269 10.3516 22.9076C10.3516 22.1146 10.3516 21.3216 10.3516 20.5285C10.3516 20.5092 10.3552 20.4894 10.347 20.4705C10.3481 20.3283 10.35 20.1859 10.35 20.0437C10.35 19.9131 10.3477 19.7824 10.3465 19.6518C10.3371 19.6398 10.3404 19.6256 10.3404 19.6122C10.3404 19.3794 10.3404 19.1467 10.3404 18.9142C10.3404 18.9007 10.3374 18.8866 10.3465 18.8746C10.3465 18.8604 10.347 18.846 10.3472 18.8319C10.3605 18.796 10.3425 18.7571 10.358 18.7215C10.3582 18.7114 10.3587 18.7015 10.3589 18.6913C10.3694 18.6711 10.3568 18.6473 10.3692 18.6272C10.3697 18.6208 10.3701 18.6145 10.3704 18.6079C10.3818 18.5881 10.3671 18.5635 10.3816 18.5444C10.4069 18.3598 10.4663 18.187 10.5583 18.0254C10.6044 17.9445 10.6555 17.8674 10.7201 17.8C10.7341 17.787 10.7423 17.7684 10.7589 17.7578L10.7573 17.7592C10.7774 17.7368 10.8004 17.7172 10.8221 17.6965C10.9691 17.5585 11.1416 17.4635 11.328 17.3928C11.4906 17.331 11.6608 17.2991 11.8317 17.272C11.8591 17.2588 11.8897 17.2746 11.9169 17.2619C11.9354 17.2612 11.9536 17.2605 11.9721 17.26C11.9927 17.251 12.0145 17.2555 12.0356 17.2555C13.7017 17.2553 15.3678 17.2553 17.0339 17.2555C17.055 17.2555 17.0768 17.2513 17.0976 17.26C17.1234 17.2607 17.1491 17.2616 17.1746 17.2624C17.1948 17.2725 17.2182 17.2609 17.2381 17.272C17.4141 17.3053 17.5878 17.3458 17.7549 17.4137C17.8913 17.4694 18.0159 17.5446 18.1371 17.6269C18.1556 17.6368 18.1727 17.6488 18.1846 17.6665C18.1961 17.6769 18.2076 17.6873 18.2188 17.6974C18.2535 17.7184 18.2813 17.7465 18.3021 17.7814C18.3089 17.7965 18.3202 17.8071 18.334 17.8156C18.3504 17.829 18.3635 17.8448 18.3721 17.8641C18.3864 17.8832 18.4005 17.9026 18.4147 17.9217C18.4372 17.9358 18.4417 17.9618 18.4538 17.9825C18.4601 17.9936 18.4665 18.0047 18.4728 18.0158C18.521 18.0752 18.5472 18.145 18.5702 18.2167L18.5692 18.2155C18.5842 18.2329 18.587 18.2551 18.5931 18.2759L18.5919 18.2744C18.6575 18.4452 18.6919 18.6237 18.6935 18.8052C18.7094 20.5179 18.6968 22.2306 18.7012 23.9433C18.7015 24.0374 18.7087 24.1312 18.7066 24.2253C18.7059 24.2526 18.7085 24.2805 18.6839 24.3003C18.6661 24.3111 18.6462 24.3083 18.627 24.3083C17.9953 24.3085 17.3633 24.309 16.7315 24.3092C16.6927 24.3092 16.6711 24.2906 16.67 24.2505C16.6693 24.2251 16.669 24.1996 16.669 24.1741C16.6683 22.5709 16.6679 20.9678 16.6676 19.3646C16.6676 19.3252 16.67 19.2863 16.6306 19.262C16.6126 19.2509 16.5925 19.2563 16.5735 19.2561C16.2753 19.2516 15.9771 19.2646 15.6789 19.2625C15.5525 19.2615 15.5473 19.2693 15.5473 19.3943C15.5473 21.0072 15.5473 22.6204 15.5473 24.2333C15.5473 24.3182 15.556 24.3059 15.4715 24.3076C15.4465 24.3081 15.4207 24.3029 15.3961 24.3123C15.3828 24.3109 15.3692 24.3083 15.3559 24.3083C14.9027 24.3088 14.4498 24.3095 13.9966 24.3102C13.9852 24.3102 13.9734 24.3121 13.962 24.313C13.8176 24.3229 13.6734 24.3224 13.5289 24.3132C13.5067 24.3085 13.4964 24.296 13.4983 24.272C13.4999 24.2524 13.4983 24.2328 13.4983 24.2133C13.4985 23.1333 13.4987 22.0535 13.499 20.9735C13.499 20.9502 13.4964 20.9268 13.495 20.9035C13.5023 20.8886 13.4999 20.8726 13.4999 20.857C13.4999 20.3507 13.4999 19.8445 13.4999 19.3384C13.4999 19.3228 13.5025 19.3068 13.4952 19.2922L13.4948 19.2941Z" fill="#3D4957"/>
<path d="M29.4361 17.2623C29.4541 17.2616 29.4719 17.2609 29.4899 17.2602C29.5105 17.251 29.5323 17.2555 29.5534 17.2555C31.2595 17.2552 32.9657 17.2555 34.6716 17.2555C34.7237 17.2555 34.7498 17.2813 34.7498 17.3331C34.7498 17.9157 34.7498 18.4984 34.7498 19.0811C34.7498 19.1832 34.7411 19.1922 34.6405 19.1922C33.6265 19.1922 32.6127 19.1922 31.5987 19.1922C31.0996 19.1922 30.6004 19.1922 30.1013 19.1922C30.0725 19.1922 30.0426 19.1865 30.0157 19.2037C30.0143 19.2252 30.0114 19.2464 30.0114 19.2679C30.0117 20.2745 30.0121 21.2812 30.0131 22.2879C30.0131 22.3122 30.0037 22.339 30.0241 22.3607C30.0554 22.3761 30.0892 22.3709 30.1219 22.3711C31.6289 22.3711 33.1361 22.3711 34.643 22.3711C34.7694 22.3711 34.7729 22.3746 34.7729 22.5039C34.7729 23.0766 34.7729 23.6494 34.7729 24.2222C34.7729 24.2793 34.7456 24.3078 34.6908 24.3078C34.3612 24.3078 34.0319 24.3078 33.7023 24.3078C33.681 24.3078 33.6595 24.3038 33.6386 24.3125C33.6213 24.3111 33.604 24.3085 33.5867 24.3085C32.7861 24.3085 31.9856 24.3085 31.1848 24.3085C31.1675 24.3085 31.1502 24.3111 31.1329 24.3125C31.1104 24.3033 31.0868 24.3078 31.0636 24.3078C30.5599 24.3076 30.0561 24.3078 29.5524 24.3073C29.5314 24.3073 29.5096 24.3127 29.4895 24.3019L29.4476 24.3007C29.4237 24.2887 29.3958 24.3043 29.3724 24.2899C29.1508 24.2611 28.9382 24.2017 28.7374 24.1019C28.7074 24.0864 28.6758 24.0739 28.647 24.056C28.5747 24.0211 28.5106 23.9734 28.4469 23.9253C28.4265 23.9112 28.4109 23.8911 28.3893 23.8782C28.3851 23.8741 28.3809 23.8704 28.3767 23.8664C28.3423 23.839 28.3116 23.8076 28.284 23.7732C28.2763 23.765 28.2688 23.7567 28.261 23.7485C28.2484 23.7261 28.225 23.7121 28.2152 23.6876L28.2159 23.6886C28.2023 23.6744 28.1911 23.6584 28.1787 23.6431C28.1634 23.6192 28.148 23.5957 28.1328 23.5718C28.0403 23.4176 27.9816 23.2509 27.9511 23.074C27.923 22.9102 27.9144 22.7449 27.9146 22.5784C27.9163 21.55 27.9158 20.5219 27.9149 19.4935C27.9149 19.3426 27.9057 19.1917 27.9095 19.0408C27.9127 18.9118 27.913 18.7823 27.9282 18.6543C27.9514 18.4605 27.9928 18.2706 28.0862 18.0961C28.0897 18.0884 28.093 18.0808 28.0965 18.073C28.1119 18.0556 28.1162 18.0311 28.1332 18.0148L28.1325 18.0157C28.1447 17.9962 28.1529 17.9742 28.1667 17.9554C28.1901 17.9238 28.2135 17.8919 28.2369 17.8603C28.2515 17.8398 28.2706 17.8233 28.2845 17.8023C28.2959 17.7901 28.3074 17.7778 28.3186 17.7655C28.328 17.7526 28.3392 17.7415 28.3519 17.7316C28.372 17.7122 28.3921 17.6927 28.4123 17.6733C28.4279 17.6623 28.4427 17.65 28.4572 17.6375C28.5944 17.529 28.7449 17.4439 28.9083 17.3831C29.029 17.338 29.154 17.3085 29.2809 17.2864C29.3074 17.2817 29.3338 17.2767 29.3603 17.2718C29.3841 17.2597 29.4113 17.2732 29.4352 17.2619L29.4361 17.2623Z" fill="#3D4A58"/>
<path d="M6.49561 24.2791C6.49491 23.7476 6.49397 23.2158 6.49374 22.6843C6.4935 21.6642 6.4935 20.6439 6.4935 19.6237C6.4935 19.5216 6.48555 19.5136 6.38419 19.5134C6.02536 19.5127 5.66676 19.512 5.30793 19.5113C5.22788 19.5113 5.22764 19.5108 5.22764 19.428C5.22717 19.0906 5.22717 18.7531 5.22717 18.4157C5.22717 18.3332 5.23022 18.3303 5.31355 18.3306C6.20255 18.331 7.09179 18.3313 7.9808 18.3318C8.11211 18.3386 8.23336 18.3773 8.34314 18.4511C8.37498 18.4747 8.40447 18.5006 8.42483 18.5353C8.43958 18.5624 8.45409 18.5895 8.46884 18.6166C8.4878 18.6364 8.48593 18.664 8.49506 18.6874L8.49459 18.6866C8.51004 18.7232 8.51355 18.7612 8.51355 18.8008C8.51308 20.612 8.51331 22.4233 8.51285 24.2345C8.51285 24.2571 8.52151 24.2814 8.50489 24.3024L8.50699 24.3003C8.49248 24.3154 8.47376 24.3083 8.45714 24.3085C7.82608 24.309 7.19525 24.309 6.56419 24.3085C6.54874 24.3085 6.53283 24.3118 6.51832 24.3036C6.51083 24.2956 6.50333 24.2873 6.49584 24.2793L6.49561 24.2791Z" fill="#666666"/>
<path d="M6.5541 17.2966C6.49441 17.2105 6.42372 17.1327 6.36965 17.0416C6.10772 16.6009 6.16531 15.9874 6.50495 15.6044C6.67722 15.4103 6.88461 15.2764 7.13554 15.2115C7.14092 15.2101 7.1456 15.2059 7.15052 15.2031C7.17369 15.1983 7.19686 15.1939 7.22004 15.1891C7.239 15.1755 7.26287 15.1898 7.2823 15.1783C7.28885 15.1778 7.29541 15.1776 7.3022 15.1771C7.3455 15.162 7.39161 15.1802 7.43515 15.1665C7.44006 15.1665 7.44521 15.1665 7.45013 15.1665C7.49765 15.1809 7.54774 15.1606 7.59502 15.1781C7.59759 15.1807 7.60017 15.1807 7.60274 15.1783C7.62217 15.1898 7.64605 15.1755 7.66501 15.1891C7.79024 15.2224 7.915 15.2575 8.02876 15.3219C8.09125 15.3573 8.15071 15.3988 8.21133 15.4374C8.24176 15.4514 8.26189 15.4771 8.28366 15.5009C8.30566 15.523 8.3279 15.545 8.3499 15.5671C8.37331 15.5891 8.39812 15.6098 8.41263 15.6393C8.44634 15.6898 8.48028 15.7402 8.51399 15.7907C8.54676 15.8242 8.55987 15.8678 8.57648 15.91C8.57531 15.9187 8.57578 15.9267 8.58421 15.9319C8.60808 15.9588 8.60808 15.9958 8.62307 16.0265L8.62236 16.0256C8.6343 16.0534 8.63945 16.0829 8.646 16.1121C8.64483 16.1272 8.6432 16.1425 8.65303 16.1557C8.67854 16.1746 8.65466 16.2052 8.66965 16.2267L8.66894 16.2258C8.67807 16.3234 8.69399 16.4186 8.67994 16.5193C8.6659 16.6191 8.65256 16.7179 8.62166 16.8136L8.62236 16.8124C8.60902 16.8438 8.60457 16.8782 8.58678 16.9077L8.58749 16.9068C8.56806 16.9563 8.5484 17.0056 8.51586 17.0485L8.5168 17.0473C8.46881 17.1353 8.41263 17.2169 8.33726 17.2838C8.32696 17.2942 8.3169 17.3046 8.3066 17.3147C8.11536 17.5076 7.8848 17.6184 7.61702 17.6566C7.3036 17.7014 7.01639 17.6321 6.75142 17.463C6.68776 17.4225 6.63064 17.3715 6.57563 17.3192C6.56814 17.3116 6.56065 17.3043 6.5534 17.2968L6.5541 17.2966Z" fill="#666666"/>
<path d="M27.3724 22.2543C27.3719 22.2362 27.3712 22.218 27.3708 22.1999C27.36 22.1801 27.3729 22.1563 27.3605 22.1367C27.36 22.1301 27.3595 22.1232 27.3593 22.1166C27.3478 22.0973 27.3619 22.0732 27.3485 22.0541C27.3448 22.0475 27.3387 22.0412 27.3375 22.0339C27.2919 21.7771 27.1833 21.5483 27.0318 21.3387C27.0225 21.3194 27.0105 21.3019 26.9918 21.2904C26.9857 21.2831 26.9794 21.2755 26.9733 21.2682C26.9333 21.2128 26.8867 21.1642 26.8303 21.1253C26.827 21.1227 26.824 21.1201 26.8207 21.1175C26.7975 21.0949 26.7795 21.0661 26.7465 21.0553C26.7362 21.0482 26.7259 21.0411 26.7156 21.034C26.7013 21.0178 26.6868 21.002 26.6648 20.9963C26.6543 20.9897 26.644 20.9833 26.6334 20.9767C26.6196 20.9541 26.5946 20.9494 26.5737 20.9378L26.5749 20.9388C26.4855 20.8786 26.3865 20.8383 26.2865 20.8011C26.0897 20.7277 25.887 20.6759 25.6805 20.64C25.482 20.6056 25.2824 20.5787 25.0811 20.5634C25.0312 20.5596 24.9746 20.5695 24.9343 20.5245C24.928 20.4978 24.9467 20.5108 24.9568 20.5101C24.9809 20.4995 25.0073 20.5108 25.0314 20.5016C25.133 20.4943 25.2334 20.4799 25.3341 20.4643C25.6557 20.415 25.9698 20.3445 26.2531 20.1715C26.415 20.0724 26.5592 19.9533 26.6784 19.806C26.8527 19.5902 26.9335 19.3379 26.9518 19.0629C26.9595 18.9844 26.96 18.9061 26.9515 18.8276C26.9508 18.8059 26.9504 18.784 26.9497 18.7623C26.9396 18.742 26.9511 18.7182 26.9398 18.6981C26.9354 18.6793 26.9295 18.6606 26.9267 18.6415C26.8811 18.3293 26.75 18.0589 26.5281 17.8363C26.323 17.6306 26.0719 17.5026 25.798 17.4156C25.6087 17.3554 25.4134 17.3203 25.2187 17.284C25.1997 17.2724 25.1766 17.2856 25.1576 17.2741C25.1429 17.2734 25.1281 17.2727 25.1134 17.272C25.09 17.2604 25.0633 17.2743 25.0399 17.2623C25.0136 17.2616 24.9874 17.2609 24.9612 17.2604C24.9406 17.2512 24.9188 17.2557 24.8978 17.2557C23.208 17.2555 21.5185 17.2555 19.8287 17.2557C19.8076 17.2557 19.7859 17.2505 19.7655 17.2609C19.7611 17.2689 19.7566 17.2769 19.7522 17.2849C19.7447 17.3059 19.7484 17.3276 19.7484 17.3491C19.7484 19.6378 19.7484 21.9263 19.7484 24.2151C19.7484 24.2363 19.7435 24.2582 19.7533 24.2788C19.758 24.2898 19.7653 24.2983 19.7772 24.3019C19.8247 24.3181 19.8751 24.299 19.9228 24.313C19.9343 24.3118 19.9457 24.3097 19.9574 24.3097C21.2711 24.3094 22.5844 24.3092 23.8981 24.3092C23.9154 24.3092 23.9327 24.3118 23.95 24.3132C23.9706 24.3045 23.9922 24.3085 24.0135 24.3085C24.3086 24.3082 24.6038 24.3085 24.8987 24.308C24.9198 24.308 24.9415 24.3134 24.9617 24.3026C24.9837 24.2976 25.0054 24.2964 25.0277 24.3014C25.0672 24.2875 25.1096 24.3064 25.1492 24.2906C25.1595 24.2903 25.17 24.2898 25.1803 24.2896C25.2077 24.2769 25.2388 24.2931 25.266 24.2792C25.2763 24.2788 25.2866 24.2783 25.2969 24.2778C25.3205 24.2656 25.3481 24.2814 25.3713 24.267C25.3776 24.2667 25.3839 24.2663 25.3905 24.266C25.4102 24.2549 25.434 24.2686 25.4532 24.2554C25.4944 24.2578 25.5309 24.2368 25.5703 24.2314C25.7482 24.2064 25.9197 24.1566 26.0899 24.1007C26.3577 24.0128 26.6042 23.8845 26.8211 23.7017C26.8382 23.6902 26.8563 23.6796 26.8677 23.6614C26.9014 23.6275 26.9351 23.5935 26.9691 23.5595C26.9873 23.5482 26.9979 23.5301 27.0093 23.5126C27.1112 23.3806 27.1957 23.2386 27.257 23.0825C27.3099 22.9479 27.3335 22.8066 27.3616 22.6661C27.3733 22.6465 27.3607 22.6229 27.3715 22.6031C27.3719 22.5887 27.3724 22.5743 27.3729 22.5602C27.382 22.4581 27.3818 22.3562 27.3729 22.2541L27.3724 22.2543ZM24.7723 22.2697C24.7723 22.36 24.7714 22.3612 24.6799 22.3612C23.7536 22.3612 22.8276 22.3612 21.9014 22.3612C21.8092 22.3612 21.809 22.3607 21.809 22.2645C21.809 21.77 21.809 21.2757 21.809 20.7813C21.809 20.283 21.809 19.7847 21.809 19.2862C21.809 19.2039 21.8122 19.2006 21.8951 19.2006C22.8251 19.2006 23.7553 19.2006 24.6852 19.2006C24.7695 19.2006 24.7725 19.2039 24.7725 19.2914C24.7725 20.2842 24.7725 21.2767 24.7725 22.2694L24.7723 22.2697Z" fill="#3D4A57"/>
<circle cx="20" cy="20" r="19.5" stroke="black" stroke-opacity="0.05"/>
</svg>
