<svg width="40" height="40" viewBox="0 0 40 40" fill="none" xmlns="http://www.w3.org/2000/svg">
<circle cx="20" cy="20" r="20" fill="#06937C"/>
<path d="M26.623 16L26.6337 24.0673" stroke="#80590C" stroke-width="2"/>
<path d="M22.2911 24.0683L22.29 16.001" stroke="#155649" stroke-width="2"/>
<path d="M23.6268 18.6355L23.6162 21.5276C23.6162 21.5448 23.623 21.5612 23.6352 21.5734C23.6473 21.5855 23.6638 21.5923 23.6809 21.5923L24.3026 21.5945C24.5764 21.5955 24.8393 21.4783 25.0337 21.2686C25.2281 21.0589 25.338 20.7739 25.3392 20.4762L25.3413 19.6996C25.3419 19.5522 25.3158 19.4061 25.2644 19.2697C25.2131 19.1333 25.1375 19.0092 25.042 18.9046C24.9466 18.8 24.8331 18.7168 24.708 18.6599C24.583 18.603 24.4488 18.5734 24.3132 18.5729L23.6915 18.5708C23.6744 18.5708 23.6579 18.5776 23.6458 18.5898C23.6336 18.6019 23.6268 18.6184 23.6268 18.6355Z" stroke="#918C8A" stroke-width="2"/>
<path d="M29.0118 20.7434C29.021 20.7434 29.0299 20.7466 29.037 20.7524C29.0441 20.7582 29.0491 20.7663 29.051 20.7752L29.225 21.5529C29.2269 21.5619 29.2319 21.5699 29.239 21.5757C29.2462 21.5815 29.2551 21.5847 29.2643 21.5847L29.5868 21.5922C29.593 21.5923 29.5991 21.5911 29.6048 21.5885C29.6104 21.5859 29.6154 21.582 29.6193 21.5772C29.6232 21.5724 29.6259 21.5667 29.6273 21.5607C29.6286 21.5546 29.6286 21.5483 29.6271 21.5423L28.929 18.6078C28.9271 18.5988 28.9221 18.5907 28.915 18.5849C28.9078 18.5791 28.8989 18.576 28.8898 18.5759L28.4113 18.5812C28.4022 18.5812 28.3934 18.5842 28.3863 18.5898C28.3792 18.5954 28.3742 18.6032 28.372 18.612L27.6718 21.5359C27.6705 21.5418 27.6706 21.5479 27.672 21.5537C27.6734 21.5596 27.676 21.565 27.6798 21.5697C27.6836 21.5744 27.6883 21.5781 27.6937 21.5807C27.6991 21.5833 27.7051 21.5847 27.7111 21.5847L28.0325 21.589C28.0419 21.5892 28.051 21.5861 28.0584 21.5803C28.0658 21.5745 28.0709 21.5663 28.0728 21.5571L28.2426 20.7752C28.2446 20.7661 28.2497 20.7579 28.257 20.7521C28.2644 20.7463 28.2735 20.7432 28.2829 20.7434H29.0118Z" stroke="#EECD81" stroke-width="2"/>
<path d="M32.5235 18.6684C32.5235 18.6568 32.5212 18.6454 32.5168 18.6347C32.5124 18.624 32.5059 18.6143 32.4977 18.6061C32.4895 18.5979 32.4798 18.5915 32.4691 18.587C32.4585 18.5826 32.447 18.5803 32.4354 18.5803H32.2424C32.219 18.5803 32.1966 18.5896 32.1801 18.6061C32.1636 18.6226 32.1543 18.645 32.1543 18.6684V21.5032C32.1543 21.5265 32.1636 21.5489 32.1801 21.5655C32.1966 21.582 32.219 21.5912 32.2424 21.5912H32.4354C32.447 21.5912 32.4585 21.589 32.4691 21.5845C32.4798 21.5801 32.4895 21.5736 32.4977 21.5655C32.5059 21.5573 32.5124 21.5476 32.5168 21.5369C32.5212 21.5262 32.5235 21.5148 32.5235 21.5032V18.6684Z" stroke="#EECD81" stroke-width="2"/>
<path d="M7.88613 20.2479C7.88613 20.2333 7.89194 20.2192 7.90229 20.2089C7.91264 20.1985 7.92667 20.1927 7.9413 20.1927L8.73594 20.1895C8.74318 20.1895 8.75036 20.191 8.75705 20.1937C8.76374 20.1965 8.76983 20.2006 8.77495 20.2057C8.78007 20.2108 8.78413 20.2169 8.78691 20.2236C8.78968 20.2303 8.79111 20.2375 8.79111 20.2447L8.79641 21.5359C8.79641 21.5432 8.79787 21.5505 8.80071 21.5572C8.80355 21.564 8.80771 21.5701 8.81294 21.5753C8.81818 21.5804 8.82439 21.5844 8.8312 21.5871C8.83802 21.5899 8.84531 21.5912 8.85264 21.591L9.12212 21.5836C9.1362 21.5831 9.14954 21.5772 9.1594 21.5671C9.16926 21.557 9.1749 21.5436 9.17516 21.5295L9.19638 18.6353C9.19639 18.6208 9.19072 18.607 9.1806 18.5966C9.17048 18.5863 9.15672 18.5804 9.14228 18.5801L8.84521 18.5737C8.83788 18.5736 8.83059 18.5749 8.82378 18.5776C8.81696 18.5803 8.81075 18.5844 8.80552 18.5895C8.80028 18.5947 8.79612 18.6008 8.79328 18.6075C8.79045 18.6143 8.78898 18.6216 8.78899 18.6289L8.79005 19.7981C8.79005 19.8127 8.78423 19.8267 8.77389 19.8371C8.76354 19.8474 8.74951 19.8532 8.73488 19.8532L7.94024 19.85C7.92561 19.85 7.91158 19.8442 7.90123 19.8339C7.89088 19.8235 7.88507 19.8095 7.88507 19.7949L7.88719 18.6353C7.88719 18.6208 7.88153 18.607 7.87141 18.5966C7.86129 18.5863 7.84753 18.5804 7.83308 18.5801L7.54769 18.5769C7.54036 18.5768 7.53307 18.5781 7.52626 18.5808C7.51944 18.5835 7.51323 18.5876 7.508 18.5927C7.50276 18.5978 7.4986 18.604 7.49576 18.6107C7.49292 18.6175 7.49146 18.6248 7.49146 18.6321L7.48828 21.5359C7.48828 21.5505 7.49409 21.5645 7.50444 21.5749C7.51479 21.5852 7.52882 21.591 7.54345 21.591L7.8299 21.5879C7.83715 21.5879 7.84432 21.5864 7.85101 21.5837C7.85771 21.5809 7.86379 21.5768 7.86891 21.5717C7.87404 21.5666 7.8781 21.5605 7.88087 21.5538C7.88364 21.5471 7.88507 21.5399 7.88507 21.5327L7.88613 20.2479Z" stroke="#83C9BE" stroke-width="2"/>
<path d="M12.1214 19.7695C12.1183 19.777 12.113 19.7835 12.1062 19.788C12.0994 19.7925 12.0914 19.7949 12.0832 19.7949C12.0751 19.7949 12.0671 19.7925 12.0603 19.788C12.0535 19.7835 12.0482 19.777 12.045 19.7695L11.5729 18.6406C11.5653 18.6222 11.5523 18.6064 11.5355 18.5952C11.5187 18.5841 11.4989 18.5781 11.4785 18.578L11.2016 18.577C11.1556 18.577 11.1418 18.5982 11.1602 18.6406C11.3491 19.0912 11.5595 19.5767 11.7915 20.0973C11.858 20.2465 11.8898 20.4043 11.887 20.5705C11.882 20.8852 11.8817 21.1996 11.8859 21.5137C11.8866 21.5709 11.916 21.5985 11.974 21.5964L12.1946 21.589C12.247 21.5869 12.2731 21.5596 12.2731 21.5073C12.2753 21.1784 12.2767 20.8527 12.2774 20.5302C12.2781 20.3696 12.3142 20.2091 12.3856 20.0485C12.6013 19.5668 12.8043 19.094 12.9946 18.63C13.0094 18.594 12.9974 18.5759 12.9585 18.5759L12.6455 18.5802C12.6137 18.5802 12.5921 18.5947 12.5808 18.6237L12.1214 19.7695Z" stroke="#83C9BE" stroke-width="2"/>
<path d="M16.2989 20.8156C16.2947 21.4723 15.4046 21.4659 15.4003 20.7996C15.3954 20.0457 15.3947 19.3239 15.3982 18.6343C15.3983 18.6267 15.397 18.6192 15.3941 18.6122C15.3913 18.6052 15.3871 18.5988 15.3817 18.5934C15.3764 18.5881 15.37 18.5839 15.363 18.5811C15.356 18.5782 15.3485 18.5768 15.3409 18.577L15.0545 18.578C15.039 18.578 15.0241 18.5843 15.0132 18.5955C15.0023 18.6066 14.9961 18.6217 14.9961 18.6375C14.9989 19.2889 14.9989 19.9841 14.9961 20.7233C14.9908 21.9285 16.7074 21.9115 16.7042 20.7508C16.7021 19.9884 16.7031 19.2829 16.7074 18.6343C16.7074 18.5968 16.6886 18.5777 16.6512 18.577L16.353 18.5759C16.3177 18.5759 16.3003 18.5933 16.3011 18.6279C16.3039 19.3522 16.3032 20.0814 16.2989 20.8156Z" stroke="#83C9BE" stroke-width="2"/>
<path d="M19.4777 19.308C19.477 19.1418 19.5063 19.1365 19.5657 19.2921L20.4155 21.52C20.4332 21.5653 20.4665 21.5883 20.5153 21.589L20.8028 21.5911C20.8502 21.5911 20.8739 21.5678 20.8739 21.5211L20.8707 18.6088C20.8707 18.5883 20.8601 18.578 20.8389 18.578L20.5121 18.5759C20.4909 18.5759 20.4803 18.5869 20.4803 18.6088L20.4781 20.4654C20.4781 20.6416 20.4474 20.6472 20.3858 20.4824L19.6994 18.6353C19.6853 18.5979 19.6584 18.5791 19.6188 18.5791L19.1361 18.578C19.1007 18.578 19.083 18.5961 19.083 18.6322V21.554C19.083 21.5649 19.0874 21.5755 19.0951 21.5832C19.1029 21.591 19.1134 21.5953 19.1244 21.5953L19.4352 21.589C19.4474 21.5887 19.459 21.5837 19.4676 21.5749C19.4761 21.5662 19.4809 21.5545 19.4809 21.5423L19.4777 19.308Z" stroke="#83C9BE" stroke-width="2"/>
<path d="M24.0153 18.9683L24.0068 21.2005C24.0067 21.2082 24.0081 21.2157 24.0109 21.2228C24.0137 21.2299 24.0179 21.2363 24.0232 21.2417C24.0286 21.2472 24.0349 21.2515 24.042 21.2544C24.049 21.2574 24.0565 21.2589 24.0641 21.2589H24.271C24.4485 21.2597 24.6191 21.1797 24.7452 21.0367C24.8714 20.8937 24.9427 20.6992 24.9436 20.4961L24.9458 19.6813C24.9462 19.5807 24.9293 19.481 24.8961 19.3878C24.8629 19.2947 24.8139 19.21 24.752 19.1386C24.6902 19.0672 24.6166 19.0104 24.5355 18.9716C24.4544 18.9327 24.3674 18.9125 24.2795 18.9121H24.0726C24.0576 18.9121 24.0432 18.918 24.0325 18.9285C24.0218 18.939 24.0156 18.9533 24.0153 18.9683Z" stroke="#918C8A" stroke-width="2"/>
<path d="M28.6862 19.0205C28.6849 19.0123 28.6807 19.0049 28.6745 18.9995C28.6683 18.9941 28.6604 18.9911 28.6521 18.991C28.6439 18.9908 28.6359 18.9936 28.6295 18.9988C28.6231 19.004 28.6187 19.0113 28.6172 19.0194L28.3201 20.3657C28.319 20.3708 28.3191 20.3761 28.3203 20.3811C28.3215 20.3862 28.3238 20.391 28.327 20.395C28.3303 20.3991 28.3344 20.4024 28.3391 20.4046C28.3437 20.4069 28.3489 20.4081 28.3541 20.4082L28.9344 20.405C28.9396 20.4049 28.9448 20.4037 28.9494 20.4015C28.9541 20.3992 28.9582 20.3959 28.9615 20.3918C28.9647 20.3878 28.967 20.383 28.9682 20.378C28.9694 20.3729 28.9695 20.3676 28.9684 20.3625L28.6862 19.0205Z" stroke="#EECD81" stroke-width="2"/>
<path d="M26.6229 16L26.6335 24.0673L22.2911 24.0684L22.29 16.0011L26.6229 16ZM23.6268 18.6354L23.6162 21.5275C23.6162 21.5446 23.623 21.5611 23.6352 21.5732C23.6473 21.5854 23.6638 21.5922 23.6809 21.5922L24.3026 21.5943C24.5764 21.5954 24.8393 21.4781 25.0337 21.2684C25.2281 21.0587 25.338 20.7737 25.3392 20.4761L25.3413 19.6995C25.3419 19.552 25.3158 19.406 25.2644 19.2695C25.2131 19.1331 25.1375 19.0091 25.042 18.9044C24.9466 18.7998 24.8331 18.7167 24.708 18.6597C24.583 18.6028 24.4488 18.5733 24.3132 18.5728L23.6915 18.5706C23.6744 18.5706 23.6579 18.5775 23.6458 18.5896C23.6336 18.6017 23.6268 18.6182 23.6268 18.6354Z" fill="#231815"/>
<path d="M26.623 16L34.9439 16.0053C34.9807 16.0053 34.9991 16.0237 34.9991 16.0605L35.0002 24.01C35.0002 24.0454 34.9825 24.0631 34.9471 24.0631L26.6337 24.0673L26.623 16ZM29.0112 20.7434C29.0204 20.7435 29.0293 20.7466 29.0364 20.7524C29.0436 20.7582 29.0485 20.7663 29.0505 20.7753L29.2245 21.5529C29.2264 21.5619 29.2313 21.57 29.2385 21.5758C29.2456 21.5815 29.2545 21.5847 29.2637 21.5848L29.5862 21.5922C29.5924 21.5924 29.5986 21.5911 29.6042 21.5885C29.6099 21.5859 29.6148 21.5821 29.6187 21.5772C29.6226 21.5724 29.6254 21.5667 29.6267 21.5607C29.6281 21.5546 29.628 21.5483 29.6265 21.5423L28.9285 18.6078C28.9265 18.5988 28.9216 18.5907 28.9144 18.5849C28.9073 18.5792 28.8984 18.576 28.8892 18.5759L28.4107 18.5812C28.4017 18.5812 28.3929 18.5843 28.3858 18.5898C28.3786 18.5954 28.3736 18.6032 28.3715 18.612L27.6712 21.5359C27.67 21.5418 27.67 21.5479 27.6714 21.5537C27.6728 21.5596 27.6755 21.565 27.6792 21.5697C27.683 21.5744 27.6878 21.5782 27.6932 21.5808C27.6986 21.5834 27.7045 21.5847 27.7105 21.5848L28.032 21.589C28.0413 21.5892 28.0505 21.5861 28.0578 21.5803C28.0652 21.5745 28.0703 21.5663 28.0723 21.5572L28.242 20.7753C28.244 20.7661 28.2491 20.7579 28.2565 20.7521C28.2638 20.7463 28.273 20.7432 28.2823 20.7434H29.0112ZM32.5229 18.6682C32.5229 18.6567 32.5206 18.6452 32.5162 18.6345C32.5118 18.6239 32.5053 18.6142 32.4971 18.606C32.4889 18.5978 32.4792 18.5913 32.4685 18.5869C32.4579 18.5825 32.4464 18.5802 32.4348 18.5802H32.2417C32.2184 18.5802 32.196 18.5895 32.1795 18.606C32.163 18.6225 32.1537 18.6449 32.1537 18.6682V21.5031C32.1537 21.5264 32.163 21.5488 32.1795 21.5653C32.196 21.5818 32.2184 21.5911 32.2417 21.5911H32.4348C32.4464 21.5911 32.4579 21.5888 32.4685 21.5844C32.4792 21.58 32.4889 21.5735 32.4971 21.5653C32.5053 21.5571 32.5118 21.5474 32.5162 21.5368C32.5206 21.5261 32.5229 21.5146 32.5229 21.5031V18.6682Z" fill="#DC9A03"/>
<path d="M22.29 16.0012L22.2911 24.0686L5.05411 24.0643C5.01804 24.0643 5 24.0466 5 24.0113V16.0606C5 16.0239 5.01839 16.0055 5.05517 16.0055L22.29 16.0012ZM7.88574 20.2481C7.88574 20.2335 7.89155 20.2195 7.9019 20.2091C7.91224 20.1988 7.92627 20.193 7.94091 20.193L8.73554 20.1898C8.74279 20.1898 8.74996 20.1912 8.75666 20.194C8.76335 20.1968 8.76943 20.2008 8.77456 20.2059C8.77968 20.2111 8.78374 20.2171 8.78651 20.2238C8.78929 20.2305 8.79071 20.2377 8.79071 20.245L8.79602 21.5361C8.79602 21.5434 8.79748 21.5507 8.80032 21.5575C8.80316 21.5642 8.80731 21.5704 8.81255 21.5755C8.81779 21.5806 8.82399 21.5847 8.83081 21.5874C8.83763 21.5901 8.84491 21.5914 8.85225 21.5913L9.12172 21.5839C9.1358 21.5833 9.14914 21.5774 9.15901 21.5673C9.16887 21.5573 9.17451 21.5438 9.17477 21.5297L9.19599 18.6355C9.19599 18.6211 9.19033 18.6072 9.18021 18.5969C9.17009 18.5866 9.15633 18.5806 9.14188 18.5803L8.84482 18.574C8.83749 18.5738 8.8302 18.5752 8.82338 18.5779C8.81657 18.5806 8.81036 18.5846 8.80512 18.5898C8.79989 18.5949 8.79573 18.601 8.79289 18.6078C8.79005 18.6146 8.78859 18.6218 8.78859 18.6292L8.78965 19.7983C8.78965 19.8129 8.78384 19.827 8.77349 19.8373C8.76315 19.8477 8.74912 19.8535 8.73448 19.8535L7.93985 19.8503C7.92521 19.8503 7.91118 19.8445 7.90084 19.8341C7.89049 19.8238 7.88468 19.8097 7.88468 19.7951L7.8868 18.6355C7.8868 18.6211 7.88113 18.6072 7.87102 18.5969C7.8609 18.5866 7.84714 18.5806 7.83269 18.5803L7.5473 18.5772C7.53997 18.577 7.53268 18.5783 7.52586 18.5811C7.51905 18.5838 7.51284 18.5878 7.5076 18.5929C7.50237 18.5981 7.49821 18.6042 7.49537 18.611C7.49253 18.6177 7.49107 18.625 7.49107 18.6323L7.48789 21.5361C7.48789 21.5507 7.4937 21.5648 7.50405 21.5751C7.51439 21.5855 7.52842 21.5913 7.54306 21.5913L7.82951 21.5881C7.83675 21.5881 7.84393 21.5867 7.85062 21.5839C7.85731 21.5811 7.8634 21.5771 7.86852 21.5719C7.87364 21.5668 7.87771 21.5607 7.88048 21.554C7.88325 21.5473 7.88468 21.5402 7.88468 21.5329L7.88574 20.2481ZM12.121 19.7697C12.1178 19.7772 12.1125 19.7836 12.1057 19.7882C12.0989 19.7927 12.091 19.7951 12.0828 19.7951C12.0746 19.7951 12.0666 19.7927 12.0598 19.7882C12.053 19.7836 12.0477 19.7772 12.0446 19.7697L11.5725 18.6408C11.5649 18.6223 11.5519 18.6065 11.5351 18.5954C11.5183 18.5842 11.4984 18.5783 11.4781 18.5782L11.2012 18.5772C11.1552 18.5772 11.1414 18.5984 11.1598 18.6408C11.3486 19.0914 11.559 19.5769 11.791 20.0975C11.8575 20.2467 11.8893 20.4044 11.8865 20.5707C11.8816 20.8854 11.8812 21.1998 11.8855 21.5138C11.8862 21.5711 11.9155 21.5987 11.9735 21.5966L12.1942 21.5892C12.2465 21.587 12.2727 21.5598 12.2727 21.5075C12.2748 21.1786 12.2762 20.8529 12.2769 20.5303C12.2776 20.3698 12.3137 20.2092 12.3852 20.0487C12.6009 19.567 12.8039 19.0942 12.9941 18.6302C13.009 18.5941 12.997 18.5761 12.9581 18.5761L12.6451 18.5803C12.6133 18.5803 12.5917 18.5948 12.5804 18.6238L12.121 19.7697ZM16.2989 20.8157C16.2947 21.4725 15.4046 21.4661 15.4003 20.7998C15.3954 20.0459 15.3947 19.3241 15.3982 18.6345C15.3983 18.6269 15.397 18.6194 15.3941 18.6124C15.3913 18.6053 15.3871 18.599 15.3817 18.5936C15.3764 18.5883 15.37 18.5841 15.363 18.5812C15.356 18.5784 15.3485 18.577 15.3409 18.5772L15.0545 18.5782C15.039 18.5782 15.0241 18.5845 15.0132 18.5956C15.0023 18.6068 14.9961 18.6219 14.9961 18.6376C14.9989 19.2891 14.9989 19.9843 14.9961 20.7234C14.9908 21.9287 16.7074 21.9117 16.7042 20.751C16.7021 19.9886 16.7032 19.283 16.7074 18.6345C16.7074 18.597 16.6887 18.5779 16.6512 18.5772L16.353 18.5761C16.3177 18.5761 16.3004 18.5934 16.3011 18.6281C16.3039 19.3524 16.3032 20.0816 16.2989 20.8157ZM19.4775 19.3081C19.4768 19.1419 19.5061 19.1366 19.5655 19.2922L20.4154 21.5202C20.433 21.5655 20.4663 21.5884 20.5151 21.5892L20.8026 21.5913C20.85 21.5913 20.8737 21.5679 20.8737 21.5213L20.8705 18.609C20.8705 18.5885 20.8599 18.5782 20.8387 18.5782L20.5119 18.5761C20.4907 18.5761 20.4801 18.5871 20.4801 18.609L20.478 20.4656C20.478 20.6417 20.4472 20.6474 20.3856 20.4826L19.6992 18.6355C19.6851 18.598 19.6582 18.5793 19.6186 18.5793L19.1359 18.5782C19.1005 18.5782 19.0828 18.5963 19.0828 18.6323V21.5541C19.0828 21.5651 19.0872 21.5756 19.0949 21.5834C19.1027 21.5912 19.1132 21.5955 19.1242 21.5955L19.4351 21.5892C19.4472 21.5889 19.4589 21.5838 19.4674 21.5751C19.4759 21.5664 19.4807 21.5547 19.4807 21.5425L19.4775 19.3081Z" fill="white"/>
<path d="M7.88613 20.2479L7.88507 21.5327C7.88507 21.5399 7.88364 21.5471 7.88087 21.5538C7.8781 21.5605 7.87404 21.5666 7.86891 21.5717C7.86379 21.5768 7.85771 21.5809 7.85101 21.5837C7.84432 21.5864 7.83715 21.5879 7.8299 21.5879L7.54345 21.591C7.52882 21.591 7.51479 21.5852 7.50444 21.5749C7.49409 21.5645 7.48828 21.5505 7.48828 21.5359L7.49146 18.6321C7.49146 18.6248 7.49292 18.6175 7.49576 18.6107C7.4986 18.604 7.50276 18.5978 7.508 18.5927C7.51323 18.5876 7.51944 18.5835 7.52626 18.5808C7.53307 18.5781 7.54036 18.5768 7.54769 18.5769L7.83308 18.5801C7.84753 18.5804 7.86129 18.5863 7.87141 18.5966C7.88153 18.607 7.88719 18.6208 7.88719 18.6353L7.88507 19.7949C7.88507 19.8095 7.89088 19.8235 7.90123 19.8339C7.91158 19.8442 7.92561 19.85 7.94024 19.85L8.73488 19.8532C8.74951 19.8532 8.76354 19.8474 8.77389 19.8371C8.78423 19.8267 8.79005 19.8127 8.79005 19.7981L8.78899 18.6289C8.78898 18.6216 8.79045 18.6143 8.79328 18.6075C8.79612 18.6008 8.80028 18.5947 8.80552 18.5895C8.81075 18.5844 8.81696 18.5803 8.82378 18.5776C8.83059 18.5749 8.83788 18.5736 8.84521 18.5737L9.14228 18.5801C9.15672 18.5804 9.17048 18.5863 9.1806 18.5966C9.19072 18.607 9.19639 18.6208 9.19638 18.6353L9.17516 21.5295C9.1749 21.5436 9.16926 21.557 9.1594 21.5671C9.14954 21.5772 9.1362 21.5831 9.12212 21.5836L8.85264 21.591C8.84531 21.5912 8.83802 21.5899 8.8312 21.5871C8.82439 21.5844 8.81818 21.5804 8.81294 21.5753C8.80771 21.5701 8.80355 21.564 8.80071 21.5572C8.79787 21.5505 8.79641 21.5432 8.79641 21.5359L8.79111 20.2447C8.79111 20.2375 8.78968 20.2303 8.78691 20.2236C8.78413 20.2169 8.78007 20.2108 8.77495 20.2057C8.76983 20.2006 8.76374 20.1965 8.75705 20.1937C8.75036 20.191 8.74318 20.1895 8.73594 20.1895L7.9413 20.1927C7.92667 20.1927 7.91264 20.1985 7.90229 20.2089C7.89194 20.2192 7.88613 20.2333 7.88613 20.2479Z" fill="black"/>
<path d="M12.1214 19.7697L12.5808 18.6239C12.5921 18.5949 12.6137 18.5804 12.6455 18.5804L12.9585 18.5762C12.9974 18.5762 13.0094 18.5942 12.9946 18.6303C12.8043 19.0943 12.6013 19.5671 12.3856 20.0487C12.3142 20.2093 12.2781 20.3699 12.2774 20.5304C12.2767 20.8529 12.2753 21.1786 12.2731 21.5075C12.2731 21.5599 12.247 21.5871 12.1946 21.5892L11.974 21.5966C11.916 21.5988 11.8866 21.5712 11.8859 21.5139C11.8817 21.1999 11.882 20.8855 11.887 20.5707C11.8898 20.4045 11.858 20.2468 11.7915 20.0975C11.5595 19.577 11.3491 19.0914 11.1602 18.6409C11.1418 18.5985 11.1556 18.5772 11.2016 18.5772L11.4785 18.5783C11.4989 18.5783 11.5187 18.5843 11.5355 18.5955C11.5523 18.6066 11.5653 18.6224 11.5729 18.6409L12.045 19.7697C12.0482 19.7773 12.0535 19.7837 12.0603 19.7882C12.0671 19.7928 12.0751 19.7952 12.0832 19.7952C12.0914 19.7952 12.0994 19.7928 12.1062 19.7882C12.113 19.7837 12.1183 19.7773 12.1214 19.7697Z" fill="black"/>
<path d="M15.4003 20.7999C15.4046 21.4662 16.2947 21.4725 16.2989 20.8158C16.3032 20.0816 16.3039 19.3524 16.3011 18.6282C16.3003 18.5935 16.3177 18.5762 16.353 18.5762L16.6512 18.5772C16.6886 18.5779 16.7074 18.597 16.7074 18.6345C16.7031 19.2831 16.7021 19.9886 16.7042 20.7511C16.7074 21.9117 14.9908 21.9287 14.9961 20.7235C14.9989 19.9844 14.9989 19.2891 14.9961 18.6377C14.9961 18.6219 15.0023 18.6068 15.0132 18.5957C15.0241 18.5846 15.039 18.5783 15.0545 18.5783L15.3409 18.5772C15.3485 18.5771 15.356 18.5785 15.363 18.5813C15.37 18.5841 15.3764 18.5883 15.3817 18.5937C15.3871 18.599 15.3913 18.6054 15.3941 18.6124C15.397 18.6194 15.3983 18.627 15.3982 18.6345C15.3947 19.3241 15.3954 20.0459 15.4003 20.7999Z" fill="black"/>
<path d="M19.4777 19.3082L19.4809 21.5425C19.4809 21.5547 19.4761 21.5665 19.4676 21.5752C19.459 21.5839 19.4474 21.5889 19.4352 21.5892L19.1244 21.5956C19.1134 21.5956 19.1029 21.5912 19.0951 21.5835C19.0874 21.5757 19.083 21.5652 19.083 21.5542V18.6324C19.083 18.5963 19.1007 18.5783 19.1361 18.5783L19.6188 18.5794C19.6584 18.5794 19.6853 18.5981 19.6994 18.6356L20.3858 20.4827C20.4474 20.6475 20.4781 20.6418 20.4781 20.4657L20.4803 18.6091C20.4803 18.5871 20.4909 18.5762 20.5121 18.5762L20.8389 18.5783C20.8601 18.5783 20.8707 18.5885 20.8707 18.6091L20.8739 21.5213C20.8739 21.568 20.8502 21.5913 20.8028 21.5913L20.5153 21.5892C20.4665 21.5885 20.4332 21.5655 20.4155 21.5203L19.5657 19.2923C19.5063 19.1367 19.477 19.142 19.4777 19.3082Z" fill="black"/>
<path d="M23.6268 18.6355C23.6268 18.6184 23.6336 18.6019 23.6458 18.5898C23.6579 18.5776 23.6744 18.5708 23.6915 18.5708L24.3132 18.5729C24.4488 18.5734 24.583 18.603 24.708 18.6599C24.8331 18.7168 24.9466 18.8 25.042 18.9046C25.1375 19.0092 25.2131 19.1333 25.2644 19.2697C25.3158 19.4061 25.3419 19.5522 25.3413 19.6996L25.3392 20.4762C25.338 20.7739 25.2281 21.0589 25.0337 21.2686C24.8393 21.4783 24.5764 21.5955 24.3026 21.5945L23.6809 21.5923C23.6638 21.5923 23.6473 21.5855 23.6352 21.5734C23.623 21.5612 23.6162 21.5448 23.6162 21.5276L23.6268 18.6355ZM24.0151 18.9687L24.0066 21.2009C24.0065 21.2085 24.0079 21.216 24.0107 21.2231C24.0135 21.2302 24.0177 21.2366 24.023 21.2421C24.0284 21.2475 24.0347 21.2518 24.0418 21.2547C24.0488 21.2577 24.0563 21.2592 24.0639 21.2592H24.2708C24.4483 21.26 24.6189 21.1801 24.745 21.037C24.8712 20.894 24.9425 20.6995 24.9434 20.4964L24.9456 19.6816C24.946 19.581 24.9291 19.4813 24.8959 19.3882C24.8626 19.295 24.8137 19.2104 24.7518 19.1389C24.6899 19.0675 24.6164 19.0107 24.5353 18.9719C24.4542 18.933 24.3672 18.9128 24.2793 18.9124H24.0724C24.0574 18.9124 24.043 18.9183 24.0323 18.9288C24.0216 18.9393 24.0154 18.9536 24.0151 18.9687Z" fill="white"/>
<path d="M29.0108 20.7437H28.2819C28.2726 20.7434 28.2634 20.7465 28.256 20.7523C28.2487 20.7581 28.2436 20.7663 28.2416 20.7755L28.0719 21.5574C28.0699 21.5666 28.0648 21.5748 28.0574 21.5806C28.0501 21.5864 28.0409 21.5894 28.0315 21.5892L27.7101 21.585C27.7041 21.585 27.6982 21.5836 27.6928 21.581C27.6873 21.5784 27.6826 21.5746 27.6788 21.5699C27.6751 21.5653 27.6724 21.5598 27.671 21.554C27.6696 21.5481 27.6696 21.542 27.6708 21.5362L28.371 18.6122C28.3732 18.6035 28.3782 18.5956 28.3853 18.5901C28.3925 18.5845 28.4013 18.5815 28.4103 18.5815L28.8888 18.5762C28.898 18.5762 28.9069 18.5794 28.914 18.5852C28.9211 18.591 28.9261 18.599 28.928 18.608L29.6261 21.5425C29.6276 21.5486 29.6277 21.5549 29.6263 21.5609C29.6249 21.567 29.6222 21.5726 29.6183 21.5775C29.6144 21.5823 29.6094 21.5861 29.6038 21.5887C29.5982 21.5913 29.592 21.5926 29.5858 21.5924L29.2633 21.585C29.2541 21.5849 29.2452 21.5818 29.2381 21.576C29.2309 21.5702 29.226 21.5621 29.224 21.5531L29.05 20.7755C29.0481 20.7665 29.0432 20.7584 29.036 20.7527C29.0289 20.7469 29.02 20.7437 29.0108 20.7437ZM28.6851 19.0207C28.6838 19.0126 28.6797 19.0052 28.6734 18.9998C28.6672 18.9944 28.6593 18.9913 28.651 18.9912C28.6428 18.9911 28.6348 18.9939 28.6284 18.9991C28.622 19.0043 28.6177 19.0116 28.6161 19.0196L28.3191 20.366C28.3179 20.3711 28.318 20.3763 28.3192 20.3814C28.3204 20.3865 28.3227 20.3912 28.3259 20.3953C28.3292 20.3993 28.3333 20.4026 28.338 20.4049C28.3427 20.4072 28.3478 20.4084 28.353 20.4084L28.9333 20.4052C28.9385 20.4052 28.9437 20.404 28.9484 20.4017C28.953 20.3994 28.9572 20.3961 28.9604 20.3921C28.9637 20.388 28.966 20.3833 28.9672 20.3782C28.9683 20.3731 28.9684 20.3679 28.9673 20.3628L28.6851 19.0207Z" fill="white"/>
<path d="M32.4345 18.5803H32.2414C32.1927 18.5803 32.1533 18.6197 32.1533 18.6684V21.5032C32.1533 21.5518 32.1927 21.5912 32.2414 21.5912H32.4345C32.4831 21.5912 32.5225 21.5518 32.5225 21.5032V18.6684C32.5225 18.6197 32.4831 18.5803 32.4345 18.5803Z" fill="white"/>
<path d="M24.0153 18.9686C24.0156 18.9536 24.0218 18.9393 24.0325 18.9288C24.0432 18.9182 24.0576 18.9124 24.0726 18.9124H24.2795C24.3674 18.9127 24.4544 18.9329 24.5355 18.9718C24.6166 19.0107 24.6902 19.0674 24.752 19.1389C24.8139 19.2103 24.8629 19.295 24.8961 19.3881C24.9293 19.4812 24.9462 19.5809 24.9458 19.6815L24.9436 20.4963C24.9427 20.6994 24.8714 20.8939 24.7452 21.0369C24.6191 21.18 24.4485 21.2599 24.271 21.2591H24.0641C24.0565 21.2591 24.049 21.2576 24.042 21.2547C24.0349 21.2517 24.0286 21.2474 24.0232 21.242C24.0179 21.2366 24.0137 21.2301 24.0109 21.223C24.0081 21.216 24.0067 21.2084 24.0068 21.2008L24.0153 18.9686Z" fill="#231815"/>
<path d="M28.6852 19.0207L28.9674 20.3628C28.9685 20.3679 28.9684 20.3731 28.9673 20.3782C28.9661 20.3833 28.9638 20.388 28.9605 20.3921C28.9573 20.3961 28.9531 20.3994 28.9485 20.4017C28.9438 20.404 28.9386 20.4052 28.9334 20.4052L28.3531 20.4084C28.3479 20.4084 28.3428 20.4072 28.3381 20.4049C28.3334 20.4026 28.3293 20.3993 28.326 20.3953C28.3228 20.3912 28.3205 20.3865 28.3193 20.3814C28.3181 20.3763 28.3181 20.3711 28.3192 20.366L28.6162 19.0196C28.6178 19.0116 28.6221 19.0043 28.6285 18.9991C28.6349 18.9939 28.6429 18.9911 28.6511 18.9912C28.6594 18.9913 28.6673 18.9944 28.6735 18.9998C28.6798 19.0052 28.6839 19.0126 28.6852 19.0207Z" fill="#DC9A03"/>
<circle cx="20" cy="20" r="19.5" stroke="black" stroke-opacity="0.05"/>
</svg>
