<svg width="40" height="40" viewBox="0 0 40 40" fill="none" xmlns="http://www.w3.org/2000/svg">
<circle cx="20" cy="20" r="20" fill="#005FAF"/>
<g clip-path="url(#clip0_17752_43758)">
<path d="M14.3395 15.8887V15.9032C14.3395 15.9119 14.3349 15.9159 14.3262 15.9153C12.0316 15.8191 9.75557 15.8493 7.52185 16.0643C6.89899 16.1242 6.31342 16.1974 5.76513 16.284C5.55938 16.3172 5.35621 16.3648 5.15715 16.4265C5.13692 16.4326 5.1181 16.4427 5.10176 16.456C5.08541 16.4694 5.07187 16.4859 5.06191 16.5045C5.05195 16.5232 5.04576 16.5436 5.04371 16.5646C5.04165 16.5856 5.04376 16.6069 5.04992 16.6271C5.14884 16.9358 5.2495 17.2211 5.35189 17.4831C6.17916 19.5948 7.29778 21.5804 8.67522 23.3821C8.89257 23.6661 9.09716 23.9501 9.3545 24.1935C9.58633 24.412 10.1248 24.4572 10.4215 24.4613C13.8338 24.5082 17.2428 24.2287 20.6019 23.6267C20.7982 23.5912 20.9956 23.5492 21.1942 23.5009C21.237 23.4899 21.2739 23.4631 21.2976 23.4259C21.3213 23.3886 21.3299 23.3438 21.3218 23.3004C21.2682 23.038 21.1906 22.7811 21.0899 22.533C20.7248 21.6237 20.2518 20.7549 19.736 19.893C19.7353 19.8922 19.735 19.8912 19.735 19.8901C19.735 19.8891 19.7353 19.8881 19.736 19.8872C19.7412 19.8809 19.7459 19.8797 19.7488 19.8838C20.4658 20.9006 21.1084 21.9681 21.6712 23.0778C21.7951 23.3155 21.9021 23.5617 21.9912 23.8145C22.0572 24.0179 21.9222 24.0852 21.746 24.1315C21.2576 24.2583 20.8042 24.3678 20.3857 24.4601C17.4187 25.1096 14.4038 25.5166 11.3709 25.6773C10.4337 25.7271 9.62574 25.7648 8.79868 25.6645C8.57352 25.6319 8.36771 25.5192 8.21909 25.3469C7.89014 24.9872 7.59032 24.6019 7.32247 24.1947C6.01856 22.2097 5.01144 20.0449 4.33298 17.7688C4.20354 17.3376 4.094 16.9089 4.00436 16.4828C3.99373 16.4321 4.00271 16.3793 4.02949 16.3349C4.05628 16.2906 4.09886 16.2581 4.14867 16.244C4.31795 16.1951 4.49001 16.1563 4.66392 16.128C5.18284 16.0454 5.80957 15.9731 6.54409 15.9113C7.98996 15.79 9.25693 15.732 10.345 15.7374C11.6684 15.7436 12.6637 15.7693 13.331 15.8145C13.6579 15.8369 13.9941 15.8616 14.3395 15.8887Z" fill="white"/>
<path d="M9.53657 19.0056L11.2672 18.0985C11.3142 18.0738 11.3665 18.0607 11.4196 18.0603C11.9494 18.0564 12.4567 18.0537 12.9416 18.0522C12.9617 18.0521 12.9814 18.0564 12.9996 18.0649C13.0022 18.0661 13.0043 18.0681 13.0059 18.0705C13.0074 18.0729 13.0082 18.0757 13.0082 18.0785C13.0082 18.0814 13.0074 18.0842 13.0059 18.0866C13.0043 18.089 13.0022 18.0909 12.9996 18.0922L10.6812 19.2432C10.6779 19.2449 10.6749 19.2472 10.6724 19.25C10.67 19.2528 10.6681 19.2561 10.6669 19.2597C10.6657 19.2632 10.6653 19.267 10.6655 19.2707C10.6658 19.2745 10.6668 19.2781 10.6685 19.2815C10.6704 19.285 10.6729 19.2882 10.676 19.2907L12.2409 20.5444C12.2507 20.5527 12.2581 20.5635 12.2624 20.5757C12.2681 20.5925 12.2624 20.6012 12.2438 20.6012L10.5265 20.5965C10.4922 20.5965 10.4589 20.5844 10.4326 20.5624L9.30242 19.6066C9.2984 19.6027 9.29299 19.6004 9.28735 19.6004C9.28171 19.6004 9.27629 19.6027 9.27228 19.6066C9.27078 19.6085 9.26961 19.6107 9.2688 19.613L8.9309 20.5548C8.92626 20.5677 8.91776 20.5788 8.90656 20.5867C8.89536 20.5946 8.882 20.5988 8.86831 20.5989H7.50397C7.49438 20.5989 7.48518 20.5951 7.47835 20.5884C7.47152 20.5817 7.46761 20.5725 7.46745 20.5629C7.46658 20.5587 7.46658 20.5544 7.46745 20.5502C7.79395 19.6735 8.10403 18.8277 8.39769 18.0128C8.48694 17.7651 8.58122 17.5926 8.68052 17.4952C8.84281 17.3364 9.06595 17.2558 9.34994 17.2535L10.0924 17.2483C10.1013 17.2483 10.1098 17.2517 10.1162 17.2579C10.1226 17.2641 10.1263 17.2725 10.1266 17.2813C10.1271 17.2854 10.1271 17.2895 10.1266 17.2935L9.50585 18.9795C9.49252 19.0143 9.50295 19.0236 9.53657 19.0056Z" fill="white"/>
<path d="M23.2724 19.7569L23.9813 19.7517C24.0168 19.7517 24.029 19.7685 24.0178 19.8021L23.7506 20.5944C23.7479 20.6038 23.7421 20.6121 23.7341 20.6179C23.7261 20.6237 23.7164 20.6266 23.7065 20.6263C23.3785 20.6328 23.0659 20.6328 22.7688 20.6263C22.3005 20.6135 21.6334 20.3127 21.8495 19.7273C22.093 19.0677 22.3219 18.443 22.5364 17.8529C22.6865 17.4414 23.2168 17.2374 23.6231 17.2438C23.783 17.2461 23.9505 17.2461 24.1256 17.2438C24.1287 17.2437 24.1317 17.2443 24.1346 17.2454C24.1375 17.2465 24.1401 17.2482 24.1423 17.2504C24.1446 17.2525 24.1463 17.2551 24.1475 17.258C24.1487 17.2608 24.1493 17.2639 24.1493 17.267C24.1502 17.2696 24.1502 17.2725 24.1493 17.2751L23.8659 18.0413C23.8629 18.0495 23.8632 18.0585 23.8668 18.0664C23.8704 18.0743 23.8769 18.0805 23.885 18.0836C23.8889 18.0844 23.8928 18.0844 23.8966 18.0836H25.9936C25.9974 18.0836 26.0011 18.0851 26.0038 18.0879C26.0065 18.0906 26.0081 18.0943 26.0081 18.0981C26.0083 18.0998 26.0083 18.1016 26.0081 18.1033L25.7183 18.902C25.7141 18.9127 25.7069 18.9219 25.6975 18.9285C25.6881 18.9351 25.677 18.9388 25.6655 18.9391H23.5744C23.5637 18.9391 23.5532 18.9424 23.5444 18.9485C23.5356 18.9546 23.5289 18.9632 23.5251 18.9733L23.2481 19.7227C23.2456 19.7295 23.246 19.7371 23.249 19.7437C23.252 19.7503 23.2575 19.7554 23.2643 19.758C23.2671 19.758 23.2698 19.7576 23.2724 19.7569Z" fill="white"/>
<path d="M32.4906 18.997C32.4906 19.0155 32.5022 19.0202 32.519 19.0115C33.0951 18.7074 33.662 18.4093 34.2195 18.1172C34.2931 18.0788 34.3748 18.059 34.4577 18.0592C34.9628 18.0592 35.4651 18.0592 35.9647 18.0592C35.9762 18.0591 35.9873 18.0632 35.996 18.0708C35.9975 18.0723 35.9987 18.074 35.9995 18.076C36.0004 18.0779 36.0008 18.08 36.0008 18.0821C36.0008 18.0842 36.0004 18.0863 35.9995 18.0883C35.9987 18.0902 35.9975 18.092 35.996 18.0934C35.9947 18.0951 35.9931 18.0964 35.9913 18.0975L33.6689 19.2485C33.6657 19.2501 33.6629 19.2522 33.6606 19.2549C33.6583 19.2575 33.6565 19.2607 33.6554 19.264C33.6543 19.2674 33.654 19.2709 33.6543 19.2744C33.6546 19.2779 33.6556 19.2814 33.6573 19.2845C33.659 19.2878 33.6614 19.2908 33.6643 19.2932L35.2396 20.5549C35.2779 20.5856 35.2726 20.6007 35.2234 20.6007L33.5258 20.5978C33.4868 20.5983 33.4491 20.5845 33.4197 20.559L32.3011 19.6137C32.2808 19.5969 32.2663 19.6003 32.2571 19.6253L31.9186 20.5526C31.9136 20.5661 31.9046 20.5777 31.8928 20.5859C31.8809 20.5941 31.8669 20.5984 31.8525 20.5984H30.4858C30.4777 20.5984 30.47 20.5952 30.4641 20.5896C30.4583 20.584 30.4549 20.5763 30.4546 20.5682C30.454 20.5644 30.454 20.5605 30.4546 20.5566C30.8023 19.6185 31.1307 18.7257 31.4398 17.8784C31.4842 17.7386 31.5593 17.6105 31.6595 17.5034C31.8268 17.3407 32.0474 17.2575 32.3214 17.2536C32.5667 17.2505 32.8218 17.2486 33.0864 17.2478C33.1177 17.2478 33.1282 17.2623 33.1172 17.2919C32.9189 17.8367 32.7132 18.3929 32.4999 18.9605C32.494 18.9718 32.4908 18.9843 32.4906 18.997Z" fill="white"/>
<path d="M17.3536 18.9322C17.4776 19.6624 16.4877 20.4391 15.1413 20.6709C13.7949 20.9027 12.6056 20.4889 12.4822 19.7575C12.3581 19.0255 13.3481 18.2506 14.6927 18.0187C16.0373 17.7869 17.2278 18.199 17.3536 18.9322ZM16.0715 19.1454C16.0136 18.7942 15.4392 18.5989 14.7924 18.7084C14.145 18.8174 13.668 19.1906 13.7277 19.5419C13.7874 19.8931 14.36 20.0884 15.0068 19.9789C15.6542 19.8682 16.1312 19.4949 16.0715 19.1437V19.1454Z" fill="white"/>
<path d="M28.7707 18.714C28.2757 18.6253 27.3704 18.7575 27.0748 19.2693C26.8603 19.6414 27.215 19.8975 27.5303 19.9694C27.9659 20.0653 28.421 20.0143 28.8246 19.8245C28.8332 19.8202 28.8428 19.8185 28.8523 19.8195C28.8619 19.8206 28.871 19.8243 28.8785 19.8303L29.5201 20.305C29.5242 20.308 29.5271 20.3126 29.5279 20.3176C29.5288 20.3227 29.5276 20.328 29.5247 20.3322C29.5227 20.3355 29.5196 20.3379 29.516 20.3392C28.7317 20.6976 27.8579 20.8126 27.0076 20.6695C26.3804 20.5641 25.4798 20.0946 25.8322 19.2878C26.0397 18.8108 26.5711 18.4764 27.0644 18.2747C27.8972 17.9374 28.9422 17.8354 29.7884 18.1223C30.0941 18.2297 30.3597 18.4281 30.5494 18.6908C30.5555 18.6989 30.5582 18.7091 30.5569 18.7192C30.5556 18.7293 30.5504 18.7384 30.5424 18.7447C30.5404 18.7466 30.538 18.7482 30.5355 18.7494L28.5527 19.6941C28.5428 19.6989 28.5317 19.7009 28.5206 19.6999C28.5096 19.6989 28.4991 19.6949 28.4901 19.6883L27.8926 19.2507C27.8848 19.2449 27.8797 19.2363 27.8783 19.2268C27.8769 19.2172 27.8793 19.2075 27.885 19.1997C27.8884 19.1945 27.8932 19.1905 27.899 19.1881L28.7759 18.7749C28.839 18.7465 28.8361 18.7262 28.7707 18.714Z" fill="white"/>
<path d="M19.4155 19.2115C19.2555 19.6682 19.0868 20.1249 18.9205 20.5712C18.9179 20.5794 18.9127 20.5865 18.9057 20.5914C18.8987 20.5964 18.8902 20.5988 18.8817 20.5984H17.5591C17.5548 20.5985 17.5507 20.5976 17.5468 20.596C17.5429 20.5943 17.5394 20.5919 17.5365 20.5889C17.5336 20.5858 17.5313 20.5823 17.5298 20.5783C17.5283 20.5744 17.5276 20.5702 17.5278 20.566C17.5272 20.5625 17.5272 20.559 17.5278 20.5556C17.7484 19.9505 17.9646 19.3647 18.1763 18.7983C18.367 18.2894 19.1007 18.057 19.5946 18.0518C20.2062 18.0456 20.9116 18.0456 21.7106 18.0518C21.7161 18.0518 21.7215 18.054 21.7254 18.0579C21.7293 18.0618 21.7315 18.0671 21.7315 18.0726C21.7318 18.0749 21.7318 18.0773 21.7315 18.0796L21.4417 18.8835C21.4391 18.8906 21.4344 18.8967 21.4281 18.901C21.4219 18.9052 21.4145 18.9074 21.4069 18.9072C20.9259 18.9041 20.4562 18.9041 19.9979 18.9072C19.7203 18.9078 19.5233 18.9037 19.4155 19.2115Z" fill="white"/>
</g>
<circle cx="20" cy="20" r="19.5" stroke="black" stroke-opacity="0.05"/>
<defs>
<clipPath id="clip0_17752_43758">
<rect width="32" height="9.99261" fill="white" transform="translate(4 15.7368)"/>
</clipPath>
</defs>
</svg>
