<svg width="40" height="40" viewBox="0 0 40 40" fill="none" xmlns="http://www.w3.org/2000/svg">
<circle cx="20" cy="20" r="20" fill="#FF3C42"/>
<g clip-path="url(#clip0_19631_63582)">
<path d="M5 17.2871H6.14845V22.9444H5V17.2871ZM6.14845 20.0945L9.00899 17.2872H10.4551L7.58399 20.0945L10.6572 22.9443H9.16847L6.14845 20.0945ZM17.1439 20.1158C17.1439 21.8278 15.719 23.2314 14.0068 23.2314C12.2948 23.2314 10.8699 21.8277 10.8699 20.1158C10.8699 18.4037 12.2948 17 14.0068 17C15.719 17 17.1439 18.4038 17.1439 20.1158ZM16.0167 20.1158C16.0167 18.946 15.134 18.0102 14.0068 18.0102C12.8797 18.0102 11.9971 18.946 11.9971 20.1158C11.9971 21.2855 12.8797 22.2532 14.0068 22.2532C15.134 22.2532 16.0167 21.2855 16.0167 20.1158ZM22.7159 22.9443V18.3292H19.3557V22.9443H18.2072V17.2872H23.8644V22.9443H22.7159ZM24.7576 22.9443L27.884 17.1277L31.0103 22.9443H29.6917L27.884 19.3607L26.0763 22.9443H24.7576ZM34.9999 22.9443H33.8515V17.2871H34.9999V22.9443Z" fill="white"/>
</g>
<circle cx="20" cy="20" r="19.5" stroke="black" stroke-opacity="0.05"/>
<defs>
<clipPath id="clip0_19631_63582">
<rect width="30" height="6.23141" fill="white" transform="translate(5 17)"/>
</clipPath>
</defs>
</svg>
