<svg width="40" height="40" viewBox="0 0 40 40" fill="none" xmlns="http://www.w3.org/2000/svg">
<circle cx="20" cy="20" r="20" fill="#ED1C24"/>
<g clip-path="url(#clip0_14382_19107)">
<path d="M33.4554 17.0858L20.0718 26.8478C21.4959 27.7617 23.2166 28.2974 25.0686 28.2974C29.9831 28.2974 33.967 24.5371 33.967 19.8979C33.967 18.9114 33.7859 17.9648 33.4554 17.0851" fill="white"/>
<path d="M19.9844 16.5701L22.2575 15.1762L27.6633 11.8626C27.2082 11.7315 26.7381 11.6339 26.2551 11.5734L21.9813 14.8143L19.9836 16.3287L16.2615 18.6949L7.35547 24.3548C7.55546 24.6547 7.77356 24.9425 8.01054 25.2153L16.1921 19.3075L19.9836 16.5687" fill="white"/>
<path d="M33.2978 16.6991C33.1529 16.3672 32.9861 16.0452 32.7989 15.7361L23.3525 22.5257L19.9836 24.9468L18.6667 25.731L14.3816 28.2832C14.5529 28.2925 14.725 28.2982 14.8986 28.2982C15.448 28.2982 15.9861 28.2504 16.5083 28.16L18.9927 26.0338L19.9829 25.1868L23.0748 23.2159L33.297 16.6984" fill="white"/>
<path d="M19.9844 23.4652L23.7065 21.1004L32.6125 15.4426C32.4133 15.142 32.1944 14.855 31.9574 14.5822L23.7759 20.4878L19.9844 23.2245L17.7097 24.6191L12.3047 27.9342C12.759 28.0645 13.2299 28.1621 13.7122 28.2226L17.9867 24.9803L19.9851 23.4645" fill="white"/>
<path d="M19.9844 18.2932L22.9994 16.4177L29.2912 12.5043C28.9214 12.3163 28.5365 12.1517 28.138 12.0135L22.7745 15.9875L19.9844 18.056L16.1898 20.4557L8.24829 25.4788C8.50036 25.7459 8.76902 25.9981 9.05429 26.2324L16.248 21.0077L19.9844 18.2946" fill="white"/>
<path d="M19.9844 20.0176L23.5171 17.7988L30.6232 13.3363C30.3168 13.1048 29.9946 12.8925 29.6572 12.7009L23.3654 17.3045L19.9852 19.7776L16.4525 21.9978L9.3479 26.4618C9.65355 26.6933 9.97655 26.9063 10.3139 27.0979L16.605 22.4929L19.9852 20.0184" fill="white"/>
<path d="M19.9843 21.74L23.7781 19.341L31.7204 14.32C31.4691 14.0529 31.2004 13.8015 30.9151 13.5664L23.72 18.7875L19.9843 21.4985L16.9678 23.3762L10.6775 27.2931C11.0473 27.4811 11.4322 27.6464 11.8306 27.7839L17.1927 23.8085L19.9843 21.7393" fill="white"/>
<path d="M14.8992 11.5C9.98474 11.5 6 15.2602 6 19.8987C6 20.8859 6.18112 21.8326 6.51243 22.713L19.8945 12.9488C18.4704 12.0349 16.7512 11.5 14.8992 11.5Z" fill="white"/>
<path d="M19.9843 14.8457L21.2975 14.0643L25.5818 11.5142C25.412 11.505 25.2415 11.5 25.0694 11.5C24.523 11.5 23.9879 11.547 23.4687 11.636L20.9745 13.763L19.9843 14.6078L16.8939 16.5787L6.67017 23.099C6.81507 23.431 6.98185 23.7522 7.16977 24.0621L16.6177 17.2675L19.9851 14.8457" fill="white"/>
<path d="M24.4407 19.0091H27.2625V17.1721L24.326 17.1707C22.8325 17.1707 21.6167 18.3182 21.6167 19.7278C21.6167 21.1374 22.8325 22.2849 24.326 22.2849H27.2625V20.4486H24.4407C24.0204 20.4486 23.6785 20.1253 23.6785 19.7292C23.6785 19.3332 24.0204 19.0091 24.4407 19.0091Z" fill="#ED1C24"/>
<path d="M14.0194 17.1713C12.5259 17.1713 11.3101 18.3188 11.3101 19.7284C11.3101 21.138 12.5251 22.2856 14.0194 22.2856H16.9559V17.1727L14.0194 17.1713Z" fill="#ED1C24"/>
<path d="M14.0193 21.8853C12.759 21.8853 11.7341 20.918 11.7341 19.7277C11.7341 18.5375 12.7597 17.5702 14.0193 17.5702C14.0193 17.5702 16.3573 17.5709 16.5324 17.5709V18.6094C16.3581 18.6094 14.134 18.6094 14.134 18.6094C13.759 18.6094 13.4012 18.7811 13.1786 19.0682L13.0684 19.2092C13.0684 19.2092 16.3543 19.2092 16.5317 19.2099V20.2477C16.3536 20.2477 13.0677 20.2477 13.0677 20.2477L13.1771 20.3887C13.3997 20.6765 13.7574 20.8482 14.1333 20.8482C14.1333 20.8482 16.3573 20.8482 16.5317 20.8482V21.886C16.3566 21.886 14.0186 21.886 14.0186 21.886" fill="white"/>
<path d="M17.9889 20.9906C17.952 20.9906 17.9376 20.9849 17.9301 20.9785C17.9384 20.9707 17.9512 20.9607 17.9716 20.9479C17.9716 20.9479 18.6131 20.5411 18.8614 20.3837C19.044 20.4941 19.4138 20.7185 19.8643 20.9913H17.9889V20.9906ZM19.4244 18.4662C19.2304 18.5887 19.0002 18.7355 18.844 18.8345C18.6697 18.7291 18.4614 18.603 18.2357 18.4662H19.4244ZM21.9737 20.7285C22.0152 20.5233 22.022 20.3531 22.022 20.2719C22.022 20.2527 22.022 20.2384 22.022 20.2292C22.022 20.2292 22.0092 20.242 22.0084 20.2427C22.0182 20.1594 22.0227 20.0668 22.0227 19.9599V19.3701H20.6507V19.9271C20.407 19.7797 20.3285 19.732 20.1036 19.5959C20.3081 19.4663 20.5126 19.3359 20.5126 19.3359C20.9458 19.0617 21.1881 18.6735 21.1881 18.2789C21.1881 18.187 21.1752 18.0951 21.1481 18.0039C20.9933 17.4747 20.4734 17.1713 19.7225 17.1713H18.0463C17.3912 17.1713 16.863 17.4975 16.6667 18.0232C16.6305 18.1193 16.6041 18.2475 16.6041 18.3893C16.6041 18.7048 16.7362 19.093 17.1935 19.3708C17.1935 19.3708 17.3995 19.4955 17.6071 19.6216C17.4992 19.6899 17.3739 19.7704 17.3739 19.7704C17.3716 19.7719 17.2901 19.8246 17.2901 19.8246C16.8116 20.1216 16.5513 20.5305 16.5513 20.9735C16.5513 21.0668 16.5626 21.1608 16.586 21.2556C16.7354 21.8717 17.3007 22.2856 17.9905 22.2856H20.1821C20.7277 22.2856 21.0673 22.0968 21.3164 21.8682C21.5684 22.0206 22.2401 22.4266 22.2401 22.4266L22.9812 21.3368C22.9812 21.3368 22.2197 20.8759 21.9752 20.7278" fill="#ED1C24"/>
<path d="M18.8039 19.9379L17.739 20.6131H17.7398C17.5496 20.7293 17.4674 20.8867 17.5074 21.0555C17.5451 21.2101 17.6938 21.391 17.9881 21.391H20.1797C20.4031 21.391 20.5412 21.3561 20.7246 21.1581L20.7963 21.0804L18.8552 19.9058L18.8039 19.9379ZM17.9066 18.0667C17.6643 18.0667 17.5541 18.2141 17.5541 18.3502C17.5541 18.4713 17.6243 18.5767 17.7511 18.6479L17.7481 18.6465L18.8492 19.3125L20.0167 18.5717C20.1978 18.457 20.2589 18.3666 20.234 18.249C20.2159 18.165 20.1284 18.066 19.939 18.066H17.9066V18.0667ZM16.9964 21.1666C16.8712 20.6502 17.2749 20.3118 17.5262 20.1559C17.5277 20.1551 17.6092 20.1017 17.6092 20.1017L18.373 19.6131L17.4198 19.0347C16.8772 18.7049 17.0425 18.2106 17.0636 18.1557C17.1979 17.7946 17.5738 17.5709 18.0432 17.5709H19.7193C20.274 17.5709 20.6355 17.7618 20.7374 18.1101C20.831 18.4271 20.6574 18.7612 20.274 19.0041L19.3299 19.6038L21.0408 20.6395L21.0725 20.252V19.7698H21.5978V20.2378C21.5978 20.2428 21.5978 20.2534 21.5978 20.2691C21.5978 20.3553 21.5895 20.5875 21.5072 20.8446L21.4868 20.9087C21.4868 20.9087 22.2611 21.3774 22.3932 21.4572C22.3283 21.5534 22.1751 21.7792 22.1094 21.8746C21.9781 21.7948 21.237 21.3475 21.237 21.3475L21.1842 21.4095C20.9336 21.7037 20.6778 21.886 20.1789 21.886H17.9873C17.4991 21.886 17.0998 21.5968 16.9949 21.1666" fill="white"/>
<path d="M24.326 21.8853C23.0656 21.8853 22.0408 20.918 22.0408 19.7277C22.0408 18.5375 23.0664 17.5702 24.326 17.5702C24.326 17.5702 26.664 17.5709 26.8383 17.5709V18.6094C26.664 18.6094 24.4399 18.6094 24.4399 18.6094C23.7856 18.6094 23.2543 19.1116 23.2543 19.7292C23.2543 20.3467 23.7864 20.8482 24.4399 20.8482C24.4399 20.8482 26.664 20.8482 26.8383 20.8482V21.886C26.6632 21.886 24.326 21.886 24.326 21.886" fill="white"/>
</g>
<circle cx="20" cy="20" r="19.5" stroke="black" stroke-opacity="0.05"/>
<defs>
<clipPath id="clip0_14382_19107">
<rect width="28" height="17" fill="white" transform="translate(6 11.5)"/>
</clipPath>
</defs>
</svg>
