<svg width="40" height="40" viewBox="0 0 40 40" fill="none" xmlns="http://www.w3.org/2000/svg">
<circle cx="20" cy="20" r="20" fill="#F6F8FA"/>
<path d="M12.8933 16.8986C13.8212 16.5676 14.6538 16.0747 15.2811 15.352C15.2984 15.3332 15.2956 15.3058 15.2768 15.2884C15.2681 15.2812 15.258 15.2769 15.2464 15.2769L7.9471 15.2812C7.82713 15.2812 7.81412 15.3188 7.91096 15.3896L13.4238 19.4454C13.444 19.4599 13.4729 19.4555 13.4888 19.4353C13.4946 19.4266 13.4975 19.418 13.4975 19.4078C13.4743 18.4235 13.2575 17.6343 12.847 17.0403C12.8008 16.9723 12.8167 16.9261 12.8933 16.8986Z" stroke="#F69597" stroke-width="0.266778"/>
<path d="M24.3878 25.6275C24.3256 25.5971 24.2663 25.5624 24.2071 25.522C23.561 25.0696 22.9077 24.6157 22.2442 24.1589C22.2052 24.1315 22.1951 24.078 22.2225 24.039C22.2283 24.0303 22.2355 24.0231 22.2428 24.0173L24.5309 22.3204C24.5771 22.2871 24.6089 22.2973 24.6277 22.3507L26.1887 26.7853C26.2278 26.8966 26.1989 26.9182 26.102 26.8517C25.6482 26.5439 25.177 26.2215 24.687 25.8848C24.6104 25.8313 24.5453 25.7735 24.4918 25.7084C24.4629 25.6752 24.4282 25.6477 24.3878 25.6275Z" fill="white"/>
<path d="M27.0391 20.3906C26.9249 20.5236 26.7934 20.6335 26.6459 20.7216C26.5318 20.7896 26.4262 20.8691 26.3308 20.9572C26.2326 21.0483 26.1299 21.135 26.0215 21.2174C25.9695 21.2564 25.9493 21.3258 25.9709 21.388L29.3705 31.0144C29.4052 31.1112 29.3807 31.1286 29.2968 31.0693L19.1949 23.8654C19.1717 23.8495 19.1659 23.8163 19.1818 23.7931C19.1847 23.7888 19.1891 23.7845 19.1949 23.7801L21.7272 22.05C21.7605 22.0283 21.7879 22.0008 21.8125 21.969C21.8342 21.9401 21.8602 21.917 21.8905 21.8997C22.103 21.7811 22.3068 21.6525 22.5034 21.5152C22.9732 21.1856 23.4314 20.8734 23.8751 20.5785C23.9517 20.528 23.9748 20.46 23.9445 20.3733L20.8932 11.6864C20.8701 11.6213 20.8426 11.6185 20.8123 11.6806C20.3252 12.6346 19.8265 13.6478 19.3163 14.7203C18.543 16.3435 17.8824 17.7051 17.3346 18.8079C16.9646 19.5509 16.5989 20.2952 16.2376 21.0425C14.6389 24.3482 13.0389 27.6567 11.4388 30.9653L11.4027 30.9494C11.3911 30.945 11.3882 30.9364 11.3925 30.9262L20.8195 7.0235C20.8282 7.00327 20.8513 6.99315 20.8715 7.00038C20.8817 7.00471 20.8903 7.01194 20.8947 7.0235L25.254 19.3702C25.2844 19.4526 25.374 19.4959 25.4564 19.467C25.4694 19.4627 25.4809 19.4555 25.4925 19.4482L28.9326 17.085C28.989 17.046 28.989 17.0069 28.9326 16.9679L26.6156 15.3809C26.5303 15.3216 26.539 15.2912 26.6431 15.2912L33.7227 15.2753C33.8788 15.2753 33.8947 15.3216 33.7689 15.4141C31.6109 17.0142 29.4125 18.6576 27.1735 20.3458C27.1576 20.3588 27.1388 20.3661 27.1186 20.369C27.1056 20.3704 27.094 20.3719 27.0825 20.3719C27.0637 20.3719 27.0492 20.3776 27.0391 20.3906ZM24.4908 25.7083C24.5443 25.7733 24.6094 25.8312 24.686 25.8846C25.176 26.2214 25.6472 26.5438 26.101 26.8516C26.1979 26.9181 26.2268 26.8964 26.1877 26.7851L24.6267 22.3506C24.6079 22.2971 24.5761 22.287 24.5299 22.3203L22.2418 24.0172C22.2028 24.0446 22.1941 24.0996 22.2215 24.1386C22.2273 24.1473 22.2346 24.153 22.2432 24.1588C22.9067 24.6156 23.56 25.0694 24.2061 25.5218C24.2654 25.5623 24.3246 25.597 24.3868 25.6274C24.4272 25.6476 24.4619 25.6751 24.4908 25.7083Z" fill="#012557"/>
<path d="M15.2811 15.352C14.6538 16.0747 13.8212 16.5676 12.8933 16.8986C12.8167 16.9261 12.8008 16.9723 12.847 17.0403C13.2575 17.6343 13.4743 18.4235 13.4975 19.4078C13.4975 19.4339 13.4772 19.4541 13.4512 19.4541C13.4411 19.4541 13.431 19.4512 13.4238 19.4454L7.91096 15.3896C7.81412 15.3188 7.82713 15.2826 7.9471 15.2812L15.2464 15.2769C15.2724 15.2769 15.2927 15.2985 15.2927 15.3231C15.2927 15.3332 15.2883 15.3448 15.2811 15.352Z" fill="#EC2B2E"/>
<circle cx="20" cy="20" r="19.5" stroke="black" stroke-opacity="0.05"/>
</svg>
