<svg width="40" height="40" viewBox="0 0 40 40" fill="none" xmlns="http://www.w3.org/2000/svg">
<circle cx="20" cy="20" r="20" fill="#C81622"/>
<path d="M16.6593 20.8503C16.618 20.7979 16.618 20.7217 16.6593 20.6693L19.129 17.5594C19.1528 17.5293 19.1528 17.4975 19.129 17.4673L17.5026 15.4216C17.4677 15.3772 17.4216 15.3549 17.366 15.3549C16.9531 15.3517 16.637 15.4883 16.4178 15.7647C14.8184 17.7818 13.1936 19.8338 11.545 21.9224C11.4751 22.0098 11.4402 21.9987 11.4402 21.8859L11.4434 15.4216C11.4434 15.3787 11.4084 15.3438 11.3655 15.3438H8.07147C8.03177 15.3422 8 15.374 8 15.4137C8.00476 18.6554 8.00794 21.9002 8.00953 25.1498C8.01112 25.8772 8.38913 26.1679 9.10067 26.179C10.052 26.1949 10.9526 26.1917 11.8007 26.1711C12.12 26.1631 12.39 26.071 12.5853 25.8248C13.2095 25.0354 13.829 24.2508 14.4436 23.471C14.4484 23.4646 14.4547 23.4583 14.4611 23.4535C14.5103 23.4154 14.5818 23.4233 14.6215 23.4726C15.2139 24.2302 15.8159 24.9989 16.4305 25.7756C16.6465 26.0488 16.934 26.1853 17.293 26.1838C18.4953 26.179 19.6595 26.1774 20.7856 26.1806C20.7967 26.1806 20.8078 26.1758 20.8173 26.1695C20.8412 26.1504 20.8443 26.117 20.8269 26.0932L16.6593 20.8503Z" fill="white"/>
<path d="M28.3585 18.9349L29.6276 17.3196L31.0538 15.5201L33.9905 11.8067C33.9905 11.8067 34.0001 11.7892 34.0001 11.7797C34.0001 11.7559 33.981 11.7368 33.9572 11.7368H30.4344C30.0913 11.7368 29.815 11.8734 29.6053 12.1434C29.3035 12.5294 29.0049 12.9153 28.7095 13.2997L27.1959 15.2088L25.8649 16.8733L24.9231 18.0581C24.8723 18.1217 24.8214 18.1217 24.7706 18.0581C24.1703 17.3005 23.5524 16.5239 22.9187 15.7281C22.7138 15.4693 22.4311 15.3406 22.0737 15.3422C20.8794 15.3438 19.7104 15.3438 18.5652 15.3422C18.5557 15.3422 18.5478 15.3454 18.5398 15.3517C18.5239 15.3644 18.5224 15.3883 18.5367 15.4025L22.736 20.7026C22.7662 20.7407 22.7662 20.7947 22.736 20.8344L20.2456 23.9649C20.225 23.9903 20.225 24.0253 20.2456 24.0507L21.872 26.098C21.9086 26.1408 21.9546 26.1647 22.0102 26.1694C22.4057 26.1964 22.7233 26.0598 22.9632 25.7565C23.5604 24.9989 24.1639 24.2381 24.7738 23.471C24.7786 23.4646 24.7849 23.4598 24.7897 23.4551C24.8326 23.4217 24.8929 23.4313 24.9263 23.4726C25.56 24.2778 26.1762 25.0561 26.775 25.8073C26.9704 26.0503 27.2277 26.1742 27.5485 26.1774C28.6841 26.1853 29.8436 26.1853 31.0236 26.1742C31.1396 26.1742 31.1618 26.1266 31.0888 26.036L26.999 20.8773C26.9466 20.8122 26.9466 20.7201 26.9974 20.655L28.3585 18.9349Z" fill="white"/>
<circle cx="20" cy="20" r="19.5" stroke="black" stroke-opacity="0.05"/>
</svg>
