<svg width="40" height="40" viewBox="0 0 40 40" fill="none" xmlns="http://www.w3.org/2000/svg">
<circle cx="20" cy="20" r="20" fill="#182E6E"/>
<path d="M6.20513 17.1191H5V22.0856H6.20513V17.1191Z" fill="white"/>
<path d="M7.45374 19.4225H6.10229L8.18419 17.1191H9.53563L7.45374 19.4225Z" fill="white"/>
<path d="M7.45374 19.4185H6.10229L8.52643 22.0856H9.87823L7.45374 19.4185Z" fill="white"/>
<path d="M35.4178 22.0856H32.2026V17.1191H33.4078V21.1151L36.0001 21.1311L35.4178 22.0856Z" fill="white"/>
<path d="M15.1715 20.0795L15.7177 19.125H12.6763V20.0795H15.1715Z" fill="white"/>
<path d="M9.50531 19.125L8.63184 20.0795H11.589V19.125H9.50531Z" fill="#329E3A"/>
<path d="M12.6764 20.0796H11.5891V22.0856H11.6409H12.6764H15.2446L15.7908 21.1311H12.6764V20.0796Z" fill="white"/>
<path d="M12.6764 18.0733H15.2446L15.7908 17.1191H12.6764H12.5994H11.5891V19.1251H12.6764V18.0733Z" fill="white"/>
<path d="M16.5396 18.6476V22.0853H17.6265V19.0581L20.1582 22.0368L21.0481 20.5566V17.0703H19.9608V20.1198L17.4528 17.1166L16.5396 18.6476Z" fill="white"/>
<path d="M25.6576 19.7132C26.1888 20.297 26.2071 21.4145 25.2296 21.933C24.2022 22.4803 22.5297 22.249 21.7383 21.4328L22.2491 20.6355C22.5822 20.9063 22.9215 21.142 23.3342 21.1912C23.6696 21.2297 24.0083 21.2312 24.3441 21.1956C24.5762 21.1719 24.7863 21.0409 24.8268 20.7694C24.8586 20.5571 24.7148 20.3462 24.4255 20.2506C24.0873 20.1393 23.7301 20.0861 23.3885 19.9832C23.0773 19.8894 22.7603 19.7927 22.4727 19.6449C21.677 19.2356 21.5088 17.8987 22.4804 17.3463C22.9967 17.0544 23.5567 16.9815 24.1321 17.0037C24.6612 17.0238 25.1625 17.1588 25.6105 17.4558C25.6649 17.4923 25.7174 17.5288 25.782 17.5762L25.3249 18.353C24.8717 18.0067 24.3565 17.9068 23.8103 17.9429C23.6413 17.9549 23.4741 17.9859 23.3119 18.0352C23.1383 18.0877 23.023 18.2129 23.008 18.4048C22.993 18.5967 23.0868 18.7499 23.2601 18.8061C23.6447 18.9324 24.0354 19.0415 24.4277 19.1382C24.8739 19.248 25.3103 19.3666 25.6576 19.7132Z" fill="white"/>
<path d="M29.0197 17.0176C27.6289 17.0176 26.5022 18.1851 26.5022 19.6249C26.5022 21.0646 27.6296 22.2322 29.0197 22.2322C30.4099 22.2322 31.5373 21.0646 31.5373 19.6249C31.5373 18.1851 30.4106 17.0176 29.0197 17.0176ZM29.0197 21.2087C28.2331 21.2087 27.5968 20.4994 27.5968 19.6249C27.5968 18.7503 28.2349 18.041 29.0197 18.041C29.8045 18.041 30.4427 18.7499 30.4427 19.6249C30.4427 20.4998 29.8086 21.2076 29.0197 21.2076V21.2087Z" fill="white"/>
<circle cx="20" cy="20" r="19.5" stroke="black" stroke-opacity="0.05"/>
</svg>
