<svg width="40" height="40" viewBox="0 0 40 40" fill="none" xmlns="http://www.w3.org/2000/svg">
<circle cx="20" cy="20" r="20" fill="#0304FF"/>
<path d="M30.1379 11.6249C31.4162 11.3856 32.3585 10.6892 32.2425 10.0694C32.1265 9.44962 30.9962 9.14109 29.7179 9.38032C28.4396 9.61955 27.4974 10.3159 27.6133 10.9357C27.7293 11.5556 28.8596 11.8641 30.1379 11.6249Z" fill="white"/>
<path d="M24.4728 15.643C26.5178 15.2603 28.0243 14.1413 27.8376 13.1436C27.6509 12.146 25.8417 11.6474 23.7966 12.0302C21.7516 12.4129 20.2451 13.5319 20.4318 14.5296C20.6185 15.5272 22.4277 16.0258 24.4728 15.643Z" fill="white"/>
<path d="M20.8125 20.7847C23.0597 20.3642 24.715 19.1338 24.5097 18.0367C24.3044 16.9396 22.3162 16.3912 20.069 16.8118C17.8217 17.2323 16.1664 18.4626 16.3718 19.5597C16.5771 20.6568 18.5653 21.2053 20.8125 20.7847Z" fill="white"/>
<path d="M27.3329 25.7815C29.9392 25.2938 31.8591 23.8675 31.6211 22.5958C31.3832 21.3241 29.0774 20.6887 26.4711 21.1764C23.8648 21.6642 21.9449 23.0905 22.1829 24.3621C22.4209 25.6338 24.7266 26.2693 27.3329 25.7815Z" fill="white"/>
<path d="M23.3543 31.8058C25.9596 31.3183 27.8786 29.8921 27.6406 28.6205C27.4026 27.3488 25.0977 26.7132 22.4925 27.2007C19.8873 27.6883 17.9683 29.1144 18.2063 30.3861C18.4443 31.6577 20.7491 32.2934 23.3543 31.8058Z" fill="white"/>
<circle cx="20" cy="20" r="19.5" stroke="black" stroke-opacity="0.05"/>
</svg>
