<svg width="40" height="40" viewBox="0 0 40 40" fill="none" xmlns="http://www.w3.org/2000/svg">
<circle cx="20" cy="20" r="20" fill="#F6F8FA"/>
<path d="M16.8133 25.3925C16.6486 27.0787 17.452 29.3439 18.2184 30.9875C18.5023 31.5865 18.7862 32.194 19.0899 32.8043C19.141 32.9093 19.1154 32.9292 19.0161 32.8667C16.274 31.1676 14.074 28.721 12.6745 25.8145C11.2751 22.908 10.7344 19.6624 11.1161 16.4592C11.7605 10.9465 15.9276 6.83046 21.5624 6.73678C21.5674 6.73598 21.5726 6.73625 21.5776 6.73756C21.5825 6.73887 21.5872 6.74121 21.5912 6.74441C21.5952 6.74762 21.5985 6.75163 21.6009 6.75618C21.6032 6.76073 21.6046 6.76572 21.605 6.77084C21.6068 6.77512 21.6077 6.77971 21.6077 6.78436C21.6077 6.789 21.6067 6.79359 21.6048 6.79784C21.603 6.80209 21.6003 6.80592 21.5969 6.80909C21.5935 6.81226 21.5895 6.8147 21.5851 6.81626C16.7083 7.79276 13.4495 11.9912 14.3351 16.9645C14.8745 19.9848 16.9921 22.4744 20.0948 22.8122C23.2883 23.1556 26.2973 21.6057 28.7925 19.6612C28.8073 19.6468 28.8272 19.6388 28.8478 19.6388C28.8685 19.6388 28.8883 19.6468 28.9032 19.6612C28.9143 19.677 28.9202 19.6959 28.9202 19.7152C28.713 22.1621 27.4356 23.6893 25.4741 25.0462C25.4274 25.0763 25.3899 25.1188 25.3658 25.1689C25.3418 25.219 25.3321 25.2748 25.3378 25.3301C25.545 27.8849 27.0637 30.5163 28.8691 32.1429C29.0707 32.3274 29.0394 32.3898 28.7698 32.3359C25.9311 31.7483 23.2173 28.6854 21.8093 26.3037C21.7869 26.2615 21.7519 26.2274 21.7092 26.206C21.6664 26.1847 21.6181 26.1771 21.5709 26.1845C19.9946 26.3833 18.397 26.0528 17.029 25.2449C16.9013 25.191 16.8275 25.2279 16.8133 25.3925Z" fill="#003E6C"/>
<path d="M26.039 15.6274C26.0402 16.2011 25.9281 16.7694 25.7094 17.2997C25.4906 17.83 25.1694 18.312 24.7641 18.7181C24.3589 19.1241 23.8775 19.4463 23.3476 19.6661C22.8177 19.8859 22.2497 19.999 21.676 19.999C20.5198 19.9952 19.4124 19.5327 18.597 18.7131C17.7816 17.8934 17.3249 16.7836 17.3272 15.6274C17.3272 14.4727 17.7849 13.3651 18.6 12.5473C19.4152 11.7295 20.5213 11.2682 21.676 11.2644C22.8331 11.2644 23.9429 11.7241 24.7611 12.5423C25.5794 13.3605 26.039 14.4703 26.039 15.6274ZM23.2202 15.6274C23.2202 15.3237 23.1302 15.0268 22.9614 14.7742C22.7927 14.5217 22.5528 14.3249 22.2722 14.2086C21.9916 14.0924 21.6828 14.062 21.3849 14.1212C21.087 14.1805 20.8134 14.3267 20.5986 14.5415C20.3838 14.7563 20.2376 15.0299 20.1783 15.3278C20.119 15.6257 20.1495 15.9345 20.2657 16.2151C20.3819 16.4957 20.5788 16.7356 20.8313 16.9043C21.0839 17.0731 21.3808 17.1632 21.6845 17.1632C22.0899 17.1632 22.4788 17.0029 22.7664 16.7174C23.0541 16.4318 23.2172 16.0441 23.2202 15.6388V15.6274Z" fill="#D62F16"/>
<circle cx="20" cy="20" r="19.5" stroke="black" stroke-opacity="0.05"/>
</svg>
