<svg width="40" height="40" viewBox="0 0 40 40" fill="none" xmlns="http://www.w3.org/2000/svg">
<circle cx="20" cy="20" r="20" fill="#F6F8FA"/>
<path d="M5.00648 16.7368H15.1118L15.1018 17.3113L5.03123 17.3254C5.01061 17.3254 5 17.3148 5 17.2942L5.00648 16.7368Z" fill="#F6DB66"/>
<path d="M15.1118 16.7368H24.9856L24.9815 17.3254L15.1018 17.3113L15.1118 16.7368Z" fill="#FF8B00"/>
<path d="M24.9856 16.7368H34.9996L34.9954 17.2918C34.9954 17.3125 34.9848 17.3225 34.9642 17.3225L24.9814 17.3254L24.9856 16.7368Z" fill="black"/>
<path d="M28.054 22.57H27.6964C27.522 22.5458 27.3482 22.5246 27.1744 22.5051C26.6364 22.4462 26.1692 22.273 25.7732 21.9855C25.1569 21.5377 24.9142 20.7293 25.2 20.0111C25.4692 19.3329 26.1916 18.9069 26.8921 18.7584C27.4583 18.6388 28.0039 18.6347 28.5301 18.7461C28.8335 18.8103 29.157 18.9069 29.5011 19.0365C29.5724 19.0636 29.659 19.0854 29.7362 19.0784C29.7615 19.076 29.7757 19.0872 29.7786 19.112L29.877 19.9062C29.8794 19.9274 29.8723 19.9309 29.8564 19.9168C29.2324 19.3712 28.4924 19.1479 27.6363 19.2463C27.0117 19.3176 26.5097 19.6964 26.3289 20.3068C26.1975 20.7517 26.3766 21.2272 26.6971 21.5394C27.2339 22.0627 28.0523 22.0721 28.7681 21.8883C29.2866 21.7545 29.6973 21.5772 30.0007 21.355C30.0272 21.3356 30.0373 21.3421 30.0302 21.3745L29.8517 22.1846C29.8475 22.2035 29.8358 22.2141 29.8163 22.2164C29.7497 22.2235 29.6749 22.2276 29.6107 22.2459C29.0999 22.3926 28.5814 22.5004 28.054 22.57Z" fill="black"/>
<path d="M5.16154 19.0779C5.16154 18.9919 5.13443 18.8787 5.07551 18.8092C5.05312 18.7833 5.05902 18.7703 5.09378 18.7703L6.42006 18.7686C6.4289 18.7686 6.43597 18.7756 6.43656 18.7839C6.43656 18.7874 6.43597 18.7904 6.43361 18.7933C6.36939 18.8905 6.33699 18.9954 6.33699 19.1085C6.33699 20.1237 6.33699 21.1524 6.33699 22.1941C6.33699 22.2984 6.36821 22.3933 6.42949 22.4776C6.43538 22.4864 6.43302 22.4982 6.42478 22.5035C6.42183 22.5058 6.41829 22.5064 6.41417 22.507H5.08965C5.07846 22.5076 5.06962 22.4988 5.06962 22.487C5.06962 22.4829 5.0708 22.4787 5.07316 22.4758C5.13325 22.3904 5.1633 22.2914 5.1633 22.18C5.16507 20.9327 5.16448 19.8986 5.16154 19.0779Z" fill="black"/>
<path d="M8.57518 19.8925C8.57694 20.6508 8.57577 21.3985 8.57282 22.1344C8.57223 22.2747 8.62408 22.3907 8.72955 22.4827C8.7484 22.4997 8.74546 22.508 8.72012 22.508H7.62539C7.61125 22.508 7.59947 22.4962 7.59888 22.4821C7.59888 22.4768 7.60064 22.4715 7.60359 22.4667C7.66487 22.376 7.69551 22.2753 7.69551 22.1639C7.69786 21.0804 7.69727 20.0587 7.69433 19.0989C7.69433 18.9976 7.66605 18.8968 7.61066 18.796C7.60064 18.7784 7.60595 18.7695 7.62598 18.7695H8.97937C8.99645 18.7695 9.00293 18.7778 8.99822 18.7943C8.98055 18.8556 8.99469 18.9092 9.04005 18.9557C9.70938 19.6392 10.3769 20.3179 11.0421 20.992C11.0687 21.0191 11.0822 21.0138 11.0822 20.9755C11.084 20.3828 11.0834 19.7606 11.0804 19.1083C11.0804 19.0052 11.048 18.9009 10.985 18.7966C10.9738 18.7784 10.9791 18.7695 11.0003 18.7695H12.0184C12.0426 18.7695 12.0485 18.7795 12.0361 18.8002C11.9737 18.905 11.9424 19.0105 11.9424 19.1172C11.9413 20.2237 11.9413 21.3437 11.9424 22.4774C11.9424 22.4968 11.9324 22.5068 11.9124 22.5068H11.2289C11.2071 22.5074 11.1865 22.4986 11.1712 22.4827L8.61583 19.8755C8.58873 19.8478 8.57518 19.8531 8.57518 19.8925Z" fill="black"/>
<path d="M14.5038 18.7821C14.452 18.8717 14.4025 18.9665 14.4031 19.0732C14.4037 20.0436 14.4037 21.0664 14.4031 22.1423C14.4031 22.269 14.4237 22.3544 14.4862 22.464C14.5032 22.4929 14.4944 22.5076 14.4608 22.5076H13.1652C13.1345 22.5076 13.1269 22.4946 13.1422 22.4681C13.1858 22.3927 13.2253 22.3255 13.2253 22.2342C13.2265 21.1318 13.2259 20.0701 13.2241 19.049C13.2241 18.9642 13.1923 18.8787 13.141 18.811C13.121 18.7839 13.1281 18.7703 13.1616 18.7703L14.4962 18.7686C14.5009 18.7686 14.505 18.7721 14.505 18.7774C14.505 18.7792 14.505 18.7809 14.5038 18.7821Z" fill="black"/>
<path d="M31.7214 20.7888C31.7214 21.2519 31.7226 21.7321 31.7232 22.23C31.7232 22.3237 31.7508 22.402 31.8045 22.478C31.8239 22.5057 31.8168 22.5193 31.7833 22.5187L30.6001 22.5169C30.576 22.5169 30.5701 22.5063 30.5819 22.4851C30.6355 22.3891 30.6626 22.2924 30.6626 22.1964C30.6626 21.1435 30.6626 20.1036 30.6626 19.0766C30.6626 18.9776 30.6331 18.8851 30.5742 18.8062C30.5554 18.7814 30.5613 18.769 30.5925 18.769H31.7868C31.8098 18.769 31.8157 18.7796 31.8033 18.7991C31.7485 18.8881 31.7208 18.9794 31.7214 19.0737C31.7226 19.4425 31.7226 19.8119 31.7214 20.1813C31.7214 20.2067 31.7338 20.2196 31.7597 20.2196H33.8048C33.8319 20.2196 33.8454 20.2061 33.8454 20.179C33.8454 19.7937 33.8454 19.4248 33.8449 19.0731C33.8449 18.9835 33.8166 18.891 33.76 18.795C33.75 18.7779 33.7547 18.769 33.7747 18.769H34.9667C35.0026 18.769 35.0097 18.7838 34.9873 18.8126C34.9372 18.8769 34.9066 18.9635 34.9066 19.0454C34.906 20.1501 34.9054 21.2101 34.906 22.2247C34.906 22.3178 34.9349 22.4009 34.9855 22.4786C35.0026 22.5051 34.9956 22.5181 34.9643 22.5181H33.7741C33.7441 22.5181 33.7382 22.5057 33.7565 22.4822C33.816 22.4038 33.8466 22.3166 33.846 22.217C33.8449 21.7321 33.8449 21.2578 33.846 20.7941C33.846 20.767 33.8325 20.7535 33.8054 20.7535H31.7561C31.7332 20.7535 31.7214 20.7652 31.7214 20.7888Z" fill="black"/>
<path d="M17.0303 19.3016H15.5715C15.4866 19.3016 15.41 19.3287 15.3411 19.3835C15.3258 19.3958 15.3181 19.3917 15.3181 19.3717V18.7972C15.3181 18.779 15.3275 18.7695 15.3464 18.7695H19.9557C19.9757 18.7695 19.9857 18.7795 19.9857 18.7996L19.9869 19.3629C19.9869 19.3858 19.9775 19.39 19.9592 19.3764C19.895 19.3281 19.8219 19.3039 19.7406 19.3033C19.2769 19.3004 18.7879 19.3004 18.2741 19.3022C18.2523 19.3022 18.2417 19.3128 18.2417 19.3346C18.2388 20.3268 18.2394 21.2901 18.2435 22.2252C18.2441 22.3124 18.2759 22.3943 18.3248 22.4656C18.3436 22.4933 18.3366 22.5068 18.303 22.5068H16.9914C16.9797 22.5074 16.9696 22.498 16.969 22.4862C16.969 22.4815 16.9702 22.4774 16.9732 22.4732C17.0362 22.3807 17.068 22.2823 17.068 22.178V19.3387C17.068 19.3139 17.0557 19.3016 17.0303 19.3016Z" fill="black"/>
<path d="M21.9748 19.3399V20.2867C21.9742 20.2985 21.9843 20.3079 21.996 20.3079C22.7325 20.3079 23.436 20.3079 24.1071 20.3073C24.1873 20.3073 24.278 20.2855 24.3304 20.2213C24.3357 20.2142 24.3458 20.2137 24.3528 20.219C24.3564 20.2219 24.3587 20.2266 24.3587 20.2313V20.8753C24.3593 20.9101 24.3463 20.9166 24.3198 20.8936C24.2674 20.8476 24.1932 20.8182 24.1225 20.8182H21.9996C21.9854 20.8182 21.9742 20.8294 21.9742 20.8435L21.9748 21.95C21.9748 21.9583 21.9819 21.9653 21.9907 21.9653C22.7832 21.9665 23.6104 21.9665 24.4718 21.9653C24.5396 21.9653 24.6021 21.9424 24.6604 21.8958C24.6763 21.8834 24.6845 21.887 24.6845 21.9076L24.6828 22.472C24.6828 22.495 24.6716 22.5068 24.6486 22.5068H20.7381C20.7069 22.5068 20.6998 22.4938 20.7181 22.4685C20.7693 22.3943 20.81 22.2953 20.81 22.2046C20.81 21.2277 20.8106 20.1919 20.8112 19.0977C20.8112 18.9952 20.7758 18.8921 20.7163 18.809C20.6974 18.7825 20.7039 18.7695 20.7363 18.7695H24.5213C24.5414 18.7695 24.5514 18.7795 24.5514 18.799V19.3723C24.5514 19.39 24.5443 19.3935 24.5296 19.3829C24.4559 19.3281 24.367 19.3004 24.2639 19.3004C23.5009 19.3022 22.7508 19.3022 22.0137 19.3004C21.9878 19.3004 21.9748 19.3134 21.9748 19.3399Z" fill="black"/>
<circle cx="20" cy="20" r="19.5" stroke="black" stroke-opacity="0.05"/>
</svg>
