<svg width="40" height="40" viewBox="0 0 40 40" fill="none" xmlns="http://www.w3.org/2000/svg">
<path d="M40 20.1048C40 31.0927 31.0457 40.0001 20 40.0001C8.9543 40.0001 0 31.0927 0 20.1048C0 9.11691 8.9543 0.209473 20 0.209473C31.0457 0.209473 40 9.11691 40 20.1048Z" fill="#004B96"/>
<path d="M35.8263 18.4033C35.1421 15.3656 32.4212 13.2251 29.3455 13.1449C28.1303 13.1039 26.9268 13.3931 25.8644 13.9813C25.0341 14.4361 24.3079 15.0576 23.7318 15.8063C23.1558 16.5551 22.7424 17.4147 22.5179 18.3308C22.2934 19.2468 22.2627 20.1992 22.4278 21.1277C22.5928 22.0562 22.95 22.9404 23.4767 23.7243C24.1456 24.7244 25.0708 25.5287 26.1567 26.0542C27.1877 26.5609 28.3332 26.7927 29.4813 26.727C32.3081 26.5907 34.6945 24.7991 35.6346 22.157C35.6355 22.1521 35.6355 22.147 35.6346 22.1421C35.6346 22.1361 35.6334 22.1301 35.6311 22.1246C35.6288 22.119 35.6254 22.114 35.6211 22.1097C35.6168 22.1054 35.6117 22.1021 35.6061 22.0997C35.6005 22.0974 35.5945 22.0963 35.5885 22.0963H34.8939H34.0493C34.039 22.0964 34.0288 22.094 34.0197 22.0891C34.0106 22.0842 34.0029 22.0771 33.9974 22.0685L33.8674 21.8668L33.3145 20.8689C33.3119 20.8638 33.3078 20.8595 33.3028 20.8566C33.2955 20.8527 33.2869 20.8518 33.2789 20.8541C33.2708 20.8564 33.264 20.8617 33.2599 20.8689L32.5739 22.0381C32.562 22.06 32.5442 22.0782 32.5225 22.0906C32.5008 22.103 32.4761 22.1093 32.4511 22.1085H30.9567C30.9499 22.1085 30.9432 22.1065 30.9376 22.1027C30.9319 22.0989 30.9275 22.0935 30.9249 22.0872C30.9217 22.0794 30.9205 22.0709 30.9215 22.0625C30.9226 22.0542 30.9257 22.0462 30.9308 22.0394C31.4037 21.35 31.9073 20.6222 32.4413 19.8562C32.4557 19.8356 32.4634 19.8111 32.4634 19.786C32.4634 19.761 32.4557 19.7365 32.4413 19.7159L31.1802 17.8468C31.1756 17.8397 31.1732 17.8314 31.1731 17.8229C31.1731 17.8117 31.1775 17.8011 31.1855 17.7932C31.1934 17.7853 31.2041 17.7809 31.2153 17.7809L32.7785 17.7848C32.805 17.7849 32.831 17.7921 32.8538 17.8055C32.8766 17.8189 32.8955 17.838 32.9085 17.861L33.4445 18.8014C33.4475 18.806 33.4515 18.81 33.4562 18.813C33.4633 18.8168 33.4715 18.8177 33.4793 18.8155C33.487 18.8134 33.4937 18.8083 33.4977 18.8014L34.0825 17.7751L35.3169 17.7886H35.5482C35.5566 17.7882 35.5649 17.7901 35.5722 17.7941C35.5795 17.7981 35.5856 17.804 35.5898 17.8113C35.5962 17.8186 35.6002 17.8278 35.6013 17.8375C35.6023 17.8472 35.6003 17.857 35.5956 17.8655C35.1408 18.5549 34.7142 19.1993 34.3157 19.7986C34.2982 19.8254 34.2889 19.8566 34.2889 19.8885C34.2889 19.9204 34.2982 19.9516 34.3157 19.9783L35.6346 21.9444C35.6403 21.9527 35.6489 21.9586 35.6587 21.9612C35.6639 21.9627 35.6694 21.9633 35.6749 21.9627C35.6803 21.9621 35.6856 21.9604 35.6904 21.9578C35.6951 21.9551 35.6994 21.9515 35.7027 21.9472C35.7061 21.9429 35.7086 21.938 35.71 21.9327C36.0516 20.7855 36.0916 19.5703 35.8263 18.4033ZM23.5124 22.0433V17.8423C23.5124 17.8298 23.5174 17.8178 23.5263 17.8089C23.5352 17.8001 23.5473 17.7951 23.5599 17.7951L24.6332 17.7867L25.2179 17.7802C25.2457 17.7797 25.273 17.7866 25.2972 17.8002C25.3213 17.8139 25.3413 17.8338 25.355 17.8578L26.7291 20.2084C26.7811 20.2976 26.8071 20.2905 26.8071 20.1877L26.8129 17.8138C26.8129 17.8051 26.8164 17.7967 26.8226 17.7905C26.8288 17.7844 26.8373 17.7809 26.8461 17.7809H28.0682C28.0887 17.7809 28.1083 17.789 28.1228 17.8034C28.1373 17.8178 28.1455 17.8374 28.1455 17.8578C28.1455 19.2409 28.1455 20.6365 28.1455 22.0445C28.1455 22.0552 28.1436 22.0657 28.1396 22.0756C28.1359 22.0869 28.1285 22.0966 28.1187 22.1033C28.1088 22.1099 28.097 22.1131 28.085 22.1124H26.4725C26.4433 22.1123 26.4147 22.1048 26.3893 22.0905C26.364 22.0762 26.3427 22.0557 26.3276 22.031L24.906 19.7043C24.8677 19.6396 24.8482 19.6461 24.8482 19.7204V22.0471C24.8502 22.059 24.8492 22.0712 24.8453 22.0826C24.8413 22.0939 24.8346 22.1042 24.8257 22.1123C24.8168 22.1205 24.806 22.1263 24.7943 22.1292C24.7826 22.1322 24.7703 22.1322 24.7586 22.1292L24.5636 22.1118L23.5689 22.0995C23.554 22.0993 23.5397 22.0933 23.5292 22.0828C23.5186 22.0723 23.5126 22.0581 23.5124 22.0433ZM29.0999 22.1118C29.0839 22.1118 29.0685 22.1054 29.0572 22.0942C29.0458 22.0829 29.0395 22.0676 29.0395 22.0517V17.8403C29.0395 17.8324 29.041 17.8246 29.0441 17.8173C29.0471 17.81 29.0515 17.8034 29.0572 17.7978C29.0628 17.7923 29.0694 17.7878 29.0768 17.7848C29.0841 17.7818 29.0919 17.7802 29.0999 17.7802H30.5136C30.5216 17.7801 30.5295 17.7816 30.5369 17.7846C30.5442 17.7876 30.5509 17.792 30.5566 17.7976C30.5622 17.8032 30.5666 17.8099 30.5696 17.8172C30.5726 17.8246 30.5742 17.8324 30.5741 17.8403V22.0517C30.5741 22.0676 30.5677 22.0829 30.5564 22.0942C30.545 22.1054 30.5297 22.1118 30.5136 22.1118H29.0999Z" fill="white"/>
<path d="M6.45238 20.975C6.55569 20.827 6.46213 20.6667 6.31075 20.6027C6.24008 20.5728 6.16678 20.5494 6.0918 20.5329C5.47544 20.3907 4.96607 20.2117 4.56369 19.9958C4.21935 19.8116 4.08681 19.4885 4.07836 19.1007C4.05952 18.2366 4.67284 17.7209 5.49927 17.6517C6.16326 17.5961 6.88573 17.6924 7.35677 18.0808C7.61665 18.2941 7.75114 18.6716 7.79272 18.9934C7.79364 19.0001 7.79322 19.0069 7.79149 19.0134C7.78976 19.0199 7.78676 19.026 7.78265 19.0313C7.77855 19.0367 7.77342 19.0412 7.76757 19.0445C7.76171 19.0479 7.75525 19.0501 7.74854 19.0509H7.7414H6.47967C6.46785 19.0509 6.45628 19.0476 6.4462 19.0414C6.43613 19.0353 6.42793 19.0265 6.4225 19.016C6.4024 18.9554 6.36963 18.8997 6.32634 18.8525C6.23649 18.773 6.1291 18.7157 6.01284 18.6852C5.89658 18.6546 5.77473 18.6517 5.65714 18.6767C5.60893 18.6821 5.5638 18.7031 5.52862 18.7363C5.49344 18.7695 5.47013 18.8133 5.46223 18.8609C5.40571 19.1569 6.20355 19.294 6.403 19.334C7.07545 19.4691 7.78168 19.747 7.90772 20.4579C8.00864 21.0263 7.833 21.4655 7.38081 21.7758C6.61286 22.3031 5.49667 22.2799 4.67349 21.8682C4.23776 21.6489 4.01339 21.2725 4.0004 20.7391C3.99963 20.7345 3.99997 20.7298 4.00139 20.7253C4.00281 20.7208 4.00526 20.7168 4.00855 20.7134C4.01184 20.7101 4.01588 20.7076 4.02033 20.7061C4.02479 20.7046 4.02953 20.7042 4.03418 20.7048L5.33749 20.6848C5.34666 20.6853 5.35543 20.6887 5.36264 20.6943C5.36984 20.7 5.37513 20.7077 5.37777 20.7165C5.4644 20.9918 5.67317 21.1411 6.00409 21.1644C6.20679 21.1777 6.35623 21.1146 6.45238 20.975Z" fill="white"/>
<path d="M20.4496 17.8081C20.9759 18.0084 21.3592 18.4305 21.5976 18.9197C21.9442 19.6203 21.9472 20.3177 21.6067 21.0118C21.2715 21.6965 20.719 22.0778 19.9493 22.1558C19.0976 22.2424 18.2562 22.0827 17.7261 21.3802C17.3599 20.9138 17.1866 20.3259 17.2414 19.7367C17.3071 19.1024 17.617 18.5181 18.1061 18.106C18.7149 17.6142 19.7135 17.5276 20.4496 17.8081ZM19.5459 21.1359C20.0007 21.1359 20.3691 20.6046 20.3697 19.9474C20.3704 19.2901 20.0039 18.7569 19.5504 18.7562C19.0956 18.7562 18.7273 19.2875 18.726 19.9448C18.7247 20.6021 19.0917 21.1353 19.5459 21.1359Z" fill="white"/>
<path d="M14.2942 18.9758C14.2942 19.023 14.3097 19.0288 14.3416 18.9939L15.3649 17.8648C15.3848 17.8426 15.4092 17.8249 15.4366 17.8128C15.4639 17.8006 15.4935 17.7944 15.5234 17.7944H17.034C17.1093 17.7944 17.121 17.8215 17.069 17.8758L15.6572 19.3591C15.6405 19.3742 15.6301 19.3951 15.6282 19.4175C15.6263 19.4399 15.6329 19.4622 15.6468 19.4799L17.3036 22.0005C17.3056 22.0035 17.307 22.0068 17.3078 22.0103C17.3085 22.0138 17.3085 22.0174 17.3077 22.0209C17.307 22.0244 17.3056 22.0277 17.3035 22.0307C17.3015 22.0336 17.2988 22.0361 17.2958 22.038C17.2913 22.0408 17.2861 22.0423 17.2808 22.0425H15.6566C15.6316 22.0433 15.6069 22.0372 15.5852 22.025C15.5634 22.0129 15.5454 21.995 15.5331 21.9734L14.5911 20.4391C14.5729 20.408 14.5508 20.4061 14.5261 20.4319C14.415 20.5502 14.2903 20.6181 14.2935 20.8003C14.3004 21.1769 14.302 21.5746 14.2981 21.9934C14.2979 22.0067 14.2925 22.0193 14.283 22.0286C14.2735 22.038 14.2607 22.0432 14.2474 22.0432H12.883C12.8716 22.043 12.8607 22.0384 12.8526 22.0303C12.8446 22.0222 12.8401 22.0113 12.8401 21.9999V17.8293C12.8395 17.8245 12.84 17.8196 12.8415 17.815C12.8431 17.8104 12.8457 17.8062 12.8492 17.8027C12.8526 17.7993 12.8568 17.7967 12.8615 17.7951C12.8661 17.7936 12.871 17.7931 12.8759 17.7937H14.2623C14.2672 17.7937 14.2719 17.7947 14.2764 17.7965C14.2809 17.7984 14.2849 17.8011 14.2883 17.8046C14.2917 17.808 14.2943 17.8121 14.2961 17.8165C14.2979 17.821 14.2988 17.8258 14.2987 17.8306L14.2942 18.9758Z" fill="white"/>
<path d="M24.6338 17.7863L25.2185 17.7798C25.2462 17.7793 25.2736 17.7862 25.2978 17.7998C25.3219 17.8135 25.3419 17.8334 25.3556 17.8574L26.7297 20.208C26.7817 20.2972 26.8077 20.2901 26.8077 20.1873L26.8135 17.8134C26.8135 17.8047 26.817 17.7963 26.8232 17.7901C26.8294 17.7839 26.8379 17.7805 26.8467 17.7805H28.0687C28.0892 17.7805 28.1089 17.7886 28.1234 17.803C28.1379 17.8174 28.1461 17.837 28.1461 17.8574C28.1461 19.2405 28.1461 20.636 28.1461 22.0441C28.1461 22.0547 28.1441 22.0653 28.1402 22.0752C28.1365 22.0864 28.1291 22.0962 28.1192 22.1028C28.1094 22.1095 28.0975 22.1127 28.0856 22.112H26.4718C26.4426 22.1119 26.414 22.1043 26.3886 22.0901C26.3633 22.0758 26.342 22.0553 26.3269 22.0306L24.9053 19.7039C24.867 19.6392 24.8475 19.6457 24.8475 19.72V22.0467C24.8495 22.0586 24.8485 22.0708 24.8446 22.0821C24.8406 22.0935 24.8339 22.1037 24.825 22.1119C24.8161 22.12 24.8053 22.1259 24.7936 22.1288C24.7819 22.1318 24.7696 22.1318 24.7579 22.1288L24.5629 22.1113L23.5682 22.0997C23.5533 22.0995 23.539 22.0936 23.5285 22.0831C23.5179 22.0725 23.5119 22.0583 23.5117 22.0435V17.8425C23.5117 17.83 23.5167 17.818 23.5256 17.8091C23.5345 17.8003 23.5466 17.7953 23.5591 17.7953L24.6338 17.7863Z" fill="#004B96"/>
<path d="M30.5737 22.0517C30.5737 22.0676 30.5673 22.0829 30.556 22.0942C30.5446 22.1055 30.5293 22.1118 30.5132 22.1118H29.0995C29.0835 22.1118 29.0681 22.1055 29.0568 22.0942C29.0454 22.0829 29.0391 22.0676 29.0391 22.0517V17.8404C29.0391 17.8325 29.0406 17.8247 29.0437 17.8174C29.0467 17.8101 29.0511 17.8035 29.0568 17.7979C29.0624 17.7923 29.069 17.7879 29.0764 17.7849C29.0837 17.7818 29.0915 17.7803 29.0995 17.7803H30.5132C30.5212 17.7802 30.5291 17.7817 30.5365 17.7847C30.5438 17.7877 30.5505 17.7921 30.5562 17.7977C30.5618 17.8033 30.5662 17.8099 30.5692 17.8173C30.5722 17.8246 30.5738 17.8325 30.5737 17.8404V22.0517Z" fill="#004B96"/>
<path d="M9.98495 20.4701L9.98885 20.9684C9.98918 20.9797 9.99387 20.9906 10.002 20.9986C10.0101 21.0067 10.0209 21.0113 10.0324 21.0117H12.09C12.0958 21.0116 12.1016 21.0127 12.107 21.0148C12.1124 21.017 12.1173 21.0202 12.1214 21.0243C12.1256 21.0284 12.1288 21.0333 12.131 21.0387C12.1332 21.0441 12.1343 21.0498 12.1342 21.0556V21.9986C12.1342 22.0102 12.1295 22.0214 12.1212 22.0296C12.113 22.0379 12.1017 22.0425 12.09 22.0425H8.57055C8.55888 22.0424 8.54774 22.0377 8.53949 22.0295C8.53124 22.0213 8.52654 22.0102 8.52637 21.9986V17.8726C8.52637 17.8609 8.53102 17.8497 8.53931 17.8415C8.54759 17.8332 8.55883 17.8286 8.57055 17.8286H11.9899C11.9958 17.8285 12.0016 17.8296 12.007 17.8318C12.0124 17.834 12.0173 17.8372 12.0214 17.8413C12.0255 17.8454 12.0287 17.8503 12.0309 17.8556C12.0331 17.861 12.0342 17.8668 12.0341 17.8726V18.8181C12.0341 18.8239 12.033 18.8296 12.0308 18.8349C12.0285 18.8403 12.0253 18.8451 12.0212 18.8492C12.0171 18.8533 12.0122 18.8565 12.0068 18.8587C12.0015 18.8609 11.9957 18.8621 11.9899 18.8621H10.0298C10.0181 18.8621 10.0068 18.8667 9.99854 18.8749C9.99026 18.8832 9.9856 18.8944 9.9856 18.906L9.9895 19.35C9.98983 19.3615 9.99462 19.3724 10.0028 19.3805C10.0111 19.3886 10.0221 19.3932 10.0337 19.3933H11.6651C11.6709 19.3932 11.6767 19.3943 11.6821 19.3965C11.6875 19.3987 11.6924 19.4019 11.6965 19.406C11.7006 19.4101 11.7039 19.415 11.7061 19.4203C11.7083 19.4257 11.7094 19.4315 11.7093 19.4373V20.3763C11.7093 20.388 11.7046 20.3992 11.6963 20.4074C11.688 20.4157 11.6768 20.4203 11.6651 20.4203H10.0317C10.02 20.4203 10.0088 20.4249 10.0005 20.4332C9.99221 20.4414 9.98755 20.4526 9.98755 20.4642L9.98495 20.4701Z" fill="white"/>
<path d="M20 0.5C30.772 0.5 39.5 9.18624 39.5 19.8955C39.4999 30.6047 30.772 39.291 20 39.291C9.22803 39.291 0.500098 30.6047 0.5 19.8955C0.5 9.18624 9.22797 0.5 20 0.5Z" stroke="black" stroke-opacity="0.05"/>
</svg>
