<svg width="40" height="40" viewBox="0 0 40 40" fill="none" xmlns="http://www.w3.org/2000/svg">
<circle cx="20" cy="20" r="20" fill="#006BC2"/>
<path d="M22.5165 22.2763L24.0202 17.0136C24.0245 16.9993 24.034 16.9921 24.0487 16.9921H27.365C27.3665 16.9921 27.368 16.9925 27.3694 16.9932C27.3707 16.9939 27.3719 16.9948 27.3728 16.996C27.3737 16.9972 27.3743 16.9985 27.3746 17C27.3748 17.0014 27.3748 17.0029 27.3743 17.0043L26.0082 21.9602C26.0044 21.974 26.0096 21.9794 26.0236 21.9766C28.1671 21.524 30.2447 20.861 32.2564 19.9877C32.2608 19.9861 32.2639 19.9874 32.2658 19.9914C32.2683 19.9961 32.2672 19.9997 32.2625 20.0022C30.5929 20.9396 28.8246 21.6624 26.9937 22.2169C23.8603 23.166 20.6502 23.6743 17.3637 23.7416C15.3238 23.7837 13.2423 23.6247 11.266 23.1473C9.89656 22.8163 8.52058 22.309 7.43774 21.4698C6.94916 21.0906 6.49611 20.5908 6.24363 20.0377C5.20615 17.765 7.2526 15.8896 8.98204 14.8035C10.4445 13.8853 12.1151 13.1947 13.7604 12.6547C15.1381 12.2027 16.5915 11.817 18.1207 11.4975C19.119 11.2887 19.9796 11.1332 20.7025 11.0309C20.7928 11.0181 20.891 11.0079 20.997 11.0001C20.9992 10.9997 21.0004 11.0007 21.0007 11.0029C21.0014 11.0063 21.0017 11.0079 21.0017 11.0075C21.0017 11.0054 21.0006 11.0046 20.9984 11.0052C19.3258 11.3197 17.6933 11.7149 16.1009 12.1909C15.0311 12.5107 13.9935 12.881 12.988 13.3018C11.6167 13.8755 10.2449 14.5964 9.14381 15.5605C8.51263 16.1131 7.92165 16.8444 7.73651 17.6775C7.33722 19.4696 8.80157 20.7269 10.2346 21.4132C10.8923 21.728 11.6015 21.9822 12.3624 22.1758C12.3645 22.1764 12.3667 22.1764 12.3687 22.1758C12.3708 22.1753 12.3727 22.1742 12.3742 22.1727C12.3758 22.1711 12.3768 22.1692 12.3774 22.1672C12.3779 22.1651 12.3779 22.1629 12.3774 22.1608L10.9799 17.0043C10.9777 16.9962 10.9806 16.9921 10.9887 16.9921H14.4299C14.4358 16.9921 14.4416 16.9941 14.4463 16.9978C14.451 17.0014 14.4542 17.0065 14.4556 17.0122L15.6871 22.2165C15.6977 22.2604 15.7111 22.2613 15.7273 22.2193L17.6966 17.1169C17.6987 17.1117 17.7022 17.1072 17.7068 17.1041C17.7114 17.1009 17.7168 17.0992 17.7223 17.0992L20.6669 17.0987C20.6831 17.0987 20.6939 17.1065 20.6992 17.1221L22.488 22.2772C22.4983 22.3072 22.5078 22.3068 22.5165 22.2763ZM18.6135 22.8238C18.6126 22.8261 18.6124 22.8286 18.6127 22.831C18.613 22.8334 18.6139 22.8357 18.6154 22.8377C18.6168 22.8397 18.6187 22.8413 18.6209 22.8424C18.6231 22.8434 18.6255 22.844 18.628 22.8439L19.7767 22.8149C19.7791 22.8149 19.7815 22.8143 19.7836 22.8132C19.7858 22.8121 19.7876 22.8105 19.789 22.8085C19.7903 22.8065 19.7912 22.8043 19.7915 22.8019C19.7918 22.7995 19.7916 22.7971 19.7907 22.7948L19.2124 21.2257C19.2113 21.2229 19.2094 21.2204 19.2069 21.2187C19.2044 21.2169 19.2014 21.216 19.1984 21.216C19.1953 21.216 19.1923 21.2169 19.1898 21.2187C19.1873 21.2204 19.1854 21.2229 19.1843 21.2257L18.6135 22.8238Z" fill="white"/>
<path d="M34.9157 17.6163C34.725 17.721 34.5735 17.8442 34.4613 17.9857C34.4391 18.014 34.4211 18.0567 34.407 18.1138C34.3949 18.164 34.3766 18.2087 34.3523 18.248C34.3018 18.3296 34.2881 18.4174 34.3112 18.5112C34.3442 18.6471 34.3841 18.7663 34.4309 18.8689C34.4533 18.9175 34.5135 18.9901 34.6113 19.0867C34.6784 19.1525 34.7541 19.2014 34.8386 19.2336C34.9474 19.275 35.0695 19.306 35.2051 19.3266C35.2631 19.3353 35.3091 19.3202 35.3431 19.2812C35.3524 19.2703 35.3644 19.2636 35.3791 19.2611C35.5206 19.2356 35.6423 19.1768 35.7442 19.0849C35.7492 19.0802 35.7548 19.0788 35.761 19.0807C35.7629 19.0813 35.7645 19.0825 35.7657 19.0844C35.7757 19.1019 35.7841 19.1011 35.791 19.0821C35.8153 19.0157 35.8686 18.9652 35.8723 18.8922C35.8761 18.8252 35.8764 18.7565 35.8733 18.6861C35.8726 18.6692 35.8803 18.6635 35.8962 18.6688L35.9153 18.6753C36.012 19.0506 35.9599 19.4488 35.7699 19.7867C35.6442 20.0107 35.4631 20.1988 35.244 20.333C35.0249 20.4673 34.7751 20.5431 34.5183 20.5534C34.1706 20.5674 33.8288 20.4603 33.551 20.2505C33.2952 20.0573 33.1078 19.7877 33.0161 19.4809C32.9375 19.2178 32.9324 18.9383 33.0012 18.6725C33.07 18.4067 33.2102 18.1649 33.4065 17.9731C33.602 17.7822 33.8458 17.6481 34.1117 17.5853C34.3776 17.5224 34.6555 17.5332 34.9157 17.6163Z" fill="#D3621C"/>
<path d="M34.9162 17.6162C35.153 17.6918 35.3675 17.8249 35.5403 18.0036C35.7131 18.1823 35.8389 18.401 35.9064 18.6401C35.9098 18.652 35.913 18.6637 35.9158 18.6752L35.8966 18.6687C35.8807 18.6634 35.8731 18.6691 35.8737 18.686C35.8768 18.7564 35.8765 18.8251 35.8728 18.8921C35.869 18.9651 35.8157 19.0156 35.7914 19.082C35.7845 19.101 35.7761 19.1018 35.7662 19.0843C35.7649 19.0824 35.7634 19.0812 35.7615 19.0806C35.7553 19.0787 35.7496 19.0801 35.7447 19.0848C35.6427 19.1767 35.521 19.2355 35.3795 19.261C35.3649 19.2635 35.3529 19.2702 35.3435 19.2811C35.3095 19.3201 35.2636 19.3352 35.2056 19.3265C35.07 19.3059 34.9478 19.2749 34.839 19.2334C34.7545 19.2013 34.6788 19.1524 34.6118 19.0866C34.5139 18.99 34.4538 18.9174 34.4313 18.8688C34.3846 18.7662 34.3447 18.647 34.3116 18.5111C34.2886 18.4173 34.3023 18.3295 34.3528 18.2479C34.3771 18.2086 34.3953 18.1639 34.4075 18.1137C34.4215 18.0566 34.4396 18.0139 34.4617 17.9856C34.5739 17.8441 34.7254 17.7209 34.9162 17.6162ZM34.9077 18.1544C34.8446 18.2123 34.7651 18.3133 34.7642 18.4036C34.7627 18.5513 34.8133 18.6775 34.9162 18.7823C34.9654 18.8325 35.0257 18.8597 35.0971 18.8641C35.2084 18.8706 35.3052 18.86 35.3875 18.8323C35.3982 18.8286 35.4076 18.8221 35.4146 18.8136L35.5544 18.6415C35.5629 18.6308 35.5683 18.6179 35.5698 18.6041C35.5735 18.5677 35.5809 18.532 35.5918 18.4971C35.6058 18.4525 35.6108 18.4096 35.6067 18.3685C35.5983 18.2915 35.5673 18.2298 35.5137 18.1833C35.4408 18.1201 35.3508 18.081 35.2439 18.066C35.1049 18.0467 34.9928 18.0761 34.9077 18.1544Z" fill="#F8995D"/>
<path d="M34.9072 18.1544C34.9923 18.0762 35.1044 18.0467 35.2434 18.066C35.3503 18.081 35.4402 18.1201 35.5132 18.1834C35.5668 18.2298 35.5978 18.2916 35.6062 18.3685C35.6103 18.4097 35.6053 18.4525 35.5913 18.4971C35.5804 18.532 35.573 18.5677 35.5693 18.6042C35.5678 18.6179 35.5624 18.6309 35.5539 18.6416L35.4141 18.8136C35.407 18.8222 35.3977 18.8287 35.3869 18.8324C35.3047 18.8601 35.2079 18.8707 35.0966 18.8641C35.0252 18.8598 34.9649 18.8325 34.9157 18.7823C34.8128 18.6776 34.7621 18.5514 34.7637 18.4036C34.7646 18.3134 34.8441 18.2124 34.9072 18.1544Z" fill="#FDCBAC"/>
<path d="M20.4291 24.5196C20.379 24.3828 20.3286 24.238 20.2781 24.0853C20.2731 24.0694 20.2788 24.0603 20.295 24.0581C22.124 23.8075 23.9435 23.4037 25.7535 22.8467C25.7766 22.8396 25.7853 22.8478 25.7797 22.8715L24.6539 27.6068C24.6519 27.6152 24.6471 27.6227 24.6404 27.628C24.6337 27.6334 24.6255 27.6363 24.6169 27.6363L21.6046 27.6381C21.5865 27.6381 21.5743 27.6296 21.5681 27.6124C21.1887 26.5841 20.8091 25.5532 20.4291 24.5196Z" fill="white"/>
<path d="M18.0785 24.3261L16.9106 27.6026C16.907 27.6126 16.9005 27.6213 16.8918 27.6274C16.8832 27.6335 16.8729 27.6368 16.8624 27.6368L13.7224 27.6377C13.7183 27.6377 13.7143 27.6364 13.7111 27.634C13.7078 27.6315 13.7056 27.628 13.7046 27.6241L12.9159 24.2957C12.9096 24.2704 12.9195 24.2591 12.9453 24.2616C14.6276 24.4265 16.3319 24.4392 18.0584 24.2999C18.0617 24.2996 18.065 24.3002 18.068 24.3015C18.071 24.3028 18.0736 24.3049 18.0756 24.3075C18.0776 24.3101 18.0789 24.3132 18.0794 24.3164C18.0799 24.3197 18.0796 24.323 18.0785 24.3261Z" fill="white"/>
<circle cx="20" cy="20" r="19.5" stroke="black" stroke-opacity="0.05"/>
</svg>
