<svg width="40" height="40" viewBox="0 0 40 40" fill="none" xmlns="http://www.w3.org/2000/svg">
<circle cx="20" cy="20" r="20" fill="#F6F8FA"/>
<g clip-path="url(#clip0_16604_10958)">
<path d="M16.2898 19.0038H13.7218L14.2667 15.6025C14.3437 15.161 13.8898 15.1681 13.8898 15.1681H10.7046L9 25.7139H12.2517C12.2517 25.7139 12.6402 25.7092 12.7021 25.2712L13.2808 21.7065H15.8487L15.2584 25.3483C15.1989 25.7151 15.6422 25.7127 15.6422 25.7127H18.8321L19.265 23.038C18.9791 22.0989 19.3501 20.7055 19.3501 20.7055L20.3115 16.565L20.5379 15.1669H17.2908C17.2908 15.1669 16.9105 15.1575 16.8405 15.6096L16.2909 19.0026L16.2898 19.0038Z" fill="#004B88"/>
<path d="M30.4248 19.0084L30.9895 16.1398C30.9895 16.1398 31.154 15.4145 30.2031 14.9076C30.2031 14.9076 26.4905 12.7865 22.1713 15.0291C22.1713 15.0291 17.0656 17.8171 19.2649 23.1303C19.2649 23.1303 18.8414 17.3721 25.3798 17.0696C25.3798 17.0696 28.1146 16.8266 30.4259 19.0084H30.4248Z" fill="url(#paint0_linear_16604_10958)"/>
<path d="M24.9353 20.3831L24.6553 21.9797C24.5981 22.3476 25.0391 22.343 25.0391 22.343H26.1265C25.9095 22.7272 25.1838 23.5448 24.0614 23.3918C22.6368 23.1979 22.2716 21.6562 22.533 20.4695C22.533 20.4695 22.771 19.2069 23.9868 18.1919C19.7083 19.4136 19.6278 22.3231 19.6278 22.3231C19.4458 25.8586 23.0184 25.9801 23.0184 25.9801C26.1055 26.202 27.4788 24.6264 27.4788 24.6264L27.3738 25.4346C27.3575 25.5596 27.4321 25.7173 27.6748 25.7173H29.4973L30.3641 20.3842H24.9365L24.9353 20.3831Z" fill="#004B88"/>
</g>
<circle cx="20" cy="20" r="19.5" stroke="black" stroke-opacity="0.05"/>
<defs>
<linearGradient id="paint0_linear_16604_10958" x1="18.7142" y1="18.5646" x2="31" y2="18.5646" gradientUnits="userSpaceOnUse">
<stop stop-color="#00C0F3"/>
<stop offset="1" stop-color="#0072BC"/>
</linearGradient>
<clipPath id="clip0_16604_10958">
<rect width="22" height="12" fill="white" transform="translate(9 14)"/>
</clipPath>
</defs>
</svg>
