<svg width="40" height="40" viewBox="0 0 40 40" fill="none" xmlns="http://www.w3.org/2000/svg">
<circle cx="20" cy="20" r="20" fill="#002080"/>
<path d="M13.3571 17.2056C13.3397 17.3316 13.3571 17.3403 13.4323 17.2331L16.2577 12.7302C16.2701 12.7088 16.2881 12.6911 16.3097 12.6791C16.3314 12.6671 16.356 12.6613 16.3807 12.6622H20.2048C20.4576 12.6627 20.7098 12.6375 20.9575 12.5869C22.1349 12.3491 23.3574 12.4878 24.4515 12.9835C24.5915 13.0472 24.5842 13.0791 24.4298 13.0791H19.8198C19.4912 13.0791 19.2017 13.2759 18.9383 13.4496C18.8399 13.5133 18.85 13.5451 18.9673 13.5451H25.2288C25.5183 13.5451 25.7455 13.7593 25.9438 13.9475C26.0191 14.0184 26.0046 14.0546 25.9019 14.0546H18.2305C18.202 14.0541 18.1736 14.0596 18.1472 14.0705C18.1208 14.0815 18.0969 14.0977 18.0771 14.1183L17.7355 14.4642C17.7323 14.4675 17.7297 14.4713 17.728 14.4755C17.7262 14.4797 17.7253 14.4843 17.7253 14.4888C17.7253 14.4934 17.7262 14.4979 17.728 14.5022C17.7297 14.5064 17.7323 14.5102 17.7355 14.5134C17.7423 14.5195 17.751 14.5231 17.7601 14.5236H26.4258C26.4648 14.5225 26.5036 14.5303 26.5392 14.5464C26.5748 14.5624 26.6063 14.5863 26.6314 14.6162L26.8933 14.9057C26.9628 14.9839 26.9454 15.0229 26.8398 15.0229H17.3519C17.3189 15.0222 17.2861 15.0295 17.2566 15.0444C17.227 15.0593 17.2016 15.0813 17.1826 15.1083L16.9481 15.4326C16.9076 15.4876 16.9221 15.5151 16.9901 15.5151H27.2349C27.2527 15.5164 27.2706 15.5143 27.2876 15.5087C27.3045 15.503 27.3202 15.4941 27.3337 15.4824C27.3471 15.4707 27.3581 15.4564 27.366 15.4404C27.3739 15.4244 27.3786 15.407 27.3797 15.3891L27.7893 12.7461C27.7898 12.7336 27.7929 12.7214 27.7984 12.7101C27.8038 12.6988 27.8116 12.6888 27.8211 12.6807C27.8306 12.6725 27.8416 12.6664 27.8536 12.6628C27.8656 12.6591 27.8782 12.6579 27.8906 12.6593H32.9233C32.9436 12.6593 32.9631 12.6674 32.9775 12.6818C32.9919 12.6962 33 12.7157 33 12.736C33 12.736 33 12.7433 33 12.7476L30.7333 27.3868C30.7328 27.4013 30.7293 27.4156 30.723 27.4287C30.7168 27.4418 30.7078 27.4535 30.6968 27.463C30.6858 27.4726 30.673 27.4797 30.6591 27.484C30.6452 27.4883 30.6306 27.4897 30.6161 27.4881H25.6109C25.5996 27.49 25.5881 27.489 25.5772 27.4852C25.5664 27.4814 25.5568 27.475 25.5491 27.4665C25.5415 27.458 25.5361 27.4477 25.5335 27.4365C25.5309 27.4254 25.5311 27.4137 25.5342 27.4027L25.5834 26.8976C25.5864 26.886 25.5865 26.8738 25.5837 26.8621C25.5808 26.8505 25.5751 26.8397 25.5671 26.8308C25.559 26.8219 25.5489 26.8152 25.5376 26.8112C25.5263 26.8072 25.5142 26.806 25.5024 26.8078H18.6894C18.6098 26.8078 18.5996 26.8353 18.6575 26.8903C18.9354 27.1523 19.167 27.2956 19.5795 27.2927C21.3251 27.2802 23.0866 27.2802 24.8641 27.2927C24.874 27.2927 24.8836 27.2967 24.8907 27.3037C24.8977 27.3108 24.9017 27.3204 24.9017 27.3303C24.9017 27.3303 24.9017 27.3303 24.9017 27.339C24.8991 27.352 24.8934 27.3642 24.8851 27.3745C24.8767 27.3849 24.8661 27.393 24.8539 27.3984C23.1865 28.2398 21.5041 28.3117 19.8068 27.614C19.5827 27.5295 19.3441 27.4902 19.1048 27.4982C17.8735 27.5069 16.5597 27.5045 15.1634 27.491C15.1492 27.4908 15.1353 27.4866 15.1233 27.479C15.1112 27.4713 15.1016 27.4604 15.0954 27.4476L13.8014 24.6439C13.7993 24.6394 13.7962 24.6354 13.7925 24.6321C13.7888 24.6288 13.7844 24.6263 13.7797 24.6247C13.775 24.623 13.77 24.6224 13.7651 24.6227C13.7601 24.623 13.7552 24.6243 13.7508 24.6266C13.7442 24.6297 13.7386 24.6348 13.7348 24.641L11.9979 27.4042C11.9833 27.4293 11.9621 27.45 11.9366 27.464C11.9111 27.478 11.8823 27.4849 11.8532 27.4838H7.07671C7.05637 27.4838 7.03686 27.4757 7.02247 27.4613C7.00808 27.4469 7 27.4274 7 27.4071V27.3969L9.01915 12.71C9.01931 12.7029 9.02093 12.696 9.02392 12.6896C9.02691 12.6832 9.03119 12.6775 9.03651 12.6729C9.04182 12.6683 9.04804 12.6648 9.05477 12.6627C9.0615 12.6606 9.0686 12.6599 9.0756 12.6607H13.923C13.9292 12.6607 13.9354 12.662 13.9411 12.6644C13.9468 12.6668 13.952 12.6704 13.9563 12.6748C13.9606 12.6793 13.964 12.6846 13.9662 12.6903C13.9685 12.6961 13.9695 12.7023 13.9693 12.7085L13.3571 17.2056ZM16.6499 16.0173C16.6347 16.0173 16.6197 16.0213 16.6065 16.0289C16.5933 16.0366 16.5823 16.0475 16.5747 16.0607L16.4024 16.3647C16.3965 16.3745 16.3927 16.3854 16.3911 16.3968C16.3895 16.4082 16.3902 16.4197 16.3932 16.4308C16.3961 16.4419 16.4013 16.4522 16.4084 16.4613C16.4154 16.4703 16.4242 16.4778 16.4343 16.4834C16.4475 16.4909 16.4625 16.4949 16.4777 16.495H27.7285C27.7515 16.495 27.7736 16.4858 27.7899 16.4695C27.8062 16.4532 27.8153 16.4312 27.8153 16.4081C27.8155 16.3922 27.811 16.3766 27.8023 16.3632L27.6243 16.0622C27.6166 16.0495 27.6058 16.0389 27.5929 16.0316C27.5799 16.0242 27.5653 16.0203 27.5505 16.0202L16.6499 16.0173ZM21.7159 23.8725C19.9221 23.8493 18.1495 23.8445 16.3981 23.858C16.3011 23.858 16.2736 23.9029 16.3141 23.9911L16.4024 24.1808C16.4207 24.2254 16.4523 24.2634 16.493 24.2893C16.5337 24.3152 16.5815 24.3279 16.6297 24.3255H27.5722C27.6141 24.3254 27.6552 24.3136 27.6908 24.2913C27.7264 24.2691 27.755 24.2373 27.7734 24.1996L27.8848 23.9665C27.921 23.8913 27.8964 23.8536 27.8139 23.8536H22.5004C22.4469 23.8536 22.4454 23.845 22.5004 23.829C22.6698 23.774 22.8406 23.7176 23.0099 23.6597C23.3168 23.5555 23.5151 23.347 23.8552 23.347C25.2061 23.347 26.5913 23.347 28.0107 23.347C28.0548 23.3498 28.0984 23.3368 28.1337 23.3102C28.169 23.2837 28.1937 23.2454 28.2033 23.2023L28.2525 23.0228C28.2858 22.923 28.2525 22.8781 28.1425 22.8781H24.2735C24.1857 22.8781 24.1669 22.8419 24.2171 22.7695L24.4255 22.48C24.449 22.4456 24.4808 22.4176 24.518 22.3986C24.5552 22.3796 24.5965 22.3703 24.6383 22.3715H28.3017C28.3206 22.3737 28.3398 22.3722 28.3581 22.367C28.3764 22.3618 28.3935 22.353 28.4084 22.3412C28.4234 22.3293 28.4358 22.3147 28.4451 22.298C28.4543 22.2814 28.4602 22.263 28.4623 22.2441L28.5072 22.0473C28.5289 21.9503 28.4913 21.9025 28.3929 21.9025H24.9191C24.8105 21.9025 24.7743 21.8504 24.8004 21.7448L24.8322 21.6319C24.846 21.5897 24.8727 21.553 24.9086 21.527C24.9445 21.501 24.9876 21.4871 25.032 21.4871H28.4725C28.4914 21.4898 28.5106 21.4882 28.5288 21.4824C28.5469 21.4766 28.5636 21.4668 28.5775 21.4538C28.5914 21.4407 28.6021 21.4247 28.609 21.4069C28.6159 21.3892 28.6187 21.3701 28.6172 21.3511L28.6302 21.1035C28.6302 21.0428 28.6042 21.0124 28.5419 21.0124L26.5836 21.0225C26.5755 21.0225 26.5676 21.0209 26.5602 21.0177C26.5528 21.0146 26.5461 21.0099 26.5406 21.0041C26.535 20.9983 26.5307 20.9914 26.5279 20.9839C26.5251 20.9763 26.5239 20.9683 26.5242 20.9603L26.7283 19.591C26.7289 19.582 26.7312 19.5732 26.7353 19.5651C26.7393 19.557 26.745 19.5498 26.7519 19.544C26.7588 19.5382 26.7668 19.5338 26.7754 19.5312C26.7841 19.5286 26.7932 19.5278 26.8021 19.5288L28.5535 19.5432C28.6042 19.5432 28.6288 19.5186 28.6245 19.468L28.5984 19.0757C28.5996 19.0571 28.5966 19.0385 28.5895 19.0213C28.5824 19.004 28.5714 18.9887 28.5574 18.9764C28.5434 18.9641 28.5268 18.9551 28.5088 18.9503C28.4908 18.9454 28.4719 18.9447 28.4537 18.9483H24.9798C24.9405 18.9507 24.9015 18.9401 24.8688 18.9182C24.8361 18.8962 24.8116 18.8641 24.7989 18.8268L24.6947 18.5648C24.6614 18.4852 24.6947 18.4446 24.7758 18.4446H28.3219C28.4426 18.4446 28.4874 18.3867 28.4566 18.2709L28.4233 18.1421C28.4151 18.0926 28.3884 18.0481 28.3486 18.0174C28.3089 17.9868 28.259 17.9724 28.209 17.9771H24.5456C24.4977 17.978 24.4502 17.9684 24.4064 17.9488C24.3626 17.9293 24.3237 17.9004 24.2923 17.8642L24.0289 17.5747C23.9638 17.5009 23.9797 17.4647 24.0781 17.4633C25.401 17.4498 26.7303 17.4498 28.0657 17.4633C28.1801 17.4633 28.2105 17.4126 28.1743 17.3055L28.1135 17.1492C28.097 17.1039 28.0661 17.0653 28.0256 17.0392C27.9851 17.0131 27.9372 17.0009 27.8892 17.0045C26.3761 17.0045 24.922 17.0045 23.5266 17.0045C23.3437 17.0037 23.1631 16.9637 22.9969 16.8872C22.4056 16.6527 21.7471 16.6527 21.1558 16.8872C20.9589 16.9667 20.7486 17.0075 20.5363 17.0073C18.9817 17.0073 17.5488 17.0073 16.2374 17.0073C16.1998 17.0043 16.1623 17.0145 16.1314 17.0362C16.1005 17.0579 16.0781 17.0896 16.0681 17.126L15.9943 17.3432C15.9653 17.4242 15.9943 17.4647 16.0797 17.4647H20.0977C20.186 17.4647 20.2019 17.498 20.1426 17.5646L19.8531 17.8888C19.8256 17.9205 19.7916 17.9459 19.7533 17.9631C19.7151 17.9804 19.6736 17.9891 19.6316 17.9887H15.9494C15.9132 17.9852 15.877 17.9955 15.848 18.0175C15.8191 18.0395 15.7995 18.0716 15.7931 18.1074L15.7352 18.3187C15.7106 18.4099 15.7439 18.4548 15.8379 18.4533H19.4C19.4927 18.4533 19.5202 18.4953 19.4811 18.5807L19.361 18.8485C19.3482 18.8814 19.3254 18.9095 19.2958 18.9287C19.2662 18.9479 19.2312 18.9573 19.196 18.9556H15.7612C15.7414 18.9542 15.7215 18.9569 15.7027 18.9635C15.684 18.9702 15.6668 18.9806 15.6523 18.9942C15.6377 19.0078 15.6262 19.0242 15.6183 19.0425C15.6104 19.0607 15.6063 19.0804 15.6064 19.1003L15.5846 19.2914C15.581 19.3257 15.5909 19.36 15.6123 19.3871C15.6336 19.4142 15.6648 19.4318 15.699 19.4361H19.1019C19.1641 19.4361 19.1916 19.4665 19.1815 19.5288L19.1337 19.8544C19.1309 19.8746 19.1208 19.8931 19.1054 19.9064C19.0899 19.9198 19.0702 19.927 19.0498 19.9268H15.6773C15.6421 19.9268 15.6083 19.9406 15.5831 19.9652C15.5579 19.9898 15.5434 20.0233 15.5427 20.0585V20.3031C15.5401 20.319 15.5413 20.3352 15.5463 20.3505C15.5513 20.3658 15.56 20.3796 15.5715 20.3909C15.583 20.4021 15.597 20.4104 15.6124 20.415C15.6278 20.4196 15.6441 20.4205 15.6599 20.4175H18.989C19.0069 20.4143 19.0252 20.4151 19.0427 20.4198C19.0603 20.4245 19.0765 20.4331 19.0904 20.4448C19.1042 20.4566 19.1153 20.4713 19.1228 20.4878C19.1303 20.5043 19.134 20.5223 19.1337 20.5405L19.1612 20.7837C19.1632 20.7998 19.162 20.8163 19.1576 20.832C19.1533 20.8477 19.1458 20.8623 19.1357 20.8751C19.1256 20.8879 19.1131 20.8986 19.0988 20.9065C19.0845 20.9144 19.0689 20.9194 19.0527 20.9212H15.7236C15.7045 20.9179 15.6849 20.9196 15.6666 20.9261C15.6484 20.9325 15.632 20.9434 15.6191 20.9579C15.6063 20.9724 15.5973 20.9899 15.593 21.0088C15.5888 21.0277 15.5894 21.0473 15.5948 21.0659L15.6136 21.2743C15.613 21.2911 15.6161 21.3078 15.6226 21.3232C15.6292 21.3386 15.639 21.3525 15.6513 21.3637C15.6637 21.375 15.6784 21.3835 15.6944 21.3885C15.7104 21.3936 15.7272 21.3951 15.7439 21.393H19.154C19.1923 21.3904 19.2304 21.4013 19.2615 21.4238C19.2927 21.4462 19.3151 21.4789 19.3248 21.5161L19.4174 21.7954C19.442 21.8692 19.4174 21.9069 19.3378 21.9069H15.8553C15.7497 21.9069 15.7106 21.959 15.7236 22.0632L15.7497 22.2079C15.7575 22.2548 15.7818 22.2974 15.8181 22.3282C15.8544 22.3589 15.9004 22.3758 15.9479 22.3758H19.5231C19.5696 22.3752 19.6156 22.3858 19.6572 22.4067C19.6988 22.4276 19.7347 22.4582 19.7619 22.496L19.9544 22.7565C20.0181 22.8419 19.9964 22.8839 19.8907 22.8839H16.0348C15.9422 22.8839 15.9103 22.9287 15.9378 23.017L16.0001 23.2139C16.0097 23.2573 16.0345 23.2957 16.0701 23.3223C16.1057 23.3489 16.1497 23.3618 16.194 23.3586H20.4726C20.5234 23.3572 20.5736 23.3703 20.6173 23.3963C20.9689 23.5964 21.343 23.7538 21.7318 23.8652C21.768 23.8667 21.7666 23.8725 21.7217 23.8725H21.7159ZM16.9148 24.8321C16.8891 24.8321 16.8644 24.8423 16.8463 24.8605C16.8281 24.8787 16.8178 24.9034 16.8178 24.9291C16.8172 24.9407 16.819 24.9523 16.823 24.9633C16.8269 24.9742 16.8331 24.9842 16.841 24.9928L17.09 25.2822C17.0991 25.2929 17.1104 25.3013 17.1232 25.3071C17.1359 25.3129 17.1498 25.3157 17.1638 25.3155H27.0337C27.0477 25.3157 27.0616 25.3129 27.0743 25.3071C27.0871 25.3013 27.0984 25.2929 27.1076 25.2822L27.3609 24.9928C27.3702 24.9829 27.3775 24.9711 27.3821 24.9583C27.3867 24.9454 27.3886 24.9318 27.3876 24.9182C27.3867 24.9046 27.3829 24.8913 27.3765 24.8792C27.3702 24.8671 27.3614 24.8565 27.3507 24.848C27.3328 24.8332 27.3103 24.825 27.287 24.8249L16.9148 24.8321ZM26.2145 26.2882C26.2316 26.2884 26.2481 26.2822 26.2608 26.2708L26.627 25.9538C26.6335 25.9474 26.6386 25.9397 26.6421 25.9313C26.6456 25.9228 26.6474 25.9138 26.6474 25.9046C26.6474 25.8955 26.6456 25.8864 26.6421 25.878C26.6386 25.8695 26.6335 25.8619 26.627 25.8554C26.6205 25.8481 26.6124 25.8422 26.6034 25.8383C26.5945 25.8343 26.5847 25.8322 26.5749 25.8323H17.6255C17.6163 25.8321 17.6072 25.8337 17.5987 25.8372C17.5902 25.8406 17.5824 25.8457 17.5759 25.8522C17.5694 25.8587 17.5643 25.8664 17.5609 25.8749C17.5575 25.8834 17.5558 25.8926 17.556 25.9017C17.556 25.9116 17.558 25.9213 17.562 25.9303C17.566 25.9393 17.5719 25.9473 17.5792 25.9538L17.9338 26.2694C17.9465 26.2808 17.9631 26.287 17.9801 26.2868L26.2145 26.2882Z" fill="white"/>
<circle cx="20" cy="20" r="19.5" stroke="black" stroke-opacity="0.05"/>
</svg>
