<svg width="40" height="40" viewBox="0 0 40 40" fill="none" xmlns="http://www.w3.org/2000/svg">
<circle cx="20" cy="20" r="20" fill="#142668"/>
<g clip-path="url(#clip0_18553_55886)">
<path d="M28.288 12.3444C27.7287 12.3444 27.5609 12.3444 26.4144 12.3154H25.3797C23.8416 12.3154 21.0452 12.3154 20.5419 12.3154C19.5911 12.3154 18.2768 12.3154 16.9345 13.7951C16.4311 14.3464 16.0396 15.1007 15.5083 16.1452C14.0821 18.9595 12.3763 22.006 12.3763 22.006C12.3763 22.006 12.0407 22.6442 11.5933 23.4276C11.0061 24.4431 10.1392 25.7197 8.71301 26.358C8.71301 26.358 7.98594 26.6481 7.48258 26.7932C7.20294 26.8802 7.06312 26.9963 7.03516 27.1123C7.03516 27.1123 7.17498 27.2864 7.37073 27.3154C7.37073 27.3154 8.93672 27.3154 10.4748 27.3154H13.8305C14.2779 27.3154 14.8651 27.2284 15.4244 27.0543C16.4311 26.7932 16.9345 26.416 17.6616 25.4295L19.2555 22.5282C19.2555 22.5282 25.2119 22.5282 26.5262 22.5282C27.4211 22.5282 28.3998 22.5282 29.4625 21.8899C30.7488 21.1355 31.9233 19.7139 31.9792 17.4508V16.9866C31.9233 13.9982 29.2947 12.4025 28.288 12.3444Z" fill="#F68B1F"/>
<path d="M20.374 15.623C20.374 15.623 22.9188 17.7991 22.9747 17.8281C23.0306 17.8861 23.1704 18.0312 23.2264 17.8861C23.2823 17.741 23.0027 17.596 23.0027 17.596L20.374 15.623Z" fill="white"/>
<path d="M20.3184 15.8262C20.3184 15.8262 22.8631 18.0022 22.919 18.0312C22.975 18.0892 23.1148 18.2343 23.1707 18.0892C23.2266 17.9442 22.947 17.7991 22.947 17.7991L20.3184 15.8262Z" fill="white"/>
<path d="M20.2344 16.0581C20.2344 16.0581 22.7791 18.2341 22.835 18.2631C22.891 18.3212 23.0308 18.4662 23.0867 18.3212C23.1427 18.1761 22.863 18.031 22.863 18.031L20.2344 16.0581Z" fill="white"/>
<path d="M20.1504 16.2612C20.1504 16.2612 22.6951 18.4372 22.7511 18.4663C22.807 18.5243 22.9468 18.6694 23.0027 18.5243C23.0587 18.3792 22.779 18.2342 22.779 18.2342L20.1504 16.2612Z" fill="white"/>
<path d="M20.0664 16.4644C20.0664 16.4644 22.6112 18.6404 22.6671 18.6694C22.723 18.7274 22.8628 18.8725 22.9188 18.7274C22.9747 18.5823 22.695 18.4373 22.695 18.4373L20.0664 16.4644Z" fill="white"/>
<path d="M19.9824 16.6963C19.9824 16.6963 22.5272 18.8723 22.5831 18.9013C22.639 18.9593 22.7788 19.1044 22.8348 18.9593C22.8907 18.8143 22.6111 18.6692 22.6111 18.6692L19.9824 16.6963Z" fill="white"/>
<path d="M19.8989 16.8994C19.8989 16.8994 22.4437 19.0754 22.4996 19.1044C22.5555 19.1625 22.6953 19.3075 22.7513 19.1625C22.8072 19.0174 22.5276 18.8723 22.5276 18.8723L19.8989 16.8994Z" fill="white"/>
<path d="M19.8149 17.1318C19.8149 17.1318 22.3597 19.3079 22.4156 19.3369C22.4715 19.3949 22.6114 19.54 22.6673 19.3949C22.7232 19.2498 22.4436 19.1048 22.4436 19.1048L19.8149 17.1318Z" fill="white"/>
<path d="M19.731 17.335C19.731 17.335 22.2757 19.511 22.3316 19.54C22.3876 19.598 22.5274 19.7431 22.5833 19.598C22.6392 19.4529 22.3596 19.3079 22.3596 19.3079L19.731 17.335Z" fill="white"/>
<path d="M19.647 17.5669C19.647 17.5669 22.1917 19.7429 22.2476 19.7719C22.3036 19.83 22.4434 19.975 22.4993 19.83C22.5553 19.6849 22.2756 19.5398 22.2756 19.5398L19.647 17.5669Z" fill="white"/>
<path d="M19.5913 17.77C19.5913 17.77 22.1361 19.946 22.192 19.975C22.2479 20.0331 22.3877 20.1781 22.4437 20.0331C22.4996 19.888 22.2199 19.7429 22.2199 19.7429L19.5913 17.77Z" fill="white"/>
<path d="M21.6885 20.8162C21.6885 20.8162 24.4569 18.9594 24.5129 18.9303C24.5688 18.9013 24.7366 18.7853 24.6527 18.6982C24.5408 18.6112 24.3171 18.8433 24.3171 18.8433L21.7164 20.8452L21.6885 20.8162Z" fill="white"/>
<path d="M21.856 20.9612C21.856 20.9612 24.6244 19.1044 24.6803 19.0754C24.7363 19.0464 24.932 18.9303 24.8202 18.8433C24.7083 18.7562 24.4846 18.9883 24.4846 18.9883L21.8839 20.9903L21.856 20.9612Z" fill="white"/>
<path d="M22.0239 21.1068C22.0239 21.1068 24.7924 19.2499 24.8483 19.2209C24.9042 19.1919 25.072 19.0758 24.9881 18.9888C24.8763 18.9017 24.6526 19.1338 24.6526 19.1338L22.0519 21.1358L22.0239 21.1068Z" fill="white"/>
<path d="M22.1919 21.2518C22.1919 21.2518 24.9604 19.3949 25.0163 19.3659C25.0722 19.3369 25.24 19.2208 25.1561 19.1338C25.0442 19.0467 24.8205 19.2789 24.8205 19.2789L22.2199 21.2808L22.1919 21.2518Z" fill="white"/>
<path d="M22.3877 21.3968C22.3877 21.3968 25.1562 19.5399 25.2121 19.5109C25.268 19.4819 25.4638 19.3658 25.3519 19.2788C25.24 19.1918 25.0163 19.4239 25.0163 19.4239L22.4157 21.4258L22.3877 21.3968Z" fill="white"/>
<path d="M22.5552 21.5418C22.5552 21.5418 25.3236 19.6849 25.3796 19.6559C25.4355 19.6269 25.6033 19.5109 25.5194 19.4238C25.4075 19.3368 25.1838 19.5689 25.1838 19.5689L22.5831 21.5708L22.5552 21.5418Z" fill="white"/>
<path d="M22.7231 21.6868C22.7231 21.6868 25.4916 19.83 25.5475 19.801C25.6035 19.7719 25.7712 19.6559 25.6874 19.5688C25.5755 19.4818 25.3518 19.7139 25.3518 19.7139L22.7511 21.7158L22.7231 21.6868Z" fill="white"/>
<path d="M22.8906 21.8319C22.8906 21.8319 25.6591 19.975 25.715 19.946C25.7709 19.917 25.9387 19.8009 25.8548 19.7139C25.743 19.6268 25.5193 19.8589 25.5193 19.8589L22.9186 21.8609L22.8906 21.8319Z" fill="white"/>
<path d="M23.0586 21.9769C23.0586 21.9769 25.827 20.12 25.883 20.091C25.9389 20.062 26.1067 19.9459 26.0228 19.8589C25.9109 19.7718 25.6872 20.004 25.6872 20.004L23.0866 22.0059L23.0586 21.9769Z" fill="white"/>
<path d="M23.2266 22.1219C23.2266 22.1219 25.995 20.265 26.0509 20.236C26.1069 20.207 26.3026 20.0909 26.1908 20.0039C26.0789 19.9169 25.8552 20.149 25.8552 20.149L23.2545 22.1509L23.2266 22.1219Z" fill="white"/>
<path d="M23.4224 22.2669C23.4224 22.2669 26.1908 20.41 26.2467 20.381C26.3027 20.352 26.4984 20.236 26.3866 20.1489C26.2747 20.0619 26.051 20.294 26.051 20.294L23.4503 22.2959L23.4224 22.2669Z" fill="white"/>
<path d="M28.8193 16.0293C28.8193 16.0293 25.5475 15.8842 25.4636 15.8842C25.3797 15.8842 25.1839 15.8552 25.2399 16.0003C25.2678 16.1453 25.6034 16.0873 25.6034 16.0873L28.8473 16.0293H28.8193Z" fill="white"/>
<path d="M28.7353 15.8261C28.7353 15.8261 25.4635 15.6811 25.3796 15.6811C25.2957 15.6811 25.1 15.6521 25.1559 15.7971C25.1839 15.9422 25.5194 15.8842 25.5194 15.8842L28.7633 15.8261H28.7353Z" fill="white"/>
<path d="M28.6796 15.5937C28.6796 15.5937 25.4078 15.4487 25.3239 15.4487C25.24 15.4487 25.0443 15.4196 25.1002 15.5647C25.1282 15.7098 25.4638 15.6518 25.4638 15.6518L28.7076 15.5937H28.6796Z" fill="white"/>
<path d="M28.6235 15.3618C28.6235 15.3618 25.3517 15.2167 25.2678 15.2167C25.1839 15.2167 24.9881 15.1877 25.0441 15.3328C25.072 15.4778 25.4076 15.4198 25.4076 15.4198L28.6515 15.3618H28.6235Z" fill="white"/>
<path d="M28.5678 15.1587C28.5678 15.1587 25.296 15.0136 25.2121 15.0136C25.1282 15.0136 24.9325 14.9846 24.9884 15.1297C25.0164 15.2747 25.3519 15.2167 25.3519 15.2167L28.5958 15.1587H28.5678Z" fill="white"/>
<path d="M28.5117 14.9267C28.5117 14.9267 25.2399 14.7817 25.156 14.7817C25.0721 14.7817 24.8763 14.7527 24.9323 14.8977C24.9602 15.0428 25.2958 14.9848 25.2958 14.9848L28.5396 14.9267H28.5117Z" fill="white"/>
<path d="M28.4555 14.6943C28.4555 14.6943 25.1837 14.5492 25.0998 14.5492C25.0159 14.5492 24.8202 14.5202 24.8761 14.6653C24.9041 14.8104 25.2396 14.7523 25.2396 14.7523L28.4835 14.6943H28.4555Z" fill="white"/>
<path d="M28.372 14.4917C28.372 14.4917 25.1002 14.3466 25.0163 14.3466C24.9324 14.3466 24.7367 14.3176 24.7926 14.4627C24.8206 14.6077 25.1561 14.5497 25.1561 14.5497L28.4 14.4917H28.372Z" fill="white"/>
<path d="M28.3159 14.2593C28.3159 14.2593 25.0441 14.1142 24.9602 14.1142C24.8763 14.1142 24.6805 14.0852 24.7365 14.2302C24.7644 14.3753 25.1 14.3173 25.1 14.3173L28.3438 14.2593H28.3159Z" fill="white"/>
<path d="M28.2602 14.0561C28.2602 14.0561 24.9884 13.9111 24.9045 13.9111C24.8206 13.9111 24.6249 13.882 24.6808 14.0271C24.7088 14.1722 25.0443 14.1142 25.0443 14.1142L28.2882 14.0561H28.2602Z" fill="white"/>
<path d="M28.2041 13.8242C28.2041 13.8242 24.9322 13.6791 24.8484 13.6791C24.7645 13.6791 24.5687 13.6501 24.6246 13.7952C24.6526 13.9402 24.9882 13.8822 24.9882 13.8822L28.232 13.8242H28.2041Z" fill="white"/>
<path d="M24.6807 12.5767C24.6807 12.5767 23.646 15.7972 23.6181 15.8842C23.6181 15.9712 23.5062 16.1453 23.674 16.1453C23.8138 16.1453 23.8418 15.8262 23.8418 15.8262L24.6807 12.5767Z" fill="white"/>
<path d="M24.4571 12.5767C24.4571 12.5767 23.4224 15.7972 23.3944 15.8842C23.3944 15.9712 23.2826 16.1453 23.4504 16.1453C23.5902 16.1453 23.6461 15.8262 23.6461 15.8262L24.485 12.5767H24.4571Z" fill="white"/>
<path d="M24.233 12.5767C24.233 12.5767 23.1983 15.7972 23.1703 15.8842C23.1703 15.9712 23.0585 16.1453 23.2262 16.1453C23.3661 16.1453 23.394 15.8262 23.394 15.8262L24.233 12.5767Z" fill="white"/>
<path d="M24.0093 12.5767C24.0093 12.5767 22.9746 15.8262 22.9467 15.8842C22.9467 15.9712 22.8348 16.1453 23.0026 16.1453C23.1424 16.1453 23.1704 15.8262 23.1704 15.8262L24.0093 12.5767Z" fill="white"/>
<path d="M23.7857 12.5767C23.7857 12.5767 22.751 15.8262 22.723 15.8842C22.723 15.9712 22.6112 16.1453 22.779 16.1453C22.9188 16.1453 22.9747 15.8262 22.9747 15.8262L23.8137 12.5767H23.7857Z" fill="white"/>
<path d="M23.5621 12.5767C23.5621 12.5767 22.5274 15.7972 22.4994 15.8842C22.4994 15.9712 22.3876 16.1453 22.5553 16.1453C22.6952 16.1453 22.7511 15.8262 22.7511 15.8262L23.59 12.5767H23.5621Z" fill="white"/>
<path d="M23.3384 12.5767C23.3384 12.5767 22.3037 15.7972 22.2758 15.8842C22.2758 15.9712 22.1639 16.1453 22.3317 16.1453C22.4715 16.1453 22.4995 15.8262 22.4995 15.8262L23.3384 12.5767Z" fill="white"/>
<path d="M23.1148 12.5767C23.1148 12.5767 22.0801 15.7972 22.0521 15.8842C22.0521 15.9712 21.9403 16.1453 22.1081 16.1453C22.2479 16.1453 22.2759 15.8262 22.2759 15.8262L23.1148 12.5767Z" fill="white"/>
<path d="M22.919 12.5474C22.919 12.5474 21.8843 15.7969 21.8563 15.8549C21.8563 15.9419 21.7445 16.116 21.9123 16.116C22.0521 16.116 22.108 15.7969 22.108 15.7969L22.947 12.5474H22.919Z" fill="white"/>
<path d="M22.6954 12.5474C22.6954 12.5474 21.6607 15.7679 21.6327 15.8549C21.6327 15.9419 21.5209 16.116 21.6886 16.116C21.8285 16.116 21.8844 15.7969 21.8844 15.7969L22.7233 12.5474H22.6954Z" fill="white"/>
<path d="M22.4712 12.5474C22.4712 12.5474 21.4366 15.7679 21.4086 15.8549C21.4086 15.9419 21.2967 16.116 21.4645 16.116C21.6043 16.116 21.6603 15.7969 21.6603 15.7969L22.4992 12.5474H22.4712Z" fill="white"/>
<path d="M27.1693 21.2515C27.1693 21.2515 26.1626 17.944 26.1346 17.8859C26.1346 17.7989 26.0787 17.5958 25.9389 17.6829C25.827 17.7699 25.9668 18.06 25.9668 18.06L27.1413 21.2515H27.1693Z" fill="white"/>
<path d="M27.3373 21.1065C27.3373 21.1065 26.3306 17.799 26.3026 17.741C26.2746 17.6829 26.2467 17.4508 26.1068 17.5379C25.995 17.6249 26.1348 17.915 26.1348 17.915L27.3093 21.1065H27.3373Z" fill="white"/>
<path d="M27.5331 20.9903C27.5331 20.9903 26.5264 17.6827 26.4984 17.6247C26.4984 17.5377 26.4425 17.3346 26.3027 17.4216C26.1908 17.5087 26.3306 17.7988 26.3306 17.7988L27.5051 20.9903H27.5331Z" fill="white"/>
<path d="M27.7006 20.8453C27.7006 20.8453 26.6938 17.5377 26.6659 17.4797C26.6659 17.3927 26.61 17.1896 26.4701 17.2766C26.3583 17.3636 26.4981 17.6538 26.4981 17.6538L27.6726 20.8453H27.7006Z" fill="white"/>
<path d="M27.8964 20.7002C27.8964 20.7002 26.8896 17.3927 26.8617 17.3347C26.8617 17.2476 26.8058 17.0445 26.6659 17.1316C26.5541 17.2186 26.6939 17.5088 26.6939 17.5088L27.8684 20.7002H27.8964Z" fill="white"/>
<path d="M28.0643 20.5845C28.0643 20.5845 27.0576 17.277 27.0297 17.219C27.0297 17.1319 26.9737 16.9288 26.8339 17.0159C26.722 17.1029 26.8619 17.393 26.8619 17.393L28.0364 20.5845H28.0643Z" fill="white"/>
<path d="M28.2601 20.439C28.2601 20.439 27.2534 17.1315 27.2254 17.0734C27.2254 16.9864 27.1695 16.7833 27.0297 16.8704C26.9178 16.9574 27.0577 17.2475 27.0577 17.2475L28.2322 20.439H28.2601Z" fill="white"/>
<path d="M28.4559 20.294C28.4559 20.294 27.4492 16.9865 27.4213 16.9284C27.4213 16.8414 27.3653 16.6383 27.2255 16.7253C27.1136 16.8124 27.2535 17.1025 27.2535 17.1025L28.428 20.294H28.4559Z" fill="white"/>
<path d="M28.6234 20.149C28.6234 20.149 27.6167 16.8414 27.5887 16.7834C27.5887 16.6964 27.5328 16.4933 27.393 16.5803C27.2811 16.6674 27.4209 16.9575 27.4209 16.9575L28.5954 20.149H28.6234Z" fill="white"/>
<path d="M28.8192 20.0333C28.8192 20.0333 27.8125 16.7257 27.7845 16.6677C27.7845 16.5806 27.7286 16.3776 27.5888 16.4646C27.4769 16.5516 27.6167 16.8418 27.6167 16.8418L28.7912 20.0333H28.8192Z" fill="white"/>
<path d="M28.9872 19.8877C28.9872 19.8877 27.9805 16.5802 27.9525 16.5222C27.9525 16.4351 27.8966 16.232 27.7568 16.3191C27.6449 16.4061 27.7847 16.6963 27.7847 16.6963L28.9592 19.8877H28.9872Z" fill="white"/>
</g>
<circle cx="20" cy="20" r="19.5" stroke="black" stroke-opacity="0.05"/>
<defs>
<clipPath id="clip0_18553_55886">
<rect width="25" height="15" fill="white" transform="translate(7.03516 12.3154)"/>
</clipPath>
</defs>
</svg>
