<svg width="40" height="40" viewBox="0 0 40 40" fill="none" xmlns="http://www.w3.org/2000/svg">
<circle cx="20" cy="20" r="20" fill="#0067AC"/>
<g clip-path="url(#clip0_18553_55641)">
<path d="M6.97357 27.7123L6.66907 27.806C6.65865 27.8093 6.65099 27.8061 6.64609 27.7965C6.64098 27.7869 6.63864 27.7724 6.63904 27.753C6.64007 22.5994 6.63996 17.4466 6.63874 12.2945C6.63874 12.2654 6.62894 12.2366 6.62434 12.2081C6.62366 12.2037 6.62408 12.1993 6.62558 12.1952C6.62709 12.191 6.62961 12.1873 6.63293 12.1844C6.63625 12.1815 6.64026 12.1794 6.64459 12.1784C6.64892 12.1774 6.65344 12.1775 6.65773 12.1787C7.02821 12.2828 7.45576 12.3972 7.9404 12.5218C11.2612 13.3757 14.8627 14.3049 18.7449 15.3095C18.7493 15.3107 18.7532 15.3133 18.756 15.3169C18.7587 15.3205 18.7602 15.3249 18.7602 15.3295V17.3201C18.7602 17.326 18.7579 17.3317 18.7538 17.3359C18.7496 17.3401 18.744 17.3424 18.7382 17.3424L18.051 17.3409C18.0282 17.3409 18.0167 17.3295 18.0167 17.3066L18.0186 15.9627C18.0186 15.9296 18.0024 15.909 17.9702 15.9008L7.42543 13.2242C7.41951 13.2228 7.41655 13.2251 7.41655 13.231L7.41624 26.8067C7.41627 26.8074 7.41645 26.8082 7.41679 26.8088C7.41713 26.8095 7.41761 26.81 7.4182 26.8105C7.41879 26.8109 7.41947 26.8112 7.42019 26.8114C7.42091 26.8115 7.42166 26.8115 7.42237 26.8113L18.7146 23.8838C18.7438 23.8763 18.7585 23.8876 18.7587 23.9179C18.7601 24.1164 18.7601 24.3218 18.7587 24.5342C18.7583 24.5706 18.7545 24.6087 18.7474 24.6485C18.7457 24.6576 18.7415 24.6661 18.7352 24.6729C18.7289 24.6797 18.7208 24.6845 18.7118 24.6868L6.97357 27.7123Z" fill="white"/>
<path d="M30.5279 23.1825C28.4626 22.3309 28.227 19.522 30.0972 18.3208C31.0497 17.7093 32.3103 17.755 33.2177 18.4335C33.6796 18.7789 34.0013 19.2215 34.1827 19.7613C34.2513 19.9647 34.3297 20.1852 34.3465 20.3923C34.3623 20.5878 34.3587 20.7826 34.3358 20.9768C34.3147 21.1582 34.2399 21.3325 34.1845 21.5111C34.1018 21.7788 33.9678 22.0365 33.7826 22.284C33.0293 23.2907 31.6878 23.6604 30.5279 23.1825ZM32.9542 20.6402C32.9542 20.2745 32.809 19.9239 32.5504 19.6654C32.2919 19.4068 31.9413 19.2616 31.5756 19.2616C31.21 19.2616 30.8594 19.4068 30.6009 19.6654C30.3423 19.9239 30.1971 20.2745 30.1971 20.6402C30.1971 21.0058 30.3423 21.3564 30.6009 21.6149C30.8594 21.8735 31.21 22.0187 31.5756 22.0187C31.9413 22.0187 32.2919 21.8735 32.5504 21.6149C32.809 21.3564 32.9542 21.0058 32.9542 20.6402Z" fill="white"/>
<path d="M11.6184 21.001L10.5649 23.1877C10.5564 23.2052 10.5432 23.22 10.5267 23.2304C10.5101 23.2407 10.491 23.2462 10.4714 23.2462L8.81197 23.2471C8.78521 23.2471 8.77275 23.2338 8.77459 23.207C8.77888 23.1436 8.82544 23.0989 8.85455 23.0452C9.75663 21.3724 10.6564 19.7012 11.5538 18.0316C11.5728 17.9959 11.5912 17.9577 11.6092 17.917C11.611 17.913 11.6139 17.9095 11.6175 17.907C11.6212 17.9045 11.6254 17.9031 11.6298 17.9029C11.6343 17.9026 11.6386 17.9036 11.6425 17.9058C11.6464 17.9079 11.6496 17.911 11.6518 17.9149C11.6875 17.9772 11.7244 18.0437 11.7624 18.1146C12.6422 19.7517 13.5508 21.4448 14.4882 23.1938C14.4912 23.1993 14.4926 23.2054 14.4924 23.2116C14.4923 23.2178 14.4905 23.2238 14.4874 23.2291C14.4842 23.2344 14.4797 23.2388 14.4743 23.2418C14.4689 23.2449 14.4629 23.2465 14.4567 23.2465L12.8018 23.2474C12.7817 23.2474 12.762 23.2418 12.745 23.2311C12.728 23.2204 12.7143 23.2052 12.7056 23.1871C12.3897 22.528 12.0762 21.8729 11.7651 21.2216C11.7288 21.1456 11.6898 21.0717 11.6481 20.9998C11.6466 20.9971 11.6443 20.995 11.6417 20.9935C11.639 20.9921 11.6359 20.9913 11.6329 20.9915C11.6298 20.9916 11.6269 20.9925 11.6243 20.9942C11.6218 20.9959 11.6197 20.9982 11.6184 21.001Z" fill="white"/>
<path d="M16.2111 21.8046C16.2111 21.811 16.2135 21.817 16.2179 21.8215C16.2223 21.8261 16.2283 21.8287 16.2346 21.8288C16.2839 21.8303 16.3347 21.8312 16.3872 21.8316C17.1186 21.8365 17.8989 21.8386 18.7283 21.838C18.737 21.838 18.7453 21.8415 18.7515 21.8476C18.7576 21.8538 18.7611 21.8621 18.7611 21.8708L18.7596 23.2019C18.7596 23.2137 18.7549 23.225 18.7465 23.2333C18.7382 23.2416 18.7269 23.2463 18.7151 23.2463L14.8108 23.2469C14.8006 23.2469 14.7909 23.2429 14.7837 23.2357C14.7765 23.2285 14.7725 23.2188 14.7725 23.2086V18.0458C14.7725 18.0133 14.7888 17.9971 14.8215 17.9971C15.2514 17.9989 15.6752 17.9994 16.0928 17.9986C16.1286 17.9986 16.1639 18.001 16.1988 18.0056C16.2048 18.0065 16.2102 18.0095 16.2141 18.014C16.2181 18.0185 16.2202 18.0242 16.2203 18.0302C16.2198 19.2028 16.2196 20.3852 16.2196 21.5773C16.2196 21.6536 16.2114 21.7293 16.2111 21.8046Z" fill="white"/>
<path d="M23.1941 22.5703C22.8347 23.0733 22.2554 23.3478 21.6323 23.4262C20.777 23.534 19.8212 23.3156 19.3381 22.539C19.1004 22.157 19.0091 21.7064 19.0088 21.2548C19.008 20.1751 19.0077 19.1017 19.0079 18.0348C19.0079 18.0255 19.0116 18.0165 19.0182 18.0099C19.0248 18.0033 19.0338 17.9996 19.0431 17.9996C19.4673 18.0002 19.8509 17.9992 20.194 17.9965C20.2631 17.9961 20.3319 17.9986 20.4005 18.0039C20.409 18.0044 20.417 18.0082 20.4228 18.0144C20.4286 18.0206 20.4318 18.0288 20.4318 18.0373C20.4314 19.0672 20.4313 20.096 20.4315 21.1237C20.4317 21.3549 20.493 21.5537 20.6156 21.7202C20.9581 22.1858 21.7322 22.0878 21.9491 21.5541C22.0042 21.4181 22.0318 21.3009 22.0318 21.2024C22.0318 20.1255 22.0346 19.0684 22.0401 18.0311C22.0401 18.0231 22.0433 18.0154 22.049 18.0097C22.0547 18.004 22.0624 18.0008 22.0704 18.0008L23.5335 17.9956C23.5395 17.9956 23.5453 17.9967 23.5508 17.9989C23.5563 18.0012 23.5613 18.0045 23.5656 18.0087C23.5698 18.0129 23.5731 18.0179 23.5754 18.0233C23.5777 18.0288 23.5789 18.0347 23.5789 18.0406C23.5787 19.1222 23.5793 20.1934 23.5807 21.2542C23.5813 21.7214 23.4667 22.1883 23.1941 22.5703Z" fill="white"/>
<path d="M25.8807 19.6749C25.8801 19.7229 25.8962 19.7293 25.9291 19.6942C26.4368 19.1515 26.9425 18.6088 27.4461 18.0659C27.4892 18.0196 27.5422 17.9964 27.6051 17.9964C28.1733 17.997 28.7313 17.9969 29.279 17.9961C29.3172 17.9961 29.3552 17.9993 29.393 18.0056C29.3969 18.0063 29.4006 18.008 29.4037 18.0105C29.4068 18.013 29.4092 18.0163 29.4107 18.02C29.4122 18.0237 29.4128 18.0277 29.4123 18.0317C29.4118 18.0356 29.4103 18.0394 29.408 18.0427C29.3819 18.0782 29.3443 18.1009 29.3139 18.1336C28.601 18.9079 27.8831 19.6904 27.1603 20.4812C27.1219 20.5232 27.1215 20.5655 27.1591 20.608L29.449 23.1932C29.4531 23.1979 29.4557 23.2036 29.4566 23.2097C29.4575 23.2158 29.4566 23.2221 29.4541 23.2277C29.4515 23.2333 29.4474 23.2381 29.4422 23.2414C29.437 23.2448 29.431 23.2465 29.4248 23.2466C28.8499 23.247 28.2697 23.2472 27.6842 23.2472C27.6015 23.2472 27.4924 23.2561 27.4333 23.1877C26.9954 22.6814 26.5605 22.1769 26.1285 21.6741C26.0552 21.5887 25.9806 21.5061 25.9046 21.4262C25.9005 21.422 25.8957 21.4193 25.8902 21.4183C25.8875 21.4177 25.8846 21.4178 25.8819 21.4185C25.8792 21.4192 25.8766 21.4205 25.8745 21.4224C25.8724 21.4242 25.8707 21.4265 25.8696 21.4291C25.8685 21.4317 25.868 21.4345 25.8681 21.4373C25.872 21.4981 25.8742 21.5533 25.8746 21.6027C25.8785 22.0549 25.8789 22.5556 25.8758 23.105C25.8758 23.1399 25.8841 23.1761 25.8804 23.2098C25.8793 23.2191 25.8748 23.2277 25.8678 23.234C25.8608 23.2402 25.8518 23.2437 25.8424 23.2438C25.4131 23.2487 24.9478 23.2489 24.4464 23.2444C24.4186 23.2442 24.4047 23.2302 24.4047 23.2024L24.4014 18.0264C24.4014 18.0192 24.4042 18.0123 24.4093 18.0071C24.4143 18.002 24.4212 17.9992 24.4283 17.9992C24.8738 17.9996 25.3068 17.9996 25.7275 17.9992C25.7739 17.9992 25.8189 18.0009 25.8626 18.0044C25.8682 18.0048 25.8734 18.0072 25.8772 18.0113C25.881 18.0154 25.8831 18.0208 25.8832 18.0264C25.8868 18.6559 25.886 19.2053 25.8807 19.6749Z" fill="white"/>
</g>
<circle cx="20" cy="20" r="19.5" stroke="black" stroke-opacity="0.05"/>
<defs>
<clipPath id="clip0_18553_55641">
<rect width="28" height="15.6849" fill="white" transform="translate(6.5 12.1577)"/>
</clipPath>
</defs>
</svg>
