<svg width="40" height="40" viewBox="0 0 40 40" fill="none" xmlns="http://www.w3.org/2000/svg">
<circle cx="20" cy="20" r="20" fill="#920E14"/>
<path d="M26.3444 14.1001C27.5079 15.0103 28.1809 16.3401 28.3796 17.8705C28.7668 15.3833 28.1221 13.0987 26.389 11.7446C23.3017 9.33034 17.94 10.7878 14.4128 14.9981C12.2134 17.6212 11.2445 20.6943 11.5749 23.2221C11.8789 21.2761 12.8175 19.2044 14.3662 17.3557C17.8954 13.1433 23.2591 11.6858 26.3444 14.1001Z" fill="white"/>
<path d="M22.4986 26.1656C19.7114 29.4759 15.6916 30.4164 13.5206 28.2677C11.3495 26.121 11.8502 21.6978 14.6375 18.3896C17.4248 15.0814 21.4445 14.1408 23.6156 16.2875C25.7866 18.4342 25.2879 22.8574 22.4986 26.1656Z" fill="white"/>
<path d="M26.6282 15.6188C25.4403 14.2302 23.1152 13.4234 20.8671 14.4005C22.3348 14.4005 23.6301 15.0695 24.376 15.7424C25.9004 17.1168 26.2653 19.5777 25.5356 22.0832C25.1403 23.5934 24.3801 25.13 23.2814 26.4719C22.2699 27.7044 21.1144 28.6024 19.959 29.1315C21.6962 28.9713 23.6321 27.8645 25.2132 25.9347C27.9802 22.5576 28.6127 17.9398 26.6282 15.6188Z" fill="white"/>
<circle cx="20" cy="20" r="19.5" stroke="black" stroke-opacity="0.05"/>
</svg>
