<svg width="40" height="40" viewBox="0 0 40 40" fill="none" xmlns="http://www.w3.org/2000/svg">
<circle cx="20" cy="20" r="20" fill="#F6F8FA"/>
<g clip-path="url(#clip0_18553_55585)">
<path d="M22.6964 30.0013C22.4155 30.3274 22.0798 30.5633 21.6893 30.716C21.1891 30.9102 20.5725 31.0143 20.0449 30.9172C19.6475 30.8408 19.2913 30.6951 18.9692 30.4731C18.1539 29.9181 17.6058 29.0508 17.3934 28.0794C17.3728 27.9823 17.3591 27.8782 17.3454 27.7672C17.3249 27.4828 17.3112 27.233 17.3386 26.9347C17.4345 25.8731 17.9758 24.9295 18.8048 24.319C19.4899 23.8125 20.2984 23.6668 21.1411 23.7917C21.7304 23.8819 22.2511 24.1455 22.6964 24.5826C22.6964 24.5826 22.7101 24.5826 22.717 24.5826C22.717 24.5826 22.717 24.5757 22.717 24.5687V19.8855C22.717 19.8855 22.7307 19.8369 22.7649 19.8369C23.546 19.8369 24.2791 19.8369 24.9643 19.8369C24.9985 19.8369 25.0328 19.8369 25.067 19.8508C25.0807 19.8508 25.0876 19.8647 25.0876 19.8716C25.0876 19.934 25.0876 19.9896 25.0876 20.0451C25.0807 23.2227 25.0739 26.789 25.0876 30.7368C25.0876 30.7437 25.0876 30.7506 25.0739 30.7506H22.7786C22.7786 30.7506 22.7375 30.7298 22.7375 30.709V30.0152C22.7375 29.9805 22.7307 29.9736 22.7033 30.0013H22.6964ZM22.7786 27.1289C22.6622 26.3102 21.9017 25.7482 21.0726 25.8662C20.2436 25.9841 19.6681 26.7473 19.7846 27.5591C19.901 28.3778 20.6615 28.9398 21.4906 28.8218C22.3196 28.7039 22.8951 27.9407 22.7786 27.1289Z" fill="#070908"/>
<path d="M14.3986 24.5273C14.3986 24.5273 14.4465 24.5551 14.4465 24.5135V23.9653C14.4465 23.9653 14.4602 23.9376 14.4739 23.9376C15.2002 23.9376 15.9127 23.9376 16.6184 23.9376C16.6801 23.9376 16.7418 23.9376 16.8103 23.9445C16.824 23.9445 16.8377 23.9584 16.8377 23.9792V30.7231C16.8377 30.7231 16.824 30.7578 16.8034 30.7578H14.4328C14.4328 30.7578 14.4054 30.7439 14.4054 30.7231C14.4054 30.5219 14.4054 30.3207 14.4054 30.1195C14.4054 30.1056 14.4054 30.0917 14.3917 30.0848C14.3917 30.0779 14.3712 30.0709 14.3643 30.0848C13.871 30.619 13.2612 30.8688 12.5555 30.9521C11.425 31.0839 10.3631 30.5705 9.69847 29.6338C9.32849 29.1135 9.10925 28.5445 9.03388 27.927C9.01333 27.7397 8.99963 27.4552 9.01333 27.0736C9.01333 26.8377 9.04759 26.6018 9.1024 26.3798C9.41756 25.1101 10.3288 24.1388 11.5895 23.8196C12.0691 23.6948 12.5555 23.667 13.0351 23.7364C13.5353 23.8058 13.9053 24.0625 14.2889 24.3955C14.3369 24.4371 14.3643 24.4857 14.4054 24.5343L14.3986 24.5273ZM13.1859 28.8914C14.0149 28.7874 14.5973 28.0103 14.4876 27.1569C14.378 26.3035 13.6244 25.6999 12.8022 25.804C11.9732 25.908 11.3908 26.6851 11.5004 27.5385C11.61 28.3919 12.3637 28.9955 13.1859 28.8914Z" fill="#070908"/>
<path d="M28.6979 30.9518C27.3208 30.7298 26.156 29.6474 25.8203 28.2806C25.7792 28.1141 25.7655 27.9545 25.7381 27.788C25.7244 27.7186 25.7175 27.6423 25.7175 27.5729C25.7038 27.0734 25.7724 26.6224 25.9094 26.2338C26.1971 25.429 26.7041 24.8046 27.4373 24.3536C28.0402 23.9789 28.7322 23.7916 29.4995 23.7847C30.0203 23.7847 30.4793 23.9165 30.9452 24.1316C30.9726 24.1455 30.9932 24.1732 30.9932 24.2079V26.2061C30.9932 26.2061 30.9795 26.2269 30.9726 26.2269C30.9726 26.2269 30.9589 26.2269 30.9589 26.22C30.7328 25.9771 30.4245 25.8175 30.0956 25.762C29.7873 25.7135 29.4995 25.7482 29.2255 25.8522C28.9857 25.9494 28.787 26.0812 28.6294 26.2477C28.3965 26.4975 28.2526 26.7889 28.1909 27.1219C28.1224 27.5313 28.2115 27.9198 28.4581 28.2875C28.6705 28.6067 28.9788 28.8287 29.3762 28.9467C29.4516 28.9675 29.5269 28.9813 29.5955 28.9883C29.7051 28.9952 29.7942 29.023 29.9106 29.0091C30.0545 28.9952 30.1778 28.9744 30.2806 28.9467C30.5273 28.8842 30.7397 28.7663 30.9109 28.5859C30.9658 28.5234 31 28.5373 31 28.6206V30.5563C31 30.5563 31 30.5771 30.9863 30.5841C30.6163 30.7783 30.2189 30.931 29.7804 30.9657C29.3968 31.0004 29.0336 30.9865 28.6979 30.931V30.9518Z" fill="#070908"/>
<path d="M13.1799 28.8935C14.0058 28.7878 14.5893 28.0118 14.483 27.1603C14.3768 26.3087 13.6211 25.704 12.7952 25.8097C11.9693 25.9153 11.3859 26.6913 11.4922 27.5429C11.5984 28.3944 12.354 28.9991 13.1799 28.8935Z" fill="#EC6F2E"/>
<path d="M13.1521 21.0166C14.2911 21.0166 15.2144 20.0816 15.2144 18.9282C15.2144 17.7748 14.2911 16.8398 13.1521 16.8398C12.0132 16.8398 11.0898 17.7748 11.0898 18.9282C11.0898 20.0816 12.0132 21.0166 13.1521 21.0166Z" fill="#EC6F2E"/>
<path d="M13.1515 13.3567C14.6121 13.3567 15.7962 12.1577 15.7962 10.6786C15.7962 9.19953 14.6121 8.00049 13.1515 8.00049C11.6909 8.00049 10.5068 9.19953 10.5068 10.6786C10.5068 12.1577 11.6909 13.3567 13.1515 13.3567Z" fill="#EC6F2E"/>
</g>
<circle cx="20" cy="20" r="19.5" stroke="black" stroke-opacity="0.05"/>
<defs>
<clipPath id="clip0_18553_55585">
<rect width="22" height="23" fill="white" transform="translate(9 8.00049)"/>
</clipPath>
</defs>
</svg>
