<svg width="40" height="40" viewBox="0 0 40 40" fill="none" xmlns="http://www.w3.org/2000/svg">
<circle cx="20" cy="20" r="20" fill="#F6F8FA"/>
<path d="M22.3418 12.8918C22.3016 14.3264 22.2949 15.7398 22.3219 17.1322" stroke="#404D57" stroke-width="0.142032"/>
<path d="M22.3226 17.1323L21.8809 17.459" stroke="#6C8238" stroke-width="0.142032"/>
<path d="M15.9646 20.9579C15.9281 20.9754 15.9099 20.9712 15.9099 20.9451C15.9061 19.5456 15.9042 18.1459 15.9042 16.746C15.9042 16.7355 15.8983 16.7265 15.8864 16.719C15.8661 16.7062 15.8597 16.7114 15.8673 16.7346C15.8711 16.7464 15.8701 16.7573 15.8644 16.7673C15.8606 16.7734 15.8554 16.7774 15.8488 16.7793C15.8379 16.7826 15.8242 16.78 15.8076 16.7715" stroke="#364B5D" stroke-width="0.142032"/>
<path d="M22.8154 18.5107L22.5342 18.6933" stroke="#687C30" stroke-width="0.142032"/>
<path d="M11.2183 30.0151C10.8694 30.489 10.5474 30.9709 10.2525 31.4609C10.2463 31.4713 10.239 31.4735 10.2305 31.4673C10.2196 31.4598 10.217 31.45 10.2226 31.4382C10.7538 30.2944 11.3419 29.2194 11.9867 28.2134" stroke="#526F2B" stroke-width="0.142032"/>
<path d="M12.9308 26.8201L11.9863 28.2134" stroke="#5D7A36" stroke-width="0.142032"/>
<path d="M11.9867 28.2136C11.9185 27.6914 11.9003 27.2215 11.932 26.804C11.9348 26.7656 11.91 26.7398 11.8574 26.7266" stroke="#1C3850" stroke-width="0.142032"/>
<path d="M23.6713 16.197L22.6963 16.8688" stroke="#818C28" stroke-width="0.142032"/>
<path d="M22.6958 16.8687L22.3223 17.1321" stroke="#687C30" stroke-width="0.142032"/>
<path d="M24.2649 17.679L22.8154 18.5106" stroke="#818C28" stroke-width="0.142032"/>
<path d="M22.8156 18.5107C22.8317 18.4662 22.8459 18.4271 22.8582 18.3935C22.8729 18.3542 22.8805 18.3138 22.8809 18.2721C22.8824 17.7991 22.8814 17.3392 22.8781 16.8923C22.8776 16.7999 22.8478 16.7895 22.7886 16.861C22.7313 16.9306 22.7006 16.9332 22.6963 16.8688" stroke="#ACC209" stroke-width="0.142032"/>
<path d="M22.3425 12.8919C22.3023 14.3264 22.2956 15.7398 22.3226 17.1322L21.8809 17.4589L19.8562 13.6205C19.8547 13.6175 19.8523 13.615 19.8494 13.6133C19.8466 13.6115 19.8433 13.6106 19.8399 13.6106C19.8365 13.6106 19.8332 13.6115 19.8304 13.6133C19.8275 13.615 19.8251 13.6175 19.8236 13.6205L15.9646 20.9578C15.9281 20.9754 15.9099 20.9711 15.9099 20.9451C15.9061 19.5456 15.9042 18.1458 15.9042 16.7459C15.9042 16.7355 15.8983 16.7265 15.8864 16.7189C15.8661 16.7061 15.8597 16.7113 15.8673 16.7345C15.8711 16.7464 15.8701 16.7573 15.8644 16.7672C15.8606 16.7733 15.8554 16.7774 15.8488 16.7793C15.8379 16.7826 15.8242 16.78 15.8076 16.7715C17.0717 13.5833 18.3367 10.3954 19.6027 7.20775C19.6652 7.05152 19.7554 6.95778 19.9294 7.01885C20.0508 7.06146 20.0835 7.21272 20.1268 7.32138C20.8829 9.2014 21.6214 11.0582 22.3425 12.8919Z" fill="#44535F"/>
<path d="M22.3428 12.8918L23.6715 16.1969L22.6964 16.8687L22.3229 17.1322C22.2959 15.7398 22.3025 14.3264 22.3428 12.8918Z" fill="#3C464F"/>
<path d="M24.265 17.679L22.8156 18.5106C22.8317 18.4661 22.8459 18.4271 22.8582 18.3935C22.8729 18.3542 22.8805 18.3137 22.8809 18.272C22.8824 17.7991 22.8814 17.3391 22.8781 16.8922C22.8776 16.7999 22.8478 16.7895 22.7886 16.8609C22.7313 16.9305 22.7006 16.9331 22.6963 16.8688L23.6713 16.1969C24.4445 15.6833 25.2453 15.2264 26.0738 14.8263C26.7508 14.4997 27.4468 14.2556 28.1617 14.0942C28.6413 13.9857 29.0917 13.9614 29.5131 14.021C31.3361 14.2781 31.2693 16.2275 30.9235 17.5654C30.7829 18.1103 30.6136 18.625 30.4157 19.1093C29.685 20.9003 28.6517 22.6139 27.5282 24.2153C27.523 24.2229 27.5164 24.2243 27.5083 24.2196V24.2189C27.5026 24.2156 27.5015 24.2108 27.5048 24.2047C28.3619 22.746 29.1765 21.0871 29.4797 19.4892C29.685 18.4091 29.6104 17.0001 28.3094 16.6763C27.8558 16.5631 27.3635 16.5691 26.8323 16.6941C25.9384 16.9043 25.0827 17.2326 24.265 17.679Z" fill="#C5D201"/>
<path d="M15.9643 20.9579L12.9376 26.7684C12.9325 26.7781 12.9305 26.7893 12.9319 26.8004C12.9328 26.8075 12.9326 26.8141 12.9312 26.8203L11.9867 28.2136C11.9185 27.6914 11.9003 27.2215 11.932 26.8039C11.9348 26.7656 11.91 26.7398 11.8574 26.7265L15.8073 16.7715C15.8239 16.78 15.8376 16.7826 15.8485 16.7793C15.8551 16.7774 15.8604 16.7734 15.8641 16.7673C15.8698 16.7573 15.8708 16.7464 15.867 16.7346C15.8594 16.7114 15.8658 16.7062 15.8862 16.719C15.898 16.7265 15.9039 16.7355 15.9039 16.746C15.9039 18.1459 15.9058 19.5456 15.9096 20.9451C15.9096 20.9712 15.9278 20.9754 15.9643 20.9579Z" fill="#27435A"/>
<path d="M22.8152 18.5107L22.534 18.6932C21.0715 19.6652 19.6562 20.7697 18.2879 22.0068C15.7181 24.33 13.439 26.8768 11.4505 29.6474C11.4174 29.6938 11.3793 29.7551 11.3362 29.8313C11.2974 29.8995 11.2581 29.9608 11.2183 30.0153C10.8694 30.4892 10.5474 30.9711 10.2525 31.4612C10.2463 31.4716 10.239 31.4737 10.2305 31.4676C10.2196 31.46 10.217 31.4503 10.2226 31.4384C10.7538 30.2946 11.3419 29.2197 11.9867 28.2136L12.9312 26.8203C12.962 26.7748 12.9932 26.7298 13.0249 26.6853C15.5432 23.1951 18.495 20.1197 21.8806 17.459L22.3223 17.1323L22.6959 16.8688C22.7001 16.9332 22.7309 16.9306 22.7882 16.861C22.8474 16.7895 22.8772 16.7999 22.8777 16.8923C22.881 17.3392 22.8819 17.7991 22.8805 18.2721C22.88 18.3138 22.8725 18.3542 22.8578 18.3935C22.8455 18.4271 22.8313 18.4662 22.8152 18.5107Z" fill="#93B111"/>
<path d="M24.2648 17.679L29.6876 31.2494C29.7421 31.3862 29.7077 31.4946 29.5846 31.5746C29.569 31.5846 29.552 31.5905 29.5335 31.5924C29.4118 31.6052 29.3311 31.5737 29.2913 31.4979C27.0501 27.2526 24.7977 22.9843 22.5342 18.6931L22.8154 18.5106L24.2648 17.679Z" fill="#3C464F"/>
<path d="M11.8577 26.7266C11.9102 26.7398 11.9351 26.7656 11.9322 26.804C11.9005 27.2215 11.9187 27.6914 11.9869 28.2136C11.3421 29.2197 10.7541 30.2946 10.2229 31.4385C10.2172 31.4503 10.2198 31.46 10.2307 31.4676C10.2392 31.4737 10.2465 31.4716 10.2527 31.4612C10.5476 30.9712 10.8696 30.4892 11.2185 30.0153C10.9861 30.5115 10.7257 31.0136 10.4373 31.5216C10.4028 31.5826 10.3268 31.6054 10.2094 31.5897C10.189 31.5869 10.1706 31.5798 10.154 31.5684C10.0394 31.4908 10.0077 31.3878 10.0588 31.2595L11.8577 26.7266Z" fill="#112C45"/>
<path d="M26.9966 30.8263C28.054 31.3035 29.078 31.9718 29.698 32.9504C29.701 32.9553 29.7027 32.961 29.7028 32.9668C29.7029 32.9726 29.7015 32.9783 29.6987 32.9833C29.6959 32.9884 29.6918 32.9926 29.6868 32.9956C29.6818 32.9985 29.6761 33.0001 29.6703 33.0001H10.0692C10.0647 33.0002 10.0603 32.999 10.0564 32.9968C10.0525 32.9945 10.0493 32.9913 10.0471 32.9873C10.0449 32.9834 10.0438 32.9789 10.044 32.9744C10.0441 32.9699 10.0455 32.9656 10.0479 32.9618C10.7673 31.8063 12.0662 31.0671 13.3452 30.5756C14.5065 30.1287 15.7694 29.8191 17.1339 29.6467C19.6682 29.3258 22.1204 29.4389 24.4904 29.9862C25.3705 30.1893 26.2059 30.4693 26.9966 30.8263Z" fill="#E5E5E5"/>
<circle cx="20" cy="20" r="19.5" stroke="black" stroke-opacity="0.05"/>
</svg>
