<svg width="40" height="40" viewBox="0 0 40 40" fill="none" xmlns="http://www.w3.org/2000/svg">
<circle cx="20" cy="20" r="20" fill="#00919F"/>
<path d="M33.9314 18.576C33.9314 18.8737 33.6896 19.1155 33.392 19.1155C33.0943 19.1155 32.8525 18.8737 32.8525 18.576C32.8525 18.2784 33.0943 18.0366 33.392 18.0366C33.6896 18.0366 33.9314 18.2784 33.9314 18.576ZM33.3474 18.6358C33.4451 18.6386 33.5 18.687 33.5105 18.7818C33.5171 18.8387 33.5399 18.887 33.5768 18.9268C33.6176 18.9714 33.6375 18.9628 33.6375 18.9031C33.6375 18.8131 33.6138 18.7306 33.5664 18.6576C33.5465 18.6263 33.5484 18.5969 33.573 18.5694C33.646 18.4869 33.6565 18.3959 33.6062 18.2964C33.5835 18.2518 33.5465 18.2281 33.4962 18.2272L33.2573 18.2196C33.2166 18.2196 33.1967 18.2385 33.1976 18.2784L33.2005 18.9183C33.2005 18.9391 33.2109 18.9486 33.2318 18.9477L33.2602 18.9458C33.2744 18.9448 33.282 18.9363 33.2829 18.9221L33.2953 18.6841C33.2962 18.6509 33.3142 18.6348 33.3474 18.6358Z" fill="#00919F"/>
<path d="M33.292 18.3356C33.292 18.3119 33.3119 18.292 33.3356 18.292H33.3726C33.4588 18.292 33.529 18.3432 33.529 18.4067V18.4408C33.529 18.5044 33.4588 18.5555 33.3726 18.5555H33.3356C33.3119 18.5555 33.292 18.5356 33.292 18.5119V18.3356Z" fill="#00919F"/>
<path d="M19.6729 19.3612C19.6729 19.3403 19.6899 19.3232 19.7108 19.3232H20.4976C20.8266 19.3232 21.093 19.5925 21.093 19.9252V23.9449C21.093 24.2776 20.8266 24.5469 20.4976 24.5469H19.7108C19.6899 24.5469 19.6729 24.5298 19.6729 24.509V19.3612Z" fill="#00919F"/>
<path d="M9.31715 17.9135C9.68024 17.7751 9.90587 17.4205 9.90682 17.029C9.90682 16.1596 9.90777 15.2476 9.90777 14.2929C9.90777 14.1318 10.0376 14.0009 10.1988 14H13.5766C13.7511 14 13.8923 14.1413 13.8923 14.3157V17.6641C13.8923 17.868 13.7909 17.9722 13.5871 17.977C12.7395 17.9978 11.9053 17.9997 11.0833 17.9836C10.4728 17.9722 9.98172 18.3145 9.98362 18.944C9.98646 19.8958 9.98646 20.804 9.98362 21.6677C9.98362 21.8383 9.8452 21.9767 9.67456 21.9767H6.30716C6.13746 21.9767 6 21.8392 6 21.6696V18.2633C6 18.1163 6.1185 17.9959 6.26544 17.994C7.08549 17.9836 7.89795 17.9827 8.70283 17.994C8.96543 17.9969 9.17021 17.9703 9.31715 17.9144V17.9135Z" fill="white"/>
<path d="M29.5498 24.6018C29.9082 24.4103 29.9205 23.8614 29.7527 23.5428C29.6228 23.2954 29.4266 23.0754 29.1621 22.883C28.7402 22.5768 28.3335 22.2725 27.942 21.9719C27.2319 21.4259 26.8944 20.7224 26.9304 19.8616C26.9522 19.345 27.065 18.9354 27.2698 18.6339C27.7903 17.8698 28.8492 17.7248 29.7243 17.8414C30.9027 17.9988 31.5995 18.7107 31.5739 19.9697C31.5691 20.1887 31.3843 20.2683 31.1946 20.2702C30.8524 20.2731 30.5396 20.2721 30.257 20.2674C29.839 20.2608 29.9233 19.9119 29.8883 19.6341C29.8522 19.3497 29.6844 19.1914 29.3839 19.1591C28.9696 19.1146 28.725 19.2682 28.652 19.6189C28.5108 20.2911 28.9289 20.7632 29.4294 21.1206C29.875 21.4373 30.2836 21.7463 30.6552 22.0478C31.0467 22.3644 31.3027 22.7218 31.4241 23.12C31.6165 23.7495 31.5549 24.6188 31.1861 25.1896C30.9349 25.5773 30.5614 25.8352 30.0636 25.9612C28.9345 26.2485 27.3921 26.0295 26.9456 24.7487C26.8347 24.4292 26.7901 24.0491 26.8138 23.6082C26.8252 23.3902 26.9873 23.3087 27.1845 23.3115C27.5248 23.3172 27.8471 23.32 28.1515 23.3191C28.3449 23.3181 28.4444 23.5011 28.434 23.6765C28.4084 24.105 28.4378 24.5601 28.9526 24.6672C29.1801 24.7146 29.3792 24.6928 29.5498 24.6018Z" fill="white"/>
<path d="M33.9996 18.5769C33.9996 18.9125 33.7275 19.1846 33.3919 19.1846C33.0563 19.1846 32.7842 18.9125 32.7842 18.5769C32.7842 18.2413 33.0563 17.9692 33.3919 17.9692C33.7275 17.9692 33.9996 18.2413 33.9996 18.5769ZM33.9313 18.576C33.9313 18.2783 33.6895 18.0366 33.3919 18.0366C33.0942 18.0366 32.8524 18.2783 32.8524 18.576C32.8524 18.8737 33.0942 19.1154 33.3919 19.1154C33.6895 19.1154 33.9313 18.8737 33.9313 18.576Z" fill="white"/>
<path d="M16.6915 25.5787C16.6915 25.7512 16.5521 25.8906 16.3796 25.8906H15.1566C14.9841 25.8906 14.8447 25.7512 14.8447 25.5787V18.2997C14.8447 18.1272 14.9841 17.9878 15.1566 17.9878H16.3796C16.5521 17.9878 16.6915 18.1272 16.6915 18.2997V25.5787Z" fill="white"/>
<path d="M17.917 18.3079C17.917 18.1334 18.0582 17.9922 18.2327 17.9922H20.8218C21.9357 17.9922 22.8392 18.8293 22.8392 19.8617V24.0179C22.8392 25.0503 21.9357 25.8874 20.8218 25.8874H18.2327C18.0582 25.8874 17.917 25.7461 17.917 25.5717V18.3079ZM19.6727 19.3611V24.5089C19.6727 24.5298 19.6898 24.5469 19.7107 24.5469H20.4975C20.8265 24.5469 21.0929 24.2776 21.0929 23.9449V19.9252C21.0929 19.5925 20.8265 19.3232 20.4975 19.3232H19.7107C19.6898 19.3232 19.6727 19.3403 19.6727 19.3611Z" fill="white"/>
<path d="M25.9156 25.5948C25.9156 25.7578 25.7828 25.8906 25.6198 25.8906H24.3798C24.2167 25.8906 24.084 25.7578 24.084 25.5948V18.2836C24.084 18.1205 24.2167 17.9878 24.3798 17.9878H25.6198C25.7828 17.9878 25.9156 18.1205 25.9156 18.2836V25.5948Z" fill="white"/>
<path d="M33.2959 18.6838L33.2836 18.9218C33.2836 18.936 33.275 18.9445 33.2608 18.9455L33.2324 18.9474C33.2115 18.9483 33.2011 18.9388 33.2011 18.918L33.1982 18.278C33.1982 18.2382 33.2172 18.2183 33.258 18.2193L33.4969 18.2269C33.5471 18.2278 33.5841 18.2515 33.6068 18.2961C33.6571 18.3956 33.6467 18.4866 33.5737 18.5691C33.549 18.5966 33.5471 18.626 33.567 18.6573C33.6144 18.7303 33.6381 18.8127 33.6381 18.9028C33.6381 18.9625 33.6182 18.9711 33.5775 18.9265C33.5405 18.8867 33.5177 18.8383 33.5111 18.7815C33.5007 18.6866 33.4457 18.6383 33.348 18.6355C33.3148 18.6345 33.2968 18.6506 33.2959 18.6838ZM33.2921 18.3349V18.5113C33.2921 18.535 33.312 18.5549 33.3357 18.5549H33.3727C33.4589 18.5549 33.5291 18.5037 33.5291 18.4402V18.406C33.5291 18.3425 33.4589 18.2913 33.3727 18.2913H33.3357C33.312 18.2913 33.2921 18.3112 33.2921 18.3349Z" fill="white"/>
<circle cx="20" cy="20" r="19.5" stroke="black" stroke-opacity="0.05"/>
</svg>
