<svg width="40" height="40" viewBox="0 0 40 40" fill="none" xmlns="http://www.w3.org/2000/svg">
<circle cx="20" cy="20" r="20" fill="#F6F8FA"/>
<path d="M12.1744 17.105L9.62695 22.1743H14.7157L12.1744 17.105ZM12.1744 18.5113L13.6966 21.5489H10.6526L12.1744 18.5113Z" fill="#51B848"/>
<path d="M32.5699 19.543L30.1514 17.1311V22.1743H34.9884V17.1311L32.5699 19.543ZM30.7829 18.627L32.1307 19.9817L30.7829 21.3296V18.627ZM34.3559 21.5553H31.422L34.3559 18.627V21.5553Z" fill="#ED1C24"/>
<path d="M27.2951 17.2795C25.9269 17.2795 24.8184 18.3886 24.8184 19.7564C24.8184 21.1241 25.9269 22.2334 27.2951 22.2334C28.6633 22.2334 29.772 21.1241 29.772 19.7564C29.772 18.3886 28.6633 17.2795 27.2951 17.2795ZM27.2951 21.5985C26.2774 21.5985 25.4528 20.7739 25.4528 19.7564C25.4528 18.7388 26.2774 17.914 27.2951 17.914C28.3128 17.914 29.1377 18.7388 29.1377 19.7564C29.1377 20.7739 28.3128 21.5985 27.2951 21.5985Z" fill="#F79434"/>
<path d="M22.746 21.5784V17.9475C23.0243 17.9961 23.2877 18.108 23.5158 18.2745C23.744 18.4411 23.9309 18.6578 24.062 18.908L24.6293 18.6182C24.4166 18.2244 24.1071 17.8895 23.7262 17.6571C23.3392 17.4117 22.8877 17.283 22.4304 17.283C21.7657 17.283 21.1468 17.541 20.6821 18.0119C20.2111 18.476 19.96 19.1015 19.96 19.7597C19.96 20.4238 20.2111 21.0429 20.6821 21.5072C21.1468 21.9776 21.7657 22.23 22.4304 22.23C22.8877 22.23 23.3392 22.1069 23.7262 21.8619C24.1071 21.6301 24.4166 21.2943 24.6293 20.9011L24.062 20.6109C23.7909 21.1268 23.3007 21.4816 22.746 21.5784ZM22.1138 21.5784C21.2435 21.4301 20.5856 20.6752 20.5856 19.7597C20.5856 18.8503 21.2435 18.0891 22.1138 17.9408V21.5784Z" fill="#7C51A1"/>
<path d="M17.0269 17.3311V19.0856L14.9893 17.1703V22.1755H17.659V20.543L19.581 22.3428V17.3311H17.0269ZM17.0269 21.5494H15.6207V18.6278L17.0269 19.9497V21.5494ZM18.9488 20.8847L17.659 19.6789V17.9635H18.9488V20.8847Z" fill="#00A6E5"/>
<path d="M8.71481 17.3306V18.5368H5.63204V17.3306H5V22.1743H5.63204V20.9745H8.71481V22.1743H9.35316V17.3306H8.71481ZM8.71481 20.3424H5.63204V19.1753H8.71481V20.3424Z" fill="#024EA2"/>
<circle cx="20" cy="20" r="19.5" stroke="black" stroke-opacity="0.05"/>
</svg>
