<svg width="40" height="40" viewBox="0 0 40 40" fill="none" xmlns="http://www.w3.org/2000/svg">
<circle cx="20" cy="20" r="20" fill="#0646FF"/>
<path d="M20.0001 9.52393C17.9281 9.52393 15.9027 10.1383 14.1799 11.2895C12.4571 12.4406 11.1143 14.0768 10.3214 15.9911C9.52847 17.9053 9.321 20.0117 9.72523 22.0439C10.1295 24.0761 11.1272 25.9428 12.5923 27.4079C14.0575 28.873 15.9241 29.8708 17.9563 30.275C19.9885 30.6792 22.0949 30.4718 24.0092 29.6789C25.9235 28.8859 27.5596 27.5432 28.7108 25.8204C29.8619 24.0976 30.4763 22.0721 30.4763 20.0001C30.4765 18.6243 30.2057 17.2619 29.6793 15.9908C29.1529 14.7197 28.3812 13.5647 27.4084 12.5919C26.4355 11.619 25.2805 10.8474 24.0094 10.321C22.7383 9.79455 21.3759 9.52372 20.0001 9.52393ZM20.2188 28.5572C18.9604 28.7334 16.9265 28.4157 15.5438 27.5427C14.5014 26.8949 13.6684 25.9598 13.145 24.8497C12.6731 23.8571 12.4418 22.6475 12.9499 22.7135C13.189 22.7403 13.3951 23.1933 13.8544 23.7816C14.169 24.1827 14.4584 24.5209 14.6771 24.5681C14.7746 24.5886 14.8564 24.5445 14.9256 24.4108C15.0562 24.1607 15.2308 23.6872 15.5454 23.3097C15.7986 23.0156 16.1054 22.8787 16.2831 23.596C16.367 23.9397 16.4316 24.2879 16.4766 24.6389C16.5332 25.0919 16.5615 25.364 16.7188 25.4396C16.8761 25.5151 17.1247 25.4191 17.5384 25.2649C17.8341 25.1548 18.2132 25.0148 18.6945 24.8764C19.1381 24.749 19.4197 24.8151 19.135 25.5056C18.9379 25.9638 18.6859 26.3964 18.3846 26.7939C18.3444 26.845 18.3258 26.9099 18.3328 26.9746C18.3399 27.0394 18.372 27.0987 18.4224 27.14C18.702 27.3619 19.0139 27.5396 19.3473 27.6669C19.6576 27.796 19.9754 27.9063 20.299 27.9973C20.6938 28.1026 20.6167 28.5006 20.2188 28.5557V28.5572ZM25.5953 26.3031C25.2068 26.9323 24.3888 27.6245 23.3931 28.0806C23.2358 28.1483 23.0785 28.1262 23.0423 28.0051C23.0061 27.884 23.0911 27.777 23.1886 27.6606C24.4816 25.9838 23.5221 24.4486 21.4363 23.2562C19.8963 22.3753 18.9195 21.8688 17.779 21.2003C14.449 19.2388 13.8056 17.5305 13.6751 16.5191C13.3463 13.9661 15.4573 12.0533 17.628 11.5924C17.6957 11.5798 17.8687 11.5515 17.9253 11.6947C17.982 11.8378 17.853 11.9448 17.7775 11.9904C16.8054 12.5236 15.8521 13.6593 15.9559 14.9193C16.0141 15.624 16.3161 16.637 18.2211 17.9961C19.3709 18.8156 20.7803 19.4889 23.6212 21.1924C26.6225 22.992 26.2811 25.18 25.5953 26.3031ZM26.0672 16.722C25.3814 17.562 24.6971 17.2489 24.1701 16.0692C23.8414 15.3314 23.4072 15.1553 23.1021 15.3472C22.7702 15.558 22.9023 16.0629 23.2751 16.6449C23.3806 16.8139 23.4262 17.0134 23.4045 17.2115C23.3829 17.4095 23.2952 17.5944 23.1556 17.7366C22.8897 18.015 22.454 18.1251 21.979 18.0197C21.1327 17.8341 20.3037 16.7031 20.9093 14.2335C21.1547 13.2362 20.6765 12.8178 20.3729 12.4261C20.2156 12.2342 20.203 12.1194 20.2581 12.0407C20.3131 11.9621 20.4579 11.9511 20.7064 12.003C21.032 12.0722 21.5149 12.2389 21.9066 12.2987C22.1936 12.3394 22.4838 12.3531 22.7733 12.3396C23.4961 12.2883 24.2195 12.4312 24.8686 12.7533C25.9476 13.2865 26.0577 14.2052 25.4569 14.1328C25.2127 14.0692 24.9787 13.9718 24.7616 13.8434C24.6137 13.7726 24.4863 13.749 24.3919 13.8166C24.3447 13.8558 24.3126 13.9102 24.3012 13.9705C24.2897 14.0308 24.2995 14.0932 24.329 14.147C24.4627 14.4285 24.9157 14.5748 25.5292 14.7447C26.6036 15.0389 26.6256 16.0346 26.0672 16.722Z" fill="white"/>
<circle cx="20" cy="20" r="19.5" stroke="black" stroke-opacity="0.05"/>
</svg>
