<svg width="40" height="40" viewBox="0 0 40 40" fill="none" xmlns="http://www.w3.org/2000/svg">
<circle cx="20" cy="20" r="20" fill="white"/>
<circle cx="20" cy="20" r="20" fill="#0646FF"/>
<circle cx="20" cy="20" r="19.5" stroke="black" stroke-opacity="0.05"/>
<path d="M20 9.5238C17.928 9.5238 15.9025 10.1382 14.1797 11.2894C12.4569 12.4405 11.1142 14.0767 10.3213 15.9909C9.52834 17.9052 9.32088 20.0116 9.72511 22.0438C10.1293 24.076 11.1271 25.9427 12.5922 27.4078C14.0573 28.8729 15.924 29.8707 17.9562 30.2749C19.9884 30.6791 22.0948 30.4716 24.0091 29.6787C25.9233 28.8858 27.5595 27.5431 28.7106 25.8203C29.8618 24.0975 30.4762 22.072 30.4762 20C30.4764 18.6242 30.2056 17.2618 29.6792 15.9907C29.1527 14.7196 28.3811 13.5646 27.4082 12.5917C26.4354 11.6189 25.2804 10.8472 24.0093 10.3208C22.7382 9.79443 21.3758 9.5236 20 9.5238ZM20.2186 28.5571C18.9602 28.7333 16.9264 28.4155 15.5437 27.5425C14.5013 26.8948 13.6682 25.9596 13.1449 24.8496C12.673 23.857 12.4417 22.6474 12.9498 22.7134C13.1889 22.7402 13.395 23.1932 13.8543 23.7815C14.1689 24.1826 14.4583 24.5208 14.677 24.568C14.7745 24.5884 14.8563 24.5444 14.9255 24.4107C15.0561 24.1606 15.2307 23.6871 15.5453 23.3096C15.7985 23.0154 16.1052 22.8786 16.283 23.5959C16.3669 23.9396 16.4315 24.2878 16.4765 24.6388C16.5331 25.0918 16.5614 25.3639 16.7187 25.4394C16.876 25.5149 17.1246 25.419 17.5382 25.2648C17.834 25.1547 18.2131 25.0147 18.6944 24.8763C19.138 24.7489 19.4196 24.815 19.1348 25.5055C18.9377 25.9637 18.6858 26.3963 18.3845 26.7938C18.3442 26.8449 18.3256 26.9098 18.3327 26.9745C18.3398 27.0392 18.3719 27.0986 18.4223 27.1398C18.7018 27.3617 19.0138 27.5394 19.3472 27.6668C19.6575 27.7959 19.9753 27.9062 20.2989 27.9971C20.6937 28.1025 20.6166 28.5005 20.2186 28.5555V28.5571ZM25.5952 26.303C25.2066 26.9322 24.3887 27.6243 23.393 28.0805C23.2357 28.1481 23.0784 28.1261 23.0422 28.005C23.006 27.8839 23.0909 27.7769 23.1885 27.6605C24.4815 25.9837 23.5219 24.4484 21.4361 23.2561C19.8962 22.3752 18.9193 21.8687 17.7789 21.2002C14.4489 19.2387 13.8055 17.5304 13.675 16.5189C13.3462 13.966 15.4572 12.0532 17.6279 11.5923C17.6956 11.5797 17.8686 11.5514 17.9252 11.6945C17.9818 11.8377 17.8528 11.9447 17.7773 11.9903C16.8052 12.5235 15.852 13.6592 15.9558 14.9192C16.014 15.6239 16.316 16.6369 18.2209 17.996C19.3708 18.8155 20.7802 19.4888 23.621 21.1923C26.6223 22.9918 26.281 25.1799 25.5952 26.303ZM26.0671 16.7219C25.3812 17.5618 24.697 17.2488 24.17 16.0691C23.8413 15.3313 23.4071 15.1551 23.102 15.3471C22.7701 15.5578 22.9022 16.0628 23.275 16.6448C23.3805 16.8137 23.4261 17.0133 23.4044 17.2113C23.3827 17.4094 23.295 17.5943 23.1554 17.7364C22.8896 18.0149 22.4539 18.125 21.9788 18.0196C21.1326 17.834 20.3036 16.703 20.9092 14.2334C21.1546 13.2361 20.6764 12.8177 20.3728 12.426C20.2155 12.2341 20.2029 12.1193 20.258 12.0406C20.313 11.962 20.4577 11.9509 20.7063 12.0029C21.0319 12.0721 21.5148 12.2388 21.9065 12.2986C22.1935 12.3393 22.4836 12.353 22.7732 12.3395C23.496 12.2882 24.2194 12.431 24.8684 12.7532C25.9475 13.2864 26.0576 14.2051 25.4567 14.1327C25.2126 14.0691 24.9786 13.9717 24.7615 13.8433C24.6136 13.7725 24.4862 13.7489 24.3918 13.8165C24.3446 13.8557 24.3125 13.9101 24.301 13.9704C24.2896 14.0307 24.2994 14.0931 24.3289 14.1469C24.4626 14.4284 24.9156 14.5747 25.5291 14.7446C26.6035 15.0387 26.6255 16.0345 26.0671 16.7219Z" fill="white"/>
</svg>
