<svg width="40" height="40" viewBox="0 0 40 40" fill="none" xmlns="http://www.w3.org/2000/svg">
<circle cx="20" cy="20" r="20" fill="#0068B1"/>
<path fill-rule="evenodd" clip-rule="evenodd" d="M14.4888 11.2172C14.4888 11.9902 14.7605 13.1307 16.8858 15.0823C17.7447 15.8693 18.1322 16.6802 18.0183 17.4213C17.9165 18.0744 17.4051 18.6198 16.5023 19.0412C15.4356 19.5346 15.2399 19.8142 15.2479 20.1558C15.2558 20.3072 15.3207 20.4499 15.4296 20.5553C15.714 20.8874 15.8574 21.3175 15.8291 21.7538C15.8032 22.393 15.2159 22.7006 14.7505 22.9522C14.2851 23.2039 14.0514 23.3318 14.0434 23.5415C14.0354 23.7512 14.1493 23.8591 14.347 24.0768C14.5867 24.3445 14.8863 24.676 14.8863 25.2134C14.8863 25.8805 14.4349 26.278 14.0734 26.5936C13.7118 26.9092 13.3922 27.1928 13.3922 27.7262C13.3922 29.3521 15.4556 31 19.4046 31C23.3535 31 25.4149 29.3521 25.4149 27.7262C25.4149 27.1868 25.0993 26.9132 24.7358 26.5936C24.3722 26.274 23.9228 25.8805 23.9228 25.2134C23.9228 24.676 24.2204 24.3445 24.4621 24.0768C24.6619 23.8491 24.7717 23.7233 24.7657 23.5415C24.7598 23.3597 24.4921 23.1819 24.0606 22.9522C23.5912 22.7086 23.006 22.4029 22.98 21.7538C22.9534 21.3177 23.0966 20.8882 23.3795 20.5553C23.4892 20.4502 23.5549 20.3074 23.5633 20.1558C23.5733 19.8142 23.3775 19.5346 22.3109 19.0412C21.406 18.6218 20.8947 18.0784 20.7908 17.4213C20.677 16.6722 21.0705 15.8593 21.9334 15.0663C24.0507 13.1228 24.3303 11.9882 24.3303 11.2172C24.3303 10.556 22.6604 9 19.4186 9C16.1767 9 14.4888 10.556 14.4888 11.2172ZM25.2372 12.9909C25.2419 13.1735 25.3003 13.3507 25.4052 13.5003C25.5101 13.6498 25.6567 13.7651 25.8268 13.8318C25.9969 13.8984 26.1829 13.9134 26.3614 13.8749C26.54 13.8364 26.7032 13.7461 26.8307 13.6153C26.9583 13.4845 27.0444 13.319 27.0783 13.1395C27.1122 12.96 27.0925 12.7745 27.0216 12.6062C26.9506 12.4379 26.8316 12.2942 26.6794 12.1932C26.5272 12.0921 26.3486 12.0382 26.166 12.0381C25.9168 12.0423 25.6793 12.1448 25.5054 12.3233C25.3314 12.5017 25.235 12.7417 25.2372 12.9909ZM12 13.0309C12 13.4483 12.4694 13.8039 13.1985 13.9477C13.3383 13.6687 13.4108 13.3609 13.4102 13.0489C13.4115 12.7244 13.3326 12.4046 13.1805 12.118C12.4614 12.2638 12 12.6174 12 13.0349V13.0309Z" fill="white"/>
<circle cx="20" cy="20" r="19.5" stroke="black" stroke-opacity="0.05"/>
</svg>
