<svg width="40" height="40" viewBox="0 0 40 40" fill="none" xmlns="http://www.w3.org/2000/svg">
<circle cx="20" cy="20" r="20" fill="#224C9C"/>
<g clip-path="url(#clip0_14382_20642)">
<path d="M28.3986 18.68C27.9983 19.6563 27.6328 20.5527 27.2392 21.5198C29.4231 20.3782 31.4934 19.1773 33.9 18.8155C33.698 19.1059 33.3899 19.2426 33.1293 19.4415C32.9111 19.6077 32.6844 19.7625 32.4502 19.9053C32.2391 20.034 32.2019 20.1725 32.2934 20.4099C32.8499 21.8512 33.3917 23.2979 33.9348 24.7422C34.0568 25.0589 34.0336 25.0882 33.6907 25.0894C32.7962 25.0894 31.901 25.0845 31.0059 25.0937C30.7759 25.0937 30.6593 25.0119 30.5849 24.7928C30.3072 23.9746 30.0156 23.1612 29.7227 22.3485C29.6006 22.0159 29.5799 22.0098 29.3151 22.2167C28.2491 23.0483 27.2081 23.9099 26.2398 24.8551C26.1638 24.9353 26.0714 24.9983 25.969 25.0398C25.8666 25.0813 25.7565 25.1003 25.646 25.0955C24.8125 25.0845 23.9784 25.0955 23.1443 25.0906C22.7855 25.0906 22.7587 25.051 22.8795 24.7245C24.0673 21.5332 25.2551 18.342 26.443 15.1507C26.5003 14.9964 26.565 14.8749 26.759 14.8804C27.5608 14.9024 28.3638 14.8316 29.165 14.9353C29.9478 15.0372 30.4708 15.4448 30.738 16.1905C31.0098 16.9459 31.288 17.6985 31.5728 18.4482C31.6503 18.652 31.5959 18.7368 31.394 18.8015C30.6182 19.0457 29.8632 19.3518 29.1363 19.7167C28.9044 19.8339 28.786 19.7936 28.7092 19.5447C28.6292 19.2841 28.5237 19.0236 28.3986 18.68Z" fill="white"/>
<path d="M9.59834 17.5959C10.4306 18.0407 11.2678 18.477 12.0934 18.934C12.7951 19.3221 13.5468 19.6266 14.1942 20.1062C15.5366 21.1026 15.5708 23.01 14.29 24.0919C13.5059 24.7539 12.5864 25.0487 11.5924 25.0767C10.1805 25.1176 8.76726 25.0871 7.35408 25.0981C7.08194 25.0981 6.99835 24.9834 7.0014 24.732C7.00872 24.112 7.01177 23.4915 7.0014 22.8721C6.99591 22.5884 7.11733 22.506 7.38642 22.506C8.99242 22.5121 10.5984 22.506 12.2069 22.506C12.3515 22.5105 12.4961 22.5009 12.6389 22.4773C12.2862 22.1863 11.8743 22.0051 11.4795 21.7946C10.4855 21.2619 9.48545 20.7402 8.48963 20.2081C7.59327 19.7266 7.02519 19.02 7.03069 17.9565C7.03435 16.7971 7.6372 16.0094 8.60495 15.4584C9.28409 15.0716 10.0358 14.9184 10.8016 14.9013C12.1629 14.8708 13.5255 14.8964 14.8898 14.8861C15.1602 14.8861 15.245 14.988 15.2401 15.2461C15.2285 15.8861 15.2254 16.5274 15.2401 17.1669C15.2468 17.4561 15.1272 17.533 14.8593 17.5281C13.1923 17.5202 11.5253 17.5245 9.85583 17.5245H9.61664L9.59834 17.5959Z" fill="white"/>
<path d="M16.2145 21.3459C16.2474 20.408 16.1651 19.2383 16.2554 18.0704C16.3774 16.4961 17.2567 15.443 18.7882 15.0659C19.2615 14.9454 19.7478 14.8839 20.2362 14.8828C21.8019 14.8895 23.3683 14.8828 24.9346 14.8828C25.3007 14.8828 25.3093 14.895 25.1787 15.2422C24.9346 15.9006 24.6838 16.5553 24.4507 17.2168C24.3702 17.4474 24.2384 17.5249 23.9992 17.5219C22.982 17.5121 21.9655 17.517 20.9483 17.5182C19.7773 17.5182 19.4735 17.8434 19.5034 19.0229C19.5095 19.2627 19.5961 19.3414 19.8298 19.3396C20.8671 19.3323 21.9044 19.3365 22.9418 19.3396C23.0845 19.3396 23.2267 19.3396 23.3689 19.3396C23.5666 19.3396 23.6191 19.4329 23.5519 19.6148C23.2871 20.3195 23.0223 21.0237 22.766 21.7309C22.6934 21.9298 22.5592 21.9792 22.3657 21.978C21.5518 21.9725 20.7384 21.975 19.925 21.978C19.5156 21.978 19.5107 21.9829 19.5101 22.3807C19.5101 23.1538 19.5009 23.927 19.5137 24.6994C19.5186 24.9789 19.443 25.1028 19.1379 25.0973C18.2836 25.0814 17.4294 25.0814 16.5751 25.0973C16.2871 25.1022 16.209 24.9881 16.209 24.7196C16.2194 23.6713 16.2145 22.6236 16.2145 21.3459Z" fill="white"/>
</g>
<circle cx="20" cy="20" r="19.5" stroke="black" stroke-opacity="0.05"/>
<defs>
<clipPath id="clip0_14382_20642">
<rect width="27" height="10.2175" fill="white" transform="translate(7 14.8804)"/>
</clipPath>
</defs>
</svg>
