<svg width="40" height="40" viewBox="0 0 40 40" fill="none" xmlns="http://www.w3.org/2000/svg">
<circle cx="20" cy="20" r="20" fill="#F6F8FA"/>
<path d="M17.1849 20.8836C17.1849 23.2886 17.184 25.6941 17.1876 28.0991C17.1876 28.2189 17.1586 28.2442 17.0478 28.2437C16.2045 28.2385 15.3608 28.2395 14.5174 28.2427C14.4281 28.2427 14.3987 28.224 14.3987 28.1235C14.4014 23.2975 14.4014 18.4715 14.3987 13.6456C14.3987 13.5469 14.4255 13.5249 14.5161 13.5254C15.367 13.5291 16.2179 13.53 17.0688 13.5244C17.1746 13.524 17.1867 13.5614 17.1862 13.6563C17.184 16.0656 17.1844 18.4743 17.1844 20.8836H17.1849Z" fill="#D5484A"/>
<path d="M30.2157 20.9192C30.2157 18.5254 30.2157 16.1321 30.2157 13.7383C30.2157 13.6602 30.2068 13.5793 30.2983 13.5428C30.3805 13.51 30.4403 13.5456 30.4974 13.6036C30.7675 13.8763 31.0394 14.1477 31.31 14.4195C31.8519 14.9635 32.393 15.5085 32.9359 16.0512C32.9792 16.0947 32.9993 16.1377 32.9993 16.2023C32.9979 20.1801 32.9975 24.1574 33.0002 28.1353C33.0002 28.2246 32.9769 28.2433 32.8953 28.2429C32.0443 28.2396 31.1934 28.2391 30.3425 28.2429C30.2434 28.2433 30.2131 28.2204 30.2135 28.1109C30.2166 25.7134 30.2162 23.3159 30.2162 20.9188L30.2157 20.9192Z" fill="#2254A0"/>
<path d="M26.2632 20.9081C26.2632 18.5223 26.2632 16.1364 26.2632 13.7501C26.2632 13.6701 26.2458 13.5826 26.3444 13.5429C26.4382 13.5055 26.4984 13.5574 26.5601 13.6196C27.3641 14.4285 28.1681 15.2373 28.9739 16.0443C29.0266 16.0967 29.0485 16.1491 29.0485 16.2258C29.0467 20.1919 29.0467 24.158 29.0494 28.1246C29.0494 28.2257 29.0208 28.2439 28.9315 28.2434C28.0842 28.2397 27.2369 28.2397 26.3895 28.2434C26.2913 28.2434 26.2605 28.2224 26.2605 28.1124C26.2641 25.7112 26.2632 23.3094 26.2632 20.9077V20.9081Z" fill="#2254A0"/>
<path d="M22.3132 20.9193C22.3132 18.5297 22.3132 16.1401 22.3132 13.7505C22.3132 13.6715 22.2927 13.5831 22.3927 13.5428C22.4864 13.5054 22.5472 13.5578 22.6083 13.6195C23.4124 14.4284 24.2159 15.2372 25.0218 16.0442C25.074 16.0966 25.0968 16.149 25.0968 16.2262C25.095 20.1918 25.095 24.158 25.0972 28.1236C25.0972 28.2237 25.0686 28.2438 24.9789 28.2434C24.128 28.2396 23.2771 28.2396 22.4262 28.2434C22.3338 28.2434 22.3105 28.2205 22.3105 28.1227C22.3132 25.7214 22.3128 23.3201 22.3128 20.9188L22.3132 20.9193Z" fill="#2254A0"/>
<path d="M10.4485 20.8673C10.4485 18.466 10.4494 16.0647 10.4458 13.6639C10.4458 13.5488 10.4748 13.525 10.5806 13.5259C11.4239 13.5306 12.2677 13.5301 13.111 13.5259C13.2039 13.5259 13.228 13.5507 13.2275 13.648C13.2253 17.6253 13.2253 21.6027 13.2267 25.58C13.2267 25.6521 13.2075 25.7026 13.157 25.7527C12.349 26.5624 11.5418 27.3736 10.7373 28.1867C10.6623 28.2625 10.5806 28.2414 10.4985 28.2344C10.4628 28.2316 10.4503 28.1895 10.4494 28.1521C10.448 28.1132 10.4485 28.0744 10.4485 28.0351C10.4485 25.6455 10.4485 23.2559 10.4485 20.8664V20.8673Z" fill="#D5484A"/>
<path d="M9.27453 17.063C9.27453 18.1951 9.27453 19.3272 9.27453 20.4593C9.27453 20.5323 9.28971 20.6142 9.20132 20.6469C9.11917 20.6773 9.05399 20.6469 8.99105 20.5838C8.18478 19.7731 7.37673 18.9637 6.56779 18.1554C6.52404 18.1118 6.50529 18.0683 6.50529 18.0043C6.50663 16.5447 6.50707 15.086 6.50439 13.6269C6.50439 13.5418 6.53029 13.5263 6.60529 13.5263C7.45932 13.5292 8.3138 13.5296 9.16784 13.5259C9.25891 13.5259 9.27632 13.5554 9.27587 13.6438C9.2732 14.7834 9.27409 15.9234 9.27409 17.063H9.27453Z" fill="#D5484A"/>
<path d="M18.353 17.0938C18.353 15.9809 18.353 14.8679 18.3535 13.755C18.3535 13.676 18.3352 13.5871 18.4307 13.544C18.5289 13.5001 18.591 13.559 18.6548 13.6236C19.4562 14.4291 20.258 15.2347 21.0611 16.0379C21.1134 16.0903 21.1366 16.1423 21.1361 16.219C21.133 16.8028 21.133 17.3862 21.1361 17.97C21.1361 18.0477 21.1116 18.0991 21.0598 18.1511C20.2544 18.958 19.4508 19.7669 18.6468 20.5753C18.6093 20.6132 18.5731 20.651 18.516 20.6562C18.4173 20.6655 18.3593 20.6174 18.353 20.514C18.3504 20.4677 18.3521 20.4204 18.3521 20.3741C18.3521 19.2808 18.3521 18.1871 18.3521 17.0938H18.353Z" fill="#D5484A"/>
<path d="M18.3528 24.7039C18.3528 23.5914 18.3528 22.4789 18.3528 21.366C18.3528 21.2865 18.3354 21.1976 18.4314 21.156C18.5296 21.1134 18.5916 21.1728 18.6555 21.2374C19.4568 22.0429 20.2582 22.8481 21.0613 23.6513C21.1136 23.7037 21.1363 23.7561 21.1359 23.8328C21.1328 24.4162 21.1328 25 21.1359 25.5834C21.1359 25.661 21.1113 25.7125 21.0595 25.7644C20.2573 26.5686 19.4555 27.3732 18.6568 28.1816C18.5787 28.2606 18.4943 28.2401 18.409 28.2373C18.3702 28.2359 18.3595 28.1933 18.3555 28.1582C18.351 28.1198 18.3519 28.0805 18.3519 28.0417C18.3519 26.9293 18.3519 25.8168 18.3519 24.7039H18.3528Z" fill="#D5484A"/>
<circle cx="20" cy="20" r="19.5" stroke="black" stroke-opacity="0.05"/>
</svg>
