<svg width="40" height="40" viewBox="0 0 40 40" fill="none" xmlns="http://www.w3.org/2000/svg">
<circle cx="20" cy="20" r="20" fill="#F6F8FA"/>
<g clip-path="url(#clip0_14382_20258)">
<path d="M31.2815 16H31.1251C30.6666 16 30.2949 16.3717 30.2949 16.8302V23.7341C30.2949 24.1926 30.6666 24.5642 31.1251 24.5642H31.2815C31.74 24.5642 32.1117 24.1926 32.1117 23.7341V16.8302C32.1117 16.3717 31.74 16 31.2815 16Z" fill="black"/>
<path fill-rule="evenodd" clip-rule="evenodd" d="M11.1249 16.125H10.9677C10.5086 16.125 10.1368 16.5833 10.1368 17.0425V19.4253H6.81689V17.0385C6.81689 16.5794 6.44504 16.1211 5.98593 16.1211H5.8287C5.37038 16.1211 4.99854 16.5794 4.99854 17.0385V23.5148C4.99854 23.9731 5.37038 24.4314 5.8287 24.4314H5.98593C6.44504 24.4314 6.81689 23.9731 6.81689 23.5148V21.1681H10.1383V23.5148C10.1383 23.9731 10.5102 24.4314 10.9693 24.4314H11.1265C11.5848 24.4314 11.9567 23.9731 11.9567 23.5148V17.0385C11.9551 16.5794 11.5833 16.125 11.1249 16.125Z" fill="#F15A50"/>
<path d="M34.1707 16H34.0142C33.5558 16 33.1841 16.3717 33.1841 16.8302V23.7341C33.1841 24.1926 33.5558 24.5642 34.0142 24.5642H34.1707C34.6292 24.5642 35.0009 24.1926 35.0009 23.7341V16.8302C35.0009 16.3717 34.6292 16 34.1707 16Z" fill="black"/>
<path fill-rule="evenodd" clip-rule="evenodd" d="M21.6488 19.8984C21.5818 19.4415 21.3897 19.0121 21.0937 18.6576C20.7977 18.3032 20.4094 18.0376 19.9717 17.8902C19.5341 17.7429 19.0642 17.7196 18.6141 17.8229C18.164 17.9262 17.7513 18.1521 17.4217 18.4755C17.0908 18.1513 16.6763 17.9253 16.2245 17.8227C15.7727 17.7202 15.3013 17.7451 14.8628 17.8948C14.4243 18.0444 14.036 18.3129 13.7412 18.6703C13.4464 19.0277 13.2566 19.46 13.193 19.9189C13.1875 19.9433 13.1852 19.9684 13.182 19.9936V20.0164C13.1775 20.0458 13.1746 20.0755 13.1734 20.1052V20.1925C13.1734 20.2153 13.1694 20.2373 13.1694 20.2609C13.1694 20.2844 13.1694 20.3065 13.1734 20.3293V23.5265C13.1734 23.9848 13.5421 24.4392 13.9972 24.4392H14.1545C14.6096 24.4392 14.9791 23.9848 14.9791 23.5265V22.6617H14.9886V20.2703C14.9853 20.166 15.0029 20.062 15.0406 19.9646C15.0782 19.8673 15.135 19.7785 15.2077 19.7035C15.2803 19.6285 15.3673 19.5689 15.4634 19.5282C15.5595 19.4875 15.6628 19.4665 15.7672 19.4665C15.8716 19.4665 15.975 19.4875 16.0711 19.5282C16.1672 19.5689 16.2542 19.6285 16.3268 19.7035C16.3994 19.7785 16.4563 19.8673 16.4939 19.9646C16.5315 20.062 16.5492 20.166 16.5459 20.2703V23.657C16.6072 24.0674 16.9453 24.4392 17.3572 24.4392H17.5144C17.9688 24.4392 18.3375 23.9864 18.3391 23.5289V20.2703C18.3391 20.0639 18.4211 19.8659 18.5671 19.72C18.713 19.574 18.911 19.492 19.1174 19.492C19.3238 19.492 19.5218 19.574 19.6677 19.72C19.8137 19.8659 19.8957 20.0639 19.8957 20.2703V23.657C19.9578 24.0674 20.2958 24.4392 20.7078 24.4392H20.865C21.3202 24.4392 21.6889 23.9848 21.6889 23.5265V20.1052C21.6842 20.0349 21.6708 19.9654 21.6488 19.8984Z" fill="black"/>
<path fill-rule="evenodd" clip-rule="evenodd" d="M29.2913 21.1563C29.2897 20.4808 29.088 19.8208 28.7115 19.2599C28.3351 18.6989 27.8008 18.2622 27.1762 18.0047C26.5517 17.7473 25.8648 17.6807 25.2024 17.8135C24.54 17.9462 23.9318 18.2723 23.4547 18.7505C22.9776 19.2288 22.6529 19.8377 22.5216 20.5004C22.3904 21.1631 22.4585 21.8498 22.7174 22.4738C22.9763 23.0978 23.4143 23.631 23.9761 24.0062C24.5379 24.3813 25.1983 24.5816 25.8739 24.5816C26.0956 24.5816 26.3094 24.5816 26.5028 24.4652C26.6743 24.3642 26.8084 24.2103 26.8849 24.0265C26.9263 23.9191 26.9487 23.8052 26.9509 23.6901C26.9499 23.5709 26.9254 23.4532 26.8789 23.3435C26.8323 23.2338 26.7646 23.1344 26.6797 23.0509C26.5947 22.9674 26.4941 22.9014 26.3836 22.8568C26.2732 22.8121 26.155 22.7897 26.0358 22.7907C26.0144 22.7919 25.9929 22.7919 25.9714 22.7907C25.9321 22.7907 25.8928 22.797 25.8542 22.797C25.5295 22.8039 25.21 22.7139 24.9366 22.5384C24.6631 22.363 24.4482 22.11 24.3191 21.8119C24.19 21.5138 24.1527 21.184 24.2118 20.8646C24.2709 20.5451 24.4239 20.2505 24.6511 20.0184C24.8784 19.7862 25.1696 19.627 25.4877 19.5611C25.8058 19.4951 26.1363 19.5254 26.4372 19.6481C26.738 19.7708 26.9954 19.9803 27.1767 20.2499C27.3579 20.5195 27.4548 20.837 27.4548 21.1618C27.4548 21.3293 27.4611 21.4959 27.4619 21.6634C27.4619 21.8458 27.4619 22.0289 27.4619 22.2137V23.6288C27.4592 23.8538 27.5453 24.0708 27.7016 24.2327C27.8579 24.3946 28.0718 24.4883 28.2968 24.4935H28.454C28.679 24.4883 28.8929 24.3946 29.0492 24.2327C29.2055 24.0708 29.2917 23.8538 29.2889 23.6288V22.3198C29.2889 22.1311 29.2889 21.9425 29.2889 21.7538C29.2889 21.6571 29.2889 21.5643 29.2889 21.4653C29.2889 21.3662 29.2913 21.2562 29.2913 21.1563Z" fill="black"/>
</g>
<circle cx="20" cy="20" r="19.5" stroke="black" stroke-opacity="0.05"/>
<defs>
<clipPath id="clip0_14382_20258">
<rect width="30" height="8.58154" fill="white" transform="translate(5 16)"/>
</clipPath>
</defs>
</svg>
