<svg width="40" height="40" viewBox="0 0 40 40" fill="none" xmlns="http://www.w3.org/2000/svg">
<circle cx="20" cy="20" r="20" fill="#2F4B78"/>
<circle cx="20" cy="20" r="19.5" stroke="black" stroke-opacity="0.05"/>
<path d="M27.2037 23.2841C27.1053 23.2947 27.0053 23.3144 26.9053 23.315C26.6472 23.3163 26.3873 23.2888 26.1317 23.3122C25.9654 23.3275 25.9323 23.316 25.9326 23.1273C25.9357 21.9196 25.9357 20.7119 25.9279 19.5042C25.9257 19.1849 25.8851 18.8693 25.7564 18.5687C25.6351 18.286 25.3974 18.1703 25.1255 18.1635C24.4337 18.1453 23.741 18.1594 23.0485 18.1557C22.916 18.155 22.8754 18.2191 22.8757 18.3366C22.8779 19.3621 22.8757 20.3876 22.8823 21.4131C22.886 21.9846 22.902 22.5561 22.917 23.1276C22.9207 23.2722 22.8717 23.3338 22.7189 23.3294C22.4173 23.3207 22.1152 23.3235 21.813 23.3285C21.674 23.3307 21.6237 23.2813 21.624 23.1363C21.6271 21.1844 21.6255 19.2321 21.6209 17.2801C21.6205 17.1483 21.6505 17.0977 21.7936 17.0983C22.9804 17.1036 24.1681 17.0805 25.3542 17.1092C26.1879 17.1295 26.8403 17.5129 27.1225 18.4681C27.2041 18.7443 27.2362 19.0218 27.235 19.308C27.2294 20.5054 27.23 21.7027 27.2262 22.8998C27.2259 23.0173 27.2125 23.1348 27.2034 23.2844L27.2037 23.2841Z" fill="white"/>
<path d="M17.4885 20.7713C17.4991 21.1913 17.4541 21.5959 17.67 21.9655C17.7663 22.1302 17.8844 22.2296 18.095 22.2311C19.0205 22.2386 19.9457 22.2605 20.8713 22.2774C20.9019 22.278 20.9325 22.2833 20.9741 22.2874V23.3232C20.9363 23.3279 20.8969 23.3376 20.8572 23.3376C19.8836 23.3354 18.9102 23.3329 17.9366 23.3294C17.2182 23.3269 16.7351 22.9604 16.4364 22.3333C16.267 21.9784 16.1749 21.6028 16.1824 21.2016C16.1933 20.6291 16.1702 20.0561 16.1864 19.484C16.2008 18.9787 16.2745 18.4794 16.4936 18.0148C16.6798 17.6204 16.9832 17.342 17.3794 17.1705C17.4894 17.1227 17.62 17.1049 17.7416 17.1043C18.7671 17.0986 19.7926 17.1021 20.8185 17.0964C20.9513 17.0958 20.9897 17.1383 20.985 17.2674C20.976 17.5117 20.9738 17.757 20.9853 18.001C20.9916 18.1329 20.94 18.1563 20.8241 18.1563C20.0589 18.156 19.2936 18.1585 18.5284 18.1663C18.3378 18.1682 18.145 18.1769 17.9578 18.2094C17.7281 18.2491 17.6016 18.4397 17.5647 18.6363C17.505 18.9537 17.5029 19.2824 17.4841 19.6071C17.4829 19.6277 17.55 19.6721 17.5853 19.6721C18.6306 19.673 19.6755 19.6696 20.7207 19.6674C20.9266 19.6671 20.9263 19.6683 20.9263 19.8752C20.9263 20.1042 20.9169 20.3339 20.93 20.5623C20.9388 20.7169 20.8972 20.7676 20.7338 20.7669C19.7186 20.7619 18.7034 20.7685 17.6881 20.771C17.6272 20.771 17.5663 20.771 17.4872 20.771L17.4885 20.7713Z" fill="white"/>
<path d="M15.6768 18.1578C15.5962 18.1578 15.5302 18.1568 15.4643 18.1578C14.5856 18.1728 13.7073 18.1887 12.8286 18.2028C12.534 18.2074 12.2849 18.4043 12.2446 18.7027C12.2059 18.9892 12.1977 19.2798 12.1743 19.5685C12.1662 19.6695 12.2077 19.7073 12.3093 19.707C13.3142 19.7035 14.3191 19.7057 15.324 19.7007C15.623 19.6991 15.623 19.6907 15.6233 19.985C15.6233 20.1935 15.6177 20.4019 15.6255 20.6097C15.6299 20.7309 15.5921 20.769 15.4665 20.7687C14.4406 20.7659 13.4148 20.7706 12.3893 20.7728C12.1765 20.7734 12.1715 20.7737 12.1849 20.9881C12.199 21.2155 12.214 21.4439 12.2452 21.6695C12.2987 22.0573 12.5633 22.2592 13.0233 22.2638C13.851 22.2723 14.6791 22.2748 15.5071 22.2795C15.5577 22.2795 15.6087 22.2795 15.6696 22.2795V23.3275C15.628 23.3318 15.5883 23.3396 15.5487 23.3396C14.5697 23.3371 13.5907 23.3346 12.6121 23.3303C12.1596 23.3284 11.77 23.175 11.4672 22.8319C11.2413 22.576 11.0957 22.2766 10.9932 21.9511C10.8532 21.5058 10.8832 21.0493 10.8779 20.5947C10.8747 20.3344 10.8779 20.0741 10.8744 19.8135C10.8688 19.3557 10.9482 18.9111 11.0466 18.4652C11.1785 17.8666 11.5175 17.4447 12.0656 17.1916C12.1924 17.1332 12.3449 17.107 12.4861 17.106C13.5014 17.0988 14.5169 17.1016 15.5321 17.102C15.5965 17.102 15.6774 17.0785 15.6774 17.1882C15.6774 17.5044 15.6774 17.8206 15.6774 18.1568L15.6768 18.1578Z" fill="white"/>
<path d="M6.00804 17.2883H7.23386C7.23386 17.3511 7.23386 17.4064 7.23386 17.4617C7.23448 18.6281 7.23729 19.7946 7.23417 20.961C7.23323 21.2913 7.28104 21.6093 7.43384 21.9031C7.55289 22.1321 7.84692 22.3883 8.23345 22.2989C8.27313 22.2899 8.31625 22.293 8.35781 22.2927C9.10242 22.2918 9.84704 22.2908 10.592 22.2902C10.7838 22.2902 10.7963 22.303 10.7963 22.4936C10.7963 22.7642 10.7963 23.0348 10.7963 23.3248C10.7376 23.3288 10.6829 23.3354 10.6282 23.3354C9.62331 23.336 8.6181 23.3266 7.61319 23.3388C6.85577 23.3479 6.43019 22.9629 6.20677 22.3511C6.08834 22.0271 6.01929 21.6681 6.01335 21.3234C5.99085 20.0167 6.00366 18.7094 6.00335 17.4023C6.00335 17.3714 6.00616 17.3402 6.00835 17.2874L6.00804 17.2883Z" fill="white"/>
<path fill-rule="evenodd" clip-rule="evenodd" d="M28.1887 18.4798C27.9037 19.0285 27.7797 19.6199 27.79 20.2411L27.7894 20.2414C27.7948 20.3089 27.799 20.3765 27.8032 20.4441C27.8124 20.5939 27.8216 20.7437 27.8447 20.8914C27.8787 21.1088 27.935 21.3232 27.9925 21.536C28.0937 21.91 28.2837 22.2371 28.5355 22.5309C29.0758 23.1614 29.8026 23.382 30.5894 23.452C31.0081 23.4892 31.4243 23.4439 31.838 23.3495C32.2392 23.258 32.6023 23.1017 32.9286 22.8539C33.6463 22.3087 33.9016 21.5313 33.9778 20.6842C34.0353 20.0486 33.9894 19.4156 33.7425 18.81C33.5172 18.257 33.1854 17.7905 32.6742 17.4743C32.0471 17.0859 31.36 16.9546 30.625 17.0134C30.2826 17.0406 29.9529 17.0934 29.6301 17.2112C28.983 17.4474 28.5027 17.8755 28.1887 18.4798ZM32.7492 20.0387C32.7583 20.11 32.7673 20.1814 32.7767 20.2527C32.7767 20.2527 32.7767 20.2528 32.7767 20.2529C32.7767 20.2529 32.7767 20.253 32.7767 20.253C32.7701 20.6853 32.7029 21.0974 32.5083 21.4847C32.268 21.9634 31.8858 22.2446 31.3593 22.3549C30.8591 22.4596 30.3897 22.4159 29.9401 22.1653C29.5754 21.9622 29.3386 21.6513 29.1811 21.2772C29.044 20.9519 28.9752 20.6113 28.9765 20.2656C28.9768 20.162 28.9835 20.0579 28.9964 19.9537C29.0939 19.1706 29.422 18.5223 30.1835 18.1857C30.5013 18.0451 30.8341 18.0048 31.1943 18.0704C31.6165 18.1473 31.9677 18.3157 32.2439 18.6366C32.4777 18.9082 32.6323 19.2219 32.687 19.5787C32.7105 19.7316 32.7299 19.8852 32.7492 20.0387ZM32.7767 20.253C32.7767 20.253 32.7767 20.253 32.7767 20.253V20.2527C32.7767 20.2528 32.7767 20.2529 32.7767 20.253Z" fill="white"/>
</svg>
