<svg width="40" height="40" viewBox="0 0 40 40" fill="none" xmlns="http://www.w3.org/2000/svg">
<circle cx="20" cy="20" r="20" fill="#05507D"/>
<g clip-path="url(#clip0_17671_18638)">
<path d="M28.6952 20.2508C28.2771 21.4262 27.2833 22.1493 26.0059 22.1493C24.4244 22.1493 23.1787 20.9404 23.1787 19.3221C23.1787 17.7037 24.4218 16.4949 26.0059 16.4949C27.3167 16.4949 28.4125 17.3199 28.7629 18.4833C28.8305 18.7995 28.7286 18.8337 28.5598 18.8671C28.347 18.9011 28.1289 18.8657 27.9378 18.7661C27.7571 18.6641 27.4863 18.2803 27.4863 18.2803C27.3343 18.0244 27.1173 17.8133 26.8573 17.6684C26.5972 17.5235 26.3035 17.4499 26.0059 17.4553C25.0121 17.4553 24.1759 18.312 24.1759 19.3195C24.1759 20.327 25.0121 21.1726 26.0059 21.1726C26.6956 21.1726 27.249 20.7999 27.5874 20.2456C27.7237 20.0372 27.9336 19.8879 28.1751 19.8275C28.6275 19.7264 28.7286 19.8618 28.7286 19.8618C28.7286 19.8618 28.8305 19.8961 28.6952 20.2456V20.2508Z" fill="white"/>
<path d="M14.0518 17.4604C15.0576 17.4604 15.8826 18.3171 15.8826 19.3246C15.8826 20.3321 15.0576 21.1777 14.0518 21.1777V22.1493C15.6453 22.1493 16.879 20.9404 16.879 19.3221C16.879 17.7037 15.6479 16.4949 14.0518 16.4949V17.4604ZM14.0518 21.1777C13.058 21.1777 12.233 20.321 12.233 19.3246C12.233 18.3283 13.058 17.4604 14.0518 17.4604V16.5C12.4703 16.5 11.2246 17.6994 11.2246 19.3272C11.2246 20.955 12.4677 22.1544 14.0518 22.1544V21.1777Z" fill="white"/>
<path d="M32.1758 17.4604C33.1696 17.4604 33.9947 18.3171 33.9947 19.3246C33.9947 20.3321 33.1739 21.1777 32.1758 21.1777V22.1493C33.7573 22.1493 35.003 20.9404 35.003 19.3221C35.003 17.7037 33.7599 16.4949 32.1758 16.4949V17.4604ZM32.1758 17.4604V16.5C30.5823 16.5 29.3486 17.6994 29.3486 19.3272C29.3486 20.955 30.5797 22.1544 32.1758 22.1544V21.1777C31.17 21.1777 30.345 20.321 30.345 19.3246C30.345 18.3283 31.17 17.4604 32.1758 17.4604Z" fill="white"/>
<path d="M21.2833 19.8327C21.6329 19.8669 21.7014 20.0134 21.5995 20.285C21.3964 20.8051 20.6725 21.2111 20.0179 21.2111C19.2606 21.2111 18.8768 20.8385 18.5709 20.5258C18.2891 20.2208 17.7356 20.1831 17.566 20.2542C17.3964 20.3253 17.464 20.5969 17.5317 20.7399C18.0175 21.6327 19.0121 22.1527 19.9837 22.1527C21.0117 22.1861 21.9045 21.6669 22.4579 20.8085C22.9779 19.9518 22.7629 18.8757 21.5318 18.8757L18.7748 18.8423C18.3567 18.8423 18.3225 18.605 18.4244 18.3223C18.7072 17.8142 19.3283 17.4295 20.0856 17.4295C20.8087 17.4295 21.1814 17.8819 21.4298 18.1149C21.7014 18.3522 22.2206 18.4199 22.4579 18.318C22.5933 18.2503 22.5598 18.0807 22.4579 17.8776C22.0064 17.0072 21.0117 16.4991 20.0179 16.4991C19.1475 16.4991 18.1871 16.8718 17.5994 17.7645C17.1248 18.5356 17.159 19.7984 18.8768 19.7984L21.2833 19.8327Z" fill="white"/>
<path d="M7.82739 22.1489C9.4089 22.1489 10.6546 20.9401 10.6546 19.3217C10.6546 17.7033 9.41147 16.4945 7.82739 16.4945V17.4549C8.31569 17.4612 8.78153 17.6611 9.12256 18.0107C9.46359 18.3602 9.65193 18.8308 9.64622 19.3191C9.64622 20.3138 8.82119 21.1722 7.82739 21.1722V22.1489ZM7.82739 16.4996C6.23387 16.4996 5.00019 17.6991 5.00019 19.3268V23.0665C5.00019 23.0665 4.96592 23.5522 5.17153 23.8915C5.34288 24.1288 5.58962 24.3096 5.82607 24.343C5.99742 24.3096 6.02997 24.0945 6.02997 24.0945V21.5269C6.54437 21.9276 7.1771 22.1463 7.8291 22.1489V21.1774C6.8233 21.1774 5.99828 20.3206 5.99828 19.3243C5.99579 19.0816 6.0412 18.8408 6.13192 18.6156C6.22263 18.3905 6.35687 18.1855 6.52693 18.0123C6.697 17.8392 6.89955 17.7012 7.123 17.6065C7.34645 17.5117 7.58639 17.4619 7.8291 17.46V16.4996H7.82739Z" fill="white"/>
</g>
<circle cx="20" cy="20" r="19.5" stroke="black" stroke-opacity="0.05"/>
<defs>
<clipPath id="clip0_17671_18638">
<rect width="30" height="7.84076" fill="white" transform="translate(5 16.5)"/>
</clipPath>
</defs>
</svg>
