<svg width="40" height="40" viewBox="0 0 40 40" fill="none" xmlns="http://www.w3.org/2000/svg">
<circle cx="20" cy="20" r="20" fill="#F6F8FA"/>
<path d="M11.9548 21.7617C12.5591 22.3651 13.2412 22.8229 14.0434 23.0905C14.725 23.3179 15.421 23.4051 16.1217 23.203C16.8884 22.9819 17.5114 22.5582 17.866 21.8156C18.0169 21.4994 18.1081 21.1656 18.0194 20.8031C17.9259 20.8222 17.8908 20.8988 17.8386 20.9511C16.8233 21.9694 15.1144 21.9856 14.0916 21.1647C13.5562 20.735 13.2436 20.161 13.1145 19.4949C12.9678 18.7384 13.0643 18.0125 13.4821 17.3503C14.1602 16.2756 15.5063 15.9193 16.6304 16.3527C17.0902 16.53 17.4113 16.8461 17.5491 17.3303C17.5554 17.3525 17.5628 17.3744 17.5709 17.396C17.5734 17.4027 17.5797 17.4079 17.5848 17.4145C17.6291 17.3666 17.6379 17.3045 17.6557 17.2456C17.7872 16.8115 18.0533 16.4799 18.4324 16.2371C18.6013 16.129 18.7839 16.0839 18.9861 16.1264C19.3474 16.2023 19.5129 16.5465 19.3421 16.8744C19.2869 16.9801 19.2057 17.0614 19.1081 17.1278C18.8145 17.3274 18.6937 17.6168 18.6734 17.9596C18.6587 18.2086 18.6752 18.4547 18.7325 18.6979C18.8372 19.1421 18.9412 19.5864 19.0494 20.0503C19.0673 20.0919 19.0718 20.1156 19.0591 20.1581C18.627 20.5586 18.2947 21.0017 18.1051 21.5509C17.9209 22.0842 17.922 22.6261 17.9776 23.1748C17.9861 23.2591 18.002 23.3428 18.0095 23.4459C18.005 23.4763 18.0011 23.4881 17.9835 23.5123C17.5666 23.8173 17.1397 24.0649 16.6654 24.2256C15.6509 24.5694 14.6381 24.5192 13.6288 24.2074C12.8425 23.9645 12.1352 23.5704 11.4905 23.0614C11.4175 23.0038 11.3448 22.9459 11.2578 22.8773C11.533 22.6224 11.7173 22.309 11.844 21.9413C11.8377 21.8489 11.877 21.7991 11.9548 21.7617Z" fill="#8DC741"/>
<path d="M11.2343 22.8515C11.2441 22.8666 11.2409 22.8688 11.2415 22.8693C11.0882 23.0678 10.8833 23.2095 10.6856 23.3554C8.98388 24.6116 7.13979 24.8198 5.19983 24.022C3.99491 23.5265 3.2866 22.5899 3.05451 21.3023C3.00369 21.0203 2.96093 20.7374 2.96296 20.4288C3.09261 19.4222 3.99808 18.5964 4.93994 18.4606C5.16979 18.4275 5.41019 18.4156 5.55965 18.6807C5.41237 18.971 5.20556 19.203 5.01898 19.4493C4.73364 19.826 4.44403 20.1997 4.2002 20.6055C4.01215 20.9186 3.84688 21.2415 3.77606 21.605C3.71651 21.9106 3.75976 22.1903 3.97633 22.4465C3.99385 22.4715 4.00478 22.4822 4.02355 22.5013C4.03217 22.5089 4.02823 22.5086 4.02811 22.5067C4.03828 22.5166 4.04904 22.5281 4.06962 22.5463C4.07889 22.5536 4.07584 22.5535 4.07648 22.5521C4.86181 23.3726 5.95158 23.0673 6.4453 22.2752C6.78532 21.7297 6.94056 21.1288 7.02293 20.5047C7.08653 20.0228 7.13917 19.5391 7.13051 19.0507C7.12436 18.7034 7.21288 18.5796 7.53727 18.4634C7.75993 18.3837 7.98716 18.351 8.22041 18.4908C8.24711 18.6478 8.20375 18.7807 8.16421 18.9138C7.89653 19.8147 7.53871 20.6786 7.09735 21.5081C6.98794 21.7138 6.89552 21.9246 6.84943 22.1559C6.80922 22.3577 6.83684 22.5398 6.96003 22.7245C6.97258 22.7492 6.97866 22.7578 6.99687 22.7767C7.009 22.7869 7.00579 22.7859 7.00636 22.7843C7.02142 22.8009 7.03672 22.8187 7.04885 22.8384C7.47532 23.5332 8.17795 23.2911 8.49732 22.8296C8.7475 22.4682 8.82974 22.0525 8.89964 21.6298C9.04103 20.7746 9.1665 19.9153 9.4912 19.1025C9.57644 18.8891 9.70136 18.7055 9.8754 18.5577C9.9891 18.4612 10.1133 18.3801 10.2876 18.4564C10.3345 18.8068 10.2429 19.1301 10.1935 19.4578C10.0955 20.1084 10.114 20.7523 10.3056 21.3857C10.4774 21.9539 10.7807 22.4399 11.2343 22.8515Z" fill="#F47A23"/>
<path d="M30.9434 20.3515C31.1764 19.9036 31.4637 19.5218 31.8684 19.2428C32.7018 18.6681 33.6266 18.4884 34.6127 18.6677C35.1916 18.773 35.6464 19.1073 36.0024 19.574C36.3558 20.0373 36.4642 20.5636 36.3023 21.1122C36.03 22.0352 35.4354 22.6695 34.4952 22.944C34.1857 23.0344 33.8685 23.0333 33.5518 22.9669C32.938 22.8383 32.5137 22.2118 32.6329 21.6077C32.753 20.9995 33.3807 20.6043 34.0125 20.7381C34.12 20.7609 34.2198 20.8013 34.312 20.8598C34.5094 20.9849 34.5819 21.1458 34.5356 21.3505C34.4934 21.5379 34.3078 21.693 34.0995 21.7135C33.9652 21.7267 33.8374 21.6977 33.7139 21.6479C33.6637 21.6277 33.6169 21.5975 33.5655 21.582C33.3684 21.5227 33.1813 21.6052 33.0984 21.7837C33.0194 21.9539 33.061 22.1519 33.2307 22.2535C33.6535 22.5065 34.1072 22.5662 34.5653 22.3688C35.0139 22.1755 35.2731 21.8163 35.3141 21.3298C35.3514 20.8872 35.1645 20.5315 34.8066 20.2691C34.1774 19.8078 33.2116 19.833 32.5732 20.3498C31.9662 20.8411 31.7112 21.4908 31.8998 22.2517C32.092 23.0267 32.5979 23.542 33.3936 23.7109C34.5396 23.954 35.857 23.4821 36.4944 22.3049C36.5681 22.1687 36.6392 22.0312 36.7105 21.8937C36.7426 21.8316 36.7725 21.7676 36.8264 21.7215C36.8483 21.7028 36.881 21.683 36.9067 21.6856C36.9523 21.69 36.9639 21.7344 36.963 21.7735C36.959 21.9361 36.9645 22.1002 36.9439 22.2609C36.8235 23.199 36.3594 23.911 35.5318 24.3795C34.9497 24.709 34.318 24.891 33.6596 24.9628C32.9218 25.0432 32.2929 24.771 31.7472 24.2863C31.6836 24.2297 31.6231 24.1696 31.548 24.1013C31.5071 24.0867 31.4921 24.07 31.4904 24.0232C31.6996 23.1384 31.6797 22.2721 31.4916 21.4063C31.4109 21.0354 31.2512 20.7055 30.962 20.4241C30.9478 20.3953 30.9439 20.383 30.9434 20.3515Z" fill="#04B9AD"/>
<path d="M19.0372 20.1478C19.0457 20.1173 19.0469 20.1034 19.0512 20.0798C19.1575 20.033 19.239 19.9591 19.3307 19.9023C19.9913 19.493 20.7027 19.3304 21.4792 19.4225C21.9545 19.4789 22.4065 19.5924 22.8164 19.841C23.5322 20.275 23.9431 20.9226 24.1188 21.7316C24.2645 22.4026 24.2219 23.0666 24.0366 23.754C23.4936 23.7823 23.16 23.4934 22.9242 23.053C22.7984 22.8179 22.7295 22.5772 22.7171 22.3037C22.6927 21.7665 22.5863 21.2442 22.2558 20.795C21.7381 20.0915 20.8015 19.8333 19.9946 20.1748C19.8518 20.2352 19.7122 20.3029 19.5873 20.396C19.4106 20.5278 19.3677 20.7308 19.4767 20.9068C19.5858 21.0828 19.7897 21.1465 19.9811 21.0406C20.1583 20.9427 20.3331 20.8498 20.5341 20.8088C21.0969 20.6941 21.7075 21.0823 21.8337 21.6395C21.8586 21.7497 21.8304 21.7774 21.7111 21.74C21.3694 21.6329 21.0247 21.6229 20.6814 21.716C20.0789 21.8793 19.6689 22.4234 19.6386 23.0202C19.5974 23.8331 20.1213 24.413 20.6977 24.59C21.2782 24.7683 21.9699 24.5299 22.3444 24.014C22.3892 23.9523 22.4306 23.8882 22.4797 23.8162C22.5599 23.8572 22.5922 23.9311 22.6407 23.9867C22.8712 24.251 23.1452 24.4402 23.4954 24.5096C23.6297 24.5362 23.6384 24.5596 23.5568 24.6737C23.2161 25.1493 22.7799 25.4944 22.1977 25.6185C21.4856 25.7703 20.7677 25.7918 20.0573 25.6202C19.0255 25.3711 18.3438 24.7337 18.0239 23.717C18.0077 23.6654 17.9941 23.613 17.9747 23.5428C17.9712 23.5162 17.9724 23.5076 17.9765 23.4864C18.0899 23.2563 18.2962 23.1183 18.434 22.9209C18.9372 22.1996 19.1613 21.4117 19.0465 20.5332C19.0306 20.4117 19.0082 20.2885 19.0372 20.1478Z" fill="#8789C3"/>
<path d="M24.0142 23.7979C24.0213 23.7814 24.0375 23.7723 24.0405 23.7691C24.5458 23.7069 24.8594 23.426 25.0011 22.9469C25.0763 22.6926 25.0975 22.4309 25.1017 22.1667C25.1063 21.8805 25.1005 21.5943 25.1316 21.3083C25.2148 20.5435 25.8051 20.1379 26.5522 20.3402C26.6874 20.3768 26.8146 20.4326 26.934 20.5066C27.1174 20.6203 27.1175 20.6189 27.2775 20.4869C27.6762 20.1581 28.1202 20.0882 28.6051 20.2575C28.7776 20.3177 28.907 20.4411 29.0443 20.568C29.6158 20.0761 30.2322 19.9307 30.9315 20.3268C30.9469 20.3325 30.9495 20.3534 30.9519 20.3636C30.9658 20.4448 30.9488 20.5111 30.9222 20.5761C30.7777 20.9289 30.7185 21.2997 30.6918 21.6771C30.6879 21.7311 30.6818 21.7844 30.6379 21.8445C30.5777 21.7345 30.5346 21.611 30.4862 21.4896C30.4227 21.3299 30.34 21.1815 30.2083 21.0665C29.9814 20.8682 29.6973 20.936 29.5897 21.2154C29.5363 21.3539 29.515 21.4994 29.5132 21.6476C29.5043 22.3601 29.5088 23.0721 29.5947 23.7812C29.6114 23.9191 29.6177 24.0598 29.6119 24.1985C29.6018 24.441 29.4409 24.6294 29.2152 24.6824C29.0022 24.7324 28.8088 24.629 28.6882 24.397C28.6193 24.2643 28.5916 24.1214 28.5869 23.9719C28.5764 23.6377 28.6134 23.3072 28.6563 22.977C28.7113 22.5533 28.7464 22.1302 28.6342 21.709C28.598 21.573 28.5507 21.4433 28.4614 21.3324C28.2685 21.0927 27.9378 21.0524 27.6934 21.237C27.6038 21.3048 27.56 21.3767 27.6212 21.4928C27.9078 22.036 28.0221 22.6269 28.0942 23.2292C28.1314 23.5408 28.1117 23.8479 28.0251 24.1491C27.957 24.3855 27.8294 24.5853 27.6356 24.7409C27.2824 25.0245 26.8117 24.9928 26.5059 24.66C26.2154 24.3436 26.1238 23.9531 26.1369 23.5418C26.1504 23.1168 26.2056 22.6949 26.3346 22.2846C26.4233 22.0022 26.5313 21.7311 26.6879 21.4796C26.7694 21.3485 26.7633 21.3239 26.6429 21.2389C26.5594 21.1798 26.4648 21.1436 26.3659 21.1237C26.198 21.0899 26.0612 21.1574 25.9799 21.3122C25.9178 21.4304 25.8956 21.5599 25.8828 21.6919C25.8536 21.993 25.8517 22.2949 25.8465 22.5968C25.8422 22.8472 25.7927 23.0895 25.7026 23.3219C25.4248 24.039 24.8617 24.3844 24.1345 24.5049C23.9916 24.5285 23.8463 24.567 23.6729 24.529C23.7957 24.2906 23.9267 24.0634 24.0142 23.7979Z" fill="#FCB01B"/>
<path d="M11.2689 17.1715C10.9354 16.8692 10.5548 16.8739 10.1637 16.9545C9.89357 17.0102 9.65744 17.1425 9.44254 17.3134C9.38851 17.3563 9.33528 17.4003 9.28474 17.4413C9.26411 17.4308 9.24457 17.4276 9.24036 17.4178C9.08604 17.0581 8.79133 16.9304 8.42369 16.9119C7.98454 16.8897 7.5827 17.0134 7.19771 17.2092C7.11499 17.2512 7.03592 17.3004 6.95431 17.3447C6.86669 17.3923 6.791 17.4905 6.69501 17.4849C6.60219 17.4795 6.58499 17.3497 6.5188 17.286C6.25681 17.034 5.92876 16.9555 5.58409 16.9311C5.09677 16.8967 4.62965 16.9982 4.17671 17.1719C4.0395 17.2245 3.90544 17.2852 3.76878 17.3393C3.71151 17.362 3.65184 17.3795 3.59208 17.3946C3.55512 17.404 3.51067 17.4117 3.48338 17.3784C3.45604 17.3449 3.47175 17.3036 3.492 17.2708C3.5326 17.205 3.57494 17.1401 3.6203 17.0775C4.41102 15.9869 5.49714 15.3694 6.80099 15.116C7.68761 14.9436 8.57173 14.9431 9.43485 15.2536C10.6086 15.676 11.5051 16.4155 12.0365 17.5614C12.2942 18.1171 12.4073 18.7058 12.4162 19.3176C12.4265 20.0215 12.3113 20.7039 12.0782 21.3847C11.9268 21.3904 11.8854 21.2691 11.8295 21.1729C11.5449 20.6827 11.5032 20.1489 11.5631 19.5999C11.5992 19.2689 11.672 18.9439 11.7392 18.6183C11.8481 18.0899 11.7544 17.6194 11.3385 17.2214C11.3237 17.2091 11.3273 17.2067 11.3283 17.2086C11.3167 17.1948 11.3004 17.1849 11.2689 17.1715Z" fill="#F57A23"/>
<path d="M8.23681 18.4893C7.9539 18.4325 7.68406 18.4385 7.42136 18.5731C7.2612 18.6552 7.18466 18.7637 7.1879 18.9561C7.20067 19.7149 7.13094 20.4676 6.95595 21.2072C6.84282 21.6853 6.66148 22.1372 6.34363 22.5197C5.85257 23.1108 4.99546 23.3215 4.30876 22.8317C4.21478 22.7647 4.11886 22.6976 4.0752 22.5672C4.26893 22.6305 4.4601 22.7133 4.67075 22.7312C5.10625 22.7682 5.47747 22.6262 5.78472 22.3198C6.10984 21.9957 6.30665 21.5943 6.44876 21.1651C6.66661 20.5073 6.74529 19.8253 6.7803 19.1369C6.78933 18.9594 6.80438 18.7817 6.80221 18.6042C6.80091 18.4976 6.84332 18.4323 6.92498 18.3739C7.14168 18.2189 7.37441 18.103 7.63981 18.0608C7.97367 18.0078 8.16736 18.1409 8.23681 18.4893Z" fill="#8A3538"/>
<path d="M10.3025 18.4511C10.0233 18.4487 9.85292 18.6142 9.71171 18.8171C9.51866 19.0944 9.42324 19.4162 9.33941 19.737C9.16958 20.3868 9.04845 21.0469 8.95157 21.712C8.89125 22.126 8.79437 22.5329 8.54053 22.8817C8.3851 23.0953 8.1865 23.2419 7.92629 23.3097C7.53978 23.4104 7.14507 23.2047 7.00488 22.7999C7.43269 22.9893 7.79969 22.9059 8.09636 22.5319C8.34044 22.2241 8.43483 21.859 8.49435 21.4806C8.605 20.7771 8.73505 20.0777 8.95868 19.3994C9.03633 19.1639 9.12744 18.9337 9.24519 18.715C9.3188 18.5783 9.40258 18.4483 9.51062 18.3354C9.57514 18.268 9.64394 18.2057 9.7258 18.1597C10.0383 17.984 10.2385 18.0783 10.3025 18.4511Z" fill="#893437"/>
<path d="M30.626 21.8771C30.6369 21.351 30.7135 20.858 30.9426 20.3843C31.2249 20.533 31.3572 20.7955 31.4596 21.0723C31.5723 21.377 31.6196 21.6968 31.6603 22.0196C31.7041 22.3667 31.7094 22.7132 31.6957 23.06C31.683 23.3829 31.6459 23.7049 31.5355 24.0286C31.4704 24.0758 31.4364 24.0359 31.4086 24.0032C31.0657 23.6005 30.7882 23.1657 30.7317 22.605C30.691 22.359 30.6597 22.1281 30.626 21.8771Z" fill="#04765C"/>
<path d="M11.3212 17.2266C11.4631 17.2257 11.5298 17.3363 11.6048 17.4314C11.8586 17.7537 11.8875 18.1306 11.8252 18.5121C11.7657 18.8767 11.6676 19.2358 11.6276 19.6036C11.5582 20.2426 11.6247 20.8544 12.0561 21.3908C12.0711 21.5181 12.0009 21.6163 11.9746 21.7445C11.9375 21.81 11.9031 21.8585 11.8565 21.916C11.416 21.4335 11.1423 20.882 11.1314 20.2124C11.1212 19.587 11.2596 18.9869 11.3966 18.3849C11.4291 18.2421 11.468 18.101 11.4781 17.9534C11.4954 17.7003 11.4604 17.4605 11.3212 17.2266Z" fill="#893538"/>
<path d="M21.592 23.7059C21.4002 23.834 21.2111 23.9189 20.9913 23.8707C20.571 23.7784 20.3189 23.3766 20.4118 22.955C20.498 22.564 20.9035 22.3137 21.3351 22.4351C21.9699 22.6136 22.0538 22.862 21.8245 23.3983C21.7757 23.5126 21.7007 23.6126 21.592 23.7059Z" fill="#888AC4"/>
<path d="M5.5759 18.6881C5.37523 18.483 5.12968 18.473 4.88165 18.5294C3.87275 18.7585 3.27061 19.4097 2.97661 20.3955C2.94467 19.6073 3.16592 18.9082 3.82838 18.406C4.19684 18.1267 4.61911 17.9908 5.08468 18.0013C5.23445 18.0047 5.37539 18.0434 5.50494 18.1176C5.71743 18.2393 5.75453 18.3613 5.64848 18.5781C5.63157 18.6127 5.60918 18.6446 5.5759 18.6881Z" fill="#893639"/>
<path d="M5.0796 21.6553C5.0063 21.7149 4.94324 21.7596 4.86852 21.784C4.70735 21.8365 4.60661 21.762 4.61694 21.595C4.62322 21.4933 4.66145 21.3998 4.70387 21.3082C4.79835 21.1041 4.91717 20.9142 5.04078 20.7271C5.27958 20.3656 5.53433 20.0157 5.81103 19.6822C5.86811 19.6134 5.93157 19.5499 6.00202 19.4731C6.09407 20.034 5.63684 21.1079 5.0796 21.6553Z" fill="#89373C"/>
<path d="M30.7185 22.6113C30.7928 22.7771 30.8568 22.9673 30.9356 23.1512C31.0735 23.4733 31.261 23.7654 31.51 24.0337C31.5235 24.053 31.5257 24.0642 31.5329 24.0832C31.4896 24.2142 31.4557 24.3429 31.3959 24.4582C31.2837 24.6743 31.0601 24.7609 30.8269 24.6957C30.5783 24.6262 30.4427 24.4126 30.5106 24.1643C30.6479 23.6623 30.7037 23.1509 30.7185 22.6113Z" fill="#FAB01D"/>
<path d="M11.2627 17.175C11.2781 17.1717 11.2991 17.1804 11.3248 17.1999C11.2965 17.2355 11.2857 17.2027 11.2627 17.175Z" fill="#893538"/>
<path d="M4.0271 22.4977C4.01954 22.4996 4.00708 22.4904 3.98828 22.4714C3.99536 22.4698 4.00878 22.4782 4.0271 22.4977Z" fill="#8A3538"/>
<path d="M4.07613 22.5408C4.06479 22.5453 4.05055 22.5372 4.03223 22.5168C4.04317 22.5124 4.05821 22.5203 4.07613 22.5408Z" fill="#8A3538"/>
<path d="M7.00689 22.7755C6.99382 22.7834 6.98229 22.7748 6.9707 22.7507C6.98356 22.7416 6.99615 22.7495 7.00689 22.7755Z" fill="#893437"/>
<path d="M16.5394 17.8053C16.5182 18.0559 16.3678 18.1775 16.1684 18.2546C16.0297 18.3082 15.8825 18.3138 15.7363 18.3307C15.2747 18.3842 15.0462 18.8308 15.277 19.2202C15.4087 19.4422 15.6223 19.5304 15.8654 19.5281C16.4564 19.5224 16.9157 19.2518 17.2704 18.7903C17.3719 18.6582 17.448 18.5095 17.5276 18.3576C17.5705 18.7181 17.6475 19.0609 17.7508 19.398C17.7806 19.4952 17.7484 19.5797 17.7047 19.6642C17.5508 19.9615 17.3242 20.1897 17.0378 20.3576C16.5421 20.6479 16.0108 20.7416 15.4516 20.6019C14.513 20.3675 14.111 19.6021 14.1867 18.7522C14.2482 18.0617 14.6038 17.5651 15.2746 17.3291C15.5747 17.2236 15.8816 17.2154 16.1847 17.3251C16.3993 17.4028 16.539 17.5424 16.5394 17.8053Z" fill="#FDFEFB"/>
<path d="M19.0314 20.1379C19.1657 20.6564 19.1814 21.1806 19.0536 21.7081C18.8854 22.4027 18.5558 22.9986 17.9943 23.4704C17.8472 23.0355 17.8512 22.584 17.9022 22.1398C17.9795 21.4671 18.2769 20.8849 18.74 20.3907C18.8241 20.3008 18.9245 20.2262 19.0314 20.1379Z" fill="#3D417E"/>
<path d="M26.9779 23.2279C27.0145 22.8919 27.0522 22.5776 27.1579 22.2629C27.2366 22.3798 27.2336 22.5048 27.2549 22.6213C27.3146 22.9486 27.3791 23.2758 27.3821 23.6105C27.3828 23.6954 27.3861 23.781 27.344 23.8602C27.3095 23.9251 27.2635 23.9786 27.1875 23.9837C27.1066 23.989 27.0623 23.9302 27.0309 23.8656C26.9863 23.7739 26.9649 23.6748 26.964 23.5735C26.9629 23.4653 26.9704 23.3569 26.9779 23.2279Z" fill="#FEFAF1"/>
<path d="M26.3505 15.7173C26.3432 15.7251 26.3368 15.734 26.3303 15.743C26.3198 15.7311 26.3218 15.7215 26.3446 15.7174C26.3531 15.7207 26.3513 15.7184 26.3505 15.7173Z" fill="white"/>
<path d="M29.0871 16.0376C29.1832 15.9262 29.2903 15.8709 29.4196 15.8646C29.5397 15.8588 29.5764 15.8926 29.5629 16.009C29.5452 16.1616 29.5214 16.3144 29.4668 16.4588C29.4426 16.5226 29.4084 16.5855 29.3659 16.6385C29.2966 16.7248 29.2117 16.7931 29.0883 16.7583C28.9863 16.7296 28.9184 16.6226 28.9264 16.4808C28.9352 16.3254 28.9782 16.1777 29.0871 16.0376Z" fill="#F7F8F8"/>
<path d="M31.2342 16.9277C31.2395 16.9303 31.2446 16.8772 31.2399 16.9267C31.2314 16.9244 31.2333 16.9266 31.2342 16.9277Z" fill="white"/>
<circle cx="20" cy="20" r="19.5" stroke="black" stroke-opacity="0.05"/>
</svg>
