<svg width="40" height="40" viewBox="0 0 40 40" fill="none" xmlns="http://www.w3.org/2000/svg">
<circle cx="20" cy="20" r="20" fill="#263692"/>
<path d="M9.45612 17H9.74682C10.2282 17.0315 10.6638 17.1791 11.0535 17.4427C11.8359 17.9718 12.2806 18.902 12.1794 19.8585C12.0928 20.6762 11.6324 21.4007 10.9255 21.8215C9.72628 22.5354 8.15578 22.1689 7.40795 20.9813C7.10381 20.4983 6.97192 19.9661 7.01229 19.3848C7.0133 19.3705 7.00985 19.3569 7.00194 19.3439C6.55729 18.6155 5.85647 18.0256 5.04612 17.7312C5.03111 17.7258 5.03151 17.7217 5.04733 17.7191L5.49168 17.6442C5.73011 17.7322 5.95753 17.849 6.17394 17.9947C6.61358 18.2909 6.95773 18.6699 7.20639 19.1318C7.34695 19.4289 7.54532 19.7134 7.79191 19.9327C8.03317 20.1482 8.30907 20.3012 8.6196 20.392C8.93429 20.4792 9.25435 20.5119 9.57979 20.4901C9.99721 20.4621 10.4096 20.3695 10.808 20.233L10.8465 20.2408L11.0405 20.2644C11.0687 20.2678 11.0697 20.2752 11.0437 20.2864C10.3057 20.6065 9.48106 20.8453 8.6914 20.6663C8.69005 20.6659 8.68862 20.666 8.68733 20.6666C8.68603 20.6671 8.68493 20.668 8.68418 20.6692C8.68343 20.6703 8.68306 20.6717 8.68312 20.6731C8.68319 20.6745 8.68369 20.6758 8.68456 20.6769C8.68648 20.6794 8.68866 20.6802 8.6911 20.6794C8.69637 20.6774 8.70099 20.6784 8.70494 20.6824L8.77765 20.7563C8.77948 20.7583 8.78171 20.7592 8.78435 20.7592H8.79135C8.79489 20.7592 8.79794 20.7605 8.80047 20.763L8.8236 20.7875C8.82583 20.79 8.82851 20.7908 8.83166 20.79C8.83318 20.7895 8.8347 20.7893 8.83622 20.7893C8.83967 20.7892 8.84261 20.7904 8.84504 20.7928L8.88414 20.8321C8.8851 20.8331 8.88627 20.8339 8.88758 20.8345C8.88889 20.835 8.8903 20.8353 8.89175 20.8353H8.8989C8.90468 20.8353 8.90863 20.8379 8.91076 20.8432C8.9136 20.8502 8.91867 20.8527 8.92597 20.8506C8.93246 20.8489 8.93743 20.851 8.94088 20.8569C8.9497 20.8722 8.96121 20.8804 8.97541 20.8814C8.98089 20.8817 8.98469 20.8844 8.98682 20.8894C8.98956 20.8957 8.99433 20.898 9.00112 20.8961C9.00761 20.8943 9.01263 20.8963 9.01618 20.9021C9.02592 20.9182 9.03844 20.9266 9.05375 20.9272C9.05761 20.9274 9.0603 20.9293 9.06182 20.9329C9.06527 20.9415 9.07165 20.9444 9.08098 20.9416C9.08575 20.9402 9.08895 20.9418 9.09057 20.9465C9.09361 20.9551 9.09965 20.9585 9.10867 20.9565C9.11394 20.9554 9.118 20.9571 9.12084 20.9617C9.12794 20.9726 9.13839 20.9759 9.15218 20.9716C9.15512 20.9707 9.15829 20.9708 9.16113 20.972C9.16397 20.9732 9.16629 20.9754 9.16769 20.9781C9.17195 20.9866 9.17895 20.9898 9.18869 20.9877C9.19386 20.9867 9.1971 20.9887 9.19842 20.9936C9.20045 21.0013 9.20552 21.0042 9.21363 21.0022C9.21962 21.0007 9.22433 21.0026 9.22778 21.0078C9.23468 21.0182 9.24502 21.0214 9.25881 21.0174C9.26149 21.0166 9.26435 21.0167 9.26696 21.0177C9.26957 21.0187 9.27179 21.0205 9.27327 21.0229C9.28026 21.0337 9.29081 21.0369 9.30491 21.0324C9.30757 21.0315 9.31046 21.0316 9.31305 21.0327C9.31565 21.0338 9.31778 21.0357 9.31905 21.0382C9.32423 21.0483 9.33249 21.0515 9.34385 21.0481C9.35196 21.0456 9.35881 21.0474 9.36439 21.0537C9.37412 21.0646 9.38786 21.0676 9.40561 21.0627C9.41372 21.0605 9.42037 21.0627 9.42554 21.0694C9.43325 21.0793 9.44415 21.0822 9.45825 21.0781C9.46018 21.0775 9.46221 21.0775 9.46414 21.078C9.46607 21.0785 9.46782 21.0795 9.4692 21.081C9.47052 21.0825 9.47158 21.0842 9.47239 21.086C9.47473 21.0913 9.47878 21.0939 9.48456 21.0939H9.5413C9.54597 21.0939 9.5484 21.0962 9.54861 21.1009C9.54861 21.1028 9.54937 21.1043 9.55089 21.1053C9.55464 21.1077 9.55865 21.109 9.56291 21.1091C9.5839 21.1093 9.60611 21.1092 9.62953 21.1088C9.63531 21.1088 9.63871 21.1116 9.63973 21.1173C9.64003 21.119 9.64094 21.1204 9.64246 21.1213C9.64612 21.1232 9.64992 21.1242 9.65387 21.1242C9.69515 21.1245 9.73779 21.1245 9.78181 21.1242C9.78749 21.1241 9.79088 21.1269 9.792 21.1325C9.7923 21.1343 9.79317 21.1355 9.79459 21.1363C9.79834 21.1386 9.80234 21.1397 9.8066 21.1397C9.87354 21.1395 9.94057 21.1395 10.0077 21.1397C10.0119 21.1397 10.0156 21.1384 10.0188 21.1357C10.0203 21.1345 10.0214 21.133 10.0222 21.1312C10.0239 21.1262 10.0274 21.1238 10.0327 21.1239C10.0703 21.1245 10.1081 21.1246 10.146 21.1242C10.1486 21.1242 10.1512 21.1236 10.1536 21.1223C10.1565 21.1209 10.1594 21.1193 10.1621 21.1175C10.1663 21.1147 10.1707 21.1132 10.1755 21.1129C10.1915 21.1118 10.2083 21.1107 10.2257 21.1096C10.2358 21.109 10.2456 21.1065 10.2551 21.1021C10.2652 21.0975 10.2761 21.0951 10.2876 21.0948C10.3021 21.0944 10.3171 21.0921 10.3325 21.0878C10.4314 21.0609 10.5304 21.0289 10.6297 20.9917C10.6344 20.9899 10.6381 20.9871 10.641 20.983C10.6442 20.9783 10.6486 20.9752 10.6541 20.9737C10.6752 20.9679 10.6929 20.9591 10.7073 20.9471C10.7115 20.9436 10.7163 20.9416 10.7218 20.941C10.7274 20.9404 10.732 20.9378 10.7353 20.9331C10.74 20.9264 10.7462 20.9242 10.754 20.9264C10.7597 20.9279 10.7648 20.9271 10.7694 20.9238C10.7831 20.914 10.7989 20.9058 10.817 20.8992C10.839 20.8912 10.855 20.884 10.8651 20.8777C10.8893 20.8625 10.9131 20.8473 10.9366 20.8321C10.9436 20.8275 10.9495 20.8224 10.9545 20.8166C10.9599 20.8102 10.9661 20.8052 10.9732 20.8017C10.9841 20.7962 10.9938 20.7894 11.0023 20.7814C11.0263 20.7588 11.0548 20.7405 11.0767 20.7194C11.1077 20.6893 11.1391 20.6594 11.1708 20.6296C11.1795 20.6214 11.183 20.6101 11.1946 20.6051C11.1965 20.6043 11.1981 20.6031 11.1994 20.6015L11.3147 20.4678C11.3187 20.4631 11.3201 20.4578 11.319 20.4518C11.3171 20.4408 11.3197 20.4319 11.3268 20.425C11.331 20.4208 11.3349 20.416 11.3383 20.4107C11.3674 20.3656 11.3982 20.3215 11.4307 20.2785C11.4427 20.2626 11.4535 20.2438 11.4629 20.2222C11.4755 20.1937 11.4853 20.175 11.4924 20.1659C11.5058 20.1491 11.5162 20.1307 11.5237 20.1107C11.5332 20.0855 11.5414 20.0659 11.5485 20.0519C11.5587 20.032 11.568 20.0121 11.5765 19.9921C11.5783 19.9881 11.5787 19.984 11.5778 19.9798C11.5766 19.9745 11.579 19.9708 11.5848 19.9688C11.5873 19.9679 11.5896 19.9662 11.5912 19.964C11.5929 19.9618 11.5938 19.9591 11.5939 19.9563C11.5946 19.9226 11.603 19.8912 11.619 19.8623C11.6348 19.8337 11.6453 19.8025 11.6505 19.7686C11.6517 19.7604 11.654 19.7528 11.6575 19.7458C11.6625 19.736 11.6663 19.7258 11.6689 19.7154C11.6865 19.6441 11.6983 19.5862 11.7042 19.5416C11.7154 19.4565 11.7187 19.3677 11.7139 19.2753C11.7121 19.2392 11.7111 19.2031 11.711 19.167C11.7109 19.1525 11.7093 19.1377 11.7063 19.1227C11.7034 19.1083 11.702 19.0934 11.7023 19.078C11.7025 19.0621 11.7001 19.0459 11.6949 19.0295C11.6898 19.0134 11.6868 18.9966 11.6858 18.9791C11.6819 18.9121 11.6681 18.8472 11.6442 18.7845C11.6425 18.7801 11.641 18.7716 11.6397 18.759C11.6387 18.7498 11.6351 18.7414 11.6289 18.7339C11.6257 18.73 11.624 18.7256 11.6238 18.7206C11.6235 18.7097 11.6203 18.6998 11.6143 18.6908C11.6112 18.6865 11.6094 18.6817 11.6089 18.6765C11.6064 18.6539 11.5992 18.6328 11.5873 18.6131C11.5798 18.6006 11.5745 18.5869 11.5712 18.5719C11.5684 18.5589 11.5631 18.5458 11.5555 18.5326C11.5483 18.5203 11.5422 18.5078 11.5371 18.4952C11.5318 18.4819 11.5246 18.4691 11.5157 18.4567C11.5138 18.4541 11.5131 18.4512 11.5136 18.4482C11.5144 18.4428 11.5128 18.4384 11.5088 18.4348C11.488 18.4162 11.4739 18.3934 11.4667 18.3664C11.4653 18.3611 11.4623 18.3568 11.4579 18.3536C11.4457 18.3444 11.4386 18.333 11.4366 18.3193C11.436 18.315 11.4339 18.3115 11.4303 18.3089C11.4167 18.2985 11.4084 18.2859 11.4057 18.271C11.4052 18.268 11.4037 18.2658 11.4011 18.2641C11.3905 18.2575 11.3828 18.2492 11.378 18.2392C11.3734 18.2295 11.3675 18.2206 11.3605 18.2124C11.3507 18.2008 11.3408 18.1902 11.331 18.1806C11.3303 18.1798 11.3302 18.1789 11.3306 18.178C11.3313 18.1763 11.3315 18.1746 11.3313 18.1729C11.3309 18.1693 11.3291 18.1657 11.3261 18.1627C11.2991 18.1348 11.2712 18.1056 11.2425 18.075C11.237 18.0693 11.2268 18.056 11.2117 18.0353C11.2002 18.0194 11.1869 18.0065 11.1717 17.9965C11.1482 17.9809 11.1278 17.9635 11.1106 17.9444C11.0887 17.9199 11.0694 17.9019 11.0528 17.8904C11.0261 17.872 11.0071 17.8571 10.9957 17.8455C10.9924 17.842 10.988 17.8398 10.9833 17.8393C10.9771 17.8384 10.9718 17.8358 10.9674 17.8312C10.9511 17.8141 10.9336 17.8006 10.9148 17.7909C10.9045 17.7855 10.8956 17.7787 10.8882 17.7705C10.885 17.7669 10.8812 17.7644 10.8766 17.7627C10.8604 17.7568 10.8452 17.7488 10.831 17.7389C10.8177 17.7294 10.8035 17.7205 10.7882 17.7121C10.6967 17.6616 10.6026 17.6204 10.5061 17.5886C10.4947 17.5848 10.4842 17.5811 10.4744 17.5775C10.4563 17.5707 10.4381 17.5641 10.42 17.5577C10.4016 17.5513 10.3828 17.5534 10.3652 17.5455C10.3538 17.5404 10.3417 17.5365 10.3288 17.5338C10.2991 17.5274 10.2693 17.5215 10.2394 17.516C10.2307 17.5144 10.222 17.5122 10.2134 17.5095C10.1998 17.5051 10.1853 17.503 10.17 17.5031C10.1469 17.5033 10.1235 17.5007 10.0999 17.4953C10.0808 17.4909 10.0603 17.4882 10.0383 17.4871C10.0049 17.4856 9.96785 17.4824 9.92708 17.4775C9.92353 17.4771 9.92019 17.4777 9.91704 17.4792C9.9138 17.4808 9.9103 17.4816 9.90655 17.4815C9.79631 17.4784 9.70012 17.4867 9.61797 17.5063C9.5913 17.5126 9.56453 17.518 9.53765 17.5224C9.52782 17.524 9.51874 17.5264 9.51042 17.5297C9.50059 17.5334 9.4905 17.5357 9.48015 17.5365C9.46534 17.5377 9.45059 17.5407 9.43588 17.5454C9.39288 17.5591 9.34902 17.5713 9.3043 17.5817C9.29994 17.5827 9.29624 17.5845 9.29319 17.587C9.28812 17.5914 9.28275 17.5945 9.27707 17.5963C9.24239 17.608 9.20486 17.6225 9.1645 17.64C9.15096 17.6458 9.14518 17.6576 9.12738 17.6561C9.12474 17.6559 9.12221 17.6564 9.11978 17.6575C9.11623 17.6592 9.11323 17.6617 9.1108 17.6649C9.10796 17.6685 9.10426 17.6704 9.0997 17.6709C9.0856 17.6719 9.07206 17.6767 9.05908 17.6855C9.05026 17.6912 9.04113 17.6959 9.0317 17.6993C9.01953 17.7037 9.00918 17.7116 9.00066 17.7232C8.99701 17.7281 8.9922 17.7297 8.98621 17.7282C8.98003 17.7267 8.97531 17.7287 8.97207 17.7343C8.96943 17.739 8.96542 17.7417 8.96005 17.7427C8.94615 17.7451 8.93525 17.7524 8.92734 17.7646C8.9243 17.7692 8.92009 17.7721 8.91472 17.7731C8.899 17.7762 8.88657 17.7854 8.87745 17.8005C8.87582 17.8031 8.87344 17.8044 8.8703 17.8044C8.86867 17.8044 8.867 17.8044 8.86528 17.8043C8.8599 17.8036 8.85539 17.8052 8.85174 17.8091L8.82983 17.8323C8.8276 17.8347 8.82486 17.8356 8.82162 17.8348C8.81989 17.8344 8.81817 17.8343 8.81645 17.8345C8.81269 17.8349 8.8095 17.8365 8.80686 17.8393L8.75225 17.8943C8.75124 17.8953 8.75002 17.8957 8.7486 17.8955C8.74718 17.8953 8.74571 17.8952 8.74419 17.8952C8.73891 17.8953 8.7344 17.8973 8.73065 17.901L8.59511 18.0378C8.46946 17.9421 8.33412 17.8611 8.1891 17.7945C8.13707 17.7696 8.08459 17.7471 8.03165 17.7271C7.97841 17.707 7.92091 17.6866 7.85915 17.6661C8.3146 17.2622 8.84692 17.0402 9.45612 17Z" fill="white"/>
<path d="M20.369 19.3845C20.3753 19.3845 20.377 19.3817 20.3741 19.3761L19.6472 17.9549C19.6467 17.9539 19.6459 17.9531 19.6449 17.9525C19.644 17.9519 19.6429 17.9516 19.6418 17.9516C19.6406 17.9516 19.6395 17.9519 19.6386 17.9525C19.6376 17.9531 19.6368 17.9539 19.6363 17.9549L18.1977 20.6858C18.1952 20.6904 18.1914 20.6928 18.1861 20.6928H17.5212C17.5206 20.6927 17.5199 20.6926 17.5194 20.6923C17.5189 20.692 17.5184 20.6915 17.5181 20.691C17.5178 20.6904 17.5176 20.6898 17.5176 20.6892C17.5176 20.6886 17.5177 20.688 17.518 20.6874C18.0904 19.6472 18.6594 18.6123 19.2249 17.5828C19.2656 17.5088 19.3257 17.4385 19.4054 17.3719C19.5363 17.2626 19.745 17.2495 19.8766 17.3665C19.9497 17.4315 20.0035 17.495 20.0379 17.5569C20.6148 18.5975 21.1929 19.6406 21.7722 20.6862C21.7746 20.6906 21.7734 20.6928 21.7684 20.6928H21.0804C21.0761 20.6928 21.073 20.6909 21.0711 20.6871L20.6255 19.8619C20.6235 19.858 20.6203 19.8561 20.6159 19.8561H19.0829C19.0822 19.8561 19.0815 19.8559 19.0809 19.8555C19.0803 19.8551 19.0797 19.8546 19.0794 19.854C19.079 19.8534 19.0789 19.8527 19.0789 19.852C19.0788 19.8513 19.079 19.8506 19.0794 19.85L19.3329 19.3918C19.3342 19.3896 19.336 19.3878 19.3382 19.3865C19.3404 19.3852 19.3429 19.3845 19.3454 19.3845H20.369Z" fill="white"/>
<path d="M15.6791 17.3671C16.0531 17.4045 16.4714 17.555 16.7204 17.8297C16.7812 17.8967 16.8389 17.9725 16.8937 18.0568C17.0703 18.3288 17.1646 18.6187 17.1765 18.9265C17.1929 19.3494 17.0496 19.7448 16.8003 20.0875C16.7452 20.1632 16.6905 20.2264 16.6363 20.2772C16.3275 20.5662 15.8675 20.6996 15.4513 20.6999C14.798 20.7005 14.1436 20.7006 13.4881 20.7002C13.4873 20.7002 13.4864 20.7001 13.4856 20.6997C13.4848 20.6994 13.484 20.6989 13.4834 20.6982C13.4828 20.6976 13.4823 20.6968 13.482 20.696C13.4816 20.6952 13.4814 20.6943 13.4814 20.6934V17.3659C13.4814 17.3602 13.4843 17.3574 13.49 17.3574C14.1372 17.3581 14.7719 17.3578 15.3942 17.3565C15.5099 17.3562 15.6049 17.3597 15.6791 17.3671ZM14.1126 17.9573L14.1051 20.0919C14.1051 20.0946 14.1062 20.0972 14.1081 20.0992C14.11 20.1011 14.1126 20.1022 14.1153 20.1023L15.5874 20.1074C15.7177 20.1079 15.8469 20.0816 15.9675 20.0302C16.088 19.9787 16.1977 19.9031 16.2902 19.8075C16.3827 19.712 16.4562 19.5984 16.5065 19.4733C16.5568 19.3482 16.5829 19.2141 16.5834 19.0785L16.5837 18.9878C16.5846 18.7141 16.4809 18.4512 16.2955 18.2569C16.1101 18.0627 15.8582 17.9531 15.595 17.9522L14.1229 17.947C14.1202 17.947 14.1176 17.9481 14.1156 17.95C14.1137 17.952 14.1126 17.9546 14.1126 17.9573Z" fill="white"/>
<path d="M22.2844 17.9325C22.4262 17.6309 22.696 17.4308 23.0239 17.3735C23.0903 17.3619 23.1816 17.3562 23.2978 17.3565C24.1058 17.3579 24.8963 17.358 25.6693 17.3569C25.675 17.3569 25.6779 17.3597 25.6779 17.3654V17.9427C25.6779 17.9478 25.6754 17.9503 25.6703 17.9503C24.8216 17.951 23.9989 17.9509 23.2023 17.9499C23.1495 17.9498 23.1051 17.9563 23.0692 17.9695C22.7032 18.1035 22.7278 18.5498 23.0795 18.6766C23.1179 18.6904 23.1695 18.6971 23.2344 18.6969C23.734 18.6954 24.2583 18.6953 24.8073 18.6965C25.0901 18.6971 25.4184 18.7824 25.6166 18.9848C25.775 19.1462 25.8789 19.3565 25.8964 19.5872C25.9013 19.6525 25.9021 19.7185 25.8988 19.7854C25.8816 20.1318 25.7248 20.3777 25.4286 20.5232C25.2942 20.5891 25.1515 20.6315 25.0004 20.6503C24.9286 20.6594 24.8308 20.6637 24.7071 20.6634C23.9187 20.6618 23.1432 20.6615 22.3805 20.6627C22.3756 20.6627 22.3731 20.6602 22.3731 20.6552V20.0771C22.3731 20.0716 22.3759 20.0688 22.3815 20.0688C23.1715 20.0693 23.9925 20.0692 24.8444 20.0685C25.0135 20.0685 25.1583 20.0405 25.2623 19.8934C25.325 19.8048 25.3358 19.6996 25.3174 19.5963C25.2759 19.3623 25.0361 19.27 24.8195 19.2701C23.9854 19.2707 23.4515 19.2704 23.2178 19.2692C22.9403 19.2679 22.6577 19.1688 22.4641 18.9673C22.3055 18.8022 22.2187 18.593 22.2036 18.3398C22.1953 18.2005 22.2222 18.0648 22.2844 17.9325Z" fill="white"/>
<path d="M26.64 18.7514C26.6809 18.4169 26.8388 18.0929 27.0658 17.841C27.3203 17.5585 27.6846 17.4062 28.0625 17.3673C28.1349 17.3598 28.2314 17.3562 28.352 17.3565C28.9525 17.3583 29.5337 17.3585 30.0956 17.3572C30.1015 17.3572 30.1044 17.3602 30.1044 17.366V17.943C30.1044 17.9485 30.1017 17.9513 30.0962 17.9513C29.4846 17.9509 28.877 17.951 28.2734 17.9517C27.747 17.9523 27.334 18.3293 27.2558 18.845C27.2065 19.1696 27.2763 19.5002 27.4872 19.7499C27.6447 19.9364 27.8455 20.0493 28.0896 20.0886C28.1567 20.0994 28.2415 20.1047 28.3439 20.1044C28.9608 20.1029 29.5453 20.1028 30.0973 20.1042C30.1021 20.1042 30.1044 20.1067 30.1044 20.1115V20.6963C30.1044 20.699 30.1031 20.7004 30.1003 20.7004C29.4951 20.701 28.8893 20.701 28.2831 20.7002C28.0585 20.7 27.8468 20.6652 27.648 20.5957C27.3322 20.4855 27.0867 20.2892 26.9114 20.0067C26.6746 19.6251 26.5841 19.2067 26.64 18.7514Z" fill="white"/>
<path d="M35.03 18.8908V19.0999C34.9976 19.5234 34.8409 19.8915 34.5598 20.204C34.2567 20.5411 33.8129 20.6975 33.3647 20.6999C33.0675 20.7017 32.7868 20.7012 32.5229 20.6986C32.4224 20.6976 32.315 20.6858 32.2008 20.6633C31.8207 20.5884 31.4967 20.393 31.2671 20.0849C31.0061 19.7345 30.8859 19.3379 30.9066 18.895C30.9271 18.4592 31.1048 18.0564 31.4163 17.761C31.657 17.5328 31.9935 17.4073 32.3304 17.3688C32.4056 17.3602 32.5018 17.3561 32.6192 17.3565C32.9013 17.3576 33.1696 17.3582 33.424 17.3583C33.5777 17.3584 33.742 17.3837 33.9169 17.4342C34.2239 17.5227 34.4703 17.6895 34.6658 17.9362C34.8841 18.212 35.0055 18.5301 35.03 18.8908ZM34.4054 18.8576C34.3435 18.4078 34.0229 18.0473 33.5699 17.9669C33.5052 17.9555 33.4156 17.9498 33.3011 17.9501C32.9538 17.9505 32.6978 17.9512 32.5331 17.9523C32.0787 17.9557 31.6885 18.2395 31.5575 18.6824C31.3724 19.308 31.6853 19.9795 32.3574 20.0886C32.4359 20.1014 32.5364 20.1068 32.659 20.105C32.8609 20.1021 33.0672 20.1019 33.2777 20.1045C33.4063 20.1062 33.507 20.1005 33.58 20.0877C33.7561 20.0566 33.9057 19.992 34.0286 19.8939C34.3454 19.6409 34.4601 19.2549 34.4054 18.8576Z" fill="white"/>
<path d="M10.8471 20.241C10.8471 20.2244 10.8564 20.2144 10.8749 20.2108C10.8803 20.2098 10.8849 20.2074 10.8888 20.2035L10.939 20.1536C10.9408 20.1518 10.943 20.1509 10.9457 20.1509H10.9518C10.9552 20.1509 10.9582 20.1497 10.9607 20.1472L11.1138 19.9941C11.117 19.9908 11.1187 19.9869 11.1189 19.9822C11.119 19.9785 11.1203 19.9754 11.1226 19.9729C11.1544 19.9386 11.1839 19.9009 11.211 19.8596C11.2773 19.7583 11.3305 19.647 11.3707 19.5257C11.3734 19.5176 11.3755 19.5092 11.3768 19.5007C11.3801 19.4797 11.3905 19.465 11.3923 19.4446C11.3934 19.4301 11.3963 19.4155 11.401 19.4008C11.4098 19.3733 11.4089 19.3447 11.416 19.3164C11.4198 19.3017 11.4221 19.2861 11.423 19.2697C11.4252 19.232 11.4272 19.1955 11.4293 19.16C11.4324 19.1026 11.4298 19.0384 11.4215 18.9674C11.4212 18.9642 11.4199 18.9616 11.4177 18.9593C11.4168 18.9584 11.4162 18.9573 11.4159 18.9558C11.4107 18.9305 11.4076 18.9038 11.4064 18.8757C11.406 18.8631 11.4031 18.8495 11.3975 18.835C11.3925 18.8221 11.39 18.8075 11.3899 18.7914C11.3899 18.7862 11.388 18.7818 11.3844 18.7782C11.3804 18.7743 11.3783 18.7696 11.378 18.7642C11.3775 18.7569 11.376 18.7498 11.3736 18.743C11.3574 18.6992 11.3418 18.6553 11.327 18.6114C11.3181 18.585 11.2974 18.5417 11.265 18.4817C11.2519 18.4575 11.2377 18.4339 11.2224 18.4108C11.2072 18.3877 11.1921 18.3651 11.1772 18.3432C11.1621 18.3209 11.1443 18.2976 11.124 18.2731C11.1045 18.2497 11.0851 18.2272 11.0659 18.2057C11.0353 18.1718 11.0021 18.1392 10.9662 18.1105C10.9416 18.0906 10.9174 18.0716 10.8936 18.0534C10.8467 18.0174 10.7808 17.9755 10.696 17.9276C10.6949 17.927 10.6938 17.9266 10.6925 17.9264C10.691 17.9262 10.6895 17.9262 10.688 17.9263C10.6849 17.9266 10.6823 17.9257 10.6799 17.9237C10.6658 17.9116 10.649 17.9029 10.6294 17.8975C10.6243 17.8961 10.6197 17.8938 10.6154 17.8907C10.6067 17.8842 10.5971 17.881 10.5867 17.8811C10.5827 17.8811 10.5791 17.8799 10.5759 17.8776C10.5593 17.8653 10.5413 17.8572 10.5219 17.8533C10.5071 17.8502 10.4929 17.8463 10.4794 17.8415C10.4199 17.8209 10.3599 17.8076 10.2995 17.8017C10.2933 17.8011 10.2874 17.7993 10.282 17.7964C10.2778 17.7943 10.2734 17.793 10.2687 17.7926C10.1848 17.7865 10.1006 17.7844 10.0162 17.7865C10.0152 17.7865 10.0142 17.7865 10.0132 17.7866C9.97889 17.7895 9.94375 17.7921 9.90775 17.7945C9.86718 17.7972 9.78509 17.8165 9.66147 17.8525C9.65792 17.8535 9.65437 17.8541 9.65082 17.8542C9.64676 17.8543 9.64357 17.856 9.64123 17.8593C9.64014 17.861 9.6387 17.8624 9.63702 17.8635C9.63535 17.8646 9.63346 17.8653 9.6315 17.8656C9.60533 17.8695 9.5816 17.8789 9.5603 17.8937C9.55818 17.8952 9.55574 17.8958 9.553 17.8954C9.55168 17.8953 9.55037 17.8953 9.54905 17.8955C9.54388 17.8966 9.53967 17.899 9.53642 17.903C9.53135 17.9091 9.52522 17.9117 9.51802 17.9108C9.51584 17.9105 9.51363 17.9108 9.51155 17.9115C9.50947 17.9122 9.50757 17.9134 9.506 17.915L9.49961 17.9214C9.49596 17.9251 9.4915 17.9267 9.48622 17.9263C9.47892 17.9257 9.4741 17.9291 9.47177 17.9365C9.47025 17.9412 9.46711 17.943 9.46234 17.9416C9.45281 17.9389 9.44601 17.942 9.44195 17.9509C9.43982 17.9557 9.43617 17.9578 9.431 17.9572C9.4235 17.9561 9.41761 17.9589 9.41336 17.9655C9.41236 17.9671 9.41104 17.9684 9.40948 17.9694C9.40793 17.9704 9.40619 17.9711 9.40438 17.9713C9.38988 17.9736 9.37771 17.9815 9.36787 17.9949C9.36493 17.9988 9.36103 18.0011 9.35616 18.0016C9.34247 18.0031 9.33136 18.0109 9.32284 18.0248C9.32081 18.0281 9.31813 18.0304 9.31478 18.0318C9.31214 18.033 9.30941 18.0333 9.30657 18.0329C9.3016 18.0323 9.29739 18.0338 9.29394 18.0373L9.25621 18.0758C9.25398 18.078 9.25124 18.0789 9.248 18.0784C9.24638 18.0782 9.24475 18.0781 9.24313 18.0781C9.23979 18.0782 9.23689 18.0795 9.23446 18.0819L9.04872 18.2675C9.0469 18.2693 9.04598 18.2715 9.04598 18.2742V18.2821C9.04598 18.2848 9.04502 18.2871 9.04309 18.2889L9.00324 18.3277C9.00131 18.3295 9.00035 18.3318 9.00035 18.3346V18.3414C9.00035 18.345 8.99908 18.348 8.99654 18.3504L8.97372 18.3726C8.97119 18.375 8.96992 18.378 8.96992 18.3816V18.3884C8.96992 18.394 8.96744 18.3956 8.96247 18.3931C8.95932 18.3917 8.95699 18.3893 8.95547 18.386C8.94989 18.374 8.94153 18.367 8.93037 18.365L8.90664 18.3356C8.81111 18.2224 8.70746 18.1231 8.5957 18.0379L8.73124 17.9012C8.735 17.8974 8.73951 17.8955 8.74478 17.8954C8.7463 17.8954 8.74777 17.8955 8.74919 17.8957C8.75061 17.8959 8.75183 17.8955 8.75284 17.8945L8.80746 17.8394C8.81009 17.8367 8.81329 17.8351 8.81704 17.8347C8.81876 17.8345 8.82049 17.8346 8.82221 17.835C8.82546 17.8357 8.8282 17.8348 8.83043 17.8324L8.85233 17.8093C8.85598 17.8053 8.8605 17.8037 8.86587 17.8044C8.86759 17.8045 8.86927 17.8046 8.87089 17.8046C8.87403 17.8046 8.87642 17.8033 8.87804 17.8006C8.88717 17.7855 8.89959 17.7764 8.91531 17.7732C8.92069 17.7722 8.92489 17.7694 8.92794 17.7647C8.93585 17.7526 8.94675 17.7452 8.96064 17.7428C8.96602 17.7419 8.97002 17.7391 8.97266 17.7344C8.97591 17.7289 8.98062 17.7268 8.98681 17.7284C8.99279 17.7299 8.99761 17.7282 9.00126 17.7233C9.00978 17.7118 9.02012 17.7038 9.03229 17.6995C9.04172 17.696 9.05085 17.6914 9.05967 17.6856C9.07265 17.6769 9.08619 17.672 9.10029 17.671C9.10485 17.6706 9.10855 17.6686 9.11139 17.6651C9.11383 17.6618 9.11682 17.6594 9.12037 17.6576C9.1228 17.6565 9.12534 17.6561 9.12798 17.6563C9.14577 17.6578 9.15155 17.6459 9.16509 17.6401C9.20546 17.6227 9.24298 17.6081 9.27766 17.5965C9.28334 17.5946 9.28872 17.5916 9.29379 17.5872C9.29683 17.5847 9.30053 17.5829 9.30489 17.5819C9.34962 17.5714 9.39348 17.5593 9.43648 17.5455C9.45118 17.5408 9.46594 17.5379 9.48075 17.5367C9.49109 17.5359 9.50118 17.5336 9.51102 17.5298C9.51933 17.5266 9.52841 17.5242 9.53825 17.5225C9.56512 17.5182 9.5919 17.5128 9.61857 17.5064C9.70071 17.4868 9.7969 17.4786 9.90714 17.4816C9.91089 17.4817 9.91439 17.481 9.91764 17.4793C9.92078 17.4778 9.92413 17.4773 9.92768 17.4777C9.96845 17.4825 10.0055 17.4857 10.0389 17.4873C10.0609 17.4884 10.0814 17.4911 10.1005 17.4955C10.1241 17.5008 10.1475 17.5034 10.1706 17.5032C10.1859 17.5031 10.2004 17.5053 10.214 17.5096C10.2226 17.5124 10.2313 17.5145 10.24 17.5162C10.2699 17.5216 10.2997 17.5276 10.3294 17.534C10.3423 17.5367 10.3544 17.5406 10.3658 17.5457C10.3834 17.5536 10.4021 17.5514 10.4206 17.5578C10.4387 17.5642 10.4569 17.5708 10.475 17.5776C10.4847 17.5813 10.4953 17.585 10.5067 17.5887C10.6032 17.6206 10.6973 17.6617 10.7888 17.7122C10.804 17.7207 10.8183 17.7296 10.8316 17.739C10.8458 17.749 10.861 17.7569 10.8772 17.7629C10.8818 17.7645 10.8856 17.7671 10.8888 17.7707C10.8962 17.7789 10.9051 17.7857 10.9154 17.791C10.9342 17.8008 10.9517 17.8142 10.968 17.8313C10.9724 17.8359 10.9777 17.8386 10.9839 17.8394C10.9886 17.84 10.993 17.8422 10.9963 17.8456C11.0077 17.8572 11.0267 17.8722 11.0534 17.8905C11.07 17.9021 11.0893 17.9201 11.1112 17.9445C11.1284 17.9637 11.1488 17.9811 11.1723 17.9967C11.1874 18.0066 11.2008 18.0196 11.2123 18.0355C11.2274 18.0562 11.2376 18.0694 11.2431 18.0752C11.2718 18.1057 11.2997 18.1349 11.3267 18.1628C11.3297 18.1659 11.3315 18.1695 11.3319 18.173C11.3321 18.1747 11.3319 18.1765 11.3311 18.1782C11.3307 18.1791 11.3309 18.18 11.3316 18.1808C11.3414 18.1904 11.3513 18.201 11.3611 18.2126C11.3681 18.2208 11.3739 18.2297 11.3786 18.2393C11.3834 18.2494 11.3911 18.2577 11.4017 18.2643C11.4043 18.2659 11.4058 18.2682 11.4063 18.2711C11.409 18.286 11.4173 18.2987 11.4309 18.309C11.4345 18.3116 11.4366 18.3151 11.4372 18.3195C11.4392 18.3332 11.4463 18.3446 11.4585 18.3537C11.4629 18.357 11.4659 18.3612 11.4673 18.3665C11.4745 18.3936 11.4885 18.4164 11.5094 18.435C11.5134 18.4385 11.515 18.443 11.5142 18.4484C11.5136 18.4514 11.5144 18.4542 11.5163 18.4569C11.5252 18.4692 11.5324 18.4821 11.5377 18.4954C11.5428 18.5079 11.5489 18.5204 11.5561 18.5328C11.5637 18.546 11.569 18.559 11.5718 18.572C11.5751 18.587 11.5804 18.6008 11.5879 18.6133C11.5998 18.6329 11.607 18.6541 11.6095 18.6767C11.61 18.6819 11.6118 18.6866 11.6149 18.691C11.6209 18.6999 11.6241 18.7099 11.6244 18.7208C11.6246 18.7258 11.6263 18.7302 11.6295 18.734C11.6356 18.7415 11.6392 18.7499 11.6403 18.7591C11.6416 18.7717 11.6431 18.7802 11.6448 18.7847C11.6687 18.8474 11.6825 18.9122 11.6864 18.9793C11.6874 18.9968 11.6904 19.0136 11.6955 19.0296C11.7007 19.046 11.7031 19.0622 11.7029 19.0781C11.7026 19.0936 11.7039 19.1085 11.7069 19.1229C11.7099 19.1379 11.7115 19.1526 11.7116 19.1671C11.7117 19.2032 11.7127 19.2393 11.7145 19.2754C11.7193 19.3678 11.716 19.4566 11.7048 19.5418C11.6989 19.5863 11.6871 19.6442 11.6695 19.7155C11.6669 19.726 11.6631 19.7361 11.6581 19.7459C11.6546 19.7529 11.6523 19.7606 11.6511 19.7688C11.6459 19.8026 11.6354 19.8339 11.6196 19.8625C11.6035 19.8914 11.5952 19.9227 11.5945 19.9565C11.5944 19.9593 11.5935 19.9619 11.5918 19.9642C11.5902 19.9664 11.5879 19.9681 11.5853 19.969C11.5796 19.971 11.5772 19.9746 11.5783 19.9799C11.5793 19.9842 11.5789 19.9883 11.5771 19.9922C11.5686 20.0122 11.5593 20.0321 11.5491 20.052C11.542 20.066 11.5338 20.0856 11.5243 20.1109C11.5168 20.1309 11.5064 20.1493 11.493 20.1661C11.4859 20.1751 11.4761 20.1939 11.4635 20.2224C11.4541 20.244 11.4433 20.2628 11.4312 20.2787C11.3988 20.3217 11.368 20.3657 11.3389 20.4109C11.3355 20.4161 11.3316 20.4209 11.3273 20.4252C11.3202 20.4321 11.3177 20.441 11.3196 20.4519C11.3207 20.4579 11.3193 20.4633 11.3153 20.4679L11.2 20.6016C11.1987 20.6032 11.1971 20.6045 11.1952 20.6053C11.1836 20.6103 11.1801 20.6216 11.1714 20.6298C11.1397 20.6596 11.1083 20.6895 11.0773 20.7195C11.0554 20.7407 11.0269 20.7589 11.0029 20.7816C10.9944 20.7896 10.9847 20.7963 10.9738 20.8018C10.9667 20.8054 10.9605 20.8103 10.9551 20.8167C10.9501 20.8225 10.9442 20.8277 10.9372 20.8322C10.9137 20.8475 10.8899 20.8627 10.8657 20.8779C10.8556 20.8842 10.8396 20.8913 10.8176 20.8993C10.7995 20.9059 10.7837 20.9141 10.77 20.924C10.7654 20.9272 10.7603 20.9281 10.7546 20.9266C10.7468 20.9243 10.7406 20.9266 10.7359 20.9333C10.7326 20.9379 10.728 20.9406 10.7224 20.9412C10.7169 20.9418 10.7121 20.9438 10.7079 20.9473C10.6935 20.9592 10.6758 20.9681 10.6547 20.9739C10.6492 20.9754 10.6448 20.9785 10.6416 20.9832C10.6387 20.9872 10.635 20.9901 10.6303 20.9918C10.531 21.029 10.432 21.0611 10.3331 21.088C10.3177 21.0922 10.3027 21.0946 10.2882 21.095C10.2766 21.0953 10.2658 21.0977 10.2557 21.1023C10.2462 21.1066 10.2364 21.1091 10.2263 21.1097C10.2088 21.1108 10.1921 21.1119 10.1761 21.1131C10.1713 21.1134 10.1669 21.1149 10.1627 21.1176C10.16 21.1195 10.1571 21.1211 10.1542 21.1225C10.1518 21.1237 10.1492 21.1243 10.1466 21.1243C10.1087 21.1247 10.0709 21.1246 10.0333 21.124C10.028 21.1239 10.0245 21.1263 10.0228 21.1313C10.022 21.1331 10.0209 21.1347 10.0194 21.1359C10.0162 21.1385 10.0125 21.1398 10.0083 21.1398C9.94117 21.1396 9.87413 21.1396 9.8072 21.1398C9.80294 21.1398 9.79893 21.1387 9.79518 21.1365C9.79376 21.1357 9.7929 21.1344 9.79259 21.1327C9.79148 21.127 9.78808 21.1242 9.7824 21.1243C9.73839 21.1246 9.69574 21.1246 9.65447 21.1243C9.65051 21.1243 9.64671 21.1234 9.64306 21.1214C9.64154 21.1205 9.64063 21.1192 9.64032 21.1175C9.63931 21.1118 9.63591 21.109 9.63013 21.109C9.6067 21.1094 9.58449 21.1095 9.5635 21.1093C9.55924 21.1092 9.55523 21.1079 9.55148 21.1055C9.54996 21.1044 9.5492 21.103 9.5492 21.101C9.549 21.0964 9.54656 21.094 9.5419 21.094H9.48516C9.47938 21.094 9.47532 21.0914 9.47299 21.0861C9.47218 21.0843 9.47111 21.0826 9.46979 21.0811C9.46841 21.0797 9.46667 21.0787 9.46474 21.0782C9.46281 21.0777 9.46077 21.0777 9.45884 21.0782C9.44474 21.0824 9.43384 21.0795 9.42613 21.0696C9.42096 21.0629 9.41432 21.0606 9.40621 21.0629C9.38846 21.0677 9.37472 21.0647 9.36498 21.0539C9.3594 21.0476 9.35256 21.0457 9.34444 21.0483C9.33309 21.0517 9.32482 21.0484 9.31965 21.0384C9.31837 21.0359 9.31624 21.0339 9.31365 21.0329C9.31105 21.0318 9.30816 21.0317 9.3055 21.0326C9.2914 21.0371 9.28086 21.0339 9.27386 21.023C9.27238 21.0206 9.27017 21.0188 9.26756 21.0178C9.26495 21.0168 9.26209 21.0167 9.25941 21.0175C9.24562 21.0216 9.23527 21.0184 9.22838 21.0079C9.22493 21.0028 9.22021 21.0009 9.21423 21.0023C9.20612 21.0043 9.20104 21.0015 9.19902 20.9938C9.1977 20.9888 9.19445 20.9869 9.18928 20.9879C9.17954 20.99 9.17255 20.9868 9.16829 20.9783C9.16689 20.9755 9.16456 20.9734 9.16172 20.9722C9.15888 20.971 9.15571 20.9708 9.15277 20.9717C9.13898 20.9761 9.12853 20.9728 9.12143 20.9619C9.1186 20.9573 9.11454 20.9556 9.10927 20.9567C9.10024 20.9586 9.0942 20.9553 9.09116 20.9466C9.08954 20.942 9.08635 20.9404 9.08158 20.9418C9.07225 20.9445 9.06586 20.9416 9.06241 20.9331C9.06089 20.9295 9.0582 20.9275 9.05435 20.9273C9.03904 20.9267 9.02651 20.9183 9.01678 20.9022C9.01323 20.8964 9.00821 20.8945 9.00172 20.8963C8.99492 20.8981 8.99015 20.8959 8.98742 20.8896C8.98529 20.8845 8.98148 20.8818 8.97601 20.8815C8.96181 20.8805 8.9503 20.8724 8.94148 20.857C8.93803 20.8512 8.93306 20.8491 8.92657 20.8508C8.91927 20.8528 8.91419 20.8504 8.91135 20.8434C8.90923 20.8381 8.90527 20.8354 8.89949 20.8354H8.89234C8.8909 20.8354 8.88948 20.8352 8.88817 20.8346C8.88687 20.8341 8.8857 20.8333 8.88473 20.8322L8.84564 20.793C8.8432 20.7906 8.84026 20.7894 8.83682 20.7895C8.83529 20.7895 8.83377 20.7897 8.83225 20.7901C8.82911 20.7909 8.82642 20.7901 8.82419 20.7877L8.80107 20.7632C8.79853 20.7606 8.79549 20.7594 8.79194 20.7594H8.78494C8.78231 20.7594 8.78007 20.7584 8.77825 20.7565L8.70553 20.6826C8.70158 20.6786 8.69697 20.6776 8.69169 20.6795C8.68926 20.6803 8.68708 20.6795 8.68515 20.6771C8.68429 20.676 8.68379 20.6747 8.68372 20.6733C8.68365 20.6719 8.68402 20.6705 8.68477 20.6693C8.68553 20.6681 8.68663 20.6672 8.68792 20.6667C8.68922 20.6662 8.69064 20.6661 8.692 20.6664C9.48166 20.8455 10.3063 20.6067 11.0442 20.2866C11.0703 20.2753 11.0692 20.268 11.0411 20.2645L10.8471 20.241Z" fill="white"/>
<path d="M7.85965 17.6663C7.92141 17.6868 7.97892 17.7071 8.03216 17.7273C8.0851 17.7473 8.13758 17.7697 8.1896 17.7947C8.16973 17.7986 8.16232 17.8049 8.16739 17.8135C8.15867 17.8231 8.14949 17.8322 8.13986 17.8409C8.13783 17.8427 8.13682 17.845 8.13682 17.8478V17.8548C8.13682 17.8583 8.13555 17.8613 8.13301 17.8637L8.09407 17.9021C8.09214 17.9039 8.09118 17.9062 8.09118 17.9089V17.9161C8.09118 17.9196 8.08991 17.9226 8.08738 17.925L8.06365 17.9474C8.06172 17.9492 8.06076 17.9515 8.06076 17.9541V17.9612C8.06076 17.9648 8.05949 17.9678 8.05695 17.9702L8.01801 18.0085C8.01608 18.0104 8.01512 18.0126 8.01512 18.0152V18.0225C8.01512 18.0261 8.01385 18.0291 8.01132 18.0315L7.98759 18.0539C7.98566 18.0557 7.9847 18.0579 7.9847 18.0606V18.0677C7.9847 18.0713 7.98343 18.0743 7.98089 18.0767L7.94195 18.115C7.94002 18.1169 7.93906 18.1191 7.93906 18.1219V18.129C7.93906 18.1326 7.93779 18.1356 7.93526 18.138L7.91153 18.1604C7.9096 18.1622 7.90864 18.1644 7.90864 18.1671V18.1742C7.90864 18.1778 7.90737 18.1807 7.90483 18.1832L7.86589 18.2215C7.86396 18.2233 7.863 18.2256 7.863 18.2284V18.2355C7.863 18.2391 7.86173 18.2421 7.8592 18.2445L7.83547 18.2669C7.83354 18.2687 7.83257 18.2709 7.83257 18.2735V18.2807C7.83257 18.2842 7.83131 18.2872 7.82877 18.2897L7.78983 18.328C7.7879 18.3298 7.78694 18.3321 7.78694 18.3347V18.342C7.78694 18.3455 7.78567 18.3485 7.78314 18.351L7.7594 18.3733C7.75748 18.3752 7.75651 18.3774 7.75651 18.38V18.3872C7.75651 18.3907 7.75525 18.3937 7.75271 18.3962L7.71377 18.4345C7.71184 18.4363 7.71088 18.4385 7.71088 18.4412V18.4482C7.71088 18.4517 7.70961 18.4547 7.70707 18.4572L7.68426 18.4794C7.68172 18.4818 7.68045 18.4848 7.68045 18.4883V18.4938C7.68045 18.4989 7.67843 18.5029 7.67437 18.506C7.66433 18.5134 7.65546 18.5226 7.64775 18.5337C7.64592 18.5364 7.64344 18.5383 7.64029 18.5393C7.63492 18.5409 7.63294 18.5446 7.63436 18.5503C7.63578 18.5557 7.63446 18.5604 7.63041 18.5642L7.6082 18.5858C7.60566 18.5883 7.60439 18.5913 7.60439 18.5948V18.6003C7.60439 18.6054 7.60236 18.6094 7.59831 18.6123C7.58827 18.6198 7.57939 18.6291 7.57169 18.6402C7.56986 18.6429 7.56738 18.6448 7.56423 18.6458C7.55886 18.6475 7.55693 18.6512 7.55845 18.6569C7.55987 18.6624 7.5585 18.667 7.55435 18.6709L7.53122 18.6928C7.5293 18.6946 7.52833 18.6968 7.52833 18.6995V18.7071C7.52833 18.7106 7.52706 18.7136 7.52453 18.7161L7.5008 18.7384C7.49887 18.7403 7.49791 18.7425 7.49791 18.7451V18.7523C7.49791 18.7558 7.49664 18.7588 7.4941 18.7612L7.45516 18.7996C7.45323 18.8014 7.45227 18.8037 7.45227 18.8064V18.8136C7.45227 18.8171 7.451 18.8201 7.44847 18.8225L7.42474 18.8449C7.42281 18.8467 7.42185 18.849 7.42185 18.8516V18.8588C7.42185 18.8623 7.42058 18.8653 7.41804 18.8677L7.3791 18.9061C7.37717 18.9079 7.37621 18.9101 7.37621 18.9128V18.9201C7.37621 18.9236 7.37494 18.9266 7.37241 18.929L7.34868 18.9514C7.34675 18.9532 7.34579 18.9555 7.34579 18.9581V18.9652C7.34579 18.9688 7.34452 18.9718 7.34198 18.9742L7.30304 19.0125C7.30111 19.0144 7.30015 19.0167 7.30015 19.0194V19.0265C7.30015 19.0301 7.29888 19.0331 7.29635 19.0355L7.27262 19.0579C7.27069 19.0597 7.26973 19.0619 7.26973 19.0646V19.0731C7.26973 19.0767 7.26836 19.0797 7.26562 19.0821L7.2069 19.132C6.95823 18.67 6.61408 18.291 6.17445 17.9949C5.95803 17.8491 5.73061 17.7323 5.49219 17.6444C6.05184 17.5277 6.63158 17.4793 7.19929 17.5371C7.42758 17.5603 7.6477 17.6034 7.85965 17.6663Z" fill="#00A5E3"/>
<path d="M10.8464 20.2404L10.8079 20.2326C10.8095 20.2356 10.8104 20.2353 10.8107 20.2317C10.8109 20.2302 10.8102 20.2293 10.8087 20.229C10.6879 20.2042 10.5724 20.1685 10.4623 20.1219C10.4474 20.1124 10.4378 20.1042 10.4334 20.0976C10.4282 20.0897 10.4303 20.0858 10.4396 20.0858H10.4784C10.4838 20.0858 10.4881 20.0837 10.4912 20.0793C10.4978 20.0701 10.5069 20.0673 10.5186 20.0709C10.5254 20.0732 10.5309 20.0714 10.5352 20.0656C10.543 20.0551 10.5537 20.0518 10.5674 20.0559C10.5744 20.0579 10.5793 20.0556 10.582 20.049C10.585 20.0419 10.5902 20.0391 10.5979 20.0405C10.6057 20.042 10.6112 20.0392 10.6144 20.032C10.6175 20.0252 10.6226 20.0229 10.6298 20.025C10.6356 20.0268 10.6398 20.025 10.6426 20.0195C10.6472 20.0102 10.6546 20.007 10.6648 20.0099C10.6684 20.011 10.6709 20.0098 10.6721 20.0061C10.6751 19.9966 10.6816 19.9929 10.6916 19.995C10.6941 19.9956 10.6968 19.9952 10.6991 19.994C10.7014 19.9929 10.7033 19.9909 10.7043 19.9885C10.7081 19.9799 10.7145 19.9768 10.7237 19.9794C10.7289 19.9809 10.7324 19.9791 10.7342 19.9739C10.7363 19.9671 10.7408 19.9639 10.7477 19.9643C10.7526 19.9646 10.757 19.9632 10.7609 19.9602C10.7705 19.953 10.778 19.9454 10.7834 19.9374C10.7851 19.9349 10.7874 19.9337 10.7904 19.9337H10.7961C10.8008 19.9337 10.8049 19.932 10.8082 19.9287L10.8473 19.8904C10.849 19.8888 10.8509 19.8882 10.8533 19.8884C10.8547 19.8885 10.8562 19.8885 10.8577 19.8884C10.862 19.8882 10.8658 19.8866 10.8689 19.8837C10.9539 19.8025 11.0084 19.7482 11.0323 19.7207C11.1085 19.6327 11.1707 19.5192 11.2191 19.3803C11.2207 19.3755 11.2211 19.3707 11.2202 19.3657C11.2194 19.3618 11.2204 19.3584 11.2232 19.3555C11.2268 19.352 11.2293 19.3477 11.2308 19.3429C11.2461 19.2909 11.2561 19.2403 11.2608 19.1912C11.2608 19.1907 11.2609 19.1903 11.2611 19.1898C11.2614 19.1894 11.2618 19.1892 11.2623 19.1891C11.2636 19.1888 11.2644 19.188 11.2646 19.1868C11.2733 19.1151 11.2764 19.0426 11.2737 18.9694C11.2706 18.8807 11.2564 18.7969 11.2311 18.718C11.1752 18.5426 11.086 18.3928 10.9637 18.2684C10.8077 18.1097 10.6231 18.0068 10.4097 17.9598C10.3561 17.9479 10.2988 17.9412 10.2378 17.9397C10.1773 17.9382 10.1199 17.939 10.0656 17.9421C9.95869 17.9485 9.85393 17.9769 9.7513 18.0273C9.70586 18.0496 9.65992 18.072 9.61347 18.0944C9.59507 18.1032 9.5829 18.1181 9.56525 18.1265C9.54649 18.1352 9.53097 18.1483 9.5187 18.1658C9.51738 18.1678 9.51576 18.1695 9.51383 18.1709C9.5117 18.1726 9.50942 18.1732 9.50699 18.1729C9.501 18.1722 9.49588 18.1739 9.49162 18.1781L9.40415 18.2636C9.4001 18.2675 9.39842 18.2724 9.39913 18.278C9.39974 18.2834 9.39802 18.2882 9.39396 18.2923C9.39122 18.295 9.38838 18.2952 9.38544 18.2929C9.38494 18.2926 9.38478 18.2922 9.38499 18.2916C9.38712 18.2837 9.38529 18.2826 9.37951 18.2885C9.36207 18.3065 9.34442 18.3247 9.32657 18.3433C9.32363 18.3464 9.32241 18.3501 9.32292 18.3544C9.32323 18.3565 9.32297 18.3586 9.32216 18.3606C9.32115 18.3633 9.31952 18.3655 9.31729 18.3675C9.30401 18.3789 9.29153 18.3918 9.27987 18.406C9.27754 18.4088 9.27663 18.412 9.27713 18.4157C9.27744 18.4176 9.27728 18.4195 9.27668 18.4212C9.27587 18.4239 9.27439 18.4261 9.27226 18.4279C9.26506 18.4339 9.25807 18.4405 9.25127 18.4478C9.24951 18.4497 9.24817 18.4519 9.24736 18.4543C9.24654 18.4568 9.24627 18.4594 9.24656 18.4619C9.24747 18.4698 9.24412 18.4748 9.23652 18.477C9.2355 18.4773 9.23456 18.4778 9.23374 18.4785C9.23292 18.4791 9.23224 18.4799 9.23174 18.4809C9.23125 18.4818 9.23094 18.4828 9.23085 18.4838C9.23075 18.4849 9.23087 18.4859 9.23119 18.4869C9.23413 18.4961 9.23129 18.5026 9.22267 18.5064C9.22014 18.5075 9.21807 18.5094 9.21682 18.5119C9.21557 18.5143 9.21522 18.5171 9.21583 18.5198C9.21796 18.5291 9.21456 18.5353 9.20564 18.5383C9.20117 18.5398 9.1996 18.5429 9.20092 18.5474C9.20376 18.5573 9.20046 18.5642 9.19103 18.5681C9.18627 18.5701 9.18454 18.5735 9.18586 18.5785C9.1884 18.5878 9.18525 18.5943 9.17643 18.5981C9.17115 18.6003 9.16923 18.6042 9.17065 18.6097C9.17308 18.6186 9.17004 18.6248 9.16152 18.6282C9.15985 18.6288 9.15839 18.6299 9.15734 18.6314C9.15628 18.6329 9.15567 18.6346 9.15559 18.6364C9.15518 18.6432 9.15523 18.6503 9.15574 18.6576C9.15594 18.66 9.15549 18.6623 9.15437 18.6644C9.15295 18.6671 9.15118 18.6687 9.14905 18.6694C9.14753 18.67 9.14587 18.6699 9.14443 18.6692C9.14298 18.6686 9.14186 18.6674 9.14129 18.6659C9.13906 18.6605 9.13429 18.658 9.12699 18.6585C9.06786 18.5559 9.0021 18.4578 8.92969 18.3644C8.94084 18.3665 8.94921 18.3735 8.95479 18.3854C8.95631 18.3888 8.95864 18.3912 8.96179 18.3926C8.96675 18.395 8.96924 18.3934 8.96924 18.3879V18.381C8.96924 18.3775 8.97051 18.3745 8.97304 18.372L8.99586 18.3498C8.9984 18.3474 8.99966 18.3444 8.99966 18.3409V18.334C8.99966 18.3313 9.00063 18.329 9.00255 18.3272L9.04241 18.2884C9.04434 18.2865 9.0453 18.2843 9.0453 18.2815V18.2736C9.0453 18.271 9.04621 18.2688 9.04804 18.2669L9.23378 18.0813C9.23621 18.0789 9.2391 18.0776 9.24245 18.0775C9.24407 18.0775 9.24569 18.0776 9.24732 18.0778C9.25056 18.0783 9.2533 18.0775 9.25553 18.0753L9.29326 18.0368C9.29671 18.0332 9.30091 18.0317 9.30588 18.0324C9.30872 18.0328 9.31146 18.0324 9.3141 18.0313C9.31744 18.0299 9.32013 18.0275 9.32216 18.0243C9.33068 18.0103 9.34178 18.0025 9.35548 18.001C9.36034 18.0005 9.36425 17.9983 9.36719 17.9943C9.37703 17.9809 9.3892 17.9731 9.4037 17.9707C9.40551 17.9705 9.40725 17.9699 9.4088 17.9689C9.41035 17.9679 9.41167 17.9665 9.41267 17.965C9.41693 17.9584 9.42281 17.9556 9.43032 17.9566C9.43549 17.9572 9.43914 17.9551 9.44127 17.9504C9.44533 17.9414 9.45212 17.9383 9.46166 17.9411C9.46642 17.9424 9.46957 17.9407 9.47109 17.9359C9.47342 17.9285 9.47824 17.9251 9.48554 17.9257C9.49081 17.9261 9.49528 17.9245 9.49893 17.9208L9.50531 17.9145C9.50689 17.9129 9.50879 17.9117 9.51087 17.911C9.51295 17.9102 9.51516 17.91 9.51733 17.9102C9.52453 17.9111 9.53067 17.9085 9.53574 17.9024C9.53898 17.8985 9.54319 17.896 9.54837 17.895C9.54968 17.8948 9.551 17.8947 9.55232 17.8948C9.55506 17.8952 9.55749 17.8947 9.55962 17.8932C9.58092 17.8784 9.60465 17.869 9.63081 17.865C9.63278 17.8647 9.63466 17.864 9.63634 17.863C9.63802 17.8619 9.63945 17.8605 9.64055 17.8588C9.64288 17.8554 9.64608 17.8537 9.65013 17.8536C9.65368 17.8535 9.65723 17.853 9.66078 17.8519C9.78441 17.8159 9.8665 17.7966 9.90707 17.794C9.94307 17.7915 9.97821 17.7889 10.0125 17.7861C10.0135 17.786 10.0145 17.7859 10.0155 17.7859C10.0999 17.7839 10.1841 17.7859 10.2681 17.792C10.2727 17.7924 10.2772 17.7937 10.2813 17.7958C10.2868 17.7987 10.2926 17.8005 10.2988 17.8011C10.3592 17.807 10.4192 17.8203 10.4787 17.841C10.4922 17.8458 10.5064 17.8497 10.5212 17.8527C10.5407 17.8567 10.5587 17.8648 10.5752 17.877C10.5784 17.8794 10.582 17.8805 10.586 17.8805C10.5964 17.8804 10.606 17.8836 10.6147 17.8901C10.619 17.8933 10.6237 17.8955 10.6287 17.897C10.6483 17.9023 10.6651 17.9111 10.6792 17.9231C10.6816 17.9252 10.6843 17.926 10.6873 17.9257C10.6888 17.9256 10.6903 17.9257 10.6919 17.9259C10.6931 17.9261 10.6942 17.9265 10.6954 17.9271C10.7801 17.975 10.846 18.0169 10.893 18.0529C10.9167 18.071 10.9409 18.0901 10.9655 18.1099C11.0014 18.1387 11.0346 18.1712 11.0652 18.2052C11.0844 18.2267 11.1038 18.2491 11.1233 18.2726C11.1437 18.297 11.1614 18.3204 11.1765 18.3427C11.1914 18.3646 11.2065 18.3871 11.2217 18.4102C11.237 18.4333 11.2512 18.457 11.2643 18.4811C11.2967 18.5411 11.3174 18.5844 11.3264 18.6109C11.3412 18.6548 11.3567 18.6986 11.3729 18.7425C11.3753 18.7493 11.3768 18.7563 11.3773 18.7636C11.3776 18.7691 11.3798 18.7737 11.3837 18.7776C11.3874 18.7812 11.3892 18.7857 11.3892 18.7908C11.3893 18.807 11.3918 18.8215 11.3968 18.8345C11.4024 18.849 11.4054 18.8625 11.4058 18.8751C11.4069 18.9032 11.41 18.9299 11.4152 18.9553C11.4155 18.9567 11.4161 18.9579 11.417 18.9588C11.4193 18.961 11.4205 18.9637 11.4208 18.9668C11.4291 19.0378 11.4317 19.102 11.4286 19.1594C11.4266 19.1949 11.4245 19.2315 11.4223 19.2691C11.4214 19.2855 11.4191 19.3011 11.4154 19.3158C11.4082 19.3441 11.4091 19.3727 11.4003 19.4002C11.3956 19.4149 11.3927 19.4295 11.3916 19.444C11.3898 19.4644 11.3795 19.4792 11.3761 19.5002C11.3748 19.5087 11.3728 19.517 11.37 19.5251C11.3299 19.6464 11.2766 19.7577 11.2103 19.859C11.1832 19.9003 11.1538 19.9381 11.1219 19.9724C11.1196 19.9749 11.1184 19.978 11.1183 19.9816C11.1181 19.9863 11.1163 19.9903 11.1131 19.9935L10.9601 20.1467C10.9575 20.1491 10.9545 20.1503 10.9511 20.1503H10.945C10.9424 20.1503 10.9401 20.1513 10.9383 20.1531L10.8881 20.203C10.8842 20.2068 10.8796 20.2093 10.8743 20.2103C10.8557 20.2138 10.8464 20.2239 10.8464 20.2404Z" fill="white"/>
<path d="M8.18974 17.7949C8.33476 17.8614 8.47009 17.9425 8.59575 18.0382C8.70751 18.1234 8.81115 18.2226 8.90668 18.3359L8.46523 18.957C8.46491 18.9574 8.46471 18.9579 8.46466 18.9584C8.4646 18.959 8.46469 18.9595 8.46492 18.96C8.46614 18.9624 8.46802 18.963 8.47055 18.962C8.47073 18.9619 8.47093 18.9619 8.47111 18.962C8.4713 18.962 8.47146 18.9621 8.47158 18.9623C8.4717 18.9624 8.47176 18.9626 8.47177 18.9628C8.47178 18.963 8.47172 18.9632 8.47162 18.9634C8.46279 18.9728 8.45478 18.9834 8.44758 18.9953C8.44119 19.0058 8.43298 19.0156 8.42294 19.0248C8.40428 19.0423 8.3877 19.0618 8.37319 19.0835C8.3596 19.104 8.34601 19.1235 8.33243 19.1421C8.31245 19.1694 8.29277 19.1974 8.2734 19.2261C8.24572 19.2669 8.21869 19.3044 8.19232 19.3383C8.18502 19.3478 8.17848 19.3578 8.1727 19.3683C8.16702 19.3787 8.16038 19.3886 8.15277 19.3981C8.12914 19.4278 8.10642 19.4592 8.08462 19.4923C8.06626 19.5201 8.04684 19.5477 8.02636 19.5752C8.00577 19.6028 7.9865 19.6308 7.96855 19.6593C7.96338 19.6674 7.9574 19.6743 7.9506 19.68C7.94056 19.6884 7.93681 19.6987 7.93934 19.7107C7.94005 19.7141 7.93879 19.7164 7.93554 19.7177C7.92134 19.7233 7.9108 19.733 7.9039 19.7469C7.89548 19.7638 7.88428 19.779 7.87028 19.7927C7.86653 19.7963 7.86404 19.8005 7.86283 19.8055C7.85948 19.8184 7.85192 19.8291 7.84016 19.8376C7.8359 19.8407 7.83321 19.8448 7.8321 19.8499C7.82875 19.8649 7.82013 19.877 7.80624 19.8861C7.80208 19.8889 7.79954 19.8927 7.79863 19.8977L7.79255 19.9331C7.54596 19.7138 7.34759 19.4293 7.20703 19.1322L7.26575 19.0823C7.26849 19.08 7.26986 19.077 7.26986 19.0734V19.0648C7.26986 19.0622 7.27082 19.06 7.27275 19.0581L7.29648 19.0358C7.29901 19.0333 7.30028 19.0304 7.30028 19.0268V19.0197C7.30028 19.0169 7.30124 19.0146 7.30317 19.0128L7.34211 18.9745C7.34465 18.972 7.34592 18.969 7.34592 18.9655V18.9583C7.34592 18.9557 7.34688 18.9535 7.34881 18.9517L7.37254 18.9293C7.37507 18.9269 7.37634 18.9239 7.37634 18.9203V18.913C7.37634 18.9104 7.37731 18.9081 7.37923 18.9063L7.41818 18.868C7.42071 18.8656 7.42198 18.8626 7.42198 18.859V18.8519C7.42198 18.8492 7.42294 18.847 7.42487 18.8452L7.4486 18.8228C7.45114 18.8204 7.4524 18.8174 7.4524 18.8138V18.8067C7.4524 18.8039 7.45337 18.8017 7.45529 18.7998L7.49424 18.7615C7.49677 18.7591 7.49804 18.7561 7.49804 18.7525V18.7454C7.49804 18.7427 7.499 18.7405 7.50093 18.7387L7.52466 18.7163C7.5272 18.7139 7.52846 18.7109 7.52846 18.7073V18.6997C7.52846 18.6971 7.52943 18.6949 7.53135 18.693L7.55448 18.6711C7.55863 18.6673 7.56 18.6626 7.55858 18.6571C7.55706 18.6515 7.55899 18.6478 7.56436 18.646C7.56751 18.645 7.56999 18.6432 7.57182 18.6404C7.57953 18.6294 7.5884 18.6201 7.59844 18.6126C7.6025 18.6096 7.60452 18.6056 7.60452 18.6006V18.5951C7.60452 18.5915 7.60579 18.5885 7.60833 18.5861L7.63054 18.5645C7.63459 18.5607 7.63591 18.556 7.63449 18.5505C7.63307 18.5448 7.63505 18.5412 7.64042 18.5396C7.64357 18.5385 7.64605 18.5367 7.64788 18.5339C7.65559 18.5229 7.66446 18.5136 7.6745 18.5062C7.67856 18.5032 7.68058 18.4991 7.68058 18.4941V18.4886C7.68058 18.485 7.68185 18.4821 7.68439 18.4796L7.70721 18.4574C7.70974 18.455 7.71101 18.452 7.71101 18.4484V18.4414C7.71101 18.4388 7.71197 18.4366 7.7139 18.4347L7.75284 18.3964C7.75538 18.394 7.75665 18.391 7.75665 18.3874V18.3803C7.75665 18.3776 7.75761 18.3754 7.75954 18.3736L7.78327 18.3512C7.7858 18.3488 7.78707 18.3458 7.78707 18.3423V18.335C7.78707 18.3323 7.78803 18.3301 7.78996 18.3283L7.8289 18.2899C7.83144 18.2875 7.83271 18.2845 7.83271 18.2809V18.2738C7.83271 18.2712 7.83367 18.2689 7.8356 18.2671L7.85933 18.2447C7.86186 18.2423 7.86313 18.2393 7.86313 18.2358V18.2286C7.86313 18.2259 7.86409 18.2236 7.86602 18.2218L7.90496 18.1834C7.9075 18.181 7.90877 18.178 7.90877 18.1745V18.1673C7.90877 18.1647 7.90973 18.1624 7.91166 18.1606L7.93539 18.1383C7.93792 18.1358 7.93919 18.1328 7.93919 18.1293V18.1221C7.93919 18.1194 7.94015 18.1171 7.94208 18.1153L7.98102 18.077C7.98356 18.0745 7.98483 18.0715 7.98483 18.068V18.0608C7.98483 18.0582 7.98579 18.056 7.98772 18.0541L8.01145 18.0318C8.01398 18.0293 8.01525 18.0263 8.01525 18.0228V18.0155C8.01525 18.0129 8.01622 18.0106 8.01814 18.0088L8.05709 17.9705C8.05962 17.968 8.06089 17.965 8.06089 17.9615V17.9543C8.06089 17.9517 8.06185 17.9495 8.06378 17.9477L8.08751 17.9253C8.09004 17.9229 8.09131 17.9199 8.09131 17.9163V17.9092C8.09131 17.9064 8.09228 17.9041 8.0942 17.9023L8.13315 17.864C8.13568 17.8616 8.13695 17.8586 8.13695 17.855V17.848C8.13695 17.8453 8.13796 17.843 8.13999 17.8412C8.14963 17.8324 8.1588 17.8233 8.16753 17.8138C8.16245 17.8052 8.16986 17.7989 8.18974 17.7949Z" fill="#00A5E3"/>
<path d="M10.4623 20.1224C10.0404 19.9392 9.69284 19.61 9.44017 19.2281C9.32162 19.0471 9.21721 18.8574 9.12695 18.659C9.13425 18.6585 9.13902 18.6609 9.14125 18.6664C9.14182 18.6679 9.14295 18.6691 9.14439 18.6697C9.14584 18.6704 9.14749 18.6704 9.14901 18.6699C9.15114 18.6692 9.15291 18.6675 9.15433 18.6649C9.15545 18.6628 9.15591 18.6605 9.1557 18.6581C9.1552 18.6508 9.15515 18.6437 9.15555 18.6369C9.15564 18.6351 9.15625 18.6334 9.1573 18.6319C9.15836 18.6304 9.15981 18.6293 9.16148 18.6287C9.17 18.6253 9.17305 18.6191 9.17061 18.6101C9.16919 18.6047 9.17112 18.6008 9.17639 18.5986C9.18522 18.5948 9.18836 18.5883 9.18582 18.579C9.18451 18.574 9.18623 18.5705 9.191 18.5686C9.20043 18.5647 9.20372 18.5578 9.20088 18.5479C9.19957 18.5434 9.20114 18.5403 9.2056 18.5388C9.21452 18.5358 9.21792 18.5296 9.21579 18.5202C9.21519 18.5176 9.21554 18.5148 9.21679 18.5123C9.21804 18.5099 9.22011 18.508 9.22264 18.5068C9.23126 18.5031 9.2341 18.4966 9.23116 18.4874C9.23083 18.4864 9.23072 18.4854 9.23081 18.4843C9.23091 18.4833 9.23121 18.4823 9.23171 18.4814C9.23221 18.4804 9.23288 18.4796 9.2337 18.4789C9.23452 18.4783 9.23547 18.4778 9.23648 18.4775C9.24409 18.4753 9.24743 18.4702 9.24652 18.4624C9.24623 18.4599 9.24651 18.4573 9.24732 18.4548C9.24814 18.4524 9.24947 18.4501 9.25124 18.4483C9.25803 18.441 9.26503 18.4343 9.27223 18.4284C9.27436 18.4266 9.27583 18.4244 9.27664 18.4217C9.27725 18.4199 9.2774 18.4181 9.2771 18.4162C9.27659 18.4125 9.2775 18.4093 9.27983 18.4064C9.2915 18.3923 9.30397 18.3794 9.31726 18.368C9.31949 18.366 9.32111 18.3638 9.32212 18.3611C9.32294 18.3591 9.32319 18.357 9.32289 18.3549C9.32238 18.3506 9.3236 18.3469 9.32654 18.3438C9.34439 18.3252 9.36203 18.307 9.37947 18.289C9.38526 18.2831 9.38708 18.2841 9.38495 18.2921C9.38475 18.2927 9.3849 18.2931 9.38541 18.2934C9.38835 18.2957 9.39119 18.2955 9.39393 18.2928C9.39798 18.2887 9.39971 18.2839 9.3991 18.2785C9.39839 18.2728 9.40006 18.268 9.40412 18.2641L9.49159 18.1786C9.49585 18.1744 9.50097 18.1727 9.50695 18.1734C9.50939 18.1737 9.51167 18.173 9.5138 18.1714C9.51572 18.17 9.51735 18.1683 9.51867 18.1662C9.53094 18.1488 9.54645 18.1357 9.56521 18.127C9.58286 18.1186 9.59503 18.1037 9.61344 18.0949C9.65989 18.0725 9.70583 18.0501 9.75126 18.0278C9.85389 17.9774 9.95865 17.949 10.0655 17.9426C10.1199 17.9395 10.1773 17.9387 10.2377 17.9402C10.2988 17.9417 10.3561 17.9484 10.4096 17.9603C10.623 18.0073 10.8077 18.1102 10.9637 18.2689C11.086 18.3933 11.1751 18.5431 11.2311 18.7185C11.2563 18.7974 11.2705 18.8812 11.2737 18.9699C11.2763 19.0431 11.2733 19.1156 11.2646 19.1873C11.2644 19.1885 11.2636 19.1893 11.2623 19.1896C11.2618 19.1897 11.2614 19.1899 11.2611 19.1903C11.2609 19.1907 11.2608 19.1912 11.2608 19.1917C11.2561 19.2408 11.2461 19.2913 11.2308 19.3434C11.2293 19.3482 11.2267 19.3524 11.2232 19.356C11.2203 19.3589 11.2193 19.3623 11.2201 19.3662C11.2211 19.3712 11.2207 19.376 11.2191 19.3808C11.1707 19.5197 11.1084 19.6332 11.0323 19.7212C11.0083 19.7487 10.9539 19.803 10.8689 19.8842C10.8658 19.8871 10.862 19.8887 10.8576 19.8889C10.8561 19.889 10.8546 19.889 10.8532 19.8889C10.8509 19.8887 10.8489 19.8893 10.8473 19.8908L10.8082 19.9292C10.8049 19.9325 10.8008 19.9342 10.796 19.9342H10.7904C10.7874 19.9342 10.785 19.9354 10.7834 19.9379C10.7779 19.9459 10.7704 19.9535 10.7609 19.9607C10.7569 19.9637 10.7525 19.9651 10.7477 19.9648C10.7408 19.9644 10.7362 19.9676 10.7341 19.9744C10.7324 19.9795 10.7289 19.9814 10.7236 19.9798C10.7145 19.9773 10.7081 19.9803 10.7043 19.989C10.7032 19.9914 10.7014 19.9933 10.699 19.9945C10.6967 19.9957 10.6941 19.9961 10.6915 19.9955C10.6816 19.9934 10.6751 19.9971 10.672 20.0066C10.6708 20.0103 10.6684 20.0115 10.6647 20.0104C10.6546 20.0075 10.6472 20.0107 10.6425 20.02C10.6398 20.0255 10.6355 20.0273 10.6298 20.0255C10.6226 20.0233 10.6174 20.0257 10.6144 20.0325C10.6112 20.0397 10.6056 20.0425 10.5978 20.041C10.5902 20.0396 10.5849 20.0424 10.582 20.0495C10.5793 20.0561 10.5744 20.0584 10.5674 20.0564C10.5537 20.0523 10.5429 20.0555 10.5351 20.0661C10.5309 20.0719 10.5254 20.0736 10.5186 20.0714C10.5069 20.0678 10.4978 20.0706 10.4912 20.0798C10.488 20.0841 10.4838 20.0863 10.4784 20.0863H10.4396C10.4303 20.0863 10.4282 20.0902 10.4334 20.098C10.4377 20.1047 10.4474 20.1128 10.4623 20.1224Z" fill="white"/>
<path d="M8.90613 18.3359L8.92986 18.3653C9.00227 18.4587 9.06804 18.5567 9.12716 18.6593C9.21742 18.8578 9.32183 19.0475 9.44038 19.2284L9.40174 19.2698C9.39945 19.2723 9.39777 19.2754 9.39687 19.2788C9.39342 19.2917 9.38628 19.3025 9.37542 19.3113C9.37157 19.3144 9.36873 19.3182 9.36691 19.3227C9.35889 19.3427 9.34617 19.3594 9.32872 19.3726C9.32507 19.3755 9.32279 19.3792 9.32188 19.3837C9.31934 19.3965 9.31245 19.4072 9.30119 19.4157C9.29713 19.4187 9.29424 19.4226 9.29252 19.4274C9.28532 19.4472 9.27223 19.4642 9.25327 19.4784C9.24921 19.4815 9.24653 19.4855 9.24521 19.4904C9.24227 19.5018 9.23557 19.5117 9.22513 19.5199C9.22067 19.5233 9.21727 19.5276 9.21494 19.5327C9.20459 19.5542 9.18928 19.5741 9.169 19.5923C9.16687 19.5942 9.16575 19.5966 9.16565 19.5995C9.16565 19.6008 9.16565 19.6021 9.16565 19.6034C9.16574 19.6054 9.16535 19.6075 9.1645 19.6093C9.16366 19.6112 9.16238 19.6128 9.16078 19.6141C9.14709 19.625 9.13746 19.6381 9.13188 19.6533C9.12934 19.66 9.12523 19.6656 9.11956 19.67C9.11043 19.6773 9.10287 19.686 9.09689 19.6961C9.07387 19.7345 9.04826 19.7696 9.02007 19.8015C9.01692 19.8051 9.01464 19.8092 9.01322 19.8138C9.01038 19.8232 9.00506 19.8311 8.99725 19.8375C8.9934 19.8407 8.99046 19.8445 8.98843 19.8491C8.979 19.8705 8.96541 19.8886 8.94766 19.9035C8.94411 19.9065 8.94162 19.9101 8.9402 19.9145C8.93554 19.9281 8.92743 19.9401 8.91587 19.9504C8.91201 19.9537 8.90998 19.958 8.90978 19.963C8.90917 19.9798 8.88438 19.9951 8.87647 20.0119C8.86835 20.0292 8.85674 20.0442 8.84163 20.0569C8.83798 20.06 8.83565 20.0639 8.83463 20.0686C8.8321 20.0806 8.82576 20.0907 8.81562 20.0989C8.81075 20.1026 8.8072 20.1074 8.80497 20.1132C8.79716 20.1326 8.78438 20.1496 8.76663 20.1641C8.76166 20.1681 8.75872 20.1732 8.75781 20.1795C8.75629 20.1907 8.75051 20.1997 8.74047 20.2067C8.7355 20.2101 8.7319 20.2145 8.72967 20.2201C8.72186 20.2401 8.70862 20.2571 8.68996 20.2712C8.6856 20.2745 8.68307 20.2787 8.68236 20.284C8.68104 20.2934 8.67663 20.3021 8.66912 20.3099C8.65594 20.3235 8.64838 20.332 8.64646 20.3354C8.63561 20.3546 8.62668 20.3736 8.61968 20.3925C8.30915 20.3017 8.03326 20.1486 7.79199 19.9332L7.79808 19.8978C7.79899 19.8928 7.80153 19.8889 7.80568 19.8862C7.81958 19.8771 7.8282 19.865 7.83154 19.85C7.83266 19.8448 7.83535 19.8407 7.83961 19.8377C7.85137 19.8292 7.85893 19.8185 7.86227 19.8056C7.86349 19.8006 7.86597 19.7964 7.86973 19.7928C7.88372 19.7791 7.89493 19.7639 7.90335 19.747C7.91024 19.7331 7.92079 19.7234 7.93499 19.7178C7.93823 19.7165 7.9395 19.7142 7.93879 19.7108C7.93625 19.6987 7.94001 19.6885 7.95005 19.6801C7.95684 19.6744 7.96282 19.6675 7.968 19.6594C7.98595 19.6309 8.00522 19.6029 8.0258 19.5753C8.04629 19.5478 8.06571 19.5202 8.08407 19.4924C8.10587 19.4593 8.12859 19.4279 8.15222 19.3982C8.15982 19.3887 8.16646 19.3787 8.17214 19.3684C8.17792 19.3578 8.18447 19.3478 8.19177 19.3384C8.21813 19.3044 8.24516 19.267 8.27285 19.2262C8.29222 19.1975 8.31189 19.1695 8.33187 19.1422C8.34546 19.1236 8.35905 19.1041 8.37264 19.0836C8.38714 19.0619 8.40372 19.0423 8.42238 19.0249C8.43242 19.0157 8.44064 19.0058 8.44703 18.9954C8.45423 18.9835 8.46224 18.9729 8.47106 18.9634C8.47117 18.9633 8.47122 18.9631 8.47122 18.9629C8.47121 18.9627 8.47114 18.9625 8.47103 18.9624C8.47091 18.9622 8.47074 18.9621 8.47056 18.9621C8.47038 18.962 8.47018 18.962 8.47 18.9621C8.46746 18.9631 8.46559 18.9624 8.46437 18.9601C8.46414 18.9596 8.46405 18.959 8.4641 18.9585C8.46416 18.958 8.46435 18.9575 8.46467 18.957L8.90613 18.3359Z" fill="#00A5E3"/>
<path d="M9.43984 19.2275C9.69251 19.6095 10.0401 19.9387 10.4619 20.1219C10.5721 20.1685 10.6875 20.2042 10.8083 20.229C10.8098 20.2293 10.8105 20.2302 10.8103 20.2317C10.81 20.2352 10.8091 20.2355 10.8076 20.2326C10.4092 20.3691 9.99675 20.4617 9.57933 20.4897C9.25389 20.5115 8.93383 20.4788 8.61914 20.3916C8.62614 20.3727 8.63506 20.3537 8.64591 20.3345C8.64784 20.3311 8.6554 20.3226 8.66858 20.309C8.67608 20.3012 8.6805 20.2925 8.68181 20.2831C8.68252 20.2778 8.68506 20.2736 8.68942 20.2703C8.70808 20.2562 8.72132 20.2392 8.72912 20.2192C8.73136 20.2136 8.73496 20.2092 8.73993 20.2058C8.74997 20.1988 8.75575 20.1898 8.75727 20.1786C8.75818 20.1723 8.76112 20.1672 8.76609 20.1632C8.78384 20.1487 8.79662 20.1317 8.80442 20.1123C8.80666 20.1065 8.81021 20.1017 8.81507 20.098C8.82521 20.0898 8.83155 20.0797 8.83409 20.0677C8.8351 20.063 8.83743 20.0591 8.84109 20.056C8.8562 20.0433 8.86781 20.0283 8.87592 20.011C8.88383 19.9942 8.90863 19.9789 8.90924 19.9621C8.90944 19.9571 8.91147 19.9529 8.91532 19.9495C8.92688 19.9392 8.935 19.9272 8.93966 19.9136C8.94108 19.9092 8.94357 19.9056 8.94711 19.9027C8.96486 19.8877 8.97845 19.8696 8.98788 19.8482C8.98991 19.8436 8.99285 19.8398 8.99671 19.8366C9.00451 19.8302 9.00984 19.8223 9.01268 19.8129C9.0141 19.8083 9.01638 19.8042 9.01952 19.8006C9.04772 19.7687 9.07332 19.7336 9.09635 19.6952C9.10233 19.6851 9.10988 19.6764 9.11901 19.6691C9.12469 19.6647 9.1288 19.6591 9.13133 19.6524C9.13691 19.6372 9.14655 19.6241 9.16024 19.6132C9.16184 19.6119 9.16311 19.6103 9.16396 19.6084C9.16481 19.6066 9.1652 19.6045 9.1651 19.6025C9.1651 19.6012 9.1651 19.5999 9.1651 19.5986C9.16521 19.5957 9.16632 19.5933 9.16845 19.5914C9.18873 19.5732 9.20405 19.5533 9.21439 19.5318C9.21672 19.5267 9.22012 19.5225 9.22458 19.519C9.23503 19.5108 9.24172 19.501 9.24466 19.4895C9.24598 19.4846 9.24867 19.4806 9.25273 19.4775C9.27169 19.4633 9.28477 19.4463 9.29197 19.4265C9.2937 19.4217 9.29659 19.4178 9.30064 19.4148C9.3119 19.4063 9.3188 19.3956 9.32133 19.3829C9.32225 19.3783 9.32453 19.3746 9.32818 19.3718C9.34562 19.3585 9.35835 19.3418 9.36636 19.3219C9.36819 19.3173 9.37103 19.3135 9.37488 19.3104C9.38573 19.3016 9.39288 19.2908 9.39633 19.2779C9.39723 19.2745 9.3989 19.2714 9.4012 19.2689L9.43984 19.2275Z" fill="#00A5E3"/>
<path d="M16.3857 21.2666H16.2831C16.2799 21.2666 16.2773 21.2692 16.2773 21.2724V22.1507C16.2773 22.1539 16.2799 22.1565 16.2831 22.1565H16.3857C16.3888 22.1565 16.3914 22.1539 16.3914 22.1507V21.2724C16.3914 21.2692 16.3888 21.2666 16.3857 21.2666Z" fill="white"/>
<path d="M22.4294 21.6084V21.2704C22.4294 21.2679 22.4306 21.2666 22.4332 21.2666H22.5395C22.5427 21.2666 22.5443 21.2682 22.5442 21.2715C22.5424 21.5469 22.5426 21.8121 22.5448 22.0671C22.545 22.0911 22.5462 22.1152 22.5485 22.1395C22.5495 22.1508 22.5443 22.1565 22.533 22.1565H22.456C22.4485 22.1565 22.4447 22.1527 22.4446 22.1451L22.4444 22.0805C22.4443 22.0652 22.4398 22.0637 22.4307 22.0759C22.3782 22.1463 22.3059 22.1779 22.214 22.1707C22.0929 22.1612 22.0053 22.0639 21.9838 21.948C21.9612 21.8255 21.9803 21.7232 22.0412 21.641C22.1321 21.5179 22.3182 21.4962 22.4221 21.6113C22.4269 21.6167 22.4294 21.6157 22.4294 21.6084ZM22.4288 21.7907C22.4277 21.6157 22.1968 21.5623 22.1195 21.7225C22.0699 21.8255 22.0758 22.0044 22.1927 22.0619C22.3141 22.1218 22.4327 22.0242 22.4301 21.8965C22.4294 21.8594 22.429 21.8241 22.4288 21.7907Z" fill="white"/>
<path d="M27.7294 21.2666H27.6269C27.6237 21.2666 27.6211 21.2692 27.6211 21.2724V22.1507C27.6211 22.1539 27.6237 22.1565 27.6269 22.1565H27.7294C27.7326 22.1565 27.7352 22.1539 27.7352 22.1507V21.2724C27.7352 21.2692 27.7326 21.2666 27.7294 21.2666Z" fill="white"/>
<path d="M34.6076 21.6095V21.2742C34.6076 21.2691 34.6102 21.2666 34.6153 21.2666H34.714C34.7188 21.2666 34.7213 21.2691 34.7213 21.2741L34.7226 22.1523C34.7226 22.1552 34.7212 22.1567 34.7184 22.1567L34.6264 22.1564C34.6232 22.1564 34.6218 22.1547 34.6221 22.1515C34.625 22.1233 34.6236 22.097 34.6178 22.0725C34.6159 22.0643 34.6129 22.0639 34.6087 22.0713C34.5894 22.1059 34.5602 22.1318 34.5209 22.1491C34.3458 22.2259 34.1831 22.1069 34.1574 21.9276C34.1396 21.804 34.1676 21.6728 34.2658 21.5924C34.3595 21.5158 34.522 21.513 34.5997 21.6122C34.605 21.619 34.6076 21.6181 34.6076 21.6095ZM34.2909 21.7379C34.2483 21.8431 34.259 22.0229 34.3865 22.0687C34.496 22.1081 34.6057 22.0261 34.6076 21.9134C34.6084 21.8701 34.6079 21.8265 34.6064 21.7824C34.6035 21.6968 34.5334 21.6255 34.4465 21.6274C34.3721 21.6292 34.3202 21.666 34.2909 21.7379Z" fill="white"/>
<path d="M29.1456 21.4445C29.1861 21.4445 29.2189 21.4117 29.2189 21.3712C29.2189 21.3307 29.1861 21.2979 29.1456 21.2979C29.1051 21.2979 29.0723 21.3307 29.0723 21.3712C29.0723 21.4117 29.1051 21.4445 29.1456 21.4445Z" fill="white"/>
<path d="M26.6079 22.0013C26.6497 21.928 26.6147 21.844 26.5416 21.8063C26.5054 21.7877 26.465 21.7698 26.4205 21.7526C26.3075 21.7089 26.2247 21.6169 26.2484 21.4877C26.2664 21.389 26.351 21.3218 26.4476 21.3061C26.5369 21.2916 26.6219 21.3022 26.7025 21.3379C26.705 21.339 26.7059 21.3409 26.7051 21.3435L26.676 21.431C26.6752 21.4334 26.6737 21.434 26.6715 21.4328C26.5945 21.3902 26.4328 21.3619 26.3762 21.4574C26.3176 21.5562 26.403 21.6301 26.4879 21.6624C26.6441 21.7218 26.7763 21.7985 26.7296 21.9952C26.7116 22.0707 26.6423 22.1338 26.5665 22.1549C26.4519 22.1868 26.3393 22.1752 26.2288 22.1201C26.2278 22.1196 26.2274 22.1188 26.2276 22.1177C26.2346 22.0849 26.2445 22.0535 26.2574 22.0233C26.2575 22.0231 26.2577 22.0229 26.2579 22.0227C26.2581 22.0225 26.2583 22.0224 26.2586 22.0223C26.2588 22.0222 26.2591 22.0222 26.2594 22.0222C26.2596 22.0222 26.2599 22.0223 26.2601 22.0224C26.3572 22.0815 26.5417 22.1172 26.6079 22.0013Z" fill="white"/>
<path d="M31.6923 21.4108C31.5045 21.3621 31.3134 21.4229 31.2603 21.6247C31.2439 21.6872 31.2412 21.7515 31.2524 21.8175C31.2903 22.0406 31.4896 22.1131 31.6914 22.0591C31.706 22.0553 31.7203 22.0503 31.7342 22.0444C31.7425 22.0408 31.7477 22.0434 31.7497 22.0523L31.7654 22.12C31.7662 22.1237 31.7657 22.1277 31.7639 22.131C31.762 22.1344 31.759 22.137 31.7553 22.1382C31.5461 22.2087 31.2839 22.1804 31.1762 21.9662C31.1322 21.8787 31.1177 21.7798 31.1327 21.6697C31.164 21.4388 31.3333 21.3029 31.5604 21.2999C31.6382 21.2988 31.7045 21.3089 31.7661 21.3347C31.7699 21.3363 31.7711 21.3391 31.7699 21.3429L31.7444 21.4231C31.744 21.4243 31.7433 21.4254 31.7425 21.4262C31.7416 21.4271 31.7406 21.4278 31.7394 21.4283C31.7383 21.4287 31.7371 21.4289 31.7358 21.4288C31.7346 21.4287 31.7334 21.4283 31.7323 21.4277C31.7199 21.4202 31.7065 21.4145 31.6923 21.4108Z" fill="white"/>
<path d="M14.1588 21.9306C14.0487 22.1836 13.7453 22.1791 13.512 22.1577C13.5098 22.1575 13.5077 22.1565 13.5062 22.1549C13.5047 22.1532 13.5039 22.1511 13.5039 22.1489V21.3358C13.5039 21.329 13.5073 21.325 13.5139 21.3239C13.5943 21.3117 13.6828 21.3068 13.7794 21.3092C13.9977 21.3146 14.1678 21.4152 14.1964 21.6432C14.2094 21.7474 14.1969 21.8432 14.1588 21.9306ZM14.0703 21.829C14.1078 21.6673 14.0709 21.4881 13.9019 21.4243C13.824 21.3949 13.7325 21.3892 13.6274 21.4073C13.6211 21.4084 13.618 21.4121 13.618 21.4185V22.0628C13.618 22.0648 13.6188 22.0668 13.6202 22.0684C13.6216 22.0699 13.6235 22.0708 13.6256 22.071C13.8302 22.0889 14.0184 22.0521 14.0703 21.829Z" fill="white"/>
<path d="M21.6807 21.8944H21.3919C21.3909 21.8944 21.3899 21.8947 21.3891 21.8953C21.3883 21.8959 21.3877 21.8967 21.3874 21.8977L21.3043 22.1527C21.304 22.1537 21.3034 22.1545 21.3025 22.1551C21.3017 22.1557 21.3006 22.156 21.2996 22.156L21.1924 22.1548C21.1916 22.1548 21.1908 22.1546 21.1901 22.1542C21.1894 22.1539 21.1888 22.1534 21.1884 22.1527C21.1879 22.1521 21.1876 22.1513 21.1875 22.1506C21.1874 22.1498 21.1875 22.149 21.1878 22.1483L21.4709 21.3158C21.4712 21.3149 21.4718 21.314 21.4726 21.3134C21.4735 21.3128 21.4744 21.3125 21.4755 21.3125H21.6025C21.6035 21.3125 21.6045 21.3128 21.6053 21.3134C21.6061 21.314 21.6067 21.3149 21.607 21.3158L21.8918 22.1501C21.8921 22.1508 21.8921 22.1516 21.892 22.1524C21.8919 22.1531 21.8916 22.1539 21.8911 22.1545C21.8906 22.1551 21.89 22.1556 21.8893 22.156C21.8886 22.1563 21.8879 22.1565 21.8871 22.1565L21.7764 22.1568C21.7753 22.1568 21.7744 22.1564 21.7735 22.1558C21.7727 22.1552 21.7721 22.1544 21.7718 22.1534L21.6852 21.8977C21.6849 21.8967 21.6843 21.8959 21.6835 21.8953C21.6827 21.8947 21.6817 21.8944 21.6807 21.8944ZM21.5334 21.4252C21.4982 21.5532 21.4584 21.6781 21.4138 21.8C21.4136 21.8008 21.4135 21.8017 21.4136 21.8025C21.4137 21.8033 21.4141 21.8041 21.4145 21.8047C21.415 21.8054 21.4156 21.8059 21.4164 21.8063C21.4171 21.8067 21.4179 21.8069 21.4187 21.8069H21.6509C21.6521 21.8069 21.6534 21.8066 21.6546 21.806C21.6557 21.8054 21.6567 21.8045 21.6575 21.8035C21.6582 21.8024 21.6587 21.8012 21.6588 21.7999C21.659 21.7986 21.6588 21.7973 21.6583 21.7961C21.6099 21.6693 21.5696 21.5457 21.5372 21.4252C21.5359 21.4207 21.5346 21.4207 21.5334 21.4252Z" fill="white"/>
<path d="M33.2742 22.0617H33.6201C33.6209 22.0617 33.6216 22.0618 33.6223 22.0621C33.623 22.0624 33.6236 22.0629 33.6242 22.0634C33.6247 22.0639 33.6251 22.0646 33.6254 22.0653C33.6257 22.066 33.6259 22.0667 33.6259 22.0675L33.626 22.151C33.626 22.1525 33.6254 22.154 33.6243 22.1551C33.6232 22.1562 33.6218 22.1568 33.6202 22.1568H33.1601C33.1593 22.1568 33.1586 22.1566 33.1579 22.1563C33.1572 22.156 33.1565 22.1556 33.156 22.1551C33.1555 22.1545 33.155 22.1539 33.1547 22.1532C33.1544 22.1525 33.1543 22.1518 33.1543 22.151V21.3183C33.1543 21.3175 33.1544 21.3168 33.1547 21.3161C33.155 21.3154 33.1555 21.3147 33.156 21.3142C33.1565 21.3137 33.1572 21.3132 33.1579 21.3129C33.1586 21.3126 33.1593 21.3125 33.1601 21.3125H33.2626C33.2641 21.3125 33.2656 21.3131 33.2667 21.3142C33.2678 21.3153 33.2684 21.3167 33.2684 21.3183V22.0559C33.2684 22.0567 33.2685 22.0574 33.2688 22.0581C33.2691 22.0588 33.2695 22.0595 33.2701 22.06C33.2706 22.0605 33.2713 22.061 33.272 22.0613C33.2727 22.0615 33.2734 22.0617 33.2742 22.0617Z" fill="white"/>
<path d="M20.6155 21.5526L20.7559 21.5524C20.7585 21.5524 20.7597 21.5537 20.7597 21.5562L20.7599 21.6362C20.76 21.6388 20.7587 21.64 20.7561 21.64H20.6123C20.6062 21.64 20.6032 21.6431 20.6032 21.6492C20.6039 21.7419 20.6042 21.8511 20.604 21.977C20.6038 22.0657 20.6563 22.0906 20.7383 22.0722C20.7461 22.0705 20.7501 22.0736 20.7504 22.0817L20.7532 22.1455C20.7535 22.1542 20.7495 22.1596 20.7412 22.1618C20.6014 22.1991 20.4931 22.1495 20.4934 21.9933C20.4937 21.8758 20.4938 21.7616 20.4938 21.6507C20.4938 21.6437 20.4903 21.6402 20.4833 21.6402L20.4022 21.6399C20.4012 21.6399 20.4003 21.6394 20.3995 21.6387C20.3988 21.638 20.3984 21.6371 20.3984 21.6361L20.3986 21.5564C20.3986 21.5554 20.399 21.5544 20.3997 21.5537C20.4004 21.553 20.4014 21.5526 20.4024 21.5526H20.4823C20.4899 21.5526 20.4937 21.5488 20.4937 21.5412V21.4431C20.4937 21.4409 20.4947 21.4395 20.4967 21.4388L20.5998 21.4064C20.6003 21.4062 20.6008 21.4062 20.6013 21.4063C20.6017 21.4064 20.6022 21.4066 20.6026 21.4068C20.6029 21.4071 20.6033 21.4075 20.6035 21.4079C20.6037 21.4083 20.6038 21.4088 20.6038 21.4093L20.6041 21.5413C20.6041 21.5489 20.6079 21.5527 20.6155 21.5526Z" fill="white"/>
<path d="M28.6646 21.6402L28.5878 21.6398C28.5853 21.6398 28.584 21.6386 28.584 21.6361L28.5841 21.5564C28.5841 21.5539 28.5854 21.5526 28.5879 21.5526H28.6678C28.6729 21.5526 28.6754 21.5501 28.6754 21.545L28.6756 21.4435C28.6756 21.4411 28.6767 21.4396 28.6789 21.439L28.782 21.4073C28.7825 21.4072 28.7829 21.4072 28.7833 21.4073C28.7837 21.4073 28.7841 21.4075 28.7844 21.4078C28.7848 21.408 28.785 21.4083 28.7852 21.4087C28.7854 21.4091 28.7855 21.4095 28.7855 21.4099L28.7857 21.545C28.7857 21.547 28.7865 21.549 28.7879 21.5504C28.7894 21.5518 28.7913 21.5526 28.7933 21.5526L28.9415 21.5525C28.944 21.5525 28.9453 21.5537 28.9453 21.5563L28.9454 21.6363C28.9455 21.6388 28.9443 21.6401 28.9416 21.6401H28.7962C28.7896 21.6401 28.7863 21.6434 28.7862 21.65C28.7846 21.7661 28.7851 21.8753 28.7877 21.9775C28.7901 22.071 28.8461 22.0929 28.9287 22.0712C28.9315 22.0705 28.9331 22.0716 28.9333 22.0745L28.9387 22.1533C28.9389 22.1547 28.9385 22.156 28.9378 22.1571C28.937 22.1582 28.9359 22.159 28.9346 22.1594C28.84 22.1868 28.7212 22.181 28.6894 22.0697C28.6799 22.0363 28.6752 21.9998 28.6753 21.9601C28.6755 21.8553 28.6755 21.7522 28.6754 21.651C28.6754 21.6438 28.6718 21.6402 28.6646 21.6402Z" fill="white"/>
<path d="M33.9114 21.5526H34.0521C34.0571 21.5526 34.0597 21.5551 34.0597 21.5602V21.6324C34.0597 21.6334 34.0595 21.6344 34.0591 21.6353C34.0588 21.6363 34.0582 21.6371 34.0575 21.6378C34.0568 21.6385 34.056 21.6391 34.055 21.6395C34.0541 21.6399 34.0531 21.64 34.0521 21.64H33.908C33.9024 21.64 33.8997 21.6428 33.8997 21.6483C33.9001 21.7354 33.9001 21.8252 33.8997 21.9177C33.8992 22.0102 33.9048 22.1068 34.0349 22.0719C34.0425 22.0699 34.0467 22.0727 34.0474 22.0804L34.053 22.1396C34.0541 22.1517 34.0488 22.1592 34.037 22.1623C33.9436 22.1866 33.8307 22.1749 33.8026 22.068C33.7938 22.0344 33.7894 21.9988 33.7895 21.961C33.7897 21.8464 33.7898 21.7429 33.7897 21.6505C33.7897 21.6437 33.7862 21.6402 33.7793 21.6402L33.702 21.6399C33.6995 21.6398 33.6982 21.6385 33.6982 21.6361L33.6984 21.5564C33.6984 21.5539 33.6997 21.5527 33.7022 21.5527L33.7783 21.5526C33.7859 21.5525 33.7897 21.5487 33.7897 21.5412V21.4432C33.7897 21.4412 33.7907 21.4399 33.7927 21.4392L33.8968 21.4073C33.8971 21.4072 33.8975 21.4072 33.8979 21.4073C33.8982 21.4074 33.8986 21.4075 33.8989 21.4078C33.8992 21.408 33.8994 21.4083 33.8996 21.4086C33.8997 21.409 33.8998 21.4094 33.8998 21.4097L33.9 21.5412C33.9 21.5488 33.9038 21.5526 33.9114 21.5526Z" fill="white"/>
<path d="M14.4323 21.8871C14.447 22.0268 14.5289 22.0911 14.678 22.08C14.7208 22.0769 14.7623 22.0674 14.8024 22.0516C14.8053 22.0505 14.807 22.0514 14.8077 22.0545L14.8251 22.1296C14.8254 22.131 14.8252 22.1324 14.8245 22.1336C14.8238 22.1348 14.8227 22.1357 14.8214 22.1362C14.6307 22.2011 14.4039 22.1908 14.3375 21.9711C14.2998 21.8465 14.3316 21.6765 14.4372 21.5937C14.5233 21.526 14.6835 21.5052 14.7753 21.5957C14.8455 21.6649 14.8672 21.7679 14.8567 21.8668C14.856 21.8725 14.8528 21.8754 14.847 21.8754H14.4428C14.435 21.8754 14.4315 21.8793 14.4323 21.8871ZM14.446 21.7928L14.7469 21.7907C14.7481 21.7907 14.7492 21.7902 14.75 21.7894C14.7508 21.7886 14.7513 21.7875 14.7513 21.7863V21.7832C14.7512 21.7614 14.747 21.7398 14.7391 21.7197C14.7312 21.6996 14.7198 21.6813 14.7053 21.666C14.6909 21.6506 14.6738 21.6385 14.6551 21.6303C14.6363 21.622 14.6162 21.6179 14.596 21.618H14.5945C14.5536 21.6183 14.5146 21.6361 14.4859 21.6675C14.4572 21.6989 14.4413 21.7413 14.4416 21.7854V21.7884C14.4416 21.7896 14.4421 21.7907 14.4429 21.7915C14.4437 21.7924 14.4448 21.7928 14.446 21.7928Z" fill="white"/>
<path d="M15.6925 21.8848C15.709 22.0949 15.8978 22.1092 16.0568 22.0529C16.0631 22.0508 16.067 22.0529 16.0686 22.0593L16.0839 22.1235C16.0854 22.1299 16.083 22.1341 16.0769 22.1362C15.8727 22.2088 15.6343 22.1813 15.5878 21.93C15.5797 21.8861 15.5801 21.838 15.5892 21.7858C15.6179 21.6198 15.7417 21.5168 15.9159 21.5392C16.0734 21.5594 16.1312 21.7228 16.1167 21.8658C16.1161 21.872 16.1127 21.8751 16.1065 21.8751H15.7014C15.6949 21.8751 15.6919 21.8783 15.6925 21.8848ZM15.7042 21.7925L16.0075 21.7903C16.0085 21.7903 16.0095 21.7899 16.0102 21.7892C16.0109 21.7885 16.0113 21.7875 16.0113 21.7865V21.7835C16.0111 21.7616 16.007 21.7399 15.999 21.7197C15.9911 21.6995 15.9795 21.6812 15.9649 21.6658C15.9504 21.6504 15.9331 21.6382 15.9142 21.6299C15.8953 21.6217 15.875 21.6175 15.8546 21.6177C15.8134 21.618 15.774 21.6358 15.7451 21.6673C15.7161 21.6988 15.7001 21.7414 15.7004 21.7856V21.7886C15.7004 21.7897 15.7008 21.7906 15.7015 21.7913C15.7022 21.7921 15.7032 21.7925 15.7042 21.7925Z" fill="white"/>
<path d="M16.5579 21.7757C16.5927 21.5953 16.7572 21.5057 16.9344 21.5471C17.143 21.5959 17.1886 21.8594 17.1051 22.0197C17.0278 22.1682 16.8351 22.2131 16.6928 22.1337C16.5676 22.0638 16.5316 21.9122 16.5579 21.7757ZM16.8428 22.0862C16.8911 22.0867 16.9378 22.0626 16.9724 22.0193C17.007 21.976 17.0268 21.917 17.0275 21.8552C17.0278 21.8246 17.0234 21.7943 17.0145 21.7659C17.0057 21.7376 16.9925 21.7118 16.9758 21.69C16.9591 21.6682 16.9392 21.6508 16.9172 21.6389C16.8953 21.6269 16.8716 21.6207 16.8477 21.6204C16.7994 21.6199 16.7528 21.644 16.7181 21.6873C16.6835 21.7306 16.6637 21.7896 16.663 21.8514C16.6627 21.882 16.6671 21.9123 16.676 21.9407C16.6848 21.969 16.698 21.9948 16.7147 22.0166C16.7314 22.0384 16.7513 22.0558 16.7733 22.0677C16.7953 22.0797 16.8189 22.0859 16.8428 22.0862Z" fill="white"/>
<path d="M17.4168 22.4005H17.3031L17.3018 21.5553C17.3018 21.5533 17.3027 21.5524 17.3045 21.5524H17.3982C17.4003 21.5524 17.4014 21.5534 17.4015 21.5556L17.4066 21.6395C17.4071 21.6472 17.4095 21.6479 17.4137 21.6415C17.4552 21.5793 17.5158 21.5448 17.5957 21.5382C17.8856 21.5142 17.941 21.8832 17.8202 22.0609C17.7309 22.1924 17.5301 22.2155 17.4251 22.0921C17.4209 22.0871 17.4187 22.0879 17.4186 22.0945L17.4168 22.4005ZM17.7467 21.7456C17.7061 21.6347 17.5826 21.5901 17.4881 21.6653C17.4055 21.7308 17.4186 21.8125 17.418 21.9061C17.4174 22.0072 17.4905 22.0862 17.5925 22.0816C17.7612 22.0742 17.7908 21.8661 17.7467 21.7456Z" fill="white"/>
<path d="M18.1465 21.6348C18.1899 21.5715 18.2486 21.5387 18.3225 21.5363C18.3989 21.5337 18.4693 21.574 18.4979 21.6455C18.4983 21.6465 18.499 21.6474 18.4999 21.648C18.5008 21.6487 18.5018 21.6491 18.5029 21.6492C18.504 21.6493 18.5051 21.6491 18.5061 21.6486C18.5071 21.6482 18.5079 21.6474 18.5085 21.6465C18.5488 21.5853 18.5997 21.5498 18.6613 21.5401C18.8144 21.5157 18.9031 21.6269 18.9044 21.7695C18.9055 21.8911 18.9057 22.0188 18.905 22.1523C18.9049 22.1552 18.9034 22.1566 18.9007 22.1566H18.7994C18.7964 22.1566 18.795 22.1551 18.795 22.1522C18.7947 22.0394 18.7947 21.925 18.7951 21.8089C18.7952 21.7793 18.791 21.7501 18.7824 21.7212C18.7442 21.593 18.5881 21.6091 18.542 21.7191C18.5322 21.7426 18.5274 21.7694 18.5277 21.7993C18.529 21.9178 18.5292 22.0348 18.5283 22.1502C18.5282 22.1545 18.526 22.1566 18.5218 22.1566H18.423C18.4198 22.1566 18.4182 22.1549 18.4182 22.1516C18.4187 22.0339 18.4186 21.9125 18.4179 21.7874C18.4176 21.7351 18.3978 21.6678 18.3468 21.6435C18.2743 21.6087 18.1959 21.6529 18.1663 21.7202C18.1559 21.7438 18.1509 21.7722 18.1512 21.8055C18.1526 21.9356 18.1528 22.0504 18.1518 22.1498C18.1518 22.1543 18.1495 22.1566 18.145 22.1566H18.044C18.0403 22.1566 18.0385 22.1548 18.0385 22.1511L18.0371 21.5542C18.0371 21.5526 18.0379 21.5518 18.0395 21.5518L18.1314 21.5524C18.133 21.5524 18.134 21.5532 18.1342 21.5548C18.137 21.5809 18.138 21.6065 18.1371 21.6318C18.1365 21.6437 18.1397 21.6448 18.1465 21.6348Z" fill="white"/>
<path d="M19.1713 21.8877C19.1827 22.0062 19.2443 22.0702 19.3561 22.0799C19.4156 22.085 19.4755 22.0762 19.5357 22.0532C19.5412 22.0512 19.5447 22.053 19.5462 22.0586L19.5636 22.1232C19.5651 22.1292 19.563 22.1333 19.5574 22.1357C19.5127 22.1541 19.4589 22.1656 19.3959 22.1701C19.1492 22.1876 19.0226 22.0041 19.0706 21.7738C19.0949 21.657 19.1742 21.561 19.2945 21.5409C19.5082 21.5054 19.6182 21.6735 19.5963 21.8669C19.596 21.8693 19.5948 21.8715 19.593 21.8732C19.5911 21.8748 19.5887 21.8757 19.5863 21.8757H19.1822C19.1741 21.8757 19.1705 21.8797 19.1713 21.8877ZM19.1851 21.7928L19.4851 21.7913C19.4863 21.7913 19.4875 21.7908 19.4883 21.7899C19.4892 21.7891 19.4897 21.7879 19.4897 21.7867V21.7837C19.4895 21.7619 19.4855 21.7403 19.4776 21.7201C19.4698 21.7 19.4584 21.6818 19.4441 21.6664C19.4297 21.651 19.4128 21.6389 19.3941 21.6306C19.3754 21.6224 19.3554 21.6182 19.3353 21.6183H19.3331C19.2924 21.6185 19.2535 21.6362 19.2249 21.6675C19.1963 21.6988 19.1803 21.7412 19.1805 21.7852V21.7882C19.1805 21.7894 19.181 21.7906 19.1819 21.7915C19.1827 21.7923 19.1839 21.7928 19.1851 21.7928Z" fill="white"/>
<path d="M19.8633 21.6365C19.9176 21.5626 19.9908 21.5299 20.083 21.5384C20.2185 21.5509 20.2736 21.6702 20.2739 21.7917C20.2742 21.9103 20.2743 22.0305 20.2743 22.1524C20.2743 22.1536 20.2739 22.1547 20.2731 22.1555C20.2723 22.1563 20.2712 22.1568 20.2701 22.1568H20.1673C20.1663 22.1568 20.1654 22.1566 20.1645 22.1563C20.1637 22.1559 20.1629 22.1554 20.1622 22.1547C20.1615 22.154 20.161 22.1533 20.1607 22.1524C20.1603 22.1515 20.1601 22.1506 20.1601 22.1497C20.1605 22.0348 20.1605 21.9176 20.16 21.7983C20.1592 21.5582 19.867 21.5911 19.8702 21.8037C19.872 21.9258 19.872 22.0424 19.8703 22.1533C19.8703 22.1537 19.8702 22.1542 19.87 22.1546C19.8699 22.155 19.8696 22.1554 19.8693 22.1557C19.869 22.156 19.8686 22.1562 19.8682 22.1564C19.8677 22.1566 19.8673 22.1567 19.8668 22.1567L19.7641 22.1568C19.7588 22.1569 19.7561 22.1543 19.7562 22.1489C19.7582 21.9885 19.7578 21.8237 19.7553 21.6547C19.7548 21.6219 19.7537 21.5892 19.752 21.5565C19.7519 21.556 19.752 21.5554 19.7522 21.5549C19.7524 21.5543 19.7527 21.5538 19.7531 21.5534C19.7535 21.553 19.754 21.5527 19.7545 21.5525C19.7551 21.5522 19.7556 21.5521 19.7562 21.5521H19.8478C19.8492 21.5521 19.85 21.5528 19.8502 21.5541C19.8552 21.5807 19.8569 21.6072 19.8553 21.6337C19.8547 21.6437 19.8574 21.6447 19.8633 21.6365Z" fill="white"/>
<path d="M23.6702 22.0928C23.6691 22.0949 23.6681 22.0971 23.6672 22.0994C23.6659 22.1021 23.6642 22.1045 23.662 22.1067C23.6118 22.1531 23.5519 22.175 23.4822 22.1722C23.3845 22.1683 23.3101 22.1015 23.3077 22.0015C23.303 21.8067 23.5123 21.7734 23.6589 21.7697C23.6669 21.7695 23.6707 21.7655 23.6705 21.7575C23.6678 21.6674 23.6224 21.6222 23.5345 21.6218C23.4819 21.6217 23.4324 21.6352 23.3862 21.6622C23.3788 21.6664 23.3737 21.6645 23.371 21.6565L23.3515 21.6013C23.3488 21.5933 23.3511 21.5874 23.3585 21.5835C23.4566 21.5327 23.6291 21.5071 23.7133 21.5884C23.7595 21.6331 23.7825 21.6867 23.7823 21.7492C23.782 21.891 23.7843 22.0239 23.7892 22.1479C23.7894 22.1539 23.7865 22.1569 23.7805 22.1569H23.6993C23.6922 22.1569 23.6885 22.1533 23.6882 22.1462C23.6874 22.1277 23.6848 22.1102 23.6802 22.0937C23.6777 22.0847 23.6744 22.0844 23.6702 22.0928ZM23.6652 21.8497C23.5757 21.8477 23.4353 21.8613 23.4224 21.9722C23.4182 22.0078 23.4267 22.0363 23.4478 22.0578C23.5058 22.1167 23.6074 22.0811 23.6494 22.0224C23.6809 21.9784 23.6751 21.9112 23.6731 21.8575C23.6729 21.8524 23.6703 21.8498 23.6652 21.8497Z" fill="white"/>
<path d="M24.0909 21.6344C24.219 21.4652 24.4861 21.5252 24.4974 21.7486C24.5006 21.812 24.5011 21.9468 24.4987 22.1531C24.4986 22.1559 24.4973 22.1572 24.4946 22.1572L24.3921 22.1574C24.3874 22.1574 24.3851 22.155 24.3851 22.1504C24.385 22.0293 24.3851 21.9112 24.3853 21.7961C24.3857 21.5563 24.0915 21.5941 24.0949 21.8096C24.0967 21.9294 24.0969 22.0432 24.0956 22.151C24.0955 22.1552 24.0933 22.1574 24.0891 22.1574H23.9899C23.985 22.1574 23.9826 22.1549 23.9826 22.1501L23.9805 21.5553C23.9805 21.5536 23.9814 21.5527 23.9832 21.5527L24.0751 21.5528C24.0768 21.5528 24.0777 21.5538 24.0778 21.5556L24.0824 21.6318C24.0829 21.6404 24.0857 21.6413 24.0909 21.6344Z" fill="white"/>
<path d="M24.8104 21.7157C24.7178 21.862 24.7811 22.0671 24.9718 22.0802C25.0135 22.083 25.0581 22.0739 25.1057 22.0528C25.111 22.0504 25.1143 22.0521 25.1156 22.0578L25.1323 22.1304C25.1335 22.1356 25.1317 22.1392 25.1267 22.141C24.8991 22.2256 24.6504 22.1378 24.6543 21.8584C24.658 21.596 24.8967 21.48 25.1256 21.5642C25.1287 21.5653 25.1313 21.5676 25.1328 21.5706C25.1342 21.5735 25.1345 21.577 25.1335 21.5801L25.1133 21.6477C25.1108 21.6559 25.1057 21.658 25.0981 21.6541C25.0044 21.6057 24.8694 21.6227 24.8104 21.7157Z" fill="white"/>
<path d="M25.3423 21.8902C25.3642 22.0965 25.5501 22.1107 25.7066 22.0535C25.7128 22.0512 25.7166 22.0533 25.7182 22.0597L25.7332 22.1227C25.735 22.1303 25.7323 22.1355 25.7248 22.1382C25.5066 22.2178 25.2475 22.1653 25.233 21.8877C25.2225 21.6859 25.3467 21.5072 25.5683 21.5401C25.7239 21.563 25.7787 21.72 25.768 21.8626C25.7678 21.8661 25.7662 21.8695 25.7636 21.872C25.7609 21.8744 25.7574 21.8758 25.7537 21.8758H25.3553C25.3456 21.8758 25.3412 21.8806 25.3423 21.8902ZM25.3534 21.7924L25.6543 21.793C25.6559 21.793 25.6574 21.7924 25.6586 21.7912C25.6597 21.7901 25.6603 21.7886 25.6603 21.7869V21.7848C25.6604 21.763 25.6564 21.7413 25.6487 21.7211C25.641 21.7009 25.6296 21.6825 25.6153 21.667C25.6009 21.6516 25.5839 21.6393 25.5651 21.6309C25.5464 21.6225 25.5263 21.6181 25.5059 21.6181H25.5023C25.4613 21.618 25.4219 21.6355 25.3928 21.6666C25.3637 21.6978 25.3474 21.7401 25.3473 21.7842V21.7863C25.3473 21.788 25.3479 21.7895 25.3491 21.7906C25.3502 21.7918 25.3518 21.7924 25.3534 21.7924Z" fill="white"/>
<path d="M27.0271 22.143C26.8896 22.0756 26.8456 21.9174 26.8767 21.7733C26.912 21.6087 27.0504 21.5196 27.2156 21.54C27.3025 21.5508 27.3692 21.594 27.4158 21.6694C27.4769 21.7688 27.4766 21.9201 27.4223 22.0216C27.3475 22.1616 27.1671 22.2118 27.0271 22.143ZM27.1611 22.0868C27.2094 22.0873 27.256 22.0631 27.2905 22.0198C27.3251 21.9764 27.3448 21.9173 27.3453 21.8556C27.3459 21.7938 27.3272 21.7344 27.2934 21.6904C27.2596 21.6464 27.2135 21.6215 27.1651 21.6211C27.1168 21.6207 27.0702 21.6448 27.0357 21.6882C27.0011 21.7315 26.9814 21.7906 26.9809 21.8524C26.9803 21.9141 26.999 21.9735 27.0328 22.0175C27.0666 22.0615 27.1127 22.0864 27.1611 22.0868Z" fill="white"/>
<path d="M29.5252 22.1439C29.2977 22.0385 29.3097 21.6495 29.545 21.5588C29.7105 21.4951 29.9013 21.5675 29.9446 21.7508C29.9686 21.8518 29.9588 21.943 29.9153 22.0242C29.841 22.1629 29.6629 22.2076 29.5252 22.1439ZM29.656 22.0862C29.7043 22.0867 29.7509 22.0625 29.7855 22.0192C29.82 21.9758 29.8397 21.9167 29.8403 21.8549C29.8408 21.7932 29.8221 21.7338 29.7883 21.6898C29.7545 21.6458 29.7084 21.6209 29.6601 21.6205C29.6117 21.62 29.5652 21.6442 29.5306 21.6876C29.4961 21.7309 29.4763 21.79 29.4758 21.8518C29.4753 21.9135 29.4939 21.9729 29.5277 22.0169C29.5615 22.0609 29.6077 22.0858 29.656 22.0862Z" fill="white"/>
<path d="M30.2269 21.6331C30.3563 21.4624 30.6236 21.5261 30.6318 21.7534C30.6344 21.8231 30.6348 21.9554 30.6332 22.1504C30.6332 22.1547 30.6311 22.1568 30.6268 22.1568H30.5264C30.5218 22.1568 30.5194 22.1545 30.5194 22.1498C30.5199 22.0238 30.5197 21.9003 30.5188 21.7793C30.5185 21.7503 30.5105 21.7213 30.4948 21.6923C30.4616 21.6317 30.3839 21.6168 30.3259 21.6439C30.2573 21.676 30.2286 21.7359 30.2296 21.8098C30.2311 21.9219 30.2313 22.0354 30.2301 22.1503C30.23 22.1546 30.2278 22.1568 30.2235 22.1568H30.1224C30.1188 22.1568 30.1171 22.155 30.1171 22.1514L30.1152 21.5552C30.1152 21.5536 30.116 21.5528 30.1175 21.5528C30.1506 21.5514 30.1819 21.5517 30.2114 21.5535C30.2128 21.5536 30.2135 21.5544 30.2135 21.5558L30.2167 21.6299C30.2171 21.6404 30.2205 21.6415 30.2269 21.6331Z" fill="white"/>
<path d="M32.4541 21.8142C32.4647 21.9651 32.4093 22.1007 32.2616 22.1546C32.2087 22.1738 32.1527 22.1781 32.0935 22.1675C31.8844 22.1303 31.8199 21.8961 31.8865 21.7211C31.9411 21.5775 32.0887 21.5131 32.2355 21.5452C32.3663 21.5738 32.4446 21.6829 32.4541 21.8142ZM32.1552 22.0874C32.2035 22.0878 32.2501 22.0636 32.2846 22.0202C32.3191 21.9768 32.3388 21.9177 32.3394 21.8559C32.3399 21.7941 32.3212 21.7347 32.2875 21.6907C32.2537 21.6467 32.2076 21.6217 32.1593 21.6213C32.111 21.6209 32.0645 21.645 32.03 21.6884C31.9954 21.7318 31.9757 21.7909 31.9752 21.8527C31.9747 21.9145 31.9933 21.974 32.0271 22.018C32.0609 22.062 32.107 22.0869 32.1552 22.0874Z" fill="white"/>
<path d="M15.234 22.0293C15.2348 22.0194 15.2367 22.0101 15.2398 22.0013C15.2903 21.8539 15.3418 21.7051 15.3943 21.555C15.395 21.553 15.3963 21.5521 15.3983 21.5521L15.5108 21.5518C15.5113 21.5518 15.5118 21.5519 15.5123 21.5521C15.5127 21.5523 15.5131 21.5526 15.5134 21.553C15.5136 21.5535 15.5138 21.5539 15.5139 21.5544C15.514 21.5549 15.5139 21.5554 15.5137 21.5559L15.2814 22.1481C15.2792 22.1538 15.275 22.1566 15.2688 22.1566H15.1772C15.1711 22.1566 15.167 22.1537 15.1648 22.1479L14.9396 21.5554C14.9395 21.555 14.9394 21.5546 14.9395 21.5542C14.9395 21.5538 14.9397 21.5534 14.9399 21.553C14.9402 21.5527 14.9405 21.5524 14.9408 21.5522C14.9412 21.552 14.9416 21.5519 14.9421 21.5519H15.0563C15.0596 21.5519 15.0619 21.5534 15.063 21.5565L15.2273 22.0302C15.2276 22.0309 15.2281 22.0315 15.2288 22.0319C15.2294 22.0322 15.2302 22.0324 15.231 22.0323C15.2317 22.0322 15.2324 22.0318 15.233 22.0313C15.2335 22.0307 15.2339 22.03 15.234 22.0293Z" fill="white"/>
<path d="M22.9542 22.0265C22.9565 22.0374 22.9594 22.0375 22.963 22.027L23.126 21.5565C23.1271 21.5533 23.1293 21.5518 23.1325 21.5518L23.2448 21.5522C23.2467 21.5522 23.2473 21.5531 23.2466 21.555L23.0131 22.1496C23.0113 22.1543 23.0079 22.1566 23.0029 22.1566H22.9086C22.9062 22.1566 22.9038 22.1558 22.9018 22.1545C22.8998 22.1531 22.8983 22.1511 22.8975 22.1488L22.672 21.5554C22.6719 21.555 22.6718 21.5546 22.6719 21.5542C22.6719 21.5538 22.6721 21.5534 22.6723 21.553C22.6726 21.5527 22.6729 21.5524 22.6733 21.5522C22.6736 21.552 22.6741 21.5519 22.6745 21.5519L22.7896 21.5521C22.7906 21.5521 22.7916 21.5524 22.7925 21.5529C22.7933 21.5535 22.794 21.5543 22.7943 21.5553C22.8419 21.69 22.8891 21.8251 22.9358 21.9604C22.9433 21.9824 22.9495 22.0044 22.9542 22.0265Z" fill="white"/>
<path d="M28.3462 22.0734C28.3462 22.0726 28.3459 22.0718 28.3455 22.0712C28.345 22.0706 28.3443 22.0701 28.3436 22.0699C28.3428 22.0697 28.342 22.0697 28.3413 22.0699C28.3405 22.0702 28.3399 22.0706 28.3394 22.0713C28.2811 22.15 28.2031 22.1825 28.1054 22.1689C27.9626 22.149 27.932 22.0042 27.9326 21.8855C27.9332 21.769 27.9333 21.6602 27.9329 21.5591C27.9329 21.5544 27.9353 21.552 27.9401 21.5519L28.0405 21.5518C28.0447 21.5518 28.0469 21.5538 28.0469 21.558C28.0476 21.6646 28.0475 21.7704 28.0467 21.8753C28.0464 21.9199 28.052 21.9581 28.0635 21.9899C28.1208 22.1485 28.3339 22.0713 28.3335 21.921C28.333 21.7828 28.3324 21.6627 28.3318 21.5604C28.3318 21.5547 28.3346 21.5519 28.3402 21.5519H28.4384C28.4433 21.5519 28.4457 21.5543 28.4457 21.5591L28.4482 22.1501C28.4482 22.1544 28.446 22.1566 28.4416 22.1566H28.3587C28.3533 22.1566 28.3506 22.154 28.3504 22.1487L28.3462 22.0734Z" fill="white"/>
<path d="M29.1983 21.5518H29.0955C29.0924 21.5518 29.0898 21.5543 29.0898 21.5574V22.151C29.0898 22.1541 29.0924 22.1566 29.0955 22.1566H29.1983C29.2014 22.1566 29.2039 22.1541 29.2039 22.151V21.5574C29.2039 21.5543 29.2014 21.5518 29.1983 21.5518Z" fill="white"/>
<path d="M32.8811 22.3006C32.8807 22.3014 32.88 22.3022 32.8793 22.3027C32.8785 22.3033 32.8776 22.3037 32.8767 22.3038L32.7991 22.3129C32.7988 22.313 32.7984 22.3129 32.7981 22.3128C32.7978 22.3127 32.7975 22.3125 32.7973 22.3122C32.7971 22.312 32.797 22.3117 32.7969 22.3113C32.7968 22.311 32.7969 22.3107 32.797 22.3103C32.8292 22.2135 32.854 22.1146 32.8712 22.0137C32.8716 22.0109 32.8733 22.0093 32.8762 22.009L32.9947 21.9971C32.9972 21.9968 32.9981 21.9979 32.9975 22.0003C32.9694 22.1006 32.9306 22.2007 32.8811 22.3006Z" fill="white"/>
<path d="M32.6389 22.0126L32.6252 22.0131C32.5873 22.0145 32.5578 22.0463 32.5592 22.0842L32.5599 22.1058C32.5613 22.1436 32.5932 22.1732 32.631 22.1718L32.6447 22.1713C32.6826 22.1699 32.7121 22.1381 32.7107 22.1002L32.71 22.0787C32.7086 22.0408 32.6767 22.0112 32.6389 22.0126Z" fill="white"/>
<path d="M34.8731 22.0836C34.8687 22.1284 34.8996 22.1681 34.9422 22.1723C34.9847 22.1765 35.0228 22.1435 35.0272 22.0987C35.0316 22.0539 35.0007 22.0142 34.9581 22.01C34.9155 22.0058 34.8775 22.0388 34.8731 22.0836Z" fill="white"/>
<circle cx="20" cy="20" r="19.5" stroke="black" stroke-opacity="0.05"/>
</svg>
