<svg width="40" height="40" viewBox="0 0 40 40" fill="none" xmlns="http://www.w3.org/2000/svg">
<circle cx="20" cy="20" r="20" fill="#F6F8FA"/>
<g clip-path="url(#clip0_17752_43878)">
<path d="M6.43989 18.2943C6.35209 18.1385 6.28128 17.9771 6.22746 17.8099C6.20764 17.742 6.16515 17.6485 6.10851 17.5295C6.06036 17.4304 6.03203 17.3313 6.02637 17.2321C7.01203 16.8923 7.96653 16.9489 8.89271 17.3993C8.91537 17.4106 8.92387 17.4276 8.9267 17.4502V18.6257C8.92954 18.6398 8.91821 18.6512 8.90404 18.6512C8.89838 18.6512 8.89271 18.6512 8.88988 18.6455C8.19879 18.1385 7.24995 17.9572 6.44272 18.2943H6.43989Z" fill="#9FCF2B"/>
<path d="M18.9645 18.2065L18.9163 18.1414C18.9163 18.1414 18.905 18.1159 18.9078 18.1017L18.9163 18.062C18.922 18.0422 18.9192 18.0196 18.9135 17.9997L18.6274 17.1472C19.3639 16.9603 20.2221 16.9659 20.9358 17.2548C21.1199 17.3285 21.2842 17.4106 21.4286 17.4956C21.4853 17.5296 21.5108 17.5834 21.5108 17.6542C21.5023 18.0252 21.4995 18.3793 21.5023 18.7192C21.5023 18.7333 21.491 18.7475 21.474 18.7475C21.4683 18.7475 21.4626 18.7475 21.457 18.7418C20.7092 18.1952 19.8793 17.9771 18.9673 18.2065H18.9645Z" fill="#0CB5D6"/>
<path d="M30.5233 20.0164C29.6651 19.6624 29.2998 18.7135 29.7444 17.8808C30.3307 16.7875 32.3785 16.7479 33.0838 17.7449C33.3274 18.0904 33.4208 18.5379 33.3189 18.9514C33.0158 20.1722 31.543 20.4384 30.5205 20.0164H30.5233ZM32.3814 18.62C32.3814 18.1697 31.9678 17.8043 31.458 17.8043C30.9482 17.8043 30.5347 18.1697 30.5347 18.62C30.5347 19.0704 30.9482 19.4358 31.458 19.4358C31.9678 19.4358 32.3814 19.0704 32.3814 18.62Z" fill="#898989"/>
<path d="M29.0194 17.0481H28.0848C28.0738 17.0481 28.0649 17.057 28.0649 17.0679V22.7723C28.0649 22.7832 28.0738 22.7921 28.0848 22.7921H29.0194C29.0304 22.7921 29.0393 22.7832 29.0393 22.7723V17.0679C29.0393 17.057 29.0304 17.0481 29.0194 17.0481Z" fill="#898989"/>
<path d="M35.1288 17.5607L35.8397 17.555C35.8709 17.555 35.8964 17.5805 35.8964 17.6117V18.3339C35.8935 18.3538 35.8765 18.3708 35.8567 18.3708H35.1316C35.0976 18.3708 35.0806 18.3849 35.0835 18.4189L35.0891 18.9004C35.0891 18.9316 35.1061 18.9486 35.1373 18.9486L35.8709 18.9316C35.8709 18.9316 35.8907 18.9401 35.8907 18.9514L35.8822 19.702C35.8822 19.7275 35.868 19.7388 35.8454 19.7388H35.109C35.0891 19.7388 35.0778 19.7473 35.0778 19.7699V20.2713C35.0778 20.2883 35.0665 20.3024 35.0495 20.3024H34.1233C34.1233 20.3024 34.0978 20.2911 34.0978 20.2798C34.0978 19.2743 34.1006 18.2575 34.1035 17.2237C34.1035 17.1755 34.0978 17.1274 34.0865 17.0849C34.0837 17.0707 34.0922 17.0594 34.1035 17.0537C34.1035 17.0537 34.1063 17.0537 34.1091 17.0537H35.0495C35.0778 17.0537 35.0948 17.0679 35.092 17.0962L35.0778 17.5097C35.0778 17.538 35.0976 17.5607 35.126 17.5607H35.1288Z" fill="#898989"/>
<path d="M11.9176 18.215C11.8893 18.215 11.8666 18.2291 11.8553 18.2574C11.8553 18.2603 11.8496 18.2631 11.844 18.2631C11.8383 18.2631 11.8326 18.2603 11.827 18.2546C11.8043 18.2291 11.7958 18.232 11.7958 18.2659C11.7958 18.2858 11.7902 18.2999 11.7703 18.3056C11.7505 18.3141 11.7392 18.3283 11.7363 18.3481C11.6939 18.535 11.6259 18.7106 11.5324 18.8777C11.5069 18.9259 11.4701 19.0024 11.4276 19.11C11.3965 19.1893 11.3511 19.2658 11.2945 19.3337L11.1331 19.093C11.1104 19.059 11.0962 19.0618 11.0991 19.1043C11.1161 20.2146 11.1217 21.407 11.1104 22.6873C11.1104 22.7297 11.0877 22.7496 11.0452 22.7496L9.97745 22.7382C9.94629 22.7382 9.91797 22.7127 9.91797 22.6788V17.1217C9.91797 17.1217 9.9293 17.0962 9.94346 17.0962C10.306 17.082 10.6572 17.082 10.9943 17.0905C11.0877 17.0905 11.1614 17.1302 11.2095 17.201C11.4474 17.538 11.6825 17.8751 11.9148 18.215H11.9176Z" fill="#7BC955"/>
<path d="M14.4356 19.0564C14.4356 19.0564 14.4356 19.0139 14.4554 18.9742C14.4639 18.9572 14.478 18.9459 14.4979 18.9402C14.5404 18.9317 14.5772 18.9062 14.6083 18.8694C14.6168 18.8609 14.6168 18.8496 14.614 18.8383C14.5885 18.7675 14.5828 18.6938 14.5913 18.623C14.6055 18.5182 14.5602 18.4162 14.5149 18.3228C14.5064 18.303 14.5035 18.2831 14.5092 18.2605C14.5205 18.2095 14.5177 18.1557 14.4979 18.1019C14.4837 18.0594 14.4724 18.0169 14.4667 17.9687C14.4611 17.9234 14.4441 17.8781 14.4242 17.8384C14.4101 17.8101 14.4101 17.7846 14.4271 17.7563C14.4384 17.7365 14.4412 17.7138 14.4327 17.694L14.3846 17.5779C14.3761 17.558 14.3732 17.5382 14.3761 17.5184C14.3846 17.4504 14.3676 17.3824 14.3223 17.3201C14.3959 17.1587 14.4922 17.0822 14.6197 17.085C14.9142 17.0964 15.2343 17.0964 15.5827 17.085C15.6252 17.085 15.662 17.119 15.6648 17.1615V22.6789C15.6648 22.7186 15.6336 22.7526 15.5912 22.7526H14.4752C14.4497 22.7526 14.4271 22.7328 14.4271 22.7044L14.4356 19.0564Z" fill="#49C08F"/>
<path d="M26.7139 17.1077H27.6117C27.6316 17.1077 27.6457 17.1247 27.6457 17.1417V22.6081C27.6486 22.6279 27.6344 22.6421 27.6146 22.6421L26.7139 22.6478C26.6941 22.6478 26.6799 22.6336 26.6799 22.6138V19.6653C26.6799 19.6455 26.6657 19.6313 26.6487 19.6313H25.833C25.816 19.6313 25.799 19.6171 25.799 19.5973L25.7905 18.8156C25.7905 18.7958 25.8047 18.7816 25.8245 18.7816H26.6487C26.6686 18.7816 26.6827 18.7674 26.6827 18.7476V17.1417C26.6827 17.1218 26.6969 17.1077 26.7167 17.1077H26.7139Z" fill="#898989"/>
<path d="M18.6274 17.1445L18.9135 17.9971C18.9192 18.0169 18.922 18.0396 18.9163 18.0594L18.9078 18.099C18.905 18.1132 18.9078 18.1274 18.9163 18.1387L18.9645 18.2038C17.6899 18.6598 17.333 20.2261 18.2337 21.2175C18.2847 21.3563 18.2819 21.4979 18.2281 21.6452C18.2139 21.682 18.2082 21.7188 18.2082 21.7584C18.2082 21.8009 18.2026 21.8434 18.1912 21.8831C18.1771 21.9341 18.1686 21.9879 18.1686 22.0417C18.1686 22.1238 18.1572 22.2031 18.1374 22.2796C18.1318 22.2966 18.1318 22.3164 18.1374 22.3362L18.1771 22.577C16.9507 22.0502 16.3615 20.8747 16.5145 19.5747C16.6561 18.3738 17.4775 17.4816 18.6274 17.1502V17.1445Z" fill="#2BBAB2"/>
<path d="M6.02617 17.2322C6.03467 17.3341 6.06016 17.4333 6.10831 17.5296C6.16779 17.6485 6.20744 17.742 6.22727 17.81C6.27825 17.9799 6.34906 18.1414 6.4397 18.2943C5.98086 18.5067 5.67779 18.841 5.52485 19.297C5.28693 20.0136 5.4682 20.8094 6.04034 21.2994C6.35473 21.5685 6.73993 21.7101 7.19594 21.7215C7.16195 21.7271 7.13363 21.7385 7.11097 21.7498C7.08264 21.764 7.07131 21.7894 7.07698 21.8206C7.07981 21.8461 7.09397 21.8688 7.11097 21.8829C7.12796 21.8971 7.13646 21.9141 7.13363 21.9367C7.11946 22.0472 7.12513 22.152 7.15062 22.2511C7.18744 22.3927 7.17328 22.5344 7.19311 22.6816C7.19311 22.6958 7.2016 22.71 7.21293 22.7213C7.21576 22.7241 7.22143 22.7298 7.22709 22.7326C7.26108 22.7553 7.25825 22.7638 7.21576 22.7581C7.19594 22.7553 7.17611 22.7581 7.15912 22.7694C7.13363 22.7864 7.13363 22.8006 7.16478 22.8091C7.19027 22.8176 7.2101 22.8289 7.22426 22.8403H6.95519C6.78241 22.8119 6.60964 22.7779 6.4397 22.7383C5.79109 22.591 5.2586 22.2709 4.84508 21.7781C4.28994 21.1153 4.12849 20.2911 4.22763 19.4584C4.34942 18.4303 5.066 17.6145 6.02617 17.2322Z" fill="#B7D40F"/>
<path d="M24.2298 18.0819L23.2044 18.0904C23.2044 18.0904 23.1818 18.0819 23.1818 18.0705V17.337C23.179 17.3143 23.1903 17.303 23.2101 17.303H26.2237C26.2407 17.303 26.2577 17.3171 26.2577 17.3341V18.0621C26.2549 18.0762 26.2436 18.0875 26.2266 18.0875C25.8895 18.079 25.578 18.079 25.2891 18.0932C25.2692 18.0932 25.2551 18.1102 25.2551 18.1272C25.2522 18.4954 25.2551 18.824 25.2636 19.1129C25.2806 19.5575 25.5355 19.9144 25.8499 20.3109C26.0765 20.597 26.3115 20.8746 26.558 21.1408C26.5863 21.172 26.5834 21.2173 26.5551 21.2485L25.9915 21.7838C25.9773 21.7979 25.9518 21.7979 25.9377 21.7838C25.544 21.3617 25.1616 20.9086 24.7906 20.4186C24.7764 20.4016 24.7537 20.3987 24.7367 20.4101C24.7339 20.4101 24.7311 20.4157 24.7283 20.4186C24.377 20.9001 23.9918 21.3787 23.5698 21.8574C23.5302 21.9027 23.4848 21.9084 23.4339 21.8744L22.8561 21.4694C22.8136 21.4411 22.8079 21.4042 22.8419 21.3646C23.2498 20.8831 23.6321 20.3959 23.9862 19.8946C24.1646 19.6397 24.2553 19.3479 24.2581 19.0166C24.2581 18.6965 24.2609 18.3963 24.2609 18.1102C24.2609 18.0875 24.2496 18.0762 24.2269 18.0762L24.2298 18.0819Z" fill="#898989"/>
<path d="M14.3224 17.3171C14.3677 17.3795 14.3876 17.4474 14.3762 17.5154C14.3734 17.5352 14.3762 17.5551 14.3847 17.5749L14.4329 17.691C14.4414 17.7137 14.4414 17.7335 14.4272 17.7533C14.4102 17.7816 14.4102 17.8071 14.4244 17.8355C14.447 17.8751 14.4612 17.9204 14.4669 17.9657C14.4725 18.0111 14.4839 18.0564 14.498 18.0989C14.5179 18.1527 14.5207 18.2065 14.5094 18.2575C14.5037 18.2801 14.5094 18.3 14.515 18.3198C14.5575 18.4133 14.6057 18.5181 14.5915 18.62C14.583 18.6908 14.5915 18.7645 14.6142 18.8353C14.617 18.8466 14.6142 18.8579 14.6085 18.8664C14.5773 18.9061 14.5405 18.9288 14.498 18.9372C14.4782 18.9401 14.464 18.9514 14.4555 18.9712C14.4357 19.0109 14.4272 19.0392 14.4357 19.0534L12.8014 21.4042C12.7816 21.4326 12.7618 21.4326 12.742 21.4042L11.3003 19.3366C11.3569 19.2686 11.3994 19.1922 11.4334 19.1129C11.4759 19.0052 11.5127 18.9288 11.5382 18.8806C11.6317 18.7135 11.6968 18.5379 11.7421 18.3509C11.7478 18.3311 11.7591 18.317 11.7761 18.3085C11.7931 18.3 11.8016 18.2858 11.8016 18.2688C11.8016 18.2348 11.8101 18.2292 11.8328 18.2575C11.8384 18.2631 11.8441 18.266 11.8498 18.266C11.8554 18.266 11.8583 18.266 11.8611 18.2603C11.8724 18.2348 11.8951 18.2207 11.9234 18.2178L12.7561 19.4046C12.7788 19.4357 12.8213 19.4442 12.8524 19.4216C12.8581 19.4159 12.8638 19.4103 12.8694 19.4046L14.3253 17.32L14.3224 17.3171Z" fill="#60C375"/>
<path d="M31.4551 19.4359C31.965 19.4359 32.3784 19.0707 32.3784 18.6202C32.3784 18.1697 31.965 17.8044 31.4551 17.8044C30.9451 17.8044 30.5317 18.1697 30.5317 18.6202C30.5317 19.0707 30.9451 19.4359 31.4551 19.4359Z" fill="white"/>
<path d="M19.6924 22.8404H19.225C18.8596 22.8008 18.5084 22.713 18.1742 22.5742L18.1346 22.3335C18.1317 22.3136 18.1346 22.2966 18.1346 22.2768C18.1516 22.2003 18.1629 22.121 18.1657 22.0389C18.1657 21.9851 18.1742 21.9313 18.1884 21.8803C18.1997 21.8406 18.2054 21.7981 18.2054 21.7557C18.2054 21.7188 18.2139 21.6792 18.2252 21.6424C18.279 21.4951 18.279 21.3535 18.2309 21.2147C18.8115 21.7415 19.4884 21.8803 20.2673 21.631C20.29 21.6225 20.3041 21.6027 20.3041 21.58L20.2985 20.8153C20.2985 20.7842 20.273 20.7615 20.2418 20.7615L19.361 20.77C19.3355 20.77 19.3157 20.7502 19.3157 20.7275L19.3072 19.7787C19.3072 19.7617 19.3157 19.7532 19.3326 19.7532H21.4824C21.4824 19.7532 21.4937 19.7588 21.4937 19.7645V22.2881C21.4937 22.3108 21.4852 22.3306 21.4711 22.3476C21.4399 22.3844 21.4003 22.4128 21.355 22.4354C21.0717 22.5657 20.78 22.6648 20.4854 22.7328C20.3721 22.7583 20.1059 22.7951 19.6867 22.8404H19.6924Z" fill="#0CB5D6"/>
<path d="M34.0695 21.3165H30.2062C30.1892 21.3165 30.175 21.3024 30.175 21.2854L30.1665 20.549C30.1665 20.532 30.1807 20.5178 30.1977 20.5178L35.0467 20.5235C35.0637 20.5235 35.0778 20.5376 35.0778 20.5546V22.7922C35.0806 22.8092 35.0665 22.8234 35.0495 22.8234H34.129C34.112 22.8205 34.0978 22.8064 34.0978 22.7894V21.3477C34.0978 21.3307 34.0865 21.3165 34.0695 21.3165Z" fill="#898989"/>
<path d="M7.46496 22.8403H7.22421C7.22421 22.8403 7.19305 22.8177 7.16473 22.8092C7.1364 22.8007 7.13357 22.7865 7.15906 22.7695C7.17606 22.7582 7.19588 22.7553 7.21571 22.7582C7.25536 22.7667 7.26103 22.7582 7.22704 22.7327C7.22137 22.7299 7.21854 22.727 7.21288 22.7214C7.20155 22.71 7.19588 22.6959 7.19305 22.6817C7.17039 22.5344 7.18739 22.3956 7.15056 22.2512C7.12507 22.1521 7.11941 22.0473 7.13357 21.9368C7.1364 21.9141 7.12791 21.8971 7.11091 21.883C7.09109 21.866 7.07976 21.8462 7.07692 21.8207C7.07126 21.7895 7.08542 21.7669 7.11091 21.7499C7.13074 21.7385 7.15906 21.73 7.19588 21.7215C7.54143 21.713 7.78501 21.6904 7.92663 21.6479C8.27501 21.5459 8.59224 21.3986 8.88114 21.2089C8.89247 21.2004 8.90946 21.2032 8.91796 21.2174C8.92079 21.223 8.92362 21.2287 8.92362 21.2315L8.92929 22.4155C8.92929 22.4381 8.91512 22.4608 8.8953 22.4693C8.44495 22.6874 7.96628 22.8092 7.46496 22.8403Z" fill="#9FCF2B"/>
</g>
<circle cx="20" cy="20" r="19.5" stroke="black" stroke-opacity="0.05"/>
<defs>
<clipPath id="clip0_17752_43878">
<rect width="32" height="5.84033" fill="white" transform="translate(4.03516 17)"/>
</clipPath>
</defs>
</svg>
