<svg width="40" height="40" viewBox="0 0 40 40" fill="none" xmlns="http://www.w3.org/2000/svg">
<circle cx="20" cy="20" r="20" fill="#BD2327"/>
<path d="M21.4607 20.8701L22.9652 20.0833L24.5587 19.3773L21.4607 17.7104L20.0412 18.5014L18.5401 19.3773L17.0365 20.1674L15.4446 20.8701L18.5401 22.5435L19.9538 21.7517L21.4607 20.8701Z" fill="white"/>
<path d="M26.9491 16.3044L25.4396 15.4261L24.0251 14.6343L21.0137 16.217L22.5215 17.0071L24.1133 17.7964L25.5295 18.6764L26.9491 19.4665L30.0471 17.8863L28.4535 17.0962L26.9491 16.3044Z" fill="white"/>
<path d="M13.0552 24.0349L14.5596 24.825L15.8867 25.705L18.9831 24.0349L17.4786 23.2464L15.8867 22.4563L14.4689 21.6654L13.0552 20.7837L9.95801 22.4563L11.5482 23.1565L13.0552 24.0349Z" fill="white"/>
<path d="M29.5118 19.73L28.0989 20.4327L26.7684 21.0471L29.7815 22.8055L31.0195 22.0146L32.2567 21.2211L33.6696 20.605L35.0001 19.909L31.9887 18.2339L30.7539 19.0273L29.5118 19.73Z" fill="white"/>
<path d="M17.9223 13.4928L16.5927 14.1963L15.179 14.8083L18.2753 16.4826L19.4217 15.69L20.7522 14.9864L22.0768 14.2862L23.4955 13.6693L20.3992 12L19.157 12.7002L17.9223 13.4928Z" fill="white"/>
<path d="M10.4883 20.5207L11.8146 19.8196L13.2308 19.2035L10.226 17.5317L8.98218 18.2344L7.6534 19.0279L6.32795 19.7306L5 20.3467L8.0114 22.0151L9.25027 21.2217L10.4883 20.5207Z" fill="white"/>
<path d="M22.0768 26.845L23.4072 26.144L24.8251 25.4404L21.7246 23.772L20.4849 24.5637L19.251 25.2648L17.9223 25.97L16.5044 26.6726L19.6041 28.2537L20.8396 27.5493L22.0768 26.845Z" fill="white"/>
<path d="M26.5944 22.1905L25.2648 21.4869L24.0251 20.6943L21.0137 22.3661L22.4332 22.9797L23.7653 23.6833L24.9975 24.4742L26.2414 25.1761L29.2436 23.5076L27.9182 22.8932L26.5944 22.1905Z" fill="white"/>
<path d="M16.2347 16.5674L15 15.8639L13.7612 15.0713L10.6615 16.7414L12.0802 17.4491L13.4098 18.1485L14.7353 18.8537L15.8867 19.553L18.983 17.9736L17.5677 17.2718L16.2347 16.5674Z" fill="white"/>
<circle cx="20" cy="20" r="19.5" stroke="black" stroke-opacity="0.05"/>
</svg>
