<svg width="40" height="40" viewBox="0 0 40 40" fill="none" xmlns="http://www.w3.org/2000/svg">
<circle cx="20" cy="20" r="20" fill="#494949"/>
<g clip-path="url(#clip0_14382_21570)">
<path d="M18.0614 18.9013C17.9604 18.8897 17.858 18.9015 17.7622 18.9356C17.6664 18.9697 17.5796 19.0253 17.5086 19.0981C17.2798 19.3074 17.0659 19.5323 16.8683 19.7712C16.8518 19.7971 16.844 19.8275 16.846 19.858C16.848 19.8886 16.8596 19.9178 16.8792 19.9413C17.0809 20.2852 17.4478 20.3884 17.9727 20.3884H21.9434C22.2192 20.3884 22.3237 20.3471 22.495 20.1916C22.7244 19.983 22.9388 19.7585 23.1365 19.5197C23.153 19.4934 23.1608 19.4626 23.1588 19.4317C23.1569 19.4007 23.1453 19.3712 23.1256 19.3472C22.9239 19.0045 22.557 18.9013 22.0321 18.9013H18.0614Z" fill="#FA2828"/>
<path d="M28.2821 18.1032C28.0391 17.9817 27.9261 17.9671 27.7013 18.0267C27.4024 18.1093 27.1097 18.2129 26.8253 18.3365C26.7987 18.352 26.7779 18.3756 26.7656 18.4037C26.7534 18.4319 26.7504 18.4633 26.7572 18.4932C26.7815 18.8905 27.0622 19.1493 27.5251 19.3851L31.062 21.1869C31.305 21.3084 31.418 21.323 31.6428 21.2635C31.9415 21.1806 32.2342 21.0775 32.5188 20.9549C32.5453 20.939 32.5662 20.9152 32.5784 20.8869C32.5906 20.8585 32.5936 20.827 32.5869 20.7969C32.5626 20.3996 32.2819 20.1408 31.819 19.9051L28.2821 18.1032Z" fill="white"/>
<path d="M25.3259 16.0326C25.3036 16.0139 25.276 16.0028 25.2469 16.0008C25.2179 15.9988 25.189 16.0062 25.1643 16.0217C24.9389 16.2091 24.727 16.4121 24.5301 16.6292C24.4617 16.6961 24.4095 16.7777 24.3775 16.8678C24.3454 16.9579 24.3345 17.0542 24.3454 17.1492V22.2329C24.3454 22.7189 24.4426 23.07 24.7658 23.2608C24.7884 23.279 24.8161 23.2897 24.8451 23.2914C24.874 23.2932 24.9028 23.2859 24.9274 23.2705C25.1535 23.0835 25.3659 22.8804 25.5629 22.663C25.6314 22.5962 25.6836 22.5146 25.7156 22.4244C25.7476 22.3343 25.7586 22.238 25.7475 22.143V17.0593C25.7475 16.5685 25.6503 16.2222 25.3259 16.0326Z" fill="white"/>
<path d="M34.5795 16.0326C34.5572 16.0139 34.5296 16.0028 34.5005 16.0008C34.4715 15.9988 34.4426 16.0062 34.4179 16.0217C34.1925 16.2091 33.9806 16.4121 33.7837 16.6292C33.7151 16.6959 33.6627 16.7775 33.6307 16.8677C33.5986 16.9579 33.5878 17.0542 33.599 17.1492V22.2329C33.599 22.7189 33.6962 23.07 34.0194 23.2608C34.0419 23.2791 34.0696 23.29 34.0986 23.2917C34.1276 23.2934 34.1565 23.286 34.181 23.2705C34.4067 23.0834 34.6186 22.8804 34.8152 22.663C34.884 22.5964 34.9364 22.5148 34.9684 22.4246C35.0004 22.3344 35.0112 22.238 34.9999 22.143V17.0593C34.9987 16.5685 34.9027 16.2222 34.5795 16.0326Z" fill="white"/>
<path d="M8.94265 18.1032C8.69964 17.9817 8.58665 17.9671 8.36187 18.0267C8.06291 18.1091 7.77017 18.2127 7.48584 18.3365C7.45918 18.3519 7.43817 18.3754 7.42592 18.4036C7.41367 18.4318 7.41082 18.4633 7.4178 18.4932C7.4421 18.8905 7.72155 19.1493 8.18569 19.3851L11.7226 21.1869C11.9656 21.3084 12.0786 21.323 12.3022 21.2635C12.6012 21.1806 12.8943 21.0775 13.1794 20.9549C13.2056 20.9387 13.2263 20.9149 13.2384 20.8866C13.2506 20.8584 13.2538 20.827 13.2475 20.7969C13.2232 20.3996 12.9425 20.1408 12.4796 19.9051L8.94265 18.1032Z" fill="white"/>
<path d="M5.98041 16.0326C5.95811 16.0139 5.93044 16.0028 5.9014 16.0008C5.87235 15.9988 5.84343 16.0062 5.81881 16.0217C5.59342 16.2091 5.38149 16.4121 5.18457 16.6292C5.11594 16.6959 5.06357 16.7775 5.03155 16.8677C4.99952 16.9579 4.98869 17.0542 4.99989 17.1492V22.2329C4.99989 22.7189 5.09588 23.07 5.42029 23.2608C5.4428 23.2791 5.47052 23.29 5.49952 23.2917C5.52852 23.2934 5.55733 23.286 5.58188 23.2705C5.80756 23.0834 6.01951 22.8804 6.21612 22.663C6.28484 22.5964 6.33725 22.5148 6.36928 22.4246C6.40132 22.3344 6.4121 22.238 6.40081 22.143V17.0593C6.40081 16.5685 6.30482 16.2222 5.98041 16.0326Z" fill="white"/>
<path d="M15.2329 16.0326C15.2106 16.0139 15.1829 16.0028 15.1539 16.0008C15.1248 15.9988 15.0959 16.0062 15.0713 16.0217C14.8458 16.2094 14.6335 16.4123 14.4359 16.6292C14.3674 16.6961 14.3152 16.7777 14.2832 16.8678C14.2512 16.9579 14.2402 17.0542 14.2512 17.1492V22.2329C14.2512 22.7189 14.3484 23.07 14.6728 23.2608C14.6953 23.2791 14.723 23.29 14.752 23.2917C14.781 23.2934 14.8098 23.286 14.8344 23.2705C15.0598 23.0831 15.2717 22.8801 15.4686 22.663C15.5373 22.5964 15.5897 22.5148 15.6218 22.4246C15.6538 22.3344 15.6646 22.238 15.6533 22.143V17.0593C15.6533 16.5685 15.5561 16.2222 15.2329 16.0326Z" fill="white"/>
</g>
<circle cx="20" cy="20" r="19.5" stroke="black" stroke-opacity="0.05"/>
<defs>
<clipPath id="clip0_14382_21570">
<rect width="30" height="7.29011" fill="white" transform="translate(5 16)"/>
</clipPath>
</defs>
</svg>
