<svg width="40" height="40" viewBox="0 0 40 40" fill="none" xmlns="http://www.w3.org/2000/svg">
<circle cx="20" cy="20" r="20" fill="#EB1C24"/>
<g clip-path="url(#clip0_18553_55893)">
<path d="M16.2852 13.655C16.0148 13.7529 15.7612 13.8508 15.5246 13.9568C14.8146 14.2587 14.1638 14.6747 13.5638 15.1968C13.4201 15.3274 13.3863 15.3029 13.4623 15.1234C14.654 12.4639 16.6402 10.6202 19.6068 10.1062C20.2322 10.0002 20.8661 9.97572 21.5169 10.0247C25.1427 10.3347 29.0221 12.0152 30.6026 15.3845C30.6955 15.5884 30.7463 15.8332 30.8561 16.0208C31.0083 16.2819 31.0336 16.6653 30.9575 16.9345C30.9322 17.0406 30.8899 17.0487 30.8308 16.9508C30.3237 16.0045 29.0643 15.1887 28.1262 14.7237C27.2979 14.3158 26.4189 13.9731 25.4892 13.6958C23.5622 13.1329 21.6352 12.9044 19.7082 13.0105C18.8884 13.0594 18.0094 13.19 17.0713 13.4102C16.8177 13.4673 16.5557 13.5489 16.2768 13.6468L16.2852 13.655Z" fill="white"/>
<path d="M9.21114 16.4042C10.0479 12.8473 13.3272 10.6364 16.953 10.1714C17.2572 10.1306 17.2741 10.1878 17.0206 10.3428C14.5273 11.8438 12.9637 13.9486 12.3214 16.6734C11.9073 18.4192 11.9157 20.2792 12.5327 21.9679C12.7947 22.6777 13.1666 23.2814 13.6652 23.779C13.8089 23.9258 13.978 24.0401 14.1216 24.1787C14.1892 24.2522 14.1808 24.2685 14.0878 24.2358C12.22 23.5914 10.5296 22.4819 9.59147 20.8095C9.39708 20.4668 9.32102 20.0916 9.14353 19.7408C9.07592 19.6103 9.04211 19.4797 9.03366 19.341C8.99985 18.721 8.99985 17.9868 9.03366 17.1384C9.03366 16.9997 9.06746 16.861 9.10972 16.7386C9.18579 16.5265 9.2196 16.4123 9.22805 16.4123L9.21114 16.4042Z" fill="white"/>
<path d="M22.2272 17.5545C23.6471 17.53 24.6697 17.53 25.3121 17.5708C25.4642 17.5789 25.591 17.5789 25.6924 17.5789C25.8192 17.5789 25.9375 17.5789 26.0558 17.6034C26.5207 17.6687 26.9771 17.7503 27.4166 17.8481C27.9321 17.9624 28.4308 18.1745 28.9379 18.4926C30.2817 19.3411 30.9579 20.6953 30.8226 22.2372C30.6705 23.9014 29.6901 25.3454 28.3716 26.3733C27.9659 26.6914 27.9152 26.6506 28.2279 26.2427C28.5576 25.8185 28.828 25.3535 28.8703 24.8069C28.9041 24.4317 28.9041 24.0564 28.8872 23.6974C28.7773 21.25 25.9629 20.7606 23.9598 20.4995C23.5372 20.4424 23.0977 20.4179 22.6582 20.4261C21.6778 20.4424 20.7228 20.4342 19.81 20.4098C19.5311 20.4098 19.2521 20.4424 18.9817 20.5321C18.4154 20.7116 17.8322 20.834 17.2322 20.8992C17.1646 20.8992 17.1138 20.9319 17.0716 20.989L16.6997 21.4703C16.6659 21.5193 16.6236 21.5519 16.5729 21.5764C16.3785 21.6661 16.125 21.6579 15.939 21.5437C15.2967 21.1603 14.7727 20.6219 14.3924 19.9366C13.9529 19.1697 14.3332 18.3784 15.1108 17.9787C15.1361 17.9624 15.1699 17.9787 15.1868 18.0032C15.1868 18.0195 15.1868 18.0276 15.1868 18.0439L14.9924 18.6639C14.9248 18.8761 14.9924 18.9168 15.1784 18.7945C15.3728 18.6721 15.5756 18.5824 15.7785 18.5416C16.4462 18.4029 17.1307 18.256 17.8322 18.0929C17.9168 18.0766 17.9675 17.9868 17.9506 17.9053C17.9506 17.8726 17.9252 17.8481 17.8999 17.8237C17.6886 17.6524 17.528 17.4239 17.4097 17.1302C17.3928 17.0895 17.4012 17.0405 17.4097 17.0079C17.5026 16.8284 17.6548 16.7468 17.8661 16.7713C19.2437 16.91 20.5537 16.91 21.7877 16.7631C22.337 16.6979 23.2245 16.5021 23.5457 16.0452C23.7823 15.7026 23.7569 15.3273 23.4527 14.9276C23.3935 14.846 23.4104 14.8134 23.5118 14.8215C23.6809 14.8378 23.8415 14.8705 23.9936 14.9194C24.1288 14.9684 24.2472 15.0663 24.3148 15.1886C24.7035 15.8494 24.2472 16.4287 23.6724 16.7876C23.1991 17.0813 22.7089 17.3097 22.2018 17.4729C22.1849 17.4729 22.1765 17.4892 22.1765 17.5055C22.1765 17.5218 22.1765 17.5381 22.1765 17.5463C22.1765 17.5626 22.1849 17.5626 22.2018 17.5626L22.2272 17.5545Z" fill="white"/>
<path d="M9.03382 21.7962C8.99156 21.6005 8.99156 21.3965 9.02536 21.1925C9.06762 20.9723 9.12679 20.9641 9.21975 21.1681C9.27892 21.3068 9.35498 21.4291 9.4564 21.5433C11.113 23.5257 13.5302 24.831 16.0488 25.4592C17.4856 25.8263 19.0492 26.0221 20.7311 26.0466C21.8552 26.0629 22.8525 25.916 23.723 25.5979C25.0499 25.1166 26.1487 24.2926 27.0277 23.126C27.2052 22.8813 27.3573 22.6284 27.4672 22.3591C27.5517 22.1634 27.6277 22.1634 27.7038 22.3591C28.1095 23.4523 28.3208 24.415 28.025 25.5326C27.4334 27.7679 24.8048 28.4858 22.7342 28.7877C21.1621 29.0161 19.6239 29.0406 18.1195 28.8611C13.9105 28.3634 10.5044 26.6666 9.22821 22.4897C9.15214 22.2368 9.09298 22.0002 9.04227 21.7718L9.03382 21.7962Z" fill="white"/>
</g>
<circle cx="20" cy="20" r="19.5" stroke="black" stroke-opacity="0.05"/>
<defs>
<clipPath id="clip0_18553_55893">
<rect width="22" height="19" fill="white" transform="translate(9 10)"/>
</clipPath>
</defs>
</svg>
