<svg width="40" height="40" viewBox="0 0 40 40" fill="none" xmlns="http://www.w3.org/2000/svg">
<circle cx="20" cy="20" r="20" fill="#1C4881"/>
<g clip-path="url(#clip0_18553_55688)">
<path d="M8.52494 23.7608C7.98286 23.5192 7.37009 23.3719 6.77498 23.3071C5.80868 23.2069 4.90719 23.1657 4.07051 23.1892C4.05283 23.1892 4.03516 23.1716 4.03516 23.1539V15.883C4.03516 15.883 4.05283 15.8418 4.0764 15.8418C4.96611 15.8713 5.83814 15.9361 6.6866 16.048C7.47614 16.1482 8.31871 16.3839 9.21431 16.7551C10.0805 17.1145 11.0291 17.3561 12.0661 17.4798C14.2638 17.7449 16.4557 17.5741 18.4944 16.702C18.7536 16.5901 19.0541 16.5135 19.3193 16.4487C20.5389 16.1718 21.8116 16.0598 23.1315 16.1069C23.155 16.1069 23.1668 16.1246 23.1668 16.1482V23.4131C23.1668 23.4426 23.1432 23.4662 23.1079 23.4662C22.3066 23.4014 21.4993 23.4014 20.6803 23.4662C20.1029 23.5192 19.4784 23.6606 18.9186 23.8197C18.188 24.0259 17.475 24.3146 16.7444 24.4796C15.0416 24.8626 13.4566 24.9569 12.0013 24.7683C10.87 24.621 9.70925 24.2852 8.51315 23.749L8.52494 23.7608ZM5.7203 19.9486C5.7203 19.9486 5.73797 19.9309 5.75565 19.9309C5.75565 19.9309 5.76743 19.9368 5.76743 19.9427L7.16975 22.164C7.19921 22.217 7.24635 22.2406 7.30527 22.2406H8.05946C8.10071 22.2406 8.13606 22.2112 8.14195 22.1758L9.12004 18.5168C9.12004 18.5168 9.11415 18.4756 9.09058 18.4697C9.09058 18.4697 9.08469 18.4697 9.07879 18.4697L8.30104 18.4579C8.25979 18.4579 8.22444 18.4815 8.21855 18.5227C8.04178 19.2062 7.86502 19.8838 7.69415 20.5496C7.67647 20.6144 7.65291 20.6733 7.62934 20.7263C7.62345 20.744 7.59988 20.7499 7.58809 20.7381C7.58809 20.7381 7.57631 20.7322 7.57631 20.7263L6.22113 18.4461C6.22113 18.4461 6.17988 18.4049 6.15042 18.4049H5.20768C5.20768 18.4049 5.16055 18.4284 5.15466 18.452L4.18246 22.0167C4.17067 22.0639 4.20014 22.1169 4.24727 22.1287C4.25316 22.1287 4.26495 22.1287 4.27084 22.1287H5.03681C5.08984 22.1287 5.14287 22.0933 5.15466 22.0403L5.7203 19.9427V19.9486ZM17.8934 20.1784C17.6047 20.9208 17.7107 21.728 18.4531 22.1405C19.0011 22.4468 19.6198 22.4822 20.2443 22.4409C21.4758 22.3585 22.6071 21.6985 22.9134 20.4494C23.2257 19.1649 22.2241 18.5639 21.1164 18.505C19.7906 18.4343 18.3942 18.8939 17.8934 20.1725V20.1784ZM10.6873 21.6219C10.2926 21.4923 10.1924 21.1211 10.2926 20.744C10.4752 20.037 10.6638 19.3122 10.8641 18.5581C10.8641 18.5404 10.8641 18.5345 10.8464 18.5345H9.75049C9.71514 18.5345 9.68568 18.5522 9.6739 18.5875C9.48535 19.2946 9.30269 19.9839 9.13182 20.6556C8.89025 21.6043 9.4441 22.1758 10.3338 22.2878C10.9112 22.3644 11.4533 22.3172 11.9777 22.1581C12.5787 21.9696 12.9204 21.4216 13.0913 20.8383C13.2916 20.1371 13.5038 19.3947 13.7218 18.6111C13.7336 18.5757 13.7218 18.5581 13.6805 18.5581H12.6435C12.6141 18.5522 12.5964 18.5639 12.5905 18.5934C12.4196 19.2769 12.2487 19.925 12.0838 20.5378C12.0013 20.8501 11.9424 21.1683 11.742 21.3922C11.4828 21.6868 11.1351 21.7634 10.6991 21.6219H10.6873ZM15.7781 21.2684C15.7781 21.2684 15.7545 21.2861 15.7428 21.2743C15.7428 21.2743 15.731 21.2625 15.731 21.2566L15.1594 18.5757C15.1594 18.5757 15.1477 18.5581 15.1359 18.5522H13.9928C13.9928 18.5522 13.9692 18.5581 13.9692 18.5757L14.6527 22.2936C14.6527 22.2936 14.6645 22.3172 14.6763 22.3172H15.8783C15.8783 22.3172 15.896 22.3172 15.9018 22.3113L18.4649 18.6523C18.4649 18.6523 18.4649 18.6229 18.459 18.617C18.459 18.617 18.4472 18.617 18.4413 18.617H17.5457C17.5457 18.617 17.5281 18.6229 17.5222 18.6288L15.784 21.2625L15.7781 21.2684Z" fill="white"/>
<path d="M25.1053 19.3593H23.426C23.426 19.3593 23.3848 19.3475 23.3848 19.3239C23.3848 19.3239 23.3848 19.318 23.3848 19.3121L23.5262 18.7936C23.5262 18.7936 23.5497 18.7642 23.5674 18.7642H28.1809C28.1809 18.7642 28.2222 18.7818 28.2222 18.8054C28.2222 18.8054 28.2222 18.8172 28.2222 18.8231L27.9983 19.3652C27.9983 19.3652 27.9747 19.3887 27.9629 19.3887H26.3662C26.3662 19.3887 26.3308 19.4064 26.3249 19.4241L25.4647 22.3053C25.4647 22.3053 25.4411 22.3348 25.4234 22.3348H24.357C24.357 22.3348 24.3157 22.3171 24.3157 22.2935C24.3157 22.2935 24.3157 22.2876 24.3157 22.2817L25.1465 19.4123C25.1465 19.4123 25.1406 19.3652 25.117 19.3593C25.117 19.3593 25.1112 19.3593 25.1053 19.3593Z" fill="white"/>
<path d="M31.0389 21.9519L30.9328 22.3879C30.9328 22.3879 30.9092 22.4233 30.8916 22.4233H27.6863C27.6863 22.4233 27.645 22.4056 27.645 22.382C27.645 22.382 27.645 22.3761 27.645 22.3702L28.682 18.8644C28.682 18.8644 28.7056 18.835 28.7233 18.835H31.6752C31.6752 18.835 31.7165 18.8526 31.7165 18.8762C31.7165 18.8762 31.7165 18.8821 31.7165 18.888L31.6104 19.3888C31.6104 19.3888 31.5868 19.4242 31.5692 19.4242H29.5894C29.5894 19.4242 29.5541 19.4418 29.5482 19.4595L29.3066 20.361C29.3066 20.361 29.3125 20.4082 29.3361 20.414C29.3361 20.414 29.3419 20.414 29.3478 20.414H30.9269C30.9269 20.414 30.9682 20.4317 30.9682 20.4553C30.9682 20.4612 30.9682 20.4671 30.9682 20.473L30.8091 20.8324C30.8091 20.8324 30.7855 20.856 30.7678 20.856H29.2005C29.2005 20.856 29.1652 20.8736 29.1593 20.8913L28.9118 21.8576C28.9118 21.8576 28.9177 21.9047 28.9413 21.9106C28.9413 21.9106 28.9472 21.9106 28.9531 21.9106H30.9917C30.9917 21.9106 31.033 21.9283 31.033 21.9519C31.033 21.9519 31.033 21.9578 31.033 21.9637L31.0389 21.9519Z" fill="white"/>
<path d="M35.7997 19.6894C34.6036 19.2946 33.0186 19.2887 32.7122 20.8501C32.5708 21.5631 33.0776 21.8577 33.6785 21.9166C34.1146 21.9579 34.5918 21.9166 35.1162 21.7811C35.1869 21.7634 35.2164 21.7929 35.2105 21.8577L35.1634 22.3232C35.1634 22.3762 35.1162 22.4233 35.0632 22.4351C34.1087 22.6119 31.4749 22.8181 31.304 21.4158C31.2628 21.0858 31.3335 20.7441 31.4926 20.4554C32.017 19.4891 32.836 18.9765 33.9496 18.8999C34.5918 18.8586 35.2694 18.8586 35.9824 18.9058C36.0295 18.9058 36.0472 18.9293 36.0354 18.9765L35.8822 19.6364C35.8763 19.6717 35.8409 19.6894 35.8056 19.6835L35.7997 19.6894Z" fill="white"/>
<path d="M21.2158 21.2209C21.7473 20.6137 21.7952 19.7861 21.3226 19.3724C20.8501 18.9587 20.0361 19.1156 19.5045 19.7228C18.9729 20.33 18.9251 21.1576 19.3976 21.5713C19.8702 21.985 20.6842 21.8281 21.2158 21.2209Z" fill="white"/>
</g>
<circle cx="20" cy="20" r="19.5" stroke="black" stroke-opacity="0.05"/>
<defs>
<clipPath id="clip0_18553_55688">
<rect width="32" height="9.0267" fill="white" transform="translate(4.03516 15.8418)"/>
</clipPath>
</defs>
</svg>
