<svg width="40" height="40" viewBox="0 0 40 40" fill="none" xmlns="http://www.w3.org/2000/svg">
<circle cx="20" cy="20" r="20" fill="#005593"/>
<path d="M23.9918 19.9407C24.4304 20.1225 24.8838 20.3495 25.26 20.602C25.5246 20.7794 25.7405 21.0097 25.7957 21.3208C25.8464 21.607 25.763 21.8453 25.5456 22.0355C25.3501 22.2066 25.1161 22.3039 24.8435 22.3276C24.5563 22.3529 24.2678 22.3606 23.9796 22.3506C23.2658 22.3278 22.5626 22.1713 21.9064 21.8893C21.801 21.8441 21.6983 21.793 21.5987 21.7363C20.6349 21.1845 19.8411 20.3599 19.2777 19.4028C19.1364 19.163 19.015 18.9897 18.8335 18.8003C18.4217 18.3729 17.9497 18.0078 17.4325 17.7166C17.4308 17.7157 17.4295 17.7142 17.429 17.7123C17.4285 17.7105 17.4287 17.7085 17.4296 17.7068C17.4302 17.7057 17.4311 17.7048 17.4321 17.7041C17.7624 17.4997 18.0515 17.2936 18.3095 17.0224C18.7446 16.5658 19.0863 16.0528 19.271 15.4605C19.2782 15.4373 19.2837 15.4376 19.2879 15.4616C19.3838 16.1119 19.6172 16.6971 19.9879 17.2175C20.355 17.7383 20.8104 18.191 21.3334 18.555C21.9629 18.9909 22.6739 19.3687 23.3841 19.6811C23.5716 19.764 23.7741 19.8505 23.9918 19.9407Z" fill="#005593"/>
<path d="M19.7218 14.1037C19.7256 14.1186 19.7293 14.1186 19.7329 14.1037C19.9169 13.3301 20.3024 12.6426 20.8969 12.1104C21.5098 11.5611 22.2783 11.1929 23.0836 11.003C23.9331 10.8032 24.794 10.7711 25.6902 10.8311C26.1431 10.8599 26.5932 10.9222 27.037 11.0173C27.4612 11.1086 27.88 11.2232 28.2917 11.3605C28.5173 11.4362 28.7514 11.5251 28.9675 11.6357C29.2733 11.7916 29.573 11.9426 29.8665 12.0884C29.8685 12.0894 29.8701 12.0909 29.8713 12.0927C29.8724 12.0946 29.873 12.0967 29.873 12.0989V16.0075C29.873 16.0091 29.8724 16.0105 29.8713 16.0116C29.8702 16.0127 29.8687 16.0134 29.8672 16.0134C29.8659 16.0134 29.8646 16.013 29.8635 16.0122C29.7668 15.9427 29.6691 15.872 29.5702 15.7999C28.9607 15.3575 28.3089 14.9764 27.6244 14.6622C26.8716 14.3141 26.0746 14.1578 25.2337 14.1931C25.0566 14.1999 24.8814 14.2319 24.7133 14.288C24.4952 14.3613 24.3066 14.5253 24.2215 14.7368C24.0937 15.0532 24.1918 15.3665 24.4512 15.5826C24.6025 15.7046 24.7639 15.8136 24.9337 15.9083C25.2976 16.1175 25.6467 16.2817 26.0171 16.4593C26.7307 16.8017 27.4116 17.1571 28.0767 17.5556C28.6343 17.8898 29.1251 18.2637 29.5427 18.7336C29.7487 18.9656 29.915 19.1953 30.0417 19.4226C30.2983 19.8842 30.4312 20.4112 30.4688 20.9457C30.5457 22.0382 30.2904 23.1102 29.5987 23.9744C28.5095 25.3365 26.7169 25.8458 25.0362 25.861C24.9374 25.8618 24.8336 25.8594 24.7249 25.8539C24.4092 25.8377 24.1061 25.8211 23.8156 25.804C23.6352 25.791 23.4556 25.7682 23.2777 25.7357C22.5954 25.6178 21.921 25.4577 21.2586 25.2562C20.8991 25.1468 20.5543 25.0234 20.224 24.8858C20.0039 24.7913 19.7909 24.6809 19.5867 24.5557C19.388 24.4363 19.1987 24.3019 19.0205 24.1537C19.02 24.1531 19.0194 24.1526 19.0187 24.1523C19.0179 24.1521 19.0171 24.152 19.0164 24.1521C19.0156 24.1522 19.0149 24.1526 19.0143 24.1531C19.0137 24.1536 19.0132 24.1542 19.0129 24.1549C18.8231 24.4595 18.5315 24.7131 18.23 24.9004C17.7917 25.1728 17.3494 25.3797 16.9032 25.5212C16.1665 25.7566 15.3967 25.8718 14.6234 25.8621C13.8863 25.8526 13.1497 25.7611 12.3418 25.6055C11.7474 25.4903 11.1651 25.3194 10.6027 25.0951C10.2458 24.9536 9.8875 24.8012 9.52775 24.6379C9.52493 24.6369 9.52251 24.6349 9.52086 24.6324C9.51921 24.6299 9.51841 24.6269 9.51858 24.6239V20.7321C9.51858 20.7307 9.51916 20.7293 9.5202 20.7282C9.52124 20.7272 9.52264 20.7266 9.52411 20.7266C9.52537 20.7266 9.5266 20.7269 9.52759 20.7277C9.64814 20.8189 9.77554 20.916 9.9098 21.019C10.4238 21.4127 11.0058 21.654 11.6157 21.9207C12.2485 22.1972 12.9414 22.3262 13.6275 22.27C14.0439 22.236 14.4206 22.1143 14.7507 21.8661C14.9856 21.6929 15.1629 21.4532 15.2598 21.1779C15.3006 21.0611 15.31 20.9357 15.2872 20.8141C15.2239 20.4474 14.9782 20.1826 14.664 19.9924C14.4792 19.8816 14.2835 19.7902 14.0799 19.7195C13.8108 19.6224 13.5349 19.5452 13.2545 19.4887C13.1546 19.4694 12.9937 19.4533 12.772 19.4403C12.4072 19.4192 12.0645 19.4042 11.7437 19.3952C11.7426 19.3953 11.7415 19.3952 11.7404 19.3948C11.7394 19.3945 11.7384 19.3939 11.7377 19.3931C11.7369 19.3923 11.7363 19.3914 11.7359 19.3904C11.7356 19.3893 11.7355 19.3882 11.7356 19.3871V16.5633C11.7354 16.562 11.7355 16.5607 11.7359 16.5595C11.7363 16.5583 11.737 16.5572 11.7379 16.5564C11.7388 16.5555 11.7398 16.5548 11.741 16.5544C11.7422 16.554 11.7435 16.5539 11.7448 16.5541C12.2434 16.5533 12.7197 16.5362 13.1738 16.5027C13.7749 16.4582 14.4139 16.3128 14.8747 15.9031C15.1503 15.6579 15.3019 15.3282 15.1894 14.9597C15.1206 14.733 14.9572 14.5312 14.7798 14.3652C14.4063 14.0159 13.8846 13.9476 13.3877 13.9966C13.0995 14.0265 12.8139 14.0778 12.5334 14.1501C11.8553 14.3214 11.1775 14.581 10.5685 14.9292C10.5082 14.9637 10.4183 15.0187 10.2987 15.0942C10.1791 15.1697 10.0593 15.2441 9.93939 15.3174C9.93818 15.3181 9.93676 15.3183 9.93541 15.318C9.93406 15.3177 9.93288 15.3168 9.93211 15.3157C9.93188 15.3148 9.93188 15.3139 9.93211 15.313V12.0101C9.93192 12.0067 9.93285 12.0033 9.93476 12.0004C9.93667 11.9976 9.93946 11.9954 9.94271 11.9943C10.0003 11.9726 10.0572 11.9522 10.1129 11.9267C10.6433 11.6848 11.1884 11.4765 11.7449 11.303C12.5834 11.0418 13.4396 10.8625 14.3101 10.8095C14.639 10.7893 14.9689 10.7938 15.2971 10.8231C16.2075 10.905 17.046 11.1816 17.8125 11.6529C18.0798 11.8157 18.3319 12.0022 18.5659 12.2101C19.1456 12.7302 19.5309 13.3615 19.7218 14.1037ZM24.0677 20.0705C23.8641 19.9862 23.6742 19.9054 23.4982 19.8282C22.8338 19.5358 22.1693 19.1824 21.5796 18.7746C21.0908 18.4339 20.6652 18.0104 20.3222 17.5232C19.9752 17.0365 19.7569 16.4889 19.6672 15.8805C19.6639 15.858 19.6589 15.8577 19.6514 15.8794C19.4787 16.4331 19.1589 16.9129 18.7519 17.3407C18.5105 17.5938 18.24 17.7873 17.931 17.9785C17.9295 17.9795 17.9284 17.981 17.928 17.9827C17.9276 17.9845 17.9279 17.9863 17.9288 17.9878C17.9295 17.9888 17.9303 17.9896 17.9313 17.9902C18.4153 18.2626 18.8569 18.6042 19.2422 19.0041C19.4119 19.1813 19.5255 19.3435 19.6578 19.5678C20.1849 20.4627 20.9271 21.2343 21.8292 21.7509C21.9224 21.8041 22.0185 21.8519 22.1171 21.8941C22.731 22.158 23.389 22.3044 24.0568 22.3257C24.3264 22.3351 24.5963 22.3279 24.8651 22.3042C25.1201 22.2819 25.339 22.1908 25.5219 22.031C25.7253 21.853 25.8033 21.6301 25.7559 21.3622C25.7043 21.0712 25.5028 20.856 25.2547 20.6897C24.9022 20.4531 24.4781 20.2406 24.0677 20.0705Z" fill="white"/>
<path d="M17.0457 29.1746C17.0236 29.7283 16.7981 30.2205 16.2674 30.4432C16.1115 30.5067 15.9464 30.5446 15.7784 30.5557C15.5594 30.5752 15.3386 30.5579 15.1253 30.5043C14.2956 30.2868 14.0728 29.4697 14.192 28.7149C14.2671 28.2386 14.531 27.854 14.9978 27.6866C15.2967 27.5798 15.6465 27.5664 15.9594 27.62C16.0675 27.638 16.1732 27.6683 16.2745 27.7102C16.8758 27.9625 17.0704 28.5567 17.0457 29.1746ZM15.5142 28.1682C14.9937 28.2305 14.9202 28.885 14.9701 29.2914C15.0108 29.6211 15.1791 29.9636 15.5544 29.99C15.9584 30.0183 16.1723 29.7136 16.2315 29.3539C16.3109 28.8707 16.2068 28.0851 15.5142 28.1682Z" fill="white"/>
<path d="M10.6245 28.8C10.6245 28.8142 10.6288 28.8158 10.6372 28.8041L11.4914 27.6469C11.4926 27.6452 11.4942 27.6438 11.496 27.6428C11.4978 27.6419 11.4998 27.6414 11.5019 27.6415H12.4106C12.4113 27.6415 12.412 27.6416 12.4127 27.6419C12.4134 27.6422 12.414 27.6426 12.4145 27.6431C12.415 27.6436 12.4154 27.6442 12.4157 27.6449C12.416 27.6456 12.4161 27.6463 12.4161 27.647C12.4161 27.6483 12.4157 27.6495 12.4149 27.6505L11.3611 28.9753C11.3603 28.9762 11.3599 28.9774 11.3599 28.9787C11.3599 28.9799 11.3603 28.9811 11.3611 28.9821L12.4971 30.5041C12.4979 30.5052 12.4983 30.5067 12.4981 30.508C12.4979 30.5094 12.4971 30.5107 12.496 30.5115C12.4951 30.5123 12.494 30.5127 12.4928 30.5126H11.5307C11.5283 30.5126 11.5259 30.5121 11.5238 30.511C11.5217 30.5099 11.5199 30.5083 11.5185 30.5063L10.638 29.2216C10.6361 29.2189 10.6337 29.2167 10.631 29.2151C10.63 29.2145 10.6288 29.2143 10.6277 29.2146C10.6265 29.2149 10.6256 29.2157 10.625 29.2167C10.6247 29.2174 10.6247 29.2182 10.625 29.2189V30.5052C10.6251 30.5063 10.625 30.5073 10.6246 30.5084C10.6243 30.5094 10.6237 30.5103 10.6229 30.511C10.6222 30.5118 10.6213 30.5124 10.6202 30.5127C10.6192 30.513 10.6181 30.5131 10.6171 30.513H9.86515C9.86287 30.513 9.86068 30.5121 9.85905 30.5105C9.85742 30.5089 9.85649 30.5067 9.85645 30.5044V27.6459C9.85648 27.6447 9.85696 27.6436 9.85779 27.6428C9.85861 27.642 9.85971 27.6415 9.86088 27.6415H10.6112C10.6131 27.6412 10.615 27.6414 10.6167 27.642C10.6185 27.6426 10.6201 27.6436 10.6215 27.6449C10.6228 27.6462 10.6238 27.6478 10.6244 27.6496C10.625 27.6513 10.6252 27.6532 10.625 27.6551L10.6245 28.8Z" fill="white"/>
<path d="M20.6489 29.0875C20.6341 29.0913 20.6341 29.0954 20.6489 29.0998C20.7975 29.1447 20.866 29.2558 20.9179 29.3941C21.0564 29.7619 21.1911 30.1331 21.3222 30.5075C21.3238 30.5121 21.3222 30.5143 21.3175 30.5143H20.5316C20.529 30.5145 20.5265 30.5138 20.5245 30.5123C20.5224 30.5108 20.5209 30.5087 20.5203 30.5062C20.4642 30.3275 20.4055 30.1419 20.3442 29.9493C20.3059 29.8228 20.2557 29.7003 20.1941 29.5833C20.1197 29.4462 20.0025 29.3776 19.8428 29.3776C19.7851 29.3776 19.7271 29.3771 19.6687 29.3762C19.6676 29.376 19.6664 29.376 19.6652 29.3764C19.6641 29.3767 19.6631 29.3773 19.6622 29.3781C19.6614 29.379 19.6607 29.38 19.6604 29.3811C19.66 29.3822 19.6599 29.3834 19.66 29.3846V30.5034C19.66 30.5063 19.6589 30.5092 19.6567 30.5113C19.6546 30.5134 19.6518 30.5146 19.6488 30.5146H18.9053C18.9022 30.5146 18.8992 30.5134 18.897 30.5112C18.8948 30.509 18.8936 30.506 18.8936 30.5029V27.6475C18.8935 27.6467 18.8937 27.6459 18.894 27.6451C18.8943 27.6444 18.8947 27.6437 18.8953 27.6431C18.8959 27.6425 18.8966 27.6421 18.8973 27.6418C18.8981 27.6415 18.8989 27.6413 18.8997 27.6414C19.3623 27.6414 19.8256 27.6414 20.2897 27.6414C20.4597 27.6409 20.628 27.6759 20.7837 27.744C21.0905 27.8776 21.2128 28.1455 21.1841 28.4675C21.1555 28.794 20.9734 29.0043 20.6489 29.0875ZM20.23 28.2367C20.0592 28.1734 19.8548 28.1841 19.6687 28.187C19.6676 28.1869 19.6665 28.187 19.6655 28.1874C19.6644 28.1877 19.6635 28.1883 19.6627 28.1891C19.6619 28.1899 19.6613 28.1909 19.661 28.1919C19.6606 28.193 19.6605 28.1941 19.6607 28.1952V28.8231C19.6605 28.8243 19.6606 28.8254 19.661 28.8265C19.6613 28.8276 19.662 28.8286 19.6628 28.8294C19.6636 28.8302 19.6646 28.8308 19.6657 28.8312C19.6668 28.8315 19.6679 28.8317 19.6691 28.8315C19.8144 28.8334 19.9323 28.8327 20.0229 28.8294C20.2128 28.8225 20.4001 28.7557 20.4184 28.5412C20.4313 28.3894 20.3685 28.2879 20.23 28.2367Z" fill="white"/>
<path d="M23.848 28.1933V28.7698C23.848 28.7716 23.8487 28.7732 23.8499 28.7745C23.8511 28.7757 23.8528 28.7764 23.8546 28.7764H25.033C25.0339 28.7764 25.0348 28.7766 25.0356 28.7769C25.0364 28.7773 25.0371 28.7778 25.0377 28.7784C25.0383 28.779 25.0388 28.7797 25.0392 28.7805C25.0395 28.7813 25.0397 28.7822 25.0397 28.7831V29.3154C25.0397 29.3163 25.0395 29.3172 25.0392 29.318C25.0388 29.3188 25.0383 29.3195 25.0377 29.3201C25.0371 29.3207 25.0364 29.3212 25.0356 29.3216C25.0348 29.3219 25.0339 29.3221 25.033 29.3221H23.8546C23.8537 29.3221 23.8529 29.3222 23.8521 29.3226C23.8512 29.3229 23.8505 29.3234 23.8499 29.324C23.8493 29.3246 23.8488 29.3254 23.8485 29.3262C23.8481 29.327 23.848 29.3278 23.848 29.3287V29.9634C23.848 29.9652 23.8487 29.9669 23.8499 29.9681C23.8511 29.9694 23.8528 29.9701 23.8546 29.9701H25.1485C25.1494 29.9701 25.1502 29.9702 25.1511 29.9706C25.1519 29.9709 25.1526 29.9714 25.1532 29.972C25.1538 29.9726 25.1543 29.9734 25.1547 29.9742C25.155 29.975 25.1552 29.9758 25.1552 29.9767V30.5056C25.1552 30.5064 25.155 30.5073 25.1547 30.5081C25.1543 30.5089 25.1538 30.5096 25.1532 30.5103C25.1526 30.5109 25.1519 30.5114 25.1511 30.5117C25.1502 30.512 25.1494 30.5122 25.1485 30.5122H23.0857C23.0849 30.5122 23.084 30.512 23.0832 30.5117C23.0824 30.5114 23.0817 30.5109 23.081 30.5103C23.0804 30.5096 23.0799 30.5089 23.0796 30.5081C23.0793 30.5073 23.0791 30.5064 23.0791 30.5056V27.648C23.0791 27.6462 23.0798 27.6445 23.081 27.6433C23.0823 27.6421 23.084 27.6414 23.0857 27.6414H25.1017C25.1034 27.6414 25.1051 27.6421 25.1064 27.6433C25.1076 27.6445 25.1083 27.6462 25.1083 27.648V28.1802C25.1083 28.1819 25.1076 28.1836 25.1064 28.1849C25.1051 28.1861 25.1034 28.1868 25.1017 28.1868H23.8546C23.8528 28.1868 23.8511 28.1875 23.8499 28.1888C23.8487 28.19 23.848 28.1917 23.848 28.1935V28.1933Z" fill="white"/>
<path d="M28.9012 29.9016H27.8331C27.8318 29.9016 27.8306 29.902 27.8296 29.9027C27.8286 29.9034 27.8278 29.9044 27.8274 29.9056L27.6046 30.5077C27.6042 30.5088 27.6034 30.5098 27.6024 30.5105C27.6014 30.5112 27.6002 30.5116 27.5989 30.5116H26.8306C26.8295 30.5117 26.8285 30.5115 26.8276 30.511C26.8267 30.5106 26.8259 30.5099 26.8253 30.5091C26.8247 30.5082 26.8244 30.5073 26.8242 30.5062C26.8241 30.5052 26.8243 30.5042 26.8247 30.5032L27.912 27.6446C27.9125 27.6434 27.9133 27.6424 27.9143 27.6417C27.9154 27.641 27.9166 27.6406 27.9179 27.6406H28.8512C28.8525 27.6406 28.8537 27.641 28.8548 27.6417C28.8558 27.6424 28.8566 27.6434 28.8571 27.6446L29.9598 30.5034C29.9601 30.5042 29.9602 30.505 29.9602 30.5058C29.9602 30.5066 29.96 30.5074 29.9597 30.5081C29.9594 30.5088 29.9589 30.5095 29.9583 30.5101C29.9577 30.5106 29.957 30.511 29.9563 30.5113H29.9539H29.124C29.1227 30.5113 29.1214 30.5109 29.1204 30.5102C29.1194 30.5095 29.1186 30.5084 29.1181 30.5072L28.9076 29.906C28.9072 29.9047 28.9063 29.9035 28.9052 29.9027C28.904 29.9019 28.9026 29.9015 28.9012 29.9016ZM28.0093 29.3497C28.0091 29.3503 28.009 29.3509 28.009 29.3516C28.0091 29.3523 28.0092 29.3529 28.0095 29.3535C28.0098 29.3541 28.0103 29.3546 28.0108 29.355C28.0113 29.3555 28.0118 29.3558 28.0125 29.356H28.0141H28.7171C28.7178 29.356 28.7184 29.3558 28.719 29.3556C28.7197 29.3553 28.7202 29.3549 28.7207 29.3544C28.7211 29.3539 28.7215 29.3534 28.7217 29.3527C28.7219 29.3521 28.722 29.3514 28.722 29.3508C28.7221 29.3503 28.7221 29.3499 28.722 29.3495L28.3847 28.2407C28.3845 28.24 28.3842 28.2394 28.3838 28.2389C28.3834 28.2384 28.3829 28.238 28.3823 28.2376C28.3817 28.2373 28.381 28.2371 28.3804 28.2371C28.3797 28.237 28.379 28.2371 28.3784 28.2374C28.3776 28.2375 28.3769 28.2379 28.3763 28.2385C28.3757 28.239 28.3753 28.2397 28.3751 28.2405L28.0093 29.3497Z" fill="white"/>
<path d="M14.9702 29.2924C14.9202 28.8853 14.9938 28.2309 15.5143 28.1692C16.2069 28.0861 16.311 28.8716 16.2316 29.3557C16.1724 29.7154 15.9585 30.0201 15.5545 29.9918C15.1792 29.9646 15.0109 29.6221 14.9702 29.2924Z" fill="#005593"/>
<path d="M20.2307 28.2363C20.3692 28.2877 20.432 28.3891 20.419 28.5403C20.4006 28.7549 20.2133 28.8216 20.0235 28.8286C19.933 28.8319 19.815 28.8326 19.6696 28.8306C19.6684 28.8308 19.6673 28.8307 19.6662 28.8303C19.6651 28.8299 19.6641 28.8293 19.6633 28.8285C19.6625 28.8277 19.6619 28.8267 19.6615 28.8256C19.6612 28.8245 19.661 28.8234 19.6612 28.8222V28.1948C19.6611 28.1937 19.6612 28.1926 19.6615 28.1915C19.6618 28.1905 19.6624 28.1895 19.6632 28.1887C19.664 28.1879 19.6649 28.1873 19.666 28.187C19.667 28.1866 19.6682 28.1865 19.6693 28.1866C19.8555 28.1838 20.0599 28.1728 20.2307 28.2363Z" fill="#005593"/>
<path d="M28.0091 29.3494L28.3747 28.2406C28.375 28.2396 28.3757 28.2387 28.3765 28.238C28.3774 28.2374 28.3785 28.2371 28.3795 28.2371C28.3806 28.2371 28.3817 28.2374 28.3825 28.238C28.3834 28.2387 28.384 28.2396 28.3844 28.2406L28.7216 29.3494C28.7218 29.3501 28.7219 29.3507 28.7218 29.3514C28.7218 29.3521 28.7215 29.3527 28.7212 29.3533C28.7209 29.3539 28.7205 29.3544 28.7199 29.3548C28.7194 29.3553 28.7188 29.3556 28.7182 29.3557H28.0139C28.0125 29.3557 28.0112 29.3552 28.0103 29.3543C28.0093 29.3533 28.0088 29.352 28.0088 29.3507C28.0088 29.3502 28.0089 29.3498 28.0091 29.3494Z" fill="#005593"/>
<circle cx="20" cy="20" r="19.5" stroke="black" stroke-opacity="0.05"/>
</svg>
