<svg width="40" height="40" viewBox="0 0 40 40" fill="none" xmlns="http://www.w3.org/2000/svg">
<circle cx="20" cy="20" r="20" fill="#2B365B"/>
<g clip-path="url(#clip0_24563_42809)">
<path d="M25.9929 27.2045C25.9325 27.2724 25.8645 27.3477 25.7815 27.4155C24.1585 28.8098 22.294 29.5786 20.1955 29.7218C17.9309 29.8725 15.855 29.2846 13.9678 27.9431C10.888 25.7424 9.38578 21.7404 10.2992 18.055C10.8351 15.8844 11.975 14.1208 13.7036 12.7567C14.3679 12.2367 15.1077 11.8071 15.9305 11.4754C16.7608 11.1363 17.5912 10.9102 18.4064 10.7896C18.8745 10.7218 19.4482 10.7142 20.12 10.7595C23.3584 10.9931 26.0985 12.719 27.7517 15.4699C28.733 17.1054 29.1406 19.0347 29.0123 20.9792C28.8764 22.9538 28.1367 24.74 26.793 26.3303C26.6345 26.5187 26.4382 26.7523 26.2042 27.0236C26.174 27.0613 26.1363 27.0839 26.0985 27.1065C26.0608 27.1216 26.023 27.1518 25.9929 27.1894V27.2045ZM24.7624 27.1141C25.789 26.1268 26.5213 24.936 26.9742 23.5417C28.1367 19.9316 27.3894 15.6357 24.4378 13.0883C23.4037 12.199 22.1581 11.7015 20.7088 11.6111C20.6635 11.6111 20.6333 11.6186 20.6031 11.6563C20.5805 11.6789 20.5729 11.7091 20.5805 11.7468C20.5956 11.7995 20.6333 11.8372 20.6937 11.8523C22.7394 12.3271 24.3699 13.8947 25.2606 15.7638C26.5288 18.4167 26.642 21.1676 25.6003 24.009C25.4343 24.4536 25.1927 24.9435 24.8681 25.4711C23.9321 27.001 22.445 28.2898 20.6937 28.6591C20.6333 28.6742 20.588 28.7269 20.588 28.7872V28.8249C20.588 28.8249 20.6107 28.8852 20.6408 28.8852C22.2336 28.8249 23.6075 28.237 24.7624 27.1216V27.1141ZM24.8983 17.8967C24.1057 14.7916 21.6675 12.3045 18.3536 12.199C18.3159 12.199 18.2932 12.214 18.2932 12.2517V12.2894C18.2857 12.3497 18.3159 12.3874 18.3762 12.4025C21.1768 13.0054 23.1093 15.4096 23.7584 18.1303C24.2718 20.2858 24.0302 22.366 23.0262 24.3632C22.0902 26.2248 20.4144 27.6643 18.331 28.1165C18.3008 28.1165 18.2857 28.1466 18.2857 28.1768V28.222C18.2857 28.2823 18.3234 28.32 18.3838 28.3124C21.0636 28.1994 23.2074 26.579 24.3397 24.1748C25.2757 22.1851 25.472 20.0899 24.9134 17.8967H24.8983ZM21.2145 22.999C20.3842 25.3203 18.4517 27.0538 16.0211 27.5587C15.9682 27.5663 15.9607 27.5964 15.9909 27.6416L16.0135 27.6793C16.0513 27.7396 16.1041 27.7622 16.172 27.7547C18.4366 27.5814 20.203 26.6016 21.4788 24.8229C22.5205 23.3608 22.9885 21.6877 22.8979 19.7884C22.7167 16.118 19.9162 12.832 16.0739 12.7868C16.0286 12.7868 15.9909 12.8245 15.9909 12.8622C15.9909 12.8622 15.9909 12.8697 15.9909 12.8773C15.9984 12.93 16.0286 12.9602 16.0815 12.9677C18.3159 13.4124 20.1502 15.0102 21.0485 17.0752C21.8864 19.0121 21.9392 20.9868 21.2221 22.999H21.2145ZM20.3012 18.1906C19.4557 15.3945 16.7533 13.4124 13.764 14.0304C13.7112 14.0379 13.6885 14.0756 13.6885 14.1284V26.3755C13.6885 26.4207 13.7263 26.4659 13.7716 26.4735C16.5948 27.0161 19.1085 25.3806 20.1351 22.7729C20.7163 21.2882 20.7767 19.7658 20.3012 18.1906Z" fill="white"/>
</g>
<circle cx="20" cy="20" r="19.5" stroke="black" stroke-opacity="0.05"/>
<defs>
<clipPath id="clip0_24563_42809">
<rect width="19" height="19" fill="white" transform="translate(10.0352 10.7368)"/>
</clipPath>
</defs>
</svg>
