<svg width="40" height="40" viewBox="0 0 40 40" fill="none" xmlns="http://www.w3.org/2000/svg">
<circle cx="20" cy="20" r="20" fill="#D2B348"/>
<g clip-path="url(#clip0_18553_55643)">
<path d="M18.8887 24.1469C18.0184 23.8664 17.1796 23.1531 16.6574 22.3595C16.0006 21.3496 15.7633 20.0351 15.9136 18.8168C16.056 17.6225 16.3805 16.5084 16.8631 15.4905C17.9867 13.158 19.4743 11.2824 21.7452 10.1282C21.9984 10 22.2674 9.96794 22.5444 10.0321C23.7392 10.3046 24.8469 10.7534 25.8518 11.3866C28.2177 12.8615 30.0376 15.5065 30.6706 18.1515C31.1612 20.2195 31.082 22.3115 30.2591 24.2511C30.1958 24.3954 30.0613 24.4916 29.9031 24.4836C26.9358 24.4676 23.9686 24.4595 20.9935 24.4676C20.226 24.4676 19.6009 24.3794 18.8967 24.1469H18.8887ZM23.8895 20.5C23.8895 18.6164 22.3782 17.0855 20.5187 17.0855C18.6593 17.0855 17.148 18.6164 17.148 20.5C17.148 22.3836 18.6593 23.9145 20.5187 23.9145C22.3782 23.9145 23.8895 22.3836 23.8895 20.5Z" fill="white"/>
<path d="M16.5624 10.9377C13.7693 14.6248 12.5745 20.5801 16.2301 24.0507C17.2429 25.0125 18.5247 25.5015 20.0677 25.5095C23.0824 25.5255 26.2237 25.5175 29.4995 25.4935C29.5945 25.4935 29.6578 25.5416 29.6736 25.6377C29.6894 25.7179 29.6736 25.79 29.6261 25.8541C28.2256 27.882 26.4452 29.3488 24.2614 30.2625C21.7689 31.3045 18.8333 31.2324 16.3646 30.1343C15.6525 29.8217 14.9087 29.3728 14.1412 28.8118C11.9336 27.1847 10.5963 25.0366 10.1137 22.3595C9.54397 19.2015 10.6676 15.6427 12.6773 13.3183C13.4844 12.3885 14.252 11.7152 14.9878 11.2904C15.5101 10.9938 16.0402 10.7053 16.5703 10.4328C16.6257 10.4087 16.689 10.4328 16.7207 10.4809C16.7286 10.5049 16.7365 10.529 16.7286 10.545C16.7128 10.6732 16.6495 10.8015 16.5624 10.9297V10.9377Z" fill="white"/>
</g>
<circle cx="20" cy="20" r="19.5" stroke="black" stroke-opacity="0.05"/>
<defs>
<clipPath id="clip0_18553_55643">
<rect width="21" height="21" fill="white" transform="translate(9.96289 10)"/>
</clipPath>
</defs>
</svg>
