<svg width="40" height="40" viewBox="0 0 40 40" fill="none" xmlns="http://www.w3.org/2000/svg">
<circle cx="20" cy="20" r="20" fill="#A58242"/>
<g clip-path="url(#clip0_14382_21893)">
<path d="M14.4016 22.9444C14.6236 22.8721 14.6233 22.8721 14.694 23.082C14.7861 23.3551 14.8763 23.6288 14.9721 23.9005C14.9963 23.9693 14.9979 24.0042 14.9171 24.0309C14.299 24.2311 13.6769 24.3929 13.0178 24.2974C12.4702 24.2179 12.0172 24.0006 11.7955 23.4514C11.7053 23.2277 11.6734 22.992 11.6731 22.7525C11.6731 21.7301 11.6704 20.7077 11.6759 19.6856C11.6759 19.5608 11.6396 19.5327 11.5218 19.5368C11.2655 19.5456 11.0083 19.5368 10.7517 19.5412C10.6604 19.5432 10.6227 19.5236 10.6246 19.4224C10.6309 19.1017 10.6315 18.7805 10.6246 18.4597C10.6221 18.3519 10.6609 18.3291 10.7597 18.3316C11.0254 18.3373 11.2916 18.3302 11.5573 18.3351C11.6473 18.3368 11.6748 18.3076 11.6739 18.2183C11.6701 17.7735 11.6756 17.3287 11.6701 16.8843C11.6687 16.78 11.6998 16.7531 11.8021 16.7547C12.1826 16.7608 12.5631 16.7608 12.9436 16.7547C13.0382 16.7533 13.0682 16.777 13.0668 16.8755C13.0613 17.3062 13.0723 17.7375 13.0602 18.1682C13.0561 18.3159 13.105 18.3393 13.2362 18.3362C13.6029 18.3277 13.9698 18.3362 14.3364 18.3316C14.425 18.3316 14.4676 18.3453 14.4654 18.4496C14.4588 18.775 14.4599 19.1006 14.4654 19.426C14.4668 19.5157 14.4409 19.5426 14.3496 19.5412C13.9646 19.5363 13.5795 19.5412 13.1944 19.5368C13.0962 19.5355 13.0613 19.5547 13.0618 19.6628C13.0662 20.6392 13.064 21.6157 13.0649 22.5918C13.0649 22.9329 13.2299 23.0932 13.5726 23.0979C13.8548 23.1026 14.1233 23.0275 14.4016 22.9444Z" fill="white"/>
<path d="M19.7331 19.4167C19.6841 19.5267 19.6852 19.678 19.5955 19.7129C19.5204 19.7423 19.403 19.6617 19.3026 19.629C18.9758 19.5212 18.6447 19.4365 18.2981 19.4208C17.5731 19.3875 17.0175 19.7176 16.7455 20.3892C16.4822 21.0386 16.5141 21.6845 16.8984 22.2824C17.2892 22.8908 17.8751 23.0938 18.5729 23.0196C18.8975 22.9852 19.2105 22.8961 19.5152 22.7819C19.5977 22.7506 19.6335 22.7621 19.664 22.8485C19.7694 23.1458 19.8841 23.4404 19.9941 23.7358C20.0153 23.7927 20.0417 23.8392 19.9539 23.8758C18.9428 24.2966 17.9169 24.4066 16.8822 23.9842C15.7355 23.5166 15.0748 22.4565 15.0993 21.1773C15.115 20.3477 15.3595 19.6111 15.9657 19.0192C16.4608 18.5349 17.0642 18.284 17.7475 18.2243C18.4997 18.1583 19.2242 18.2832 19.9239 18.5659C20.0161 18.6033 20.0276 18.6383 19.9927 18.7255C19.9019 18.9505 19.8216 19.1796 19.7331 19.4167Z" fill="white"/>
<path d="M8.35451 24.2401C7.60445 24.2726 6.9072 24.138 6.28668 23.7211C5.40652 23.1294 5.00083 22.2861 5 21.2352C5 20.3792 5.24507 19.6226 5.87191 19.0122C6.367 18.5312 6.96551 18.2858 7.64241 18.2242C8.38504 18.1568 9.10017 18.2825 9.79385 18.5543C9.89782 18.5947 9.93137 18.6324 9.88269 18.7493C9.76359 19.0364 9.65825 19.3299 9.55703 19.6239C9.52403 19.7196 9.49157 19.74 9.39365 19.7023C8.9731 19.5403 8.5432 19.4182 8.08634 19.4201C7.4408 19.4229 6.97789 19.7196 6.68771 20.2901C6.31144 21.03 6.45887 22.0075 7.02987 22.573C7.43254 22.9713 7.92846 23.0797 8.47251 23.0219C8.79707 22.9872 9.10952 22.8967 9.41428 22.7832C9.4968 22.7521 9.53448 22.7631 9.56501 22.8497C9.67008 23.1476 9.779 23.4441 9.89507 23.7379C9.9289 23.8234 9.90635 23.8547 9.82823 23.8872C9.36018 24.0864 8.86203 24.2057 8.35451 24.2401Z" fill="white"/>
<path d="M26.0709 16.1315L25.4224 15.6617C25.4243 15.6526 25.4262 15.6435 25.4279 15.6342H25.5571C26.0247 15.6342 26.4923 15.6303 26.9599 15.6372C27.0699 15.6388 27.1147 15.6097 27.1489 15.4997C27.3065 14.9985 27.4767 14.5012 27.6439 13.9993C27.7083 14.0292 27.7047 14.087 27.719 14.1296C27.8717 14.5848 28.0235 15.0403 28.1687 15.498C28.1998 15.5962 28.2436 15.6325 28.3503 15.6314C28.8267 15.6265 29.303 15.6314 29.7805 15.6331C29.8292 15.6298 29.878 15.6393 29.9219 15.6606C29.8002 15.7523 29.6784 15.8447 29.5566 15.9378C29.2568 16.1642 28.959 16.3928 28.6561 16.615C28.5802 16.67 28.5681 16.7209 28.5975 16.81C28.7458 17.257 28.8861 17.7067 29.0288 18.1556C29.0507 18.2125 29.0595 18.2736 29.0544 18.3343C28.8696 18.201 28.6849 18.0676 28.5004 17.9341C28.2557 17.757 28.0089 17.5823 27.7677 17.4003C27.6904 17.342 27.6376 17.337 27.5551 17.3986C27.17 17.6855 26.7778 17.9641 26.3881 18.2455C26.3551 18.2694 26.3207 18.2917 26.2855 18.3154C26.25 18.276 26.28 18.2449 26.2896 18.2141C26.4453 17.7311 26.5988 17.2476 26.7599 16.7665C26.7905 16.6758 26.7712 16.6274 26.6958 16.5757C26.486 16.4335 26.2835 16.2841 26.0709 16.1315Z" fill="white"/>
<path d="M28.3665 20.53C28.3665 21.6528 28.3646 22.7615 28.3695 23.8705C28.3695 23.9879 28.3332 24.06 28.232 24.1117C27.8494 24.3095 27.4701 24.3117 27.0913 24.1018C27.0069 24.055 26.9725 23.9948 26.9728 23.8933C26.9767 22.523 26.9767 21.1529 26.9728 19.783C26.9698 19.745 26.9777 19.7069 26.9956 19.6733C27.0136 19.6396 27.0408 19.6118 27.074 19.5932C27.2537 19.4764 27.4637 19.4151 27.678 19.417C27.8923 19.4189 28.1012 19.4839 28.2787 19.6039C28.3079 19.6211 28.3317 19.6461 28.3473 19.6762C28.3629 19.7063 28.3696 19.7401 28.3668 19.7739C28.3637 20.0214 28.3665 20.2687 28.3665 20.53Z" fill="white"/>
<path d="M26.0345 20.3745C25.9118 19.7419 25.6439 19.1739 25.1301 18.7685C24.2662 18.0866 23.3107 18.0621 22.3178 18.4477C22.1695 18.5052 22.172 18.5121 22.172 18.3581C22.172 17.4919 22.17 16.6253 22.1742 15.76C22.1742 15.6571 22.1467 15.6293 22.0444 15.6312C21.6732 15.6378 21.3021 15.6378 20.9309 15.6312C20.8193 15.629 20.7843 15.6549 20.7852 15.7723C20.7909 16.51 20.7882 17.248 20.7885 18.0002C20.7885 19.9201 20.7885 21.8265 20.7885 23.7326C20.7885 23.8065 20.7819 23.8684 20.8801 23.902C21.7643 24.2045 22.6715 24.3517 23.5956 24.1817C24.714 23.976 25.5262 23.3486 25.9424 22.2709C26.1795 21.6546 26.1583 21.0115 26.0345 20.3745ZM24.3699 22.1527C24.1083 22.7234 23.6619 23.0207 23.0293 23.0328C22.7727 23.04 22.5164 23.0103 22.2682 22.9445C22.1984 22.9253 22.1681 22.8972 22.1684 22.8131C22.1732 21.8189 22.1732 20.8245 22.1684 19.8299C22.1684 19.7232 22.2017 19.6635 22.2922 19.6129C22.5257 19.4819 22.7782 19.4302 23.0535 19.4132C23.8844 19.4156 24.4194 19.9102 24.5311 20.767C24.5935 21.2434 24.5729 21.7126 24.3699 22.1527Z" fill="white"/>
<path d="M34.954 20.6537C34.8102 19.7034 34.3349 18.969 33.4754 18.513C32.9412 18.2297 32.3595 18.1714 31.7659 18.2214C31.0112 18.2853 30.3755 18.5889 29.8827 19.1748C29.4239 19.7199 29.2203 20.3575 29.1934 21.06C29.1659 21.7371 29.2792 22.386 29.6549 22.9644C30.3599 24.0495 31.4702 24.385 32.6568 24.1983C33.6957 24.0346 34.388 23.4215 34.7895 22.4501C35.0055 21.859 35.0456 21.2591 34.954 20.6537ZM33.2699 22.2468C32.947 23.0134 32.2473 23.1732 31.6174 22.9619C31.3038 22.8571 31.0898 22.6255 30.9614 22.3326C30.644 21.6092 30.6423 20.8721 30.9545 20.1493C31.1696 19.6517 31.5709 19.4086 32.1205 19.4179C32.67 19.4273 33.0281 19.7073 33.2512 20.1881C33.3234 20.3457 33.3747 20.5122 33.4038 20.6831C33.4842 21.2233 33.4809 21.7459 33.2699 22.2468Z" fill="white"/>
</g>
<circle cx="20" cy="20" r="19.5" stroke="black" stroke-opacity="0.05"/>
<defs>
<clipPath id="clip0_14382_21893">
<rect width="30" height="10.3259" fill="white" transform="translate(5 14)"/>
</clipPath>
</defs>
</svg>
