<svg width="40" height="40" viewBox="0 0 40 40" fill="none" xmlns="http://www.w3.org/2000/svg">
<circle cx="20" cy="20" r="20" fill="#189143"/>
<path d="M16.1073 19.4051C15.6844 22.1141 14.6574 24.1994 12.6753 25.7663C12.2485 26.1035 11.7847 25.8755 11.3695 25.7722C8.59233 25.0881 6.79543 22.4941 7.01955 19.5474C7.22419 16.8617 9.46349 14.6049 12.2115 14.3184C12.3713 14.3009 12.533 14.295 12.7961 14.2775C13.3847 11.9057 14.6437 9.98598 16.8986 8.82832C18.3954 8.06045 19.9759 7.85776 21.6267 8.09163C25.0412 8.57691 27.146 10.9741 28.1185 15.5189C28.5063 15.6047 28.9195 15.671 29.3171 15.7898C31.8273 16.548 33.3163 18.949 32.944 21.6171C32.6166 23.9655 30.465 25.8638 28.0191 25.9749C27.6449 25.9924 27.3312 25.9067 27.031 25.663C25.3959 24.3378 24.0531 22.7748 22.9987 20.7966C24.6962 19.8046 26.3859 18.8165 28.1458 17.7875C27.5241 17.0157 26.7582 16.4603 26.0156 15.7684C24.9145 17.2905 23.6984 18.5826 22.2991 19.6916C20.8452 18.6509 20.7945 17.1502 20.9601 15.4897C19.8395 15.4897 18.8105 15.5092 17.7815 15.4839C17.0272 15.4644 16.2516 15.6534 15.5441 15.1253C15.2206 14.8836 14.7801 15.0356 14.519 15.4059C14.291 15.7294 14.2812 16.0939 14.4936 16.4154C14.7002 16.7253 15.053 16.9845 15.4057 16.7955C16.5205 16.1952 17.6918 16.6045 18.9294 16.4447C19.0989 19.6506 18.7988 22.7631 18.4831 25.93H21.4181C21.5974 24.7685 21.1141 23.6342 21.2817 22.3401C22.4355 23.6225 23.5191 24.825 24.7371 25.9866H21.6208C21.6929 27.7406 22.2854 29.2744 22.8564 30.8647H17.1422C17.7094 29.2919 18.3155 27.7601 18.3525 26.0314H14.7217C17.1383 23.9675 18.4772 21.5937 18.7969 18.5378C17.1442 18.5378 15.5636 18.5378 13.983 18.5378C13.564 18.5378 13.1625 18.5515 12.7747 18.2864C12.344 17.9902 11.8879 18.0857 11.58 18.5203C11.3306 18.8711 11.3461 19.2706 11.6326 19.6C11.9464 19.9586 12.3479 20.0424 12.7689 19.7851C13.7784 19.1712 14.862 19.7169 16.1054 19.409L16.1073 19.4051ZM23.3768 13.266C21.4708 12.5683 19.6115 12.1746 17.7327 11.853C17.1169 11.7478 16.9746 12.1103 16.8908 12.6384C18.8105 13.1549 20.5255 14.0261 22.2367 14.9849C22.6245 14.4003 22.9617 13.8935 23.3768 13.266Z" fill="white"/>
<path d="M23.3766 13.2661C22.9595 13.8937 22.6243 14.4004 22.2365 14.9851C20.5254 14.0282 18.8103 13.157 16.8906 12.6386C16.9744 12.1104 17.1167 11.7479 17.7326 11.8532C19.6113 12.1747 21.4706 12.5665 23.3766 13.2661Z" fill="#FEFEFE"/>
<circle cx="20" cy="20" r="19.5" stroke="black" stroke-opacity="0.05"/>
</svg>
