<svg width="40" height="40" viewBox="0 0 40 40" fill="none" xmlns="http://www.w3.org/2000/svg">
<circle cx="20" cy="20" r="20" fill="#0059A9"/>
<path d="M35 20.308C35 22.6874 28.2844 24.6161 20 24.6161C11.7156 24.6161 5 22.6874 5 20.308C5 17.9286 11.7156 16 20 16C28.2844 16 35 17.9286 35 20.308ZM11.6721 20.6011C11.6721 20.5898 11.6815 20.5804 11.6929 20.5804L14.3001 20.5789C14.3283 20.5789 14.3481 20.5917 14.3604 20.6169L14.8502 21.6406C14.8611 21.6633 14.8838 21.6776 14.9091 21.6771L15.9253 21.6702C15.9381 21.6702 15.9485 21.6598 15.9485 21.647C15.9485 21.6435 15.9475 21.6401 15.946 21.6366L15.4246 20.5982C15.4102 20.569 15.4221 20.5339 15.4513 20.5191C15.4523 20.5191 15.4532 20.5181 15.4537 20.5181C15.6984 20.4128 15.8556 20.2393 15.9243 19.9981C16.0686 19.491 15.6959 18.9641 15.1888 18.9646C13.6576 18.9671 12.1362 18.9666 10.6252 18.9636C10.606 18.9636 10.5906 18.9789 10.5906 18.9982C10.5906 18.9982 10.5906 18.9982 10.5906 18.9987V19.4712C10.5906 19.4994 10.605 19.5137 10.6332 19.5137C11.9207 19.5137 13.3343 19.5132 14.8745 19.5132C15.1493 19.5132 15.2284 19.8914 14.9931 19.9957C14.9392 20.0194 14.8507 20.0312 14.7267 20.0317C13.3353 20.0332 11.9652 20.0327 10.6164 20.0298C10.6025 20.0298 10.5911 20.0411 10.5911 20.0555L10.5902 21.644C10.5902 21.6608 10.6035 21.6742 10.6203 21.6742L11.64 21.6732C11.6617 21.6732 11.6726 21.6618 11.6726 21.6401V20.6011H11.6721ZM22.9196 18.9814C22.9196 18.9725 22.9127 18.9656 22.9038 18.9656H17.5875C17.5786 18.9656 17.5717 18.9725 17.5717 18.9814V19.4974C17.5717 19.5063 17.5786 19.5132 17.5875 19.5132H22.9038C22.9127 19.5132 22.9196 19.5063 22.9196 19.4974V18.9814ZM26.3059 19.5157C26.4526 19.5167 26.6197 19.6185 26.6237 19.7797C26.6281 19.9734 26.6306 20.1657 26.6301 20.357C26.6296 20.7746 26.6716 21.175 26.6518 21.5991C26.6508 21.6198 26.6672 21.6376 26.6879 21.6386C26.6884 21.6386 26.6889 21.6386 26.6894 21.6386L27.6853 21.6435C27.7219 21.6435 27.7402 21.6252 27.7402 21.5887C27.7427 21.0806 27.7432 20.5077 27.7412 19.8706C27.7407 19.6393 27.848 19.5216 28.0635 19.5172C28.5587 19.5068 29.1518 19.5073 29.8423 19.5177C29.8646 19.5177 29.8759 19.5068 29.8759 19.4841V18.9967C29.8764 18.9755 29.8656 18.9646 29.8443 18.9646L24.528 18.9656C24.5112 18.9656 24.4973 18.9789 24.4973 18.9957L24.5023 19.4871C24.5023 19.5053 24.5117 19.5142 24.53 19.5142C25.1527 19.5128 25.7449 19.5132 26.3059 19.5157ZM22.8994 20.0263C21.3271 20.0342 19.7672 20.0352 18.2201 20.0298C17.9508 20.0288 17.7629 20.0757 17.6255 20.3041C17.5865 20.3688 17.5682 20.4533 17.5702 20.5581C17.5766 20.9298 17.5746 21.2887 17.5643 21.6346C17.5638 21.6598 17.5756 21.6722 17.6008 21.6722L18.5943 21.6742C18.6215 21.6742 18.6348 21.6608 18.6338 21.6332C18.6245 21.3944 18.6245 21.169 18.6334 20.957C18.6442 20.7064 18.7619 20.5809 18.9868 20.5809C20.2887 20.5799 21.5905 20.5799 22.8929 20.5809C22.9033 20.5809 22.9093 20.5754 22.9107 20.565C22.929 20.3891 22.927 20.2112 22.9053 20.0317C22.9053 20.0283 22.9028 20.0263 22.8994 20.0263Z" fill="white"/>
<circle cx="20" cy="20" r="19.5" stroke="black" stroke-opacity="0.05"/>
</svg>
