<svg width="40" height="40" viewBox="0 0 40 40" fill="none" xmlns="http://www.w3.org/2000/svg">
<circle cx="20" cy="20" r="20" fill="#F6F8FA"/>
<g clip-path="url(#clip0_39193_75820)">
<mask id="mask0_39193_75820" style="mask-type:luminance" maskUnits="userSpaceOnUse" x="4" y="17" width="32" height="6">
<path d="M36 17.5H4V22.5H36V17.5Z" fill="white"/>
</mask>
<g mask="url(#mask0_39193_75820)">
<mask id="mask1_39193_75820" style="mask-type:luminance" maskUnits="userSpaceOnUse" x="4" y="17" width="32" height="6">
<path d="M36 17.5H4V22.5H36V17.5Z" fill="white"/>
</mask>
<g mask="url(#mask1_39193_75820)">
<path d="M33.4306 18.1419C33.2159 17.748 32.7902 17.5 32.3237 17.5C31.8572 17.5 31.4294 17.748 31.2165 18.1419C30.4279 19.5946 29.6412 21.0473 28.8525 22.5018H30.2113C30.4669 22.0445 30.7205 21.5855 30.9759 21.1282H33.6713C33.9269 21.5855 34.1805 22.0445 34.4359 22.5018H35.7949C35.0062 21.0491 34.2193 19.5946 33.4306 18.1419ZM31.5424 20.0079L32.3237 18.6027L33.105 20.0079H31.5424Z" fill="#B32D26"/>
<path d="M5.8271 20.5725C5.3976 20.5725 4.98662 20.4107 4.68301 20.1222C4.38125 19.8338 4.21094 19.4434 4.21094 19.0353C4.21094 18.6291 4.38125 18.2387 4.68486 17.9502C4.98847 17.6618 5.39945 17.5 5.8271 17.5H11.766V18.6432H5.52534V19.4293H10.6422C11.0717 19.4293 11.4827 19.5911 11.7863 19.8795C12.0899 20.168 12.2603 20.5584 12.2603 20.9664C12.2603 21.3744 12.0899 21.7649 11.7863 22.0533C11.4827 22.3417 11.0717 22.5035 10.6422 22.5035H4.5164V21.3604H10.8625V20.5742H5.8271V20.5725Z" fill="#B32D26"/>
<path d="M21.1552 18.7434C21.1515 18.2439 21.4662 17.7919 21.9494 17.5985C22.4325 17.405 22.9935 17.5053 23.3674 17.8553C24.6393 19.0459 25.913 20.2348 27.1848 21.4254V17.5H28.3881V21.2443C28.3881 21.749 28.0696 22.2063 27.5791 22.4015C27.0886 22.5985 26.522 22.4965 26.1425 22.143C24.8836 20.977 23.6266 19.8092 22.3677 18.6432V22.5H21.1533V18.7434H21.1552Z" fill="#B32D26"/>
<path d="M14.6887 22.5H20.3536V21.3568H14.2796V20.5707H20.3536V19.4275H14.2796V18.6414H20.3536V17.5H14.6887C14.2574 17.5 13.8427 17.6636 13.5372 17.9537C13.2317 18.2439 13.0596 18.6379 13.0596 19.0477V20.9523C13.0596 21.3621 13.2317 21.7561 13.5372 22.0463C13.8427 22.3364 14.2574 22.5 14.6887 22.5Z" fill="#B32D26"/>
</g>
</g>
</g>
<circle cx="20" cy="20" r="19.5" stroke="black" stroke-opacity="0.05"/>
<defs>
<clipPath id="clip0_39193_75820">
<rect width="32" height="6" fill="white" transform="translate(4 17)"/>
</clipPath>
</defs>
</svg>
