<svg width="40" height="40" viewBox="0 0 40 40" fill="none" xmlns="http://www.w3.org/2000/svg">
<circle cx="20" cy="20" r="20" fill="#1E97C2"/>
<g clip-path="url(#clip0_17752_43645)">
<path d="M16.1058 10.581C21.5915 8.44939 27.52 10.9728 29.5379 16.5604C29.9794 17.7856 30.1727 19.6572 30.1179 22.1754C30.063 24.597 30.0565 27.0277 30.0983 29.4675C30.0994 29.5203 30.08 29.5714 30.0442 29.6101C30.0084 29.6488 29.9589 29.6722 29.9063 29.6752C28.3076 29.7509 26.7102 29.734 25.1141 29.6243C24.4767 29.5825 23.8446 29.6399 23.2176 29.7967C19.3345 30.7645 15.4161 29.8711 12.5792 26.9637C7.78316 22.0461 9.60912 13.1083 16.1058 10.581ZM19.2836 15.3653C15.8981 15.8355 14.1662 19.6481 15.9804 22.4732C17.8181 25.3297 21.5288 25.075 24.3069 23.974C24.3937 23.9399 24.4689 23.882 24.5237 23.807C24.5786 23.732 24.6107 23.6431 24.6165 23.5508C24.687 22.3387 24.6713 21.0535 24.5695 19.6951C24.3461 16.7563 22.1636 14.9617 19.2836 15.3653Z" fill="white"/>
</g>
<circle cx="20" cy="20" r="19.5" stroke="black" stroke-opacity="0.05"/>
<defs>
<clipPath id="clip0_17752_43645">
<rect width="21" height="21" fill="white" transform="translate(9.5 9.5)"/>
</clipPath>
</defs>
</svg>
