<svg width="40" height="40" viewBox="0 0 40 40" fill="none" xmlns="http://www.w3.org/2000/svg">
<circle cx="20" cy="20" r="20" fill="#008ED1"/>
<path fill-rule="evenodd" clip-rule="evenodd" d="M21.778 14.8014C22.1562 15.1885 22.1066 15.4046 21.5935 15.6522L20.1124 16.368C19.6712 16.5795 19.5182 17.0027 19.6757 17.3493C19.8378 17.6914 20.261 17.8445 20.7021 17.6419L22.1967 16.9622C22.7144 16.7281 22.9124 16.8271 22.962 17.3628L23.1195 18.9474C23.169 19.4696 23.5382 19.7172 23.9658 19.6812C24.3935 19.6452 24.7266 19.3256 24.6771 18.7944L24.5375 17.1738C24.4925 16.6246 24.6726 16.467 25.2668 16.5615L27.09 16.8586C27.6662 16.9532 28.1614 16.6651 28.2874 16.2329C28.418 15.8007 28.1209 15.3866 27.5311 15.3011L25.6675 15.0355C25.0597 14.9499 24.9652 14.7429 25.2938 14.2207L26.2977 12.6046C26.6173 12.0914 26.4958 11.5917 26.0816 11.4071C25.672 11.2226 25.1363 11.4161 24.8347 11.9293L23.8758 13.5409C23.5652 14.0586 23.3311 14.1036 22.9394 13.7075L21.796 12.5415C21.4449 12.1859 20.9587 12.2039 20.6526 12.519C20.3465 12.8251 20.3285 13.3068 20.6661 13.6535L21.778 14.8014ZM11.8969 14.9094C11.9329 15.2966 11.8158 15.4001 11.4422 15.3101L10.3573 15.0535C10.0062 14.9679 9.76757 15.1435 9.71355 15.4136C9.65503 15.6837 9.79458 15.9538 10.1457 16.0393L11.2216 16.3139C11.5907 16.4085 11.6493 16.5525 11.4557 16.8721L10.8885 17.822C10.7129 18.1101 10.794 18.4297 11.028 18.5828C11.2666 18.7448 11.5817 18.6818 11.7573 18.3937L12.347 17.4394C12.5451 17.1152 12.7027 17.1062 12.9593 17.4123L13.7515 18.3307C13.9991 18.6188 14.3503 18.6638 14.5844 18.4837C14.8184 18.2992 14.8409 17.957 14.5934 17.6689L13.7831 16.7416C13.513 16.431 13.5535 16.2824 13.9271 16.1294L15.0795 15.6747C15.4397 15.5306 15.5837 15.2065 15.4577 14.9229C15.3361 14.6438 14.9895 14.5133 14.6339 14.6618L13.495 15.1345C13.1213 15.2921 12.9863 15.2065 12.9502 14.8149L12.8422 13.6354C12.8107 13.2753 12.5496 13.0637 12.257 13.0952C11.9689 13.1313 11.7573 13.3969 11.7888 13.7525L11.8969 14.9094ZM30.8309 20.6355C30.6868 20.2934 30.2321 20.1178 29.728 20.2799L28.2199 20.7931C27.7112 20.9552 27.5312 20.8516 27.5131 20.3789L27.4546 18.9429C27.4321 18.4972 27.0945 18.2271 26.6983 18.2587C26.3022 18.2857 26.0006 18.6008 26.0186 19.0374L26.0906 20.442C26.1086 20.9056 25.9511 21.0182 25.4604 20.8966L24.0244 20.532C23.5967 20.424 23.2411 20.613 23.151 20.9281C23.061 21.2478 23.2681 21.5809 23.6957 21.6934L25.1047 22.0761C25.5864 22.2066 25.654 22.3777 25.3794 22.7468L24.5781 23.8227C24.335 24.1423 24.4205 24.516 24.7221 24.7095C25.0237 24.9031 25.4379 24.8536 25.6855 24.5295L26.5228 23.4581C26.8064 23.0889 27.0135 23.0889 27.3421 23.4581L28.2784 24.534C28.607 24.9076 29.0482 24.9526 29.3678 24.7546C29.6965 24.561 29.7865 24.1919 29.4489 23.8092L28.481 22.7153C28.1479 22.3372 28.2064 22.1571 28.7196 22.004L30.2412 21.5179C30.7498 21.3693 30.9704 20.9822 30.8309 20.6355ZM19.9413 11.3531L19.3651 10.9434C19.1716 10.8084 19.1806 10.7139 19.4056 10.5833L20.0719 10.1962C20.2745 10.0791 20.333 9.88556 20.2384 9.74601C20.1394 9.60195 19.9233 9.56594 19.7163 9.68298L19.0455 10.0701C18.8204 10.2007 18.7214 10.1692 18.6629 9.94408L18.4873 9.27333C18.4333 9.06625 18.2352 8.96272 18.0371 9.01223C17.8436 9.05725 17.7175 9.23282 17.776 9.44439L17.9561 10.1241C18.0146 10.3492 17.9426 10.4213 17.6725 10.4168L16.8532 10.3987C16.6011 10.3897 16.412 10.5338 16.3985 10.7094C16.3805 10.8849 16.5336 11.0335 16.7902 11.038L17.6095 11.047C17.8796 11.0515 17.9336 11.128 17.8301 11.3486L17.5104 12.0058C17.4114 12.2129 17.4969 12.3885 17.686 12.4425C17.8706 12.492 18.0821 12.402 18.1767 12.1994L18.4918 11.5467C18.5953 11.3306 18.6989 11.3036 18.897 11.4386L19.4822 11.8438C19.6712 11.9788 19.8783 11.9383 20.0044 11.8033C20.1304 11.6682 20.1304 11.4882 19.9413 11.3531ZM10.2312 21.5269L9.46146 21.6484C9.22737 21.6844 9.0383 21.5404 9.00229 21.3243C8.99334 21.2725 8.99493 21.2193 9.00696 21.1681C9.01899 21.1169 9.04121 21.0687 9.0723 21.0262C9.10339 20.9838 9.14271 20.9481 9.18792 20.9211C9.23312 20.8942 9.28329 20.8767 9.33541 20.8696L10.1007 20.7436C10.3618 20.6986 10.4113 20.595 10.2853 20.3294L9.91162 19.5506C9.79908 19.3075 9.86211 19.069 10.0332 18.9699C10.2087 18.8709 10.4293 18.9474 10.5419 19.186L10.9155 19.9783C11.046 20.2394 11.1496 20.2619 11.3342 20.0503L11.8879 19.4291C12.0769 19.2175 12.2975 19.2355 12.4416 19.3976C12.5901 19.5461 12.6081 19.7892 12.4191 20.0008L11.8608 20.622C11.6763 20.8336 11.6898 20.9507 11.9329 21.0857L12.6666 21.5044C12.8917 21.6349 12.9683 21.878 12.8827 22.0761C12.7927 22.2696 12.5676 22.3462 12.3425 22.2156L11.6178 21.797C11.3747 21.6574 11.2801 21.7114 11.2441 22.004L11.1361 22.8729C11.1001 23.1385 10.92 23.287 10.7264 23.2465C10.5284 23.206 10.3888 22.9989 10.4248 22.7333L10.5329 21.86C10.5689 21.5719 10.4923 21.4864 10.2312 21.5269Z" fill="white"/>
<path fill-rule="evenodd" clip-rule="evenodd" d="M18.8879 19.5237C19.0635 19.8118 19.014 19.9334 18.6854 20.0099L17.722 20.235C17.4069 20.307 17.2808 20.5411 17.3349 20.7842C17.3889 21.0273 17.605 21.1939 17.9246 21.1173L18.8969 20.9058C19.2301 20.8292 19.3336 20.9238 19.3066 21.2659L19.2346 22.3013C19.2075 22.6209 19.4011 22.864 19.6622 22.8955C19.9233 22.9315 20.1529 22.7424 20.1754 22.4138L20.2474 21.3649C20.2699 21.0138 20.3915 20.9463 20.7201 21.0858L21.7285 21.518C22.0436 21.653 22.3362 21.545 22.4397 21.2974C22.5388 21.0543 22.4037 20.7662 22.0841 20.6357L21.0712 20.2215C20.7426 20.0864 20.7111 19.9469 20.9362 19.6858L21.6114 18.907C21.8185 18.6639 21.7915 18.3668 21.5844 18.2093C21.3819 18.0472 21.0757 18.0742 20.8687 18.3173L20.2069 19.0871C19.9818 19.3482 19.8468 19.3392 19.6667 19.0511L19.131 18.2093C18.9735 17.9572 18.6944 17.8941 18.4873 18.0247C18.2802 18.1552 18.2127 18.4253 18.3702 18.6819L18.8879 19.5237ZM16.8847 14.6529C17.0963 14.8825 17.0828 15.0041 16.8172 15.1346L16.0474 15.5128C15.8133 15.6253 15.7413 15.8684 15.8448 16.071C15.9438 16.2735 16.1779 16.3636 16.412 16.2555L17.1818 15.8864C17.4429 15.7603 17.5464 15.8234 17.5915 16.125L17.7175 17.0073C17.758 17.2774 17.9561 17.435 18.1722 17.417C18.3837 17.3945 18.5368 17.2009 18.5008 16.9308L18.3792 16.0349C18.3342 15.7333 18.4243 15.6478 18.7169 15.7108L19.6037 15.8999C19.8783 15.9584 20.0944 15.8144 20.1439 15.5848C20.1889 15.3597 20.0449 15.1301 19.7658 15.0761L18.8654 14.887C18.5683 14.824 18.5143 14.707 18.6583 14.4324L19.0995 13.577C19.2391 13.3114 19.1625 13.0323 18.9555 12.9153C18.7529 12.7937 18.4918 12.8793 18.3567 13.1494L17.9291 14.0047C17.7895 14.2883 17.6725 14.3018 17.4564 14.0677L16.8172 13.361C16.6056 13.1224 16.358 13.1314 16.2049 13.3024C16.0519 13.469 16.0384 13.7256 16.2545 13.9552L16.8847 14.6529ZM22.3047 22.6074C22.2822 22.3733 22.1066 22.2427 21.904 22.2698C21.7105 22.2968 21.5619 22.4723 21.5844 22.7064L21.6565 23.4537C21.6835 23.7013 21.6024 23.7688 21.3503 23.7283L20.5896 23.5932C20.3555 23.5527 20.1664 23.6743 20.1304 23.8588C20.0899 24.0344 20.2114 24.21 20.441 24.2505L21.1973 24.381C21.4494 24.4261 21.4944 24.5161 21.3593 24.7322L20.9677 25.3624C20.8507 25.556 20.9047 25.754 21.0712 25.8396C21.2333 25.9251 21.4494 25.8711 21.5664 25.6775L21.9581 25.0473C22.0976 24.8312 22.2012 24.8222 22.3722 25.0023L22.8854 25.529C23.043 25.6955 23.2726 25.7 23.4211 25.5785C23.5697 25.4569 23.5922 25.2454 23.4301 25.0788L22.9124 24.5431C22.7414 24.363 22.7684 24.264 23.0115 24.1605L23.7542 23.8363C24.0063 23.7238 24.0784 23.5257 24.0018 23.3547C23.9253 23.1836 23.7317 23.1026 23.4796 23.2151L22.7369 23.5482C22.4848 23.6563 22.3947 23.6113 22.3722 23.3592L22.3047 22.6074ZM27.4006 25.3624C27.5356 25.1373 27.4861 24.9302 27.3151 24.8582C27.144 24.7907 26.9189 24.8852 26.7884 25.1103L26.3652 25.8351C26.2302 26.0737 26.1266 26.1007 25.9555 25.9386L25.4604 25.4524C25.3073 25.3084 25.0867 25.3309 24.9382 25.4794C24.7941 25.6235 24.7761 25.8441 24.9292 25.9926L25.4198 26.4698C25.5909 26.6319 25.5639 26.7309 25.3253 26.866L24.6231 27.2666C24.407 27.3882 24.3259 27.5952 24.398 27.7528C24.47 27.9103 24.6681 27.9599 24.8796 27.8383L25.5819 27.4467C25.825 27.3116 25.915 27.3521 25.933 27.5997L25.9871 28.329C26.0051 28.5541 26.1716 28.6711 26.3652 28.6306C26.5588 28.5856 26.7073 28.401 26.6893 28.1759L26.6353 27.4377C26.6173 27.1856 26.6983 27.109 26.9549 27.1271L27.7337 27.1811C27.9948 27.1991 28.1794 27.0505 28.2289 26.857C28.2784 26.6634 28.1794 26.4968 27.9138 26.4788L27.135 26.4338C26.8739 26.4158 26.8334 26.3303 26.9774 26.0872L27.4006 25.3624ZM17.4969 30.0937L17.7805 29.5129C17.8706 29.3239 17.9561 29.3104 18.1136 29.4544L18.6043 29.9001C18.7529 30.0396 18.9465 30.0351 19.059 29.9226C19.167 29.8055 19.1535 29.6165 19.005 29.4814L18.5143 29.0448C18.3567 28.9007 18.3657 28.8152 18.5548 28.7161L19.1175 28.419C19.2886 28.329 19.3381 28.1624 19.2526 28.0274C19.176 27.8923 18.996 27.8473 18.8204 27.9329L18.2667 28.2255C18.0776 28.3245 18.0011 28.2885 17.9561 28.0904L17.8345 27.5007C17.794 27.3071 17.65 27.2261 17.4969 27.2531C17.3439 27.2801 17.2358 27.4062 17.2763 27.5997L17.3934 28.1894C17.4294 28.392 17.3754 28.4505 17.1593 28.4235L16.5336 28.347C16.34 28.32 16.1959 28.428 16.1689 28.5811C16.1464 28.7297 16.259 28.8737 16.448 28.8962L17.0873 28.9772C17.2988 29.0043 17.3394 29.0808 17.2448 29.2653L16.9657 29.8416C16.8802 30.0171 16.9387 30.1972 17.0873 30.2647C17.2313 30.3367 17.4114 30.2737 17.4969 30.0937ZM22.9349 27.8473L23.4436 27.1226C23.6012 26.8975 23.5562 26.6499 23.3761 26.5328C23.1915 26.4203 22.9394 26.4743 22.7819 26.6994L22.2822 27.4242C22.1156 27.6673 22.0031 27.6718 21.823 27.4512L21.2828 26.7894C21.1028 26.5643 20.8687 26.5598 20.7021 26.6949C20.531 26.8344 20.495 27.0595 20.6751 27.2801L21.2063 27.9374C21.3864 28.1534 21.3548 28.2615 21.0847 28.3605L20.2925 28.6576C20.0494 28.7432 19.9503 28.9592 20.0269 29.1528C20.0989 29.3374 20.3195 29.4319 20.5626 29.3464L21.3503 29.0583C21.6204 28.9637 21.715 29.0268 21.7285 29.3014L21.7555 30.1117C21.7645 30.3638 21.9446 30.5213 22.1561 30.5123C22.3632 30.5078 22.5343 30.3322 22.5253 30.0847L22.5028 29.2653C22.4938 28.9907 22.5883 28.9232 22.8629 28.9952L23.7002 29.2203C23.9613 29.2879 24.1864 29.1663 24.2494 28.9682C24.3169 28.7657 24.1954 28.5541 23.9343 28.4821L23.0925 28.266C22.8089 28.1895 22.7684 28.0814 22.9349 27.8473ZM29.6199 18.916L30.0521 19.3887C30.1961 19.5462 30.3807 19.5282 30.5067 19.4022C30.6328 19.2761 30.6598 19.0871 30.5112 18.925L30.0791 18.4568C29.935 18.3038 29.9575 18.2138 30.1601 18.1012L30.7768 17.7636C30.9614 17.6601 31.0379 17.471 30.9749 17.3269C30.9074 17.1829 30.7318 17.1334 30.5427 17.2324L29.935 17.57C29.7324 17.6826 29.6559 17.642 29.6379 17.426L29.5929 16.7732C29.5794 16.5797 29.4398 16.4761 29.2778 16.5121C29.1202 16.5436 28.9987 16.7057 29.0122 16.8993L29.0527 17.5475C29.0662 17.7681 28.9987 17.8356 28.7916 17.8086L28.1659 17.7366C28.0799 17.7243 27.9924 17.7441 27.9202 17.7923C27.8479 17.8405 27.7959 17.9136 27.7742 17.9977C27.7337 18.1597 27.8282 18.3128 28.0173 18.3353L28.643 18.4118C28.8546 18.4388 28.8861 18.5154 28.7691 18.7269L28.4135 19.3482C28.3054 19.5417 28.3459 19.7263 28.481 19.8028C28.6205 19.8749 28.8096 19.8073 28.9176 19.6138L29.2733 18.9835C29.3903 18.7765 29.4759 18.7585 29.6199 18.916ZM16.412 19.7668L17.0242 19.5598C17.2313 19.4922 17.3078 19.3257 17.2673 19.1681C17.2268 19.0106 17.0828 18.925 16.8757 18.997L16.259 19.2086C16.0609 19.2761 15.9934 19.2266 16.0024 19.0106L16.0339 18.3533C16.0429 18.1552 15.9213 18.0202 15.7683 18.0292C15.6152 18.0292 15.4802 18.1687 15.4712 18.3713L15.4442 19.0196C15.4352 19.2356 15.3676 19.2852 15.1741 19.2221L14.6068 19.0331C14.4313 18.9745 14.2782 19.0601 14.2242 19.2131C14.1702 19.3617 14.2422 19.5237 14.4133 19.5823L14.9805 19.7758C15.1696 19.8434 15.1921 19.9244 15.0615 20.1L14.6834 20.6176C14.5663 20.7752 14.5888 20.9553 14.7059 21.0498C14.8229 21.1443 14.994 21.1173 15.111 20.9598L15.4937 20.4421C15.6242 20.2665 15.7053 20.2665 15.8223 20.4421L16.1599 20.9733C16.2635 21.1353 16.4435 21.1668 16.5741 21.0723C16.7046 20.9778 16.7451 20.7932 16.6371 20.6266L16.2905 20.0955C16.1779 19.9199 16.2094 19.8389 16.412 19.7668ZM17.8886 26.7669L18.3207 26.4698C18.4648 26.3753 18.5323 26.3933 18.5818 26.5598L18.7394 27.046C18.7889 27.2081 18.9194 27.2666 19.0455 27.2306C19.176 27.1901 19.2526 27.073 19.1985 26.911L19.0455 26.4158C18.9915 26.2537 19.0365 26.1952 19.2166 26.1952L19.7568 26.1997C19.9233 26.2042 20.0404 26.0962 20.0449 25.9656C20.0494 25.8351 19.9368 25.727 19.7703 25.727H19.2256C19.041 25.727 19.005 25.6685 19.0635 25.5065L19.2436 25.0023C19.2976 24.8447 19.2301 24.7097 19.0995 24.6691C18.9735 24.6286 18.8339 24.7007 18.7799 24.8582L18.6043 25.3579C18.5458 25.5245 18.4783 25.5425 18.3342 25.4434L17.9111 25.1418C17.7805 25.0473 17.632 25.0698 17.5554 25.1733C17.4789 25.2769 17.4969 25.4254 17.6275 25.5155L18.0506 25.8216C18.1902 25.9251 18.1902 25.9926 18.0461 26.0962L17.6185 26.3933C17.4924 26.4833 17.4654 26.6319 17.5374 26.7309C17.6095 26.8344 17.7625 26.857 17.8886 26.7669ZM13.6525 11.0606L14.0171 11.4838C14.1387 11.6233 14.1162 11.7043 13.9181 11.7989L13.3239 12.069C13.1258 12.159 13.0583 12.3166 13.1078 12.4516C13.1528 12.5867 13.2969 12.6497 13.4949 12.5552L14.0937 12.2851C14.2917 12.1905 14.3593 12.231 14.3638 12.4336L14.3683 13.0413C14.3683 13.2304 14.4988 13.3384 14.6564 13.3159C14.8139 13.2934 14.9445 13.1494 14.9445 12.9603L14.9355 12.3481C14.9355 12.1455 15.003 12.087 15.2056 12.1185L15.8178 12.2175C16.0069 12.249 16.1734 12.1455 16.2184 11.9925C16.2635 11.8439 16.1779 11.6998 15.9844 11.6728L15.3766 11.5738C15.1741 11.5423 15.147 11.4703 15.2686 11.2902L15.6332 10.7545C15.7413 10.5879 15.7098 10.4259 15.5837 10.3583C15.4577 10.2908 15.2776 10.3448 15.1696 10.5114L14.8049 11.0471C14.6789 11.2272 14.5978 11.2362 14.4718 11.0966L14.1072 10.678C14.0815 10.6492 14.0504 10.6258 14.0157 10.6091C13.9809 10.5924 13.9432 10.5827 13.9048 10.5807C13.8663 10.5786 13.8278 10.5841 13.7914 10.5969C13.7551 10.6098 13.7216 10.6297 13.693 10.6555C13.567 10.759 13.5399 10.9301 13.6525 11.0606ZM23.205 11.6773L23.0025 11.1822C22.9349 11.0156 22.9799 10.9571 23.196 10.9526L23.8308 10.9346C24.0468 10.9301 24.1549 10.822 24.1549 10.6915C24.1549 10.5564 24.0423 10.4484 23.8308 10.4529L23.187 10.4664C22.9709 10.4709 22.9214 10.4124 22.9844 10.2368L23.1735 9.71461C23.232 9.55255 23.1465 9.40849 22.9889 9.36798C22.912 9.34809 22.8304 9.35789 22.7603 9.39542C22.6903 9.43295 22.6369 9.49547 22.6108 9.57055L22.4217 10.0972C22.3632 10.2728 22.2777 10.2953 22.1021 10.1918L21.5619 9.88117C21.3999 9.78663 21.2108 9.81364 21.1208 9.92619C21.0352 10.0387 21.0667 10.1918 21.2378 10.2908L21.769 10.5969C21.9491 10.7005 21.9491 10.7725 21.7825 10.8805L21.2738 11.2092C21.1163 11.3082 21.0937 11.4568 21.1928 11.5603C21.2918 11.6683 21.4719 11.6863 21.6294 11.5873L22.1336 11.2632C22.3047 11.1551 22.3857 11.1776 22.4578 11.3442L22.6648 11.8394C22.7279 11.9879 22.8944 12.051 23.0385 12.0105C23.1915 11.9654 23.2681 11.8304 23.205 11.6773ZM28.2469 14.1803L28.7421 14.2928C28.8906 14.3288 29.0032 14.2568 29.0167 14.1397C29.0302 14.0227 28.9402 13.9012 28.7871 13.8696L28.2964 13.7616C28.1299 13.7256 28.0983 13.6671 28.1659 13.5275L28.3639 13.1134C28.427 12.9873 28.3729 12.8523 28.2649 12.7892C28.1479 12.7307 28.0173 12.7667 27.9588 12.8928L27.7607 13.3069C27.6932 13.4465 27.6302 13.451 27.5086 13.3294L27.1485 12.9738C27.0314 12.8568 26.9009 12.8568 26.8199 12.9378C26.7433 13.0143 26.7433 13.1404 26.8649 13.2619L27.2205 13.6131C27.3421 13.7346 27.3331 13.7976 27.198 13.8561L26.7839 14.0407C26.6623 14.0992 26.6263 14.2208 26.6848 14.3333C26.7433 14.4369 26.8784 14.4909 27.0044 14.4324L27.4141 14.2523C27.5536 14.1893 27.6122 14.2253 27.6482 14.3828L27.7517 14.851C27.7832 14.9996 27.9003 15.0896 28.0173 15.0806C28.1344 15.0716 28.2109 14.9681 28.1794 14.8195L28.0758 14.3468C28.0443 14.1893 28.0848 14.1487 28.2469 14.1803ZM18.4108 23.6518L18.8969 23.7688C19.05 23.8048 19.1625 23.7328 19.1805 23.6113C19.1985 23.4897 19.1085 23.3682 18.96 23.3322L18.4693 23.2196C18.3072 23.1836 18.2757 23.1206 18.3477 22.981L18.5593 22.5534C18.6268 22.4228 18.5773 22.2833 18.4693 22.2202C18.3567 22.1572 18.2262 22.1977 18.1587 22.3283L17.9471 22.7514C17.8796 22.891 17.8165 22.9 17.6995 22.7694L17.3484 22.4048C17.2358 22.2833 17.1053 22.2833 17.0242 22.3643C16.9432 22.4453 16.9387 22.5714 17.0558 22.6974L17.3979 23.0621C17.5149 23.1836 17.5104 23.2466 17.3664 23.3096L16.9522 23.4987C16.8262 23.5527 16.7902 23.6833 16.8442 23.7913C16.8982 23.9039 17.0287 23.9579 17.1593 23.8994L17.5734 23.7148C17.7175 23.6563 17.776 23.6923 17.803 23.8498L17.8931 24.336C17.9156 24.4846 18.0326 24.5791 18.1497 24.5701C18.2667 24.5611 18.3477 24.4576 18.3207 24.3045L18.2307 23.8183C18.2037 23.6563 18.2487 23.6113 18.4108 23.6518ZM15.1696 27.9148L15.7728 27.9239C15.9573 27.9284 16.0699 27.8158 16.0609 27.6763C16.0429 27.5367 15.9078 27.4197 15.7233 27.4152H15.12C14.9175 27.4152 14.8679 27.3521 14.9085 27.1721L15.039 26.6364C15.0583 26.563 15.0484 26.485 15.0115 26.4187C14.9746 26.3524 14.9135 26.303 14.8409 26.2807C14.6924 26.2402 14.5483 26.3168 14.5078 26.4833L14.3818 27.0145C14.3367 27.1901 14.2647 27.2171 14.0937 27.1L13.5805 26.7759C13.4139 26.6679 13.2653 26.6994 13.1933 26.8119C13.1213 26.9245 13.1528 27.073 13.3194 27.1811L13.8236 27.5052C13.9991 27.6177 14.0036 27.6898 13.8596 27.7978L13.4229 28.1174C13.2924 28.212 13.2834 28.365 13.3779 28.4776C13.4724 28.5856 13.6435 28.6126 13.7785 28.5181L14.2107 28.203C14.3593 28.0994 14.4358 28.1219 14.5168 28.2975L14.7554 28.8242C14.8274 28.9862 14.985 29.0628 15.1245 29.0268C15.2551 28.9862 15.3226 28.8467 15.2461 28.6801L15.0075 28.1489C14.931 27.9779 14.9715 27.9148 15.1696 27.9148ZM11.6132 26.1907L11.8428 25.8171C11.9193 25.691 11.9779 25.691 12.0814 25.8306L12.383 26.2312C12.4731 26.3618 12.6081 26.3888 12.6936 26.3258C12.7837 26.2582 12.7882 26.1187 12.6936 25.9926L12.392 25.5875C12.2885 25.4524 12.302 25.3894 12.446 25.3444L12.8737 25.2138C13.0178 25.1688 13.0583 25.0473 13.0133 24.9302C12.9682 24.8087 12.8512 24.7367 12.7071 24.7862L12.2795 24.9212C12.1399 24.9663 12.0859 24.9257 12.0724 24.7637L12.0319 24.273C12.0184 24.1244 11.9148 24.0254 11.8023 24.0209C11.6898 24.0164 11.6087 24.1154 11.6222 24.264L11.6628 24.7502C11.6763 24.9122 11.6312 24.9482 11.4872 24.8942L11.0505 24.7322C10.92 24.6827 10.8119 24.7412 10.7894 24.8492C10.7669 24.9618 10.8344 25.0833 10.965 25.1328L11.3972 25.3039C11.5457 25.3579 11.5682 25.4209 11.4917 25.5425L11.2666 25.9161C11.1991 26.0332 11.2306 26.1682 11.3251 26.2402C11.4197 26.3168 11.5457 26.3033 11.6132 26.1907ZM14.3232 25.2544L14.6023 24.5386C14.7014 24.2955 14.8004 24.282 15.0165 24.4891L15.6602 25.0923C15.8583 25.2859 16.0969 25.2904 16.2274 25.1553C16.358 25.0158 16.331 24.7772 16.1284 24.5836L15.4802 23.9804C15.2641 23.7778 15.2686 23.6653 15.4982 23.5482L16.1959 23.1881C16.43 23.0666 16.4615 22.846 16.349 22.6569C16.2319 22.4678 16.0114 22.3778 15.7818 22.5038L15.0885 22.864C14.8589 22.9855 14.7554 22.9315 14.6789 22.6569L14.4583 21.8286C14.3908 21.572 14.1837 21.4279 13.9856 21.4595C13.792 21.4865 13.684 21.68 13.7515 21.9366L13.9721 22.7559C14.0441 23.0305 13.9766 23.1071 13.711 23.053L12.9097 22.909C12.6666 22.864 12.5001 22.999 12.4911 23.1926C12.4866 23.3952 12.6441 23.5842 12.8872 23.6293L13.6795 23.7868C13.9496 23.8363 14.0081 23.9354 13.9181 24.174L13.639 24.8852C13.5625 25.1058 13.657 25.3309 13.8416 25.4254C14.0261 25.529 14.2377 25.4659 14.3232 25.2544Z" fill="white"/>
<circle cx="20" cy="20" r="19.5" stroke="black" stroke-opacity="0.05"/>
</svg>
