<svg width="40" height="40" viewBox="0 0 40 40" fill="none" xmlns="http://www.w3.org/2000/svg">
<circle cx="20" cy="20" r="20" fill="#334398"/>
<g clip-path="url(#clip0_18553_55583)">
<path d="M10.3495 15.3722L10.0796 16.1378H15.8305C15.8305 16.1378 18.1142 17.4358 18.1349 19.9321C18.1349 19.9321 18.3737 22.0068 15.3841 23.2051H10.8478L9.09343 26.8552H6V27.6318H9.48789L11.346 23.7931H15.436C15.8201 23.6821 16.1938 23.5157 16.5467 23.3271L16.1003 24.5364L20.5329 24.5142L22.3183 20.7309H26.4498L24.9862 24.5586H29.3356L33 15.2613H29.6574C29.6574 15.2613 29.0346 13.3308 26.5848 12.6318H19.3495L19.0796 13.242V13.3752H26.2526C26.2526 13.3752 28.4637 13.6636 28.9308 15.9713H31.7336L28.9308 23.6378H26.2215L28.1003 18.9003C28.1003 18.9003 27.7889 19.566 26.2422 19.9099H21.8097L20.1176 23.6267H17.3668L21.0727 15.4166H20.1073L18.654 18.4676C18.654 18.4676 18.2284 16.5039 15.8305 15.3722H10.3391H10.3495Z" fill="white"/>
<path d="M14.8338 18.1348L12.3529 18.157L11.3252 20.7087H14.8442C15.384 20.5645 15.7785 20.0541 15.8096 19.455C15.8096 19.455 16.1003 18.6229 14.8338 18.1348ZM14.948 19.4107C14.8857 19.7213 14.6885 19.9765 14.4186 20.0985H12.4878L13.0172 18.7339H14.6262C15.1556 19.0223 14.9584 19.4107 14.9584 19.4107" fill="white"/>
<path d="M26.159 15.0059L23.6781 15.028L22.6504 17.5798H26.1798C26.7196 17.4356 27.1141 16.9252 27.1452 16.3261C27.1452 16.3261 27.4566 15.5051 26.1694 15.0059M26.2836 16.2817C26.2317 16.5924 26.0345 16.8476 25.775 16.9696H23.8234L24.3528 15.605H25.9618C26.4705 15.8934 26.2836 16.2817 26.2836 16.2817Z" fill="white"/>
<path d="M10.8271 25.9344H11.1697C11.1697 25.9344 11.2631 25.9344 11.3047 25.9344C11.3462 25.9344 11.3773 25.9566 11.4188 25.9788C11.45 26.001 11.4811 26.0343 11.4915 26.0676C11.5123 26.1119 11.5227 26.1563 11.5227 26.2118C11.5227 26.3006 11.4915 26.3782 11.4396 26.4337C11.3669 26.4892 11.2735 26.5225 11.1697 26.5114H10.9517V26.8997H10.8375V25.9233L10.8271 25.9344ZM10.9413 26.4115H11.1697C11.1697 26.4115 11.232 26.4115 11.2631 26.4115C11.2839 26.4115 11.315 26.4004 11.3254 26.3782C11.3462 26.3671 11.3566 26.3449 11.3669 26.3227C11.3669 26.3006 11.3773 26.2673 11.3773 26.2451C11.3773 26.2118 11.3773 26.1785 11.3566 26.1563C11.3566 26.1341 11.3254 26.112 11.3047 26.1009C11.2839 26.0898 11.2631 26.0787 11.232 26.0787C11.2009 26.0787 11.1801 26.0787 11.1489 26.0787H10.9206V26.4115H10.9413Z" fill="white"/>
<path d="M10.9617 26.9216H10.8164V25.9009H11.1693C11.1693 25.9009 11.2524 25.912 11.2939 25.9231C11.3354 25.9231 11.377 25.9453 11.4081 25.9674C11.4392 25.9896 11.4704 26.0229 11.4911 26.0562C11.5119 26.1006 11.5223 26.1561 11.5223 26.2115C11.5223 26.3003 11.4911 26.389 11.4289 26.4445C11.3562 26.5 11.2628 26.5333 11.159 26.5222H10.941V26.8994L10.9617 26.9216ZM10.8475 26.8883H10.941V26.5H11.1797C11.2628 26.5 11.3562 26.4778 11.4289 26.4223C11.4808 26.3669 11.5119 26.2892 11.5119 26.2115C11.5119 26.1672 11.5119 26.1228 11.4808 26.0784C11.46 26.0451 11.4392 26.0118 11.4081 26.0007C11.377 25.9785 11.3354 25.9674 11.3043 25.9564C11.2628 25.9564 11.2213 25.9453 11.1797 25.9453H10.8579V26.8994L10.8475 26.8883ZM11.1797 26.4112H10.941V26.0229H11.1797C11.1797 26.0229 11.2316 26.0229 11.2628 26.0229C11.2939 26.0229 11.3147 26.034 11.3354 26.0451C11.3562 26.0562 11.377 26.0784 11.3873 26.1006C11.3977 26.1339 11.4081 26.1672 11.4081 26.2004C11.4081 26.2337 11.4081 26.2559 11.4081 26.2892C11.3873 26.3447 11.3458 26.3779 11.2939 26.389C11.2628 26.389 11.2213 26.389 11.1901 26.389M10.9721 26.3558H11.1901C11.1901 26.3558 11.2524 26.3558 11.2835 26.3558C11.3043 26.3558 11.3251 26.3447 11.3458 26.3225C11.3562 26.3114 11.377 26.2892 11.377 26.267C11.377 26.2448 11.377 26.2226 11.377 26.1893C11.377 26.1561 11.377 26.1339 11.3562 26.1117C11.3562 26.0895 11.3354 26.0784 11.3147 26.0673C11.2939 26.0562 11.2732 26.0451 11.2524 26.0451H10.9617V26.3558H10.9721Z" fill="white"/>
<path d="M12.394 26.8995H12.2694V26.4336H11.7919V26.8995H11.6777V25.9121H11.7919V26.3226H12.2694V25.9121H12.394V26.8995Z" fill="white"/>
<path d="M12.4044 26.9216H12.259V26.4556H11.8231V26.9216H11.6777V25.9009H11.8231V26.3003H12.2694V25.9009H12.4148V26.9216H12.4044ZM12.2798 26.8883H12.3732V25.9342H12.2798V26.3336H11.7815V25.9342H11.6881V26.8883H11.7815V26.4223H12.2798V26.8883Z" fill="white"/>
<path d="M12.9858 25.9009C13.0377 25.9009 13.1 25.9009 13.1519 25.9342C13.2038 25.9564 13.2453 25.9896 13.2868 26.034C13.3284 26.0784 13.3595 26.1339 13.3803 26.2004C13.401 26.267 13.4114 26.3336 13.4114 26.4112C13.4114 26.4778 13.4114 26.5555 13.3803 26.622C13.3595 26.6775 13.3284 26.733 13.2868 26.7885C13.2453 26.8328 13.2038 26.8661 13.1519 26.8883C13.0377 26.9327 12.9131 26.9327 12.7989 26.8883C12.747 26.8661 12.7055 26.8328 12.6744 26.7885C12.6328 26.7441 12.6017 26.6886 12.5809 26.622C12.5602 26.5555 12.5498 26.4889 12.5498 26.4112C12.5498 26.3447 12.5602 26.267 12.5809 26.2004C12.6017 26.145 12.6328 26.0895 12.6744 26.034C12.7159 25.9896 12.7574 25.9564 12.8093 25.9342C12.8612 25.912 12.9235 25.9009 12.9858 25.9009ZM12.9858 26.8106C12.9858 26.8106 13.0688 26.8106 13.1104 26.7774C13.1519 26.7663 13.183 26.733 13.2038 26.6997C13.2349 26.6664 13.2557 26.622 13.2661 26.5777C13.2972 26.4667 13.2972 26.3558 13.2661 26.2448C13.2557 26.2004 13.2349 26.1561 13.2038 26.1228C13.1726 26.0895 13.1415 26.0562 13.1104 26.0451C13.0688 26.0229 13.0273 26.0229 12.9858 26.0229C12.9443 26.0229 12.9027 26.0229 12.8612 26.0451C12.8197 26.0673 12.7886 26.0895 12.7678 26.1228C12.7367 26.1561 12.7159 26.2004 12.7055 26.2448C12.6744 26.3558 12.6744 26.4667 12.7055 26.5777C12.7159 26.622 12.7367 26.6664 12.7678 26.6997C12.7989 26.733 12.8301 26.7552 12.8612 26.7774C12.9027 26.7995 12.9443 26.8106 12.9858 26.8106Z" fill="white"/>
<path d="M12.9864 26.9329C12.9241 26.9329 12.8618 26.9218 12.8099 26.8885C12.758 26.8663 12.7061 26.833 12.6646 26.7776C12.6231 26.7332 12.5919 26.6666 12.5712 26.6112C12.5504 26.5446 12.54 26.4669 12.54 26.4004C12.54 26.3227 12.5504 26.2561 12.5712 26.1896C12.5919 26.123 12.6231 26.0675 12.6646 26.0231C12.7061 25.9788 12.758 25.9344 12.8099 25.9122C12.8618 25.89 12.9241 25.8789 12.9864 25.8789C13.0487 25.8789 13.111 25.89 13.1629 25.9122C13.2148 25.9344 13.2667 25.9788 13.3082 26.0231C13.3497 26.0675 13.3809 26.123 13.4016 26.1896C13.4432 26.3338 13.4432 26.478 13.4016 26.6222C13.3601 26.7443 13.2771 26.8552 13.1733 26.9107C13.111 26.9329 13.0487 26.9551 12.9864 26.9551M12.9864 25.9344C12.9241 25.9344 12.8722 25.9455 12.8203 25.9677C12.7684 25.9899 12.7269 26.0231 12.6854 26.0675C12.6438 26.1119 12.6127 26.1674 12.6023 26.2228C12.5816 26.2894 12.5712 26.356 12.5712 26.4225C12.5712 26.4891 12.5712 26.5557 12.6023 26.6222C12.6231 26.6777 12.6542 26.7332 12.6854 26.7776C12.7269 26.822 12.7684 26.8552 12.8203 26.8774C12.8722 26.8996 12.9345 26.9107 12.9864 26.9107C13.0487 26.9107 13.1006 26.8996 13.1525 26.8774C13.2044 26.8552 13.2459 26.822 13.2874 26.7776C13.329 26.7332 13.3601 26.6777 13.3705 26.6222C13.3912 26.5557 13.412 26.4891 13.412 26.4115C13.412 26.3449 13.412 26.2783 13.3809 26.2117C13.3601 26.1563 13.329 26.1008 13.2978 26.0564C13.2563 26.012 13.2148 25.9788 13.1629 25.9566C13.111 25.9344 13.0487 25.9233 12.9968 25.9233M12.9968 26.833C12.9968 26.833 12.9034 26.833 12.8722 26.7998C12.8307 26.7776 12.7996 26.7554 12.7684 26.7221C12.7373 26.6888 12.7165 26.6444 12.7061 26.589C12.6854 26.5335 12.6854 26.478 12.6854 26.4115C12.6854 26.356 12.6854 26.2894 12.7061 26.2339C12.7165 26.1896 12.7477 26.1452 12.7788 26.1008C12.8099 26.0675 12.8411 26.0342 12.8826 26.0231C12.9656 25.9788 13.0591 25.9788 13.1525 26.0231C13.194 26.0453 13.2252 26.0675 13.2563 26.1008C13.2874 26.1341 13.3082 26.1785 13.329 26.2339C13.3601 26.3449 13.3601 26.4669 13.329 26.5779C13.3186 26.6222 13.2874 26.6666 13.2563 26.711C13.2252 26.7443 13.194 26.7776 13.1525 26.7887C13.111 26.8109 13.0695 26.822 13.0279 26.822M13.0279 26.0231C13.0279 26.0231 12.9449 26.0231 12.9137 26.0453C12.8826 26.0564 12.8411 26.0897 12.8203 26.123C12.7892 26.1563 12.7684 26.2007 12.758 26.245C12.7477 26.3005 12.7373 26.356 12.7373 26.4115C12.7373 26.4669 12.7373 26.5224 12.758 26.5779C12.7684 26.6222 12.7892 26.6666 12.8203 26.6999C12.8411 26.7332 12.8722 26.7554 12.9137 26.7776C12.9864 26.8109 13.0798 26.8109 13.1525 26.7776C13.1836 26.7665 13.2252 26.7332 13.2459 26.6999C13.2771 26.6666 13.2978 26.6222 13.3082 26.5779C13.3393 26.4669 13.3393 26.356 13.3082 26.245C13.2978 26.2007 13.2771 26.1563 13.2459 26.123C13.2252 26.0897 13.194 26.0675 13.1525 26.0453C13.111 26.0231 13.0798 26.0231 13.0383 26.0231" fill="white"/>
<path d="M14.2211 26.0342H13.9201V26.8995H13.8059V26.0342H13.5049V25.9121H14.2211V26.0342Z" fill="white"/>
<path d="M13.9415 26.9217H13.7962V26.0563H13.4951V25.9121H14.2425V26.0563H13.9415V26.9217ZM13.8273 26.8884H13.9207V26.0231H14.2114V25.9343H13.5263V26.0231H13.8273V26.8995V26.8884Z" fill="white"/>
<path d="M14.7404 25.9009C14.8027 25.9009 14.8546 25.912 14.9169 25.9342C14.9688 25.9564 15.0103 25.9896 15.0518 26.034C15.0934 26.0784 15.1245 26.1339 15.1453 26.2004C15.166 26.267 15.1764 26.3336 15.1764 26.4112C15.1764 26.4778 15.1764 26.5555 15.1453 26.622C15.1245 26.6775 15.0934 26.733 15.0622 26.7885C14.9792 26.8772 14.865 26.9327 14.7508 26.9327C14.6885 26.9327 14.6262 26.9216 14.5743 26.8994C14.5224 26.8772 14.4705 26.8439 14.4394 26.7995C14.3979 26.7552 14.3667 26.6997 14.3563 26.6331C14.3356 26.5666 14.3252 26.5 14.3252 26.4223C14.3252 26.3558 14.3252 26.2781 14.3563 26.2115C14.3771 26.1561 14.4082 26.1006 14.4498 26.0451C14.4913 26.0007 14.5328 25.9674 14.5847 25.9453C14.6366 25.9231 14.6989 25.912 14.7612 25.912M14.7612 26.8217C14.7612 26.8217 14.8442 26.8217 14.8857 26.7885C14.9273 26.7663 14.9584 26.7441 14.9792 26.7108C15.0103 26.6775 15.0311 26.6331 15.0415 26.5887C15.0726 26.4778 15.0726 26.3669 15.0415 26.2559C15.0311 26.2115 15.0103 26.1672 14.9792 26.1339C14.9584 26.1006 14.9169 26.0784 14.8857 26.0562C14.8442 26.034 14.8027 26.034 14.7612 26.034C14.7197 26.034 14.6781 26.034 14.6366 26.0562C14.5951 26.0784 14.5639 26.1006 14.5432 26.1339C14.512 26.1672 14.4913 26.2115 14.4809 26.2559C14.4498 26.3669 14.4498 26.4778 14.4809 26.5887C14.4913 26.6331 14.512 26.6775 14.5432 26.7108C14.5951 26.7774 14.6781 26.8106 14.7612 26.8106" fill="white"/>
<path d="M14.7409 26.9329C14.6786 26.9329 14.6164 26.9218 14.5541 26.8885C14.5022 26.8663 14.4503 26.822 14.4087 26.7776C14.3672 26.7332 14.3361 26.6777 14.3153 26.6112C14.2946 26.5446 14.2842 26.4669 14.2842 26.4004C14.2842 26.3227 14.2946 26.2561 14.3153 26.1896C14.3361 26.123 14.3672 26.0675 14.4087 26.0231C14.4503 25.9788 14.5022 25.9344 14.5541 25.9122C14.606 25.89 14.6683 25.8789 14.7305 25.8789C14.7928 25.8789 14.8551 25.89 14.907 25.9122C14.9589 25.9344 15.0108 25.9788 15.0523 26.0231C15.0939 26.0675 15.125 26.123 15.1458 26.1896C15.1665 26.2561 15.1769 26.3338 15.1769 26.4004C15.1769 26.478 15.1769 26.5446 15.1458 26.6112C15.125 26.6777 15.0939 26.7332 15.0523 26.7776C15.0108 26.822 14.9589 26.8552 14.907 26.8885C14.8551 26.9107 14.7928 26.9329 14.7305 26.9329M14.7305 25.9233C14.6683 25.9233 14.6164 25.9344 14.5645 25.9566C14.5126 25.9788 14.471 26.012 14.4295 26.0564C14.388 26.1008 14.3568 26.1563 14.3465 26.2117C14.3257 26.2783 14.3153 26.3449 14.3153 26.4115C14.3153 26.478 14.3153 26.5446 14.3465 26.6112C14.3672 26.6666 14.388 26.7221 14.4295 26.7665C14.471 26.8109 14.5126 26.8441 14.5645 26.8663C14.6786 26.9107 14.7928 26.9107 14.907 26.8663C14.9589 26.8441 15.0004 26.8109 15.042 26.7665C15.0835 26.7221 15.1042 26.6666 15.125 26.6112C15.1458 26.5446 15.1562 26.478 15.1562 26.4115C15.1562 26.3449 15.1562 26.2672 15.1354 26.2007C15.1146 26.1452 15.0835 26.0897 15.0523 26.0453C15.0108 26.0009 14.9693 25.9677 14.9174 25.9455C14.8655 25.9233 14.8032 25.9122 14.7409 25.9122M14.7409 26.822C14.7409 26.822 14.6475 26.822 14.6164 26.7887C14.5748 26.7665 14.5437 26.7443 14.5126 26.711C14.4814 26.6666 14.4607 26.6333 14.4503 26.5779C14.4295 26.5224 14.4295 26.4669 14.4295 26.4004C14.4295 26.3449 14.4295 26.2783 14.4503 26.2228C14.4607 26.1785 14.4918 26.1341 14.5229 26.0897C14.5541 26.0564 14.5852 26.0231 14.6267 26.012C14.7098 25.9788 14.8032 25.9788 14.8966 26.012C14.9382 26.0342 14.9693 26.0564 15.0004 26.0897C15.0316 26.123 15.0523 26.1674 15.0731 26.2228C15.1042 26.3338 15.1042 26.4558 15.0731 26.5668C15.0627 26.6112 15.0316 26.6555 15.0108 26.6999C14.9797 26.7332 14.9485 26.7665 14.907 26.7776C14.8655 26.7998 14.824 26.8109 14.7721 26.8109M14.7721 26.012C14.7721 26.012 14.689 26.012 14.6579 26.0342C14.6267 26.0564 14.5956 26.0786 14.5645 26.1119C14.5333 26.1452 14.5126 26.1896 14.5022 26.2339C14.4918 26.2894 14.4814 26.3449 14.4814 26.4004C14.4814 26.4558 14.4814 26.5113 14.5022 26.5668C14.5126 26.6112 14.5333 26.6444 14.5645 26.6888C14.5852 26.7221 14.6267 26.7443 14.6579 26.7665C14.7305 26.7998 14.8136 26.7998 14.8966 26.7665C14.9382 26.7554 14.9693 26.7221 14.9901 26.6888C15.0212 26.6555 15.042 26.6112 15.0523 26.5668C15.0835 26.4558 15.0835 26.3449 15.0523 26.2339C15.042 26.1896 15.0212 26.1452 14.9901 26.1119C14.9693 26.0786 14.9382 26.0564 14.8966 26.0342C14.8551 26.012 14.824 26.012 14.7824 26.012" fill="white"/>
<path d="M16.0487 26.8995H15.9345L15.457 26.1229V26.8995H15.3428V25.9121H15.4673L15.9345 26.6998V25.9121H16.0487V26.8995Z" fill="white"/>
<path d="M16.0589 26.9216H15.9136L15.4569 26.1782V26.9216H15.3115V25.9009H15.4569L15.9032 26.6331V25.9009H16.0485V26.9216H16.0589ZM15.9344 26.8883H16.0382V25.9342H15.9551V26.7441L15.4672 25.9342H15.3634V26.8883H15.4465V26.0784L15.9344 26.8883Z" fill="white"/>
<path d="M16.3808 25.9121H16.2666V26.8995H16.3808V25.9121Z" fill="white"/>
<path d="M16.4012 26.9216H16.2559V25.9009H16.4012V26.9216ZM16.287 26.8883H16.3804V25.9342H16.287V26.8883Z" fill="white"/>
<path d="M17.3562 26.2119H17.2317C17.2317 26.2119 17.2317 26.1564 17.2109 26.1231C17.2005 26.1009 17.1798 26.0787 17.159 26.0566C17.1382 26.0344 17.1071 26.0233 17.0863 26.0122C17.0552 26.0122 17.024 26.0011 16.9929 26.0011C16.9514 26.0011 16.9099 26.0011 16.8683 26.0233C16.8268 26.0344 16.7957 26.0677 16.7749 26.1009C16.7438 26.1342 16.723 26.1786 16.7126 26.223C16.7022 26.2785 16.6919 26.3339 16.6919 26.3894C16.6919 26.4449 16.6919 26.5003 16.7126 26.5558C16.723 26.6002 16.7438 26.6446 16.7749 26.6779C16.7957 26.7111 16.8268 26.7333 16.858 26.7555C16.8995 26.7777 16.941 26.7777 16.9825 26.7777C17.0137 26.7777 17.0448 26.7777 17.076 26.7777C17.1071 26.7777 17.1279 26.7555 17.1486 26.7333C17.1694 26.7111 17.1901 26.689 17.2005 26.6668C17.2109 26.6335 17.2213 26.6113 17.2213 26.578H17.3458C17.3458 26.578 17.3251 26.6779 17.3043 26.7111C17.2836 26.7555 17.2628 26.7888 17.2213 26.811C17.1901 26.8443 17.1486 26.8665 17.1071 26.8776C17.0656 26.8887 17.0137 26.8998 16.9618 26.8998C16.8995 26.8998 16.8476 26.8998 16.7853 26.8665C16.7334 26.8443 16.6919 26.811 16.6503 26.7666C16.6088 26.7222 16.5881 26.6668 16.5673 26.6002C16.5362 26.4671 16.5362 26.3228 16.5673 26.1786C16.5881 26.1231 16.6192 26.0677 16.6503 26.0233C16.6815 25.9789 16.7334 25.9456 16.7853 25.9234C16.8372 25.9012 16.8995 25.8901 16.9618 25.8901C17.0033 25.8901 17.0552 25.8901 17.0967 25.9123C17.1382 25.9234 17.1798 25.9456 17.2109 25.9789C17.242 26.0011 17.2732 26.0455 17.2939 26.0787C17.3147 26.1231 17.3251 26.1675 17.3355 26.2119" fill="white"/>
<path d="M16.9926 26.9329C16.9303 26.9329 16.8681 26.9218 16.8162 26.8996C16.7643 26.8774 16.7123 26.833 16.6708 26.7887C16.6293 26.7443 16.5982 26.6777 16.5878 26.6222C16.5463 26.478 16.5463 26.3338 16.5878 26.1896C16.6085 26.123 16.6397 26.0675 16.6812 26.0231C16.7227 25.9788 16.7643 25.9455 16.8162 25.9122C16.8681 25.89 16.9303 25.8789 16.9926 25.8789C17.0445 25.8789 17.0861 25.8789 17.138 25.9011C17.1795 25.9122 17.221 25.9455 17.2521 25.9677C17.2833 26.0009 17.3144 26.0342 17.3352 26.0675C17.3559 26.1119 17.3767 26.1563 17.3871 26.2007V26.2228H17.2314C17.2314 26.2228 17.2314 26.1674 17.2106 26.1452C17.2002 26.123 17.1795 26.1008 17.1587 26.0897C17.138 26.0675 17.1172 26.0564 17.0861 26.0564C17.0549 26.0564 17.0238 26.0564 16.9926 26.0564C16.9511 26.0564 16.9096 26.0564 16.8784 26.0786C16.8473 26.0897 16.8162 26.123 16.7954 26.1452C16.7643 26.1785 16.7539 26.2228 16.7331 26.2672C16.7227 26.3227 16.7123 26.3782 16.7123 26.4336C16.7123 26.4891 16.7124 26.5446 16.7331 26.6001C16.7435 26.6444 16.7643 26.6888 16.7954 26.7221C16.8162 26.7554 16.8473 26.7776 16.8784 26.7998C16.92 26.8109 16.9511 26.822 16.9926 26.822C17.0238 26.822 17.0549 26.822 17.0861 26.822C17.1068 26.822 17.138 26.7998 17.1587 26.7776C17.1795 26.7554 17.1899 26.7332 17.2106 26.711C17.221 26.6888 17.2314 26.6555 17.2314 26.6222H17.3871V26.6444C17.3871 26.6444 17.3663 26.7443 17.3456 26.7887C17.3248 26.833 17.2937 26.8663 17.2625 26.8996C17.2314 26.9329 17.1899 26.9551 17.1483 26.9662C17.1068 26.9773 17.0549 26.9884 17.003 26.9884M17.003 25.9677C16.9407 25.9677 16.8888 25.9677 16.8369 26.0009C16.785 26.0231 16.7435 26.0564 16.7123 26.1008C16.6812 26.1452 16.6501 26.2007 16.6293 26.2561C16.5878 26.3893 16.5878 26.5335 16.6293 26.6666C16.6501 26.7221 16.6708 26.7776 16.7123 26.822C16.7435 26.8663 16.7954 26.8996 16.8369 26.9218C16.8888 26.944 16.9511 26.9551 17.003 26.9551C17.0445 26.9551 17.0964 26.9551 17.138 26.9329C17.1795 26.9218 17.2106 26.8996 17.2418 26.8663C17.2729 26.8441 17.2937 26.7998 17.3144 26.7665C17.3352 26.7332 17.3456 26.6888 17.3456 26.6444H17.2521C17.2521 26.6444 17.2521 26.6999 17.2314 26.7332C17.221 26.7665 17.2002 26.7887 17.1795 26.8109C17.1587 26.833 17.1276 26.8441 17.0964 26.8552C17.0653 26.8552 17.0341 26.8552 16.9926 26.8552C16.9096 26.8552 16.8162 26.822 16.7643 26.7443C16.7331 26.711 16.7124 26.6666 16.702 26.6112C16.6708 26.5002 16.6708 26.3782 16.702 26.2561C16.7124 26.2117 16.7331 26.1674 16.7643 26.123C16.785 26.0897 16.8265 26.0564 16.8577 26.0453C16.8992 26.0231 16.9407 26.012 16.9822 26.012C17.0134 26.012 17.0445 26.012 17.0757 26.012C17.1068 26.012 17.1276 26.0342 17.1587 26.0564C17.1795 26.0786 17.2002 26.1008 17.2106 26.123C17.221 26.1452 17.2314 26.1674 17.2314 26.2007H17.3248C17.3248 26.2007 17.304 26.123 17.2937 26.0897C17.2729 26.0564 17.2521 26.0231 17.221 25.9899C17.1899 25.9566 17.1483 25.9233 17.0964 25.9011C17.0549 25.89 17.0134 25.8789 16.9615 25.8789" fill="white"/>
<path d="M17.8652 26.9219C17.8133 26.9219 17.751 26.9219 17.6991 26.8997C17.6576 26.8886 17.616 26.8664 17.5745 26.8331C17.5434 26.7998 17.5226 26.7665 17.5018 26.7333C17.4811 26.6889 17.4707 26.6445 17.4707 26.6001H17.5849C17.5849 26.6001 17.5953 26.6667 17.616 26.7C17.6368 26.7222 17.6472 26.7443 17.6783 26.7665C17.6991 26.7887 17.7302 26.7998 17.7614 26.8109C17.7925 26.8109 17.8236 26.8109 17.8548 26.8109C17.8859 26.8109 17.9171 26.8109 17.9482 26.8109C17.969 26.8109 18.0001 26.7887 18.0209 26.7776C18.0416 26.7665 18.0624 26.7443 18.0728 26.7222C18.0832 26.7 18.0935 26.6778 18.0935 26.6556C18.0935 26.6334 18.0935 26.6112 18.0728 26.589C18.0624 26.5668 18.0416 26.5557 18.0209 26.5446C17.9897 26.5335 17.969 26.5114 17.9378 26.5114L17.8029 26.4781C17.8029 26.4781 17.7095 26.4559 17.6679 26.4337C17.6368 26.4226 17.6057 26.4004 17.5745 26.3782C17.5537 26.356 17.533 26.3338 17.5226 26.3006C17.5122 26.2673 17.5018 26.234 17.5018 26.2007C17.5018 26.1674 17.5018 26.123 17.5226 26.0898C17.5434 26.0565 17.5641 26.0232 17.5849 26.001C17.616 25.9788 17.6472 25.9566 17.6887 25.9455C17.7302 25.9344 17.7717 25.9233 17.8236 25.9233C17.8652 25.9233 17.9171 25.9233 17.9586 25.9455C18.0001 25.9566 18.0313 25.9788 18.0624 26.001C18.0935 26.0232 18.1143 26.0565 18.1351 26.0898C18.1558 26.1341 18.1662 26.1785 18.1662 26.2229H18.052C18.052 26.1009 17.969 26.0454 17.8236 26.0454C17.7717 26.0454 17.7095 26.0454 17.6679 26.0898C17.6368 26.1119 17.616 26.1563 17.616 26.2007C17.616 26.2007 17.6264 26.2229 17.6368 26.234C17.6368 26.2451 17.6576 26.2673 17.6679 26.2784C17.6887 26.2895 17.7095 26.3006 17.7302 26.3117C17.7614 26.3227 17.7925 26.3338 17.834 26.3449L17.9171 26.3671C17.9171 26.3671 17.9794 26.3782 18.0001 26.3893L18.0728 26.4226C18.0728 26.4226 18.1143 26.4559 18.1351 26.4781C18.1558 26.5003 18.1662 26.5225 18.1766 26.5446C18.187 26.5779 18.1973 26.6112 18.1973 26.6445C18.1973 26.6889 18.1973 26.7222 18.1766 26.7665C18.1558 26.7998 18.1351 26.8331 18.1039 26.8553C18.0728 26.8775 18.0313 26.8997 18.0001 26.9219C17.9586 26.933 17.9067 26.944 17.8652 26.944" fill="white"/>
<path d="M17.8648 26.9329C17.8025 26.9329 17.7506 26.9329 17.6883 26.9107C17.6468 26.8996 17.5949 26.8663 17.5638 26.833C17.5326 26.7998 17.5015 26.7665 17.4911 26.7221C17.4703 26.6777 17.46 26.6333 17.46 26.5779H17.6053C17.6053 26.5779 17.6053 26.6444 17.6261 26.6666C17.6364 26.6888 17.6572 26.711 17.678 26.7332C17.6987 26.7554 17.7299 26.7665 17.7506 26.7665C17.8129 26.7776 17.8752 26.7776 17.9375 26.7665C17.9582 26.7665 17.979 26.7443 17.9998 26.7332C18.0205 26.7221 18.0309 26.6999 18.0413 26.6888C18.0517 26.6666 18.062 26.6444 18.062 26.6222C18.062 26.6001 18.062 26.5779 18.0517 26.5557C18.0413 26.5335 18.0205 26.5224 18.0101 26.5113C17.9894 26.5002 17.9582 26.478 17.9271 26.478L17.7921 26.4447C17.7921 26.4447 17.6987 26.4225 17.6572 26.4004C17.6261 26.3893 17.5949 26.3671 17.5638 26.3449C17.543 26.3227 17.5222 26.3005 17.5119 26.2672C17.5015 26.2339 17.4911 26.2007 17.4911 26.1674C17.4911 26.123 17.4911 26.0897 17.5222 26.0453C17.543 26.012 17.5638 25.9788 17.5949 25.9566C17.6261 25.9344 17.6676 25.9122 17.6987 25.9011C17.7402 25.89 17.7921 25.8789 17.8337 25.8789C17.8856 25.8789 17.9271 25.8789 17.979 25.9011C18.0205 25.9122 18.062 25.9344 18.0932 25.9677C18.1243 25.9899 18.1555 26.0231 18.1658 26.0675C18.1866 26.1119 18.197 26.1563 18.197 26.2007H18.0517C18.0517 26.0897 17.9686 26.0342 17.844 26.0342C17.7921 26.0342 17.7402 26.0342 17.6987 26.0675C17.6676 26.0897 17.6468 26.123 17.6468 26.1674C17.6468 26.1785 17.6468 26.2007 17.6468 26.2117C17.6468 26.2228 17.6676 26.2339 17.678 26.245C17.6987 26.2561 17.7195 26.2672 17.7402 26.2783C17.7714 26.2894 17.8025 26.3005 17.8337 26.3116L17.9167 26.3338L17.9998 26.356L18.0828 26.3893C18.0828 26.3893 18.1243 26.4225 18.1451 26.4447C18.1658 26.4669 18.1762 26.4891 18.1866 26.5224C18.197 26.5557 18.2074 26.589 18.2074 26.6222C18.2074 26.6666 18.2074 26.711 18.1866 26.7443C18.1658 26.7776 18.1451 26.8109 18.1139 26.8441C18.0828 26.8774 18.0413 26.8996 17.9998 26.9107C17.9582 26.9218 17.9063 26.9329 17.8544 26.9329M17.4807 26.6001C17.4807 26.6001 17.4911 26.6777 17.5119 26.711C17.5326 26.7443 17.5534 26.7776 17.5845 26.8109C17.6157 26.8441 17.6572 26.8663 17.6987 26.8774C17.7506 26.8885 17.8025 26.8996 17.8648 26.8996C17.9063 26.8996 17.9479 26.8996 17.9894 26.8774C18.0309 26.8663 18.062 26.8441 18.0932 26.822C18.1555 26.7776 18.1866 26.6999 18.1866 26.6222C18.1866 26.589 18.1866 26.5557 18.1658 26.5335C18.1658 26.5113 18.1451 26.4891 18.1243 26.4669C18.1036 26.4447 18.0828 26.4336 18.062 26.4225L17.9894 26.3893C17.9894 26.3893 17.9375 26.3671 17.9063 26.3671L17.8233 26.3449L17.7195 26.3227C17.7195 26.3227 17.6676 26.3005 17.6468 26.2894C17.6261 26.2894 17.6157 26.2672 17.6053 26.245C17.6053 26.2228 17.6053 26.2007 17.6053 26.1896C17.6053 26.1452 17.6261 26.0897 17.6676 26.0675C17.7195 26.0342 17.7714 26.0231 17.8337 26.0231C17.979 26.0231 18.0517 26.0786 18.0724 26.2007H18.1658C18.1658 26.2007 18.1555 26.1341 18.1347 26.1008C18.1139 26.0675 18.0932 26.0342 18.0724 26.012C18.0413 25.9899 18.0101 25.9677 17.9686 25.9566C17.9167 25.9566 17.8648 25.9566 17.8233 25.9566C17.7818 25.9566 17.7402 25.9566 17.6987 25.9788C17.6676 25.9899 17.6364 26.012 17.6053 26.0342C17.5534 26.0786 17.5222 26.1452 17.5222 26.2228C17.5222 26.2561 17.5222 26.2894 17.543 26.3116C17.5534 26.3338 17.5741 26.356 17.5949 26.3782C17.6261 26.4004 17.6468 26.4225 17.678 26.4336C17.7195 26.4558 17.761 26.4669 17.8025 26.478L17.9375 26.5113C17.9375 26.5113 17.9998 26.5335 18.0309 26.5557C18.0517 26.5668 18.0724 26.589 18.0828 26.6112C18.0932 26.6333 18.1036 26.6555 18.1036 26.6888C18.1036 26.711 18.1036 26.7443 18.0828 26.7665C18.0724 26.7887 18.0517 26.8109 18.0309 26.822C18.0101 26.8441 17.979 26.8552 17.9582 26.8552C17.8959 26.8774 17.8233 26.8774 17.761 26.8552C17.7299 26.8552 17.6987 26.833 17.678 26.8109C17.6261 26.7776 17.5949 26.711 17.5845 26.6444L17.4911 26.6222L17.4807 26.6001Z" fill="white"/>
<path d="M18.8098 25.9344H19.1524C19.1524 25.9344 19.2354 25.9344 19.277 25.9344C19.3185 25.9344 19.3496 25.9566 19.3911 25.9788C19.4223 26.001 19.4534 26.0343 19.4638 26.0676C19.4846 26.1119 19.5053 26.1674 19.4949 26.2118C19.4949 26.3006 19.4742 26.3782 19.4119 26.4337C19.3392 26.4892 19.2458 26.5225 19.142 26.5114H18.9136V26.8997H18.7891V25.9233L18.8098 25.9344ZM18.9344 26.4115H19.1628C19.1628 26.4115 19.225 26.4115 19.2562 26.4115C19.277 26.4115 19.2977 26.3893 19.3185 26.3782C19.3392 26.3671 19.3496 26.3449 19.36 26.3227C19.36 26.3006 19.3704 26.2673 19.3704 26.2451C19.3704 26.2118 19.3704 26.1785 19.3496 26.1563C19.3392 26.1341 19.3185 26.112 19.2977 26.1009C19.277 26.0787 19.2562 26.0565 19.225 26.0454C19.1939 26.0454 19.1731 26.0454 19.142 26.0454H18.9136V26.4115H18.9344Z" fill="white"/>
<path d="M18.9442 26.9216H18.7988V25.9009H19.1518C19.1518 25.9009 19.2452 25.9009 19.2867 25.9009C19.3282 25.9009 19.3698 25.9231 19.4009 25.9453C19.432 25.9674 19.4632 26.0007 19.4839 26.034C19.5047 26.0895 19.5151 26.145 19.5047 26.2004C19.5047 26.2892 19.4736 26.3779 19.4113 26.4334C19.3386 26.4889 19.2452 26.5222 19.1414 26.5111H18.9234V26.8994L18.9442 26.9216ZM18.8196 26.8883H18.913V26.5H19.1518C19.2348 26.5 19.3282 26.4778 19.3905 26.4223C19.4424 26.3669 19.4736 26.2892 19.4736 26.2115C19.4736 26.1672 19.4736 26.1228 19.4424 26.0784C19.4217 26.0451 19.4009 26.0118 19.3698 26.0007C19.3386 25.9785 19.2971 25.9674 19.266 25.9564C19.2244 25.9564 19.1829 25.9453 19.1414 25.9453H18.8092V26.8994L18.8196 26.8883ZM19.1622 26.4112H18.913V26.0229H19.1518C19.1518 26.0229 19.2141 26.0229 19.2348 26.0229C19.2556 26.0229 19.2867 26.034 19.3075 26.0451C19.3282 26.0562 19.349 26.0784 19.3594 26.1006C19.3698 26.1339 19.3801 26.1672 19.3801 26.2004C19.3801 26.2337 19.3801 26.2559 19.3801 26.2892C19.3801 26.3114 19.3594 26.3336 19.3386 26.3558C19.3179 26.3779 19.2971 26.389 19.266 26.4001C19.2348 26.4001 19.2037 26.4001 19.1622 26.4001M18.9442 26.3669H19.1622C19.1622 26.3669 19.2244 26.3669 19.2556 26.3669C19.2763 26.3669 19.2971 26.3558 19.3179 26.3336C19.3282 26.3225 19.3386 26.3003 19.349 26.2781C19.349 26.2559 19.349 26.2337 19.349 26.2004C19.349 26.1672 19.349 26.145 19.3282 26.1228C19.3282 26.1006 19.3075 26.0895 19.2867 26.0784C19.266 26.0673 19.2452 26.0562 19.2244 26.0562H18.9338V26.3669H18.9442Z" fill="white"/>
<path d="M20.2109 26.8995H19.6504V25.9121H19.775V26.7886H20.2109V26.8995Z" fill="white"/>
<path d="M20.2323 26.9216H19.6406V25.9009H19.786V26.7774H20.2323V26.9216ZM19.6718 26.8883H20.2012V26.7995H19.7652V25.9231H19.6718V26.8772V26.8883Z" fill="white"/>
<path d="M21.1041 26.8997H20.9692L20.8654 26.6112H20.4813L20.3775 26.8997H20.2529L20.5955 25.9233H20.7201L21.0938 26.8997H21.1041ZM20.8239 26.4892L20.6578 26.0343L20.5124 26.4892H20.8239Z" fill="white"/>
<path d="M21.1242 26.9216H20.9581L20.8543 26.622H20.491L20.3872 26.9216H20.2314L20.5844 25.9009H20.7401L21.1242 26.9216ZM20.9789 26.8883H21.093L20.7297 25.9342H20.6155L20.273 26.8883H20.3664L20.4702 26.5887H20.8647L20.9685 26.8883H20.9789ZM20.8543 26.5111H20.5013L20.6778 26.0007L20.8543 26.5111ZM20.5429 26.4889H20.8128L20.6674 26.0895L20.5429 26.4889Z" fill="white"/>
<path d="M21.9139 26.8995H21.7893L21.3222 26.1229V26.8995H21.208V25.9121H21.3326L21.7997 26.6998V25.9121H21.9139V26.8995Z" fill="white"/>
<path d="M21.9339 26.9216H21.7886L21.3319 26.1782V26.9216H21.1865V25.9009H21.3319L21.7782 26.6331V25.9009H21.9235V26.9216H21.9339ZM21.8094 26.8883H21.9132V25.9342H21.8301V26.7441L21.3319 25.9342H21.228V26.8883H21.3111V26.0784L21.8094 26.8883Z" fill="white"/>
<path d="M22.8682 26.8997H22.7332L22.6294 26.6112H22.2557L22.1519 26.8997H22.0273L22.3699 25.9233H22.5049L22.8682 26.8997ZM22.5983 26.5003L22.4322 26.0454L22.2661 26.5003H22.5879H22.5983Z" fill="white"/>
<path d="M22.8888 26.9216H22.7227L22.6189 26.622H22.2556L22.1518 26.9216H21.9961L22.3594 25.9009H22.5047L22.8888 26.9216ZM22.7435 26.8883H22.8473L22.4944 25.9342H22.3802L22.048 26.8883H22.1518L22.2556 26.5887H22.6605L22.7539 26.8883H22.7435ZM22.6189 26.5111H22.266L22.4425 26.0007L22.6293 26.5111H22.6189ZM22.3075 26.4889H22.5774L22.4321 26.0895L22.3075 26.4889Z" fill="white"/>
<path d="M23.7409 26.8995H23.6164L23.5333 26.6333C23.5333 26.6333 23.5126 26.5889 23.5022 26.5667C23.4918 26.5445 23.471 26.5334 23.4607 26.5112C23.4399 26.5001 23.4191 26.489 23.3984 26.4779C23.3776 26.4779 23.3568 26.4779 23.3361 26.4779H23.1181V26.8995H23.0039V25.9121H23.471C23.471 25.9121 23.5126 25.9121 23.5333 25.9121C23.5541 25.9121 23.5748 25.9121 23.5852 25.9343C23.606 25.9343 23.6164 25.9565 23.6371 25.9676C23.6683 25.9898 23.689 26.0231 23.6994 26.0674C23.7098 26.1007 23.7202 26.1451 23.7202 26.1784C23.7202 26.2117 23.7202 26.2449 23.7202 26.2782C23.7202 26.3115 23.6994 26.3337 23.6786 26.3559C23.6579 26.3781 23.6371 26.4003 23.6164 26.4114C23.5956 26.4336 23.5645 26.4447 23.5333 26.4447C23.606 26.4779 23.6579 26.5445 23.6786 26.6222L23.7513 26.8884L23.7409 26.8995ZM23.1077 26.367H23.3776C23.3776 26.367 23.4399 26.367 23.471 26.367C23.4918 26.367 23.5229 26.3559 23.5333 26.3337C23.5541 26.3226 23.5645 26.3004 23.5748 26.2782C23.5748 26.256 23.5748 26.2228 23.5748 26.2006C23.5748 26.1562 23.5645 26.1118 23.5229 26.0785C23.4814 26.0452 23.4295 26.0342 23.3776 26.0342H23.0973V26.367H23.1077Z" fill="white"/>
<path d="M23.7401 26.9216H23.5844L23.491 26.6331C23.491 26.6331 23.4806 26.5887 23.4598 26.5777C23.4494 26.5555 23.4391 26.5444 23.4183 26.5333C23.3975 26.5222 23.3872 26.5111 23.3664 26.5C23.3456 26.5 23.3249 26.5 23.3041 26.5H23.1069V26.9216H22.9512V25.9009H23.5013L23.5636 25.9231C23.5636 25.9231 23.6052 25.9453 23.6155 25.9674C23.6467 26.0007 23.6674 26.034 23.6778 26.0673C23.6882 26.1117 23.6986 26.145 23.6986 26.1893C23.6986 26.2226 23.6986 26.2559 23.6986 26.2892C23.6882 26.3225 23.6674 26.3447 23.6571 26.3669C23.6363 26.389 23.6155 26.4112 23.5948 26.4223L23.5429 26.4445C23.5948 26.4889 23.6467 26.5444 23.6571 26.622L23.7401 26.9216ZM23.5948 26.8883H23.6986L23.6155 26.6442C23.5948 26.5666 23.5429 26.5111 23.4806 26.4778V26.4556C23.4806 26.4556 23.5325 26.4445 23.5636 26.4223C23.5844 26.4112 23.6052 26.389 23.6259 26.3669C23.6467 26.3447 23.6571 26.3225 23.6674 26.2892C23.6674 26.2559 23.6674 26.2337 23.6674 26.2004C23.6674 26.1672 23.6674 26.1228 23.6467 26.0895C23.6363 26.0562 23.6155 26.0229 23.5844 26.0007L23.5325 25.9674C23.5325 25.9674 23.5013 25.9564 23.4806 25.9453H22.9823V26.8994H23.0757V26.4556H23.3145C23.3145 26.4556 23.3664 26.4556 23.3872 26.4667C23.4079 26.4667 23.4287 26.4889 23.4494 26.5C23.4702 26.5111 23.4806 26.5333 23.5013 26.5555C23.5117 26.5777 23.5221 26.5998 23.5325 26.622L23.6052 26.8772L23.5948 26.8883ZM23.3456 26.378H23.0654V26.0118H23.3664C23.4183 26.0118 23.4702 26.0229 23.5221 26.0562C23.5636 26.0895 23.574 26.145 23.574 26.1893C23.574 26.2226 23.574 26.2448 23.574 26.2781C23.574 26.3003 23.5532 26.3225 23.5325 26.3336C23.5117 26.3447 23.491 26.3558 23.4598 26.3669C23.4287 26.3669 23.3975 26.3669 23.3664 26.3669M23.0965 26.3336H23.3664C23.3664 26.3336 23.4287 26.3336 23.4598 26.3336C23.4806 26.3336 23.5013 26.3225 23.5221 26.3114C23.5325 26.3114 23.5532 26.2892 23.5532 26.267C23.5532 26.2448 23.5532 26.2115 23.5532 26.1893C23.5532 26.145 23.5429 26.1006 23.5117 26.0784C23.4702 26.0451 23.4287 26.034 23.3768 26.0451H23.1069V26.3447L23.0965 26.3336Z" fill="white"/>
<path d="M24.4462 25.9121H24.332V26.8995H24.4462V25.9121Z" fill="white"/>
<path d="M24.4676 26.9216H24.3223V25.9009H24.4676V26.9216ZM24.3534 26.8883H24.4468V25.9342H24.3534V26.8883Z" fill="white"/>
<path d="M25.3807 26.8995H25.2665L24.789 26.1229V26.8995H24.6748V25.9121H24.7994L25.2665 26.6998V25.9121H25.3807V26.8995Z" fill="white"/>
<path d="M25.4017 26.9216H25.2564L24.7996 26.1782V26.9216H24.6543V25.9009H24.7996L25.246 26.6331V25.9009H25.3913V26.9216H25.4017ZM25.2771 26.8883H25.3809V25.9342H25.2979V26.7441L24.81 25.9342H24.7062V26.8883H24.7892V26.0784L25.2771 26.8883Z" fill="white"/>
<path d="M26.2319 26.0342H25.9309V26.8995H25.8167V26.0342H25.5156V25.9121H26.2319V26.0342Z" fill="white"/>
<path d="M25.9415 26.9217H25.7962V26.0563H25.4951V25.9121H26.2425V26.0563H25.9415V26.9217ZM25.8273 26.8884H25.9207V26.0231H26.2218V25.9343H25.5263V26.0231H25.8273V26.8995V26.8884Z" fill="white"/>
<path d="M27.0416 26.8995H26.3564V25.9121H27.0208V26.0342H26.481V26.3337H26.9793V26.4557H26.481V26.7886H27.0416V26.8995Z" fill="white"/>
<path d="M27.0516 26.9216H26.3457V25.9009H27.0308V26.0451H26.5014V26.3336H26.9997V26.4778H26.491V26.7774H27.0516V26.9216ZM26.3768 26.8883H27.0308V26.7995H26.4599V26.4334H26.9582V26.3447H26.4599V26.0118H26.9893V25.9231H26.3768V26.8772V26.8883Z" fill="white"/>
<path d="M28.9935 26.8774H28.8689L28.7859 26.6112C28.7859 26.6112 28.7859 26.5668 28.7651 26.5446C28.7547 26.5224 28.734 26.5113 28.7236 26.4891C28.7028 26.478 28.6925 26.4669 28.6717 26.4558C28.6509 26.4558 28.6302 26.4558 28.6094 26.4558H28.3914V26.8774H28.2461V25.8789H28.7236C28.7236 25.8789 28.7651 25.8789 28.7859 25.8789C28.8066 25.8789 28.8274 25.8789 28.8482 25.9011C28.8689 25.9011 28.8793 25.9233 28.9001 25.9344C28.9312 25.9566 28.952 25.9899 28.9624 26.0342C28.9727 26.0675 28.9831 26.1119 28.9831 26.1452C28.9831 26.1785 28.9831 26.2117 28.9727 26.245C28.9727 26.2783 28.952 26.3005 28.9312 26.3227C28.9105 26.3449 28.8897 26.3671 28.8689 26.3782C28.8378 26.3893 28.817 26.4115 28.7859 26.4115C28.8586 26.4447 28.9105 26.5113 28.9312 26.589L29.0246 26.8663L28.9935 26.8774ZM28.3603 26.3449H28.6302C28.6302 26.3449 28.6925 26.3449 28.7236 26.3449C28.7444 26.3449 28.7651 26.3338 28.7859 26.3116C28.8066 26.3005 28.817 26.2783 28.8274 26.2561C28.8274 26.2339 28.8274 26.2007 28.8274 26.1785C28.8274 26.1341 28.817 26.0897 28.7755 26.0564C28.734 26.0231 28.6821 26.012 28.6302 26.012H28.3603V26.3449Z" fill="white"/>
<path d="M29.0347 26.8884H28.8686L28.7855 26.5999C28.7855 26.5999 28.7648 26.5555 28.7544 26.5445C28.744 26.5223 28.7232 26.5112 28.7129 26.5001C28.6921 26.489 28.6817 26.4779 28.661 26.4668C28.6402 26.4668 28.6194 26.4668 28.5987 26.4668H28.3911V26.8884H28.2354V25.8677H28.7855L28.8478 25.8899C28.8997 25.9231 28.9412 25.9675 28.962 26.0341C28.9828 26.0674 28.9828 26.1118 28.9828 26.1561C28.9828 26.1894 28.9828 26.2227 28.962 26.256C28.9516 26.2893 28.9412 26.3115 28.9205 26.3337C28.8997 26.3558 28.879 26.378 28.8478 26.3891L28.7959 26.4113C28.8478 26.4557 28.8893 26.5112 28.9101 26.5888L29.0139 26.8884H29.0347ZM28.8893 26.8551H28.9931L28.9101 26.611C28.8893 26.5334 28.8374 26.4779 28.7751 26.4446V26.4224C28.7751 26.4224 28.8374 26.4113 28.8582 26.3891C28.879 26.378 28.8997 26.3558 28.9205 26.3337C28.9412 26.3115 28.9516 26.2893 28.962 26.256C28.962 26.2227 28.962 26.2005 28.962 26.1672C28.962 26.1339 28.962 26.0896 28.9412 26.0563C28.9309 26.023 28.9101 25.9897 28.879 25.9675C28.8686 25.9564 28.8478 25.9453 28.827 25.9342C28.8063 25.9342 28.7855 25.9231 28.7648 25.9231C28.744 25.9231 28.7232 25.9231 28.7025 25.9231H28.2561V26.8551H28.3495V26.4335H28.5883C28.5883 26.4335 28.6402 26.4335 28.661 26.4335C28.6817 26.4335 28.7025 26.4557 28.7232 26.4668C28.744 26.4779 28.7544 26.5001 28.7751 26.5223C28.7855 26.5445 28.8063 26.5666 28.8063 26.5888L28.8997 26.8551H28.8893ZM28.6402 26.3447H28.3495V25.9786H28.6506C28.7025 25.9786 28.7648 25.9786 28.8063 26.023C28.8478 26.0563 28.8686 26.1118 28.8582 26.1561C28.8582 26.1894 28.8582 26.2116 28.8582 26.2449C28.8582 26.2671 28.8374 26.2893 28.8167 26.3004C28.7959 26.3115 28.7751 26.3226 28.744 26.3337C28.7129 26.3337 28.6817 26.3337 28.6402 26.3337M28.3703 26.3004H28.6402C28.6402 26.3004 28.7025 26.3004 28.7336 26.3004C28.7544 26.3004 28.7751 26.2893 28.7959 26.2782C28.8063 26.2671 28.827 26.256 28.827 26.2338C28.827 26.2116 28.827 26.1783 28.827 26.1561C28.827 26.1118 28.8167 26.0674 28.7855 26.0452C28.744 26.0119 28.6921 26.0008 28.6506 26.0119H28.3807V26.3115L28.3703 26.3004Z" fill="white"/>
<path d="M29.9063 26.8776H29.7713L29.6675 26.578H29.3042L29.2004 26.8776H29.0654L29.408 25.8901H29.5326L29.9063 26.8776ZM29.6364 26.4782L29.4703 26.0233L29.3146 26.4782H29.626H29.6364Z" fill="white"/>
<path d="M29.9269 26.8884H29.7608L29.657 26.5888H29.3041L29.2003 26.8884H29.0342L29.3871 25.8677H29.5428L29.9269 26.8884ZM29.7816 26.8551H29.8854L29.5324 25.901H29.4183L29.0757 26.8551H29.1691L29.2729 26.5555H29.6778L29.7816 26.8551ZM29.657 26.489H29.3041L29.4805 25.9786L29.657 26.489ZM29.3456 26.4557H29.6155L29.4702 26.0563L29.3456 26.4557Z" fill="white"/>
<path d="M30.644 26.0122H30.3533V26.8776H30.2288V26.0122H29.9277V25.8901H30.644V26.0122Z" fill="white"/>
<path d="M30.353 26.8885H30.2076V26.0231H29.917V25.8789H30.6644V26.0231H30.353V26.8885ZM30.2388 26.8552H30.3322V25.9899H30.6333V25.9011H29.9481V25.9899H30.2492V26.8552H30.2388Z" fill="white"/>
<path d="M30.9032 25.8901H30.7891V26.8776H30.9032V25.8901Z" fill="white"/>
<path d="M30.9236 26.8884H30.7783V25.8677H30.9236V26.8884ZM30.8095 26.8551H30.9029V25.901H30.8095V26.8551Z" fill="white"/>
<path d="M31.5262 25.8789C31.5885 25.8789 31.6404 25.89 31.7027 25.9122C31.7546 25.9344 31.7961 25.9677 31.8376 26.012C31.8791 26.0564 31.9103 26.1119 31.931 26.1785C31.9518 26.245 31.9622 26.3116 31.9622 26.3893C31.9622 26.4558 31.9518 26.5335 31.931 26.6001C31.9103 26.6555 31.8791 26.711 31.848 26.7665C31.7234 26.8996 31.5262 26.944 31.3601 26.8663C31.3082 26.8441 31.2563 26.8109 31.2252 26.7665C31.1836 26.7221 31.1525 26.6666 31.1317 26.6001C31.111 26.5335 31.1006 26.4669 31.1006 26.3893C31.1006 26.3227 31.1006 26.245 31.1317 26.1785C31.1525 26.123 31.1836 26.0675 31.2252 26.012C31.2667 25.9677 31.3082 25.9344 31.3601 25.9122C31.412 25.89 31.4743 25.8789 31.5366 25.8789M31.5366 26.7887C31.5366 26.7887 31.6196 26.7887 31.6611 26.7554C31.7027 26.7332 31.7338 26.711 31.7546 26.6777C31.7857 26.6444 31.8065 26.6001 31.8168 26.5557C31.848 26.4447 31.848 26.3338 31.8168 26.2228C31.8065 26.1785 31.7857 26.1341 31.7546 26.1008C31.7234 26.0675 31.6923 26.0453 31.6611 26.0231C31.6196 26.0009 31.5781 26.0009 31.5366 26.0009C31.495 26.0009 31.4535 26.0009 31.412 26.0231C31.3705 26.0453 31.3393 26.0675 31.3186 26.1008C31.2874 26.1341 31.2667 26.1785 31.2563 26.2228C31.2252 26.3338 31.2252 26.4447 31.2563 26.5557C31.2667 26.6001 31.2978 26.6444 31.3186 26.6777C31.3497 26.711 31.3809 26.7332 31.412 26.7554C31.4535 26.7776 31.495 26.7887 31.5366 26.7887Z" fill="white"/>
<path d="M31.5261 26.9108C31.4638 26.9108 31.4015 26.8998 31.3392 26.8665C31.2873 26.8443 31.2354 26.811 31.1939 26.7777C31.1524 26.7333 31.1212 26.6779 31.1005 26.6113C31.0797 26.5447 31.0693 26.4671 31.0693 26.4005C31.0693 26.3228 31.0797 26.2563 31.1005 26.1897C31.1212 26.1231 31.1524 26.0677 31.1939 26.0233C31.2354 25.9789 31.2873 25.9456 31.3392 25.9234C31.3911 25.9012 31.4534 25.8901 31.5157 25.8901C31.578 25.8901 31.6403 25.9012 31.6922 25.9234C31.7441 25.9456 31.796 25.9789 31.8375 26.0344C31.879 26.0787 31.9102 26.1342 31.9309 26.2008C31.9725 26.3339 31.9725 26.4892 31.9309 26.6335C31.9102 26.7 31.879 26.7555 31.8375 26.7999C31.796 26.8443 31.7441 26.8776 31.6922 26.9108C31.6403 26.933 31.578 26.9552 31.5157 26.9552M31.5157 25.9345C31.4534 25.9345 31.4015 25.9456 31.3496 25.9678C31.2977 25.99 31.2562 26.0233 31.2147 26.0677C31.1731 26.112 31.142 26.1675 31.1316 26.223C31.1109 26.2895 31.1005 26.3561 31.1005 26.4227C31.1005 26.4892 31.1005 26.5558 31.1316 26.6224C31.1524 26.6779 31.1835 26.7333 31.2147 26.7777C31.2458 26.8221 31.2977 26.8554 31.3496 26.8776C31.4015 26.8998 31.4638 26.9108 31.5157 26.9108C31.578 26.9108 31.6299 26.8998 31.6818 26.8776C31.7337 26.8554 31.7752 26.8221 31.8167 26.7777C31.8583 26.7333 31.879 26.6779 31.8998 26.6224C31.9205 26.5558 31.9309 26.4892 31.9309 26.4227C31.9309 26.3561 31.9309 26.2895 31.8998 26.223C31.879 26.1675 31.8479 26.112 31.8167 26.0677C31.7752 26.0233 31.7337 25.99 31.6818 25.9678C31.6299 25.9456 31.5676 25.9345 31.5157 25.9345ZM31.5157 26.8443C31.5157 26.8443 31.4223 26.8443 31.3911 26.811C31.3496 26.7888 31.3185 26.7666 31.2873 26.7333C31.2562 26.7 31.2354 26.6557 31.2147 26.6002C31.1939 26.5447 31.1939 26.4892 31.1939 26.4227C31.1939 26.3672 31.1939 26.3006 31.2147 26.2452C31.225 26.2008 31.2562 26.1564 31.2873 26.112C31.3185 26.0787 31.3496 26.0455 31.3911 26.0344C31.4742 26.0011 31.5676 26.0011 31.661 26.0344C31.7026 26.0566 31.7337 26.0787 31.7648 26.112C31.796 26.1453 31.8167 26.1897 31.8271 26.2452C31.8583 26.3561 31.8583 26.4782 31.8271 26.5891C31.8167 26.6335 31.7856 26.6779 31.7648 26.7222C31.7337 26.7555 31.7026 26.7888 31.661 26.7999C31.6195 26.8221 31.578 26.8332 31.5261 26.8332M31.5261 26.0344C31.5261 26.0344 31.443 26.0344 31.4119 26.0566C31.3808 26.0787 31.3496 26.1009 31.3185 26.1342C31.2873 26.1675 31.2666 26.2119 31.2562 26.2563C31.2354 26.3117 31.2354 26.3672 31.2354 26.4227C31.2354 26.4782 31.2354 26.5336 31.2562 26.5891C31.2666 26.6335 31.2873 26.6779 31.3185 26.7111C31.3392 26.7444 31.3704 26.7666 31.4119 26.7888C31.4534 26.811 31.4846 26.811 31.5261 26.811C31.5676 26.811 31.6091 26.811 31.6507 26.7888C31.6818 26.7666 31.7129 26.7444 31.7441 26.7111C31.7752 26.6779 31.796 26.6335 31.8064 26.5891C31.8375 26.4782 31.8375 26.3672 31.8064 26.2563C31.796 26.2119 31.7752 26.1786 31.7441 26.1342C31.7129 26.1009 31.6818 26.0787 31.6507 26.0566C31.6091 26.0344 31.5676 26.0344 31.5365 26.0344" fill="white"/>
<path d="M32.8231 26.8776H32.7089L32.2314 26.1009V26.8776H32.1172V25.8901H32.2418L32.7089 26.6668V25.8901H32.8231V26.8776Z" fill="white"/>
<path d="M32.8441 26.8884H32.6988L32.242 26.145V26.8884H32.0967V25.8677H32.242L32.6884 26.5999V25.8677H32.8337V26.8884H32.8441ZM32.7195 26.8551H32.8233V25.901H32.7403V26.7109L32.242 25.901H32.1382V26.8551H32.2109V26.0452L32.7195 26.8551Z" fill="white"/>
<path d="M27.9762 26.7774C27.8723 26.8329 27.7685 26.8551 27.6544 26.8551C27.5298 26.8551 27.4156 26.8107 27.3222 26.722C27.2391 26.6332 27.1872 26.5112 27.1976 26.378C27.1976 26.2449 27.2495 26.1118 27.3429 26.0119C27.4364 25.9121 27.5713 25.8677 27.7063 25.8677C27.7997 25.8677 27.9035 25.8677 27.9969 25.9121V26.0341C27.9139 25.9786 27.8101 25.9564 27.7166 25.9564C27.6128 25.9564 27.5194 25.9897 27.4467 26.0674C27.3741 26.145 27.3326 26.2449 27.3429 26.3558C27.3429 26.4557 27.3741 26.5666 27.4364 26.6443C27.509 26.722 27.6024 26.7552 27.7063 26.7442C27.7789 26.7442 27.8412 26.7331 27.9035 26.6998V26.4335H27.6959V26.3337H27.9969V26.7663L27.9762 26.7774Z" fill="white"/>
<path d="M27.6539 26.8885C27.5293 26.8885 27.3944 26.8441 27.301 26.7553C27.2075 26.6666 27.166 26.5334 27.166 26.4003C27.166 26.2561 27.2179 26.1229 27.3113 26.0231C27.4152 25.9232 27.5501 25.8677 27.6954 25.8788C27.7889 25.8788 27.8719 25.901 27.9653 25.9454V26.1229L27.9342 26.1007C27.8511 26.0564 27.7577 26.0342 27.6643 26.0342C27.5709 26.0342 27.4671 26.0675 27.3944 26.134C27.2491 26.2672 27.2387 26.489 27.3632 26.6444C27.4359 26.7331 27.5293 26.7775 27.6435 26.7664C27.7058 26.7664 27.7681 26.7664 27.82 26.7331V26.5001H27.602V26.3559H27.9653V26.8219C27.8615 26.8774 27.7473 26.9106 27.6331 26.9106M27.685 25.9343C27.5605 25.9343 27.4359 25.9787 27.3425 26.0675C27.2491 26.1562 27.2075 26.2783 27.2075 26.4114C27.2075 26.5334 27.2491 26.6555 27.3321 26.7442C27.4152 26.833 27.5397 26.8774 27.6539 26.8663C27.7577 26.8663 27.8615 26.8441 27.9549 26.7997V26.4003H27.6539V26.4558H27.8719V26.7553C27.8096 26.7886 27.737 26.7997 27.6643 26.7997C27.4463 26.7997 27.2802 26.6 27.2906 26.3781C27.2906 26.2672 27.3321 26.1673 27.4048 26.1007C27.4774 26.0231 27.5709 25.9898 27.6747 25.9898C27.7681 25.9898 27.8615 26.012 27.9446 26.0453V25.9676C27.8615 25.9343 27.7785 25.9232 27.6954 25.9232" fill="white"/>
</g>
<circle cx="20" cy="20" r="19.5" stroke="black" stroke-opacity="0.05"/>
<defs>
<clipPath id="clip0_18553_55583">
<rect width="27" height="15" fill="white" transform="translate(6 12.6318)"/>
</clipPath>
</defs>
</svg>
