<svg width="40" height="40" viewBox="0 0 40 40" fill="none" xmlns="http://www.w3.org/2000/svg">
<circle cx="20" cy="20" r="20" fill="#DC2828"/>
<g clip-path="url(#clip0_18553_55606)">
<path d="M22.9645 17.0244C24.0588 17.0244 24.571 15.935 24.571 14.5409C24.571 13.1468 24.0413 12 22.9645 12C21.8876 12 21.3555 13.1393 21.3555 14.5409C21.3555 15.9425 21.8676 17.0244 22.9645 17.0244Z" fill="white"/>
<path d="M17.0284 17.0244C18.1252 17.0244 18.6374 15.935 18.6374 14.5409C18.6374 13.1468 18.1077 12 17.0284 12C15.949 12 15.4219 13.1393 15.4219 14.5409C15.4219 15.9425 15.939 17.0244 17.0284 17.0244Z" fill="white"/>
<path d="M19.9988 24.4998C16.1736 24.4998 13.3604 21.9564 13.3604 18.4561H10C10 23.7502 14.2998 27.7427 19.9938 27.7427C25.6877 27.7427 29.9875 23.7452 29.9875 18.4561H26.6396C26.6396 21.9564 23.8264 24.4998 19.9988 24.4998Z" fill="white"/>
</g>
<circle cx="20" cy="20" r="19.5" stroke="black" stroke-opacity="0.05"/>
<defs>
<clipPath id="clip0_18553_55606">
<rect width="20" height="15.7452" fill="white" transform="translate(10 12)"/>
</clipPath>
</defs>
</svg>
