<svg width="40" height="40" viewBox="0 0 40 40" fill="none" xmlns="http://www.w3.org/2000/svg">
<circle cx="20" cy="20" r="20" fill="#FCE1E6"/>
<g clip-path="url(#clip0_17752_43959)">
<path d="M28.2977 21.4272C28.2977 22.4047 29.0942 23.2013 30.0718 23.2013C31.0493 23.2013 31.8459 22.4047 31.8459 21.4272V14.4484C31.8459 13.2445 30.8683 12.276 29.6645 12.276C29.2934 12.276 28.9404 12.3665 28.6236 12.5385C28.4425 11.6695 27.6641 11.0178 26.7318 11.0178C26.2068 11.0178 25.7181 11.2169 25.356 11.588L20.8303 16.1139L16.5309 11.8777C15.3632 10.71 13.4624 10.71 12.2948 11.8777C12.1409 12.0225 12.0142 12.1855 11.9056 12.3574C11.1091 12.3574 10.3488 12.6652 9.78757 13.2354C8.61994 14.4031 8.61994 16.3039 9.78757 17.4716L15.68 23.3642C16.1688 23.853 16.4494 24.5138 16.4494 25.2107C16.4494 25.7176 16.3046 26.1974 16.0421 26.6137C15.5533 26.5142 15.0826 26.2788 14.7025 25.8987L9.67896 20.875C9.38026 20.5763 8.99105 20.4134 8.57468 20.4134C8.15832 20.4134 7.76911 20.5763 7.47041 20.875C7.17171 21.1647 7.00879 21.5629 7.00879 21.9793C7.00879 22.3957 7.17171 22.7849 7.47041 23.0836L11.7065 27.3379C12.2677 27.8991 13.028 28.2159 13.8245 28.2159C14.621 28.2159 15.3813 27.9081 15.9425 27.3379C16.0421 27.2383 16.1236 27.1387 16.205 27.0392C16.3136 27.0482 16.4223 27.0573 16.5399 27.0573C17.3364 27.0573 18.0968 26.7495 18.658 26.1793C19.2191 25.6181 19.5359 24.8577 19.5359 24.0612C19.5359 23.2646 19.2282 22.5043 18.658 21.9431L12.5664 15.8423C11.7336 15.0096 11.5798 13.7423 12.1138 12.7467C12.7293 12.801 13.2995 13.0635 13.743 13.507L17.5356 17.2996C18.2597 18.0328 19.4454 18.0328 20.1786 17.2996L20.8212 16.657L21.3462 17.1729C22.1971 18.0147 23.5729 18.0147 24.4147 17.1729L28.2977 13.2898V21.4272ZM28.6869 12.9729C28.6869 12.9639 28.6869 12.9639 28.6869 12.9729C28.9766 12.7738 29.3205 12.6652 29.6826 12.6652C30.6692 12.6652 31.4748 13.4708 31.4748 14.4574V21.4362C31.4748 22.2056 30.8502 22.8302 30.0808 22.8302C29.3115 22.8302 28.6869 22.2056 28.6869 21.4362V12.9729ZM15.671 27.0663C14.6482 28.0892 12.9918 28.0892 11.978 27.0663L7.7329 22.8211C7.50662 22.5948 7.38895 22.3052 7.38895 21.9884C7.38895 21.6716 7.50662 21.3728 7.7329 21.1556C7.95919 20.9384 8.24883 20.8116 8.56563 20.8116C8.88243 20.8116 9.18113 20.9293 9.39836 21.1556L14.4219 26.1702C14.8021 26.5504 15.2727 26.8129 15.7796 26.9486C15.7434 26.9939 15.7072 27.0301 15.671 27.0663ZM12.2948 16.1139L18.3864 22.2056C19.4092 23.2284 19.4092 24.8849 18.3864 25.8987C17.8524 26.4327 17.1464 26.6862 16.4494 26.659C16.6938 26.2155 16.8205 25.7267 16.8205 25.2107C16.8205 24.4142 16.5128 23.6539 15.9425 23.0927L10.0501 17.2001C9.55224 16.7022 9.28069 16.0505 9.28069 15.3535C9.28069 14.6565 9.55224 13.9958 10.0501 13.507C10.4936 13.0635 11.0729 12.801 11.6884 12.7467C11.1815 13.851 11.3897 15.2087 12.2948 16.1139ZM19.9071 17.0281C19.3278 17.6074 18.3864 17.6074 17.8071 17.0281L14.0146 13.2354C13.553 12.7738 12.9737 12.4842 12.3491 12.3936C12.4125 12.3122 12.4849 12.2307 12.5664 12.1492C13.5892 11.1264 15.2456 11.1264 16.2593 12.1492L20.5497 16.3854L19.9071 17.0281ZM28.1348 12.9186L24.1431 16.9104C23.4462 17.6074 22.3147 17.6074 21.6178 16.9104L21.0928 16.3945L25.6185 11.8686C25.9172 11.5699 26.3064 11.407 26.7318 11.407C27.5374 11.407 28.1981 12.0135 28.2887 12.7829C28.2343 12.8191 28.1891 12.8643 28.1348 12.9186Z" fill="black"/>
<path d="M30.0895 24.2056C29.0305 24.2056 28.1797 25.0564 28.1797 26.1155C28.1797 27.1745 29.0305 28.0254 30.0895 28.0254C31.1486 28.0254 31.9994 27.1745 31.9994 26.1155C31.9994 25.0655 31.1395 24.2056 30.0895 24.2056ZM30.0895 27.6452C29.2478 27.6452 28.5598 26.9573 28.5598 26.1155C28.5598 25.2737 29.2478 24.5857 30.0895 24.5857C30.9313 24.5857 31.6192 25.2737 31.6192 26.1155C31.6192 26.9573 30.9313 27.6452 30.0895 27.6452Z" fill="black"/>
</g>
<circle cx="20" cy="20" r="19.5" stroke="black" stroke-opacity="0.05"/>
<defs>
<clipPath id="clip0_17752_43959">
<rect width="25" height="17.2162" fill="white" transform="translate(7 11)"/>
</clipPath>
</defs>
</svg>
