<svg width="40" height="40" viewBox="0 0 40 40" fill="none" xmlns="http://www.w3.org/2000/svg">
<circle cx="20" cy="20" r="20" fill="#004899"/>
<path d="M28.1181 20.0317L21.0019 19.701L20.6866 12.7915H20.6763L20.3507 19.701L13.25 20.0317V20.0473L20.3507 20.3522L20.6763 27.6596H20.6866L21.0019 20.3522L28.1181 20.0473V20.0317Z" fill="#F39200"/>
<path d="M18.4278 9.47363V9.78371H18.2728C17.8284 9.78371 17.3426 9.87156 17.3426 11.1119V15.8508C17.3371 16.1964 17.3579 16.542 17.4046 16.8844H17.0067L11.6424 10.9258V15.2359C11.6424 16.1454 11.8181 16.4606 12.6191 16.4606H12.8103V16.7656H10.0352V16.4606H10.1799C10.9034 16.4606 11.1153 15.9439 11.1153 15.1325V10.7449C11.1159 10.6208 11.0919 10.4978 11.0446 10.383C10.9972 10.2682 10.9275 10.164 10.8395 10.0765C10.7515 9.98894 10.6469 9.91979 10.5319 9.87307C10.4168 9.82636 10.2937 9.80301 10.1695 9.80438H10.0352V9.4943H12.1592L16.8103 14.7191V14.6932V10.7863C16.8282 10.6594 16.8176 10.5301 16.7793 10.4078C16.741 10.2854 16.676 10.1732 16.5889 10.0792C16.5018 9.98515 16.3948 9.9117 16.2758 9.86417C16.1568 9.81664 16.0286 9.79621 15.9007 9.80438H15.6733V9.4943L18.4278 9.47363Z" fill="white"/>
<path d="M25.6318 16.7449V16.44H25.7817C26.1538 16.44 26.5517 16.378 26.5517 15.8353V10.3832C26.5517 9.83539 26.1538 9.78371 25.7817 9.78371H25.6318V9.47363H28.8308V9.78371H28.6861C28.314 9.78371 27.9212 9.83539 27.9212 10.3832V15.8353C27.9212 16.378 28.314 16.44 28.6861 16.44H28.8308V16.7449H25.6318Z" fill="white"/>
<path d="M16.9448 30.2226C16.1901 30.5428 15.3771 30.7029 14.5573 30.6929C12.211 30.6929 10.4746 29.4112 10.4746 26.7962C10.4746 24.4655 12.3609 23.1167 14.5056 23.1167C15.7252 23.1167 16.1231 23.4888 17.0895 23.6335L17.1774 25.3751L16.8621 25.4164C16.5727 24.3828 16.0921 23.5715 14.5262 23.5715C12.8208 23.5715 11.9423 24.9151 11.9423 26.7342C11.9423 28.4707 12.8312 30.2381 14.8001 30.2381C15.3027 30.2471 15.7921 30.0768 16.1804 29.7576C16.5687 29.4384 16.8306 28.9913 16.919 28.4965L17.2187 28.5378L16.9448 30.2226Z" fill="white"/>
<path d="M24.1182 30.5538V30.223H24.268C24.6505 30.223 25.0381 30.1765 25.0381 29.6339V24.1817C25.0381 23.6649 24.6505 23.5874 24.268 23.5874H24.1182V23.2773H29.3894C29.361 23.8075 29.361 24.3389 29.3894 24.8691L29.0794 24.9569C29.0225 24.2748 28.8985 23.7373 27.8029 23.7373H26.3559V26.4659H27.5962C28.2215 26.4659 28.361 26.1094 28.4179 25.5461H28.7331V27.9543L28.4179 28.0215C28.361 27.391 28.3248 26.9879 27.6013 26.9879H26.3559V29.4168C26.3559 30.0938 26.9605 30.0938 27.6272 30.0938C28.883 30.0938 29.4308 30.0111 29.746 28.8173L30.0354 28.8949C29.9011 29.4478 29.777 29.9956 29.6892 30.5538H24.1182Z" fill="white"/>
<circle cx="20" cy="20" r="19.5" stroke="black" stroke-opacity="0.05"/>
</svg>
