<svg width="40" height="40" viewBox="0 0 40 40" fill="none" xmlns="http://www.w3.org/2000/svg">
<circle cx="20" cy="20" r="20" fill="#767678"/>
<g clip-path="url(#clip0_18553_55620)">
<path d="M26.5363 20.1843C26.5363 20.1843 26.5203 20.2652 26.5363 20.2976C27.0156 20.9857 27.3032 21.7386 27.391 22.5563C27.7265 25.6488 26.4005 29.1218 22.6463 28.3689C22.2628 28.2961 21.7995 28.0208 21.2644 27.5513C21.1845 27.4784 21.1445 27.5027 21.1605 27.6079C21.2164 28.1584 21.2164 28.6766 21.1605 29.1704C21.1605 29.2109 21.1605 29.2433 21.1845 29.2756C21.2005 29.308 21.2244 29.3404 21.2404 29.3566C21.1925 29.3971 21.1685 29.4375 21.1685 29.478C21.1845 29.8909 21.2005 30.3119 21.2164 30.7328C21.2164 30.9029 21.1445 30.9838 20.9768 30.9919H19.9064C19.7307 30.9919 19.6428 30.9109 19.6508 30.7328L19.6668 29.3485V20.2409C19.6668 20.2005 19.6348 20.1681 19.5869 20.1681H11.008L11 10.0891C11 10.0405 11.0399 10 11.0879 10H21.2404C21.3123 10 21.3602 10.0486 21.3602 10.1214V19.7552C21.3602 19.99 21.4401 20.0143 21.5919 19.8443C21.8954 19.5042 22.2229 19.2776 22.5744 19.1642C24.0521 18.6947 25.3222 19.0023 26.3766 20.0871C26.4165 20.1276 26.4724 20.16 26.5363 20.1762V20.1843ZM14.4268 15.6588H19.0837C19.2434 15.6588 19.3073 15.5779 19.2914 15.416C19.0917 13.8697 18.8361 12.0158 17.0068 11.6191C15.3294 11.2548 13.7238 12.0239 13.2126 13.7483C13.0768 14.2016 13.0049 14.744 12.997 15.3593C12.973 17.5937 14.2431 19.0752 16.5995 18.8404C17.9574 18.7109 18.8041 17.9256 19.1476 16.4927C19.1476 16.4846 19.1476 16.4765 19.1316 16.4684C18.7482 16.4522 18.3648 16.4684 17.9893 16.4927C17.9654 16.4927 17.9494 16.5089 17.9414 16.5251C17.4622 17.6261 16.6314 17.9985 15.4572 17.6584C14.6584 17.4318 14.291 16.5412 14.307 15.7641C14.307 15.6831 14.3469 15.6426 14.4268 15.6426V15.6588ZM23.1575 27.0574C24.9068 27.2841 25.6976 25.835 25.8014 24.313C25.9053 22.7749 25.7775 20.6376 23.7885 20.4271C21.6478 20.2005 21.2164 22.192 21.1286 23.8678C21.0567 25.2197 21.5919 26.8631 23.1575 27.0655V27.0574Z" fill="#EDA140"/>
<path d="M14.3074 15.78C14.2994 16.5572 14.6669 17.4396 15.4577 17.6744C16.6319 18.0144 17.4626 17.6339 17.9419 16.541C17.9499 16.5167 17.9658 16.5087 17.9898 16.5087C18.3732 16.4763 18.7566 16.4682 19.1321 16.4844C19.14 16.4844 19.148 16.4925 19.148 16.5006C18.8046 17.9335 17.9578 18.7188 16.5999 18.8483C14.2435 19.0831 12.9734 17.6016 12.9974 15.3672C12.9974 14.7519 13.0773 14.2176 13.2131 13.7561C13.7243 12.0318 15.3298 11.2546 17.0073 11.627C18.8365 12.0237 19.0921 13.8776 19.2918 15.4238C19.3158 15.5858 19.2439 15.6586 19.0841 15.6586H14.4272C14.3473 15.6586 14.3074 15.6991 14.3074 15.78ZM14.3793 14.6062L17.9339 14.59C17.9339 14.59 17.9738 14.5738 17.9738 14.5495V14.5171C17.9738 13.4971 17.1511 12.6794 16.1446 12.6794C15.1381 12.6794 14.3314 13.5133 14.3314 14.5333V14.5657C14.3314 14.5657 14.3473 14.6062 14.3713 14.6062H14.3793Z" fill="#211917"/>
<path d="M14.371 14.6064C14.371 14.6064 14.3311 14.5903 14.3311 14.566V14.5336C14.3311 13.5135 15.1378 12.6878 16.1443 12.6797C17.1508 12.6797 17.9655 13.4973 17.9735 14.5174V14.5498C17.9735 14.5498 17.9575 14.5903 17.9336 14.5903L14.379 14.6064H14.371Z" fill="#EDA140"/>
<path d="M11.008 20.168H19.5869C19.6269 20.1761 19.6588 20.2165 19.6588 20.257V29.3646H11.2955C11.2636 29.3646 11.2316 29.3727 11.1997 29.3889C11.1757 29.4051 11.1518 29.4131 11.1438 29.4051C11.0639 29.3889 11 29.316 11 29.227C11 26.3773 11 23.5357 11 20.7104C11 20.4675 11 20.2894 11 20.168H11.008Z" fill="#211917"/>
<path d="M26.5362 20.1841H31.872C31.9439 20.1841 31.9999 20.2488 31.9999 20.3136C31.9999 20.3379 31.9999 20.3622 31.9839 20.3784C31.912 20.4998 31.8561 20.6212 31.8081 20.7508C30.7298 23.5842 29.6754 26.3853 28.645 29.154C28.597 29.2754 28.4852 29.3564 28.3494 29.3564H21.2402C21.2402 29.3564 21.2003 29.3078 21.1843 29.2754C21.1684 29.2431 21.1604 29.2026 21.1604 29.1702C21.2083 28.6764 21.2083 28.1583 21.1604 27.6078C21.1524 27.5025 21.1843 27.4782 21.2642 27.5511C21.7994 28.0206 22.2627 28.2878 22.6461 28.3687C26.4084 29.1216 27.7344 25.6567 27.3909 22.5561C27.303 21.7384 27.0154 20.9855 26.5362 20.2974C26.5122 20.265 26.5042 20.2246 26.5362 20.1841Z" fill="#211917"/>
<path d="M25.8012 24.3131C25.6974 25.8431 24.9066 27.2842 23.1573 27.0575C21.5917 26.8551 21.0565 25.2198 21.1284 23.8597C21.2162 22.1839 21.6476 20.1924 23.7883 20.4191C25.7773 20.6296 25.9051 22.7668 25.8012 24.305V24.3131Z" fill="#211917"/>
</g>
<circle cx="20" cy="20" r="19.5" stroke="black" stroke-opacity="0.05"/>
<defs>
<clipPath id="clip0_18553_55620">
<rect width="21" height="21" fill="white" transform="translate(11 10)"/>
</clipPath>
</defs>
</svg>
