<svg width="40" height="40" viewBox="0 0 40 40" fill="none" xmlns="http://www.w3.org/2000/svg">
<circle cx="20" cy="20" r="20" fill="#040304"/>
<g clip-path="url(#clip0_29067_47944)">
<path d="M11.9542 21.5264H10.3402L8.78292 20.2168C8.78292 20.2168 8.7693 20.2102 8.76249 20.2168L8.69893 20.254C8.69893 20.254 8.68758 20.2649 8.68758 20.2736V21.5307H7.60929V20.4726C7.60929 20.4726 7.60475 20.4573 7.59794 20.4551C7.28467 20.3086 7.12349 19.9916 7.25289 19.6659C7.29602 19.5587 7.36412 19.4603 7.45947 19.3707C7.51622 19.316 7.56389 19.2723 7.59794 19.2352C7.60475 19.2286 7.60702 19.222 7.60702 19.2133V18.1464C7.60702 18.1464 7.61156 18.1355 7.61837 18.1355H8.65807C8.67623 18.1355 8.68531 18.1442 8.68531 18.1617V18.9859C8.68531 19.0012 8.68985 19.0034 8.7012 18.9925L10.3402 17.3047C10.3402 17.3047 10.3493 17.285 10.3402 17.2763L10.0882 17.0642C10.0882 17.0642 10.0837 17.0554 10.0882 17.0533C10.0882 17.0533 10.0882 17.0533 10.0928 17.0511L11.6954 16.5264C11.6954 16.5264 11.7045 16.5264 11.7068 16.5329C11.7068 16.5329 11.7068 16.5351 11.7068 16.5373L11.3731 18.1289C11.3731 18.1289 11.3663 18.1376 11.3617 18.1355C11.3617 18.1355 11.3595 18.1355 11.3572 18.1355L11.0802 17.9015C11.0802 17.9015 11.0712 17.8993 11.0689 17.9015L9.47756 19.539C9.47756 19.539 9.47075 19.5522 9.47756 19.5587C9.86121 19.8779 10.2449 20.2059 10.6421 20.5098C11.0802 20.8443 11.5161 21.1831 11.9519 21.5242L11.9542 21.5264Z" fill="white"/>
<path d="M6.78084 21.5262H6.60377C6.54929 21.5087 6.50389 21.4825 6.46757 21.4497C5.45511 20.5183 4.53346 19.6701 3.69807 18.9027C3.6958 18.9005 3.69126 18.9005 3.68672 18.9027C3.68672 18.9027 3.68672 18.9049 3.68672 18.9071V21.489C3.68672 21.489 3.68218 21.5022 3.6731 21.5022H3.19184C3.19184 21.5022 3.17822 21.4978 3.17822 21.489C3.17822 20.4877 3.17822 19.4952 3.17822 18.507C3.17822 18.4086 3.18957 18.3386 3.20773 18.2949C3.24178 18.2206 3.30308 18.1725 3.39161 18.1484C3.51419 18.1156 3.61862 18.1397 3.70942 18.2227C5.29167 19.6788 6.21332 20.5271 6.47211 20.7676C6.47438 20.7698 6.47892 20.7698 6.48119 20.7676C6.48119 20.7676 6.48119 20.7654 6.48119 20.7632V18.1921C6.48119 18.1921 6.48573 18.179 6.49481 18.179H6.98741C6.98741 18.179 7.00103 18.1856 7.00103 18.1921C7.00103 19.4689 7.00103 20.4768 7.00103 21.2201C7.00103 21.3732 6.92612 21.4759 6.77403 21.524L6.78084 21.5262Z" fill="white"/>
<path d="M15.4253 20.3088C15.4253 20.3088 15.4207 20.311 15.4207 20.3132V20.3153L16.8078 21.4894C16.8078 21.4894 16.8146 21.5003 16.8032 21.5003H16.0564C16.0564 21.5003 16.0382 21.4981 16.0314 21.4916L14.8373 20.4181C14.8373 20.4181 14.8214 20.4094 14.8124 20.4094H12.851C12.851 20.4094 12.8442 20.4115 12.8442 20.4159V21.4916C12.8442 21.4916 12.8397 21.5047 12.8306 21.5047H12.2971C12.2971 21.5047 12.2835 21.5003 12.2835 21.4916V19.9896C12.2835 19.9765 12.2903 19.9699 12.3039 19.9699C13.3618 19.9699 14.2199 19.9699 14.8782 19.9699C14.9713 19.9699 15.1029 19.9546 15.2755 19.924C15.4866 19.8868 15.7317 19.7928 15.8611 19.6332C15.9451 19.5305 15.9815 19.408 15.9701 19.2637C15.9565 19.0757 15.8657 18.9249 15.6977 18.8243C15.6114 18.7718 15.5161 18.7347 15.4117 18.7106C15.2369 18.6691 15.0439 18.6472 14.8328 18.645C14.4968 18.6407 13.6455 18.6407 12.279 18.645C12.2767 18.645 12.2744 18.645 12.2744 18.6407C12.2744 18.6407 12.2744 18.6407 12.2744 18.6385L12.6217 18.1968C12.6217 18.1968 12.6354 18.1859 12.6444 18.1859C13.9021 18.1837 14.7284 18.1859 15.1211 18.1903C15.3254 18.1925 15.5365 18.2318 15.759 18.304C15.936 18.363 16.0813 18.4395 16.1948 18.5313C16.4173 18.715 16.5354 18.9489 16.5467 19.2353C16.5535 19.4015 16.5308 19.548 16.4763 19.6748C16.2902 20.1033 15.8611 20.2607 15.4139 20.3132L15.4253 20.3088Z" fill="white"/>
<path d="M17.7338 20.0419V21.0345C17.7338 21.0345 17.7383 21.0432 17.7429 21.0432H20.8484C20.8484 21.0432 20.8574 21.0476 20.8574 21.052V21.0563L20.4988 21.5001C20.4988 21.5001 20.4942 21.5023 20.492 21.5023H17.1822C17.1822 21.5023 17.1731 21.498 17.1731 21.4936V18.1879C17.1731 18.1879 17.1776 18.1792 17.1822 18.1792H20.8234C20.8234 18.1792 20.8325 18.1836 20.8325 18.1879V18.1923L20.4761 18.6361C20.4761 18.6361 20.4715 18.6383 20.4692 18.6383H17.7474C17.7474 18.6383 17.7383 18.6427 17.7383 18.6471V19.6221C17.7383 19.6265 17.7429 19.6309 17.7474 19.6309H20.6667C20.6667 19.6309 20.6758 19.6353 20.6758 19.6396V19.644L20.3626 20.0332C20.3626 20.0332 20.358 20.0353 20.3557 20.0353H17.7497C17.7497 20.0353 17.7406 20.0397 17.7406 20.0441L17.7338 20.0419Z" fill="white"/>
<path d="M21.7587 21.0365C21.7587 21.0365 21.761 21.0431 21.7655 21.0431H23.2116C23.4091 21.0431 23.5521 21.0343 23.6406 21.019C23.9153 20.9709 24.1741 20.8463 24.3716 20.6539C24.7257 20.3063 24.8142 19.7597 24.5918 19.3247C24.4805 19.1038 24.308 18.9355 24.081 18.8174C23.8585 18.7016 23.6179 18.6447 23.3591 18.6425C22.7598 18.6404 22.0425 18.6382 21.2116 18.6425C21.2003 18.6425 21.198 18.6382 21.2048 18.6316L21.5476 18.1944C21.5476 18.1944 21.5589 18.1834 21.568 18.1834C22.5714 18.1791 23.2138 18.1812 23.4953 18.1878C23.7564 18.1944 24.0152 18.2534 24.2785 18.3671C24.4419 18.437 24.585 18.5223 24.703 18.6185C25.0004 18.859 25.182 19.1651 25.2478 19.5367C25.325 19.9696 25.2183 20.4353 24.9391 20.7938C24.6394 21.1742 24.199 21.4038 23.711 21.4803C23.6088 21.4956 23.4454 21.5044 23.2229 21.5044C22.6486 21.5044 21.9789 21.5044 21.2162 21.5044C21.2048 21.5044 21.198 21.4978 21.198 21.4869V19.4449C21.198 19.4449 21.2025 19.434 21.2116 19.434H21.7496C21.7496 19.434 21.7632 19.4383 21.7632 19.4449V21.0387L21.7587 21.0365Z" fill="white"/>
<path d="M26.3376 18.1812H25.8019C25.7956 18.1812 25.7905 18.186 25.7905 18.1921V21.4912C25.7905 21.4972 25.7956 21.5021 25.8019 21.5021H26.3376C26.3439 21.5021 26.349 21.4972 26.349 21.4912V18.1921C26.349 18.186 26.3439 18.1812 26.3376 18.1812Z" fill="white"/>
<path d="M30.4713 19.7992C30.9185 19.9523 31.0933 20.3283 31.0229 20.7699C30.9321 21.3405 30.3464 21.5001 29.8266 21.5001H26.9935C26.9935 21.5001 26.9822 21.4958 26.9822 21.4892V19.6396C26.9822 19.6396 26.9867 19.6287 26.9935 19.6287C27.6246 19.6287 28.6144 19.6287 29.9582 19.6287C30.0377 19.6287 30.1308 19.5959 30.2352 19.5325C30.3873 19.4407 30.4486 19.2614 30.4327 19.0909C30.41 18.8613 30.2715 18.717 30.0195 18.6602C29.9401 18.6427 29.8311 18.6383 29.7381 18.6383C28.0695 18.6383 27.1615 18.6383 27.0117 18.6383C27.0003 18.6383 26.9981 18.6339 27.0049 18.6252L27.3681 18.1901C27.3681 18.1901 27.3817 18.1792 27.3908 18.1792C28.2421 18.1792 29.0888 18.1792 29.9265 18.1792C30.0082 18.1792 30.1149 18.1945 30.2465 18.2251C30.5984 18.3082 30.8731 18.505 30.9503 18.8591C30.9866 19.0297 30.9798 19.1893 30.9276 19.3357C30.8549 19.5412 30.7028 19.6921 30.4713 19.7839C30.4622 19.7883 30.4622 19.7905 30.4713 19.7927V19.7992ZM27.5429 20.0463L27.5474 21.0388C27.5474 21.0388 27.552 21.0476 27.5565 21.0476L29.9174 21.0388C30.2284 21.0388 30.4781 20.8246 30.4781 20.5622V20.5054C30.4781 20.243 30.2261 20.031 29.9151 20.031L27.5542 20.0397C27.5542 20.0397 27.5452 20.0441 27.5452 20.0485L27.5429 20.0463Z" fill="white"/>
<path d="M34.9775 21.0561L34.6189 21.4977C34.6189 21.4977 34.6143 21.5021 34.612 21.5021H31.5542C31.5542 21.5021 31.5452 21.4977 31.5452 21.4934V18.1899C31.5452 18.1899 31.5497 18.1812 31.5542 18.1812H32.1013C32.1013 18.1812 32.1104 18.1833 32.1104 18.1877V21.032C32.1104 21.032 32.1127 21.0408 32.1195 21.0408H34.9707C34.9707 21.0408 34.9798 21.0452 34.9798 21.0495V21.0539L34.9775 21.0561Z" fill="white"/>
<path d="M35.8831 19.6306H38.807C38.807 19.6306 38.8138 19.635 38.8138 19.6372C38.8138 19.6372 38.8138 19.6394 38.8138 19.6416L38.5005 20.0307C38.5005 20.0307 38.496 20.0329 38.4937 20.0329H35.8831C35.8831 20.0329 35.8763 20.0373 35.8763 20.0395V21.032C35.8763 21.032 35.8808 21.0386 35.8831 21.0386H38.9908C38.9908 21.0386 38.9976 21.043 38.9976 21.0451V21.0495L38.6367 21.4933C38.6367 21.4933 38.6322 21.4955 38.6299 21.4955H35.3178C35.3178 21.4955 35.311 21.4911 35.311 21.489V18.1833C35.311 18.1789 35.3156 18.1768 35.3178 18.1768H38.9613C38.9613 18.1768 38.9681 18.1811 38.9681 18.1855V18.1899L38.614 18.6337C38.614 18.6337 38.6095 18.6359 38.6072 18.6359H35.8831C35.8831 18.6359 35.8763 18.6402 35.8763 18.6446V19.6197C35.8763 19.6241 35.8808 19.6263 35.8831 19.6263V19.6306Z" fill="white"/>
<path d="M2.55617 21.5262H2V18.2468C2 18.2468 2.00454 18.2358 2.01135 18.2358H2.54482C2.54482 18.2358 2.55617 18.2402 2.55617 18.2468V21.5262Z" fill="white"/>
</g>
<circle cx="20" cy="20" r="19.5" stroke="black" stroke-opacity="0.05"/>
<defs>
<clipPath id="clip0_29067_47944">
<rect width="37" height="5" fill="white" transform="translate(2 16.5264)"/>
</clipPath>
</defs>
</svg>
