<svg width="40" height="40" viewBox="0 0 40 40" fill="none" xmlns="http://www.w3.org/2000/svg">
<circle cx="20" cy="20" r="20" fill="#2C1F86"/>
<path d="M10.0808 14.4253C9.74964 14.4118 9.40036 14.4185 9.02839 14.4501C8.80158 14.484 9.95377 16.6313 11.7682 17.3103C11.5006 17.3734 11.2216 17.4614 10.9336 17.5742C10.7635 17.6531 11.8181 19.3922 13.7029 19.3155C13.4829 19.4058 13.2561 19.5185 13.0225 19.6584C12.8909 19.7486 14.4151 21.0952 16.2953 20.6193C18.636 24.605 18.7607 29.1073 18.2867 31.4667C29.5999 26.5809 24.6056 14.3328 10.0785 14.4253H10.0808Z" fill="#E62310"/>
<path d="M21.9025 11.0215C21.5804 11.0508 22.1792 12.9004 23.9596 14.0959C23.9596 14.1004 23.9596 14.1049 23.9641 14.1094C23.5037 13.9944 23.0093 13.8974 22.4786 13.8185C22.1678 13.7869 22.406 15.7764 24.2386 17.0192C24.2386 17.0192 24.2386 17.0192 24.2386 17.0215C23.7646 16.9154 23.2316 16.8568 22.6305 16.8591C22.4808 16.8658 22.7099 18.0951 23.9211 19.2771C22.9231 23.9215 19.9428 28.947 18.2939 31.4688C31.154 26.1658 36.7221 10.338 21.9025 11.0215Z" fill="#0080CB"/>
<path d="M23.6032 20.5359C22.3943 24.8036 19.7928 29.1727 18.2891 31.469C24.2292 28.9043 25.6739 24.3096 23.6032 20.5359Z" fill="#2C1F86"/>
<circle cx="20" cy="20" r="19.5" stroke="black" stroke-opacity="0.05"/>
</svg>
