<svg width="40" height="40" viewBox="0 0 40 40" fill="none" xmlns="http://www.w3.org/2000/svg">
<circle cx="20" cy="20" r="20" fill="#0C80C4"/>
<g clip-path="url(#clip0_14382_21207)">
<path d="M19.9828 8.05743C21.3743 8.05743 22.5041 7.9804 22.5041 7.90337C22.5041 7.78616 21.3743 7.69238 19.9828 7.69238C18.5913 7.69238 17.4478 7.823 17.465 7.90337C17.4891 8.02059 18.5913 8.05743 19.9828 8.05743Z" fill="url(#paint0_radial_14382_21207)"/>
<path d="M25.07 10.4016C25.1148 10.2978 22.7486 10.1772 19.8863 10.1772C17.0241 10.1772 14.6992 10.3246 14.7026 10.405C14.7026 10.405 17.0241 10.6294 19.8863 10.6294C22.7486 10.6294 25.07 10.4016 25.07 10.4016Z" fill="url(#paint1_radial_14382_21207)"/>
<path d="M19.9863 31.8823C18.5948 31.8823 17.4685 31.9794 17.4685 32.0933C17.4685 32.2072 18.5948 32.3077 19.9863 32.3077C21.3778 32.3077 22.5075 32.2105 22.5075 32.0933C22.5075 31.9761 21.3778 31.8823 19.9863 31.8823Z" fill="url(#paint2_radial_14382_21207)"/>
<path d="M19.8898 29.3706C17.0275 29.3706 14.7061 29.4711 14.7061 29.5983C14.7061 29.7223 17.0275 29.8227 19.8898 29.8227C22.752 29.8227 25.0734 29.7223 25.0734 29.595C25.0734 29.4677 22.7554 29.3706 19.8898 29.3706Z" fill="url(#paint3_radial_14382_21207)"/>
<path d="M32.4857 22.3881C32.4857 22.2876 27.7497 22.0163 21.6016 21.9694C21.6016 21.514 21.6051 21.035 21.6051 20.5461C28.1251 20.4892 35.0034 20.1375 35.0034 20.0337C35.0034 19.883 28.1251 19.6117 21.6085 19.5648V18.0276C27.7669 17.9774 32.5614 17.6793 32.4857 17.6056C32.4857 17.6056 27.7532 17.2473 21.6051 17.1904C21.6051 16.5741 21.6016 16.0182 21.5947 15.5694C26.5821 15.5292 30.4018 15.3216 30.4018 15.2513C30.4018 15.1407 26.5752 14.9632 21.5844 14.9331V14.8996C21.5568 13.6739 23.0138 13.1749 24.2124 12.9706C26.3617 12.9304 27.7876 12.8601 27.7876 12.7797C27.7876 12.6457 24.333 12.5017 20.0551 12.5017C15.7738 12.5017 12.2882 12.6558 12.2882 12.783C12.2882 12.8534 13.3662 12.9136 15.0574 12.9572C18.1917 13.3557 17.8335 14.8561 17.8335 14.8561V14.9398C13.1458 14.9766 9.64638 15.1307 9.62227 15.2546C9.60161 15.3685 13.1355 15.5292 17.8335 15.5694V17.1971C11.8301 17.2674 7.24914 17.6123 7.24914 17.6123C7.26292 17.6994 11.8335 17.974 17.8335 18.0276V19.5715C11.4478 19.605 5.02067 19.8026 5 20.0504C4.99656 20.1308 11.4443 20.4791 17.8301 20.5427V21.9728C11.8232 22.0264 7.21125 22.3043 7.2457 22.3881C7.2457 22.3881 11.8301 22.733 17.8301 22.8033V24.431C13.1389 24.4745 9.61883 24.6553 9.61883 24.7458C9.61883 24.8496 13.1355 25.017 17.8301 25.0572V25.2615C17.899 26.6011 15.2124 27.0231 13.5557 27.1537C13.2078 27.1705 12.9219 27.1872 12.7118 27.204C12.4466 27.214 12.2882 27.214 12.2882 27.214C12.3295 27.2207 12.3743 27.2274 12.4191 27.2375C12.3364 27.2508 12.2882 27.2642 12.2882 27.2776C12.2882 27.4016 15.7566 27.502 20.0379 27.502C24.3192 27.502 27.7876 27.3982 27.7876 27.2743C27.7876 27.2743 27.5637 27.2609 27.1607 27.2375C27.5603 27.2207 27.7876 27.2107 27.7876 27.2107C21.5499 27.2174 21.5844 25.2247 21.5844 25.2247C21.5844 25.2247 21.5844 25.1644 21.5844 25.0572C26.5752 25.0237 30.4018 24.8462 30.4018 24.7357C30.4018 24.662 26.5752 24.4544 21.5878 24.4176C21.5878 23.9989 21.5913 23.4396 21.5947 22.8C27.7428 22.7464 32.4822 22.4416 32.4822 22.3814L32.4857 22.3881Z" fill="url(#paint4_radial_14382_21207)"/>
</g>
<circle cx="20" cy="20" r="19.5" stroke="black" stroke-opacity="0.05"/>
<defs>
<radialGradient id="paint0_radial_14382_21207" cx="0" cy="0" r="1" gradientUnits="userSpaceOnUse" gradientTransform="translate(20.0069 19.9364) scale(15.2962 14.8731)">
<stop stop-color="white"/>
<stop offset="1" stop-color="white"/>
</radialGradient>
<radialGradient id="paint1_radial_14382_21207" cx="0" cy="0" r="1" gradientUnits="userSpaceOnUse" gradientTransform="translate(20.0069 19.9497) scale(15.3134 14.8898)">
<stop stop-color="white"/>
<stop offset="1" stop-color="white"/>
</radialGradient>
<radialGradient id="paint2_radial_14382_21207" cx="0" cy="0" r="1" gradientUnits="userSpaceOnUse" gradientTransform="translate(20.007 19.933) scale(15.2962 14.873)">
<stop stop-color="white"/>
<stop offset="1" stop-color="white"/>
</radialGradient>
<radialGradient id="paint3_radial_14382_21207" cx="0" cy="0" r="1" gradientUnits="userSpaceOnUse" gradientTransform="translate(20.0069 19.9464) scale(15.279 14.8563)">
<stop stop-color="white"/>
<stop offset="1" stop-color="white"/>
</radialGradient>
<radialGradient id="paint4_radial_14382_21207" cx="0" cy="0" r="1" gradientUnits="userSpaceOnUse" gradientTransform="translate(20 19.9366) scale(15.2997 14.8764)">
<stop stop-color="white"/>
<stop offset="1" stop-color="white"/>
</radialGradient>
<clipPath id="clip0_14382_21207">
<rect width="30" height="24.6154" fill="white" transform="translate(5 7.69238)"/>
</clipPath>
</defs>
</svg>
