<svg width="40" height="40" viewBox="0 0 40 40" fill="none" xmlns="http://www.w3.org/2000/svg">
<circle cx="20" cy="20" r="20" fill="#003B83"/>
<g clip-path="url(#clip0_14382_19002)">
<path d="M18.0232 23.4013C17.9977 23.6733 17.9233 23.9029 17.6108 23.9029C17.2984 23.9029 17.224 23.6733 17.1985 23.4013V20.5424C17.1985 20.23 17.2261 19.8686 17.6108 19.8686C17.9955 19.8686 18.0232 20.23 18.0232 20.5424V23.4013ZM17.6215 18.8037C16.3461 18.8037 15.4576 19.2395 15.4576 20.7954V23.1717C15.4576 24.5236 16.4354 24.9763 17.6215 24.9763C18.8798 24.9763 19.6981 24.5151 19.7853 23.1717V20.7954C19.7853 19.4286 19.0753 18.8037 17.6215 18.8037Z" fill="white"/>
<path d="M20.0171 18.8655V19.9644H20.6314V23.7713C20.6314 24.7256 21.1564 24.9063 22.0789 24.9063C22.4551 24.9063 22.7017 24.9063 23.165 24.8765V23.8244H22.7399C22.5146 23.8244 22.3658 23.6947 22.3658 23.3993V19.9644H23.1714V18.8655H20.0171Z" fill="white"/>
<path d="M33.8118 18.7932C33.5391 18.7727 33.2675 18.8457 33.0418 19.0003C32.8162 19.1549 32.6499 19.3817 32.5705 19.6434H32.5492C32.4882 19.3861 32.3373 19.1591 32.1238 19.0032C31.9102 18.8474 31.648 18.7729 31.3844 18.7932C30.7468 18.7932 30.3535 19.1205 30.1091 19.6753H30.0878V18.8739H28.4363V24.9041H30.073V20.636C30.0942 20.3342 30.1792 20.145 30.4981 20.145C30.8169 20.145 30.8934 20.3725 30.8934 20.636V24.9041H32.5258V20.636C32.5258 20.3448 32.6555 20.145 32.9403 20.145C33.2251 20.145 33.3357 20.381 33.3357 20.636V24.9041H34.9915V19.9516C34.9915 19.1885 34.4941 18.7932 33.8033 18.7932" fill="white"/>
<path d="M26.0132 21.0781H25.1927V20.653C25.1927 20.247 25.1502 19.873 25.603 19.873C26.0281 19.873 26.0132 20.2726 26.0132 20.4809V21.0781ZM25.5881 18.7996C24.3489 18.7996 23.4307 19.2247 23.4307 20.7125V23.2249C23.4307 24.5534 24.4722 24.9636 25.5881 24.9636C27.008 24.9636 27.7455 24.479 27.7455 23.4014V22.5235H26.0132V23.1803C26.0132 23.5332 25.9686 23.8775 25.603 23.8775C25.2374 23.8775 25.197 23.5076 25.197 23.1846V22.0665H27.7477V20.4745C27.7477 19.2204 26.7699 18.7868 25.586 18.791" fill="white"/>
<path d="M12.499 20.67H12.2397V18.8548H12.4628C13.0219 18.8548 13.1919 19.1396 13.1919 19.7943C13.1919 20.2789 13.0049 20.67 12.499 20.67ZM14.9242 19.5435C14.9242 18.1427 14.0081 17.843 12.7987 17.843H10.4967V24.9041H12.2482V21.6796H12.5882C12.9942 21.7073 13.1579 21.973 13.1834 22.4363C13.1834 22.5129 13.1834 22.6021 13.1834 22.6956V24.9041H14.92V22.6956C14.92 22.4491 14.92 22.2323 14.8987 22.0835C14.869 21.5946 14.5246 21.144 13.5681 21.11V21.093C14.5969 20.9144 14.9263 20.2959 14.9263 19.5435" fill="white"/>
<path d="M6.20094 15.0713V14H6.75995V16.6761H6.20094V15.4815H5.55902V16.6761H5V14H5.55902V15.0713H6.20094Z" fill="white"/>
<path d="M7.73769 15.7472L7.03625 14H7.64841L8.04802 15.1308L8.47313 14H9.0449L8.29671 15.7472V16.6761H7.73769V15.7472Z" fill="white"/>
<path d="M11.111 14V15.8981C11.111 16.2977 10.8835 16.7186 10.2034 16.7186C9.58908 16.7186 9.2915 16.4019 9.2915 15.8981V14H9.85903V15.8599C9.85903 16.1893 10.0014 16.319 10.2034 16.319C10.4478 16.319 10.5605 16.1553 10.5605 15.8599V14H11.1195" fill="white"/>
<path d="M11.5701 16.6761V14H12.3268L13.0367 15.8514H13.0452V14H13.566V16.6761H12.8305L12.1015 14.7184H12.093V16.6761H11.5701Z" fill="white"/>
<path d="M14.0485 16.6761H14.9603C15.9168 16.6761 15.8531 15.7344 15.8531 15.3221C15.8531 14.4889 15.717 14 14.9837 14H14.0506L14.0485 16.6761ZM14.6075 14.4124H14.8944C15.2855 14.4124 15.2855 14.8375 15.2855 15.337C15.2855 16.0086 15.2175 16.2637 14.8774 16.2637H14.6075V14.4124Z" fill="white"/>
<path d="M16.4928 16.6761L16.6459 16.0809H17.4068L17.5556 16.6761H18.1486L17.4238 14H16.682L15.9402 16.6761H16.4928ZM17.2899 15.6707H16.7564L17.0115 14.5144L17.2814 15.6707" fill="white"/>
<path d="M18.967 14H18.408V16.6739H18.967V14Z" fill="white"/>
<path d="M24.1043 15.1584L20.6333 16.8759V18.5763L24.1043 16.8589V15.1584Z" fill="#E60012"/>
</g>
<circle cx="20" cy="20" r="19.5" stroke="black" stroke-opacity="0.05"/>
<defs>
<clipPath id="clip0_14382_19002">
<rect width="30" height="10.9763" fill="white" transform="translate(5 14)"/>
</clipPath>
</defs>
</svg>
