<svg width="40" height="40" viewBox="0 0 40 40" fill="none" xmlns="http://www.w3.org/2000/svg">
<circle cx="20" cy="20" r="20" fill="#A50034"/>
<g clip-path="url(#clip0_31499_48494)">
<path d="M20.0352 31.8418C22.4064 31.84 24.7239 31.1345 26.6946 29.8147C28.6653 28.4949 30.2007 26.6199 31.1068 24.4268C32.0128 22.2338 32.2487 19.8211 31.7848 17.4939C31.3208 15.1666 30.1778 13.0293 28.5001 11.3521C26.8225 9.67496 24.6857 8.53324 22.3598 8.07132C20.0339 7.6094 17.6233 7.84803 15.4329 8.75703C13.2425 9.66603 11.3706 11.2046 10.0538 13.1782C8.73703 15.1518 8.03454 17.4718 8.03516 19.8449C8.03597 21.4212 8.34701 22.9819 8.95051 24.4378C9.554 25.8938 10.4381 27.2166 11.5524 28.3306C12.6667 29.4446 13.9894 30.328 15.4449 30.9305C16.9003 31.533 18.4601 31.8426 20.0352 31.8418Z" fill="#A50034"/>
<path d="M19.5508 14.5782V25.1054H22.8977V24.1608H20.5164V14.5782H19.5508Z" fill="white"/>
<path d="M16.2031 17.4493C16.4883 17.4499 16.7673 17.3658 17.0047 17.2076C17.2421 17.0494 17.4272 16.8243 17.5366 16.5607C17.646 16.2971 17.6748 16.007 17.6193 15.727C17.5638 15.4471 17.4266 15.1899 17.2249 14.9881C17.0233 14.7863 16.7663 14.6489 16.4865 14.5933C16.2068 14.5378 15.9169 14.5666 15.6535 14.6761C15.3901 14.7856 15.1652 14.9709 15.0071 15.2085C14.8491 15.4461 14.765 15.7252 14.7656 16.0106C14.7656 16.3922 14.9171 16.7581 15.1867 17.0279C15.4563 17.2977 15.8219 17.4493 16.2031 17.4493Z" fill="white"/>
<path d="M20.5171 9.79932H20.0389C18.0526 9.79932 16.111 10.3889 14.4595 11.4935C12.8081 12.598 11.5212 14.168 10.7615 16.0047C10.0018 17.8414 9.80348 19.8623 10.1917 21.8118C10.5799 23.7613 11.5371 25.5518 12.9423 26.9568C14.3474 28.3617 16.1374 29.3181 18.0858 29.7047C20.0341 30.0914 22.0533 29.8911 23.8879 29.1291C25.7224 28.3671 27.29 27.0777 28.3921 25.424C29.4943 23.7702 30.0816 21.8265 30.0798 19.8387V19.3912H22.9078V20.3234H29.1173C29.1173 20.3451 29.1173 20.4415 29.1173 20.4663C28.9988 22.2121 28.3804 23.8868 27.3361 25.2902C26.2918 26.6936 24.8657 27.7664 23.2284 28.3802C21.591 28.994 19.8117 29.123 18.1031 28.7516C16.3945 28.3803 14.8288 27.5243 13.5934 26.2861C12.3179 25.0118 11.4491 23.3872 11.097 21.6183C10.7449 19.8493 10.9255 18.0156 11.6158 16.3494C12.3061 14.6832 13.475 13.2596 14.9745 12.2589C16.474 11.2583 18.2366 10.7256 20.0389 10.7284C20.1445 10.7284 20.3991 10.7284 20.5171 10.7284V9.79932Z" fill="white"/>
</g>
<circle cx="20" cy="20" r="19.5" stroke="black" stroke-opacity="0.05"/>
<defs>
<clipPath id="clip0_31499_48494">
<rect width="24" height="24" fill="white" transform="translate(8.03516 7.8418)"/>
</clipPath>
</defs>
</svg>
