<svg width="40" height="40" viewBox="0 0 40 40" fill="none" xmlns="http://www.w3.org/2000/svg">
<circle cx="20" cy="20" r="20" fill="#2695CF"/>
<path d="M22.2089 14.9499C22.5573 14.9498 22.8401 14.9498 23.2444 14.9498C22.9543 15.9865 22.6857 16.9465 22.3972 17.9777C23.2611 17.9777 24.0442 17.9777 24.9571 17.9777C24.2626 15.9344 23.5872 13.9473 22.9101 11.9553C24.3363 11.6127 24.4398 11.6672 24.8809 12.9292C25.6304 15.074 26.381 17.2185 27.1573 19.4381C24.8423 19.4381 22.6026 19.4381 20.2588 19.4381C20.7082 18.0161 21.1332 16.6268 21.6018 15.2528C21.6516 15.1065 21.9567 15.0488 22.2089 14.9499Z" fill="#E73D4B"/>
<path d="M16.9938 20.8506C18.7958 20.8919 19.7993 21.8216 19.7252 23.3121C19.6658 24.5065 18.7669 25.424 17.577 25.4763C17.0138 25.501 16.4486 25.4805 15.8041 25.4805C15.8041 26.4994 15.8041 27.4271 15.8041 28.4118C15.1946 28.4118 14.6653 28.4118 14.0723 28.4118C14.0723 26.9772 14.0723 25.5336 14.0723 23.9944C14.9934 23.9944 15.8927 23.9898 16.792 23.9961C17.3947 24.0003 17.9444 23.8658 17.9249 23.1367C17.9064 22.4449 17.3422 22.3614 16.7907 22.3594C15.9102 22.3561 15.0296 22.3585 14.0794 22.3585C14.0794 21.868 14.0794 21.4169 14.0794 20.8506C15.0204 20.8506 15.9698 20.8506 16.9938 20.8506Z" fill="white"/>
<path d="M18.8694 13.3629C18.3074 13.3922 17.8038 13.3576 17.3311 13.4634C16.204 13.7158 15.5428 14.6548 15.5911 15.826C15.6373 16.9461 16.363 17.7878 17.5028 17.9522C18.134 18.0431 18.7798 18.0299 19.4549 18.0655C19.4549 18.5445 19.4549 18.9734 19.4549 19.5276C18.4867 19.4819 17.5439 19.5487 16.6484 19.3718C14.8173 19.0102 13.6456 17.3266 13.78 15.4471C13.9157 13.55 15.2814 12.0664 17.1184 11.8981C17.8813 11.8283 18.6557 11.8865 19.5737 11.8865C19.2057 12.3876 20.0963 13.2252 18.8694 13.3629Z" fill="white"/>
<path d="M26.3973 25.0849C26.1929 25.2827 25.9932 25.5074 25.7851 25.5155C24.8064 25.5537 23.8254 25.5325 22.7838 25.5325C22.7838 26.0476 22.7838 26.4969 22.7838 27.0223C23.9602 27.0223 25.1154 27.0223 26.3338 27.0223C26.3338 27.5485 26.3338 28.0036 26.3338 28.5216C24.5846 28.5216 22.8145 28.5216 20.9912 28.5216C20.9912 27.0425 20.9912 25.5694 20.9912 24.0444C22.7677 24.0444 24.5173 24.0444 26.398 24.0444C26.398 24.3609 26.398 24.6865 26.3973 25.0849Z" fill="white"/>
<path d="M25.6884 22.3935C24.0941 22.3935 22.5711 22.3935 20.9922 22.3935C20.9922 21.8716 20.9922 21.4166 20.9922 20.8911C22.7549 20.8911 24.5247 20.8911 26.304 20.8911C26.6213 21.9938 26.5029 22.3326 25.6884 22.3935Z" fill="white"/>
<path d="M30.2995 26.2499C30.8755 24.8646 31.4223 23.5298 31.9769 22.1763C32.3792 22.9157 33.0367 23.6746 33.1699 24.5178C33.2682 25.1399 32.8627 26.1251 32.3565 26.492C31.6973 26.9697 30.7162 26.9956 29.7188 27.2564C29.9637 26.8319 30.1171 26.5661 30.2995 26.2499Z" fill="white"/>
<path d="M26.5424 32.0597C26.2751 33.2318 24.6726 33.8755 23.7303 33.2431C23.1947 32.8836 22.6648 32.5156 22.1777 32.1825C23.7882 31.5059 25.3723 30.8403 26.9587 30.1738C26.8355 30.7294 26.695 31.3635 26.5424 32.0597Z" fill="white"/>
<path d="M8.64222 26.8086C7.3666 26.7693 7.14265 25.8058 6.85232 24.9195C6.81011 24.7906 6.84119 24.6032 6.90582 24.4784C7.31069 23.6969 7.73471 22.9255 8.14182 22.1704C8.82051 23.8493 9.48921 25.5035 10.1654 27.1763C9.73584 27.0732 9.21955 26.9492 8.64222 26.8086Z" fill="white"/>
<path d="M14.7111 33.2729C13.942 33.0659 13.5985 32.6085 13.5219 31.8616C13.4615 31.2721 13.2783 30.6954 13.1631 30.1738C14.7466 30.8397 16.3252 31.5035 17.9523 32.1877C17.3102 32.6174 16.6591 33.1473 15.924 33.4983C15.6351 33.6362 15.1584 33.3741 14.7111 33.2729Z" fill="white"/>
<path d="M9.24221 15.2628C8.8892 16.3004 8.55937 17.2833 8.1895 18.3855C7.74491 17.4848 7.28685 16.6546 6.92214 15.7847C6.66528 15.1719 7.40946 13.9254 8.06331 13.7566C8.78315 13.5706 9.50657 13.3988 10.3381 13.1938C9.94136 13.9388 9.60337 14.5735 9.24221 15.2628Z" fill="white"/>
<path d="M32.8375 16.5547C32.5189 17.1834 32.2289 17.7592 31.9785 18.2564C31.3183 16.6012 30.6576 14.945 29.9775 13.2402C30.762 13.4385 31.6689 13.5815 32.5059 13.9071C33.1439 14.1553 33.2889 15.6366 32.8375 16.5547Z" fill="white"/>
<path d="M22.2611 8.43018C22.1921 8.33025 22.142 8.17736 22.1719 8.15927C22.8607 7.74308 23.5464 7.31866 24.2583 6.94554C24.7158 6.70572 26.1909 7.3004 26.3372 7.78217C26.5856 8.60048 26.7799 9.43548 26.9663 10.1464C25.4277 9.58169 23.8724 9.01086 22.2611 8.43018Z" fill="white"/>
<path d="M13.4008 9.19739C13.4763 8.90943 13.5368 8.68296 13.5962 8.45619C13.9633 7.05547 15.1669 6.53335 16.4045 7.24268C16.9633 7.56297 17.5162 7.89371 18.0448 8.20383C16.4131 8.86353 14.8007 9.51541 13.1025 10.202C13.2134 9.83221 13.2994 9.54548 13.4008 9.19739Z" fill="white"/>
<path d="M20.8117 33.0936C21.3646 33.4175 21.8682 33.7117 22.3718 34.0058C22.3562 34.074 22.3407 34.1422 22.3251 34.2104C20.8134 34.2104 19.3017 34.2104 17.79 34.2104C17.7773 34.1453 17.7646 34.0802 17.752 34.0151C18.4324 33.6101 19.0892 33.1509 19.8069 32.8307C20.0447 32.7246 20.4394 32.976 20.8117 33.0936Z" fill="white"/>
<path d="M29.4855 9.71785C30.1893 10.4771 30.8516 11.1991 31.5139 11.9212C31.4729 11.9793 31.4318 12.0373 31.3908 12.0954C30.5799 11.8584 29.7661 11.6311 28.9616 11.3739C28.8451 11.3367 28.7241 11.1698 28.6895 11.04C28.4959 10.3142 28.3282 9.58131 28.2803 8.74561C28.6682 9.05731 29.0561 9.36902 29.4855 9.71785Z" fill="#E73D4B"/>
<path d="M11.5958 30.0986C11.7534 30.6508 11.8939 31.1428 12.0345 31.6348C11.9614 31.6872 11.8882 31.7395 11.8151 31.7919C10.7299 30.6958 9.64474 29.5997 8.55957 28.5035C8.60869 28.4343 8.65781 28.3651 8.70693 28.2959C9.46744 28.507 10.2654 28.6367 10.9709 28.9673C11.2728 29.1088 11.3821 29.6686 11.5958 30.0986Z" fill="white"/>
<path d="M34.0301 19.1183C34.0355 20.2973 34.0355 21.4069 34.0355 22.5164C33.9394 22.5284 33.8433 22.5404 33.7471 22.5524C33.3556 21.8302 32.955 21.1127 32.5822 20.3808C32.5248 20.2682 32.5522 20.0667 32.6144 19.9446C32.9779 19.2311 33.3633 18.5291 33.8929 17.8438C33.9369 18.2454 33.9808 18.6471 34.0301 19.1183Z" fill="white"/>
<path d="M28.5814 31.4335C28.4321 31.5372 28.3265 31.6083 28.0537 31.792C28.3255 30.8222 28.5367 30.0125 28.7907 29.2166C28.8329 29.0844 29.048 28.9684 29.2058 28.9202C29.9217 28.7015 30.6458 28.5097 31.5563 28.2554C30.6884 29.5739 29.7044 30.5311 28.5814 31.4335Z" fill="white"/>
<path d="M6.87265 21.6541C6.69512 21.9742 6.54261 22.2429 6.37823 22.5325C5.95457 21.6699 5.91922 19.1117 6.29486 17.8599C7.58886 19.4001 7.69899 20.0839 6.87265 21.6541Z" fill="white"/>
<path d="M10.2352 10.1095C10.7562 9.64877 11.2385 9.22712 11.7529 8.77734C12.1374 10.6637 10.8901 11.9598 8.68555 11.8832C9.23637 11.2508 9.71639 10.6997 10.2352 10.1095Z" fill="white"/>
<path d="M18.2288 6.61851C18.0762 6.52149 17.9722 6.45214 17.8682 6.38279C17.8745 6.32535 17.8809 6.2679 17.8872 6.21045C19.3389 6.21045 20.7905 6.21045 22.2421 6.21045C22.2594 6.2656 22.2767 6.32075 22.294 6.37589C21.6142 6.77174 20.9434 7.18498 20.247 7.54842C20.1114 7.61919 19.8545 7.53917 19.6914 7.4546C19.2099 7.20505 18.7474 6.91834 18.2288 6.61851Z" fill="white"/>
<circle cx="20" cy="20" r="19.5" stroke="black" stroke-opacity="0.05"/>
</svg>
