<svg width="40" height="40" viewBox="0 0 40 40" fill="none" xmlns="http://www.w3.org/2000/svg">
<circle cx="20" cy="20" r="20" fill="#61B7C3"/>
<g clip-path="url(#clip0_17752_43735)">
<path d="M11.3731 19.2783C11.2994 19.1851 11.2088 19.0973 11.0955 19.015C10.9935 18.9437 10.8802 18.8833 10.7556 18.8449C10.5686 18.7846 10.3703 18.7736 10.1607 18.8065C10.0984 18.8175 10.0474 18.8285 10.0134 18.8394C9.98508 18.8449 9.93976 18.8669 9.87178 18.8943C9.63383 18.9985 9.44688 19.1576 9.31091 19.3716C9.19194 19.5691 9.12963 19.772 9.13529 19.9915C9.13529 20.0079 9.12396 20.0189 9.10696 20.0189C8.62542 20.0134 8.27984 20.0079 8.07022 20.0189C8.05889 20.0189 8.05323 20.0189 8.05323 20.0025C8.0419 19.794 8.07022 19.591 8.13254 19.388C8.31383 18.801 8.66507 18.3567 9.19194 18.0495C9.33924 17.9617 9.51486 17.8904 9.70748 17.83C9.87178 17.7807 10.0417 17.7478 10.2117 17.7423C10.6819 17.7148 11.1238 17.8136 11.5317 18.0385C11.6507 18.1043 11.7356 18.1647 11.849 18.2579C12.1945 18.5322 12.4381 18.8833 12.5741 19.3057C12.6534 19.5581 12.6874 19.7885 12.6817 20.0079C12.6817 20.0134 12.6817 20.0189 12.6704 20.0189C12.4098 20.0189 12.0756 20.0134 11.662 20.0189C11.6507 20.0189 11.645 20.0189 11.645 20.0025C11.645 19.9915 11.6337 19.9311 11.611 19.8159C11.5997 19.7391 11.5827 19.6788 11.5657 19.6294C11.5147 19.4868 11.4524 19.3661 11.3787 19.2728L11.3731 19.2783Z" fill="white"/>
<path d="M17.701 20.0189H16.6812C16.6812 20.0189 16.6699 20.0189 16.6699 20.0079C16.6699 19.9366 16.6586 19.8763 16.6529 19.8269C16.6302 19.6075 16.5396 19.399 16.381 19.2125C16.262 19.0698 16.126 18.9601 15.9731 18.8888C15.6841 18.7572 15.3895 18.7297 15.0893 18.812C14.9193 18.8559 14.772 18.9327 14.6361 19.0369C14.3358 19.2783 14.1828 19.5965 14.1715 20.0025C14.1715 20.0079 14.1715 20.0134 14.1602 20.0134H13.1121C13.1121 20.0134 13.0951 20.0079 13.0951 19.997C13.0895 19.8379 13.1008 19.7172 13.1404 19.5252C13.1631 19.4264 13.1801 19.3496 13.2028 19.2893C13.384 18.7681 13.707 18.3622 14.1715 18.0769C14.6871 17.7587 15.2592 17.66 15.8881 17.7752C15.9957 17.7971 16.143 17.841 16.3243 17.9123C16.5396 18.0001 16.7379 18.1153 16.9135 18.2689C17.2138 18.5267 17.4347 18.834 17.5763 19.1905C17.6217 19.3112 17.6557 19.4319 17.6783 19.5526C17.701 19.6733 17.7123 19.794 17.7236 19.9256C17.7236 19.9531 17.7236 19.9805 17.7236 20.0079C17.7236 20.0134 17.718 20.0189 17.7066 20.0189H17.701Z" fill="white"/>
<path d="M4.08754 22.0926C4.08754 22.0926 4.08187 22.0926 4.08187 22.1035C4.08187 22.9045 4.08187 23.7054 4.08187 24.5009C4.08187 24.5173 4.08187 24.5338 4.08187 24.5557C4.08187 24.5722 4.08187 24.5832 4.08187 24.5941C4.08187 24.6051 4.08187 24.6106 4.07054 24.6106C3.71929 24.6051 3.36805 24.6106 3.02247 24.6106C3.00547 24.6106 2.99414 24.5996 2.99414 24.5832C2.99981 22.0761 2.99981 20.6059 2.99981 20.1725C2.99981 20.0134 2.99981 19.8379 3.02247 19.6843C3.10178 19.2125 3.31706 18.8065 3.66264 18.4554C3.8496 18.2634 4.05921 18.1208 4.29149 18.022C4.43312 17.9617 4.5011 17.9288 4.50677 17.9288C4.58608 17.8959 4.68805 17.8629 4.81836 17.841C4.98831 17.8081 5.15261 17.7916 5.31123 17.7861C5.47553 17.7861 5.63415 17.8026 5.79845 17.8355C6.12137 17.9068 6.40463 18.0275 6.63691 18.1866C6.89751 18.3676 7.11279 18.5871 7.28841 18.8449C7.35639 18.9491 7.42438 19.0973 7.4697 19.2015C7.49236 19.2509 7.50936 19.3002 7.52635 19.3496C7.59434 19.5581 7.62833 19.772 7.63399 19.9915C7.63399 20.0024 7.62266 20.0134 7.61133 20.0134H6.59158C6.59158 20.0134 6.57459 20.0079 6.57459 19.9969C6.56326 19.7172 6.44429 19.388 6.24034 19.196C6.01373 18.9766 5.68514 18.812 5.36222 18.812C4.93733 18.812 4.59741 18.9766 4.33114 19.3002C4.20651 19.4538 4.13286 19.6129 4.1102 19.783C4.08754 19.9421 4.07621 20.1012 4.08754 20.2548C4.09887 20.4139 4.13852 20.562 4.21217 20.6991C4.32548 20.9186 4.48977 21.0886 4.69372 21.2038C4.85235 21.2916 5.01097 21.3465 5.18093 21.3629C5.36789 21.3849 5.56051 21.3629 5.75879 21.3026C5.86643 21.2697 5.9684 21.2148 6.05338 21.149C6.16669 21.0612 6.25167 20.9844 6.30265 20.9241C6.4103 20.7924 6.48961 20.6388 6.53493 20.4687C6.55759 20.3755 6.57459 20.2877 6.58592 20.1944C6.58592 20.189 6.59158 20.1835 6.59725 20.1835H7.62833C7.62833 20.1835 7.63966 20.189 7.63966 20.1944C7.61133 20.8582 7.34506 21.4068 6.84652 21.8457C6.74455 21.9335 6.63691 22.0158 6.51227 22.0816C6.38763 22.1529 6.25167 22.2132 6.09871 22.2681C5.95707 22.3175 5.80978 22.3559 5.65681 22.3778C5.11861 22.4491 4.61441 22.3559 4.13286 22.0871C4.11586 22.0816 4.10453 22.0761 4.08187 22.0816L4.08754 22.0926Z" fill="white"/>
<path d="M25.6046 21.7141H27.9897C27.9897 21.7141 28.001 21.7141 28.001 21.7251C28.001 22.0323 28.001 22.3395 28.001 22.6412C28.001 22.8222 27.8877 22.9703 27.6951 22.9758C27.6271 22.9758 27.5818 22.9813 27.5648 22.9813C26.7886 22.9813 26.1938 22.9813 25.7859 22.9813C25.7066 22.9813 25.6499 22.9758 25.6046 22.9594C25.5366 22.9319 25.4799 22.899 25.446 22.8606C25.0437 22.4656 24.7491 22.1804 24.5622 21.9939C24.4772 21.9116 24.4035 21.8348 24.3412 21.7689C24.3129 21.736 24.2902 21.6976 24.2846 21.6647C24.2732 21.6098 24.2676 21.5714 24.2676 21.5495C24.2676 19.7666 24.2676 18.5981 24.2676 18.0495C24.2676 18.0276 24.2846 18.0056 24.3129 18.0056C24.7435 18.0056 25.1174 18.0056 25.4346 18.0056C25.4573 18.0056 25.5026 18.0056 25.5593 18.0111C25.5593 18.0111 25.5649 18.0111 25.5649 18.0166C25.5649 18.7791 25.5649 19.9586 25.5649 21.5605C25.5649 21.5989 25.5649 21.6373 25.5649 21.6812C25.5649 21.6921 25.5763 21.7031 25.5933 21.7031L25.6046 21.7141Z" fill="white"/>
<path d="M32.7085 19.2948C32.7085 19.2948 32.7085 19.2893 32.7029 19.2893H30.2838C30.2838 19.2893 30.2725 19.2893 30.2725 19.2784V18.0495C30.2725 18.0495 30.2838 18.0221 30.3008 18.0166C30.3688 18.0166 30.4368 18.0166 30.5104 18.0166C31.7341 18.0166 32.4479 18.0166 32.6519 18.0166C32.6802 18.0166 32.7085 18.0276 32.7369 18.055C32.9521 18.2525 33.343 18.631 33.9096 19.1906C33.9775 19.2564 33.9945 19.3222 33.9945 19.4265C33.9945 20.211 33.9945 21.3904 33.9945 22.9758C33.9945 22.9813 33.9945 22.9868 33.9832 22.9868H32.7255C32.7255 22.9868 32.7142 22.9868 32.7142 22.9758C32.7142 22.9429 32.7142 22.9045 32.7142 22.8661C32.7142 22.2956 32.7142 21.1436 32.7142 19.4045C32.7142 19.3661 32.7142 19.3277 32.7142 19.2948H32.7085Z" fill="white"/>
<path d="M35.4107 20.3644C35.4391 20.3974 35.4731 20.4358 35.5127 20.4797C35.9546 20.9185 36.3852 21.3464 36.8157 21.7688C36.912 21.8621 37.014 21.9608 37.1103 22.0541C37.3143 22.2516 37.5975 22.5314 37.9601 22.8934C37.9658 22.8989 37.9771 22.9154 37.9941 22.9428C37.9941 22.9538 37.9941 22.9648 37.9884 22.9702C37.9884 22.9702 37.9828 22.9702 37.9771 22.9702C37.8468 22.9702 37.3256 22.9702 36.4135 22.9702C36.3342 22.9702 36.2719 22.9538 36.2322 22.9209C36.2095 22.9044 36.1812 22.877 36.1472 22.8386C36.1019 22.7892 36.0736 22.7563 36.0622 22.7453C35.3201 21.9992 34.8555 21.5384 34.6743 21.3574C34.6119 21.2971 34.561 21.2312 34.5326 21.1709C34.51 21.127 34.4986 21.0831 34.493 21.0392C34.493 20.924 34.493 20.5016 34.4873 19.7775C34.4873 19.7391 34.4873 19.6623 34.5043 19.5471C34.5043 19.5196 34.527 19.4757 34.5723 19.4264C34.5893 19.3989 34.6233 19.3715 34.6743 19.3331C35.0935 18.9985 35.4617 18.6967 35.779 18.4334C35.881 18.3511 35.9603 18.2853 36.0226 18.2359C36.1076 18.1756 36.1812 18.1043 36.2605 18.0384C36.2719 18.0275 36.2889 18.022 36.3115 18.022C36.878 18.022 37.3766 18.022 37.8015 18.022C37.8695 18.022 37.9318 18.022 37.9998 18.0329C38.0111 18.0329 38.0168 18.0439 38.0168 18.0549C38.0168 18.0549 38.0168 18.0659 38.0111 18.0659C37.9148 18.1481 37.8468 18.2085 37.8015 18.2469C37.7278 18.3127 37.6599 18.3731 37.5975 18.4279C37.3426 18.6474 37.133 18.8284 36.98 18.971C36.861 19.0753 36.7364 19.1905 36.6004 19.3112C36.4418 19.4483 36.2379 19.6348 35.9829 19.8597C35.8923 19.942 35.8186 19.9969 35.745 20.0682C35.66 20.1505 35.558 20.2383 35.4277 20.3425C35.4164 20.348 35.4164 20.359 35.4277 20.3699L35.4107 20.3644Z" fill="white"/>
<path d="M19.2196 18.0439H18.1828C18.1703 18.0439 18.1602 18.0538 18.1602 18.0659V19.9969C18.1602 20.009 18.1703 20.0189 18.1828 20.0189H19.2196C19.2321 20.0189 19.2422 20.009 19.2422 19.9969V18.0659C19.2422 18.0538 19.2321 18.0439 19.2196 18.0439Z" fill="white"/>
<path d="M29.7346 18.066V19.2674C29.7346 19.2674 29.7177 19.2894 29.7007 19.2894H28.4826C28.4826 19.2894 28.46 19.2784 28.46 19.2619C28.46 19.2565 28.46 19.251 28.4656 19.2455L29.6893 18.0496C29.6893 18.0496 29.712 18.0386 29.7233 18.0496C29.7233 18.0496 29.729 18.0605 29.729 18.066H29.7346Z" fill="white"/>
<path d="M22.7664 18.049L21.758 18.0507C21.7455 18.0508 21.7354 18.0606 21.7354 18.0727L21.7389 19.9983C21.7389 20.0104 21.749 20.0202 21.7616 20.0202L22.77 20.0185C22.7825 20.0184 22.7926 20.0086 22.7926 19.9965L22.7891 18.0709C22.7891 18.0588 22.7789 18.049 22.7664 18.049Z" fill="white"/>
<path d="M28.3525 22.9264C28.3865 22.9044 28.4092 22.8606 28.4205 22.8002C28.4375 22.7234 28.4432 22.6521 28.4375 22.5753C28.4319 22.1968 28.4319 21.3135 28.4375 19.9256C28.4375 19.8159 28.4375 19.7117 28.4432 19.6239C28.4432 19.6129 28.4489 19.6074 28.4602 19.6074H29.7065C29.7065 19.6074 29.7292 19.6184 29.7292 19.6294V21.6921C29.7292 21.6921 29.7292 21.7195 29.7122 21.7305C29.2307 22.2022 28.8398 22.5917 28.5282 22.888C28.4942 22.9209 28.3752 23.0087 28.3242 22.9593C28.3242 22.9593 28.3242 22.9428 28.3242 22.9374C28.3242 22.9374 28.3299 22.9319 28.3469 22.9209L28.3525 22.9264Z" fill="white"/>
<path d="M9.56048 21.1051C9.8834 21.3849 10.3026 21.4617 10.7332 21.352C10.8352 21.3245 10.9145 21.2971 10.9655 21.2642C11.1468 21.1545 11.2771 21.0448 11.362 20.9296C11.5263 20.7046 11.6113 20.4633 11.6226 20.1999C11.6226 20.189 11.6226 20.189 11.6396 20.189H12.6594C12.6594 20.189 12.682 20.1999 12.682 20.2109C12.682 20.5565 12.6027 20.8857 12.4498 21.1984C12.3931 21.3081 12.3365 21.4123 12.2685 21.5001C12.0985 21.7305 11.9002 21.917 11.668 22.0706C11.2317 22.3614 10.7502 22.493 10.229 22.4601C10.059 22.4492 9.88906 22.4217 9.72477 22.3778C9.46983 22.3065 9.22623 22.1913 8.99395 22.0322C8.83532 21.9225 8.70502 21.8073 8.60305 21.6866C8.49541 21.5604 8.3991 21.4233 8.31412 21.2697C8.1385 20.957 8.04785 20.6059 8.04785 20.2164C8.04785 20.2054 8.05918 20.1945 8.07051 20.1945H9.11292C9.11292 20.1945 9.12425 20.1945 9.12425 20.2054C9.13558 20.4742 9.22056 20.7156 9.38485 20.9405C9.41318 20.9734 9.46983 21.0338 9.56048 21.1161V21.1051Z" fill="white"/>
<path d="M21.0442 22.3998C21.0442 22.3998 21.0158 22.4162 21.0158 22.4327V24.7313C21.0158 24.7313 21.0158 24.7368 21.0102 24.7368H19.9734C19.9734 24.7368 19.9564 24.7313 19.9564 24.7258V22.4437C19.9564 22.4437 19.9451 22.4108 19.9281 22.4053C19.8148 22.3724 19.6958 22.3285 19.5712 22.2791C19.2823 22.1639 19.0387 22.0048 18.8404 21.7963C18.7101 21.6592 18.6024 21.533 18.5175 21.4068C18.4042 21.2368 18.3192 21.0393 18.2569 20.8144C18.2002 20.6114 18.1719 20.4084 18.1719 20.2109C18.1719 20.1999 18.1832 20.189 18.1945 20.189H19.2313C19.2313 20.189 19.2483 20.189 19.2483 20.2054C19.2596 20.6278 19.4296 20.9625 19.7751 21.2093C19.9168 21.3136 20.0754 21.3794 20.2567 21.4123C20.6193 21.4781 20.9479 21.4123 21.2311 21.2148C21.3104 21.16 21.3897 21.0887 21.4747 21.0009C21.52 20.957 21.5484 20.9076 21.571 20.8637C21.656 20.6882 21.7013 20.5785 21.7127 20.5346C21.741 20.4249 21.758 20.3151 21.7637 20.2054C21.7637 20.2054 21.7637 20.1999 21.7693 20.1999H22.7777C22.7777 20.1999 22.8061 20.2109 22.8061 20.2274C22.8061 20.5565 22.7381 20.8637 22.6078 21.1545C22.5341 21.3136 22.4491 21.4562 22.3472 21.5824C22.1716 21.8018 21.9619 21.9883 21.7127 22.1419C21.6333 22.1913 21.5597 22.2297 21.4804 22.2626C21.3671 22.312 21.1915 22.3724 21.0498 22.4108L21.0442 22.3998Z" fill="white"/>
<path d="M14.1549 20.1836H13.1125C13.1 20.1836 13.0898 20.1934 13.0898 20.2055V22.1256C13.0898 22.1377 13.1 22.1475 13.1125 22.1475H14.1549C14.1674 22.1475 14.1776 22.1377 14.1776 22.1256V20.2055C14.1776 20.1934 14.1674 20.1836 14.1549 20.1836Z" fill="white"/>
<path d="M16.6686 20.1886L16.665 22.1361C16.665 22.1391 16.6676 22.1416 16.6707 22.1416L17.7131 22.1434C17.7162 22.1434 17.7188 22.1409 17.7188 22.1379L17.7223 20.1904C17.7223 20.1874 17.7198 20.1849 17.7166 20.1849L16.6742 20.1832C16.6711 20.1831 16.6686 20.1856 16.6686 20.1886Z" fill="white"/>
</g>
<circle cx="20" cy="20" r="19.5" stroke="black" stroke-opacity="0.05"/>
<defs>
<clipPath id="clip0_17752_43735">
<rect width="35" height="7" fill="white" transform="translate(3 17.7368)"/>
</clipPath>
</defs>
</svg>
