<svg width="40" height="40" viewBox="0 0 40 40" fill="none" xmlns="http://www.w3.org/2000/svg">
<circle cx="20" cy="20" r="20" fill="#FFB042"/>
<path d="M21.6208 17.7368H21.0596C21.0484 17.7368 21.0393 17.7459 21.0393 17.7571V21.758C21.0393 21.7692 21.0484 21.7783 21.0596 21.7783H21.6208C21.632 21.7783 21.6411 21.7692 21.6411 21.758V17.7571C21.6411 17.7459 21.632 17.7368 21.6208 17.7368Z" fill="black"/>
<path d="M6.76232 20.2486L5.47058 20.2475C5.44867 20.2475 5.4305 20.2299 5.4305 20.208L5.42889 19.688C5.42889 19.6602 5.44279 19.6463 5.47111 19.6463H7.65858C7.6821 19.6463 7.69386 19.6581 7.69439 19.6816C7.6992 20.1203 7.59979 20.4902 7.39617 20.7911C6.99962 21.3779 6.44433 21.6505 5.73032 21.6093C5.53311 21.5975 5.31239 21.5756 5.13655 21.4933C4.47973 21.1871 4.10562 20.681 4.01476 19.9755C3.96666 19.6025 4.03614 19.2337 4.22266 18.8692C4.34665 18.6266 4.58448 18.3888 4.80253 18.2231C5.15633 17.9553 5.6106 17.8778 6.05579 17.9072C6.73346 17.9511 7.24118 18.3481 7.52658 18.9729C7.53459 18.9905 7.52658 19.0108 7.50947 19.0189C7.5052 19.021 7.49985 19.0221 7.49504 19.0221L6.72705 19.0237C6.70247 19.0237 6.67895 19.0125 6.66292 18.9937C6.53679 18.8436 6.30271 18.6752 6.09267 18.656C6.03228 18.6501 5.98311 18.6223 5.92058 18.6196C5.47058 18.6009 5.06975 18.8569 4.87361 19.2551C4.80306 19.3978 4.76512 19.5544 4.75977 19.7249C4.74855 20.1011 4.89445 20.4132 5.19748 20.6607C5.72711 21.0936 6.48655 20.899 6.80294 20.3165C6.82753 20.2711 6.81417 20.2486 6.76232 20.2486Z" fill="black"/>
<path d="M15.3536 19.0348L14.5444 19.0364C14.5273 19.0364 14.5129 19.0305 14.5006 19.0182C14.4172 18.9337 14.3349 18.8327 14.2302 18.775C13.8721 18.5778 13.5167 18.573 13.1645 18.7611C13.0367 18.8295 12.9128 18.9428 12.7936 19.1016C12.6968 19.2304 12.6375 19.3875 12.6145 19.5729C12.5595 20.0256 12.6926 20.3842 13.0138 20.6482C13.4664 21.0207 14.072 20.962 14.4707 20.5376C14.4829 20.5242 14.4979 20.5178 14.5161 20.5178L15.3028 20.5194C15.3343 20.5194 15.3434 20.5339 15.33 20.5627C15.2226 20.792 15.0703 21.0004 14.8731 21.1886C14.4835 21.5595 13.9271 21.6647 13.4028 21.5985C12.8037 21.522 12.3019 21.1191 12.0459 20.5814C11.853 20.1763 11.8054 19.7621 11.9037 19.3383C11.9892 18.9717 12.1768 18.6526 12.4665 18.3811C12.7129 18.1508 12.9737 18.0065 13.2495 17.9477C13.5391 17.8857 13.8315 17.8841 14.1259 17.9424C14.7491 18.0653 15.0837 18.4624 15.3739 19.0006C15.3797 19.0123 15.3755 19.0262 15.3642 19.0321C15.361 19.0337 15.3573 19.0348 15.3536 19.0348Z" fill="black"/>
<path d="M18.387 18.0408C18.8349 18.2412 19.1561 18.556 19.3512 18.9862C19.4955 19.3053 19.5452 19.6366 19.5008 19.9797C19.4532 20.349 19.3196 20.6681 19.1005 20.938C18.7034 21.427 18.1337 21.66 17.5068 21.6098C16.9002 21.5611 16.4267 21.2603 16.0873 20.7071C16.0168 20.5927 15.9591 20.4607 15.9136 20.3116C15.8778 20.1935 15.8575 20.0695 15.8522 19.9391C15.8377 19.6131 15.842 19.3229 15.9681 19.0274C16.0189 18.9082 16.0734 18.8056 16.1317 18.7201C16.5534 18.0974 17.161 17.8302 17.9547 17.9189C18.0974 17.935 18.2417 17.9756 18.387 18.0408ZM17.72 20.8851C18.3234 20.8632 18.7943 20.341 18.7713 19.7189C18.7483 19.0974 18.2406 18.611 17.6372 18.6329C17.0338 18.6549 16.563 19.177 16.586 19.7991C16.6089 20.4206 17.1167 20.907 17.72 20.8851Z" fill="black"/>
<path d="M10.5402 17.9761H11.1901C11.2024 17.9761 11.212 17.9852 11.212 17.9975V21.5232C11.2125 21.5355 11.2029 21.5451 11.1906 21.5451L10.5632 21.5429C10.5557 21.5429 10.5487 21.5392 10.545 21.5328L9.11644 19.2881C9.11003 19.278 9.09667 19.2748 9.08651 19.2806C9.0801 19.2849 9.07582 19.2919 9.07582 19.2999L9.07476 21.521C9.07476 21.5333 9.06514 21.5429 9.05284 21.5429L8.41205 21.5403C8.39976 21.5403 8.39014 21.5306 8.39014 21.5184V17.998C8.39067 17.9857 8.40029 17.9761 8.41258 17.9761H9.04643C9.05391 17.9761 9.06086 17.9798 9.0646 17.9862L10.4787 20.1603C10.4857 20.1705 10.499 20.1732 10.5092 20.1662C10.5151 20.1625 10.5188 20.1555 10.5188 20.1486V17.998C10.5183 17.9857 10.5279 17.9761 10.5402 17.9761Z" fill="black"/>
<path d="M24.0473 20.7625C24.2285 20.7903 24.3958 20.786 24.5491 20.7502C24.7159 20.7106 24.8703 20.6022 25.012 20.4247C25.0462 20.3814 25.0911 20.36 25.1461 20.3595H25.2851C25.3449 20.3595 25.3594 20.3852 25.3278 20.4359C25.1237 20.7662 24.8452 20.9597 24.492 21.0163C23.9607 21.1019 23.5374 20.9233 23.2221 20.4814C23.151 20.382 23.1003 20.2692 23.0693 20.1431C22.9683 19.731 23.0132 19.3783 23.2045 19.0843C23.414 18.7621 23.7485 18.5226 24.136 18.4911C24.439 18.4665 24.6999 18.528 24.9195 18.6755C25.0574 18.7679 25.1937 18.9037 25.3284 19.0822C25.3781 19.1479 25.362 19.1805 25.2797 19.1789L25.1648 19.1768C25.1001 19.1757 25.0478 19.1495 25.0082 19.0982C24.9067 18.9678 24.7907 18.877 24.6608 18.8262C24.3001 18.6851 23.9762 18.7215 23.6892 18.9358C23.4386 19.1228 23.3012 19.3831 23.2772 19.716C23.2697 19.8203 23.2991 19.9074 23.3055 20.0089C23.3082 20.0485 23.3167 20.0875 23.3317 20.126C23.4461 20.4151 23.725 20.7133 24.0473 20.7625Z" fill="black"/>
<path d="M26.9744 21.0379C26.286 20.9813 25.7751 20.3645 25.8328 19.6601C25.8905 18.9558 26.4955 18.4309 27.1839 18.4876C27.8722 18.5442 28.3832 19.161 28.3255 19.8654C28.2677 20.5698 27.6627 21.0946 26.9744 21.0379ZM27.0941 20.7857C27.6398 20.7782 28.0759 20.3138 28.0678 19.7483C28.0598 19.1829 27.6114 18.7313 27.0652 18.7388C26.5196 18.7463 26.0835 19.2107 26.0915 19.7761C26.0995 20.3416 26.5479 20.7932 27.0941 20.7857Z" fill="black"/>
<path d="M30.773 20.732L31.5453 20.7304C31.5646 20.7304 31.5801 20.7459 31.5801 20.7651V20.9565C31.5801 20.9757 31.5646 20.9912 31.5453 20.9912L30.5042 20.9901C30.485 20.9901 30.4695 20.9746 30.4695 20.9554L30.4711 18.5611C30.4711 18.5419 30.4866 18.5264 30.5058 18.5264C30.5058 18.5264 30.5064 18.5264 30.5069 18.5264L30.7036 18.5317C30.7223 18.5322 30.7372 18.5477 30.7372 18.5665L30.7383 20.6973C30.7383 20.7165 30.7538 20.732 30.773 20.732Z" fill="black"/>
<path d="M32.4508 18.8373V20.9424C32.4513 20.9686 32.43 20.99 32.4038 20.9905H32.245C32.2183 20.9916 32.1969 20.9702 32.1964 20.9435C32.1964 20.9435 32.1964 20.9435 32.1964 20.943V18.8373C32.1964 18.8106 32.175 18.7892 32.1483 18.7892L31.7528 18.787C31.7272 18.787 31.7063 18.7662 31.7053 18.7405L31.7004 18.577C31.6999 18.5503 31.7208 18.5284 31.7475 18.5278C31.7475 18.5278 31.748 18.5278 31.7486 18.5278H32.8976C32.9243 18.5278 32.9457 18.5497 32.9457 18.5765L32.9462 18.7379C32.9462 18.7646 32.9254 18.786 32.8987 18.7865C32.8987 18.7865 32.8987 18.7865 32.8981 18.7865L32.4984 18.7892C32.4722 18.7892 32.4508 18.8111 32.4508 18.8373Z" fill="black"/>
<path d="M33.4027 18.5577C33.4027 18.5416 33.4155 18.5288 33.4316 18.5288L34.1905 18.5299C34.8329 18.5309 35.3524 19.0515 35.3513 19.6918V19.8361C35.3502 20.4763 34.8286 20.9947 34.1862 20.9937L33.4273 20.9926C33.4113 20.9926 33.3984 20.9798 33.3984 20.9637L33.4027 18.5577ZM33.6603 18.8201L33.6571 20.7024C33.6571 20.7216 33.6726 20.7371 33.6918 20.7371H34.2081C34.6961 20.7387 35.0921 20.3432 35.0931 19.8542V19.6725C35.0942 19.1835 34.6993 18.7869 34.2113 18.7859H33.6951C33.6758 18.7859 33.6603 18.8008 33.6603 18.8201Z" fill="black"/>
<path d="M28.7298 20.6981L28.729 20.929C28.7289 20.9617 28.7553 20.9884 28.7881 20.9885L29.0361 20.9894C29.0688 20.9895 29.0955 20.963 29.0956 20.9302L29.0964 20.6994C29.0965 20.6666 29.07 20.6399 29.0373 20.6398L28.7893 20.639C28.7565 20.6389 28.7299 20.6653 28.7298 20.6981Z" fill="black"/>
<path d="M29.6107 20.9905L29.5134 20.9916C29.4893 20.9916 29.4776 20.9798 29.477 20.9563V20.6821C29.477 20.6559 29.4899 20.6426 29.5161 20.6426L29.787 20.6442C29.8121 20.6442 29.8244 20.6565 29.8244 20.6811C29.8244 20.8334 29.849 21.0381 29.7993 21.1861C29.7544 21.3213 29.6694 21.4549 29.5048 21.44C29.4872 21.4384 29.477 21.4293 29.4744 21.4116C29.4706 21.3876 29.4722 21.3646 29.4792 21.3416C29.484 21.3251 29.4941 21.3122 29.5086 21.3031C29.6139 21.2379 29.6582 21.1423 29.6411 21.0167C29.6384 20.9991 29.6283 20.9905 29.6107 20.9905Z" fill="black"/>
<path d="M35.9802 20.6416H35.6841C35.6732 20.6416 35.6643 20.6505 35.6643 20.6614V20.9714C35.6643 20.9823 35.6732 20.9911 35.6841 20.9911H35.9802C35.9911 20.9911 35.9999 20.9823 35.9999 20.9714V20.6614C35.9999 20.6505 35.9911 20.6416 35.9802 20.6416Z" fill="black"/>
<circle cx="20" cy="20" r="19.5" stroke="black" stroke-opacity="0.05"/>
</svg>
