<svg width="40" height="40" viewBox="0 0 40 40" fill="none" xmlns="http://www.w3.org/2000/svg">
<circle cx="20" cy="20" r="20" fill="#F6F8FA"/>
<g clip-path="url(#clip0_18553_55903)">
<path d="M10.1628 22.9043C9.25773 17.6652 13.4005 12.9871 18.6777 13.2293C19.774 13.2803 20.7937 13.5225 21.7115 13.9686C22.0812 14.1471 22.4508 14.3383 22.846 14.5295C23.1137 14.6697 23.4196 14.7462 23.751 14.7717C24.7071 14.8227 25.2297 14.0706 25.115 13.1911C25.0767 12.8469 24.9747 12.49 25.0002 12.1458C25.0767 10.6544 26.3514 9.57092 27.8556 9.76213C29.0028 9.90234 29.8823 10.8201 30.0098 11.9801C30.201 13.65 28.7479 15.0011 27.129 14.7334C26.5809 14.6442 25.9308 14.5805 25.5229 15.0011C24.9747 15.5747 25.0512 16.6455 25.4081 17.2956C25.6503 17.729 25.8543 18.1624 26.0073 18.583C27.3457 22.1267 26.0327 26.244 22.846 28.3472C20.2839 30.0298 16.9187 30.2083 14.2418 28.6659C12.0621 27.4167 10.5834 25.3772 10.1628 22.9043ZM15.1723 18.7742C15.2106 18.685 15.2233 18.6213 15.2106 18.5575C15.1978 18.5065 15.1723 18.5065 15.1468 18.5575C15.0576 18.6723 14.9684 18.787 14.8664 18.9017C14.7644 19.0164 14.6752 19.1439 14.5987 19.2841C14.4203 19.6155 14.2673 19.9342 14.1526 20.2274C13.9996 20.5971 13.9231 21.0304 13.9231 21.5276C13.9231 22.012 13.9231 22.5856 14.1016 23.0445C14.6624 24.4976 15.5547 25.3644 17.0206 25.8233C17.658 26.0273 18.3336 26.0528 19.0602 25.9125C19.2641 25.8743 19.4935 25.7978 19.7357 25.6703C19.7357 25.6703 19.8887 25.6194 20.1819 25.5174C20.3221 25.4664 20.4751 25.3899 20.6408 25.2752C20.934 25.0712 21.1889 24.88 21.3928 24.7016C21.4821 24.6251 21.5586 24.5231 21.5968 24.4084C21.635 24.2937 21.686 24.179 21.7625 24.077C21.788 24.0387 21.8007 24.0005 21.8135 23.9495C21.8135 23.8603 21.8007 23.822 21.737 23.8348C22.5783 22.4071 22.6803 21.0177 22.0174 19.6665C21.7625 19.1566 21.4311 18.7105 20.9977 18.3408C20.5261 17.9329 20.0289 17.6652 19.4935 17.5123C17.8237 17.0534 16.3833 17.474 15.1978 18.7742H15.1723Z" fill="#408A68"/>
<path d="M21.7111 23.8351C21.0483 24.7274 20.2197 25.2882 19.2127 25.4922C16.8545 26.0021 14.4071 24.4087 14.1777 21.872C14.0757 20.7121 14.4071 19.6796 15.1592 18.7745C16.3447 17.4743 17.7851 17.0537 19.4549 17.5126C19.9903 17.6655 20.5002 17.9332 20.9591 18.3411C21.3925 18.7108 21.7366 19.1569 21.9788 19.6668C22.6417 21.018 22.5397 22.4074 21.6984 23.8351H21.7111Z" fill="#A1FC4E"/>
<path d="M15.1594 18.7742C14.4073 19.6792 14.0759 20.7117 14.1779 21.8717C14.4073 24.4084 16.842 26.0017 19.2129 25.4918C20.2072 25.2751 21.0485 24.727 21.7114 23.8347C21.7751 23.8347 21.8006 23.8602 21.7878 23.9495C21.7878 24.0004 21.7751 24.0387 21.7369 24.0769C21.6604 24.1789 21.6094 24.2936 21.5711 24.4083C21.5329 24.5231 21.4692 24.625 21.3672 24.7015C21.1505 24.88 20.9083 25.0712 20.6151 25.2751C20.4494 25.3899 20.2964 25.4663 20.1562 25.5173C19.863 25.6193 19.7101 25.6703 19.7101 25.6703C19.4551 25.785 19.2384 25.8743 19.0345 25.9125C18.3079 26.0527 17.6196 26.0272 16.995 25.8233C15.5418 25.3644 14.6368 24.4976 14.0759 23.0444C13.8975 22.5983 13.8975 22.0119 13.8975 21.5275C13.8975 21.0304 13.9739 20.597 14.1269 20.2273C14.2416 19.9342 14.3946 19.6282 14.5731 19.2841C14.6495 19.1438 14.7388 19.0164 14.8407 18.9017C14.9427 18.7869 15.0447 18.6722 15.1212 18.5575C15.1467 18.5192 15.1722 18.5192 15.1849 18.5575C15.1977 18.6085 15.1849 18.685 15.1467 18.7742H15.1594Z" fill="#33753A"/>
</g>
<circle cx="20" cy="20" r="19.5" stroke="black" stroke-opacity="0.05"/>
<defs>
<clipPath id="clip0_18553_55903">
<rect width="20" height="20" fill="white" transform="translate(10.0352 9.73682)"/>
</clipPath>
</defs>
</svg>
