<svg width="40" height="40" viewBox="0 0 40 40" fill="none" xmlns="http://www.w3.org/2000/svg">
<circle cx="20" cy="20" r="20" fill="#ED1840"/>
<path d="M22.7158 11.4379C22.7158 11.4451 22.7143 11.4523 22.7116 11.4589C22.7088 11.4656 22.7048 11.4716 22.6997 11.4767C22.6946 11.4818 22.6886 11.4859 22.6819 11.4886C22.6752 11.4914 22.6681 11.4928 22.6609 11.4928H9.55486C9.54765 11.4928 9.54052 11.4914 9.53386 11.4886C9.52721 11.4859 9.52116 11.4818 9.51607 11.4767C9.51097 11.4716 9.50693 11.4656 9.50418 11.4589C9.50142 11.4523 9.5 11.4451 9.5 11.4379V9.80217C9.5 9.78762 9.50578 9.77367 9.51607 9.76338C9.52636 9.75309 9.54031 9.74731 9.55486 9.74731H22.6609C22.6755 9.74731 22.6894 9.75309 22.6997 9.76338C22.71 9.77367 22.7158 9.78762 22.7158 9.80217V11.4379Z" fill="white"/>
<path d="M29.7296 18.6458C30.1252 14.9886 27.2876 11.4977 23.4658 11.4977C23.4486 11.5002 23.4311 11.4987 23.4146 11.4932C23.3982 11.4877 23.3832 11.4785 23.3709 11.4662C23.3587 11.454 23.3494 11.439 23.344 11.4225C23.3385 11.406 23.337 11.3885 23.3395 11.3713V9.8719C23.337 9.85692 23.3382 9.84155 23.343 9.82713C23.3478 9.81272 23.356 9.7997 23.367 9.7892C23.378 9.77871 23.3914 9.77107 23.406 9.76694C23.4206 9.7628 23.436 9.76231 23.4509 9.76551C24.927 9.82535 26.2043 10.1639 27.2826 10.7812C29.447 12.0125 30.7902 13.815 31.3122 16.1889C31.5439 17.2463 31.5622 18.3394 31.366 19.4041C31.1699 20.4688 30.7631 21.4835 30.1697 22.3889C29.5762 23.2944 28.808 24.0722 27.91 24.6769C27.0121 25.2816 26.0025 25.7009 24.9403 25.9104C23.4542 26.2112 21.6256 26.0616 20.0547 26.0766C20.0381 26.0791 20.0211 26.0776 20.0052 26.0724C19.9893 26.0672 19.9748 26.0584 19.9628 26.0466C19.9509 26.0349 19.9419 26.0205 19.9365 26.0046C19.931 25.9888 19.9294 25.9718 19.9316 25.9552V24.4209C19.9303 24.4102 19.9314 24.3994 19.9349 24.3893C19.9383 24.3791 19.944 24.3699 19.9515 24.3622C19.959 24.3545 19.9682 24.3487 19.9782 24.345C19.9883 24.3413 19.9991 24.34 20.0098 24.3411C20.8055 24.3222 21.6561 24.3222 22.5615 24.3411C23.3199 24.376 24.0797 24.318 24.824 24.1682C26.1066 23.8565 27.2635 23.1608 28.1402 22.174C29.0168 21.1872 29.5713 19.9563 29.7296 18.6458Z" fill="white"/>
<path d="M22.7158 13.8102C22.7158 13.8238 22.7103 13.8369 22.7007 13.8466C22.691 13.8563 22.6779 13.8617 22.6642 13.8617H9.55153C9.53787 13.8617 9.52476 13.8563 9.51509 13.8466C9.50543 13.8369 9.5 13.8238 9.5 13.8102V12.1677C9.5 12.1541 9.50543 12.141 9.51509 12.1313C9.52476 12.1216 9.53787 12.1162 9.55153 12.1162H22.6642C22.6779 12.1162 22.691 12.1216 22.7007 12.1313C22.7103 12.141 22.7158 12.1541 22.7158 12.1677V13.8102Z" fill="white"/>
<path d="M26.5764 20.3598C27.0263 19.7658 27.3037 19.0592 27.3781 18.3178C27.4525 17.5764 27.3211 16.8288 26.9983 16.1572C26.6754 15.4856 26.1737 14.9161 25.5482 14.5111C24.9228 14.1061 24.1977 13.8814 23.4529 13.8616C23.437 13.863 23.4211 13.8608 23.4062 13.8552C23.3913 13.8496 23.3779 13.8407 23.3669 13.8292C23.3558 13.8178 23.3476 13.804 23.3426 13.7889C23.3376 13.7737 23.3361 13.7577 23.3382 13.7419V12.2458C23.3369 12.2351 23.338 12.2242 23.3415 12.214C23.3449 12.2038 23.3505 12.1944 23.358 12.1867C23.3655 12.1789 23.3746 12.1728 23.3847 12.169C23.3947 12.1651 23.4055 12.1636 23.4163 12.1644C23.8643 12.1378 24.3137 12.1855 24.7462 12.3057C27.7102 13.1468 29.5371 15.7966 29.0434 18.8853C28.8611 19.9722 28.372 20.9844 27.6336 21.8025C26.8952 22.6207 25.9384 23.2108 24.8758 23.5033C24.294 23.664 23.5022 23.7355 22.5003 23.7178C21.6381 23.7011 20.8158 23.7011 20.0334 23.7178C20.0203 23.72 20.0069 23.7191 19.9942 23.7151C19.9816 23.7112 19.97 23.7043 19.9604 23.6951C19.9509 23.6859 19.9437 23.6746 19.9393 23.6621C19.9349 23.6495 19.9336 23.6362 19.9353 23.623V22.0554C19.9337 22.0432 19.9348 22.0308 19.9388 22.0192C19.9427 22.0076 19.9493 21.997 19.958 21.9883C19.9666 21.9796 19.9772 21.973 19.9889 21.9691C20.0005 21.9652 20.0129 21.964 20.0251 21.9656C21.0646 21.9656 22.1795 21.9656 23.3697 21.9656C23.9917 21.9623 24.6045 21.8157 25.1606 21.5372C25.7168 21.2587 26.2012 20.8558 26.5764 20.3598Z" fill="white"/>
<path d="M22.7158 16.1723C22.7158 16.1798 22.7143 16.1871 22.7115 16.194C22.7086 16.2008 22.7045 16.2071 22.6992 16.2123C22.694 16.2176 22.6877 16.2217 22.6809 16.2246C22.674 16.2274 22.6667 16.2289 22.6592 16.2289H9.55652C9.5491 16.2289 9.54175 16.2274 9.53489 16.2246C9.52803 16.2217 9.5218 16.2176 9.51655 16.2123C9.51131 16.2071 9.50714 16.2008 9.5043 16.194C9.50146 16.1871 9.5 16.1798 9.5 16.1723V14.5831C9.5 14.5757 9.50146 14.5684 9.5043 14.5615C9.50714 14.5546 9.51131 14.5484 9.51655 14.5432C9.5218 14.5379 9.52803 14.5338 9.53489 14.5309C9.54175 14.5281 9.5491 14.5266 9.55652 14.5266H22.6592C22.6742 14.5266 22.6886 14.5326 22.6992 14.5432C22.7098 14.5538 22.7158 14.5681 22.7158 14.5831V16.1723Z" fill="white"/>
<path d="M24.9008 18.5461C25.0014 18.3018 25.0424 18.0371 25.0204 17.7738C24.9983 17.5106 24.9138 17.2564 24.7739 17.0323C24.634 16.8082 24.4427 16.6207 24.2158 16.4853C23.989 16.3499 23.7331 16.2705 23.4695 16.2537C23.4517 16.255 23.4338 16.2524 23.4171 16.2461C23.4004 16.2397 23.3854 16.2297 23.373 16.2169C23.3606 16.204 23.3512 16.1886 23.3455 16.1717C23.3397 16.1547 23.3378 16.1368 23.3398 16.119V14.7276C23.3398 14.5614 23.4246 14.4816 23.5958 14.5032C25.2138 14.7116 26.2428 15.5865 26.6828 17.1281C26.7925 17.6398 26.7925 18.169 26.6828 18.6807C26.3659 19.8677 25.6655 20.6734 24.5816 21.0978C24.094 21.2895 23.383 21.3738 22.4488 21.3505C21.6309 21.3305 20.8341 21.3305 20.0583 21.3505C20.0413 21.3536 20.0238 21.3526 20.0073 21.3476C19.9908 21.3426 19.9757 21.3337 19.9633 21.3216C19.951 21.3096 19.9417 21.2948 19.9362 21.2784C19.9307 21.262 19.9293 21.2445 19.932 21.2275V19.6798C19.9307 19.6679 19.932 19.6559 19.936 19.6446C19.9399 19.6333 19.9464 19.6231 19.9549 19.6146C19.9633 19.6061 19.9736 19.5997 19.9849 19.5957C19.9961 19.5918 20.0082 19.5904 20.0201 19.5917C20.9211 19.5917 21.9057 19.595 22.9741 19.6017C23.8402 19.615 24.545 19.369 24.9008 18.5461Z" fill="white"/>
<path d="M14.5697 31.584C14.5697 31.6008 14.563 31.6169 14.5512 31.6287C14.5393 31.6405 14.5233 31.6472 14.5065 31.6472H12.8874C12.8706 31.6472 12.8546 31.6405 12.8427 31.6287C12.8309 31.6169 12.8242 31.6008 12.8242 31.584V16.9553C12.8242 16.947 12.8259 16.9387 12.829 16.9311C12.8322 16.9234 12.8369 16.9165 12.8427 16.9106C12.8486 16.9047 12.8556 16.9001 12.8632 16.8969C12.8709 16.8937 12.8791 16.8921 12.8874 16.8921H14.5065C14.5148 16.8921 14.523 16.8937 14.5307 16.8969C14.5384 16.9001 14.5453 16.9047 14.5512 16.9106C14.5571 16.9165 14.5617 16.9234 14.5649 16.9311C14.5681 16.9387 14.5697 16.947 14.5697 16.9553V31.584Z" fill="white"/>
<path d="M16.9388 31.589C16.9388 31.6049 16.9325 31.6201 16.9213 31.6313C16.9101 31.6425 16.8949 31.6489 16.879 31.6489H15.2532C15.2373 31.6489 15.2221 31.6425 15.2109 31.6313C15.1997 31.6201 15.1934 31.6049 15.1934 31.589V16.9602C15.1934 16.9444 15.1997 16.9291 15.2109 16.9179C15.2221 16.9067 15.2373 16.9004 15.2532 16.9004H16.879C16.8949 16.9004 16.9101 16.9067 16.9213 16.9179C16.9325 16.9291 16.9388 16.9444 16.9388 16.9602V31.589Z" fill="white"/>
<path d="M19.308 31.5823C19.3082 31.5909 19.3067 31.5994 19.3035 31.6074C19.3004 31.6153 19.2956 31.6226 19.2895 31.6287C19.2835 31.6347 19.2762 31.6395 19.2682 31.6427C19.2603 31.6458 19.2517 31.6474 19.2432 31.6471H17.6274C17.6188 31.6474 17.6102 31.6458 17.6023 31.6427C17.5943 31.6395 17.5871 31.6347 17.581 31.6287C17.5749 31.6226 17.5702 31.6153 17.567 31.6074C17.5638 31.5994 17.5623 31.5909 17.5625 31.5823V16.9535C17.5623 16.945 17.5638 16.9364 17.567 16.9284C17.5702 16.9205 17.5749 16.9132 17.581 16.9072C17.5871 16.9011 17.5943 16.8963 17.6023 16.8932C17.6102 16.89 17.6188 16.8885 17.6274 16.8887H19.2432C19.2517 16.8885 19.2603 16.89 19.2682 16.8932C19.2762 16.8963 19.2835 16.9011 19.2895 16.9072C19.2956 16.9132 19.3004 16.9205 19.3035 16.9284C19.3067 16.9364 19.3082 16.945 19.308 16.9535V31.5823Z" fill="white"/>
<circle cx="20" cy="20" r="19.5" stroke="black" stroke-opacity="0.05"/>
</svg>
