<svg width="40" height="40" viewBox="0 0 40 40" fill="none" xmlns="http://www.w3.org/2000/svg">
<circle cx="20" cy="20" r="20" fill="#555352"/>
<g clip-path="url(#clip0_18553_55579)">
<path d="M27.9582 13.8423H24.8581C24.8351 13.8423 24.8164 13.8611 24.8164 13.8844V15.8583C24.8164 15.8816 24.8351 15.9005 24.8581 15.9005H27.9582C27.9812 15.9005 27.9998 15.8816 27.9998 15.8583V13.8844C27.9998 13.8611 27.9812 13.8423 27.9582 13.8423Z" fill="#E69C37"/>
<path d="M19.8541 21.154C19.3424 20.8049 18.7414 20.7267 18.1405 20.7327C17.0753 20.7387 16.0043 20.7387 14.9273 20.7327C13.529 20.7207 12.4282 20.2392 11.6249 19.2884C11.0001 18.5301 10.8632 17.4348 11.131 16.49C11.5356 15.0637 12.5174 14.2091 14.0823 13.9203C14.3025 13.8782 14.6714 13.8601 15.1951 13.8601C18.0274 13.8481 20.8597 13.842 23.6921 13.8481C23.7456 13.8481 23.7694 13.8721 23.7694 13.9263V15.822C23.7694 15.8761 23.7456 15.9002 23.6921 15.9002C21.5083 15.9002 19.0151 15.9002 16.2066 15.9002C15.8615 15.9002 15.5759 15.9544 15.3379 16.0627C14.7666 16.3215 14.3977 17.0737 14.6357 17.6816C14.9927 18.6204 15.7782 18.8009 16.7064 18.7949C17.7299 18.7829 18.795 18.7829 19.8958 18.7949C20.348 18.7949 20.8121 18.819 21.2346 18.9333C22.8769 19.3546 23.7218 20.3596 23.7694 21.9423C23.7932 22.7427 23.6445 23.4408 23.3113 24.0306C22.9483 24.6806 22.4247 25.168 21.7344 25.493C21.2644 25.7157 20.7764 25.83 20.2826 25.83C17.5454 25.83 14.7369 25.83 11.8569 25.83C11.8034 25.83 11.7796 25.7999 11.7796 25.7458V23.7718C11.7796 23.7177 11.8093 23.6876 11.8629 23.6876C14.0883 23.6876 16.3078 23.6876 18.5213 23.6876C18.8545 23.6876 19.1877 23.6214 19.5209 23.501C19.8779 23.3686 20.11 23.158 20.229 22.8631C20.4432 22.3275 20.3897 21.509 19.872 21.154H19.8541Z" fill="white"/>
<path d="M27.9522 16.8936H24.8581C24.8351 16.8936 24.8164 16.9124 24.8164 16.9357V25.8003C24.8164 25.8235 24.8351 25.8424 24.8581 25.8424H27.9522C27.9752 25.8424 27.9939 25.8235 27.9939 25.8003V16.9357C27.9939 16.9124 27.9752 16.8936 27.9522 16.8936Z" fill="white"/>
</g>
<circle cx="20" cy="20" r="19.5" stroke="black" stroke-opacity="0.05"/>
<defs>
<clipPath id="clip0_18553_55579">
<rect width="17" height="12" fill="white" transform="translate(11 13.8423)"/>
</clipPath>
</defs>
</svg>
