<svg width="40" height="40" viewBox="0 0 40 40" fill="none" xmlns="http://www.w3.org/2000/svg">
<circle cx="20" cy="20" r="20" fill="#F6F8FA"/>
<path d="M11.5761 16.0001H10.4349C10.4337 16 10.4325 16.0002 10.4313 16.0006C10.4302 16.001 10.4291 16.0016 10.4282 16.0024C10.4272 16.0032 10.4265 16.0042 10.4259 16.0053C10.4254 16.0064 10.4251 16.0076 10.425 16.0088L10.2935 17.0734L10.2406 17.5091L10.1559 18.1998L10.0034 19.4347L9.89678 20.2966L9.81479 20.9627L9.74242 21.5633C9.73556 21.5996 9.73314 21.6366 9.73521 21.6735C9.73552 21.6742 9.73567 21.675 9.73567 21.6757C9.73567 21.6765 9.73552 21.6773 9.73521 21.678C9.73453 21.6791 9.73348 21.68 9.73222 21.6805C9.73097 21.681 9.72959 21.6811 9.7283 21.6807C9.72673 21.6805 9.72527 21.6797 9.72418 21.6786C9.72309 21.6774 9.72242 21.676 9.7223 21.6744L9.66644 21.284L9.56404 20.6359L9.42229 19.8362L9.28715 19.0743L9.12829 18.1854L9.00817 17.516L8.92558 17.0539L8.73879 16.0148C8.73864 16.0127 8.73807 16.0106 8.73711 16.0087C8.73615 16.0068 8.73481 16.0051 8.73319 16.0038C8.73157 16.0024 8.72968 16.0014 8.72766 16.0007C8.72563 16.0001 8.72349 15.9999 8.72138 16.0001H7.86731C7.86479 15.9998 7.86226 16.0001 7.85985 16.0008C7.85744 16.0016 7.85521 16.0028 7.85328 16.0044C7.85135 16.0061 7.84976 16.0081 7.84861 16.0103C7.84746 16.0125 7.84677 16.015 7.84658 16.0175L7.65799 17.0737L7.58382 17.4863L7.44928 18.2389L7.24627 19.3776L7.08321 20.2963L6.9772 20.9107L6.8793 21.6125C6.86969 21.6819 6.86068 21.6816 6.85227 21.6125L6.81503 21.3044L6.73275 20.6389L6.63845 19.8761L6.57689 19.3773L6.47869 18.5836L6.38079 17.7866L6.28379 17.0058L6.16157 16.0178C6.1615 16.0153 6.16091 16.0128 6.15984 16.0105C6.15877 16.0083 6.15725 16.0062 6.15536 16.0046C6.15347 16.0029 6.15126 16.0017 6.14887 16.0009C6.14647 16.0001 6.14395 15.9998 6.14144 16.0001H5.01439C5.00328 16.0001 4.99878 16.0055 5.00028 16.0163L5.16845 17.0641L5.28647 17.789L5.4162 18.5881L5.54624 19.3881L5.62582 19.8806L5.74804 20.6314L5.86426 21.3455L6.00991 22.2411L6.2934 23.9789C6.29383 23.9818 6.29529 23.9844 6.2975 23.9863C6.2997 23.9882 6.30251 23.9892 6.30541 23.9891H7.37961C7.3819 23.9893 7.3842 23.9891 7.38639 23.9884C7.38859 23.9877 7.39062 23.9866 7.39238 23.9851C7.39414 23.9836 7.39559 23.9818 7.39664 23.9798C7.3977 23.9777 7.39834 23.9755 7.39853 23.9732L7.68262 22.1927L7.88592 20.9146L7.97241 20.3686L8.13037 19.371L8.28353 18.3611C8.28923 18.3224 8.29524 18.3224 8.30125 18.3611L8.40876 19.0731L8.53999 19.8972L8.65801 20.6401L8.76072 21.2879L8.91627 22.2669L9.18655 23.9717C9.18666 23.9739 9.18722 23.9761 9.1882 23.9781C9.18918 23.9801 9.19056 23.9818 9.19225 23.9833C9.19393 23.9847 9.1959 23.9858 9.19802 23.9864C9.20014 23.9871 9.20237 23.9873 9.20457 23.987H10.2758C10.278 23.9873 10.2802 23.9871 10.2823 23.9864C10.2844 23.9858 10.2864 23.9847 10.2881 23.9833C10.2898 23.9818 10.2912 23.9801 10.2921 23.9781C10.2931 23.9761 10.2937 23.9739 10.2938 23.9717L10.5722 22.2654L10.6746 21.6347L10.786 20.9521L10.8923 20.2963L11.0253 19.4797L11.2355 18.1959L11.3476 17.5052L11.4184 17.0656L11.5887 16.0118C11.5899 16.0052 11.5857 16.0001 11.5761 16.0001ZM7.60033 17.507C7.60033 17.507 7.60033 17.507 7.60033 17.5052C7.60033 17.5034 7.59973 17.5067 7.60033 17.507Z" fill="url(#paint0_linear_17752_43937)"/>
<path d="M33.08 17.0382H34.9998V16.001L31.9917 16.0028C31.9897 16.0025 31.9876 16.0027 31.9857 16.0033C31.9837 16.0039 31.982 16.005 31.9805 16.0064C31.9791 16.0078 31.978 16.0096 31.9773 16.0115C31.9766 16.0134 31.9764 16.0155 31.9767 16.0175V17.1626V17.5701V23.9792C31.9765 23.9804 31.9767 23.9817 31.9771 23.9828C31.9775 23.984 31.9781 23.985 31.979 23.9859C31.9799 23.9868 31.9809 23.9874 31.9821 23.9878C31.9832 23.9882 31.9845 23.9884 31.9857 23.9882H34.9998V22.8918L33.0803 22.8897C33.0782 22.89 33.0761 22.8898 33.0742 22.8892C33.0722 22.8885 33.0704 22.8874 33.0689 22.886C33.0674 22.8845 33.0663 22.8827 33.0656 22.8808C33.065 22.8788 33.0647 22.8767 33.065 22.8747V22.0906V21.2798V20.499L33.0695 20.3933C33.0693 20.391 33.0697 20.3888 33.0705 20.3867C33.0713 20.3846 33.0726 20.3827 33.0742 20.3811C33.0759 20.3796 33.0778 20.3784 33.08 20.3777C33.0821 20.377 33.0844 20.3768 33.0866 20.377H34.726C34.7311 20.377 34.7361 20.375 34.7398 20.3713C34.7434 20.3677 34.7455 20.3627 34.7455 20.3575V19.7413V19.3551C34.7457 19.3532 34.7455 19.3512 34.7449 19.3494C34.7443 19.3476 34.7433 19.3459 34.7419 19.3446C34.7405 19.3432 34.7389 19.3422 34.7371 19.3416C34.7352 19.3409 34.7333 19.3407 34.7314 19.341H33.0779C33.0759 19.3412 33.0739 19.341 33.0721 19.3404C33.0702 19.3397 33.0685 19.3387 33.0671 19.3373C33.0657 19.3359 33.0646 19.3342 33.0639 19.3324C33.0632 19.3305 33.063 19.3285 33.0632 19.3266V19.1398V17.5707V17.1998C33.0636 17.1944 33.0636 17.189 33.0632 17.1836L33.0659 17.0536C33.0657 17.0516 33.0659 17.0496 33.0665 17.0477C33.0671 17.0459 33.0681 17.0441 33.0694 17.0427C33.0708 17.0412 33.0724 17.0401 33.0742 17.0393C33.0761 17.0385 33.078 17.0382 33.08 17.0382Z" fill="url(#paint1_linear_17752_43937)"/>
<path d="M14.3902 17.074C14.3904 17.073 14.3903 17.0719 14.39 17.0709C14.3896 17.0699 14.389 17.0689 14.3883 17.0682C14.3875 17.0674 14.3866 17.0669 14.3856 17.0665C14.3846 17.0662 14.3835 17.0661 14.3824 17.0662H13.3037C13.3027 17.0662 13.3017 17.0664 13.3007 17.0668C13.2998 17.0672 13.2989 17.0678 13.2982 17.0685C13.2975 17.0692 13.2969 17.0701 13.2965 17.0711C13.2961 17.072 13.2959 17.073 13.2959 17.074V17.9215V18.6359V23.9814C13.2958 23.9825 13.296 23.9835 13.2964 23.9846C13.2967 23.9856 13.2973 23.9865 13.2981 23.9872C13.2989 23.988 13.2998 23.9886 13.3008 23.9889C13.3019 23.9892 13.303 23.9893 13.304 23.9892H14.3827C14.3848 23.9891 14.3868 23.9882 14.3883 23.9867C14.3897 23.9852 14.3905 23.9832 14.3905 23.9811V22.2762V17.074H14.3902Z" fill="url(#paint2_linear_17752_43937)"/>
<path d="M25.0836 20.6531C24.9278 20.482 24.7267 20.3584 24.5037 20.2967C24.4959 20.2946 24.4956 20.2913 24.5037 20.2871L24.7178 20.1597C24.8878 20.018 25.0216 19.8379 25.1082 19.6342C25.194 19.4468 25.2471 19.2461 25.2649 19.0408C25.2986 18.7171 25.26 18.3901 25.152 18.0831C25.0697 17.8677 24.966 17.6964 24.8409 17.5693C24.6673 17.3813 24.4476 17.2419 24.2037 17.1648C24.0215 17.106 23.8317 17.0739 23.6403 17.0696C23.0997 17.0644 22.5577 17.0644 22.0141 17.0696C22.0122 17.0696 22.0104 17.0703 22.009 17.0717C22.0077 17.073 22.0069 17.0749 22.0069 17.0768V17.6263V18.0825V22.0402V23.9712C22.0067 23.9733 22.0069 23.9753 22.0076 23.9773C22.0083 23.9792 22.0093 23.981 22.0108 23.9825C22.0122 23.9839 22.014 23.985 22.0159 23.9858C22.0178 23.9865 22.0199 23.9867 22.0219 23.9865C22.5225 23.9909 23.0197 23.99 23.5136 23.9838C23.7839 23.9823 24.0525 23.9406 24.3106 23.8601C24.9302 23.6627 25.3006 23.2369 25.4217 22.5826C25.4503 22.4271 25.4657 22.2695 25.4677 22.1114C25.4719 21.7997 25.4776 21.5501 25.4046 21.2706C25.3482 21.0422 25.2381 20.8305 25.0836 20.6531ZM23.0922 18.0825L23.679 18.0894C23.9978 18.1545 24.1828 18.3338 24.2343 18.6273C24.2568 18.7614 24.2646 18.8975 24.2577 19.0333C24.247 19.2136 24.1916 19.3884 24.0965 19.542C23.9519 19.7448 23.7417 19.8496 23.4658 19.8564C23.3479 19.8592 23.2278 19.8597 23.1054 19.8579C23.1034 19.8581 23.1013 19.8578 23.0994 19.8571C23.0975 19.8564 23.0957 19.8553 23.0943 19.8538C23.0929 19.8524 23.0918 19.8506 23.0911 19.8487C23.0904 19.8467 23.0902 19.8446 23.0904 19.8426V19.2285L23.0922 18.0825ZM23.576 22.9364C23.4189 22.9378 23.2631 22.9378 23.1088 22.9364C23.1066 22.9367 23.1045 22.9365 23.1024 22.9358C23.1004 22.9351 23.0986 22.934 23.097 22.9325C23.0955 22.9309 23.0944 22.9291 23.0937 22.9271C23.093 22.925 23.0928 22.9229 23.0931 22.9207V22.0198V21.3231V20.8799C23.0928 20.8774 23.093 20.8748 23.0938 20.8724C23.0946 20.87 23.096 20.8678 23.0978 20.8661C23.0996 20.8643 23.1018 20.863 23.1043 20.8623C23.1067 20.8615 23.1093 20.8614 23.1118 20.8618C23.2333 20.8654 23.3571 20.8654 23.4832 20.8618C23.6046 20.8553 23.7263 20.8682 23.8436 20.9003C24.0624 20.9688 24.2188 21.1134 24.3127 21.3342C24.4283 21.6159 24.4289 21.9081 24.3998 22.2C24.386 22.3353 24.3452 22.4664 24.2796 22.5856C24.1235 22.8409 23.8673 22.9334 23.576 22.9364Z" fill="url(#paint3_linear_17752_43937)"/>
<path d="M19.5964 21.3021L19.4345 20.5786L19.2775 19.8759L19.1616 19.3546L18.9853 18.5642L18.8096 17.7774L18.6555 17.0836C18.6549 17.0785 18.6523 17.0739 18.6482 17.0706C18.6442 17.0674 18.6391 17.0658 18.6339 17.0662H17.7627C17.7574 17.0658 17.7521 17.0674 17.7479 17.0708C17.7437 17.0741 17.741 17.0789 17.7402 17.0843L17.5738 17.8239L17.4075 18.566L17.2273 19.3675L17.1126 19.8834L16.942 20.6468L16.7933 21.3117L16.5729 22.2988L16.1999 23.9697C16.1972 23.982 16.202 23.9883 16.215 23.9883H17.2853C17.288 23.9883 17.2907 23.9873 17.2928 23.9856C17.2949 23.9838 17.2964 23.9814 17.297 23.9787L17.5787 22.5399C17.5792 22.5353 17.5815 22.5311 17.5851 22.5282C17.5887 22.5253 17.5933 22.5239 17.5979 22.5243H18.7937C18.7987 22.5239 18.8037 22.5254 18.8077 22.5286C18.8116 22.5318 18.8141 22.5364 18.8147 22.5414L19.0949 23.9724C19.0954 23.977 19.0977 23.9812 19.1013 23.9842C19.1049 23.9872 19.1095 23.9886 19.1141 23.9883H20.1886C20.1906 23.9878 20.1923 23.9865 20.1934 23.9848C20.1944 23.9831 20.1948 23.981 20.1943 23.979L19.8102 22.257L19.5964 21.3021ZM18.4435 20.6261L18.5889 21.3723L18.6066 21.4741C18.6066 21.4834 18.6042 21.4882 18.5949 21.4882H17.8009C17.7904 21.4882 17.7862 21.4831 17.788 21.4729L17.8162 21.3072L17.951 20.6165L18.1075 19.8056L18.1925 19.2558C18.194 19.2459 18.197 19.2456 18.2009 19.2558L18.2057 19.2657L18.212 19.3257L18.2991 19.8807L18.4435 20.6261ZM18.0874 19.8453C18.0874 19.8453 18.0874 19.8471 18.0874 19.848C18.0874 19.8489 18.0874 19.8459 18.0874 19.8447V19.8453ZM18.0874 19.8525C18.0875 19.8538 18.0875 19.8551 18.0874 19.8564C18.0874 19.8548 18.0872 19.8531 18.0868 19.8516L18.0874 19.8525ZM18.0739 19.8759C18.0739 19.8759 18.076 19.8759 18.0766 19.8732C18.0772 19.8705 18.0742 19.8744 18.0733 19.8753L18.0739 19.8759ZM18.0835 19.8639C18.0841 19.8627 18.0846 19.8615 18.085 19.8603C18.0844 19.8614 18.0837 19.8624 18.0829 19.8633L18.0835 19.8639ZM18.0564 19.8849C18.0534 19.8854 18.0502 19.8854 18.0471 19.8849C18.05 19.8851 18.053 19.8849 18.0558 19.8843L18.0564 19.8849Z" fill="url(#paint4_linear_17752_43937)"/>
<path d="M30.36 22.892H28.4531C28.4511 22.8923 28.4491 22.8922 28.4472 22.8915C28.4453 22.8909 28.4436 22.8899 28.4422 22.8885C28.4408 22.8871 28.4398 22.8854 28.4391 22.8835C28.4385 22.8816 28.4384 22.8796 28.4387 22.8776L28.4369 22.271V17.8505V17.0847C28.4372 17.0822 28.437 17.0796 28.4362 17.0772C28.4354 17.0748 28.434 17.0726 28.4322 17.0708C28.4304 17.069 28.4282 17.0676 28.4258 17.0668C28.4234 17.066 28.4208 17.0657 28.4183 17.0661H27.363C27.3604 17.0657 27.3579 17.066 27.3555 17.0668C27.353 17.0676 27.3508 17.069 27.349 17.0708C27.3472 17.0726 27.3459 17.0748 27.3451 17.0772C27.3443 17.0796 27.344 17.0822 27.3444 17.0847L27.342 17.8394V21.3166V22.3593V23.9698C27.3416 23.9723 27.3418 23.9748 27.3426 23.9772C27.3434 23.9796 27.3448 23.9818 27.3465 23.9835C27.3483 23.9853 27.3505 23.9867 27.3529 23.9875C27.3553 23.9883 27.3578 23.9885 27.3603 23.9881H30.3576C30.3596 23.9881 30.3615 23.9873 30.3629 23.9859C30.3643 23.9845 30.3651 23.9826 30.3651 23.9806V22.8995C30.3652 22.8979 30.3648 22.8963 30.3638 22.8949C30.3629 22.8936 30.3616 22.8925 30.36 22.892Z" fill="url(#paint5_linear_17752_43937)"/>
<circle cx="20" cy="20" r="19.5" stroke="black" stroke-opacity="0.05"/>
<defs>
<linearGradient id="paint0_linear_17752_43937" x1="8.29445" y1="16" x2="8.29445" y2="23.9892" gradientUnits="userSpaceOnUse">
<stop stop-color="#ED7618"/>
<stop offset="1" stop-color="#D70850"/>
</linearGradient>
<linearGradient id="paint1_linear_17752_43937" x1="33.4882" y1="16.001" x2="33.4882" y2="23.9883" gradientUnits="userSpaceOnUse">
<stop stop-color="#ED7618"/>
<stop offset="1" stop-color="#D70850"/>
</linearGradient>
<linearGradient id="paint2_linear_17752_43937" x1="13.8432" y1="17.0662" x2="13.8432" y2="23.9893" gradientUnits="userSpaceOnUse">
<stop stop-color="#ED7618"/>
<stop offset="1" stop-color="#D70850"/>
</linearGradient>
<linearGradient id="paint3_linear_17752_43937" x1="23.7383" y1="17.0657" x2="23.7383" y2="23.9893" gradientUnits="userSpaceOnUse">
<stop stop-color="#ED7618"/>
<stop offset="1" stop-color="#D70850"/>
</linearGradient>
<linearGradient id="paint4_linear_17752_43937" x1="18.1969" y1="17.0662" x2="18.1969" y2="23.9883" gradientUnits="userSpaceOnUse">
<stop stop-color="#ED7618"/>
<stop offset="1" stop-color="#D70850"/>
</linearGradient>
<linearGradient id="paint5_linear_17752_43937" x1="28.8535" y1="17.0659" x2="28.8535" y2="23.9883" gradientUnits="userSpaceOnUse">
<stop stop-color="#ED7618"/>
<stop offset="1" stop-color="#D70850"/>
</linearGradient>
</defs>
</svg>
