<svg width="40" height="40" viewBox="0 0 40 40" fill="none" xmlns="http://www.w3.org/2000/svg">
<circle cx="20" cy="20" r="20" fill="#004F96"/>
<g clip-path="url(#clip0_17752_43642)">
<path d="M11.3734 16.5151H11.4746C11.6511 16.5258 11.7855 16.599 11.8776 16.7348C11.9242 16.8034 11.9594 16.8808 11.9831 16.9668C11.9944 17.0077 12.0019 17.0558 12.0057 17.1112C12.0628 17.9392 12.1186 18.749 12.1729 19.5406C12.1731 19.5435 12.1746 19.5449 12.1775 19.5449L13.467 19.5448C13.4676 19.5448 13.4683 19.545 13.4689 19.5453C13.4694 19.5455 13.47 19.546 13.4704 19.5465C13.4708 19.547 13.471 19.5476 13.4712 19.5482C13.4713 19.5489 13.4713 19.5495 13.4711 19.5501L13.2477 20.3861C13.2473 20.3875 13.2465 20.3887 13.2454 20.3896C13.2442 20.3905 13.2428 20.3909 13.2414 20.3909L12.2373 20.3927C12.234 20.3927 12.2325 20.3943 12.2327 20.3975L12.3968 22.7702C12.397 22.7736 12.3954 22.7753 12.3921 22.7753L11.2843 22.7752C11.2798 22.7752 11.2773 22.773 11.277 22.7684L11.1128 20.4049C11.1125 20.3997 11.1097 20.3971 11.1045 20.3971H9.38669C9.38546 20.3971 9.38424 20.3974 9.38316 20.398C9.38208 20.3986 9.38116 20.3994 9.38049 20.4004C9.11502 20.7975 8.85132 21.1889 8.58939 21.5745C8.31905 21.9726 8.00149 22.3338 7.63669 22.6582C7.46662 22.8095 7.27872 22.9497 7.07299 23.0789C6.80839 23.2451 6.51529 23.381 6.21459 23.4464C5.97069 23.4994 5.70079 23.5045 5.48109 23.399C5.30602 23.315 5.18482 23.1795 5.11749 22.9925C5.08095 22.8911 5.06002 22.7814 5.05469 22.6634V22.5301C5.06382 22.38 5.08779 22.2288 5.12659 22.0765C5.19139 21.8219 5.27809 21.5816 5.38669 21.3555C5.61409 20.882 5.94529 20.4688 6.36279 20.1631C6.76639 19.8677 7.21622 19.6716 7.71229 19.5748C7.80509 19.5567 7.89649 19.5444 7.99219 19.5445C8.26545 19.545 8.54582 19.5451 8.83329 19.5447C8.83602 19.5447 8.83815 19.5436 8.83969 19.5413C9.38222 18.7413 9.92582 17.9384 10.4705 17.1326C10.5126 17.0704 10.5509 17.0187 10.5855 16.9777C10.6806 16.8652 10.7862 16.7678 10.9022 16.6855C11.0415 16.5867 11.1985 16.5299 11.3734 16.5151ZM9.96889 19.5397C9.96854 19.5402 9.96833 19.5408 9.96829 19.5414C9.96825 19.542 9.96838 19.5426 9.96866 19.5432C9.96894 19.5437 9.96936 19.5441 9.96987 19.5445C9.97039 19.5448 9.97098 19.5449 9.97159 19.5449L11.0461 19.5447C11.0465 19.5447 11.047 19.5446 11.0474 19.5445C11.0478 19.5443 11.0482 19.544 11.0485 19.5437C11.0488 19.5434 11.049 19.543 11.0492 19.5426C11.0493 19.5421 11.0494 19.5417 11.0494 19.5412L10.9592 18.0898C10.9591 18.0892 10.9589 18.0885 10.9584 18.088C10.958 18.0875 10.9574 18.0871 10.9567 18.0869C10.9561 18.0868 10.9554 18.0868 10.9548 18.087C10.9541 18.0873 10.9536 18.0877 10.9532 18.0882L9.96889 19.5397ZM8.25829 20.391C7.48329 20.3864 6.76739 20.7984 6.35329 21.4397C6.28502 21.5453 6.23022 21.6592 6.18889 21.7814C6.13789 21.9321 6.09489 22.2078 6.29459 22.2703C6.36032 22.2909 6.42952 22.2946 6.50219 22.2816C6.56285 22.2707 6.61875 22.254 6.66989 22.2315C6.78155 22.1823 6.89325 22.1123 7.00499 22.0214C7.17072 21.8866 7.32625 21.7296 7.47159 21.5506C7.50705 21.507 7.54382 21.457 7.58189 21.4004C7.81782 21.0504 8.04432 20.7159 8.26139 20.3969C8.26176 20.3964 8.26198 20.3957 8.26202 20.395C8.26205 20.3943 8.2619 20.3937 8.26158 20.3931C8.26127 20.3925 8.26079 20.392 8.26021 20.3916C8.25963 20.3912 8.25897 20.391 8.25829 20.391Z" fill="#D90036"/>
<path d="M24.353 22.6966C23.9449 22.5233 23.7281 22.1733 23.7006 21.7379C23.6827 21.4551 23.7394 21.165 23.8266 20.8863C23.9707 20.4257 24.2397 20.0606 24.6337 19.7911C25.0108 19.5332 25.5 19.4532 25.9471 19.5008C26.4033 19.5494 26.786 19.7801 26.9443 20.2249C27.0372 20.486 27.0281 20.7852 26.9758 21.0684C26.9403 21.2603 26.8879 21.4396 26.8187 21.6061C26.542 22.2713 25.9648 22.7218 25.2478 22.7983C24.9543 22.8296 24.6204 22.8101 24.353 22.6966ZM24.5666 20.8938C24.4936 21.0889 24.4524 21.2835 24.4429 21.4778C24.4295 21.7494 24.5165 21.9976 24.7616 22.1348C24.8466 22.1823 24.9502 22.2067 25.0499 22.2126C25.257 22.225 25.4469 22.1782 25.6197 22.0722C25.9268 21.8838 26.0891 21.5785 26.1727 21.2302C26.2352 20.97 26.2772 20.6447 26.1273 20.4183C25.9766 20.1905 25.7117 20.1333 25.448 20.1589C25.1461 20.1883 24.8746 20.3589 24.7067 20.6157C24.6504 20.7018 24.6037 20.7945 24.5666 20.8938Z" fill="white"/>
<path d="M14.4038 20.697C14.4036 20.6975 14.403 20.7001 14.4021 20.7048C14.2553 21.3934 14.1079 22.0817 13.96 22.7697C13.9598 22.7704 13.9594 22.771 13.9588 22.7714C13.9583 22.7719 13.9576 22.7721 13.9569 22.7721H13.2473C13.2469 22.7721 13.2466 22.7721 13.2463 22.7719C13.2461 22.7718 13.2458 22.7716 13.2456 22.7714C13.2454 22.7711 13.2453 22.7708 13.2452 22.7705C13.2451 22.7702 13.2451 22.7699 13.2452 22.7696L13.9343 19.5771C13.9353 19.5726 13.9381 19.5703 13.9427 19.5703H14.6719C14.6743 19.5703 14.6768 19.571 14.6789 19.5724C14.6809 19.5738 14.6826 19.5757 14.6836 19.578L15.572 21.6987C15.5722 21.6994 15.5727 21.6999 15.5734 21.7002C15.574 21.7004 15.5747 21.7005 15.5753 21.7002C15.5765 21.6997 15.5772 21.6989 15.5775 21.6978C15.7303 20.9888 15.883 20.2818 16.0354 19.5769C16.0357 19.5751 16.0368 19.5734 16.0382 19.5722C16.0397 19.571 16.0416 19.5703 16.0435 19.5703H16.7594C16.7601 19.5703 16.7608 19.5705 16.7615 19.5708C16.7621 19.5711 16.7627 19.5716 16.7632 19.5721C16.7636 19.5727 16.7639 19.5734 16.7641 19.5741C16.7643 19.5748 16.7643 19.5756 16.7642 19.5763L16.0754 22.7651C16.0744 22.7698 16.0715 22.7721 16.0668 22.7721H15.2994C15.2972 22.7721 15.295 22.7715 15.2932 22.7703C15.2914 22.7691 15.29 22.7674 15.2892 22.7654C14.998 22.0769 14.7064 21.3873 14.4143 20.6966C14.4104 20.6873 14.4069 20.6875 14.4038 20.697Z" fill="white"/>
<path d="M17.696 22.7702H16.9475C16.9469 22.7702 16.9463 22.7701 16.9458 22.7698C16.9453 22.7696 16.9448 22.7692 16.9445 22.7688C16.9441 22.7683 16.9438 22.7678 16.9437 22.7672C16.9436 22.7667 16.9436 22.7661 16.9437 22.7655L17.4822 20.2676C17.4823 20.267 17.4823 20.2664 17.4822 20.2659C17.482 20.2653 17.4818 20.2648 17.4814 20.2643C17.481 20.2639 17.4806 20.2635 17.4801 20.2633C17.4795 20.263 17.479 20.2629 17.4784 20.2629H16.8037C16.8031 20.2629 16.8025 20.2628 16.802 20.2625C16.8015 20.2623 16.801 20.2619 16.8007 20.2615C16.8003 20.261 16.8 20.2605 16.7999 20.2599C16.7998 20.2594 16.7998 20.2588 16.7999 20.2582L16.947 19.5739C16.9472 19.573 16.9477 19.5722 16.9484 19.5716C16.9491 19.5711 16.95 19.5708 16.9509 19.5708H19.0301C19.0307 19.5708 19.0312 19.5709 19.0318 19.5712C19.0323 19.5714 19.0327 19.5718 19.0331 19.5722C19.0335 19.5727 19.0337 19.5732 19.0339 19.5738C19.034 19.5743 19.034 19.5749 19.0339 19.5755L18.8873 20.2598C18.8871 20.2607 18.8866 20.2615 18.8859 20.2621C18.8852 20.2626 18.8843 20.2629 18.8834 20.2629H18.2425C18.2416 20.2629 18.2407 20.2632 18.24 20.2638C18.2393 20.2643 18.2389 20.2651 18.2387 20.266L17.6998 22.7671C17.6996 22.768 17.6991 22.7688 17.6984 22.7693C17.6977 22.7699 17.6969 22.7702 17.696 22.7702Z" fill="white"/>
<path d="M19.5784 21.5416L19.4636 22.0698C19.4634 22.0707 19.4634 22.0717 19.4636 22.0726C19.4638 22.0735 19.4643 22.0744 19.4649 22.0752C19.4655 22.0759 19.4662 22.0765 19.4671 22.0769C19.4679 22.0773 19.4689 22.0776 19.4698 22.0776L20.6454 22.0774C20.6464 22.0774 20.6474 22.0776 20.6483 22.0781C20.6492 22.0785 20.65 22.0791 20.6507 22.0799C20.6513 22.0807 20.6517 22.0816 20.652 22.0826C20.6522 22.0836 20.6522 22.0846 20.652 22.0856L20.5062 22.7594C20.506 22.7603 20.5055 22.7612 20.5047 22.7618C20.504 22.7624 20.503 22.7628 20.502 22.7628C20.1242 22.7632 19.7463 22.7631 19.3681 22.7625C19.3059 22.7624 19.2438 22.7656 19.18 22.7658C18.966 22.7665 18.7176 22.7063 18.6731 22.4589C18.6592 22.3811 18.6613 22.3002 18.6795 22.216C18.8255 21.5412 18.9747 20.8522 19.1272 20.1492C19.141 20.0854 19.1654 20.0204 19.2004 19.9542C19.3447 19.6816 19.6154 19.571 19.9124 19.5707C20.3266 19.5703 20.7532 19.5702 21.1922 19.5705C21.195 19.5705 21.1961 19.5718 21.1955 19.5746L21.0491 20.2521C21.0483 20.2562 21.0457 20.2583 21.0415 20.2583L19.8624 20.2582C19.8605 20.2582 19.8587 20.2588 19.8572 20.26C19.8557 20.2612 19.8547 20.2628 19.8543 20.2647L19.7303 20.8369C19.7292 20.8421 19.7313 20.8448 19.7366 20.8448H20.6822C20.6833 20.8448 20.6843 20.845 20.6852 20.8455C20.6861 20.8459 20.6869 20.8466 20.6876 20.8473C20.6882 20.8481 20.6887 20.8491 20.6889 20.8501C20.6891 20.8511 20.6891 20.8521 20.6889 20.8531L20.5433 21.5302C20.543 21.5314 20.5423 21.5325 20.5414 21.5333C20.5404 21.5341 20.5392 21.5346 20.5379 21.5346H19.5871C19.5823 21.5346 19.5794 21.5369 19.5784 21.5416Z" fill="white"/>
<path d="M21.9579 20.2879L21.42 22.7585C21.4198 22.7598 21.419 22.761 21.418 22.7618C21.417 22.7627 21.4157 22.7631 21.4143 22.7631L20.6983 22.7627C20.6977 22.7627 20.6971 22.7626 20.6966 22.7623C20.6961 22.7621 20.6956 22.7617 20.6952 22.7612C20.6948 22.7608 20.6946 22.7602 20.6944 22.7597C20.6943 22.7591 20.6943 22.7585 20.6944 22.7579L21.378 19.5777C21.3785 19.5756 21.3796 19.5737 21.3812 19.5724C21.3829 19.5711 21.385 19.5703 21.3871 19.5703C21.923 19.5707 22.4408 19.5707 22.9406 19.5703C23.1097 19.5702 23.2848 19.6112 23.4142 19.7269C23.6198 19.9106 23.6156 20.1923 23.5412 20.4457C23.4756 20.6693 23.3343 20.8638 23.1601 21.02C23.083 21.0892 22.7034 21.3749 22.7493 21.4983C22.9053 21.9181 23.0617 22.3393 23.2184 22.7619C23.2204 22.7672 23.2186 22.7699 23.2128 22.7699L22.3353 22.7654C22.3344 22.7654 22.3334 22.7651 22.3326 22.7645C22.3318 22.764 22.3312 22.7631 22.3308 22.7622C22.2021 22.4017 22.0699 22.0317 21.9342 21.6522C21.9201 21.6126 21.9206 21.5675 21.9137 21.5257C21.9063 21.481 21.9189 21.4411 21.9253 21.3979C21.9383 21.31 21.9902 21.2255 22.0556 21.1676C22.2908 20.9597 22.5284 20.7497 22.7683 20.5376C22.8117 20.4993 22.8491 20.4442 22.8395 20.384C22.8349 20.3546 22.8221 20.3308 22.8012 20.3125C22.7631 20.2793 22.717 20.2817 22.6703 20.2816C22.4356 20.2816 22.2007 20.2816 21.9656 20.2817C21.9639 20.2817 21.9621 20.2823 21.9607 20.2835C21.9593 20.2846 21.9583 20.2862 21.9579 20.2879Z" fill="white"/>
<path d="M28.5736 22.0923C28.5769 22.0923 28.579 22.0907 28.5797 22.0874L28.727 21.402C28.7277 21.3988 28.7297 21.3972 28.733 21.3972L29.343 21.3973C29.3477 21.3973 29.3496 21.3996 29.3486 21.4042C29.3022 21.6201 29.2553 21.8378 29.2079 22.0573C29.2064 22.0645 29.2079 22.0712 29.2127 22.0768C29.216 22.0807 29.2152 22.0835 29.2105 22.0852C29.2053 22.0871 29.2021 22.0907 29.201 22.096C29.1474 22.3415 29.0993 22.5636 29.0568 22.7621C29.056 22.7657 29.0538 22.7675 29.0501 22.7675C28.8298 22.7676 28.6094 22.7676 28.3888 22.7674C28.3611 22.7674 28.3339 22.7678 28.3071 22.7686C28.0424 22.7767 27.7956 22.7058 27.5923 22.5473C27.474 22.4551 27.3635 22.3326 27.2931 22.1967C27.1125 21.8481 27.1154 21.4591 27.2019 21.0827C27.2174 21.0153 27.2367 20.9508 27.26 20.8893C27.3217 20.7258 27.3937 20.5812 27.4758 20.4554C27.711 20.0948 28.0411 19.8346 28.4357 19.6649C28.462 19.6536 28.4891 19.6439 28.517 19.6359C28.5599 19.6236 28.6048 19.6078 28.6492 19.6012C28.6714 19.5979 28.6913 19.5896 28.7143 19.5865C28.7934 19.5757 28.8632 19.5703 28.9236 19.5703C29.2077 19.5704 29.4788 19.5704 29.7371 19.5704C29.7434 19.5705 29.7458 19.5735 29.7445 19.5796L29.5992 20.2547C29.5985 20.258 29.5964 20.2597 29.593 20.2597C29.4097 20.2608 29.2091 20.2608 28.9912 20.2595C28.9163 20.259 28.8546 20.2628 28.8061 20.2708C28.637 20.2986 28.4874 20.3683 28.3461 20.4716C28.194 20.5827 28.0713 20.744 27.99 20.9084C27.9021 21.086 27.8671 21.2771 27.8849 21.4817C27.8916 21.5586 27.9055 21.6236 27.9267 21.6766C28.0405 21.9613 28.2716 22.0909 28.5736 22.0923Z" fill="white"/>
<path d="M30.2002 22.0776H31.3812C31.382 22.0776 31.3827 22.0778 31.3834 22.0781C31.3841 22.0784 31.3847 22.0789 31.3852 22.0795C31.3857 22.0801 31.386 22.0808 31.3862 22.0815C31.3864 22.0823 31.3864 22.0831 31.3862 22.0838L31.2396 22.7598C31.2391 22.7619 31.2378 22.763 31.2356 22.763C30.8583 22.7631 30.4797 22.763 30.0996 22.7627C30.0126 22.7626 29.9266 22.7692 29.8387 22.7632C29.7326 22.7559 29.6184 22.7309 29.535 22.6688C29.4024 22.5701 29.3827 22.4099 29.4057 22.2544C29.4072 22.2441 29.4184 22.1912 29.4391 22.0958C29.5852 21.4209 29.7272 20.7649 29.8651 20.128C29.8722 20.0951 29.8871 20.0537 29.9098 20.0036C29.9957 19.8137 30.1333 19.6867 30.3226 19.6227C30.4258 19.5878 30.5363 19.5704 30.654 19.5705C31.0765 19.5706 31.4994 19.5706 31.9228 19.5703C31.9237 19.5703 31.9246 19.5705 31.9253 19.5709C31.9261 19.5713 31.9268 19.5718 31.9274 19.5725C31.928 19.5732 31.9283 19.574 31.9286 19.5748C31.9288 19.5757 31.9288 19.5766 31.9286 19.5774L31.7833 20.2495C31.782 20.2555 31.7783 20.2585 31.7722 20.2585L30.5966 20.2582C30.5919 20.2582 30.589 20.2605 30.588 20.2652L30.4639 20.8376C30.4637 20.8385 30.4637 20.8394 30.4639 20.8403C30.4642 20.8411 30.4646 20.8419 30.4651 20.8426C30.4657 20.8433 30.4664 20.8439 30.4672 20.8442C30.468 20.8446 30.4688 20.8448 30.4697 20.8448L31.4168 20.8449C31.4177 20.8449 31.4186 20.8451 31.4194 20.8455C31.4202 20.8459 31.4209 20.8465 31.4215 20.8472C31.4221 20.8479 31.4225 20.8487 31.4227 20.8496C31.4229 20.8505 31.4229 20.8514 31.4227 20.8523L31.2768 21.5304C31.2761 21.5333 31.2743 21.5347 31.2714 21.5347H30.3167C30.3158 21.5347 30.315 21.535 30.3143 21.5356C30.3137 21.5361 30.3132 21.5369 30.313 21.5377L30.1965 22.073C30.1964 22.0736 30.1964 22.0741 30.1965 22.0747C30.1967 22.0752 30.1969 22.0758 30.1973 22.0762C30.1976 22.0766 30.1981 22.077 30.1986 22.0772C30.1991 22.0775 30.1996 22.0776 30.2002 22.0776Z" fill="white"/>
<path d="M32.5847 20.6994C32.5842 20.7031 32.5836 20.7067 32.5828 20.7102C32.4354 21.3969 32.2876 22.0835 32.1395 22.77C32.1393 22.7706 32.139 22.7712 32.1385 22.7716C32.138 22.772 32.1373 22.7722 32.1367 22.7722H31.4321C31.427 22.7722 31.425 22.7697 31.4261 22.7648L32.1144 19.5767C32.1152 19.5725 32.1178 19.5704 32.1222 19.5704L32.8499 19.5703C32.853 19.5703 32.856 19.5712 32.8586 19.573C32.8612 19.5747 32.8632 19.5771 32.8644 19.58L33.7496 21.6936C33.7534 21.7026 33.7563 21.7023 33.7583 21.6928L34.2151 19.578C34.2162 19.5729 34.2194 19.5704 34.2246 19.5704H34.9377C34.9427 19.5704 34.9447 19.5729 34.9437 19.5778L34.2553 22.7665C34.2544 22.7703 34.252 22.7722 34.2481 22.7722H33.4828C33.4758 22.7722 33.4709 22.769 33.4682 22.7626L32.595 20.698C32.5898 20.6857 32.5863 20.6862 32.5847 20.6994Z" fill="white"/>
</g>
<circle cx="20" cy="20" r="19.5" stroke="black" stroke-opacity="0.05"/>
<defs>
<clipPath id="clip0_17752_43642">
<rect width="29.9" height="6.97" fill="white" transform="translate(5.0498 16.5151)"/>
</clipPath>
</defs>
</svg>
