<svg width="40" height="40" viewBox="0 0 40 40" fill="none" xmlns="http://www.w3.org/2000/svg">
<circle cx="20" cy="20" r="20" fill="#DE0516"/>
<g clip-path="url(#clip0_17752_43631)">
<path d="M8.22686 13.1283L12.8234 13.1213C12.8395 13.1213 12.8554 13.125 12.8698 13.1321C12.8843 13.1392 12.8969 13.1496 12.9066 13.1624C12.9164 13.1752 12.9231 13.1901 12.9261 13.2059C12.9292 13.2217 12.9285 13.238 12.9243 13.2535L12.7503 13.8796C12.7442 13.9016 12.7311 13.9211 12.7128 13.9349C12.6946 13.9487 12.6723 13.9562 12.6495 13.9561L8.06512 13.9526C8.04921 13.9526 8.03351 13.949 8.01924 13.9419C8.00496 13.9349 7.99247 13.9247 7.98274 13.9121C7.97301 13.8995 7.96628 13.8849 7.96308 13.8693C7.95987 13.8537 7.96027 13.8376 7.96425 13.8222L8.12599 13.2066C8.13177 13.1842 8.1448 13.1644 8.16306 13.1502C8.18131 13.136 8.20375 13.1283 8.22686 13.1283Z" fill="white"/>
<path d="M32.7967 13.9474L17.6402 13.9491C17.6319 13.9491 17.6237 13.9472 17.6163 13.9435C17.6088 13.9399 17.6022 13.9346 17.597 13.9281C17.5919 13.9216 17.5882 13.914 17.5864 13.9059C17.5845 13.8978 17.5845 13.8894 17.5863 13.8813L17.755 13.1665C17.7578 13.1543 17.7646 13.1433 17.7744 13.1354C17.7842 13.1275 17.7963 13.1231 17.8089 13.123L33.7759 13.1283C33.7877 13.1281 33.7993 13.1318 33.8089 13.1387C33.8185 13.1456 33.8257 13.1553 33.8294 13.1666C33.833 13.1778 33.8331 13.19 33.8294 13.2012C33.8257 13.2125 33.8185 13.2222 33.8089 13.2291L32.828 13.937C32.8189 13.9435 32.808 13.9472 32.7967 13.9474Z" fill="white"/>
<path d="M31.4272 15.4255H17.2532C17.2369 15.4255 17.2208 15.4217 17.2063 15.4142C17.1917 15.4068 17.1792 15.396 17.1696 15.3827C17.1601 15.3695 17.1539 15.3541 17.1515 15.338C17.1491 15.3218 17.1506 15.3053 17.1559 15.2898L17.3524 14.709C17.3593 14.6886 17.3724 14.671 17.3899 14.6585C17.4074 14.646 17.4283 14.6394 17.4498 14.6394L31.8828 14.6429C31.9019 14.6431 31.9205 14.6487 31.9366 14.6589C31.9527 14.6691 31.9656 14.6836 31.9739 14.7008C31.9822 14.7179 31.9855 14.737 31.9836 14.756C31.9816 14.775 31.9744 14.793 31.9628 14.8081L31.5089 15.3855C31.4993 15.398 31.4869 15.4081 31.4727 15.415C31.4585 15.422 31.4429 15.4256 31.4272 15.4255Z" fill="white"/>
<path d="M7.82721 14.636L12.3716 14.6412C12.3903 14.6413 12.4088 14.6457 12.4255 14.6542C12.4423 14.6626 12.4569 14.6747 12.4682 14.6897C12.4795 14.7047 12.4871 14.7221 12.4906 14.7405C12.494 14.759 12.4932 14.7779 12.4881 14.796L12.3385 15.3369C12.3313 15.3623 12.3161 15.3847 12.2951 15.4007C12.2741 15.4167 12.2484 15.4254 12.222 15.4256L7.64808 15.4273C7.62873 15.4274 7.60963 15.423 7.59235 15.4143C7.57507 15.4056 7.56011 15.3929 7.54872 15.3772C7.53733 15.3616 7.52983 15.3435 7.52685 15.3243C7.52386 15.3052 7.52548 15.2857 7.53156 15.2673L7.71069 14.7195C7.71879 14.695 7.73443 14.6738 7.75536 14.6588C7.7763 14.6438 7.80146 14.6358 7.82721 14.636Z" fill="white"/>
<path d="M7.49887 15.9473L11.9528 15.9507C11.9794 15.9508 12.0056 15.957 12.0293 15.9689C12.0531 15.9808 12.0738 15.998 12.0898 16.0193C12.1058 16.0405 12.1167 16.0651 12.1216 16.0913C12.1265 16.1174 12.1252 16.1443 12.118 16.1699L12.0119 16.5403C12.0015 16.5757 11.98 16.6068 11.9505 16.629C11.9211 16.6512 11.8853 16.6634 11.8484 16.6638L7.32843 16.6899C7.29994 16.6899 7.27189 16.6828 7.2468 16.6693C7.22172 16.6558 7.20037 16.6363 7.18469 16.6125C7.169 16.5887 7.15947 16.5614 7.15693 16.533C7.1544 16.5046 7.15895 16.4761 7.17017 16.4499L7.34061 16.0516C7.35388 16.0206 7.37595 15.9942 7.40408 15.9757C7.43222 15.9571 7.46517 15.9473 7.49887 15.9473Z" fill="white"/>
<path d="M30.7178 16.6811H16.9265C16.8998 16.6809 16.8735 16.6739 16.8502 16.6608C16.8269 16.6477 16.8073 16.6289 16.7932 16.6061C16.7791 16.5834 16.771 16.5574 16.7697 16.5307C16.7684 16.504 16.7739 16.4774 16.7856 16.4533L16.9891 16.0394C17.0022 16.0127 17.0225 15.9903 17.0477 15.9746C17.0729 15.9589 17.102 15.9506 17.1317 15.9507L30.9317 15.949C30.959 15.9489 30.9858 15.9558 31.0095 15.9691C31.0333 15.9824 31.0532 16.0017 31.0674 16.0249C31.0815 16.0482 31.0895 16.0747 31.0904 16.1019C31.0913 16.1291 31.0852 16.1561 31.0726 16.1803L30.8569 16.5959C30.8437 16.6214 30.8237 16.6428 30.7992 16.6579C30.7747 16.6729 30.7466 16.6809 30.7178 16.6811Z" fill="white"/>
<path d="M7.14318 17.1333L11.6649 17.1316C11.6853 17.1314 11.7055 17.136 11.7239 17.1449C11.7423 17.1538 11.7583 17.1669 11.7708 17.1831C11.7833 17.1992 11.7918 17.2181 11.7958 17.2381C11.7997 17.2582 11.799 17.2788 11.7936 17.2986L11.6927 17.6759C11.6851 17.7038 11.6686 17.7284 11.6457 17.746C11.6227 17.7636 11.5947 17.7732 11.5658 17.7733L6.97622 17.7786C6.95424 17.7784 6.93263 17.7728 6.91335 17.7623C6.89407 17.7517 6.87774 17.7365 6.86582 17.718C6.8539 17.6995 6.84679 17.6784 6.84511 17.6565C6.84344 17.6345 6.84725 17.6125 6.85622 17.5925L7.02144 17.2133C7.03166 17.1895 7.04865 17.1693 7.07029 17.1551C7.09194 17.1408 7.11728 17.1333 7.14318 17.1333Z" fill="white"/>
<path d="M16.7606 17.1316L30.4511 17.1351C30.4725 17.1351 30.4935 17.1403 30.5125 17.1502C30.5314 17.1602 30.5477 17.1746 30.5598 17.1922C30.572 17.2098 30.5797 17.2302 30.5822 17.2514C30.5848 17.2726 30.5822 17.2942 30.5745 17.3142L30.4319 17.6899C30.4224 17.7149 30.4055 17.7365 30.3835 17.7517C30.3614 17.7669 30.3353 17.7751 30.3085 17.7751L16.5815 17.7785C16.5593 17.7786 16.5374 17.773 16.5179 17.7623C16.4985 17.7517 16.482 17.7363 16.47 17.7175C16.458 17.6988 16.451 17.6774 16.4495 17.6552C16.448 17.6331 16.4522 17.6109 16.4615 17.5907L16.6406 17.2081C16.6513 17.1852 16.6682 17.1659 16.6895 17.1523C16.7107 17.1388 16.7354 17.1316 16.7606 17.1316Z" fill="white"/>
<path d="M15.6726 20.5056C15.8952 19.7566 16.1097 19.007 16.316 18.2569C16.3229 18.232 16.3378 18.21 16.3585 18.1943C16.3793 18.1786 16.4046 18.17 16.4308 18.1699L21.0047 18.1717C21.0233 18.1718 21.0415 18.1761 21.0581 18.1845C21.0746 18.1928 21.089 18.2048 21.1002 18.2197C21.1113 18.2345 21.1188 18.2517 21.1222 18.2699C21.1255 18.2881 21.1246 18.3069 21.1195 18.3247C20.7937 19.4482 20.461 20.574 20.1213 21.7021C19.8465 22.6192 19.4708 23.4337 18.9943 24.1456C18.1491 25.4082 16.8187 26.4447 15.3369 26.883C15.0065 26.9815 14.5943 27.0325 14.1004 27.036C13.465 27.0395 12.7752 27.0424 12.0308 27.0447C11.1439 27.0482 10.4662 26.9775 9.99778 26.8325C5.94039 25.5804 5.56126 21.8256 6.71083 18.2743C6.73402 18.2059 6.78213 18.1717 6.85517 18.1717H11.396C11.415 18.1715 11.4336 18.1758 11.4505 18.1844C11.4674 18.1929 11.482 18.2053 11.4931 18.2207C11.5041 18.236 11.5114 18.2538 11.5142 18.2725C11.5169 18.2912 11.5152 18.3103 11.5091 18.3282C11.3213 18.8998 11.1439 19.4963 10.9769 20.1177C10.4656 22.0186 11.6708 23.0204 13.4673 22.6864C14.5578 22.4847 15.3578 21.5595 15.6726 20.5056Z" fill="white"/>
<path d="M29.1089 22.1473C28.4272 24.3508 26.8063 26.0099 24.7002 26.8099C24.335 26.9479 23.9906 27.0192 23.6672 27.0238C22.3118 27.0435 20.7286 27.047 18.9176 27.0342C18.9032 27.034 18.889 27.0305 18.8761 27.0238C18.8633 27.0172 18.8522 27.0078 18.8436 26.9962C18.835 26.9846 18.8292 26.9711 18.8267 26.9569C18.8241 26.9427 18.8249 26.9281 18.8289 26.9142L20.0063 22.8969C20.0515 22.7438 20.1541 22.6737 20.3141 22.6864C20.9692 22.7398 21.6115 22.7537 22.2411 22.7282C23.4399 22.6795 24.2422 22.0864 24.648 20.949C24.9321 20.1525 25.1796 19.3166 25.3906 18.4412C25.4096 18.3651 25.4532 18.2974 25.5146 18.2489C25.576 18.2004 25.6517 18.1738 25.7298 18.1734L30.1315 18.1716C30.1487 18.1715 30.1657 18.1754 30.1811 18.183C30.1965 18.1906 30.21 18.2018 30.2204 18.2156C30.2309 18.2294 30.238 18.2455 30.2413 18.2626C30.2446 18.2797 30.2439 18.2974 30.2393 18.3142C29.8614 19.658 29.4845 20.9357 29.1089 22.1473Z" fill="white"/>
</g>
<circle cx="20" cy="20" r="19.5" stroke="black" stroke-opacity="0.05"/>
<defs>
<clipPath id="clip0_17752_43631">
<rect width="28" height="14.6087" fill="white" transform="translate(6 12.6956)"/>
</clipPath>
</defs>
</svg>
