<svg width="40" height="40" viewBox="0 0 40 40" fill="none" xmlns="http://www.w3.org/2000/svg">
<circle cx="20" cy="20" r="20" fill="#F6F8FA"/>
<g clip-path="url(#clip0_18695_29227)">
<path d="M30.2634 18.1718C30.2634 18.2264 30.2705 18.2611 30.2799 18.2784C30.3762 18.4495 30.4514 18.6404 30.5054 18.8461C30.5406 18.9825 30.597 19.1015 30.7403 19.156C30.8695 19.2056 31.0034 19.2551 31.142 19.3022C31.2195 19.3295 31.337 19.3915 31.4967 19.4906C31.6588 19.627 31.7622 19.7336 31.8068 19.8055C32.077 20.2368 32.0793 20.6508 31.8115 21.0474C31.7317 21.1664 31.5978 21.2879 31.4967 21.4168C31.2642 21.5407 31.0175 21.6399 30.7521 21.7167C30.6487 21.7465 30.55 21.8531 30.5148 21.9746C30.4443 22.2225 30.3598 22.4778 30.2611 22.7381C30.254 22.7306 30.2376 22.7381 30.2118 22.7579C30.2 22.7678 30.1883 22.7802 30.1742 22.7976C29.9745 23.0603 29.7208 23.2215 29.4107 23.2785H29.1617C28.8821 23.2066 28.6496 23.0479 28.464 22.8025C28.4382 22.7678 28.4123 22.7455 28.3912 22.7406C28.2479 22.4406 28.1469 22.1407 28.0811 21.8457C28.0693 21.7961 28.0341 21.7589 27.9871 21.749C27.6794 21.6895 27.4045 21.5779 27.1579 21.4168C26.822 21.1317 26.5847 20.7673 26.6622 20.3062C26.7115 20.0137 26.8666 19.7609 27.1273 19.5501C27.1414 19.5402 27.1508 19.5254 27.1555 19.508C27.1626 19.4906 27.1649 19.4783 27.1626 19.4733C27.576 19.3146 27.8344 19.2105 27.9378 19.156C28.0388 19.1039 28.1046 19.0196 28.1351 18.9031C28.1962 18.6825 28.2385 18.4222 28.4029 18.2537C28.417 18.2388 28.4241 18.2214 28.4194 18.1991C28.4147 18.1793 28.4006 18.1644 28.3747 18.1594C28.4311 18.1644 28.4687 18.152 28.4875 18.1223C28.9291 17.4653 29.7278 17.4678 30.1859 18.1173C30.193 18.1297 30.2047 18.1396 30.2165 18.1471C30.2329 18.157 30.247 18.1644 30.2564 18.1694L30.2634 18.1718ZM28.0247 19.9616C27.9989 20.0112 27.9824 20.0633 27.9801 20.1178C27.9801 20.1377 27.973 20.155 27.9613 20.1699C27.9237 20.2195 27.9002 20.2765 27.8932 20.3434C27.8767 20.5095 27.8885 20.6731 27.9284 20.8367C27.9331 20.8566 27.9425 20.8739 27.9542 20.8913C27.9777 20.9235 27.9848 20.9607 27.9777 21.0003C27.9707 21.035 27.9848 21.0648 28.0177 21.0871C28.0247 21.0921 28.0318 21.102 28.0341 21.1094L28.1187 21.3548C28.1257 21.3771 28.1398 21.392 28.1563 21.4044C28.2291 21.454 28.2831 21.516 28.3207 21.5953C28.3278 21.6126 28.3395 21.6275 28.3536 21.6399L28.5627 21.8184C28.5791 21.8308 28.5956 21.8407 28.6167 21.8432C28.6684 21.8506 28.7154 21.8729 28.76 21.9052C28.814 21.9448 28.8728 21.9696 28.9409 21.982C29.251 22.0341 29.5188 22.039 29.749 21.9944C29.8476 21.9746 29.9651 21.92 30.0967 21.8283C30.1836 21.7688 30.247 21.6994 30.2893 21.6201C30.3151 21.573 30.3457 21.5308 30.3809 21.4936C30.4373 21.4366 30.4913 21.3771 30.5453 21.3152C30.597 21.2557 30.6393 21.1887 30.6745 21.1119C30.7239 21.0028 30.7544 20.8987 30.7685 20.7995C30.7826 20.683 30.792 20.5591 30.792 20.4302C30.792 20.3732 30.7873 20.3186 30.7756 20.2641C30.7638 20.2046 30.7544 20.1451 30.7474 20.0806C30.7403 20.0038 30.7192 19.9269 30.6863 19.8501C30.597 19.6468 30.4772 19.4683 30.3269 19.3122C30.2705 19.2551 30.2071 19.2105 30.1342 19.1783C30.0614 19.1461 29.9956 19.1015 29.9416 19.042C29.9275 19.0271 29.9111 19.0172 29.8923 19.0122C29.8664 19.0048 29.8429 18.9949 29.8218 18.98C29.796 18.9626 29.7678 18.9502 29.7372 18.9453C29.4741 18.8957 29.204 18.9155 28.9244 19.0097C28.8868 19.0221 28.854 19.042 28.8258 19.0717C28.7905 19.1064 28.7482 19.1287 28.6989 19.1386C28.6778 19.1436 28.6613 19.156 28.6472 19.1733C28.6261 19.2031 28.5979 19.2229 28.5627 19.2304C28.5462 19.2328 28.5321 19.2428 28.5204 19.2576C28.4969 19.2899 28.4687 19.3097 28.4311 19.3196C28.4123 19.3246 28.3959 19.332 28.3794 19.3444C28.3278 19.3841 28.2878 19.4386 28.2573 19.508C28.2432 19.5377 28.2267 19.5625 28.2032 19.5848C28.1774 19.6096 28.1563 19.6369 28.1398 19.6691C28.1187 19.7088 28.1022 19.7509 28.0905 19.7931C28.0764 19.8526 28.0529 19.9096 28.0224 19.9641L28.0247 19.9616Z" fill="#1A92CF"/>
<path d="M4.90434 19.2922H4.89729C4.89729 19.2922 4.89729 19.2922 4.89729 19.2947V22.9958C4.89729 22.9958 4.89494 23.0107 4.88789 23.0107H4.05865C4.0469 23.0107 4.03516 22.9983 4.03516 22.9834V18.1941C4.03516 18.1941 4.03985 18.1817 4.0469 18.1817H5.37886C5.4188 18.1792 5.44464 18.199 5.45404 18.2387L6.25744 21.3894C6.27389 21.4489 6.28798 21.4489 6.30443 21.3894L7.10079 18.204C7.10548 18.1866 7.11488 18.1792 7.13132 18.1792H8.50322C8.50322 18.1792 8.52202 18.1866 8.52202 18.199V22.9958C8.52202 22.9958 8.51732 23.0107 8.51027 23.0107H7.70217C7.67163 23.0132 7.65753 22.9983 7.65753 22.9661V19.4336C7.65753 19.2724 7.63639 19.2699 7.5988 19.4261L6.73902 22.9884C6.73432 23.0032 6.72492 23.0107 6.71083 23.0107L5.84634 23.0156C5.8299 23.0156 5.8205 23.0082 5.81581 22.9908C5.53156 21.8257 5.23557 20.6036 4.92783 19.3294C4.92313 19.3146 4.91608 19.3022 4.90199 19.2922H4.90434Z" fill="#0373B9"/>
<path d="M10.0795 19.0171V20.0359C10.0795 20.0508 10.0912 20.0607 10.103 20.0607H12.4145C12.4286 20.0607 12.438 20.0731 12.438 20.0855L12.4333 20.8441C12.4333 20.8589 12.4216 20.8689 12.4098 20.8689H10.1053C10.0912 20.8713 10.0818 20.8837 10.0818 20.8961V22.1728C10.0818 22.1877 10.0936 22.1976 10.1053 22.1976L12.6776 22.1926C12.6917 22.1926 12.7011 22.205 12.7011 22.2174V22.9834C12.7011 22.9983 12.6917 23.0082 12.6776 23.0082L9.16802 23.0132C9.15393 23.0132 9.14453 23.0008 9.14453 22.9884V18.204C9.14453 18.1891 9.15628 18.1792 9.16802 18.1792H12.586C12.6001 18.1792 12.6095 18.1916 12.6095 18.2065V18.9725C12.6095 18.9873 12.6001 18.9973 12.5884 18.9973H10.103C10.0889 18.9948 10.0795 19.0047 10.0795 19.0196V19.0171Z" fill="#0373B9"/>
<path d="M13.1733 18.1991C13.1733 18.1842 13.1851 18.1743 13.1968 18.1743H15.1936C16.2343 18.1743 17.0776 19.1039 17.0776 20.2492V20.9408C17.0776 22.0861 16.2343 23.0157 15.1936 23.0157H13.1968C13.1827 23.0157 13.1733 23.0033 13.1733 22.9909V18.1991ZM14.1012 19.0196V22.1877C14.1012 22.1877 14.1106 22.2101 14.1224 22.2101H15.0386C15.6282 22.2101 16.1074 21.6895 16.1074 21.0499V20.16C16.1074 19.5179 15.6282 18.9998 15.0386 18.9998H14.1224C14.1224 18.9998 14.1012 19.0097 14.1012 19.0221V19.0196Z" fill="#0373B9"/>
<path d="M18.4446 18.1792H17.559C17.5434 18.1792 17.5308 18.1925 17.5308 18.2089V22.9834C17.5308 22.9998 17.5434 23.0132 17.559 23.0132H18.4446C18.4601 23.0132 18.4728 22.9998 18.4728 22.9834V18.2089C18.4728 18.1925 18.4601 18.1792 18.4446 18.1792Z" fill="#0373B9"/>
<path d="M19.9504 23.0108L19.0836 23.0207C19.0625 23.0207 19.0437 23.0033 19.0437 22.9785V18.2165C19.0413 18.1941 19.0578 18.1743 19.0813 18.1743H22.2221C22.2432 18.1743 22.262 18.1941 22.262 18.2189L22.2644 18.9601C22.2644 18.9825 22.2456 19.0023 22.2244 19.0023H20.0256C20.0045 19.0048 19.9857 19.0246 19.9857 19.0469L19.9833 20.1029C19.9833 20.1253 19.9998 20.1451 20.0233 20.1451L21.9143 20.1376C21.9355 20.1376 21.9543 20.1575 21.9543 20.1798V20.926C21.9543 20.9483 21.9378 20.9681 21.9167 20.9681H20.0233C20.0021 20.9681 19.9833 20.9904 19.9833 21.0127L19.9927 22.9686C19.9927 22.9909 19.9739 23.0108 19.9528 23.0108H19.9504Z" fill="#A8AFC1"/>
<path d="M23.6387 21.0323V22.9411C23.6387 22.9907 23.6152 23.0154 23.5706 23.0154H22.7484C22.7178 23.0204 22.6943 22.9931 22.6943 22.9634V18.2335C22.6943 18.2038 22.7155 18.179 22.7437 18.179C23.5776 18.1666 24.3693 18.1716 25.1163 18.1939C25.37 18.2013 25.6777 18.2435 25.9009 18.3699C26.258 18.5707 26.46 18.8979 26.5093 19.3515C26.5986 20.1572 26.1358 20.7571 25.3747 20.8637C25.3207 20.8711 25.316 20.891 25.363 20.9207C25.8398 21.2331 26.0395 21.5975 26.413 22.2073C26.5563 22.4428 26.7114 22.6932 26.8735 22.9609C26.8829 22.9758 26.8782 22.9956 26.8641 23.0055C26.8594 23.008 26.8523 23.0105 26.8476 23.0105L25.8375 23.0179C25.7882 23.0179 25.7435 22.9931 25.7153 22.9485C25.3747 22.4081 25.0435 21.895 24.7169 21.4041C24.4562 21.01 24.0944 20.9629 23.6739 20.9877C23.6481 20.9877 23.634 21.005 23.634 21.0323H23.6387ZM23.6316 19.0293L23.6434 20.2043C23.6434 20.2043 23.6504 20.2217 23.6598 20.2217L24.9495 20.2068C25.276 20.2043 25.5368 19.9564 25.5344 19.6515V19.5375C25.5321 19.235 25.2643 18.9921 24.9378 18.9971L23.6481 19.0119C23.6481 19.0119 23.6316 19.0194 23.6316 19.0293Z" fill="#A8AFC1"/>
<path d="M36.0351 18.1817V23.0132L35.1753 23.0182C35.1213 23.0182 35.0696 22.9884 35.0414 22.9413L33.249 19.9393C33.2021 19.86 33.1786 19.8674 33.1786 19.9616L33.1833 22.9711C33.1833 22.9958 33.1645 23.0157 33.1433 23.0157L32.3493 23.0231C32.3258 23.0231 32.3047 23.0008 32.3047 22.976C32.3211 21.4267 32.3211 19.8476 32.3047 18.2412C32.3047 18.209 32.3282 18.1817 32.3611 18.1817H33.1339C33.195 18.1817 33.2514 18.2139 33.2843 18.271L35.1237 21.3771C35.1495 21.4192 35.1612 21.4168 35.1612 21.3647V18.2065C35.1612 18.1867 35.1683 18.1768 35.1871 18.1768L36.0351 18.1817Z" fill="#A8AFC1"/>
<path d="M28.3817 18.1593C28.4076 18.1643 28.4217 18.1767 28.4264 18.199C28.4311 18.2188 28.4264 18.2386 28.4099 18.2535C28.2431 18.4221 28.2009 18.6824 28.1421 18.903C28.1092 19.0195 28.0435 19.1038 27.9448 19.1559C27.8438 19.2104 27.5854 19.3145 27.1696 19.4732C27.0545 18.5931 27.5807 18.075 28.3841 18.1593H28.3817Z" fill="#0373B9"/>
<path d="M31.4965 19.4905C31.3367 19.3913 31.2193 19.3294 31.1418 19.3021C31.0032 19.255 30.8693 19.2054 30.7401 19.1558C30.5968 19.1013 30.5427 18.9823 30.5051 18.846C30.4511 18.6402 30.3759 18.4518 30.2796 18.2783C30.2702 18.2609 30.2632 18.2237 30.2632 18.1717C31.13 18.0428 31.6045 18.6452 31.4965 19.4905Z" fill="#0373B9"/>
<path d="M31.494 21.4165C31.5645 21.8206 31.4588 22.242 31.1699 22.5172C30.9537 22.7229 30.6507 22.7948 30.2607 22.7378C30.3594 22.4775 30.4416 22.2222 30.5144 21.9743C30.5497 21.8553 30.6484 21.7462 30.7517 21.7165C31.0172 21.6396 31.2638 21.538 31.4964 21.4165H31.494Z" fill="#0373B9"/>
<path d="M27.1599 21.4165C27.4042 21.5776 27.6814 21.6892 27.9891 21.7487C28.0361 21.7586 28.0737 21.7958 28.0831 21.8454C28.1465 22.1428 28.2499 22.4403 28.3932 22.7403C27.7237 22.8444 27.1669 22.4378 27.1528 21.7239C27.1528 21.6247 27.1528 21.5206 27.1599 21.4165Z" fill="#0373B9"/>
<path d="M29.3587 22.0514C30.2124 22.0514 30.9045 21.3211 30.9045 20.4202C30.9045 19.5194 30.2124 18.7891 29.3587 18.7891C28.505 18.7891 27.813 19.5194 27.813 20.4202C27.813 21.3211 28.505 22.0514 29.3587 22.0514Z" fill="url(#paint0_radial_18695_29227)"/>
</g>
<circle cx="20" cy="20" r="19.5" stroke="black" stroke-opacity="0.05"/>
<defs>
<radialGradient id="paint0_radial_18695_29227" cx="0" cy="0" r="1" gradientUnits="userSpaceOnUse" gradientTransform="translate(29.3587 20.4202) scale(1.54573 1.63115)">
<stop stop-color="white"/>
<stop offset="1" stop-color="#56A3D9"/>
</radialGradient>
<clipPath id="clip0_18695_29227">
<rect width="32" height="5.64706" fill="white" transform="translate(4.03516 17.6313)"/>
</clipPath>
</defs>
</svg>
