<svg width="40" height="40" viewBox="0 0 40 40" fill="none" xmlns="http://www.w3.org/2000/svg">
<circle cx="20" cy="20" r="20" fill="#7B7979"/>
<path d="M10.2095 21.7862C10.2095 22.4575 10.2049 23.1052 10.2129 23.7527C10.2148 23.9088 10.1666 23.9591 10.0119 23.9575C9.40388 23.9511 8.79568 23.9508 8.18766 23.9579C8.03289 23.9597 7.98272 23.9107 7.9845 23.7547C7.9918 23.1151 7.98304 22.4753 7.99055 21.8356C7.99245 21.6735 7.94659 21.6127 7.7775 21.6164C7.32755 21.626 6.87707 21.6269 6.42719 21.6159C6.25404 21.6116 6.21738 21.6769 6.21928 21.8354C6.22684 22.4671 6.21603 23.0991 6.22639 23.7308C6.22929 23.9078 6.17943 23.9619 6.00104 23.9588C5.401 23.9486 4.80063 23.9507 4.20051 23.9578C4.04518 23.9597 3.99963 23.9103 4 23.7544C4.00482 21.7405 4.00462 19.7266 4.00021 17.7126C3.99989 17.5645 4.04778 17.5255 4.19014 17.527C4.80607 17.5336 5.42216 17.5339 6.03809 17.5269C6.1853 17.5252 6.22674 17.5745 6.22521 17.7175C6.21874 18.3256 6.22744 18.9338 6.21934 19.5418C6.21714 19.7073 6.24786 19.7819 6.43706 19.7761C6.88679 19.7623 7.33733 19.7663 7.78734 19.7744C7.94331 19.7771 7.99205 19.7236 7.99029 19.5694C7.98335 18.9614 7.992 18.3531 7.98443 17.7451C7.98245 17.5859 8.02102 17.5233 8.19367 17.5261C8.79372 17.5358 9.39417 17.5371 9.99415 17.5255C10.1805 17.5219 10.2139 17.5892 10.2131 17.7583C10.2067 19.093 10.2095 20.4278 10.2095 21.7862Z" fill="white"/>
<path d="M14.1568 17.6775C14.4874 17.6747 14.7937 17.6776 15.0991 17.7372C15.3544 17.787 15.3866 17.7416 15.3141 17.5013C15.2368 17.2448 15.06 17.1035 14.804 17.0363C14.0672 16.8427 13.3685 16.9983 12.6824 17.2612C12.5614 17.3075 12.4937 17.3353 12.497 17.1626C12.503 16.8546 12.5021 16.5464 12.4969 16.2384C12.495 16.1221 12.544 16.072 12.6531 16.0421C13.6665 15.7651 14.6886 15.7241 15.7188 15.9269C16.2037 16.0225 16.655 16.1868 16.9935 16.5783C17.3007 16.9336 17.3934 17.3621 17.401 17.8065C17.4165 18.7068 17.403 19.6076 17.409 20.5081C17.41 20.6567 17.3576 20.6964 17.2169 20.6949C16.6482 20.689 16.0794 20.6885 15.5107 20.6952C15.3607 20.697 15.2931 20.658 15.3054 20.4963C15.3178 20.3329 15.3081 20.1679 15.3081 20.0093C15.2196 19.9844 15.1873 20.0301 15.1518 20.0724C14.4937 20.8564 13.679 20.9391 12.8068 20.6455C12.1394 20.4207 11.8745 19.8082 11.9445 19.2325C12.0227 18.5899 12.3157 18.1418 13.002 17.8929C13.3712 17.759 13.751 17.7182 14.1568 17.6775Z" fill="white"/>
<path d="M21.1422 20.5346C20.589 20.8726 20.0161 20.8544 19.4412 20.6868C18.496 20.4114 18.1473 19.2996 18.7298 18.464C19.0252 18.0402 19.4707 17.8614 19.9421 17.7677C20.4997 17.6568 21.0677 17.6272 21.6354 17.7388C21.8447 17.78 21.8931 17.7151 21.8316 17.5067C21.759 17.2608 21.5883 17.1091 21.3447 17.0413C20.6108 16.8368 19.9078 16.9857 19.2219 17.25C19.0388 17.3206 18.9888 17.303 18.9986 17.1029C19.0117 16.8351 19.009 16.5659 18.999 16.2978C18.9933 16.1443 19.049 16.0741 19.1989 16.0337C20.198 15.7643 21.2046 15.7337 22.2196 15.9205C22.5621 15.9835 22.8925 16.0914 23.1816 16.2865C23.6441 16.5986 23.8832 17.0581 23.8969 17.6033C23.9215 18.5818 23.9072 19.5612 23.9127 20.5401C23.9133 20.6504 23.8785 20.6943 23.7643 20.6936C23.1722 20.6901 22.5801 20.6899 21.988 20.6939C21.874 20.6947 21.8337 20.6524 21.8367 20.5418C21.8417 20.3528 21.8381 20.1637 21.8381 19.902C21.6019 20.1569 21.4112 20.38 21.1422 20.5346Z" fill="white"/>
<path d="M31.1282 19.6068C31.128 19.18 31.128 19.18 31.52 19.18C32.9024 19.18 34.2848 19.1836 35.6672 19.1758C35.8555 19.1747 35.9287 19.2097 35.9219 19.4171C35.9058 19.9063 35.9148 20.3965 35.9182 20.8862C35.919 21.0049 35.8908 21.0776 35.7759 21.1496C35.1002 21.573 34.4332 22.0104 33.7667 22.4482C33.7029 22.4901 33.5667 22.4993 33.6016 22.6086C33.6277 22.6905 33.742 22.6492 33.8162 22.6495C34.464 22.6524 35.1118 22.6577 35.7594 22.6471C35.9457 22.6441 36.0093 22.6953 35.999 22.8858C35.9832 23.1772 35.9891 23.4703 35.9974 23.7623C36.0014 23.9025 35.9616 23.9573 35.8121 23.9569C34.2875 23.9526 32.7629 23.9528 31.2384 23.9567C31.0936 23.957 31.0436 23.9061 31.0449 23.764C31.0499 23.2347 31.0493 22.7054 31.045 22.1762C31.0441 22.0578 31.0933 21.9947 31.1931 21.9358C31.9425 21.4932 32.6882 21.0444 33.4348 20.5971C33.4663 20.5782 33.4957 20.5557 33.5819 20.4966C33.4423 20.4893 33.3623 20.4816 33.2823 20.4814C32.6346 20.4804 31.9868 20.4763 31.3391 20.484C31.1754 20.4859 31.1144 20.4379 31.1249 20.2698C31.1381 20.0573 31.1281 19.8434 31.1282 19.6068Z" fill="white"/>
<path d="M28.4501 18.8415C28.4512 19.1789 28.4512 19.179 28.7724 19.1791C28.9462 19.1792 29.1205 19.1878 29.2935 19.1765C29.4511 19.1663 29.5216 19.2071 29.5138 19.3826C29.5003 19.6821 29.5011 19.983 29.5137 20.2826C29.5207 20.4481 29.4511 20.4864 29.3053 20.4816C29.0844 20.4745 28.8629 20.485 28.642 20.4781C28.4987 20.4736 28.4462 20.5302 28.4483 20.6729C28.4544 21.0835 28.4336 21.4952 28.456 21.9047C28.4811 22.3625 28.6235 22.663 29.2411 22.5627C29.4388 22.5305 29.5323 22.5576 29.5154 22.7904C29.4948 23.0733 29.5029 23.359 29.5136 23.6429C29.5188 23.7788 29.4699 23.8555 29.3437 23.8813C28.6238 24.0289 27.9076 24.1723 27.1729 23.936C26.7432 23.7978 26.4857 23.5083 26.3452 23.1059C26.2575 22.8545 26.2052 22.5895 26.2059 22.3182C26.2073 21.7733 26.2016 21.2283 26.2082 20.6834C26.21 20.533 26.1683 20.4657 26.0087 20.4775C25.8595 20.4886 25.7086 20.4763 25.5587 20.4806C25.4225 20.4846 25.3574 20.4378 25.3615 20.2884C25.3701 19.9806 25.3688 19.6723 25.3623 19.3644C25.3592 19.2169 25.4223 19.1627 25.5615 19.179C25.5693 19.1799 25.5774 19.1795 25.5852 19.1791C25.7808 19.167 26.0338 19.2621 26.1577 19.1428C26.2929 19.0126 26.196 18.7547 26.2035 18.5529C26.212 18.3241 26.2099 18.0947 26.2036 17.8659C26.2001 17.7347 26.2489 17.6814 26.3825 17.6821C27.0143 17.6857 27.6462 17.6865 28.278 17.6817C28.4195 17.6806 28.4526 17.7473 28.4512 17.8704C28.4477 18.1863 28.4501 18.5022 28.4501 18.8415Z" fill="white"/>
<path d="M23.486 23.9597C19.7262 23.9597 15.9896 23.9597 12.253 23.9596C11.9396 23.9596 11.9394 23.9593 11.9391 23.6465C11.9389 23.3462 11.9428 23.046 11.9376 22.7459C11.9351 22.6057 11.9867 22.537 12.1316 22.5499C12.1708 22.5534 12.2105 22.5504 12.25 22.5504C16.0656 22.5504 19.8812 22.5526 23.6968 22.5449C23.936 22.5444 24.0181 22.6021 23.9981 22.8462C23.9757 23.1209 23.9782 23.3998 23.9974 23.675C24.014 23.9122 23.9208 23.9908 23.6987 23.961C23.6366 23.9526 23.5724 23.9597 23.486 23.9597Z" fill="#1DA7E7"/>
<path d="M14.7891 19.6362C14.2626 19.7803 13.9665 19.5544 13.9939 19.0592C14.0076 18.813 14.1653 18.6856 14.3651 18.6235C14.6448 18.5365 14.9403 18.5407 15.2326 18.5491C15.3005 18.551 15.357 18.5597 15.366 18.6457C15.3986 18.9591 15.2315 19.5515 14.7891 19.6362Z" fill="#7D7B7B"/>
<path d="M20.8359 18.6365C21.1361 18.5524 21.4261 18.5402 21.718 18.5478C21.8012 18.55 21.8749 18.552 21.8814 18.6663C21.9022 19.0344 21.7363 19.5291 21.3075 19.6419C20.9906 19.7252 20.6336 19.6419 20.5445 19.4003C20.4438 19.1277 20.4444 18.8439 20.8359 18.6365Z" fill="#7D7B7B"/>
<circle cx="20" cy="20" r="19.5" stroke="black" stroke-opacity="0.05"/>
</svg>
