<svg width="40" height="40" viewBox="0 0 40 40" fill="none" xmlns="http://www.w3.org/2000/svg">
<circle cx="20" cy="20" r="20" fill="#F6F8FA"/>
<path d="M13.259 23.5271C13.809 24.5693 14.4672 24.9586 15.9372 25.1199C15.9649 25.1876 15.9085 25.2289 15.8809 25.2753C15.3447 26.1754 14.8011 27.0713 14.274 27.9767C14.1789 28.1401 14.0784 28.1847 13.9032 28.1627C12.2388 27.9545 11.0051 27.1209 10.2252 25.632C9.64745 24.5291 9.42618 23.3367 9.37774 22.1068C9.24252 18.6731 10.5482 15.7614 12.7175 13.2069C14.3647 11.2673 16.4774 10.0183 18.9461 9.38327C20.09 9.08903 21.229 9.0722 22.3446 9.49869C23.5969 9.97743 24.2611 10.9203 24.4403 12.2309C24.5045 12.6996 24.5003 13.1676 24.4225 13.6314C24.3947 13.7971 24.4484 13.8122 24.5849 13.8269C25.3814 13.9125 26.1543 14.0905 26.8544 14.4974C27.9836 15.1537 28.5363 16.1379 28.5052 17.4479C28.5022 17.573 28.482 17.6325 28.3343 17.6322C25.9371 17.6274 23.5399 17.6284 21.1427 17.6277C21.128 17.6277 21.1134 17.6232 21.0897 17.6193C21.0823 17.5182 21.1685 17.4676 21.2162 17.4017C21.7913 16.6078 22.0922 15.7352 21.9805 14.7457C21.9394 14.3821 21.8431 14.0296 21.692 13.6967C21.3651 12.9771 20.6657 12.6012 19.8387 12.6448C18.805 12.6994 17.9126 13.1001 17.091 13.6967C15.3299 14.9757 13.9611 16.5652 13.2094 18.6353C12.6916 20.061 12.6266 21.5095 13.0395 22.9743C13.0921 23.1608 13.1654 23.339 13.259 23.5271Z" fill="#D80D19"/>
<path d="M25.4652 28.1752C22.9268 28.1752 20.4108 28.1773 17.8947 28.1704C17.7208 28.1699 17.6276 28.2216 17.5501 28.3722C17.4107 28.643 17.2504 28.903 17.1007 29.1685C17.0587 29.2429 17.0163 29.2949 16.9143 29.2943C16.0435 29.2893 15.1725 29.2905 14.3016 29.2889C14.2895 29.2889 14.2773 29.2777 14.2441 29.2613C14.3742 29.0375 14.5023 28.8146 14.6327 28.5931C16.6236 25.2128 18.616 21.8334 20.6019 18.4501C20.6944 18.2925 20.7958 18.2464 20.9703 18.2471C23.0471 18.2552 25.1239 18.2473 27.2006 18.2627C27.9167 18.268 28.5421 18.5124 28.8805 19.1961C29.1799 19.8011 29.0151 20.3863 28.6963 20.9367C28.4672 21.3323 28.1275 21.6185 27.7011 21.8569C27.8774 21.9114 28.0296 21.9514 28.1768 22.0051C29.148 22.3597 29.8216 22.9834 29.9668 24.0533C30.2248 25.9541 28.9545 27.702 27.0657 28.0798C26.5417 28.1846 26.0154 28.1735 25.4652 28.1752Z" fill="#019A45"/>
<path d="M24.8973 21.8972C24.536 21.9043 24.1938 21.9074 23.8516 21.9106C23.7719 21.9114 23.6981 21.8988 23.6439 21.9939C23.2729 22.6446 22.895 23.2914 22.5002 23.9727C22.6026 23.9779 22.6787 23.9851 22.7548 23.9851C23.7896 23.9859 24.8243 23.9847 25.859 23.9864C26.0671 23.9868 26.2757 23.9927 26.4774 24.0549C26.8018 24.155 26.9456 24.3784 26.9017 24.7136C26.8241 25.3055 26.3844 25.7233 25.7596 25.7264C23.5787 25.7373 21.3976 25.7288 19.2166 25.7273C19.2102 25.7273 19.2039 25.7219 19.1923 25.7167C19.1722 25.6355 19.237 25.5827 19.2715 25.524C20.2049 23.9352 21.1421 22.3487 22.0736 20.7588C22.1464 20.6346 22.2241 20.5847 22.3717 20.587C23.2124 20.6001 24.0533 20.6021 24.8942 20.607C25.2622 20.6092 25.4672 20.713 25.5385 20.9365C25.6247 21.2067 25.4665 21.6131 25.2023 21.7736C25.115 21.8267 25.012 21.8541 24.8973 21.8972Z" fill="#FBFDFC"/>
<circle cx="20" cy="20" r="19.5" stroke="black" stroke-opacity="0.05"/>
</svg>
