<svg width="40" height="40" viewBox="0 0 40 40" fill="none" xmlns="http://www.w3.org/2000/svg">
<circle cx="20" cy="20" r="20" fill="#A50034"/>
<g clip-path="url(#clip0_14382_19898)">
<path d="M20 32C22.3713 31.9982 24.6888 31.2927 26.6595 29.9729C28.6301 28.6531 30.1656 26.7781 31.0716 24.585C31.9776 22.392 32.2136 19.9793 31.7496 17.6521C31.2856 15.3248 30.1426 13.1875 28.465 11.5103C26.7874 9.83316 24.6505 8.69144 22.3246 8.22952C19.9987 7.76761 17.5882 8.00623 15.3977 8.91523C13.2073 9.82424 11.3354 11.3628 10.0186 13.3364C8.70187 15.31 7.99939 17.63 8 20.0031C8.00082 21.5794 8.31185 23.1401 8.91535 24.596C9.51885 26.052 10.403 27.3748 11.5173 28.4888C12.6316 29.6028 13.9542 30.4862 15.4097 31.0887C16.8652 31.6912 18.425 32.0008 20 32Z" fill="#A50034"/>
<path d="M19.5156 14.7364V25.2636H22.8626V24.319H20.4812V14.7364H19.5156Z" fill="white"/>
<path d="M16.1685 17.6075C16.4537 17.6081 16.7326 17.524 16.97 17.3658C17.2074 17.2076 17.3925 16.9825 17.5019 16.7189C17.6114 16.4553 17.6402 16.1652 17.5847 15.8852C17.5292 15.6053 17.3919 15.3481 17.1903 15.1463C16.9886 14.9445 16.7316 14.8071 16.4519 14.7516C16.1721 14.696 15.8822 14.7248 15.6188 14.8343C15.3555 14.9438 15.1305 15.1291 14.9725 15.3667C14.8144 15.6043 14.7303 15.8834 14.731 16.1688C14.731 16.5504 14.8824 16.9163 15.152 17.1861C15.4216 17.4559 15.7872 17.6075 16.1685 17.6075Z" fill="white"/>
<path d="M20.4814 9.95752H20.0033C18.017 9.95752 16.0753 10.5471 14.4239 11.6517C12.7725 12.7563 11.4855 14.3262 10.7258 16.1629C9.96614 17.9996 9.76784 20.0205 10.156 21.97C10.5442 23.9195 11.5014 25.71 12.9066 27.115C14.3118 28.5199 16.1018 29.4763 18.0501 29.8629C19.9985 30.2496 22.0177 30.0493 23.8522 29.2873C25.6868 28.5253 27.2543 27.2359 28.3565 25.5822C29.4587 23.9284 30.046 21.9847 30.0442 19.9969V19.5494H22.8721V20.4816H29.0817C29.0817 20.5034 29.0817 20.5997 29.0817 20.6245C28.9632 22.3703 28.3448 24.045 27.3005 25.4484C26.2562 26.8518 24.8301 27.9246 23.1927 28.5384C21.5554 29.1522 19.7761 29.2812 18.0674 28.9098C16.3588 28.5385 14.7932 27.6825 13.5577 26.4443C12.2822 25.17 11.4134 23.5454 11.0613 21.7765C10.7093 20.0075 10.8898 18.1738 11.5801 16.5076C12.2704 14.8414 13.4394 13.4178 14.9389 12.4171C16.4384 11.4165 18.201 10.8838 20.0033 10.8866C20.1088 10.8866 20.3634 10.8866 20.4814 10.8866V9.95752Z" fill="white"/>
</g>
<circle cx="20" cy="20" r="19.5" stroke="black" stroke-opacity="0.05"/>
<defs>
<clipPath id="clip0_14382_19898">
<rect width="24" height="24" fill="white" transform="translate(8 8)"/>
</clipPath>
</defs>
</svg>
