<svg width="40" height="40" viewBox="0 0 40 40" fill="none" xmlns="http://www.w3.org/2000/svg">
<circle cx="20" cy="20" r="20" fill="#EB1A23"/>
<path d="M18.5913 8.09575C18.5884 8.09186 18.5842 8.08922 18.5795 8.08838C18.5747 8.08754 18.5699 8.08856 18.5659 8.09123C18.5626 8.09384 18.5602 8.09739 18.5591 8.10139L18.3017 9.04795C18.2979 9.06224 18.2998 9.07747 18.3071 9.09035C18.3144 9.10323 18.3264 9.11273 18.3407 9.11681H18.3452L18.4863 9.1456C18.5104 9.15087 18.5183 9.16498 18.51 9.18793C18.5058 9.20068 18.4979 9.21184 18.4872 9.21992C18.4765 9.22799 18.4635 9.23259 18.4502 9.23309C18.2394 9.25604 18.0302 9.27598 17.8225 9.29292C17.8183 9.2933 17.814 9.29285 17.81 9.29158C17.8059 9.29031 17.8021 9.28826 17.7989 9.28553C17.7956 9.2828 17.793 9.27945 17.791 9.27569C17.789 9.27192 17.7879 9.2678 17.7875 9.26357C17.7862 9.25437 17.7881 9.24501 17.793 9.23708C17.7978 9.22915 17.8053 9.22315 17.814 9.2201C17.919 9.17156 18.0296 9.15124 18.0646 9.02029C18.2054 8.49349 18.3649 7.90252 18.5433 7.2474C18.5452 7.24051 18.5443 7.23315 18.5408 7.22691C18.5373 7.22068 18.5315 7.21607 18.5247 7.2141H18.5207L18.3773 7.19604C18.3647 7.19444 18.3529 7.18861 18.344 7.17949C18.3351 7.17037 18.3295 7.15849 18.3282 7.1458C18.3271 7.14073 18.3272 7.13548 18.3284 7.13043C18.3296 7.12538 18.3319 7.12065 18.3351 7.1166C18.3384 7.11255 18.3425 7.10927 18.3471 7.107C18.3518 7.10473 18.3569 7.10352 18.3621 7.10347C18.5762 7.07374 18.7845 7.05493 18.9869 7.04703C19.066 7.04364 19.075 7.06734 19.0146 7.11814C18.9822 7.144 18.943 7.15988 18.9017 7.16386C18.873 7.16791 18.8461 7.18027 18.8243 7.19943C18.8026 7.21859 18.7869 7.2437 18.7792 7.27167L18.5997 7.93601C18.5755 8.02576 18.5997 8.0393 18.6669 7.97778C18.9743 7.70459 19.3019 7.42463 19.6496 7.1379C19.776 7.03404 19.9657 6.90027 20.1316 6.94599C20.1411 6.94799 20.1495 6.9533 20.1554 6.96095C20.1613 6.9686 20.1643 6.97811 20.1638 6.98776C20.1651 7.00033 20.1638 7.01305 20.16 7.02509C20.1561 7.03713 20.1498 7.04823 20.1414 7.05769C20.133 7.06714 20.1227 7.07475 20.1112 7.08C20.0997 7.08526 20.0872 7.08806 20.0746 7.08823C19.9709 7.0998 19.8728 7.14139 19.7924 7.20789C19.4819 7.46603 19.1662 7.73545 18.8453 8.01616C18.8393 8.02131 18.8354 8.02851 18.8345 8.03634C18.8336 8.04418 18.8356 8.05208 18.8402 8.05849L19.474 8.94522C19.4941 8.97361 19.5242 8.9933 19.5583 9.00032C19.5924 9.00734 19.6278 9.00116 19.6575 8.98304C19.7077 8.9514 19.7641 8.93082 19.8229 8.92265C19.903 8.91249 19.9137 8.93506 19.8545 8.98981C19.7416 9.09706 19.4707 9.2647 19.3273 9.11794C19.288 9.07753 19.252 9.03412 19.2195 8.98812C19.0129 8.69349 18.8035 8.39603 18.5913 8.09575Z" fill="#1D1C1C"/>
<path d="M21.1072 7.27667C21.1215 7.23022 21.1471 7.18802 21.1816 7.15385C21.2162 7.11967 21.2587 7.09458 21.3053 7.08081C21.3406 7.06901 21.379 7.07062 21.4131 7.08533C21.5023 7.12296 21.5236 7.18335 21.4769 7.26651C21.2568 7.66387 21.0325 8.06519 20.8041 8.47045C20.7983 8.48252 20.7885 8.49215 20.7763 8.49763C20.7641 8.50311 20.7503 8.50408 20.7375 8.50037C20.733 8.49925 20.7288 8.49725 20.725 8.49448C20.7213 8.49171 20.7182 8.48823 20.7158 8.48424C20.7135 8.48024 20.7119 8.47582 20.7113 8.47123C20.7106 8.46663 20.7109 8.46196 20.7121 8.45747L21.1072 7.27667Z" fill="#1D1C1C"/>
<path d="M15.5947 9.56656C15.1736 9.18444 15.2301 8.43769 15.7217 7.89301C16.2133 7.35115 16.9533 7.22133 17.3749 7.60345C17.796 7.98557 17.7396 8.73514 17.2479 9.277C16.7563 9.81886 16.0163 9.94868 15.5947 9.56656ZM15.9407 9.56938C16.3358 9.78895 16.9003 9.52648 17.2017 8.98406C17.5014 8.44107 17.4224 7.82414 17.0256 7.60514C16.6288 7.38614 16.066 7.64804 15.7646 8.19046C15.4649 8.73345 15.5439 9.35038 15.9407 9.56938Z" fill="#1D1C1C"/>
<path d="M20.7791 8.88702C20.809 8.97282 20.7226 9.08062 20.5883 9.12804C20.4528 9.17489 20.319 9.14384 20.2891 9.05748C20.2592 8.97112 20.3456 8.86388 20.4799 8.81647C20.6154 8.76962 20.7491 8.80066 20.7791 8.88702Z" fill="#1D1C1C"/>
<path d="M24.2195 10.4072C24.4571 10.3626 24.4836 10.0787 24.5062 9.8789C24.5446 9.54023 24.7816 9.24842 25.0768 9.0853C25.3991 8.9075 25.8541 8.92726 26.1854 9.10054C26.4537 9.23274 26.6731 9.4468 26.8119 9.71182C27.1094 10.296 26.9485 10.9649 26.3564 11.2815C26.1239 11.4057 25.8586 11.3617 25.6706 11.5767C25.6568 11.5918 25.6483 11.611 25.6464 11.6314C25.6444 11.6517 25.6492 11.6722 25.6599 11.6896C25.7299 11.8081 25.7976 11.956 25.9421 11.995C26.1773 12.0624 26.4266 12.0624 26.6618 11.995C26.7747 11.9617 26.8943 11.9989 26.9225 12.1259C27.0405 12.6599 26.4292 12.775 26.0499 12.7863C25.8394 12.7925 25.6187 12.7457 25.4223 12.8094C24.9809 12.9545 24.4526 13.4631 24.4413 13.9682C24.4362 14.203 24.36 14.7855 24.1116 14.8962C23.7589 15.0536 23.5935 14.6648 23.5348 14.4023C23.4507 14.0422 23.2757 13.7098 23.0265 13.4366C22.7772 13.1635 22.4621 12.9588 22.1113 12.8422C21.8291 12.7451 21.4752 12.7807 21.2437 12.5662C21.2101 12.5357 21.1836 12.4982 21.1661 12.4563C21.1487 12.4144 21.1408 12.3691 21.1429 12.3238C21.1451 12.2784 21.1573 12.2341 21.1786 12.1941C21.1999 12.154 21.2299 12.1192 21.2663 12.0921C21.513 11.9047 21.8646 11.8347 22.1694 11.7839C22.551 11.7207 22.9032 11.29 23.0691 10.9547C23.208 10.6725 23.1459 10.4117 23.112 10.1193C23.0948 9.94973 23.1032 9.77848 23.1369 9.61135C23.1933 9.31672 23.4259 9.10336 23.7419 9.19875C23.7752 9.20903 23.8038 9.23092 23.8223 9.26044C23.8408 9.28996 23.8482 9.32515 23.843 9.35961C23.8048 9.59043 23.8163 9.82675 23.8768 10.0527C23.9141 10.1978 24.0354 10.4416 24.2195 10.4072Z" fill="#0AB14B"/>
<path d="M13.0505 9.41078C12.9114 9.45781 12.7921 9.55025 12.7118 9.67325C12.5989 9.84709 12.6983 9.99893 12.8981 9.9978C13.0477 9.9978 13.1967 9.9978 13.3446 9.9978C13.5856 9.9978 13.7335 10.1982 13.6731 10.4341C13.5692 10.8388 13.1702 11.0996 12.775 11.1233C12.7617 11.1245 12.7483 11.1209 12.7373 11.1131C12.7264 11.1054 12.7185 11.094 12.7152 11.081L12.6447 10.8157C12.6401 10.7993 12.6407 10.7819 12.6463 10.7658C12.652 10.7498 12.6624 10.7358 12.6763 10.7259C12.7892 10.6463 12.8699 10.7993 12.9212 10.8744C12.9354 10.8955 12.9558 10.9115 12.9797 10.9201C13.0035 10.9287 13.0295 10.9295 13.0539 10.9223C13.1441 10.8972 13.2275 10.8524 13.2983 10.7911C13.3691 10.7298 13.4254 10.6536 13.4631 10.5679C13.5523 10.3788 13.467 10.1982 13.2373 10.1999C13.0958 10.1999 12.9555 10.1999 12.8162 10.1999C12.3952 10.1914 12.3912 9.79404 12.621 9.55359C12.7927 9.36688 13.0255 9.2476 13.2774 9.21718C13.2891 9.21433 13.3014 9.216 13.3118 9.22187C13.3223 9.22773 13.3302 9.23735 13.3338 9.24879C13.3627 9.31685 13.3818 9.3887 13.3903 9.46215C13.3923 9.47972 13.3888 9.49748 13.3803 9.51299C13.3718 9.5285 13.3587 9.541 13.3428 9.54879C13.3269 9.55657 13.309 9.55926 13.2916 9.55648C13.2741 9.5537 13.2579 9.5456 13.2452 9.53327L13.1408 9.4311C13.1292 9.41961 13.1145 9.41161 13.0986 9.40802C13.0826 9.40443 13.0659 9.40539 13.0505 9.41078Z" fill="#1D1C1C"/>
<path d="M28.9881 12.1891C29.0008 12.1807 29.0118 12.1697 29.0203 12.157C29.0288 12.1443 29.0347 12.1301 29.0377 12.1151C29.0407 12.1001 29.0407 12.0847 29.0377 12.0697C29.0347 12.0547 29.0288 12.0404 29.0203 12.0277L29.0146 12.0204C28.9558 11.9508 28.8802 11.8974 28.7951 11.8651C28.2306 11.6174 27.993 11.0597 28.1996 10.4868C28.3059 10.2052 28.5076 9.9699 28.7697 9.82188C29.447 9.41097 30.3591 9.71577 30.5194 10.5178C30.551 10.6742 30.5262 10.8238 30.5239 10.9784C30.5239 11.0529 30.5437 11.1635 30.6306 11.185C30.6572 11.1924 30.6853 11.1917 30.7114 11.1828C30.7375 11.1739 30.7603 11.1574 30.7768 11.1353C30.9263 10.9562 31.013 10.7329 31.0235 10.4998C31.0381 10.274 31.151 10.1814 31.3621 10.2221C31.9757 10.335 31.7657 11.1692 31.6071 11.5344C31.4857 11.8121 31.6178 12.1665 31.7821 12.4262C31.8904 12.5955 32.0033 12.7304 32.2003 12.8055C32.4334 12.8941 32.9205 13.0984 32.986 13.3699C33.069 13.7154 32.7715 13.8909 32.4735 13.8745C32.3267 13.8666 32.1853 13.8636 32.049 13.8655C31.4688 13.874 30.7384 14.3735 30.5206 14.9091C30.4756 15.0184 30.4116 15.1187 30.3315 15.2055C30.0837 15.4775 29.6931 15.3788 29.6304 15.0113C29.592 14.7767 29.5951 14.5371 29.6395 14.3035C29.7078 13.9293 29.4701 13.5872 29.2246 13.3383C29.1108 13.2214 28.9596 13.1481 28.7973 13.1312C28.3249 13.0747 27.5685 12.8247 27.8502 12.2078C27.864 12.1772 27.884 12.1498 27.9091 12.1275C27.9341 12.1052 27.9636 12.0885 27.9955 12.0784C28.0275 12.0682 28.0613 12.065 28.0946 12.0688C28.1279 12.0726 28.16 12.0834 28.1889 12.1005C28.3966 12.2038 28.8018 12.3144 28.9881 12.1891Z" fill="white"/>
<path d="M22.37 15.2042C22.6861 15.1957 22.8125 14.8768 22.8695 14.6205C22.9172 14.4049 22.9522 14.1867 22.9745 13.9669C22.9852 13.854 23.0191 13.8495 23.075 13.9449C23.1396 14.055 23.19 14.1727 23.2251 14.2954C23.3256 14.6488 23.4159 15.1223 23.8573 15.2053C24.083 15.2476 24.3692 15.1415 24.4849 14.9231C24.6306 14.6514 24.7058 14.3229 24.7107 13.9376C24.7107 13.6345 24.9839 13.3844 25.204 13.2072C25.3399 13.093 25.5131 13.0327 25.6906 13.0379C26.1365 13.0599 26.5598 13.0525 26.9385 12.7952C26.9463 12.79 26.9557 12.7876 26.965 12.7884C26.9743 12.7892 26.9831 12.7932 26.9899 12.7997C28.0889 13.8321 28.9583 15.0842 29.5417 16.4747C31.051 20.0871 30.4572 24.3159 27.9404 27.3638C26.7883 28.7678 25.2979 29.8555 23.6095 30.5247C23.2624 30.6638 22.9073 30.7822 22.5461 30.8791C20.5331 31.4348 18.402 31.3931 16.4124 30.7589C16.0521 30.6463 15.6989 30.5123 15.3546 30.3576C13.308 29.4364 11.6969 28.0152 10.5213 26.0938C10.3251 25.7719 10.1485 25.4385 9.99246 25.0954C8.4318 21.6794 8.72079 17.7752 10.7957 14.6567C11.9619 12.907 13.6184 11.5402 15.5578 10.7276C17.4219 9.95021 19.3935 9.72613 21.4725 10.0554C21.4809 10.0567 21.4884 10.061 21.4939 10.0674C21.4994 10.0738 21.5024 10.0819 21.5024 10.0904C21.5035 10.2414 21.5142 10.3923 21.5346 10.5419C21.5685 10.7908 21.507 10.989 21.3715 11.1972C21.1864 11.4834 20.9352 11.7555 20.5999 11.7984C20.2889 11.8384 19.5941 11.9429 19.5015 12.3193C19.3999 12.7331 19.808 12.9109 20.1297 12.9498C20.2575 12.9654 20.3829 12.996 20.5034 13.0413C21.1717 13.2902 21.7073 13.8574 21.8315 14.5726C21.8806 14.8576 22.0415 15.2132 22.37 15.2042ZM9.94561 19.9087C9.91683 20.047 9.95747 20.1278 10.0687 20.1515C10.2662 20.2364 10.4728 20.2985 10.6845 20.3366C10.9097 20.3857 11.1378 20.421 11.3674 20.4421C11.745 20.4654 12.1235 20.4682 12.5014 20.4506C12.6696 20.4438 12.8364 20.4167 12.9981 20.3699C13.6929 20.1639 14.2799 19.7219 14.202 18.9153C14.1388 18.2595 13.4525 17.9451 12.9095 17.7678C12.5821 17.6614 12.2564 17.5673 11.9324 17.4856C11.6502 17.4134 11.3115 17.2068 11.4244 16.8557C11.4651 16.7304 11.5938 16.6514 11.7095 16.6034C12.0306 16.4696 12.362 16.4877 12.7159 16.547C13.1166 16.6079 13.5007 16.7498 13.8447 16.9641C13.8488 16.9667 13.8533 16.9685 13.858 16.9694C13.8628 16.9703 13.8676 16.9702 13.8724 16.9693C13.8771 16.9683 13.8816 16.9663 13.8855 16.9636C13.8895 16.9609 13.8929 16.9574 13.8955 16.9534C13.8994 16.9475 13.9016 16.9406 13.9017 16.9336C13.9055 16.6789 13.9096 16.4057 13.9142 16.114C13.9156 16.0878 13.909 16.0616 13.8952 16.0392C13.8814 16.0168 13.861 15.9992 13.8368 15.9887C13.2605 15.7003 12.5606 15.6326 11.9138 15.676C11.1586 15.7268 10.1641 16.0711 10.076 16.9579C9.99585 17.7735 10.7957 18.1675 11.4476 18.3424C11.7689 18.4286 12.0828 18.5227 12.3891 18.6247C12.5821 18.6879 12.9021 18.8341 12.8971 19.0807C12.8971 19.2461 12.7001 19.32 12.5702 19.3703C12.2987 19.4747 12.0572 19.4736 11.7727 19.4707C11.6355 19.4697 11.4986 19.4575 11.3635 19.4341C10.8879 19.3504 10.4226 19.2163 9.97553 19.0339C9.97088 19.032 9.96568 19.032 9.96104 19.0339C9.9564 19.0358 9.95269 19.0394 9.95069 19.044C9.95018 19.0465 9.95018 19.049 9.95069 19.0514L9.94561 19.9087ZM19.5783 18.1353C19.5783 16.7631 18.3738 15.6484 16.8825 15.6456C15.3913 15.6427 14.18 16.7536 14.1778 18.1263C14.1755 19.499 15.3823 20.6132 16.8735 20.616C18.3647 20.6188 19.576 19.5086 19.5783 18.1353ZM29.5327 18.1917C29.54 16.8179 28.3366 15.6975 26.8454 15.6896C25.3542 15.6817 24.1395 16.7897 24.1322 18.1635C24.1248 19.5373 25.3282 20.6578 26.8194 20.6657C28.3107 20.6736 29.5253 19.5644 29.5327 18.1917ZM20.9476 17.7966C20.9476 17.7645 20.9595 17.7599 20.9826 17.782C21.3213 18.1138 21.6266 18.4813 21.9421 18.82C22.2511 19.1496 22.5521 19.4794 22.8452 19.8094C23.0247 20.0103 23.2189 20.2045 23.3967 20.4009C23.4054 20.4109 23.4162 20.419 23.4283 20.4245C23.4403 20.43 23.4534 20.433 23.4667 20.4331L23.9182 20.4365C23.9258 20.4373 23.9335 20.4364 23.9407 20.4338C23.948 20.4313 23.9545 20.4271 23.9599 20.4217C23.9653 20.4163 23.9695 20.4098 23.972 20.4026C23.9746 20.3954 23.9755 20.3877 23.9747 20.3801L24.0187 15.8646C24.0189 15.8465 24.0119 15.8292 23.9993 15.8163C23.9867 15.8034 23.9695 15.796 23.9515 15.7957L22.8176 15.7799C22.8082 15.7797 22.7989 15.7813 22.7902 15.7847C22.7815 15.7881 22.7735 15.7932 22.7668 15.7998C22.7601 15.8063 22.7547 15.8141 22.751 15.8227C22.7473 15.8313 22.7454 15.8405 22.7453 15.8499L22.7267 18.2205C22.7267 18.2911 22.7019 18.3001 22.655 18.2476L20.4385 15.7901C20.4297 15.7805 20.4191 15.7729 20.4072 15.7676C20.3954 15.7624 20.3826 15.7597 20.3696 15.7596H19.7487C19.7321 15.7597 19.7162 15.7664 19.7044 15.7781C19.6926 15.7898 19.6858 15.8056 19.6855 15.8222L19.6533 20.3473C19.6519 20.355 19.6524 20.363 19.6548 20.3705C19.6571 20.378 19.6612 20.3848 19.6668 20.3903C19.6723 20.3959 19.6791 20.4 19.6866 20.4023C19.6941 20.4047 19.7021 20.4052 19.7098 20.4038L20.8601 20.4122C20.8751 20.4122 20.8894 20.4063 20.9 20.3957C20.9106 20.3851 20.9166 20.3708 20.9166 20.3558L20.9476 17.7966ZM19.5438 23.4534C19.5512 22.0801 18.3467 20.9603 16.8543 20.9524C15.3619 20.9445 14.145 22.0519 14.1388 23.4252C14.1326 24.7985 15.336 25.9183 16.8283 25.9262C18.3207 25.9341 19.5365 24.8267 19.5438 23.4534ZM12.9941 25.3601C13.0355 25.4257 13.0829 25.4873 13.1358 25.5441C13.1762 25.5895 13.2318 25.6187 13.2922 25.6259C13.3543 25.6333 13.4172 25.6321 13.479 25.6225L14.6982 25.6491C14.7063 25.6491 14.7141 25.646 14.7199 25.6404C14.7258 25.6348 14.7293 25.6272 14.7298 25.6192C14.7307 25.6147 14.7307 25.6101 14.7298 25.6056C14.7147 25.571 14.6958 25.5383 14.6733 25.508C14.0318 24.6801 13.4024 23.8694 12.7853 23.0758C12.779 23.0673 12.7762 23.0568 12.7773 23.0464C12.7785 23.0359 12.7835 23.0262 12.7915 23.0194C13.4549 22.4598 14.1134 21.9121 14.767 21.3763C14.9213 21.2499 15.0496 21.1356 15.152 21.0337C15.1556 21.0301 15.1576 21.0252 15.1576 21.0201C15.1576 21.015 15.1556 21.0102 15.152 21.0066C15.1483 21.003 15.1435 21.001 15.1384 21.0009L13.4259 20.9959C13.3829 20.9953 13.3411 21.0106 13.3085 21.0387L11.5825 22.4973C11.5793 22.4999 11.5756 22.5019 11.5716 22.5032C11.5677 22.5044 11.5635 22.5049 11.5594 22.5045C11.5552 22.5042 11.5512 22.503 11.5475 22.5011C11.5438 22.4991 11.5406 22.4965 11.5379 22.4933C11.5329 22.4875 11.5303 22.4801 11.5306 22.4724L11.5441 21.0173C11.5446 21.0142 11.5443 21.011 11.5433 21.0081C11.5424 21.0051 11.5407 21.0024 11.5385 21.0001C11.5364 20.9979 11.5337 20.9962 11.5307 20.9952C11.5278 20.9941 11.5246 20.9938 11.5215 20.9942H10.3227C10.3171 20.9942 10.3117 20.9963 10.3077 21.0002C10.3037 21.0041 10.3014 21.0095 10.3012 21.015C10.2835 22.3957 10.2728 23.7527 10.269 25.0863C10.269 25.2139 10.2722 25.3456 10.2786 25.4814C10.2802 25.5175 10.2956 25.5515 10.3215 25.5766C10.3474 25.6017 10.382 25.6159 10.418 25.6163L11.4826 25.6282C11.4924 25.6264 11.5012 25.6212 11.5074 25.6134C11.5137 25.6056 11.5169 25.5958 11.5164 25.5858V24.1183C11.5164 24.0936 11.5255 24.0697 11.5418 24.0511C11.6088 23.9773 11.686 23.9135 11.771 23.8615C11.7756 23.8585 11.7812 23.8574 11.7867 23.8583C11.7921 23.8593 11.797 23.8622 11.8004 23.8666L12.9941 25.3601ZM20.9109 23.0572C20.9109 23.0504 20.9136 23.044 20.9184 23.0392C20.9231 23.0345 20.9296 23.0318 20.9363 23.0318C20.9398 23.0317 20.9433 23.0323 20.9465 23.0337C20.9497 23.0351 20.9526 23.0371 20.9549 23.0397L23.3656 25.6598C23.3731 25.6682 23.3824 25.675 23.3927 25.6795C23.403 25.6841 23.4142 25.6864 23.4255 25.6863H23.9369C23.9453 25.6862 23.9534 25.6827 23.9594 25.6767C23.9654 25.6707 23.9689 25.6626 23.969 25.6541L23.9775 21.0895C23.9775 21.0793 23.9735 21.0695 23.9663 21.0622C23.9591 21.0549 23.9493 21.0508 23.9391 21.0506L22.7645 21.0393C22.7587 21.0392 22.753 21.0403 22.7476 21.0424C22.7423 21.0446 22.7374 21.0478 22.7332 21.0518C22.7291 21.0558 22.7258 21.0607 22.7235 21.066C22.7212 21.0713 22.72 21.077 22.7199 21.0828L22.7137 23.4974C22.7137 23.5827 22.6866 23.5917 22.6341 23.5251C22.5506 23.4195 22.4648 23.3157 22.37 23.2147C21.7344 22.5178 21.093 21.809 20.4458 21.0884C20.4281 21.0689 20.4066 21.0531 20.3827 21.0421C20.3587 21.031 20.3328 21.0249 20.3064 21.0241L19.716 21.0071C19.6992 21.0067 19.6829 21.0129 19.6706 21.0244C19.6583 21.0359 19.6511 21.0518 19.6505 21.0687L19.6404 25.6406C19.6404 25.6489 19.6436 25.6568 19.6494 25.6628C19.6552 25.6687 19.6631 25.6721 19.6714 25.6722L20.8567 25.6829C20.8625 25.6839 20.8685 25.6835 20.8741 25.6817C20.8797 25.6799 20.8848 25.6768 20.889 25.6727C20.8931 25.6686 20.8963 25.6635 20.8981 25.6579C20.9 25.6523 20.9005 25.6464 20.8996 25.6406L20.9109 23.0572ZM27.7344 23.6905C27.7441 23.6905 27.7534 23.6943 27.7603 23.7012C27.7672 23.7081 27.7711 23.7174 27.7711 23.7272L27.7615 24.8397C27.7628 24.8553 27.7609 24.871 27.7558 24.8858C27.7507 24.9006 27.7426 24.9142 27.732 24.9258C27.7214 24.9373 27.7085 24.9465 27.6941 24.9527C27.6798 24.959 27.6643 24.9622 27.6486 24.9621C27.4048 24.9871 27.1593 24.9911 26.9148 24.974C26.4362 24.9418 25.9423 24.6201 25.7126 24.2402C25.5345 23.9541 25.4635 23.6142 25.5122 23.2807C25.5458 23.0458 25.633 22.8218 25.7671 22.626C25.9012 22.4302 26.0786 22.268 26.2855 22.1518C26.8697 21.8261 27.5064 21.8837 28.1024 22.1518C28.2397 22.2186 28.3487 22.3321 28.41 22.4719C28.4698 22.5915 28.5731 22.6355 28.7199 22.6039C28.7309 22.6025 28.7409 22.5969 28.7478 22.5883C28.7548 22.5797 28.7581 22.5687 28.7571 22.5576L28.7622 21.5089C28.7627 21.4993 28.7603 21.4898 28.7554 21.4816C28.7505 21.4734 28.7432 21.4668 28.7346 21.4626C28.4194 21.2912 28.0786 21.1719 27.7254 21.1093C27.2853 21.0397 26.8366 21.0451 26.3984 21.1251C25.4783 21.2944 24.5668 21.9323 24.2682 22.8483C24.1594 23.1827 24.1311 23.5381 24.1856 23.8855C24.2401 24.233 24.376 24.5626 24.582 24.8476C24.8964 25.2771 25.4744 25.5943 25.9846 25.7202C26.687 25.901 27.4224 25.9111 28.1295 25.7495C28.3671 25.6946 28.5942 25.6012 28.8017 25.473C28.819 25.4622 28.8332 25.4473 28.8431 25.4295C28.853 25.4117 28.8582 25.3917 28.8582 25.3714V23.1701C28.858 23.1684 28.8576 23.1668 28.8568 23.1654C28.8561 23.1639 28.855 23.1626 28.8538 23.1616C28.8525 23.1605 28.851 23.1598 28.8495 23.1593C28.8479 23.1588 28.8463 23.1586 28.8446 23.1588H26.8127C26.8077 23.158 26.8026 23.1584 26.7978 23.16C26.793 23.1616 26.7886 23.1642 26.785 23.1678C26.7814 23.1714 26.7788 23.1758 26.7772 23.1806C26.7756 23.1854 26.7752 23.1905 26.776 23.1955L26.7822 23.6555C26.7816 23.6601 26.7821 23.6647 26.7836 23.6691C26.7852 23.6734 26.7876 23.6774 26.7909 23.6806C26.7942 23.6839 26.7981 23.6864 26.8025 23.6879C26.8068 23.6894 26.8115 23.6899 26.816 23.6893L27.7344 23.6905Z" fill="white"/>
<path d="M14.1802 10.3552C14.1593 10.3649 14.136 10.3682 14.1132 10.3646C14.0905 10.361 14.0693 10.3506 14.0525 10.3349C14.0356 10.3192 14.0238 10.2989 14.0186 10.2764C14.0134 10.254 14.015 10.2305 14.0232 10.209C14.0365 10.1457 14.0692 10.0881 14.1168 10.0442C14.1643 10.0003 14.2243 9.97226 14.2885 9.96403C14.3006 9.96192 14.3129 9.96223 14.3248 9.96494C14.3367 9.96766 14.348 9.97272 14.3579 9.97983C14.5995 10.1492 14.3975 10.4788 14.2451 10.638C14.2197 10.6645 14.2072 10.6594 14.2067 10.6227C14.2067 10.5499 14.2767 10.4534 14.2547 10.3913C14.2532 10.3834 14.2499 10.3759 14.245 10.3695C14.2401 10.3631 14.2338 10.3579 14.2266 10.3544C14.2193 10.3509 14.2113 10.3491 14.2033 10.3492C14.1952 10.3494 14.1873 10.3514 14.1802 10.3552Z" fill="#1D1C1C"/>
<path d="M12.3967 11.1612C12.4111 11.1119 12.4366 11.0665 12.4712 11.0286C12.5182 10.9766 12.5402 10.9857 12.5372 11.0556C12.5222 11.4109 12.3549 11.6778 12.0355 11.8566C11.7645 12.0078 11.471 11.913 11.3192 11.6444C11.1499 11.3441 11.1713 10.9416 11.2955 10.6284C11.4027 10.3461 11.6494 10.0639 11.9672 10.0854C12.008 10.0877 12.0478 10.0997 12.0832 10.1203C12.1186 10.1409 12.1486 10.1695 12.1709 10.2039C12.4407 10.5922 11.8323 11.1635 11.5698 11.3689C11.4676 11.4496 11.4705 11.5269 11.5771 11.6009L11.6748 11.6686C11.7222 11.7045 11.7792 11.7254 11.8386 11.7285C11.898 11.7317 11.9569 11.7169 12.0078 11.6861C12.1929 11.5853 12.3226 11.4103 12.3967 11.1612ZM11.4281 11.256C11.4293 11.2605 11.4314 11.2648 11.4342 11.2685C11.437 11.2722 11.4405 11.2754 11.4446 11.2777C11.4486 11.2801 11.4531 11.2816 11.4577 11.2823C11.4623 11.2829 11.4671 11.2826 11.4716 11.2814C11.4768 11.2801 11.4816 11.2776 11.4857 11.2741C11.694 11.0946 12.1529 10.6385 12.0225 10.371C11.9649 10.2521 11.8731 10.2212 11.747 10.2784C11.4061 10.4319 11.3463 10.9309 11.4281 11.256Z" fill="#1D1C1C"/>
<path d="M10.2716 10.7362C10.2345 10.7486 10.2001 10.7677 10.17 10.7926C10.1333 10.8203 10.1039 10.8287 10.083 10.818C10.0473 10.8003 10.0422 10.7766 10.0678 10.7469C10.1807 10.6144 10.305 10.478 10.4409 10.3377C10.462 10.3154 10.4878 10.2982 10.5165 10.2874C10.523 10.2849 10.5302 10.2845 10.5369 10.2861C10.5437 10.2878 10.5498 10.2914 10.5545 10.2966C10.5592 10.3018 10.5621 10.3083 10.563 10.3153C10.5639 10.3222 10.5626 10.3292 10.5594 10.3354C10.5075 10.4353 10.4403 10.5307 10.4499 10.6464C10.4815 11.0317 10.512 11.4579 10.5413 11.9249C10.5462 12.0143 10.5701 12.1016 10.6113 12.1811C10.7039 12.3602 10.7882 12.5365 10.8642 12.71C10.8704 12.7225 10.8811 12.7323 10.8942 12.7374C10.9072 12.7425 10.9217 12.7426 10.9348 12.7377H10.9393L11.0776 12.662C11.0809 12.6601 11.0846 12.6589 11.0885 12.6584C11.0923 12.658 11.0962 12.6583 11.0999 12.6593C11.1037 12.6604 11.1072 12.6622 11.1102 12.6646C11.1132 12.667 11.1158 12.6699 11.1176 12.6733C11.1202 12.6784 11.1213 12.684 11.121 12.6897C11.1197 12.714 11.1099 12.7372 11.0934 12.7552C10.9549 12.9057 10.8142 13.0517 10.6712 13.1932C10.6621 13.2018 10.6501 13.2066 10.6376 13.2066C10.6251 13.2066 10.613 13.2018 10.604 13.1932C10.5975 13.1875 10.5934 13.1795 10.5925 13.1709C10.5917 13.1623 10.5942 13.1537 10.5995 13.1469C10.633 13.0913 10.6631 13.0338 10.6898 12.9747C10.6955 12.963 10.6985 12.9502 10.6985 12.9372C10.6985 12.9242 10.6955 12.9113 10.6898 12.8996L10.4008 12.2923C10.3871 12.2633 10.3661 12.2384 10.3398 12.2201L9.4994 11.6189C9.48399 11.6081 9.46541 11.6027 9.4466 11.6037C9.42779 11.6046 9.40982 11.6117 9.39554 11.624C9.36752 11.6527 9.33337 11.6747 9.29564 11.6884C9.19122 11.7047 9.17541 11.6743 9.2471 11.5969C9.36864 11.466 9.48378 11.3409 9.59253 11.2216C9.68924 11.1155 9.7248 11.133 9.69921 11.2741C9.68332 11.3066 9.66442 11.3376 9.64277 11.3666C9.63814 11.3726 9.63476 11.3794 9.63283 11.3867C9.63089 11.394 9.63043 11.4016 9.63148 11.4091C9.63253 11.4166 9.63507 11.4238 9.63895 11.4302C9.64283 11.4367 9.64797 11.4423 9.65406 11.4468L10.3579 11.9548C10.3621 11.9577 10.3672 11.959 10.3723 11.9583C10.3773 11.9575 10.3819 11.9549 10.385 11.9508C10.3875 11.947 10.3887 11.9424 10.3884 11.9378L10.3015 10.7525C10.3012 10.7494 10.3003 10.7464 10.2988 10.7436C10.2974 10.7408 10.2954 10.7384 10.293 10.7364C10.2905 10.7344 10.2878 10.7329 10.2848 10.732C10.2818 10.7311 10.2786 10.7308 10.2755 10.7311L10.2716 10.7362Z" fill="#1D1C1C"/>
<path d="M16.8607 19.6154C16.1004 19.6058 15.4919 18.933 15.5021 18.1117C15.5122 17.291 16.1365 16.6329 16.8968 16.6442C17.6571 16.6555 18.2656 17.3266 18.2554 18.1478C18.2452 18.9663 17.621 19.6244 16.8607 19.6154Z" fill="white"/>
<path d="M26.8124 19.6594C26.0505 19.6487 25.442 18.9748 25.4533 18.1546C25.4646 17.3345 26.0922 16.6775 26.8542 16.6871C27.6162 16.6967 28.2235 17.374 28.2122 18.1919C28.201 19.0098 27.5733 19.6713 26.8124 19.6594Z" fill="white"/>
<path d="M16.8297 24.9254C16.0689 24.9187 15.4576 24.2481 15.4649 23.4286C15.4722 22.6084 16.0948 21.9486 16.8557 21.9554C17.6165 21.9621 18.2278 22.6327 18.2205 23.4523C18.2131 24.2724 17.5906 24.9322 16.8297 24.9254Z" fill="white"/>
<circle cx="20" cy="20" r="19.5" stroke="black" stroke-opacity="0.05"/>
</svg>
