<svg width="40" height="40" viewBox="0 0 40 40" fill="none" xmlns="http://www.w3.org/2000/svg">
<circle cx="20" cy="20" r="20" fill="#DA251C"/>
<path d="M22.3712 18.3952C22.9404 19.2088 23.3528 20.1339 23.6085 21.172C23.737 21.6974 23.7172 22.2849 23.5534 22.7652C23.0859 24.1295 22.189 25.3399 20.8614 26.395C20.6721 26.4727 20.4278 26.628 20.1269 26.8611C20.1114 26.8738 20.0945 26.871 20.0775 26.854C20.0521 26.83 20.0521 26.8074 20.0775 26.7834C21.069 25.8456 22.0111 24.7877 22.0252 23.3612C22.0464 21.2087 20.8656 19.3528 19.5027 17.7851C17.6877 15.6962 15.5946 14.1369 13.226 13.1101C12.1766 12.6539 10.808 12.2132 9.11879 11.7867C8.79959 11.7062 8.50157 11.5889 8.17673 11.5508C7.94086 11.5226 7.94086 11.4971 8.17814 11.4774C8.45355 11.4533 8.71202 11.5522 8.98602 11.5791C11.9153 11.8587 14.8686 12.6016 17.4928 14.0225C18.2485 14.4307 18.9434 14.9038 19.5775 15.4405C20.432 16.1651 21.0916 16.8176 21.5534 17.3953C21.98 17.9306 22.2526 18.2639 22.3712 18.3952Z" fill="white"/>
<path d="M14.2458 14.7017H9.79673C9.77645 14.7017 9.76001 14.7181 9.76001 14.7384V26.5544C9.76001 26.5747 9.77645 26.5911 9.79673 26.5911H14.2458C14.266 26.5911 14.2825 26.5747 14.2825 26.5544V14.7384C14.2825 14.7181 14.266 14.7017 14.2458 14.7017Z" fill="white"/>
<path d="M20.8613 26.3948C22.189 25.3398 23.0858 24.1294 23.5533 22.765C23.7172 22.2848 23.7369 21.6972 23.6084 21.1718C23.3528 20.1337 22.9404 19.2086 22.3712 18.3951L23.7313 14.8895C23.7497 14.8429 23.7821 14.8203 23.8316 14.8203H27.5476C27.6196 14.8217 27.6846 14.8669 27.71 14.9347L31.9952 26.4316C32.0079 26.4683 31.9952 26.4866 31.957 26.4866L28.6266 26.4725C28.5532 26.4725 28.4882 26.4245 28.467 26.3553L25.9304 18.3866C25.7877 17.9375 25.6465 17.9389 25.5095 18.3894L23.0548 26.4287C23.0421 26.4711 23.0025 26.4993 22.9587 26.4979L20.8613 26.3948Z" fill="black"/>
<circle cx="20" cy="20" r="19.5" stroke="black" stroke-opacity="0.05"/>
</svg>
