<svg width="40" height="40" viewBox="0 0 40 40" fill="none" xmlns="http://www.w3.org/2000/svg">
<circle cx="20" cy="20" r="20" fill="#F6F8FA"/>
<g clip-path="url(#clip0_17752_43892)">
<path d="M28.4217 12.2214C26.7654 11.8719 24.3949 12.0694 21.1431 13.9081C22.2068 15.9442 23.0577 18.2539 23.5136 20.8827C23.6807 21.8248 23.7415 22.6606 23.7567 23.4356C23.8175 28.2981 21.1887 29.9544 20.125 30.4254C23.5592 29.696 28.3457 27.0369 30.0932 22.9189C30.0932 22.9189 30.0932 22.9189 30.0932 22.9037C31.6887 19.1353 31.2784 14.9413 28.4065 12.2214H28.4217Z" fill="url(#paint0_linear_17752_43892)"/>
<path d="M15.8094 21.3386C15.551 21.2019 15.3231 21.0499 15.08 20.9132C10.9316 18.4819 10.1567 15.7619 10.1567 14.0601C10.0503 14.6071 10.0047 15.1845 10.0503 15.7467C10.2023 17.5398 10.6277 20.5637 11.7674 23.6331C12.2233 24.864 12.6487 25.8821 13.059 26.7482C14.2746 29.2402 15.4599 30.2735 17.6936 30.6078C18.3318 30.7142 19.1827 30.6382 20.1097 30.4407C21.1733 29.9696 23.7869 28.3133 23.7413 23.4508C21.2037 23.3444 18.4989 22.7822 15.7942 21.3386H15.8094Z" fill="url(#paint1_linear_17752_43892)"/>
<path d="M23.8629 9.79017C21.69 9.22794 19.669 8.95443 17.8607 9.00001C14.8824 9.09118 12.512 10.0333 11.0532 11.9783C10.5973 12.6013 10.3086 13.3155 10.1719 14.0601C10.1719 15.762 10.9468 18.4819 15.08 20.9284C16.2652 18.2692 18.0431 15.686 21.1581 13.9233C24.3947 12.0847 26.7652 11.8871 28.4367 12.2366C27.3123 11.1578 25.8079 10.3068 23.8781 9.80537L23.8629 9.79017Z" fill="url(#paint2_linear_17752_43892)"/>
</g>
<circle cx="20" cy="20" r="19.5" stroke="black" stroke-opacity="0.05"/>
<defs>
<linearGradient id="paint0_linear_17752_43892" x1="26.3399" y1="13.2547" x2="25.2154" y2="27.8422" gradientUnits="userSpaceOnUse">
<stop offset="0.03" stop-color="#00709E"/>
<stop offset="1" stop-color="#009DDC"/>
</linearGradient>
<linearGradient id="paint1_linear_17752_43892" x1="23.5438" y1="22.4783" x2="8.36363" y2="22.2656" gradientUnits="userSpaceOnUse">
<stop offset="0.03" stop-color="#468E41"/>
<stop offset="1" stop-color="#5CB947"/>
</linearGradient>
<linearGradient id="paint2_linear_17752_43892" x1="10.1567" y1="14.9566" x2="28.4215" y2="14.9566" gradientUnits="userSpaceOnUse">
<stop offset="0.03" stop-color="#AD4D25"/>
<stop offset="1" stop-color="#F26A21"/>
</linearGradient>
<clipPath id="clip0_17752_43892">
<rect width="21" height="21.6534" fill="white" transform="translate(10.0352 9)"/>
</clipPath>
</defs>
</svg>
