<svg width="41" height="41" viewBox="0 0 41 41" fill="none" xmlns="http://www.w3.org/2000/svg">
<circle cx="20.4396" cy="20.366" r="20.366" fill="#0D2171"/>
<g clip-path="url(#clip0_22950_39944)">
<path d="M28.5304 24.7513C28.5304 26.685 27.0315 28.2506 25.1948 28.2506L15.5732 28.2319C13.7425 28.2257 12.2554 26.6538 12.2554 24.7201L12.2732 15.4509C12.2732 13.5173 13.7662 11.9516 15.6028 11.9516L25.2245 11.9703C27.0611 11.9703 28.5482 13.5422 28.5482 15.4821L28.5304 24.7513ZM27.0433 15.3886C27.0433 14.272 26.1783 13.3676 25.1178 13.3676L15.6206 13.3863C14.5601 13.3863 13.701 14.297 13.701 15.4135L13.7188 24.7139C13.7188 25.8304 14.5838 26.7349 15.6443 26.7349L25.1415 26.7162C26.202 26.7162 27.0611 25.8055 27.0611 24.6889L27.0433 15.3886Z" fill="white"/>
<path d="M21.901 16.7736C21.6818 16.7049 21.4389 16.7486 21.2434 16.8609C20.6272 17.2102 20.0288 17.4847 19.4364 17.6843C19.2112 17.7591 19.0868 18.0211 19.0868 18.2519C19.069 19.724 19.069 21.2148 19.0868 22.7243C19.0987 24.0155 18.5417 25.0634 17.2798 25.3504C16.9184 25.4315 16.4918 25.4502 16.006 25.4003C15.4728 25.3504 15.0107 25.0946 14.6078 24.6393C14.3115 24.3024 14.3412 23.8845 14.0449 23.5726C13.9679 23.4915 13.9738 23.4167 14.0568 23.3418C14.4952 22.9738 14.9218 22.9239 15.3365 23.1984C15.3721 23.2233 15.4017 23.2545 15.4195 23.2982C15.5972 23.7223 16.0001 24.1777 16.4918 24.0779C16.9895 23.9781 17.5642 23.6911 17.5642 23.0986C17.576 21.5142 17.576 19.961 17.576 18.4265C17.576 18.2332 17.4872 18.1084 17.3153 18.0523C16.6755 17.8527 16.2371 17.6531 15.9941 17.4535C15.615 17.1416 15.3543 16.811 15.2121 16.4617C15.0462 16.0625 14.7203 15.3015 14.8685 14.8461C14.8862 14.7962 14.9277 14.7526 14.9751 14.7463C15.3839 14.659 15.7749 14.659 16.1363 14.7463C16.1897 14.7588 16.2252 14.8025 16.2371 14.8524C16.3022 15.2017 16.3022 15.5759 16.5155 15.8753C17.0487 16.6301 18.0263 16.6987 18.7965 16.3993C19.6023 16.0874 20.3784 15.7319 21.1249 15.3264C21.3204 15.2204 21.5278 15.1331 21.7411 15.1019C22.3276 15.0208 22.9023 14.9397 23.4711 14.8461C24.0043 14.7588 24.5908 14.9334 25.13 15.0707C25.5862 15.183 26.0483 15.4761 26.5223 15.9377C26.6941 16.1061 26.7 16.287 26.54 16.4804C26.386 16.6675 26.226 16.8671 26.0661 17.0854C26.0305 17.1353 25.9594 17.1478 25.9061 17.1166C25.5506 16.8734 23.477 15.6445 23.477 16.8297C23.477 19.3123 23.477 21.9384 23.477 24.7141C23.477 25.0572 23.3111 25.2318 22.9852 25.2318H22.5527C22.2269 25.2318 22.061 25.0572 22.061 24.7141V17.0106C22.061 16.9046 21.9958 16.8048 21.901 16.7736Z" fill="white"/>
</g>
<circle cx="20.366" cy="20.634" r="19.866" stroke="black" stroke-opacity="0.05"/>
<defs>
<clipPath id="clip0_22950_39944">
<rect width="16" height="16" fill="white" transform="translate(12.2554 11.9516) scale(1.0183)"/>
</clipPath>
</defs>
</svg>
