<svg width="40" height="40" viewBox="0 0 40 40" fill="none" xmlns="http://www.w3.org/2000/svg">
<circle cx="20" cy="20" r="20" fill="black"/>
<path d="M10.1817 14.8662H8V21.4112H10.1817V14.8662Z" fill="white"/>
<path d="M27.6355 12.6841H10.1816V14.8658H27.6355V12.6841Z" fill="white"/>
<path d="M31.9995 14.8662H27.636V19.2297H31.9995V14.8662Z" fill="white"/>
<path d="M8.8201 23.3804H8.00439V27.7386H8.8201V23.3804Z" fill="white"/>
<path d="M17.6238 23.3804H16.8081V26.2756C16.8081 27.0918 17.47 27.754 18.2857 27.754H20.3943V26.9378H17.6238V23.3804Z" fill="white"/>
<path d="M23.7029 23.1489C22.3794 23.1489 21.2866 24.2269 21.2866 25.5667C21.2866 26.8911 22.3639 27.9845 23.7029 27.9845C25.0267 27.9845 26.1195 26.9065 26.1195 25.5667C26.1042 24.2269 25.0267 23.1489 23.7029 23.1489ZM23.7029 27.1529C22.8256 27.1529 22.1023 26.4292 22.1023 25.5513C22.1023 24.6735 22.8256 23.9497 23.7029 23.9497C24.5802 23.9497 25.3038 24.6735 25.3038 25.5513C25.2882 26.4445 24.5802 27.1529 23.7029 27.1529Z" fill="white"/>
<path d="M29.5835 23.1489C28.2598 23.1489 27.167 24.2269 27.167 25.5667C27.167 26.8911 28.2445 27.9845 29.5835 27.9845C30.907 27.9845 32.0001 26.9065 32.0001 25.5667C32.0001 24.2269 30.907 23.1489 29.5835 23.1489ZM29.5835 27.1529C28.7062 27.1529 27.9827 26.4292 27.9827 25.5513C27.9827 24.6735 28.7062 23.9497 29.5835 23.9497C30.4609 23.9497 31.1841 24.6735 31.1841 25.5513C31.1841 26.4445 30.4609 27.1529 29.5835 27.1529Z" fill="white"/>
<path d="M12.8063 25.2744V25.9674H14.3456C14.1607 26.645 13.5451 27.1532 12.8063 27.1532C11.929 27.1532 11.2058 26.4294 11.2058 25.5516C11.2058 24.6738 11.929 23.95 12.8063 23.95C13.2372 23.95 13.6376 24.1194 13.9299 24.412L14.4994 23.8422C14.0377 23.3802 13.4374 23.1338 12.7911 23.1338C11.4673 23.1338 10.3745 24.2118 10.3745 25.5516C10.3745 26.876 11.452 27.9694 12.7911 27.9694C14.1146 27.9694 15.2073 26.8914 15.2073 25.5516C15.2073 25.4592 15.2073 25.3668 15.1921 25.2744H12.8063Z" fill="white"/>
<circle cx="20" cy="20" r="19.5" stroke="black" stroke-opacity="0.05"/>
</svg>
