<svg width="40" height="40" viewBox="0 0 40 40" fill="none" xmlns="http://www.w3.org/2000/svg">
<circle cx="20" cy="20" r="20" fill="#1362C5"/>
<g clip-path="url(#clip0_17752_43634)">
<path d="M8.11295 21.9331L6.93337 20.8667C6.9259 20.8601 6.92069 20.8515 6.91836 20.8418C6.91603 20.8322 6.91668 20.822 6.92024 20.8124C6.92379 20.8028 6.93009 20.7942 6.93841 20.7876C6.94672 20.781 6.95669 20.7768 6.96713 20.7753C8.64449 20.5821 10.2841 20.2127 11.886 19.6673C12.9147 19.3158 13.7308 18.867 14.5966 18.1263C17.6151 15.5434 20.5495 12.9572 23.3998 10.3677C23.411 10.3578 23.4255 10.3523 23.4405 10.3523C23.4555 10.3523 23.4699 10.3578 23.4812 10.3677L25.8165 12.5203C25.8747 12.5733 25.8741 12.6255 25.8145 12.6772C24.3278 13.96 22.7967 15.3216 21.2213 16.762C20.3634 17.5457 19.5916 18.117 18.9059 18.4758C17.4642 19.229 15.9774 19.6891 14.4457 19.8559C12.2355 20.0962 10.0134 20.5073 8.30954 21.937C8.28211 21.9602 8.24711 21.9725 8.21099 21.9718C8.17487 21.9711 8.14005 21.9573 8.11295 21.9331Z" fill="white"/>
<path d="M12.3222 17.7351C10.811 19.0814 8.43201 19.8639 6.28931 20.1756C6.2165 20.1862 6.15229 20.1677 6.09669 20.12L5.71144 19.7864C5.68677 19.765 5.66693 19.7386 5.65322 19.7089C5.63951 19.6793 5.63223 19.647 5.63185 19.6142C5.63148 19.5814 5.63802 19.5488 5.65105 19.5186C5.66407 19.4884 5.6833 19.4613 5.70747 19.4389L15.4121 10.5365C15.4296 10.5208 15.4522 10.5122 15.4757 10.5122C15.4991 10.5122 15.5218 10.5208 15.5392 10.5365L17.8567 12.6931C17.8657 12.7013 17.8729 12.7114 17.8777 12.7226C17.8826 12.7339 17.885 12.746 17.8848 12.7584C17.8846 12.7707 17.8818 12.783 17.8766 12.7943C17.8715 12.8056 17.864 12.8158 17.8547 12.8241C15.9404 14.5174 14.0962 16.1544 12.3222 17.7351Z" fill="white"/>
<path d="M14.0562 20.6007C17.0508 20.3148 20.4128 19.7468 22.7561 17.8404C24.2772 16.6026 25.7765 15.2999 27.254 13.9323C27.2705 13.9171 27.2921 13.9087 27.3145 13.9087C27.337 13.9087 27.3586 13.9171 27.3751 13.9323L29.4403 15.8467C29.4672 15.8719 29.4837 15.9062 29.4862 15.9428C29.4888 15.9793 29.4774 16.0152 29.4542 16.0433C28.5606 17.1136 27.3552 18.1403 26.0466 18.6645C25.1113 19.0379 24.0429 19.0617 23.048 19.1908C21.0423 19.4489 19.2306 19.9176 17.6128 20.5967C16.9456 20.8774 16.2287 21.3375 15.4622 21.9769C14.2138 23.0214 13.0057 24.068 11.8381 25.1165C11.8097 25.1419 11.7729 25.1559 11.7348 25.1559C11.6967 25.1559 11.6599 25.1419 11.6315 25.1165L9.48885 23.1862C9.44649 23.1479 9.44516 23.1075 9.48488 23.0651C10.73 21.7366 12.2074 20.7755 14.0562 20.6007Z" fill="white"/>
<path d="M23.4629 19.8659C26.0743 19.5005 28.7353 19.0735 30.6397 17.0877C30.6622 17.0645 30.6929 17.0511 30.7252 17.0503C30.7576 17.0496 30.7889 17.0616 30.8124 17.0837L32.133 18.313C32.276 18.444 32.2508 18.5221 32.0575 18.5473C30.5337 18.7406 28.9206 19.1305 27.2181 19.7169C26.3457 20.0175 25.5864 20.3636 24.9404 20.7555C24.4214 21.0693 23.8085 21.5763 23.1015 22.2767C20.7384 24.6159 18.4573 26.8811 16.2584 29.0721C16.2266 29.1042 16.1836 29.1228 16.1384 29.1239C16.0933 29.125 16.0494 29.1086 16.0161 29.0781L13.4465 26.7567C13.4313 26.7428 13.4193 26.7259 13.411 26.7071C13.4027 26.6884 13.3984 26.6682 13.3984 26.6478C13.3984 26.6274 13.4027 26.6073 13.411 26.5887C13.4193 26.5702 13.4313 26.5537 13.4465 26.5402C14.7928 25.3328 16.1511 24.0771 17.5214 22.7731C18.317 22.0158 19.0498 21.4558 19.7197 21.0931C20.8847 20.4616 22.1324 20.0525 23.4629 19.8659Z" fill="white"/>
<path d="M25.8503 22.1019C27.566 20.3763 30.4375 19.3893 32.8483 19.1093C32.9132 19.1014 32.9741 19.1133 33.031 19.1451C33.1819 19.2298 33.3044 19.341 33.3984 19.4787C33.4279 19.5216 33.441 19.5738 33.4352 19.6256C33.4293 19.6774 33.405 19.7254 33.3666 19.7607L23.5189 28.6551C23.5026 28.6698 23.4814 28.6779 23.4594 28.6779C23.4374 28.6779 23.4162 28.6698 23.3998 28.6551L21.3921 26.8183C21.314 26.7468 21.312 26.6733 21.3862 26.5978C22.8332 25.1376 24.3212 23.639 25.8503 22.1019Z" fill="white"/>
</g>
<circle cx="20" cy="20" r="19.5" stroke="black" stroke-opacity="0.05"/>
<defs>
<clipPath id="clip0_17752_43634">
<rect width="28" height="19.0638" fill="white" transform="translate(5.53516 10.2051)"/>
</clipPath>
</defs>
</svg>
