<svg width="40" height="40" viewBox="0 0 40 40" fill="none" xmlns="http://www.w3.org/2000/svg">
<circle cx="20" cy="20" r="20" fill="#EB5C2E"/>
<path d="M7 19.4639V26.1149H9.24887V23.0538C10.0282 23.4318 10.9094 23.546 11.7594 23.3792C12.6094 23.2123 13.382 22.7734 13.9606 22.1287C14.5392 21.484 14.8923 20.6686 14.9666 19.8056C15.0409 18.9426 14.8323 18.0788 14.3725 17.3447C13.9126 16.6107 13.2264 16.0462 12.4174 15.7364C11.6085 15.4267 10.7207 15.3887 9.88821 15.628C9.0557 15.8672 8.32365 16.3709 7.80263 17.0629C7.2816 17.7549 6.99987 18.5977 7 19.4639ZM9.24887 19.4639C9.24887 19.1193 9.35106 18.7825 9.54252 18.496C9.73398 18.2096 10.0061 17.9863 10.3244 17.8546C10.6428 17.7228 10.9931 17.6884 11.331 17.7557C11.6689 17.823 11.9793 17.9891 12.2228 18.2328C12.4663 18.4766 12.6321 18.7871 12.6991 19.125C12.7661 19.463 12.7314 19.8133 12.5994 20.1315C12.4673 20.4497 12.2438 20.7216 11.9572 20.9128C11.6705 21.1041 11.3336 21.2059 10.9891 21.2056C10.5274 21.2052 10.0848 21.0215 9.75848 20.6949C9.43217 20.3683 9.24887 19.9256 9.24887 19.4639Z" fill="white"/>
<path d="M29.0092 15.4736C27.9512 15.4749 26.9369 15.8957 26.1887 16.6438C25.4406 17.3919 25.0198 18.4063 25.0186 19.4643V23.4549H27.2674V19.4643C27.2809 19.0115 27.4702 18.5818 27.7953 18.2663C28.1203 17.9508 28.5554 17.7743 29.0084 17.7743C29.4614 17.7743 29.8965 17.9508 30.2216 18.2663C30.5466 18.5818 30.7359 19.0115 30.7494 19.4643V23.4549H32.9998V19.4643C32.9982 18.4064 32.5772 17.3923 31.8292 16.6443C31.0812 15.8962 30.0671 15.4753 29.0092 15.4736Z" fill="white"/>
<path d="M15.991 19.4641C15.9806 18.9335 16.0761 18.4062 16.2719 17.913C16.4677 17.4198 16.7599 16.9706 17.1315 16.5917C17.503 16.2128 17.9464 15.9118 18.4356 15.7063C18.9249 15.5009 19.4502 15.395 19.9809 15.395C20.5115 15.395 21.0369 15.5009 21.5261 15.7063C22.0154 15.9118 22.4587 16.2128 22.8303 16.5917C23.2018 16.9706 23.494 17.4198 23.6898 17.913C23.8857 18.4062 23.9812 18.9335 23.9707 19.4641V23.4547H21.7234V23.054C21.1807 23.318 20.5851 23.455 19.9816 23.4547C19.8305 23.4603 19.6797 23.4354 19.5384 23.3814C19.3971 23.3274 19.2681 23.2455 19.1592 23.1405C19.0503 23.0355 18.9637 22.9097 18.9045 22.7705C18.8453 22.6313 18.8148 22.4815 18.8148 22.3303C18.8148 22.179 18.8453 22.0293 18.9045 21.8901C18.9637 21.7509 19.0503 21.625 19.1592 21.52C19.2681 21.4151 19.3971 21.3332 19.5384 21.2792C19.6797 21.2252 19.8305 21.2002 19.9816 21.2058C20.3261 21.2058 20.6629 21.1037 20.9493 20.9123C21.2357 20.7209 21.459 20.4489 21.5908 20.1306C21.7226 19.8124 21.7571 19.4621 21.6899 19.1243C21.6227 18.7864 21.4568 18.4761 21.2132 18.2325C20.9697 17.9889 20.6593 17.823 20.3214 17.7558C19.9836 17.6886 19.6334 17.7231 19.3151 17.8549C18.9968 17.9867 18.7248 18.21 18.5334 18.4964C18.342 18.7828 18.2399 19.1196 18.2399 19.4641C18.2394 19.7634 18.3169 20.0578 18.4649 20.318C18.5333 20.4497 18.5748 20.5937 18.5872 20.7415C18.5996 20.8894 18.5826 21.0383 18.5372 21.1796C18.4917 21.3208 18.4188 21.4517 18.3225 21.5646C18.2262 21.6775 18.1085 21.7702 17.9762 21.8374C17.8439 21.9046 17.6995 21.9449 17.5516 21.956C17.4036 21.9671 17.2549 21.9488 17.114 21.9021C16.9732 21.8554 16.8429 21.7813 16.7309 21.684C16.6188 21.5867 16.5271 21.4682 16.4611 21.3353C16.1525 20.7599 15.991 20.117 15.991 19.4641Z" fill="white"/>
<circle cx="20" cy="20" r="19.5" stroke="black" stroke-opacity="0.05"/>
</svg>
