<svg width="40" height="40" viewBox="0 0 40 40" fill="none" xmlns="http://www.w3.org/2000/svg">
<circle cx="20" cy="20" r="20" fill="black"/>
<path d="M21.1028 18.4016L22.0731 19.0214C22.0753 19.0229 22.0772 19.0247 22.0786 19.027C22.08 19.0292 22.0809 19.0317 22.0812 19.0342C22.0815 19.0368 22.0813 19.0395 22.0805 19.042C22.0797 19.0445 22.0784 19.0467 22.0766 19.0487L21.5048 19.6373C21.5019 19.6402 21.4981 19.642 21.4939 19.6425C21.4898 19.6429 21.4857 19.6419 21.4822 19.6396L19.7605 18.5076C19.7575 18.5057 19.7541 18.5046 19.7506 18.5046C19.7471 18.5046 19.7437 18.5057 19.7408 18.5076L18.0259 19.6384C18.0224 19.6406 18.0182 19.6415 18.0141 19.641C18.01 19.6405 18.0062 19.6385 18.0033 19.6355L17.4344 19.0469C17.4327 19.045 17.4313 19.0427 17.4306 19.0402C17.4298 19.0377 17.4295 19.0351 17.4299 19.0325C17.4302 19.0299 17.4311 19.0274 17.4325 19.0252C17.4339 19.023 17.4357 19.0211 17.4379 19.0197L18.4048 18.3981C18.4081 18.396 18.4106 18.3929 18.4119 18.3892C18.4132 18.3856 18.4134 18.3816 18.4122 18.3779C18.4111 18.3742 18.4089 18.3709 18.4057 18.3686C18.4026 18.3663 18.3988 18.365 18.395 18.3651L17.442 18.3743C17.4372 18.3743 17.4326 18.3724 17.4293 18.3691C17.4259 18.3657 17.424 18.3611 17.424 18.3564L17.4229 17.6096C17.4229 17.6048 17.4247 17.6003 17.4281 17.5969C17.4315 17.5935 17.436 17.5916 17.4408 17.5916L19.2257 17.5911C19.2281 17.5911 19.2305 17.5906 19.2327 17.5896C19.235 17.5887 19.237 17.5873 19.2386 17.5856C19.2403 17.5839 19.2416 17.5818 19.2425 17.5796C19.2434 17.5773 19.2438 17.5749 19.2437 17.5725L19.2356 17.229C19.2355 17.2266 19.2359 17.2242 19.2368 17.2219C19.2376 17.2197 19.239 17.2176 19.2406 17.2159C19.2423 17.2142 19.2443 17.2128 19.2465 17.2119C19.2487 17.2109 19.2511 17.2104 19.2535 17.2104H20.2535C20.2582 17.2104 20.2628 17.2123 20.2662 17.2157C20.2695 17.2191 20.2714 17.2236 20.2714 17.2284V17.5737C20.2714 17.5785 20.2733 17.583 20.2767 17.5864C20.2801 17.5898 20.2846 17.5916 20.2894 17.5916L22.0552 17.5911C22.0599 17.5911 22.0645 17.593 22.0679 17.5963C22.0712 17.5997 22.0731 17.6043 22.0731 17.609L22.072 18.3564C22.072 18.3611 22.0701 18.3657 22.0667 18.3691C22.0634 18.3724 22.0588 18.3743 22.054 18.3743L21.1126 18.3685C21.1087 18.3685 21.105 18.3698 21.1018 18.3721C21.0987 18.3744 21.0964 18.3776 21.0953 18.3814C21.0942 18.3851 21.0943 18.3891 21.0957 18.3927C21.097 18.3963 21.0995 18.3994 21.1028 18.4016Z" fill="white"/>
<path d="M23.4931 18.2828L23.0192 18.2845C23.0125 18.2845 23.006 18.2818 23.0012 18.277C22.9964 18.2722 22.9937 18.2658 22.9937 18.259L22.9943 17.5453C22.9943 17.5385 22.997 17.532 23.0018 17.5272C23.0066 17.5225 23.0131 17.5198 23.0198 17.5198H26.5456C26.5524 17.5198 26.5589 17.5225 26.5636 17.5272C26.5684 17.532 26.5711 17.5385 26.5711 17.5453L26.5717 18.2584C26.5717 18.2652 26.569 18.2717 26.5642 18.2764C26.5594 18.2812 26.553 18.2839 26.5462 18.2839L26.0816 18.2822C26.0748 18.2822 26.0683 18.2849 26.0636 18.2896C26.0588 18.2944 26.0561 18.3009 26.0561 18.3077V20.0312C26.0561 20.0379 26.0588 20.0444 26.0636 20.0492C26.0683 20.054 26.0748 20.0567 26.0816 20.0567L26.5688 20.0555C26.5756 20.0555 26.582 20.0582 26.5868 20.063C26.5916 20.0678 26.5943 20.0742 26.5943 20.081L26.5949 20.7976C26.5949 20.8044 26.5922 20.8109 26.5874 20.8157C26.5826 20.8204 26.5761 20.8231 26.5694 20.8231L23.0187 20.8243C23.0119 20.8243 23.0054 20.8216 23.0006 20.8168C22.9958 20.812 22.9932 20.8055 22.9932 20.7988L22.9943 20.0833C22.9943 20.0766 22.997 20.0701 23.0018 20.0653C23.0066 20.0605 23.0131 20.0578 23.0198 20.0578L23.4925 20.0555C23.4993 20.0555 23.5058 20.0528 23.5106 20.048C23.5154 20.0433 23.518 20.0368 23.518 20.03L23.5186 18.3082C23.5186 18.3015 23.5159 18.295 23.5112 18.2902C23.5064 18.2854 23.4999 18.2828 23.4931 18.2828ZM25.1529 18.3077C25.1529 18.3045 25.1523 18.3013 25.1511 18.2984C25.1498 18.2954 25.148 18.2927 25.1458 18.2905C25.1435 18.2882 25.1408 18.2864 25.1379 18.2852C25.1349 18.284 25.1318 18.2833 25.1286 18.2833H24.4415C24.4383 18.2833 24.4351 18.284 24.4322 18.2852C24.4292 18.2864 24.4265 18.2882 24.4243 18.2905C24.422 18.2927 24.4202 18.2954 24.419 18.2984C24.4178 18.3013 24.4172 18.3045 24.4172 18.3077V20.0318C24.4172 20.0382 24.4197 20.0444 24.4243 20.049C24.4288 20.0535 24.435 20.0561 24.4415 20.0561H25.1286C25.1318 20.0561 25.1349 20.0555 25.1379 20.0542C25.1408 20.053 25.1435 20.0512 25.1458 20.049C25.148 20.0467 25.1498 20.044 25.1511 20.0411C25.1523 20.0381 25.1529 20.035 25.1529 20.0318V18.3077Z" fill="white"/>
<path d="M29.6074 21.0231L28.7564 20.6911C28.7528 20.6898 28.7496 20.6876 28.747 20.6849C28.7444 20.6821 28.7425 20.6788 28.7413 20.6751C28.7402 20.6715 28.7399 20.6676 28.7405 20.6639C28.7411 20.6601 28.7426 20.6566 28.7448 20.6534L30.8379 17.5726C30.8402 17.5691 30.8433 17.5663 30.8469 17.5643C30.8505 17.5623 30.8546 17.5613 30.8588 17.5613C30.8629 17.5613 30.867 17.5623 30.8706 17.5643C30.8743 17.5663 30.8773 17.5691 30.8796 17.5726L32.9785 20.6529C32.9806 20.656 32.982 20.6595 32.9825 20.6632C32.983 20.6669 32.9827 20.6706 32.9816 20.6742C32.9805 20.6777 32.9786 20.681 32.9761 20.6837C32.9735 20.6865 32.9704 20.6886 32.9669 20.6899L32.1101 21.0294C32.1049 21.0315 32.0992 21.0318 32.0938 21.0302C32.0885 21.0286 32.0838 21.0253 32.0806 21.0207L30.879 19.2544C30.8767 19.251 30.8737 19.2483 30.8701 19.2464C30.8665 19.2445 30.8625 19.2435 30.8585 19.2435C30.8544 19.2435 30.8504 19.2445 30.8468 19.2464C30.8433 19.2483 30.8402 19.251 30.8379 19.2544L29.6369 21.0138C29.6338 21.0184 29.6292 21.0219 29.6238 21.0236C29.6184 21.0253 29.6127 21.0251 29.6074 21.0231Z" fill="white"/>
<path d="M5.68524 20.4055L5.00858 19.8436C5.00368 19.8394 5.00063 19.8335 5.00009 19.8271C4.99954 19.8207 5.00156 19.8143 5.00569 19.8094L6.81204 17.6236C6.81432 17.6209 6.81717 17.6187 6.82037 17.6172C6.82357 17.6158 6.82705 17.615 6.83058 17.615C6.83411 17.615 6.83759 17.6158 6.84079 17.6172C6.84399 17.6187 6.84683 17.6209 6.84912 17.6236L8.59117 19.7184C8.59509 19.7231 8.59709 19.7292 8.59677 19.7353C8.59645 19.7414 8.59383 19.7472 8.58943 19.7514L7.97418 20.3366C7.97174 20.3389 7.96884 20.3407 7.96566 20.3419C7.96248 20.3431 7.95909 20.3436 7.95571 20.3434C7.95233 20.3431 7.94903 20.3422 7.94602 20.3406C7.94302 20.3391 7.94037 20.3369 7.93826 20.3343L6.83348 18.967C6.83116 18.9642 6.82822 18.9619 6.82488 18.9603C6.82154 18.9588 6.8179 18.958 6.81422 18.958C6.81054 18.9581 6.80692 18.959 6.80363 18.9606C6.80034 18.9623 6.79747 18.9647 6.79524 18.9676L5.72 20.4015C5.71802 20.4041 5.71554 20.4062 5.7127 20.4078C5.70986 20.4095 5.70673 20.4105 5.70348 20.4109C5.70024 20.4112 5.69695 20.411 5.69382 20.41C5.69068 20.4091 5.68777 20.4076 5.68524 20.4055Z" fill="white"/>
<path d="M11.8169 20.4077L11.1437 19.8412C11.1387 19.837 11.1355 19.831 11.1349 19.8245C11.1342 19.818 11.1362 19.8115 11.1403 19.8064L12.9426 17.6241C12.9449 17.6213 12.9478 17.619 12.9511 17.6175C12.9544 17.6159 12.958 17.6151 12.9617 17.6151C12.9653 17.6151 12.9689 17.6159 12.9722 17.6175C12.9755 17.619 12.9785 17.6213 12.9808 17.6241L14.7223 19.7166C14.7264 19.7214 14.7285 19.7277 14.7282 19.734C14.7279 19.7404 14.7251 19.7464 14.7205 19.7508L14.1076 20.3376C14.1051 20.34 14.1022 20.3418 14.0989 20.343C14.0957 20.3442 14.0923 20.3447 14.0888 20.3445C14.0854 20.3442 14.0821 20.3433 14.079 20.3417C14.076 20.3402 14.0733 20.338 14.0711 20.3353L12.9594 18.9664C12.957 18.9634 12.954 18.961 12.9505 18.9594C12.9471 18.9577 12.9433 18.9569 12.9395 18.957C12.9357 18.957 12.932 18.958 12.9286 18.9597C12.9252 18.9614 12.9223 18.9639 12.92 18.9669L11.8528 20.4031C11.8508 20.4058 11.8483 20.4082 11.8454 20.4099C11.8425 20.4116 11.8392 20.4127 11.8359 20.4132C11.8325 20.4136 11.8291 20.4133 11.8258 20.4124C11.8226 20.4115 11.8195 20.4099 11.8169 20.4077Z" fill="white"/>
<path d="M34.4226 19.3082V23.447C34.4226 23.4534 34.4201 23.4596 34.4155 23.4642C34.4109 23.4687 34.4047 23.4713 34.3983 23.4713H33.4169C33.4105 23.4713 33.4043 23.4687 33.3997 23.4642C33.3951 23.4596 33.3926 23.4534 33.3926 23.447L33.3932 17.6444C33.3932 17.6379 33.3957 17.6317 33.4003 17.6272C33.4048 17.6226 33.411 17.6201 33.4175 17.6201L34.3977 17.6189C34.4042 17.6189 34.4104 17.6215 34.4149 17.626C34.4195 17.6306 34.4221 17.6368 34.4221 17.6432V18.4792C34.4221 18.4857 34.4246 18.4918 34.4292 18.4964C34.4337 18.501 34.4399 18.5035 34.4464 18.5035H34.9753C34.9818 18.5035 34.988 18.5061 34.9925 18.5107C34.9971 18.5152 34.9996 18.5214 34.9996 18.5279V19.2613C34.9996 19.2678 34.9971 19.2739 34.9925 19.2785C34.988 19.2831 34.9818 19.2856 34.9753 19.2856L34.447 19.2839C34.4405 19.2839 34.4343 19.2865 34.4298 19.291C34.4252 19.2956 34.4226 19.3018 34.4226 19.3082Z" fill="white"/>
<path d="M10.354 18.3547L10.8882 18.3529C10.8939 18.3529 10.8993 18.3552 10.9033 18.3592C10.9074 18.3632 10.9096 18.3687 10.9096 18.3744L10.9137 19.1061C10.9137 19.1118 10.9114 19.1172 10.9074 19.1212C10.9034 19.1253 10.8979 19.1275 10.8922 19.1275H10.3523C10.3466 19.1275 10.3412 19.1298 10.3371 19.1338C10.3331 19.1378 10.3309 19.1433 10.3309 19.1489L10.3367 20.2925C10.3367 20.2982 10.3344 20.3037 10.3304 20.3077C10.3264 20.3117 10.3209 20.314 10.3152 20.314L9.32573 20.3175C9.32004 20.3175 9.31459 20.3152 9.31057 20.3112C9.30655 20.3072 9.30429 20.3017 9.30429 20.296L9.30371 17.6821C9.30371 17.6764 9.30597 17.6709 9.30999 17.6669C9.31401 17.6629 9.31946 17.6606 9.32515 17.6606L10.3117 17.6641C10.3174 17.6641 10.3229 17.6664 10.3269 17.6704C10.3309 17.6744 10.3332 17.6799 10.3332 17.6856L10.3326 18.3332C10.3326 18.3389 10.3349 18.3444 10.3389 18.3484C10.3429 18.3524 10.3484 18.3547 10.354 18.3547Z" fill="white"/>
<path d="M28.2309 19.3545L28.2298 21.1736C28.2298 21.1807 28.227 21.1875 28.222 21.1925C28.217 21.1975 28.2102 21.2003 28.2031 21.2003L27.22 21.1997C27.2129 21.1997 27.2062 21.1969 27.2012 21.1919C27.1962 21.1869 27.1934 21.1801 27.1934 21.1731V17.6861C27.1934 17.679 27.1962 17.6722 27.2012 17.6672C27.2062 17.6622 27.2129 17.6594 27.22 17.6594L28.2037 17.6629C28.2108 17.6629 28.2176 17.6657 28.2226 17.6707C28.2276 17.6757 28.2304 17.6825 28.2304 17.6895V18.5232C28.2304 18.5303 28.2332 18.5371 28.2382 18.5421C28.2432 18.547 28.2499 18.5499 28.257 18.5499L28.783 18.5493C28.7901 18.5493 28.7969 18.5521 28.8019 18.5571C28.8069 18.5621 28.8097 18.5689 28.8097 18.5759L28.8062 19.3007C28.8062 19.3042 28.8055 19.3076 28.8042 19.3109C28.8028 19.3141 28.8009 19.317 28.7984 19.3195C28.7959 19.322 28.793 19.324 28.7898 19.3253C28.7865 19.3266 28.7831 19.3273 28.7796 19.3273L28.2576 19.3279C28.2505 19.3279 28.2437 19.3307 28.2387 19.3357C28.2337 19.3407 28.2309 19.3475 28.2309 19.3545Z" fill="white"/>
<path d="M15.3112 19.1257L14.7794 19.1303C14.7726 19.1303 14.7662 19.1276 14.7614 19.1229C14.7566 19.1181 14.7539 19.1116 14.7539 19.1048V18.3726C14.7539 18.3692 14.7546 18.3658 14.7559 18.3627C14.7572 18.3595 14.7591 18.3567 14.7616 18.3543C14.764 18.3519 14.7669 18.3501 14.77 18.3488C14.7732 18.3476 14.7766 18.347 14.78 18.3471L15.3095 18.3569C15.3129 18.357 15.3163 18.3564 15.3194 18.3551C15.3226 18.3539 15.3255 18.352 15.3279 18.3497C15.3303 18.3473 15.3322 18.3444 15.3336 18.3413C15.3349 18.3382 15.3356 18.3348 15.3356 18.3314L15.3367 17.6866C15.3367 17.6799 15.3394 17.6734 15.3442 17.6686C15.349 17.6638 15.3554 17.6611 15.3622 17.6611L16.3465 17.6629C16.3532 17.6629 16.3597 17.6656 16.3645 17.6703C16.3693 17.6751 16.372 17.6816 16.372 17.6884V20.2896C16.372 20.2963 16.3693 20.3028 16.3645 20.3076C16.3597 20.3124 16.3532 20.315 16.3465 20.315L15.361 20.3156C15.3543 20.3156 15.3478 20.3129 15.343 20.3082C15.3382 20.3034 15.3356 20.2969 15.3356 20.2901L15.3367 19.1512C15.3367 19.1444 15.334 19.1379 15.3292 19.1331C15.3245 19.1284 15.318 19.1257 15.3112 19.1257Z" fill="white"/>
<path d="M25.1284 18.2833H24.4413C24.4279 18.2833 24.417 18.2942 24.417 18.3077V20.0317C24.417 20.0452 24.4279 20.0561 24.4413 20.0561H25.1284C25.1418 20.0561 25.1527 20.0452 25.1527 20.0317V18.3077C25.1527 18.2942 25.1418 18.2833 25.1284 18.2833Z" fill="black"/>
<path d="M21.0276 21.4169L17.5087 21.4163C17.5034 21.4163 17.4982 21.4142 17.4944 21.4104C17.4906 21.4066 17.4885 21.4015 17.4885 21.3961L17.4896 20.7976C17.4896 20.7922 17.4918 20.7871 17.4956 20.7833C17.4994 20.7795 17.5045 20.7773 17.5099 20.7773L19.2404 20.7791C19.243 20.7791 19.2457 20.7786 19.2481 20.7775C19.2506 20.7765 19.2528 20.775 19.2547 20.7731C19.2566 20.7713 19.2581 20.769 19.2591 20.7666C19.2601 20.7641 19.2606 20.7615 19.2606 20.7588L19.2618 20.4935C19.2618 20.4881 19.2597 20.4829 19.2558 20.4791C19.252 20.4753 19.2469 20.4732 19.2415 20.4732H17.1472C17.1419 20.4732 17.1367 20.4711 17.1329 20.4673C17.1291 20.4635 17.127 20.4583 17.127 20.4529L17.1281 19.7838C17.1281 19.7784 17.1302 19.7733 17.1341 19.7695C17.1379 19.7657 17.143 19.7635 17.1484 19.7635L22.3508 19.7629C22.3562 19.7629 22.3613 19.7651 22.3651 19.7689C22.3689 19.7727 22.3711 19.7778 22.3711 19.7832L22.3751 20.4529C22.3751 20.4583 22.373 20.4635 22.3692 20.4673C22.3654 20.4711 22.3602 20.4732 22.3548 20.4732H20.304C20.2986 20.4732 20.2935 20.4753 20.2897 20.4791C20.2859 20.4829 20.2837 20.4881 20.2837 20.4935L20.2866 20.7582C20.2866 20.7636 20.2888 20.7688 20.2926 20.7726C20.2964 20.7764 20.3015 20.7785 20.3069 20.7785L21.9754 20.7791C21.9808 20.7791 21.9859 20.7812 21.9897 20.785C21.9935 20.7888 21.9957 20.794 21.9957 20.7994L21.9951 22.2958C21.9951 22.3012 21.9929 22.3063 21.9891 22.3101C21.9853 22.3139 21.9802 22.3161 21.9748 22.3161L18.5411 22.3149C18.5384 22.3149 18.5358 22.3154 18.5333 22.3164C18.5309 22.3175 18.5286 22.3189 18.5268 22.3208C18.5249 22.3227 18.5234 22.3249 18.5224 22.3274C18.5213 22.3299 18.5208 22.3325 18.5208 22.3352L18.5202 22.5368C18.5202 22.5422 18.5224 22.5473 18.5262 22.5511C18.53 22.5549 18.5351 22.5571 18.5405 22.5571L21.9754 22.5565C21.9808 22.5565 21.9859 22.5586 21.9897 22.5624C21.9935 22.5662 21.9957 22.5714 21.9957 22.5768V23.2476C21.9957 23.253 21.9935 23.2582 21.9897 23.262C21.9859 23.2658 21.9808 23.2679 21.9754 23.2679H17.5099C17.5045 23.2679 17.4994 23.2658 17.4956 23.262C17.4918 23.2582 17.4896 23.253 17.4896 23.2476L17.489 21.6869C17.489 21.6815 17.4912 21.6764 17.495 21.6726C17.4988 21.6688 17.5039 21.6666 17.5093 21.6666L21.0259 21.6684C21.0312 21.6684 21.0364 21.6662 21.0402 21.6624C21.044 21.6586 21.0461 21.6535 21.0461 21.6481L21.0479 21.4372C21.0479 21.4318 21.0457 21.4267 21.0419 21.4229C21.0381 21.4191 21.033 21.4169 21.0276 21.4169Z" fill="white"/>
<path d="M16.2181 22.8554C15.7245 23.5807 14.8833 23.6091 14.0966 23.6062C13.8814 23.6054 13.6534 23.6008 13.4124 23.5923C12.7502 23.5691 12.0585 23.3467 11.7485 22.7059C11.4902 22.1726 11.5747 21.6703 12.0023 21.1991C12.3215 20.8469 12.8209 20.7038 13.2942 20.6742C13.9774 20.6317 14.5623 20.6441 15.049 20.7113C15.5179 20.7762 15.8861 20.9774 16.1538 21.315C16.5234 21.7819 16.5581 22.356 16.2181 22.8554ZM12.7716 21.8897C12.5451 22.3207 12.9715 22.7117 13.3649 22.7807C13.804 22.8571 14.2532 22.8556 14.7124 22.776C15.1365 22.703 15.5675 22.2257 15.221 21.7935C15.0828 21.6205 14.9036 21.5146 14.6834 21.476C14.4262 21.4312 14.1174 21.4167 13.7571 21.4326C13.3637 21.4494 12.9622 21.527 12.7716 21.8897Z" fill="white"/>
<path d="M10.0924 23.265C10.0924 23.2723 10.0895 23.2792 10.0844 23.2843C10.0793 23.2894 10.0724 23.2923 10.0652 23.2923H6.04578C6.03856 23.2923 6.03164 23.2894 6.02653 23.2843C6.02142 23.2792 6.01855 23.2723 6.01855 23.265V20.8921C6.01855 20.8849 6.02142 20.8779 6.02653 20.8728C6.03164 20.8677 6.03856 20.8649 6.04578 20.8649H10.0652C10.0724 20.8649 10.0793 20.8677 10.0844 20.8728C10.0895 20.8779 10.0924 20.8849 10.0924 20.8921V23.265ZM9.07511 21.6557C9.07511 21.6495 9.07266 21.6436 9.06832 21.6393C9.06397 21.6349 9.05808 21.6325 9.05193 21.6325H7.07178C7.06563 21.6325 7.05974 21.6349 7.05539 21.6393C7.05105 21.6436 7.04861 21.6495 7.04861 21.6557V22.4922C7.04861 22.4984 7.05105 22.5042 7.05539 22.5086C7.05974 22.5129 7.06563 22.5154 7.07178 22.5154H9.05193C9.05808 22.5154 9.06397 22.5129 9.06832 22.5086C9.07266 22.5042 9.07511 22.4984 9.07511 22.4922V21.6557Z" fill="white"/>
<path d="M24.5264 22.6764L28.2017 22.6753C28.2084 22.6753 28.2149 22.678 28.2197 22.6828C28.2245 22.6875 28.2272 22.694 28.2272 22.7008L28.2312 23.4203C28.2312 23.4271 28.2285 23.4336 28.2238 23.4383C28.219 23.4431 28.2125 23.4458 28.2057 23.4458L23.5114 23.4446C23.5047 23.4446 23.4982 23.442 23.4934 23.4372C23.4886 23.4324 23.4859 23.4259 23.4859 23.4192L23.4854 21.4344C23.4854 21.4276 23.488 21.4211 23.4928 21.4163C23.4976 21.4116 23.5041 21.4089 23.5108 21.4089L24.476 21.4077C24.4828 21.4077 24.4893 21.4104 24.494 21.4152C24.4988 21.42 24.5015 21.4264 24.5015 21.4332L24.5009 22.651C24.5009 22.6577 24.5036 22.6642 24.5084 22.669C24.5132 22.6738 24.5196 22.6764 24.5264 22.6764Z" fill="white"/>
<path d="M12.7721 21.8897C12.9627 21.527 13.3642 21.4494 13.7576 21.4326C14.1179 21.4168 14.4267 21.4312 14.6839 21.476C14.904 21.5147 15.0833 21.6205 15.2215 21.7935C15.568 22.2257 15.1369 22.7031 14.7129 22.7761C14.2537 22.8556 13.8045 22.8572 13.3653 22.7807C12.972 22.7118 12.5456 22.3207 12.7721 21.8897Z" fill="black"/>
<path d="M9.05216 21.6324H7.072C7.0592 21.6324 7.04883 21.6428 7.04883 21.6556V22.4922C7.04883 22.505 7.0592 22.5153 7.072 22.5153H9.05216C9.06495 22.5153 9.07533 22.505 9.07533 22.4922V21.6556C9.07533 21.6428 9.06495 21.6324 9.05216 21.6324Z" fill="black"/>
<circle cx="20" cy="20" r="19.5" stroke="black" stroke-opacity="0.05"/>
</svg>
