<svg width="40" height="40" viewBox="0 0 40 40" fill="none" xmlns="http://www.w3.org/2000/svg">
<circle cx="20" cy="20" r="20" fill="#55B954"/>
<circle cx="20" cy="20" r="19.5" stroke="black" stroke-opacity="0.05"/>
<ellipse cx="14.5371" cy="25.082" rx="4.53708" ry="4.5371" fill="white"/>
<path fill-rule="evenodd" clip-rule="evenodd" d="M25.3595 19.0742C27.8652 19.0742 29.8965 17.0429 29.8965 14.5371C29.8965 12.0313 27.8652 10 25.3595 10C22.8537 10 20.8224 12.0313 20.8224 14.5371C20.8224 17.0429 22.8537 19.0742 25.3595 19.0742ZM25.3317 17.215C26.826 17.215 28.0373 16.0036 28.0373 14.5093C28.0373 13.0151 26.826 11.8037 25.3317 11.8037C23.8375 11.8037 22.6261 13.0151 22.6261 14.5093C22.6261 16.0036 23.8375 17.215 25.3317 17.215Z" fill="white"/>
<path fill-rule="evenodd" clip-rule="evenodd" d="M14.5371 19.0742C17.0428 19.0742 19.0742 17.0429 19.0742 14.5371C19.0742 12.0313 17.0428 10 14.5371 10C12.0313 10 10 12.0313 10 14.5371C10 17.0429 12.0313 19.0742 14.5371 19.0742ZM14.5371 18.4538C16.7002 18.4538 18.4537 16.7002 18.4537 14.5371C18.4537 12.3739 16.7002 10.6204 14.5371 10.6204C12.374 10.6204 10.6204 12.3739 10.6204 14.5371C10.6204 16.7002 12.374 18.4538 14.5371 18.4538Z" fill="white"/>
<path d="M25.1434 29.8415C24.9785 29.8178 24.8129 29.7972 24.6485 29.7701C24.0689 29.6745 23.5235 29.4813 23.0221 29.1748C22.1867 28.6644 21.5631 27.9634 21.1698 27.0651C20.7959 26.2117 20.6898 25.3233 20.8452 24.4041C20.9632 23.706 21.2331 23.0723 21.6457 22.498C22.224 21.6934 22.9875 21.1353 23.9163 20.8024C24.333 20.6531 24.7657 20.5819 25.2091 20.5626C25.7156 20.5404 26.2124 20.5934 26.6974 20.7357C27.4281 20.9502 28.0715 21.321 28.6211 21.8502C29.2654 22.4705 29.6937 23.2169 29.9179 24.0816C29.9235 24.1028 29.928 24.1244 29.9319 24.146C29.9335 24.1545 29.9322 24.1634 29.9322 24.1821C29.8993 24.1857 29.8661 24.1924 29.833 24.1924C28.9126 24.193 27.9924 24.191 27.072 24.1957C26.9741 24.1963 26.9332 24.1454 26.8829 24.0817C26.4455 23.5295 25.8703 23.2812 25.1754 23.3714C24.3356 23.4804 23.725 24.0849 23.5938 24.9183C23.4237 25.9987 24.2091 26.8995 25.1384 27.0226C25.7124 27.0988 26.2104 26.9426 26.6453 26.5744C26.8279 26.4198 26.9722 26.2287 27.0691 26.0075C27.104 25.928 27.1497 25.8982 27.2391 25.8985C28.1154 25.9021 28.9917 25.9005 29.868 25.901C29.9064 25.901 29.9447 25.906 30 25.9099C29.9699 26.0573 29.9498 26.196 29.9129 26.33C29.4937 27.853 28.5524 28.9197 27.0945 29.5234C26.6949 29.6889 26.2739 29.7878 25.8394 29.8177C25.8008 29.8204 25.7629 29.8333 25.7247 29.8414H25.1433L25.1434 29.8415Z" fill="#231815"/>
</svg>
