<svg width="40" height="40" viewBox="0 0 40 40" fill="none" xmlns="http://www.w3.org/2000/svg">
<circle cx="20" cy="20" r="20" fill="white"/>
<circle cx="20" cy="20" r="19.5" stroke="black" stroke-opacity="0.05"/>
<path d="M25.4071 27.1951C24.9172 27.1948 24.4475 26.9999 24.1012 26.6533C23.7548 26.3066 23.5602 25.8367 23.56 25.3466C23.5607 24.8569 23.7556 24.3874 24.1019 24.0413C24.4482 23.6951 24.9176 23.5005 25.4071 23.5001C25.716 23.5004 26.0198 23.5781 26.2909 23.7261C26.562 23.8742 26.7917 24.0878 26.9591 24.3475H29.9477C29.4884 22.2623 27.6274 20.6939 25.4071 20.6939C24.174 20.6952 22.9918 21.1858 22.1198 22.058C21.2479 22.9303 20.7574 24.113 20.7562 25.3466C20.7574 26.5802 21.2478 27.763 22.1198 28.6354C22.9917 29.5078 24.1739 29.9985 25.4071 30C27.7336 30 29.6601 28.2812 29.9988 26.0483H27.1149C26.9762 26.3874 26.7396 26.6775 26.4355 26.8818C26.1314 27.086 25.7734 27.1951 25.4071 27.1951Z" fill="#221E1F"/>
<path d="M25.304 17.1862C24.9592 17.1861 24.6179 17.1181 24.2994 16.986C23.981 16.854 23.6916 16.6604 23.4479 16.4165C23.2042 16.1726 23.0109 15.883 22.8791 15.5644C22.7472 15.2457 22.6794 14.9042 22.6795 14.5593C22.6796 14.2145 22.7476 13.873 22.8796 13.5544C23.0116 13.2358 23.205 12.9463 23.4489 12.7026C23.6927 12.4588 23.9822 12.2654 24.3007 12.1335C24.6192 12.0016 24.9606 11.9338 25.3054 11.9339C26.0016 11.934 26.6693 12.2109 27.1614 12.7035C27.6536 13.1962 27.93 13.8642 27.9299 14.5607C27.9297 15.2572 27.6529 15.9251 27.1605 16.4175C26.668 16.9099 26.0002 17.1864 25.304 17.1862ZM25.304 10.0005C24.0954 10.0005 22.9362 10.4808 22.0816 11.3357C21.227 12.1907 20.7468 13.3502 20.7468 14.5593C20.7468 15.7684 21.227 16.928 22.0816 17.7829C22.9362 18.6379 24.0954 19.1182 25.304 19.1182C25.9091 19.1287 26.5103 19.0186 27.0724 18.7942C27.6345 18.5699 28.1463 18.2357 28.578 17.8114C29.0097 17.387 29.3525 16.8809 29.5866 16.3225C29.8206 15.7642 29.9411 15.1648 29.9411 14.5593C29.9411 13.9539 29.8206 13.3545 29.5866 12.7962C29.3525 12.2378 29.0097 11.7317 28.578 11.3073C28.1463 10.8829 27.6345 10.5488 27.0724 10.3244C26.5103 10.1001 25.9091 9.98992 25.304 10.0005Z" fill="#55B954"/>
<path d="M10 25.2417C10 25.8405 10.1179 26.4334 10.3469 26.9866C10.576 27.5398 10.9117 28.0424 11.335 28.4658C11.7582 28.8892 12.2607 29.2251 12.8136 29.4542C13.3666 29.6833 13.9593 29.8013 14.5578 29.8013C15.1564 29.8013 15.7491 29.6833 16.3021 29.4542C16.855 29.2251 17.3575 28.8892 17.7807 28.4658C18.204 28.0424 18.5397 27.5398 18.7688 26.9866C18.9978 26.4334 19.1157 25.8405 19.1157 25.2417C19.1157 24.0324 18.6355 22.8727 17.7807 22.0176C16.926 21.1625 15.7667 20.6821 14.5578 20.6821C13.349 20.6821 12.1897 21.1625 11.335 22.0176C10.4802 22.8727 10 24.0324 10 25.2417Z" fill="#55B954"/>
<path d="M14.5798 18.4242C13.5584 18.4231 12.5791 18.0166 11.857 17.294C11.1349 16.5713 10.729 15.5916 10.7282 14.5698C10.729 13.548 11.1349 12.5683 11.857 11.8457C12.5791 11.123 13.5584 10.7165 14.5798 10.7154C15.6014 10.7165 16.5808 11.1229 17.3032 11.8455C18.0257 12.5681 18.4321 13.5478 18.4334 14.5698C18.4321 15.5918 18.0257 16.5715 17.3032 17.2941C16.5808 18.0167 15.6014 18.4231 14.5798 18.4242ZM14.5798 10.0144C13.3725 10.0159 12.2151 10.4963 11.3614 11.3503C10.5078 12.2042 10.0275 13.3621 10.0261 14.5698C10.0275 15.7775 10.5078 16.9354 11.3614 17.7894C12.2151 18.6434 13.3725 19.1238 14.5798 19.1252C15.787 19.124 16.9445 18.6436 17.7981 17.7895C18.6517 16.9355 19.1317 15.7775 19.1328 14.5698C19.1317 13.3621 18.6517 12.2041 17.7981 11.3501C16.9445 10.496 15.787 10.0157 14.5798 10.0144Z" fill="#55B954"/>
<circle cx="20" cy="20" r="20" fill="#55B954"/>
<circle cx="20" cy="20" r="19.5" stroke="black" stroke-opacity="0.05"/>
<ellipse cx="14.5371" cy="25.082" rx="4.53708" ry="4.5371" fill="white"/>
<path fill-rule="evenodd" clip-rule="evenodd" d="M25.3595 19.0742C27.8652 19.0742 29.8965 17.0429 29.8965 14.5371C29.8965 12.0313 27.8652 10 25.3595 10C22.8537 10 20.8224 12.0313 20.8224 14.5371C20.8224 17.0429 22.8537 19.0742 25.3595 19.0742ZM25.3317 17.215C26.826 17.215 28.0373 16.0036 28.0373 14.5093C28.0373 13.0151 26.826 11.8037 25.3317 11.8037C23.8375 11.8037 22.6261 13.0151 22.6261 14.5093C22.6261 16.0036 23.8375 17.215 25.3317 17.215Z" fill="white"/>
<path fill-rule="evenodd" clip-rule="evenodd" d="M14.5371 19.0742C17.0428 19.0742 19.0742 17.0429 19.0742 14.5371C19.0742 12.0313 17.0428 10 14.5371 10C12.0313 10 10 12.0313 10 14.5371C10 17.0429 12.0313 19.0742 14.5371 19.0742ZM14.5371 18.4538C16.7002 18.4538 18.4537 16.7002 18.4537 14.5371C18.4537 12.3739 16.7002 10.6204 14.5371 10.6204C12.374 10.6204 10.6204 12.3739 10.6204 14.5371C10.6204 16.7002 12.374 18.4538 14.5371 18.4538Z" fill="white"/>
<path d="M25.1434 29.8414C24.9785 29.8177 24.8129 29.7971 24.6485 29.77C24.0689 29.6743 23.5235 29.4812 23.0221 29.1747C22.1867 28.6643 21.5631 27.9632 21.1698 27.0649C20.7959 26.2116 20.6898 25.3232 20.8452 24.404C20.9632 23.7059 21.2331 23.0721 21.6457 22.4978C22.224 21.6932 22.9875 21.1352 23.9163 20.8023C24.333 20.653 24.7657 20.5818 25.2091 20.5625C25.7156 20.5403 26.2124 20.5933 26.6974 20.7356C27.4281 20.9501 28.0715 21.3209 28.6211 21.8501C29.2654 22.4704 29.6937 23.2168 29.9179 24.0814C29.9235 24.1027 29.928 24.1242 29.9319 24.1459C29.9335 24.1544 29.9322 24.1632 29.9322 24.182C29.8993 24.1856 29.8661 24.1923 29.833 24.1923C28.9126 24.1928 27.9924 24.1908 27.072 24.1956C26.9741 24.1961 26.9332 24.1453 26.8829 24.0816C26.4455 23.5293 25.8703 23.281 25.1754 23.3713C24.3356 23.4803 23.725 24.0847 23.5938 24.9182C23.4237 25.9986 24.2091 26.8994 25.1384 27.0225C25.7124 27.0986 26.2104 26.9424 26.6453 26.5743C26.8279 26.4197 26.9722 26.2286 27.0691 26.0074C27.104 25.9279 27.1497 25.8981 27.2391 25.8984C28.1154 25.902 28.9917 25.9004 29.868 25.9009C29.9064 25.9009 29.9447 25.9059 30 25.9097C29.9699 26.0572 29.9498 26.1958 29.9129 26.3298C29.4937 27.8529 28.5524 28.9196 27.0945 29.5233C26.6949 29.6888 26.2739 29.7877 25.8394 29.8176C25.8008 29.8202 25.7629 29.8332 25.7247 29.8412H25.1433L25.1434 29.8414Z" fill="#231815"/>
</svg>
