<svg width="40" height="40" viewBox="0 0 40 40" fill="none" xmlns="http://www.w3.org/2000/svg">
<circle cx="20" cy="20" r="20" fill="#0DA4A0"/>
<g clip-path="url(#clip0_14382_19791)">
<path d="M33.9936 19.0983H30.2208L29.6747 20.8237H30.6143V22.5241H28.6802V17.1737H33.643L34.3311 14.9988H21.4458L18.6186 18.3662V15H5.68802L5 17.1737H7.98104V24.6991H12.3632V17.1737H14.2341V24.6991H18.6186V21.3389L21.4458 24.7003H33.9936C34.2592 24.7003 34.514 24.5947 34.7019 24.4069C34.8897 24.2191 34.9952 23.9643 34.9952 23.6986V20.0999C34.9952 19.8343 34.8897 19.5795 34.7019 19.3917C34.514 19.2038 34.2592 19.0983 33.9936 19.0983ZM24.2921 22.449L22.1231 19.8495L24.2921 17.2513V22.449Z" fill="white"/>
</g>
<circle cx="20" cy="20" r="19.5" stroke="black" stroke-opacity="0.05"/>
<defs>
<clipPath id="clip0_14382_19791">
<rect width="30" height="9.70031" fill="white" transform="translate(5 15)"/>
</clipPath>
</defs>
</svg>
