<svg width="40" height="40" viewBox="0 0 40 40" fill="none" xmlns="http://www.w3.org/2000/svg">
<circle cx="20" cy="20" r="20" fill="#303B3C"/>
<path d="M22.3661 15.7368H23.007C23.8998 15.8496 24.3847 16.3566 24.4616 17.2584C24.4637 17.2837 24.4442 17.3063 24.4184 17.3084C24.4184 17.3084 24.4184 17.3084 24.4179 17.3084L23.5593 17.3596C23.5193 17.3622 23.4961 17.3438 23.4892 17.3042C23.4302 16.9685 23.2884 16.7071 22.9279 16.6407C22.6386 16.5875 22.0805 16.6043 21.934 16.939C21.8586 17.1103 21.8928 17.2684 22.0367 17.4133C22.0952 17.4718 22.2117 17.5309 22.3861 17.5894C22.6317 17.6721 22.9301 17.7627 23.2816 17.8613C23.4402 17.9061 23.6105 17.9741 23.7923 18.0653C24.41 18.3762 24.6492 18.986 24.5749 19.649C24.4748 20.5444 23.8318 21.014 22.9712 21.0567C22.5701 21.0762 22.2138 21.0609 21.8454 20.9165C21.1877 20.6588 20.8704 20.0021 20.8156 19.3201C20.814 19.2954 20.8251 19.2822 20.8493 19.2796L21.7279 19.1847C21.7389 19.1836 21.749 19.1915 21.7505 19.2026C21.7843 19.4862 21.9118 19.8156 22.1469 19.9895C22.5727 20.3046 23.4281 20.223 23.5978 19.6516C23.7391 19.1757 23.3659 18.9828 22.9759 18.8785C22.6792 18.7989 22.3919 18.713 22.1142 18.6208C21.896 18.5486 21.6567 18.4331 21.4765 18.2845C21.0907 17.9662 20.912 17.4397 20.9942 16.9516C21.0896 16.3893 21.4117 16.0125 21.9614 15.8201C22.0188 15.8001 22.1537 15.7721 22.3661 15.7368Z" fill="white"/>
<path d="M8.36086 18.7267H6.60899C6.59529 18.7267 6.58422 18.7372 6.58422 18.7509V20.9529C6.58422 20.9666 6.57316 20.9776 6.55945 20.9776H5.64293C5.62923 20.9776 5.61816 20.9671 5.61816 20.9534V15.8285C5.61816 15.8148 5.62923 15.8037 5.64293 15.8037H6.55945C6.57316 15.8037 6.58422 15.8148 6.58422 15.8285V17.8202C6.5837 17.8339 6.59476 17.8449 6.60847 17.8449H8.36192C8.37562 17.8449 8.38669 17.8339 8.38669 17.8202L8.38564 15.8285C8.38564 15.8148 8.3967 15.8037 8.41041 15.8037H9.30479C9.31849 15.8037 9.32956 15.8148 9.32956 15.8285V20.9523C9.32956 20.966 9.31849 20.9771 9.30479 20.9771L8.41146 20.9782C8.39776 20.9782 8.38669 20.9671 8.38669 20.9534L8.38564 18.7514C8.38564 18.7377 8.37457 18.7267 8.36086 18.7267Z" fill="white"/>
<path d="M13.4881 19.795H11.7099C11.6988 19.795 11.6893 19.8018 11.6856 19.8124L11.3093 20.9597C11.3056 20.9703 11.2962 20.9771 11.2851 20.9771L10.3159 20.9782C10.3016 20.9782 10.2906 20.9671 10.29 20.9534C10.29 20.9502 10.29 20.9476 10.2916 20.9444L12.0872 15.8206C12.0909 15.8106 12.1004 15.8037 12.111 15.8037H13.0828C13.0933 15.8037 13.1028 15.8106 13.1065 15.8206L14.948 20.9428C14.9527 20.956 14.9459 20.9703 14.9327 20.975C14.9301 20.9761 14.9274 20.9766 14.9243 20.9766L13.9308 20.9787C13.9203 20.9787 13.9108 20.9718 13.9071 20.9618L13.5118 19.8118C13.5081 19.8018 13.4986 19.795 13.4881 19.795ZM11.9924 18.8816C11.9892 18.8911 11.9945 18.9016 12.004 18.9048C12.0055 18.9053 12.0077 18.9059 12.0098 18.9059L13.1766 18.9016C13.1866 18.9016 13.1951 18.8932 13.1951 18.8832C13.1951 18.8811 13.1951 18.8795 13.194 18.8774L12.6043 17.1329C12.6011 17.1234 12.5906 17.1181 12.5805 17.1218C12.5753 17.1239 12.5711 17.1276 12.5695 17.1329L11.9924 18.8816Z" fill="white"/>
<path d="M18.7165 19.152V15.8275C18.716 15.8148 18.7265 15.8043 18.7392 15.8043L19.5719 15.8032C19.5888 15.8032 19.6025 15.8169 19.6025 15.8333V20.9545C19.6025 20.9671 19.5925 20.9771 19.5798 20.9771L18.6865 20.9782C18.6633 20.9782 18.6417 20.9656 18.6301 20.945L16.8408 17.729C16.8192 17.69 16.8087 17.6927 16.8087 17.7374V20.9413C16.8092 20.9608 16.7934 20.9766 16.7744 20.9766L15.9433 20.9782C15.9264 20.9782 15.918 20.9698 15.918 20.9534V15.8296C15.918 15.8153 15.9296 15.8037 15.9438 15.8037H16.7986C16.8218 15.8037 16.8434 15.8164 16.855 15.837L18.6886 19.1589C18.707 19.1931 18.7165 19.1905 18.7165 19.152Z" fill="white"/>
<path d="M26.7544 19.8118L26.3797 20.9608C26.3766 20.9708 26.3665 20.9776 26.356 20.9776H25.3841C25.3704 20.9776 25.3594 20.9666 25.3594 20.9529C25.3594 20.9502 25.3594 20.9471 25.361 20.9444L27.156 15.82C27.1597 15.81 27.1687 15.8037 27.1792 15.8037H28.1532C28.1637 15.8037 28.1727 15.81 28.1764 15.82L30.0179 20.9434C30.0226 20.956 30.0157 20.9703 30.0031 20.975C30.0005 20.9761 29.9978 20.9766 29.9947 20.9766L28.9996 20.9782C28.9891 20.9782 28.9791 20.9713 28.9759 20.9613L28.5817 19.8118C28.5785 19.8018 28.5685 19.795 28.558 19.795H26.7782C26.7676 19.795 26.7576 19.8018 26.7544 19.8118ZM27.0591 18.8842C27.0564 18.8927 27.0612 18.9016 27.0696 18.9043C27.0712 18.9043 27.0728 18.9048 27.0738 18.9048L28.2481 18.9027C28.257 18.9027 28.2639 18.8953 28.2633 18.8864C28.2633 18.8848 28.2633 18.8832 28.2628 18.8821L27.6731 17.1224C27.6704 17.1139 27.6615 17.1097 27.653 17.1123C27.6483 17.1139 27.6446 17.1176 27.643 17.1224L27.0591 18.8842Z" fill="white"/>
<path d="M31.9353 18.7346L31.9343 20.0495C31.9343 20.0622 31.9448 20.0727 31.9575 20.0727H34.4941C34.5068 20.0727 34.5173 20.0833 34.5173 20.0959V20.9544C34.5173 20.9671 34.5068 20.9776 34.4941 20.9776H30.9919C30.9793 20.9776 30.9688 20.9671 30.9688 20.9544V15.8269C30.9688 15.8143 30.9793 15.8037 30.9919 15.8037H34.394C34.4066 15.8037 34.4172 15.8143 34.4172 15.8269V16.6849C34.4172 16.6976 34.4066 16.7081 34.394 16.7081H31.9585C31.9459 16.7081 31.9353 16.7186 31.9353 16.7313L31.9348 17.7833C31.9348 17.7959 31.9453 17.8065 31.958 17.8065H34.2311C34.2438 17.8065 34.2543 17.817 34.2543 17.8296V18.6877C34.2543 18.7003 34.2432 18.7108 34.2306 18.7108H31.9591C31.9464 18.7114 31.9359 18.7219 31.9359 18.7346H31.9353Z" fill="white"/>
<path d="M35.0352 22.9993C35.0352 23.0119 35.0246 23.0224 35.012 23.0224H5.05835C5.0457 23.0224 5.03516 23.0119 5.03516 22.9993V22.2424C5.03516 22.2298 5.0457 22.2192 5.05835 22.2192H35.012C35.0246 22.2192 35.0352 22.2298 35.0352 22.2424V22.9993Z" fill="#EABD39"/>
<circle cx="20" cy="20" r="19.5" stroke="black" stroke-opacity="0.05"/>
</svg>
