<svg width="40" height="40" viewBox="0 0 40 40" fill="none" xmlns="http://www.w3.org/2000/svg">
<circle cx="20" cy="20" r="20" fill="#034694"/>
<g clip-path="url(#clip0_17713_28042)">
<path d="M15.3813 27H14.7578V12H15.3813V27Z" fill="white"/>
<path d="M25.0026 27H24.377V12H25.0026V27Z" fill="white"/>
<path d="M10.2226 23.5481C10.655 23.5481 11.1226 23.5273 11.5024 23.3309C12.9183 22.6077 12.9732 20.8216 12.9732 19.2251C12.9732 17.8873 12.7778 16.9307 12.3827 16.3692C11.8536 15.6114 11.0173 15.4496 10.598 15.4496H7.03516V23.5458H10.2226M8.76059 22.1525V16.8406H9.77697C10.8131 16.8406 11.1468 17.543 11.1468 19.3152C11.1468 21.4894 10.9338 22.1525 9.3972 22.1525H8.76059Z" fill="white"/>
<path d="M20.7243 17.9127C20.7374 17.1895 20.6628 16.5656 19.7145 16.5656C19.1371 16.5656 18.7683 16.8337 18.7683 17.3235C18.7683 17.8665 19.2118 18.0837 19.754 18.3886C20.3181 18.7006 21.3631 19.3059 21.846 19.7172C22.4365 20.2255 22.6209 20.7084 22.6209 21.4108C22.6209 22.9427 21.464 23.7445 19.7781 23.7445C17.7124 23.7445 16.9727 22.7278 16.9727 21.2837V20.6876H18.6959V21.1312C18.6586 21.9191 18.9286 22.409 19.7781 22.409C20.5047 22.409 20.8494 22.1571 20.8494 21.5425C20.8494 21.0666 20.6035 20.7731 20.1601 20.5028C19.2601 19.8859 18.1405 19.4422 17.4402 18.6359C17.1592 18.2662 16.9968 17.8249 16.9968 17.3928C16.9968 16.0111 17.8837 15.2556 19.7035 15.2556C22.4475 15.2556 22.3729 17.1132 22.3882 17.9127H20.7265H20.7243Z" fill="white"/>
<path d="M32.4313 20.9672C32.4313 20.9672 32.6772 22.5499 32.7167 22.7625C32.7825 23.146 33.035 23.5388 33.035 23.5388H31.1318C31.1318 23.5388 30.9671 23.317 30.9122 22.8826C30.831 22.2403 30.7234 21.3299 30.6949 21.122C30.6356 20.6691 30.3459 20.1469 29.3361 20.1469H28.3482V23.5388H26.625V15.4427H30.0781C30.0781 15.4427 32.5542 15.3456 32.5081 17.3858C32.5081 17.3858 32.6662 19.1026 31.0944 19.3614C32.2316 19.5254 32.3281 20.1932 32.4313 20.9672ZM28.3482 16.8452V18.6982H29.7027C29.7027 18.6982 30.6883 18.6844 30.7103 17.8087C30.7103 17.8087 30.8771 16.8452 29.6302 16.8452H28.3504H28.3482Z" fill="white"/>
</g>
<circle cx="20" cy="20" r="19.5" stroke="black" stroke-opacity="0.05"/>
<defs>
<clipPath id="clip0_17713_28042">
<rect width="26" height="15" fill="white" transform="translate(7.03516 12)"/>
</clipPath>
</defs>
</svg>
