<svg width="40" height="40" viewBox="0 0 40 40" fill="none" xmlns="http://www.w3.org/2000/svg">
<circle cx="20" cy="20" r="20" fill="#818286"/>
<path d="M20.538 22.7594C20.7276 21.1059 19.2918 20.1674 17.8597 19.9046C15.9546 19.5461 14.1209 18.6771 14.3518 16.3817C14.6915 13.0033 19.4457 13.3786 21.5647 14.1707C21.6022 14.185 21.634 14.211 21.6556 14.2448C21.6773 14.2786 21.6875 14.3184 21.6848 14.3584L21.5497 16.5525C21.5504 16.5729 21.5471 16.5933 21.5398 16.6124C21.5325 16.6315 21.5214 16.6489 21.5072 16.6636C21.493 16.6784 21.476 16.6901 21.4572 16.6981C21.4383 16.706 21.4181 16.7102 21.3977 16.7101C21.3522 16.7158 21.3061 16.7066 21.2663 16.6839C21.209 16.6567 21.1608 16.6135 21.1275 16.5596C21.0942 16.5056 21.0772 16.4432 21.0786 16.3798C21.0648 15.5214 20.6851 14.9283 19.9393 14.6005C18.785 14.09 17.1765 14.0112 16.4483 15.1486C16.2662 15.4269 16.1744 15.7546 16.1855 16.087C16.2099 17.0668 16.9363 17.6186 17.8203 17.8682C18.7775 18.1347 19.6784 18.2811 20.5737 18.7841C21.1194 19.0725 21.5757 19.5049 21.893 20.0343C22.2104 20.5637 22.3766 21.1699 22.3737 21.7872C22.4356 23.9606 20.7614 25.3064 18.6912 25.4659C17.1906 25.5931 15.6866 25.2661 14.3743 24.5275C14.3506 24.5141 14.3312 24.4943 14.3182 24.4704C14.3053 24.4465 14.2993 24.4195 14.3011 24.3923L14.4381 21.6727C14.4371 21.6556 14.4396 21.6386 14.4454 21.6225C14.4513 21.6065 14.4604 21.5918 14.4722 21.5795C14.4841 21.5672 14.4983 21.5574 14.5141 21.5508C14.5298 21.5443 14.5468 21.541 14.5638 21.5413L14.7703 21.5188C14.7901 21.5144 14.8105 21.5144 14.8303 21.5186C14.8501 21.5229 14.8687 21.5314 14.8849 21.5435C14.9012 21.5556 14.9146 21.571 14.9243 21.5888C14.9339 21.6066 14.9397 21.6262 14.9411 21.6464C15.1926 23.0034 15.3728 23.8874 16.7429 24.4618C17.7771 24.8935 18.9671 24.9028 19.8473 24.1108C20.2419 23.7652 20.489 23.2816 20.538 22.7594Z" fill="white"/>
<path d="M9.59422 16.2763C9.59422 15.1502 9.57921 14.3619 8.16214 14.3994C8.14242 14.4001 8.12274 14.397 8.10424 14.3901C8.08573 14.3833 8.06876 14.3729 8.05429 14.3594C8.03982 14.346 8.02814 14.3299 8.01992 14.3119C8.01169 14.294 8.00708 14.2746 8.00636 14.2549V14.0672C8.0039 14.0484 8.0058 14.0292 8.0119 14.0113C8.01801 13.9933 8.02817 13.977 8.0416 13.9635C8.05502 13.9501 8.07135 13.9399 8.08932 13.9338C8.10729 13.9277 8.12643 13.9258 8.14525 13.9283L13.0703 13.9358C13.1011 13.9316 13.1324 13.9345 13.1619 13.9443C13.1915 13.954 13.2184 13.9704 13.2406 13.9921C13.2629 14.0138 13.2799 14.0403 13.2904 14.0696C13.3009 14.0988 13.3045 14.1301 13.3011 14.161V14.2173C13.3105 14.3637 13.241 14.4275 13.0965 14.405C12.7443 14.3483 12.3836 14.4231 12.083 14.6152C11.6776 14.8818 11.6888 15.565 11.6851 15.9891C11.6513 18.9234 11.6551 21.4678 11.6964 23.6225C11.7095 24.4052 12.4471 24.6923 13.1153 24.6229C13.1397 24.6167 13.1652 24.6166 13.1896 24.6227C13.214 24.6288 13.2365 24.6409 13.2551 24.6578C13.2737 24.6747 13.2878 24.696 13.2962 24.7197C13.3045 24.7434 13.3069 24.7689 13.303 24.7937V24.8913C13.3068 24.9168 13.3046 24.9429 13.2965 24.9674C13.2884 24.9919 13.2747 25.0142 13.2564 25.0324C13.2382 25.0507 13.2159 25.0644 13.1914 25.0725C13.1669 25.0806 13.1408 25.0828 13.1153 25.079H8.1903C8.16485 25.0824 8.13895 25.0799 8.11463 25.0716C8.09031 25.0634 8.06822 25.0497 8.05006 25.0315C8.03191 25.0134 8.01818 24.9913 8.00995 24.967C8.00172 24.9426 7.99921 24.9167 8.0026 24.8913V24.7975C7.99794 24.7718 7.99956 24.7454 8.00734 24.7204C8.01512 24.6955 8.02882 24.6729 8.04728 24.6544C8.06573 24.636 8.08838 24.6223 8.11329 24.6145C8.1382 24.6067 8.16462 24.6051 8.1903 24.6098C9.26576 24.6679 9.58671 24.1931 9.58108 23.1814C9.57358 20.8328 9.57795 18.5311 9.59422 16.2763Z" fill="white"/>
<path d="M26.3436 14.8539V18.6903C26.3436 18.7012 26.3479 18.7117 26.3557 18.7194C26.3634 18.7272 26.3739 18.7315 26.3849 18.7315C27.4735 18.7128 28.6046 18.7184 29.7783 18.7484C30.4559 18.7653 30.5009 18.2267 30.6135 17.7349C30.618 17.7162 30.626 17.6985 30.6373 17.6828C30.6486 17.6672 30.6628 17.654 30.6792 17.6439C30.6956 17.6338 30.7138 17.627 30.7328 17.6239C30.7518 17.6209 30.7712 17.6216 30.79 17.626C30.8024 17.6287 30.8144 17.6332 30.8256 17.6392C30.8661 17.6551 30.9006 17.6831 30.9245 17.7194C30.9483 17.7557 30.9604 17.7985 30.9589 17.8419C30.9038 18.7478 30.8613 19.6612 30.8313 20.5822C30.8299 20.6215 30.8136 20.6589 30.7857 20.6868C30.7579 20.7147 30.7205 20.7309 30.6811 20.7323C30.6505 20.7348 30.62 20.7274 30.5939 20.7112C30.5679 20.695 30.5478 20.6708 30.5366 20.6422C30.4428 20.4396 30.3632 20.2308 30.2982 20.0172C30.2642 19.9125 30.2002 19.82 30.1141 19.7513C30.028 19.6826 29.9237 19.6406 29.814 19.6306C28.6863 19.5416 27.5542 19.5234 26.4243 19.5761C26.4131 19.5752 26.4019 19.5768 26.3914 19.5808C26.381 19.5847 26.3715 19.591 26.3638 19.5991C26.356 19.6072 26.3502 19.6169 26.3467 19.6276C26.3432 19.6382 26.3421 19.6495 26.3436 19.6606V23.5383C26.3436 23.9775 26.5632 24.1977 27.0024 24.199C28.0822 24.199 29.194 24.1752 30.3376 24.1276C31.1898 24.0882 31.4525 23.1892 31.5389 22.4966C31.5464 22.4369 31.5723 22.381 31.613 22.3366C31.6537 22.2923 31.7071 22.2616 31.766 22.2489C31.7932 22.2431 31.8208 22.2394 31.8486 22.2376C31.9549 22.2288 32.0056 22.2776 32.0006 22.384L31.8898 25.0117C31.8911 25.0254 31.8892 25.0392 31.8844 25.0521C31.8796 25.0649 31.872 25.0766 31.8621 25.0861C31.8522 25.0957 31.8402 25.1029 31.8272 25.1072C31.8141 25.1115 31.8003 25.1129 31.7866 25.1111L22.9914 25.0755C22.9417 25.0755 22.8939 25.0557 22.8587 25.0205C22.8235 24.9853 22.8037 24.9376 22.8037 24.8878V24.7658C22.7986 24.737 22.8007 24.7074 22.8099 24.6797C22.819 24.6519 22.8349 24.6269 22.8561 24.6068C22.8773 24.5867 22.9032 24.5722 22.9314 24.5645C22.9596 24.5569 22.9893 24.5564 23.0177 24.5631C24.6281 24.6438 24.4554 23.5308 24.4629 22.2714C24.4779 20.0892 24.4779 17.8994 24.4629 15.7022C24.4629 14.795 24.005 14.3984 23.089 14.5123C22.8882 14.5367 22.785 14.4503 22.7775 14.257C22.7784 14.242 22.7784 14.227 22.7775 14.212C22.7418 14.0092 22.8263 13.9098 23.0327 13.9116C25.6491 13.9317 28.4764 13.9317 31.5145 13.9116C31.5294 13.9116 31.5442 13.9146 31.558 13.9204C31.5718 13.9262 31.5843 13.9346 31.5948 13.9453C31.6052 13.9559 31.6135 13.9686 31.619 13.9825C31.6246 13.9963 31.6273 14.0112 31.6271 14.0261V16.0682C31.6283 16.1048 31.6204 16.1412 31.604 16.174C31.5876 16.2068 31.5633 16.2349 31.5332 16.2559C31.5022 16.2819 31.463 16.2961 31.4225 16.2961C31.382 16.2961 31.3428 16.2819 31.3118 16.2559C31.2442 16.2123 31.1948 16.1456 31.1729 16.0682C30.9683 15.3343 30.5798 14.8051 29.7483 14.7544C28.6561 14.6819 27.5608 14.6719 26.4675 14.7243C26.4503 14.7228 26.433 14.7251 26.4169 14.7311C26.4008 14.7372 26.3862 14.7468 26.3743 14.7592C26.3624 14.7717 26.3534 14.7866 26.3481 14.803C26.3428 14.8194 26.3413 14.8368 26.3436 14.8539Z" fill="white"/>
<circle cx="20" cy="20" r="19.5" stroke="black" stroke-opacity="0.05"/>
</svg>
