<svg width="40" height="40" viewBox="0 0 40 40" fill="none" xmlns="http://www.w3.org/2000/svg">
<circle cx="20" cy="20" r="20" fill="#009882"/>
<path d="M7.77213 18.5792V19.8484H8.71288V18.5792H9.08584V21.5518H8.71288V20.1527H7.77213V21.5518H7.39917V18.5792H7.77213Z" fill="white"/>
<path d="M11.4703 18.5792L12.0195 19.8818L12.5539 18.5792H12.9398L12.2032 20.2919V21.5518H11.8302V20.2919L11.0862 18.5792H11.4703Z" fill="white"/>
<path d="M19.6642 18.5792L20.4899 20.7706H20.4992V18.5792H20.861V21.5518H20.4565L19.4619 18.967H19.4526V21.5518H19.0908V18.5792H19.6642Z" fill="white"/>
<path d="M24.2306 18.9373H24.0525V21.1899H24.2306C24.7112 21.1899 24.9895 21.0321 24.9895 20.0654C24.9895 19.0987 24.7112 18.9373 24.2306 18.9373Z" fill="white"/>
<path d="M35 16H5V24.1272H35V16ZM22.1765 23.9379H5.19112V16.1893H22.1765V23.9379ZM24.2714 21.6185H23.609V18.4808H24.2714C24.9839 18.4808 25.4144 18.8464 25.4144 20.0487C25.4144 21.2511 24.9839 21.6185 24.2714 21.6185ZM34.8089 23.9379H26.6446V16.1893H34.8089V23.9379Z" fill="white"/>
<path d="M28.7116 18.826H28.7209L29.0753 20.3995H28.3554L28.7098 18.826H28.7116ZM28.4574 18.5811L27.7412 21.5517H28.1142L28.3053 20.7093H29.1273L29.3184 21.5536H29.6914L28.9807 18.5829H28.4574V18.5811Z" fill="white"/>
<path d="M32.6175 18.5792V21.5518H32.2576V18.5792H32.6175Z" fill="white"/>
<path d="M15.8177 21.5777C15.2407 21.5777 14.9753 21.2066 14.9753 20.7298V18.5792H15.3464V20.7298C15.3464 21.0304 15.4411 21.2901 15.8177 21.2901C16.1944 21.2901 16.289 21.0304 16.289 20.7298V18.5792H16.662V20.7298C16.662 21.2066 16.3948 21.5777 15.8177 21.5777Z" fill="white"/>
<circle cx="20" cy="20" r="19.5" stroke="black" stroke-opacity="0.05"/>
</svg>
