<svg width="40" height="40" viewBox="0 0 40 40" fill="none" xmlns="http://www.w3.org/2000/svg">
<circle cx="20" cy="20" r="20" fill="#F6F8FA"/>
<g clip-path="url(#clip0_18553_55574)">
<path d="M19.5271 31.2971C17.4112 30.3799 15.6264 29.0395 14.1488 27.2875C12.1157 24.877 10.91 21.7845 10.3899 18.6215C10.0117 16.2816 9.91713 13.9181 10.189 11.5664C10.189 11.5429 10.2126 11.5194 10.2363 11.5194C13.1204 10.908 16.0401 10.2848 18.9833 9.66158C19.2907 9.59103 19.598 9.53224 19.929 9.48521C20.0472 9.46169 20.2836 9.48521 20.6145 9.56751C20.8037 9.61455 20.9928 9.64982 21.1937 9.69686C23.8178 10.2495 26.442 10.8139 29.0661 11.3666C29.3379 11.4253 29.5862 11.4841 29.8226 11.5429C29.8698 11.5547 29.9053 11.59 29.9053 11.637C29.9644 12.4131 30.0117 13.1656 30.0353 13.9181C30.0353 14.2591 30.0353 14.5884 30.0353 14.9058C30.0353 15.1057 30.0117 15.435 29.9881 15.9053C29.9644 16.505 29.8935 17.2105 29.7753 18.0336C29.4798 20.1266 28.9242 22.0785 28.085 23.8658C26.4656 27.3462 23.8888 29.8625 20.3545 31.4029C19.9762 31.5675 19.858 31.4499 19.5389 31.3088L19.5271 31.2971ZM26.8675 22.4312C28.0732 19.4799 28.4632 16.2581 28.3096 13.0362C28.3096 13.001 28.2859 12.9775 28.2505 12.9775C28.0259 12.9539 27.8013 12.8834 27.5767 12.8364C25.2008 12.3072 22.8249 11.7781 20.4372 11.249C20.1535 11.1902 19.8344 11.1902 19.4798 11.2725C17.0211 11.8251 14.4798 12.3895 11.8438 12.9657C11.7611 12.9892 11.7138 13.0362 11.7138 13.1303C11.7138 14.071 11.6902 15.0117 11.7611 15.9759C11.7966 16.4109 11.832 16.846 11.8793 17.2693C11.962 18.0571 12.1275 18.9507 12.3639 19.9384C12.6831 21.2201 13.1086 22.3959 13.6405 23.466C14.9999 26.2174 17.0684 28.2516 19.8344 29.5686C19.9999 29.6509 20.1417 29.6156 20.2954 29.5333C23.3568 28.04 25.5436 25.6648 26.8557 22.443L26.8675 22.4312Z" fill="#3D3A36"/>
<path d="M19.7277 15.5762L19.6686 15.6585C19.4559 15.8467 19.2431 16.023 19.0658 16.2347C18.5102 16.8932 18.0965 17.6222 17.8365 18.41C17.7655 18.6216 17.7301 18.8215 17.7419 19.0097C17.7419 19.2684 17.7419 19.5153 17.7183 19.7505C17.7183 19.868 17.7183 19.9974 17.7655 20.1385C18.0847 21.279 18.6875 22.2668 19.5859 23.0663C19.6213 23.1016 19.6568 23.1251 19.6804 23.1604C19.5268 23.4073 19.3849 23.6543 19.2431 23.9012C19.1249 24.1246 18.7939 24.0305 18.593 24.0305C17.2691 24.0305 15.957 24.0305 14.6332 24.0305C14.5859 24.0305 14.5504 23.9952 14.5504 23.9482C14.5504 23.9365 14.5504 23.9129 14.5622 23.9012L17.3873 19.5741C17.4582 19.4565 17.4582 19.3154 17.3873 19.1978L14.4795 14.8002C14.4795 14.8002 14.4795 14.7414 14.4913 14.7296C14.4913 14.7296 14.5031 14.7296 14.515 14.7296C14.6686 14.7061 14.8341 14.6943 14.9996 14.6943C16.3471 14.6943 17.6946 14.7061 19.0067 14.7179C19.1131 14.7179 19.2194 14.7884 19.2667 14.8825C19.3849 15.1176 19.5031 15.3528 19.6332 15.5645C19.645 15.588 19.6804 15.5997 19.7277 15.5997V15.5762Z" fill="#4EABB7"/>
<path d="M22.0446 19.3152C22.0446 19.2094 21.9855 19.1153 21.9028 19.0213C21.7846 18.8919 21.7137 18.8096 21.7018 18.7743C21.0635 17.8219 20.4489 16.8459 19.8579 15.8582C19.846 15.8347 19.8224 15.7994 19.8106 15.7407C19.7869 15.6701 19.7397 15.6466 19.6924 15.6583L19.7515 15.576C20.1888 15.2115 20.6735 14.9646 21.1936 14.8235C21.56 14.7294 22.0919 14.6824 22.7657 14.6942C23.4985 14.7059 24.2314 14.7059 24.9524 14.6942C24.9997 14.6942 25.047 14.7412 25.047 14.7882V18.0571C25.047 18.0571 24.9879 18.1511 24.9406 18.1511C24.4087 18.1394 23.865 18.1394 23.2976 18.1511C22.7657 18.1629 22.3874 18.3981 22.151 18.8684C22.0801 19.0095 22.0446 19.1624 22.0564 19.3035L22.0446 19.3152Z" fill="#778B4C"/>
<path d="M22.0448 19.3155V19.4449C21.8202 19.7153 21.6193 19.9975 21.442 20.3032C20.9337 21.1381 20.4018 21.9612 19.8935 22.796C19.8226 22.9136 19.7162 23.0077 19.6098 23.0665C18.7115 22.2551 18.1086 21.2792 17.7895 20.1386C17.754 19.9975 17.7422 19.8682 17.7422 19.7506C17.7658 19.5154 17.7658 19.2685 17.7658 19.0098C17.7658 18.8217 17.7895 18.6218 17.8604 18.4101C18.1204 17.6223 18.5223 16.8933 19.0897 16.2348C19.267 16.0232 19.4798 15.8468 19.6925 15.6586C19.7516 15.6469 19.7871 15.6586 19.8107 15.741C19.8344 15.7997 19.8462 15.8468 19.858 15.8585C20.449 16.8462 21.0755 17.8104 21.702 18.7746C21.7256 18.7981 21.7847 18.8805 21.9029 19.0216C21.9857 19.1156 22.033 19.2097 22.0448 19.3155Z" fill="#202D47"/>
<path d="M22.0445 19.4448C22.0208 19.5154 22.0445 19.5859 22.0681 19.68C22.2809 20.2797 22.7182 20.5736 23.3802 20.5501C23.8766 20.5384 24.4085 20.5266 24.9759 20.5501C25.0114 20.5501 25.035 20.5736 25.035 20.6089V23.9836C25.035 23.9836 25.0114 24.0306 24.9877 24.0306C24.1485 24.0306 23.262 24.0306 22.34 24.0306C21.3234 24.0306 20.4842 23.7719 19.6922 23.1605C19.6686 23.137 19.6449 23.1017 19.5977 23.0664C19.7159 23.0076 19.8104 22.9136 19.8813 22.796C20.4014 21.9611 20.9215 21.138 21.4298 20.3032C21.6189 19.9975 21.8199 19.7153 22.0326 19.4448H22.0445Z" fill="#778B4C"/>
</g>
<circle cx="20" cy="20" r="19.5" stroke="black" stroke-opacity="0.05"/>
<defs>
<clipPath id="clip0_18553_55574">
<rect width="20" height="22" fill="white" transform="translate(10.0352 9.47363)"/>
</clipPath>
</defs>
</svg>
