<svg width="40" height="40" viewBox="0 0 40 40" fill="none" xmlns="http://www.w3.org/2000/svg">
<circle cx="20" cy="20" r="20" fill="#007EBC"/>
<path d="M20.3543 11.8966L34.9357 19.9878C34.9658 20.0045 34.991 20.0289 35.0084 20.0586C35.0259 20.0883 35.0352 20.1221 35.0352 20.1565C35.0352 20.1909 35.0259 20.2247 35.0084 20.2544C34.991 20.2841 34.9658 20.3085 34.9357 20.3252L20.3456 28.4537C20.3168 28.4698 20.2843 28.4783 20.2514 28.4783C20.2184 28.4783 20.186 28.4698 20.1572 28.4537L5.13551 20.185C5.10495 20.1683 5.07949 20.1436 5.06182 20.1136C5.04415 20.0836 5.03494 20.0494 5.03516 20.0146C5.03538 19.9797 5.04504 19.9456 5.06309 19.9159C5.08115 19.8861 5.10693 19.8618 5.1377 19.8455L20.1703 11.8944C20.1987 11.8794 20.2305 11.8717 20.2626 11.8721C20.2947 11.8725 20.3263 11.8809 20.3543 11.8966ZM20.247 13.3532C20.2365 13.3476 20.2249 13.3447 20.213 13.3447C20.2012 13.3447 20.1895 13.3476 20.1791 13.3532L7.5997 19.9243C7.58761 19.9301 7.57737 19.9392 7.57013 19.9505C7.56289 19.9618 7.55893 19.9748 7.5587 19.9883C7.55848 20.0017 7.56199 20.0149 7.56884 20.0264C7.57569 20.0379 7.58562 20.0473 7.59751 20.0535L20.1681 26.9248C20.1789 26.9307 20.1909 26.9339 20.2032 26.9339C20.2154 26.9339 20.2275 26.9307 20.2382 26.9248L32.6117 20.2266C32.6231 20.2204 32.6327 20.2112 32.6393 20.2C32.646 20.1888 32.6495 20.1761 32.6495 20.1631C32.6495 20.1501 32.646 20.1373 32.6393 20.1261C32.6327 20.1149 32.6231 20.1058 32.6117 20.0995L20.247 13.3532Z" fill="white"/>
<path d="M20.2479 13.353L32.6126 20.0993C32.624 20.1055 32.6336 20.1147 32.6402 20.1259C32.6469 20.1371 32.6504 20.1499 32.6504 20.1629C32.6504 20.1759 32.6469 20.1886 32.6402 20.1998C32.6336 20.211 32.624 20.2202 32.6126 20.2264L20.2391 26.9246C20.2284 26.9305 20.2163 26.9336 20.2041 26.9336C20.1918 26.9336 20.1797 26.9305 20.169 26.9246L7.59838 20.0533C7.5865 20.0471 7.57657 20.0377 7.56972 20.0262C7.56286 20.0147 7.55935 20.0015 7.55958 19.9881C7.55981 19.9746 7.56376 19.9616 7.571 19.9503C7.57824 19.939 7.58848 19.9299 7.60058 19.9241L20.18 13.353C20.1904 13.3474 20.2021 13.3445 20.2139 13.3445C20.2258 13.3445 20.2374 13.3474 20.2479 13.353ZM20.0266 17.5913C18.9796 17.2978 19.6718 16.0931 20.664 16.6517C20.74 16.694 20.7882 16.7568 20.8086 16.84C20.905 17.2299 21.1605 17.365 21.5752 17.2453C21.6369 17.2272 21.6902 17.1883 21.7262 17.1351C21.7622 17.0819 21.7785 17.0179 21.7724 16.9539C21.6234 15.4798 18.9906 15.3506 18.6686 16.8203C18.4956 17.6023 19.133 18.2375 19.8645 18.4062C20.3311 18.5157 20.997 18.6624 20.9466 19.2845C20.932 19.4685 20.8276 19.5919 20.6334 19.6547C20.1719 19.8066 19.8142 19.754 19.5601 19.497C19.5017 19.4386 19.4725 19.3685 19.4725 19.2867C19.471 19.1421 19.436 19.01 19.3673 18.8902C19.3505 18.8605 19.3265 18.8353 19.2975 18.817C19.2684 18.7987 19.2352 18.7877 19.2009 18.7851C19.0081 18.772 18.8248 18.7902 18.6511 18.8399C18.5649 18.8662 18.5226 18.9246 18.524 19.0151C18.5503 20.1497 19.352 20.533 20.3552 20.487C21.2598 20.4454 21.9257 19.8825 21.8403 18.956C21.7527 17.9944 20.7933 17.8038 20.0266 17.5913ZM21.7089 21.3807L18.6927 21.3917C18.6556 21.3915 18.6196 21.38 18.5898 21.3588C18.5599 21.3376 18.5377 21.3077 18.5262 21.2734C18.0779 19.965 17.4266 18.8026 16.5724 17.7863C16.4906 17.6914 16.3869 17.6432 16.2614 17.6417L14.5901 17.6352C14.4879 17.6352 14.4747 17.6687 14.5507 17.7359C15.6794 18.7596 16.5038 19.911 17.0236 21.1902C17.3982 22.1123 17.3544 23.1637 17.4398 24.1516C17.4486 24.2436 17.4997 24.2895 17.5931 24.2895L18.5459 24.2939C18.5845 24.2939 18.6215 24.2785 18.6489 24.2511C18.6764 24.2236 18.6921 24.1863 18.6927 24.1472L18.6993 22.7409C18.6993 22.6358 18.7518 22.5832 18.857 22.5832L21.6015 22.5898C21.6214 22.5898 21.641 22.5937 21.6594 22.6013C21.6777 22.6089 21.6944 22.62 21.7084 22.6341C21.7224 22.6481 21.7336 22.6648 21.7412 22.6831C21.7488 22.7014 21.7527 22.7211 21.7527 22.7409V24.1669C21.7527 24.2006 21.766 24.2329 21.7899 24.2567C21.8137 24.2805 21.846 24.2939 21.8797 24.2939L22.8632 24.2917C22.9537 24.2917 23.0012 24.2465 23.0056 24.1559C23.0275 23.6828 23.0523 23.2097 23.08 22.7366C23.1852 20.8725 24.4227 19.0567 25.8158 17.8104C25.9385 17.7009 25.9173 17.6461 25.7523 17.6461L24.23 17.6417C24.1512 17.6417 24.0734 17.6592 24.0022 17.6929C23.931 17.7266 23.8681 17.7757 23.8182 17.8367C22.942 18.9187 22.3039 20.0533 21.9038 21.2405C21.8717 21.334 21.8067 21.3807 21.7089 21.3807Z" fill="#007EBC"/>
<path d="M20.6635 16.6521C19.6712 16.0935 18.9791 17.2982 20.0261 17.5917C20.7927 17.8042 21.7521 17.9948 21.8397 18.9563C21.9251 19.8829 21.2593 20.4458 20.3546 20.4874C19.3514 20.5334 18.5498 20.1501 18.5235 19.0155C18.522 18.9249 18.5644 18.8665 18.6505 18.8403C18.8243 18.7906 19.0076 18.7724 19.2003 18.7855C19.2347 18.7881 19.2679 18.7991 19.2969 18.8174C19.3259 18.8357 19.3499 18.8609 19.3668 18.8906C19.4354 19.0104 19.4705 19.1425 19.4719 19.2871C19.4719 19.3689 19.5011 19.439 19.5595 19.4974C19.8136 19.7544 20.1714 19.8069 20.6328 19.6551C20.827 19.5923 20.9314 19.4689 20.946 19.2849C20.9964 18.6628 20.3305 18.5161 19.864 18.4066C19.1324 18.2379 18.495 17.6027 18.668 16.8207C18.99 15.351 21.6229 15.4802 21.7718 16.9543C21.778 17.0182 21.7617 17.0823 21.7257 17.1355C21.6897 17.1886 21.6363 17.2276 21.5747 17.2457C21.16 17.3654 20.9044 17.2303 20.808 16.8404C20.7876 16.7572 20.7394 16.6944 20.6635 16.6521Z" fill="white"/>
<path d="M21.9036 21.241C22.3037 20.0538 22.9419 18.9192 23.818 17.8371C23.868 17.7762 23.9308 17.7271 24.002 17.6934C24.0732 17.6597 24.151 17.6422 24.2298 17.6422L25.7521 17.6466C25.9171 17.6466 25.9383 17.7013 25.8157 17.8109C24.4226 19.0572 23.185 20.873 23.0799 22.737C23.0521 23.2102 23.0273 23.6833 23.0054 24.1564C23.001 24.2469 22.9536 24.2922 22.863 24.2922L21.8795 24.2944C21.8458 24.2944 21.8135 24.281 21.7897 24.2572C21.7659 24.2334 21.7525 24.201 21.7525 24.1674V22.7414C21.7525 22.7216 21.7486 22.7019 21.741 22.6836C21.7334 22.6652 21.7223 22.6486 21.7082 22.6345C21.6942 22.6205 21.6775 22.6094 21.6592 22.6018C21.6409 22.5942 21.6212 22.5903 21.6014 22.5903L18.8568 22.5837C18.7517 22.5837 18.6991 22.6363 18.6991 22.7414L18.6925 24.1476C18.6919 24.1868 18.6762 24.2241 18.6488 24.2515C18.6213 24.279 18.5843 24.2944 18.5458 24.2944L17.5929 24.29C17.4995 24.29 17.4484 24.244 17.4396 24.152C17.3542 23.1642 17.398 22.1128 17.0234 21.1906C16.5036 19.9114 15.6793 18.76 14.5505 17.7364C14.4746 17.6692 14.4877 17.6356 14.5899 17.6356L16.2612 17.6422C16.3868 17.6437 16.4905 17.6918 16.5722 17.7868C17.4265 18.8031 18.0778 19.9655 18.5261 21.2739C18.5375 21.3082 18.5598 21.338 18.5896 21.3593C18.6195 21.3805 18.6555 21.392 18.6925 21.3921L21.7087 21.3812C21.8065 21.3812 21.8715 21.3345 21.9036 21.241Z" fill="white"/>
<circle cx="20" cy="20" r="19.5" stroke="black" stroke-opacity="0.05"/>
</svg>
