<svg width="40" height="40" viewBox="0 0 40 40" fill="none" xmlns="http://www.w3.org/2000/svg">
<circle cx="20" cy="20" r="20" fill="#632D00"/>
<path fill-rule="evenodd" clip-rule="evenodd" d="M18.3055 22.5344C18.5293 22.5344 18.9202 22.7204 19.4546 23.2989C22.221 26.3081 25.3341 28.6867 27.9492 30.1243C28.3259 30.3323 28.534 30.4852 28.534 30.6823C28.534 30.832 28.5135 30.9818 28.1872 30.9818C27.5993 30.9818 24.3001 30.3323 23.4268 29.9225C22.552 29.5111 20.6652 27.9805 18.4174 24.106C18.162 23.6678 17.894 23.2895 17.894 22.9395C17.894 22.5896 18.2125 22.5344 18.3055 22.5344Z" fill="#659AD1"/>
<mask id="mask0_14382_19017" style="mask-type:luminance" maskUnits="userSpaceOnUse" x="11" y="9" width="17" height="22">
<path fill-rule="evenodd" clip-rule="evenodd" d="M11 9H27.9559V31H11V9Z" fill="white"/>
</mask>
<g mask="url(#mask0_14382_19017)">
<path fill-rule="evenodd" clip-rule="evenodd" d="M25.7775 11.4603C25.7775 11.4603 26.3244 12.5401 20.9966 13.2904C21.5766 11.6448 21.9597 10.5619 21.9597 10.5619C22.3002 9.57668 21.5372 8.99976 20.9871 8.99976C20.4354 8.99976 20.035 9.4222 19.8065 9.95341L18.2223 13.5789C16.1447 13.7176 14.6031 13.6451 13.9095 13.5757C12.9417 13.478 12.6942 14.0139 12.6942 14.5609C12.6942 15.513 14.373 16.4793 15.4449 16.3737C16.1227 16.309 16.5136 16.2807 17.0637 16.2239L11.1747 29.6886C10.9508 30.193 10.7696 31.0001 11.78 31.0001C12.792 31.0001 15.0681 30.0764 15.4464 29.0061C15.6088 28.5552 16.7816 25.2308 18.0883 21.525C18.733 21.3973 21.1132 21.0316 21.7768 21.0316C22.4042 21.0316 22.7258 21.3138 22.7258 21.6479C22.7258 22.4235 20.8673 24.646 17.2623 27.3904C16.8667 27.6914 17.1945 27.9295 17.3979 27.9295C17.9527 27.9295 20.437 26.2271 21.6696 25.297C23.0221 24.2772 25.3818 21.618 25.3818 19.7516C25.3818 19.0155 25.0555 18.3409 23.577 18.3409C22.1441 18.3409 19.6157 18.6593 19.0766 18.7271C19.4266 17.7324 19.7718 16.7567 20.0949 15.8456C22.8818 15.4594 24.5464 15.2088 25.5252 15.0023C26.873 14.717 27.9559 13.943 27.9559 13.1438C27.9559 11.4414 25.7775 11.4603 25.7775 11.4603Z" fill="white"/>
</g>
<circle cx="20" cy="20" r="19.5" stroke="black" stroke-opacity="0.05"/>
</svg>
