<svg width="40" height="40" viewBox="0 0 40 40" fill="none" xmlns="http://www.w3.org/2000/svg">
<circle cx="20" cy="20" r="20" fill="#9F3038"/>
<path d="M17.1421 19.9154C17.1474 20.971 15.9638 21.8325 14.4985 21.8401C13.0332 21.8483 11.8408 20.9984 11.835 19.9428C11.8297 18.8873 13.0133 18.0257 14.4786 18.0181C15.9439 18.0099 17.1363 18.8598 17.1421 19.9154ZM14.564 20.9791C15.0538 20.9458 15.4179 20.4426 15.3776 19.8546C15.3372 19.2666 14.91 18.8177 14.419 18.851C13.9292 18.8843 13.5651 19.3876 13.6054 19.9756C13.6457 20.5636 14.073 21.0125 14.564 20.9791Z" fill="white"/>
<path d="M25.5444 21.0185C26.0424 21.043 26.5524 21.0461 27.0746 21.0278C27.0831 21.0276 27.0915 21.0257 27.0993 21.0222C27.107 21.0187 27.1141 21.0138 27.1199 21.0076C27.1258 21.0014 27.1304 20.9941 27.1334 20.9861C27.1365 20.9782 27.1379 20.9697 27.1377 20.9612C27.1377 20.7928 27.1166 20.4498 27.1961 20.3019C27.2004 20.2935 27.2064 20.2861 27.2138 20.2803C27.2211 20.2744 27.2297 20.2702 27.2388 20.268C27.3621 20.2335 27.7181 20.1932 27.8028 20.334C27.8317 20.3815 27.8475 20.4357 27.8484 20.4912C27.8554 20.7812 27.8554 21.0839 27.8484 21.3995C27.8437 21.6199 27.6865 21.7502 27.4773 21.7502H22.8546C22.7014 21.7502 22.4805 21.6333 22.5413 21.4516C22.5725 21.3859 22.6155 21.3265 22.6681 21.2762C23.3138 20.5842 23.9982 19.8255 24.7214 19.0002C24.7522 18.9654 24.7798 18.9278 24.8038 18.888C24.8069 18.8829 24.8078 18.8768 24.8063 18.871C24.8049 18.8652 24.8013 18.8602 24.7962 18.857C24.7927 18.8552 24.789 18.8541 24.7851 18.8535C24.309 18.836 23.7886 18.8403 23.224 18.8664C23.2113 18.8654 23.1987 18.8672 23.1869 18.8718C23.1751 18.8763 23.1644 18.8835 23.1557 18.8927C23.1471 18.9018 23.1405 18.9129 23.1367 18.9249C23.1328 18.9369 23.1317 18.9497 23.1334 18.9622C23.1334 19.1372 23.1334 19.3057 23.1334 19.4678C23.1346 19.4918 23.1288 19.5156 23.1168 19.5363C23.1048 19.5571 23.087 19.5739 23.0656 19.5847C22.9844 19.6341 22.8911 19.6599 22.7961 19.6591C22.7011 19.6584 22.6082 19.6312 22.5278 19.5806C22.5033 19.5674 22.4829 19.5476 22.469 19.5234C22.455 19.4993 22.4481 19.4717 22.4489 19.4438C22.4454 19.1352 22.4454 18.8188 22.4489 18.4946C22.4518 18.1036 22.8481 18.1171 23.1439 18.1182C24.6402 18.1256 26.0653 18.1305 27.4194 18.1328C27.7444 18.1328 27.7374 18.3994 27.5649 18.5969C26.8593 19.4047 26.1774 20.1897 25.5192 20.9518C25.4812 20.9939 25.4906 21.0161 25.5444 21.0185Z" fill="white"/>
<path d="M32.7285 20.9949C32.7406 20.878 32.7486 20.7629 32.7525 20.6495C32.7501 20.6192 32.7539 20.5888 32.7638 20.5601C32.7736 20.5313 32.7892 20.5049 32.8096 20.4825C32.8301 20.46 32.8549 20.442 32.8826 20.4295C32.9102 20.417 32.9402 20.4103 32.9705 20.4099C33.1149 20.3941 33.3645 20.3707 33.4212 20.5554C33.4469 20.6359 33.4619 20.7194 33.4656 20.8038C33.4706 20.9597 33.4786 21.1432 33.4895 21.3544C33.4909 21.4057 33.4821 21.4569 33.4635 21.5048C33.445 21.5527 33.4171 21.5964 33.3814 21.6334C33.3458 21.6704 33.3032 21.6999 33.256 21.7202C33.2088 21.7406 33.1581 21.7513 33.1067 21.7518C31.4701 21.7518 29.8589 21.7518 28.273 21.7518C28.235 21.7529 28.1975 21.7429 28.1651 21.723C28.1327 21.703 28.1068 21.6741 28.0906 21.6396C28.0424 21.5589 28.0196 21.4656 28.0253 21.3717C28.0309 21.2779 28.0647 21.1879 28.1222 21.1136C28.1877 21.0207 28.356 21.044 28.4583 21.0283C28.4676 21.0269 28.4762 21.0227 28.4829 21.016C28.4895 21.0094 28.4938 21.0007 28.4951 20.9914C28.5075 20.9061 28.513 20.8199 28.5115 20.7337C28.5002 20.1102 28.4933 19.501 28.491 18.906C28.4915 18.8964 28.4886 18.887 28.4828 18.8794C28.4771 18.8718 28.4688 18.8665 28.4594 18.8645C28.4037 18.8491 28.3465 18.8397 28.2888 18.8364C28.083 18.8242 28.017 18.6611 28.0263 18.4606C28.0369 18.2385 28.1555 18.1274 28.3823 18.1274L32.9781 18.1304C33.1809 18.1304 33.3972 18.173 33.4177 18.4226C33.444 18.7111 33.444 19.0015 33.4177 19.29C33.4145 19.3226 33.3998 19.353 33.3762 19.3757C33.3527 19.3984 33.3218 19.412 33.2891 19.4139C33.1903 19.4197 33.0892 19.4215 32.9846 19.4192C32.7005 19.4121 32.725 19.1041 32.7315 18.9036C32.7315 18.8888 32.7259 18.8745 32.7158 18.8637C32.7057 18.8528 32.6919 18.8462 32.6771 18.8452H32.6742L30.3181 18.8487C30.3101 18.8487 30.3023 18.8519 30.2966 18.8576C30.2909 18.8633 30.2877 18.871 30.2877 18.8791L30.283 19.4718C30.2823 19.4766 30.2826 19.4815 30.2841 19.4861C30.2856 19.4908 30.2881 19.495 30.2915 19.4985C30.295 19.502 30.2991 19.5046 30.3038 19.5061C30.3084 19.5077 30.3133 19.5081 30.3181 19.5074L31.3001 19.5062C31.3345 19.5062 31.3509 19.4899 31.3492 19.4548C31.3416 19.2631 31.4304 19.1626 31.6169 19.1468C31.7758 19.1345 32.0441 19.1281 32.057 19.349C32.0792 19.7243 32.0842 20.072 32.0722 20.3923C32.0628 20.6478 31.6496 20.6045 31.4941 20.5466C31.4696 20.5405 31.4466 20.5296 31.4265 20.5144C31.4063 20.4993 31.3894 20.4803 31.3767 20.4585C31.364 20.4367 31.3558 20.4126 31.3526 20.3876C31.3493 20.3625 31.3512 20.3371 31.3579 20.3128C31.3655 20.2684 31.3468 20.2468 31.2995 20.2468H30.3058C30.3007 20.2471 30.2958 20.2493 30.2921 20.2529C30.2884 20.2566 30.2863 20.2615 30.286 20.2667L30.2825 20.9418C30.2808 20.9529 30.2817 20.9643 30.2853 20.975C30.2888 20.9856 30.2948 20.9954 30.3027 21.0033C30.3107 21.0113 30.3204 21.0173 30.3311 21.0208C30.3418 21.0243 30.3532 21.0253 30.3643 21.0236H32.6824C32.6923 21.0257 32.7026 21.0239 32.7112 21.0186C32.7198 21.0132 32.726 21.0048 32.7285 20.9949Z" fill="white"/>
<path d="M8.72096 21.0219C8.79034 21.0308 8.86027 21.0348 8.93021 21.0336C9.1681 21.0336 9.24174 21.2347 9.22245 21.4667C9.202 21.7169 9.01788 21.7549 8.81331 21.7537C8.14076 21.7494 7.42574 21.7494 6.66824 21.7537C6.63189 21.7545 6.59603 21.7453 6.56452 21.7271C6.533 21.709 6.50703 21.6826 6.48939 21.6509C6.40444 21.4825 6.41321 21.3048 6.51569 21.1178C6.52655 21.0972 6.54263 21.0798 6.56233 21.0674C6.58203 21.055 6.60465 21.048 6.62791 21.0471C6.73809 21.0371 6.84869 21.0326 6.95932 21.0336C6.972 21.0356 6.98497 21.0346 6.99717 21.0306C7.00938 21.0266 7.02048 21.0199 7.02958 21.0108C7.03869 21.0018 7.04553 20.9907 7.04957 20.9785C7.05361 20.9664 7.05473 20.9534 7.05284 20.9407L7.04407 18.9049C7.04463 18.9008 7.04424 18.8966 7.04292 18.8926C7.0416 18.8886 7.03939 18.885 7.03646 18.882C7.03352 18.879 7.02995 18.8767 7.026 18.8753C7.02205 18.8739 7.01783 18.8735 7.01367 18.874L6.61038 18.8687C6.59161 18.8686 6.57319 18.8637 6.55691 18.8543C6.54062 18.845 6.52703 18.8316 6.51744 18.8155C6.43094 18.6723 6.38944 18.3882 6.51218 18.2351C6.52476 18.2197 6.5404 18.2071 6.5581 18.198C6.57581 18.189 6.5952 18.1837 6.61505 18.1825C6.69104 18.1749 6.76644 18.1708 6.84125 18.1696C8.01607 18.1615 9.07555 18.155 10.0197 18.1504C10.3207 18.1504 10.7158 18.1387 10.9835 18.2889C11.5978 18.6349 11.7211 19.3743 11.3138 19.9254C11.3081 19.9321 11.3047 19.9405 11.3042 19.9492C11.3036 19.958 11.306 19.9667 11.3108 19.974C11.431 20.1695 11.4984 20.3928 11.5066 20.6222C11.5066 20.7601 11.5148 20.9021 11.5212 21.0471C11.5223 21.0795 11.5335 21.1108 11.5534 21.1365C11.6346 21.2441 11.8848 21.5117 11.7287 21.6456C11.6793 21.6954 11.6139 21.7264 11.544 21.7333C11.0531 21.7438 10.7314 21.745 10.5791 21.7368C10.2599 21.7198 9.88351 21.5088 9.88877 21.1523C9.88877 21.005 9.88877 20.86 9.88409 20.7157C9.87942 20.5713 9.80227 20.3013 9.63802 20.2779C9.59539 20.272 9.55246 20.2685 9.50944 20.2674C9.24992 20.2615 8.98359 20.2627 8.71044 20.2709C8.70341 20.2713 8.6968 20.2744 8.69193 20.2795C8.68705 20.2846 8.68427 20.2913 8.68414 20.2984L8.68882 20.9869C8.68841 20.9913 8.68894 20.9958 8.69037 21.0001C8.6918 21.0043 8.69411 21.0082 8.69713 21.0115C8.70016 21.0148 8.70384 21.0175 8.70795 21.0193C8.71205 21.021 8.71648 21.022 8.72096 21.0219ZM8.69934 18.9219V19.4783C8.69934 19.4921 8.70482 19.5053 8.71457 19.5151C8.72433 19.5249 8.73756 19.5303 8.75136 19.5303H9.54626C9.631 19.5343 9.71387 19.5046 9.77674 19.4476C9.83961 19.3907 9.87737 19.3111 9.88176 19.2264V19.1761C9.87766 19.0914 9.84022 19.0117 9.77759 18.9544C9.71495 18.8971 9.63222 18.867 9.54743 18.8704H8.75253C8.74565 18.8703 8.7388 18.8715 8.73239 18.874C8.72599 18.8765 8.72014 18.8803 8.71519 18.8851C8.71024 18.8898 8.7063 18.8956 8.70357 18.9019C8.70085 18.9082 8.69941 18.915 8.69934 18.9219Z" fill="white"/>
<path d="M17.5753 21.0077C17.5854 21.0077 17.5955 21.0057 17.6048 21.0018C17.6142 20.9978 17.6227 20.9921 17.6298 20.9849C17.637 20.9776 17.6426 20.969 17.6464 20.9596C17.6501 20.9502 17.652 20.9401 17.6518 20.93L17.646 18.9164C17.6467 18.9102 17.646 18.904 17.644 18.8981C17.6421 18.8922 17.6388 18.8868 17.6345 18.8823C17.6302 18.8777 17.625 18.8742 17.6192 18.8719C17.6134 18.8697 17.6072 18.8687 17.601 18.8691C17.4046 18.8603 17.0703 18.9152 17.051 18.6183C17.0428 18.4944 17.0323 18.2331 17.179 18.187C17.2764 18.1574 17.3776 18.1424 17.4794 18.1425C18.4816 18.1468 19.536 18.1443 20.6427 18.1349C21.0405 18.1322 21.3199 18.1609 21.4808 18.2209C21.7925 18.3378 22.0127 18.5716 22.1413 18.9223C22.2722 19.2776 22.1284 19.6008 21.9391 19.8931C21.9305 19.9064 21.9257 19.9217 21.9249 19.9375C21.9242 19.9533 21.9277 19.9691 21.935 19.9831C22.0568 20.2079 22.1201 20.4598 22.1191 20.7155C22.1098 20.9501 22.1891 21.1796 22.3412 21.3584C22.4984 21.5437 22.3318 21.7149 22.136 21.7149C21.8785 21.7149 21.6104 21.7171 21.3318 21.7214C20.8887 21.7272 20.51 21.5501 20.5135 21.0498C20.5135 20.8248 20.4983 20.5237 20.3855 20.3233C20.3803 20.314 20.3733 20.3059 20.3648 20.2995C20.3564 20.293 20.3467 20.2884 20.3364 20.2859C20.2906 20.2749 20.2438 20.2688 20.1967 20.2677C19.9239 20.2627 19.6471 20.2605 19.3661 20.2613C19.3586 20.2613 19.3514 20.2641 19.3459 20.2692C19.3403 20.2743 19.3369 20.2813 19.3363 20.2888C19.32 20.5141 19.32 20.7403 19.3363 20.9656C19.3367 20.9724 19.3384 20.9791 19.3414 20.9852C19.3444 20.9913 19.3486 20.9967 19.3537 21.0012C19.3588 21.0057 19.3648 21.009 19.3712 21.0112C19.3777 21.0133 19.3845 21.0141 19.3913 21.0135C19.498 21.0048 19.6055 21.0171 19.7075 21.0498C19.7254 21.0555 19.7404 21.0679 19.7496 21.0843C19.7927 21.1567 19.8191 21.2378 19.8268 21.3217C19.8346 21.4057 19.8236 21.4903 19.7946 21.5694C19.7314 21.7564 19.4439 21.736 19.2902 21.7371C18.662 21.7414 18.0164 21.7428 17.3532 21.7412C17.0399 21.7412 16.9925 21.366 17.0937 21.1567C17.1685 20.9925 17.4256 21.0089 17.5753 21.0077ZM19.3287 18.9246L19.3358 19.4705C19.3357 19.4773 19.3371 19.484 19.3397 19.4902C19.3424 19.4965 19.3462 19.5021 19.3511 19.5069C19.3559 19.5116 19.3616 19.5153 19.368 19.5178C19.3743 19.5203 19.381 19.5215 19.3878 19.5214L20.1669 19.512C20.2103 19.5126 20.2535 19.5047 20.2939 19.4886C20.3342 19.4726 20.371 19.4487 20.4022 19.4184C20.4334 19.3881 20.4582 19.352 20.4754 19.3121C20.4926 19.2722 20.5018 19.2293 20.5024 19.1859V19.1812C20.4987 19.0935 20.4605 19.0109 20.3961 18.9513C20.3317 18.8917 20.2464 18.8601 20.1587 18.8632L19.3796 18.8726C19.3728 18.8726 19.3662 18.874 19.3599 18.8767C19.3537 18.8794 19.3481 18.8832 19.3434 18.888C19.3387 18.8929 19.3349 18.8986 19.3324 18.9049C19.3299 18.9111 19.3287 18.9178 19.3287 18.9246Z" fill="white"/>
<path d="M34.1586 17.2922C34.2944 17.2924 34.4245 17.3464 34.5205 17.4424C34.6165 17.5384 34.6705 17.6685 34.6706 17.8043V21.9494C34.6705 22.0852 34.6165 22.2153 34.5205 22.3113C34.4245 22.4073 34.2944 22.4613 34.1586 22.4615H5.76656C5.63087 22.4613 5.50079 22.4073 5.40489 22.3113C5.309 22.2153 5.25513 22.0851 5.25513 21.9494V17.8043C5.25513 17.6686 5.309 17.5384 5.40489 17.4424C5.50079 17.3464 5.63087 17.2924 5.76656 17.2922H34.1586ZM34.1586 17H5.76656C5.66097 17 5.55642 17.0208 5.45887 17.0612C5.36133 17.1017 5.27271 17.1609 5.19807 17.2356C5.12344 17.3103 5.06425 17.399 5.0239 17.4965C4.98354 17.5941 4.96281 17.6987 4.96289 17.8043V21.9494C4.96281 22.055 4.98354 22.1596 5.0239 22.2572C5.06425 22.3547 5.12344 22.4434 5.19807 22.5181C5.27271 22.5928 5.36133 22.652 5.45887 22.6925C5.55642 22.7329 5.66097 22.7537 5.76656 22.7537H34.1586C34.3719 22.7537 34.5765 22.669 34.7273 22.5181C34.8782 22.3673 34.9629 22.1627 34.9629 21.9494V17.8043C34.9629 17.591 34.8782 17.3864 34.7273 17.2356C34.5765 17.0847 34.3719 17 34.1586 17Z" fill="white"/>
<circle cx="20" cy="20" r="19.5" stroke="black" stroke-opacity="0.05"/>
</svg>
