<svg width="40" height="40" viewBox="0 0 40 40" fill="none" xmlns="http://www.w3.org/2000/svg">
<circle cx="20" cy="20" r="20" fill="#F6F8FA"/>
<circle cx="20" cy="20" r="19.5" stroke="black" stroke-opacity="0.05"/>
<path d="M27.6629 20.9375C27.8754 20.225 27.9754 19.5125 27.9754 18.7375C27.9754 14.3125 24.3879 10.725 19.9629 10.725C15.5379 10.725 11.9629 14.3125 11.9629 18.7375C11.9629 19.5 12.0629 20.225 12.2629 20.925L27.6629 20.9375Z" fill="#E6001B"/>
<path d="M31 21.725H9V23.3125H20.7625L13.6 24.4875L13.6125 25.8625L18.825 26.2L16.825 26.6375L16.8 28.175L22.8125 29.275L23.275 27.75L21.1 27.45L25.725 26.5625V25.05L21.475 24.8125L31 23.2625V21.725Z" fill="#E6001B"/>
</svg>
