<svg width="40" height="40" viewBox="0 0 40 40" fill="none" xmlns="http://www.w3.org/2000/svg">
<circle cx="20" cy="20" r="20" fill="#EE1C25"/>
<path d="M20.0371 16.4058L14.8755 29.8008C14.8696 29.816 14.8555 29.8266 14.839 29.8266L9.03886 29.8313C9.01652 29.8313 8.99888 29.8125 9.00006 29.7902C9.00006 29.7855 9.00006 29.7808 9.00241 29.7772L16.4937 10.2363C16.4996 10.221 16.5137 10.2104 16.5302 10.2104H23.6134C23.6299 10.2104 23.6452 10.221 23.651 10.2363L30.9977 29.7796C31.0059 29.8008 30.9953 29.8231 30.9742 29.8313C30.9695 29.8325 30.9648 29.8337 30.9601 29.8337L25.2551 29.816C25.2387 29.816 25.2246 29.8055 25.2187 29.7902L20.1124 16.4058C20.1053 16.3846 20.0818 16.374 20.0618 16.3811C20.05 16.3846 20.0418 16.394 20.0371 16.4058Z" fill="white"/>
<path d="M21.9868 25.3155C21.9245 26.3927 20.9907 27.216 19.9017 27.1536C18.8127 27.0913 17.9801 26.1658 18.0413 25.0885C18.1036 24.0113 19.0373 23.1881 20.1264 23.2504C21.2154 23.3127 22.048 24.2383 21.9868 25.3155Z" fill="white"/>
<circle cx="20" cy="20" r="19.5" stroke="black" stroke-opacity="0.05"/>
</svg>
