<svg width="40" height="40" viewBox="0 0 40 40" fill="none" xmlns="http://www.w3.org/2000/svg">
<circle cx="20" cy="20" r="20" fill="#05A2B1"/>
<path d="M16.8208 18.3501V20.3161C16.8208 20.3358 16.8065 20.351 16.7868 20.351L15.8933 20.3528C15.8736 20.3528 15.8584 20.3376 15.8584 20.3179V16.5139C15.8584 16.4942 15.8736 16.479 15.8933 16.479H16.7868C16.8065 16.4799 16.8217 16.4951 16.8217 16.5148V17.453C16.8217 17.4727 16.836 17.488 16.8557 17.488H17.8172C17.8369 17.488 17.8521 17.5032 17.8521 17.5229L17.8494 18.2803C17.8494 18.3 17.8342 18.3152 17.8145 18.3152H16.8557C16.836 18.3152 16.8208 18.3304 16.8208 18.3501Z" fill="white"/>
<path d="M34.1894 17.2856C34.1894 17.2606 34.1697 17.24 34.1446 17.24H18.4579C18.4427 17.2391 18.4355 17.231 18.4355 17.2158V16.5023C18.4355 16.4853 18.4427 16.4772 18.4597 16.4781C23.5475 16.4808 28.6612 16.4799 33.8008 16.4736C34.4875 16.4736 35.004 16.6303 35.0005 17.4011C34.9915 19.1352 34.9897 20.881 34.996 22.6393C34.9978 23.3662 34.6611 23.667 33.9396 23.6661C31.9476 23.6634 30.0094 23.6625 28.1258 23.6634C28.1088 23.6634 28.0998 23.6545 28.0998 23.6375L28.1052 22.9427C28.1052 22.9311 28.1115 22.9248 28.1231 22.9248H34.1455C34.1705 22.9248 34.1902 22.9043 34.1902 22.8792V17.2856H34.1894Z" fill="#F58122"/>
<path d="M8.33186 17.4637C8.39722 17.4198 8.39005 17.3974 8.31127 17.3974H5.78576C5.77233 17.3983 5.76158 17.3876 5.76158 17.3742L5.76606 16.6347C5.76606 16.6195 5.77412 16.6123 5.78844 16.6123L10.288 16.6141C10.3381 16.6141 10.382 16.6481 10.3954 16.6965C10.4062 16.7376 10.399 16.7761 10.3748 16.8128C10.0642 17.2739 9.67833 17.6526 9.21637 17.9489C9.16176 17.9838 9.16534 18.0134 9.22622 18.0358L10.8081 18.6248C10.8386 18.6365 10.8547 18.6705 10.8431 18.7018C10.8413 18.7063 10.8395 18.7099 10.8368 18.7135L10.4536 19.2855C10.4268 19.3249 10.3766 19.341 10.3319 19.324L8.35603 18.5783C8.28352 18.5514 8.2119 18.5541 8.14207 18.5872C7.3999 18.9382 6.61387 19.2085 5.78576 19.3983C5.77233 19.401 5.76338 19.3965 5.7589 19.384L5.46526 18.6777C5.46167 18.6696 5.46526 18.6642 5.47331 18.6624C6.53509 18.4386 7.48764 18.0393 8.33186 17.4637Z" fill="white"/>
<path d="M15.1818 18.4395C15.1872 19.3966 14.3537 20.1763 13.3206 20.1817C12.2874 20.1871 11.4459 19.4163 11.4414 18.4592C11.4361 17.5022 12.2695 16.7224 13.3027 16.7171C14.3358 16.7117 15.1773 17.4825 15.1818 18.4395ZM14.2042 18.4431C14.2006 17.9874 13.7986 17.6204 13.3054 17.624C12.8121 17.6275 12.4146 18 12.4173 18.4557C12.4208 18.9113 12.8228 19.2784 13.3161 19.2748C13.8094 19.2712 14.2069 18.8988 14.2042 18.4431Z" fill="white"/>
<path d="M27.252 22.6286C27.252 22.6456 27.2377 22.6599 27.2207 22.6599H26.5206C26.5036 22.6599 26.4893 22.6456 26.4893 22.6286V18.8577C26.4893 18.8407 26.5036 18.8264 26.5206 18.8264H27.2207C27.2377 18.8264 27.252 18.8407 27.252 18.8577V22.6286Z" fill="white"/>
<path d="M19.8427 19.9043V18.8515C19.8427 18.8362 19.8508 18.8282 19.866 18.8282H20.5365C20.5536 18.8282 20.5616 18.8362 20.5616 18.8524L20.5562 21.3054C20.5562 21.4459 20.4855 21.5166 20.3441 21.5166L18.6117 21.5149C18.5249 21.5149 18.4551 21.445 18.4551 21.3591V18.8497C18.4551 18.8327 18.4631 18.8246 18.4801 18.8255L19.1167 18.8318C19.1364 18.8318 19.1525 18.8479 19.1525 18.8676L19.148 19.9034C19.148 19.9285 19.1677 19.9482 19.1928 19.9482H19.798C19.8275 19.9482 19.8427 19.9338 19.8427 19.9043ZM19.8436 20.5265C19.8436 20.5059 19.8266 20.4889 19.806 20.4889L19.1883 20.4853C19.1677 20.4853 19.1507 20.5023 19.1507 20.5229L19.1489 20.9401C19.1489 20.9607 19.1659 20.9777 19.1865 20.9777L19.8042 20.9813C19.8248 20.9813 19.8418 20.9643 19.8418 20.9437L19.8436 20.5265Z" fill="white"/>
<path d="M21.7977 20.4611L21.5819 20.4629C21.5604 20.4629 21.5434 20.4799 21.5434 20.5014C21.5434 20.5014 21.5434 20.5014 21.5434 20.5023V21.4996C21.5434 21.5211 21.5273 21.5381 21.5058 21.5381H20.8899C20.8684 21.5381 20.8514 21.5211 20.8514 21.4996L20.8496 18.8657C20.8496 18.8442 20.8666 18.8272 20.8881 18.8272L21.5094 18.8308C21.5309 18.8308 21.5479 18.8478 21.5479 18.8693L21.5407 19.9123C21.5407 19.9338 21.5569 19.9508 21.5783 19.9517C21.5783 19.9517 21.5783 19.9517 21.5792 19.9517L21.795 19.9544C21.8165 19.9544 21.8335 19.9382 21.8344 19.9168C21.8344 19.9168 21.8344 19.9168 21.8344 19.9159V18.8639C21.8344 18.8424 21.8514 18.8254 21.8729 18.8254L22.513 18.8326C22.5345 18.8326 22.5515 18.8496 22.5515 18.8711V21.5023C22.5515 21.5237 22.5336 21.5407 22.5121 21.5407L21.8711 21.5363C21.8496 21.5363 21.8326 21.5193 21.8326 21.4978L21.8371 20.4996C21.8371 20.4781 21.8201 20.4611 21.7986 20.4611C21.7986 20.4611 21.7986 20.4611 21.7977 20.4611Z" fill="white"/>
<path d="M24.4971 20.8585C24.1677 21.2372 23.7791 21.5398 23.3324 21.7663C23.2868 21.7896 23.2492 21.7806 23.2178 21.7403L22.9045 21.3375C22.8696 21.2927 22.8767 21.256 22.9269 21.2283C23.8158 20.7314 24.2903 19.9633 24.3494 18.9257C24.3512 18.8898 24.37 18.8719 24.4058 18.8728L25.0576 18.8755C25.0853 18.8755 25.1077 18.8979 25.1077 18.9257C25.1077 18.9257 25.1077 18.9266 25.1077 18.9274C25.0961 19.3348 25.0271 19.7377 24.9009 20.1351C24.8866 20.1799 24.8973 20.2175 24.9331 20.2488L26.071 21.2426C26.1014 21.2694 26.1023 21.2963 26.0728 21.324L25.6592 21.7135C25.6305 21.7403 25.601 21.7412 25.5705 21.7153L24.5571 20.854C24.5356 20.8352 24.5159 20.837 24.4971 20.8585Z" fill="white"/>
<path d="M7.59803 20.8003C7.61773 20.7099 7.61504 20.6302 7.59087 20.5622C7.57744 20.5272 7.55237 20.5093 7.51388 20.5093H5.02417C5.01074 20.5093 5 20.4977 5 20.4843L5.00985 19.7564C5.00985 19.7502 5.01343 19.7466 5.0197 19.7466L11.3384 19.7484C11.3536 19.7484 11.3617 19.7555 11.3617 19.7708L11.3599 20.4861C11.3599 20.5013 11.3527 20.5093 11.3375 20.5093H8.85676C8.812 20.5093 8.78335 20.5308 8.77171 20.5747C8.75201 20.6481 8.74843 20.7233 8.76097 20.8003C8.76723 20.8343 8.78693 20.8558 8.82005 20.8657C9.38675 21.0259 9.78961 21.3285 10.0304 21.7734C10.436 22.5246 10.0707 23.333 9.36079 23.7421C8.56759 24.1987 7.44673 24.1557 6.73321 23.5622C6.32766 23.2246 6.13339 22.8254 6.1504 22.3661C6.17995 21.5756 6.82363 21.0707 7.54342 20.8594C7.57296 20.8504 7.59176 20.8307 7.59803 20.8003ZM9.14324 22.4171C9.14324 21.9883 8.71083 21.6392 8.17637 21.6383C7.641 21.6374 7.2068 21.9847 7.20591 22.4135C7.20591 22.8424 7.63832 23.1915 8.17278 23.1924C8.70815 23.1933 9.14235 22.846 9.14324 22.4171Z" fill="white"/>
<path d="M16.8451 22.2123C16.8523 23.2132 15.9534 24.0305 14.8379 24.0386C13.7224 24.0467 12.8129 23.2418 12.8057 22.2409C12.7985 21.24 13.6974 20.4227 14.8129 20.4146C15.9284 20.4066 16.8379 21.2114 16.8451 22.2123ZM15.8263 22.2194C15.8227 21.7244 15.3724 21.326 14.82 21.3296C14.2677 21.3331 13.8227 21.7378 13.8263 22.2338C13.8299 22.7288 14.2802 23.1272 14.8326 23.1237C15.3849 23.1201 15.8299 22.7154 15.8263 22.2194Z" fill="white"/>
<path d="M29.4223 20.8979L29.4205 20.6831C29.4205 20.6661 29.433 20.6518 29.4509 20.65L29.6175 20.6365C29.6506 20.6338 29.6667 20.6491 29.6667 20.6822V21.983C29.6676 22.0197 29.6398 22.0501 29.6031 22.0546L29.5064 22.0654C29.4447 22.0716 29.4142 22.0439 29.4169 21.9812L29.4286 21.684C29.4303 21.6473 29.4017 21.6168 29.3659 21.615L29.2173 21.6079C29.1716 21.6052 29.1483 21.581 29.1474 21.5354V21.4512C29.1474 21.4038 29.1698 21.3805 29.2173 21.3805L29.365 21.3823C29.3954 21.3823 29.4205 21.3572 29.4205 21.3259V21.2471C29.4205 21.2032 29.3981 21.18 29.3534 21.1791C29.3229 21.1791 29.2916 21.1782 29.2594 21.1782C29.1743 21.1782 29.117 21.0913 29.1448 21.0125C29.1564 20.9794 29.1868 20.957 29.2218 20.9561L29.3677 20.9543C29.3981 20.9543 29.4223 20.9284 29.4223 20.8979Z" fill="white"/>
<path d="M28.638 21.7404C28.3667 21.7466 28.1411 21.5139 28.134 21.2202C28.1268 20.9257 28.3408 20.6822 28.612 20.6759C28.8833 20.6696 29.1089 20.9024 29.1161 21.196C29.1232 21.4906 28.9093 21.7341 28.638 21.7404ZM28.6165 21.5049C28.7436 21.5076 28.8502 21.3751 28.8529 21.2104C28.8564 21.0456 28.7553 20.9096 28.6273 20.9069C28.5001 20.9042 28.3936 21.0367 28.3909 21.2014C28.3873 21.3661 28.4885 21.5022 28.6165 21.5049Z" fill="white"/>
<path d="M30.6001 21.7171H30.0316C30.0039 21.7171 29.9815 21.6938 29.9815 21.6661V21.5425C29.9806 21.5148 30.003 21.4924 30.0307 21.4924H31.0379C31.0629 21.4924 31.0844 21.4745 31.0871 21.4494L31.1471 20.9911C31.1507 20.9633 31.131 20.9383 31.1032 20.9347C31.1014 20.9347 31.0987 20.9347 31.097 20.9347H30.1811C30.1534 20.9347 30.1319 20.9132 30.131 20.8854L30.1283 20.7628C30.1283 20.735 30.1498 20.7126 30.1775 20.7118C30.1775 20.7118 30.1775 20.7118 30.1784 20.7118L31.3593 20.7073C31.387 20.7073 31.4094 20.7297 31.4094 20.7574C31.4094 20.7592 31.4094 20.7601 31.4094 20.7619L31.3503 21.4396C31.3476 21.4673 31.3682 21.4915 31.396 21.4942C31.3978 21.4942 31.3987 21.4942 31.4005 21.4942H31.5446C31.5723 21.4924 31.5947 21.5148 31.5956 21.5425C31.5956 21.5425 31.5956 21.5425 31.5956 21.5434V21.6643C31.5974 21.6921 31.575 21.7144 31.5473 21.7153C31.5473 21.7153 31.5473 21.7153 31.5464 21.7153L30.9501 21.7171C30.9224 21.7171 30.9 21.7395 30.9 21.7673V22.4074C30.8991 22.4351 30.8767 22.4575 30.849 22.4575C30.8463 22.4575 30.8427 22.4575 30.84 22.4575L30.6941 22.4315C30.6699 22.4271 30.6529 22.4065 30.6529 22.3823L30.6502 21.7682C30.6502 21.7404 30.6278 21.718 30.6001 21.718V21.7171Z" fill="white"/>
<path d="M32.5826 21.2498C32.4278 21.4414 32.2729 21.607 32.0321 21.6912C31.9586 21.7171 31.9022 21.6966 31.862 21.6303L31.8315 21.5784C31.7993 21.5247 31.8127 21.4871 31.8718 21.4656C32.2344 21.3331 32.4421 21.0932 32.4967 20.7449C32.5021 20.7109 32.5218 20.6957 32.5558 20.6992L32.6928 20.7127C32.7241 20.7163 32.7429 20.7333 32.7492 20.7646C32.8235 21.129 33.0312 21.3635 33.3714 21.4665C33.4367 21.4871 33.4501 21.5247 33.4116 21.5811L33.3848 21.6196C33.3382 21.6849 33.2532 21.7109 33.1789 21.6813C32.9595 21.5945 32.7868 21.4522 32.6596 21.2543C32.6363 21.2176 32.6104 21.2158 32.5826 21.2498Z" fill="white"/>
<path d="M32.7981 22.052H33.4284C33.4731 22.0529 33.4955 22.0753 33.4955 22.1209V22.1657C33.4955 22.2427 33.4579 22.2812 33.3818 22.2812L31.8402 22.2785C31.7945 22.2785 31.7721 22.2561 31.7712 22.2114L31.7686 22.0995C31.7686 22.0681 31.7829 22.0529 31.8142 22.052L32.414 22.0475C32.4597 22.0475 32.4964 22.0099 32.4955 21.9643C32.4955 21.9598 32.4955 21.9553 32.4946 21.9517C32.4722 21.8246 32.4749 21.7091 32.5018 21.6044C32.5107 21.5686 32.5412 21.5426 32.5779 21.5372C32.6558 21.5274 32.7354 21.5721 32.7354 21.6581C32.7354 21.7718 32.7363 21.8828 32.7372 21.9911C32.7372 22.0314 32.7578 22.052 32.7981 22.052Z" fill="white"/>
<path d="M28.7114 22.2094L29.6416 22.213C29.6666 22.213 29.6872 22.2309 29.6908 22.256L29.7051 22.3778C29.7078 22.4046 29.689 22.4288 29.6613 22.4324C29.6595 22.4324 29.6577 22.4324 29.6559 22.4324L28.4643 22.435C28.4375 22.435 28.4151 22.4127 28.4151 22.3858V21.8791C28.4142 21.8522 28.4348 21.8308 28.4616 21.8299L28.6129 21.8236C28.6398 21.8218 28.6631 21.8433 28.6648 21.8701C28.6648 21.871 28.6648 21.8728 28.6648 21.8737L28.6622 22.1602C28.6622 22.1871 28.6845 22.2094 28.7114 22.2094Z" fill="white"/>
<path d="M21.755 22.5004H19.1579C19.1382 22.4986 19.1221 22.4825 19.1221 22.4628L19.1283 21.9543C19.1283 21.9346 19.1445 21.9194 19.1641 21.9185H22.5151C22.5357 21.9185 22.5518 21.9337 22.5518 21.9543V23.6508C22.5518 23.6714 22.5348 23.6875 22.5142 23.6875H21.8257C21.8051 23.6875 21.789 23.6714 21.789 23.6508L21.7917 22.5371C21.7917 22.5165 21.7756 22.5004 21.755 22.5004Z" fill="white"/>
<path d="M24.6659 23.1056H27.2487C27.2783 23.1047 27.2926 23.1191 27.2935 23.1477L27.3015 23.6124C27.3015 23.6473 27.2854 23.6652 27.2505 23.6652L24.0956 23.6634C23.973 23.6634 23.8736 23.564 23.8727 23.4414L23.8691 21.9857C23.8691 21.9731 23.8799 21.9624 23.8933 21.9624H24.5871C24.6024 21.9624 24.6095 21.9705 24.6095 21.9857V23.0492C24.6095 23.0868 24.6292 23.1056 24.6659 23.1056Z" fill="white"/>
<circle cx="20" cy="20" r="19.5" stroke="black" stroke-opacity="0.05"/>
</svg>
