<svg width="40" height="40" viewBox="0 0 40 40" fill="none" xmlns="http://www.w3.org/2000/svg">
<ellipse cx="19.9815" cy="20" rx="19.9815" ry="20" fill="#F6F8FA"/>
<path d="M20.4159 10C17.7048 12.1408 18.0181 15.8774 18.0181 15.8774H21.6357C20.9548 13.0969 22.5797 11.1554 22.5797 11.1554C24.1518 11.4174 29.5517 16.3498 26.512 21.5443C23.4723 26.7387 18.0195 25.4801 18.0195 25.4801C25.6208 24.7456 26.0399 17.6098 26.0399 17.6098H23.5238C23.4709 20.7052 21.3739 22.3317 21.3739 22.3317C20.9019 22.1742 17.2592 20.2732 16.8137 16.0878C16.428 12.4864 18.6322 10.3707 19.0095 10.0362C18.1588 10.1185 17.3386 10.3066 16.563 10.5895C15.9141 11.3352 13.9745 13.8829 14.7654 16.8739C15.7095 20.4418 19.4314 22.6453 20.8462 23.0132C20.8462 23.0132 17.9624 26.1087 14.0845 23.6432C14.0845 23.6432 17.1506 25.0885 19.7461 23.1707C19.7461 23.1707 14.0845 20.8098 14.0845 15.7728C14.0845 13.915 14.6554 12.3512 15.3753 11.1164C12.1768 12.7819 9.99072 16.1296 9.99072 19.9889C9.99072 25.5122 14.4632 29.9888 19.9815 29.9888C25.4997 29.9888 29.9722 25.5122 29.9722 19.9889C29.9722 14.4655 25.7322 10.2272 20.4159 10Z" fill="url(#paint0_radial_17752_43885)"/>
<path d="M20.0186 0.5C30.7774 0.5 39.5 9.23001 39.5 20C39.5 30.77 30.7774 39.5 20.0186 39.5C9.25969 39.5 0.537109 30.77 0.537109 20C0.537109 9.23002 9.25969 0.500009 20.0186 0.5Z" stroke="black" stroke-opacity="0.05"/>
<defs>
<radialGradient id="paint0_radial_17752_43885" cx="0" cy="0" r="1" gradientTransform="matrix(-8.49212 16 -12.2628 -6.52066 23.9777 13)" gradientUnits="userSpaceOnUse">
<stop offset="0.03" stop-color="#FFCC31"/>
<stop offset="0.69" stop-color="#FCB316"/>
<stop offset="1" stop-color="#A45223"/>
</radialGradient>
</defs>
</svg>
