<svg width="40" height="40" viewBox="0 0 40 40" fill="none" xmlns="http://www.w3.org/2000/svg">
<circle cx="20" cy="20" r="20" fill="#DC1B24"/>
<g clip-path="url(#clip0_24563_41712)">
<path d="M29.7216 21.3374C30.1984 21.178 30.6405 20.9788 31.0566 20.7478C31.8194 20.3175 32.5389 19.8633 33.2237 19.3852C34.1079 18.7637 34.6453 17.5685 33.3537 16.9549C32.851 16.7159 32.3308 16.5645 31.7934 16.4928C31.7761 16.4928 31.7674 16.4848 31.7674 16.4689C31.7674 16.4689 31.7674 16.445 31.7847 16.445C33.4057 16.3493 34.9487 16.5087 36.4137 16.9071C36.7951 17.0107 37.1592 17.178 37.4972 17.4091C37.9653 17.7278 38.104 18.1501 37.9046 18.6681C37.8526 18.8115 37.6619 19.0027 37.3412 19.2338C36.275 20.0227 34.836 20.5804 33.5878 20.9948C29.5309 22.3334 25.3701 23.2816 21.1052 23.8553C21.0966 23.8553 21.0879 23.8553 21.0879 23.8474V23.8155C23.7491 23.194 26.3756 22.4689 28.9588 21.6322C29.0108 21.6163 29.0282 21.5844 29.0108 21.5366L28.5948 20.4211C28.5948 20.4211 28.5601 20.3892 28.5341 20.3972C28.5254 20.3972 28.5167 20.4051 28.5081 20.4131L27.5892 21.7597C27.5892 21.7597 27.5372 21.7916 27.5112 21.7756C27.5112 21.7756 27.4939 21.7677 27.4939 21.7597L26.5403 20.4131C26.5403 20.4131 26.5057 20.3892 26.4883 20.4051C26.4797 20.4051 26.471 20.4211 26.471 20.429L26.0549 21.8235C26.0549 21.8235 26.0289 21.8553 26.0116 21.8553H25.4134C25.4134 21.8553 25.3874 21.8394 25.3961 21.8235L26.3843 18.8832C26.4103 18.8195 26.4363 18.8195 26.4623 18.8832L27.4939 20.692C27.4939 20.692 27.5372 20.7239 27.5719 20.7079C27.5805 20.7079 27.5892 20.692 27.5979 20.684L28.6034 18.8832C28.6034 18.8832 28.6381 18.8593 28.6554 18.8673C28.6641 18.8673 28.6728 18.8832 28.6728 18.8912L29.609 21.2976C29.6263 21.3533 29.6696 21.3693 29.7303 21.3533L29.7216 21.3374Z" fill="white"/>
<path d="M11.2407 19.2177C11.492 19.7038 11.7174 20.1898 11.8995 20.652C11.9081 20.6759 11.9341 20.6839 11.9601 20.6759C11.9688 20.6759 11.9775 20.6679 11.9861 20.652L12.8617 19.0265C12.8617 19.0265 12.8877 19.0026 12.905 19.0026H13.7025C13.7025 19.0026 13.7198 19.0026 13.7198 19.0185L11.9948 22.0385C11.9948 22.0385 11.9601 22.0624 11.9341 22.0544C11.9341 22.0544 11.9168 22.0464 11.9168 22.0385L10.5125 19.4727C10.5125 19.4727 10.4605 19.4249 10.4172 19.4408C9.10822 19.895 8.08535 20.5723 6.98445 21.2974C6.49035 21.6161 6.01359 22.0544 5.9009 22.6122C5.80555 23.0902 5.95291 23.4568 6.34299 23.7197C6.84576 24.0464 7.46122 24.2456 8.07668 24.3333C8.31072 24.3651 8.30206 24.3891 8.07668 24.405C6.44701 24.4847 4.90403 24.3173 3.44773 23.895C3.11833 23.7994 2.78026 23.6321 2.4422 23.401C2.06078 23.1301 1.92209 22.7875 2.02611 22.3572C2.2775 21.3134 5.25077 20.2217 6.23897 19.895C10.2611 18.5564 14.422 17.5922 18.7215 16.9946C18.7388 16.9946 18.7562 16.9946 18.7562 17.0185C18.7562 17.0185 18.7562 17.0424 18.7388 17.0504C16.225 17.648 13.7372 18.3412 11.284 19.1221C11.232 19.1381 11.2146 19.1699 11.2407 19.2177Z" fill="white"/>
<path d="M16.8405 19.5921C16.7104 19.887 16.9532 20.0543 17.2305 20.1101C17.6813 20.2057 18.1321 20.3013 18.2968 20.7555C18.7562 22.0384 16.277 22.5085 16.0083 21.0264C16.0083 21.0025 16.0083 20.9866 16.043 20.9866H16.6498C16.6498 20.9866 16.6844 21.0025 16.6844 21.0184C16.7711 21.4089 17.3606 21.5603 17.5946 21.2176C17.6813 21.0822 17.638 20.9069 17.4993 20.8272C17.4993 20.8272 17.4819 20.8192 17.4733 20.8113C17.2826 20.7236 17.0745 20.6519 16.8665 20.6041C15.8696 20.3571 15.8956 19.1539 16.7971 18.8591C17.4906 18.628 18.2274 18.8989 18.3228 19.632C18.3228 19.6718 18.2968 19.7037 18.2621 19.7037C18.2621 19.7037 18.2621 19.7037 18.2534 19.7037H17.82C17.7593 19.7037 17.7073 19.6798 17.6726 19.632C17.5426 19.4168 17.3259 19.3531 17.0312 19.4408C16.9445 19.4647 16.8838 19.5204 16.8491 19.6001L16.8405 19.5921Z" fill="white"/>
<path d="M20.8193 19.5444C20.7152 19.3691 20.4118 19.3851 20.2385 19.4329C20.1431 19.4568 20.0738 19.5285 20.0478 19.6162C19.9784 19.8313 20.0478 19.9747 20.2645 20.0464C20.5939 20.166 20.984 20.1819 21.2527 20.405C21.4954 20.5962 21.5907 20.8512 21.5474 21.162C21.4607 21.7675 20.7759 21.9907 20.1865 21.9189C19.6577 21.8632 19.337 21.5683 19.2243 21.0584C19.2156 21.0106 19.2329 20.9867 19.2936 20.9867H19.8224C19.8744 20.9867 19.9091 21.0106 19.9177 21.0584C20.0044 21.4169 20.5159 21.5046 20.7672 21.2735C20.8973 21.162 20.8973 20.9707 20.7672 20.8512C20.7326 20.8193 20.6892 20.7954 20.6459 20.7795C20.1431 20.6122 19.519 20.5245 19.3716 19.9667C19.0336 18.6281 21.3654 18.2695 21.5387 19.6241C21.5387 19.6719 21.5214 19.7038 21.4607 19.7038H21.0273C20.9753 19.7038 20.9319 19.6879 20.8973 19.648C20.8713 19.6162 20.8453 19.5843 20.8193 19.5444Z" fill="white"/>
<path d="M23.3417 21.2097H24.6159C24.6159 21.2097 24.6593 21.2257 24.6593 21.2496V21.7914C24.6593 21.8153 24.642 21.8313 24.6159 21.8313L22.5702 21.8631C22.5702 21.8631 22.5269 21.8472 22.5269 21.8233V19.0105C22.5269 19.0105 22.5529 18.9707 22.5702 18.9707L24.6073 19.0105C24.6073 19.0105 24.6506 19.0265 24.6506 19.0504V19.5842C24.6506 19.5842 24.6246 19.6241 24.6073 19.6241H23.3417C23.3417 19.6241 23.2983 19.64 23.2983 19.6639V20.0623C23.2983 20.0623 23.3157 20.1022 23.3417 20.1022H24.3646C24.3646 20.1022 24.4079 20.1181 24.4079 20.142V20.6839C24.4079 20.6839 24.3906 20.7237 24.3646 20.7237H23.3417C23.3417 20.7237 23.2983 20.7396 23.2983 20.7635V21.146C23.2983 21.1699 23.3157 21.1858 23.3417 21.1858V21.2097Z" fill="white"/>
<path d="M14.9768 19.0107H14.3353C14.3114 19.0107 14.292 19.0286 14.292 19.0506V21.8554C14.292 21.8774 14.3114 21.8952 14.3353 21.8952H14.9768C15.0007 21.8952 15.0201 21.8774 15.0201 21.8554V19.0506C15.0201 19.0286 15.0007 19.0107 14.9768 19.0107Z" fill="white"/>
</g>
<circle cx="20" cy="20" r="19.5" stroke="black" stroke-opacity="0.05"/>
<defs>
<clipPath id="clip0_24563_41712">
<rect width="36" height="8" fill="white" transform="translate(2 16.4209)"/>
</clipPath>
</defs>
</svg>
