<svg width="40" height="40" viewBox="0 0 40 40" fill="none" xmlns="http://www.w3.org/2000/svg">
<circle cx="20" cy="20" r="20" fill="#F6F8FA"/>
<circle cx="20" cy="20" r="19.5" stroke="black" stroke-opacity="0.05"/>
<g clip-path="url(#clip0_18553_55647)">
<path d="M20.5246 17.8791C29.5191 17.8791 36.0352 20.6046 36.0352 20.6046C29.719 16.9962 20.4246 16.9962 20.4246 16.9962C12.8292 16.9962 7.59239 18.9539 7.59239 18.9539V16.5931H12.1496V15.1536L5.81347 15V19.5873C4.47428 20.1823 3.03516 21.1036 3.03516 21.1036C11.3301 17.3225 20.5246 17.8599 20.5246 17.8599V17.8791Z" fill="url(#paint0_linear_18553_55647)"/>
<path d="M13.249 19.2036H9.25146C9.25146 19.2036 6.99283 19.7027 5.85352 20.2017V24.7698H7.55249V20.2593H12.4895C12.4895 20.2593 14.1285 20.2209 14.1285 20.9119C14.1285 20.9119 14.3883 21.7372 12.5894 21.7372H10.9904L13.7687 24.789H15.5676L13.4689 22.6009C13.4689 22.6009 15.7875 22.3898 15.7875 21.0462C15.7875 21.0462 15.9874 19.2036 13.269 19.2036H13.249Z" fill="#58595B"/>
<path d="M23.6227 21.2764H17.5664V22.0825H19.885V24.9232H21.3241V22.0825H23.6227V21.2764Z" fill="#808285"/>
<path d="M32.6173 22.2363L30.4586 23.3496V19.3189C30.2187 19.2421 29.2793 19.0693 29.2793 19.0693V25.0002H30.4986V24.2709L31.2981 23.8294L32.6373 24.981H33.9565L32.1176 23.388L34.1563 22.2363H32.6373H32.6173Z" fill="#808285"/>
<path d="M27.3204 23.9636L28.3398 24.0211C28.1799 24.2898 27.86 24.501 27.4203 24.6545C26.9806 24.7889 26.4409 24.8657 25.7813 24.8657C24.9618 24.8657 24.3022 24.7505 23.8025 24.5202C23.3028 24.2898 23.043 23.9636 23.043 23.5221C23.043 23.0806 23.3028 22.7351 23.8025 22.4856C24.3222 22.2553 24.9618 22.1401 25.7413 22.1401C26.5209 22.1401 27.1205 22.2553 27.6202 22.4856C28.1199 22.716 28.3597 23.0614 28.3597 23.4837V23.5989H24.0424C24.0823 23.8868 24.2622 24.1171 24.582 24.2515C24.9018 24.405 25.3016 24.4818 25.7813 24.4818C26.5209 24.4818 27.0206 24.309 27.3004 23.9444L27.3204 23.9636ZM24.1223 23.2534H27.3404C27.3004 23.0231 27.1605 22.8503 26.9406 22.7543C26.6208 22.6008 26.221 22.5048 25.7413 22.5048C25.3016 22.5048 24.9218 22.5816 24.622 22.716C24.3222 22.8503 24.1423 23.0231 24.1023 23.2534H24.1223Z" fill="#808285"/>
</g>
<defs>
<linearGradient id="paint0_linear_18553_55647" x1="3.03516" y1="18.0518" x2="36.0352" y2="18.0518" gradientUnits="userSpaceOnUse">
<stop stop-color="#0066B3"/>
<stop offset="0.51" stop-color="#00AEEF"/>
<stop offset="1" stop-color="#ABE1FA"/>
</linearGradient>
<clipPath id="clip0_18553_55647">
<rect width="33" height="10" fill="white" transform="translate(3.03516 15)"/>
</clipPath>
</defs>
</svg>
