<svg width="40" height="40" viewBox="0 0 40 40" fill="none" xmlns="http://www.w3.org/2000/svg">
<circle cx="20" cy="20" r="20" fill="#0A3217"/>
<path d="M5.33008 19.7961L5.7438 18.9028C5.75663 18.8755 5.7887 18.8643 5.81596 18.8771C5.82879 18.8835 5.8368 18.8932 5.84322 18.9044L6.22486 19.8121C6.23609 19.8394 6.22326 19.8714 6.196 19.8827C6.18959 19.8859 6.18157 19.8875 6.17355 19.8875L5.37819 19.873C5.34772 19.873 5.32367 19.8474 5.32527 19.8169C5.32527 19.8089 5.32687 19.8025 5.33008 19.7961Z" fill="#0A3217"/>
<path d="M18.4621 19.8215C18.4621 20.2801 18.09 20.6522 17.6314 20.6522C17.1728 20.6522 16.8008 20.2801 16.8008 19.8215C16.8008 19.3628 17.1728 18.9907 17.6314 18.9907C18.09 18.9907 18.4621 19.3628 18.4621 19.8215Z" fill="#0A3217"/>
<path d="M24.9023 19.8332C24.8958 20.2918 24.5046 20.6575 24.0283 20.6495C23.5521 20.643 23.1704 20.2662 23.1768 19.8091C23.1833 19.3504 23.5745 18.9848 24.0508 18.9928C24.527 18.9992 24.9087 19.3761 24.9023 19.8332Z" fill="#0A3217"/>
<path d="M5.32727 18.1844L5.28557 18.1171C5.23747 18.0385 5.25992 18 5.35132 18L6.26534 18.0048C6.34713 18.0048 6.36637 18.0401 6.32628 18.1107L6.28619 18.1796C6.24931 18.2422 6.24771 18.3047 6.27978 18.3705L7.41188 20.6686C7.44556 20.7376 7.49046 20.7985 7.54338 20.8514L7.62516 20.9332C7.71977 21.0278 7.69892 21.0759 7.56582 21.0743L6.67746 21.0695C6.54757 21.0695 6.52993 21.0278 6.62614 20.9492C6.65821 20.9236 6.67746 20.8899 6.68548 20.8482C6.69349 20.7953 6.68387 20.7472 6.6534 20.7023C6.59087 20.6077 6.53634 20.5066 6.49145 20.4008C6.46418 20.3398 6.41768 20.3094 6.35033 20.3094H5.24068C5.16852 20.311 5.1156 20.343 5.08192 20.4056L4.92798 20.6798C4.8927 20.744 4.8927 20.821 4.93119 20.8835L4.97449 20.9573C5.0242 21.0375 5.00014 21.0775 4.90553 21.0775L4.0797 21.0743C3.99311 21.0743 3.97708 21.0407 4.0316 20.9733C4.11498 20.8675 4.17912 20.8226 4.24166 20.6943C4.63133 19.894 4.99694 19.1274 5.3401 18.3929C5.37377 18.3207 5.36896 18.2518 5.32727 18.1844ZM5.33047 19.7962C5.31765 19.8234 5.33047 19.8555 5.35773 19.8683C5.36415 19.8715 5.37217 19.8732 5.37858 19.8732L6.17394 19.8876C6.20441 19.8876 6.22846 19.8635 6.23007 19.8347C6.23007 19.8266 6.23007 19.8202 6.22526 19.8122L5.84361 18.9045C5.83239 18.8772 5.80031 18.8644 5.77145 18.8756C5.75862 18.8804 5.749 18.8901 5.74419 18.9029L5.33047 19.7962Z" fill="#998A05"/>
<path d="M15.026 20.0336C15.0404 20.048 15.0661 20.048 15.0805 20.0336C15.0869 20.0272 15.0917 20.0176 15.0917 20.0079L15.1174 18.85C15.1174 18.834 15.111 18.818 15.1014 18.8051L14.9811 18.6608C14.9266 18.5951 14.9426 18.563 15.0276 18.5614L15.6642 18.5582C15.7268 18.5582 15.7556 18.5902 15.7492 18.6528C15.669 19.4579 15.6706 20.2485 15.754 21.0247C15.7588 21.0616 15.7412 21.0808 15.7027 21.0808L14.9442 21.0728C14.917 21.0728 14.9009 21.0584 14.8977 21.0311C14.8929 20.9894 14.8961 20.9477 14.9089 20.9076C14.9266 20.8499 14.9154 20.7986 14.8721 20.7553L13.772 19.6471C13.6485 19.5204 13.586 19.5461 13.5876 19.7241L13.594 20.704C13.594 20.7633 13.6069 20.821 13.6325 20.8739L13.6742 20.9654C13.7095 21.0423 13.6854 21.0808 13.6004 21.0808H12.9767C12.866 21.0792 12.842 21.0327 12.9029 20.9413L12.967 20.8451C12.9959 20.8002 13.0103 20.7521 13.0103 20.6991L12.9927 18.9126C12.9927 18.8581 12.9767 18.8035 12.9446 18.7586L12.8901 18.6817C12.8339 18.6015 12.8548 18.563 12.9526 18.5646C13.2044 18.5678 13.4706 18.563 13.7544 18.5485C13.8554 18.5437 13.8714 18.5774 13.8041 18.6528C13.7897 18.6704 13.7816 18.6897 13.7832 18.7121C13.7832 18.7811 13.7993 18.8308 13.833 18.8645L15.026 20.0336Z" fill="#998A05"/>
<path d="M19.126 19.8024C19.1309 20.537 18.4654 21.1367 17.6395 21.1416C16.8137 21.148 16.1386 20.5562 16.1338 19.8233C16.129 19.0888 16.7945 18.489 17.6203 18.4842C18.4461 18.4778 19.1212 19.0695 19.126 19.8024ZM18.4622 19.8217C18.4622 19.363 18.0901 18.991 17.6315 18.991C17.1729 18.991 16.8009 19.363 16.8009 19.8217C16.8009 20.2804 17.1729 20.6524 17.6315 20.6524C18.0901 20.6524 18.4622 20.2804 18.4622 19.8217Z" fill="#998A05"/>
<path d="M10.1759 19.8538L9.51207 21.0069C9.49283 21.039 9.45114 21.0502 9.41907 21.031C9.40784 21.0245 9.39983 21.0149 9.39341 21.0053L8.78085 19.8843C8.64295 19.6293 8.57239 19.6469 8.57079 19.9372L8.56758 20.6862C8.56758 20.7503 8.58522 20.8128 8.6189 20.8674L8.68785 20.9764C8.72954 21.0438 8.7103 21.0775 8.63012 21.0775H7.99191C7.89409 21.0807 7.86523 21.0358 7.90692 20.946L7.94861 20.8561C7.97427 20.8 7.98549 20.7423 7.98389 20.6813C7.96946 20.1409 7.96946 19.5876 7.9871 19.0199C7.9903 18.9092 7.96785 18.7649 7.90532 18.6719C7.85561 18.5981 7.87645 18.5612 7.96465 18.5612H8.83377C8.89791 18.5596 8.92036 18.5901 8.90272 18.6526L8.87546 18.7424C8.85141 18.8194 8.85943 18.8932 8.89791 18.9638L9.44472 19.9645C9.46236 19.9982 9.50406 20.011 9.53773 19.9933C9.55056 19.9869 9.56018 19.9773 9.56659 19.9645C9.74138 19.6437 9.92419 19.3134 10.1118 18.9734C10.1455 18.9108 10.1631 18.8435 10.1615 18.7729C10.1615 18.7392 10.1519 18.7072 10.1343 18.6767C10.091 18.5981 10.115 18.558 10.2048 18.5596L11.0467 18.5628C11.1397 18.5628 11.1669 18.6061 11.1285 18.6911C11.1204 18.7088 11.1108 18.7232 11.098 18.736C11.0515 18.7857 11.029 18.8451 11.029 18.9124L11.013 20.6894C11.013 20.7535 11.0322 20.8177 11.0691 20.869L11.1381 20.9684C11.1878 21.0406 11.1701 21.0759 11.0836 21.0759H10.3587C10.2994 21.0791 10.277 21.0502 10.2914 20.9909C10.3924 20.6268 10.4213 20.2628 10.3812 19.8971C10.3571 19.6742 10.2882 19.6598 10.1759 19.8538Z" fill="#998A05"/>
<path d="M11.647 20.8273C11.6967 20.1249 11.6871 19.3824 11.6182 18.5998C11.615 18.5741 11.6262 18.5613 11.6534 18.5613H12.3702C12.3975 18.5613 12.4103 18.5757 12.4071 18.603C12.3157 19.3744 12.3141 20.1714 12.4023 20.9925C12.4071 21.0454 12.3831 21.0727 12.3285 21.0727L11.6518 21.0695C11.5765 21.0695 11.5556 21.0342 11.5909 20.9669C11.5989 20.954 11.6069 20.9412 11.615 20.9284C11.6342 20.8979 11.6454 20.8626 11.647 20.8273Z" fill="#998A05"/>
<path d="M20.4232 20.5448H22.1534C22.1903 20.5448 22.2256 20.5255 22.2448 20.4935C22.2592 20.4694 22.2801 20.455 22.3057 20.4486C22.3619 20.4341 22.3891 20.455 22.3907 20.5127L22.3939 21.0869C22.3939 21.1622 22.3619 21.1799 22.2977 21.1414C22.1935 21.0772 22.054 21.0532 21.9321 21.0548C21.1383 21.0596 20.3654 21.0596 19.6118 21.0548C19.5332 21.0548 19.5139 21.0195 19.5572 20.9537L19.5989 20.8896C19.6358 20.8335 19.6535 20.7725 19.6535 20.7052V18.3381C19.6535 18.2787 19.6342 18.2242 19.5989 18.1745L19.5492 18.1039C19.5043 18.0414 19.5204 18.0109 19.5973 18.0125L20.3606 18.0221C20.4488 18.0221 20.4633 18.0558 20.4071 18.1216C20.3927 18.136 20.3767 18.1488 20.3574 18.1584C20.3318 18.1697 20.3141 18.1969 20.3141 18.2258L20.3173 20.4389C20.3173 20.5095 20.3526 20.5448 20.4232 20.5448Z" fill="white"/>
<path d="M25.5204 19.8218C25.5172 20.5515 24.8534 21.14 24.0371 21.1368C23.2209 21.1336 22.5603 20.5402 22.5635 19.8121C22.5667 19.0824 23.2306 18.4939 24.0468 18.4971C24.863 18.5003 25.5236 19.0937 25.5204 19.8218ZM24.9015 19.833C24.9079 19.3743 24.5262 18.999 24.05 18.9926C23.5737 18.9862 23.1825 19.3519 23.176 19.8089C23.1696 20.2676 23.5513 20.6429 24.0275 20.6493C24.5038 20.6557 24.895 20.29 24.9015 19.833Z" fill="white"/>
<path d="M28.0078 20.1107C27.7881 20.0867 27.5781 20.1059 27.3792 20.1701C27.3151 20.1909 27.283 20.1669 27.283 20.0995V19.7114C27.283 19.6489 27.3119 19.6248 27.3728 19.6392C27.756 19.7242 28.1505 19.7419 28.553 19.6922C28.5899 19.6874 28.6268 19.6922 28.6669 19.7034C28.7679 19.7323 28.7695 19.7659 28.6717 19.8044C28.6621 19.8092 28.654 19.8141 28.646 19.8221C28.6284 19.8413 28.6156 19.8638 28.6075 19.8878C28.5081 20.1733 28.5306 20.4379 28.6733 20.6817C28.6973 20.725 28.6877 20.7554 28.6428 20.7747C27.91 21.089 26.9815 21.3536 26.2663 20.8148C25.9857 20.6031 25.8334 20.2952 25.8109 19.8926C25.7452 18.6706 27.0745 18.2937 28.0078 18.6385C28.1425 18.6882 28.2804 18.7155 28.4231 18.7203C28.4809 18.7219 28.4985 18.7508 28.4744 18.8037L28.2612 19.2864C28.2323 19.3522 28.1922 19.3602 28.1425 19.3089C27.8138 18.9705 27.1724 18.9272 26.7699 19.1629C26.2984 19.4404 26.284 20.2711 26.818 20.5085C27.2108 20.6833 27.6037 20.6801 27.9966 20.5004C28.0543 20.4732 28.0832 20.4283 28.0848 20.3657V20.1989C28.088 20.146 28.0607 20.1156 28.0078 20.1107Z" fill="white"/>
<path d="M32.7637 20.2872C32.7733 20.2664 32.7781 20.2439 32.7797 20.2199C32.7845 20.1221 32.8134 20.1124 32.8679 20.191L33.1517 20.6016C33.2031 20.6753 33.1854 20.7235 33.0988 20.7475C32.9144 20.8004 32.738 20.8726 32.5681 20.9656C32.2874 21.1196 31.9266 21.1613 31.4889 21.0907C30.1226 20.871 29.927 19.0476 31.2259 18.6097C31.7775 18.4221 32.3307 18.4927 32.8856 18.8182C32.9705 18.8679 33.0347 18.8936 33.1357 18.9016C33.2111 18.9064 33.2271 18.9401 33.1822 19.0011L32.916 19.3635C32.8807 19.4132 32.8407 19.4164 32.7958 19.3747C32.3339 18.9449 31.8304 18.8904 31.2852 19.2127C30.9533 19.4068 30.8731 19.9072 31.0992 20.2279C31.4728 20.7587 32.1704 20.7186 32.6723 20.3931C32.7124 20.3674 32.7444 20.3305 32.7637 20.2872Z" fill="white"/>
<path d="M34.1284 19.1789C34.0739 19.2703 34.1028 19.3874 34.1926 19.4419C34.2166 19.4563 34.2439 19.466 34.2728 19.4692C34.7971 19.5237 36.0046 19.4531 35.9998 20.2774C35.995 21.1386 34.7907 21.2253 34.1974 21.0408C33.9905 20.9751 33.7965 20.9254 33.6137 20.8901C33.5447 20.8772 33.5223 20.8388 33.5447 20.773L33.681 20.3881C33.6971 20.3416 33.7484 20.3175 33.7933 20.3336C33.8029 20.3368 33.8125 20.3416 33.8206 20.3496C34.1284 20.6126 35.0521 20.8452 35.3423 20.4699C35.4097 20.3833 35.3936 20.2582 35.307 20.1908C35.2782 20.1684 35.2445 20.1556 35.2092 20.1508C34.6304 20.0802 33.3058 20.1844 33.5592 19.1404C33.7067 18.5294 34.6079 18.4364 35.089 18.5695C35.3407 18.6384 35.6053 18.717 35.8795 18.802C35.926 18.8165 35.9388 18.8469 35.9164 18.8902L35.7095 19.2863C35.6823 19.3393 35.647 19.3473 35.6021 19.3072C35.2541 19.0025 34.8276 18.9688 34.3594 19.0362C34.2535 19.0506 34.1765 19.0987 34.1284 19.1789Z" fill="white"/>
<path d="M29.1448 18.6078C29.1368 18.595 29.14 18.5789 29.1528 18.5709C29.1576 18.5677 29.1624 18.5661 29.1673 18.5661L29.8905 18.5613C29.9658 18.5613 29.9835 18.5934 29.9434 18.6575C29.8937 18.7361 29.8552 18.8467 29.8536 18.9398C29.8504 19.5075 29.8488 20.0976 29.8504 20.7119C29.8504 20.8113 29.8889 20.9155 29.969 20.9765C30.0412 21.0326 30.0316 21.0599 29.9402 21.0599H29.2073C29.1079 21.0599 29.0935 21.023 29.164 20.9524C29.1753 20.9412 29.1865 20.9284 29.1977 20.9139C29.2314 20.8674 29.2474 20.8177 29.2474 20.7616C29.2458 20.1474 29.2458 19.5412 29.2474 18.9446C29.2474 18.8275 29.2122 18.7152 29.1432 18.6078H29.1448Z" fill="white"/>
<circle cx="20" cy="20" r="19.5" stroke="black" stroke-opacity="0.05"/>
</svg>
