<svg width="40" height="40" viewBox="0 0 40 40" fill="none" xmlns="http://www.w3.org/2000/svg">
<circle cx="20" cy="20" r="20" fill="#3B77B0"/>
<path d="M9.50436 20.1738C10.1921 20.4533 10.7979 19.45 10.1897 19.0212C9.55133 18.5707 8.7576 18.2636 8.89009 17.2964C9.01776 16.3642 9.86449 15.9137 10.7522 16.0137C11.5471 16.1044 11.9068 16.5641 11.8314 17.3928C11.8298 17.4128 11.8185 17.4229 11.7976 17.4229L10.91 17.4205C10.8931 17.4205 10.8855 17.412 10.8871 17.3952C10.975 16.3244 9.50677 16.9158 9.91628 17.5626C10.333 18.2226 11.3014 18.2756 11.4038 19.1934C11.5375 20.3906 10.6088 21.2097 9.44052 21.0916C8.56609 21.0033 8.16983 20.4605 8.25173 19.4632C8.25334 19.4415 8.26498 19.4307 8.28666 19.4307L9.15266 19.4319C9.15662 19.4319 9.16055 19.4327 9.16417 19.4343C9.16779 19.4359 9.17102 19.4383 9.17365 19.4412C9.17627 19.4442 9.17823 19.4477 9.17939 19.4515C9.18055 19.4553 9.18088 19.4593 9.18036 19.4632C9.12737 19.8278 9.23537 20.0646 9.50436 20.1738Z" fill="white"/>
<path d="M14.3072 18.0034L12.6475 21.0194C12.644 21.0256 12.6389 21.0308 12.6328 21.0344C12.6267 21.038 12.6197 21.0399 12.6125 21.0398L11.5647 21.0314C11.5579 21.0313 11.5513 21.0295 11.5454 21.0262C11.5395 21.0228 11.5346 21.018 11.5311 21.0122C11.5276 21.0064 11.5257 20.9998 11.5254 20.9931C11.5252 20.9863 11.5267 20.9796 11.5297 20.9736L14.1518 16.1088C14.1553 16.1026 14.1603 16.0974 14.1665 16.0938C14.1726 16.0902 14.1796 16.0883 14.1868 16.0883L15.1852 16.0896C15.1952 16.0895 15.2048 16.0932 15.2121 16.0999C15.2195 16.1066 15.2241 16.1158 15.225 16.1257L15.7128 20.9929C15.7133 20.9984 15.7126 21.0039 15.7109 21.0092C15.7091 21.0144 15.7062 21.0193 15.7025 21.0233C15.6988 21.0274 15.6942 21.0307 15.6891 21.0329C15.6841 21.0351 15.6786 21.0363 15.673 21.0362L14.7625 21.035C14.7529 21.0348 14.7438 21.0312 14.7367 21.0247C14.7296 21.0183 14.7251 21.0096 14.7239 21.0001L14.3819 18.0179C14.381 18.0094 14.3774 18.0014 14.3716 17.9951C14.3659 17.9889 14.3583 17.9846 14.3499 17.983C14.3415 17.9813 14.3329 17.9825 14.3252 17.9861C14.3175 17.9898 14.3112 17.9959 14.3072 18.0034Z" fill="white"/>
<path d="M18.0943 18.0853H19.7276C19.7339 18.0852 19.7402 18.0865 19.7459 18.0891C19.7517 18.0917 19.7568 18.0956 19.7608 18.1005C19.7649 18.1053 19.7678 18.1111 19.7693 18.1172C19.7708 18.1233 19.771 18.1297 19.7697 18.1359L19.6228 18.8899C19.6208 18.8996 19.6155 18.9082 19.6078 18.9144C19.6001 18.9206 19.5905 18.9238 19.5806 18.9236H17.9185C17.9088 18.9237 17.8995 18.9271 17.892 18.9332C17.8846 18.9394 17.8795 18.9479 17.8775 18.9573L17.6583 20.1076C17.6571 20.1137 17.6572 20.12 17.6587 20.126C17.6602 20.1321 17.663 20.1377 17.6669 20.1426C17.6708 20.1474 17.6757 20.1513 17.6813 20.154C17.6869 20.1567 17.6931 20.1581 17.6993 20.1582H19.3325C19.3386 20.1583 19.3446 20.1597 19.3501 20.1623C19.3556 20.1649 19.3605 20.1687 19.3644 20.1734C19.3683 20.1781 19.3711 20.1836 19.3727 20.1895C19.3742 20.1954 19.3745 20.2016 19.3735 20.2076L19.2337 20.9616C19.2321 20.9712 19.227 20.98 19.2196 20.9864C19.2121 20.9928 19.2026 20.9963 19.1928 20.9965L16.5779 20.9977C16.5717 20.9976 16.5656 20.9962 16.56 20.9935C16.5544 20.9908 16.5494 20.9869 16.5455 20.9821C16.5416 20.9772 16.5388 20.9716 16.5373 20.9655C16.5359 20.9595 16.5357 20.9532 16.537 20.9471L17.456 16.1221C17.4579 16.1126 17.463 16.1041 17.4705 16.098C17.4779 16.0918 17.4873 16.0884 17.4969 16.0883L20.1082 16.0896C20.1143 16.0896 20.1203 16.091 20.1258 16.0937C20.1313 16.0963 20.1362 16.1001 20.14 16.1048C20.1439 16.1095 20.1468 16.115 20.1483 16.1209C20.1499 16.1268 20.1502 16.1329 20.1491 16.1389L20.0094 16.8965C20.0077 16.9062 20.0027 16.915 19.9952 16.9214C19.9878 16.9278 19.9783 16.9313 19.9685 16.9315H18.2979C18.2882 16.9315 18.2789 16.9349 18.2714 16.9411C18.264 16.9472 18.2589 16.9557 18.2569 16.9652L18.0534 18.0347C18.0521 18.0408 18.0523 18.0471 18.0537 18.0532C18.0552 18.0592 18.058 18.0649 18.0619 18.0697C18.0658 18.0745 18.0708 18.0784 18.0764 18.0811C18.082 18.0838 18.0881 18.0853 18.0943 18.0853Z" fill="white"/>
<path d="M22.1263 17.0315L21.282 21.0098C21.2804 21.0172 21.2763 21.0239 21.2704 21.0287C21.2645 21.0335 21.2571 21.0362 21.2495 21.0363L20.1715 21.0351C20.1482 21.0351 20.139 21.0235 20.1438 21.0002L21.1917 16.1547C21.2013 16.1081 21.2298 16.0852 21.2772 16.086C21.9846 16.0908 22.7025 16.0908 23.4308 16.086C23.8102 16.0824 24.157 16.3064 24.2438 16.6846C24.4164 17.445 24.2257 18.0657 23.6717 18.5467C23.6251 18.5877 23.5729 18.621 23.5151 18.6467C23.446 18.6788 23.4151 18.7314 23.4223 18.8045C23.4882 19.5231 23.5536 20.2522 23.6187 20.9917C23.6211 21.0222 23.607 21.0375 23.5765 21.0375L22.5515 21.0351C22.529 21.0351 22.517 21.0239 22.5154 21.0014L22.2817 18.3154C22.2777 18.2673 22.2998 18.242 22.348 18.2396C22.833 18.2107 23.1525 17.9874 23.3067 17.5699C23.5789 16.834 22.619 16.9376 22.2022 16.9653C22.1605 16.9685 22.1352 16.9906 22.1263 17.0315Z" fill="white"/>
<path d="M25.5301 16.722C26.1649 16.0752 27.3224 15.8139 28.0486 16.4474C28.3899 16.7461 28.5316 17.1665 28.4738 17.7085C28.3975 18.4103 28.2883 19.0225 28.1462 19.5453C27.8945 20.4679 27.0032 21.0906 26.0215 21.0352C25.2049 20.9894 24.6172 20.3631 24.6967 19.5332C24.7408 19.0683 24.8203 18.5456 24.9351 17.965C25.0411 17.4318 25.2395 17.0175 25.5301 16.722ZM27.2176 19.4477C27.3681 18.9322 27.4332 18.4095 27.5175 17.8626C27.6981 16.6979 26.3853 16.7015 26.0264 17.5182C25.8875 17.8337 25.7626 18.4392 25.6518 19.3345C25.5879 19.8476 25.8397 20.2474 26.4154 20.1728C26.8241 20.119 27.0915 19.8773 27.2176 19.4477Z" fill="white"/>
<path d="M30.2457 18.2022C30.2369 18.1154 30.2236 18.115 30.206 18.201L29.6375 21.0025C29.6327 21.0258 29.6186 21.0374 29.5953 21.0374L28.5583 21.0362C28.5382 21.0362 28.5302 21.0266 28.5342 21.0073L29.5664 16.1582C29.5761 16.1116 29.605 16.0884 29.6531 16.0884L30.9299 16.0896C30.978 16.0896 31.0061 16.1132 31.0142 16.1606L31.4442 18.7803C31.4715 18.9457 31.4996 18.9457 31.5285 18.7803L31.9958 16.1233C31.9975 16.1134 32.0026 16.1045 32.0101 16.0981C32.0176 16.0917 32.027 16.0882 32.0367 16.0884H32.9798C32.9959 16.0884 33.0023 16.0968 32.9991 16.1136L31.9404 20.9977C31.9348 21.0242 31.9179 21.0374 31.8898 21.0374L30.6179 21.035C30.5721 21.035 30.5468 21.0121 30.542 20.9664L30.2457 18.2022Z" fill="white"/>
<path d="M27.2171 19.4474C27.091 19.877 26.8236 20.1187 26.4149 20.1725C25.8392 20.2471 25.5874 19.8472 25.6513 19.3342C25.7621 18.4388 25.8869 17.8334 26.0259 17.5178C26.3848 16.7012 27.6976 16.6976 27.517 17.8623C27.4327 18.4091 27.3676 18.9319 27.2171 19.4474Z" fill="#3B77B0"/>
<path d="M15.4963 25.8171C15.3326 25.7465 15.188 25.6362 15.0707 25.4922C14.9534 25.3482 14.8657 25.1735 14.8126 24.978C14.7596 24.7824 14.7422 24.57 14.7616 24.3527C14.7809 24.1354 14.8365 23.9175 14.9252 23.7115C15.1043 23.2955 15.4075 22.9531 15.768 22.7596C16.1285 22.5661 16.5168 22.5374 16.8474 22.6798C17.0112 22.7503 17.1558 22.8607 17.2731 23.0047C17.3904 23.1486 17.4781 23.3234 17.5311 23.5189C17.5842 23.7144 17.6015 23.9269 17.5822 24.1442C17.5629 24.3615 17.5073 24.5794 17.4186 24.7853C17.2394 25.2014 16.9363 25.5438 16.5758 25.7373C16.2153 25.9308 15.827 25.9595 15.4963 25.8171ZM15.7192 25.5203C15.8362 25.5612 15.9637 25.5688 16.0943 25.5426C16.2248 25.5164 16.356 25.4568 16.4802 25.3674C16.6045 25.2779 16.7193 25.1603 16.8183 25.0212C16.9173 24.8822 16.9984 24.7244 17.0571 24.5569C17.1755 24.2186 17.1953 23.8614 17.1119 23.5636C17.0285 23.2659 16.8489 23.0521 16.6125 22.9694C16.4955 22.9284 16.368 22.9208 16.2375 22.947C16.1069 22.9733 15.9757 23.0328 15.8515 23.1223C15.7273 23.2117 15.6124 23.3293 15.5134 23.4684C15.4144 23.6074 15.3333 23.7652 15.2746 23.9327C15.1562 24.271 15.1365 24.6283 15.2198 24.926C15.3032 25.2237 15.4828 25.4375 15.7192 25.5203Z" fill="white"/>
<path d="M22.1594 25.8172C21.9956 25.7466 21.8508 25.6362 21.7333 25.4922C21.6159 25.3481 21.5281 25.1733 21.4749 24.9778C21.4218 24.7822 21.4044 24.5697 21.4236 24.3524C21.4429 24.1351 21.4984 23.9172 21.5872 23.7112C21.7663 23.2952 22.0696 22.9528 22.4303 22.7594C22.791 22.566 23.1796 22.5374 23.5105 22.68C23.6744 22.7505 23.8192 22.861 23.9366 23.005C24.0541 23.149 24.1419 23.3238 24.195 23.5194C24.2481 23.715 24.2656 23.9275 24.2463 24.1448C24.2271 24.3621 24.1715 24.58 24.0828 24.786C23.9036 25.202 23.6003 25.5444 23.2396 25.7378C22.8789 25.9312 22.4904 25.9597 22.1594 25.8172ZM22.3811 25.5204C22.4981 25.5614 22.6256 25.569 22.7561 25.5428C22.8867 25.5165 23.0179 25.457 23.1421 25.3675C23.2663 25.2781 23.3812 25.1605 23.4802 25.0214C23.5792 24.8823 23.6603 24.7246 23.719 24.5571C23.8374 24.2188 23.8571 23.8615 23.7738 23.5638C23.6904 23.2661 23.5108 23.0523 23.2744 22.9695C23.1574 22.9285 23.0299 22.9209 22.8994 22.9472C22.7688 22.9734 22.6376 23.033 22.5134 23.1224C22.3892 23.2119 22.2743 23.3295 22.1753 23.4685C22.0763 23.6076 21.9952 23.7654 21.9365 23.9329C21.8181 24.2711 21.7984 24.6284 21.8817 24.9262C21.9651 25.2239 22.1447 25.4376 22.3811 25.5204Z" fill="white"/>
<path d="M8.9101 24.8302H7.90559C7.89754 24.8301 7.88963 24.8323 7.8828 24.8366C7.87597 24.8408 7.8705 24.847 7.86705 24.8542L7.40093 25.8118C7.39748 25.8191 7.39201 25.8252 7.38518 25.8295C7.37835 25.8337 7.37044 25.836 7.36238 25.8359L7.042 25.8371C7.03479 25.837 7.0277 25.8352 7.02142 25.8316C7.01514 25.8281 7.00988 25.823 7.00613 25.8168C7.00239 25.8106 7.00028 25.8036 7.00003 25.7964C6.99977 25.7892 7.00137 25.7821 7.00466 25.7756L8.56924 22.6862C8.57277 22.6794 8.57812 22.6736 8.58471 22.6696C8.59129 22.6655 8.59886 22.6634 8.60658 22.6633L9.00285 22.6621C9.01306 22.662 9.02296 22.6656 9.03071 22.6723C9.03846 22.6789 9.04354 22.6882 9.045 22.6983L9.46415 25.7901C9.46504 25.7962 9.46457 25.8025 9.46277 25.8084C9.46098 25.8143 9.4579 25.8198 9.45376 25.8244C9.44963 25.829 9.44453 25.8326 9.43883 25.835C9.43313 25.8374 9.42697 25.8385 9.42079 25.8383L9.10281 25.8323C9.09263 25.832 9.08287 25.8281 9.07534 25.8213C9.06781 25.8144 9.06302 25.805 9.06186 25.7949L8.95226 24.8675C8.95107 24.8572 8.94611 24.8476 8.93833 24.8408C8.93055 24.8339 8.9205 24.8301 8.9101 24.8302ZM8.05976 24.4592C8.05667 24.4655 8.05524 24.4724 8.05562 24.4794C8.05599 24.4864 8.05816 24.4932 8.0619 24.4991C8.06565 24.5051 8.07085 24.5099 8.07701 24.5133C8.08318 24.5166 8.09009 24.5183 8.0971 24.5182L8.83784 24.5206C8.88601 24.5206 8.90729 24.4965 8.90167 24.4483L8.74509 23.1692C8.73787 23.1066 8.7206 23.1034 8.6933 23.1596L8.05976 24.4592Z" fill="white"/>
<path d="M10.9237 25.5407C11.4055 25.5069 11.6367 25.0818 11.721 24.6578C11.8495 24.0026 11.9732 23.3502 12.092 22.7006C12.0937 22.6902 12.0991 22.6808 12.1073 22.674C12.1154 22.6671 12.1258 22.6633 12.1366 22.6632L12.4606 22.662C12.4758 22.662 12.4823 22.6701 12.4798 22.6861C12.3465 23.5156 12.2056 24.2334 12.0571 24.8397C11.8652 25.6242 11.3734 25.9618 10.5816 25.8526C10.0228 25.7743 9.86378 25.1781 9.94448 24.6843C10.0505 24.0395 10.1705 23.3807 10.3046 22.7078C10.3102 22.6781 10.3287 22.6632 10.36 22.6632L10.6575 22.6608C10.6904 22.66 10.7037 22.6761 10.6973 22.709C10.5656 23.3658 10.4439 24.0307 10.3323 24.7036C10.2588 25.1456 10.4178 25.5756 10.9237 25.5407Z" fill="white"/>
<path d="M13.5954 23.0151H12.7848C12.7787 23.015 12.7727 23.0136 12.7673 23.011C12.7618 23.0083 12.757 23.0045 12.7532 22.9998C12.7494 22.9951 12.7467 22.9895 12.7453 22.9836C12.7439 22.9777 12.7438 22.9716 12.745 22.9657L12.8004 22.6947C12.8024 22.6853 12.8076 22.677 12.815 22.671C12.8225 22.6651 12.8318 22.6619 12.8414 22.6621H14.9636C14.9697 22.6621 14.9756 22.6633 14.9812 22.6658C14.9867 22.6683 14.9915 22.672 14.9955 22.6766C14.9994 22.6812 15.0022 22.6866 15.0038 22.6924C15.0054 22.6983 15.0056 22.7044 15.0046 22.7103L14.954 22.9825C14.9523 22.9919 14.9474 23.0004 14.9402 23.0065C14.9329 23.0127 14.9237 23.0161 14.9142 23.0163L14.0687 23.0139C14.0592 23.014 14.05 23.0174 14.0428 23.0236C14.0355 23.0297 14.0306 23.0382 14.029 23.0476L13.5183 25.8009C13.5166 25.8103 13.5117 25.8188 13.5045 25.8249C13.4972 25.8311 13.488 25.8345 13.4785 25.8347L13.1702 25.8371C13.1642 25.837 13.1584 25.8356 13.153 25.8331C13.1477 25.8305 13.1429 25.8268 13.1392 25.8222C13.1354 25.8176 13.1326 25.8123 13.1311 25.8065C13.1296 25.8008 13.1294 25.7948 13.1304 25.7889L13.6363 23.0632C13.6374 23.0573 13.6371 23.0512 13.6355 23.0453C13.634 23.0395 13.6311 23.0341 13.6272 23.0295C13.6233 23.0249 13.6184 23.0212 13.6129 23.0187C13.6074 23.0162 13.6014 23.015 13.5954 23.0151Z" fill="white"/>
<path d="M18.718 23.2368C18.71 23.142 18.6947 23.1408 18.6722 23.2332L18.0531 25.7999C18.0475 25.8232 18.0331 25.8348 18.0098 25.8348L17.7002 25.8324C17.6967 25.8323 17.6933 25.8314 17.6902 25.8299C17.6871 25.8283 17.6844 25.8262 17.6823 25.8235C17.6802 25.8208 17.6788 25.8177 17.6781 25.8145C17.6775 25.8112 17.6776 25.8079 17.6785 25.8047L18.4638 22.7237C18.4743 22.6836 18.5004 22.6635 18.5421 22.6635H18.871C18.9432 22.6635 18.9838 22.6992 18.9926 22.7707L19.2961 25.1386C19.3017 25.1788 19.3138 25.1808 19.3323 25.1446L20.5825 22.7201C20.6025 22.6807 20.6351 22.6611 20.68 22.6611L21.051 22.6635C21.1024 22.6643 21.1249 22.69 21.1185 22.7406L20.7354 25.8095C20.733 25.8272 20.723 25.836 20.7053 25.836L20.3837 25.8372C20.3613 25.8372 20.3516 25.826 20.3548 25.8035L20.7065 23.1995C20.7162 23.1304 20.7061 23.1276 20.6764 23.191C20.336 23.9209 19.8959 24.7741 19.3563 25.7505C19.3355 25.7882 19.3042 25.8083 19.2624 25.8107L19.1167 25.8191C19.0645 25.8224 19.0344 25.7983 19.0263 25.7469C18.8906 24.874 18.7878 24.0374 18.718 23.2368Z" fill="white"/>
<path d="M25.2922 23.0164L24.4828 23.0152C24.4768 23.0151 24.471 23.0137 24.4656 23.0112C24.4603 23.0086 24.4555 23.0049 24.4517 23.0003C24.448 22.9957 24.4452 22.9904 24.4437 22.9846C24.4422 22.9789 24.442 22.9729 24.443 22.967L24.4948 22.6972C24.4965 22.6878 24.5014 22.6794 24.5086 22.6732C24.5159 22.6671 24.5251 22.6636 24.5346 22.6635L26.6604 22.6611C26.6665 22.661 26.6725 22.6622 26.678 22.6647C26.6835 22.6672 26.6883 22.6709 26.6923 22.6755C26.6962 22.6801 26.699 22.6855 26.7006 22.6914C26.7022 22.6972 26.7024 22.7033 26.7014 22.7093L26.652 22.9815C26.6503 22.9908 26.6454 22.9993 26.6382 23.0055C26.6309 23.0116 26.6218 23.0151 26.6122 23.0152H25.7667C25.7572 23.0153 25.748 23.0188 25.7408 23.0249C25.7335 23.0311 25.7286 23.0395 25.727 23.0489L25.2151 25.8023C25.2134 25.8116 25.2085 25.8201 25.2013 25.8263C25.194 25.8324 25.1848 25.8359 25.1753 25.836L24.867 25.8348C24.8609 25.8349 24.855 25.8337 24.8495 25.8312C24.8439 25.8287 24.8391 25.825 24.8351 25.8204C24.8312 25.8158 24.8284 25.8104 24.8268 25.8045C24.8252 25.7987 24.825 25.7926 24.826 25.7866L25.3331 23.0646C25.3342 23.0586 25.3339 23.0525 25.3323 23.0467C25.3308 23.0408 25.3279 23.0354 25.324 23.0308C25.3201 23.0262 25.3152 23.0225 25.3097 23.02C25.3042 23.0175 25.2982 23.0163 25.2922 23.0164Z" fill="white"/>
<path d="M27.4287 22.7153L26.853 25.8011C26.851 25.8119 26.8451 25.8217 26.8365 25.8285C26.8279 25.8354 26.8171 25.8389 26.806 25.8384L26.5109 25.8288C26.5044 25.8285 26.4979 25.8269 26.492 25.8239C26.4861 25.821 26.4809 25.8168 26.4768 25.8116C26.4727 25.8065 26.4698 25.8005 26.4682 25.7941C26.4666 25.7877 26.4664 25.7811 26.4676 25.7746L27.0397 22.6996C27.0417 22.6892 27.0472 22.6798 27.0553 22.673C27.0634 22.6662 27.0737 22.6624 27.0843 22.6623L27.383 22.6611C27.3898 22.661 27.3965 22.6624 27.4027 22.6652C27.4089 22.668 27.4143 22.6721 27.4187 22.6773C27.4231 22.6825 27.4263 22.6886 27.428 22.6952C27.4297 22.7017 27.43 22.7086 27.4287 22.7153Z" fill="white"/>
<path d="M28.4668 25.3072C28.4671 25.3087 28.4678 25.31 28.4688 25.311C28.4698 25.312 28.4712 25.3127 28.4726 25.313C28.474 25.3132 28.4755 25.3131 28.4768 25.3125C28.4781 25.3119 28.4793 25.3109 28.48 25.3097L29.7748 22.69C29.7784 22.6827 29.7841 22.6766 29.7911 22.6724C29.7981 22.6681 29.8062 22.6659 29.8146 22.6659L30.1891 22.6611C30.1928 22.6611 30.1964 22.6621 30.1996 22.6639C30.2028 22.6657 30.2055 22.6683 30.2075 22.6714C30.2094 22.6745 30.2105 22.6781 30.2107 22.6818C30.2108 22.6854 30.21 22.6891 30.2084 22.6924L28.6342 25.7505C28.6045 25.8075 28.5575 25.836 28.4933 25.836L28.2391 25.8348C28.1869 25.834 28.1576 25.8075 28.1512 25.7553L27.7839 22.7117C27.7798 22.6787 27.7943 22.6623 27.8272 22.6623L28.1524 22.6635C28.1701 22.6635 28.1797 22.6723 28.1813 22.69L28.4668 25.3072Z" fill="white"/>
<path d="M30.52 25.4878H31.6932C31.699 25.4879 31.7047 25.4892 31.7099 25.4917C31.7151 25.4942 31.7197 25.4978 31.7234 25.5023C31.727 25.5068 31.7297 25.512 31.7311 25.5176C31.7326 25.5232 31.7328 25.5291 31.7317 25.5348L31.6787 25.8033C31.677 25.8124 31.6723 25.8206 31.6653 25.8265C31.6582 25.8324 31.6494 25.8357 31.6402 25.8359L30.0599 25.8347C30.0541 25.8348 30.0482 25.8336 30.0429 25.8311C30.0375 25.8287 30.0327 25.8251 30.0289 25.8206C30.0251 25.8161 30.0224 25.8108 30.0209 25.8051C30.0194 25.7994 30.0191 25.7935 30.0202 25.7877L30.5971 22.6947C30.5988 22.6856 30.6036 22.6774 30.6106 22.6715C30.6176 22.6656 30.6265 22.6623 30.6357 22.6621H32.146C32.1519 22.662 32.1578 22.6633 32.1631 22.6657C32.1685 22.6681 32.1732 22.6717 32.1771 22.6762C32.1809 22.6807 32.1836 22.686 32.1851 22.6917C32.1866 22.6974 32.1869 22.7033 32.1858 22.7091L32.1376 22.9741C32.1359 22.9833 32.131 22.9917 32.1237 22.9976C32.1164 23.0036 32.1073 23.0068 32.0979 23.0066L30.9669 23.003C30.9575 23.0028 30.9483 23.006 30.9411 23.012C30.9338 23.0179 30.9289 23.0263 30.9271 23.0355L30.7537 23.9642C30.7526 23.9699 30.7529 23.9759 30.7544 23.9816C30.7559 23.9873 30.7586 23.9926 30.7624 23.9971C30.7662 24.0016 30.771 24.0052 30.7764 24.0076C30.7817 24.01 30.7876 24.0112 30.7934 24.0111L31.8233 24.0123C31.829 24.0124 31.8347 24.0138 31.84 24.0163C31.8452 24.0188 31.8498 24.0224 31.8534 24.0269C31.8571 24.0313 31.8598 24.0366 31.8612 24.0422C31.8626 24.0478 31.8628 24.0536 31.8618 24.0593L31.8172 24.311C31.8155 24.3203 31.8106 24.3286 31.8033 24.3346C31.796 24.3405 31.7869 24.3437 31.7775 24.3436H30.7115C30.7021 24.3434 30.693 24.3466 30.6857 24.3525C30.6784 24.3585 30.6735 24.3668 30.6718 24.3761L30.4815 25.4408C30.4804 25.4465 30.4806 25.4524 30.4821 25.458C30.4835 25.4636 30.4862 25.4688 30.4899 25.4733C30.4935 25.4777 30.4981 25.4813 30.5033 25.4839C30.5086 25.4864 30.5143 25.4877 30.52 25.4878Z" fill="white"/>
<path d="M15.2738 23.9328C15.0272 24.6372 15.2262 25.348 15.7184 25.5203C16.2106 25.6927 16.8096 25.2614 17.0563 24.557C17.303 23.8526 17.1039 23.1418 16.6117 22.9695C16.1195 22.7971 15.5205 23.2284 15.2738 23.9328Z" fill="#3B77B0"/>
<path d="M21.9359 23.9328C21.6893 24.6372 21.8883 25.348 22.3805 25.5203C22.8727 25.6927 23.4717 25.2614 23.7184 24.557C23.9651 23.8526 23.766 23.1418 23.2738 22.9695C22.7816 22.7971 22.1826 23.2284 21.9359 23.9328Z" fill="#3B77B0"/>
<path d="M8.05987 24.4592L8.69341 23.1596C8.72071 23.1034 8.73797 23.1066 8.7452 23.1692L8.90178 24.4483C8.9074 24.4965 8.88612 24.5206 8.83794 24.5206L8.0972 24.5182C8.0902 24.5183 8.08328 24.5166 8.07712 24.5133C8.07096 24.5099 8.06575 24.5051 8.06201 24.4991C8.05826 24.4932 8.0561 24.4864 8.05572 24.4794C8.05535 24.4724 8.05677 24.4655 8.05987 24.4592Z" fill="#3B77B0"/>
<circle cx="20" cy="20" r="19.5" stroke="black" stroke-opacity="0.05"/>
</svg>
