<svg width="40" height="40" viewBox="0 0 40 40" fill="none" xmlns="http://www.w3.org/2000/svg">
<circle cx="20" cy="20" r="20" fill="#E00034"/>
<g clip-path="url(#clip0_18005_40003)">
<path fill-rule="evenodd" clip-rule="evenodd" d="M34 16.1973H30.424L28.4852 18.6101L26.891 16.1973H23.358L26.6325 20.7212L24.0905 23.6079H21.0745L20.9453 23.5648L20.816 23.5218L20.7299 23.3925L20.6437 23.3063L20.5575 23.1771V23.0909L20.5144 22.9186V18.5239H24.1336L22.4102 16.1973H20.5145V14H17.3693V16.1973H9.01076L8.66609 16.2404C6.20664 16.4329 5.25234 19.3439 6.6411 21.1952L6.81344 21.4106L7.02886 21.583L7.24429 21.7984C8.84203 22.7699 10.8296 22.0389 12.5437 22.3585L12.6299 22.4016L12.7592 22.4877L12.8453 22.5739L12.9315 22.8324V23.0909L12.8453 23.3494L12.7592 23.4356L12.6299 23.5218L12.5437 23.5648L12.3714 23.6079H6.33953V25.9345H13.3623C15.857 25.6982 16.7294 22.7541 15.3873 20.9798L15.215 20.7643L14.9995 20.5489L14.7841 20.3766L14.5256 20.2042L14.2671 20.075L13.664 19.9026L13.3623 19.8595H9.74323L9.35547 19.7303L9.18309 19.558L9.14004 19.4287L9.09695 19.2994L9.05385 19.2133L9.09695 19.0409L9.14004 18.9117L9.18309 18.7824L9.35547 18.6101L9.61394 18.5239H17.3692V22.9186C17.4159 24.6542 18.6015 25.9754 20.3852 25.9345H25.6846L28.1404 22.9186L30.2516 25.9345H33.7846L29.9931 20.7644L34 16.1973Z" fill="white"/>
</g>
<circle cx="20" cy="20" r="19.5" stroke="black" stroke-opacity="0.05"/>
<defs>
<clipPath id="clip0_18005_40003">
<rect width="28" height="11.9354" fill="white" transform="translate(6 14)"/>
</clipPath>
</defs>
</svg>
