<svg width="40" height="40" viewBox="0 0 40 40" fill="none" xmlns="http://www.w3.org/2000/svg">
<circle cx="20" cy="20" r="20" fill="#003976"/>
<g clip-path="url(#clip0_18066_46953)">
<path d="M24.3751 21.7829C25.0178 21.7829 25.3739 21.8733 25.3817 22.3043C25.3868 22.5391 25.2242 22.8153 25.0513 22.9495C24.659 23.2515 24.3132 23.285 22.473 23.285H13.3906L15.1456 15.9577H12.1105C11.9066 15.9577 11.8317 16.0145 11.7723 16.2571L10.1076 23.1224C9.79534 24.4878 10.4999 25.7369 12.0717 25.7369H16.2374C17.293 25.7369 18.7048 24.5858 19.2777 23.5199C19.3087 23.4605 19.3294 23.4244 19.3526 23.3754C19.3526 23.3754 19.3655 23.3599 19.3681 23.3831C19.2777 23.7651 18.9577 25.1175 18.9061 25.3369C18.839 25.6234 18.9887 25.7344 19.128 25.7344H23.6112C27.4129 25.7344 28.8969 23.9251 29.026 21.7545C29.0983 20.5337 28.3265 19.744 26.1431 19.744H24.4654C23.8693 19.744 23.2576 19.5478 23.2576 19.0652C23.2576 18.5826 23.9209 18.1593 24.8216 18.1593H28.9021C28.9021 18.1593 29.2583 16.7294 29.3305 16.43C29.4183 16.0532 29.3047 15.9448 29.0311 15.9448H23.9854C21.056 15.9448 19.7397 17.9038 19.7397 19.3026C19.7397 20.7015 20.8676 21.7803 23.7763 21.7803H24.3725L24.3751 21.7829Z" fill="white"/>
<path d="M26.3574 14.7368H34.4771L30.3011 16.8816C30.3011 16.8816 30.4689 16.1796 30.5205 15.9705C30.5721 15.7485 30.5024 15.5808 30.1875 15.5163C29.8753 15.4543 26.3574 14.7368 26.3574 14.7368Z" fill="#ED174C"/>
</g>
<circle cx="20" cy="20" r="19.5" stroke="black" stroke-opacity="0.05"/>
<defs>
<clipPath id="clip0_18066_46953">
<rect width="25" height="11" fill="white" transform="translate(10.0352 14.7368)"/>
</clipPath>
</defs>
</svg>
