<svg width="40" height="40" viewBox="0 0 40 40" fill="none" xmlns="http://www.w3.org/2000/svg">
<circle cx="20" cy="20" r="20" fill="#E83534"/>
<path d="M20.5462 20.6317C20.7093 20.3056 20.7132 19.96 20.6225 19.5863C20.6082 19.5267 20.6208 19.5202 20.6603 19.5667C21.0836 20.0624 21.0751 20.7595 20.7582 21.3067C20.2716 22.1474 19.2712 22.5276 18.3119 22.568C17.3949 22.6071 16.3651 22.1447 16.2973 21.1169C16.2465 20.3428 16.7767 19.6802 17.4543 19.3443C18.1212 19.0139 18.841 18.9213 19.6136 19.0665C20.0427 19.1474 20.4171 19.4604 20.4203 19.9267C20.423 20.3563 20.228 20.6826 19.8353 20.9056C19.8318 20.9077 19.8277 20.9087 19.8236 20.9083C19.8195 20.908 19.8156 20.9063 19.8124 20.9036C19.8093 20.9009 19.8069 20.8973 19.8058 20.8933C19.8046 20.8892 19.8047 20.8849 19.806 20.8808C19.9077 20.5913 19.8699 20.3271 19.6423 20.1224C19.0756 19.6104 18.0373 19.8335 17.5984 20.4315C17.3721 20.74 17.393 21.1724 17.6669 21.4378C17.8373 21.603 18.0532 21.6997 18.3145 21.728C19.1877 21.8219 20.1425 21.4384 20.5462 20.6317Z" fill="white"/>
<path d="M13.9464 20.5866C13.741 21.094 13.9353 21.4977 14.4395 21.6432C14.9077 21.7788 15.4203 21.6523 15.8038 21.3764C15.8447 21.3473 15.8599 21.3573 15.8495 21.4064L15.6532 22.3475C15.6508 22.3589 15.6454 22.3695 15.6374 22.378C15.6295 22.3865 15.6194 22.3926 15.6082 22.3958C15.1395 22.5297 14.6882 22.5697 14.2542 22.5158C13.2871 22.3958 12.4243 21.6732 12.7751 20.6003C13.2453 19.1623 14.9658 18.7723 16.2558 19.1636C16.2647 19.1664 16.2724 19.1723 16.2772 19.1802C16.282 19.1882 16.2837 19.1976 16.2818 19.2067L16.0934 20.1875C16.0927 20.1912 16.0911 20.1946 16.0886 20.1974C16.0861 20.2002 16.0829 20.2023 16.0793 20.2034C16.0757 20.2045 16.0719 20.2045 16.0683 20.2036C16.0647 20.2026 16.0614 20.2007 16.0588 20.198C15.4836 19.6214 14.2601 19.8132 13.9464 20.5866Z" fill="white"/>
<path d="M24.3166 21.5031C24.3275 21.5609 24.3483 21.5648 24.3792 21.5148L25.8707 19.12C25.8747 19.1137 25.8802 19.1084 25.8867 19.1048C25.8932 19.1011 25.9005 19.0992 25.9079 19.0992L26.5868 19.0979C26.5936 19.0978 26.6003 19.0995 26.6061 19.103C26.612 19.1064 26.6168 19.1114 26.62 19.1174C26.6233 19.1234 26.6248 19.1301 26.6245 19.1369C26.6241 19.1437 26.6219 19.1503 26.6181 19.1559L24.4581 22.4298C24.4505 22.4414 24.4401 22.4509 24.4277 22.4574C24.4154 22.4639 24.4016 22.4672 24.3877 22.467L23.8979 22.4624C23.8714 22.462 23.8555 22.4489 23.8503 22.4233L23.3983 20.1922C23.3972 20.1862 23.3943 20.1807 23.3899 20.1765C23.3855 20.1723 23.3799 20.1696 23.3738 20.1687C23.3677 20.1679 23.3615 20.1689 23.3559 20.1717C23.3504 20.1745 23.3458 20.1789 23.3429 20.1844L22.1383 22.4213C22.1324 22.4322 22.1237 22.4413 22.1131 22.4476C22.1025 22.4539 22.0905 22.4572 22.0783 22.4572H21.1953C21.1679 22.4572 21.1603 22.4446 21.1725 22.4194C21.3055 22.1511 21.4092 21.8555 21.4836 21.5324C21.6838 20.6637 21.4222 19.7957 20.8066 19.1598C20.8014 19.1545 20.7979 19.1478 20.7965 19.1405C20.7952 19.1333 20.796 19.1257 20.799 19.1189C20.8019 19.1121 20.8068 19.1064 20.8131 19.1024C20.8193 19.0984 20.8266 19.0964 20.834 19.0966L21.6003 19.1011C21.6085 19.1011 21.6165 19.1041 21.6228 19.1096C21.629 19.1151 21.6331 19.1228 21.6342 19.1311L21.9472 21.4959C21.9559 21.5624 21.9764 21.5663 22.0086 21.5076L23.3181 19.1083C23.3338 19.0792 23.3581 19.0646 23.3912 19.0646L23.8216 19.0633C23.8328 19.0632 23.8436 19.0671 23.8522 19.0741C23.8608 19.0811 23.8665 19.0909 23.8685 19.1018L24.3166 21.5031Z" fill="white"/>
<path d="M6.04577 19.868L5.53186 22.4343C5.53065 22.4407 5.52725 22.4465 5.52226 22.4506C5.51726 22.4548 5.51097 22.4571 5.50447 22.4571H4.45773C4.45362 22.4571 4.44957 22.4562 4.44585 22.4544C4.44214 22.4526 4.43886 22.4501 4.43625 22.4469C4.43363 22.4437 4.43175 22.44 4.43073 22.436C4.42971 22.4321 4.42958 22.4279 4.43034 22.4239L4.94229 19.8771C4.94306 19.8731 4.94293 19.8689 4.94191 19.865C4.94089 19.861 4.939 19.8573 4.93639 19.8541C4.93377 19.8509 4.9305 19.8484 4.92678 19.8466C4.92307 19.8448 4.91901 19.8439 4.9149 19.8439L4.06317 19.8406C4.05899 19.8406 4.05487 19.8397 4.0511 19.8379C4.04733 19.8361 4.04401 19.8334 4.04138 19.8302C4.03876 19.8269 4.03689 19.8232 4.03592 19.8191C4.03495 19.815 4.0349 19.8108 4.03578 19.8067L4.18969 19.1252C4.19116 19.119 4.19467 19.1136 4.19964 19.1097C4.20461 19.1058 4.21076 19.1036 4.21708 19.1037L7.07098 19.0984C7.07509 19.0985 7.07915 19.0994 7.08286 19.1012C7.08657 19.1029 7.08985 19.1055 7.09246 19.1087C7.09508 19.1118 7.09696 19.1155 7.09798 19.1195C7.099 19.1235 7.09913 19.1277 7.09837 19.1317L6.96402 19.8224C6.96281 19.8287 6.95942 19.8345 6.95442 19.8387C6.94942 19.8428 6.94314 19.8451 6.93663 19.8452H6.07316C6.06665 19.8452 6.06036 19.8475 6.05537 19.8517C6.05037 19.8558 6.04698 19.8616 6.04577 19.868Z" fill="white"/>
<path d="M8.1758 21.7235L9.39405 21.7222C9.39953 21.7222 9.40494 21.7234 9.40989 21.7257C9.41484 21.7281 9.4192 21.7315 9.42264 21.7358C9.42609 21.74 9.42853 21.745 9.42979 21.7503C9.43105 21.7557 9.4311 21.7612 9.42992 21.7666L9.2884 22.4272C9.28663 22.4353 9.28219 22.4425 9.2758 22.4477C9.2694 22.4529 9.26143 22.4558 9.25318 22.4559L6.92037 22.4566C6.91496 22.4566 6.90962 22.4554 6.90472 22.4531C6.89983 22.4508 6.89551 22.4474 6.89208 22.4432C6.88865 22.439 6.88619 22.4342 6.88488 22.4289C6.88357 22.4237 6.88344 22.4182 6.8845 22.4129L7.54124 19.1312C7.5429 19.1229 7.54738 19.1154 7.55392 19.1101C7.56046 19.1047 7.56865 19.1018 7.57711 19.1018L9.91514 19.1025C9.92055 19.1025 9.92589 19.1036 9.93078 19.106C9.93567 19.1083 9.93999 19.1116 9.94342 19.1158C9.94686 19.12 9.94932 19.1249 9.95063 19.1301C9.95194 19.1354 9.95207 19.1409 9.95101 19.1462L9.81666 19.812C9.815 19.8203 9.81052 19.8278 9.80398 19.8331C9.79744 19.8385 9.78924 19.8414 9.78079 19.8414H8.52275C8.51421 19.8414 8.50594 19.8444 8.49939 19.8499C8.49283 19.8554 8.48841 19.863 8.48688 19.8714L8.40275 20.3579C8.40179 20.3632 8.40201 20.3687 8.40341 20.3739C8.40481 20.3791 8.40735 20.3839 8.41084 20.388C8.41433 20.3922 8.41869 20.3954 8.42361 20.3977C8.42853 20.3999 8.43388 20.401 8.43927 20.4009L9.5897 20.4003C9.59513 20.4003 9.60046 20.4016 9.60533 20.404C9.6102 20.4064 9.61448 20.4098 9.61785 20.4141C9.62122 20.4183 9.62361 20.4233 9.62483 20.4286C9.62605 20.4338 9.62608 20.4393 9.62492 20.4446L9.48275 21.1066C9.48096 21.1147 9.47642 21.122 9.46989 21.1273C9.46336 21.1325 9.45524 21.1353 9.44688 21.1353L8.26775 21.1359C8.25921 21.1359 8.25094 21.139 8.24439 21.1444C8.23784 21.1499 8.23341 21.1575 8.23188 21.1659L8.13993 21.6805C8.13897 21.6857 8.13919 21.6911 8.14055 21.6963C8.14191 21.7015 8.14439 21.7063 8.14781 21.7104C8.15123 21.7145 8.15551 21.7178 8.16034 21.7201C8.16518 21.7223 8.17046 21.7235 8.1758 21.7235Z" fill="white"/>
<path d="M12.5139 21.7594L12.3919 22.4312C12.3905 22.4385 12.3867 22.4451 12.381 22.4499C12.3752 22.4546 12.368 22.4572 12.3606 22.4573L9.9978 22.4566C9.99305 22.4566 9.98835 22.4556 9.98406 22.4535C9.97977 22.4515 9.97599 22.4485 9.97299 22.4448C9.96999 22.4411 9.96785 22.4368 9.96673 22.4322C9.9656 22.4276 9.96552 22.4228 9.96649 22.4181L10.6284 19.126C10.6299 19.1188 10.6339 19.1123 10.6396 19.1077C10.6453 19.1031 10.6524 19.1005 10.6598 19.1005L11.6974 19.0992C11.7021 19.0992 11.7068 19.1003 11.7111 19.1023C11.7154 19.1044 11.7192 19.1073 11.7222 19.111C11.7252 19.1147 11.7273 19.119 11.7284 19.1236C11.7295 19.1283 11.7296 19.1331 11.7287 19.1377L11.2154 21.6844C11.2144 21.6891 11.2145 21.6939 11.2156 21.6985C11.2168 21.7031 11.2189 21.7075 11.2219 21.7111C11.2249 21.7148 11.2287 21.7178 11.233 21.7198C11.2373 21.7219 11.242 21.7229 11.2467 21.7229L12.4819 21.7216C12.4867 21.7215 12.4914 21.7225 12.4957 21.7245C12.5 21.7264 12.5038 21.7293 12.5069 21.7329C12.5099 21.7366 12.5121 21.7408 12.5134 21.7454C12.5146 21.75 12.5147 21.7548 12.5139 21.7594Z" fill="white"/>
<path d="M28.3905 21.6895L26.6845 21.6902C26.6812 21.6902 26.6779 21.691 26.675 21.6925C26.6721 21.6939 26.6695 21.696 26.6675 21.6987L26.0969 22.4474C26.0949 22.45 26.0923 22.4521 26.0894 22.4536C26.0864 22.455 26.0832 22.4558 26.0799 22.4558L25.3553 22.4565C25.3513 22.4565 25.3474 22.4553 25.3441 22.4532C25.3407 22.4511 25.3379 22.448 25.3362 22.4444C25.3344 22.4409 25.3337 22.4368 25.3341 22.4329C25.3345 22.4289 25.336 22.4251 25.3384 22.4219L27.7821 19.1069C27.7841 19.1042 27.7868 19.1021 27.7899 19.1006C27.7929 19.0991 27.7963 19.0984 27.7997 19.0985L28.3899 19.0945C28.3946 19.0945 28.3992 19.096 28.403 19.0988C28.4067 19.1017 28.4095 19.1057 28.4108 19.1102L29.4229 22.4291C29.424 22.4323 29.4242 22.4358 29.4237 22.4392C29.4231 22.4425 29.4217 22.4457 29.4197 22.4485C29.4177 22.4512 29.415 22.4534 29.4119 22.4549C29.4089 22.4564 29.4055 22.4572 29.4021 22.4571L28.6358 22.4565C28.6311 22.4565 28.6265 22.455 28.6227 22.4522C28.6189 22.4494 28.6162 22.4454 28.6149 22.4408L28.4114 21.7052C28.4101 21.7006 28.4074 21.6967 28.4036 21.6938C28.3999 21.691 28.3953 21.6895 28.3905 21.6895ZM27.9366 19.8785C27.9351 19.8725 27.9319 19.8672 27.9274 19.8631C27.9229 19.8589 27.9173 19.8562 27.9113 19.8552C27.9052 19.8543 27.899 19.8551 27.8935 19.8576C27.8879 19.8601 27.8832 19.8642 27.8799 19.8693L26.9603 21.2324C26.9572 21.237 26.9553 21.2425 26.955 21.2481C26.9546 21.2538 26.9558 21.2594 26.9584 21.2644C26.9611 21.2694 26.965 21.2736 26.9698 21.2766C26.9746 21.2796 26.9801 21.2812 26.9858 21.2813L28.2555 21.2793C28.2604 21.2794 28.2651 21.2783 28.2694 21.2762C28.2738 21.2742 28.2776 21.2711 28.2805 21.2673C28.2835 21.2635 28.2856 21.2591 28.2865 21.2544C28.2875 21.2497 28.2874 21.2448 28.2862 21.2402L27.9366 19.8785Z" fill="white"/>
<path d="M30.8843 21.0281C30.868 21.0282 30.8521 21.0337 30.8393 21.0439C30.8265 21.0541 30.8176 21.0683 30.8139 21.0842L30.51 22.4238C30.5048 22.446 30.4908 22.457 30.4682 22.457L29.7861 22.4564C29.7823 22.4564 29.7786 22.4555 29.7752 22.4539C29.7718 22.4523 29.7688 22.45 29.7664 22.4471C29.764 22.4442 29.7623 22.4409 29.7615 22.4373C29.7606 22.4337 29.7605 22.43 29.7613 22.4264L30.4774 19.159C30.4806 19.1432 30.4893 19.1289 30.5018 19.1186C30.5144 19.1083 30.5302 19.1025 30.5465 19.1023C31.0004 19.0953 31.4595 19.0992 31.9239 19.114C32.1321 19.121 32.3393 19.169 32.5454 19.2581C33.06 19.4812 33.0019 20.1392 32.6954 20.5155C32.4715 20.7894 32.1576 20.9466 31.7537 20.987C31.748 20.9876 31.7425 20.9897 31.7378 20.993C31.7331 20.9963 31.7294 21.0008 31.727 21.006C31.7247 21.0111 31.7237 21.0168 31.7242 21.0224C31.7248 21.028 31.7268 21.0334 31.7302 21.0379L32.7071 22.4179C32.7258 22.4444 32.7189 22.4575 32.6863 22.457L31.8561 22.4564C31.8437 22.4564 31.8315 22.4532 31.8207 22.447C31.8098 22.4408 31.8007 22.4319 31.7941 22.4212C31.5206 21.9768 31.2506 21.5347 30.9841 21.0947C30.9571 21.0503 30.9239 21.0281 30.8843 21.0281ZM30.928 20.7047C31.4941 20.749 32.2037 20.6375 32.16 19.9058C32.1345 19.4818 31.4713 19.4981 31.1726 19.5197C31.1482 19.5214 31.1337 19.5342 31.1289 19.5581L30.9078 20.6786C30.9072 20.6816 30.9073 20.6848 30.9081 20.6878C30.9088 20.6908 30.9102 20.6937 30.9121 20.6961C30.914 20.6986 30.9164 20.7006 30.9191 20.7021C30.9219 20.7036 30.9249 20.7044 30.928 20.7047Z" fill="white"/>
<path d="M34.4878 19.5759L34.2915 20.4414C34.2903 20.4464 34.2903 20.4516 34.2914 20.4566C34.2926 20.4616 34.2948 20.4663 34.298 20.4703C34.3012 20.4744 34.3053 20.4776 34.3099 20.4798C34.3146 20.482 34.3197 20.4832 34.3248 20.4831L35.6904 20.4825C35.6955 20.4824 35.7005 20.4836 35.7051 20.4857C35.7097 20.4879 35.7137 20.4911 35.7169 20.495C35.7201 20.499 35.7224 20.5036 35.7235 20.5085C35.7247 20.5135 35.7248 20.5186 35.7237 20.5235L35.6461 20.8881C35.6445 20.8957 35.6403 20.9025 35.6342 20.9074C35.6281 20.9122 35.6206 20.9149 35.6128 20.9148L34.2159 20.909C34.2081 20.909 34.2006 20.9116 34.1945 20.9165C34.1885 20.9213 34.1843 20.9281 34.1826 20.9357L33.9622 21.9694C33.9611 21.9744 33.9612 21.9795 33.9623 21.9844C33.9635 21.9894 33.9658 21.994 33.969 21.9979C33.9722 22.0019 33.9762 22.005 33.9808 22.0072C33.9854 22.0094 33.9904 22.0105 33.9955 22.0105L35.4133 22.0157C35.4183 22.0157 35.4234 22.0168 35.4279 22.019C35.4325 22.0212 35.4366 22.0243 35.4397 22.0283C35.4429 22.0322 35.4452 22.0368 35.4464 22.0418C35.4476 22.0467 35.4476 22.0518 35.4465 22.0568L35.3611 22.4311C35.3593 22.4386 35.3551 22.4453 35.349 22.45C35.343 22.4547 35.3355 22.4573 35.3278 22.4572L33.1502 22.4566C33.1452 22.4566 33.1402 22.4555 33.1356 22.4533C33.131 22.4511 33.127 22.4479 33.1238 22.444C33.1206 22.4401 33.1183 22.4355 33.1171 22.4305C33.116 22.4256 33.1159 22.4204 33.117 22.4155L33.835 19.1272C33.8367 19.1197 33.8409 19.1129 33.8469 19.108C33.853 19.1031 33.8605 19.1005 33.8683 19.1005L36.0009 19.0979C36.0055 19.0979 36.0101 19.0988 36.0143 19.1007C36.0186 19.1025 36.0224 19.1052 36.0256 19.1085C36.0288 19.1119 36.0312 19.1158 36.0328 19.1202C36.0344 19.1245 36.0351 19.1292 36.0348 19.1338L36.012 19.5199C36.0115 19.5285 36.0077 19.5366 36.0014 19.5426C35.9951 19.5485 35.9867 19.5518 35.978 19.5518L34.5211 19.5492C34.5133 19.5492 34.5058 19.5518 34.4997 19.5567C34.4937 19.5616 34.4895 19.5683 34.4878 19.5759Z" fill="white"/>
<path d="M32.1607 19.9059C32.2044 20.6376 31.4949 20.7491 30.9288 20.7048C30.9257 20.7045 30.9227 20.7037 30.9199 20.7022C30.9172 20.7007 30.9148 20.6987 30.9129 20.6962C30.9109 20.6938 30.9096 20.6909 30.9088 20.6879C30.9081 20.6849 30.908 20.6817 30.9086 20.6787L31.1296 19.5582C31.1344 19.5343 31.149 19.5215 31.1733 19.5198C31.472 19.4982 32.1353 19.4819 32.1607 19.9059Z" fill="#E83534"/>
<path d="M27.9368 19.8785L28.2864 21.2403C28.2876 21.2449 28.2877 21.2498 28.2867 21.2545C28.2857 21.2592 28.2837 21.2636 28.2807 21.2674C28.2777 21.2712 28.2739 21.2742 28.2696 21.2763C28.2653 21.2784 28.2605 21.2794 28.2557 21.2794L26.9859 21.2813C26.9803 21.2813 26.9748 21.2797 26.9699 21.2767C26.9651 21.2737 26.9612 21.2695 26.9586 21.2645C26.956 21.2595 26.9548 21.2538 26.9551 21.2482C26.9555 21.2426 26.9573 21.2371 26.9605 21.2324L27.8801 19.8694C27.8833 19.8642 27.8881 19.8602 27.8936 19.8577C27.8992 19.8552 27.9054 19.8543 27.9114 19.8553C27.9175 19.8563 27.9231 19.859 27.9276 19.8631C27.9321 19.8673 27.9353 19.8726 27.9368 19.8785Z" fill="#E83534"/>
<circle cx="20" cy="20" r="19.5" stroke="black" stroke-opacity="0.05"/>
</svg>
