<svg width="40" height="40" viewBox="0 0 40 40" fill="none" xmlns="http://www.w3.org/2000/svg">
<circle cx="20" cy="20" r="20" fill="#007934"/>
<path d="M32 18.4707V19.5771C31.58 25.8339 26.7716 30.5355 20.528 30.9051H19.4564C13.2188 30.5199 8.4008 25.8195 8 19.5603V18.4719C8.14911 15.6947 9.26274 13.0566 11.1488 11.0127C11.1562 11.0055 11.1661 11.0015 11.1764 11.0015C11.1867 11.0015 11.1966 11.0055 11.204 11.0127L11.564 11.3895C11.5702 11.3961 11.5737 11.4049 11.5737 11.4141C11.5737 11.4232 11.5702 11.432 11.564 11.4387C9.6932 13.5051 8.6096 16.1451 8.6 18.9327C8.5856 26.5851 15.9788 32.0103 23.2976 29.8251C26.1635 28.9666 28.577 27.0159 30.0176 24.3939C32.318 20.1771 31.6976 15.1695 28.526 11.5383C28.5234 11.536 28.5214 11.5332 28.52 11.5301C28.5186 11.527 28.5179 11.5237 28.5179 11.5203C28.5179 11.5169 28.5186 11.5135 28.52 11.5104C28.5214 11.5073 28.5234 11.5045 28.526 11.5023L28.922 11.1255C28.9236 11.123 28.9259 11.121 28.9285 11.1196C28.9311 11.1182 28.934 11.1174 28.937 11.1174C28.94 11.1174 28.9429 11.1182 28.9455 11.1196C28.9481 11.121 28.9504 11.123 28.952 11.1255C30.7782 13.1532 31.854 15.7457 32 18.4707Z" fill="white"/>
<path d="M13.1767 13.0566C11.2183 15.2766 10.4239 18.2982 11.1631 21.1854C11.6917 23.2635 12.9373 25.0881 14.6801 26.3374C16.4229 27.5866 18.5509 28.1802 20.6887 28.0134C25.1983 27.6882 28.9339 24.0018 29.0959 19.3626C29.1759 17.0546 28.4431 14.9794 26.8975 13.137C26.8942 13.134 26.8915 13.1304 26.8897 13.1264C26.8879 13.1224 26.887 13.118 26.887 13.1136C26.887 13.1091 26.8879 13.1048 26.8897 13.1007C26.8915 13.0967 26.8942 13.0931 26.8975 13.0902L27.7015 12.3102C27.7082 12.3036 27.7173 12.2999 27.7267 12.2999C27.7361 12.2999 27.7452 12.3036 27.7519 12.3102C30.3055 15.2922 31.0099 19.209 29.5447 22.8402C27.7243 27.3546 22.8319 29.9718 18.0463 29.037C10.2487 27.5106 6.96672 18.195 12.3439 12.2082C12.3463 12.2049 12.3493 12.2023 12.3529 12.2005C12.3564 12.1987 12.3603 12.1978 12.3643 12.1978C12.3683 12.1978 12.3722 12.1987 12.3758 12.2005C12.3793 12.2023 12.3824 12.2049 12.3847 12.2082L13.1755 13.0086C13.1789 13.0115 13.1817 13.0151 13.1837 13.0192C13.1856 13.0233 13.1866 13.0278 13.1868 13.0323C13.1869 13.0368 13.186 13.0413 13.1843 13.0455C13.1826 13.0497 13.18 13.0534 13.1767 13.0566Z" fill="white"/>
<path d="M15.6892 15.6256C15.0164 16.4622 14.6078 17.48 14.5153 18.5495C14.4227 19.6191 14.6505 20.6919 15.1696 21.6316C15.5493 22.3115 16.0683 22.9035 16.6926 23.369C17.3169 23.8345 18.0324 24.1629 18.7923 24.3328C19.5523 24.5027 20.3395 24.5103 21.1026 24.355C21.8656 24.1997 22.5873 23.885 23.2204 23.4316C24.2804 22.6802 25.035 21.5729 25.3468 20.3116C25.7356 18.6052 25.398 17.0496 24.334 15.6448C24.3288 15.64 24.3247 15.6341 24.3218 15.6276C24.319 15.6211 24.3175 15.6141 24.3175 15.607C24.3175 15.5999 24.319 15.5929 24.3218 15.5864C24.3247 15.5799 24.3288 15.574 24.334 15.5692L25.8316 14.116C25.8361 14.1115 25.8414 14.1079 25.8473 14.1054C25.8532 14.103 25.8595 14.1017 25.8658 14.1017C25.8722 14.1017 25.8785 14.103 25.8844 14.1054C25.8902 14.1079 25.8956 14.1115 25.9 14.116C26.9475 15.3491 27.5717 16.8856 27.681 18.4998C27.7903 20.114 27.3789 21.7206 26.5072 23.0836C25.9586 23.9405 25.2465 24.6808 24.4115 25.2621C23.5765 25.8434 22.6351 26.2544 21.6412 26.4715C20.6472 26.6887 19.6201 26.7077 18.6188 26.5274C17.6175 26.3472 16.6615 25.9713 15.8056 25.4212C11.878 22.8832 11.1256 17.6656 14.1256 14.0644C14.1356 14.0525 14.15 14.045 14.1655 14.0437C14.1811 14.0423 14.1965 14.0472 14.2084 14.0572L15.6856 15.5452C15.6963 15.5556 15.7027 15.5698 15.7033 15.5847C15.704 15.5996 15.699 15.6143 15.6892 15.6256Z" fill="white"/>
<path d="M19.9997 21.1839C21.1979 21.1839 22.1693 20.2126 22.1693 19.0143C22.1693 17.8161 21.1979 16.8447 19.9997 16.8447C18.8014 16.8447 17.8301 17.8161 17.8301 19.0143C17.8301 20.2126 18.8014 21.1839 19.9997 21.1839Z" fill="white"/>
<circle cx="20" cy="20" r="19.5" stroke="black" stroke-opacity="0.05"/>
</svg>
