<svg width="40" height="40" viewBox="0 0 40 40" fill="none" xmlns="http://www.w3.org/2000/svg">
<circle cx="20" cy="20" r="20" fill="#F6F8FA"/>
<path d="M16.9494 13.267C18.0173 13.267 18.883 12.4013 18.883 11.3334C18.883 10.2656 18.0173 9.3999 16.9494 9.3999C15.8815 9.3999 15.0159 10.2656 15.0159 11.3334C15.0159 12.4013 15.8815 13.267 16.9494 13.267Z" fill="#030303"/>
<path d="M20.0001 27.5455C20.9121 27.5455 21.8152 27.3659 22.6578 27.0169C23.5003 26.6678 24.2659 26.1563 24.9108 25.5114C25.5557 24.8665 26.0672 24.101 26.4162 23.2584C26.7652 22.4158 26.9449 21.5127 26.9449 20.6007C26.9449 18.7589 26.2132 16.9925 24.9108 15.6901C23.6084 14.3877 21.842 13.656 20.0001 13.656V27.5455Z" fill="url(#paint0_radial_14382_20579)"/>
<path d="M20 30.5994C17.3493 30.5954 14.8083 29.5406 12.9338 27.6664C11.0594 25.7922 10.0044 23.2513 10 20.6006H11.6496C11.6539 22.8138 12.5352 24.9351 14.1003 26.5C15.6653 28.0649 17.7868 28.9458 20 28.9498C22.2132 28.9458 24.3347 28.0649 25.8997 26.5C27.4648 24.9351 28.3461 22.8138 28.3504 20.6006C28.3464 18.3872 27.4653 16.2656 25.9002 14.7004C24.335 13.1353 22.2134 12.2542 20 12.2502V10.6006C22.6509 10.6046 25.1921 11.6595 27.0666 13.534C28.9411 15.4085 29.9959 17.9497 30 20.6006C29.9956 23.2513 28.9406 25.7922 27.0662 27.6664C25.1917 29.5406 22.6507 30.5954 20 30.5994Z" fill="#030303"/>
<circle cx="20" cy="20" r="19.5" stroke="black" stroke-opacity="0.05"/>
<defs>
<radialGradient id="paint0_radial_14382_20579" cx="0" cy="0" r="1" gradientUnits="userSpaceOnUse" gradientTransform="translate(21.8183 16.4766) rotate(79.6952) scale(10.1639)">
<stop stop-color="#AFDB80"/>
<stop offset="0.40426" stop-color="#37A046"/>
<stop offset="1" stop-color="#00852C"/>
</radialGradient>
</defs>
</svg>
