<svg width="40" height="40" viewBox="0 0 40 40" fill="none" xmlns="http://www.w3.org/2000/svg">
<circle cx="20" cy="20" r="20" fill="#373536"/>
<path d="M23.4329 15.8742C23.4645 15.7479 23.6089 15.5209 23.7443 15.4888C24.2353 15.3723 24.3069 15.967 24.3057 16.2972C24.3016 17.2206 24.3004 18.1352 24.3021 19.0412C24.2916 19.1597 24.2497 19.2732 24.1807 19.3701C24.1568 19.4128 24.1237 19.4497 24.0838 19.478C24.0439 19.5064 23.9982 19.5255 23.95 19.534C23.7892 19.5613 23.652 19.5006 23.5397 19.3519C23.458 19.2551 23.4099 19.1343 23.4026 19.0078C23.3977 18.01 23.401 17.0229 23.4123 16.0466C23.4123 15.9885 23.4192 15.9306 23.4329 15.8742Z" fill="#F79835"/>
<path d="M20.2029 21.1036C20.1956 21.069 20.1743 21.0545 20.1677 21.0217C20.0477 20.4136 20.0568 19.7871 20.1944 19.1827C20.2089 19.1177 20.2551 19.0856 20.2648 19.0231C20.2856 18.8983 20.3266 18.7778 20.3862 18.6662C20.4875 18.4756 20.547 18.2783 20.6726 18.0884C21.044 17.5186 21.5521 17.0508 22.1505 16.7276C22.2531 16.6724 22.3708 16.6518 22.4613 16.5783C22.4705 16.571 22.4814 16.5658 22.493 16.5633C22.5045 16.5608 22.5165 16.5609 22.528 16.5638C22.5349 16.5649 22.5418 16.5649 22.5487 16.5638L22.9529 16.4266C22.9632 16.423 22.9743 16.4219 22.9851 16.4235C22.9959 16.4251 23.0062 16.4292 23.0152 16.4356C23.0241 16.4419 23.0313 16.4503 23.0363 16.4601C23.0413 16.4698 23.0439 16.4806 23.0439 16.4915L23.047 17.425C23.0469 17.4541 23.0376 17.4823 23.0204 17.5057C23.0031 17.5291 22.9788 17.5463 22.9511 17.5549C22.6355 17.6532 22.417 17.8104 22.1432 18.024C21.8295 18.2757 21.577 18.5953 21.4046 18.9587C21.3063 19.1554 21.2644 19.3502 21.2001 19.5553C21.0787 19.9407 21.1199 20.4415 21.2037 20.8439C21.2492 21.0611 21.3633 21.2359 21.4465 21.4393C21.4814 21.5246 21.5254 21.606 21.5776 21.682C21.9167 22.1926 22.4152 22.5767 22.9954 22.7745C23.6376 23.0033 24.343 22.9781 24.9673 22.7041C25.5026 22.4802 25.9546 22.0946 26.2601 21.6013C26.3005 21.5374 26.3673 21.4083 26.4603 21.2141C26.5234 21.0857 26.5707 20.9502 26.6012 20.8105C26.677 20.4487 26.6856 20.0762 26.6266 19.7113C26.5743 19.3768 26.4594 19.0552 26.288 18.7633C25.9455 18.1774 25.4041 17.7339 24.7621 17.5136C24.739 17.5053 24.719 17.49 24.7051 17.4697C24.6911 17.4494 24.6839 17.4253 24.6845 17.4007L24.7015 16.5031C24.7016 16.4849 24.707 16.4672 24.7172 16.4522C24.7273 16.4372 24.7417 16.4255 24.7585 16.4187C24.7928 16.4092 24.8293 16.4113 24.8623 16.4248C25.2556 16.5462 25.6483 16.704 25.9924 16.9437C26.4231 17.2411 26.7964 17.6139 27.0946 18.0441C27.2348 18.2462 27.3192 18.4689 27.4266 18.6886C27.4843 18.8036 27.5252 18.9262 27.548 19.0528C27.5511 19.0709 27.5586 19.088 27.5698 19.1026C27.5805 19.1176 27.5883 19.1345 27.5929 19.1523C27.7477 19.7441 27.7692 20.3629 27.656 20.964C27.6074 21.1671 27.5445 21.3664 27.4679 21.5606C27.4432 21.6291 27.411 21.6947 27.372 21.7561C27.3161 21.8441 27.2949 21.9339 27.2439 22.025C27.0591 22.3585 26.8241 22.6617 26.5471 22.9238C26.5096 22.9601 26.469 22.993 26.4258 23.0221C26.3651 23.0634 26.328 23.1241 26.2686 23.1672C25.8862 23.4444 25.5764 23.6313 25.3393 23.728C25.0906 23.8182 24.8346 23.8866 24.574 23.9325C24.2936 23.9884 24.015 23.9629 23.7352 23.972C23.5298 23.9767 23.3245 23.9564 23.124 23.9113C22.9182 23.874 22.7154 23.8219 22.5171 23.7553C22.0795 23.5624 21.6746 23.3023 21.3172 22.9845C20.9142 22.6276 20.6344 22.1912 20.4068 21.713C20.3147 21.5187 20.2462 21.3142 20.2029 21.1036Z" fill="#F79835"/>
<path d="M6.80839 20.1373C6.80468 20.1395 6.80144 20.1424 6.79886 20.1458C6.79627 20.1493 6.79439 20.1532 6.79332 20.1573C6.79225 20.1615 6.79201 20.1659 6.79261 20.1701C6.79322 20.1744 6.79466 20.1785 6.79686 20.1822C6.79975 20.1869 6.8037 20.1908 6.80839 20.1937C8.18411 21.003 9.55537 21.8074 10.9222 22.6069C10.9744 22.6372 11.0248 22.6705 11.0733 22.7064C11.1395 22.7556 11.134 22.7744 11.0503 22.7641C10.9899 22.7562 10.929 22.7526 10.8682 22.7532C10.2491 22.7564 9.59847 22.7564 8.91627 22.7532C8.88859 22.7531 8.86148 22.7453 8.83798 22.7307L5.7851 20.8013C5.78022 20.7981 5.77456 20.7963 5.76874 20.796C5.76291 20.7958 5.75713 20.7972 5.75202 20.8C5.74691 20.8028 5.74265 20.8069 5.73972 20.812C5.73678 20.817 5.73526 20.8227 5.73533 20.8286V22.7101C5.73541 22.7165 5.73422 22.7229 5.73182 22.7289C5.72942 22.7349 5.72587 22.7404 5.72136 22.745C5.71685 22.7496 5.71148 22.7533 5.70554 22.7559C5.69961 22.7584 5.69323 22.7598 5.68678 22.7598H4.05958C4.04349 22.7598 4.02805 22.7534 4.01667 22.7421C4.00529 22.7307 3.99889 22.7152 3.99889 22.6992C3.99646 21.3639 3.99646 19.8494 3.99889 18.1556C3.99889 17.9681 4.14091 17.7963 4.27383 17.6804C4.36149 17.6027 4.46506 17.5452 4.5773 17.5117C5.02805 17.3798 5.38634 17.5038 5.65218 17.8837C5.70445 17.9557 5.73231 18.0424 5.73169 18.1314C5.73169 18.6169 5.73169 19.0822 5.73169 19.5273C5.73169 19.5331 5.73399 19.5387 5.73809 19.5428C5.74219 19.5469 5.74774 19.5492 5.75354 19.5492C5.75712 19.5501 5.76088 19.5501 5.76446 19.5492C6.7218 19.0232 7.72061 18.4731 8.7609 17.8989C8.81958 17.8665 8.88568 17.85 8.95269 17.851C9.47506 17.8538 10.0025 17.856 10.535 17.8576C10.612 17.8576 10.6175 17.8783 10.5507 17.9183L6.80839 20.1373Z" fill="white"/>
<path d="M20.1109 22.7543H18.6227C18.6108 22.7546 18.599 22.7518 18.5883 22.7463C18.5777 22.7408 18.5687 22.7327 18.5621 22.7228L17.7214 21.4318C17.7071 21.4096 17.6874 21.3914 17.6642 21.3788C17.641 21.3662 17.615 21.3596 17.5885 21.3596H14.5023C14.4868 21.3596 14.4716 21.3633 14.458 21.3705C14.4444 21.3777 14.4327 21.3881 14.424 21.4008L13.5233 22.6979C13.5113 22.7163 13.4949 22.7315 13.4757 22.7421C13.4564 22.7527 13.4348 22.7583 13.4128 22.7586H11.5289C11.4901 22.7586 11.4822 22.7428 11.5046 22.7112C12.5773 21.2093 13.6163 19.7583 14.6218 18.3583C14.7643 18.1642 14.93 17.9883 15.1153 17.8345C15.6093 17.4299 16.1032 17.4034 16.5968 17.755C16.7775 17.8963 16.9355 18.0643 17.0654 18.2533C18.0971 19.7423 19.1223 21.2244 20.1407 22.6997C20.1668 22.7373 20.1565 22.7543 20.1109 22.7543ZM15.1493 20.3551C15.1469 20.3584 15.1453 20.3621 15.1444 20.366C15.1435 20.3699 15.1434 20.3739 15.144 20.3779C15.1447 20.3818 15.1462 20.3856 15.1483 20.389C15.1505 20.3924 15.1533 20.3953 15.1565 20.3976C15.1615 20.4012 15.1674 20.4031 15.1735 20.403H16.9531C16.9611 20.403 16.9688 20.3999 16.9745 20.3942C16.9802 20.3885 16.9834 20.3808 16.9834 20.3727C16.9834 20.3664 16.9815 20.3603 16.978 20.3551L16.1889 19.2292C16.1859 19.2244 16.1815 19.2206 16.1762 19.2183L16.0366 19.1576C16.0303 19.155 16.0232 19.1545 16.0166 19.1564C16.01 19.1583 16.0042 19.1623 16.0002 19.1679L15.1493 20.3551Z" fill="white"/>
<path d="M34.5949 21.419L34.6271 21.3881C34.6347 21.3812 34.6408 21.3728 34.6449 21.3634C34.649 21.3539 34.651 21.3437 34.6507 21.3334L34.6544 17.5953C34.6535 17.5892 34.654 17.5828 34.656 17.5769C34.6579 17.5709 34.6612 17.5655 34.6657 17.5611C34.6701 17.5567 34.6755 17.5534 34.6814 17.5514C34.6874 17.5494 34.6937 17.5489 34.6999 17.5498H35.9556C35.9611 17.5489 35.9666 17.5493 35.9719 17.5509C35.9771 17.5525 35.9819 17.5554 35.9858 17.5593C35.9897 17.5631 35.9927 17.5679 35.9944 17.5731C35.9961 17.5783 35.9966 17.5838 35.9957 17.5893C35.9933 18.8278 35.9947 20.1012 35.9999 21.4093C35.9999 21.75 35.9739 21.9908 35.9217 22.1316C35.6661 22.8034 34.9506 22.9461 34.3272 22.7385C34.2336 22.7059 34.1484 22.6528 34.0778 22.5831C32.9574 21.5129 31.8487 20.4617 30.7518 19.4295C30.7305 19.4093 30.7037 19.3958 30.6748 19.3906C30.6459 19.3855 30.6161 19.389 30.5892 19.4006C30.5622 19.4122 30.5393 19.4315 30.5232 19.4561C30.5071 19.4807 30.4986 19.5094 30.4987 19.5387V22.6893C30.4987 22.7074 30.4916 22.7248 30.4788 22.7376C30.4661 22.7505 30.4488 22.7578 30.4307 22.7579H28.8272C28.8225 22.7579 28.8179 22.757 28.8136 22.7552C28.8093 22.7534 28.8054 22.7507 28.8021 22.7474C28.7988 22.7441 28.7962 22.7401 28.7945 22.7358C28.7928 22.7314 28.7919 22.7268 28.792 22.7221C28.7944 21.3298 28.7944 19.9557 28.792 18.5998C28.792 18.3346 28.8242 18.1367 28.8891 18.0068C29.1738 17.4375 29.9288 17.4327 30.4483 17.6275C30.5934 17.6916 30.7244 17.7838 30.8337 17.8988C31.7292 18.7574 32.6396 19.6302 33.5649 20.5171C33.8886 20.8267 34.2048 21.1287 34.5136 21.4233C34.5187 21.4292 34.5251 21.4339 34.5324 21.437C34.5396 21.4401 34.5474 21.4414 34.5553 21.441C34.5631 21.4406 34.5708 21.4384 34.5776 21.4346C34.5845 21.4308 34.5904 21.4255 34.5949 21.419Z" fill="white"/>
<path d="M23.0793 19.1935C23.0866 19.4168 23.2741 19.6444 23.4574 19.7634C23.8452 20.0147 24.3211 19.8739 24.573 19.497C24.6623 19.3585 24.706 19.1955 24.698 19.0308C24.6949 18.8208 24.6937 18.6224 24.698 18.4354C24.6983 18.4261 24.7022 18.4173 24.7089 18.4109C24.7156 18.4044 24.7245 18.4008 24.7338 18.4008C24.7393 18.4013 24.7446 18.4028 24.7496 18.4051C25.4579 18.7796 25.8748 19.4278 25.8281 20.2307C25.7753 21.146 25.0634 21.8513 24.1821 21.9957C23.9287 22.0363 23.6698 22.0259 23.4204 21.9651C23.1711 21.9043 22.9364 21.7944 22.7301 21.6418C22.5238 21.4892 22.35 21.2969 22.219 21.0763C22.0879 20.8557 22.0021 20.6112 21.9668 20.357C21.8587 19.5267 22.286 18.7917 23.0332 18.4008C23.0419 18.3964 23.052 18.3955 23.0613 18.3985C23.0706 18.4014 23.0784 18.4079 23.0829 18.4166C23.0858 18.4225 23.0873 18.4289 23.0872 18.4354C23.0742 18.6818 23.0716 18.9345 23.0793 19.1935Z" fill="white"/>
<circle cx="20" cy="20" r="19.5" stroke="black" stroke-opacity="0.05"/>
</svg>
