<svg width="40" height="40" viewBox="0 0 40 40" fill="none" xmlns="http://www.w3.org/2000/svg">
<circle cx="20" cy="20" r="20" fill="#F6F8FA"/>
<g clip-path="url(#clip0_24563_42796)">
<path d="M22.1065 22.0853C21.4284 22.0927 20.956 22.0853 20.6817 22.0484C20.4074 22.0189 20.1255 21.9894 19.836 21.9599C18.3046 21.8272 16.8189 21.5101 15.3865 21.0014C15.0512 20.8834 14.6627 20.7212 14.2131 20.5147C14.1903 20.5073 14.1674 20.5 14.1446 20.5147C14.1446 20.4778 14.1217 20.441 14.0989 20.4041C14.1217 20.3525 14.137 20.2714 14.1522 20.1534C14.1751 19.8216 14.2436 19.2391 14.3427 18.3911C14.3655 18.2363 14.3731 18.0814 14.3884 17.9266C14.4265 17.2113 14.4798 16.4297 14.1217 15.7809C13.8855 15.3384 13.497 15.0288 12.9636 14.8518C12.6817 14.7559 12.4151 14.7633 12.1712 14.8665C11.7751 15.0361 11.4398 15.3311 11.1655 15.7661C12.2398 13.7457 13.8017 12.2268 15.836 11.1871C17.756 10.2138 19.9198 9.83774 22.076 10.0663C22.3046 10.0884 22.5636 10.1696 22.8531 10.3097C23.4398 10.5825 23.6684 11.3125 23.5389 11.8876C23.4627 12.2194 23.3331 12.5291 23.2036 12.8388C22.6017 14.2398 22.1751 15.4638 21.916 16.5035C21.6493 17.5948 21.497 18.6713 21.6417 19.77C21.7484 20.5442 21.9008 21.3184 22.0989 22.0853H22.1065Z" fill="#BBD3DE"/>
<path d="M14.099 20.4114C14.099 20.4114 14.0532 20.3966 14.0228 20.3819C13.2609 20.0132 12.5675 19.5487 11.9352 18.9957C11.4475 18.5606 11.1123 18.1108 10.9447 17.6242C10.7618 17.1228 10.8075 16.5624 11.0818 15.9356C11.0818 15.8766 11.1123 15.825 11.1656 15.766C11.4399 15.3384 11.7752 15.036 12.1713 14.8664C12.4152 14.7632 12.6818 14.7558 12.9637 14.8517C13.4971 15.036 13.8856 15.3457 14.1218 15.7808C14.4799 16.437 14.4266 17.2112 14.3885 17.9265C14.3809 18.0813 14.3656 18.2362 14.3428 18.391C14.2361 19.2316 14.1752 19.8215 14.1523 20.1533C14.1447 20.2713 14.1294 20.3598 14.099 20.404V20.4114Z" fill="#3F97B5"/>
<path d="M11.0818 15.9355C10.8075 16.5549 10.7618 17.1227 10.9446 17.6241C11.1198 18.1034 11.4475 18.5605 11.9351 18.9956C12.5675 19.5486 13.2608 20.0131 14.0227 20.3818C14.0532 20.3966 14.076 20.4039 14.0989 20.4113C14.1218 20.4482 14.137 20.4851 14.1446 20.5219C14.1294 20.6104 14.1218 20.7063 14.1141 20.8021C14.0989 21.5469 14.0837 22.3063 14.1675 23.0142C14.3275 24.3341 14.7313 25.595 15.3865 26.8042C15.9275 27.807 16.6741 28.655 17.6113 29.3702C18.1522 29.7758 18.6018 30.0707 18.9751 30.2477C19.4551 30.4837 19.9427 30.727 20.4456 30.9924C18.7694 30.9261 17.2075 30.5279 15.7751 29.7905C12.4227 28.0651 10.2437 24.7839 10.0227 21.1266C9.90842 19.3127 10.2665 17.5872 11.0894 15.9355H11.0818Z" fill="#006080"/>
<path d="M14.145 20.5147C14.145 20.5147 14.1907 20.5147 14.2135 20.5147C14.6631 20.7212 15.0516 20.8834 15.3869 21.0014C16.8269 21.5101 18.305 21.8272 19.8364 21.9599C20.1259 21.982 20.4078 22.0115 20.6821 22.0484C20.9488 22.0779 21.4212 22.0926 22.1069 22.0853C22.4497 23.3019 22.9831 24.4227 23.7602 25.4476C24.644 26.6127 26.0307 27.5786 27.5469 27.704C28.0421 27.7482 28.5145 27.645 28.9793 27.4016C28.9869 27.4016 28.9945 27.4016 29.0021 27.4016C29.0021 27.4016 29.0021 27.4016 29.0021 27.409V27.4238C29.0021 27.4238 28.9869 27.4754 28.9564 27.4901C28.8269 27.5639 28.7812 27.6376 28.8193 27.704C28.4231 28.08 28.004 28.4266 27.5621 28.7584C25.5583 30.2478 23.2878 30.9926 20.7431 30.9926C20.6212 30.9926 20.5221 30.9926 20.4459 30.9778C19.9431 30.7124 19.4554 30.4691 18.9754 30.2331C18.6097 30.0561 18.1526 29.7612 17.6116 29.3556C16.6745 28.6478 15.9354 27.7924 15.3869 26.7896C14.7316 25.5804 14.3278 24.3195 14.1678 22.9996C14.084 22.2844 14.0993 21.5249 14.1145 20.7875C14.1145 20.6917 14.1297 20.5958 14.145 20.5073V20.5147Z" fill="#3F97B5"/>
<path d="M22.1065 22.0854C22.6627 22.0928 23.2189 22.1149 23.7827 22.1371C25.238 22.2034 26.7465 22.3804 28.0342 23.0293C28.5751 23.3021 29.0627 23.7593 29.4894 24.386C29.7789 24.8063 29.9465 25.2266 29.9923 25.6395V25.8312C29.9313 26.1704 29.817 26.4727 29.6494 26.7456C29.4361 27.0774 29.1618 27.3944 28.8113 27.7115C28.7732 27.6451 28.8189 27.5714 28.9485 27.4977C28.9713 27.4829 28.9865 27.4608 28.9865 27.4313V27.4166C28.9865 27.4166 28.9865 27.4018 28.9713 27.4018C28.9713 27.4018 28.9713 27.4018 28.9637 27.4018C28.4989 27.6451 28.0265 27.7484 27.5313 27.7041C26.0151 27.5788 24.6285 26.6128 23.7446 25.4478C22.9675 24.4229 22.4265 23.3021 22.0913 22.0854H22.1065Z" fill="#006080"/>
</g>
<circle cx="20" cy="20" r="19.5" stroke="black" stroke-opacity="0.05"/>
<defs>
<clipPath id="clip0_24563_42796">
<rect width="20" height="21" fill="white" transform="translate(10 10)"/>
</clipPath>
</defs>
</svg>
