<svg width="40" height="40" viewBox="0 0 40 40" fill="none" xmlns="http://www.w3.org/2000/svg">
<circle cx="20" cy="20" r="20" fill="#005391"/>
<path d="M4.01917 15.3442H11.2565L7.67617 22.6138H11.2757V24.5901H4L7.69432 17.3336H4.01917V15.3442Z" fill="white"/>
<path d="M13.1328 15.3442H19.2715V17.1823H15.1979V18.9629H18.3999L17.7361 20.8383H15.1979V22.7712H19.2715V24.5901H13.1328V20.8383H9.94897L10.8398 18.9629H13.1328V15.3442Z" fill="white"/>
<path d="M20.7698 15.3442H23.0709V21.031C23.0709 21.031 22.8923 22.7541 24.458 22.7541C26.0459 22.7541 25.7544 21.031 25.7544 21.031V15.3442H28.0364V21.031C28.0364 21.031 28.4399 24.5871 24.4348 24.5871C20.4298 24.5871 20.8121 21.031 20.8121 21.031L20.7698 15.3442Z" fill="white"/>
<path d="M36.0001 16.6478L34.6361 17.8584L32.9362 17.1209C32.9362 17.1209 31.9516 16.8304 31.6389 17.4115C31.3262 17.9926 31.4149 18.5747 32.8495 18.8874C34.284 19.2001 35.9365 19.5804 35.9365 21.4377C35.9365 23.295 34.9075 24.6135 32.223 24.6135C32.223 24.6135 31.2394 24.5903 30.1882 23.8528C29.1562 23.1275 28.8687 22.8016 28.8687 22.8016L30.5241 21.7726L31.4422 22.4314C31.6376 22.5745 31.8596 22.6773 32.0951 22.734C32.3306 22.7906 32.575 22.7999 32.8142 22.7613C33.2177 22.6907 33.6112 22.4728 33.6323 21.9068C33.6767 20.6962 32.1564 20.8778 31.0154 20.2927C29.8745 19.7076 29.1814 18.8803 29.5173 17.3671C29.8533 15.8538 31.6863 14.9963 33.1632 15.3989C34.6402 15.8014 35.0608 16.1333 36.0001 16.6478Z" fill="white"/>
<circle cx="20" cy="20" r="19.5" stroke="black" stroke-opacity="0.05"/>
</svg>
