<svg width="40" height="40" viewBox="0 0 40 40" fill="none" xmlns="http://www.w3.org/2000/svg">
<circle cx="20" cy="20" r="20" fill="#F6F8FA"/>
<path d="M22.5345 16H4V24.6279H22.5345V16Z" fill="#009782"/>
<path d="M36.0003 16H26.9844V24.6279H36.0003V16Z" fill="#D99528"/>
<path d="M27.067 16H22.4492V24.6279H27.067V16Z" fill="black"/>
<path d="M16.0546 21.0749C16.0526 21.3955 15.9616 21.6568 15.5736 21.6588H15.5716C15.1837 21.6568 15.0926 21.3975 15.0906 21.0749V18.759H14.6611V21.0749C14.6631 21.5915 14.9521 21.9992 15.5716 21.9992H15.5736C16.1931 21.9992 16.4821 21.5915 16.4821 21.0749V18.759H16.0546V21.0749Z" fill="white"/>
<path d="M8.03403 20.117H7.07207V18.7611H6.64453V21.9736H7.07207V20.4772H8.03403V21.9736H8.46156V18.7611H8.03403V20.117Z" fill="white"/>
<path d="M20.51 21.0532L19.6549 18.7611H19.0176V21.9736H19.4372V19.2599L20.4684 21.9736H20.9276V18.7611H20.51V21.0532Z" fill="white"/>
<path d="M11.5515 20.1249L10.9815 18.7611H10.5361L11.3358 20.6157L11.3338 21.9736H11.7613V20.6098L12.5511 18.7611H12.1038L11.5515 20.1249Z" fill="white"/>
<path d="M33.3678 18.7611H32.9541V21.9736H33.3678V18.7611Z" fill="white"/>
<path d="M24.5413 18.7611H23.8584V21.9736H24.5413C24.8995 21.9736 25.1925 21.8805 25.3944 21.6292C25.5943 21.3798 25.7031 20.978 25.7031 20.3664C25.7031 19.7547 25.5943 19.3529 25.3944 19.1035C25.1925 18.8541 24.8995 18.7611 24.5413 18.7611ZM24.4581 21.6153H24.276V19.1154H24.4581C24.9886 19.1194 25.2815 19.2797 25.2855 20.3664C25.2815 21.453 24.9866 21.6114 24.4581 21.6153Z" fill="white"/>
<path d="M28.934 18.7611L28.932 18.775L28.168 21.9716H28.5975L28.7994 21.069H29.6426L29.8445 21.9716H30.274L29.5139 18.7611H28.934ZM28.8627 20.7068L29.221 19.0976L29.5812 20.7068H28.8627Z" fill="white"/>
<circle cx="20" cy="20" r="19.5" stroke="black" stroke-opacity="0.05"/>
</svg>
