<svg width="40" height="40" viewBox="0 0 40 40" fill="none" xmlns="http://www.w3.org/2000/svg">
<circle cx="20" cy="20" r="20" fill="#00377B"/>
<circle cx="20" cy="20" r="19.5" stroke="black" stroke-opacity="0.05"/>
<g clip-path="url(#clip0_14382_19323)">
<path d="M11.145 15.008H8.5V25.3474H15.0972L16.4967 22.9233H11.145V15.008ZM17.7154 15.008H20.3604V25.3474H17.7154V15.008ZM32.3559 19.068H27.367V21.492H29.6494C29.2215 22.4587 28.2983 23.128 27.2278 23.128C25.7501 23.128 24.5518 21.8529 24.5518 20.28C24.5518 18.7079 25.7489 17.4333 27.2256 17.4322L30.4286 17.432L31.8282 15.008H27.2278C24.3162 15.008 21.9556 17.3681 21.9556 20.2799C21.9556 23.1917 24.3161 25.5521 27.2278 25.5521C30.1397 25.5521 32.5 23.1917 32.5 20.2799C32.5 19.8623 32.4483 19.4574 32.3559 19.068Z" fill="white"/>
</g>
<defs>
<clipPath id="clip0_14382_19323">
<rect width="24" height="10.56" fill="white" transform="translate(8.5 15)"/>
</clipPath>
</defs>
</svg>
