<svg width="40" height="40" viewBox="0 0 40 40" fill="none" xmlns="http://www.w3.org/2000/svg">
<circle cx="20" cy="20" r="20" fill="#004EA2"/>
<path d="M30.1186 19.4144C29.9414 20.2456 29.7665 21.0653 29.5914 21.8848C29.5644 22.0095 29.5639 22.0115 29.4434 22.0118C29.0954 22.0118 28.7472 22.0118 28.3989 22.0118C28.2664 22.0118 28.2646 22.009 28.2918 21.8798C28.4941 20.9161 28.6968 19.9525 28.8999 18.989C28.964 18.6841 29.0292 18.3796 29.0933 18.0747C29.1133 17.9786 29.1093 17.9717 29.0105 17.9712C28.6347 17.9712 28.2591 17.9712 27.8833 17.9712H27.7868C27.7256 17.9712 27.7089 17.9442 27.7219 17.8836C27.7848 17.5926 27.8456 17.3015 27.9043 17.0102C27.918 16.9426 27.9542 16.9189 28.0196 16.9234C28.0695 16.9266 28.1194 16.9234 28.1708 16.9234H31.8541C32.015 16.9234 32.0153 16.9234 31.9829 17.0793C31.9296 17.3352 31.8762 17.5908 31.8227 17.8461C31.7977 17.9709 31.7962 17.9709 31.6729 17.9709C31.302 17.9709 30.9308 17.9709 30.5595 17.9709C30.426 17.9709 30.4255 17.9709 30.3981 18.0992C30.307 18.5338 30.2134 18.9685 30.1186 19.4144Z" fill="white"/>
<path d="M26.6262 22.2681C26.6262 22.2292 26.6414 22.1863 26.6105 22.1506C26.5683 22.1371 26.5409 22.1683 26.5092 22.183C26.317 22.272 26.1041 22.3065 25.8936 22.2829C25.4884 22.245 25.109 22.0672 24.8206 21.7801C24.7475 21.7087 24.7458 21.7077 24.6769 21.7668C24.3081 22.0895 23.8784 22.2596 23.3903 22.2871C23.0694 22.3053 22.758 22.2621 22.4733 22.1044C22.0768 21.8839 21.8637 21.5497 21.8637 21.0886C21.8637 20.758 21.9905 20.4725 22.1794 20.212C22.3892 19.9226 22.658 19.696 22.9604 19.5083C23.0265 19.4672 23.0941 19.4285 23.162 19.3906C23.2119 19.3631 23.2229 19.3302 23.1957 19.2783C23.1691 19.225 23.1458 19.17 23.1261 19.1138C23.013 18.8122 22.9264 18.5047 22.9372 18.1778C22.9429 17.8999 23.0542 17.6345 23.2486 17.4357C23.6633 17.0026 24.4411 16.9694 24.881 17.2346C25.3302 17.5056 25.4325 17.9795 25.1363 18.4124C25.0405 18.5469 24.9265 18.6675 24.7977 18.7707C24.6409 18.8974 24.4748 19.0121 24.3009 19.1138C24.2178 19.1637 24.2175 19.1682 24.2654 19.2531C24.353 19.4088 24.4401 19.5655 24.5332 19.7169C24.7188 20.0164 24.9075 20.3138 25.0989 20.6108C25.1425 20.6791 25.1582 20.6781 25.2037 20.6108C25.3219 20.4418 25.4235 20.2618 25.5071 20.0733C25.5574 19.9601 25.591 19.8403 25.6069 19.7174C25.6338 19.4824 25.5517 19.3005 25.3434 19.2316C25.2773 19.2097 25.2603 19.1333 25.2788 19.032C25.2925 18.9571 25.3494 18.9718 25.3968 18.9718C25.7356 18.9718 26.0745 18.9718 26.4134 18.9718C26.4548 18.9718 26.496 18.9699 26.5381 18.9718C26.602 18.9758 26.6327 18.9494 26.6282 18.8843C26.6267 18.8613 26.6282 18.8383 26.6282 18.8154C26.6282 16.7774 26.6282 14.7396 26.6282 12.7019C26.6282 12.6652 26.6282 12.6286 26.6282 12.5919C26.6282 12.5552 26.6053 12.5347 26.5623 12.542C26.5361 12.6044 26.4905 12.6375 26.452 12.6762C24.8481 14.2889 23.2284 15.8862 21.6361 17.5099C21.2514 17.9021 20.8588 18.2864 20.4721 18.6767C20.234 18.9167 20.126 19.2176 20.126 19.5465C20.126 19.8754 20.2652 20.1571 20.4706 20.4086C20.7338 20.733 21.024 21.031 21.3157 21.3267C22.2889 22.3143 23.2651 23.3002 24.2637 24.2631C24.8863 24.8635 25.4996 25.4736 26.1177 26.0789C26.209 26.1685 26.2993 26.2591 26.3969 26.343C26.465 26.4013 26.5394 26.4585 26.5913 26.5426C26.6504 26.5086 26.6285 26.4582 26.6285 26.4158C26.6281 25.0339 26.6274 23.6514 26.6262 22.2681Z" fill="#60B252"/>
<path d="M23.3072 19.6885C22.9658 19.8924 22.7425 20.1756 22.7559 20.5886C22.7717 21.0664 23.0147 21.4165 23.4407 21.6184C23.781 21.7796 24.1191 21.7376 24.4218 21.5008C24.4967 21.4427 24.4967 21.4342 24.438 21.3581C24.2541 21.1183 24.0872 20.8665 23.92 20.603C23.7391 20.3156 23.5722 20.0316 23.4209 19.7387C23.395 19.689 23.3723 19.6498 23.3072 19.6885Z" fill="#60B252"/>
<path d="M26.6269 19.4147C26.6269 19.3872 26.6269 19.3598 26.6269 19.3323C26.6269 19.2842 26.602 19.2637 26.5563 19.2844C26.519 19.3017 26.483 19.3218 26.4488 19.3445C26.3028 19.4401 26.2065 19.5791 26.1206 19.7263C25.8918 20.1173 25.7004 20.5296 25.4414 20.9031C25.4027 20.959 25.4294 20.9934 25.4641 21.0349C25.6427 21.2494 25.8659 21.4224 26.1181 21.5419C26.2554 21.6 26.3861 21.6372 26.5274 21.6292C26.5935 21.6255 26.6317 21.6013 26.6272 21.5294C26.6272 21.5065 26.6272 21.4835 26.6272 21.4606L26.6269 19.4147Z" fill="#60B252"/>
<path d="M24.1532 18.8059C24.287 18.7261 24.4096 18.6288 24.5178 18.5167C24.686 18.3376 24.8012 18.1345 24.7641 17.864C24.7476 17.7366 24.6862 17.6192 24.5909 17.5331C24.3925 17.3492 23.9401 17.3612 23.8366 17.7417C23.8148 17.8213 23.8073 17.9042 23.8143 17.9865C23.8378 18.264 23.9331 18.521 24.0389 18.7745C24.0686 18.8451 24.0851 18.8479 24.1532 18.8059Z" fill="#60B252"/>
<path d="M26.4571 26.3552C26.0499 26.0129 25.6908 25.6201 25.3108 25.2501C24.6386 24.5956 23.9598 23.947 23.3006 23.2788C22.4996 22.4673 21.6769 21.6778 20.8984 20.8446C20.7085 20.6413 20.5138 20.4406 20.3611 20.2038C20.041 19.7068 20.1171 19.0887 20.4796 18.7201C21.1118 18.0777 21.7448 17.4362 22.3788 16.7958C23.7243 15.4343 25.0837 14.0866 26.4359 12.7319C26.4913 12.6763 26.5739 12.6336 26.5592 12.5263C26.0741 12.0397 25.5953 11.5609 25.1167 11.082L21.4486 7.41195C21.3547 7.31812 21.2584 7.22705 21.1264 7.16641L21.107 7.15643L21.1319 7.16317C21.0174 7.0943 20.9048 7.0384 20.7798 7.0384L20.7327 7.02842C20.6922 7.02268 20.6623 7.02118 20.6234 7.01694H20.6196C20.6214 7.01694 20.6234 7.0147 20.6251 7.0132C20.5675 7.00147 20.5151 6.98825 20.4707 7.0132C20.4589 7.0132 20.4475 7.01545 20.4352 7.01719C20.3991 7.02055 20.3631 7.02571 20.3274 7.03266H20.3257C20.3257 7.03042 20.3272 7.02867 20.3277 7.02617C20.2908 7.02118 20.2631 7.02443 20.2496 7.05113C20.2433 7.05224 20.237 7.05282 20.2306 7.05287C20.2141 7.05587 20.2057 7.05886 20.1862 7.06385H20.1815C20.1837 7.06161 20.1865 7.05936 20.1887 7.05687C20.1188 7.06885 20.0535 7.07982 20.0125 7.12848C20.003 7.13248 19.9933 7.13622 19.9833 7.13971C19.8442 7.20656 19.7186 7.29851 19.6128 7.41095C17.6911 9.33615 15.7689 11.2604 13.8464 13.1838L8.41988 18.6148C8.33929 18.6957 8.25844 18.7765 8.2003 18.8893L8.1978 18.8838C7.9605 19.2641 7.94328 19.6549 8.11097 20.0566C8.12494 20.0905 8.13592 20.1277 8.17011 20.1419C8.17385 20.1497 8.17734 20.1572 8.18109 20.1647C8.20279 20.2008 8.22201 20.229 8.24671 20.2645C8.24504 20.2653 8.24346 20.2663 8.24197 20.2675C8.2517 20.2947 8.26343 20.3121 8.28539 20.3111C8.28783 20.3166 8.29066 20.322 8.29387 20.3271C8.30421 20.3417 8.31695 20.3544 8.33155 20.3648C8.32946 20.3682 8.32841 20.3722 8.32856 20.3763C8.36584 20.4255 8.40627 20.4722 8.44958 20.5162C10.4498 22.5185 12.4501 24.5204 14.4505 26.5219C16.1696 28.2418 17.8886 29.9616 19.6075 31.6812L19.8987 31.895C20.153 32.0525 20.4569 32.1093 20.7509 32.0545C21.0266 32.0066 21.2542 31.8721 21.4508 31.6747C22.2683 30.8536 23.087 30.0338 23.9069 29.2153C24.7973 28.3248 25.6881 27.4344 26.5821 26.5349C26.5754 26.4463 26.511 26.4006 26.4571 26.3552ZM13.7349 21.9398C13.4312 21.9844 13.1248 22.0077 12.8178 22.0097C12.1723 22.0124 11.5265 22.0097 10.8807 22.0097C10.867 22.0097 10.8533 22.0097 10.8396 22.0097C10.7542 22.0052 10.747 21.9977 10.7647 21.9099C10.8134 21.6723 10.8645 21.4358 10.9144 21.1975C11.161 20.0282 11.4074 18.8589 11.6538 17.6896C11.7002 17.4702 11.7459 17.2504 11.794 17.0313C11.8175 16.9248 11.819 16.923 11.9305 16.9235C12.5444 16.926 13.158 16.9265 13.7715 16.9342C14.079 16.938 14.3839 16.9689 14.6793 17.0642C15.2448 17.2462 15.5901 17.6404 15.7653 18.1949C15.8818 18.5629 15.8955 18.9417 15.8594 19.336C15.8017 19.9476 15.6295 20.5068 15.2732 20.9986C14.8919 21.5256 14.3826 21.8457 13.7349 21.9398ZM19.9981 17.9448C19.3478 17.9448 18.6975 17.9448 18.0472 17.9448C18.0198 17.9448 17.9921 17.9448 17.9649 17.9448C17.9097 17.9411 17.881 17.9656 17.8696 18.0197C17.8147 18.2795 17.7586 18.5391 17.7014 18.7982C17.6914 18.8444 17.7066 18.8696 17.7543 18.8716C17.7862 18.8716 17.8182 18.8716 17.8504 18.8716H19.5813C19.7413 18.8716 19.7403 18.8716 19.7061 19.0335C19.6562 19.2708 19.6063 19.5076 19.5564 19.7462C19.5292 19.8762 19.5294 19.8767 19.3967 19.8767H17.625C17.4753 19.8767 17.4753 19.8767 17.4464 20.0194C17.3897 20.2939 17.3343 20.5666 17.2744 20.8394C17.248 20.9599 17.2116 20.9938 17.395 20.9931C18.0729 20.9903 18.7507 20.9918 19.4284 20.9931C19.5931 20.9931 19.6155 20.9681 19.5699 21.1615C19.514 21.3976 19.4686 21.6356 19.4174 21.8734C19.3872 22.0132 19.386 22.0132 19.237 22.0132H16.5011C16.295 22.0132 16.0889 22.0132 15.8828 22.0132C15.7426 22.0132 15.7418 22.0132 15.7703 21.8784C15.9583 20.9916 16.1464 20.1048 16.3347 19.2182C16.3973 18.9225 16.4595 18.6268 16.5244 18.3199C16.6154 17.8919 16.7038 17.4755 16.7923 17.059C16.8203 16.9278 16.8205 16.9268 16.9516 16.9268H20.1939C20.2122 16.9268 20.2306 16.9268 20.2488 16.9268C20.3115 16.925 20.3267 16.9517 20.3137 17.0131C20.2533 17.2951 20.1934 17.5773 20.139 17.8615C20.1218 17.9486 20.0637 17.9451 19.9968 17.9448H19.9981Z" fill="white"/>
<path d="M14.5187 18.4966C14.4891 18.4071 14.4405 18.3251 14.3762 18.2562C14.3118 18.1873 14.2334 18.1331 14.1462 18.0974C14.0315 18.0512 13.9111 18.0203 13.7884 18.0055C13.5241 17.9676 13.2584 17.9903 12.9934 17.9806C12.9225 17.9781 12.8973 18.0125 12.8853 18.0752C12.8631 18.1919 12.8354 18.3077 12.8104 18.4245C12.6364 19.2337 12.4626 20.043 12.2889 20.8524C12.27 20.9413 12.2772 20.9547 12.3613 20.9535C12.654 20.9492 12.9469 20.9677 13.2516 20.9373C13.7739 20.8759 14.1217 20.5984 14.3321 20.1388C14.5241 19.7211 14.6102 19.2625 14.5829 18.8035C14.5763 18.6987 14.5547 18.5953 14.5187 18.4966Z" fill="white"/>
<circle cx="20" cy="20" r="19.5" stroke="black" stroke-opacity="0.05"/>
</svg>
