<svg width="40" height="40" viewBox="0 0 40 40" fill="none" xmlns="http://www.w3.org/2000/svg">
<circle cx="20" cy="20" r="20" fill="#F6F8FA"/>
<g clip-path="url(#clip0_18553_55917)">
<path d="M25.0722 16.6077C25.0722 16.6077 25.0536 16.6437 25.0351 16.6617C25.0351 16.6437 25.0073 16.6437 24.9702 16.6437C24.3488 16.7697 23.7645 16.8777 23.2266 16.9497C20.769 17.2917 18.3113 17.5707 15.8815 17.7957C15.8536 17.7957 15.8258 17.8227 15.8258 17.8497C15.8258 19.9375 15.8258 22.1244 15.8258 24.4013C15.8258 24.4733 15.8165 24.5363 15.7887 24.5993C15.7794 24.6263 15.7609 24.6443 15.7238 24.6353C13.5165 24.4013 11.3464 23.9243 9.20403 23.2043C9.13911 23.1863 9.08347 23.1503 9.02782 23.1143C9.00927 23.1053 9 23.0873 9 23.0693V12.045C9 12.045 9.01855 12 9.04637 12C9.04637 12 9.05565 12 9.06492 12C9.3246 12.099 9.59355 12.198 9.87177 12.279C10.7435 12.549 11.7081 12.783 12.7468 12.9989C14.7222 13.4039 16.846 13.7549 19.1274 14.0609C21.1956 14.3399 23.1246 14.5648 24.9331 14.7358C25.0258 14.7358 25.0629 14.7898 25.0629 14.8798C25.0536 15.4558 25.0444 16.0138 25.0629 16.5717C25.0629 16.5807 25.0629 16.5897 25.0815 16.5987L25.0722 16.6077Z" fill="#66BFD6"/>
<path d="M25.035 16.6617C25.035 16.6617 25.0628 16.6257 25.0721 16.6077C26.9083 16.3287 28.7446 16.0137 30.5531 15.5817C31.0168 15.4737 31.4805 15.3387 31.9442 15.1768C31.9628 15.1768 31.9906 15.1768 31.9906 15.2038C31.9906 15.2038 31.9906 15.2038 31.9906 15.2128V26.3091C31.9906 26.3091 31.9721 26.3541 31.9535 26.3541C28.4942 27.263 25.0999 27.974 21.789 28.478C20.1382 28.73 18.5059 28.892 16.92 28.9729C16.5769 28.9909 16.2245 28.9999 15.8813 28.9909C15.8535 28.9909 15.835 28.9729 15.835 28.9459V24.6982C15.835 24.6982 15.8628 24.6352 15.8999 24.6352C15.8999 24.6352 15.8999 24.6352 15.9092 24.6352C18.0886 24.9862 20.268 25.3372 22.4382 25.6161C23.2821 25.7241 24.1354 25.8141 24.9886 25.8681C25.0164 25.8681 25.035 25.8501 25.0442 25.8231V16.6617H25.035Z" fill="#1F2853"/>
</g>
<circle cx="20" cy="20" r="19.5" stroke="black" stroke-opacity="0.05"/>
<defs>
<clipPath id="clip0_18553_55917">
<rect width="23" height="17" fill="white" transform="translate(9 12)"/>
</clipPath>
</defs>
</svg>
