<svg width="40" height="40" viewBox="0 0 40 40" fill="none" xmlns="http://www.w3.org/2000/svg">
<circle cx="20" cy="20" r="20" fill="#ED1C24"/>
<g clip-path="url(#clip0_27956_47990)">
<path d="M27.8217 13.32C27.8217 13.32 27.7146 13.256 27.6076 13.32C24.3318 15.368 19.8141 18.1627 14.0333 21.704C13.9262 21.768 13.8834 21.7467 13.8834 21.6187V13.1707C13.8834 13.0427 13.9476 13 14.0547 13H27.6504C27.8645 13 28.0144 13.1707 28.0144 13.3627C28.0144 18.76 28.0144 22.152 28.0144 23.56C28.0144 24.2853 27.8431 25.0747 27.5005 25.9493C26.9867 27.2933 26.0232 28.168 24.6101 28.5733C23.6466 28.8507 22.5761 29 21.3771 28.9787C21.1844 28.9787 17.7801 28.9787 11.1429 28.9787C10.993 28.9787 10.9716 28.936 11.0786 28.8293L27.8003 13.3627C27.8003 13.3627 27.8003 13.3413 27.8003 13.32H27.8217Z" fill="white"/>
</g>
<circle cx="20" cy="20" r="19.5" stroke="black" stroke-opacity="0.05"/>
<defs>
<clipPath id="clip0_27956_47990">
<rect width="17" height="16" fill="white" transform="translate(11.0352 13)"/>
</clipPath>
</defs>
</svg>
