<svg width="40" height="40" viewBox="0 0 40 40" fill="none" xmlns="http://www.w3.org/2000/svg">
<circle cx="20" cy="20" r="20" fill="#F6F8FA"/>
<path d="M10.1482 12.6617C10.7533 12.0224 11.4797 11.5101 12.285 11.1547C13.0903 10.7993 13.9583 10.6078 14.8384 10.5915C15.7184 10.5752 16.593 10.7343 17.4109 11.0597C18.2288 11.385 18.9737 11.87 19.6021 12.4864L29.2367 21.7431L22.7899 28.1571C21.7328 29.2525 16.3047 28.4035 15.2202 27.3409L9.49636 21.3487C7.40402 18.9989 7.71623 15.1648 10.1482 12.6617Z" fill="url(#paint0_linear_14382_21878)"/>
<path d="M15.3819 27.4583C16.6364 28.7109 18.3341 29.4185 20.1069 29.4277C21.8797 29.437 23.5847 28.7471 24.8522 27.5076L30.1488 21.9317C30.7563 21.2946 31.2323 20.5441 31.5496 19.7229C31.8668 18.9018 32.0191 18.0261 31.9977 17.1461C31.9764 16.2661 31.7818 15.3989 31.425 14.5941C31.0683 13.7893 30.5564 13.0627 29.9187 12.4559C29.3032 11.8322 28.5692 11.3379 27.7599 11.002C26.9506 10.6662 26.0823 10.4955 25.2061 10.5001C24.3298 10.5047 23.4633 10.6844 22.6576 11.0288C21.8518 11.3731 21.1231 11.8751 20.5141 12.5052L12.7692 20.5788C11.7504 21.6414 10.4577 22.107 9.38965 21.1703L15.3819 27.4583Z" fill="url(#paint1_linear_14382_21878)"/>
<circle cx="20" cy="20" r="19.5" stroke="black" stroke-opacity="0.05"/>
<defs>
<linearGradient id="paint0_linear_14382_21878" x1="23.1013" y1="22.326" x2="16.9449" y2="16.0188" gradientUnits="userSpaceOnUse">
<stop stop-color="#29702A"/>
<stop offset="0.02" stop-color="#34782A"/>
<stop offset="0.08" stop-color="#5C922C"/>
<stop offset="0.14" stop-color="#7FA92D"/>
<stop offset="0.21" stop-color="#9ABB2E"/>
<stop offset="0.28" stop-color="#B0C92E"/>
<stop offset="0.37" stop-color="#BFD32F"/>
<stop offset="0.46" stop-color="#C8D92F"/>
<stop offset="0.6" stop-color="#CBDB2F"/>
</linearGradient>
<linearGradient id="paint1_linear_14382_21878" x1="27.6193" y1="16.5307" x2="17.1358" y2="29.555" gradientUnits="userSpaceOnUse">
<stop stop-color="#00A880"/>
<stop offset="0.29" stop-color="#02A981"/>
<stop offset="0.44" stop-color="#0AAB83"/>
<stop offset="0.56" stop-color="#18AE86"/>
<stop offset="0.66" stop-color="#2BB38B"/>
<stop offset="0.76" stop-color="#44BA92"/>
<stop offset="0.84" stop-color="#62C29A"/>
<stop offset="0.86" stop-color="#6AC49C"/>
<stop offset="0.89" stop-color="#58BF97"/>
<stop offset="0.95" stop-color="#28B38B"/>
<stop offset="1" stop-color="#00A880"/>
</linearGradient>
</defs>
</svg>
