<svg width="40" height="40" viewBox="0 0 40 40" fill="none" xmlns="http://www.w3.org/2000/svg">
<circle cx="20" cy="20" r="20" fill="#F6F8FA"/>
<g clip-path="url(#clip0_18553_55677)">
<path d="M12.3853 19.7077C11.9253 19.8716 11.5396 20.0853 11.1093 20.2847C11.0944 20.2918 11.0796 20.2847 11.0647 20.2776C11.0499 20.2633 11.0425 20.2348 11.0425 20.2063C11.0425 19.8929 11.0499 19.5938 11.0499 19.3088C11.0499 16.8158 11.0499 14.3156 11.0499 11.8082C11.0499 11.7726 11.0647 11.7513 11.1093 11.7513C16.4435 11.7513 21.7703 11.7513 27.0823 11.7513C27.7129 11.7513 28.2768 11.7513 28.7738 11.7513C28.9964 11.7513 29.2116 11.7655 29.4341 11.7441C29.449 11.7441 29.4712 11.7584 29.4712 11.7726C29.4712 11.7726 29.4712 11.7869 29.4712 11.794C29.4564 11.8154 29.4415 11.8367 29.4193 11.8439C28.4919 12.3995 27.7203 12.8981 27.1194 13.3397C26.7188 13.6318 26.2811 13.9808 25.7914 14.3868C25.5763 14.5649 25.3685 14.7501 25.1756 14.9282C24.6192 15.4481 24.1147 15.9539 23.677 16.4311C23.217 16.9297 22.72 17.5352 22.1709 18.2546C21.7184 18.853 21.34 19.4086 21.0358 19.9285C21.0062 19.9855 20.9468 20.0069 20.8875 19.9855C20.3904 19.8075 19.8785 19.6436 19.3592 19.4869C18.6618 19.2804 17.9718 19.145 17.2893 19.088C16.347 19.0097 15.4419 19.031 14.5888 19.1521C14.3513 19.1878 14.0249 19.2519 13.6094 19.3516C13.2978 19.4228 12.8972 19.5439 12.4076 19.7149L12.3853 19.7077Z" fill="#204E9D"/>
<path d="M25.7172 21.1964C25.2053 21.1323 24.6859 21.0397 24.1518 20.9257C24.1073 20.9186 24.0628 20.9114 24.0108 20.9043C23.9811 20.9043 23.9663 20.8758 23.9663 20.8545C23.9663 20.8473 23.9663 20.8402 23.9737 20.8331C24.2334 20.4912 24.4634 20.135 24.723 19.8002C25.1756 19.209 25.6653 18.6534 26.1772 18.1263C26.2217 18.0836 26.2514 18.0266 26.2959 17.9839C26.3033 17.9767 26.3181 17.9767 26.3255 17.9839C26.3255 17.9839 26.3255 17.9839 26.3255 17.991C26.3404 18.0551 26.3478 18.1192 26.3478 18.1833C26.3478 19.1734 26.3478 20.1849 26.3552 21.2249C26.3552 21.2391 26.3478 21.2462 26.333 21.2462C26.1178 21.2462 25.9101 21.2177 25.6949 21.1892L25.7172 21.1964Z" fill="#204E9D"/>
<path d="M13.8471 20.0138C13.6171 20.0779 13.3797 20.1491 13.1497 20.2275C13.0533 20.256 12.9494 20.2916 12.8529 20.3343L12.163 20.6192C12.0072 20.6833 11.8588 20.7546 11.7104 20.8401L11.1392 21.1748C11.1392 21.1748 11.6511 21.2461 11.6585 21.2532L12.393 21.3387C12.393 21.3387 12.4523 21.3387 12.4746 21.3458C12.7788 21.36 12.9716 21.3957 13.2758 21.4241C13.4465 21.4384 13.6245 21.4598 13.8026 21.4811L14.5445 21.5737C14.6409 21.5809 14.7225 21.5951 14.7893 21.6093C14.9748 21.645 15.1528 21.6806 15.3383 21.7162C15.6722 21.7803 16.0208 21.8658 16.377 21.937L17.653 22.2433C18.4023 22.4356 19.1517 22.6564 19.8861 22.9057C20.6132 23.1479 21.3328 23.3545 22.0451 23.5255C22.3121 23.5896 22.5866 23.6252 22.8463 23.6608C23.4695 23.7463 24.1001 23.7463 24.753 23.7391C25.1165 23.7391 25.5097 23.675 25.8658 23.6323C26.1923 23.5896 26.5855 23.497 27.0306 23.3687C27.6167 23.1907 28.1138 23.034 28.6554 22.7633C29.197 22.4926 29.5976 22.3074 29.9982 21.9869C30.0056 21.9797 30.013 21.9726 30.0205 21.9584C30.0205 21.9584 30.0205 21.9513 30.0205 21.9441C30.0205 21.9299 30.0056 21.9228 29.9908 21.9299C29.8572 21.9655 29.7237 21.9869 29.5976 22.0011C28.6628 22.108 27.7132 22.1222 26.7635 22.051C26.2071 22.0082 25.6433 21.9655 25.0868 21.8587C24.6936 21.7874 24.3004 21.7376 23.9146 21.6521C23.6847 21.6022 23.4621 21.5524 23.2469 21.5025C23.0763 21.4669 22.8982 21.4099 22.7276 21.3672C22.6015 21.3387 22.4754 21.3031 22.3418 21.2603C21.9931 21.1463 21.6593 21.0395 21.3477 20.9469C20.8654 20.7973 20.1458 20.5053 19.53 20.3129C19.1517 20.1919 18.9068 20.1206 18.7881 20.0921C18.4469 20.0138 18.0982 19.9354 17.7421 19.8927C17.3488 19.8143 17.015 19.7787 16.5624 19.7645C16.095 19.7502 15.6425 19.7858 15.1899 19.8143C15.049 19.8215 14.908 19.8357 14.767 19.8571L14.3738 19.9212C14.1958 19.9497 14.0177 19.9853 13.8397 20.0351L13.8471 20.0138Z" fill="url(#paint0_linear_18553_55677)"/>
<path d="M18.4021 25.4841C18.2241 26.0611 18.0831 26.5739 17.9792 27.0013C17.8308 27.6139 17.7196 28.1624 17.6528 28.6467C17.6009 28.9887 17.5563 29.3306 17.5192 29.6725C17.5192 29.7081 17.4822 29.7366 17.4451 29.7366H11.1093C11.0647 29.7366 11.0425 29.7152 11.0425 29.6725V22.1078C11.0425 22.1078 11.0499 22.0864 11.0647 22.0864C11.547 22.0722 12.0366 22.0864 12.5189 22.1291C13.0901 22.1719 13.6614 22.2289 14.2326 22.3001C14.6184 22.35 15.0191 22.4141 15.4197 22.5067C15.9167 22.6135 16.399 22.7204 16.8812 22.8201C17.0667 22.8557 17.2373 22.8984 17.408 22.9483C17.8902 23.0836 18.4095 23.2332 18.9659 23.3899C19.0105 23.4042 19.0476 23.4113 19.0847 23.4255C19.1292 23.4398 19.1514 23.4825 19.1366 23.5253C19.1366 23.5253 19.1366 23.5395 19.1292 23.5395C19.1069 23.5751 19.0847 23.6107 19.0698 23.6535C18.9289 24.0239 18.7879 24.3871 18.6544 24.7433C18.5579 24.9997 18.4689 25.249 18.4021 25.4912V25.4841Z" fill="#204E9D"/>
<path d="M22.0525 24.4586C22.0525 24.4586 22.0747 24.3944 22.0822 24.3588C22.0822 24.3303 22.1118 24.3161 22.1415 24.3161C22.6386 24.3873 23.0689 24.4372 23.4324 24.4657C23.6105 24.4799 23.9517 24.487 24.4488 24.4799C24.7827 24.4799 25.0572 24.4657 25.2723 24.4443C25.5765 24.4158 25.9104 24.366 26.2739 24.2876C26.2961 24.2876 26.3258 24.2876 26.3555 24.2876C26.3703 24.2876 26.3777 24.3018 26.3777 24.3161C26.3777 26.1111 26.3777 27.8491 26.3777 29.5159C26.3777 29.5658 26.3777 29.6157 26.3852 29.6655C26.3852 29.7011 26.3703 29.7225 26.3332 29.7225H20.7171C20.7171 29.7225 20.6577 29.7011 20.6577 29.6655C20.6577 29.6655 20.6577 29.6655 20.6577 29.6584C20.7245 29.2809 20.769 28.882 20.8432 28.4902C20.9396 27.9987 21.0138 27.6354 21.088 27.3861C21.1845 27.0442 21.2735 26.7237 21.3551 26.4245C21.5406 25.7478 21.778 25.1352 22.0599 24.4443L22.0525 24.4586Z" fill="#204E9D"/>
</g>
<circle cx="20" cy="20" r="19.5" stroke="black" stroke-opacity="0.05"/>
<defs>
<linearGradient id="paint0_linear_18553_55677" x1="11.1466" y1="21.7376" x2="30.0353" y2="21.7376" gradientUnits="userSpaceOnUse">
<stop offset="0.08" stop-color="#A6D3DE"/>
<stop offset="0.85" stop-color="#008CA3"/>
</linearGradient>
<clipPath id="clip0_18553_55677">
<rect width="19" height="18" fill="white" transform="translate(11.0352 11.7368)"/>
</clipPath>
</defs>
</svg>
