<svg width="40" height="40" viewBox="0 0 40 40" fill="none" xmlns="http://www.w3.org/2000/svg">
<circle cx="20" cy="20" r="20" fill="#6FB92B"/>
<g clip-path="url(#clip0_18695_29018)">
<path d="M29.469 14.8481L31.971 18.5792C32.2871 19.0566 32.6032 19.5341 32.9328 20.0115C33.0202 20.1411 33.027 20.2776 32.9328 20.414C31.4867 22.7194 30.1348 24.7316 28.8704 26.4573C26.671 29.4653 23.2879 31.7571 19.5147 31.7298C18.9094 31.7298 18.257 31.7571 17.6382 31.6616C14.4838 31.1569 11.975 29.6017 10.0985 27.0029C8.92822 25.3796 8.15475 23.2378 8.03368 21.2188C7.99333 20.5299 7.99333 19.8547 8.03368 19.1999C8.28254 15.4825 10.5088 12.0789 13.6094 10.2645C17.5306 7.95905 22.4472 8.3001 25.9715 11.0421C27.2562 12.0448 28.4265 13.3134 29.469 14.8481ZM14.9949 17.1263C12.1499 15.1483 8.5314 17.4946 8.79371 20.8505C8.9484 22.8354 10.5828 24.4724 12.5333 24.5679C13.8986 24.6361 15.0622 24.07 16.0173 22.8695C16.5621 22.1874 17.0867 21.4235 17.5844 20.5845C17.6382 20.489 17.6315 20.373 17.5709 20.2844C16.784 19.2135 16.0845 17.8971 14.9882 17.1331L14.9949 17.1263ZM18.8152 18.9134C19.7905 18.7974 20.8061 18.9475 21.1895 19.957C21.6468 21.1575 20.6447 22.126 19.4945 22.1465C18.9834 22.1465 18.4588 22.1465 17.914 22.1192C17.8333 22.1192 17.766 22.1806 17.766 22.2624V24.3633C17.766 24.411 17.7996 24.4588 17.8534 24.4588C18.5731 24.4588 19.2659 24.4451 19.9452 24.4178C21.6401 24.3496 23.5301 22.9923 23.7924 21.1847C24.0412 19.4932 23.4493 18.1904 22.0167 17.2695C20.7994 16.4851 19.3062 16.4851 17.8534 16.5124C17.7996 16.5124 17.7525 16.5602 17.7525 16.6147L17.7794 20.0047C17.7794 20.0661 17.8265 20.1139 17.8871 20.1139C17.9005 20.1139 17.9072 20.1139 17.9207 20.1139C17.9812 20.0934 18.0283 20.0525 18.0552 19.9911C18.2435 19.6228 18.452 19.2885 18.674 18.9884C18.7076 18.9407 18.7614 18.9134 18.822 18.9066L18.8152 18.9134ZM27.7673 18.8315H29.6237C29.6909 18.8315 29.7246 18.8042 29.7246 18.736V16.6284C29.7178 16.5738 29.6708 16.5329 29.6237 16.5329H25.3057C25.1981 16.5329 25.1039 16.5806 25.0434 16.6693C24.5995 17.3309 24.1623 17.9653 23.7386 18.5792C23.6915 18.6474 23.678 18.6951 23.6915 18.736C23.7117 18.7974 23.7722 18.8384 23.8327 18.8384C24.391 18.8384 24.9694 18.8384 25.5747 18.8384C25.6218 18.8384 25.6554 18.8793 25.6554 18.9202V24.4042C25.6554 24.4383 25.6823 24.4656 25.716 24.4656H27.505C27.579 24.4656 27.6194 24.4178 27.6194 24.3428L27.6328 18.9543C27.6328 18.8725 27.6732 18.8247 27.7606 18.8247L27.7673 18.8315Z" fill="white"/>
<path d="M12.7551 22.3239C13.7543 22.3239 14.5643 21.5025 14.5643 20.4891C14.5643 19.4758 13.7543 18.6543 12.7551 18.6543C11.7558 18.6543 10.9458 19.4758 10.9458 20.4891C10.9458 21.5025 11.7558 22.3239 12.7551 22.3239Z" fill="white"/>
</g>
<circle cx="20" cy="20" r="19.5" stroke="black" stroke-opacity="0.05"/>
<defs>
<clipPath id="clip0_18695_29018">
<rect width="25" height="23" fill="white" transform="translate(8 8.73682)"/>
</clipPath>
</defs>
</svg>
