<svg width="40" height="40" viewBox="0 0 40 40" fill="none" xmlns="http://www.w3.org/2000/svg">
<circle cx="20" cy="20" r="20" fill="#F6F8FA"/>
<g clip-path="url(#clip0_18553_55961)">
<path d="M15.9554 18.2433C18.8017 16.367 18.6257 12.9875 16.0796 10.966C16.0589 10.9557 16.0589 10.9246 16.0796 10.9142C16.0796 10.9142 16.0796 10.9142 16.0899 10.9038C17.125 10.4684 18.2635 10.2093 19.5159 10.1367C19.5676 10.1367 19.5883 10.1575 19.5883 10.2093L19.2571 20.5136C19.2571 20.5136 19.2364 20.555 19.2157 20.555H19.195L15.9554 18.3677C15.8933 18.3262 15.9036 18.2951 15.9554 18.2537V18.2433Z" fill="#ECAA22"/>
<path d="M26.2022 12.718C24.0183 12.5003 22.2484 13.2259 20.9028 14.8846C20.7579 15.0712 20.6441 15.2992 20.5095 15.4962C20.4681 15.5688 20.4371 15.5584 20.4371 15.4755L20.2715 10.23C20.2715 10.1678 20.3025 10.1367 20.3646 10.1367C22.7555 10.2611 24.8463 11.1319 26.6369 12.7387C26.699 12.7905 26.6886 12.8113 26.6058 12.7905C26.4713 12.7491 26.3264 12.7283 26.2022 12.718Z" fill="#FDD709"/>
<path d="M15.6344 11.1526C18.1598 13.0289 18.3048 16.2529 15.5516 18.0152C15.5205 18.0359 15.4791 18.0359 15.4377 18.0152L11.308 15.2266C11.308 15.2266 11.2769 15.1851 11.2976 15.1644C12.3223 13.3917 13.7506 12.0544 15.5619 11.1526C15.5826 11.1422 15.6137 11.1526 15.6344 11.1526Z" fill="#E8236C"/>
<path d="M20.8302 15.7658C22.0412 13.5163 24.546 12.6144 27.0197 13.2882C27.4337 13.4022 27.6614 13.8273 27.9201 14.1383C27.9615 14.1901 27.9512 14.2316 27.8994 14.2627L20.6336 19.591C20.6336 19.591 20.5922 19.591 20.5818 19.591C20.5818 19.591 20.5818 19.5807 20.5818 19.5703C20.5197 18.0983 20.499 17.1549 20.499 16.7506C20.499 16.4915 20.6129 16.1597 20.8199 15.7658H20.8302Z" fill="#A6CE3B"/>
<path d="M28.583 15.1955C29.4317 16.6882 29.8768 18.3987 29.825 20.0574C29.825 20.0988 29.8043 20.1196 29.7526 20.1196H26.8027C26.8027 20.1196 26.7096 20.0988 26.6785 20.0574L25.1156 18.2225C25.1156 18.2225 25.0949 18.1603 25.1156 18.1396L28.5105 15.1747C28.5105 15.1747 28.5623 15.154 28.583 15.1747V15.1955Z" fill="#1FBED6"/>
<path d="M14.3823 18.8236C13.3266 20.2127 13.3162 21.9957 14.2581 23.4263C14.2891 23.4782 14.2788 23.5196 14.227 23.5404C13.0471 24.1312 11.5049 24.0172 10.5837 23.022C10.4492 22.8769 10.356 22.6799 10.2939 22.4519C10.1594 21.8921 10.0869 21.4256 10.0662 21.042C10.0248 20.2334 10.0041 19.3316 10.1283 18.523C10.2732 17.6004 10.5423 16.7192 10.946 15.8588C10.946 15.8381 10.9771 15.8277 10.9978 15.8381L14.3719 18.751C14.3719 18.751 14.403 18.8132 14.3719 18.834L14.3823 18.8236Z" fill="#AC2A8D"/>
<path d="M23.7491 24.3076C22.8176 24.8052 21.855 24.9814 20.8614 24.8259C20.7786 24.8155 20.7372 24.7637 20.7268 24.6808L20.644 22.1099C20.644 22.1099 20.6647 22.0166 20.6958 21.9855L24.6289 18.5542C24.6289 18.5542 24.7117 18.5231 24.7531 18.5645C25.105 18.9896 25.4776 19.4249 25.8502 19.85C25.9951 20.0158 26.0779 20.2024 26.109 20.4201C26.3263 22.1099 25.1774 23.5404 23.7388 24.3076H23.7491Z" fill="#7F3897"/>
<path d="M15.5931 24.1624C13.9578 23.0221 13.4921 20.8036 14.6823 19.1243C14.7134 19.0724 14.7548 19.0724 14.8065 19.1139L19.1329 22.8562C19.1329 22.8562 19.1847 22.9184 19.1847 22.9599L19.1329 24.8466C19.1329 24.8466 19.1122 24.9088 19.0708 24.9191C17.746 25.0954 16.5868 24.8466 15.6035 24.152L15.5931 24.1624Z" fill="#0EB092"/>
<path d="M29.835 20.7417C29.6694 22.4418 29.2347 23.7687 28.4688 25.1267C28.4377 25.1786 28.3963 25.2097 28.3446 25.22C27.2268 25.4999 25.105 25.5621 24.4115 24.3907C24.3805 24.3389 24.3908 24.3078 24.4426 24.2767C25.7156 23.437 26.5644 22.1308 26.5644 20.7002C26.5644 20.638 26.5954 20.6069 26.6575 20.6069H29.7315C29.8247 20.6069 29.8661 20.6484 29.8557 20.7417H29.835Z" fill="#F25F89"/>
<path d="M18.8847 29.9263C15.1793 29.5324 12.1881 27.1895 10.7184 23.7686C10.6873 23.7064 10.708 23.6857 10.7701 23.7271C11.9707 24.4321 13.2128 24.4735 14.4859 23.8515C14.5273 23.8308 14.5687 23.8412 14.5997 23.8723C15.79 25.0541 17.2701 25.5413 19.04 25.3236C19.0917 25.3236 19.1124 25.3339 19.1124 25.3858L18.9675 29.8537C18.9675 29.8537 18.9365 29.9263 18.8951 29.9263H18.8847Z" fill="#89623F"/>
<path d="M28.1065 25.7073C27.6925 26.2463 27.3199 26.6921 26.9783 27.0342C25.343 28.6825 23.3454 29.6465 20.9648 29.9264C20.9338 29.9264 20.9027 29.9057 20.9027 29.8746L20.7578 25.2511C20.7578 25.2511 20.7785 25.1993 20.8096 25.1993C21.8549 25.3548 22.9521 25.1371 23.9043 24.5981C23.956 24.567 24.0078 24.5773 24.0388 24.6292C24.8772 25.7487 26.8023 25.8524 28.0444 25.6036C28.1479 25.5829 28.1789 25.614 28.1065 25.7073Z" fill="#166482"/>
</g>
<circle cx="20" cy="20" r="19.5" stroke="black" stroke-opacity="0.05"/>
<defs>
<clipPath id="clip0_18553_55961">
<rect width="19.8" height="19.8" fill="white" transform="translate(10.0352 10.1367)"/>
</clipPath>
</defs>
</svg>
