<svg width="40" height="40" viewBox="0 0 40 40" fill="none" xmlns="http://www.w3.org/2000/svg">
<circle cx="20" cy="20" r="20" fill="#EF8215"/>
<path d="M31.9999 20.4211C31.9772 26.7063 26.5888 31.7798 19.9603 31.7571C13.3318 31.7344 7.97737 26.6212 8.00007 20.336C8.02277 14.0537 13.4112 8.97738 20.0397 9.00008C26.6682 9.02278 32.0226 14.136 31.9999 20.4211ZM28.419 20.3984C28.4275 15.2228 24.0151 11.0204 18.5642 11.0119C13.1105 11.0034 8.68392 15.1887 8.6754 20.3644C8.66689 25.5401 13.0793 29.7424 18.5302 29.751C23.9811 29.7595 28.4104 25.5741 28.419 20.3984Z" fill="white"/>
<path d="M22.7892 23.1337C24.7556 19.2945 22.2955 15.0666 18.1782 14.2125C16.4956 13.8606 14.9009 14.1415 13.3998 15.0524C13.3885 15.0581 13.3799 15.0552 13.3743 15.0467L13.3317 14.9814C13.2948 14.9247 13.3005 14.8736 13.3544 14.831C16.087 12.6234 19.7303 12.3794 22.7098 14.133C26.0382 16.0909 27.4626 20.421 25.4395 23.8402C24.0349 26.2152 21.9124 27.5262 19.0664 27.7674C17.0375 27.9405 15.0995 27.3275 13.2551 25.9315C13.2097 25.8974 13.1955 25.8549 13.2125 25.801C13.2154 25.7924 13.221 25.7839 13.2296 25.7783C13.2608 25.7584 13.292 25.7556 13.3232 25.7726C15.4627 26.8594 17.5398 26.9814 19.5573 26.1329C20.9987 25.5257 22.077 24.5269 22.7892 23.1337Z" fill="white"/>
<circle cx="20" cy="20" r="19.5" stroke="black" stroke-opacity="0.05"/>
</svg>
