<svg width="40" height="40" viewBox="0 0 40 40" fill="none" xmlns="http://www.w3.org/2000/svg">
<circle cx="20" cy="20" r="20" fill="#F6F8FA"/>
<path d="M18.7195 17.8374C18.9107 17.5215 19.0933 17.2 19.2947 16.8907C20.1287 15.6106 21.1384 14.4949 22.3997 13.6202C23.28 13.0097 24.2314 12.5537 25.2863 12.3364C26.1454 12.1595 27.0034 12.1464 27.8405 12.4435C29.0243 12.8636 29.7185 13.7134 29.9726 14.9342C29.9896 15.0161 30.0013 15.099 29.9998 15.1871C29.9621 15.1141 29.925 15.0408 29.8865 14.9682C29.5336 14.3045 29.0549 13.7602 28.3767 13.4153C27.6114 13.0261 26.8099 12.9897 25.9902 13.2044C25.1982 13.4118 24.5142 13.8213 23.896 14.3477C22.9943 15.1155 22.3099 16.0543 21.7685 17.099C21.5492 17.5221 21.3682 17.965 21.1647 18.4107C21.1189 18.5292 21.0727 18.6341 21.0385 18.7428C20.8883 19.221 20.7415 19.7003 20.5935 20.1791C20.4878 20.653 20.3688 21.1244 20.2791 21.6013C20.1096 22.5034 20.0103 23.4152 19.9703 24.332C19.9448 24.9148 19.9213 25.4993 19.9382 26.0818C19.9617 26.8927 20.003 27.7043 20.0754 28.5121C20.1506 29.3525 20.2718 30.1887 20.3734 31.0307C19.0871 31.0307 17.78 31.0307 16.4624 31.0307C16.4519 30.8972 16.4374 30.7609 16.4311 30.6241C16.4085 30.1406 16.3825 29.6572 16.3699 29.1734C16.3587 28.7436 16.3473 28.3127 16.3648 27.8834C16.3966 27.1056 16.4344 26.3275 16.4976 25.5517C16.5878 24.4453 16.7784 23.3534 17.0395 22.2743C17.2424 21.436 17.4956 20.6132 17.8088 19.8091C17.8143 19.7952 17.8181 19.7806 17.8277 19.7545C17.9391 19.4918 18.0375 19.2371 18.1535 18.9908C18.3359 18.6034 18.5302 18.2216 18.7195 17.8374Z" fill="#EE1C25"/>
<path d="M18.7125 17.8368C18.5303 18.2218 18.3359 18.6036 18.1535 18.991C18.0375 19.2373 17.9391 19.492 17.8292 19.7479C17.6008 19.7009 17.3743 19.6556 17.1516 19.596C16.0699 19.3068 15.02 18.9286 13.9995 18.4675C12.9428 17.99 11.9295 17.4336 10.9568 16.8033C10.6516 16.6055 10.3541 16.3961 10.0507 16.1957C9.98202 16.1503 9.98772 16.1195 10.0402 16.0649C10.4403 15.6487 10.8385 15.2306 11.2363 14.8122C11.4515 14.5858 11.6648 14.3575 11.887 14.1216C12.0029 14.2125 12.1133 14.2989 12.2234 14.3855C12.9757 14.9772 13.7641 15.5164 14.5886 16.0023C15.3639 16.4592 16.1616 16.8745 16.9979 17.2079C17.5611 17.4324 18.1359 17.6276 18.7125 17.8368Z" fill="#ACBECA"/>
<path d="M20.6021 20.1799C20.7415 19.7 20.8883 19.2208 21.0385 18.7426C21.0727 18.6339 21.1189 18.529 21.163 18.4173C21.6458 18.4658 22.1241 18.5385 22.605 18.5673C23.0624 18.5946 23.5228 18.5857 23.9814 18.5743C24.3018 18.5664 24.6227 18.5387 24.941 18.4998C25.4025 18.4435 25.8578 18.3519 26.3044 18.2186C26.8109 18.0674 27.2971 17.8718 27.7391 17.5782C28.0341 17.3822 28.2997 17.1533 28.4939 16.8524C28.8119 16.3595 28.8496 15.8439 28.6106 15.3084C28.492 15.0424 28.3281 14.8065 28.1319 14.5922C28.1131 14.5717 28.0978 14.548 28.0809 14.5257C28.0875 14.5178 28.0941 14.5099 28.1006 14.502C28.2448 14.5965 28.3937 14.6845 28.5321 14.7867C28.9441 15.0912 29.2432 15.4767 29.3471 15.9892C29.4277 16.3869 29.368 16.7719 29.2088 17.1421C28.974 17.6883 28.5923 18.1192 28.1387 18.4927C27.4965 19.0216 26.7635 19.3818 25.9818 19.651C25.4244 19.8429 24.853 19.9803 24.2687 20.0552C23.8408 20.1101 23.4108 20.1591 22.9802 20.1807C22.4221 20.2087 21.8624 20.2116 21.3033 20.2156C21.0725 20.2172 20.8416 20.1933 20.6021 20.1799Z" fill="#ACBECA"/>
<circle cx="20" cy="20" r="19.5" stroke="black" stroke-opacity="0.05"/>
</svg>
