<svg width="40" height="40" viewBox="0 0 40 40" fill="none" xmlns="http://www.w3.org/2000/svg">
<circle cx="20" cy="20" r="20" fill="#2764C1"/>
<path d="M8.04656 20.7878H6.99198C6.97473 20.7878 6.96067 20.7737 6.96067 20.7558V19.5415C6.96003 19.5197 6.97089 19.5089 6.99198 19.5089H9.56196C9.57218 19.5089 9.58049 19.5178 9.58049 19.528V22.0501C9.58049 22.0942 9.56004 22.1357 9.52489 22.1626C8.85507 22.6662 8.18717 23.0177 7.32881 23.0861C6.19626 23.1756 5.11548 22.9557 4.49871 21.9446C4.08135 21.2595 3.97142 20.4887 4.00593 19.6795C4.06409 18.3354 4.76459 17.114 6.13107 16.8711C6.68264 16.7727 7.38761 16.7766 7.95069 16.8801C8.77774 17.0322 9.30055 17.6867 9.49229 18.4837C9.49932 18.5131 9.48143 18.5419 9.45203 18.5489C9.45203 18.5489 9.45075 18.5489 9.45011 18.5489L7.89189 18.8582C7.85929 18.8646 7.83948 18.8518 7.83245 18.8199C7.76023 18.5041 7.48796 18.2351 7.16519 18.175C6.36371 18.0254 5.86007 18.5642 5.75397 19.3075C5.68431 19.7926 5.69262 20.2579 5.77762 20.7034C6.01027 21.9216 7.19843 21.9798 8.04912 21.3681C8.06701 21.3553 8.07788 21.3342 8.07788 21.3119V20.8191C8.07852 20.798 8.06765 20.7871 8.04656 20.7871V20.7878Z" fill="white"/>
<path d="M24.1146 21.1731C24.1331 21.1405 24.1504 21.0971 24.1657 21.0427C24.5447 19.6686 24.9218 18.3034 25.297 16.9471C25.3053 16.9184 25.3238 16.9043 25.3532 16.9043H27.0239C27.0348 16.9043 27.0431 16.9133 27.0425 16.9241C27.0425 16.9261 27.0425 16.928 27.0418 16.9293L25.0266 22.9538C25.0177 22.98 24.9991 22.9934 24.9716 22.9934H23.207C23.1821 22.9934 23.1661 22.9819 23.1578 22.9582L21.1144 16.9535C21.1081 16.9344 21.1183 16.9133 21.1381 16.9062C21.1419 16.905 21.1464 16.9043 21.1502 16.9043H22.8555C22.8772 16.9037 22.8906 16.9139 22.8964 16.935L24.0839 21.1687C24.0909 21.1949 24.1011 21.1961 24.1146 21.1731Z" fill="white"/>
<path d="M11.4525 21.2654C11.4941 21.6546 11.6973 22.033 12.1191 22.0771C12.4291 22.1097 12.6746 21.9927 12.8561 21.7256C12.8746 21.6987 12.9059 21.684 12.9385 21.6872L14.36 21.8387C14.3772 21.8406 14.39 21.8566 14.3881 21.8739C14.3881 21.8777 14.3868 21.8809 14.3849 21.8847C14.0455 22.5654 13.5406 22.9515 12.8701 23.0441C12.215 23.1342 11.6583 23.1068 11.1988 22.9617C10.4689 22.7316 10.0177 21.9851 9.91476 21.2488C9.73388 19.9584 10.3308 18.643 11.7625 18.5031C12.5614 18.4251 13.4511 18.5376 13.9669 19.1818C14.4156 19.7417 14.5159 20.4774 14.484 21.1868C14.4833 21.2079 14.4718 21.2188 14.4507 21.2188L11.4934 21.22C11.4627 21.22 11.4493 21.2354 11.4525 21.2654ZM11.4851 20.3898L12.8989 20.3872C12.911 20.3872 12.9213 20.377 12.9213 20.3649V20.3514C12.9206 19.8766 12.5959 19.4918 12.1958 19.4924H12.1856C11.7855 19.4924 11.4621 19.8785 11.4627 20.354V20.3674C11.4627 20.3796 11.473 20.3898 11.4851 20.3898Z" fill="white"/>
<path d="M16.3674 19.1545C16.717 18.6477 17.2232 18.4253 17.8847 18.4885C18.3411 18.5326 18.6658 18.7576 18.8588 19.1635C18.8677 19.182 18.8901 19.1903 18.9086 19.1814C18.9144 19.1788 18.9189 19.175 18.9227 19.1699C19.3324 18.6093 19.8852 18.3901 20.5825 18.5122C21.3827 18.6522 21.6083 19.43 21.6103 20.1324C21.6135 21.1084 21.6141 22.0505 21.6109 22.958C21.6109 22.9817 21.5994 22.9932 21.5757 22.9932H20.1115C20.093 22.9925 20.0776 22.9772 20.0776 22.9587C20.0783 22.1457 20.0776 21.3206 20.0763 20.4839C20.0763 20.344 20.0584 20.1867 19.983 20.0666C19.8737 19.8921 19.6897 19.7694 19.4877 19.8243C19.179 19.9087 19.0288 20.2334 19.0269 20.5415C19.0224 21.2841 19.0218 22.0901 19.025 22.9587C19.025 22.9772 19.0096 22.9925 18.9904 22.9925H17.5223C17.5044 22.9925 17.4904 22.9778 17.4897 22.9599C17.4891 22.2141 17.4897 21.4906 17.491 20.7882C17.491 20.6047 17.4808 20.4302 17.4597 20.2647C17.392 19.7342 16.749 19.6409 16.5349 20.1203C16.4639 20.28 16.4269 20.4596 16.4249 20.6584C16.4173 21.4107 16.416 22.177 16.4217 22.958C16.4217 22.9772 16.4058 22.9932 16.3866 22.9932H14.9012C14.8904 22.9925 14.8853 22.9874 14.8853 22.9766V18.6144C14.8853 18.5966 14.8993 18.5825 14.9172 18.5825H16.2818C16.308 18.5825 16.3208 18.5946 16.3208 18.6208L16.3278 19.1424C16.3278 19.1545 16.338 19.1641 16.3495 19.1641C16.3565 19.1641 16.3629 19.1603 16.3674 19.1545Z" fill="white"/>
<path d="M29.2456 22.5055C28.8282 22.9567 28.3514 23.0884 27.7481 23.0922C26.8424 23.0986 26.2193 22.5669 26.3292 21.5992C26.3899 21.0649 26.7159 20.7236 27.3077 20.5753C27.7072 20.4756 28.1239 20.3746 28.5579 20.2723C28.765 20.2238 28.9663 20.1375 29.1632 20.0589C29.1855 20.0499 29.1964 20.0333 29.1945 20.009C29.1778 19.7508 29.1318 19.5393 28.8244 19.5035C28.6499 19.4836 28.4761 19.4983 28.3016 19.5482C28.0741 19.6134 27.9801 19.7789 27.9028 19.9835C27.8938 20.0071 27.8695 20.0218 27.8446 20.0186L26.4711 19.855C26.4475 19.8524 26.4372 19.8396 26.4411 19.816C26.6641 18.4591 27.8599 18.4674 28.9126 18.4872C29.1945 18.4923 29.452 18.5269 29.6847 18.5901C30.513 18.8145 30.7105 19.5693 30.7067 20.3267C30.7035 21.001 30.7035 21.6375 30.7067 22.2371C30.7086 22.501 30.7636 22.7324 30.8722 22.9312C30.8952 22.9727 30.8831 22.9938 30.8358 22.9938H29.4872C29.4546 22.9938 29.4252 22.974 29.4124 22.9446C29.3555 22.8123 29.3159 22.671 29.2935 22.5202C29.2878 22.4818 29.2718 22.4767 29.2456 22.5055ZM28.2556 21.2311C27.6541 21.4234 27.7411 22.2051 28.393 22.1335C28.8832 22.0792 29.1516 21.7756 29.1887 21.3071C29.1983 21.1831 29.2034 21.0649 29.2028 20.953C29.2028 20.9307 29.1919 20.923 29.1708 20.93C28.8698 21.0316 28.5643 21.132 28.2556 21.2311Z" fill="white"/>
<path d="M33.4766 21.6315L32.6597 22.9807C32.6546 22.9884 32.6463 22.9935 32.6367 22.9935H31.0261C31.0114 22.9935 30.9993 22.9814 30.9993 22.9667C30.9993 22.9616 31.0005 22.9564 31.0031 22.9526L32.4162 20.7003C32.4214 20.6913 32.4213 20.6805 32.4156 20.6715L31.0862 18.6237C31.0779 18.6116 31.0817 18.595 31.0939 18.5867C31.0983 18.5841 31.1034 18.5822 31.1086 18.5822H32.8687C32.879 18.5815 32.8886 18.5873 32.893 18.5962L33.481 19.7473C33.4874 19.7608 33.5041 19.7659 33.5168 19.7595C33.5213 19.7569 33.5258 19.7531 33.5283 19.7486L34.209 18.595C34.2135 18.5867 34.2224 18.5815 34.232 18.5815H35.8778C35.8925 18.5822 35.9047 18.5943 35.9047 18.609C35.9047 18.6141 35.9034 18.6193 35.9002 18.6237L34.5797 20.6683C34.574 20.6773 34.574 20.6881 34.5791 20.6971L35.996 22.9526C36.0037 22.9654 35.9999 22.982 35.9871 22.9897C35.9826 22.9922 35.9782 22.9935 35.973 22.9935H34.2384C34.2282 22.9942 34.2186 22.9884 34.2141 22.9795L33.5232 21.6334C33.5162 21.62 33.5002 21.6149 33.4868 21.6219C33.4823 21.6238 33.4791 21.6277 33.4766 21.6315Z" fill="white"/>
<circle cx="20" cy="20" r="19.5" stroke="black" stroke-opacity="0.05"/>
</svg>
