<svg width="40" height="40" viewBox="0 0 40 40" fill="none" xmlns="http://www.w3.org/2000/svg">
<circle cx="20" cy="20" r="20" fill="#F6F8FA"/>
<g clip-path="url(#clip0_26413_48041)">
<path d="M7.63138 20.354C7.71722 21.1711 6.97772 21.9006 5.98072 21.9824C4.97712 22.0641 4.09897 21.4746 4.00653 20.6633C3.9207 19.8462 4.66019 19.1166 5.65719 19.0291C6.66079 18.9415 7.54555 19.5368 7.63138 20.3481V20.354ZM5.76284 21.673C6.24483 21.6847 6.64759 21.1711 6.66079 20.5349C6.674 19.8987 6.30425 19.3734 5.82226 19.3617C5.34027 19.3501 4.93751 19.8637 4.9243 20.4999C4.91109 21.1361 5.28084 21.6613 5.76284 21.673Z" fill="#E31A22"/>
<path d="M9.0774 19.3094V21.7432C9.0774 21.7783 9.05759 21.7958 9.01798 21.7958H8.23887C8.19925 21.7958 8.17944 21.7783 8.17944 21.7432V19.0876C8.17944 19.0467 8.21906 19.0117 8.26528 19.0117C8.73407 19.0117 9.24247 19.0117 9.78389 19.0117C10.2329 19.0117 10.9592 19.1635 11.0318 19.6304C11.1704 20.4709 10.18 20.6927 9.42074 20.6927C9.38773 20.6927 9.35471 20.681 9.33491 20.6518C9.3151 20.6285 9.3085 20.5993 9.3217 20.5701C9.33491 20.5292 9.36792 20.5059 9.41414 20.4942C9.62542 20.4475 9.80369 20.3541 9.95555 20.2199C10.2527 19.9572 10.2527 19.5487 9.8301 19.3911C9.61222 19.3094 9.37452 19.2685 9.13022 19.2685C9.10381 19.2685 9.08401 19.286 9.08401 19.3094H9.0774Z" fill="#2E3192"/>
<path d="M13.2635 19.3561V21.7608C13.2635 21.7608 13.2371 21.8016 13.2107 21.8016H12.3722C12.3722 21.8016 12.3259 21.7783 12.3259 21.7549V19.3853C12.3259 19.3853 12.3061 19.3444 12.2797 19.3444H11.4676C11.4676 19.3444 11.4214 19.3328 11.4214 19.3094V19.0584C11.4214 19.0584 11.4412 19.0176 11.4676 19.0176H14.1813C14.1813 19.0176 14.2275 19.0351 14.2275 19.0584V19.2802C14.2275 19.2802 14.2011 19.3211 14.1747 19.3211H13.3097C13.3097 19.3211 13.2635 19.3328 13.2635 19.3561Z" fill="#2E3192"/>
<path d="M15.6999 19.3794V21.8016C15.6999 21.8016 15.6867 21.8249 15.6669 21.8249H14.8878C14.8482 21.8249 14.8284 21.8074 14.8284 21.7724V19.0876C14.8284 19.0409 14.8548 19.0117 14.9142 19.0117C15.4028 19.0117 15.8914 19.0117 16.3734 19.0117C16.7629 19.0117 17.0931 19.0876 17.3572 19.2452C17.7335 19.467 17.8524 20.0156 17.4826 20.3074C17.3374 20.4183 17.1789 20.5176 17.0138 20.5934C16.9808 20.6051 16.9676 20.6401 16.9874 20.6693C16.9874 20.6693 16.9874 20.6751 16.994 20.681C17.344 21.0604 17.6873 21.4339 18.0174 21.8074V21.8133C17.6609 21.8249 17.3044 21.8249 16.9544 21.8191C16.928 21.8191 16.9082 21.8074 16.895 21.7899L15.9442 20.751C15.8848 20.6868 15.898 20.5934 15.9706 20.5409C15.9904 20.5234 16.0234 20.5117 16.0499 20.5117C16.2677 20.4825 16.4592 20.4067 16.6111 20.2841C16.9346 20.0273 16.8818 19.5954 16.4856 19.4261C16.2743 19.3327 16.0367 19.2977 15.7725 19.3094C15.7263 19.3094 15.7065 19.3327 15.7065 19.3736L15.6999 19.3794Z" fill="#2E3192"/>
<path d="M21.9064 20.3425C21.9988 21.1596 21.2659 21.8892 20.2623 21.9826C19.2587 22.076 18.3674 21.4865 18.275 20.6752C18.1825 19.8581 18.9154 19.1285 19.919 19.0351C20.9226 18.9417 21.814 19.5312 21.9064 20.3425ZM20.0445 21.6733C20.5199 21.6791 20.9226 21.1713 20.9358 20.5351C20.949 19.8989 20.5727 19.3736 20.0973 19.3678C19.6219 19.362 19.2191 19.8698 19.2059 20.5059C19.1927 21.1421 19.5691 21.6674 20.0445 21.6733Z" fill="#049F4E"/>
<path d="M23.4382 19.9399C23.4382 20.6111 23.4382 21.2473 23.4514 21.8543C23.4514 21.8776 23.4382 21.8835 23.4184 21.8835H22.6063C22.6063 21.8835 22.5732 21.866 22.5732 21.8485C22.5732 21.2823 22.5732 20.6811 22.5732 20.045C22.5732 19.899 22.6195 19.759 22.7251 19.6422C23.4778 18.7492 25.4058 18.7959 26.0924 19.7473C26.1189 19.7823 26.1321 19.8232 26.1321 19.8699V21.8076C26.1321 21.8426 26.1123 21.8601 26.0726 21.8601H25.2605C25.2209 21.8601 25.2011 21.8426 25.2011 21.8076C25.2011 21.2064 25.2011 20.5469 25.2011 19.829C25.2011 19.2103 23.841 19.2629 23.5372 19.6539C23.4778 19.7298 23.4514 19.8232 23.4514 19.9399H23.4382Z" fill="#2E3192"/>
<path d="M28.8458 19.3736V21.7549C28.8458 21.7549 28.8194 21.8074 28.7864 21.8074H27.9676C27.9676 21.8074 27.9082 21.7841 27.9082 21.7549V19.3911C27.9082 19.3911 27.8818 19.3386 27.8554 19.3386H27.0631C27.0631 19.3386 27.0103 19.3211 27.0037 19.2977V19.0642C27.0037 19.0642 27.0235 19.0117 27.0565 19.0117H29.7702C29.7702 19.0117 29.823 19.0409 29.823 19.0701L29.8032 19.251C29.8032 19.251 29.7768 19.2977 29.7504 19.2977L28.892 19.3211C28.892 19.3211 28.8392 19.3444 28.8392 19.3736H28.8458Z" fill="#2E3192"/>
<path d="M31.3085 20.5818V21.5039C31.3085 21.5039 31.3349 21.5565 31.3679 21.5565H32.7875C32.7875 21.5565 32.8469 21.5856 32.8469 21.6148L32.8337 21.8074C32.8337 21.8074 32.8073 21.8541 32.7743 21.8541H30.4634C30.4634 21.8541 30.4039 21.8308 30.4039 21.8016V19.0642C30.4039 19.0642 30.4369 19.0117 30.47 19.0117H32.7479C32.7479 19.0117 32.8073 19.0292 32.8073 19.0584V19.286C32.8073 19.286 32.7875 19.3386 32.7545 19.3386H31.3349C31.3349 19.3386 31.2755 19.3619 31.2755 19.3911V20.144C31.2755 20.144 31.3019 20.1965 31.3349 20.1965H32.7545C32.7545 20.1965 32.8139 20.2199 32.8139 20.2491V20.4767C32.8139 20.4767 32.7875 20.5292 32.7545 20.5292H31.3745C31.3415 20.5292 31.3151 20.5526 31.3151 20.5818H31.3085Z" fill="#2E3192"/>
<path d="M35.0126 21.6383C35.4879 21.8893 35.9303 21.3757 36.102 21.0546C36.1284 21.0079 36.168 20.9846 36.2274 20.9846L36.9405 20.9437C36.9735 20.9437 36.9999 20.9613 37.0065 20.9963C37.0065 21.0079 37.0065 21.0138 36.9999 21.0255C36.5774 21.7258 35.9237 22.0469 35.039 22.0002C34.2598 21.9535 33.6326 21.4924 33.4807 20.827C33.0714 19.0469 36.1086 18.2823 36.9405 19.9223C36.9801 19.9982 36.9537 20.0391 36.8547 20.0391H36.2076C36.1218 20.0391 36.069 20.0041 36.0492 19.934C35.752 19.0527 34.6824 19.1869 34.4447 19.9982C34.2731 20.5819 34.3853 21.3114 35.0258 21.6441L35.0126 21.6383Z" fill="#2E3192"/>
</g>
<circle cx="20" cy="20" r="19.5" stroke="black" stroke-opacity="0.05"/>
<defs>
<clipPath id="clip0_26413_48041">
<rect width="33" height="3" fill="white" transform="translate(4 19)"/>
</clipPath>
</defs>
</svg>
