<svg width="40" height="40" viewBox="0 0 40 40" fill="none" xmlns="http://www.w3.org/2000/svg">
<circle cx="20" cy="20" r="20" fill="#0099D9"/>
<g clip-path="url(#clip0_14382_20044)">
<path d="M23.2071 18.606C22.7129 19.1022 22.4355 19.7739 22.4355 20.4742C22.4355 21.1744 22.7129 21.8462 23.2071 22.3424L24.6472 23.7825C24.7602 23.8956 24.8945 23.9854 25.0422 24.0466C25.19 24.1078 25.3484 24.1393 25.5083 24.1393C25.6682 24.1393 25.8266 24.1078 25.9743 24.0466C26.1221 23.9854 26.2563 23.8956 26.3694 23.7825L24.0682 21.4813C23.9359 21.3493 23.8309 21.1927 23.7592 21.0202C23.6875 20.8477 23.6505 20.6627 23.6503 20.4759C23.6501 20.2891 23.6866 20.1041 23.7579 19.9314C23.8292 19.7588 23.9338 19.6018 24.0657 19.4696C24.1976 19.3373 24.3543 19.2323 24.5268 19.1606C24.6993 19.0889 24.8842 19.0519 25.071 19.0517C25.2578 19.0515 25.4429 19.088 25.6155 19.1593C25.7882 19.2306 25.9452 19.3352 26.0774 19.4671L30.3879 23.7825C30.5009 23.8956 30.6352 23.9854 30.7829 24.0466C30.9307 24.1078 31.089 24.1393 31.249 24.1393C31.4089 24.1393 31.5673 24.1078 31.715 24.0466C31.8628 23.9854 31.997 23.8956 32.1101 23.7825L26.9336 18.606C26.6881 18.36 26.3965 18.1648 26.0755 18.0317C25.7545 17.8985 25.4104 17.83 25.0629 17.83C24.7154 17.83 24.3713 17.8985 24.0503 18.0317C23.7293 18.1648 23.4377 18.36 23.1922 18.606" fill="white"/>
<path d="M28.3831 17.1659C27.5057 16.2891 26.316 15.7968 25.0756 15.7973C23.8352 15.7978 22.6457 16.291 21.769 17.1684C20.8922 18.0458 20.3999 19.2356 20.4004 20.476C20.4009 21.7164 20.894 22.9058 21.7715 23.7825C21.8845 23.8957 22.0188 23.9854 22.1665 24.0466C22.3143 24.1078 22.4726 24.1394 22.6326 24.1394C22.7925 24.1394 22.9509 24.1078 23.0986 24.0466C23.2464 23.9854 23.3806 23.8957 23.4937 23.7825L22.6326 22.9165C22.2776 22.6035 21.9905 22.2211 21.7891 21.7929C21.5876 21.3647 21.476 20.8998 21.4612 20.4268C21.4463 19.9538 21.5285 19.4828 21.7027 19.0428C21.877 18.6028 22.1395 18.2032 22.4741 17.8685C22.8087 17.5339 23.2083 17.2714 23.6483 17.0972C24.0883 16.923 24.5594 16.8407 25.0324 16.8556C25.5053 16.8704 25.9703 16.982 26.3985 17.1835C26.8267 17.385 27.2091 17.672 27.522 18.027L33.2974 23.7776C33.5265 24.0064 33.8371 24.1348 34.1609 24.1348C34.4848 24.1348 34.7953 24.0064 35.0245 23.7776L28.3831 17.1659Z" fill="white"/>
<path d="M24.6472 20.0313C24.5906 20.0878 24.5457 20.1549 24.5151 20.2288C24.4845 20.3027 24.4688 20.3818 24.4688 20.4618C24.4688 20.5418 24.4845 20.621 24.5151 20.6948C24.5457 20.7687 24.5906 20.8358 24.6472 20.8924L27.5224 23.7726C27.6355 23.8857 27.7698 23.9755 27.9175 24.0367C28.0653 24.0979 28.2236 24.1294 28.3836 24.1294C28.5435 24.1294 28.7019 24.0979 28.8496 24.0367C28.9974 23.9755 29.1316 23.8857 29.2447 23.7726L25.5083 20.0313C25.4517 19.9747 25.3846 19.9298 25.3107 19.8992C25.2369 19.8686 25.1577 19.8528 25.0777 19.8528C24.9978 19.8528 24.9186 19.8686 24.8447 19.8992C24.7708 19.9298 24.7037 19.9747 24.6472 20.0313Z" fill="white"/>
<path d="M16.7884 18.606C17.0342 18.851 17.2293 19.1422 17.3624 19.4628C17.4955 19.7834 17.564 20.1271 17.564 20.4742C17.564 20.8213 17.4955 21.165 17.3624 21.4856C17.2293 21.8062 17.0342 22.0973 16.7884 22.3424L15.3532 23.7825C15.124 24.0113 14.8135 24.1398 14.4896 24.1398C14.1658 24.1398 13.8552 24.0113 13.6261 23.7825L15.9273 21.4813C16.0679 21.351 16.1808 21.1936 16.2592 21.0186C16.3375 20.8437 16.3798 20.6547 16.3835 20.463C16.3871 20.2713 16.352 20.0808 16.2803 19.903C16.2087 19.7252 16.1018 19.5637 15.9663 19.4281C15.8307 19.2925 15.6692 19.1857 15.4914 19.114C15.3135 19.0424 15.1231 19.0073 14.9314 19.0109C14.7397 19.0146 14.5507 19.0568 14.3757 19.1352C14.2008 19.2136 14.0434 19.3265 13.9131 19.4671L9.60264 23.7825C9.37346 24.0113 9.06288 24.1398 8.73906 24.1398C8.41525 24.1398 8.10466 24.0113 7.87549 23.7825L13.052 18.606C13.297 18.3601 13.5882 18.1651 13.9088 18.032C14.2294 17.8989 14.5731 17.8304 14.9202 17.8304C15.2673 17.8304 15.611 17.8989 15.9316 18.032C16.2522 18.1651 16.5433 18.3601 16.7884 18.606Z" fill="white"/>
<path d="M11.6117 17.1659C12.0462 16.7314 12.562 16.3868 13.1296 16.1517C13.6973 15.9166 14.3056 15.7955 14.9201 15.7955C15.5345 15.7955 16.1429 15.9166 16.7105 16.1517C17.2782 16.3868 17.7939 16.7314 18.2284 17.1659C18.6628 17.6003 19.0075 18.1161 19.2426 18.6837C19.4777 19.2514 19.5987 19.8598 19.5987 20.4742C19.5987 21.0886 19.4777 21.697 19.2426 22.2646C19.0075 22.8323 18.6628 23.3481 18.2284 23.7825C17.9992 24.0113 17.6886 24.1398 17.3648 24.1398C17.041 24.1398 16.7304 24.0113 16.5012 23.7825L17.3673 22.9165C17.7222 22.6035 18.0093 22.2211 18.2108 21.7929C18.4122 21.3647 18.5238 20.8998 18.5387 20.4268C18.5535 19.9538 18.4713 19.4828 18.2971 19.0428C18.1229 18.6028 17.8604 18.2031 17.5257 17.8685C17.1911 17.5339 16.7915 17.2714 16.3515 17.0972C15.9115 16.9229 15.4405 16.8407 14.9675 16.8556C14.4945 16.8704 14.0295 16.982 13.6013 17.1835C13.1731 17.385 12.7908 17.672 12.4778 18.027L6.72227 23.7776C6.49309 24.0063 6.18251 24.1348 5.85869 24.1348C5.53488 24.1348 5.22429 24.0063 4.99512 23.7776L11.6117 17.1659Z" fill="white"/>
<path d="M15.3529 20.0313C15.4095 20.0878 15.4544 20.1549 15.485 20.2288C15.5156 20.3027 15.5313 20.3818 15.5313 20.4618C15.5313 20.5418 15.5156 20.621 15.485 20.6948C15.4544 20.7687 15.4095 20.8358 15.3529 20.8924L12.4776 23.7726C12.2485 24.0014 11.9379 24.1299 11.6141 24.1299C11.2902 24.1299 10.9797 24.0014 10.7505 23.7726L14.4918 20.0313C14.5484 19.9747 14.6155 19.9298 14.6894 19.8992C14.7632 19.8686 14.8424 19.8528 14.9224 19.8528C15.0023 19.8528 15.0815 19.8686 15.1554 19.8992C15.2293 19.9298 15.2964 19.9747 15.3529 20.0313Z" fill="white"/>
</g>
<circle cx="20" cy="20" r="19.5" stroke="black" stroke-opacity="0.05"/>
<defs>
<clipPath id="clip0_14382_20044">
<rect width="30" height="8.33883" fill="white" transform="translate(5 15.8)"/>
</clipPath>
</defs>
</svg>
