<svg width="40" height="40" viewBox="0 0 40 40" fill="none" xmlns="http://www.w3.org/2000/svg">
<circle cx="20" cy="20" r="20" fill="#002856"/>
<path d="M30.0367 20.9314V20.4015H31.2404H31.3134V20.3285V19.8727V19.7996H31.2404H30.0367V19.3876H31.3541H31.4271V19.3146V18.8494V18.7764H31.3541H29.4275H29.3545V18.8494V21.4769V21.55H29.4275H31.4188H31.4918V21.4769V21.0044V20.9314H31.4188H30.0367Z" fill="white"/>
<path d="M32.4681 20.9314V18.8494V18.7764H32.3951H31.8465H31.7734V18.8494V21.4769V21.55H31.8465H33.6969H33.7699V21.4769V21.0044V20.9314H33.6969H32.4681Z" fill="white"/>
<path d="M35.9269 20.9314H34.6981V18.8494V18.7764H34.6251H34.0764H34.0034V18.8494V21.4769V21.55H34.0764H35.9269H35.9999V21.4769V21.0044V20.9314H35.9269Z" fill="white"/>
<path d="M29.0593 18.8573V19.4832C29.0593 19.4832 28.2874 19.093 27.7586 19.5447C27.2297 19.9964 27.5239 20.7495 27.8274 20.9143C28.1309 21.0791 28.4866 21.1229 29.0791 20.906V21.5036C29.0791 21.5036 28.1685 21.7988 27.4665 21.3993C26.7645 20.9998 26.7207 20.3844 26.7551 19.8983C26.7895 19.4122 27.2683 18.8375 27.9786 18.7718C28.447 18.7269 28.664 18.7801 29.0593 18.8573Z" fill="white"/>
<path d="M6.81835 21.5236L8.22756 18H6.81835L6.11426 19.7618L6.81835 21.5236Z" fill="#F5A800"/>
<path d="M6.11435 19.7618L5.40922 18H4L5.40922 21.5236H6.81844L6.11435 19.7618Z" fill="#009383"/>
<path d="M9.9893 18H8.58008V21.5236H9.9893V18Z" fill="white"/>
<path d="M11.3997 18H10.342V18.8814H11.3997V21.5236H12.809V18.8814H13.8656V18H12.809H11.3997Z" fill="white"/>
<path d="M14.2183 18.8814H15.857L14.2183 20.6422V21.5236H17.3893V20.6422H15.7506L17.3893 18.8814V18H14.2183V18.8814Z" fill="white"/>
<path d="M23.3784 18C22.3082 18 21.4414 18.7886 21.4414 19.7618C21.4414 20.735 22.3082 21.5236 23.3784 21.5236C24.4486 21.5236 25.3165 20.7339 25.3165 19.7618C25.3165 18.7896 24.4486 18 23.3784 18ZM23.3784 20.6421C22.9894 20.6421 22.6743 20.2479 22.6743 19.7618C22.6743 19.2757 22.9873 18.8804 23.3784 18.8804C23.7696 18.8804 24.0836 19.2747 24.0836 19.7618C24.0836 20.2489 23.7685 20.6421 23.3784 20.6421Z" fill="white"/>
<path d="M19.6798 20.4659L20.2076 21.5236H21.4447L20.7708 20.2228C20.9252 20.1081 21.0507 19.9588 21.1371 19.7869C21.2235 19.615 21.2684 19.4253 21.2684 19.2329C21.2681 18.9058 21.138 18.5922 20.9066 18.3611C20.6752 18.1299 20.3615 18 20.0344 18H17.918V21.5236H19.1499V20.4659H19.6798ZM19.6798 19.5855H19.1499V18.8845H19.6787C19.725 18.8845 19.7708 18.8937 19.8135 18.9114C19.8562 18.9291 19.895 18.9551 19.9276 18.9879C19.9603 19.0206 19.9862 19.0595 20.0038 19.1023C20.0214 19.145 20.0304 19.1909 20.0302 19.2371C20.0294 19.3296 19.9922 19.4181 19.9265 19.4833C19.8609 19.5485 19.7723 19.5852 19.6798 19.5855Z" fill="white"/>
<circle cx="20" cy="20" r="19.5" stroke="black" stroke-opacity="0.05"/>
</svg>
