<svg width="40" height="40" viewBox="0 0 40 40" fill="none" xmlns="http://www.w3.org/2000/svg">
<circle cx="20" cy="20" r="20" fill="#3131C8"/>
<path d="M20.049 7.93808L8.03164 19.8718C7.9419 19.961 7.94139 20.106 8.03051 20.1957L8.43071 20.5987C8.51984 20.6885 8.66484 20.689 8.75459 20.5998L20.7719 8.66609C20.8617 8.57697 20.8622 8.43197 20.7731 8.34222L20.3729 7.93922C20.2837 7.84947 20.1387 7.84896 20.049 7.93808Z" fill="white"/>
<path d="M21.0826 8.98464L9.10685 20.9186C9.01224 21.0129 9.01198 21.1661 9.10625 21.2607L9.51492 21.6708C9.6092 21.7654 9.76232 21.7656 9.85693 21.6713L21.8327 9.73734C21.9273 9.64306 21.9275 9.48993 21.8333 9.39533L21.4246 8.98523C21.3303 8.89062 21.1772 8.89036 21.0826 8.98464Z" fill="white"/>
<path d="M22.1831 10.0516L10.1527 21.9983C10.0651 22.0852 10.0647 22.2268 10.1516 22.3144L10.5699 22.7356C10.6569 22.8232 10.7984 22.8237 10.886 22.7367L22.9164 10.79C23.004 10.703 23.0045 10.5615 22.9175 10.4739L22.4992 10.0527C22.4122 9.96512 22.2707 9.96462 22.1831 10.0516Z" fill="white"/>
<path d="M26.14 13.7128L25.627 13.1998C25.5612 13.1339 25.4545 13.1339 25.3886 13.1998L20.1574 18.431C20.0916 18.4968 20.0916 18.6035 20.1574 18.6694L20.6704 19.1824C20.7362 19.2482 20.843 19.2482 20.9088 19.1824L26.14 13.9511C26.2058 13.8853 26.2058 13.7786 26.14 13.7128Z" fill="white"/>
<path d="M27.1776 14.7479L26.6983 14.2686C26.6325 14.2028 26.5257 14.2028 26.4599 14.2686L21.2365 19.4921C21.1706 19.5579 21.1706 19.6646 21.2365 19.7304L21.7158 20.2098C21.7816 20.2756 21.8883 20.2756 21.9542 20.2098L27.1776 14.9863C27.2434 14.9205 27.2434 14.8138 27.1776 14.7479Z" fill="white"/>
<path d="M27.5353 15.322L22.2689 20.5335C22.2078 20.594 22.2072 20.6926 22.2677 20.7538L22.7884 21.2799C22.8489 21.341 22.9475 21.3415 23.0086 21.281L28.275 16.0695C28.3361 16.009 28.3366 15.9104 28.2761 15.8493L27.7555 15.3232C27.695 15.262 27.5964 15.2615 27.5353 15.322Z" fill="white"/>
<path d="M26.0453 18.9245L28.5425 16.3999C28.5773 16.3652 28.6239 16.3452 28.673 16.3438C28.722 16.3425 28.7697 16.3599 28.8063 16.3925L29.3303 16.8634C29.3496 16.8809 29.3652 16.9021 29.3761 16.9257C29.387 16.9494 29.393 16.975 29.3936 17.0011C29.3943 17.0271 29.3897 17.053 29.3801 17.0772C29.3705 17.1014 29.356 17.1234 29.3376 17.1419L26.8221 19.6555C26.7871 19.6904 26.7399 19.7105 26.6904 19.7115C26.6409 19.7125 26.593 19.6945 26.5565 19.661L26.0527 19.203C26.0333 19.1855 26.0177 19.1643 26.0069 19.1407C25.996 19.117 25.99 19.0914 25.9893 19.0653C25.9886 19.0393 25.9932 19.0134 26.0029 18.9892C26.0125 18.965 26.0269 18.943 26.0453 18.9245Z" fill="white"/>
<path d="M29.6953 17.4322L17.5612 29.524C17.5139 29.5712 17.5138 29.6477 17.5609 29.695L18.0938 30.2297C18.1409 30.277 18.2175 30.2771 18.2648 30.23L30.3988 18.1382C30.4461 18.0911 30.4463 18.0145 30.3991 17.9672L29.8663 17.4325C29.8192 17.3852 29.7426 17.3851 29.6953 17.4322Z" fill="white"/>
<path d="M30.7553 18.4794L18.5871 30.5629C18.5433 30.6063 18.5431 30.6771 18.5866 30.7209L19.1649 31.3033C19.2084 31.3471 19.2792 31.3474 19.323 31.3039L31.4911 19.2204C31.5349 19.1769 31.5352 19.1061 31.4917 19.0623L30.9133 18.4799C30.8698 18.4361 30.7991 18.4359 30.7553 18.4794Z" fill="white"/>
<path d="M31.7784 19.5532L19.6858 31.6036C19.6264 31.6629 19.6262 31.7592 19.6855 31.8187L20.2312 32.3663C20.2905 32.4258 20.3868 32.426 20.4463 32.3667L32.5388 20.3163C32.5983 20.257 32.5985 20.1607 32.5392 20.1012L31.9934 19.5536C31.9341 19.4941 31.8379 19.4939 31.7784 19.5532Z" fill="white"/>
<path d="M13.6846 20.5956L11.2139 23.0321C11.1216 23.1231 11.1206 23.2715 11.2115 23.3638L11.6335 23.7916C11.7244 23.8839 11.8729 23.8849 11.9651 23.794L14.4359 21.3575C14.5281 21.2665 14.5291 21.118 14.4382 21.0258L14.0162 20.5979C13.9253 20.5057 13.7768 20.5047 13.6846 20.5956Z" fill="white"/>
<path d="M14.7955 21.6191L12.2493 24.1564C12.1812 24.2243 12.181 24.3345 12.2488 24.4026L12.7584 24.9139C12.8262 24.982 12.9364 24.9822 13.0045 24.9143L15.5507 22.377C15.6188 22.3091 15.619 22.1989 15.5512 22.1309L15.0416 21.6195C14.9738 21.5514 14.8636 21.5513 14.7955 21.6191Z" fill="white"/>
<path d="M15.8694 22.6975L13.3336 25.2245C13.2626 25.2952 13.2624 25.4101 13.3331 25.481L13.7961 25.9456C13.8668 26.0166 13.9816 26.0168 14.0526 25.9461L16.5884 23.4191C16.6594 23.3484 16.6596 23.2335 16.5889 23.1626L16.1259 22.698C16.0552 22.627 15.9403 22.6268 15.8694 22.6975Z" fill="white"/>
<path d="M16.971 23.746L14.3787 26.3202C14.3227 26.3758 14.3224 26.4663 14.378 26.5223L14.8996 27.0475C14.9552 27.1035 15.0457 27.1038 15.1017 27.0482L17.6939 24.474C17.7499 24.4184 17.7502 24.3279 17.6946 24.2719L17.1731 23.7467C17.1175 23.6907 17.027 23.6904 16.971 23.746Z" fill="white"/>
<path d="M17.9587 24.8326L15.4731 27.301C15.3876 27.3858 15.3871 27.5239 15.472 27.6093L15.9238 28.0643C16.0087 28.1497 16.1467 28.1502 16.2322 28.0654L18.7178 25.597C18.8032 25.5122 18.8037 25.3741 18.7189 25.2887L18.267 24.8337C18.1822 24.7483 18.0441 24.7478 17.9587 24.8326Z" fill="white"/>
<path d="M19.0878 25.8734L16.496 28.4115C16.4367 28.4695 16.4357 28.5647 16.4938 28.6239L16.9963 29.1371C17.0543 29.1963 17.1494 29.1973 17.2087 29.1393L19.8005 26.6012C19.8598 26.5431 19.8608 26.448 19.8028 26.3887L19.3003 25.8756C19.2422 25.8163 19.1471 25.8153 19.0878 25.8734Z" fill="white"/>
<circle cx="20" cy="20" r="19.5" stroke="black" stroke-opacity="0.05"/>
</svg>
