<svg width="40" height="40" viewBox="0 0 40 40" fill="none" xmlns="http://www.w3.org/2000/svg">
<circle cx="20" cy="20" r="20" fill="#0E57A5"/>
<path d="M17.0245 16.2523C17.0544 16.3141 17.0708 16.3816 17.0727 16.4503C17.1083 17.379 17.1289 18.3972 17.1347 19.505C17.1347 19.7168 17.1932 19.8994 17.2001 20.1077C17.2005 20.1263 17.2047 20.1447 17.2123 20.1617C17.22 20.1787 17.2309 20.1939 17.2446 20.2066C17.2582 20.2193 17.2743 20.2291 17.2918 20.2355C17.3093 20.2419 17.3279 20.2447 17.3465 20.2438C17.3843 20.2425 17.4202 20.2264 17.4463 20.199C18.9261 18.6068 20.4345 16.9996 21.9716 15.3775C22.467 14.8588 22.9944 14.3717 23.5507 13.919C24.7494 12.9411 26.1756 12.2819 27.6972 12.0025C27.6988 12.0009 27.7009 12 27.7032 12C27.7054 12 27.7076 12.0009 27.7092 12.0025L27.7264 12.0472C27.7264 12.0627 27.7264 12.0713 27.7109 12.0765C26.5142 12.4553 25.3002 12.953 24.4719 13.6814C23.9012 14.1956 23.3683 14.7504 22.8774 15.3413C21.7914 16.6225 20.7232 17.8904 19.6728 19.1452C18.1592 20.9515 16.5544 22.6889 15.0235 24.4832C14.8513 24.6864 14.7618 24.6554 14.7635 24.3851C14.7807 22.0891 14.7807 19.8862 14.7635 17.7762C14.7635 17.2585 14.5144 16.9933 14.0162 16.9806C12.6535 16.9462 11.1399 16.9462 9.47538 16.9806C8.99178 16.9745 8.51143 17.0604 8.05992 17.2338C7.41591 17.5127 6.80117 18.279 6.90965 19.0418C6.91049 19.059 6.91483 19.0758 6.9224 19.0912C6.92998 19.1066 6.94063 19.1203 6.95369 19.1314C6.96676 19.1425 6.98197 19.1509 6.99839 19.1559C7.0148 19.1609 7.03207 19.1626 7.04913 19.1607L13.1173 19.14C13.1319 19.14 13.146 19.1458 13.1563 19.1561C13.1666 19.1665 13.1724 19.1805 13.1724 19.1951C13.1724 19.2084 13.1675 19.2213 13.1586 19.2313C12.4234 20.094 11.9929 21.0496 10.6325 20.9928C9.49719 20.9446 8.33314 20.9446 7.1404 20.9928C7.0801 20.9955 7.02315 21.0213 6.98144 21.065C6.93973 21.1086 6.91648 21.1666 6.91654 21.227V24.8707C6.91753 24.8828 6.91592 24.8951 6.91182 24.9066C6.90771 24.9181 6.90121 24.9286 6.89274 24.9374C6.88428 24.9462 6.87404 24.953 6.8627 24.9576C6.85137 24.9621 6.8392 24.9642 6.827 24.9637H5.12743C5.09393 24.9637 5.06177 24.9505 5.03793 24.9269C5.01408 24.9034 5.00045 24.8715 5 24.838C5 22.8864 5.00402 20.9859 5.01205 19.1365C5.01205 18.1929 5.49937 16.9428 6.19676 16.2781C6.90441 15.5825 7.85298 15.1866 8.84514 15.1726C10.4638 15.1336 12.2632 15.1255 14.2435 15.1485C15.5384 15.1657 16.47 15.1175 17.0245 16.2523Z" fill="#64B721"/>
<path d="M22.0229 20.13C22.0229 19.8086 21.9155 19.7679 21.7008 20.0078C20.034 21.8939 18.4314 23.6268 16.8931 25.2064C15.4464 26.7181 13.5487 27.7204 11.4845 28.0631C11.4813 28.0642 11.4779 28.0645 11.4746 28.0641C11.4713 28.0636 11.4681 28.0625 11.4653 28.0606C11.4625 28.0588 11.4601 28.0564 11.4584 28.0536C11.4566 28.0507 11.4555 28.0475 11.4552 28.0442L11.4414 27.996C11.4414 27.996 11.4414 27.9856 11.45 27.9839C12.0555 27.7901 12.6509 27.5659 13.234 27.3123C14.2207 26.8801 15.011 26.1552 15.736 25.3131C18.5451 22.0506 21.3433 18.7961 24.1305 15.5496C24.3027 15.3482 24.3802 15.3774 24.3596 15.6443C24.3527 15.7258 24.3492 15.8033 24.3492 15.8768C24.3274 18.0648 24.3303 20.2425 24.3578 22.4099C24.3664 23.0315 24.933 23.2003 25.4771 23.2037C27.5848 23.2164 29.5788 23.2164 31.4592 23.2037C31.8033 23.2233 32.1468 23.1558 32.4579 23.0074C33.04 22.663 33.1898 21.7435 32.5974 21.301C32.3588 21.1129 32.0702 20.9991 31.7674 20.9738C30.8238 20.913 29.7114 20.9043 28.4303 20.948C25.1086 21.0599 24.3096 16.5949 27.2146 15.386C27.5968 15.2276 28.2569 15.1432 29.1948 15.1329C31.1556 15.1145 33.0468 15.1008 34.8687 15.0916C34.8824 15.0912 34.896 15.0948 34.9077 15.102C34.9194 15.1092 34.9287 15.1197 34.9346 15.1321C34.9404 15.1445 34.9425 15.1584 34.9406 15.172C34.9387 15.1856 34.9328 15.1983 34.9238 15.2087L33.7046 16.6551C33.627 16.748 33.5302 16.8229 33.4207 16.8746C33.3113 16.9264 33.192 16.9537 33.071 16.9547C31.8702 16.9685 30.5953 16.9645 29.2465 16.9427C28.9613 16.9304 28.6762 16.9689 28.4044 17.0563C27.8345 17.263 27.509 18.0447 27.8396 18.6061C28.0962 19.0366 28.5181 19.1743 28.9968 19.1692C30.0036 19.1611 31.0035 19.1508 31.9965 19.1382C32.5181 19.1209 33.0354 19.2387 33.4981 19.48C33.9609 19.7213 34.3535 20.0781 34.6379 20.5158C34.8199 20.7582 34.9319 21.0458 34.9617 21.3475C35.0133 22.0776 35.096 23.0074 34.6655 23.6446C34.3519 24.1244 33.9064 24.5035 33.3826 24.7363C33.0819 24.8694 32.5595 24.9458 31.8156 24.9653C29.3131 25.0307 26.9517 25.0503 24.7315 25.0238C23.5795 25.0084 22.6651 25.0531 22.245 23.9063C22.0862 23.4576 22.0098 22.9839 22.0194 22.5081C22.0206 21.7412 22.0217 20.9485 22.0229 20.13Z" fill="white"/>
<circle cx="20" cy="20" r="19.5" stroke="black" stroke-opacity="0.05"/>
</svg>
