<svg width="40" height="40" viewBox="0 0 40 40" fill="none" xmlns="http://www.w3.org/2000/svg">
<circle cx="20" cy="20" r="20" fill="#767678"/>
<path d="M20.3879 16.4414C20.4117 14.8088 20.4165 13.1777 20.4022 11.5479C20.4003 11.4218 20.3759 11.3039 20.3291 11.194C20.375 11.1185 20.4423 11.1123 20.5311 11.1754C25.1748 14.4663 29.8156 17.7559 34.4535 21.044C34.4665 21.0532 34.477 21.0654 34.4842 21.0796C34.4914 21.0937 34.4951 21.1094 34.4949 21.1253C34.4948 21.1412 34.4908 21.1568 34.4834 21.1709C34.4759 21.1849 34.4652 21.1969 34.4521 21.2059L31.612 23.1762C31.6001 23.1845 31.5864 23.1899 31.572 23.192C31.5577 23.1941 31.543 23.1928 31.5292 23.1882C31.5154 23.1836 31.5029 23.1759 31.4926 23.1656C31.4824 23.1553 31.4747 23.1427 31.4702 23.1289C31.2485 22.4516 30.8693 21.8469 30.3324 21.3148C29.0972 20.0882 27.65 19.409 25.9405 19.72C25.8987 19.7273 25.8556 19.7206 25.818 19.7009C25.7804 19.6812 25.7504 19.6496 25.7327 19.6111C25.5865 19.2944 25.4389 18.949 25.2254 18.6796C24.4287 17.6775 23.4997 16.9993 22.4384 16.6449C21.8289 16.4414 21.1454 16.3736 20.3879 16.4414Z" fill="white"/>
<path d="M20.3293 11.1938C20.3761 11.3037 20.4005 11.4217 20.4024 11.5478C20.4167 13.1775 20.4119 14.8087 20.388 16.4413C18.872 16.6046 17.4749 17.2938 16.2913 18.1164C13.9346 19.7518 11.6056 21.3863 9.30429 23.0198C9.24506 23.0619 9.18536 23.0619 9.12517 23.0198L6.48571 21.1398C6.47219 21.1302 6.4612 21.1175 6.45365 21.1027C6.44611 21.0879 6.44225 21.0715 6.44239 21.0549C6.44253 21.0383 6.44667 21.022 6.45446 21.0074C6.46225 20.9927 6.47346 20.9802 6.48714 20.9708L20.3293 11.1938Z" fill="white"/>
<path d="M20.3713 22.4671C20.4401 21.4248 20.4358 20.3778 20.3584 19.3261C20.7128 19.2114 21.1479 19.22 21.6638 19.3519C21.9561 19.4264 22.1878 19.5625 22.3588 19.7602C22.7371 20.1959 22.568 20.8679 22.1553 21.2104C21.7254 21.5677 21.1307 21.9866 20.3713 22.4671Z" fill="white"/>
<path d="M20.3585 19.3257C20.4359 20.3775 20.4402 21.4245 20.3714 22.4667L16.5884 25.0975C16.5629 25.1155 16.5323 25.1252 16.501 25.1252C16.4697 25.1252 16.4392 25.1155 16.4136 25.0975L14.2714 23.5844C14.2592 23.5759 14.2492 23.5646 14.2422 23.5514C14.2353 23.5383 14.2316 23.5237 14.2314 23.5088C14.2313 23.4939 14.2347 23.4792 14.2414 23.466C14.2481 23.4527 14.2579 23.4412 14.27 23.4325C15.7736 22.3339 17.2801 21.2248 18.7894 20.1052C19.3043 19.7231 19.8274 19.4632 20.3585 19.3257Z" fill="white"/>
<path d="M24.8217 26.409L24.7529 22.9499C25.4608 22.4187 26.2389 22.2415 27.0872 22.4182C27.6188 22.5286 28.0172 23.1404 27.914 23.7021C27.8557 24.025 27.7148 24.282 27.4913 24.4731C26.8006 25.0596 25.9107 25.7049 24.8217 26.409Z" fill="white"/>
<path d="M24.7524 22.9497L24.8212 26.4088L21.557 28.6843C21.5302 28.7034 21.5035 28.7034 21.4768 28.6843L19.2786 27.1367C19.2657 27.1273 19.2551 27.115 19.2477 27.1007C19.2404 27.0865 19.2365 27.0708 19.2363 27.0548C19.2362 27.0389 19.2398 27.0232 19.2469 27.0091C19.254 26.9949 19.2644 26.9827 19.2772 26.9734L24.7524 22.9497Z" fill="white"/>
<circle cx="20" cy="20" r="19.5" stroke="black" stroke-opacity="0.05"/>
</svg>
