<svg width="40" height="40" viewBox="0 0 40 40" fill="none" xmlns="http://www.w3.org/2000/svg">
<circle cx="20" cy="20" r="20" fill="#050708"/>
<path d="M32 19.8218C32 26.4436 26.6274 31.812 20 31.812C13.3726 31.812 8 26.4436 8 19.8218C8 13.1999 13.3726 7.83154 20 7.83154C26.6274 7.83154 32 13.1999 32 19.8218ZM31.0891 19.8413C31.0995 13.7223 26.1435 8.75288 20.0196 8.74187C13.8951 8.73147 8.92134 13.6832 8.91094 19.8022C8.90054 25.9212 13.8565 30.8906 19.9804 30.9016C26.1049 30.912 31.0781 25.9603 31.0891 19.8413Z" fill="white"/>
<path d="M12.7695 20.8349C12.8521 21.2509 13.0956 21.4185 13.492 21.4381C13.7538 21.4509 13.9227 21.3433 13.9992 21.1145C14.1191 20.7541 14.1019 20.3791 14.1081 20.0047C14.1081 19.9821 14.1203 19.9704 14.1429 19.9704L15.5788 19.9717C15.6008 19.9717 15.6118 19.9827 15.6124 20.0041C15.6155 20.195 15.6155 20.3834 15.6112 20.5694C15.5806 21.9257 14.7914 22.9008 13.3654 22.8219C11.9283 22.7418 11.2529 21.6883 11.1978 20.3149C11.1764 19.7893 11.1685 19.2944 11.1727 18.8313C11.1807 18.0097 11.1727 17.4297 11.396 16.7849C11.7729 15.6941 12.6514 15.2732 13.7447 15.3344C14.6782 15.3864 15.35 15.9345 15.5139 16.8883C15.5714 17.2242 15.5879 17.6071 15.5635 18.0384C15.5616 18.0647 15.5476 18.0782 15.5213 18.0782H14.094C14.072 18.0788 14.0542 18.0617 14.0542 18.0397C14.0542 18.0384 14.0542 18.0372 14.0542 18.036C14.0799 17.7197 14.1674 16.8687 13.7581 16.747C13.473 16.6632 13.0656 16.7341 12.9004 16.9905C12.8252 17.1067 12.7768 17.237 12.7542 17.3808C12.6282 18.1804 12.6441 19.0026 12.6649 19.8175C12.6747 20.1925 12.7095 20.532 12.7695 20.8349Z" fill="white"/>
<path d="M20.2967 16.9144C20.1749 16.6483 19.6231 16.7027 19.3998 16.767C19.1043 16.8514 19.0976 17.1334 19.1221 17.3861C19.138 17.55 19.1845 17.7305 19.3258 17.8253C19.869 18.1869 20.3829 18.5222 20.8675 18.8305C21.6597 19.3346 21.9491 20.0051 21.883 20.935C21.812 21.9402 21.278 22.6376 20.2214 22.7905C18.8553 22.9887 17.7333 22.4418 17.5669 20.9944C17.5363 20.727 17.5369 20.407 17.5688 20.0345C17.5706 20.0143 17.5816 20.0039 17.6018 20.0039H19.0046C19.0382 20.0033 19.0542 20.0204 19.0523 20.054C19.0327 20.3654 19.0431 20.6775 19.0829 20.9901C19.1141 21.2354 19.253 21.3767 19.5001 21.414C19.6837 21.4422 19.858 21.4422 20.0232 21.4134C20.3627 21.3553 20.4172 21.061 20.416 20.768C20.4147 20.4529 20.2759 20.2076 19.9987 20.0326C19.5882 19.7739 19.1912 19.5206 18.8076 19.2734C18.4828 19.0636 18.2142 18.8293 18.0013 18.5693C17.6324 18.1178 17.5798 17.4014 17.677 16.8337C17.8141 16.0377 18.369 15.5367 19.1808 15.3837C19.5552 15.3134 20.0244 15.3042 20.3921 15.3813C21.6793 15.6511 21.9466 16.7321 21.891 17.9342C21.8897 17.9593 21.8763 17.9722 21.8512 17.9722L20.4478 17.974C20.4294 17.974 20.4147 17.9593 20.4141 17.941C20.408 17.6314 20.427 17.2013 20.2967 16.9144Z" fill="white"/>
<path d="M26.7999 20.8636H25.2062C25.1928 20.8642 25.1805 20.8734 25.1769 20.8862L24.6556 22.6799C24.652 22.6928 24.6403 22.702 24.6269 22.702L23.2265 22.705C23.2094 22.705 23.1959 22.6909 23.1966 22.6738C23.1966 22.6708 23.1966 22.6677 23.1978 22.6652L25.372 15.4708C25.3757 15.4579 25.3879 15.4487 25.4014 15.4487L26.6409 15.4518C26.6543 15.4518 26.6666 15.461 26.6702 15.4738L28.8151 22.664C28.82 22.6805 28.8108 22.6971 28.7943 22.702C28.7913 22.7026 28.7888 22.7032 28.7857 22.7032L27.367 22.7044C27.3536 22.7044 27.3413 22.6952 27.3377 22.6824L26.8293 20.8856C26.8256 20.8727 26.8134 20.8636 26.7999 20.8636ZM25.5531 19.7098C25.5507 19.7202 25.5574 19.7306 25.5678 19.733C25.5696 19.733 25.5709 19.733 25.5727 19.733H26.4218C26.4329 19.733 26.4414 19.7244 26.442 19.714C26.442 19.7122 26.442 19.711 26.442 19.7091L26.0168 17.9405C26.0144 17.9301 26.0034 17.924 25.993 17.9264C25.9863 17.9283 25.9807 17.9338 25.9789 17.9405L25.5537 19.7091L25.5531 19.7098Z" fill="white"/>
<path d="M15.5364 24.2851C15.3106 24.2796 15.2066 24.424 15.1864 24.6253C15.1546 24.944 15.1565 25.2505 15.1919 25.5448C15.2421 25.9663 15.7909 25.9877 15.7921 25.4934C15.7921 25.4518 15.8135 25.431 15.8545 25.431H15.9872C16.0038 25.431 16.0172 25.4438 16.0178 25.4603C16.0233 25.8366 15.8117 26.11 15.4195 26.0421C15.1326 25.992 14.9803 25.8005 14.9613 25.4671C14.9484 25.2395 14.9454 24.9948 14.9533 24.7323C14.9631 24.4117 15.1026 24.1193 15.4617 24.0955C15.8306 24.071 16.0123 24.2515 16.0068 24.6363C16.0068 24.6656 15.9915 24.6803 15.9628 24.6803H15.8398C15.8086 24.6803 15.7823 24.6558 15.7823 24.624C15.7823 24.6228 15.7823 24.621 15.7823 24.6197C15.7921 24.4533 15.7254 24.2894 15.5364 24.2851Z" fill="white"/>
<path d="M24.5939 25.8569C24.7909 25.8318 24.8117 25.6238 24.8301 25.4714C24.8331 25.4433 24.849 25.4292 24.8772 25.4298H24.9995C25.0313 25.4298 25.0479 25.4457 25.0485 25.4776C25.0558 25.814 24.8662 26.0795 24.4936 26.0465C23.962 25.9994 23.9919 25.4953 23.9779 25.1031C23.962 24.6431 23.9687 24.0772 24.5982 24.0931C24.9237 24.1011 25.0589 24.3556 25.0381 24.6565C25.0381 24.6614 25.035 24.6645 25.0307 24.6657C24.9591 24.6859 24.89 24.6871 24.8246 24.6694C24.8197 24.6682 24.8172 24.6651 24.8178 24.6602C24.8282 24.4846 24.7719 24.2834 24.5621 24.2852C24.3682 24.287 24.2568 24.3825 24.2269 24.5715C24.1773 24.8847 24.1748 25.2408 24.2232 25.5699C24.2501 25.7565 24.4012 25.8813 24.5939 25.8569Z" fill="white"/>
<path d="M17.8874 25.5068C17.8874 25.8035 17.6458 26.044 17.3485 26.0434H17.2799C16.9832 26.0427 16.7428 25.8017 16.7434 25.5044L16.7446 24.6332C16.7446 24.3365 16.9863 24.0961 17.2836 24.0967H17.3521C17.6488 24.0973 17.8893 24.3383 17.8887 24.6357L17.8874 25.5068ZM17.6733 24.6265C17.6733 24.4405 17.5228 24.2894 17.3368 24.2888H17.3013C17.1154 24.2888 16.9643 24.4393 16.9636 24.6253L16.9618 25.516C16.9618 25.702 17.1123 25.8531 17.2983 25.8537H17.3338C17.5198 25.8537 17.6709 25.7032 17.6715 25.5172L17.6733 24.6265Z" fill="white"/>
<path d="M19.0413 25.8374C19.3423 25.9506 19.5784 25.6851 19.4292 25.3982C19.3943 25.3321 19.3417 25.2789 19.2713 25.2379C19.1251 25.1541 18.9862 25.0623 18.8541 24.9638C18.5935 24.7693 18.5874 24.2652 18.9202 24.1416C19.0725 24.0853 19.3129 24.0694 19.4579 24.1452C19.6176 24.2297 19.6934 24.3912 19.6849 24.6298C19.6849 24.6322 19.6837 24.6334 19.6812 24.6341C19.6072 24.6542 19.5368 24.6561 19.4689 24.6408C19.4646 24.6396 19.4622 24.6365 19.4622 24.6316C19.4775 24.3942 19.3778 24.278 19.1636 24.2829C18.8437 24.2896 18.7984 24.6475 19.0119 24.8066C19.3423 25.0525 19.7552 25.1339 19.6751 25.6692C19.628 25.9818 19.368 26.076 19.0841 26.0442C18.7697 26.0087 18.6234 25.8129 18.6455 25.4569C18.6455 25.452 18.6485 25.4489 18.6528 25.4483C18.7232 25.4392 18.7905 25.441 18.8559 25.4544C18.8639 25.4563 18.8682 25.4612 18.8675 25.4691C18.8523 25.6649 18.9098 25.7879 19.0413 25.8374Z" fill="white"/>
<path d="M21.9106 24.5996C21.9106 24.5317 21.8996 24.5304 21.8788 24.5947L21.434 25.9693C21.4242 26.0005 21.3943 26.0207 21.3612 26.0189L21.2401 26.0109C21.2095 26.0091 21.1826 25.9889 21.1728 25.9596L20.7121 24.5941C20.6907 24.5311 20.6803 24.5329 20.6803 24.5996L20.6834 25.9614C20.6834 25.9901 20.6607 26.0134 20.632 26.014L20.509 26.0177C20.4766 26.0183 20.4607 26.0024 20.4607 25.97V24.1664C20.4607 24.1444 20.4778 24.1273 20.4998 24.1267L20.7268 24.1254C20.7666 24.1254 20.7929 24.1438 20.8057 24.1823L21.286 25.6628C21.2933 25.6855 21.3049 25.6879 21.3202 25.6702C21.3282 25.6616 21.3337 25.6518 21.3374 25.6402C21.4958 25.1514 21.6537 24.662 21.8103 24.1719C21.8188 24.1456 21.8366 24.1322 21.8641 24.1316L22.0843 24.1236C22.1137 24.1224 22.1284 24.1365 22.1284 24.1658L22.1272 25.9651C22.1272 25.9963 22.1119 26.0122 22.0813 26.0134L21.9712 26.0189C21.9406 26.0201 21.9149 25.9969 21.9137 25.9663C21.9137 25.9657 21.9137 25.9644 21.9137 25.9638L21.9106 24.5996Z" fill="white"/>
<path d="M23.1365 24.1245H23.0105C22.9858 24.1245 22.9658 24.1445 22.9658 24.1692V25.9702C22.9658 25.9949 22.9858 26.0149 23.0105 26.0149H23.1365C23.1612 26.0149 23.1812 25.9949 23.1812 25.9702V24.1692C23.1812 24.1445 23.1612 24.1245 23.1365 24.1245Z" fill="white"/>
<circle cx="20" cy="20" r="19.5" stroke="black" stroke-opacity="0.05"/>
</svg>
