<svg width="40" height="40" viewBox="0 0 40 40" fill="none" xmlns="http://www.w3.org/2000/svg">
<circle cx="20" cy="20" r="20" fill="#C94C39"/>
<g clip-path="url(#clip0_18553_55715)">
<path d="M5.44 16.9673H4.12C4.05373 16.9673 4 17.021 4 17.0873V23.5573C4 23.6236 4.05373 23.6773 4.12 23.6773H5.44C5.50627 23.6773 5.56 23.6236 5.56 23.5573V17.0873C5.56 17.021 5.50627 16.9673 5.44 16.9673Z" fill="white"/>
<path d="M10.4804 18.7175C10.1404 18.8675 9.97035 19.1375 9.97035 19.5175C9.97035 20.9075 9.97035 22.2375 9.97035 23.5375C9.97035 23.6475 9.91035 23.7075 9.80035 23.7075H8.51035C8.41035 23.7075 8.36035 23.6675 8.36035 23.5675C8.36035 22.2075 8.36035 20.8575 8.36035 19.5375C8.36035 18.6175 8.68035 17.9275 9.31035 17.4475C9.94035 16.9475 10.8904 16.9175 11.6704 16.9875C12.7604 17.0775 13.4704 17.6175 13.7904 18.6175C13.8804 18.9075 13.9304 19.2475 13.9304 19.6475C13.9304 20.9475 13.9304 22.2575 13.9304 23.5775C13.9304 23.6475 13.8804 23.7075 13.8104 23.7075H12.4104C12.3504 23.7075 12.3004 23.6575 12.3004 23.5975C12.3104 22.3175 12.3104 20.9475 12.3004 19.4975C12.3004 18.5375 11.1704 18.4175 10.5104 18.7175H10.4804Z" fill="white"/>
<path d="M16.2305 19.157C16.2305 17.907 17.3505 17.007 18.4805 16.977C19.2005 16.957 19.9305 16.957 20.6705 16.957C20.7505 16.957 20.7905 16.997 20.7905 17.077V18.247C20.8005 18.317 20.7405 18.377 20.6705 18.377C19.7805 18.327 19.0405 18.347 18.4205 18.427C18.0105 18.487 17.8005 18.737 17.8005 19.187C17.7905 19.987 17.7905 20.777 17.8005 21.547C17.8005 22.047 18.3405 22.297 18.7605 22.297C19.3605 22.297 20.0005 22.317 20.6805 22.327C20.7605 22.327 20.8205 22.387 20.8205 22.467L20.8005 23.607C20.8005 23.687 20.7405 23.747 20.6605 23.747C19.9305 23.747 19.2005 23.747 18.4705 23.707C17.6205 23.677 16.9705 23.277 16.5005 22.517C16.3405 22.247 16.2605 21.947 16.2505 21.617C16.2405 20.877 16.2305 20.047 16.2305 19.137V19.157Z" fill="white"/>
<path d="M28.1997 21.4373C28.1997 22.7073 27.1697 23.7373 25.8897 23.7373H25.0197C23.7497 23.7373 22.7197 22.6973 22.7197 21.4273V19.2673C22.7197 17.9973 23.7497 16.9673 25.0297 16.9673H25.8997C27.1697 16.9673 28.1997 18.0073 28.1997 19.2773V21.4373ZM26.6597 19.2873C26.6597 18.7873 26.2497 18.3873 25.7597 18.3873H25.1597C24.6597 18.3873 24.2597 18.7973 24.2597 19.2973V21.4273C24.2597 21.9273 24.6697 22.3273 25.1597 22.3273H25.7597C26.2597 22.3273 26.6597 21.9173 26.6597 21.4173V19.2873Z" fill="white"/>
<path d="M32.9604 18.6375C32.5404 18.7675 32.3004 19.0175 32.3004 19.4475C32.3004 20.8775 32.2904 22.2475 32.3004 23.5675C32.3004 23.6375 32.2404 23.6975 32.1704 23.7075H30.7904C30.7304 23.7075 30.6904 23.6575 30.6904 23.5975C30.6904 22.2375 30.6904 20.8775 30.6904 19.5275C30.6904 17.9875 31.4504 17.1375 33.0104 16.9775C34.8404 16.7875 36.1704 17.5275 36.1804 19.5275C36.1804 20.9375 36.1804 22.2875 36.1804 23.5775C36.1804 23.6575 36.1404 23.6975 36.0604 23.6975H34.7304C34.6504 23.6975 34.6004 23.6475 34.6104 23.5675C34.6104 22.2575 34.6104 20.9375 34.6104 19.5975C34.6104 18.7075 33.7604 18.3975 33.0104 18.6275L32.9604 18.6375Z" fill="white"/>
</g>
<circle cx="20" cy="20" r="19.5" stroke="black" stroke-opacity="0.05"/>
<defs>
<clipPath id="clip0_18553_55715">
<rect width="32.15" height="6.81" fill="white" transform="translate(4 16.9473)"/>
</clipPath>
</defs>
</svg>
