<svg width="40" height="40" viewBox="0 0 40 40" fill="none" xmlns="http://www.w3.org/2000/svg">
<circle cx="20" cy="20" r="20" fill="#0363A3"/>
<path d="M33.3997 21.991C32.4084 22.6111 31.2404 23.0497 30.1129 23.3699C28.6364 23.7895 27.0327 24.1011 25.3029 24.3037C23.9651 24.4606 22.6475 24.5557 21.3498 24.5894C18.7056 24.6576 16.0714 24.5276 13.4514 24.1339C11.6386 23.8617 9.78308 23.4365 8.10643 22.7546C7.4617 22.4923 6.88481 22.188 6.37619 21.8428C5.55429 21.2849 4.73886 20.377 5.07938 19.3023C5.33131 18.5072 6.08624 17.9087 6.82215 17.483C8.02173 16.7886 9.43177 16.3293 10.8081 15.9952C11.9891 15.7087 13.2086 15.4883 14.4665 15.3345C17.7481 14.9326 21.0793 14.8929 24.4603 15.2152C25.7804 15.341 27.0712 15.5354 28.333 15.7995C29.1955 15.9797 30.0356 16.2031 30.8536 16.4701C31.5139 16.6858 32.1383 16.9411 32.7273 17.2367C33.4425 17.5958 34.2169 18.1062 34.6511 18.7544C35.5664 20.1216 34.515 21.2935 33.3997 21.991ZM34.6667 19.8049C34.6667 17.327 28.1001 15.3185 19.9999 15.3185C11.8996 15.3185 5.33304 17.327 5.33304 19.8049C5.33304 22.2827 11.8996 24.2912 19.9999 24.2912C28.1001 24.2912 34.6667 22.2827 34.6667 19.8049Z" fill="white"/>
<path d="M10.035 17.8301C9.16553 17.8816 8.83927 18.9113 8.71482 19.6144C8.5895 20.3218 8.53333 21.0668 8.54629 21.8494C8.54629 21.8757 8.53333 21.8891 8.50697 21.8891H7.53295C7.50875 21.8891 7.48931 21.8692 7.48931 21.845C7.48801 21.3632 7.51264 20.8684 7.5632 20.3607C7.68765 19.0993 8.08953 17.3531 9.54494 17.003C9.82711 16.9352 10.1084 16.9222 10.3889 16.9633C11.6576 17.1491 12.2509 18.5665 12.489 19.6909C12.639 20.4004 12.7103 21.1277 12.7025 21.8731C12.7025 21.8839 12.6969 21.8895 12.6861 21.8895H11.674C11.6585 21.8891 11.6459 21.8766 11.6459 21.8615C11.6459 21.8615 11.6459 21.861 11.6459 21.8606C11.6624 20.9402 11.5103 17.7424 10.035 17.8301Z" fill="white"/>
<path d="M25.2993 21.8502C24.3707 21.4514 23.6814 20.6541 23.6616 19.62C23.6516 19.1093 23.8107 18.6395 24.1378 18.2109C24.7778 17.373 25.8477 17.0031 26.9047 16.9854C26.9172 16.9854 26.9272 16.9953 26.9276 17.0078C26.9276 17.0078 26.9276 17.0078 26.9276 17.0083V17.7839C26.9276 17.7939 26.9189 17.8021 26.909 17.8025C26.3408 17.8129 25.7401 17.9283 25.3058 18.283C24.5721 18.8824 24.525 19.9731 25.1174 20.6606C25.5422 21.1541 26.2548 21.358 26.9151 21.3481C26.9289 21.3481 26.9401 21.3589 26.9406 21.3727C26.9406 21.3727 26.9406 21.3727 26.9406 21.3732L26.9371 22.1402C26.9371 22.1596 26.9272 22.1696 26.9077 22.1696C26.323 22.1661 25.7868 22.0598 25.2993 21.8502Z" fill="white"/>
<path d="M33.1554 19.7316C33.1554 21.2004 31.8249 22.3909 30.1837 22.3909C28.5424 22.3909 27.2119 21.2004 27.2119 19.7316C27.2119 18.2628 28.5424 17.0723 30.1837 17.0723C31.8249 17.0723 33.1554 18.2628 33.1554 19.7316ZM32.2194 19.735C32.2211 18.7295 31.3111 17.9123 30.1862 17.9106C29.0619 17.9084 28.1488 18.7221 28.147 19.7281C28.1453 20.7337 29.0554 21.5508 30.1802 21.5526C31.3046 21.5547 32.2177 20.741 32.2194 19.735Z" fill="white"/>
<path d="M17.8583 18.754C17.8129 19.0557 17.7343 19.3314 17.653 19.62C17.6427 19.6572 17.6089 19.6831 17.5701 19.684L16.6747 19.6991C16.6535 19.6991 16.6367 19.6823 16.6362 19.6611C16.6362 19.6576 16.6362 19.6542 16.6375 19.6507C16.8579 18.8422 16.9621 18.0514 16.9072 17.2325C16.9063 17.2157 16.9145 17.207 16.9314 17.207H17.9171C17.9443 17.207 17.9585 17.2204 17.959 17.2481C17.9698 17.7394 17.9361 18.2415 17.8583 18.754Z" fill="#47C0EF"/>
<path d="M12.7902 19.0327C12.6998 18.4264 12.6497 17.8227 12.6558 17.2212C12.6558 17.2108 12.6614 17.2056 12.6713 17.2061L13.6847 17.2095C13.705 17.2095 13.7153 17.2199 13.7149 17.2402C13.711 17.8487 13.7551 18.4433 13.848 19.0245C13.851 19.0439 13.8376 19.0625 13.8178 19.0655C13.816 19.0655 13.8139 19.066 13.8121 19.066L12.8312 19.0681C12.8105 19.0681 12.7932 19.053 12.7902 19.0327Z" fill="#47C0EF"/>
<path d="M20.759 18.0935C19.6934 18.0503 19.3784 19.4729 19.2756 20.271C19.196 20.8885 19.161 21.5043 19.1701 22.1192C19.1701 22.1382 19.1554 22.1533 19.1364 22.1538C19.1364 22.1538 19.136 22.1538 19.1355 22.1538L18.1538 22.1508C18.1321 22.1508 18.1144 22.133 18.1144 22.1114C18.1114 21.5039 18.1486 20.9062 18.2259 20.3185C18.4052 18.9526 18.9281 17.3096 20.5702 17.2115C22.128 17.1186 22.8397 18.6548 23.1141 19.9542C23.2628 20.6595 23.3332 21.3829 23.3255 22.124C23.3255 22.1395 23.3125 22.152 23.2969 22.152L22.3009 22.1512C22.2853 22.1512 22.2728 22.1387 22.2728 22.1235C22.2793 21.2575 22.2002 20.4136 22.0005 19.6314C21.8458 19.0252 21.4777 18.1233 20.759 18.0939V18.0935Z" fill="white"/>
<path d="M10.0973 20.2012C10.3954 20.2012 10.6371 20.0102 10.6371 19.7747C10.6371 19.5391 10.3954 19.3481 10.0973 19.3481C9.79926 19.3481 9.55762 19.5391 9.55762 19.7747C9.55762 20.0102 9.79926 20.2012 10.0973 20.2012Z" fill="white"/>
<path d="M20.7247 20.3337C21.0235 20.3326 21.265 20.141 21.2642 19.9057C21.2634 19.6704 21.0205 19.4805 20.7217 19.4815C20.4229 19.4826 20.1813 19.6742 20.1822 19.9095C20.183 20.1448 20.4259 20.3347 20.7247 20.3337Z" fill="white"/>
<path d="M17.4728 20.283C17.2477 20.9187 16.899 21.566 16.2918 21.8987C15.8476 22.142 15.3662 22.2112 14.8476 22.1053C13.989 21.9303 13.445 21.0984 13.1442 20.3249C13.1407 20.3159 13.1455 20.3055 13.1546 20.302C13.1567 20.3012 13.1589 20.3007 13.1611 20.3007H14.1346C14.1627 20.3007 14.1817 20.3137 14.1921 20.3396C14.4008 20.856 14.7755 21.3232 15.3861 21.2618C15.9288 21.2073 16.2646 20.7791 16.434 20.2839C16.4374 20.2735 16.4474 20.2666 16.4582 20.2666H17.4616C17.4681 20.2666 17.4737 20.2722 17.4732 20.2791C17.4732 20.2804 17.4732 20.2817 17.4728 20.283Z" fill="white"/>
<circle cx="20" cy="20" r="19.5" stroke="black" stroke-opacity="0.05"/>
</svg>
