<svg width="40" height="40" viewBox="0 0 40 40" fill="none" xmlns="http://www.w3.org/2000/svg">
<circle cx="20" cy="20" r="20" fill="#1B2A4F"/>
<g clip-path="url(#clip0_18553_55746)">
<path d="M8.03012 20.2999C8.03012 20.2999 8.02012 20.2299 8.01012 20.1899C7.98012 19.6999 8.00012 19.2099 8.06012 18.7399C8.28012 17.0399 8.93012 15.5299 10.0101 14.2099C10.8701 13.1599 11.9901 12.3199 13.1901 11.6999C13.5201 11.5299 13.8601 11.3699 14.2101 11.2199C17.0401 9.9699 20.3001 9.6199 23.2801 10.4499C23.5201 10.5199 23.7601 10.5999 24.0001 10.6899C24.0301 10.6999 24.0401 10.7199 24.0301 10.7499C23.4201 12.1099 22.8601 13.3499 22.3501 14.4799C22.3301 14.5399 22.3001 14.5899 22.2801 14.6399C22.2801 14.6499 22.2701 14.6599 22.2501 14.6599C22.2001 14.6599 22.1401 14.6599 22.0901 14.6599C18.1301 14.2199 13.8801 14.6499 10.6201 17.1599C10.4101 17.3199 10.2101 17.4999 10.0101 17.6799C9.26012 18.3599 8.65012 19.1299 8.17012 19.9999C8.12012 20.0899 8.08012 20.1899 8.05012 20.2899C8.05012 20.3199 8.03012 20.3199 8.03012 20.2899V20.2999Z" fill="white"/>
<path d="M10.0999 20.0501C10.1799 20.1101 10.3099 20.1601 10.4199 20.1801C10.6399 20.2301 10.8499 20.2801 11.0699 20.3301C11.3799 20.4101 11.6899 20.5601 11.7999 20.8701C11.9499 21.2901 11.7199 21.7101 11.3199 21.8801C11.0199 22.0101 10.7199 22.0201 10.3899 21.9801C9.8299 21.9201 9.4099 21.5701 9.3999 20.9801C9.3999 20.9701 9.3999 20.9601 9.4199 20.9601L9.8599 20.9301C9.8599 20.9301 9.8899 20.9301 9.8899 20.9501C9.9099 21.0901 9.9399 21.2401 10.0499 21.3301C10.1799 21.4501 10.3499 21.5301 10.5299 21.5401C10.7499 21.5601 10.9699 21.5401 11.1699 21.4301C11.3799 21.3101 11.4299 21.0301 11.1999 20.9001C11.1199 20.8601 11.0399 20.8201 10.9299 20.7901C10.6799 20.7301 10.4499 20.6701 10.2299 20.6201C10.1099 20.5901 9.9899 20.5401 9.8699 20.4801C9.4499 20.2501 9.3999 19.7001 9.7199 19.3701C10.0499 19.0401 10.6799 19.0101 11.0899 19.1401C11.4999 19.2601 11.7199 19.5301 11.7499 19.9401C11.7499 19.9801 11.7399 20.0001 11.6899 20.0101L11.2799 20.0401C11.2799 20.0401 11.2599 20.0401 11.2599 20.0201C11.2399 19.9401 11.2399 19.8701 11.1999 19.7901C11.1399 19.6601 11.0399 19.5801 10.8899 19.5501C10.6399 19.4901 10.0799 19.4701 10.0099 19.8101C9.9899 19.9101 10.0099 19.9901 10.0899 20.0401L10.0999 20.0501Z" fill="white"/>
<path d="M14.8899 21.2399C14.5999 21.8699 13.8699 22.0999 13.2299 21.9599C12.3599 21.7799 11.9999 20.9599 12.1799 20.1399C12.2699 19.6999 12.5799 19.3399 13.0099 19.1799C13.5499 18.9799 14.2299 19.0699 14.6399 19.4799C15.0899 19.9399 15.1499 20.6799 14.8899 21.2399ZM13.1599 19.6099C12.9799 19.6899 12.8499 19.8199 12.7699 19.9899C12.5999 20.3699 12.5899 20.9899 12.9299 21.3099C13.2099 21.5899 13.6799 21.6399 14.0299 21.4599C14.2899 21.3299 14.4499 21.0999 14.4899 20.7799C14.5499 20.3799 14.4799 19.8899 14.1199 19.6599C13.8099 19.4699 13.4899 19.4499 13.1599 19.5999V19.6099Z" fill="white"/>
<path d="M17.2899 21.9199C16.7899 22.0799 16.3299 22.0299 15.8999 21.7699C15.1599 21.3199 15.0999 20.1199 15.6599 19.5199C16.2499 18.8799 17.4399 18.9499 17.9399 19.6699C18.4499 20.4099 18.1899 21.6399 17.2799 21.9199H17.2899ZM17.6599 20.3699C17.6599 19.9099 17.2799 19.5299 16.8199 19.5299H16.6699C16.2099 19.5299 15.8299 19.9099 15.8299 20.3699V20.7199C15.8299 21.1799 16.2099 21.5599 16.6699 21.5599H16.8199C17.2799 21.5599 17.6599 21.1799 17.6599 20.7199V20.3699Z" fill="white"/>
<path d="M20.2999 20.0202C20.2799 19.7902 20.1699 19.6102 19.9299 19.5502C19.6899 19.5002 19.3299 19.4902 19.1399 19.6602C19.0099 19.7802 19.0099 19.9902 19.1799 20.0802C19.2499 20.1202 19.3199 20.1402 19.3799 20.1502C19.6699 20.2202 19.9399 20.2902 20.1999 20.3502C20.3999 20.4002 20.6599 20.5402 20.7699 20.7202C20.9599 21.0302 20.9099 21.3902 20.6699 21.6502C20.4899 21.8502 20.1899 21.9602 19.9199 21.9802C19.5899 22.0002 19.2599 21.9802 18.9599 21.8302C18.6299 21.6702 18.4399 21.3302 18.4399 20.9702C18.4399 20.9602 18.4399 20.9502 18.4599 20.9502L18.8699 20.9102C18.8699 20.9102 18.9299 20.9302 18.9299 20.9602C18.9599 21.1102 18.9699 21.2202 19.0899 21.3302C19.1599 21.3902 19.2299 21.4502 19.3199 21.4802C19.6099 21.5702 19.8799 21.5602 20.1199 21.4802C20.2799 21.4202 20.3899 21.2902 20.3699 21.1202C20.3499 20.9202 20.0999 20.8402 19.9399 20.8002C19.6999 20.7402 19.4499 20.6802 19.1899 20.6102C18.7199 20.4802 18.4299 20.1302 18.5999 19.6402C18.8199 18.9602 20.1499 18.9302 20.5799 19.4202C20.7099 19.5702 20.7899 19.7602 20.8099 19.9802C20.8099 20.0002 20.8099 20.0202 20.7799 20.0202L20.3399 20.0502C20.3399 20.0502 20.3099 20.0502 20.3099 20.0302L20.2999 20.0202Z" fill="white"/>
<path d="M29.3399 20.9H28.5299H28.5199C28.5199 20.75 28.5199 20.62 28.5199 20.48C28.5199 20.47 28.5299 20.46 28.5399 20.46H29.8399C29.8399 20.46 29.8799 20.48 29.8799 20.5C29.8799 20.52 29.8799 20.54 29.8799 20.56C29.8799 21.01 29.8799 21.46 29.8799 21.92C29.8799 21.95 29.8699 21.97 29.8399 21.97C29.7199 21.97 29.5899 21.97 29.4599 21.97C29.4399 21.97 29.4299 21.97 29.4199 21.96C29.3999 21.96 29.3999 21.94 29.3999 21.92C29.3999 21.9 29.3799 21.88 29.3599 21.88C29.1899 21.92 29.0099 21.99 28.8399 22C28.1499 22.06 27.4399 21.81 27.1899 21.13C27.0399 20.73 27.0499 20.32 27.2199 19.9C27.3599 19.55 27.6199 19.31 27.9999 19.18C28.3799 19.05 28.8099 19.05 29.1899 19.18C29.5599 19.3 29.7799 19.58 29.8599 19.97C29.8599 19.99 29.8599 20.01 29.8299 20.01L29.3999 20.11C29.3999 20.11 29.3799 20.11 29.3699 20.09C29.3399 19.88 29.2399 19.72 29.0599 19.63C28.8799 19.54 28.7099 19.52 28.4999 19.53C28.0599 19.54 27.7299 19.81 27.6399 20.24C27.5499 20.67 27.6299 21.2 28.0299 21.43C28.4399 21.66 28.9399 21.6 29.3499 21.36C29.3799 21.34 29.3999 21.31 29.3999 21.27C29.3999 21.16 29.3999 21.05 29.3999 20.94C29.3999 20.92 29.3999 20.91 29.3699 20.91L29.3399 20.9Z" fill="white"/>
<path d="M22.74 21.5299C23.14 21.4499 23.18 21.1299 23.18 20.7899C23.18 20.2299 23.18 19.6799 23.18 19.1499C23.18 19.1399 23.19 19.1299 23.2 19.1299H23.67C23.67 19.1299 23.69 19.1399 23.69 19.1599C23.69 19.7099 23.69 20.2699 23.69 20.8399C23.69 21.1999 23.61 21.5699 23.31 21.7899C23.09 21.9499 22.8 22.0099 22.51 22.0099C22.27 22.0099 22.05 21.9799 21.88 21.9099C21.42 21.7299 21.28 21.3199 21.27 20.8499C21.27 20.3199 21.27 19.7599 21.27 19.1599C21.27 19.1399 21.27 19.1399 21.29 19.1399H21.75C21.75 19.1399 21.78 19.1399 21.78 19.1599C21.78 19.6699 21.78 20.2299 21.78 20.8299C21.78 20.9799 21.8 21.2099 21.89 21.3399C22.06 21.5799 22.45 21.5899 22.71 21.5399L22.74 21.5299Z" fill="white"/>
<path d="M24.72 20.0101V21.9301C24.72 21.9301 24.72 21.9501 24.7 21.9501H24.27C24.27 21.9501 24.22 21.9501 24.22 21.9101V19.1601C24.22 19.1601 24.24 19.1201 24.26 19.1201H24.67C24.67 19.1201 24.74 19.1401 24.76 19.1701L26.12 21.0701C26.12 21.0701 26.14 21.0801 26.14 21.0701C26.14 21.0401 26.14 21.0101 26.14 20.9801C26.14 20.3601 26.14 19.7501 26.14 19.1401C26.14 19.1401 26.14 19.1201 26.16 19.1201H26.61C26.61 19.1201 26.64 19.1401 26.64 19.1501V21.9201C26.64 21.9201 26.62 21.9701 26.58 21.9701C26.45 21.9501 26.31 21.9501 26.16 21.9701C26.15 21.9701 26.14 21.9701 26.14 21.9601C25.67 21.3101 25.23 20.6901 24.81 20.1201C24.79 20.0901 24.76 20.0501 24.72 20.0201V20.0101Z" fill="white"/>
<path d="M30.4899 21.9998C30.8299 21.5698 31.0999 21.1198 31.3299 20.6498C31.3599 20.5898 31.3799 20.5898 31.3799 20.6598C31.4299 21.4798 31.3499 22.2998 31.1599 23.1198C30.6999 25.0398 29.6299 26.7098 28.0799 27.9698C27.5599 28.3898 27.0099 28.7598 26.4299 29.0698C25.0999 29.7798 23.6799 30.3198 22.2199 30.6098C20.6299 30.9298 19.0499 30.9698 17.4999 30.7398C16.7599 30.6298 16.0599 30.4498 15.3899 30.2098C15.3699 30.2098 15.3599 30.1798 15.3699 30.1598C15.3899 30.1098 15.4099 30.0598 15.4299 30.0098C15.9999 28.7498 16.5399 27.5598 17.0499 26.4098C17.0699 26.3698 17.0899 26.3198 17.0999 26.2598C17.0999 26.2298 17.1399 26.2098 17.1699 26.2098C19.0199 26.4298 20.8999 26.4498 22.7399 26.1798C25.7399 25.7298 28.6099 24.4298 30.4799 22.0098L30.4899 21.9998Z" fill="white"/>
</g>
<circle cx="20" cy="20" r="19.5" stroke="black" stroke-opacity="0.05"/>
<defs>
<clipPath id="clip0_18553_55746">
<rect width="23.4" height="20.88" fill="white" transform="translate(8 10)"/>
</clipPath>
</defs>
</svg>
