<svg width="40" height="40" viewBox="0 0 40 40" fill="none" xmlns="http://www.w3.org/2000/svg">
<circle cx="20" cy="20" r="20" fill="#F6F8FA"/>
<g clip-path="url(#clip0_17124_13023)">
<path d="M27.7165 16.1291C27.7148 15.3807 27.4623 14.6544 26.9994 14.0662C26.5366 13.478 25.89 13.0618 25.163 12.8841C24.436 12.7064 23.6703 12.7773 22.9883 13.0857C22.3063 13.394 21.7473 13.9219 21.4004 14.5851C21.0535 15.2483 20.9388 16.0086 21.0746 16.7447C21.2104 17.4807 21.5889 18.15 22.1496 18.6458C22.7103 19.1416 23.4209 19.4352 24.168 19.4799C24.9151 19.5245 25.6557 19.3176 26.2714 18.8921L25.7011 18.079C25.3853 18.2949 25.0219 18.4311 24.642 18.4758C24.262 18.5205 23.8769 18.4724 23.5197 18.3356C23.1624 18.1988 22.8436 17.9775 22.5906 17.6905C22.3377 17.4035 22.1581 17.0595 22.0672 16.6879H27.4622C27.5167 16.6882 27.5693 16.6682 27.6099 16.6319C27.6505 16.5956 27.6761 16.5455 27.6819 16.4913C27.7012 16.3715 27.7128 16.2505 27.7165 16.1291ZM22.0441 15.6782C22.1552 15.1473 22.4457 14.6707 22.8668 14.3287C23.2878 13.9866 23.8137 13.7999 24.3562 13.7999C24.8987 13.7999 25.4246 13.9866 25.8457 14.3287C26.2667 14.6707 26.5572 15.1473 26.6684 15.6782H22.0441Z" fill="#EE7158"/>
<path d="M27.6473 17.4586C27.097 17.4584 26.5552 17.5936 26.0695 17.8524C25.5839 18.1111 25.1694 18.4854 24.8627 18.9423C24.5559 19.3991 24.3663 19.9245 24.3107 20.4719C24.255 21.0194 24.3349 21.5721 24.5434 22.0814C24.7519 22.5906 25.0825 23.0407 25.5061 23.392C25.9297 23.7432 26.4333 23.9848 26.9723 24.0954C27.5114 24.2059 28.0694 24.1821 28.597 24.0261C29.1247 23.87 29.6058 23.5864 29.998 23.2004C29.9487 23.7899 29.6797 24.3393 29.2443 24.7397C28.8089 25.1402 28.2389 25.3623 27.6473 25.3622C27.0138 25.3603 26.4052 25.1147 25.9479 24.6763V25.8902C26.4621 26.1953 27.0494 26.3551 27.6473 26.3526C28.5365 26.3526 29.3892 25.9994 30.018 25.3706C30.6467 24.7419 30.9999 23.8891 30.9999 23V20.7996C30.9969 19.9124 30.6423 19.0627 30.0139 18.4364C29.3855 17.8102 28.5345 17.4586 27.6473 17.4586ZM30.0096 20.8112C30.0096 21.2784 29.871 21.7351 29.6115 22.1235C29.3519 22.512 28.983 22.8148 28.5513 22.9936C28.1197 23.1724 27.6447 23.2192 27.1865 23.128C26.7282 23.0369 26.3073 22.8119 25.977 22.4815C25.6466 22.1511 25.4216 21.7302 25.3305 21.272C25.2393 20.8138 25.2861 20.3388 25.4649 19.9072C25.6437 19.4755 25.9465 19.1066 26.3349 18.847C26.7234 18.5875 27.1801 18.4489 27.6473 18.4489C28.2735 18.4499 28.8738 18.6991 29.3165 19.1419C29.7593 19.5847 30.0085 20.185 30.0096 20.8112Z" fill="#FBC47B"/>
<path d="M17.343 9H16.7919C16.734 9.00099 16.6787 9.02445 16.6377 9.06543C16.5967 9.10641 16.5732 9.1617 16.5723 9.21965V12.7071C16.0222 12.1609 15.2998 11.8222 14.5281 11.7487C13.7564 11.6751 12.9831 11.8713 12.3397 12.3037C11.6964 12.7362 11.2228 13.3782 10.9995 14.1205C10.7762 14.8629 10.8171 15.6597 11.1152 16.3753C11.4132 17.0909 11.9501 17.681 12.6343 18.0454C13.3185 18.4097 14.1079 18.5257 14.868 18.3736C15.6281 18.2214 16.312 17.8106 16.8033 17.2109C17.2946 16.6113 17.5629 15.86 17.5626 15.0848V9.23892C17.5647 9.20862 17.5606 9.17821 17.5506 9.14955C17.5405 9.12089 17.5247 9.09457 17.5042 9.07221C17.4836 9.04985 17.4587 9.03191 17.431 9.0195C17.4033 9.00708 17.3733 9.00045 17.343 9ZM14.21 17.4509C13.7428 17.4509 13.2861 17.3123 12.8976 17.0528C12.5092 16.7932 12.2064 16.4243 12.0276 15.9926C11.8488 15.561 11.802 15.086 11.8932 14.6278C11.9843 14.1696 12.2093 13.7486 12.5397 13.4183C12.87 13.0879 13.2909 12.8629 13.7492 12.7718C14.2074 12.6806 14.6824 12.7274 15.114 12.9062C15.5457 13.085 15.9146 13.3878 16.1741 13.7762C16.4337 14.1647 16.5723 14.6214 16.5723 15.0886C16.5733 15.7128 16.3269 16.3119 15.887 16.7547C15.4471 17.1975 14.8496 17.4478 14.2254 17.4509H14.21Z" fill="#EC5F78"/>
<path d="M12.0289 19.7245C10.5954 19.3391 10.3334 18.9037 10.553 18.3757C10.7727 17.8478 12.5106 17.4316 13.2505 18.7071C13.2768 18.7565 13.321 18.7939 13.374 18.8118C13.427 18.8297 13.4848 18.8267 13.5357 18.8035L14.0597 18.5646C14.0884 18.5513 14.1139 18.5321 14.1345 18.5082C14.1552 18.4844 14.1706 18.4565 14.1797 18.4263C14.1888 18.396 14.1914 18.3642 14.1873 18.333C14.1833 18.3017 14.1726 18.2716 14.1561 18.2447C13.9232 17.7945 13.5649 17.4213 13.1245 17.1704C12.6841 16.9194 12.1804 16.8013 11.6744 16.8304C10.3256 16.8304 9.24665 17.736 9.36225 18.869C9.43932 19.736 10.0405 20.3256 11.7784 20.7418C13.4316 21.1272 13.4355 21.7823 13.3199 22.0751C13.1942 22.3205 12.9977 22.5222 12.7557 22.6542C12.5138 22.7862 12.2377 22.8422 11.9634 22.815C11.5813 22.8225 11.204 22.7283 10.8702 22.5421C10.5364 22.3559 10.2581 22.0844 10.0636 21.7553C10.0331 21.7116 9.98806 21.6801 9.93648 21.6667C9.8849 21.6533 9.83021 21.6587 9.7823 21.6821L9.16958 21.9865C9.14247 21.9999 9.11841 22.0186 9.09889 22.0417C9.07937 22.0647 9.06482 22.0916 9.05614 22.1205C9.04746 22.1494 9.04484 22.1798 9.04845 22.2098C9.05205 22.2398 9.0618 22.2688 9.07709 22.2948C9.35759 22.7854 9.76335 23.1927 10.2529 23.475C10.7424 23.7573 11.2981 23.9046 11.8632 23.9017C13.1426 23.9017 13.7515 23.3815 14.1253 22.8805C14.1797 22.5496 14.3045 22.2342 14.4914 21.9557C14.5183 21.3661 14.5222 20.3603 12.0289 19.7245Z" fill="#5C5CA6"/>
<path d="M19.0308 14.8343C18.4802 14.8347 17.9382 14.9707 17.4526 15.2303C16.9671 15.4899 16.5529 15.865 16.2468 16.3226C15.9406 16.7803 15.7519 17.3062 15.6972 17.8541C15.6426 18.4019 15.7237 18.9548 15.9334 19.4639C16.1431 19.973 16.475 20.4226 16.8997 20.773C17.3244 21.1234 17.8289 21.3637 18.3685 21.4729C18.9082 21.5821 19.4664 21.5567 19.9939 21.3989C20.5214 21.2412 21.0019 20.9559 21.393 20.5684V21.2274C21.393 21.2856 21.4162 21.3415 21.4573 21.3827C21.4985 21.4239 21.5544 21.447 21.6127 21.447H22.1637C22.2217 21.446 22.277 21.4226 22.3179 21.3816C22.3589 21.3406 22.3824 21.2853 22.3834 21.2274V18.1869C22.3834 17.2977 22.0302 16.445 21.4014 15.8162C20.7727 15.1875 19.9199 14.8343 19.0308 14.8343ZM21.393 18.1869V18.21C21.3899 18.8386 21.1377 19.4403 20.6916 19.8831C20.2455 20.3259 19.642 20.5738 19.0135 20.5722C18.3849 20.5707 17.7826 20.3199 17.3387 19.8749C16.8947 19.4299 16.6454 18.827 16.6454 18.1984C16.6454 17.5699 16.8947 16.967 17.3387 16.522C17.7826 16.077 18.3849 15.8262 19.0135 15.8247C19.642 15.8231 20.2455 16.071 20.6916 16.5138C21.1377 16.9566 21.3899 17.5583 21.393 18.1869Z" fill="#E42313"/>
<path d="M25.9478 23.3391C25.9478 22.6053 25.6563 21.9015 25.1374 21.3827C24.6185 20.8638 23.9148 20.5723 23.181 20.5723C22.4471 20.5723 21.7434 20.8638 21.2245 21.3827C20.7056 21.9015 20.4141 22.6053 20.4141 23.3391V27.0385C20.4136 27.0675 20.4189 27.0963 20.4298 27.1232C20.4406 27.1501 20.4568 27.1745 20.4773 27.195C20.4978 27.2155 20.5222 27.2317 20.5491 27.2425C20.576 27.2534 20.6048 27.2587 20.6337 27.2582H21.1964C21.2546 27.2582 21.3105 27.2351 21.3517 27.1939C21.3929 27.1527 21.416 27.0968 21.416 27.0385V23.3391C21.416 22.868 21.6032 22.4161 21.9363 22.083C22.2695 21.7498 22.7214 21.5626 23.1925 21.5626C23.6637 21.5626 24.1155 21.7498 24.4487 22.083C24.7818 22.4161 24.969 22.868 24.969 23.3391V30.1252C24.9685 30.1544 24.9738 30.1834 24.9846 30.2105C24.9954 30.2376 25.0115 30.2623 25.032 30.2831C25.0524 30.3039 25.0768 30.3204 25.1037 30.3317C25.1306 30.343 25.1595 30.3488 25.1887 30.3488H25.7397C25.7689 30.3488 25.7978 30.343 25.8247 30.3317C25.8516 30.3204 25.876 30.3039 25.8964 30.2831C25.9169 30.2623 25.933 30.2376 25.9438 30.2105C25.9546 30.1834 25.9599 30.1544 25.9594 30.1252V23.3391H25.9478Z" fill="#F39562"/>
<path d="M16.4106 19.9133C15.8599 19.913 15.3175 20.0485 14.8316 20.3077C14.3456 20.5668 13.931 20.9417 13.6244 21.3992C13.3177 21.8567 13.1285 22.3827 13.0734 22.9307C13.0184 23.4787 13.0992 24.0318 13.3086 24.5411C13.5181 25.0505 13.8499 25.5004 14.2746 25.851C14.6992 26.2017 15.2038 26.4424 15.7435 26.5517C16.2833 26.6611 16.8417 26.6358 17.3694 26.478C17.8971 26.3203 18.3778 26.035 18.769 25.6474V26.3063C18.769 26.3355 18.7748 26.3644 18.7861 26.3913C18.7973 26.4182 18.8139 26.4426 18.8347 26.463C18.8555 26.4835 18.8802 26.4996 18.9072 26.5104C18.9343 26.5212 18.9633 26.5265 18.9925 26.526H19.5436C19.6018 26.526 19.6577 26.5028 19.6989 26.4617C19.7401 26.4205 19.7632 26.3646 19.7632 26.3063V23.2659C19.7622 22.377 19.4086 21.5249 18.7801 20.8964C18.1516 20.2678 17.2995 19.9143 16.4106 19.9133ZM18.769 23.2659V23.289C18.7659 23.8348 18.5466 24.3571 18.159 24.7414C17.7715 25.1257 17.2474 25.3406 16.7016 25.3391C16.1558 25.3376 15.6329 25.1197 15.2475 24.7332C14.8621 24.3467 14.6457 23.8232 14.6457 23.2774C14.6457 22.7316 14.8621 22.2081 15.2475 21.8217C15.6329 21.4352 16.1558 21.2173 16.7016 21.2158C17.2474 21.2143 17.7715 21.4292 18.159 21.8135C18.5466 22.1978 18.7659 22.7201 18.769 23.2659Z" fill="#783F91"/>
</g>
<circle cx="20" cy="20" r="19.5" stroke="black" stroke-opacity="0.05"/>
<defs>
<clipPath id="clip0_17124_13023">
<rect width="22" height="21.3487" fill="white" transform="translate(9 9)"/>
</clipPath>
</defs>
</svg>
