<svg width="40" height="40" viewBox="0 0 40 40" fill="none" xmlns="http://www.w3.org/2000/svg">
<circle cx="20" cy="20" r="20" fill="#0B408C"/>
<path d="M19.97 10.0303C18.3492 10.0288 16.7527 10.4242 15.3199 11.182C15.9327 11.0174 16.5646 10.9341 17.1991 10.9341C19.116 10.9341 20.9543 11.6956 22.3098 13.051C23.6652 14.4065 24.4267 16.2448 24.4267 18.1617C24.4259 20.0776 23.6644 21.9149 22.3096 23.2696C20.9547 24.6243 19.1175 25.3856 17.2015 25.3863C15.4522 25.3862 13.7622 24.7516 12.445 23.6003C11.1279 22.4491 10.2729 20.8592 10.0388 19.1255C10.0139 19.4135 10 19.7051 10 19.9991C10.0002 22.6432 11.0506 25.179 12.9203 27.0487C14.79 28.9184 17.3258 29.9689 19.97 29.9691C22.6141 29.9689 25.1498 28.9184 27.0194 27.0487C28.8891 25.179 29.9394 22.6432 29.9394 19.9991C29.9392 17.3551 28.8888 14.8195 27.0192 12.95C25.1496 11.0805 22.6139 10.0303 19.97 10.0303Z" fill="url(#paint0_linear_14382_21384)"/>
<path d="M17.2016 25.3863C19.1184 25.3863 20.9568 24.6249 22.3122 23.2694C23.6677 21.914 24.4292 20.0756 24.4292 18.1587C24.4292 16.2419 23.6677 14.4035 22.3122 13.0481C20.9568 11.6926 19.1184 10.9312 17.2016 10.9312C16.567 10.9311 15.9352 11.0145 15.3224 11.1791C13.848 11.9566 12.5921 13.0914 11.6696 14.4796C10.747 15.8678 10.1872 17.4652 10.0413 19.1256C10.2754 20.8588 11.1299 22.4484 12.4466 23.5996C13.7632 24.7509 15.4526 25.3857 17.2016 25.3863ZM19.97 16.1019C21.0036 16.1019 21.9949 16.5125 22.7258 17.2434C23.4566 17.9743 23.8672 18.9655 23.8672 19.9991C23.8673 20.511 23.7666 21.0178 23.5707 21.4907C23.3749 21.9636 23.0879 22.3933 22.726 22.7553C22.3641 23.1172 21.9344 23.4043 21.4616 23.6002C20.9887 23.7961 20.4819 23.8969 19.97 23.8969C18.9363 23.8969 17.9449 23.4863 17.2139 22.7553C16.4829 22.0243 16.0722 21.0329 16.0722 19.9991C16.0723 19.4874 16.1732 18.9806 16.3691 18.5078C16.565 18.035 16.8522 17.6054 17.2141 17.2436C17.5761 16.8818 18.0057 16.5948 18.4786 16.399C18.9515 16.2032 19.4582 16.1025 19.97 16.1026V16.1019Z" fill="white"/>
<circle cx="20" cy="20" r="19.5" stroke="black" stroke-opacity="0.05"/>
<defs>
<linearGradient id="paint0_linear_14382_21384" x1="19.9697" y1="10.0303" x2="20.4697" y2="24.5" gradientUnits="userSpaceOnUse">
<stop stop-color="#97CEF2"/>
<stop offset="1" stop-color="white"/>
</linearGradient>
</defs>
</svg>
