<svg width="40" height="40" viewBox="0 0 40 40" fill="none" xmlns="http://www.w3.org/2000/svg">
<circle cx="20" cy="20" r="20" fill="#F6F8FA"/>
<path d="M13.9475 19.352C14.5139 19.3777 14.7664 19.8357 14.8423 20.3362V24.5207L11.2208 19.199H7.95562V27.062C7.93998 27.6608 7.71098 28.3042 7.03516 28.3355V28.4896H10.5115V22.1201L14.7217 28.4896H17.3982V19.2001H13.9475V19.3532V19.352ZM24.5463 19.1968H21.4073L21.4051 19.199H20.1484V19.352C20.803 19.3822 20.6343 20.0994 20.1852 20.6244L17.4317 23.8426L20.1852 27.0609C20.6343 27.5859 20.8041 28.3031 20.1484 28.3344V28.4885H24.544L20.5114 23.8426L24.544 19.1968H24.5463Z" fill="#4764AF"/>
<path d="M26.7274 19.2465L30.407 19.337L30.6315 16.9029C30.1612 17.839 29.1793 18.3852 27.993 18.0658C27.7953 18.0121 26.695 17.5419 26.733 16.3511C26.7676 15.2698 27.6892 15.2061 28.0958 15.358C28.0958 15.358 27.8478 14.6341 27.3608 14.5816C26.8246 14.5236 26.0058 14.7861 25.5768 15.8841C25.3936 16.3511 25.3031 16.8526 25.4338 17.5921L26.7285 19.2465H26.7274Z" fill="url(#paint0_linear_17713_27951)"/>
<path d="M30.2422 14.5326C31.1537 15.6586 30.6019 17.3565 30.0847 18.0201C29.8568 18.3127 28.3655 19.756 26.6441 18.7696C26.309 18.5775 25.4455 17.981 25.498 16.884C25.4522 16.7634 25.374 17.0393 25.374 17.0393C25.374 18.182 25.9527 19.1762 26.576 19.775C26.5793 19.766 28.3208 20.1257 29.095 19.9191C30.2411 19.613 31.032 18.9249 31.3492 18.2379C32.6405 15.4441 30.2422 14.5326 30.2422 14.5326Z" fill="url(#paint1_linear_17713_27951)"/>
<path d="M31.8198 13.3866C31.9482 13.5988 30.7172 13.2246 30.0336 13.2872C29.0941 13.3721 28.6507 13.9999 28.6507 13.9999C29.4818 14.0568 30.5016 14.3786 31.1372 15.5895C31.4612 16.2061 31.7338 17.6761 30.7597 18.82C29.599 20.1851 28.1927 19.9739 27.8575 19.9214C26.2613 19.6712 25.5273 18.0392 25.5273 18.0392C25.5843 18.276 26.3294 20.8106 29.179 20.7268C31.3662 20.662 33.0363 18.6725 33.0363 16.3859C33.0363 15.1728 32.5682 14.106 31.8209 13.3888L31.8198 13.3866Z" fill="url(#paint2_linear_17713_27951)"/>
<path d="M31.8196 19.4993C32.6854 18.5219 32.9747 16.6441 31.9682 15.2209C31.3471 14.3429 29.9877 13.628 28.6494 13.9989V11.2632C31.5906 11.6676 33.0339 14.086 33.0339 16.3726C33.0339 17.5858 32.5658 18.7017 31.8185 19.4982L31.8196 19.4993Z" fill="url(#paint3_linear_17713_27951)"/>
<path d="M30.1749 16.1279C30.1883 15.0254 29.1986 14.2122 27.7464 14.2669C26.6875 14.306 25.2196 15.2399 25.3872 17.3444C25.3872 17.3444 25.5581 17.5108 25.5179 17.2707C25.4017 16.5747 25.7413 15.8587 26.3188 15.5214C26.9801 15.1348 28.0413 15.2354 28.5116 15.8978C28.9741 16.5491 28.9205 17.1031 28.725 17.6103C28.725 17.6103 30.1571 17.5555 30.1749 16.1279Z" fill="url(#paint4_radial_17713_27951)"/>
<circle cx="20" cy="20" r="19.5" stroke="black" stroke-opacity="0.05"/>
<defs>
<linearGradient id="paint0_linear_17713_27951" x1="25.607" y1="16.3868" x2="28.8208" y2="17.5474" gradientUnits="userSpaceOnUse">
<stop offset="0.31" stop-color="#4271AA"/>
<stop offset="1" stop-color="#3B3D63"/>
</linearGradient>
<linearGradient id="paint1_linear_17713_27951" x1="24.2748" y1="17.2582" x2="30.1942" y2="17.2582" gradientUnits="userSpaceOnUse">
<stop offset="0.2" stop-color="#659AD2"/>
<stop offset="0.65" stop-color="#3777BC"/>
<stop offset="1" stop-color="#3E416C"/>
</linearGradient>
<linearGradient id="paint2_linear_17713_27951" x1="27.3303" y1="18.8624" x2="31.6623" y2="15.7235" gradientUnits="userSpaceOnUse">
<stop stop-color="#ADCDEC"/>
<stop offset="0.54" stop-color="#4978BC"/>
<stop offset="1" stop-color="#44487B"/>
</linearGradient>
<linearGradient id="paint3_linear_17713_27951" x1="28.9164" y1="13.9285" x2="32.9389" y2="17.0183" gradientUnits="userSpaceOnUse">
<stop stop-color="#8DC63F"/>
<stop offset="0.47" stop-color="#8DC63F"/>
<stop offset="1" stop-color="#448D46"/>
</linearGradient>
<radialGradient id="paint4_radial_17713_27951" cx="0" cy="0" r="1" gradientUnits="userSpaceOnUse" gradientTransform="translate(28.3105 14.1675) scale(3.82595 3.82594)">
<stop offset="0.2" stop-color="#8DC63F"/>
<stop offset="0.53" stop-color="#8DC63F"/>
<stop offset="0.85" stop-color="#448D46"/>
<stop offset="1" stop-color="#659AD2"/>
</radialGradient>
</defs>
</svg>
