<svg width="40" height="40" viewBox="0 0 40 40" fill="none" xmlns="http://www.w3.org/2000/svg">
<circle cx="20" cy="20" r="20" fill="#00426B"/>
<g clip-path="url(#clip0_14382_20731)">
<path d="M18.488 22.502H16.9865V18.0708H18.1479C18.5145 18.0708 18.7999 18.12 19.004 18.2184C19.1972 18.3036 19.3604 18.4446 19.4728 18.6233C19.5851 18.802 19.6415 19.0102 19.6347 19.2212C19.6347 19.6575 19.4098 19.9695 18.96 20.1571C19.254 20.2026 19.5251 20.3429 19.7319 20.5568C19.9198 20.7543 20.0228 21.0176 20.0188 21.2901C20.0224 21.5049 19.9618 21.7159 19.8446 21.8961C19.7155 22.0842 19.5387 22.2345 19.3322 22.3315C19.0676 22.4524 18.7787 22.5107 18.488 22.502ZM18.168 18.6346H17.618V19.9674H18.0397C18.3783 19.9674 18.619 19.9029 18.762 19.774C18.8323 19.7112 18.8878 19.6337 18.9247 19.5471C18.9616 19.4604 18.979 19.3667 18.9756 19.2725C18.9793 18.8481 18.7089 18.6346 18.168 18.6346ZM18.2148 20.5321H17.6217V21.9364H18.2469C18.5934 21.9364 18.829 21.9107 18.9527 21.8566C19.0747 21.8038 19.1783 21.7161 19.2506 21.6045C19.3237 21.4962 19.3629 21.3686 19.3634 21.2379C19.3631 21.1062 19.3214 20.9779 19.2442 20.8712C19.1618 20.7539 19.0458 20.6644 18.9115 20.6146C18.6854 20.5486 18.45 20.5207 18.2148 20.5321Z" fill="white"/>
<path d="M20.5789 19.7593H21.1554V22.5019H20.5789V19.7593Z" fill="white"/>
<path d="M28.1743 21.9867C27.914 21.9867 27.7884 21.8327 27.7884 21.5174V20.1369H28.695V19.5787H27.7884V18.9553L26.6765 20.048V20.1397H27.1752V21.3891C27.1678 21.5677 27.18 21.7466 27.2118 21.9226C27.2309 22.0037 27.2618 22.0815 27.3035 22.1536C27.3413 22.2137 27.3883 22.2676 27.4428 22.3131C27.6271 22.4711 27.8639 22.5542 28.1065 22.5459C28.36 22.5485 28.6098 22.4853 28.8316 22.3626L28.8426 22.3562V21.7722L28.8078 21.7924C28.6179 21.9129 28.3991 21.98 28.1743 21.9867Z" fill="white"/>
<path d="M30.2488 19.5228C30.065 19.5171 29.8822 19.5516 29.7131 19.6238C29.5441 19.696 29.3927 19.8042 29.2698 19.9408C29.0113 20.2401 28.8763 20.6265 28.8921 21.0216C28.8883 21.2924 28.9513 21.56 29.0754 21.8008C29.1853 22.0157 29.3465 22.2002 29.5448 22.3379C29.7796 22.4804 30.0514 22.55 30.3258 22.5378C30.5315 22.5409 30.7367 22.5153 30.9354 22.4617C31.1223 22.405 31.2995 22.32 31.4606 22.2096L31.4707 22.2032V21.5899L31.4349 21.6174C31.1405 21.8405 30.7814 21.9615 30.4119 21.9621C30.1751 21.971 29.9443 21.8856 29.7703 21.7247C29.6069 21.5607 29.5116 21.3409 29.5035 21.1096H31.5202V21.0179C31.5202 20.5678 31.4038 20.203 31.1746 19.9344C31.0614 19.8004 30.9192 19.6937 30.7589 19.6224C30.5986 19.5512 30.4242 19.5171 30.2488 19.5228ZM30.2488 20.0618C30.3353 20.0575 30.4218 20.0711 30.5029 20.1017C30.5839 20.1323 30.6578 20.1793 30.7199 20.2397C30.84 20.3728 30.9086 20.5444 30.9134 20.7237H29.5228C29.5496 20.5409 29.6345 20.3715 29.7648 20.2406C29.8962 20.1194 30.0702 20.0551 30.2488 20.0618Z" fill="white"/>
<path d="M33.3425 21.9675C33.2144 21.974 33.0863 21.9552 32.9654 21.9121C32.8446 21.869 32.7335 21.8024 32.6385 21.7163C32.5507 21.6263 32.4824 21.5193 32.4378 21.4018C32.3932 21.2843 32.3732 21.1589 32.3791 21.0334C32.3701 20.7869 32.456 20.5464 32.6192 20.3615C32.6966 20.2763 32.7915 20.2088 32.8973 20.1635C33.0031 20.1183 33.1174 20.0964 33.2325 20.0993C33.5152 20.1141 33.7878 20.2095 34.0181 20.3743L34.0538 20.3963V19.7345L34.0401 19.7281C33.8984 19.663 33.7515 19.6099 33.601 19.5695C33.469 19.5395 33.3339 19.525 33.1986 19.5264C33.0046 19.519 32.8113 19.5529 32.6314 19.6259C32.4516 19.6989 32.2893 19.8094 32.1554 19.9499C31.8923 20.2249 31.7594 20.6007 31.7594 21.0554C31.7594 21.5101 31.8969 21.8721 32.1673 22.1416C32.4377 22.4111 32.8044 22.5468 33.2572 22.5468C33.5456 22.5444 33.8312 22.4903 34.1006 22.3873L34.1162 22.3818V21.7686L34.0832 21.7832C33.8517 21.8953 33.5995 21.958 33.3425 21.9675Z" fill="white"/>
<path d="M36.8781 20.0765C36.8058 19.9093 36.6847 19.7678 36.5307 19.6704C36.3731 19.5718 36.1904 19.5205 36.0045 19.5228C35.841 19.5217 35.6792 19.5564 35.5305 19.6245C35.3818 19.6926 35.2498 19.7924 35.1438 19.917V18.0938H34.5305V22.4937H35.1438V20.4248C35.2458 20.3047 35.3651 20.2003 35.4976 20.115C35.6011 20.0546 35.7188 20.023 35.8386 20.0233C35.9132 20.0213 35.9873 20.0369 36.0548 20.0687C36.1223 20.1006 36.1814 20.1478 36.2273 20.2067C36.3323 20.3487 36.3854 20.5225 36.3776 20.6989V22.4937H36.9899V20.8373C37.0021 20.5789 36.9641 20.3205 36.8781 20.0765Z" fill="white"/>
<path d="M7.46042 22.3699C7.26792 22.468 6.84075 22.5725 6.299 22.5725C4.86808 22.5725 4 21.6888 4 20.3477C4 18.8939 5.02942 18.0176 6.40533 18.0176C6.94617 18.0176 7.333 18.1294 7.49984 18.2128V19.0186C7.28625 18.9269 6.75733 18.7353 6.38333 18.7353C5.46667 18.7353 4.92767 19.2377 4.92767 20.2992C4.92767 21.2672 5.44009 21.8575 6.42825 21.8575C6.78135 21.8462 7.12988 21.7743 7.45858 21.6448L7.46042 22.3699Z" fill="white"/>
<path d="M8.80604 18.0901V19.8574H10.71V18.0901H11.601V22.502H10.71V20.6265H8.80604V22.502H7.91321V18.0901H8.80604Z" fill="white"/>
<path d="M23.9998 22.5101C23.5647 22.5101 23.1393 22.3811 22.7776 22.1393C22.4158 21.8976 22.1338 21.554 21.9673 21.152C21.8008 20.75 21.7572 20.3077 21.8421 19.8809C21.927 19.4542 22.1365 19.0621 22.4442 18.7545C22.7518 18.4468 23.1438 18.2373 23.5706 18.1524C23.9974 18.0675 24.4397 18.1111 24.8417 18.2776C25.2437 18.4441 25.5873 18.7261 25.829 19.0879C26.0708 19.4496 26.1998 19.875 26.1998 20.3101C26.1998 20.8936 25.968 21.4532 25.5554 21.8657C25.1429 22.2783 24.5833 22.5101 23.9998 22.5101ZM23.9998 18.3723C23.6163 18.3721 23.2414 18.4856 22.9224 18.6986C22.6035 18.9115 22.3549 19.2142 22.208 19.5685C22.0611 19.9227 22.0226 20.3126 22.0973 20.6887C22.172 21.0648 22.3566 21.4104 22.6277 21.6816C22.8988 21.9528 23.2442 22.1376 23.6203 22.2125C23.9964 22.2873 24.3863 22.249 24.7406 22.1023C25.0949 21.9556 25.3978 21.7071 25.6108 21.3882C25.8239 21.0694 25.9376 20.6945 25.9376 20.311C25.9379 19.7966 25.7339 19.3031 25.3706 18.9389C25.0073 18.5747 24.5142 18.3696 23.9998 18.3686V18.3723Z" fill="white"/>
<path d="M22.6331 20.2864C22.6329 20.016 22.7129 19.7517 22.863 19.5268C23.013 19.3019 23.2264 19.1266 23.4761 19.023C23.7259 18.9194 24.0007 18.8922 24.2659 18.9449C24.5311 18.9975 24.7747 19.1276 24.9659 19.3187C25.1572 19.5098 25.2874 19.7533 25.3402 20.0185C25.393 20.2836 25.366 20.5585 25.2626 20.8083C25.1592 21.0581 24.984 21.2716 24.7592 21.4218C24.5345 21.572 24.2702 21.6522 23.9998 21.6522C23.6375 21.6522 23.29 21.5083 23.0337 21.2522C22.7774 20.9961 22.6333 20.6487 22.6331 20.2864Z" fill="white"/>
<path d="M20.4697 19.0306C20.4697 18.951 20.4934 18.8731 20.5376 18.8069C20.5819 18.7407 20.6448 18.6891 20.7184 18.6587C20.7919 18.6283 20.8729 18.6204 20.951 18.636C21.0291 18.6516 21.1008 18.69 21.157 18.7464C21.2133 18.8027 21.2515 18.8745 21.2669 18.9526C21.2824 19.0308 21.2743 19.1117 21.2437 19.1852C21.2131 19.2587 21.1613 19.3215 21.095 19.3656C21.0288 19.4097 20.9509 19.4332 20.8712 19.433C20.8184 19.4331 20.7661 19.4228 20.7172 19.4026C20.6684 19.3824 20.6241 19.3528 20.5867 19.3154C20.5494 19.278 20.5199 19.2335 20.4998 19.1847C20.4797 19.1358 20.4695 19.0834 20.4697 19.0306Z" fill="white"/>
<path d="M14.4244 18.0938H13.3739L11.931 22.4818H12.7808L13.1676 21.237H14.5976L15.0046 22.4818H15.8864L14.4244 18.0938ZM13.3014 20.6329C13.4169 20.2718 13.5334 19.9124 13.6498 19.5522C13.7295 19.2909 13.7955 18.9847 13.8634 18.7317H13.8762C13.9431 18.9847 14.0174 19.2818 14.1035 19.5522C14.2209 19.9124 14.34 20.2718 14.4574 20.6329H13.3014Z" fill="white"/>
</g>
<circle cx="20" cy="20" r="19.5" stroke="black" stroke-opacity="0.05"/>
<defs>
<clipPath id="clip0_14382_20731">
<rect width="33" height="4.58333" fill="white" transform="translate(4 18.0176)"/>
</clipPath>
</defs>
</svg>
