<svg width="40" height="40" viewBox="0 0 40 40" fill="none" xmlns="http://www.w3.org/2000/svg">
<circle cx="20" cy="20" r="20" fill="#F6F8FA"/>
<path d="M20 32C26.6274 32 32 26.6274 32 20C32 13.3726 26.6274 8 20 8C13.3726 8 8 13.3726 8 20C8 26.6274 13.3726 32 20 32Z" fill="url(#paint0_radial_17752_43845)"/>
<path d="M21.6344 8.19219L23.5237 10.812C23.7966 11.194 23.7231 11.2832 23.3033 11.0796C22.1991 10.5548 21.0446 10.0363 19.8396 9.52412C19.2099 9.26277 17.4812 8.57949 16.8955 9.03291C16.3099 9.48634 16.0831 10.1602 16.2815 11.0103C16.439 11.6779 16.6237 12.3297 16.8357 12.9657C18.0756 15.4987 18.9623 18.1898 19.4712 20.9636L17.8622 20.6299L15.0283 13.3404C14.556 11.3441 15.2109 9.74663 16.9931 8.548C17.4673 8.28419 17.9861 8.11019 18.5234 8.03475C19.5625 8.03235 20.6009 8.0849 21.6344 8.19219Z" fill="#EE1923"/>
<path d="M28.3163 24.5912C27.3565 25.1227 26.2287 25.2636 25.1675 24.9848C22.9748 24.4038 20.82 23.6876 18.7157 22.8405C18.4649 22.7456 18.1997 22.6945 17.9317 22.6893C17.8164 22.574 17.6732 22.4905 17.516 22.4469C16.543 22.1131 14.5436 21.3227 14.4208 22.6862C14.3705 22.7879 14.3478 22.9011 14.355 23.0144C14.3622 23.1277 14.399 23.2371 14.4617 23.3317C14.4863 23.5157 14.535 23.6956 14.6065 23.867C15.1313 25.1265 15.6089 26.3933 16.0392 27.6675C16.2109 28.23 16.3 28.8144 16.3037 29.4025C16.162 30.2716 15.7023 30.8006 14.9309 30.9769C14.3738 30.773 13.8615 30.4629 13.4226 30.0638C13.7694 30.1142 14.1019 30.2365 14.3987 30.4227C14.7734 30.4227 14.9561 30.2369 14.9466 29.8245C14.9251 29.587 14.87 29.3537 14.7829 29.1317C14.3735 27.9625 13.96 26.7901 13.5423 25.6145C13.2758 24.8224 13.3312 23.9574 13.6965 23.2057L14.0996 22.4248C14.9834 20.9764 16.2429 20.376 17.8781 20.6237L19.4872 20.9575L24.7834 22.8468C25.8044 23.2994 26.8885 23.5935 27.9983 23.719C30.1584 23.889 29.812 20.7087 29.431 19.4461C29.1476 18.5077 28.8327 17.5558 28.4864 16.5901C28.4711 16.5501 28.4641 16.5074 28.4658 16.4646C28.4676 16.4218 28.4781 16.3798 28.4967 16.3412C28.5153 16.3025 28.5415 16.2681 28.5739 16.24C28.6062 16.2119 28.6439 16.1907 28.6847 16.1776C28.7328 16.1591 28.7847 16.1526 28.8359 16.1588C29.012 16.1837 29.1916 16.1626 29.3572 16.0975C29.5227 16.0323 29.6686 15.9255 29.7805 15.7872C29.9411 15.6518 30.0719 15.4845 30.1647 15.296C30.2623 15.0724 30.3253 15.0819 30.3567 15.3212C30.6301 17.3783 30.6216 19.4631 30.3316 21.518C30.2478 22.1486 30.0232 22.7524 29.6744 23.2844C29.3255 23.8164 28.8613 24.263 28.3163 24.5912Z" fill="#2A58A9"/>
<path d="M12.7173 21.4485L14.087 22.4309L13.684 23.2118C12.0876 22.7741 11.7947 21.6091 11.1178 20.4849C10.8763 20.0924 10.9362 20.0389 11.2972 20.3244L12.7173 21.4485Z" fill="#EE1923"/>
<path d="M17.5183 22.4468C17.6754 22.4904 17.8186 22.5739 17.9339 22.6892C16.9263 23.4449 15.7298 23.3946 14.4703 23.319C14.4076 23.2244 14.3708 23.115 14.3636 23.0017C14.3564 22.8884 14.3791 22.7753 14.4293 22.6735C15.5251 22.8183 16.3375 23.3253 17.4899 22.6388C17.5245 22.62 17.553 22.5916 17.5718 22.557C17.5928 22.4982 17.575 22.4615 17.5183 22.4468Z" fill="#EE1923"/>
<circle cx="20" cy="20" r="19.5" stroke="black" stroke-opacity="0.05"/>
<defs>
<radialGradient id="paint0_radial_17752_43845" cx="0" cy="0" r="1" gradientUnits="userSpaceOnUse" gradientTransform="translate(20 20) rotate(90) scale(12)">
<stop stop-color="white"/>
<stop offset="1" stop-color="#C2C3C7"/>
</radialGradient>
</defs>
</svg>
