<svg width="40" height="40" viewBox="0 0 40 40" fill="none" xmlns="http://www.w3.org/2000/svg">
<circle cx="20" cy="20" r="20" fill="#008052"/>
<path fill-rule="evenodd" clip-rule="evenodd" d="M24.1545 22.0796C24.1007 21.7567 24.0095 21.4438 23.877 21.154C23.4593 20.2689 22.8778 19.5282 22.0052 19.0306C20.646 18.2543 19.0055 18.26 17.6629 19.056C17.055 19.4169 16.5554 19.9332 16.2338 20.5556C16.1237 20.7654 16.0361 20.9866 15.9625 21.2125C15.6103 22.3133 15.6215 23.7933 16.2601 24.7981C16.4687 25.1265 16.7678 25.4072 17.1361 25.5452C17.5046 25.6845 17.9417 25.6688 18.273 25.4593C18.6991 25.1891 18.7743 24.6761 18.6957 24.2167C18.595 23.6302 18.5188 23.0556 18.737 22.4824C18.8083 22.2986 18.9079 22.1232 19.052 21.9884C19.1399 21.9063 19.2434 21.84 19.3528 21.7876C19.5839 21.6769 19.848 21.6271 20.1019 21.6685C20.545 21.7379 20.9114 22.0759 21.1079 22.4715C21.3048 22.8679 21.3588 23.3162 21.3803 23.7562C21.4738 25.674 21.0058 27.6623 20.5046 29.5047C20.4557 29.6946 20.4019 29.8828 20.3462 30.0715C20.3048 30.2176 20.2268 30.4036 20.3236 30.544C20.3646 30.6061 20.4282 30.6482 20.4988 30.6754C20.7871 30.7913 21.0259 30.6159 21.2202 30.4244C22.3687 29.2925 23.1054 27.8338 23.6094 26.3311C23.7966 25.7721 23.9571 25.2016 24.0684 24.6198C24.2164 23.8273 24.2996 22.9174 24.1545 22.0796Z" fill="white"/>
<path fill-rule="evenodd" clip-rule="evenodd" d="M32.3809 13.2133C32.3809 12.9257 32.1204 12.7358 31.8403 12.7456C31.5568 12.7541 31.2934 12.8983 31.0335 12.9949C25.9797 14.8768 20.2788 15.2325 14.952 14.4823C14.0412 14.3528 13.118 14.1721 12.2006 14.0328C11.6286 13.945 11.0624 13.8185 10.484 13.7762C9.99086 13.7388 9.37431 13.721 8.97776 14.0566C8.45279 14.5013 8.48946 15.3438 8.78829 15.8996C9.14575 16.567 9.77264 17.0675 10.4244 17.4478C11.0592 17.8162 11.8129 18.2103 12.5689 18.1648C14.6041 18.0378 16.6358 17.8443 18.6591 17.5864C22.1077 17.1486 25.7261 16.7347 28.9659 15.4251C30.0246 14.9961 31.0698 14.4622 31.9795 13.7711C32.1435 13.6503 32.3809 13.4487 32.3809 13.2133Z" fill="white"/>
<path fill-rule="evenodd" clip-rule="evenodd" d="M17.8861 11.5187C17.8861 12.5926 18.776 13.4645 19.8739 13.4645C20.9721 13.4645 21.8612 12.5926 21.8612 11.5187C21.8612 11.3585 21.8242 11.1976 21.7552 11.0515C21.584 10.6982 21.3935 10.5267 21.41 10.1025C21.4383 9.53123 20.6891 9.5238 20.2848 9.5238C19.8461 9.5238 19.3781 9.58325 18.9824 9.77852C18.6656 9.93457 18.3931 10.1732 18.2017 10.4652C18.0027 10.7658 17.8935 11.1161 17.8861 11.4725V11.5187Z" fill="white"/>
<circle cx="20" cy="20" r="19.5" stroke="black" stroke-opacity="0.05"/>
</svg>
