<svg width="40" height="40" viewBox="0 0 40 40" fill="none" xmlns="http://www.w3.org/2000/svg">
<circle cx="20" cy="20" r="20" fill="#0C8ED8"/>
<g clip-path="url(#clip0_16905_10904)">
<path d="M27.875 25.9298C27.4865 25.8989 27.1518 25.834 26.8174 25.7247C26.6382 25.6662 26.326 25.5385 26.2815 25.5056C26.2704 25.4974 26.2367 25.4848 26.2066 25.4776C26.0795 25.4473 25.717 25.176 25.4595 24.9184C25.3181 24.7769 25.2023 24.6521 25.2023 24.641C25.2023 24.63 25.1535 24.5499 25.0939 24.4631C24.827 24.0745 24.646 23.5922 24.5682 23.062C24.5406 22.8741 24.5367 22.4131 24.5367 19.3354V15.8232H27.3405L27.3407 19.1565C27.341 22.7135 27.3375 22.5837 27.4378 22.7721C27.4928 22.8755 27.5125 22.8984 27.6243 22.9889C27.8342 23.1588 28.1324 23.2337 28.423 23.1895C28.7396 23.1413 29.0409 22.9309 29.1377 22.6906L29.1861 22.5704L29.1914 19.1968L29.1967 15.8232H32V19.3222C32 23.13 32.0031 23.0163 31.8869 23.4648C31.7481 24.0005 31.4284 24.5679 31.0611 24.9304C30.8689 25.1201 30.5749 25.3419 30.3987 25.4303C29.8681 25.6963 29.3848 25.8456 28.8533 25.9076C28.6016 25.9369 28.1062 25.9482 27.875 25.9298L27.875 25.9298ZM10.8052 20.8407L10.8103 15.8131L12.2172 15.8079L13.6241 15.8027V25.8684H10.8001L10.8052 20.8407ZM16.0245 24.5577V23.2471L17.5439 23.2416L19.0632 23.2361L19.1323 23.1886C19.2784 23.0882 19.3275 22.9615 19.2811 22.8054C19.2469 22.6903 19.1538 22.5964 18.665 22.184C17.4496 21.1586 16.8549 20.6417 16.7446 20.5153C16.4227 20.1462 16.1974 19.6869 16.0832 19.167C16.0231 18.8935 16.0091 18.385 16.0534 18.0846C16.2412 16.8101 17.1764 15.9655 18.5358 15.8428C18.731 15.8251 22.0807 15.8146 22.0977 15.8316C22.1023 15.8362 22.1037 16.4262 22.1007 17.1427L22.0954 18.4454L20.7392 18.4459C19.4626 18.4463 19.3782 18.4485 19.3007 18.4837C19.0881 18.5802 19.0422 18.8205 19.1972 19.025C19.2328 19.0719 19.5796 19.3797 19.9679 19.7088C21.6982 21.1756 21.6563 21.1372 21.8857 21.4727C22.1005 21.7868 22.2682 22.2036 22.3517 22.6309C22.4063 22.9101 22.4009 23.4716 22.3411 23.7481C22.2558 24.1424 22.0725 24.5701 21.8723 24.8414C21.751 25.0058 21.4789 25.2693 21.3186 25.3774C21.0765 25.5408 20.6612 25.7064 20.2943 25.7859C19.9546 25.8595 19.6994 25.868 17.8349 25.8682L16.0245 25.8684L16.0245 24.5577ZM8.00577 15.7981C8.00045 15.7842 7.99843 15.151 8.00132 14.3911L8.00652 13.0093H10.8103V15.8131L9.41289 15.8183C8.30564 15.8224 8.01346 15.8182 8.00577 15.7981Z" fill="white"/>
<path d="M8.01172 13.0115H10.8011V15.8077H8.01172V13.0115Z" fill="#99CA3B" stroke="#99CA3B" stroke-width="1.14147"/>
</g>
<circle cx="20" cy="20" r="19.5" stroke="black" stroke-opacity="0.05"/>
<defs>
<clipPath id="clip0_16905_10904">
<rect width="24" height="12.9387" fill="white" transform="translate(8 13)"/>
</clipPath>
</defs>
</svg>
