<svg width="40" height="40" viewBox="0 0 40 40" fill="none" xmlns="http://www.w3.org/2000/svg">
<circle cx="20" cy="20" r="20" fill="#F6F8FA"/>
<path d="M13.3446 11.8052C11.7502 13.9385 10.1557 16.0718 8.56127 18.2052C8.45163 18.3518 8.37285 18.4696 8.32473 18.5584C8.05413 19.0574 7.95768 19.6433 8.01666 20.2046" stroke="#8097B7" stroke-width="0.0444329"/>
<path d="M8.0166 20.2075C8.04683 20.5671 8.14498 20.9014 8.31105 21.2107C8.35576 21.2938 8.43283 21.4128 8.54206 21.568C8.87398 22.0389 9.20611 22.5095 9.53846 22.9794" stroke="#808E98" stroke-width="0.0444329"/>
<path d="M9.53809 22.9783L11.3269 25.5116" stroke="#8097B7" stroke-width="0.0444329"/>
<path d="M11.3271 25.511C12.5477 27.2409 13.7692 28.9701 14.9915 30.6989C15.0973 30.8488 15.1846 30.9603 15.2534 31.0338C15.8604 31.6817 16.8689 32.0168 17.7469 31.8692C17.8319 31.855 17.9411 31.8281 18.0746 31.7888C18.1825 31.7568 18.2905 31.7242 18.398 31.6908C19.7395 31.2739 21.0813 30.8571 22.423 30.4402" stroke="#80A3D9" stroke-width="0.0444329"/>
<path d="M22.4229 30.4396L25.2796 29.5537" stroke="#8091D3" stroke-width="0.0444329"/>
<path d="M25.2803 29.5549L27.3208 28.9221" stroke="#809FEF" stroke-width="0.0444329"/>
<path d="M27.3203 28.9221C27.814 28.7699 28.315 28.6147 28.8234 28.4565C29.0076 28.3992 29.1415 28.3517 29.2248 28.3145C30.1234 27.9114 30.8333 26.8882 30.8467 25.9031C30.8663 24.4613 30.8859 23.018 30.9052 21.573" stroke="#8095CB" stroke-width="0.0444329"/>
<path d="M30.9053 21.5723L30.9606 17.46" stroke="#809FEF" stroke-width="0.0444329"/>
<path d="M30.9613 17.4607C30.9734 16.5154 30.9862 15.5699 30.9994 14.6244C31.0022 14.4279 30.9994 14.2861 30.9913 14.1988C30.8991 13.2096 30.1382 12.2023 29.1908 11.8804C28.0862 11.5053 26.9819 11.1299 25.8779 10.7542" stroke="#8095F4" stroke-width="0.0444329"/>
<path d="M25.877 10.7532L19.292 8.51514" stroke="#80AFF6" stroke-width="0.0444329"/>
<path d="M19.2924 8.51497L18.3486 8.19434" stroke="#809DDC" stroke-width="0.0444329"/>
<path d="M18.3487 8.19508C18.021 8.08629 17.6772 8.04988 17.3169 8.08543C16.7664 8.13973 16.2692 8.33006 15.8253 8.65666C15.6399 8.79314 15.5021 8.92131 15.4123 9.04139C14.7227 9.96285 14.0335 10.8845 13.3447 11.8066" stroke="#8090C3" stroke-width="0.0444329"/>
<path d="M18.349 8.19434L18.2666 14.2841" stroke="#002EA0" stroke-width="0.0444329"/>
<path d="M18.2659 14.2851C18.0368 14.2236 17.8056 14.184 17.5722 14.1665C17.2897 14.1454 17.0642 14.1348 16.8962 14.135C16.2526 14.1354 15.6109 14.1354 14.9707 14.135" stroke="#8090C3" stroke-width="0.0444329"/>
<path d="M14.9711 14.1331C14.9153 14.0286 14.8532 13.9287 14.7848 13.8338C14.7769 13.8231 14.7635 13.8169 14.7557 13.8054C14.6209 13.6068 14.4708 13.3922 14.3056 13.162C14.2159 13.0375 14.134 12.9217 14.0592 12.8146C13.9019 12.5895 13.7446 12.3664 13.587 12.1454C13.5285 12.0634 13.4676 11.9781 13.4046 11.8895C13.4026 11.8865 13.4014 11.8833 13.4011 11.8797C13.4011 11.8774 13.4011 11.875 13.4005 11.8727C13.3994 11.8656 13.3965 11.8593 13.3916 11.8544L13.3447 11.8052" stroke="#00287B" stroke-width="0.0444329"/>
<path d="M14.9708 14.135H13.1545C13.1466 14.1348 13.1426 14.1388 13.1426 14.1467V14.3466C13.1426 14.355 13.1468 14.359 13.1551 14.3588C13.2546 14.3562 13.368 14.3603 13.4956 14.3707C13.6039 14.3799 13.6925 14.3958 13.7611 14.419C13.9891 14.4959 14.1192 14.6641 14.1515 14.9234C14.1611 15.0001 14.166 15.1133 14.1667 15.2632C14.1679 15.5734 14.1681 15.884 14.1675 16.1951" stroke="#8097B7" stroke-width="0.0444329"/>
<path d="M14.1677 16.195C14.0979 16.1876 14.0182 16.1631 13.9667 16.1537C13.0831 15.9911 12.1138 16.214 11.4612 16.8538C10.3271 17.9658 9.19227 19.0774 8.05705 20.1883C8.05173 20.1936 8.03811 20.1998 8.0166 20.2064" stroke="#002650" stroke-width="0.0444329"/>
<path d="M18.2309 17.5166L17.9478 17.5998C17.9248 17.6067 17.925 17.613 17.9482 17.6192L18.2252 17.6922" stroke="#8090C3" stroke-width="0.0444329"/>
<path d="M19.624 18.4617C19.795 18.6788 19.9031 18.9171 19.9489 19.1762" stroke="#8091D3" stroke-width="0.0444329"/>
<path d="M19.949 19.175C20.034 19.762 19.8951 20.2566 19.5326 20.6588C19.1483 21.085 18.5717 21.329 18.0143 21.4355C17.8412 21.4685 17.6764 21.493 17.5195 21.5085" stroke="#808CAF" stroke-width="0.0444329"/>
<path d="M17.5193 21.5103C17.2666 21.5296 17.0411 21.5392 16.8433 21.5392C15.931 21.5392 15.0198 21.5392 14.1094 21.539" stroke="#8097B7" stroke-width="0.0444329"/>
<path d="M14.1092 21.5384H13.1541C13.1464 21.5386 13.1426 21.5348 13.1426 21.5271V21.3263C13.1428 21.318 13.1468 21.314 13.1549 21.3142C13.4498 21.3189 14.0396 21.2737 14.1217 20.9026C14.1567 20.7453 14.1664 20.558 14.1664 20.3889C14.1679 18.9907 14.1681 17.5928 14.1675 16.1951" stroke="#808E98" stroke-width="0.0444329"/>
<path d="M19.2928 8.51514C19.2813 8.52514 19.2743 8.53515 19.2719 8.54494C19.2193 8.75338 19.1902 8.97693 19.1844 9.2156C19.1761 9.56179 19.2306 9.89009 19.3484 10.2005C19.3775 10.2772 19.4369 10.406 19.5268 10.5867C20.3186 12.1803 21.1102 13.7739 21.9011 15.368C21.9064 15.3788 21.913 15.3856 21.9209 15.3884" stroke="#004DD3" stroke-width="0.0444329"/>
<path d="M21.9209 15.3882L21.986 15.5738" stroke="#0033D1" stroke-width="0.0444329"/>
<path d="M21.9853 15.5749C21.6619 15.3707 21.3261 15.3215 20.978 15.4269C20.5993 15.5419 20.298 15.8506 20.1996 16.2402C20.1004 16.6326 20.206 17.0061 20.4826 17.3116" stroke="#809DDC" stroke-width="0.0444329"/>
<path d="M20.4831 17.3108L19.624 18.4607" stroke="#002FB0" stroke-width="0.0444329"/>
<path d="M19.6234 18.4608C19.3592 18.1408 19.0277 17.9617 18.6366 17.8231C18.4976 17.774 18.3602 17.7303 18.2246 17.6926" stroke="#809DDC" stroke-width="0.0444329"/>
<path d="M18.2248 17.6922C18.2165 17.6297 18.2184 17.5711 18.2305 17.5166" stroke="#002EA0" stroke-width="0.0444329"/>
<path d="M18.2305 17.5175C19.0587 17.2475 19.7792 16.7129 19.6097 15.7154C19.5073 15.1118 19.0672 14.6087 18.5085 14.3756C18.427 14.3415 18.3461 14.3113 18.2658 14.2849" stroke="#809DDC" stroke-width="0.0444329"/>
<path d="M14.109 21.5388C14.0832 21.5667 14.0489 21.5871 14.0064 21.6001C12.5867 22.0389 11.1672 22.4784 9.7478 22.9185C9.65731 22.9466 9.58727 22.9666 9.53809 22.9787" stroke="#002650" stroke-width="0.0444329"/>
<path d="M17.6944 23.6865C17.6873 23.6842 17.6805 23.6812 17.6744 23.678C17.3254 23.4962 16.9762 23.3144 16.6271 23.1326C16.4531 23.0421 16.3252 22.9808 16.2432 22.949C15.6549 22.7208 14.9677 22.7391 14.3662 22.929" stroke="#003A91" stroke-width="0.0444329"/>
<path d="M14.3667 22.9296C14.2458 22.8242 14.117 22.7616 13.9803 22.7418C13.8579 22.7241 13.7446 22.713 13.6401 22.7088C13.4265 22.7001 13.1983 22.7471 12.9554 22.8497C12.9324 22.8595 12.9224 22.8821 12.9105 22.9027C12.8979 22.9238 12.8834 22.9432 12.8668 22.9609C12.7997 23.0313 12.7408 23.0997 12.6903 23.1659C12.645 23.2253 12.6301 23.3075 12.6456 23.4124C12.6784 23.636 12.8129 23.7725 13.0041 23.8747" stroke="#8097B7" stroke-width="0.0444329"/>
<path d="M13.0038 23.8757L11.3271 25.5123" stroke="#003A91" stroke-width="0.0444329"/>
<path d="M23.158 19.9055C22.9977 19.956 22.8372 20.0045 22.6762 20.0509C22.633 20.0635 22.5947 20.0852 22.5519 20.0954C22.4965 20.1088 22.4414 20.1244 22.3863 20.1421C22.3315 20.1597 22.2762 20.1765 22.2198 20.1929C22.1553 20.2119 22.092 20.2345 22.0303 20.2611" stroke="#00279F" stroke-width="0.0444329"/>
<path d="M22.0305 20.2601L21.7871 20.1409" stroke="#001D82" stroke-width="0.0444329"/>
<path d="M21.7866 20.1413C21.7857 19.6689 21.7872 19.1905 21.791 18.7065C21.7921 18.5666 21.7495 18.4436 21.6633 18.3373C21.4248 18.0429 20.9471 18.0808 20.7682 18.4227C20.7237 18.5077 20.7016 18.5879 20.7018 18.6639C20.7022 18.9478 20.702 19.2471 20.7012 19.5616" stroke="#8091D3" stroke-width="0.0444329"/>
<path d="M20.7021 19.5608L19.9492 19.175" stroke="#001D82" stroke-width="0.0444329"/>
<path d="M22.0303 20.2605C22.8917 20.7116 23.7512 21.1605 24.6088 21.6069C24.7325 21.6714 24.8102 21.7129 24.8415 21.7315C25.0286 21.842 25.2034 21.9846 25.3663 22.1592C25.7434 22.5637 25.9918 23.0383 26.1117 23.5827" stroke="#00227B" stroke-width="0.0444329"/>
<path d="M26.1118 23.5819C25.5597 23.3348 24.8963 23.4512 24.515 23.9345C24.1856 24.352 24.4232 24.9756 24.8442 25.2134C25.2018 25.4153 25.6021 25.4372 25.993 25.3269" stroke="#808CAF" stroke-width="0.0444329"/>
<path d="M25.993 25.3284C25.8561 26.1455 25.7192 26.9614 25.5828 27.7762C25.5808 27.7868 25.5708 27.7949 25.5527 27.8006" stroke="#00227B" stroke-width="0.0444329"/>
<path d="M25.5528 27.7998L20.877 25.3447" stroke="#001D82" stroke-width="0.0444329"/>
<path d="M20.8772 25.345C20.9419 25.344 21.0437 25.3269 21.0741 25.262C21.0837 25.2414 21.0878 25.2113 21.0863 25.1724C21.0775 24.9461 21.076 24.7689 21.0816 24.6414C21.0956 24.3148 21.1003 23.9886 21.0958 23.6631C21.0952 23.6075 21.0805 23.5666 21.0322 23.5385C20.9383 23.4845 20.841 23.4815 20.7399 23.5296C20.6607 23.5673 20.6613 23.6829 20.6622 23.7576C20.6641 23.8973 20.669 24.0331 20.6773 24.1651C20.6871 24.3231 20.676 24.4717 20.6815 24.6284C20.683 24.6703 20.6754 24.7074 20.6588 24.7395C20.6249 24.8058 20.5789 24.8615 20.521 24.9067C20.4395 24.9703 20.3524 25.0133 20.2598 25.0359" stroke="#808CAF" stroke-width="0.0444329"/>
<path d="M20.2593 25.0364L19.4453 24.6106" stroke="#001D82" stroke-width="0.0444329"/>
<path d="M19.4458 24.6089C19.4299 24.4435 19.425 24.2677 19.4311 24.0814C19.436 23.9385 19.4377 23.798 19.4362 23.6598C19.4356 23.6157 19.4164 23.5702 19.379 23.5465C19.2749 23.4808 19.1693 23.4799 19.062 23.5442C19.0298 23.5636 19.0126 23.5898 19.0102 23.6232C19.0023 23.7341 19.0008 23.8491 19.0057 23.9681C19.0115 24.1039 19.0102 24.2372 19.0115 24.3758" stroke="#808CAF" stroke-width="0.0444329"/>
<path d="M19.0117 24.3769L18.3691 24.0454" stroke="#001D82" stroke-width="0.0444329"/>
<path d="M18.3688 24.0455C18.3554 23.8743 18.3554 23.6976 18.3688 23.5154C18.3771 23.4032 18.3803 23.3089 18.3784 23.2326C18.3763 23.1409 18.3788 23.0363 18.3861 22.919C18.391 22.8409 18.3701 22.787 18.3239 22.757C18.2579 22.7142 18.1845 22.6993 18.1038 22.7123C17.9313 22.7402 17.9511 22.8624 17.9507 22.994C17.9503 23.1511 17.9515 23.3082 17.9547 23.4651C17.9571 23.581 17.9575 23.7017 17.9564 23.8273" stroke="#808CAF" stroke-width="0.0444329"/>
<path d="M17.9566 23.8278L17.709 23.696" stroke="#001D82" stroke-width="0.0444329"/>
<path d="M17.7076 23.694C17.7095 23.7003 17.705 23.6977 17.6943 23.686" stroke="#002F89" stroke-width="0.0444329"/>
<path d="M17.6951 23.6881C17.5833 23.4762 17.5033 23.2533 17.455 23.0189C17.3513 22.516 17.373 22.0131 17.5197 21.5103" stroke="#002366" stroke-width="0.0444329"/>
<path d="M30.9605 17.46C30.9552 17.4632 30.9509 17.4687 30.9475 17.4766C30.9447 17.4825 30.9403 17.4866 30.9341 17.4885L29.3682 17.9716" stroke="#0034E3" stroke-width="0.0444329"/>
<path d="M29.3681 17.9724C29.3555 17.9137 29.3434 17.8553 29.3315 17.7976C29.2197 17.2536 28.9887 16.775 28.6387 16.3616C27.9346 15.5293 26.8882 15.0929 25.8038 15.2014C25.1451 15.2674 24.5509 15.5161 24.0212 15.9477C23.7514 16.1672 23.5259 16.4746 23.2142 16.6628C22.995 16.7953 22.8116 16.7339 22.6603 16.5415C22.5289 16.3743 22.4137 16.1644 22.3105 15.9528C22.2855 15.9015 22.2557 15.8529 22.2215 15.8072C22.1535 15.7167 22.0748 15.6392 21.9854 15.5751" stroke="#8095F4" stroke-width="0.0444329"/>
<path d="M25.8778 10.7542L25.8707 10.7754C25.869 10.7803 25.8658 10.7837 25.8612 10.7857C25.493 10.9341 25.1831 11.1374 24.9314 11.3954C24.8594 11.4693 24.7687 11.5794 24.6595 11.7256C23.7476 12.9469 22.8347 14.1681 21.9209 15.3893" stroke="#0045EB" stroke-width="0.0444329"/>
<path d="M29.3681 17.9712C29.4786 18.8377 29.2957 19.6206 28.8198 20.32C28.6052 20.6351 28.314 20.9338 28.0091 21.148C27.2841 21.6572 26.4715 21.8412 25.5713 21.6996" stroke="#809FEF" stroke-width="0.0444329"/>
<path d="M25.5717 21.701C24.9913 21.5956 24.4759 21.3546 24.0254 20.9777C23.7835 20.7757 23.5889 20.5619 23.4418 20.3364C23.3475 20.1923 23.2529 20.0488 23.1582 19.9055" stroke="#8095CB" stroke-width="0.0444329"/>
<path d="M23.1576 19.9044C22.9628 19.4641 22.8625 18.9798 22.8448 18.5048C22.8367 18.2865 22.8327 18.0981 22.7671 17.9039C22.6732 17.6261 22.4931 17.4758 22.2263 17.4534C22.0279 17.4366 21.8216 17.496 21.6372 17.5663C21.5697 17.592 21.502 17.6099 21.4341 17.6199C21.0645 17.6746 20.7473 17.5716 20.4824 17.3108" stroke="#8091D3" stroke-width="0.0444329"/>
<path d="M17.7083 23.696C17.7043 23.7052 17.7041 23.7124 17.7073 23.7182C17.7809 23.8461 17.8687 23.9741 17.9702 24.1018" stroke="#0034AD" stroke-width="0.0444329"/>
<path d="M18.3916 24.7085C20.46 27.634 21.8013 29.533 22.416 30.4055C22.4198 30.411 22.4221 30.4225 22.423 30.4402" stroke="#0034AD" stroke-width="0.0444329"/>
<path d="M13.2451 23.6381C13.3122 23.5732 13.3797 23.5097 13.4472 23.448C13.6115 23.2975 13.7972 23.1738 14.0043 23.0769" stroke="#003A91" stroke-width="0.0444329"/>
<path d="M14.3665 22.9287C14.4691 23.0066 14.5421 23.0861 14.5854 23.1667C14.6624 23.3102 14.6795 23.4891 14.4706 23.5197C14.3893 23.5317 14.2605 23.4976 14.2419 23.4009C14.2317 23.3475 14.2226 23.2973 14.1949 23.2491C14.1497 23.1706 14.0861 23.1131 14.0039 23.0767" stroke="#80A3D9" stroke-width="0.0444329"/>
<path d="M14.0041 23.077C13.8604 23.0122 13.668 22.9967 13.52 23.0042C13.3507 23.0129 13.0933 23.1149 13.0554 23.3009C13.0248 23.4515 13.124 23.5662 13.2449 23.6382" stroke="#8097B7" stroke-width="0.0444329"/>
<path d="M13.2451 23.6384C13.3109 23.6821 13.3624 23.7083 13.3996 23.717C13.6515 23.7751 13.9032 23.852 14.1546 23.9471C14.4046 24.0417 14.5947 24.182 14.6937 24.4392C14.7852 24.6772 14.6833 24.9604 14.495 25.1122C14.4201 25.1724 14.332 25.2156 14.2406 25.2472C14.019 25.3236 13.7718 25.3528 13.4991 25.3344C13.205 25.3146 12.9436 25.2133 12.7147 25.0304C12.5719 24.9161 12.4426 24.7262 12.456 24.5407C12.4643 24.4249 12.6078 24.3866 12.7045 24.4034C12.7912 24.4185 12.8446 24.4683 12.8652 24.5531C12.8825 24.624 12.9106 24.6976 12.9651 24.7481C12.9881 24.7696 13.0098 24.7924 13.0302 24.8169C13.1288 24.9357 13.2853 24.9789 13.4348 24.9985C13.6394 25.0255 13.828 25.0168 14.0011 24.9727C14.1959 24.9229 14.343 24.7775 14.3139 24.5678C14.2798 24.3233 13.9683 24.1939 13.7643 24.1385C13.6096 24.0966 13.4633 24.0538 13.3258 24.0102C13.2074 23.9725 13.1003 23.9273 13.0043 23.8743" stroke="#80A3D9" stroke-width="0.0444329"/>
<path d="M21.7866 20.142C21.7857 20.4786 21.7859 20.8093 21.787 21.1344C21.7874 21.294 21.734 21.4265 21.6267 21.5316C21.3399 21.8125 20.8555 21.7052 20.7267 21.3098C20.7097 21.2574 20.7012 21.1435 20.7014 20.9683C20.702 20.4873 20.702 20.0187 20.7012 19.5623" stroke="#808CAF" stroke-width="0.0444329"/>
<path d="M27.3208 28.9218C27.1558 28.7238 26.9656 28.5599 26.7508 28.43C26.7225 28.413 26.5975 28.3461 26.3757 28.2292C26.1147 28.0919 25.8528 27.9554 25.5898 27.8198" stroke="#0035BB" stroke-width="0.0444329"/>
<path d="M25.5896 27.8193C25.5725 27.7956 25.5602 27.789 25.5527 27.7995" stroke="#00279F" stroke-width="0.0444329"/>
<path d="M25.9932 25.3287C26.3824 25.208 26.6385 24.9383 26.683 24.5214C26.7147 24.2237 26.5638 23.9063 26.3264 23.7234C26.2674 23.6778 26.1959 23.6312 26.112 23.5837" stroke="#8095CB" stroke-width="0.0444329"/>
<path d="M18.3691 24.0454L18.3923 24.7088" stroke="#8091D3" stroke-width="0.0444329"/>
<path d="M18.3917 24.709C18.3876 24.8582 18.3866 24.997 18.3887 25.1258C18.393 25.3783 17.9733 25.3553 17.9565 25.1731C17.9448 25.0492 17.9478 24.921 17.9614 24.7956C17.9748 24.6698 17.9774 24.5412 17.9688 24.4098C17.9657 24.3606 17.9654 24.3093 17.9678 24.2559C17.9703 24.199 17.9712 24.1475 17.9703 24.1013" stroke="#80A3D9" stroke-width="0.0444329"/>
<path d="M17.9703 24.1004L17.9561 23.8264" stroke="#8091D3" stroke-width="0.0444329"/>
<path d="M25.5898 27.8198C25.5796 27.8207 25.5741 27.8232 25.5734 27.8275C25.4749 28.4008 25.3771 28.9765 25.2803 29.5546" stroke="#0030C2" stroke-width="0.0444329"/>
<path d="M19.4453 24.6106C19.4762 24.7837 19.5671 24.9072 19.718 24.9811C19.8897 25.0654 20.07 25.0839 20.2593 25.0364" stroke="#8091D3" stroke-width="0.0444329"/>
<path d="M20.8764 25.345C20.8226 25.3378 20.784 25.3282 20.7608 25.3161C20.7074 25.2882 20.6874 25.2452 20.701 25.1866C20.7076 25.1575 20.6993 25.1524 20.6759 25.1709C20.5413 25.2771 20.3838 25.3648 20.2086 25.3787C19.9963 25.3955 19.7876 25.3665 19.5828 25.2918C19.4138 25.2301 19.285 25.1349 19.1779 24.9942C19.0887 24.8771 19.0374 24.7444 19.0244 24.5962C19.0171 24.5147 19.0127 24.4415 19.0107 24.377" stroke="#8091D3" stroke-width="0.0444329"/>
<path d="M30.905 21.573C29.7638 21.7401 28.6242 21.9083 27.4862 22.0772C27.2943 22.1057 27.1532 22.1214 27.0631 22.1244C26.5451 22.1412 26.0256 21.9954 25.5843 21.7357C25.5785 21.7323 25.5747 21.7265 25.5738 21.7201L25.5713 21.7007" stroke="#0035BB" stroke-width="0.0444329"/>
<path d="M15.8984 15.4348V17.0599" stroke="#8097B7" stroke-width="0.0444329"/>
<path d="M15.8984 17.0593L15.9004 17.4449C15.9004 17.4519 15.904 17.4555 15.911 17.4558C16.1148 17.4602 16.3277 17.4423 16.5497 17.4021" stroke="#808E98" stroke-width="0.0444329"/>
<path d="M16.5498 17.4014C16.7533 17.3727 16.9569 17.3063 17.1604 17.2021" stroke="#8097B7" stroke-width="0.0444329"/>
<path d="M17.1605 17.2036C17.4646 17.0333 17.6583 16.7878 17.7416 16.4674C17.8167 16.1783 17.8169 15.8263 17.7426 15.5393C17.6136 15.0424 17.2291 14.7188 16.7252 14.6298C16.4614 14.5832 16.1899 14.5638 15.9106 14.5715C15.9025 14.5717 15.8984 14.5759 15.8984 14.584L15.8989 15.435" stroke="#8090C3" stroke-width="0.0444329"/>
<path d="M17.1601 17.2034C17.1293 17.1662 17.1005 17.1281 17.0743 17.0895C17.0428 17.0433 17.0153 17.0046 16.9919 16.9733C16.9229 16.8815 16.8689 16.7889 16.8014 16.6946C16.6449 16.4764 16.491 16.2609 16.3392 16.048C16.2353 15.9021 16.1567 15.7893 16.1033 15.7099C16.0407 15.6166 15.9723 15.5249 15.8984 15.4348" stroke="#00287B" stroke-width="0.0444329"/>
<path d="M16.5497 17.4021L15.8984 17.0593" stroke="#002650" stroke-width="0.0444329"/>
<path d="M16.043 20.9736C16.1541 21.069 16.2848 21.1043 16.4253 21.1096C16.6674 21.1188 16.892 21.0873 17.0994 21.0155C17.8197 20.766 18.1337 19.9849 18.0268 19.2659" stroke="#8097B7" stroke-width="0.0444329"/>
<path d="M18.0275 19.2662C17.9988 19.0462 17.933 18.8431 17.83 18.6566C17.6351 18.3045 17.3396 18.0824 16.9434 17.9906C16.6498 17.9227 16.3062 17.8921 15.9121 17.8982C15.9032 17.8982 15.8987 17.9029 15.8987 17.9119C15.8993 18.7722 15.8976 19.6428 15.8936 20.5234C15.8931 20.6158 15.9012 20.6916 15.9176 20.7508C15.9421 20.8391 15.9843 20.9134 16.0437 20.9739" stroke="#808E98" stroke-width="0.0444329"/>
<path d="M18.0268 19.2659C17.9764 19.3606 17.9251 19.4558 17.8733 19.551C17.7064 19.8584 17.4924 20.1284 17.2314 20.3611C16.9663 20.5972 16.6755 20.7656 16.3589 20.8667C16.1948 20.9191 16.0896 20.9546 16.043 20.9736" stroke="#002650" stroke-width="0.0444329"/>
<path d="M20.8467 16.8304C20.9887 17.0286 21.1814 17.0971 21.4249 17.0356C21.5725 16.9983 21.6945 16.9281 21.7913 16.825C21.9979 16.6051 21.8635 16.3294 21.7004 16.1282C21.6421 16.056 21.5708 16.0028 21.4865 15.9685" stroke="#8091D3" stroke-width="0.0444329"/>
<path d="M21.486 15.9679C21.384 15.9338 21.2784 15.9342 21.1692 15.9691C20.942 16.042 20.7284 16.2174 20.7325 16.471C20.7344 16.5955 20.7723 16.7152 20.8462 16.8297" stroke="#809DDC" stroke-width="0.0444329"/>
<path d="M21.4865 15.9685L20.8467 16.8304" stroke="#002FB0" stroke-width="0.0444329"/>
<path d="M24.46 19.4807C24.5673 19.6503 24.6997 19.7996 24.8572 19.9282C25.47 20.4281 26.3648 20.5292 27.0536 20.1119C27.6766 19.7347 28.0713 19.1472 28.027 18.3936" stroke="#809FEF" stroke-width="0.0444329"/>
<path d="M28.0265 18.393C28.008 18.1747 27.9545 17.9529 27.8666 17.7274C27.7109 17.3284 27.4555 17.0251 27.1003 16.8173C25.881 16.1034 24.3638 16.8581 24.1888 18.2539C24.1352 18.6806 24.2254 19.0894 24.4594 19.4801" stroke="#8095F4" stroke-width="0.0444329"/>
<path d="M28.0272 18.392L27.3895 18.5853C27.3829 18.5872 27.3759 18.5836 27.3738 18.5772C27.3734 18.5757 27.3731 18.5742 27.3734 18.5725C27.3766 18.5316 27.378 18.4948 27.3774 18.4618C27.3766 18.4192 27.3744 18.3732 27.3712 18.3236C27.3693 18.2972 27.3657 18.2719 27.3599 18.2478C27.3444 18.1818 27.3359 18.1173 27.3131 18.0526C27.2307 17.819 27.0913 17.6251 26.8945 17.4707" stroke="#0034E3" stroke-width="0.0444329"/>
<path d="M26.8946 17.4716C26.8213 17.4135 26.7415 17.3651 26.6553 17.3262" stroke="#0045EB" stroke-width="0.0444329"/>
<path d="M26.6554 17.3254C26.4825 17.2439 26.2992 17.2043 26.1052 17.2066C25.8436 17.2098 25.6049 17.2884 25.3896 17.4423" stroke="#0061F2" stroke-width="0.0444329"/>
<path d="M25.3895 17.4429C25.2377 17.5491 25.1187 17.6813 25.0322 17.8391C24.8148 18.2359 24.8061 18.6411 25.0056 19.0548C25.0256 19.0963 25.0763 19.1704 25.1578 19.2771" stroke="#0045EB" stroke-width="0.0444329"/>
<path d="M25.1577 19.2776C24.9207 19.3574 24.6882 19.4251 24.46 19.4803" stroke="#0034E3" stroke-width="0.0444329"/>
<path d="M26.6556 17.3262L26.6622 17.3406C26.6651 17.3475 26.6634 17.3528 26.6568 17.3564C26.6447 17.363 26.6389 17.3732 26.6396 17.3871C26.6413 17.4269 26.6347 17.4643 26.6198 17.4991C26.6085 17.5252 26.6028 17.5531 26.6025 17.5823C26.6025 17.5893 26.6051 17.5953 26.6102 17.6002L26.7782 17.7577" stroke="#007BF5" stroke-width="0.0444329"/>
<path d="M26.7773 17.7593C26.8274 17.8136 26.8719 17.8717 26.9113 17.9332C27.124 18.2677 27.1812 18.6309 27.0829 19.0227C27.0818 19.0267 27.0822 19.0297 27.0841 19.0318C27.0858 19.034 27.0884 19.0363 27.0918 19.0391" stroke="#006BED" stroke-width="0.0444329"/>
<path d="M27.0919 19.0376L27.0159 19.1977C27.0132 19.2037 27.0081 19.2081 27.0021 19.2103C26.9653 19.2241 26.9278 19.2382 26.8901 19.252C26.865 19.2611 26.8384 19.2675 26.8105 19.2707C26.7775 19.2744 26.7509 19.2786 26.7306 19.2833C26.69 19.2927 26.6489 19.2986 26.6072 19.301C26.5997 19.3014 26.5937 19.2986 26.5893 19.2927C26.585 19.2869 26.5848 19.2801 26.5888 19.2726" stroke="#007BF5" stroke-width="0.0444329"/>
<path d="M26.5889 19.2722C26.5968 19.2679 26.6038 19.2626 26.6095 19.2559" stroke="#006FD8" stroke-width="0.0444329"/>
<path d="M26.6104 19.2554C26.6736 19.246 26.7334 19.2298 26.79 19.2066C26.8081 19.1992 26.8194 19.1866 26.8243 19.1689C26.9033 18.876 26.888 18.5909 26.7783 18.3135" stroke="#007BF5" stroke-width="0.0444329"/>
<path d="M26.7788 18.3141C26.742 18.187 26.6777 18.0769 26.5859 17.9839" stroke="#0061F2" stroke-width="0.0444329"/>
<path d="M26.586 17.9832C26.5768 17.9547 26.5604 17.9311 26.537 17.9121C26.5053 17.8864 26.4844 17.868 26.4748 17.8572C26.4542 17.8336 26.4316 17.8118 26.4073 17.792C26.3892 17.7771 26.3722 17.7797 26.3554 17.7627C26.3471 17.7541 26.3379 17.7465 26.3275 17.7397C26.2949 17.7177 26.2624 17.6926 26.2298 17.6643C26.1981 17.6368 26.1631 17.6143 26.1246 17.597C26.0867 17.5798 26.045 17.5619 25.9992 17.5431C25.9321 17.5155 25.8627 17.4957 25.791 17.484C25.7827 17.4825 25.7746 17.484 25.7669 17.4878C25.7456 17.4987 25.7239 17.4961 25.7018 17.4801C25.6937 17.4744 25.6837 17.472 25.6739 17.4737C25.6588 17.4765 25.6439 17.475 25.6292 17.4688C25.5881 17.4522 25.5419 17.4522 25.4982 17.4473C25.4916 17.4467 25.4852 17.4478 25.4791 17.4507C25.4469 17.4671 25.4171 17.4644 25.3896 17.4429" stroke="#007BF5" stroke-width="0.0444329"/>
<path d="M26.894 17.4707L26.7773 17.7568" stroke="#004FE6" stroke-width="0.0444329"/>
<path d="M26.1973 19.2839C26.2875 19.2963 26.384 19.2969 26.4864 19.2856" stroke="#0042C9" stroke-width="0.0444329"/>
<path d="M26.4858 19.2866C26.5033 19.3047 26.5218 19.3103 26.5412 19.3034C26.578 19.2902 26.5874 19.3011 26.5693 19.3358C26.5416 19.3888 26.5108 19.4423 26.4767 19.4961C26.4709 19.5053 26.4733 19.5115 26.4839 19.5142C26.5191 19.5236 26.5546 19.531 26.5906 19.5364C26.6298 19.5423 26.7007 19.5775 26.7537 19.5574C26.8105 19.5361 26.8582 19.4925 26.8965 19.4263" stroke="#004FE6" stroke-width="0.0444329"/>
<path d="M26.8965 19.425C26.8937 19.4325 26.8939 19.4391 26.8971 19.4448C26.8988 19.4482 26.9031 19.4495 26.9067 19.4478C26.9071 19.4476 26.9075 19.4474 26.908 19.4469C27.0125 19.3629 27.1023 19.2668 27.1775 19.1593C27.182 19.1529 27.1835 19.1448 27.1815 19.1374C27.1807 19.1342 27.1747 19.1331 27.1637 19.1342" stroke="#0034E3" stroke-width="0.0444329"/>
<path d="M27.1635 19.1343C27.1876 19.1247 27.2055 19.1094 27.2168 19.0888C27.2591 19.0119 27.2928 18.9399 27.3175 18.8729C27.3354 18.8245 27.3275 18.8199 27.2938 18.859C27.2421 18.9189 27.1748 18.9783 27.0918 19.0372" stroke="#004FE6" stroke-width="0.0444329"/>
<path d="M26.5859 17.9834C26.5574 17.967 26.531 17.95 26.5069 17.9325C26.3146 17.7931 26.1043 17.7641 25.8761 17.8457C25.756 17.8885 25.6525 17.9732 25.5654 18.0999" stroke="#0045EB" stroke-width="0.0444329"/>
<path d="M25.5646 18.099C25.5471 18.095 25.5452 18.0664 25.5586 18.0134C25.5778 17.938 25.5955 17.8623 25.6116 17.7862C25.614 17.7754 25.6072 17.7647 25.5963 17.7624C25.5923 17.7615 25.588 17.762 25.5844 17.7635C25.5322 17.7845 25.483 17.7994 25.4368 17.8077C25.4296 17.809 25.4239 17.8126 25.4194 17.8186C25.4156 17.8237 25.4094 17.8267 25.4028 17.8265C25.3898 17.8263 25.3781 17.8307 25.3681 17.8399C25.3623 17.8452 25.3555 17.8486 25.3476 17.8503C25.3253 17.8548 25.3044 17.8563 25.2838 17.8678C25.2567 17.8829 25.2286 17.8959 25.1997 17.9067C25.1739 17.9163 25.1611 17.9308 25.1611 17.9595C25.1618 18.1673 25.2088 18.366 25.3027 18.5553C25.3945 18.7407 25.5244 18.8993 25.6923 19.0309C25.7462 19.0731 25.8096 19.1022 25.8669 19.1388C25.8744 19.1437 25.8825 19.1467 25.8908 19.1482C25.8969 19.1493 25.9023 19.1518 25.9069 19.1559C25.9259 19.1723 25.9465 19.184 25.9693 19.191C26.0059 19.2023 26.0277 19.2093 26.0345 19.2125C26.0845 19.2357 26.1384 19.2591 26.1963 19.2832" stroke="#0053D0" stroke-width="0.0444329"/>
<path d="M26.1964 19.2844C26.1538 19.2795 26.1217 19.278 26.1 19.2797C26.081 19.2812 26.0808 19.2842 26.0993 19.2889L26.1253 19.2957C26.1347 19.298 26.1392 19.3042 26.1389 19.314C26.1387 19.3238 26.1417 19.3325 26.1483 19.34C26.1534 19.3459 26.1543 19.3525 26.1506 19.3598C26.1449 19.3713 26.1389 19.384 26.1328 19.3981C26.1321 19.3992 26.1315 19.3998 26.1304 19.4004C26.1279 19.4017 26.126 19.4015 26.1245 19.4C26.1189 19.3947 26.1145 19.3953 26.1113 19.4024C26.1053 19.4151 26.0955 19.4202 26.0817 19.4177C26.0738 19.4162 26.0666 19.4177 26.0597 19.4215C26.0404 19.4326 26.0199 19.4362 25.9988 19.4324C25.992 19.4311 25.9895 19.4339 25.9914 19.4405C25.9986 19.4654 26.0152 19.4779 26.0412 19.4781C26.048 19.4781 26.0536 19.4837 26.0536 19.4905C26.0536 19.4935 26.0525 19.4965 26.0506 19.4986C26.034 19.5177 26.0135 19.5252 25.9891 19.5212C25.9524 19.515 25.9158 19.5097 25.879 19.5052C25.8551 19.5022 25.8319 19.4965 25.8091 19.4877C25.7881 19.4796 25.7659 19.4737 25.7429 19.4696C25.6358 19.4511 25.5232 19.4222 25.4051 19.3828C25.3637 19.3691 25.3207 19.357 25.276 19.3464C25.2737 19.3457 25.2724 19.3442 25.2722 19.3419C25.2722 19.341 25.2718 19.3402 25.2713 19.3393C25.2705 19.3378 25.2692 19.337 25.2675 19.3368C25.2379 19.3338 25.2128 19.3234 25.1917 19.3057C25.1953 19.307 25.1966 19.3091 25.196 19.3121C25.1949 19.317 25.1926 19.3176 25.1892 19.3138L25.1572 19.2776" stroke="#004FE6" stroke-width="0.0444329"/>
<path d="M26.705 18.8149C26.7007 18.8175 26.7001 18.8124 26.7028 18.7996" stroke="#004FE6" stroke-width="0.0444329"/>
<path d="M26.7789 18.3135C26.803 18.4996 26.7776 18.6616 26.7031 18.7993" stroke="#0045EB" stroke-width="0.0444329"/>
<path d="M26.7027 18.7996L25.8291 19.0676" stroke="#0034E3" stroke-width="0.0444329"/>
<path d="M27.1637 19.1355L27.0319 19.2015C27.0257 19.2047 27.021 19.2092 27.0176 19.2149L26.8965 19.4263" stroke="#0045EB" stroke-width="0.0444329"/>
<path d="M25.5653 18.0996C25.4652 18.2608 25.4346 18.4328 25.4731 18.6157C25.5129 18.805 25.6317 18.9555 25.8293 19.0673" stroke="#0038CE" stroke-width="0.0444329"/>
<path d="M25.8291 19.0671C25.9313 19.1184 26.0373 19.1408 26.1472 19.1344C26.2609 19.1278 26.3767 19.088 26.4944 19.015C26.5756 18.9647 26.6409 18.8991 26.6907 18.8182C26.6922 18.8157 26.6971 18.8146 26.705 18.815" stroke="#0042C9" stroke-width="0.0444329"/>
<path d="M26.7049 18.8157C26.7102 18.8399 26.7115 18.8621 26.7087 18.8823C26.6927 19.0045 26.66 19.1291 26.6104 19.2558" stroke="#0053D0" stroke-width="0.0444329"/>
<path d="M26.5884 19.2729L26.4854 19.2861" stroke="#0053D0" stroke-width="0.0444329"/>
<path d="M23.5551 23.1455C23.6416 23.1791 23.7504 23.184 23.8309 23.1287C23.9194 23.0678 23.9456 22.9635 23.9032 22.8651C23.8045 22.6367 23.5577 22.6656 23.4449 22.8557C23.3656 22.9892 23.4025 23.0857 23.5551 23.1455Z" stroke="#808CAF" stroke-width="0.0444329"/>
<path d="M22.5312 23.9015C22.6587 23.9058 22.8001 23.9175 22.9346 23.9045C23.0883 23.8898 23.0935 23.6743 22.9783 23.6205C22.9457 23.6051 22.9057 23.5985 22.8578 23.6007C22.7341 23.606 22.6178 23.6071 22.509 23.6039C22.5016 23.6039 22.4977 23.6 22.4971 23.5926C22.4933 23.5506 22.4922 23.5091 22.4937 23.468C22.4999 23.3137 22.508 23.1548 22.518 22.9913C22.5248 22.8789 22.5227 22.7646 22.3945 22.7224C22.3021 22.6922 22.1384 22.7105 22.106 22.8242C22.0798 22.9166 22.0738 23.0056 22.0877 23.091C22.0968 23.1482 22.1009 23.2004 22.0996 23.247C22.0962 23.3648 22.0951 23.4812 22.0966 23.5966C22.0966 23.6045 22.093 23.6081 22.0851 23.6079C22.0053 23.6058 21.9214 23.6041 21.8337 23.6028C21.7526 23.6015 21.7076 23.6019 21.6987 23.6039C21.5978 23.6277 21.5269 23.7171 21.5671 23.8187C21.5963 23.8923 21.6666 23.9107 21.7387 23.9077C21.8471 23.903 21.9623 23.9009 22.0843 23.9013C22.0922 23.9013 22.0958 23.9051 22.0951 23.913C22.0764 24.1523 22.099 24.3882 22.1092 24.6277C22.1154 24.771 22.11 24.9477 22.0932 25.1579C22.09 25.1958 22.0998 25.2364 22.133 25.2581C22.2235 25.3178 22.3215 25.3244 22.4268 25.2779C22.5271 25.2339 22.519 25.1242 22.5139 25.0346C22.5039 24.8532 22.4924 24.6778 22.4977 24.4974C22.5031 24.3156 22.5043 24.1263 22.502 23.9298C22.5018 23.9102 22.5114 23.9009 22.5312 23.9015Z" stroke="#808CAF" stroke-width="0.0444329"/>
<path d="M23.5836 23.4893C23.504 23.5187 23.461 23.5836 23.4546 23.6841C23.4484 23.7816 23.4531 23.8885 23.4686 24.005C23.4761 24.0614 23.4786 24.1221 23.4763 24.1872C23.4733 24.269 23.4731 24.3501 23.4759 24.4308C23.4803 24.5668 23.4729 24.7489 23.4535 24.9771C23.4476 25.045 23.4444 25.1366 23.4678 25.1996C23.5104 25.3141 23.6854 25.3265 23.7848 25.2894C23.9006 25.2462 23.8947 25.1553 23.8953 25.0314C23.8962 24.8904 23.8985 24.7561 23.8878 24.6194C23.8659 24.3356 23.8663 24.0331 23.8891 23.7114C23.9025 23.524 23.7465 23.4295 23.5836 23.4893Z" stroke="#808CAF" stroke-width="0.0444329"/>
<path d="M27.7009 23.7616C27.7018 23.6841 27.7161 23.594 27.6388 23.5508C27.5119 23.4797 27.2947 23.5191 27.2792 23.6958C27.2738 23.7563 27.273 23.8155 27.2764 23.8732C27.2998 24.2783 27.2981 24.6526 27.2715 24.9958C27.2655 25.0748 27.2611 25.2396 27.3379 25.2915C27.411 25.3409 27.4897 25.352 27.5747 25.3245C27.6437 25.3022 27.6839 25.2615 27.6954 25.2028C27.7099 25.1285 27.7131 25.048 27.7052 24.9615C27.6873 24.7646 27.6992 24.5568 27.6952 24.3609C27.6943 24.3183 27.7028 24.2787 27.7205 24.2419C27.8219 24.0301 28.0282 23.9262 28.2532 23.9015C28.5638 23.8676 28.8802 24.0096 28.9684 24.3239C28.995 24.4188 28.9848 24.5291 28.986 24.6305C28.9871 24.7058 28.9831 24.7821 28.9735 24.8589C28.9588 24.9775 28.9554 25.0906 28.9635 25.1981C28.9671 25.2443 28.9869 25.2783 29.0229 25.2998C29.1619 25.3827 29.3935 25.338 29.4027 25.1455C29.4097 25.003 29.4044 24.8572 29.3867 24.7077C29.381 24.6577 29.3795 24.6083 29.3823 24.5594C29.3961 24.31 29.3657 24.0839 29.194 23.8889C29.0755 23.7541 28.93 23.6594 28.7574 23.6047C28.5941 23.5529 28.4325 23.5304 28.2726 23.537C28.078 23.5451 27.8759 23.6309 27.7152 23.7684C27.7056 23.7767 27.7007 23.7744 27.7009 23.7616Z" stroke="#8095CB" stroke-width="0.0444329"/>
<path d="M17.3667 24.1069C17.1925 23.69 16.759 23.4699 16.323 23.4592C15.9668 23.4505 15.6632 23.5561 15.412 23.776C15.2591 23.9098 15.132 24.0954 15.1156 24.2945C15.0865 24.6445 15.2515 24.9986 15.547 25.1855C15.8817 25.3971 16.2726 25.438 16.6575 25.3494C16.9696 25.2775 17.2464 25.0942 17.3667 24.7916C17.4597 24.5576 17.4597 24.3294 17.3667 24.1069Z" stroke="#80A3D9" stroke-width="0.0444329"/>
<path d="M16.9411 24.0793C16.7097 23.778 16.2255 23.6454 15.8876 23.8385C15.5934 24.0067 15.4067 24.3461 15.5527 24.675C15.7047 25.0178 16.1063 25.1255 16.4488 25.0855C16.6083 25.067 16.7865 25.0178 16.8951 24.9009C17.0079 24.7796 17.0656 24.6271 17.068 24.4436C17.0697 24.3133 17.0273 24.1919 16.9411 24.0793Z" stroke="#80A3D9" stroke-width="0.0444329"/>
<path d="M26.0645 24.9708C26.2248 24.8433 26.3093 24.6785 26.3178 24.476C26.324 24.3248 26.2784 24.1888 26.1811 24.0679" stroke="#8095CB" stroke-width="0.0444329"/>
<path d="M26.1812 24.0683C26.0705 23.9318 25.9223 23.8373 25.7369 23.7847C25.4352 23.6993 25.1759 23.7632 24.9587 23.9765C24.5514 24.377 24.7873 24.9499 25.3059 25.063C25.5889 25.1245 25.8418 25.094 26.0645 24.9712" stroke="#808CAF" stroke-width="0.0444329"/>
<path d="M26.1811 24.0679L26.0645 24.9708" stroke="#00227B" stroke-width="0.0444329"/>
<path d="M14.9708 14.1354C15.611 14.1361 16.2527 14.1361 16.8963 14.1354C17.0643 14.1354 17.2898 14.1459 17.5723 14.1669C17.8057 14.1844 18.0369 14.224 18.266 14.2855C18.3462 14.3119 18.4271 14.3422 18.5087 14.3762C19.0673 14.6094 19.5074 15.1125 19.6098 15.7161C19.7793 16.7135 19.0588 17.2481 18.2306 17.5181L17.9475 17.6013C17.9245 17.6082 17.9247 17.6145 17.9479 17.6207L18.2249 17.6937C18.3605 17.7314 18.4978 17.7751 18.6368 17.8243C19.028 17.9629 19.3595 18.1419 19.6237 18.4619C19.7946 18.6791 19.9028 18.9173 19.9486 19.1764C20.0335 19.7634 19.8947 20.258 19.5321 20.6602C19.1478 21.0864 18.5713 21.3304 18.0139 21.4369C17.8408 21.4699 17.676 21.4943 17.5191 21.5099C17.2664 21.5293 17.0409 21.5388 16.8431 21.5388C15.9308 21.5388 15.0196 21.5388 14.1092 21.5386H13.1541C13.1464 21.5388 13.1426 21.535 13.1426 21.5273V21.3266C13.1428 21.3183 13.1468 21.3142 13.1549 21.3144C13.4498 21.3191 14.0396 21.274 14.1217 20.9029C14.1567 20.7456 14.1664 20.5582 14.1664 20.3891C14.1679 18.991 14.1681 17.593 14.1675 16.1953C14.1681 15.8843 14.1679 15.5736 14.1667 15.2634C14.166 15.1135 14.1611 15.0003 14.1515 14.9236C14.1192 14.6643 13.9891 14.4961 13.7611 14.4192C13.6925 14.396 13.6039 14.3801 13.4956 14.3709C13.368 14.3605 13.2546 14.3564 13.1551 14.359C13.1468 14.3592 13.1426 14.3552 13.1426 14.3469V14.1469C13.1426 14.1391 13.1466 14.135 13.1545 14.135H14.9708V14.1354ZM15.8984 15.4352V17.0603L15.9001 17.4459C15.9001 17.4529 15.9038 17.4566 15.9108 17.4568C16.1145 17.4613 16.3275 17.4434 16.5495 17.4031C16.7531 17.3744 16.9566 17.308 17.1601 17.2038C17.4642 17.0335 17.6579 16.788 17.7412 16.4676C17.8163 16.1785 17.8165 15.8266 17.7422 15.5396C17.6132 15.0426 17.2287 14.719 16.7247 14.63C16.4609 14.5834 16.1895 14.564 15.9102 14.5717C15.9021 14.5719 15.898 14.5762 15.898 14.5842L15.8984 15.4352ZM16.043 20.9753C16.1541 21.0707 16.2849 21.106 16.4254 21.1113C16.6675 21.1205 16.8921 21.089 17.0994 21.0172C17.8197 20.7677 18.1337 19.9865 18.0269 19.2676C17.9981 19.0476 17.9323 18.8445 17.8293 18.658C17.6345 18.3059 17.339 18.0838 16.9428 17.992C16.6492 17.9241 16.3055 17.8935 15.9114 17.8996C15.9025 17.8996 15.898 17.9043 15.898 17.9133C15.8987 18.7736 15.897 19.6442 15.8929 20.5248C15.8925 20.6172 15.9006 20.693 15.917 20.7522C15.9414 20.8405 15.9836 20.9148 16.043 20.9753Z" fill="white"/>
<path d="M29.368 17.9724C29.4785 18.8389 29.2956 19.6218 28.8198 20.3212C28.6052 20.6363 28.3139 20.935 28.009 21.1492C27.2841 21.6585 26.4714 21.8424 25.5713 21.7008C24.9909 21.5954 24.4754 21.3544 24.0249 20.9776C23.7831 20.7755 23.5885 20.5618 23.4413 20.3363C23.347 20.1922 23.2525 20.0487 23.1578 19.9054C22.9629 19.4651 22.8627 18.9807 22.845 18.5057C22.8369 18.2875 22.8329 18.0991 22.7673 17.9049C22.6734 17.6271 22.4933 17.4768 22.2265 17.4544C22.0281 17.4376 21.8218 17.497 21.6374 17.5673C21.5699 17.593 21.5022 17.6109 21.4343 17.6209C21.0647 17.6756 20.7474 17.5726 20.4826 17.3118C20.206 17.0062 20.1004 16.6328 20.1996 16.2404C20.298 15.8508 20.5993 15.5421 20.978 15.4271C21.3261 15.3217 21.6619 15.3709 21.9853 15.5751C22.0747 15.6392 22.1535 15.7167 22.2214 15.8072C22.2557 15.8529 22.2855 15.9015 22.3104 15.9528C22.4136 16.1644 22.5288 16.3743 22.6602 16.5415C22.8116 16.7339 22.9949 16.7953 23.2142 16.6628C23.5259 16.4746 23.7513 16.1672 24.0211 15.9477C24.5508 15.5161 25.145 15.2674 25.8038 15.2014C26.8881 15.0929 27.9345 15.5293 28.6386 16.3616C28.9886 16.775 29.2196 17.2536 29.3314 17.7976C29.3433 17.8553 29.3555 17.9137 29.368 17.9724ZM20.846 16.8302C20.988 17.0284 21.1807 17.0969 21.4243 17.0354C21.5718 16.9982 21.6938 16.9279 21.7907 16.8248C21.9972 16.6049 21.8629 16.3292 21.6998 16.128C21.6414 16.0558 21.5701 16.0026 21.4858 15.9683C21.3838 15.9343 21.2782 15.9347 21.169 15.9696C20.9418 16.0424 20.7283 16.2178 20.7323 16.4714C20.7342 16.596 20.7721 16.7156 20.846 16.8302ZM24.4595 19.4804C24.5668 19.6501 24.6992 19.7994 24.8567 19.928C25.4695 20.4279 26.3643 20.529 27.0531 20.1117C27.6761 19.7344 28.0708 19.147 28.0265 18.3933C28.008 18.1751 27.9545 17.9533 27.8666 17.7278C27.711 17.3288 27.4555 17.0254 27.1004 16.8176C25.881 16.1037 24.3639 16.8585 24.1889 18.2543C24.1352 18.681 24.2255 19.0897 24.4595 19.4804Z" fill="white"/>
<path d="M21.7866 20.1413C21.7857 20.4779 21.7859 20.8086 21.787 21.1337C21.7874 21.2933 21.734 21.4258 21.6267 21.5309C21.3399 21.8118 20.8555 21.7045 20.7267 21.3091C20.7097 21.2567 20.7012 21.1428 20.7014 20.9676C20.702 20.4866 20.702 20.018 20.7012 19.5616C20.702 19.2471 20.7022 18.9478 20.7018 18.6639C20.7018 18.5879 20.7237 18.5077 20.7682 18.4227C20.9471 18.0808 21.4248 18.0429 21.6633 18.3373C21.7495 18.4436 21.7921 18.5666 21.791 18.7065C21.7872 19.1905 21.7857 19.6689 21.7866 20.1413Z" fill="white"/>
<path d="M23.5551 23.1455C23.4025 23.0857 23.3656 22.9892 23.4449 22.8557C23.5577 22.6656 23.8045 22.6367 23.9032 22.8651C23.9456 22.9635 23.9194 23.0678 23.8309 23.1287C23.7504 23.184 23.6416 23.1791 23.5551 23.1455Z" fill="white"/>
<path d="M14.3669 22.9296C14.4695 23.0075 14.5425 23.0869 14.5857 23.1676C14.6628 23.3111 14.6798 23.4899 14.471 23.5206C14.3897 23.5325 14.2608 23.4985 14.2423 23.4018C14.2321 23.3484 14.223 23.2981 14.1953 23.25C14.1501 23.1714 14.0865 23.1139 14.0043 23.0775C13.8606 23.0128 13.6681 22.9973 13.5201 23.0047C13.3509 23.0135 13.0935 23.1154 13.0556 23.3015C13.0249 23.452 13.1241 23.5668 13.2451 23.6388C13.3109 23.6824 13.3624 23.7086 13.3996 23.7173C13.6515 23.7755 13.9032 23.8523 14.1546 23.9475C14.4046 24.042 14.5947 24.1823 14.6937 24.4395C14.7852 24.6775 14.6833 24.9607 14.495 25.1125C14.4201 25.1728 14.332 25.216 14.2406 25.2475C14.019 25.3239 13.7718 25.3531 13.4991 25.3348C13.205 25.315 12.9436 25.2136 12.7147 25.0307C12.5719 24.9164 12.4426 24.7265 12.456 24.5411C12.4643 24.4252 12.6078 24.3869 12.7045 24.4037C12.7912 24.4189 12.8446 24.4687 12.8652 24.5534C12.8825 24.6243 12.9106 24.698 12.9651 24.7484C12.9881 24.7699 13.0098 24.7927 13.0302 24.8172C13.1288 24.936 13.2853 24.9792 13.4348 24.9988C13.6394 25.0259 13.828 25.0171 14.0011 24.9731C14.1959 24.9232 14.343 24.7778 14.3139 24.5681C14.2798 24.3237 13.9683 24.1942 13.7643 24.1389C13.6096 24.0969 13.4633 24.0541 13.3258 24.0105C13.2074 23.9728 13.1003 23.9277 13.0043 23.8747C12.8131 23.7725 12.6785 23.636 12.6457 23.4124C12.6302 23.3075 12.6451 23.2253 12.6904 23.1659C12.7409 23.0997 12.7999 23.0313 12.8669 22.9609C12.8836 22.9432 12.898 22.9238 12.9106 22.9027C12.9225 22.8821 12.9325 22.8595 12.9555 22.8497C13.1984 22.7471 13.4267 22.7001 13.6402 22.7088C13.7448 22.713 13.858 22.7241 13.9804 22.7418C14.1171 22.7616 14.2459 22.8242 14.3669 22.9296Z" fill="white"/>
<path d="M18.3685 24.0455L18.3917 24.7089C18.3876 24.8582 18.3866 24.997 18.3887 25.1258C18.393 25.3783 17.9733 25.3553 17.9565 25.1731C17.9448 25.0492 17.9478 24.921 17.9614 24.7956C17.9748 24.6698 17.9774 24.5412 17.9688 24.4098C17.9657 24.3606 17.9654 24.3093 17.9678 24.2559C17.9703 24.199 17.9712 24.1475 17.9703 24.1013L17.9561 23.8273C17.9571 23.7017 17.9567 23.581 17.9544 23.4651C17.9512 23.3082 17.9499 23.1511 17.9503 22.994C17.9508 22.8624 17.931 22.7402 18.1034 22.7123C18.1841 22.6993 18.2575 22.7142 18.3236 22.757C18.3698 22.787 18.3906 22.8409 18.3857 22.919C18.3785 23.0363 18.3759 23.1409 18.3781 23.2326C18.38 23.3089 18.3768 23.4032 18.3685 23.5154C18.3551 23.6976 18.3551 23.8743 18.3685 24.0455Z" fill="white"/>
<path d="M22.5312 23.9015C22.5114 23.9009 22.5018 23.9102 22.502 23.9298C22.5043 24.1263 22.5031 24.3156 22.4977 24.4974C22.4924 24.6778 22.5039 24.8532 22.5139 25.0346C22.519 25.1242 22.5271 25.2339 22.4268 25.2779C22.3215 25.3244 22.2235 25.3178 22.133 25.2581C22.0998 25.2364 22.09 25.1958 22.0932 25.1579C22.11 24.9477 22.1154 24.771 22.1092 24.6277C22.099 24.3882 22.0764 24.1523 22.0951 23.913C22.0958 23.9051 22.0922 23.9013 22.0843 23.9013C21.9623 23.9009 21.8471 23.903 21.7387 23.9077C21.6666 23.9107 21.5963 23.8923 21.5671 23.8187C21.5269 23.7171 21.5978 23.6277 21.6987 23.6039C21.7076 23.6019 21.7526 23.6015 21.8337 23.6028C21.9214 23.6041 22.0053 23.6058 22.0851 23.6079C22.093 23.6081 22.0968 23.6045 22.0966 23.5966C22.0951 23.4812 22.0962 23.3648 22.0996 23.247C22.1009 23.2004 22.0968 23.1482 22.0877 23.091C22.0738 23.0056 22.0798 22.9166 22.106 22.8242C22.1384 22.7105 22.3021 22.6922 22.3945 22.7224C22.5227 22.7646 22.5248 22.8789 22.518 22.9913C22.508 23.1548 22.4999 23.3137 22.4937 23.468C22.4922 23.5091 22.4933 23.5506 22.4971 23.5926C22.4977 23.6 22.5016 23.6036 22.509 23.6039C22.6178 23.6071 22.7341 23.606 22.8578 23.6007C22.9057 23.5985 22.9457 23.6051 22.9783 23.6205C23.0935 23.6743 23.0883 23.8898 22.9346 23.9045C22.8001 23.9175 22.6587 23.9058 22.5312 23.9015Z" fill="white"/>
<path d="M16.323 23.4592C16.759 23.4699 17.1925 23.69 17.3667 24.1069C17.4597 24.3294 17.4597 24.5576 17.3667 24.7916C17.2464 25.0942 16.9696 25.2775 16.6575 25.3494C16.2726 25.438 15.8817 25.3971 15.547 25.1855C15.2515 24.9986 15.0865 24.6445 15.1156 24.2945C15.132 24.0954 15.2591 23.9098 15.412 23.776C15.6632 23.5561 15.9668 23.4505 16.323 23.4592ZM16.9411 24.0803C16.7097 23.779 16.2255 23.6464 15.8876 23.8395C15.5934 24.0077 15.4067 24.3471 15.5527 24.676C15.7047 25.0188 16.1063 25.1265 16.4488 25.0865C16.6083 25.068 16.7865 25.0188 16.8951 24.9019C17.0079 24.7805 17.0656 24.6281 17.068 24.4446C17.0697 24.3143 17.0273 24.1929 16.9411 24.0803Z" fill="white"/>
<path d="M26.1118 23.5819C26.1957 23.6294 26.2672 23.6761 26.3262 23.7216C26.5636 23.9045 26.7145 24.2219 26.6828 24.5196C26.6383 24.9365 26.3822 25.2062 25.993 25.3269C25.6021 25.4372 25.2018 25.4153 24.8442 25.2134C24.4232 24.9756 24.1856 24.352 24.515 23.9345C24.8963 23.4512 25.5597 23.3348 26.1118 23.5819ZM26.065 24.9705C26.2253 24.843 26.3098 24.6782 26.3183 24.4757C26.3245 24.3246 26.2789 24.1885 26.1816 24.0676C26.0709 23.9311 25.9227 23.8366 25.7373 23.784C25.4356 23.6986 25.1763 23.7625 24.9591 23.9758C24.5518 24.3763 24.7877 24.9492 25.3064 25.0623C25.5893 25.1238 25.8423 25.0934 26.065 24.9705Z" fill="white"/>
<path d="M23.5836 23.4893C23.7465 23.4295 23.9025 23.524 23.8891 23.7114C23.8663 24.0331 23.8659 24.3356 23.8878 24.6194C23.8985 24.7561 23.8962 24.8904 23.8953 25.0314C23.8947 25.1553 23.9006 25.2462 23.7848 25.2894C23.6854 25.3265 23.5104 25.3141 23.4678 25.1996C23.4444 25.1366 23.4476 25.045 23.4535 24.9771C23.4729 24.7489 23.4803 24.5668 23.4759 24.4308C23.4731 24.3501 23.4733 24.269 23.4763 24.1872C23.4786 24.1221 23.4763 24.0614 23.4686 24.005C23.4531 23.8885 23.4484 23.7816 23.4546 23.6841C23.461 23.5836 23.504 23.5187 23.5836 23.4893Z" fill="white"/>
<path d="M19.4458 24.6101C19.4767 24.7832 19.5676 24.9067 19.7186 24.9805C19.8902 25.0649 20.0705 25.0834 20.2598 25.0359C20.3524 25.0133 20.4395 24.9703 20.521 24.9067C20.5789 24.8615 20.6249 24.8058 20.6588 24.7395C20.6754 24.7074 20.683 24.6703 20.6815 24.6284C20.676 24.4717 20.6871 24.3231 20.6773 24.1651C20.669 24.0331 20.6641 23.8973 20.6622 23.7576C20.6613 23.6829 20.6607 23.5673 20.7399 23.5296C20.841 23.4815 20.9383 23.4845 21.0322 23.5385C21.0805 23.5666 21.0952 23.6075 21.0958 23.6631C21.1003 23.9886 21.0956 24.3148 21.0816 24.6414C21.076 24.7689 21.0775 24.9461 21.0863 25.1724C21.0878 25.2113 21.0837 25.2414 21.0741 25.262C21.0437 25.3269 20.9419 25.344 20.8772 25.345C20.8233 25.3378 20.7848 25.3282 20.7616 25.3161C20.7081 25.2882 20.6881 25.2452 20.7018 25.1866C20.7084 25.1575 20.7001 25.1524 20.6766 25.1709C20.5421 25.2771 20.3845 25.3648 20.2093 25.3787C19.997 25.3955 19.7884 25.3665 19.5836 25.2918C19.4145 25.2301 19.2857 25.1349 19.1786 24.9942C19.0894 24.8771 19.0381 24.7444 19.0251 24.5963C19.0179 24.5147 19.0134 24.4415 19.0115 24.377C19.0102 24.2384 19.0115 24.1051 19.0057 23.9692C19.0008 23.8502 19.0023 23.7353 19.0102 23.6243C19.0126 23.5909 19.0298 23.5647 19.062 23.5453C19.1693 23.481 19.2749 23.4819 19.379 23.5477C19.4164 23.5713 19.4356 23.6169 19.4362 23.661C19.4377 23.7991 19.436 23.9396 19.4311 24.0825C19.425 24.2688 19.4299 24.4447 19.4458 24.6101Z" fill="white"/>
<path d="M27.7152 23.7684C27.8759 23.6309 28.078 23.5451 28.2726 23.537C28.4325 23.5304 28.5941 23.5529 28.7574 23.6047C28.93 23.6594 29.0755 23.7541 29.194 23.8889C29.3657 24.0839 29.3961 24.31 29.3823 24.5594C29.3795 24.6083 29.381 24.6577 29.3867 24.7077C29.4044 24.8572 29.4097 25.003 29.4027 25.1455C29.3935 25.338 29.1619 25.3827 29.0229 25.2998C28.9869 25.2783 28.9671 25.2443 28.9635 25.1981C28.9554 25.0906 28.9588 24.9775 28.9735 24.8589C28.9831 24.7821 28.9871 24.7058 28.986 24.6305C28.9848 24.5291 28.995 24.4188 28.9684 24.3239C28.8802 24.0096 28.5638 23.8676 28.2532 23.9015C28.0282 23.9262 27.8219 24.0301 27.7205 24.2419C27.7028 24.2787 27.6943 24.3183 27.6952 24.3609C27.6992 24.5568 27.6873 24.7646 27.7052 24.9615C27.7131 25.048 27.7099 25.1285 27.6954 25.2028C27.6839 25.2615 27.6437 25.3022 27.5747 25.3245C27.4897 25.352 27.411 25.3409 27.3379 25.2915C27.2611 25.2396 27.2655 25.0748 27.2715 24.9958C27.2981 24.6526 27.2998 24.2783 27.2764 23.8732C27.273 23.8155 27.2738 23.7563 27.2792 23.6958C27.2947 23.5191 27.5119 23.4797 27.6388 23.5508C27.7161 23.594 27.7018 23.6841 27.7009 23.7616C27.7009 23.7744 27.7056 23.7767 27.7152 23.7684Z" fill="white"/>
<path d="M23.158 19.9055C23.2528 20.0488 23.3473 20.1923 23.4416 20.3364C23.5888 20.5619 23.7833 20.7757 24.0252 20.9777C24.4757 21.3546 24.9912 21.5956 25.5716 21.701L25.5741 21.7203C25.575 21.7267 25.5788 21.7325 25.5845 21.7359C26.0259 21.9956 26.5454 22.1415 27.0634 22.1246C27.1534 22.1217 27.2946 22.1059 27.4864 22.0774C28.6244 21.9085 29.7641 21.7403 30.9053 21.5732C30.8859 23.0182 30.8663 24.4615 30.8467 25.9033C30.8333 26.8884 30.1235 27.9117 29.2248 28.3147C29.1416 28.352 29.0077 28.3994 28.8235 28.4567C28.3151 28.6149 27.8141 28.7701 27.3204 28.9223C27.1554 28.7243 26.9652 28.5604 26.7504 28.4305C26.7221 28.4135 26.5971 28.3466 26.3753 28.2297C26.1143 28.0924 25.8524 27.9559 25.5894 27.8203C25.5724 27.7967 25.5601 27.7901 25.5526 27.8005C25.5707 27.7948 25.5807 27.7867 25.5826 27.776C25.7191 26.9612 25.856 26.1454 25.9929 25.3283C26.3821 25.2075 26.6382 24.9378 26.6827 24.5209C26.7144 24.2233 26.5635 23.9058 26.3261 23.7229C26.2671 23.6774 26.1956 23.6307 26.1117 23.5833C25.9918 23.0389 25.7434 22.5643 25.3663 22.1598C25.2034 21.9852 25.0286 21.8425 24.8415 21.732C24.8102 21.7135 24.7325 21.672 24.6088 21.6075C23.7512 21.161 22.8917 20.7122 22.0303 20.2611C22.092 20.2345 22.1553 20.2119 22.2198 20.1929C22.2762 20.1765 22.3315 20.1597 22.3863 20.1421C22.4414 20.1244 22.4965 20.1088 22.5519 20.0954C22.5947 20.0852 22.633 20.0635 22.6762 20.0509C22.8372 20.0045 22.9977 19.956 23.158 19.9055ZM27.7006 23.7613C27.7015 23.6838 27.7157 23.5937 27.6385 23.5505C27.5116 23.4794 27.2944 23.5188 27.2789 23.6955C27.2735 23.7559 27.2727 23.8151 27.2761 23.8728C27.2995 24.278 27.2978 24.6523 27.2712 24.9955C27.2652 25.0745 27.2608 25.2393 27.3376 25.2912C27.4106 25.3406 27.4894 25.3517 27.5744 25.3242C27.6433 25.3019 27.6836 25.2612 27.6951 25.2024C27.7096 25.1281 27.7128 25.0476 27.7049 24.9612C27.687 24.7643 27.6989 24.5565 27.6949 24.3606C27.694 24.318 27.7025 24.2784 27.7202 24.2416C27.8215 24.0297 28.0279 23.9258 28.2529 23.9011C28.5635 23.8673 28.8799 24.0093 28.9681 24.3235C28.9947 24.4185 28.9844 24.5288 28.9857 24.6301C28.9868 24.7055 28.9827 24.7817 28.9732 24.8586C28.9585 24.9772 28.9551 25.0902 28.9632 25.1977C28.9668 25.2439 28.9866 25.278 29.0226 25.2995C29.1616 25.3823 29.3932 25.3376 29.4024 25.1452C29.4094 25.0027 29.4041 24.8569 29.3864 24.7074C29.3807 24.6574 29.3792 24.608 29.3819 24.559C29.3958 24.3097 29.3653 24.0836 29.1937 23.8886C29.0751 23.7538 28.9297 23.6591 28.7571 23.6043C28.5938 23.5526 28.4322 23.53 28.2723 23.5366C28.0777 23.5447 27.8756 23.6305 27.7149 23.7681C27.7053 23.7764 27.7004 23.774 27.7006 23.7613Z" fill="#002B97"/>
<path d="M26.1811 24.0679C26.2784 24.1888 26.324 24.3248 26.3178 24.476C26.3093 24.6785 26.2248 24.8433 26.0645 24.9708L26.1811 24.0679Z" fill="#002B97"/>
<path d="M25.5646 18.099C25.4645 18.2602 25.4339 18.4322 25.4724 18.6151C25.5122 18.8044 25.631 18.9549 25.8286 19.0667C25.9308 19.118 26.0368 19.1404 26.1467 19.134C26.2604 19.1274 26.3762 19.0876 26.4939 19.0145C26.575 18.9643 26.6404 18.8987 26.6902 18.8178C26.6917 18.8153 26.6966 18.8142 26.7045 18.8146C26.7098 18.8389 26.7111 18.861 26.7083 18.8813C26.6924 19.0035 26.6596 19.128 26.61 19.2547C26.604 19.2617 26.5968 19.2673 26.5885 19.2717L26.4854 19.2849C26.383 19.2962 26.2866 19.2956 26.1963 19.2832C26.1384 19.2592 26.0845 19.2358 26.0345 19.2125C26.0277 19.2093 26.0059 19.2023 25.9693 19.191C25.9465 19.184 25.9259 19.1723 25.9069 19.1559C25.9023 19.1519 25.8969 19.1493 25.8908 19.1482C25.8825 19.1468 25.8744 19.1438 25.8669 19.1389C25.8096 19.1023 25.7462 19.0731 25.6923 19.0309C25.5244 18.8994 25.3945 18.7407 25.3027 18.5553C25.2088 18.366 25.1618 18.1674 25.1611 17.9596C25.1611 17.9308 25.1739 17.9164 25.1997 17.9068C25.2286 17.8959 25.2567 17.8829 25.2838 17.8678C25.3044 17.8563 25.3253 17.8548 25.3476 17.8504C25.3555 17.8487 25.3623 17.8453 25.3681 17.8399C25.3781 17.8308 25.3898 17.8263 25.4028 17.8265C25.4094 17.8265 25.4156 17.8238 25.4194 17.8186C25.4239 17.8127 25.4296 17.8091 25.4368 17.8078C25.483 17.7995 25.5322 17.7846 25.5844 17.7635C25.5946 17.7592 25.6063 17.7641 25.6106 17.7744C25.6121 17.7782 25.6125 17.7824 25.6116 17.7863C25.5955 17.8623 25.5778 17.9381 25.5586 18.0135C25.5452 18.0665 25.5471 18.095 25.5646 18.099Z" fill="#0046B3"/>
<path d="M17.6945 23.6865C17.7056 23.6987 17.7103 23.7015 17.7084 23.6949C17.7043 23.704 17.7041 23.7112 17.7073 23.717C17.781 23.845 17.8687 23.9729 17.9703 24.1007C17.9711 24.1469 17.9703 24.1984 17.9677 24.2552C17.9654 24.3087 17.9656 24.36 17.9688 24.4092C17.9773 24.5405 17.9747 24.6691 17.9613 24.7949C17.9477 24.9203 17.9447 25.0485 17.9564 25.1724C17.9732 25.3547 18.3929 25.3777 18.3886 25.1252C18.3865 24.9964 18.3876 24.8575 18.3916 24.7083C20.46 27.6338 21.8013 29.5328 22.416 30.4052C22.4198 30.4108 22.4221 30.4223 22.423 30.44C21.0813 30.8568 19.7395 31.2737 18.398 31.6906C18.2905 31.724 18.1825 31.7566 18.0746 31.7885C17.9411 31.8279 17.8319 31.8547 17.7469 31.869C16.8689 32.0165 15.8604 31.6814 15.2534 31.0335C15.1846 30.9601 15.0973 30.8485 14.9915 30.6986C13.7692 28.9698 12.5477 27.2406 11.3271 25.5107L13.0038 23.8741C13.0998 23.9271 13.2069 23.9723 13.3253 24.01C13.4628 24.0536 13.6091 24.0964 13.7639 24.1383C13.9678 24.1937 14.2793 24.3231 14.3134 24.5676C14.3425 24.7773 14.1954 24.9227 14.0006 24.9725C13.8275 25.0166 13.6389 25.0253 13.4343 24.9983C13.2848 24.9787 13.1283 24.9355 13.0298 24.8167C13.0093 24.7922 12.9876 24.7694 12.9646 24.7479C12.9101 24.6974 12.882 24.6238 12.8648 24.5529C12.8441 24.4681 12.7907 24.4183 12.704 24.4032C12.6074 24.3864 12.4639 24.4247 12.4556 24.5405C12.4421 24.726 12.5714 24.9159 12.7142 25.0302C12.9431 25.2131 13.2046 25.3144 13.4986 25.3342C13.7713 25.3525 14.0185 25.3234 14.2401 25.2469C14.3315 25.2154 14.4196 25.1722 14.4946 25.112C14.6828 24.9602 14.7848 24.677 14.6932 24.439C14.5942 24.1818 14.4041 24.0415 14.1541 23.9469C13.9027 23.8518 13.651 23.7749 13.3992 23.7168C13.3619 23.7081 13.3104 23.6819 13.2446 23.6382C13.3117 23.5733 13.3791 23.5098 13.4466 23.4481C13.611 23.2976 13.7967 23.1739 14.0038 23.077C14.086 23.1134 14.1497 23.1709 14.1948 23.2495C14.2225 23.2976 14.2316 23.3478 14.2418 23.4013C14.2604 23.4979 14.3892 23.532 14.4705 23.5201C14.6794 23.4894 14.6623 23.3106 14.5853 23.1671C14.542 23.0864 14.469 23.007 14.3664 22.929C14.9679 22.7391 15.6551 22.7208 16.2434 22.949C16.3253 22.9808 16.4533 23.0421 16.6272 23.1326C16.9764 23.3144 17.3256 23.4962 17.6745 23.678C17.6807 23.6812 17.6875 23.6842 17.6945 23.6865ZM17.366 24.1062C17.1919 23.6893 16.7584 23.4692 16.3224 23.4585C15.9662 23.4498 15.6626 23.5554 15.4113 23.7753C15.2585 23.909 15.1314 24.0947 15.115 24.2938C15.0858 24.6438 15.2508 24.9978 15.5463 25.1848C15.881 25.3964 16.2719 25.4373 16.6568 25.3487C16.969 25.2767 17.2457 25.0934 17.366 24.7909C17.4591 24.5569 17.4591 24.3287 17.366 24.1062Z" fill="#0046B3"/>
<path d="M15.8876 23.8385C16.2255 23.6454 16.7097 23.778 16.9411 24.0793C17.0273 24.1919 17.0697 24.3133 17.068 24.4436C17.0656 24.6271 17.0079 24.7796 16.8951 24.9009C16.7865 25.0178 16.6083 25.067 16.4488 25.0855C16.1063 25.1255 15.7047 25.0178 15.5527 24.675C15.4067 24.3461 15.5934 24.0067 15.8876 23.8385Z" fill="#0046B3"/>
<path d="M19.9492 19.175L20.702 19.5608C20.7028 20.0173 20.7028 20.4859 20.7022 20.9669C20.7022 21.1421 20.7105 21.256 20.7275 21.3084C20.8564 21.7037 21.3407 21.811 21.6275 21.5302C21.7348 21.425 21.7882 21.2926 21.7878 21.1329C21.7868 20.8078 21.7865 20.4772 21.7874 20.1406L22.0307 20.2598C22.8922 20.711 23.7517 21.1598 24.6093 21.6062C24.733 21.6707 24.8107 21.7123 24.842 21.7308C25.0291 21.8413 25.2039 21.9839 25.3668 22.1585C25.7438 22.563 25.9923 23.0376 26.1122 23.582C25.5601 23.3348 24.8967 23.4513 24.5154 23.9346C24.186 24.3521 24.4236 24.9757 24.8445 25.2135C25.2022 25.4153 25.6025 25.4373 25.9934 25.327C25.8565 26.1441 25.7196 26.96 25.5831 27.7748C25.5812 27.7854 25.5712 27.7935 25.5531 27.7993L20.8772 25.3442C20.9419 25.3432 21.0437 25.3261 21.0742 25.2612C21.0837 25.2405 21.0878 25.2105 21.0863 25.1716C21.0776 24.9452 21.0761 24.7681 21.0816 24.6406C21.0957 24.314 21.1003 23.9878 21.0959 23.6623C21.0952 23.6067 21.0805 23.5658 21.0322 23.5377C20.9383 23.4836 20.841 23.4807 20.7399 23.5288C20.6607 23.5665 20.6613 23.6821 20.6622 23.7568C20.6641 23.8965 20.669 24.0323 20.6773 24.1643C20.6871 24.3223 20.676 24.4709 20.6816 24.6276C20.683 24.6695 20.6754 24.7066 20.6588 24.7387C20.6249 24.8049 20.5789 24.8607 20.521 24.9059C20.4395 24.9695 20.3524 25.0125 20.2598 25.0351L19.4458 24.6093C19.4299 24.4439 19.425 24.268 19.4312 24.0817C19.4361 23.9388 19.4378 23.7983 19.4363 23.6601C19.4356 23.6161 19.4165 23.5705 19.379 23.5469C19.2749 23.4811 19.1693 23.4802 19.062 23.5445C19.0298 23.5639 19.0126 23.5901 19.0102 23.6235C19.0024 23.7344 19.0009 23.8494 19.0058 23.9684C19.0115 24.1043 19.0102 24.2375 19.0115 24.3761L18.369 24.0447C18.3555 23.8735 18.3555 23.6968 18.369 23.5145C18.3773 23.4023 18.3805 23.308 18.3785 23.2318C18.3764 23.14 18.379 23.0355 18.3862 22.9182C18.3911 22.84 18.3702 22.7862 18.324 22.7561C18.258 22.7133 18.1846 22.6984 18.1039 22.7114C17.9314 22.7393 17.9512 22.8615 17.9508 22.9931C17.9504 23.1502 17.9517 23.3074 17.9549 23.4643C17.9572 23.5801 17.9576 23.7008 17.9566 23.8264L17.709 23.6946C17.7109 23.7012 17.7062 23.6985 17.6951 23.6863C17.5833 23.4745 17.5033 23.2516 17.455 23.0172C17.3513 22.5143 17.373 22.0114 17.5197 21.5085C17.6766 21.493 17.8414 21.4685 18.0145 21.4355C18.5719 21.329 19.1484 21.085 19.5327 20.6588C19.8953 20.2566 20.0341 19.762 19.9492 19.175ZM23.5562 23.1451C23.6427 23.1788 23.7515 23.1837 23.8319 23.1283C23.9205 23.0674 23.9467 22.9631 23.9043 22.8647C23.8055 22.6363 23.5588 22.6652 23.4459 22.8554C23.3667 22.9888 23.4036 23.0853 23.5562 23.1451ZM22.5313 23.9007C22.6588 23.905 22.8002 23.9167 22.9347 23.9037C23.0885 23.889 23.0936 23.6736 22.9784 23.6197C22.9458 23.6044 22.9058 23.5978 22.8579 23.5999C22.7342 23.6052 22.6179 23.6063 22.5091 23.6031C22.5017 23.6031 22.4979 23.5993 22.4972 23.5918C22.4934 23.5499 22.4923 23.5083 22.4938 23.4672C22.5 23.3129 22.5081 23.1541 22.5181 22.9906C22.5249 22.8781 22.5228 22.7638 22.3946 22.7216C22.3022 22.6914 22.1385 22.7097 22.1061 22.8234C22.0799 22.9158 22.074 23.0048 22.0878 23.0902C22.097 23.1475 22.101 23.1996 22.0997 23.2463C22.0963 23.364 22.0953 23.4804 22.0967 23.5958C22.0967 23.6037 22.0931 23.6073 22.0852 23.6071C22.0054 23.605 21.9215 23.6033 21.8338 23.602C21.7527 23.6007 21.7078 23.6012 21.6988 23.6031C21.5979 23.6269 21.527 23.7163 21.5672 23.8179C21.5964 23.8916 21.6667 23.9099 21.7388 23.9069C21.8472 23.9022 21.9624 23.9001 22.0844 23.9005C22.0923 23.9005 22.0959 23.9043 22.0953 23.9122C22.0765 24.1515 22.0991 24.3874 22.1093 24.627C22.1155 24.7702 22.1102 24.947 22.0933 25.1571C22.0901 25.195 22.0999 25.2357 22.1332 25.2574C22.2236 25.317 22.3216 25.3236 22.427 25.2772C22.5272 25.2331 22.5192 25.1234 22.514 25.0338C22.504 24.8524 22.4925 24.677 22.4979 24.4967C22.5032 24.3148 22.5045 24.1256 22.5021 23.929C22.5019 23.9095 22.5115 23.9001 22.5313 23.9007ZM23.5841 23.489C23.5045 23.5183 23.4615 23.5833 23.4551 23.6838C23.4489 23.7813 23.4536 23.8882 23.4691 24.0046C23.4766 24.061 23.4791 24.1217 23.4768 24.1869C23.4738 24.2686 23.4736 24.3497 23.4764 24.4304C23.4809 24.5665 23.4734 24.7485 23.454 24.9768C23.4481 25.0447 23.4449 25.1362 23.4683 25.1992C23.5109 25.3138 23.6859 25.3261 23.7853 25.2891C23.9011 25.2459 23.8952 25.155 23.8958 25.031C23.8967 24.8901 23.899 24.7558 23.8884 24.6191C23.8664 24.3353 23.8669 24.0327 23.8896 23.711C23.903 23.5237 23.747 23.4291 23.5841 23.489Z" fill="#00185E"/>
<path d="M26.1812 24.0683L26.0645 24.9712C25.8418 25.094 25.5889 25.1245 25.3059 25.063C24.7873 24.9499 24.5514 24.377 24.9587 23.9765C25.1759 23.7632 25.4352 23.6993 25.7369 23.7847C25.9223 23.8373 26.0705 23.9318 26.1812 24.0683Z" fill="#00185E"/>
<path d="M25.8778 10.7542C26.9817 11.1299 28.086 11.5053 29.1906 11.8804C30.138 12.2023 30.899 13.2096 30.9912 14.1988C30.9992 14.2861 31.002 14.4279 30.9992 14.6244C30.986 15.5699 30.9733 16.5154 30.9611 17.4607C30.9558 17.4639 30.9516 17.4694 30.9481 17.4773C30.9454 17.4833 30.9409 17.4873 30.9347 17.4892L29.3688 17.9723C29.3562 17.9136 29.3441 17.8552 29.3322 17.7975C29.2204 17.2536 28.9894 16.7749 28.6394 16.3615C27.9353 15.5292 26.8889 15.0928 25.8045 15.2013C25.1458 15.2673 24.5516 15.516 24.0219 15.9476C23.7521 16.1671 23.5266 16.4745 23.2149 16.6627C22.9957 16.7952 22.8123 16.7338 22.661 16.5414C22.5296 16.3742 22.4144 16.1643 22.3112 15.9527C22.2862 15.9014 22.2564 15.8528 22.2222 15.8071C22.1542 15.7166 22.0755 15.6391 21.986 15.575L21.9209 15.3893C22.8347 14.1681 23.7476 12.9469 24.6595 11.7256C24.7687 11.5794 24.8594 11.4693 24.9314 11.3954C25.1831 11.1374 25.493 10.9341 25.8612 10.7857C25.8658 10.7837 25.869 10.7803 25.8707 10.7754L25.8778 10.7542Z" fill="#002AE8"/>
<path d="M28.0265 18.393L27.3888 18.5863C27.3822 18.5882 27.3752 18.5846 27.3731 18.5782C27.3726 18.5767 27.3724 18.5752 27.3726 18.5735C27.3758 18.5326 27.3773 18.4958 27.3767 18.4628C27.3758 18.4202 27.3737 18.3742 27.3705 18.3246C27.3686 18.2982 27.365 18.2729 27.3592 18.2488C27.3437 18.1828 27.3352 18.1183 27.3124 18.0536C27.23 17.82 27.0905 17.6261 26.8938 17.4717C26.8206 17.4136 26.7407 17.3653 26.6545 17.3263C26.4816 17.2448 26.2983 17.2052 26.1044 17.2075C25.8427 17.2107 25.604 17.2893 25.3888 17.4432C25.237 17.5494 25.118 17.6817 25.0315 17.8394C24.8141 18.2363 24.8054 18.6414 25.0049 19.0551C25.0249 19.0966 25.0756 19.1707 25.1571 19.2774C24.9202 19.3572 24.6877 19.4249 24.4594 19.4801C24.2254 19.0894 24.1352 18.6806 24.1888 18.2539C24.3638 16.8581 25.881 16.1034 27.1003 16.8173C27.4555 17.0251 27.7109 17.3284 27.8666 17.7274C27.9545 17.9529 28.008 18.1747 28.0265 18.393Z" fill="#002AE8"/>
<path d="M26.5858 17.9834C26.6775 18.0765 26.7418 18.1865 26.7787 18.3136C26.8027 18.4997 26.7774 18.6617 26.7029 18.7995L25.8293 19.0675C25.6317 18.9558 25.5129 18.8052 25.4731 18.616C25.4346 18.4331 25.4652 18.261 25.5653 18.0999C25.6524 17.9732 25.7559 17.8885 25.8759 17.8457C26.1042 17.7641 26.3145 17.7931 26.5068 17.9325C26.5308 17.95 26.5572 17.967 26.5858 17.9834Z" fill="#002AE8"/>
<path d="M27.1637 19.1342C27.1747 19.1331 27.1807 19.1342 27.1815 19.1374C27.1835 19.1448 27.182 19.1529 27.1775 19.1593C27.1023 19.2668 27.0125 19.3629 26.908 19.4469C26.9048 19.4495 26.9003 19.4491 26.8979 19.4461C26.8977 19.4457 26.8973 19.4452 26.8971 19.4448C26.8939 19.4391 26.8937 19.4325 26.8965 19.425L27.0176 19.2136C27.021 19.2079 27.0257 19.2034 27.0319 19.2002L27.1637 19.1342Z" fill="#002AE8"/>
<path d="M14.1677 16.195C14.1683 17.5928 14.1681 18.9907 14.1666 20.3889C14.1666 20.5579 14.1568 20.7453 14.1219 20.9026C14.0397 21.2737 13.45 21.3188 13.1551 21.3141C13.147 21.3141 13.143 21.318 13.143 21.3263V21.5271C13.143 21.5347 13.1466 21.5386 13.1543 21.5386H14.1094C14.0836 21.5662 14.0493 21.5867 14.0067 21.5997C12.5871 22.0385 11.1676 22.4779 9.74817 22.918C9.65769 22.9461 9.58764 22.9661 9.53846 22.9782C9.20611 22.5083 8.87398 22.0378 8.54206 21.5669C8.43283 21.4117 8.35576 21.2926 8.31105 21.2096C8.14498 20.9003 8.04683 20.566 8.0166 20.2064C8.03811 20.1998 8.05173 20.1936 8.05705 20.1883C9.19227 19.0774 10.3271 17.9658 11.4612 16.8538C12.1138 16.214 13.0831 15.9911 13.9667 16.1537C14.0182 16.1631 14.0979 16.1876 14.1677 16.195Z" fill="#001D31"/>
<path d="M15.8984 17.0593L16.5497 17.4021C16.3277 17.4423 16.1148 17.4602 15.911 17.4558C15.904 17.4558 15.9004 17.4519 15.9004 17.4449L15.8984 17.0593Z" fill="#001D31"/>
<path d="M18.0275 19.2662C17.9771 19.3609 17.9258 19.4561 17.874 19.5512C17.7071 19.8587 17.4931 20.1286 17.2321 20.3614C16.967 20.5975 16.6762 20.7659 16.3596 20.867C16.1955 20.9194 16.0903 20.9549 16.0437 20.9739C15.9843 20.9134 15.9421 20.8391 15.9176 20.7508C15.9012 20.6916 15.8931 20.6158 15.8936 20.5234C15.8976 19.6428 15.8993 18.7722 15.8987 17.9119C15.8987 17.9029 15.9032 17.8984 15.9121 17.8982C16.3062 17.8921 16.6498 17.9227 16.9434 17.9906C17.3396 18.0824 17.6351 18.3045 17.83 18.6566C17.933 18.8431 17.9988 19.0462 18.0275 19.2662Z" fill="#001D31"/>
<path d="M19.2928 8.51514L25.8778 10.7532L25.8708 10.7745C25.869 10.7794 25.8659 10.7828 25.8612 10.7847C25.4931 10.9331 25.1831 11.1364 24.9314 11.3945C24.8594 11.4684 24.7687 11.5784 24.6595 11.7247C23.7476 12.9459 22.8347 14.1672 21.9209 15.3884C21.913 15.3856 21.9064 15.3788 21.9011 15.368C21.1102 13.7739 20.3186 12.1803 19.5268 10.5867C19.4369 10.406 19.3775 10.2772 19.3484 10.2005C19.2306 9.89009 19.1761 9.56179 19.1844 9.2156C19.1902 8.97693 19.2193 8.75338 19.2719 8.54494C19.2743 8.53515 19.2813 8.52514 19.2928 8.51514Z" fill="#005FED"/>
<path d="M26.6556 17.3262C26.7418 17.3651 26.8216 17.4135 26.8949 17.4716L26.7782 17.7577L26.6102 17.6002C26.6051 17.5953 26.6025 17.5893 26.6025 17.5823C26.6025 17.5531 26.6085 17.5252 26.6198 17.4991C26.6347 17.4643 26.6413 17.4269 26.6396 17.3871C26.6389 17.3732 26.6447 17.363 26.6568 17.3564C26.6634 17.3528 26.6651 17.3475 26.6622 17.3406L26.6556 17.3262Z" fill="#005FED"/>
<path d="M25.3895 17.4429C25.4169 17.4644 25.4467 17.4671 25.4789 17.4507C25.4851 17.4478 25.4915 17.4467 25.4981 17.4473C25.5417 17.4522 25.5879 17.4522 25.629 17.4688C25.6437 17.475 25.6586 17.4765 25.6737 17.4737C25.6835 17.472 25.6935 17.4744 25.7016 17.4801C25.7237 17.4961 25.7455 17.4987 25.7667 17.4878C25.7744 17.4837 25.7825 17.4825 25.7908 17.484C25.8626 17.4957 25.932 17.5155 25.999 17.5431C26.0448 17.5619 26.0865 17.5798 26.1244 17.597C26.163 17.6143 26.1979 17.6368 26.2296 17.6643C26.2622 17.6926 26.2948 17.7177 26.3273 17.7397C26.3378 17.7465 26.3469 17.7541 26.3552 17.7627C26.372 17.7797 26.3891 17.7771 26.4072 17.792C26.4314 17.8118 26.454 17.8336 26.4747 17.8572C26.4842 17.868 26.5051 17.8864 26.5368 17.9121C26.5603 17.9311 26.5766 17.9547 26.5858 17.9832C26.5573 17.9668 26.5309 17.9498 26.5068 17.9323C26.3146 17.7929 26.1042 17.7639 25.876 17.8455C25.7559 17.8883 25.6524 17.973 25.5653 18.0997C25.5479 18.0956 25.546 18.0671 25.5594 18.0141C25.5785 17.9387 25.5962 17.8629 25.6124 17.7869C25.6147 17.7761 25.6079 17.7654 25.5971 17.7631C25.593 17.7622 25.5888 17.7627 25.5851 17.7641C25.533 17.7852 25.4838 17.8001 25.4376 17.8084C25.4304 17.8097 25.4246 17.8133 25.4201 17.8193C25.4163 17.8244 25.4101 17.8274 25.4035 17.8272C25.3905 17.827 25.3788 17.8314 25.3688 17.8406C25.3631 17.8459 25.3563 17.8493 25.3484 17.851C25.326 17.8555 25.3052 17.857 25.2845 17.8685C25.2575 17.8836 25.2294 17.8966 25.2004 17.9074C25.1747 17.917 25.1619 17.9315 25.1619 17.9602C25.1625 18.168 25.2096 18.3667 25.3035 18.5559C25.3952 18.7414 25.5251 18.9 25.6931 19.0316C25.7469 19.0737 25.8104 19.1029 25.8677 19.1395C25.8751 19.1444 25.8832 19.1474 25.8915 19.1489C25.8977 19.15 25.903 19.1525 25.9077 19.1566C25.9266 19.173 25.9473 19.1847 25.9701 19.1917C26.0067 19.203 26.0284 19.21 26.0352 19.2132C26.0853 19.2364 26.1391 19.2598 26.197 19.2839C26.1545 19.279 26.1223 19.2775 26.1006 19.2792C26.0816 19.2807 26.0814 19.2837 26.0999 19.2883L26.1259 19.2952C26.1353 19.2975 26.1398 19.3037 26.1395 19.3135C26.1393 19.3233 26.1423 19.332 26.1489 19.3394C26.154 19.3454 26.1549 19.352 26.1513 19.3592C26.1455 19.3707 26.1395 19.3835 26.1334 19.3976C26.1327 19.3986 26.1321 19.3993 26.131 19.3999C26.1285 19.4012 26.1266 19.401 26.1251 19.3995C26.1195 19.3942 26.1151 19.3948 26.1119 19.4018C26.1059 19.4146 26.0961 19.4197 26.0823 19.4172C26.0744 19.4157 26.0672 19.4172 26.0603 19.421C26.041 19.4321 26.0205 19.4357 25.9995 19.4318C25.9926 19.4306 25.9901 19.4333 25.992 19.4399C25.9992 19.4648 26.0158 19.4774 26.0418 19.4776C26.0486 19.4776 26.0542 19.4832 26.0542 19.49C26.0542 19.4929 26.0531 19.4959 26.0512 19.4981C26.0346 19.5172 26.0141 19.5247 25.9897 19.5206C25.953 19.5145 25.9164 19.5091 25.8796 19.5047C25.8557 19.5017 25.8325 19.4959 25.8098 19.4872C25.7887 19.4791 25.7665 19.4732 25.7435 19.4691C25.6364 19.4506 25.5238 19.4216 25.4057 19.3822C25.3644 19.3686 25.3213 19.3565 25.2766 19.3458C25.2743 19.3452 25.273 19.3437 25.2728 19.3414C25.2728 19.3405 25.2724 19.3397 25.272 19.3388C25.2711 19.3373 25.2698 19.3365 25.2681 19.3363C25.2385 19.3333 25.2134 19.3228 25.1923 19.3052C25.1959 19.3064 25.1972 19.3086 25.1966 19.3116C25.1955 19.3165 25.1932 19.3171 25.1898 19.3133L25.1578 19.2771C25.0763 19.1704 25.0256 19.0963 25.0056 19.0548C24.8061 18.6411 24.8148 18.2359 25.0322 17.8391C25.1187 17.6813 25.2377 17.5491 25.3895 17.4429Z" fill="#005FED"/>
<path d="M26.7783 18.3135C26.888 18.5909 26.9033 18.876 26.8243 19.1689C26.8194 19.1866 26.8081 19.1992 26.79 19.2066C26.7334 19.2298 26.6736 19.246 26.6104 19.2554C26.66 19.1287 26.6927 19.0041 26.7087 18.8819C26.7115 18.8617 26.7102 18.8396 26.7049 18.8153C26.7004 18.8181 26.6998 18.8127 26.7025 18.7993C26.7771 18.6616 26.8024 18.4996 26.7783 18.3135Z" fill="#005FED"/>
<path d="M27.1637 19.1343L27.0319 19.2003C27.0258 19.2035 27.0211 19.208 27.0177 19.2137L26.8965 19.4251C26.8582 19.4914 26.8105 19.535 26.7537 19.5563C26.7007 19.5763 26.6298 19.5412 26.5906 19.5352C26.5546 19.5299 26.5191 19.5224 26.4839 19.5131C26.4733 19.5103 26.4709 19.5041 26.4767 19.495C26.5108 19.4411 26.5416 19.3877 26.5693 19.3347C26.5874 19.3 26.578 19.2891 26.5412 19.3023C26.5218 19.3091 26.5033 19.3036 26.4858 19.2855L26.5889 19.2723C26.5848 19.2797 26.5851 19.2865 26.5893 19.2923C26.5938 19.2983 26.5997 19.301 26.6072 19.3006C26.6489 19.2983 26.69 19.2923 26.7307 19.2829C26.7509 19.2782 26.7775 19.274 26.8105 19.2704C26.8384 19.2672 26.865 19.2608 26.8902 19.2516C26.9278 19.2378 26.9653 19.2237 27.0021 19.2099C27.0081 19.2078 27.0132 19.2033 27.016 19.1973L27.092 19.0372C27.175 18.9783 27.2423 18.9189 27.294 18.859C27.3277 18.8199 27.3356 18.8245 27.3177 18.8729C27.293 18.9399 27.2593 19.0119 27.217 19.0888C27.2057 19.1094 27.1878 19.1247 27.1637 19.1343Z" fill="#005FED"/>
<path d="M13.3446 11.8052L13.3915 11.8544C13.3964 11.8593 13.3994 11.8656 13.4004 11.8727C13.4009 11.875 13.4011 11.8774 13.4011 11.8797C13.4013 11.8833 13.4026 11.8865 13.4045 11.8895C13.4675 11.9781 13.5284 12.0634 13.5869 12.1454C13.7445 12.3664 13.9018 12.5895 14.0592 12.8146C14.1339 12.9217 14.2159 13.0375 14.3055 13.162C14.4707 13.3922 14.6208 13.6068 14.7556 13.8054C14.7635 13.8169 14.7769 13.8231 14.7847 13.8338C14.8531 13.9287 14.9153 14.0286 14.971 14.1331H13.1547C13.1469 14.1329 13.1428 14.1369 13.1428 14.1448V14.3447C13.1428 14.353 13.1471 14.3571 13.1554 14.3569C13.2548 14.3543 13.3683 14.3584 13.4958 14.3688C13.6042 14.3779 13.6928 14.3939 13.7613 14.4171C13.9893 14.494 14.1194 14.6622 14.1518 14.9215C14.1614 14.9981 14.1663 15.1114 14.1669 15.2613C14.1682 15.5715 14.1684 15.8821 14.1677 16.1932C14.0979 16.1857 14.0183 16.1612 13.9668 16.1519C13.0832 15.9892 12.1138 16.2121 11.4613 16.8519C10.3271 17.9639 9.19233 19.0755 8.05711 20.1865C8.05179 20.1918 8.03816 20.198 8.01666 20.2046C7.95768 19.6433 8.05413 19.0574 8.32473 18.5584C8.37285 18.4696 8.45163 18.3518 8.56127 18.2052C10.1557 16.0718 11.7502 13.9385 13.3446 11.8052Z" fill="#002E6E"/>
<path d="M15.8987 15.4348C15.9725 15.5249 16.0409 15.6166 16.1035 15.7099C16.1569 15.7893 16.2355 15.9021 16.3394 16.048C16.4912 16.2609 16.6451 16.4764 16.8016 16.6946C16.8691 16.7889 16.9232 16.8815 16.9921 16.9733C17.0156 17.0046 17.043 17.0433 17.0745 17.0895C17.1007 17.1281 17.1295 17.1662 17.1603 17.2034C16.9568 17.3075 16.7533 17.374 16.5497 17.4027L15.8984 17.0599V15.4348H15.8987Z" fill="#002E6E"/>
<path d="M18.0268 19.2659C18.1337 19.9849 17.8197 20.766 17.0994 21.0155C16.892 21.0873 16.6674 21.1188 16.4253 21.1096C16.2848 21.1043 16.1541 21.069 16.043 20.9736C16.0896 20.9546 16.1948 20.9191 16.3589 20.8667C16.6755 20.7656 16.9663 20.5972 17.2314 20.3611C17.4924 20.1284 17.7064 19.8584 17.8733 19.551C17.9251 19.4558 17.9764 19.3606 18.0268 19.2659Z" fill="#002E6E"/>
<path d="M17.5189 21.5103C17.3722 22.0131 17.3505 22.516 17.4542 23.0189C17.5025 23.2533 17.5826 23.4762 17.6943 23.6881C17.6873 23.6857 17.6805 23.6828 17.6743 23.6796C17.3254 23.4977 16.9762 23.3159 16.627 23.1341C16.4531 23.0436 16.3251 22.9823 16.2432 22.9506C15.6549 22.7223 14.9676 22.7406 14.3662 22.9306C14.2452 22.8252 14.1164 22.7626 13.9797 22.7428C13.8573 22.7251 13.7441 22.714 13.6395 22.7098C13.426 22.701 13.1977 22.7481 12.9548 22.8507C12.9318 22.8605 12.9218 22.8831 12.9099 22.9037C12.8973 22.9248 12.8829 22.9442 12.8662 22.9619C12.7992 23.0323 12.7402 23.1007 12.6897 23.1669C12.6444 23.2263 12.6295 23.3085 12.645 23.4134C12.6778 23.637 12.8124 23.7735 13.0036 23.8756L11.3269 25.5123L9.53809 22.9789C9.58727 22.9667 9.65731 22.9467 9.7478 22.9186C11.1672 22.4786 12.5867 22.0391 14.0064 21.6003C14.0489 21.5873 14.0832 21.5669 14.109 21.539C15.0194 21.539 15.9306 21.5392 16.8429 21.5392C17.0407 21.5392 17.2662 21.5296 17.5189 21.5103Z" fill="#002E6E"/>
<path d="M14.0041 23.077C13.797 23.1738 13.6113 23.2975 13.447 23.4481C13.3795 23.5098 13.312 23.5733 13.2449 23.6382C13.124 23.5662 13.0248 23.4515 13.0554 23.3009C13.0933 23.1149 13.3507 23.0129 13.52 23.0042C13.668 22.9967 13.8604 23.0122 14.0041 23.077Z" fill="#002E6E"/>
<path d="M26.6554 17.3254L26.662 17.3399C26.665 17.3467 26.6633 17.3521 26.6567 17.3557C26.6445 17.3623 26.6388 17.3725 26.6394 17.3863C26.6411 17.4261 26.6345 17.4636 26.6196 17.4983C26.6083 17.5245 26.6026 17.5524 26.6024 17.5816C26.6024 17.5886 26.6049 17.5946 26.61 17.5995L26.778 17.757C26.828 17.8113 26.8725 17.8694 26.9119 17.9309C27.1246 18.2654 27.1819 18.6286 27.0835 19.0204C27.0825 19.0244 27.0829 19.0274 27.0848 19.0295C27.0865 19.0317 27.0891 19.034 27.0925 19.0368L27.0165 19.1969C27.0137 19.2029 27.0086 19.2073 27.0026 19.2095C26.9658 19.2233 26.9283 19.2373 26.8906 19.2512C26.8655 19.2603 26.8389 19.2667 26.811 19.2699C26.778 19.2735 26.7514 19.2778 26.7312 19.2825C26.6905 19.2919 26.6494 19.2978 26.6077 19.3002C26.6002 19.3006 26.5943 19.2978 26.5898 19.2919C26.5855 19.2861 26.5853 19.2793 26.5894 19.2718C26.5977 19.2674 26.6049 19.2618 26.6109 19.2548C26.6741 19.2454 26.7339 19.2293 26.7906 19.206C26.8087 19.1986 26.82 19.186 26.8249 19.1684C26.9038 18.8754 26.8885 18.5903 26.7789 18.3129C26.742 18.1858 26.6777 18.0757 26.586 17.9827C26.5768 17.9542 26.5604 17.9305 26.537 17.9116C26.5053 17.8858 26.4844 17.8675 26.4748 17.8566C26.4542 17.833 26.4316 17.8113 26.4073 17.7915C26.3892 17.7766 26.3722 17.7791 26.3554 17.7621C26.3471 17.7536 26.3379 17.7459 26.3275 17.7391C26.2949 17.7172 26.2624 17.6921 26.2298 17.6638C26.1981 17.6363 26.1631 17.6137 26.1246 17.5965C26.0867 17.5792 26.045 17.5613 25.9992 17.5426C25.9321 17.5149 25.8627 17.4951 25.791 17.4834C25.7827 17.4819 25.7746 17.4834 25.7669 17.4873C25.7456 17.4981 25.7239 17.4956 25.7018 17.4796C25.6937 17.4738 25.6837 17.4715 25.6739 17.4732C25.6588 17.476 25.6439 17.4745 25.6292 17.4683C25.5881 17.4517 25.5419 17.4517 25.4982 17.4468C25.4916 17.4462 25.4852 17.4472 25.4791 17.4502C25.4469 17.4666 25.4171 17.4638 25.3896 17.4423C25.6049 17.2884 25.8436 17.2098 26.1052 17.2066C26.2992 17.2043 26.4825 17.2439 26.6554 17.3254Z" fill="#0097FC"/>
<path d="M30.9614 17.46L30.906 21.5723C29.7648 21.7394 28.6251 21.9076 27.4871 22.0764C27.2953 22.1049 27.1542 22.1207 27.0641 22.1237C26.5461 22.1405 26.0266 21.9947 25.5853 21.7349C25.5795 21.7315 25.5757 21.7258 25.5748 21.7194L25.5723 21.7C26.4724 21.8416 27.2851 21.6576 28.01 21.1484C28.3149 20.9342 28.6062 20.6355 28.8208 20.3204C29.2966 19.621 29.4795 18.8381 29.369 17.9716L30.935 17.4885C30.9411 17.4866 30.9456 17.4825 30.9484 17.4766C30.9518 17.4687 30.956 17.4632 30.9614 17.46Z" fill="#003EDE"/>
<path d="M26.8943 17.4707C27.0911 17.6251 27.2305 17.819 27.3129 18.0526C27.3357 18.1173 27.3442 18.1818 27.3597 18.2478C27.3655 18.2719 27.3691 18.2972 27.371 18.3236C27.3742 18.3732 27.3764 18.4192 27.3772 18.4618C27.3778 18.4948 27.3764 18.5316 27.3732 18.5725C27.3725 18.5793 27.3776 18.5853 27.3847 18.5857C27.3862 18.5857 27.3879 18.5857 27.3893 18.5853L28.027 18.392C28.0713 19.1456 27.6766 19.733 27.0536 20.1103C26.3648 20.5276 25.47 20.4265 24.8572 19.9266C24.6997 19.798 24.5673 19.6487 24.46 19.4791C24.6882 19.4239 24.9207 19.3562 25.1577 19.2764L25.1896 19.3126C25.193 19.3164 25.1953 19.3158 25.1964 19.3109C25.197 19.3079 25.1958 19.3057 25.1921 19.3045C25.2132 19.3221 25.2383 19.3326 25.2679 19.3356C25.2696 19.3356 25.2709 19.3366 25.2718 19.3381C25.2722 19.339 25.2724 19.3398 25.2726 19.3407C25.2728 19.343 25.2741 19.3445 25.2765 19.3451C25.3212 19.3558 25.3642 19.3679 25.4055 19.3815C25.5236 19.4209 25.6363 19.4499 25.7434 19.4684C25.7664 19.4725 25.7885 19.4784 25.8096 19.4865C25.8324 19.4952 25.8556 19.501 25.8794 19.504C25.9162 19.5084 25.9529 19.5138 25.9895 19.5199C26.014 19.524 26.0344 19.5165 26.051 19.4974C26.0555 19.4923 26.0548 19.4844 26.0497 19.4799C26.0474 19.478 26.0446 19.4769 26.0416 19.4769C26.0157 19.4769 25.9991 19.4641 25.9918 19.4392C25.9899 19.4326 25.9925 19.4299 25.9993 19.4311C26.0204 19.435 26.0408 19.4314 26.0602 19.4203C26.067 19.4162 26.0742 19.415 26.0821 19.4165C26.0959 19.419 26.1057 19.4139 26.1117 19.4011C26.1149 19.3941 26.1194 19.3935 26.1249 19.3988C26.1264 19.4003 26.1283 19.4005 26.1309 19.3992C26.1319 19.3986 26.1326 19.3979 26.1332 19.3969C26.1394 19.3828 26.1453 19.37 26.1511 19.3585C26.1547 19.3513 26.1538 19.3447 26.1487 19.3387C26.1421 19.3313 26.1392 19.3226 26.1394 19.3128C26.1396 19.303 26.1351 19.2968 26.1257 19.2945L26.0998 19.2876C26.0812 19.283 26.0815 19.28 26.1004 19.2785C26.1221 19.2768 26.1543 19.2785 26.1969 19.2832C26.2871 19.2955 26.3836 19.2962 26.486 19.2849C26.5034 19.303 26.522 19.3085 26.5413 19.3017C26.5782 19.2885 26.5875 19.2994 26.5694 19.3341C26.5418 19.3871 26.5109 19.4405 26.4768 19.4944C26.4711 19.5035 26.4734 19.5097 26.4841 19.5125C26.5192 19.5218 26.5548 19.5293 26.5907 19.5346C26.6299 19.5406 26.7008 19.5757 26.7538 19.5557C26.8107 19.5344 26.8584 19.4908 26.8967 19.4245C26.8939 19.432 26.8941 19.4386 26.8973 19.4443C26.899 19.4478 26.9033 19.449 26.9069 19.4473C26.9073 19.4471 26.9077 19.4469 26.9082 19.4465C27.0127 19.3624 27.1026 19.2664 27.1777 19.1588C27.1822 19.1525 27.1837 19.1444 27.1818 19.1369C27.1809 19.1337 27.1749 19.1327 27.1639 19.1337C27.1879 19.1241 27.2058 19.1088 27.2171 19.0882C27.2595 19.0113 27.2931 18.9393 27.3178 18.8723C27.3357 18.8239 27.3278 18.8193 27.2942 18.8584C27.2424 18.9183 27.1752 18.9777 27.0921 19.0366C27.0887 19.0339 27.0862 19.0315 27.0845 19.0294C27.0825 19.0273 27.0821 19.0243 27.0832 19.0202C27.1815 18.6285 27.1243 18.2653 26.9116 17.9308C26.8722 17.8693 26.8277 17.8111 26.7777 17.7568L26.8943 17.4707Z" fill="#003EDE"/>
<path d="M26.7027 18.7996C26.6999 18.813 26.7005 18.8183 26.705 18.8155C26.6971 18.8151 26.6922 18.8162 26.6907 18.8187C26.6409 18.8996 26.5756 18.9652 26.4944 19.0154C26.3767 19.0885 26.2609 19.1283 26.1472 19.1349C26.0373 19.1413 25.9313 19.1189 25.8291 19.0676L26.7027 18.7996Z" fill="#003EDE"/>
<path d="M25.5898 27.8198C25.8528 27.9554 26.1147 28.0919 26.3757 28.2292C26.5975 28.3461 26.7225 28.413 26.7508 28.43C26.9656 28.5599 27.1558 28.7238 27.3208 28.9218L25.2803 29.5546C25.3771 28.9765 25.4749 28.4008 25.5734 27.8275C25.5741 27.8232 25.5796 27.8207 25.5898 27.8198Z" fill="#003EDE"/>
<path d="M21.4865 15.9685C21.5708 16.0028 21.6421 16.056 21.7004 16.1282C21.8635 16.3294 21.9979 16.6051 21.7913 16.825C21.6945 16.9281 21.5725 16.9983 21.4249 17.0356C21.1814 17.0971 20.9887 17.0286 20.8467 16.8304L21.4865 15.9685Z" fill="#0022A6"/>
<path d="M20.4831 17.3108C20.748 17.5716 21.0652 17.6746 21.4348 17.6199C21.5027 17.6099 21.5704 17.592 21.6379 17.5663C21.8223 17.496 22.0286 17.4366 22.227 17.4534C22.4938 17.4758 22.6739 17.6261 22.7678 17.9039C22.8334 18.0981 22.8374 18.2865 22.8455 18.5048C22.8632 18.9798 22.9635 19.4641 23.1583 19.9044C22.998 19.9549 22.8374 20.0034 22.6765 20.0498C22.6332 20.0624 22.5949 20.0841 22.5521 20.0943C22.4968 20.1077 22.4416 20.1233 22.3865 20.141C22.3318 20.1586 22.2764 20.1755 22.22 20.1918C22.1555 20.2108 22.0923 20.2334 22.0305 20.26L21.7872 20.1407C21.7863 19.6683 21.7878 19.1899 21.7916 18.706C21.7927 18.5661 21.7501 18.443 21.6639 18.3368C21.4254 18.0423 20.9477 18.0802 20.7688 18.4222C20.7243 18.5071 20.7022 18.5874 20.7024 18.6634C20.7028 18.9472 20.7026 19.2465 20.7018 19.561L19.9489 19.1752C19.9031 18.9161 19.795 18.6779 19.624 18.4607L20.4831 17.3108Z" fill="#0022A6"/>
<path d="M17.7083 23.696L17.956 23.8278L17.9702 24.1018C17.8687 23.9741 17.7809 23.8461 17.7073 23.7182C17.7041 23.7124 17.7043 23.7052 17.7083 23.696Z" fill="#0022A6"/>
<path d="M18.3691 24.0454L19.0117 24.3769C19.0136 24.4414 19.0181 24.5147 19.0253 24.5962C19.0383 24.7444 19.0896 24.877 19.1788 24.9941C19.2859 25.1349 19.4147 25.23 19.5838 25.2918C19.7886 25.3665 19.9972 25.3955 20.2095 25.3786C20.3847 25.3648 20.5423 25.2771 20.6768 25.1708C20.7003 25.1523 20.7086 25.1574 20.702 25.1866C20.6883 25.2451 20.7083 25.2881 20.7618 25.316C20.785 25.3282 20.8235 25.3378 20.8774 25.345L25.5533 27.8C25.5607 27.7896 25.5731 27.7962 25.5901 27.8198C25.5799 27.8207 25.5743 27.8232 25.5737 27.8275C25.4751 28.4008 25.3774 28.9765 25.2805 29.5546L22.4237 30.4405C22.4229 30.4228 22.4205 30.4113 22.4167 30.4058C21.802 29.5333 20.4607 27.6344 18.3923 24.7088L18.3691 24.0454Z" fill="#0022A6"/>
<path d="M19.4453 24.6106L20.2593 25.0364C20.07 25.0839 19.8897 25.0654 19.718 24.9811C19.5671 24.9072 19.4762 24.7837 19.4453 24.6106Z" fill="#0022A6"/>
<path d="M18.3487 8.19487L18.2663 14.2846C18.0372 14.2231 17.806 14.1835 17.5726 14.1661C17.2901 14.145 17.0646 14.1343 16.8966 14.1345C16.253 14.135 15.6113 14.135 14.9711 14.1345C14.9153 14.03 14.8532 13.9302 14.7848 13.8352C14.7769 13.8245 14.7635 13.8184 14.7557 13.8069C14.6209 13.6082 14.4708 13.3936 14.3056 13.1635C14.2159 13.0389 14.134 12.9231 14.0592 12.816C13.9019 12.591 13.7446 12.3678 13.587 12.1468C13.5285 12.0649 13.4676 11.9795 13.4046 11.8909C13.4026 11.8879 13.4014 11.8848 13.4011 11.8811C13.4011 11.8788 13.4011 11.8765 13.4005 11.8741C13.3994 11.8671 13.3965 11.8607 13.3916 11.8558L13.3447 11.8066C14.0335 10.8845 14.7227 9.96285 15.4123 9.04139C15.5021 8.92131 15.6399 8.79314 15.8253 8.65666C16.2692 8.33006 16.7664 8.13973 17.3169 8.08543C17.6772 8.04988 18.021 8.08629 18.3487 8.19508V8.19487Z" fill="#002187"/>
<path d="M17.1605 17.2036C17.1297 17.1664 17.1009 17.1282 17.0747 17.0897C17.0432 17.0435 17.0158 17.0048 16.9924 16.9735C16.9234 16.8817 16.8693 16.7891 16.8018 16.6948C16.6453 16.4765 16.4914 16.2611 16.3396 16.0482C16.2357 15.9023 16.1571 15.7895 16.1037 15.7101C16.0411 15.6168 15.9727 15.5251 15.8989 15.435L15.8984 14.584C15.8984 14.5759 15.9025 14.5717 15.9106 14.5715C16.1899 14.5638 16.4614 14.5832 16.7252 14.6298C17.2291 14.7188 17.6136 15.0424 17.7426 15.5393C17.8169 15.8263 17.8167 16.1783 17.7416 16.4674C17.6583 16.7878 17.4646 17.0333 17.1605 17.2036Z" fill="#002187"/>
<path d="M18.2309 17.5166C18.2188 17.5711 18.2169 17.6297 18.2252 17.6922L17.9482 17.6192C17.925 17.613 17.9248 17.6067 17.9478 17.5998L18.2309 17.5166Z" fill="#002187"/>
<path d="M18.3483 8.19434L19.2921 8.51497C19.2806 8.52498 19.2736 8.53499 19.2712 8.54478C19.2186 8.75322 19.1895 8.97677 19.1837 9.21544C19.1754 9.56162 19.2299 9.88993 19.3477 10.2003C19.3768 10.277 19.4362 10.4058 19.5261 10.5866C20.3179 12.1802 21.1095 13.7738 21.9004 15.3678C21.9057 15.3787 21.9123 15.3855 21.9202 15.3882L21.9854 15.5739C21.662 15.3697 21.3262 15.3205 20.9781 15.4259C20.5993 15.5409 20.2981 15.8496 20.1997 16.2392C20.1005 16.6316 20.2061 17.0051 20.4827 17.3106L19.6236 18.4605C19.3594 18.1405 19.0279 17.9614 18.6368 17.8228C18.4977 17.7736 18.3604 17.73 18.2248 17.6923C18.2165 17.6297 18.2184 17.5712 18.2305 17.5167C19.0587 17.2467 19.7792 16.7121 19.6097 15.7146C19.5073 15.111 19.0673 14.6079 18.5086 14.3748C18.427 14.3407 18.3461 14.3105 18.2659 14.2841L18.3483 8.19434Z" fill="#003BB9"/>
<path d="M21.486 15.9679L20.8462 16.8297C20.7723 16.7152 20.7344 16.5955 20.7325 16.471C20.7284 16.2174 20.942 16.042 21.1692 15.9691C21.2784 15.9342 21.384 15.9338 21.486 15.9679Z" fill="#003BB9"/>
<circle cx="20" cy="20" r="19.5" stroke="black" stroke-opacity="0.05"/>
</svg>
