<svg width="40" height="40" viewBox="0 0 40 40" fill="none" xmlns="http://www.w3.org/2000/svg">
<circle cx="20" cy="20" r="20" fill="#404048"/>
<g clip-path="url(#clip0_16525_14463)">
<path fill-rule="evenodd" clip-rule="evenodd" d="M9.5 13.7188L10.378 18.8925C10.5096 18.6451 10.7908 18.6853 11.0592 18.7974C11.2922 18.8936 11.572 19.0748 11.9178 19.394L12.2763 20.8901C11.9573 20.5317 11.7027 20.3128 11.4633 20.2033C11.3338 20.1426 11.0718 20.082 11.1602 20.4439C11.3366 21.1747 12.5645 21.8725 12.9845 23.335C13.3365 24.7602 12.6659 24.7486 12.1727 24.4552C11.9422 24.318 11.7405 24.1613 11.566 23.9127L10.9803 22.337C11.1807 22.6876 11.373 22.9402 11.7982 23.3142C11.9889 23.4817 12.3403 23.7206 12.1595 23.0701C11.8662 22.4152 11.2307 22.138 10.7499 21.0807L11.4356 25.1244L19.316 30.7775V22.0281L9.5 13.7188ZM13.9914 21.2257L13.3727 20.9437L13.81 22.4809L12.926 22.0421L11.5693 17.5755L12.4467 17.9008L13.0043 19.65L13.6216 19.908L13.1516 18.1569L14.1261 18.5178L15.4033 23.274L14.4284 22.7898L13.9914 21.2257ZM19.051 26.4235L18.0054 25.8352L17.1666 22.8561L17.1604 22.8528L17.2288 25.4016L16.4142 24.9467C16.6156 25.3394 16.7751 25.8359 16.8761 26.4213C17.1042 27.7439 16.8139 28.1926 16.1722 27.8334C15.5715 27.4975 15.1262 26.6989 14.9085 25.5048C14.694 24.3164 14.9037 23.7849 15.493 24.0026C15.7735 24.1058 16.0334 24.3347 16.2551 24.6732L15.1872 20.7153L15.9183 20.9872L16.6053 23.7252L16.6113 23.7279L16.5373 21.2159L17.3992 21.5345L18.2231 24.5211L18.2308 24.5249L18.1091 21.7978L19.051 22.1418V26.4235Z" fill="#E95328"/>
<path fill-rule="evenodd" clip-rule="evenodd" d="M24.5544 11.3455L23.6001 14.9147L21.8649 14.6885L22.105 10.8375L24.0273 11.0959L19.5921 9L10.752 13.8239L13.8436 16.1383L13.6766 15.8703C12.8994 14.6221 13.1736 13.3292 15.6224 12.0659C17.8739 10.9062 19.1023 11.4104 19.7491 12.6357C20.8931 14.8096 18.88 14.834 19.583 16.1082L17.2844 17.4447L17.1006 17.1332C16.1426 15.5147 17.8241 15.147 17.1733 13.997C17.0101 13.7094 16.694 13.5446 16.3795 13.714C16.0033 13.9165 16.0577 14.4282 16.3085 14.86L16.4899 15.1648L14.2187 16.4186L18.625 19.7165L17.7137 18.1725L19.9716 16.8352L21.2131 19.0883L19.3471 20.2572L20.4518 21.0835L29.4408 13.6555L24.5544 11.3455ZM23.2423 17.5971L21.35 17.3578L21.6562 15.3634L23.5867 15.6125L23.2423 17.5971ZM26.1261 15.2772H26.1278L24.8765 16.6658L25.2235 15.5153C24.824 15.4094 24.5283 15.0508 24.5283 14.6211C24.5283 14.1071 24.9475 13.6913 25.4642 13.6913C25.5871 13.6913 25.7087 13.7154 25.8222 13.7621C25.9357 13.8089 26.0389 13.8774 26.1257 13.9637C26.2126 14.0501 26.2814 14.1526 26.3284 14.2654C26.3753 14.3782 26.3994 14.4991 26.3993 14.6211C26.3993 14.877 26.2956 15.1091 26.1261 15.2772Z" fill="#FBBA00"/>
<path fill-rule="evenodd" clip-rule="evenodd" d="M20.9525 27.8835L21.2789 27.5776C21.5043 27.3658 21.7251 27.2391 21.6954 27.7008C21.6702 28.1164 21.4241 28.4789 21.2039 28.688L20.888 28.9827L20.9525 27.8835ZM28.5838 23.6483L28.1923 22.4816L27.5154 24.6339L26.2976 25.7576L27.5809 22.2508L26.8647 20.6613L28.1974 19.4053L28.5007 20.5038L29.1376 18.5223L30.1049 17.6102L30.3685 14.8804L20.2244 21.7151L20.0118 25.746L21.9919 23.8979C22.5412 23.3862 23.0589 23.1899 22.993 24.2266C22.9455 24.972 22.6922 25.5826 22.2615 26.1609L22.2609 26.1767C22.6904 25.8673 22.9234 26.2007 22.8887 26.7388C22.8026 28.0897 22.1582 28.8247 21.5095 29.4374L19.7278 31.1176L19.7017 31.6207L29.3835 25.1042L29.6157 22.6955L28.5838 23.6483ZM21.7981 25.5508C21.8218 25.1464 21.6301 25.208 21.4132 25.4115L21.081 25.7208L21.0198 26.7692L21.3227 26.4851C21.5363 26.287 21.7725 25.9613 21.7981 25.5508ZM29.6835 21.99L30.0432 18.2553L29.0932 20.8407L29.6835 21.99ZM24.954 23.3857C25.4379 22.9313 25.5276 22.0004 25.5809 21.4072C25.6191 20.9006 25.6697 19.9162 25.196 20.3638C24.7386 20.7978 24.6229 21.8408 24.5842 22.3486C24.5376 22.9319 24.5169 23.7953 24.954 23.3857ZM24.8508 24.6732C23.7502 25.7006 23.1753 25.3724 23.3071 23.553C23.4376 21.7316 24.1704 20.1005 25.3038 19.0201C26.4473 17.9317 27.045 18.308 26.8785 20.1852C26.7126 22.0583 25.9604 23.6373 24.8508 24.6732Z" fill="#E95328"/>
</g>
<circle cx="20" cy="20" r="19.5" stroke="black" stroke-opacity="0.05"/>
<defs>
<clipPath id="clip0_16525_14463">
<rect width="21" height="23" fill="white" transform="translate(9.5 9)"/>
</clipPath>
</defs>
</svg>
