<svg width="40" height="40" viewBox="0 0 40 40" fill="none" xmlns="http://www.w3.org/2000/svg">
<circle cx="20" cy="20" r="20" fill="#F6F8FA"/>
<g clip-path="url(#clip0_17752_43616)">
<path d="M19.9886 17.2569C19.9886 17.2576 19.989 17.2586 19.9896 17.2598L18.6487 18.443L16.1006 16.2476C16.0186 16.177 15.9779 16.1958 15.9785 16.304L16.0008 20.7133C16.0163 20.7275 16.0182 20.7502 16.0066 20.7813L14.1794 20.7793C14.1683 20.7793 14.1577 20.7749 14.1499 20.7671C14.1421 20.7593 14.1377 20.7486 14.1377 20.7376L14.1367 12.188C14.1366 12.181 14.1385 12.1741 14.1423 12.1681C14.146 12.1622 14.1514 12.1574 14.1578 12.1546C14.1642 12.1517 14.1713 12.1507 14.1782 12.1518C14.1852 12.1529 14.1916 12.1561 14.1968 12.1608L19.9886 17.2569Z" fill="#3D9BC3"/>
<path d="M24.0255 20.78C24.0352 20.7567 24.0329 20.7324 24.0187 20.7072C24.0026 20.6793 23.9945 20.6492 23.9945 20.6168L23.9955 16.2425C23.9961 16.1946 23.978 16.1858 23.9412 16.2163L21.3224 18.4302L19.9902 17.2596C19.9896 17.2583 19.9893 17.2573 19.9893 17.2567L25.7888 12.1518C25.7945 12.1469 25.8014 12.1437 25.8088 12.1426C25.8162 12.1414 25.8237 12.1424 25.8304 12.1454C25.8372 12.1483 25.8429 12.1532 25.8469 12.1593C25.8508 12.1655 25.8529 12.1727 25.8528 12.18L25.8518 20.7538C25.8518 20.7713 25.8431 20.78 25.8257 20.78H24.0255Z" fill="#D6484A"/>
<path d="M24.0254 20.7802H23.9488L21.3223 18.4304L23.9411 16.2165C23.9779 16.186 23.996 16.1948 23.9953 16.2427L23.9944 20.617C23.9944 20.6494 24.0025 20.6795 24.0186 20.7074C24.0328 20.7326 24.0351 20.7569 24.0254 20.7802Z" fill="#B72B36"/>
<path d="M18.6497 18.4428C18.6477 18.4422 18.6458 18.4418 18.6439 18.4418L16.0018 20.713L15.9795 16.3037C15.9789 16.1956 16.0195 16.1768 16.1016 16.2474L18.6497 18.4428Z" fill="#047DA3"/>
<path d="M19.9903 17.2598L21.3224 18.4303L23.949 20.7802L21.2876 20.7812C21.2882 20.6964 21.2533 20.642 21.1829 20.618C21.1532 20.6083 21.1264 20.5931 21.1025 20.5723L18.6436 18.442C18.6455 18.442 18.6474 18.4423 18.6494 18.443L19.9903 17.2598Z" fill="#4C2F3B"/>
<path d="M18.6431 18.4419L21.102 20.5722C21.1259 20.593 21.1527 20.6082 21.1824 20.6179C21.2528 20.6419 21.2877 20.6963 21.2871 20.7811H16.0068C16.0184 20.75 16.0165 20.7273 16.001 20.7131L18.6431 18.4419Z" fill="#2D3847"/>
<path d="M16.3022 27.1186C16.2538 27.8928 17.0453 28.0939 17.648 27.9054C18.0888 27.7684 18.2952 27.2623 18.0743 26.8582C17.967 26.662 17.792 26.5341 17.5491 26.4745C16.9804 26.3336 16.3565 26.3035 15.9118 25.8712C15.4855 25.4574 15.4855 24.654 15.8575 24.1984C16.1966 23.7798 16.6946 23.6603 17.2149 23.6739C18.0549 23.6962 18.7253 24.1712 18.7021 25.0543C18.7021 25.0692 18.6946 25.0766 18.6798 25.0766L18.0132 25.0756C17.9951 25.0756 17.9861 25.0666 17.9861 25.0484C17.9977 24.4267 17.4513 24.2159 16.9271 24.3034C16.4475 24.384 16.1569 24.8308 16.3613 25.2787C16.4543 25.4827 16.6394 25.6141 16.9165 25.6731C17.2323 25.7411 17.5336 25.8091 17.8204 25.8771C19.264 26.219 19.2185 28.1949 17.7865 28.5232C16.7537 28.7593 15.5572 28.3532 15.5804 27.1186C15.5811 27.0959 15.5927 27.0846 15.6153 27.0846L16.2712 27.0855C16.2932 27.0855 16.3035 27.0965 16.3022 27.1186Z" fill="#3D9BC3"/>
<path d="M28.5722 27.8708C28.9352 27.707 29.1296 27.399 29.1555 26.947C29.1561 26.934 29.1629 26.9275 29.1758 26.9275L29.8356 26.9237C29.8395 26.9237 29.8434 26.9245 29.8469 26.926C29.8505 26.9276 29.8538 26.9299 29.8565 26.9328C29.8592 26.9357 29.8613 26.9391 29.8627 26.9429C29.8641 26.9467 29.8648 26.9507 29.8647 26.9547C29.822 28.2827 28.5829 28.8189 27.4377 28.4983C26.4601 28.2254 26.246 27.1539 26.2247 26.2611C26.1995 25.247 26.401 24.0414 27.4764 23.75C28.6555 23.4304 29.7697 24.0016 29.8724 25.3082C29.8731 25.3211 29.8669 25.3276 29.854 25.3276L29.1777 25.3305C29.1648 25.3305 29.1577 25.324 29.1564 25.3111C29.1028 24.7742 28.857 24.4514 28.4191 24.3426C27.9754 24.2325 27.6169 24.306 27.3437 24.5631C26.8428 25.0333 26.9048 26.2592 26.9891 26.8974C27.0298 27.2018 27.1315 27.4528 27.2943 27.6503C27.5782 27.9951 28.1672 28.0534 28.5722 27.8708Z" fill="#D6484A"/>
<path d="M10.2279 25.3674C10.2279 25.2644 10.2088 25.2609 10.1707 25.3567L8.94219 28.4556C8.935 28.4739 8.92246 28.4897 8.90621 28.5007C8.88997 28.5118 8.87077 28.5178 8.85112 28.5178L8.30372 28.5187C8.28548 28.519 8.26757 28.5137 8.25235 28.5034C8.23713 28.4932 8.22531 28.4786 8.21846 28.4614L6.98413 25.3567C6.9415 25.2486 6.92019 25.2528 6.92019 25.3694V28.4954C6.92019 28.5016 6.91774 28.5075 6.91338 28.5119C6.90902 28.5163 6.9031 28.5187 6.89694 28.5187L6.2478 28.5178C6.22713 28.5178 6.2168 28.5074 6.2168 28.4867V23.8083C6.2168 23.7688 6.2365 23.749 6.2759 23.749L6.93569 23.751C6.97767 23.751 7.00642 23.7704 7.02192 23.8092L8.54109 27.6056C8.56434 27.6632 8.58759 27.6632 8.61085 27.6056L10.1339 23.7986C10.1399 23.7836 10.1501 23.7708 10.1632 23.7618C10.1764 23.7528 10.1918 23.748 10.2075 23.748L10.8828 23.749C10.9229 23.749 10.9429 23.7688 10.9429 23.8083L10.9439 28.4604C10.9439 28.4754 10.938 28.4897 10.9277 28.5003C10.9173 28.5109 10.9033 28.5168 10.8886 28.5168L10.2773 28.5207C10.2443 28.5207 10.2279 28.5042 10.2279 28.4711V25.3674Z" fill="#3D9BC3"/>
<path d="M11.6268 23.8034C11.6268 23.7947 11.6285 23.7862 11.6319 23.7782C11.6352 23.7703 11.6401 23.7631 11.6462 23.757C11.6523 23.7509 11.6596 23.7462 11.6676 23.743C11.6756 23.7397 11.6841 23.7382 11.6927 23.7383L13.4599 23.7441C13.9051 23.7458 14.3314 23.9396 14.645 24.283C14.9586 24.6264 15.1338 25.0912 15.1322 25.5753L15.1283 26.7041C15.1275 26.9438 15.0832 27.1811 14.998 27.4023C14.9128 27.6235 14.7884 27.8243 14.6319 27.9932C14.4753 28.1622 14.2897 28.296 14.0856 28.387C13.8816 28.478 13.663 28.5244 13.4425 28.5235L11.6753 28.5177C11.6582 28.5175 11.642 28.5105 11.63 28.4983C11.618 28.4861 11.6113 28.4697 11.6113 28.4526L11.6268 23.8034ZM12.3331 24.4193L12.3448 27.8465C12.3448 27.8614 12.3507 27.8757 12.3612 27.8863C12.3718 27.8969 12.386 27.9028 12.4009 27.9028L13.364 27.8989C13.5035 27.8985 13.6415 27.8652 13.7702 27.8008C13.8989 27.7364 14.0157 27.6423 14.114 27.5237C14.2122 27.4052 14.29 27.2646 14.3428 27.1099C14.3957 26.9553 14.4226 26.7896 14.422 26.6225L14.4181 25.6277C14.4169 25.2904 14.304 24.9672 14.1041 24.7293C13.9043 24.4914 13.6339 24.3582 13.3524 24.359L12.3893 24.3629C12.3744 24.3629 12.3601 24.3689 12.3496 24.3794C12.339 24.39 12.3331 24.4043 12.3331 24.4193Z" fill="#3D9BC3"/>
<path d="M21.2728 24.4037V28.475C21.2728 28.4856 21.2686 28.4957 21.2611 28.5032C21.2537 28.5106 21.2436 28.5148 21.233 28.5148L20.6052 28.5177C20.5947 28.5177 20.5846 28.5135 20.5771 28.5061C20.5697 28.4986 20.5655 28.4885 20.5655 28.4779L20.5684 24.4037C20.5684 24.3932 20.5642 24.3831 20.5568 24.3756C20.5493 24.3681 20.5392 24.3639 20.5287 24.3639L19.2653 24.3707C19.2548 24.3707 19.2447 24.3665 19.2372 24.3591C19.2298 24.3516 19.2256 24.3415 19.2256 24.3309L19.2236 23.7849C19.2236 23.7744 19.2278 23.7643 19.2353 23.7568C19.2427 23.7493 19.2528 23.7451 19.2634 23.7451H22.573C22.5835 23.7451 22.5936 23.7493 22.6011 23.7568C22.6085 23.7643 22.6127 23.7744 22.6127 23.7849L22.6137 24.3289C22.6137 24.3395 22.6095 24.3496 22.602 24.3571C22.5946 24.3646 22.5845 24.3688 22.5739 24.3688L21.3125 24.3639C21.302 24.3639 21.2919 24.3681 21.2844 24.3756C21.277 24.3831 21.2728 24.3932 21.2728 24.4037Z" fill="#D6484A"/>
<path d="M23.7646 25.7628H25.5638C25.5728 25.7628 25.5814 25.7664 25.5878 25.7727C25.5942 25.7791 25.5977 25.7878 25.5977 25.7968L25.5968 26.3515C25.5968 26.3605 25.5932 26.3691 25.5868 26.3755C25.5805 26.3819 25.5718 26.3855 25.5628 26.3855L23.7656 26.3864C23.7566 26.3864 23.748 26.39 23.7416 26.3964C23.7353 26.4028 23.7317 26.4114 23.7317 26.4204L23.7298 27.863C23.7298 27.8675 23.7306 27.8719 23.7323 27.876C23.7341 27.8801 23.7365 27.8839 23.7397 27.887C23.7428 27.8902 23.7466 27.8927 23.7507 27.8944C23.7548 27.8961 23.7592 27.897 23.7637 27.897H25.8525C25.8615 27.897 25.8702 27.9006 25.8765 27.907C25.8829 27.9133 25.8864 27.922 25.8864 27.931L25.8826 28.4818C25.8826 28.4863 25.8817 28.4907 25.88 28.4948C25.8783 28.4989 25.8758 28.5027 25.8726 28.5058C25.8695 28.509 25.8657 28.5115 25.8616 28.5132C25.8575 28.5149 25.8531 28.5158 25.8487 28.5158H23.0613C23.0568 28.5158 23.0524 28.5149 23.0483 28.5132C23.0442 28.5115 23.0404 28.509 23.0373 28.5058C23.0341 28.5027 23.0316 28.4989 23.0299 28.4948C23.0282 28.4907 23.0273 28.4863 23.0273 28.4818V23.7791C23.0273 23.7701 23.0309 23.7615 23.0373 23.7551C23.0436 23.7487 23.0523 23.7451 23.0613 23.7451H25.8167C25.8257 23.7451 25.8343 23.7487 25.8407 23.7551C25.847 23.7615 25.8506 23.7701 25.8506 23.7791L25.8583 24.3338C25.8583 24.3428 25.8548 24.3515 25.8484 24.3578C25.8421 24.3642 25.8334 24.3678 25.8244 24.3678L23.7646 24.3688C23.7602 24.3688 23.7558 24.3697 23.7517 24.3714C23.7476 24.3731 23.7438 24.3756 23.7407 24.3787C23.7375 24.3819 23.735 24.3856 23.7333 24.3898C23.7316 24.3939 23.7307 24.3983 23.7307 24.4028V25.7288C23.7307 25.7378 23.7343 25.7464 23.7407 25.7528C23.747 25.7592 23.7557 25.7628 23.7646 25.7628Z" fill="#D6484A"/>
<path d="M33.0207 26.3835L31.2051 26.3874C31.1966 26.3874 31.1884 26.3908 31.1825 26.3968C31.1765 26.4028 31.1731 26.4109 31.1731 26.4194L31.175 28.4837C31.175 28.4922 31.1717 28.5004 31.1657 28.5064C31.1597 28.5124 31.1515 28.5158 31.1431 28.5158L30.4978 28.5187C30.4893 28.5187 30.4812 28.5153 30.4752 28.5093C30.4692 28.5033 30.4658 28.4952 30.4658 28.4866L30.4668 23.7772C30.4668 23.7687 30.4702 23.7605 30.4762 23.7545C30.4821 23.7485 30.4903 23.7451 30.4988 23.7451H31.1431C31.1515 23.7451 31.1597 23.7485 31.1657 23.7545C31.1717 23.7605 31.175 23.7687 31.175 23.7772L31.1741 25.7307C31.1741 25.7349 31.1749 25.7391 31.1765 25.743C31.1781 25.7469 31.1805 25.7504 31.1834 25.7534C31.1864 25.7564 31.1899 25.7587 31.1938 25.7603C31.1977 25.7619 31.2018 25.7628 31.206 25.7628H33.0207C33.0249 25.7628 33.0291 25.7619 33.0329 25.7603C33.0368 25.7587 33.0403 25.7564 33.0433 25.7534C33.0463 25.7504 33.0486 25.7469 33.0502 25.743C33.0518 25.7391 33.0527 25.7349 33.0527 25.7307L33.0517 23.7752C33.0517 23.771 33.0525 23.7668 33.0541 23.763C33.0557 23.7591 33.0581 23.7555 33.0611 23.7526C33.064 23.7496 33.0676 23.7472 33.0714 23.7456C33.0753 23.744 33.0795 23.7432 33.0837 23.7432L33.7309 23.7461C33.7394 23.7461 33.7475 23.7495 33.7535 23.7555C33.7595 23.7615 33.7628 23.7696 33.7628 23.7781V28.4828C33.7628 28.4913 33.7595 28.4994 33.7535 28.5054C33.7475 28.5114 33.7394 28.5148 33.7309 28.5148L33.0837 28.5187C33.0752 28.5187 33.0671 28.5153 33.0611 28.5093C33.0551 28.5033 33.0517 28.4952 33.0517 28.4866L33.0527 26.4156C33.0527 26.4114 33.0518 26.4072 33.0502 26.4033C33.0486 26.3994 33.0463 26.3959 33.0433 26.3929C33.0403 26.3899 33.0368 26.3876 33.0329 26.3859C33.0291 26.3843 33.0249 26.3835 33.0207 26.3835Z" fill="#D6484A"/>
<path d="M12.333 24.4191C12.333 24.4042 12.3389 24.3898 12.3495 24.3793C12.36 24.3687 12.3743 24.3628 12.3892 24.3628L13.3522 24.3589C13.6338 24.3581 13.9041 24.4913 14.104 24.7292C14.3038 24.9671 14.4168 25.2902 14.418 25.6276L14.4219 26.6223C14.4225 26.7895 14.3956 26.9552 14.3427 27.1098C14.2899 27.2644 14.2121 27.4051 14.1138 27.5236C14.0156 27.6421 13.8988 27.7363 13.7701 27.8007C13.6414 27.865 13.5034 27.8984 13.3639 27.8988L12.4008 27.9027C12.3859 27.9027 12.3716 27.8967 12.3611 27.8862C12.3506 27.8756 12.3446 27.8613 12.3446 27.8463L12.333 24.4191Z" fill="white"/>
</g>
<circle cx="20" cy="20" r="19.5" stroke="black" stroke-opacity="0.05"/>
<defs>
<clipPath id="clip0_17752_43616">
<rect width="28" height="17" fill="white" transform="translate(6 11.8936)"/>
</clipPath>
</defs>
</svg>
