<svg width="40" height="40" viewBox="0 0 40 40" fill="none" xmlns="http://www.w3.org/2000/svg">
<circle cx="20" cy="20" r="20" fill="#009CD9"/>
<path d="M14.9727 19.9826L12.2564 25.0088L5 21.2682L8.38722 19.6343C8.44491 19.7159 8.52146 19.7824 8.61035 19.8281C8.69924 19.8738 8.79786 19.8974 8.8978 19.8968C8.99119 19.8969 9.0834 19.8759 9.16755 19.8354C9.25171 19.7949 9.32566 19.736 9.38388 19.6629L11.3915 20.7862C11.3663 20.8535 11.3535 20.9248 11.3537 20.9966C11.354 21.1616 11.4197 21.3198 11.5365 21.4364C11.6533 21.553 11.8116 21.6185 11.9766 21.6185C12.1417 21.6185 12.2999 21.553 12.4167 21.4364C12.5335 21.3198 12.5993 21.1616 12.5995 20.9966C12.5981 20.8775 12.5627 20.7613 12.4974 20.6616L14.1762 19.1523C14.2331 19.2354 14.3093 19.3034 14.3982 19.3506C14.4871 19.3977 14.5862 19.4225 14.6868 19.423L14.9727 19.9826Z" fill="white"/>
<path d="M8.29721 19.4431C8.28045 19.3861 8.27186 19.3269 8.27168 19.2675C8.27168 19.1023 8.33733 18.9438 8.45415 18.827C8.57097 18.7102 8.7294 18.6446 8.8946 18.6446C8.97636 18.6446 9.0573 18.6607 9.13282 18.692C9.20834 18.7233 9.27695 18.7692 9.33471 18.8271C9.39247 18.8849 9.43827 18.9536 9.46946 19.0292C9.50065 19.1047 9.51664 19.1857 9.51651 19.2675C9.51586 19.3371 9.50341 19.4062 9.47973 19.4717L11.4873 20.595C11.5455 20.5219 11.6195 20.4629 11.7036 20.4224C11.7878 20.3819 11.88 20.361 11.9734 20.3611C12.1145 20.361 12.2513 20.4089 12.3615 20.497L14.0883 18.9458C14.0747 18.8941 14.0678 18.841 14.0678 18.7875C14.0677 18.6631 14.105 18.5415 14.1747 18.4385C14.2444 18.3355 14.3434 18.2557 14.459 18.2095L14.4518 18.1881L8.90585 16.1958L5.11218 20.981L8.29721 19.4431Z" fill="white"/>
<path d="M15.3127 18.7916C15.3126 18.8514 15.304 18.9109 15.2872 18.9683L18.0535 20.3111C18.1112 20.2294 18.1877 20.1628 18.2766 20.1169C18.3654 20.071 18.4641 20.0473 18.5641 20.0477C18.6595 20.0476 18.7537 20.0696 18.8393 20.112C18.9248 20.1543 18.9995 20.2158 19.0573 20.2917L21.0762 19.2164C21.0544 19.1527 21.0433 19.0857 21.0435 19.0183C21.0435 18.8533 21.109 18.695 21.2256 18.5782C21.3422 18.4614 21.5004 18.3957 21.6654 18.3954C21.8306 18.3954 21.989 18.461 22.1059 18.5779C22.2227 18.6947 22.2883 18.8531 22.2883 19.0183C22.2884 19.1319 22.2569 19.2433 22.1974 19.34L23.8977 20.7982C23.974 20.7295 24.0663 20.681 24.1662 20.6573L24.7105 20.0252L21.9718 15L15.2218 18.4648C15.2822 18.563 15.3138 18.6763 15.3127 18.7916Z" fill="white"/>
<path d="M23.6884 21.2598C23.6873 21.1525 23.7144 21.0469 23.767 20.9534L22.0626 19.4911C21.9505 19.5851 21.8087 19.6365 21.6623 19.6361C21.567 19.6362 21.4729 19.6143 21.3874 19.5722C21.3018 19.53 21.2271 19.4687 21.1691 19.3931L19.1513 20.4684C19.1726 20.5323 19.1837 20.5991 19.184 20.6665C19.184 20.8317 19.1183 20.9901 19.0015 21.1069C18.8847 21.2238 18.7262 21.2894 18.561 21.2894C18.3958 21.2894 18.2374 21.2238 18.1206 21.1069C18.0038 20.9901 17.9381 20.8317 17.9381 20.6665C17.9385 20.607 17.9474 20.5478 17.9647 20.4908L15.1973 19.147C15.1547 19.2078 15.1014 19.2604 15.04 19.3022L18.6141 23.8025L24.0396 21.8173C23.9349 21.7664 23.8464 21.6873 23.7844 21.5887C23.7223 21.4902 23.689 21.3762 23.6884 21.2598Z" fill="white"/>
<path d="M24.7638 20.8322L27.7191 19.4567C27.704 19.4025 27.6961 19.3465 27.6956 19.2902C27.6956 19.125 27.7612 18.9666 27.878 18.8498C27.9948 18.7329 28.1533 18.6673 28.3185 18.6673C28.4837 18.6673 28.6421 18.7329 28.759 18.8498C28.8758 18.9666 28.9414 19.125 28.9414 19.2902C28.9408 19.3599 28.9284 19.429 28.9046 19.4945L30.9327 20.6177C30.9908 20.5442 31.0648 20.4848 31.1492 20.4439C31.2335 20.4031 31.3261 20.3819 31.4198 20.3819C31.5071 20.3815 31.5934 20.3995 31.6733 20.4347C31.7531 20.4699 31.8247 20.5215 31.8834 20.5861L35 18.6071L28.3522 16.145L24.6106 20.7056C24.6682 20.7392 24.7199 20.7819 24.7638 20.8322Z" fill="white"/>
<path d="M31.9986 20.7675C32.0312 20.8444 32.0478 20.927 32.0476 21.0105C32.0473 21.1755 31.9816 21.3337 31.8648 21.4503C31.748 21.5669 31.5897 21.6324 31.4247 21.6324C31.2598 21.6324 31.1016 21.5669 30.985 21.4503C30.8683 21.3336 30.8028 21.1755 30.8028 21.0105C30.8035 20.9409 30.8156 20.872 30.8385 20.8063L28.8105 19.683C28.7523 19.7563 28.6782 19.8156 28.5939 19.8563C28.5095 19.8969 28.4171 19.918 28.3234 19.9179C28.2228 19.9174 28.1237 19.8926 28.0348 19.8455C27.9458 19.7983 27.8697 19.7303 27.8128 19.6473L24.8872 21.0095C24.9233 21.0901 24.9421 21.1775 24.9423 21.2658C24.9418 21.3618 24.9195 21.4565 24.877 21.5426L31.6432 24.9665L34.9467 18.9028L31.9986 20.7675Z" fill="white"/>
<circle cx="20" cy="20" r="19.5" stroke="black" stroke-opacity="0.05"/>
</svg>
