<svg width="40" height="40" viewBox="0 0 40 40" fill="none" xmlns="http://www.w3.org/2000/svg">
<circle cx="20" cy="20" r="20" fill="#E60013"/>
<g clip-path="url(#clip0_27956_47932)">
<path d="M25.9032 14.6956H23.8065C23.6452 14.6956 23.5484 14.7881 23.5484 14.9422C23.5484 18.6108 23.5484 21.4162 23.5484 23.3892C23.5161 25.8555 22.4194 27.5511 20.2581 28.4759C18.4194 29.2466 16.5806 29.1233 14.8065 28.0751C13 26.9961 12.0968 25.3006 12.0323 22.9884C12 21.262 12 18.025 12 13.2775C12 13.0925 12.0968 13 12.2903 13H17.9032C18.0968 13 18.1935 13.0925 18.1935 13.2775C18.1613 17.9326 18.1613 21.1387 18.1935 22.8651C18.1935 23.8208 18.5161 24.7457 19.0645 25.6397C19.3548 26.1021 19.2258 26.3796 18.6774 26.5029L18.3871 26.5645C17.871 26.6879 17.3226 26.4104 17.129 25.9171C16.6452 24.7457 16.4194 23.42 16.4194 21.9403C16.4194 18.4258 16.4194 16.1137 16.4516 14.973C16.4516 14.7881 16.3226 14.6647 16.129 14.6647H14.1935C13.9677 14.6647 13.8387 14.7881 13.8387 15.0039C13.8387 18.6724 13.871 21.2929 13.871 22.8651C13.871 24.8381 14.6452 26.1638 16.2258 26.8728C19.5484 28.3834 21.8065 25.8555 21.8065 22.8651C21.8065 19.7514 21.8065 16.5761 21.7742 13.3391C21.7742 13.1233 21.9032 13 22.129 13H27.7742C27.7742 13 28 13.0925 28 13.2158C28 15.9904 28 18.7341 28.0323 21.5395C28.0323 23.6975 27.7742 25.2697 27.2581 26.2563C26.3871 27.8902 24.8065 28.815 22.5161 29.0308C22.1613 29.0617 22.0968 28.9383 22.2903 28.6609C22.9355 27.7977 23.8065 27.0578 24.871 26.4721C25.1935 26.2871 25.5484 25.7322 25.9032 24.7765C26.0645 24.3449 26.1613 23.6975 26.1613 22.8651C26.1613 18.6108 26.1613 15.9904 26.1613 15.0039C26.1613 14.8189 26.0645 14.7264 25.871 14.7264L25.9032 14.6956Z" fill="white"/>
</g>
<circle cx="20" cy="20" r="19.5" stroke="black" stroke-opacity="0.05"/>
<defs>
<clipPath id="clip0_27956_47932">
<rect width="16" height="16" fill="white" transform="translate(12 13)"/>
</clipPath>
</defs>
</svg>
