<svg width="40" height="40" viewBox="0 0 40 40" fill="none" xmlns="http://www.w3.org/2000/svg">
<circle cx="20" cy="20" r="20" fill="black"/>
<g clip-path="url(#clip0_14382_18854)">
<path fill-rule="evenodd" clip-rule="evenodd" d="M26.7323 12.9286C26.064 12.3571 25.3002 11.8571 24.4886 11.4999C23.9874 11.2619 23.4622 11.0476 22.9133 10.9048C21.9823 10.6429 21.0037 10.5 19.9774 10.5C18.9509 10.5 17.9723 10.6429 17.0414 10.9048C16.4924 11.0476 15.9674 11.2619 15.4661 11.4762C14.6306 11.8571 13.8669 12.3571 13.1985 12.9286C11.2173 14.619 10 17.0713 10 19.7619C10 22.5476 11.1697 25.0714 13.1985 26.7856C13.8669 27.3571 14.6306 27.8333 15.4661 28.2381C15.9673 28.4523 16.4924 28.6429 17.0414 28.7857C17.9485 29.0238 18.9271 29.1667 19.9774 29.1667C21.0038 29.1667 21.9823 29.0238 22.9133 28.7857C23.4622 28.6429 23.9873 28.4524 24.4886 28.2381C25.3241 27.8572 26.0878 27.381 26.7323 26.8095C28.7612 25.0714 29.9546 22.5476 29.9546 19.7619C29.9546 17.0714 28.7373 14.6428 26.7323 12.9286ZM15.4661 27.738C14.6545 27.3809 13.8669 26.8571 13.1985 26.2142C11.5515 24.6667 10.4297 22.3094 10.4774 19.7857C10.5252 17.2381 11.5754 15.0952 13.1985 13.5476C13.8669 12.9047 14.6306 12.3809 15.4661 11.9762C15.6093 11.8809 15.7764 11.8333 15.9196 11.7619C15.7764 11.8571 15.6093 11.9524 15.4661 12.0477C14.6306 12.619 13.8429 13.2857 13.1985 14.0714C11.9335 15.5476 11.0981 17.4285 11.0742 19.7857C11.0265 22.1429 11.8857 24.0952 13.1985 25.619V25.5951C13.8669 26.3809 14.6306 27.0476 15.4661 27.5951C15.6093 27.7142 15.7764 27.8095 15.9196 27.9047C15.7764 27.8571 15.6093 27.8095 15.4661 27.738ZM17.0414 23.3571C16.4208 22.9999 15.8242 22.4047 15.4661 21.6904C15.1796 21.119 14.9887 20.4762 14.9887 19.8094C15.0126 19.1428 15.1796 18.5238 15.4661 17.9762C15.8241 17.2619 16.397 16.6904 17.0414 16.2856C17.304 16.119 17.5666 16 17.853 15.9047C17.5666 16.0952 17.2802 16.3095 17.0414 16.5476C16.2298 17.3094 15.7525 18.3095 15.7286 19.8094C15.7048 21.2857 16.2298 22.2857 17.0414 23.0476C17.2802 23.2857 17.5666 23.4999 17.853 23.6904C17.5905 23.619 17.304 23.4999 17.0414 23.3571ZM17.0414 22.357C16.5402 21.6666 16.2298 20.8095 16.2298 19.8094C16.2298 18.8095 16.5401 17.9523 17.0414 17.2619C17.7575 16.3095 18.8317 15.7143 19.9774 15.5715C21.123 15.7143 22.1972 16.3095 22.9133 17.2619C23.4145 17.9286 23.7247 18.8095 23.7247 19.8094C23.7247 20.8095 23.4145 21.6666 22.9133 22.357C22.1972 23.3095 21.123 23.8809 19.9774 24C18.8317 23.8809 17.7575 23.3095 17.0414 22.357ZM22.9133 23.3571C22.6506 23.4999 22.3643 23.619 22.1016 23.6905C22.3881 23.4999 22.6506 23.2857 22.9133 23.0476C23.7247 22.2857 24.2499 21.2857 24.2261 19.8095C24.2021 18.3095 23.7247 17.3096 22.9133 16.5477C22.6506 16.3095 22.3881 16.0953 22.1016 15.9048C22.3643 16.0001 22.6506 16.119 22.9133 16.2857C23.5577 16.6905 24.1067 17.262 24.4886 17.9762C24.7751 18.5001 24.9421 19.1428 24.9421 19.8095C24.966 20.5 24.7751 21.1429 24.4886 21.6904C24.1067 22.4047 23.5339 23 22.9133 23.3571ZM26.7323 26.2142C26.064 26.8571 25.3002 27.3809 24.4886 27.738C24.3454 27.8095 24.1783 27.8571 24.0112 27.9047C24.1783 27.8095 24.3454 27.7144 24.4886 27.5952C25.3002 27.0476 26.0878 26.3809 26.7323 25.619C28.0451 24.0952 28.9044 22.1429 28.8805 19.7857C28.8328 17.4286 27.9974 15.5476 26.7323 14.0715C26.0878 13.2857 25.3241 12.6191 24.4886 12.0715C24.3454 11.9525 24.1783 11.8572 24.0112 11.7619C24.1783 11.8334 24.3454 11.9048 24.4886 11.9762C25.3002 12.381 26.0878 12.9286 26.7323 13.5477C28.3554 15.0952 29.4295 17.2381 29.4773 19.7857C29.525 22.3094 28.4031 24.6667 26.7323 26.2142Z" fill="white"/>
</g>
<circle cx="20" cy="20" r="19.5" stroke="black" stroke-opacity="0.05"/>
<defs>
<clipPath id="clip0_14382_18854">
<rect width="20" height="20" fill="white" transform="translate(10 10)"/>
</clipPath>
</defs>
</svg>
