<svg width="40" height="40" viewBox="0 0 40 40" fill="none" xmlns="http://www.w3.org/2000/svg">
<circle cx="20" cy="20" r="20" fill="#F15A22"/>
<g clip-path="url(#clip0_14382_19749)">
<path d="M29.6338 18.4511L31.8866 17.2509L30.1158 17.246L29.6338 18.4511Z" fill="#00A7E1"/>
<path d="M13.5096 21.4811H11.4044L11.7684 20.5662H13.6474L14.0409 19.543H12.152L12.5505 18.5347H14.4295L14.8574 17.4427H12.9735H11.3109L9.39258 22.5829H13.0817L13.5096 21.4811Z" fill="white"/>
<path d="M14.0852 21.4811L13.6475 22.5878C14.6214 22.6911 15.4527 22.578 15.4527 22.578C16.0282 22.5238 16.9972 22.3369 17.5186 21.0826L18.9746 17.4427H17.312L16.038 20.5907C16.038 20.5907 15.8363 21.2745 15.1084 21.4565C14.8477 21.5253 14.3754 21.4958 14.0852 21.4811Z" fill="white"/>
<path d="M5.68387 21.4811L5.24609 22.5878C6.22002 22.6911 7.04639 22.578 7.04639 22.578C7.62189 22.5238 8.5909 22.3369 9.1123 21.0826L10.5683 17.4427H8.90079L7.62681 20.5907C7.62681 20.5907 7.42514 21.2745 6.69715 21.4565C6.44629 21.5253 5.96916 21.4958 5.68387 21.4811Z" fill="white"/>
<path d="M22.5307 17.4427L21.3108 20.7383C21.0206 21.4761 20.755 21.5155 20.3516 21.5155C19.8794 21.5155 19.9975 21.1269 20.0614 20.9006L21.3649 17.4427H19.7171L18.3743 21.058C17.907 22.3468 18.9744 22.6173 19.5007 22.6173H20.3615C20.8337 22.6173 22.3192 22.4894 22.7717 21.2745L24.1883 17.4476H22.5307V17.4427Z" fill="white"/>
<path d="M31.0748 18.5445H29.5844L28.0596 22.6321H29.5549L31.0748 18.5445Z" fill="white"/>
<path d="M34.4392 18.5445C33.6374 18.5445 33.1701 19.0069 32.9242 19.302L33.2242 18.5445H31.7338L30.209 22.632H31.7043L32.4323 20.694C32.8061 19.8234 33.603 19.7693 33.7407 19.7693H34.3064L34.754 18.5445H34.4392Z" fill="white"/>
<path d="M26.5 21.1614C26.5 21.1614 26.3033 21.7664 25.4572 21.7664C25.3294 21.7664 25.1523 21.6926 25.1818 21.4614C25.2113 21.2056 25.3785 21.1073 25.5901 21.063L26.6083 20.8712L26.5 21.1614ZM25.3736 20.3252C24.4243 20.4285 23.6619 20.8613 23.5635 21.6729C23.5143 22.0763 23.7111 22.6321 24.7784 22.6321C24.7784 22.6321 25.5802 22.6616 26.077 22.3222L25.959 22.637H27.4199L28.4233 19.8923L28.4774 19.7497C28.6151 19.3758 28.6102 18.5495 26.8493 18.5101C26.1065 18.4954 24.8916 18.638 24.1734 19.8923H25.6294C25.6294 19.8923 25.836 19.3562 26.505 19.3562C26.505 19.3562 26.9231 19.3365 26.9575 19.6119C26.9575 19.6119 27.0067 20.0153 26.3918 20.1678C26.0327 20.2514 25.3736 20.3252 25.3736 20.3252Z" fill="white"/>
</g>
<circle cx="20" cy="20" r="19.5" stroke="black" stroke-opacity="0.05"/>
<defs>
<clipPath id="clip0_14382_19749">
<rect width="30" height="5.88293" fill="white" transform="translate(5 17)"/>
</clipPath>
</defs>
</svg>
