<svg width="40" height="40" viewBox="0 0 40 40" fill="none" xmlns="http://www.w3.org/2000/svg">
<circle cx="20" cy="20" r="20" fill="#1D2087"/>
<path d="M32.9972 15.4451L32.982 15.4281L32.9489 15.4236C32.2816 15.3448 30.613 15.1961 29.9878 15.1549C29.9551 15.1392 29.9279 15.1139 29.9099 15.0823C26.9882 9.31159 19.5802 7.53639 14.4149 11.4997C12.9074 12.6495 11.7477 14.1943 11.0643 15.9628C11.0538 15.9791 11.0389 15.9922 11.0213 16.0004C10.7588 15.9583 10.4955 15.927 10.2322 15.9108L9.67061 15.8607C9.25189 15.8236 8.83007 15.8435 8.41669 15.9198C7.59178 16.0721 7.03916 16.5468 7.00423 17.4308C6.99078 17.6627 7.00946 17.8954 7.05976 18.1222C7.23889 18.8829 7.44191 19.6768 7.66881 20.5038C7.67059 20.5123 7.67535 20.5199 7.68224 20.5253C7.68641 20.5288 7.69123 20.5314 7.69641 20.533C7.7016 20.5346 7.70706 20.5352 7.71247 20.5347C7.71788 20.5342 7.72314 20.5326 7.72794 20.5301C7.73275 20.5276 7.737 20.5241 7.74046 20.5199L9.1565 18.8952C9.17046 18.88 9.18922 18.8701 9.20961 18.8672C9.23001 18.8643 9.25079 18.8685 9.26846 18.8791L10.3486 19.5481C10.3641 19.5682 10.3729 19.5926 10.3737 19.618C10.4185 22.29 11.2983 24.5853 13.0132 26.5038C14.4253 28.0802 16.2911 29.1804 18.3541 29.653C20.7777 30.1904 23.1047 29.9115 25.3349 28.8164C25.37 28.8086 25.4067 28.8111 25.4405 28.8236L27.5534 30.1492C27.5666 30.161 27.5818 30.1704 27.5982 30.1769C27.6073 30.1817 27.6169 30.1856 27.6269 30.1886C27.6994 30.2074 27.7164 30.1886 27.6698 30.125C27.215 29.4921 26.8561 28.7955 26.6049 28.0578C26.8181 27.8918 27.0336 27.7183 27.2516 27.5374C30.2252 25.0663 31.5507 21.24 30.7303 17.4227C30.7243 17.3889 30.7243 17.3544 30.7303 17.3206L32.9892 15.4603C32.9911 15.4607 32.9931 15.4605 32.9948 15.4597C32.9966 15.4588 32.998 15.4575 32.999 15.4557C32.9999 15.454 33.0002 15.452 32.9999 15.4501C32.9996 15.4482 32.9986 15.4464 32.9972 15.4451ZM30.6784 17.2928L27.6591 19.7765C27.6009 19.824 27.6098 19.8491 27.6851 19.8508L30.0693 19.9109C30.1446 19.9109 30.1508 19.935 30.0872 19.9753C29.142 20.5833 28.3073 21.3477 27.6188 22.236C26.2454 23.9963 25.8905 25.9506 26.5538 28.099C26.7687 28.7502 27.0758 29.3673 27.4656 29.9315C27.4836 29.9581 27.4941 29.989 27.4961 30.0211C27.4969 30.0317 27.4987 30.0422 27.5015 30.0524L25.4459 28.7716C20.4338 25.681 15.4208 22.5916 10.4068 19.5033C10.4016 19.5017 10.396 19.5017 10.3907 19.5033H10.3782L9.27294 18.7967C9.25282 18.7838 9.22879 18.7786 9.20515 18.7818C9.18151 18.7851 9.15982 18.7967 9.14396 18.8146L7.78076 20.3757C7.77385 20.3837 7.76435 20.3891 7.75389 20.3909C7.74765 20.3925 7.74116 20.3928 7.7348 20.3918C7.72844 20.3908 7.72235 20.3885 7.7169 20.3851C7.71146 20.3816 7.70677 20.3771 7.70312 20.3718C7.69947 20.3665 7.69694 20.3605 7.69568 20.3542C7.55118 19.7171 7.39264 19.0848 7.22008 18.4572C6.93257 17.4155 7.06244 16.3076 8.28234 16.0174C8.77889 15.9011 9.29138 15.8684 9.79869 15.9207C10.2322 15.9643 10.666 16.0132 11.1001 16.0676L15.0912 16.5924C15.1073 16.5943 15.1236 16.59 15.1367 16.5804C15.1499 16.5707 15.1589 16.5565 15.1619 16.5405C15.2615 16.0409 15.5046 15.5812 15.8614 15.2176C16.1093 14.9455 16.4102 14.727 16.7457 14.5756C17.0812 14.4242 17.4442 14.343 17.8122 14.3372C19.6295 14.278 21.402 14.5163 23.2014 14.6605C25.4853 14.8468 27.7409 15.0322 29.9681 15.2167C29.9741 15.2176 29.9801 15.2176 29.986 15.2167C30.5978 15.2704 32.2207 15.4084 32.9104 15.4558L30.6784 17.2928Z" fill="white"/>
<path d="M19.9143 16.871L15.5094 16.8325H15.496C15.4915 16.834 15.4874 16.8364 15.4839 16.8395C15.4804 16.8427 15.4776 16.8465 15.4757 16.8508C15.4737 16.8551 15.4727 16.8598 15.4727 16.8645C15.4726 16.8692 15.4735 16.8739 15.4754 16.8782L16.0934 18.4814C16.0953 18.4858 16.098 18.4898 16.1014 18.4931C16.1048 18.4964 16.1088 18.499 16.1132 18.5008C16.1176 18.5025 16.1223 18.5034 16.1271 18.5033C16.1318 18.5032 16.1365 18.5022 16.1409 18.5002L19.9277 16.9364C19.9341 16.9335 19.9395 16.9289 19.9433 16.923C19.9471 16.9171 19.9492 16.9103 19.9492 16.9033C19.9485 16.8945 19.9446 16.8863 19.9381 16.8803C19.9316 16.8743 19.9231 16.871 19.9143 16.871Z" fill="white"/>
<circle cx="20" cy="20" r="19.5" stroke="black" stroke-opacity="0.05"/>
</svg>
