<svg width="40" height="40" viewBox="0 0 40 40" fill="none" xmlns="http://www.w3.org/2000/svg">
<circle cx="20" cy="20" r="20" fill="#E60012"/>
<g clip-path="url(#clip0_14382_19718)">
<path d="M24.5333 29.1313C22.0252 31.6232 17.9766 31.6232 15.4684 29.1313L10.8702 24.5322C8.37662 22.0254 8.37662 17.9748 10.8702 15.4679L15.4685 10.8688C17.9766 8.37705 22.0252 8.37705 24.5333 10.8688L29.1316 15.4679C31.6228 17.9757 31.6228 22.0245 29.1316 24.5322L24.5333 29.1313Z" fill="white"/>
<path d="M17.2702 26.7629C16.9037 26.7549 16.6119 26.4533 16.616 26.0868C16.62 25.7201 16.9182 25.4251 17.2847 25.4251C17.6514 25.4251 17.9496 25.7201 17.9535 26.0868C17.9575 26.4533 17.6659 26.7549 17.2994 26.7629H17.2702M19.747 14.1907C19.5781 14.1845 19.4096 14.213 19.2521 14.2745C19.0946 14.3359 18.9514 14.4291 18.8314 14.5482C18.311 15.0687 18.0372 16.139 18.0603 17.5647C18.0895 19.325 18.5096 22.7742 19.8912 24.5512C20.0918 24.8156 20.3339 25.0457 20.6081 25.2326C20.8799 25.4376 21.2104 25.5497 21.5508 25.5525C21.6749 25.5514 21.7986 25.5395 21.9207 25.517C22.7129 25.3268 23.7057 24.4445 24.4455 23.2697C24.6245 22.9875 24.9972 22.9018 25.2816 23.0773C25.3497 23.1195 25.4086 23.1749 25.4549 23.2403C25.5012 23.3056 25.534 23.3796 25.5513 23.4578C25.5695 23.5361 25.5721 23.6173 25.5588 23.6966C25.5455 23.7759 25.5167 23.8518 25.4739 23.9198C24.5396 25.4041 23.3065 26.4473 22.1736 26.7106H22.1465C21.9465 26.7474 21.7437 26.7663 21.5403 26.767C20.9625 26.7629 20.3999 26.5813 19.9287 26.2466C19.5437 25.9861 19.2035 25.6648 18.9214 25.2954C16.9754 22.7868 16.8417 18.1061 16.8312 17.5794C16.8103 16.3251 16.9901 14.6527 17.9641 13.6765C18.1955 13.4439 18.4717 13.2607 18.776 13.1382C19.0803 13.0156 19.4064 12.9562 19.7344 12.9636H19.8473C20.1755 12.9557 20.5019 13.0146 20.8066 13.1368C21.1113 13.259 21.388 13.4419 21.6198 13.6744C22.5936 14.6402 22.7735 16.3313 22.7526 17.5774C22.7316 18.8776 22.4934 21.3966 21.1453 23.6522C20.9634 23.9204 20.6039 23.9997 20.3261 23.833C20.0485 23.6664 19.9492 23.3118 20.1002 23.0251C21.0428 21.4468 21.5006 19.7096 21.5361 17.5564C21.5591 16.1306 21.2853 15.0583 20.7627 14.5398C20.6435 14.4208 20.5011 14.3276 20.3443 14.2661C20.1875 14.2046 20.0197 14.1761 19.8514 14.1823L19.747 14.1907Z" fill="#E60012"/>
</g>
<circle cx="20" cy="20" r="19.5" stroke="black" stroke-opacity="0.05"/>
<defs>
<clipPath id="clip0_14382_19718">
<rect width="22" height="22.0002" fill="white" transform="translate(9 9)"/>
</clipPath>
</defs>
</svg>
