<svg width="40" height="40" viewBox="0 0 40 40" fill="none" xmlns="http://www.w3.org/2000/svg">
<circle cx="20" cy="20" r="20" fill="#F6F8FA"/>
<g clip-path="url(#clip0_18553_55866)">
<path d="M11.991 16.0123C13.111 16.0123 14.0191 15.1142 14.0191 14.0062C14.0191 12.8982 13.111 12 11.991 12C10.8709 12 9.96289 12.8982 9.96289 14.0062C9.96289 15.1142 10.8709 16.0123 11.991 16.0123Z" fill="#9E3824"/>
<path d="M21.1172 25.1171C21.476 25.2097 21.71 25.1788 21.8192 25.009C22.0532 24.6387 22.2248 24.3455 22.334 24.114C22.6304 23.4504 22.8801 22.7868 23.0985 22.0924L23.7693 19.8393C24.8613 16.5831 25.5478 14.4998 25.8598 13.5739C26.1406 12.6325 26.8738 11.9843 27.8879 11.9998C28.9955 12.0306 29.6663 12.5708 29.9315 13.6202C29.9939 13.8671 29.9783 14.1294 29.8847 14.4226C28.7927 17.6634 27.6695 21.0739 26.4994 24.6541C26.2966 25.2714 26.1094 25.7035 25.9222 25.9504C25.2358 26.8609 24.0033 27.2158 22.8957 26.8763C22.0532 26.6294 21.476 26.0276 21.1328 25.1171H21.1172Z" fill="#1A304C"/>
<path d="M16.172 19.901C16.0315 20.5183 15.7195 21.043 15.2359 21.4751C14.7835 21.8918 13.9723 21.8609 13.4574 21.5677C12.8802 21.2436 12.4434 20.827 12.1626 20.3023C12.1158 20.2251 12.0378 20.1942 11.9754 20.2097C11.9754 20.2097 11.9598 20.2251 11.9754 20.2714C11.679 19.3918 11.3826 18.5276 12.0378 17.7251C12.4122 17.2622 12.927 17.0152 13.551 16.9844C14.3467 16.9535 14.9551 17.2159 15.3451 17.756C15.4855 17.9412 15.6415 18.2961 15.8131 18.8054C15.9379 19.1603 16.0627 19.5307 16.1876 19.901H16.172Z" fill="#705964"/>
<path d="M23.2548 18.358L23.3796 18.6512L23.7541 19.8086L23.0832 22.0617C22.8804 22.0462 22.6932 21.9999 22.5372 21.9382C21.726 21.6296 20.9147 21.2901 20.1035 20.9351C20.2283 20.5493 20.3843 20.1327 20.5403 19.6851C20.7899 19.0216 21.102 18.4814 21.492 18.0648C22.272 17.2006 22.5996 17.4783 23.0832 18.1265" fill="#844844"/>
<path d="M23.364 18.6667V18.7439C23.364 18.7439 23.364 18.821 23.3172 18.821C23.286 18.821 23.2548 18.821 23.2548 18.7902C22.9428 18.1266 22.2876 17.2315 21.5075 18.0957C21.1331 18.5124 20.8055 19.0525 20.5559 19.7161C20.3843 20.1482 20.2439 20.5649 20.1191 20.9661L19.9787 21.5525C19.5575 22.7871 19.1518 23.9754 18.7774 25.1482C17.9662 27.6328 14.3781 27.6328 13.5668 25.1482C13.0364 23.5278 12.506 21.9075 11.96 20.2871C11.96 20.2562 11.96 20.2254 11.96 20.2254C12.038 20.2099 12.116 20.2408 12.1472 20.318C12.4436 20.8272 12.8648 21.2439 13.442 21.5834C13.9568 21.8766 14.7681 21.9075 15.2205 21.4908C15.7041 21.0587 16.0005 20.534 16.1565 19.9167C16.4685 18.9445 16.7962 17.9877 17.1082 17.0309C17.3422 16.3056 17.545 15.8272 17.7166 15.5957C18.9178 13.8982 21.7104 14.176 22.4436 16.1513C22.7556 16.9846 23.052 17.818 23.3484 18.6667H23.364Z" fill="#1A304C"/>
<path d="M20.1033 20.9507C20.9145 21.3211 21.7258 21.6451 22.537 21.9538C22.693 22.0155 22.8802 22.0618 23.083 22.0772C22.8646 22.7717 22.5994 23.4507 22.3186 24.0988C22.2094 24.3303 22.0534 24.6235 21.8038 24.9939C21.6946 25.1636 21.4606 25.1945 21.1017 25.1019L19.9629 21.5371L20.1033 20.9507Z" fill="#62667E"/>
</g>
<circle cx="20" cy="20" r="19.5" stroke="black" stroke-opacity="0.05"/>
<defs>
<clipPath id="clip0_18553_55866">
<rect width="20" height="15" fill="white" transform="translate(9.96289 12)"/>
</clipPath>
</defs>
</svg>
