<svg width="40" height="40" viewBox="0 0 40 40" fill="none" xmlns="http://www.w3.org/2000/svg">
<ellipse cx="20.0362" cy="20" rx="19.9639" ry="20" fill="#F6F8FA"/>
<g clip-path="url(#clip0_17713_28134)">
<path d="M10.7322 18.0923C10.7322 18.0923 10.7152 18.3319 10.8695 18.3846C11.0407 18.4427 11.2113 18.5549 11.2113 18.8353V21.2885L11.1982 21.3017L8.48374 18.093L7.17726 18.0923C7.17726 18.0923 7.15187 18.3391 7.31136 18.3761C7.50014 18.419 7.72146 18.5542 7.72146 18.8353V21.9278C7.72146 22.2083 7.55091 22.3343 7.37971 22.3923C7.22543 22.4445 7.24171 22.6695 7.24171 22.6695H8.63802C8.63802 22.6695 8.65429 22.4445 8.50001 22.3923C8.32946 22.3336 8.15891 22.2076 8.15891 21.9278V19.0042L11.3434 22.7071H11.6507V18.8175C11.6578 18.5503 11.8232 18.4414 11.9911 18.3846C12.1447 18.3319 12.1285 18.0923 12.1285 18.0923H10.7322Z" fill="#76777A"/>
<path d="M15.1246 18C15.0953 18 14.9834 18 14.9534 18C13.3742 18.0541 12.582 19.222 12.6236 20.4776C12.6672 21.8111 13.6977 22.7757 15.0393 22.7658C16.3803 22.7757 17.4088 21.8117 17.4525 20.4776C17.4941 19.222 16.7038 18.0541 15.1246 18ZM16.5066 20.4776C16.461 21.8612 15.8251 22.4623 15.0387 22.4623C14.2523 22.4623 13.5708 21.8612 13.5708 20.4776C13.5708 19.4397 14.0792 18.3042 15.0387 18.3042C15.9982 18.3042 16.5405 19.4404 16.5066 20.4776Z" fill="#76777A"/>
<path d="M25.0816 18C25.0523 18 24.9397 18 24.9104 18C23.3312 18.0541 22.5396 19.222 22.5806 20.4776C22.6242 21.8111 23.6547 22.7757 24.9957 22.7658C26.3373 22.7757 27.3652 21.8117 27.4094 20.4776C27.4511 19.222 26.6608 18.0541 25.0816 18ZM26.4636 20.4776C26.418 21.8612 25.7827 22.4623 24.9963 22.4623C24.21 22.4623 23.5291 21.8612 23.5291 20.4776C23.5291 19.3625 24.0375 18.3042 24.9963 18.3042C25.9552 18.3042 26.5013 19.3632 26.4636 20.4776Z" fill="#76777A"/>
<path d="M30.5527 18C30.5234 18 30.4108 18 30.3821 18C28.8023 18.0541 28.0107 19.222 28.0523 20.4776C28.096 21.8111 29.1264 22.7757 30.4681 22.7658C31.809 22.7757 32.8375 21.8117 32.8818 20.4776C32.9228 19.222 32.1319 18.0541 30.5527 18ZM31.9347 20.4776C31.8898 21.8612 31.2538 22.4623 30.4674 22.4623C29.681 22.4623 28.9995 21.8612 28.9995 20.4776C28.9995 19.3625 29.5085 18.3042 30.4674 18.3042C31.4263 18.3042 31.9698 19.4404 31.9347 20.4776Z" fill="#76777A"/>
<path d="M21.8153 19.3315C21.8153 18.382 21.0367 18.093 20.0818 18.093H17.9844C17.9844 18.093 17.9616 18.3246 18.1373 18.3774C18.3235 18.4335 18.5292 18.5549 18.5292 18.8353V21.9279C18.5292 22.2083 18.3587 22.3343 18.1875 22.3924C18.0332 22.4445 18.0501 22.6695 18.0501 22.6695H19.8878C19.8878 22.6695 19.9021 22.4366 19.7354 22.3845C19.5493 22.3264 19.3436 22.304 19.3436 21.9272V18.4296H19.8116C20.5687 18.4296 20.9527 18.7383 20.9527 19.3276C20.9527 20.0639 20.374 20.3456 19.7914 20.374C19.7908 20.4387 19.7914 20.5152 19.8487 20.5997C19.8598 20.6162 20.859 21.8843 20.8935 21.9292C21.0445 22.1252 21.2769 22.4043 21.396 22.5019C21.9305 22.9446 22.5678 22.7632 22.5678 22.7632L20.747 20.4756C21.3303 20.3245 21.8166 19.9735 21.8166 19.3315H21.8153Z" fill="#76777A"/>
<path d="M32.9746 23.7359C32.9661 23.7359 32.957 23.7359 32.9479 23.7359C28.6574 23.6189 24.3539 23.5593 20.0374 23.5593C15.7209 23.5593 11.4142 23.6182 7.12304 23.7359C7.11262 23.7359 7.10351 23.7359 7.09375 23.7359C7.06055 23.7359 7.06055 23.809 7.06055 23.809C7.06055 23.809 7.06055 23.8827 7.0996 23.8827C7.10807 23.8827 7.11718 23.8827 7.12629 23.8834C11.4174 24.0005 15.7209 24.0593 20.0374 24.0593C24.3539 24.0593 28.66 24.0005 32.9518 23.8834C32.9609 23.8834 32.9713 23.8827 32.9811 23.8827C33.0137 23.8827 33.0137 23.8097 33.0137 23.8097C33.0137 23.8097 33.0137 23.7359 32.9746 23.7359Z" fill="#CF3339"/>
</g>
<path d="M19.9639 0.5C30.7127 0.5 39.4277 9.2296 39.4277 20C39.4277 30.7704 30.7127 39.5 19.9639 39.5C9.21511 39.5 0.5 30.7704 0.5 20C0.5 9.22962 9.21511 0.500035 19.9639 0.5Z" stroke="black" stroke-opacity="0.05"/>
<defs>
<clipPath id="clip0_17713_28134">
<rect width="25.9531" height="6" fill="white" transform="translate(7.05957 18)"/>
</clipPath>
</defs>
</svg>
