<svg width="40" height="40" viewBox="0 0 40 40" fill="none" xmlns="http://www.w3.org/2000/svg">
<circle cx="20" cy="20" r="20" fill="#C90037"/>
<path d="M28.4586 22.102H27.9375C27.9249 22.102 27.9125 22.0989 27.9014 22.093C27.8903 22.0871 27.8808 22.0786 27.8737 22.0682C27.8666 22.0577 27.8622 22.0458 27.8608 22.0332C27.8594 22.0207 27.8611 22.008 27.8658 21.9963L29.1427 18.611C29.2126 18.4567 29.3256 18.3259 29.4681 18.2343C29.6105 18.1427 29.7764 18.0943 29.9458 18.0947C30.1152 18.0952 30.2808 18.1446 30.4228 18.237C30.5648 18.3293 30.677 18.4607 30.7461 18.6154L32.0246 21.9973C32.029 22.009 32.0306 22.0216 32.0291 22.034C32.0276 22.0464 32.0231 22.0582 32.016 22.0685C32.009 22.0788 31.9995 22.0872 31.9885 22.0931C31.9774 22.0989 31.9651 22.1019 31.9526 22.102H31.4355C31.4037 22.1041 31.3721 22.0954 31.3459 22.0772C31.3197 22.059 31.3005 22.0324 31.2914 22.0018L30.1408 18.9413C30.1255 18.902 30.0986 18.8683 30.0638 18.8446C30.0289 18.8208 29.9877 18.8082 29.9455 18.8083C29.9034 18.8084 29.8622 18.8213 29.8275 18.8452C29.7928 18.8691 29.7661 18.9029 29.751 18.9423L28.5885 22.0038C28.5797 22.0316 28.5623 22.056 28.5389 22.0736C28.5156 22.0911 28.4873 22.1009 28.458 22.1016" fill="white"/>
<path d="M24.3053 18.4062V18.7838C24.3053 18.794 24.3034 18.804 24.2995 18.8134C24.2956 18.8228 24.2899 18.8313 24.2828 18.8385C24.2756 18.8457 24.2671 18.8514 24.2577 18.8553C24.2483 18.8592 24.2383 18.8612 24.2281 18.8612H22.2977C21.9437 18.8612 21.7872 19.0532 21.7872 19.3265C21.7872 19.5651 21.909 19.7919 22.3672 19.7919H23.2839C24.3516 19.7919 24.6009 20.3854 24.6009 20.9498C24.6009 21.6132 24.247 22.1018 23.3535 22.1018H21.5934C21.532 22.1017 21.4732 22.0772 21.4299 22.0338C21.3865 21.9904 21.3622 21.9315 21.3623 21.8701V21.4925C21.3623 21.4721 21.3704 21.4525 21.3848 21.438C21.3992 21.4236 21.4188 21.4154 21.4392 21.4154H23.3767C23.7481 21.4154 23.9163 21.2117 23.9163 20.9265C23.9163 20.6706 23.7828 20.4377 23.3014 20.4377H22.3905C21.3461 20.4377 21.1025 19.8501 21.1025 19.3031C21.1025 18.6515 21.4505 18.1743 22.3209 18.1743H24.074C24.1354 18.1744 24.1942 18.1989 24.2375 18.2423C24.2808 18.2858 24.3052 18.3446 24.3051 18.406" fill="white"/>
<path d="M28.0153 18.406V18.7836C28.0153 18.7938 28.0133 18.8038 28.0095 18.8132C28.0056 18.8226 27.9999 18.8311 27.9928 18.8383C27.9856 18.8455 27.9771 18.8512 27.9677 18.8551C27.9583 18.859 27.9483 18.861 27.9381 18.861H26.8444C26.8232 18.861 26.8028 18.8694 26.7877 18.8844C26.7727 18.8995 26.7643 18.9199 26.7643 18.9411V22.0244C26.7643 22.0449 26.7561 22.0645 26.7417 22.079C26.7272 22.0935 26.7076 22.1016 26.6871 22.1016H26.1514C26.1309 22.1016 26.1114 22.0934 26.0969 22.0789C26.0825 22.0645 26.0744 22.0449 26.0744 22.0244V18.9381C26.0744 18.9177 26.0663 18.8981 26.0519 18.8836C26.0374 18.8692 26.0179 18.861 25.9974 18.861H24.8999C24.8898 18.861 24.8797 18.859 24.8703 18.8551C24.861 18.8512 24.8524 18.8455 24.8453 18.8383C24.8381 18.8311 24.8324 18.8226 24.8286 18.8132C24.8247 18.8038 24.8227 18.7938 24.8228 18.7836V18.406C24.8227 18.3446 24.847 18.2858 24.8903 18.2423C24.9337 18.1989 24.9925 18.1744 25.0538 18.1743H27.7852C27.8464 18.1747 27.9049 18.1993 27.9481 18.2427C27.9912 18.2861 28.0153 18.3448 28.0153 18.406Z" fill="white"/>
<path d="M34.6635 18.1743C35.5454 18.1743 35.9981 18.7213 35.9981 19.3496C36.0113 19.5737 35.9601 19.7968 35.8505 19.9927C35.741 20.1886 35.5776 20.3491 35.3798 20.4551L35.9581 21.9856C35.9649 21.9973 35.9685 22.0106 35.9686 22.0242C35.9686 22.0377 35.9651 22.0511 35.9583 22.0628C35.9516 22.0746 35.9419 22.0844 35.9301 22.0912C35.9184 22.098 35.9051 22.1016 35.8915 22.1016H35.3243C35.3109 22.1016 35.2978 22.0981 35.2861 22.0915C35.2745 22.0848 35.2648 22.0753 35.258 22.0637L34.6988 20.5832H33.3285C33.3151 20.5811 33.3013 20.5823 33.2884 20.5866C33.2754 20.5908 33.2637 20.598 33.2541 20.6077C33.2445 20.6173 33.2373 20.6291 33.2331 20.6421C33.2289 20.655 33.2278 20.6688 33.2299 20.6822V22.025C33.2299 22.0455 33.2218 22.0651 33.2074 22.0795C33.1929 22.094 33.1734 22.1022 33.1529 22.1022H32.6224C32.602 22.1022 32.5823 22.0941 32.5679 22.0796C32.5534 22.0651 32.5453 22.0455 32.5453 22.025V20.5481C32.5453 20.106 32.7308 19.9256 33.1601 19.9256H34.686C34.7607 19.9317 34.836 19.9219 34.9067 19.897C34.9775 19.872 35.0422 19.8325 35.0966 19.7809C35.1511 19.7293 35.1941 19.6668 35.2228 19.5975C35.2516 19.5282 35.2654 19.4537 35.2634 19.3787C35.2634 19.3055 35.2479 19.2331 35.2181 19.1663C35.1883 19.0995 35.1447 19.0397 35.0902 18.9909C35.0358 18.942 34.9716 18.9052 34.902 18.8828C34.8323 18.8604 34.7587 18.8529 34.686 18.8608H32.6172C32.6071 18.8608 32.597 18.8588 32.5876 18.8549C32.5783 18.851 32.5697 18.8453 32.5626 18.8381C32.5554 18.8309 32.5497 18.8224 32.5459 18.813C32.542 18.8036 32.54 18.7936 32.54 18.7834V18.406C32.54 18.3446 32.5643 18.2858 32.6076 18.2423C32.651 18.1989 32.7098 18.1744 32.7711 18.1743H34.6635Z" fill="white"/>
<path d="M10.2722 18.1743C11.4094 18.1743 12.0418 18.8261 12.0418 20.1467C12.0418 21.4617 11.4152 22.1018 10.2722 22.1018H9.73829C8.59587 22.1018 7.96875 21.4619 7.96875 20.1467C7.96875 18.8261 8.60129 18.1743 9.73829 18.1743H10.2722ZM9.73829 18.861C8.98409 18.861 8.6534 19.245 8.6534 20.1469C8.6534 21.043 8.97828 21.4154 9.73829 21.4154H10.2722C11.0264 21.4154 11.3513 21.043 11.3513 20.1411C11.3513 19.245 11.0264 18.861 10.2722 18.861H9.73829Z" fill="white"/>
<path d="M18.67 18.1743C19.8072 18.1743 20.4395 18.8261 20.4395 20.1467C20.4395 21.4617 19.813 22.1018 18.67 22.1018H18.1362C16.9938 22.1018 16.3667 21.4619 16.3667 20.1467C16.3667 18.8261 16.999 18.1743 18.1362 18.1743H18.67ZM18.1362 18.861C17.382 18.861 17.0513 19.245 17.0513 20.1469C17.0513 21.043 17.3762 21.4154 18.1362 21.4154H18.67C19.4242 21.4154 19.749 21.043 19.749 20.1411C19.749 19.245 19.4242 18.861 18.67 18.861H18.1362Z" fill="white"/>
<path d="M15.365 20.1007C15.5136 20.0064 15.6362 19.8762 15.7214 19.7221C15.8065 19.568 15.8516 19.3949 15.8524 19.2188C15.8477 19.0752 15.8143 18.934 15.7542 18.8035C15.6941 18.673 15.6085 18.5559 15.5025 18.4589C15.3965 18.3619 15.2721 18.2871 15.1368 18.2389C15.0015 18.1907 14.8578 18.17 14.7144 18.178H14.703C14.6737 18.1766 14.6454 18.1744 14.6146 18.174H12.8909C12.847 18.1669 12.8021 18.1703 12.7597 18.1838C12.7174 18.1974 12.6788 18.2207 12.6471 18.2519C12.6155 18.2832 12.5916 18.3214 12.5776 18.3636C12.5635 18.4058 12.5595 18.4507 12.5661 18.4947V21.7817C12.5595 21.8256 12.5635 21.8706 12.5776 21.9127C12.5916 21.9549 12.6155 21.9932 12.6471 22.0244C12.6788 22.0557 12.7174 22.079 12.7597 22.0925C12.8021 22.1061 12.847 22.1094 12.8909 22.1023H14.6314C14.6635 22.1023 14.6943 22.1023 14.7246 22.1005C14.7308 22.1005 14.7366 22.1005 14.7428 22.1005C15.4343 22.1005 15.9378 21.6077 15.9378 21.0417C15.9371 20.8474 15.8834 20.6569 15.7824 20.4909C15.6813 20.3248 15.5369 20.1896 15.3646 20.0997M13.2391 18.9172C13.2384 18.9074 13.2399 18.8975 13.2436 18.8884C13.2472 18.8792 13.2528 18.871 13.2601 18.8643C13.2673 18.8576 13.2759 18.8526 13.2853 18.8497C13.2947 18.8468 13.3047 18.846 13.3144 18.8475H14.6448C14.7675 18.8574 14.8821 18.913 14.9659 19.0031C15.0497 19.0933 15.0968 19.2115 15.0979 19.3347C15.0989 19.4578 15.0539 19.5768 14.9716 19.6684C14.8893 19.76 14.7758 19.8174 14.6533 19.8295H14.6314H13.2391V18.9172ZM13.2391 21.3552V20.4027H14.1181L14.1169 20.4041H14.7038V20.4056C14.8323 20.414 14.9528 20.4711 15.0408 20.5651C15.1288 20.6591 15.1778 20.7831 15.1778 20.9119C15.1778 21.0407 15.1288 21.1647 15.0408 21.2587C14.9528 21.3528 14.8323 21.4098 14.7038 21.4183C14.6857 21.4183 14.6677 21.4199 14.6487 21.4199H13.3152C13.2689 21.4199 13.2399 21.4025 13.2399 21.356" fill="white"/>
<path d="M6.11767 18.1743C6.99954 18.1743 7.45229 18.7213 7.45229 19.3496C7.46542 19.5737 7.41418 19.7968 7.30463 19.9927C7.19507 20.1886 7.03177 20.349 6.83399 20.4551L7.41221 21.9856C7.41904 21.9973 7.42267 22.0106 7.42272 22.0242C7.42277 22.0377 7.41924 22.0511 7.4125 22.0628C7.40575 22.0746 7.39602 22.0844 7.38428 22.0912C7.37255 22.098 7.35923 22.1016 7.34567 22.1016H6.77847C6.76507 22.1016 6.7519 22.0981 6.74027 22.0915C6.72863 22.0848 6.71893 22.0753 6.71213 22.0637L6.15355 20.583H4.78326C4.7698 20.5809 4.75605 20.5821 4.74312 20.5864C4.73019 20.5906 4.71844 20.5978 4.70884 20.6075C4.69923 20.6171 4.69203 20.6289 4.68783 20.6419C4.68363 20.6548 4.68254 20.6686 4.68465 20.682V22.0248C4.68465 22.0453 4.67654 22.0649 4.66212 22.0793C4.64769 22.0938 4.62811 22.102 4.60768 22.102H4.07696C4.06681 22.102 4.05677 22.1 4.0474 22.096C4.03804 22.0921 4.02954 22.0864 4.02239 22.0792C4.01524 22.072 4.00958 22.0634 4.00574 22.0541C4.0019 22.0447 3.99995 22.0346 4 22.0244V20.5481C4 20.106 4.18559 19.9256 4.6149 19.9256H6.14092C6.21568 19.9317 6.29087 19.9219 6.36161 19.897C6.43235 19.8721 6.49706 19.8325 6.55152 19.781C6.60598 19.7294 6.64898 19.6669 6.67772 19.5977C6.70646 19.5284 6.7203 19.4538 6.71834 19.3789C6.71832 19.3057 6.70289 19.2333 6.67305 19.1665C6.64322 19.0997 6.59965 19.0399 6.54518 18.9911C6.49071 18.9422 6.42656 18.9054 6.35691 18.883C6.28726 18.8606 6.21366 18.8531 6.14092 18.861H4.08258C4.07244 18.8609 4.06241 18.8589 4.05306 18.855C4.04371 18.8511 4.03522 18.8454 4.02807 18.8382C4.02092 18.831 4.01526 18.8225 4.01141 18.8131C4.00756 18.8038 4.00559 18.7937 4.00561 18.7836V18.406C4.00556 18.3446 4.02987 18.2858 4.0732 18.2423C4.11653 18.1989 4.17534 18.1744 4.2367 18.1743H6.11767Z" fill="white"/>
<circle cx="20" cy="20" r="19.5" stroke="black" stroke-opacity="0.05"/>
</svg>
