<svg width="40" height="40" viewBox="0 0 40 40" fill="none" xmlns="http://www.w3.org/2000/svg">
<circle cx="20" cy="20" r="20" fill="#F6F8FA"/>
<path d="M18.4819 14.2841C18.6105 14.2364 18.6062 14.206 18.4703 14.1959C16.4871 14.0441 13.9748 13.158 14.2567 10.6718C14.3244 10.0111 14.6252 9.39618 15.1052 8.9372C15.169 8.87601 15.2539 8.84183 15.3423 8.8418H18.3691C18.4631 8.8418 18.4732 8.87215 18.4024 8.93286C16.9988 10.1254 15.7094 12.1129 17.7056 13.6105C17.9112 13.7636 18.1282 13.9009 18.3547 14.021C18.5445 14.1196 18.7482 14.1889 18.9589 14.2262C20.6241 14.5452 21.8518 15.4665 22.642 16.99C23.0901 17.8573 23.2153 18.8735 23.0178 20.0385C22.5422 22.8457 20.705 25.5401 18.6452 27.4842C18.6384 27.4909 18.6294 27.4946 18.6199 27.4946C18.6104 27.4946 18.6014 27.4909 18.5946 27.4842C18.5913 27.4811 18.5887 27.4772 18.587 27.473C18.5852 27.4688 18.5844 27.4642 18.5845 27.4597V20.0877C18.5845 20.0822 18.5834 20.0767 18.5813 20.0716C18.5792 20.0666 18.5761 20.0619 18.5722 20.058C18.5683 20.0542 18.5637 20.0511 18.5586 20.049C18.5535 20.0469 18.5481 20.0458 18.5426 20.0458H15.9118C15.8984 20.0458 15.8855 20.0511 15.876 20.0606C15.8665 20.0701 15.8612 20.0829 15.8612 20.0964V27.9858C15.8622 27.9956 15.8612 28.0055 15.8581 28.0148C15.8551 28.0242 15.8502 28.0328 15.8437 28.0401C15.8371 28.0475 15.8292 28.0534 15.8202 28.0575C15.8113 28.0616 15.8016 28.0637 15.7918 28.0639C13.2159 28.405 8.12061 28.0306 8.00208 24.3707C7.9457 22.6028 9.04572 20.9015 10.257 19.589C12.4441 17.2242 15.455 15.4318 18.4819 14.2841Z" fill="#C80A48"/>
<path d="M19.236 27.3427C22.4247 25.4217 27.205 21.4061 26.0919 17.1491C25.7065 15.6767 24.7308 14.6721 23.1648 14.1353C22.1732 13.7971 21.2438 13.7841 20.2146 13.719C20.1076 13.719 20.1062 13.6959 20.2146 13.6699C23.0159 12.9601 25.9835 12.4051 28.7733 13.1943C31.9158 14.0833 32.76 16.7386 31.0427 19.5299C30.3489 20.6601 29.4816 21.6742 28.4726 22.535C25.7962 24.8107 22.6508 26.4681 19.2606 27.389C19.1362 27.4193 19.129 27.4049 19.236 27.3427Z" fill="#C80A48"/>
<path d="M32.0004 29.729C32.0004 30.3144 28.7264 30.7885 24.6862 30.7885C20.6461 30.7885 17.3721 30.3144 17.3721 29.729C17.3721 29.1508 20.6461 28.6694 24.6862 28.6694C28.7264 28.6694 32.0004 29.1436 32.0004 29.729Z" fill="#A8A9AD"/>
<circle cx="20" cy="20" r="19.5" stroke="black" stroke-opacity="0.05"/>
</svg>
