<svg width="40" height="40" viewBox="0 0 40 40" fill="none" xmlns="http://www.w3.org/2000/svg">
<circle cx="20" cy="20" r="20" fill="#37B89C"/>
<path d="M19.5816 21.4156C19.5311 21.9568 19.22 22.2713 18.7388 22.4425C18.3179 22.5933 17.8793 22.6216 17.4377 22.6231C17.0086 22.6231 16.579 22.6077 16.1698 22.4655C15.9797 22.4006 15.7998 22.3086 15.6358 22.1925C15.3553 21.9896 15.2384 21.6864 15.2365 21.3481C15.2312 20.1975 15.2342 19.0477 15.2346 17.896C15.237 17.8817 15.2407 17.8677 15.2455 17.8541H16.2366V20.9514C16.2366 21.0038 16.2366 21.0562 16.2366 21.1086C16.2449 21.4209 16.3844 21.6068 16.6857 21.6886C17.0176 21.7784 17.3574 21.7746 17.6964 21.7535C17.8459 21.745 17.9943 21.7223 18.1395 21.6856C18.4506 21.6049 18.5951 21.4084 18.5955 21.0864C18.5955 20.0556 18.5955 19.0261 18.5955 17.9978V17.8503H19.582C19.5824 19.0458 19.5824 20.2258 19.5816 21.4156Z" fill="white"/>
<path d="M32.3132 20.5274V22.5431H31.3199V19.4078L31.2958 19.3995C31.272 19.4342 31.2468 19.4677 31.2245 19.5032C30.867 20.0696 30.5101 20.6367 30.1539 21.2043C30.1139 21.2685 30.0713 21.3058 29.9921 21.3039C29.819 21.3001 29.6455 21.3062 29.4728 21.2983C29.4502 21.2952 29.4285 21.2876 29.4091 21.2758C29.3896 21.2639 29.3728 21.2482 29.3597 21.2296C29.0655 20.771 28.7741 20.3106 28.4855 19.8482C28.4662 19.8181 28.4553 19.7833 28.4538 19.7475C28.4516 19.2471 28.4538 18.7467 28.4734 18.2357L29.7523 20.2265C29.7832 20.1812 29.8073 20.1473 29.8299 20.1134C30.2913 19.3926 30.7519 18.6715 31.2117 17.9502C31.2279 17.9183 31.2529 17.8917 31.2837 17.8735C31.3144 17.8553 31.3498 17.8462 31.3855 17.8473C31.6914 17.8473 31.9972 17.8473 32.314 17.8473L32.3132 20.5274Z" fill="white"/>
<path d="M7.98155 20.595H6.30225V19.7103H8.31567V17.8552H9.31314V22.5428H8.32548V20.595H7.98155Z" fill="white"/>
<path d="M12.9241 18.8293C13.1255 18.5276 13.3216 18.2301 13.5207 17.9363C13.5433 17.9031 13.5837 17.8609 13.6165 17.8609C13.9261 17.8548 14.2357 17.8571 14.5691 17.8571C14.537 17.9099 14.5167 17.9457 14.4937 17.98C13.9378 18.8125 13.3825 19.6451 12.8279 20.4781C12.7857 20.5447 12.7626 20.6217 12.7612 20.7006C12.7555 21.2662 12.7582 21.8319 12.7582 22.3976V22.5484H11.7637V22.4172C11.7637 21.8398 11.7614 21.2625 11.7663 20.6855C11.768 20.6145 11.7891 20.5454 11.8274 20.4856C12.1887 19.9309 12.5549 19.3852 12.9241 18.8293Z" fill="white"/>
<path d="M5.00191 19.655C5.00191 19.1908 5.00606 18.739 5.00003 18.2872C4.99739 18.0795 5.19763 17.8257 5.44125 17.8347C5.62981 17.8423 5.81837 17.8347 6.01786 17.8347V17.9965C6.01786 19.3569 6.01786 20.7169 6.01786 22.0765C6.01786 22.402 5.86136 22.5585 5.53591 22.5588C5.36319 22.5588 5.19009 22.5588 5.00229 22.5588L5.00191 19.655Z" fill="white"/>
<path d="M26.0115 22.2232V22.5434H25.022V17.8513H26.0115V22.2232Z" fill="white"/>
<path d="M27.1733 19.9459C27.1733 19.3931 27.1733 18.8523 27.1733 18.3115C27.1733 17.9951 27.3325 17.8378 27.6515 17.8359C27.8201 17.8359 27.9887 17.8359 28.1716 17.8359V17.9898C28.1716 19.3459 28.1716 20.702 28.1716 22.0581C28.1716 22.4096 28.0207 22.5601 27.6726 22.5605H27.1733V19.9459Z" fill="white"/>
<path d="M21.4522 17.839L21.7 17.8593V17.9898C21.7 19.3381 21.7 20.6863 21.7 22.0344C21.7 22.393 21.5514 22.5401 21.1924 22.5405H20.7051C20.7029 22.4922 20.6987 22.4496 20.6987 22.4073C20.6987 21.0467 20.6987 19.6863 20.6987 18.3262C20.6987 17.9902 20.8515 17.8359 21.1848 17.8359C21.2697 17.8367 21.3542 17.839 21.4522 17.839Z" fill="white"/>
<path d="M11.0318 17.908C11.3761 18.4465 11.714 18.9778 12.0568 19.5058C12.1047 19.5812 12.1006 19.6284 12.0489 19.6966C11.898 19.8957 11.7551 20.1009 11.602 20.3136C11.5745 20.2759 11.553 20.2483 11.5337 20.2193C11.1566 19.6514 10.7788 19.0833 10.4001 18.5151C10.2636 18.3088 10.2798 18.0939 10.4378 17.9427C10.5785 17.8092 10.9138 17.785 11.0318 17.908Z" fill="white"/>
<path d="M24.2395 21.8896C24.2395 22.1094 24.2395 22.3176 24.2395 22.5329H21.7422C22.0156 22.3183 21.9994 22.0268 21.9828 21.7278H24.2187C24.2251 21.7764 24.2319 21.8273 24.2395 21.8896Z" fill="white"/>
<path d="M29.8176 15C29.0516 14.9992 28.2949 15.1686 27.6024 15.4959C26.9098 15.8232 26.2986 16.3003 25.813 16.8928C26.2798 16.3602 26.855 15.9336 27.5002 15.6415C28.1453 15.3494 28.8454 15.1986 29.5536 15.1991C30.2078 15.1991 30.8556 15.328 31.46 15.5783C32.0644 15.8287 32.6135 16.1957 33.0761 16.6583C33.5386 17.1209 33.9056 17.67 34.1559 18.2744C34.4062 18.8788 34.535 19.5266 34.5349 20.1808C34.5351 20.8351 34.4064 21.483 34.1562 22.0876C33.9059 22.6921 33.5391 23.2414 33.0765 23.7041C32.6139 24.1669 32.0647 24.5339 31.4602 24.7843C30.8558 25.0348 30.2079 25.1637 29.5536 25.1637C28.8456 25.1644 28.1456 25.0138 27.5005 24.7221C26.8553 24.4303 26.28 24.0041 25.813 23.4719C26.2987 24.0643 26.9099 24.5413 27.6024 24.8687C28.295 25.196 29.0516 25.3654 29.8176 25.3647C31.192 25.3646 32.5101 24.8185 33.4819 23.8467C34.4538 22.8748 34.9998 21.5567 34.9999 20.1823C34.9999 18.8079 34.4539 17.4898 33.4821 16.5179C32.5102 15.546 31.192 15 29.8176 15Z" fill="#F8B832"/>
<circle cx="20" cy="20" r="19.5" stroke="black" stroke-opacity="0.05"/>
</svg>
