<svg width="40" height="40" viewBox="0 0 40 40" fill="none" xmlns="http://www.w3.org/2000/svg">
<circle cx="20" cy="20" r="20" fill="#F6F8FA"/>
<path d="M22.5697 16.3677H4.03516V24.9956H22.5697V16.3677Z" fill="#009782"/>
<path d="M36.0354 16.3677H27.0195V24.9956H36.0354V16.3677Z" fill="#D99528"/>
<path d="M27.1022 16.3677H22.4844V24.9956H27.1022V16.3677Z" fill="black"/>
<path d="M16.0897 21.4425C16.0878 21.7632 15.9967 22.0245 15.6088 22.0264H15.6068C15.2188 22.0245 15.1278 21.7652 15.1258 21.4425V19.1267H14.6963V21.4425C14.6983 21.9591 14.9873 22.3669 15.6068 22.3669H15.6088C16.2283 22.3669 16.5173 21.9591 16.5173 21.4425V19.1267H16.0897V21.4425Z" fill="white"/>
<path d="M8.06918 20.4845H7.10723V19.1287H6.67969V22.3411H7.10723V20.8447H8.06918V22.3411H8.49672V19.1287H8.06918V20.4845Z" fill="white"/>
<path d="M20.5452 21.4207L19.6901 19.1287H19.0527V22.3411H19.4724V19.6275L20.5036 22.3411H20.9628V19.1287H20.5452V21.4207Z" fill="white"/>
<path d="M11.5867 20.4924L11.0166 19.1287H10.5713L11.3709 20.9833L11.369 22.3411H11.7965V20.9774L12.5863 19.1287H12.1389L11.5867 20.4924Z" fill="white"/>
<path d="M33.4029 19.1287H32.9893V22.3411H33.4029V19.1287Z" fill="white"/>
<path d="M24.5764 19.1287H23.8936V22.3411H24.5764C24.9347 22.3411 25.2276 22.2481 25.4295 21.9967C25.6294 21.7473 25.7383 21.3455 25.7383 20.7339C25.7383 20.1223 25.6294 19.7205 25.4295 19.4711C25.2276 19.2217 24.9347 19.1287 24.5764 19.1287ZM24.4933 21.9829H24.3112V19.483H24.4933C25.0238 19.4869 25.3167 19.6472 25.3207 20.7339C25.3167 21.8206 25.0218 21.9789 24.4933 21.9829Z" fill="white"/>
<path d="M28.9691 19.1287L28.9672 19.1425L28.2031 22.3392H28.6326L28.8345 21.4366H29.6777L29.8796 22.3392H30.3091L29.5491 19.1287H28.9691ZM28.8979 21.0744L29.2561 19.4651L29.6164 21.0744H28.8979Z" fill="white"/>
<circle cx="20" cy="20" r="19.5" stroke="black" stroke-opacity="0.05"/>
</svg>
