<svg width="40" height="40" viewBox="0 0 40 40" fill="none" xmlns="http://www.w3.org/2000/svg">
<circle cx="20" cy="20" r="20" fill="#960203"/>
<path d="M11.8191 20.3461L16.2355 22.9142C16.253 22.9255 16.2735 22.9315 16.2943 22.9315C16.3152 22.9315 16.3357 22.9255 16.3532 22.9142C18.768 21.4762 21.1991 20.0678 23.6465 18.6889C23.6661 18.6778 23.6883 18.672 23.7108 18.672C23.7333 18.672 23.7555 18.6778 23.7751 18.6889L26.5597 20.2727C26.5693 20.2782 26.5763 20.2873 26.5794 20.2979C26.5824 20.3086 26.5812 20.32 26.576 20.3298C26.5717 20.3363 26.5662 20.3418 26.5597 20.3461L19.2446 24.5831C19.2332 24.5899 19.2249 24.601 19.2215 24.6138C19.2181 24.6267 19.2199 24.6404 19.2265 24.652C19.2313 24.66 19.2382 24.6666 19.2464 24.671L19.9111 25.0332C19.9336 25.0455 19.9588 25.0519 19.9845 25.0519C20.0101 25.0519 20.0353 25.0455 20.0578 25.0332C20.2963 24.9016 20.5378 24.7658 20.7823 24.6257C22.9803 23.3579 25.1597 22.0902 27.3203 20.8224C27.344 20.8084 27.3711 20.801 27.3987 20.801C27.4262 20.801 27.4533 20.8084 27.477 20.8224L30.2561 22.4315C30.2607 22.4341 30.2647 22.4375 30.268 22.4416C30.2713 22.4458 30.2737 22.4505 30.2751 22.4555C30.2765 22.4606 30.2769 22.4658 30.2763 22.4711C30.2757 22.4763 30.2741 22.4813 30.2715 22.4859C30.2681 22.492 30.2631 22.497 30.257 22.5004C28.7538 23.392 27.2557 24.2629 25.7628 25.1129C24.0416 26.0927 22.1376 27.1929 20.0506 28.4136C20.0305 28.4252 20.0077 28.4313 19.9845 28.4313C19.9613 28.4313 19.9385 28.4252 19.9184 28.4136L6.0236 20.3587C6.01631 20.3537 6.01036 20.3469 6.00625 20.339C6.00214 20.3311 6 20.3224 6 20.3135C6 20.3046 6.00214 20.2958 6.00625 20.2879C6.01036 20.2801 6.01631 20.2733 6.0236 20.2682L19.9491 12.2206C19.9602 12.2139 19.9729 12.2104 19.9858 12.2104C19.9987 12.2104 20.0114 12.2139 20.0225 12.2206L22.8216 13.8406C22.8332 13.8472 22.8417 13.8582 22.8452 13.8711C22.8488 13.884 22.8471 13.8978 22.8406 13.9094C22.8362 13.9174 22.8296 13.924 22.8216 13.9284L11.8191 20.2619C11.7702 20.2902 11.7702 20.3183 11.8191 20.3461Z" fill="white"/>
<path d="M23.6634 17.7327C22.0274 18.6552 20.4729 19.5484 18.9998 20.4123C18.0943 20.9435 17.2069 21.46 16.3375 21.9617C16.3206 21.9714 16.3014 21.9766 16.2818 21.9766C16.2623 21.9766 16.2431 21.9714 16.2261 21.9617L13.4389 20.3579C13.4259 20.3507 13.4164 20.3386 13.4123 20.3244C13.4082 20.3101 13.41 20.2948 13.4171 20.2819C13.4224 20.2729 13.4299 20.2654 13.4389 20.2601L23.6498 14.3913C23.6663 14.3819 23.6848 14.377 23.7037 14.377C23.7226 14.377 23.7412 14.3819 23.7576 14.3913L33.9776 20.2701C33.9877 20.2756 33.9952 20.2849 33.9984 20.296C34.0016 20.307 34.0003 20.3189 33.9948 20.3289C33.9908 20.3361 33.9848 20.3421 33.9776 20.3461L31.2048 21.949C31.1823 21.9617 31.1569 21.9683 31.131 21.9683C31.1052 21.9683 31.0798 21.9617 31.0572 21.949L23.7721 17.7336C23.7559 17.7233 23.7371 17.7177 23.7179 17.7176C23.6987 17.7174 23.6798 17.7227 23.6634 17.7327Z" fill="white"/>
<circle cx="20" cy="20" r="19.5" stroke="black" stroke-opacity="0.05"/>
</svg>
