<svg width="40" height="40" viewBox="0 0 40 40" fill="none" xmlns="http://www.w3.org/2000/svg">
<circle cx="20" cy="20" r="20" fill="#D22D27"/>
<g clip-path="url(#clip0_14382_20243)">
<path d="M21.9168 16.7354H20.9307C20.7812 16.7344 20.6362 16.7865 20.5215 16.8823C20.4067 16.9782 20.3297 17.1116 20.304 17.2588C20.0883 18.3242 19.9556 19.4909 19.8045 20.5342C19.6662 19.5426 19.4358 18.2136 19.2368 17.1906C19.1989 17.0545 19.1159 16.9353 19.0013 16.8526C18.8868 16.7698 18.7475 16.7285 18.6064 16.7354H17.6018C17.4607 16.7285 17.3214 16.7698 17.2069 16.8526C17.0924 16.9353 17.0093 17.0545 16.9715 17.1906C16.7251 18.2911 16.535 19.4033 16.4019 20.5231C16.2526 19.4836 16.1181 18.3113 15.9061 17.2588C15.8796 17.1116 15.8021 16.9784 15.6872 16.8826C15.5722 16.7869 15.4272 16.7347 15.2776 16.7354H14.2914C14.2004 16.7315 14.1096 16.7472 14.0251 16.7815C13.9407 16.8157 13.8646 16.8678 13.802 16.934C13.7395 17.0003 13.6919 17.0792 13.6625 17.1654C13.633 17.2517 13.6225 17.3433 13.6316 17.4339C13.8251 19.1352 14.3209 21.3471 14.8905 23.358C14.923 23.5056 15.0059 23.6374 15.125 23.7306C15.244 23.8237 15.3918 23.8725 15.543 23.8686H16.8424C16.9931 23.8699 17.1397 23.8193 17.2575 23.7254C17.3754 23.6314 17.4572 23.4997 17.4894 23.3525L18.0921 20.678H18.1179L18.7188 23.3525C18.751 23.4997 18.8329 23.6314 18.9507 23.7254C19.0685 23.8193 19.2151 23.8699 19.3658 23.8686H20.656C20.8072 23.8725 20.955 23.8237 21.074 23.7306C21.1931 23.6374 21.276 23.5056 21.3085 23.358C21.8781 21.3471 22.3739 19.1352 22.5674 17.4339C22.5765 17.3433 22.566 17.2517 22.5365 17.1654C22.5071 17.0792 22.4595 17.0003 22.397 16.934C22.3344 16.8678 22.2583 16.8157 22.1739 16.7815C22.0894 16.7472 21.9986 16.7315 21.9076 16.7354" fill="white"/>
<path d="M5.94741 15.2829C5.94984 15.1101 6.02067 14.9454 6.14436 14.8248C6.26806 14.7042 6.43453 14.6376 6.60727 14.6396H7.81273C7.89818 14.6386 7.98298 14.6545 8.06229 14.6863C8.14161 14.7181 8.21388 14.7652 8.27498 14.8249C8.33609 14.8846 8.38483 14.9558 8.41842 15.0344C8.45201 15.113 8.46979 15.1974 8.47075 15.2829V16.7353H9.10851C9.16708 16.7346 9.22523 16.7454 9.27963 16.7671C9.33403 16.7889 9.38361 16.8211 9.42554 16.862C9.46748 16.9029 9.50094 16.9517 9.52403 17.0055C9.54711 17.0594 9.55937 17.1172 9.56009 17.1758V17.891C9.55815 18.009 9.50954 18.1214 9.4249 18.2036C9.34026 18.2858 9.22649 18.3311 9.10851 18.3297H8.47075V21.6917C8.47075 22.1009 8.73433 22.2446 9.10851 22.2446C9.16708 22.2439 9.22523 22.2547 9.27963 22.2765C9.33403 22.2982 9.38361 22.3305 9.42554 22.3714C9.46748 22.4123 9.50094 22.461 9.52403 22.5149C9.54711 22.5687 9.55937 22.6266 9.56009 22.6852V23.4224C9.55937 23.481 9.54711 23.5389 9.52403 23.5927C9.50094 23.6466 9.46748 23.6953 9.42554 23.7362C9.38361 23.7771 9.33403 23.8094 9.27963 23.8311C9.22523 23.8529 9.16708 23.8637 9.10851 23.863C8.75645 23.8888 8.3915 23.9017 8.12423 23.9017C6.7105 23.9017 5.94741 23.0575 5.94741 21.476V18.3297H5.45159C5.3336 18.3311 5.21983 18.2858 5.13519 18.2036C5.05055 18.1214 5.00194 18.009 5 17.891V17.1758C5.00072 17.1172 5.01298 17.0594 5.03606 17.0055C5.05915 16.9517 5.09261 16.9029 5.13455 16.862C5.17648 16.8211 5.22607 16.7889 5.28046 16.7671C5.33486 16.7454 5.39301 16.7346 5.45159 16.7353H5.94741V15.2829Z" fill="white"/>
<path d="M32.7584 17.2459C32.7916 17.0999 32.8737 16.9698 32.9911 16.8769C33.1084 16.784 33.2539 16.7341 33.4036 16.7353H34.3436C34.4291 16.7341 34.5139 16.7497 34.5933 16.7813C34.6727 16.8128 34.7451 16.8598 34.8064 16.9193C34.8677 16.9789 34.9166 17.0499 34.9504 17.1284C34.9842 17.2069 35.0023 17.2913 35.0035 17.3767C35.0054 17.4111 35.0054 17.4456 35.0035 17.4799C34.6698 19.4669 33.9399 21.9221 33.2764 24.0344C32.7713 25.6435 32.1115 26.1854 30.8655 26.1854C30.5595 26.1854 30.2259 26.1854 29.966 26.167C29.9073 26.1679 29.8489 26.1573 29.7943 26.1357C29.7397 26.114 29.6899 26.0818 29.6478 26.0409C29.6056 26 29.572 25.9511 29.5488 25.8972C29.5256 25.8432 29.5133 25.7852 29.5126 25.7264V24.9633C29.5145 24.8449 29.5633 24.732 29.6483 24.6494C29.7333 24.5669 29.8475 24.5213 29.966 24.5228H30.0268C30.6056 24.5228 30.801 24.1265 30.7991 23.9828C30.793 23.8027 30.7581 23.6247 30.6959 23.4556C30.2351 22.0161 29.6877 19.7268 29.2213 17.5094C29.2109 17.4654 29.206 17.4202 29.2066 17.3749C29.209 17.2026 29.2797 17.0384 29.403 16.9181C29.5264 16.7979 29.6924 16.7315 29.8646 16.7334H30.8286C30.9726 16.7328 31.113 16.7792 31.2281 16.8658C31.3433 16.9523 31.4269 17.0741 31.4664 17.2127C31.7133 18.1011 31.9714 19.7821 32.176 20.8143H32.2C32.3843 19.6623 32.587 18.0679 32.7714 17.244" fill="white"/>
<path d="M26.2689 20.689C26.1536 20.7726 26.0301 20.8442 25.9003 20.9028C25.5704 21.065 25.1962 21.2475 25.1464 21.6641C25.1335 21.7442 25.1383 21.8262 25.1606 21.9042C25.1829 21.9823 25.2221 22.0544 25.2755 22.1156C25.3215 22.1643 25.3769 22.203 25.4384 22.2296C25.4999 22.2563 25.5661 22.2701 25.633 22.2705C26.0183 22.2705 26.2745 22.1009 26.2745 21.2696L26.2689 20.689ZM24.7538 23.9552C23.5336 23.9552 22.7466 23.1589 22.7466 21.9276C22.7466 20.6577 23.6516 19.8374 25.5962 19.3471C26.0367 19.2458 26.2247 19.0375 26.2247 18.6541C26.2207 18.5407 26.1771 18.4323 26.1014 18.3477C26.0257 18.2632 25.9228 18.2078 25.8105 18.1914C25.6982 18.1749 25.5837 18.1984 25.487 18.2577C25.3902 18.317 25.3173 18.4083 25.281 18.5159C25.1888 18.8845 24.9326 19.0559 24.4755 19.0559H23.8378C23.3806 19.0559 23.1005 18.7868 23.1005 18.3537C23.1001 18.2817 23.1113 18.2101 23.1337 18.1417C23.5447 16.7759 24.9547 16.5731 25.7584 16.5731C26.68 16.5731 27.3159 16.7187 27.7619 17.0302C28.2836 17.3989 28.5527 18.0034 28.5895 18.8863C28.6356 19.9351 28.6706 22.0198 28.6024 23.1736C28.5962 23.3637 28.5153 23.5436 28.3773 23.6743C28.2392 23.8051 28.0552 23.8762 27.8652 23.8722H27.032C26.8495 23.8733 26.673 23.8066 26.5368 23.685C26.4006 23.5634 26.3144 23.3957 26.2948 23.2142C25.9777 23.6897 25.4266 23.9515 24.7538 23.9515" fill="white"/>
<path d="M12.6897 14.8406L12.6584 14.7797C12.5315 14.5421 12.3419 14.3438 12.1102 14.2064C11.8785 14.0689 11.6136 13.9976 11.3442 14.0001C10.9581 13.9966 10.5863 14.1461 10.3101 14.4158C10.0338 14.6855 9.87546 15.0535 9.86963 15.4396C9.8702 15.6598 9.92174 15.877 10.0202 16.0739C10.1187 16.2709 10.2615 16.4424 10.4373 16.575C10.8594 16.8939 11.2907 17.4966 10.2733 18.4182C10.089 18.6154 10.218 18.7666 10.347 18.8495C10.6585 19.0449 10.865 19.0173 11.1967 18.8495C12.052 18.4164 13.5929 16.6672 12.6934 14.8332" fill="#7CA73E"/>
</g>
<circle cx="20" cy="20" r="19.5" stroke="black" stroke-opacity="0.05"/>
<defs>
<clipPath id="clip0_14382_20243">
<rect width="30" height="12.1836" fill="white" transform="translate(5 14)"/>
</clipPath>
</defs>
</svg>
