<svg width="40" height="40" viewBox="0 0 40 40" fill="none" xmlns="http://www.w3.org/2000/svg">
<circle cx="20" cy="20" r="20" fill="#00A74F"/>
<g clip-path="url(#clip0_17752_43618)">
<path d="M21.4823 24.2044C21.4857 24.2121 21.4913 24.2187 21.4983 24.2231C21.5053 24.2276 21.5134 24.2298 21.5216 24.2294C23.5557 24.1859 25.8351 23.5806 27.3865 22.2079C28.0764 21.5973 28.6534 20.6954 28.5826 19.7631C28.3819 17.1481 24.1774 15.8795 22.121 15.4998C17.4259 14.6312 12.7155 14.7978 7.98981 15.9995C7.97495 16.0031 7.96533 15.9978 7.96096 15.9837L7.95047 15.9508C7.94959 15.9464 7.95091 15.9437 7.9544 15.9428C9.0779 15.5077 10.1411 15.1648 11.1439 14.9143C12.2796 14.6312 13.5081 14.4022 14.8292 14.2272C18.8829 13.6932 23.3341 13.7921 27.4862 14.5965C28.5852 14.8092 29.6493 15.0853 30.6783 15.4246C32.6915 16.0879 36.4947 17.7521 35.8823 20.3683C35.4233 22.3292 32.6154 23.5688 30.9026 24.1569C29.8499 24.5173 28.8112 24.7991 27.7865 25.0022C22.9065 25.9714 17.7092 26.0294 12.7111 25.0853C10.6521 24.6976 8.84839 24.1301 7.29998 23.3828C6.09998 22.8053 4.77801 21.9072 4.26916 20.6519C3.69473 19.2303 5.01145 18.1081 6.13407 17.5978C6.79375 17.2971 7.46129 17.0571 8.16817 16.9055C11.8534 16.1103 15.9164 16.1406 19.6108 16.8633C21.3236 17.1995 23.2934 17.822 24.6219 18.9125C25.8639 19.9332 26.1262 21.4483 24.8016 22.527C23.8298 23.3182 22.6744 23.7771 21.5098 24.1582C21.5028 24.1609 21.4967 24.1648 21.4915 24.1701C21.4801 24.1789 21.477 24.1903 21.4823 24.2044ZM16.1362 20.1494C16.1365 19.9696 16.1016 19.7916 16.0335 19.6254C15.9653 19.4592 15.8653 19.3081 15.7391 19.1808C15.613 19.0535 15.4631 18.9524 15.298 18.8833C15.133 18.8142 14.956 18.7785 14.7772 18.7782L14.5517 18.7778C14.3729 18.7775 14.1958 18.8126 14.0305 18.8811C13.8653 18.9496 13.715 19.0501 13.5884 19.177C13.4618 19.3039 13.3612 19.4546 13.2925 19.6206C13.2238 19.7865 13.1883 19.9645 13.188 20.1442L13.1864 21.0647C13.1861 21.2444 13.221 21.4225 13.2891 21.5886C13.3572 21.7548 13.4572 21.9059 13.5834 22.0332C13.7096 22.1606 13.8595 22.2616 14.0246 22.3307C14.1896 22.3998 14.3666 22.4355 14.5453 22.4358L14.7709 22.4362C14.9497 22.4365 15.1268 22.4014 15.292 22.3329C15.4573 22.2644 15.6076 22.1639 15.7342 22.037C15.8608 21.9101 15.9614 21.7594 16.0301 21.5935C16.0988 21.4275 16.1343 21.2496 16.1346 21.0698L16.1362 20.1494ZM8.48817 19.3688C8.91134 19.2316 9.23178 19.3446 9.44948 19.7077C9.49495 19.7824 9.55877 19.8057 9.64096 19.7776L9.91637 19.6826C10.0012 19.6536 10.027 19.5969 9.99375 19.5125C9.69473 18.7648 8.83178 18.5802 8.1603 18.8795C7.44293 19.2013 7.35899 20.2708 8.12621 20.5793C8.40686 20.6919 8.71593 20.8004 9.05342 20.905C9.28686 20.9762 9.43724 21.098 9.50457 21.2703C9.76686 21.9402 8.1708 22.2316 8.17473 21.2479C8.17472 21.2371 8.17236 21.2265 8.16783 21.2168C8.16331 21.207 8.15672 21.1984 8.14856 21.1916C8.1404 21.1848 8.13086 21.1799 8.12064 21.1773C8.11042 21.1748 8.09978 21.1745 8.08948 21.1767L7.63834 21.2716C7.61212 21.277 7.58886 21.2922 7.57309 21.3141C7.55733 21.3361 7.5502 21.3632 7.55309 21.3903C7.66063 22.5072 8.97604 22.7327 9.74981 22.1868C10.441 21.6989 10.2495 20.6492 9.4285 20.4013C9.11112 20.3064 8.79244 20.1951 8.47244 20.0677C8.16162 19.9437 8.1708 19.4703 8.48817 19.3688ZM11.2147 21.8004C11.2053 21.8004 11.1959 21.7985 11.1871 21.7949C11.1784 21.7913 11.1704 21.7859 11.1637 21.7792C11.157 21.7724 11.1517 21.7645 11.1481 21.7557C11.1445 21.7469 11.1426 21.7374 11.1426 21.7279L11.1439 20.8642C11.1439 20.8449 11.1515 20.8265 11.165 20.8129C11.1786 20.7993 11.1969 20.7916 11.216 20.7916L12.6377 20.8009C12.6564 20.8009 12.6743 20.7936 12.6878 20.7806C12.7012 20.7675 12.7091 20.7497 12.7098 20.731L12.7269 20.2971C12.7272 20.2874 12.7256 20.2777 12.7221 20.2686C12.7187 20.2595 12.7134 20.2511 12.7067 20.2441C12.7 20.2371 12.6919 20.2315 12.683 20.2277C12.674 20.2239 12.6644 20.222 12.6547 20.222L11.2213 20.2259C11.2022 20.2259 11.1838 20.2183 11.1703 20.2047C11.1568 20.1911 11.1492 20.1726 11.1492 20.1534L11.1439 19.473C11.1439 19.4537 11.1515 19.4353 11.165 19.4217C11.1786 19.4081 11.1969 19.4004 11.216 19.4004L12.7728 19.3991C12.7914 19.3991 12.8094 19.3918 12.8229 19.3788C12.8363 19.3658 12.8442 19.348 12.8449 19.3292L12.858 18.9178C12.8584 18.908 12.8568 18.8983 12.8533 18.8892C12.8498 18.8801 12.8446 18.8718 12.8378 18.8648C12.8311 18.8578 12.823 18.8522 12.8141 18.8484C12.8052 18.8446 12.7956 18.8426 12.7859 18.8426L10.5656 18.8439C10.5464 18.8439 10.5281 18.8516 10.5145 18.8652C10.501 18.8788 10.4934 18.8972 10.4934 18.9165L10.4895 22.2949C10.4895 22.3142 10.4971 22.3326 10.5106 22.3462C10.5241 22.3598 10.5425 22.3675 10.5616 22.3675L12.8764 22.3714C12.8953 22.3714 12.9134 22.364 12.9269 22.3506C12.9404 22.3373 12.9482 22.3192 12.9485 22.3002L12.9524 21.8624C12.9526 21.8528 12.9509 21.8432 12.9473 21.8342C12.9438 21.8253 12.9385 21.8171 12.9318 21.8103C12.9251 21.8034 12.9171 21.7979 12.9082 21.7942C12.8994 21.7905 12.8899 21.7886 12.8803 21.7886L11.2147 21.8004ZM16.5013 21.3231C16.517 22.2976 17.5767 22.622 18.3531 22.3754C18.9223 22.1947 19.1583 21.7714 19.157 21.178C19.1553 20.4325 19.1548 19.6804 19.1557 18.9217C19.1557 18.8699 19.1304 18.8439 19.0796 18.8439L18.5878 18.84C18.573 18.84 18.5583 18.8429 18.5446 18.8487C18.5309 18.8544 18.5185 18.8628 18.5081 18.8734C18.4977 18.8839 18.4895 18.8965 18.4841 18.9102C18.4786 18.9239 18.476 18.9386 18.4764 18.9534C18.486 19.6822 18.4882 20.4343 18.4829 21.2097C18.4777 22.0945 17.14 22.0945 17.1452 21.0936C17.1487 20.3086 17.1496 19.5908 17.1478 18.9402C17.1478 18.8769 17.1164 18.8448 17.0534 18.8439L16.597 18.8373C16.5306 18.8365 16.4969 18.8694 16.496 18.9362C16.4899 19.8409 16.4917 20.6365 16.5013 21.3231ZM21.9334 21.8598C21.9338 21.8496 21.9321 21.8394 21.9284 21.8299C21.9247 21.8204 21.9191 21.8117 21.912 21.8044C21.9049 21.7971 21.8964 21.7914 21.887 21.7875C21.8776 21.7837 21.8675 21.7818 21.8574 21.782L20.2416 21.7978C20.2317 21.798 20.2218 21.7961 20.2126 21.7924C20.2034 21.7887 20.195 21.7832 20.1879 21.7762C20.1808 21.7692 20.1752 21.7609 20.1714 21.7517C20.1675 21.7425 20.1655 21.7326 20.1656 21.7226L20.1826 18.9138C20.1828 18.9036 20.1809 18.8935 20.1771 18.884C20.1732 18.8746 20.1675 18.866 20.1603 18.8589C20.153 18.8517 20.1444 18.8461 20.1349 18.8424C20.1255 18.8387 20.1154 18.837 20.1052 18.8373L19.5911 18.8492C19.5715 18.8496 19.5528 18.8576 19.5391 18.8717C19.5254 18.8858 19.5177 18.9047 19.5177 18.9244L19.519 22.2949C19.519 22.3149 19.5269 22.334 19.5409 22.3481C19.5549 22.3622 19.5739 22.3701 19.5937 22.3701L21.8416 22.3688C21.861 22.3688 21.8796 22.3612 21.8936 22.3477C21.9075 22.3342 21.9157 22.3157 21.9164 22.2962L21.9334 21.8598Z" fill="white"/>
<path d="M13.7876 20.5979C13.7864 21.3065 14.1793 21.8816 14.6654 21.8825C15.1514 21.8833 15.5463 21.3096 15.5476 20.6009C15.5488 19.8923 15.1558 19.3172 14.6698 19.3163C14.1838 19.3155 13.7888 19.8892 13.7876 20.5979Z" fill="white"/>
</g>
<circle cx="20" cy="20" r="19.5" stroke="black" stroke-opacity="0.05"/>
<defs>
<clipPath id="clip0_17752_43618">
<rect width="32" height="12" fill="white" transform="translate(4.03516 13.8936)"/>
</clipPath>
</defs>
</svg>
