<svg width="41" height="40" viewBox="0 0 41 40" fill="none" xmlns="http://www.w3.org/2000/svg">
<circle cx="20.0352" cy="20" r="20" fill="#404048"/>
<g clip-path="url(#clip0_18001_37158)">
<path d="M9.18012 16.1163H8.22663C8.22663 16.1163 7.34291 16.093 7.27314 17.0465L7.13361 19.1395L7.11035 19.6512L7.13361 20.5814L7.15686 21.6279L7.24989 22.8837C7.24989 22.8837 7.22663 23.8372 8.45919 23.8372H9.20337L9.22663 20.1395L13.1336 23.8372H15.2499L12.0173 20.093L15.1801 16.093H13.1569L9.20337 19.9767L9.18012 16.1163Z" fill="#AAA9AD"/>
<path d="M23.6221 16.1163H16.7616C16.7616 16.1163 15.8779 16.0698 15.7616 17.0698L15.6453 19.0465L15.6221 19.9303L15.6453 21.4186L15.7151 22.9535C15.7151 22.9535 15.8081 23.8837 16.8779 23.8837H23.6221V22.3489H17.7616V20.7442H23.529V19.1861H17.7849V17.6279H23.6221V16.1163Z" fill="#AAA9AD"/>
<path d="M27.0173 17.6278H32.8545V16.1162H25.994C25.994 16.1162 25.1103 16.0232 24.994 17.0464L24.8777 19.0464L24.8545 19.9302L24.8777 21.4185L24.9475 22.9767C24.9475 22.9767 25.0173 23.9069 26.1103 23.8837H32.8545V22.3488H27.0173V17.6278Z" fill="#AAA9AD"/>
</g>
<circle cx="20" cy="20" r="19.5" stroke="black" stroke-opacity="0.05"/>
<defs>
<clipPath id="clip0_18001_37158">
<rect width="26" height="8" fill="white" transform="translate(7.01758 16)"/>
</clipPath>
</defs>
</svg>
