<svg width="40" height="40" viewBox="0 0 40 40" fill="none" xmlns="http://www.w3.org/2000/svg">
<circle cx="20" cy="20" r="20" fill="#CEA961"/>
<g clip-path="url(#clip0_19604_30541)">
<path d="M16.9783 18.1778H10.8637C11.6142 14.5573 14.3244 11.67 17.7983 10.7432V9C12.7738 10.1305 9 14.7253 9 20.2096C9 25.1219 12.0283 29.3196 16.2726 30.9542V29.121C12.9643 27.5831 10.6566 24.168 10.6566 20.2096C10.6566 20.1672 10.6583 20.1248 10.6599 20.0823H16.98V31H18.8387V16.696H16.98V18.1778H16.9783Z" fill="#FEFEFE"/>
<path d="M31 20.3214C31 14.8371 27.2262 10.2423 22.2017 9.11182V10.855C26.3051 11.9499 29.3434 15.7792 29.3434 20.3214C29.3434 22.2259 28.8066 24.0031 27.8822 25.5087L24.7512 22.4075L22.485 26.5832V16.6958H20.6262V30.9998H22.485L25.2499 25.5189L27.9717 28.1583C29.8487 26.1062 31 23.3496 31 20.3214Z" fill="#FEFEFE"/>
</g>
<circle cx="20" cy="20" r="19.5" stroke="black" stroke-opacity="0.05"/>
<defs>
<clipPath id="clip0_19604_30541">
<rect width="22" height="22" fill="white" transform="translate(9 9)"/>
</clipPath>
</defs>
</svg>
