<svg width="40" height="40" viewBox="0 0 40 40" fill="none" xmlns="http://www.w3.org/2000/svg">
<circle cx="20" cy="20" r="20" fill="#F6F8FA"/>
<path d="M14.1822 16.6909H12.2148C12.2003 16.6909 12.1885 16.7027 12.1885 16.7173V18.317C12.1885 18.3316 12.2003 18.3434 12.2148 18.3434H14.1822C14.1967 18.3434 14.2085 18.3316 14.2085 18.317V16.7173C14.2085 16.7027 14.1967 16.6909 14.1822 16.6909Z" fill="#006440"/>
<path d="M8.53844 22.5415H6.05291C6.0482 22.5415 6.04368 22.5396 6.04035 22.5363C6.03703 22.533 6.03516 22.5285 6.03516 22.5238L6.03573 16.7339C6.03573 16.7292 6.0376 16.7247 6.04093 16.7213C6.04426 16.718 6.04877 16.7161 6.05348 16.7161L8.5373 16.7156C8.54201 16.7156 8.54652 16.7174 8.54985 16.7208C8.55318 16.7241 8.55505 16.7286 8.55505 16.7333V18.5089C8.555 18.5126 8.5561 18.5162 8.5582 18.5192C8.56029 18.5222 8.56327 18.5245 8.56673 18.5258C8.57019 18.527 8.57396 18.5272 8.5775 18.5262C8.58105 18.5252 8.58421 18.5232 8.58654 18.5203L10.0157 16.7236C10.0173 16.7215 10.0194 16.7198 10.0218 16.7186C10.0241 16.7174 10.0268 16.7168 10.0294 16.7167L11.8302 16.7156C11.8335 16.7156 11.8367 16.7166 11.8395 16.7184C11.8422 16.7202 11.8445 16.7227 11.8459 16.7256C11.8473 16.7286 11.8479 16.7319 11.8475 16.7352C11.8472 16.7385 11.8459 16.7416 11.8439 16.7442L9.78952 19.4571C9.7871 19.4602 9.78579 19.464 9.78579 19.4679C9.78579 19.4719 9.7871 19.4757 9.78952 19.4788L12.1594 22.4694C12.1617 22.4722 12.1648 22.4742 12.1683 22.4752C12.1718 22.4762 12.1755 22.4761 12.1789 22.4749C12.1824 22.4737 12.1854 22.4715 12.1875 22.4686C12.1896 22.4656 12.1908 22.4621 12.1909 22.4585V18.6801C12.1909 18.6754 12.1928 18.6709 12.1961 18.6675C12.1994 18.6642 12.2039 18.6623 12.2086 18.6623H14.1829C14.1876 18.6623 14.1921 18.6642 14.1954 18.6675C14.1987 18.6709 14.2006 18.6754 14.2006 18.6801L14.2018 22.5238C14.2018 22.5285 14.1999 22.533 14.1966 22.5363C14.1932 22.5396 14.1887 22.5415 14.184 22.5415H10.0815C10.0789 22.5415 10.0763 22.5408 10.0739 22.5396C10.0715 22.5384 10.0694 22.5367 10.0678 22.5346L8.58654 20.5925C8.58431 20.5894 8.58116 20.5872 8.57756 20.586C8.57396 20.5849 8.57009 20.5849 8.56652 20.5861C8.56294 20.5874 8.55985 20.5897 8.55768 20.5928C8.55552 20.5959 8.55439 20.5996 8.55448 20.6033L8.55619 22.5238C8.55619 22.5261 8.55574 22.5284 8.55484 22.5305C8.55395 22.5327 8.55264 22.5347 8.551 22.5363C8.54935 22.538 8.54739 22.5393 8.54524 22.5402C8.54308 22.541 8.54078 22.5415 8.53844 22.5415Z" fill="#0C1560"/>
<path d="M28.2726 16.7012H26.3533C26.3248 16.7012 26.3018 16.7242 26.3018 16.7527V18.2815C26.3018 18.3099 26.3248 18.333 26.3533 18.333H28.2726C28.301 18.333 28.3241 18.3099 28.3241 18.2815V16.7527C28.3241 16.7242 28.301 16.7012 28.2726 16.7012Z" fill="#FA0001"/>
<path d="M22.6398 19.3431C22.615 19.3419 22.6026 19.3538 22.6026 19.3786L22.6049 22.5157C22.6049 22.5329 22.5961 22.5415 22.5785 22.5415H20.622C20.6151 22.5415 20.6084 22.5386 20.6034 22.5336C20.5985 22.5285 20.5957 22.5217 20.5957 22.5146L20.6014 16.747C20.6014 16.7268 20.6115 16.7167 20.6318 16.7167L22.5837 16.715C22.5881 16.715 22.5923 16.7168 22.5954 16.72C22.5985 16.7232 22.6003 16.7276 22.6003 16.7321L22.6157 18.084C22.6165 18.129 22.6394 18.151 22.6844 18.1498C23.2063 18.1357 23.762 18.1288 24.3518 18.1292C24.5701 18.1296 24.753 18.1552 24.9003 18.2059C25.3858 18.3726 25.6664 18.8283 25.6687 19.3505C25.6725 20.3613 25.6721 21.4125 25.6676 22.5043C25.6674 22.5142 25.6634 22.5236 25.6563 22.5306C25.6492 22.5376 25.6397 22.5415 25.6298 22.5415H23.683C23.6768 22.5415 23.6708 22.539 23.6664 22.5346C23.662 22.5302 23.6595 22.5242 23.6595 22.518C23.6618 21.6664 23.6616 20.832 23.659 20.0147C23.6578 19.6895 23.5261 19.3362 23.1356 19.3477C22.9639 19.3526 22.7986 19.3511 22.6398 19.3431Z" fill="#0C1560"/>
<path d="M30.9611 19.2761L30.9623 22.5163C30.9623 22.5229 30.9597 22.5293 30.9551 22.5341C30.9505 22.5388 30.9442 22.5414 30.9377 22.5414H28.9949C28.9894 22.5414 28.984 22.5404 28.9789 22.5382C28.9739 22.5361 28.9692 22.533 28.9654 22.529C28.9615 22.5251 28.9584 22.5204 28.9563 22.5153C28.9542 22.5102 28.9531 22.5046 28.9531 22.4991L28.9921 18.1309C28.9924 18.0893 29.0134 18.0683 29.055 18.0679C30.2559 18.0592 31.4797 18.0422 32.7264 18.017C33.2755 18.0061 33.7375 18.2311 33.9488 18.7556C34.0068 18.8995 34.0357 19.0886 34.0353 19.323C34.0322 20.4502 34.0317 21.5141 34.0336 22.5145C34.0336 22.5217 34.0307 22.5285 34.0257 22.5336C34.0206 22.5386 34.0138 22.5414 34.0067 22.5414H32.041C32.0181 22.5414 32.0067 22.53 32.0067 22.5071C32.007 21.6032 32.0074 20.7085 32.0078 19.8229C32.0078 19.5979 31.8687 19.2514 31.6041 19.2417C31.4152 19.2348 31.2156 19.2316 31.0052 19.232C30.9758 19.232 30.9611 19.2467 30.9611 19.2761Z" fill="#0C1560"/>
<path d="M17.542 21.5228C18.0527 21.5211 18.0681 20.7476 17.4893 20.7504C16.9037 20.7531 16.3344 20.7535 15.7813 20.7516C15.2786 20.7499 14.8709 20.2626 14.8594 19.7776C14.8537 19.5482 14.853 19.3226 14.8572 19.1009C14.861 18.8974 14.9228 18.713 15.0427 18.5477C15.2568 18.2534 15.5311 18.1286 15.8895 18.1298C17.2873 18.1343 18.6119 18.1349 19.8632 18.1315C19.8676 18.1315 19.872 18.1323 19.8761 18.134C19.8802 18.1357 19.8839 18.1381 19.887 18.1412C19.8902 18.1443 19.8927 18.148 19.8944 18.152C19.8961 18.156 19.8969 18.1603 19.8969 18.1647L19.8975 19.1072C19.8975 19.1182 19.8931 19.1289 19.8853 19.1367C19.8774 19.1445 19.8668 19.1489 19.8557 19.1489C19.0152 19.1486 18.1641 19.1486 17.3026 19.1489C17.0747 19.1489 16.9369 19.2595 16.8892 19.4805C16.8577 19.6282 17.0089 19.7942 17.1291 19.84C17.2104 19.871 17.3036 19.8857 17.4085 19.8841C18.0166 19.8754 18.5667 19.8755 19.0587 19.8847C20.0659 19.9036 19.9926 20.8375 19.9616 21.5572C19.9387 22.0857 19.5356 22.5168 18.9986 22.5225C17.7473 22.5363 16.426 22.543 15.0347 22.5426C15.0083 22.5426 14.9953 22.5292 14.9957 22.5025C14.998 22.1761 15.0118 21.8629 14.9677 21.544C14.9673 21.5414 14.9676 21.5388 14.9683 21.5363C14.969 21.5338 14.9703 21.5315 14.972 21.5295C14.9737 21.5276 14.9757 21.526 14.978 21.525C14.9804 21.5239 14.9829 21.5234 14.9854 21.5234C15.8607 21.5265 16.7129 21.5263 17.542 21.5228Z" fill="#0C1560"/>
<path d="M28.2914 18.6622H26.3298C26.3181 18.6622 26.3086 18.6717 26.3086 18.6834V22.5197C26.3086 22.5314 26.3181 22.5408 26.3298 22.5408H28.2914C28.3031 22.5408 28.3126 22.5314 28.3126 22.5197V18.6834C28.3126 18.6717 28.3031 18.6622 28.2914 18.6622Z" fill="#0C1560"/>
<circle cx="20" cy="20" r="19.5" stroke="black" stroke-opacity="0.05"/>
</svg>
