<svg width="40" height="40" viewBox="0 0 40 40" fill="none" xmlns="http://www.w3.org/2000/svg">
<circle cx="20" cy="20" r="20" fill="#0B6887"/>
<g clip-path="url(#clip0_24563_42811)">
<path d="M24.7705 22.7309H29.1779C29.4281 22.7309 29.6365 22.9258 29.6365 23.1724C29.6365 24.0554 29.6365 24.9671 29.6365 25.9075C29.6365 26.2974 29.7378 26.6701 29.9343 27.0256C30.0832 27.2836 29.9999 27.6277 29.6604 27.6907C29.571 27.7079 29.4876 27.6907 29.4043 27.6391C29.0529 27.4212 28.6002 27.3123 28.0582 27.3123H16.4382C16.2238 27.3123 16.0511 27.146 16.0511 26.9396V17.7194C16.0511 17.7194 16.0392 17.6907 16.0213 17.6907H15.0505C15.0505 17.6907 15.0207 17.7022 15.0207 17.7194V26.8421C15.0207 27.06 14.842 27.232 14.6157 27.2377C13.8891 27.2492 13.1625 27.2492 12.4239 27.2377C11.7628 27.2263 11.1732 27.3754 10.5835 27.6735C10.2024 27.8685 9.8986 27.5302 10.0237 27.1632C10.2083 26.6185 10.2857 26.091 10.2857 25.5233C10.2798 21.802 10.2738 18.3157 10.2738 15.0531C10.2738 14.5485 10.1904 13.9579 10.0237 13.2928C9.9403 12.943 10.1904 12.6219 10.5776 12.7825C11.1255 13.0061 11.6437 13.1208 12.1261 13.1208C17.415 13.1208 22.7574 13.1208 28.1476 13.1208C28.5466 13.1208 28.9516 13.0118 29.3566 12.7997C29.7795 12.576 30.1309 12.9488 29.9463 13.3501C29.714 13.8605 29.6008 14.3708 29.6008 14.8926C29.6008 15.6838 29.6008 16.4694 29.6008 17.2492C29.6008 17.5416 29.446 17.6907 29.1422 17.6907H24.6931C24.6931 17.6907 24.6633 17.7022 24.6633 17.7194V22.6391C24.6633 22.7022 24.6931 22.7309 24.7586 22.7309H24.7705ZM14.1392 17.3467C14.1392 17.06 14.3239 16.8822 14.5978 16.8765C16.4442 16.8765 18.362 16.8765 20.3572 16.8765C20.5895 16.8765 20.7741 17.0543 20.7741 17.2779V22.6965C20.7741 22.6965 20.786 22.7251 20.8039 22.7251H23.7402C23.7819 22.7251 23.8057 22.7022 23.8057 22.6621V14.0267C23.8057 13.9866 23.7819 13.9637 23.7402 13.9637C19.708 13.9637 15.8605 13.9637 12.1857 13.9637C11.8164 13.9637 11.465 13.9063 11.1196 13.8146C11.0838 13.8031 11.0481 13.826 11.0362 13.8605C11.0362 13.8662 11.0362 13.8777 11.0362 13.8834C11.0719 14.2217 11.1255 14.5543 11.1255 14.8868C11.1255 18.677 11.1255 22.341 11.1374 25.8731C11.1374 26.0852 11.1077 26.3031 11.066 26.5095C11.0541 26.5611 11.0779 26.5841 11.1315 26.5726C11.4352 26.5095 11.7628 26.4235 12.0725 26.4178C12.7396 26.4178 13.4066 26.4178 14.0916 26.4178C14.1273 26.4178 14.1511 26.3891 14.1511 26.3605C14.1511 23.2756 14.1511 20.271 14.1392 17.3467ZM28.8384 13.8088C28.5704 13.9063 28.3203 13.9522 28.0761 13.9579C26.9504 13.9694 25.8307 13.9751 24.711 13.9579C24.6812 13.9579 24.6693 13.9694 24.6693 13.9981V16.9166C24.6693 16.9166 24.6812 16.9453 24.6991 16.9453H28.767C28.8265 16.9453 28.8563 16.9166 28.8504 16.8593C28.8444 15.9992 28.8504 15.1391 28.8504 14.2733C28.8504 14.1357 28.8682 13.9981 28.904 13.8662C28.9099 13.8375 28.892 13.8146 28.8682 13.8088C28.8563 13.8088 28.8504 13.8088 28.8384 13.8088ZM20.1904 23.4935C20.0058 23.396 19.9165 23.2469 19.9165 23.052C19.9165 21.3777 19.9165 19.6288 19.9165 17.8054C19.9165 17.7595 19.8926 17.7366 19.845 17.7366H16.9742C16.9326 17.7366 16.9087 17.7595 16.9087 17.7997V26.3834C16.9087 26.3834 16.9266 26.4178 16.9445 26.4178C20.5478 26.4178 24.1511 26.4178 27.7545 26.4178C28.1416 26.4178 28.5109 26.4923 28.892 26.5669C28.9516 26.5783 28.9754 26.5554 28.9695 26.4981C28.9278 26.1884 28.8623 25.8903 28.8623 25.5749C28.8623 24.8926 28.8623 24.2332 28.8563 23.5967C28.8563 23.5508 28.8325 23.5336 28.7908 23.5336H20.3393C20.2857 23.5336 20.2381 23.5222 20.1964 23.4992L20.1904 23.4935Z" fill="white"/>
</g>
<circle cx="20" cy="20" r="19.5" stroke="black" stroke-opacity="0.05"/>
<defs>
<clipPath id="clip0_24563_42811">
<rect width="20" height="15" fill="white" transform="translate(10 12.7368)"/>
</clipPath>
</defs>
</svg>
