<svg width="40" height="40" viewBox="0 0 40 40" fill="none" xmlns="http://www.w3.org/2000/svg">
<circle cx="20" cy="20" r="20" fill="#F6F8FA"/>
<path d="M20.1322 20.1388L18.0602 23.2957C17.5666 24.2403 17.074 25.1703 16.5825 26.0878C16.3404 26.5399 16.2147 26.8693 16.2053 27.0771C16.1284 28.7096 17.8783 29.3434 19.1783 29.4401C23.1581 29.7373 27.7926 28.1609 30.1234 24.712C31.9284 22.0404 32.0811 18.6373 30.1805 15.9782C30.0351 15.7755 29.9249 15.5511 29.8501 15.3059C29.6319 14.592 29.5228 13.9737 29.5217 13.4521C29.5217 13.4074 29.5363 13.3689 29.5643 13.3346C29.5831 13.3128 29.6028 13.3107 29.6246 13.3294C30.7521 14.3218 31.6 15.4087 32.1663 16.5902C33.1919 18.7298 33.2761 21.1572 32.3897 23.331C30.9724 26.8059 27.5027 29.0837 23.9697 29.9534C21.3376 30.6008 18.6878 30.6008 16.0214 29.9534C13.7312 29.3964 11.097 27.6715 10.5016 25.2347C10.2917 24.3712 10.5151 23.623 10.9536 22.8146C12.8853 19.2618 14.8389 15.6425 16.8163 11.9568C16.9119 11.7801 17.1322 11.7136 17.3078 11.8082C17.338 11.8237 17.365 11.8445 17.3899 11.8684C18.667 13.1123 19.9192 14.3353 21.1464 15.5376C21.6213 16.0021 21.8571 16.5757 21.8561 17.2573C21.5922 17.8309 21.2939 18.3401 20.9625 18.7838C20.8554 19.1153 20.7889 19.321 20.659 19.4883C20.4502 19.4935 20.208 19.4977 19.9337 19.5008C19.6261 19.505 19.4588 19.532 19.411 19.903C19.4058 19.9435 19.4235 19.9632 19.464 19.9622L20.0958 19.9476C20.1488 19.9466 20.1686 19.9715 20.1571 20.0235M13.5971 20.0578C13.6013 20.037 13.621 20.0235 13.6418 20.0277C13.6553 20.0297 13.6657 20.0391 13.6709 20.0516L14.1697 21.2653C14.1759 21.2788 14.1884 21.2892 14.204 21.2892L14.8181 21.2995C14.8358 21.2995 14.8524 21.2881 14.8565 21.2705L15.267 19.585C15.2712 19.5642 15.2587 19.5434 15.2379 19.5393C15.2348 19.5393 15.2327 19.5393 15.2296 19.5393L14.8098 19.5351C14.7911 19.5351 14.7755 19.5476 14.7713 19.5652L14.5355 20.5774C14.5303 20.5981 14.5095 20.6106 14.4887 20.6054C14.4773 20.6023 14.4669 20.594 14.4627 20.5836L14.0263 19.5497C14.02 19.5351 14.0055 19.5258 13.9899 19.5258L13.2646 19.5299C13.2469 19.5299 13.2313 19.5424 13.2272 19.559L12.8292 21.2507C12.825 21.2715 12.8375 21.2923 12.8583 21.2964C12.8614 21.2964 12.8645 21.2964 12.8677 21.2964L13.2916 21.2892C13.3093 21.2892 13.3238 21.2767 13.328 21.2601L13.5971 20.0578ZM15.8354 19.958L17.0044 19.9487C17.0699 19.9487 17.127 19.9019 17.1385 19.8365L17.18 19.6016C17.1894 19.5497 17.1676 19.5247 17.1146 19.5258C16.755 19.5341 16.3705 19.5341 15.9611 19.5247C15.6317 19.5174 15.3792 19.7003 15.2836 20.0131C15.2026 20.276 15.1454 20.5389 15.1111 20.8018C15.0706 21.1146 15.2067 21.2756 15.5216 21.285C15.824 21.2944 16.224 21.2964 16.7218 21.2923C16.7529 21.2923 16.7789 21.2705 16.7872 21.2414L16.8745 20.9213C16.8839 20.8891 16.8652 20.8548 16.8319 20.8455C16.8267 20.8444 16.8205 20.8434 16.8153 20.8434L15.6348 20.8475C15.6026 20.8475 15.5756 20.8215 15.5756 20.7883C15.5756 20.7862 15.5756 20.7852 15.5756 20.7831L15.5798 20.7374C15.585 20.674 15.6193 20.6428 15.6826 20.6428L16.7654 20.6407C16.8517 20.6407 16.9078 20.5992 16.9327 20.516L16.9961 20.3072C17.0221 20.223 16.9909 20.1814 16.9026 20.1814L15.8042 20.1846C15.7585 20.1846 15.7398 20.1617 15.7471 20.117L15.7637 20.0183C15.7699 19.983 15.8001 19.958 15.8354 19.958ZM18.8686 19.5341C18.8572 19.5341 18.8468 19.5382 18.8385 19.5465L18.3012 20.0817C18.2846 20.0983 18.2576 20.0983 18.241 20.0817C18.2379 20.0786 18.2358 20.0755 18.2337 20.0713L17.9563 19.5517C17.949 19.5372 17.9344 19.5289 17.9178 19.5289L17.3588 19.533C17.3349 19.533 17.3162 19.5517 17.3162 19.5756C17.3162 19.5829 17.3182 19.5902 17.3214 19.5964L17.7297 20.3425C17.7391 20.3591 17.736 20.3799 17.7225 20.3934L16.8673 21.2372C16.8506 21.2538 16.8506 21.2808 16.8673 21.2975C16.8756 21.3058 16.887 21.3099 16.8984 21.3099L17.4429 21.2923C17.4533 21.2923 17.4637 21.2871 17.471 21.2798L18.1267 20.647C18.1433 20.6304 18.1703 20.6314 18.1869 20.6491C18.189 20.6511 18.1911 20.6543 18.1932 20.6574L18.533 21.2715C18.5402 21.285 18.5548 21.2933 18.5704 21.2933L19.1606 21.2995C19.1845 21.2995 19.2032 21.2808 19.2032 21.2569C19.2032 21.2486 19.2011 21.2403 19.197 21.2341L18.6753 20.4121C18.6649 20.3955 18.667 20.3737 18.6805 20.3591L19.4339 19.5975C19.4505 19.5808 19.4505 19.5538 19.4339 19.5372C19.4256 19.5289 19.4142 19.5247 19.4027 19.5247L18.8686 19.5341Z" fill="#1A943F"/>
<path d="M20.1394 20.1064L19.8734 21.2099C19.863 21.2505 19.8786 21.2702 19.9202 21.2692L20.2724 21.2629C20.3192 21.2619 20.3483 21.238 20.3597 21.1923L20.632 20.0222C20.6434 19.9723 20.6881 19.937 20.739 19.938L21.2658 19.9412C21.3147 19.9412 21.3573 19.9079 21.3687 19.8611L21.4321 19.6086C21.4477 19.5473 21.4082 19.4954 21.3448 19.4954L20.5384 19.4891L21.8571 17.2581C22.7788 15.6319 23.3534 14.5865 23.582 14.122C23.9759 13.323 23.7452 12.3067 23.022 11.7414C22.465 11.306 21.6243 11.1262 20.9344 11.066C17.1052 10.7324 12.8344 11.9243 10.3758 15.0271C8.85554 16.9464 8.26947 19.167 8.61966 21.69C8.71733 22.3935 8.92828 23.1167 9.25352 23.8597C9.25352 23.8618 9.38238 24.1049 9.63696 24.5902C10.0079 25.2979 10.2563 26.0803 10.3799 26.9386C10.3966 27.0519 10.3612 27.0716 10.275 26.9958C8.86385 25.7727 7.72912 24.1101 7.26775 22.2969C6.15277 17.9242 8.64979 14.0566 12.3512 11.9482C15.002 10.4383 18.0674 9.82837 21.1858 10.0403C22.5772 10.1349 23.741 10.3552 24.6752 10.6992C25.8006 11.1138 26.8366 11.7757 27.7822 12.687C28.4597 13.3396 28.9699 14.1584 29.2546 15.0895C29.5892 16.1816 29.3004 17.0067 28.7922 17.9512C26.8356 21.5913 24.9329 25.1368 23.0864 28.5888C23.0303 28.6937 22.9596 28.7831 22.8723 28.8548C22.8443 28.8776 22.8058 28.888 22.7705 28.8797C22.6749 28.8569 22.5907 28.8091 22.5169 28.7363C21.1858 27.4281 19.9233 26.1728 18.7283 24.9685C18.3978 24.6359 18.1152 24.1392 18.0861 23.655C18.0788 23.5397 18.0705 23.4191 18.0591 23.2955L20.1384 20.1053L20.1394 20.1064ZM25.2156 19.645C25.2405 19.6481 25.2498 19.6627 25.2436 19.6876L24.9797 20.7548C24.9225 20.9886 25.0659 21.2255 25.2997 21.2827C25.333 21.291 25.3683 21.2951 25.4026 21.2951L26.5675 21.2972C26.6277 21.2972 26.6662 21.2681 26.6818 21.211L26.7597 20.9304C26.7701 20.894 26.7493 20.8556 26.7129 20.8462C26.7067 20.8442 26.7005 20.8431 26.6932 20.8431L25.5169 20.8483C25.4909 20.8483 25.4691 20.8265 25.4691 20.7995C25.4691 20.7964 25.4691 20.7922 25.4701 20.7891L25.7569 19.5567C25.7642 19.5265 25.7455 19.4974 25.7154 19.4902C25.7154 19.4902 25.7154 19.4902 25.7143 19.4902C25.4847 19.4445 25.2841 19.5328 25.0586 19.5307C24.6877 19.5276 24.2876 19.5276 23.8585 19.5328C23.2963 19.539 23.2651 20.2082 23.1404 20.5896C23.0386 20.8992 23.1113 21.2899 23.5166 21.2941C23.9416 21.2983 24.3458 21.2993 24.7292 21.2962C24.7781 21.2962 24.8061 21.2712 24.8134 21.2224L24.8591 20.9075C24.8654 20.8639 24.8467 20.8421 24.802 20.8421L23.6423 20.8452C23.6122 20.8452 23.5883 20.8213 23.5883 20.7912C23.5883 20.787 23.5883 20.7828 23.5893 20.7797L23.5987 20.7361C23.6122 20.6748 23.6496 20.6446 23.7119 20.6446L24.7999 20.6405C24.8633 20.6405 24.9173 20.5968 24.9329 20.5355L24.9953 20.2903C25.0129 20.2186 24.9859 20.1833 24.9121 20.1833H23.8065C23.7556 20.1833 23.7338 20.1573 23.7421 20.1064L23.7504 20.0586C23.7618 19.989 23.8034 19.9536 23.874 19.9536L25.0129 19.9557C25.0472 19.9557 25.0722 19.9412 25.0898 19.9121C25.1387 19.8331 25.1667 19.7448 25.1761 19.646C25.1761 19.6429 25.1802 19.6398 25.1833 19.6408L25.2156 19.645ZM21.6877 20.7226C21.7012 20.6696 21.7345 20.6436 21.7885 20.6436L22.9035 20.6415C22.9648 20.6415 23.0043 20.6114 23.022 20.5522L23.0916 20.3121C23.1196 20.2165 23.0833 20.1708 22.9845 20.176C22.6157 20.1937 22.254 20.1916 21.8997 20.1698C21.8727 20.1687 21.8498 20.149 21.8446 20.122C21.8342 20.0752 21.8467 20.0305 21.8831 19.99C21.9049 19.9661 21.9361 19.9526 21.9683 19.9526L23.0999 19.9609C23.1529 19.9609 23.2007 19.9276 23.2163 19.8778L23.2932 19.6357C23.315 19.566 23.2901 19.5317 23.2173 19.5307C22.8463 19.5307 22.4452 19.5276 22.014 19.5245C21.3874 19.5193 21.2721 20.3059 21.2097 20.7839C21.163 21.1382 21.3718 21.3107 21.696 21.3055C22.094 21.2993 22.4629 21.2962 22.8006 21.2962C22.8754 21.2962 22.917 21.2588 22.9264 21.185L22.9586 20.919C22.9658 20.867 22.943 20.841 22.89 20.841H21.7376C21.6846 20.84 21.6649 20.8151 21.6773 20.7641L21.6877 20.7226Z" fill="#0171B2"/>
<circle cx="20" cy="20" r="19.5" stroke="black" stroke-opacity="0.05"/>
</svg>
