<svg width="40" height="40" viewBox="0 0 40 40" fill="none" xmlns="http://www.w3.org/2000/svg">
<circle cx="20" cy="20" r="20" fill="#F6F8FA"/>
<path d="M22.4949 28.7909C22.7253 29.0281 22.9557 29.2653 23.1938 29.5399C23.2389 29.6296 23.2762 29.682 23.3136 29.7344C23.3147 29.8218 23.3159 29.9092 23.3008 30.0348C23.2118 30.2125 23.139 30.352 23.0663 30.4914C23.0441 30.5151 23.022 30.5388 22.9722 30.5844C22.901 30.6734 22.8573 30.7405 22.8137 30.8077C22.7941 30.8167 22.7784 30.8302 22.7402 30.8671C22.6633 30.9655 22.6126 31.045 22.562 31.1245C22.5398 31.1484 22.5176 31.1724 22.4677 31.2188C21.9723 31.8455 21.5042 32.4495 21.0374 33.0545C20.7923 33.3722 20.5755 33.7204 20.1595 33.8488C20.1118 33.8489 20.0641 33.849 19.9856 33.8248C19.9158 33.7966 19.8768 33.7927 19.8378 33.7889C19.6446 33.56 19.4515 33.3312 19.2406 33.0681C19.1875 32.9965 19.1521 32.959 19.1168 32.9216C19.0302 32.795 18.9437 32.6684 18.8414 32.5095C18.8237 32.4488 18.8218 32.4204 18.8398 32.376C18.881 32.1022 18.9661 31.9115 19.1735 31.7085C19.5462 31.3434 19.8236 30.8823 20.1517 30.4699C20.5215 30.0049 20.9147 29.5583 21.2755 29.0866C21.4867 28.8105 21.6867 28.5416 22.0741 28.481C22.2275 28.5888 22.3612 28.6899 22.4949 28.7909Z" fill="#DA652A"/>
<path d="M17.0012 9.1216C17.0264 9.10051 17.0516 9.07942 17.1159 9.05332C17.2047 8.96257 17.2544 8.87683 17.304 8.79109C17.3098 8.77222 17.3204 8.75664 17.3696 8.73888C17.4352 8.67201 17.4672 8.61063 17.4992 8.54925C17.5683 8.4472 17.6374 8.34516 17.7337 8.215C17.8035 8.11949 17.8462 8.05209 17.8888 7.98469C17.9141 7.96372 17.9393 7.94275 18.0036 7.91629C18.0912 7.82439 18.1398 7.73799 18.1883 7.65159C18.194 7.63289 18.2045 7.61739 18.2557 7.59922C18.3423 7.50924 18.3929 7.42514 18.4539 7.324C18.4826 7.25859 18.5007 7.2102 18.5189 7.16181C18.576 7.09109 18.6331 7.02037 18.7196 6.92425C18.7994 6.81827 18.8497 6.7377 18.9001 6.65713C18.9552 6.58506 19.0104 6.51299 19.0971 6.41741C19.1795 6.31333 19.2301 6.23275 19.2808 6.15217C19.355 6.07706 19.4292 6.00195 19.5369 5.91034C19.6608 5.84621 19.7511 5.79859 19.8415 5.75098C19.9086 5.75819 19.9757 5.7654 20.0676 5.78606C20.0924 5.79951 20.099 5.82555 20.0996 5.84515C20.1428 5.86854 20.1853 5.87233 20.2278 5.87612C20.2848 5.91109 20.3418 5.94607 20.3894 6.01164C20.4364 6.09603 20.4929 6.14982 20.5494 6.20362C20.619 6.28139 20.6886 6.35915 20.7702 6.472C20.8071 6.55443 20.832 6.60177 20.856 6.67257C20.9472 6.8765 20.9616 7.12193 21.2351 7.15103C21.2577 7.18134 21.2804 7.21164 21.2836 7.27098C21.1078 7.48181 20.9441 7.65793 20.7967 7.84674C20.5788 8.12571 20.3858 8.42482 20.1584 8.69535C19.7674 9.16054 19.3545 9.60725 18.9575 10.0675C18.6484 10.426 18.5691 10.9507 18.1122 11.2077C17.9689 11.1113 17.8445 11.0248 17.7202 10.9383C17.4293 10.6345 17.1385 10.3308 16.8347 9.99321C16.8003 9.93129 16.7789 9.90328 16.7576 9.87526C16.7561 9.8097 16.7545 9.74414 16.7779 9.64898C16.8175 9.5717 16.8321 9.52401 16.8509 9.45458C16.9039 9.32909 16.9525 9.22535 17.0012 9.1216Z" fill="#839C40"/>
<path d="M18.1318 11.2171C18.5698 10.9502 18.649 10.4255 18.9582 10.0671C19.3551 9.60679 19.768 9.16008 20.159 8.6949C20.3864 8.42436 20.5795 8.12525 20.7973 7.84629C20.9448 7.65747 21.1085 7.48135 21.285 7.29004C21.3355 7.29515 21.366 7.30978 21.4082 7.35795C21.4743 7.45125 21.5286 7.511 21.5829 7.57075C21.6449 7.65672 21.7069 7.74268 21.7829 7.86454C21.8651 8.0081 21.9335 8.11577 21.999 8.24733C22.0599 8.34161 22.1238 8.412 22.1996 8.49117C22.227 8.51309 22.2389 8.52891 22.2465 8.57097C22.3129 8.66025 22.38 8.72597 22.4471 8.7917C22.4471 8.7917 22.4453 8.79966 22.4376 8.82446C22.3823 9.12935 22.3394 9.41002 21.9886 9.48363C21.9484 9.49208 21.8894 9.56059 21.8916 9.59824C21.9077 9.88041 21.6802 9.97997 21.5189 10.1368C21.4022 10.2504 21.3144 10.3949 21.2195 10.5297C21.0345 10.7926 20.8984 11.1118 20.6609 11.3109C20.2549 11.6514 20.0771 12.2127 19.5514 12.4262C19.5365 12.4323 19.531 12.4617 19.5212 12.4803C19.498 12.4759 19.4748 12.4716 19.4298 12.4427C19.3647 12.3907 19.3216 12.3632 19.2784 12.3356C19.2707 12.3169 19.259 12.3013 19.2229 12.2622C19.0802 12.1426 18.9575 12.0498 18.8348 11.957C18.7044 11.8338 18.5741 11.7107 18.4202 11.5596C18.3084 11.4268 18.2201 11.322 18.1318 11.2171Z" fill="#899F3F"/>
<path d="M26.2342 23.7212C26.2606 23.7282 26.2871 23.7351 26.3352 23.7715C26.3982 23.8178 26.4396 23.8346 26.481 23.8515C26.4916 23.8533 26.5022 23.855 26.5302 23.8857C26.7162 23.9982 26.8848 24.0819 27.0534 24.1655C27.1025 24.1898 27.1515 24.2142 27.2216 24.2687C27.2849 24.3175 27.3272 24.3362 27.3696 24.3549C27.5233 24.4401 27.6769 24.5253 27.8519 24.6409C27.9113 24.6953 27.9495 24.7192 27.9877 24.7431C27.9877 24.7431 27.9951 24.7424 27.9977 24.7698C28.0289 24.8908 28.0575 24.9843 28.0862 25.0778C27.6458 25.5057 27.2054 25.9335 26.7256 26.3707C26.6374 26.4353 26.5885 26.4904 26.5396 26.5456C26.138 26.9133 25.7363 27.281 25.2905 27.6474C25.2154 27.6456 25.1846 27.645 25.1434 27.6305C25.0976 27.6434 25.0621 27.6701 25.0241 27.7105C25.0216 27.7242 25.0231 27.752 25.0231 27.752C24.9971 27.7548 24.9711 27.7576 24.9267 27.7416C24.9082 27.7228 24.9027 27.6955 24.8998 27.6787C24.8569 27.655 24.8167 27.6481 24.7533 27.6418C24.6994 27.6471 24.6688 27.6516 24.6381 27.6562C24.6127 27.6515 24.5872 27.6468 24.5407 27.6137C24.4764 27.5654 24.433 27.5456 24.3897 27.5257C24.3897 27.5257 24.3608 27.5195 24.346 27.4916C24.2894 27.4408 24.2476 27.418 24.2057 27.3951C24.0923 27.3122 23.9788 27.2292 23.8459 27.1141C23.7852 27.0588 23.744 27.0358 23.7027 27.0127C23.7027 27.0127 23.6988 27.0053 23.7009 26.9783C23.5814 26.5559 23.7778 26.2732 24.0367 26.0136C24.191 25.8589 24.3547 25.713 24.5014 25.5516C25.0454 24.9531 25.4178 24.2039 26.1249 23.7293C26.176 23.7267 26.2051 23.724 26.2342 23.7212Z" fill="#DA652A"/>
<path d="M22.0548 28.4744C21.6871 28.5419 21.4871 28.8108 21.2758 29.0869C20.9151 29.5586 20.5219 30.0052 20.152 30.4702C19.824 30.8826 19.5466 31.3437 19.1738 31.7088C18.9665 31.9118 18.8814 32.1026 18.8241 32.3702C18.7579 32.3667 18.7275 32.3531 18.6971 32.3396C18.6852 32.3215 18.6733 32.3034 18.6495 32.2529C18.4151 31.9294 18.1925 31.6383 17.97 31.3472C17.97 31.3472 17.9618 31.3275 17.9522 31.2994C17.8582 31.1417 17.7737 31.0119 17.6924 30.8585C17.6961 30.5333 17.7982 30.2801 18.0431 30.0917C18.064 30.0756 18.0584 30.0289 18.0767 30.0053C18.2849 29.7366 18.4883 29.4637 18.707 29.2037C19.0039 28.8507 19.3085 28.5038 19.6182 28.1618C19.9315 27.816 20.1148 27.314 20.6967 27.2632C20.7404 27.2663 20.7653 27.2675 20.7902 27.2687C20.798 27.2883 20.8104 27.3044 20.8465 27.3441C20.9882 27.4634 21.1107 27.5557 21.2332 27.648C21.2892 27.7014 21.3453 27.7548 21.4206 27.8409C21.5595 27.9682 21.6792 28.0627 21.7989 28.1573C21.7989 28.1573 21.8026 28.1524 21.8029 28.1746C21.8457 28.2236 21.8881 28.2502 21.9305 28.2768C21.9379 28.2972 21.9503 28.3139 21.9843 28.3519C22.0188 28.4095 22.0368 28.442 22.0548 28.4744Z" fill="#DB6D2B"/>
<path d="M19.5244 12.5C19.531 12.462 19.5365 12.4326 19.5514 12.4265C20.0771 12.213 20.2549 11.6517 20.6609 11.3112C20.8984 11.1121 21.0345 10.7929 21.2195 10.53C21.3144 10.3952 21.4022 10.2507 21.5189 10.1371C21.6802 9.98026 21.9077 9.8807 21.8916 9.59853C21.8894 9.56087 21.9484 9.49236 21.9886 9.48392C22.3394 9.41031 22.3823 9.12964 22.4335 8.82445C22.4685 8.81405 22.4999 8.82874 22.5437 8.8771C22.611 8.9701 22.6657 9.02942 22.7204 9.08875C22.7921 9.19027 22.8638 9.2918 22.924 9.42459C22.9694 9.5089 23.0264 9.56195 23.0833 9.615C23.1095 9.63449 23.1358 9.65398 23.1763 9.70293C23.2552 9.80149 23.3198 9.87059 23.3845 9.93969C23.3963 9.95539 23.4088 9.97049 23.4324 10.0169C23.5073 10.1182 23.572 10.1876 23.6368 10.257C23.6901 10.329 23.7435 10.4009 23.7762 10.4925C23.5822 10.7372 23.4066 10.9606 23.236 11.1876C22.9185 11.6103 22.6171 12.0459 22.2845 12.4563C21.9269 12.8975 21.5412 13.3159 21.1458 13.7397C20.8645 13.5687 20.605 13.4022 20.3456 13.2357C20.2318 13.1346 20.118 13.0335 19.9805 12.903C19.8777 12.8216 19.7987 12.7697 19.7196 12.7177C19.6556 12.6516 19.5916 12.5855 19.5244 12.5Z" fill="#90A13E"/>
<path d="M26.103 23.7288C25.4179 24.2037 25.0455 24.9529 24.5015 25.5514C24.3548 25.7129 24.1911 25.8588 24.0369 26.0134C23.778 26.273 23.5815 26.5557 23.7044 26.9757C23.6707 26.9866 23.6357 26.9729 23.5868 26.9239C23.5322 26.8672 23.4916 26.8458 23.4509 26.8244C23.4189 26.8035 23.3869 26.7826 23.3369 26.7309C23.2783 26.6781 23.2377 26.6561 23.197 26.6341C23.1629 26.6159 23.1288 26.5977 23.0807 26.5439C23.0251 26.4874 22.9834 26.4666 22.9418 26.4458C22.9105 26.4257 22.8793 26.4057 22.8305 26.3549C22.7714 26.3014 22.7298 26.2788 22.6882 26.2561C22.6546 26.2391 22.6211 26.2221 22.574 26.169C22.5169 26.1117 22.4733 26.0905 22.4297 26.0694C22.4202 26.0644 22.4107 26.0594 22.3853 26.0235C22.3038 25.9558 22.2381 25.9192 22.1724 25.8825C22.1724 25.8825 22.1453 25.8759 22.1309 25.8479C22.0734 25.7976 22.0303 25.7754 21.9872 25.7531C21.9872 25.7531 21.9584 25.7462 21.9451 25.719C21.9094 25.6489 21.887 25.6061 21.8652 25.5375C21.9147 25.3685 21.9306 25.1993 22.0186 25.0865C22.2927 24.7351 22.5941 24.4049 22.8849 24.0666C23.1691 23.7361 23.4602 23.4114 23.733 23.0718C23.8125 22.973 23.8395 22.832 23.9146 22.7119C24.2665 22.8352 24.5944 22.9569 24.9223 23.0785C24.9642 23.0881 25.006 23.0977 25.0723 23.138C25.4321 23.3555 25.7675 23.5421 26.103 23.7288Z" fill="#DC712F"/>
<path d="M24.5785 16.101C24.5229 16.0827 24.4673 16.0645 24.3812 16.0214C24.1748 15.8982 23.999 15.7997 23.8231 15.7013C23.795 15.6783 23.767 15.6554 23.7163 15.608C23.4029 15.4066 23.1122 15.2297 22.8214 15.0527C22.7709 15.0172 22.7204 14.9817 22.6565 14.9225C22.6431 14.8988 22.6508 14.8696 22.6623 14.8518C22.7728 14.6441 22.8663 14.4509 22.9747 14.2666C23.0009 14.2221 23.0787 14.21 23.1292 14.1775C23.2231 14.1169 23.3391 14.071 23.4027 13.9865C23.7939 13.4669 24.1705 12.9363 24.5577 12.4136C24.6805 12.2478 24.8211 12.095 24.9707 11.9438C25.4675 12.4546 25.9472 12.9578 26.4247 13.4876C26.3802 13.65 26.3755 13.8193 26.2894 13.916C25.724 14.5512 25.3602 15.3523 24.6692 15.8847C24.6154 15.9261 24.6077 16.0275 24.5785 16.101Z" fill="#9FA83E"/>
<path d="M20.6779 27.261C20.1148 27.3137 19.9315 27.8157 19.6182 28.1615C19.3085 28.5034 19.004 28.8504 18.707 29.2034C18.4883 29.4634 18.2849 29.7363 18.0767 30.005C18.0585 30.0285 18.064 30.0753 18.0432 30.0913C17.7982 30.2797 17.6961 30.533 17.6749 30.8531C17.6319 30.8624 17.6096 30.8531 17.5872 30.8439C17.5674 30.8184 17.5475 30.7928 17.5165 30.7332C17.4056 30.5796 17.3057 30.4599 17.2059 30.3403C17.1848 30.3149 17.1637 30.2895 17.132 30.2314C17.0575 30.1302 16.9936 30.0616 16.9296 29.9931C16.9242 29.972 16.9131 29.9544 16.8836 29.9106C16.8145 29.8227 16.7581 29.7644 16.7018 29.7062C16.6817 29.6806 16.6616 29.655 16.6309 29.5973C16.5969 29.5162 16.5735 29.4673 16.5684 29.4034C16.7074 28.9329 16.918 28.543 17.3551 28.3115C17.407 28.284 17.4466 28.2269 17.4823 28.1767C17.6608 27.9262 17.8261 27.6657 18.0151 27.4236C18.2077 27.1768 18.4881 26.9757 18.6071 26.7013C18.7054 26.4748 18.8444 26.3793 19.0287 26.2827C19.1192 26.2352 19.2033 26.1753 19.3105 26.125C19.416 26.1732 19.5011 26.2174 19.5863 26.2616C19.6447 26.3128 19.7032 26.3641 19.7805 26.4474C19.8774 26.5305 19.9554 26.5815 20.0334 26.6325C20.047 26.6485 20.0606 26.6644 20.0928 26.7072C20.1901 26.7857 20.269 26.8373 20.3478 26.8889C20.3716 26.9111 20.3955 26.9332 20.4407 26.983C20.5341 27.0941 20.606 27.1775 20.6779 27.261Z" fill="#DD752D"/>
<path d="M15.3405 16.652C15.3405 16.652 15.3117 16.6465 15.2921 16.6171C15.2095 16.5681 15.1464 16.5484 15.0834 16.5287C15.0834 16.5287 15.0569 16.523 15.0391 16.4934C14.6677 16.2716 14.3141 16.0794 13.9629 15.8651C14.2511 15.4906 14.5408 15.1414 14.8216 14.7852C15.1682 14.3457 15.5034 13.8972 15.8513 13.4588C16.0349 13.2274 16.2351 13.0092 16.4472 12.7939C16.9173 13.134 17.3681 13.4652 17.8188 13.8217C17.8478 13.9854 17.8769 14.1236 17.9083 14.2726C17.8774 14.2966 17.8403 14.3366 17.7945 14.3588C17.5047 14.4988 17.2568 14.6612 17.216 15.0295C17.2066 15.1146 17.0604 15.1854 16.9756 15.261C16.9146 15.3154 16.8382 15.3574 16.7905 15.4212C16.4553 15.8691 16.1258 16.3211 15.7695 16.7716C15.7119 16.7763 15.6791 16.7814 15.6464 16.7864C15.6464 16.7864 15.6231 16.778 15.6058 16.7482C15.5059 16.6962 15.4232 16.6741 15.3405 16.652Z" fill="#899F3F"/>
<path d="M24.9535 11.9363C24.821 12.0951 24.6805 12.2479 24.5576 12.4138C24.1704 12.9364 23.7939 13.467 23.4027 13.9866C23.3391 14.0711 23.2231 14.1171 23.1291 14.1776C23.0787 14.2101 23.0009 14.2222 22.9747 14.2667C22.8662 14.451 22.7728 14.6442 22.6395 14.8464C22.3993 14.6993 22.1935 14.5398 21.9889 14.3548C21.9886 14.0963 21.8282 14.1092 21.6719 14.1218C21.6755 14.1221 21.6687 14.1246 21.6712 14.0991C21.6544 13.8022 21.531 13.7278 21.2754 13.8638C21.2285 13.8187 21.1982 13.7814 21.168 13.7441C21.5414 13.3158 21.9271 12.8974 22.2847 12.4562C22.6173 12.0458 22.9187 11.6102 23.2362 11.1875C23.4068 10.9605 23.5824 10.7371 23.778 10.5112C23.8788 10.5887 23.9574 10.6672 24.0543 10.7782C24.1377 10.8798 24.2027 10.9489 24.2677 11.0179C24.2738 11.0377 24.285 11.054 24.3154 11.0967C24.5375 11.3964 24.7455 11.6664 24.9535 11.9363Z" fill="#97A43E"/>
<path d="M24.9134 23.0586C24.5942 22.9569 24.2663 22.8352 23.8998 22.6951C23.3446 22.4972 22.8278 22.3178 22.2992 22.119C22.1651 22.05 22.046 21.9894 21.9199 21.9527C21.3978 21.8007 20.8736 21.6559 20.338 21.4884C20.302 21.448 20.2812 21.4164 20.2538 21.409C19.7615 21.2769 19.2709 21.1372 18.7748 21.0211C18.333 20.9177 17.8849 20.8413 17.4177 20.7432C17.1832 20.6884 16.9711 20.6407 16.7578 20.5992C16.3612 20.5221 15.9642 20.4471 15.5668 20.3741C15.1593 20.2992 14.7518 20.2233 14.3427 20.1584C14.2619 20.1456 14.1433 20.1501 14.0944 20.1989C13.9323 20.3609 13.7883 20.5424 13.6483 20.7247C13.5124 20.9014 13.5624 21.1574 13.7481 21.2384C14.6402 21.6275 15.5344 22.012 16.4476 22.4081C17.1916 22.7912 17.916 23.1642 18.6535 23.5542C19.2169 23.9024 19.766 24.2354 20.3182 24.5632C20.4043 24.6144 20.5044 24.642 20.6085 24.6991C20.9792 24.99 21.3394 25.2623 21.6948 25.5397C21.69 25.5447 21.6805 25.5549 21.6805 25.5549C21.2192 25.264 20.7557 24.9765 20.2969 24.6816C18.2904 23.3916 16.1483 22.3686 13.9487 21.4603C12.6856 20.9387 11.4157 20.4336 10.1516 19.9146C10.0162 19.859 9.89905 19.7592 9.77344 19.6799C9.78262 19.6403 9.7918 19.6007 9.80098 19.561C9.97781 19.5513 10.1577 19.5156 10.331 19.536C11.6982 19.6966 13.0685 19.8383 14.4296 20.0417C17.9043 20.5612 21.2863 21.4293 24.5186 22.8312C24.6521 22.8891 24.7762 22.969 24.9134 23.0586Z" fill="#E9A84F"/>
<path d="M24.5908 16.117C24.6071 16.0277 24.6148 15.9264 24.6686 15.8849C25.3596 15.3526 25.7234 14.5515 26.2888 13.9163C26.3749 13.8195 26.3796 13.6503 26.4429 13.499C26.954 13.948 27.444 14.4126 27.9343 14.8974C27.9353 14.9448 27.936 14.9718 27.9344 15.0213C27.5301 15.5453 27.1274 16.0464 26.7264 16.5489C26.5994 16.7082 26.477 16.8712 26.3296 17.0292C25.9846 16.8794 25.6625 16.7331 25.3404 16.5867C25.3116 16.5651 25.2829 16.5435 25.2364 16.5041C25.2187 16.4863 25.2153 16.4561 25.214 16.437C25.1711 16.4115 25.1294 16.405 25.0876 16.3986C24.9263 16.31 24.765 16.2214 24.5908 16.117Z" fill="#AAAE3D"/>
<path d="M19.2903 26.121C19.2033 26.1752 19.1193 26.2351 19.0288 26.2826C18.8445 26.3793 18.7055 26.4747 18.6072 26.7013C18.4882 26.9757 18.2078 27.1767 18.0152 27.4235C17.8262 27.6657 17.6608 27.9262 17.4824 28.1767C17.4467 28.2268 17.407 28.2839 17.3552 28.3114C16.9181 28.5429 16.7074 28.9329 16.5517 29.3971C16.4861 29.3904 16.4553 29.375 16.4246 29.3595C16.4189 29.3386 16.4078 29.3212 16.3782 29.2778C16.3001 29.1819 16.2349 29.1155 16.1697 29.049C16.1561 29.0325 16.1425 29.0159 16.1179 28.9665C16.0027 28.8216 15.8984 28.7096 15.7941 28.5976C15.788 28.5771 15.7765 28.5602 15.7483 28.52C15.7335 28.4682 15.73 28.4433 15.7365 28.3949C15.8137 28.1545 15.8338 27.905 15.9571 27.7269C16.2878 27.2492 16.6429 26.7848 17.0258 26.3479C17.3726 25.9523 17.7689 25.6 18.1433 25.2285C18.2033 25.2568 18.2633 25.2851 18.3505 25.3406C18.5068 25.4542 18.6358 25.5407 18.7648 25.6272C18.7885 25.65 18.8123 25.6728 18.8599 25.7206C18.9509 25.7878 19.0181 25.83 19.0853 25.8723C19.1101 25.8944 19.1348 25.9164 19.18 25.9655C19.2304 26.0353 19.2604 26.0782 19.2903 26.121Z" fill="#DF7C2E"/>
<path d="M18.1407 25.2117C17.7688 25.6001 17.3725 25.9525 17.0257 26.3481C16.6428 26.785 16.2877 27.2494 15.957 27.7271C15.8337 27.9052 15.8136 28.1547 15.7179 28.3855C15.5972 28.3192 15.5051 28.2391 15.413 28.159C15.3996 28.1429 15.3854 28.1275 15.3594 28.0803C15.2016 27.8942 15.0549 27.7406 14.9082 27.587C14.9018 27.5661 14.8897 27.5492 14.8578 27.5084C14.8034 27.4508 14.7631 27.4211 14.7229 27.3914C14.7229 27.3914 14.7207 27.3934 14.7213 27.3718C14.6938 27.3032 14.6656 27.2562 14.6621 27.2047C14.7632 27.0402 14.8201 26.8668 14.9199 26.7231C15.1443 26.4001 15.388 26.0903 15.6278 25.7782C15.8022 25.5511 15.9738 25.321 16.1629 25.1065C16.3901 24.8487 16.6345 24.6061 16.8714 24.3569C16.9955 24.4239 17.1195 24.4908 17.2733 24.5853C17.5594 24.7808 17.8157 24.9487 18.0721 25.1167C18.0941 25.1427 18.1161 25.1687 18.1407 25.2117Z" fill="#E08230"/>
<path d="M16.8656 24.337C16.6345 24.6063 16.3901 24.8489 16.1629 25.1067C15.9739 25.3212 15.8022 25.5513 15.6278 25.7784C15.388 26.0906 15.1444 26.4003 14.9199 26.7233C14.8201 26.867 14.7632 27.0405 14.6452 27.1951C14.5199 27.1265 14.4361 27.0631 14.3523 26.9997C14.1379 26.7676 13.9235 26.5355 13.7227 26.268C13.7461 26.1829 13.7778 26.1245 13.7621 26.085C13.6646 25.8394 13.7601 25.6876 13.9789 25.5779C14.0307 25.5519 14.0733 25.4984 14.1079 25.4491C14.2983 25.1774 14.467 24.8884 14.677 24.6332C14.9713 24.2757 15.2953 23.9428 15.6282 23.6011C15.7175 23.6256 15.7852 23.6483 15.8529 23.6711C16.0095 23.7703 16.166 23.8694 16.3517 23.9902C16.4144 24.0264 16.448 24.0409 16.4816 24.0555C16.6077 24.1426 16.7337 24.2297 16.8656 24.337Z" fill="#E28B39"/>
<path d="M19.7664 15.0039C19.8452 15.0607 19.9241 15.1176 20.0291 15.2057C20.1282 15.2654 20.2011 15.2937 20.2741 15.322C20.2741 15.322 20.2797 15.32 20.2838 15.3439C20.5399 15.5412 20.7919 15.7146 21.0436 15.9114C21.0045 16.0296 20.9839 16.1385 20.9237 16.2171C20.5927 16.6492 20.3405 17.1332 19.9246 17.5136C19.7157 17.7045 19.5559 17.9392 19.2488 18.0323C18.734 17.8637 18.2437 17.6983 17.7656 17.5152C18.0311 17.1973 18.2814 16.8947 18.5383 16.5978C18.7859 16.3116 19.06 16.046 19.285 15.7435C19.4473 15.5252 19.8245 15.3958 19.6717 15.0063C19.7159 15.0056 19.7411 15.0047 19.7664 15.0039Z" fill="#97A43E"/>
<path d="M15.6067 23.599C15.2955 23.9424 14.9714 24.2754 14.6772 24.6328C14.4671 24.888 14.2984 25.1771 14.1081 25.4487C14.0734 25.4981 14.0308 25.5516 13.979 25.5776C13.7603 25.6873 13.6647 25.839 13.7622 26.0846C13.7779 26.1242 13.7462 26.1826 13.7176 26.247C13.5411 26.1211 13.3834 25.9805 13.2139 25.7994C12.968 25.5468 12.734 25.3347 12.5 25.1227C12.5 25.1227 12.5015 25.1178 12.5044 25.0934C12.5682 24.9294 12.6022 24.7679 12.6947 24.654C13.1988 24.0337 13.7173 23.4251 14.2309 22.8125C14.2742 22.8208 14.3174 22.8291 14.3909 22.8569C14.4541 22.8903 14.4872 22.9042 14.5203 22.918C14.6873 23.0078 14.8544 23.0975 15.0524 23.2115C15.153 23.2707 15.2225 23.3056 15.292 23.3406C15.388 23.3967 15.484 23.4528 15.5934 23.5371C15.6068 23.5766 15.6068 23.5878 15.6067 23.599Z" fill="#E39138"/>
<path d="M26.3525 17.0322C26.4771 16.8709 26.5994 16.7078 26.7265 16.5485C27.1274 16.046 27.5301 15.5449 27.9586 15.0212C28.0334 14.9985 28.0818 14.9978 28.1302 14.9971C28.357 15.1894 28.5837 15.3817 28.8189 15.6147C28.8894 15.6878 28.9514 15.7202 29.0134 15.7527C29.0537 15.7786 29.094 15.8046 29.139 15.8727C29.2278 15.9664 29.312 16.018 29.3962 16.0696C29.3962 16.0696 29.3953 16.0729 29.3929 16.097C29.3617 16.2071 29.3532 16.3093 29.3003 16.3765C29.0895 16.6444 28.8397 16.8847 28.6518 17.1668C28.4218 17.5122 28.1987 17.8233 27.6961 17.7319C27.5923 17.7074 27.5095 17.6851 27.4267 17.6629C27.3376 17.6172 27.2485 17.5715 27.1283 17.5032C26.8489 17.3311 26.6007 17.1817 26.3525 17.0322Z" fill="#B4B53C"/>
<path d="M19.2725 18.0358C19.5551 17.9395 19.7149 17.7048 19.9237 17.5138C20.3396 17.1335 20.5919 16.6494 20.9229 16.2173C20.983 16.1388 21.0037 16.0299 21.0638 15.9189C21.4458 16.0669 21.8065 16.2308 22.1672 16.3948C22.2442 16.4347 22.3212 16.4746 22.4264 16.5434C22.5556 16.6579 22.6565 16.7435 22.7392 16.8416C22.2917 17.3611 21.8602 17.8663 21.4363 18.3778C21.3887 18.4353 21.3838 18.5283 21.3331 18.605C20.6289 18.4154 19.9507 18.2256 19.2725 18.0358Z" fill="#9DA63D"/>
<path d="M9.54414 20.545C9.58903 20.5515 9.63392 20.558 9.70048 20.5817C9.72216 20.599 9.72428 20.6287 9.72755 20.6502C9.8576 20.7141 9.98438 20.7564 10.1112 20.7987C10.1563 20.8056 10.2015 20.8125 10.2682 20.8373C10.2898 20.8552 10.2921 20.8849 10.2959 20.9062C10.4263 20.9706 10.5528 21.0138 10.6793 21.057C10.8167 21.1096 10.954 21.1623 11.107 21.2537C11.184 21.3257 11.2455 21.3588 11.3062 21.4145C11.0689 21.7094 10.8534 22.0047 10.5899 22.2481C10.3092 22.5074 10.1481 22.7726 10.2752 23.1466C10.0529 22.9729 9.85175 22.8054 9.64596 22.6439C9.2344 22.321 8.81478 22.008 8.40899 21.678C8.10426 21.4302 8.10291 21.2945 8.34956 21.0069C8.39594 20.9528 8.43629 20.882 8.44966 20.8132C8.49983 20.555 8.65502 20.4702 8.90403 20.4983C9.11646 20.5223 9.3307 20.5301 9.54414 20.545Z" fill="#E8A439"/>
<path d="M14.2232 22.7928C13.717 23.4251 13.1985 24.0337 12.6944 24.654C12.6019 24.7679 12.568 24.9294 12.5066 25.0937C12.453 25.0803 12.3998 25.0421 12.3312 24.9678C12.0421 24.6567 11.7682 24.3817 11.4951 24.0832C11.7936 23.6306 12.0865 23.1982 12.3912 22.7742C12.5459 22.559 12.7218 22.3592 12.9031 22.1509C12.9181 22.1494 12.9482 22.147 12.9679 22.1496C13.014 22.1542 13.0403 22.1561 13.0667 22.158C13.0992 22.1748 13.1318 22.1917 13.1817 22.2256C13.199 22.2427 13.2019 22.2718 13.2035 22.2899C13.2458 22.3197 13.2867 22.3313 13.3493 22.3452C13.4638 22.3826 13.5565 22.4175 13.6492 22.4525C13.8381 22.5593 14.0269 22.6662 14.2232 22.7928Z" fill="#E49435"/>
<path d="M11.4943 24.107C11.7682 24.382 12.042 24.657 12.3186 24.9523C12.0864 24.7855 11.854 24.5949 11.616 24.4117C9.87699 23.0734 8.13694 21.7365 6.39692 20.3996C6.33865 20.3549 6.25982 20.3264 6.22052 20.2696C6.13659 20.1483 6.07232 20.0134 6 19.8841C6.1335 19.819 6.26557 19.7012 6.40074 19.6975C7.33972 19.672 8.23548 19.8706 9.11689 20.2967C9.19318 20.3366 9.23663 20.3562 9.28009 20.3757C9.36372 20.4193 9.44735 20.4629 9.53757 20.5259C9.33072 20.5303 9.11647 20.5225 8.90405 20.4985C8.65504 20.4704 8.49984 20.5552 8.44967 20.8134C8.4363 20.8822 8.39595 20.953 8.34957 21.0071C8.10292 21.2947 8.10427 21.4304 8.409 21.6782C8.81479 22.0082 9.23441 22.3212 9.64597 22.6441C9.85176 22.8056 10.0529 22.9731 10.2941 23.1564C10.7195 23.4857 11.1069 23.7964 11.4943 24.107Z" fill="#ECB44E"/>
<path d="M11.4954 24.0831C11.1073 23.796 10.7199 23.4854 10.3136 23.165C10.1484 22.7725 10.3096 22.5072 10.5903 22.248C10.8537 22.0046 11.0692 21.7093 11.3224 21.4129C11.3494 21.388 11.36 21.387 11.3905 21.3879C11.4369 21.391 11.4634 21.3922 11.4899 21.3933C11.7073 21.4971 11.9246 21.6009 12.164 21.7231C12.186 21.7415 12.1886 21.771 12.191 21.7885C12.2339 21.8169 12.2744 21.8278 12.3335 21.8391C12.3821 21.8583 12.4122 21.8771 12.4444 21.9136C12.4871 21.9421 12.5277 21.9528 12.5869 21.9641C12.6356 21.9834 12.6657 22.002 12.6996 22.0424C12.765 22.0934 12.8267 22.1229 12.8884 22.1523C12.7221 22.3591 12.5461 22.559 12.3915 22.7741C12.0868 23.1981 11.7939 23.6305 11.4954 24.0831Z" fill="#E69D37"/>
<path d="M18.9578 20.142C18.4941 20.0682 18.0311 19.9897 17.5666 19.9216C16.3615 19.7448 15.1591 19.5434 13.9494 19.4064C12.593 19.2528 11.2313 19.1352 9.86891 19.0481C9.02144 18.9939 8.16848 19.0268 7.31804 19.0162C7.19338 19.0147 7.06017 19.0121 6.94672 18.9687C6.79899 18.9122 6.66705 18.8144 6.52832 18.7343C6.6328 18.6001 6.71067 18.4232 6.84617 18.3386C7.59474 17.8713 8.34589 17.4055 9.12063 16.9841C9.4448 16.8078 9.82302 16.7104 10.1887 16.639C10.3911 16.5995 10.6363 16.6447 10.8318 16.7254C12.9837 17.6134 15.2013 18.2895 17.4659 18.8193C18.0466 18.9552 18.624 19.1049 19.1867 19.2732C18.7409 19.2349 18.3113 19.1716 17.8579 19.1053C17.3035 18.9766 16.7729 18.8508 16.2367 18.702C15.6184 18.4882 15.0019 18.309 14.394 18.104C13.276 17.727 12.1397 17.39 11.0565 16.9293C10.3465 16.6272 9.75487 16.7533 9.15261 17.0922C8.41491 17.5074 7.68865 17.9434 6.96712 18.3862C6.85246 18.4566 6.78862 18.6097 6.70129 18.7246C6.82891 18.7691 6.95424 18.8231 7.08499 18.8546C7.16469 18.8737 7.25276 18.858 7.33706 18.8582C8.03256 18.8595 8.72958 18.8321 9.42322 18.8687C10.5318 18.9272 11.6385 19.0223 12.7451 19.1137C13.2242 19.1533 13.7007 19.2235 14.1787 19.2775C14.823 19.3501 15.4675 19.4205 16.1335 19.5028C16.2185 19.5466 16.2795 19.6015 16.3458 19.6087C16.8136 19.6599 17.2826 19.7014 17.7639 19.7664C17.8613 19.8146 17.9454 19.8442 18.0308 19.8696C18.3395 19.9612 18.6487 20.0513 18.9578 20.142Z" fill="#B3B55E"/>
<path d="M23.5732 20.0337C23.8969 20.0513 24.2217 20.0579 24.5441 20.0886C25.726 20.2009 26.9053 20.3458 28.0889 20.4326C29.6718 20.5486 31.2579 20.6212 32.8424 20.7154C32.9462 20.7215 33.0578 20.7332 33.1492 20.7768C33.2704 20.8347 33.4551 20.9164 33.4668 21.0068C33.4809 21.1146 33.3694 21.2887 33.263 21.3545C32.343 21.9234 31.4304 22.5092 30.477 23.0175C29.906 23.322 29.2686 23.2983 28.6403 23.0772C27.0461 22.5163 25.445 21.9748 23.8469 21.4251C23.7674 21.3978 23.6893 21.3665 23.5922 21.3095C23.5739 21.2821 23.5724 21.2574 23.6004 21.2578C23.7559 21.223 23.9556 21.2246 23.9962 21.1449C24.0869 20.9674 24.1061 20.7506 24.1397 20.5473C24.1849 20.274 24.1029 20.1004 23.7819 20.1172C23.714 20.1208 23.6429 20.0631 23.5732 20.0337ZM24.5204 20.8641C24.526 21.1611 24.4447 21.4896 24.8565 21.613C25.2707 21.737 25.6812 21.8746 26.0893 22.0175C26.8671 22.2897 27.6509 22.548 28.4157 22.8534C29.096 23.1251 29.7954 23.2201 30.437 22.8865C31.3994 22.3862 32.31 21.786 33.2399 21.2238C33.2954 21.1903 33.3269 21.117 33.3953 21.0291C33.2815 20.9708 33.1969 20.8939 33.1067 20.8866C32.4597 20.8346 31.8119 20.7895 31.1636 20.7561C30.2002 20.7065 29.2361 20.6684 28.2724 20.6249C28.2411 20.6235 28.2101 20.6162 28.1787 20.6131C27.3573 20.5334 26.5358 20.4553 25.7147 20.3732C25.5177 20.3535 25.3174 20.3391 25.127 20.2899C24.7363 20.1888 24.6858 20.2073 24.5675 20.5939C24.5462 20.6634 24.536 20.7363 24.5204 20.8641Z" fill="#E29C48"/>
<path d="M27.7168 17.7344C28.1985 17.8234 28.4216 17.5123 28.6516 17.1669C28.8395 16.8848 29.0893 16.6445 29.3001 16.3766C29.353 16.3094 29.3615 16.2072 29.391 16.0967C29.6182 16.2459 29.8447 16.4196 30.0822 16.6359C30.1427 16.7045 30.1921 16.7306 30.2415 16.7568C30.4364 16.8956 30.6313 17.0345 30.8231 17.2098C30.7723 17.2858 30.7128 17.3174 30.6787 17.3665C30.3865 17.7869 30.2016 18.3089 29.6196 18.4505C29.5773 18.4607 29.5541 18.5496 29.501 18.6009C29.4519 18.5989 29.424 18.5978 29.396 18.5968C29.2484 18.5315 29.1008 18.4661 28.9224 18.3767C28.7863 18.3066 28.6812 18.2606 28.576 18.2147C28.5436 18.1978 28.5112 18.1809 28.4509 18.1457C28.3881 18.1163 28.3533 18.1052 28.3185 18.0942C28.131 18.0011 27.9435 17.908 27.7395 17.7903C27.7208 17.7552 27.7188 17.7448 27.7168 17.7344Z" fill="#BCBB3E"/>
<path d="M22.7575 16.8289C22.6565 16.7432 22.5555 16.6576 22.4453 16.5552C22.7344 16.6603 23.0341 16.779 23.3309 16.9046C25.5089 17.8267 27.6868 18.7489 29.8627 19.6759C30.0141 19.7405 30.1486 19.8446 30.3213 19.9485C29.8972 20.1964 25.2336 19.6511 23.4252 19.1573C23.8127 19.163 24.1985 19.2005 24.6005 19.2557C24.7796 19.3032 24.9418 19.3387 25.1057 19.3618C25.4955 19.4166 25.8976 19.4242 26.2735 19.5279C26.6976 19.6449 27.0877 19.6967 27.455 19.4113C27.5387 19.3462 27.66 19.2378 27.65 19.1649C27.6348 19.0537 27.5427 18.9157 27.4436 18.8608C27.2015 18.7265 26.9387 18.628 26.6804 18.5248C26.2588 18.3565 25.8342 18.196 25.3961 18.0155C24.8632 17.778 24.3451 17.5571 23.816 17.3172C23.4558 17.1417 23.1066 16.9853 22.7575 16.8289Z" fill="#C4C454"/>
<path d="M24.5852 19.2383C24.1994 19.2008 23.8136 19.1632 23.4097 19.1412C23.3206 19.15 23.2497 19.1433 23.1479 19.1087C23.0757 19.0726 23.0344 19.0646 22.993 19.0566C22.9088 19.0499 22.8245 19.0432 22.7161 19.0117C22.6903 18.965 22.6887 18.9431 22.6897 18.8988C23.0043 18.4917 23.3215 18.1111 23.6253 17.72C23.7127 17.6076 23.7614 17.4651 23.8279 17.3364C24.3459 17.5573 24.864 17.7782 25.3788 18.0283C25.2448 18.2635 25.118 18.4722 24.9825 18.6749C24.8548 18.8659 24.718 19.0507 24.5852 19.2383Z" fill="#AAAE3D"/>
<path d="M29.5225 18.602C29.5545 18.5496 29.5777 18.4607 29.62 18.4505C30.202 18.3089 30.387 17.7869 30.6791 17.3665C30.7132 17.3174 30.7728 17.2858 30.8333 17.2285C31.0324 17.3423 31.2188 17.4737 31.4124 17.649C31.5069 17.7415 31.5941 17.7901 31.6812 17.8387C31.8152 17.9341 31.9492 18.0294 32.0987 18.1648C32.2607 18.4379 32.0687 18.5799 31.9762 18.7567C31.7427 19.2028 31.5852 19.3056 31.1273 19.2731C31.116 19.2723 31.1025 19.3032 31.0901 19.3193C31.0449 19.3129 30.9997 19.3065 30.9326 19.2827C30.9107 19.2653 30.909 19.2354 30.9058 19.2138C30.7751 19.1495 30.6478 19.1068 30.5204 19.0642C30.4755 19.0581 30.4305 19.0521 30.364 19.0283C30.3424 19.0106 30.3407 18.9804 30.3383 18.9616C30.2935 18.9379 30.2512 18.9329 30.2088 18.9278C30.0786 18.882 29.9483 18.8362 29.7859 18.7687C29.6767 18.6987 29.5996 18.6503 29.5225 18.602Z" fill="#C4C03F"/>
<path d="M23.5514 20.0206C23.6428 20.0631 23.714 20.1207 23.7819 20.1172C24.1029 20.1003 24.1849 20.274 24.1397 20.5473C24.1061 20.7505 24.0868 20.9673 23.9962 21.1449C23.9556 21.2245 23.7559 21.223 23.5798 21.2474C23.1631 21.1178 22.8022 20.9598 22.4249 20.8888C21.7573 20.7631 21.7364 20.7694 21.7384 20.226C21.7397 19.8614 21.8889 19.7952 22.2527 19.9026C22.4854 19.9712 22.7496 19.9335 22.9996 19.9434C23.0288 19.9421 23.058 19.9408 23.1131 19.9664C23.2194 19.9964 23.2998 19.9994 23.3802 20.0025C23.43 20.0041 23.4798 20.0058 23.5514 20.0206Z" fill="#D29434"/>
<path d="M31.1006 19.3368C31.1028 19.3033 31.1163 19.2724 31.1275 19.2732C31.5855 19.3057 31.743 19.2029 31.9764 18.7568C32.0689 18.5801 32.261 18.438 32.1124 18.1807C32.5126 18.4328 32.9163 18.7071 33.3164 18.9865C33.5216 19.1297 33.735 19.2665 33.9154 19.4372C33.9952 19.5127 34.0024 19.665 33.9999 19.7983C33.529 19.8186 33.1007 19.8231 32.6724 19.8276C32.5864 19.8186 32.5005 19.8095 32.3749 19.7826C32.2367 19.7434 32.1383 19.7219 32.0398 19.7005C31.9943 19.6925 31.9487 19.6846 31.8678 19.6579C31.754 19.6174 31.6754 19.5956 31.5969 19.5737C31.5705 19.5675 31.544 19.5614 31.4875 19.5372C31.4227 19.5091 31.388 19.4989 31.3532 19.4888C31.2724 19.4439 31.1916 19.3991 31.1006 19.3368Z" fill="#CFCA4E"/>
<path d="M22.9805 19.9287C22.7494 19.9331 22.4853 19.9709 22.2525 19.9022C21.8888 19.7949 21.7395 19.8611 21.7382 20.2257C21.7362 20.769 21.7571 20.7628 22.4247 20.8885C22.802 20.9595 23.1629 21.1175 23.5517 21.2466C23.5722 21.257 23.5737 21.2817 23.5752 21.294C23.091 21.1808 22.606 21.0531 22.1197 20.9304C21.2962 20.7227 20.4719 20.5186 19.6483 20.3113C19.5988 20.2989 19.5528 20.2725 19.5215 20.2254C19.7219 20.2242 19.9055 20.2553 20.0904 20.273C20.1427 20.278 20.221 20.2614 20.2494 20.2251C20.4382 19.9834 20.2362 19.5384 19.9335 19.4844C19.7928 19.4593 19.6615 19.3812 19.526 19.3271C20.031 19.4097 20.5366 19.4892 21.041 19.5757C21.6817 19.6855 22.3214 19.8012 22.9805 19.9287Z" fill="#CEA547"/>
<path d="M19.7614 14.9839C19.7405 15.0052 19.7153 15.006 19.6518 14.9949C19.538 14.9503 19.4548 14.9288 19.3881 14.8832C18.8633 14.5236 18.3416 14.1594 17.8189 13.7967C17.3682 13.4655 16.9174 13.1344 16.4282 12.785C16.127 12.5602 15.8696 12.3463 15.5998 12.1495C15.3598 11.9745 14.8332 11.9623 14.656 12.1242C13.8511 12.8595 13.0468 13.5957 12.2497 14.3394C11.9472 14.6216 11.9528 14.7137 12.3073 14.9304C12.8504 15.2624 13.4087 15.5697 13.9606 15.8876C14.3141 16.0797 14.6677 16.2719 15.0299 16.4838C14.5732 16.2909 14.0978 16.0977 13.6456 15.8604C13.1533 15.602 12.6815 15.3045 12.2028 15.0206C11.8383 14.8044 11.8052 14.5925 12.1167 14.3009C12.9375 13.5324 13.7654 12.7716 14.5964 12.0142C14.8586 11.7753 15.22 11.7427 15.5618 11.9657C16.0094 12.2576 16.4252 12.5978 16.8625 12.9063C17.789 13.56 18.7207 14.2064 19.6493 14.8571C19.69 14.8857 19.7213 14.9277 19.7614 14.9839Z" fill="#A8B86D"/>
<path d="M19.5022 19.3172C19.6616 19.3813 19.7928 19.4594 19.9335 19.4845C20.2362 19.5385 20.4383 19.9835 20.2494 20.2251C20.221 20.2615 20.1427 20.2781 20.0905 20.2731C19.9056 20.2553 19.7219 20.2242 19.5088 20.2051C19.4042 20.2062 19.3286 20.2005 19.2229 20.1747C19.1583 20.1587 19.1239 20.1628 19.0894 20.1668C19.0588 20.1662 19.0282 20.1655 18.9773 20.1533C18.648 20.051 18.3388 19.9609 18.03 19.8692C17.9446 19.8439 17.8606 19.8142 17.7852 19.7536C17.8232 19.5164 17.8521 19.3121 17.8809 19.1079C18.3105 19.1712 18.7401 19.2346 19.1967 19.2933C19.3086 19.2948 19.3935 19.3011 19.5022 19.3172Z" fill="#BAA23D"/>
<path d="M22.6872 18.9211C22.6887 18.943 22.6903 18.9649 22.6922 19.0032C22.2422 18.9321 21.7866 18.8654 21.3425 18.7534C19.5409 18.2992 17.7673 17.7562 16.0569 17.0222C15.9235 16.9649 15.797 16.8912 15.6572 16.8058C15.6798 16.7814 15.7126 16.7764 15.7846 16.7887C16.4671 17.0483 17.1102 17.2907 17.7534 17.5331C18.2437 17.6985 18.734 17.8638 19.2488 18.0325C19.9516 18.2255 20.6298 18.4153 21.3554 18.6146C21.831 18.7232 22.2591 18.8221 22.6872 18.9211Z" fill="#A8B86D"/>
<path d="M27.9345 14.8771C27.4445 14.4125 26.9544 13.948 26.4456 13.4723C25.9471 12.958 25.4674 12.4549 24.9705 11.9441C24.7453 11.6665 24.5373 11.3965 24.3281 11.1045C24.5421 11.2876 24.7616 11.4886 24.9719 11.6987C25.9809 12.7064 26.9876 13.7164 27.9939 14.7267C28.0222 14.7551 28.0372 14.7966 28.0386 14.8539C27.9907 14.8761 27.9626 14.8766 27.9345 14.8771Z" fill="#E2E6C5"/>
<path d="M20.1689 33.8647C20.576 33.7203 20.7928 33.3721 21.0379 33.0544C21.5046 32.4494 21.9728 31.8455 22.4601 31.2329C22.2928 31.5186 22.1261 31.8282 21.9145 32.1032C21.4636 32.6893 20.9841 33.2533 20.534 33.84C20.4945 33.8915 20.5866 34.0428 20.6159 34.1482C20.6353 34.2177 20.6517 34.288 20.6694 34.3579C20.5995 34.3372 20.5043 34.3381 20.4645 34.2916C20.3564 34.1654 20.2718 34.0191 20.1689 33.8647Z" fill="#F3D9C4"/>
<path d="M21.9869 14.3803C22.1927 14.5397 22.3986 14.6992 22.6271 14.8641C22.6499 14.8696 22.6423 14.8989 22.6392 14.9136C22.5413 14.8954 22.4301 14.8839 22.3541 14.8261C21.6826 14.3148 21.0174 13.7953 20.3477 13.2568C20.6044 13.402 20.8638 13.5685 21.1452 13.7395C21.1975 13.7813 21.2277 13.8186 21.2851 13.8819C21.4308 13.9801 21.5494 14.0523 21.6679 14.1245C21.6679 14.1245 21.6748 14.122 21.6799 14.1409C21.7857 14.2332 21.8863 14.3068 21.9869 14.3803Z" fill="#E2E6C5"/>
<path d="M22.1629 16.3744C21.8066 16.2309 21.4459 16.0669 21.0641 15.8956C20.7911 15.7149 20.5391 15.5415 20.2832 15.3472C20.5842 15.4789 20.8941 15.6227 21.1929 15.7866C21.52 15.9661 21.837 16.1641 22.1629 16.3744Z" fill="#A8B86D"/>
<path d="M26.3301 17.029C26.6012 17.1818 26.8494 17.3312 27.1068 17.4999C27.0485 17.51 26.971 17.5191 26.9147 17.4888C26.3906 17.2062 25.8701 16.9168 25.3447 16.6079C25.663 16.7329 25.9851 16.8792 26.3301 17.029Z" fill="#E2E6C5"/>
<path d="M32.6807 19.8486C33.1002 19.8232 33.5286 19.8188 33.9834 19.8149C33.9429 19.8713 33.873 19.9778 33.8092 19.9743C33.4352 19.9536 33.0625 19.9072 32.6807 19.8486Z" fill="#E2E6C5"/>
<path d="M26.1247 23.7294C25.7672 23.5425 25.4317 23.3558 25.0898 23.1504C25.4628 23.3147 25.8423 23.4977 26.2279 23.7011C26.2049 23.7242 26.1758 23.7269 26.1247 23.7294Z" fill="#E9A84F"/>
<path d="M19.8398 5.7294C19.7513 5.79835 19.661 5.84597 19.548 5.89309C19.4974 5.71861 19.4694 5.54464 19.4414 5.37066C19.4554 5.35242 19.4694 5.33417 19.4833 5.31592C19.6015 5.44664 19.7197 5.57735 19.8398 5.7294Z" fill="#E2E6C5"/>
<path d="M22.8203 15.0752C23.1115 15.2298 23.4023 15.4067 23.6971 15.6046C23.6497 15.627 23.5832 15.6502 23.5491 15.6266C23.3024 15.4556 23.0621 15.2751 22.8203 15.0752Z" fill="#E2E6C5"/>
<path d="M17.9639 31.3706C18.1927 31.6381 18.4152 31.9292 18.6364 32.2431C18.4092 31.9753 18.1834 31.6847 17.9639 31.3706Z" fill="#F3D9C4"/>
<path d="M18.1123 11.2076C18.2195 11.3223 18.3078 11.4272 18.4004 11.5525C18.173 11.371 17.9412 11.1691 17.7148 10.9526C17.8446 11.0246 17.969 11.1112 18.1123 11.2076Z" fill="#E2E6C5"/>
<path d="M12.5039 25.1436C12.734 25.3346 12.968 25.5467 13.205 25.7796C12.9746 25.5886 12.7412 25.3766 12.5039 25.1436Z" fill="#ECB44E"/>
<path d="M18.0699 25.0948C17.8152 24.9488 17.5588 24.7809 17.292 24.5947C17.5437 24.742 17.8059 24.9074 18.0699 25.0948Z" fill="#F3D9C4"/>
<path d="M23.8262 15.7227C23.9987 15.7999 24.1745 15.8984 24.3597 16.0153C24.1892 15.9371 24.0094 15.8405 23.8262 15.7227Z" fill="#E2E6C5"/>
<path d="M14.9072 27.6099C15.0548 27.7407 15.2015 27.8943 15.3479 28.0696C15.2006 27.9384 15.0535 27.7855 14.9072 27.6099Z" fill="#F3D9C4"/>
<path d="M21.2312 7.13008C20.9622 7.12188 20.9478 6.87645 20.873 6.67871C20.92 6.68015 20.9496 6.69885 20.9791 6.71756C21.0617 6.84809 21.1443 6.97863 21.2312 7.13008Z" fill="#A8B86D"/>
<path d="M22.074 28.4812C22.0363 28.4419 22.0183 28.4095 21.998 28.3584C22.1623 28.4753 22.3287 28.6107 22.495 28.7687C22.3611 28.6901 22.2274 28.5891 22.074 28.4812Z" fill="#F3D9C4"/>
<path d="M27.049 24.1447C26.8846 24.0816 26.716 23.998 26.5439 23.8936C26.7086 23.9565 26.8766 24.0403 27.049 24.1447Z" fill="#E9A84F"/>
<path d="M17.582 30.8675C17.6098 30.8532 17.6321 30.8624 17.672 30.8768C17.774 31.0116 17.8584 31.1414 17.9439 31.2927C17.8222 31.1733 17.6994 31.0322 17.582 30.8675Z" fill="#F3D9C4"/>
<path d="M14.3496 27.022C14.4355 27.0627 14.5193 27.1261 14.6199 27.1993C14.665 27.256 14.6932 27.303 14.7218 27.3705C14.5973 27.2756 14.4724 27.1601 14.3496 27.022Z" fill="#F3D9C4"/>
<path d="M23.0889 30.4903C23.1395 30.352 23.2123 30.2125 23.3025 30.061C23.443 30.2872 23.2349 30.3681 23.0889 30.4903Z" fill="#F3D9C4"/>
<path d="M22.0021 8.22353C21.9337 8.11585 21.8654 8.00818 21.7969 7.87891C21.9052 7.98604 22.0137 8.11478 22.1058 8.26256C22.0604 8.26225 22.0312 8.24289 22.0021 8.22353Z" fill="#E2E6C5"/>
<path d="M16.9798 9.12207C16.9532 9.22532 16.9045 9.32907 16.8356 9.45971C16.7933 9.49064 16.7711 9.49468 16.749 9.49873C16.8186 9.37334 16.8881 9.24795 16.9798 9.12207Z" fill="#E2E6C5"/>
<path d="M15.793 28.6206C15.8983 28.7099 16.0026 28.8219 16.1064 28.9553C16.0013 28.8656 15.8966 28.7545 15.793 28.6206Z" fill="#F3D9C4"/>
<path d="M15.4131 28.1816C15.5054 28.2392 15.5975 28.3193 15.7081 28.409C15.7302 28.4436 15.7337 28.4685 15.7352 28.5123C15.6264 28.4222 15.5197 28.3132 15.4131 28.1816Z" fill="#F3D9C4"/>
<path d="M17.2012 30.3638C17.3058 30.4599 17.4056 30.5795 17.5056 30.7213C17.4026 30.6247 17.2995 30.506 17.2012 30.3638Z" fill="#F3D9C4"/>
<path d="M21.2322 27.6252C21.1106 27.5553 20.9881 27.463 20.8604 27.3501C20.9805 27.4206 21.1059 27.5118 21.2322 27.6252Z" fill="#F3D9C4"/>
<path d="M21.7987 28.1346C21.6787 28.0625 21.559 27.9679 21.4355 27.8525C21.5542 27.9252 21.6767 28.0187 21.7987 28.1346Z" fill="#F3D9C4"/>
<path d="M19.3106 26.1251C19.2604 26.0783 19.2304 26.0355 19.1943 25.9741C19.3207 26.0425 19.4531 26.1295 19.586 26.2391C19.5012 26.2175 19.4161 26.1733 19.3106 26.1251Z" fill="#F3D9C4"/>
<path d="M18.835 11.98C18.9576 12.05 19.0803 12.1428 19.2098 12.2558C19.0894 12.1849 18.9622 12.0938 18.835 11.98Z" fill="#E2E6C5"/>
<path d="M18.7642 25.6049C18.6357 25.5409 18.5067 25.4545 18.3691 25.3486C18.4949 25.4137 18.6293 25.4981 18.7642 25.6049Z" fill="#F3D9C4"/>
<path d="M30.5273 19.0835C30.6479 19.1069 30.7753 19.1495 30.8852 19.2137C30.8402 19.2345 30.8127 19.234 30.7852 19.2334C30.7015 19.1899 30.6178 19.1463 30.5273 19.0835Z" fill="#CFCA4E"/>
<path d="M10.6727 21.0376C10.5528 21.0137 10.4263 20.9705 10.3164 20.9054C10.3602 20.8846 10.3873 20.8856 10.4145 20.8867C10.4983 20.9305 10.5822 20.9744 10.6727 21.0376Z" fill="#ECB44E"/>
<path d="M20.6962 27.263C20.6055 27.1777 20.5336 27.0942 20.4541 26.9917C20.5606 27.0563 20.6746 27.14 20.7892 27.2461C20.7648 27.2673 20.7399 27.2661 20.6962 27.263Z" fill="#F3D9C4"/>
<path d="M10.101 20.781C9.98405 20.7563 9.85727 20.714 9.74805 20.6497C9.79326 20.6282 9.82093 20.6286 9.84859 20.629C9.92942 20.6738 10.0102 20.7186 10.101 20.781Z" fill="#ECB44E"/>
<path d="M29.501 18.6011C29.5991 18.6505 29.6762 18.6988 29.7621 18.7654C29.6462 18.7361 29.5216 18.6886 29.3965 18.619C29.424 18.598 29.4519 18.5991 29.501 18.6011Z" fill="#E2E6C5"/>
<path d="M28.1024 25.0675C28.0573 24.9842 28.0286 24.8907 27.9971 24.7734C28.0357 24.8522 28.0773 24.9547 28.1024 25.0675Z" fill="#E9A84F"/>
<path d="M13.645 22.4309C13.556 22.4177 13.4633 22.3828 13.3466 22.3311C13.3226 22.3144 13.3141 22.2868 13.3203 22.2805C13.3265 22.2742 13.3388 22.2617 13.3388 22.2617C13.4396 22.3108 13.5404 22.3599 13.645 22.4309Z" fill="#F3D9C4"/>
<path d="M32.0459 19.7197C32.1378 19.722 32.2362 19.7434 32.3484 19.7814C32.259 19.7782 32.1557 19.7586 32.0459 19.7197Z" fill="#E2E6C5"/>
<path d="M28.5762 18.2378C28.6812 18.2605 28.7863 18.3065 28.9001 18.3722C28.7979 18.3483 28.6871 18.3047 28.5762 18.2378Z" fill="#E2E6C5"/>
<path d="M18.4441 7.34082C18.3935 7.42493 18.3429 7.50903 18.2683 7.59153C18.2609 7.53885 18.2774 7.48776 18.3249 7.41732C18.3853 7.37891 18.4147 7.35987 18.4441 7.34082Z" fill="#A8B86D"/>
<path d="M31.6016 19.5933C31.6747 19.5957 31.7532 19.6175 31.8439 19.6562C31.7731 19.653 31.69 19.6328 31.6016 19.5933Z" fill="#E2E6C5"/>
<path d="M20.98 6.6943C20.9495 6.69876 20.92 6.68006 20.8739 6.65516C20.8325 6.60163 20.8076 6.55428 20.7842 6.48633C20.8508 6.5342 20.9159 6.60267 20.98 6.6943Z" fill="#E2E6C5"/>
<path d="M21.999 8.24773C22.031 8.2432 22.0602 8.26256 22.1065 8.28564C22.1389 8.30329 22.1531 8.3181 22.1745 8.36703C22.1842 8.42777 22.1859 8.45528 22.1876 8.48279C22.1238 8.4124 22.06 8.34201 21.999 8.24773Z" fill="#A8B86D"/>
<path d="M27.6962 17.7322C27.7191 17.745 27.7211 17.7554 27.7181 17.781C27.6196 17.7652 27.5261 17.7341 27.4297 17.6831C27.5096 17.6854 27.5924 17.7077 27.6962 17.7322Z" fill="#E2E6C5"/>
<path d="M20.3467 26.8669C20.2691 26.8376 20.1902 26.786 20.1074 26.7139C20.1841 26.7437 20.2648 26.7941 20.3467 26.8669Z" fill="#F3D9C4"/>
<path d="M20.0316 26.6105C19.955 26.5815 19.8769 26.5305 19.7959 26.459C19.872 26.4885 19.9511 26.5386 20.0316 26.6105Z" fill="#F3D9C4"/>
<path d="M18.8771 6.65723C18.8499 6.73744 18.7995 6.81801 18.7295 6.906C18.7578 6.82813 18.8058 6.74286 18.8771 6.65723Z" fill="#E2E6C5"/>
<path d="M16.9287 30.0156C16.9932 30.0619 17.0572 30.1304 17.1199 30.22C17.0552 30.1733 16.9917 30.1056 16.9287 30.0156Z" fill="#F3D9C4"/>
<path d="M15.2881 23.3178C15.222 23.3056 15.1525 23.2706 15.0732 23.2178C15.1373 23.2316 15.211 23.2633 15.2881 23.3178Z" fill="#F3D9C4"/>
<path d="M16.4238 29.3821C16.4552 29.375 16.486 29.3905 16.5334 29.4121C16.5735 29.4673 16.5968 29.5162 16.6194 29.5855C16.5535 29.5388 16.4884 29.4717 16.4238 29.3821Z" fill="#F3D9C4"/>
<path d="M22.584 31.1231C22.6124 31.0451 22.663 30.9656 22.7342 30.8818C22.7052 30.9589 22.6557 31.0402 22.584 31.1231Z" fill="#F3D9C4"/>
<path d="M18.4545 7.32378C18.4147 7.35986 18.3853 7.3789 18.3389 7.4023C18.3726 7.32531 18.4234 7.24397 18.4968 7.16211C18.5013 7.20998 18.4832 7.25836 18.4545 7.32378Z" fill="#E2E6C5"/>
<path d="M23.3856 9.91679C23.32 9.87067 23.2553 9.80157 23.1904 9.71143C23.2557 9.75819 23.3212 9.826 23.3856 9.91679Z" fill="#E2E6C5"/>
<path d="M19.2577 6.15186C19.2304 6.23247 19.1797 6.31305 19.1094 6.40096C19.1379 6.32281 19.1861 6.23731 19.2577 6.15186Z" fill="#E2E6C5"/>
<path d="M21.8643 25.5633C21.8867 25.6061 21.909 25.649 21.9332 25.7098C21.8553 25.6828 21.7757 25.6379 21.6882 25.5739C21.6804 25.5549 21.6899 25.5448 21.7144 25.5466C21.7807 25.5534 21.8225 25.5583 21.8643 25.5633Z" fill="#E9A84F"/>
<path d="M16.1699 29.0713C16.2351 29.1156 16.3002 29.182 16.3653 29.2693C16.3001 29.2246 16.235 29.159 16.1699 29.0713Z" fill="#F3D9C4"/>
<path d="M23.6381 10.2337C23.572 10.1873 23.5073 10.1179 23.4424 10.0273C23.5079 10.0743 23.5737 10.1425 23.6381 10.2337Z" fill="#E2E6C5"/>
<path d="M22.4462 8.77226C22.3794 8.72627 22.3124 8.66055 22.2627 8.57715C22.3102 8.57772 22.3402 8.59597 22.3703 8.61422C22.3955 8.66032 22.4207 8.70643 22.4462 8.77226Z" fill="#A8B86D"/>
<path d="M17.2854 8.79883C17.2551 8.87653 17.2055 8.96228 17.1318 9.0466C17.1606 8.96575 17.2133 8.8863 17.2854 8.79883Z" fill="#A8B86D"/>
<path d="M19.7197 12.7402C19.7984 12.7694 19.8775 12.8214 19.9614 12.8938C19.8843 12.8638 19.8022 12.8134 19.7197 12.7402Z" fill="#E2E6C5"/>
<path d="M23.3669 19.9835C23.2997 19.9991 23.2193 19.9961 23.1338 19.9737C23.2037 19.9578 23.2787 19.9613 23.3669 19.9835Z" fill="#CEA547"/>
<path d="M31.6714 17.8198C31.5939 17.7902 31.5067 17.7416 31.4189 17.6689C31.4995 17.6969 31.5806 17.7489 31.6714 17.8198Z" fill="#CFCA4E"/>
<path d="M24.2693 10.9947C24.2026 10.949 24.1376 10.88 24.0713 10.79C24.1369 10.8365 24.2039 10.9039 24.2693 10.9947Z" fill="#E2E6C5"/>
<path d="M23.0818 9.5939C23.026 9.56212 22.969 9.50907 22.9287 9.44482C22.9904 9.47996 23.0355 9.5263 23.0818 9.5939Z" fill="#A8B86D"/>
<path d="M18.1698 7.65967C18.1406 7.73773 18.092 7.82413 18.0195 7.90961C18.0472 7.82846 18.0989 7.74824 18.1698 7.65967Z" fill="#A8B86D"/>
<path d="M22.3719 8.5913C22.341 8.5959 22.3109 8.57765 22.2641 8.55352C22.2391 8.52914 22.2272 8.51332 22.1998 8.4914C22.1861 8.45511 22.1843 8.4276 22.1836 8.37939C22.2473 8.42862 22.31 8.49853 22.3719 8.5913Z" fill="#E2E6C5"/>
<path d="M29.3895 16.0501C29.3125 16.0182 29.2283 15.9666 29.1455 15.8906C29.2253 15.921 29.3038 15.9757 29.3895 16.0501Z" fill="#C4C454"/>
<path d="M17.8656 7.98535C17.8468 8.05207 17.8042 8.11947 17.7432 8.19605C17.7638 8.13216 17.8028 8.0591 17.8656 7.98535Z" fill="#E2E6C5"/>
<path d="M15.3525 16.6709C15.4236 16.6743 15.5063 16.6964 15.5983 16.7389C15.5264 16.736 15.4453 16.7128 15.3525 16.6709Z" fill="#A8B86D"/>
<path d="M23.33 29.7249C23.2763 29.6823 23.2389 29.6299 23.2061 29.5576C23.2558 29.5969 23.301 29.656 23.33 29.7249Z" fill="#F3D9C4"/>
<path d="M16.6963 29.7295C16.7579 29.7647 16.8143 29.8229 16.8702 29.9022C16.8102 29.8663 16.7506 29.8094 16.6963 29.7295Z" fill="#F3D9C4"/>
<path d="M17.4797 8.55518C17.4673 8.61054 17.4353 8.67192 17.3818 8.73132C17.3937 8.67329 17.4269 8.61724 17.4797 8.55518Z" fill="#A8B86D"/>
<path d="M22.7278 9.06555C22.6651 9.02934 22.6103 8.97002 22.5557 8.88965C22.6158 8.92655 22.6759 8.98449 22.7278 9.06555Z" fill="#E2E6C5"/>
<path d="M20.2698 15.3043C20.2011 15.2938 20.1281 15.2655 20.0439 15.2212C20.1103 15.2323 20.1879 15.2594 20.2698 15.3043Z" fill="#A8B86D"/>
<path d="M22.8369 30.8066C22.8575 30.7408 22.9012 30.6736 22.9642 30.5986C22.9424 30.6623 22.9012 30.7337 22.8369 30.8066Z" fill="#F3D9C4"/>
<path d="M26.5596 26.5489C26.5884 26.4904 26.6373 26.4353 26.706 26.3794C26.6771 26.4365 26.6284 26.4943 26.5596 26.5489Z" fill="#E9A84F"/>
<path d="M29.0068 15.7336C28.952 15.7202 28.8899 15.6878 28.8301 15.6328C28.888 15.6451 28.9438 15.6799 29.0068 15.7336Z" fill="#C4C454"/>
<path d="M20.5497 6.18276C20.4933 6.14983 20.4368 6.09603 20.3965 6.03125C20.4583 6.06747 20.504 6.11468 20.5497 6.18276Z" fill="#A8B86D"/>
<path d="M19.0825 25.8498C19.0176 25.8302 18.9504 25.7879 18.875 25.7266C18.938 25.7474 19.0091 25.7873 19.0825 25.8498Z" fill="#F3D9C4"/>
<path d="M21.5905 7.54788C21.5281 7.51114 21.4738 7.45139 21.4199 7.37061C21.4797 7.408 21.5391 7.46643 21.5905 7.54788Z" fill="#E2E6C5"/>
<path d="M22.1768 25.9028C22.2376 25.9194 22.3032 25.9561 22.3742 26.0116C22.3135 25.9946 22.2476 25.9588 22.1768 25.9028Z" fill="#E9A84F"/>
<path d="M25.0446 27.7609C25.0227 27.7522 25.0212 27.7244 25.0425 27.713C25.0936 27.6825 25.1235 27.6635 25.1535 27.6445C25.1843 27.6452 25.2151 27.6458 25.2684 27.6517C25.2161 27.6946 25.1412 27.7321 25.0446 27.7609Z" fill="#E9A84F"/>
<path d="M24.9022 27.6955C24.9022 27.6955 24.9076 27.7228 24.907 27.7367C24.8227 27.7328 24.739 27.7151 24.6465 27.6768C24.6682 27.6517 24.6988 27.6471 24.763 27.6576C24.8318 27.6803 24.867 27.6879 24.9022 27.6955Z" fill="#E9A84F"/>
<path d="M12.442 21.8961C12.412 21.8773 12.3819 21.8586 12.3309 21.8253C12.3098 21.8107 12.3002 21.7839 12.3067 21.7772C12.3131 21.7706 12.326 21.7573 12.326 21.7573C12.4055 21.7853 12.4851 21.8132 12.5658 21.8685C12.5669 21.8959 12.5543 21.9091 12.5358 21.9052C12.4922 21.8995 12.4671 21.8978 12.442 21.8961Z" fill="#F3D9C4"/>
<path d="M15.628 23.6006C15.6065 23.5877 15.6065 23.5765 15.6103 23.5488C15.6931 23.5631 15.7723 23.5937 15.8522 23.6475C15.7851 23.6478 15.7173 23.6251 15.628 23.6006Z" fill="#F3D9C4"/>
<path d="M11.37 21.3864C11.3595 21.3874 11.3489 21.3884 11.3226 21.3908C11.2453 21.3591 11.1839 21.326 11.1221 21.2695C11.1476 21.2499 11.1735 21.2535 11.2284 21.2768C11.2949 21.3265 11.3325 21.3564 11.37 21.3864Z" fill="#ECB44E"/>
<path d="M11.3903 21.3882C11.3329 21.3563 11.2953 21.3263 11.248 21.2808C11.3214 21.2923 11.4045 21.3194 11.4887 21.37C11.4633 21.3924 11.4368 21.3913 11.3903 21.3882Z" fill="#F3D9C4"/>
<path d="M13.0673 22.1351C13.0404 22.1563 13.0141 22.1544 12.9596 22.1338C12.8913 22.0884 12.8512 22.0617 12.8164 22.0284C12.8218 22.0218 12.8328 22.0088 12.8328 22.0088C12.9111 22.0432 12.9895 22.0775 13.0673 22.1351Z" fill="#F3D9C4"/>
<path d="M12.6951 22.021C12.665 22.0023 12.6348 21.9836 12.5838 21.9504C12.5629 21.9358 12.5537 21.909 12.5537 21.909C12.5537 21.909 12.5664 21.8959 12.5727 21.8892C12.6581 21.911 12.7372 21.9395 12.8242 21.9884C12.8322 22.0087 12.8212 22.0218 12.7968 22.0245C12.7467 22.0251 12.7209 22.023 12.6951 22.021Z" fill="#F3D9C4"/>
<path d="M27.9346 14.8971C27.9624 14.8763 27.9905 14.8759 28.0397 14.8755C28.0808 14.9048 28.1007 14.9339 28.1255 14.9801C28.082 14.9978 28.0336 14.9985 27.9611 14.9989C27.9362 14.9715 27.9355 14.9444 27.9346 14.8971Z" fill="#C4C454"/>
<path d="M18.6973 32.3605C18.7273 32.353 18.7577 32.3666 18.8041 32.3862C18.822 32.4206 18.8238 32.449 18.8239 32.4986C18.7806 32.4737 18.7391 32.4276 18.6973 32.3605Z" fill="#F3D9C4"/>
<path d="M15.0938 16.5469C15.1465 16.5485 15.2095 16.5682 15.2821 16.6066C15.2291 16.6052 15.1666 16.5851 15.0938 16.5469Z" fill="#A8B86D"/>
<path d="M14.7227 27.4121C14.763 27.4211 14.8033 27.4508 14.8438 27.5008C14.8036 27.4917 14.7631 27.4623 14.7227 27.4121Z" fill="#F3D9C4"/>
<path d="M19.2783 12.3584C19.3211 12.3635 19.3643 12.391 19.4121 12.4385C19.3707 12.4325 19.3247 12.4067 19.2783 12.3584Z" fill="#E2E6C5"/>
<path d="M24.208 27.4146C24.247 27.4179 24.2889 27.4407 24.3334 27.4829C24.2944 27.4795 24.2526 27.4568 24.208 27.4146Z" fill="#E9A84F"/>
<path d="M24.3945 27.5444C24.4328 27.5454 24.4761 27.5653 24.5233 27.6043C24.4847 27.6033 24.4422 27.5833 24.3945 27.5444Z" fill="#E9A84F"/>
<path d="M16.7471 9.52117C16.7707 9.49469 16.7928 9.49064 16.8309 9.48145C16.8323 9.52398 16.8177 9.57167 16.7834 9.62491C16.7576 9.60151 16.7516 9.57256 16.7471 9.52117Z" fill="#A8B86D"/>
<path d="M19.8398 33.8074C19.8768 33.7929 19.9157 33.7968 19.9623 33.8193C19.9272 33.8339 19.8845 33.8298 19.8398 33.8074Z" fill="#F3D9C4"/>
<path d="M19.1084 32.9453C19.1521 32.9592 19.1874 32.9967 19.225 33.0539C19.1849 33.0387 19.1425 33.0038 19.1084 32.9453Z" fill="#F3D9C4"/>
<path d="M21.9293 28.2554C21.8883 28.2497 21.8458 28.2231 21.8008 28.1763C21.8414 28.1822 21.8847 28.2083 21.9293 28.2554Z" fill="#F3D9C4"/>
<path d="M16.7412 9.88428C16.7797 9.90316 16.801 9.93118 16.8212 9.97766C16.7881 9.96189 16.7561 9.92765 16.7412 9.88428Z" fill="#E2E6C5"/>
<path d="M20.0998 5.82515C20.0998 5.82515 20.0932 5.79911 20.0938 5.78569C20.1368 5.77601 20.1793 5.77974 20.2036 5.80451C20.1568 5.82542 20.1283 5.82528 20.0998 5.82515Z" fill="#E2E6C5"/>
<path d="M27.9874 24.7234C27.9491 24.719 27.9109 24.6951 27.8701 24.6533C27.9075 24.6583 27.9475 24.681 27.9874 24.7234Z" fill="#E9A84F"/>
<path d="M12.1882 21.7712C12.1882 21.7712 12.1856 21.7418 12.1869 21.7271C12.2304 21.7158 12.2725 21.7192 12.3202 21.7399C12.3257 21.7573 12.3128 21.7705 12.2881 21.773C12.2383 21.7741 12.2132 21.7727 12.1882 21.7712Z" fill="#F3D9C4"/>
<path d="M13.2022 22.2717C13.2022 22.2717 13.1993 22.2427 13.2005 22.2281C13.2437 22.2182 13.2857 22.2228 13.3337 22.2444C13.3396 22.2614 13.3272 22.2739 13.3025 22.2762C13.2526 22.2763 13.2274 22.274 13.2022 22.2717Z" fill="#F3D9C4"/>
<path d="M14.522 22.8986C14.4866 22.9041 14.4535 22.8903 14.4121 22.8598C14.444 22.8552 14.4842 22.8672 14.522 22.8986Z" fill="#F3D9C4"/>
<path d="M10.4152 20.8677C10.3876 20.8858 10.3605 20.8848 10.3128 20.8844C10.2924 20.885 10.2902 20.8553 10.2912 20.8404C10.3334 20.8333 10.3745 20.8409 10.4152 20.8677Z" fill="#F3D9C4"/>
<path d="M9.84821 20.6105C9.82103 20.6288 9.79337 20.6284 9.74488 20.6284C9.72406 20.6288 9.72194 20.5991 9.72282 20.5842C9.76504 20.5769 9.80638 20.5843 9.84821 20.6105Z" fill="#F3D9C4"/>
<path d="M9.27706 20.3533C9.23618 20.3561 9.19272 20.3366 9.13867 20.3023C9.17688 20.3019 9.22568 20.3164 9.27706 20.3533Z" fill="#F3D9C4"/>
<path d="M19.0967 20.1802C19.1239 20.1631 19.1584 20.1591 19.2003 20.1686C19.1731 20.1859 19.1385 20.1895 19.0967 20.1802Z" fill="#B3B55E"/>
<path d="M26.4766 23.833C26.4396 23.8349 26.3982 23.818 26.3516 23.7842C26.3883 23.783 26.4302 23.7987 26.4766 23.833Z" fill="#E9A84F"/>
<path d="M16.4838 24.0361C16.448 24.0407 16.4144 24.0262 16.373 23.9943C16.4055 23.9903 16.4457 24.0036 16.4838 24.0361Z" fill="#F3D9C4"/>
<path d="M27.365 24.3359C27.3272 24.3359 27.2848 24.3172 27.2383 24.2803C27.2763 24.2804 27.3184 24.2988 27.365 24.3359Z" fill="#E9A84F"/>
<path d="M31.3535 19.5072C31.3877 19.499 31.4225 19.5091 31.467 19.5353C31.4359 19.5427 31.395 19.5341 31.3535 19.5072Z" fill="#E2E6C5"/>
<path d="M30.7852 19.252C30.8124 19.2338 30.8399 19.2344 30.8881 19.2351C30.9088 19.2353 30.9104 19.2652 30.9097 19.2802C30.8678 19.287 30.8266 19.2789 30.7852 19.252Z" fill="#E2E6C5"/>
<path d="M25.0879 16.4118C25.13 16.4049 25.1717 16.4113 25.1942 16.4364C25.1478 16.4537 25.1206 16.4524 25.0934 16.4512C25.0934 16.4512 25.0876 16.4251 25.0879 16.4118Z" fill="#B3B55E"/>
<path d="M23 19.0745C23.0339 19.0646 23.0753 19.0726 23.1251 19.0938C23.0915 19.1021 23.0495 19.0972 23 19.0745Z" fill="#A8B86D"/>
<path d="M30.3403 18.9804C30.3403 18.9804 30.342 19.0106 30.3411 19.0257C30.2991 19.0329 30.258 19.0249 30.2373 18.9973C30.2852 18.9785 30.3128 18.9795 30.3403 18.9804Z" fill="#E2E6C5"/>
<path d="M30.3379 18.9618C30.3127 18.9796 30.2852 18.9786 30.237 18.9787C30.2163 18.9796 30.2096 18.9542 30.209 18.9411C30.2508 18.933 30.2931 18.938 30.3379 18.9618Z" fill="#CFCA4E"/>
<path d="M28.3184 18.1132C28.3535 18.1055 28.3882 18.1166 28.4324 18.1441C28.4005 18.151 28.3593 18.1415 28.3184 18.1132Z" fill="#E2E6C5"/>
<path d="M21.9922 25.772C22.0302 25.7754 22.0733 25.7976 22.1198 25.8394C22.0812 25.8362 22.0392 25.8135 21.9922 25.772Z" fill="#E9A84F"/>
<path d="M22.4326 26.0889C22.4725 26.0907 22.5162 26.1119 22.5645 26.152C22.5249 26.15 22.4806 26.1291 22.4326 26.0889Z" fill="#E9A84F"/>
<path d="M22.6914 26.2754C22.7295 26.2789 22.7711 26.3015 22.8158 26.3432C22.7776 26.3396 22.7363 26.3171 22.6914 26.2754Z" fill="#E9A84F"/>
<path d="M30.2346 16.7367C30.1923 16.7305 30.1428 16.7044 30.0928 16.6543C30.1372 16.6591 30.1824 16.6879 30.2346 16.7367Z" fill="#C4C454"/>
<path d="M22.9443 26.4653C22.9833 26.4669 23.025 26.4877 23.0719 26.5263C23.0338 26.5243 22.9904 26.5044 22.9443 26.4653Z" fill="#E9A84F"/>
<path d="M23.2002 26.6533C23.2376 26.6565 23.2782 26.6785 23.3222 26.7189C23.2849 26.7155 23.2442 26.6939 23.2002 26.6533Z" fill="#E9A84F"/>
<path d="M23.4521 26.8438C23.4907 26.8459 23.5314 26.8673 23.577 26.9063C23.5394 26.9036 23.4968 26.8833 23.4521 26.8438Z" fill="#E9A84F"/>
<path d="M25.0938 16.47C25.1205 16.4525 25.1477 16.4538 25.1954 16.4556C25.2158 16.4561 25.2193 16.4863 25.2186 16.5015C25.1766 16.5074 25.1354 16.498 25.0938 16.47Z" fill="#E2E6C5"/>
<path d="M23.7051 27.0322C23.7436 27.0357 23.7848 27.0588 23.8289 27.1007C23.7905 27.097 23.7492 27.0744 23.7051 27.0322Z" fill="#E9A84F"/>
<path d="M20.0996 5.84475C20.1275 5.82529 20.156 5.82542 20.2057 5.8225C20.227 5.81943 20.2323 5.84754 20.23 5.86163C20.1852 5.87193 20.1427 5.86815 20.0996 5.84475Z" fill="#A8B86D"/>
<path d="M24.8991 27.6788C24.8668 27.688 24.8316 27.6803 24.7861 27.657C24.816 27.6482 24.8561 27.6551 24.8991 27.6788Z" fill="#DC712F"/>
<path d="M25.143 27.6304C25.1235 27.6632 25.0935 27.6822 25.0449 27.6989C25.0617 27.67 25.0972 27.6433 25.143 27.6304Z" fill="#DC712F"/>
<path d="M21.8645 25.5379C21.8221 25.5587 21.7803 25.5537 21.7188 25.5419C21.3389 25.2627 20.9787 24.9904 20.6072 24.6768C20.5116 24.4971 20.4585 24.369 20.5862 24.2141C20.7947 23.9611 20.9739 23.6838 21.1846 23.4328C21.5523 22.995 21.9345 22.5694 22.3106 22.1387C22.8273 22.3181 23.3441 22.4976 23.8753 22.6939C23.8388 22.8323 23.8118 22.9733 23.7323 23.0722C23.4595 23.4118 23.1683 23.7365 22.8842 24.067C22.5934 24.4053 22.292 24.7355 22.0179 25.0869C21.9298 25.1997 21.914 25.3688 21.8645 25.5379Z" fill="#DD752D"/>
<path d="M13.9636 15.8651C13.4094 15.5694 12.8511 15.2621 12.3079 14.9301C11.9534 14.7134 11.9479 14.6213 12.2504 14.3391C13.0475 13.5953 13.8517 12.8592 14.6567 12.1238C14.8339 11.962 15.3604 11.9741 15.6004 12.1491C15.8703 12.346 16.1277 12.5599 16.4095 12.7757C16.2358 13.0092 16.0356 13.2274 15.852 13.4588C15.5041 13.8972 15.1689 14.3457 14.8224 14.7852C14.5415 15.1414 14.2518 15.4906 13.9636 15.8651Z" fill="#839C40"/>
<path d="M17.7647 17.5153C17.1093 17.2907 16.4661 17.0483 15.8086 16.7889C16.1255 16.3212 16.4551 15.8691 16.7902 15.4213C16.838 15.3575 16.9143 15.3155 16.9754 15.2611C17.0602 15.1855 17.2064 15.1147 17.2158 15.0296C17.2566 14.6612 17.5045 14.4988 17.7943 14.3588C17.8401 14.3367 17.8772 14.2966 17.9081 14.2727C17.8767 14.1236 17.8476 13.9854 17.8186 13.8218C18.3413 14.1591 18.863 14.5233 19.3878 14.8829C19.4545 14.9286 19.5377 14.95 19.6326 14.9945C19.8236 15.3959 19.4464 15.5254 19.2841 15.7436C19.0591 16.0462 18.785 16.3118 18.5374 16.5979C18.2805 16.8949 18.0302 17.1975 17.7647 17.5153Z" fill="#90A13E"/>
<path d="M21.6705 14.0993C21.5494 14.0526 21.4308 13.9804 21.3018 13.89C21.5302 13.728 21.6537 13.8024 21.6705 14.0993Z" fill="#96A440"/>
<path d="M21.9886 14.3547C21.8868 14.3067 21.7861 14.2332 21.6768 14.1405C21.8279 14.1091 21.9882 14.0962 21.9886 14.3547Z" fill="#96A440"/>
<path d="M22.2987 22.1193C21.9345 22.5694 21.5523 22.995 21.1846 23.4328C20.9739 23.6838 20.7946 23.961 20.5862 24.2141C20.4585 24.369 20.5115 24.4971 20.5967 24.6581C20.5039 24.6423 20.4038 24.6147 20.3177 24.5636C19.7655 24.2357 19.2164 23.9027 18.6533 23.5287C18.6718 23.356 18.6672 23.1992 18.7408 23.1008C19.0123 22.7375 19.3122 22.3955 19.5964 22.0415C19.7975 21.7909 19.9207 21.4354 20.3496 21.5088C20.8731 21.6563 21.3973 21.8011 21.9194 21.9531C22.0455 21.9898 22.1646 22.0504 22.2987 22.1193Z" fill="#DF7E2F"/>
<path d="M20.3379 21.4883C19.9212 21.435 19.798 21.7905 19.5968 22.0411C19.3127 22.3951 19.0128 22.737 18.7412 23.1003C18.6677 23.1988 18.6722 23.3555 18.6406 23.5114C17.916 23.1642 17.1916 22.7911 16.4451 22.3848C16.3387 22.1737 16.378 22.0423 16.5415 21.9202C16.6913 21.8083 16.8345 21.6753 16.9445 21.5252C17.1248 21.279 17.276 21.0115 17.4395 20.7529C17.8848 20.8412 18.3329 20.9177 18.7747 21.021C19.2709 21.1371 19.7615 21.2769 20.2538 21.409C20.2812 21.4163 20.302 21.448 20.3379 21.4883Z" fill="#E28731"/>
<path d="M17.4178 20.7432C17.2762 21.0116 17.125 21.2792 16.9447 21.5253C16.8347 21.6754 16.6915 21.8084 16.5417 21.9203C16.3782 22.0424 16.3389 22.1738 16.4256 22.375C15.5345 22.012 14.6404 21.6276 13.7482 21.2385C13.5625 21.1575 13.5126 20.9015 13.6484 20.7248C13.7885 20.5425 13.9324 20.361 14.0945 20.199C14.1434 20.1502 14.2621 20.1457 14.3428 20.1585C14.752 20.2234 15.1595 20.2993 15.567 20.3742C15.9644 20.4472 16.3614 20.5222 16.758 20.5993C16.9713 20.6408 17.1834 20.6885 17.4178 20.7432Z" fill="#E49435"/>
<path d="M22.6891 18.8985C22.2585 18.822 21.8304 18.723 21.3809 18.6144C21.3841 18.5281 21.389 18.435 21.4366 18.3775C21.8605 17.866 22.292 17.3608 22.7395 16.8413C23.107 16.9853 23.4561 17.1417 23.8163 17.3172C23.7609 17.4649 23.7121 17.6074 23.6248 17.7198C23.321 18.1109 23.0038 18.4915 22.6891 18.8985Z" fill="#A4AA3C"/>
<path d="M12.6992 22.0425C12.7213 22.023 12.7471 22.025 12.7919 22.031C12.851 22.0616 12.8911 22.0883 12.9397 22.131C12.9481 22.1471 12.918 22.1495 12.903 22.151C12.8263 22.1231 12.7646 22.0936 12.6992 22.0425Z" fill="#ECB44E"/>
<path d="M13.2031 22.2899C13.2268 22.274 13.252 22.2763 13.2957 22.2826C13.3142 22.2866 13.3227 22.3142 13.3249 22.3285C13.2863 22.3312 13.2455 22.3196 13.2031 22.2899Z" fill="#ECB44E"/>
<path d="M12.1904 21.7888C12.2131 21.7727 12.2382 21.7742 12.2816 21.7797C12.2999 21.7839 12.3095 21.8107 12.312 21.8248C12.2739 21.828 12.2333 21.8172 12.1904 21.7888Z" fill="#ECB44E"/>
<path d="M12.536 21.9049C12.5545 21.9088 12.5636 21.9356 12.566 21.9495C12.5277 21.9528 12.4871 21.942 12.4443 21.9136C12.4673 21.8975 12.4924 21.8992 12.536 21.9049Z" fill="#ECB44E"/>
<path d="M16.1118 19.4916C15.4674 19.4203 14.8229 19.3499 14.1786 19.2773C13.7006 19.2234 13.2241 19.1531 12.7449 19.1136C11.6384 19.0221 10.5316 18.927 9.4231 18.8685C8.72946 18.8319 8.03245 18.8593 7.33694 18.858C7.25264 18.8578 7.16457 18.8736 7.08487 18.8544C6.95412 18.823 6.82879 18.7689 6.70117 18.7244C6.7885 18.6095 6.85234 18.4564 6.967 18.386C7.68853 17.9433 8.41479 17.5072 9.15249 17.0921C9.75475 16.7532 10.3464 16.6271 11.0564 16.9291C12.1396 17.3899 13.2759 17.7268 14.3939 18.1038C15.0018 18.3088 15.6183 18.488 16.2265 18.724C16.1852 19.01 16.1485 19.2508 16.1118 19.4916Z" fill="#96A440"/>
<path d="M16.1328 19.5027C16.1479 19.2509 16.1847 19.0101 16.2315 18.7471C16.7722 18.8507 17.3028 18.9765 17.8572 19.1053C17.8522 19.3124 17.8233 19.5166 17.7725 19.7334C17.2819 19.7013 16.8129 19.6599 16.3451 19.6087C16.2788 19.6014 16.2178 19.5465 16.1328 19.5027Z" fill="#9DA63D"/>
<path d="M24.5207 20.8355C24.5362 20.7359 24.5464 20.663 24.5677 20.5935C24.686 20.2069 24.7365 20.1884 25.1272 20.2895C25.3176 20.3387 25.518 20.3531 25.7149 20.3728C26.536 20.4549 27.3576 20.533 28.1789 20.6127C28.2103 20.6158 28.2413 20.6231 28.2726 20.6245C29.2364 20.668 30.2004 20.7061 31.1638 20.7557C31.8121 20.7891 32.4599 20.8342 33.107 20.8862C33.1971 20.8934 33.2817 20.9704 33.3955 21.0287C33.3271 21.1166 33.2956 21.1899 33.2401 21.2234C32.3102 21.7856 31.3996 22.3858 30.4372 22.8861C29.7956 23.2197 29.0962 23.1247 28.4159 22.853C27.6511 22.5476 26.8674 22.2893 26.0895 22.0171C25.6814 21.8742 25.2709 21.7366 24.8567 21.6126C24.4449 21.4892 24.5262 21.1607 24.5207 20.8355Z" fill="#E28731"/>
<path d="M24.6006 19.256C24.7172 19.0508 24.854 18.866 24.9817 18.675C25.1172 18.4722 25.244 18.2636 25.3928 18.0449C25.8343 18.1962 26.2589 18.3567 26.6804 18.5251C26.9388 18.6282 27.2015 18.7268 27.4437 18.861C27.5428 18.916 27.6349 19.0539 27.6501 19.1651C27.6601 19.238 27.5388 19.3464 27.4551 19.4115C27.0878 19.6969 26.6976 19.6452 26.2736 19.5281C25.8977 19.4244 25.4956 19.4169 25.1058 19.362C24.9419 19.339 24.7797 19.3035 24.6006 19.256Z" fill="#B4B53C"/>
<circle cx="20" cy="20" r="19.5" stroke="black" stroke-opacity="0.05"/>
</svg>
