<svg width="40" height="40" viewBox="0 0 40 40" fill="none" xmlns="http://www.w3.org/2000/svg">
<circle cx="20" cy="20" r="20" fill="#FF5A00"/>
<path d="M19.8549 17.5318C20.3846 17.6121 21.1496 17.8808 21.2035 18.519C21.2117 18.6171 21.2156 18.7106 21.2153 18.7994C21.2127 19.2995 21.2127 19.7953 21.2153 20.2869C21.2174 20.5713 21.2096 20.7619 21.1917 20.8586C21.1566 21.0489 21.045 21.2224 20.8568 21.3792C20.5853 21.6052 20.1492 21.7435 19.779 21.7961C19.2209 21.8808 18.6527 21.8717 18.0976 21.7691C17.6268 21.6787 17.0039 21.4271 16.8844 20.9019C16.863 20.8013 16.853 20.6987 16.8547 20.5959C16.856 20.0187 16.856 19.4209 16.8547 18.8024C16.8547 18.6115 16.8692 18.4691 16.8982 18.3751C17.0992 17.7322 17.9973 17.5418 18.5755 17.4947C19.002 17.4573 19.4313 17.4697 19.8549 17.5318ZM19.3429 18.2156H18.725C18.6857 18.2156 18.6469 18.2233 18.6106 18.2383C18.5744 18.2533 18.5414 18.2753 18.5137 18.303C18.4859 18.3308 18.4639 18.3637 18.449 18.3999C18.434 18.4362 18.4263 18.4751 18.4263 18.5143V20.7662C18.4263 20.9657 18.622 21.1276 18.8636 21.1276H19.2031C19.4447 21.1276 19.6404 20.9657 19.6404 20.7662V18.5143C19.6404 18.4751 19.6327 18.4362 19.6177 18.3999C19.6027 18.3637 19.5807 18.3308 19.553 18.303C19.5253 18.2753 19.4923 18.2533 19.4561 18.2383C19.4198 18.2233 19.381 18.2156 19.3417 18.2156H19.3429Z" fill="white"/>
<path d="M28.3684 17.5357C28.8625 17.6113 29.4954 17.8361 29.6655 18.3576C29.6947 18.4478 29.7089 18.5812 29.7082 18.7577C29.7054 19.3359 29.7054 19.9151 29.7082 20.4953C29.7096 20.7516 29.7052 20.9305 29.5725 21.1327C29.4492 21.3172 29.277 21.4638 29.0752 21.5561C28.827 21.6747 28.5622 21.7548 28.2898 21.7936C27.6954 21.8803 27.1339 21.8731 26.6052 21.7721C26.1115 21.6776 25.5115 21.4255 25.3817 20.9167C25.3564 20.817 25.3444 20.6223 25.3458 20.3323C25.3491 19.7603 25.3502 19.2151 25.349 18.6968C25.3473 17.7994 26.3442 17.5578 27.0572 17.4969C27.4943 17.4578 27.9344 17.4708 28.3684 17.5357ZM26.9471 20.9026C27.0387 21.1901 27.7299 21.1606 27.9373 21.0647C28.0803 20.9985 28.1333 20.9261 28.1342 20.7658C28.1387 19.9732 28.1394 19.2278 28.1362 18.5294C28.1362 18.3529 28.0082 18.2569 27.8479 18.226C27.6263 18.1834 26.931 18.131 26.9271 18.5076C26.9209 19.1675 26.9187 19.9061 26.9207 20.7234C26.9201 20.7841 26.9291 20.8446 26.9471 20.9026Z" fill="white"/>
<path d="M37 18.2901C37 18.3816 36.982 18.4722 36.947 18.5568C36.912 18.6413 36.8607 18.7181 36.796 18.7828C36.7313 18.8475 36.6544 18.8988 36.5699 18.9339C36.4854 18.9689 36.3947 18.9869 36.3032 18.9869C36.1184 18.9869 35.9412 18.9135 35.8105 18.7828C35.6799 18.6521 35.6064 18.4749 35.6064 18.2901C35.6068 18.1055 35.6803 17.9286 35.811 17.7982C35.9416 17.6677 36.1186 17.5945 36.3032 17.5945C36.3947 17.5945 36.4854 17.6125 36.5699 17.6475C36.6544 17.6825 36.7313 17.7339 36.796 17.7986C36.8607 17.8633 36.912 17.9401 36.947 18.0246C36.982 18.1092 37 18.1998 37 18.2913V18.2901ZM36.9091 18.2901C36.9091 18.1702 36.8736 18.053 36.807 17.9533C36.7404 17.8537 36.6457 17.776 36.5349 17.7301C36.4242 17.6842 36.3023 17.6722 36.1847 17.6956C36.0671 17.719 35.9591 17.7767 35.8743 17.8615C35.7896 17.9463 35.7318 18.0543 35.7084 18.1718C35.685 18.2894 35.697 18.4113 35.7429 18.5221C35.7888 18.6328 35.8665 18.7275 35.9662 18.7941C36.0659 18.8607 36.1831 18.8963 36.303 18.8963C36.3827 18.8963 36.4616 18.8806 36.5352 18.85C36.6088 18.8195 36.6757 18.7747 36.732 18.7183C36.7883 18.6619 36.8329 18.5949 36.8633 18.5213C36.8937 18.4476 36.9093 18.3686 36.9091 18.2889V18.2901Z" fill="white"/>
<path d="M8.75423 19.5916C9.1094 19.6428 9.40718 19.8196 9.54401 20.1421C9.62972 20.3447 9.65189 20.5685 9.60757 20.7839C9.50841 21.3 9.13853 21.5948 8.62799 21.6499C8.41291 21.6719 8.19684 21.6828 7.98063 21.6825C7.0296 21.6861 6.17341 21.6854 5.41207 21.6805C5.23552 21.6805 5.08074 21.6628 5.02336 21.4716C5.00462 21.3864 4.99711 21.2991 5.00099 21.212C5.00472 20.1437 5.00472 19.0666 5.00099 17.9808C4.99955 17.9228 5.00955 17.8651 5.03042 17.811C5.05428 17.7564 5.09373 17.71 5.14382 17.6777C5.19391 17.6454 5.25243 17.6286 5.31202 17.6295C6.23403 17.6326 7.07471 17.6326 7.83409 17.6295C8.56679 17.6256 9.46662 17.7989 9.43337 18.7462C9.41807 19.1822 9.16266 19.4488 8.75129 19.5671C8.71284 19.5775 8.71382 19.5857 8.75423 19.5916ZM6.58027 18.4978V19.1022C6.58042 19.138 6.59475 19.1723 6.62012 19.1975C6.64549 19.2228 6.67983 19.237 6.71562 19.237H7.39241C7.64989 19.2352 7.85587 19.0657 7.85587 18.8597V18.7356C7.85587 18.5296 7.64753 18.3607 7.39124 18.3613H6.71445C6.69671 18.3613 6.67915 18.3648 6.66278 18.3717C6.64641 18.3785 6.63154 18.3885 6.61903 18.401C6.60651 18.4136 6.5966 18.4285 6.58985 18.4449C6.58309 18.4613 6.57964 18.4789 6.57968 18.4966L6.58027 18.4978ZM6.58291 20.1077L6.58056 20.8186C6.58025 20.8528 6.59352 20.8857 6.61746 20.9102C6.6414 20.9346 6.67406 20.9486 6.70827 20.949L7.46892 20.9516C7.76641 20.9516 8.008 20.7568 8.00888 20.5143V20.4231C8.00888 20.1807 7.76935 19.9832 7.47186 19.9817L6.71268 19.9779C6.67844 19.9778 6.64557 19.9913 6.62125 20.0154C6.59693 20.0395 6.58315 20.0723 6.58291 20.1065V20.1077Z" fill="white"/>
<path d="M11.3559 17.625H10.4113C10.2397 17.625 10.1006 17.7641 10.1006 17.9357V21.3673C10.1006 21.539 10.2397 21.6781 10.4113 21.6781H11.3559C11.5275 21.6781 11.6666 21.539 11.6666 21.3673V17.9357C11.6666 17.7641 11.5275 17.625 11.3559 17.625Z" fill="white"/>
<path d="M14.2277 18.7205C14.4461 18.4537 14.6613 18.1937 14.8733 17.9404C14.9725 17.8166 15.1027 17.7211 15.2506 17.6636C15.3325 17.6357 15.4186 17.6223 15.5051 17.6238C15.8761 17.6238 16.2314 17.6238 16.5712 17.6238C16.6651 17.6238 16.7772 17.6382 16.7531 17.768C16.7441 17.816 16.7233 17.8611 16.6924 17.899C16.1875 18.5059 15.6828 19.114 15.1785 19.7233C15.1748 19.7268 15.1718 19.7309 15.1697 19.7356C15.1677 19.7402 15.1666 19.7452 15.1666 19.7503C15.1666 19.7553 15.1677 19.7603 15.1697 19.765C15.1718 19.7696 15.1748 19.7738 15.1785 19.7772C15.6715 20.3167 16.1678 20.8545 16.6674 21.3906C16.7098 21.4362 16.7634 21.5083 16.7575 21.5719C16.7516 21.6354 16.7139 21.6716 16.6442 21.6731C16.3582 21.6794 16.0795 21.6794 15.8082 21.6731C15.5728 21.6684 15.3803 21.523 15.2273 21.3556C14.9943 21.1006 14.7574 20.842 14.5167 20.5799C14.5142 20.5759 14.5108 20.5726 14.5066 20.5703C14.5025 20.568 14.4979 20.5668 14.4932 20.5668C14.4884 20.5668 14.4838 20.568 14.4797 20.5703C14.4756 20.5726 14.4721 20.5759 14.4696 20.5799C14.2625 20.8259 14.0627 21.0674 13.8702 21.3044C13.741 21.4627 13.5916 21.5986 13.3906 21.6522C13.2959 21.6735 13.1989 21.6826 13.1019 21.6793C12.7761 21.6773 12.4446 21.6773 12.1073 21.6793C12.0556 21.6793 11.9602 21.671 11.944 21.6086C11.9175 21.5057 11.9764 21.4359 12.0352 21.3609C12.5367 20.7569 13.0369 20.1541 13.536 19.5527C13.5404 19.5477 13.5428 19.5412 13.5428 19.5346C13.5428 19.5279 13.5404 19.5215 13.536 19.5165C13.0475 18.9892 12.5587 18.4588 12.0697 17.9254C12.0144 17.8651 11.9181 17.7283 11.9946 17.6591C12.0199 17.6364 12.0528 17.624 12.0867 17.6244C12.3186 17.6232 12.5574 17.6232 12.803 17.6244C13.1166 17.6244 13.3129 17.7565 13.5145 17.9752C13.7416 18.222 13.9715 18.4707 14.2042 18.7214C14.207 18.7242 14.2108 18.7258 14.2148 18.7258C14.2188 18.7258 14.2226 18.7242 14.2254 18.7214C14.2254 18.7214 14.2272 18.7211 14.2277 18.7205Z" fill="white"/>
<path d="M23.4301 20.7875C23.8723 20.7875 24.3126 20.7875 24.751 20.7875C24.8632 20.7875 24.9888 20.7875 25.0747 20.8687C25.2042 20.9911 25.1815 21.1965 25.1751 21.3598C25.1645 21.6214 24.9879 21.6835 24.7513 21.6835C23.9337 21.6788 23.1184 21.6788 22.3055 21.6835C22.1716 21.6835 22.0768 21.672 22.0206 21.6467C21.9125 21.5984 21.8584 21.5015 21.8582 21.356C21.8559 20.2607 21.8559 19.1599 21.8582 18.0535C21.8582 17.9814 21.8532 17.8831 21.8809 17.8205C21.9372 17.6943 22.0325 17.6308 22.1669 17.6298C22.4627 17.6276 22.7657 17.6276 23.0758 17.6298C23.2315 17.6298 23.3772 17.7145 23.3995 17.8731C23.41 17.9529 23.415 18.0334 23.4145 18.1138C23.4112 19.0017 23.4105 19.8878 23.4125 20.7722C23.4131 20.7764 23.4152 20.7803 23.4185 20.7831C23.4217 20.7859 23.4258 20.7874 23.4301 20.7875Z" fill="white"/>
<path d="M31.7978 18.8303C31.7878 18.8095 31.7828 18.8107 31.7828 18.8338C31.7801 19.6268 31.7812 20.4228 31.7861 21.222C31.7861 21.3609 31.7778 21.4518 31.7593 21.4945C31.689 21.6569 31.5418 21.6878 31.3797 21.6869C31.1188 21.6854 30.8857 21.6845 30.6803 21.6843C30.4669 21.6843 30.348 21.5433 30.3486 21.3377C30.3514 20.1485 30.3514 19.0303 30.3486 17.9831C30.3486 17.8434 30.3913 17.7183 30.5252 17.6595C30.5849 17.6386 30.648 17.6296 30.7112 17.6327C31.0611 17.6327 31.4183 17.6327 31.7825 17.6327C31.9228 17.6327 32.0258 17.6467 32.0915 17.6748C32.2139 17.7286 32.3113 17.8269 32.364 17.9499C32.7251 18.7191 33.0881 19.499 33.4527 20.2895C33.4569 20.2988 33.4625 20.3074 33.4695 20.3148C33.4845 20.3304 33.4922 20.3275 33.4922 20.3054C33.4906 19.4999 33.4906 18.7153 33.4922 17.9514C33.4922 17.7944 33.5598 17.693 33.6952 17.6471C33.7488 17.6287 33.8567 17.6207 34.0189 17.6233C34.2131 17.6264 34.403 17.6275 34.5886 17.6265C34.7441 17.6265 34.8478 17.6917 34.8996 17.8222C34.9236 17.8956 34.934 17.9728 34.9305 18.0499C34.9289 19.0636 34.9289 20.1425 34.9305 21.2868C34.9305 21.375 34.9228 21.4783 34.8716 21.5466C34.8421 21.5885 34.8027 21.6224 34.7569 21.6456C34.7112 21.6687 34.6604 21.6803 34.6092 21.6793C34.2655 21.6781 33.8891 21.6786 33.4801 21.6808C33.1335 21.6825 33.0228 21.438 32.8975 21.1688C32.5514 20.4253 32.1849 19.6458 31.7978 18.8303Z" fill="white"/>
<path d="M36.5197 18.3162C36.545 18.3306 36.5656 18.352 36.5792 18.3777C36.5928 18.4034 36.5988 18.4325 36.5965 18.4615C36.5928 18.5156 36.6007 18.5699 36.6195 18.6207C36.6274 18.6416 36.6195 18.6502 36.598 18.6502L36.5494 18.6452C36.5438 18.6451 36.5383 18.644 36.5333 18.6417C36.5282 18.6394 36.5236 18.6361 36.5199 18.632C36.5161 18.6279 36.5133 18.623 36.5115 18.6177C36.5098 18.6125 36.5092 18.6069 36.5097 18.6013C36.5097 18.4983 36.5132 18.355 36.3758 18.3488C36.2995 18.3453 36.2192 18.3444 36.1348 18.3462C36.1327 18.346 36.1305 18.3462 36.1285 18.3469C36.1265 18.3476 36.1246 18.3488 36.1231 18.3503C36.1216 18.3519 36.1205 18.3537 36.1198 18.3558C36.1191 18.3578 36.1189 18.36 36.1192 18.3621L36.1169 18.6128C36.1175 18.6176 36.117 18.6224 36.1155 18.627C36.1139 18.6315 36.1113 18.6357 36.1079 18.6391C36.1045 18.6425 36.1003 18.645 36.0958 18.6465C36.0912 18.6481 36.0863 18.6485 36.0815 18.6478H36.0612C36.0563 18.6485 36.0512 18.648 36.0464 18.6464C36.0417 18.6448 36.0373 18.6421 36.0338 18.6385C36.0303 18.635 36.0276 18.6306 36.026 18.6259C36.0245 18.6211 36.024 18.616 36.0248 18.611V17.9342C36.0248 17.9311 36.0261 17.9281 36.0282 17.9258C36.0304 17.9235 36.0334 17.9221 36.0365 17.9219C36.1732 17.914 36.3103 17.9188 36.4461 17.936C36.5627 17.9525 36.622 18.0171 36.6242 18.1299C36.6266 18.1646 36.6179 18.1991 36.5993 18.2284C36.5806 18.2577 36.553 18.2802 36.5206 18.2926C36.519 18.2933 36.5175 18.2944 36.5163 18.2956C36.5151 18.2969 36.5141 18.2984 36.5135 18.3001C36.5129 18.3017 36.5126 18.3034 36.5126 18.3052C36.5127 18.307 36.5131 18.3087 36.5138 18.3103C36.5152 18.3128 36.5172 18.3148 36.5197 18.3162ZM36.1177 18.0063L36.116 18.2612C36.116 18.2622 36.1162 18.2632 36.1166 18.2641C36.1169 18.265 36.1175 18.2659 36.1182 18.2666C36.1189 18.2673 36.1198 18.2678 36.1207 18.2682C36.1216 18.2686 36.1226 18.2688 36.1236 18.2688L36.3543 18.2706C36.4526 18.2706 36.5309 18.2179 36.5329 18.1511V18.124C36.5329 18.0575 36.4541 18.0028 36.3564 18.0022L36.1257 18.0004C36.1237 18.0004 36.1217 18.0013 36.1203 18.0027C36.1188 18.0041 36.118 18.0061 36.118 18.0081L36.1177 18.0063Z" fill="white"/>
<circle cx="20" cy="20" r="19.5" stroke="black" stroke-opacity="0.05"/>
</svg>
