<svg width="41" height="40" viewBox="0 0 41 40" fill="none" xmlns="http://www.w3.org/2000/svg">
<circle cx="20.1133" cy="20" r="20" fill="#F6F8FA"/>
<g clip-path="url(#clip0_16604_10967)">
<path d="M19.5769 12.9867C20.4016 12.9867 21.0702 12.3181 21.0702 11.4934C21.0702 10.6686 20.4016 10 19.5769 10C18.7521 10 18.0835 10.6686 18.0835 11.4934C18.0835 12.3181 18.7521 12.9867 19.5769 12.9867Z" fill="#D9262C"/>
<path d="M21.6763 16.412V14.8517H20.3829H18.6724H17.3799V16.412H18.6724V25.2598H17.3799V26.8201H21.6763V25.2598H20.3829V16.412H21.6763Z" fill="#1F386D"/>
<path d="M32.5446 16.388C30.9749 14.8183 28.5486 14.8517 28.5486 14.8517H22.7837V16.412H24.3054V25.2598H22.7837V26.8193H28.5486C28.5486 26.8193 31.4169 26.7197 32.6588 25.1645C33.9007 23.6094 34.1178 22.1675 34.1178 20.9831C34.1144 19.8554 34.1144 17.9578 32.5446 16.388ZM31.9301 23.2661C31.0719 25.2272 28.5477 25.2598 28.5477 25.2598H26.015V16.412H28.5477C28.5477 16.412 31.7877 16.3314 32.2442 19.4846C32.2451 19.4846 32.7025 21.5109 31.9301 23.2661Z" fill="#1F386D"/>
<path d="M16.3139 16.412V14.8517H9.67359H8.11328V16.412V19.8562V21.4165V25.2598V26.7686V26.8201H16.3139V25.2598H9.67359V21.4165H14.2404V19.8562H9.67359V16.412H16.3139Z" fill="#D9262C"/>
</g>
<circle cx="20.1133" cy="20" r="19.5" stroke="black" stroke-opacity="0.05"/>
<defs>
<clipPath id="clip0_16604_10967">
<rect width="26" height="16.8201" fill="white" transform="translate(8.11328 10)"/>
</clipPath>
</defs>
</svg>
