<svg width="40" height="40" viewBox="0 0 40 40" fill="none" xmlns="http://www.w3.org/2000/svg">
<circle cx="20" cy="20" r="20" fill="#EF4F26"/>
<g clip-path="url(#clip0_17713_28077)">
<path d="M10.3067 22.5457C10.0574 22.4664 9.68904 22.2813 9.94971 21.9998C10.1386 21.7977 10.5863 21.8336 10.8413 21.809C11.6101 21.7373 12.5432 21.7392 13.1854 21.248C13.7691 20.8023 13.9032 19.9466 13.5122 19.3289C13.1929 18.8246 12.6471 18.5091 12.0785 18.3675C11.2153 18.1521 10.3162 18.1465 9.45671 17.9255L9.47371 18.6565C10.2217 18.5412 10.981 18.4959 11.7347 18.4544C12.4884 18.4128 13.2553 18.3675 14.0127 18.409C14.6757 18.4449 15.3425 18.545 15.9885 18.6924C16.5552 18.8227 17.0633 19.089 17.579 19.3516C18.0115 19.5707 18.3723 18.9077 17.936 18.6848C17.3731 18.3996 16.8064 18.1049 16.1869 17.9614C15.4955 17.8008 14.7777 17.7007 14.0694 17.6554C13.2855 17.6062 12.4997 17.6554 11.7177 17.695C10.896 17.7385 10.0763 17.8008 9.26215 17.9255C8.86737 17.9859 8.94482 18.5696 9.27915 18.6565C10.0649 18.8586 10.8923 18.8869 11.6875 19.0512C12.1597 19.1495 12.7169 19.3346 12.9342 19.8389C13.0343 20.0731 12.9814 20.3961 12.8019 20.5794C12.5469 20.84 12.0879 20.908 11.7442 20.9571C11.3664 21.01 10.9829 21.0346 10.6033 21.0705C10.2557 21.1026 9.86093 21.1177 9.56626 21.3274C9.22248 21.571 9.00148 22.0376 9.12993 22.4532C9.26971 22.9046 9.70982 23.1407 10.1292 23.2748C10.5919 23.424 10.7676 22.6893 10.3067 22.54V22.5457Z" fill="white"/>
<path d="M11.2341 14.9014C11.1151 14.6691 10.9848 14.2781 11.3663 14.2629C11.6421 14.2535 11.9349 14.5954 12.1313 14.7578C12.7263 15.2508 13.3856 15.912 14.1846 16.0177C14.9137 16.1141 15.6126 15.6041 15.7731 14.892C15.9054 14.3083 15.741 13.7019 15.4388 13.1995C14.9817 12.4383 14.3489 11.796 13.8994 11.0329L13.395 11.5599C14.0051 12.0076 14.5756 12.5119 15.1366 13.0163C15.6976 13.5206 16.2737 14.0287 16.7799 14.5954C17.2219 15.0903 17.6243 15.6324 17.9775 16.1934C18.2873 16.6845 18.4573 17.2342 18.6367 17.7857C18.7878 18.2466 19.5113 18.0313 19.3602 17.5666C19.1637 16.966 18.971 16.3577 18.6348 15.8194C18.2589 15.2168 17.8226 14.6388 17.3541 14.1062C16.8347 13.5168 16.2454 12.9955 15.6617 12.4723C15.0497 11.9226 14.4264 11.3862 13.7615 10.8988C13.4403 10.6627 13.0815 11.1293 13.2571 11.4258C13.6689 12.1247 14.2356 12.7292 14.6814 13.4073C14.9458 13.8096 15.2084 14.3366 15.0044 14.8466C14.9099 15.0827 14.6436 15.2754 14.3867 15.2773C14.0221 15.2811 13.6481 15.0053 13.3723 14.7956C13.0682 14.5652 12.7792 14.3121 12.4846 14.0684C12.2145 13.8455 11.9273 13.5773 11.5685 13.5168C11.1529 13.4451 10.6674 13.6207 10.4634 14.0061C10.2443 14.4235 10.3879 14.9014 10.5881 15.2943C10.811 15.7268 11.4532 15.3302 11.2322 14.8995L11.2341 14.9014Z" fill="white"/>
<path d="M17.2959 10.1489C17.3752 9.89954 17.5603 9.53121 17.8418 9.79187C18.0439 9.98076 18.008 10.4284 18.0325 10.6834C18.1043 11.4522 18.1024 12.3853 18.5935 13.0276C19.0393 13.6112 19.895 13.7453 20.5127 13.3543C21.017 13.0351 21.3324 12.4892 21.4741 11.9207C21.6895 11.0574 21.6951 10.1583 21.9161 9.29887L21.1851 9.31587C21.3003 10.0639 21.3457 10.8232 21.3872 11.5769C21.4288 12.3306 21.4741 13.0974 21.4326 13.8549C21.3967 14.5179 21.2966 15.1847 21.1492 15.8307C21.0189 16.3974 20.7526 16.9055 20.49 17.4211C20.2709 17.8537 20.9339 18.2145 21.1568 17.7781C21.442 17.2152 21.7367 16.6486 21.8802 16.029C22.0408 15.3377 22.1409 14.6199 22.1862 13.9116C22.2353 13.1277 22.1862 12.3419 22.1466 11.5599C22.1031 10.7382 22.0408 9.91843 21.9161 9.10431C21.8557 8.70953 21.272 8.78698 21.1851 9.12131C20.983 9.9071 20.9547 10.7344 20.7903 11.5297C20.6921 12.0019 20.507 12.5591 20.0027 12.7763C19.7684 12.8764 19.4454 12.8236 19.2622 12.6441C19.0015 12.3891 18.9335 11.9301 18.8844 11.5863C18.8315 11.2085 18.807 10.8251 18.7711 10.4454C18.739 10.0979 18.7239 9.7031 18.5142 9.40843C18.2705 9.06465 17.804 8.84365 17.3884 8.97209C16.937 9.11187 16.7009 9.55198 16.5668 9.97132C16.4175 10.4341 17.1523 10.6098 17.3015 10.1489H17.2959Z" fill="white"/>
<path d="M24.9402 11.0764C25.1725 10.9574 25.5635 10.8271 25.5786 11.2086C25.5881 11.4844 25.2462 11.7772 25.0837 11.9736C24.5907 12.5686 23.9296 13.2279 23.8238 14.0269C23.7275 14.756 24.2375 15.4549 24.9496 15.6154C25.5333 15.7476 26.1396 15.5833 26.6421 15.2811C27.4033 14.824 28.0455 14.1912 28.8086 13.7416L28.2816 13.2373C27.834 13.8474 27.3296 14.4179 26.8253 14.9789C26.3209 15.5399 25.8128 16.116 25.2462 16.6222C24.7513 17.0642 24.2092 17.4665 23.6482 17.8198C23.157 18.1295 22.6074 18.2995 22.0558 18.479C21.5949 18.6301 21.8103 19.3536 22.2749 19.2024C22.8756 19.006 23.4838 18.8133 24.0222 18.4771C24.6247 18.1012 25.2027 17.6649 25.7354 17.1964C26.3247 16.677 26.8461 16.0876 27.3693 15.504C27.919 14.892 28.4554 14.2686 28.9427 13.6037C29.1788 13.2826 28.7123 12.9237 28.4157 13.0994C27.7168 13.5112 27.1124 14.0779 26.4343 14.5236C26.0319 14.7881 25.5049 15.0506 24.9949 14.8466C24.7588 14.7522 24.5662 14.4859 24.5643 14.229C24.5605 13.8644 24.8363 13.4904 25.0459 13.2146C25.2764 12.9105 25.5295 12.6215 25.7732 12.3269C25.9961 12.0567 26.2643 11.7696 26.3247 11.4107C26.3965 10.9952 26.2208 10.5097 25.8355 10.3057C25.4181 10.0866 24.9402 10.2302 24.5473 10.4304C24.1147 10.6533 24.5114 11.2955 24.942 11.0745L24.9402 11.0764Z" fill="white"/>
<path d="M29.6913 17.1378C29.9406 17.2171 30.309 17.4022 30.0483 17.6837C29.8594 17.8858 29.4117 17.8499 29.1567 17.8745C28.388 17.9462 27.4548 17.9444 26.8126 18.4355C26.2289 18.8812 26.0948 19.7369 26.4858 20.3546C26.8051 20.8589 27.3509 21.1744 27.9195 21.316C28.7827 21.5314 29.6818 21.537 30.5413 21.758L30.5243 21.027C29.7763 21.1423 29.017 21.1876 28.2633 21.2291C27.5096 21.2707 26.7427 21.316 25.9853 21.2745C25.3223 21.2386 24.6555 21.1385 24.0095 20.9911C23.4428 20.8608 22.9347 20.5945 22.419 20.3319C21.9865 20.1128 21.6257 20.7758 22.062 20.9987C22.6249 21.2839 23.1916 21.5786 23.8112 21.7221C24.5025 21.8827 25.2203 21.9828 25.9286 22.0282C26.7125 22.0773 27.4983 22.0282 28.2803 21.9885C29.102 21.945 29.9217 21.8827 30.7359 21.758C31.1306 21.6976 31.0532 21.1139 30.7189 21.027C29.9331 20.8249 29.1057 20.7966 28.3105 20.6323C27.8383 20.534 27.2811 20.3489 27.0638 19.8446C26.9637 19.6104 27.0166 19.2874 27.1961 19.1041C27.4511 18.8435 27.9101 18.7755 28.2538 18.7264C28.6316 18.6735 29.0151 18.6489 29.3947 18.613C29.7423 18.5809 30.1371 18.5658 30.4317 18.3561C30.7755 18.1125 30.9965 17.6459 30.8681 17.2303C30.7283 16.7789 30.2882 16.5428 29.8689 16.4087C29.4061 16.2595 29.2304 16.9942 29.6913 17.1435V17.1378Z" fill="white"/>
<path d="M28.7658 24.7822C28.8848 25.0145 29.0151 25.4055 28.6336 25.4206C28.3578 25.4301 28.065 25.0882 27.8686 24.9258C27.2736 24.4328 26.6144 23.7716 25.8154 23.6659C25.0862 23.5695 24.3873 24.0795 24.2268 24.7916C24.0946 25.3753 24.2589 25.9817 24.5611 26.4841C25.0182 27.2453 25.651 27.8876 26.1006 28.6507L26.6049 28.1237C25.9948 27.676 25.4244 27.1717 24.8634 26.6673C24.3023 26.163 23.7262 25.6549 23.22 25.0882C22.778 24.5933 22.3757 24.0512 22.0224 23.4902C21.7127 22.9991 21.5427 22.4494 21.3632 21.8979C21.2121 21.437 20.4887 21.6523 20.6398 22.117C20.8362 22.7176 21.0289 23.3259 21.3651 23.8642C21.741 24.4668 22.1773 25.0448 22.6458 25.5774C23.1652 26.1668 23.7546 26.6881 24.3382 27.2113C24.9502 27.761 25.5736 28.2974 26.2385 28.7848C26.5596 29.0209 26.9185 28.5543 26.7428 28.2578C26.331 27.5589 25.7644 26.9544 25.3186 26.2763C25.0541 25.874 24.7916 25.347 24.9956 24.837C25.09 24.6009 25.3564 24.4082 25.6132 24.4063C25.9778 24.4025 26.3518 24.6783 26.6276 24.888C26.9317 25.1184 27.2207 25.3715 27.5154 25.6152C27.7855 25.8381 28.0726 26.1063 28.4315 26.1668C28.847 26.2385 29.3325 26.0629 29.5365 25.6775C29.7556 25.2601 29.612 24.7822 29.4118 24.3893C29.1889 23.9568 28.5467 24.3534 28.7677 24.7841L28.7658 24.7822Z" fill="white"/>
<path d="M22.7039 29.5328C22.6246 29.7822 22.4395 30.1505 22.158 29.8898C21.9559 29.701 21.9918 29.2533 21.9672 28.9983C21.8955 28.2295 21.8974 27.2964 21.4062 26.6542C20.9605 26.0705 20.1048 25.9364 19.4871 26.3274C18.9828 26.6466 18.6673 27.1925 18.5257 27.7611C18.3103 28.6243 18.3047 29.5234 18.0837 30.3829L18.8147 30.3659C18.6994 29.6178 18.6541 28.8585 18.6126 28.1048C18.571 27.3512 18.5257 26.5843 18.5672 25.8268C18.6031 25.1638 18.7032 24.497 18.8506 23.851C18.9809 23.2844 19.2472 22.7763 19.5098 22.2606C19.7289 21.828 19.0659 21.4673 18.843 21.9036C18.5578 22.4665 18.2631 23.0331 18.1196 23.6527C17.959 24.344 17.8589 25.0618 17.8136 25.7702C17.7644 26.5541 17.8136 27.3398 17.8532 28.1218C17.8967 28.9435 17.959 29.7633 18.0837 30.5774C18.1441 30.9722 18.7278 30.8947 18.8147 30.5604C19.0168 29.7746 19.0451 28.9473 19.2095 28.1521C19.3077 27.6798 19.4928 27.1226 19.9971 26.9054C20.2313 26.8053 20.5543 26.8582 20.7376 27.0376C20.9982 27.2926 21.0662 27.7516 21.1154 28.0954C21.1682 28.4732 21.1928 28.8566 21.2287 29.2363C21.2608 29.5838 21.2759 29.9786 21.4856 30.2733C21.7292 30.6171 22.1958 30.8381 22.6114 30.7096C23.0628 30.5699 23.2989 30.1297 23.433 29.7104C23.5823 29.2476 22.8475 29.072 22.6982 29.5328H22.7039Z" fill="white"/>
<path d="M15.0592 28.6072C14.8269 28.7262 14.4359 28.8566 14.4208 28.475C14.4113 28.1992 14.7532 27.9065 14.9157 27.71C15.4087 27.115 16.0698 26.4558 16.1756 25.6568C16.2719 24.9277 15.7619 24.2288 15.0498 24.0682C14.4661 23.936 13.8598 24.1003 13.3573 24.4026C12.5961 24.8597 11.9539 25.4925 11.1908 25.942L11.7178 26.4463C12.1654 25.8362 12.6698 25.2658 13.1741 24.7048C13.6784 24.1438 14.1866 23.5677 14.7532 23.0614C15.2481 22.6194 15.7902 22.2171 16.3512 21.8639C16.8424 21.5541 17.392 21.3841 17.9436 21.2047C18.4045 21.0535 18.1891 20.3301 17.7245 20.4812C17.1238 20.6776 16.5156 20.8703 15.9772 21.2065C15.3747 21.5824 14.7967 22.0188 14.264 22.4872C13.6747 23.0067 13.1533 23.596 12.6301 24.1797C12.0804 24.7917 11.544 25.415 11.0567 26.0799C10.8205 26.401 11.2871 26.7599 11.5837 26.5842C12.2826 26.1725 12.887 25.6058 13.5651 25.16C13.9675 24.8956 14.4945 24.633 15.0045 24.837C15.2406 24.9314 15.4332 25.1978 15.4351 25.4547C15.4389 25.8192 15.1631 26.1932 14.9535 26.469C14.723 26.7731 14.4699 27.0621 14.2262 27.3568C14.0033 27.6269 13.7351 27.914 13.6747 28.2729C13.6029 28.6885 13.7786 29.1739 14.1639 29.3779C14.5813 29.597 15.0592 29.4535 15.4521 29.2532C15.8847 29.0304 15.488 28.3881 15.0573 28.6091L15.0592 28.6072Z" fill="white"/>
</g>
<circle cx="20" cy="20" r="19.5" stroke="black" stroke-opacity="0.05"/>
<defs>
<clipPath id="clip0_17713_28077">
<rect width="22" height="22" fill="white" transform="translate(9 8.8418)"/>
</clipPath>
</defs>
</svg>
