<svg width="40" height="40" viewBox="0 0 40 40" fill="none" xmlns="http://www.w3.org/2000/svg">
<circle cx="20" cy="20" r="20" fill="#343A77"/>
<path d="M30.4948 18.7435C30.7053 18.8214 30.916 18.8986 31.1262 18.9772C31.5359 19.1304 31.9456 19.2837 32.3548 19.4381C32.6684 19.5565 32.981 19.6775 33.2946 19.7958C33.7003 19.949 34.1068 20.0999 34.5124 20.2534C34.8664 20.3874 35.2195 20.5241 35.5733 20.6589C35.7719 20.7346 35.9711 20.8088 36.1865 20.8899C36.1508 20.9065 36.1294 20.9193 36.1063 20.9268C35.418 21.1515 34.7295 21.3757 34.0411 21.5999C33.2849 21.8462 32.5288 22.0926 31.7726 22.3388C31.4529 22.4429 31.133 22.5465 30.8133 22.6507C30.0571 22.8971 29.3008 23.1433 28.5448 23.3902C28.1913 23.5057 27.8386 23.6233 27.485 23.7384C26.7588 23.9747 26.0322 24.2097 25.3059 24.4458C24.9561 24.5595 24.6068 24.6749 24.2571 24.7891C23.52 25.0299 22.7828 25.2706 22.0456 25.511C21.7033 25.6226 21.3607 25.7333 21.0185 25.8449C20.2813 26.0853 19.5443 26.3262 18.8071 26.5666C18.4648 26.6782 18.1223 26.789 17.78 26.9005C17.0238 27.1467 16.2677 27.3932 15.5114 27.6393C15.3507 27.6916 15.1895 27.7428 15.0156 27.7986C14.9936 27.7484 14.9623 27.6918 14.9435 27.6313C14.8794 27.4249 14.7786 27.2348 14.6757 27.0474C14.5319 26.7854 14.3733 26.5318 14.2032 26.2853C13.8046 25.7075 13.3404 25.1866 12.8334 24.7034C12.4969 24.3827 12.1395 24.086 11.769 23.8046C11.2613 23.4188 10.7313 23.0674 10.1766 22.7538C9.90265 22.5989 9.6232 22.4537 9.3432 22.2882C9.33778 22.261 9.33541 22.2497 9.33437 22.2275C9.33587 22.173 9.336 22.1295 9.33621 22.086C9.33779 21.7618 9.33938 21.4376 9.35217 21.1131C9.74996 21.1127 10.1365 21.1133 10.5231 21.1115C10.5587 21.1114 10.5943 21.0959 10.6322 21.0766C10.6339 20.7781 10.6333 20.4904 10.6329 20.1931C10.5921 20.1761 10.551 20.1625 10.5099 20.1623C10.1199 20.16 9.73 20.16 9.33842 20.1479C9.33677 19.9031 9.33677 19.6698 9.33677 19.4273C9.85081 19.4273 10.3476 19.4273 10.8505 19.4273C10.8505 19.1197 10.8505 18.8217 10.8464 18.5141C10.6468 18.5026 10.4513 18.499 10.2558 18.4988C9.62475 18.4981 8.99371 18.4979 8.36268 18.5C8.3245 18.5001 8.27497 18.4738 8.24478 18.5372C8.24269 19.5719 8.24252 20.5957 8.24205 21.6195C8.24203 21.6672 8.23937 21.7149 8.23173 21.7621C8.22142 21.7623 8.21732 21.7629 8.21322 21.7636C8.1083 21.724 8.00346 21.6842 7.89846 21.6448C7.69666 21.5692 7.49304 21.498 7.29331 21.4173C6.93095 21.2709 6.56077 21.1475 6.18699 21.035C5.85235 20.9342 5.51649 20.8372 5.17937 20.7451C4.90519 20.6702 4.62819 20.6058 4.35283 20.5351C4.3021 20.5221 4.25326 20.5017 4.19392 20.4874C4.18429 20.4793 4.18429 20.4687 4.19262 20.4525C4.22568 20.4277 4.25266 20.4108 4.27478 20.3889C4.70932 19.9595 5.14472 19.5309 5.57714 19.0994C7.91517 16.7661 10.2525 14.4321 12.5897 12.0979C12.6201 12.0675 12.6462 12.0327 12.6743 12C12.6849 12 12.6956 12 12.7143 12C12.8247 12.0454 12.9254 12.0955 13.03 12.1354C13.413 12.2816 13.7975 12.4238 14.181 12.5686C14.6859 12.7592 15.1906 12.9504 15.6952 13.1419C16.2627 13.3573 16.8297 13.5738 17.3973 13.7887C18.0825 14.0482 18.7681 14.3066 19.4535 14.5655C20.0139 14.7773 20.574 14.9898 21.1347 15.2008C21.662 15.3992 22.1901 15.5953 22.7173 15.7939C23.1379 15.9524 23.5573 16.1139 23.9778 16.2729C24.4233 16.4413 24.8697 16.6078 25.3153 16.7763C25.7135 16.9268 26.1108 17.0795 26.509 17.23C26.9145 17.3832 27.321 17.534 27.7263 17.6876C28.0728 17.8188 28.418 17.9532 28.7643 18.0849C29.0478 18.1927 29.3321 18.2986 29.6159 18.4057C29.6304 18.4112 29.6436 18.4205 29.6681 18.4339C29.6789 18.4396 29.6745 18.4493 29.6649 18.4473C29.4511 18.4262 29.2481 18.438 29.0471 18.4759C28.6184 18.5565 28.3181 18.7937 28.1897 19.2164C28.1344 19.3984 28.0943 19.5889 28.078 19.7781C28.0332 20.3001 28.0312 20.8236 28.0748 21.3462C28.0937 21.5734 28.1363 21.7969 28.2349 22.0059C28.3504 22.2506 28.5336 22.4179 28.7952 22.4924C29.0338 22.5603 29.2761 22.5637 29.5187 22.5158C29.7076 22.4786 29.8572 22.3793 29.9661 22.2195C29.9776 22.2027 29.9935 22.189 30.0195 22.1606C30.0306 22.2725 30.0398 22.3659 30.0492 22.4601C30.3086 22.4601 30.558 22.4601 30.818 22.4601C30.818 21.7431 30.818 21.0342 30.818 20.325C30.3692 20.325 29.9244 20.325 29.4737 20.325C29.4737 20.5675 29.4737 20.8011 29.4737 21.0468C29.5783 21.0468 29.6763 21.0468 29.7827 21.0468C29.774 21.2418 29.7992 21.426 29.7501 21.6062C29.7116 21.7469 29.6245 21.8106 29.4793 21.8119C29.3404 21.8132 29.2557 21.7563 29.2215 21.6115C29.1961 21.5039 29.186 21.3907 29.1848 21.2798C29.1819 21.0162 29.189 20.7525 29.1911 20.4888C29.1934 20.1852 29.1917 19.8815 29.1985 19.578C29.2004 19.4917 29.2155 19.4026 29.2428 19.3208C29.2792 19.2117 29.3635 19.1679 29.4882 19.17C29.6041 19.172 29.6835 19.2208 29.7189 19.3255C29.739 19.3851 29.7484 19.4498 29.7527 19.5129C29.7583 19.5956 29.7541 19.6789 29.7541 19.7684C30.1084 19.7684 30.4492 19.7684 30.8052 19.7684C30.7962 19.6422 30.7942 19.5231 30.7781 19.4058C30.7451 19.1657 30.6819 18.9365 30.4979 18.7564C30.4978 18.752 30.4948 18.7435 30.4948 18.7435ZM25.8363 20.7483C25.9768 21.3202 26.1173 21.8922 26.2565 22.459C26.489 22.4817 27.3544 22.4731 27.4428 22.4479C27.4508 21.1408 27.4589 19.8326 27.4669 18.5238C27.1121 18.5238 26.774 18.5238 26.4184 18.5238C26.4184 19.3157 26.4184 20.1012 26.4184 20.8867C26.4096 20.8874 26.4008 20.888 26.3921 20.8886C26.212 20.1008 26.0319 19.313 25.8527 18.529C25.6782 18.5048 24.7338 18.5129 24.6481 18.5393C24.641 19.8428 24.6339 21.1478 24.6268 22.4606C24.9632 22.4606 25.2924 22.4606 25.6317 22.4606C25.638 21.6645 25.6441 20.8743 25.6503 20.084C25.6567 20.0835 25.6632 20.0829 25.6696 20.0823C25.7234 20.2979 25.7772 20.5136 25.8363 20.7483ZM15.4718 18.4995C15.0413 18.6014 14.7904 18.8784 14.6969 19.3033C14.6696 19.4277 14.6454 19.5552 14.642 19.6819C14.6291 20.161 14.6206 20.6404 14.6206 21.1196C14.6207 21.2864 14.6412 21.4547 14.6679 21.6199C14.7484 22.118 15.0062 22.3948 15.4918 22.4949C15.8595 22.5707 16.2297 22.5671 16.5979 22.4856C17.0253 22.3911 17.2838 22.1266 17.3734 21.7021C17.4095 21.5309 17.4355 21.3553 17.4424 21.1808C17.4569 20.8175 17.4602 20.4537 17.459 20.0901C17.4582 19.8387 17.4481 19.5872 17.3994 19.3387C17.3149 18.9075 17.081 18.6107 16.6437 18.5045C16.2616 18.4116 15.8761 18.4141 15.4718 18.4995ZM11.275 21.421C11.2856 21.4961 11.294 21.5715 11.3071 21.6461C11.3886 22.1085 11.6516 22.4002 12.1172 22.4936C12.4857 22.5674 12.8549 22.5666 13.2233 22.4879C13.6673 22.3931 13.9291 22.1161 14.014 21.6768C14.0525 21.4777 14.0773 21.2736 14.0831 21.071C14.0946 20.6718 14.0932 20.272 14.0872 19.8726C14.0847 19.7056 14.0657 19.5376 14.0387 19.3726C13.9569 18.8725 13.6967 18.593 13.2069 18.4885C12.8515 18.4127 12.493 18.4177 12.1365 18.4933C11.6948 18.587 11.4271 18.8595 11.3351 19.297C11.2958 19.4837 11.2706 19.6757 11.2635 19.8662C11.2501 20.2293 11.252 20.5931 11.2522 20.9567C11.2523 21.1043 11.2647 21.2518 11.275 21.421ZM22.8626 21.0535C22.8619 21.1614 22.8657 21.2696 22.8591 21.3771C22.8532 21.4722 22.8441 21.5687 22.8213 21.6608C22.7957 21.764 22.7338 21.8046 22.6308 21.8114C22.4725 21.8219 22.3874 21.7592 22.3668 21.6012C22.3525 21.4907 22.3486 21.3781 22.3491 21.2666C22.3531 20.3955 22.3592 19.5245 22.3646 18.6535C22.3649 18.6109 22.3647 18.5684 22.3647 18.5256C21.9892 18.5256 21.6282 18.5256 21.2627 18.5256C21.2612 18.5531 21.2593 18.5725 21.2591 18.5919C21.2532 19.4589 21.2452 20.326 21.2438 21.193C21.2435 21.3559 21.2604 21.5205 21.2861 21.6816C21.3587 22.1368 21.5992 22.3935 22.0504 22.4924C22.3896 22.5668 22.7332 22.5706 23.0736 22.4982C23.5135 22.4047 23.7926 22.1387 23.9017 21.6986C23.95 21.5035 23.9674 21.3054 23.9685 21.1051C23.9727 20.27 23.9775 19.4349 23.9818 18.5998C23.9819 18.5767 23.9798 18.5535 23.9788 18.5321C23.8399 18.5066 22.9626 18.5122 22.8628 18.5432C22.8628 19.3684 22.8628 20.199 22.8626 21.0535ZM19.518 19.2178C19.6517 19.3318 19.6154 19.4937 19.63 19.6385C19.7919 19.6614 20.5763 19.6551 20.6705 19.6276C20.6579 19.4993 20.6539 19.367 20.6305 19.2382C20.5637 18.8714 20.3528 18.6281 19.9919 18.5195C19.7517 18.4472 19.5059 18.4311 19.2571 18.4414C19.052 18.4498 18.8529 18.4852 18.6634 18.5678C18.3657 18.6977 18.1737 18.9176 18.0919 19.2327C18.0351 19.4516 18.0266 19.6735 18.0416 19.8984C18.0607 20.1847 18.1837 20.4108 18.4185 20.5738C18.5101 20.6374 18.6053 20.6974 18.7041 20.7488C18.8562 20.8279 19.0137 20.8967 19.1675 20.9726C19.264 21.0203 19.3595 21.0703 19.4527 21.1241C19.5288 21.1681 19.5757 21.2367 19.5931 21.3239C19.6147 21.4315 19.6144 21.5387 19.5765 21.6427C19.5349 21.757 19.4495 21.8135 19.3286 21.812C19.2086 21.8104 19.1213 21.7514 19.0855 21.6361C19.0679 21.5798 19.063 21.5189 19.0582 21.4596C19.0539 21.4049 19.0573 21.3495 19.0573 21.2886C18.6977 21.2886 18.348 21.2886 17.9805 21.2886C17.9873 21.4148 17.9881 21.5375 18.0013 21.659C18.049 22.0973 18.2907 22.3767 18.7192 22.4811C18.8503 22.513 18.9864 22.5314 19.1212 22.5395C19.4458 22.5589 19.7684 22.5418 20.079 22.4323C20.3919 22.3219 20.5921 22.1038 20.6823 21.7852C20.7372 21.5914 20.7535 21.3923 20.7479 21.192C20.7352 20.7321 20.5147 20.4062 20.1018 20.2085C20.0262 20.1723 19.9492 20.139 19.872 20.1066C19.7507 20.0556 19.6252 20.0131 19.5079 19.9542C19.4126 19.9064 19.3193 19.8484 19.2385 19.7793C19.1317 19.688 19.0937 19.56 19.1123 19.4214C19.1415 19.2043 19.299 19.1197 19.518 19.2178Z" fill="white"/>
<path d="M15.7542 20.3723C15.7667 20.0816 15.776 19.8023 15.7935 19.5236C15.7985 19.4453 15.8208 19.3662 15.8474 19.2918C15.8791 19.2032 15.9512 19.1684 16.0458 19.1686C16.1411 19.1688 16.2126 19.2054 16.2415 19.295C16.2682 19.3777 16.2887 19.465 16.2945 19.5514C16.3084 19.7584 16.3194 19.9661 16.3181 20.1734C16.3159 20.5566 16.3077 20.9398 16.2939 21.3227C16.2897 21.4371 16.2669 21.5528 16.2369 21.6636C16.2061 21.7771 16.1395 21.8144 16.0217 21.8123C15.9159 21.8105 15.8536 21.7751 15.826 21.671C15.7966 21.56 15.7747 21.4443 15.7706 21.3299C15.7592 21.0148 15.7588 20.6993 15.7542 20.3723Z" fill="white"/>
<path d="M12.9564 20.466C12.9427 20.8089 12.9315 21.1399 12.9133 21.4705C12.9092 21.5447 12.8867 21.6198 12.8614 21.6905C12.8273 21.7859 12.7494 21.8154 12.6512 21.8134C12.5538 21.8113 12.4894 21.7661 12.4624 21.6775C12.4382 21.5979 12.419 21.5149 12.4126 21.4322C12.3726 20.9139 12.3825 20.395 12.4022 19.8762C12.4074 19.7409 12.4212 19.6057 12.4345 19.4708C12.4392 19.4236 12.4508 19.3762 12.4655 19.331C12.5046 19.2115 12.5666 19.1677 12.6858 19.1697C12.7984 19.1717 12.8584 19.2132 12.8896 19.3337C12.9144 19.4295 12.9323 19.5293 12.9363 19.628C12.9477 19.9032 12.9504 20.1787 12.9564 20.466Z" fill="white"/>
<circle cx="20" cy="20" r="19.5" stroke="black" stroke-opacity="0.05"/>
</svg>
