<svg width="40" height="40" viewBox="0 0 40 40" fill="none" xmlns="http://www.w3.org/2000/svg">
<circle cx="20" cy="20" r="20" fill="#404048"/>
<g clip-path="url(#clip0_24563_41711)">
<path d="M18.4674 24.7985C21.3319 25.7468 23.972 24.0063 24.5685 21.2193C25.0588 18.9238 23.7948 16.4143 21.4855 15.6221C20.0621 15.1364 18.4851 15.3851 17.2921 16.2986C15.3962 17.7558 14.9118 20.1901 15.8273 22.3353C15.8273 23.9311 15.8273 25.5213 15.8273 27.1056C15.8273 28.0018 15.4257 28.7824 14.587 29.112C14.2799 29.2334 13.5711 29.2508 13.2581 29.1178C12.3544 28.7419 12.0001 27.9787 12.0001 27.0131C12.0119 23.8502 12.0119 20.803 12.0001 17.8772C11.9942 16.634 12.3485 15.518 13.2935 14.7201C13.5889 14.4657 14.1381 14.113 14.9414 13.6562C15.8214 13.1531 16.7251 12.6096 17.6642 12.0198C18.2725 11.6382 18.7982 11.4011 19.2529 11.297C20.1802 11.0889 21.0957 11.2508 21.9875 11.7943C23.1215 12.4824 24.3441 13.2109 25.6612 13.9858C26.3581 14.3963 26.8424 14.7548 27.1082 15.067C27.6575 15.7089 28.0001 16.4837 28.0001 17.3394C28.0001 19.1666 28.0001 21.0921 28.0001 23.1101C28.0001 23.9948 27.6162 24.8505 27.0137 25.4808C26.7479 25.7583 26.3522 26.0532 25.8207 26.3655C24.4209 27.1923 23.092 27.9845 21.834 28.7419C21.4087 29.0021 20.9894 29.1467 20.5877 29.1814C20.3397 29.2045 20.068 29.2103 19.7786 29.2103C18.999 29.2045 18.2252 28.8287 17.6228 28.3777C16.8373 27.7937 16.5302 26.7529 16.9436 25.8566C17.2153 25.2726 17.7173 24.9257 18.4615 24.8043L18.4674 24.7985Z" fill="#F1EB17"/>
<path d="M18.4671 24.7988C17.274 24.3131 16.394 23.492 15.8329 22.3356C14.9174 20.1904 15.4018 17.7561 17.2977 16.2989C18.4907 15.3853 20.0618 15.1367 21.4911 15.6224C23.8004 16.4146 25.0644 18.9241 24.5741 21.2196C23.9776 24.0066 21.3316 25.7528 18.473 24.7988H18.4671Z" fill="#05A55E"/>
</g>
<circle cx="20" cy="20" r="19.5" stroke="black" stroke-opacity="0.05"/>
<defs>
<clipPath id="clip0_24563_41711">
<rect width="16" height="18" fill="white" transform="translate(12 11.2104)"/>
</clipPath>
</defs>
</svg>
