<svg width="40" height="40" viewBox="0 0 40 40" fill="none" xmlns="http://www.w3.org/2000/svg">
<circle cx="20" cy="20" r="20" fill="#0D4D8B"/>
<path d="M9.58033 26.155C9.03019 25.9715 8.54416 25.6342 8.17973 25.1831C7.92181 24.8589 7.78321 24.4558 7.78719 24.0415C7.83744 22.3144 9.28199 20.9216 10.6292 19.8382C12.3876 18.4528 14.313 17.2939 16.3603 16.3885C18.781 15.2896 21.3183 14.4685 23.9238 13.9406C25.5335 13.6309 27.1753 13.5217 28.8118 13.6156C29.5086 13.6394 30.1941 13.7994 30.8294 14.0867C33.2239 15.1858 32.0479 17.4594 30.7462 18.7972C29.4401 20.135 27.9393 21.2678 26.2948 22.1573C25.8761 22.3866 25.4547 22.6179 25.0308 22.8514C24.6068 23.0848 24.1677 23.3051 23.7134 23.5124C22.1038 24.2426 20.4453 24.8601 18.7501 25.3605C17.1135 25.8496 15.4335 26.1793 13.7334 26.345C12.5232 26.4568 11.3044 26.4367 10.0985 26.2853C9.92129 26.2621 9.7474 26.2184 9.58033 26.155ZM12.8478 19.9261C14.3866 19.2588 18.8145 17.8771 20.1774 19.3672C20.6484 19.8869 20.2496 20.7128 19.8838 21.154C19.2306 21.9454 18.3115 22.6713 17.1266 23.3318C15.4802 24.2335 13.7083 24.8839 11.8696 25.2616C10.8561 25.4842 9.80767 25.497 8.78896 25.2992C8.5079 25.2443 8.48749 25.2992 8.72615 25.4563C9.17882 25.7355 9.70172 25.8798 10.2335 25.8724C11.5702 25.8945 12.9047 25.7542 14.2076 25.4547C17.0757 24.818 19.8061 23.6713 22.2689 22.0694C23.459 21.2953 25.7374 19.5901 25.5097 17.9461C25.4343 17.3966 24.8549 16.8674 24.3368 16.7403C23.6418 16.558 22.9261 16.4667 22.2076 16.4686C21.6189 16.4875 21.0318 16.54 20.449 16.6256C19.8682 16.7055 19.2917 16.8145 18.7218 16.9522C16.3166 17.5295 14.0075 18.4518 11.8665 19.6906C11.1317 20.1146 10.4125 20.6327 9.71693 21.1163C9.24379 21.445 8.80257 21.9684 8.39328 22.6865C8.3873 22.6971 8.38356 22.7089 8.38229 22.721C8.38229 22.743 8.38229 22.7571 8.40584 22.7619C8.42331 22.7682 8.4423 22.769 8.46027 22.7643C8.47823 22.7595 8.49431 22.7493 8.50633 22.7352C9.71693 21.4476 11.229 20.6264 12.8478 19.9261Z" fill="white"/>
<circle cx="20" cy="20" r="19.5" stroke="black" stroke-opacity="0.05"/>
</svg>
