<svg width="40" height="40" viewBox="0 0 40 40" fill="none" xmlns="http://www.w3.org/2000/svg">
<circle cx="20" cy="20" r="20" fill="#293C81"/>
<g clip-path="url(#clip0_14382_21119)">
<path d="M11.6754 20.1107C11.5963 21.5445 9.58057 21.646 8.62252 21.1739C7.81903 20.7773 7.64307 19.6787 8.28269 19.0512C8.84691 18.4953 9.74816 18.4041 10.4874 18.5977C11.3226 18.8165 11.7192 19.3212 11.6754 20.1107ZM10.6969 19.7392C10.6913 19.2774 10.3124 18.9078 9.85057 18.9134L9.7016 18.9152C9.23981 18.9208 8.87018 19.2997 8.87577 19.7615L8.88135 20.1861C8.88694 20.6479 9.26588 21.0175 9.72767 21.0119L9.87664 21.0101C10.3384 21.0045 10.7081 20.6256 10.7025 20.1638L10.6969 19.7392Z" fill="white"/>
<path d="M18.6119 20.3221L17.6082 20.3268C17.5756 20.3268 17.5486 20.2998 17.5486 20.2672V19.9395C17.5486 19.9106 17.5635 19.8957 17.5924 19.8957H19.4768C19.502 19.8957 19.5224 19.9162 19.5224 19.9413C19.5224 19.9423 19.5224 19.9432 19.5224 19.9441C19.4396 21.282 18.2022 21.5912 17.1073 21.3621C16.2908 21.1917 15.6586 20.5977 15.8234 19.7235C15.9063 19.2859 16.1716 18.9591 16.6194 18.744C17.4062 18.3669 18.6063 18.393 19.2403 19.1146C19.2664 19.1444 19.2627 19.1891 19.2338 19.2142C19.2236 19.2226 19.2115 19.2282 19.1984 19.231L18.6733 19.3157C18.6268 19.3231 18.5858 19.311 18.5495 19.2803C18.2385 19.0112 17.8521 18.9405 17.3913 19.0662C16.5533 19.2952 16.477 20.4879 17.2954 20.797C17.7963 20.9869 18.3726 20.878 18.6417 20.3715C18.65 20.3547 18.6445 20.3352 18.6277 20.3259C18.623 20.3231 18.6175 20.3221 18.6119 20.3221Z" fill="white"/>
<path d="M25.2716 18.6768C26.3777 18.216 28.4213 18.6554 28.0517 20.3285C27.8133 21.4113 26.414 21.5491 25.5025 21.3471C24.0193 21.0184 23.8834 19.255 25.2716 18.6768ZM27.116 19.7438C27.116 19.2839 26.7436 18.9115 26.2836 18.9115H26.1347C25.6747 18.9115 25.3023 19.2839 25.3023 19.7438V20.1814C25.3023 20.6413 25.6747 21.0138 26.1347 21.0138H26.2836C26.7436 21.0138 27.116 20.6413 27.116 20.1814V19.7438Z" fill="white"/>
<path d="M29.4548 18.6556C30.6269 18.2012 32.5859 18.7282 32.1613 20.3985C31.7907 21.8509 28.5637 21.8081 28.4474 20.135C28.398 19.4283 28.7341 18.9349 29.4548 18.6556ZM31.2377 19.7402C31.2349 19.2803 30.8606 18.9097 30.4007 18.9125H30.2499C29.7899 18.9153 29.4194 19.2905 29.4222 19.7505L29.424 20.1862C29.4268 20.6461 29.8011 21.0167 30.261 21.0139H30.4119C30.8718 21.0111 31.2424 20.6359 31.2396 20.176L31.2377 19.7402Z" fill="white"/>
<path d="M4 18.6732C4 18.6434 4.02421 18.6192 4.054 18.6182L6.2522 18.6145C6.99424 18.6126 7.59756 19.1666 7.59942 19.8519C7.59942 19.8519 7.59942 19.8519 7.59942 19.8528V20.0744C7.59942 20.7587 6.99983 21.3145 6.25778 21.3164L4.05959 21.3201C4.02886 21.3201 4.00466 21.2968 4.00372 21.2661C4.00372 21.2661 4.00372 21.2661 4.00372 21.2652L4 18.6732ZM4.83142 19.1759L4.82956 20.7643C4.82956 20.7857 4.84725 20.8034 4.86866 20.8043L5.8295 20.8062C6.24847 20.8071 6.58923 20.4561 6.59017 20.0222V19.9254C6.5911 19.4916 6.2522 19.1387 5.83323 19.1378L4.87239 19.1359C4.85004 19.1359 4.83235 19.1527 4.83142 19.175C4.83142 19.175 4.83142 19.175 4.83142 19.1759Z" fill="white"/>
<path d="M14.9203 18.6211H15.3505C15.3682 18.6211 15.383 18.636 15.383 18.6537L15.3812 21.2783C15.3812 21.296 15.3663 21.3109 15.3486 21.3109L14.3682 21.3127C14.3598 21.3127 14.3515 21.309 14.3449 21.3025L12.5536 19.4432C12.5406 19.4302 12.5201 19.4302 12.508 19.4432C12.5015 19.4497 12.4977 19.4581 12.4977 19.4674L12.5098 21.2829C12.5098 21.3006 12.4949 21.3155 12.4773 21.3155H12.0397C12.022 21.3146 12.0071 21.2997 12.0071 21.282L12.0117 18.6546C12.0117 18.6369 12.0266 18.622 12.0443 18.622L13.0275 18.6257C13.0359 18.6257 13.0452 18.6295 13.0508 18.636L14.8402 20.4767C14.8533 20.4897 14.8738 20.4897 14.8859 20.4767C14.8924 20.4701 14.8961 20.4618 14.8961 20.4525L14.8877 18.6537C14.8877 18.636 14.9026 18.6211 14.9203 18.6211Z" fill="white"/>
<path d="M20.6955 20.3631C20.7076 20.3715 20.7244 20.3678 20.7337 20.3557C20.7346 20.3538 20.7356 20.3519 20.7365 20.3491L21.3454 18.6714C21.3584 18.636 21.3845 18.6183 21.4227 18.6183H22.0921C22.134 18.6183 22.161 18.6379 22.1749 18.677L22.7308 20.2868C22.7634 20.3789 22.796 20.3799 22.8295 20.2877L23.4319 18.6407C23.4365 18.6267 23.4495 18.6174 23.4644 18.6174H24.2111C24.2223 18.6174 24.2307 18.6267 24.2307 18.6379C24.2307 18.6397 24.2307 18.6425 24.2298 18.6444L23.2745 21.2402C23.2568 21.2886 23.2112 21.3202 23.16 21.3202H22.6759C22.6386 21.3212 22.606 21.2979 22.5939 21.2634L21.944 19.4255C21.918 19.352 21.8919 19.352 21.8649 19.4255L21.1974 21.2699C21.1852 21.3025 21.161 21.3193 21.1266 21.3202L20.6192 21.3239C20.5745 21.3239 20.5344 21.296 20.5196 21.2541L19.5922 18.6444C19.5885 18.636 19.5922 18.6258 19.6025 18.6221C19.6043 18.6221 19.6062 18.6211 19.6081 18.6211L20.054 18.6118C20.0726 18.6118 20.0848 18.6193 20.0903 18.637C20.2775 19.1686 20.4711 19.7328 20.6694 20.3296C20.6741 20.3436 20.6834 20.3547 20.6955 20.3631Z" fill="white"/>
<path d="M35.541 18.6211H35.9711C35.9869 18.622 36 18.6351 36 18.6509V21.2764C36 21.2923 35.9869 21.3053 35.9711 21.3053H34.987C34.9795 21.3062 34.9721 21.3034 34.9665 21.2978L33.1659 19.4395C33.1547 19.4283 33.1361 19.4283 33.1249 19.4395C33.1193 19.4451 33.1165 19.4525 33.1165 19.46L33.1193 21.2783C33.1193 21.2941 33.1063 21.3072 33.0904 21.3072L32.664 21.3118C32.6482 21.3118 32.6352 21.2988 32.6352 21.2829L32.6333 18.6518C32.6333 18.636 32.6463 18.623 32.6622 18.623L33.6472 18.6313C33.6547 18.6313 33.6621 18.6341 33.6677 18.6397L35.473 20.5046C35.4832 20.5167 35.5018 20.5176 35.514 20.5065C35.5205 20.5009 35.5242 20.4925 35.5233 20.4841L35.5121 18.65C35.5121 18.6341 35.5251 18.6211 35.541 18.6211Z" fill="white"/>
</g>
<circle cx="20" cy="20" r="19.5" stroke="black" stroke-opacity="0.05"/>
<defs>
<clipPath id="clip0_14382_21119">
<rect width="32" height="2.9421" fill="white" transform="translate(4 18.5)"/>
</clipPath>
</defs>
</svg>
