<svg width="40" height="40" viewBox="0 0 40 40" fill="none" xmlns="http://www.w3.org/2000/svg">
<circle cx="20" cy="20" r="20" fill="#005D71"/>
<path d="M4.99997 26.2842C5.10338 26.2059 5.08665 26.0857 5.11198 25.9898C5.33878 25.1332 5.55791 24.2753 5.77844 23.4155C5.94575 22.7613 6.10376 22.1042 6.2827 21.4524C6.33614 21.2562 6.35613 21.0506 6.47952 20.8696C6.72654 20.5061 7.29284 20.4571 7.61329 20.7399C7.7741 20.8821 7.83126 21.0689 7.88169 21.2648C8.07998 22.0317 8.27921 22.7985 8.47936 23.5654C8.50864 23.6783 8.52816 23.7936 8.55837 23.906C8.56442 23.9293 8.56837 23.9757 8.60857 23.9697C8.63552 23.9665 8.64226 23.9367 8.6497 23.9081C8.84954 23.118 9.04916 22.328 9.25504 21.54C9.29501 21.3873 9.32964 21.233 9.37472 21.0822C9.54482 20.5126 10.2578 20.4083 10.6296 20.755C10.8052 20.9177 10.8468 21.1294 10.9014 21.3387C11.0941 22.0763 11.2818 22.815 11.4708 23.5535C11.6383 24.2081 11.804 24.8637 11.9725 25.518C12.0547 25.8376 12.1416 26.1559 12.2281 26.4836C11.8379 26.4836 11.455 26.4836 11.072 26.4836C11.0121 26.4836 11.0055 26.4415 10.996 26.4032C10.8334 25.7432 10.6779 25.0809 10.5131 24.4212C10.4002 23.9695 10.3007 23.5149 10.1839 23.063C10.1753 23.0297 10.1822 22.9812 10.1423 22.9788C10.0909 22.9758 10.1004 23.0386 10.0932 23.0658C9.97983 23.494 9.8734 23.9256 9.76372 24.3536C9.59827 25.0015 9.43173 25.6488 9.26411 26.2956C9.21554 26.4836 9.21275 26.4829 9.01848 26.4829C8.70872 26.4829 8.39873 26.4806 8.08897 26.4847C8.01926 26.4847 7.98928 26.4629 7.97278 26.3955C7.85938 25.944 7.7418 25.4934 7.62607 25.0424C7.45442 24.3734 7.28254 23.7043 7.11043 23.0349C7.10088 23.0114 7.08864 22.9892 7.07394 22.9686C6.99447 23.0441 7.00121 23.1492 6.9789 23.2375C6.83576 23.8019 6.70005 24.3682 6.56411 24.9338C6.44311 25.4349 6.32507 25.9362 6.20996 26.438C6.1937 26.5098 6.14722 26.4812 6.11352 26.4815C5.74962 26.4829 5.38572 26.4829 5.01159 26.4829C5.00198 26.4171 4.99809 26.3506 4.99997 26.2842Z" fill="white"/>
<path d="M15.3058 13.3999C15.3167 14.1307 15.3167 14.8618 15.3167 15.6075C15.5423 15.4276 15.7721 15.2884 16.0477 15.2292C16.3295 15.1645 16.6245 15.1912 16.8901 15.3054C17.4815 15.5571 17.8038 16.0337 17.993 16.6265C18.0873 16.9223 18.1092 17.2218 18.1071 17.5279C18.1037 18.225 18.1037 18.9221 18.1071 19.6193C18.1071 19.698 18.0915 19.7241 18.0072 19.7227C17.6628 19.7176 17.3182 19.7176 16.9735 19.7227C16.892 19.7227 16.8713 19.7029 16.8715 19.6211C16.875 18.9087 16.8808 18.196 16.8715 17.4832C16.8648 16.985 16.5841 16.5189 16.117 16.3678C15.7852 16.26 15.4863 16.441 15.3269 16.6799C15.3037 16.7145 15.3171 16.7552 15.3171 16.7929C15.3171 17.7298 15.3148 18.667 15.319 19.6046C15.319 19.7013 15.2958 19.7259 15.1993 19.7241C14.8664 19.7174 14.5333 19.7174 14.2001 19.7241C14.1002 19.7262 14.0823 19.6962 14.0825 19.6025C14.0853 17.5425 14.0846 15.4825 14.0846 13.4115C14.489 13.3999 14.8924 13.3999 15.3058 13.3999Z" fill="white"/>
<path d="M13.8186 13.3999C13.8296 13.8026 13.8275 14.2053 13.8314 14.6083C13.8314 14.6852 13.8103 14.7054 13.7352 14.7035C13.534 14.6982 13.3325 14.701 13.131 14.7017C12.5438 14.7038 12.0358 14.8966 11.6438 15.3444C11.3913 15.6281 11.236 15.9851 11.2004 16.3632C11.1375 16.9983 11.3631 17.519 11.8278 17.9338C12.1355 18.2092 12.5055 18.3698 12.9291 18.3728C13.2 18.3749 13.4712 18.376 13.7424 18.3714C13.8158 18.37 13.8319 18.3918 13.8312 18.462C13.8278 18.853 13.8278 19.2441 13.8312 19.6353C13.8312 19.7111 13.8065 19.7229 13.7382 19.7224C13.2386 19.7199 12.739 19.7273 12.2399 19.718C12.0402 19.7143 11.8476 19.6513 11.6589 19.5821C11.3096 19.4524 10.996 19.2419 10.7436 18.9679C10.3667 18.565 10.1129 18.0888 9.97115 17.5551C9.90492 17.3057 9.85659 17.0531 9.85496 16.7936C9.85055 16.3883 9.85728 15.987 9.96627 15.5894C10.098 15.1095 10.306 14.6759 10.6232 14.2911C10.9404 13.9063 11.3227 13.6353 11.7965 13.4896C11.8825 13.4631 11.9696 13.4413 12.0595 13.409C12.6456 13.3999 13.227 13.3999 13.8186 13.3999Z" fill="white"/>
<path d="M21.4405 26.5525C21.4296 25.0811 21.4305 23.6097 21.4272 22.1373C21.4272 22.0409 21.4505 22.0158 21.5467 22.0177C21.8911 22.0242 22.2356 22.0242 22.5803 22.0177C22.6705 22.0163 22.6865 22.0432 22.6863 22.1271C22.6837 23.5948 22.6844 25.0623 22.6844 26.5407C22.2726 26.5525 21.8616 26.5525 21.4405 26.5525Z" fill="white"/>
<path d="M27.6104 15.352C27.8697 15.352 28.1177 15.3543 28.3654 15.3503C28.4323 15.3503 28.449 15.3703 28.4483 15.4349C28.4453 15.7563 28.4439 16.0779 28.4483 16.3991C28.4495 16.4795 28.4216 16.492 28.35 16.492C27.5795 16.4897 26.8089 16.4897 26.0383 16.492C25.9366 16.492 25.8292 16.4997 25.7595 16.5898C25.7265 16.6294 25.7058 16.6777 25.7 16.7289C25.6942 16.7801 25.7036 16.8319 25.7269 16.8778C25.7802 16.9921 25.8873 17.0239 26.0019 17.0244C26.5052 17.0265 27.0085 17.0244 27.5123 17.0258C27.7821 17.0258 28.0105 17.139 28.2094 17.3116C28.5947 17.6469 28.7316 18.088 28.6742 18.5769C28.6138 19.0944 28.3517 19.4918 27.852 19.6998C27.7554 19.7425 27.6512 19.7656 27.5455 19.7676C26.5891 19.7676 25.6326 19.7658 24.6761 19.7699C24.5813 19.7699 24.5632 19.7414 24.5646 19.6537C24.5699 19.3556 24.5709 19.0572 24.5646 18.7593C24.5625 18.6585 24.5827 18.6245 24.6933 18.6252C25.5568 18.6306 26.4204 18.6285 27.2839 18.628C27.4047 18.628 27.5028 18.5627 27.5348 18.4575C27.5695 18.3434 27.5063 18.2667 27.4259 18.2005C27.3817 18.1637 27.3285 18.1637 27.2734 18.1637C26.8087 18.1637 26.3439 18.1582 25.8792 18.1661C25.3198 18.1758 24.8762 17.8384 24.6866 17.3311C24.4995 16.8308 24.5409 16.3368 24.8467 15.8888C25.0828 15.5428 25.4174 15.3543 25.8438 15.3531C26.4294 15.3506 27.0141 15.352 27.6104 15.352Z" fill="white"/>
<path d="M19.6397 18.3728C19.6397 18.7986 19.6376 19.2127 19.6415 19.6277C19.6415 19.7037 19.6216 19.7241 19.5458 19.7232C19.1974 19.719 18.8488 19.719 18.5001 19.7232C18.422 19.7232 18.4058 19.7 18.4058 19.6265C18.4079 18.1711 18.4079 16.7157 18.4058 15.2604C18.4058 15.1846 18.4255 15.1639 18.5013 15.1649C18.8457 15.1691 19.1903 15.1702 19.5347 15.1649C19.6239 15.1632 19.6413 15.1881 19.6411 15.2736C19.6385 16.3021 19.6397 17.3316 19.6397 18.3728Z" fill="white"/>
<path d="M19.268 14.8175C19.0012 14.8175 18.7458 14.8154 18.4907 14.8189C18.4258 14.8189 18.4058 14.8022 18.4068 14.7357C18.4102 14.4652 18.4102 14.1946 18.4068 13.9238C18.4068 13.8587 18.4242 13.8394 18.49 13.8401C18.8463 13.843 19.202 13.843 19.5573 13.8401C19.6221 13.8401 19.6421 13.8568 19.6412 13.9233C19.6378 14.1938 19.6378 14.4644 19.6412 14.7352C19.6412 14.8003 19.624 14.8226 19.5577 14.8189C19.4655 14.8135 19.3725 14.8175 19.268 14.8175Z" fill="white"/>
<path d="M22.684 20.9056C22.684 21.1336 22.6814 21.3501 22.6856 21.5667C22.6856 21.6332 22.6661 21.6501 22.6013 21.6497C22.2378 21.6467 21.8744 21.6467 21.511 21.6497C21.445 21.6497 21.4268 21.6309 21.4278 21.5658C21.4312 21.3024 21.4312 21.0395 21.4278 20.7771C21.4278 20.7104 21.4475 20.6937 21.5121 20.6941C21.8607 20.6972 22.2093 20.7002 22.5562 20.6928C22.6626 20.6904 22.7026 20.7202 22.6847 20.8245C22.6826 20.8515 22.6823 20.8786 22.684 20.9056Z" fill="white"/>
<path d="M29.9207 22.5501C29.8068 22.555 29.7022 22.5559 29.5976 22.5552C29.5744 22.5552 29.5396 22.5669 29.5396 22.5213C29.5396 22.4883 29.5614 22.4844 29.586 22.4865C29.6699 22.4934 29.679 22.4363 29.679 22.3759C29.679 22.1244 29.679 21.8728 29.679 21.6211C29.679 21.5514 29.6499 21.5112 29.5777 21.5102C29.5465 21.5102 29.5377 21.4947 29.5405 21.467C29.5433 21.4394 29.5637 21.4408 29.5825 21.4408C29.6599 21.4408 29.7373 21.4431 29.8149 21.4394C29.8588 21.4373 29.8563 21.4652 29.8695 21.4935C29.9925 21.7545 30.1189 22.0136 30.2495 22.2836C30.3987 22.0291 30.5079 21.7686 30.6259 21.513C30.6529 21.4542 30.6759 21.438 30.7312 21.4396C30.7969 21.4417 30.8627 21.4396 30.9287 21.4396C30.9499 21.4396 30.977 21.4336 30.9796 21.4689C30.9819 21.4989 30.9668 21.5093 30.9385 21.5089C30.8488 21.5077 30.8385 21.5625 30.8397 21.6371C30.843 21.8811 30.842 22.1251 30.8397 22.3689C30.8397 22.4386 30.842 22.4958 30.935 22.4851C30.961 22.482 30.9798 22.4902 30.9794 22.522C30.9794 22.5576 30.9529 22.5539 30.9308 22.5541C30.8109 22.5541 30.6909 22.5541 30.5708 22.5541C30.5455 22.5541 30.5134 22.5611 30.5158 22.5171C30.5176 22.4832 30.5413 22.4841 30.5648 22.4848C30.6052 22.4848 30.6517 22.4848 30.6524 22.4335C30.6557 22.2118 30.6538 21.9901 30.6538 21.7363C30.5697 21.8358 30.5492 21.9269 30.5109 22.0089C30.4326 22.1758 30.3531 22.3422 30.2699 22.5069C30.2576 22.5313 30.2783 22.5857 30.2176 22.5783C30.1732 22.5727 30.167 22.5341 30.1535 22.5053C30.0478 22.2808 29.9457 22.0547 29.8391 21.8314C29.8261 21.8044 29.8242 21.7617 29.7717 21.7519C29.7717 21.9546 29.7668 22.1539 29.7745 22.3528C29.777 22.4198 29.7903 22.5034 29.9004 22.4881C29.9427 22.482 29.933 22.5195 29.9207 22.5501Z" fill="white"/>
<path d="M28.7954 21.9514C28.8054 22.1085 28.7784 22.2547 28.8096 22.4001C28.8221 22.4582 28.8307 22.5029 28.9058 22.4868C28.9334 22.4808 28.9615 22.4868 28.9571 22.5273C28.9532 22.5617 28.9262 22.5551 28.9051 22.5551C28.7776 22.5551 28.65 22.5551 28.5224 22.5551C28.501 22.5551 28.4743 22.561 28.471 22.5263C28.4668 22.4847 28.4956 22.4824 28.5233 22.4866C28.6183 22.5005 28.6299 22.4299 28.6309 22.3688C28.6351 22.1097 28.6309 21.8508 28.6334 21.5917C28.6334 21.5466 28.6179 21.5357 28.5739 21.5315C28.481 21.5227 28.3925 21.5578 28.3009 21.5564C28.2498 21.5564 28.2637 21.5933 28.2609 21.6214C28.2567 21.663 28.2512 21.7144 28.2024 21.7144C28.1378 21.7144 28.1705 21.6556 28.1696 21.6249C28.164 21.439 28.1659 21.439 28.3555 21.439C28.6183 21.439 28.8814 21.4439 29.144 21.4365C29.2411 21.4337 29.2774 21.4597 29.2616 21.5562C29.2555 21.5931 29.2615 21.6303 29.2409 21.667C29.2288 21.6891 29.2369 21.7225 29.196 21.717C29.1551 21.7114 29.166 21.6756 29.1688 21.6535C29.1821 21.5515 29.1258 21.532 29.0403 21.5311C28.7959 21.528 28.7959 21.5264 28.7959 21.7648L28.7954 21.9514Z" fill="white"/>
<path d="M15.3905 24.5889C15.4037 24.686 15.3498 24.7606 15.2769 24.831C15.2938 24.746 15.3408 24.6702 15.3905 24.5889Z" fill="white"/>
<path d="M15.2397 24.8562C15.2459 24.8808 15.2536 24.9122 15.2071 24.9238C15.1971 24.8966 15.2129 24.8769 15.2397 24.8562Z" fill="white"/>
<path d="M16.523 24.8731C16.5163 24.8768 16.5112 24.8731 16.5054 24.864C16.5103 24.8624 16.517 24.8647 16.523 24.8731Z" fill="white"/>
<path d="M23.876 16.0011C23.6146 15.6965 23.2703 15.4744 22.8851 15.3619C22.299 15.1869 21.7288 15.2431 21.1734 15.5499C21.1734 15.4411 21.1678 15.3493 21.175 15.2585C21.1813 15.1794 21.1518 15.1634 21.0781 15.1643C20.7491 15.1681 20.4198 15.166 20.0907 15.166C19.9186 15.166 19.9186 15.166 19.9186 15.3324V22.1738C18.6535 21.5285 17.5715 22.1345 17.0952 22.791C16.4891 23.6276 16.4605 24.7771 17.1663 25.6643C17.4397 26.0104 17.8168 26.2598 18.2422 26.3761C18.8231 26.5388 19.3808 26.4744 19.9186 26.1816C19.9186 26.3136 19.9186 26.4331 19.9295 26.5534C20.3512 26.5534 20.7623 26.5534 21.1734 26.5425V19.541C21.4062 19.6835 21.6668 19.7746 21.9377 19.8082C22.2054 19.8443 22.4774 19.8315 22.7406 19.7705C23.0092 19.7076 23.2518 19.5909 23.4791 19.4452C23.7062 19.2955 23.9002 19.1009 24.0493 18.8733C24.5986 18.0572 24.6305 16.8793 23.876 16.0011ZM19.7961 24.9911C19.5316 25.2842 19.2042 25.4257 18.8103 25.3885C18.5914 25.3676 18.3841 25.2806 18.2157 25.1392C17.9663 24.9335 17.8072 24.6679 17.7639 24.3491C17.7175 23.9966 17.8104 23.6729 18.0428 23.3963C18.1097 23.3231 18.1803 23.2533 18.2543 23.1872C18.7032 22.903 19.1454 22.887 19.5872 23.1816C19.6969 23.2548 19.7803 23.3566 19.8679 23.4533C19.909 23.4997 19.9206 23.5557 19.9199 23.6208C19.916 23.9766 19.9114 24.3328 19.9216 24.6884C19.9258 24.8176 19.8744 24.9045 19.7961 24.9911ZM23.0157 18.3779C22.7787 18.6335 22.487 18.7697 22.1533 18.7625C21.7443 18.7537 21.4181 18.5638 21.1904 18.2159C21.1655 18.1781 21.1743 18.142 21.1743 18.1056C21.1729 17.7688 21.1829 17.4317 21.1692 17.0961C21.1644 17.0245 21.1752 16.9528 21.2009 16.8858C21.2265 16.8188 21.2664 16.7581 21.3177 16.708C21.558 16.4603 21.8536 16.313 22.1982 16.3325C22.7452 16.3632 23.1974 16.7352 23.3124 17.3183C23.391 17.7196 23.2778 18.0649 23.0157 18.3779Z" fill="white"/>
<path d="M27.4264 22.0352C27.4264 21.9516 27.411 21.9235 27.3206 21.9256C27.0304 21.9323 26.7397 21.9277 26.4495 21.9284C26.3609 21.9284 26.2443 21.8984 26.1913 21.9428C26.1281 21.9955 26.1785 22.1166 26.1697 22.2077C26.1697 22.2186 26.1673 22.2295 26.166 22.2435C26.1549 22.2401 26.1441 22.2361 26.1334 22.2316C25.8508 22.0873 25.5422 22.0008 25.2257 21.9772C24.9594 21.9618 24.6927 21.999 24.4408 22.0868C24.0535 22.2112 23.7092 22.4422 23.4471 22.7533C23.0774 23.192 22.9078 23.6993 22.8943 24.2638C22.8913 24.4502 22.9148 24.6362 22.964 24.8161C23.1704 25.593 23.6379 26.137 24.3976 26.423C24.5444 26.4785 24.7064 26.4732 24.8551 26.5517C24.9008 26.5527 24.9465 26.5509 24.992 26.5464H25.0034L24.9962 26.5524C25.0637 26.5538 25.1313 26.5513 25.1986 26.545C25.2083 26.547 25.2179 26.5495 25.2274 26.5524C25.2577 26.5534 25.288 26.5516 25.318 26.5473C25.5778 26.5425 25.8123 26.4693 26.0384 26.3614C26.1095 26.3275 26.1469 26.3275 26.142 26.4205C26.1397 26.4669 26.1362 26.5134 26.1829 26.5522C26.6047 26.5522 27.0158 26.5522 27.4268 26.5413C27.4245 25.0322 27.4238 23.5336 27.4264 22.0352ZM26.1687 24.8368C26.1671 25.0097 26.0333 25.1038 25.9206 25.2019C25.7297 25.3704 25.4863 25.4676 25.2318 25.477C24.9728 25.489 24.7179 25.4097 24.5114 25.253C24.2851 25.0854 24.123 24.8454 24.0522 24.5728C23.953 24.1971 24.029 23.8569 24.2433 23.5411C24.3242 23.4263 24.4242 23.3263 24.5388 23.2452C24.7524 23.127 24.9666 23.0303 25.209 23.0447C25.5983 23.0679 25.9082 23.2418 26.1367 23.5583C26.1617 23.5968 26.1736 23.6423 26.1706 23.6882C26.1687 24.0709 26.172 24.4538 26.1687 24.8368Z" fill="white"/>
<path d="M34.992 19.7647C34.9121 19.6344 34.8357 19.5091 34.7694 19.3778C34.4931 18.832 34.235 18.2773 33.9375 17.7419C33.8936 17.6624 33.9015 17.6171 33.968 17.5532C34.1827 17.3491 34.3536 17.1034 34.4701 16.831C34.4994 16.7612 34.482 16.7257 34.4367 16.6813C34.2821 16.5291 34.1255 16.3792 33.978 16.22C33.9082 16.1447 33.8759 16.1643 33.8434 16.2433C33.7591 16.4524 33.6201 16.6174 33.4514 16.7664C33.2353 16.3395 33.0219 15.9184 32.8093 15.4973C32.747 15.3739 32.7703 15.3042 32.9009 15.2631C33.0127 15.2258 33.1302 15.2084 33.2481 15.2117C33.2931 15.2136 33.3289 15.2155 33.3282 15.149C33.325 14.8392 33.3266 14.5293 33.3282 14.2195C33.3282 14.1809 33.3187 14.1521 33.2755 14.1433C32.9183 14.0702 32.5562 14.0236 32.1921 14.0038C31.966 13.9915 31.7415 14.0178 31.5182 14.0473C31.0019 14.1152 30.5422 14.2892 30.1867 14.6912C29.922 14.9903 29.8614 15.3289 29.9543 15.7074C30.0066 15.9224 30.1293 16.1064 30.2099 16.3093C30.2241 16.3451 30.2564 16.3767 30.2099 16.418C30.0598 16.5486 29.9099 16.6799 29.7668 16.8182C29.6174 16.9625 29.4566 17.097 29.3336 17.2662C29.1644 17.499 29.0587 17.7719 29.0269 18.0579C28.9986 18.2915 29.0237 18.5284 29.1001 18.7509C29.2163 19.0994 29.434 19.3762 29.7192 19.6046C30.0696 19.8853 30.4628 20.0029 30.912 19.9546C31.183 19.9292 31.443 19.8344 31.6667 19.6792C31.7943 19.5904 31.7957 19.5925 31.8659 19.7329C31.8697 19.744 31.8726 19.7554 31.8745 19.7671C31.9033 19.86 31.9623 19.8874 32.0618 19.887C33.0415 19.8828 34.0212 19.8844 35.0009 19.8746C35.0022 19.8378 34.9993 19.8009 34.992 19.7647ZM34.5041 19.7671C33.7103 19.7671 32.9164 19.7652 32.1226 19.7698C32.035 19.7698 31.9923 19.7422 31.9614 19.6674C31.9305 19.5925 31.887 19.5186 31.8538 19.4427C31.8331 19.3962 31.8168 19.382 31.7748 19.4245C31.5638 19.6376 31.307 19.7573 31.0142 19.8219C30.6624 19.8995 30.331 19.8389 30.0298 19.6695C29.6199 19.4389 29.3211 19.0978 29.1872 18.6365C29.0455 18.1485 29.1443 17.6973 29.4612 17.3055C29.7024 17.0076 30.0064 16.771 30.2931 16.5172C30.37 16.4494 30.3828 16.3955 30.3396 16.2923C30.2369 16.0518 30.0893 15.8313 30.0454 15.5619C30.0027 15.3 30.0547 15.0705 30.2048 14.8648C30.4988 14.4628 30.9201 14.2767 31.3965 14.1886C31.6521 14.1421 31.9109 14.1089 32.1707 14.1221C32.4972 14.1373 32.8222 14.1762 33.143 14.2383C33.1911 14.2478 33.2151 14.2771 33.2127 14.3357C33.2081 14.5641 33.2099 14.7928 33.2127 15.0212C33.2127 15.0705 33.2078 15.1074 33.146 15.0956C33.1051 15.0877 33.0726 15.1134 33.025 15.1188C32.9575 15.1202 32.8911 15.1351 32.8295 15.1627C32.6497 15.2408 32.6032 15.3658 32.6901 15.5399C32.9116 15.9777 33.1356 16.4143 33.3542 16.8537C33.3991 16.9439 33.44 16.9362 33.5065 16.8814C33.5954 16.81 33.677 16.73 33.75 16.6425C33.8227 16.5533 33.8743 16.4536 33.9419 16.3434C34.0581 16.4996 34.1959 16.6265 34.3277 16.7582C34.3762 16.807 34.3356 16.8449 34.3163 16.8809C34.1905 17.1211 34.0223 17.3365 33.8197 17.5167C33.7446 17.582 33.743 17.6354 33.7895 17.72C34.0893 18.2666 34.3523 18.832 34.6365 19.3864C34.6999 19.51 34.7725 19.629 34.8329 19.7666L34.5041 19.7671Z" fill="white"/>
<path d="M16.4933 24.8582C16.1215 24.7653 15.759 24.6747 15.3981 24.5919C15.3546 24.6765 15.3326 24.7662 15.2628 24.8334C15.2575 24.8356 15.2529 24.8392 15.2494 24.8438C15.246 24.8485 15.2438 24.8539 15.2431 24.8596C15.2339 24.8874 15.2157 24.9113 15.1915 24.9277C14.8262 25.3121 14.3951 25.3795 13.9134 25.2221C13.8941 25.2159 13.8539 25.2145 13.8565 25.1789C13.8565 25.164 13.8762 25.1462 13.8913 25.1371C14.3659 24.8531 14.8407 24.5699 15.3158 24.2875C15.681 24.0699 16.0463 23.8521 16.4119 23.6343C16.5049 23.5795 16.5339 23.5209 16.4893 23.407C16.2751 22.8593 15.946 22.4231 15.3939 22.1726C15.1569 22.0651 14.9315 21.9484 14.6638 21.9217C14.417 21.8973 14.1714 21.8878 13.9325 21.9386C13.4122 22.0495 12.9718 22.3018 12.6286 22.7201C12.3349 23.0782 12.1576 23.487 12.1157 23.9408C12.0693 24.4362 12.1466 24.9147 12.4067 25.356C12.6874 25.8321 13.075 26.1774 13.5937 26.3647C13.913 26.4809 14.2413 26.5304 14.5873 26.4879C14.8824 26.4532 15.1688 26.3655 15.4327 26.229C15.7164 26.0822 15.9418 25.8714 16.1401 25.6249C16.3172 25.4032 16.446 25.1469 16.5179 24.8724C16.5115 24.8651 16.5028 24.8601 16.4933 24.8582ZM13.2814 24.2111C13.2546 24.0761 13.3013 23.9566 13.3346 23.8281C13.4521 23.4914 13.692 23.2888 14.0022 23.1609C14.2636 23.0531 14.5255 23.0694 14.7818 23.1842C14.8067 23.1951 14.8485 23.196 14.849 23.233C14.849 23.2618 14.8155 23.2681 14.7927 23.282C14.2929 23.5881 13.7937 23.8955 13.2814 24.2111Z" fill="white"/>
<path d="M31.415 18.5204C31.3241 18.3345 31.2326 18.1486 31.1422 17.9627C30.9946 17.6578 30.8468 17.3529 30.7007 17.0469C30.6774 17.0004 30.646 17.0074 30.6226 17.0288C30.5619 17.0841 30.4764 17.1147 30.4385 17.2061C30.4127 17.2398 30.3921 17.2665 30.3735 17.2951C30.2108 17.5474 30.1627 17.8212 30.2436 18.11C30.3021 18.3192 30.4397 18.4818 30.6054 18.6106C30.8254 18.7814 31.0783 18.8171 31.3422 18.7151C31.4608 18.6689 31.4708 18.6345 31.415 18.5204ZM31.2356 18.6275C30.9955 18.7028 30.7011 18.5769 30.554 18.384C30.4892 18.2994 30.4239 18.2169 30.3744 18.1123C30.2431 17.7775 30.3937 17.4075 30.6233 17.1898C30.7023 17.306 30.7474 17.4371 30.8073 17.5616C30.963 17.8841 31.1201 18.2062 31.2811 18.526C31.3134 18.5894 31.2886 18.611 31.2356 18.6285V18.6275Z" fill="white"/>
<circle cx="20" cy="20" r="19.5" stroke="black" stroke-opacity="0.05"/>
</svg>
