<svg width="40" height="40" viewBox="0 0 40 40" fill="none" xmlns="http://www.w3.org/2000/svg">
<circle cx="20" cy="20" r="20" fill="#084A9D"/>
<path d="M27.9661 17.2285C29.192 17.7519 29.8629 19.059 29.6023 20.4033C29.3504 21.7003 28.2076 22.6339 26.8766 22.6299C25.5628 22.626 24.4342 21.6773 24.1873 20.3583C24.1483 20.149 24.151 19.9312 24.1334 19.7179C24.0625 18.8435 23.3822 18.157 22.5666 18.1362C21.6701 18.1137 20.9502 18.7326 20.8314 19.6279C20.7225 20.4511 21.2785 21.2564 22.1079 21.464C22.5671 21.5788 23.0027 21.4989 23.3904 21.226C23.5306 21.1269 23.5994 21.1421 23.6945 21.2738C23.8304 21.4612 23.9745 21.6446 24.134 21.8112C24.2627 21.9457 24.2236 22.0143 24.0955 22.1128C22.5314 23.3187 20.1269 22.3519 19.7749 20.3724C19.5087 18.875 20.3397 17.5195 21.7785 17.0969C21.8434 17.0777 22.1843 16.9455 22.9598 17.0153C24.3572 17.1914 25.3026 18.3843 25.3252 19.8946C25.3351 20.5513 25.9307 21.2474 26.5252 21.3937C27.1984 21.5597 27.915 21.2485 28.2867 20.6076C28.6211 20.0314 28.5216 19.2261 28.0514 18.709C27.5965 18.2082 26.8288 18.0726 26.2073 18.3832C25.9191 18.5273 25.672 18.4695 25.466 18.2099C25.4374 18.1733 25.4082 18.1379 25.378 18.1024C25.0271 17.6843 25.0403 17.6033 25.4935 17.3191C25.7795 17.1396 26.0979 17.0704 26.4224 17.0164C27.2743 16.9072 27.7687 17.1453 27.9661 17.2297V17.2285Z" fill="white"/>
<path d="M34.9395 22.6204C34.5463 22.6233 34.1525 22.6188 33.7599 22.6334C33.5987 22.6396 33.5195 22.5771 33.4442 22.437C32.8986 21.4253 32.3437 20.4186 31.7816 19.3922C31.6958 19.4738 31.7288 19.5695 31.7288 19.6511C31.7261 20.5565 31.7211 21.4618 31.7316 22.3672C31.7338 22.5715 31.6887 22.6491 31.4759 22.6345C31.1844 22.6148 30.8907 22.6244 30.5976 22.6317C30.4711 22.6345 30.4216 22.5985 30.4221 22.4601C30.426 20.7799 30.426 19.0996 30.4221 17.4194C30.4221 17.2832 30.4694 17.2433 30.5981 17.2455C30.9638 17.2523 31.3307 17.2573 31.6958 17.2438C31.8718 17.2371 31.9037 17.3671 31.9637 17.4745C32.4812 18.4069 32.9954 19.341 33.5129 20.2734C33.5503 20.3409 33.5646 20.4293 33.6757 20.4794C33.6757 19.6921 33.6867 17.2388 33.6867 17.2388C33.6867 17.2388 34.8119 17.2416 34.9395 17.2388V22.6204Z" fill="white"/>
<path d="M11.5844 22.7327C11.5553 22.7142 11.5284 22.6849 11.497 22.6787C10.3932 22.4592 9.9703 21.6844 9.9428 20.6772C9.9131 19.6041 9.9406 18.5293 9.9318 17.4551C9.93015 17.2694 9.9978 17.2396 10.1551 17.2447C10.4658 17.2554 10.7782 17.2593 11.0889 17.2436C11.2759 17.234 11.3155 17.3032 11.3139 17.4816C11.3056 18.4342 11.31 19.3869 11.31 20.3395C11.31 20.4144 11.3084 20.4892 11.31 20.5635C11.3337 21.3699 11.9524 21.7694 12.6822 21.4447C13.0628 21.2753 13.1282 20.9276 13.1299 20.5596C13.1348 19.5698 13.1436 18.5794 13.1238 17.5896C13.1183 17.3015 13.1942 17.2171 13.4703 17.2419C13.7612 17.2683 14.056 17.2503 14.3486 17.2464C14.452 17.2453 14.529 17.2576 14.5257 17.3921C14.496 18.6323 14.6148 19.8781 14.4509 21.1127C14.3326 22.0018 13.7975 22.5206 12.9302 22.677C12.8928 22.6838 12.8593 22.6894 12.8477 22.7322H11.5839L11.5844 22.7327Z" fill="white"/>
<path d="M15.4206 19.9285C15.4206 19.1171 15.4267 18.3051 15.4162 17.4937C15.414 17.2995 15.4646 17.2331 15.6593 17.2438C15.9601 17.2602 16.2632 17.2602 16.5645 17.2438C16.7581 17.2331 16.8093 17.295 16.8076 17.4914C16.7988 18.704 16.8098 19.9172 16.7972 21.1299C16.7944 21.3667 16.8582 21.4247 17.0848 21.4185C17.7338 21.4022 18.3833 21.4174 19.0328 21.4095C19.1961 21.4078 19.2632 21.4512 19.2544 21.6284C19.2418 21.8985 19.2451 22.1697 19.2533 22.4398C19.2577 22.585 19.2104 22.6328 19.0658 22.6323C17.9136 22.6272 16.7609 22.6261 15.6087 22.6334C15.4415 22.6345 15.4168 22.5664 15.4179 22.4201C15.4234 21.5896 15.4206 20.7596 15.4206 19.929V19.9285Z" fill="white"/>
<path d="M8.0035 17.3153C7.77307 17.2652 7.53163 17.254 7.2946 17.2506C6.5076 17.2405 5.72059 17.2416 4.93359 17.2388V22.6204C5.32682 22.6233 5.72059 22.6199 6.11382 22.6328C6.27221 22.6385 6.31401 22.5827 6.31071 22.4274C6.30191 21.9795 6.31621 21.5311 6.30356 21.0831C6.29806 20.8924 6.34371 20.8237 6.54279 20.8311C6.93547 20.8457 7.33034 20.8457 7.72302 20.826C8.64531 20.7804 9.17438 20.2881 9.31407 19.3663C9.47576 18.3017 8.98794 17.5286 8.0035 17.3159V17.3153ZM7.3023 19.7507C7.2022 19.758 6.33876 19.7569 6.33876 19.7569C6.33876 19.7569 6.32666 19.2741 6.32666 19.0518C6.31676 18.7012 6.31566 18.3867 6.31566 18.3867C6.31566 18.3867 6.64894 18.3861 6.95527 18.3867C7.08286 18.3867 7.21155 18.3856 7.33804 18.4007C7.75217 18.4508 7.96225 18.6973 7.9529 19.1092C7.94411 19.498 7.72192 19.7192 7.3034 19.7507H7.3023Z" fill="white"/>
<circle cx="20" cy="20" r="19.5" stroke="black" stroke-opacity="0.05"/>
</svg>
