<svg width="40" height="40" viewBox="0 0 40 40" fill="none" xmlns="http://www.w3.org/2000/svg">
<circle cx="20" cy="20" r="20" fill="#F6F8FA"/>
<g clip-path="url(#clip0_14382_20534)">
<path d="M9.00237 19.8187V19.4133C9.00237 18.298 9.06952 18.2146 10.1987 18.3582C12.6309 18.6663 15.0527 18.9744 17.4397 19.528C18.6546 19.8106 18.9696 20.7533 18.1751 21.7192C16.5015 23.7553 14.4214 25.3698 12.5151 27.1627C12.2487 27.4117 11.9997 27.3225 11.8202 27.0943C11.3812 26.5581 10.9631 26.0045 10.5531 25.4451C10.3389 25.1532 10.5253 24.9285 10.7524 24.7595C11.5538 24.1607 12.4178 23.6476 13.1648 22.977C13.5227 22.6562 13.8829 22.3342 14.2072 21.9833C14.506 21.6637 14.4203 21.4621 13.9489 21.3834C13.3035 21.2629 12.646 21.2201 11.9904 21.256C11.2955 21.3069 10.6087 21.3614 9.91963 21.4343C9.20272 21.5096 9.01858 21.3579 9.00468 20.6236C8.99774 20.3584 9.00237 20.0885 9.00237 19.8187Z" fill="#FABF03"/>
<path d="M19.2279 17.6634C19.2441 18.7371 18.7843 19.1158 17.7049 18.9143C16.4112 18.6734 15.2889 18.0109 14.1412 17.4249C12.9042 16.7948 11.6997 16.0999 10.4709 15.456C10.0806 15.251 10.0331 15.0263 10.2694 14.6765C10.6041 14.182 10.918 13.6735 11.2446 13.1709C11.4913 12.7922 11.7658 12.7458 12.1607 13.0134C13.2031 13.7164 14.1724 14.519 15.3121 15.0587C15.6109 15.2012 15.9502 15.522 16.2629 15.2637C16.5757 15.0054 16.271 14.6429 16.1865 14.3487C15.8717 13.1939 15.4414 12.0737 14.9021 11.0051C14.5894 10.4052 14.638 10.2511 15.2588 9.99749C15.8796 9.74385 16.49 9.54696 17.1119 9.32575C17.4871 9.1914 17.6829 9.32574 17.7721 9.71489C18.3349 12.1749 18.848 14.6452 19.229 17.1411C19.2416 17.315 19.2412 17.4896 19.2279 17.6634Z" fill="#F26C00"/>
<path d="M19.9065 17.2398C19.9482 16.0898 20.1624 15.0879 20.3605 14.085C20.6385 12.6697 20.9523 11.2602 21.228 9.84258C21.3229 9.35731 21.5152 9.10945 22.0387 9.2797C22.6073 9.4627 23.1818 9.62716 23.7528 9.8032C24.0944 9.90744 24.1987 10.1252 24.0852 10.4692C23.7713 11.4212 23.4563 12.372 23.1656 13.331C23.0556 13.7205 22.9728 14.1172 22.9177 14.5181C22.8842 14.7393 22.8019 15.015 23.0185 15.169C23.2351 15.3231 23.4494 15.1192 23.6497 15.0173C24.728 14.4706 25.5908 13.6275 26.5301 12.8967C26.6969 12.7658 26.8578 12.628 27.02 12.4913C27.2516 12.2956 27.4705 12.2991 27.6721 12.5376C28.1712 13.1283 28.6496 13.7317 29.004 14.4243C29.1453 14.7023 29.1036 14.8876 28.8198 15.0381C26.5162 16.2913 24.2311 17.5803 21.7966 18.574C21.635 18.6385 21.4694 18.6926 21.3009 18.7362C20.606 18.9203 20.1694 18.6702 20.0084 17.9753C19.9622 17.732 19.9282 17.4865 19.9065 17.2398Z" fill="#D60062"/>
<path d="M27.9316 21.0175C27.1208 21.0175 26.3101 20.97 25.5087 21.1333C25.3222 21.1727 25.1044 21.1762 25.0512 21.4136C25.0014 21.6313 25.1531 21.761 25.2932 21.9058C26.2592 22.8706 27.4208 23.5678 28.5697 24.2731C29.033 24.5569 29.1488 24.7943 28.8326 25.268C28.4527 25.8274 28.0844 26.3903 27.6189 26.8836C27.3976 27.1153 27.1834 27.1894 26.9309 26.9311C25.0685 25.0306 23.0441 23.2852 21.389 21.1854C20.62 20.2103 20.8296 19.5385 22.0237 19.1436C23.4077 18.6803 24.8647 18.6224 26.2997 18.4487C27.4092 18.3166 28.5257 18.2379 29.6352 18.1082C30.1182 18.0514 30.3533 18.1927 30.3846 18.7046C30.4234 19.2621 30.4257 19.8215 30.3915 20.3793C30.3591 20.8611 30.1738 21.0592 29.6677 21.0198C29.0921 20.9827 28.5106 21.0175 27.9316 21.0175Z" fill="#7E1188"/>
<path d="M19.8648 21.0903C20.4173 21.0695 20.7369 21.4019 21.0288 21.7736C21.8326 22.8032 22.3271 24.0054 22.8888 25.1671C23.4679 26.3646 23.9961 27.5865 24.5705 28.7875C24.7257 29.1118 24.6782 29.2809 24.3458 29.4025C23.7841 29.6087 23.2294 29.8299 22.6711 30.043C22.2078 30.219 21.9484 30.1206 21.7967 29.5797C21.4697 28.388 21.0435 27.2258 20.5227 26.1052C20.3779 25.8006 20.2633 25.357 19.8776 25.3628C19.4711 25.3686 19.4282 25.8458 19.2985 26.1469C18.8352 27.2738 18.5503 28.4632 18.3025 29.648C18.1924 30.1715 17.9608 30.3117 17.4686 30.1646C16.8408 29.977 16.2004 29.8322 15.597 29.567C15.3283 29.4512 15.1916 29.2971 15.3329 28.9879C16.4772 26.4805 17.5416 23.9313 19.0449 21.6034C19.2452 21.3046 19.485 21.0625 19.8648 21.0903Z" fill="#24288B"/>
</g>
<circle cx="20" cy="20" r="19.5" stroke="black" stroke-opacity="0.05"/>
<defs>
<clipPath id="clip0_14382_20534">
<rect width="21.4158" height="21" fill="white" transform="translate(9 9.22632)"/>
</clipPath>
</defs>
</svg>
