<svg width="40" height="40" viewBox="0 0 40 40" fill="none" xmlns="http://www.w3.org/2000/svg">
<circle cx="20" cy="20" r="20" fill="#404041"/>
<path d="M16.6479 14.0712C16.6493 14.0708 16.6506 14.0699 16.6516 14.0688C16.6526 14.0676 16.6533 14.0662 16.6535 14.0647C16.6538 14.0632 16.6536 14.0616 16.6531 14.0602C16.6525 14.0588 16.6515 14.0576 16.6503 14.0567C16.04 13.6042 15.3102 13.3874 14.5527 13.3375C13.4193 13.263 12.1958 13.503 11.0749 13.8345C10.9091 13.8836 10.7329 13.9126 10.5464 13.9217C10.0077 13.9478 9.71204 13.6681 9.49667 13.1884C9.26372 12.6687 9.02673 12.1532 8.78571 11.6421C8.77603 11.6218 8.78168 11.6078 8.80265 11.6C9.90966 11.2025 11.0031 10.9167 12.083 10.7424C14.9481 10.2802 18.0596 10.7565 19.859 13.2334C19.8703 13.2489 19.8851 13.2549 19.9035 13.2514C22.8432 12.6787 25.7943 12.3195 28.7569 12.174C29.9945 12.1131 31.2327 12.0808 32.4713 12.0772C32.4955 12.0772 32.5044 12.0889 32.498 12.1121C32.3053 12.8009 32.1205 13.4612 31.9433 14.093C31.8248 14.515 31.4874 14.8064 31.0562 14.8828C30.9107 14.9086 30.7481 14.9222 30.5684 14.9235C27.4283 14.9438 24.359 15.1906 21.2853 15.7617C18.9128 16.2026 16.5583 16.8603 14.4167 17.8467C14.0928 17.9957 13.77 18.1621 13.4483 18.3457C12.7102 18.7657 11.8696 19.3668 11.5802 20.1731C11.3914 20.7012 11.4931 21.2209 11.904 21.6139C12.3294 22.0209 13.0035 22.0635 13.5538 22.0113C16.0448 21.7741 17.9739 20.026 18.153 17.4735C18.1546 17.4545 18.1646 17.4422 18.183 17.4368C19.1342 17.1615 20.0812 16.9292 21.0239 16.7398C21.0349 16.7376 21.0406 16.7421 21.0409 16.7534C21.0541 17.6681 20.9252 18.5439 20.6542 19.3809C19.6722 22.4091 16.8245 24.3784 13.7106 24.6358C11.6997 24.8019 9.66654 24.147 8.79346 22.185C8.19623 20.841 8.56212 19.2502 9.42601 18.0945C10.0576 17.2495 10.9549 16.5535 11.8928 16.0119C13.3593 15.166 14.9961 14.5595 16.6479 14.0712Z" fill="#ED1B23"/>
<path d="M26.6454 22.973C26.0511 24.3645 25.2074 25.5943 24.1142 26.6623C22.2872 28.4477 19.9264 29.6581 17.5269 30.5268C17.522 30.5287 17.5165 30.5285 17.5116 30.5263C17.5067 30.5242 17.5028 30.5202 17.5008 30.5152C17.3007 30.0683 17.1073 29.6474 16.9205 29.2525C16.8124 29.0244 16.7511 28.8329 16.7366 28.678C16.6974 28.2618 16.8861 27.8664 17.2138 27.6133C17.3389 27.5168 17.5058 27.4231 17.7142 27.3321C18.8946 26.8172 20.0276 26.1861 21.012 25.3846C22.7422 23.9758 23.9502 21.9184 24.3998 19.7633C24.6389 18.6167 24.7052 17.4092 24.6877 16.2157C24.6874 16.1941 24.6981 16.1822 24.7197 16.1799C25.786 16.0638 26.8222 15.9792 27.8282 15.9263C27.8311 15.9261 27.834 15.9265 27.8367 15.9275C27.8394 15.9284 27.8418 15.9299 27.8439 15.9319C27.846 15.9338 27.8477 15.9362 27.8488 15.9388C27.8499 15.9414 27.8505 15.9443 27.8505 15.9471C27.8631 18.3292 27.5863 20.7699 26.6454 22.973Z" fill="#ED1B23"/>
<circle cx="20" cy="20" r="19.5" stroke="black" stroke-opacity="0.05"/>
</svg>
