<svg width="40" height="40" viewBox="0 0 40 40" fill="none" xmlns="http://www.w3.org/2000/svg">
<circle cx="20" cy="20" r="20" fill="#00A7CF"/>
<g clip-path="url(#clip0_18553_55670)">
<path d="M28.5842 19.0463L28.5418 18.1985C28.6795 18.1985 29.1458 18.2303 29.6121 17.9124C30.0148 17.6368 30.1102 17.2659 29.93 17.001C29.6863 16.6407 29.1882 16.8314 28.5524 16.9268C27.8847 17.0222 27.3019 16.9692 26.8568 16.3122C26.3799 15.6234 26.6661 14.7862 27.3867 14.2987C28.0437 13.843 28.5418 13.8112 28.8067 13.8324L28.8703 14.6696C28.6689 14.6696 28.2557 14.7226 27.9165 14.9663C27.588 15.1889 27.482 15.4856 27.6622 15.7505C27.8741 16.0684 28.2662 15.9519 28.8279 15.8459C29.5273 15.7187 30.2162 15.6445 30.7354 16.397C31.2441 17.1282 31.0109 17.976 30.1102 18.5906C29.4531 19.0357 28.8597 19.0675 28.5842 19.0463Z" fill="white"/>
<path d="M25.373 13.2283L24.7478 12.6667C24.8432 12.5713 25.1929 12.2534 25.2988 11.7023C25.3836 11.2148 25.1929 10.8863 24.8855 10.8333C24.4617 10.7591 24.2391 11.2466 23.8576 11.7553C23.4549 12.2958 23.0098 12.6667 22.2256 12.5289C21.399 12.3805 21.0175 11.5857 21.1765 10.7273C21.3248 9.94315 21.6534 9.56165 21.8441 9.39209L22.48 9.93255C22.3422 10.0809 22.0879 10.4094 22.0137 10.8227C21.9395 11.2148 22.0667 11.501 22.3952 11.5539C22.7661 11.6281 22.9674 11.2572 23.2854 10.8015C23.688 10.2187 24.1225 9.67822 25.0127 9.83718C25.8923 9.99614 26.3268 10.7591 26.1254 11.8295C25.9771 12.6137 25.585 13.0588 25.373 13.2283Z" fill="white"/>
<path d="M18.9936 11.4058L18.1458 11.4588C18.1458 11.321 18.167 10.8547 17.8491 10.3884C17.5736 9.98574 17.2027 9.89036 16.9377 10.0705C16.5774 10.3143 16.7788 10.8229 16.8635 11.4482C16.9695 12.1158 16.9165 12.6986 16.2595 13.1437C15.5707 13.6206 14.7441 13.3345 14.246 12.6245C13.7903 11.9674 13.7585 11.4694 13.7691 11.215L14.6063 11.1408C14.6063 11.3422 14.6593 11.7555 14.903 12.0946C15.1256 12.4231 15.4223 12.5291 15.6978 12.3383C16.0158 12.1158 15.8886 11.7343 15.7932 11.1726C15.666 10.4732 15.5919 9.78439 16.3337 9.26512C17.0649 8.75645 17.9127 8.98959 18.5273 9.87977C18.983 10.5368 19.0148 11.1302 18.9936 11.4058Z" fill="white"/>
<path d="M13.186 14.6382L12.6243 15.274C12.5289 15.1786 12.211 14.8289 11.6494 14.7229C11.1619 14.6382 10.8334 14.8289 10.7804 15.1468C10.7062 15.5707 11.1937 15.7827 11.713 16.1748C12.2534 16.5669 12.6349 17.0226 12.4866 17.7962C12.3382 18.6228 11.554 19.0149 10.6956 18.8559C9.91141 18.7181 9.52991 18.3896 9.36035 18.1989L9.90081 17.5524C10.0492 17.6902 10.3777 17.9445 10.791 18.0187C11.1831 18.0929 11.4692 17.9551 11.5222 17.6372C11.5858 17.2663 11.2255 17.065 10.7592 16.747C10.1763 16.3443 9.63588 15.9098 9.79484 15.0197C9.9538 14.1401 10.7062 13.7056 11.7765 13.8964C12.5607 14.0341 13.0058 14.4262 13.186 14.6382Z" fill="white"/>
<path d="M11.3951 21.0389L11.4481 21.8867C11.3103 21.8867 10.8441 21.8655 10.3778 22.1834C9.97508 22.4696 9.8797 22.8405 10.0599 23.0948C10.3036 23.4445 10.8123 23.2538 11.4375 23.1584C12.1051 23.0524 12.688 23.1054 13.1331 23.7518C13.61 24.4407 13.3344 25.2673 12.6138 25.7759C11.9568 26.2316 11.4587 26.274 11.2044 26.2634L11.1302 25.4262C11.3315 25.4262 11.7448 25.3626 12.0839 25.1295C12.4125 24.907 12.5184 24.6102 12.3277 24.3347C12.1051 24.0168 11.713 24.1439 11.162 24.2393C10.4626 24.3665 9.77373 24.4513 9.25446 23.7095C8.74579 22.9782 8.96833 22.1305 9.85851 21.5052C10.5049 21.0495 11.0984 21.0071 11.3739 21.0389H11.3951Z" fill="white"/>
<path d="M14.6589 26.8247L15.2948 27.3864C15.1994 27.4817 14.8497 27.7997 14.7543 28.3613C14.6695 28.8488 14.8709 29.1773 15.1782 29.2303C15.6021 29.3045 15.814 28.8064 16.1955 28.2977C16.5876 27.7573 17.0327 27.3758 17.8169 27.5135C18.6435 27.6619 19.0356 28.4461 18.8872 29.3045C18.7495 30.0993 18.421 30.4702 18.2408 30.6503L17.5944 30.1099C17.7321 29.9615 17.9865 29.633 18.0607 29.2197C18.1242 28.8276 17.9971 28.5415 17.6686 28.4885C17.287 28.4249 17.0963 28.7852 16.7784 29.2515C16.3757 29.8343 15.9412 30.3854 15.051 30.2264C14.1714 30.0781 13.737 29.3151 13.9171 28.2447C14.0549 27.4605 14.447 27.0155 14.6589 26.8353V26.8247Z" fill="white"/>
<path d="M21.0597 28.5839L21.8968 28.5309C21.8968 28.6687 21.8757 29.1349 22.2042 29.6012C22.4903 30.0039 22.8612 30.0887 23.1155 29.9085C23.4652 29.6542 23.2745 29.1561 23.1685 28.5309C23.0625 27.8633 23.1049 27.2804 23.7514 26.8247C24.4402 26.3373 25.2668 26.6128 25.7755 27.3334C26.2417 27.9904 26.2735 28.4885 26.2629 28.7428L25.4257 28.817C25.4257 28.6157 25.3622 28.2024 25.1184 27.8633C24.8853 27.5348 24.5992 27.4288 24.3236 27.6195C24.0163 27.8421 24.1329 28.2342 24.2389 28.7852C24.3766 29.4847 24.4508 30.1735 23.7196 30.6927C22.999 31.2014 22.1406 30.9895 21.5153 30.0993C21.0597 29.4529 21.0173 28.8594 21.0385 28.5839H21.0597Z" fill="white"/>
<path d="M26.8354 25.2987L27.3865 24.6629C27.4819 24.7583 27.7998 25.108 28.3615 25.2033C28.8489 25.2881 29.1669 25.0868 29.2198 24.7794C29.294 24.3556 28.796 24.1436 28.2767 23.7621C27.7362 23.37 27.3547 22.9249 27.4819 22.1407C27.6197 21.3141 28.4038 20.922 29.2728 21.0598C30.0676 21.1976 30.4385 21.5155 30.6187 21.7062L30.0888 22.3527C29.9405 22.2149 29.6119 21.9606 29.1986 21.897C28.8065 21.8334 28.5204 21.9606 28.4674 22.2891C28.4039 22.6706 28.7642 22.8507 29.2304 23.1687C29.8239 23.5714 30.3644 23.9952 30.216 24.8854C30.0676 25.765 29.3152 26.2101 28.2449 26.0299C27.4607 25.9028 27.0156 25.5107 26.8354 25.2987Z" fill="white"/>
<path d="M26.0296 21.1762L26.1462 20.4873C26.2521 20.5191 26.6336 20.6251 27.0575 20.4449C27.439 20.2966 27.5768 20.0211 27.4814 19.7773C27.3437 19.4488 26.9092 19.5124 26.3899 19.4594C25.8388 19.417 25.3832 19.2686 25.1394 18.6646C24.8851 18.0288 25.2666 17.4035 25.9342 17.1386C26.5489 16.8949 26.9516 16.9584 27.1529 17.0114L27.0575 17.7002C26.8986 17.6685 26.5595 17.6367 26.2309 17.7638C25.9236 17.8804 25.7859 18.1029 25.8812 18.3467C25.9978 18.6434 26.3369 18.6116 26.8032 18.6434C27.386 18.6752 27.9583 18.7388 28.2338 19.4276C28.4988 20.1058 28.1702 20.7417 27.3331 21.0808C26.729 21.3245 26.2415 21.2397 26.0296 21.1762Z" fill="white"/>
<path d="M25.0865 16.545L24.6838 15.9728C24.7792 15.9198 25.1183 15.7291 25.2984 15.2946C25.4574 14.9237 25.362 14.6269 25.1183 14.521C24.7898 14.3832 24.5248 14.7329 24.1221 15.072C23.7088 15.4323 23.2743 15.6549 22.6703 15.3899C22.0345 15.1144 21.8649 14.415 22.151 13.758C22.416 13.1539 22.7445 12.9102 22.9246 12.8042L23.3379 13.3553C23.2002 13.4506 22.9352 13.6626 22.7975 13.9805C22.6703 14.2772 22.7233 14.5316 22.967 14.6375C23.2531 14.7647 23.4757 14.5104 23.8254 14.1924C24.2599 13.8003 24.705 13.44 25.3938 13.7368C26.072 14.0229 26.284 14.7117 25.9237 15.5383C25.6693 16.1423 25.2666 16.4285 25.0653 16.5239L25.0865 16.545Z" fill="white"/>
<path d="M21.1338 13.9489L20.445 13.8323C20.4768 13.7264 20.5722 13.3448 20.4026 12.921C20.2542 12.55 19.9681 12.4017 19.735 12.4971C19.4065 12.6348 19.47 13.0693 19.4277 13.5992C19.3853 14.1502 19.2369 14.6059 18.6329 14.8497C17.997 15.104 17.3718 14.7331 17.1069 14.0655C16.8631 13.4508 16.9267 13.0481 16.9797 12.8468L17.6685 12.9421C17.6367 13.1011 17.6049 13.4402 17.7321 13.7687C17.8593 14.0761 18.0712 14.2138 18.3255 14.1079C18.6223 13.9913 18.5905 13.6522 18.6117 13.1859C18.6329 12.603 18.6964 12.0308 19.3959 11.7553C20.0741 11.4797 20.7099 11.8188 21.049 12.6454C21.2928 13.2495 21.2186 13.7369 21.1444 13.9489H21.1338Z" fill="white"/>
<path d="M16.503 14.9238L15.9413 15.3265C15.8884 15.2311 15.687 14.892 15.2631 14.7118C14.8922 14.5529 14.5955 14.6482 14.4895 14.892C14.3517 15.2205 14.7015 15.4854 15.0512 15.8881C15.4115 16.3014 15.634 16.7359 15.3797 17.3293C15.1148 17.9652 14.4047 18.1347 13.7477 17.8592C13.1437 17.6049 12.8999 17.2764 12.7939 17.0856L13.345 16.6723C13.4404 16.8101 13.6523 17.075 13.9702 17.2022C14.267 17.3293 14.5213 17.2764 14.6273 17.0326C14.7438 16.7465 14.4895 16.524 14.1822 16.1742C13.7901 15.7398 13.4298 15.2947 13.7159 14.6164C14.002 13.9382 14.6909 13.7263 15.5175 14.076C16.1215 14.3303 16.4076 14.7224 16.5136 14.9344L16.503 14.9238Z" fill="white"/>
<path d="M13.9277 18.8765L13.8217 19.5654C13.7157 19.5336 13.3342 19.4382 12.9103 19.6078C12.5394 19.7561 12.3911 20.0422 12.497 20.286C12.6348 20.6145 13.0693 20.5509 13.5992 20.5933C14.1502 20.6251 14.6059 20.7735 14.8602 21.3775C15.1252 22.0133 14.7437 22.6386 14.076 22.9035C13.4614 23.1578 13.0587 23.0943 12.8574 23.0413L12.9527 22.3525C13.1117 22.3842 13.4508 22.416 13.7793 22.2889C14.0866 22.1617 14.2244 21.9498 14.1184 21.6954C14.0019 21.3987 13.6628 21.4305 13.1965 21.4093C12.6136 21.3881 12.0414 21.3245 11.7658 20.6357C11.4903 19.9575 11.8188 19.3216 12.656 18.9825C13.2601 18.7388 13.7475 18.813 13.9595 18.8765H13.9277Z" fill="white"/>
<path d="M14.9237 23.4971L15.337 24.0587C15.2416 24.1117 14.9025 24.3131 14.7224 24.737C14.5634 25.1079 14.6694 25.4046 14.9025 25.5106C15.231 25.6483 15.496 25.288 15.8881 24.9489C16.3014 24.5886 16.7252 24.366 17.3293 24.6098C17.9651 24.8747 18.1347 25.5741 17.8592 26.2418C17.6048 26.8564 17.2763 27.0896 17.0962 27.2061L16.6723 26.6551C16.81 26.5597 17.075 26.3371 17.2021 26.0192C17.3293 25.7225 17.2763 25.4682 17.022 25.3622C16.7358 25.2456 16.5133 25.5 16.1742 25.8179C15.7503 26.2206 15.3052 26.5809 14.6164 26.2948C13.9382 26.0086 13.7262 25.3304 14.0653 24.5038C14.3197 23.8998 14.7118 23.6136 14.9131 23.5077L14.9237 23.4971Z" fill="white"/>
<path d="M18.8978 26.0617L19.5866 26.1677C19.5548 26.2736 19.4595 26.6551 19.6396 27.079C19.7986 27.4499 20.0741 27.5983 20.3178 27.4923C20.6463 27.3545 20.5828 26.9201 20.6146 26.3902C20.6463 25.8391 20.7947 25.3835 21.3988 25.1291C22.0346 24.8642 22.6598 25.2351 22.9354 25.9027C23.1897 26.5174 23.1261 26.9201 23.0731 27.1214L22.3843 27.0366C22.4161 26.8777 22.4479 26.528 22.3101 26.21C22.183 25.9027 21.971 25.765 21.7167 25.8709C21.4305 25.9875 21.4517 26.3266 21.4411 26.7929C21.42 27.3757 21.367 27.948 20.6781 28.2341C19.9999 28.5097 19.3641 28.1811 19.0144 27.3545C18.76 26.7505 18.8342 26.263 18.9084 26.0511L18.8978 26.0617Z" fill="white"/>
<path d="M23.5181 25.0443L24.0797 24.631C24.1433 24.7264 24.3341 25.0655 24.7685 25.2351C25.1395 25.3941 25.4362 25.2881 25.5422 25.0443C25.6799 24.7158 25.3196 24.4509 24.9699 24.0588C24.599 23.6455 24.3764 23.2216 24.6308 22.6176C24.8957 21.9817 25.5951 21.8016 26.2628 22.0771C26.8774 22.3314 27.1212 22.6599 27.2271 22.8401L26.6761 23.264C26.5807 23.1262 26.3581 22.8613 26.0402 22.7341C25.7329 22.607 25.4892 22.6599 25.3832 22.9143C25.2666 23.2004 25.521 23.423 25.8389 23.7621C26.2416 24.186 26.6019 24.631 26.3158 25.3199C26.0402 25.9981 25.3514 26.2206 24.5248 25.8815C23.9208 25.6378 23.624 25.2351 23.5181 25.0337V25.0443Z" fill="white"/>
<path d="M23.6985 21.7592L23.9104 21.3565C23.974 21.3989 24.186 21.5367 24.4827 21.5155C24.7476 21.4943 24.8854 21.3565 24.8748 21.187C24.8536 20.9538 24.5781 20.9115 24.2602 20.7737C23.9316 20.6359 23.6773 20.4558 23.6455 20.0319C23.6137 19.5868 23.974 19.2795 24.4403 19.2477C24.8642 19.2159 25.1079 19.3431 25.2245 19.4172L25.0338 19.8199C24.9384 19.7669 24.737 19.6822 24.5145 19.6928C24.3025 19.7034 24.1754 19.8093 24.186 19.9895C24.1966 20.1908 24.4085 20.2438 24.6946 20.3498C25.0549 20.477 25.3835 20.6359 25.4259 21.1128C25.4576 21.5897 25.1185 21.9182 24.5463 21.95C24.1224 21.9818 23.8469 21.8334 23.7197 21.7486L23.6985 21.7592Z" fill="white"/>
<path d="M23.8573 18.6014L23.7195 18.1669C23.7937 18.1458 24.0375 18.1034 24.2388 17.8702C24.4084 17.6689 24.4084 17.4675 24.2812 17.3616C24.101 17.2132 23.8679 17.3721 23.5606 17.5099C23.2321 17.6477 22.9247 17.7007 22.6068 17.4251C22.2677 17.1284 22.2995 16.6621 22.6068 16.3124C22.8823 15.9945 23.1367 15.9097 23.2744 15.8779L23.4228 16.3018C23.3168 16.3336 23.1155 16.4184 22.9671 16.5774C22.8294 16.7363 22.8082 16.9059 22.9459 17.0224C23.1049 17.1602 23.285 17.0436 23.5606 16.9165C23.9103 16.7575 24.2494 16.6303 24.6203 16.9377C24.9806 17.245 24.97 17.7219 24.5991 18.1564C24.3236 18.4743 24.0163 18.5696 23.8679 18.6014H23.8573Z" fill="white"/>
<path d="M21.727 16.2698L21.3243 16.0685C21.3667 16.0049 21.5045 15.7929 21.4833 15.4962C21.4621 15.2313 21.3243 15.0935 21.1548 15.1041C20.9216 15.1253 20.8793 15.4008 20.7521 15.7187C20.6143 16.0473 20.4342 16.3016 20.0103 16.3334C19.5652 16.3652 19.2579 16.0155 19.2261 15.5492C19.1943 15.1253 19.3109 14.8816 19.385 14.765L19.7877 14.9557C19.7347 15.0511 19.65 15.2525 19.6606 15.475C19.6712 15.687 19.7771 15.8141 19.9573 15.8035C20.1586 15.7929 20.2116 15.5704 20.3176 15.2949C20.4448 14.9345 20.6037 14.5954 21.0806 14.5636C21.5575 14.5318 21.886 14.8604 21.9284 15.4432C21.9602 15.8671 21.8118 16.1532 21.727 16.2698Z" fill="white"/>
<path d="M18.5694 16.1425L18.1455 16.2802C18.1243 16.206 18.0713 15.9623 17.8487 15.761C17.6474 15.5914 17.446 15.5914 17.3401 15.7186C17.1917 15.8987 17.3613 16.1319 17.4884 16.4392C17.6262 16.7677 17.6792 17.075 17.4037 17.3929C17.1069 17.7321 16.6406 17.7003 16.2909 17.3929C15.9624 17.1174 15.8776 16.8631 15.8564 16.7253L16.2803 16.577C16.3121 16.6829 16.3969 16.8843 16.5665 17.0326C16.7254 17.1704 16.895 17.1916 17.0116 17.0538C17.1493 16.8949 17.0327 16.7147 16.9056 16.4392C16.7466 16.1001 16.6089 15.7504 16.9268 15.3795C17.2341 15.0191 17.7004 15.0191 18.1455 15.4006C18.4634 15.6762 18.5694 15.9835 18.5905 16.1213L18.5694 16.1425Z" fill="white"/>
<path d="M16.2485 18.2726L16.0471 18.6753C15.9835 18.6329 15.7716 18.5057 15.4749 18.5269C15.2099 18.5481 15.0722 18.6965 15.0828 18.866C15.104 19.0992 15.3795 19.1416 15.6974 19.2687C16.0259 19.3959 16.2909 19.576 16.3226 19.9999C16.3544 20.445 16.0047 20.7523 15.5384 20.7947C15.1146 20.8265 14.8708 20.71 14.7542 20.6358L14.945 20.2331C15.0404 20.2861 15.2417 20.3708 15.4643 20.3496C15.6762 20.3285 15.8034 20.2331 15.7928 20.0529C15.7716 19.8516 15.5596 19.7986 15.2841 19.6926C14.9238 19.5654 14.5847 19.4171 14.5529 18.9296C14.5211 18.4527 14.8496 18.1242 15.4219 18.0818C15.8458 18.05 16.1319 18.1878 16.2485 18.2726Z" fill="white"/>
<path d="M16.1317 21.4309L16.2694 21.8548C16.1953 21.8759 15.9515 21.9289 15.7608 22.1515C15.5912 22.3528 15.5912 22.5542 15.7184 22.6602C15.8985 22.8085 16.1317 22.639 16.439 22.5118C16.7675 22.3634 17.0748 22.3104 17.3928 22.586C17.7319 22.8721 17.7001 23.349 17.3928 23.6987C17.1172 24.0272 16.8629 24.112 16.7251 24.1438L16.5768 23.7199C16.6827 23.6881 16.8841 23.6033 17.0325 23.4338C17.1702 23.2748 17.1914 23.1052 17.0536 22.9887C16.8947 22.8509 16.7145 22.9675 16.439 23.0946C16.0999 23.2536 15.7502 23.3914 15.3793 23.0734C15.019 22.7661 15.019 22.2998 15.3899 21.8548C15.6654 21.5368 15.9621 21.4309 16.1105 21.4097L16.1317 21.4309Z" fill="white"/>
<path d="M18.2832 23.741L18.6859 23.9424C18.6435 24.0059 18.5163 24.2179 18.5375 24.5146C18.5587 24.7795 18.7071 24.9173 18.8766 24.9067C19.1098 24.8855 19.1521 24.5994 19.2793 24.2815C19.4065 23.9529 19.5866 23.688 20.0105 23.6562C20.4556 23.6138 20.7629 23.9741 20.8053 24.4404C20.8371 24.8643 20.7206 25.1081 20.6464 25.2246L20.2437 25.0339C20.2967 24.9385 20.3814 24.7371 20.3602 24.5146C20.339 24.3027 20.2331 24.1755 20.0635 24.1861C19.8622 24.2073 19.8092 24.4192 19.7032 24.7054C19.576 25.0657 19.4277 25.4048 18.9402 25.4472C18.4633 25.4896 18.1348 25.1504 18.0818 24.5782C18.05 24.1543 18.1878 23.8682 18.2726 23.7516L18.2832 23.741Z" fill="white"/>
<path d="M21.4305 23.847L21.8544 23.7093C21.8756 23.7835 21.9286 24.0272 22.1617 24.2179C22.3631 24.3875 22.5644 24.3875 22.6704 24.2603C22.8188 24.0802 22.6492 23.847 22.5114 23.5397C22.3631 23.2112 22.3101 22.9039 22.5856 22.5754C22.8718 22.2363 23.338 22.2574 23.6983 22.5648C24.0269 22.8403 24.1116 23.0946 24.1434 23.2218L23.7195 23.3808C23.6877 23.2748 23.603 23.0734 23.4334 22.9251C23.2744 22.7873 23.1049 22.7661 22.9883 22.9039C22.8612 23.0628 22.9671 23.243 23.1049 23.5185C23.2639 23.8576 23.4016 24.2073 23.0943 24.5783C22.787 24.9386 22.3207 24.9386 21.8756 24.5783C21.5471 24.3027 21.4517 24.006 21.4199 23.8576L21.4305 23.847Z" fill="white"/>
<path d="M22.0981 21.8228L22.3101 21.6002C22.3101 21.6002 22.4585 21.7698 22.6598 21.8122C22.8294 21.844 22.9565 21.7804 22.9777 21.6638C23.0095 21.5049 22.8294 21.4307 22.6492 21.2823C22.4585 21.134 22.3207 20.9644 22.3843 20.6889C22.4479 20.3921 22.734 20.2544 23.0413 20.318C23.3274 20.371 23.4546 20.4981 23.5182 20.5723L23.3168 20.8054C23.3168 20.8054 23.1473 20.6571 22.9989 20.6253C22.8612 20.5935 22.7552 20.6359 22.734 20.7631C22.7022 20.9008 22.84 20.975 22.9989 21.0916C23.2109 21.2399 23.4016 21.4095 23.338 21.7274C23.2744 22.0453 22.9989 22.1937 22.6068 22.1195C22.3207 22.0665 22.1617 21.9182 22.1087 21.8334L22.0981 21.8228Z" fill="white"/>
<path d="M22.766 19.7877V19.4804C22.766 19.4804 22.978 19.491 23.1475 19.385C23.2959 19.2896 23.3277 19.1519 23.2641 19.0565C23.1793 18.9293 22.9992 18.9929 22.766 19.0247C22.5223 19.0565 22.3103 19.0247 22.1514 18.7916C21.9818 18.5372 22.0878 18.2405 22.3527 18.0603C22.5965 17.9014 22.7766 17.8908 22.872 17.9014L22.8932 18.2087C22.819 18.2087 22.6706 18.2299 22.5435 18.3041C22.4269 18.3889 22.3845 18.4842 22.4481 18.5902C22.5223 18.7068 22.6706 18.6644 22.872 18.6326C23.1263 18.5902 23.3807 18.569 23.5608 18.8445C23.741 19.1095 23.6456 19.4168 23.3171 19.6393C23.0733 19.7983 22.8614 19.8089 22.766 19.7983V19.7877Z" fill="white"/>
<path d="M21.8016 17.8805L21.5791 17.6685C21.5791 17.6685 21.7487 17.5202 21.7804 17.3188C21.8122 17.1387 21.7487 17.0221 21.6321 17.0009C21.4731 16.9691 21.3989 17.1493 21.2506 17.3294C21.1022 17.5202 20.9433 17.6579 20.6571 17.5944C20.3604 17.5308 20.2226 17.2446 20.2862 16.9373C20.3392 16.6512 20.4664 16.524 20.53 16.4604L20.7631 16.6618C20.7631 16.6618 20.6147 16.8314 20.5935 16.9797C20.5618 17.1175 20.6147 17.2235 20.7313 17.2446C20.8691 17.2764 20.9433 17.1387 21.0598 16.9797C21.2082 16.7678 21.3672 16.577 21.6957 16.6406C22.0136 16.7042 22.1619 16.9797 22.0878 17.3718C22.0348 17.6579 21.8864 17.8169 21.8122 17.8805H21.8016Z" fill="white"/>
<path d="M19.767 17.2127H19.4597C19.4597 17.2127 19.4703 17.0008 19.3537 16.8312C19.2584 16.6829 19.1206 16.6511 19.0252 16.7146C18.8981 16.7994 18.9616 16.9902 18.9934 17.2127C19.0252 17.4565 19.004 17.6684 18.7709 17.8274C18.5166 17.9969 18.2198 17.8909 18.0397 17.626C17.8807 17.3823 17.8701 17.2021 17.8701 17.1067L18.1774 17.0856C18.1774 17.1597 18.1986 17.3081 18.2834 17.4353C18.3682 17.5518 18.4742 17.5942 18.5695 17.5306C18.6861 17.4565 18.6437 17.3081 18.6119 17.1067C18.5695 16.8524 18.5483 16.5981 18.8133 16.4179C19.0782 16.2378 19.3855 16.3225 19.6081 16.6511C19.767 16.8948 19.7776 17.1067 19.767 17.2021V17.2127Z" fill="white"/>
<path d="M17.8591 18.1984L17.6472 18.4209C17.6472 18.4209 17.4988 18.2619 17.2975 18.2196C17.1173 18.1878 17.0008 18.2513 16.9796 18.3679C16.9478 18.5163 17.1279 18.6011 17.3081 18.7494C17.4988 18.8978 17.6366 19.0567 17.5836 19.3429C17.5306 19.6396 17.2339 19.7774 16.9266 19.7138C16.6405 19.6608 16.5027 19.5336 16.4497 19.47L16.6511 19.2369C16.6511 19.2369 16.8206 19.3853 16.969 19.4065C17.1067 19.4382 17.2127 19.3853 17.2339 19.2687C17.2551 19.1309 17.1279 19.0567 16.969 18.9402C16.757 18.7918 16.5663 18.6328 16.6299 18.3043C16.6934 17.9864 16.969 17.8275 17.3611 17.9122C17.6472 17.9652 17.8062 18.1136 17.8697 18.1878L17.8591 18.1984Z" fill="white"/>
<path d="M17.2023 20.2329V20.5402C17.2023 20.5402 17.0009 20.5296 16.8314 20.6462C16.683 20.7416 16.6512 20.8794 16.7148 20.9747C16.7996 21.1019 16.9903 21.0383 17.2129 21.0065C17.4566 20.9747 17.6686 20.9959 17.8275 21.2291C17.9971 21.4834 17.8911 21.7801 17.6262 21.9603C17.3824 22.1192 17.2023 22.1298 17.1175 22.1298L17.0963 21.8225C17.1705 21.8225 17.3188 21.8013 17.446 21.7165C17.5626 21.6318 17.605 21.5364 17.5414 21.4304C17.4672 21.3138 17.3188 21.3562 17.1175 21.388C16.8632 21.4304 16.6088 21.4516 16.4287 21.1867C16.2485 20.9217 16.3333 20.6144 16.6618 20.3919C16.9055 20.2329 17.1175 20.2223 17.2129 20.2329H17.2023Z" fill="white"/>
<path d="M18.1879 22.1406L18.4105 22.342C18.4105 22.342 18.2409 22.4903 18.2091 22.6917C18.1773 22.8718 18.2409 22.9884 18.3575 23.0096C18.5164 23.0414 18.5906 22.8612 18.7284 22.6811C18.8768 22.4903 19.0357 22.3526 19.3218 22.4056C19.6186 22.4585 19.7563 22.7447 19.7033 23.0626C19.6504 23.3487 19.5232 23.4865 19.4596 23.5501L19.2265 23.3487C19.2265 23.3487 19.3748 23.1792 19.396 23.0308C19.4172 22.893 19.3748 22.7871 19.2583 22.7659C19.1205 22.7341 19.0463 22.8718 18.9297 23.0414C18.7814 23.2533 18.6224 23.4441 18.3045 23.3911C17.9866 23.3275 17.8276 23.052 17.9018 22.6705C17.9548 22.3844 18.1032 22.2254 18.1773 22.1618L18.1879 22.1406Z" fill="white"/>
<path d="M20.2329 22.7765L20.5402 22.7553C20.5402 22.7553 20.5402 22.9779 20.6462 23.1474C20.7522 23.2958 20.8793 23.3276 20.9747 23.264C21.1019 23.1792 21.0383 22.9885 21.0065 22.7659C20.9747 22.5222 20.9959 22.3102 21.2291 22.1513C21.4834 21.9817 21.7801 22.0877 21.9603 22.342C22.1192 22.5858 22.1298 22.7659 22.1298 22.8507L21.8225 22.8719C21.8225 22.7977 21.8013 22.6493 21.7165 22.5222C21.6318 22.4056 21.5258 22.3632 21.4304 22.4268C21.3138 22.501 21.3562 22.6493 21.3986 22.8507C21.441 23.105 21.4728 23.3594 21.1973 23.5395C20.9323 23.7197 20.625 23.6349 20.4025 23.317C20.2435 23.0838 20.2329 22.8613 20.2329 22.7659V22.7765Z" fill="white"/>
<path d="M20.9536 21.579L21.1338 21.4836C21.1338 21.4836 21.1974 21.6214 21.3139 21.685C21.4199 21.738 21.5047 21.7274 21.5471 21.6532C21.6 21.5578 21.5047 21.473 21.4093 21.3459C21.3139 21.2187 21.2715 21.0809 21.3563 20.9114C21.4517 20.7312 21.6636 20.71 21.8438 20.8054C22.0133 20.9008 22.0663 21.0068 22.0981 21.0598L21.9286 21.1657C21.9286 21.1657 21.8544 21.0386 21.759 20.9856C21.6742 20.9432 21.6 20.9432 21.5683 21.0174C21.5259 21.1021 21.5895 21.1657 21.6742 21.2823C21.7802 21.4201 21.865 21.5578 21.759 21.7486C21.653 21.9393 21.4517 21.9817 21.2185 21.8546C21.049 21.7592 20.9854 21.6426 20.9536 21.579Z" fill="white"/>
<path d="M21.7907 20.424L21.8437 20.2333C21.8437 20.2333 21.9814 20.2863 22.1086 20.2439C22.2252 20.2121 22.2676 20.1379 22.2464 20.0637C22.2146 19.9684 22.0874 19.9684 21.9391 19.9366C21.7801 19.9048 21.6529 19.8518 21.5999 19.6716C21.547 19.4809 21.6741 19.3113 21.8755 19.2477C22.0556 19.1948 22.1722 19.2266 22.2358 19.2477L22.1828 19.4491C22.1828 19.4491 22.0344 19.4173 21.9391 19.4491C21.8437 19.4809 21.8013 19.5339 21.8225 19.6081C21.8437 19.6928 21.9497 19.7034 22.0768 19.714C22.2464 19.7352 22.4053 19.7776 22.4689 19.979C22.5325 20.1803 22.4159 20.3605 22.1616 20.4346C21.9814 20.4876 21.8437 20.4452 21.7801 20.424H21.7907Z" fill="white"/>
<path d="M21.5574 19.0146L21.4514 18.8345C21.4514 18.8345 21.5892 18.7709 21.6528 18.6543C21.7058 18.5483 21.6952 18.4636 21.621 18.4212C21.5256 18.3682 21.4408 18.4636 21.3137 18.5589C21.1865 18.6543 21.0487 18.7073 20.8792 18.6119C20.699 18.5166 20.6778 18.3046 20.7732 18.1245C20.8686 17.9549 20.9745 17.8913 21.0275 17.8701L21.1335 18.0397C21.1335 18.0397 21.0063 18.1139 20.9639 18.2092C20.9216 18.294 20.9216 18.3682 20.9957 18.4106C21.0805 18.453 21.1441 18.3894 21.2607 18.3046C21.3984 18.1986 21.5362 18.1139 21.7269 18.2198C21.9177 18.3258 21.9601 18.5272 21.8329 18.7603C21.7375 18.9298 21.621 19.004 21.5574 19.0252V19.0146Z" fill="white"/>
<path d="M20.4027 18.1986L20.212 18.1456C20.212 18.1456 20.2649 18.0078 20.2226 17.8807C20.1908 17.7641 20.1166 17.7217 20.0424 17.7429C19.9364 17.7747 19.947 17.9018 19.9258 18.0502C19.894 18.2092 19.8411 18.3363 19.6609 18.3893C19.4701 18.4423 19.3006 18.3151 19.237 18.1138C19.184 17.923 19.2158 17.8171 19.237 17.7535L19.4384 17.7959C19.4384 17.7959 19.4066 17.9442 19.4384 18.0396C19.4595 18.135 19.5231 18.1774 19.5973 18.1562C19.6821 18.135 19.6927 18.029 19.7033 17.9018C19.7245 17.7323 19.7669 17.5733 19.9682 17.5097C20.1696 17.4462 20.3497 17.5627 20.4239 17.8171C20.4769 17.9972 20.4451 18.135 20.4239 18.1986H20.4027Z" fill="white"/>
<path d="M18.9931 18.4316L18.813 18.5375C18.813 18.5375 18.7494 18.3998 18.6328 18.3362C18.5269 18.2832 18.4421 18.3044 18.3997 18.368C18.3467 18.4634 18.4421 18.5481 18.5375 18.6753C18.6328 18.8025 18.6858 18.9402 18.5904 19.0992C18.4951 19.2794 18.2831 19.3006 18.103 19.2052C17.9334 19.1098 17.8698 19.0144 17.8486 18.9508L18.0182 18.8449C18.0182 18.8449 18.0924 18.972 18.1877 19.0144C18.2725 19.0568 18.3467 19.0568 18.3891 18.9826C18.4315 18.8979 18.3679 18.8343 18.2831 18.7177C18.1771 18.5799 18.0924 18.4422 18.1877 18.2514C18.2937 18.0607 18.4951 18.0183 18.7282 18.1454C18.8978 18.2408 18.9719 18.3574 18.9931 18.421V18.4316Z" fill="white"/>
<path d="M18.1771 19.5972L18.1241 19.7986C18.1241 19.7986 17.9863 19.7456 17.8592 19.788C17.7426 19.8198 17.7002 19.8939 17.7214 19.9681C17.7532 20.0635 17.8804 20.0635 18.0287 20.0847C18.1877 20.1059 18.3149 20.1695 18.3678 20.3496C18.4208 20.5404 18.3043 20.7099 18.1029 20.7735C17.9228 20.8265 17.8062 20.7947 17.7426 20.7735L17.785 20.5722C17.785 20.5722 17.9333 20.604 18.0287 20.5722C18.1241 20.5404 18.1665 20.4874 18.1453 20.4132C18.1135 20.3284 18.0181 20.3284 17.8804 20.3072C17.7108 20.286 17.5518 20.2436 17.4883 20.0423C17.4247 19.8409 17.5412 19.6608 17.7956 19.5866C17.9757 19.5336 18.1135 19.5654 18.1771 19.5866V19.5972Z" fill="white"/>
<path d="M18.421 20.9961L18.5269 21.1762C18.5269 21.1762 18.3892 21.2398 18.3256 21.3564C18.2726 21.4624 18.2938 21.5472 18.3574 21.5895C18.4528 21.6425 18.5375 21.5472 18.6647 21.4518C18.7919 21.3564 18.9296 21.3034 19.0992 21.3988C19.2794 21.4942 19.3111 21.7061 19.2052 21.8863C19.1098 22.0558 19.0144 22.1194 18.9508 22.1406L18.8449 21.971C18.8449 21.971 18.972 21.8863 19.0144 21.8015C19.0568 21.7167 19.0568 21.6425 18.9826 21.6001C18.8979 21.5578 18.8343 21.6213 18.7177 21.7061C18.5799 21.8121 18.4422 21.8969 18.2514 21.8015C18.0607 21.6955 18.0183 21.4942 18.1454 21.261C18.2408 21.0915 18.3574 21.0173 18.421 20.9961Z" fill="white"/>
<path d="M19.5865 21.8122L19.7878 21.8652C19.7878 21.8652 19.7348 22.003 19.7772 22.1301C19.809 22.2467 19.8938 22.2891 19.9574 22.2679C20.0528 22.2361 20.0528 22.1089 20.0739 21.9606C20.0951 21.8016 20.1587 21.6744 20.3389 21.6215C20.5296 21.5579 20.6992 21.685 20.7628 21.8864C20.8158 22.0665 20.7946 22.1831 20.7628 22.2467L20.5614 22.2043C20.5614 22.2043 20.5932 22.056 20.5614 21.9606C20.5296 21.8652 20.4766 21.8228 20.4025 21.844C20.3177 21.8652 20.3177 21.9712 20.2965 22.0983C20.2753 22.2679 20.2435 22.4375 20.0316 22.501C19.8302 22.5646 19.6501 22.4481 19.5759 22.1937C19.5229 22.0136 19.5547 21.8758 19.5759 21.8122H19.5865Z" fill="white"/>
</g>
<circle cx="20" cy="20" r="19.5" stroke="black" stroke-opacity="0.05"/>
<defs>
<clipPath id="clip0_18553_55670">
<rect width="22" height="21.9682" fill="white" transform="translate(9 9)"/>
</clipPath>
</defs>
</svg>
