<svg width="40" height="40" viewBox="0 0 40 40" fill="none" xmlns="http://www.w3.org/2000/svg">
<circle cx="20" cy="20" r="20" fill="#2E4248"/>
<path d="M7.83063 21.4161C8.68548 21.4161 9.51722 21.4207 10.349 21.4129C10.5112 21.4129 10.562 21.4558 10.5537 21.6185C10.5407 21.8874 10.5444 22.1573 10.5537 22.4267C10.5578 22.5625 10.5227 22.6152 10.3753 22.6147C8.68871 22.6101 7.00212 22.6101 5.31553 22.6147C5.26993 22.6153 5.22476 22.6059 5.18312 22.5873C5.14148 22.5688 5.10436 22.5414 5.07432 22.5071C4.75549 22.1836 4.43403 21.8625 4.10996 21.5436C4.07297 21.5103 4.04389 21.469 4.02487 21.423C4.00584 21.3769 3.99734 21.3272 3.99998 21.2775C4.00399 20.5998 4.00399 19.922 3.99998 19.2443C3.99751 19.195 4.00592 19.1458 4.02461 19.1001C4.04329 19.0544 4.0718 19.0134 4.10811 18.98C4.44358 18.6513 4.77582 18.3192 5.10482 17.9838C5.14002 17.9441 5.18352 17.9126 5.23223 17.8916C5.28094 17.8706 5.33367 17.8606 5.38669 17.8622C6.70362 17.8659 8.02055 17.8667 9.33747 17.8645C9.42204 17.8645 9.50151 17.8608 9.56851 17.9357C9.87534 18.279 10.1872 18.6182 10.5389 19.0059H10.2478C8.6767 19.0059 7.10563 19.0059 5.53455 19.0059C5.1843 19.0059 5.24067 18.9597 5.2342 19.3164C5.23582 19.3395 5.23582 19.3626 5.2342 19.3857C5.20509 19.5641 5.27301 19.6168 5.45785 19.6168C7.07513 19.6094 8.69241 19.6168 10.3097 19.6084C10.4945 19.6084 10.5689 19.6486 10.5537 19.8464C10.5349 20.0771 10.5349 20.3089 10.5537 20.5395C10.5708 20.7433 10.4904 20.7747 10.3069 20.7738C8.71274 20.7667 7.11872 20.7667 5.52485 20.7738C5.43243 20.7738 5.27302 20.698 5.2476 20.838C5.2219 21.02 5.22581 21.2049 5.25915 21.3856C5.26793 21.4438 5.38391 21.4142 5.45045 21.4142C6.23645 21.4161 7.02199 21.4161 7.83063 21.4161Z" fill="#D7252B"/>
<path d="M35.996 20.2611C35.996 21.0004 35.9923 21.7166 35.9992 22.4328C35.9992 22.5738 35.9669 22.6177 35.8218 22.614C35.2983 22.6052 34.7747 22.6075 34.2507 22.614C34.2018 22.615 34.1533 22.6044 34.1093 22.5831C34.0653 22.5617 34.027 22.5302 33.9975 22.4911C33.3235 21.7425 32.6458 20.9964 31.9644 20.2527C31.9103 20.1931 31.847 20.1414 31.7587 20.0582V21.139C31.7587 21.5623 31.7509 21.986 31.7624 22.4093C31.767 22.5756 31.7125 22.6172 31.554 22.6126C31.1844 22.6015 30.8147 22.5987 30.445 22.6126C30.269 22.6195 30.2283 22.5664 30.2292 22.3945C30.2371 21.17 30.2265 19.9455 30.2389 18.7214C30.2417 18.459 30.1992 18.2422 29.9899 18.0717C29.9321 18.0255 29.891 17.9581 29.8115 17.8638C30.2736 17.8638 30.7033 17.8948 31.1252 17.8555C31.566 17.8143 31.8511 17.9738 32.1363 18.3083C32.87 19.1682 33.6491 19.9889 34.4152 20.8308C34.5026 20.7601 34.4651 20.6695 34.4656 20.5933C34.4688 19.7542 34.473 18.9146 34.4656 18.0754C34.4656 17.8998 34.5118 17.8532 34.6855 17.8596C35.0552 17.8735 35.4249 17.8716 35.7945 17.8596C35.9553 17.8545 36.0034 17.9008 36.0016 18.0643C35.9914 18.7903 35.996 19.5143 35.996 20.2611Z" fill="white"/>
<path d="M18.6897 21.2313C18.4846 21.2437 18.2484 21.1532 18.1352 21.2668C18.022 21.3805 18.1057 21.6171 18.0996 21.7996C18.0932 22.0149 18.0946 22.2307 18.0996 22.4465C18.1029 22.556 18.0844 22.6152 17.9518 22.6129C17.5438 22.605 17.1358 22.6064 16.7282 22.6129C16.6118 22.6129 16.5854 22.5667 16.5859 22.4627C16.5886 21.7234 16.591 20.984 16.5859 20.2447C16.5859 20.065 16.6968 20.0969 16.8003 20.0969C17.8169 20.0969 18.8334 20.0969 19.85 20.0969C20.1656 20.0969 20.4812 20.1001 20.7968 20.0969C21.1776 20.0913 21.4299 19.8607 21.4202 19.5354C21.4109 19.2194 21.1614 19.0068 20.7899 19.0063C19.6278 19.0063 18.4656 19.0031 17.3035 19.0063C17.2359 19.0111 17.1683 18.9992 17.1063 18.9718C17.0444 18.9445 16.9901 18.9024 16.9481 18.8492C16.6741 18.5295 16.3858 18.2217 16.1025 17.9084C16.1658 17.8313 16.2412 17.865 16.3026 17.865C17.9421 17.8628 19.5814 17.8628 21.2205 17.865C22.0357 17.865 22.695 18.3465 22.9025 19.0844C23.1178 19.8506 22.818 20.5871 22.1017 21.0136C21.97 21.0922 21.995 21.1342 22.0786 21.2253C22.4483 21.6268 22.8124 22.0334 23.1775 22.4396C23.2167 22.4835 23.2731 22.5177 23.2819 22.6087C22.6812 22.6087 22.086 22.6087 21.4899 22.6087C21.3975 22.6087 21.3559 22.5426 21.3051 22.4863C20.9641 22.1106 20.6203 21.7372 20.2853 21.356C20.249 21.3121 20.2026 21.2778 20.15 21.2561C20.0974 21.2343 20.0402 21.2258 19.9836 21.2313C19.5598 21.2359 19.1366 21.2313 18.6897 21.2313Z" fill="white"/>
<path d="M25.3895 17.8582C25.6459 17.812 25.7162 17.9081 25.6963 18.1405C25.6812 18.4021 25.6799 18.6643 25.6926 18.9261C25.6949 19.036 25.6653 19.0883 25.548 19.1151C25.4133 19.1467 25.2843 19.1987 25.1654 19.2694C24.8068 19.482 24.5942 19.7689 24.5873 20.2204C24.5799 20.688 24.7837 20.998 25.1607 21.2208C25.3864 21.3561 25.6448 21.4269 25.9079 21.4255C26.3622 21.4227 26.8168 21.4255 27.2711 21.4255C27.4793 21.4257 27.6847 21.3782 27.8718 21.2868C28.3237 21.0701 28.5963 20.7467 28.582 20.2074C28.5686 19.6991 28.3047 19.3521 27.8621 19.2163C27.4859 19.1007 27.4208 18.9057 27.4647 18.5772C27.4827 18.4413 27.4679 18.3 27.4679 18.1613C27.4679 17.8485 27.4679 17.8494 27.7914 17.8587C28.9993 17.8915 30.0556 18.8845 29.99 20.1155C29.9724 20.4389 30.0038 20.7624 29.9059 21.0771C29.6471 21.9088 28.8121 22.5867 27.9332 22.6125C27.0336 22.6393 26.1311 22.6449 25.2314 22.6125C24.0855 22.57 23.1738 21.5867 23.1706 20.4408C23.1706 20.1173 23.1521 19.7939 23.2399 19.4773C23.4949 18.5587 24.3332 17.9187 25.3895 17.8582Z" fill="white"/>
<path d="M13.8803 22.6102C13.5961 22.6102 13.3336 22.5954 13.073 22.6148C12.8568 22.631 12.787 22.5756 12.7902 22.3441C12.8045 21.3127 12.7902 20.2813 12.8022 19.2481C12.805 19.0379 12.7435 18.9926 12.5462 18.9995C12.1156 19.0148 11.6845 18.9995 11.2524 19.0069C11.1921 19.0119 11.1315 19.002 11.0759 18.9783C11.0202 18.9545 10.9712 18.9176 10.9331 18.8706C10.6466 18.543 10.3495 18.2237 10.0205 17.8637H10.2927C11.97 17.8637 13.6478 17.8637 15.3257 17.86C15.3933 17.8556 15.461 17.8675 15.523 17.8947C15.5851 17.9218 15.6398 17.9635 15.6824 18.0162C15.9596 18.3351 16.2452 18.6451 16.5275 18.9584C16.4813 19.0393 16.4125 19.0018 16.3598 19.0023C15.7291 19.0055 15.0978 19.0102 14.4653 19.0023C14.2984 18.9995 14.2453 19.0337 14.2467 19.213C14.2569 20.2296 14.2518 21.2462 14.2518 22.2627C14.2536 22.6102 14.2536 22.6102 13.8803 22.6102Z" fill="white"/>
<path d="M26.074 20.3631C26.0141 20.305 25.9671 20.2349 25.9364 20.1573C25.9056 20.0797 25.8917 19.9964 25.8957 19.913C25.8998 19.1598 25.8957 18.4066 25.8957 17.6535C25.8957 17.2662 26.1701 17.0065 26.5735 17.0001C26.9598 16.995 27.2667 17.2482 27.2708 17.616C27.2824 18.3923 27.2778 19.1686 27.2708 19.9445C27.2747 20.0615 27.2413 20.1768 27.1756 20.2738C27.1098 20.3707 27.015 20.4444 26.9049 20.4842C26.6211 20.6015 26.3379 20.5844 26.074 20.3631Z" fill="#D7252B"/>
<circle cx="20" cy="20" r="19.5" stroke="black" stroke-opacity="0.05"/>
</svg>
