<svg width="40" height="40" viewBox="0 0 40 40" fill="none" xmlns="http://www.w3.org/2000/svg">
<circle cx="20" cy="20" r="20" fill="#CC0000"/>
<circle cx="20" cy="20" r="19.5" stroke="black" stroke-opacity="0.05"/>
<path d="M19.3091 19.3604C18.536 17.0718 19.6208 15.4426 21.1108 13.9806C21.4105 13.6877 21.8559 13.4242 22.2558 13.3894C22.6062 13.3586 23.1373 13.574 23.3085 13.8535C23.4783 14.1304 23.3606 14.6387 23.2523 15.0132C23.1881 15.2379 22.9019 15.3984 22.7186 15.5924C22.1541 16.1903 21.5616 16.7641 21.0426 17.3995C20.7831 17.7165 20.6052 18.1298 20.4902 18.5284C20.0983 19.8887 21.0587 20.8424 22.4257 20.4759C23.5051 20.187 24.2849 19.4553 25.0259 18.6755C25.2868 18.4013 25.5128 18.091 25.7937 17.8395C26.2819 17.4035 26.9012 17.3807 27.3119 17.7406C27.7319 18.1084 27.8081 18.7156 27.5031 19.2654C26.4398 21.1795 23.8234 22.2602 21.793 21.6891C21.793 22.3739 21.8906 23.0989 21.7729 23.7891C21.5094 25.3407 20.533 26.4776 19.3399 27.4206C18.7487 27.8874 18.0518 27.7965 17.6626 27.3096C17.2693 26.8174 17.375 26.2048 17.9341 25.6456C18.548 25.033 19.2315 24.4686 19.7358 23.7757C20.1103 23.2607 20.3778 22.5893 20.4568 21.9579C20.5825 20.94 19.7612 20.2967 18.7366 20.4759C17.7963 20.6404 17.0647 21.1808 16.3999 21.8228C16.032 22.1786 15.6963 22.5679 15.3432 22.9384C14.7627 23.5497 14.0618 23.6727 13.5736 23.2514C13.0947 22.8381 13.0666 22.0676 13.6244 21.451C15.1212 19.7951 16.8159 18.5859 19.3051 19.3604H19.3091Z" fill="white"/>
<path fill-rule="evenodd" clip-rule="evenodd" d="M20.5 31C26.299 31 31 26.299 31 20.5C31 14.701 26.299 10 20.5 10C14.701 10 10 14.701 10 20.5C10 26.299 14.701 31 20.5 31ZM20.5 29.2615C25.3386 29.2615 29.2611 25.339 29.2611 20.5003C29.2611 15.6617 25.3386 11.7392 20.5 11.7392C15.6614 11.7392 11.7389 15.6617 11.7389 20.5003C11.7389 25.339 15.6614 29.2615 20.5 29.2615Z" fill="white"/>
</svg>
