<svg width="40" height="40" viewBox="0 0 40 40" fill="none" xmlns="http://www.w3.org/2000/svg">
<circle cx="20" cy="20" r="20" fill="#1B1463"/>
<path d="M34.4869 16.3772C34.7702 15.804 34.6078 15.1456 34.1241 14.9065C33.6404 14.6675 33.0186 14.9383 32.7353 15.5115C32.4521 16.0847 32.6145 16.7431 33.0982 16.9822C33.5819 17.2212 34.2037 16.9504 34.4869 16.3772Z" fill="#EC1C24"/>
<path d="M13.1867 17.3018L12.9493 18.5176C12.9462 18.5327 12.9561 18.5473 12.9711 18.5498C12.9727 18.5498 12.9748 18.5498 12.9763 18.5498L14.8824 18.5483C14.8974 18.5483 14.9099 18.5608 14.9099 18.5758C14.9099 18.5774 14.9099 18.5795 14.9099 18.581L14.6263 20.0892C14.6237 20.1022 14.6123 20.1116 14.5993 20.1116H12.6979C12.6849 20.1116 12.6735 20.1209 12.6709 20.1339L12.1246 23.0839C12.122 23.0969 12.1105 23.1062 12.0975 23.1062L10.5119 23.1088C10.4969 23.1088 10.4844 23.0969 10.4839 23.0818C10.4839 23.0797 10.4839 23.0782 10.4839 23.0761L11.8301 15.6674C11.8322 15.6544 11.8436 15.6445 11.8571 15.6445H15.8037C15.8188 15.6445 15.8313 15.657 15.8313 15.6721C15.8313 15.6741 15.8313 15.6757 15.8307 15.6778L15.4812 17.2572C15.4786 17.2701 15.4672 17.279 15.4542 17.279H13.2137C13.2007 17.2795 13.1893 17.2888 13.1867 17.3018Z" fill="white"/>
<path d="M9.05519 19.812C9.31954 19.9641 9.49561 20.2321 9.5839 20.6159C9.77451 21.4464 9.9433 22.2665 10.0892 23.0751C10.0924 23.0923 10.0851 23.1011 10.0679 23.1011L8.24706 23.1001C8.22992 23.1001 8.21953 23.0912 8.21642 23.0741C8.06165 22.2094 7.9074 21.422 7.75366 20.712C7.69082 20.4212 7.55579 20.108 7.19379 20.1418C7.17665 20.1433 7.16315 20.1558 7.16003 20.1724L6.59704 23.0782C6.59445 23.0907 6.58354 23.1001 6.57055 23.1001H5.02493C5.01091 23.1001 5 23.0892 5 23.0757C5 23.0741 5 23.0731 5 23.0715L6.31503 15.6763C6.31762 15.6623 6.32593 15.6555 6.33996 15.6555C7.17042 15.6643 8.00296 15.6638 8.83706 15.6545C9.29877 15.6493 9.60883 15.6747 9.76827 15.7313C10.9711 16.1567 10.7156 17.8197 10.2539 18.6746C9.97187 19.1981 9.57299 19.5642 9.0583 19.773C9.03078 19.7839 9.02974 19.7969 9.05519 19.812ZM8.87964 18.1697C9.01104 17.8109 8.92691 17.2603 8.45221 17.2209C8.2294 17.2022 7.98322 17.1933 7.71263 17.1939C7.69394 17.1939 7.68251 17.2032 7.67888 17.2214L7.39686 18.6096C7.39478 18.6195 7.40102 18.6294 7.41088 18.6315C7.41192 18.6315 7.41296 18.6315 7.41452 18.6315C7.68199 18.6356 7.93181 18.6351 8.16396 18.6299C8.53167 18.6221 8.77006 18.4684 8.87964 18.1692V18.1697Z" fill="white"/>
<path d="M21.1702 20.9691C21.1557 21.4204 21.2663 22.0483 21.8911 21.867C22.0755 21.8135 22.264 21.6531 22.3954 21.5118C22.4203 21.4848 22.4562 21.4718 22.4925 21.476L23.7878 21.6255C23.7998 21.6266 23.8086 21.6375 23.807 21.6499C23.807 21.6531 23.806 21.6557 23.8044 21.6583C23.2981 22.5692 22.4011 23.2252 21.3515 23.2548C20.9781 23.2646 20.6633 23.1696 20.4073 22.9696C19.9315 22.5983 19.7679 22.1054 19.7316 21.5175C19.7139 21.2355 19.7134 20.9649 19.7306 20.7057C19.7742 20.0477 20.0749 19.3866 20.426 18.7945C20.5652 18.5602 20.7106 18.3748 20.8622 18.2372C21.3001 17.8414 21.8615 17.5672 22.4582 17.5958C23.0155 17.6228 23.4767 17.6955 23.7946 18.2081C24.3072 19.0344 24.1275 19.9901 23.9836 20.8995C23.98 20.9218 23.967 20.9327 23.9447 20.9327H21.2076C21.1837 20.9327 21.1713 20.9446 21.1702 20.9691ZM22.0293 18.9716C21.6834 19.1243 21.4642 19.4873 21.3816 19.8727C21.3785 19.8867 21.3878 19.9002 21.4019 19.9033C21.4034 19.9033 21.4055 19.9038 21.4071 19.9038H22.7143C22.7273 19.9038 22.734 19.8976 22.7356 19.8846C22.7595 19.667 22.7797 19.2583 22.6224 19.0832C22.4619 18.9051 22.2645 18.8682 22.0293 18.9716Z" fill="white"/>
<path d="M17.9763 18.9296C17.8678 18.6819 17.5561 18.6455 17.3365 18.7468C17.1988 18.8107 17.1178 18.9296 17.0934 19.1026C17.0674 19.288 17.2076 19.3804 17.3629 19.4516C17.7057 19.6079 18.0334 19.7061 18.3835 19.798C18.7715 19.9003 19.0426 20.3106 19.109 20.6897C19.1418 20.8757 19.1516 21.0777 19.1376 21.2953C19.0779 22.2577 18.2578 22.9708 17.3411 23.1998C17.0134 23.2819 16.7293 23.2341 16.4047 23.165C15.5784 22.9895 15.1032 22.439 15.1858 21.5576C15.1868 21.5467 15.1956 21.5373 15.2065 21.5363L16.6223 21.3904C16.6327 21.3893 16.6415 21.3961 16.6431 21.4065C16.7059 21.836 16.9365 22.1621 17.4382 22.011C17.8844 21.8765 17.8657 21.3275 17.4756 21.1338C17.3313 21.0616 17.1687 21.005 16.9874 20.9634C16.7667 20.9125 16.5133 20.8663 16.3149 20.7702C15.9581 20.5973 15.7721 20.2862 15.756 19.8364C15.7508 19.6848 15.754 19.5264 15.7659 19.3607C15.8267 18.5084 16.4857 17.6312 17.3873 17.6042C17.7457 17.5933 18.0854 17.6109 18.4069 17.6572C19.1064 17.7574 19.4077 18.3853 19.4721 19.0371C19.4736 19.0506 19.4643 19.0626 19.4508 19.0652L18.0739 19.2885C18.0578 19.2911 18.0433 19.2802 18.0407 19.2646C18.0407 19.263 18.0407 19.2615 18.0407 19.2594C18.0433 19.142 18.022 19.0319 17.9768 18.9296H17.9763Z" fill="white"/>
<path d="M26.4928 18.3387C26.4767 18.4296 26.4928 18.4353 26.5406 18.3569C26.8694 17.8204 27.355 17.5799 27.9969 17.6355C28.1345 17.6474 28.2467 17.6791 28.3345 17.7305C28.5635 17.865 28.709 18.1876 28.7692 18.4374C28.777 18.4717 28.791 18.4742 28.8102 18.4446C29.098 18.0001 29.4901 17.6526 30.038 17.622C30.5662 17.5924 31.0565 17.8432 31.1593 18.3766C31.2061 18.6186 31.2133 18.8949 31.1811 19.2055C31.1432 19.5685 31.0866 19.9508 31.0118 20.3528C30.8482 21.2305 30.6789 22.1332 30.5044 23.0613C30.5018 23.0758 30.4888 23.0862 30.4743 23.0862H29.046C29.0268 23.0862 29.0195 23.0763 29.0232 23.0581C29.2273 22.0527 29.433 21.0539 29.6391 20.0625C29.6755 19.8869 29.6771 19.7134 29.6443 19.5421C29.596 19.2902 29.3415 19.1396 29.1047 19.258C28.7214 19.4507 28.6253 20.0427 28.5573 20.452C28.4119 21.3292 28.2659 22.2059 28.1195 23.0826C28.1169 23.0987 28.107 23.107 28.0904 23.107L26.6689 23.1085C26.6544 23.1085 26.6429 23.0971 26.6429 23.0831C26.6429 23.0815 26.6429 23.08 26.6429 23.0784C26.8398 22.0288 27.0361 20.9812 27.2329 19.9363C27.276 19.7083 27.2475 19.5176 27.1472 19.3644C27.0231 19.1754 26.805 19.2117 26.6544 19.3379C26.3812 19.567 26.3214 19.9087 26.2477 20.2453C26.0451 21.1729 25.853 22.1176 25.6717 23.0789C25.6691 23.0914 25.6587 23.1002 25.6463 23.1002H24.2315C24.205 23.1002 24.1947 23.0872 24.1993 23.0618L25.1877 17.6827C25.1908 17.6677 25.2038 17.6568 25.2188 17.6568L26.5816 17.6557C26.5967 17.6557 26.6092 17.6682 26.6092 17.6827C26.6092 17.6843 26.6092 17.6859 26.6092 17.6874L26.4928 18.3387Z" fill="white"/>
<path d="M31.5576 23.0004L32.5319 17.6754C32.534 17.665 32.5429 17.6572 32.5538 17.6572H34.0667C34.0791 17.6572 34.089 17.6671 34.089 17.679C34.089 17.6806 34.089 17.6816 34.089 17.6832L33.0897 23.0072C33.0877 23.0181 33.0783 23.0254 33.0674 23.0254L31.5805 23.0269C31.568 23.0269 31.5581 23.0176 31.5576 23.0051C31.5576 23.0036 31.5576 23.002 31.5576 23.0004Z" fill="white"/>
<circle cx="20" cy="20" r="19.5" stroke="black" stroke-opacity="0.05"/>
</svg>
