<svg width="40" height="40" viewBox="0 0 40 40" fill="none" xmlns="http://www.w3.org/2000/svg">
<circle cx="20" cy="20" r="20" fill="#F6F8FA"/>
<circle cx="20" cy="20" r="19.5" stroke="black" stroke-opacity="0.05"/>
<g clip-path="url(#clip0_17671_18628)">
<mask id="mask0_17671_18628" style="mask-type:luminance" maskUnits="userSpaceOnUse" x="4" y="15" width="55" height="39">
<path d="M4 53.2507H58.0974V15H4V53.2507Z" fill="white"/>
</mask>
<g mask="url(#mask0_17671_18628)">
<path d="M16.3669 25.4441C16.1069 25.1841 16.1069 24.7625 16.3669 24.5025L19.8315 21.0379C20.0915 20.7777 20.5132 20.7777 20.7731 21.0379C21.0332 21.2978 21.0332 21.7195 20.7731 21.9795L17.3085 25.4441C17.0486 25.7042 16.6269 25.7042 16.3669 25.4441Z" fill="#2D423A"/>
<path d="M16.3664 19.6013C16.1064 19.3413 16.1064 18.9197 16.3664 18.6596L19.831 15.1951C20.091 14.935 20.5126 14.935 20.7726 15.1951C21.0327 15.4551 21.0327 15.8767 20.7726 16.1367L17.3082 19.6013C17.0481 19.8613 16.6264 19.8613 16.3664 19.6013Z" fill="#2C8F5A"/>
<path d="M18.7531 20.1392C18.4931 19.8793 18.4931 19.4576 18.7531 19.1975L19.8311 18.1196C20.0911 17.8595 20.5128 17.8595 20.7727 18.1196C21.0329 18.3796 21.0329 18.8013 20.7727 19.0613L19.6948 20.1392C19.4348 20.3992 19.0131 20.3992 18.7531 20.1392Z" fill="#2D423A"/>
<path d="M16.3659 22.5199C16.1059 22.2599 16.1059 21.8382 16.3659 21.5781L17.4439 20.5003C17.7039 20.2401 18.1255 20.2401 18.3855 20.5003C18.6456 20.7602 18.6456 21.1819 18.3855 21.4419L17.3076 22.5199C17.0476 22.7798 16.626 22.7798 16.3659 22.5199Z" fill="#2C8F5A"/>
<path d="M9.00324 18.1258H8.33459V19.8588H5.33186V18.1258H4V22.4797H5.33186V20.7467H8.33459V22.4797H9.66631V18.7889C9.66631 18.4227 9.36951 18.1258 9.00324 18.1258ZM14.3194 18.7893C14.3194 18.4256 14.0246 18.1306 13.6608 18.1306H12.9937V20.7453C12.9923 20.9278 12.9977 21.0487 12.9937 21.1081C12.992 21.1477 12.9914 21.2058 12.9912 21.2675C12.9597 21.4511 12.801 21.5912 12.6084 21.5915L12.0995 21.5918L10.3605 21.5916L10.3642 22.4797C10.805 22.479 13.0034 22.4797 13.0034 22.4797C13.3857 22.4797 13.729 22.3162 13.9702 22.0565C13.9835 22.043 13.9949 22.03 14.0055 22.0176C14.0159 22.0055 14.026 21.9934 14.036 21.981C14.0365 21.9801 14.0372 21.9793 14.0377 21.9785C14.203 21.7703 14.3012 21.5167 14.3192 21.2514C14.3219 21.2245 14.3239 21.195 14.3239 21.1592L14.3194 18.7893ZM30.5881 19.6452L30.5791 19.6799L31.2966 19.7503L31.3035 19.7255C31.4153 19.3243 31.4325 18.989 31.4352 18.6713L31.4358 18.6721V18.3703C31.4358 18.2961 31.4063 18.2249 31.3538 18.1724C31.3013 18.1199 31.2301 18.0903 31.1559 18.0903H28.1538V18.6672H30.7082C30.707 18.984 30.6848 19.2747 30.5881 19.6452M29.7797 20.7479C28.7456 20.7479 28.1032 21.0902 28.1032 21.6413C28.1032 22.1892 28.7456 22.5297 29.7797 22.5297C30.8168 22.5297 31.4612 22.1892 31.4612 21.6413C31.4612 21.0902 30.8168 20.7479 29.7797 20.7479ZM29.7796 21.9776C29.1483 21.9776 28.8006 21.8582 28.8006 21.6413C28.8006 21.4212 29.1483 21.3 29.7796 21.3C30.4143 21.3 30.7638 21.4212 30.7638 21.6413C30.7638 21.8582 30.4143 21.9776 29.7796 21.9776Z" fill="#2D423A"/>
<path d="M31.666 19.9744H29.9619V19.181H29.2342V19.9744H27.6843V20.5562H31.946V20.2544C31.946 20.1801 31.9165 20.1089 31.864 20.0564C31.8115 20.0039 31.7402 19.9744 31.666 19.9744ZM35.7359 18.0902H35.2883V18.9083H34.5998C34.4555 18.418 33.9686 18.0902 33.3802 18.0902C32.6546 18.0902 32.1278 18.5618 32.1278 19.2116C32.1278 19.8615 32.6546 20.333 33.3802 20.333C33.9772 20.333 34.4662 19.9994 34.6053 19.5H35.2883V20.333H36.016V18.3702C36.016 18.296 35.9865 18.2247 35.934 18.1722C35.8814 18.1197 35.8102 18.0902 35.7359 18.0902ZM33.3802 19.7265C33.0431 19.7265 32.8252 19.5244 32.8252 19.2116C32.8252 18.8989 33.0431 18.6969 33.3802 18.6969C33.7205 18.6969 33.9403 18.8989 33.9403 19.2116C33.9403 19.5244 33.7205 19.7265 33.3802 19.7265ZM35.7359 20.5545H35.2933V20.966H33.5976V20.5545H32.875V22.475H36.0159V20.8345C36.0159 20.7602 35.9864 20.689 35.9339 20.6365C35.8814 20.584 35.8101 20.5545 35.7359 20.5545ZM35.2933 21.8931H33.5976V21.5478H35.2933V21.8931H35.2933ZM27.2397 20.5562V20.2544C27.2397 20.1801 27.2102 20.1089 27.1577 20.0564C27.1051 20.0039 27.0339 19.9744 26.9597 19.9744H22.978V20.5562H24.7451V20.7627C23.9205 20.8331 23.4224 21.1562 23.4224 21.6412C23.4224 22.1892 24.0647 22.5297 25.0988 22.5297C26.136 22.5297 26.7803 22.1891 26.7803 21.6412C26.7803 21.1599 26.2885 20.8378 25.4727 20.7641V20.5562H27.2397ZM26.0578 21.6412C26.0578 21.8581 25.7172 21.9775 25.0988 21.9775C24.4838 21.9775 24.145 21.8581 24.145 21.6412C24.145 21.4212 24.4838 21.3 25.0989 21.3C25.7173 21.3 26.0579 21.4212 26.0579 21.6412M25.1089 19.0577C25.3922 19.5051 25.9908 19.7883 26.8026 19.857L26.9478 19.8664V19.2855C26.251 19.2186 25.7934 18.9923 25.6399 18.6721H26.8611V18.3702C26.8611 18.2959 26.8316 18.2247 26.7791 18.1722C26.7266 18.1197 26.6554 18.0902 26.5811 18.0902H23.3618V18.6721H24.5779C24.4248 18.9915 23.969 19.2173 23.2752 19.2849V19.8661L23.4152 19.857C24.227 19.7883 24.8257 19.5051 25.1089 19.0577Z" fill="#2D423A"/>
</g>
</g>
<defs>
<clipPath id="clip0_17671_18628">
<rect width="32" height="10.6667" fill="white" transform="translate(4 15)"/>
</clipPath>
</defs>
</svg>
