<svg width="40" height="40" viewBox="0 0 40 40" fill="none" xmlns="http://www.w3.org/2000/svg">
<circle cx="20" cy="20" r="20" fill="#F6F8FA"/>
<path d="M27.2078 8.47381L21.7441 8.48334C21.7267 8.48337 21.7127 8.49747 21.7127 8.51482L21.7222 13.9611C21.7222 13.9785 21.7363 13.9925 21.7537 13.9925L27.2174 13.983C27.2348 13.9829 27.2488 13.9688 27.2488 13.9515L27.2393 8.50517C27.2393 8.48782 27.2252 8.47378 27.2078 8.47381Z" fill="#8BBBC0"/>
<path d="M13.6968 20.8138C14.231 22.8727 15.8247 24.3713 17.8802 24.8252C18.2476 24.9063 18.6937 24.9456 19.2182 24.9447C22.8133 24.9351 26.3971 24.9334 29.9695 24.9404C29.9895 24.9404 30 24.9509 30 24.9718V30.4373C30 30.4539 29.9869 30.4679 29.9703 30.4679C26.4573 30.4661 22.9591 30.4679 19.4748 30.4722C18.8228 30.4731 18.2642 30.4487 17.7973 30.3981C15.4259 30.1406 13.3442 29.1962 11.5523 27.5649C8.25662 24.5642 7.12808 19.7646 8.70001 15.6092C10.2588 11.4878 14.0171 8.74108 18.4205 8.49058C18.6011 8.48011 18.7862 8.47836 18.9747 8.48447C19.0044 8.48534 19.0192 8.50105 19.0192 8.5316V13.9613C19.0192 13.9832 19.0087 13.9936 18.9869 13.9936C15.4529 14.0155 12.8013 17.3662 13.6968 20.8138Z" fill="#035389"/>
<path d="M29.9686 16.7124H24.4995C24.4827 16.7124 24.469 16.7261 24.469 16.743V22.2085C24.469 22.2253 24.4827 22.239 24.4995 22.239H29.9686C29.9854 22.239 29.9991 22.2253 29.9991 22.2085V16.743C29.9991 16.7261 29.9854 16.7124 29.9686 16.7124Z" fill="#437EB2"/>
<circle cx="20" cy="20" r="19.5" stroke="black" stroke-opacity="0.05"/>
</svg>
