<svg width="40" height="40" viewBox="0 0 40 40" fill="none" xmlns="http://www.w3.org/2000/svg">
<circle cx="20" cy="20" r="20" fill="black"/>
<path d="M17.0333 17.0289C17.0333 17.3018 16.9249 17.5635 16.732 17.7564C16.539 17.9494 16.2773 18.0578 16.0045 18.0578C15.7316 18.0578 15.4699 17.9494 15.2769 17.7564C15.084 17.5635 14.9756 17.3018 14.9756 17.0289C14.9756 16.756 15.084 16.4943 15.2769 16.3014C15.4699 16.1084 15.7316 16 16.0045 16C16.2773 16 16.539 16.1084 16.732 16.3014C16.9249 16.4943 17.0333 16.756 17.0333 17.0289Z" fill="#FE0000"/>
<path d="M9.33522 19.7821L7.82594 23.6933C7.8244 23.6968 7.82191 23.6998 7.81876 23.7019C7.81562 23.7041 7.81193 23.7053 7.80813 23.7054H5.87381C5.86916 23.7055 5.86466 23.7038 5.86114 23.7008C5.85763 23.6977 5.85535 23.6935 5.85473 23.6889L5.00019 16.4416C4.99983 16.439 4.99998 16.4365 5.00062 16.434C5.00126 16.4316 5.00239 16.4293 5.00393 16.4273C5.00547 16.4253 5.00739 16.4236 5.00959 16.4223C5.01179 16.421 5.01422 16.4202 5.01673 16.4199H7.08721C7.09192 16.42 7.09644 16.4218 7.09994 16.425C7.10344 16.4281 7.1057 16.4324 7.1063 16.4371L7.49571 20.5221C7.49587 20.5246 7.49653 20.527 7.49765 20.5292C7.49877 20.5314 7.50032 20.5334 7.50223 20.535C7.50413 20.5366 7.50634 20.5378 7.50872 20.5385C7.51109 20.5393 7.5136 20.5395 7.51607 20.5392C7.51972 20.5391 7.52323 20.5379 7.52618 20.5357C7.52912 20.5336 7.53136 20.5306 7.53262 20.5272L9.10234 16.432C9.10388 16.4285 9.10637 16.4256 9.10952 16.4234C9.11267 16.4213 9.11635 16.4201 9.12015 16.4199H10.8458C10.8505 16.42 10.855 16.4218 10.8585 16.425C10.862 16.4281 10.8642 16.4324 10.8649 16.4371L11.3147 20.5399C11.3155 20.5449 11.3182 20.5493 11.3223 20.5523C11.3263 20.5553 11.3314 20.5565 11.3363 20.5558C11.3395 20.5554 11.3425 20.5542 11.3451 20.5523C11.3477 20.5504 11.3497 20.5479 11.351 20.545L12.95 16.4352C12.9515 16.4317 12.954 16.4287 12.9571 16.4266C12.9603 16.4245 12.964 16.4233 12.9678 16.4231H14.6438C14.6463 16.423 14.6488 16.4234 14.6512 16.4244C14.6535 16.4253 14.6557 16.4267 14.6575 16.4285C14.6593 16.4303 14.6607 16.4324 14.6616 16.4348C14.6625 16.4371 14.6629 16.4397 14.6629 16.4422C14.6632 16.4445 14.6632 16.4469 14.6629 16.4492L11.678 23.6933C11.6765 23.6968 11.674 23.6998 11.6709 23.7019C11.6677 23.7041 11.664 23.7053 11.6602 23.7054H9.80544C9.80073 23.7053 9.79621 23.7035 9.79271 23.7004C9.78921 23.6972 9.78695 23.6929 9.78635 23.6882L9.37212 19.7872C9.37197 19.7847 9.37131 19.7822 9.37019 19.78C9.36907 19.7778 9.36751 19.7758 9.36561 19.7742C9.36371 19.7726 9.3615 19.7714 9.35912 19.7707C9.35674 19.77 9.35424 19.7697 9.35176 19.77C9.34812 19.7701 9.3446 19.7714 9.34166 19.7735C9.33871 19.7757 9.33647 19.7786 9.33522 19.7821Z" fill="white"/>
<path d="M33.4717 20.0715C33.3088 19.8866 33.108 19.8442 32.8691 19.9443C32.2284 20.2096 32.1183 21.5592 32.1552 22.1274C32.1985 22.8057 33.0238 22.8019 33.2961 22.2884C33.3622 22.1649 33.4126 22.0336 33.4463 21.8977C33.4477 21.8884 33.4527 21.8801 33.4602 21.8745C33.4677 21.8689 33.4771 21.8665 33.4863 21.8678L34.7856 21.9371C34.8003 21.9371 34.8054 21.9448 34.8022 21.9594C34.6798 22.5313 34.3465 23.036 33.8688 23.3732C33.2961 23.7811 32.516 23.8823 31.8225 23.6914C31.1289 23.5005 30.6975 22.8642 30.6332 22.1547C30.5473 21.2003 30.854 20.1186 31.5571 19.427C32.0611 18.9328 32.7186 18.7239 33.5296 18.8002C34.5941 18.9001 35.0612 19.7044 34.9931 20.7046C34.9932 20.7102 34.9921 20.7157 34.99 20.7209C34.9879 20.726 34.9847 20.7307 34.9807 20.7346C34.9767 20.7384 34.972 20.7415 34.9668 20.7434C34.9616 20.7454 34.956 20.7463 34.9504 20.746L33.6308 20.8065C33.6015 20.8065 33.5888 20.7937 33.592 20.7645C33.6174 20.5399 33.6295 20.251 33.4717 20.0715Z" fill="white"/>
<path d="M14.3623 23.6756L15.0679 18.8856C15.0688 18.88 15.0717 18.8748 15.076 18.8711C15.0803 18.8674 15.0858 18.8653 15.0915 18.8652H16.5365C16.5427 18.8652 16.5487 18.8677 16.5531 18.8721C16.5576 18.8765 16.56 18.8825 16.56 18.8888L15.8563 23.6819C15.8554 23.6876 15.8526 23.6927 15.8482 23.6964C15.8439 23.7001 15.8385 23.7022 15.8328 23.7023H14.3858C14.3796 23.7023 14.3736 23.6998 14.3692 23.6954C14.3648 23.691 14.3623 23.685 14.3623 23.6788V23.6756Z" fill="white"/>
<path d="M18.1833 20.7422C18.1928 20.963 18.1845 21.1843 18.1585 21.4039C18.0486 22.1602 17.9375 22.9191 17.8251 23.6805C17.8239 23.6865 17.8208 23.6919 17.8161 23.6958C17.8115 23.6997 17.8057 23.702 17.7996 23.7022H16.6378C16.6344 23.7022 16.6311 23.7016 16.6279 23.7004C16.6248 23.6992 16.622 23.6973 16.6196 23.6949C16.6172 23.6925 16.6153 23.6897 16.6141 23.6866C16.6128 23.6834 16.6122 23.6801 16.6123 23.6767V23.6729L17.3122 18.8925C17.3136 18.884 17.3179 18.8762 17.3244 18.8707C17.331 18.8651 17.3393 18.862 17.3479 18.8619H18.6745C18.6911 18.8613 18.7076 18.8656 18.7217 18.8743C18.7359 18.8831 18.7471 18.8958 18.7541 18.9109C19.1422 19.6906 19.4646 20.3544 19.7212 20.9025C19.7932 21.0559 19.8569 21.2131 19.9121 21.3733C19.9499 21.4819 19.9672 21.4788 19.9643 21.3638C19.9568 21.1105 19.9685 20.8569 19.9993 20.6053C20.0671 20.0709 20.149 19.4982 20.2449 18.8874C20.2461 18.8796 20.25 18.8725 20.256 18.8674C20.2619 18.8623 20.2695 18.8594 20.2773 18.8594H21.4424C21.4476 18.8594 21.4526 18.8615 21.4563 18.8652C21.46 18.8689 21.4621 18.8739 21.4621 18.8791L20.7622 23.6684C20.761 23.6762 20.757 23.6833 20.7511 23.6884C20.7452 23.6935 20.7376 23.6964 20.7297 23.6964H19.5685C19.5574 23.6963 19.5466 23.6931 19.5373 23.6871C19.5279 23.6812 19.5205 23.6727 19.5157 23.6627C19.1763 22.9416 18.8264 22.1971 18.4658 21.4293C18.3669 21.2014 18.2819 20.9677 18.2113 20.7294C18.1922 20.6741 18.1827 20.6753 18.1833 20.7422Z" fill="white"/>
<path d="M23.3479 21.9868L23.1017 23.6717C23.1006 23.68 23.0965 23.6876 23.0901 23.6931C23.0838 23.6986 23.0757 23.7016 23.0673 23.7016H21.6223C21.5947 23.7016 21.5833 23.6882 21.5879 23.6615L22.2878 18.8855C22.2886 18.8788 22.2919 18.8726 22.2969 18.8682C22.3019 18.8637 22.3085 18.8613 22.3152 18.8613H24.4563C25.0519 18.8613 25.7066 18.9434 26.0305 19.4976C26.1877 19.7723 26.2435 20.0934 26.1883 20.405C26.0489 21.3333 25.2339 21.9359 24.3303 21.9429C24.0152 21.9429 23.7042 21.9429 23.3975 21.9429C23.3914 21.9424 23.3852 21.9432 23.3794 21.9452C23.3735 21.9472 23.3681 21.9503 23.3635 21.9544C23.3589 21.9585 23.3551 21.9635 23.3524 21.969C23.3498 21.9746 23.3482 21.9806 23.3479 21.9868ZM24.7076 20.3324C24.714 20.0868 24.4729 19.9786 24.268 19.9704C24.0733 19.9627 23.8694 19.9615 23.6565 19.9666C23.6518 19.9662 23.6471 19.9668 23.6426 19.9683C23.6382 19.9699 23.6341 19.9723 23.6305 19.9754C23.627 19.9786 23.6242 19.9824 23.6222 19.9867C23.6202 19.9909 23.6191 19.9956 23.619 20.0003L23.4917 20.8695C23.4917 20.8826 23.4974 20.8896 23.5089 20.8904C23.7237 20.9043 23.9392 20.9007 24.1534 20.8796C24.5136 20.8457 24.6983 20.6639 24.7076 20.3343V20.3324Z" fill="white"/>
<path d="M28.4651 22.7586H27.2142C27.2088 22.7586 27.2035 22.7602 27.199 22.7631C27.1945 22.766 27.1909 22.7702 27.1887 22.7751L26.7802 23.6857C26.778 23.6906 26.7745 23.6947 26.7699 23.6977C26.7654 23.7006 26.7602 23.7022 26.7548 23.7022H25.598C25.5906 23.7022 25.5835 23.6993 25.5782 23.694C25.573 23.6888 25.57 23.6816 25.57 23.6742C25.5691 23.6704 25.5691 23.6665 25.57 23.6628L27.748 18.8779C27.7502 18.873 27.7538 18.8688 27.7583 18.8659C27.7628 18.8629 27.7681 18.8613 27.7735 18.8613H29.3139C29.3205 18.8614 29.3269 18.8638 29.3319 18.8681C29.3369 18.8724 29.3402 18.8783 29.3413 18.8849L30.136 23.6698C30.1366 23.6734 30.1365 23.677 30.1357 23.6806C30.1349 23.6842 30.1334 23.6875 30.1313 23.6905C30.1291 23.6935 30.1264 23.696 30.1233 23.6979C30.1202 23.6998 30.1167 23.701 30.1131 23.7016H30.1086H28.6395C28.6327 23.7016 28.6262 23.6992 28.6212 23.6947C28.6161 23.6902 28.6129 23.6841 28.6121 23.6774L28.4899 22.7828C28.4892 22.7765 28.4864 22.7707 28.4818 22.7663C28.4773 22.7618 28.4714 22.7591 28.4651 22.7586ZM27.6233 21.6565C27.6212 21.6614 27.621 21.667 27.6229 21.672C27.6248 21.677 27.6286 21.681 27.6335 21.6833C27.6362 21.6838 27.639 21.6838 27.6418 21.6833H28.3563C28.359 21.6833 28.3617 21.6827 28.3642 21.6816C28.3666 21.6806 28.3689 21.679 28.3707 21.677C28.3726 21.6751 28.374 21.6727 28.3749 21.6702C28.3758 21.6677 28.3762 21.665 28.376 21.6623L28.2093 20.3763C28.209 20.3736 28.2082 20.3711 28.2068 20.3687C28.2055 20.3663 28.2037 20.3643 28.2016 20.3626C28.1995 20.361 28.197 20.3597 28.1944 20.359C28.1918 20.3583 28.1891 20.3582 28.1864 20.3585C28.183 20.3591 28.1798 20.3606 28.177 20.3627C28.1743 20.3648 28.172 20.3675 28.1705 20.3706L27.6233 21.6565Z" fill="white"/>
<circle cx="20" cy="20" r="19.5" stroke="black" stroke-opacity="0.05"/>
</svg>
