<svg width="40" height="40" viewBox="0 0 40 40" fill="none" xmlns="http://www.w3.org/2000/svg">
<circle cx="20" cy="20" r="20" fill="#0166FF"/>
<path d="M27.007 10.3063C28.6354 10.306 29.9988 11.611 29.9974 13.2649C29.9965 14.3673 29.9974 15.5202 29.9997 16.7234C30.0002 16.9564 29.9931 17.1449 29.9785 17.289C29.861 18.4447 29.2514 19.47 28.3134 20.1633C28.2163 20.235 28.2042 20.3799 28.3065 20.455C29.245 21.1414 29.8556 22.1705 29.9765 23.3213C29.9928 23.4763 30.0005 23.6677 29.9997 23.896C29.9957 24.9397 29.9957 26.0453 30 27.2122C30.0008 27.4339 29.9905 27.6164 29.969 27.7597C29.8547 28.5246 29.4957 29.154 28.8924 29.6482C28.4921 29.976 28.0306 30.1828 27.5083 30.2687C27.3591 30.2934 27.186 30.3057 26.9898 30.3054C22.3249 30.3031 17.6585 30.3026 12.9904 30.304C12.8125 30.304 12.6592 30.2948 12.5306 30.2765C11.2508 30.0943 10.2398 29.0712 10.0335 27.8043C10.0115 27.6677 10.0003 27.5319 10.0003 27.3975C10.0006 22.7062 10.0003 17.9892 10 13.2457C10 12.3487 10.4257 11.5213 11.1099 10.9658C11.5577 10.6023 12.0688 10.3903 12.6432 10.3292C12.7941 10.3132 12.9723 10.3052 13.1772 10.3052C17.8748 10.3069 22.4847 10.3072 27.007 10.3063ZM27.025 13.5749C27.025 13.4116 26.8927 13.2792 26.7294 13.2792H13.2626C13.0993 13.2792 12.9669 13.4116 12.9669 13.5749V27.0354C12.9669 27.1987 13.0993 27.3311 13.2626 27.3311H26.7294C26.8927 27.3311 27.025 27.1987 27.025 27.0354V13.5749Z" fill="white"/>
<circle cx="20" cy="20" r="19.5" stroke="black" stroke-opacity="0.05"/>
</svg>
