<svg width="40" height="40" viewBox="0 0 40 40" fill="none" xmlns="http://www.w3.org/2000/svg">
<circle cx="20" cy="20" r="20" fill="#034EA2"/>
<g clip-path="url(#clip0_16525_14449)">
<path d="M19.0688 16.4989V23.4604H20.598V16.2754L19.0688 16.4971V16.4989Z" fill="url(#paint0_linear_16525_14449)"/>
<path d="M8.0469 16.6376C7.56903 16.996 7.23085 17.5411 7.23085 18.2542C7.23085 19.0763 7.6352 19.7248 8.29319 20.0444C9.13313 20.4509 9.45109 20.5673 10.0448 20.8093C10.5318 21.007 10.7946 21.2158 10.7946 21.528C10.7946 21.8402 10.7266 22.0545 10.5006 22.2208C10.291 22.376 10.0337 22.4388 9.67532 22.4388C9.3739 22.4388 9.13864 22.3372 8.95669 22.2005C8.83354 22.1081 8.749 21.964 8.69753 21.8107C8.66997 21.722 8.65159 21.6222 8.64423 21.5114L8.63872 21.4264H7.13344C7.13344 21.4264 7.10771 22.4444 7.75834 23.0171C8.18107 23.3885 8.81884 23.6212 9.66246 23.6212C10.4252 23.6212 11.0483 23.4291 11.5078 23.128C12.0573 22.7677 12.3771 22.073 12.3808 21.3451C12.3863 20.4176 11.9342 19.9909 11.3074 19.7027C10.7781 19.4588 10.1899 19.2315 9.57975 18.9581C9.00263 18.6994 8.8556 18.4075 8.8556 18.1027C8.8556 17.8348 8.96587 17.602 9.15151 17.4745C9.30957 17.3655 9.50256 17.2861 9.77641 17.2861C10.1403 17.2861 10.3884 17.4302 10.5226 17.5928C10.5778 17.6574 10.6347 17.7701 10.6807 17.8736C10.7652 18.0694 10.8553 18.1341 11.1677 18.1341H12.2595L12.254 18.038C12.2117 17.4302 12.0058 17.009 11.6493 16.693C11.2413 16.3346 10.6384 16.0852 9.8536 16.0852C9.11291 16.0852 8.51374 16.2884 8.04874 16.6395L8.0469 16.6376Z" fill="white"/>
<path d="M20.5909 16.2773H19.4826C19.014 16.2773 18.9423 16.475 18.7952 16.8298C18.6445 17.1919 16.9977 21.1363 16.9977 21.1363L16.9536 23.4624H17.6465L20.5891 16.2773H20.5909Z" fill="white"/>
<path d="M14.1765 16.2773C14.1765 16.2773 14.0736 16.2773 14.5422 16.2773C15.0109 16.2773 14.9594 16.2773 14.9594 16.2773L17.0253 21.1345L17.0694 23.4605H16.3765L13.6968 16.9018L14.1765 16.2773Z" fill="url(#paint1_linear_16525_14449)"/>
<path d="M13.9079 16.2773C13.8068 16.584 13.3988 17.2473 12.9136 17.5521V18.1304H13.4264V23.4624H14.9592V16.2773H13.9079Z" fill="white"/>
<path d="M30.2033 22.4001C29.5104 22.3834 28.7421 21.8587 28.7421 19.8486C28.7421 17.8385 29.5453 17.3379 30.2033 17.2972C30.8484 17.2566 31.1645 17.7166 31.2491 17.905C31.3501 18.1286 31.4053 18.2746 31.7398 18.2746H32.8867L32.8793 18.1766C32.7801 17.4247 32.2011 16.0815 30.2602 16.0815C28.3194 16.0815 27.1743 17.4358 27.1743 19.8486C27.1743 22.2615 28.3212 23.6157 30.2602 23.6157C32.8223 23.6157 32.8683 21.3728 32.8683 21.3728H31.4237C31.4237 21.3728 31.2619 22.4241 30.2033 22.4001Z" fill="white"/>
<path d="M23.2396 20.4805H26.2758V19.2833H23.2396V17.4709H26.0865C26.3604 17.4709 26.5809 17.2473 26.5809 16.972V16.2737H21.6313V22.74C21.6313 23.1391 21.953 23.4624 22.35 23.4624C22.3537 23.4624 22.3573 23.4624 22.361 23.4624C22.9289 23.4624 26.5809 23.4624 26.5809 23.4624V22.2652H23.2377V20.4805H23.2396Z" fill="white"/>
</g>
<circle cx="20" cy="20" r="19.5" stroke="black" stroke-opacity="0.05"/>
<defs>
<linearGradient id="paint0_linear_16525_14449" x1="19.8334" y1="16.5137" x2="19.8334" y2="23.2627" gradientUnits="userSpaceOnUse">
<stop offset="0.18" stop-color="#3D98D3"/>
<stop offset="1" stop-color="white"/>
</linearGradient>
<linearGradient id="paint1_linear_16525_14449" x1="14.601" y1="18.2172" x2="16.1858" y2="20.6429" gradientUnits="userSpaceOnUse">
<stop offset="0.09" stop-color="#3D98D3"/>
<stop offset="1" stop-color="white"/>
</linearGradient>
<clipPath id="clip0_16525_14449">
<rect width="26" height="8" fill="white" transform="translate(7 16)"/>
</clipPath>
</defs>
</svg>
