<svg width="40" height="40" viewBox="0 0 40 40" fill="none" xmlns="http://www.w3.org/2000/svg">
<circle cx="20" cy="20" r="20" fill="#0E2F68"/>
<g clip-path="url(#clip0_18553_55622)">
<path d="M32.6307 23.8159C32.3276 24.8285 31.7566 25.887 30.9308 26.5146C30.4213 26.9038 29.9601 27.0042 29.332 27.0042C22.7039 26.9707 16.2163 26.9665 9.86493 26.9916C8.88543 26.9916 8.0904 26.6025 7.47547 25.8159C6.61456 24.7071 6.16654 23.2134 6.06551 21.8577C5.95131 20.2636 6.12701 18.6946 6.79904 17.2301C7.30417 16.1381 8.23535 15 9.57064 15C15.9484 15.0126 22.515 15.0126 29.2749 15C29.5867 15 29.925 15.0921 30.2192 15.1841C30.9879 15.4226 31.6336 16.1506 32.0113 16.8201C32.4286 17.5607 32.7141 18.3556 32.8679 19.2092C33.1534 20.8117 33.0743 22.3431 32.6351 23.8117L32.6307 23.8159ZM7.33491 17.1004C6.90446 17.9414 6.63213 18.8577 6.51793 19.8577C6.34663 21.3682 6.51354 22.9623 7.10651 24.3808C7.46229 25.2218 8.0904 26.1297 9.00402 26.4603C9.07869 26.4895 9.15775 26.5063 9.23682 26.5146C9.75512 26.569 10.4623 26.5983 11.3583 26.5983C17.0157 26.5983 22.5897 26.59 28.0802 26.59C28.168 26.59 28.1812 26.5607 28.1109 26.5063C27.1621 25.7657 26.6175 24.5941 26.3232 23.4519C26.0948 22.5607 25.9982 21.6276 26.0333 20.6527C26.0992 18.9038 26.5999 16.9623 27.9045 15.7364C28.0099 15.636 28.1416 15.5649 28.2515 15.4728C28.3173 15.4142 28.3086 15.3891 28.2163 15.3933C28.146 15.3933 28.0758 15.3933 28.0055 15.3933C21.5135 15.4017 15.4608 15.4017 9.85175 15.3933C9.46961 15.3933 9.17532 15.4268 8.96449 15.5021C8.24414 15.7531 7.66873 16.4477 7.33491 17.0921V17.1004ZM29.5296 26.5858C31.2251 26.5858 32.6043 24.1004 32.6043 21.0377C32.6043 17.9749 31.2295 15.4895 29.5296 15.4895C27.8298 15.4895 26.455 17.9749 26.455 21.0377C26.455 24.1046 27.8298 26.5858 29.5296 26.5858Z" fill="#E7AA45"/>
<path d="M29.53 26.046C28.1157 26.046 26.9736 23.8034 26.9736 21.0377C26.9736 18.272 28.12 16.0293 29.53 16.0293C30.9444 16.0293 32.0864 18.272 32.0864 21.0377C32.0864 23.8034 30.94 26.046 29.53 26.046ZM29.53 25.6067C30.694 25.6067 31.6383 23.5607 31.6383 21.0418C31.6383 18.5188 30.694 16.477 29.53 16.477C28.366 16.477 27.4217 18.523 27.4217 21.0418C27.4217 23.5607 28.366 25.6067 29.53 25.6067Z" fill="#E7AA45"/>
<path d="M18.2064 18.3683C17.8463 18.6988 18.0307 19.1842 18.4392 19.3934C19.041 19.703 19.6076 20.0879 19.6779 20.7825C19.7657 21.6863 19.1859 22.5482 18.1625 22.4938C17.8419 22.4771 17.2796 22.3557 17.2621 21.9917C17.2489 21.703 17.2533 21.4101 17.2796 21.113C17.2796 21.0712 17.3148 21.0419 17.3543 21.0336C17.4158 21.021 17.4553 21.0461 17.4685 21.1089C17.5564 21.4687 17.653 22.0084 18.0615 22.1465C18.3865 22.2553 18.7335 22.1172 18.8917 21.8202C19.0893 21.452 18.9004 21.0126 18.5622 20.7992C17.9034 20.385 17.2577 20.1047 17.2928 19.2135C17.328 18.2135 18.2108 17.6402 19.2079 18.0168C19.3441 18.067 19.4143 18.1633 19.4143 18.2972C19.4187 18.5691 19.4143 18.8411 19.4143 19.1214C19.4143 19.1591 19.3836 19.1842 19.3441 19.1842C19.3441 19.1842 19.3441 19.1842 19.3397 19.1842C19.265 19.1758 19.2167 19.1382 19.1903 19.067C19.1157 18.8662 19.0366 18.6695 18.9444 18.4813C18.8082 18.2009 18.4261 18.1674 18.202 18.3683H18.2064Z" fill="#E7AA45"/>
<path d="M9.89205 21.929C9.91402 21.8913 9.92719 21.8495 9.92719 21.8035C9.91841 20.8327 9.91841 19.8495 9.92719 18.8537C9.92719 18.7365 9.91402 18.6277 9.87888 18.5273C9.8657 18.4938 9.84374 18.4729 9.80421 18.4687L9.49674 18.4269C9.46599 18.4227 9.44842 18.3976 9.45282 18.3683C9.45282 18.3683 9.45282 18.3641 9.45282 18.3599C9.49235 18.2428 9.57141 18.1633 9.6944 18.1256C10.3972 17.9081 11.3635 17.8327 12.0399 18.0922C13.9155 18.8202 13.7793 21.9373 11.7105 22.3432C11.4426 22.3976 11.1044 22.406 10.6915 22.3683C10.362 22.339 10.0063 22.339 9.62851 22.3683C9.60216 22.3683 9.57141 22.3641 9.54945 22.3474C9.45721 22.2846 9.49235 22.1549 9.58459 22.1131C9.69001 22.0671 9.83495 22.0336 9.89645 21.9332L9.89205 21.929ZM12.1673 21.3516C12.466 20.6152 12.4836 19.8537 12.2244 19.0671C12.0575 18.565 11.6666 18.1717 11.0648 18.2302C10.9155 18.247 10.8188 18.385 10.8188 18.5148C10.8145 19.4102 10.8145 20.4478 10.8188 21.6319C10.8188 22.0712 11.0868 22.1173 11.4689 22.0336C11.7852 21.9666 12.0663 21.611 12.1717 21.3516H12.1673Z" fill="#E7AA45"/>
<path d="M15.9709 20.0042C16.4278 20.1549 16.6913 20.4729 16.744 20.9331C16.8714 22.0126 16.2477 22.5231 15.1452 22.4101C14.6357 22.3599 14.1217 22.3431 13.6078 22.3683C13.5463 22.3683 13.4892 22.3264 13.4849 22.2678C13.4805 22.2093 13.5024 22.1674 13.5595 22.1298C13.6474 22.0754 13.7352 22.0293 13.8231 21.9959C13.8846 21.9708 13.9241 21.9122 13.9241 21.8494C13.9241 20.8703 13.9241 19.8369 13.9241 18.7406C13.9241 18.5105 13.8099 18.4143 13.5771 18.4561C13.5244 18.4645 13.4717 18.431 13.4629 18.3808C13.4629 18.3641 13.4629 18.3473 13.4673 18.3306C13.5376 18.1549 13.8055 18.0879 13.9768 18.067C14.4116 18.0168 14.8377 17.9959 15.2594 18.0042C16.0149 18.021 16.6649 18.2929 16.6254 19.1423C16.6078 19.544 16.3882 19.8076 15.9666 19.9331C15.8875 19.9582 15.8875 19.9833 15.9666 20.0084L15.9709 20.0042ZM14.807 18.4729V19.6444C14.807 19.749 14.8948 19.8327 15.0046 19.8369H15.0617C15.4131 19.8369 15.6986 19.5398 15.703 19.1716V18.954C15.703 18.5858 15.4175 18.2888 15.0661 18.2846H15.009C14.8992 18.2846 14.8114 18.3683 14.807 18.4729ZM14.8157 20.3934V21.9122C14.8157 22.0377 14.9256 22.1423 15.0573 22.1423H15.1056C15.501 22.1423 15.826 21.7574 15.826 21.2804V21.021C15.826 20.544 15.5054 20.159 15.1056 20.159H15.0573C14.9256 20.159 14.8157 20.2636 14.8157 20.3892V20.3934Z" fill="#E7AA45"/>
<path d="M23.284 19.5229C23.284 19.2928 23.2445 19.2886 23.1786 19.5103C22.9019 20.389 22.6384 21.2258 22.3924 22.025C22.366 22.1087 22.3221 22.184 22.265 22.2467C22.2123 22.3011 22.1245 22.3053 22.0674 22.2551C22.0542 22.2425 22.041 22.23 22.0366 22.2133C21.9795 22.1045 21.9312 21.9873 21.896 21.8618C21.6413 21.0166 21.3909 20.1881 21.1449 19.3764C21.0878 19.1881 21.0527 19.1923 21.0395 19.389C20.9912 20.1505 20.9736 20.912 20.9912 21.6693C20.9912 21.7697 21.0264 21.8743 21.0835 21.9706C21.0966 21.9915 21.1142 22.0082 21.1362 22.0166L21.347 22.0961C21.3777 22.1087 21.4041 22.1254 21.4305 22.1505C21.5007 22.2216 21.5139 22.2802 21.4656 22.3262C21.4392 22.3513 21.4129 22.3597 21.3777 22.3597C21.0439 22.3346 20.6969 22.3346 20.3411 22.3639C20.2972 22.3639 20.2621 22.3388 20.2533 22.3011C20.2401 22.23 20.2665 22.1756 20.3324 22.1338C20.4114 22.0835 20.4905 22.0375 20.5695 21.9915C20.6223 21.9622 20.653 21.912 20.6574 21.8576C20.7321 20.799 20.7804 19.7446 20.798 18.6944C20.798 18.4769 20.6969 18.3388 20.4817 18.2676C20.4334 18.2509 20.4026 18.2133 20.3939 18.1672C20.3763 18.0626 20.429 18.0124 20.5476 18.0208C20.8946 18.0501 21.2108 18.0543 21.5051 18.0292C21.6018 18.0208 21.6896 18.0794 21.716 18.1672L22.4407 20.6233C22.4495 20.6484 22.4627 20.6568 22.489 20.6526C22.5022 20.6526 22.511 20.6442 22.5154 20.6317C22.7482 19.8911 23.0029 19.071 23.2884 18.1672C23.3148 18.0794 23.4026 18.0166 23.4993 18.0166L24.4832 18.025C24.5183 18.025 24.549 18.0375 24.571 18.0584C24.6237 18.1128 24.6369 18.163 24.6018 18.2133C24.4963 18.3639 24.1845 18.2928 24.1845 18.5689C24.1801 19.6358 24.1977 20.7195 24.2416 21.8199C24.2416 21.912 24.3075 21.9957 24.3997 22.0333C24.4788 22.0626 24.5534 22.1087 24.6149 22.163C24.6589 22.2049 24.6632 22.2718 24.6149 22.3179C24.593 22.3388 24.5666 22.3513 24.5403 22.3513C24.2987 22.3639 24.0615 22.3179 23.8199 22.3262C23.53 22.3346 23.2401 22.3471 22.9502 22.3513C22.9063 22.3513 22.8712 22.3179 22.8668 22.276V22.2676C22.8799 22.1379 23.0908 22.0459 23.1962 21.9915C23.2225 21.9789 23.2401 21.958 23.2489 21.9287C23.2753 21.8492 23.2884 21.7614 23.2884 21.6651C23.2884 20.9371 23.2884 20.2174 23.2884 19.5145L23.284 19.5229Z" fill="#E7AA45"/>
<path d="M25.0061 23.7197H8.59176C8.55295 23.7197 8.52148 23.7497 8.52148 23.7867V24.1549C8.52148 24.1918 8.55295 24.2218 8.59176 24.2218H25.0061C25.0449 24.2218 25.0764 24.1918 25.0764 24.1549V23.7867C25.0764 23.7497 25.0449 23.7197 25.0061 23.7197Z" fill="#E7AA45"/>
</g>
<circle cx="20" cy="20" r="19.5" stroke="black" stroke-opacity="0.05"/>
<defs>
<clipPath id="clip0_18553_55622">
<rect width="27" height="12" fill="white" transform="translate(6.03516 15)"/>
</clipPath>
</defs>
</svg>
