<svg width="40" height="40" viewBox="0 0 40 40" fill="none" xmlns="http://www.w3.org/2000/svg">
<circle cx="20" cy="20" r="20" fill="#224534"/>
<circle cx="20" cy="20" r="20" fill="#224534"/>
<path d="M30.9964 15.2216C30.9964 14.194 30.5567 13.3973 29.6612 12.8749C26.9085 11.2766 24.153 9.68331 21.3945 8.09494C20.4645 7.56013 19.5147 7.56383 18.5797 8.10358C15.8624 9.67466 13.1423 11.247 10.4192 12.8205C9.45954 13.3739 8.99638 14.1792 9.00255 15.3006C9.01861 18.4082 9.02355 21.5158 9.00255 24.6233C8.99391 25.8202 9.4966 26.6452 10.5267 27.2307C13.1657 28.7367 15.7961 30.2588 18.4179 31.7969C19.0083 32.1428 19.611 32.3367 20.3459 32.2663C20.7107 32.2128 21.0622 32.0913 21.3822 31.9081C24.1365 30.3123 26.8916 28.7186 29.6476 27.1269C30.5443 26.6082 30.9951 25.8202 30.9976 24.7938C31.0042 21.6022 31.0038 18.4115 30.9964 15.2216ZM28.8189 26.0771C26.1436 27.6045 23.4737 29.1414 20.8091 30.6878C20.2545 31.0089 19.7481 31.0213 19.1898 30.6964C16.5096 29.1369 13.8232 27.5881 11.1307 26.0499C10.5662 25.7275 10.3266 25.2841 10.3291 24.6419C10.3414 21.5541 10.3414 18.4663 10.3291 15.3785C10.3291 14.7115 10.5761 14.2557 11.1603 13.9235C13.8537 12.3862 16.5413 10.8373 19.2232 9.27695C19.7592 8.9657 20.2483 8.97311 20.7844 9.28436C23.4671 10.8439 26.1547 12.394 28.8473 13.9346C29.1583 14.0896 29.4084 14.3444 29.5575 14.6584C29.6995 14.9153 29.6575 15.1463 29.6575 15.3698C29.6575 18.4576 29.6489 21.5454 29.6674 24.6332C29.6686 25.3113 29.392 25.7498 28.8189 26.0771Z" fill="white"/>
<path d="M20.2875 15.2974C20.1042 15.2972 19.9225 15.3332 19.7531 15.4033C19.5836 15.4733 19.4296 15.5761 19.2998 15.7057C19.1701 15.8353 19.0672 15.9892 18.997 16.1587C18.9268 16.3281 18.8906 16.5097 18.8906 16.6931C18.8906 17.0635 19.0378 17.4189 19.2998 17.6808C19.5617 17.9428 19.9171 18.09 20.2875 18.09C20.658 18.09 21.0133 17.9428 21.2753 17.6808C21.5373 17.4189 21.6845 17.0635 21.6845 16.6931C21.6841 16.3228 21.5368 15.9678 21.2749 15.7061C21.0129 15.4444 20.6578 15.2974 20.2875 15.2974ZM20.2875 17.2254C20.1464 17.2254 20.011 17.1693 19.9111 17.0695C19.8113 16.9696 19.7552 16.8342 19.7552 16.6931C19.7555 16.5521 19.8118 16.417 19.9116 16.3174C20.0114 16.2179 20.1466 16.1619 20.2875 16.1619C20.4285 16.1619 20.5637 16.2179 20.6635 16.3174C20.7633 16.417 20.8196 16.5521 20.8199 16.6931C20.8196 16.8341 20.7634 16.9693 20.6636 17.0691C20.5638 17.1689 20.4286 17.2251 20.2875 17.2254Z" fill="white"/>
<path d="M24.4698 18.6011C23.7086 18.6014 22.9787 18.9039 22.4405 19.4422C21.9022 19.9804 21.5997 20.7103 21.5994 21.4715C21.5994 22.2329 21.9017 22.9631 22.44 23.5016C22.9783 24.0401 23.7084 24.3428 24.4698 24.3432C24.8469 24.3432 25.2203 24.2689 25.5687 24.1246C25.9171 23.9803 26.2337 23.7687 26.5004 23.5021C26.767 23.2354 26.9785 22.9188 27.1229 22.5704C27.2672 22.222 27.3414 21.8486 27.3414 21.4715C27.3411 20.7101 27.0384 19.98 26.4999 19.4417C25.9614 18.9035 25.2312 18.6011 24.4698 18.6011ZM24.4698 23.108C24.0361 23.1074 23.6203 22.9347 23.3137 22.6279C23.0072 22.3211 22.8348 21.9052 22.8345 21.4715C22.8351 21.038 23.0076 20.6224 23.3142 20.3159C23.6207 20.0094 24.0363 19.8368 24.4698 19.8362C24.9035 19.8365 25.3194 20.0089 25.6262 20.3155C25.933 20.622 26.1057 21.0378 26.1063 21.4715C26.106 21.9054 25.9335 22.3215 25.6266 22.6283C25.3198 22.9352 24.9037 23.1077 24.4698 23.108Z" fill="white"/>
<path d="M16.2166 18.6011C15.4554 18.6014 14.7255 18.9039 14.1873 19.4422C13.649 19.9804 13.3465 20.7103 13.3462 21.4715C13.3462 22.2329 13.6486 22.9631 14.1868 23.5016C14.7251 24.0401 15.4552 24.3428 16.2166 24.3432C16.9782 24.3432 17.7086 24.0406 18.2472 23.5021C18.7857 22.9635 19.0883 22.2331 19.0883 21.4715C19.0879 20.7101 18.7853 19.98 18.2467 19.4417C17.7082 18.9035 16.978 18.6011 16.2166 18.6011ZM16.2166 23.108C15.7829 23.1074 15.3671 22.9347 15.0606 22.6279C14.754 22.3211 14.5816 21.9052 14.5813 21.4715C14.582 21.038 14.7545 20.6224 15.061 20.3159C15.3675 20.0094 15.7831 19.8368 16.2166 19.8362C16.6503 19.8365 17.0662 20.0089 17.373 20.3155C17.6798 20.622 17.8525 21.0378 17.8532 21.4715C17.8528 21.9054 17.6803 22.3215 17.3735 22.6283C17.0666 22.9352 16.6506 23.1077 16.2166 23.108Z" fill="white"/>
<path d="M12.6594 16.4744H11.4243V24.2717H12.6594V16.4744Z" fill="white"/>
<path d="M20.8953 18.5986H19.6602V24.2703H20.8953V18.5986Z" fill="white"/>
<path d="M28.0615 16.1558H27.197V17.2167H26.136V18.0813H27.197V19.1435H28.0615V18.0813H29.1237V17.2167H28.0615V16.1558Z" fill="white"/>
<circle cx="20" cy="20" r="19.5" stroke="black" stroke-opacity="0.05"/>
<circle cx="20" cy="20" r="19.5" stroke="black" stroke-opacity="0.05"/>
</svg>
