<svg width="40" height="40" viewBox="0 0 40 40" fill="none" xmlns="http://www.w3.org/2000/svg">
<circle cx="20" cy="20" r="20" fill="#17479C"/>
<path d="M21.9056 10.4736H22.3421C23.0346 10.506 23.7231 10.5976 24.4 10.7473C24.8429 10.8436 25.2765 10.9787 25.6958 11.1509C28.1368 12.1685 29.9037 13.9042 30.9966 16.358C31.0055 16.3792 30.9966 16.3895 30.976 16.3895H27.3309C27.3194 16.3896 27.3082 16.3933 27.2989 16.4002C27.2897 16.4071 27.2829 16.4168 27.2796 16.4278L26.0194 20.6675C26.0064 20.7119 25.9927 20.7119 25.9797 20.6675L24.7174 16.4257C24.7144 16.4157 24.7082 16.407 24.6999 16.4007C24.6915 16.3944 24.6814 16.391 24.6709 16.3908H13.3079C13.3031 16.3908 13.2985 16.389 13.295 16.3857C13.2916 16.3824 13.2896 16.3778 13.2894 16.3731C13.289 16.3708 13.289 16.3685 13.2894 16.3662C13.6976 15.3882 14.2701 14.4872 14.982 13.7021C14.9854 13.6987 14.9873 13.694 14.9873 13.6891C14.9873 13.6843 14.9854 13.6796 14.982 13.6761C14.9802 13.6745 14.9782 13.6732 14.976 13.6724C14.9737 13.6716 14.9714 13.6712 14.969 13.6713C13.9656 13.6873 13.0306 13.7386 12.164 13.8253C11.5187 13.893 10.8778 13.997 10.2442 14.1366C9.88583 14.221 9.5334 14.3291 9.18928 14.4602C8.91688 14.5564 8.66386 14.7005 8.44219 14.8857C7.92018 15.3222 8.21163 15.8209 8.68027 16.1042C9.387 16.5304 10.1991 16.7302 10.9968 16.8745C12.205 17.0928 13.4488 17.168 14.6912 17.1728C16.6251 17.1801 18.5505 17.1817 20.4675 17.1776C20.4741 17.1767 20.4808 17.1773 20.4871 17.1795C20.4934 17.1816 20.4991 17.1851 20.5038 17.1898C20.5086 17.1945 20.5121 17.2003 20.5142 17.2066C20.5163 17.2129 20.517 17.2196 20.5161 17.2262V18.5726C20.5161 18.5795 20.5133 18.5861 20.5085 18.591C20.5036 18.5959 20.497 18.5986 20.4901 18.5986C18.761 18.5986 16.9181 18.5986 14.9615 18.5986C14.0794 18.6027 13.1978 18.5584 12.3206 18.4659C11.4829 18.3746 10.6541 18.2144 9.84264 17.987C9.43084 17.871 9.02926 17.7213 8.64196 17.5395C7.95781 17.2248 7.14641 16.6994 7 15.9208V15.5849C7.2203 14.8111 7.95781 14.389 8.68985 14.1236C9.27707 13.9095 9.88252 13.7492 10.4987 13.6447C12.1099 13.371 13.7006 13.2937 15.3288 13.2773C15.3422 13.2775 15.3554 13.2751 15.3678 13.27C15.3802 13.2649 15.3913 13.2574 15.4007 13.2479C16.8538 11.8167 18.7211 10.88 20.737 10.5708C20.9085 10.5425 21.2981 10.5101 21.9056 10.4736Z" fill="white"/>
<path d="M8.62405 17.7372L8.86556 17.8473C8.87659 17.8516 8.88586 17.8594 8.89183 17.8696C8.8978 17.8798 8.90011 17.8918 8.8984 17.9034C8.82998 18.7928 11.7212 19.1814 12.3363 19.2615C13.0402 19.3438 13.7484 19.3829 14.4571 19.3785C16.4129 19.3867 18.424 19.3883 20.4906 19.3833C20.4979 19.3833 20.5049 19.3861 20.51 19.3913C20.5151 19.3964 20.518 19.4034 20.518 19.4106V20.744C20.5188 20.7499 20.5182 20.756 20.5163 20.7616C20.5144 20.7673 20.5112 20.7724 20.5069 20.7766C20.5027 20.7808 20.4975 20.7839 20.4918 20.7857C20.4861 20.7876 20.4801 20.788 20.4742 20.7871C18.736 20.7871 16.9394 20.7871 15.0845 20.7871C14.0019 20.7914 12.9218 20.6835 11.8615 20.4649C11.4401 20.3731 11.0249 20.2549 10.6184 20.1112C9.77206 19.8197 7.92554 18.9283 8.59258 17.7454C8.59572 17.7402 8.60076 17.7364 8.60665 17.7349C8.61253 17.7333 8.61878 17.7342 8.62405 17.7372Z" fill="white"/>
<path d="M22.3343 29.6981H21.5427C19.3411 29.5298 17.436 28.7426 15.8273 27.3365C14.5771 26.2418 13.6572 24.868 13.0675 23.2151C13.0545 23.1775 13.0675 23.1673 13.1017 23.1844C14.0266 23.6256 15.0966 23.7734 16.1338 23.7761C18.4791 23.7816 20.8793 23.7816 23.3345 23.7761C23.3391 23.7768 23.3439 23.7764 23.3484 23.775C23.3528 23.7735 23.3569 23.771 23.3602 23.7677C23.3635 23.7643 23.366 23.7603 23.3675 23.7558C23.369 23.7513 23.3694 23.7466 23.3687 23.7419V19.1143C23.3687 19.0165 23.3844 19.0145 23.4152 19.1075L24.9593 23.7597C24.9609 23.7662 24.9648 23.7718 24.9702 23.7757C24.9756 23.7796 24.9821 23.7815 24.9888 23.7809H26.9926C27.0029 23.7809 27.0129 23.7776 27.0213 23.7716C27.0296 23.7656 27.0359 23.7572 27.0392 23.7474L28.5806 19.1068C28.6093 19.0206 28.6237 19.0234 28.6237 19.1143V23.7399C28.6237 23.7508 28.628 23.7612 28.6357 23.7689C28.6434 23.7766 28.6538 23.7809 28.6647 23.7809H30.9819C30.9857 23.7809 30.9894 23.7824 30.9921 23.7851C30.9948 23.7878 30.9963 23.7915 30.9963 23.7953C30.9967 23.7971 30.9967 23.799 30.9963 23.8008C30.3912 25.2528 29.4354 26.532 28.2145 27.5239C26.6378 28.8174 24.8063 29.5305 22.7201 29.6633C22.5892 29.671 22.4606 29.6826 22.3343 29.6981Z" fill="white"/>
<path d="M9.74306 19.9526C9.74898 19.9418 9.75893 19.9338 9.77072 19.9303C9.78251 19.9269 9.7952 19.9282 9.806 19.9341L10.0112 20.0442C10.022 20.0493 10.0309 20.0575 10.0369 20.0678C10.0429 20.078 10.0456 20.0899 10.0448 20.1017C10.037 20.3033 10.1456 20.4771 10.3704 20.623C10.5334 20.7314 10.7069 20.8231 10.8883 20.8967C12.2915 21.4372 13.9116 21.5808 15.4236 21.5767C17.0295 21.5722 18.7202 21.5722 20.4958 21.5767C20.499 21.5764 20.5023 21.5768 20.5053 21.5779C20.5083 21.579 20.5111 21.5807 20.5133 21.5831C20.5155 21.5854 20.5172 21.5881 20.5182 21.5912C20.5192 21.5943 20.5195 21.5975 20.5191 21.6007V22.9464C20.52 22.9531 20.5194 22.9599 20.5172 22.9663C20.515 22.9727 20.5114 22.9785 20.5067 22.9832C20.5019 22.988 20.4961 22.9916 20.4897 22.9938C20.4833 22.9959 20.4765 22.9966 20.4698 22.9957H16.2247C15.7937 22.9957 15.3839 22.9539 14.9604 22.9457C14.3367 22.9237 13.7157 22.8535 13.1029 22.7357C12.5858 22.6357 12.0778 22.4931 11.5841 22.3095C10.7276 21.9989 9.09243 21.1341 9.74306 19.9526Z" fill="white"/>
<circle cx="20" cy="20" r="19.5" stroke="black" stroke-opacity="0.05"/>
</svg>
