<svg width="40" height="40" viewBox="0 0 40 40" fill="none" xmlns="http://www.w3.org/2000/svg">
<circle cx="20" cy="20" r="20" fill="#EF8200"/>
<g clip-path="url(#clip0_19631_63565)">
<path fill-rule="evenodd" clip-rule="evenodd" d="M12.0347 21.1339C12.0594 21.267 12.2127 22.177 12.3891 23.2123C11.4698 23.0483 10.8059 22.8486 10.8059 22.8486L9.66218 23.9211C10.6542 24.0356 11.6153 24.113 12.5469 24.161C13.1753 24.195 13.7758 24.2152 14.3654 24.2229C14.3963 24.226 14.4273 24.226 14.4536 24.226H14.7059L14.9535 24.2291H15.0046C15.7319 24.2291 16.4377 24.2105 17.1171 24.178L17.5396 24.1564L17.5581 24.1548L17.959 24.13L17.9853 24.127L18.3706 24.1006L18.4078 24.0975C18.5331 24.0867 18.6569 24.0774 18.7792 24.065C19.6025 23.9954 20.3733 23.9025 21.1084 23.7958C21.1161 23.7958 21.1238 23.7958 21.1331 23.7927C21.2709 23.7725 21.4055 23.754 21.5402 23.7308C21.568 23.7246 21.5943 23.723 21.6222 23.7184C21.7522 23.6967 21.8822 23.6766 22.0091 23.6534C22.023 23.6534 22.0369 23.6503 22.0493 23.6472C22.7303 23.5311 23.3756 23.3996 23.9808 23.2649L24.0628 23.2464L24.151 23.2262L24.2377 23.2061L24.5781 23.1241L24.7267 23.0885L24.9279 23.0343L25.0579 23.0003L25.2622 22.9492L25.3752 22.9183C25.6119 22.8533 25.8363 22.7883 26.0577 22.7233L26.1412 22.7L26.3424 22.6381L26.4198 22.6134C26.5808 22.5639 26.7371 22.5174 26.8872 22.4648L27.2896 22.3302C28.5927 21.8814 29.515 21.4511 30.0288 21.1664C29.9793 21.4991 29.8741 22.2342 29.8431 22.4664H28.7598L28.181 26.4902H26.6829L26.8438 25.3666L26.9259 24.794L27.0125 24.1966L27.0946 23.624L27.2215 22.7325C26.3873 23.039 25.7466 23.2324 25.7466 23.2324C25.7466 23.2324 25.615 23.282 25.3566 23.3624L25.2947 23.7803L25.2359 24.192L25.2142 24.3436H23.3122L23.1713 25.3341H25.2668L25.1028 26.4902H21.6408L21.9797 24.1192C21.7708 24.1548 21.5525 24.1889 21.3219 24.2183C21.3916 24.4535 21.404 24.7135 21.3544 25.0045C21.2771 25.5229 21.0233 25.9547 20.6209 26.2518C20.1643 26.5908 19.5453 26.7316 18.9216 26.6387C18.3041 26.5505 17.7206 26.2518 17.1805 25.7597L17.4483 25.3233L17.6773 24.9472L17.8738 24.6268C18.1663 24.9147 18.5316 25.2614 18.9881 25.3403C19.1816 25.3743 19.4602 25.4053 19.6536 25.2675C19.7527 25.1995 19.8161 25.1004 19.8393 24.9797C19.8424 24.9472 19.8455 24.9147 19.8455 24.8806C19.8455 24.7058 19.7542 24.5541 19.5793 24.4256C19.0408 24.4721 18.2019 24.534 17.1898 24.5773C17.1975 24.712 17.1867 24.8528 17.1619 25.0045C17.0846 25.5229 16.8338 25.9547 16.4315 26.2518C15.9734 26.5908 15.3543 26.7316 14.7291 26.6387C14.1116 26.5505 13.5297 26.2518 12.9896 25.7597L13.6829 24.6268C13.9769 24.9147 14.3391 25.2614 14.7972 25.3403C14.9906 25.3743 15.2692 25.4053 15.4658 25.2675C15.5617 25.1995 15.6236 25.1004 15.6453 24.9797C15.6515 24.9472 15.6546 24.9147 15.6546 24.8806C15.6546 24.7878 15.6298 24.7042 15.5818 24.6253C14.6378 24.6361 13.6272 24.6268 12.6166 24.5711C12.7775 25.509 12.9137 26.3168 12.9416 26.4902H11.5286C11.4961 26.2781 11.3506 25.1592 11.3506 25.1592H9.85099L9.29385 26.4902H7.85456C8.09599 25.964 10.1419 21.3552 10.2441 21.1339H12.0347ZM14.449 21.3134C14.8916 20.9775 15.523 20.8383 16.1777 20.9358C16.7069 21.0286 17.0629 21.1911 17.4297 21.4929C17.3244 21.691 17.035 22.2512 16.8834 22.5422C16.563 22.2683 16.2721 22.1042 16.0198 22.064C15.8186 22.0284 15.6298 22.0655 15.5091 22.1661C15.41 22.2512 15.3543 22.3704 15.3543 22.5112C15.3543 22.7975 15.6484 22.9693 15.7737 23.0405L15.8124 23.0606L16.0709 23.1875L16.173 23.2402C16.3479 23.3175 16.4996 23.4104 16.6296 23.511C15.5741 23.5017 14.6548 23.4599 13.9862 23.4104L13.8918 23.4011C13.8083 23.22 13.768 23.0127 13.768 22.7743C13.768 22.6939 13.7696 22.6118 13.7788 22.5236C13.8408 22.0175 14.0744 21.5997 14.4474 21.3134H14.449ZM18.6399 21.3134C19.0825 20.9775 19.714 20.8398 20.3686 20.9358C20.8979 21.0286 21.2538 21.1896 21.6222 21.4929C21.5138 21.6925 21.226 22.2497 21.0743 22.5422C20.754 22.2698 20.463 22.1027 20.2077 22.0624C20.0096 22.0284 19.8223 22.0655 19.7 22.1661C19.601 22.2497 19.5453 22.372 19.5453 22.5112C19.5453 22.7975 19.8393 22.9693 19.9662 23.0405L19.9771 23.0452L20.3671 23.2402C20.4568 23.2804 20.5373 23.3268 20.6178 23.3717C19.7712 23.4414 18.9309 23.48 18.1323 23.4986C18.0162 23.2959 17.9559 23.0545 17.9559 22.7743C17.9559 22.6939 17.9621 22.6118 17.9713 22.5252C18.0333 22.0191 18.2654 21.5981 18.6399 21.3134ZM25.8147 21.1339L25.6491 22.2884H23.6078L23.5025 23.0096C23.0491 23.0916 22.5817 23.1597 22.1112 23.22L22.1484 22.9631L22.2505 22.2481L22.4099 21.1339H25.8147ZM29.6187 21.1339C28.4518 21.6987 27.1952 22.1166 26.1521 22.4075L26.2047 22.0423L26.2666 21.6198L26.3409 21.1339H29.6187ZM36.3679 14.2856C35.5059 17.8498 32.4153 19.7936 30.5999 20.8321L30.521 20.7253C31.2654 20.1186 33.8221 18.2336 34.6392 15.1059L36.3679 14.2856ZM12.6352 14.8923L12.3875 16.6102L12.2947 17.2695L11.8644 20.2486H10.388L11.1587 14.8923H12.6352ZM26.6411 14.8923C26.6009 15.191 26.5096 15.8116 26.4771 16.0468H24.4342L24.2949 17.0234H26.1985C26.1552 17.3159 26.0747 17.8746 26.0437 18.1021H24.1402L23.9993 19.0925H26.0948C26.0515 19.3928 25.9648 20.0134 25.9292 20.2486H22.4703L23.2379 14.8923H26.6411ZM6.37813 14.8923L6.79909 17.9612C6.79909 17.9612 8.03409 15.1368 8.13004 14.8923H9.98718C9.98873 15.2142 9.80766 18.6422 9.75659 19.8524L9.74421 20.1666V20.2486H8.40706L8.62837 16.4987C8.62837 16.4987 7.12254 20.0118 7.02349 20.2486H5.96647L5.4929 16.4987C5.47278 16.5916 5.31028 17.4072 5.12147 18.2986L5.00694 18.8372C4.89087 19.3727 4.7748 19.8896 4.68504 20.2486H3.35254C3.49182 19.7689 4.50861 15.1678 4.59063 14.8923H6.37813ZM21.2786 14.8923C21.3343 15.2049 22.1081 19.8075 22.1871 20.2486H20.7725C20.7369 20.0381 20.6425 19.1653 20.6425 19.1653L18.9758 19.1668C18.9758 19.1668 18.6121 20.0691 18.5362 20.2502H17.0969C17.3415 19.7209 19.3859 15.1136 19.4896 14.8908L21.2786 14.8923ZM15.5199 14.8923C15.9718 14.8923 16.5816 14.9774 16.936 15.3875C17.1341 15.6135 17.23 15.9168 17.23 16.2945C17.23 16.409 17.2223 16.5297 17.2037 16.6581C17.0737 17.6749 16.5615 17.8699 15.9053 17.9922L16.9886 20.2486H15.5555L14.4428 17.6455L14.4397 17.6765L14.0806 20.1852L14.0698 20.2486H12.728L13.0685 17.8699L13.166 17.1936L13.4956 14.8923H15.5199ZM20.2247 16.0716L19.3797 18.0603H20.5002L20.2262 16.0716H20.2247ZM15.0216 15.8983H14.6919L14.5171 17.1302L14.4923 17.305H14.9643C15.2197 17.3004 15.3915 17.2137 15.4425 17.1859L15.458 17.1766C15.7273 17.0481 15.7706 16.6396 15.7706 16.6396C15.8047 16.409 15.7644 16.2295 15.6546 16.101C15.4967 15.9215 15.2475 15.8983 15.0216 15.8983Z" fill="white"/>
</g>
<circle cx="20" cy="20" r="19.5" stroke="black" stroke-opacity="0.05"/>
<defs>
<clipPath id="clip0_19631_63565">
<rect width="34.2857" height="12.3811" fill="white" transform="translate(2.85742 14.2856)"/>
</clipPath>
</defs>
</svg>
