<svg width="40" height="40" viewBox="0 0 40 40" fill="none" xmlns="http://www.w3.org/2000/svg">
<circle cx="20" cy="20" r="20" fill="#004499"/>
<g clip-path="url(#clip0_19604_30698)">
<path d="M3.59259 21.8314H5.75194C6.21488 21.8314 6.5209 21.6402 6.65908 21.2506L7.17979 19.2935H6.73168C6.4928 19.2935 6.35618 19.3262 6.2906 19.4972L5.85733 21.1132C5.83867 21.1727 5.80114 21.2244 5.75043 21.2606C5.69971 21.2968 5.63857 21.3155 5.57628 21.3138H5.21405L5.75506 19.2935H5.31007C5.07119 19.2935 4.93379 19.3262 4.86977 19.4996L4.38185 21.3138H4.01806C3.8869 21.3138 3.81977 21.2147 3.85646 21.0851L4.33813 19.2935H3.88846C3.64099 19.2935 3.49813 19.3294 3.44192 19.5206L3.02738 21.0593C2.9134 21.4864 3.16556 21.8314 3.59259 21.8314Z" fill="white"/>
<path d="M22.4763 19.2935H20.3154C19.8517 19.2935 19.5457 19.4847 19.4083 19.8743L18.8876 21.8314H19.3341C19.5722 21.8314 19.7096 21.7986 19.7744 21.6277L20.2077 20.0117C20.2263 19.9522 20.2639 19.9005 20.3146 19.8643C20.3653 19.8281 20.4264 19.8094 20.4887 19.811H20.851L20.31 21.8314H20.7549C20.9938 21.8314 21.1305 21.7979 21.1952 21.6253L21.6855 19.811H22.0493C22.1797 19.811 22.2468 19.9102 22.2109 20.0398L21.7292 21.8314H22.1781C22.4264 21.8314 22.5646 21.7955 22.6254 21.6043L23.04 20.0655C23.1547 19.6385 22.901 19.2935 22.4763 19.2935Z" fill="white"/>
<path d="M19.135 19.2935H18.6892C18.4503 19.2935 18.3137 19.3262 18.2489 19.4972L17.6244 21.8314H18.1084C18.3254 21.8314 18.4605 21.7893 18.512 21.6277L19.135 19.2935Z" fill="white"/>
<path d="M16.3807 19.8151C16.6009 19.8151 16.6696 19.8455 16.739 19.9064C16.8085 19.9673 16.8241 20.0735 16.7828 20.2233L16.7453 20.367C16.728 20.4285 16.6907 20.4825 16.6392 20.5202C16.5877 20.558 16.525 20.5775 16.4611 20.5754H15.5891L16.4681 21.6278C16.611 21.7894 16.7679 21.8276 16.9873 21.8315H17.4713L16.8413 21.0774C17.216 21.0196 17.4604 20.8034 17.5627 20.4201L17.6118 20.2405C17.6954 19.9283 17.6735 19.694 17.5455 19.5379C17.4174 19.3818 17.1856 19.3037 16.8491 19.3037H15.6562C15.344 19.3037 15.0988 19.3591 14.9341 19.4708C14.7694 19.5824 14.65 19.7682 14.5805 20.0258L14.0941 21.8378H14.5797C14.7959 21.8378 14.931 21.7956 14.9833 21.634L15.3736 20.1734C15.4127 20.0266 15.4626 19.9306 15.522 19.8869C15.6173 19.8347 15.726 19.8119 15.8342 19.8213L16.3807 19.8151Z" fill="white"/>
<path d="M8.50069 21.3138C8.24541 21.3138 8.16578 21.2794 8.08381 21.2084C8.00184 21.1373 7.98544 21.014 8.03229 20.8399L8.24307 20.0592C8.26296 19.9876 8.30633 19.9247 8.36621 19.8807C8.42608 19.8367 8.49901 19.8141 8.57329 19.8164H9.19783C9.45389 19.8164 9.53352 19.8515 9.61549 19.9218C9.69746 19.9921 9.71308 20.1162 9.66624 20.2903L9.52415 20.8211H9.59207C9.90434 20.8211 10.3962 20.736 10.5086 20.2442C10.5606 19.9564 10.5232 19.7334 10.3962 19.5752C10.2478 19.3917 9.97773 19.2988 9.58661 19.2988H8.48976C7.90972 19.2988 7.54124 19.5565 7.39682 20.0795L7.22194 20.7321C7.12514 21.0959 7.15012 21.3692 7.30001 21.5534C7.4499 21.7377 7.71923 21.8298 8.11035 21.8298H9.21032C9.79036 21.8298 10.1588 21.5722 10.3033 21.0491L10.347 20.8867C10.064 21.1506 9.69464 21.3023 9.30791 21.3138H8.50069Z" fill="white"/>
<path d="M14.0497 20.395C14.1473 20.032 14.1223 19.7587 13.9716 19.5737C13.821 19.3887 13.5524 19.2974 13.1621 19.2974H12.0629C11.4821 19.2974 11.1136 19.555 10.9699 20.078L10.9278 20.2342C11.2085 19.9749 11.5732 19.8252 11.9552 19.8126H12.7741C13.0294 19.8126 13.1098 19.8477 13.191 19.9188C13.2722 19.9898 13.2893 20.1124 13.2425 20.2865L13.0325 21.0672C13.0123 21.1386 12.9689 21.2013 12.9091 21.2453C12.8493 21.2893 12.7765 21.312 12.7023 21.3099H12.0777C11.8224 21.3099 11.7412 21.2756 11.6601 21.2046C11.5789 21.1335 11.5617 21.0109 11.6093 20.8361L11.7522 20.306H11.6741C11.3759 20.306 10.9254 20.3841 10.781 20.8009C10.705 21.1288 10.7365 21.3789 10.8755 21.5512C11.0254 21.7354 11.2957 21.8275 11.6866 21.8275H12.7866C13.3666 21.8275 13.7351 21.5699 13.8795 21.0469L14.0536 20.3934L14.0497 20.395Z" fill="white"/>
<path d="M37.9992 18.7901C38.0101 18.6167 37.9542 18.4458 37.8431 18.3123C37.6708 18.114 37.3586 18.0151 36.9063 18.0156H35.2926C34.8656 18.0156 34.5393 18.0843 34.316 18.2241C34.1044 18.3665 33.9481 18.5774 33.8734 18.8213H33.8687L33.8523 18.8775C33.8523 18.8915 33.8414 18.9033 33.8375 18.9173L33.8195 18.9954L33.6634 19.5215C33.6634 19.5215 33.4362 20.2406 34.5775 20.2406H36.2872C36.4363 20.2468 36.562 20.3272 36.5378 20.4997L36.5105 20.6785C36.5044 20.758 36.4802 20.8351 36.4395 20.9037C36.3989 20.9723 36.3431 21.0307 36.2763 21.0743C36.149 21.1524 36.0421 21.1883 35.7423 21.1883H35.0467L34.5291 21.1781C33.9233 21.1664 33.6517 20.9166 33.5182 20.6621L33.4401 20.8557C33.1755 21.5131 33.4503 21.8347 34.2348 21.8347H36.0928C36.5488 21.8347 36.9055 21.7363 37.1655 21.538C37.4254 21.3397 37.5847 21.0478 37.6448 20.6582L37.676 20.4334C37.7479 19.9556 37.4512 19.6137 37.0632 19.6137H34.7633L34.9109 19.1047C34.9632 18.9212 35.0311 18.8018 35.1123 18.7463C35.1935 18.6909 35.3332 18.6683 35.5315 18.6683H36.2708C36.3554 18.667 36.44 18.6722 36.5238 18.6839C36.5892 18.6925 36.6521 18.7151 36.708 18.7502C36.7623 18.7783 36.804 18.8256 36.8251 18.883C36.8256 18.8882 36.8256 18.8934 36.8251 18.8986C36.8276 18.9078 36.8291 18.9172 36.8298 18.9267C36.8298 18.9267 36.8766 19.1218 36.5956 19.4201H36.6916C37.1296 19.4201 37.8056 19.3599 37.961 19.0125C37.9766 18.9594 37.986 18.9047 37.9891 18.8494V18.8385C37.9891 18.8228 37.9891 18.808 37.9891 18.7971L37.9992 18.7901Z" fill="white"/>
<path d="M28.1057 18.3021C27.9316 18.1007 27.6193 18 27.1642 18H25.5513C25.1243 18 24.798 18.0703 24.5755 18.2123C24.353 18.3544 24.1906 18.5902 24.0977 18.915L23.7074 20.2827L23.2632 21.8136H23.9205C24.2133 21.8081 24.3952 21.7597 24.467 21.5552L24.8362 20.2827L25.1727 19.1015C25.2242 18.915 25.2922 18.7893 25.3733 18.7377C25.4545 18.6862 25.5943 18.6542 25.7926 18.6542H26.5327C26.8293 18.6542 26.923 18.694 27.0167 18.7705C27.1103 18.847 27.1306 18.9829 27.076 19.1734L27.0245 19.3553C27.0028 19.4256 26.9608 19.4879 26.9037 19.5344C26.8465 19.5808 26.7769 19.6092 26.7036 19.616H25.2484L25.3226 19.9587C25.3624 20.1414 25.4366 20.2398 25.709 20.2538H27.1681C27.667 20.1757 27.9933 19.9033 28.1307 19.4224L28.197 19.1937C28.3084 18.8002 28.278 18.503 28.1057 18.3021Z" fill="white"/>
<path d="M33.141 18.3763C33.0786 18.1522 32.9591 18.0101 32.6843 18H28.7739L28.8871 18.4684C28.9472 18.7167 29.062 18.8634 29.3555 18.8837H30.4641C30.4602 18.8962 30.4555 18.9079 30.4516 18.9212L30.0613 20.2889L29.6171 21.8198H30.2744C30.5679 21.8144 30.7498 21.766 30.8209 21.5614L31.1909 20.2889L31.5266 19.1078C31.5473 19.0303 31.5761 18.9552 31.6125 18.8837H33.2691L33.141 18.3763Z" fill="white"/>
</g>
<circle cx="20" cy="20" r="19.5" stroke="black" stroke-opacity="0.05"/>
<defs>
<clipPath id="clip0_19604_30698">
<rect width="35" height="3.83155" fill="white" transform="translate(3 18)"/>
</clipPath>
</defs>
</svg>
