<svg width="40" height="40" viewBox="0 0 40 40" fill="none" xmlns="http://www.w3.org/2000/svg">
<circle cx="20" cy="20" r="20" fill="#1E3360"/>
<g clip-path="url(#clip0_18553_55889)">
<path d="M33.8921 16.6404C32.7491 16.6957 31.6321 16.6994 30.5411 16.6404C30.489 16.6404 30.4369 16.6404 30.3848 16.6478C30.3661 16.6478 30.355 16.6625 30.3587 16.681L30.3661 16.8027C30.3661 16.8248 30.381 16.8396 30.4034 16.8469C30.5002 16.8691 30.6044 16.8801 30.6975 16.917C31.0289 17.0424 31.2449 17.2785 31.3379 17.6252C31.4496 18.0382 31.3082 18.5398 31.1741 18.9418C31.0699 19.2553 30.9358 19.591 30.7683 19.9487C30.3773 20.8007 29.9826 21.6453 29.5843 22.4899L29.1486 23.3935C29.1486 23.3935 29.1486 23.3972 29.1412 23.4009C29.1337 23.4046 29.1263 23.4009 29.1188 23.3935L28.847 22.9177L26.8439 19.366C26.8439 19.366 26.8327 19.3328 26.8439 19.3144C27.1939 18.4698 27.313 17.5956 27.2013 16.692C27.1678 16.4265 27.1194 16.1757 27.0524 15.9433C26.52 14.0881 24.8929 12.6497 23.0163 12.2293C22.2046 12.0522 21.3631 12.008 20.4956 12.0965C19.7137 12.1776 18.9951 12.3768 18.3435 12.7014C17.3047 13.2177 16.4335 14.0623 15.9308 15.0987C15.7521 15.4675 15.618 15.8585 15.5287 16.2642C15.5212 16.29 15.5212 16.3158 15.5212 16.3416C15.5212 16.3896 15.5101 16.4265 15.4952 16.4523C15.4877 16.4634 15.4766 16.467 15.4617 16.467C14.2628 16.3085 12.9857 16.3527 11.824 16.692C11.1054 16.9023 10.4538 17.2342 9.86551 17.6878C9.01286 18.3517 8.44319 19.2037 8.16394 20.2475C8.02246 20.7712 7.97405 21.3503 8.01501 21.9809C8.03363 22.796 8.23469 23.5484 8.61447 24.2418C9.16552 25.2413 10.1299 26.0195 11.1836 26.4732C12.0213 26.8346 12.9335 27.0191 13.9277 27.0301C14.6835 27.0375 15.4021 26.9637 16.0835 26.8125C17.0031 26.606 17.8669 26.2298 18.6749 25.6839C18.7121 25.6581 18.7233 25.6249 18.7084 25.5843L18.2355 24.1312C18.2355 24.1312 18.2355 24.1164 18.243 24.109C18.7419 23.7734 19.1701 23.4599 19.8068 23.7107C20.0786 23.8177 20.3206 23.9394 20.5328 24.0759C21.0913 24.4336 21.6275 24.7655 22.1376 25.0643C22.4131 25.2266 22.6924 25.3704 22.9716 25.4884C23.1541 25.5659 23.3812 25.6618 23.5822 25.636C24.6397 25.4958 25.6264 25.1049 26.587 24.618C26.5981 24.6106 26.613 24.618 26.6205 24.6291C27.004 25.3741 27.3987 26.1449 27.8082 26.9416C27.8268 26.9785 27.8529 27.008 27.8864 27.0301C27.8864 27.0301 27.8939 27.0338 27.8976 27.0375C27.9423 27.0596 27.9944 27.0412 28.0167 26.9969L30.1837 22.6596C30.5002 22.0363 30.8129 21.4093 31.122 20.7786C31.4831 20.0446 31.8815 19.3217 32.3172 18.6062C32.615 18.1157 32.9204 17.7026 33.2331 17.3744C33.4342 17.1641 33.665 16.9908 33.9257 16.8617C34.0225 16.8137 34.0411 16.633 33.8959 16.6404H33.8921ZM25.5035 15.9913C25.5035 15.9913 25.4998 15.9913 25.496 15.9913C25.496 15.9913 25.4998 15.9913 25.5035 15.9913ZM25.4811 15.995C25.4811 15.995 25.4811 15.995 25.4774 16.0023C25.4774 16.0023 25.4774 15.9986 25.4811 15.995ZM18.4515 16.349C18.4813 15.8216 18.5632 15.3089 18.6935 14.8037C18.8499 14.2025 19.1217 13.605 19.5722 13.1956C20.1233 12.6977 20.8382 12.5391 21.5754 12.5944C22.2716 12.646 22.8301 12.9079 23.2471 13.38C23.4966 13.664 23.6939 14.007 23.8392 14.4127C24.0142 14.9032 24.1259 15.438 24.178 16.0245C24.2822 17.0682 24.2599 18.1083 24.1147 19.1484C24.0737 19.4324 24.0179 19.6979 23.9471 19.945C23.7461 20.6495 23.4147 21.3023 22.8264 21.7154C22.3573 22.0436 21.7764 22.158 21.203 22.1395C18.9579 22.0695 18.5409 19.8934 18.4366 18.1599C18.4105 17.7395 18.4105 17.2231 18.4366 16.6072C18.4403 16.5187 18.4478 16.4339 18.4515 16.3453V16.349ZM8.0932 21.8187C8.0932 21.8187 8.0932 21.8187 8.0932 21.815C8.0932 21.815 8.0932 21.815 8.0932 21.8187ZM8.08575 21.8076C8.08575 21.8076 8.08575 21.8076 8.08203 21.8076H8.08575ZM18.8164 23.1501C18.5595 23.2571 18.3137 23.3898 18.0754 23.5226C18.0754 23.5226 18.0717 23.5226 18.068 23.5226C18.0457 23.53 18.0233 23.5152 18.0196 23.4968L17.8856 23.0395C17.8781 23.0063 17.8558 22.9915 17.8223 22.9878C17.7664 22.9841 17.718 22.9878 17.6696 22.9989C17.6361 23.0063 17.6138 23.0321 17.61 23.0653C17.5207 23.6591 17.3531 24.2308 17.1037 24.7803C16.7946 25.4626 16.2585 26.0454 15.5473 26.2888C14.959 26.4916 14.3447 26.5285 13.7117 26.3994C12.9894 26.2556 12.3713 25.8241 11.9431 25.2118C11.3139 24.3119 11.1016 23.2202 11.0384 22.1469C11.0309 21.874 11.0272 21.6047 11.0272 21.3318C11.0272 20.6532 11.1277 20.0004 11.325 19.366C11.4852 18.846 11.7309 18.3849 12.066 17.9792C12.5277 17.426 13.116 17.0904 13.8308 16.976C14.367 16.8912 14.8957 16.9244 15.4133 17.083C15.4319 17.0904 15.4468 17.1051 15.443 17.1272C15.4244 17.6215 15.4654 18.1046 15.5696 18.5693C15.9494 20.2844 17.2228 21.5752 18.8648 22.1949C19.3935 22.394 19.9334 22.5305 20.4882 22.6006C20.5031 22.6006 20.5068 22.6079 20.4919 22.619C20.4733 22.6338 20.4472 22.6411 20.4174 22.6522C19.8701 22.7702 19.3414 22.9362 18.8238 23.1464L18.8164 23.1501ZM26.3561 24.1865C26.3561 24.1865 26.3263 24.1902 26.3114 24.1865C25.9652 24.1054 25.6226 23.9873 25.2726 23.8361C24.2673 23.3935 23.2434 23.0026 22.1823 22.7407C22.1376 22.7296 22.0669 22.7186 21.9738 22.7038C21.9105 22.6928 21.8397 22.6817 21.7653 22.6633C21.8583 22.6411 21.9365 22.6301 22.0036 22.6264C22.0929 22.6227 22.1376 22.619 22.1376 22.619C23.1838 22.512 24.1333 22.1543 24.9859 21.5494C24.9859 21.5494 24.9897 21.5494 24.9934 21.5494C25.0157 21.5384 25.0418 21.5494 25.053 21.5679L25.846 23.1206L26.3747 24.1533C26.3747 24.1533 26.3747 24.1533 26.3747 24.157C26.3747 24.1681 26.371 24.1828 26.3561 24.1865ZM28.7502 23.0911C28.7502 23.0911 28.7577 23.0911 28.7651 23.0911C28.7614 23.0911 28.7577 23.0911 28.7502 23.0911ZM28.7688 23.0911C28.7688 23.0911 28.7726 23.0911 28.7763 23.0911C28.7763 23.0911 28.7726 23.0911 28.7688 23.0911ZM28.8135 23.0727C28.8135 23.0727 28.8135 23.0727 28.8172 23.069C28.8172 23.069 28.8172 23.069 28.8135 23.0727ZM28.78 23.0874C28.78 23.0874 28.7837 23.0874 28.7875 23.0874C28.7875 23.0874 28.7837 23.0874 28.78 23.0874ZM28.7912 23.0874H28.7949C28.7949 23.0874 28.7949 23.0874 28.7912 23.0874ZM28.8024 23.0837C28.8024 23.0837 28.8024 23.0837 28.8061 23.0837C28.8061 23.0837 28.8061 23.0837 28.8024 23.0837ZM28.8284 23.0542C28.8284 23.0542 28.8284 23.0542 28.8284 23.0505C28.8284 23.0505 28.8284 23.0505 28.8284 23.0542ZM28.821 23.0653C28.821 23.0653 28.821 23.0653 28.821 23.0616C28.821 23.0616 28.821 23.0616 28.821 23.0653Z" fill="white"/>
</g>
<circle cx="20" cy="20" r="19.5" stroke="black" stroke-opacity="0.05"/>
<defs>
<clipPath id="clip0_18553_55889">
<rect width="26" height="15" fill="white" transform="translate(8 12.0522)"/>
</clipPath>
</defs>
</svg>
