<svg width="40" height="40" viewBox="0 0 40 40" fill="none" xmlns="http://www.w3.org/2000/svg">
<circle cx="20" cy="20" r="20" fill="#006EBC"/>
<path d="M19.009 13.0031C18.6713 13.6145 18.3429 14.2305 17.9856 14.8301C17.9356 14.9138 17.7417 14.9443 17.6143 14.945C15.6872 14.9521 13.7594 14.9497 11.8292 14.9497H11.3781V18.8156H15.7037C15.3229 19.4848 14.986 20.0891 14.6264 20.6754C14.5795 20.7536 14.4036 20.7786 14.2863 20.7794C13.3247 20.788 12.3632 20.7841 11.3805 20.7841V24.6702H19.0559C18.6791 25.3676 18.339 25.9992 17.995 26.6583C15.0188 26.6856 12.0465 26.6856 9.03674 26.6489C9 22.0849 9 17.5569 9 13L19.009 13.0031Z" fill="white"/>
<path d="M22.8521 24.6914C23.7214 24.6539 24.6088 24.7008 25.4546 24.5351C27.5615 24.1247 28.8084 22.5721 28.928 20.3722C28.9741 19.5349 28.928 18.707 28.6669 17.9041C28.0939 16.1311 26.5561 15.0241 24.5407 14.9678C23.2117 14.9311 21.8827 14.953 20.5584 14.949H20.0894C20.4724 14.2845 20.8242 13.674 21.2245 13.0376C22.2603 13.0095 23.2477 13.0103 24.2351 13.0024C25.2006 13.0134 25.6845 13.1025 26.1645 13.2221C28.9468 13.9171 30.7245 16.0216 30.9575 18.8774C31.0794 20.3769 30.9637 21.8419 30.2813 23.2139C29.2063 25.3755 27.3575 26.3613 25.0325 26.6537C23.4298 26.6842 21.8382 26.6842 20.2105 26.6842L21.3621 24.6774L22.8521 24.6914Z" fill="white"/>
<path d="M22.7169 18.721C22.4818 18.7211 22.2539 18.8022 22.0715 18.9505C21.8891 19.0989 21.7634 19.3055 21.7154 19.5357H20.9626C20.9218 19.3406 20.825 19.1616 20.6841 19.0207C20.5431 18.8797 20.3642 18.7829 20.1691 18.7422V17.9893C20.4169 17.9378 20.6368 17.7963 20.7863 17.5921C20.9358 17.3878 21.0042 17.1354 20.9783 16.8836C20.9525 16.6318 20.8341 16.3986 20.6462 16.229C20.4583 16.0594 20.2142 15.9656 19.9611 15.9656C19.708 15.9656 19.4639 16.0594 19.276 16.229C19.0881 16.3986 18.9698 16.6318 18.9439 16.8836C18.9181 17.1354 18.9865 17.3878 19.136 17.5921C19.2854 17.7963 19.5054 17.9378 19.7532 17.9893V18.7422C19.558 18.7828 19.3789 18.8795 19.238 19.0204C19.097 19.1614 19.0003 19.3405 18.9597 19.5357H18.2068C18.1554 19.2878 18.0138 19.0679 17.8096 18.9184C17.6053 18.769 17.3529 18.7005 17.1011 18.7264C16.8494 18.7523 16.6161 18.8706 16.4465 19.0585C16.277 19.2464 16.1831 19.4905 16.1831 19.7436C16.1831 19.9967 16.277 20.2408 16.4465 20.4287C16.6161 20.6166 16.8494 20.7349 17.1011 20.7608C17.3529 20.7867 17.6053 20.7182 17.8096 20.5688C18.0138 20.4193 18.1554 20.1994 18.2068 19.9515H18.9597C19.0005 20.1466 19.0973 20.3256 19.2382 20.4665C19.3791 20.6075 19.5581 20.7043 19.7532 20.745V21.4979C19.5054 21.5494 19.2854 21.6909 19.136 21.8952C18.9865 22.0994 18.9181 22.3518 18.9439 22.6036C18.9698 22.8554 19.0881 23.0886 19.276 23.2582C19.4639 23.4278 19.708 23.5216 19.9611 23.5216C20.2142 23.5216 20.4583 23.4278 20.6462 23.2582C20.8341 23.0886 20.9525 22.8554 20.9783 22.6036C21.0042 22.3518 20.9358 22.0994 20.7863 21.8952C20.6368 21.6909 20.4169 21.5494 20.1691 21.4979V20.745C20.3641 20.7042 20.543 20.6074 20.684 20.4664C20.8249 20.3255 20.9217 20.1466 20.9626 19.9515H21.7154C21.7547 20.1408 21.8469 20.3151 21.9812 20.4541C22.1156 20.5931 22.2865 20.6912 22.4744 20.737C22.6622 20.7828 22.8591 20.7745 23.0424 20.7129C23.2256 20.6513 23.3877 20.539 23.5097 20.3891C23.6317 20.2391 23.7087 20.0577 23.7318 19.8657C23.7549 19.6738 23.7231 19.4792 23.6401 19.3046C23.5571 19.13 23.4264 18.9825 23.2629 18.8792C23.0995 18.7759 22.9102 18.7211 22.7169 18.721Z" fill="url(#paint0_radial_14382_21520)"/>
<circle cx="20" cy="20" r="19.5" stroke="black" stroke-opacity="0.05"/>
<defs>
<radialGradient id="paint0_radial_14382_21520" cx="0" cy="0" r="1" gradientUnits="userSpaceOnUse" gradientTransform="translate(19.9611 19.7436) rotate(90) scale(3.77802)">
<stop stop-color="#F7B000"/>
<stop offset="1" stop-color="#EB6100"/>
</radialGradient>
</defs>
</svg>
