<svg width="40" height="40" viewBox="0 0 40 40" fill="none" xmlns="http://www.w3.org/2000/svg">
<circle cx="20" cy="20" r="20" fill="#1E1E23"/>
<g clip-path="url(#clip0_18553_55678)">
<path d="M20.99 7.73682C23.5984 8.04795 24.7163 9.93869 24.5999 12.4517C24.5999 12.5474 24.53 12.6192 24.4369 12.6192C21.8284 12.4756 20.9201 10.2498 20.8735 7.85648C20.8735 7.78468 20.9201 7.73682 20.99 7.76075V7.73682Z" fill="white"/>
<path d="M14.7251 19.9428C13.6537 22.5755 13.7469 25.1364 14.9812 27.6015C15.0744 27.769 15.0278 27.8169 14.8648 27.7212C14.7716 27.6733 14.7018 27.6254 14.6552 27.5536C14.1661 26.9553 13.7003 26.2852 13.2345 25.5432C11.4412 22.6473 11.6275 19.153 13.7003 16.4485C15.5868 14.0313 18.9172 12.8107 21.9216 13.5047C23.4587 13.8637 24.8095 14.5817 26.0205 15.6587C26.0205 15.6587 26.0438 15.6827 26.0438 15.7066C26.0438 15.7545 26.0438 15.7545 26.0438 15.7784C26.0205 15.7784 25.974 15.7784 25.9507 15.7784C24.2505 14.845 22.4106 14.6057 20.3844 15.0365C17.8924 15.5869 15.7032 17.5973 14.7483 19.9189L14.7251 19.9428Z" fill="white"/>
<path d="M26.4863 16.5923C26.4863 16.5923 26.5329 16.5923 26.5562 16.5923L26.6959 16.712C27.0219 17.047 25.0889 19.6558 22.364 22.5517L21.2927 23.7005C18.5678 26.5964 16.0991 28.7026 15.773 28.3675L15.6333 28.2479C15.6333 28.2479 15.6333 28.2 15.6333 28.1761L26.4863 16.5923Z" fill="white"/>
<path d="M27.8837 28.7743C24.4602 31.2155 20.4776 31.383 16.891 29.1811C16.7979 29.1333 16.7746 29.0136 16.8211 28.9179C16.8211 28.8939 16.8444 28.87 16.8677 28.8461C18.6843 27.5537 20.3845 26.0698 21.9449 24.4184C22.038 24.3226 22.1778 24.3226 22.2709 24.3944L27.8837 28.4392C28.0235 28.5349 28.0235 28.6546 27.8837 28.7503V28.7743Z" fill="white"/>
</g>
<circle cx="20" cy="20" r="19.5" stroke="black" stroke-opacity="0.05"/>
<defs>
<clipPath id="clip0_18553_55678">
<rect width="16" height="23" fill="white" transform="translate(12 7.73682)"/>
</clipPath>
</defs>
</svg>
