<svg width="40" height="40" viewBox="0 0 40 40" fill="none" xmlns="http://www.w3.org/2000/svg">
<circle cx="20" cy="20" r="20" fill="#F6F8FA"/>
<path d="M15.1897 15.393H12.3188V14.3059C12.3188 14.2248 12.2866 14.147 12.2293 14.0896C12.1719 14.0322 12.0941 14 12.0129 14H10.5178C10.4776 14 10.4378 14.0079 10.4007 14.0233C10.3636 14.0387 10.3299 14.0612 10.3015 14.0896C10.2731 14.118 10.2505 14.1517 10.2352 14.1888C10.2198 14.226 10.2119 14.2657 10.2119 14.3059V15.393H7.34106C7.25993 15.393 7.18212 15.4253 7.12475 15.4826C7.06739 15.54 7.03516 15.6178 7.03516 15.699V16.8543C7.03516 17.0233 7.17164 17.1602 7.34106 17.1602H15.1897C15.2708 17.1602 15.3486 17.128 15.406 17.0706C15.4633 17.0133 15.4956 16.9355 15.4956 16.8543V15.699C15.4956 15.6178 15.4633 15.54 15.406 15.4826C15.3486 15.4253 15.2708 15.393 15.1897 15.393ZM11.291 17.6695C10.1826 17.6695 9.11953 18.1098 8.33574 18.8936C7.55196 19.6773 7.11163 20.7404 7.11163 21.8488C7.11163 22.9573 7.55196 24.0203 8.33574 24.8041C9.11953 25.5879 10.1826 26.0282 11.291 26.0282C12.3994 26.0282 13.4624 25.5879 14.2461 24.8042C15.0298 24.0204 15.4701 22.9574 15.4701 21.8491C15.4701 20.7407 15.0298 19.6777 14.2461 18.894C13.4624 18.1102 12.3994 17.6695 11.291 17.6695ZM11.291 24.0916C10.6963 24.0916 10.1259 23.8553 9.7053 23.4348C9.28475 23.0142 9.04848 22.4438 9.04848 21.8491C9.04848 21.2543 9.28475 20.6839 9.7053 20.2634C10.1259 19.8428 10.6963 19.6065 11.291 19.6065C11.8858 19.6065 12.4562 19.8428 12.8767 20.2634C13.2973 20.6839 13.5335 21.2543 13.5335 21.8491C13.5335 22.4438 13.2973 23.0142 12.8767 23.4348C12.4562 23.8553 11.8858 24.0916 11.291 24.0916ZM31.7288 15.1893H30.1993C30.1182 15.1894 30.0405 15.2217 29.9832 15.279C29.926 15.3364 29.8938 15.4141 29.8938 15.4952V18.6545H28.2462V15.4952C28.2462 15.414 28.2139 15.3362 28.1566 15.2789C28.0992 15.2215 28.0214 15.1893 27.9403 15.1893H26.4117C26.3305 15.1893 26.2527 15.2215 26.1954 15.2789C26.138 15.3362 26.1058 15.414 26.1058 15.4952V25.4846C26.1058 25.6536 26.2423 25.7905 26.4117 25.7905H27.9407C28.0219 25.7905 28.0997 25.7583 28.157 25.7009C28.2144 25.6436 28.2466 25.5658 28.2466 25.4846V20.456H29.8943V25.4846C29.8943 25.6536 30.0312 25.7905 30.2002 25.7905H31.7293C31.8104 25.7905 31.8882 25.7583 31.9456 25.7009C32.0029 25.6436 32.0352 25.5658 32.0352 25.4846V15.4952C32.0352 15.414 32.0029 15.3362 31.9456 15.2789C31.8882 15.2215 31.8099 15.1893 31.7288 15.1893ZM17.7127 14.953C17.395 14.953 17.1366 15.2114 17.1366 15.5291V16.8543C17.1366 17.172 17.3955 17.4304 17.7127 17.4304H23.8289C24.1466 17.4304 24.4049 17.1715 24.4049 16.8543V15.5291C24.4049 15.2114 24.1461 14.953 23.8289 14.953H17.7127ZM17.6774 16.8543V15.5291C17.6774 15.5093 17.6934 15.4933 17.7127 15.4933H23.8289C23.8482 15.4933 23.8642 15.5093 23.8642 15.5291V16.8543C23.8641 16.8637 23.8603 16.8726 23.8537 16.8792C23.8471 16.8857 23.8382 16.8895 23.8289 16.8896H17.7127C17.7033 16.8895 17.6944 16.8857 17.6878 16.8792C17.6812 16.8726 17.6775 16.8637 17.6774 16.8543ZM17.3545 18.6945C17.1427 18.9025 17.0345 19.1867 17.0345 19.5383V23.3282C17.0279 23.3706 17.0143 23.4666 17.0143 23.6252C17.0143 23.964 17.0849 24.5081 17.4604 24.9989C17.9122 25.5882 18.6643 25.928 19.6959 26.0089L19.7067 26.0094H23.8289C24.1466 26.0094 24.4049 25.7505 24.4049 25.4333V24.1081C24.4049 23.7904 24.1461 23.532 23.8289 23.532H20.567C19.7411 23.532 19.6418 23.0741 19.6309 23.0002V21.1351C19.6309 20.9986 19.6592 20.9017 19.7091 20.8622C19.7665 20.8175 19.8771 20.8255 19.9218 20.8363L19.9533 20.8438L19.9891 20.8448H23.8289C24.1466 20.8448 24.4049 20.5864 24.4049 20.2687V18.9434C24.4049 18.6258 24.1461 18.3674 23.8289 18.3674H18.1885C18.1428 18.3664 17.6877 18.3674 17.3545 18.694M17.8939 24.6752C17.6068 24.3034 17.555 23.8774 17.555 23.6219C17.555 23.4835 17.5705 23.3951 17.571 23.3922L17.5752 23.3687V19.5378C17.5752 19.3355 17.6261 19.1867 17.7305 19.0827C17.9042 18.9095 18.1805 18.9081 18.1852 18.9081H23.8289C23.8487 18.9081 23.8642 18.9241 23.8642 18.9434V20.2687C23.8642 20.2781 23.8605 20.2871 23.8539 20.2938C23.8473 20.3005 23.8383 20.3044 23.8289 20.3045H20.014C19.9095 20.2828 19.6239 20.2466 19.3815 20.432C19.2488 20.5337 19.0907 20.7384 19.0907 21.1351V23.0327L19.0916 23.0444C19.1222 23.4002 19.4704 24.0728 20.567 24.0728H23.8284C23.8487 24.0728 23.8642 24.0888 23.8642 24.1085V25.4333C23.8642 25.4427 23.8605 25.4518 23.8539 25.4585C23.8473 25.4652 23.8383 25.469 23.8289 25.4691H19.7326C18.8666 25.3999 18.2478 25.1331 17.8939 24.6752Z" fill="#ED1D85"/>
<circle cx="20" cy="20" r="19.5" stroke="black" stroke-opacity="0.05"/>
</svg>
