<svg width="40" height="40" viewBox="0 0 40 40" fill="none" xmlns="http://www.w3.org/2000/svg">
<circle cx="20" cy="20" r="20" fill="#074898"/>
<circle cx="20" cy="20" r="19.5" stroke="black" stroke-opacity="0.05"/>
<g clip-path="url(#clip0_17752_43906)">
<path d="M22.9394 22.9698C21.6475 22.8485 20.5842 22.1956 20.2717 20.8687C20.1551 20.3767 20.1411 19.873 20.2274 19.36C20.5562 17.3872 22.3354 16.8812 24.0634 17.0234C25.9639 17.1796 27.0226 18.3269 26.9246 20.2648C26.857 21.6289 26.0525 22.585 24.7186 22.8835C24.1893 23.0024 23.5946 23.0327 22.9394 22.9698ZM22.0533 19.0708C21.8527 19.5908 21.8317 20.1482 21.988 20.7428C22.2142 21.5986 22.9487 21.8691 23.7625 21.8108C24.6743 21.7455 25.1267 21.1555 25.2083 20.2927C25.241 19.9663 25.2177 19.6421 25.1407 19.3273C24.9681 18.6184 24.4598 18.2453 23.7439 18.1894C23.0257 18.1334 22.3238 18.3736 22.0533 19.0708Z" fill="white"/>
<path d="M18.1565 19.915C18.9214 19.9943 19.53 20.526 19.4927 21.3421C19.4391 22.5011 18.2335 22.8462 17.289 22.8509C16.1907 22.8579 15.0807 22.8555 13.9567 22.8462C13.8611 22.8462 13.7842 22.7693 13.7842 22.6737V17.4362C13.7842 17.2776 13.9124 17.147 14.0733 17.147C15.104 17.147 16.1208 17.1447 17.1235 17.147C17.8184 17.147 18.7721 17.3056 19.1219 18.0098C19.3551 18.4762 19.2735 19.0359 18.919 19.4136C18.7115 19.6352 18.455 19.7891 18.1518 19.8684C18.0702 19.8894 18.0702 19.9057 18.1542 19.915H18.1565ZM15.3979 18.2384L15.4049 19.4603C15.4049 19.4603 15.4095 19.4719 15.4165 19.4719L16.7154 19.4649C17.1724 19.4626 17.5409 19.2038 17.5386 18.889V18.7864C17.5386 18.4716 17.1654 18.2174 16.7084 18.2197L15.4095 18.2267C15.4095 18.2267 15.3979 18.2314 15.3979 18.2384ZM15.4025 20.512L15.3979 21.7642C15.3979 21.7642 15.4072 21.7852 15.4188 21.7852L16.9882 21.7899C17.429 21.7899 17.7857 21.524 17.7881 21.1929V21.1019C17.7881 20.7708 17.4336 20.5003 16.9929 20.498L15.4235 20.4933C15.4235 20.4933 15.4025 20.5026 15.4025 20.5143V20.512Z" fill="white"/>
<path d="M30.6254 21.4235C30.6277 21.4515 30.6254 21.4771 30.6137 21.4981C30.4575 21.8479 30.2919 22.1907 30.117 22.5288C30.054 22.6477 29.9748 22.7363 29.8791 22.79C29.7322 22.8483 29.59 22.6571 29.534 22.5405C28.7668 20.8801 27.995 19.2128 27.2184 17.5362C27.1555 17.3986 27.0902 17.1444 27.342 17.1444C27.6242 17.1444 27.939 17.1444 28.2865 17.1421C28.6339 17.1421 28.7342 17.2773 28.8671 17.5665C29.4524 18.8514 30.0377 20.1363 30.6254 21.4211V21.4235Z" fill="white"/>
<path d="M29.8791 22.7946C29.9771 22.741 30.0563 22.6523 30.117 22.5334C30.2942 22.1953 30.4598 21.8502 30.6137 21.5027C30.623 21.4794 30.6277 21.4537 30.6253 21.4281C30.63 21.4281 30.6347 21.4258 30.6393 21.4234C30.6463 21.4211 30.6533 21.4141 30.658 21.4071C31.2293 20.1525 31.8029 18.8956 32.3743 17.6364C32.4792 17.4032 32.5655 17.1677 32.8756 17.1584C33.2138 17.1467 33.5589 17.1467 33.9133 17.1537C34.1139 17.1584 34.1582 17.3146 34.0836 17.4732C33.335 19.0962 32.5515 20.7915 31.733 22.5544C31.6444 22.7456 31.4998 22.8412 31.3039 22.8366C30.8422 22.8249 30.3828 22.8296 29.9258 22.8482C29.9141 22.8482 29.9024 22.8459 29.8931 22.8389C29.8768 22.8296 29.8721 22.8156 29.8791 22.7993V22.7946Z" fill="#8CC63E"/>
<path d="M10.2582 17.1703C10.1556 17.2706 10.0927 17.3452 10.067 17.3919C9.88281 17.751 9.70791 18.1148 9.54468 18.4832C9.53535 18.5065 9.52836 18.5298 9.52836 18.5555C9.52602 18.5555 9.52136 18.5555 9.51903 18.5555C9.51436 18.5555 9.51203 18.5602 9.5097 18.5625C8.92206 19.845 8.35307 21.0973 7.79808 22.3239C7.70713 22.5267 7.59987 22.8112 7.33636 22.8159C6.98657 22.8229 6.6158 22.8275 6.22404 22.8275C6.1191 22.8322 6.03516 22.7483 6.03516 22.6433C6.03516 22.6153 6.04215 22.5897 6.05148 22.564C6.82567 20.8874 7.61386 19.1828 8.41603 17.4548C8.51631 17.238 8.63057 17.1633 8.88008 17.161C9.33481 17.1563 9.79186 17.161 10.2582 17.1703Z" fill="#8CC63E"/>
<path d="M9.52832 18.5577C9.52832 18.5321 9.53298 18.5088 9.54464 18.4854C9.70788 18.117 9.88277 17.7509 10.067 17.3941C10.0903 17.3475 10.1556 17.2729 10.2582 17.1726C10.3258 17.1702 10.3841 17.1866 10.4354 17.2216C10.5147 17.2752 10.5753 17.3498 10.6173 17.4384C11.4008 19.1291 12.182 20.815 12.9562 22.4917C13.0239 22.6386 13.0355 22.8368 12.807 22.8368C12.5155 22.8368 12.182 22.8368 11.8043 22.8391C11.5734 22.8391 11.4312 22.7319 11.3332 22.5173C10.7316 21.1975 10.13 19.8776 9.52832 18.5577Z" fill="white"/>
</g>
<defs>
<clipPath id="clip0_17752_43906">
<rect width="28.0832" height="6" fill="white" transform="translate(6.03516 17)"/>
</clipPath>
</defs>
</svg>
