<svg width="40" height="40" viewBox="0 0 40 40" fill="none" xmlns="http://www.w3.org/2000/svg">
<circle cx="20" cy="20" r="20" fill="#11678A"/>
<path d="M8.58753 25.2705C7.71401 25.1933 7.15418 24.9568 6.83566 24.6865C6.80671 24.8217 6.79705 25.0243 6.88875 25.2753C7.0094 25.6083 7.26036 25.9461 7.87327 26.173C9.26801 26.617 11.4977 26.7135 13.9927 25.951C13.1868 25.6807 12.4339 25.4008 11.7534 25.1402C10.8172 25.3187 9.77474 25.3718 8.58753 25.2705Z" fill="white"/>
<path d="M20.324 22.1529C25.2514 17.4523 26.8102 12.3511 28.0891 11.41C28.0698 11.3859 28.0554 11.357 28.036 11.3328C28.0216 11.3087 27.703 10.8502 26.8923 10.8068C26.3759 10.7827 25.5989 10.9564 24.5178 11.8782C22.3509 13.9051 20.295 17.3509 19.1754 19.0545C18.0557 20.7678 16.8878 22.399 15.3193 23.5669C16.1687 23.7841 17.0519 23.9578 17.9399 24.0544C18.7362 23.5235 19.5325 22.8961 20.3192 22.1481" fill="white"/>
<path d="M28.1181 10.3C27.7031 10.2469 27.2687 10.271 26.844 10.3869C27.1722 10.3724 27.5438 10.4303 27.8286 10.5558C29.5129 11.3714 30.0293 15.2564 27.901 19.2138C23.3886 27.5918 15.4545 24.2184 10.6477 22.6065C6.14983 21.1104 5.34871 23.8275 6.42975 25.2705C6.34288 25.0292 6.33323 24.8072 6.35253 24.6335C6.44905 23.7648 7.72796 23.0746 10.6912 24.1991C14.7209 25.7338 23.5044 29.4933 29.1316 23.7165C33.8805 18.8566 32.1624 10.8116 28.1181 10.3Z" fill="white"/>
<circle cx="20" cy="20" r="19.5" stroke="black" stroke-opacity="0.05"/>
</svg>
