<svg width="40" height="40" viewBox="0 0 40 40" fill="none" xmlns="http://www.w3.org/2000/svg">
<circle cx="20" cy="20" r="20" fill="#4555A5"/>
<g clip-path="url(#clip0_18001_37159)">
<path d="M24.8722 23.3122C24.0055 23.3152 23.1731 22.9696 22.5581 22.3513C21.9431 21.733 21.5959 20.8927 21.5928 20.0153C21.5897 19.1379 21.9311 18.2952 22.5418 17.6726C23.1524 17.0501 23.9824 16.6986 24.8491 16.6956C25.7158 16.6926 26.5482 17.0382 27.1632 17.6565C27.7782 18.2748 28.1255 19.1151 28.1285 19.9925C28.1316 20.8699 27.7902 21.7126 27.1796 22.3351C26.5689 22.9577 25.7389 23.3092 24.8722 23.3122ZM24.8607 22.538C25.496 22.538 26.1053 22.2708 26.5546 21.7953C27.0038 21.3198 27.2562 20.6749 27.2562 20.0024C27.2562 19.3299 27.0038 18.685 26.5546 18.2095C26.1053 17.734 25.496 17.4668 24.8607 17.4668C24.2253 17.4668 23.616 17.734 23.1668 18.2095C22.7175 18.685 22.4651 19.3299 22.4651 20.0024C22.4651 20.6749 22.7175 21.3198 23.1668 21.7953C23.616 22.2708 24.2253 22.538 24.8607 22.538Z" fill="white"/>
<path d="M6.37101 20.6184C6.36248 20.6196 6.36119 20.6233 6.36714 20.6297C7.19093 21.4945 8.01917 22.3632 8.85188 23.2357C8.85763 23.2419 8.85475 23.2479 8.84326 23.2538C8.83798 23.2566 8.83206 23.258 8.82601 23.258L7.79727 23.2577C7.78826 23.2577 7.77934 23.2559 7.77106 23.2523C7.76277 23.2487 7.7553 23.2435 7.7491 23.2369L5.03215 20.3365C5.01383 20.317 5.00371 20.2914 5.00391 20.2648L5.0054 19.9414C5.00559 19.9186 5.01699 19.9075 5.03959 19.9081C5.41035 19.9176 5.78082 19.9223 6.14474 19.8756C6.68766 19.8061 7.18567 19.5664 7.29687 18.9938C7.36209 18.6588 7.31987 18.3572 7.17021 18.089C6.96506 17.7218 6.52145 17.5506 6.11412 17.5434C5.84712 17.5389 5.48964 17.5375 5.04167 17.5393C5.01669 17.5395 5.00421 17.5271 5.00421 17.5021L5.0054 16.8052C5.0054 16.8027 5.00588 16.8003 5.00683 16.7981C5.00777 16.7958 5.00916 16.7938 5.0109 16.792C5.01264 16.7903 5.01471 16.789 5.01698 16.7881C5.01925 16.7872 5.02168 16.7867 5.02413 16.7867C5.33533 16.7909 5.64107 16.7907 5.94137 16.7862C6.15485 16.783 6.34266 16.7947 6.5048 16.8212C7.50351 16.9845 8.18111 17.6725 8.17428 18.7128C8.17348 18.8369 8.16536 18.9469 8.1499 19.0428C8.0045 19.9521 7.24722 20.4923 6.37101 20.6184Z" fill="white"/>
<path d="M11.1824 17.5399C11.1677 17.5399 11.1604 17.5471 11.1604 17.5616L11.161 19.4368C11.161 19.4429 11.1634 19.4487 11.1677 19.453C11.172 19.4573 11.1778 19.4597 11.1839 19.4597L13.7985 19.4585C13.8126 19.4585 13.8197 19.4656 13.8197 19.4797L13.8191 20.2135C13.8191 20.2203 13.8163 20.2269 13.8115 20.2317C13.8066 20.2366 13.8001 20.2393 13.7932 20.2393L11.1711 20.2396C11.1683 20.2396 11.1657 20.2407 11.1637 20.2427C11.1618 20.2448 11.1607 20.2475 11.1607 20.2503V22.416C11.1607 22.4224 11.1632 22.4285 11.1677 22.4331C11.1723 22.4376 11.1784 22.4401 11.1848 22.4401C13.3723 22.4379 14.4715 22.4384 14.4824 22.4416C14.4925 22.4448 14.4976 22.4517 14.4976 22.4624C14.4966 22.6791 14.4968 22.9155 14.4981 23.1718C14.4982 23.177 14.4972 23.1821 14.4953 23.1868C14.4933 23.1916 14.4905 23.1959 14.4868 23.1996C14.4832 23.2032 14.4789 23.2061 14.4742 23.2081C14.4694 23.2101 14.4643 23.2111 14.4592 23.2111H10.3202C10.3142 23.2111 10.3086 23.2087 10.3044 23.2045C10.3002 23.2004 10.2979 23.1947 10.2979 23.1888V16.8109C10.2979 16.805 10.3002 16.7994 10.3044 16.7953C10.3086 16.7912 10.3142 16.7889 10.3202 16.7889L14.4738 16.7886C14.4764 16.7886 14.479 16.7892 14.4814 16.7903C14.4838 16.7914 14.4859 16.793 14.4877 16.7951C14.4894 16.7971 14.4906 16.7995 14.4914 16.8021C14.4921 16.8046 14.4923 16.8073 14.4919 16.81L14.3828 17.4962C14.3782 17.5251 14.3614 17.5396 14.3322 17.5396L11.1824 17.5399Z" fill="white"/>
<path d="M18.2112 19.6559L20.0891 16.804C20.0922 16.7993 20.0965 16.7954 20.1015 16.7927C20.1064 16.79 20.112 16.7886 20.1177 16.7885L21.0617 16.7879C21.0645 16.7879 21.0672 16.7887 21.0696 16.7901C21.072 16.7915 21.074 16.7935 21.0753 16.796C21.0766 16.7984 21.0773 16.8011 21.0772 16.8039C21.0771 16.8067 21.0763 16.8094 21.0748 16.8117C20.273 18.0389 19.4773 19.2598 18.6876 20.4745C18.6522 20.5292 18.6373 20.5773 18.6373 20.6463C18.6357 21.4973 18.6358 22.3408 18.6376 23.1768C18.6378 23.1961 18.6282 23.206 18.6088 23.2066C18.3216 23.2137 18.0529 23.2127 17.8027 23.2036C17.7962 23.2034 17.7899 23.2007 17.7852 23.1961C17.7804 23.1915 17.7776 23.1853 17.7772 23.1786C17.7664 23.0172 17.7727 22.8545 17.7736 22.6919C17.777 21.9869 17.7759 21.2889 17.7703 20.5982C17.7701 20.5641 17.7535 20.5216 17.7204 20.4709C16.9219 19.2428 16.1254 18.0208 15.3308 16.8049C15.3298 16.8033 15.3292 16.8015 15.3291 16.7997C15.329 16.7978 15.3295 16.796 15.3303 16.7943C15.3312 16.7927 15.3325 16.7913 15.3341 16.7903C15.3357 16.7894 15.3375 16.7889 15.3394 16.7888L16.2703 16.7874C16.2825 16.7874 16.2944 16.7904 16.3051 16.7961C16.3158 16.8019 16.3249 16.8102 16.3316 16.8204L18.1985 19.6559C18.2028 19.6623 18.2071 19.6623 18.2112 19.6559Z" fill="white"/>
<path d="M30.7234 23.2114L29.8843 23.209C29.883 23.209 29.8817 23.2088 29.8805 23.2082C29.8792 23.2077 29.8781 23.207 29.8772 23.2061C29.8763 23.2051 29.8755 23.204 29.875 23.2028C29.8745 23.2015 29.8742 23.2002 29.8742 23.1989L29.873 16.7993C29.873 16.798 29.8733 16.7967 29.8738 16.7954C29.8743 16.7942 29.8751 16.7931 29.876 16.7922C29.8769 16.7912 29.8781 16.7905 29.8793 16.79C29.8805 16.7895 29.8818 16.7892 29.8832 16.7892L30.2795 16.7871C30.281 16.7871 30.2824 16.7874 30.2837 16.788C30.2851 16.7887 30.2863 16.7896 30.2872 16.7907L34.1328 21.3903C34.1341 21.3919 34.1359 21.393 34.1379 21.3935C34.14 21.3941 34.1421 21.394 34.144 21.3933C34.146 21.3925 34.1476 21.3912 34.1488 21.3895C34.15 21.3878 34.1507 21.3858 34.1506 21.3837L34.1509 16.7987C34.1509 16.796 34.152 16.7935 34.1539 16.7916C34.1558 16.7897 34.1584 16.7886 34.1611 16.7886L34.9843 16.7883C34.987 16.7883 34.9896 16.7894 34.9915 16.7913C34.9934 16.7932 34.9945 16.7957 34.9945 16.7984L34.9956 23.2001C34.9956 23.2014 34.9954 23.2027 34.9949 23.204C34.9944 23.2052 34.9936 23.2063 34.9927 23.2072C34.9917 23.2082 34.9906 23.2089 34.9894 23.2094C34.9882 23.2099 34.9869 23.2102 34.9855 23.2102L34.5607 23.2111C34.5592 23.2111 34.5577 23.2108 34.5564 23.2102C34.5551 23.2095 34.5539 23.2086 34.5529 23.2075L30.7522 18.6549C30.7509 18.6533 30.7491 18.6522 30.7471 18.6516C30.7451 18.6511 30.743 18.6512 30.741 18.6519C30.7391 18.6526 30.7374 18.6539 30.7362 18.6556C30.735 18.6573 30.7344 18.6594 30.7344 18.6614L30.7335 23.2013C30.7335 23.204 30.7324 23.2065 30.7305 23.2084C30.7286 23.2103 30.7261 23.2114 30.7234 23.2114Z" fill="white"/>
</g>
<circle cx="20" cy="20" r="19.5" stroke="black" stroke-opacity="0.05"/>
<defs>
<clipPath id="clip0_18001_37159">
<rect width="30" height="6.63033" fill="white" transform="translate(5 16.6848)"/>
</clipPath>
</defs>
</svg>
