<svg width="40" height="40" viewBox="0 0 40 40" fill="none" xmlns="http://www.w3.org/2000/svg">
<circle cx="20" cy="20" r="20" fill="#E50120"/>
<path d="M12.353 11.7204C11.8776 10.881 12.5504 10.0381 13.3295 10.0381L26.6041 10.0474C27.7004 10.0474 27.9928 11.0758 27.5516 11.7852L25.162 15.9194C24.7765 16.6877 23.818 16.6578 23.3945 15.9491L21.0831 11.9252C20.4469 10.8454 19.5506 10.8231 18.8926 11.9252L16.6269 15.8404C16.3089 16.4343 16.8059 17.3098 17.605 17.3098H30.8763C31.7958 17.3098 32.2399 18.3308 31.8692 18.9835L25.2912 30.3719C24.86 31.2271 23.6397 31.177 23.1648 30.3824L20.8342 26.4129C20.3567 25.568 21.0044 24.5863 21.7842 24.5863H26.7304C27.4731 24.5863 27.9098 23.8156 27.4846 23.0684L25.3134 19.2467C24.743 18.2772 23.8326 18.2243 23.2339 19.2046L16.7609 30.3477C16.3434 31.1979 15.3305 31.218 14.8493 30.4023L8.17628 19.0235C7.65227 18.0881 8.38612 17.2923 9.20323 17.2923H13.8001C14.9379 17.2923 15.2511 18.3018 14.8029 19.0316L12.4248 23.1576C12.0733 23.7866 12.6303 24.5963 13.4027 24.5963H18.1994C18.9328 24.5963 19.4146 23.923 18.9907 23.172L12.353 11.7204Z" fill="white"/>
<circle cx="20" cy="20" r="19.5" stroke="black" stroke-opacity="0.05"/>
</svg>
