<svg width="40" height="40" viewBox="0 0 40 40" fill="none" xmlns="http://www.w3.org/2000/svg">
<circle cx="20" cy="20" r="20" fill="#0E5687"/>
<g clip-path="url(#clip0_18553_55639)">
<path d="M20.0894 20.9783L21.2844 21.2514C21.2223 21.4773 21.1626 21.6586 21.1051 21.7927C21.0477 21.9292 20.9672 22.0893 20.8615 22.2729L21.4361 22.6777C21.505 22.7248 21.5969 22.7789 21.7072 22.8425L20.8845 23.8122C20.7351 23.7298 20.5789 23.6357 20.4157 23.5274C20.2525 23.4191 20.1101 23.3273 19.9814 23.2497C19.7148 23.4286 19.4505 23.5604 19.1839 23.6427C18.8163 23.7557 18.398 23.8122 17.9292 23.8122C17.1961 23.8122 16.6492 23.6569 16.2907 23.3438C15.9322 23.0308 15.7529 22.6518 15.7529 22.2046C15.7529 21.8845 15.8586 21.5809 16.0678 21.2937C16.2792 21.0089 16.6216 20.7665 17.1019 20.5688C16.902 20.3193 16.7641 20.1027 16.6882 19.9215C16.6124 19.7379 16.5756 19.552 16.5756 19.3613C16.5756 18.9612 16.725 18.6317 17.0238 18.3727C17.3225 18.1138 17.7729 17.9844 18.3796 17.9844C18.9863 17.9844 19.4528 18.1068 19.7424 18.3539C20.0319 18.6011 20.179 18.8953 20.179 19.2389C20.179 19.4319 20.1353 19.6155 20.0457 19.792C19.9561 19.9686 19.8504 20.1121 19.724 20.2228C19.5976 20.3334 19.3747 20.4982 19.0507 20.7147C19.3195 20.9901 19.5976 21.2443 19.8895 21.4797C19.9676 21.3196 20.0342 21.1525 20.0894 20.976V20.9783ZM17.7867 21.3596C17.5753 21.5103 17.4374 21.6397 17.3685 21.748C17.2995 21.8563 17.2651 21.9692 17.2651 22.0893C17.2651 22.2776 17.3432 22.4423 17.5018 22.5906C17.6603 22.7389 17.8649 22.8095 18.1176 22.8095C18.3911 22.8095 18.6968 22.7013 19.0369 22.4824C18.7105 22.2258 18.2946 21.8516 17.7867 21.3596ZM18.3314 19.9898C18.529 19.8791 18.683 19.7591 18.7887 19.6296C18.8967 19.5002 18.9495 19.3778 18.9495 19.2625C18.9495 19.1471 18.9036 19.0388 18.814 18.9565C18.7243 18.8741 18.6002 18.8317 18.4417 18.8317C18.2831 18.8317 18.159 18.8788 18.0625 18.9706C17.966 19.0624 17.9154 19.173 17.9154 19.2978C17.9154 19.4578 18.0533 19.6885 18.3291 19.9898H18.3314Z" fill="white"/>
<path d="M7 21.5384L9.29577 21.4137C9.34633 21.7362 9.44744 21.9833 9.59911 22.1528C9.84731 22.4258 10.2035 22.5647 10.6654 22.5647C11.0101 22.5647 11.2744 22.4941 11.4605 22.3552C11.6467 22.2163 11.7409 22.0539 11.7409 21.868C11.7409 21.682 11.6513 21.5361 11.4743 21.3972C11.2974 21.2584 10.886 21.1289 10.238 21.0041C9.18087 20.797 8.4248 20.524 7.97438 20.1827C7.51936 19.8414 7.29185 19.406 7.29185 18.8764C7.29185 18.528 7.40906 18.2009 7.64116 17.8902C7.87327 17.5795 8.22487 17.337 8.69138 17.1605C9.15789 16.984 9.79905 16.8945 10.6103 16.8945C11.6076 16.8945 12.3683 17.0546 12.8922 17.377C13.4162 17.6995 13.7264 18.2103 13.8276 18.9117L11.5525 19.027C11.4927 18.7234 11.3663 18.4998 11.171 18.3633C10.978 18.2244 10.7114 18.1561 10.369 18.1561C10.0886 18.1561 9.87718 18.2079 9.7347 18.3115C9.59222 18.415 9.52098 18.5398 9.52098 18.6881C9.52098 18.7963 9.57843 18.8929 9.69563 18.9799C9.80824 19.0694 10.0794 19.1518 10.5046 19.2294C11.5594 19.4271 12.3131 19.6249 12.7704 19.8273C13.2278 20.0297 13.5587 20.2792 13.7655 20.5781C13.9723 20.877 14.078 21.2113 14.078 21.5808C14.078 22.0139 13.9402 22.414 13.6621 22.7812C13.384 23.1484 12.998 23.4261 12.5016 23.6144C12.0052 23.8027 11.3778 23.8992 10.6218 23.8992C9.29347 23.8992 8.37424 23.678 7.86407 23.2355C7.3539 22.793 7.06664 22.2234 7 21.5384Z" fill="white"/>
<path d="M22.6777 17.0098H25.0539L25.9088 20.7993L27.159 17.0098H29.526L30.7807 20.7946L31.6356 17.0098H33.998L32.2147 23.7791H29.7627L28.3425 19.5188L26.9292 23.7791H24.4771L22.6777 17.0098Z" fill="white"/>
</g>
<circle cx="20" cy="20" r="19.5" stroke="black" stroke-opacity="0.05"/>
<defs>
<clipPath id="clip0_18553_55639">
<rect width="27" height="7" fill="white" transform="translate(7 16.8945)"/>
</clipPath>
</defs>
</svg>
