<svg width="40" height="40" viewBox="0 0 40 40" fill="none" xmlns="http://www.w3.org/2000/svg">
<circle cx="20" cy="20" r="20" fill="#005CA9"/>
<path d="M21.1503 13.7828C20.6945 12.9872 19.5319 13.4443 19.5319 13.4443C20.3384 13.4252 20.1719 14.0434 20.1719 14.0434C20.0354 14.7257 18.8646 15.292 18.8646 15.292C17.5873 15.827 17.227 15.247 17.227 15.247C16.9459 14.8049 17.4617 14.1867 17.4617 14.1867C18.1345 13.3161 19.3108 13.1045 19.3108 13.1045C19.4831 13.0684 19.6587 13.0496 19.8348 13.0486C19.8594 13.0486 19.918 13.0486 19.9208 13.0227C19.9235 12.9967 19.8348 13.0008 19.8348 13.0008C19.2555 12.9892 18.6803 13.0999 18.1468 13.3256C16.8122 13.8947 16.0002 14.9864 16.3304 15.7642C16.6607 16.542 18.0117 16.7099 19.3463 16.1408C20.3015 15.7315 20.9961 15.0491 21.1844 14.4078C21.2484 14.2021 21.2363 13.9803 21.1503 13.7828Z" fill="#F39200"/>
<path d="M19.5973 18.1482L20.3765 17.4986H17.5449V22.3553C17.5449 23.4102 17.1492 24.5729 15.6631 24.8362V25.4162C18.3514 25.2115 19.5959 24.0338 19.5959 22.6569V18.1537L19.5973 18.1482Z" fill="white"/>
<path d="M5 17.4986V23.7363H6.54885C6.68216 23.7356 6.80975 23.6821 6.90363 23.5874C6.99751 23.4928 7.05003 23.3647 7.04966 23.2314V18.1482L7.83023 17.4986H5Z" fill="white"/>
<path d="M11.8042 18.1482L12.5834 17.4986H9.75049V23.7363H14.8583C14.9916 23.7356 15.1192 23.6821 15.2131 23.5874C15.3069 23.4928 15.3595 23.3647 15.3591 23.2314V22.9476H11.8111L11.8042 18.1482Z" fill="white"/>
<path d="M22.2939 17.4986V23.7363H23.8469C23.9802 23.7356 24.1078 23.6821 24.2017 23.5874C24.2956 23.4928 24.3481 23.3647 24.3477 23.2314V18.1482L25.1283 17.4986H22.2939Z" fill="white"/>
<path d="M32.1655 17.4986V21.7372L28.7662 17.4986H27.0454V23.7363H28.5984C28.7317 23.7356 28.8593 23.6821 28.9531 23.5874C29.047 23.4928 29.0995 23.3647 29.0992 23.2314V19.5278L32.4766 23.7363H33.7198C33.8531 23.7356 33.9807 23.6821 34.0746 23.5874C34.1685 23.4928 34.221 23.3647 34.2206 23.2314V18.1482L34.9998 17.4986H32.1655Z" fill="white"/>
<circle cx="20" cy="20" r="19.5" stroke="black" stroke-opacity="0.05"/>
</svg>
