<svg width="40" height="40" viewBox="0 0 40 40" fill="none" xmlns="http://www.w3.org/2000/svg">
<circle cx="20" cy="20" r="20" fill="#03B8F5"/>
<path d="M14.2865 17.6377C14.3563 17.9465 14.4203 18.2422 14.4785 18.525C14.6233 19.2461 14.9059 19.9325 15.3107 20.5466C15.3206 20.594 15.3326 20.6088 15.347 20.5909C14.9575 21.1436 14.462 21.6133 13.8894 21.9728C13.3167 22.3323 12.6783 22.5744 12.0112 22.6849C10.4595 22.9628 8.73055 22.7668 7.43385 21.9332C5.78813 20.8781 5.02837 18.9801 5.00018 17.0444C4.99347 16.5773 5.17468 16.2645 5.54651 16.1048C5.85928 15.9705 6.36803 15.9799 6.65663 16.1907C6.78749 16.2888 6.89362 16.416 6.96656 16.5624C7.03951 16.7088 7.07725 16.8701 7.07678 17.0337C7.10055 17.584 7.20922 18.1273 7.39894 18.6445C8.09965 20.4674 9.9306 20.9949 11.7616 20.5909C12.8775 20.3457 13.6256 19.6647 14.006 18.5478C14.1044 18.2659 14.1979 17.9626 14.2865 17.6377Z" fill="#FDB813"/>
<path d="M16.417 17.6202C16.342 17.8446 16.2881 18.0756 16.256 18.3101C16.1207 19.0855 15.8313 19.8258 15.4049 20.4874C15.3918 20.5074 15.3724 20.5225 15.3499 20.5304L15.3109 20.5465C14.9062 19.9324 14.6236 19.246 14.4787 18.5249C14.4205 18.2421 14.3565 17.9463 14.2867 17.6376C14.2867 17.2698 14.2317 16.8322 14.421 16.5181C14.7418 15.957 15.5472 15.8469 16.0318 16.2174C16.149 16.3151 16.2418 16.4387 16.3028 16.5785C16.3639 16.7183 16.3915 16.8705 16.3835 17.0228C16.3797 17.2225 16.3909 17.4222 16.417 17.6202Z" fill="#EE1C25"/>
<path d="M25.688 17.4375C25.6119 18.562 25.2517 19.6488 24.6409 20.596C24.0506 19.6523 23.6935 18.5816 23.5993 17.4724C23.4919 16.5435 23.8132 16.0589 24.5631 16.0187C25.1349 15.9864 25.6289 16.2603 25.7054 16.8536C25.7153 17.0484 25.7095 17.2437 25.688 17.4375Z" fill="#2E3191"/>
<path d="M24.6436 20.5799V20.596C25.2543 19.6488 25.6145 18.562 25.6906 17.4375C25.8257 18.2429 26.0454 18.8734 26.3497 19.3289C27.1068 20.4524 28.3632 20.792 29.6599 20.7061C31.7338 20.5719 32.8292 19.1651 32.9151 17.1073C32.9365 16.5811 33.2104 16.0791 33.7795 16.0334C34.6163 15.9618 35.0234 16.3413 35.0011 17.1717C34.9272 20.0188 33.3218 22.2095 30.476 22.7129C30.4661 22.7138 30.4565 22.7166 30.4477 22.7211C30.4389 22.7257 30.4311 22.732 30.4247 22.7396C30.4184 22.7472 30.4136 22.756 30.4106 22.7655C30.4077 22.775 30.4066 22.7849 30.4076 22.7948C30.3977 23.5268 30.3977 24.2875 30.4076 25.0768C30.4197 25.8178 30.0666 26.3654 29.2558 26.3426C28.5256 26.3211 28.1967 25.8151 28.2048 25.1345C28.2155 24.287 28.2155 23.5036 28.2048 22.7841C28.2059 22.7658 28.1998 22.7478 28.1877 22.7339C28.1756 22.7201 28.1586 22.7116 28.1404 22.7102C27.4424 22.6143 26.7718 22.3757 26.1702 22.0092C25.5685 21.6426 25.0489 21.1561 24.6436 20.5799Z" fill="white"/>
<path d="M23.5993 17.4724C23.6935 18.5816 24.0506 19.6523 24.6409 20.596V20.5799C23.9082 21.63 22.8052 22.3638 21.5535 22.6337C19.2796 23.1371 16.7412 22.5988 15.3439 20.5907C15.3295 20.6077 15.3175 20.5929 15.3076 20.5464L15.3465 20.5303C15.3691 20.5224 15.3885 20.5073 15.4016 20.4873C15.8279 19.8257 16.1173 19.0854 16.2526 18.31C16.2848 18.0755 16.3387 17.8446 16.4137 17.6201C16.6347 19.1512 17.3721 20.1244 18.6259 20.5397C19.1208 20.7034 19.7338 20.7504 20.4649 20.6806C22.0462 20.5276 23.0306 19.7034 23.418 18.208C23.418 18.1928 23.4409 18.0693 23.4865 17.8375C23.5112 17.7122 23.549 17.5898 23.5993 17.4724Z" fill="#EE75AB"/>
<circle cx="20" cy="20" r="19.5" stroke="black" stroke-opacity="0.05"/>
</svg>
