<svg width="40" height="40" viewBox="0 0 40 40" fill="none" xmlns="http://www.w3.org/2000/svg">
<circle cx="20" cy="20" r="20" fill="#0001FE"/>
<g clip-path="url(#clip0_24563_41714)">
<path d="M30.0172 14.9662C29.2361 15.2447 28.5236 15.4486 27.8849 15.5829C27.5524 15.6525 27.0352 15.752 26.3332 15.8813C26.0113 15.941 25.7105 15.9907 25.436 16.0305C24.5071 16.1598 23.8421 16.2444 23.4462 16.2891C23.0874 16.3239 22.4382 16.3737 21.504 16.4383C21.2084 16.4582 20.9129 16.4682 20.6173 16.4682C19.889 16.4682 19.1606 16.493 18.4481 16.4383C17.9362 16.4035 17.4295 16.3637 16.9334 16.3239C16.7064 16.3041 16.4795 16.2842 16.2525 16.2543C15.6772 16.1797 15.1178 16.1101 14.5794 16.0355C13.9144 15.946 13.26 15.8067 12.6055 15.6824C11.7927 15.5331 11.0063 15.3143 10.2358 15.0457C10.0088 14.9662 9.8663 14.9114 9.8188 14.8866C9.65519 14.7921 9.36491 14.4986 9.44407 14.2898C9.54435 14.0311 9.70797 13.9217 9.96131 13.8222C10.3202 13.678 10.6474 13.5537 10.9483 13.4592C11.8402 13.1757 12.8958 13.0016 13.8722 12.8176C14.173 12.7629 14.4633 12.7131 14.7536 12.6783C15.2497 12.6137 15.7353 12.549 16.2156 12.4943C16.5111 12.4595 16.8067 12.4346 17.1075 12.4147C17.8253 12.3749 18.5853 12.3152 19.3401 12.3152C20.079 12.3152 20.8179 12.3003 21.5621 12.3401C22.3273 12.3849 23.1137 12.4048 23.8738 12.4993C24.3435 12.5589 24.771 12.6137 25.1563 12.6634C25.4624 12.7032 25.7632 12.7479 26.0482 12.8027C26.9138 12.9568 27.5208 13.0762 27.8585 13.1458C28.3124 13.2453 28.7188 13.3497 29.0777 13.4641C29.4261 13.5736 29.785 13.7078 30.1544 13.867C30.3075 13.9317 30.4236 14.0361 30.5133 14.1803C30.5714 14.2748 30.5872 14.3594 30.5608 14.434C30.4764 14.6777 30.2705 14.8717 30.0119 14.9612L30.0172 14.9662Z" fill="white"/>
<path d="M36.4091 22.2078C36.0607 22.6753 35.6438 23.1179 35.2532 23.5407C35.1846 23.6153 35.1054 23.6899 35.021 23.7645C34.4615 24.247 33.8546 24.7244 33.2054 25.1969C32.9521 25.3809 32.7093 25.5351 32.4823 25.6594C32.1551 25.8385 31.8384 26.0126 31.5323 26.1767C31.5112 26.1866 31.5007 26.1817 31.4954 26.1618C31.4637 25.9977 31.4057 25.8385 31.3318 25.6793C31.1418 25.2765 30.7881 25.0527 30.3659 24.8885C29.9226 24.7194 29.569 24.5951 29.2945 24.5155C28.7403 24.3514 28.1439 24.1922 27.5581 24.0878C27.1622 24.0182 26.777 23.9485 26.3917 23.8789C26.2281 23.8491 26.0697 23.8093 25.9061 23.7894C25.2992 23.7098 24.65 23.6253 23.9691 23.5357C23.6789 23.5009 23.378 23.4711 23.0772 23.4462C22.6286 23.4164 22.1747 23.3815 21.726 23.3467C20.8869 23.2821 20.053 23.3069 19.2032 23.3069C18.9077 23.3069 18.6121 23.3169 18.3113 23.3418C17.8415 23.3766 17.3771 23.4114 16.9232 23.4412C16.6382 23.4611 16.3426 23.491 16.0312 23.5308C15.229 23.6302 14.4268 23.7148 13.6245 23.864C13.3342 23.9187 13.044 23.9684 12.7431 24.0231C11.6559 24.2072 10.6056 24.5006 9.59224 24.8935C9.15418 25.0626 8.80056 25.3063 8.62639 25.739C8.57361 25.8683 8.53139 26.0026 8.505 26.1419C8.505 26.1568 8.48389 26.1717 8.46805 26.1668C8.46805 26.1668 8.46278 26.1668 8.4575 26.1668C8.11444 25.9827 7.77665 25.7937 7.43887 25.6097C7.29637 25.5301 7.14859 25.4356 6.99553 25.3312C6.39385 24.9035 5.77107 24.421 5.12189 23.8839C4.97411 23.7595 4.84744 23.6402 4.7366 23.5258C4.52549 23.297 4.28271 23.0334 4.01881 22.73C3.77076 22.4415 3.57547 22.1929 3.43825 21.974C3.24297 21.6657 3.10047 21.2429 3.04241 20.8749C2.93685 20.1835 3.02658 19.5171 3.3063 18.8805C3.41186 18.6467 3.55964 18.4726 3.70742 18.2737C3.77603 18.1792 3.8552 18.0847 3.93965 17.9852C4.18243 17.7067 4.42521 17.4282 4.68383 17.1497C4.76299 17.0651 4.84744 16.9806 4.94772 16.896C5.47551 16.4285 6.10357 15.9361 6.82664 15.4089C7.06414 15.2348 7.26998 15.1005 7.44415 15.006C7.76082 14.832 8.10916 14.643 8.48917 14.4341C8.48917 14.4341 8.49972 14.4341 8.505 14.4341C8.57361 14.7822 8.72139 15.1652 9.02751 15.394C9.19112 15.5183 9.36001 15.6178 9.53418 15.6874C10.5686 16.1002 11.6295 16.3937 12.7273 16.5777C13.0281 16.6274 13.3237 16.6821 13.6034 16.7368C14.279 16.8711 14.9915 16.9358 15.6354 17.0253C15.9626 17.0701 16.2635 17.1049 16.5274 17.1298C17.1818 17.1894 17.8415 17.2392 18.5118 17.279C18.781 17.2939 19.0766 17.3038 19.4038 17.3038C20.2113 17.3038 20.9977 17.3237 21.7999 17.2591C22.4491 17.2093 23.1036 17.1795 23.7369 17.1049C24.2278 17.0452 24.7292 16.9855 25.2306 16.9209C25.5261 16.8811 25.8217 16.8363 26.112 16.7866C27.1306 16.6125 27.8061 16.4832 28.1387 16.4086C28.9303 16.2295 29.6956 15.9908 30.4292 15.7023C30.6562 15.6128 30.8462 15.5084 30.9993 15.3791C31.2737 15.1553 31.4268 14.7922 31.4901 14.4589C31.4901 14.444 31.5059 14.4341 31.5218 14.4391C31.5218 14.4391 31.5218 14.4391 31.527 14.4391C31.5587 14.454 31.5904 14.4689 31.622 14.4838C31.9598 14.6678 32.3029 14.8568 32.6565 15.0508C32.7304 15.0906 32.8782 15.1901 33.0946 15.3442C33.691 15.767 34.2979 16.2395 34.9154 16.7617C35.0315 16.8612 35.1424 16.9656 35.2479 17.0751C35.6438 17.4928 36.0449 17.9305 36.4038 18.398C36.5727 18.6169 36.6993 18.8556 36.7891 19.1043C37.1005 19.9995 37.0688 20.8848 36.6835 21.7502C36.6307 21.8646 36.541 22.0138 36.4091 22.1929V22.2078ZM21.346 21.3374C21.2458 21.5214 21.0188 21.6408 20.7919 21.6557C20.5333 21.6756 20.3169 21.6657 20.1374 21.6308C19.8207 21.5662 19.826 21.3474 19.7363 21.1136C19.7257 21.0887 19.6994 21.0738 19.673 21.0738H19.1399C19.1399 21.0738 19.1135 21.0738 19.1082 21.0937C19.0713 21.3573 19.1082 21.601 19.2296 21.8248C19.3774 22.1133 19.7574 22.2575 20.0741 22.2923C20.2852 22.3172 20.5174 22.3073 20.7655 22.2675C21.2774 22.1879 21.8211 21.8397 21.9899 21.3623C22.0586 21.1584 22.0849 20.9644 22.0586 20.7804C22.0163 20.472 21.7419 20.2034 21.4252 20.094C21.0927 19.9746 20.7813 19.8603 20.4805 19.7359C20.2852 19.6563 20.2219 19.4673 20.3116 19.2883C20.4435 19.0396 20.6494 18.9153 20.9449 18.8805C21.3988 18.8307 21.7683 18.9302 21.7524 19.4425C21.7524 19.4624 21.763 19.4723 21.7841 19.4723H22.3805C22.3805 19.4723 22.4122 19.4574 22.4122 19.4425C22.4491 19.1192 22.3805 18.7064 22.0902 18.5025C21.6997 18.2289 21.1772 18.2438 20.718 18.3533C20.0952 18.4975 19.5568 19.0396 19.5991 19.6762C19.6096 19.8155 19.6466 19.9299 19.7152 20.0244C19.8313 20.1786 20.016 20.3029 20.2799 20.4024C20.5544 20.5068 20.8288 20.6063 21.1033 20.7058C21.2827 20.7704 21.383 20.8848 21.3883 21.0489C21.3935 21.1633 21.3777 21.2628 21.3302 21.3424L21.346 21.3374ZM32.5246 20.8997C32.4665 21.0688 32.2976 21.2479 32.1657 21.3673C31.8807 21.6209 31.5376 21.7154 31.1312 21.6458C30.7037 21.5761 30.5612 21.2777 30.5454 20.9097C30.5242 20.4422 30.6351 20.0045 30.8831 19.6066C31.0995 19.2535 31.4479 18.9799 31.8701 18.9252C32.2871 18.8755 32.5668 19.0197 32.704 19.3629C32.7357 19.4375 32.7568 19.5171 32.7673 19.6016C32.7673 19.6165 32.7832 19.6265 32.7937 19.6265H33.3321C33.3743 19.6265 33.3954 19.6066 33.3901 19.5668C33.3849 19.3878 33.3426 19.1888 33.2635 18.97C33.0682 18.4279 32.514 18.214 31.9282 18.2936C31.3793 18.3682 30.9518 18.6069 30.614 19.0197C30.4345 19.2386 30.2709 19.5071 30.1654 19.7807C30.0176 20.1487 29.9331 20.5118 29.9015 20.8649C29.8698 21.2429 29.9648 21.5861 30.1812 21.8944C30.234 21.974 30.2973 22.0337 30.3606 22.0735C30.5717 22.2028 30.9148 22.3122 31.1681 22.2824C31.4268 22.2525 31.659 22.1879 31.8595 22.0834C32.0179 22.0039 32.1446 21.8845 32.3029 21.8049C32.3187 21.8 32.3346 21.8049 32.3398 21.8149C32.3398 21.8149 32.3398 21.8198 32.3398 21.8248L32.3979 22.1779C32.3979 22.1779 32.4137 22.2078 32.4296 22.2078C32.5298 22.2177 32.6301 22.2177 32.7251 22.2078C32.7832 22.2028 32.8148 22.173 32.8254 22.1183C32.9573 21.5513 33.0893 20.9544 33.2318 20.3327C33.2318 20.3228 33.2265 20.3079 33.2107 20.3079H31.8437C31.8437 20.3079 31.812 20.3178 31.8068 20.3377L31.6854 20.8202C31.6801 20.845 31.6854 20.8599 31.717 20.8599H32.4929C32.5246 20.8599 32.5298 20.8749 32.5246 20.8997ZM6.66303 22.2128C7.11164 22.2227 7.54971 22.2177 7.97721 22.2028C8.11972 22.2028 8.26222 22.158 8.41 22.1332C8.505 22.1183 8.6 22.0934 8.68445 22.0586C9.20696 21.8646 9.59752 21.5214 9.8403 21.029C10.0989 20.5068 10.2045 19.9647 10.157 19.3927C10.1042 18.776 9.55529 18.4179 8.93251 18.4129C8.48389 18.408 8.03527 18.408 7.57082 18.4129C7.54443 18.4129 7.51804 18.4279 7.50748 18.4478C7.48637 18.4826 7.47582 18.5273 7.46526 18.5721C7.25942 19.4972 7.03248 20.467 6.78969 21.4916C6.73692 21.7204 6.68414 21.9541 6.63136 22.1829C6.63136 22.1978 6.63664 22.2128 6.65247 22.2128H6.66303ZM12.5901 21.407L12.6798 22.1929C12.6798 22.1929 12.6956 22.2177 12.7062 22.2177H13.3131C13.3131 22.2177 13.3448 22.2078 13.3448 22.1929L12.9437 18.4428C12.9437 18.4428 12.9331 18.4179 12.912 18.4179H12.2681C12.2681 18.4179 12.2364 18.4279 12.2312 18.4428C12.1837 18.5373 12.1309 18.6318 12.0781 18.7263C11.9198 18.9949 11.7509 19.2833 11.5662 19.5917C11.0595 20.4621 10.5792 21.2976 10.12 22.0834C10.0989 22.1183 10.0831 22.1531 10.062 22.1978C10.062 22.2078 10.062 22.2177 10.0725 22.2227C10.0725 22.2227 10.0725 22.2227 10.0778 22.2227H10.69C10.69 22.2227 10.7217 22.2128 10.7323 22.1978L11.1334 21.417C11.1492 21.3871 11.1756 21.3722 11.2125 21.3722H12.5373C12.5373 21.3722 12.5795 21.3871 12.5795 21.407H12.5901ZM15.1182 19.9597C15.1182 19.9597 15.1129 19.9349 15.1182 19.9199C15.1815 19.6116 15.2501 19.3181 15.3293 19.0446C15.3346 19.0197 15.3609 19.0048 15.3873 19.0048H17.2188C17.2504 19.0048 17.2821 18.9849 17.2874 18.9501L17.4193 18.4279C17.4193 18.4279 17.4193 18.4129 17.4088 18.4129H14.907C14.8595 18.4129 14.8332 18.4328 14.8173 18.4776L13.9095 22.168C13.899 22.2028 13.9148 22.2177 13.9518 22.2177H16.5537C16.5537 22.2177 16.6012 22.2028 16.6012 22.1779L16.7121 21.6408C16.7121 21.6408 16.7121 21.6259 16.7015 21.6259H14.7382C14.7382 21.6259 14.7065 21.611 14.7065 21.596C14.7065 21.596 14.7065 21.596 14.7065 21.5911L14.9176 20.6162C14.9229 20.5864 14.9493 20.5665 14.9809 20.5665H16.6593C16.6962 20.5665 16.7279 20.5416 16.7385 20.5068L16.844 19.9995C16.844 19.9995 16.844 19.9746 16.8229 19.9746H15.1446C15.1446 19.9746 15.1234 19.9647 15.1182 19.9548V19.9597ZM24.8558 20.9594C24.6764 21.4468 24.2647 21.6905 23.7211 21.5562C23.225 21.4369 23.4255 20.7406 23.5047 20.4272C23.663 19.7658 23.8266 19.1092 23.985 18.4478C23.985 18.4328 23.9797 18.4229 23.9639 18.4179C23.9639 18.4179 23.9639 18.4179 23.9586 18.4179H23.4097C23.3411 18.4179 23.3041 18.4478 23.2883 18.5074C23.1405 19.1689 22.9875 19.8254 22.8291 20.477C22.7711 20.7157 22.7341 20.9594 22.7183 21.2031C22.6919 21.6259 22.9241 22.0387 23.3833 22.1382C23.8794 22.2476 24.3439 22.1829 24.7661 21.9492C24.8558 21.8994 24.9772 21.8 25.1303 21.6507C25.2781 21.5015 25.3783 21.2926 25.4786 21.1086C25.5367 20.9992 25.5894 20.85 25.6317 20.661C25.7953 19.915 25.9642 19.1789 26.1383 18.4527C26.1383 18.4378 26.1331 18.4229 26.1172 18.4179C26.1172 18.4179 26.1172 18.4179 26.112 18.4179H25.5472C25.4997 18.4179 25.4628 18.4478 25.4522 18.4875C25.3308 19.0794 25.2042 19.6613 25.0669 20.2233C25.0458 20.2979 25.0247 20.3775 24.9983 20.4571C24.9403 20.6212 24.9139 20.7903 24.8558 20.9594ZM27.3206 19.5867L28.1387 22.163C28.1492 22.1978 28.1809 22.2177 28.2178 22.2177H28.8828C28.9145 22.2177 28.9409 22.1978 28.9462 22.173L29.8592 18.4527C29.8592 18.4527 29.854 18.4179 29.8328 18.4129C29.8328 18.4129 29.8328 18.4129 29.8276 18.4129H29.247C29.247 18.4129 29.2048 18.4229 29.1942 18.4428C29.1784 18.4776 29.1626 18.5174 29.1573 18.5622C28.9567 19.4126 28.7614 20.2382 28.5662 21.044C28.5556 21.0987 28.5398 21.0987 28.5187 21.044L27.6478 18.4726C27.6373 18.4378 27.6003 18.4129 27.5634 18.4129H26.9722C26.93 18.4129 26.8931 18.4378 26.8825 18.4776L25.9747 22.1829C25.9695 22.2078 25.9747 22.2227 26.0064 22.2227H26.5922C26.5922 22.2227 26.6239 22.2177 26.6292 22.2028C26.6503 22.1531 26.6661 22.1033 26.6767 22.0486C26.8561 21.2678 27.0303 20.5466 27.1886 19.8752C27.2098 19.7757 27.2361 19.6812 27.2678 19.5917C27.2836 19.5469 27.2942 19.5469 27.31 19.5917L27.3206 19.5867Z" fill="white"/>
<path d="M8.11446 19.0047C8.54197 18.9749 9.18059 18.9649 9.3706 19.4225C9.41282 19.5269 9.43921 19.6264 9.44449 19.7209C9.47615 20.3227 9.29671 20.8499 8.85337 21.2727C8.52614 21.586 7.92446 21.6507 7.44945 21.6158C7.43362 21.6158 7.42834 21.6059 7.43362 21.591C7.61835 20.8499 7.79251 20.1188 7.96141 19.3976C7.9878 19.2783 8.02474 19.1589 8.06169 19.0395C8.06696 19.0147 8.08807 18.9997 8.11446 18.9997V19.0047Z" fill="white"/>
<path d="M11.5767 20.7456L12.3683 19.3132C12.3683 19.3132 12.3895 19.2983 12.4 19.3033C12.4106 19.3033 12.4158 19.3132 12.4158 19.3232L12.5478 20.7506C12.5478 20.7506 12.5372 20.7754 12.5267 20.7754H11.6083C11.6083 20.7754 11.5819 20.7655 11.5819 20.7506V20.7406L11.5767 20.7456Z" fill="white"/>
<path d="M11.3181 27.2808C10.8536 27.1564 10.3628 26.9823 9.84028 26.7585C9.63972 26.674 9.50778 26.5347 9.43389 26.3457C9.36 26.1517 9.645 25.8235 9.79806 25.7439C9.87723 25.7041 9.96695 25.6643 10.062 25.6345C10.3575 25.535 10.6425 25.4455 10.9064 25.361C11.392 25.2068 11.9461 25.0725 12.5742 24.9581C13.2498 24.8288 13.9148 24.6895 14.5956 24.595C15.3345 24.4955 15.9362 24.416 16.4112 24.3662C16.881 24.3165 17.5618 24.2568 18.459 24.1971C18.744 24.1772 19.0396 24.1673 19.3404 24.1673C20.0371 24.1673 20.7338 24.1524 21.4199 24.1922C22.2327 24.2419 22.8291 24.2867 23.2038 24.3264C24.1538 24.4259 24.993 24.5304 25.7161 24.6448C25.9853 24.6845 26.6186 24.8039 27.6161 24.9929C28.3445 25.1322 29.1256 25.351 29.9595 25.6444C30.1284 25.7041 30.2498 25.7688 30.3289 25.8334C30.4451 25.9329 30.6403 26.1816 30.577 26.3457C30.4662 26.6342 30.2656 26.7386 29.9912 26.8431C29.6903 26.9575 29.3895 27.0669 29.0939 27.1664C28.9461 27.2161 28.6506 27.3006 28.2072 27.4051C27.9222 27.4747 27.632 27.5394 27.3364 27.5941C26.7189 27.7085 26.1014 27.8328 25.4839 27.9223C24.8558 28.0119 24.2225 28.0914 23.5838 28.1611C22.9241 28.2357 22.2327 28.2556 21.5624 28.2904C21.2827 28.3053 20.9871 28.3153 20.6652 28.3153C20.0371 28.3153 19.4566 28.3153 18.9182 28.3053C18.5224 28.3003 17.8468 28.2655 16.881 28.1959C16.6012 28.176 16.3109 28.1462 15.9995 28.1064C15.2712 28.0119 14.5112 27.9373 13.767 27.793C13.2551 27.6936 12.7431 27.5941 12.2364 27.4946C11.9356 27.4349 11.6242 27.3554 11.3339 27.2758L11.3181 27.2808Z" fill="white"/>
</g>
<circle cx="20" cy="20" r="19.5" stroke="black" stroke-opacity="0.05"/>
<defs>
<clipPath id="clip0_24563_41714">
<rect width="34" height="16" fill="white" transform="translate(3 12.3154)"/>
</clipPath>
</defs>
</svg>
