<svg width="40" height="40" viewBox="0 0 40 40" fill="none" xmlns="http://www.w3.org/2000/svg">
<circle cx="20" cy="20" r="20" fill="#FFC82D"/>
<path d="M23.425 10.9049C23.9163 10.9049 24.4107 10.8628 24.891 10.9907C26.1917 11.3421 27.1015 12.1089 27.6203 13.2911C27.6734 13.4112 27.6936 13.5578 27.7544 13.6685C27.7669 13.6933 27.7858 13.7143 27.8091 13.7294C27.8324 13.7445 27.8593 13.7531 27.887 13.7543C28.2515 13.7579 28.6143 13.8045 28.9678 13.8931C30.5451 14.3578 31.5042 15.3643 31.8453 16.9125C31.9646 17.492 31.9491 18.0912 31.7998 18.6637C31.6505 19.2362 31.3715 19.7667 30.9844 20.2141C30.2139 21.1229 29.1456 21.5757 27.7794 21.5725C24.9919 21.5653 22.2615 21.5653 19.5884 21.5725C19.5451 21.5716 19.502 21.5798 19.462 21.5964C19.422 21.6131 19.3859 21.6379 19.356 21.6692L17.9524 23.0729C17.9109 23.114 17.8548 23.1371 17.7964 23.1371C17.738 23.1371 17.6819 23.114 17.6404 23.0729L16.2618 21.6817C16.1882 21.608 16.0883 21.5665 15.9841 21.5663C14.9288 21.5663 13.8756 21.5705 12.8244 21.5788C11.9448 21.5861 11.2102 21.4452 10.6207 21.1561C7.30653 19.5295 7.23479 15.1236 10.3836 13.3067C10.7179 13.1357 11.0672 12.9958 11.427 12.8887C11.4523 12.8803 11.4751 12.8656 11.4931 12.846C11.5111 12.8263 11.5238 12.8024 11.5299 12.7764C11.9697 11.1638 12.7428 9.94624 13.8491 9.12381C15.783 7.68794 17.8666 7.37602 20.0999 8.18805C21.3663 8.64762 22.4263 9.52775 23.28 10.8285C23.2959 10.8522 23.3175 10.8716 23.3429 10.8849C23.3682 10.8983 23.3964 10.9051 23.425 10.9049ZM16.9916 8.58263C14.6413 8.86024 12.854 10.6741 12.2863 12.8887C11.8185 14.7243 12.4283 16.7721 13.7726 18.1134C15.0297 19.3683 16.361 20.6981 17.7668 22.1028C17.7825 22.1184 17.8038 22.1272 17.826 22.1272C17.8482 22.1272 17.8695 22.1184 17.8853 22.1028C18.7597 21.1847 19.7334 20.2074 20.8064 19.1708C21.7807 18.235 22.4139 17.5041 22.706 16.978C23.3591 15.8241 23.5886 14.4783 23.3548 13.1732C23.121 11.8681 22.4386 10.6857 21.4256 9.83031C20.1925 8.79578 18.7145 8.37988 16.9916 8.58263ZM27.1649 14.5528C27.0698 14.1613 26.9918 13.7324 26.8015 13.38C26.1777 12.23 25.178 11.6582 23.8024 11.6644C23.7872 11.6648 23.7728 11.671 23.7621 11.6817C23.7513 11.6925 23.7451 11.7069 23.7447 11.7221C23.7438 11.7278 23.7438 11.7336 23.7447 11.7393C23.8404 12.0678 23.9308 12.3875 24.0161 12.6984C24.6165 14.8819 23.7806 17.1979 22.2147 18.7918C21.5909 19.4302 20.9572 20.0623 20.3136 20.6883C20.3001 20.702 20.2925 20.7205 20.2925 20.7397C20.2925 20.759 20.3001 20.7775 20.3136 20.7912C20.3206 20.7981 20.3288 20.8036 20.3379 20.8074C20.347 20.8111 20.3568 20.813 20.3666 20.813C22.4835 20.7933 24.6732 20.7933 26.9357 20.813C27.8953 20.8245 28.5956 20.76 29.0364 20.6196C30.9438 20.0161 31.8094 17.6205 30.6194 15.9081C29.9883 15.0004 29.0941 14.5408 27.9369 14.5294C27.7257 14.5436 27.5166 14.5802 27.3131 14.6386C27.2978 14.6443 27.2813 14.6466 27.265 14.6452C27.2487 14.6439 27.2329 14.6389 27.2187 14.6307C27.2045 14.6225 27.1924 14.6113 27.1831 14.5978C27.1738 14.5843 27.1676 14.5689 27.1649 14.5528ZM13.2985 18.7122C12.0586 17.4334 11.3272 15.6975 11.4067 13.9367C11.4161 13.7418 11.3319 13.6856 11.1541 13.7667C9.78473 14.3906 9.02313 15.4043 8.86925 16.808C8.81832 17.3045 8.87072 17.8062 9.02315 18.2815C9.17557 18.7567 9.42472 19.1953 9.75492 19.5696C10.0851 19.9439 10.4892 20.2458 10.9418 20.4563C11.3944 20.6668 11.8856 20.7814 12.3846 20.7927C13.3266 20.8146 14.2857 20.8177 15.2621 20.8021C15.2763 20.8017 15.2897 20.7958 15.2996 20.7856C15.3095 20.7754 15.3151 20.7617 15.3151 20.7475C15.3153 20.7405 15.3141 20.7335 15.3114 20.7271C15.3087 20.7206 15.3046 20.7148 15.2995 20.7101C14.606 20.0363 13.939 19.3704 13.2985 18.7122Z" fill="#010101"/>
<path d="M12.2863 12.8878C12.854 10.6732 14.6413 8.85938 16.9916 8.58177C18.7134 8.37383 20.1914 8.78972 21.4256 9.82945C22.4386 10.6848 23.121 11.8673 23.3548 13.1724C23.5886 14.4775 23.3591 15.8232 22.706 16.9771C22.4138 17.497 21.7806 18.2279 20.8064 19.1699C19.7334 20.2096 18.7597 21.187 17.8853 22.1019C17.8695 22.1176 17.8482 22.1263 17.826 22.1263C17.8038 22.1263 17.7825 22.1176 17.7667 22.1019C16.3621 20.6973 15.0286 19.3674 13.7664 18.1125C12.4282 16.7712 11.8153 14.7235 12.2863 12.8878Z" fill="#FFC82D"/>
<path d="M27.3137 14.6474C27.5172 14.589 27.7263 14.5524 27.9375 14.5382C29.0937 14.5486 29.9879 15.0082 30.6201 15.9169C31.81 17.6325 30.9445 20.0249 29.0371 20.6284C28.5962 20.7678 27.896 20.8322 26.9363 20.8218C24.6738 20.799 22.4841 20.799 20.3672 20.8218C20.3578 20.8223 20.3483 20.8208 20.3394 20.8174C20.3306 20.8141 20.3224 20.809 20.3156 20.8024C20.3087 20.7959 20.3033 20.788 20.2996 20.7793C20.2959 20.7705 20.2939 20.7611 20.2939 20.7517C20.2938 20.7313 20.3017 20.7117 20.3158 20.6971C20.9552 20.0732 21.5889 19.4411 22.2169 18.8006C23.7765 17.2067 24.6187 14.9016 24.0183 12.7072C23.932 12.3953 23.8415 12.0756 23.7469 11.7481C23.7425 11.7336 23.7439 11.718 23.7509 11.7045C23.7579 11.6911 23.7699 11.681 23.7843 11.6763H23.8015C25.1823 11.6691 26.182 12.2409 26.8006 13.3919C26.9909 13.7444 27.0688 14.1717 27.164 14.5647C27.167 14.5808 27.1735 14.596 27.1831 14.6093C27.1926 14.6225 27.205 14.6335 27.2193 14.6414C27.2336 14.6493 27.2495 14.6539 27.2658 14.655C27.2822 14.656 27.2985 14.6534 27.3137 14.6474Z" fill="white"/>
<path d="M11.4099 13.9359C11.3303 15.6967 12.0618 17.4325 13.2986 18.7114C13.9369 19.3695 14.6029 20.0355 15.2964 20.7092C15.3015 20.714 15.3056 20.7198 15.3083 20.7263C15.3111 20.7327 15.3125 20.7396 15.3125 20.7467C15.3125 20.7537 15.3111 20.7606 15.3083 20.767C15.3056 20.7735 15.3015 20.7793 15.2964 20.7841C15.2917 20.7894 15.286 20.7937 15.2795 20.7967C15.2731 20.7997 15.2661 20.8012 15.259 20.8012C14.2827 20.8168 13.3235 20.8137 12.3815 20.7919C11.883 20.7797 11.3925 20.6645 10.9407 20.4536C10.4888 20.2427 10.0855 19.9407 9.75596 19.5665C9.42643 19.1923 9.17783 18.754 9.02578 18.2792C8.87373 17.8043 8.82151 17.3031 8.8724 16.8071C9.02733 15.4024 9.78893 14.3887 11.1572 13.7659C11.335 13.6848 11.427 13.7409 11.4099 13.9359Z" fill="white"/>
<path d="M18.5719 26.8016V28.0056C18.5719 28.0263 18.5637 28.0461 18.5491 28.0607C18.5345 28.0754 18.5146 28.0836 18.494 28.0836L17.9465 28.0695C17.9263 28.0688 17.907 28.0602 17.8928 28.0457C17.8786 28.0312 17.8705 28.0119 17.8701 27.9916V24.785C17.8701 24.7643 17.8783 24.7445 17.893 24.7299C17.9076 24.7153 17.9274 24.707 17.9481 24.707H18.5018C18.512 24.7068 18.5222 24.7087 18.5317 24.7124C18.5413 24.7161 18.55 24.7217 18.5574 24.7288C18.5647 24.7359 18.5707 24.7444 18.5748 24.7537C18.5789 24.7631 18.5811 24.7732 18.5813 24.7835V25.9984C18.5811 26.0086 18.5829 26.0188 18.5866 26.0284C18.5904 26.0379 18.5959 26.0466 18.603 26.054C18.6101 26.0614 18.6186 26.0673 18.628 26.0714C18.6374 26.0755 18.6475 26.0777 18.6577 26.0779H19.3985C19.4088 26.0777 19.4189 26.0795 19.4285 26.0833C19.438 26.087 19.4467 26.0926 19.4541 26.0997C19.4615 26.1068 19.4674 26.1152 19.4715 26.1246C19.4756 26.134 19.4779 26.1441 19.4781 26.1544V26.669C19.4781 26.6897 19.4699 26.7095 19.4552 26.7242C19.4406 26.7388 19.4208 26.747 19.4001 26.747L18.6671 26.7361C18.6565 26.7336 18.6455 26.7333 18.6348 26.7354C18.6241 26.7374 18.614 26.7416 18.605 26.7478C18.596 26.7539 18.5885 26.7619 18.5828 26.7712C18.5771 26.7805 18.5734 26.7908 18.5719 26.8016Z" fill="#010101"/>
<path d="M21.0042 25.3539L20.3382 25.3711C20.3283 25.3715 20.3185 25.3699 20.3092 25.3664C20.2999 25.3629 20.2915 25.3576 20.2843 25.3508C20.2772 25.3439 20.2715 25.3357 20.2676 25.3266C20.2638 25.3175 20.2618 25.3077 20.2618 25.2978V24.8128C20.2614 24.8029 20.2629 24.793 20.2664 24.7838C20.2699 24.7745 20.2753 24.766 20.2821 24.7589C20.289 24.7518 20.2972 24.7461 20.3063 24.7422C20.3154 24.7383 20.3252 24.7363 20.3351 24.7363H24.3682C24.3781 24.7361 24.3879 24.7379 24.3971 24.7416C24.4063 24.7453 24.4146 24.7508 24.4216 24.7578C24.4286 24.7648 24.4341 24.7731 24.4378 24.7823C24.4415 24.7915 24.4433 24.8013 24.4431 24.8112L24.4212 25.29C24.4204 25.3093 24.4122 25.3276 24.3982 25.3409C24.3843 25.3543 24.3657 25.3618 24.3464 25.3617H23.6976C23.678 25.3617 23.6592 25.3694 23.6452 25.3831C23.6312 25.3968 23.6231 25.4155 23.6227 25.435L23.604 26.2554C23.6036 26.2653 23.6052 26.2751 23.6087 26.2844C23.6122 26.2937 23.6175 26.3021 23.6243 26.3093C23.6312 26.3164 23.6394 26.3221 23.6485 26.326C23.6576 26.3298 23.6674 26.3318 23.6773 26.3318L24.3994 26.3131C24.4092 26.3127 24.4191 26.3142 24.4283 26.3176C24.4375 26.321 24.446 26.3261 24.4533 26.3328C24.4605 26.3395 24.4664 26.3475 24.4705 26.3564C24.4746 26.3653 24.477 26.375 24.4774 26.3848V26.8527C24.4776 26.8626 24.4758 26.8724 24.4721 26.8816C24.4684 26.8908 24.4629 26.8991 24.4559 26.9061C24.4489 26.9131 24.4406 26.9186 24.4314 26.9223C24.4222 26.926 24.4124 26.9278 24.4025 26.9276H20.3476C20.328 26.9276 20.3092 26.9199 20.2952 26.9062C20.2812 26.8925 20.2731 26.8739 20.2727 26.8543V26.3786C20.2723 26.3687 20.2739 26.3589 20.2774 26.3496C20.2809 26.3403 20.2862 26.3319 20.293 26.3247C20.2999 26.3176 20.3081 26.3119 20.3172 26.308C20.3263 26.3042 20.3361 26.3022 20.346 26.3022H20.987C21.0063 26.3022 21.0249 26.2947 21.0389 26.2814C21.0528 26.268 21.0611 26.2498 21.0619 26.2304L21.0946 25.4148C21.095 25.4049 21.0935 25.3951 21.0901 25.3859C21.0867 25.3766 21.0816 25.3681 21.0749 25.3609C21.0682 25.3537 21.0602 25.3478 21.0513 25.3437C21.0424 25.3395 21.0327 25.3372 21.0229 25.3368L21.0042 25.3539ZM22.963 25.4631C22.9632 25.4505 22.9609 25.438 22.9562 25.4262C22.9515 25.4145 22.9446 25.4038 22.9357 25.3948C22.9269 25.3858 22.9163 25.3787 22.9046 25.3738C22.893 25.3689 22.8805 25.3664 22.8679 25.3664L21.8604 25.3571C21.8475 25.3569 21.8348 25.3592 21.8229 25.364C21.811 25.3687 21.8001 25.3758 21.791 25.3848C21.7818 25.3938 21.7746 25.4046 21.7696 25.4164C21.7647 25.4282 21.7621 25.4409 21.7621 25.4538V26.2211C21.7619 26.2337 21.7642 26.2462 21.7689 26.258C21.7736 26.2697 21.7806 26.2804 21.7894 26.2894C21.7983 26.2984 21.8088 26.3055 21.8205 26.3104C21.8321 26.3153 21.8446 26.3178 21.8573 26.3178L22.8648 26.3271C22.8776 26.3273 22.8903 26.325 22.9022 26.3202C22.9142 26.3155 22.925 26.3084 22.9341 26.2994C22.9433 26.2904 22.9505 26.2796 22.9555 26.2678C22.9605 26.256 22.963 26.2433 22.963 26.2304V25.4631Z" fill="#010101"/>
<path d="M27.2263 26.8854L25.9318 28.0068C25.9183 28.0237 25.9007 28.0369 25.8807 28.0451C25.8606 28.0533 25.8388 28.0563 25.8173 28.0539C25.7958 28.0514 25.7753 28.0434 25.7577 28.0308C25.7401 28.0183 25.7259 28.0014 25.7166 27.9818L25.4842 27.6621C25.466 27.6449 25.4523 27.6235 25.4441 27.5998C25.4359 27.5762 25.4336 27.5509 25.4372 27.5261C25.4409 27.5013 25.4505 27.4777 25.4652 27.4574C25.4799 27.4372 25.4993 27.4207 25.5217 27.4095C25.9625 27.0691 26.3843 26.7046 26.7849 26.3178C27.047 26.0604 26.9409 25.1137 26.9222 24.7847C26.9222 24.7488 26.9362 24.7316 26.9721 24.7316H27.6474C27.6516 24.7311 27.6559 24.7316 27.6599 24.733C27.6639 24.7344 27.6676 24.7367 27.6706 24.7397C27.6736 24.7427 27.6759 24.7463 27.6772 24.7503C27.6786 24.7543 27.6791 24.7586 27.6786 24.7628C27.6614 25.2775 27.5133 26.0729 27.9609 26.4472C28.3279 26.7508 28.7017 27.0773 29.0822 27.4266C29.0954 27.4358 29.1065 27.4478 29.1146 27.4618C29.1227 27.4757 29.1276 27.4912 29.1291 27.5072C29.1306 27.5233 29.1286 27.5394 29.1232 27.5546C29.1178 27.5698 29.1091 27.5836 29.0978 27.5951L28.8109 27.9694C28.804 27.9824 28.794 27.9936 28.7817 28.0018C28.7694 28.01 28.7553 28.0151 28.7406 28.0165C28.7259 28.0179 28.7111 28.0156 28.6975 28.0098C28.6839 28.004 28.6719 27.995 28.6627 27.9834L27.4228 26.8823C27.4098 26.8694 27.3944 26.8592 27.3774 26.8524C27.3604 26.8455 27.3422 26.8422 27.3239 26.8425C27.3056 26.8428 27.2875 26.8467 27.2708 26.8541C27.254 26.8615 27.2389 26.8721 27.2263 26.8854Z" fill="#010101"/>
<path d="M29.7995 26.5371H28.7686C28.7602 26.5373 28.7519 26.5359 28.744 26.5328C28.7362 26.5298 28.729 26.5253 28.723 26.5195C28.7169 26.5137 28.712 26.5067 28.7086 26.4991C28.7052 26.4914 28.7033 26.4831 28.7031 26.4747L28.6953 25.9335C28.6951 25.9251 28.6966 25.9168 28.6996 25.9089C28.7026 25.9011 28.7072 25.8939 28.713 25.8879C28.7187 25.8818 28.7257 25.8769 28.7334 25.8735C28.741 25.8701 28.7493 25.8682 28.7577 25.868H29.7995C29.8165 25.868 29.8328 25.8613 29.8447 25.8493C29.8567 25.8373 29.8635 25.821 29.8635 25.8041V24.756C29.8638 24.7395 29.8705 24.7236 29.8821 24.7118C29.8937 24.6999 29.9093 24.6929 29.9259 24.6921L30.4998 24.6812C30.5082 24.681 30.5165 24.6824 30.5244 24.6854C30.5322 24.6885 30.5394 24.693 30.5455 24.6988C30.5515 24.7046 30.5564 24.7115 30.5598 24.7192C30.5632 24.7269 30.5651 24.7352 30.5653 24.7436V28.602C30.5649 28.6186 30.5583 28.6344 30.5467 28.6463C30.5351 28.6581 30.5195 28.6652 30.5029 28.666L29.9181 28.68C29.9097 28.6802 29.9013 28.6787 29.8935 28.6757C29.8856 28.6727 29.8785 28.6682 29.8724 28.6624C29.8663 28.6566 29.8614 28.6496 29.858 28.642C29.8546 28.6343 29.8528 28.626 29.8526 28.6176V26.5901C29.8504 26.5768 29.8442 26.5645 29.8346 26.555C29.8251 26.5455 29.8128 26.5392 29.7995 26.5371Z" fill="#010101"/>
<path d="M14.6633 26.6223C14.6479 26.6208 14.6323 26.6225 14.6176 26.6274C14.6028 26.6323 14.5893 26.6402 14.5778 26.6506C14.5664 26.6611 14.5572 26.6738 14.551 26.688C14.5448 26.7022 14.5416 26.7176 14.5416 26.7331L14.5058 27.1074C14.5043 27.1215 14.5056 27.1358 14.5096 27.1494C14.5137 27.1631 14.5204 27.1758 14.5294 27.1868C14.5384 27.1978 14.5495 27.207 14.562 27.2137C14.5746 27.2204 14.5883 27.2245 14.6025 27.2259H14.6165C15.2856 27.2072 16.2479 27.3475 16.814 26.9935C16.8288 26.98 16.8469 26.9705 16.8665 26.966C16.886 26.9614 16.9064 26.962 16.9257 26.9677C16.945 26.9733 16.9625 26.9838 16.9765 26.9982C16.9905 27.0125 17.0006 27.0303 17.0058 27.0497L17.1321 27.3164C17.1461 27.3399 17.1548 27.3662 17.1578 27.3934C17.1608 27.4206 17.1579 27.4481 17.1493 27.4741C17.1407 27.5002 17.1267 27.524 17.1081 27.5441C17.0896 27.5643 17.0669 27.5802 17.0417 27.5908C16.7812 27.7471 16.4871 27.8386 16.1839 27.8575C15.4301 27.9064 14.6789 27.9194 13.9303 27.8965C13.9041 27.8961 13.8791 27.8854 13.8607 27.8667C13.8423 27.8481 13.832 27.8229 13.832 27.7967V26.0546C13.8324 26.0287 13.8429 26.0039 13.8613 25.9856C13.8796 25.9673 13.9044 25.9568 13.9303 25.9564H15.8268C15.8535 25.9597 15.8807 25.9571 15.9063 25.9486C15.9318 25.9401 15.9552 25.926 15.9746 25.9073C15.9941 25.8886 16.0091 25.8658 16.0186 25.8406C16.0281 25.8153 16.0318 25.7883 16.0295 25.7614V25.5946C16.0341 25.574 16.0336 25.5525 16.028 25.5322C16.0224 25.5118 16.0119 25.4932 15.9975 25.4778C15.983 25.4624 15.965 25.4508 15.9451 25.444C15.9251 25.4371 15.9037 25.4353 15.8829 25.4386H13.9786C13.9442 25.4386 13.9111 25.425 13.8865 25.4008C13.862 25.3765 13.848 25.3436 13.8476 25.3091L13.8679 24.8943C13.8663 24.8774 13.8686 24.8603 13.8745 24.8444C13.8805 24.8285 13.89 24.8141 13.9023 24.8024C13.9146 24.7907 13.9294 24.7819 13.9456 24.7768C13.9618 24.7716 13.979 24.7702 13.9958 24.7726H16.6112C16.6227 24.7713 16.6343 24.7724 16.6453 24.776C16.6563 24.7796 16.6664 24.7855 16.6748 24.7934C16.6833 24.8012 16.6899 24.8109 16.6943 24.8215C16.6987 24.8322 16.7007 24.8438 16.7001 24.8553C16.7327 25.3386 16.7254 25.8237 16.6783 26.3057C16.6698 26.393 16.6292 26.4741 16.5644 26.5331C16.4995 26.5922 16.4151 26.6251 16.3274 26.6254L14.6633 26.6223Z" fill="#010101"/>
<path d="M10.3857 28.9468C10.3965 28.9483 10.4076 28.9473 10.418 28.9438C10.4285 28.9404 10.4379 28.9346 10.4458 28.9269C10.4536 28.9192 10.4596 28.9099 10.4632 28.8995C10.4669 28.8892 10.4681 28.8781 10.4668 28.8672L10.4824 27.9517C10.4836 27.9441 10.4831 27.9364 10.4808 27.929C10.4786 27.9217 10.4747 27.9149 10.4694 27.9093C10.4641 27.9038 10.4576 27.8995 10.4504 27.8968C10.4432 27.8942 10.4354 27.8932 10.4278 27.894L9.08809 27.8753C9.07673 27.8769 9.06514 27.8758 9.05426 27.8722C9.04339 27.8685 9.03354 27.8623 9.02549 27.8541C9.01745 27.8459 9.01145 27.8359 9.00796 27.825C9.00448 27.814 9.00361 27.8024 9.00544 27.7911V24.9433C9.00222 24.9227 9.00376 24.9017 9.00995 24.8819C9.01613 24.862 9.0268 24.8439 9.04111 24.8288C9.05543 24.8137 9.07302 24.8021 9.09252 24.7949C9.11203 24.7878 9.13292 24.7851 9.1536 24.7873L9.55598 24.7842C9.59602 24.7841 9.63455 24.7995 9.66359 24.8271C9.69262 24.8547 9.70993 24.8923 9.71194 24.9323V27.1548C9.71193 27.1719 9.71862 27.1883 9.73057 27.2005C9.74251 27.2128 9.75878 27.2199 9.77588 27.2203C10.5775 27.2328 11.2726 27.2234 11.8611 27.1922C12.0797 27.1794 12.2895 27.1012 12.4631 26.9676C12.4832 26.9526 12.5084 26.9462 12.5332 26.9497C12.558 26.9532 12.5805 26.9664 12.5956 26.9863L12.605 27.0035L12.7781 27.3669C12.795 27.4004 12.7993 27.4388 12.7901 27.4752C12.7809 27.5116 12.759 27.5435 12.7282 27.5649C12.3679 27.8332 11.7503 27.8769 11.3012 27.8659C11.2864 27.8655 11.2717 27.868 11.258 27.8733C11.2442 27.8786 11.2316 27.8865 11.2208 27.8966C11.2101 27.9068 11.2015 27.9189 11.1955 27.9324C11.1895 27.9458 11.1862 27.9604 11.1858 27.9751L11.1748 28.8485C11.1727 28.8629 11.174 28.8776 11.1786 28.8914C11.1832 28.9053 11.191 28.9178 11.2013 28.9281C11.2116 28.9384 11.2241 28.9462 11.238 28.9508C11.2518 28.9553 11.2665 28.9566 11.2809 28.9546L13.5376 28.9452C13.6031 28.9452 13.6265 28.9764 13.6094 29.0403C13.561 29.2034 13.566 29.3777 13.6234 29.5378C13.6411 29.5909 13.6224 29.6174 13.5673 29.6174H8.19912C8.18527 29.6174 8.17155 29.6146 8.15877 29.6093C8.14599 29.6039 8.1344 29.5961 8.12468 29.5862C8.11495 29.5764 8.10729 29.5647 8.10213 29.5518C8.09697 29.5389 8.09442 29.5252 8.09463 29.5113V29.0434C8.09278 29.0311 8.09385 29.0186 8.09774 29.0068C8.10164 28.9949 8.10825 28.9842 8.11705 28.9754C8.12584 28.9666 8.13658 28.96 8.1484 28.9561C8.16022 28.9522 8.17278 28.9511 8.18509 28.953L10.3857 28.9468Z" fill="#010101"/>
<path d="M21.7634 25.4524L21.7567 26.2197C21.7562 26.2731 21.7992 26.3168 21.8526 26.3173L22.86 26.326C22.9134 26.3265 22.9571 26.2836 22.9576 26.2302L22.9642 25.4629C22.9647 25.4095 22.9218 25.3658 22.8684 25.3654L21.8609 25.3566C21.8075 25.3561 21.7639 25.399 21.7634 25.4524Z" fill="#FFC82D"/>
<path d="M22.9687 27.9214C22.5434 27.9526 22.531 28.0414 22.9313 28.1881C23.6061 28.4345 23.97 28.8712 24.023 29.4981C24.2039 31.7767 20.1988 31.6488 20.7478 29.2189C20.8835 28.6185 21.3545 28.3425 21.8941 28.1381C21.9164 28.1304 21.9359 28.1163 21.9503 28.0976C21.9986 28.0383 22.008 27.9853 21.9768 27.9416C21.9686 27.9289 21.9572 27.9185 21.9438 27.9114C21.9305 27.9043 21.9155 27.9008 21.9004 27.9011L19.7169 27.9104C19.6911 27.9109 19.666 27.9015 19.6469 27.8841C19.6277 27.8667 19.616 27.8426 19.614 27.8169L19.5781 27.3958C19.5703 27.3131 19.6093 27.2726 19.692 27.2726H25.0305C25.0471 27.2696 25.0642 27.2709 25.0802 27.2763C25.0961 27.2817 25.1105 27.2911 25.1218 27.3035C25.1332 27.316 25.1412 27.3311 25.1452 27.3475C25.1491 27.3639 25.1488 27.3811 25.1443 27.3973L25.1038 27.8574C25.1043 27.8686 25.1022 27.8798 25.0977 27.8901C25.0932 27.9004 25.0864 27.9095 25.0778 27.9167C25.0692 27.924 25.059 27.9291 25.0481 27.9318C25.0372 27.9345 25.0259 27.9347 25.0149 27.9323C24.3341 27.8772 23.6501 27.8735 22.9687 27.9214ZM23.3071 29.5433C23.3047 29.3346 23.2196 29.1353 23.0705 28.9892C22.9214 28.843 22.7205 28.7619 22.5117 28.7635H22.1842C22.0806 28.7635 21.9781 28.7842 21.8825 28.8242C21.787 28.8643 21.7004 28.923 21.6278 28.9969C21.5552 29.0708 21.4981 29.1584 21.4597 29.2547C21.4213 29.3509 21.4026 29.4538 21.4044 29.5574V29.7133C21.4069 29.9221 21.492 30.1214 21.6411 30.2675C21.7901 30.4137 21.991 30.4948 22.1998 30.4931H22.5273C22.6309 30.4932 22.7335 30.4725 22.829 30.4325C22.9246 30.3924 23.0112 30.3337 23.0838 30.2598C23.1563 30.1859 23.2135 30.0983 23.2518 30.002C23.2902 29.9058 23.309 29.8029 23.3071 29.6993V29.5433Z" fill="#010101"/>
<path d="M18.3177 29.5904C18.3177 30.4466 17.5582 31.139 16.624 31.1375C15.6883 31.1375 14.935 30.4403 14.9365 29.5779C14.9365 28.7217 15.6961 28.0292 16.6303 28.0308C17.566 28.0308 18.3193 28.7279 18.3177 29.5904ZM17.5925 29.5077C17.5925 29.2926 17.5071 29.0863 17.355 28.9342C17.2029 28.7822 16.9966 28.6967 16.7815 28.6967H16.4696C16.2545 28.6967 16.0482 28.7822 15.8962 28.9342C15.7441 29.0863 15.6586 29.2926 15.6586 29.5077V29.6637C15.6586 29.8788 15.7441 30.085 15.8962 30.2371C16.0482 30.3892 16.2545 30.4747 16.4696 30.4747H16.7815C16.9966 30.4747 17.2029 30.3892 17.355 30.2371C17.5071 30.085 17.5925 29.8788 17.5925 29.6637V29.5077Z" fill="#010101"/>
<path d="M27.9108 30.0978C28.4463 30.0905 29.027 30.0905 29.6529 30.0978C29.9355 30.1116 30.2161 30.0434 30.4608 29.9013C30.4761 29.8867 30.4949 29.8765 30.5155 29.8715C30.536 29.8666 30.5575 29.8672 30.5777 29.8732C30.598 29.8792 30.6163 29.8904 30.6308 29.9058C30.6453 29.9211 30.6555 29.94 30.6604 29.9606L30.7805 30.2366C30.7938 30.259 30.802 30.284 30.8046 30.3099C30.8072 30.3358 30.804 30.3619 30.7954 30.3864C30.7868 30.411 30.7729 30.4333 30.7547 30.4519C30.7365 30.4705 30.7144 30.4848 30.69 30.494C30.368 30.6709 30.0078 30.7672 29.6404 30.7747C28.8689 30.7872 28.0715 30.7929 27.248 30.7918C27.2335 30.7939 27.2188 30.7925 27.2049 30.788C27.191 30.7834 27.1784 30.7756 27.168 30.7654C27.1576 30.7551 27.1497 30.7426 27.1449 30.7288C27.1401 30.715 27.1386 30.7003 27.1404 30.6858V28.6583C27.14 28.6288 27.1512 28.6003 27.1716 28.579C27.192 28.5577 27.2201 28.5453 27.2496 28.5445L27.7268 28.5289C27.7399 28.5284 27.753 28.5306 27.7652 28.5353C27.7775 28.5399 27.7887 28.5469 27.7983 28.5559C27.8079 28.5649 27.8156 28.5756 27.821 28.5876C27.8263 28.5995 27.8293 28.6124 27.8297 28.6256L27.8204 30.0058C27.8183 30.0182 27.8191 30.031 27.8229 30.043C27.8266 30.055 27.8332 30.066 27.8421 30.075C27.8509 30.0839 27.8617 30.0907 27.8737 30.0947C27.8856 30.0986 27.8984 30.0997 27.9108 30.0978Z" fill="#010101"/>
<path d="M16.7811 28.6978H16.4692C16.0213 28.6978 15.6582 29.0608 15.6582 29.5087V29.6616C15.6582 30.1095 16.0213 30.4726 16.4692 30.4726H16.7811C17.229 30.4726 17.5921 30.1095 17.5921 29.6616V29.5087C17.5921 29.0608 17.229 28.6978 16.7811 28.6978Z" fill="#FFC82D"/>
<path d="M22.5174 28.7618L22.1899 28.7646C21.7549 28.7684 21.4054 29.1241 21.4092 29.5591L21.4106 29.715C21.4144 30.15 21.7701 30.4995 22.205 30.4957L22.5325 30.4928C22.9675 30.489 23.317 30.1334 23.3132 29.6984L23.3119 29.5424C23.3081 29.1075 22.9524 28.758 22.5174 28.7618Z" fill="#FFC82D"/>
<circle cx="20" cy="20" r="19.5" stroke="black" stroke-opacity="0.05"/>
</svg>
