<svg width="40" height="40" viewBox="0 0 40 40" fill="none" xmlns="http://www.w3.org/2000/svg">
<circle cx="20" cy="20" r="20" fill="#060280"/>
<path d="M26.2187 13.972C26.4557 14.177 26.6593 14.3986 26.8502 14.6471C28.0911 16.2612 28.697 18.1208 28.668 20.226C28.6206 23.7257 26.4095 26.8757 23.1839 28.1426C22.7552 28.3109 21.9422 28.5543 20.7449 28.8728C16.626 29.9694 12.4302 31.0984 8.15763 32.2598C8.11749 32.2701 8.07863 32.2641 8.04105 32.2419C8.03009 32.2355 8.02075 32.2266 8.01375 32.216C8.00675 32.2053 8.00228 32.1933 8.00067 32.1807C7.99906 32.168 8.00036 32.1552 8.00448 32.1432C8.00859 32.1312 8.01541 32.1202 8.0244 32.1112L13.8786 26.2429C13.8953 26.2262 13.9047 26.2036 13.9047 26.1799C13.9047 26.1561 13.8953 26.1332 13.8786 26.1161C11.8713 24.0536 11.0886 21.279 11.56 18.4249C12.0276 15.5977 14.0554 13.1586 16.6328 12.0223C17.1444 11.7969 17.9501 11.539 19.0501 11.2486C24.035 9.93343 28.2094 8.804 31.5733 7.86031C31.6861 7.82786 31.8013 7.78943 31.9192 7.74502C31.9645 7.72794 31.9905 7.74332 31.9973 7.79114C32.0136 7.90387 31.9555 8.02685 31.8231 8.16007C29.9469 10.0432 28.077 11.9327 26.2136 13.8286C26.164 13.879 26.1657 13.9268 26.2187 13.972ZM25.6192 25.432C27.0475 23.8986 27.8289 21.9489 27.7777 19.8429C27.7298 17.8779 27.0018 16.1224 25.5935 14.5767C25.587 14.5696 25.5792 14.564 25.5704 14.5601C25.5616 14.5561 25.5522 14.5541 25.5426 14.5539C25.533 14.5538 25.5235 14.5557 25.5146 14.5594C25.5057 14.563 25.4977 14.5685 25.4911 14.5754L20.212 19.9275C20.1806 19.9598 20.1631 20.0031 20.1633 20.0482C20.1635 20.0932 20.1815 20.1364 20.2133 20.1683L25.4257 25.4346C25.4384 25.4474 25.4536 25.4575 25.4703 25.4643C25.487 25.4712 25.5049 25.4746 25.523 25.4743C25.541 25.4741 25.5589 25.4702 25.5754 25.463C25.5919 25.4557 25.6068 25.4452 25.6192 25.432ZM13.1152 16.6186C12.8871 17.0943 12.7236 17.5055 12.6245 17.8522C12.1813 19.4083 12.2048 20.9228 12.695 22.396C13.0742 23.5344 13.672 24.5558 14.4884 25.4602C14.5379 25.5149 14.5888 25.5161 14.6409 25.464L19.8994 20.1465C19.9284 20.1167 19.9447 20.0768 19.9447 20.0354C19.9447 19.9939 19.9284 19.9543 19.8994 19.9249L14.6088 14.5895C14.6006 14.5813 14.5909 14.5749 14.5802 14.5705C14.5695 14.5661 14.558 14.564 14.5464 14.5641C14.5349 14.5642 14.5234 14.5666 14.5128 14.5712C14.5022 14.5758 14.4926 14.5824 14.4846 14.5908C13.9619 15.1305 13.5054 15.8065 13.1152 16.6186Z" fill="white"/>
<circle cx="20" cy="20" r="19.5" stroke="black" stroke-opacity="0.05"/>
</svg>
