<svg width="40" height="40" viewBox="0 0 40 40" fill="none" xmlns="http://www.w3.org/2000/svg">
<circle cx="20" cy="20" r="20" fill="#1F95FF"/>
<g clip-path="url(#clip0_20329_63499)">
<path d="M4.03516 18.0742H6.03716C7.22516 18.0742 7.66076 18.5518 7.66076 19.4418V20.1321C7.66076 21.0134 7.18116 21.491 5.98876 21.491H5.00316V23.1321H4.03516V18.0742ZM5.98436 18.9165H5.00756V20.6487H5.98436C6.52996 20.6487 6.69276 20.4534 6.69276 20.0323V19.5156C6.69276 19.0988 6.51676 18.9165 5.98436 18.9165Z" fill="white"/>
<path d="M12.0429 21.6517C12.0429 22.4939 11.5501 23.2103 10.1025 23.2103C8.65491 23.2103 8.16211 22.4939 8.16211 21.6517V19.5547C8.16211 18.7124 8.65491 17.9961 10.1025 17.9961C11.5501 17.9961 12.0429 18.7124 12.0429 19.5547V21.6517ZM9.13451 21.5996C9.13451 22.0771 9.38091 22.368 10.1069 22.368C10.8329 22.368 11.0793 22.0771 11.0793 21.5996V19.6068C11.0793 19.1292 10.8329 18.8384 10.1069 18.8384C9.38091 18.8384 9.13451 19.1292 9.13451 19.6068V21.5996Z" fill="white"/>
<path d="M14.2832 23.2103C13.698 23.2103 13.0204 23.067 12.6816 22.9064L12.8488 22.1553C13.3284 22.2986 13.7904 22.3897 14.2964 22.3897C14.996 22.3897 15.1148 22.2465 15.1148 21.7602C15.1148 21.1958 15.1016 21.1524 14.1732 20.9527C12.9324 20.6792 12.7652 20.4447 12.7652 19.3724C12.7652 18.452 13.1876 17.9961 14.49 17.9961C14.9388 17.9961 15.4756 18.0482 15.986 18.1654L15.8804 18.9686C15.458 18.8774 14.9564 18.8166 14.5076 18.8166C13.852 18.8166 13.7376 18.9556 13.7376 19.3941C13.7376 19.9715 13.7552 19.9845 14.6396 20.2016C16.0168 20.5272 16.0872 20.7486 16.0872 21.7602C16.0872 22.7197 15.8012 23.2103 14.2832 23.2103Z" fill="white"/>
<path d="M16.8564 23.1321V18.0742H18.876C19.8484 18.0742 20.24 18.4693 20.24 19.1553V19.6806C20.24 20.0974 20.064 20.3362 19.668 20.5011C20.1388 20.601 20.416 20.944 20.416 21.4346V21.9729C20.416 22.6893 19.9452 23.1364 19.0124 23.1364H16.8564V23.1321ZM19.2676 19.2725C19.2676 18.9903 19.1136 18.86 18.7572 18.86H17.8244V20.1885H18.7484C19.1268 20.1885 19.2632 20.0149 19.2632 19.7153V19.2681L19.2676 19.2725ZM19.4436 21.4693C19.4436 21.1263 19.2896 20.9613 18.9024 20.9613H17.8244V22.3463H18.8188C19.2588 22.3463 19.4436 22.2247 19.4436 21.8514V21.4693Z" fill="white"/>
<path d="M23.9625 22.0858H22.0617L21.7361 23.1364H20.7197L22.3389 18.0742H23.6941L25.3133 23.1364H24.2969L23.9669 22.0858H23.9625ZM22.2993 21.2566H23.7161L23.0165 18.8644L22.2993 21.2566Z" fill="white"/>
<path d="M26.8356 19.2985V23.1364H25.8896V18.0742H27.1832L29.1324 21.9208V18.0742H30.0784V23.1364H28.7848L26.8356 19.2985Z" fill="white"/>
<path d="M31.8171 23.1321H30.8447V18.0742H31.8171V23.1364V23.1321ZM33.0271 20.5749L34.7519 23.1364H33.6343L31.9535 20.5749L33.5419 18.0742H34.6419L33.0227 20.5749H33.0271Z" fill="white"/>
<path d="M36.1817 17.2104C35.7109 17.2104 35.3281 17.5882 35.3281 18.0527C35.3281 18.5173 35.7109 18.895 36.1817 18.895C36.6525 18.895 37.0353 18.5173 37.0353 18.0527C37.0353 17.5882 36.6525 17.2104 36.1817 17.2104ZM36.7141 18.5086C36.6393 18.3957 36.4897 18.183 36.4457 18.1178C36.4809 18.0961 36.5205 18.0874 36.5557 18.057C36.6173 17.9963 36.6481 17.9225 36.6481 17.8313C36.6481 17.7314 36.6085 17.6446 36.5337 17.5838C36.4633 17.523 36.3665 17.4883 36.2565 17.4883H35.7769V18.5737H36.0189V18.1786H36.1993C36.2345 18.2307 36.4721 18.5737 36.4721 18.5737H36.6481C36.5249 18.6779 36.3665 18.7474 36.1905 18.7474C35.7989 18.7474 35.4821 18.4348 35.4821 18.0484C35.4821 17.662 35.7989 17.3494 36.1905 17.3494C36.5821 17.3494 36.8989 17.662 36.8989 18.0484C36.8989 18.222 36.8285 18.3827 36.7229 18.5042M36.3929 17.8356C36.3929 17.8877 36.3709 17.9094 36.3533 17.9225C36.3181 17.9442 36.2829 17.9572 36.2433 17.9572H36.0101V17.7228H36.2477C36.2873 17.7228 36.3225 17.7314 36.3577 17.7531C36.3665 17.7575 36.3929 17.7748 36.3929 17.84" fill="white"/>
</g>
<circle cx="20" cy="20" r="19.5" stroke="black" stroke-opacity="0.05"/>
<defs>
<clipPath id="clip0_20329_63499">
<rect width="33" height="6" fill="white" transform="translate(4.03516 17.2104)"/>
</clipPath>
</defs>
</svg>
