<svg width="40" height="40" viewBox="0 0 40 40" fill="none" xmlns="http://www.w3.org/2000/svg">
<circle cx="20" cy="20" r="20" fill="#222E84"/>
<path d="M4.05109 22.5242L5.48109 22.5379C5.48109 22.5379 5.6463 22.6205 5.46733 22.7031C5.46733 22.7031 5.13693 22.7444 5.16446 22.9096L5.28836 24.6976L6.22278 23.1574C6.22278 23.1574 6.15395 22.7857 6.05758 22.6618L6.90938 22.5517L7.04706 24.6821L8.16043 22.8528C8.16043 22.8528 8.11913 22.7152 8.009 22.7152H7.81627C7.81627 22.7152 7.6373 22.605 7.74743 22.55H8.75066C8.75066 22.55 8.84703 22.6326 8.75066 22.6876C8.75066 22.6876 8.53041 22.7289 8.42028 22.8666L7.08664 25.3412L7.19677 25.6165L6.26235 25.6303L6.166 23.8286L5.31245 25.2998L5.36753 25.6303L4.43311 25.6165L4.41935 22.8253C4.41935 22.8253 4.37806 22.6876 4.25416 22.7014H4.08894C4.09411 22.7031 3.91514 22.6068 4.05109 22.5242Z" fill="white"/>
<path d="M10.9809 22.4141C9.84003 22.3177 9.20675 23.0869 9.20675 23.0869C9.09662 23.2246 8.82129 23.6376 8.82129 24.159C8.82129 24.6822 9.00026 25.6303 10.3752 25.6854C11.7501 25.7405 12.287 24.9437 12.4505 24.1453C12.6174 23.3485 12.1218 22.5105 10.9809 22.4141ZM10.9672 25.2191C10.9672 25.2191 10.5266 25.7405 9.92262 25.2879C9.92262 25.2879 9.63352 24.9988 9.77119 24.3948C9.77119 24.3948 10.019 23.1988 10.253 23.0061C10.253 23.0061 10.5352 22.5191 11.0911 22.6481C11.5041 22.7445 11.4765 23.13 11.4903 23.2935C11.5023 23.4587 11.3526 24.9713 10.9672 25.2191Z" fill="white"/>
<path d="M15.3139 22.4141C14.173 22.3177 13.5398 23.0869 13.5398 23.0869C13.4296 23.2246 13.1543 23.6376 13.1543 24.159C13.1543 24.6822 13.3333 25.6303 14.7082 25.6854C16.0832 25.7405 16.6183 24.9437 16.7835 24.1453C16.9505 23.3485 16.4548 22.5105 15.3139 22.4141ZM15.3002 25.2191C15.3002 25.2191 14.8596 25.7405 14.2556 25.2879C14.2556 25.2879 13.9665 24.9988 14.1042 24.3948C14.1042 24.3948 14.352 23.1988 14.586 23.0061C14.586 23.0061 14.8682 22.5191 15.4241 22.6481C15.8371 22.7445 15.8095 23.13 15.8233 23.2935C15.8371 23.4587 15.6856 24.9713 15.3002 25.2191Z" fill="white"/>
<path d="M18.1567 22.4968H19.628C19.628 22.4968 19.7106 22.6345 19.5729 22.6896C19.5729 22.6896 19.3251 22.7308 19.2838 22.896L18.8295 24.875C18.8295 24.875 18.6643 25.6305 17.9639 25.6993C17.2618 25.7681 17.9226 25.6993 17.9226 25.6993H17.4684C17.4684 25.6993 16.8093 25.6029 17.0278 24.9834C17.0278 24.9834 17.2068 24.7081 17.5922 24.8595C17.5922 24.8595 17.7574 24.9559 17.7024 25.1624L17.6886 25.3C17.6886 25.3 17.8263 25.4653 17.9639 24.9421L18.4596 22.8806C18.4596 22.8806 18.5008 22.7016 18.3494 22.7016C18.3494 22.7033 18.0466 22.6758 18.1567 22.4968Z" fill="white"/>
<path d="M20.4939 22.5105H21.8826C21.8826 22.5105 21.9376 22.6619 21.8275 22.717C21.8275 22.717 21.6073 22.7032 21.5935 22.8409L21.0979 25.2466C21.0979 25.2466 21.0566 25.4118 21.3044 25.3843C21.3044 25.3843 21.3732 25.4944 21.2906 25.5908H19.957C19.957 25.5908 19.8055 25.577 19.9707 25.3981C19.9707 25.3981 20.1359 25.4531 20.191 25.164L20.7279 22.8134C20.7279 22.8134 20.7416 22.6757 20.6177 22.6895C20.6177 22.6895 20.3424 22.6619 20.4939 22.5105Z" fill="white"/>
<path d="M22.7619 22.483L22.7344 22.6757C22.7344 22.6757 22.7619 22.7583 22.9133 22.7721C22.9133 22.7721 23.0235 22.8409 22.9959 22.9235L22.5692 25.1365C22.5692 25.1365 22.5279 25.3981 22.1975 25.4532L22.1699 25.6046H23.2007C23.2007 25.6046 23.242 25.4394 23.1044 25.3981C23.1044 25.3981 22.7602 25.4394 22.9116 25.0677L23.2971 23.1713L24.6169 25.5908H25.1263L25.7716 22.9098C25.7716 22.9098 25.8405 22.7446 25.9231 22.7308H26.0745C26.0745 22.7308 26.1433 22.5656 26.1433 22.4692H25.1126C25.1126 22.4692 25.085 22.6757 25.1814 22.7033C25.1814 22.7033 25.443 22.6895 25.3879 22.8822L25.0162 24.4912L23.8753 22.4847H22.7619V22.483Z" fill="white"/>
<path d="M28.2411 23.0784H29.3097C29.3097 23.0784 29.3528 23.1954 29.2667 23.2367C29.2667 23.2367 29.0981 23.2264 29.0861 23.3313L28.7057 25.1829C28.7057 25.1829 28.6731 25.3103 28.8641 25.2896C28.8641 25.2896 28.9174 25.374 28.8537 25.448H27.8264C27.8264 25.448 27.7094 25.4376 27.8367 25.2999C27.8367 25.2999 27.9641 25.343 28.0054 25.121L28.4184 23.3107C28.4184 23.3107 28.4287 23.204 28.3341 23.216C28.3358 23.216 28.1241 23.1937 28.2411 23.0784Z" fill="white"/>
<path d="M29.9875 23.056L29.9669 23.204C29.9669 23.204 29.9875 23.2676 30.1045 23.2779C30.1045 23.2779 30.1888 23.3313 30.1682 23.395L29.8395 25.0986C29.8395 25.0986 29.8068 25.2999 29.5539 25.3429L29.5332 25.46H30.3265C30.3265 25.46 30.3575 25.3326 30.2525 25.3016C30.2525 25.3016 29.9875 25.3343 30.1045 25.0487L30.4005 23.5877L31.4175 25.4514H31.8099L32.3072 23.3864C32.3072 23.3864 32.3605 23.259 32.4242 23.2487H32.5412C32.5412 23.2487 32.5946 23.1214 32.5946 23.0474H31.8012C31.8012 23.0474 31.7806 23.2057 31.8546 23.2281C31.8546 23.2281 32.056 23.2177 32.0129 23.3657L31.7273 24.6047L30.8479 23.0594H29.9875V23.056Z" fill="white"/>
<path d="M34.9143 23.8992L35.1071 23.9542L35.231 23.0749C35.231 23.0749 35.0795 23.0474 35.0107 23.1162C35.0107 23.1162 34.9143 23.185 34.6528 23.0887C34.6528 23.0887 33.6771 22.9097 33.0713 23.4879C33.0713 23.4879 32.3692 24.381 33.0438 25.2208C33.0438 25.2208 33.5531 25.8661 34.5564 25.5236C34.5564 25.5236 35.0245 25.2621 35.1208 24.9334L35.0245 24.837C35.0245 24.837 34.6803 25.2913 34.2139 25.2913C34.2139 25.2913 33.5549 25.3464 33.5256 24.6047C33.5256 24.6047 33.388 23.4776 34.1847 23.2848C34.1864 23.2797 34.8042 23.1558 34.9143 23.8992Z" fill="white"/>
<path d="M35.816 25.4652C35.9175 25.4652 36.0001 25.3826 36.0001 25.281C36.0001 25.1795 35.9175 25.0969 35.816 25.0969C35.7145 25.0969 35.6319 25.1795 35.6319 25.281C35.6301 25.3826 35.7128 25.4652 35.816 25.4652Z" fill="white"/>
<path d="M23.7112 14.8947L24.6601 13.4598L23.5423 11.7077H21.9028L21.0638 10.2703H18.9205L18.0815 11.7998H16.2936L15.3242 13.6081L16.1427 15.0993L15.36 16.5726L16.3652 18.3426H18.0048L18.9 19.798H20.9692L21.9182 18.2684H23.5397L24.6754 16.478L23.7112 14.8947ZM21.8951 12.5467H23.0691L23.7214 13.5161L23.0691 14.5238H21.913L21.3171 13.5544L21.8951 12.5467ZM19.391 11.2039H20.5651L21.2173 12.1732L20.5651 13.181H19.409L18.813 12.2116L19.391 11.2039ZM16.9023 12.6004H18.0764L18.7286 13.5698L18.0764 14.5775H16.9203L16.3243 13.6081L16.9023 12.6004ZM18.0969 17.542H16.9407L16.3448 16.5726L16.9228 15.5648H18.0969L18.749 16.5342L18.0969 17.542ZM20.5165 18.9974H19.3604L18.7644 18.028L19.3425 17.0202H20.5165L21.1687 17.9896L20.5165 18.9974ZM20.5728 16.125H19.4166L18.8207 15.1556L19.3987 14.1478H20.5728L21.225 15.1172L20.5728 16.125ZM23.0691 17.5062H21.913L21.3171 16.5368L21.8951 15.529H23.0691L23.7214 16.4984L23.0691 17.5062Z" fill="white"/>
<circle cx="20" cy="20" r="19.5" stroke="black" stroke-opacity="0.05"/>
</svg>
