<svg width="40" height="40" viewBox="0 0 40 40" fill="none" xmlns="http://www.w3.org/2000/svg">
<circle cx="20" cy="20" r="20" fill="#F6F8FA"/>
<g clip-path="url(#clip0_18553_55651)">
<path d="M10.0844 12H14.0056L15.7651 12.0253C16.0542 12.0253 16.1422 12.1646 16.0291 12.4304L15.8908 12.7722C15.7903 13.0253 15.6143 13.1519 15.3504 13.1519C14.1816 13.1519 13.0379 13.1519 11.9067 13.1519C11.5925 13.1519 11.3537 13.3291 11.2281 13.6076C10.9264 14.2785 10.6374 14.9367 10.3609 15.557C10.2352 15.8354 10.3232 15.9747 10.6248 15.9873L14.0307 16.0886C14.0936 16.0886 14.1313 16.1266 14.1313 16.1899C14.1313 16.4051 14.081 16.6329 13.9679 16.8734C13.8799 17.0759 13.7291 17.1772 13.5029 17.1772H9.80787C9.80787 17.1772 9.73246 17.1772 9.70733 17.2152C9.22974 18.0253 8.84013 18.9114 8.42538 19.7468C8.40025 19.7848 8.37511 19.8101 8.32484 19.8101L5.97461 19.7848V19.7215C5.97461 19.7215 5.97461 19.7215 5.98718 19.7215C5.98718 19.7215 5.99975 19.7215 6.01231 19.7215C7.13087 17.2911 8.2243 14.8987 9.31772 12.519C9.43083 12.2658 9.69476 12.0886 10.0844 12Z" fill="#0B4DA2"/>
<path d="M15.7533 15.3291H16.6834C16.6834 15.3291 16.7211 15.3418 16.7211 15.3671C16.7211 15.3671 16.7211 15.3671 16.7211 15.3797L16.5074 15.8354C16.5074 15.8354 16.4823 15.8607 16.4697 15.8607H15.5397C15.5397 15.8607 15.502 15.8481 15.502 15.8228C15.502 15.8228 15.502 15.8228 15.502 15.8101L15.7156 15.3544C15.7156 15.3544 15.7407 15.3291 15.7533 15.3291Z" fill="#221E1F"/>
<path d="M21.7225 18.2026C21.5214 18.2026 21.4083 18.3039 21.3831 18.4938C21.358 18.6457 21.3328 18.7976 21.3203 18.9495C21.2826 19.1646 21.3831 19.3039 21.5968 19.3545C22.0115 19.4558 22.4263 19.152 22.6525 18.8355C22.6902 18.7976 22.7405 18.7722 22.7907 18.7722L23.5825 18.8355C23.5825 18.8355 23.6202 18.8608 23.6202 18.8735C23.6202 18.8735 23.6202 18.8862 23.6202 18.8988C22.9918 19.6203 22.1875 19.9368 21.2072 19.8482C20.2394 19.7596 20.164 18.9495 20.4782 18.2153C20.9809 17.0634 22.0744 16.2659 23.3312 16.3292C24.5251 16.3925 24.3618 17.3925 24.0098 18.1393C23.9973 18.1773 23.9596 18.19 23.9219 18.19H21.7602L21.7225 18.2026ZM23.2683 17.4558C23.2809 17.2912 23.2935 17.19 23.306 17.1393C23.3312 16.9368 23.2306 16.8102 23.0295 16.7722C22.4765 16.671 21.999 17.2406 21.7727 17.6963C21.7602 17.7216 21.7727 17.7343 21.7979 17.7343H22.9541C23.1426 17.7343 23.2432 17.633 23.2683 17.4558Z" fill="#221E1F"/>
<path d="M16.2049 16.4808L14.6842 19.734C14.6842 19.734 14.659 19.7593 14.6465 19.7593H13.7164C13.7164 19.7593 13.6787 19.7466 13.6787 19.7213C13.6787 19.7213 13.6787 19.7213 13.6787 19.7087L15.1994 16.4555C15.1994 16.4555 15.2246 16.4302 15.2372 16.4302H16.1672C16.1672 16.4302 16.2049 16.4428 16.2049 16.4682C16.2049 16.4682 16.2049 16.4682 16.2049 16.4808Z" fill="#221E1F"/>
<path d="M18.0905 16.9619C18.5304 16.5442 19.0331 16.367 19.5987 16.4429C20.2774 16.5315 20.114 17.1518 19.9129 17.5695C19.5484 18.3416 19.2091 19.0632 18.8949 19.7467C18.8949 19.7594 18.8697 19.772 18.8572 19.772H17.9271C17.9271 19.772 17.9146 19.772 17.9271 19.7467C18.2413 19.0632 18.5807 18.3416 18.9326 17.5948C19.008 17.4303 19.0331 17.2784 19.0205 17.1265C19.008 17.0125 18.9074 16.9239 18.7943 16.9239C18.3042 16.9239 17.902 17.3796 17.7135 17.7847C17.3993 18.4556 17.0976 19.1138 16.8086 19.7341C16.8086 19.7467 16.7834 19.7594 16.7709 19.7594H15.866C15.866 19.7594 15.8408 19.7594 15.8408 19.7341L17.3113 16.5822C17.3113 16.5822 17.3616 16.5189 17.3993 16.5189H18.1533C18.1533 16.5189 18.2288 16.5442 18.2036 16.5948L18.0528 16.9239C18.0151 17.0125 18.0277 17.0252 18.0905 16.9619Z" fill="#221E1F"/>
<path d="M12.749 27H10.3359L13.1889 21.4557C13.2392 21.367 13.1889 21.2531 13.1135 21.2025C13.0883 21.1898 13.0632 21.1772 13.0255 21.1772H11.2534C11.0397 21.1772 10.9769 21.0759 11.0775 20.886C11.2157 20.6202 11.2911 20.4683 11.3037 20.443C11.4042 20.2531 11.555 20.1519 11.7561 20.1519C14.2949 20.1519 16.8588 20.1519 19.4729 20.1519C19.6615 20.1519 19.7117 20.2405 19.6363 20.4177L19.4227 20.924C19.3472 21.1012 19.209 21.1898 19.0079 21.1898C18.279 21.1898 17.5626 21.2151 16.8462 21.2531C16.0921 21.2911 15.4134 21.8987 15.0741 22.5569C14.2949 24.0379 13.5282 25.5189 12.749 26.9873V27Z" fill="#FDB811"/>
<path d="M24.4625 23.9875C24.8898 23.6964 25.3423 23.5951 25.8324 23.6964C26.2974 23.785 26.1969 24.304 26.0461 24.6205C25.6942 25.3926 25.3171 26.1648 24.9275 26.9622C24.9275 26.9749 24.9149 26.9875 24.9024 26.9875H24.0352C24.0352 26.9875 24.01 26.9875 24.01 26.9622C24.3619 26.2407 24.7139 25.4812 25.0783 24.7091C25.1286 24.5951 25.1537 24.4812 25.1286 24.3673C25.1035 24.2281 24.9778 24.1268 24.827 24.1521C24.8144 24.1521 24.8018 24.1521 24.7893 24.1521C24.3997 24.2787 24.1106 24.5445 23.9095 24.9243C23.5702 25.5951 23.2434 26.2787 22.9292 26.9496C22.9292 26.9622 22.9041 26.9749 22.8915 26.9749H22.0369C22.0369 26.9749 22.0117 26.9749 22.0117 26.9496L24.098 22.5951C24.098 22.5951 24.1232 22.5698 24.1357 22.5698H24.9904C24.9904 22.5698 25.0029 22.5825 25.0029 22.5951L24.3494 23.9369C24.3117 24.0129 24.3242 24.0382 24.3997 23.9875H24.4625Z" fill="#221E1F"/>
<path d="M32.5063 23.1899H31.6391C31.6391 23.1899 31.5889 23.1772 31.5889 23.1519C31.5889 23.1519 31.5889 23.1393 31.5889 23.1266L31.8025 22.6962C31.8025 22.6962 31.8277 22.6709 31.8402 22.6709H32.7074C32.7074 22.6709 32.7577 22.6836 32.7577 22.7089C32.7577 22.7089 32.7577 22.7215 32.7577 22.7342L32.544 23.1646C32.544 23.1646 32.5189 23.1899 32.5063 23.1899Z" fill="#221E1F"/>
<path d="M15.9286 25.4305C15.7904 25.709 15.539 26.3925 16.004 26.4811C16.3936 26.5571 16.7707 26.2786 16.9969 25.9875C17.0346 25.9368 17.0849 25.9115 17.1477 25.9242L17.8767 25.9748C17.8767 25.9748 17.9395 26.0001 17.9018 26.0508C17.2985 26.747 16.5319 27.0508 15.5893 26.9621C15.0614 26.9115 14.6844 26.4938 14.7975 25.9495C15.0991 24.5444 16.4188 23.3546 17.9018 23.5951C18.8318 23.747 18.5805 24.7343 18.2788 25.3166C18.2663 25.3546 18.2286 25.3672 18.1909 25.3672H16.0543C16.0543 25.3672 15.9537 25.3925 15.9412 25.4432L15.9286 25.4305ZM17.4619 23.9875C16.934 23.8482 16.4565 24.4052 16.2177 24.8356C16.1925 24.8862 16.2051 24.9115 16.2554 24.9115H17.4242C17.4242 24.9115 17.5122 24.8862 17.5247 24.8482C17.6253 24.6583 17.663 24.4685 17.663 24.2659C17.663 24.1394 17.575 24.0254 17.4493 24.0001L17.4619 23.9875Z" fill="#221E1F"/>
<path d="M21.4968 24.1138C21.4716 24.0379 21.3962 23.9873 21.3208 23.9999C20.5416 24.0252 19.7749 25.5442 19.8001 26.2657C19.8001 26.405 19.9132 26.5062 20.0389 26.5062C20.441 26.5062 20.8055 26.1012 20.9815 25.7847C20.9815 25.7721 21.0066 25.7594 21.0317 25.7594L21.7607 25.8354C21.7607 25.8354 21.7858 25.8354 21.7858 25.8607C21.2203 26.6835 20.4787 27.0379 19.5613 26.9366C18.6312 26.8354 18.7821 25.8607 19.0963 25.2404C19.4607 24.5316 19.9383 24.0379 20.5416 23.7594C21.258 23.4303 22.741 23.2784 22.3891 24.6202C22.3891 24.6455 22.364 24.6581 22.3388 24.6581L21.4968 24.7214C21.4968 24.7214 21.4842 24.7214 21.4842 24.7088C21.5847 24.4936 21.5973 24.2911 21.5219 24.1138H21.4968Z" fill="#221E1F"/>
<path d="M28.0694 24.2405C28.5093 23.8354 29.0874 23.6202 29.6655 23.7975C30.1054 23.9367 29.9295 24.4937 29.7912 24.7848C29.4645 25.481 29.1126 26.1899 28.7606 26.924C28.7606 26.9493 28.7229 26.962 28.6978 26.962H27.8557C27.8557 26.962 27.8432 26.962 27.8432 26.9367C28.1951 26.2405 28.547 25.5063 28.8989 24.7215C28.9617 24.5696 28.9617 24.4304 28.8738 24.2911C28.8486 24.2531 28.8109 24.2278 28.7606 24.2278C28.3208 24.1899 27.906 24.6202 27.7301 24.9747C27.4033 25.6329 27.0765 26.2911 26.7875 26.9367C26.7875 26.962 26.7623 26.9747 26.7246 26.9747H25.8826C25.8826 26.9747 25.8574 26.9747 25.8574 26.9494L27.3153 23.9114C27.3153 23.9114 27.3656 23.8481 27.4159 23.8481H28.0945C28.1574 23.8481 28.1825 23.8734 28.1448 23.9367L28.0066 24.2278C27.9563 24.3291 27.9689 24.3291 28.0568 24.2658L28.0694 24.2405Z" fill="#EC1E26"/>
<path d="M29.7909 26.9116L31.2991 23.7597C31.2991 23.7597 31.3242 23.7344 31.3368 23.7344H32.204C32.204 23.7344 32.2417 23.747 32.2417 23.7723C32.2417 23.7723 32.2417 23.785 32.2417 23.7977L30.7209 26.9496C30.7209 26.9496 30.6958 26.9749 30.6832 26.9749H29.816C29.816 26.9749 29.7783 26.9622 29.7783 26.9369C29.7783 26.9369 29.7783 26.9369 29.7783 26.9242L29.7909 26.9116Z" fill="#221E1F"/>
<path d="M34.3789 24.6584L35.3215 23.747C35.3215 23.747 35.3341 23.747 35.3466 23.747H35.9499C35.9499 23.747 35.9876 23.747 35.9876 23.7723C35.9876 23.7849 35.9876 23.7976 35.975 23.8103L34.4417 25.19C34.4417 25.19 34.4292 25.2153 34.4292 25.228L34.6805 26.9242C34.6805 26.9242 34.6805 26.9748 34.6428 26.9748H33.7379C33.7379 26.9748 33.7002 26.9621 33.7002 26.9368L33.6248 25.8229C33.6248 25.8229 33.5997 25.7849 33.5871 25.7849H33.562L32.3303 26.9495C32.3303 26.9495 32.3177 26.9495 32.3052 26.9495H31.7145C31.7145 26.9495 31.6768 26.9495 31.6768 26.9242C31.6768 26.9115 31.6768 26.8989 31.6893 26.8862L33.4991 25.2533C33.4991 25.2533 33.5117 25.228 33.5117 25.2153L33.3106 23.7596C33.3106 23.7596 33.3106 23.709 33.3483 23.709H34.2406C34.2406 23.709 34.2783 23.7216 34.2783 23.747L34.3035 24.6077C34.3035 24.6077 34.3286 24.6457 34.3412 24.6457H34.3663L34.3789 24.6584Z" fill="#221E1F"/>
</g>
<circle cx="20" cy="20" r="19.5" stroke="black" stroke-opacity="0.05"/>
<defs>
<clipPath id="clip0_18553_55651">
<rect width="30" height="15" fill="white" transform="translate(6 12)"/>
</clipPath>
</defs>
</svg>
