<svg width="40" height="40" viewBox="0 0 40 40" fill="none" xmlns="http://www.w3.org/2000/svg">
<circle cx="20" cy="20" r="20" fill="#0F0373"/>
<path d="M10.9588 24.627C10.6799 25.3106 10.0735 25.9389 9.31764 25.9809C8.84058 26.0077 8.35512 26.0447 7.85958 26.0917C7.66641 26.1102 7.49507 26.2194 7.39596 26.384C7.28006 26.5738 7.16583 26.7653 7.05161 26.9552C6.95082 27.1214 6.99785 27.2038 7.19103 27.2021C11.8239 27.1769 16.8196 27.1786 22.1798 27.2071C23.4026 27.2138 24.2661 27.1836 24.7717 27.1181C28.8788 26.5806 31.1834 23.095 30.9886 19.1139C30.9331 17.9834 30.6459 16.9319 30.1268 15.9559C28.9611 13.7638 26.6749 11.995 24.1014 12C20.4479 12.0084 16.7876 12.0084 13.1207 12.0017C12.7528 12.0017 12.4572 12.1596 12.2337 12.4754C11.8306 13.0415 11.4023 13.6378 10.947 14.2644C10.9218 14.3013 10.9286 14.3517 10.9655 14.3769C10.9655 14.3769 10.9689 14.3786 10.9705 14.3803C10.9873 14.392 11.0058 14.3971 11.0277 14.3971C11.9045 14.3853 13.035 14.2476 13.7926 14.6826C14.4897 15.0824 14.5199 15.9576 14.2344 16.6497C13.114 19.3625 12.0221 22.0216 10.9588 24.627Z" stroke="#8781B9" stroke-width="0.335957"/>
<path d="M23.5806 14.9009C23.6243 14.9362 23.6864 14.9312 23.725 14.8909L23.9955 14.6003C24.0358 14.5583 24.0324 14.4911 23.9904 14.4508C23.9787 14.4407 23.9653 14.4323 23.9501 14.4272L22.9322 14.1148C22.8768 14.0963 22.8163 14.1266 22.7978 14.182C22.7827 14.2257 22.7978 14.2727 22.8348 14.2996L23.5806 14.9009Z" stroke="#8781B9" stroke-width="0.335957"/>
<path d="M19.3812 14.8525C19.4248 14.8525 19.4685 14.8374 19.5004 14.8072L19.8347 14.483C19.9002 14.4191 19.9002 14.315 19.8347 14.2495C19.791 14.2058 19.7255 14.189 19.6667 14.2091L19.0788 14.4057C19.0015 14.4326 18.9545 14.5115 18.9696 14.5921L18.9915 14.7114C19.0049 14.7887 19.0721 14.8441 19.1494 14.8458L19.3795 14.8525" stroke="#8781B9" stroke-width="0.335957"/>
<path d="M19.7593 14.9868C19.682 15.0405 19.6635 15.1464 19.7173 15.2236C19.7341 15.2488 19.7593 15.269 19.7861 15.2807L20.448 15.5814C20.5336 15.6201 20.6344 15.5814 20.6731 15.4974C20.6764 15.489 20.6798 15.4823 20.6815 15.4739L20.9603 14.5114C20.9872 14.4207 20.9351 14.3266 20.8444 14.3014C20.7957 14.2863 20.7419 14.2964 20.6999 14.3249L19.7593 14.9868Z" stroke="#8781B9" stroke-width="0.335957"/>
<path d="M22.4254 15.4955C22.4523 15.5728 22.538 15.6148 22.6152 15.5879C22.6203 15.5879 22.6236 15.5845 22.6287 15.5829L23.1662 15.3359C23.2418 15.3007 23.2737 15.2116 23.2384 15.1377C23.23 15.1192 23.2166 15.1008 23.2015 15.0873L22.3196 14.3281C22.2574 14.2743 22.1617 14.2827 22.1096 14.3449C22.076 14.3852 22.0659 14.4389 22.0811 14.4893L22.4254 15.4955Z" stroke="#8781B9" stroke-width="0.335957"/>
<path d="M21.0018 15.5744C20.9799 15.6399 21.0135 15.7104 21.079 15.7323C21.0925 15.7373 21.1076 15.739 21.121 15.739L21.9374 15.7323C22.0063 15.7323 22.0617 15.6752 22.06 15.6063C22.06 15.5928 22.0567 15.5777 22.0533 15.566L21.635 14.3985C21.6115 14.333 21.541 14.2994 21.4771 14.3229C21.4402 14.3364 21.4133 14.3649 21.3999 14.4002L21.0018 15.5744Z" stroke="#8781B9" stroke-width="0.335957"/>
<path d="M18.0142 16.9001C18.2527 16.3256 18.5921 15.7864 19.0305 15.2825C19.0859 15.217 19.0943 15.1464 19.0523 15.0708C18.9163 14.8239 18.6189 14.5921 18.3367 14.8138C17.7119 15.3026 17.2029 15.7965 16.8098 16.2988C16.7124 16.4247 16.7342 16.5238 16.8736 16.5961L17.6867 17.0194C17.8395 17.0983 17.9487 17.0597 18.0142 16.9001Z" stroke="#8781B9" stroke-width="0.335957"/>
<path d="M25.3325 17.0577L26.1338 16.6646C26.3018 16.5823 26.3303 16.4681 26.2178 16.3186C25.7659 15.7189 25.1914 15.1881 24.4926 14.7262C24.4406 14.6926 24.3734 14.6926 24.3213 14.7278C24.1785 14.8253 24.0492 14.9563 23.9333 15.1226C23.898 15.1747 23.8997 15.2234 23.94 15.2721C24.3549 15.7643 24.7043 16.3186 24.9865 16.9351C25.0604 17.0947 25.1763 17.135 25.3325 17.0577Z" stroke="#8781B9" stroke-width="0.335957"/>
<path d="M18.4048 17.0225C18.3662 17.0881 18.388 17.1737 18.4536 17.214C18.4653 17.2208 18.4788 17.2258 18.4922 17.2292L20.0309 17.5953C20.1065 17.6121 20.1804 17.5651 20.1972 17.4895C20.1972 17.4878 20.1972 17.4862 20.1972 17.4845L20.4643 15.9945C20.476 15.9307 20.4424 15.8668 20.382 15.8416L19.4681 15.4519C19.4043 15.4251 19.3287 15.4486 19.2934 15.5091L18.4032 17.0225" stroke="#8781B9" stroke-width="0.335957"/>
<path d="M22.8849 17.4742C22.9034 17.5582 22.9841 17.612 23.068 17.5952L24.5261 17.2978C24.6101 17.281 24.6655 17.1987 24.6487 17.1131C24.6454 17.0946 24.637 17.0761 24.6269 17.061L23.6576 15.5307C23.6157 15.4652 23.5317 15.4417 23.4611 15.4736L22.6767 15.8297C22.6111 15.8599 22.5742 15.9322 22.5893 16.0027L22.8849 17.4742Z" stroke="#8781B9" stroke-width="0.335957"/>
<path d="M20.6154 17.5081C20.602 17.587 20.654 17.6626 20.7347 17.6778C20.7431 17.6778 20.7515 17.6794 20.7582 17.6794L22.312 17.6895C22.3926 17.6895 22.4598 17.6257 22.4598 17.5451C22.4598 17.5367 22.4598 17.5283 22.4581 17.5199L22.228 16.1021C22.2162 16.0316 22.1558 15.9795 22.0835 15.9795L21.0051 15.9862C20.9345 15.9862 20.8724 16.0366 20.8606 16.1072L20.6154 17.5081Z" stroke="#8781B9" stroke-width="0.335957"/>
<path d="M16.4586 16.8764C16.0185 17.5467 15.795 18.5831 15.7161 19.3726C15.7127 19.4129 15.7413 19.4482 15.7799 19.4515C15.7816 19.4515 15.785 19.4515 15.7866 19.4515L17.3539 19.47C17.3908 19.47 17.4194 19.4431 17.4228 19.4079C17.4715 18.788 17.584 18.1816 17.7621 17.5853C17.7839 17.5063 17.7503 17.424 17.6781 17.3854L16.64 16.8311C16.5761 16.7975 16.4972 16.8159 16.4586 16.8764Z" stroke="#8781B9" stroke-width="0.335957"/>
<path d="M25.5413 19.3289C25.5547 19.4145 25.6303 19.4784 25.7177 19.4767L27.1908 19.4498C27.2866 19.4481 27.3638 19.3692 27.3622 19.2718C27.3622 19.2566 27.3588 19.2415 27.3554 19.2264L26.6785 16.9621C26.6516 16.8697 26.5542 16.8176 26.4618 16.8445C26.4517 16.8478 26.4416 16.8512 26.4316 16.8562L25.3699 17.4038C25.3027 17.4374 25.2658 17.5113 25.2776 17.5853L25.5413 19.3289Z" stroke="#8781B9" stroke-width="0.335957"/>
<path d="M19.9135 19.465C19.9824 19.465 20.0411 19.4113 20.0445 19.3424L20.1083 18.1212C20.1117 18.0574 20.0663 18.0003 20.0042 17.9885L18.2723 17.6274C18.2018 17.6139 18.1346 17.6593 18.1195 17.7281C18.1195 17.7281 18.1195 17.7315 18.1195 17.7332L17.8524 19.3004C17.8406 19.371 17.8877 19.4382 17.9582 19.4499C17.9649 19.4499 17.9717 19.4516 17.9784 19.4516L19.9135 19.465Z" stroke="#8781B9" stroke-width="0.335957"/>
<path d="M23.0513 18.0002C22.9858 18.0136 22.9388 18.0741 22.9405 18.1413L22.9858 19.3222C22.9892 19.3961 23.0497 19.4549 23.1236 19.4566L24.9982 19.4683C25.0755 19.4683 25.1376 19.4062 25.1376 19.3289C25.1376 19.3205 25.1376 19.3121 25.136 19.3054L24.8621 17.7734C24.8487 17.6978 24.7765 17.6474 24.7009 17.6609C24.7009 17.6609 24.6992 17.6609 24.6975 17.6609L23.0513 18.0002Z" stroke="#8781B9" stroke-width="0.335957"/>
<path d="M20.56 19.4534H22.4918C22.5237 19.4534 22.5489 19.4282 22.5489 19.3963V18.4153C22.5489 18.2204 22.4767 18.0625 22.3877 18.0625H20.6642C20.5752 18.0625 20.5029 18.2204 20.5029 18.4153V19.3963C20.5029 19.4282 20.5281 19.4534 20.56 19.4534Z" stroke="#8781B9" stroke-width="0.335957"/>
<path d="M17.4261 20.0896C17.4076 19.9754 17.3069 19.8914 17.191 19.8931L15.8858 19.9183C15.7564 19.9216 15.6539 20.0275 15.6573 20.1568C15.6573 20.177 15.6607 20.1955 15.6657 20.2139L16.2486 22.3153C16.2822 22.4396 16.4115 22.5119 16.5358 22.4783C16.5493 22.4749 16.5627 22.4699 16.5762 22.4632L17.5622 21.9811C17.6546 21.9357 17.7083 21.8366 17.6915 21.7341L17.4261 20.0896Z" stroke="#8781B9" stroke-width="0.335957"/>
<path d="M20.5657 19.9237C20.527 19.9237 20.4951 19.9556 20.4951 19.9942C20.4951 19.9942 20.4951 19.9959 20.4951 19.9976L20.5623 21.1718C20.564 21.2087 20.5959 21.239 20.6329 21.239L22.4034 21.2272C22.4386 21.2272 22.4689 21.1987 22.4722 21.1634L22.5697 19.9791C22.573 19.9405 22.5445 19.9052 22.5058 19.9019C22.5041 19.9019 22.5008 19.9019 22.4991 19.9019L20.5657 19.9237Z" stroke="#8781B9" stroke-width="0.335957"/>
<path d="M25.3751 21.9156L26.4989 22.48C26.5694 22.5153 26.6551 22.4867 26.6904 22.4162C26.6904 22.4128 26.692 22.4111 26.6937 22.4078C27.0213 21.63 27.2245 20.8372 27.3035 20.0292C27.3085 19.962 27.2598 19.9032 27.1926 19.8965C27.1893 19.8965 27.1842 19.8965 27.1809 19.8965L25.622 19.9166C25.5632 19.9166 25.5347 19.9469 25.533 20.0057C25.5229 20.5953 25.4423 21.1681 25.2911 21.7241C25.2659 21.8114 25.2945 21.8753 25.3751 21.9156Z" stroke="#8781B9" stroke-width="0.335957"/>
<path d="M20.009 21.3145C20.0712 21.3027 20.1165 21.2473 20.1115 21.1835L20.0359 20.0261C20.0309 19.9606 19.9754 19.9085 19.9099 19.9102L17.9966 19.9203C17.9278 19.9203 17.874 19.9774 17.874 20.0463C17.874 20.0513 17.874 20.058 17.874 20.0631L18.1109 21.5345C18.1226 21.6017 18.1865 21.6488 18.2537 21.637C18.2537 21.637 18.2537 21.637 18.2553 21.637L20.0074 21.3145" stroke="#8781B9" stroke-width="0.335957"/>
<path d="M23.1103 19.9136C23.0632 19.9136 23.0263 19.9505 23.0212 19.9959L22.9087 21.2171C22.9037 21.2641 22.9373 21.3061 22.9826 21.3145L24.7699 21.6555C24.8186 21.6639 24.8657 21.632 24.8757 21.5816C24.8757 21.5816 24.8757 21.5816 24.8757 21.5799L25.1109 20.016C25.1176 19.9673 25.084 19.9203 25.0353 19.9136C25.0303 19.9136 25.0252 19.9136 25.0202 19.9136H23.1103Z" stroke="#8781B9" stroke-width="0.335957"/>
<path d="M22.3715 21.8938C22.3866 21.8249 22.3429 21.7577 22.2741 21.7426C22.2657 21.7409 22.2556 21.7393 22.2455 21.7393L20.8076 21.746C20.7371 21.746 20.6816 21.8048 20.6816 21.8753C20.6816 21.8804 20.6816 21.8871 20.6816 21.8921L20.8815 23.1872C20.8916 23.2494 20.9454 23.2947 21.0075 23.2947L21.9717 23.2981C22.0322 23.2981 22.0859 23.2561 22.0977 23.1956L22.3698 21.8938" stroke="#8781B9" stroke-width="0.335957"/>
<path d="M24.6225 22.3473C24.6712 22.2616 24.6409 22.1508 24.5553 22.102C24.5385 22.092 24.52 22.0853 24.5015 22.0819L23.0082 21.7846C22.9124 21.7661 22.8201 21.8266 22.7982 21.9206L22.4891 23.2477C22.469 23.3333 22.5143 23.4207 22.5966 23.4543L23.5894 23.8541C23.6734 23.8877 23.7675 23.8541 23.8128 23.7768L24.6225 22.3473Z" stroke="#8781B9" stroke-width="0.335957"/>
<path d="M20.2291 21.9747C20.2056 21.8453 20.083 21.7597 19.9536 21.7832C19.9519 21.7832 19.9486 21.7832 19.9469 21.7832L18.546 22.0839C18.4183 22.1124 18.3377 22.2384 18.3645 22.3661C18.3696 22.3913 18.3797 22.4148 18.3931 22.4366L19.196 23.7939C19.2582 23.898 19.3892 23.9383 19.4984 23.888L20.3181 23.51C20.4156 23.4646 20.471 23.3605 20.4525 23.2547L20.2291 21.973" stroke="#8781B9" stroke-width="0.335957"/>
<path d="M18.0223 22.5205C17.9349 22.3122 17.7922 22.2618 17.5923 22.3677L16.7977 22.7876C16.6516 22.8666 16.6264 22.9724 16.7255 23.1068C17.1891 23.7401 17.7686 24.2944 18.4624 24.7714C18.5212 24.8118 18.5749 24.8034 18.6203 24.7479L18.9865 24.2927C19.0268 24.244 19.0268 24.1936 18.9848 24.1449C18.6153 23.7065 18.2944 23.1656 18.0223 22.5205Z" stroke="#8781B9" stroke-width="0.335957"/>
<path d="M24.1346 24.0138C24.0607 24.1398 24.0842 24.3011 24.1917 24.4002L24.4151 24.6051C24.5361 24.7177 24.7242 24.7143 24.8435 24.6001L26.2411 23.2546C26.3654 23.1353 26.3687 22.9371 26.2478 22.8128C26.2226 22.7876 26.194 22.7657 26.1638 22.7506L25.428 22.3777C25.2802 22.3038 25.1022 22.3559 25.0182 22.4987L24.1346 24.0138Z" stroke="#8781B9" stroke-width="0.335957"/>
<path d="M21.9029 23.7499C21.9163 23.6844 21.8743 23.6188 21.8088 23.6054C21.8004 23.6037 21.792 23.6021 21.7819 23.6021L21.2225 23.6088C21.1554 23.6088 21.0999 23.6659 21.1016 23.7331C21.1016 23.7415 21.1016 23.7516 21.105 23.76L21.3989 24.9728C21.4124 25.0383 21.4779 25.0819 21.5451 25.0668C21.5938 25.0567 21.6307 25.0181 21.6391 24.9711L21.9029 23.7499Z" stroke="#8781B9" stroke-width="0.335957"/>
<path d="M23.2931 24.3243C23.362 24.2723 23.3754 24.1748 23.325 24.106C23.3082 24.0825 23.2847 24.0657 23.2561 24.0539L22.5305 23.7683C22.4498 23.7381 22.3591 23.7784 22.3289 23.859C22.3289 23.8624 22.3272 23.8658 22.3255 23.8674L21.9728 24.9727C21.9476 25.0551 21.9929 25.1424 22.0752 25.1693C22.124 25.1844 22.176 25.176 22.2163 25.1441L23.2931 24.3243Z" stroke="#8781B9" stroke-width="0.335957"/>
<path d="M20.6309 23.871C20.6057 23.8004 20.5268 23.7651 20.4562 23.7903C20.4512 23.792 20.4461 23.7937 20.4411 23.7971L19.7423 24.1582C19.6751 24.1918 19.6482 24.2741 19.6835 24.3413C19.6936 24.3615 19.7087 24.3783 19.7272 24.3917L20.8476 25.1728C20.9098 25.2148 20.9938 25.1997 21.0374 25.1375C21.0626 25.1023 21.0677 25.0569 21.0526 25.0149L20.6309 23.871Z" stroke="#8781B9" stroke-width="0.335957"/>
<path d="M24.0843 25.0016C24.1549 24.9831 24.1952 24.9109 24.1767 24.842C24.17 24.8152 24.1549 24.7916 24.133 24.7732L23.8139 24.5094C23.7668 24.4708 23.6996 24.4708 23.6509 24.5094L22.9471 25.0503C22.89 25.094 22.8799 25.1763 22.9236 25.2334C22.9555 25.2754 23.0109 25.2939 23.0613 25.2805L24.0843 25.0033" stroke="#8781B9" stroke-width="0.335957"/>
<path d="M19.3624 24.5464C19.3137 24.5094 19.2448 24.5178 19.2078 24.5665L18.9458 24.9058C18.9088 24.9546 18.9172 25.0234 18.9659 25.0621C18.9794 25.0721 18.9945 25.0789 19.0113 25.0822L20.0024 25.2855C20.0628 25.2972 20.12 25.2586 20.1317 25.1981C20.1401 25.1578 20.1233 25.1141 20.0914 25.0889L19.3624 24.5464Z" stroke="#8781B9" stroke-width="0.335957"/>
<path d="M23.5807 14.9011L22.8348 14.2997C22.7878 14.2645 22.7794 14.1989 22.8147 14.1519C22.8416 14.115 22.8903 14.1015 22.9323 14.115L23.9502 14.4274C24.0056 14.4459 24.0359 14.5047 24.0191 14.5601C24.014 14.5752 24.0057 14.5887 23.9956 14.6004L23.7251 14.891C23.6865 14.9313 23.6243 14.9364 23.5807 14.9011Z" fill="#0F0373"/>
<path d="M19.3814 14.8522L19.1513 14.8455C19.074 14.8438 19.0068 14.7884 18.9934 14.7111L18.9716 14.5919C18.9565 14.5112 19.0035 14.4323 19.0808 14.4054L19.6687 14.2089C19.7543 14.1803 19.8484 14.229 19.8753 14.3147C19.8938 14.3735 19.8787 14.439 19.835 14.4827L19.5007 14.8069C19.4688 14.8371 19.4251 14.8539 19.3814 14.8522Z" fill="#0F0373"/>
<path d="M19.7589 14.9865L20.6996 14.3247C20.7769 14.2709 20.8827 14.2894 20.9365 14.3667C20.9667 14.4087 20.9751 14.4624 20.96 14.5111L20.6811 15.4737C20.6559 15.5644 20.5619 15.6164 20.4712 15.5896C20.4628 15.5879 20.456 15.5845 20.4476 15.5812L19.7858 15.2805C19.7001 15.2418 19.6632 15.1411 19.7018 15.0554C19.7153 15.0268 19.7337 15.0033 19.7589 14.9865Z" fill="#0F0373"/>
<path d="M22.4246 15.4954L22.0802 14.4892C22.0533 14.4103 22.097 14.3263 22.1743 14.2994C22.223 14.2826 22.2784 14.2927 22.3188 14.328L23.2006 15.0872C23.2628 15.141 23.2695 15.2351 23.2158 15.2989C23.2023 15.3157 23.1855 15.3275 23.1654 15.3359L22.6278 15.5828C22.5522 15.6164 22.4632 15.5828 22.4296 15.5089C22.4279 15.5038 22.4263 15.5005 22.4246 15.4954Z" fill="#0F0373"/>
<path d="M21.0018 15.5745L21.3999 14.4004C21.4218 14.3348 21.4923 14.2996 21.5578 14.3214C21.5948 14.3332 21.6234 14.3617 21.6351 14.3987L22.0534 15.5661C22.0769 15.63 22.0433 15.7022 21.9778 15.7257C21.9644 15.7307 21.9509 15.7324 21.9375 15.7324L21.1211 15.7391C21.0522 15.7391 20.9968 15.6854 20.9951 15.6165C20.9951 15.6014 20.9968 15.588 21.0018 15.5745Z" fill="#0F0373"/>
<path d="M18.0142 16.9001C17.9487 17.0597 17.8395 17.0983 17.6867 17.0194L16.8736 16.5961C16.7342 16.5238 16.7124 16.4247 16.8098 16.2988C17.2029 15.7965 17.7119 15.3026 18.3367 14.8138C18.6189 14.5921 18.9163 14.8239 19.0523 15.0708C19.0943 15.1464 19.0859 15.217 19.0305 15.2825C18.5921 15.7864 18.2527 16.3256 18.0142 16.9001Z" fill="#0F0373"/>
<path d="M25.3325 17.0577C25.1763 17.135 25.0604 17.0947 24.9865 16.9351C24.7043 16.3186 24.3549 15.7643 23.94 15.2721C23.8997 15.2234 23.898 15.1747 23.9333 15.1226C24.0492 14.9563 24.1785 14.8253 24.3213 14.7278C24.3734 14.6926 24.4406 14.6926 24.4926 14.7262C25.1914 15.1881 25.7659 15.7189 26.2178 16.3186C26.3303 16.4681 26.3018 16.5823 26.1338 16.6646L25.3325 17.0577Z" fill="#0F0373"/>
<path d="M18.405 17.0225L19.2953 15.5091C19.3305 15.4486 19.4061 15.4251 19.47 15.4519L20.3838 15.8416C20.4442 15.8668 20.4778 15.9307 20.4661 15.9945L20.199 17.4845C20.1856 17.5601 20.1133 17.6105 20.0361 17.597C20.0344 17.597 20.0327 17.597 20.031 17.597L18.4923 17.2308C18.4167 17.2124 18.3714 17.1368 18.3899 17.0629C18.3932 17.0494 18.3983 17.036 18.405 17.0242V17.0225Z" fill="#0F0373"/>
<path d="M22.8849 17.4742L22.5893 16.0027C22.5742 15.9322 22.6111 15.8599 22.6767 15.8297L23.4611 15.4736C23.5317 15.4417 23.6157 15.4652 23.6576 15.5307L24.6269 17.061C24.6739 17.1332 24.6521 17.2306 24.5782 17.276C24.5614 17.2861 24.5446 17.2928 24.5261 17.2978L23.068 17.5952C22.9841 17.612 22.9034 17.5582 22.8849 17.4742Z" fill="#0F0373"/>
<path d="M20.616 17.5081L20.8612 16.1072C20.873 16.0366 20.9351 15.9862 21.0057 15.9862L22.0841 15.9795C22.1563 15.9795 22.2168 16.0316 22.2286 16.1021L22.4587 17.5199C22.4721 17.5988 22.4184 17.6744 22.3378 17.6878C22.3294 17.6878 22.321 17.6895 22.3126 17.6895L20.7588 17.6794C20.6781 17.6794 20.6126 17.6122 20.6143 17.5316C20.6143 17.5232 20.6143 17.5148 20.616 17.5081Z" fill="#0F0373"/>
<path d="M15.7158 19.3726C15.7948 18.5831 16.0182 17.5467 16.4583 16.8764C16.4969 16.8159 16.5759 16.7975 16.6397 16.8311L17.6778 17.3854C17.75 17.424 17.7836 17.5063 17.7618 17.5853C17.5837 18.1816 17.4712 18.788 17.4225 19.4079C17.4191 19.4431 17.3906 19.47 17.3536 19.47L15.7864 19.4515C15.7477 19.4515 15.7158 19.4196 15.7158 19.3793C15.7158 19.3776 15.7158 19.3743 15.7158 19.3726Z" fill="#0F0373"/>
<path d="M25.5413 19.3287L25.2776 17.5851C25.2658 17.5112 25.3027 17.4372 25.3699 17.4037L26.4316 16.856C26.5172 16.8124 26.6231 16.846 26.6667 16.9316C26.6718 16.9417 26.6751 16.9518 26.6785 16.9619L27.3554 19.2262C27.3823 19.3186 27.3286 19.416 27.2362 19.4429C27.2211 19.448 27.2059 19.4496 27.1908 19.4496L25.7177 19.4765C25.6303 19.4782 25.5547 19.4144 25.5413 19.3287Z" fill="#0F0373"/>
<path d="M19.9134 19.465L17.9783 19.4515C17.9061 19.4515 17.8489 19.3927 17.8506 19.3205C17.8506 19.3138 17.8506 19.3071 17.8523 19.3004L18.1194 17.7331C18.1311 17.6626 18.1983 17.6155 18.2672 17.6273C18.2672 17.6273 18.2706 17.6273 18.2722 17.6273L20.0041 17.9884C20.0663 18.0002 20.1116 18.0573 20.1083 18.1211L20.0444 19.3424C20.0411 19.4112 19.9823 19.4667 19.9134 19.465Z" fill="#0F0373"/>
<path d="M23.0513 18.0003L24.6975 17.661C24.7731 17.6458 24.847 17.6945 24.8621 17.7701C24.8621 17.7701 24.8621 17.7718 24.8621 17.7735L25.136 19.3055C25.1494 19.3811 25.0973 19.4533 25.0217 19.4667C25.0133 19.4667 25.0066 19.4684 24.9982 19.4684L23.1236 19.4566C23.0497 19.4566 22.9892 19.3962 22.9858 19.3223L22.9405 18.1414C22.9388 18.0742 22.9858 18.0137 23.0513 18.0003Z" fill="#0F0373"/>
<path d="M20.56 19.4534C20.5281 19.4534 20.5029 19.4282 20.5029 19.3963V18.4153C20.5029 18.2204 20.5752 18.0625 20.6642 18.0625H22.3877C22.4767 18.0625 22.5489 18.2204 22.5489 18.4153V19.3963C22.5489 19.4282 22.5237 19.4534 22.4918 19.4534H20.56Z" fill="#0F0373"/>
<path d="M17.4259 20.0896L17.6913 21.7341C17.7081 21.8366 17.6543 21.9357 17.5619 21.9811L16.5759 22.4632C16.46 22.5203 16.3206 22.4716 16.2635 22.3557C16.2567 22.3422 16.2517 22.3288 16.2483 22.3153L15.6655 20.2139C15.6319 20.0896 15.7041 19.9603 15.8284 19.9267C15.8469 19.9216 15.867 19.9183 15.8855 19.9183L17.1907 19.8931C17.3066 19.8914 17.4074 19.9754 17.4259 20.0896Z" fill="#0F0373"/>
<path d="M20.5657 19.9237L22.4992 19.9019C22.5378 19.9019 22.5697 19.9338 22.5697 19.9724C22.5697 19.9741 22.5697 19.9774 22.5697 19.9791L22.4723 21.1634C22.4689 21.1987 22.4387 21.2272 22.4034 21.2272L20.6329 21.239C20.596 21.239 20.5641 21.2087 20.5624 21.1718L20.4952 19.9976C20.4935 19.959 20.5237 19.9254 20.5624 19.9237C20.5624 19.9237 20.5641 19.9237 20.5657 19.9237Z" fill="#0F0373"/>
<path d="M25.3751 21.9156C25.2945 21.8753 25.2659 21.8114 25.2911 21.7241C25.4423 21.1681 25.5229 20.5953 25.533 20.0057C25.533 19.9469 25.5632 19.9166 25.622 19.9166L27.1809 19.8965C27.2481 19.8965 27.3035 19.9486 27.3035 20.0174C27.3035 20.0208 27.3035 20.0258 27.3035 20.0292C27.2245 20.8372 27.0213 21.63 26.6937 22.4078C26.6635 22.48 26.5795 22.5136 26.5073 22.4834C26.5039 22.4834 26.5022 22.4817 26.4989 22.48L25.3751 21.9156Z" fill="#0F0373"/>
<path d="M20.0097 21.3142L18.2577 21.6368C18.1905 21.6485 18.125 21.6032 18.1132 21.536C18.1132 21.536 18.1132 21.536 18.1132 21.5343L17.8764 20.0628C17.8663 19.9956 17.9133 19.9318 17.9805 19.9217C17.9855 19.9217 17.9923 19.9217 17.9973 19.9217L19.9106 19.9116C19.9761 19.9116 20.0315 19.962 20.0366 20.0275L20.1122 21.1849C20.1172 21.2487 20.0718 21.3042 20.0097 21.3159V21.3142Z" fill="#0F0373"/>
<path d="M23.1106 19.9136H25.0205C25.0709 19.9119 25.1112 19.9523 25.1129 20.001C25.1129 20.006 25.1129 20.0111 25.1129 20.0161L24.8777 21.58C24.871 21.6287 24.8239 21.664 24.7735 21.6556C24.7735 21.6556 24.7735 21.6556 24.7719 21.6556L22.9846 21.3146C22.9392 21.3062 22.9056 21.2642 22.9107 21.2171L23.0232 19.9959C23.0282 19.9506 23.0652 19.9136 23.1122 19.9136H23.1106Z" fill="#0F0373"/>
<path d="M22.3711 21.8936L22.099 23.1954C22.0873 23.2559 22.0335 23.2979 21.973 23.2979L21.0088 23.2945C20.9467 23.2945 20.8929 23.2492 20.8829 23.187L20.683 21.8919C20.6729 21.8214 20.7216 21.7575 20.7905 21.7474C20.7955 21.7474 20.8022 21.7474 20.8073 21.7474L22.2452 21.7407C22.3157 21.7407 22.3728 21.7962 22.3745 21.8667C22.3745 21.8768 22.3745 21.8852 22.3711 21.8953V21.8936Z" fill="#0F0373"/>
<path d="M24.6225 22.3473L23.8128 23.7768C23.7675 23.8541 23.6734 23.8877 23.5894 23.8541L22.5966 23.4543C22.5143 23.4207 22.469 23.3333 22.4891 23.2477L22.7982 21.9206C22.8201 21.8266 22.9124 21.7661 23.0082 21.7846L24.5015 22.0819C24.5989 22.1021 24.6628 22.1961 24.6426 22.2935C24.6393 22.312 24.6325 22.3305 24.6225 22.3473Z" fill="#0F0373"/>
<path d="M20.2299 21.9747L20.4533 23.2564C20.4718 23.3622 20.4164 23.4663 20.3189 23.5117L19.4992 23.8896C19.39 23.94 19.259 23.8997 19.1968 23.7956L18.3939 22.4383C18.3267 22.3258 18.3637 22.1813 18.4762 22.1141C18.498 22.1007 18.5216 22.0923 18.5468 22.0856L19.9477 21.7849C20.0754 21.758 20.2013 21.8403 20.2282 21.968C20.2282 21.9696 20.2282 21.973 20.2282 21.9747H20.2299Z" fill="#0F0373"/>
<path d="M18.0223 22.5205C18.2944 23.1656 18.6153 23.7065 18.9848 24.1449C19.0268 24.1936 19.0268 24.244 18.9865 24.2927L18.6203 24.7479C18.5749 24.8034 18.5212 24.8118 18.4624 24.7714C17.7686 24.2944 17.1891 23.7401 16.7255 23.1068C16.6264 22.9724 16.6516 22.8666 16.7977 22.7876L17.5923 22.3677C17.7922 22.2618 17.9349 22.3122 18.0223 22.5205Z" fill="#0F0373"/>
<path d="M24.1346 24.0138L25.0182 22.4987C25.1022 22.3559 25.2802 22.3038 25.428 22.3777L26.1638 22.7506C26.3183 22.8279 26.3805 23.016 26.3032 23.1706C26.2881 23.2025 26.2663 23.231 26.2411 23.2546L24.8435 24.6001C24.7242 24.7143 24.5361 24.7177 24.4151 24.6051L24.1917 24.4002C24.0842 24.3011 24.0607 24.1398 24.1346 24.0138Z" fill="#0F0373"/>
<path d="M21.9026 23.7499L21.6389 24.9711C21.6255 25.0383 21.5616 25.0803 21.4944 25.0668C21.4457 25.0567 21.4088 25.0198 21.3987 24.9728L21.1047 23.76C21.0896 23.6944 21.1299 23.6272 21.1954 23.6121C21.2038 23.6105 21.2139 23.6088 21.2223 23.6088L21.7817 23.6021C21.8489 23.6021 21.9043 23.6558 21.906 23.723C21.906 23.7314 21.906 23.7398 21.9026 23.7499Z" fill="#0F0373"/>
<path d="M23.2931 24.3246L22.2163 25.1444C22.1475 25.1964 22.05 25.183 21.998 25.1141C21.9677 25.0738 21.9576 25.0217 21.9728 24.973L22.3255 23.8677C22.3507 23.7854 22.4397 23.7401 22.5221 23.7653C22.5254 23.7653 22.5288 23.7669 22.5305 23.7686L23.2561 24.0542C23.3368 24.0861 23.3754 24.1768 23.3452 24.2558C23.3351 24.2826 23.3166 24.3061 23.2931 24.3246Z" fill="#0F0373"/>
<path d="M20.6307 23.871L21.0523 25.0149C21.0775 25.0854 21.0405 25.1627 20.97 25.1879C20.9297 25.203 20.8843 25.1963 20.8473 25.1728L19.7269 24.3917C19.6648 24.3497 19.6497 24.264 19.6917 24.2019C19.7051 24.1834 19.7219 24.1683 19.742 24.1582L20.4408 23.797C20.508 23.7634 20.5903 23.7886 20.6239 23.8558C20.6256 23.8609 20.629 23.8659 20.6307 23.871Z" fill="#0F0373"/>
<path d="M24.0851 25.0016L23.0621 25.2787C22.9915 25.2972 22.921 25.2569 22.9008 25.1863C22.8874 25.1359 22.9058 25.0805 22.9478 25.0486L23.6517 24.5077C23.7004 24.4707 23.7676 24.4707 23.8146 24.5077L24.1338 24.7714C24.1892 24.8168 24.1993 24.8991 24.1539 24.9562C24.1371 24.978 24.1119 24.9932 24.0851 24.9999V25.0016Z" fill="#0F0373"/>
<path d="M19.3632 24.5464L20.0923 25.0889C20.141 25.1259 20.1494 25.1965 20.1124 25.2452C20.0872 25.2788 20.0452 25.2939 20.0032 25.2855L19.0122 25.0822C18.9517 25.0705 18.9131 25.0117 18.9265 24.9512C18.9299 24.9344 18.9366 24.9193 18.9467 24.9058L19.2087 24.5665C19.2457 24.5178 19.3145 24.5094 19.3632 24.5464Z" fill="#0F0373"/>
<path d="M9.31764 25.9809C10.0735 25.9389 10.6799 25.3106 10.9588 24.627C12.0221 22.0216 13.114 19.3625 14.2344 16.6497C14.5199 15.9576 14.4897 15.0824 13.7926 14.6826C13.035 14.2476 11.9045 14.3853 11.0277 14.3971C11.0058 14.3971 10.9873 14.392 10.9705 14.3803C10.9319 14.3568 10.9202 14.308 10.9437 14.2694C10.9437 14.2677 10.9454 14.266 10.947 14.2644C11.4023 13.6378 11.8306 13.0415 12.2337 12.4754C12.4572 12.1596 12.7528 12.0017 13.1207 12.0017C16.7876 12.0084 20.4479 12.0084 24.1014 12C26.6749 11.995 28.9611 13.7638 30.1268 15.9559C30.6459 16.9319 30.9331 17.9834 30.9886 19.1139C31.1834 23.095 28.8788 26.5806 24.7717 27.1181C24.2661 27.1836 23.4026 27.2138 22.1798 27.2071C16.8196 27.1786 11.8239 27.1769 7.19103 27.2021C6.99785 27.2021 6.95082 27.1214 7.05161 26.9551C7.16583 26.7653 7.28006 26.5738 7.39596 26.384C7.49507 26.2194 7.66641 26.1102 7.85958 26.0917C8.35512 26.0447 8.84058 26.0077 9.31764 25.9809ZM23.5807 14.901C23.6244 14.9363 23.6865 14.9312 23.7252 14.8909L23.9956 14.6003C24.0359 14.5583 24.0326 14.4911 23.9906 14.4508C23.9788 14.4407 23.9654 14.4323 23.9503 14.4273L22.9323 14.1149C22.8769 14.0964 22.8164 14.1266 22.7979 14.1821C22.7828 14.2257 22.7979 14.2728 22.8349 14.2996L23.5807 14.901ZM19.3812 14.8523C19.4249 14.8523 19.4686 14.8372 19.5005 14.8069L19.8348 14.4827C19.9003 14.4189 19.9003 14.3148 19.8348 14.2492C19.7911 14.2056 19.7256 14.1888 19.6668 14.2089L19.0789 14.4055C19.0016 14.4323 18.9546 14.5113 18.9697 14.5919L18.9915 14.7112C19.005 14.7885 19.0722 14.8439 19.1494 14.8456L19.3796 14.8523H19.3812ZM19.7592 14.9867C19.6819 15.0404 19.6634 15.1463 19.7172 15.2235C19.734 15.2487 19.7592 15.2689 19.7861 15.2806L20.4479 15.5813C20.5336 15.62 20.6344 15.5813 20.673 15.4973C20.6764 15.4889 20.6797 15.4822 20.6814 15.4738L20.9602 14.5113C20.9871 14.4206 20.935 14.3265 20.8443 14.3013C20.7956 14.2862 20.7419 14.2963 20.6999 14.3248L19.7592 14.9867ZM22.425 15.4956C22.4519 15.5729 22.5376 15.6149 22.6148 15.588C22.6199 15.588 22.6232 15.5847 22.6283 15.583L23.1658 15.3361C23.2414 15.3008 23.2733 15.2118 23.238 15.1379C23.2296 15.1194 23.2162 15.1009 23.2011 15.0875L22.3192 14.3282C22.257 14.2744 22.1613 14.2828 22.1092 14.345C22.0756 14.3853 22.0655 14.4391 22.0807 14.4895L22.425 15.4956ZM21.0022 15.5746C20.9804 15.6401 21.014 15.7107 21.0795 15.7325C21.0929 15.7375 21.1081 15.7392 21.1215 15.7392L21.9379 15.7325C22.0067 15.7325 22.0622 15.6754 22.0605 15.6065C22.0605 15.5931 22.0571 15.578 22.0538 15.5662L21.6355 14.3987C21.612 14.3332 21.5414 14.2996 21.4776 14.3232C21.4407 14.3366 21.4138 14.3652 21.4003 14.4004L21.0022 15.5746ZM18.0139 16.8999C18.2524 16.3255 18.5917 15.7863 19.0302 15.2823C19.0856 15.2168 19.094 15.1463 19.052 15.0707C18.9159 14.8237 18.6186 14.5919 18.3364 14.8137C17.7115 15.3025 17.2026 15.7963 16.8095 16.2986C16.7121 16.4246 16.7339 16.5237 16.8733 16.5959L17.6863 17.0192C17.8392 17.0982 17.9484 17.0595 18.0139 16.8999ZM25.3327 17.0578L26.134 16.6648C26.302 16.5825 26.3305 16.4682 26.218 16.3187C25.7661 15.7191 25.1916 15.1882 24.4928 14.7263C24.4408 14.6927 24.3736 14.6927 24.3215 14.728C24.1787 14.8254 24.0494 14.9564 23.9335 15.1227C23.8982 15.1748 23.8999 15.2235 23.9402 15.2722C24.3551 15.7644 24.7045 16.3187 24.9867 16.9352C25.0606 17.0948 25.1765 17.1351 25.3327 17.0578ZM18.4053 17.0226C18.3666 17.0881 18.3885 17.1738 18.454 17.2141C18.4658 17.2208 18.4792 17.2258 18.4926 17.2292L20.0313 17.5954C20.1069 17.6122 20.1808 17.5651 20.1976 17.4896C20.1976 17.4879 20.1976 17.4862 20.1976 17.4845L20.4647 15.9945C20.4765 15.9307 20.4429 15.8669 20.3824 15.8417L19.4686 15.452C19.4048 15.4251 19.3292 15.4486 19.2939 15.5091L18.4036 17.0226H18.4053ZM22.8853 17.4744C22.9038 17.5584 22.9844 17.6122 23.0684 17.5954L24.5264 17.2981C24.6104 17.2813 24.6658 17.199 24.649 17.1133C24.6457 17.0948 24.6373 17.0763 24.6272 17.0612L23.658 15.5309C23.616 15.4654 23.532 15.4419 23.4614 15.4738L22.677 15.8299C22.6115 15.8602 22.5745 15.9324 22.5896 16.0029L22.8853 17.4744ZM20.6159 17.508C20.6024 17.587 20.6545 17.6626 20.7351 17.6777C20.7435 17.6777 20.7519 17.6794 20.7587 17.6794L22.3125 17.6894C22.3931 17.6894 22.4603 17.6256 22.4603 17.545C22.4603 17.5366 22.4603 17.5282 22.4586 17.5198L22.2285 16.102C22.2167 16.0315 22.1562 15.9794 22.084 15.9794L21.0056 15.9861C20.935 15.9861 20.8729 16.0365 20.8611 16.1071L20.6159 17.508ZM16.4584 16.8764C16.0183 17.5467 15.7949 18.5831 15.7159 19.3726C15.7126 19.4129 15.7411 19.4482 15.7798 19.4515C15.7815 19.4515 15.7848 19.4515 15.7865 19.4515L17.3537 19.47C17.3907 19.47 17.4192 19.4431 17.4226 19.4079C17.4713 18.788 17.5839 18.1816 17.7619 17.5853C17.7838 17.5064 17.7502 17.424 17.6779 17.3854L16.6398 16.8311C16.576 16.7975 16.497 16.816 16.4584 16.8764ZM25.541 19.3289C25.5545 19.4146 25.63 19.4784 25.7174 19.4767L27.1906 19.4499C27.2863 19.4482 27.3636 19.3692 27.3619 19.2718C27.3619 19.2567 27.3585 19.2416 27.3552 19.2265L26.6782 16.9621C26.6514 16.8697 26.5539 16.8176 26.4615 16.8445C26.4515 16.8479 26.4414 16.8512 26.4313 16.8563L25.3697 17.4039C25.3025 17.4375 25.2655 17.5114 25.2773 17.5853L25.541 19.3289ZM19.9137 19.465C19.9826 19.465 20.0414 19.4112 20.0448 19.3424L20.1086 18.1212C20.1119 18.0573 20.0666 18.0002 20.0044 17.9885L18.2726 17.6273C18.202 17.6139 18.1348 17.6592 18.1197 17.7281C18.1197 17.7281 18.1197 17.7314 18.1197 17.7331L17.8526 19.3004C17.8409 19.3709 17.8879 19.4381 17.9585 19.4499C17.9652 19.4499 17.9719 19.4515 17.9786 19.4515L19.9137 19.465ZM23.0516 18.0002C22.9861 18.0136 22.939 18.0741 22.9407 18.1413L22.9861 19.3222C22.9894 19.3961 23.0499 19.4549 23.1238 19.4566L24.9984 19.4683C25.0757 19.4683 25.1379 19.4062 25.1379 19.3289C25.1379 19.3205 25.1379 19.3121 25.1362 19.3054L24.8624 17.7734C24.8489 17.6978 24.7767 17.6475 24.7011 17.6609C24.7011 17.6609 24.6994 17.6609 24.6978 17.6609L23.0516 18.0002ZM20.5604 19.4532H22.4922C22.5241 19.4532 22.5493 19.428 22.5493 19.3961V18.4151C22.5493 18.2203 22.4771 18.0624 22.3881 18.0624H20.6646C20.5756 18.0624 20.5033 18.2203 20.5033 18.4151V19.3961C20.5033 19.428 20.5285 19.4532 20.5604 19.4532ZM17.426 20.0899C17.4075 19.9756 17.3067 19.8916 17.1908 19.8933L15.8856 19.9185C15.7563 19.9219 15.6538 20.0277 15.6572 20.1571C15.6572 20.1772 15.6605 20.1957 15.6656 20.2142L16.2484 22.3156C16.282 22.4399 16.4114 22.5121 16.5357 22.4785C16.5491 22.4752 16.5626 22.4701 16.576 22.4634L17.562 21.9813C17.6544 21.9359 17.7082 21.8368 17.6914 21.7344L17.426 20.0899ZM20.5655 19.9236C20.5269 19.9236 20.4949 19.9555 20.4949 19.9941C20.4949 19.9941 20.4949 19.9958 20.4949 19.9975L20.5621 21.1716C20.5638 21.2086 20.5957 21.2388 20.6327 21.2388L22.4032 21.2271C22.4385 21.2271 22.4687 21.1985 22.472 21.1632L22.5695 19.979C22.5728 19.9404 22.5443 19.9051 22.5056 19.9017C22.504 19.9017 22.5006 19.9017 22.4989 19.9017L20.5655 19.9236ZM25.3747 21.9158L26.4985 22.4802C26.569 22.5155 26.6547 22.4869 26.69 22.4164C26.69 22.413 26.6917 22.4113 26.6933 22.408C27.0209 21.6302 27.2242 20.8374 27.3031 20.0294C27.3082 19.9622 27.2594 19.9034 27.1922 19.8967C27.1889 19.8967 27.1838 19.8967 27.1805 19.8967L25.6216 19.9168C25.5629 19.9168 25.5343 19.9471 25.5326 20.0059C25.5225 20.5955 25.4419 21.1683 25.2907 21.7243C25.2655 21.8116 25.2941 21.8755 25.3747 21.9158ZM20.0095 21.3144C20.0716 21.3027 20.117 21.2472 20.1119 21.1834L20.0364 20.026C20.0313 19.9605 19.9759 19.9084 19.9104 19.9101L17.9971 19.9202C17.9282 19.9202 17.8745 19.9773 17.8745 20.0462C17.8745 20.0512 17.8745 20.0579 17.8745 20.063L18.1113 21.5345C18.1231 21.6017 18.1869 21.6487 18.2541 21.6369C18.2541 21.6369 18.2541 21.6369 18.2558 21.6369L20.0078 21.3144H20.0095ZM23.1104 19.9135C23.0633 19.9135 23.0264 19.9504 23.0213 19.9958L22.9088 21.217C22.9038 21.264 22.9373 21.306 22.9827 21.3144L24.77 21.6554C24.8187 21.6638 24.8657 21.6319 24.8758 21.5815C24.8758 21.5815 24.8758 21.5815 24.8758 21.5798L25.111 20.016C25.1177 19.9672 25.0841 19.9202 25.0354 19.9135C25.0304 19.9135 25.0253 19.9135 25.0203 19.9135H23.1104ZM22.3713 21.894C22.3864 21.8251 22.3427 21.7579 22.2738 21.7428C22.2654 21.7411 22.2554 21.7394 22.2453 21.7394L20.8074 21.7461C20.7368 21.7461 20.6814 21.8049 20.6814 21.8755C20.6814 21.8805 20.6814 21.8872 20.6814 21.8923L20.8813 23.1874C20.8914 23.2495 20.9451 23.2949 21.0073 23.2949L21.9715 23.2983C22.0319 23.2983 22.0857 23.2563 22.0975 23.1958L22.3696 21.894H22.3713ZM24.6222 22.3475C24.6709 22.2618 24.6407 22.151 24.555 22.1022C24.5382 22.0922 24.5197 22.0855 24.5012 22.0821L23.0079 21.7848C22.9121 21.7663 22.8198 21.8268 22.7979 21.9208L22.4888 23.2479C22.4687 23.3335 22.514 23.4209 22.5964 23.4545L23.5891 23.8543C23.6731 23.8879 23.7672 23.8543 23.8125 23.777L24.6222 22.3475ZM20.2295 21.9746C20.206 21.8452 20.0834 21.7596 19.954 21.7831C19.9524 21.7831 19.949 21.7831 19.9473 21.7831L18.5464 22.0838C18.4187 22.1123 18.3381 22.2383 18.365 22.366C18.37 22.3912 18.3801 22.4147 18.3935 22.4365L19.1965 23.7938C19.2586 23.8979 19.3896 23.9383 19.4988 23.8879L20.3186 23.5099C20.416 23.4646 20.4714 23.3604 20.4529 23.2546L20.2295 21.9729V21.9746ZM18.0223 22.5205C17.9349 22.3122 17.7922 22.2618 17.5923 22.3677L16.7977 22.7876C16.6516 22.8665 16.6264 22.9724 16.7255 23.1068C17.1891 23.74 17.7686 24.2944 18.4624 24.7714C18.5212 24.8117 18.5749 24.8033 18.6203 24.7479L18.9865 24.2927C19.0268 24.244 19.0268 24.1936 18.9848 24.1449C18.6153 23.7064 18.2944 23.1656 18.0223 22.5205ZM24.135 24.0138C24.0611 24.1398 24.0846 24.3011 24.1921 24.4002L24.4156 24.6051C24.5365 24.7177 24.7246 24.7143 24.8439 24.6001L26.2415 23.2546C26.3658 23.1353 26.3692 22.9371 26.2482 22.8128C26.223 22.7876 26.1945 22.7658 26.1642 22.7506L25.4285 22.3777C25.2806 22.3038 25.1026 22.3559 25.0186 22.4987L24.135 24.0138ZM21.9026 23.7501C21.916 23.6846 21.874 23.6191 21.8085 23.6057C21.8001 23.604 21.7917 23.6023 21.7817 23.6023L21.2223 23.609C21.1551 23.609 21.0997 23.6661 21.1013 23.7333C21.1013 23.7417 21.1013 23.7518 21.1047 23.7602L21.3987 24.973C21.4121 25.0385 21.4776 25.0822 21.5448 25.0671C21.5935 25.057 21.6305 25.0184 21.6389 24.9713L21.9026 23.7501ZM23.2935 24.3246C23.3623 24.2725 23.3758 24.1751 23.3254 24.1062C23.3086 24.0827 23.2851 24.0659 23.2565 24.0542L22.5308 23.7686C22.4502 23.7384 22.3595 23.7787 22.3293 23.8593C22.3293 23.8627 22.3276 23.866 22.3259 23.8677L21.9731 24.973C21.948 25.0553 21.9933 25.1427 22.0756 25.1695C22.1243 25.1847 22.1764 25.1763 22.2167 25.1443L23.2935 24.3246ZM20.631 23.8711C20.6058 23.8005 20.5269 23.7652 20.4563 23.7904C20.4513 23.7921 20.4462 23.7938 20.4412 23.7972L19.7424 24.1583C19.6752 24.1919 19.6483 24.2742 19.6836 24.3414C19.6937 24.3616 19.7088 24.3784 19.7273 24.3918L20.8477 25.1729C20.9098 25.2149 20.9938 25.1998 21.0375 25.1376C21.0627 25.1023 21.0677 25.057 21.0526 25.015L20.631 23.8711ZM24.0846 25.0016C24.1552 24.9831 24.1955 24.9108 24.177 24.842C24.1703 24.8151 24.1552 24.7916 24.1334 24.7731L23.8142 24.5094C23.7672 24.4707 23.7 24.4707 23.6513 24.5094L22.9474 25.0503C22.8903 25.0939 22.8802 25.1763 22.9239 25.2334C22.9558 25.2754 23.0113 25.2938 23.0617 25.2804L24.0846 25.0032V25.0016ZM19.3628 24.5463C19.314 24.5094 19.2452 24.5178 19.2082 24.5665L18.9462 24.9058C18.9092 24.9545 18.9176 25.0234 18.9663 25.062C18.9798 25.0721 18.9949 25.0788 19.0117 25.0822L20.0028 25.2854C20.0632 25.2972 20.1203 25.2586 20.1321 25.1981C20.1405 25.1578 20.1237 25.1141 20.0918 25.0889L19.3628 24.5463Z" fill="white"/>
<circle cx="20" cy="20" r="19.5" stroke="black" stroke-opacity="0.05"/>
</svg>
