<svg width="40" height="40" viewBox="0 0 40 40" fill="none" xmlns="http://www.w3.org/2000/svg">
<circle cx="20" cy="20" r="20" fill="#F6F8FA"/>
<g clip-path="url(#clip0_16525_14403)">
<path d="M12.9368 20.2785C12.1307 19.8784 11.4345 19.5341 11.4345 18.9066C11.4345 18.1867 12.125 18.0792 12.5376 18.0792C13.2176 18.0792 13.932 18.2688 14.6598 18.6415L14.8852 18.7575V16.8941L14.8002 16.8516C14.1937 16.5516 13.3485 16.3799 12.4822 16.3799C10.3218 16.3799 9.3381 17.7612 9.3381 19.0444C9.3381 20.6776 10.615 21.3201 11.7411 21.8862C12.5873 22.3118 13.3188 22.6797 13.3188 23.3779C13.3188 24.2346 12.2606 24.3016 11.9369 24.3016C11.2301 24.3016 10.5596 24.0875 9.94361 23.6666L9.79844 23.5676L9 25.1102L9.10983 25.1867C9.85766 25.7037 10.9035 26.0009 11.9779 26.0009C14.0342 26.0009 15.4152 24.8913 15.4152 23.2402C15.4152 21.5079 14.0409 20.8267 12.9368 20.2794V20.2785Z" fill="#083B1E"/>
<path d="M22.1027 16.4629L20.0445 20.3304L17.9729 16.4629H15.7715L19.0245 22.1485V25.8622H21.0234V22.1617L24.2764 16.4629H22.1027Z" fill="#083B1E"/>
<path d="M30.3142 17.8526C30.3333 17.9196 30.2655 17.9772 30.2015 17.9498H30.1996C29.9972 17.8602 29.7928 17.7771 29.5836 17.7045C29.1624 17.5582 28.7231 17.4563 28.2752 17.446C27.8034 17.4337 27.3229 17.5648 26.854 17.4818C26.3688 17.395 25.9639 17.0808 25.6707 16.7006C25.4902 16.4657 25.3459 16.2071 25.2199 15.9401C25.1568 15.8061 25.0986 15.6703 25.0422 15.5335C25.0117 15.458 24.9811 15.3825 24.9515 15.307C24.9419 15.2834 24.9582 15.257 24.984 15.2551C25.4252 15.2287 25.8655 15.2655 26.2915 15.3646C26.7824 15.4787 27.2542 15.674 27.6954 15.9335C27.916 16.0628 28.129 16.2071 28.3382 16.36C28.4442 16.4383 28.5474 16.5194 28.6495 16.6025C28.6935 16.6374 28.7508 16.5798 28.7135 16.5374L28.7107 16.5345L28.6467 16.4581C28.6257 16.4326 28.6037 16.4081 28.5808 16.3836L28.4452 16.2383C28.2589 16.0496 28.0555 15.8741 27.8377 15.7165C27.4022 15.4023 26.8989 15.1664 26.366 15.0438C26.2819 15.024 26.196 15.007 26.111 14.9938C26.0661 14.9862 26.0708 14.9211 26.1157 14.9202C26.1176 14.9202 26.1186 14.9202 26.1205 14.9202C26.5388 14.9117 26.9591 14.9579 27.364 15.0617C28.2341 15.2853 29.0077 15.8043 29.5664 16.4977C29.8825 16.8893 30.127 17.3318 30.297 17.8036C30.2999 17.8111 30.3047 17.829 30.3123 17.8545L30.3142 17.8526Z" fill="#F0831F"/>
<path d="M24.305 14.2711C24.4692 14.5277 24.58 14.8202 24.7481 15.0721C24.7796 15.1202 24.7386 15.1825 24.6813 15.1731C24.4549 15.1353 24.2314 15.0844 24.0156 15.007C23.5629 14.8466 23.1398 14.5607 22.9125 14.1314C22.6918 13.7172 22.6747 13.2285 22.5218 12.7898C22.3776 12.3737 22.1484 11.9925 21.8819 11.6415C21.7501 11.467 21.6078 11.3009 21.4627 11.1377C21.4235 11.0933 21.3834 11.0499 21.3442 11.0065C21.4397 11.0046 21.5534 10.9999 21.5744 11.0009C22.0777 11.0197 22.5763 11.1169 23.0462 11.2952C23.879 11.6113 24.6087 12.1821 25.0834 12.9303C25.1932 13.1049 25.2916 13.287 25.3766 13.4748C25.3928 13.5106 25.3536 13.5455 25.3193 13.5266C24.8646 13.2757 24.2706 13.1257 23.8456 13.2106C23.5906 13.2615 23.305 13.4483 23.3098 13.6852C23.3098 13.7257 23.3499 13.754 23.39 13.7465C23.7491 13.6823 24.1054 13.9597 24.3069 14.272L24.305 14.2711Z" fill="#4A8638"/>
<path d="M34.9513 13.956C35.041 14.0324 35 14.1768 34.8834 14.1966H34.8806C34.5119 14.2589 34.1442 14.3306 33.7813 14.4212C33.0497 14.6042 32.3344 14.8665 31.6935 15.2647C31.0173 15.6836 30.4653 16.311 29.726 16.6271C28.961 16.9536 28.0919 16.8847 27.3202 16.6205C26.8436 16.4573 26.3947 16.2252 25.965 15.9657C25.7491 15.8355 25.538 15.6978 25.3289 15.5562C25.2143 15.4779 25.1006 15.3996 24.987 15.3203C24.9516 15.2958 24.9488 15.2439 24.9841 15.2175C25.5801 14.7731 26.2362 14.4183 26.9296 14.1636C27.729 13.8711 28.579 13.7107 29.4453 13.6682C29.8779 13.6465 30.3144 13.6522 30.7547 13.6758C30.9772 13.6881 31.1997 13.7079 31.4232 13.7296C31.5178 13.739 31.5436 13.6041 31.4519 13.5786L31.4452 13.5767L31.2838 13.5286C31.2303 13.5126 31.1758 13.4975 31.1214 13.4843L30.7929 13.406C30.3516 13.3125 29.8999 13.2531 29.4443 13.2323C28.5332 13.1927 27.602 13.3248 26.7348 13.6437C26.5972 13.6937 26.4616 13.7494 26.3279 13.8088C26.2572 13.84 26.2018 13.7437 26.2649 13.7003C26.2668 13.6994 26.2687 13.6975 26.2706 13.6966C26.8513 13.2984 27.4883 12.9757 28.1569 12.7483C29.5933 12.2605 31.1758 12.2756 32.6171 12.737C33.4327 12.9974 34.1958 13.3937 34.8825 13.9004C34.893 13.9079 34.9178 13.9296 34.9522 13.9579L34.9513 13.956Z" fill="url(#paint0_linear_16525_14403)"/>
</g>
<circle cx="20" cy="20" r="19.5" stroke="black" stroke-opacity="0.05"/>
<defs>
<linearGradient id="paint0_linear_16525_14403" x1="34.1059" y1="13.6075" x2="25.8967" y2="15.3703" gradientUnits="userSpaceOnUse">
<stop stop-color="#9DC815"/>
<stop offset="0.16" stop-color="#93C118"/>
<stop offset="0.42" stop-color="#7AAF20"/>
<stop offset="0.75" stop-color="#52932E"/>
<stop offset="1" stop-color="#2F7A3A"/>
</linearGradient>
<clipPath id="clip0_16525_14403">
<rect width="26" height="15" fill="white" transform="translate(9 11)"/>
</clipPath>
</defs>
</svg>
