<svg width="40" height="40" viewBox="0 0 40 40" fill="none" xmlns="http://www.w3.org/2000/svg">
<circle cx="20" cy="20" r="20" fill="#0B7CC2"/>
<path d="M17.5177 13.1941C15.8474 12.313 14.0954 11.6012 12.2293 11.0485C12.1905 11.0383 12.1701 10.9975 12.1803 10.9608C12.1844 10.9486 12.1926 10.9364 12.2028 10.9262C15.9187 7.63033 21.1195 7.13881 25.5248 9.34962C26.002 9.58824 26.4793 9.89825 26.9585 10.2756C27.0605 10.3551 27.0462 10.402 26.9178 10.4163C23.8707 10.7181 20.3975 11.5217 17.7706 13.1839C17.6951 13.2308 17.5993 13.2349 17.5177 13.1941Z" fill="white"/>
<path d="M31.9695 21.2113C31.737 24.8722 29.8198 28.2149 26.8238 30.3809C26.7524 30.4319 26.6586 30.4339 26.5872 30.3829C23.8829 28.4434 21.517 26.3468 19.4898 24.0911C19.4 23.9911 19.4021 23.8932 19.4959 23.7974C20.6339 22.639 21.7699 21.1481 22.0289 19.494C22.3818 17.2506 20.8787 15.3987 19.0921 14.1689C18.9758 14.0894 18.9758 14.0078 19.0921 13.9283C21.4905 12.2375 24.615 11.3993 27.5682 10.8629C27.6763 10.8425 27.7865 10.8751 27.866 10.9506C30.8579 13.7671 32.2264 17.1874 31.9695 21.2113Z" fill="white"/>
<path d="M9.48203 26.1839C6.91838 21.3176 7.72806 15.4826 11.544 11.5586C11.6153 11.4852 11.7214 11.4587 11.8193 11.4913C13.5325 12.0644 15.1824 12.7925 16.7712 13.6797C16.8834 13.7409 16.8895 13.8123 16.7916 13.8959C13.6854 16.5248 13.9016 20.0796 15.523 23.508C15.5679 23.6018 15.5455 23.6753 15.4537 23.7263C13.6018 24.7623 11.7173 25.623 9.79815 26.3062C9.65742 26.3572 9.55137 26.3164 9.48203 26.1839Z" fill="white"/>
<path d="M17.9316 21.9068C16.4611 19.5859 16.0634 16.8999 18.1519 14.7543C18.2008 14.7033 18.2803 14.6972 18.3354 14.7421C19.3144 15.513 20.2036 16.596 20.3321 17.8278C20.5014 19.437 19.2817 20.8973 18.0703 21.9272C18.0152 21.9721 17.9703 21.966 17.9316 21.9068Z" fill="white"/>
<path d="M22.3491 32.3203C18.5496 33.0342 14.7581 31.9838 11.9416 29.3773C11.8926 29.3304 11.8906 29.2529 11.9375 29.204C11.9457 29.1958 11.9559 29.1877 11.9661 29.1816C13.7241 28.2087 15.3353 27.1808 16.7997 26.0938C16.8609 26.0489 16.9139 26.057 16.9567 26.1203C18.4782 28.2862 20.2954 30.2808 22.4063 32.1021C22.4593 32.149 22.4654 32.2286 22.4205 32.2796C22.4022 32.2999 22.3777 32.3142 22.3491 32.3203Z" fill="white"/>
<circle cx="20" cy="20" r="19.5" stroke="black" stroke-opacity="0.05"/>
</svg>
