<svg width="40" height="40" viewBox="0 0 40 40" fill="none" xmlns="http://www.w3.org/2000/svg">
<circle cx="20" cy="20" r="20" fill="#008300"/>
<path d="M29.0625 22.4512C29.2612 21.6868 29.3672 20.8846 29.3672 20.0569C29.3672 19.2293 29.2541 18.3812 29.0441 17.5974L30.5914 17.258C30.5914 17.258 30.1154 14.1267 27.6579 12.2359L26.5601 13.3225C25.4267 12.1982 24.0099 11.3593 22.4269 10.92L22.9478 9.28304C22.9478 9.28304 19.999 8.12819 17.1317 9.31056L17.5394 10.868C15.8973 11.2859 14.4265 12.133 13.2533 13.2827L12.1953 12.2349C9.73677 14.1257 9.26178 17.2569 9.26178 17.2569L10.7336 17.58C10.5206 18.37 10.4064 19.1997 10.4064 20.0559C10.4064 20.9121 10.5186 21.7296 10.7285 22.5134L9.38307 22.9242C9.88151 25.9851 12.4124 27.8881 12.4124 27.8881L13.292 26.8647C14.4724 28.0084 15.9493 28.8473 17.5965 29.256L17.1327 30.7126C17.1327 30.7126 20.0815 31.8674 22.9488 30.685L22.5482 29.1561C24.125 28.6954 25.5327 27.8371 26.6529 26.6955L27.7099 27.9248C27.7099 27.9248 30.2408 26.0208 30.7392 22.9609L29.0625 22.4482V22.4512Z" fill="#FDFF00"/>
<path d="M27.0963 19.5463C27.0963 18.4516 26.9363 18.2375 25.8854 17.9358C23.9976 17.3945 22.063 17.2213 19.9103 17.1611C19.9103 17.1611 19.9011 17.1611 19.896 17.1611C19.892 17.1611 19.8889 17.1611 19.8858 17.1611C18.9267 17.1723 17.9655 17.2335 17.0002 17.3354C15.8525 17.4567 14.7191 17.6606 13.6213 18.0265C12.8558 18.2813 12.6988 18.5239 12.6978 19.3353C12.6978 19.7766 12.6978 20.218 12.6978 20.6583C12.6978 21.753 12.8578 21.9671 13.9087 22.2688C15.7965 22.81 17.7311 22.9833 19.8838 23.0434C19.8838 23.0434 19.893 23.0434 19.8981 23.0434C19.9021 23.0434 19.9052 23.0434 19.9083 23.0434C20.8674 23.0322 21.8286 22.9711 22.7939 22.8691C23.9416 22.7478 25.075 22.544 26.1728 22.1781C26.9383 21.9232 27.0953 21.6807 27.0963 20.8693C27.0963 20.428 27.0963 19.9866 27.0963 19.5463Z" fill="#FD0200"/>
<circle cx="20" cy="20" r="19.5" stroke="black" stroke-opacity="0.05"/>
</svg>
