<svg width="40" height="40" viewBox="0 0 40 40" fill="none" xmlns="http://www.w3.org/2000/svg">
<circle cx="20" cy="20" r="20" fill="#1E1E23"/>
<path d="M15.9704 12.5115C15.9013 12.3356 15.8376 12.0828 15.5966 12.1687L9 28.2848C10.1489 28.2848 11.2588 28.2793 12.3685 28.2893C12.6036 28.2915 12.7208 28.2373 12.8105 27.9913C13.1622 27.0266 13.5544 26.0767 13.9214 25.1174C14.0071 24.8934 14.1547 24.8558 14.3705 24.8584C15.2304 24.8687 16.0906 24.8596 16.9507 24.8634C18.1289 24.8687 19.3071 24.8792 20.511 24.8639C20.6973 24.6851 20.6371 24.5176 20.5716 24.3437L20.5578 24.3072C20.29 23.5962 20.0223 22.8851 19.7263 22.1852C19.6478 21.9994 19.5894 21.7061 19.3109 21.6551C19.0022 21.6551 18.7244 21.6541 18.4455 21.6551C17.6398 21.6582 16.8339 21.6654 16.0283 21.6518C15.6643 21.6457 15.5964 21.5514 15.7263 21.2138C16.2942 19.7384 16.9049 18.2795 17.4496 16.7598C17.5052 16.561 17.4738 16.398 17.4153 16.2399C16.9527 14.9897 16.458 13.752 15.9704 12.5115Z" fill="#D9D9D9"/>
<path d="M18.6118 11.0393C19.6761 11.0126 20.7187 11.0213 21.7606 11.0002C22.0778 10.9938 22.2343 11.1129 22.3454 11.3979C23.1324 13.4156 23.9321 15.4284 24.7249 17.4439C25.6244 19.7306 26.5274 22.016 27.4155 24.3072C27.7794 25.246 28.1906 26.1412 28.9334 26.8608C29.4648 27.3756 30.065 27.7482 30.753 27.9977C30.8514 28.0334 31.0145 28.0397 30.9988 28.177C30.9823 28.3217 30.823 28.2845 30.7212 28.2812C29.7231 28.2483 28.7213 28.3692 27.6913 28.2062C26.059 28.2927 25.0276 27.4525 24.3148 26.1312C23.6787 24.9523 23.3023 23.6629 22.8139 22.422C21.9075 20.119 21.0173 17.8094 20.1208 15.5024C19.6222 14.2192 19.1282 12.9343 18.6339 11.6495C18.5634 11.4662 18.4183 11.2719 18.6118 11.0393Z" fill="white"/>
<path d="M19.727 13.9002C19.3566 12.9409 18.9981 11.977 18.5955 11.013C17.426 11.0107 16.2951 11.0107 15.1421 11.0107L20.5002 24.9125C20.7733 25.6886 21.1087 26.3981 21.6501 26.991C22.4906 27.9115 23.6043 28.2037 24.7831 28.2746C25.6393 28.326 26.5011 28.2868 27.3603 28.282C27.4608 28.2814 27.5865 28.3367 27.6245 28.1967C25.8281 27.9329 24.7406 26.8864 24.1171 25.2621C22.6622 21.4715 21.1894 17.6878 19.727 13.9002Z" fill="#E51C2A"/>
<circle cx="20" cy="20" r="19.5" stroke="black" stroke-opacity="0.05"/>
</svg>
