<svg width="40" height="40" viewBox="0 0 40 40" fill="none" xmlns="http://www.w3.org/2000/svg">
<circle cx="20" cy="20" r="20" fill="#F6F8FA"/>
<path d="M22.7505 14.9688L23.1428 14.2584L23.7542 13.4475L24.9918 12.3888C24.1604 11.8851 23.2598 11.5059 22.3186 11.2634C21.7718 11.1168 21.2131 11.0193 20.649 10.9722C20.0085 10.9125 19.3637 10.915 18.7237 10.9796C17.8645 11.0617 17.0192 11.2529 16.2082 11.5487L15.3009 11.9319C14.7034 12.2147 14.1359 12.557 13.607 12.9536C12.6039 13.6988 11.747 14.6228 11.0793 15.6792C10.6213 16.3972 10.258 17.1713 9.99841 17.9824L9.78243 18.7394C9.43152 20.1957 9.40729 21.7117 9.7115 23.1785C9.85303 23.878 10.0703 24.5599 10.3594 25.2123L10.7575 26.0228C12.0496 28.3249 14.13 30.0554 16.6571 30.8441C16.6697 30.8483 16.6832 30.8483 16.6958 30.8441C17.4326 30.6029 18.1455 30.294 18.8254 29.9214C19.9356 29.3134 20.62 28.3875 20.8787 27.1439C20.9887 26.6138 21.0539 26.0753 21.0735 25.5342L21.0894 24.8989L21.1016 23.3146L21.0989 21.6312L21.1032 19.193V15.7523L21.1079 15.0011C21.1075 14.9975 21.1079 14.9938 21.1091 14.9903C21.1103 14.9869 21.1123 14.9838 21.1149 14.9812C21.1175 14.9787 21.1207 14.9767 21.1241 14.9756C21.1276 14.9745 21.1313 14.9741 21.1349 14.9746L22.1613 14.9709L22.7505 14.9688Z" fill="url(#paint0_radial_18553_55770)"/>
<path d="M28.2445 15.4878L25.485 16.7762C25.485 18.8248 25.485 20.8681 25.485 22.9061C25.485 24.1501 25.396 25.3708 25.0916 26.5925C24.7668 27.9457 24.0263 29.1632 22.9742 30.0741C22.5214 30.4711 22.0271 30.8183 21.5 31.1095C21.4171 31.155 21.4222 31.1695 21.5153 31.1529C25.8195 30.388 29.1772 26.9679 29.8304 22.6404C30.2079 20.142 29.6426 17.5925 28.2445 15.4878Z" fill="#002F7B"/>
<path d="M28.2446 15.4876C27.6126 15.9391 26.9194 16.2981 26.186 16.5537C25.9566 16.6335 25.723 16.7076 25.4851 16.7761C24.5917 17.0055 23.676 17.137 22.7542 17.1683C22.5746 17.1747 22.3755 17.1823 22.1571 17.1911C22.1301 17.1911 22.1179 17.1789 22.1211 17.1519C22.2015 16.4834 22.3789 15.8302 22.6478 15.2129C22.6831 15.1324 22.7173 15.0513 22.7505 14.9694L23.1427 14.2585C23.3253 13.9727 23.5297 13.7016 23.7541 13.4475C24.1176 13.0409 24.5338 12.6848 24.9918 12.3888C25.6004 12.0031 26.2668 11.7171 26.9657 11.5418C27.3945 11.436 27.9683 11.4016 28.3749 11.2607C30.0159 10.6922 30.9544 9.14333 31.4382 7.54733C31.4578 7.48275 31.47 7.48434 31.4748 7.55157C31.5917 9.29473 31.3054 11.1146 30.5457 12.6985C30.0208 13.8039 29.2302 14.7622 28.2446 15.4876Z" fill="#14A83B"/>
<circle cx="20" cy="20" r="19.5" stroke="black" stroke-opacity="0.05"/>
<defs>
<radialGradient id="paint0_radial_18553_55770" cx="0" cy="0" r="1" gradientUnits="userSpaceOnUse" gradientTransform="translate(16 17.5) rotate(53.5308) scale(14.3003 11.1225)">
<stop stop-color="#DDDEEC"/>
<stop offset="0.473544" stop-color="#4D5B9A"/>
<stop offset="1" stop-color="#002F7B"/>
</radialGradient>
</defs>
</svg>
