<svg width="40" height="40" viewBox="0 0 40 40" fill="none" xmlns="http://www.w3.org/2000/svg">
<circle cx="20" cy="20" r="20" fill="#F6F8FA"/>
<path d="M20.9366 12.4234L20.9239 10.9485C20.9239 10.921 20.9101 10.9066 20.8826 10.9055L20.248 10.8768C21.3989 10.4088 22.5343 9.95431 23.6543 9.51331C24.1982 9.29899 24.725 9.11618 25.2346 8.96487C26.2826 8.6538 27.3288 8.3343 28.3734 8.00636C28.3993 7.99849 28.4252 7.99792 28.451 8.00467C28.4534 8.00532 28.4555 8.00666 28.457 8.00852C28.4586 8.01039 28.4595 8.0127 28.4598 8.01519C28.4601 8.01767 28.4596 8.02023 28.4585 8.02255C28.4574 8.02488 28.4557 8.02687 28.4536 8.0283L20.9366 12.4234Z" fill="#04C504"/>
<path d="M20.2488 10.877L20.8833 10.9056C20.9109 10.9068 20.9247 10.9211 20.9247 10.9487L20.9373 12.4236V17.6624C20.9373 17.6906 20.9232 17.7046 20.8951 17.7046L14.1679 17.7055C14.1375 17.7055 14.1223 17.6903 14.1223 17.6599L14.1265 16.4255L14.1164 14.1423L14.1113 10.9385C14.1113 10.9104 14.1257 10.8964 14.1544 10.8964L20.2488 10.877Z" fill="#040204"/>
<path d="M27.3178 12.3652H21.7389C21.7138 12.3652 21.6934 12.3856 21.6934 12.4108V17.6775C21.6934 17.7027 21.7138 17.7231 21.7389 17.7231H27.3178C27.343 17.7231 27.3634 17.7027 27.3634 17.6775V12.4108C27.3634 12.3856 27.343 12.3652 27.3178 12.3652Z" fill="#54F3FC"/>
<path d="M14.1159 14.1421L14.1261 16.4253L6.13909 21.0879C6.01252 21.1616 6.00155 21.1469 6.10618 21.044C6.87062 20.2908 7.65897 19.5036 8.47123 18.6823C8.87848 18.2706 9.29642 17.8867 9.72505 17.5306C10.5502 16.8449 11.3833 16.1398 12.2242 15.4153C12.2732 15.3731 12.3303 15.3368 12.3955 15.3065C12.4383 15.2868 12.4785 15.2603 12.5162 15.2272C12.5477 15.199 12.5848 15.1726 12.6276 15.1478C12.8402 15.0247 13.0275 14.9079 13.1895 14.7977C13.23 14.7696 13.2722 14.7417 13.3161 14.7142C13.6001 14.5336 13.8668 14.3429 14.1159 14.1421Z" fill="#04C504"/>
<path d="M20.9241 18.3761H12.0073C11.992 18.3761 11.9795 18.3886 11.9795 18.4039V27.9721C11.9795 27.9875 11.992 28 12.0073 28H20.9241C20.9395 28 20.952 27.9875 20.952 27.9721V18.4039C20.952 18.3886 20.9395 18.3761 20.9241 18.3761Z" fill="#04C504"/>
<path d="M30.0246 18.3879H21.722C21.7094 18.3879 21.6992 18.3981 21.6992 18.4107V27.1098C21.6992 27.1224 21.7094 27.1326 21.722 27.1326H30.0246C30.0371 27.1326 30.0473 27.1224 30.0473 27.1098V18.4107C30.0473 18.3981 30.0371 18.3879 30.0246 18.3879Z" fill="#040204"/>
<circle cx="20" cy="20" r="19.5" stroke="black" stroke-opacity="0.05"/>
</svg>
