<svg width="40" height="40" viewBox="0 0 40 40" fill="none" xmlns="http://www.w3.org/2000/svg">
<circle cx="20" cy="20" r="20" fill="#F6F8FA"/>
<path d="M29.6875 14.7612C29.6875 11.3181 26.8957 8.52637 23.4526 8.52637C20.0095 8.52637 17.2178 11.3181 17.2178 14.7612C17.2178 18.2043 20.0095 20.9961 23.4526 20.9961C26.8957 20.9961 29.6875 18.2043 29.6875 14.7612Z" fill="#E50012"/>
<path d="M30.9202 24.8283C30.7788 24.0582 30.447 23.3229 29.9677 22.7105C29.3635 21.9383 28.7204 21.205 28.0322 20.5086C27.135 21.2234 26.1969 21.6741 25.0786 21.928C25.9757 22.7535 26.7909 23.6363 27.5406 24.5948C28.1059 25.3199 28.0465 26.3338 27.4054 26.9913C26.8667 27.5443 26.2973 27.8372 25.5374 27.9581C24.2736 28.1567 23.0447 28.1752 21.7768 28.0154C20.5499 27.8597 19.5914 27.4255 18.6656 26.6062C19.8515 25.1274 20.8981 23.5769 21.826 21.926C20.7793 21.6884 19.8863 21.2746 19.0301 20.6274C18.4894 21.5716 17.9036 22.4811 17.2687 23.3639C14.2352 20.441 8.83196 22.479 9.00401 26.7844C9.17402 31.0673 14.7084 32.7366 17.5104 29.5966C18.7147 30.418 19.9416 30.8829 21.3897 31.0652C22.9484 31.2619 24.4621 31.2393 26.0146 30.9935C27.473 30.7641 28.5647 30.2009 29.597 29.146C30.1418 28.591 30.5535 27.9028 30.785 27.1551C31.0144 26.4075 31.0615 25.6005 30.9202 24.8283ZM13.8317 28.1444C12.9674 28.1444 12.0723 27.5525 12.0723 26.6083C12.0723 25.664 12.9674 25.0721 13.8317 25.0721C14.6961 25.0721 15.5912 25.664 15.5912 26.6083C15.5912 27.5525 14.6961 28.1444 13.8317 28.1444Z" fill="#464599"/>
<circle cx="20" cy="20" r="19.5" stroke="black" stroke-opacity="0.05"/>
</svg>
