<svg width="40" height="40" viewBox="0 0 40 40" fill="none" xmlns="http://www.w3.org/2000/svg">
<circle cx="20" cy="20" r="20" fill="#F6F8FA"/>
<path d="M19.5469 4.73682H20.5922C22.4898 4.82579 24.2977 5.23525 26.0159 5.96519C26.075 5.99039 26.086 6.02937 26.049 6.08212L13.3069 24.4723C13.2841 24.5054 13.2585 24.5073 13.2302 24.4782C11.0463 22.273 8.11353 20.8734 5.09692 20.1057C5.05991 20.0962 5.04102 20.0726 5.04023 20.0348C4.91857 15.4721 6.99382 11.1645 10.327 8.31682C12.9215 6.10023 15.9948 4.9069 19.5469 4.73682Z" fill="#62BFA3"/>
<path d="M29.6241 8.17378C32.7447 10.7782 34.6864 14.4326 35.0349 18.4732C35.0354 18.4797 35.0346 18.4862 35.0323 18.4922C35.0301 18.4983 35.0265 18.5038 35.0218 18.5083C35.0172 18.5128 35.0116 18.5163 35.0055 18.5184C34.9994 18.5205 34.9929 18.5212 34.9864 18.5205C29.6548 17.9299 24.2004 19 19.4995 21.543C19.4672 21.5603 19.4621 21.5544 19.4841 21.5253L29.5367 8.18441C29.5416 8.17774 29.5478 8.17214 29.5549 8.16796C29.562 8.16378 29.5699 8.16111 29.5781 8.16011C29.5863 8.15911 29.5946 8.15981 29.6025 8.16216C29.6104 8.16451 29.6178 8.16847 29.6241 8.17378Z" fill="#62BFA3"/>
<path d="M15.7865 30.1983L16.0015 27.9896C16.0046 27.9566 16.016 27.927 16.0357 27.901C16.1074 27.8058 16.1846 27.7148 16.2672 27.6282C18.6342 25.1655 21.7122 23.5734 25.0253 22.7608C28.2466 21.9702 31.5392 21.7214 34.9031 22.0143C34.907 22.0146 34.9109 22.0157 34.9144 22.0175C34.9179 22.0193 34.9209 22.0218 34.9234 22.0248C34.9258 22.0278 34.9276 22.0312 34.9286 22.0349C34.9296 22.0386 34.9297 22.0424 34.9291 22.0462C33.5767 30.7086 25.1836 36.4524 16.6098 34.4197C11.297 33.1606 7.17136 29.1897 5.60873 23.9313C5.60624 23.9234 5.60578 23.9151 5.60739 23.9071C5.60901 23.899 5.61264 23.8915 5.61796 23.8852C5.62327 23.879 5.63009 23.8742 5.63777 23.8713C5.64546 23.8684 5.65375 23.8675 5.66188 23.8687C8.49186 24.2679 10.8588 26.1778 12.3849 28.5495C12.4069 28.5833 12.4179 28.6203 12.4179 28.6605V29.9349C12.4179 29.9798 12.44 30.0038 12.4841 30.007L15.6838 30.2846C15.746 30.2901 15.7802 30.2613 15.7865 30.1983Z" fill="#368870"/>
<circle cx="20" cy="20" r="19.5" stroke="black" stroke-opacity="0.05"/>
</svg>
