<svg width="40" height="40" viewBox="0 0 40 40" fill="none" xmlns="http://www.w3.org/2000/svg">
<circle cx="20" cy="20" r="20" fill="black"/>
<circle cx="20" cy="20" r="19.5" stroke="black" stroke-opacity="0.05"/>
<path d="M11.0087 11.0051C12.1801 10.9979 13.3516 11.0027 14.523 11.0027C14.5278 15.2213 14.5242 19.4388 14.5242 23.6562C14.5254 24.2918 14.4875 24.9605 14.7495 25.5569C15.3257 26.8908 17.6343 26.803 18.0907 25.4146C18.2591 24.9391 18.2069 24.4281 18.2188 23.9337C18.2224 19.6249 18.2069 15.315 18.2271 11.0074C19.4092 10.9991 20.5925 10.9956 21.7758 11.0086C21.7995 15.5462 21.777 20.0838 21.7865 24.6214C21.7533 25.3079 22.0853 26.0549 22.7493 26.3252C23.5472 26.6584 24.6831 26.5445 25.155 25.7359C25.4739 25.194 25.4894 24.5455 25.4787 23.9349C25.4751 19.6237 25.4775 15.3126 25.4787 11.0027C26.6418 11.0015 27.8074 11.0003 28.9717 11.0027C29.0286 15.4016 28.9788 19.8016 28.9978 24.2005C29.0203 25.4691 28.712 26.8576 27.6935 27.7053C26.3691 28.7973 24.5361 28.9123 22.8963 28.7784C21.8055 28.6906 20.7656 28.2235 19.9831 27.4539C19.1377 28.374 17.8761 28.7689 16.6549 28.8127C15.372 28.859 14.0191 28.7475 12.8797 28.1037C12.0912 27.6614 11.477 26.905 11.2387 26.0288C10.9233 25.0399 11.0158 23.9882 11.004 22.9662C11.0063 18.9787 10.998 14.9913 11.0087 11.0051Z" fill="white"/>
</svg>
