<svg width="40" height="40" viewBox="0 0 40 40" fill="none" xmlns="http://www.w3.org/2000/svg">
<circle cx="20" cy="20" r="20" fill="white"/>
<circle cx="20" cy="20" r="20" fill="white"/>
<circle cx="20" cy="20" r="19.5" stroke="black" stroke-opacity="0.05"/>
<circle cx="20" cy="20" r="20" fill="#3A69A3"/>
<circle cx="20" cy="20" r="19.5" stroke="black" stroke-opacity="0.05"/>
<g clip-path="url(#clip0_14382_19075)">
<path d="M9.655 22.7311C9.18521 22.9142 8.68444 23.0054 8.18 23C5.97 23 5 21.6357 5 20.1021C5 18.0357 6.54 17.005 8.28 17.005C8.95 17.005 9.485 17.1394 9.755 17.2739L9.455 18.4739C9.10181 18.3414 8.7274 18.2739 8.35 18.2747C7.445 18.2747 6.675 18.8075 6.675 19.9726C6.675 21.0382 7.31 21.7054 8.385 21.7054C8.755 21.7054 9.19 21.6407 9.425 21.5411L9.655 22.7311ZM10.155 21.332C10.6317 21.5746 11.1596 21.7009 11.695 21.7004C12.23 21.7004 12.5 21.5361 12.5 21.2324C12.5 20.9286 12.23 20.7643 11.565 20.5651C10.56 20.1967 9.925 19.6639 9.925 18.7975C9.925 17.7967 10.795 17 12.27 17C12.975 17 13.475 17.1344 13.875 17.2988L13.54 18.5336C13.27 18.434 12.835 18.2647 12.27 18.2647C11.77 18.2647 11.5 18.429 11.5 18.6979C11.5 18.9967 11.835 19.0963 12.57 19.3651C13.61 19.7635 14.11 20.3311 14.11 21.1328C14.11 22.1336 13.305 23 11.6 23C10.895 23 10.195 22.8008 9.86 22.6315L10.155 21.332ZM15.85 22.9004L15.615 17.0996H16.885V19.6639C16.885 20.366 16.85 21.0282 16.85 21.5311C17.085 20.9635 17.285 20.3958 17.555 19.6988L18.595 17.0996H19.97V19.6639C19.97 20.366 19.935 20.9635 19.905 21.5311H19.94C20.14 20.9336 20.34 20.2963 20.575 19.6639L21.58 17.0996H22.92L20.34 22.9004H18.965L18.93 20.5004C18.895 19.8332 18.93 19.2357 18.965 18.6033C18.73 19.2008 18.53 19.8382 18.23 20.5353L17.2275 22.9004H15.85ZM24.385 17.0996L23.28 22.9004H22.04L23.145 17.0996H24.385ZM24.02 22.9004L25.1275 17.0996H26.5975L27.3675 19.3004C27.5797 19.9464 27.7583 20.6029 27.9025 21.2672H27.9375C27.9375 20.6996 28.0375 20.0672 28.2075 19.2008L28.6075 17.0996H29.7775L28.6375 22.9004H27.3675L26.5325 20.5701C26.2975 19.8033 26.1325 19.2705 25.9625 18.5685H25.9275C25.8925 19.1361 25.7275 19.9328 25.5575 20.8689L25.1875 22.9004H24.02ZM30.815 21.8996C30.9916 21.9297 31.1709 21.9414 31.35 21.9344C32.055 21.9344 32.655 21.7004 33.025 21.2672C33.425 20.7992 33.63 20.2017 33.63 19.4996C33.63 18.5685 33.13 18.0357 32.09 18.0357C31.89 18.0357 31.69 18.0705 31.555 18.0705L30.815 21.8996ZM30.48 17.1693C30.98 17.1046 31.52 17.0349 32.085 17.0349C32.99 17.0349 33.725 17.2689 34.23 17.6672C34.7 18.0656 35 18.6332 35 19.4996C35 20.6349 34.5 21.6008 33.795 22.1635C33.125 22.6963 32.255 22.9303 30.98 22.9303C30.4435 22.9281 29.9076 22.8948 29.375 22.8307L30.48 17.1693Z" fill="white"/>
</g>
<circle cx="20" cy="20" r="19.5" stroke="black" stroke-opacity="0.05"/>
<defs>
<clipPath id="clip0_14382_19075">
<rect width="30" height="6" fill="white" transform="translate(5 17)"/>
</clipPath>
</defs>
</svg>
