<svg width="40" height="40" viewBox="0 0 40 40" fill="none" xmlns="http://www.w3.org/2000/svg">
<circle cx="20" cy="20" r="20" fill="#29AEDA"/>
<g clip-path="url(#clip0_24563_42821)">
<path d="M16.8279 19.8144C16.8279 19.8144 16.8198 19.7874 16.8036 19.7874C16.751 19.7836 16.7025 19.7797 16.6539 19.7797C15.5895 19.7759 14.5171 19.7759 13.4365 19.7797C13.1492 19.7797 12.9064 19.8221 12.6474 19.8991C12.182 20.0378 11.7206 20.3112 11.4049 20.6732C11.0245 21.1007 10.7938 21.7361 10.9517 22.2945C11.0609 22.6218 11.2714 22.8837 11.583 23.057C11.7125 23.1302 11.8339 23.1803 11.9391 23.2111C12.2022 23.2842 12.4693 23.3227 12.7485 23.3266C13.4163 23.3304 14.0881 23.3304 14.7599 23.3266C15.0756 23.3266 15.3872 23.265 15.6907 23.1494C15.9497 23.0493 16.1642 22.9107 16.3301 22.7297C16.3949 22.6604 16.4596 22.5564 16.5203 22.4254C16.573 22.2868 16.6013 22.1713 16.6053 22.0788C16.6094 21.9749 16.5851 21.8593 16.5284 21.7361C16.3342 21.3125 15.7595 21.1507 15.3103 21.1469C15.0756 21.1469 14.8246 21.1469 14.5575 21.1469C14.3795 21.1469 14.1448 21.2162 14.0395 21.3625C13.9262 21.5166 13.8979 21.713 13.8615 21.9017C13.8615 21.9132 13.8655 21.921 13.8777 21.9248C13.9141 21.9325 13.9465 21.9364 13.9829 21.9402C14.254 21.9441 14.5292 21.9441 14.8044 21.9402C14.8894 21.9402 15.023 21.9518 15.0837 22.0057C15.1686 22.0827 15.1929 22.179 15.1484 22.2907C15.0432 22.4216 14.9015 22.514 14.7275 22.514C14.1974 22.514 13.6793 22.514 13.1694 22.514C12.9752 22.514 12.7324 22.4408 12.615 22.283C12.5179 22.1559 12.4612 22.0134 12.4491 21.8593C12.4207 21.5435 12.5179 21.2624 12.7485 21.0352C12.9064 20.8773 13.0602 20.7541 13.2787 20.6693C13.4446 20.6231 13.5863 20.6 13.7036 20.6C14.6466 20.6 15.5693 20.6 16.4718 20.6C16.5689 20.6 16.6337 20.5615 16.6701 20.4845C16.7025 20.419 16.7267 20.3343 16.747 20.2342C16.7713 20.0994 16.7955 19.9569 16.8198 19.8106L16.8279 19.8144Z" fill="white"/>
<path d="M35.9987 19.8143C35.6426 19.8105 35.2824 19.8066 34.9182 19.8066C34.7725 19.8066 34.6551 19.822 34.5661 19.8452C34.2666 19.9337 34.1533 20.0416 33.8255 20.2919C33.4734 20.5576 33.1334 20.8118 32.8016 21.0544C32.7611 21.0852 32.7166 21.1122 32.6721 21.1314C32.6518 21.143 32.6235 21.1391 32.6073 21.1199C32.2917 20.7656 31.9436 20.3805 31.5551 19.9645C31.5146 19.9222 31.4701 19.876 31.4216 19.8336C31.4013 19.8143 31.377 19.8066 31.3487 19.8066H29.8473C29.8473 19.8066 29.8351 19.8105 29.8392 19.8182C29.8554 19.8683 29.8796 19.9106 29.908 19.9453C30.2075 20.3034 30.5069 20.6654 30.8024 21.0236C30.859 21.0891 30.9157 21.1545 30.9723 21.22L31.2071 21.4934C31.2232 21.5127 31.2233 21.5435 31.203 21.5589C31.0169 21.7129 30.8266 21.8708 30.6283 22.0364C30.4705 22.1674 29.9687 22.5486 29.1229 23.1879C29.0986 23.2072 29.0783 23.2303 29.0581 23.2611C29.0581 23.2611 29.0581 23.2649 29.0581 23.2688C29.0581 23.2765 29.0662 23.2842 29.0743 23.2842C29.3454 23.2803 29.6004 23.2765 29.8513 23.2803C30.1063 23.2803 30.2924 23.2688 30.4098 23.2418C30.6688 23.1802 30.8833 23.0878 31.0533 22.9607C31.4337 22.6834 31.8182 22.4023 32.2107 22.1211C32.2917 22.0634 32.4333 21.9016 32.5466 21.9941C32.579 22.021 32.6073 22.0518 32.6356 22.0788C32.8016 22.2675 32.9675 22.4523 33.1375 22.6333C33.3075 22.8297 33.4815 23.0223 33.6555 23.2149C33.7081 23.2726 33.7445 23.2765 33.8174 23.2765C34.2666 23.2765 34.6875 23.2765 35.08 23.2765C35.1326 23.2765 35.1812 23.288 35.2338 23.2957C35.2419 23.2957 35.246 23.2957 35.25 23.2957C35.2662 23.288 35.2743 23.2688 35.2662 23.2534C35.2379 23.1917 35.2014 23.134 35.161 23.0878C35.0315 22.9453 34.902 22.8028 34.7725 22.6526L33.8457 21.5935C33.8214 21.5666 33.8295 21.5242 33.8578 21.505L34.1735 21.2778C34.6956 20.8849 35.2176 20.496 35.7397 20.107C35.7397 20.107 35.7761 20.0801 35.849 20.03C35.9097 19.9876 35.9704 19.9376 36.027 19.8798C36.0351 19.8721 36.0392 19.8644 36.0392 19.8529C36.0392 19.8336 36.023 19.8143 36.0028 19.8143H35.9987ZM34.1371 21.2701C34.1371 21.2701 34.1371 21.2701 34.1411 21.2701C34.1411 21.2701 34.1411 21.2701 34.1371 21.2701Z" fill="white"/>
<path d="M10.6405 20.985C10.6405 20.958 10.6364 20.9195 10.6202 20.8694C10.5555 20.6345 10.4381 20.4343 10.2681 20.2687C9.91201 19.9182 9.32519 19.7719 8.81122 19.7796C8.1637 19.7873 7.41096 19.7873 6.553 19.7796C6.27375 19.7796 5.93381 19.8412 5.77193 20.0684C5.73146 20.1223 5.69908 20.2071 5.67075 20.3226C5.61814 20.5344 5.56958 20.7462 5.52101 20.958L5.32271 21.8669C5.22558 22.2982 5.12845 22.7295 5.03942 23.1608C5.03133 23.1917 5.03133 23.2225 5.03537 23.2533C5.03537 23.2725 5.05156 23.2841 5.0718 23.2841C5.1406 23.2802 5.21749 23.2764 5.29033 23.2764C6.19281 23.2725 7.06292 23.2725 7.90065 23.2764C8.11514 23.2764 8.33368 23.2571 8.54412 23.2302C8.96501 23.1724 9.34138 23.0338 9.68537 22.8181C9.77845 22.7565 9.86749 22.6872 9.95652 22.6178C10.0213 22.5716 10.082 22.5139 10.1386 22.4522C10.2803 22.2982 10.3976 22.1288 10.4867 21.9477C10.5717 21.7745 10.6243 21.6127 10.6364 21.4702C10.6445 21.3855 10.6526 21.32 10.6567 21.27C10.6607 21.2237 10.6607 21.1775 10.6567 21.1275C10.6486 21.0851 10.6445 21.0389 10.6405 20.985ZM8.57245 22.3098C8.39033 22.4253 8.18394 22.4869 7.96135 22.4908C7.50404 22.4985 7.05078 22.4985 6.60156 22.4985H6.59347C6.56919 22.4946 6.55704 22.4715 6.56109 22.4484L6.6825 21.967L6.8808 21.0967L7.01435 20.5537C7.01435 20.5537 7.03459 20.5267 7.05078 20.5305C7.09125 20.5382 7.13576 20.5421 7.18433 20.5421C7.53642 20.5421 7.85208 20.5421 8.14347 20.5421C8.23655 20.5421 8.32154 20.546 8.39843 20.5537C8.5077 20.5652 8.63315 20.5691 8.73028 20.6037C8.92858 20.6692 9.06618 20.804 9.15117 21.0042C9.19973 21.1159 9.21592 21.216 9.20783 21.3085C9.18759 21.4972 9.12284 21.6897 9.00952 21.8861C8.90026 22.0594 8.75456 22.2019 8.57245 22.3136V22.3098Z" fill="white"/>
<path d="M22.4495 21.0736C21.3325 21.0813 20.163 21.0813 18.9448 21.0736C18.9124 21.0736 18.876 21.0736 18.8315 21.0852C18.7344 21.0775 18.7384 21.0005 18.8517 20.858C19.0379 20.6192 19.4224 20.4921 19.7421 20.4921C20.596 20.4921 21.5066 20.4921 22.4657 20.4921C22.6761 20.4921 22.8421 20.4421 22.9716 20.2919C23.1092 20.1301 23.1942 19.9645 23.2265 19.7912C23.2265 19.7681 23.2144 19.7489 23.1901 19.745C23.1496 19.7412 23.1092 19.7373 23.0687 19.7373C21.9194 19.745 20.8105 19.745 19.7421 19.7373C19.5073 19.7373 19.2686 19.7604 19.0419 19.7951C18.8841 19.822 18.6979 19.8682 18.4875 19.9414C18.0868 20.0801 17.7793 20.3111 17.5162 20.6077C17.3908 20.7501 17.2896 20.9196 17.2167 21.1198C17.1884 21.1738 17.1682 21.2123 17.1601 21.2354C17.0872 21.4664 17.0225 21.7014 16.9618 21.9363C16.8889 22.2059 16.7716 22.4947 16.8323 22.7758C16.893 23.0685 17.2289 23.1802 17.5081 23.2187C17.6336 23.2341 17.7631 23.2534 17.8926 23.2534C19.0905 23.2534 20.2479 23.2534 21.3649 23.2534C21.5511 23.2534 21.7979 23.2033 21.9194 23.0531C22.0448 22.8952 22.1338 22.7296 22.1905 22.5448C22.1905 22.5448 22.1905 22.5448 22.1905 22.5409C22.1905 22.5255 22.1784 22.5101 22.1622 22.5101C22.0367 22.5024 21.9072 22.4985 21.7737 22.4985C20.8186 22.5024 19.8028 22.5024 18.7303 22.4985C18.528 22.4985 18.4227 22.4177 18.4187 22.2636C18.4187 22.2136 18.4268 22.1519 18.443 22.0826C18.4551 22.021 18.4713 21.9632 18.4835 21.9016C18.4915 21.8631 18.5199 21.8477 18.5765 21.8477C19.56 21.8516 20.5393 21.8554 21.5228 21.8516C21.6239 21.8516 21.7211 21.8246 21.8263 21.8284C22.0205 21.8361 22.2107 21.7745 22.3281 21.6282C22.4293 21.5011 22.5385 21.3278 22.5831 21.1661C22.5831 21.1584 22.5831 21.1468 22.5831 21.1391C22.5709 21.0967 22.5305 21.0775 22.4617 21.0775L22.4495 21.0736Z" fill="white"/>
<path d="M29.3536 21.2742L29.6167 20.2575C29.6612 20.0842 29.7057 19.9071 29.7462 19.7338C29.7623 19.6645 29.7704 19.6028 29.7745 19.5451C29.7826 19.418 29.7988 19.2986 29.7907 19.1715C29.7826 19.0868 29.7785 19.0252 29.7745 18.9867C29.7381 18.6786 29.6166 18.3975 29.4103 18.1433C29.2322 17.9315 29.0136 17.7659 28.7465 17.6426C28.3378 17.4578 27.8481 17.3692 27.407 17.3654C27.2249 17.3654 27.0428 17.3615 26.8606 17.3731C26.8445 17.3731 26.8323 17.3885 26.8364 17.4C26.8606 17.6812 26.9092 17.9584 26.9861 18.2242C27.0832 18.5515 27.2937 18.9636 27.6903 19.0213C28.1112 19.0829 28.5159 19.1484 28.9084 19.3063C29.1674 19.4103 29.3819 19.5451 29.6045 19.6991C29.6166 19.7068 29.6166 19.7222 29.6045 19.7338C29.5883 19.753 29.5681 19.7607 29.5398 19.7646C29.2969 19.7684 29.0298 19.7453 28.8032 19.7954C28.5442 19.8532 28.3257 19.988 28.1516 20.1921C28.0666 20.2806 28.01 20.3846 27.9776 20.504C27.921 20.7081 27.8724 20.9161 27.8279 21.124C27.7146 21.513 27.6174 21.9058 27.5324 22.3063C27.5122 22.3756 27.4677 22.4334 27.3989 22.4719C27.3908 22.4758 27.3787 22.4796 27.3706 22.4758C27.2815 22.4642 27.2168 22.4257 27.1723 22.3602C27.0509 22.1831 26.9294 22.0098 26.804 21.8326C26.4438 21.3166 26.0877 20.8044 25.7275 20.2883C25.5332 20.0111 25.2864 19.8185 24.9262 19.7338C24.7603 19.6953 24.6429 19.676 24.57 19.6837C24.052 19.7261 23.6757 19.9533 23.445 20.3692C23.3559 20.531 23.2871 20.7312 23.2467 20.9623L22.7125 23.1343C22.7044 23.1728 22.7206 23.1921 22.761 23.1959C23.1617 23.2075 23.5704 23.2075 23.9913 23.1959C24.0197 23.1959 24.0439 23.1767 24.048 23.1536L24.5781 21.0393C24.6227 20.8814 24.6227 20.7543 24.7967 20.6696C24.8695 20.6349 24.9667 20.7543 24.999 20.8005C25.254 21.1702 25.5009 21.5322 25.7518 21.8904C25.9379 22.1677 26.1281 22.4372 26.3143 22.703C26.3791 22.7954 26.4398 22.8686 26.5005 22.9302C26.6907 23.1266 26.889 23.2999 27.1763 23.3307C27.3625 23.35 27.5608 23.3615 27.7753 23.3577C27.9169 23.3577 28.0383 23.3423 28.1476 23.3191C28.702 23.1959 29.0096 22.7338 29.1148 22.2293L29.3576 21.2704L29.3536 21.2742Z" fill="white"/>
</g>
<circle cx="20" cy="20" r="19.5" stroke="black" stroke-opacity="0.05"/>
<defs>
<clipPath id="clip0_24563_42821">
<rect width="31" height="6" fill="white" transform="translate(5.03516 17.3613)"/>
</clipPath>
</defs>
</svg>
