<svg width="40" height="40" viewBox="0 0 40 40" fill="none" xmlns="http://www.w3.org/2000/svg">
<circle cx="20" cy="20" r="20" fill="#248801"/>
<g clip-path="url(#clip0_18553_55932)">
<path d="M23.4524 12.4014C23.5111 13.001 23.5045 13.6264 23.4263 14.2647C23.4263 14.2775 23.4132 14.284 23.4002 14.284C23.4002 14.284 23.3937 14.284 23.3872 14.284C22.9176 13.8778 22.5524 13.3491 22.4741 12.7367C22.3632 11.8663 22.8589 11.0862 23.4459 10.493C23.4654 10.4737 23.498 10.4737 23.5241 10.493C23.7785 10.8154 23.9806 11.1635 24.1437 11.5504C24.5154 12.4401 24.4176 13.4523 23.8437 14.2453C23.8045 14.3033 23.785 14.2969 23.798 14.226C23.8698 13.6393 23.6937 12.9494 23.4915 12.3885C23.4589 12.2918 23.4459 12.2918 23.4524 12.395V12.4014Z" fill="white"/>
<path d="M20.3938 14.2259C20.3938 14.2259 20.3807 14.2646 20.3742 14.2969C20.3677 14.2582 20.3677 14.2259 20.3742 14.2002C20.3742 14.1808 20.3742 14.1615 20.3742 14.1486C20.309 14.0003 20.2503 13.8585 20.1916 13.7102C19.9307 13.0332 19.9633 12.4143 20.2829 11.8534C20.6024 11.2925 21.1959 10.8605 21.8024 10.6026C21.8416 10.5897 21.8611 10.6026 21.8742 10.6348C22.0698 11.286 22.1546 12.0339 21.9785 12.6657C21.7959 13.3298 21.4111 13.8649 20.8372 14.2646C20.7655 14.3162 20.7524 14.3033 20.7916 14.2259C21.0785 13.6973 21.1372 13.0332 21.1568 12.4272C21.1568 12.2918 21.1438 12.2918 21.1111 12.4272C20.9546 13.0139 20.7133 13.6006 20.3938 14.1937C20.3938 14.2002 20.3938 14.2066 20.3938 14.213C20.3938 14.2259 20.3938 14.2324 20.4003 14.2388L20.3938 14.2259Z" fill="white"/>
<path d="M18.4372 12.0857C18.359 11.9825 18.3459 11.989 18.3981 12.105C18.5481 12.4596 18.7242 12.8013 18.9198 13.1172C19.0633 13.3429 19.2198 13.5234 19.422 13.6975C19.4481 13.7233 19.4481 13.7297 19.409 13.7297C19.3111 13.7168 19.2133 13.691 19.1155 13.6588C18.3133 13.3751 17.7459 12.8465 17.4133 12.0792C17.2307 11.6537 17.1264 11.196 17.0938 10.6931C17.0938 10.6608 17.1068 10.6479 17.1394 10.6479C17.8894 10.6802 18.6916 10.9123 19.2068 11.4667C19.709 12.0019 19.8264 12.7175 19.7351 13.4589C19.7351 13.4718 19.722 13.4783 19.709 13.4783C19.709 13.4783 19.7024 13.4783 19.6959 13.4783C19.1807 13.027 18.7568 12.5628 18.4242 12.0986L18.4372 12.0857Z" fill="white"/>
<path d="M15.7307 13.9486C15.7763 14.1162 15.8024 14.2838 15.822 14.4514C15.8677 14.9156 15.8807 15.3863 15.8611 15.8763C15.8611 15.8892 15.8481 15.9021 15.835 15.8956C15.835 15.8956 15.8285 15.8956 15.822 15.8956C15.2481 15.4701 14.7981 14.8576 14.7655 14.142C14.7263 13.3812 15.1046 12.6527 15.6198 12.0853C15.6329 12.066 15.6655 12.066 15.685 12.0853C16.3242 12.801 16.7481 13.652 16.6698 14.6255C16.6372 15.051 16.5068 15.4508 16.2785 15.8183C16.2394 15.8827 16.2198 15.8763 16.2263 15.7989C16.259 15.1864 16.0111 14.4901 15.7633 13.9357C15.7633 13.9357 15.7568 13.9292 15.7503 13.9357H15.7372C15.7372 13.9357 15.7307 13.9486 15.7372 13.9486H15.7307Z" fill="white"/>
<path d="M18.0657 14.3675C18.0657 14.3675 18.0657 14.374 18.0657 14.3804C18.5287 14.8059 18.9461 15.2959 19.3178 15.8633C19.3178 15.8697 19.3178 15.8826 19.3178 15.8891C19.3178 15.8891 19.3113 15.8891 19.3048 15.8891C18.8157 15.8891 18.3852 15.7924 18.0135 15.6054C17.0352 15.1025 16.7418 13.9678 16.8396 12.962C16.8396 12.9362 16.8657 12.9233 16.8852 12.9233C17.2374 12.9943 17.5896 13.1103 17.9287 13.265C18.8548 13.6841 19.5461 14.5674 19.6113 15.5925C19.6113 15.6376 19.6048 15.6376 19.5787 15.6054C19.2135 15.0832 18.6265 14.6705 18.0657 14.3675Z" fill="white"/>
<path d="M25.1156 14.4449C25.1156 14.4449 25.0961 14.4449 25.083 14.4449C24.4961 14.748 23.9221 15.0832 23.5634 15.5474C23.4982 15.6377 23.4721 15.6248 23.4917 15.5152C23.5961 14.9285 23.87 14.4191 24.3134 13.9807C24.8352 13.465 25.6374 13.1748 26.3678 13.0781C26.3874 13.0781 26.4069 13.091 26.4069 13.1104C26.4265 13.5939 26.3547 14.0517 26.1917 14.4836C25.7939 15.5281 24.8939 15.9471 23.7982 15.8956C23.7852 15.8956 23.7721 15.8827 23.7721 15.8698C23.7721 15.8698 23.7721 15.8569 23.7721 15.8504C24.17 15.354 24.5939 14.8576 25.1091 14.4643C25.1091 14.4643 25.1156 14.4514 25.1091 14.4449H25.1156Z" fill="white"/>
<path d="M21.6526 15.1865C21.7113 15.0769 21.6982 15.0705 21.62 15.1672C21.2091 15.6443 20.8439 16.1794 20.6678 16.7855C20.6548 16.8435 20.6352 16.8435 20.6221 16.7855C20.5113 16.3599 20.5048 15.9409 20.5895 15.5411C20.7917 14.5805 21.4439 13.8778 22.2721 13.3813C22.2917 13.3684 22.3243 13.3813 22.3374 13.3942C22.52 13.7746 22.6308 14.1679 22.67 14.5676C22.7874 15.7539 22.1287 16.5727 21.0395 16.966C21.0265 16.966 21.02 16.966 21.0135 16.9531C21.0135 16.9531 21.0135 16.9466 21.0135 16.9402C21.1635 16.2955 21.3787 15.7088 21.6526 15.1801V15.1865Z" fill="white"/>
<path d="M10.0894 15.6186C10.3959 16.0957 10.6698 16.6502 10.9111 17.282C10.9111 17.3013 10.9111 17.3142 10.8915 17.3207C10.8915 17.3207 10.8785 17.3207 10.872 17.3207C10.1872 17.1402 9.55458 16.7662 9.24154 16.1473C8.89589 15.4639 8.96763 14.6128 9.20893 13.8907C9.21545 13.8714 9.24154 13.8585 9.2611 13.865C10.585 14.4903 11.485 15.6186 11.2763 17.1015C11.2763 17.1144 11.2698 17.1273 11.2568 17.1337C11.2502 17.1337 11.2372 17.1337 11.2372 17.1337C11.035 16.547 10.572 16.0377 10.122 15.5993C10.0372 15.5155 10.0241 15.5219 10.0894 15.6251V15.6186Z" fill="white"/>
<path d="M28.4678 15.7025C28.5396 15.6251 28.533 15.6187 28.4417 15.6767C27.9265 16.0184 27.4178 16.4504 27.0852 16.9855C27.0526 17.0371 27.0396 17.0306 27.0396 16.9726C27.0591 16.0764 27.5091 15.2318 28.233 14.7354C28.6309 14.4646 29.0613 14.2647 29.5309 14.1293C29.57 14.1165 29.5896 14.1293 29.5961 14.168C29.87 15.7605 29.1526 17.1402 27.3852 17.2563C27.3722 17.2563 27.3656 17.2498 27.3656 17.2369C27.3656 17.2369 27.3656 17.2305 27.3656 17.224C27.7113 16.618 28.0765 16.1086 28.4613 15.696L28.4678 15.7025Z" fill="white"/>
<path d="M20.3939 14.2257C20.4134 14.2837 20.42 14.3224 20.4265 14.3417C20.4786 15.0251 20.3417 15.657 20.0221 16.2437C19.6765 16.8755 19.233 17.3913 18.6982 17.791C17.8504 18.4293 17.2113 19.3383 16.82 20.3248C16.7352 20.5375 16.6504 20.7761 16.5721 21.034H16.5591C16.5591 21.034 16.5591 21.034 16.5591 21.0275C16.7221 19.6736 17.283 18.5324 18.2352 17.5976C18.9069 16.94 19.5004 16.2308 19.97 15.4636C20.1852 15.109 20.3286 14.7157 20.3808 14.2902C20.3808 14.2579 20.3873 14.2321 20.4004 14.2192L20.3939 14.2257Z" fill="white"/>
<path d="M14.472 16.2632C14.6937 16.7532 14.8698 17.3334 15.0003 17.9975C15.0003 18.0104 15.0003 18.0233 14.9807 18.0297H14.9677C14.2503 17.7138 13.6568 17.1916 13.4937 16.4308C13.3503 15.7538 13.5329 15.006 13.8655 14.3935C13.8785 14.3677 13.9111 14.3612 13.9307 14.3741C14.622 14.8512 15.2155 15.4959 15.4372 16.3212C15.5742 16.837 15.5611 17.3399 15.4111 17.8298C15.3851 17.9201 15.359 17.9201 15.3394 17.8298C15.2285 17.2625 14.8633 16.7145 14.5242 16.2438C14.4198 16.102 14.4068 16.1149 14.4785 16.2696L14.472 16.2632Z" fill="white"/>
<path d="M12.4115 16.7533H12.3984C12.3984 16.7533 12.3984 16.7533 12.3919 16.7597C12.1897 17.1982 12.0397 17.6172 11.9419 18.0298C11.8962 18.2233 11.8767 18.4038 11.8897 18.5714C11.8962 18.6875 11.8702 18.6939 11.818 18.5908C11.0876 17.2626 11.5636 15.9474 12.5354 14.89C12.5484 14.8771 12.568 14.8771 12.581 14.89C13.1223 15.509 13.5202 16.36 13.3636 17.1724C13.2397 17.7977 12.8158 18.32 12.2876 18.6939C12.281 18.6939 12.268 18.6939 12.2615 18.6939C12.2615 18.6939 12.2615 18.6875 12.2615 18.681C12.2419 18.0041 12.2941 17.3658 12.4245 16.7597C12.4245 16.7533 12.4245 16.7468 12.418 16.7468L12.4115 16.7533Z" fill="white"/>
<path d="M16.8786 17.2238C16.8786 17.2238 16.859 17.2238 16.8525 17.2303C16.4547 17.7074 16.0308 18.2683 15.8873 18.8485C15.8677 18.9388 15.8416 18.9388 15.8155 18.8485C15.6068 18.0426 15.796 17.1723 16.2786 16.5275C16.5916 16.1149 16.9895 15.7603 17.4786 15.4702C17.4982 15.4573 17.5242 15.4702 17.5308 15.4831C17.7199 15.8635 17.8308 16.2696 17.8699 16.6952C17.9742 17.8686 17.3155 18.668 16.246 19.0613C16.2329 19.0613 16.2199 19.0613 16.2134 19.0484C16.2134 19.0484 16.2134 19.0355 16.2134 19.0291C16.3764 18.3779 16.5982 17.7783 16.8786 17.2303V17.2174V17.2238Z" fill="white"/>
<path d="M22.7937 16.5275C22.272 17.5526 21.0263 18.1458 19.9372 18.4165C18.8546 18.6873 17.8046 19.1967 17.1785 20.1122C17.159 20.138 17.1524 20.138 17.1655 20.1122C17.1785 20.0735 17.1916 20.0412 17.2111 20.0026C17.5829 19.2224 18.1437 18.6357 18.8937 18.236C18.9655 18.1973 19.2981 18.0684 19.8916 17.8492C20.6481 17.5655 21.3785 17.198 22.0763 16.7467C22.422 16.5211 22.9307 16.1149 22.9894 15.6765C22.9894 15.67 22.9894 15.6636 23.0024 15.6636C23.0024 15.973 22.9242 16.2567 22.7937 16.5211V16.5275Z" fill="white"/>
<path d="M24.9133 16.8953C24.9133 16.8953 24.9133 16.8824 24.9003 16.8824C24.3394 16.7857 23.7133 16.7148 23.1459 16.8115C23.0807 16.8244 23.0155 16.8566 22.9503 16.8695C22.9111 16.8695 22.9046 16.8695 22.9307 16.8373C23.3611 16.4118 23.8894 16.1474 24.522 16.0572C25.2655 15.9476 26.0937 16.199 26.7329 16.56C26.7524 16.5729 26.759 16.5987 26.7459 16.6181C26.0676 17.5529 25.0568 18.217 23.8763 17.7915C23.5633 17.6819 23.2633 17.5013 22.9763 17.2563C22.9698 17.2563 22.9698 17.237 22.9763 17.2306C22.9763 17.2306 22.9763 17.2306 22.9829 17.2306C23.6155 17.05 24.2546 16.9404 24.8937 16.9082C24.9068 16.9082 24.9133 16.9082 24.9133 16.8953Z" fill="white"/>
<path d="M30.3134 17.4044C30.3134 17.4044 30.3069 17.3915 30.3004 17.3915C29.8178 17.4173 29.3743 17.4883 28.9634 17.6043C28.7547 17.6623 28.5656 17.7461 28.4026 17.8493C28.3895 17.8622 28.3765 17.8493 28.3765 17.8364C28.3765 17.83 28.3765 17.8171 28.3765 17.8106C28.9439 16.8822 29.9417 16.418 31.0373 16.476C31.3765 16.4954 31.696 16.5405 31.996 16.6243C32.0221 16.6308 32.0417 16.663 32.0352 16.6888C31.6504 17.6494 30.9004 18.5327 29.7721 18.5263C29.3678 18.5263 28.9569 18.4231 28.5395 18.2232C28.5265 18.2232 28.5199 18.2039 28.5265 18.191C28.5265 18.191 28.5265 18.1846 28.5395 18.1781C29.1395 17.8429 29.7265 17.585 30.3069 17.4109C30.3134 17.4109 30.3199 17.4044 30.3134 17.3915V17.4044Z" fill="white"/>
<path d="M10.2983 18.3523H10.2787C10.2787 18.3523 10.2787 18.3652 10.2787 18.3716C10.7157 18.8229 11.0939 19.3323 11.4265 19.9125C11.4265 19.9254 11.4265 19.9383 11.42 19.9448C11.42 19.9448 11.4135 19.9448 11.407 19.9448C9.6135 19.8223 8.91567 18.5264 9.14393 16.8759C9.14393 16.8501 9.17002 16.8307 9.19611 16.8372C9.19611 16.8372 9.19611 16.8372 9.20263 16.8372C10.1678 17.108 11.0092 17.5915 11.4657 18.4941C11.6548 18.8616 11.7526 19.2549 11.7592 19.6675C11.7592 19.7127 11.7461 19.7127 11.7265 19.6804C11.3809 19.126 10.8526 18.7133 10.2983 18.3523Z" fill="white"/>
<path d="M27.4763 17.6754C27.9002 17.5465 28.3437 17.3724 28.6828 17.0823C28.7285 17.0436 28.735 17.0436 28.7024 17.0952C28.6241 17.2048 28.5198 17.3079 28.3959 17.4046C27.6981 17.9397 26.7655 18.275 25.8915 18.5007C24.8807 18.765 23.7002 18.9584 22.3437 19.0809C21.8415 19.126 21.3133 19.2421 20.7589 19.4226C20.0611 19.6483 19.3959 19.9448 18.8676 20.4284C18.3589 20.899 18.0263 21.4922 17.8763 22.2143C17.7981 22.6011 17.7655 22.9944 17.7915 23.3941H17.7785C17.7785 23.3941 17.7589 23.3941 17.7589 23.3812C17.485 22.0015 17.8307 20.6089 18.8285 19.6225C19.0633 19.3904 19.3241 19.2098 19.572 19.01C20.5502 18.2428 22.0763 18.0622 23.2894 18.1396C23.5633 18.1589 23.8307 18.1783 24.1046 18.1976C24.3133 18.217 24.5611 18.2105 24.8481 18.1847C25.7937 18.0945 26.6741 17.9204 27.4894 17.669L27.4763 17.6754Z" fill="white"/>
<path d="M11.9875 21.0986C11.981 21.1759 11.9614 21.1759 11.9418 21.0986C11.9288 21.0405 11.9158 20.9825 11.9092 20.9245C11.8375 20.2604 11.9679 19.6673 12.3005 19.1386C12.7897 18.3714 13.6962 17.9394 14.6158 18.1909C15.0723 18.3134 15.4636 18.5455 15.7636 18.9323C16.3571 19.6931 16.481 20.7053 16.3114 21.6401C16.2853 21.7884 16.2657 21.7884 16.2592 21.6401C16.2331 21.1501 16.1158 20.673 15.9071 20.2153C15.4244 19.1386 14.2505 18.6099 13.1223 18.9903C12.8027 19.0999 12.5614 19.3062 12.4049 19.6221C12.1962 20.0412 12.0527 20.5377 11.994 21.0986H11.9875Z" fill="white"/>
<path d="M28.5915 19.506L28.6045 19.4931C28.6045 19.4931 28.6045 19.4738 28.6045 19.4673C28.1415 19.0354 27.5806 18.5776 26.9871 18.41C26.9219 18.3906 26.9219 18.3777 26.9871 18.3649C27.2741 18.3004 27.5545 18.2875 27.8284 18.3197C28.9958 18.4551 29.7654 19.1837 30.3197 20.1636C30.3328 20.1894 30.3197 20.2217 30.3002 20.2345C30.3002 20.2345 30.3002 20.2345 30.2937 20.2345C29.4328 20.5763 28.4154 20.6601 27.6654 20.1056C27.2415 19.7897 26.935 19.2804 26.7784 18.771C26.7654 18.7388 26.7784 18.7259 26.811 18.7388C27.2219 18.8677 27.6393 19.0289 28.0437 19.2094C28.2393 19.2997 28.4219 19.3964 28.5784 19.506H28.5915Z" fill="white"/>
<path d="M23.8049 25.8372C23.6549 25.7856 23.4918 25.734 23.3614 25.6567C22.8592 25.3665 22.4484 24.9733 22.1223 24.4704C22.0962 24.4252 22.1027 24.4252 22.1418 24.451C22.7614 24.941 23.5571 25.2247 24.3201 25.0958C24.3462 25.0958 24.3592 25.0958 24.3723 25.1215C24.5679 25.4826 24.6788 25.8372 24.7179 26.1853C24.8353 27.2943 23.8897 27.7327 22.9505 27.8294C22.2918 27.8939 21.5158 27.8681 20.6288 27.7391C20.1266 27.6682 19.7223 27.5908 19.4223 27.5006C18.3136 27.1718 17.4201 26.5335 16.7418 25.5986C16.1027 24.7218 15.8158 23.6838 16.0571 22.62C16.3832 21.1887 17.5832 19.996 18.7179 19.1321C18.7245 19.1256 18.731 19.1321 18.7375 19.1385V19.1514C17.681 20.4151 17.081 22.0398 17.4853 23.6322C17.9679 25.5406 19.631 26.8752 21.6332 26.9784C21.9266 26.9912 22.2201 26.9784 22.5005 26.9139C22.9114 26.8301 24.0071 26.4819 23.8571 25.8888C23.8505 25.863 23.831 25.8372 23.7984 25.8307L23.8049 25.8372Z" fill="white"/>
<path d="M13.9049 20.9569C13.6636 20.4862 13.3441 19.9769 12.9332 19.603C12.8745 19.5449 12.8028 19.5127 12.7441 19.4611C12.7115 19.4353 12.718 19.4224 12.7571 19.4289C13.5854 19.5127 14.3745 20.0349 14.7919 20.7377C15.0528 21.1761 15.2289 21.679 15.3202 22.2399C15.3202 22.2657 15.3071 22.285 15.281 22.2915C14.8506 22.3172 14.4332 22.2721 14.0158 22.1432C12.881 21.795 12.4115 20.8602 12.4376 19.7448C12.4376 19.7255 12.4506 19.7126 12.4702 19.7126C12.4702 19.7126 12.4832 19.7126 12.4897 19.7126C12.9789 20.0801 13.481 20.4927 13.8658 20.9633C13.9441 21.06 13.9571 21.0536 13.8984 20.944L13.9049 20.9569Z" fill="white"/>
<path d="M9.84151 21.1824C9.84151 21.1824 9.84151 21.1888 9.85455 21.1824C10.448 20.9309 11.0741 20.7504 11.7132 20.6408C11.7393 20.6408 11.7459 20.6408 11.7393 20.673C11.5632 21.0728 11.3285 21.408 11.035 21.6659C10.1806 22.4267 8.98716 22.2333 8.06107 21.7239C8.04151 21.711 8.03499 21.6852 8.04151 21.6659C8.44586 21.0857 9.0589 20.5054 9.74368 20.2733C10.3567 20.0605 10.9632 20.0541 11.5632 20.2411C11.635 20.2669 11.635 20.2862 11.5632 20.2991C10.9502 20.4216 10.3698 20.7891 9.85455 21.1566C9.84803 21.163 9.84151 21.1695 9.84803 21.1824H9.84151Z" fill="white"/>
<path d="M12.5157 23.0008C12.5157 23.0008 12.5352 22.975 12.5352 22.9557C12.4961 22.2529 12.4439 21.6211 12.1439 21.0666C12.1244 21.0279 12.1309 21.0215 12.17 21.0408C12.7635 21.4019 13.1809 22.0273 13.357 22.6849C13.52 23.3167 13.4418 24.071 13.2461 24.6964C13.2396 24.7222 13.2135 24.7351 13.1874 24.7287C12.5809 24.4901 11.9613 24.0324 11.6483 23.4585C11.257 22.7429 11.3613 21.9112 11.7591 21.1956C11.7591 21.1827 11.7787 21.1827 11.7918 21.1891C11.7918 21.1891 11.7983 21.1891 11.7983 21.1956C12.1244 21.8016 12.3657 22.4012 12.5091 22.9943C12.5091 22.9943 12.5091 23.0008 12.5222 23.0008H12.5157Z" fill="white"/>
<path d="M20.1396 28.4356C17.7852 28.0745 15.757 26.8624 15.8809 24.1739C15.8809 24.1739 15.8809 24.1675 15.8874 24.1675H15.9004C16.057 25.9018 17.4722 27.101 18.9983 27.7199C19.8461 28.0681 20.7461 28.3066 21.6918 28.4356C21.9591 28.4742 22.2135 28.5065 22.4678 28.5452C22.4678 28.5452 22.4678 28.5516 22.4613 28.5516C21.6918 28.5903 20.9157 28.5516 20.1265 28.4227L20.1396 28.4356Z" fill="white"/>
<path d="M13.6111 29.3641C14.1785 29.2352 14.9806 28.8741 15.1372 28.2681C15.1893 28.0553 15.1372 27.8426 15.1567 27.6233C15.2089 26.9464 15.3002 26.2823 15.4306 25.6247C15.4893 25.3475 15.5676 25.0702 15.6654 24.793C15.7437 24.5738 15.7763 24.5802 15.7567 24.8123C15.6785 25.8246 16.0241 26.8884 16.9111 27.4751C16.9176 27.4751 16.9241 27.488 16.9111 27.5008C16.9111 27.5008 16.9111 27.5008 16.9045 27.5073C16.3241 27.6943 16.148 28.3712 15.8154 28.7903C15.5806 29.0869 15.2872 29.2867 14.9219 29.3963C14.5698 29.5059 14.1654 29.4801 13.7937 29.4415C13.7285 29.435 13.6632 29.4221 13.6045 29.4028C13.5654 29.3899 13.5654 29.377 13.6045 29.3705L13.6111 29.3641Z" fill="white"/>
<path d="M14.1197 27.7715C14.4654 27.3138 14.7849 26.8109 14.9741 26.2822C14.9741 26.2822 14.9741 26.2693 14.9806 26.2693C14.9806 26.2693 14.9871 26.2629 14.9936 26.2564C15.0067 26.25 15.0132 26.2564 15.0132 26.2693C15.0262 26.6755 15.0067 27.0623 14.961 27.4298C14.9023 27.8876 14.6088 28.2551 14.1784 28.4614C13.5588 28.758 12.9458 28.7902 12.3719 28.4034C12.3328 28.3776 12.3393 28.3647 12.3849 28.3647C12.9915 28.3453 13.7415 28.2744 14.1132 27.778L14.1197 27.7715Z" fill="white"/>
<path d="M25.0502 29.4154C24.4241 29.6023 24.0393 29.3058 23.6284 28.8996C23.0741 28.358 22.1937 28.1904 21.4176 28.1195C21.3458 28.113 21.3458 28.1001 21.4176 28.0872C21.4632 28.0808 21.5154 28.0743 21.5676 28.0679C22.1806 28.0292 22.8197 28.0421 23.4784 28.0937C23.8111 28.1195 24.0524 28.2613 24.2219 28.5192C24.4502 28.8674 24.6328 29.2155 25.0567 29.3573C25.1154 29.3767 25.1154 29.396 25.0567 29.4154H25.0502Z" fill="white"/>
</g>
<circle cx="20" cy="20" r="19.5" stroke="black" stroke-opacity="0.05"/>
<defs>
<clipPath id="clip0_18553_55932">
<rect width="24" height="19" fill="white" transform="translate(8.03516 10.4736)"/>
</clipPath>
</defs>
</svg>
