<svg width="40" height="40" viewBox="0 0 40 40" fill="none" xmlns="http://www.w3.org/2000/svg">
<circle cx="20" cy="20" r="20" fill="#255AA0"/>
<g clip-path="url(#clip0_18695_29106)">
<path d="M22.837 22.0142C22.837 22.0663 22.8796 22.1079 22.9222 22.1288L24.4869 22.7329C24.5827 22.7746 24.6253 22.8683 24.5934 22.9621C24.5827 22.9933 24.5508 23.0246 24.5295 23.0454C22.9541 24.0663 20.9529 23.6496 19.4095 22.8267C17.057 21.5663 15.0132 19.4308 14.1191 17.0246C13.0014 14.035 14.4704 11.6704 17.9618 12.5558C20.442 13.1913 22.6986 15.1392 24.0931 17.2746C24.8169 18.3788 25.2214 19.535 25.3172 20.7225C25.3278 20.8892 25.2533 21.0038 25.0937 21.0558C24.3805 21.3163 23.6566 21.5871 22.9328 21.8475C22.8583 21.8683 22.8264 21.9204 22.837 22.0038V22.0142Z" fill="white"/>
<path d="M26.5519 23.8058C26.6052 23.6912 26.6903 23.66 26.8074 23.7121L28.8405 24.5142C28.9576 24.5558 29.0215 24.6808 28.9895 24.7954C28.6383 26.3892 27.8293 27.6183 26.2326 28.1808C25.8494 28.3162 25.3597 28.3787 24.7636 28.3683C23.7418 28.3475 22.805 28.4308 21.7619 28.0871C20.8039 27.7746 19.9629 27.4204 19.2497 27.0142C16.0031 25.1912 13.5975 22.66 12.0327 19.4308C11.4686 18.2537 11.2663 17.0558 11.0321 15.8058C10.9789 15.5142 10.9895 15.2329 11.0534 14.9517C11.1173 14.6704 11.1918 14.6704 11.2663 14.9517C11.4366 15.5142 11.575 16.0871 11.7879 16.6183C13.4059 20.5871 17.2592 24.7225 21.6448 25.7225C23.6353 26.1704 25.6152 25.7225 26.5413 23.8058H26.5519Z" fill="white"/>
<path d="M24.9017 15.4619C26.7751 17.3577 28.1802 19.6182 28.8189 22.1182C28.8402 22.1807 28.7976 22.2536 28.7337 22.264C28.7018 22.264 28.6805 22.264 28.6486 22.264C28.1909 22.0557 27.7225 21.8786 27.2435 21.7223C27.0838 21.6702 26.9667 21.514 26.9667 21.3473C26.9667 20.9098 26.9029 20.4723 26.7964 20.0452C26.3919 18.3994 25.7426 16.9202 24.8485 15.6182C24.8165 15.5765 24.8165 15.5348 24.8272 15.4932C24.8272 15.4723 24.8591 15.4619 24.8804 15.4619C24.8804 15.4619 24.891 15.4619 24.9017 15.4619Z" fill="white"/>
</g>
<circle cx="20" cy="20" r="19.5" stroke="black" stroke-opacity="0.05"/>
<defs>
<clipPath id="clip0_18695_29106">
<rect width="18" height="16" fill="white" transform="translate(11 12.3682)"/>
</clipPath>
</defs>
</svg>
