<svg width="40" height="40" viewBox="0 0 40 40" fill="none" xmlns="http://www.w3.org/2000/svg">
<circle cx="20" cy="20" r="20" fill="#0263B0"/>
<path d="M5.05655 22.3775C5.03516 20.6808 5.03516 19.0003 5.03516 17.2934C5.48808 17.2067 5.94306 17.2538 6.42288 17.2469C6.55438 17.359 6.53639 17.4963 6.538 17.6258C6.54279 18.0116 6.54574 18.3977 6.53755 18.7834C6.53282 19.0062 6.60718 19.1114 6.84568 19.1047C7.25005 19.0933 7.6551 19.0971 8.05969 19.1034C8.267 19.1066 8.34474 19.0162 8.34263 18.8156C8.33867 18.4392 8.3399 18.0626 8.34264 17.6862C8.3436 17.5551 8.33185 17.4216 8.40977 17.2772C8.8858 17.2195 9.34527 17.2464 9.8306 17.2519C9.93136 17.3458 9.93587 17.4505 9.93613 17.5536C9.93995 19.055 9.94223 20.5565 9.93524 22.058C9.93498 22.1144 9.92716 22.1703 9.90526 22.2523C9.88032 22.3139 9.85834 22.3441 9.80737 22.3856C9.39375 22.4966 8.9981 22.4524 8.6048 22.4353C8.38033 22.4256 8.34797 22.2473 8.34434 22.0674C8.33541 21.6248 8.34392 21.1821 8.33998 20.7395C8.33676 20.3781 8.31842 20.3602 7.95329 20.3582C7.60482 20.3562 7.25632 20.3553 6.90786 20.3585C6.56861 20.3616 6.54517 20.3854 6.54195 20.734C6.53804 21.1578 6.54635 21.5817 6.53874 22.0055C6.53202 22.3797 6.46494 22.4537 6.08574 22.4475C5.74977 22.442 5.40838 22.5091 5.05655 22.3775Z" fill="white"/>
<path d="M15.5456 20.9233C15.4609 21.7934 14.875 22.3594 13.9099 22.5328C13.8824 22.5377 13.8549 22.5431 13.818 22.5679C13.449 22.5876 13.0893 22.5876 12.7031 22.5876C12.377 22.5221 12.0687 22.5006 11.7939 22.3329C11.181 21.9587 10.8582 21.4128 10.8443 20.7046C10.8237 19.6527 10.837 18.6001 10.8398 17.5478C10.84 17.4538 10.8443 17.3593 10.9194 17.2604C11.3713 17.2341 11.8023 17.2399 12.2593 17.2491C12.3986 17.3871 12.4147 17.5518 12.4169 17.7093C12.4291 18.5767 12.4443 19.4443 12.403 20.3365C12.3978 20.4038 12.307 20.4224 12.3762 20.5014C12.4199 20.612 12.4254 20.7069 12.4499 20.7976C12.4771 20.8982 12.5128 20.9957 12.5819 21.0752C12.8513 21.3849 13.2082 21.3356 13.5517 21.2901C13.8452 21.2512 14.0037 21.0459 14.0754 20.7672C14.1157 20.6108 14.1216 20.4519 14.1216 20.2919C14.1216 19.4278 14.1206 18.5637 14.1225 17.6996C14.1228 17.56 14.1045 17.4166 14.1925 17.2677C14.6046 17.2255 14.9989 17.2462 15.4188 17.2397C15.481 17.2398 15.5113 17.2534 15.5497 17.3021C15.5671 18.2875 15.5704 19.2511 15.5681 20.2408C15.5029 20.4765 15.5469 20.6904 15.5456 20.9233Z" fill="white"/>
<path d="M29.5576 22.316C29.5167 22.205 29.595 22.148 29.638 22.0801C30.1211 21.3162 30.6235 20.565 31.1744 19.8484C31.2942 19.6925 31.2976 19.5986 31.1734 19.4415C30.6011 18.7179 30.0448 17.9818 29.4854 17.2303C30.0175 17.2104 30.547 17.2104 31.103 17.2104C31.3637 17.352 31.4803 17.5962 31.6379 17.803C31.7571 17.9595 31.8757 18.1176 31.986 18.2807C32.0979 18.4461 32.1851 18.4677 32.3208 18.2916C32.5384 18.009 32.7501 17.722 32.9674 17.4392C33.0307 17.3568 33.0895 17.2718 33.2084 17.2227C33.8276 17.2104 34.4314 17.2104 35.0352 17.2388C34.6709 17.85 34.2087 18.3593 33.7982 18.9075C33.6351 19.1254 33.4776 19.3489 33.2941 19.5503C33.1379 19.7217 33.1579 19.8674 33.2952 20.0458C33.7651 20.6561 34.2244 21.2747 34.6837 21.8931C34.77 22.0094 34.8945 22.1202 34.8105 22.3115C34.5353 22.4377 34.2624 22.3663 33.9956 22.3817C33.8007 22.393 33.6047 22.3815 33.3872 22.3877C33.2022 22.4198 33.1278 22.3056 33.0523 22.1959C32.8229 21.8623 32.5896 21.5314 32.3612 21.197C32.2116 20.978 32.1895 20.9898 32.0115 21.1819C31.6288 21.5948 31.316 22.0721 30.8487 22.4301C30.816 22.4334 30.8028 22.4315 30.7762 22.4147C30.7126 22.274 30.793 22.1829 30.8495 22.0883C31.1287 21.6213 31.4441 21.1782 31.7477 20.7237C31.3773 21.2202 30.9525 21.668 30.5554 22.1396C30.4622 22.2503 30.3799 22.3918 30.1835 22.3751C30.0939 22.2541 30.1649 22.1657 30.2191 22.0816C30.6056 21.4823 30.9935 20.8838 31.4133 20.3066C30.9817 20.8915 30.4946 21.4306 30.0237 21.9829C29.9008 22.127 29.8057 22.3209 29.5576 22.316Z" fill="white"/>
<path d="M20.8153 17.2836C21.2633 17.2663 21.6997 17.2655 22.163 17.2637C22.3397 18.1626 22.4909 19.0623 22.639 19.9625C22.7537 20.6595 22.8601 21.3579 22.9793 22.0541C23.0174 22.2762 23.0036 22.398 22.7191 22.3689C22.4204 22.3382 22.1159 22.3554 21.8143 22.3647C21.6694 22.3692 21.6274 22.3199 21.6095 22.1755C21.4986 21.2804 21.3747 20.387 21.2533 19.4794C21.1443 19.5003 21.1452 19.5887 21.1198 19.647C20.7589 20.4748 20.3918 21.3003 20.0496 22.1359C19.9672 22.337 19.8544 22.3636 19.6692 22.368C19.4746 22.3727 19.3719 22.3223 19.2945 22.1273C18.965 21.297 18.6145 20.475 18.2705 19.6504C18.2435 19.5858 18.2078 19.5249 18.1485 19.4074C18.0173 20.2855 17.8923 21.0995 17.7754 21.9147C17.7113 22.3611 17.7174 22.362 17.2541 22.362C17.0183 22.362 16.7821 22.3541 16.5467 22.3648C16.3898 22.3719 16.329 22.3387 16.3607 22.1631C16.5799 20.9496 16.7911 19.7346 17.004 18.52C17.0739 18.1215 17.141 17.7226 17.2143 17.3012C17.6657 17.2757 18.1122 17.2728 18.5845 17.2723C18.9586 18.1554 19.3068 19.0362 19.6789 19.9773C20.0673 19.0527 20.4356 18.1764 20.8153 17.2836Z" fill="white"/>
<path d="M25.5217 17.2893C26.02 17.269 26.5103 17.2673 27.0272 17.2666C27.7019 18.9026 28.3484 20.5383 29.0011 22.1716C29.0636 22.3278 29.0336 22.3679 28.8707 22.3641C28.5219 22.3562 28.172 22.3483 27.824 22.3671C27.6332 22.3774 27.567 22.2955 27.5095 22.1343C27.152 21.1332 26.7857 20.1353 26.4213 19.1366C26.3863 19.0407 26.3446 18.9473 26.2863 18.8047C25.9849 19.6147 25.7005 20.3791 25.416 21.1434C25.2847 21.4961 25.1507 21.8478 25.023 22.2019C24.9885 22.2975 24.9566 22.3662 24.8321 22.3642C24.3997 22.3576 23.9671 22.3617 23.4932 22.3617C24.1744 20.658 24.844 18.983 25.5217 17.2893Z" fill="white"/>
<circle cx="20" cy="20" r="19.5" stroke="black" stroke-opacity="0.05"/>
</svg>
