<svg width="40" height="40" viewBox="0 0 40 40" fill="none" xmlns="http://www.w3.org/2000/svg">
<circle cx="20" cy="20" r="20" fill="#F6F8FA"/>
<g clip-path="url(#clip0_18553_55951)">
<path d="M14.6275 20.8055C15.3288 21.0756 15.8729 20.9171 16.2598 20.3123C16.4412 20.0364 16.5863 19.6841 16.7072 19.2613C16.7133 19.232 16.7314 19.2202 16.7616 19.2202H20.0565L20.8908 19.232H21.4349C21.4651 19.232 21.4772 19.2437 21.4712 19.2731C21.3261 19.9659 21.0601 20.6059 20.6731 21.1989C20.5583 21.3751 20.4494 21.5512 20.3467 21.7215L19.2826 22.7431C18.0312 23.6121 16.6286 24.0994 15.0628 24.1933C14.6638 24.2168 14.2648 24.2227 13.8718 24.2051C13.7207 24.1933 13.5695 24.1757 13.4184 24.164C11.3024 23.982 9.58547 22.9427 9.15019 20.8055C8.90836 19.6077 9.05346 18.4335 9.3376 17.1887C10.0208 14.2471 12.0158 11.969 15.0809 11.2527C16.0543 11.0237 17.076 10.9532 18.1461 11.0296C20.1955 11.1881 22.0878 12.0101 22.3236 14.2236C22.384 14.7638 22.3417 15.3333 22.2087 15.9381C22.2027 15.9675 22.1785 15.9909 22.1422 15.9909H17.5717C17.5355 15.9909 17.5234 15.9733 17.5294 15.944C17.6564 15.3216 17.7047 14.3176 16.7677 14.2882C15.8669 14.2589 15.3772 14.8636 15.093 15.6034C14.7303 16.5429 14.5187 17.5997 14.3373 18.5861C14.2346 19.1439 14.162 19.6899 14.2587 20.2125C14.3011 20.4474 14.422 20.647 14.6275 20.8114V20.8055Z" fill="#EC7026"/>
<path d="M20.4008 17.8227C20.4008 17.8227 20.3585 17.858 20.3525 17.8814C20.2618 18.3277 20.159 18.7798 20.0623 19.226H16.7674C16.7674 19.226 16.719 19.2319 16.713 19.2612C16.5921 19.684 16.447 20.0304 16.2656 20.3122C15.8787 20.9111 15.3346 21.0755 14.6333 20.8054L15.4253 17.1475C15.4253 17.1475 15.4374 17.124 15.4495 17.124H20.4855C20.4855 17.124 20.5157 17.1358 20.5157 17.1534L20.4008 17.8169V17.8227Z" fill="#805B31"/>
<path d="M27.4683 17.8169L25.9206 24.9389L25.1226 24.7511C24.8264 24.7276 24.5362 24.7511 24.2399 24.8274C23.7442 24.9507 23.321 25.2032 22.9825 25.5731L22.6741 25.9782C22.396 26.4479 22.3416 26.8706 22.3658 27.4167C22.396 28.0332 22.6741 28.5792 23.1276 28.9902C23.1396 29.002 23.1396 29.0196 23.1396 29.049C22.1482 29.595 20.9632 29.8651 19.7904 29.9532C18.5631 30.0471 17.2512 30.006 16.0542 29.6655C15.5584 29.5245 15.0929 29.3132 14.6637 29.0196C13.6118 28.2328 13.3518 27.0761 13.5332 25.8431C13.5694 25.5907 13.6843 25.0446 13.8838 24.1991C14.2828 24.2168 14.6758 24.2109 15.0748 24.1874C16.6346 24.0935 18.0432 23.6061 19.2946 22.7372C19.1254 23.5415 18.944 24.3459 18.7566 25.1444C18.7022 25.3852 18.684 25.62 18.7022 25.8666C18.7324 26.3129 18.9621 26.5536 19.3793 26.6006C19.6936 26.6182 19.9597 26.5242 20.1712 26.3305C20.4554 26.0721 20.6428 25.7433 20.7274 25.3382C21.3139 22.6373 21.9063 19.913 22.5049 17.1593C22.5109 17.124 22.5351 17.1123 22.5653 17.1123H27.565C27.565 17.1123 27.6074 17.124 27.6013 17.1534L27.4623 17.8051L27.4683 17.8169Z" fill="#805B31"/>
<path d="M20.4011 17.8228H21.1568C21.1568 17.8228 21.1991 17.8404 21.193 17.8639L20.8968 19.2319H20.0625C20.1653 18.7739 20.262 18.3218 20.3527 17.8756C20.3527 17.8521 20.3769 17.8345 20.4011 17.8169V17.8228Z" fill="#B1B3B4"/>
<path d="M27.4683 17.8169H28.2542C28.2542 17.8169 28.2905 17.8345 28.2905 17.8521C28.2905 17.8521 28.2905 17.8521 28.2905 17.858L27.7464 20.3651C26.9423 20.8994 26.6098 21.7566 26.9302 22.6843C26.9604 22.7665 27.033 22.9074 27.1479 23.113L26.6582 25.3558C26.5796 25.3382 26.4707 25.2795 26.3317 25.168C26.2471 25.0799 26.108 24.9977 25.9146 24.9331L27.4622 17.811L27.4683 17.8169Z" fill="#B1B3B4"/>
<path d="M24.8866 29.7419C26.329 29.7419 27.4983 28.6063 27.4983 27.2054C27.4983 25.8046 26.329 24.6689 24.8866 24.6689C23.4442 24.6689 22.2749 25.8046 22.2749 27.2054C22.2749 28.6063 23.4442 29.7419 24.8866 29.7419Z" fill="url(#paint0_radial_18553_55951)"/>
<path d="M28.7622 23.8643C29.8473 23.8643 30.727 23.01 30.727 21.9561C30.727 20.9022 29.8473 20.0479 28.7622 20.0479C27.677 20.0479 26.7974 20.9022 26.7974 21.9561C26.7974 23.01 27.677 23.8643 28.7622 23.8643Z" fill="url(#paint1_radial_18553_55951)"/>
<path d="M29.6022 18.5038C30.3936 18.5038 31.0351 17.8808 31.0351 17.1122C31.0351 16.3437 30.3936 15.7207 29.6022 15.7207C28.8109 15.7207 28.1694 16.3437 28.1694 17.1122C28.1694 17.8808 28.8109 18.5038 29.6022 18.5038Z" fill="url(#paint2_radial_18553_55951)"/>
<path d="M26.7123 15.4035C27.2799 15.4035 27.7401 14.9566 27.7401 14.4054C27.7401 13.8541 27.2799 13.4072 26.7123 13.4072C26.1447 13.4072 25.6846 13.8541 25.6846 14.4054C25.6846 14.9566 26.1447 15.4035 26.7123 15.4035Z" fill="url(#paint3_radial_18553_55951)"/>
<path d="M23.6897 14.3235C24.1238 14.3235 24.4757 13.9817 24.4757 13.5602C24.4757 13.1386 24.1238 12.7969 23.6897 12.7969C23.2557 12.7969 22.9038 13.1386 22.9038 13.5602C22.9038 13.9817 23.2557 14.3235 23.6897 14.3235Z" fill="url(#paint4_radial_18553_55951)"/>
</g>
<circle cx="20" cy="20" r="19.5" stroke="black" stroke-opacity="0.05"/>
<defs>
<radialGradient id="paint0_radial_18553_55951" cx="0" cy="0" r="1" gradientUnits="userSpaceOnUse" gradientTransform="translate(24.3727 26.4245) scale(2.61171 2.53646)">
<stop offset="0.25" stop-color="#FEFEFD"/>
<stop offset="0.87" stop-color="#AB821B"/>
</radialGradient>
<radialGradient id="paint1_radial_18553_55951" cx="0" cy="0" r="1" gradientUnits="userSpaceOnUse" gradientTransform="translate(28.7622 21.9561) scale(1.56582 1.5207)">
<stop offset="0.12" stop-color="#FEFEFD"/>
<stop offset="0.4" stop-color="#E1D3AF"/>
<stop offset="0.82" stop-color="#BA9945"/>
<stop offset="1" stop-color="#AB821B"/>
</radialGradient>
<radialGradient id="paint2_radial_18553_55951" cx="0" cy="0" r="1" gradientUnits="userSpaceOnUse" gradientTransform="translate(29.6022 17.1122) scale(1.43281 1.39153)">
<stop offset="0.02" stop-color="#FEFEFD"/>
<stop offset="0.29" stop-color="#E1D3AF"/>
<stop offset="0.67" stop-color="#BA9945"/>
<stop offset="0.84" stop-color="#AB821B"/>
</radialGradient>
<radialGradient id="paint3_radial_18553_55951" cx="0" cy="0" r="1" gradientUnits="userSpaceOnUse" gradientTransform="translate(26.7123 14.4054) scale(1.02775 0.998146)">
<stop stop-color="#FEFEFD"/>
<stop offset="0.27" stop-color="#E1D3AF"/>
<stop offset="0.66" stop-color="#BA9945"/>
<stop offset="0.84" stop-color="#AB821B"/>
</radialGradient>
<radialGradient id="paint4_radial_18553_55951" cx="0" cy="0" r="1" gradientUnits="userSpaceOnUse" gradientTransform="translate(23.6897 13.5602) scale(0.78593 0.763288)">
<stop stop-color="#FEFEFD"/>
<stop offset="0.24" stop-color="#E1D3AF"/>
<stop offset="0.58" stop-color="#BA9945"/>
<stop offset="0.73" stop-color="#AB821B"/>
</radialGradient>
<clipPath id="clip0_18553_55951">
<rect width="22" height="19" fill="white" transform="translate(9.03516 11)"/>
</clipPath>
</defs>
</svg>
