<svg width="40" height="40" viewBox="0 0 40 40" fill="none" xmlns="http://www.w3.org/2000/svg">
<circle cx="20" cy="20" r="20" fill="#202D59"/>
<g clip-path="url(#clip0_18553_55566)">
<path d="M14.7275 18.6367V16.0125C14.7275 16.0125 14.7275 16 14.7409 16H15.5648C15.5648 16 15.5782 16 15.5782 16.0125V17.9199V17.9261L14.7543 18.643C14.7543 18.643 14.7409 18.643 14.7342 18.643C14.7342 18.643 14.7342 18.643 14.7342 18.6367H14.7275Z" fill="#D8592F"/>
<path d="M5.82565 22.4017C5.49075 22.2708 5.24293 22.0588 5.08888 21.7659C5.05539 21.7035 5.04199 21.635 5.04199 21.5602C5.04199 21.0179 5.04199 20.4382 5.04199 19.8211C5.04199 19.7275 5.07548 19.6278 5.14916 19.5156C5.42377 19.073 5.94621 18.8798 6.46195 18.7925C6.6428 18.7614 6.87053 18.7489 7.16523 18.7427C7.86852 18.7427 8.63208 18.7427 9.44923 18.7427C9.46932 18.7427 9.47602 18.7489 9.47602 18.7676V19.5031C9.47602 19.5031 9.46932 19.5218 9.45592 19.5218C8.63878 19.5218 7.84172 19.5218 7.07146 19.5218C6.88392 19.5218 6.72317 19.5592 6.57582 19.6216C6.42176 19.6901 6.38827 19.8148 6.38827 19.9831C6.38827 20.4506 6.38827 20.9368 6.38827 21.4355C6.38827 21.5851 6.46195 21.6911 6.60261 21.7472C6.76336 21.8095 6.93081 21.8407 7.11165 21.8407C7.9154 21.8407 8.69906 21.8407 9.46262 21.8407C9.46262 21.8407 9.46932 21.8407 9.46932 21.8469V22.5887C9.46932 22.5887 9.45592 22.6198 9.43583 22.6198C8.61198 22.6198 7.77474 22.6198 6.91071 22.6198C6.57582 22.6198 6.21413 22.545 5.81895 22.3892L5.82565 22.4017Z" fill="white"/>
<path d="M11.4049 20.3136V22.6075C11.4049 22.6075 11.4049 22.6262 11.3848 22.6262H10.0854C10.0854 22.6262 10.0586 22.62 10.0586 22.6013V18.7802C10.0586 18.7802 10.072 18.749 10.0921 18.749C10.4739 18.749 10.8423 18.749 11.2039 18.749C11.4317 18.749 11.5455 18.8612 11.6862 19.0295C12.2421 19.7214 12.7913 20.4071 13.3406 21.099C13.354 21.1177 13.3607 21.1177 13.3607 21.0928V18.774C13.3607 18.774 13.3674 18.7553 13.3808 18.7553H14.6869C14.6869 18.7553 14.707 18.7615 14.707 18.774V22.6075C14.707 22.6075 14.7003 22.6324 14.6802 22.6324C14.3319 22.6324 13.9702 22.6324 13.6018 22.6324C13.4076 22.6324 13.2468 22.5576 13.1262 22.408C12.5904 21.7348 12.0479 21.0616 11.5053 20.3822C11.4786 20.351 11.4518 20.3261 11.4183 20.3074C11.4049 20.3011 11.3982 20.3074 11.3982 20.3198L11.4049 20.3136Z" fill="white"/>
<path d="M16.9303 21.6848V22.6011C16.9303 22.6011 16.9236 22.6198 16.9102 22.6198H15.5974C15.5974 22.6198 15.584 22.6198 15.584 22.6074V18.7738C15.584 18.7738 15.5974 18.7427 15.6175 18.7427C16.5217 18.7427 17.446 18.7427 18.3971 18.7427C18.7119 18.7427 18.953 18.7614 19.1339 18.7988C19.5358 18.8736 19.8841 19.0419 20.1654 19.285C20.373 19.4657 20.4735 19.7213 20.4534 19.9894C20.4467 20.114 20.44 20.2449 20.4534 20.3696C20.4869 20.7374 20.3194 21.0366 19.9577 21.2672C19.663 21.4542 19.3683 21.5664 19.0736 21.6038C18.866 21.6287 18.6114 21.6412 18.3167 21.6474C17.8613 21.6474 17.4058 21.6537 16.9504 21.6599C16.9303 21.6599 16.9236 21.6661 16.9236 21.6848H16.9303ZM18.8526 20.7997C19.0468 20.7249 19.1205 20.6127 19.1071 20.4195C19.0937 20.2699 19.0937 20.1203 19.1071 19.9644C19.1205 19.8023 19.0602 19.6839 18.8928 19.6153C18.7521 19.5655 18.6315 19.5343 18.5244 19.5281C18.156 19.5156 17.6335 19.5094 16.9571 19.5281C16.9437 19.5281 16.937 19.5405 16.937 19.5468V20.862C16.937 20.862 16.937 20.8683 16.9437 20.8683C17.4661 20.8683 18.0019 20.8683 18.5445 20.8683C18.6382 20.8683 18.7454 20.8433 18.8593 20.7997H18.8526Z" fill="white"/>
<path d="M30.1122 21.4478C30.1189 22.1148 29.2951 22.5138 28.6856 22.5823C28.0158 22.6571 27.2857 22.6758 26.636 22.5512C26.1605 22.4577 25.5911 22.1834 25.4237 21.7408C25.3902 21.6473 25.3701 21.5226 25.3701 21.373C25.3701 20.4754 25.3701 19.6028 25.3701 18.7613C25.3701 18.7613 25.3701 18.7488 25.3835 18.7488H26.7097C26.7097 18.7488 26.7231 18.7488 26.7231 18.7613C26.7231 19.6402 26.7231 20.5315 26.7231 21.4354C26.7231 21.7221 27.0111 21.8156 27.2656 21.8343C27.5135 21.853 27.8149 21.853 28.1565 21.8343C28.4311 21.8218 28.7526 21.747 28.7526 21.4291C28.7526 20.5128 28.7526 19.6215 28.7526 18.755C28.7526 18.7426 28.7593 18.7363 28.7727 18.7363H30.0922C30.0922 18.7363 30.1122 18.7426 30.1122 18.755C30.0989 19.6713 30.0989 20.5627 30.1122 21.4354V21.4478Z" fill="white"/>
<path d="M33.6893 21.1053C33.6893 21.1053 33.6826 21.0741 33.6558 21.0741C32.8922 21.0741 32.1354 21.0741 31.3785 21.0741C31.1843 21.0741 31.0168 21.043 30.8427 20.9744C30.6953 20.9183 30.6283 20.7936 30.635 20.6503C30.6417 20.4508 30.6417 20.2576 30.635 20.0706C30.6283 19.8836 30.6484 19.7277 30.6953 19.6093C30.8025 19.335 31.1039 19.1044 31.3852 18.9797C31.7335 18.8239 32.122 18.7428 32.544 18.7366C33.341 18.7304 34.1381 18.7304 34.9418 18.7366C34.9418 18.7366 34.9552 18.7366 34.9552 18.7491V19.4971C34.9552 19.4971 34.9485 19.522 34.9284 19.522C34.2653 19.522 33.5219 19.522 32.7047 19.522C32.5172 19.522 32.3363 19.5594 32.1622 19.628C32.0215 19.6903 31.9746 19.8274 31.988 19.9646C31.9947 20.0643 31.988 20.1641 31.988 20.2638C31.988 20.2763 31.9947 20.2825 32.0081 20.2887C32.765 20.2763 33.5553 20.2763 34.3792 20.2887C34.5265 20.2887 34.7409 20.3448 34.8882 20.4134C35.0088 20.4695 35.0423 20.6004 35.0356 20.7188C35.0222 20.9121 35.0222 21.1053 35.0356 21.2985C35.0423 21.4793 35.0356 21.6227 34.9954 21.7224C34.8547 22.1151 34.3591 22.3956 33.9505 22.5016C33.6491 22.5826 33.3209 22.62 32.9659 22.62C32.189 22.62 31.4254 22.62 30.6685 22.62C30.6551 22.62 30.6484 22.6138 30.6484 22.6013V21.8533C30.6484 21.8408 30.6551 21.8346 30.6685 21.8346C31.4723 21.8346 32.2626 21.8346 33.0396 21.8346C33.1602 21.8346 33.3008 21.8034 33.4683 21.7473C33.6424 21.685 33.7027 21.5853 33.696 21.4232C33.696 21.311 33.696 21.205 33.696 21.1053H33.6893Z" fill="white"/>
<path d="M22.3297 21.4353C22.3297 21.772 22.7383 21.8468 23.0129 21.8468C23.676 21.8468 24.3525 21.8468 25.0423 21.8468C25.049 21.8468 25.0624 21.853 25.0624 21.8655V22.6135C25.0624 22.6135 25.0624 22.6322 25.0423 22.6322C24.2922 22.6446 23.5487 22.6446 22.8052 22.6322C22.1957 22.6259 21.2915 22.3579 21.0437 21.772C21.0035 21.6785 20.9834 21.5476 20.9834 21.3855C20.9834 20.519 20.9834 19.6588 20.9834 18.7862C20.9834 18.7675 20.9901 18.7612 21.0102 18.7612H22.323C22.323 18.7612 22.3364 18.7612 22.3364 18.7737C22.3364 19.6526 22.3364 20.544 22.3364 21.4478L22.3297 21.4353Z" fill="white"/>
<path d="M15.5782 23.4549V25.3623C15.5782 25.3623 15.5782 25.3748 15.5648 25.3748H14.7409C14.7409 25.3748 14.7275 25.3748 14.7275 25.3623V22.7381C14.7275 22.7381 14.7275 22.7256 14.7409 22.7256H14.7476L15.5715 23.4424C15.5715 23.4424 15.5715 23.4424 15.5715 23.4549H15.5782Z" fill="white"/>
</g>
<circle cx="20" cy="20" r="19.5" stroke="black" stroke-opacity="0.05"/>
<defs>
<clipPath id="clip0_18553_55566">
<rect width="30" height="9.375" fill="white" transform="translate(5.03516 16)"/>
</clipPath>
</defs>
</svg>
