<svg width="40" height="40" viewBox="0 0 40 40" fill="none" xmlns="http://www.w3.org/2000/svg">
<circle cx="20" cy="20" r="20" fill="#F6F8FA"/>
<path d="M21.8299 10.5402C21.7099 10.3302 21.5599 10.1402 21.3999 9.98023C20.7699 9.31023 19.9199 8.99023 19.0699 9.00023C18.0299 9.01023 16.9999 9.53023 16.3999 10.5502L8.60987 23.7702C7.16987 26.2202 8.48987 28.9302 10.6599 29.8402C11.6799 30.2602 12.8899 30.2902 14.0799 29.7002L14.2299 29.6202C10.7999 30.4902 13.4799 24.6302 13.5899 24.4102L17.8499 16.5302C17.8499 16.5302 17.8499 16.5202 17.8599 16.5102C17.8799 16.4802 17.9099 16.4302 17.9499 16.3702C18.4899 15.5802 20.9999 12.4302 24.9599 15.8302L21.8199 10.5502L21.8299 10.5402Z" fill="url(#paint0_linear_46735_84787)"/>
<path d="M24.97 15.8202C21.01 12.4202 18.5 15.5702 17.96 16.3602C18.21 16.0302 18.57 15.8702 18.94 15.8702C19.45 15.8602 19.97 16.1502 20.17 16.7202L21.23 19.7702C22.12 19.6302 23.05 19.5502 24.01 19.5602H24.08C25.45 19.5902 26.62 19.8402 27.61 20.2502L24.98 15.8302L24.97 15.8202Z" fill="url(#paint1_linear_46735_84787)"/>
<path d="M31.0301 26.0603C30.8301 24.5603 28.9801 21.0503 23.9901 20.9903C18.3101 20.9203 13.6001 24.4103 13.6001 24.4103C13.4901 24.6403 10.8101 30.5003 14.2401 29.6303L19.3801 27.1303C20.6401 26.5203 22.1601 26.6303 23.3501 27.3503C24.2101 27.8803 24.8701 28.6703 25.6501 29.2903C25.9801 29.5503 26.3501 29.7603 26.7401 29.9203C27.7701 30.3203 29.1901 30.0703 30.0801 29.2803C31.0401 28.4303 31.2001 27.2803 31.0301 26.0603Z" fill="url(#paint2_linear_46735_84787)"/>
<path d="M32.4505 17.3903C32.4505 18.5603 31.5005 20.1103 30.3405 20.1103C29.1805 20.1103 28.2305 18.5603 28.2305 17.3903C28.2305 16.2203 29.1805 15.2803 30.3405 15.2803C31.5005 15.2803 32.4505 16.2303 32.4505 17.3903Z" fill="url(#paint3_linear_46735_84787)"/>
<path d="M30.34 16.3804C29.44 16.3804 28.71 17.1104 28.71 18.0104C28.71 18.9104 29.44 20.1104 30.34 20.1104C31.24 20.1104 31.97 18.9104 31.97 18.0104C31.97 17.1104 31.24 16.3804 30.34 16.3804Z" fill="url(#paint4_linear_46735_84787)"/>
<circle cx="20" cy="20" r="19.5" stroke="black" stroke-opacity="0.05"/>
<defs>
<linearGradient id="paint0_linear_46735_84787" x1="7.99987" y1="19.5802" x2="24.9699" y2="19.5802" gradientUnits="userSpaceOnUse">
<stop stop-color="#00C0F3"/>
<stop offset="1" stop-color="#2A5CAA"/>
</linearGradient>
<linearGradient id="paint1_linear_46735_84787" x1="19.75" y1="14.4402" x2="26.58" y2="21.2702" gradientUnits="userSpaceOnUse">
<stop stop-color="#1E398D"/>
<stop offset="1" stop-color="#00C0F3"/>
</linearGradient>
<linearGradient id="paint2_linear_46735_84787" x1="12.5001" y1="25.5503" x2="31.0801" y2="25.5503" gradientUnits="userSpaceOnUse">
<stop stop-color="#1E398D"/>
<stop offset="1" stop-color="#00C0F3"/>
</linearGradient>
<linearGradient id="paint3_linear_46735_84787" x1="28.7605" y1="19.1503" x2="31.9205" y2="15.9903" gradientUnits="userSpaceOnUse">
<stop stop-color="#2A5CAA"/>
<stop offset="1" stop-color="#00C0F3"/>
</linearGradient>
<linearGradient id="paint4_linear_46735_84787" x1="30.34" y1="20.1104" x2="30.34" y2="16.3804" gradientUnits="userSpaceOnUse">
<stop stop-color="#00C0F3"/>
<stop offset="1" stop-color="#2A5CAA"/>
</linearGradient>
</defs>
</svg>
