<svg width="40" height="40" viewBox="0 0 40 40" fill="none" xmlns="http://www.w3.org/2000/svg">
<circle cx="20" cy="20" r="20" fill="#1C3775"/>
<g clip-path="url(#clip0_14382_21109)">
<path d="M18.9414 23.8705C18.9293 25.3872 18.8848 26.9039 18.9131 28.4165C18.9293 29.2416 18.6239 29.5854 17.7887 29.5449C16.9151 29.5004 16.0375 29.5449 15.1598 29.5449C13.8069 29.5449 13.6977 29.4357 13.6957 28.0303C13.6957 24.6962 13.6957 21.3609 13.6957 18.0242V15.2133C12.4177 15.2133 11.2488 15.1829 10.0799 15.2254C9.12141 15.2578 8.99805 14.8756 8.99805 13.6076C8.99805 13.0009 8.99805 12.4246 8.99805 11.7876C8.99805 10.3457 9.18207 9.98374 10.2397 9.99183C13.3398 10.0161 16.4399 9.99183 19.542 10.0019C20.0476 10.0019 20.5531 9.97768 21.0587 10.0181C22.5774 10.1435 23.3681 10.8938 23.6735 12.4711H22.1507C22.1631 12.2586 22.1214 12.0463 22.0294 11.8543C21.8959 11.5793 21.36 11.3568 21.0041 11.3528C17.4733 11.3326 13.9404 11.3326 10.3428 11.3326V13.9231C11.5299 13.9231 12.6664 13.9554 13.8029 13.9109C14.721 13.8766 15.0446 14.2527 15.0385 15.1668C15.0061 19.1405 15.0243 23.1162 15.0243 27.098V28.2446H17.6108V27.1465C17.6108 22.8324 17.6108 18.5183 17.6108 14.2042C17.6108 13.0292 17.7746 12.8432 18.9455 12.8452C21.5744 12.8452 24.2033 12.7987 26.8221 12.9322C29.2832 13.0555 30.996 14.9908 31.0001 17.3811C31.0041 19.7714 29.2731 21.6602 26.8464 21.8786C26.1588 21.9413 25.4692 21.9615 24.5491 22.0161L30.175 27.6117C30.4018 27.8121 30.6122 28.0306 30.8039 28.2648C31.2084 28.827 30.9596 29.4903 30.2781 29.5105C28.6603 29.5591 27.0425 29.5672 25.4247 29.4923C25.0567 29.4762 24.6522 29.1182 24.355 28.825C22.6927 27.2072 21.0607 25.5469 19.3378 23.7896C19.2681 23.1375 19.241 22.4816 19.2569 21.826C21.3439 23.9271 23.2346 25.8402 25.1416 27.7391C25.3661 27.9615 25.6694 28.2305 25.9505 28.2507C26.8666 28.3154 27.7887 28.2749 28.9091 28.2749C28.5228 27.8705 28.3024 27.6218 28.0719 27.3892C26.3347 25.6501 24.5815 23.9251 22.8727 22.1597C22.8524 22.1374 22.8302 22.1132 22.812 22.0889C22.7208 21.9587 22.6651 21.807 22.6504 21.6487C22.6356 21.4904 22.6623 21.331 22.7278 21.1862C22.7932 21.0413 22.8953 20.916 23.0239 20.8225C23.1525 20.7291 23.3032 20.6707 23.4611 20.6531H23.5299C24.5026 20.5945 25.4834 20.6531 26.4581 20.6268C28.2923 20.5661 29.6634 19.1748 29.6694 17.4094C29.6727 16.558 29.3389 15.7398 28.7411 15.1336C28.1432 14.5274 27.3297 14.1824 26.4783 14.1738C25.4672 14.1374 24.4561 14.1738 23.445 14.1738H18.9414V23.8705Z" fill="white"/>
<path d="M25.6652 16.6774C25.9928 16.6774 26.2719 16.6086 26.4499 16.7138C26.7115 16.9127 26.9478 17.1429 27.1536 17.3993C26.8988 17.6015 26.65 17.9756 26.3892 17.9837C24.6197 18.0363 22.8462 18.012 21.0242 18.012V16.6774H25.6652Z" fill="white"/>
</g>
<circle cx="20" cy="20" r="19.5" stroke="black" stroke-opacity="0.05"/>
<defs>
<clipPath id="clip0_14382_21109">
<rect width="22" height="19.5551" fill="white" transform="translate(9 10)"/>
</clipPath>
</defs>
</svg>
