<svg width="40" height="40" viewBox="0 0 40 40" fill="none" xmlns="http://www.w3.org/2000/svg">
<circle cx="20" cy="20" r="20" fill="#F6F8FA"/>
<g clip-path="url(#clip0_20394_63211)">
<path d="M23.4277 21.114C23.4277 21.114 23.4153 21.0831 23.4153 21.0637C23.4153 20.2427 23.4153 19.4255 23.4153 18.6045C23.4153 18.496 23.403 18.4031 23.3824 18.3217C23.3535 18.2288 23.3164 18.1436 23.2711 18.0623C23.1185 17.795 22.9 17.706 22.6362 17.5704C21.7705 17.125 20.909 16.6835 20.0557 16.242C20.0598 15.0802 20.0639 14.325 20.0557 13.9726C20.0557 13.686 20.1381 13.4497 20.3071 13.2677C20.369 13.2019 20.571 13.0663 20.9131 12.8611C21.9808 12.2143 23.0856 11.5443 24.2315 10.8433C24.5902 10.6226 24.953 10.6265 25.324 10.8511C26.4741 11.5521 27.6407 12.2647 28.8238 12.9811C29.0381 13.1089 29.1824 13.2213 29.2607 13.3181C29.4339 13.5311 29.4792 13.7441 29.4792 14.0268C29.4792 15.4404 29.4792 16.9237 29.4792 18.4689C29.4792 18.9027 29.3308 19.1544 28.9433 19.3868C27.7355 20.1187 26.54 20.8546 25.3404 21.5749C25.0766 21.7337 24.8499 21.8034 24.5366 21.7376C24.4294 21.7143 24.248 21.6214 23.9925 21.4587C23.8234 21.3503 23.6503 21.2457 23.4689 21.1411C23.4524 21.1334 23.4359 21.1218 23.4195 21.1063L23.4277 21.114Z" fill="#21408E"/>
<path d="M20.0553 16.2459C20.9086 16.6874 21.7702 17.1289 22.6359 17.5743C22.8997 17.7098 23.1182 17.7989 23.2707 18.0661C23.3161 18.1475 23.3532 18.2327 23.382 18.3256C23.4068 18.4031 23.415 18.496 23.415 18.6083C23.415 19.4294 23.415 20.2465 23.415 21.0676C23.415 21.0831 23.415 21.1024 23.4274 21.1179C23.4191 21.1179 23.4191 21.1218 23.4191 21.1295C23.4191 22.5663 23.4191 23.9528 23.4191 25.2851C23.4191 25.5097 23.3408 25.7188 23.1842 25.9008C23.1264 25.9705 23.044 26.0054 22.9698 26.0557C22.9368 26.079 22.8956 26.1061 22.8461 26.1293C20.7273 27.2215 18.5754 28.3368 16.3906 29.4716C16.1721 29.5839 15.999 29.6536 15.8712 29.6729C15.6362 29.7117 15.393 29.6652 15.1333 29.5335C12.9238 28.3988 10.7266 27.2641 8.54177 26.1371C8.31504 26.0209 8.16252 25.8582 8.09244 25.6568C8.05946 25.56 8.04297 25.3703 8.04297 25.0875C8.04297 22.8181 8.04297 20.6028 8.04297 18.4495C8.04297 18.1358 8.20786 17.8957 8.53764 17.7253C10.7018 16.6177 12.9403 15.4752 15.2529 14.294C15.4796 14.1778 15.7063 14.143 15.933 14.1856C16.0485 14.2088 16.2463 14.2901 16.5225 14.4334C17.6974 15.0376 18.8764 15.6418 20.0595 16.2498L20.0553 16.2459Z" fill="#58A755"/>
<path d="M29.3057 21.4974C29.3057 21.4974 29.3387 21.5168 29.3552 21.5245C29.652 21.6794 29.9406 21.8343 30.2209 21.9815C30.4641 22.1132 30.6991 22.2332 30.9176 22.3455C30.9382 22.3572 30.9629 22.3688 30.9835 22.3804C31.169 22.485 31.3669 22.5934 31.5771 22.7018C31.6307 22.729 31.6884 22.7638 31.742 22.7987C31.9316 22.9265 32.0347 23.2053 32.0347 23.4144C32.0347 24.1813 32.0347 25.0023 32.0306 25.8775C32.0306 26.1486 31.8822 26.3268 31.6142 26.4701C30.864 26.8729 30.0848 27.2872 29.2769 27.7133C29.1532 27.7791 29.0295 27.8023 28.9017 27.7907C28.8193 27.783 28.708 27.7404 28.5678 27.6668C27.7805 27.2485 26.9972 26.8341 26.214 26.4159C26.012 26.3113 25.9131 26.1293 25.9131 25.8775C25.9131 24.9984 25.9131 24.1541 25.9131 23.3486C25.9131 23.2169 25.9296 23.1007 26.0079 22.9884C26.0821 22.8839 26.1852 22.7987 26.3129 22.729C27.1333 22.2952 27.9083 21.8847 28.6379 21.4935C28.8605 21.3735 29.0831 21.3773 29.3016 21.4974H29.3057Z" fill="#B8BFC4"/>
</g>
<circle cx="20" cy="20" r="19.5" stroke="black" stroke-opacity="0.05"/>
<defs>
<clipPath id="clip0_20394_63211">
<rect width="24" height="19" fill="white" transform="translate(8.03516 10.6846)"/>
</clipPath>
</defs>
</svg>
