<svg width="40" height="40" viewBox="0 0 40 40" fill="none" xmlns="http://www.w3.org/2000/svg">
<circle cx="20" cy="20" r="20" fill="#231F20"/>
<g clip-path="url(#clip0_14382_21308)">
<path d="M30.4266 20.5998V19.2271H25.6567V23.18H30.4266V21.7817H27.3799V20.5998H30.4266Z" fill="white"/>
<path d="M13.8218 16.4907C11.8723 16.4907 10.2913 18.0619 10.2913 20.0004C10.2913 21.9388 11.8723 23.5095 13.8218 23.5095C15.7713 23.5095 17.3523 21.9377 17.3523 20.0004C17.3523 18.0631 15.7719 16.4907 13.8218 16.4907ZM13.8218 22.0601C12.6771 22.0601 11.7493 21.1382 11.7493 20.0004C11.7493 18.8626 12.6771 17.9395 13.8218 17.9395C14.9665 17.9395 15.8949 18.8614 15.8949 20.0004C15.8949 21.1393 14.9665 22.0601 13.8218 22.0601Z" fill="white"/>
<path d="M16.7756 17.7505C16.8894 17.8949 16.9926 18.0475 17.0837 18.2083H17.8107V23.18H19.3355V18.2083H20.3706V16.8198H16.7756V17.7505Z" fill="white"/>
<path d="M7.09481 19.8821L5.59904 16.8198H4V23.18H5.42904V19.6321L7.09481 22.9108L8.93174 19.4481V23.1794H10.3608V21.3837C10.1844 20.9567 10.0863 20.4896 10.0863 19.9999C10.0863 19.5102 10.1844 19.0426 10.3608 18.6156V16.8198H8.59174L7.09539 19.8821H7.09481Z" fill="white"/>
<path d="M33.1762 18.3202L32.3099 16.8198H30.6912L32.3668 19.722L33.1762 18.3202Z" fill="white"/>
<path d="M34.155 20.0162L36 16.8198H34.3633L30.6912 23.18L32.3233 23.1823L33.3508 21.4266L34.3633 23.18H35.982L34.155 20.0162Z" fill="white"/>
<path d="M20.635 18.2083H23.8784V19.2265H21.2465C21.2512 19.2323 23.5987 21.2259 23.5987 23.18H24.8746C24.8746 22.4513 24.4185 21.2944 23.8888 20.5999H25.3927L25.3828 16.8198H20.6356V18.2083H20.635Z" fill="white"/>
<path d="M30.4272 16.8198H25.6567V18.2083H30.4272V16.8198Z" fill="white"/>
</g>
<circle cx="20" cy="20" r="19.5" stroke="black" stroke-opacity="0.05"/>
<defs>
<clipPath id="clip0_14382_21308">
<rect width="32" height="7.01873" fill="white" transform="translate(4 16.4907)"/>
</clipPath>
</defs>
</svg>
