<svg width="40" height="40" viewBox="0 0 40 40" fill="none" xmlns="http://www.w3.org/2000/svg">
<circle cx="20" cy="20" r="20" fill="#F6F8FA"/>
<path d="M30.5908 17.6876C29.9079 17.3112 29.4616 17.0827 29.2518 17.0022C26.9909 16.1388 24.5714 16.3327 22.1751 16.9083C21.0398 17.1803 19.9252 17.529 18.7874 17.74C15.5216 18.3441 12.2713 18.2396 9.03638 17.4266L9.03516 11.7353C9.03516 11.697 9.05385 11.6832 9.09125 11.6938C11.6997 12.4084 14.6387 12.3352 17.2972 11.7731C19.752 11.2536 22.5885 10.3365 25.3555 10.2682C27.0295 10.2276 28.7652 10.4333 30.5628 10.8853C30.6058 10.8958 30.6274 10.9235 30.6274 10.9682L30.5908 17.6876Z" fill="#30B3E8"/>
<path d="M30.5906 17.6881L30.6284 20.7783L9.03613 20.7758V17.4271C12.271 18.2401 15.5214 18.3446 18.7871 17.7405C19.9249 17.5296 21.0395 17.1808 22.1749 16.9088C24.5712 16.3333 26.9906 16.1394 29.2516 17.0027C29.4613 17.0832 29.9076 17.3117 30.5906 17.6881Z" fill="#006935"/>
<path d="M30.6284 20.7773L30.6247 23.4066C30.6246 23.413 30.623 23.4193 30.6201 23.425C30.6171 23.4307 30.6128 23.4357 30.6076 23.4395C30.6024 23.4433 30.5964 23.4458 30.5901 23.4468C30.5837 23.4479 30.5772 23.4475 30.571 23.4456C29.9784 23.2635 29.3751 23.1017 28.7613 22.9602C27.3297 22.631 25.9569 22.5997 24.6431 22.8663C23.7228 23.0525 22.8281 23.2895 21.959 23.5773C20.6591 24.0065 19.3786 24.4187 18.0323 24.6248C15.0803 25.0736 12.1007 24.9305 9.09345 24.1956C9.07739 24.1913 9.06319 24.1819 9.05305 24.1689C9.04291 24.1559 9.03739 24.14 9.03735 24.1236L9.03613 20.7749L30.6284 20.7773Z" fill="#CCCD00"/>
<path d="M30.5932 30.2631H9.07296C9.068 30.2631 9.06308 30.2622 9.0585 30.2603C9.05391 30.2584 9.04974 30.2556 9.04623 30.2521C9.04272 30.2486 9.03994 30.2444 9.03804 30.2398C9.03614 30.2352 9.03516 30.2303 9.03516 30.2253V27.99C9.03504 27.981 9.03818 27.9722 9.044 27.9652C9.04981 27.9583 9.05793 27.9537 9.06687 27.9522L30.5884 24.7011C30.5938 24.7002 30.5994 24.7005 30.6047 24.702C30.61 24.7035 30.6149 24.7061 30.6191 24.7097C30.6233 24.7133 30.6267 24.7178 30.6289 24.7228C30.6312 24.7279 30.6323 24.7333 30.6323 24.7389L30.631 30.2253C30.631 30.2303 30.6301 30.2352 30.6282 30.2398C30.6263 30.2444 30.6235 30.2486 30.62 30.2521C30.6165 30.2556 30.6123 30.2584 30.6077 30.2603C30.6031 30.2622 30.5982 30.2631 30.5932 30.2631Z" fill="#A81078"/>
<circle cx="20" cy="20" r="19.5" stroke="black" stroke-opacity="0.05"/>
</svg>
