<svg width="40" height="40" viewBox="0 0 40 40" fill="none" xmlns="http://www.w3.org/2000/svg">
<circle cx="20" cy="20" r="20" fill="black"/>
<path d="M15.5376 20.6851C16.3553 20.6858 16.37 20.711 16.2103 21.8504C15.9151 21.8504 15.6076 21.8505 15.3 21.8504C14.2894 21.8504 13.2786 21.8395 12.2681 21.8531C11.0934 21.869 10.7467 22.2288 10.7454 23.3906C10.745 23.7914 10.7429 24.1922 10.7469 24.593C10.7541 25.3012 11.0947 25.7387 11.7925 25.7768C12.7829 25.8308 13.7776 25.8162 14.77 25.802C14.8712 25.8006 15.0437 25.6106 15.0577 25.4932C15.1883 24.3988 15.1803 24.3977 14.0838 24.397C13.4958 24.3966 12.9077 24.3969 12.3524 24.3969C12.3024 24.3123 12.2723 24.2841 12.2695 24.2534C12.1803 23.2725 12.1807 23.2726 13.1388 23.2727C14.0449 23.2729 14.951 23.2741 15.8571 23.2718C16.08 23.2713 16.2727 23.2711 16.2699 23.5884C16.2603 24.6846 16.2662 25.781 16.2662 26.8847C16.1799 26.9221 16.1191 26.9714 16.0581 26.9715C14.6469 26.9749 13.2334 27.0213 11.8249 26.9587C10.3757 26.8943 9.51323 25.9116 9.50706 24.4625C9.50536 24.0618 9.52855 23.6596 9.50281 23.2604C9.39382 21.5701 10.7631 20.6935 12.0378 20.6867C13.1878 20.6807 14.3379 20.6853 15.5376 20.6851Z" fill="white"/>
<path d="M26.2284 13.0106C26.9257 13.0105 27.5711 12.995 28.2156 13.0134C29.7406 13.0568 30.4288 13.7751 30.4294 15.3003C30.4299 16.7821 30.4301 18.2638 30.4287 19.7456C30.4286 19.8983 30.4162 20.0509 30.404 20.3279C29.7922 19.743 29.0659 19.4529 29.1721 18.4362C29.2873 17.3326 29.2013 16.2076 29.1972 15.0919C29.1948 14.4391 28.9692 14.2027 28.3254 14.1934C27.6108 14.1832 26.8958 14.1821 26.1813 14.1936C25.5384 14.2039 25.299 14.4509 25.2974 15.0864C25.2938 16.4608 25.2963 17.8352 25.2963 19.2523C24.8842 19.2523 24.5135 19.2523 24.1035 19.2523C24.1035 17.1953 24.1035 15.1484 24.1035 13.0106C24.7989 13.0106 25.4875 13.0106 26.2284 13.0106Z" fill="white"/>
<path d="M25.2973 25.5645C25.2973 26.0484 25.2973 26.4802 25.2973 26.88C25.2138 26.9292 25.1853 26.9597 25.1545 26.9622C24.0662 27.0509 24.0667 27.0505 24.0668 25.983C24.0669 24.3813 24.0778 22.7793 24.0573 21.1778C24.0522 20.7851 24.1727 20.668 24.5617 20.6751C25.7801 20.6972 26.9991 20.687 28.2178 20.6825C29.3594 20.6784 30.5281 21.3378 30.4421 22.9217C30.379 24.0848 30.4299 25.2541 30.43 26.4206C30.43 26.5891 30.43 26.7575 30.43 26.912C30.3134 26.9464 30.2651 26.9705 30.2154 26.9739C29.1972 27.0433 29.1973 27.0429 29.1973 26.0178C29.1973 24.9384 29.2004 23.8589 29.196 22.7795C29.1933 22.1085 29.0124 21.8937 28.3381 21.8707C27.5736 21.8445 26.8069 21.8585 26.042 21.8809C25.5391 21.8957 25.2918 22.1817 25.2951 22.692C25.301 23.6321 25.2971 24.5723 25.2973 25.5645Z" fill="white"/>
<path d="M14.4052 13.0107C14.8932 13.0106 15.3304 13.033 15.7641 13.0035C16.1456 12.9776 16.3219 13.0893 16.2701 13.4949C16.2441 13.6983 16.2655 13.9077 16.2655 14.1888C16.0344 14.1888 15.8492 14.1888 15.6639 14.1888C14.4613 14.1888 13.2587 14.18 12.0563 14.1916C11.1544 14.2004 10.7488 14.6175 10.7447 15.5034C10.7424 15.9913 10.7387 16.4794 10.7463 16.9673C10.7559 17.593 11.0255 17.944 11.6377 18.0761C11.9235 18.1378 12.2249 18.1445 12.5193 18.1463C13.7504 18.1535 14.9816 18.1493 16.1764 18.1493C16.227 18.2552 16.2518 18.2847 16.2545 18.3161C16.3387 19.2931 16.3384 19.2932 15.3714 19.2933C14.2734 19.2935 13.1755 19.2987 12.0775 19.2924C10.4683 19.2832 9.50868 18.3188 9.50789 16.7203C9.50768 16.3021 9.50529 15.8838 9.5091 15.4655C9.52135 14.1204 10.3449 13.1699 11.689 13.0565C12.572 12.982 13.4646 13.022 14.4052 13.0107Z" fill="white"/>
<path d="M20.4721 16.7463C19.5859 16.7463 18.7511 16.7229 17.9186 16.7557C17.463 16.7737 17.4485 16.5323 17.4755 16.2059C17.4993 15.9198 17.3487 15.5678 17.891 15.5761C19.4541 15.6001 21.0181 15.6016 22.5811 15.5749C23.1305 15.5655 22.9715 15.9209 22.9931 16.2028C23.0173 16.5184 23.0225 16.7814 22.5564 16.7562C21.8809 16.7196 21.2019 16.7465 20.4721 16.7463Z" fill="white"/>
<path d="M22.2312 20.6836C22.9904 20.6821 23.1692 20.914 22.9829 21.6269C22.9599 21.7148 22.8347 21.8394 22.7561 21.84C21.0216 21.8522 19.2869 21.8493 17.5855 21.8493C17.5336 21.767 17.5023 21.7397 17.4996 21.7098C17.4083 20.6835 17.4086 20.6835 18.4257 20.6836C19.6777 20.6837 20.9298 20.6836 22.2312 20.6836Z" fill="white"/>
<path d="M19.1128 25.8145C20.2941 25.8144 21.424 25.8398 22.5519 25.8038C23.1302 25.7853 22.9657 26.1595 22.9948 26.4593C23.0281 26.8022 22.9755 27.0005 22.5356 26.9926C21.0075 26.9653 19.4781 26.9592 17.9503 26.9939C17.408 27.0062 17.4858 26.6988 17.4701 26.3648C17.4527 25.9973 17.505 25.758 17.9671 25.8065C18.3279 25.8445 18.6959 25.8144 19.1128 25.8145Z" fill="white"/>
<path d="M19.427 14.1893C18.8003 14.1861 18.2258 14.1836 17.6514 14.1783C17.6198 14.178 17.5885 14.1545 17.5566 14.1416C17.5376 14.1135 17.5051 14.0868 17.5024 14.0574C17.4051 13.0113 17.4055 13.0113 18.4598 13.0113C19.7484 13.0113 21.037 13.0114 22.3257 13.0112C22.9957 13.0111 22.9967 13.0109 22.99 13.6926C22.9887 13.83 22.9772 13.9672 22.9662 14.1893C21.7939 14.1893 20.6365 14.1893 19.427 14.1893Z" fill="white"/>
<path d="M19.8464 18.1475C20.9037 18.1475 21.9087 18.1475 22.9529 18.1475C22.9529 18.5357 22.9529 18.8725 22.9529 19.2525C21.1548 19.2525 19.3572 19.2525 17.5533 19.2525C17.5315 19.2053 17.4948 19.1601 17.4912 19.1124C17.4167 18.1475 17.4174 18.1474 18.3853 18.1475C18.8549 18.1475 19.3245 18.1475 19.8464 18.1475Z" fill="white"/>
<path d="M21.7262 23.2559C21.9869 23.2558 22.1998 23.2818 22.4039 23.2506C22.9076 23.1737 23.0117 23.3997 23.0068 23.8635C23.0024 24.2921 22.8913 24.4287 22.4501 24.4206C20.9709 24.3936 19.4909 24.4108 18.0112 24.4092C17.8577 24.4091 17.7042 24.3962 17.5151 24.3876C17.5151 24.0229 17.5151 23.6847 17.5151 23.2559C18.9073 23.2559 20.2908 23.2559 21.7262 23.2559Z" fill="white"/>
<circle cx="20" cy="20" r="19.5" stroke="black" stroke-opacity="0.05"/>
</svg>
