<svg width="40" height="40" viewBox="0 0 40 40" fill="none" xmlns="http://www.w3.org/2000/svg">
<circle cx="20" cy="20" r="20" fill="#039844"/>
<path d="M12.9972 11.5723H14.1991C15.4178 12.0537 16.0272 12.9677 16.0272 14.3144C16.0333 17.1783 16.0317 20.1093 16.0226 23.1073C16.0227 23.1533 16.0133 23.1988 15.9952 23.2411C15.9771 23.2834 15.9505 23.3215 15.9172 23.3532C15.8838 23.3848 15.8443 23.4093 15.8012 23.4252C15.758 23.4411 15.712 23.448 15.6661 23.4455L15.4787 23.4409C15.2137 23.4288 15.0827 23.2886 15.0857 23.0205L15.0949 22.4446C15.0949 22.3634 15.0626 22.2856 15.0052 22.2281C14.9477 22.1707 14.8699 22.1384 14.7887 22.1384L12.3573 22.1613C12.2815 22.1612 12.2076 22.185 12.1461 22.2293C12.0846 22.2736 12.0386 22.3362 12.0146 22.4081C11.9567 22.5848 11.9369 22.7722 11.9552 22.9702C11.9704 23.1469 11.8957 23.2688 11.7312 23.3358C11.454 23.4425 11.2102 23.3922 11 23.185V14.0813C11.1828 12.8077 11.8485 11.9714 12.9972 11.5723Z" fill="white"/>
<path d="M17.3162 11.5723H26.877C27.8794 11.7855 28.4796 12.1405 28.6776 12.6371C29.2443 14.066 29.0646 15.1202 28.1384 15.7997C27.593 16.1988 26.9699 16.3953 26.2692 16.3892C23.1066 16.3709 20.0812 16.3694 17.1928 16.3846C17.1607 16.3846 17.1288 16.3781 17.0991 16.3654C17.0694 16.3528 17.0425 16.3342 17.0199 16.3108C16.9974 16.2874 16.9796 16.2596 16.9677 16.2291C16.9558 16.1987 16.95 16.1661 16.9506 16.1333L16.9598 15.6443C16.9604 15.6119 16.9673 15.5799 16.9803 15.5502C16.9932 15.5205 17.0119 15.4936 17.0353 15.4711C17.0586 15.4486 17.0862 15.4309 17.1163 15.4191C17.1465 15.4072 17.1787 15.4014 17.2111 15.402L18.0018 15.4158C18.1511 15.4188 18.2272 15.3457 18.2303 15.1964L18.2623 12.9479C18.2653 12.762 18.1815 12.6371 18.0109 12.5731C17.8372 12.5061 17.6575 12.4787 17.4716 12.4909C17.3863 12.4966 17.3008 12.4799 17.2238 12.4427C17.1468 12.4054 17.0809 12.3487 17.0328 12.2784C16.9847 12.2081 16.956 12.1265 16.9496 12.0419C16.9432 11.9573 16.9593 11.8726 16.9963 11.7962C17.0238 11.7414 17.1304 11.6667 17.3162 11.5723Z" fill="white"/>
<path d="M27.9003 17.9112L27.9232 17.3948C27.9354 17.1845 28.0466 17.0764 28.2568 17.0703L28.4945 17.0657C28.7199 17.0596 28.8327 17.1693 28.8327 17.3948C28.8296 20.2739 28.8342 23.374 28.8464 26.695C28.8555 28.9984 25.6792 29.725 24.4864 27.8558C24.1513 27.3348 23.9883 26.6554 23.9974 25.8175C24.0309 22.655 24.0355 19.82 24.0111 17.3125C24.0111 17.1754 24.0782 17.1038 24.2122 17.0977L24.8246 17.0657C24.98 17.0566 25.0577 17.1297 25.0577 17.2851L25.0486 18.0163C25.0455 18.2052 25.1384 18.2996 25.3273 18.2996L27.5073 18.2905C27.7602 18.2905 27.8912 18.1641 27.9003 17.9112Z" fill="white"/>
<path d="M11 27.0879V25.7488C11.5301 24.5667 12.3863 23.9741 13.5684 23.971C16.5664 23.968 19.6315 23.968 22.7636 23.971C22.9098 23.971 22.9814 24.0442 22.9784 24.1904L22.9601 24.6657C22.954 24.8363 22.8656 24.9231 22.695 24.9262L22.1877 24.9399C22.0323 24.943 21.9546 25.0222 21.9546 25.1776V27.5769C21.9546 27.7505 22.04 27.8496 22.2106 27.8739L22.7087 27.9516C22.7727 27.9606 22.8318 27.9912 22.8765 28.0385C22.9213 28.0857 22.9491 28.1469 22.9555 28.2121L22.9921 28.564C23.0164 28.7986 22.9113 28.9159 22.6767 28.9159C19.7153 28.9373 16.7751 28.9388 13.8563 28.9205C12.4914 28.9114 11.5393 28.3005 11 27.0879Z" fill="white"/>
<circle cx="20" cy="20" r="19.5" stroke="black" stroke-opacity="0.05"/>
</svg>
