<svg width="40" height="40" viewBox="0 0 40 40" fill="none" xmlns="http://www.w3.org/2000/svg">
<circle cx="20" cy="20" r="20" fill="#1E1E23"/>
<g clip-path="url(#clip0_18553_55663)">
<path d="M14.3935 13.8032H15.9551C16.5594 13.8861 17.1297 14.039 17.6729 14.2684C19.2209 14.9248 19.9474 16.1801 20.0832 17.7413C20.0832 17.7796 20.0696 17.805 20.0221 17.805H16.9804C16.926 17.805 16.8989 17.7796 16.8989 17.7286C16.8853 17.1614 16.6409 16.7409 16.1656 16.4669C15.6971 16.1992 15.1404 16.1482 14.4818 16.3203C14.0133 16.4414 13.6806 16.7536 13.477 17.2634C13.4294 17.3845 13.4905 17.4737 13.4294 17.5948C13.4091 17.633 13.4023 17.6712 13.4159 17.7095C13.4837 18.0281 13.5992 18.2511 13.7553 18.3722C14.0473 18.5952 14.4818 18.8119 15.0589 19.0094C15.9008 19.3089 16.7359 19.6148 17.5643 19.9334C18.2704 20.2074 18.8814 20.5897 19.3974 21.0995C18.7592 21.8578 18.1278 22.6161 17.5099 23.3745C17.4353 23.4637 17.3674 23.4892 17.2519 23.5146C17.1501 23.0367 16.8785 22.6671 16.444 22.4186C16.0298 22.1765 15.5749 21.9725 15.0793 21.8069C14.4411 21.5902 13.8232 21.3735 13.219 21.1633C12.7641 21.004 12.3092 20.7873 11.8611 20.5069C10.8766 19.8952 10.3266 19.0094 10.2995 17.8624C10.2927 17.4418 10.3402 17.0085 10.4624 16.5752C10.6933 15.7149 11.2025 15.0458 11.9833 14.5743C12.6894 14.1473 13.4905 13.8924 14.3935 13.8032Z" fill="#47B73A"/>
<path d="M25.0947 14.2427L20.9735 19.1494L20.9531 14.3128C20.9531 14.2745 20.9803 14.249 21.021 14.249H25.0879L25.0947 14.2427Z" fill="#47B73A"/>
<path d="M25.0939 14.2427H25.4401C25.4197 14.3191 25.4062 14.3637 25.3926 14.3892C23.9872 16.4794 22.5953 18.5695 21.1967 20.666C21.088 20.8317 21.0133 20.8444 21.0066 21.0802C20.9726 21.9213 20.993 22.7179 21.0609 23.4571L20.9658 24.2536V19.1494L25.0939 14.2427Z" fill="#4699D2"/>
<path d="M25.8077 14.2494C25.9978 14.243 26.1743 14.2239 26.3508 14.2876C26.4866 14.3386 26.6224 14.3131 26.765 14.3386C28.0686 14.5553 29.1753 15.1734 29.8542 16.2121C30.4585 17.1361 30.8251 18.1747 30.9541 19.3345C31.0899 20.5707 31.0696 21.6413 30.8998 22.5398C30.6554 23.8334 30.1055 24.9103 29.2364 25.7706C28.4692 26.5289 27.1588 27.1534 25.9299 27.2107C25.6379 27.2234 25.346 27.2681 25.054 27.2681C23.764 27.2681 22.4401 27.2681 21.089 27.2681C21.0143 27.2681 20.96 27.2107 20.96 27.147L20.9735 24.2476L21.0686 23.451L23.9813 17.8179V24.7701C23.9813 24.8211 24.0288 24.8593 24.0831 24.8593C24.5788 24.8402 25.088 24.8402 25.604 24.8529C25.9367 24.8593 26.2694 24.7319 26.541 24.5471C27.3829 23.9736 27.8649 23.0942 27.9803 21.9089C28.1093 20.5899 28.0211 19.4556 27.7155 18.5061C27.4983 17.8561 27.1113 17.3209 26.5477 16.9003C26.3644 16.7665 26.1404 16.6772 25.8756 16.6454C25.4546 16.5944 25.0269 16.5944 24.5856 16.6454L25.8213 14.243L25.8077 14.2494Z" fill="#47B73A"/>
<path d="M19.3981 21.125C19.7172 21.4691 19.9548 21.8578 20.1178 22.2975L16.5058 27.714C16.4514 27.7522 16.37 27.7713 16.2613 27.7713C16.0373 27.765 15.8607 27.7713 15.725 27.8032H15.1478L13.9189 27.6821L15.8607 25.3435C16.4854 25.2224 16.9267 24.891 17.1847 24.3367C17.2594 24.1773 17.2187 24.0372 17.3137 23.8906C17.3409 23.8524 17.3409 23.8141 17.3137 23.7759C17.273 23.7058 17.2526 23.6293 17.2526 23.5465C17.3612 23.521 17.4359 23.4955 17.5106 23.4063C18.1285 22.648 18.7599 21.8897 19.3981 21.1314V21.125Z" fill="#4699D2"/>
<path d="M20.1179 22.2656C20.179 22.4441 20.2265 22.6288 20.2673 22.8073C20.308 22.973 20.3284 23.1578 20.3284 23.3617C20.3284 23.7185 20.3487 24.0881 20.2808 24.4258C20.1518 25.0822 19.8803 25.6557 19.4593 26.1464C18.7396 26.9875 17.7551 27.4973 16.5059 27.6821L20.1179 22.2656Z" fill="#D82530"/>
<path d="M25.4402 14.2495H25.8068L24.5711 16.6519L23.9736 17.8244L20.993 23.8144C20.993 23.0497 21.0134 22.0237 20.9727 21.1507C20.9794 20.915 21.0949 20.8321 21.2035 20.6664C22.5954 18.5699 23.994 16.4798 25.3994 14.3897C25.413 14.3642 25.4334 14.3196 25.447 14.2495H25.4402Z" fill="#D82530"/>
<path d="M15.8674 25.3055L13.9256 27.6441C12.9003 27.4529 11.7257 26.9559 11.0807 26.1657C10.524 25.4775 10.1709 24.6874 10.0352 23.7825V23.3364H12.9547C12.9954 23.3364 13.0225 23.3555 13.0225 23.3938C13.1448 24.3687 13.6676 24.9805 14.5773 25.229C14.9847 25.3373 15.4192 25.2991 15.8606 25.3055H15.8674Z" fill="#47B73A"/>
</g>
<circle cx="20" cy="20" r="19.5" stroke="black" stroke-opacity="0.05"/>
<defs>
<clipPath id="clip0_18553_55663">
<rect width="21" height="14" fill="white" transform="translate(10.0352 13.8032)"/>
</clipPath>
</defs>
</svg>
