<svg width="40" height="40" viewBox="0 0 40 40" fill="none" xmlns="http://www.w3.org/2000/svg">
<circle cx="20" cy="20" r="20" fill="#18448E"/>
<path d="M6.28061 16H6.60011C7.17959 16.0975 7.57443 16.4016 7.78463 16.9124C8.08016 17.6317 7.7079 18.4823 7.00115 18.7755C5.70933 19.3108 4.54759 17.956 5.16443 16.7517C5.37983 16.3305 5.75189 16.0799 6.28061 16Z" fill="#0098DD"/>
<path d="M9.92837 21.347H9.24919C9.24709 21.3474 9.24495 21.3472 9.24294 21.3465C9.24093 21.3458 9.23911 21.3447 9.23764 21.3432C9.23616 21.3416 9.23508 21.3398 9.23449 21.3377C9.23389 21.3357 9.23379 21.3335 9.2342 21.3315L9.26058 20.8375C9.26088 20.8324 9.26308 20.8276 9.26674 20.8241C9.2704 20.8205 9.27526 20.8185 9.28036 20.8183H10.4085C10.6903 20.8183 10.8833 20.9184 10.8683 21.2379C10.8459 21.7279 10.8208 22.2121 10.7928 22.6904C10.782 22.8816 10.6357 22.9865 10.4655 23.0285C9.8989 23.1632 9.3128 23.1955 8.73486 23.1238C7.78293 23.0135 6.97307 22.3955 6.91912 21.3836C6.87276 20.508 7.22164 19.8414 7.96576 19.3838C8.33022 19.1646 8.74494 19.0428 9.17006 19.0302C9.52978 19.0132 9.89022 19.0198 10.2491 19.0499C10.5784 19.0779 10.7446 19.2578 10.7478 19.5894C10.7487 19.5952 10.7483 19.6012 10.7465 19.6068C10.7447 19.6124 10.7416 19.6174 10.7374 19.6216C10.7332 19.6257 10.7282 19.6289 10.7226 19.6307C10.717 19.6325 10.7111 19.6329 10.7053 19.632C10.2733 19.6288 9.85204 19.6288 9.44162 19.632C8.62636 19.6374 8.10783 20.1817 8.0341 20.955C7.922 22.1251 8.75824 22.7791 9.87682 22.5561C9.88625 22.5551 9.89492 22.5505 9.90105 22.5432C9.90718 22.536 9.91031 22.5267 9.90979 22.5172L9.96074 21.3782C9.96114 21.3574 9.95035 21.347 9.92837 21.347Z" fill="white"/>
<path d="M24.098 21.5299C23.89 22.4489 23.0508 23.176 22.0917 23.1485C21.8747 23.1425 21.6493 23.1634 21.4323 23.1215C21.1689 23.0764 20.9191 22.9728 20.7012 22.8182C20.4833 22.6636 20.3029 22.462 20.1734 22.2283C19.7898 21.5689 19.8473 20.629 20.2334 20.0169C20.6296 19.3881 21.2411 19.029 21.976 19.02C22.1462 19.02 22.3039 19.02 22.4483 19.0302C22.6877 19.0412 22.9221 19.1018 23.1368 19.2081C23.3516 19.3144 23.5419 19.464 23.6958 19.6476C24.1466 20.1692 24.2479 20.8687 24.098 21.5299ZM21.5558 19.6327C20.8718 20.2453 20.822 21.6756 21.334 22.3943C21.3979 22.4902 21.483 22.5702 21.5826 22.6281C21.6823 22.6859 21.7939 22.7202 21.9088 22.7282C22.2286 22.7542 22.4825 22.6523 22.6707 22.4225C23.2204 21.7445 23.2792 20.4317 22.7427 19.7448C22.6676 19.6466 22.5699 19.5681 22.4579 19.5159C22.3459 19.4637 22.2229 19.4394 22.0995 19.445C21.9011 19.4374 21.7072 19.5043 21.5558 19.6327Z" fill="white"/>
<path d="M12.6161 22.5023H14.6296C14.6386 22.5023 14.6434 22.5065 14.6428 22.5155L14.6152 23.0514C14.6154 23.0534 14.6152 23.0554 14.6145 23.0572C14.6138 23.0591 14.6127 23.0608 14.6113 23.0622C14.6098 23.0636 14.6081 23.0646 14.6062 23.0652C14.6043 23.0659 14.6022 23.066 14.6003 23.0658C13.7211 23.0658 12.8183 23.0658 11.8919 23.0658C11.6521 23.0658 11.5113 22.8937 11.5221 22.6623C11.5828 21.3859 11.6428 20.2002 11.7019 19.1052C11.7022 19.0989 11.7049 19.0929 11.7095 19.0886C11.7141 19.0842 11.7202 19.0818 11.7265 19.0818C12.652 19.0818 13.5029 19.0818 14.2789 19.0818C14.5571 19.0818 14.8382 19.2802 14.7387 19.5961C14.7363 19.6059 14.7306 19.6145 14.7225 19.6204C14.7143 19.6263 14.7044 19.6292 14.6944 19.6285H12.7467C12.7431 19.6279 12.7393 19.6282 12.7358 19.6293C12.7322 19.6304 12.729 19.6323 12.7263 19.6348C12.7236 19.6374 12.7215 19.6405 12.7201 19.644C12.7188 19.6474 12.7183 19.6512 12.7186 19.6549L12.6586 20.8706C12.6583 20.8781 12.6609 20.8855 12.666 20.8911C12.671 20.8967 12.6781 20.9001 12.6856 20.9005H14.1962C14.2198 20.898 14.2436 20.9004 14.2661 20.9075C14.2887 20.9146 14.3096 20.9263 14.3275 20.9418C14.3454 20.9574 14.3599 20.9764 14.3701 20.9977C14.3803 21.0191 14.386 21.0423 14.3868 21.066C14.4018 21.1733 14.4102 21.235 14.4126 21.2512C14.4276 21.3567 14.3874 21.4095 14.2927 21.4089C13.7732 21.4049 13.2305 21.4049 12.6646 21.4089C12.6607 21.4084 12.6568 21.4088 12.6531 21.4101C12.6494 21.4113 12.646 21.4133 12.6431 21.416C12.6403 21.4187 12.638 21.422 12.6366 21.4256C12.6351 21.4292 12.6344 21.4331 12.6346 21.437L12.5819 22.4663C12.5811 22.471 12.5815 22.4759 12.5829 22.4805C12.5843 22.4851 12.5868 22.4893 12.5901 22.4927C12.5934 22.4962 12.5974 22.4989 12.602 22.5006C12.6065 22.5022 12.6113 22.5028 12.6161 22.5023Z" fill="white"/>
<path d="M18.2664 21.9268L18.4054 19.1171C18.4051 19.1119 18.406 19.1066 18.4079 19.1017C18.4099 19.0969 18.4129 19.0925 18.4167 19.0889C18.4205 19.0853 18.4251 19.0825 18.4301 19.0809C18.4351 19.0793 18.4404 19.0787 18.4456 19.0794H19.3412C19.3586 19.0794 19.3664 19.0877 19.3652 19.1045L19.1703 23.0268C19.1708 23.0318 19.1701 23.0369 19.1684 23.0417C19.1667 23.0465 19.1639 23.0509 19.1603 23.0545C19.1567 23.0581 19.1524 23.0608 19.1476 23.0626C19.1428 23.0643 19.1377 23.065 19.1326 23.0645C18.9128 23.0732 18.6926 23.0698 18.4732 23.0543C18.1735 23.0309 18.032 22.8595 17.8821 22.5963C17.397 21.7463 16.8974 20.8745 16.3835 19.9809C16.3649 19.9492 16.3553 19.9516 16.3535 19.9881L16.2216 23.0453C16.2216 23.0487 16.2208 23.052 16.2194 23.0551C16.2181 23.0581 16.2161 23.0609 16.2136 23.0632C16.2112 23.0655 16.2083 23.0672 16.2051 23.0684C16.202 23.0696 16.1986 23.0701 16.1953 23.0699C16.0754 23.0659 15.9441 23.0659 15.8014 23.0699C15.4501 23.0801 15.2931 22.8709 15.3087 22.54C15.3638 21.3635 15.4154 20.2193 15.4633 19.1075C15.463 19.1039 15.4636 19.1002 15.4649 19.0968C15.4662 19.0934 15.4682 19.0903 15.4708 19.0878C15.4735 19.0852 15.4767 19.0833 15.4801 19.0822C15.4836 19.0811 15.4873 19.0807 15.4909 19.0812H16.6113C16.6217 19.0807 16.632 19.0832 16.6411 19.0884C16.6501 19.0936 16.6574 19.1013 16.6622 19.1105L18.2298 21.9345C18.252 21.9753 18.264 21.9729 18.2664 21.9268Z" fill="white"/>
<path d="M30.4693 19.833L28.9604 23.0437C28.9574 23.0511 28.9522 23.0574 28.9454 23.0617C28.9386 23.066 28.9307 23.0681 28.9227 23.0676C28.6745 23.0628 28.3232 23.0952 28.3394 22.7254C28.3406 22.6668 28.3536 22.6091 28.3778 22.5557C28.8993 21.4391 29.4036 20.3651 29.8908 19.3336C29.9247 19.2558 29.9814 19.19 30.0534 19.1451C30.1254 19.1001 30.2094 19.0781 30.2942 19.0819C30.6259 19.0795 30.9322 19.0795 31.2132 19.0819C31.223 19.0811 31.2327 19.0838 31.2407 19.0895C31.2487 19.0952 31.2544 19.1036 31.2569 19.113L32.6309 23.0287C32.6405 23.0551 32.6309 23.0682 32.6027 23.0682H31.6766C31.6656 23.0689 31.6548 23.0659 31.6458 23.0595C31.6369 23.0532 31.6304 23.044 31.6274 23.0335L31.2492 21.9545C31.2465 21.9466 31.2414 21.9397 31.2346 21.9348C31.2279 21.93 31.2197 21.9274 31.2114 21.9275H29.9447C29.7893 21.9275 29.7475 21.8585 29.8195 21.7207C29.8296 21.7009 29.8476 21.6673 29.8722 21.6194C29.8999 21.5606 29.9443 21.5113 29.9999 21.4776C30.0554 21.444 30.1196 21.4274 30.1845 21.4299H31.0441C31.0478 21.4299 31.0513 21.4285 31.0539 21.4259C31.0565 21.4233 31.0579 21.4198 31.0579 21.4161C31.0582 21.4146 31.0582 21.4129 31.0579 21.4114L30.5058 19.8366C30.495 19.8042 30.4831 19.8036 30.4693 19.833Z" fill="white"/>
<path d="M34.2446 20.6679C34.2457 20.6696 34.2471 20.6711 34.2488 20.6723C34.2505 20.6735 34.2524 20.6743 34.2544 20.6747C34.2564 20.6752 34.2585 20.6752 34.2605 20.6749C34.2625 20.6745 34.2645 20.6738 34.2662 20.6727C34.2681 20.6714 34.2697 20.6698 34.271 20.6679C34.5671 20.1747 34.8487 19.7061 35.1156 19.2621C35.149 19.2039 35.1981 19.1563 35.2572 19.1245C35.3163 19.0927 35.3831 19.0781 35.4501 19.0823C35.609 19.0823 35.7696 19.0823 35.9333 19.0823C35.9638 19.0823 35.971 19.0949 35.9549 19.1207C35.4753 19.8924 35.0069 20.6445 34.5497 21.377C34.5162 21.4312 34.4974 21.4932 34.4952 21.5569C34.4748 22.0496 34.4528 22.5443 34.4292 23.0411C34.4295 23.0451 34.4289 23.0492 34.4275 23.053C34.426 23.0567 34.4238 23.0601 34.4208 23.063C34.4179 23.0658 34.4144 23.0679 34.4106 23.0692C34.4068 23.0705 34.4027 23.0709 34.3987 23.0705H33.5163C33.511 23.0703 33.5059 23.0681 33.5023 23.0643C33.4986 23.0605 33.4965 23.0554 33.4965 23.0501L33.5762 21.395C33.5774 21.3722 33.5715 21.3496 33.5594 21.3303C33.2038 20.7624 32.8277 20.1565 32.4313 19.5127C32.294 19.2891 32.4097 19.0871 32.6711 19.0829C32.8709 19.0801 33.0493 19.0801 33.2064 19.0829C33.2161 19.0831 33.2257 19.0856 33.2343 19.0903C33.2429 19.095 33.2501 19.1017 33.2555 19.1099L34.2446 20.6679Z" fill="white"/>
<path d="M25.8429 19.5523L25.6697 23.0447C25.67 23.0479 25.6695 23.0511 25.6684 23.0541C25.6673 23.0571 25.6655 23.0597 25.6632 23.0619C25.6609 23.0641 25.6581 23.0658 25.6551 23.0667C25.6521 23.0677 25.6488 23.068 25.6457 23.0675C25.4994 23.0639 25.341 23.0639 25.1703 23.0675C24.8958 23.0735 24.6967 22.9548 24.7117 22.6545C24.7701 21.4735 24.8286 20.2958 24.8874 19.1213C24.8869 19.1158 24.8876 19.1103 24.8895 19.1051C24.8915 19.1 24.8945 19.0953 24.8985 19.0915C24.9025 19.0877 24.9073 19.0849 24.9125 19.0832C24.9177 19.0815 24.9233 19.081 24.9287 19.0817C25.5006 19.0877 26.1334 19.0877 26.8272 19.0817C27.0234 19.0737 27.2191 19.1072 27.4015 19.18C27.7749 19.3437 28.0573 19.6866 28.0831 20.1026C28.1238 20.762 27.6586 21.1948 27.007 21.2368C27.0012 21.2372 26.9958 21.2399 26.9919 21.2442C26.988 21.2486 26.9859 21.2543 26.9861 21.2601C26.9865 21.2633 26.9875 21.2663 26.9891 21.2691L27.9889 23.0423C27.9909 23.046 27.9914 23.0503 27.9903 23.0543C27.9892 23.0583 27.9865 23.0618 27.9829 23.0639C27.9804 23.0645 27.9777 23.0645 27.9752 23.0639H27.094C27.0869 23.0638 27.08 23.0618 27.074 23.0581C27.0679 23.0544 27.063 23.0492 27.0598 23.0429C26.7377 22.4379 26.4062 21.8184 26.0653 21.1846C26.0006 21.0647 26.0461 20.9136 26.1954 20.9011C26.315 20.8909 26.4351 20.8887 26.555 20.8945C27.438 20.9328 27.4578 19.4959 26.5682 19.5115C26.3141 19.5155 26.0869 19.5155 25.8867 19.5115C25.881 19.5106 25.8751 19.511 25.8696 19.5126C25.8641 19.5143 25.859 19.5172 25.8548 19.5212C25.8505 19.5251 25.8473 19.5299 25.8452 19.5353C25.8432 19.5407 25.8424 19.5465 25.8429 19.5523Z" fill="white"/>
<path d="M3.96289 20.2922V20.0333C4.03682 19.6288 4.25123 19.3533 4.6061 19.2066C5.27509 18.9315 6.08256 19.4662 6.01542 20.2215C5.90392 21.4671 4.18709 21.5265 3.96289 20.2922Z" fill="#72AE2D"/>
<circle cx="20" cy="20" r="19.5" stroke="black" stroke-opacity="0.05"/>
</svg>
