<svg width="40" height="40" viewBox="0 0 40 40" fill="none" xmlns="http://www.w3.org/2000/svg">
<circle cx="20" cy="20" r="20" fill="#ED1B22"/>
<path d="M23.5408 10.6251L31.9779 27.5225C32.0031 27.5731 32.0072 27.6317 31.9893 27.6854C31.9714 27.7391 31.933 27.7835 31.8824 27.809C31.8531 27.8247 31.8202 27.8326 31.7869 27.832H30.4433C30.4031 27.8322 30.3637 27.8211 30.3294 27.8002C30.2951 27.7793 30.2673 27.7493 30.249 27.7135L21.7724 10.8293C21.7472 10.7786 21.7431 10.72 21.761 10.6664C21.7789 10.6127 21.8173 10.5682 21.8679 10.5428C21.8952 10.5201 21.9282 10.5053 21.9634 10.5H23.3498C23.3903 10.5003 23.4299 10.5123 23.4637 10.5345C23.4976 10.5567 23.5244 10.5881 23.5408 10.6251Z" fill="white"/>
<path d="M20.1323 10.7438L28.4575 27.5917C28.4722 27.6204 28.4793 27.6524 28.478 27.6846C28.4768 27.7168 28.4673 27.7482 28.4504 27.7756C28.4335 27.8031 28.4098 27.8257 28.3817 27.8414C28.3535 27.8571 28.3218 27.8652 28.2895 27.8651H27.0809C27.0454 27.8652 27.0106 27.8553 26.9803 27.8367C26.9501 27.8181 26.9256 27.7914 26.9097 27.7597L18.466 10.8986C18.4513 10.8699 18.4442 10.8379 18.4455 10.8057C18.4467 10.7735 18.4562 10.7421 18.4731 10.7147C18.49 10.6872 18.5136 10.6646 18.5418 10.6489C18.57 10.6332 18.6017 10.6251 18.6339 10.6252L19.9512 10.6417C19.9881 10.639 20.025 10.6472 20.0572 10.6654C20.0894 10.6836 20.1156 10.7108 20.1323 10.7438Z" fill="white"/>
<path d="M8.01318 27.7759L16.4767 10.8292C16.484 10.8145 16.4942 10.8014 16.5066 10.7906C16.519 10.7799 16.5334 10.7716 16.549 10.7664C16.5646 10.7612 16.5811 10.7592 16.5975 10.7603C16.6139 10.7615 16.6299 10.7659 16.6446 10.7732C16.6679 10.7866 16.6872 10.8059 16.7006 10.8292L25.1641 27.7628C25.1753 27.7792 25.1824 27.798 25.1849 27.8176C25.1874 27.8373 25.1852 27.8573 25.1784 27.876C25.1717 27.8946 25.1606 27.9114 25.1461 27.925C25.1315 27.9385 25.114 27.9484 25.0949 27.9538C25.0766 27.9587 25.0573 27.9587 25.0389 27.9538H8.12514C8.10871 27.9538 8.09244 27.9505 8.07725 27.9443C8.06207 27.938 8.04828 27.9287 8.03666 27.9171C8.01319 27.8937 8 27.8618 8 27.8286C7.99986 27.8102 8.0044 27.7921 8.01318 27.7759ZM10.7037 25.889C10.6907 25.9126 10.6876 25.9403 10.695 25.9663C10.7024 25.9922 10.7197 26.0141 10.7432 26.0273C10.7604 26.0322 10.7787 26.0322 10.7959 26.0273L22.3221 26.0668C22.3491 26.0668 22.3751 26.056 22.3942 26.0369C22.4134 26.0177 22.4241 25.9918 22.4241 25.9647C22.4275 25.9495 22.4275 25.9338 22.4241 25.9186L16.6841 14.5341C16.6721 14.5103 16.6514 14.4919 16.6263 14.4828C16.6013 14.4736 16.5737 14.4743 16.5491 14.4847C16.5273 14.4948 16.5099 14.5123 16.4997 14.5341L10.7037 25.889Z" fill="white"/>
<circle cx="20" cy="20" r="19.5" stroke="black" stroke-opacity="0.05"/>
</svg>
