<svg width="40" height="40" viewBox="0 0 40 40" fill="none" xmlns="http://www.w3.org/2000/svg">
<circle cx="20" cy="20" r="20" fill="#F6F8FA"/>
<path fill-rule="evenodd" clip-rule="evenodd" d="M28.7997 16.7857C28.7997 16.7857 28.7997 16.7857 28.7997 16.7857L25.892 20.4247C25.8777 20.4425 25.8699 20.4646 25.8699 20.4875C25.8699 20.5103 25.8777 20.5326 25.892 20.5506L29.4888 25.0569C29.4936 25.0632 29.4965 25.0706 29.4973 25.0784C29.4981 25.0862 29.4967 25.0941 29.4933 25.1011C29.4898 25.1082 29.4845 25.1142 29.4779 25.1184C29.4712 25.1226 29.4636 25.1248 29.4557 25.1249C28.4604 25.1225 27.4517 25.1225 26.4294 25.1249C26.1207 25.1249 25.8828 25.0009 25.6899 24.7537C25.1374 24.0494 24.6091 23.3861 24.1051 22.7638C24.1004 22.758 24.0945 22.7534 24.0879 22.7502C24.0812 22.747 24.0739 22.7454 24.0665 22.7454C24.0591 22.7454 24.0518 22.747 24.0451 22.7502C24.0384 22.7534 24.0326 22.758 24.0279 22.7638C23.5906 23.3132 23.1511 23.8647 22.7095 24.4184C22.6878 24.4456 22.6668 24.4722 22.6463 24.498C22.3346 24.8913 22.1486 25.1259 21.6512 25.1267C21.6259 25.1267 21.601 25.121 21.5782 25.11C21.5555 25.0991 21.5355 25.0831 21.5198 25.0634L20.1114 23.3012C20.0912 23.2761 20.0912 23.2507 20.1114 23.225L22.2566 20.535C22.2673 20.5214 22.2732 20.5045 22.2732 20.4872C22.2732 20.4699 22.2673 20.453 22.2566 20.4394L18.6515 15.9212C18.6463 15.9148 18.6429 15.9071 18.6419 15.8989C18.6409 15.8907 18.6423 15.8823 18.6459 15.8749C18.6494 15.8674 18.6551 15.8612 18.6621 15.8568C18.6691 15.8525 18.6773 15.8503 18.6855 15.8504C19.7525 15.851 20.7759 15.8532 21.7559 15.8569C22.015 15.8581 22.2297 15.964 22.3999 16.1747C22.9891 16.9048 23.5324 17.5862 24.0297 18.2189C24.0344 18.2246 24.0403 18.2293 24.0469 18.2325C24.0536 18.2357 24.0609 18.2373 24.0683 18.2373C24.0757 18.2373 24.083 18.2357 24.0897 18.2325C24.0964 18.2293 24.1023 18.2246 24.1069 18.2189L26.728 14.9253C26.728 14.9253 26.728 14.9253 26.728 14.9253C27.2119 14.3097 27.7015 13.6979 28.197 13.0897C28.374 12.8716 28.6059 12.762 28.8925 12.7608C29.9086 12.7565 30.9186 12.7602 31.9224 12.7718C31.9291 12.772 31.9355 12.774 31.9411 12.7776C31.9467 12.7812 31.9512 12.7863 31.9541 12.7922C31.9569 12.7981 31.9581 12.8047 31.9573 12.8111C31.9566 12.8176 31.9541 12.8237 31.95 12.8288L28.7997 16.7857Z" fill="url(#paint0_linear_18066_46916)"/>
<path d="M12.5075 21.5061C12.5073 21.5129 12.5093 21.5196 12.5132 21.5252C12.5171 21.5309 12.5226 21.5351 12.5291 21.5374C12.5355 21.5396 12.5425 21.5398 12.549 21.5378C12.5556 21.5358 12.5613 21.5317 12.5654 21.5263C13.9466 19.793 15.3504 18.0309 16.7768 16.24C16.9342 16.0427 17.1305 15.9193 17.3657 15.8697C17.5063 15.8394 17.6671 15.8284 17.7644 15.9524C18.206 16.511 18.6562 17.076 19.115 17.6474C19.1278 17.6634 19.1348 17.6832 19.1348 17.7037C19.1348 17.7243 19.1278 17.7443 19.115 17.7604L16.9863 20.4339C16.9748 20.4486 16.9686 20.4666 16.9686 20.4851C16.9686 20.5036 16.9748 20.5215 16.9863 20.5359L20.5923 25.0505C20.598 25.0577 20.6016 25.0664 20.6026 25.0755C20.6036 25.0847 20.602 25.0939 20.5979 25.1022C20.5939 25.1105 20.5876 25.1174 20.5798 25.1222C20.5719 25.1271 20.5629 25.1296 20.5537 25.1295C19.5866 25.1197 18.5953 25.1182 17.5798 25.1249C17.2576 25.1274 17.0053 25.0125 16.8228 24.7804C16.277 24.0877 15.7408 23.4143 15.2141 22.7601C15.2089 22.7536 15.2024 22.7484 15.1949 22.7448C15.1874 22.7411 15.1792 22.7393 15.1709 22.7393C15.1626 22.7393 15.1544 22.7411 15.1469 22.7448C15.1394 22.7484 15.1329 22.7536 15.1277 22.7601C14.5936 23.4345 14.0571 24.1079 13.5181 24.7804C13.3417 25.0003 13.1301 25.1117 12.8833 25.1148C12.1214 25.1246 11.2826 25.1271 10.3669 25.1222C10.0545 25.1203 9.82854 24.9981 9.68889 24.7556C9.60988 24.6184 9.57068 24.3994 9.5713 24.0987C9.57742 21.3432 9.57865 18.6035 9.57497 15.8798C9.57497 15.8728 9.57778 15.866 9.58277 15.861C9.58777 15.856 9.59455 15.8532 9.60161 15.8532L12.4202 15.8541C12.4784 15.8541 12.5075 15.8829 12.5075 15.9405V21.5061Z" fill="#C81523"/>
<circle cx="20" cy="20" r="19.5" stroke="black" stroke-opacity="0.05"/>
<defs>
<linearGradient id="paint0_linear_18066_46916" x1="29.7217" y1="13.4023" x2="20.7528" y2="24.4987" gradientUnits="userSpaceOnUse">
<stop offset="0.146246" stop-color="#EF9B03"/>
<stop offset="0.432045" stop-color="#C81523"/>
<stop offset="1" stop-color="#C81523"/>
</linearGradient>
</defs>
</svg>
