<svg width="40" height="40" viewBox="0 0 40 40" fill="none" xmlns="http://www.w3.org/2000/svg">
<circle cx="20" cy="20" r="20" fill="#F6F8FA"/>
<g clip-path="url(#clip0_18695_29285)">
<path d="M12.0711 16.6405C13.1956 16.6405 14.1071 15.7429 14.1071 14.6357C14.1071 13.5285 13.1956 12.6309 12.0711 12.6309C10.9467 12.6309 10.0352 13.5285 10.0352 14.6357C10.0352 15.7429 10.9467 16.6405 12.0711 16.6405Z" fill="#CA0019"/>
<path d="M21.139 25.5537C21.1717 25.4893 21.2617 25.5376 21.3925 25.7147C21.4579 25.8033 21.5806 25.8194 21.6787 25.763C21.834 25.6664 21.9812 25.4973 22.0712 25.3363C22.3982 24.7324 22.6517 24.1125 22.8479 23.4684L23.821 20.4088C23.8537 20.3444 23.8782 20.2799 23.9027 20.2075C24.5569 18.259 25.1946 16.3347 25.8242 14.4265C25.9959 13.9031 26.1595 13.5489 26.2985 13.3798C27.2797 12.2204 29.2502 12.3975 29.8798 13.8065C30.0679 14.2252 30.0843 14.6761 29.9289 15.1511C28.8414 18.412 27.713 21.7936 26.5601 25.3122C26.3721 25.8838 26.1922 26.2864 26.0287 26.5199C25.3827 27.4458 24.1317 27.8081 23.036 27.5183C22.0548 27.2606 21.4252 26.6004 21.1309 25.5376L21.139 25.5537Z" fill="#053653"/>
<path d="M23.7716 20.2959C23.7553 20.3361 23.7307 20.3603 23.698 20.3603C23.6817 20.3603 23.6735 20.3522 23.6735 20.3281C23.6735 20.32 23.6735 20.312 23.6735 20.3039C23.6735 20.2798 23.6735 20.2637 23.6653 20.2395C23.5754 19.9899 23.4854 19.7403 23.3792 19.4827C23.232 19.1123 22.9867 18.7822 22.6351 18.5004C22.1527 18.1139 21.5721 18.597 21.3105 18.9835C20.6727 19.9175 20.2966 21.1332 20.0186 22.2282C19.6751 23.2508 19.3317 24.2733 18.9965 25.2959C18.7921 25.9239 18.6122 26.3426 18.4487 26.56C17.3775 28.0092 15.1044 27.969 14.0496 26.5761C13.8861 26.3587 13.7226 26.0044 13.559 25.5052C13.0276 23.911 12.4961 22.2846 11.9482 20.6501C12.0791 20.7226 12.1854 20.8273 12.2753 20.9641C12.4061 21.1654 12.4879 21.2862 12.5288 21.3265C12.9867 21.8337 13.5427 22.2846 14.1396 22.3732C14.8836 22.4859 15.4478 22.1638 15.8403 21.415C16.0366 21.1252 16.1674 20.8273 16.241 20.5133C16.6007 19.4505 16.9442 18.4038 17.2876 17.3651C17.492 16.7451 17.68 16.3265 17.8436 16.1252C18.9556 14.7323 21.2042 14.7323 22.2508 16.2137C22.3898 16.407 22.5451 16.7693 22.7332 17.2846C23.0439 18.1703 23.3546 19.064 23.6572 19.9497C23.698 20.0624 23.7307 20.1751 23.7635 20.2798L23.7716 20.2959Z" fill="#053653"/>
<path d="M16.2005 20.5778C16.0451 20.1109 15.898 19.6519 15.7426 19.201C15.6281 18.8629 15.5137 18.6213 15.4074 18.4683C15.2438 18.2429 15.0394 18.0577 14.7941 17.9289C13.8293 17.4136 12.6191 17.6229 11.9895 18.573C11.8015 18.8548 11.7034 19.1447 11.687 19.4587C11.687 19.4748 11.687 19.4828 11.687 19.4989C11.687 19.4989 11.687 19.515 11.687 19.5231C11.7115 19.9579 11.8015 20.3363 11.9568 20.6584C12.0877 20.7308 12.194 20.8355 12.2839 20.9724C12.4147 21.1737 12.4965 21.2944 12.5374 21.3347C12.9953 21.8419 13.5513 22.2928 14.1482 22.3814C14.8922 22.4941 15.4564 22.172 15.8489 21.4233C16.0124 21.1576 16.1351 20.8758 16.2005 20.5859V20.5778Z" fill="url(#paint0_linear_18695_29285)"/>
<path d="M23.7721 20.296C23.7558 20.3362 23.7312 20.3604 23.6985 20.3604C23.6822 20.3604 23.674 20.3523 23.674 20.3282C23.674 20.3201 23.674 20.3121 23.674 20.304C23.674 20.2799 23.674 20.2638 23.6658 20.2396C23.5759 19.99 23.4859 19.7404 23.3796 19.4828C23.2325 19.1124 22.9872 18.7823 22.6356 18.5005C22.1531 18.114 21.5726 18.5971 21.3109 18.9836C20.6732 19.9176 20.297 21.1333 20.019 22.2283C20.0517 22.2122 20.0681 22.2283 20.0763 22.3008L21.1311 25.5536C21.1638 25.4892 21.2537 25.5375 21.3845 25.7147C21.45 25.8032 21.5726 25.8193 21.6707 25.763C21.8261 25.6663 21.9733 25.4973 22.0632 25.3362C22.3903 24.7324 22.6437 24.1124 22.84 23.4683L23.813 20.4087C23.813 20.4087 23.7721 20.3523 23.7639 20.2879L23.7721 20.296Z" fill="url(#paint1_linear_18695_29285)"/>
</g>
<circle cx="20" cy="20" r="19.5" stroke="black" stroke-opacity="0.05"/>
<defs>
<linearGradient id="paint0_linear_18695_29285" x1="13.9438" y1="22.4055" x2="13.9438" y2="17.6551" gradientUnits="userSpaceOnUse">
<stop stop-color="#1C7CA5"/>
<stop offset="1" stop-color="#CA0019"/>
</linearGradient>
<linearGradient id="paint1_linear_18695_29285" x1="21.9242" y1="25.7952" x2="21.9242" y2="18.3636" gradientUnits="userSpaceOnUse">
<stop stop-color="#1C7CA5"/>
<stop offset="0.32" stop-color="#2278A0"/>
<stop offset="1" stop-color="#CA0019"/>
</linearGradient>
<clipPath id="clip0_18695_29285">
<rect width="20" height="15" fill="white" transform="translate(10.0352 12.6309)"/>
</clipPath>
</defs>
</svg>
