<svg width="40" height="40" viewBox="0 0 40 40" fill="none" xmlns="http://www.w3.org/2000/svg">
<circle cx="20" cy="20" r="20" fill="#00464D"/>
<path d="M18.616 14.5224C19.0465 16.5624 17.8248 18.5655 16.0192 19.3752C15.0546 19.8071 13.8783 19.9079 12.8299 20.0841C12.6926 20.1078 12.613 20.0509 12.5913 19.9136L12.2318 17.6492C12.229 17.632 12.2298 17.6145 12.2339 17.5977C12.2381 17.5808 12.2457 17.565 12.2562 17.5512C12.2667 17.5374 12.2799 17.5258 12.295 17.5173C12.3101 17.5087 12.3268 17.5033 12.3441 17.5014C13.0099 17.4304 13.661 17.33 14.2974 17.2003C14.7482 17.1084 15.1393 16.8541 15.4708 16.4374C16.255 15.4501 15.8089 14.2213 14.7719 13.6772C13.9271 13.2339 13.1192 13.3253 12.3483 13.9513C12.31 13.9823 12.2625 13.9998 12.2132 14.0011C12.1639 14.0024 12.1155 13.9874 12.0756 13.9584L10.0526 12.4853C10.043 12.4783 10.035 12.4693 10.0291 12.4589C10.0233 12.4485 10.0198 12.437 10.0188 12.4251C10.0179 12.4132 10.0195 12.4012 10.0236 12.39C10.0278 12.3789 10.0343 12.3687 10.0427 12.3603C10.9614 11.4473 12.059 10.9496 13.3357 10.8672C15.8345 10.7053 18.0918 12.0392 18.616 14.5224Z" fill="#D47C31"/>
<path d="M25.3559 15.9073C22.4578 19.5876 19.5972 23.2367 16.774 26.8545C16.2522 27.5231 15.8033 27.9853 15.4273 28.241C13.2736 29.7057 10.1597 29.3789 8.49189 27.3531C7.76454 26.4695 7.44443 25.4491 7.53156 24.2917C7.62106 23.0942 8.18646 22.0855 9.13116 21.2772C10.0176 20.5186 11.1721 20.1341 12.5946 20.1237C12.6467 20.1237 12.677 20.1493 12.6855 20.2004L13.0932 22.6524C13.0959 22.6687 13.0947 22.6854 13.0897 22.7011C13.0848 22.7168 13.0761 22.7311 13.0646 22.7428C13.0531 22.7545 13.0389 22.7632 13.0234 22.7682C13.0079 22.7733 12.9914 22.7744 12.9753 22.7717C12.0121 22.6083 10.9396 23.0302 10.5418 23.9181C10.3069 24.4399 10.315 24.9343 10.566 25.4012C11.1768 26.5377 12.6571 26.8985 13.6814 26.103C14.082 25.7919 14.3973 25.3558 14.7212 24.9452C18.0312 20.7544 21.3678 16.5348 24.7308 12.2862C24.75 12.2614 24.778 12.2449 24.8093 12.2399C24.8406 12.2349 24.873 12.2418 24.8999 12.2592L32.3964 17.2413C32.418 17.2558 32.4365 17.2745 32.4506 17.2963C32.4648 17.3182 32.4743 17.3426 32.4787 17.3683C32.4831 17.3939 32.4822 17.4202 32.4761 17.4455C32.47 17.4708 32.4589 17.4946 32.4433 17.5155L31.0099 19.4219C30.9884 19.4503 30.9568 19.4694 30.9216 19.4752C30.8865 19.481 30.8505 19.4731 30.8209 19.4532C29.2564 18.4085 27.7354 17.3819 26.258 16.3733C26.0089 16.2038 25.7475 16.0409 25.4738 15.8846C25.4283 15.8581 25.389 15.8657 25.3559 15.9073Z" fill="white"/>
<circle cx="20" cy="20" r="19.5" stroke="black" stroke-opacity="0.05"/>
</svg>
