<svg width="40" height="40" viewBox="0 0 40 40" fill="none" xmlns="http://www.w3.org/2000/svg">
<circle cx="20" cy="20" r="20" fill="#EEE1DC"/>
<g clip-path="url(#clip0_18553_55562)">
<path d="M12.2578 14.9059C12.593 14.8427 12.846 14.7921 13.0358 14.7668C14.0035 14.634 14.9776 14.6087 15.9581 14.6909C16.0972 14.7035 16.2364 14.7162 16.3692 14.7288C16.5084 14.7415 16.6475 14.7604 16.7803 14.7794C17.0334 14.8237 17.2927 14.8743 17.5457 14.9375C17.9189 15.026 18.2858 15.1462 18.6337 15.2916C19.0638 15.4687 19.5066 15.7343 19.8228 16.0947C20.1454 16.4614 20.2719 16.8725 20.196 17.3341C20.1391 17.6819 19.905 17.9791 19.7216 18.2699C19.399 18.7885 19.2093 19.0983 19.146 19.1932C18.5451 20.1417 17.9505 21.0838 17.3496 22.0324C17.2168 22.2474 17.084 22.456 16.9638 22.6584C16.9638 22.6647 16.9638 22.671 16.9701 22.671C21.6255 22.671 25.7749 22.671 29.412 22.671C29.4373 22.671 29.4626 22.671 29.4879 22.671C29.5005 22.671 29.5069 22.6837 29.5069 22.6963C29.5069 22.6963 29.5069 22.6963 29.5069 22.7026C29.4183 22.9619 29.3171 23.2148 29.2159 23.4614C29.0894 23.7839 28.9439 24.0938 28.7858 24.3847C28.2987 25.2952 27.6978 26.1236 26.9767 26.8634C26.8249 27.0215 26.6668 27.1543 26.515 27.2997C26.4517 27.3567 26.3885 27.4136 26.3316 27.4705C26.0153 27.7361 25.737 27.9511 25.484 28.1218C25.3005 28.2419 25.1171 28.3684 24.9337 28.4822C24.5099 28.7352 24.0671 28.9628 23.618 29.1588C23.4409 29.2347 23.2511 29.3043 23.0677 29.3738C22.8843 29.4434 22.6629 29.5193 22.4099 29.5951C22.2011 29.6584 22.005 29.709 21.8216 29.7469C20.8222 29.9682 19.8228 30.0694 18.7855 29.9872C18.4439 29.9619 18.1656 29.9303 17.9442 29.8987C17.5647 29.8354 17.1219 29.7532 16.7677 29.6584C16.5147 29.5888 16.268 29.5129 16.0213 29.4181C15.8316 29.3485 15.6418 29.2726 15.452 29.1968C14.5285 28.8174 13.6936 28.3241 12.9472 27.7171C12.4665 27.325 12.03 26.9203 11.6442 26.4904C11.2204 26.0224 10.8788 25.5418 10.5183 24.9601C10.2337 24.4922 9.98698 24.0179 9.79089 23.5247C9.72764 23.3603 9.66439 23.2022 9.60113 23.0441C9.46198 22.671 9.33547 22.2347 9.24692 21.849C8.97493 20.6286 8.918 19.4208 9.06981 18.213C9.11408 17.8842 9.17101 17.5617 9.23426 17.2392C9.29752 16.9104 9.40505 16.5247 9.56318 16.0947C9.67704 15.7722 9.80354 15.456 9.93637 15.1588C10.006 14.9944 10.1008 14.8427 10.1767 14.6782C10.2084 14.6087 10.24 14.5455 10.2716 14.4885C10.8978 13.3567 11.7011 12.3702 12.6879 11.5229C12.8397 11.3964 12.9978 11.2699 13.1686 11.1435C13.6367 10.7957 14.0921 10.5048 14.5349 10.2708C14.9523 10.0432 15.4014 9.84085 15.8822 9.66379C16.5843 9.40453 17.318 9.22115 18.0897 9.11998C18.7349 9.03777 19.3168 9.00616 19.8481 9.03145C20.468 9.05674 21.0689 9.13263 21.6382 9.24645C22.005 9.32233 22.4099 9.42983 22.8463 9.57526C23.0297 9.63217 23.1942 9.70805 23.3776 9.77761C23.4409 9.80291 23.5041 9.8282 23.5737 9.85349C24.0038 10.0369 24.4213 10.2519 24.8325 10.4922C25.0032 10.5933 25.174 10.7008 25.3322 10.8083C25.7749 11.1118 26.1102 11.3648 26.3379 11.5671C26.5087 11.7189 26.6731 11.8707 26.8249 12.0224C27.6029 12.7623 28.2418 13.6349 28.7352 14.5518C29.2032 15.4118 29.5385 16.3223 29.7472 17.2772C29.8358 17.6692 29.899 18.1055 29.9433 18.5924C30.0066 19.2817 30.0002 19.9583 29.9243 20.6222C29.899 20.8499 29.8674 21.0838 29.8358 21.3115C29.8358 21.3241 29.8231 21.3305 29.8168 21.3305H27.9761C27.9445 21.3305 27.9255 21.3115 27.9319 21.2799C27.9698 21.0522 28.0014 20.8119 28.0331 20.5717C28.0647 20.3503 28.0837 20.148 28.09 19.9646C28.1343 18.877 27.9951 17.8399 27.6662 16.8598C27.5207 16.4298 27.3373 15.9998 27.1096 15.5635C26.8882 15.1335 26.6162 14.7099 26.2936 14.2925C25.971 13.8752 25.5915 13.4705 25.1361 13.0721C24.9843 12.9393 24.8325 12.8192 24.687 12.7117C24.0102 12.2121 23.3017 11.8201 22.5617 11.5355C22.1126 11.3585 21.6066 11.2193 21.0563 11.1118C20.8285 11.0676 20.6135 11.036 20.4111 11.017C19.7216 10.9474 19.0638 10.9538 18.4313 11.036C18.1529 11.0739 17.8177 11.1308 17.4319 11.2193C17.2168 11.2699 17.0207 11.3205 16.831 11.3838C16.4008 11.5292 16.015 11.6873 15.6797 11.8517C15.2813 12.0477 14.9017 12.2754 14.5475 12.5283C14.3894 12.6421 14.2249 12.7496 14.0794 12.8698C13.8581 13.0595 13.6177 13.2492 13.4153 13.4578C13.2825 13.5969 13.1433 13.7297 13.0168 13.8815C12.7258 14.2293 12.4728 14.5518 12.2261 14.9312C12.2261 14.9375 12.2261 14.9438 12.2325 14.9438L12.2578 14.9059ZM16.5653 16.6448C16.2047 16.5816 15.8442 16.5436 15.49 16.5373C15.0535 16.5247 14.6108 16.5184 14.1617 16.5247C13.9972 16.5247 13.8391 16.5436 13.6683 16.5563C13.4026 16.5753 13.1243 16.6259 12.8587 16.6638C12.7701 16.6764 12.6752 16.6954 12.574 16.7207C12.4728 16.746 12.3716 16.7713 12.2767 16.7903C11.9794 16.8535 11.6885 16.9547 11.4038 17.0558C11.3849 17.0622 11.3849 17.0685 11.4038 17.0811C11.6948 17.2203 11.9731 17.3025 12.321 17.3783C12.4855 17.4163 12.6499 17.4416 12.8017 17.4669C13.896 17.6249 14.9523 17.6566 15.977 17.568C16.5969 17.5111 17.2421 17.3783 17.8999 17.1633C17.9632 17.1444 18.0264 17.1128 18.0834 17.0811C18.096 17.0811 18.096 17.0685 18.0834 17.0622C18.0201 17.0305 17.9569 16.9989 17.8936 16.98C17.5204 16.8535 17.1409 16.7586 16.755 16.6828C16.6918 16.6701 16.6285 16.6638 16.5716 16.6575L16.5653 16.6448ZM13.1496 25.3079C13.3457 25.5355 13.5797 25.7632 13.8391 25.9908C14.1617 26.269 14.5032 26.522 14.8638 26.7559C15.0662 26.8824 15.2686 26.9962 15.4773 27.11C15.7114 27.2428 15.9834 27.3567 16.2364 27.4642C16.5906 27.6159 16.9764 27.7424 17.4066 27.8499C18.0581 28.0143 18.7285 28.0965 19.4306 28.1028C20.3541 28.1155 21.2776 27.97 22.1948 27.6665C22.6186 27.5274 23.0171 27.363 23.4029 27.167C23.7635 26.9836 24.1493 26.7496 24.5541 26.4651C24.8894 26.2311 25.1614 25.9782 25.5156 25.6493C25.6484 25.5229 25.7686 25.3901 25.8888 25.2573C26.1038 25.036 26.2746 24.7894 26.4707 24.5554C26.477 24.5427 26.4707 24.5364 26.4644 24.5364C24.2758 24.5364 22.0873 24.5364 19.8987 24.5364C19.6078 24.5364 19.2915 24.5364 18.9499 24.5364C18.2984 24.5364 17.6279 24.5364 16.9511 24.5364C16.8752 24.5364 16.7993 24.5364 16.7361 24.5364C16.6222 24.5364 16.502 24.5364 16.3692 24.5364C16.23 24.5364 16.1035 24.5427 15.9707 24.5364C15.5532 24.5364 15.1231 24.5364 14.6803 24.5364C14.3578 24.5364 14.0099 24.5364 13.643 24.5364C13.624 24.5364 13.6177 24.5364 13.6114 24.5364C13.5987 24.5238 13.5924 24.5111 13.605 24.4985L16.812 19.3702C16.812 19.3702 16.812 19.3639 16.812 19.3576C16.0023 19.4777 15.1864 19.5283 14.3578 19.5093C14.1553 19.5093 13.9529 19.4967 13.7442 19.4777C13.4722 19.4524 13.2382 19.4271 13.0421 19.3955C12.631 19.3323 12.1882 19.2374 11.7201 19.1046C11.4608 19.0287 11.2014 18.9339 10.9484 18.8454C10.9358 18.8454 10.9294 18.8454 10.9294 18.858C10.9105 19.1236 10.9041 19.3512 10.9041 19.5409C10.9041 19.9456 10.9421 20.3693 11.0053 20.8246C11.1129 21.5707 11.3469 22.3359 11.6822 23.082C11.7328 23.1959 11.7834 23.297 11.834 23.3919C12.1755 24.0432 12.574 24.6313 13.0294 25.1688C13.0737 25.2193 13.1243 25.2573 13.1686 25.3079H13.1496Z" fill="#D9B9AC"/>
</g>
<circle cx="20" cy="20" r="19.5" stroke="black" stroke-opacity="0.05"/>
<defs>
<clipPath id="clip0_18553_55562">
<rect width="21" height="21" fill="white" transform="translate(9 9)"/>
</clipPath>
</defs>
</svg>
