<svg width="40" height="40" viewBox="0 0 40 40" fill="none" xmlns="http://www.w3.org/2000/svg">
<circle cx="20" cy="20" r="20" fill="#F6F8FA"/>
<path d="M19.5077 20.2283C19.7455 20.353 19.983 20.4622 20.2202 20.5559C20.3744 20.6171 20.5139 20.696 20.6386 20.7925C20.6672 20.8146 20.679 20.8078 20.6741 20.7721C20.6715 20.752 20.6623 20.735 20.6464 20.7211C20.233 20.3514 19.7947 20.0303 19.3317 19.7578L18.6027 17.4458C18.5933 17.4157 18.5747 17.4082 18.5468 17.4234C18.5316 17.4315 18.5189 17.4521 18.5089 17.4852C18.3469 18.0266 18.1769 18.5653 17.9991 19.1012L17.9801 19.1109C17.9662 19.1177 17.9519 19.1187 17.9373 19.1138C17.5038 18.9761 17.0594 18.899 16.6042 18.8825C16.4781 18.8779 16.3527 18.8838 16.228 18.9C16.2037 18.9032 16.1732 18.8961 16.1366 18.8786C16.1373 18.8112 16.1522 18.7454 16.1813 18.6813C16.2076 18.6229 16.2306 18.5667 16.2503 18.5126C16.6343 17.4528 17.0202 16.3728 17.4081 15.2728C17.4139 15.2563 17.4255 15.249 17.443 15.2509C17.5091 15.2577 17.573 15.2611 17.6345 15.2611C18.2609 15.2589 18.9542 15.2598 19.7147 15.264C19.7562 15.264 19.7826 15.2841 19.7939 15.3243C19.8979 15.6971 20.0433 16.0465 20.173 16.4217C20.4536 17.2357 20.7281 18.0131 20.9964 18.7542C21.0158 18.8086 21.0241 18.8742 21.0435 18.9238C21.1718 19.253 21.2875 19.571 21.3905 19.8778C21.4249 19.9806 21.4641 19.9825 21.5081 19.8837C21.5942 19.6912 21.6272 19.332 21.4411 19.1765C21.392 19.1352 21.286 19.0468 21.2972 18.9734C21.3008 18.9491 21.3124 18.9444 21.3322 18.9593C21.3618 18.9816 21.3905 19.005 21.4265 19.0166C21.8916 19.1678 22.5438 19.5469 22.6799 20.0518C22.8291 20.604 22.5069 21.073 22.0719 21.4064C21.571 21.7907 21.0127 22.045 20.3971 22.1694C19.2943 22.3925 18.1978 22.1101 17.1981 21.6188C17.1897 21.6146 17.184 21.617 17.1811 21.6261C16.8652 22.6263 16.5211 23.6615 16.1488 24.7318C16.1433 24.748 16.1326 24.753 16.1167 24.7468L16.0861 24.7347C16.0741 24.7301 16.0616 24.7279 16.0486 24.7279L14.1026 24.7274C14.0569 24.7274 14.042 24.706 14.0579 24.6632C14.3252 23.9326 14.5927 23.1833 14.8603 22.4154C14.8837 22.3486 14.9105 22.2822 14.941 22.2161C14.9789 22.1332 15.012 22.0476 15.0402 21.9595C15.1963 21.4712 15.3692 20.9787 15.5587 20.482C15.5769 20.4347 15.6065 20.3966 15.6477 20.3678C16.0864 20.0616 16.5684 19.8863 17.0936 19.8419C17.2838 19.8257 17.478 19.8195 17.6763 19.8234C17.6887 19.8237 17.7009 19.8269 17.7118 19.8329C17.7227 19.8388 17.7319 19.8473 17.7388 19.8577C17.7458 19.868 17.7501 19.8799 17.7515 19.8923C17.7529 19.9047 17.7513 19.9172 17.7468 19.9289C17.6289 20.2318 17.5208 20.5612 17.4226 20.917C17.3993 21.0015 17.3658 21.0885 17.323 21.1653C17.3113 21.1861 17.317 21.1997 17.34 21.2061C17.9731 21.3895 18.6035 21.4498 19.2311 21.3869C19.4066 21.369 19.5728 21.3286 19.7473 21.2863C19.7549 21.2845 19.7621 21.2811 19.7683 21.2764C19.7746 21.2716 19.7797 21.2657 19.7835 21.2588C19.7873 21.2519 19.7897 21.2444 19.7904 21.2365C19.7911 21.2287 19.7901 21.2209 19.7876 21.2134C19.6797 20.899 19.5441 20.5646 19.5077 20.2283Z" fill="#214D9D"/>
<path d="M6.94603 19.0093C6.94642 19.0139 6.9481 19.0182 6.95089 19.0219C6.95368 19.0255 6.95745 19.0282 6.96175 19.0298C6.96606 19.0313 6.97071 19.0316 6.97517 19.0305C6.97962 19.0295 6.98368 19.0272 6.98686 19.0239C8.14132 17.7952 9.29077 16.5705 10.4352 15.3496C10.5363 15.2417 10.6874 15.2572 10.8206 15.2577C11.4411 15.261 12.0689 15.261 12.7039 15.2577C12.8287 15.2571 12.9457 15.2655 13.0548 15.283C13.1184 15.293 13.1226 15.3148 13.0675 15.3481C13.0111 15.3821 12.9612 15.4207 12.9178 15.4638C11.8945 16.4806 10.8977 17.4831 9.92729 18.4713C9.70794 18.6946 9.50105 18.8953 9.30664 19.0735C9.29787 19.0814 9.29237 19.0923 9.2912 19.1041C9.29003 19.1159 9.29329 19.1277 9.30032 19.1372L13.3406 24.6637C13.3711 24.7055 13.3604 24.7264 13.3085 24.7264L10.8658 24.7293C10.8471 24.7295 10.8286 24.7251 10.8119 24.7165C10.7952 24.708 10.7809 24.6955 10.7701 24.6802L7.88649 20.5918C7.88462 20.5892 7.88222 20.587 7.87946 20.5855C7.87669 20.5839 7.87362 20.5829 7.87047 20.5826C7.86732 20.5823 7.86416 20.5828 7.86122 20.5838C7.85827 20.5849 7.85562 20.5867 7.85344 20.5889L7.03449 21.4341C6.98807 21.4818 6.96208 21.5458 6.96207 21.6125L6.9645 24.7045C6.9645 24.7194 6.95705 24.7269 6.94214 24.7269L5.03791 24.7284C5.02798 24.7284 5.01847 24.7244 5.01145 24.7174C5.00443 24.7104 5.00049 24.7009 5.00049 24.6909L5 15.2971C5 15.2922 5.00097 15.2874 5.00285 15.283C5.00473 15.2785 5.00749 15.2744 5.01096 15.271C5.01444 15.2675 5.01856 15.2648 5.0231 15.263C5.02764 15.2611 5.03251 15.2602 5.03742 15.2602L6.947 15.2621C6.95997 15.2621 6.96645 15.2684 6.96645 15.2811C6.96159 16.4993 6.96159 17.6423 6.96645 18.7099C6.96645 18.7456 6.96191 18.7952 6.95284 18.8587C6.94538 18.9112 6.94312 18.9614 6.94603 19.0093Z" fill="#214D9D"/>
<path d="M26.1867 15.2611H24.262C24.2389 15.2611 24.2202 15.2798 24.2202 15.3029V24.6861C24.2202 24.7091 24.2389 24.7278 24.262 24.7278H26.1867C26.2097 24.7278 26.2285 24.7091 26.2285 24.6861V15.3029C26.2285 15.2798 26.2097 15.2611 26.1867 15.2611Z" fill="#214D9D"/>
<path d="M32.1267 16.9316C32.1199 17.0865 32.1167 17.246 32.117 17.4103C32.1209 19.8349 32.1214 22.2603 32.1184 24.6866C32.1185 24.6955 32.115 24.7041 32.1089 24.7106C32.1027 24.7172 32.0943 24.7211 32.0854 24.7216C31.9464 24.73 31.8082 24.7332 31.6708 24.7313C31.159 24.723 30.657 24.7434 30.151 24.7196C30.1411 24.7192 30.1317 24.715 30.1248 24.7077C30.1179 24.7005 30.1141 24.6908 30.1141 24.6807L30.1136 16.9549C30.1136 16.919 30.0956 16.901 30.0596 16.901L27.299 16.9015C27.2834 16.9015 27.2685 16.8953 27.2575 16.8842C27.2464 16.8732 27.2402 16.8582 27.2402 16.8427L27.2427 15.2947C27.2427 15.2746 27.2525 15.2644 27.2723 15.264C27.5088 15.2605 27.7438 15.2587 27.977 15.2587C30.1198 15.2613 32.2623 15.2602 34.4047 15.2553C34.5871 15.2547 34.7747 15.26 34.9675 15.2713C34.9925 15.2726 35.003 15.2856 34.9991 15.3102C34.9884 15.3802 34.9837 15.4549 34.985 15.5343C34.9918 15.9749 34.9918 16.4188 34.985 16.866C34.9849 16.8754 34.981 16.8845 34.9742 16.8911C34.9673 16.8977 34.9581 16.9015 34.9485 16.9015L32.1583 16.901C32.1379 16.901 32.1274 16.9112 32.1267 16.9316Z" fill="#214D9D"/>
<path d="M16.1365 18.8786C16.1731 18.8961 16.2036 18.9032 16.2279 18.9C16.3526 18.8838 16.478 18.878 16.6041 18.8825C17.0593 18.899 17.5037 18.9761 17.9372 19.1138C17.9518 19.1187 17.9661 19.1177 17.98 19.1109L17.9989 19.1012C18.0067 19.1219 18.0237 19.137 18.05 19.1464C18.4871 19.2987 18.9143 19.5025 19.3316 19.7578C19.7946 20.0303 20.2329 20.3514 20.6463 20.7211C20.6622 20.735 20.6714 20.7521 20.674 20.7721C20.6789 20.8078 20.667 20.8146 20.6385 20.7926C20.5138 20.696 20.3743 20.6171 20.2201 20.5559C19.9829 20.4622 19.7454 20.353 19.5076 20.2283C18.9153 19.9811 18.3243 19.8231 17.7345 19.7544C17.3623 19.711 16.9689 19.7359 16.5545 19.8293C15.9081 19.9751 15.3866 20.3163 14.9564 20.8135C14.6692 21.1454 14.4383 21.6514 14.8583 22.0028C14.8617 22.0056 14.8644 22.0092 14.8662 22.0132C14.868 22.0173 14.8688 22.0218 14.8686 22.0263C14.8684 22.0307 14.8671 22.0351 14.8649 22.039C14.8627 22.043 14.8596 22.0464 14.8558 22.0489C14.838 22.0612 14.8183 22.0625 14.7965 22.0528C14.3319 21.8472 13.6442 21.4895 13.5416 20.9252C13.4972 20.6793 13.5212 20.4635 13.6136 20.2779C13.6918 20.1199 13.806 19.9537 13.9402 19.8327C14.519 19.3126 15.3142 19.0006 16.0928 18.9044C16.1041 18.9031 16.1187 18.8945 16.1365 18.8786Z" fill="#D73731"/>
<path d="M20.2312 22.2939C20.8747 22.2166 21.4249 21.9974 21.9605 21.6591C21.9658 21.6558 21.9717 21.6536 21.978 21.6529C21.9842 21.6522 21.9905 21.6529 21.9965 21.655C22.0024 21.657 22.0078 21.6604 22.0122 21.6648C22.0167 21.6692 22.0201 21.6746 22.0222 21.6805L23.0817 24.6773C23.0834 24.6819 23.0839 24.6869 23.0833 24.6918C23.0827 24.6967 23.081 24.7013 23.0782 24.7055C23.0755 24.7096 23.0719 24.7131 23.0676 24.7156C23.0633 24.7181 23.0585 24.7197 23.0535 24.7201C22.8802 24.7327 22.6903 24.7364 22.4839 24.7313C21.9653 24.7181 21.4545 24.7449 20.9374 24.7235C20.9309 24.7232 20.9248 24.7209 20.9197 24.717C20.9147 24.7131 20.911 24.7077 20.9092 24.7016C20.7135 24.0639 20.5228 23.4538 20.3371 22.8712C20.2918 22.7284 20.236 22.5696 20.1699 22.3949C20.1659 22.3843 20.1643 22.373 20.1653 22.3616C20.1664 22.3503 20.17 22.3394 20.1759 22.3297C20.1818 22.3199 20.1898 22.3116 20.1994 22.3054C20.209 22.2992 20.2199 22.2953 20.2312 22.2939Z" fill="#214D9D"/>
<circle cx="20" cy="20" r="19.5" stroke="black" stroke-opacity="0.05"/>
</svg>
