<svg width="40" height="40" viewBox="0 0 40 40" fill="none" xmlns="http://www.w3.org/2000/svg">
<circle cx="20" cy="20" r="20" fill="#F6F8FA"/>
<g clip-path="url(#clip0_18553_55928)">
<path d="M22.5774 17.0838C22.9645 17.0838 23.2784 16.7822 23.2784 16.4103C23.2784 16.0383 22.9645 15.7368 22.5774 15.7368C22.1903 15.7368 21.8765 16.0383 21.8765 16.4103C21.8765 16.7822 22.1903 17.0838 22.5774 17.0838Z" fill="#E38F44"/>
<path d="M25.3219 17.075C25.7065 17.075 26.0183 16.7754 26.0183 16.4059C26.0183 16.0364 25.7065 15.7368 25.3219 15.7368C24.9373 15.7368 24.6255 16.0364 24.6255 16.4059C24.6255 16.7754 24.9373 17.075 25.3219 17.075Z" fill="#E38F44"/>
<path d="M25.6544 18.1681C26.0686 18.378 26.4145 18.671 26.7149 19.0078C27.0608 19.3926 27.3066 19.8562 27.4568 20.3941C27.4614 20.4115 27.4523 20.4334 27.4295 20.4378C27.4295 20.4378 27.425 20.4378 27.4204 20.4378C26.9744 20.4334 26.5055 20.4334 26.0049 20.4378C25.9639 20.4378 25.932 20.4203 25.9138 20.3853C25.5816 19.7381 25.0536 19.3445 24.3344 19.1958C24.1023 19.1477 23.861 19.1477 23.6061 19.1958C22.9735 19.3095 22.4819 19.6375 22.1268 20.171C22.0768 20.2454 22.0449 20.3241 21.9948 20.3941C21.9766 20.4203 21.9448 20.4378 21.9129 20.4378H20.4791C20.4791 20.4378 20.4609 20.4378 20.4609 20.4247C20.4609 20.3897 20.4609 20.3503 20.4746 20.3153C20.6703 19.725 20.9389 19.2352 21.4077 18.7891C21.5624 18.6404 21.7035 18.5223 21.8219 18.4349C22.9325 17.6433 24.4209 17.5427 25.6498 18.1681H25.6544Z" fill="#E38F44"/>
<path d="M30.4972 18.7499C30.4972 18.7499 30.5154 18.7849 30.5336 18.7849C30.5427 18.7849 30.5518 18.7849 30.5563 18.7761C30.9933 18.4438 31.5486 18.2251 32.1084 18.2295C32.4771 18.2295 32.8231 18.2732 33.1462 18.3563C33.4421 18.4306 33.6879 18.5312 33.8745 18.6537C34.7029 19.1872 35.0306 19.9525 35.0352 20.884C35.0397 22.0385 35.0397 23.2236 35.0352 24.435C35.0352 24.47 35.017 24.4875 34.9805 24.4875H33.6242C33.5786 24.4831 33.5559 24.4569 33.5559 24.4132C33.5513 23.3592 33.5513 22.2834 33.5559 21.1945C33.5559 20.6916 33.5559 20.333 33.2236 19.9613C32.8413 19.5371 32.2086 19.4452 31.6578 19.5633C31.5531 19.5852 31.4394 19.6289 31.3165 19.6945C31.0843 19.8169 30.9159 19.9787 30.8067 20.1755C30.6701 20.4292 30.5973 20.7091 30.5973 21.0152C30.5973 22.1522 30.5973 23.2936 30.5973 24.4481C30.5973 24.4744 30.5745 24.4919 30.5518 24.4919L29.2045 24.4831C29.1544 24.4831 29.1317 24.4613 29.1317 24.4132C29.1317 22.4758 29.1317 20.6129 29.1317 18.8286C29.1317 18.6449 29.1317 18.4569 29.1226 18.2688C29.1226 18.2382 29.1453 18.212 29.1772 18.212H30.4243C30.4516 18.2076 30.4744 18.2295 30.4744 18.2557L30.4881 18.7499H30.4972Z" fill="#E38F44"/>
<path d="M9.51854 22.0257C9.51854 22.0257 9.5322 22.0038 9.5322 21.9819C9.5322 20.7793 9.5322 19.5723 9.5322 18.3609C9.5322 18.3347 9.55496 18.3172 9.57771 18.3172H10.9569C10.9842 18.3172 11.0024 18.3347 11.0024 18.3609V24.4397C11.0024 24.4659 10.9796 24.4878 10.9523 24.4878C10.5745 24.4834 10.2013 24.4834 9.82806 24.4878C9.79619 24.4878 9.76433 24.4746 9.74157 24.4484C8.79028 23.2939 7.82532 22.1219 6.84672 20.9324C6.75568 20.823 6.6692 20.7093 6.58272 20.6C6.57362 20.5869 6.55541 20.5738 6.53265 20.5738C6.50989 20.5738 6.50079 20.5825 6.50079 20.6044C6.50079 21.8464 6.50079 23.1233 6.50079 24.4397C6.50079 24.4659 6.47803 24.4834 6.45527 24.4834H5.09888C5.07157 24.479 5.05791 24.4659 5.04881 24.444C5.03971 24.4222 5.03516 24.4003 5.03516 24.3784C5.03516 22.358 5.03516 20.3595 5.03516 18.3697C5.03516 18.3391 5.06247 18.3128 5.09433 18.3128H6.33238C6.36424 18.3085 6.3961 18.3216 6.41886 18.3478C7.3474 19.4586 8.26684 20.5563 9.18172 21.6496C9.29096 21.7764 9.38654 21.8988 9.47303 22.0213C9.48213 22.0344 9.50489 22.0388 9.52309 22.03L9.51854 22.0257Z" fill="#626469"/>
<path d="M18.8676 18.365C18.8631 19.4626 18.8676 20.5297 18.8676 21.6361C18.8676 22.1347 18.8358 22.5632 18.6764 22.9918C18.549 23.3285 18.3305 23.6828 18.0347 23.9145C17.8025 24.0982 17.5567 24.2469 17.2882 24.33C17.1881 24.3606 17.0925 24.4 16.9923 24.4262C16.6327 24.5137 16.2049 24.553 15.6997 24.5355C15.0761 24.518 14.4844 24.3737 13.9791 24.0239C13.2782 23.5384 12.9823 22.7294 12.9869 21.9291C12.9869 20.7527 12.9869 19.5676 12.9869 18.365C12.9869 18.3344 13.0142 18.3125 13.0415 18.3125H14.407C14.4388 18.3125 14.4571 18.33 14.4616 18.3606C14.4662 18.4349 14.4616 18.5093 14.4616 18.5836C14.4616 19.7207 14.4616 20.814 14.4616 21.8679C14.4616 22.1871 14.5435 22.467 14.7028 22.7075C15.0533 23.2323 15.777 23.3723 16.3642 23.2367C16.5599 23.1886 16.7238 23.1186 16.8558 23.0224C17.32 22.6813 17.4293 22.209 17.4293 21.6798C17.4293 20.5647 17.4202 19.4539 17.4293 18.365C17.4293 18.3387 17.452 18.3169 17.4794 18.3169H18.8266C18.854 18.3169 18.8767 18.3431 18.8767 18.3694L18.8676 18.365Z" fill="#626469"/>
<path d="M25.0258 23.0445C25.5629 22.7471 25.8998 22.2792 26.0636 21.702C26.0682 21.6801 26.0909 21.6626 26.1182 21.6626H27.4746C27.5156 21.6626 27.5338 21.6845 27.5293 21.7238C27.2243 23.7836 25.1396 25.1568 23.0277 24.6145C21.999 24.3521 21.166 23.648 20.7018 22.734C20.5425 22.4192 20.4423 22.0606 20.3877 21.7107C20.3877 21.6888 20.4014 21.667 20.4241 21.6626C20.4241 21.6626 20.4241 21.6626 20.4287 21.6626H21.7987C21.8215 21.6626 21.8442 21.6713 21.8533 21.6932C21.9171 21.8681 21.9717 22.0431 22.0627 22.2049C22.6408 23.2326 23.9607 23.6305 25.0304 23.0358L25.0258 23.0445Z" fill="#E38F44"/>
</g>
<circle cx="20" cy="20" r="19.5" stroke="black" stroke-opacity="0.05"/>
<defs>
<clipPath id="clip0_18553_55928">
<rect width="30" height="9" fill="white" transform="translate(5.03516 15.7368)"/>
</clipPath>
</defs>
</svg>
