<svg width="40" height="40" viewBox="0 0 40 40" fill="none" xmlns="http://www.w3.org/2000/svg">
<circle cx="20" cy="20" r="20" fill="#F6F8FA"/>
<path d="M8 20.0002C8 13.3708 13.3725 8 19.9998 8C26.6271 8 32 13.3708 32 20.0002H8Z" fill="url(#paint0_radial_17752_43702)"/>
<path d="M8 20.0002C8 26.6275 13.3708 32 19.9998 32C26.6287 32 32 26.6275 32 20.0002H8Z" fill="url(#paint1_linear_17752_43702)"/>
<path d="M12.3088 16.2499C13.6836 15.7881 15.3037 16.1864 16.262 17.2779C16.264 17.2805 16.2651 17.2837 16.2651 17.287C16.2651 17.2903 16.264 17.2935 16.262 17.2961C16.0258 17.6588 15.8439 18.054 15.722 18.4692C15.7093 18.5115 15.6924 18.5132 15.6712 18.4743C15.3448 17.8763 14.8691 17.4761 14.2444 17.2737C13.2675 16.9574 12.1163 17.3312 11.4871 18.136C10.6277 19.2355 10.8629 20.9242 12.0394 21.7345C12.5299 22.0728 13.0836 22.223 13.7005 22.1853C14.4462 22.1402 15.0429 21.8247 15.4907 21.2388C15.5674 21.1383 15.6311 21.0285 15.6801 20.9119C15.682 20.9072 15.685 20.903 15.6889 20.8999C15.6928 20.8967 15.6975 20.8946 15.7025 20.8937C15.7043 20.8931 15.7063 20.8928 15.7082 20.893C15.7101 20.8932 15.7119 20.8938 15.7136 20.8948C15.7152 20.8957 15.7166 20.897 15.7177 20.8986C15.7188 20.9002 15.7195 20.902 15.7199 20.9039C15.8476 21.3053 16.0257 21.689 16.2498 22.0457C16.2551 22.0537 16.2576 22.0633 16.2568 22.073C16.2559 22.0826 16.2518 22.0916 16.2451 22.0986C15.5769 22.8406 14.7421 23.2353 13.7407 23.2827C13.4486 23.2992 13.1556 23.2863 12.8661 23.2442C11.1382 22.9609 9.8424 21.5801 9.78785 19.8162C9.73837 18.18 10.7643 16.7683 12.3088 16.2499Z" fill="white"/>
<path d="M23.4211 20.0475C23.4249 20.1223 23.3877 20.16 23.3094 20.16H17.4823C17.4772 20.1601 17.4723 20.1622 17.4687 20.1658C17.465 20.1694 17.4629 20.1743 17.4628 20.1794C17.4628 20.1794 17.4628 20.1794 17.4628 20.1828C17.6565 21.3323 18.7438 22.2411 19.9123 22.1861C20.6377 22.152 21.2274 21.8603 21.6813 21.3111C21.8007 21.1672 21.8957 21.0046 21.9625 20.8299C21.9661 20.8204 21.9726 20.8122 21.9809 20.8064C21.9893 20.8007 21.9993 20.7977 22.0094 20.7977H23.2037C23.2076 20.7977 23.2115 20.7984 23.2152 20.7998C23.2188 20.8013 23.2221 20.8035 23.2249 20.8062C23.2277 20.809 23.2299 20.8123 23.2314 20.8159C23.233 20.8195 23.2337 20.8234 23.2337 20.8273C23.2343 20.8307 23.2343 20.8341 23.2337 20.8375C22.9518 21.6269 22.4866 22.2395 21.8382 22.6754C21.2202 23.0963 20.486 23.3135 19.7384 23.2964C18.9909 23.2794 18.2674 23.029 17.6692 22.5802C16.2204 21.4629 15.7805 19.4681 16.7321 17.8645C17.4971 16.5746 18.9857 15.8489 20.465 16.1268C21.1249 16.2431 21.7365 16.5492 22.2251 17.0077C22.8564 17.5997 23.2397 18.3046 23.375 19.1222C23.4188 19.4285 23.4342 19.7383 23.4211 20.0475ZM22.1651 19.0511C21.9063 17.7579 20.5428 16.9256 19.2847 17.2276C18.3653 17.4479 17.7246 18.1089 17.4785 19.041C17.4737 19.0596 17.4809 19.0689 17.5001 19.0689C19.0572 19.0599 20.6078 19.0599 22.152 19.0689C22.1557 19.0689 22.1593 19.0674 22.162 19.0648C22.1647 19.0622 22.1662 19.0587 22.1663 19.0549C22.1663 19.0549 22.1651 19.052 22.1651 19.0511Z" fill="white"/>
<path d="M29.4231 16.9552C29.9239 17.4826 30.2186 18.1296 30.2267 18.8583C30.2303 19.2451 30.2303 19.6459 30.2267 20.0606L30.2237 23.0932C30.2237 23.0997 30.2224 23.1062 30.2199 23.1122C30.2174 23.1183 30.2137 23.1238 30.209 23.1284C30.2044 23.133 30.1989 23.1366 30.1929 23.1391C30.1868 23.1415 30.1803 23.1428 30.1738 23.1427L29.0193 23.1389C29.0109 23.1388 29.0029 23.1354 28.997 23.1295C28.991 23.1236 28.9877 23.1156 28.9876 23.1072L28.9719 20.0496C28.9843 19.7502 28.9905 19.4499 28.9905 19.1488C28.9905 18.8159 28.9666 18.5742 28.9186 18.424C28.8476 18.214 28.7343 18.0208 28.5858 17.8562C28.4373 17.6916 28.2567 17.5591 28.0551 17.467C27.824 17.3565 27.5748 17.289 27.3196 17.2678C26.9754 17.24 26.6299 17.3042 26.3186 17.4538C25.7085 17.7518 25.3905 18.2482 25.3646 18.9429C25.3536 19.2367 25.3536 19.6081 25.3646 20.0572L25.3671 23.1199C25.3677 23.1237 25.3674 23.1275 25.3662 23.1312C25.365 23.1348 25.3629 23.1381 25.3602 23.1409C25.3575 23.1436 25.3542 23.1456 25.3505 23.1468C25.3469 23.148 25.343 23.1483 25.3392 23.1478L24.1551 23.1503C24.1487 23.1502 24.1426 23.1476 24.1382 23.1431C24.1337 23.1386 24.1311 23.1326 24.131 23.1262V20.0454C24.1256 19.6538 24.1256 19.2544 24.131 18.8473C24.1576 17.1003 25.6856 15.9826 27.345 16.0697C28.1621 16.1123 28.8548 16.4074 29.4231 16.9552Z" fill="white"/>
<circle cx="20" cy="20" r="19.5" stroke="black" stroke-opacity="0.05"/>
<defs>
<radialGradient id="paint0_radial_17752_43702" cx="0" cy="0" r="1" gradientUnits="userSpaceOnUse" gradientTransform="translate(32 20) rotate(-90) scale(8 16.0008)">
<stop stop-color="#FAD5AC"/>
<stop offset="1" stop-color="#E9480A"/>
</radialGradient>
<linearGradient id="paint1_linear_17752_43702" x1="32" y1="32" x2="8" y2="32" gradientUnits="userSpaceOnUse">
<stop stop-color="#FE0002"/>
<stop offset="1" stop-color="#E9480A"/>
</linearGradient>
</defs>
</svg>
