<svg width="40" height="40" viewBox="0 0 40 40" fill="none" xmlns="http://www.w3.org/2000/svg">
<circle cx="20" cy="20" r="20" fill="#F6F8FA"/>
<path d="M19.7027 19.6172C18.5917 23.2462 17.4906 26.8386 16.3804 30.4281C16.0954 31.3499 15.4446 31.5587 14.7651 30.8978C13.3645 29.5353 12.0033 28.1322 10.6307 26.7411C10.3653 26.4721 10.2704 26.1012 10.0705 25.7607C10.0352 25.2884 10.0352 24.8279 10.0352 24.3183C10.6666 21.6918 11.5732 19.1963 12.3045 16.6486C12.5227 15.8884 12.7718 15.1371 12.9983 14.3791C13.0883 14.0779 13.1474 13.7611 13.3921 13.4855C13.6793 13.3736 13.82 13.5589 13.9648 13.703C15.7986 15.5279 17.6267 17.3585 19.4543 19.1897C19.5653 19.3009 19.6863 19.409 19.7027 19.6172Z" fill="#01B5E4"/>
<path d="M19.7346 19.6463C17.6471 17.6029 15.5982 15.5509 13.5195 13.4749C13.5668 13.211 13.7866 13.1647 13.9838 13.1047C17.146 12.1439 20.2986 11.1519 23.4594 10.1865C23.7456 10.0991 24.0411 10.0546 24.3757 10.0243C24.7652 10 25.1205 10 25.5242 10C26.4037 10.2506 27.0041 10.8165 27.5952 11.4201C29.0338 12.8891 30.4984 14.3328 32.035 15.869C27.8935 17.1419 23.8334 18.3897 19.7346 19.6463Z" fill="#B82229"/>
<circle cx="20" cy="20" r="19.5" stroke="black" stroke-opacity="0.05"/>
</svg>
