<svg width="40" height="40" viewBox="0 0 40 40" fill="none" xmlns="http://www.w3.org/2000/svg">
<circle cx="20" cy="20" r="20" fill="#F6F8FA"/>
<g clip-path="url(#clip0_36945_75552)">
<path d="M20.3797 14C15.5197 14 11.7197 16.85 11.7197 20.49C11.7197 24.13 15.5197 26.98 20.3797 26.98C25.2397 26.98 29.0397 24.13 29.0397 20.49C29.0397 16.85 25.2297 14 20.3797 14ZM20.3797 26.59C16.1197 26.59 12.7797 23.91 12.7797 20.49C12.7797 17.07 16.1097 14.38 20.3797 14.38C24.6497 14.38 27.9797 17.06 27.9797 20.48C27.9797 23.9 24.6397 26.58 20.3797 26.58V26.59Z" fill="#1F1A55"/>
<path d="M20.8197 14.23H19.9297V26.66H20.8197V14.23Z" fill="#1F1A55"/>
<path d="M32.6099 17.9702H8.12988V23.1002H32.6099V17.9702Z" fill="white"/>
<path d="M20.38 26.97C12.31 26.97 6 24.12 6 20.49C6 16.86 12.31 14 20.38 14C28.45 14 34.76 16.85 34.76 20.49C34.76 24.13 28.45 26.98 20.38 26.98V26.97ZM20.38 14.6C13.09 14.6 7.16 17.24 7.16 20.49C7.16 23.74 13.09 26.38 20.37 26.38C27.65 26.38 33.58 23.74 33.58 20.49C33.58 17.24 27.66 14.6 20.38 14.6Z" fill="#1F1A55"/>
<path d="M32.6099 17.2598H8.12988V17.9898H32.6099V17.2598Z" fill="#1F1A55"/>
<path d="M32.6099 23.1001H8.12988V23.8301H32.6099V23.1001Z" fill="#1F1A55"/>
<path d="M17.0696 18.21H14.9196V19.8H12.6996V18.21H10.5596V21.28C12.2796 20.6 14.5296 20.1 17.0696 19.88V18.22V18.21Z" fill="#1F1A55"/>
<path d="M20.9297 19.74V18.21H18.9297V19.76C19.4097 19.74 19.8997 19.73 20.3997 19.73C20.5797 19.73 20.7597 19.73 20.9397 19.73L20.9297 19.74Z" fill="#1F1A55"/>
<path d="M26.8895 19.66C27.1695 19.39 27.3595 19.27 27.7995 19.22C27.9995 19.2 28.3795 19.22 28.5495 19.22C28.7895 19.22 28.9295 19.24 29.1595 19.25C29.4095 19.25 29.7995 19.28 30.0695 19.31L30.0895 18.88L30.0995 18.37C29.9295 18.34 29.9595 18.34 29.7895 18.32C29.2795 18.25 28.8695 18.23 28.0695 18.23C27.0395 18.23 26.3095 18.37 25.6895 18.84C25.2495 19.17 24.8695 19.53 24.6895 20.02C25.3295 20.1 25.9495 20.2 26.5395 20.31C26.5895 20.03 26.7195 19.83 26.8895 19.68V19.66Z" fill="#1F1A55"/>
<path d="M12.6996 22.7699V20.9299H14.9196V22.7699H17.0696V19.8799C14.5296 20.1099 12.2796 20.5999 10.5596 21.2799V22.7599H12.6996V22.7699Z" fill="#DE6F6F"/>
<path d="M20.4199 22.77H23.7399V21.37H20.9299V19.75C20.7499 19.75 20.5699 19.75 20.3899 19.75C19.8899 19.75 19.3999 19.76 18.9199 19.78V21.27C18.9199 22.1 19.5899 22.77 20.4199 22.77Z" fill="#DE6F6F"/>
<path d="M25.13 21.79C25.45 22.15 25.87 22.33 26.3 22.53C26.7 22.72 27.3 22.82 28.04 22.84C28.61 22.86 28.75 22.84 29.13 22.83C29.57 22.82 29.45 22.81 29.81 22.79C29.97 22.79 30.04 22.77 30.19 22.74L30.16 21.77C29.81 21.83 29.18 21.84 28.84 21.85C28.6 21.85 28.32 21.85 27.93 21.79C27.46 21.71 27.19 21.63 26.98 21.44C26.77 21.25 26.52 21.03 26.52 20.53C26.52 20.44 26.53 20.37 26.54 20.29C25.95 20.18 25.33 20.08 24.69 20C24.64 20.15 24.6 20.31 24.59 20.49C24.55 21.05 24.81 21.42 25.13 21.79Z" fill="#DE6F6F"/>
</g>
<circle cx="20" cy="20" r="19.5" stroke="black" stroke-opacity="0.05"/>
<defs>
<clipPath id="clip0_36945_75552">
<rect width="29" height="13" fill="white" transform="translate(6 14)"/>
</clipPath>
</defs>
</svg>
