<svg width="40" height="40" viewBox="0 0 40 40" fill="none" xmlns="http://www.w3.org/2000/svg">
<circle cx="20" cy="20" r="20" fill="#F6F8FA"/>
<path d="M22.5345 16H4V24.6279H22.5345V16Z" fill="#009782"/>
<path d="M35.9998 16H26.9839V24.6279H35.9998V16Z" fill="#D99528"/>
<path d="M27.0675 16H22.4497V24.6279H27.0675V16Z" fill="black"/>
<path d="M16.0541 21.0749C16.0521 21.3955 15.9611 21.6568 15.5731 21.6588H15.5711C15.1832 21.6568 15.0921 21.3975 15.0902 21.0749V18.759H14.6606V21.0749C14.6626 21.5915 14.9516 21.9992 15.5711 21.9992H15.5731C16.1927 21.9992 16.4816 21.5915 16.4816 21.0749V18.759H16.0541V21.0749Z" fill="white"/>
<path d="M8.03403 20.1168H7.07207V18.761H6.64453V21.9735H7.07207V20.4771H8.03403V21.9735H8.46156V18.761H8.03403V20.1168Z" fill="white"/>
<path d="M20.5095 21.0531L19.6544 18.761H19.0171V21.9735H19.4367V19.2598L20.4679 21.9735H20.9272V18.761H20.5095V21.0531Z" fill="white"/>
<path d="M11.5515 20.1248L10.9815 18.761H10.5361L11.3358 20.6156L11.3338 21.9735H11.7613V20.6097L12.5511 18.761H12.1038L11.5515 20.1248Z" fill="white"/>
<path d="M33.3678 18.761H32.9541V21.9735H33.3678V18.761Z" fill="white"/>
<path d="M24.5418 18.761H23.8589V21.9735H24.5418C24.9 21.9735 25.193 21.8804 25.3949 21.629C25.5948 21.3797 25.7036 20.9778 25.7036 20.3662C25.7036 19.7546 25.5948 19.3528 25.3949 19.1034C25.193 18.854 24.9 18.761 24.5418 18.761ZM24.4586 21.6152H24.2765V19.1153H24.4586C24.9891 19.1192 25.282 19.2796 25.286 20.3662C25.282 21.4529 24.9871 21.6112 24.4586 21.6152Z" fill="white"/>
<path d="M28.9335 18.761L28.9315 18.7748L28.1675 21.9715H28.597L28.7989 21.0689H29.6421L29.844 21.9715H30.2735L29.5134 18.761H28.9335ZM28.8622 20.7067L29.2205 19.0975L29.5807 20.7067H28.8622Z" fill="white"/>
<circle cx="20" cy="20" r="19.5" stroke="black" stroke-opacity="0.05"/>
</svg>
