<svg width="41" height="40" viewBox="0 0 41 40" fill="none" xmlns="http://www.w3.org/2000/svg">
<circle cx="20" cy="20" r="20" fill="#4DB756"/>
<g clip-path="url(#clip0_18066_46926)">
<path fill-rule="evenodd" clip-rule="evenodd" d="M14.4471 15.5662C13.9097 15.2359 13.2669 15.0813 12.182 15.0813H9.48565C7.59688 15.0813 6.67597 16.0668 6.32752 17.8365C5.79589 20.5301 5.10928 23.9591 5.03677 24.3323C4.861 25.2209 5.32744 25.5234 6.17803 25.5234H9.81634C11.435 25.5234 12.3933 25.277 13.1173 24.8273C14.428 24.0959 14.6904 22.6034 14.6904 22.6034C15.1188 20.4685 13.0182 20.1527 13.0182 20.1527C13.0182 20.1527 14.8443 19.7771 15.2274 17.7543C15.2274 17.7543 15.5523 16.2479 14.4471 15.5662ZM11.7547 22.1712C11.6971 22.5208 11.4248 22.9677 10.4981 22.9677H8.41612L8.74417 21.3216H10.6627C11.1132 21.3216 11.8909 21.3296 11.7547 22.1712ZM12.1107 18.2978C12.0289 18.8877 11.5921 19.0629 10.6423 19.0629H9.18739C9.18739 19.0629 9.28375 18.5018 9.3448 18.1909C9.40687 17.8782 9.57949 17.6172 10.0391 17.6172H11.3323C11.4537 17.6172 12.2109 17.5866 12.1107 18.2978ZM23.4344 19.1999L21.9091 19.2012C20.6223 19.2012 20.3641 20.0814 20.247 20.6792C20.2023 20.9098 20.0797 21.4781 20.0797 21.4781H22.0251C21.7188 22.8159 20.7875 23.051 20.1688 23.051C19.7193 23.051 18.5043 23.1995 18.5562 21.5862C18.5659 21.2686 18.7533 19.8851 19.1637 19.1045C19.6961 18.0925 20.4032 17.6246 21.8644 17.563C22.6468 17.5309 23.4142 17.6228 23.4142 17.6228C24.335 17.7212 24.721 17.0624 24.721 17.0624C25.1098 16.4931 25.3741 15.6243 25.3741 15.6243C25.3741 15.6243 25.03 15.457 24.4166 15.2781C23.4711 15.0058 22.1645 15.0023 22.1645 15.0023C19.3076 14.9491 17.704 16.4894 17.704 16.4894C16.141 17.848 15.7602 20.123 15.7602 20.123C14.9196 23.4463 16.647 24.7035 16.647 24.7035C17.8161 25.7262 19.8425 25.6153 19.8425 25.6153C22.1571 25.6153 23.4053 24.369 23.4053 24.369C24.6912 23.1584 24.9301 21.513 25.0071 21.0801C25.2105 19.9444 24.732 19.1999 23.4344 19.1999ZM31.3731 15.0681C28.6119 15.0681 26.8891 16.1181 26.2739 19.1981C26.2739 19.1981 25.225 24.4702 25.2195 24.506C25.1762 24.8587 25.2378 25.099 25.3715 25.2549V25.2559C25.3918 25.279 25.4138 25.3006 25.4373 25.3206C25.6055 25.4649 25.8495 25.5167 26.1266 25.5167H28.0461L28.7616 22.0637L28.7876 21.9254H31.152C32.3446 21.9254 33.2796 21.4785 33.5627 20.3827C33.715 19.7946 33.7394 19.3212 33.7394 19.3212C33.7394 19.3212 31.9365 19.1334 30.6999 19.2591C29.9777 19.332 29.4754 19.4751 29.1651 19.972L29.3237 19.2012C29.6121 17.9561 30.4907 17.6028 31.437 17.6028H33.0186C33.967 17.6028 34.5646 17.2707 34.741 16.4176C34.885 15.7256 35 15.0681 35 15.0681H31.3731Z" fill="white"/>
</g>
<circle cx="20.0371" cy="20" r="19.5" stroke="black" stroke-opacity="0.05"/>
<defs>
<clipPath id="clip0_18066_46926">
<rect width="30" height="10.62" fill="white" transform="translate(5 15)"/>
</clipPath>
</defs>
</svg>
