<svg width="40" height="40" viewBox="0 0 40 40" fill="none" xmlns="http://www.w3.org/2000/svg">
<circle cx="20" cy="20" r="20" fill="#4D9736"/>
<path d="M13.4035 23.3256H14.6676L14.6817 23.4086C14.4153 23.5626 14.151 23.7198 13.882 23.8692C12.3856 24.7013 10.8368 25.4093 9.17433 25.8459C8.58752 26.0038 7.98663 26.1037 7.3803 26.1442C6.88024 26.175 6.38639 26.1281 5.9133 25.9467C5.24931 25.6931 4.90527 25.0511 5.02272 24.3486C5.16423 23.5049 5.58047 22.7936 6.06685 22.1163C6.84621 21.0315 7.78825 20.0978 8.81038 19.2445C9.02535 19.0653 9.13573 18.8835 9.11872 18.5942C9.09341 18.1738 9.11872 17.751 9.10917 17.3293C9.10627 17.1812 9.14113 17.1102 9.30298 17.1218C9.46483 17.1335 9.63497 17.126 9.80097 17.1218C9.92174 17.1181 9.97485 17.1633 9.97402 17.2907C9.96987 17.8026 9.96987 18.3144 9.97402 18.8262C9.97402 18.9478 9.90804 19.013 9.82255 19.0785C8.85478 19.8205 7.95175 20.6335 7.15579 21.5598C6.69058 22.0993 6.25857 22.6678 6.01331 23.3501C5.9611 23.4854 5.92651 23.6268 5.91039 23.7709C5.85478 24.4228 6.25193 24.8104 6.97983 24.8499C7.80982 24.8934 8.59832 24.6992 9.37643 24.4527C10.2258 24.1807 11.0518 23.8407 11.8465 23.436C11.9872 23.3624 12.1442 23.3253 12.303 23.3281C12.6636 23.3297 13.0234 23.3256 13.4035 23.3256Z" fill="white"/>
<path d="M9.97357 21.3305C9.97357 21.7455 9.96735 22.1393 9.97357 22.534C9.97689 22.6963 9.91921 22.7597 9.75778 22.751C9.59634 22.7423 9.42578 22.7461 9.25978 22.751C9.14649 22.7535 9.09586 22.705 9.09669 22.5913C9.1025 21.8036 9.10706 21.0161 9.11038 20.2287C9.10755 20.1558 9.12098 20.0832 9.14969 20.0162C9.1784 19.9491 9.22168 19.8893 9.27638 19.8411C9.49135 19.6572 9.70175 19.4676 9.94286 19.3153C10.1006 19.213 10.2853 19.1602 10.4732 19.1638C11.0127 19.1779 11.5522 19.1223 12.0876 19.2007C12.2428 19.2236 12.2756 19.1451 12.2747 19.0099C12.271 18.4704 12.2814 17.9309 12.271 17.3914C12.2668 17.1839 12.332 17.1162 12.5432 17.1187C13.1636 17.1258 13.1636 17.1187 13.1636 17.7387C13.1636 19.308 13.1636 20.8769 13.1636 22.4456C13.1636 22.7485 13.1636 22.7485 12.8731 22.7498C12.2747 22.7523 12.2751 22.7523 12.276 22.1464C12.276 21.6484 12.2789 21.1504 12.276 20.6524C12.2731 20.181 12.1162 20.0175 11.641 20.0046C11.3024 19.995 10.9633 19.9955 10.6251 20.0046C10.3097 20.0112 9.97233 20.3623 9.97233 20.6686L9.97357 21.3305Z" fill="white"/>
<path d="M19.8146 17.2838C20.1147 16.841 20.3882 16.4024 20.5019 15.884C20.6264 15.3147 20.3823 14.9001 19.8229 14.7461C19.2299 14.5826 18.6427 14.6793 18.0609 14.8038C16.6229 15.1121 15.2978 15.7168 13.9968 16.3808C13.9553 16.4028 13.9113 16.426 13.8665 16.4439C13.847 16.4474 13.8271 16.4474 13.8076 16.4439C13.6785 16.082 13.7391 15.9226 14.0566 15.7629C15.3879 15.0939 16.7599 14.5316 18.2177 14.2041C19.0303 14.022 19.852 13.9136 20.6803 14.0904C21.6954 14.3083 22.1361 15.0055 21.9037 16.0247C21.751 16.6954 21.4149 17.2834 21.0322 17.8478C21.017 17.8751 20.9948 17.8979 20.9679 17.9139C20.941 17.9298 20.9104 17.9384 20.8791 17.9387C20.4024 17.9365 19.9256 17.9338 19.4486 17.9308C19.4308 17.9308 19.4133 17.915 19.3627 17.8893C19.5158 17.6872 19.6611 17.4917 19.8146 17.2838Z" fill="white"/>
<path d="M34.9955 19.9194C34.9955 20.7697 34.9901 21.5993 34.9996 22.4288C35.0021 22.6322 34.9461 22.6998 34.7336 22.7102C34.2601 22.7343 33.9513 22.55 33.7488 22.1163C33.4509 21.4789 33.1185 20.8572 32.7528 20.2327V20.4427C32.7528 21.1133 32.747 21.7839 32.757 22.4541C32.7599 22.645 32.6968 22.7102 32.508 22.7065C31.8237 22.6915 31.9448 22.7799 31.9407 22.1558C31.9341 21.0353 31.944 19.9148 31.9336 18.7943C31.9316 18.5806 31.9988 18.5216 32.205 18.5299C32.8529 18.5569 32.6744 18.4237 32.9732 19.0039C33.3658 19.765 33.7517 20.5294 34.163 21.3357C34.1705 21.2444 34.1775 21.1967 34.1775 21.1486C34.1775 20.3601 34.1829 19.5716 34.1775 18.7831C34.1775 18.6034 34.2157 18.5258 34.417 18.5279C34.9942 18.5345 34.9942 18.5279 34.9942 19.1089C34.9959 19.3732 34.9955 19.6359 34.9955 19.9194Z" fill="white"/>
<path d="M16.4746 23.274C16.3833 23.5816 16.2925 23.8716 16.2144 24.165C16.1817 24.2895 16.1173 24.3348 15.9945 24.331C15.8426 24.3252 15.6899 24.3248 15.538 24.331C15.3674 24.3377 15.3164 24.2767 15.3674 24.1065C15.4787 23.7376 15.5787 23.3641 15.682 22.9906C15.7036 22.9118 15.7235 22.8321 15.7426 22.7549C15.7231 22.7383 15.7131 22.7225 15.7011 22.7217C15.2031 22.6914 15.0085 22.3714 14.8674 21.9378C14.5258 20.887 14.149 19.8478 13.7884 18.8037C13.7639 18.7332 13.7257 18.6647 13.7469 18.551C14.0155 18.5275 14.2857 18.5267 14.5545 18.5485C14.6541 18.5556 14.6607 18.6672 14.6856 18.7423C14.9412 19.5089 15.1949 20.276 15.4467 21.0434C15.5206 21.2663 15.592 21.49 15.6654 21.7128C15.6982 21.812 15.7252 21.9112 15.8683 21.9041C16.0036 21.8979 16.0169 21.7967 16.0422 21.707C16.3207 20.7243 16.6021 19.7424 16.8693 18.7564C16.917 18.5805 16.9938 18.5232 17.1689 18.534C17.3802 18.5468 17.5935 18.5369 17.8524 18.5369C17.3876 20.1363 16.934 21.6971 16.4746 23.274Z" fill="white"/>
<path d="M30.7887 18.7991C31.1452 19.0979 31.3195 19.4797 31.3991 19.9133C31.5116 20.5275 31.5074 21.1351 31.2987 21.7306C31.0601 22.4137 30.5355 22.7859 29.8047 22.7938C29.0739 22.8017 28.5261 22.4494 28.29 21.7655C28.0274 21.0293 28.0297 20.2246 28.2966 19.4901C28.6531 18.4978 29.8856 18.1621 30.7866 18.7991M29.4453 19.3357C29.2432 19.4216 29.1345 19.5913 29.0777 19.7876C28.9142 20.3409 28.9133 20.9295 29.0752 21.4833C29.1445 21.7244 29.2972 21.9132 29.5599 21.9792C30.0201 22.0954 30.3733 21.8999 30.5144 21.4214C30.6585 20.9202 30.6615 20.3888 30.5231 19.886C30.3857 19.3577 30.0031 19.1568 29.4474 19.3357H29.4453Z" fill="white"/>
<path d="M20.8351 22.0697C20.7521 22.3129 20.7036 22.5822 20.4326 22.6528C20.0898 22.7424 19.7312 22.7669 19.3951 22.6166C19.1946 22.5266 19.1461 22.3108 19.0921 22.1187C18.807 21.094 18.5273 20.0682 18.2464 19.0427C18.2049 18.8908 18.1634 18.7385 18.1152 18.5505C18.3877 18.5282 18.6614 18.5269 18.934 18.5468C19.0145 18.5522 19.0141 18.6327 19.0295 18.69C19.2751 19.6245 19.5204 20.559 19.7653 21.4933C19.7897 21.5866 19.8188 21.6788 19.8424 21.7725C19.8566 21.8298 19.8756 21.8842 19.9429 21.8863C20.0296 21.8887 20.0566 21.8244 20.0753 21.753C20.1549 21.4526 20.2379 21.1534 20.3164 20.8529C20.501 20.1449 20.6865 19.4374 20.8646 18.7277C20.9011 18.5812 20.97 18.5202 21.1223 18.5335C21.3344 18.5505 21.5489 18.5182 21.7983 18.5597C21.4775 19.7324 21.1584 20.8932 20.8351 22.0697Z" fill="white"/>
<path d="M23.7822 18.8442C24.0183 18.6263 24.2922 18.5412 24.5902 18.5371C25.0259 18.5309 25.4617 18.54 25.897 18.5338C26.0501 18.5317 26.1182 18.5707 26.1199 18.7413C26.1261 19.3127 26.1327 19.3123 25.5555 19.3123C25.2791 19.3123 25.0023 19.3081 24.7255 19.3148C24.5636 19.3185 24.3989 19.3389 24.3478 19.5356C24.2968 19.7323 24.4163 19.8489 24.5707 19.9323C24.8989 20.1099 25.2347 20.2772 25.5596 20.4573C25.9331 20.6627 26.2473 20.9138 26.3352 21.3703C26.4597 22.0052 26.0688 22.582 25.4285 22.668C24.8645 22.7431 24.2959 22.6899 23.7299 22.6995C23.6212 22.7016 23.573 22.6493 23.5639 22.5364C23.5075 21.9048 23.5099 21.8998 24.1333 21.9002C24.4512 21.9002 24.7695 21.9035 25.0878 21.8961C25.2538 21.8919 25.438 21.8782 25.4961 21.6823C25.5567 21.4786 25.4368 21.3354 25.2774 21.2321C24.9346 21.0096 24.5586 20.8482 24.1984 20.6581C23.8482 20.473 23.5697 20.2294 23.5021 19.8128C23.4419 19.4526 23.5158 19.1276 23.7822 18.8442Z" fill="white"/>
<path d="M23.0046 19.9609C23.0046 20.8104 22.9996 21.6392 23.0075 22.4679C23.0095 22.6505 22.9494 22.7086 22.7697 22.7053C22.0816 22.6928 22.1978 22.7763 22.1941 22.1401C22.187 21.0283 22.1941 19.9165 22.187 18.8047C22.187 18.601 22.2364 18.5263 22.4522 18.5304C23.0046 18.5412 23.0046 18.5304 23.0046 19.0907V19.9609Z" fill="white"/>
<path d="M26.8339 21.4548C26.8339 20.5502 26.838 19.6662 26.8306 18.7823C26.8306 18.5976 26.877 18.5291 27.0729 18.5308C27.6485 18.5366 27.6485 18.5308 27.6481 19.1118C27.6481 20.2099 27.6481 21.3079 27.6481 22.406C27.6481 22.6986 27.6481 22.7015 27.3663 22.7007C26.7351 22.7007 26.8447 22.7629 26.8351 22.1786C26.8306 21.9454 26.8339 21.7105 26.8339 21.4548Z" fill="white"/>
<path d="M34.5762 24.8602C34.4932 25.1623 34.4102 25.4474 34.3343 25.7342C34.2957 25.8782 34.2164 25.9641 34.0587 25.9632C33.901 25.9624 33.8417 25.8665 33.8056 25.7354C33.6865 25.3055 33.5661 24.8764 33.4192 24.4489V25.6632C33.4192 25.7254 33.4192 25.7877 33.4192 25.8499C33.4192 25.9408 33.3839 25.991 33.2843 25.9906C33.1847 25.9902 33.147 25.9433 33.147 25.8512C33.147 25.229 33.147 24.6065 33.147 23.9837C33.147 23.8874 33.193 23.8414 33.2864 23.8493C33.4063 23.8588 33.5524 23.7907 33.6035 23.9866C33.7168 24.4203 33.8408 24.8515 33.9658 25.2822C33.9915 25.3706 33.9944 25.4715 34.0903 25.5644C34.1944 25.1909 34.2936 24.8345 34.3932 24.4784C34.4401 24.3124 34.4891 24.1464 34.5347 23.9804C34.5899 23.7791 34.753 23.8559 34.8783 23.8522C35.014 23.8488 34.997 23.9613 34.997 24.0485C34.9987 24.6294 34.9987 25.2104 34.997 25.7914C34.997 25.8885 35.0061 25.9931 34.8563 25.9898C34.7065 25.9865 34.7227 25.8786 34.7223 25.7823C34.7223 25.3403 34.7223 24.8979 34.6966 24.4481C34.6567 24.5813 34.6185 24.7124 34.5762 24.8602Z" fill="white"/>
<path d="M32.203 25.9942C32.0167 25.9942 31.8507 25.9918 31.6847 25.9942C31.5722 25.9942 31.5245 25.9449 31.5249 25.8316C31.527 25.3132 31.5224 24.7941 31.5274 24.277C31.5274 24.0994 31.7922 23.862 31.9984 23.852C32.2258 23.8417 32.4549 23.8495 32.6823 23.8495C32.7674 23.8495 32.8313 23.8711 32.8317 23.974C32.8321 24.077 32.779 24.1222 32.6782 24.1218C32.5055 24.1218 32.3329 24.1193 32.1603 24.1218C31.8768 24.1293 31.7038 24.4538 31.8503 24.6999C31.8918 24.7679 31.9548 24.7571 32.0163 24.758C32.2238 24.76 32.4313 24.76 32.6388 24.758C32.7342 24.758 32.7965 24.7854 32.7965 24.8987C32.7965 25.0119 32.7284 25.0348 32.6354 25.0348C32.435 25.0348 32.2341 25.0422 32.0345 25.0348C31.8781 25.0273 31.8291 25.0925 31.8312 25.2423C31.8386 25.8112 31.7897 25.7025 32.2877 25.7133C32.4325 25.7162 32.5782 25.7154 32.7226 25.7133C32.8155 25.7133 32.8649 25.7548 32.8641 25.8507C32.8633 25.9465 32.8189 25.9897 32.7234 25.9888C32.5553 25.9918 32.3893 25.9938 32.203 25.9942Z" fill="white"/>
<path d="M28.3851 25.8178C28.4212 25.7012 28.5058 25.7182 28.5789 25.7174C28.7656 25.7145 28.9523 25.7194 29.1391 25.7136C29.2785 25.7095 29.4068 25.6638 29.4429 25.5132C29.479 25.3625 29.3968 25.258 29.2731 25.1887C29.0744 25.077 28.8698 24.9762 28.6702 24.8654C28.3963 24.7131 28.2813 24.4728 28.3519 24.2142C28.4195 23.9652 28.6008 23.8507 28.9291 23.8486C29.1159 23.8486 29.3026 23.8486 29.4889 23.8486C29.591 23.8486 29.6425 23.8901 29.64 23.9964C29.6375 24.1026 29.5773 24.1229 29.491 24.1229C29.3109 24.1229 29.1312 24.1254 28.9515 24.1229C28.8146 24.1229 28.7025 24.1611 28.661 24.3047C28.6195 24.4483 28.7025 24.5467 28.8162 24.6131C28.9644 24.7006 29.1229 24.772 29.2727 24.8546C29.3711 24.9047 29.4655 24.9624 29.5549 25.0272C29.6435 25.0949 29.7092 25.1882 29.7431 25.2943C29.777 25.4005 29.7775 25.5146 29.7446 25.6211C29.6773 25.8497 29.5089 25.9647 29.2881 25.9821C29.0337 26.002 28.7768 25.9892 28.5212 25.9917C28.4149 25.9933 28.373 25.9369 28.3851 25.8178Z" fill="white"/>
<path d="M26.0744 24.8826C26.3599 25.0287 26.55 25.2204 26.5006 25.5566C26.4641 25.8035 26.2865 25.9695 26.0171 25.9865C25.776 26.0015 25.5341 25.9915 25.2921 25.9923C25.1967 25.9923 25.1344 25.9641 25.1365 25.85C25.1386 25.7359 25.2112 25.7172 25.3025 25.7172H25.8619C26.0101 25.7172 26.147 25.6811 26.191 25.5234C26.235 25.3657 26.1346 25.257 26.0113 25.1843C25.8271 25.0764 25.6333 24.9847 25.4444 24.8839C25.2233 24.7652 25.0734 24.6042 25.0913 24.3278C25.1083 24.0692 25.2664 23.8746 25.5237 23.8568C25.7644 23.8397 26.0068 23.8522 26.2483 23.8501C26.3433 23.8501 26.3894 23.8949 26.3886 23.9879C26.3877 24.0809 26.3346 24.1232 26.2437 24.1232C26.064 24.1232 25.8848 24.1265 25.7042 24.1257C25.5689 24.1257 25.4552 24.1601 25.4137 24.3058C25.3722 24.4514 25.4478 24.5486 25.5652 24.615C25.7291 24.7054 25.8951 24.7888 26.0744 24.8826Z" fill="white"/>
<path d="M27.5737 25.2682C27.5696 25.4724 27.5671 25.6591 27.5667 25.8459C27.5667 25.9355 27.5343 25.9886 27.4347 25.9907C27.3351 25.9928 27.2687 25.9679 27.2637 25.8588C27.2621 25.845 27.2621 25.831 27.2637 25.8173C27.3492 25.3139 27.1139 24.9072 26.8745 24.4992C26.7599 24.3034 26.6599 24.0992 26.5425 23.8813C26.7338 23.8224 26.8716 23.8153 26.9608 24.0187C27.0604 24.2465 27.1799 24.4656 27.2928 24.6864C27.3268 24.7515 27.3517 24.8271 27.4559 24.8702C27.5953 24.5947 27.7464 24.3249 27.8709 24.0431C27.9572 23.8469 28.0829 23.812 28.2996 23.8809C28.0556 24.3436 27.8157 24.7972 27.5737 25.2682Z" fill="white"/>
<path d="M30.457 25.1069C30.457 24.8376 30.4504 24.589 30.4591 24.3413C30.4645 24.1844 30.4176 24.106 30.2479 24.1234C30.165 24.1282 30.0818 24.1282 29.9989 24.1234C29.901 24.1234 29.8678 24.0678 29.8702 23.9761C29.8727 23.8843 29.9159 23.8516 29.9993 23.8516H31.2206C31.3061 23.8516 31.3418 23.896 31.3431 23.981C31.3431 24.074 31.3095 24.1255 31.2119 24.1242C31.205 24.1238 31.1981 24.1238 31.1912 24.1242C30.7641 24.1616 30.7637 24.1616 30.7633 24.5944C30.7633 24.9949 30.7633 25.3949 30.7633 25.795C30.7633 25.8933 30.7708 25.9909 30.6222 25.9938C30.4736 25.9967 30.4562 25.9016 30.4562 25.7904C30.4575 25.5692 30.457 25.3484 30.457 25.1069Z" fill="white"/>
<circle cx="20" cy="20" r="19.5" stroke="black" stroke-opacity="0.05"/>
</svg>
