<svg width="40" height="40" viewBox="0 0 40 40" fill="none" xmlns="http://www.w3.org/2000/svg">
<circle cx="20" cy="20" r="20" fill="#F6F8FA"/>
<path d="M33.5606 17.0783L33.1007 19.6674L31.7548 17.0783H30.4386L29.498 22.3749H30.8893L31.3513 19.7738L32.6951 22.3749H34.0219L34.9627 17.0783H33.5606Z" fill="#005A8B"/>
<path d="M8.17215 20.9007L5.58085 19.3766L5.85295 17.8448L6.97031 17.0712H10.1523L9.91655 18.3984H7.27541C7.18792 18.3984 7.16473 18.5026 7.25108 18.5345L9.84414 20.0235L9.54199 21.7263L8.60646 22.377H4.96289L5.19864 21.05H8.12163C8.23509 21.05 8.26905 20.9651 8.17215 20.9007Z" fill="#005A8B"/>
<path d="M22.2551 20.9007L19.6639 19.3766L19.936 17.8448L21.0534 17.0712H24.2354L23.9996 18.3984H21.3584C21.271 18.3984 21.2478 18.5026 21.3341 18.5345L23.9272 20.0235L23.6249 21.7263L22.6894 22.377H19.0459L19.2817 21.05H22.2048C22.318 21.05 22.3521 20.9651 22.2551 20.9007Z" fill="#005A8B"/>
<path d="M27.2862 20.1745H26.3182L27.0727 18.6521L27.2862 20.1745ZM27.5958 22.38H29.1411L28.265 17.0757H26.4402L23.6797 22.38H25.2251L25.6914 21.4389H27.4636L27.5958 22.38Z" fill="#005A8B"/>
<path d="M17.7452 18.3991L17.2726 21.0596C17.2661 21.0965 17.2307 21.1266 17.1939 21.1266H15.6123C15.5754 21.1266 15.5507 21.0965 15.5573 21.0596L16.0298 18.3991C16.0364 18.3622 16.0718 18.3322 16.1085 18.3322H17.6903C17.727 18.3322 17.7518 18.3622 17.7452 18.3991ZM13.873 18.3991L13.4004 21.0596C13.3939 21.0965 13.3585 21.1266 13.3217 21.1266H11.7402C11.7032 21.1266 11.6785 21.0965 11.6851 21.0596L12.1577 18.3991C12.1643 18.3622 12.1996 18.3322 12.2364 18.3322H13.8181C13.8549 18.3322 13.8797 18.3622 13.873 18.3991ZM18.4837 17H15.7856L15.1091 17.5033L14.6115 17H11.9134L10.7822 17.8418L10.1133 21.6074L10.9455 22.449H13.6435L14.32 21.9457L14.8176 22.449H17.5157L18.647 21.6074L19.3159 17.8418L18.4837 17Z" fill="#005A8B"/>
<path d="M17.7113 18.5741L17.4184 20.2228L18.9846 19.6909L19.3128 17.8429L19.2401 17.7693L17.7113 18.5741ZM13.4396 20.8229L13.3974 21.0607C13.3909 21.0976 13.3556 21.1277 13.3188 21.1277H12.8607L10.7393 22.2445L10.9221 22.4294L15.593 20.8429L15.819 19.5703L13.4396 20.8229Z" fill="url(#paint0_linear_18005_39998)"/>
<path d="M17.3268 17.0011L13.6393 19.715L13.4358 20.8605L15.809 19.6424L16.0296 18.4002C16.0363 18.3633 16.0716 18.3333 16.1084 18.3333H17.6901C17.7268 18.3333 17.7516 18.3633 17.745 18.4002L17.6964 18.6736L19.3154 17.8426L18.4835 17.0011H17.3268ZM10.5146 22.0146L10.7411 22.2436L12.9151 21.1277H11.74C11.7339 21.1277 11.7282 21.1269 11.7228 21.1254L10.5146 22.0146Z" fill="url(#paint1_linear_18005_39998)"/>
<circle cx="20" cy="20" r="19.5" stroke="black" stroke-opacity="0.05"/>
<defs>
<linearGradient id="paint0_linear_18005_39998" x1="8.58485" y1="23.1781" x2="17.0699" y2="19.5963" gradientUnits="userSpaceOnUse">
<stop stop-color="#005A75"/>
<stop offset="1" stop-color="#4BC0F0"/>
</linearGradient>
<linearGradient id="paint1_linear_18005_39998" x1="17.5982" y1="17.8232" x2="10.1526" y2="22.3275" gradientUnits="userSpaceOnUse">
<stop stop-color="#C4D700"/>
<stop offset="0.298975" stop-color="#95C637"/>
<stop offset="0.300613" stop-color="#95C637"/>
<stop offset="0.993508" stop-color="#005B77"/>
<stop offset="1" stop-color="#005B77"/>
</linearGradient>
</defs>
</svg>
