<svg width="40" height="40" viewBox="0 0 40 40" fill="none" xmlns="http://www.w3.org/2000/svg">
<circle cx="20" cy="20" r="20" fill="#0F228B"/>
<g clip-path="url(#clip0_20940_31887)">
<path d="M9.56444 17H11.0956C11.0956 17 11.1067 17.0028 11.1067 17.0084C11.1067 17.0112 11.1067 17.0168 11.1012 17.0168L7.01908 20.0846C7.01908 20.0846 7.01349 20.0958 7.01908 20.1014L10.0646 23.1636C10.0646 23.1636 10.0702 23.1748 10.0646 23.1804C10.0646 23.1804 10.059 23.1832 10.0562 23.1832H8.79887C8.79887 23.1832 8.79329 23.1832 8.79049 23.1804L6.38763 20.7971C6.38763 20.7971 6.37645 20.7915 6.37086 20.7971C6.37086 20.7971 6.37086 20.7999 6.36807 20.8027L5.99088 23.172C5.99088 23.172 5.98529 23.1832 5.9797 23.1804H5.02973C5.02973 23.1804 5.01855 23.1748 5.01855 23.1692L6.00205 17.0112C6.00205 17.0112 6.00764 17 6.01323 17.0028H6.95761C6.95761 17.0028 6.96879 17.0084 6.96879 17.014L6.62233 19.1793C6.62233 19.1793 6.62512 19.1905 6.6335 19.1933C6.6363 19.1933 6.63909 19.1933 6.64188 19.1933L9.55885 17.0056C9.55885 17.0056 9.56444 17.0056 9.56723 17.0056L9.56444 17Z" fill="white"/>
<path d="M5.51599 17.0169L4.56882 23.1749C4.56882 23.1749 4.56043 23.1861 4.55485 23.1861H4.04913C4.04913 23.1861 4.03516 23.1805 4.03516 23.1721L4.95719 17.0141C4.95719 17.0141 4.96557 17.0029 4.97116 17.0029H5.49923C5.49923 17.0029 5.5132 17.0085 5.5132 17.0169H5.51599Z" fill="white"/>
<path d="M15.0098 22.3563C14.9539 22.7083 14.6717 23.0715 14.3309 23.1581C14.2443 23.1805 14.1353 23.1917 14.0012 23.1889C13.163 23.1833 12.3331 23.1833 11.5145 23.1889C11.2379 23.1889 11.0144 23.1358 10.802 22.9709C10.4947 22.7307 10.4528 22.3618 10.517 21.9958C10.6539 21.2079 10.7936 20.4032 10.9305 19.5846C11.0199 19.0593 11.4949 18.8498 11.9979 18.8498C12.8249 18.847 13.6659 18.847 14.5181 18.8498C14.627 18.8498 14.736 18.8721 14.8478 18.9196C15.3535 19.1264 15.4569 19.5958 15.3758 20.0959C15.2473 20.8894 15.1272 21.641 15.0126 22.3563H15.0098ZM12.2745 19.5902C12.0146 19.5902 11.8162 19.7606 11.7715 20.026C11.6626 20.7162 11.5564 21.37 11.4558 21.9874C11.4055 22.3088 11.6793 22.4624 11.9559 22.4568C12.4365 22.4485 12.9646 22.4429 13.5374 22.4457C13.8699 22.4457 14.0626 22.3227 14.1157 21.9847C14.2303 21.2638 14.3337 20.6212 14.4259 20.0624C14.4706 19.7802 14.2722 19.5902 14.0012 19.5902C13.4312 19.5874 12.8528 19.5874 12.2717 19.5902H12.2745Z" fill="white"/>
<path d="M18.6923 21.2357C18.6755 21.2357 18.6727 21.2413 18.6811 21.2553L19.9747 23.1636C19.9747 23.1636 19.9775 23.1776 19.9719 23.1831C19.9719 23.1831 19.9664 23.1831 19.9636 23.1831H19.0555C19.0555 23.1831 19.0331 23.1776 19.0276 23.1692L17.7367 21.2525C17.7367 21.2525 17.7172 21.2357 17.7032 21.2357H17.1304C17.1304 21.2357 17.1109 21.2413 17.1081 21.2553L16.784 23.1748C16.784 23.1748 16.7784 23.1859 16.77 23.1859H15.8507C15.8507 23.1859 15.834 23.1804 15.834 23.1692L16.5185 18.8692C16.5185 18.8692 16.5269 18.8496 16.5409 18.8496C17.4657 18.8496 18.3905 18.8496 19.3209 18.8496C19.7652 18.8496 20.12 19.0703 20.1703 19.5397C20.1787 19.6236 20.1759 19.7102 20.1619 19.794C20.1256 20.0063 20.0949 20.2215 20.0697 20.4338C20.0502 20.5987 20.0139 20.7272 19.9664 20.8166C19.7009 21.2972 19.1561 21.2413 18.6923 21.2385V21.2357ZM19.1896 19.6934C19.1281 19.5816 18.9801 19.59 18.8683 19.59C18.3849 19.59 17.8848 19.59 17.3707 19.59C17.3595 19.59 17.3511 19.5956 17.3511 19.6068L17.2198 20.5065C17.2198 20.5065 17.2226 20.5204 17.231 20.5232C17.8038 20.5232 18.3458 20.5232 18.8571 20.5232C19.0471 20.5232 19.1365 20.4115 19.1533 20.2354C19.1701 20.0846 19.1868 19.9421 19.2064 19.8108C19.212 19.7688 19.2064 19.7297 19.1868 19.6934H19.1896Z" fill="white"/>
<path d="M22.0652 19.6067C21.9338 20.4281 21.8025 21.2467 21.6712 22.0682C21.6433 22.2526 21.7299 22.4538 21.9422 22.4538C22.8503 22.4538 23.7248 22.4538 24.5658 22.4538C24.5826 22.4538 24.5882 22.4622 24.5826 22.4761C24.5127 22.7527 24.3842 22.9539 24.197 23.0852C24.1216 23.1383 24.0266 23.183 23.9316 23.183C23.1101 23.183 22.2971 23.1858 21.4924 23.183C21.1459 23.183 20.7687 23.0293 20.6793 22.6633C20.657 22.5739 20.6654 22.4147 20.7017 22.1883C20.8833 21.0679 21.0593 19.9587 21.2297 18.8662C21.2297 18.8523 21.2409 18.8467 21.2549 18.8467H25.038C25.038 18.8467 25.0492 18.8523 25.0492 18.8579C24.9709 19.182 24.7195 19.5843 24.3535 19.5843C23.6354 19.5843 22.881 19.5843 22.0847 19.5843C22.0735 19.5843 22.0652 19.5899 22.0652 19.6011V19.6067Z" fill="white"/>
<path d="M26.4772 21.2804L26.1726 23.1776C26.1726 23.1776 26.167 23.1859 26.1614 23.1859H25.2338C25.2338 23.1859 25.2227 23.1804 25.2227 23.1748L25.9128 18.8664C25.9128 18.8664 25.9184 18.858 25.924 18.858H26.8516C26.8516 18.858 26.8627 18.8636 26.8627 18.8692L26.5973 20.5176C26.5973 20.5176 26.6001 20.5288 26.6057 20.5288H28.3324C28.3324 20.5288 28.3408 20.526 28.3436 20.5204L28.609 18.858C28.609 18.858 28.6146 18.8496 28.6202 18.8496H29.545C29.545 18.8496 29.5562 18.8552 29.5562 18.8608L28.8689 23.1776C28.8689 23.1776 28.8633 23.1859 28.8577 23.1859H27.9329C27.9329 23.1859 27.9217 23.1804 27.9217 23.1748L28.2234 21.2832C28.2234 21.2832 28.2206 21.272 28.2151 21.272H26.4884C26.4884 21.272 26.48 21.2748 26.4772 21.2804Z" fill="white"/>
<path d="M29.9159 23.172L30.6032 18.8608C30.6032 18.8608 30.6088 18.8496 30.6172 18.8496H31.5392C31.5392 18.8496 31.5532 18.8552 31.5532 18.8636L30.8631 23.1748C30.8631 23.1748 30.8575 23.1859 30.8491 23.1859H29.9271C29.9271 23.1859 29.9131 23.1804 29.9131 23.172H29.9159Z" fill="white"/>
<path d="M33.0227 21.5879L32.7713 23.1749C32.7713 23.1749 32.7657 23.1861 32.7573 23.1861H31.8381C31.8381 23.1861 31.8213 23.1777 31.8213 23.1693L32.5086 18.8693C32.5086 18.8693 32.517 18.8525 32.5282 18.8525C33.4251 18.8525 34.3219 18.8525 35.2216 18.8525C35.5904 18.8525 35.9285 19.0425 36.0179 19.4197C36.0431 19.5287 36.0403 19.674 36.0067 19.8584C35.9704 20.0679 35.9369 20.2775 35.9062 20.4954C35.8754 20.7106 35.8335 20.8754 35.7804 20.9928C35.6547 21.2666 35.4368 21.4929 35.1406 21.546C35.0456 21.5627 34.9394 21.5711 34.8193 21.5683C34.2297 21.5655 33.6402 21.5627 33.0479 21.5683C33.0311 21.5683 33.0227 21.5767 33.0199 21.5907L33.0227 21.5879ZM34.9506 20.5373C34.9841 20.3222 35.0205 20.1015 35.0568 19.8668C35.0903 19.6544 34.8668 19.5874 34.6963 19.5874C34.2409 19.5874 33.7939 19.5874 33.358 19.5874C33.3524 19.5874 33.344 19.593 33.344 19.5985L33.1485 20.8195C33.1485 20.8195 33.1485 20.8279 33.154 20.8279C33.6542 20.8279 34.1347 20.8279 34.5958 20.8279C34.7774 20.8279 34.9199 20.7162 34.9478 20.5345L34.9506 20.5373Z" fill="white"/>
</g>
<circle cx="20" cy="20" r="19.5" stroke="black" stroke-opacity="0.05"/>
<defs>
<clipPath id="clip0_20940_31887">
<rect width="32" height="6.18877" fill="white" transform="translate(4.03516 17)"/>
</clipPath>
</defs>
</svg>
