<svg width="40" height="40" viewBox="0 0 40 40" fill="none" xmlns="http://www.w3.org/2000/svg">
<circle cx="20" cy="20" r="20" fill="#E72B26"/>
<path d="M28.4396 13.3003C30.7224 14.3876 32.1142 16.7004 32.0317 19.2342C31.9198 22.6844 29.0117 25.4022 25.5897 25.3174C24.2485 25.2843 23.0389 24.8709 21.9607 24.0773C21.7327 23.9093 21.4499 23.667 21.1123 23.3506C20.3042 22.5921 19.0491 22.3314 17.9844 22.5304C16.9134 22.7305 15.9634 23.3858 15.4282 24.3524C15.2851 24.6101 15.1598 24.8869 15.0521 25.183C14.7718 25.9547 14.3225 26.6734 13.6062 27.133C12.7514 27.6817 11.8259 27.8482 10.8296 27.6325C9.86118 27.4232 8.97757 26.7668 8.49193 25.8855C7.75943 24.556 7.91458 22.9376 8.90951 21.7806C9.71641 20.8428 10.9023 20.4108 12.1331 20.5705C12.7099 20.6455 13.1874 20.8676 13.6783 21.1733C14.5138 21.6947 15.4163 21.8564 16.3856 21.6583C17.3361 21.4645 18.1161 20.9985 18.7256 20.2602C19.0097 19.9157 19.2035 19.5475 19.307 19.1557C19.3627 18.9458 19.4056 18.6989 19.4356 18.4151C19.495 17.8597 19.6075 17.2916 19.8105 16.7564C21.1267 13.2836 25.1254 11.7217 28.4396 13.3003ZM29.3018 19.0017C29.3018 18.0545 28.9256 17.1461 28.2558 16.4764C27.586 15.8066 26.6776 15.4304 25.7305 15.4304C24.7833 15.4304 23.8749 15.8066 23.2051 16.4764C22.5354 17.1461 22.1591 18.0545 22.1591 19.0017C22.1591 19.9489 22.5354 20.8573 23.2051 21.5271C23.8749 22.1968 24.7833 22.5731 25.7305 22.5731C26.6776 22.5731 27.586 22.1968 28.2558 21.5271C28.9256 20.8573 29.3018 19.9489 29.3018 19.0017Z" fill="white"/>
<circle cx="20" cy="20" r="19.5" stroke="black" stroke-opacity="0.05"/>
</svg>
