<svg width="40" height="40" viewBox="0 0 40 40" fill="none" xmlns="http://www.w3.org/2000/svg">
<circle cx="20" cy="20" r="20" fill="#F6F8FA"/>
<path d="M17.6324 16.7516C17.6142 16.7582 17.5959 16.7632 17.5777 16.7665C17.5463 16.7715 17.5181 16.7847 17.4949 16.8079L14.3889 19.9355L8.02111 13.5727C7.99296 13.5445 7.99296 13.4998 8.02111 13.4717L11.1686 10.3259C11.2033 10.2911 11.2398 10.2911 11.2745 10.3259L17.6324 16.7516Z" fill="#41AB34"/>
<path d="M25.6244 19.9207L22.3958 23.1758L22.366 16.7699C22.366 16.7235 22.3842 16.6805 22.4156 16.6474L28.7503 10.3475C28.795 10.3028 28.8414 10.3028 28.8861 10.3475L31.9689 13.4304C32.0103 13.4701 32.0103 13.5347 31.9689 13.5761L25.6244 19.919V19.9207Z" fill="#53C0E9"/>
<path d="M17.6324 16.7515L17.6275 23.0629C17.6275 23.1209 17.6076 23.1706 17.5662 23.212L11.2514 29.5267C11.2233 29.5549 11.1786 29.5549 11.1504 29.5267L8.046 26.4223C7.99964 26.3776 7.99964 26.3313 8.046 26.2849L14.3889 19.9354L17.495 16.8078C17.5182 16.7846 17.5463 16.7713 17.5778 16.7664C17.596 16.7631 17.6142 16.7581 17.6324 16.7515Z" fill="#94C11F"/>
<path d="M25.6243 19.9204L31.9706 26.27C32.007 26.3047 32.007 26.3627 31.9706 26.3991L28.8629 29.5068C28.8182 29.5499 28.7751 29.5499 28.7321 29.5068L22.3958 23.1755L25.6243 19.9204Z" fill="#00A3CC"/>
<circle cx="20" cy="20" r="19.5" stroke="black" stroke-opacity="0.05"/>
</svg>
