<svg width="40" height="40" viewBox="0 0 40 40" fill="none" xmlns="http://www.w3.org/2000/svg">
<circle cx="20" cy="20" r="20" fill="#D22D29"/>
<g clip-path="url(#clip0_18553_55927)">
<path d="M13.0352 24.1193V11.4783C13.0352 11.4783 13.0352 11.4578 13.0552 11.4578L26.9952 9.73682C26.9952 9.73682 27.0352 9.73682 27.0352 9.7573V30.6958C27.0352 30.6958 27.0352 30.7163 27.0152 30.7163L13.0352 24.1397C13.0352 24.1397 13.0352 24.1397 13.0352 24.1193ZM15.4752 22.3573V22.3778L24.2552 26.4344C24.2552 26.4344 24.2752 26.4344 24.2952 26.4344V12.851C24.2952 12.851 24.2952 12.8305 24.2752 12.8305L15.4952 13.8958C15.4952 13.8958 15.4752 13.8958 15.4752 13.9163V22.3368V22.3573Z" fill="white"/>
</g>
<circle cx="20" cy="20" r="19.5" stroke="black" stroke-opacity="0.05"/>
<defs>
<clipPath id="clip0_18553_55927">
<rect width="14" height="21" fill="white" transform="translate(13.0352 9.73682)"/>
</clipPath>
</defs>
</svg>
