<svg width="40" height="40" viewBox="0 0 40 40" fill="none" xmlns="http://www.w3.org/2000/svg">
<circle cx="20" cy="20" r="20" fill="#F6F8FA"/>
<path d="M10 12.9776V12.211C10.3798 10.3963 12.5275 9.51762 13.9332 10.8602C15.0573 11.9329 14.9755 13.5478 13.7369 14.4896C13.4042 14.7328 13.0137 14.8848 12.6042 14.9305C12.1947 14.9762 11.7803 14.914 11.4022 14.7502C10.6692 14.4386 10.2018 13.8477 10 12.9776Z" fill="#3E85D5"/>
<path d="M19.7967 12.5883C19.7967 13.2149 19.5478 13.8159 19.1047 14.259C18.6616 14.7021 18.0607 14.951 17.434 14.951C16.8074 14.951 16.2064 14.7021 15.7633 14.259C15.3202 13.8159 15.0713 13.2149 15.0713 12.5883C15.0713 11.9617 15.3202 11.3607 15.7633 10.9176C16.2064 10.4745 16.8074 10.2256 17.434 10.2256C18.0607 10.2256 18.6616 10.4745 19.1047 10.9176C19.5478 11.3607 19.7967 11.9617 19.7967 12.5883Z" fill="#3E85D5"/>
<path d="M24.8837 12.5883C24.8837 13.2149 24.6347 13.8159 24.1916 14.259C23.7485 14.7021 23.1476 14.951 22.5209 14.951C21.8943 14.951 21.2933 14.7021 20.8502 14.259C20.4071 13.8159 20.1582 13.2149 20.1582 12.5883C20.1582 11.9617 20.4071 11.3607 20.8502 10.9176C21.2933 10.4745 21.8943 10.2256 22.5209 10.2256C23.1476 10.2256 23.7485 10.4745 24.1916 10.9176C24.6347 11.3607 24.8837 11.9617 24.8837 12.5883Z" fill="#3E85D5"/>
<path d="M29.9686 12.5883C29.9686 12.8986 29.9075 13.2058 29.7888 13.4925C29.67 13.7791 29.496 14.0396 29.2766 14.259C29.0572 14.4784 28.7967 14.6525 28.5101 14.7712C28.2234 14.8899 27.9162 14.951 27.6059 14.951C26.9793 14.951 26.3783 14.7021 25.9352 14.259C25.4921 13.8159 25.2432 13.2149 25.2432 12.5883C25.2432 11.9617 25.4921 11.3607 25.9352 10.9176C26.3783 10.4745 26.9793 10.2256 27.6059 10.2256C27.9162 10.2256 28.2234 10.2867 28.5101 10.4054C28.7967 10.5242 29.0572 10.6982 29.2766 10.9176C29.496 11.137 29.67 11.3975 29.7888 11.6841C29.9075 11.9708 29.9686 12.278 29.9686 12.5883Z" fill="#3E85D5"/>
<path d="M10 18.0606V17.266C10.0417 17.0952 10.0968 16.928 10.1648 16.7659C10.9488 15.1007 13.0311 14.7502 14.2066 16.233C15.0783 17.3396 14.8259 18.7909 13.689 19.6077C13.2561 19.9051 12.7368 20.0508 12.2124 20.0221C11.6879 19.9933 11.1877 19.7917 10.7899 19.4488C10.3804 19.0861 10.1026 18.5979 10 18.0606Z" fill="#3E85D5"/>
<path d="M19.7967 17.6712C19.7967 18.2979 19.5478 18.8988 19.1047 19.3419C18.6616 19.785 18.0607 20.0339 17.434 20.0339C16.8074 20.0339 16.2064 19.785 15.7633 19.3419C15.3202 18.8988 15.0713 18.2979 15.0713 17.6712C15.071 17.3607 15.1319 17.0533 15.2505 16.7663C15.3691 16.4794 15.5431 16.2187 15.7625 15.999C15.9819 15.7794 16.2425 15.6051 16.5293 15.4862C16.8161 15.3673 17.1235 15.3062 17.434 15.3062C17.7445 15.3062 18.0519 15.3673 18.3387 15.4862C18.6255 15.6051 18.8861 15.7794 19.1055 15.999C19.325 16.2187 19.499 16.4794 19.6176 16.7663C19.7362 17.0533 19.7971 17.3607 19.7967 17.6712Z" fill="#3DC8EB"/>
<path d="M24.8837 17.6713C24.883 18.2976 24.6338 18.8979 24.1908 19.3405C23.7478 19.7831 23.1472 20.0317 22.5209 20.0317C21.8947 20.0317 21.2941 19.7831 20.8511 19.3405C20.408 18.8979 20.1588 18.2976 20.1582 17.6713C20.1582 17.0447 20.4071 16.4437 20.8502 16.0006C21.2933 15.5575 21.8943 15.3086 22.5209 15.3086C23.1476 15.3086 23.7485 15.5575 24.1916 16.0006C24.6347 16.4437 24.8837 17.0447 24.8837 17.6713Z" fill="#3E85D5"/>
<path d="M29.9686 17.6712C29.968 18.2974 29.7188 18.8978 29.2758 19.3404C28.8327 19.783 28.2321 20.0316 27.6059 20.0316C27.1385 20.0316 26.6816 19.893 26.293 19.6333C25.9044 19.3735 25.6016 19.0044 25.4228 18.5725C25.244 18.1406 25.1974 17.6655 25.2887 17.2071C25.3801 16.7487 25.6054 16.3277 25.936 15.9974C26.2667 15.667 26.6879 15.4422 27.1464 15.3513C27.6049 15.2604 28.08 15.3075 28.5117 15.4867C28.9434 15.6659 29.3122 15.9691 29.5716 16.3579C29.8309 16.7468 29.9691 17.2038 29.9686 17.6712Z" fill="#B9B9B9"/>
<path d="M10 23.1439V22.3539C10.2945 21.2104 10.9843 20.5541 12.0694 20.385C12.6272 20.2985 13.1725 20.4489 13.7053 20.8361C14.778 21.6131 15.0702 23.0562 14.2604 24.1266C13.9147 24.6136 13.3944 24.9485 12.8079 25.0614C11.4501 25.3173 10.3155 24.4947 10 23.1439Z" fill="#3E85D5"/>
<path d="M19.7967 22.7485C19.7967 23.0587 19.7356 23.366 19.6169 23.6526C19.4982 23.9393 19.3241 24.1998 19.1047 24.4192C18.8853 24.6386 18.6249 24.8126 18.3382 24.9313C18.0515 25.0501 17.7443 25.1112 17.434 25.1112C16.8074 25.1112 16.2064 24.8623 15.7633 24.4192C15.3202 23.9761 15.0713 23.3751 15.0713 22.7485C15.0713 22.1218 15.3202 21.5209 15.7633 21.0778C16.2064 20.6347 16.8074 20.3857 17.434 20.3857C18.0607 20.3857 18.6616 20.6347 19.1047 21.0778C19.5478 21.5209 19.7967 22.1218 19.7967 22.7485Z" fill="#3E85D5"/>
<path d="M24.8837 22.7485C24.8837 23.3751 24.6347 23.9761 24.1916 24.4192C23.7485 24.8623 23.1476 25.1112 22.5209 25.1112C21.8943 25.1112 21.2933 24.8623 20.8502 24.4192C20.4071 23.9761 20.1582 23.3751 20.1582 22.7485C20.1582 22.1218 20.4071 21.5209 20.8502 21.0778C21.2933 20.6347 21.8943 20.3857 22.5209 20.3857C23.1476 20.3857 23.7485 20.6347 24.1916 21.0778C24.6347 21.5209 24.8837 22.1218 24.8837 22.7485Z" fill="#B9B9B9"/>
<path d="M29.9686 22.7485C29.9686 23.3751 29.7197 23.9761 29.2766 24.4192C28.8335 24.8623 28.2325 25.1112 27.6059 25.1112C27.1386 25.1112 26.6818 24.9726 26.2932 24.713C25.9047 24.4534 25.6018 24.0844 25.423 23.6526C25.2442 23.2209 25.1974 22.7458 25.2886 22.2875C25.3797 21.8292 25.6048 21.4082 25.9352 21.0778C26.2656 20.7473 26.6866 20.5223 27.1449 20.4311C27.6033 20.34 28.0783 20.3868 28.5101 20.5656C28.9418 20.7444 29.3108 21.0473 29.5704 21.4358C29.83 21.8244 29.9686 22.2812 29.9686 22.7485Z" fill="#B9B9B9"/>
<path d="M12.7285 30.1745H11.9304C10.8966 29.9151 10.2532 29.2678 10 28.2325V27.4344C10.2282 26.4778 10.7736 25.8546 11.6359 25.5648C12.0217 25.4441 12.4323 25.4263 12.8271 25.5132C13.2218 25.6001 13.587 25.7887 13.8865 26.0602C15.4476 27.4601 14.6974 29.7387 12.7285 30.1745Z" fill="#3E85D5"/>
<path d="M17.811 30.1743H17.0105L16.66 30.0575C16.5419 30.0193 16.4276 29.97 16.3188 29.9103C14.9166 29.1203 14.6396 27.3267 15.7637 26.171C16.1571 25.7575 16.6907 25.5057 17.2599 25.4649C17.8292 25.424 18.3932 25.5971 18.8416 25.9502C20.5453 27.301 19.8746 29.7303 17.811 30.1743Z" fill="#B9B9B9"/>
<path d="M22.8984 30.1745H22.126C20.2984 29.7877 19.5319 27.7206 20.7238 26.3056C22.3106 24.4359 25.1781 25.9246 24.8615 28.1834C24.7224 29.2023 23.9045 29.956 22.8984 30.1745Z" fill="#B9B9B9"/>
<path d="M27.9808 30.1748H27.2131C25.1682 29.7261 24.5256 27.2734 26.1837 25.9541C26.6593 25.5787 27.2639 25.4063 27.866 25.4746C28.4681 25.5429 29.0188 25.8463 29.3983 26.3187C30.0596 27.139 30.1765 27.9865 29.7488 28.8614C29.4084 29.5562 28.8191 29.9941 27.9808 30.1748Z" fill="#B9B9B9"/>
<circle cx="20" cy="20" r="19.5" stroke="black" stroke-opacity="0.05"/>
</svg>
