<svg width="40" height="40" viewBox="0 0 40 40" fill="none" xmlns="http://www.w3.org/2000/svg">
<circle cx="20" cy="20" r="20" fill="#F6F8FA"/>
<path d="M29.1825 26.129L27.3158 26.9392C29.1825 24.4187 29.487 21.0089 28.2714 18.2742L27.9594 17.6405L27.6028 17.041L27.1874 16.4577L26.7309 15.914L26.2228 15.4009L25.679 14.9346L25.0959 14.5115L24.4826 14.1371L23.8425 13.8148L23.181 13.543L22.4999 13.3269L21.8027 13.1649L21.0949 13.0587L20.3799 13.0119L19.6703 13.0245L18.9589 13.0947L18.2688 13.2225L17.5842 13.4079L17.0564 13.597L16.5376 13.8202L16.0419 14.0741L15.5569 14.3639L14.9275 14.805L14.3445 15.2875L13.7989 15.8204L13.305 16.3911L12.8628 17.0014L12.4741 17.6423L12.1425 18.3102L11.8679 19.0033L11.6468 19.7451L11.4917 20.5048L11.4007 21.2807L11.3776 22.0675L11.4239 22.8524L11.538 23.6428L11.7163 24.4151L11.9642 25.1856L10.4094 23.6842C10.1305 21.9076 10.2378 20.3025 10.7303 18.8809L11.1155 17.9141L11.5773 17.0032L12.1229 16.1372L12.7416 15.3397L13.4227 14.6177L14.1662 13.9714L14.9685 13.4043L15.8261 12.92L16.83 12.4898L17.8908 12.1711L18.9803 11.9749L20.1125 11.8975L20.749 11.9101L21.3641 11.9623L21.9721 12.0541L22.5694 12.1819L23.1542 12.3457L23.7373 12.551L24.3043 12.7904L24.8552 13.0641L25.3866 13.3701L25.9036 13.7122L26.3975 14.0849L26.87 14.4863L27.3158 14.9184L27.7294 15.3721L28.1163 15.851L28.4747 16.3551L28.8028 16.8826C30.3377 19.5314 30.6981 22.6184 29.1825 26.129Z" fill="#083F88"/>
<path d="M26.002 27.274C24.9905 27.6265 23.9305 27.8677 22.83 27.996C22.6222 28.0189 22.1563 28.0532 21.4357 28.0986C22.0958 27.6515 22.4771 27.039 22.5768 26.2658C22.5874 26.1855 22.6315 26.1572 22.7088 26.1812C22.8477 26.2256 22.9877 26.2695 23.1278 26.3127L23.4523 26.3811L23.7839 26.3937L24.1334 26.3487L24.4721 26.2514L24.8038 26.102L25.1069 25.9094L25.3708 25.6807L25.5847 25.4215L25.772 25.11L25.9146 24.7788L26.0127 24.4367L26.0644 24.0875L26.0679 23.74L26.0216 23.3961L25.9306 23.0811L25.7916 22.7786L25.4849 22.3591L25.0908 22.0225C25.0221 21.9746 25.0215 21.9252 25.0891 21.8749L25.4831 21.5058L25.7755 21.0809L25.9199 20.7677L26.018 20.44L26.0697 20.1051L26.0751 19.7685L26.0358 19.4336L25.9503 19.1078L25.8201 18.7963L25.6436 18.5029L25.4617 18.2778L25.2513 18.0726L24.7699 17.7521C24.1041 17.4117 23.4034 17.3979 22.6731 17.7107C22.6615 17.7156 22.6488 17.7176 22.6362 17.7163C22.6236 17.7151 22.6115 17.7108 22.6008 17.7037C22.5901 17.6967 22.5812 17.6871 22.5749 17.6757C22.5685 17.6644 22.5649 17.6517 22.5643 17.6387L22.518 17.2624L22.4039 16.906L22.2202 16.5603L21.9813 16.2507L21.6871 15.9788L21.3555 15.7574L20.9935 15.5935L20.6138 15.4945L20.209 15.4603L19.8203 15.4909L19.4334 15.5881L19.0732 15.7448L18.6043 16.0796L18.2263 16.5207L17.966 17.0356L17.8269 17.6225C17.8186 17.6895 17.7828 17.7118 17.72 17.6891C16.5674 17.2767 15.6254 17.5023 14.901 18.3642L14.6906 18.6505L14.5302 18.9511L14.4107 19.2752L14.3447 19.6083L14.3269 19.9143L14.3501 20.2186L14.4143 20.5192L14.5177 20.8145L14.6585 21.0989L14.8386 21.369L15.0526 21.6246L15.304 21.8605C15.3705 21.9156 15.3705 21.9716 15.304 22.0279C14.5443 22.6645 14.232 23.4256 14.3697 24.3053L14.4624 24.7014L14.6104 25.0632L14.8172 25.4053L15.0704 25.7023L15.3664 25.9544L15.6963 26.1524L16.0546 26.2929L16.4344 26.3721L16.75 26.3883L17.0727 26.3577L17.3812 26.2874L17.6879 26.1722C17.7018 26.1659 17.717 26.163 17.7323 26.1637C17.7475 26.1644 17.7624 26.1686 17.7757 26.1762C17.7891 26.1837 17.8005 26.1942 17.8091 26.207C17.8176 26.2197 17.8232 26.2344 17.8251 26.2496C17.9142 26.9281 18.2413 27.5009 18.804 27.9636C16.9376 27.7165 15.2211 27.1576 13.6672 26.2911C12.3151 24.111 12.0052 21.8597 12.74 19.5542L13.1127 18.6019L13.521 17.8349L14.006 17.1256L14.5623 16.4739L15.181 15.8888L15.8674 15.3685L16.6074 14.9256L17.3794 14.5728L18.1907 14.3045L18.9003 14.1479L19.6295 14.0597L20.5478 14.0435L21.4357 14.1281L22.3112 14.3171L23.1456 14.6016L23.7269 14.868L24.2814 15.1795L24.8198 15.5467L25.3244 15.9554L25.7916 16.4037L26.2231 16.8916L26.6135 17.4137L26.9594 17.9664L27.2572 18.5371L27.5104 19.1348L27.7154 19.7541L27.8723 20.395L27.9757 21.0413L28.0274 21.7038V22.3591L27.9757 23.0235C27.794 24.5563 27.1345 25.9767 26.002 27.274Z" fill="#083F88"/>
<path d="M21.4357 28.0987L18.804 27.9637C18.2413 27.501 17.9142 26.9283 17.8251 26.2498C17.8231 26.2345 17.8176 26.2199 17.8091 26.2071C17.8005 26.1944 17.7891 26.1838 17.7757 26.1763C17.7624 26.1688 17.7475 26.1645 17.7322 26.1638C17.717 26.1631 17.7018 26.1661 17.6878 26.1724L17.3812 26.2876L17.0727 26.3578L16.75 26.3884L16.4344 26.3722L16.0546 26.293L15.6962 26.1526L15.3664 25.9545L15.0704 25.7025L14.8172 25.4054L14.6104 25.0634L14.4624 24.7015L14.3697 24.3054C14.232 23.4257 14.5442 22.6647 15.304 22.028C15.3705 21.9717 15.3705 21.9157 15.304 21.8606L15.0526 21.6248L14.8386 21.3691L14.6585 21.0991L14.5177 20.8146L14.4143 20.5194L14.3501 20.2187L14.3269 19.9144L14.3447 19.6084L14.4107 19.2753L14.5302 18.9513L14.6906 18.6506L14.901 18.3644C15.6254 17.5024 16.5674 17.2768 17.7199 17.6892C17.7828 17.712 17.8186 17.6897 17.8269 17.6226L17.966 17.0357L18.2263 16.5208L18.6043 16.0798L19.0732 15.7449L19.4334 15.5883L19.8203 15.4911L20.209 15.4604L20.6137 15.4947L20.9935 15.5937L21.3555 15.7575L21.6871 15.9789L21.9813 16.2508L22.2202 16.5604L22.4039 16.9061L22.518 17.2626L22.5643 17.6388C22.5649 17.6519 22.5685 17.6646 22.5749 17.6759C22.5812 17.6872 22.5901 17.6968 22.6008 17.7039C22.6114 17.7109 22.6236 17.7153 22.6362 17.7165C22.6488 17.7177 22.6614 17.7158 22.6731 17.7109C23.4034 17.398 24.1041 17.4118 24.7699 17.7523L25.2513 18.0727L25.4617 18.278L25.6436 18.503L25.8201 18.7964L25.9502 19.1079L26.0358 19.4338L26.0751 19.7686L26.0697 20.1053L26.018 20.4401L25.9199 20.7678L25.7755 21.0811L25.4831 21.5059L25.0891 21.875C25.0215 21.9253 25.0221 21.9747 25.0908 22.0226L25.4849 22.3593L25.7916 22.7788L25.9306 23.0812L26.0216 23.3963L26.0679 23.7401L26.0644 24.0876L26.0126 24.4369L25.9146 24.7789L25.7719 25.1102L25.5847 25.4216L25.3708 25.6809L25.1069 25.9095L24.8038 26.1022L24.4721 26.2516L24.1334 26.3488L23.7839 26.3938L23.4523 26.3812L23.1278 26.3128C22.9877 26.2696 22.8477 26.2257 22.7088 26.1814C22.6315 26.1573 22.5874 26.1856 22.5768 26.266C22.4771 27.0392 22.0958 27.6516 21.4357 28.0987ZM21.803 17.8819C21.803 17.455 21.6351 17.0456 21.3361 16.7438C21.0372 16.442 20.6318 16.2724 20.209 16.2724C19.7862 16.2724 19.3808 16.442 19.0819 16.7438C18.7829 17.0456 18.615 17.455 18.615 17.8819C18.615 18.3087 18.7829 18.7181 19.0819 19.02C19.3808 19.3218 19.7862 19.4914 20.209 19.4914C20.6318 19.4914 21.0372 19.3218 21.3361 19.02C21.6351 18.7181 21.803 18.3087 21.803 17.8819ZM18.3315 19.909C18.3315 19.6977 18.2903 19.4884 18.2102 19.2931C18.1301 19.0978 18.0127 18.9204 17.8646 18.771C17.7166 18.6215 17.5409 18.503 17.3475 18.4221C17.1541 18.3412 16.9468 18.2996 16.7375 18.2996C16.5282 18.2996 16.3209 18.3412 16.1275 18.4221C15.9341 18.503 15.7584 18.6215 15.6104 18.771C15.4624 18.9204 15.345 19.0978 15.2649 19.2931C15.1847 19.4884 15.1435 19.6977 15.1435 19.909C15.1435 20.3359 15.3115 20.7453 15.6104 21.0471C15.9093 21.349 16.3148 21.5185 16.7375 21.5185C17.1603 21.5185 17.5657 21.349 17.8646 21.0471C18.1636 20.7453 18.3315 20.3359 18.3315 19.909ZM25.2745 19.909C25.2745 19.6977 25.2333 19.4884 25.1532 19.2931C25.073 19.0978 24.9556 18.9204 24.8076 18.771C24.6596 18.6215 24.4839 18.503 24.2905 18.4221C24.0971 18.3412 23.8898 18.2996 23.6805 18.2996C23.4712 18.2996 23.2639 18.3412 23.0705 18.4221C22.8771 18.503 22.7014 18.6215 22.5534 18.771C22.4053 18.9204 22.2879 19.0978 22.2078 19.2931C22.1277 19.4884 22.0865 19.6977 22.0865 19.909C22.0865 20.3359 22.2544 20.7453 22.5534 21.0471C22.8523 21.349 23.2577 21.5185 23.6805 21.5185C24.1032 21.5185 24.5087 21.349 24.8076 21.0471C25.1066 20.7453 25.2745 20.3359 25.2745 19.909ZM21.803 21.9344C21.803 21.5075 21.6351 21.0982 21.3361 20.7963C21.0372 20.4945 20.6318 20.3249 20.209 20.3249C19.7862 20.3249 19.3808 20.4945 19.0819 20.7963C18.7829 21.0982 18.615 21.5075 18.615 21.9344C18.615 22.3613 18.7829 22.7707 19.0819 23.0725C19.3808 23.3743 19.7862 23.5439 20.209 23.5439C20.6318 23.5439 21.0372 23.3743 21.3361 23.0725C21.6351 22.7707 21.803 22.3613 21.803 21.9344ZM18.3315 23.9634C18.3315 23.537 18.1638 23.1281 17.8652 22.8266C17.5666 22.5251 17.1616 22.3557 16.7393 22.3557C16.317 22.3557 15.912 22.5251 15.6134 22.8266C15.3148 23.1281 15.1471 23.537 15.1471 23.9634C15.1471 24.3898 15.3148 24.7987 15.6134 25.1002C15.912 25.4017 16.317 25.5711 16.7393 25.5711C17.1616 25.5711 17.5666 25.4017 17.8652 25.1002C18.1638 24.7987 18.3315 24.3898 18.3315 23.9634ZM25.2745 23.9616C25.2745 23.5352 25.1067 23.1263 24.8081 22.8248C24.5095 22.5233 24.1046 22.3539 23.6823 22.3539C23.26 22.3539 22.855 22.5233 22.5564 22.8248C22.2578 23.1263 22.0901 23.5352 22.0901 23.9616C22.0901 24.388 22.2578 24.7969 22.5564 25.0984C22.855 25.3999 23.26 25.5693 23.6823 25.5693C23.8914 25.5693 24.0984 25.5277 24.2916 25.4469C24.4848 25.3661 24.6603 25.2477 24.8081 25.0984C24.956 24.9491 25.0733 24.7719 25.1533 24.5768C25.2333 24.3818 25.2745 24.1727 25.2745 23.9616ZM21.803 25.9887C21.803 25.5619 21.6351 25.1525 21.3361 24.8507C21.0372 24.5488 20.6318 24.3792 20.209 24.3792C19.7862 24.3792 19.3808 24.5488 19.0819 24.8507C18.7829 25.1525 18.615 25.5619 18.615 25.9887C18.615 26.4156 18.7829 26.825 19.0819 27.1268C19.3808 27.4287 19.7862 27.5982 20.209 27.5982C20.6318 27.5982 21.0372 27.4287 21.3361 27.1268C21.6351 26.825 21.803 26.4156 21.803 25.9887Z" fill="#BABBBD"/>
<path d="M29.1255 26.3848L28.5424 27.4055L27.8488 28.3561L27.0697 29.1987L26.1907 29.9566L25.6522 30.3401L25.0941 30.6839L24.5182 30.99L23.9263 31.2546L23.3111 31.4851L22.6853 31.6723L22.0488 31.8181L21.4051 31.9208L20.7614 31.982L20.1142 32L19.4652 31.9766L18.818 31.9082L18.1868 31.8001L17.561 31.6489L16.9423 31.4545L16.3361 31.2186L15.778 30.9576L15.2324 30.6587L14.7153 30.3311L14.2143 29.9656L13.7311 29.5677L13.2675 29.1321L12.8343 28.673L11.7983 27.4794C12.7374 27.9419 13.1284 28.2093 14.0271 28.4695C14.4889 28.834 16.1233 29.9167 16.6196 30.1276C19.0649 31.1693 21.5048 31.1441 23.9209 30.052C24.904 29.6084 25.7638 28.9857 26.4938 28.1887C27.4067 27.684 28.2861 27.0812 29.1255 26.3848Z" fill="#083F88"/>
<path d="M7.43016 22.3484C6.07508 18.6758 8.52967 14.9371 9.92635 13.5269C7.07357 18.3877 9.48059 22.5285 11.2636 24.2448C13.5035 26.4009 16.9692 27.9355 21.2484 28.1155C24.6717 28.2595 29.0935 26.3992 31.144 24.5088C28.0059 29.1176 22.3969 30.0803 19.1979 29.8198C13.6706 29.3697 9.124 26.9393 7.43016 22.3484Z" fill="url(#paint0_linear_19604_31082)"/>
<path d="M33.6402 15.6364C34.9952 19.3091 32.5406 23.0478 31.144 24.458C33.9967 19.5971 31.5897 15.4564 29.8067 13.7401C27.5668 11.5839 24.3686 9.92634 20.0894 9.7463C16.6661 9.60228 12.4225 10.5564 9.92634 13.476C13.0644 8.86721 18.6734 7.77551 21.8724 8.036C27.3997 8.48608 31.9463 11.0456 33.6402 15.6364Z" fill="url(#paint1_linear_19604_31082)"/>
<circle cx="20" cy="20" r="19.5" stroke="black" stroke-opacity="0.05"/>
<defs>
<linearGradient id="paint0_linear_19604_31082" x1="11.0853" y1="16.1373" x2="23.6816" y2="28.0778" gradientUnits="userSpaceOnUse">
<stop stop-color="#74BA39"/>
<stop offset="1" stop-color="#C3D626"/>
</linearGradient>
<linearGradient id="paint1_linear_19604_31082" x1="29.985" y1="21.8475" x2="17.3887" y2="9.90709" gradientUnits="userSpaceOnUse">
<stop stop-color="#0C377D"/>
<stop offset="1" stop-color="#006DB9"/>
</linearGradient>
</defs>
</svg>
