<svg width="40" height="40" viewBox="0 0 40 40" fill="none" xmlns="http://www.w3.org/2000/svg">
<circle cx="20" cy="20" r="20" fill="#0F3192"/>
<path d="M18.3214 21.5124C17.8396 21.65 17.3406 21.718 16.8396 21.7145C15.6111 21.7145 14.4319 21.7145 13.3022 21.7145C13.2362 21.7145 13.2133 21.6835 13.2321 21.6215L13.8046 19.7033C13.8098 19.6796 13.8235 19.6585 13.8431 19.6441C13.8627 19.6297 13.8869 19.623 13.9111 19.6252C14.8208 19.636 15.7808 19.636 16.7911 19.6252C18.1611 19.609 19.5418 18.9853 19.6536 17.4807C19.7047 16.704 19.4595 15.9368 18.9672 15.3338C18.475 14.7308 17.7724 14.3369 17.0012 14.2316C16.4153 14.1545 15.8197 14.2481 15.2857 14.5011C14.7516 14.7542 14.302 15.1559 13.9905 15.6581C13.7632 16.0732 13.5881 16.5148 13.4692 16.9728C12.3862 20.6458 11.2924 24.3071 10.1878 27.9568C10.1826 27.9737 10.172 27.9885 10.1577 27.999C10.1433 28.0094 10.126 28.0149 10.1083 28.0147H8.07289C8.0637 28.0149 8.05455 28.0133 8.04598 28.0099C8.03742 28.0065 8.0296 28.0015 8.02297 27.9952C8.01634 27.9888 8.01103 27.9811 8.00734 27.9727C8.00366 27.9643 8.00168 27.9552 8.0015 27.946C7.9995 27.9385 7.9995 27.9306 8.0015 27.9231C9.15099 24.1379 10.2969 20.3086 11.4392 16.4354C11.6835 15.6083 11.9246 14.9998 12.1626 14.6101C12.5256 14.0127 13.0051 13.4945 13.5725 13.0862C14.14 12.678 14.7838 12.3881 15.4656 12.2339C15.9855 12.1368 16.5142 12.0943 17.043 12.1072C20.3568 12.1261 23.2916 12.1288 25.8474 12.1153C25.8898 12.114 25.9319 12.1227 25.9703 12.1407C26.0087 12.1588 26.0423 12.1856 26.0683 12.219L26.7136 13.0273C26.754 13.0771 26.793 13.0771 26.8321 13.0273L27.4571 12.2029C27.4754 12.1788 27.499 12.1593 27.5262 12.146C27.5533 12.1326 27.5832 12.1258 27.6134 12.1261H31.9482C31.9617 12.1264 31.9745 12.1319 31.9841 12.1415C31.9936 12.151 31.9991 12.1638 31.9994 12.1773C32.0002 12.1817 32.0002 12.1863 31.9994 12.1908C30.8374 16.0523 29.6699 19.9656 28.4971 23.9304C28.3404 24.5151 28.1057 25.076 27.7993 25.5981C26.0037 28.4269 22.077 28.8687 19.7452 26.5047C18.4368 25.1791 17.9877 23.5411 18.3981 21.5906C18.4116 21.5124 18.3847 21.4949 18.3214 21.5124ZM26.7728 18.491L26.1869 20.455C26.1822 20.4701 26.1726 20.4833 26.1598 20.4926C26.1469 20.5018 26.1313 20.5066 26.1155 20.5062C24.9749 20.4981 23.9539 20.4981 23.0522 20.5062C22.244 20.517 21.2324 20.8685 20.7407 21.5367C20.1655 22.3193 20.2423 23.4589 20.6854 24.2712C21.7981 26.3147 24.6674 26.5383 25.97 24.5326C26.1973 24.1506 26.3705 23.739 26.4846 23.3094C27.5999 19.5296 28.6812 15.9127 29.7283 12.4588C29.7306 12.4515 29.7314 12.4438 29.7306 12.4361C29.7299 12.4285 29.7276 12.421 29.724 12.4143C29.7204 12.4075 29.7154 12.4015 29.7094 12.3967C29.7035 12.3918 29.6966 12.3882 29.6892 12.3861H29.6731H27.9488C27.9052 12.3862 27.8622 12.3962 27.823 12.4153C27.7838 12.4344 27.7494 12.4622 27.7225 12.4965L26.9345 13.5163C26.9186 13.5371 26.8988 13.5545 26.8762 13.5676C26.8536 13.5807 26.8286 13.5892 26.8026 13.5925C26.7767 13.5959 26.7504 13.5941 26.7251 13.5873C26.6999 13.5804 26.6763 13.5687 26.6556 13.5526C26.6435 13.5433 26.6327 13.5324 26.6233 13.5203L25.7935 12.4871C25.768 12.4548 25.7354 12.4288 25.6983 12.4111C25.6612 12.3933 25.6205 12.3843 25.5793 12.3847C23.2103 12.3847 20.936 12.3847 18.7565 12.3847C18.355 12.3847 18.346 12.4449 18.7295 12.5652C18.8934 12.6204 19.05 12.6955 19.1956 12.7889C20.927 13.8782 21.7824 15.439 21.7618 17.4712C21.7475 17.8363 21.6887 18.1982 21.5866 18.5489C21.5691 18.6162 21.5866 18.6405 21.6607 18.6216C22.0549 18.5055 22.4623 18.4403 22.8731 18.4277C23.9373 18.4124 25.2174 18.4101 26.7136 18.4209C26.7688 18.4209 26.7863 18.4452 26.7728 18.4923V18.491Z" fill="#DAB828"/>
<path d="M13.1681 27.1147L12.5377 27.9378C12.5198 27.9623 12.4962 27.9821 12.469 27.9955C12.4418 28.0088 12.4117 28.0154 12.3814 28.0146H12.112C12.0231 28.0146 12.0056 27.9796 12.0608 27.9095L13.0603 26.6312C13.0948 26.5878 13.145 26.5598 13.2 26.5532C13.255 26.5467 13.3103 26.5621 13.354 26.5961C13.3658 26.6059 13.3766 26.6167 13.3863 26.6285L14.4465 27.9297C14.4936 27.989 14.4801 28.0186 14.4034 28.0186H14.1232C14.0887 28.0195 14.0546 28.0123 14.0235 27.9976C13.9923 27.9828 13.9651 27.961 13.944 27.9338L13.284 27.1174C13.2449 27.0649 13.2058 27.0663 13.1681 27.1147Z" fill="#DAB828"/>
<circle cx="20" cy="20" r="19.5" stroke="black" stroke-opacity="0.05"/>
</svg>
