<svg width="40" height="40" viewBox="0 0 40 40" fill="none" xmlns="http://www.w3.org/2000/svg">
<circle cx="20" cy="20" r="20" fill="#D1372C"/>
<g clip-path="url(#clip0_16523_10730)">
<path d="M29.4588 21.7107C29.5334 21.2272 29.576 20.7276 29.576 20.2226C29.576 16.1289 27.0508 12.6262 23.4815 11.2187L24.7494 9.01074L19.9867 10.5579L15.24 9L16.5132 11.2134C12.9385 12.6155 10.4027 16.1182 10.4027 20.2226C10.4027 20.7276 10.4453 21.2272 10.5145 21.7107H8L11.6759 25.0307C11.6919 25.0629 11.7132 25.0952 11.7292 25.1274L12.784 30L14.036 27.792C15.6715 29.1028 17.7385 29.8818 19.9867 29.8818C22.2348 29.8818 24.3179 29.0975 25.9534 27.7813L27.2107 29.9946L28.2708 25.0683L31.9893 21.7107H29.4482M27.493 21.7107H22.5065L24.9785 26.0675C23.636 27.2333 21.8886 27.9424 19.976 27.9424C18.0635 27.9424 16.3374 27.2441 14.9949 26.0837L17.4828 21.7053H12.4537C12.3632 21.2218 12.3099 20.7222 12.3099 20.2118C12.3099 16.8166 14.4728 13.9424 17.4881 12.9002L19.9973 17.2625L22.4959 12.9163C25.4899 13.9693 27.6368 16.8381 27.6368 20.2118C27.6368 20.7222 27.5889 21.2164 27.493 21.7053V21.7107Z" fill="white"/>
</g>
<circle cx="20" cy="20" r="19.5" stroke="black" stroke-opacity="0.05"/>
<defs>
<clipPath id="clip0_16523_10730">
<rect width="24" height="21" fill="white" transform="translate(8 9)"/>
</clipPath>
</defs>
</svg>
