<svg width="40" height="40" viewBox="0 0 40 40" fill="none" xmlns="http://www.w3.org/2000/svg">
<circle cx="20" cy="20" r="20" fill="#E1251B"/>
<path d="M19.9934 13.25C11.1671 13.25 4 16.2705 4 20.0013C4 23.7321 11.1565 26.75 19.9934 26.75C28.8303 26.75 36 23.7242 36 20.0119C36 16.2996 28.8435 13.25 19.9934 13.25Z" fill="white"/>
<path d="M32.2415 16.6322C32.6735 16.6613 32.9836 16.9808 32.9147 17.3372C32.8506 17.5274 32.7231 17.69 32.5534 17.7981C32.3836 17.9062 32.1819 17.9532 31.9817 17.9313C31.8905 17.9345 31.7997 17.9181 31.7154 17.8832C31.6311 17.8483 31.5553 17.7958 31.4932 17.7292C31.4311 17.6625 31.3841 17.5834 31.3555 17.4971C31.3268 17.4108 31.3171 17.3193 31.327 17.2289C31.3887 17.0408 31.5129 16.8792 31.6791 16.7708C31.8453 16.6623 32.0437 16.6134 32.2415 16.6322Z" fill="#E1251B"/>
<path d="M32.4961 18.3695H31.3245C31.309 18.3707 31.2943 18.3767 31.2824 18.3866C31.2705 18.3966 31.2621 18.41 31.2583 18.4249L30.3544 22.6521C30.3523 22.6584 30.3518 22.6651 30.3528 22.6717C30.3538 22.6782 30.3563 22.6845 30.3602 22.6899C30.3641 22.6953 30.3692 22.6997 30.3751 22.7028C30.381 22.7058 30.3875 22.7075 30.3942 22.7076H31.5684C31.584 22.7068 31.5989 22.701 31.6109 22.6909C31.6228 22.6809 31.6312 22.6673 31.6346 22.6521L32.5544 18.4276C32.5575 18.4195 32.5583 18.4106 32.5565 18.4021C32.5547 18.3936 32.5504 18.3858 32.5442 18.3796C32.538 18.3734 32.5302 18.3692 32.5217 18.3674C32.5131 18.3656 32.5042 18.3663 32.4961 18.3695Z" fill="#E1251B"/>
<path d="M28.8781 18.256C28.5973 18.2508 28.319 18.3092 28.0642 18.4268C27.8094 18.5443 27.5847 18.7179 27.407 18.9346C27.2772 18.5042 26.9008 18.256 26.3468 18.256C26.0803 18.2473 25.8151 18.2966 25.5697 18.4006C25.3243 18.5046 25.1047 18.6607 24.9261 18.858L25.0189 18.425C25.0211 18.4184 25.0216 18.4115 25.0204 18.4047C25.0193 18.398 25.0165 18.3916 25.0124 18.3861C25.0082 18.3807 25.0027 18.3763 24.9965 18.3734C24.9902 18.3705 24.9834 18.3692 24.9765 18.3695H23.8606C23.8455 18.3708 23.8311 18.3769 23.8197 18.3869C23.8083 18.3969 23.8003 18.4102 23.797 18.425L22.9144 22.6521C22.9128 22.6586 22.9127 22.6654 22.914 22.6719C22.9154 22.6785 22.9182 22.6846 22.9223 22.6899C22.9264 22.6952 22.9316 22.6996 22.9375 22.7026C22.9435 22.7057 22.9501 22.7074 22.9568 22.7076H24.123C24.1384 22.706 24.1529 22.6999 24.1647 22.69C24.1765 22.6801 24.1851 22.6669 24.1893 22.6521L24.6637 20.392C24.7803 19.864 25.1249 19.2646 25.7239 19.2646C25.7809 19.2596 25.8383 19.266 25.8927 19.2837C25.9471 19.3013 25.9974 19.3297 26.0405 19.3672C26.0836 19.4047 26.1186 19.4505 26.1435 19.5018C26.1683 19.5532 26.1825 19.609 26.1851 19.6659C26.1824 19.7429 26.1745 19.8197 26.1613 19.8956V19.9643L25.5781 22.6521C25.5766 22.6586 25.5765 22.6654 25.5778 22.6719C25.5792 22.6785 25.582 22.6846 25.5861 22.6899C25.5902 22.6952 25.5954 22.6996 25.6013 22.7026C25.6073 22.7057 25.6139 22.7074 25.6206 22.7076H26.7948C26.8101 22.706 26.8246 22.6999 26.8365 22.69C26.8483 22.6801 26.8568 22.6669 26.861 22.6521L27.3355 20.392C27.4521 19.864 27.794 19.2646 28.3824 19.2646C28.4394 19.2596 28.4968 19.266 28.5512 19.2837C28.6056 19.3013 28.6559 19.3297 28.699 19.3672C28.7421 19.4047 28.7771 19.4505 28.802 19.5018C28.8268 19.5532 28.841 19.609 28.8436 19.6659C28.8409 19.7429 28.833 19.8197 28.8198 19.8956V19.9643L28.2499 22.6521C28.2477 22.6587 28.2472 22.6656 28.2483 22.6724C28.2495 22.6791 28.2523 22.6855 28.2564 22.691C28.2606 22.6965 28.2661 22.7008 28.2723 22.7037C28.2786 22.7066 28.2854 22.7079 28.2923 22.7076H29.4585C29.4737 22.7063 29.488 22.7002 29.4994 22.6902C29.5109 22.6803 29.5188 22.6669 29.5222 22.6521L30.0867 20.0118C30.1347 19.8251 30.1631 19.634 30.1715 19.4415C30.1689 18.6705 29.6891 18.256 28.8781 18.256Z" fill="#E1251B"/>
<path d="M21.3372 18.256C21.0704 18.2498 20.8054 18.3006 20.5599 18.4049C20.3144 18.5092 20.0941 18.6646 19.9139 18.8606C19.9351 18.7735 20.0119 18.425 20.0119 18.425C20.0135 18.4185 20.0136 18.4117 20.0123 18.4052C20.0109 18.3987 20.0081 18.3925 20.004 18.3872C19.9999 18.3819 19.9947 18.3775 19.9888 18.3745C19.9828 18.3714 19.9762 18.3697 19.9695 18.3695H18.8537C18.8382 18.3707 18.8235 18.3767 18.8116 18.3866C18.7997 18.3966 18.7912 18.41 18.7874 18.425L17.8995 22.6521C17.8979 22.6586 17.8978 22.6654 17.8991 22.6719C17.9005 22.6785 17.9033 22.6846 17.9074 22.6899C17.9115 22.6952 17.9167 22.6996 17.9226 22.7026C17.9286 22.7057 17.9352 22.7074 17.9419 22.7076H19.1081C19.1233 22.7063 19.1376 22.7002 19.149 22.6902C19.1604 22.6803 19.1684 22.6669 19.1717 22.6521L19.6488 20.4079C19.7204 20.0646 19.9748 19.2646 20.7939 19.2646C21.0351 19.2646 21.3054 19.423 21.3054 19.6501C21.2963 19.8201 21.2714 19.9889 21.2312 20.1544L20.9661 21.4006L20.7011 22.6521C20.6989 22.6587 20.6984 22.6656 20.6995 22.6724C20.7007 22.6791 20.7034 22.6855 20.7076 22.691C20.7118 22.6965 20.7172 22.7008 20.7235 22.7037C20.7297 22.7066 20.7366 22.7079 20.7435 22.7076H21.9071C21.9227 22.7068 21.9376 22.701 21.9496 22.691C21.9615 22.681 21.9699 22.6673 21.9733 22.6521L22.5035 20.1782C22.5676 19.935 22.6101 19.6868 22.6307 19.4362C22.636 18.6916 22.1748 18.256 21.3372 18.256Z" fill="#E1251B"/>
<path d="M17.4462 18.6705C17.266 18.4434 16.8472 18.256 15.9911 18.256C15.3329 18.287 14.6823 18.4106 14.0588 18.623C14.042 18.629 14.0268 18.6388 14.0144 18.6516C14.002 18.6645 13.9927 18.6799 13.9873 18.6969L13.8044 19.5761C13.8044 19.6052 13.8203 19.621 13.8521 19.6105C14.4152 19.4036 15.0019 19.267 15.5988 19.2039C15.8453 19.188 16.5371 19.2461 16.4973 19.6606C16.4996 19.6888 16.4996 19.717 16.4973 19.7451C16.4973 19.7451 16.4973 19.8006 16.4708 19.8719C15.9227 19.8406 15.3728 19.8877 14.8381 20.0118C13.7169 20.2626 13.1683 20.8461 13.1232 21.6646C13.0914 22.235 13.5685 22.8317 14.5598 22.8317C15.0679 22.8283 15.56 22.6544 15.9566 22.3379L15.8877 22.6627C15.8861 22.6692 15.886 22.6759 15.8874 22.6825C15.8888 22.689 15.8916 22.6952 15.8957 22.7005C15.8997 22.7058 15.9049 22.7101 15.9109 22.7132C15.9168 22.7162 15.9234 22.7179 15.9301 22.7181H17.0036C17.0189 22.7166 17.0335 22.7105 17.0453 22.7006C17.0571 22.6907 17.0657 22.6775 17.0699 22.6627L17.6 20.1491C17.6587 19.9106 17.6977 19.6678 17.7166 19.423C17.7289 19.1466 17.6318 18.8764 17.4462 18.6705ZM16.2164 20.9544C16.0812 21.3795 15.4053 21.8442 14.9362 21.8785C14.6075 21.9049 14.3159 21.7887 14.3159 21.5168C14.3159 21.1735 14.7533 20.928 15.294 20.8065C15.6213 20.7273 15.9565 20.6848 16.2932 20.6798V20.6983L16.2164 20.9544Z" fill="#E1251B"/>
<path d="M13.2054 17.0308H11.9543C11.9389 17.031 11.9241 17.0363 11.9121 17.0459C11.9001 17.0554 11.8916 17.0687 11.8881 17.0836L11.4242 19.2197H9.1686L9.62184 17.0836C9.62417 17.0773 9.62481 17.0704 9.6237 17.0637C9.62259 17.057 9.61978 17.0507 9.61552 17.0454C9.61126 17.0401 9.6057 17.036 9.59939 17.0334C9.59307 17.0309 9.5862 17.03 9.57943 17.0308H8.32838C8.31288 17.0305 8.29775 17.0356 8.28564 17.0453C8.27354 17.0549 8.26521 17.0685 8.26211 17.0836L7.07732 22.6521C7.07574 22.6586 7.07563 22.6654 7.07701 22.6719C7.07838 22.6784 7.08121 22.6846 7.08527 22.6899C7.08933 22.6952 7.09453 22.6995 7.1005 22.7026C7.10646 22.7057 7.11303 22.7073 7.11973 22.7075H8.37078C8.38592 22.7062 8.40025 22.7002 8.41169 22.6902C8.42313 22.6802 8.43108 22.6669 8.4344 22.6521L8.9115 20.3946H11.1698L10.6927 22.6521C10.6906 22.6584 10.69 22.6651 10.691 22.6717C10.692 22.6782 10.6946 22.6845 10.6984 22.6899C10.7023 22.6953 10.7074 22.6997 10.7133 22.7028C10.7192 22.7058 10.7258 22.7075 10.7324 22.7075H11.9835C11.9991 22.7068 12.014 22.7009 12.026 22.6909C12.0379 22.6809 12.0463 22.6673 12.0497 22.6521L13.2345 17.0731C13.2355 17.0637 13.2331 17.0544 13.2277 17.0466C13.2224 17.0389 13.2145 17.0333 13.2054 17.0308Z" fill="#E1251B"/>
<circle cx="20" cy="20" r="19.5" stroke="black" stroke-opacity="0.05"/>
</svg>
