<svg width="40" height="40" viewBox="0 0 40 40" fill="none" xmlns="http://www.w3.org/2000/svg">
<circle cx="20" cy="20" r="20" fill="#F6F8FA"/>
<path d="M25.424 21.7104C25.69 21.8874 26.1049 22.077 26.8322 22.077C27.3351 22.077 27.8796 22.0025 28.3293 21.7849L28.3699 21.7307C28.4454 21.3971 28.9686 19.1581 28.9686 19.1581C28.1707 19.7036 27.7384 19.899 27.0304 20.0005L26.8728 20.3293C27.131 20.3806 27.4018 20.4096 27.7084 20.3932C27.691 20.4667 27.5382 21.0769 27.5382 21.0769C27.4018 21.1108 27.0991 21.1388 26.9221 21.1388C26.63 21.1388 26.337 21.0576 26.1329 20.8468C25.8882 20.5885 25.8602 20.2684 25.8602 20.0576C25.8602 19.4521 26.1871 17.9763 27.6156 17.9763C27.9898 17.9763 28.279 18.1059 28.397 18.1629C28.5769 18.25 28.9367 18.513 29.0576 18.6301L29.0837 18.6243L29.2877 17.7326L29.2771 17.6861C28.9782 17.456 28.2954 17.071 27.513 17.071C25.1387 17.071 24.6416 19.1736 24.6416 20.0373C24.6416 20.6698 24.8457 21.3168 25.424 21.7114V21.7104Z" fill="#E59819"/>
<path d="M31.7298 21.867C32.0489 21.9734 32.3807 22.0256 32.7182 22.0256C34.0973 22.0256 34.6815 21.2239 34.6815 20.4269C34.6815 19.7238 34.138 19.4124 33.7927 19.2132L33.6341 19.1339C33.2221 18.9153 33.0035 18.776 33.0035 18.4907C33.0035 18.1851 33.2753 17.953 33.6999 17.953C33.9716 17.953 34.2366 18.04 34.462 18.1928C34.5683 18.2654 34.608 18.2983 34.6883 18.3979L34.754 18.3776L34.9997 17.5487L34.9736 17.5023C34.7879 17.3959 34.3237 17.1377 33.608 17.1377C33.0567 17.1377 32.5064 17.2828 32.1553 17.6948C31.8903 18.0062 31.8043 18.3843 31.8043 18.6493C31.8043 19.3389 32.2946 19.6174 32.6399 19.8167L32.8584 19.9356C33.1766 20.101 33.4687 20.2674 33.4687 20.5923C33.4687 20.9569 33.1041 21.1958 32.6263 21.1958C32.4938 21.1958 32.1814 21.1755 31.8565 20.983C31.6969 20.8902 31.6379 20.8177 31.5509 20.7171L31.4851 20.7374L31.2598 21.573L31.2723 21.6388C31.4048 21.7248 31.5112 21.7916 31.7298 21.8651V21.867Z" fill="#004665"/>
<path d="M5.03385 22.0291H6.24374L6.29403 21.9837C6.29403 21.9837 7.08225 18.3492 7.38593 17.1635L7.36078 17.1286L6.14026 17.1267L6.0919 17.1673C5.8917 18.1606 5 21.9827 5 21.9827L5.03482 22.0282L5.03385 22.0291Z" fill="#004665"/>
<path d="M29.1774 22.029H30.3863L30.4366 21.9836C30.4366 21.9836 31.2248 18.349 31.5285 17.1633L31.5034 17.1285L30.2828 17.1266L30.2345 17.1672C30.0343 18.1605 29.1426 21.9826 29.1426 21.9826L29.1774 22.028V22.029Z" fill="#004665"/>
<path d="M20.0308 22.0282H21.1817L21.2252 21.9837C21.3906 21.0736 21.4428 20.826 21.616 20.1094L21.967 20.1026L22.4738 21.9856L22.5231 22.0292H24.2514C23.5783 21.4247 23.1402 20.7912 22.9197 20.0978C23.3587 20.062 23.7688 19.7177 24.0145 19.3511C24.2166 19.0504 24.3588 18.7099 24.3588 18.3444C24.3588 18.0407 24.2833 17.6277 23.9178 17.3792C23.587 17.1441 23.1943 17.1306 22.4351 17.1306L21.1053 17.1287L21.0599 17.1654L19.9873 21.9847L20.0308 22.0292V22.0282ZM22.1247 17.9575L22.2968 17.9507C22.7243 17.9507 23.1518 17.9507 23.1518 18.4604C23.1518 18.5571 23.1382 18.9981 22.6692 19.2051C22.4139 19.3154 22.1653 19.3154 21.9177 19.3154L21.7929 19.3076L22.1237 17.9565L22.1247 17.9575Z" fill="#004665"/>
<path d="M7.07198 22.0251H8.16195L8.18516 21.9845L8.84475 18.6672L10.2926 21.9971L10.3341 22.0242H11.3148L11.3583 21.9836L12.4454 17.1633L12.4174 17.1266H11.3864L11.3429 17.1624L10.692 20.2524C10.5198 19.852 9.72001 17.998 9.72001 17.998L9.36507 17.1624L9.32638 17.1266H8.16485L8.11552 17.1653C7.98496 17.8752 7.04297 21.9826 7.04297 21.9826L7.07198 22.0232V22.0251Z" fill="#004665"/>
<path d="M14.0746 18.0415L13.1249 21.9836L13.1597 22.0251H14.3396L14.3832 21.9836L15.2739 18.0231L16.3793 18.026L16.4345 17.9777L16.6153 17.1643L16.5786 17.1276L13.0543 17.1266L12.9982 17.1643L12.8154 17.9864L12.8425 18.0396L14.0746 18.0415Z" fill="#004665"/>
<path d="M16.1357 21.9862L16.1667 22.0278H19.1755L19.2238 21.9785L19.4124 21.1284L19.3786 21.0868L17.5719 21.0848L17.7973 20.1013C18.4694 20.0781 18.952 19.9881 19.3737 19.8073L19.6174 18.7918C19.1319 19.1438 18.4685 19.226 17.9849 19.2366L18.2702 17.9919H20.0614L20.1107 17.9504L20.2838 17.1641L20.2403 17.1273L17.275 17.1293L17.2247 17.165C17.0313 18.1302 16.1367 21.9862 16.1367 21.9862H16.1357Z" fill="#004665"/>
<circle cx="20" cy="20" r="19.5" stroke="black" stroke-opacity="0.05"/>
</svg>
