<svg width="40" height="40" viewBox="0 0 40 40" fill="none" xmlns="http://www.w3.org/2000/svg">
<circle cx="20" cy="20" r="20" fill="#F6F8FA"/>
<path d="M32.9629 14.8128C32.9391 14.9298 32.9176 15.046 32.8977 15.1615C32.8736 15.3022 32.8486 15.4173 32.8225 15.507C32.5612 16.4136 32.0535 17.2606 31.4783 18.0078C30.9628 18.6773 30.3969 19.3056 29.7808 19.8924C28.5645 21.051 27.2387 22.0957 25.8024 23.0273C25.7829 23.0402 25.7568 23.0379 25.74 23.0219L25.0564 22.3777C25.0451 22.3667 25.0334 22.3667 25.0217 22.3777C24.9336 22.4595 24.8392 22.5325 24.7382 22.5968C24.4711 22.7668 24.1888 22.9248 23.892 23.071C23.8671 23.0831 23.8378 23.0811 23.8148 23.0655L23.5099 22.8561L23.0349 22.5212C23.0197 22.5102 23.0162 22.4888 23.0271 22.474C23.0298 22.4705 23.0333 22.4673 23.0372 22.4646C24.4586 21.6204 25.7677 20.6923 26.9645 19.6799C27.5526 19.1823 28.1051 18.6555 28.6222 18.099C29.1319 17.5511 29.5589 16.9993 29.9036 16.4436C30.2772 15.8416 30.556 15.2024 30.5993 14.5161C30.62 13.866 30.3653 13.363 29.8354 13.0069C29.5367 12.8061 29.2005 12.6688 28.8266 12.5944C28.4035 12.4996 27.9889 12.4512 27.583 12.4485C26.9282 12.4442 26.2567 12.4984 25.5688 12.6111C22.7549 13.0732 20.049 14.1604 17.5142 15.4664C17.5088 15.4691 17.5033 15.4695 17.4975 15.4676C17.494 15.4664 17.4908 15.466 17.4873 15.4668C17.4764 15.4688 17.4756 15.4668 17.485 15.461C17.4901 15.4574 17.4959 15.4555 17.5018 15.4543C17.5092 15.4532 17.5158 15.4508 17.5224 15.4473C19.6278 14.3203 21.8397 13.4195 24.1584 12.7445C25.0564 12.4828 26.013 12.2797 27.0273 12.1346C27.8439 12.018 28.637 11.9771 29.4064 12.0122C30.9565 12.0827 32.8088 12.6135 32.9558 14.4311C32.9664 14.5574 32.9578 14.6869 32.9629 14.8128Z" fill="#3A1B64"/>
<path d="M28.8266 12.5942C29.2006 12.6687 29.5367 12.806 29.8354 13.0068C30.3654 13.3628 30.62 13.8659 30.5993 14.516C30.489 14.2793 30.4126 14.1307 30.3697 14.0702C30.0249 13.5824 29.4704 13.3188 28.8851 13.1823C28.6039 13.1168 28.3306 13.0762 28.0646 13.0602C26.8889 12.9897 25.7237 13.146 24.5597 13.4046C23.467 13.6475 22.4145 13.9603 21.4018 14.3432C21.0434 14.4789 20.7209 14.601 20.4351 14.7094C20.4339 14.7094 20.4335 14.7094 20.4331 14.7082L20.4288 14.6977C20.4273 14.6934 20.4288 14.6907 20.4323 14.6887C20.7135 14.5667 20.9986 14.4481 21.2867 14.3331C21.6911 14.172 22.3178 13.9482 23.1663 13.6608C23.8897 13.4163 24.6657 13.2006 25.4952 13.0138C26.504 12.7865 27.5097 12.65 28.5123 12.6044C28.5618 12.6024 28.6172 12.6036 28.6792 12.6087C28.7338 12.613 28.7829 12.6079 28.8266 12.5942Z" fill="#C5CDD4"/>
<path d="M32.963 14.813C33.0308 15.233 33.0059 15.6475 32.8885 16.0573C32.7618 16.4992 32.5886 16.9192 32.3687 17.3169C32.0134 17.96 31.5755 18.5843 31.0553 19.1903C29.5684 20.9213 27.773 22.3486 25.8462 23.6292C25.8349 23.6366 25.8201 23.635 25.8104 23.6261L25.5206 23.3496L24.8261 22.673C24.8121 22.6594 24.7902 22.6582 24.775 22.6707C24.4299 22.9553 24.0263 23.1706 23.6254 23.3652C23.6129 23.371 23.5985 23.3699 23.5872 23.3621L23.1274 23.0411C23.2027 22.99 23.2795 22.9436 23.3579 22.9023C23.377 22.8922 23.4024 22.8851 23.4336 22.8816C23.4663 22.8773 23.4917 22.8692 23.51 22.8563L23.8149 23.0657C23.8379 23.0813 23.8676 23.0832 23.8922 23.0711C24.1889 22.9249 24.4712 22.767 24.7384 22.597C24.8394 22.5326 24.9337 22.4597 25.0219 22.3778C25.0336 22.3669 25.0453 22.3669 25.0566 22.3778L25.7402 23.022C25.7569 23.038 25.7831 23.0403 25.8026 23.0275C27.2388 22.0959 28.5646 21.0512 29.7809 19.8926C30.3971 19.3057 30.9629 18.6775 31.4784 18.0079C32.0536 17.2608 32.5613 16.4138 32.8226 15.5071C32.8487 15.4174 32.8737 15.3024 32.8979 15.1616C32.9178 15.0462 32.9392 14.93 32.963 14.813Z" fill="#C5CDD4"/>
<path d="M12.5747 20.0979C12.8024 20.0589 13.0204 19.9033 13.0375 19.6655C13.0574 19.3983 12.7665 19.2369 12.5544 19.1776C11.7608 18.9553 10.4151 18.8227 10.2462 17.8182C10.1136 17.0293 10.7029 16.4947 11.4258 16.3294C11.6758 16.272 11.987 16.2447 12.3594 16.2467C12.8289 16.2494 13.3413 16.3099 13.7239 16.543C14.0822 16.7618 14.2956 17.1143 14.3638 17.601C14.3665 17.6193 14.3552 17.6369 14.3373 17.6427C14.3041 17.6533 14.2593 17.6384 14.2234 17.6408C13.8097 17.6669 13.3873 17.6919 12.9564 17.7157C12.9393 17.7164 12.9241 17.7047 12.9202 17.688C12.8745 17.4895 12.7817 17.2925 12.5942 17.2009C12.4004 17.1069 12.1882 17.0859 11.9574 17.1377C11.8049 17.1717 11.6742 17.2695 11.6547 17.4345C11.6294 17.6462 11.8591 17.7437 12.0272 17.7804C12.2627 17.8319 12.5095 17.8872 12.7681 17.9465C13.371 18.0849 14.1306 18.2986 14.411 18.9113C14.6921 19.5266 14.4394 20.2508 13.9044 20.6345C13.3308 21.0455 12.6113 21.058 11.9347 21.0252C11.2617 20.9929 10.6268 20.8088 10.2755 20.1907C10.1394 19.9505 10.061 19.7009 10.0411 19.4416C10.0399 19.4268 10.0512 19.4139 10.0664 19.4128C10.0664 19.4128 10.0664 19.4128 10.0668 19.4128L11.4676 19.3289C11.4828 19.3277 11.4917 19.3352 11.4941 19.3504C11.576 19.9392 12.0045 20.1954 12.5747 20.0979Z" fill="#DE002B"/>
<path d="M5 16.3512C5 16.3352 5.01287 16.3223 5.02886 16.3223L7.50276 16.3137C8.63091 16.3098 9.54848 17.2009 9.55238 18.3045L9.55472 18.958C9.55862 20.0612 8.64729 20.9589 7.51913 20.9628L5.04524 20.9714C5.02925 20.9714 5.01638 20.9585 5.01638 20.9425L5 16.3512ZM7.3534 19.869C7.76832 19.8167 7.94809 19.5024 7.99606 19.1226C8.02998 18.8539 8.0331 18.5821 8.0058 18.3072C7.95394 17.785 7.73283 17.4571 7.18377 17.4033C6.97631 17.383 6.7747 17.3772 6.57894 17.3857C6.56179 17.3865 6.55321 17.3955 6.55321 17.4126V19.8702C6.55282 19.8861 6.56062 19.8947 6.5766 19.8955C6.84997 19.9084 7.1089 19.8998 7.3534 19.869Z" fill="#DE002B"/>
<path d="M16.6447 19.1034L16.644 20.9437C16.644 20.9565 16.6334 20.9671 16.6206 20.9671L15.1352 20.9655C15.1223 20.9655 15.1118 20.955 15.1118 20.9421V16.3437C15.1118 16.3308 15.1223 16.3203 15.1352 16.3203L16.621 16.3223C16.6338 16.3223 16.6444 16.3328 16.6444 16.3457V17.9262C16.6447 17.939 16.6553 17.9496 16.6681 17.9496H18.2607C18.2736 17.9496 18.2841 17.9394 18.2841 17.9266L18.281 16.3453C18.281 16.3324 18.2915 16.3219 18.3044 16.3219L19.7995 16.3211C19.8124 16.3211 19.8229 16.3316 19.8229 16.3445V20.9448C19.8229 20.9577 19.8124 20.9682 19.7995 20.9682L18.3079 20.9636C18.2951 20.9636 18.2845 20.953 18.2845 20.9402L18.2822 19.1038C18.2822 19.091 18.2717 19.0804 18.2588 19.0804H16.6681C16.6553 19.0801 16.6447 19.0906 16.6447 19.1034Z" fill="#DE002B"/>
<path d="M22.0429 17.4898C22.0429 17.4808 22.0358 17.4738 22.0269 17.4738L20.5337 17.4745C20.5091 17.4745 20.4893 17.4547 20.4893 17.4301L20.4873 16.3538C20.4873 16.332 20.4982 16.321 20.5205 16.321H25.0822C25.1056 16.321 25.1247 16.3398 25.1247 16.3632L25.1263 17.4488C25.1263 17.464 25.1185 17.4718 25.1033 17.4722C24.6322 17.4722 24.1603 17.4734 23.6881 17.4757C23.6526 17.4757 23.6214 17.4777 23.5953 17.4812C23.5816 17.4831 23.5715 17.4944 23.5715 17.5085V20.9428C23.5715 20.9573 23.5598 20.969 23.5454 20.969L22.0752 20.9643C22.053 20.9643 22.0421 20.953 22.0421 20.9307L22.0429 17.4898Z" fill="#DE002B"/>
<path d="M7.93388 24.1265C7.8399 24.4895 7.79389 24.7906 7.86408 25.1533C7.93349 25.7702 8.403 26.249 8.95675 26.485C9.49606 26.715 10.1071 26.8211 10.6991 26.8371C11.4076 26.8566 12.1447 26.802 12.9102 26.6737C14.4298 26.4187 15.9004 25.9823 17.3713 25.4184C19.2201 24.7099 21.0034 23.8395 22.7204 22.8073C22.7445 22.7928 22.7746 22.7936 22.7972 22.8096L23.1271 23.0408L23.5868 23.3618C23.5981 23.3696 23.6126 23.3708 23.6251 23.3649C24.0259 23.1703 24.4295 22.9551 24.7747 22.6704C24.7899 22.6579 24.8117 22.6591 24.8257 22.6727L25.5203 23.3493L25.1829 23.5751C23.3006 24.7812 21.3259 25.8096 19.2583 26.6608C18.7322 26.8777 18.1703 27.0843 17.6396 27.2711C16.7158 27.5967 15.776 27.8705 14.821 28.0932C14.0621 28.2698 13.2954 28.4001 12.5214 28.4835C11.4661 28.597 10.3341 28.5966 9.34164 28.3529C8.83742 28.2293 8.40144 28.0347 8.03293 27.7695C7.65077 27.4938 7.3778 27.1105 7.21363 26.6187C7.16722 26.4811 7.13993 26.3266 7.13135 26.1551L7.13447 25.8154C7.17658 25.1162 7.43396 24.4275 7.77751 23.813C7.96937 23.4694 8.16786 23.1555 8.37259 22.8704C8.80349 22.2722 9.29874 21.6861 9.85833 21.1117C9.86067 21.109 9.86301 21.109 9.86574 21.1113C9.86886 21.1144 9.86886 21.1176 9.86574 21.1207C9.56274 21.4424 9.2769 21.7793 9.00861 22.1311C8.5469 22.7371 8.14758 23.4125 7.93349 24.1265H7.93388Z" fill="#0096D5"/>
<path d="M7.86406 25.1533C7.79387 24.7907 7.83989 24.4896 7.93387 24.1266L7.94517 24.1597C7.94868 24.171 7.96116 24.1773 7.97208 24.1734C7.97793 24.1714 7.98261 24.1671 7.98534 24.1613C8.05124 24.0045 8.14678 23.8528 8.27157 23.7062C8.37101 23.5892 8.45251 23.4395 8.55156 23.3108C8.60265 23.2445 8.65451 23.1758 8.70715 23.1049C8.88225 22.8689 9.10959 22.587 9.3888 22.2591C9.4317 22.2087 9.49604 22.167 9.53192 22.114C9.57832 22.045 9.62512 21.9876 9.67308 21.9416C9.70467 21.9112 9.70779 21.9139 9.68205 21.9494C9.62083 22.034 9.55727 22.1136 9.49175 22.1881C9.10101 22.6303 8.75395 23.1018 8.45095 23.6021C8.39129 23.7 8.33669 23.8064 8.28639 23.9211C8.24544 24.0143 8.20216 24.109 8.15653 24.2053C8.09141 24.343 8.02824 24.5388 7.96662 24.7934C7.94556 24.88 7.89721 24.9541 7.88083 25.0422C7.8742 25.0781 7.86835 25.1151 7.86406 25.1533Z" fill="#C5CDD4"/>
<path d="M25.1833 23.5752L25.5635 23.9145C25.5737 23.9234 25.5744 23.9386 25.5659 23.9484C25.5647 23.9499 25.5631 23.9515 25.5612 23.9527C25.3549 24.0927 25.156 24.2225 24.9645 24.3419C22.7878 25.7001 20.4749 26.8551 18.0673 27.7325C17.0585 28.1003 16.0446 28.4056 15.0264 28.6493C13.9735 28.9009 12.9101 29.0724 11.8584 29.1321C11.1382 29.1727 10.4308 29.136 9.73664 29.0218C9.60874 29.0007 9.41454 28.9523 9.15443 28.8771C8.50515 28.6883 7.83169 28.3042 7.49789 27.7177C7.35711 27.4701 7.25416 27.187 7.18943 26.8684C7.18163 26.8306 7.18943 26.7471 7.214 26.6188C7.37817 27.1106 7.65114 27.4939 8.0333 27.7696C8.40181 28.0348 8.83779 28.2294 9.342 28.353C10.3344 28.5967 11.4665 28.5971 12.5217 28.4836C13.2958 28.4002 14.0625 28.2699 14.8213 28.0933C15.7763 27.8706 16.7161 27.5968 17.6399 27.2712C18.1707 27.0844 18.7326 26.8778 19.2587 26.6609C21.3262 25.8097 23.301 24.7813 25.1833 23.5752Z" fill="#C5CDD4"/>
<circle cx="20" cy="20" r="19.5" stroke="black" stroke-opacity="0.05"/>
</svg>
