<svg width="40" height="40" viewBox="0 0 40 40" fill="none" xmlns="http://www.w3.org/2000/svg">
<circle cx="20" cy="20" r="20" fill="#004899"/>
<path d="M28.0829 19.8582L20.9667 19.5274L20.6515 12.6179H20.6411L20.3156 19.5274L13.2148 19.8582V19.8737L20.3156 20.1786L20.6411 27.486H20.6515L20.9667 20.1786L28.0829 19.8737V19.8582Z" fill="#F39200"/>
<path d="M18.3927 9.30005V9.61012H18.2377C17.7932 9.61012 17.3074 9.69798 17.3074 10.9383V15.6773C17.302 16.0229 17.3227 16.3684 17.3694 16.7108H16.9715L11.6072 10.7522V15.0623C11.6072 15.9718 11.7829 16.2871 12.584 16.2871H12.7752V16.592H10V16.2871H10.1447C10.8682 16.2871 11.0801 15.7703 11.0801 14.9589V10.5714C11.0808 10.4472 11.0568 10.3242 11.0094 10.2094C10.9621 10.0946 10.8924 9.99044 10.8043 9.9029C10.7163 9.81535 10.6117 9.74621 10.4967 9.69949C10.3817 9.65277 10.2585 9.62942 10.1344 9.63079H10V9.32072H12.124L16.7751 14.5455V14.5196V10.6127C16.793 10.4858 16.7825 10.3565 16.7442 10.2342C16.7059 10.1119 16.6408 9.99962 16.5537 9.90559C16.4666 9.81157 16.3597 9.73812 16.2406 9.69059C16.1216 9.64305 15.9935 9.62263 15.8656 9.63079H15.6382V9.32072L18.3927 9.30005Z" fill="white"/>
<path d="M25.5967 16.5713V16.2664H25.7465C26.1186 16.2664 26.5166 16.2044 26.5166 15.6617V10.2096C26.5166 9.6618 26.1186 9.61012 25.7465 9.61012H25.5967V9.30005H28.7956V9.61012H28.6509C28.2788 9.61012 27.8861 9.6618 27.8861 10.2096V15.6617C27.8861 16.2044 28.2788 16.2664 28.6509 16.2664H28.7956V16.5713H25.5967Z" fill="white"/>
<path d="M16.9097 30.0492C16.1549 30.3694 15.3419 30.5296 14.5221 30.5195C12.1759 30.5195 10.4395 29.2379 10.4395 26.6229C10.4395 24.2922 12.3257 22.9434 14.4704 22.9434C15.69 22.9434 16.088 23.3154 17.0544 23.4602L17.1422 25.2017L16.827 25.2431C16.5376 24.2095 16.057 23.3981 14.4911 23.3981C12.7857 23.3981 11.9071 24.7418 11.9071 26.5609C11.9071 28.2973 12.796 30.0647 14.765 30.0647C15.2676 30.0738 15.7569 29.9035 16.1452 29.5843C16.5336 29.2651 16.7954 28.818 16.8838 28.3232L17.1836 28.3645L16.9097 30.0492Z" fill="white"/>
<path d="M24.083 30.3799V30.0492H24.2329C24.6153 30.0492 25.0029 30.0027 25.0029 29.46V24.0079C25.0029 23.4911 24.6153 23.4136 24.2329 23.4136H24.083V23.1035H29.3543C29.3259 23.6337 29.3259 24.165 29.3543 24.6952L29.0442 24.7831C28.9874 24.1009 28.8633 23.5635 27.7677 23.5635H26.3207V26.2921H27.561C28.1863 26.2921 28.3259 25.9355 28.3827 25.3722H28.698V27.7805L28.3827 27.8477C28.3259 27.2172 28.2897 26.8141 27.5662 26.8141H26.3207V29.243C26.3207 29.92 26.9254 29.92 27.592 29.92C28.8478 29.92 29.3956 29.8373 29.7109 28.6435L30.0003 28.721C29.8659 29.274 29.7419 29.8218 29.654 30.3799H24.083Z" fill="white"/>
<circle cx="20" cy="20" r="19.5" stroke="black" stroke-opacity="0.05"/>
</svg>
