<svg width="40" height="40" viewBox="0 0 40 40" fill="none" xmlns="http://www.w3.org/2000/svg">
<circle cx="20" cy="20" r="20" fill="#F6F8FA"/>
<mask id="mask0_18553_55957" style="mask-type:luminance" maskUnits="userSpaceOnUse" x="8" y="12" width="24" height="15">
<path d="M15.0263 26.9295C14.9566 26.9295 14.8781 26.9295 14.8083 26.9295C14.442 26.9295 14.0758 26.8877 13.7182 26.8207C13.3519 26.7537 12.9944 26.6615 12.6455 26.5359C12.2967 26.4103 11.9653 26.2595 11.6426 26.0836C11.3199 25.9078 11.0147 25.6984 10.7356 25.4806C10.1688 25.0367 9.68041 24.5007 9.29669 23.9228C8.91297 23.345 8.62517 22.7168 8.44204 22.0635C8.2589 21.4103 8.18041 20.7403 8.18913 20.087C8.20657 19.4254 8.31994 18.7637 8.52924 18.1272C8.73855 17.4907 9.03506 16.8793 9.41878 16.3265C9.79378 15.7738 10.256 15.2629 10.7792 14.8274C11.3025 14.3919 11.8868 14.015 12.5147 13.7135C13.1513 13.4203 13.8228 13.2026 14.5205 13.0769C15.2182 12.9513 15.9333 12.9094 16.6397 12.9597C17.3461 13.0099 18.0525 13.1523 18.7327 13.3785C19.413 13.6046 20.067 13.9145 20.6688 14.3081C21.2705 14.6934 21.8287 15.1624 22.3083 15.69C22.7967 16.2177 23.2066 16.8039 23.5467 17.4321C23.8868 18.0602 24.131 18.7218 24.288 19.4086C24.9856 19.0066 25.788 18.7805 26.6252 18.7553C27.4537 18.7302 28.2996 18.9145 29.0583 19.3165C29.817 19.7101 30.4624 20.3048 30.9159 21.025C31.3606 21.7537 31.5874 22.5661 31.5874 23.3868V26.9463H29.0322V23.3868C29.0322 23.0937 28.9711 22.8006 28.849 22.5326C28.7269 22.2646 28.5525 22.0133 28.3258 21.8039C28.099 21.5945 27.8287 21.4354 27.5496 21.3349C27.2618 21.2344 26.9566 21.1842 26.6601 21.2009C26.0583 21.226 25.5002 21.4689 25.099 21.8709C24.6979 22.2729 24.4624 22.8173 24.4624 23.3952V26.7537V26.9463H21.9595V20.8156C21.8287 19.3332 21.1397 17.9262 20.006 16.9128C19.4391 16.4019 18.7851 16.0083 18.0525 15.7486C17.6949 15.623 17.3287 15.5309 16.9449 15.4723C16.5699 15.4136 16.1949 15.3969 15.8199 15.4136C15.0699 15.4471 14.3374 15.6146 13.6572 15.9329C13.317 16.092 13.0118 16.2763 12.7153 16.494C12.4188 16.7118 12.1572 16.9547 11.9217 17.2311C11.4508 17.7671 11.1019 18.4036 10.9188 19.082C10.7269 19.7687 10.7008 20.489 10.8577 21.1842C11.1717 22.6414 12.2531 23.881 13.7618 24.3332C14.1281 24.4421 14.5118 24.5007 14.8955 24.5007C15.2792 24.5007 15.6542 24.4505 16.0205 24.35C16.7444 24.1406 17.3723 23.7302 17.8258 23.1523C18.2705 22.5828 18.506 21.8709 18.4711 21.1507C18.4537 20.7905 18.3577 20.4304 18.192 20.1037C18.0176 19.7687 17.7734 19.4756 17.4682 19.2495C17.163 19.0233 16.8054 18.8642 16.4217 18.7972C16.0467 18.7302 15.6717 18.7637 15.3141 18.8977C14.9479 19.0317 14.6862 19.2244 14.4682 19.551C14.224 19.9111 14.224 20.1708 14.2589 20.5728C13.4042 20.5728 12.5496 20.5728 11.6949 20.5728C11.6949 20.3466 11.6862 20.1205 11.7124 19.8944C11.7385 19.6599 11.7822 19.4337 11.8519 19.2076C11.9217 18.9731 12.0176 18.747 12.1397 18.5208C12.2531 18.3031 12.3926 18.1021 12.5496 17.9094C12.8548 17.5409 13.2385 17.2143 13.6572 16.963C14.0845 16.7034 14.5554 16.5275 15.0438 16.4187C15.5409 16.3098 16.0554 16.2847 16.5612 16.3349C17.0758 16.3852 17.5729 16.5192 18.0438 16.7285C19.0031 17.1473 19.7792 17.8508 20.3112 18.7218C20.5729 19.149 20.7647 19.618 20.8868 20.1037C21.0089 20.5811 21.0525 21.0669 21.0351 21.5527C21.0176 22.0384 20.9304 22.5158 20.7734 22.9764C20.6252 23.4287 20.4072 23.8642 20.1368 24.2662C19.8665 24.6682 19.5525 25.0367 19.1862 25.3634C18.8199 25.69 18.4188 25.9748 17.9827 26.2009C17.0845 26.6783 16.0728 26.9295 15.0525 26.9463L15.0263 26.9295Z" fill="white"/>
</mask>
<g mask="url(#mask0_18553_55957)">
<path d="M14.8782 22.474L11.0236 22.4908L7.16895 22.5075V21.603V20.7068L11.0149 20.6901L14.8695 20.6733V21.5779L14.8782 22.474Z" fill="#F5967A"/>
<path d="M7.24735 20.6063L11.0497 20.5645L14.8433 20.6063L14.852 21.4941L14.8869 22.2479L14.8782 22.4656L11.0497 22.4237L7.22119 22.3902L7.22991 21.4941L7.24735 20.6063Z" fill="#F5967A"/>
<path d="M7.32576 20.4975L11.0845 20.4473L14.8258 20.531L14.8432 21.4188L14.9043 22.2228L14.8781 22.4489L11.0758 22.3568L7.27344 22.2731L7.2996 21.3853L7.32576 20.4975Z" fill="#F5967A"/>
<path d="M7.4041 20.3967L11.1105 20.3213L14.7995 20.4637L14.8256 21.3431L14.9128 22.1973L14.8779 22.4318L11.1018 22.2978L7.31689 22.1555L7.3605 21.2761L7.4041 20.3967Z" fill="#F5967A"/>
<path d="M7.483 20.2963L11.1458 20.1958L14.7824 20.3884L14.8086 21.2678L14.9307 22.1723L14.8784 22.4152L11.1284 22.231L7.36963 22.0383L7.43068 21.1673L7.483 20.2963Z" fill="#F5967A"/>
<path d="M7.56141 20.1959L11.1806 20.0786L14.7562 20.3215L14.7911 21.1925L14.9393 22.1473L14.8783 22.4069L11.1544 22.164L7.42188 21.9212L7.49164 21.0585L7.56141 20.1959Z" fill="#F5967A"/>
<path d="M7.64854 20.0955L11.2067 19.9531L14.7299 20.2546L14.7735 21.1173L14.9567 22.1223L14.8869 22.3903L11.1805 22.0972L7.47412 21.804L7.56133 20.9498L7.64854 20.0955Z" fill="#F5967A"/>
<path d="M7.72688 19.9946L11.2414 19.8354L14.7123 20.1788L14.756 21.0415L14.9653 22.0884L14.8868 22.3731L11.1978 22.0298L7.51758 21.6864L7.62223 20.8405L7.72688 19.9946Z" fill="#F5967A"/>
<path d="M7.80529 19.8942L11.2675 19.71L14.6861 20.112L14.7384 20.9662L14.9826 22.0634L14.8867 22.3649L11.2239 21.9629L7.56982 21.5693L7.6832 20.7317L7.80529 19.8942Z" fill="#F5967A"/>
<path d="M7.88419 19.7939L11.3028 19.5845L14.6691 20.0367L14.7214 20.891L14.9917 22.0384L14.8871 22.3483L11.2505 21.896L7.62256 21.4521L7.75337 20.623L7.88419 19.7939Z" fill="#F5967A"/>
<path d="M7.96253 19.685L11.3375 19.4673L14.6428 19.9698L14.7038 20.8157L15.009 22.0133L14.8869 22.3316L11.2765 21.8375L7.66602 21.335L7.81427 20.5142L7.96253 19.685Z" fill="#F5967A"/>
<path d="M8.04966 19.5842L11.3636 19.3413L14.6165 19.9024L14.6863 20.74L15.0177 21.9879L14.8869 22.3229L11.3026 21.7701L7.71826 21.2174L7.88396 20.405L8.04966 19.5842Z" fill="#F5967A"/>
<path d="M8.12807 19.4838L11.3984 19.2158L14.599 19.8272L14.6688 20.6564L15.035 21.9629L14.8868 22.3063L11.3286 21.7033L7.77051 21.1002L7.94493 20.2962L8.12807 19.4838Z" fill="#F5967A"/>
<path d="M8.2069 19.3834L11.4336 19.0986L14.5732 19.7603L14.6517 20.581L15.0441 21.9378L14.8871 22.2896L11.3552 21.6363L7.81445 20.9831L8.01503 20.1874L8.2069 19.3834Z" fill="#F5967A"/>
<path d="M8.2853 19.283L11.4597 18.9731L14.5557 19.6934L14.6341 20.5058L15.0615 21.9128L14.8958 22.273L11.3812 21.5695L7.8667 20.8659L8.076 20.0703L8.2853 19.283Z" fill="#F5967A"/>
<path d="M8.36371 19.1826L11.4945 18.856L14.5294 19.6181L14.6166 20.4305L15.0701 21.8794L14.8957 22.2647L11.4073 21.5025L7.91895 20.7488L8.13697 19.9615L8.36371 19.1826Z" fill="#F5967A"/>
<path d="M8.45077 19.0817L11.5293 18.73L14.5118 19.5508L14.599 20.3548L15.0874 21.8539L14.8955 22.2476L11.4333 21.4435L7.9624 20.6312L8.20659 19.8523L8.45077 19.0817Z" fill="#F5967A"/>
<path d="M8.52918 18.9814L11.5553 18.6045L14.4856 19.4755L14.5902 20.2795L15.096 21.8289L14.8955 22.231L11.4507 21.3767L8.01465 20.514L8.26756 19.7435L8.52918 18.9814Z" fill="#F5967A"/>
<path d="M8.60759 18.8726L11.5902 18.4873L14.4593 19.4086L14.5727 20.2042L15.1134 21.8039L14.8954 22.2226L11.4768 21.3098L8.06689 20.3969L8.33724 19.6347L8.60759 18.8726Z" fill="#F5967A"/>
<path d="M8.68642 18.7722L11.6254 18.3618L14.4422 19.3417L14.5556 20.129L15.1225 21.7789L14.8957 22.206L11.5033 21.2429L8.11084 20.2797L8.39863 19.526L8.68642 18.7722Z" fill="#F5967A"/>
<path d="M8.76483 18.6713L11.6515 18.2441L14.416 19.2659L14.5381 20.0532L15.1398 21.7534L14.8956 22.1889L11.5294 21.1755L8.16309 20.1621L8.46832 19.4167L8.76483 18.6713Z" fill="#F5967A"/>
<path d="M8.84324 18.5709L11.6863 18.1187L14.3985 19.1991L14.5206 19.9779L15.1485 21.7284L14.8956 22.1806L11.5554 21.1086L8.21533 20.045L8.52929 19.3079L8.84324 18.5709Z" fill="#F5967A"/>
<path d="M8.9303 18.4706L11.721 17.9932L14.3722 19.1238L14.503 19.8943L15.1658 21.7034L14.9041 22.164L11.5815 21.0417L8.25879 19.9278L8.59891 19.1992L8.9303 18.4706Z" fill="#F5967A"/>
<path d="M9.0092 18.3701L11.7476 17.876L14.3464 19.0569L14.4859 19.819L15.1749 21.6699L14.9045 22.1473L11.608 20.9832L8.31152 19.8107L8.66036 19.0904L9.0092 18.3701Z" fill="#F5967A"/>
<path d="M9.08761 18.2693L11.7824 17.75L14.3289 18.9895L14.4684 19.7433L15.1923 21.6445L14.9045 22.1302L11.6341 20.9158L8.36377 19.693L8.72133 18.9812L9.08761 18.2693Z" fill="#F5967A"/>
<path d="M9.16595 18.1689L11.8171 17.6245L14.3026 18.9143L14.4508 19.6681L15.2008 21.6195L14.9043 22.122L11.6601 20.849L8.40723 19.5759L8.79095 18.8724L9.16595 18.1689Z" fill="#F5967A"/>
<path d="M9.24436 18.0601L11.8432 17.5073L14.2851 18.8474L14.4333 19.5928L15.2182 21.5944L14.9042 22.1053L11.6862 20.782L8.45947 19.4587L8.85191 18.7636L9.24436 18.0601Z" fill="#F5967A"/>
<path d="M9.33149 17.9597L11.878 17.3818L14.2588 18.7805L14.4158 19.5175L15.2268 21.5694L14.9042 22.0887L11.7036 20.7152L8.51172 19.3416L8.9216 18.6549L9.33149 17.9597Z" fill="#F5967A"/>
<path d="M9.41038 17.8593L11.9133 17.2646L14.2331 18.7052L14.3988 19.4422L15.2447 21.5444L14.9046 22.0804L11.7302 20.6482L8.56445 19.2244L8.98306 18.5461L9.41038 17.8593Z" fill="#F5967A"/>
<path d="M9.48872 17.7584L11.9393 17.1387L14.2155 18.6378L14.3812 19.3665L15.2533 21.5189L14.9044 22.0633L11.7562 20.5809L8.60791 19.1068L9.05268 18.4368L9.48872 17.7584Z" fill="#F5967A"/>
<path d="M9.56713 17.6581L11.9741 17.0132L14.1892 18.5626L14.3636 19.2912L15.2706 21.4855L14.9043 22.0467L11.7822 20.5224L8.66016 18.9897L9.11364 18.3197L9.56713 17.6581Z" fill="#F5967A"/>
<path d="M9.64554 17.5576L12.0089 16.896L14.1717 18.4957L14.3461 19.2159L15.2793 21.4605L14.913 22.03L11.8083 20.4555L8.7124 18.8725L9.17461 18.2109L9.64554 17.5576Z" fill="#F5967A"/>
<path d="M9.72388 17.4573L12.0349 16.7705L14.1454 18.4288L14.3373 19.1407L15.2966 21.4355L14.9128 22.0218L11.8343 20.3886L8.75586 18.7554L9.24423 18.1022L9.72388 17.4573Z" fill="#F5967A"/>
<path d="M9.8115 17.348L12.0702 16.6528L14.1284 18.353L14.3202 19.0565L15.3057 21.41L14.9132 22.0046L11.8609 20.3212L8.80859 18.6378L9.30569 17.9929L9.8115 17.348Z" fill="#F5967A"/>
<path d="M9.88991 17.2476L12.105 16.5273L14.1021 18.2861L14.3027 18.9813L15.323 21.385L14.9132 21.988L11.887 20.2543L8.86084 18.5206L9.37537 17.8841L9.88991 17.2476Z" fill="#F5967A"/>
<path d="M9.96825 17.1472L12.131 16.4019L14.0758 18.2193L14.2851 18.906L15.3316 21.36L14.913 21.9797L11.913 20.1875L8.9043 18.4035L9.43627 17.7754L9.96825 17.1472Z" fill="#F5967A"/>
<path d="M10.0467 17.0468L12.1658 16.2847L14.0583 18.144L14.2676 18.8307L15.349 21.3349L14.9129 21.9631L11.9391 20.1289L8.95654 18.2863L9.50596 17.6666L10.0467 17.0468Z" fill="#F5967A"/>
<path d="M10.1251 16.946L12.2006 16.1587L14.032 18.0766L14.2501 18.755L15.3576 21.3094L14.9129 21.946L11.9652 20.0615L9.00879 18.1687L9.56693 17.5574L10.1251 16.946Z" fill="#F5967A"/>
<path d="M10.2126 16.8456L12.2272 16.0332L14.0149 18.0014L14.233 18.6798L15.3754 21.2761L14.9132 21.9377L11.983 19.9947L9.05273 18.0516L9.62832 17.4486L10.2126 16.8456Z" fill="#F5967A"/>
<path d="M10.291 16.7452L12.262 15.916L13.9887 17.9344L14.2154 18.6045L15.3841 21.251L14.9218 21.921L12.0091 19.9277L9.10498 17.9344L9.698 17.3398L10.291 16.7452Z" fill="#F5967A"/>
<path d="M10.3694 16.6448L12.288 15.7905L13.9625 17.8676L14.1979 18.5292L15.3927 21.226L14.9218 21.9044L12.0351 19.8609L9.15723 17.8173L9.75897 17.2311L10.3694 16.6448Z" fill="#F5967A"/>
<path d="M10.4478 16.536L12.3228 15.6733L13.9449 17.7923L14.1803 18.4539L15.41 21.201L14.9216 21.8877L12.0611 19.7939L9.20068 17.7001L9.82859 17.1223L10.4478 16.536Z" fill="#F5967A"/>
<path d="M10.5267 16.4351L12.3581 15.5474L13.9191 17.7249L14.1633 18.3782L15.4191 21.1755L14.922 21.879L12.0877 19.7266L9.25342 17.5825L9.89005 17.013L10.5267 16.4351Z" fill="#F5967A"/>
<path d="M10.6138 16.3348L12.3842 15.4219L13.9016 17.6497L14.1458 18.2946L15.4365 21.1505L14.9219 21.8624L12.1138 19.6681L9.30566 17.4654L9.95973 16.9043L10.6138 16.3348Z" fill="#F5967A"/>
<path d="M10.6921 16.2343L12.4189 15.3047L13.8753 17.5827L14.1282 18.2193L15.4451 21.1255L14.9218 21.8457L12.1398 19.6012L9.34912 17.3482L10.0206 16.7955L10.6921 16.2343Z" fill="#F5967A"/>
<path d="M10.7706 16.134L12.4537 15.1792L13.8578 17.5159L14.1107 18.144L15.4624 21.1005L14.9217 21.8375L12.1659 19.5343L9.40137 17.2311L10.0903 16.6867L10.7706 16.134Z" fill="#F5967A"/>
<path d="M10.849 16.0335L12.4798 15.062L13.8315 17.4406L14.0931 18.0687L15.4711 21.067L14.9216 21.8208L12.192 19.4674L9.45361 17.1139L10.1513 16.5695L10.849 16.0335Z" fill="#F5967A"/>
<path d="M10.9278 15.9327L12.515 14.936L13.8057 17.3732L14.0848 17.993L15.4888 21.0416L14.9307 21.8037L12.2185 19.4L9.49756 16.9963L10.2127 16.4603L10.9278 15.9327Z" fill="#F5967A"/>
<path d="M11.0062 15.8323L12.5498 14.8105L13.7882 17.3064L14.0672 17.9177L15.4975 21.0166L14.9306 21.7955L12.2359 19.3332L9.5498 16.8792L10.2824 16.3516L11.0062 15.8323Z" fill="#F5967A"/>
<path d="M14.9305 21.7788L12.2619 19.2746L9.60205 16.762L11.0933 15.7235L12.5759 14.6934L14.0497 17.8424L15.5148 20.9915L14.9305 21.7788Z" fill="#F5967A"/>
<path d="M12.6806 14.6597L14.137 17.7669L14.4248 18.3364L15.0091 19.735L15.541 20.9913L15.4277 21.1421L14.9393 21.7451L12.3317 19.2577L9.73291 16.7786L11.198 15.7484L12.6806 14.6597Z" fill="#F3967A"/>
<path d="M12.82 14.6514L14.2764 17.7083L14.5816 18.2862L15.1223 19.7267L15.6107 21.0165L15.4973 21.1757L14.9915 21.7368L12.4537 19.2745L9.90723 16.8122L11.3462 15.7904L12.82 14.6514Z" fill="#F1977A"/>
<path d="M12.9424 14.6348L14.3988 17.6498L14.7214 18.2277L15.2185 19.7101L15.6633 21.0334L15.5499 21.1926L15.0179 21.7118L12.5412 19.2746L10.0645 16.8374L11.4772 15.824L12.9424 14.6348Z" fill="#EF977A"/>
<path d="M13.0555 14.6177L14.5119 17.5825L14.8607 18.1771L15.3055 19.6931L15.7154 21.0415L15.5933 21.2173L15.0526 21.6947L12.6369 19.2743L10.2212 16.8622L11.6078 15.8488L13.0555 14.6177Z" fill="#EE977A"/>
<path d="M13.1778 14.5928L14.6255 17.5157L15.0005 18.1187L15.4017 19.6682L15.768 21.0584L15.6459 21.2343L15.079 21.6698L12.7331 19.2745L10.3784 16.8876L11.7389 15.8826L13.1778 14.5928Z" fill="#EC977A"/>
<path d="M13.2997 14.5762L14.7474 17.4489L15.1311 18.0603L15.4886 19.6515L15.8113 21.0753L15.6892 21.2512L15.1136 21.6532L12.82 19.283L10.5352 16.9129L11.8695 15.9162L13.2997 14.5762Z" fill="#EB987A"/>
<path d="M13.4215 14.5591L14.8605 17.3815L15.2704 18.0013L15.5843 19.6261L15.8634 21.0834L15.7413 21.2676L15.1396 21.6278L12.9157 19.2827L10.6919 16.9376L12 15.941L13.4215 14.5591Z" fill="#E9987A"/>
<path d="M13.5351 14.5342L14.9741 17.3231L15.4101 17.9429L15.6717 19.6096L15.9159 21.1003L15.7938 21.2846L15.1659 21.6112L13.0118 19.2829L10.8403 16.963L12.1223 15.9747L13.5351 14.5342Z" fill="#E8987A"/>
<path d="M13.6574 14.5176L15.0964 17.2563L15.5499 17.8844L15.7679 19.593L15.9685 21.1172L15.8377 21.3099L15.201 21.5863L13.0993 19.2831L10.9976 16.9883L12.2534 16.0084L13.6574 14.5176Z" fill="#E6997A"/>
<path d="M13.7793 14.5005L15.2095 17.1889L15.6892 17.8254L15.8549 19.5675L16.0119 21.1253L15.8898 21.3263L15.227 21.5692L13.195 19.2827L11.1543 17.0131L12.3839 16.0415L13.7793 14.5005Z" fill="#E5997A"/>
<path d="M13.9016 14.4839L15.3319 17.1221L15.8202 17.767L15.9511 19.5509L16.0644 21.1422L15.9336 21.3432L15.2621 21.5442L13.2912 19.2913L11.3115 17.0383L12.515 16.0668L13.9016 14.4839Z" fill="#E4997A"/>
<path d="M14.0235 14.459L15.445 17.0553L15.9595 17.7086L16.038 19.5344L16.1165 21.1592L15.9857 21.3602L15.288 21.5277L13.3781 19.2915L11.4683 17.0637L12.6456 16.1005L14.0235 14.459Z" fill="#E2997A"/>
<path d="M14.1371 14.4419L15.5586 16.9963L16.0993 17.6496L16.1255 19.5089L16.1691 21.1672L16.0296 21.3849L15.3232 21.5106L13.4743 19.2911L11.6255 17.0885L12.7767 16.1337L14.1371 14.4419Z" fill="#E19A7A"/>
<path d="M14.2501 14.4253L15.6629 16.9295L16.2298 17.5911L16.2123 19.4923L16.2036 21.1841L16.0728 21.4018L15.3402 21.4856L13.5524 19.2913L11.7646 17.1137L12.8896 16.1673L14.2501 14.4253Z" fill="#DF9A7A"/>
<path d="M14.329 14.3999L15.7418 16.8622L16.3174 17.5322L16.2563 19.4753L16.2127 21.1922L16.0732 21.4183L15.3319 21.4686L13.6052 19.291L11.8784 17.1386L12.9773 16.1922L14.329 14.3999Z" fill="#DE9A7A"/>
<path d="M14.3987 14.3833L15.8115 16.7954L16.4132 17.4738L16.3086 19.4503L16.2214 21.2091L16.0818 21.4352L15.3144 21.4436L13.6574 19.2995L11.9917 17.1639L13.0644 16.2258L14.3987 14.3833Z" fill="#DC9B7B"/>
<path d="M14.4771 14.3501L15.8899 16.7203L16.5091 17.3987L16.3521 19.4171L16.2213 21.2094L16.0817 21.4439L15.3056 21.4104L13.7009 19.2831L12.105 17.1725L13.1515 16.2429L14.4771 14.3501Z" fill="#DB9B7B"/>
<path d="M14.5555 14.3081L15.9595 16.628L16.6049 17.3232L16.4043 19.3751L16.2299 21.2009L16.0904 21.4354L15.288 21.3684L13.7531 19.2662L12.2183 17.1724L13.2386 16.2512L14.5555 14.3081Z" fill="#DA9B7B"/>
<path d="M14.6338 14.2744L16.0291 16.5441L16.6919 17.2392L16.4478 19.333L16.2385 21.1923L16.0902 21.4352L15.2704 21.3263L13.8053 19.2493L12.3228 17.1806L13.3257 16.2593L14.6338 14.2744Z" fill="#D89B7B"/>
<path d="M14.704 14.2324L16.108 16.4602L16.7883 17.1637L16.4918 19.2994L16.2476 21.1922L16.0993 21.4351L15.2621 21.2843L13.8493 19.224L12.4365 17.1889L13.4045 16.276L14.704 14.2324Z" fill="#D79C7B"/>
<path d="M14.7824 14.1909L16.1777 16.3768L16.8841 17.0887L16.544 19.2579L16.2475 21.1842L16.0992 21.4355L15.2446 21.2428L13.9015 19.2077L12.5498 17.1892L13.4917 16.2847L14.7824 14.1909Z" fill="#D59C7B"/>
<path d="M14.8608 14.1572L16.2474 16.2929L16.9799 17.0048L16.5875 19.2159L16.2561 21.1757L16.1079 21.4353L15.2358 21.2008L13.9538 19.1907L12.6631 17.1974L13.5788 16.3013L14.8608 14.1572Z" fill="#D49C7B"/>
<path d="M14.9392 14.1152L16.3258 16.209L17.0671 16.9293L16.6397 19.1822L16.2647 21.1672L16.1078 21.4352L15.2182 21.1672L13.9973 19.1739L12.7764 17.2057L13.6659 16.3095L14.9392 14.1152Z" fill="#D29C7B"/>
<path d="M15.0088 14.0737L16.3955 16.1257L17.1629 16.8543L16.6833 19.1407L16.2646 21.1675L16.1164 21.4355L15.2094 21.1257L14.0495 19.1575L12.8896 17.2061L13.753 16.3183L15.0088 14.0737Z" fill="#D19D7B"/>
<path d="M15.0877 14.04L16.4656 16.0417L17.2592 16.7704L16.7359 19.0987L16.2737 21.159L16.1167 21.4353L15.1923 21.0836L14.1022 19.1405L12.9946 17.2142L13.8406 16.3348L15.0877 14.04Z" fill="#CF9D7B"/>
<path d="M15.1661 13.998L16.544 15.9495L17.355 16.6949L16.7794 19.0567L16.2823 21.1505L16.1254 21.4269L15.1835 21.0416L14.1457 19.1153L13.1079 17.2141L13.919 16.3431L15.1661 13.998Z" fill="#CE9D7B"/>
<path d="M15.2444 13.9561L16.6136 15.8656L17.4421 16.6194L16.8229 19.0231L16.291 21.142L16.1253 21.4267L15.166 20.9996L14.1979 19.0984L13.2212 17.2224L14.0061 16.3514L15.2444 13.9561Z" fill="#CD9D7B"/>
<path d="M15.3141 13.9229L16.6833 15.7821L17.538 16.5359L16.8752 18.9815L16.2909 21.1423L16.1339 21.427L15.1571 20.958L14.2502 19.082L13.3345 17.2311L14.0932 16.3684L15.3141 13.9229Z" fill="#CB9E7B"/>
<path d="M15.3925 13.8809L16.7617 15.6983L17.6338 16.4604L16.9187 18.9395L16.2995 21.1338L16.1425 21.4269L15.1396 20.9244L14.2937 19.0651L13.4478 17.2309L14.1803 16.3767L15.3925 13.8809Z" fill="#CA9E7B"/>
<path d="M15.4714 13.8389L16.8319 15.6144L17.7301 16.3849L16.9714 18.9059L16.3086 21.1253L16.1429 21.4268L15.1226 20.8824L14.3464 19.0482L13.5615 17.2392L14.2679 16.3849L15.4714 13.8389Z" fill="#C89E7B"/>
<path d="M15.5497 13.8057L16.9015 15.531L17.8259 16.3015L17.0149 18.8643L16.3172 21.1256L16.1515 21.4271L15.1137 20.8408L14.3986 19.0318L13.666 17.2479L14.355 16.402L15.5497 13.8057Z" fill="#C79E7B"/>
<path d="M15.6194 13.7637L16.9799 15.4471L17.913 16.226L17.0671 18.8223L16.3171 21.1171L16.1514 21.427L15.0962 20.7988L14.4421 19.0066L13.7793 17.2478L14.4334 16.4102L15.6194 13.7637Z" fill="#C59F7C"/>
<path d="M15.6978 13.7217L17.0496 15.3548L18.0089 16.1505L17.1106 18.7803L16.3257 21.1086L16.16 21.4269L15.0873 20.7569L14.4943 18.9897L13.8926 17.256L14.5205 16.4269L15.6978 13.7217Z" fill="#C49F7C"/>
<path d="M15.7762 13.6885L17.1192 15.2714L18.1047 16.067L17.1628 18.7471L16.3343 21.1005L16.1599 21.4188L15.0698 20.7153L14.5466 18.9732L14.0059 17.2563L14.6076 16.4355L15.7762 13.6885Z" fill="#C29F7C"/>
<path d="M15.8551 13.6465L17.1981 15.1875L18.201 15.9915L17.2068 18.7051L16.3435 21.1004L16.169 21.4187L15.0615 20.6817L14.5906 18.9564L14.1196 17.2646L14.6952 16.4438L15.8551 13.6465Z" fill="#C19F7C"/>
<path d="M15.9247 13.6128L17.2677 15.1036L18.2881 15.916L17.2503 18.663L16.3433 21.0919L16.1689 21.4185L15.0439 20.6396L14.6427 18.9394L14.2241 17.2728L14.7823 16.4604L15.9247 13.6128Z" fill="#BFA07C"/>
<path d="M16.0031 13.5708L17.3461 15.0197L18.3839 15.8321L17.3025 18.6294L16.3519 21.0834L16.1775 21.4184L15.0351 20.5976L14.695 18.9226L14.3374 17.2726L14.8694 16.4686L16.0031 13.5708Z" fill="#BEA07C"/>
<path d="M16.0815 13.5293L17.4158 14.9363L18.4798 15.7571L17.346 18.5879L16.3606 21.0754L16.1774 21.4187L15.0175 20.5561L14.7385 18.8978L14.4507 17.2814L14.9478 16.4774L16.0815 13.5293Z" fill="#BCA07C"/>
<path d="M16.1604 13.4956L17.486 14.8524L18.5761 15.6815L17.3988 18.5459L16.3697 21.0752L16.1865 21.4186L15.0092 20.514L14.7912 18.8809L14.5645 17.2812L15.0354 16.4939L16.1604 13.4956Z" fill="#BBA07C"/>
<path d="M16.2301 13.4536L17.5644 14.7685L18.6632 15.5977L17.4423 18.5039L16.3696 21.0667L16.1865 21.4184L14.9917 20.472L14.8347 18.864L14.6777 17.2895L15.1225 16.5022L16.2301 13.4536Z" fill="#B9A07C"/>
<path d="M16.3085 13.4116L17.634 14.6763L18.759 15.5222L17.4945 18.4702L16.3782 21.0582L16.1951 21.4183L14.9829 20.43L14.8869 18.8471L14.791 17.2977L15.2096 16.5188L16.3085 13.4116Z" fill="#B8A17C"/>
<path d="M16.3868 13.3784L17.7036 14.5928L18.8548 15.4471L17.5379 18.4287L16.3868 21.0585L16.1949 21.4102L14.9653 20.3968L14.9391 18.8307L14.8955 17.298L15.2967 16.5275L16.3868 13.3784Z" fill="#B6A17C"/>
<path d="M16.4916 13.3364L17.8085 14.509L18.9771 15.3632L17.6166 18.3867L16.4219 21.05L16.23 21.4101L14.9829 20.3549L15.0178 18.8138L15.044 17.3063L15.4102 16.5358L16.4916 13.3364Z" fill="#B5A17C"/>
<path d="M16.631 13.2944L17.9479 14.4251L19.1339 15.2877L17.7299 18.3531L16.4915 21.0415L16.2996 21.41L15.0264 20.3129L15.131 18.7886L15.2182 17.3145L15.5583 16.5524L16.631 13.2944Z" fill="#B3A17C"/>
<path d="M16.7705 13.2612L18.0786 14.3416L19.2908 15.2127L17.8344 18.3115L16.5612 21.0334L16.3693 21.4103L15.0786 20.2713L15.2443 18.7721L15.3926 17.3148L15.7065 16.5611L16.7705 13.2612Z" fill="#B2A17C"/>
<path d="M16.9099 13.2192L18.2181 14.2578L19.4477 15.1288L17.9477 18.2695L16.6309 21.0333L16.4303 21.4102L15.1309 20.2293L15.3489 18.7553L15.5669 17.3231L15.8547 16.5693L16.9099 13.2192Z" fill="#B0A17C"/>
<path d="M17.0498 13.1772L18.3492 14.1739L19.605 15.0533L18.0527 18.2275L16.6922 21.0248L16.5004 21.4101L15.1748 20.1873L15.4626 18.7384L15.7417 17.323L16.0033 16.586L17.0498 13.1772Z" fill="#AFA27C"/>
<path d="M17.2327 13.1353L18.5321 14.0817L19.8054 14.9694L18.2095 18.1855L16.8054 21.008L16.6135 21.4016L15.2705 20.1453L15.6193 18.7131L15.9507 17.3229L16.1949 16.5858L17.2327 13.1353Z" fill="#ADA27C"/>
<path d="M15.2793 20.1121L16.2996 16.6029L17.3287 13.1021L18.6194 13.9982L19.9188 14.8943L18.2793 18.1523L16.6398 21.4019L15.2793 20.1121Z" fill="#ACA27D"/>
<path d="M17.3286 13.2695L19.9885 15.0535L16.7704 21.5024L15.3228 20.1623L17.3286 13.2695Z" fill="#AAA27D"/>
<path d="M17.3202 13.4453L20.0586 15.2041L16.9016 21.5944L15.3667 20.2125L17.3202 13.4453Z" fill="#A9A37D"/>
<path d="M17.32 13.6128L20.1282 15.3632L17.041 21.6949L15.4102 20.2711L17.32 13.6128Z" fill="#A8A37D"/>
<path d="M17.3199 13.7803L20.1978 15.5139L17.1716 21.787L15.4536 20.3213L17.3199 13.7803Z" fill="#A7A47D"/>
<path d="M17.3202 13.9478L20.2679 15.673L17.3115 21.8875L15.4976 20.3715L17.3202 13.9478Z" fill="#A6A47E"/>
<path d="M17.3201 14.1235L20.3375 15.8237L17.4422 21.9795L15.541 20.4217L17.3201 14.1235Z" fill="#A5A57E"/>
<path d="M17.3199 14.291L20.4071 15.9828L17.5816 22.0716L15.5845 20.4803L17.3199 14.291Z" fill="#A4A57E"/>
<path d="M17.3199 14.459L20.4768 16.134L17.7123 22.1726L15.6367 20.531L17.3199 14.459Z" fill="#A2A57E"/>
<path d="M17.3115 14.6265L20.5469 16.2931L17.8522 22.2647L15.6807 20.5812L17.3115 14.6265Z" fill="#A1A67E"/>
<path d="M17.3113 14.7939L20.6253 16.4439L17.9828 22.3651L15.7241 20.6398L17.3113 14.7939Z" fill="#A0A67F"/>
<path d="M17.3112 14.9697L20.6949 16.6029L18.1222 22.4572L15.7676 20.69L17.3112 14.9697Z" fill="#9FA67F"/>
<path d="M17.3115 15.1372L20.765 16.7536L18.2534 22.5493L15.8115 20.7402L17.3115 15.1372Z" fill="#9EA77F"/>
<path d="M17.3114 15.3047L20.8346 16.9127L18.384 22.6497L15.855 20.7905L17.3114 15.3047Z" fill="#9DA77F"/>
<path d="M17.3112 15.4722L20.9043 17.0635L18.5234 22.7418L15.8984 20.8491L17.3112 15.4722Z" fill="#9BA87F"/>
<path d="M17.3111 15.6479L20.9739 17.2225L18.6541 22.8423L15.9419 20.8992L17.3111 15.6479Z" fill="#9AA880"/>
<path d="M17.3027 15.8154L21.044 17.3732L18.794 22.9344L15.9858 20.9494L17.3027 15.8154Z" fill="#99A880"/>
<path d="M17.3026 15.9829L21.1136 17.5323L18.9246 23.0348L16.0293 21.008L17.3026 15.9829Z" fill="#98A980"/>
<path d="M17.3025 16.1504L21.1833 17.6831L19.0641 23.1269L16.0815 21.0583L17.3025 16.1504Z" fill="#97A980"/>
<path d="M17.3028 16.3267L21.2534 17.8426L19.1953 23.2195L16.1255 21.1089L17.3028 16.3267Z" fill="#96A980"/>
<path d="M17.3027 16.4941L21.323 17.9933L19.3346 23.3199L16.1689 21.1675L17.3027 16.4941Z" fill="#94AA81"/>
<path d="M17.3025 16.6616L21.3926 18.1524L19.4653 23.412L16.2124 21.2177L17.3025 16.6616Z" fill="#93AA81"/>
<path d="M17.3024 16.8291L21.471 18.3031L19.6047 23.5125L16.2559 21.268L17.3024 16.8291Z" fill="#92AB81"/>
<path d="M17.25 16.9966L21.4971 18.4622L19.6919 23.6046L16.2559 21.3182L17.25 16.9966Z" fill="#91AB81"/>
<path d="M17.2504 17.1724L21.5585 18.6129L19.8231 23.6967L16.2998 21.3767L17.2504 17.1724Z" fill="#8FAB81"/>
<path d="M17.2502 17.3398L21.6281 18.772L19.9537 23.7971L16.3433 21.4269L17.2502 17.3398Z" fill="#8EAC82"/>
<path d="M17.2414 17.5073L21.6978 18.9227L20.0931 23.8892L16.3867 21.4772L17.2414 17.5073Z" fill="#8DAC82"/>
<path d="M17.2416 17.6748L21.7678 19.0818L20.2242 23.9897L16.4219 21.5358L17.2416 17.6748Z" fill="#8CAC82"/>
<path d="M17.2415 17.8506L21.8374 19.2325L20.3549 24.0817L16.4653 21.5859L17.2415 17.8506Z" fill="#8AAD82"/>
<path d="M17.2326 18.0181L21.907 19.3832L20.4855 24.1738L16.5088 21.6362L17.2326 18.0181Z" fill="#89AD82"/>
<path d="M17.233 18.1855L21.9772 19.5423L20.6254 24.2743L16.5527 21.6864L17.233 18.1855Z" fill="#88AD83"/>
<path d="M17.2328 18.353L22.0381 19.6931L20.7561 24.3664L16.5962 21.745L17.2328 18.353Z" fill="#86AE83"/>
<path d="M17.224 18.5205L22.1077 19.8522L20.8867 24.4669L16.6396 21.7952L17.224 18.5205Z" fill="#85AE83"/>
<path d="M17.2243 18.6968L22.1778 20.0033L21.0179 24.5594L16.6836 21.8459L17.2243 18.6968Z" fill="#84AE83"/>
<path d="M17.2241 18.8643L22.2474 20.1624L21.1486 24.6599L16.7271 21.9045L17.2241 18.8643Z" fill="#82AF83"/>
<path d="M17.2152 19.0317L22.317 20.3131L21.2879 24.752L16.7617 21.9547L17.2152 19.0317Z" fill="#81AF84"/>
<path d="M17.2155 19.1992L22.3871 20.4723L21.419 24.8441L16.8057 22.0049L17.2155 19.1992Z" fill="#7FAF84"/>
<path d="M17.2067 19.375L22.4567 20.6229L21.5497 24.9445L16.8491 22.0551L17.2067 19.375Z" fill="#7EB084"/>
<path d="M17.2065 19.5425L22.5176 20.782L21.6804 25.0366L16.8926 22.1137L17.2065 19.5425Z" fill="#7DB084"/>
<path d="M17.2069 19.71L22.5877 20.9327L21.8202 25.1371L16.9365 22.1639L17.2069 19.71Z" fill="#7BB084"/>
<path d="M17.198 19.8774L22.6573 21.0918L21.9509 25.2292L16.98 22.2141L17.198 19.8774Z" fill="#7AB184"/>
<path d="M17.1979 20.0532L22.7269 21.2425L22.0816 25.3212L17.0234 22.2727L17.1979 20.0532Z" fill="#78B185"/>
<path d="M17.1977 20.2207L22.7965 21.4016L22.2122 25.4217L17.0669 22.3229L17.1977 20.2207Z" fill="#77B185"/>
<path d="M17.1893 20.3882L22.8667 21.5523L22.3521 25.5138L17.1108 22.3731L17.1893 20.3882Z" fill="#75B285"/>
<path d="M17.1891 20.5562L22.9362 21.7119L22.4827 25.6148L17.1455 22.4238L17.1891 20.5562Z" fill="#74B285"/>
<path d="M17.1895 20.7236L23.0063 21.8627L22.6139 25.7069L17.1982 22.4824L17.1895 20.7236Z" fill="#72B285"/>
<path d="M17.2065 20.8994L23.0932 22.0217L22.7705 25.7989L17.2589 22.5326L17.2065 20.8994Z" fill="#70B386"/>
<path d="M17.2676 21.0669L23.2327 22.1724L22.9711 25.8994L17.3635 22.5828L17.2676 21.0669Z" fill="#6FB386"/>
<path d="M17.2676 21.2344L23.3025 22.3315L23.1019 25.9915L17.4158 22.6414L17.2676 21.2344Z" fill="#6DB386"/>
<path d="M17.2676 21.4019L23.3722 22.4823L23.2414 26.092L17.4594 22.6916L17.2676 21.4019Z" fill="#6BB486"/>
<path d="M17.2676 21.4438L23.3112 22.5829L23.128 26.1675L17.4333 22.7085L17.2676 21.4438Z" fill="#6AB286"/>
<path d="M17.2764 21.4771L23.2415 22.6747L23.0235 26.2425L17.4159 22.725L17.2764 21.4771Z" fill="#69B186"/>
<path d="M17.2764 21.5107L23.1804 22.767L22.9188 26.3181L17.3985 22.7503L17.2764 21.5107Z" fill="#68B086"/>
<path d="M17.2764 21.5439L23.1194 22.8672L22.8054 26.3932L17.381 22.7667L17.2764 21.5439Z" fill="#67AE86"/>
<path d="M17.2329 21.5776L23.0149 22.9595L22.6573 26.4771L17.3114 22.7837L17.2329 21.5776Z" fill="#66AD86"/>
<path d="M17.2241 21.6196L22.9451 23.0602L22.5352 26.5526L17.2852 22.8005L17.2241 21.6196Z" fill="#65AC87"/>
<path d="M17.2241 21.6528L22.8666 23.152L22.4218 26.6277L17.259 22.817L17.2241 21.6528Z" fill="#64AB87"/>
<path d="M17.2153 21.6865L22.7967 23.2443L22.2996 26.7033L17.2328 22.8423L17.2153 21.6865Z" fill="#63A987"/>
<path d="M17.2065 21.7202L22.7269 23.345L22.1862 26.7788L17.2065 22.8592V21.7202Z" fill="#62A887"/>
<path d="M17.2156 21.7534L22.6662 23.4368L22.0819 26.8623L17.1895 22.8757L17.2156 21.7534Z" fill="#61A787"/>
<path d="M17.2155 21.7871L22.605 23.5375L21.9771 26.9379L17.1719 22.8926L17.2155 21.7871Z" fill="#60A687"/>
<path d="M17.2241 21.8291L22.5438 23.6298L21.8723 27.0134L17.1543 22.9179L17.2241 21.8291Z" fill="#5FA587"/>
<path d="M17.2239 21.8623L22.4914 23.73L21.7588 27.0884L17.1367 22.9343L17.2239 21.8623Z" fill="#5EA487"/>
<path d="M17.233 21.896L22.4307 23.8223L21.6545 27.164L17.1196 22.9513L17.233 21.896Z" fill="#5DA387"/>
<path d="M17.2329 21.9297L22.3695 23.9146L21.5497 27.2479L17.1021 22.9682L17.2329 21.9297Z" fill="#5CA187"/>
<path d="M17.2414 21.9629L22.3083 24.0148L21.4449 27.323L17.0845 22.9847L17.2414 21.9629Z" fill="#5BA087"/>
<path d="M17.2413 22.0049L22.2471 24.1071L21.3401 27.3985L17.0669 23.0099L17.2413 22.0049Z" fill="#5A9F88"/>
<path d="M17.2504 22.0381L22.1864 24.2073L21.2271 27.4736L17.0498 23.0264L17.2504 22.0381Z" fill="#599E88"/>
<path d="M17.2502 22.0718L22.1253 24.2996L21.1223 27.5492L17.0322 23.0433L17.2502 22.0718Z" fill="#589D88"/>
<path d="M17.2588 22.1055L22.0641 24.3919L21.0176 27.6331L17.0146 23.0602L17.2588 22.1055Z" fill="#579C88"/>
<path d="M17.2592 22.1387L22.0034 24.4921L20.9133 27.7082L16.9976 23.0851L17.2592 22.1387Z" fill="#569B88"/>
<path d="M17.2678 22.1724L21.9422 24.5844L20.8085 27.7838L16.98 23.102L17.2678 22.1724Z" fill="#559A88"/>
<path d="M17.2676 22.2144L21.881 24.685L20.695 27.8592L16.9624 23.1189L17.2676 22.2144Z" fill="#549988"/>
<path d="M17.2762 22.2476L21.8198 24.7769L20.5902 27.9343L16.9448 23.1353L17.2762 22.2476Z" fill="#549888"/>
<path d="M17.2766 22.2812L21.7591 24.8692L20.4859 28.0099L16.9277 23.1523L17.2766 22.2812Z" fill="#539788"/>
<path d="M17.2852 22.3149L21.6979 24.9699L20.3811 28.0938L16.9102 23.1776L17.2852 22.3149Z" fill="#529688"/>
<path d="M17.329 22.3481L21.6807 25.0617L20.3115 28.1689L16.9365 23.194L17.329 22.3481Z" fill="#519588"/>
<path d="M17.3288 22.3901L21.6195 25.1623L20.2067 28.2444L16.9102 23.2109L17.3288 22.3901Z" fill="#509488"/>
<path d="M17.3286 22.4238L21.5583 25.2546L20.1019 28.32L16.8926 23.2278L17.3286 22.4238Z" fill="#4F9288"/>
<path d="M17.3377 22.457L21.4976 25.3549L19.9889 28.3951L16.8755 23.2527L17.3377 22.457Z" fill="#4E9188"/>
<path d="M17.3376 22.4907L21.4277 25.4472L19.8841 28.479L16.8579 23.2696L17.3376 22.4907Z" fill="#4D9088"/>
<path d="M17.3374 22.5239L21.3665 25.539L19.7706 28.5541L16.8403 23.2861L17.3374 22.5239Z" fill="#4C8F88"/>
<path d="M17.3377 22.5659L21.3057 25.6396L19.6662 28.6296L16.8145 23.3029L17.3377 22.5659Z" fill="#4B8E88"/>
<path d="M17.3463 22.5996L21.2445 25.7319L19.5527 28.7051L16.7969 23.3199L17.3463 22.5996Z" fill="#4B8D89"/>
<path d="M17.3462 22.6328L21.1834 25.8321L19.4479 28.7802L16.7793 23.3447L17.3462 22.6328Z" fill="#4A8C89"/>
<path d="M17.346 22.6665L21.1222 25.9245L19.3431 28.8642L16.7617 23.3616L17.346 22.6665Z" fill="#498B89"/>
<path d="M17.3463 22.7002L21.0527 26.0168L19.23 28.9397L16.7358 23.3786L17.3463 22.7002Z" fill="#488A89"/>
<path d="M17.3549 22.7334L20.9915 26.117L19.1252 29.0148L16.7183 23.395L17.3549 22.7334Z" fill="#478989"/>
<path d="M17.3548 22.7754L20.9303 26.2092L19.0117 29.0903L16.7007 23.4203L17.3548 22.7754Z" fill="#468889"/>
<path d="M17.3551 22.8091L20.8696 26.3099L18.9074 29.1659L16.6836 23.4372L17.3551 22.8091Z" fill="#458889"/>
<path d="M17.355 22.8423L20.8085 26.4017L18.7939 29.2493L16.666 23.4537L17.355 22.8423Z" fill="#448789"/>
<path d="M17.3635 22.876L20.7472 26.5024L18.6891 29.3249L16.6396 23.4706L17.3635 22.876Z" fill="#438689"/>
<path d="M17.3638 22.9092L20.6778 26.5943L18.5848 29.4L16.6226 23.4871L17.3638 22.9092Z" fill="#428589"/>
<path d="M17.3637 22.9512L20.6166 26.6865L18.4713 29.4755L16.605 23.5123L17.3637 22.9512Z" fill="#428489"/>
<path d="M17.3636 22.9849L20.5554 26.7872L18.3665 29.551L16.5874 23.5293L17.3636 22.9849Z" fill="#418389"/>
<path d="M17.3726 23.0181L20.4947 26.879L18.2534 29.6345L16.5615 23.5457L17.3726 23.0181Z" fill="#408289"/>
<path d="M17.3724 23.0518L20.4335 26.9797L18.1486 29.71L16.5439 23.5626L17.3724 23.0518Z" fill="#3F8189"/>
<path d="M17.3723 23.0854L20.3636 27.072L18.0438 29.7856L16.5264 23.588L17.3723 23.0854Z" fill="#3E8089"/>
<path d="M17.3809 23.1187L20.3024 27.1639L17.9303 29.8607L16.5088 23.6044L17.3809 23.1187Z" fill="#3D7F89"/>
<path d="M17.3286 23.144L20.1978 27.2479L17.8257 29.9028L16.4565 23.6131L17.3286 23.144Z" fill="#3C7D88"/>
<path d="M17.2764 23.1606L20.0933 27.3231L17.7124 29.9362L16.4043 23.6297L17.2764 23.1606Z" fill="#3B7C88"/>
<path d="M17.2241 23.1855L19.9887 27.3983L17.6079 29.9778L16.3521 23.6378L17.2241 23.1855Z" fill="#3B7B88"/>
<path d="M17.1284 23.2026L19.8231 27.4824L17.451 30.0117L16.2476 23.6549L17.1284 23.2026Z" fill="#3A7987"/>
<path d="M17.0586 23.2192L19.7098 27.5576L17.329 30.0534L16.1865 23.6631L17.0586 23.2192Z" fill="#397887"/>
<path d="M16.9975 23.2441L19.5876 27.6328L17.2068 30.0951L16.1167 23.6713L16.9975 23.2441Z" fill="#387786"/>
<path d="M16.9365 23.2612L19.4655 27.7168L17.0847 30.1289L16.0557 23.6884L16.9365 23.2612Z" fill="#387586"/>
<path d="M16.8754 23.2778L19.3434 27.7921L16.9626 30.1706L15.9858 23.6966L16.8754 23.2778Z" fill="#377486"/>
<path d="M16.8143 23.3032L19.2213 27.8677L16.8492 30.2044L15.9248 23.7136L16.8143 23.3032Z" fill="#367385"/>
<path d="M16.7445 23.3198L19.1079 27.9513L16.7271 30.2461L15.855 23.7218L16.7445 23.3198Z" fill="#357185"/>
<path d="M16.6835 23.3364L18.9858 28.0265L16.605 30.2795L15.7939 23.7384L16.6835 23.3364Z" fill="#347085"/>
<path d="M16.6224 23.3618L18.8637 28.1022L16.4829 30.3216L15.7329 23.7471L16.6224 23.3618Z" fill="#346F84"/>
<path d="M16.5613 23.3784L18.7416 28.1858L16.3608 30.3633L15.6631 23.7637L16.5613 23.3784Z" fill="#336D84"/>
<path d="M16.5003 23.395L18.6282 28.261L16.2387 30.3967L15.6021 23.7719L16.5003 23.395Z" fill="#326C84"/>
<path d="M16.4305 23.4204L18.5061 28.3367L16.1252 30.4388L15.5322 23.7805L16.4305 23.4204Z" fill="#316B83"/>
<path d="M16.3694 23.437L18.384 28.4119L16.0032 30.4722L15.4712 23.7971L16.3694 23.437Z" fill="#316983"/>
<path d="M16.3083 23.4619L18.2618 28.4954L15.881 30.5138L15.4014 23.8053L16.3083 23.4619Z" fill="#306883"/>
<path d="M16.2473 23.479L18.1485 28.5711L15.7589 30.5477L15.3403 23.8224L16.2473 23.479Z" fill="#2F6782"/>
<path d="M16.1863 23.4956L18.0264 28.6464L15.6369 30.5894L15.2793 23.8306L16.1863 23.4956Z" fill="#2E6682"/>
<path d="M16.1164 23.5205L17.9042 28.7299L15.5147 30.6311L15.2095 23.8471L16.1164 23.5205Z" fill="#2D6582"/>
<path d="M16.0554 23.5376L17.7822 28.8056L15.3926 30.6649L15.1484 23.8559L16.0554 23.5376Z" fill="#2D6381"/>
<path d="M15.9943 23.5542L17.6687 28.8808L15.2792 30.7066L15.0786 23.8725L15.9943 23.5542Z" fill="#2C6281"/>
<path d="M15.9333 23.5796L17.5466 28.9648L15.1571 30.7404L15.0176 23.8811L15.9333 23.5796Z" fill="#2B6180"/>
<path d="M15.8635 23.5962L17.4245 29.0401L15.035 30.7821L14.9478 23.8893L15.8635 23.5962Z" fill="#2A6080"/>
<path d="M15.8024 23.6128L17.3024 29.1153L14.9129 30.8155L14.8867 23.9059L15.8024 23.6128Z" fill="#2A5E80"/>
<path d="M15.7592 23.6382L17.1981 29.1993L14.8086 30.8576L14.8348 23.9146L15.7592 23.6382Z" fill="#295D7F"/>
<path d="M15.724 23.6548L17.1107 29.2746L14.7124 30.8993L14.7996 23.9312L15.724 23.6548Z" fill="#285C7F"/>
<path d="M15.6894 23.6714L17.015 29.3498L14.6255 30.9327L14.765 23.9394L15.6894 23.6714Z" fill="#275B7F"/>
<path d="M15.6543 23.6968L16.9188 29.4338L14.5293 30.9748L14.7212 23.9564L15.6543 23.6968Z" fill="#275A7E"/>
<path d="M15.6196 23.7134L16.8318 29.509L14.4336 31.0082L14.6865 23.9646L15.6196 23.7134Z" fill="#26587E"/>
<path d="M15.5846 23.7383L16.7357 29.5842L14.3462 31.0498L14.6514 23.9812L15.5846 23.7383Z" fill="#25577E"/>
<path d="M15.5499 23.7554L16.6487 29.6683L14.2505 31.0837L14.6168 23.9899L15.5499 23.7554Z" fill="#25567D"/>
<path d="M15.5148 23.772L16.5526 29.7435L14.1543 31.1254L14.5816 23.9981L15.5148 23.772Z" fill="#24557D"/>
<path d="M15.4797 23.7969L16.4652 29.8187L14.0669 31.1587L14.5378 24.0146L15.4797 23.7969Z" fill="#23537D"/>
<path d="M15.445 23.814L16.3694 29.9027L13.9712 31.2009L14.5032 24.0233L15.445 23.814Z" fill="#23527C"/>
<path d="M15.41 23.8306L16.282 29.978L13.8838 31.2426L14.4681 24.0399L15.41 23.8306Z" fill="#22517C"/>
<path d="M15.3753 23.856L16.1863 30.0536L13.7881 31.2764L14.4334 24.0486L15.3753 23.856Z" fill="#21507B"/>
<path d="M15.3402 23.8726L16.0902 30.1288L13.6919 31.3181L14.3896 24.0652L15.3402 23.8726Z" fill="#214E7B"/>
<path d="M15.3056 23.8892L16.0032 30.2124L13.605 31.3515L14.355 24.0734L15.3056 23.8892Z" fill="#204D7B"/>
<path d="M15.2704 23.9146L15.907 30.2881L13.5088 31.3936L14.3198 24.0904L15.2704 23.9146Z" fill="#1F4C7A"/>
<path d="M15.2358 23.9312L15.8201 30.3633L13.4131 31.427L14.2852 24.0987L15.2358 23.9312Z" fill="#1F4B7A"/>
<path d="M15.2007 23.9478L15.7239 30.4469L13.3257 31.4687L14.2501 24.1069L15.2007 23.9478Z" fill="#1E4979"/>
<path d="M15.166 23.9731L15.637 30.5226L13.23 31.5108L14.2067 24.1239L15.166 23.9731Z" fill="#1E4879"/>
<path d="M15.1309 23.9897L15.5408 30.5978L13.1338 31.5442L14.1716 24.1321L15.1309 23.9897Z" fill="#1E4779"/>
<path d="M15.0963 24.0063L15.4539 30.6814L13.0469 31.5859L14.137 24.1487L15.0963 24.0063Z" fill="#1D4578"/>
<path d="M15.0611 24.0317L15.3577 30.757L12.9507 31.6197L14.1018 24.1574L15.0611 24.0317Z" fill="#1D4478"/>
<path d="M15.0524 24.0483L15.2966 30.8323L12.8896 31.6614L14.0931 24.174L15.0524 24.0483Z" fill="#1D4377"/>
<path d="M15.0003 24.0737L15.1921 30.9163L12.7852 31.6952L14.041 24.1826L15.0003 24.0737Z" fill="#1D4277"/>
<path d="M14.9568 24.0903L15.0789 30.9915L12.6719 31.7369L13.9887 24.1992L14.9568 24.0903Z" fill="#1C4077"/>
<path d="M14.9567 24.0986L14.9829 30.9496L12.6021 31.6531L13.9887 24.174L14.9567 24.0986Z" fill="#1C4077"/>
<path d="M14.9306 24.1069L14.8434 30.916L12.48 31.5776L13.9451 24.1572L14.9306 24.1069Z" fill="#1C4077"/>
<path d="M14.8783 24.1152L14.6951 30.874L12.3579 31.4938L13.8928 24.132L14.8783 24.1152Z" fill="#1C4077"/>
<path d="M14.8346 24.1236L14.5381 30.8405L12.2271 31.4184L13.8404 24.1152L14.8346 24.1236Z" fill="#1C4077"/>
<path d="M14.791 24.1488L14.3898 30.8155L12.0962 31.3515L13.7881 24.1069L14.791 24.1488Z" fill="#1C4077"/>
<path d="M14.7473 24.1656L14.2415 30.7904L11.9653 31.2846L13.7357 24.0986L14.7473 24.1656Z" fill="#1C4077"/>
<path d="M14.7037 24.1908L14.0845 30.7653L11.8433 31.2176L13.6921 24.0986L14.7037 24.1908Z" fill="#1C4077"/>
<path d="M14.6514 24.216L13.9362 30.7402L11.7124 31.1506L13.6397 24.0903L14.6514 24.216Z" fill="#1C4077"/>
<path d="M14.6077 24.2328L13.7879 30.7152L11.5815 31.0921L13.5874 24.082L14.6077 24.2328Z" fill="#1C4077"/>
<path d="M14.5641 24.258L13.6309 30.6985L11.4507 31.0252L13.535 24.0737L14.5641 24.258Z" fill="#1C4077"/>
<path d="M14.5205 24.2827L13.4827 30.673L11.3286 30.9577L13.4827 24.0649L14.5205 24.2827Z" fill="#1C4077"/>
<path d="M14.4768 24.2994L13.3344 30.6479L11.1978 30.8907L13.4303 24.0649L14.4768 24.2994Z" fill="#1C4077"/>
<path d="M14.4245 24.3246L13.1774 30.6228L11.0669 30.8238L13.3779 24.0566L14.4245 24.3246Z" fill="#1C4077"/>
<path d="M14.3813 24.3415L13.0295 30.5978L10.9365 30.7569L13.3261 24.0483L14.3813 24.3415Z" fill="#1C4077"/>
<path d="M14.3377 24.3667L12.8813 30.5727L10.8145 30.69L13.2738 24.04L14.3377 24.3667Z" fill="#1C4077"/>
<path d="M14.2941 24.3919L12.7243 30.5477L10.6836 30.623L13.2214 24.0317L14.2941 24.3919Z" fill="#1C4077"/>
<path d="M14.2504 24.4086L12.576 30.5225L10.5527 30.556L13.169 24.0317L14.2504 24.4086Z" fill="#1C4077"/>
<path d="M14.1981 24.4334L12.4278 30.4971L10.4307 30.4887L13.1167 24.0146L14.1981 24.4334Z" fill="#1C4077"/>
<path d="M14.1545 24.4336L12.2707 30.447L10.2998 30.3968L13.0643 23.9897L14.1545 24.4336Z" fill="#1C4077"/>
<path d="M14.1108 24.4339L12.1224 30.4054L10.1689 30.3133L13.012 23.9648L14.1108 24.4339Z" fill="#1C4077"/>
<path d="M14.0672 24.4337L11.9741 30.3633L10.0381 30.2293L12.9596 23.9312L14.0672 24.4337Z" fill="#1C4077"/>
<path d="M14.0236 24.4334L11.8172 30.3128L9.91602 30.1369L12.9073 23.9058L14.0236 24.4334Z" fill="#1C4077"/>
<path d="M13.9712 24.4336L11.6689 30.2711L9.78516 30.0534L12.8549 23.8809L13.9712 24.4336Z" fill="#1C4077"/>
<path d="M13.9276 24.4338L11.5206 30.2211L9.6543 29.9615L12.8026 23.856L13.9276 24.4338Z" fill="#1C4077"/>
<path d="M13.8839 24.442L11.3636 30.179L9.52344 29.8775L12.7502 23.8223L13.8839 24.442Z" fill="#1C4077"/>
<path d="M13.8403 24.4418L11.2153 30.1285L9.40137 29.7935L12.6979 23.7969L13.8403 24.4418Z" fill="#1C4077"/>
<path d="M13.7967 24.442L11.067 30.0869L9.27051 29.7016L12.6455 23.772L13.7967 24.442Z" fill="#1C4077"/>
<path d="M13.7443 24.4418L10.91 30.0448L9.13965 29.6177L12.5931 23.7383L13.7443 24.4418Z" fill="#1C4077"/>
<path d="M13.7006 24.442L10.7617 29.9948L9.00879 29.5258L12.5408 23.7134L13.7006 24.442Z" fill="#1C4077"/>
<path d="M13.6571 24.4422L10.6135 29.9531L8.88672 29.4422L12.4885 23.6885L13.6571 24.4422Z" fill="#1C4077"/>
<path d="M13.6134 24.4421L10.4564 29.9027L8.75586 29.3583L12.4361 23.6548L13.6134 24.4421Z" fill="#1C4077"/>
<path d="M13.5615 24.4418L10.3086 29.8606L8.62549 29.2659L12.3842 23.6294L13.5615 24.4418Z" fill="#1C4077"/>
<path d="M13.518 24.4504L10.1604 29.8189L8.50342 29.1824L12.3319 23.6045L13.518 24.4504Z" fill="#1C4077"/>
<path d="M13.4743 24.4502L10.0034 29.7685L8.37256 29.0901L12.2795 23.5708L13.4743 24.4502Z" fill="#1C4077"/>
<path d="M13.4307 24.4504L9.85507 29.7268L8.2417 29.0065L12.2272 23.5459L13.4307 24.4504Z" fill="#1C4077"/>
<path d="M13.387 24.4502L9.70677 29.6763L8.11084 28.9225L12.1748 23.5205L13.387 24.4502Z" fill="#1C4077"/>
<path d="M13.3347 24.4504L9.54982 29.6346L7.98877 28.8306L12.1225 23.4956L13.3347 24.4504Z" fill="#1C4077"/>
<path d="M13.291 24.4502L9.40151 29.5926L7.85791 28.7467L12.0701 23.4619L13.291 24.4502Z" fill="#1C4077"/>
<path d="M13.2474 24.4504L9.25321 29.5425L7.72705 28.6548L12.0177 23.437L13.2474 24.4504Z" fill="#1C4077"/>
<path d="M13.2038 24.4585L9.09619 29.5004L7.59619 28.5708L11.9654 23.4116L13.2038 24.4585Z" fill="#1C4077"/>
<path d="M13.1602 24.4588L8.94796 29.4504L7.47412 28.4873L11.9131 23.3784L13.1602 24.4588Z" fill="#1C4077"/>
<path d="M13.1078 24.4586L8.79966 29.4083L7.34326 28.3949L11.8607 23.353L13.1078 24.4586Z" fill="#1C4077"/>
<path d="M13.0554 24.4168L8.63385 29.3247L7.20361 28.2694L11.8083 23.2861L13.0554 24.4168Z" fill="#1C4077"/>
<path d="M13.0118 24.4253L8.48561 29.2829L7.08154 28.1858L11.756 23.2695L13.0118 24.4253Z" fill="#1C4077"/>
<path d="M12.9681 24.4334L8.33731 29.2492L6.95068 28.1101L11.7036 23.2441L12.9681 24.4334Z" fill="#1C4077"/>
<path d="M12.9245 24.4419L8.18908 29.2074L6.82861 28.0265L11.6513 23.2275L12.9245 24.4419Z" fill="#1C4077"/>
<path d="M12.8809 24.4505L8.04078 29.1658L6.69775 27.943L11.5989 23.2026L12.8809 24.4505Z" fill="#1C4077"/>
<path d="M12.8372 24.4587L7.88375 29.132L6.56689 27.8674L11.5553 23.1772L12.8372 24.4587Z" fill="#1C4077"/>
<path d="M11.5059 23.152L6.44727 27.7783L7.7403 29.0823L12.799 24.456L11.5059 23.152Z" fill="#1C4077"/>
<path d="M7.81443 28.9313L6.43652 27.6499L11.39 23.0854L12.7679 24.3752L7.81443 28.9313Z" fill="#1C4077"/>
<path d="M7.88413 28.7803L6.42773 27.524L11.2853 23.0098L12.733 24.2828L7.88413 28.7803Z" fill="#1C4077"/>
<path d="M7.96255 28.6297L6.41895 27.3902L11.1719 22.9346L12.7067 24.1909L7.96255 28.6297Z" fill="#1C4077"/>
<path d="M8.03225 28.4703L6.41016 27.2559L11.0584 22.8589L12.6805 24.0984L8.03225 28.4703Z" fill="#1C4077"/>
<path d="M8.11067 28.3197L6.40137 27.1221L10.9537 22.7837L12.6456 24.0065L8.11067 28.3197Z" fill="#1C4077"/>
<path d="M8.18037 28.1608L6.39258 26.9882L10.8403 22.7085L12.6193 23.9145L8.18037 28.1608Z" fill="#1C4077"/>
<path d="M8.25879 28.0097L6.38379 26.8539L10.7268 22.6328L12.5844 23.8305L8.25879 28.0097Z" fill="#1C4077"/>
<path d="M8.32898 27.8507L6.37549 26.7285L10.6226 22.5576L12.5586 23.7385L8.32898 27.8507Z" fill="#1C4077"/>
<path d="M8.4074 27.7002L6.3667 26.5946L10.5091 22.4824L12.5324 23.6466L8.4074 27.7002Z" fill="#1C4077"/>
<path d="M8.4771 27.5407L6.35791 26.4603L10.4044 22.415L12.4974 23.5541L8.4771 27.5407Z" fill="#1C4077"/>
<path d="M8.5468 27.3901L6.34912 26.3264L10.291 22.3398L12.4712 23.4621L8.5468 27.3901Z" fill="#1C4077"/>
<path d="M8.62522 27.2311L6.34033 26.1926L10.1775 22.2646L12.445 23.3702L8.62522 27.2311Z" fill="#1C4077"/>
<path d="M8.69492 27.0801L6.33154 26.0583L10.0728 22.189L12.41 23.2777L8.69492 27.0801Z" fill="#1C4077"/>
<path d="M8.77334 26.9211L6.32275 25.9329L9.95938 22.1138L12.3838 23.1858L8.77334 26.9211Z" fill="#1C4077"/>
<path d="M8.8431 26.7701L6.32275 25.7986L9.85473 22.0381L12.3489 23.0934L8.8431 26.7701Z" fill="#1C4077"/>
<path d="M8.92201 26.6111L6.31445 25.6647L9.74178 21.9629L12.3232 23.0098L8.92201 26.6111Z" fill="#1C4077"/>
<path d="M8.99171 26.4606L6.30566 25.5309L9.62834 21.8877L12.2969 22.9178L8.99171 26.4606Z" fill="#1C4077"/>
<path d="M9.07013 26.3011L6.29688 25.3966L9.52362 21.812L12.262 22.8254L9.07013 26.3011Z" fill="#1C4077"/>
<path d="M9.13983 26.1506L6.28809 25.2628L9.41018 21.7368L12.2358 22.7335L9.13983 26.1506Z" fill="#1C4077"/>
<path d="M9.21825 25.9916L6.2793 25.1373L9.30546 21.6616L12.2008 22.6415L9.21825 25.9916Z" fill="#1C4077"/>
<path d="M9.28795 25.8405L6.27051 25.003L9.19202 21.5859L12.1746 22.5491L9.28795 25.8405Z" fill="#1C4077"/>
<path d="M9.36637 25.6816L6.26172 24.8692L9.07858 21.5107L12.1483 22.4571L9.36637 25.6816Z" fill="#1C4077"/>
<path d="M9.43656 25.531L6.25342 24.7354L8.97435 21.4355L12.1139 22.3652L9.43656 25.531Z" fill="#1C4077"/>
<path d="M9.51498 25.3716L6.24463 24.6011L8.86091 21.3599L12.0877 22.2728L9.51498 25.3716Z" fill="#1C4077"/>
<path d="M9.58468 25.221L6.23584 24.4756L8.75619 21.2847L12.0614 22.1892L9.58468 25.221Z" fill="#1C4077"/>
<path d="M9.6631 25.0616L6.22705 24.3413L8.64275 21.209L12.0265 22.0968L9.6631 25.0616Z" fill="#1C4077"/>
<path d="M9.7328 24.911L6.21826 24.2075L8.52931 21.1338L12.0002 22.0048L9.7328 24.911Z" fill="#1C4077"/>
<path d="M9.8025 24.752L6.20947 24.0736L8.42459 21.0669L11.9653 21.9128L9.8025 24.752Z" fill="#1C4077"/>
<path d="M9.88092 24.6009L6.20068 23.9393L8.31115 20.9912L11.9391 21.8204L9.88092 24.6009Z" fill="#1C4077"/>
<path d="M9.95062 24.442L6.19189 23.8055L8.19771 20.916L11.9128 21.7284L9.95062 24.442Z" fill="#1C4077"/>
<path d="M10.0295 24.2914L6.18359 23.68L8.09348 20.8408L11.8784 21.6365L10.0295 24.2914Z" fill="#1C4077"/>
<path d="M10.0992 24.132L6.1748 23.5457L7.98004 20.7651L11.8521 21.544L10.0992 24.132Z" fill="#1C4077"/>
<path d="M10.1776 23.9814L6.16602 23.4119L7.87532 20.6899L11.8172 21.4521L10.1776 23.9814Z" fill="#1C4077"/>
<path d="M10.2473 23.8225L6.15723 23.2781L7.76188 20.6147L11.7909 21.3685L10.2473 23.8225Z" fill="#1C4077"/>
<path d="M10.3258 23.6714L6.14844 23.1438L7.64844 20.5391L11.7647 21.2761L10.3258 23.6714Z" fill="#1C4077"/>
<path d="M10.3955 23.5124L6.13965 23.0099L7.54372 20.4639L11.7298 21.1841L10.3955 23.5124Z" fill="#1C4077"/>
<path d="M10.4739 23.3614L6.13086 22.884L7.43028 20.3882L11.7035 21.0917L10.4739 23.3614Z" fill="#1C4077"/>
<path d="M10.5437 23.2024L6.13086 22.7502L7.32563 20.313L11.6774 20.9998L10.5437 23.2024Z" fill="#1C4077"/>
<path d="M10.6226 23.0519L6.12256 22.6164L7.21267 20.2378L11.6429 20.9078L10.6226 23.0519Z" fill="#1C4077"/>
<path d="M10.6923 22.8924L6.11377 22.482L7.09923 20.1621L11.6167 20.8154L10.6923 22.8924Z" fill="#1C4077"/>
<path d="M10.7707 22.7419L6.10498 22.3482L6.99452 20.0869L11.5817 20.7234L10.7707 22.7419Z" fill="#1C4077"/>
<path d="M10.8404 22.5829L6.09619 22.2144L6.88108 20.0117L11.5555 20.6315L10.8404 22.5829Z" fill="#1C4077"/>
<path d="M10.9188 22.4318L6.0874 22.0885L6.77636 19.936L11.5293 20.5474L10.9188 22.4318Z" fill="#1C4077"/>
<path d="M10.9885 22.2813L6.07861 21.9546L6.66292 19.8608L11.4943 20.4555L10.9885 22.2813Z" fill="#1C4077"/>
<path d="M11.0582 22.1218L6.06982 21.8203L6.54948 19.7852L11.4681 20.363L11.0582 22.1218Z" fill="#1C4077"/>
<path d="M11.1371 21.9713L6.06152 21.6865L6.44524 19.71L11.4336 20.2711L11.1371 21.9713Z" fill="#1C4077"/>
<path d="M11.2068 21.8122L6.05273 21.5526L6.3318 19.6431L11.4074 20.1791L11.2068 21.8122Z" fill="#1C4077"/>
<path d="M11.2852 21.6617L6.03516 21.4188L6.22702 19.5679L11.3811 20.0871L11.2852 21.6617Z" fill="#1C4077"/>
<path d="M11.3549 21.5022L6.03516 21.2929L6.11364 19.4922L11.3462 19.9947L11.3549 21.5022Z" fill="#1C4077"/>
<path d="M11.3636 21.4269L6.0874 21.1673L6.19205 19.375L11.381 19.9194L11.3636 21.4269Z" fill="#1C4077"/>
<path d="M11.3635 21.3599L6.13965 21.0417L6.27046 19.2661L11.4158 19.8524L11.3635 21.3599Z" fill="#1C4077"/>
<path d="M11.3634 21.2845L6.19189 20.9244L6.34015 19.1572L11.4506 19.777L11.3634 21.2845Z" fill="#1C4077"/>
<path d="M11.3725 21.2092L6.24463 20.7988L6.41905 19.04L11.4859 19.7017L11.3725 21.2092Z" fill="#1C4077"/>
<path d="M11.3725 21.1338L6.29688 20.6816L6.49746 18.9312L11.5207 19.6347L11.3725 21.1338Z" fill="#1C4077"/>
<path d="M11.3723 21.0585L6.34033 20.556L6.5758 18.814L11.5554 19.5594L11.3723 21.0585Z" fill="#1C4077"/>
<path d="M11.381 20.9915L6.39258 20.4304L6.65421 18.7051L11.5903 19.484L11.381 20.9915Z" fill="#1C4077"/>
<path d="M11.3809 20.9161L6.44482 20.3131L6.72389 18.5962L11.6251 19.417L11.3809 20.9161Z" fill="#1C4077"/>
<path d="M11.3813 20.8408L6.49756 20.1875L6.80279 18.479L11.6603 19.3417L11.3813 20.8408Z" fill="#1C4077"/>
<path d="M11.3899 20.7654L6.5498 20.0619L6.8812 18.3701L11.6952 19.2663L11.3899 20.7654Z" fill="#1C4077"/>
<path d="M11.3898 20.6984L6.60205 19.9446L6.95961 18.2612L11.73 19.1993L11.3898 20.6984Z" fill="#1C4077"/>
<path d="M11.3898 20.6231L6.6543 19.8191L7.03802 18.144L11.7648 19.1239L11.3898 20.6231Z" fill="#1C4077"/>
<path d="M11.3984 20.5477L6.70654 19.6934L7.11643 18.0352L11.7996 19.0486L11.3984 20.5477Z" fill="#1C4077"/>
<path d="M11.3983 20.4723L6.75879 19.5762L7.18611 17.9263L11.8256 18.9815L11.3983 20.4723Z" fill="#1C4077"/>
<path d="M11.3987 20.397L6.81152 19.4506L7.26501 17.8091L11.8609 18.9062L11.3987 20.397Z" fill="#1C4077"/>
<path d="M11.4074 20.33L6.86377 19.3334L7.34342 17.7002L11.8957 18.8308L11.4074 20.33Z" fill="#1C4077"/>
<path d="M11.4072 20.2542L6.90723 19.2073L7.42176 17.5825L11.9305 18.755L11.4072 20.2542Z" fill="#1C4077"/>
<path d="M11.4071 20.1788L6.95947 19.0817L7.50017 17.4736L11.9653 18.688L11.4071 20.1788Z" fill="#1C4077"/>
<path d="M11.4158 20.1034L7.01172 18.9644L7.57858 17.3647L12.0001 18.6127L11.4158 20.1034Z" fill="#1C4077"/>
<path d="M11.4162 20.0365L7.06445 18.8388L7.64876 17.2476L12.0354 18.5373L11.4162 20.0365Z" fill="#1C4077"/>
<path d="M11.4161 19.9611L7.1167 18.7132L7.72716 17.1387L12.0702 18.4703L11.4161 19.9611Z" fill="#1C4077"/>
<path d="M11.4248 19.8857L7.16895 18.5959L7.80557 17.0298L12.105 18.3949L11.4248 19.8857Z" fill="#1C4077"/>
<path d="M11.4247 19.8104L7.22119 18.4704L7.88398 16.9126L12.1398 18.3196L11.4247 19.8104Z" fill="#1C4077"/>
<path d="M11.4246 19.7434L7.27344 18.3447L7.96239 16.8037L12.1746 18.2526L11.4246 19.7434Z" fill="#1C4077"/>
<path d="M11.4332 19.668L7.32568 18.2275L8.03208 16.6948L12.2094 18.1772L11.4332 19.668Z" fill="#1C4077"/>
<path d="M11.4337 19.5927L7.37842 18.1019L8.11098 16.5776L12.2447 18.1019L11.4337 19.5927Z" fill="#1C4077"/>
<path d="M11.4336 19.5173L7.43066 17.9847L8.18939 16.4688L12.2795 18.0349L11.4336 19.5173Z" fill="#1C4077"/>
<path d="M11.4421 19.442L7.47412 17.8591L8.26773 16.3516L12.3142 17.9596L11.4421 19.442Z" fill="#1C4077"/>
<path d="M11.4421 19.375L7.52637 17.7335L8.34613 16.2427L12.349 17.8842L11.4421 19.375Z" fill="#1C4077"/>
<path d="M11.442 19.2996L7.57861 17.6162L8.42454 16.1338L12.3751 17.8172L11.442 19.2996Z" fill="#1C4077"/>
<path d="M11.4506 19.2243L7.63086 17.4906L8.49423 16.0166L12.4099 17.7419L11.4506 19.2243Z" fill="#1C4077"/>
<path d="M11.451 19.1489L7.68359 17.365L8.57313 15.9077L12.4452 17.6665L11.451 19.1489Z" fill="#1C4077"/>
<path d="M11.451 19.0819L7.73584 17.2477L8.65154 15.7988L12.48 17.5995L11.451 19.0819Z" fill="#1C4077"/>
<path d="M11.4596 19.0066L7.78809 17.1222L8.72995 15.6816L12.5148 17.5242L11.4596 19.0066Z" fill="#1C4077"/>
<path d="M11.4595 18.9312L7.84033 17.0049L8.80836 15.5728L12.5496 17.4488L11.4595 18.9312Z" fill="#1C4077"/>
<path d="M11.4594 18.8559L7.89258 16.8794L8.87804 15.4556L12.5844 17.3735L11.4594 18.8559Z" fill="#1C4077"/>
<path d="M11.4681 18.7889L7.94482 16.7537L8.95645 15.3467L12.6192 17.3065L11.4681 18.7889Z" fill="#1C4077"/>
<path d="M11.4685 18.7135L7.99756 16.6365L9.03535 15.2378L12.6545 17.2311L11.4685 18.7135Z" fill="#1C4077"/>
<path d="M11.4683 18.6382L8.04102 16.5109L9.11369 15.1206L12.6893 17.1558L11.4683 18.6382Z" fill="#1C4077"/>
<path d="M11.477 18.5628L8.09326 16.3853L9.1921 15.0117L12.7241 17.0888L11.477 18.5628Z" fill="#1C4077"/>
<path d="M11.4769 18.4874L8.14551 16.268L9.27051 14.9028L12.7589 17.0134L11.4769 18.4874Z" fill="#1C4077"/>
<path d="M11.4768 18.42L8.19775 16.1419L9.3402 14.7852L12.7937 16.9376L11.4768 18.42Z" fill="#1C4077"/>
<path d="M11.486 18.3451L8.25049 16.0168L9.41909 14.6768L12.829 16.8711L11.486 18.3451Z" fill="#1C4077"/>
<path d="M11.4859 18.2697L8.30273 15.8995L9.4975 14.5679L12.8638 16.7957L11.4859 18.2697Z" fill="#1C4077"/>
<path d="M11.4858 18.1939L8.35498 15.7735L9.57591 14.4502L12.8986 16.7199L11.4858 18.1939Z" fill="#1C4077"/>
<path d="M11.4944 18.1269L8.40723 15.6562L9.65432 14.3413L12.9247 16.6529L11.4944 18.1269Z" fill="#1C4077"/>
<path d="M11.4944 18.0516L8.45947 15.5307L9.72401 14.2241L12.9595 16.5776L11.4944 18.0516Z" fill="#1C4077"/>
<path d="M11.4943 17.9762L8.51172 15.405L9.80242 14.1152L12.9943 16.5022L11.4943 17.9762Z" fill="#1C4077"/>
<path d="M11.5034 17.9008L8.56445 15.2878L9.88131 14.0063L13.0296 16.4352L11.5034 17.9008Z" fill="#1C4077"/>
<path d="M11.5467 17.8677L8.65137 15.2295L9.98567 13.9648L13.099 16.4104L11.5467 17.8677Z" fill="#1C4077"/>
<path d="M11.5992 17.8424L8.73877 15.1707L10.0818 13.9312L13.1603 16.3935L11.5992 17.8424Z" fill="#1C4077"/>
<path d="M11.6426 17.8088L8.83447 15.1036L10.1862 13.8892L13.2211 16.3682L11.6426 17.8088Z" fill="#1C4077"/>
<path d="M11.6951 17.7751L8.92188 15.0448L10.2911 13.8472L13.2911 16.3514L11.6951 17.7751Z" fill="#1C4077"/>
<path d="M11.7385 17.7419L9.01758 14.9865L10.3955 13.814L13.3519 16.3265L11.7385 17.7419Z" fill="#1C4077"/>
<path d="M11.7823 17.7083L9.10498 14.9278L10.4916 13.772L13.4131 16.3097L11.7823 17.7083Z" fill="#1C4077"/>
<path d="M11.8344 17.6746L9.20068 14.8689L10.596 13.7383L13.4827 16.2927L11.8344 17.6746Z" fill="#1C4077"/>
<path d="M11.8782 17.6499L9.28809 14.8107L10.7009 13.6968L13.5439 16.268L11.8782 17.6499Z" fill="#1C4077"/>
<path d="M11.9303 17.6163L9.38379 14.7519L10.7966 13.6548L13.6047 16.2511L11.9303 17.6163Z" fill="#1C4077"/>
<path d="M11.9741 17.5826L9.47119 14.6931L10.9014 13.6211L13.6747 16.2258L11.9741 17.5826Z" fill="#1C4077"/>
<path d="M12.0266 17.5494L9.55859 14.6349L11.0063 13.5796L13.7359 16.2094L12.0266 17.5494Z" fill="#1C4077"/>
<path d="M12.07 17.5157L9.6543 14.576L11.102 13.5459L13.7967 16.1841L12.07 17.5157Z" fill="#1C4077"/>
<path d="M12.1225 17.4821L9.7417 14.5173L11.2068 13.5039L13.8667 16.1672L12.1225 17.4821Z" fill="#1C4077"/>
<path d="M12.1659 17.4569L9.8374 14.4586L11.3112 13.4619L13.9275 16.1504L12.1659 17.4569Z" fill="#1C4077"/>
<path d="M12.2184 17.4237L9.9248 14.4002L11.4161 13.4287L13.9888 16.1255L12.2184 17.4237Z" fill="#1C4077"/>
<path d="M12.2618 17.3901L10.0205 14.3331L11.5118 13.3867L14.0496 16.1087L12.2618 17.3901Z" fill="#1C4077"/>
<path d="M12.3056 17.3564L10.1079 14.2743L11.6166 13.353L14.1195 16.0833L12.3056 17.3564Z" fill="#1C4077"/>
<path d="M12.3577 17.3232L10.2036 14.216L11.7211 13.3115L14.1804 16.067L12.3577 17.3232Z" fill="#1C4077"/>
<path d="M12.4015 17.2896L10.291 14.1573L11.8172 13.2695L14.2416 16.0417L12.4015 17.2896Z" fill="#1C4077"/>
<path d="M12.454 17.2643L10.3784 14.0985L11.922 13.2358L14.3116 16.0248L12.454 17.2643Z" fill="#1C4077"/>
<path d="M12.4974 17.2312L10.4741 14.0402L12.0264 13.1943L14.3724 16.0084L12.4974 17.2312Z" fill="#1C4077"/>
<path d="M12.5499 17.1975L10.5615 13.9814L12.1226 13.1606L14.4336 15.9831L12.5499 17.1975Z" fill="#1C4077"/>
<path d="M12.5933 17.1639L10.6572 13.9227L12.227 13.1187L14.5032 15.9662L12.5933 17.1639Z" fill="#1C4077"/>
<path d="M12.6458 17.1303L10.7446 13.8639L12.3318 13.0767L14.5644 15.941L12.6458 17.1303Z" fill="#1C4077"/>
<path d="M12.6892 17.0971L10.8403 13.8056L12.4363 13.0435L14.6252 15.9245L12.6892 17.0971Z" fill="#1C4077"/>
<path d="M12.7417 17.0634L10.9277 13.7469L12.5324 13.0015L14.6952 15.9077L12.7417 17.0634Z" fill="#1C4077"/>
<path d="M12.7851 17.0381L11.0234 13.688L12.6368 12.9678L14.756 15.8823L12.7851 17.0381Z" fill="#1C4077"/>
<path d="M12.8289 17.005L11.1108 13.6298L12.7417 12.9263L14.8172 15.866L12.8289 17.005Z" fill="#1C4077"/>
<path d="M12.881 16.9714L11.2065 13.5627L12.8374 12.8843L14.8868 15.8407L12.881 16.9714Z" fill="#1C4077"/>
<path d="M12.9248 16.9377L11.2939 13.5039L12.9422 12.8506L14.948 15.8238L12.9248 16.9377Z" fill="#1C4077"/>
<path d="M12.9768 16.9046L11.3809 13.4456L13.0466 12.8091L15.0088 15.799L12.9768 16.9046Z" fill="#1C4077"/>
<path d="M13.0207 16.8709L11.4771 13.3868L13.1427 12.7754L15.0788 15.7821L13.0207 16.8709Z" fill="#1C4077"/>
<path d="M13.0732 16.8456L11.5645 13.328L13.2476 12.7334L15.14 15.7652L13.0732 16.8456Z" fill="#1C4077"/>
<path d="M13.1166 16.812L11.6602 13.2693L13.352 12.6914L15.2009 15.74L13.1166 16.812Z" fill="#1C4077"/>
<path d="M13.1691 16.7788L11.7476 13.211L13.4569 12.6582L15.2708 15.7235L13.1691 16.7788Z" fill="#1C4077"/>
<path d="M13.2124 16.7452L11.8433 13.1522L13.5526 12.6162L15.3316 15.6983L13.2124 16.7452Z" fill="#1C4077"/>
<path d="M13.265 16.7115L11.9307 13.0934L13.6574 12.5825L15.3929 15.6813L13.265 16.7115Z" fill="#1C4077"/>
<path d="M13.3083 16.6784L12.0264 13.0352L13.7618 12.541L15.4624 15.6566L13.3083 16.6784Z" fill="#1C4077"/>
<path d="M13.3521 16.6531L12.1138 12.9764L13.858 12.499L15.5237 15.6397L13.3521 16.6531Z" fill="#1C4077"/>
<path d="M13.4042 16.6194L12.2007 12.9176L13.9623 12.4653L15.5844 15.6228L13.4042 16.6194Z" fill="#1C4077"/>
<path d="M13.448 16.5858L12.2969 12.8589L14.0672 12.4233L15.6544 15.5975L13.448 16.5858Z" fill="#1C4077"/>
<path d="M13.5001 16.5526L12.3838 12.8005L14.1629 12.3901L15.7152 15.5811L13.5001 16.5526Z" fill="#1C4077"/>
<path d="M13.5439 16.519L12.48 12.7334L14.2678 12.3481L15.7765 15.5559L13.5439 16.519Z" fill="#1C4077"/>
<path d="M13.596 16.4854L12.5669 12.6747L14.3721 12.3062L15.846 15.539L13.596 16.4854Z" fill="#1C4077"/>
<path d="M13.6398 16.4606L12.6631 12.6163L14.477 12.2729L15.9073 15.5225L13.6398 16.4606Z" fill="#1C4077"/>
<path d="M13.6923 16.4269L12.7505 12.5576L14.5732 12.231L15.9685 15.4973L13.6923 16.4269Z" fill="#1C4077"/>
<path d="M13.7357 16.3932L12.8462 12.4988L14.6776 12.1973L16.0381 15.4803L13.7357 16.3932Z" fill="#1C4077"/>
<path d="M13.7795 16.3601L12.9336 12.4405L14.7824 12.1558L16.0993 15.4556L13.7795 16.3601Z" fill="#1C4077"/>
<path d="M13.8316 16.3265L13.0293 12.3818L14.8781 12.1138L16.1601 15.4387L13.8316 16.3265Z" fill="#1C4077"/>
<path d="M13.1167 12.4405L14.9655 12.1055L16.2562 15.3718L13.9452 16.3266L13.1167 12.4405Z" fill="#1C4077"/>
<path d="M13.2036 12.4991L15.0525 12.1055L16.3519 15.3132L14.0495 16.3182L13.2036 12.4991Z" fill="#1C4077"/>
<path d="M13.291 12.5578L15.1399 12.0972L16.448 15.2546L14.1631 16.3183L13.291 12.5578Z" fill="#1C4077"/>
<path d="M13.3784 12.616L15.2273 12.0884L16.5441 15.1872L14.268 16.3095L13.3784 12.616Z" fill="#1C4077"/>
<path d="M13.4653 12.6747L15.3142 12.0801L16.6398 15.1287L14.381 16.3096L13.4653 12.6747Z" fill="#1C4077"/>
<path d="M13.5615 12.7334L15.3929 12.0718L16.7359 15.0617L14.4859 16.3013L13.5615 12.7334Z" fill="#1C4077"/>
<path d="M13.6484 12.7921L15.4798 12.0635L16.8316 15.0032L14.599 16.3013L13.6484 12.7921Z" fill="#1C4077"/>
<path d="M13.7358 12.8508L15.5672 12.0552L16.9277 14.9362L14.7126 16.293L13.7358 12.8508Z" fill="#1C4077"/>
<path d="M13.8228 12.9095L15.6541 12.0469L17.0233 14.8777L14.8169 16.2931L13.8228 12.9095Z" fill="#1C4077"/>
<path d="M13.9102 12.9677L15.7416 12.0381L17.1195 14.8187L14.9305 16.2843L13.9102 12.9677Z" fill="#1C4077"/>
<path d="M13.9976 13.0264L15.829 12.0298L17.2156 14.7517L15.0353 16.2844L13.9976 13.0264Z" fill="#1C4077"/>
<path d="M14.0933 13.0851L15.9159 12.0215L17.3113 14.6932L15.1485 16.2761L14.0933 13.0851Z" fill="#1C4077"/>
<path d="M14.1807 13.1438L15.9946 12.0132L17.3987 14.6262L15.2533 16.2762L14.1807 13.1438Z" fill="#1C4077"/>
<path d="M14.2676 13.2025L16.0815 12.0049L17.4943 14.5677L15.3664 16.2679L14.2676 13.2025Z" fill="#1C4077"/>
<path d="M14.355 13.2612L16.1689 11.9966L17.5904 14.5091L15.48 16.2679L14.355 13.2612Z" fill="#1C4077"/>
<path d="M14.4419 13.3199L16.2558 11.9966L17.6861 14.4421L15.5843 16.2596L14.4419 13.3199Z" fill="#1C4077"/>
<path d="M14.5293 13.3786L16.3433 11.9883L17.7822 14.3836L15.6979 16.2596L14.5293 13.3786Z" fill="#1C4077"/>
<path d="M14.6255 13.4368L16.4307 11.9795L17.8784 14.3162L15.8028 16.2508L14.6255 13.4368Z" fill="#1C4077"/>
<path d="M14.7124 13.4955L16.5176 11.9712L17.974 14.2576L15.9159 16.2509L14.7124 13.4955Z" fill="#1C4077"/>
<path d="M14.7998 13.5542L16.5963 11.9629L18.0702 14.1907L16.0207 16.2426L14.7998 13.5542Z" fill="#1C4077"/>
<path d="M14.8867 13.6129L16.6832 11.9546L18.1658 14.1321L16.1338 16.2427L14.8867 13.6129Z" fill="#1C4077"/>
<path d="M14.9741 13.6716L16.7706 11.9463L18.2619 14.0736L16.2474 16.2344L14.9741 13.6716Z" fill="#1C4077"/>
<path d="M15.0615 13.7303L16.858 11.938L18.358 14.0067L16.3522 16.2345L15.0615 13.7303Z" fill="#1C4077"/>
<path d="M15.1572 13.789L16.945 11.9297L18.4537 13.9481L16.4654 16.2262L15.1572 13.789Z" fill="#1C4077"/>
<path d="M15.2446 13.8472L17.0324 11.9209L18.5499 13.8807L16.5702 16.2258L15.2446 13.8472Z" fill="#1C4077"/>
<path d="M15.3315 13.9059L17.1106 11.9126L18.6455 13.8221L16.6833 16.2175L15.3315 13.9059Z" fill="#1C4077"/>
<path d="M15.4189 13.9646L17.198 11.9043L18.7416 13.7636L16.7881 16.2175L15.4189 13.9646Z" fill="#1C4077"/>
<path d="M15.5059 14.0233L17.2849 11.896L18.8373 13.6967L16.9012 16.2092L15.5059 14.0233Z" fill="#1C4077"/>
<path d="M15.5933 14.0819L17.3723 11.896L18.9334 13.638L17.0148 16.2092L15.5933 14.0819Z" fill="#1C4077"/>
<path d="M15.6895 14.1406L17.4598 11.8877L19.0296 13.5711L17.1197 16.2009L15.6895 14.1406Z" fill="#1C4077"/>
<path d="M15.7764 14.1993L17.5467 11.8794L19.1165 13.5126L17.2328 16.201L15.7764 14.1993Z" fill="#1C4077"/>
<path d="M15.8638 14.2575L17.6341 11.8706L19.2126 13.4451L17.3376 16.1922L15.8638 14.2575Z" fill="#1C4077"/>
<path d="M15.9507 14.3162L17.7123 11.8623L19.3082 13.3866L17.4507 16.1923L15.9507 14.3162Z" fill="#1C4077"/>
<path d="M16.0381 14.3749L17.7997 11.854L19.4044 13.328L17.5555 16.184L16.0381 14.3749Z" fill="#1C4077"/>
<path d="M16.1255 14.4336L17.8871 11.8457L19.5005 13.2611L17.6691 16.1841L16.1255 14.4336Z" fill="#1C4077"/>
<path d="M16.2212 14.4923L17.9741 11.8374L19.5962 13.2026L17.7822 16.1758L16.2212 14.4923Z" fill="#1C4077"/>
<path d="M16.3086 14.551L18.0615 11.8291L19.6923 13.1356L17.8871 16.1758L16.3086 14.551Z" fill="#1C4077"/>
<path d="M16.3955 14.6097L18.1484 11.8208L19.788 13.0771L18.0002 16.1675L16.3955 14.6097Z" fill="#1C4077"/>
<path d="M16.4829 14.668L18.2358 11.812L19.8841 13.018L18.105 16.1671L16.4829 14.668Z" fill="#1C4077"/>
<path d="M16.5698 14.7267L18.314 11.8037L19.9797 12.9511L18.2181 16.1588L16.5698 14.7267Z" fill="#1C4077"/>
<path d="M16.6572 14.7854L18.4014 11.7954L20.0758 12.8926L18.3229 16.1505L16.6572 14.7854Z" fill="#1C4077"/>
<path d="M16.7534 14.8441L18.4889 11.7871L20.172 12.8256L18.4366 16.1506L16.7534 14.8441Z" fill="#1C4077"/>
<path d="M16.8403 14.9027L18.5758 11.7871L20.2677 12.767L18.5496 16.1422L16.8403 14.9027Z" fill="#1C4077"/>
<path d="M16.9277 14.9614L18.6632 11.7788L20.3638 12.7001L18.6545 16.1423L16.9277 14.9614Z" fill="#1C4077"/>
<path d="M17.0146 15.0201L18.7501 11.7705L20.4594 12.6415L18.7676 16.134L17.0146 15.0201Z" fill="#1C4077"/>
<path d="M17.1021 15.0783L18.8375 11.7617L20.5555 12.5825L18.8724 16.1336L17.1021 15.0783Z" fill="#1C4077"/>
<path d="M17.1895 15.137L18.9162 11.7534L20.6517 12.5156L18.986 16.1253L17.1895 15.137Z" fill="#1C4077"/>
<path d="M17.2852 15.1958L19.0032 11.7368L20.7474 12.4571L19.0991 16.1254L17.2852 15.1958Z" fill="#1C4077"/>
<path d="M17.3726 15.2544L19.0906 11.7368L20.8435 12.3901L19.204 16.1171L17.3726 15.2544Z" fill="#1C4077"/>
<path d="M17.416 15.2797L19.1515 11.7705L20.9044 12.4321L19.2387 16.1675L17.416 15.2797Z" fill="#1C4077"/>
<path d="M17.4595 15.3045L19.2124 11.812L20.974 12.4737L19.2647 16.2174L17.4595 15.3045Z" fill="#1C4077"/>
<path d="M17.4946 15.3298L19.2737 11.8457L21.0353 12.5157L19.2999 16.2678L17.4946 15.3298Z" fill="#1C4077"/>
<path d="M17.5381 15.355L19.3346 11.8877L21.1049 12.5577L19.3346 16.3098L17.5381 15.355Z" fill="#1C4077"/>
<path d="M17.5815 15.3799L19.3955 11.9209L21.1658 12.5993L19.3606 16.3598L17.5815 15.3799Z" fill="#1C4077"/>
<path d="M17.6255 15.4051L19.4656 11.9629L21.236 12.6413L19.3958 16.4101L17.6255 15.4051Z" fill="#1C4077"/>
<path d="M17.6689 15.4304L19.5265 11.9966L21.2969 12.6833L19.4219 16.4522L17.6689 15.4304Z" fill="#1C4077"/>
<path d="M17.7124 15.4635L19.5874 12.0381L21.3665 12.7249L19.4566 16.5021L17.7124 15.4635Z" fill="#1C4077"/>
<path d="M17.7559 15.4889L19.6483 12.0718L21.4274 12.7669L19.4913 16.5525L17.7559 15.4889Z" fill="#1C4077"/>
<path d="M17.7998 15.5141L19.7097 12.1138L21.4975 12.8089L19.5178 16.6029L17.7998 15.5141Z" fill="#1C4077"/>
<path d="M17.8433 15.5389L19.7706 12.147L21.5584 12.8505L19.5526 16.6445L17.8433 15.5389Z" fill="#1C4077"/>
<path d="M17.8867 15.5642L19.8315 12.189L21.628 12.8925L19.5873 16.6948L17.8867 15.5642Z" fill="#1C4077"/>
<path d="M17.9219 15.5895L19.8928 12.2227L21.6893 12.9345L19.6137 16.7453L17.9219 15.5895Z" fill="#1C4077"/>
<path d="M17.9653 15.6147L19.9537 12.2646L21.7589 12.9765L19.6485 16.7873L17.9653 15.6147Z" fill="#1C4077"/>
<path d="M18.0088 15.6479L20.0146 12.2979L21.8198 13.0181L19.6745 16.8372L18.0088 15.6479Z" fill="#1C4077"/>
<path d="M18.0527 15.6732L20.076 12.3398L21.8899 13.0601L19.7097 16.8876L18.0527 15.6732Z" fill="#1C4077"/>
<path d="M18.0962 15.6985L20.1369 12.3735L21.9508 13.1022L19.7444 16.938L18.0962 15.6985Z" fill="#1C4077"/>
<path d="M18.1396 15.7232L20.2065 12.415L22.0205 13.1437L19.7705 16.9795L18.1396 15.7232Z" fill="#1C4077"/>
<path d="M18.1836 15.7486L20.2679 12.4487L22.0818 13.1857L19.8057 17.03L18.1836 15.7486Z" fill="#1C4077"/>
<path d="M18.2271 15.7738L20.3288 12.4907L22.1515 13.2277L19.8317 17.0803L18.2271 15.7738Z" fill="#1C4077"/>
<path d="M18.2705 15.7986L20.3897 12.5239L22.2124 13.2693L19.8664 17.1219L18.2705 15.7986Z" fill="#1C4077"/>
<path d="M18.3145 15.8239L20.4511 12.5659L22.2825 13.3113L19.9017 17.1723L18.3145 15.8239Z" fill="#1C4077"/>
<path d="M18.3491 15.8576L20.5119 12.5996L22.3433 13.3534L19.9276 17.2227L18.3491 15.8576Z" fill="#1C4077"/>
<path d="M18.3926 15.8823L20.5728 12.6411L22.4129 13.3949L19.9623 17.2726L18.3926 15.8823Z" fill="#1C4077"/>
<path d="M18.4365 15.9076L20.6342 12.6748L22.4743 13.4369L19.9976 17.3147L18.4365 15.9076Z" fill="#1C4077"/>
<path d="M18.48 15.9329L20.6951 12.7168L22.5439 13.4789L20.0236 17.365L18.48 15.9329Z" fill="#1C4077"/>
<path d="M18.5234 15.9577L20.756 12.75L22.6048 13.5205L20.0583 17.415L18.5234 15.9577Z" fill="#1C4077"/>
<path d="M18.5669 15.9829L20.8169 12.792L22.6745 13.5625L20.0843 17.4654L18.5669 15.9829Z" fill="#1C4077"/>
<path d="M18.6108 16.0083L20.8783 12.8257L22.7358 13.6046L20.1196 17.5074L18.6108 16.0083Z" fill="#1C4077"/>
<path d="M18.6543 16.0335L20.9479 12.8677L22.8055 13.6466L20.1543 17.5578L18.6543 16.0335Z" fill="#1C4077"/>
<path d="M18.6978 16.0667L21.0088 12.9009L22.8664 13.6881L20.1803 17.6077L18.6978 16.0667Z" fill="#1C4077"/>
<path d="M18.7417 16.0919L21.0702 12.9429L22.9365 13.7301L20.2155 17.6497L18.7417 16.0919Z" fill="#1C4077"/>
<path d="M18.7764 16.1173L21.131 12.9766L22.9973 13.7722L20.2415 17.7002L18.7764 16.1173Z" fill="#1C4077"/>
<path d="M18.8198 16.142L21.1919 13.0181L23.0669 13.8137L20.2762 17.7501L18.8198 16.142Z" fill="#1C4077"/>
<path d="M18.8638 16.1673L21.2533 13.0518L23.1283 13.8558L20.3114 17.8005L18.8638 16.1673Z" fill="#1C4077"/>
<path d="M18.9072 16.1926L21.3142 13.0938L23.1979 13.8978L20.3375 17.8425L18.9072 16.1926Z" fill="#1C4077"/>
<path d="M18.9507 16.2174L21.3751 13.127L23.2588 13.9393L20.3722 17.8924L18.9507 16.2174Z" fill="#1C4077"/>
<path d="M18.9946 16.2426L21.4365 13.1689L23.3289 13.9813L20.4074 17.9428L18.9946 16.2426Z" fill="#1C4077"/>
<path d="M19.0381 16.2763L21.4974 13.2026L23.3898 14.0234L20.4334 17.9849L19.0381 16.2763Z" fill="#1C4077"/>
<path d="M19.0815 16.3011L21.5583 13.2441L23.4594 14.0649L20.4682 18.0348L19.0815 16.3011Z" fill="#1C4077"/>
<path d="M19.1255 16.3264L21.6197 13.2778L23.5208 14.107L20.4947 18.0852L19.1255 16.3264Z" fill="#1C4077"/>
<path d="M19.1689 16.3517L21.6893 13.3198L23.5905 14.149L20.5294 18.1356L19.1689 16.3517Z" fill="#1C4077"/>
<path d="M19.2036 16.3765L21.7501 13.353L23.6513 14.1905L20.5641 18.1771L19.2036 16.3765Z" fill="#1C4077"/>
<path d="M19.2476 16.4017L21.8115 13.395L23.7214 14.2325L20.5906 18.2275L19.2476 16.4017Z" fill="#1C4077"/>
<path d="M19.291 16.427L21.8724 13.4287L23.7823 14.2746L20.6253 18.278L19.291 16.427Z" fill="#1C4077"/>
<path d="M19.3345 16.4607L21.9333 13.4707L23.8519 14.3166L20.6601 18.3199L19.3345 16.4607Z" fill="#1C4077"/>
<path d="M19.3784 16.4855L21.9947 13.5039L23.9133 14.3582L20.6866 18.3699L19.3784 16.4855Z" fill="#1C4077"/>
<path d="M19.4219 16.5107L22.0556 13.5459L23.9829 14.4002L20.7213 18.4203L19.4219 16.5107Z" fill="#1C4077"/>
<path d="M19.4653 16.536L22.1165 13.5796L24.0438 14.4422L20.7473 18.4707L19.4653 16.536Z" fill="#1C4077"/>
<path d="M19.4917 16.5778L22.1516 13.6465L24.0527 14.5343L20.7737 18.5041L19.4917 16.5778Z" fill="#1C4077"/>
<path d="M19.5176 16.6195L22.1775 13.7217L24.0699 14.6178L20.7908 18.5374L19.5176 16.6195Z" fill="#1C4077"/>
<path d="M19.5439 16.6696L22.2038 13.7886L24.0788 14.7015L20.8085 18.5792L19.5439 16.6696Z" fill="#1C4077"/>
<path d="M19.5698 16.7118L22.2384 13.8643L24.0873 14.7855L20.8256 18.613L19.5698 16.7118Z" fill="#1C4077"/>
<path d="M19.5962 16.7536L22.2648 13.9312L24.0962 14.8692L20.852 18.6464L19.5962 16.7536Z" fill="#1C4077"/>
<path d="M19.6226 16.8037L22.2999 14.0063L24.1051 14.9527L20.8697 18.6797L19.6226 16.8037Z" fill="#1C4077"/>
<path d="M19.6484 16.8459L22.3258 14.0737L24.1223 15.0369L20.8868 18.722L19.6484 16.8459Z" fill="#1C4077"/>
<path d="M19.6748 16.8877L22.3521 14.1406L24.1312 15.1205L20.9132 18.7554L19.6748 16.8877Z" fill="#1C4077"/>
<path d="M19.7007 16.9294L22.3867 14.2158L24.1396 15.2041L20.9303 18.7887L19.7007 16.9294Z" fill="#1C4077"/>
<path d="M19.7271 16.9795L22.4131 14.2827L24.1486 15.2877L20.948 18.8305L19.7271 16.9795Z" fill="#1C4077"/>
<path d="M19.7534 17.0217L22.4482 14.3584L24.1575 15.3718L20.9656 18.8643L19.7534 17.0217Z" fill="#1C4077"/>
<path d="M19.7793 17.0635L22.4741 14.4253L24.1659 15.4554L20.9915 18.8977L19.7793 17.0635Z" fill="#1C4077"/>
<path d="M19.8057 17.1052L22.5092 14.5005L24.1836 15.539L21.0092 18.9393L19.8057 17.1052Z" fill="#1C4077"/>
<path d="M19.8315 17.1558L22.535 14.5679L24.192 15.6231L21.0263 18.9732L19.8315 17.1558Z" fill="#1C4077"/>
<path d="M19.8579 17.1975L22.5614 14.6431L24.2009 15.7151L21.044 19.0066L19.8579 17.1975Z" fill="#1C4077"/>
<path d="M19.8838 17.2393L22.596 14.71L24.2094 15.7987L21.0698 19.0483L19.8838 17.2393Z" fill="#1C4077"/>
<path d="M19.9102 17.2894L22.6224 14.7769L24.2183 15.8824L21.0875 19.0817L19.9102 17.2894Z" fill="#1C4077"/>
<path d="M19.9365 17.3316L22.6575 14.8525L24.2359 15.9664L21.1051 19.1155L19.9365 17.3316Z" fill="#1C4077"/>
<path d="M19.9624 17.3734L22.6833 14.9194L24.2444 16.0501L21.1223 19.1573L19.9624 17.3734Z" fill="#1C4077"/>
<path d="M19.9888 17.4151L22.7097 14.9946L24.2533 16.1337L21.1487 19.1906L19.9888 17.4151Z" fill="#1C4077"/>
<path d="M20.0146 17.4657L22.7443 15.062L24.2617 16.2178L21.1658 19.2245L20.0146 17.4657Z" fill="#1C4077"/>
<path d="M20.041 17.5074L22.7707 15.1372L24.2707 16.3014L21.1835 19.2662L20.041 17.5074Z" fill="#1C4077"/>
<path d="M20.0669 17.5492L22.8053 15.2041L24.2878 16.385L21.2093 19.2996L20.0669 17.5492Z" fill="#1C4077"/>
<path d="M20.0933 17.5909L22.8316 15.271L24.2968 16.4687L21.227 19.333L20.0933 17.5909Z" fill="#1C4077"/>
<path d="M20.1196 17.6415L22.858 15.3467L24.3057 16.5527L21.2446 19.3668L20.1196 17.6415Z" fill="#1C4077"/>
<path d="M20.1455 17.6833L22.8926 15.4136L24.3141 16.6364L21.2618 19.4085L20.1455 17.6833Z" fill="#1C4077"/>
<path d="M20.1719 17.725L22.919 15.4888L24.323 16.7199L21.2882 19.4419L20.1719 17.725Z" fill="#1C4077"/>
<path d="M20.1978 17.7756L22.9536 15.5562L24.3315 16.8124L21.3053 19.4758L20.1978 17.7756Z" fill="#1C4077"/>
<path d="M20.2241 17.8173L22.9799 15.6313L24.3491 16.896L21.323 19.5174L20.2241 17.8173Z" fill="#1C4077"/>
<path d="M20.2505 17.859L23.015 15.6982L24.358 16.9796L21.3406 19.5508L20.2505 17.859Z" fill="#1C4077"/>
<path d="M20.2764 17.9008L23.0409 15.7651L24.3665 17.0633L21.3665 19.5842L20.2764 17.9008Z" fill="#1C4077"/>
<path d="M20.3027 17.9514L23.0673 15.8408L24.3754 17.1474L21.3841 19.6264L20.3027 17.9514Z" fill="#1C4077"/>
<path d="M20.3286 17.9931L23.1019 15.9077L24.3838 17.231L21.4013 19.6598L20.3286 17.9931Z" fill="#1C4077"/>
<path d="M20.355 18.0348L23.1282 15.9829L24.4015 17.3146L21.4189 19.6931L20.355 18.0348Z" fill="#1C4077"/>
<path d="M20.3809 18.0771L23.1628 16.0503L24.4099 17.3987L21.4448 19.7354L20.3809 18.0771Z" fill="#1C4077"/>
<path d="M20.4072 18.1272L23.1892 16.1255L24.4189 17.4823L21.4625 19.7687L20.4072 18.1272Z" fill="#1C4077"/>
<path d="M20.4336 18.1689L23.2156 16.1924L24.4278 17.5659L21.4801 19.8021L20.4336 18.1689Z" fill="#1C4077"/>
<path d="M20.4595 18.2106L23.2502 16.2676L24.4362 17.6495L21.506 19.8438L20.4595 18.2106Z" fill="#1C4077"/>
<path d="M20.4858 18.2613L23.2765 16.335L24.4539 17.7336L21.5236 19.8777L20.4858 18.2613Z" fill="#1C4077"/>
<path d="M20.5117 18.303L23.3111 16.4019L24.4623 17.8173L21.5408 19.9111L20.5117 18.303Z" fill="#1C4077"/>
<path d="M20.5381 18.3447L23.3375 16.4771L24.4712 17.9008L21.5584 19.9528L20.5381 18.3447Z" fill="#1C4077"/>
<path d="M20.5645 18.3865L23.3639 16.5439L24.4802 17.9929L21.5848 19.9862L20.5645 18.3865Z" fill="#1C4077"/>
<path d="M20.5903 18.437L23.3985 16.6196L24.4886 18.0769L21.602 20.02L20.5903 18.437Z" fill="#1C4077"/>
<path d="M20.6167 18.4788L23.4248 16.6865L24.4975 18.1606L21.6196 20.0534L20.6167 18.4788Z" fill="#1C4077"/>
<path d="M20.6426 18.5205L23.4594 16.7617L24.5147 18.2441L21.6368 20.0951L20.6426 18.5205Z" fill="#1C4077"/>
<path d="M20.6689 18.5628L23.4858 16.8291L24.5236 18.3283L21.6631 20.1289L20.6689 18.5628Z" fill="#1C4077"/>
<path d="M20.6948 18.6129L23.5204 16.896L24.532 18.4119L21.6803 20.1623L20.6948 18.6129Z" fill="#1C4077"/>
<path d="M20.7212 18.6546L23.5468 16.9712L24.541 18.4955L21.6979 20.204L20.7212 18.6546Z" fill="#1C4077"/>
<path d="M23.5743 17.0415L20.7441 18.6973L21.7196 20.235L24.5498 18.5793L23.5743 17.0415Z" fill="#1C4077"/>
<path d="M23.5975 17.0738L20.7524 18.7383L21.7279 20.2761L24.573 18.6116L23.5975 17.0738Z" fill="#1C4077"/>
<path d="M23.6129 17.1022L20.7529 18.7754L21.7284 20.3132L24.5884 18.64L23.6129 17.1022Z" fill="#1C4077"/>
<path d="M23.6404 17.1413L20.7656 18.8232L21.7411 20.361L24.6159 18.6791L23.6404 17.1413Z" fill="#1C4077"/>
<path d="M23.6636 17.1736L20.7739 18.8643L21.7494 20.402L24.6391 18.7114L23.6636 17.1736Z" fill="#1C4077"/>
<path d="M23.6794 17.202L20.7822 18.897L21.7577 20.4348L24.6549 18.7398L23.6794 17.202Z" fill="#1C4077"/>
<path d="M23.6997 17.246L20.7876 18.9497L21.7631 20.4875L24.6752 18.7838L23.6997 17.246Z" fill="#1C4077"/>
<path d="M23.7224 17.2695L20.7954 18.9819L21.7709 20.5197L24.6979 18.8073L23.7224 17.2695Z" fill="#1C4077"/>
<path d="M23.75 17.3091L20.8081 19.0303L21.7836 20.5681L24.7255 18.8469L23.75 17.3091Z" fill="#1C4077"/>
<path d="M23.7732 17.3331L20.8164 19.063L21.7919 20.6008L24.7486 18.8709L23.7732 17.3331Z" fill="#1C4077"/>
<path d="M23.7889 17.3698L20.8247 19.104L21.8002 20.6418L24.7644 18.9076L23.7889 17.3698Z" fill="#1C4077"/>
<path d="M23.8087 17.405L20.8296 19.1479L21.8051 20.6857L24.7842 18.9428L23.8087 17.405Z" fill="#1C4077"/>
<path d="M23.8319 17.4373L20.8379 19.189L21.8134 20.7267L24.8074 18.9751L23.8319 17.4373Z" fill="#1C4077"/>
<path d="M23.8595 17.4686L20.8506 19.229L21.8261 20.7668L24.835 19.0064L23.8595 17.4686Z" fill="#1C4077"/>
<path d="M23.8827 17.5009L20.8589 19.27L21.8344 20.8078L24.8582 19.0387L23.8827 17.5009Z" fill="#1C4077"/>
<path d="M23.8906 17.5332L20.8594 19.3066L21.8349 20.8444L24.8661 19.071L23.8906 17.5332Z" fill="#1C4077"/>
<path d="M23.9182 17.5728L20.8721 19.355L21.8476 20.8928L24.8937 19.1106L23.9182 17.5728Z" fill="#1C4077"/>
<path d="M23.9414 17.5968L20.8804 19.3877L21.8559 20.9255L24.9169 19.1346L23.9414 17.5968Z" fill="#1C4077"/>
<path d="M23.9646 17.6291L20.8887 19.4287L21.8642 20.9665L24.9401 19.1669L23.9646 17.6291Z" fill="#1C4077"/>
<path d="M23.9922 17.66L20.9014 19.4683L21.8769 21.006L24.9677 19.1978L23.9922 17.66Z" fill="#1C4077"/>
<path d="M24.0001 17.701L20.9019 19.5137L21.8774 21.0515L24.9756 19.2388L24.0001 17.701Z" fill="#1C4077"/>
<path d="M24.0277 17.7323L20.9146 19.5537L21.89 21.0915L25.0032 19.2701L24.0277 17.7323Z" fill="#1C4077"/>
<path d="M24.0509 17.7646L20.9229 19.5947L21.8983 21.1325L25.0264 19.3024L24.0509 17.7646Z" fill="#1C4077"/>
<path d="M24.0741 17.7882L20.9312 19.627L21.9066 21.1647L25.0496 19.3259L24.0741 17.7882Z" fill="#1C4077"/>
<path d="M24.0864 17.8365L20.936 19.6797L21.9115 21.2175L25.0619 19.3743L24.0864 17.8365Z" fill="#1C4077"/>
<path d="M24.1008 17.8605L20.9355 19.7124L21.911 21.2502L25.0763 19.3983L24.1008 17.8605Z" fill="#1C4077"/>
<path d="M24.124 17.8928L20.9438 19.7534L21.9193 21.2912L25.0995 19.4306L24.124 17.8928Z" fill="#1C4077"/>
<path d="M24.1516 17.9237L20.9565 19.793L21.932 21.3308L25.1271 19.4615L24.1516 17.9237Z" fill="#1C4077"/>
<path d="M24.1743 17.956L20.9644 19.834L21.9399 21.3718L25.1498 19.4938L24.1743 17.956Z" fill="#1C4077"/>
<path d="M24.1871 17.9961L20.9697 19.8784L21.9452 21.4162L25.1626 19.5338L24.1871 17.9961Z" fill="#1C4077"/>
<path d="M24.2103 18.0284L20.978 19.9194L21.9535 21.4572L25.1858 19.5661L24.2103 18.0284Z" fill="#1C4077"/>
<path d="M24.2335 18.0519L20.9863 19.9517L21.9618 21.4894L25.209 19.5896L24.2335 18.0519Z" fill="#1C4077"/>
<path d="M24.2611 18.0915L20.999 20L21.9745 21.5378L25.2366 19.6293L24.2611 18.0915Z" fill="#1C4077"/>
<path d="M24.2765 18.1199L20.9995 20.0371L21.975 21.5749L25.252 19.6577L24.2765 18.1199Z" fill="#1C4077"/>
<path d="M24.2923 18.1565L21.0078 20.0781L21.9833 21.6159L25.2678 19.6943L24.2923 18.1565Z" fill="#1C4077"/>
<path d="M24.3198 18.1874L21.0205 20.1177L21.996 21.6555L25.2953 19.7252L24.3198 18.1874Z" fill="#1C4077"/>
<path d="M24.3426 18.2197L21.0283 20.1587L22.0038 21.6965L25.3181 19.7575L24.3426 18.2197Z" fill="#1C4077"/>
<path d="M24.3701 18.251L21.041 20.1987L22.0165 21.7365L25.3456 19.7888L24.3701 18.251Z" fill="#1C4077"/>
<path d="M24.386 18.2872L21.042 20.2437L22.0175 21.7814L25.3615 19.825L24.386 18.2872Z" fill="#1C4077"/>
<path d="M24.4018 18.3156L21.0503 20.2764L22.0258 21.8141L25.3773 19.8534L24.4018 18.3156Z" fill="#1C4077"/>
<path d="M24.4294 18.3552L21.063 20.3247L22.0385 21.8625L25.4049 19.893L24.4294 18.3552Z" fill="#1C4077"/>
<path d="M24.4521 18.3875L21.0708 20.3657L22.0463 21.9035L25.4276 19.9253L24.4521 18.3875Z" fill="#1C4077"/>
<path d="M24.4723 18.4227L21.0762 20.4097L22.0517 21.9474L25.4478 19.9605L24.4723 18.4227Z" fill="#1C4077"/>
<path d="M24.4955 18.455L21.0845 20.4507L22.06 21.9885L25.471 19.9928L24.4955 18.455Z" fill="#1C4077"/>
<path d="M24.5108 18.4834L21.0923 20.4834L22.0678 22.0212L25.4863 20.0212L24.5108 18.4834Z" fill="#1C4077"/>
<path d="M24.5384 18.523L21.105 20.5317L22.0805 22.0695L25.5139 20.0608L24.5384 18.523Z" fill="#1C4077"/>
<path d="M24.5616 18.547L21.1133 20.5645L22.0888 22.1022L25.5371 20.0848L24.5616 18.547Z" fill="#1C4077"/>
<path d="M24.5774 18.5832L21.1143 20.6094L22.0898 22.1472L25.5529 20.121L24.5774 18.5832Z" fill="#1C4077"/>
<path d="M24.605 18.6145L21.127 20.6494L22.1024 22.1872L25.5805 20.1523L24.605 18.6145Z" fill="#1C4077"/>
<path d="M24.6203 18.6512L21.1348 20.6904L22.1103 22.2282L25.5958 20.189L24.6203 18.6512Z" fill="#1C4077"/>
<path d="M21.1309 20.7316L24.6977 18.6294L25.6745 20.1704L22.1163 22.2726L21.1309 20.7316Z" fill="#1C4077"/>
<path d="M21.1396 20.782L24.7676 18.6128L25.753 20.1538L22.1251 22.3146L21.1396 20.782Z" fill="#1C4077"/>
<path d="M21.1396 20.8324L24.846 18.5962L25.8315 20.1289L22.1251 22.365L21.1396 20.8324Z" fill="#1C4077"/>
<path d="M21.1484 20.8744L24.9246 18.5796L25.9101 20.1123L22.1339 22.4071L21.1484 20.8744Z" fill="#1C4077"/>
<path d="M21.1484 20.9242L24.9944 18.5708L25.9886 20.0951L22.1426 22.4485L21.1484 20.9242Z" fill="#1C4077"/>
<path d="M21.1572 20.9746L25.0729 18.5542L26.0671 20.0785L22.1514 22.4989L21.1572 20.9746Z" fill="#1C4077"/>
<path d="M21.1572 21.0167L25.1514 18.5376L26.1456 20.0619L22.1601 22.5409L21.1572 21.0167Z" fill="#1C4077"/>
<path d="M21.1572 21.0666L25.2212 18.5205L26.2241 20.0448L22.1601 22.5909L21.1572 21.0666Z" fill="#1C4077"/>
<path d="M21.166 21.1086L25.2997 18.5039L26.3026 20.0198L22.1689 22.6329L21.166 21.1086Z" fill="#1C4077"/>
<path d="M21.166 21.159L25.3782 18.4873L26.3811 20.0032L22.1776 22.6749L21.166 21.159Z" fill="#1C4077"/>
<path d="M21.1748 21.2094L25.4481 18.4707L26.4597 19.9866L22.1864 22.7253L21.1748 21.2094Z" fill="#1C4077"/>
<path d="M21.1748 21.2509L25.5265 18.4536L26.5469 19.9695L22.1952 22.7668L21.1748 21.2509Z" fill="#1C4077"/>
<path d="M21.1748 21.3013L25.605 18.437L26.6254 19.9529L22.1952 22.8089L21.1748 21.3013Z" fill="#1C4077"/>
<path d="M21.1836 21.3517L25.6749 18.4204L26.7039 19.9363L22.2039 22.8593L21.1836 21.3517Z" fill="#1C4077"/>
<path d="M21.1836 21.3932L25.7534 18.4116L26.7824 19.9108L22.2127 22.9007L21.1836 21.3932Z" fill="#1C4077"/>
<path d="M21.1919 21.4436L25.8314 18.395L26.8605 19.8942L22.221 22.9511L21.1919 21.4436Z" fill="#1C4077"/>
<path d="M21.1919 21.494L25.9012 18.3784L26.939 19.8776L22.221 22.9932L21.1919 21.494Z" fill="#1C4077"/>
<path d="M21.1919 21.536L25.9797 18.3618L27.0175 19.861L22.2297 23.0352L21.1919 21.536Z" fill="#1C4077"/>
<path d="M21.2007 21.5859L26.0582 18.3447L27.096 19.8439L22.2385 23.0851L21.2007 21.5859Z" fill="#1C4077"/>
<path d="M21.2007 21.628L26.128 18.3281L27.1745 19.8273L22.2472 23.1271L21.2007 21.628Z" fill="#1C4077"/>
<path d="M21.2095 21.6784L26.2066 18.3115L27.2531 19.8107L22.256 23.1691L21.2095 21.6784Z" fill="#1C4077"/>
<path d="M21.2095 21.7283L26.2851 18.2944L27.3316 19.7852L22.256 23.2191L21.2095 21.7283Z" fill="#1C4077"/>
<path d="M21.2183 21.7703L26.3549 18.2778L27.4101 19.7686L22.2648 23.2611L21.2183 21.7703Z" fill="#1C4077"/>
<path d="M21.2183 21.8207L26.4334 18.2612L27.4886 19.752L22.2735 23.3115L21.2183 21.8207Z" fill="#1C4077"/>
<path d="M21.2183 21.871L26.5119 18.2529L27.5671 19.7353L22.2822 23.3534L21.2183 21.871Z" fill="#1C4077"/>
<path d="M21.2271 21.9126L26.5817 18.2358L27.6457 19.7183L22.291 23.395L21.2271 21.9126Z" fill="#1C4077"/>
<path d="M21.2271 21.963L26.6602 18.2192L27.7241 19.7017L22.291 23.4454L21.2271 21.963Z" fill="#1C4077"/>
<path d="M21.2358 22.005L26.7387 18.2026L27.8027 19.6767L22.2998 23.4874L21.2358 22.005Z" fill="#1C4077"/>
<path d="M21.2358 22.0549L26.8172 18.1855L27.8812 19.6596L22.3085 23.5289L21.2358 22.0549Z" fill="#1C4077"/>
<path d="M21.2358 22.1053L26.887 18.1689L27.9597 19.643L22.3172 23.5793L21.2358 22.1053Z" fill="#1C4077"/>
<path d="M21.2446 22.1473L26.9656 18.1523L28.0382 19.6264L22.326 23.6214L21.2446 22.1473Z" fill="#1C4077"/>
<path d="M21.2446 22.1972L27.044 18.1353L28.1254 19.6093L22.326 23.6713L21.2446 22.1972Z" fill="#1C4077"/>
<path d="M21.2534 22.2476L27.1139 18.1187L28.204 19.5927L22.3348 23.7133L21.2534 22.2476Z" fill="#1C4077"/>
<path d="M21.2534 22.2897L27.1924 18.1021L28.2825 19.5761L22.3435 23.7553L21.2534 22.2897Z" fill="#1C4077"/>
<path d="M21.2617 22.3401L27.2704 18.0854L28.3606 19.5511L22.3518 23.8057L21.2617 22.3401Z" fill="#1C4077"/>
<path d="M21.2617 22.3899L27.3402 18.0767L28.439 19.5339L22.3518 23.8472L21.2617 22.3899Z" fill="#1C4077"/>
<path d="M21.2617 22.4319L27.4187 18.0601L28.5175 19.5173L22.3606 23.8892L21.2617 22.4319Z" fill="#1C4077"/>
<path d="M21.2705 22.4823L27.4973 18.0435L28.5961 19.5007L22.3693 23.9396L21.2705 22.4823Z" fill="#1C4077"/>
<path d="M21.2705 22.5239L27.567 18.0264L28.6746 19.4837L22.3781 23.9811L21.2705 22.5239Z" fill="#1C4077"/>
<path d="M21.2793 22.5743L27.6456 18.0098L28.7531 19.4671L22.3869 24.0315L21.2793 22.5743Z" fill="#1C4077"/>
<path d="M21.2793 22.6247L27.7241 17.9932L28.8316 19.4421L22.3869 24.0736L21.2793 22.6247Z" fill="#1C4077"/>
<path d="M21.2793 22.6667L27.7938 17.9766L28.9101 19.4255L22.3956 24.1156L21.2793 22.6667Z" fill="#1C4077"/>
<path d="M21.2881 22.7166L27.8724 17.9595L28.9887 19.4084L22.4044 24.1655L21.2881 22.7166Z" fill="#1C4077"/>
<path d="M21.2881 22.767L27.9509 17.9429L29.0672 19.3918L22.4131 24.2075L21.2881 22.767Z" fill="#1C4077"/>
<path d="M21.2969 22.809L28.0207 17.9263L29.1457 19.3752L22.4219 24.2496L21.2969 22.809Z" fill="#1C4077"/>
<path d="M21.2969 22.8589L28.0992 17.9175L29.2242 19.358L22.4219 24.2994L21.2969 22.8589Z" fill="#1C4077"/>
<path d="M21.2969 22.9093L28.1777 17.9009L29.3027 19.333L22.4306 24.3414L21.2969 22.9093Z" fill="#1C4077"/>
<path d="M21.3057 22.9513L28.2475 17.8843L29.3812 19.3164L22.4394 24.3918L21.3057 22.9513Z" fill="#1C4077"/>
<path d="M28.3222 17.863L21.3086 22.9941L22.4448 24.4265L29.4584 19.2954L28.3222 17.863Z" fill="#1C4077"/>
<path d="M21.3057 23.0351L28.4045 17.9346L29.5295 19.3751L22.4307 24.4756L21.3057 23.0351Z" fill="#1C4077"/>
<path d="M21.3057 23.0685L28.483 18.0015L29.5993 19.4504L22.4219 24.5174L21.3057 23.0685Z" fill="#1C4077"/>
<path d="M21.3057 23.1102L28.5615 18.0684L29.6603 19.5173L22.4132 24.5591L21.3057 23.1102Z" fill="#1C4077"/>
<path d="M21.3057 23.1436L28.6312 18.1353L29.7301 19.5925L22.4045 24.6009L21.3057 23.1436Z" fill="#1C4077"/>
<path d="M21.3057 23.1775L28.7097 18.2026L29.7999 19.6683L22.3958 24.6432L21.3057 23.1775Z" fill="#1C4077"/>
<path d="M21.3057 23.2193L28.7882 18.2695L29.8609 19.7352L22.3783 24.6849L21.3057 23.2193Z" fill="#1C4077"/>
<path d="M21.3057 23.2527L28.8667 18.3364L29.9307 19.8105L22.3696 24.7267L21.3057 23.2527Z" fill="#1C4077"/>
<path d="M21.3057 23.2861L28.9452 18.4033L29.9917 19.8857L22.3609 24.7685L21.3057 23.2861Z" fill="#1C4077"/>
<path d="M21.3057 23.3199L29.0237 18.4707L30.0615 19.9531L22.3522 24.8107L21.3057 23.3199Z" fill="#1C4077"/>
<path d="M21.3057 23.3617L29.1022 18.5376L30.1312 20.0284L22.3435 24.8525L21.3057 23.3617Z" fill="#1C4077"/>
<path d="M21.3057 23.3951L29.1719 18.6045L30.1923 20.1037L22.326 24.8943L21.3057 23.3951Z" fill="#1C4077"/>
<path d="M21.3057 23.4285L29.2504 18.6714L30.2621 20.1705L22.3173 24.9277L21.3057 23.4285Z" fill="#1C4077"/>
<path d="M21.3057 23.4703L29.3289 18.7383L30.3318 20.2458L22.3086 24.9694L21.3057 23.4703Z" fill="#1C4077"/>
<path d="M21.3057 23.5042L29.4074 18.8057L30.3929 20.3216L22.2998 25.0117L21.3057 23.5042Z" fill="#1C4077"/>
<path d="M21.3057 23.5375L29.4859 18.8726L30.4626 20.3968L22.2824 25.0535L21.3057 23.5375Z" fill="#1C4077"/>
<path d="M21.3057 23.5792L29.5644 18.9478L30.5237 20.4637L22.2737 25.0952L21.3057 23.5792Z" fill="#1C4077"/>
<path d="M21.3057 23.6126L29.6429 19.0146L30.5935 20.5389L22.265 25.1369L21.3057 23.6126Z" fill="#1C4077"/>
<path d="M21.3057 23.6465L29.7126 19.082L30.6632 20.6147L22.2562 25.1792L21.3057 23.6465Z" fill="#1C4077"/>
<path d="M21.3057 23.6799L29.7911 19.1489L30.7243 20.6816L22.2475 25.221L21.3057 23.6799Z" fill="#1C4077"/>
<path d="M21.3057 23.7217L29.8696 19.2158L30.794 20.7569L22.2301 25.2627L21.3057 23.7217Z" fill="#1C4077"/>
<path d="M21.3057 23.7551L29.9481 19.2827L30.8638 20.8321L22.2214 25.3045L21.3057 23.7551Z" fill="#1C4077"/>
<path d="M21.3057 23.789L30.0266 19.3501L30.9249 20.8995L22.2126 25.3467L21.3057 23.789Z" fill="#1C4077"/>
<path d="M21.3057 23.8307L30.1051 19.417L30.9946 20.9748L22.2039 25.3885L21.3057 23.8307Z" fill="#1C4077"/>
<path d="M21.3057 23.8641L30.1749 19.4839L31.0644 21.0501L22.1865 25.4303L21.3057 23.8641Z" fill="#1C4077"/>
<path d="M21.3057 23.8975L30.2533 19.5508L31.1254 21.1253L22.1778 25.4721L21.3057 23.8975Z" fill="#1C4077"/>
<path d="M21.3057 23.9393L30.3318 19.6177L31.1952 21.1922L22.169 25.5138L21.3057 23.9393Z" fill="#1C4077"/>
<path d="M21.3057 23.9732L30.4103 19.6851L31.2562 21.268L22.1603 25.5561L21.3057 23.9732Z" fill="#1C4077"/>
<path d="M21.3057 24.0066L30.4888 19.752L31.326 21.3432L22.1516 25.5978L21.3057 24.0066Z" fill="#1C4077"/>
<path d="M21.3057 24.04L30.5673 19.8188L31.3958 21.4101L22.1342 25.6396L21.3057 24.04Z" fill="#1C4077"/>
<path d="M21.3057 24.0817L30.6458 19.8857L31.4568 21.4854L22.1254 25.6814L21.3057 24.0817Z" fill="#1C4077"/>
<path d="M21.3057 24.1156L30.7155 19.9531L31.5266 21.5612L22.1167 25.7236L21.3057 24.1156Z" fill="#1C4077"/>
<path d="M21.3057 24.149L30.794 20.02L31.5964 21.6281L22.108 25.7654L21.3057 24.149Z" fill="#1C4077"/>
<path d="M21.3057 24.1908L30.8725 20.0869L31.6574 21.7033L22.0905 25.8072L21.3057 24.1908Z" fill="#1C4077"/>
<path d="M21.3057 24.2242L30.951 20.1538L31.7272 21.7786L22.0818 25.849L21.3057 24.2242Z" fill="#1C4077"/>
<path d="M21.3057 24.2576L31.0295 20.2207L31.7969 21.8539L22.0731 25.8907L21.3057 24.2576Z" fill="#1C4077"/>
<path d="M21.3057 24.2998L31.108 20.2881L31.858 21.9213L22.0644 25.9246L21.3057 24.2998Z" fill="#1C4077"/>
<path d="M21.3057 24.3332L31.1865 20.355L31.9278 21.9965L22.0557 25.9664L21.3057 24.3332Z" fill="#1C4077"/>
<path d="M21.3057 24.3666L31.2562 20.4219L31.9888 22.0718L22.0382 26.0081L21.3057 24.3666Z" fill="#1C4077"/>
<path d="M21.3057 24.4084L31.3347 20.4888L32.0586 22.1387L22.0295 26.0499L21.3057 24.4084Z" fill="#1C4077"/>
<path d="M21.3057 24.4422L31.4132 20.5562L32.1283 22.2144L22.0208 26.0922L21.3057 24.4422Z" fill="#1C4077"/>
<path d="M21.3057 24.4756L31.4917 20.6313L32.1894 22.2896L22.0121 26.1339L21.3057 24.4756Z" fill="#1C4077"/>
<path d="M21.3057 24.509L31.5702 20.6982L32.2592 22.3565L21.9946 26.1756L21.3057 24.509Z" fill="#1C4077"/>
<path d="M21.3057 24.5507L31.6487 20.7651L32.3289 22.4318L21.9859 26.2174L21.3057 24.5507Z" fill="#1C4077"/>
<path d="M21.3057 24.5846L31.7272 20.8325L32.39 22.5076L21.9772 26.2597L21.3057 24.5846Z" fill="#1C4077"/>
<path d="M21.3057 24.618L31.7969 20.8994L32.4597 22.5745L21.9685 26.3014L21.3057 24.618Z" fill="#1C4077"/>
<path d="M21.3057 24.6598L31.8754 20.9663L32.5295 22.6497L21.9597 26.3432L21.3057 24.6598Z" fill="#1C4077"/>
<path d="M21.3057 24.6932L31.9539 21.0332L32.5905 22.725L21.9423 26.385L21.3057 24.6932Z" fill="#1C4077"/>
<path d="M21.3057 24.7266L32.0324 21.1001L32.6603 22.8003L21.9336 26.4267L21.3057 24.7266Z" fill="#1C4077"/>
<path d="M32.106 21.1683L21.3042 24.7666L21.9187 26.4678L32.7204 22.8696L32.106 21.1683Z" fill="#1C4077"/>
<path d="M32.1358 21.283L21.3184 24.8115L21.9214 26.5165L32.7389 22.988L32.1358 21.283Z" fill="#1C4077"/>
<path d="M32.1408 21.4106L21.3164 24.8667L21.9079 26.5754L32.7324 23.1194L32.1408 21.4106Z" fill="#1C4077"/>
<path d="M32.158 21.5283L21.3188 24.9146L21.8989 26.6269L32.738 23.2406L32.158 21.5283Z" fill="#1C4077"/>
<path d="M32.184 21.6513L21.3306 24.9678L21.8964 26.6757L32.7498 23.3593L32.184 21.6513Z" fill="#1C4077"/>
<path d="M32.2066 21.7821L21.3389 25.0269L21.8929 26.7383L32.7606 23.4936L32.2066 21.7821Z" fill="#1C4077"/>
<path d="M32.2257 21.8999L21.3447 25.0747L21.8873 26.7896L32.7682 23.6148L32.2257 21.8999Z" fill="#1C4077"/>
<path d="M32.2355 22.0181L21.3418 25.123L21.8728 26.8413L32.7665 23.7364L32.2355 22.0181Z" fill="#1C4077"/>
<path d="M32.2576 22.1412L21.3511 25.1743L21.8702 26.8959L32.7767 23.8628L32.2576 22.1412Z" fill="#1C4077"/>
<path d="M32.2802 22.2659L21.3618 25.229L21.8693 26.9538L32.7877 23.9906L32.2802 22.2659Z" fill="#1C4077"/>
<path d="M32.2973 22.3807L21.3672 25.272L21.8605 26.9918L32.7906 24.1005L32.2973 22.3807Z" fill="#1C4077"/>
<path d="M32.3145 22.5126L21.373 25.332L21.8544 27.055L32.7959 24.2355L32.3145 22.5126Z" fill="#1C4077"/>
<path d="M32.3282 22.6231L21.3765 25.3726L21.8463 27.0985L32.798 24.3491L32.3282 22.6231Z" fill="#1C4077"/>
<path d="M32.3489 22.753L21.3784 25.4326L21.8363 27.1615L32.8068 24.4819L32.3489 22.753Z" fill="#1C4077"/>
<path d="M32.3651 22.8684L21.3848 25.4761L21.8307 27.2078L32.811 24.6002L32.3651 22.8684Z" fill="#1C4077"/>
<path d="M32.3907 22.9937L21.3931 25.5332L21.8273 27.2677L32.8249 24.7282L32.3907 22.9937Z" fill="#1C4077"/>
<path d="M32.4024 23.1091L21.396 25.5767L21.8183 27.3139L32.8247 24.8464L32.4024 23.1091Z" fill="#1C4077"/>
<path d="M32.4304 23.2394L21.4072 25.6367L21.8175 27.3766L32.8407 24.9792L32.4304 23.2394Z" fill="#1C4077"/>
<path d="M32.446 23.3554L21.415 25.6807L21.8133 27.4231L32.8443 25.0978L32.446 23.3554Z" fill="#1C4077"/>
<path d="M32.4609 23.4872L21.4141 25.7422L21.8003 27.4871L32.8471 25.2321L32.4609 23.4872Z" fill="#1C4077"/>
<path d="M32.4801 23.6011L21.418 25.7856L21.7921 27.533L32.8543 25.3484L32.4801 23.6011Z" fill="#1C4077"/>
<path d="M32.4898 23.7328L21.4214 25.8452L21.7835 27.5949L32.8519 25.4825L32.4898 23.7328Z" fill="#1C4077"/>
<path d="M32.513 23.8468L21.4302 25.8887L21.7802 27.6406L32.8629 25.5987L32.513 23.8468Z" fill="#1C4077"/>
<path d="M32.5263 23.9784L21.4297 25.9497L21.7676 27.7039L32.8642 25.7326L32.5263 23.9784Z" fill="#1C4077"/>
<path d="M32.5462 24.0873L21.4365 25.9897L21.7611 27.7377L32.8707 25.8353L32.5462 24.0873Z" fill="#1C4077"/>
<path d="M32.5708 24.2089L21.4482 26.0405L21.7607 27.7905L32.8833 25.9589L32.5708 24.2089Z" fill="#1C4077"/>
<path d="M32.5944 24.3306L21.4595 26.0913L21.7613 27.8515L32.8962 26.0908L32.5944 24.3306Z" fill="#1C4077"/>
<path d="M32.6054 24.4538L21.4585 26.1436L21.7481 27.9057L32.895 26.2159L32.6054 24.4538Z" fill="#1C4077"/>
<path d="M32.6241 24.5834L21.4658 26.2021L21.7433 27.9661L32.9016 26.3473L32.6241 24.5834Z" fill="#1C4077"/>
<path d="M32.6476 24.6963L21.4697 26.2451L21.735 28.0108L32.9128 26.4619L32.6476 24.6963Z" fill="#1C4077"/>
<path d="M32.6615 24.8256L21.4731 26.3032L21.7262 28.0705L32.9145 26.5929L32.6615 24.8256Z" fill="#1C4077"/>
<path d="M32.6714 24.9477L21.4731 26.354L21.714 28.1229L32.9123 26.7166L32.6714 24.9477Z" fill="#1C4077"/>
<path d="M32.7061 25.0674L21.4897 26.4033L21.7184 28.1737L32.9348 26.8377L32.7061 25.0674Z" fill="#1C4077"/>
<path d="M32.7117 25.1891L21.4863 26.4536L21.7027 28.2254L32.9281 26.9609L32.7117 25.1891Z" fill="#1C4077"/>
<path d="M32.7423 25.3037L21.5 26.4995L21.7045 28.2726L32.9468 27.0768L32.7423 25.3037Z" fill="#1C4077"/>
<path d="M32.7528 25.433L21.5024 26.5571L21.6947 28.3315L32.945 27.2073L32.7528 25.433Z" fill="#1C4077"/>
<path d="M32.768 25.5527L21.5015 26.606L21.6814 28.3815L32.948 27.3282L32.768 25.5527Z" fill="#1C4077"/>
<path d="M32.7906 25.6806L21.5171 26.6621L21.6848 28.4387L32.9583 27.4573L32.7906 25.6806Z" fill="#1C4077"/>
<path d="M32.8037 25.7953L21.5151 26.7075L21.6709 28.4852L32.9595 27.5729L32.8037 25.7953Z" fill="#1C4077"/>
<path d="M32.8209 25.9139L21.5176 26.7549L21.6611 28.5335L32.9644 27.6925L32.8209 25.9139Z" fill="#1C4077"/>
<path d="M32.8537 26.0483L21.5361 26.8179L21.6679 28.6057L32.9855 27.8361L32.8537 26.0483Z" fill="#1C4077"/>
<path d="M32.8683 26.1619L21.5371 26.8618L21.6569 28.6504L32.9881 27.9505L32.8683 26.1619Z" fill="#1C4077"/>
<path d="M32.8893 26.2752L21.5449 26.9053L21.6527 28.6946L32.9971 28.0645L32.8893 26.2752Z" fill="#1C4077"/>
<path d="M32.8973 26.409L21.54 26.9673L21.6354 28.7572L32.9927 28.199L32.8973 26.409Z" fill="#1C4077"/>
<path d="M32.9227 26.5299L21.5532 27.0181L21.6366 28.8086L33.006 28.3204L32.9227 26.5299Z" fill="#1C4077"/>
<path d="M32.9433 26.6542L21.562 27.0703L21.633 28.8613L33.0143 28.4452L32.9433 26.6542Z" fill="#1C4077"/>
<path d="M32.9551 26.7744L21.5625 27.1201L21.6217 28.9199L33.0143 28.5741L32.9551 26.7744Z" fill="#1C4077"/>
<path d="M32.9732 26.8937L21.5698 27.1689L21.6169 28.969L33.0203 28.6938L32.9732 26.8937Z" fill="#1C4077"/>
</g>
<circle cx="20" cy="20" r="19.5" stroke="black" stroke-opacity="0.05"/>
</svg>
