<svg width="40" height="40" viewBox="0 0 40 40" fill="none" xmlns="http://www.w3.org/2000/svg">
<circle cx="20" cy="20" r="20" fill="#F6F8FA"/>
<path d="M17.3074 24.0482C17.3074 23.7046 17.1145 23.4268 16.8767 23.4268L16.4141 23.4244V24.6724H16.884C17.1218 24.6724 17.3072 24.3916 17.3072 24.0481" fill="#ED272D"/>
<path d="M21.8062 10.092L21.7627 10.0963C19.3074 10.6911 16.6852 12.1977 14.4473 14.4917C9.85457 19.199 8.6176 25.4409 11.6853 28.4341C14.0364 30.7282 18.2354 30.446 22.1365 28.0676L22.1972 28.041L15.6471 19.1947L21.8062 10.092ZM16.1695 23.1793L16.9312 23.1837C17.2992 23.2184 17.5889 23.5931 17.5889 24.0513C17.5889 24.5158 17.2904 24.8957 16.9135 24.9193L16.6076 24.9163L16.4148 24.6725V24.9163H16.1695V23.1793ZM15.7269 23.1793H15.9715V24.9171H15.7269V23.1793ZM11.6152 24.9163H11.3706V23.1785H11.6152V24.9163ZM12.7781 24.9223L12.5003 24.9209L11.6226 24.052H11.6189L11.6211 24.0506L11.6189 24.0499H11.6226L12.5003 23.1802L12.7781 23.1789L11.8975 24.0506L12.7781 24.9223ZM14.1812 23.4297H13.1144V23.9196H13.9943V24.1649H13.1144V24.6785H14.1812V24.9163H12.869V23.1793H14.1812V23.4297ZM15.0443 24.3334L14.7671 24.3305L14.5751 24.0888H15.065C15.2349 24.0733 15.356 23.9328 15.356 23.7593C15.3559 23.6747 15.3238 23.5932 15.2661 23.5312C15.2084 23.4693 15.1295 23.4314 15.045 23.4253L14.9572 23.4245H14.5721V24.9163H14.3269V23.1793H15.0383C15.1885 23.1839 15.3309 23.2468 15.4354 23.3547C15.54 23.4626 15.5984 23.6069 15.5984 23.7571C15.5982 23.9061 15.5404 24.0492 15.4372 24.1566C15.3339 24.264 15.1931 24.3274 15.0443 24.3334ZM27.0745 10.4905C26.6593 10.2747 26.2123 10.1114 25.7402 9.99916L25.7076 9.98877L25.3603 10.5022H27.0923L27.0745 10.4905Z" fill="#ED272D"/>
<path d="M25.3575 10.5021V10.5058L25.3613 10.5021H25.3575ZM28.3172 11.3858C28.1362 11.2092 27.7455 10.9101 27.7455 10.9101L25.0589 10.9175L24.747 11.3851V11.394H28.3239L28.3172 11.3858ZM27.7937 12.2702L27.8949 12.1211L27.9246 12.0841H28.9146V12.0833C28.8474 11.9886 28.7769 11.8962 28.7032 11.8063V11.8018H24.4711L24.1511 12.2681V12.2806H27.7937V12.2702ZM27.1914 13.1602L27.3191 12.9733H29.4264V12.9703C29.3813 12.8721 29.2845 12.6882 29.2845 12.6882H23.8643V12.6932L23.5458 13.1661V13.1669H27.1914V13.1602ZM25.9865 14.9406L26.1173 14.7478V14.7485H29.9306V14.7463C29.9175 14.6509 29.9024 14.5559 29.8855 14.4611H22.672L22.3498 14.9383V14.9398H25.9784L25.9865 14.9406ZM29.9926 15.423L29.9845 15.3475H22.0772L21.7602 15.8168V15.8264H25.391V15.8212L25.5225 15.6262V15.6284H30V15.6255C29.9983 15.5579 29.9958 15.4904 29.9926 15.423ZM21.1751 16.6826L21.1522 16.7122H24.7829L24.9277 16.5045H29.9764L29.9778 16.481C29.9845 16.3848 29.9927 16.2341 29.9927 16.2341H21.4781L21.1751 16.6826ZM20.8782 17.1226L20.5641 17.5873V17.5984H24.192V17.5925L24.2962 17.4388L24.3243 17.4004H29.8665V17.3982C29.8804 17.3124 29.8937 17.2283 29.9056 17.1432L29.9071 17.1203H20.8782V17.1226ZM20.2718 18.0065V18.0198L19.9755 18.4587L19.9548 18.4853H23.593L23.7333 18.285H29.6812V18.2784C29.704 18.1896 29.7255 18.1005 29.7455 18.011V18.0065H20.2733H20.2718ZM19.7391 18.8958L19.417 19.3716H23.0101L23.0183 19.3577L23.1387 19.1729H29.4204V19.1721C29.4463 19.0938 29.518 18.8928 29.518 18.8928H19.7391V18.8958ZM20.0864 20.2575H23.6536V20.2532L23.5414 20.1017L23.5154 20.0589H29.0828L29.113 20.0027C29.1427 19.9303 29.1714 19.8579 29.1995 19.7861V19.7795H19.7185L20.0864 20.2575ZM20.7376 21.1368V21.1442H24.3197V21.1413L24.1764 20.9477H28.6924V20.9388C28.7359 20.8487 28.7795 20.7593 28.8216 20.6699V20.6654H20.3897L20.7376 21.1368ZM21.3999 22.0339V22.0302H24.9715V22.0228L24.8416 21.8404H28.2099V21.8434C28.2646 21.7481 28.3179 21.6519 28.3711 21.5559V21.5529H21.0445L21.3999 22.0339ZM21.0438 21.5525H21.045L21.0438 21.5518V21.5525ZM21.6942 22.4383H21.6986L21.6942 22.4332V22.4383ZM22.0407 22.901L22.0591 22.9173H25.6271V22.9056L25.4903 22.7201H27.6523L27.6722 22.712C27.7277 22.6277 27.7831 22.5435 27.8369 22.4586L27.8466 22.4386H21.6992L22.0407 22.901ZM22.3667 23.3431L22.7013 23.796V23.8027H26.2989L26.2619 23.765L26.1695 23.6393L26.1437 23.6075H27.0466V23.5958C27.1101 23.5116 27.1728 23.4259 27.2357 23.3408L27.2475 23.3254H22.357L22.3667 23.3431ZM23.0183 24.225L23.3455 24.6683L23.3677 24.6897H26.1385V24.6852C26.3623 24.4289 26.5477 24.2116 26.5477 24.2116H23.0181L23.0183 24.225ZM23.7093 25.1603L24.0115 25.5712V25.5764H25.2957C25.3519 25.5202 25.4989 25.385 25.5551 25.3282C25.6031 25.2787 25.6578 25.2202 25.7161 25.1581L25.7626 25.0983H23.6628L23.7093 25.1603ZM24.5445 26.2837L24.5822 26.2556C24.6805 26.1692 24.778 26.0799 24.8755 25.9895V25.9844H24.3244L24.5445 26.2837ZM26.5883 14.0511L26.7279 13.8451H29.7425L29.7439 13.8436C29.7197 13.7552 29.6931 13.6674 29.6641 13.5805V13.5746H23.2686V13.5767L22.9457 14.0606L26.5883 14.0571V14.0511Z" fill="#ED272D"/>
<circle cx="20" cy="20" r="19.5" stroke="black" stroke-opacity="0.05"/>
</svg>
