<svg width="40" height="40" viewBox="0 0 40 40" fill="none" xmlns="http://www.w3.org/2000/svg">
<circle cx="20" cy="20" r="20" fill="#F6F8FA"/>
<g clip-path="url(#clip0_18553_55637)">
<mask id="mask0_18553_55637" style="mask-type:luminance" maskUnits="userSpaceOnUse" x="9" y="13" width="23" height="15">
<path d="M31.9929 13.9473H9V27.9403H31.9929V13.9473Z" fill="white"/>
</mask>
<g mask="url(#mask0_18553_55637)">
<path d="M20.9348 15.2133C22.8155 15.436 24.1518 17.1268 23.9256 18.9916C23.6993 20.8564 21.9883 22.1785 20.1075 21.9558C18.2268 21.7332 16.8905 20.0354 17.1168 18.1775C17.3501 16.3127 19.0541 14.9837 20.9348 15.2133Z" fill="#DA202C"/>
<path d="M17.1309 27.0632C18.8702 26.8544 24.4275 25.6437 26.0608 18.602C26.1386 18.3723 26.2022 18.1566 26.2588 17.9479C26.4072 17.4191 26.5062 16.9807 26.5699 16.6815C26.5981 16.5354 26.6123 16.424 26.6264 16.3475C26.6264 16.3127 26.6264 16.2918 26.6406 16.2779C26.8244 14.8236 28.1678 13.7869 29.6384 13.9678C31.109 14.1556 32.1555 15.4847 31.9716 16.9389C31.9575 17.0364 31.8514 17.8713 31.5121 19.1099C31.5121 19.1099 30.1263 23.7789 26.8527 26.0542C26.7395 26.1377 26.6123 26.2143 26.4921 26.2908C25.4739 26.931 24.2578 27.4598 22.8438 27.7242C22.8438 27.7242 22.8225 27.7242 22.8155 27.7242C22.7094 27.7451 22.6104 27.759 22.5044 27.7729C18.4743 28.3435 15.8936 27.0006 15.8936 27.0006C16.2117 27.1606 17.0531 27.0632 17.1238 27.0562L17.1309 27.0632Z" fill="#243A7A"/>
<path d="M23.8688 27.0632C22.1295 26.8544 16.5721 25.6437 14.9389 18.602C14.8611 18.3723 14.7975 18.1566 14.7409 17.9479C14.5924 17.4191 14.4934 16.9807 14.4298 16.6815C14.3945 16.5354 14.3874 16.424 14.3732 16.3475C14.3732 16.3127 14.3732 16.2918 14.3591 16.2779C14.1753 14.8236 12.8248 13.7869 11.3542 13.9678C9.88354 14.1556 8.83712 15.4847 9.02095 16.9459C9.03509 17.0433 9.14115 17.8783 9.48053 19.1169C9.48053 19.1169 10.8663 23.7859 14.1399 26.0612C14.253 26.1447 14.3803 26.2212 14.5005 26.2978C15.5186 26.9379 16.7348 27.4668 18.1488 27.7312C18.1488 27.7312 18.17 27.7312 18.1771 27.7312C18.2832 27.7521 18.3822 27.766 18.4882 27.7799C22.5183 28.4061 25.099 27.0284 25.099 27.0284C24.7809 27.1815 23.9536 27.0632 23.8759 27.0632H23.8688Z" fill="#006EB7"/>
</g>
</g>
<circle cx="20" cy="20" r="19.5" stroke="black" stroke-opacity="0.05"/>
<defs>
<clipPath id="clip0_18553_55637">
<rect width="23" height="14" fill="white" transform="translate(9 13.9473)"/>
</clipPath>
</defs>
</svg>
