<svg width="40" height="40" viewBox="0 0 40 40" fill="none" xmlns="http://www.w3.org/2000/svg">
<circle cx="20" cy="20" r="20" fill="#F6F8FA"/>
<path d="M15.1887 14.478H15.4754C15.6245 14.4889 15.7694 14.5322 15.9 14.6049C15.9225 14.6177 15.9475 14.6252 15.9733 14.6269C16.0404 14.6298 16.1057 14.6495 16.1632 14.6841C16.1888 14.6993 16.219 14.7048 16.2483 14.6995C16.4477 14.6609 16.6513 14.6486 16.854 14.6628C16.8847 14.6654 16.9155 14.6582 16.942 14.6423L17.027 14.5909C17.039 14.5839 17.0527 14.5802 17.0666 14.5802C17.0805 14.5802 17.0942 14.5839 17.1062 14.5909L17.6195 14.8725C17.6307 14.8787 17.6431 14.8826 17.6559 14.884C17.6687 14.8854 17.6816 14.8843 17.6939 14.8807C17.7063 14.8771 17.7178 14.8711 17.7278 14.863C17.7378 14.8549 17.7461 14.8449 17.7522 14.8337C17.7577 14.8239 17.7614 14.8132 17.7632 14.8021L17.7852 14.6775C17.7877 14.6609 17.7935 14.6449 17.8023 14.6306C17.811 14.6163 17.8226 14.6039 17.8363 14.5942C17.85 14.5844 17.8656 14.5776 17.882 14.574C17.8984 14.5704 17.9154 14.5702 17.9319 14.5734C17.96 14.5777 17.9858 14.5914 18.0052 14.6122C18.0696 14.7016 18.1655 14.7632 18.2736 14.7845C18.4815 14.81 18.6924 14.7802 18.8851 14.698C19.0435 14.6335 19.2436 14.4927 19.4182 14.5514C19.4947 14.5765 19.5684 14.6094 19.6381 14.6496C19.6618 14.6635 19.6898 14.668 19.7166 14.6621C19.7882 14.6462 19.863 14.6555 19.9285 14.6885C20.1265 14.786 20.3633 14.7926 20.5716 14.8447C20.5956 14.8513 20.6176 14.8639 20.6354 14.8813C20.7136 14.9595 20.8122 15.0144 20.9199 15.0397C20.9309 15.0424 20.9424 15.0424 20.9535 15.0399C20.9646 15.0373 20.9749 15.0323 20.9837 15.025C21.1662 14.8784 21.7902 15.0353 22.0102 15.1108C22.0756 15.1353 22.1457 15.1446 22.2152 15.138C22.2846 15.1314 22.3517 15.109 22.4113 15.0727C22.4307 15.061 22.4533 15.0558 22.4758 15.058C22.6899 15.0771 22.9029 15.1074 23.1138 15.149C23.205 15.1594 23.2971 15.1614 23.3887 15.1548C23.4006 15.1548 23.4122 15.1514 23.4222 15.1451C23.4322 15.1387 23.4402 15.1296 23.4452 15.1189C23.4732 15.0666 23.4855 15.0072 23.4804 14.948C23.479 14.9301 23.4847 14.9123 23.4964 14.8985C23.5081 14.8848 23.5247 14.8762 23.5427 14.8747C23.549 14.8736 23.5555 14.8736 23.5618 14.8747C23.7624 14.9119 23.9588 14.9687 24.1484 15.0441C24.247 15.0824 24.3526 15.0993 24.4583 15.0939C24.5639 15.0885 24.6672 15.0608 24.7614 15.0126C24.8257 14.9773 24.8978 14.9586 24.9711 14.9583C25.3064 14.9534 25.5817 15.0236 25.7968 15.1688C25.8312 15.1922 25.8532 15.1834 25.8613 15.1431L25.8818 15.0434C25.8832 15.037 25.8858 15.0309 25.8896 15.0255C25.8933 15.0201 25.8981 15.0155 25.9036 15.012C25.9091 15.0084 25.9153 15.006 25.9217 15.0049C25.9282 15.0037 25.9348 15.0038 25.9412 15.0052H25.9456C26.3636 15.1394 26.7603 15.1284 27.1921 15.1438C27.6581 15.1505 28.1239 15.124 28.5861 15.0646C28.9321 15.0265 29.2262 15.0874 29.5547 15.1497C29.9121 15.2156 30.2771 15.2294 30.6384 15.1908C30.665 15.1888 30.6913 15.1972 30.7118 15.2142C30.7885 15.2797 30.8714 15.3464 30.9603 15.4144C31.2683 15.652 31.3966 15.4019 31.5924 15.2223C31.6144 15.202 31.6436 15.1912 31.6735 15.1923C31.7035 15.1934 31.7318 15.2063 31.7523 15.2281L31.7589 15.2362L31.8828 15.3968C31.8912 15.4082 31.9023 15.4173 31.9151 15.4235C31.9279 15.4296 31.9419 15.4325 31.9561 15.432C32.4449 15.4173 32.9357 15.3929 33.4285 15.3587C33.5957 15.3477 33.8398 15.3286 33.9791 15.432C34.145 15.5502 34.34 15.6209 34.543 15.6366C34.5647 15.6387 34.5866 15.6349 34.6063 15.6255C34.6259 15.616 34.6426 15.6013 34.6545 15.583C34.7865 15.3785 35.0944 15.5493 35.2528 15.6358C35.4662 15.7488 35.6766 15.737 35.8966 15.7979C35.9155 15.803 35.9331 15.8119 35.9485 15.824C35.9638 15.836 35.9767 15.851 35.9862 15.8681C35.9956 15.8852 36.0016 15.904 36.0038 15.9234C36.0059 15.9428 36.0041 15.9625 35.9985 15.9812L35.989 16.0135C35.9772 16.0668 35.946 16.1139 35.9014 16.1455C35.8568 16.177 35.802 16.1909 35.7478 16.1843C35.3103 16.1649 34.872 16.1853 34.4382 16.2452C34.0759 16.2936 33.7313 16.2349 33.3735 16.196C32.7255 16.1325 32.0733 16.1235 31.4238 16.1689C31.3761 16.1689 31.3688 16.1894 31.4032 16.2232C31.4298 16.2491 31.4514 16.2797 31.467 16.3134C31.4778 16.3363 31.4801 16.3622 31.4736 16.3867C31.4713 16.3976 31.4659 16.4076 31.4579 16.4155C31.45 16.4233 31.4399 16.4286 31.4289 16.4307C31.4012 16.4375 31.3721 16.4349 31.346 16.4234C31.1309 16.3319 30.9127 16.2396 30.6912 16.1462C30.619 16.1109 30.5393 16.0937 30.4589 16.0961C30.3785 16.0985 30.3 16.1205 30.23 16.1601C30.2078 16.173 30.1824 16.1796 30.1567 16.1792H29.6434C29.6331 16.1792 29.6232 16.1833 29.6159 16.1906C29.6086 16.1979 29.6045 16.2077 29.6045 16.218C29.6045 16.218 29.6045 16.218 29.6045 16.2239C29.6302 16.3669 29.6661 16.6507 29.4462 16.6727C29.1508 16.708 28.8516 16.6571 28.5846 16.526C28.4291 16.4476 28.2766 16.3794 28.1263 16.3112C27.9525 16.2378 27.8198 16.2811 27.7296 16.4476C27.667 16.561 27.6081 16.6766 27.5529 16.7944C27.5399 16.8259 27.5183 16.8531 27.4905 16.8728C27.4628 16.8925 27.43 16.904 27.396 16.9058C26.813 16.9564 26.794 16.5106 26.4318 16.2408C26.385 16.2041 26.3295 16.1803 26.2707 16.1718C26.2119 16.1633 26.1519 16.1704 26.0967 16.1924C25.939 16.2448 25.7936 16.3286 25.6692 16.4388C25.6584 16.4487 25.6496 16.4606 25.6434 16.4739C25.6373 16.4872 25.6338 16.5016 25.6332 16.5162C25.6326 16.5309 25.6348 16.5455 25.6399 16.5592C25.6449 16.573 25.6526 16.5856 25.6626 16.5964C25.6762 16.6114 25.6937 16.6223 25.7132 16.6279C25.7458 16.6368 25.7758 16.6535 25.8005 16.6767C25.8251 16.6998 25.8437 16.7286 25.8547 16.7607C25.8578 16.7662 25.8596 16.7725 25.8598 16.7789C25.86 16.7854 25.8586 16.7917 25.8558 16.7975C25.853 16.8033 25.8488 16.8083 25.8436 16.8121C25.8385 16.8159 25.8324 16.8184 25.8261 16.8193C25.7549 16.8409 25.68 16.8474 25.6061 16.8384C25.4332 16.8163 25.2591 16.8048 25.0848 16.8039C24.8846 16.8039 24.6947 16.919 24.4982 16.9616C24.405 16.9814 24.3324 16.941 24.2423 16.9344C24.1738 16.9293 24.1067 16.913 24.0435 16.886C23.7502 16.7648 23.4677 16.6553 23.1959 16.5575C23.094 16.5201 23.0434 16.5575 23.0448 16.6646C23.0463 16.7717 22.9854 16.8772 22.8601 16.9645C22.8494 16.9716 22.8371 16.976 22.8243 16.9773C22.8115 16.9786 22.7986 16.9767 22.7867 16.9718C22.4358 16.8283 22.125 16.6015 21.8812 16.3112C21.8751 16.3036 21.8663 16.2988 21.8567 16.2977C21.8471 16.2966 21.8374 16.2993 21.8298 16.3053C21.6282 16.5099 21.2887 16.9454 20.9822 16.9652C20.9574 16.9672 20.9328 16.9598 20.9132 16.9444C20.8937 16.9291 20.8806 16.9069 20.8766 16.8824C20.817 16.5104 20.6444 16.2396 20.3589 16.0699C20.3286 16.0511 20.2946 16.0389 20.2592 16.0342C20.2238 16.0296 20.1878 16.0325 20.1536 16.0428C20.1369 16.051 20.124 16.0653 20.1175 16.0828C20.1109 16.1002 20.1113 16.1195 20.1184 16.1367C20.1917 16.2708 20.4117 16.4798 20.2651 16.6389C20.051 16.8706 19.6227 17.0701 19.3551 16.8054C19.2534 16.7042 19.118 16.6758 18.9489 16.7203C18.9342 16.7245 18.9188 16.7253 18.9038 16.7226C18.8889 16.7199 18.8747 16.7139 18.8624 16.7049C18.7626 16.6367 18.6834 16.5363 18.5456 16.5927C18.5133 16.6067 18.5067 16.6279 18.5258 16.6573C18.5735 16.7286 18.6437 16.7821 18.7252 16.809C18.7927 16.8347 18.7986 16.8699 18.7414 16.9146C18.5214 17.0862 18.2332 17.0532 18.0015 16.9146C17.9765 16.8995 17.9482 16.8905 17.919 16.8883C17.8899 16.8862 17.8606 16.8909 17.8336 16.9022C17.6972 16.9579 17.401 17.0708 17.2631 16.9836C17.2339 16.97 17.2092 16.9482 17.1921 16.9209C17.1751 16.8935 17.1664 16.8618 17.1671 16.8296C17.1751 16.7379 17.2595 16.7152 17.42 16.7599C17.5466 16.7951 17.5821 16.7531 17.5264 16.6338L17.464 16.5003C17.4438 16.4508 17.4086 16.4087 17.3635 16.3799C17.3183 16.3512 17.2653 16.3371 17.2118 16.3398C16.9576 16.34 16.7038 16.3581 16.4521 16.394C16.426 16.3979 16.4022 16.4109 16.3847 16.4307C16.1207 16.7306 15.5268 16.4813 15.2459 16.339C15.1162 16.2866 14.9787 16.2559 14.839 16.2481C14.8224 16.2456 14.8055 16.2472 14.7896 16.2526C14.7738 16.2581 14.7595 16.2674 14.7481 16.2796L14.6938 16.3383C14.6845 16.3481 14.673 16.3554 14.6602 16.3596C14.6474 16.3639 14.6337 16.3648 14.6205 16.3625C14.5419 16.3452 14.4597 16.358 14.3902 16.3984C14.2763 16.4691 14.1485 16.5143 14.0155 16.5311C13.7268 16.5638 13.4421 16.6255 13.1657 16.7152C12.989 16.7717 12.6722 16.8142 12.5292 16.6917C12.4971 16.657 12.4577 16.6298 12.4138 16.6121C12.37 16.5943 12.3228 16.5865 12.2755 16.5891C12.0214 16.6044 11.7666 16.6012 11.5129 16.5795C11.4898 16.5778 11.4668 16.5842 11.4478 16.5976C11.4288 16.611 11.415 16.6305 11.4088 16.6529C11.3355 16.9007 11.2966 17.4646 11.6288 17.5687C11.6644 17.581 11.694 17.6064 11.7113 17.6399C11.7286 17.6733 11.7324 17.7122 11.7219 17.7483C11.7204 17.7542 11.7181 17.7599 11.7153 17.7652C11.6509 17.9014 11.5722 18.0305 11.4807 18.1502C11.4601 18.1712 11.4439 18.1961 11.4331 18.2234C11.4223 18.2507 11.4171 18.28 11.4178 18.3094C11.4184 18.3388 11.425 18.3677 11.4371 18.3945C11.4491 18.4213 11.4665 18.4455 11.488 18.4655C11.6779 18.67 11.6119 19.1848 11.5327 19.4282C11.5242 19.4562 11.5242 19.4861 11.5327 19.514L11.5819 19.7054C11.5938 19.7467 11.5949 19.7903 11.5851 19.8322C11.5754 19.874 11.5551 19.9127 11.5261 19.9444L11.2886 20.2231C11.2795 20.2327 11.2736 20.245 11.2719 20.2582C11.2702 20.2714 11.2727 20.2847 11.279 20.2964C11.326 20.3932 11.444 20.3602 11.499 20.2964C11.5074 20.2855 11.5198 20.2782 11.5335 20.2762C11.5471 20.2741 11.5611 20.2774 11.5723 20.2854C11.5891 20.2936 11.6029 20.3069 11.6119 20.3233C11.6208 20.3397 11.6244 20.3585 11.6222 20.3771C11.617 20.458 11.5934 20.5368 11.5533 20.6073C11.5131 20.6778 11.4575 20.7382 11.3905 20.784C11.1434 20.9717 11.0202 21.3413 11.0422 21.6236C11.0419 21.6457 11.0463 21.6677 11.0549 21.6881C11.0636 21.7084 11.0764 21.7268 11.0925 21.742C11.1087 21.7571 11.1278 21.7688 11.1486 21.7762C11.1695 21.7836 11.1917 21.7865 11.2138 21.7849C11.2257 21.7857 11.2369 21.7911 11.2448 21.8C11.2528 21.8089 11.2569 21.8206 11.2563 21.8326C11.2567 21.8345 11.2567 21.8365 11.2563 21.8384C11.2393 21.9233 11.2021 22.0028 11.1478 22.0702C11.1411 22.0781 11.137 22.0879 11.1361 22.0983C11.1351 22.1087 11.1374 22.1191 11.1426 22.1281C11.1484 22.1394 11.1565 22.1493 11.1663 22.1573C11.1762 22.1652 11.1876 22.171 11.1998 22.1743C11.2103 22.177 11.22 22.1818 11.2286 22.1883C11.2371 22.1949 11.2443 22.2031 11.2497 22.2124C11.3868 22.4463 11.1551 22.9743 11.0678 23.2206C10.9945 23.4193 11.0583 23.5645 11.1111 23.7515C11.1322 23.8286 11.1276 23.9105 11.0979 23.9847C11.043 24.1274 11.0144 24.279 11.0136 24.432C11.0139 24.4447 11.0114 24.4573 11.0064 24.4689C11.0013 24.4806 10.9938 24.491 10.9843 24.4994C10.9505 24.5309 10.9112 24.5557 10.8684 24.5728C10.8556 24.5778 10.845 24.5874 10.8387 24.5997C10.8324 24.6119 10.8307 24.6261 10.8339 24.6395C10.8397 24.6625 10.8507 24.6839 10.8661 24.7019C10.8815 24.72 10.9009 24.7343 10.9227 24.7436C10.932 24.7475 10.9404 24.7533 10.9473 24.7607C10.9543 24.768 10.9597 24.7767 10.9631 24.7862C10.9666 24.7957 10.968 24.8058 10.9673 24.8159C10.9667 24.826 10.964 24.8358 10.9593 24.8448C10.9581 24.8482 10.9563 24.8514 10.9542 24.8543C10.8743 24.9775 10.7797 25.1051 10.8075 25.2613C10.8214 25.3426 10.8251 25.4254 10.8185 25.5077C10.8061 25.669 10.677 25.743 10.7525 25.9183C10.7657 25.9441 10.7697 25.9736 10.7638 26.002C10.758 26.0304 10.7426 26.056 10.7203 26.0745C10.6009 26.1877 10.46 26.276 10.306 26.334C10.2936 26.3387 10.2804 26.3409 10.2671 26.3404C10.2538 26.34 10.2408 26.3369 10.2287 26.3314C10.2167 26.3259 10.2058 26.318 10.1968 26.3083C10.1878 26.2985 10.1808 26.2871 10.1762 26.2746C10.1711 26.2618 10.1689 26.2481 10.1696 26.2343C10.1846 26.0867 10.1555 25.9379 10.086 25.8068C10.028 25.6956 10.0039 25.5697 10.017 25.4449C10.03 25.3201 10.0795 25.2019 10.1593 25.1051C10.1793 25.081 10.1914 25.0513 10.1938 25.02C10.1963 24.9888 10.1892 24.9576 10.1733 24.9306C10.1498 24.8807 10.1131 24.8382 10.0672 24.8076C10.0214 24.7769 9.96805 24.7594 9.91297 24.7568C9.90137 24.7573 9.88979 24.7554 9.87895 24.7513C9.8681 24.7471 9.85822 24.7408 9.84991 24.7327C9.84159 24.7246 9.83503 24.7149 9.83062 24.7042C9.8262 24.6934 9.82404 24.6819 9.82425 24.6703C9.82429 24.6545 9.82859 24.6391 9.83671 24.6255L10.0164 24.3322C10.0283 24.3126 10.032 24.289 10.0267 24.2666C10.0213 24.2442 10.0073 24.2248 9.98776 24.2127C9.97551 24.2054 9.96168 24.2011 9.94743 24.2003L9.75239 24.1878C9.74208 24.1871 9.732 24.1845 9.72273 24.1799C9.71345 24.1753 9.70517 24.169 9.69836 24.1612C9.69155 24.1535 9.68634 24.1444 9.68302 24.1346C9.67971 24.1249 9.67837 24.1145 9.67906 24.1042C9.68001 24.0878 9.68617 24.0721 9.69666 24.0595L9.81252 23.9187C9.82378 23.9051 9.82918 23.8875 9.82753 23.8699C9.82588 23.8523 9.81731 23.8361 9.80372 23.8248C9.79132 23.8147 9.77574 23.8092 9.75972 23.8094C9.57054 23.8138 9.23984 23.6283 9.41436 23.4069C9.58557 23.1868 9.79195 22.9966 10.0252 22.8437C10.0325 22.8387 10.0376 22.831 10.0394 22.8222C10.0412 22.8134 10.0395 22.8043 10.0347 22.7968C10.0295 22.7901 10.0223 22.7852 10.0142 22.7829C9.86751 22.7511 9.71524 22.7152 9.55734 22.6751C9.36156 22.6245 9.38796 22.4551 9.47669 22.3239C9.54211 22.2302 9.59349 22.1274 9.6292 22.0188C9.6333 22.0082 9.63431 21.9967 9.6321 21.9855C9.6299 21.9743 9.62457 21.964 9.61674 21.9558L9.31244 21.6023C9.30825 21.5988 9.3049 21.5943 9.3026 21.5893C9.3003 21.5843 9.2991 21.5789 9.2991 21.5734C9.2991 21.5679 9.3003 21.5624 9.3026 21.5574C9.3049 21.5524 9.30825 21.548 9.31244 21.5444L9.45909 21.4051C9.4698 21.3949 9.47683 21.3815 9.47909 21.3669C9.48134 21.3523 9.47869 21.3374 9.47155 21.3244L9.29704 21.004C9.2943 20.9999 9.29244 20.9953 9.29159 20.9905C9.29073 20.9857 9.2909 20.9807 9.29207 20.9759C9.29325 20.9712 9.2954 20.9667 9.29841 20.9628C9.30141 20.959 9.30519 20.9557 9.3095 20.9534C9.6182 20.7444 9.49355 20.3917 9.3293 20.1336C9.25598 20.0236 9.18265 19.7157 9.37403 19.6614C9.47595 19.6321 9.60794 19.7443 9.72892 19.7428C9.76782 19.7428 9.80512 19.7273 9.83262 19.6998C9.86013 19.6723 9.87558 19.635 9.87558 19.5961C9.87485 19.5703 9.86753 19.5451 9.85431 19.5228L9.75826 19.3622C9.74444 19.3405 9.73945 19.3142 9.74432 19.2889L9.80592 18.9223C9.81238 18.8807 9.80912 18.8383 9.79639 18.7982C9.78367 18.7581 9.76183 18.7215 9.73259 18.6913L9.40849 18.3467C9.40343 18.342 9.39938 18.3363 9.39662 18.33C9.39385 18.3237 9.39242 18.3169 9.39242 18.31C9.39242 18.3031 9.39385 18.2963 9.39662 18.29C9.39938 18.2837 9.40343 18.278 9.40849 18.2734C9.4106 18.271 9.41307 18.269 9.41582 18.2675C9.48907 18.2223 9.56976 18.1905 9.65413 18.1736C9.67492 18.1691 9.69309 18.1565 9.70475 18.1387C9.7164 18.1209 9.7206 18.0992 9.71646 18.0783C9.71646 18.0783 9.71646 18.0783 9.71646 18.0732C9.70299 18.0301 9.70112 17.9842 9.71103 17.9402C9.72094 17.8962 9.74229 17.8555 9.77292 17.8224C9.77827 17.8181 9.78238 17.8124 9.78483 17.806C9.78728 17.7996 9.78798 17.7926 9.78686 17.7858C9.78575 17.7791 9.78285 17.7727 9.77847 17.7674C9.77408 17.7621 9.76838 17.758 9.76192 17.7557C9.5175 17.6041 9.44418 17.4047 9.54194 17.1573C9.59547 17.021 9.70473 16.9139 9.76705 16.7804C9.77348 16.767 9.77487 16.7517 9.77097 16.7373C9.76707 16.7229 9.75814 16.7104 9.74579 16.702C9.52524 16.5379 9.25581 16.4529 8.981 16.4607C8.96927 16.4619 8.95747 16.4596 8.94696 16.4543C8.93645 16.449 8.92766 16.4408 8.92161 16.4307L8.82262 16.2767C8.80967 16.2564 8.7892 16.2421 8.76569 16.2368C8.74218 16.2316 8.71756 16.2359 8.69723 16.2488L8.6921 16.2525L8.18689 16.6294C8.12407 16.6767 8.0505 16.7077 7.97278 16.7196C7.72787 16.7577 7.42724 16.823 7.18013 16.8054C7.04594 16.7951 6.95282 16.6932 6.8201 16.8054C6.75251 16.8667 6.66996 16.9092 6.58076 16.9285C6.49157 16.9478 6.39886 16.9433 6.31195 16.9154C6.2897 16.9088 6.26602 16.9088 6.24376 16.9154C6.20052 16.927 6.16107 16.9497 6.12937 16.9814C6.03121 17.0654 5.90421 17.108 5.77521 17.1001C5.58823 17.1001 5.46358 17.2585 5.28686 17.3018C5.05149 17.3597 4.85351 17.5166 4.60494 17.4484C4.45828 17.4066 4.3153 17.3597 4.16498 17.3319C4.12839 17.3263 4.0939 17.3113 4.06494 17.2883C4.03599 17.2653 4.01359 17.235 4 17.2006V17.095C4.02072 17.0381 4.05521 16.9873 4.10037 16.947C4.14554 16.9067 4.19998 16.8782 4.25884 16.864C4.28605 16.857 4.30938 16.8394 4.32378 16.8153C4.33819 16.7911 4.34252 16.7623 4.33583 16.735C4.33164 16.7194 4.32414 16.7049 4.31383 16.6925C4.27965 16.6563 4.25738 16.6105 4.25004 16.5612C4.21582 16.2591 4.33803 16.0445 4.61667 15.9174C4.64201 15.906 4.66474 15.8895 4.68341 15.869C4.70209 15.8484 4.71631 15.8242 4.72519 15.7979L4.78312 15.619C4.78451 15.6124 4.78719 15.6061 4.79101 15.6006C4.79482 15.595 4.79969 15.5902 4.80534 15.5866C4.811 15.5829 4.81732 15.5804 4.82394 15.5791C4.83057 15.5779 4.83738 15.578 4.84398 15.5794C5.13728 15.6094 5.43058 15.3037 5.64543 15.1292C5.67164 15.1084 5.70499 15.0988 5.73822 15.1026C5.77145 15.1063 5.80187 15.1229 5.82287 15.149C5.8373 15.1677 5.84641 15.19 5.84927 15.2135C5.85299 15.2493 5.8495 15.2854 5.839 15.3198C5.82361 15.3755 5.839 15.3931 5.89253 15.3638L6.14477 15.2333C6.17169 15.2198 6.19486 15.1999 6.21223 15.1754C6.24505 15.1267 6.29012 15.0875 6.34289 15.0617C6.39567 15.036 6.45429 15.0246 6.51287 15.0287C6.90516 15.05 7.27472 14.9319 7.65161 14.8652C7.7437 14.8449 7.83074 14.8063 7.90752 14.7515C7.92897 14.7369 7.95515 14.7309 7.98084 14.7347L8.68917 14.8307C8.74263 14.8406 8.79774 14.8364 8.84913 14.8187C8.90052 14.801 8.94645 14.7703 8.98247 14.7295C8.99292 14.718 9.00595 14.7092 9.02048 14.7037C9.03501 14.6982 9.05063 14.6963 9.06606 14.698C9.24571 14.7097 9.40629 14.7391 9.58667 14.6936C9.81855 14.6342 10.0624 14.6411 10.2906 14.7134C10.3211 14.723 10.3541 14.7206 10.383 14.7068L10.4834 14.6599C10.4893 14.6572 10.4946 14.6534 10.499 14.6486C10.5034 14.6439 10.5068 14.6383 10.5091 14.6323C10.5113 14.6262 10.5124 14.6198 10.5121 14.6133C10.5119 14.6068 10.5104 14.6005 10.5076 14.5946C10.4996 14.5775 10.4887 14.5618 10.4754 14.5484C10.446 14.5191 10.4519 14.5037 10.493 14.503C10.9034 14.4878 11.3143 14.4937 11.7241 14.5206C12.0339 14.5521 12.3401 14.6115 12.6392 14.698C13.0252 14.8072 13.4359 14.7915 13.8124 14.6533C13.8363 14.6461 13.8618 14.6461 13.8858 14.6533C13.9763 14.677 14.0618 14.717 14.138 14.7713C14.2472 14.8447 14.336 14.8366 14.4042 14.7347C14.4256 14.7043 14.4537 14.6793 14.4863 14.6613C14.5084 14.6484 14.5346 14.6442 14.5596 14.6496C14.6209 14.6653 14.6853 14.6653 14.7466 14.6496C14.889 14.5804 15.0369 14.523 15.1887 14.478Z" fill="#025087"/>
<path d="M23.8582 23.4486C23.4667 21.2195 21.5118 19.5916 19.4154 18.9654C19.1656 18.8907 18.746 18.7978 18.1564 18.6868C17.692 18.611 17.2262 18.5568 16.7589 18.524C15.1164 18.409 13.4659 18.5247 11.8556 18.8679C11.7304 18.8933 11.726 18.9278 11.8424 18.9713L11.9208 18.9889C11.9304 18.99 11.9392 18.9949 11.9453 19.0024C11.9513 19.01 11.9541 19.0196 11.9531 19.0292L11.978 24.9561C11.9772 24.9621 11.9777 24.9682 11.9796 24.9739C11.9815 24.9797 11.9847 24.9849 11.989 24.9892C11.9933 24.9934 11.9985 24.9966 12.0042 24.9985C12.01 25.0005 12.016 25.001 12.022 25.0001H14.1265C14.1324 25.001 14.1385 25.0005 14.1443 24.9985C14.15 24.9966 14.1552 24.9934 14.1595 24.9892C14.1637 24.9849 14.167 24.9797 14.1689 24.9739C14.1708 24.9682 14.1713 24.9621 14.1705 24.9561V19.1524C14.1705 19.1209 14.1859 19.1062 14.2174 19.1092C15.5508 19.2151 16.8565 19.5468 18.0787 20.0903C19.8444 20.9284 21.0953 22.2284 21.6409 24.1371C21.7086 24.4063 21.7527 24.6808 21.7729 24.9576C21.7728 24.9637 21.7741 24.9696 21.7765 24.9752C21.779 24.9807 21.7826 24.9856 21.7871 24.9897C21.7916 24.9937 21.7969 24.9967 21.8027 24.9985C21.8084 25.0003 21.8145 25.0009 21.8205 25.0001H23.9081C23.9137 25.0008 23.9194 25.0003 23.9247 24.9984C23.93 24.9966 23.9349 24.9937 23.9389 24.9897C23.9429 24.9858 23.946 24.9809 23.9479 24.9756C23.9498 24.9703 23.9505 24.9647 23.9499 24.9591C23.9714 24.4538 23.9407 23.9476 23.8582 23.4486ZM18.1564 19.104C18.1564 19.104 18.1564 19.0982 18.152 19.0967C18.1476 19.0952 18.152 19.1011 18.1564 19.104ZM18.1366 19.0916C18.1391 19.0911 18.1416 19.0911 18.144 19.0916C18.144 19.0916 18.1381 19.0916 18.1352 19.0916H18.1366ZM18.1535 19.019C18.155 19.0172 18.1562 19.0152 18.1572 19.0131C18.1558 19.0153 18.154 19.0173 18.152 19.019H18.1535ZM18.1608 19.0043C18.1612 19.0009 18.1612 18.9975 18.1608 18.994V19.0043Z" fill="#5392B9"/>
<circle cx="20" cy="20" r="19.5" stroke="black" stroke-opacity="0.05"/>
</svg>
