<svg width="40" height="40" viewBox="0 0 40 40" fill="none" xmlns="http://www.w3.org/2000/svg">
<circle cx="20" cy="20" r="20" fill="#3579BC"/>
<g clip-path="url(#clip0_18553_55935)">
<path d="M23.8356 17.7005C24.6802 17.7005 25.5096 17.7005 26.3314 17.7005C27.0466 17.7005 27.7619 17.8061 28.4619 18.0174C30.4098 18.5909 31.7794 20.0547 32.2284 22.009C32.2664 22.175 32.3425 22.6579 32.449 23.4502C32.624 24.7178 32.799 25.993 32.974 27.2606C33.0045 27.4644 33.0273 27.6756 33.0425 27.8944C33.0425 27.9171 33.0273 27.9322 33.0045 27.9397C33.0045 27.9397 33.0045 27.9397 32.9969 27.9397C32.9436 27.9246 32.8903 27.9246 32.8295 27.9246C30.5087 27.9246 28.2032 27.9246 25.9205 27.9246C25.8977 27.9246 25.8901 27.9171 25.8901 27.8944C25.3422 24.8612 24.8628 22.2278 24.4596 19.9868C24.4063 19.7151 24.2009 19.368 23.8889 19.368C23.8508 19.368 23.8204 19.3982 23.8204 19.4359V27.8567C23.8204 27.8944 23.79 27.9322 23.7443 27.9322C23.7063 27.9322 23.6606 27.9322 23.615 27.9322C21.7584 27.9246 19.8257 27.9171 17.8245 27.9246C17.6267 27.9246 17.3984 27.9246 17.1473 27.9095C17.1093 27.9095 17.0864 27.8794 17.0864 27.8416V10.9925C17.0864 10.9925 17.1093 10.9473 17.1321 10.9473H23.7671C23.7671 10.9473 23.8128 10.9699 23.8128 10.9925V17.6778C23.8128 17.6778 23.828 17.7005 23.8432 17.7005H23.8356Z" fill="white"/>
<path d="M7.18744 21.9108C7.96356 19.0888 10.2082 17.7381 13.0768 17.7079C13.8758 17.7004 14.6975 17.6928 15.5421 17.7004C15.5726 17.7004 15.603 17.723 15.603 17.7608V27.8944C15.603 27.8944 15.5878 27.9245 15.5726 27.9245C13.9899 27.9245 12.5214 27.9547 11.1746 27.9094C11.1061 27.9094 11.0376 27.9019 10.9691 27.8793C10.2463 27.7133 9.59949 27.419 9.0136 27.0115C8.06247 26.34 7.44614 25.4119 7.17222 24.2122C6.98199 23.4048 6.9896 22.6351 7.18744 21.9108Z" fill="white"/>
</g>
<circle cx="20" cy="20" r="19.5" stroke="black" stroke-opacity="0.05"/>
<defs>
<clipPath id="clip0_18553_55935">
<rect width="26" height="17" fill="white" transform="translate(7.03516 10.9473)"/>
</clipPath>
</defs>
</svg>
