<svg width="40" height="40" viewBox="0 0 40 40" fill="none" xmlns="http://www.w3.org/2000/svg">
<circle cx="20" cy="20" r="20" fill="#F6F8FA"/>
<path d="M21.363 30.2467C20.4549 31.1548 20.4549 31.1548 19.5925 30.2924C16.1555 26.8554 12.715 23.4203 9.27096 19.9872C8.93468 19.6533 8.89015 19.4787 9.25807 19.1319C10.2247 18.2226 11.1551 17.2735 12.0784 16.3198C12.369 16.0175 12.5588 15.98 12.8786 16.301C16.4578 19.9005 20.0472 23.4902 23.6466 27.0702C23.9982 27.4217 23.9747 27.6561 23.6349 27.9877C22.8733 28.7165 22.1375 29.4722 21.363 30.2467Z" fill="#C49151"/>
<path d="M24.4759 26.1539C23.6557 25.3337 22.8836 24.5416 22.0821 23.773C21.781 23.4836 21.7376 23.2902 22.0622 22.9727C23.7576 21.3042 25.4297 19.6123 27.1169 17.9344C27.7825 17.2735 29.1088 17.1142 29.9079 17.5688C30.7598 18.0621 31.1136 19.0006 30.9683 20.0294C30.8937 20.5236 30.6537 20.978 30.2876 21.3183C28.6835 22.9399 27.0584 24.5416 25.4578 26.1668C25.1145 26.5113 24.8333 26.6015 24.4759 26.1539Z" fill="#C49151"/>
<path d="M25.1713 18.1194C23.8449 19.4458 22.5385 20.7323 21.2578 22.0447C20.9204 22.3903 20.6954 22.4032 20.3579 22.0447C19.5787 21.2245 18.7714 20.4312 17.9606 19.6415C17.6372 19.3263 17.6443 19.072 17.9606 18.7557C19.6514 17.0801 21.3058 15.3683 23.0247 13.7232C23.6938 13.0846 24.5573 12.896 25.4537 13.3037C26.3219 13.6998 26.7848 14.37 26.8492 15.346C26.8984 16.0971 26.5785 16.6607 26.1063 17.1739C25.8181 17.4926 25.5041 17.7867 25.1713 18.1194Z" fill="#214F5B"/>
<path d="M20.4021 9.0093C21.4567 8.91908 22.0683 9.47798 22.4901 10.2853C22.9471 11.1559 22.7877 12.03 22.1667 12.7271C21.2294 13.7817 20.2053 14.7436 19.2152 15.7431C18.552 16.4122 17.8795 17.0707 17.2233 17.7456C16.73 18.2517 16.5894 18.2646 16.0938 17.7702C15.3193 16.9992 14.5565 16.2153 13.7703 15.4537C13.4645 15.1596 13.4422 14.9487 13.7574 14.6335C15.4388 12.9744 17.0979 11.293 18.777 9.63148C18.9841 9.41287 19.2376 9.2435 19.5189 9.13582C19.8002 9.02815 20.102 8.98491 20.4021 9.0093Z" fill="#214F5B"/>
<circle cx="20" cy="20" r="19.5" stroke="black" stroke-opacity="0.05"/>
</svg>
