<svg width="40" height="40" viewBox="0 0 40 40" fill="none" xmlns="http://www.w3.org/2000/svg">
<circle cx="20" cy="20" r="20" fill="#0082FF"/>
<g clip-path="url(#clip0_18553_55816)">
<path d="M12.9726 25.4571H9L14.4993 14.0039H18.4718L12.9726 25.4571Z" fill="white"/>
<path d="M29.4134 15.2661C29.312 14.979 29.1491 14.7175 28.9362 14.4999C28.7233 14.2822 28.4655 14.1137 28.1807 14.0059C28.0259 13.9421 27.865 13.8942 27.7005 13.8628C27.4747 13.8233 27.2458 13.8036 27.0166 13.804C26.1449 13.7924 25.296 14.0825 24.6138 14.6252C24.3072 14.8816 24.0524 15.1943 23.8632 15.5463L24.1983 15.7894C24.2835 15.652 24.3785 15.521 24.4825 15.3974C24.8294 15.025 25.1802 14.8408 25.5898 14.8839C26.3953 14.9643 26.0131 15.8148 26.0131 15.8148L21.3879 25.4493H25.4311L28.9176 17.8256C29.3546 16.7516 29.6917 16.1206 29.4134 15.2582V15.2661Z" fill="white"/>
<path d="M17.0942 27.5931C16.6177 26.9963 16.2773 26.3028 16.0966 25.5608V25.5393C15.9411 24.6395 16.0228 23.7148 16.3337 22.8563L16.3475 22.8249C16.3989 22.6841 16.4578 22.546 16.5238 22.4114L16.8707 21.5922H16.8825L20.0064 14.9288C20.2553 14.3075 20.7296 12.4339 18.758 11.356C15.9516 9.82538 12.7198 11.6813 11.0814 13.8626C9.94079 15.3795 9.68405 17.0983 9.68405 17.551C9.68405 19.0287 10.6228 19.5618 10.6287 19.5696C10.6552 19.6097 10.6681 19.6573 10.6657 19.7053C10.6632 19.7533 10.6455 19.7992 10.6151 19.8364C10.5846 19.8737 10.5431 19.9002 10.4966 19.9121C10.45 19.924 10.4009 19.9208 10.3563 19.9028C10.3328 19.8871 9.32541 19.3697 9.25486 17.7999C9.2228 17.3163 9.26443 16.8306 9.37832 16.3594C9.85456 14.186 11.3029 12.3457 13.2588 11.1639C13.3783 11.0914 13.4979 11.0228 13.6194 10.9562L13.6743 10.9288C14.465 10.505 15.3229 10.2205 16.2103 10.088C18.4974 9.75875 20.8531 10.4368 22.3916 12.2438C22.8651 12.7779 23.2097 13.4135 23.3989 14.1017C23.6141 14.9655 23.5383 15.8762 23.1833 16.6926C23.103 16.8886 23.0363 17.0846 22.9873 17.1649L20.6355 22.0488C20.6355 22.0488 20.177 22.9993 19.8516 23.7382C19.5879 24.3863 19.4643 25.083 19.4891 25.7823C19.6047 26.7132 20.0496 27.8969 21.3666 28.526C23.7301 29.6666 27.4577 28.6299 28.9589 25.7999C29.3019 25.1551 29.7762 23.9616 29.7762 22.8935C29.7762 21.3785 29.0491 20.6887 29.0432 20.6769C29.0161 20.6365 29.0028 20.5885 29.0051 20.5399C29.0073 20.4913 29.0251 20.4447 29.0558 20.407C29.0865 20.3693 29.1285 20.3424 29.1756 20.3303C29.2227 20.3182 29.2725 20.3216 29.3176 20.3398C29.3372 20.3536 30.3563 21.4863 30.1427 23.6167C29.8977 25.4138 29.002 27.5637 26.6326 28.8905C26.5111 28.9591 26.3955 29.0356 26.272 29.1022L26.2191 29.1316C25.3812 29.5548 24.4759 29.8286 23.5439 29.941C23.2386 29.9823 22.9309 30.0026 22.6228 30.0018C20.6297 30.0018 18.4209 29.1884 17.0902 27.5951" fill="white"/>
</g>
<circle cx="20" cy="20" r="19.5" stroke="black" stroke-opacity="0.05"/>
<defs>
<clipPath id="clip0_18553_55816">
<rect width="21.1759" height="20" fill="white" transform="translate(9 10)"/>
</clipPath>
</defs>
</svg>
