<svg width="40" height="40" viewBox="0 0 40 40" fill="none" xmlns="http://www.w3.org/2000/svg">
<circle cx="20" cy="20" r="20" fill="#F6F8FA"/>
<g clip-path="url(#clip0_17713_28089)">
<path d="M15.3566 25.8513C15.3566 27.0405 14.387 28 13.1851 28C11.9833 28 11.0137 27.0405 11.0137 25.8513C11.0137 24.6622 11.9833 23.7027 13.1851 23.7027C14.387 23.7027 15.3566 24.6622 15.3566 25.8513Z" fill="#005EA5"/>
<path d="M22.1301 25.8513C22.1301 27.0405 21.1604 28 19.9586 28C18.7568 28 17.7871 27.0405 17.7871 25.8513C17.7871 24.6622 18.7568 23.7027 19.9586 23.7027C21.1604 23.7027 22.1301 24.6622 22.1301 25.8513Z" fill="#9FDBED"/>
<path d="M28.9719 25.8513C28.9719 27.0405 28.0022 28 26.8004 28C25.5986 28 24.6289 27.0405 24.6289 25.8513C24.6289 24.6622 25.5986 23.7027 26.8004 23.7027C28.0022 23.7027 28.9719 24.6622 28.9719 25.8513Z" fill="#9FDBED"/>
<path d="M28.9719 19.2162C28.9719 20.4054 28.0022 21.3649 26.8004 21.3649C25.5986 21.3649 24.6289 20.4054 24.6289 19.2162C24.6289 18.027 25.5986 17.0676 26.8004 17.0676C28.0022 17.0676 28.9719 18.027 28.9719 19.2162Z" fill="#9FDBED"/>
<path d="M27.4158 11.1081C26.651 10.8514 25.7769 11.0406 25.176 11.6352C23.5372 13.3108 23.2504 13.3108 21.5842 11.6622C21.2701 11.3514 20.8877 11.1622 20.478 11.0811C19.7405 10.8919 18.9211 11.0811 18.3475 11.6487C16.7086 13.3244 16.4219 13.3244 14.7557 11.6757C14.3869 11.3108 13.909 11.1081 13.431 11.0541C13.349 11.0541 13.2671 11.0406 13.1715 11.0406C11.9697 11.0271 11 11.9865 11 13.1757C11 14.3649 11.9697 15.3244 13.1715 15.3244C13.6358 15.3244 14.0592 15.1892 14.4006 14.946C14.5235 14.8649 14.6601 14.7703 14.7693 14.6487C16.4355 13 16.7223 13 18.3885 14.6487C18.4977 14.7568 18.6206 14.8514 18.7436 14.9325C19.0986 15.1757 19.522 15.3244 19.9863 15.3244C20.4507 15.3244 20.8877 15.1757 21.2428 14.9325C21.3657 14.8514 21.4886 14.7568 21.5979 14.6487C23.264 13 23.5508 13 25.217 14.6487C25.3263 14.7568 25.4492 14.8514 25.5721 14.9325C25.9272 15.1757 26.3505 15.3244 26.8149 15.3244C28.0167 15.3244 28.9863 14.3649 28.9863 13.1757C28.9863 12.1892 28.3171 11.3649 27.4021 11.1081H27.4158Z" fill="url(#paint0_linear_17713_28089)"/>
<path d="M20 17.0541C20 17.0541 19.9727 17.0541 19.9454 17.0541C19.3718 17.0541 18.7845 17.2568 18.3475 17.6892C16.7086 19.3649 16.4219 19.3649 14.7557 17.7162C14.6874 17.6487 14.6328 17.5946 14.5645 17.5541C14.1821 17.2433 13.7041 17.0541 13.1715 17.0541C11.9697 17.0541 11 18.0135 11 19.2027C11 20.3919 11.9697 21.3514 13.1715 21.3514C13.1715 21.3514 13.1851 21.3514 13.1988 21.3514C13.7587 21.3514 14.3323 21.1487 14.7693 20.7027C16.4355 19.0541 16.7223 19.0541 18.3885 20.7027C18.6616 20.973 18.9757 21.1487 19.3171 21.2433C19.5357 21.3108 19.7678 21.3514 20 21.3514C21.2018 21.3514 22.1715 20.3919 22.1715 19.2027C22.1715 18.0135 21.2018 17.0541 20 17.0541Z" fill="url(#paint1_linear_17713_28089)"/>
</g>
<circle cx="20" cy="20" r="19.5" stroke="black" stroke-opacity="0.05"/>
<defs>
<linearGradient id="paint0_linear_17713_28089" x1="11" y1="13.1622" x2="29" y2="13.1622" gradientUnits="userSpaceOnUse">
<stop stop-color="#005EA5"/>
<stop offset="0.16" stop-color="#0461A6"/>
<stop offset="0.31" stop-color="#106AAC"/>
<stop offset="0.48" stop-color="#247BB5"/>
<stop offset="0.64" stop-color="#4191C2"/>
<stop offset="0.8" stop-color="#66AED3"/>
<stop offset="0.96" stop-color="#93D1E7"/>
<stop offset="1" stop-color="#9FDBED"/>
</linearGradient>
<linearGradient id="paint1_linear_17713_28089" x1="11" y1="19.2162" x2="22.1851" y2="19.2162" gradientUnits="userSpaceOnUse">
<stop stop-color="#005EA5"/>
<stop offset="0.16" stop-color="#0461A6"/>
<stop offset="0.31" stop-color="#106AAC"/>
<stop offset="0.48" stop-color="#247BB5"/>
<stop offset="0.64" stop-color="#4191C2"/>
<stop offset="0.8" stop-color="#66AED3"/>
<stop offset="0.96" stop-color="#93D1E7"/>
<stop offset="1" stop-color="#9FDBED"/>
</linearGradient>
<clipPath id="clip0_17713_28089">
<rect width="18" height="17" fill="white" transform="translate(11 11)"/>
</clipPath>
</defs>
</svg>
