<svg width="40" height="40" viewBox="0 0 40 40" fill="none" xmlns="http://www.w3.org/2000/svg">
<circle cx="20" cy="20" r="20" fill="#F6F8FA"/>
<path fill-rule="evenodd" clip-rule="evenodd" d="M17.9728 15.9483C18.6463 15.919 19.3349 15.9039 20.0352 15.9039C27.9782 15.9039 34.4173 17.8556 34.4173 20.2631C34.4173 22.6707 27.9782 24.6224 20.0352 24.6224C12.0921 24.6224 5.65301 22.6707 5.65301 20.2631C5.65301 18.4449 9.32572 16.8866 14.5452 16.2327L14.7018 15.5766C9.05063 16.2926 5.03516 18.1132 5.03516 20.246C5.03516 23.0043 11.7509 25.2403 20.0352 25.2403C28.3194 25.2403 35.0352 23.0043 35.0352 20.246C35.0352 17.4877 28.3194 15.2517 20.0352 15.2517C19.4032 15.2517 18.7804 15.2647 18.169 15.29L17.9728 15.9483Z" fill="#C92B5B"/>
<circle cx="16.3276" cy="15.7666" r="1.02975" fill="#C92B5B"/>
<path d="M9.66892 18.2379L8.98242 22.6487H9.94352L10.5099 19.1132L10.9046 22.6487H11.6941L13.1872 19.1132L12.5694 22.6487H13.8222L14.5602 18.2379H12.7753L11.7284 20.5205L11.4538 18.2379H9.66892Z" fill="#C92B5B"/>
<path d="M16.5512 18.2551H15.3156L14.5947 22.6487H15.8133L16.5512 18.2551Z" fill="#C92B5B"/>
<path d="M18.1644 18.2551H16.9287L17.4264 22.6487H18.5248L19.5546 20.0229L19.7777 22.6487H20.9104L22.7125 18.2551H21.717L20.6701 20.8981L20.4813 18.2551H19.4344L18.3704 20.8981L18.1644 18.2551Z" fill="#C92B5B"/>
<path d="M23.7134 18.4287C24.1645 18.1752 24.632 18.1368 25.1284 18.1903C25.618 18.243 26.0041 18.4727 26.3084 18.8257C26.4735 19.0173 26.585 19.2713 26.6642 19.5154C26.7324 19.7256 26.7443 19.9624 26.7392 20.1864C26.7275 20.6947 26.6203 21.1758 26.3614 21.6309C26.1143 22.0654 25.8021 22.4165 25.3524 22.623C25.1464 22.7176 24.9102 22.7775 24.6843 22.7897C24.4053 22.8048 24.1207 22.7676 23.8422 22.7276C23.5908 22.6916 23.3827 22.5467 23.1723 22.4083C22.9311 22.2496 22.7737 22.0171 22.6608 21.7746C22.5557 21.5492 22.5183 21.2835 22.4939 21.0314C22.4692 20.7752 22.4571 20.5057 22.5087 20.2564C22.6658 19.4986 22.9968 18.8405 23.7134 18.4287ZM23.9624 21.4735C24.1261 21.8966 24.6107 21.8133 24.8379 21.5934C25.0335 21.404 25.104 21.1447 25.1615 20.8881C25.2032 20.7022 25.207 20.5069 25.2566 20.3237C25.3351 20.033 25.3696 19.7643 25.2261 19.471C25.0585 19.1283 24.4597 19.1752 24.3021 19.4399C24.1323 19.7251 24.0408 20.0267 23.9869 20.3502C23.9257 20.7174 23.8185 21.0796 23.9624 21.4735Z" fill="#C92B5B"/>
<path d="M28.8052 18.2723H27.6209L26.8486 22.6488H27.9299L28.3418 19.9543L29.6118 22.6488H30.6072L31.328 18.2723H30.2983L29.9036 20.7609L28.8052 18.2723Z" fill="#C92B5B"/>
<circle cx="20" cy="20" r="19.5" stroke="black" stroke-opacity="0.05"/>
</svg>
