<svg width="40" height="40" viewBox="0 0 40 40" fill="none" xmlns="http://www.w3.org/2000/svg">
<circle cx="20" cy="20" r="20" fill="#171F4E"/>
<path d="M30.3351 21.8652C30.3358 20.9996 30.3375 20.1414 30.3352 19.2833C30.3351 19.23 30.3149 19.1697 30.2853 19.1252C30.2502 19.0725 30.1838 19.0758 30.1433 19.1262C30.1141 19.1626 30.0921 19.2071 30.0763 19.2513C29.7328 20.2162 29.3905 21.1816 29.048 22.1469C28.9563 22.4054 28.826 22.4987 28.5495 22.4976C28.4007 22.497 28.2519 22.4869 28.1031 22.4872C27.9573 22.4875 27.848 22.4199 27.7755 22.3033C27.7108 22.1993 27.655 22.087 27.6139 21.9717C27.2901 21.0632 26.9709 20.153 26.6498 19.2436C26.639 19.2129 26.6293 19.1764 26.6068 19.1567C26.5759 19.1297 26.5278 19.0943 26.4969 19.102C26.4558 19.1123 26.4174 19.1559 26.3912 19.1943C26.3753 19.2175 26.3827 19.2578 26.3827 19.2905C26.3824 20.3228 26.3825 21.355 26.3825 22.3873C26.3825 22.4943 26.3825 22.4944 26.2723 22.4944C25.972 22.4945 25.6716 22.4927 25.3713 22.4958C25.3019 22.4965 25.2798 22.4746 25.2799 22.4049C25.2808 21.0925 25.2789 19.7801 25.2794 18.4677C25.2795 18.138 25.4229 17.9485 25.742 17.8634C26.0496 17.7812 26.3584 17.7944 26.6597 17.8943C26.8767 17.9662 27.0351 18.1172 27.1206 18.327C27.2558 18.6583 27.3792 18.9946 27.502 19.3308C27.7426 19.9894 27.9786 20.6496 28.2191 21.3081C28.235 21.3517 28.2636 21.406 28.3011 21.4233C28.401 21.4692 28.4594 21.4315 28.503 21.3112C28.6799 20.823 28.8558 20.3345 29.0331 19.8464C29.2001 19.3867 29.3667 18.9267 29.537 18.4682C29.6091 18.2739 29.7113 18.0983 29.8913 17.9807C30.025 17.8934 30.1728 17.8422 30.33 17.8264C30.5877 17.8004 30.844 17.8021 31.0912 17.8987C31.3099 17.9842 31.4199 18.1476 31.4405 18.3767C31.4447 18.4244 31.4465 18.4724 31.4466 18.5203C31.4468 19.8075 31.4467 21.0947 31.4467 22.3819C31.4467 22.4943 31.4466 22.4944 31.3329 22.4944C31.0326 22.4945 30.7322 22.4946 30.4319 22.4944C30.3384 22.4943 30.3353 22.4909 30.3351 22.3953C30.3349 22.2211 30.3351 22.047 30.3351 21.8652Z" fill="#FEFFFE"/>
<path d="M24.5212 18.7109C23.8295 18.7109 23.1454 18.7108 22.4614 18.7111C22.421 18.7111 22.3806 18.7124 22.3404 18.7157C22.1953 18.7274 22.1067 18.8091 22.0979 18.9561C22.0892 19.1019 22.0935 19.2485 22.0927 19.3947C22.0922 19.4881 22.0956 19.5816 22.0919 19.6748C22.0898 19.7307 22.1078 19.7495 22.1649 19.7487C22.3668 19.7457 22.5688 19.7475 22.7707 19.7475C23.417 19.7475 24.0632 19.7475 24.7094 19.7476C24.8076 19.7476 24.8078 19.7478 24.8077 19.8434C24.8074 20.0428 24.8036 20.2423 24.8082 20.4416C24.8098 20.5119 24.7841 20.5244 24.7211 20.5243C23.8831 20.5225 23.045 20.5231 22.207 20.5231C22.0936 20.5231 22.0935 20.5232 22.0933 20.6333C22.0929 20.863 22.0916 21.0927 22.0927 21.3224C22.0938 21.5458 22.1886 21.6394 22.4116 21.6394C23.2092 21.6396 24.0069 21.6394 24.8046 21.6395C24.912 21.6395 24.9122 21.6397 24.9118 21.7433C24.9109 21.9629 24.9082 22.1825 24.9097 22.4021C24.9101 22.4694 24.8876 22.4961 24.8174 22.4959C23.7648 22.4942 22.7122 22.4947 21.6596 22.4935C21.5765 22.4934 21.491 22.495 21.4109 22.477C21.2188 22.4339 21.0901 22.3059 21.024 22.1267C20.9829 22.0152 20.9517 21.8926 20.9511 21.7749C20.9459 20.7071 20.9463 19.6394 20.9503 18.5716C20.9512 18.319 21.029 18.0946 21.2524 17.9443C21.353 17.8767 21.4657 17.855 21.5836 17.8549C22.6665 17.8544 23.7494 17.855 24.8323 17.8535C24.894 17.8534 24.9097 17.8776 24.9092 17.9344C24.9073 18.1641 24.907 18.3939 24.91 18.6235C24.9108 18.6878 24.8922 18.7153 24.824 18.7121C24.7258 18.7074 24.6272 18.7109 24.5212 18.7109Z" fill="#FEFFFE"/>
<path d="M13.631 22.4993C13.1438 22.499 12.6643 22.4972 12.1847 22.5C12.1125 22.5005 12.0945 22.4764 12.0952 22.4087C12.0974 22.1841 12.0971 21.9594 12.0915 21.7349C12.0896 21.6605 12.1133 21.6415 12.1857 21.6416C13.0185 21.6428 13.8514 21.6419 14.6843 21.6392C15.0024 21.6382 15.1643 21.3669 15.0216 21.0827C14.9843 21.0084 14.9278 20.9565 14.8512 20.9308C14.572 20.8372 14.2929 20.743 14.0118 20.6555C13.6463 20.5417 13.2786 20.4347 12.9122 20.3237C12.3558 20.155 12.1237 19.8781 12.0671 19.2963C12.0411 19.0291 12.0529 18.7624 12.1331 18.5016C12.2511 18.1183 12.5587 17.8761 12.9592 17.8591C13.0323 17.856 13.1055 17.8546 13.1787 17.8545C14.0798 17.8528 14.9809 17.8525 15.8819 17.8486C15.9567 17.8483 15.983 17.8651 15.9812 17.9443C15.9758 18.1689 15.9793 18.3936 15.9793 18.6182C15.9793 18.6429 15.9793 18.6676 15.9793 18.7029C15.9433 18.7029 15.9141 18.7029 15.8848 18.7029C15.1302 18.7029 14.3755 18.7018 13.6208 18.7047C13.5445 18.705 13.4612 18.7148 13.3934 18.7464C13.1568 18.8568 13.133 19.2111 13.3522 19.3725C13.4254 19.4263 13.5153 19.4642 13.6033 19.4901C14.1959 19.6643 14.7886 19.8385 15.3842 20.0024C15.908 20.1465 16.1621 20.5185 16.2223 21.0143C16.2586 21.3126 16.255 21.6093 16.144 21.894C16.0057 22.2491 15.7451 22.46 15.3641 22.4816C14.9816 22.5034 14.5975 22.4957 14.214 22.4993C14.0222 22.5011 13.8304 22.4994 13.631 22.4993Z" fill="#FEFFFE"/>
<path d="M19.5233 18.7032C19.0236 18.7032 18.5313 18.7031 18.0391 18.7034C17.9988 18.7035 17.9577 18.7017 17.9184 18.7086C17.7708 18.7343 17.6558 18.8064 17.6199 18.9603C17.582 19.1227 17.6187 19.2714 17.7579 19.3718C17.8317 19.4251 17.9212 19.4632 18.0092 19.4891C18.6017 19.6638 19.1951 19.8358 19.7896 20.0038C20.1414 20.1031 20.4028 20.3043 20.5417 20.6474C20.632 20.8704 20.6588 21.1069 20.6498 21.3448C20.6445 21.4872 20.6266 21.6325 20.5895 21.7698C20.4654 22.2286 20.1583 22.4694 19.6826 22.4968C19.6322 22.4997 19.5817 22.5001 19.5312 22.5001C18.5569 22.4998 17.5825 22.4984 16.6082 22.5002C16.5336 22.5004 16.5071 22.4837 16.5088 22.4044C16.5139 22.1574 16.5106 21.9103 16.5106 21.6544C16.5464 21.6525 16.5779 21.6495 16.6094 21.6495C17.3919 21.6492 18.1744 21.6503 18.9569 21.6479C19.0492 21.6476 19.1436 21.6366 19.2333 21.6152C19.3753 21.5813 19.4596 21.483 19.4739 21.3379C19.4887 21.1873 19.4563 21.0455 19.3156 20.9634C19.2232 20.9094 19.1207 20.8686 19.018 20.837C18.438 20.6584 17.8561 20.4862 17.2763 20.3074C17.1661 20.2734 17.06 20.2236 16.9557 20.1736C16.7714 20.0851 16.6485 19.9348 16.5777 19.7478C16.4132 19.3132 16.4182 18.8732 16.5688 18.4367C16.6915 18.0811 16.9557 17.9006 17.3241 17.8668C17.4396 17.8562 17.5559 17.8514 17.6719 17.8511C18.5452 17.8489 19.4186 17.8494 20.2919 17.8457C20.3671 17.8454 20.3851 17.8687 20.3841 17.9397C20.381 18.1643 20.3823 18.389 20.3868 18.6136C20.3882 18.6835 20.3658 18.7056 20.2958 18.7046C20.0408 18.7011 19.7859 18.7032 19.5233 18.7032Z" fill="#FEFFFE"/>
<path d="M34.533 18.7027C34.1469 18.7018 33.7683 18.7002 33.3898 18.7007C33.3194 18.7008 33.2476 18.702 33.179 18.7154C32.894 18.7715 32.7856 19.0962 32.9751 19.319C33.0445 19.4006 33.1339 19.4475 33.2362 19.4769C33.8421 19.6509 34.4449 19.8359 35.0536 19.9992C35.533 20.1278 35.7989 20.4334 35.8889 20.9099C35.9425 21.1937 35.9455 21.4773 35.8725 21.7577C35.7519 22.2204 35.4299 22.4773 34.9501 22.4953C34.7788 22.5017 34.607 22.498 34.4354 22.498C33.5849 22.4982 32.7344 22.4982 31.8839 22.4981C31.7844 22.4981 31.78 22.4941 31.7806 22.3974C31.782 22.1702 31.784 21.9431 31.786 21.716C31.7861 21.6964 31.7882 21.6769 31.7899 21.6487C31.8235 21.6487 31.853 21.6487 31.8826 21.6487C32.6523 21.6487 33.422 21.6495 34.1917 21.6477C34.2896 21.6475 34.3885 21.6403 34.4851 21.6248C34.6237 21.6025 34.7106 21.5128 34.7423 21.3792C34.7756 21.2389 34.7562 21.1011 34.639 21.0062C34.5645 20.9458 34.4738 20.8963 34.3824 20.8673C33.919 20.7207 33.453 20.5825 32.988 20.4412C32.8266 20.3922 32.6652 20.3429 32.5038 20.2938C32.0802 20.1651 31.8309 19.8841 31.7686 19.4442C31.7214 19.1112 31.7195 18.7799 31.8341 18.4573C31.9673 18.0824 32.2408 17.8937 32.6307 17.863C32.7136 17.8565 32.7971 17.8546 32.8803 17.8544C33.7788 17.8525 34.6772 17.8521 35.5756 17.8486C35.64 17.8484 35.663 17.8612 35.6617 17.9309C35.6573 18.1629 35.6584 18.3952 35.6619 18.6273C35.6628 18.6874 35.6455 18.7045 35.5854 18.704C35.2371 18.7013 34.8888 18.7027 34.533 18.7027Z" fill="#FEFFFE"/>
<path d="M7.9843 19.1736C8.05341 19.0177 8.12889 18.8643 8.18859 18.7049C8.21354 18.6383 8.20495 18.5591 8.21717 18.4805C8.25847 18.4499 8.30753 18.4322 8.32753 18.3977C8.3949 18.2813 8.45194 18.1589 8.51293 18.0388C8.58455 17.9842 8.64924 17.9133 8.72954 17.8791C8.82897 17.8367 8.94027 17.8116 9.0484 17.8027C9.19881 17.7903 9.35106 17.7983 9.50249 17.8003C9.7328 17.8035 9.91286 17.9126 10.0156 18.1087C10.1546 18.3742 10.2701 18.6524 10.3878 18.9284C10.8776 20.077 11.3646 21.2268 11.8525 22.3762C11.8921 22.4694 11.8897 22.4735 11.7898 22.4732C11.444 22.4722 11.0981 22.4697 10.7523 22.4712C10.6943 22.4714 10.6671 22.4507 10.6477 22.3978C10.5376 22.0968 10.4225 21.7976 10.3138 21.4961C10.2876 21.4234 10.2513 21.3939 10.1715 21.3943C9.54548 21.3972 8.91946 21.3968 8.29346 21.3946C8.23057 21.3944 8.19926 21.4131 8.17729 21.4739C8.06833 21.7753 7.95236 22.0741 7.84411 22.3758C7.81895 22.4459 7.78665 22.4729 7.70939 22.4718C7.38131 22.4672 7.05312 22.4699 6.72497 22.4699C6.61761 22.4699 6.61768 22.4698 6.60117 22.3625C6.59811 22.3426 6.59413 22.3228 6.59635 22.2971C6.63731 22.2626 6.68781 22.241 6.70495 22.2039C6.76887 22.0656 6.82184 21.9223 6.87892 21.7808C6.9553 21.6089 7.03614 21.4387 7.10578 21.2641C7.13266 21.1967 7.13407 21.1191 7.1517 21.0364C7.28783 20.8692 7.37968 20.6922 7.42355 20.4912C7.55457 20.2605 7.63661 20.0108 7.71397 19.7496C7.86634 19.5798 7.9394 19.3832 7.9843 19.1736ZM8.64588 20.2183C8.60041 20.3372 8.55494 20.4562 8.50524 20.5862C9.00322 20.5862 9.48427 20.5862 9.97154 20.5862C9.96355 20.5607 9.95855 20.5416 9.95167 20.5233C9.76163 20.0154 9.57118 19.5077 9.38145 18.9998C9.35458 18.9279 9.32006 18.8605 9.23354 18.8583C9.14675 18.8562 9.12678 18.9329 9.10323 18.9953C8.95098 19.3989 8.80067 19.8032 8.64588 20.2183Z" fill="#FEFFFE"/>
<path d="M7.98068 19.1702C7.93976 19.3837 7.8667 19.5802 7.71523 19.7443C7.69118 19.711 7.67225 19.6759 7.65278 19.641C7.55074 19.4584 7.38223 19.4005 7.18753 19.4001C6.47592 19.3986 5.7643 19.3996 5.05269 19.3995C4.84829 19.3995 4.64388 19.3978 4.43949 19.3994C4.3591 19.4 4.27869 19.4062 4.19843 19.4119C4.13013 19.4167 4.10755 19.3921 4.13352 19.3287C4.19953 19.1677 4.26517 19.0063 4.33947 18.8491C4.35503 18.8161 4.40644 18.7993 4.44291 18.7777C4.45229 18.7722 4.46766 18.7767 4.48027 18.7767C5.42405 18.7754 6.36782 18.7737 7.31159 18.7734C7.38954 18.7734 7.4683 18.7774 7.54528 18.7889C7.74124 18.8183 7.87606 18.9283 7.95082 19.112C7.95836 19.1305 7.96802 19.1482 7.98068 19.1702Z" fill="#FEFFFE"/>
<path d="M6.83139 20.6991C6.79865 20.6979 6.76592 20.6957 6.73317 20.6955C5.70411 20.6918 4.67504 20.6882 3.64597 20.6846C3.5383 20.6842 3.53555 20.6803 3.57912 20.5789C3.63686 20.4446 3.70213 20.313 3.75077 20.1755C3.78578 20.0766 3.84309 20.0509 3.94275 20.0518C4.41689 20.056 4.8911 20.0528 5.36529 20.0525C5.84955 20.0521 6.33382 20.052 6.82502 20.0595C6.84177 20.1915 6.85775 20.3157 6.85925 20.44C6.86029 20.5263 6.84139 20.6127 6.83139 20.6991Z" fill="#FEFFFE"/>
<path d="M8.5107 18.0325C8.44993 18.1588 8.3929 18.2811 8.32552 18.3975C8.30552 18.4321 8.25646 18.4498 8.21522 18.4743C8.1664 18.4034 8.13147 18.3261 8.07804 18.2649C7.96359 18.1339 7.80345 18.1162 7.64172 18.1159C7.04179 18.1151 6.44185 18.1158 5.84192 18.1158C5.80664 18.1158 5.77136 18.1147 5.73188 18.1072C5.72842 18.0559 5.7347 18.0109 5.72876 17.9675C5.71486 17.8658 5.69884 17.7642 5.67644 17.6641C5.6605 17.5929 5.67248 17.5404 5.74089 17.5074C5.78117 17.5057 5.82145 17.5027 5.86173 17.5026C6.52017 17.5014 7.17861 17.5005 7.83704 17.5C7.89502 17.5 7.95308 17.5021 8.01096 17.5056C8.23893 17.5192 8.38347 17.6427 8.4597 17.8522C8.48034 17.9089 8.49375 17.9682 8.5107 18.0325Z" fill="#FEFFFE"/>
<path d="M6.87168 21.7782C6.82039 21.9219 6.76741 22.0652 6.70349 22.2035C6.68635 22.2405 6.63585 22.2622 6.59511 22.2907C6.54913 22.2159 6.51803 22.1338 6.46632 22.068C6.36328 21.9369 6.21134 21.9162 6.05628 21.9165C5.46138 21.9179 4.86648 21.9203 4.27158 21.9223C4.24638 21.9224 4.22118 21.9218 4.18982 21.9149C4.18451 21.7817 4.18794 21.655 4.18528 21.5284C4.18356 21.4467 4.15974 21.3628 4.2271 21.2941C4.25477 21.2927 4.28244 21.29 4.31011 21.29C4.97076 21.2903 5.63141 21.2909 6.29206 21.2911C6.4635 21.2911 6.61235 21.3427 6.73412 21.4689C6.81792 21.5557 6.83993 21.6659 6.87168 21.7782Z" fill="#FEFFFE"/>
<path d="M4.22085 21.2928C4.16055 21.3632 4.18437 21.447 4.18609 21.5288C4.18875 21.6553 4.18532 21.7821 4.18374 21.9144C3.87337 21.9215 3.56372 21.9229 3.25408 21.9241C3.18607 21.9244 3.11806 21.924 3.05005 21.924C3.0061 21.9239 2.98924 21.9051 3.00692 21.862C3.0785 21.6873 3.14751 21.5115 3.22428 21.3392C3.23522 21.3146 3.28341 21.2935 3.31462 21.2931C3.61431 21.2897 3.91406 21.2911 4.22085 21.2928Z" fill="#FEFFFE"/>
<path d="M5.73462 17.5046C5.67313 17.5398 5.66115 17.5924 5.67709 17.6635C5.69949 17.7636 5.71551 17.8653 5.72942 17.9669C5.73535 18.0103 5.72907 18.0554 5.72544 18.1053C5.37953 18.1114 5.03651 18.1114 4.6935 18.1124C4.63756 18.1126 4.61848 18.0885 4.63871 18.037C4.70144 17.8774 4.76187 17.7167 4.83188 17.5603C4.84475 17.5316 4.89803 17.5052 4.93312 17.5046C5.19792 17.5001 5.46283 17.5022 5.73462 17.5046Z" fill="#FEFFFE"/>
<path d="M6.83529 20.7031C6.84157 20.6131 6.86047 20.5267 6.85943 20.4405C6.85793 20.3161 6.84195 20.1919 6.83215 20.0615C7.12323 20.06 7.32675 20.162 7.42066 20.4862C7.37965 20.6922 7.28779 20.8692 7.15219 21.0295C7.08891 20.8823 6.9852 20.7743 6.83529 20.7031Z" fill="#FEFFFE"/>
<circle cx="20" cy="20" r="19.5" stroke="black" stroke-opacity="0.05"/>
</svg>
