<svg width="40" height="40" viewBox="0 0 40 40" fill="none" xmlns="http://www.w3.org/2000/svg">
<circle cx="20" cy="20" r="20" fill="#F6F8FA"/>
<path d="M5.72093 18H6.63815C6.69692 18.01 6.76743 18.0073 6.81594 18.04C6.86046 18.07 6.89396 18.1095 6.91647 18.1583C7.37433 19.1518 7.84294 20.1713 8.32231 21.2165C8.35007 21.2768 8.37807 21.3351 8.40633 21.3913C8.41708 21.4126 8.42584 21.4118 8.43234 21.3888C8.45959 21.2936 8.4881 21.2015 8.51736 21.1123C8.83118 20.1538 9.13101 19.2273 9.41708 18.3333C9.46859 18.172 9.55586 18.0463 9.73115 18.0178C9.77716 18.0103 9.82393 18.0043 9.87169 18H13.3043L13.0052 18.9417C12.9984 18.963 12.9787 18.9775 12.9564 18.9775L10.4523 18.9787C10.4361 18.9787 10.4218 18.9895 10.4168 19.005L10.1653 19.7954C10.1605 19.8104 10.1688 19.8264 10.1838 19.8312C10.1865 19.8319 10.1895 19.8324 10.1923 19.8324L12.6836 19.8307C12.6984 19.8307 12.7101 19.8427 12.7101 19.8572C12.7101 19.86 12.7096 19.863 12.7086 19.8657L12.5171 20.4198L11.3973 20.7472C11.3916 20.7489 11.3908 20.7517 11.3951 20.7559C11.3966 20.7574 11.3986 20.7589 11.4008 20.7607C11.284 20.7899 11.181 20.8049 11.0917 20.8054C10.6879 20.8077 10.2813 20.8079 9.87194 20.8064C9.84468 20.8064 9.82693 20.8194 9.81867 20.8454L9.66539 21.3331C9.65889 21.3536 9.64113 21.3686 9.61963 21.3713C9.54936 21.3808 9.48259 21.3968 9.41983 21.4191C9.19902 21.4981 8.97347 21.5871 8.74341 21.6859C8.69815 21.6914 8.63789 21.7092 8.56237 21.7392C8.28705 21.8482 8.0675 21.9387 7.90346 22.011L7.55812 22.1558C7.53487 22.1653 7.50836 22.155 7.49786 22.1323C7.11902 21.3043 6.72617 20.4473 6.31932 19.5619C6.29732 19.5139 6.27281 19.4674 6.24606 19.4223C6.23855 19.4098 6.23205 19.4103 6.2263 19.4236C6.2153 19.4496 6.20555 19.4764 6.19679 19.5036C5.91047 20.4213 5.60515 21.3863 5.28107 22.3983C5.25957 22.4656 5.24556 22.5364 5.22156 22.6041C5.21255 22.6294 5.1948 22.6419 5.16804 22.6419H4.02402C4.01501 22.6419 4.00701 22.6361 4.00376 22.6276C3.99901 22.6146 3.99876 22.6016 4.00301 22.5884C4.46737 21.166 4.92849 19.7447 5.3866 18.3243C5.3991 18.2856 5.41235 18.2481 5.42636 18.2113C5.47787 18.0778 5.57589 18.0073 5.72093 18Z" fill="#FDD100"/>
<path d="M13.4459 18.0005H14.715L15.2306 19.2188C15.2344 19.2278 15.2449 19.232 15.2539 19.2283C15.2559 19.2275 15.2576 19.2263 15.2594 19.2248L16.5519 18.0005H17.9503C17.4184 18.5109 16.892 19.0152 16.3716 19.5141C16.3454 19.5391 16.3039 19.5566 16.2471 19.5664C15.8715 19.6306 15.4939 19.7069 15.1143 19.7954C15.0921 19.7997 15.0671 19.8032 15.0391 19.8057C15.0108 19.8082 14.9858 19.8119 14.9643 19.8169C14.7292 19.8722 14.4942 19.9272 14.2589 19.982L13.4322 18.0242C13.4289 18.0165 13.4309 18.0102 13.4382 18.0055L13.4459 18.0005Z" fill="#8EC21F"/>
<path d="M18.0584 18.0005H22.7123L22.4365 18.8735C22.4325 18.8857 22.4215 18.894 22.4087 18.8945C21.4397 18.9252 20.475 18.9912 19.5145 19.093C19.4813 19.0965 19.4505 19.0973 19.422 19.0953C19.4135 19.0948 19.4073 19.0875 19.4078 19.079C19.4078 19.076 19.409 19.0732 19.4108 19.071C19.4285 19.047 19.438 19.0237 19.4393 19.0012C19.44 18.9857 19.4328 18.978 19.417 18.978C18.9406 18.982 18.4103 18.9817 17.8261 18.977C17.7966 18.977 17.7671 18.9765 17.7373 18.9757C17.7306 18.9755 17.7253 18.97 17.7256 18.9632C17.7256 18.9622 17.7256 18.961 17.7261 18.96C17.8234 18.6536 17.9184 18.3578 18.0109 18.0725C18.0152 18.0593 18.0169 18.0427 18.0142 18.029C18.0119 18.0177 18.0164 18.011 18.0274 18.0082L18.0584 18.0005Z" fill="#8EC21F"/>
<path d="M23.7752 18.0005H27.23C27.1332 18.3106 27.0352 18.6171 26.9364 18.92C26.9264 18.9505 26.9059 18.9647 26.8747 18.9627C25.6399 18.8785 24.4126 18.8472 23.1928 18.8694C23.184 18.8694 23.1765 18.8627 23.1763 18.8539C23.1763 18.8519 23.1765 18.8502 23.1773 18.8482C23.2233 18.7197 23.2673 18.5841 23.3093 18.4413C23.3453 18.3193 23.3776 18.2338 23.4061 18.1848C23.4531 18.1038 23.5336 18.0503 23.6476 18.0245C23.6901 18.0147 23.7327 18.0067 23.7752 18.0005Z" fill="#8EC21F"/>
<path d="M27.2793 18.0005H28.5654L29.122 19.1673C29.0667 19.1765 29.0255 19.175 28.9985 19.1625L27.8329 19.0397C27.8117 19.0375 27.7929 19.0245 27.7832 19.0052L27.2793 18.0005Z" fill="#F18200"/>
<path d="M30.8486 18.0005H32.2614C32.2704 18.0035 32.2769 18.0067 32.2812 18.0102C32.2884 18.0162 32.2884 18.0222 32.2814 18.0285L30.7293 19.3763L29.541 19.2108C29.9436 18.8182 30.3357 18.4416 30.7173 18.081C30.7631 18.0377 30.8068 18.011 30.8486 18.0005Z" fill="#F18200"/>
<path d="M32.5919 18.0003H36.0002V18.0315L35.7001 18.9538C35.6951 18.9693 35.6806 18.9798 35.6644 18.9798H33.1435C33.1363 18.9798 33.13 18.984 33.1278 18.9908L32.8547 19.801H32.8004C32.8027 19.7955 32.8032 19.7915 32.8024 19.7885C32.8017 19.7857 32.8002 19.7842 32.7977 19.7837C32.4461 19.7129 32.0988 19.6457 31.7559 19.5817C31.7347 19.5777 31.7269 19.5652 31.7329 19.5442C31.7619 19.4439 31.7934 19.3431 31.8277 19.2421C31.9262 18.9503 32.0157 18.6717 32.0965 18.4061C32.1363 18.2753 32.18 18.1838 32.2278 18.1316C32.3121 18.0398 32.4333 17.996 32.5919 18.0003Z" fill="#F18200"/>
<path d="M19.3927 19.1694H20.5832C20.5905 19.1694 20.5965 19.1754 20.5965 19.1829C20.5965 19.1844 20.5965 19.1857 20.596 19.1869L20.5002 19.482C20.4985 19.4875 20.4932 19.4913 20.4875 19.4913L19.2974 19.492C19.2902 19.492 19.2842 19.4863 19.2842 19.4788C19.2842 19.4773 19.2842 19.476 19.2847 19.4748L19.38 19.1787C19.3817 19.1732 19.387 19.1694 19.3927 19.1694Z" fill="#002770"/>
<path d="M23.0824 19.1694H24.2777C24.2837 19.1694 24.2887 19.1744 24.2887 19.1804C24.2887 19.1814 24.2887 19.1827 24.2882 19.1837L24.1926 19.4838C24.1911 19.4883 24.1869 19.4915 24.1821 19.4915H22.9861C22.9801 19.4915 22.9751 19.4865 22.9751 19.4805C22.9751 19.4795 22.9751 19.4783 22.9756 19.4773L23.0719 19.1772C23.0734 19.1727 23.0776 19.1694 23.0824 19.1694Z" fill="#002770"/>
<path d="M28.9984 19.1621C29.0254 19.1746 29.0667 19.1761 29.1219 19.1669L29.2517 19.4509C29.2557 19.4594 29.2657 19.4632 29.2742 19.4594C29.276 19.4587 29.2775 19.4574 29.279 19.4562L29.541 19.2104L30.7293 19.3759C30.7031 19.4107 30.6731 19.4402 30.6388 19.4644C30.6126 19.4829 30.585 19.4922 30.5563 19.4922C29.7528 19.4914 28.9201 19.4914 28.0577 19.4917C28.0392 19.4917 28.0222 19.4812 28.0139 19.4647L27.8756 19.1914C27.8719 19.1836 27.8749 19.1744 27.8824 19.1706C27.8846 19.1696 27.8871 19.1689 27.8896 19.1689L28.9984 19.1621Z" fill="#002770"/>
<path d="M14.2588 19.9817C14.4941 19.927 14.7292 19.872 14.9642 19.8167C14.9857 19.8117 15.0107 19.8079 15.039 19.8054C15.067 19.8029 15.092 19.7994 15.1142 19.7952C15.4238 19.7989 15.7279 19.7984 16.0265 19.7939C16.0362 19.7939 16.0422 19.7952 16.0445 19.7984C16.0505 19.8072 16.0495 19.819 16.0417 19.8262C15.9414 19.9212 15.8439 20.014 15.7494 20.1043C15.7384 20.1145 15.7241 20.1203 15.7091 20.1203H14.3308C14.3226 20.1203 14.3153 20.1153 14.3123 20.1078L14.2588 19.9817Z" fill="#002770"/>
<path d="M20.2819 20.12H19.0973C19.0881 20.1202 19.0806 20.1127 19.0806 20.1035C19.0806 20.1017 19.0808 20.1 19.0813 20.0982L19.1751 19.8097C19.1773 19.8027 19.1838 19.7981 19.1911 19.7981L20.3754 19.7959C20.3846 19.7959 20.3921 19.8034 20.3921 19.8127C20.3921 19.8144 20.3919 19.8162 20.3914 19.8179L20.2979 20.1085C20.2956 20.1155 20.2891 20.12 20.2819 20.12Z" fill="#002770"/>
<path d="M26.5531 20.1019C26.5496 20.1129 26.5394 20.1202 26.5281 20.1202H22.783C22.777 20.1202 22.772 20.1149 22.772 20.1089C22.772 20.1077 22.772 20.1064 22.7725 20.1052L22.8657 19.8139C22.869 19.8036 22.876 19.7984 22.887 19.7984C23.2801 19.7951 23.6579 19.7959 24.0203 19.8006C24.065 19.8014 24.1038 19.8259 24.1491 19.8261C24.9518 19.8299 25.7767 19.8299 26.6237 19.8266C26.6309 19.8266 26.6369 19.8326 26.6369 19.8399C26.6369 19.8414 26.6369 19.8426 26.6362 19.8439L26.5531 20.1019Z" fill="#002770"/>
<path d="M29.8911 20.12H28.3517C28.3465 20.12 28.3417 20.117 28.3395 20.1122L28.1957 19.8179C28.1924 19.8112 28.1952 19.8029 28.202 19.7997C28.2037 19.7987 28.2057 19.7984 28.208 19.7982L30.2269 19.7954C30.2344 19.7954 30.2407 19.8014 30.2407 19.8092C30.2407 19.8132 30.2389 19.8169 30.2362 19.8194L29.9004 20.1165C29.8979 20.1187 29.8946 20.12 29.8911 20.12Z" fill="#002770"/>
<path d="M32.8003 19.8009H32.8546C32.8541 19.8196 32.8621 19.8289 32.8789 19.8286C32.9924 19.8271 33.0842 19.8346 33.1542 19.8511L34.2409 20.1195L31.5588 20.1217C31.5493 20.1217 31.546 20.1172 31.5488 20.1082L31.6401 19.8199C31.6446 19.8061 31.6573 19.7969 31.6716 19.7969L32.8003 19.8009Z" fill="#002770"/>
<path d="M34.2411 20.1192L33.1543 19.8509C33.1803 19.8352 33.1996 19.8271 33.2121 19.8271C33.9165 19.8279 34.6399 19.8276 35.3818 19.8271C35.4016 19.8271 35.4103 19.8369 35.4081 19.8564C35.4063 19.8727 35.4026 19.8894 35.3968 19.9064C35.3408 20.0695 35.2903 20.2217 35.2456 20.3635C35.2423 20.3738 35.2316 20.3795 35.2213 20.3768L34.2411 20.1195V20.1192Z" fill="#F18200"/>
<path d="M12.5168 20.4199L12.4173 20.741C12.4155 20.7463 12.4105 20.75 12.405 20.75C12.0872 20.7508 11.7689 20.7508 11.4501 20.75C11.4373 20.75 11.4208 20.7535 11.4006 20.7608C11.3983 20.759 11.3963 20.7575 11.3948 20.756C11.3905 20.7518 11.3913 20.749 11.3971 20.7473L12.5168 20.4199Z" fill="#002770"/>
<path d="M13.9953 20.4321L15.7363 20.4326C15.7398 20.4326 15.743 20.4349 15.7445 20.4381L15.8693 20.737C15.8713 20.7415 15.8693 20.7467 15.8646 20.7487C15.8636 20.7492 15.8623 20.7495 15.8611 20.7495H13.6853C13.6803 20.7497 13.6763 20.7457 13.6763 20.7407C13.6763 20.7382 13.6773 20.736 13.679 20.7342L13.9891 20.4346C13.9908 20.4331 13.9931 20.4321 13.9953 20.4321Z" fill="#002770"/>
<path d="M18.9815 20.4326L20.1746 20.4321C20.1808 20.4321 20.1858 20.4374 20.1856 20.4436C20.1856 20.4446 20.1856 20.4459 20.1851 20.4469L20.0918 20.742C20.0903 20.7467 20.086 20.7497 20.081 20.7497H18.8863C18.88 20.75 18.875 20.745 18.875 20.7387C18.875 20.7375 18.875 20.7362 18.8755 20.7352L18.9708 20.4404C18.9723 20.4356 18.9765 20.4326 18.9815 20.4326Z" fill="#002770"/>
<path d="M26.3358 20.7499H22.5799C22.5729 20.7499 22.5674 20.7442 22.5674 20.7372C22.5674 20.7359 22.5674 20.7347 22.5679 20.7334L22.6617 20.4414C22.6632 20.4361 22.6679 20.4326 22.6734 20.4326H26.4268C26.4338 20.4326 26.4393 20.4381 26.4393 20.4451C26.4393 20.4464 26.4393 20.4476 26.4388 20.4489L26.3478 20.7412C26.3461 20.7464 26.3413 20.7499 26.3358 20.7499Z" fill="#002770"/>
<path d="M29.4017 20.75L28.3017 20.7495C28.297 20.7495 28.293 20.7457 28.293 20.7407C28.293 20.7397 28.293 20.739 28.2932 20.7382L28.3867 20.4384C28.3877 20.4346 28.3912 20.4321 28.3952 20.4321H29.501C29.5058 20.4324 29.5098 20.4364 29.5098 20.4411C29.5098 20.4421 29.5098 20.4429 29.5093 20.4439L29.41 20.744C29.4087 20.7475 29.4055 20.75 29.4017 20.75Z" fill="#002770"/>
<path d="M31.4475 20.4326H35.2109C35.2154 20.4326 35.2189 20.4361 35.2192 20.4404C35.2192 20.4414 35.2192 20.4421 35.2187 20.4431L35.1229 20.7444C35.1219 20.7477 35.1189 20.7499 35.1154 20.7499H31.3525C31.348 20.7499 31.3445 20.7462 31.3442 20.7419C31.3442 20.7409 31.3442 20.7402 31.3447 20.7392L31.44 20.4381C31.441 20.4349 31.444 20.4326 31.4475 20.4326Z" fill="#002770"/>
<path d="M14.7368 21.1133C14.732 21.1013 14.7185 21.0956 14.7065 21.1006C14.7038 21.1016 14.7013 21.1033 14.699 21.1053L14.4402 21.3534C14.4239 21.3691 14.4022 21.3779 14.3797 21.3779H13.0449C13.0176 21.3779 13.0136 21.3686 13.0334 21.3499C13.1241 21.2636 13.2141 21.1773 13.3034 21.0913C13.3247 21.0708 13.3502 21.0605 13.3797 21.0605C14.2474 21.0605 15.1166 21.0605 15.9873 21.061C16.0001 21.061 16.0088 21.0668 16.0138 21.0786L16.1326 21.3616C16.1351 21.3676 16.1326 21.3749 16.1264 21.3774C16.1249 21.3781 16.1234 21.3784 16.1216 21.3784L14.8633 21.3779C14.851 21.3779 14.84 21.3706 14.8355 21.3594L14.7368 21.1133Z" fill="#002770"/>
<path d="M19.8782 21.3779H18.6804C18.6754 21.3781 18.6711 21.3741 18.6709 21.3691C18.6709 21.3681 18.6709 21.3671 18.6714 21.3661L18.7664 21.0675C18.7677 21.0638 18.7712 21.061 18.7752 21.061L19.973 21.0605C19.978 21.0605 19.9822 21.0645 19.9825 21.0695C19.9825 21.0705 19.9825 21.0715 19.982 21.0725L19.8869 21.3714C19.8857 21.3751 19.8822 21.3779 19.8782 21.3779Z" fill="#002770"/>
<path d="M22.4683 21.0613L23.6643 21.0605C23.6703 21.0605 23.6751 21.0653 23.6751 21.0713C23.6751 21.0723 23.6751 21.0735 23.6746 21.0746L23.5803 21.3704C23.5788 21.3749 23.5748 21.3779 23.5701 21.3779H22.3745C22.3685 21.3781 22.3638 21.3734 22.3638 21.3674C22.3638 21.3664 22.3638 21.3651 22.3643 21.3641L22.458 21.0688C22.4595 21.0643 22.4635 21.0613 22.4683 21.0613Z" fill="#002770"/>
<path d="M29.1951 21.3776H28.1041C28.0968 21.3779 28.0911 21.3721 28.0908 21.3651C28.0908 21.3636 28.0908 21.3624 28.0916 21.3609L28.1833 21.0696C28.1851 21.0643 28.1901 21.0606 28.1956 21.0606H29.2896C29.2969 21.0603 29.3026 21.0661 29.3029 21.0731C29.3029 21.0746 29.3029 21.0758 29.3021 21.0773L29.2076 21.3686C29.2058 21.3741 29.2008 21.3776 29.1951 21.3776Z" fill="#002770"/>
<path d="M32.3477 21.3781H31.1521C31.1461 21.3779 31.1411 21.3729 31.1411 21.3669C31.1411 21.3659 31.1411 21.3646 31.1416 21.3636L31.2361 21.0693C31.2376 21.0648 31.2419 21.0618 31.2466 21.0618L32.4419 21.0596C32.4479 21.0596 32.4529 21.0646 32.4529 21.0706C32.4529 21.0716 32.4529 21.0728 32.4524 21.0738L32.3582 21.3704C32.3567 21.3749 32.3524 21.3781 32.3477 21.3781Z" fill="#002770"/>
<path d="M8.74327 21.686L12.0953 21.6875C12.1013 21.6875 12.1063 21.6925 12.1063 21.6988C12.1063 21.6998 12.1063 21.701 12.1058 21.702L12.0143 21.9891C12.0091 22.0054 11.9978 22.0136 11.9808 22.0136L7.90332 22.0111C8.06736 21.9388 8.28691 21.8483 8.56223 21.7393C8.63775 21.7093 8.69801 21.6915 8.74327 21.686Z" fill="#002770"/>
<path d="M12.6793 21.689L14.0649 21.6885C14.0702 21.6885 14.0744 21.6927 14.0744 21.698C14.0744 21.7005 14.0734 21.703 14.0717 21.7047L13.7526 22.0101C13.7509 22.0118 13.7486 22.0128 13.7461 22.0128H12.3633C12.358 22.0126 12.3538 22.0081 12.354 22.0028C12.354 22.0003 12.355 21.9981 12.3568 21.9963L12.6728 21.6917C12.6746 21.69 12.6768 21.689 12.6793 21.689Z" fill="#002770"/>
<path d="M16.3863 22.0133H15.121C15.1155 22.0133 15.1105 22.0098 15.1082 22.0045L14.9859 21.708C14.9829 21.701 14.9864 21.693 14.9934 21.69C14.9952 21.6892 14.9969 21.689 14.9987 21.689H16.262C16.2675 21.689 16.2725 21.6922 16.2748 21.6975L16.399 21.9943C16.402 22.0013 16.3985 22.0093 16.3915 22.0123C16.3898 22.013 16.388 22.0133 16.3863 22.0133Z" fill="#002770"/>
<path d="M19.6681 22.0126L18.4811 22.0131C18.4728 22.0131 18.4661 22.0066 18.4658 21.9983C18.4658 21.9966 18.4658 21.9948 18.4666 21.9933L18.5621 21.6992C18.5641 21.693 18.5698 21.689 18.5763 21.689L19.7621 21.6885C19.7704 21.6885 19.7771 21.6952 19.7771 21.7035C19.7771 21.705 19.7771 21.7065 19.7764 21.708L19.6824 22.0021C19.6804 22.0083 19.6746 22.0126 19.6681 22.0126Z" fill="#002770"/>
<path d="M25.9223 22.0133H22.1742C22.1659 22.0133 22.1592 22.0065 22.1592 21.9983C22.1592 21.9968 22.1592 21.9953 22.1599 21.9938L22.255 21.6995C22.257 21.6932 22.2627 21.689 22.2692 21.689H26.0156C26.0239 21.6892 26.0306 21.696 26.0306 21.7042C26.0306 21.7057 26.0306 21.7072 26.0299 21.7087L25.9366 22.0028C25.9346 22.009 25.9288 22.0133 25.9223 22.0133Z" fill="#002770"/>
<path d="M27.9938 21.689H29.0823C29.0905 21.689 29.0973 21.6957 29.0973 21.704C29.0973 21.7055 29.097 21.7072 29.0965 21.7087L29.0008 22.003C28.9988 22.0093 28.9928 22.0133 28.9863 22.0133H27.9003C27.892 22.013 27.8853 22.0063 27.8853 21.998C27.8853 21.9965 27.8853 21.995 27.886 21.9935L27.9795 21.6995C27.9815 21.6932 27.9873 21.689 27.9938 21.689Z" fill="#002770"/>
<path d="M31.0456 21.689H34.7927C34.8012 21.6892 34.8082 21.6962 34.8082 21.7047C34.8082 21.7062 34.808 21.708 34.8075 21.7095L34.7142 22.0025C34.7122 22.009 34.7062 22.0133 34.6994 22.0133H30.952C30.9435 22.0133 30.9365 22.0065 30.9365 21.998C30.9365 21.9965 30.9368 21.9948 30.9373 21.9933L31.0308 21.6997C31.0328 21.6932 31.0388 21.689 31.0456 21.689Z" fill="#002770"/>
<path d="M11.874 22.4527C11.9112 22.4216 11.9465 22.3876 11.9797 22.3506C12.008 22.3191 12.0427 22.3179 12.0818 22.3179C12.5166 22.3191 12.957 22.3191 13.4031 22.3179C13.4203 22.3179 13.4226 22.3236 13.4103 22.3359L13.1333 22.6037C13.1088 22.6272 13.0762 22.6404 13.0422 22.6404C11.3721 22.6402 9.69618 22.6399 8.01452 22.6404C7.9355 22.6404 7.87998 22.6362 7.84798 22.6274C7.70819 22.5897 7.63943 22.4689 7.59416 22.3361C7.59041 22.3249 7.59416 22.3191 7.60642 22.3191H11.881C11.8917 22.3191 11.9005 22.3276 11.9005 22.3384C11.9005 22.3406 11.9 22.3429 11.8992 22.3451L11.863 22.4452C11.8572 22.4612 11.8607 22.4637 11.874 22.4529V22.4527Z" fill="#002770"/>
<path d="M15.2623 22.3184H16.5281C16.5336 22.3186 16.5383 22.3219 16.5403 22.3269L16.6628 22.6219C16.6656 22.6287 16.6623 22.6364 16.6556 22.6392C16.6541 22.6397 16.6526 22.6402 16.6508 22.6402H15.385C15.3795 22.6402 15.3748 22.6369 15.3728 22.6319L15.25 22.3366C15.2473 22.3299 15.2505 22.3221 15.2573 22.3194C15.2588 22.3186 15.2605 22.3184 15.2623 22.3184Z" fill="#002770"/>
<path d="M22.303 22.6414C22.105 22.6419 21.9927 22.5414 22.0485 22.3346C22.0512 22.3241 22.058 22.3188 22.0687 22.3188H25.8171C25.8234 22.3188 25.8286 22.3238 25.8286 22.3304C25.8286 22.3316 25.8286 22.3329 25.8281 22.3339L25.7359 22.6204C25.7324 22.6312 25.7249 22.6364 25.7136 22.6364C24.5938 22.6364 23.4571 22.6382 22.303 22.6414Z" fill="#002770"/>
<path d="M27.7887 22.3184H28.8829C28.8889 22.3184 28.8937 22.3231 28.8937 22.3291C28.8937 22.3301 28.8937 22.3314 28.8932 22.3324L28.7974 22.6324C28.7959 22.6369 28.7919 22.6399 28.7872 22.6399H27.6924C27.6864 22.6399 27.6816 22.6349 27.6816 22.6289C27.6816 22.6279 27.6816 22.6267 27.6821 22.6257L27.7784 22.3259C27.7799 22.3214 27.7839 22.3184 27.7887 22.3184Z" fill="#002770"/>
<path d="M18.3685 22.3184L19.5638 22.3189C19.5698 22.3189 19.5746 22.3236 19.5746 22.3296C19.5746 22.3306 19.5746 22.3319 19.5741 22.3329L19.4775 22.6332C19.476 22.6377 19.472 22.6407 19.4673 22.6407L18.271 22.6402C18.265 22.6402 18.2603 22.6354 18.2603 22.6294C18.2603 22.6284 18.2603 22.6272 18.2608 22.6262L18.3583 22.3259C18.3598 22.3214 18.3638 22.3184 18.3685 22.3184Z" fill="#002770"/>
<path d="M31.0745 22.6402C30.8722 22.6407 30.7731 22.5382 30.8261 22.3329C30.8286 22.3231 30.8349 22.3184 30.8449 22.3184H34.5971C34.6023 22.3186 34.6066 22.3229 34.6066 22.3281C34.6066 22.3291 34.6066 22.3299 34.6061 22.3306L34.5155 22.6137C34.5113 22.6267 34.4993 22.6357 34.4855 22.6357C33.334 22.6369 32.197 22.6384 31.0745 22.6402Z" fill="#002770"/>
<circle cx="20" cy="20" r="19.5" stroke="black" stroke-opacity="0.05"/>
</svg>
