<svg width="40" height="40" viewBox="0 0 40 40" fill="none" xmlns="http://www.w3.org/2000/svg">
<circle cx="20" cy="20" r="20" fill="#3C3D8C"/>
<g clip-path="url(#clip0_22307_36400)">
<path d="M27.6278 11.9132L27.7905 11.3275C27.7973 11.2846 27.838 11.2632 27.8718 11.2632H28.0684C28.1294 11.2632 28.1633 11.2989 28.1633 11.3632V14.2846C28.1633 14.3418 28.1362 14.3703 28.082 14.3703H27.9464C27.899 14.3703 27.8718 14.3489 27.8583 14.306C27.3228 12.4418 26.1636 11.5918 24.3808 11.756C22.6048 11.9203 21.6083 13.6775 21.3846 15.456C21.127 17.4775 21.5744 19.9203 23.3979 20.8846C24.0825 21.2489 24.8079 21.3632 25.5806 21.2346C26.8144 21.0275 27.6549 20.2203 28.1159 18.7989C28.1566 18.6632 28.2447 18.6203 28.3735 18.6632C28.4209 18.6775 28.4413 18.7132 28.4345 18.7632L28.1769 20.5632C28.1701 20.6132 28.143 20.6632 28.1023 20.6918C26.1094 22.2632 23.1132 21.8703 21.3371 20.3418C20.1305 19.2989 19.595 17.6703 19.7238 16.0132C19.9136 13.5703 21.4185 11.8418 23.7436 11.406C24.9841 11.1703 26.2449 11.356 27.5397 11.9632C27.5871 11.9846 27.621 11.9632 27.6346 11.9132H27.6278Z" fill="white"/>
<path d="M12.6602 20.3344C12.8093 21.3915 14.1312 21.5201 14.6531 20.7915C15.0937 20.1844 15.1344 19.1558 15.1344 18.413C15.1344 16.6344 15.1344 14.7987 15.148 12.9058C15.148 12.3487 15.1819 11.8344 14.4633 11.7915C14.0702 11.7701 13.6838 11.763 13.3109 11.7772C13.277 11.7772 13.2567 11.7558 13.2567 11.7201V11.513C13.2567 11.513 13.2703 11.4701 13.2906 11.4701C14.9717 11.413 16.68 11.413 18.4153 11.4701C18.4628 11.4701 18.4831 11.4987 18.4831 11.5415V11.6987C18.4831 11.7487 18.4492 11.7844 18.4018 11.7844C18.0018 11.763 17.6019 11.7701 17.2019 11.8058C16.8088 11.8415 16.6122 12.0772 16.6122 12.5058C16.6122 14.4058 16.6122 16.263 16.6122 18.0772C16.6122 19.5272 16.1851 21.1344 14.7277 21.5487C13.9346 21.7772 13.155 21.713 12.3958 21.3701C11.7315 21.0701 11.1146 20.4272 11.257 19.6344C11.4129 18.763 12.6737 18.8772 12.6398 19.8058C12.6331 19.9844 12.6398 20.163 12.667 20.3415L12.6602 20.3344Z" fill="white"/>
<path d="M11.9012 25.8987C11.8538 26.0629 11.8741 26.0772 11.9623 25.9344C12.308 25.3915 12.7011 25.1772 13.1553 25.2844C13.9552 25.4772 13.1146 27.1487 12.9587 27.5629C12.9113 27.6915 12.9655 27.8344 13.0875 27.8915C13.0943 27.8915 13.1011 27.8915 13.1079 27.8987C13.3248 27.9701 13.5146 27.6987 13.6163 27.5201C13.6502 27.4629 13.6841 27.4629 13.7315 27.5058L13.7586 27.5344C13.7586 27.5344 13.7722 27.5629 13.7586 27.5844C13.6027 27.8987 13.3587 28.0987 13.0333 28.1915C12.4774 28.3415 12.1385 27.8701 12.3486 27.3344C12.4842 26.9844 12.8435 26.2272 12.7689 25.8629C12.7418 25.7272 12.613 25.6415 12.4842 25.6701C12.4435 25.6772 12.4029 25.6987 12.369 25.7344C11.6708 26.4201 11.4945 27.2058 11.2437 28.1201C11.2369 28.1487 11.2166 28.1558 11.1963 28.1558H10.5252C10.5252 28.1558 10.498 28.1415 10.498 28.1272L11.8741 23.5201C11.8877 23.4701 11.8741 23.4415 11.8267 23.4344C11.7657 23.4201 11.6979 23.4344 11.6301 23.4558C11.5826 23.4772 11.5555 23.4558 11.5488 23.4058L11.5352 23.3487C11.5284 23.2987 11.5488 23.2701 11.5962 23.2701L12.5927 23.2344C12.6605 23.2344 12.6876 23.2701 12.6672 23.3344L11.9012 25.8915V25.8987Z" fill="white"/>
<path d="M31.1864 23.5988C31.2339 23.4346 31.1864 23.3846 31.0305 23.4488C30.9695 23.4703 30.9221 23.4631 30.8814 23.4131C30.8475 23.3774 30.8543 23.3203 30.8814 23.2846C30.895 23.2703 30.9153 23.2631 30.9356 23.2631L31.9253 23.2417C31.966 23.2417 31.9931 23.2703 31.9931 23.3131C31.9931 23.3203 31.9931 23.3274 31.9931 23.3346C31.5457 24.8274 31.1187 26.2631 30.7052 27.656C30.6984 27.6917 30.6916 27.7274 30.6916 27.7631C30.6916 27.856 30.7662 27.9274 30.8543 27.9203C30.8814 27.9203 30.9085 27.9131 30.9356 27.8917C31.0848 27.7917 31.2203 27.6631 31.322 27.506C31.3424 27.4774 31.383 27.4631 31.4169 27.4846L31.4508 27.506C31.4508 27.506 31.4847 27.5417 31.4644 27.5703C31.0373 28.356 29.6748 28.6274 30.1086 27.1917C30.4611 26.0203 30.8204 24.8203 31.1864 23.5988Z" fill="white"/>
<path d="M7.73897 27.0416C7.64407 27.5487 7.77965 28.0844 8.38295 28.0987C9.04727 28.113 9.59635 27.7844 10.0302 27.1273C10.0505 27.0987 10.0709 27.0916 10.098 27.113L10.1319 27.1344C10.1725 27.163 10.1793 27.1916 10.1522 27.2344C9.70481 27.8916 9.14895 28.2344 8.48464 28.263C7.73897 28.2987 7.13567 27.813 7.04076 27.0416C6.88485 25.8058 7.23057 24.7844 8.07113 23.9701C8.75579 23.3058 9.47433 23.1558 10.2336 23.513C10.4098 23.5987 10.586 23.513 10.7013 23.363C10.7216 23.3344 10.742 23.3201 10.7691 23.313C10.7894 23.313 10.803 23.313 10.8165 23.3201C10.8436 23.3344 10.8572 23.363 10.8436 23.3916L10.4166 24.8344C10.403 24.8773 10.3623 24.8987 10.3217 24.8916H10.2742C10.2742 24.8916 10.2403 24.863 10.2403 24.8344C10.3691 24.1987 10.22 23.413 9.42688 23.4916C9.03371 23.5273 8.74901 23.7487 8.58632 24.1558C8.19315 25.113 7.90844 26.0773 7.7322 27.0416H7.73897Z" fill="white"/>
<path d="M23.2487 24.4417C23.4621 24.4417 23.6351 24.2594 23.6351 24.0346C23.6351 23.8097 23.4621 23.6274 23.2487 23.6274C23.0353 23.6274 22.8623 23.8097 22.8623 24.0346C22.8623 24.2594 23.0353 24.4417 23.2487 24.4417Z" fill="white"/>
<path d="M18.1443 25.9631C18.124 26.0988 18.1443 26.1131 18.2121 25.9917C18.4494 25.5702 18.8764 25.1202 19.3713 25.2917C19.6628 25.3917 19.7916 25.6274 19.7373 25.9917C19.7238 26.1059 19.7441 26.1131 19.8119 26.0202C20.0966 25.5988 20.4491 25.1202 20.9846 25.2988C21.7235 25.5488 20.9643 27.0202 20.7948 27.4417C20.7541 27.5417 20.7474 27.6417 20.7609 27.7345C20.788 27.8631 20.9033 27.9417 21.0253 27.9131C21.0592 27.9131 21.0863 27.8917 21.1134 27.8702C21.249 27.7631 21.371 27.6417 21.4727 27.4988C21.4862 27.4774 21.5134 27.4702 21.5337 27.4917L21.5744 27.5202C21.5744 27.5202 21.6015 27.5559 21.5879 27.5774C21.3846 28.0059 20.7135 28.4845 20.2796 28.0917C19.8729 27.7274 20.3203 26.8845 20.4898 26.4702C20.5711 26.2702 20.5982 26.0559 20.5779 25.8345C20.5643 25.7417 20.4898 25.6774 20.4016 25.6845C20.3813 25.6845 20.3678 25.6917 20.3542 25.6988C19.9814 25.8845 19.6221 26.6988 19.4933 27.0631C19.3781 27.3845 19.2832 27.7274 19.195 28.0845C19.1815 28.1274 19.1476 28.1631 19.1001 28.1631H18.4697C18.4697 28.1631 18.4223 28.1417 18.4223 28.1131V28.0988C18.646 27.4131 18.8493 26.7202 19.0323 26.0274C19.0662 25.8917 18.9917 25.7488 18.8561 25.7059C18.829 25.6988 18.8019 25.6988 18.7747 25.6988C18.6663 25.6988 18.5714 25.7631 18.4968 25.8702C18.2257 26.2488 17.9545 26.6774 17.8257 27.1345C17.7308 27.4774 17.6291 27.8059 17.5275 28.1345C17.5275 28.1559 17.5071 28.1631 17.4868 28.1631H16.8157C16.8157 28.1631 16.7886 28.1488 16.7886 28.1345C16.7886 28.1345 16.7886 28.1345 16.7886 28.1274L17.4936 25.7845C17.5071 25.7274 17.4936 25.6702 17.4529 25.6274C17.3715 25.5488 17.297 25.5417 17.2156 25.6059C17.1275 25.6774 17.0529 25.7702 16.9852 25.8774C16.9648 25.9131 16.9309 25.9274 16.8903 25.9202C16.8767 25.9202 16.8631 25.9202 16.8564 25.8988C16.8428 25.8845 16.8428 25.8702 16.8496 25.8559C16.9784 25.5059 17.2224 25.3059 17.5817 25.2559C18.002 25.1988 18.1986 25.5631 18.1375 25.9631H18.1443Z" fill="white"/>
<path d="M28.7936 25.4776L28.8072 25.4348C28.8343 25.3633 28.8953 25.3133 28.9699 25.3062L29.4986 25.2276C29.5596 25.2205 29.5868 25.2491 29.5664 25.3133L28.8953 27.5776C28.7936 27.9062 28.8953 27.9919 29.18 27.8276C29.2885 27.7633 29.3766 27.6633 29.4444 27.5348C29.4647 27.4919 29.5122 27.4776 29.5529 27.4919L29.5935 27.5133C29.5935 27.5133 29.6274 27.5562 29.6206 27.5848C29.3359 28.0848 28.4479 28.6205 28.1903 27.7991C28.17 27.7419 28.1497 27.7348 28.1158 27.7848C27.8988 28.1205 27.5938 28.2562 27.2074 28.1919C26.6448 28.0991 26.4685 27.4276 26.5567 26.9276C26.6719 26.2348 27.0379 25.7205 27.648 25.3991C27.9192 25.2562 28.5157 25.1205 28.7055 25.4776C28.7462 25.5491 28.7733 25.5419 28.8072 25.4705L28.7936 25.4776ZM27.5802 27.9991C28.1225 27.8419 28.4818 26.4991 28.6309 25.9705C28.753 25.5562 28.3395 25.2562 28.0141 25.5062C27.4514 25.9348 27.2277 27.0562 27.2345 27.7276C27.2345 27.8848 27.3565 28.0133 27.5057 28.0062C27.526 28.0062 27.5531 28.0062 27.5735 27.9991H27.5802Z" fill="white"/>
<path d="M15.1344 26.7777C14.8971 26.7777 14.7751 26.9063 14.7683 27.1491C14.7683 27.3206 14.7616 27.4848 14.7548 27.6563C14.748 27.9491 14.8836 28.0777 15.1547 28.0491C15.4869 28.0134 15.7716 27.842 16.0292 27.5277C16.0427 27.5134 16.0563 27.5134 16.0699 27.5277L16.1038 27.5563C16.1038 27.5563 16.1377 27.6348 16.1173 27.6634C15.4327 28.5634 13.982 28.3563 14.0837 26.992C14.1583 25.992 14.9514 25.1206 15.9343 25.2777C16.5376 25.3706 16.7206 26.1063 16.1987 26.4634C15.8936 26.6706 15.5411 26.7777 15.1412 26.7777H15.1344ZM15.148 26.6277L15.4394 26.5563C15.6157 26.5134 15.7377 26.3991 15.7987 26.2206C15.8597 26.042 15.8868 25.8563 15.8665 25.6634C15.8529 25.5206 15.7377 25.4134 15.6021 25.4277C15.575 25.4277 15.5479 25.4348 15.5208 25.4491C15.2835 25.5634 15.0937 25.892 14.9582 26.4277C14.9175 26.5991 14.9785 26.6706 15.1412 26.6277H15.148Z" fill="white"/>
<path d="M22.8688 27.8989C23.0586 27.8989 23.2145 27.7846 23.3297 27.5346C23.3433 27.4989 23.384 27.4846 23.4179 27.4918L23.4585 27.5061C23.4585 27.5061 23.4992 27.5418 23.4924 27.5704C23.4924 27.5704 23.4924 27.5704 23.4924 27.5775C23.0111 28.5132 21.5334 28.4275 22.1367 27.0418C22.2655 26.7418 22.6451 25.9918 22.5841 25.6918C22.5637 25.5918 22.4688 25.5275 22.3739 25.5561C22.34 25.5632 22.3062 25.5846 22.2858 25.6132L22.0282 25.9132C22.0282 25.9132 21.974 25.9346 21.9469 25.9132C21.9333 25.8989 21.9265 25.8775 21.9333 25.8561C22.1841 24.9561 23.7026 25.0204 23.1942 26.2775C23.0247 26.6918 22.8485 27.1204 22.6722 27.5632C22.6248 27.6846 22.6722 27.8275 22.7874 27.8775C22.8146 27.8918 22.8417 27.8989 22.8688 27.8989Z" fill="white"/>
<path d="M25.4384 25.4348C25.4384 25.4348 25.3841 25.4348 25.357 25.4348C25.174 25.442 25.0113 25.5563 24.9299 25.7348C24.6452 26.392 24.4893 27.042 24.4554 27.692C24.4487 27.8848 24.5842 28.0491 24.7673 28.0634C24.7808 28.0634 24.8011 28.0634 24.8147 28.0634C25.2147 28.0205 25.5333 27.8277 25.7705 27.4777C25.7908 27.4491 25.8315 27.442 25.8586 27.4634L25.8857 27.492C25.8857 27.492 25.9129 27.5491 25.8925 27.5705C25.5943 27.9705 25.2418 28.1848 24.835 28.2134C24.1843 28.2634 23.7437 27.6991 23.7843 27.042C23.8318 26.3134 24.1301 25.7777 24.6859 25.4348C25.2011 25.1134 25.8451 25.2205 26.1705 25.792C26.245 25.9205 26.2586 26.0563 26.2179 26.1848C26.1569 26.3563 25.9739 26.4491 25.8112 26.392C25.8044 26.392 25.7976 26.392 25.7908 26.3848C25.5875 26.292 25.54 26.1063 25.6485 25.8348C25.7434 25.5991 25.6688 25.4705 25.4248 25.4491L25.4384 25.4348Z" fill="white"/>
</g>
<circle cx="20" cy="20" r="19.5" stroke="black" stroke-opacity="0.05"/>
<defs>
<clipPath id="clip0_22307_36400">
<rect width="25" height="17" fill="white" transform="translate(7 11.2632)"/>
</clipPath>
</defs>
</svg>
