<svg width="40" height="40" viewBox="0 0 40 40" fill="none" xmlns="http://www.w3.org/2000/svg">
<circle cx="20" cy="20" r="20" fill="#483091"/>
<path d="M34.2044 16.0553C34.5483 15.7096 34.8712 15.3845 35.1942 15.0595C35.3709 14.8816 35.5726 14.7963 35.7766 14.9925C35.9889 15.1966 35.8851 15.398 35.7102 15.5696C35.2559 16.0155 34.7978 16.4576 34.3413 16.9012C34.3531 16.9391 34.3649 16.9769 34.3767 17.0148C34.5291 17.0237 34.6814 17.0393 34.8338 17.0402C35.3893 17.0434 35.9449 17.0441 36.5004 17.0407C36.7572 17.0392 36.9961 17.0727 36.9999 17.3968C37.0037 17.7161 36.7773 17.7682 36.5136 17.7667C35.7813 17.7626 35.0489 17.7653 34.1863 17.7653C34.6764 18.3244 35.0884 18.7944 35.5503 19.3214C35.6892 19.1553 35.7795 18.9749 35.9249 18.8952C36.0535 18.8248 36.3055 18.7995 36.3898 18.8772C36.481 18.9612 36.5149 19.2376 36.4441 19.3423C36.2519 19.6267 36.0114 19.8895 35.7461 20.1073C35.6541 20.1829 35.3634 20.1672 35.282 20.0811C34.6639 19.4271 34.0752 18.7452 33.4558 18.0479C33.8542 17.8864 34.1078 17.6241 33.9484 17.2409C33.8658 17.0422 33.5967 16.843 33.3797 16.7973C33.0905 16.7365 32.8504 16.9398 32.7758 17.2505C32.6808 17.6459 32.8951 17.8786 33.2811 18.0513C32.6694 18.7421 32.0844 19.4243 31.4664 20.0753C31.3827 20.1635 31.1337 20.0947 30.9612 20.0985C30.9653 19.9234 30.8993 19.6935 30.9857 19.5826C31.3521 19.1126 31.7647 18.6788 32.1582 18.2298C32.2646 18.1083 32.3632 17.98 32.538 17.7657C32.2874 17.7657 32.1302 17.7657 31.9731 17.7657C26.6123 17.7657 21.2515 17.7657 15.8907 17.7656C15.7658 17.7656 15.6192 17.8055 15.5208 17.754C15.3716 17.6759 15.1751 17.5522 15.1436 17.4147C15.0871 17.1677 15.2827 17.0494 15.5269 17.0436C15.6518 17.0407 15.7769 17.0415 15.9018 17.0415C21.221 17.0414 26.5401 17.0414 31.8592 17.0414C32.023 17.0414 32.1869 17.0414 32.483 17.0414C32.0475 16.5976 31.6953 16.2385 31.3428 15.8797C31.226 15.7609 31.0651 15.6619 31.0026 15.5195C30.9361 15.368 30.9624 15.1757 30.9481 15.0012C31.1331 15.0071 31.3829 14.938 31.4915 15.0321C31.9312 15.413 32.3272 15.8444 32.7402 16.2563C32.7969 16.3128 32.8588 16.3641 33.0177 16.5076C33.0177 16.115 33.0175 15.8226 33.0178 15.5302C33.018 15.1553 33.017 14.7803 33.0197 14.4053C33.0215 14.1662 33.1284 13.9512 33.3761 14.0097C33.5168 14.043 33.7004 14.2732 33.7086 14.4233C33.7448 15.0853 33.7243 15.7504 33.7243 16.511C33.9162 16.3292 34.0498 16.2026 34.2044 16.0553Z" fill="#FAFAFC"/>
<path d="M9.62988 19.3197C9.62988 17.6968 9.62988 16.1152 9.62988 14.5007C11.1142 14.5007 12.5764 14.5007 14.0611 14.5007C14.0611 14.846 14.0611 15.1882 14.0611 15.5784C13.0047 15.5784 11.9582 15.5784 10.8867 15.5784C10.8867 16.0077 10.8867 16.3898 10.8867 16.8107C11.7938 16.8107 12.7042 16.8107 13.65 16.8107C13.65 17.1997 13.65 17.5515 13.65 17.9482C12.7453 17.9482 11.8367 17.9482 10.8945 17.9482C10.8945 18.3836 10.8945 18.7758 10.8945 19.2008C11.9408 19.2008 12.9776 19.2008 14.0487 19.2008C14.0487 19.5842 14.0487 19.9363 14.0487 20.32C12.5939 20.32 11.1305 20.32 9.62988 20.32C9.62988 19.9938 9.62988 19.6773 9.62988 19.3197Z" fill="#FCFCFD"/>
<path d="M29.6725 23.5082C29.6724 24.241 29.6724 24.9342 29.6724 25.6609C29.4496 25.6609 29.2515 25.6609 29.0205 25.6609C29.0205 24.3882 29.0205 23.1209 29.0205 21.8592C29.4381 21.734 29.6988 21.881 29.9411 22.2189C30.4569 22.9381 31.0177 23.6251 31.646 24.311C31.646 23.4925 31.646 22.674 31.646 21.84C31.9 21.84 32.0909 21.84 32.3175 21.84C32.3175 23.0972 32.3175 24.3526 32.3175 25.6363C32.0283 25.7576 31.7862 25.7264 31.5619 25.4231C30.9859 24.644 30.3832 23.8846 29.7226 23.0283C29.6981 23.2432 29.6853 23.3559 29.6725 23.5082Z" fill="#F3F2F8"/>
<path d="M4.40848 24.035C3.96132 23.896 3.55511 23.7522 3.3604 23.31C3.11431 22.7513 3.36175 22.0842 3.94272 21.8539C4.64893 21.574 5.32154 21.713 5.99155 22.1117C5.88099 22.2862 5.78642 22.4354 5.68202 22.6001C5.44074 22.525 5.21169 22.4252 4.97286 22.3878C4.75975 22.3544 4.52183 22.3459 4.32146 22.4099C4.18076 22.4548 3.99583 22.6366 3.99155 22.7628C3.98637 22.9155 4.11405 23.1472 4.24935 23.2152C4.55467 23.3687 4.90293 23.4345 5.22855 23.5505C5.9087 23.7927 6.16764 24.1499 6.10332 24.7354C6.04227 25.291 5.607 25.6896 4.97125 25.7718C4.32149 25.8559 3.68963 25.6872 3.19043 25.2787C3.29051 25.1258 3.39313 24.9691 3.46477 24.8596C3.91969 24.9668 4.32698 25.0894 4.74329 25.152C5.05445 25.1988 5.34707 25.0821 5.40587 24.7303C5.46841 24.3561 5.17527 24.2365 4.88499 24.1494C4.73926 24.1056 4.58827 24.0794 4.40848 24.035Z" fill="#F7F5FA"/>
<path d="M33.4881 25.554C33.3442 25.4711 33.2287 25.4028 33.0791 25.3143C33.1999 25.1223 33.2998 24.9636 33.3629 24.8634C33.8372 24.9698 34.2579 25.0928 34.6874 25.1508C34.9787 25.1901 35.252 25.0732 35.3078 24.7329C35.3662 24.3765 35.1076 24.2478 34.8288 24.1604C34.5123 24.061 34.1798 24.0023 33.8766 23.8733C33.3183 23.6358 33.121 23.2583 33.1975 22.6819C33.2597 22.2137 33.615 21.8404 34.1358 21.7539C34.741 21.6533 35.32 21.7419 35.8786 22.1098C35.7793 22.2799 35.6854 22.4408 35.612 22.5666C35.2144 22.4875 34.8562 22.3817 34.4923 22.3556C34.2358 22.3372 33.9435 22.3985 33.886 22.7368C33.8251 23.0948 34.0763 23.2252 34.3558 23.3154C34.6455 23.409 34.9439 23.4783 35.2282 23.5853C35.8127 23.8052 36.0648 24.1805 36.0123 24.7119C35.9615 25.2264 35.5732 25.6986 35.0206 25.7297C34.5238 25.7576 34.0183 25.6284 33.4881 25.554Z" fill="#F7F6FA"/>
<path d="M14.9651 21.8244C15.1393 21.8237 15.2746 21.8237 15.452 21.8237C15.452 22.6513 15.4412 23.4389 15.4553 24.2261C15.4675 24.9125 16.0741 25.3336 16.7285 25.1312C17.1495 25.0011 17.375 24.6843 17.3801 24.177C17.3877 23.4151 17.3821 22.653 17.3821 21.8574C17.6029 21.8574 17.8017 21.8574 18.0239 21.8574C18.0239 22.7653 18.0997 23.6947 18.0012 24.6051C17.9141 25.4095 17.0937 25.8747 16.2055 25.7822C15.3819 25.6965 14.8063 25.1183 14.7837 24.3129C14.7632 23.5779 14.7723 22.8419 14.7834 22.1065C14.7848 22.012 14.8764 21.9189 14.9651 21.8244Z" fill="#F8F7FB"/>
<path d="M19.9206 23.4075C19.9206 23.0894 19.9206 22.813 19.9206 22.4808C19.5176 22.4808 19.1385 22.4808 18.7344 22.4808C18.7344 22.2397 18.7344 22.0541 18.7344 21.8457C19.7602 21.8457 20.7789 21.8457 21.8218 21.8457C21.8218 22.0448 21.8218 22.2303 21.8218 22.4542C21.4286 22.4542 21.0594 22.4542 20.6451 22.4542C20.6451 23.5378 20.6451 24.5847 20.6451 25.6622C20.3981 25.6622 20.1959 25.6622 19.9206 25.6622C19.9206 24.9316 19.9206 24.1904 19.9206 23.4075Z" fill="#F6F5FA"/>
<path d="M12.1084 21.8256C12.1942 21.9522 12.2803 22.0771 12.2823 22.2032C12.2947 23.0089 12.2877 23.8149 12.2896 24.6208C12.2899 24.756 12.3024 24.8911 12.3114 25.0695C12.9831 25.0695 13.6289 25.0695 14.2902 25.0695C14.2902 25.2912 14.2902 25.4668 14.2902 25.6672C13.4036 25.6672 12.5344 25.6672 11.6367 25.6672C11.6367 24.3995 11.6367 23.1422 11.6367 21.8245C11.7772 21.8245 11.9236 21.8245 12.1084 21.8256Z" fill="#FAF9FC"/>
<path d="M22.5771 23.2404C22.5771 22.7566 22.5771 22.3145 22.5771 21.8479C22.813 21.8479 23.0129 21.8479 23.2319 21.8479C23.2319 23.1176 23.2319 24.3766 23.2319 25.6649C23.0205 25.6649 22.8224 25.6649 22.5771 25.6649C22.5771 24.8563 22.5771 24.0692 22.5771 23.2404Z" fill="#F4F3F9"/>
<path fill-rule="evenodd" clip-rule="evenodd" d="M5.11403 20.4109C6.92144 20.8708 8.49828 19.6403 8.64708 17.6198C8.64577 17.5472 8.64539 17.4773 8.64503 17.4095C8.6441 17.2364 8.64325 17.0766 8.62711 16.9183C8.49387 15.6114 7.56116 14.5663 6.33055 14.3354C5.1385 14.1117 3.95498 14.6751 3.39392 15.8305C2.79773 17.0583 2.8707 18.285 3.66462 19.4204C4.0158 19.9227 4.5104 20.2573 5.11403 20.4109ZM4.54787 18.6065C4.03019 17.7496 4.09781 15.9157 5.43675 15.4853C5.44611 15.4832 5.45543 15.4812 5.46472 15.4793C5.46615 15.4788 5.46758 15.4784 5.46901 15.4779C6.17917 15.322 6.69536 15.575 7.07938 16.1245C7.07938 16.1245 7.07938 16.1245 7.07939 16.1245C7.41476 16.6043 7.51391 17.3378 7.37956 17.9664C7.32543 18.2197 7.2334 18.456 7.10365 18.6519C6.47369 19.6027 5.26371 19.6208 4.60459 18.6932C4.59557 18.6805 4.58669 18.6675 4.57796 18.6542C4.56772 18.6387 4.55769 18.6228 4.54787 18.6065Z" fill="#FBFAFD"/>
<path fill-rule="evenodd" clip-rule="evenodd" d="M26.4986 21.7446C25.5974 21.5847 24.7617 22.0078 24.2735 22.8913C23.9106 23.7975 24.0777 24.6368 24.7211 25.2415C25.3303 25.8142 26.2621 25.9611 26.9996 25.6006C27.841 25.1894 28.28 24.3711 28.1528 23.4513C28.0365 22.6104 27.3425 21.8944 26.4986 21.7446ZM27.0514 24.7952C27.0232 24.8229 26.9951 24.8506 26.9679 24.8791C26.9617 24.8832 26.9555 24.8873 26.9493 24.8914C26.9471 24.8935 26.945 24.8956 26.9428 24.8977C26.3846 25.2686 25.8416 25.2799 25.3266 24.9046C24.8102 24.5283 24.6646 23.988 24.809 23.3851C24.944 22.8212 25.3218 22.4766 25.894 22.3617C25.9441 22.3516 25.9943 22.3447 26.0445 22.3409C26.519 22.3049 26.9916 22.542 27.2632 22.957C27.5768 23.4364 27.5631 24.1506 27.2242 24.607C27.1737 24.675 27.1126 24.7351 27.0514 24.7952Z" fill="#F7F6FA"/>
<path fill-rule="evenodd" clip-rule="evenodd" d="M10.7482 24.1454C10.9543 23.1141 10.4133 22.2183 9.30575 21.7986C8.4057 21.5862 7.66972 21.8192 7.12148 22.5179C6.61501 23.1634 6.54636 23.8987 6.89849 24.6356C7.25122 25.3737 7.86934 25.7624 8.68957 25.7924C9.69548 25.8293 10.5501 25.1367 10.7482 24.1454ZM9.82946 24.5641C9.78545 24.6345 9.74145 24.705 9.70203 24.7768C9.69642 24.7809 9.69081 24.7851 9.68522 24.7892C9.68343 24.7922 9.68164 24.7952 9.67986 24.7982C9.0723 25.2449 8.52825 25.2891 8.00415 24.9538C7.97906 24.9377 7.95461 24.9208 7.93081 24.9032C7.5034 24.5864 7.28729 24.0208 7.39103 23.4692C7.4947 22.9179 7.93746 22.4758 8.49788 22.3639C8.88451 22.2867 9.2576 22.393 9.54848 22.6099C9.98586 22.9361 10.2374 23.5123 10.0695 24.0905C10.059 24.1267 10.0462 24.1623 10.0317 24.1975C9.97939 24.3241 9.90442 24.4441 9.82946 24.5641Z" fill="#F7F6FA"/>
<circle cx="20" cy="20" r="19.5" stroke="black" stroke-opacity="0.05"/>
</svg>
