<svg width="40" height="40" viewBox="0 0 40 40" fill="none" xmlns="http://www.w3.org/2000/svg">
<circle cx="20" cy="20" r="20" fill="#F6F8FA"/>
<g clip-path="url(#clip0_22307_36394)">
<path d="M24.2316 9.26318H24.4575L23.9633 10.8398C23.9633 10.8398 23.9633 10.941 24.0198 10.97C26.3779 11.9824 28.0865 13.6314 29.1456 15.9312C30.6 19.0699 30.2329 22.845 28.2984 25.6366C26.6039 28.0666 24.274 29.4407 21.2945 29.7734C20.645 29.8457 20.0095 29.8168 19.4165 29.6866C19.3176 29.6721 19.2752 29.7011 19.2611 29.8023L19.1058 31.2776H18.894L18.6963 29.8312C18.6822 29.7155 18.5975 29.6143 18.4845 29.5853C13.9941 28.5295 10.7464 24.4216 11.0005 19.634C11.0005 19.5472 10.9441 19.4604 10.8593 19.4315L8.04932 18.5058V18.231L11.0147 18.7951C11.0147 18.7951 11.0853 18.7951 11.0853 18.7372C11.9749 12.6767 17.6796 8.82926 23.4126 10.7675C23.4832 10.7819 23.5256 10.7675 23.5538 10.7096L24.2316 9.27765V9.26318ZM15.0249 13.1107C15.0249 13.1107 15.0955 13.1974 15.1238 13.2264C15.1661 13.2553 15.2226 13.2553 15.2509 13.2264C17.256 11.6498 19.4447 11.0567 21.8028 11.4473C22.1559 11.5051 22.5089 11.6064 22.876 11.7366C22.9607 11.7655 23.0313 11.7366 23.0737 11.6642L23.3279 11.2158C23.3279 11.2158 23.342 11.0712 23.2714 11.0278C23.2714 11.0278 23.2573 11.0278 23.2432 11.0278C21.7181 10.5505 20.3061 10.4348 18.9787 10.6951C14.9684 11.4617 11.9607 14.5571 11.3677 18.7372C11.3677 18.7951 11.3818 18.824 11.4383 18.824H12.0172C12.0172 18.824 12.1019 18.824 12.1019 18.7661C12.4408 16.6833 13.3446 14.9621 14.8131 13.6024C14.8696 13.5446 14.8837 13.4578 14.8272 13.3855C14.7566 13.2842 14.7566 13.1974 14.8272 13.1107C14.8696 13.0673 14.9402 13.0673 14.9826 13.1107C14.9826 13.1107 14.9826 13.1107 14.9967 13.1251L15.0249 13.1107ZM23.5679 11.7655C23.6244 11.5775 23.6809 11.4183 23.7515 11.2882C23.7656 11.2448 23.7515 11.2014 23.7091 11.1869H23.6809H23.5538C23.5538 11.1869 23.4267 11.2303 23.3985 11.2882C22.6783 12.6767 21.704 14.1521 20.4614 15.0344C19.36 15.8155 18.2303 15.8878 17.0724 15.2658C16.4511 14.9331 15.9428 14.4992 15.5191 13.964C15.0814 13.3999 14.9543 13.4578 15.1379 14.1665C15.2226 14.5137 15.2932 14.8464 15.3215 15.179C15.3779 15.8733 15.3073 16.5242 15.0955 17.1172C14.7425 18.0863 14.0506 18.6504 13.0339 18.824C12.1161 18.9831 11.0853 18.9542 9.94149 18.7517C9.91324 18.7517 9.885 18.7661 9.885 18.7951C9.885 18.7951 9.885 18.7951 9.885 18.8095V18.8674C9.89912 18.9542 9.94149 18.9976 10.0121 19.0265C11.1417 19.4026 12.1161 19.8799 12.9633 20.4729C14.1918 21.3408 14.5872 22.4979 14.1353 23.9588C14.093 24.089 14.0365 24.2336 13.98 24.3638C13.9094 24.494 13.8529 24.6241 13.7964 24.7543C13.6835 25.0147 13.7399 25.0725 13.98 24.9279C14.6437 24.5518 15.3073 24.494 15.971 24.7688C16.5782 25.0147 17.0865 25.4486 17.4678 26.0561C17.7079 26.4322 17.9055 26.8227 18.0609 27.2566C18.428 28.2257 18.6822 29.2527 18.8234 30.3085C18.8234 30.3953 18.8799 30.4387 18.9787 30.4387C19.0493 30.4387 19.0776 30.4098 19.1058 30.3519C19.1482 30.1928 19.1199 30.0193 19.1482 29.8457C19.3317 28.5728 19.6847 27.4446 20.2213 26.4755C20.4331 26.085 20.7438 25.7379 21.1533 25.4052C21.5063 25.1159 21.9158 24.9568 22.3677 24.9423C22.8054 24.9279 23.2432 24.9713 23.6668 25.1014C24.2457 25.2606 24.8812 25.5209 25.5731 25.868C25.7566 25.9693 25.8131 25.9114 25.7284 25.7089C25.686 25.6222 25.6437 25.5498 25.5872 25.4775C25.1494 24.9713 24.7964 24.3927 24.5281 23.7707C24.2881 23.2211 24.1751 22.6715 24.2034 22.1218C24.2316 21.5433 24.4293 21.0081 24.8105 20.5308C25.6437 19.4749 26.8863 18.7083 28.0865 18.1731C28.143 18.1442 28.1713 18.1008 28.1571 18.0429V17.9561C28.1289 17.8694 28.0865 17.8404 28.0018 17.8549C27.55 17.9272 27.0981 17.9995 26.6462 18.0719C26.2226 18.1297 25.799 18.1731 25.3754 18.1731C24.5281 18.1876 23.7091 18.2165 23.0313 17.6669C22.9043 17.5512 22.876 17.392 22.8054 17.2474C22.7489 17.1317 22.7207 17.016 22.7066 16.8858C22.6642 16.1915 22.6783 15.613 22.7631 15.1356C22.9466 14.0798 23.2008 12.966 23.5538 11.8089L23.5679 11.7655ZM23.808 11.346L23.6385 11.8523C23.6385 11.8523 23.6385 11.968 23.695 11.9969C26.1379 13.0817 27.7759 14.9476 28.609 17.5945C28.609 17.6235 28.6373 17.6235 28.6514 17.6235L29.3009 17.4499C29.3009 17.4499 29.3433 17.421 29.3292 17.392C28.4537 14.5281 26.6604 12.4887 23.9774 11.2737C23.8786 11.2303 23.8221 11.2737 23.7939 11.3605L23.808 11.346ZM28.8349 17.9272C28.8349 17.9272 28.7361 18.014 28.7502 18.0863C30.0493 23.8286 25.3613 29.4118 19.6 28.6307C19.5294 28.6307 19.4871 28.6596 19.4588 28.732L19.3459 29.2671C19.3317 29.3394 19.3458 29.3973 19.4306 29.3973C23.0878 30.0048 26.7451 27.8786 28.5243 24.6965C29.7104 22.5702 30.0211 20.2704 29.4562 17.826C29.4421 17.7537 29.3998 17.7247 29.3292 17.7537L28.8208 17.9417L28.8349 17.9272ZM13.5281 25.1159C13.5281 25.0291 13.4999 24.9423 13.4575 24.87C12.5114 23.4236 12.0313 21.8036 12.0031 20.039C12.0031 20.0101 11.989 19.9811 11.9607 19.9667C11.6642 19.8076 11.4524 19.7063 11.2971 19.6485C11.2829 19.6485 11.2688 19.6485 11.2688 19.6629C11.2265 20.1547 11.2265 20.6176 11.2688 21.0226C11.7772 25.1448 14.5589 28.3414 18.5127 29.2816C18.4845 28.9923 18.428 28.7175 18.3292 28.4571C18.3292 28.4282 18.3009 28.4137 18.2727 28.3993C16.4511 27.8786 14.9402 26.8516 13.7541 25.3039C13.7258 25.275 13.6976 25.2461 13.6552 25.2461H13.5987C13.5987 25.2461 13.4999 25.1738 13.4999 25.1159H13.5281Z" fill="#095F3F"/>
<path d="M18.9506 23.1923C20.1204 23.1923 21.0687 22.2209 21.0687 21.0227C21.0687 19.8244 20.1204 18.853 18.9506 18.853C17.7808 18.853 16.8325 19.8244 16.8325 21.0227C16.8325 22.2209 17.7808 23.1923 18.9506 23.1923Z" fill="#095F3F"/>
</g>
<circle cx="20" cy="20" r="19.5" stroke="black" stroke-opacity="0.05"/>
<defs>
<clipPath id="clip0_22307_36394">
<rect width="22" height="22" fill="white" transform="translate(8.03516 9.26318)"/>
</clipPath>
</defs>
</svg>
