<svg width="40" height="40" viewBox="0 0 40 40" fill="none" xmlns="http://www.w3.org/2000/svg">
<circle cx="20" cy="20" r="20" fill="#13639E"/>
<g clip-path="url(#clip0_18553_55856)">
<path d="M30.6249 17.4594C29.8124 19.303 29.0298 21.0986 28.2845 22.8461C28.2621 22.8942 28.2249 22.9183 28.1801 22.9183H27.6211C27.5615 22.9183 27.5466 22.8862 27.569 22.8301C28.3367 21.0666 29.0671 19.3752 29.7752 17.7399C29.887 17.4834 30.0211 17.2189 30.1553 16.9704C30.364 16.5776 30.7292 16.3291 31.154 16.305C31.8099 16.265 32.1975 16.5936 32.4658 17.1788C32.5329 17.3151 32.6075 17.4513 32.6671 17.5876C33.4199 19.3351 34.1801 21.0746 34.9329 22.8141C34.9627 22.8862 34.9404 22.9183 34.8658 22.9183H34.3665C34.2994 22.9183 34.2472 22.8862 34.2174 22.8221C33.5168 21.2429 32.8385 19.6397 32.1453 18.0365C32.0485 17.8201 31.9367 17.6277 31.8547 17.3952C31.7056 16.9784 31.2211 16.8501 30.8783 17.0906C30.7888 17.1547 30.7068 17.275 30.6249 17.4674V17.4594Z" fill="white"/>
<path d="M6.86335 21.0909C6.86335 21.0909 6.81863 21.107 6.81863 21.139V24.2573C6.81863 24.2573 6.79627 24.3054 6.77391 24.3054H5.06708C5.06708 24.3054 5.02236 24.2893 5.02236 24.2573C5.01491 24.1611 5.00745 24.0729 5.00745 23.9767C5.00745 22.093 5.00745 20.1691 5 18.1972C5 17.8044 5 17.5559 5.02981 17.4597C5.14907 16.8425 5.6559 16.3936 6.25963 16.3936C7.16894 16.3936 8.11553 16.3936 9.09938 16.3936C9.44969 16.3936 9.71801 16.4176 9.9118 16.4737C10.6646 16.7062 11.2012 17.4837 11.2311 18.3254C11.2534 19.0629 10.9851 19.6481 10.4186 20.097C10.3963 20.113 10.3888 20.1531 10.4037 20.1771C10.4037 20.1771 10.4112 20.1851 10.4186 20.1932C10.9925 20.602 11.3354 21.1631 11.3876 21.9166C11.4547 22.9827 10.8957 23.8885 9.97143 24.2092C9.75528 24.2813 9.41988 24.3134 8.97267 24.3054C8.4882 24.2974 7.97391 24.2974 7.42981 24.3054C7.4 24.3054 7.38509 24.2813 7.38509 24.2573V22.6781C7.38509 22.6781 7.39255 22.6461 7.40745 22.6461C7.75776 22.6461 8.10807 22.6461 8.45838 22.6461C8.90559 22.6461 9.28571 22.4537 9.33043 21.9166C9.3677 21.5318 9.06211 21.1471 8.7118 21.107C8.54037 21.0909 8.36149 21.0829 8.18261 21.0749C7.71304 21.0749 7.28075 21.0749 6.86335 21.0749V21.0909ZM9.18882 19.0388C9.37515 18.5739 9.08447 18.0849 8.61491 18.0689C8.12298 18.0529 7.63106 18.0529 7.13913 18.0689C7.11677 18.0689 7.10186 18.0689 7.0795 18.093C6.89317 18.2372 6.81118 18.4216 6.81118 18.6942C6.81118 18.9427 6.81118 19.1831 6.81118 19.4076C6.81118 19.4316 6.82609 19.4477 6.84845 19.4477C7.36273 19.4477 7.91429 19.4477 8.51801 19.4477C8.86087 19.4477 9.08447 19.3194 9.18882 19.0549V19.0388Z" fill="white"/>
<path d="M14.2124 21.1386V24.2569C14.2124 24.2569 14.19 24.305 14.1677 24.305H12.4683C12.4683 24.305 12.4236 24.2809 12.4236 24.2569C12.4236 22.2609 12.4236 20.2649 12.4236 18.2609C12.4236 17.812 12.431 17.5394 12.4459 17.4593C12.5428 16.9543 12.9602 16.5214 13.4372 16.4252C13.4969 16.4092 13.713 16.4092 14.0782 16.4092C15.1515 16.4092 16.359 16.4092 17.7006 16.4092C17.7155 16.4092 17.723 16.4172 17.723 16.4332V17.9883C17.723 17.9883 17.7006 18.0525 17.6633 18.0525C16.6944 18.0525 15.7702 18.0525 14.8832 18.0525C14.5404 18.0525 14.2422 18.1807 14.2199 18.6056C14.205 18.8621 14.205 19.1266 14.2199 19.3992C14.2199 19.4152 14.2348 19.4312 14.2497 19.4312H17.6857C17.6857 19.4312 17.723 19.4553 17.723 19.4793V21.0585C17.723 21.0825 17.7155 21.0905 17.6931 21.0905H14.2646C14.2646 21.0905 14.2199 21.1066 14.2199 21.1467L14.2124 21.1386Z" fill="white"/>
<path d="M24.9975 17.9326H26.0857C26.0857 17.9326 26.1379 17.9166 26.1379 17.8845V16.4336C26.1379 16.4336 26.1528 16.4016 26.1677 16.4016H26.682C26.7193 16.3936 26.7416 16.4096 26.7416 16.4497V24.2493C26.7416 24.2493 26.7267 24.2974 26.7044 24.2974C25.2211 24.2974 23.6038 24.2974 21.8448 24.2974C21.1516 24.2974 20.6 23.6881 20.6 22.9507C20.6 22.117 20.6 21.3394 20.6 20.602C20.6 20.5619 20.6224 20.5378 20.6597 20.5378H21.1441C21.1888 20.5378 21.2112 20.5539 21.2112 20.602V21.7723C21.2112 21.7723 21.2336 21.8204 21.2559 21.8204H26.0932C26.0932 21.8204 26.1379 21.8044 26.1379 21.7723V18.6461C26.1379 18.6461 26.1156 18.598 26.0932 18.598H24.9677C24.9677 18.598 24.9454 18.614 24.9454 18.63V20.121C24.9454 20.121 24.923 20.1691 24.9007 20.1691C23.1566 20.1691 21.3528 20.1691 19.4895 20.1691C19.3926 20.1691 19.2957 20.1691 19.1988 20.1531C19.1615 20.1531 19.1466 20.129 19.1466 20.0889V18.0128C19.1466 17.9647 19.169 17.9406 19.2137 17.9406H23.0298C23.0298 17.9406 23.0671 17.9246 23.0671 17.9006V17.115C23.0671 17.0749 23.0373 17.0429 23 17.0429H19.1913C19.1913 17.0429 19.1541 17.0268 19.1541 17.0028L19.1392 16.4417C19.1392 16.4417 19.1541 16.4016 19.1764 16.4016H23.6485C23.6485 16.4016 23.6857 16.4176 23.6857 16.4417V18.5419C23.6857 18.5899 23.6634 18.606 23.6261 18.606H19.8025C19.8025 18.606 19.7727 18.63 19.7727 18.6461V19.4477C19.7727 19.4958 19.7951 19.5278 19.8472 19.5278H24.2969C24.3342 19.5278 24.3566 19.5118 24.3566 19.4637V16.4497C24.3566 16.4497 24.3715 16.3936 24.4013 16.3936H24.8857C24.8857 16.3936 24.9454 16.4176 24.9454 16.4577V17.8765C24.9454 17.8765 24.9677 17.9326 24.9975 17.9326ZM21.2708 23.2232C21.3975 23.5278 21.651 23.6561 21.9491 23.6561C23.2758 23.6561 24.6621 23.6561 26.1081 23.6561C26.123 23.6561 26.1379 23.64 26.1379 23.624V22.5338C26.1379 22.5338 26.1081 22.4697 26.0783 22.4697H21.2485C21.2485 22.4697 21.2038 22.4938 21.2038 22.5178C21.2261 22.7503 21.1814 22.9988 21.2708 23.2232Z" fill="white"/>
<path d="M34.9554 23.6558H27.5467C27.522 23.6558 27.502 23.6773 27.502 23.7039V24.257C27.502 24.2835 27.522 24.3051 27.5467 24.3051H34.9554C34.9801 24.3051 35.0001 24.2835 35.0001 24.257V23.7039C35.0001 23.6773 34.9801 23.6558 34.9554 23.6558Z" fill="white"/>
</g>
<circle cx="20" cy="20" r="19.5" stroke="black" stroke-opacity="0.05"/>
<defs>
<clipPath id="clip0_18553_55856">
<rect width="30" height="8" fill="white" transform="translate(5 16.3052)"/>
</clipPath>
</defs>
</svg>
