<svg width="40" height="40" viewBox="0 0 40 40" fill="none" xmlns="http://www.w3.org/2000/svg">
<circle cx="20" cy="20" r="20" fill="#FEB415"/>
<path d="M17.3633 30.855C15.4532 30.4785 14.4454 29.9785 13.2523 28.8153C12.2149 27.8037 11.5199 26.4904 11.1887 24.9153C10.878 23.4389 10.9721 16.1069 11.3169 14.9189C11.9127 12.8658 13.1888 11.1676 14.8293 10.245C16.2945 9.42099 17.5777 9.0926 19.6234 9.01782C21.6524 8.94386 22.9912 9.09601 24.3126 9.55066C27.5051 10.6493 29.3724 13.3764 28.9375 16.3048C28.5165 19.1409 26.5964 20.8053 22.3956 21.9756C19.922 22.6648 17.4565 23.4252 17.1002 23.6091C16.1462 24.1012 15.6622 24.8264 15.8389 25.499C16.1597 26.7205 17.2959 27.3751 19.2691 27.4753C21.7557 27.6017 23.1327 26.7871 23.7032 24.852L23.8237 24.4434L26.1786 24.406L28.5336 24.3689L28.454 24.7466C28.0436 26.6929 27.4247 27.9139 26.345 28.906C24.8615 30.2694 22.9879 30.8939 20.1028 30.9867C18.915 31.0248 18.003 30.9811 17.3633 30.855ZM17.7911 19.8043C21.2881 18.7624 21.7647 18.6076 22.2944 18.3437C23.7491 17.6185 24.3701 16.6968 24.2411 15.4542C24.1254 14.3386 23.5364 13.5292 22.4314 12.9675C21.4337 12.4604 19.4708 12.3747 18.366 12.7902C17.0393 13.289 16.1018 14.5099 15.8005 16.1313C15.638 17.0046 15.5946 20.0513 15.7425 20.1984C15.8935 20.3485 16.0956 20.3097 17.7911 19.8043Z" fill="white"/>
<circle cx="20" cy="20" r="19.5" stroke="black" stroke-opacity="0.05"/>
</svg>
