<svg width="40" height="40" viewBox="0 0 40 40" fill="none" xmlns="http://www.w3.org/2000/svg">
<circle cx="20" cy="20" r="20" fill="#FD2046"/>
<g clip-path="url(#clip0_18553_55894)">
<path d="M24.4812 28.8857C23.3468 29.4559 22.3042 29.7835 21.3599 29.8752C21.2616 29.8818 21.1698 29.8949 21.0714 29.9015C20.9206 29.9146 20.7698 29.9342 20.6189 29.9604C20.4222 29.9998 20.1206 30.0063 19.7075 29.9801C17.2484 29.8294 15.1304 28.9578 13.3534 27.3654C11.8386 26.0089 10.8353 24.3313 10.3435 22.3261C10.2058 21.756 10.1075 21.1859 10.0681 20.6092C10.0419 20.3143 10.0419 20.026 10.055 19.7442C10.0681 19.469 10.0878 19.1806 10.1206 18.8857C10.1861 18.2239 10.3304 17.5555 10.5665 16.8805C10.5927 16.8084 10.6255 16.7363 10.6648 16.6708C10.6911 16.6249 10.7042 16.5791 10.7173 16.5332C10.7763 16.2973 10.9271 15.9434 11.1763 15.4716C11.5698 14.718 11.9042 14.1872 12.173 13.8792C12.3435 13.6826 12.5075 13.4925 12.6648 13.3025C12.8353 13.0994 13.0189 12.9028 13.2288 12.7062C15.2484 10.8451 18.0025 9.82282 20.7239 10.026C21.6878 10.0981 22.5993 10.3012 23.4648 10.6289C26.114 11.6446 28.0091 13.427 29.1566 15.9631C30.2714 18.4401 30.3304 20.9827 29.3402 23.604C29.1435 24.1282 28.8419 24.6393 28.5927 25.1112C28.5271 25.2357 28.4222 25.3012 28.3763 25.4192C28.3304 25.5306 28.2583 25.6223 28.1599 25.7009C28.1337 25.7206 28.1271 25.7403 28.1271 25.7665C28.1271 25.8582 28.0878 25.9303 28.0157 25.9893C27.8058 26.1597 27.6353 26.3497 27.5042 26.5594C27.3468 26.815 26.9534 27.2344 26.6976 27.3851C26.4681 27.5161 26.2648 27.6996 26.0812 27.9421C26.0419 27.9945 25.9894 28.0273 25.9239 28.0273C25.8976 28.0273 25.878 28.0404 25.8517 28.0535C25.478 28.3353 25.0255 28.6105 24.4878 28.8792L24.4812 28.8857ZM21.3009 12.2999C21.3009 11.6118 20.7435 11.0548 20.055 11.0548C19.3665 11.0548 18.8091 11.6118 18.8091 12.2999C18.8091 12.988 19.3665 13.545 20.055 13.545C20.7435 13.545 21.3009 12.988 21.3009 12.2999ZM18.8943 20.8451C19.0583 20.832 19.2288 20.7992 19.3534 20.9434C20.2714 22.0116 21.1763 23.0666 22.0616 24.102C22.1009 24.1479 22.1468 24.1675 22.1993 24.1675H24.0353C24.0747 24.1675 24.1075 24.1413 24.1075 24.0954C24.1075 24.0758 24.1075 24.0627 24.0878 24.043L20.573 20.0129C20.5402 19.9735 20.5402 19.9211 20.573 19.8818L23.6484 16.0941C23.6747 16.0614 23.6681 16.0155 23.6353 15.9827C23.6222 15.9696 23.6025 15.9631 23.5894 15.9631H21.8321C21.7665 15.9631 21.7075 15.9893 21.6681 16.0351L19.2419 19.0299C18.9468 19.3969 18.796 19.3444 18.796 18.8726V16.0024C18.796 15.9303 18.737 15.8713 18.6648 15.8713H17.2616C17.2091 15.8713 17.1698 15.9172 17.1698 15.9696V24.1151C17.1698 24.1151 17.1763 24.161 17.2091 24.161H18.6976C18.7501 24.161 18.796 24.1151 18.796 24.0627L18.7894 20.95C18.7894 20.8844 18.8222 20.8451 18.8878 20.8386L18.8943 20.8451ZM14.0353 17.6013C14.0353 16.9133 13.478 16.3628 12.796 16.3628C12.114 16.3628 11.5566 16.9198 11.5566 17.6013C11.5566 18.2829 12.114 18.8399 12.796 18.8399C13.478 18.8399 14.0353 18.2829 14.0353 17.6013ZM28.5402 17.6013C28.5402 16.9198 27.9829 16.3628 27.3009 16.3628C26.6189 16.3628 26.0616 16.9198 26.0616 17.6013C26.0616 18.2829 26.6189 18.8399 27.3009 18.8399C27.9829 18.8399 28.5402 18.2829 28.5402 17.6013ZM16.7698 26.14C16.7698 25.4519 16.2124 24.8949 15.5239 24.8949C14.8353 24.8949 14.278 25.4519 14.278 26.14C14.278 26.8281 14.8353 27.3851 15.5239 27.3851C16.2124 27.3851 16.7698 26.8281 16.7698 26.14ZM25.7993 26.14C25.7993 25.4519 25.2419 24.8949 24.5534 24.8949C23.8648 24.8949 23.3075 25.4519 23.3075 26.14C23.3075 26.8281 23.8648 27.3851 24.5534 27.3851C25.2419 27.3851 25.7993 26.8281 25.7993 26.14Z" fill="white"/>
</g>
<circle cx="20" cy="20" r="19.5" stroke="black" stroke-opacity="0.05"/>
<defs>
<clipPath id="clip0_18553_55894">
<rect width="20" height="20" fill="white" transform="translate(10.0352 10)"/>
</clipPath>
</defs>
</svg>
