<svg width="40" height="40" viewBox="0 0 40 40" fill="none" xmlns="http://www.w3.org/2000/svg">
<circle cx="20" cy="20" r="20" fill="#02419A"/>
<path d="M12.3037 21.7185C12.3038 21.7149 12.3032 21.7114 12.302 21.7081C12.3007 21.7048 12.2988 21.7018 12.2963 21.6992C12.2939 21.6966 12.2909 21.6946 12.2877 21.6932C12.2844 21.6918 12.2809 21.6911 12.2774 21.6911L11.8305 21.6916C11.8056 21.6916 11.7931 21.7041 11.7931 21.729L11.7958 24.9137C11.7958 24.9231 11.7921 24.9321 11.7855 24.9387C11.7788 24.9453 11.7699 24.949 11.7605 24.949C9.36263 24.9437 6.90473 24.9437 4.38684 24.949C3.94509 24.9497 3.58386 24.9455 3.30316 24.9364C3.20281 24.9332 3.10895 24.8973 3.02158 24.8285C3.00719 24.8173 3 24.8025 3 24.7843V19.2869C3 19.269 3.00842 19.2574 3.02526 19.2522L10.0663 17.0069C10.0842 17.001 10.097 16.9894 10.1047 16.9722C10.211 16.7301 10.2163 16.448 10.3774 16.2248C10.6377 15.8641 10.8995 15.5692 11.1626 15.3401C11.7958 14.789 12.5974 14.289 13.3884 13.8943C15.1726 13.0031 17.0516 12.3992 19.0252 12.0827C19.5337 12.0011 20.0742 11.9522 20.5689 11.9474C20.8861 11.9446 21.2542 11.9743 21.6731 12.0364C21.9998 12.0848 22.2991 12.1803 22.571 12.3227C22.6602 12.3694 22.7361 12.4287 22.7989 12.5006C22.9616 12.6859 23.1563 12.8985 23.1595 13.1564C23.1619 13.3845 23.1335 13.5638 23.0742 13.6943C22.9633 13.9396 22.8256 14.1606 22.661 14.3574C22.5961 14.4353 22.537 14.5094 22.4837 14.5796C22.4806 14.5835 22.4786 14.5881 22.4777 14.5929C22.4768 14.5978 22.4771 14.6028 22.4785 14.6076C22.48 14.6123 22.4825 14.6166 22.486 14.6202C22.4894 14.6237 22.4937 14.6264 22.4984 14.628C22.7619 14.7167 23.0296 14.805 23.3016 14.8927C24.757 15.3615 26.2317 15.8399 27.7258 16.328C28.0626 16.4378 28.4165 16.5511 28.7873 16.668C28.8754 16.6957 28.9645 16.7327 29.0547 16.779C29.2326 16.8711 29.4494 16.8832 29.6421 16.9438C32.0582 17.7052 34.4487 18.462 36.8136 19.2143C36.9035 19.2427 36.9498 19.3039 36.9526 19.398C36.9926 20.7848 36.9526 22.1927 36.971 23.5332C36.9773 23.9901 36.98 24.4595 37 24.9137C37.0002 24.918 36.9995 24.9223 36.9981 24.9263C36.9966 24.9303 36.9944 24.934 36.9914 24.9371C36.9885 24.9402 36.985 24.9427 36.9812 24.9444C36.9773 24.9461 36.9731 24.9469 36.9689 24.9469C36.3029 24.9462 35.6422 24.9466 34.9868 24.948C34.3336 24.9495 33.6826 24.9985 33.0073 24.9669C32.7024 24.9529 32.4072 24.946 32.1215 24.9464C30.3766 24.9488 28.7324 24.9483 27.1889 24.9448C26.8033 24.9441 26.4158 24.9537 26.0263 24.9737C25.6947 24.9906 24.9644 24.9855 23.8352 24.9585C22.6931 24.9311 21.5521 24.9495 20.4026 24.9448C20.0612 24.9437 19.7121 24.9511 19.3552 24.9669C18.7795 24.9922 18.2005 24.9459 17.6184 24.9464C15.8602 24.9467 14.1035 24.9469 12.3484 24.9469C12.342 24.9469 12.3358 24.9444 12.3313 24.9398C12.3268 24.9353 12.3242 24.9291 12.3242 24.9227L12.3231 23.7053C12.3232 23.7002 12.3248 23.6952 12.3277 23.6909C12.3306 23.6866 12.3347 23.6833 12.3394 23.6814C12.3442 23.6794 12.3494 23.6789 12.3545 23.6799C12.3596 23.6809 12.3642 23.6833 12.3679 23.6869C12.484 23.803 12.6372 23.8616 12.8274 23.8627C13.38 23.8648 13.5647 23.5285 13.5863 23.0185C13.6014 22.6641 13.5902 22.3973 13.5526 22.218C13.4905 21.9201 13.3131 21.7439 13.0205 21.6895C12.7444 21.6383 12.5212 21.6952 12.351 21.8601C12.3467 21.8642 12.3412 21.867 12.3353 21.868C12.3293 21.8691 12.3232 21.8683 12.3177 21.8659C12.3122 21.8635 12.3075 21.8595 12.3043 21.8544C12.301 21.8494 12.2994 21.8435 12.2995 21.8374L12.3037 21.7185ZM11.8142 15.2617C11.3116 15.629 10.4005 16.3911 10.4642 17.069C10.5279 17.7448 11.7258 17.9011 12.2247 17.9232C13.0075 17.9587 13.8507 17.8902 14.7542 17.718C16.1623 17.4495 17.5437 17.0201 18.8984 16.4295C19.4938 16.1702 20.0933 15.8597 20.6968 15.498C21.3603 15.1001 21.8965 14.682 22.3052 14.2438C22.5363 13.9964 22.791 13.6422 22.8321 13.2938C22.8968 12.7496 22.231 12.4911 21.8052 12.4032C21.4205 12.3238 21.0184 12.2874 20.6295 12.2932C19.7947 12.3052 18.9138 12.4162 17.9868 12.6264C16.2356 13.0229 14.6289 13.6167 13.1668 14.408C12.6903 14.6659 12.2395 14.9504 11.8142 15.2617ZM5.83421 22.0732C5.38421 22.0111 5.39737 21.4706 5.8021 21.3822C6.07298 21.3229 6.32596 21.3769 6.56105 21.5443C6.57087 21.5513 6.58017 21.5504 6.58894 21.5416L6.91368 21.2227C6.91528 21.2211 6.91655 21.2191 6.91739 21.217C6.91823 21.2148 6.91864 21.2125 6.91859 21.2102C6.91854 21.2079 6.91804 21.2057 6.9171 21.2035C6.91617 21.2014 6.91483 21.1995 6.91315 21.198C6.71947 21.0239 6.48719 20.9206 6.21631 20.888C5.60526 20.8148 4.93842 21.0627 4.95842 21.7932C4.97737 22.4943 5.54842 22.5706 6.09947 22.6322C6.30579 22.6548 6.47157 22.7769 6.45526 23.0043C6.44193 23.1867 6.34789 23.2974 6.17315 23.3364C5.81175 23.4167 5.49596 23.3529 5.22579 23.1448C5.21035 23.1329 5.19579 23.1338 5.1821 23.1474L4.8721 23.4595C4.86851 23.4632 4.86569 23.4675 4.86382 23.4723C4.86194 23.477 4.86105 23.4821 4.8612 23.4872C4.86135 23.4924 4.86253 23.4974 4.86468 23.502C4.86682 23.5067 4.86988 23.5108 4.87368 23.5143C5.07859 23.7006 5.31877 23.8109 5.59421 23.8453C5.96315 23.8911 6.34263 23.8711 6.65526 23.6574C6.91842 23.4785 7.02736 23.1822 6.99842 22.869C6.93368 22.1764 6.37315 22.1474 5.83421 22.0732ZM21.5163 22.7053C21.5389 22.969 21.45 23.229 21.1868 23.3274C20.8373 23.4585 20.4937 23.2864 20.4642 22.8927C20.4445 22.6281 20.4393 22.342 20.4484 22.0343C20.4573 21.7269 20.5352 21.4011 20.911 21.3769C21.2195 21.3573 21.4137 21.4925 21.4937 21.7827C21.4986 21.7999 21.5102 21.8085 21.5284 21.8085H22.04C22.0441 21.8085 22.0481 21.8076 22.0518 21.8059C22.0555 21.8041 22.0587 21.8015 22.0612 21.7983C22.0638 21.7951 22.0655 21.7914 22.0664 21.7874C22.0673 21.7834 22.0673 21.7793 22.0663 21.7753C21.9312 21.2087 21.5828 20.9095 21.021 20.878C20.4242 20.8448 19.9326 21.2411 19.8958 21.8553C19.8758 22.1855 19.8745 22.5195 19.8921 22.8574C19.9114 23.2273 20.0633 23.5046 20.3479 23.6895C20.6452 23.8827 21.0689 23.918 21.3868 23.7964C21.837 23.6241 22.0638 23.2764 22.0673 22.7532C22.0688 22.5887 22.0696 22.4208 22.07 22.2495C22.07 22.2281 22.0593 22.2174 22.0379 22.2174L20.9879 22.2164C20.9791 22.2164 20.9745 22.2209 20.9742 22.2301L20.9726 22.6632C20.9726 22.6716 20.9768 22.6759 20.9852 22.6759L21.4847 22.6764C21.504 22.6764 21.5145 22.686 21.5163 22.7053ZM27.0194 21.8906C27.0194 21.6244 26.9137 21.3691 26.7255 21.1809C26.5372 20.9927 26.282 20.8869 26.0158 20.8869H25.8663C25.6001 20.8869 25.3448 20.9927 25.1566 21.1809C24.9684 21.3691 24.8626 21.6244 24.8626 21.8906V22.8506C24.8626 23.1168 24.9684 23.3721 25.1566 23.5603C25.3448 23.7485 25.6001 23.8543 25.8663 23.8543H26.0158C26.282 23.8543 26.5372 23.7485 26.7255 23.5603C26.9137 23.3721 27.0194 23.1168 27.0194 22.8506V21.8906ZM14.1047 23.1927C14.1042 23.7595 14.4963 23.8743 14.9784 23.839C15.0103 23.8369 15.0263 23.8197 15.0263 23.7874L15.0258 23.4422C15.0258 23.4109 15.0103 23.3969 14.9795 23.4001C14.8652 23.4116 14.6305 23.4269 14.6305 23.2464C14.6316 22.4387 14.6314 21.6655 14.63 20.9269C14.63 20.9202 14.6274 20.9138 14.6227 20.909C14.6181 20.9043 14.6118 20.9016 14.6053 20.9016L14.1216 20.9022C14.117 20.9022 14.1125 20.904 14.1093 20.9073C14.106 20.9105 14.1042 20.9149 14.1042 20.9195C14.1045 21.6659 14.1047 22.4236 14.1047 23.1927ZM23.2584 23.3443C23.2518 23.3443 23.2455 23.3417 23.2409 23.337C23.2363 23.3324 23.2337 23.3261 23.2337 23.3195L23.2358 20.9264C23.2358 20.9198 23.2332 20.9135 23.2285 20.9089C23.2239 20.9043 23.2176 20.9016 23.211 20.9016H22.6973C22.6908 20.9016 22.6845 20.9043 22.6799 20.9089C22.6752 20.9135 22.6726 20.9198 22.6726 20.9264V23.8174C22.6726 23.824 22.6752 23.8303 22.6799 23.8349C22.6845 23.8396 22.6908 23.8422 22.6973 23.8422L24.5537 23.8432C24.5569 23.8432 24.5601 23.8426 24.5631 23.8413C24.5661 23.8401 24.5689 23.8383 24.5712 23.836C24.5735 23.8337 24.5753 23.831 24.5765 23.828C24.5778 23.825 24.5784 23.8217 24.5784 23.8185L24.581 23.3716C24.581 23.3684 24.5804 23.3652 24.5791 23.3622C24.5779 23.3592 24.5761 23.3565 24.5738 23.3542C24.5715 23.3519 24.5688 23.35 24.5658 23.3488C24.5628 23.3475 24.5595 23.3469 24.5563 23.3469L23.2584 23.3443ZM29.3821 22.3527C29.3787 22.3511 29.3758 22.3486 29.3737 22.3455C29.3717 22.3424 29.3705 22.3388 29.3703 22.335C29.3701 22.3313 29.371 22.3276 29.3728 22.3243C29.3746 22.321 29.3773 22.3183 29.3805 22.3164C29.6142 22.179 29.74 21.9269 29.7205 21.658C29.6821 21.1274 29.2842 20.9011 28.7989 20.9022C28.4144 20.9032 28.0342 20.9031 27.6584 20.9016C27.6552 20.9016 27.6521 20.9023 27.6491 20.9035C27.6462 20.9047 27.6435 20.9065 27.6413 20.9087C27.639 20.911 27.6372 20.9137 27.636 20.9166C27.6348 20.9195 27.6342 20.9227 27.6342 20.9259L27.6347 23.819C27.6347 23.8221 27.6353 23.8251 27.6365 23.8279C27.6376 23.8307 27.6393 23.8332 27.6415 23.8354C27.6436 23.8375 27.6462 23.8392 27.649 23.8404C27.6518 23.8416 27.6548 23.8422 27.6579 23.8422C28.0193 23.8418 28.3966 23.8422 28.79 23.8432C29.391 23.8448 29.8221 23.5359 29.7552 22.8901C29.731 22.6559 29.5926 22.4574 29.3821 22.3527ZM31.3305 21.808C31.3322 21.8028 31.3355 21.7984 31.3399 21.7952C31.3443 21.792 31.3496 21.7903 31.355 21.7903C31.3604 21.7903 31.3657 21.792 31.3701 21.7952C31.3744 21.7984 31.3777 21.8028 31.3794 21.808L32.0458 23.8253C32.0475 23.8304 32.0508 23.8348 32.0551 23.8379C32.0594 23.841 32.0646 23.8427 32.07 23.8427L32.6005 23.8459C32.6047 23.8459 32.6087 23.8449 32.6124 23.8429C32.6161 23.841 32.6193 23.8382 32.6217 23.8348C32.6241 23.8314 32.6256 23.8275 32.6261 23.8233C32.6266 23.8192 32.6261 23.815 32.6247 23.8111L31.5673 20.9185C31.5655 20.9135 31.5622 20.9093 31.5579 20.9063C31.5535 20.9033 31.5484 20.9016 31.5431 20.9016L31.1373 20.9022C31.1321 20.9022 31.1269 20.9038 31.1226 20.9068C31.1183 20.9098 31.115 20.9141 31.1131 20.919L30.0621 23.8074C30.0606 23.8113 30.0602 23.8155 30.0607 23.8197C30.0612 23.8238 30.0627 23.8277 30.0651 23.8311C30.0675 23.8345 30.0707 23.8373 30.0743 23.8392C30.078 23.8412 30.0821 23.8422 30.0863 23.8422L30.6158 23.8432C30.6211 23.8432 30.6263 23.8415 30.6306 23.8384C30.635 23.8353 30.6382 23.8309 30.64 23.8259L31.3305 21.808ZM33.6036 23.3453C33.5979 23.3453 33.5924 23.3431 33.5884 23.339C33.5843 23.335 33.5821 23.3295 33.5821 23.3237V20.9232C33.5821 20.9204 33.5815 20.9176 33.5804 20.915C33.5793 20.9124 33.5778 20.91 33.5758 20.908C33.5737 20.906 33.5714 20.9044 33.5687 20.9033C33.5661 20.9022 33.5633 20.9016 33.5605 20.9016L33.0452 20.9027C33.0424 20.9027 33.0396 20.9033 33.037 20.9043C33.0344 20.9054 33.032 20.907 33.03 20.909C33.028 20.911 33.0264 20.9134 33.0253 20.916C33.0242 20.9186 33.0237 20.9214 33.0237 20.9243L33.0242 23.8211C33.0242 23.8268 33.0264 23.8323 33.0305 23.8364C33.0345 23.8404 33.04 23.8427 33.0458 23.8427H34.9005C34.9062 23.8427 34.9117 23.8404 34.9157 23.8364C34.9198 23.8323 34.9221 23.8268 34.9221 23.8211V23.3664C34.9221 23.3607 34.9198 23.3552 34.9157 23.3511C34.9117 23.3471 34.9062 23.3448 34.9005 23.3448L33.6036 23.3453ZM10.4142 21.8495L10.42 21.7306C10.4202 21.7255 10.4194 21.7204 10.4175 21.7156C10.4157 21.7108 10.4129 21.7065 10.4093 21.7028C10.4057 21.6991 10.4014 21.6962 10.3966 21.6942C10.3919 21.6922 10.3868 21.6911 10.3816 21.6911H9.94631C9.91929 21.6911 9.90578 21.7046 9.90578 21.7316L9.90631 23.819C9.90631 23.8352 9.91438 23.8432 9.93052 23.8432L10.4084 23.8437C10.4116 23.8437 10.4147 23.8431 10.4177 23.8419C10.4206 23.8407 10.4233 23.8389 10.4255 23.8367C10.4278 23.8344 10.4296 23.8317 10.4308 23.8288C10.432 23.8259 10.4326 23.8227 10.4326 23.8195C10.4347 23.4059 10.4346 22.9801 10.4321 22.5422C10.43 22.1943 10.7916 21.9911 11.0558 22.249C11.0599 22.2531 11.0655 22.2554 11.0713 22.2554C11.0771 22.2554 11.0827 22.2531 11.0868 22.249L11.4468 21.8895C11.4503 21.8861 11.4529 21.8819 11.4547 21.8773C11.4564 21.8728 11.4572 21.8679 11.457 21.863C11.4568 21.8582 11.4557 21.8534 11.4535 21.849C11.4514 21.8446 11.4484 21.8406 11.4447 21.8374C11.161 21.5948 10.7116 21.629 10.46 21.8706C10.4562 21.8744 10.4513 21.8769 10.446 21.8778C10.4407 21.8788 10.4352 21.878 10.4302 21.8758C10.4253 21.8735 10.4211 21.8698 10.4183 21.8651C10.4154 21.8604 10.414 21.855 10.4142 21.8495ZM18.431 22.4985C18.2405 22.4716 18.1947 22.2422 18.3568 22.1459C18.5521 22.0306 18.901 22.1211 19.0737 22.2253C19.0771 22.2275 19.0811 22.2283 19.085 22.2279C19.089 22.2274 19.0926 22.2256 19.0952 22.2227L19.3952 21.9201C19.4002 21.9152 19.4 21.9104 19.3947 21.9059C19.1205 21.6838 18.7737 21.6516 18.4337 21.6832C18.16 21.7085 17.8779 21.8701 17.7942 22.1395C17.6937 22.4622 17.7968 22.8038 18.1552 22.9027C18.3005 22.9427 18.4552 22.9652 18.6195 22.9701C18.6974 22.9722 18.774 22.9871 18.8495 23.0148C18.9758 23.0611 18.9889 23.2227 18.9089 23.3122C18.87 23.3557 18.8205 23.3834 18.7605 23.3953C18.4524 23.4553 18.2023 23.4034 18.01 23.2395C18.0048 23.2351 17.9982 23.2327 17.9915 23.2329C17.9847 23.2331 17.9784 23.2358 17.9737 23.2406L17.661 23.549C17.6593 23.5507 17.658 23.5527 17.6571 23.555C17.6562 23.5572 17.6558 23.5596 17.6558 23.562C17.6559 23.5644 17.6564 23.5668 17.6574 23.569C17.6584 23.5712 17.6598 23.5732 17.6616 23.5748C17.9595 23.8527 18.3268 23.8853 18.7147 23.8574C19.1705 23.8248 19.5584 23.5243 19.4537 23.0195C19.3473 22.5059 18.8252 22.5538 18.431 22.4985ZM8.7621 23.6864C8.76947 23.7215 8.76999 23.7569 8.76368 23.7927C8.75842 23.8222 8.77069 23.8371 8.80052 23.8374L9.23999 23.8443C9.26596 23.8446 9.27894 23.832 9.27894 23.8064L9.27841 21.7185C9.27841 21.7006 9.26929 21.6916 9.25105 21.6916L8.7921 21.6911C8.78795 21.6911 8.78385 21.6919 8.78001 21.6935C8.77618 21.6951 8.7727 21.6974 8.76977 21.7004C8.76684 21.7033 8.76451 21.7068 8.76292 21.7106C8.76134 21.7144 8.76052 21.7186 8.76052 21.7227C8.76333 22.1452 8.76333 22.5701 8.76052 22.9974C8.75894 23.2369 8.61157 23.409 8.36105 23.3932C8.13578 23.3788 8.02315 23.2413 8.02315 22.9806C8.0235 22.5462 8.02473 22.1215 8.02684 21.7064C8.02684 21.6966 8.02192 21.6916 8.0121 21.6916L7.5142 21.6911C7.50508 21.6911 7.50052 21.6957 7.50052 21.7048C7.49561 22.2525 7.49614 22.7311 7.5021 23.1406C7.50789 23.5643 7.7842 23.8616 8.21368 23.8648C8.41157 23.8662 8.58227 23.8027 8.72578 23.6743C8.74473 23.6571 8.75684 23.6611 8.7621 23.6864ZM16.7174 23.6969C16.7212 23.7285 16.7196 23.7599 16.7126 23.7911C16.7056 23.8237 16.7188 23.8402 16.7521 23.8406L17.1847 23.8432C17.2163 23.8436 17.2321 23.8278 17.2321 23.7959V21.7153C17.2321 21.6995 17.2242 21.6916 17.2084 21.6916H16.7363C16.7202 21.6916 16.7121 21.6997 16.7121 21.7159C16.7096 22.1429 16.71 22.5653 16.7131 22.9832C16.7147 23.1937 16.6042 23.3822 16.3747 23.3922C16.1042 23.4041 15.9702 23.2553 15.9726 22.9459C15.9758 22.5592 15.9763 22.146 15.9742 21.7064C15.9742 21.6966 15.9693 21.6916 15.9595 21.6916L15.4637 21.6906C15.4549 21.6906 15.4507 21.695 15.451 21.7038C15.4528 22.1574 15.4524 22.5969 15.45 23.0222C15.4489 23.1734 15.467 23.3039 15.5042 23.4138C15.6552 23.8595 16.1589 23.9659 16.5447 23.7722C16.5931 23.7474 16.63 23.709 16.6737 23.6774C16.6993 23.6588 16.7138 23.6653 16.7174 23.6969Z" fill="white"/>
<path d="M13.757 17.4254C13.3619 17.4542 12.9698 17.4628 12.5807 17.4512C12.1928 17.4396 11.3276 17.3096 11.2944 16.7975C11.2863 16.6733 11.2986 16.5647 11.3312 16.4717C11.4823 16.0402 11.946 15.6444 12.3154 15.3723C12.6358 15.1358 12.9679 14.9249 13.3118 14.7396C15.0497 13.8031 16.8995 13.1812 18.8612 12.8738C19.4767 12.7774 20.1254 12.7488 20.8075 12.7881C21.1533 12.8081 21.716 12.9207 21.9096 13.2338C22.1696 13.6533 21.7823 14.1675 21.4596 14.4375C21.1217 14.7196 20.7763 14.941 20.4233 15.1017C20.4121 15.107 20.4033 15.1042 20.397 15.0933L20.3896 15.0817C20.3878 15.0786 20.3872 15.0748 20.388 15.0712C20.3887 15.0676 20.3908 15.0644 20.3939 15.0623C20.817 14.7659 21.3512 14.3238 21.4539 13.8012C21.5065 13.5312 21.2254 13.2938 20.996 13.2096C20.7554 13.1212 20.546 13.1112 20.3091 13.0844C20.2049 13.0724 20.103 13.0688 20.0033 13.0733C19.3956 13.101 18.7454 13.197 18.0528 13.3612C16.5686 13.7131 15.1716 14.2505 13.8618 14.9733C13.6814 15.073 13.489 15.1931 13.2844 15.3338C12.8865 15.6081 12.0965 16.1796 12.1628 16.7365C12.1991 17.0407 12.5707 17.2133 12.8365 17.2712C13.2754 17.3666 13.7544 17.3809 14.2733 17.3138C14.2828 17.3128 14.2886 17.317 14.2907 17.3265L14.2933 17.3396C14.2944 17.3449 14.2925 17.3482 14.2875 17.3496C14.1651 17.383 13.9882 17.4082 13.757 17.4254Z" fill="white"/>
<path d="M18.2957 15.8631C17.2978 16.2551 16.2594 16.4426 15.1804 16.4258C15.0618 16.424 14.828 16.4012 14.4789 16.3573C14.2259 16.3254 13.9834 16.2695 13.7515 16.1895C13.7343 16.1835 13.7268 16.1747 13.7289 16.1631C13.7317 16.1498 13.7399 16.1437 13.7536 16.1447C14.2655 16.19 14.7583 16.177 15.232 16.1058C16.5075 15.9138 17.7632 15.5481 18.9994 15.0084C19.5252 14.7784 20.0825 14.4563 20.4773 14.0268C20.5362 13.9626 20.556 13.973 20.5367 14.0579C20.5311 14.0824 20.5225 14.1056 20.511 14.1273C20.321 14.4847 20.0731 14.7868 19.7483 15.0416C19.322 15.3763 18.8378 15.6502 18.2957 15.8631Z" fill="white"/>
<path d="M25.9692 21.3799H25.9155C25.6472 21.3799 25.4297 21.5974 25.4297 21.8657V22.8783C25.4297 23.1466 25.6472 23.3641 25.9155 23.3641H25.9692C26.2375 23.3641 26.455 23.1466 26.455 22.8783V21.8657C26.455 21.5974 26.2375 21.3799 25.9692 21.3799Z" fill="white"/>
<path d="M28.1985 21.4209C28.1985 21.4173 28.1993 21.4138 28.2008 21.4105C28.2022 21.4072 28.2043 21.4042 28.2069 21.4017C28.2094 21.3992 28.2125 21.3972 28.2158 21.3959C28.2192 21.3946 28.2228 21.394 28.2264 21.394L28.8043 21.3967C28.8509 21.3969 28.8971 21.4056 28.9402 21.4222C28.9832 21.4388 29.0223 21.463 29.0551 21.4935C29.088 21.5239 29.114 21.56 29.1316 21.5997C29.1493 21.6393 29.1582 21.6818 29.1579 21.7246V21.7751C29.1574 21.8614 29.1195 21.944 29.0526 22.0047C28.9857 22.0654 28.8953 22.0992 28.8011 22.0988L28.2227 22.0956C28.2154 22.0956 28.2085 22.0927 28.2033 22.0876C28.1982 22.0825 28.1953 22.0755 28.1953 22.0683L28.1985 21.4209Z" fill="white"/>
<path d="M12.7155 22.1419L12.6702 22.142C12.4813 22.1423 12.3284 22.2957 12.3287 22.4847L12.3297 23.0489C12.33 23.2378 12.4835 23.3907 12.6724 23.3904L12.7177 23.3903C12.9066 23.39 13.0595 23.2366 13.0592 23.0476L13.0582 22.4834C13.0579 22.2945 12.9044 22.1416 12.7155 22.1419Z" fill="white"/>
<path d="M28.1953 22.6284C28.1953 22.6213 28.1981 22.6145 28.2032 22.6094C28.2082 22.6044 28.215 22.6016 28.2222 22.6016H28.8343C28.9314 22.6016 29.0246 22.6387 29.0933 22.7047C29.162 22.7707 29.2006 22.8603 29.2006 22.9537V22.9926C29.2006 23.086 29.162 23.1756 29.0933 23.2416C29.0246 23.3076 28.9314 23.3447 28.8343 23.3447H28.2222C28.215 23.3447 28.2082 23.3419 28.2032 23.3369C28.1981 23.3318 28.1953 23.325 28.1953 23.3179V22.6284Z" fill="white"/>
<circle cx="20" cy="20" r="19.5" stroke="black" stroke-opacity="0.05"/>
</svg>
