<svg width="40" height="40" viewBox="0 0 40 40" fill="none" xmlns="http://www.w3.org/2000/svg">
<circle cx="20" cy="20" r="20" fill="#282969"/>
<path d="M6.2149 16.2594C6.2149 16.2475 6.21959 16.2362 6.22794 16.2279C6.23628 16.2195 6.24761 16.2148 6.25941 16.2148L8.23834 16.2184C8.46672 16.2184 8.69285 16.2635 8.90378 16.351C9.11471 16.4386 9.30629 16.5669 9.46755 16.7286C9.6288 16.8903 9.75657 17.0822 9.84352 17.2934C9.93047 17.5046 9.97489 17.7308 9.97425 17.9592V18.5539C9.97425 18.7822 9.9292 19.0083 9.84169 19.2192C9.75417 19.4301 9.62591 19.6217 9.46424 19.7829C9.30257 19.9442 9.11068 20.0719 8.89956 20.1589C8.68844 20.2459 8.46223 20.2904 8.23389 20.2898L6.25496 20.2862C6.24315 20.2862 6.23183 20.2815 6.22349 20.2732C6.21514 20.2648 6.21045 20.2535 6.21045 20.2417L6.2149 16.2594ZM7.48523 17.1718L7.48167 19.3466C7.48167 19.3514 7.48359 19.3561 7.48701 19.3595C7.49043 19.3629 7.49508 19.3648 7.49992 19.3648H7.9379C8.14028 19.3621 8.3333 19.2792 8.47453 19.1342C8.61576 18.9892 8.69363 18.7941 8.69101 18.5917V17.9294C8.69423 17.7274 8.61724 17.5323 8.4769 17.387C8.33657 17.2417 8.14434 17.1579 7.94235 17.154H7.50348C7.49871 17.154 7.49414 17.1559 7.49073 17.1592C7.48732 17.1625 7.48534 17.1671 7.48523 17.1718Z" fill="white"/>
<path d="M17.8383 18.6726C17.8864 19.2116 18.1966 19.5428 18.765 19.4324C19.1029 19.3674 19.2787 19.0474 19.3312 18.7336C19.332 18.7288 19.3338 18.7243 19.3363 18.7202C19.3389 18.7162 19.3422 18.7127 19.3462 18.7099C19.3501 18.7071 19.3545 18.7052 19.3592 18.7041C19.3639 18.7031 19.3688 18.7029 19.3735 18.7038H19.3779L20.4008 19.0109C20.4052 19.0123 20.4089 19.0154 20.4111 19.0194C20.4133 19.0235 20.4139 19.0282 20.4128 19.0327C20.2535 19.6732 19.8667 20.1682 19.211 20.3048C18.7325 20.4052 18.2364 20.3842 17.768 20.2438C17.2459 20.0916 16.8297 19.5739 16.6935 19.0603C16.6083 18.7184 16.5843 18.3641 16.6228 18.0139C16.718 17.0008 17.3728 16.4048 18.3845 16.3483C18.9364 16.3176 19.5164 16.3857 19.9174 16.7778C20.1288 16.9896 20.2842 17.2507 20.3696 17.5376C20.3704 17.5398 20.3707 17.5422 20.3705 17.5445C20.3703 17.5468 20.3697 17.5491 20.3686 17.5512C20.3675 17.5533 20.366 17.5551 20.3642 17.5566C20.3624 17.5581 20.3603 17.5592 20.3581 17.5599L19.3325 17.7882C19.3261 17.7896 19.3194 17.7887 19.3136 17.7857C19.3078 17.7827 19.3031 17.7777 19.3005 17.7717C19.2723 17.6957 19.2368 17.6225 19.1946 17.5532C19.0489 17.3419 18.8412 17.2412 18.5714 17.2509C17.8063 17.2799 17.7894 18.1256 17.8383 18.6726Z" fill="white"/>
<path d="M14.5466 18.8868V19.4725C14.5466 19.4791 14.5492 19.4855 14.5539 19.4902C14.5585 19.4948 14.5649 19.4975 14.5715 19.4975H16.0951C16.1017 19.4975 16.108 19.5001 16.1127 19.5048C16.1174 19.5094 16.12 19.5158 16.12 19.5224V20.2239C16.12 20.2305 16.1174 20.2368 16.1127 20.2415C16.108 20.2462 16.1017 20.2488 16.0951 20.2488H13.647C13.6404 20.2488 13.634 20.2462 13.6294 20.2415C13.6247 20.2368 13.6221 20.2305 13.6221 20.2239V16.9693C13.6221 16.9627 13.6247 16.9563 13.6294 16.9516C13.634 16.947 13.6404 16.9443 13.647 16.9443H16.0506C16.0572 16.9443 16.0635 16.947 16.0682 16.9516C16.0729 16.9563 16.0755 16.9627 16.0755 16.9693V17.6369C16.0755 17.6435 16.0729 17.6499 16.0682 17.6545C16.0635 17.6592 16.0572 17.6618 16.0506 17.6618H14.5706C14.564 17.6618 14.5576 17.6645 14.553 17.6691C14.5483 17.6738 14.5457 17.6802 14.5457 17.6868V18.1506C14.5457 18.1572 14.5483 18.1635 14.553 18.1682C14.5576 18.1729 14.564 18.1755 14.5706 18.1755L15.9371 18.1728C15.9437 18.1728 15.95 18.1754 15.9547 18.1801C15.9594 18.1848 15.962 18.1911 15.962 18.1977L15.9642 18.8351C15.9642 18.8417 15.9616 18.8481 15.9569 18.8528C15.9522 18.8574 15.9459 18.8601 15.9393 18.8601H14.5701C14.5668 18.8602 14.5636 18.8611 14.5606 18.8625C14.5576 18.8639 14.5549 18.866 14.5527 18.8685C14.5505 18.8709 14.5489 18.8738 14.5478 18.877C14.5467 18.8801 14.5463 18.8835 14.5466 18.8868Z" fill="white"/>
<path d="M21.904 18.1278H22.8151C22.8219 18.1278 22.8285 18.1251 22.8333 18.1203C22.8382 18.1154 22.8409 18.1089 22.8409 18.102V16.9893C22.8409 16.9824 22.8436 16.9758 22.8485 16.971C22.8533 16.9662 22.8599 16.9634 22.8667 16.9634L23.7244 16.9657C23.7313 16.9657 23.7378 16.9684 23.7427 16.9732C23.7475 16.9781 23.7502 16.9846 23.7502 16.9915V20.259C23.7502 20.2658 23.7475 20.2724 23.7427 20.2772C23.7378 20.2821 23.7313 20.2848 23.7244 20.2848H22.8663C22.8594 20.2848 22.8529 20.2821 22.848 20.2772C22.8432 20.2724 22.8405 20.2658 22.8405 20.259V18.9682C22.8405 18.9613 22.8377 18.9548 22.8329 18.9499C22.8281 18.9451 22.8215 18.9424 22.8146 18.9424H21.9022C21.8953 18.9424 21.8888 18.9451 21.8839 18.9499C21.8791 18.9548 21.8764 18.9613 21.8764 18.9682V20.2545C21.8764 20.2614 21.8736 20.2679 21.8688 20.2728C21.864 20.2776 21.8574 20.2803 21.8505 20.2803H20.9951C20.9882 20.2803 20.9816 20.2776 20.9768 20.2728C20.972 20.2679 20.9692 20.2614 20.9692 20.2545V16.9848C20.9692 16.978 20.972 16.9714 20.9768 16.9665C20.9816 16.9617 20.9882 16.959 20.9951 16.959H21.851C21.8578 16.959 21.8644 16.9617 21.8692 16.9665C21.8741 16.9714 21.8768 16.978 21.8768 16.9848L21.8795 18.094C21.8782 18.0979 21.8779 18.102 21.8785 18.106C21.8791 18.11 21.8807 18.1138 21.8831 18.1171C21.8855 18.1204 21.8886 18.1231 21.8922 18.125C21.8959 18.1268 21.8999 18.1278 21.904 18.1278Z" fill="white"/>
<path d="M26.3401 19.7411H25.3275C25.3236 19.7411 25.3199 19.7424 25.3169 19.7447C25.3138 19.7471 25.3116 19.7503 25.3105 19.754L25.169 20.2748C25.168 20.2785 25.1657 20.2817 25.1627 20.284C25.1596 20.2863 25.1559 20.2876 25.1521 20.2877H24.2374C24.2351 20.2877 24.2328 20.2873 24.2307 20.2865C24.2286 20.2856 24.2266 20.2843 24.225 20.2827C24.2234 20.2811 24.2221 20.2792 24.2212 20.277C24.2204 20.2749 24.22 20.2726 24.22 20.2703C24.2196 20.2684 24.2196 20.2664 24.22 20.2645L25.3328 16.9783C25.3339 16.9748 25.3361 16.9718 25.3391 16.9696C25.342 16.9675 25.3456 16.9663 25.3493 16.9663H26.3396C26.3432 16.9663 26.3468 16.9674 26.3497 16.9695C26.3527 16.9715 26.3549 16.9745 26.3561 16.9779L27.4689 20.2645C27.4696 20.2667 27.47 20.269 27.4698 20.2713C27.4697 20.2736 27.4692 20.2758 27.4682 20.2779C27.4672 20.28 27.4658 20.2818 27.4641 20.2833C27.4623 20.2849 27.4603 20.286 27.4582 20.2868H27.4519L26.5097 20.2837C26.5058 20.2836 26.5021 20.2823 26.4991 20.28C26.496 20.2777 26.4938 20.2744 26.4927 20.2708L26.3592 19.7531C26.3579 19.7492 26.3553 19.7459 26.3518 19.7437C26.3483 19.7415 26.3442 19.7406 26.3401 19.7411ZM25.5193 18.9969C25.5188 18.9986 25.5187 19.0005 25.5189 19.0023C25.5192 19.0041 25.5198 19.0058 25.5207 19.0074C25.5216 19.0089 25.5228 19.0103 25.5243 19.0114C25.5257 19.0125 25.5273 19.0133 25.5291 19.0138H25.5327H26.1376C26.1412 19.0138 26.1447 19.0123 26.1473 19.0097C26.1499 19.0072 26.1514 19.0036 26.1514 19C26.1516 18.9988 26.1516 18.9976 26.1514 18.9964L25.8509 17.8948C25.8505 17.893 25.8497 17.8913 25.8486 17.8898C25.8475 17.8884 25.8462 17.8871 25.8446 17.8862C25.843 17.8853 25.8412 17.8847 25.8394 17.8845C25.8376 17.8843 25.8357 17.8845 25.834 17.885C25.8316 17.8856 25.8295 17.8869 25.8278 17.8886C25.8261 17.8903 25.8248 17.8924 25.8242 17.8948L25.5193 18.9969Z" fill="white"/>
<path d="M29.8944 16.9679L30.7334 16.9644C30.7376 16.9644 30.7415 16.966 30.7444 16.9689C30.7474 16.9718 30.749 16.9758 30.749 16.9799V20.2706C30.749 20.2747 30.7474 20.2787 30.7444 20.2816C30.7415 20.2845 30.7376 20.2862 30.7334 20.2862H29.8877C29.885 20.2862 29.8824 20.2855 29.88 20.2842C29.8777 20.2829 29.8757 20.2809 29.8744 20.2786L28.8164 18.5325C28.8154 18.5307 28.814 18.5291 28.8123 18.5278C28.8107 18.5266 28.8088 18.5257 28.8068 18.5252C28.8048 18.5247 28.8027 18.5246 28.8007 18.5249C28.7987 18.5253 28.7967 18.526 28.795 18.5271C28.7927 18.5286 28.7907 18.5306 28.7894 18.533C28.7881 18.5354 28.7874 18.5382 28.7874 18.5409V20.2697C28.7874 20.2738 28.7858 20.2778 28.7829 20.2807C28.7799 20.2836 28.776 20.2853 28.7719 20.2853H27.9355C27.9314 20.2853 27.9274 20.2836 27.9245 20.2807C27.9216 20.2778 27.9199 20.2738 27.9199 20.2697V16.9813C27.9199 16.9771 27.9216 16.9732 27.9245 16.9703C27.9274 16.9673 27.9314 16.9657 27.9355 16.9657H28.7696C28.7723 16.9656 28.775 16.9663 28.7773 16.9677C28.7797 16.969 28.7816 16.9709 28.783 16.9733L29.8512 18.735C29.8522 18.7368 29.8536 18.7384 29.8552 18.7396C29.8569 18.7409 29.8588 18.7418 29.8608 18.7423C29.8628 18.7428 29.8648 18.7428 29.8669 18.7425C29.8689 18.7422 29.8709 18.7414 29.8726 18.7403C29.8749 18.739 29.8769 18.737 29.8782 18.7347C29.8795 18.7323 29.8802 18.7297 29.8802 18.727L29.8775 16.9826C29.8776 16.9805 29.8781 16.9785 29.879 16.9766C29.88 16.9747 29.8813 16.973 29.8828 16.9717C29.8844 16.9703 29.8862 16.9693 29.8882 16.9686C29.8902 16.968 29.8923 16.9677 29.8944 16.9679Z" fill="white"/>
<path d="M12.102 19.741H11.0979C11.0929 19.7411 11.088 19.7427 11.0841 19.7458C11.0802 19.7489 11.0773 19.7531 11.0761 19.758L10.9372 20.2712C10.9359 20.276 10.9331 20.2803 10.9292 20.2833C10.9252 20.2864 10.9204 20.288 10.9154 20.2881H10.0118C10.0058 20.2881 10 20.2857 9.99577 20.2814C9.99151 20.2772 9.98912 20.2714 9.98912 20.2654C9.98865 20.263 9.98865 20.2606 9.98912 20.2583L11.0979 16.9814C11.0994 16.9769 11.1024 16.9729 11.1063 16.9701C11.1102 16.9673 11.1149 16.9658 11.1197 16.9658H12.0989C12.1037 16.9658 12.1084 16.9673 12.1123 16.9701C12.1162 16.9729 12.1192 16.9769 12.1207 16.9814L13.2344 20.2565C13.2353 20.2593 13.2357 20.2622 13.2356 20.2652C13.2354 20.2682 13.2346 20.2711 13.2333 20.2737C13.2319 20.2764 13.2301 20.2787 13.2278 20.2807C13.2256 20.2826 13.223 20.2841 13.2201 20.285C13.2178 20.2854 13.2154 20.2854 13.213 20.285H12.2796C12.2746 20.2849 12.2698 20.2833 12.2659 20.2802C12.2619 20.2771 12.2591 20.2729 12.2578 20.268L12.1243 19.7557C12.1226 19.7512 12.1195 19.7474 12.1155 19.7448C12.1115 19.7421 12.1068 19.7408 12.102 19.741ZM11.2857 18.9933C11.2851 18.9954 11.2849 18.9976 11.2852 18.9998C11.2854 19.0019 11.2861 19.004 11.2872 19.0059C11.2883 19.0078 11.2897 19.0095 11.2915 19.0109C11.2932 19.0122 11.2952 19.0132 11.2973 19.0137H11.3017H11.8986C11.903 19.0137 11.9072 19.012 11.9103 19.0089C11.9133 19.0058 11.9151 19.0016 11.9151 18.9973C11.9153 18.9958 11.9153 18.9943 11.9151 18.9928L11.6186 17.9028C11.6181 17.9007 11.6172 17.8987 11.6159 17.8969C11.6146 17.8952 11.613 17.8937 11.6111 17.8926C11.6093 17.8915 11.6072 17.8907 11.6051 17.8904C11.6029 17.8901 11.6007 17.8902 11.5986 17.8907C11.5957 17.8914 11.593 17.8929 11.5909 17.895C11.5888 17.8972 11.5873 17.8998 11.5866 17.9028L11.2857 18.9933Z" fill="white"/>
<path d="M33.4864 19.118C33.4858 19.1066 33.4808 19.096 33.4725 19.0882C33.4642 19.0804 33.4533 19.0761 33.4419 19.0761L32.882 19.0801C32.8787 19.0802 32.8755 19.0796 32.8724 19.0784C32.8694 19.0772 32.8666 19.0754 32.8642 19.0732C32.8619 19.0709 32.86 19.0682 32.8587 19.0652C32.8574 19.0622 32.8567 19.0589 32.8566 19.0557V18.4245C32.8566 18.4219 32.8571 18.4194 32.8581 18.417C32.8591 18.4146 32.8605 18.4125 32.8624 18.4107C32.8642 18.4088 32.8663 18.4074 32.8687 18.4064C32.8711 18.4054 32.8736 18.4049 32.8762 18.4049H34.2956C34.298 18.4049 34.3003 18.4054 34.3024 18.4063C34.3045 18.4072 34.3065 18.4085 34.3081 18.4102C34.3097 18.4118 34.311 18.4138 34.3118 18.416C34.3127 18.4181 34.3131 18.4204 34.313 18.4227C34.313 18.8263 34.313 19.2573 34.313 19.7158C34.3127 19.7342 34.3078 19.7523 34.2989 19.7684C34.29 19.7845 34.2772 19.7982 34.2618 19.8083C33.6535 20.2582 32.9764 20.3917 32.2304 20.2089C31.3504 19.9939 31.106 18.9328 31.2725 18.157C31.41 17.5165 31.8404 17.0776 32.509 16.9997C32.7642 16.9721 33.0216 16.9721 33.2768 16.9997C33.7884 17.0508 34.1169 17.3345 34.2623 17.8508C34.2637 17.8558 34.2641 17.8611 34.2634 17.8663C34.2628 17.8715 34.2611 17.8766 34.2585 17.8811C34.2559 17.8857 34.2524 17.8897 34.2482 17.8929C34.2441 17.8961 34.2393 17.8984 34.2342 17.8997H34.2311L33.4068 18.0515C33.4005 18.0533 33.3939 18.0538 33.3874 18.053C33.3808 18.0522 33.3746 18.0501 33.3689 18.0469C33.3632 18.0437 33.3581 18.0393 33.3541 18.0342C33.3501 18.029 33.3471 18.0231 33.3453 18.0168C33.3161 17.9296 33.262 17.8529 33.1896 17.7961C33.1172 17.7394 33.0297 17.7052 32.9381 17.6977C32.4591 17.6482 32.2219 17.9531 32.1814 18.4049C32.1369 18.8977 32.193 19.5724 32.8548 19.5738C33.04 19.5718 33.2215 19.5222 33.3818 19.4296C33.5234 19.3539 33.4864 19.2515 33.4864 19.118Z" fill="white"/>
<path d="M35 21.1421V23.8666C35 23.8691 34.999 23.8714 34.9973 23.8732C34.9955 23.8749 34.9931 23.8759 34.9907 23.8759L5.03383 23.8804C5.02501 23.8803 5.01659 23.8767 5.01035 23.8705C5.00411 23.8642 5.00056 23.8558 5.00045 23.847L5 21.1875L34.9635 21.1919C34.9699 21.1926 34.9762 21.1907 34.9812 21.1867C34.9862 21.1827 34.9894 21.1769 34.9902 21.1706L35 21.1421ZM10.0194 21.8129C10.2277 21.7461 10.4645 21.8084 10.5091 22.0452C10.5108 22.0545 10.5158 22.0629 10.5233 22.0687C10.5308 22.0745 10.5401 22.0774 10.5496 22.0768L11.1963 22.0403C11.2261 22.0403 11.2381 22.0234 11.2328 21.9958C11.1764 21.6795 10.9804 21.4866 10.6448 21.4172C10.3034 21.3464 9.8681 21.3459 9.54273 21.5031C9.10964 21.7118 9.05712 22.2682 9.48976 22.5161C9.64817 22.608 9.82139 22.6716 10.0016 22.704C10.1881 22.7365 10.6417 22.8103 10.5731 23.06C10.5286 23.2163 10.3283 23.2537 10.1868 23.2381C9.97908 23.2167 9.85846 23.1011 9.82493 22.8913C9.82384 22.8842 9.82014 22.8777 9.81456 22.8731C9.80897 22.8685 9.80189 22.8661 9.79466 22.8664L9.127 22.8994C9.12342 22.8995 9.11989 22.9003 9.11663 22.9018C9.11337 22.9033 9.11045 22.9055 9.10804 22.9081C9.10563 22.9108 9.10379 22.9139 9.10261 22.9173C9.10143 22.9207 9.10095 22.9243 9.10119 22.9278C9.13546 23.3017 9.39139 23.5701 9.76884 23.64C10.2651 23.7317 11.0405 23.7264 11.2724 23.1589C11.4469 22.7311 11.1536 22.3964 10.7623 22.2811C10.5522 22.2191 10.3297 22.166 10.0947 22.1218C10.0326 22.1101 9.97439 22.083 9.92552 22.043C9.91004 22.0305 9.90012 22.0124 9.89792 21.9927C9.89405 21.9729 9.89412 21.9525 9.89813 21.9328C9.90215 21.913 9.91003 21.8942 9.92132 21.8775C9.93261 21.8608 9.94709 21.8465 9.96393 21.8354C9.98076 21.8243 9.99963 21.8166 10.0194 21.8129ZM31.2478 23.1112C31.2477 23.1058 31.2455 23.1007 31.2417 23.0969C31.2378 23.0931 31.2327 23.0909 31.2273 23.0908H30.0954C30.09 23.0906 30.0849 23.0884 30.081 23.0846C30.0772 23.0808 30.075 23.0757 30.0749 23.0703V21.4323C30.0748 21.4269 30.0726 21.4218 30.0688 21.4179C30.065 21.4141 30.0598 21.4119 30.0545 21.4118L29.3423 21.4083C29.3369 21.4084 29.3317 21.4106 29.3279 21.4144C29.3241 21.4182 29.3219 21.4233 29.3218 21.4287V23.6244C29.3219 23.6298 29.3241 23.635 29.3279 23.6388C29.3317 23.6426 29.3369 23.6448 29.3423 23.6449H31.2251C31.2305 23.6448 31.2356 23.6426 31.2394 23.6388C31.2432 23.635 31.2454 23.6298 31.2456 23.6244L31.2478 23.1112ZM15.2792 21.9909C15.2792 21.9833 15.2822 21.9761 15.2876 21.9708C15.2929 21.9654 15.3002 21.9624 15.3077 21.9624H16.0426C16.0501 21.9624 16.0574 21.9594 16.0627 21.9541C16.0681 21.9487 16.0711 21.9415 16.0711 21.9339L16.0737 21.4367C16.0737 21.4292 16.0707 21.4219 16.0654 21.4166C16.0601 21.4113 16.0528 21.4083 16.0453 21.4083H13.7076C13.7 21.4083 13.6928 21.4113 13.6874 21.4166C13.6821 21.4219 13.6791 21.4292 13.6791 21.4367V21.937C13.6791 21.9446 13.6821 21.9518 13.6874 21.9572C13.6928 21.9625 13.7 21.9655 13.7076 21.9655L14.4536 21.9611C14.4611 21.9611 14.4684 21.9641 14.4737 21.9694C14.479 21.9748 14.482 21.982 14.482 21.9896V23.6173C14.482 23.6249 14.485 23.6321 14.4904 23.6375C14.4957 23.6428 14.503 23.6458 14.5105 23.6458H15.2485C15.2561 23.6458 15.2633 23.6428 15.2687 23.6375C15.274 23.6321 15.277 23.6249 15.277 23.6173L15.2792 21.9909ZM19.6292 21.909C19.6293 21.9033 19.6317 21.8979 19.6358 21.8939C19.6399 21.8899 19.6453 21.8876 19.651 21.8876H20.8573C20.8631 21.8876 20.8686 21.8853 20.8727 21.8813C20.8768 21.8772 20.8791 21.8716 20.8791 21.8658L20.8818 21.4314C20.8818 21.4256 20.8795 21.4201 20.8754 21.416C20.8713 21.4119 20.8657 21.4096 20.8599 21.4096H18.8993C18.8935 21.4096 18.8879 21.4119 18.8838 21.416C18.8797 21.4201 18.8774 21.4256 18.8774 21.4314V23.6244C18.8774 23.6302 18.8797 23.6358 18.8838 23.6399C18.8879 23.6439 18.8935 23.6462 18.8993 23.6462H20.8924C20.8953 23.6462 20.8981 23.6457 20.9008 23.6446C20.9034 23.6435 20.9058 23.6419 20.9079 23.6399C20.9099 23.6378 20.9115 23.6354 20.9126 23.6328C20.9137 23.6301 20.9142 23.6273 20.9142 23.6244V23.1589C20.9142 23.156 20.9137 23.1532 20.9126 23.1505C20.9115 23.1479 20.9099 23.1455 20.9079 23.1434C20.9058 23.1414 20.9034 23.1398 20.9008 23.1387C20.8981 23.1376 20.8953 23.137 20.8924 23.137H19.6461C19.6404 23.137 19.6348 23.1347 19.6307 23.1307C19.6266 23.1266 19.6243 23.121 19.6243 23.1152L19.6283 22.7204C19.6283 22.7146 19.6306 22.7091 19.6347 22.705C19.6388 22.7009 19.6444 22.6986 19.6501 22.6986H20.7718C20.7776 22.6986 20.7831 22.6963 20.7872 22.6922C20.7913 22.6881 20.7936 22.6826 20.7936 22.6768V22.2673C20.7936 22.2615 20.7913 22.256 20.7872 22.2519C20.7831 22.2478 20.7776 22.2455 20.7718 22.2455H19.647C19.6442 22.2455 19.6413 22.2449 19.6387 22.2438C19.636 22.2427 19.6336 22.2411 19.6316 22.2391C19.6296 22.2371 19.628 22.2347 19.6269 22.232C19.6258 22.2294 19.6252 22.2266 19.6252 22.2237L19.6292 21.909ZM24.8886 23.1348C24.8851 23.1349 24.8817 23.1342 24.8785 23.1329C24.8752 23.1316 24.8723 23.1297 24.8699 23.1273C24.8674 23.1248 24.8655 23.1219 24.8642 23.1187C24.8629 23.1155 24.8623 23.112 24.8623 23.1086V22.7231C24.8623 22.7196 24.8629 22.7162 24.8642 22.713C24.8655 22.7098 24.8674 22.7068 24.8699 22.7044C24.8723 22.7019 24.8752 22.7 24.8785 22.6987C24.8817 22.6974 24.8851 22.6968 24.8886 22.6968H26.0138C26.0173 22.6969 26.0207 22.6963 26.0239 22.695C26.0271 22.6937 26.0301 22.6917 26.0325 22.6893C26.035 22.6868 26.0369 22.6839 26.0382 22.6807C26.0395 22.6775 26.0401 22.674 26.0401 22.6706V22.27C26.0401 22.2665 26.0395 22.2631 26.0382 22.2599C26.0369 22.2566 26.035 22.2537 26.0325 22.2513C26.0301 22.2488 26.0271 22.2469 26.0239 22.2456C26.0207 22.2443 26.0173 22.2437 26.0138 22.2437H24.889C24.8856 22.2438 24.8821 22.2431 24.8789 22.2418C24.8757 22.2405 24.8728 22.2386 24.8703 22.2362C24.8679 22.2337 24.8659 22.2308 24.8646 22.2276C24.8633 22.2244 24.8627 22.2209 24.8628 22.2175V21.9121C24.8627 21.9087 24.8633 21.9052 24.8646 21.902C24.8659 21.8988 24.8679 21.8959 24.8703 21.8934C24.8728 21.891 24.8757 21.889 24.8789 21.8877C24.8821 21.8864 24.8856 21.8858 24.889 21.8859H26.0979C26.1014 21.8859 26.1048 21.8853 26.108 21.884C26.1113 21.8827 26.1142 21.8808 26.1166 21.8783C26.1191 21.8759 26.121 21.8729 26.1223 21.8697C26.1236 21.8665 26.1242 21.8631 26.1242 21.8596V21.4336C26.1242 21.4302 26.1236 21.4267 26.1223 21.4235C26.121 21.4203 26.1191 21.4174 26.1166 21.4149C26.1142 21.4125 26.1113 21.4105 26.108 21.4092C26.1048 21.4079 26.1014 21.4073 26.0979 21.4074H24.1346C24.1311 21.4073 24.1277 21.4079 24.1245 21.4092C24.1212 21.4105 24.1183 21.4125 24.1159 21.4149C24.1134 21.4174 24.1115 21.4203 24.1102 21.4235C24.1089 21.4267 24.1082 21.4302 24.1083 21.4336V23.6146C24.1082 23.6181 24.1089 23.6215 24.1102 23.6248C24.1115 23.628 24.1134 23.6309 24.1159 23.6333C24.1183 23.6358 24.1212 23.6377 24.1245 23.639C24.1277 23.6403 24.1311 23.641 24.1346 23.6409L26.1375 23.6436C26.141 23.6436 26.1444 23.643 26.1477 23.6417C26.1509 23.6404 26.1538 23.6385 26.1562 23.636C26.1587 23.6336 26.1606 23.6306 26.1619 23.6274C26.1632 23.6242 26.1639 23.6208 26.1638 23.6173V23.1597C26.1639 23.1563 26.1632 23.1528 26.1619 23.1496C26.1606 23.1464 26.1587 23.1435 26.1562 23.141C26.1538 23.1386 26.1509 23.1367 26.1477 23.1354C26.1444 23.1341 26.141 23.1334 26.1375 23.1335L24.8886 23.1348Z" fill="#DFDFDF"/>
<path d="M10.5107 22.0454C10.4662 21.8086 10.2276 21.7463 10.0211 21.8131C9.98176 21.8211 9.94719 21.8443 9.9248 21.8776C9.90241 21.9109 9.89398 21.9516 9.90133 21.9911C9.90353 22.0108 9.91345 22.0289 9.92893 22.0414C9.9778 22.0814 10.036 22.1085 10.0981 22.1202C10.3328 22.1647 10.5553 22.2178 10.7657 22.2795C11.157 22.3948 11.4503 22.7295 11.2758 23.1573C11.0439 23.7248 10.2685 23.7301 9.77225 23.6384C9.39614 23.569 9.1402 23.3006 9.1046 22.9263C9.10397 22.9191 9.10618 22.9119 9.11076 22.9064C9.11533 22.9008 9.12191 22.8972 9.12908 22.8964L9.79673 22.8635C9.80396 22.8632 9.81105 22.8656 9.81663 22.8702C9.82222 22.8748 9.82591 22.8813 9.827 22.8884C9.85934 23.0979 9.97997 23.2135 10.1889 23.2352C10.3304 23.2503 10.5325 23.2129 10.5752 23.0571C10.6438 22.8083 10.1902 22.7344 10.0037 22.701C9.82346 22.6686 9.65025 22.6051 9.49184 22.5132C9.0592 22.2653 9.11172 21.7089 9.5448 21.5001C9.87017 21.343 10.3055 21.3435 10.6469 21.4142C10.9883 21.485 11.1783 21.6764 11.2349 21.9929C11.2402 22.0218 11.2282 22.0374 11.1984 22.0374L10.5516 22.0739C10.5425 22.0747 10.5334 22.0723 10.526 22.0671C10.5185 22.0619 10.5131 22.0542 10.5107 22.0454Z" fill="#1C1922"/>
<path d="M31.248 23.1115V23.6229C31.2478 23.6283 31.2457 23.6334 31.2418 23.6373C31.238 23.6411 31.2329 23.6433 31.2275 23.6434H29.3447C29.3393 23.6433 29.3342 23.6411 29.3303 23.6373C29.3265 23.6334 29.3243 23.6283 29.3242 23.6229V21.4272C29.3243 21.4218 29.3265 21.4167 29.3303 21.4129C29.3342 21.409 29.3393 21.4069 29.3447 21.4067L30.0569 21.4103C30.0623 21.4104 30.0674 21.4126 30.0712 21.4164C30.075 21.4202 30.0772 21.4254 30.0773 21.4308V23.0696C30.0775 23.075 30.0796 23.0802 30.0835 23.084C30.0873 23.0878 30.0924 23.09 30.0978 23.0901H31.2297C31.2351 23.0902 31.2402 23.0924 31.2441 23.0962C31.2479 23.1001 31.2501 23.1052 31.2502 23.1106L31.248 23.1115Z" fill="#1C1922"/>
<path d="M15.2791 21.9908V23.6159C15.2791 23.6235 15.2761 23.6307 15.2707 23.6361C15.2654 23.6414 15.2581 23.6444 15.2506 23.6444H14.5126C14.5051 23.6444 14.4978 23.6414 14.4925 23.6361C14.4871 23.6307 14.4841 23.6235 14.4841 23.6159V21.9882C14.4841 21.9806 14.4811 21.9734 14.4758 21.968C14.4704 21.9627 14.4632 21.9597 14.4556 21.9597L13.7096 21.9641C13.7021 21.9641 13.6948 21.9611 13.6895 21.9558C13.6842 21.9505 13.6812 21.9432 13.6812 21.9357V21.4367C13.6812 21.4291 13.6842 21.4219 13.6895 21.4165C13.6948 21.4112 13.7021 21.4082 13.7096 21.4082H16.0473C16.0549 21.4082 16.0621 21.4112 16.0675 21.4165C16.0728 21.4219 16.0758 21.4291 16.0758 21.4367L16.0731 21.9339C16.0731 21.9414 16.0701 21.9487 16.0648 21.954C16.0595 21.9594 16.0522 21.9624 16.0447 21.9624H15.3076C15.3 21.9624 15.2928 21.9654 15.2874 21.9707C15.2821 21.976 15.2791 21.9833 15.2791 21.9908Z" fill="#1C1922"/>
<path d="M19.6294 21.9093L19.6253 22.2209C19.6253 22.2238 19.6258 22.2266 19.6268 22.2293C19.6279 22.232 19.6294 22.2344 19.6314 22.2365C19.6334 22.2385 19.6358 22.2402 19.6384 22.2413C19.641 22.2425 19.6438 22.2431 19.6467 22.2432H20.7737C20.7795 22.2432 20.785 22.2455 20.7891 22.2496C20.7932 22.2537 20.7955 22.2592 20.7955 22.265V22.6745C20.7955 22.6803 20.7932 22.6858 20.7891 22.6899C20.785 22.694 20.7795 22.6963 20.7737 22.6963H19.6521C19.6463 22.6963 19.6407 22.6986 19.6366 22.7027C19.6325 22.7068 19.6302 22.7123 19.6302 22.7181L19.6262 23.1129C19.6262 23.1158 19.6267 23.1186 19.6277 23.1213C19.6288 23.124 19.6303 23.1264 19.6323 23.1285C19.6343 23.1305 19.6367 23.1322 19.6393 23.1333C19.6419 23.1345 19.6447 23.1351 19.6476 23.1352H20.8939C20.8968 23.1352 20.8996 23.1357 20.9022 23.1368C20.9049 23.1379 20.9073 23.1395 20.9093 23.1416C20.9113 23.1436 20.9129 23.146 20.914 23.1486C20.9151 23.1513 20.9157 23.1541 20.9157 23.157V23.6226C20.9157 23.6283 20.9134 23.6339 20.9093 23.638C20.9052 23.6421 20.8997 23.6444 20.8939 23.6444H18.9007C18.8949 23.6444 18.8894 23.6421 18.8853 23.638C18.8812 23.6339 18.8789 23.6283 18.8789 23.6226V21.4295C18.8789 21.4237 18.8812 21.4182 18.8853 21.4141C18.8894 21.41 18.8949 21.4077 18.9007 21.4077H20.8614C20.8672 21.4077 20.8727 21.41 20.8768 21.4141C20.8809 21.4182 20.8832 21.4237 20.8832 21.4295L20.8805 21.8639C20.8805 21.8697 20.8782 21.8753 20.8741 21.8794C20.8701 21.8835 20.8645 21.8858 20.8587 21.8858H19.6525C19.6494 21.8856 19.6462 21.886 19.6433 21.8871C19.6404 21.8883 19.6377 21.89 19.6355 21.8922C19.6333 21.8945 19.6316 21.8972 19.6306 21.9001C19.6295 21.9031 19.6291 21.9062 19.6294 21.9093Z" fill="#1C1922"/>
<path d="M24.8888 23.1348H26.1391C26.1426 23.1347 26.146 23.1354 26.1492 23.1367C26.1524 23.138 26.1553 23.1399 26.1578 23.1424C26.1603 23.1448 26.1622 23.1477 26.1635 23.1509C26.1648 23.1542 26.1654 23.1576 26.1654 23.1611V23.6186C26.1654 23.6221 26.1648 23.6255 26.1635 23.6288C26.1622 23.632 26.1603 23.6349 26.1578 23.6373C26.1553 23.6398 26.1524 23.6417 26.1492 23.643C26.146 23.6443 26.1426 23.645 26.1391 23.6449L24.1361 23.6422C24.1327 23.6423 24.1292 23.6416 24.126 23.6404C24.1228 23.6391 24.1199 23.6371 24.1174 23.6347C24.115 23.6322 24.113 23.6293 24.1117 23.6261C24.1104 23.6229 24.1098 23.6194 24.1099 23.616V21.435C24.1098 21.4315 24.1104 21.428 24.1117 21.4248C24.113 21.4216 24.115 21.4187 24.1174 21.4163C24.1199 21.4138 24.1228 21.4119 24.126 21.4106C24.1292 21.4093 24.1327 21.4086 24.1361 21.4087H26.0995C26.1029 21.4086 26.1064 21.4093 26.1096 21.4106C26.1128 21.4119 26.1157 21.4138 26.1182 21.4163C26.1206 21.4187 26.1226 21.4216 26.1239 21.4248C26.1252 21.428 26.1258 21.4315 26.1257 21.435V21.8609C26.1258 21.8644 26.1252 21.8678 26.1239 21.871C26.1226 21.8743 26.1206 21.8772 26.1182 21.8796C26.1157 21.8821 26.1128 21.884 26.1096 21.8853C26.1064 21.8866 26.1029 21.8872 26.0995 21.8872H24.8933C24.8898 21.8871 24.8863 21.8878 24.8831 21.8891C24.8799 21.8904 24.877 21.8923 24.8745 21.8947C24.8721 21.8972 24.8702 21.9001 24.8689 21.9033C24.8676 21.9065 24.8669 21.91 24.867 21.9134V22.2188C24.8669 22.2222 24.8676 22.2257 24.8689 22.2289C24.8702 22.2321 24.8721 22.235 24.8745 22.2375C24.877 22.2399 24.8799 22.2419 24.8831 22.2432C24.8863 22.2445 24.8898 22.2451 24.8933 22.245H26.018C26.0215 22.245 26.0249 22.2456 26.0281 22.2469C26.0314 22.2482 26.0343 22.2502 26.0367 22.2526C26.0392 22.2551 26.0411 22.258 26.0424 22.2612C26.0437 22.2644 26.0443 22.2678 26.0443 22.2713V22.6719C26.0443 22.6754 26.0437 22.6788 26.0424 22.682C26.0411 22.6852 26.0392 22.6882 26.0367 22.6906C26.0343 22.6931 26.0314 22.695 26.0281 22.6963C26.0249 22.6976 26.0215 22.6982 26.018 22.6982H24.8928C24.8893 22.6981 24.8859 22.6987 24.8827 22.7C24.8795 22.7013 24.8766 22.7033 24.8741 22.7057C24.8717 22.7082 24.8697 22.7111 24.8684 22.7143C24.8671 22.7175 24.8665 22.721 24.8665 22.7244V23.1099C24.8667 23.116 24.869 23.1219 24.8731 23.1264C24.8772 23.131 24.8827 23.134 24.8888 23.1348Z" fill="#1C1922"/>
<circle cx="20" cy="20" r="19.5" stroke="black" stroke-opacity="0.05"/>
</svg>
