<svg width="40" height="40" viewBox="0 0 40 40" fill="none" xmlns="http://www.w3.org/2000/svg">
<circle cx="20" cy="20" r="20" fill="#F6F8FA"/>
<path d="M11.7925 22.8865C11.7925 19.15 19.1154 16.1202 28.1503 16.1202C30.3666 16.1202 32.4795 16.3043 34.4073 16.6346C31.4214 15.0021 26.6874 13.9473 21.3578 13.9473C12.3229 13.9473 5 16.976 5 20.7119C5 23.5315 9.17133 25.9475 15.0997 26.9645C13.0246 25.8302 11.793 24.4184 11.793 22.8865H11.7925Z" fill="#9A258F"/>
<path d="M29.1293 24.8984C28.9725 24.8984 28.8936 24.8194 28.8936 24.6615V23.7201C28.8936 23.5633 28.972 23.4844 29.1293 23.4844H30.0718C30.2291 23.4844 30.3075 23.5628 30.3075 23.7201V23.9559H30.0718V23.7201H29.1293V24.6615H30.0718V24.3095H29.4829L29.4841 24.0738H30.0718C30.2291 24.0738 30.3075 24.1522 30.3075 24.3095V24.6615C30.3075 24.8188 30.2291 24.8972 30.0718 24.8972L29.1293 24.8984Z" fill="black"/>
<path d="M33.3887 24.8984V24.6627H34.449C34.5269 24.6627 34.5658 24.6232 34.5669 24.5448L34.568 24.4269C34.5686 24.3485 34.5296 24.309 34.4501 24.309H33.6244C33.4676 24.309 33.3887 24.2306 33.3887 24.0733V23.7196C33.3887 23.5628 33.4671 23.4839 33.6244 23.4839H34.8021V23.7196H33.7417C33.6633 23.7196 33.6239 23.7591 33.6239 23.8375V23.9554C33.6239 24.0338 33.6634 24.0733 33.7429 24.0733H34.5663C34.7237 24.0733 34.8021 24.1517 34.8021 24.309V24.6621C34.8021 24.8195 34.7237 24.8979 34.5663 24.8979H33.3887V24.8984Z" fill="black"/>
<path d="M14.3521 24.8983V23.7195H13.7627V23.4849H15.1778V23.7195H14.5873V24.8983H14.3521Z" fill="black"/>
<path d="M15.6553 24.8983V23.4849H17.0698V23.7195H15.8905V24.0748H16.8335V24.31H15.8905V24.6636H17.0698V24.8983H15.6553Z" fill="black"/>
<path d="M17.5459 23.72C17.5459 23.5632 17.6243 23.4854 17.7811 23.4854H18.7247C18.8815 23.4854 18.9599 23.5632 18.9599 23.72V23.9569H18.7247V23.72H17.7811V24.6641H18.7247V24.4267H18.9599V24.6641C18.9599 24.8215 18.8815 24.8988 18.7247 24.8988H17.7811C17.6243 24.8988 17.5459 24.8215 17.5459 24.6641V23.72Z" fill="black"/>
<path d="M19.4375 24.8983V23.4849H19.6727V24.0748H20.6163V23.4849H20.8515V24.8983H20.6163V24.31H19.6727V24.8983H19.4375Z" fill="black"/>
<path d="M21.3287 24.8983V23.4849H21.5639L22.5075 24.5452V23.4849H22.7427V24.8983H22.5091L21.5633 23.8385V24.8983H21.3281H21.3287Z" fill="black"/>
<path d="M23.4549 24.8983C23.2981 24.8983 23.2197 24.821 23.2197 24.6636V23.7195C23.2197 23.5627 23.2981 23.4849 23.4549 23.4849H24.3985C24.5553 23.4849 24.6343 23.5627 24.6343 23.7195V24.6636C24.6343 24.821 24.5553 24.8983 24.3985 24.8983H23.4549ZM23.4549 24.6636H24.3985V23.7195H23.4549V24.6636Z" fill="black"/>
<path d="M25.1113 24.8983V23.4849H25.346V24.6642H26.5253V24.8988H25.1113V24.8983Z" fill="black"/>
<path d="M27.2381 24.8983C27.0808 24.8983 27.0029 24.821 27.0029 24.6636V23.7195C27.0029 23.5627 27.0802 23.4849 27.2381 23.4849H28.1817C28.3391 23.4849 28.4169 23.5627 28.4169 23.7195V24.6636C28.4169 24.821 28.3391 24.8983 28.1817 24.8983H27.2381ZM27.2381 24.6636H28.1817V23.7195H27.2381V24.6636Z" fill="black"/>
<path d="M30.7861 24.8983V23.4849H31.0213V24.8983H30.7861Z" fill="black"/>
<path d="M31.498 24.8983V23.4849H32.9126V23.7195H31.7332V24.0748H32.6763V24.31H31.7332V24.6636H32.9126V24.8983H31.498Z" fill="black"/>
<path d="M8.99883 19.0537C8.90653 19.0537 8.82257 19.1049 8.78031 19.1855C8.78031 19.1855 7.96406 20.734 7.65936 21.3134C7.35354 20.734 6.53618 19.1855 6.53618 19.1855C6.49447 19.1049 6.40996 19.0537 6.31877 19.0537H5.65098C5.56591 19.0537 5.48639 19.0971 5.44191 19.1716C5.39632 19.2428 5.39187 19.3328 5.43023 19.4096L7.10221 22.7947C7.14447 22.8792 7.2301 22.9315 7.32296 22.9315H7.99297C8.0875 22.9315 8.17201 22.8797 8.21372 22.7947L9.88681 19.4096C9.92462 19.3328 9.92017 19.2428 9.87513 19.1716C9.83009 19.0976 9.75058 19.0537 9.66551 19.0537H8.99827H8.99883Z" fill="white"/>
<path d="M10.5461 19.0537C10.4099 19.0537 10.2998 19.1655 10.2998 19.3006V22.679C10.2998 22.8141 10.4099 22.9253 10.5461 22.9253H11.1828C11.3196 22.9253 11.4297 22.8141 11.4297 22.679V19.3006C11.4297 19.1655 11.3196 19.0537 11.1828 19.0537H10.5461Z" fill="white"/>
<path d="M16.1033 19.0537C15.9677 19.0537 15.8564 19.1655 15.8564 19.3006V19.8622C15.8564 19.9984 15.9677 20.1091 16.1033 20.1091H17.4467V22.6579C17.4467 22.793 17.5573 22.9031 17.693 22.9031H18.3302C18.4659 22.9031 18.576 22.793 18.576 22.6579V20.1091H19.9143C20.0506 20.1091 20.1612 19.9984 20.1612 19.8622V19.3006C20.1612 19.1655 20.0506 19.0537 19.9143 19.0537H16.1028H16.1033Z" fill="white"/>
<path d="M26.2048 19.0537C25.6432 19.0537 25.3213 19.3479 25.3213 19.8583V22.0768C25.3213 22.5878 25.6432 22.8814 26.2048 22.8814H28.7431C29.3047 22.8814 29.6272 22.5878 29.6272 22.0768V19.8583C29.6272 19.3479 29.3052 19.0537 28.7431 19.0537H26.2048ZM28.4973 20.1052V21.8311H26.4511V20.1052H28.4973Z" fill="white"/>
<path d="M34.1167 19.0538C33.981 19.0538 33.8709 19.1655 33.8709 19.3007V21.2123C33.286 20.6379 31.7508 19.1244 31.7508 19.1244C31.7041 19.0799 31.6424 19.0532 31.5773 19.0532H30.9412C30.8044 19.0532 30.6943 19.165 30.6943 19.3001V22.6352C30.6943 22.7714 30.8044 22.8809 30.9412 22.8809H31.5773C31.6435 22.8809 31.7058 22.8554 31.7519 22.8098C31.7981 22.7636 31.8242 22.7008 31.8242 22.6352C31.8242 22.6352 31.8242 21.4086 31.8242 20.7196C32.4091 21.2957 33.9504 22.8103 33.9504 22.8103C33.9966 22.8559 34.0594 22.8809 34.1234 22.8809H34.7539C34.8907 22.8809 35.0013 22.7714 35.0013 22.6352V19.3001C35.0013 19.165 34.8907 19.0532 34.7539 19.0532H34.1172L34.1167 19.0538Z" fill="white"/>
<path d="M13.9223 19.0537C13.8322 19.0537 13.7494 19.1043 13.706 19.1833L11.88 22.5695C11.8388 22.6451 11.8411 22.7363 11.8855 22.8108C11.9306 22.8864 12.0106 22.9309 12.0974 22.9309H12.8269C12.9148 22.9309 12.9959 22.8848 13.0393 22.8086C13.0393 22.8086 13.3384 22.2898 13.4413 22.1119H15.1361C15.2384 22.2898 15.537 22.8086 15.537 22.8086C15.5804 22.8848 15.6621 22.9309 15.7505 22.9309H16.4789C16.5662 22.9309 16.6463 22.887 16.6907 22.8108C16.7352 22.7363 16.7369 22.6451 16.6958 22.5695L14.8709 19.1833C14.8275 19.1043 14.7446 19.0537 14.6535 19.0537H13.9234H13.9223ZM14.2876 20.6384C14.3732 20.7869 14.3905 20.8174 14.4755 20.9648H14.1002C14.1853 20.8174 14.2031 20.7869 14.2881 20.6384H14.2876Z" fill="white"/>
<path d="M20.6761 19.0537C20.5399 19.0537 20.4287 19.1655 20.4287 19.3006V22.6357C20.4287 22.7719 20.5399 22.8814 20.6761 22.8814H21.3128C21.4485 22.8814 21.5586 22.7719 21.5586 22.6357V21.5964H22.0757C22.2019 21.7054 23.5575 22.872 23.5575 22.872C23.6031 22.9109 23.6592 22.9309 23.7182 22.9309H24.7324C24.8358 22.9309 24.9281 22.867 24.9642 22.7708C24.9737 22.743 24.9793 22.7146 24.9793 22.6862C24.9793 22.6151 24.9492 22.5456 24.8931 22.4983C24.8931 22.4983 24.2436 21.9445 23.7838 21.5547C24.1241 21.4647 24.3209 21.2078 24.3209 20.8063V19.8438C24.3209 19.5947 24.2481 19.3973 24.103 19.2589C23.9612 19.1238 23.7604 19.0537 23.5074 19.0537H20.6756H20.6761ZM23.2611 20.0907V20.5589H21.4896V20.0907H23.2611Z" fill="white"/>
<path d="M7.32335 22.686L5.65137 19.3003H6.31916L7.65974 21.8413L8.99922 19.3003H9.66645L7.99392 22.6854H7.3239L7.32335 22.686Z" fill="#034EA2"/>
<path d="M10.5459 22.6792V19.3008H11.1826V22.6792H10.5459Z" fill="#034EA2"/>
<path d="M17.6932 22.6576V19.8619H16.1035V19.3003H19.9151V19.8619H18.3304V22.6576H17.6932Z" fill="#034EA2"/>
<path d="M26.2051 22.6354C25.7803 22.6354 25.5674 22.448 25.5674 22.0765V19.858C25.5674 19.4866 25.7803 19.3003 26.2051 19.3003H28.7434C29.1688 19.3003 29.3812 19.4866 29.3812 19.858V22.0765C29.3812 22.448 29.1682 22.6354 28.7434 22.6354H26.2051ZM26.2051 22.0765H28.7434V19.858H26.2051V22.0765Z" fill="#034EA2"/>
<path d="M30.9404 22.6354V19.3003H31.5765L34.1165 21.8013V19.3003H34.7531V22.6354H34.1226L31.576 20.1327L31.5771 22.6354H30.941H30.9404Z" fill="#034EA2"/>
<path d="M15.7502 22.6859H16.4786L14.6526 19.3008H13.9225L12.0977 22.6859H12.8272L13.2987 21.8657H15.2781L15.7502 22.6859ZM13.674 21.2119L14.2879 20.1432L14.9023 21.2119H13.674Z" fill="#034EA2"/>
<path d="M23.165 21.3497H23.5086C23.8867 21.3497 24.0763 21.1702 24.0763 20.806V19.8435C24.0763 19.482 23.8867 19.3008 23.5086 19.3008H20.6768V22.6358H21.3134V21.3503H22.168L23.7188 22.6864H24.733L23.1644 21.3503L23.165 21.3497ZM21.245 20.806V19.8435H23.5092V20.806H21.245Z" fill="#034EA2"/>
<circle cx="20" cy="20" r="19.5" stroke="black" stroke-opacity="0.05"/>
</svg>
