<svg width="40" height="40" viewBox="0 0 40 40" fill="none" xmlns="http://www.w3.org/2000/svg">
<circle cx="20" cy="20" r="20" fill="#F6F8FA"/>
<g clip-path="url(#clip0_18553_60634)">
<path d="M19.7322 9H19.7228H19.6995H19.6855H19.6621H19.6481L19.6247 9.00472H19.606H19.5873H19.5733L19.5546 9.00945H19.5406H19.5172H19.5032H19.4845H19.4471H19.4377L19.4144 9.01419L19.4003 9.01892H19.377H19.3629L19.3442 9.02364L19.3302 9.02837H19.3068L19.2975 9.0331L19.2741 9.03782H19.2648L19.2414 9.04256H19.2321L19.0778 9.07566L19.0451 9.08511L19.0124 9.09456C18.8348 9.14185 18.6571 9.20806 18.4935 9.28372L18.4889 9.28844L18.4608 9.2979L18.4561 9.30262L18.4328 9.31681H18.4281L18.4047 9.33099L18.3954 9.33572L18.3767 9.34991L18.3673 9.35464L18.3393 9.36883L18.3159 9.37828H18.3112L18.2832 9.39247L18.2785 9.3972C18.0495 9.5296 17.8392 9.6951 17.6522 9.88424L17.3951 10.1774L17.3858 10.1916L17.3717 10.2058C17.1053 10.5652 16.9183 10.9813 16.8295 11.4352L16.8249 11.4778L15.862 15.8233C15.7872 16.178 15.7451 16.4995 15.7451 16.8021C15.7451 18.6794 17.2409 19.5494 19.7696 19.7764C22.2983 20.0034 23.7941 20.8734 23.7941 22.7507C23.7941 23.0486 23.7567 23.3749 23.6772 23.7248L23.6725 23.7342L26.8323 23.0344L28.0709 22.7554L28.1785 22.7318L28.2065 22.727L28.2205 22.7223L28.2345 22.7176C28.6085 22.6277 28.9497 22.467 29.2535 22.2542L29.2582 22.2495L29.2769 22.24L29.2862 22.2305L29.3003 22.2211L29.3143 22.2116L29.3236 22.2022L29.3423 22.188L29.3517 22.1833L29.3704 22.1643L29.3751 22.1596L29.562 21.9988L29.5854 21.9752L29.6088 21.9516L29.6321 21.9279H29.6368L29.6602 21.9043L29.6835 21.8806L29.7022 21.8664L29.7069 21.8617L29.7256 21.8381V21.8333C30.1229 21.3983 30.394 20.8403 30.4828 20.2304L30.4875 20.202V20.1925L30.4922 20.1689V20.1642V20.1358V20.1311L30.4969 20.1027V20.098L30.5015 20.0649V20.0601L30.5062 19.9987V19.9845V19.9656V19.9514V19.9325V19.9183V19.8946V19.8852V19.8615V19.8521V19.8284V19.8142V19.7811C30.5062 18.2916 29.4452 17.0528 28.0429 16.7974L23.6772 15.8328L22.7143 11.4872C22.4619 10.0734 21.242 9 19.7696 9H19.7322Z" fill="url(#paint0_linear_18553_60634)"/>
<path d="M19.7322 9H19.7228H19.6995H19.6855H19.6621H19.6481L19.6247 9.00472H19.606H19.5873H19.5733L19.5546 9.00945H19.5406H19.5172H19.5032H19.4845H19.4471H19.4377L19.4144 9.01419L19.4003 9.01892H19.377H19.3629L19.3442 9.02364L19.3302 9.02837H19.3068L19.2975 9.0331L19.2741 9.03782H19.2648L19.2414 9.04256H19.2321L19.0778 9.07566L19.0451 9.08511L19.0124 9.09456C18.8348 9.14185 18.6571 9.20806 18.4935 9.28372L18.4889 9.28844L18.4608 9.2979L18.4561 9.30262L18.4328 9.31681H18.4281L18.4047 9.33099L18.3954 9.33572L18.3767 9.34991L18.3673 9.35464L18.3393 9.36883L18.3159 9.37828H18.3112L18.2832 9.39247L18.2785 9.3972C18.0495 9.5296 17.8392 9.6951 17.6522 9.88424L17.3951 10.1774L17.3858 10.1916L17.3717 10.2058C17.1053 10.5652 16.9183 10.9813 16.8295 11.4352L16.8249 11.4778L15.862 15.8233C15.7872 16.178 15.7451 16.4995 15.7451 16.8021C15.7451 18.6794 17.2409 19.5494 19.7696 19.7764C22.2983 20.0034 23.7941 20.8734 23.7941 22.7507C23.7941 23.0486 23.7567 23.3749 23.6772 23.7248L23.6725 23.7342L26.8323 23.0344L28.0709 22.7554L28.1785 22.7318L28.2065 22.727L28.2205 22.7223L28.2345 22.7176C28.6085 22.6277 28.9497 22.467 29.2535 22.2542L29.2582 22.2495L29.2769 22.24L29.2862 22.2305L29.3003 22.2211L29.3143 22.2116L29.3236 22.2022L29.3423 22.188L29.3517 22.1833L29.3704 22.1643L29.3751 22.1596L29.562 21.9988L29.5854 21.9752L29.6088 21.9516L29.6321 21.9279H29.6368L29.6602 21.9043L29.6835 21.8806L29.7022 21.8664L29.7069 21.8617L29.7256 21.8381V21.8333C30.1229 21.3983 30.394 20.8403 30.4828 20.2304L30.4875 20.202V20.1925L30.4922 20.1689V20.1642V20.1358V20.1311L30.4969 20.1027V20.098L30.5015 20.0649V20.0601L30.5062 19.9987V19.9845V19.9656V19.9514V19.9325V19.9183V19.8946V19.8852V19.8615V19.8521V19.8284V19.8142V19.7811C30.5062 18.2916 29.4452 17.0528 28.0429 16.7974L23.6772 15.8328L22.7143 11.4872C22.4619 10.0734 21.242 9 19.7696 9H19.7322Z" fill="url(#paint1_linear_18553_60634)"/>
<path d="M19.7322 9H19.7228H19.6995H19.6855H19.6621H19.6481L19.6247 9.00472H19.606H19.5873H19.5733L19.5546 9.00945H19.5406H19.5172H19.5032H19.4845H19.4471H19.4377L19.4144 9.01419L19.4003 9.01892H19.377H19.3629L19.3442 9.02364L19.3302 9.02837H19.3068L19.2975 9.0331L19.2741 9.03782H19.2648L19.2414 9.04256H19.2321L19.0778 9.07566L19.0451 9.08511L19.0124 9.09456C18.8348 9.14185 18.6571 9.20806 18.4935 9.28372L18.4889 9.28844L18.4608 9.2979L18.4561 9.30262L18.4328 9.31681H18.4281L18.4047 9.33099L18.3954 9.33572L18.3767 9.34991L18.3673 9.35464L18.3393 9.36883L18.3159 9.37828H18.3112L18.2832 9.39247L18.2785 9.3972C18.0495 9.5296 17.8392 9.6951 17.6522 9.88424L17.3951 10.1774L17.3858 10.1916L17.3717 10.2058C17.1053 10.5652 16.9183 10.9813 16.8295 11.4352L16.8249 11.4778L15.862 15.8233C15.7872 16.178 15.7451 16.4995 15.7451 16.8021C15.7451 18.6794 17.2409 19.5494 19.7696 19.7764C22.2983 20.0034 23.7941 20.8734 23.7941 22.7507C23.7941 23.0486 23.7567 23.3749 23.6772 23.7248L23.6725 23.7342L26.8323 23.0344L28.0709 22.7554L28.1785 22.7318L28.2065 22.727L28.2205 22.7223L28.2345 22.7176C28.6085 22.6277 28.9497 22.467 29.2535 22.2542L29.2582 22.2495L29.2769 22.24L29.2862 22.2305L29.3003 22.2211L29.3143 22.2116L29.3236 22.2022L29.3423 22.188L29.3517 22.1833L29.3704 22.1643L29.3751 22.1596L29.562 21.9988L29.5854 21.9752L29.6088 21.9516L29.6321 21.9279H29.6368L29.6602 21.9043L29.6835 21.8806L29.7022 21.8664L29.7069 21.8617L29.7256 21.8381V21.8333C30.1229 21.3983 30.394 20.8403 30.4828 20.2304L30.4875 20.202V20.1925L30.4922 20.1689V20.1642V20.1358V20.1311L30.4969 20.1027V20.098L30.5015 20.0649V20.0601L30.5062 19.9987V19.9845V19.9656V19.9514V19.9325V19.9183V19.8946V19.8852V19.8615V19.8521V19.8284V19.8142V19.7811C30.5062 18.2916 29.4452 17.0528 28.0429 16.7974L23.6772 15.8328L22.7143 11.4872C22.4619 10.0734 21.242 9 19.7696 9H19.7322Z" fill="url(#paint2_linear_18553_60634)"/>
<path d="M11.4633 16.8022C10.0657 17.0576 9 18.2964 9 19.7859C9 21.2754 10.061 22.5096 11.4633 22.7649L15.8617 23.7343L16.8246 28.0751C17.077 29.4937 18.297 30.5624 19.774 30.5624C21.2464 30.5624 22.471 29.489 22.7187 28.0751L23.6816 23.7296C24.0976 21.8334 23.3591 20.7222 21.7512 20.1642H21.7465L21.7044 20.1548L21.6951 20.15L21.6577 20.1358L21.5595 20.1027H21.5549C21.0547 19.9514 20.4751 19.8474 19.8254 19.7859L19.7693 19.7812L19.7086 19.7765C17.2172 19.5448 15.7448 18.6653 15.7448 16.8069V16.7549V16.7502V16.7029V16.6934V16.6462V16.632V16.5894V16.5752L15.7495 16.5327V16.5185L15.7542 16.4807L15.7682 16.3672V16.353L15.7729 16.3104V16.2962L15.7776 16.2537V16.2348L15.7822 16.1922V16.1733L15.7869 16.1307L15.7916 16.1118L15.7963 16.0693L15.8009 16.0504L15.8056 16.0125L15.815 15.9889L15.8196 15.9511L15.8243 15.9227L15.8337 15.8896L15.8477 15.8281L11.4633 16.8022Z" fill="url(#paint3_linear_18553_60634)"/>
<path d="M11.4633 16.8022C10.0657 17.0576 9 18.2964 9 19.7859C9 21.2754 10.061 22.5096 11.4633 22.7649L15.8617 23.7343L16.8246 28.0751C17.077 29.4937 18.297 30.5624 19.774 30.5624C21.2464 30.5624 22.471 29.489 22.7187 28.0751L23.6816 23.7296C24.0976 21.8334 23.3591 20.7222 21.7512 20.1642H21.7465L21.7044 20.1548L21.6951 20.15L21.6577 20.1358L21.5595 20.1027H21.5549C21.0547 19.9514 20.4751 19.8474 19.8254 19.7859L19.7693 19.7812L19.7086 19.7765C17.2172 19.5448 15.7448 18.6653 15.7448 16.8069V16.7549V16.7502V16.7029V16.6934V16.6462V16.632V16.5894V16.5752L15.7495 16.5327V16.5185L15.7542 16.4807L15.7682 16.3672V16.353L15.7729 16.3104V16.2962L15.7776 16.2537V16.2348L15.7822 16.1922V16.1733L15.7869 16.1307L15.7916 16.1118L15.7963 16.0693L15.8009 16.0504L15.8056 16.0125L15.815 15.9889L15.8196 15.9511L15.8243 15.9227L15.8337 15.8896L15.8477 15.8281L11.4633 16.8022Z" fill="url(#paint4_linear_18553_60634)"/>
<path d="M11.4633 16.8022C10.0657 17.0576 9 18.2964 9 19.7859C9 21.2754 10.061 22.5096 11.4633 22.7649L15.8617 23.7343L16.8246 28.0751C17.077 29.4937 18.297 30.5624 19.774 30.5624C21.2464 30.5624 22.471 29.489 22.7187 28.0751L23.6816 23.7296C24.0976 21.8334 23.3591 20.7222 21.7512 20.1642H21.7465L21.7044 20.1548L21.6951 20.15L21.6577 20.1358L21.5595 20.1027H21.5549C21.0547 19.9514 20.4751 19.8474 19.8254 19.7859L19.7693 19.7812L19.7086 19.7765C17.2172 19.5448 15.7448 18.6653 15.7448 16.8069V16.7549V16.7502V16.7029V16.6934V16.6462V16.632V16.5894V16.5752L15.7495 16.5327V16.5185L15.7542 16.4807L15.7682 16.3672V16.353L15.7729 16.3104V16.2962L15.7776 16.2537V16.2348L15.7822 16.1922V16.1733L15.7869 16.1307L15.7916 16.1118L15.7963 16.0693L15.8009 16.0504L15.8056 16.0125L15.815 15.9889L15.8196 15.9511L15.8243 15.9227L15.8337 15.8896L15.8477 15.8281L11.4633 16.8022Z" fill="url(#paint5_linear_18553_60634)"/>
</g>
<circle cx="20" cy="20" r="19.5" stroke="black" stroke-opacity="0.05"/>
<defs>
<linearGradient id="paint0_linear_18553_60634" x1="19.5" y1="9" x2="19.5" y2="19.5" gradientUnits="userSpaceOnUse">
<stop stop-color="#E41322"/>
<stop offset="1" stop-color="#FBD24D"/>
</linearGradient>
<linearGradient id="paint1_linear_18553_60634" x1="29.5" y1="18" x2="21.5" y2="19.5" gradientUnits="userSpaceOnUse">
<stop stop-color="#E41322"/>
<stop offset="1" stop-color="#FBD24D" stop-opacity="0"/>
</linearGradient>
<linearGradient id="paint2_linear_18553_60634" x1="24" y1="24.5" x2="21.5" y2="20" gradientUnits="userSpaceOnUse">
<stop stop-color="#E41322"/>
<stop offset="1" stop-color="#F7C448" stop-opacity="0"/>
</linearGradient>
<linearGradient id="paint3_linear_18553_60634" x1="15.5" y1="15.5" x2="16.5" y2="22" gradientUnits="userSpaceOnUse">
<stop stop-color="#007F3E"/>
<stop offset="0.355727" stop-color="#61AB1C"/>
<stop offset="1" stop-color="#B0CF00"/>
</linearGradient>
<linearGradient id="paint4_linear_18553_60634" x1="16.5" y1="30" x2="16.5" y2="21" gradientUnits="userSpaceOnUse">
<stop stop-color="#007F3E"/>
<stop offset="1" stop-color="#B0CF00" stop-opacity="0"/>
</linearGradient>
<linearGradient id="paint5_linear_18553_60634" x1="8.5" y1="25" x2="15" y2="21" gradientUnits="userSpaceOnUse">
<stop stop-color="#007F3E"/>
<stop offset="1" stop-color="#B0CF00" stop-opacity="0"/>
</linearGradient>
<clipPath id="clip0_18553_60634">
<rect width="22" height="22" fill="white" transform="translate(9 9)"/>
</clipPath>
</defs>
</svg>
