<svg width="40" height="40" viewBox="0 0 40 40" fill="none" xmlns="http://www.w3.org/2000/svg">
<circle cx="20" cy="20" r="20" fill="#9A0000"/>
<path d="M18.0418 13.1166C16.0431 13.7053 14.5721 15.107 13.3065 16.733C13.1135 16.9791 12.8847 17.0196 12.62 16.8545L12.4799 16.7704C12.4342 16.7425 12.3955 16.7043 12.367 16.6588C12.3385 16.6133 12.3208 16.5617 12.3154 16.508C12.31 16.4543 12.317 16.3999 12.3358 16.349C12.3546 16.2981 12.3847 16.252 12.4239 16.2144C13.3112 15.3687 14.0584 14.1959 15.0904 13.5418C15.5045 13.2801 15.9185 13.0076 16.3326 12.7241C16.3482 12.7116 16.3513 12.6976 16.3419 12.682L16.2859 12.5652C16.2548 12.5061 16.2081 12.4905 16.1458 12.5185C14.8382 13.0605 13.8093 13.8626 13.059 14.9248C12.984 15.0293 12.8819 15.1114 12.7634 15.1625C12.645 15.2135 12.5147 15.2315 12.3865 15.2145L12.1857 15.1911C11.8744 15.1475 11.8152 15.0011 12.0083 14.7519C13.4871 12.8331 15.3021 11.542 17.4534 10.8785C19.5082 10.2399 21.6252 10.3567 23.8045 11.2289C27.1855 12.5746 29.7913 15.9013 30.0014 19.6626C30.0622 20.7513 30.1229 23.0455 29.4084 23.723C29.2434 23.8818 29.178 23.8491 29.2122 23.6248C29.6932 20.485 28.1662 17.4759 25.3736 15.9995C23.9352 15.2394 22.3537 14.9933 20.6289 15.2612C18.68 15.5665 17.0533 16.5197 15.7489 18.1207C15.5154 18.4073 15.2445 18.4478 14.9363 18.2422L14.7682 18.1301C14.5938 18.0148 14.5736 17.8778 14.7075 17.7189C16.3419 15.7939 17.8737 14.4949 20.5449 14.1866C20.5551 14.1853 20.565 14.1822 20.574 14.1772C20.583 14.1722 20.5907 14.1655 20.5969 14.1576C20.603 14.1497 20.6074 14.1408 20.6097 14.1313C20.612 14.1218 20.6122 14.112 20.6103 14.1025L20.5916 13.967C20.5698 13.8237 20.4873 13.7629 20.3441 13.7847C17.732 14.2021 15.587 15.6599 13.9089 18.1581C13.8877 18.1903 13.8586 18.2165 13.8244 18.2341C13.7902 18.2518 13.752 18.2603 13.7135 18.2589C13.675 18.2575 13.6376 18.2462 13.6047 18.2261C13.5719 18.206 13.5448 18.1777 13.526 18.1441C13.4388 17.9883 13.3906 17.8139 13.3812 17.6208C13.3594 17.3093 13.4575 17.0398 13.6754 16.8125C14.077 16.3951 14.4755 15.9699 14.8709 15.5369C15.6866 14.646 16.7638 13.9561 18.1025 13.467C18.1287 13.4576 18.1509 13.4395 18.1654 13.4157C18.1798 13.3919 18.1857 13.3638 18.1819 13.3362L18.1632 13.196C18.1539 13.1244 18.1134 13.0979 18.0418 13.1166Z" fill="white"/>
<path d="M24.2108 20.5459C24.2108 21.6575 23.7695 22.7235 22.9839 23.5095C22.1984 24.2955 21.1329 24.737 20.0219 24.737C18.911 24.737 17.8455 24.2955 17.0599 23.5095C16.2743 22.7235 15.833 21.6575 15.833 20.5459C15.833 19.4343 16.2743 18.3683 17.0599 17.5823C17.8455 16.7963 18.911 16.3547 20.0219 16.3547C21.1329 16.3547 22.1984 16.7963 22.9839 17.5823C23.7695 18.3683 24.2108 19.4343 24.2108 20.5459ZM23.1274 20.4898C23.1274 19.6794 22.8056 18.9021 22.2329 18.3291C21.6601 17.756 20.8833 17.4341 20.0733 17.4341C19.2633 17.4341 18.4865 17.756 17.9137 18.3291C17.3409 18.9021 17.0192 19.6794 17.0192 20.4898C17.0192 21.3003 17.3409 22.0775 17.9137 22.6506C18.4865 23.2236 19.2633 23.5456 20.0733 23.5456C20.8833 23.5456 21.6601 23.2236 22.2329 22.6506C22.8056 22.0775 23.1274 21.3003 23.1274 20.4898Z" fill="white"/>
<path d="M24.1452 28.475C25.3313 27.8707 26.3914 27.0141 27.3254 25.9052C27.4561 25.7494 27.6087 25.723 27.783 25.8257C27.9698 25.9348 28.0243 26.0921 27.9465 26.2977C27.741 26.8428 27.4219 27.3069 26.9891 27.69C25.1056 29.3472 23.1334 30.2599 21.0724 30.4281C18.8308 30.6119 16.8975 30.2396 15.2723 29.3114C11.443 27.1153 9.65443 23.4148 10.1027 19.0788C10.1821 18.3172 10.6118 17.8499 10.4997 17.051C10.4966 17.0167 10.509 16.9902 10.537 16.9715C10.5869 16.9373 10.6273 16.9326 10.6585 16.9575C10.6834 16.9762 10.6974 17.0027 10.7005 17.0369C10.8499 18.4667 10.6678 19.7236 11.2889 21.1253C12.5685 24.016 14.7135 25.589 17.724 25.8444C20.3672 26.0687 22.6835 24.8819 24.388 22.9616C24.5904 22.7342 24.841 22.6516 25.1399 22.7139C25.2519 22.7388 25.3313 22.8058 25.378 22.9148C25.4005 22.9656 25.4089 23.0214 25.4024 23.0765C25.3958 23.1316 25.3745 23.1839 25.3407 23.2279C24.9546 23.72 24.5546 24.1966 24.1405 24.6576C22.9543 25.9753 21.2171 26.592 19.4893 26.7742C19.4607 26.7763 19.4338 26.7884 19.4133 26.8084C19.3928 26.8284 19.3801 26.855 19.3773 26.8836C19.3745 26.9121 19.3818 26.9406 19.3981 26.9642C19.4143 26.9878 19.4383 27.0049 19.4659 27.0125C20.7828 27.4377 23.1645 26.0594 23.9677 25.3165C24.7305 24.6125 25.4808 23.8073 26.2186 22.9008C26.2581 22.8535 26.3097 22.8178 26.3679 22.7974C26.4261 22.7771 26.4888 22.773 26.5491 22.7854C26.6095 22.7979 26.6654 22.8265 26.7108 22.8682C26.7562 22.9099 26.7895 22.9632 26.807 23.0223C26.8724 23.2528 26.8382 23.4755 26.7043 23.6905C25.5524 25.522 23.9413 26.8443 21.8709 27.6573C21.8637 27.6599 21.8571 27.6639 21.8516 27.6691C21.846 27.6744 21.8415 27.6807 21.8385 27.6877C21.8354 27.6947 21.8338 27.7022 21.8338 27.7099C21.8337 27.7175 21.8352 27.7251 21.8382 27.7321L21.8896 27.8629C21.9456 28 22.0437 28.0405 22.1838 27.9844C24.1327 27.1839 25.638 25.955 26.6996 24.2979C26.8833 24.0113 27.1308 23.935 27.4421 24.0689C27.4951 24.0907 27.5386 24.125 27.5729 24.1717C27.7254 24.368 27.7286 24.5658 27.5822 24.7651C26.6233 26.0609 25.4123 27.2212 23.949 28.2461C23.921 28.2647 23.9148 28.2897 23.9304 28.3208L23.9911 28.4236C24.0051 28.4505 24.029 28.4709 24.0577 28.4805C24.0865 28.4901 24.1178 28.4881 24.1452 28.475Z" fill="white"/>
<path d="M20.0737 23.5454C21.7604 23.5454 23.1278 22.1772 23.1278 20.4896C23.1278 18.8019 21.7604 17.4338 20.0737 17.4338C18.3869 17.4338 17.0195 18.8019 17.0195 20.4896C17.0195 22.1772 18.3869 23.5454 20.0737 23.5454Z" fill="#9B0000"/>
<circle cx="20" cy="20" r="19.5" stroke="black" stroke-opacity="0.05"/>
</svg>
