<svg width="40" height="40" viewBox="0 0 40 40" fill="none" xmlns="http://www.w3.org/2000/svg">
<circle cx="20" cy="20" r="20" fill="#5CB9EA"/>
<g clip-path="url(#clip0_14382_20594)">
<path d="M21.1605 11.2269L21.1809 11.2428C21.3078 11.338 21.4324 11.4377 21.5548 11.5374L21.7248 11.5079L21.8857 11.4807L22.0307 11.4558L22.2845 11.4241L22.4295 11.4059L22.561 11.3901L22.8692 11.3674H22.987H23.0935C23.2725 11.3674 23.4515 11.3538 23.626 11.3538C23.8005 11.3538 23.9365 11.3538 24.1155 11.3674H24.1835C24.3331 11.3674 24.4849 11.3855 24.6367 11.3991H24.7228C24.8792 11.415 25.0333 11.4331 25.1761 11.4558H25.2486C25.4208 11.483 25.5749 11.5079 25.7177 11.5374H25.7358L26.189 11.6393L26.2479 11.6552C26.3907 11.6915 26.5357 11.73 26.7011 11.7776L26.7827 11.8002C26.93 11.8456 27.0751 11.8932 27.2156 11.943L27.2903 11.9702L27.4716 12.0359C26.2423 10.9655 24.7814 10.1948 23.2038 9.78472C21.6262 9.37459 19.975 9.33613 18.38 9.67237C19.2961 10.035 20.1632 10.5108 20.9611 11.0887C21.0313 11.1363 21.0971 11.1793 21.1605 11.2269Z" fill="white"/>
<path d="M29.7287 25.0821C29.6063 25.1931 29.4794 25.3087 29.348 25.4152L29.3208 25.4379C29.203 25.5376 29.0761 25.6373 28.9356 25.7438L28.888 25.7801C28.7656 25.873 28.6387 25.9614 28.5027 26.0565L28.4393 26.0996C28.3124 26.1834 28.1809 26.2695 28.0472 26.3511L27.9793 26.3919C27.8456 26.4735 27.7096 26.5505 27.5759 26.6185L27.5102 26.6548C27.3629 26.7341 27.2269 26.8043 27.091 26.8814L27.0343 26.9063C26.8779 26.9811 26.7329 27.0468 26.5811 27.108H26.5516C26.3975 27.1737 26.2412 27.2349 26.0984 27.2893H26.078C25.9307 27.3414 25.7766 27.3935 25.6089 27.4457L25.5568 27.4638C25.4118 27.5068 25.2622 27.5499 25.1036 27.5907L25.0401 27.6201C24.8928 27.6587 24.7387 27.6927 24.5869 27.7267L24.5099 27.7425C24.358 27.772 24.2017 27.7992 24.0566 27.8241L23.9819 27.8354C23.8187 27.8581 23.6601 27.8785 23.5105 27.8943H23.4448C23.2703 27.9102 23.1117 27.9215 22.9553 27.9306H22.9123C22.6426 27.9442 22.4024 27.9487 22.169 27.9419H22.0013L21.8744 28.053C21.0722 28.9775 19.3114 29.8409 18.2622 30.3032C19.0148 30.474 19.7838 30.5622 20.5555 30.5661C22.4822 30.5752 24.3741 30.0529 26.0232 29.0566C27.6723 28.0603 29.0149 26.6286 29.9032 24.9189C29.8465 24.9733 29.7944 25.0255 29.74 25.073L29.7287 25.0821Z" fill="white"/>
<path d="M28.4756 13.74L28.4212 13.7151L28.3555 13.6834L28.2625 13.6426L28.1991 13.6154L28.1356 13.5882L28.0359 13.5451L27.9725 13.5202L27.9022 13.493L27.8071 13.4567L27.7436 13.4341L27.6711 13.4069L27.5759 13.3729L27.5125 13.3525L27.4377 13.3276L27.3425 13.2959L27.2768 13.2755L27.2065 13.2551L27.1068 13.2256L27.0479 13.2097L26.9731 13.1893L26.8712 13.1622L26.81 13.1463L26.7443 13.1304L26.6264 13.1168L26.5652 13.1032L26.4904 13.0874L26.3862 13.067L26.3205 13.0534H26.2457L26.146 13.0352H26.078L26.001 13.0239L25.9035 13.0081H25.8287H25.7517H25.6588H25.5727H25.4911H25.414H25.3279H25.2464H25.167H25.0447H24.92C24.6934 13.0081 24.4917 13.0081 24.2402 13.0081H24.1564H24.102L23.8187 13.0285L23.7054 13.042H23.6555L23.3995 13.0738L23.2522 13.0964H23.2273H23.1683C24.1076 13.9288 24.8661 14.9452 25.3968 16.0825C25.9274 17.2199 26.219 18.4541 26.2534 19.7087C26.2878 20.9633 26.0643 22.2116 25.5968 23.3763C25.1293 24.5411 24.4277 25.5974 23.5354 26.4801C23.7167 26.4801 23.9026 26.4801 24.0838 26.4687H24.1971H24.2719H24.3422L24.5688 26.4506L24.6912 26.4348L24.843 26.4144L25.0424 26.3849C25.0843 26.3795 25.1259 26.372 25.167 26.3622L25.3189 26.3328L25.507 26.2965C25.5568 26.2965 25.6044 26.2739 25.652 26.2625L25.8038 26.224L25.967 26.1855L26.1233 26.1379L26.2729 26.0926L26.4202 26.0472L26.5766 25.9906L26.7239 25.9385L26.8644 25.8864L27.0184 25.8206L27.1635 25.7595L27.2972 25.7028L27.4513 25.628L27.5918 25.56C27.6348 25.5396 27.6802 25.5192 27.7209 25.4966L27.875 25.4105L28.0087 25.338L28.1356 25.2677L28.2829 25.1748L28.4121 25.0932C28.4552 25.0683 28.496 25.0434 28.5345 25.0162L28.675 24.9187L28.8019 24.8281L28.9242 24.7442L29.0602 24.6377L29.1826 24.5426L29.2982 24.4496L29.4296 24.3363L29.5452 24.2344L29.6562 24.1369L29.7808 24.0145L29.8941 23.9058L30.0006 23.8015C30.0414 23.7607 30.08 23.7177 30.1185 23.6746L30.225 23.5591L30.3179 23.4571C30.9826 21.8486 31.1617 20.0807 30.8331 18.3716C30.5045 16.6625 29.6826 15.087 28.4688 13.8397L28.4756 13.74Z" fill="white"/>
<path d="M13.8025 26.8495C13.7753 26.7928 13.7482 26.7339 13.7232 26.675L13.7119 26.6501L13.5963 26.3895L13.5147 26.1833C13.4808 26.0949 13.4468 26.0065 13.415 25.9181C13.3833 25.8297 13.3652 25.7776 13.3403 25.7074C13.3153 25.6371 13.2813 25.5283 13.2519 25.44C13.2224 25.3516 13.2088 25.2972 13.1884 25.2247C13.168 25.1522 13.1363 25.0434 13.1136 24.9505C13.091 24.8576 13.0751 24.8077 13.0593 24.7352C13.0434 24.6627 13.0162 24.5494 12.9958 24.4542V24.4112L12.9618 24.2389C12.9437 24.1438 12.9278 24.0463 12.912 23.9489V23.8922C12.912 23.8424 12.8961 23.7902 12.887 23.7381C12.8734 23.6429 12.8644 23.5455 12.853 23.4503V23.3642L12.8394 23.2305C12.8281 23.1172 12.8213 23.0039 12.8145 22.8883V22.8226V22.7206C12.8134 22.6987 12.8134 22.6768 12.8145 22.6549C12.8032 22.5031 12.7941 22.3467 12.7896 22.1881C11.0968 19.3011 11.4798 15.9087 11.8967 14.0437C11.0828 15.2231 10.5179 16.5561 10.2364 17.9611C9.955 19.3662 9.96299 20.814 10.2599 22.2159C10.5568 23.6177 11.1365 24.9444 11.9634 26.1147C12.7903 27.2851 13.8471 28.2745 15.0693 29.0227C14.5744 28.3626 14.1569 27.6479 13.8252 26.8925L13.8025 26.8495Z" fill="white"/>
<path d="M12.8032 21.4041C12.9742 19.1208 13.8614 16.9497 15.3385 15.2001C16.8155 13.4504 18.8069 12.2115 21.0291 11.6598C19.9981 10.776 18.5138 10.1528 17.7002 9.84692C15.7333 10.4 13.9701 11.5143 12.6264 13.0535C12.6038 13.1079 12.5834 13.1622 12.563 13.2189L12.5018 13.373C12.4837 13.4228 12.4633 13.4727 12.4451 13.5248C12.427 13.5769 12.4043 13.6427 12.384 13.7016L12.3318 13.8625V13.8783C11.933 15.5099 11.4843 18.6598 12.8032 21.4041Z" fill="white"/>
<path d="M13.202 22.9087C13.5623 26.6999 15.561 28.9887 15.5837 29.0136H15.5724C15.62 29.0702 15.6653 29.1246 15.7151 29.179L15.6857 29.2266L15.7242 29.1903C15.8284 29.3082 15.9508 29.4306 16.0596 29.5507C16.5127 29.7649 16.9807 29.9459 17.46 30.0923L17.6617 30.0333L17.7252 30.0152C17.8249 29.9835 17.9246 29.954 18.022 29.92H18.0492L18.3053 29.8294C19.2888 29.3762 20.7119 28.6601 21.4348 27.91C19.7699 27.7671 18.1607 27.2413 16.7326 26.3737C15.3044 25.5062 14.0962 24.3203 13.202 22.9087Z" fill="white"/>
</g>
<circle cx="20" cy="20" r="19.5" stroke="black" stroke-opacity="0.05"/>
<defs>
<clipPath id="clip0_14382_20594">
<rect width="21" height="21.1111" fill="white" transform="translate(10 9.45264)"/>
</clipPath>
</defs>
</svg>
