<svg width="40" height="40" viewBox="0 0 40 40" fill="none" xmlns="http://www.w3.org/2000/svg">
<circle cx="20" cy="20" r="20" fill="#1E1E23"/>
<g clip-path="url(#clip0_24594_40644)">
<path d="M25.5106 20.2352H23.7922C23.7922 20.2352 23.7419 20.2507 23.7347 20.2817L23.253 21.5201C23.253 21.5201 23.2314 21.551 23.2027 21.551H22.7641C22.7641 21.551 22.721 21.5355 22.7354 21.5046C23.3609 19.9566 23.9792 18.4086 24.5975 16.8761C24.5975 16.8606 24.6119 16.8451 24.6119 16.8219C24.6119 16.791 24.6191 16.7755 24.6262 16.7677C24.655 16.7213 24.6766 16.7213 24.6981 16.7677C25.3093 18.3157 25.9276 19.8947 26.5531 21.5046C26.5675 21.5355 26.5531 21.551 26.5243 21.551C26.3877 21.5433 26.2439 21.5355 26.0929 21.551C26.0642 21.551 26.0354 21.5355 26.021 21.5046L25.5537 20.2662C25.5537 20.2662 25.5321 20.2352 25.5106 20.2352ZM23.9504 19.7244C23.9504 19.7244 23.9504 19.7476 23.9576 19.7476H25.3165C25.3165 19.7476 25.3308 19.7476 25.3308 19.7321L24.655 17.9597C24.655 17.9597 24.6406 17.9442 24.6334 17.952C24.6334 17.952 24.6262 17.952 24.6262 17.9597L23.9432 19.7244H23.9504Z" fill="white"/>
<path d="M3.46014 21.5589H3.01438C3.01438 21.5589 3 21.5589 3 21.5435V16.7679C3 16.7679 3 16.7524 3.01438 16.7524H3.02157L6.25693 20.4599C6.25693 20.4599 6.2713 20.4599 6.27849 20.4599C6.27849 20.4599 6.27849 20.4599 6.27849 20.4521V16.9459C6.27849 16.9459 6.27849 16.9305 6.29287 16.9305H6.73863C6.73863 16.9305 6.75301 16.9305 6.75301 16.9459V21.7215C6.75301 21.7292 6.75301 21.737 6.73863 21.737H6.73144L3.49609 18.0218C3.49609 18.0218 3.48171 18.0218 3.47452 18.0218C3.47452 18.0218 3.47452 18.0218 3.47452 18.0295V21.5357C3.47452 21.5357 3.47452 21.5512 3.46014 21.5512V21.5589Z" fill="white"/>
<path d="M28.7962 18.0838V21.5281C28.7962 21.5281 28.789 21.559 28.7674 21.559H28.3504C28.3504 21.559 28.3145 21.5513 28.3145 21.5203V16.7912C28.3145 16.7448 28.3288 16.7371 28.3576 16.7758L31.5498 20.4367C31.5929 20.4832 31.6145 20.4754 31.6073 20.4058C31.6073 20.3671 31.6073 20.3129 31.6073 20.2432C31.6073 19.1132 31.6073 18.0219 31.6073 16.9693C31.6073 16.9538 31.6217 16.9383 31.6361 16.9383H32.0459C32.0459 16.9383 32.089 16.9538 32.089 16.9847V21.7061C32.089 21.7525 32.0747 21.7525 32.0459 21.7216L28.8537 18.0606C28.8177 18.0141 28.7962 18.0219 28.7962 18.0838Z" fill="white"/>
<path d="M10.7365 21.6209C9.52147 21.6209 8.5293 20.5605 8.5293 19.2447C8.5293 17.929 9.51428 16.8608 10.7293 16.8608C11.9444 16.8608 12.9366 17.9212 12.9366 19.237C12.9366 20.5528 11.9516 21.6209 10.7365 21.6209ZM10.7365 21.141C11.6856 21.141 12.4549 20.2896 12.4549 19.237C12.4549 18.1844 11.6856 17.333 10.7365 17.333C9.78749 17.333 9.0182 18.1844 9.0182 19.237C9.0182 20.2896 9.78749 21.141 10.7365 21.141Z" fill="white"/>
<path d="M16.4378 19.0586C16.4378 19.0586 16.4378 19.0741 16.4378 19.0818C16.8476 19.2289 17.0849 19.5385 17.1711 20.0029C17.2143 20.266 17.1927 20.5214 17.1064 20.7614C16.9051 21.3109 16.3299 21.5199 15.8123 21.5354C15.4456 21.5354 15.1005 21.5431 14.7626 21.5431C14.7266 21.5431 14.7051 21.5199 14.7051 21.4812V16.9611C14.7051 16.9611 14.7195 16.9224 14.741 16.9224C15.0142 16.9224 15.2803 16.9224 15.5535 16.9224C15.8051 16.9224 16.0352 16.9843 16.2509 17.0926C16.6751 17.3094 16.8332 17.7583 16.8117 18.2536C16.7973 18.5013 16.7182 18.718 16.5816 18.896C16.5384 18.9502 16.4809 18.9889 16.445 19.0431L16.4378 19.0586ZM15.1796 17.4255V18.9425C15.1796 18.9425 15.1868 18.9502 15.194 18.9502H15.6685C16.0352 18.9502 16.3371 18.6561 16.3371 18.2923V18.0679C16.3371 17.7041 16.0352 17.41 15.6613 17.4177H15.1868C15.1868 17.4177 15.1796 17.4177 15.1796 17.4255ZM15.1796 19.4224V21.0478C15.1796 21.0478 15.1868 21.0555 15.194 21.0555H15.8482C16.3299 21.0555 16.7254 20.7149 16.7182 20.297V20.1499C16.7182 19.732 16.3228 19.3991 15.841 19.3991H15.1868C15.1868 19.3991 15.1796 19.3991 15.1796 19.4146V19.4224Z" fill="white"/>
<path d="M19.457 21.0556C19.457 21.0556 19.4642 21.0711 19.4714 21.0711H21.4414C21.4414 21.0711 21.4558 21.0711 21.4558 21.0866V21.5355C21.4558 21.5355 21.4486 21.5587 21.4342 21.5587H18.9969C18.9969 21.5587 18.9609 21.5433 18.9609 21.52V16.9535C18.9609 16.9457 18.9681 16.938 18.9753 16.938H19.4067C19.4067 16.938 19.4355 16.9535 19.4355 16.9689C19.4355 18.2925 19.4355 19.6392 19.4355 21.0092C19.4355 21.0247 19.4355 21.0479 19.4355 21.0634L19.457 21.0556Z" fill="white"/>
<path d="M33.8506 16.9611C33.8506 16.9611 33.865 16.9302 33.8793 16.9302H34.8931C36.0506 16.9302 36.9925 17.9209 36.9925 19.1515V19.3218C36.9925 20.5525 36.0578 21.5509 34.9003 21.5509H33.8865C33.8865 21.5509 33.8578 21.5354 33.8578 21.52L33.8506 16.9689V16.9611ZM34.3323 17.4333L34.3467 21.0323C34.3467 21.0323 34.3611 21.0633 34.3754 21.0633H34.8787C35.7918 21.0633 36.5323 20.2583 36.5323 19.2676V19.1825C36.5323 18.1995 35.7846 17.3946 34.8643 17.4023H34.3611C34.3611 17.4023 34.3323 17.4178 34.3323 17.4333Z" fill="white"/>
</g>
<circle cx="20" cy="20" r="19.5" stroke="black" stroke-opacity="0.05"/>
<defs>
<clipPath id="clip0_24594_40644">
<rect width="34" height="5" fill="white" transform="translate(3 16.7368)"/>
</clipPath>
</defs>
</svg>
