<svg width="40" height="40" viewBox="0 0 40 40" fill="none" xmlns="http://www.w3.org/2000/svg">
<circle cx="20" cy="20" r="20" fill="#F6F8FA"/>
<g clip-path="url(#clip0_17713_28044)">
<path d="M20.6813 24.7051C20.4403 24.817 20.1752 24.884 19.8861 24.884C19.862 24.884 19.8379 24.8691 19.8379 24.8393V23.8404C19.8379 23.8404 19.854 23.7957 19.8781 23.7957C20.2234 23.751 20.4564 23.6019 20.5688 23.341C20.617 23.2292 20.6411 23.0205 20.6411 22.7223C20.6411 18.5702 20.6411 14.2467 20.6411 9.76664C20.6411 9.74428 20.6572 9.72937 20.6813 9.72937H21.7576C21.7576 9.72937 21.8138 9.75173 21.8138 9.78155C21.8138 14.284 21.8138 18.682 21.8138 22.9683C21.8138 23.7584 21.4363 24.3399 20.6813 24.6977V24.7051Z" fill="#F15926"/>
<path d="M20.3846 25.3537C21.6296 25.0555 22.3846 24.1386 22.3846 22.9608C22.3846 18.5329 22.3846 14.1498 22.3846 9.789C22.3846 9.75918 22.4087 9.73682 22.4408 9.73682H23.5091C23.5091 9.73682 23.5573 9.75173 23.5573 9.78154C23.5573 14.1349 23.5573 18.5329 23.5573 22.9608C23.5573 23.915 23.236 24.7126 22.5934 25.3537C21.8625 26.0842 20.9629 26.4569 19.8866 26.4867C19.8706 26.4867 19.8545 26.4718 19.8545 26.4569V25.458C19.8545 25.4133 19.8786 25.3909 19.9268 25.3984C20.0714 25.4133 20.232 25.3984 20.4007 25.3537H20.3846Z" fill="#221F20"/>
<path d="M25.2437 23.6168C25.1313 24.556 24.7297 25.4655 24.0951 26.1885C23.0349 27.3962 21.6373 28.0372 19.8943 28.1043C19.8622 28.1043 19.8381 28.082 19.8301 28.0521V27.0607C19.8301 27.0607 19.8542 27.016 19.8783 27.016C21.8783 26.9713 23.6132 25.6966 24.0068 23.8628C24.071 23.5646 24.1032 23.1695 24.1032 22.6701C24.1032 18.4286 24.0951 14.1274 24.1032 9.77409C24.1032 9.75173 24.1192 9.73682 24.1433 9.73682H25.2116C25.2116 9.73682 25.2759 9.76663 25.2759 9.79645C25.2678 13.9485 25.2678 18.108 25.2759 22.275C25.2759 22.9235 25.2678 23.3708 25.2357 23.6093L25.2437 23.6168Z" fill="#221F20"/>
<path d="M26.4403 25.6965C25.7897 27.1054 24.7054 28.1938 23.1953 28.9615C22.2074 29.461 21.0266 29.7144 19.8861 29.7368C19.862 29.7368 19.8379 29.7144 19.8379 29.6921V28.6932C19.8379 28.6932 19.862 28.6485 19.8861 28.6485C22.7776 28.6186 25.2756 26.6954 25.7736 24.0342C25.8299 23.7286 25.862 23.3633 25.862 22.9384C25.862 18.3913 25.862 14.0156 25.862 9.81134C25.862 9.76662 25.8861 9.75171 25.9262 9.75171H26.9945C26.9945 9.75171 27.0347 9.76662 27.0347 9.78898C27.0347 14.2839 27.0347 18.7566 27.0347 23.2142C27.0347 24.0342 26.8339 24.8617 26.4403 25.7115V25.6965Z" fill="#221F20"/>
<path d="M20.1677 18.1975C16.9066 18.2273 14.2159 20.6872 14.2159 23.7509C14.2159 25.8382 14.2159 27.8061 14.2159 29.6622C14.2159 29.707 14.1757 29.7368 14.1356 29.7368H13.0994C13.0994 29.7368 13.0432 29.707 13.0432 29.6772C13.0352 27.9328 13.0352 26.1438 13.0352 24.3026C13.0352 23.7137 13.0593 23.2664 13.0994 22.9682C13.5653 19.6138 16.5372 17.1762 20.1838 17.1091C20.2159 17.1091 20.24 17.1315 20.24 17.1613V18.1304C20.24 18.1751 20.2159 18.1975 20.1677 18.1975Z" fill="#221F20"/>
<path d="M16.4242 21.9991C16.0789 22.603 15.9664 23.2589 15.9664 23.9596C15.9664 25.8903 15.9664 27.7986 15.9664 29.6846C15.9664 29.7144 15.9423 29.7293 15.9182 29.7293H14.866C14.8259 29.7293 14.8018 29.7069 14.8018 29.6622C14.8018 27.8955 14.8018 26.1139 14.8018 24.3174C14.8018 23.7733 14.8259 23.3409 14.874 23.0129C15.2596 20.5605 17.5166 18.7789 20.1913 18.7192C20.2234 18.7192 20.2556 18.7416 20.2556 18.7714V19.7479C20.2556 19.7479 20.2315 19.8076 20.1913 19.8076C19.862 19.8076 19.5407 19.8374 19.2275 19.9194C17.9664 20.2325 17.0347 20.9257 16.4323 21.9842L16.4242 21.9991Z" fill="#221F20"/>
<path d="M19.694 21.4774C18.4811 21.7607 17.702 22.685 17.702 23.8404C17.702 25.7189 17.702 27.6645 17.702 29.6623C17.702 29.707 17.6779 29.7368 17.6217 29.7368H16.5936C16.5936 29.7368 16.5293 29.707 16.5293 29.6772C16.5293 27.7093 16.5293 25.7637 16.5293 23.8404C16.5293 21.9023 18.1036 20.4114 20.1919 20.3444C20.216 20.3444 20.2401 20.3593 20.2401 20.3891V21.3731C20.2401 21.3731 20.208 21.4401 20.1679 21.4401C19.9992 21.4327 19.8385 21.4401 19.6859 21.4774H19.694Z" fill="#221F20"/>
<path d="M18.3279 29.7294C18.3279 29.7294 18.2637 29.6996 18.2637 29.6623C18.2637 27.8136 18.2637 25.9575 18.2637 24.1088C18.2637 23.7137 18.2878 23.423 18.352 23.2366C18.6091 22.4763 19.3078 21.9992 20.1673 21.9321C20.2074 21.9321 20.2476 21.9545 20.2476 21.9918V22.9459C20.2476 22.9459 20.2235 23.013 20.1914 23.013C19.8621 23.0577 19.6372 23.1994 19.5247 23.4379C19.4685 23.5497 19.4444 23.7137 19.4444 23.9299C19.4444 25.8457 19.4444 27.7465 19.4444 29.6399C19.4444 29.6846 19.4042 29.7145 19.3641 29.7145H18.344L18.3279 29.7294Z" fill="#F15926"/>
</g>
<circle cx="20" cy="20" r="19.5" stroke="black" stroke-opacity="0.05"/>
<defs>
<clipPath id="clip0_17713_28044">
<rect width="14" height="20" fill="white" transform="translate(13.0352 9.73682)"/>
</clipPath>
</defs>
</svg>
