<svg width="40" height="41" viewBox="0 0 40 41" fill="none" xmlns="http://www.w3.org/2000/svg">
<circle cx="20" cy="20.0527" r="20" fill="#ACC90E"/>
<path d="M7.72724 22.6022C7.44981 22.7277 7.1494 22.8062 6.82601 22.8375C6.53565 22.866 6.27881 22.8804 6.055 22.8811C5.41947 22.883 4.73678 22.8835 4.0067 22.8825C4.00215 22.8825 4 22.8801 4 22.8758V17.0072C4 17.0024 4.00239 17 4.00718 17C4.89405 17 5.7936 17 6.7056 17.0005C6.86933 17.0005 7.06825 17.0323 7.30259 17.0953C7.88881 17.253 8.40561 17.631 8.76299 18.1164C9.30325 18.8501 9.45525 19.7233 9.2865 20.6104C9.11367 21.5186 8.56934 22.2216 7.72724 22.6022ZM6.7451 22.5709C7.5221 22.4002 7.6583 21.6797 7.65926 21.0075C7.66045 20.2878 7.66045 19.5663 7.65973 18.8432C7.65973 18.6359 7.64753 18.4377 7.62359 18.2488C7.59056 17.9884 7.48619 17.6789 7.28991 17.5091C7.07328 17.322 6.7305 17.2738 6.44804 17.2729C6.12752 17.2717 5.80844 17.2712 5.49128 17.2719C5.48529 17.2719 5.48051 17.277 5.48051 17.2829V22.6022C5.48051 22.608 5.48505 22.6125 5.4908 22.6128C5.83406 22.6159 6.14404 22.6152 6.42051 22.6106C6.5232 22.6089 6.6314 22.5958 6.7451 22.5709Z" fill="white"/>
<path d="M23.7917 17.966C23.7917 18.3117 23.5114 18.592 23.1657 18.592C22.8201 18.592 22.5398 18.3117 22.5398 17.966C22.5398 17.6204 22.8201 17.3401 23.1657 17.3401C23.5114 17.3401 23.7917 17.6204 23.7917 17.966Z" fill="white"/>
<path d="M20.9995 19.4303H21.6506C21.6559 19.4303 21.6599 19.4344 21.6599 19.4396V19.6749C21.6597 19.6802 21.6556 19.6843 21.6504 19.6843H20.9998C20.9945 19.6845 20.9904 19.6886 20.9904 19.6939L20.9892 22.8674C20.9892 22.8727 20.9852 22.8768 20.9799 22.8768H19.7795C19.7742 22.8768 19.7701 22.8727 19.7701 22.8674V19.6936C19.7699 19.6883 19.7658 19.6843 19.7605 19.6843H19.2447C19.2394 19.6845 19.2354 19.6804 19.2354 19.6752V19.4396C19.2351 19.4344 19.2392 19.4303 19.2445 19.4303H19.7608C19.766 19.4303 19.7701 19.4262 19.7701 19.421V18.3251C19.7699 18.3199 19.7739 18.3158 19.7792 18.3158H20.9806C20.9859 18.3158 20.9899 18.3201 20.9899 18.3254V19.421C20.9902 19.4262 20.9943 19.4303 20.9995 19.4303Z" fill="white"/>
<path d="M11.535 21.0491C11.5309 21.6512 11.5319 22.0487 11.5378 22.2424C11.5501 22.6388 11.8371 22.7764 12.199 22.7822C12.9121 22.7934 13.472 22.4569 13.6824 21.7558C13.6833 21.7529 13.6862 21.7512 13.6893 21.7522C13.6893 21.7522 13.6893 21.7522 13.6895 21.7522L13.8851 21.8204C13.8885 21.8216 13.8904 21.8252 13.8894 21.8288C13.68 22.5782 13.0923 22.9672 12.3412 23.0105C11.2733 23.0721 10.1902 22.5306 10.1086 21.3486C10.0748 20.861 10.2024 20.4395 10.4911 20.0845C10.8657 19.6242 11.4701 19.3709 12.0549 19.3446C12.5181 19.3238 12.9262 19.4449 13.279 19.7082C13.6254 19.9667 13.8219 20.31 13.8688 20.7382C13.8822 20.8588 13.8909 21.002 13.7326 21.0283C13.6199 21.047 13.506 21.0348 13.3901 21.0348C12.7761 21.0348 12.1626 21.0343 11.5501 21.0341C11.5402 21.0341 11.5352 21.0391 11.535 21.0491ZM12.6615 19.8295C12.5614 19.5509 12.0724 19.5512 11.8447 19.6017C11.6188 19.6522 11.5304 19.8018 11.5321 20.021C11.5343 20.2755 11.5345 20.5307 11.5333 20.787C11.5333 20.7964 11.5378 20.8011 11.5472 20.8011L12.6722 20.8023C12.6775 20.8023 12.6816 20.798 12.6816 20.7928C12.6792 20.5711 12.6796 20.3289 12.6832 20.066C12.6847 19.9528 12.6775 19.8738 12.6615 19.8295Z" fill="white"/>
<path d="M16.0538 20.1298C16.0538 20.1515 16.0593 20.153 16.0703 20.1343C16.3054 19.7396 16.6249 19.4646 17.0733 19.3793C17.3227 19.3322 17.5721 19.3279 17.8213 19.3667C18.2802 19.4382 18.4925 19.7358 18.4927 20.1894C18.4937 21.0995 18.4939 21.9921 18.4932 22.8674C18.4932 22.8758 18.4863 22.8825 18.4779 22.8825L17.3169 22.883C17.3114 22.883 17.3086 22.8801 17.3086 22.8746C17.3105 22.0656 17.31 21.1938 17.3069 20.2593C17.3064 20.1298 17.2834 20.0065 17.2377 19.8899C17.1843 19.7537 17.0606 19.7022 16.9217 19.7073C16.433 19.7247 16.1483 20.2492 16.0768 20.6734C16.0593 20.777 16.0509 20.9104 16.0516 21.0736C16.0543 21.6591 16.0545 22.258 16.0528 22.8706C16.0528 22.8773 16.0476 22.8825 16.0409 22.8825L14.8816 22.883C14.8747 22.883 14.8711 22.8794 14.8711 22.8722L14.8699 19.658C14.8699 19.6496 14.8656 19.6453 14.8569 19.6453H14.3179C14.3112 19.6453 14.3059 19.64 14.3059 19.6335L14.3064 19.4126C14.3064 19.4018 14.3121 19.3963 14.3229 19.3963L16.0409 19.393C16.0492 19.393 16.0536 19.3973 16.0536 19.4057V20.1298H16.0538Z" fill="white"/>
<path d="M33.5625 20.149C33.7246 19.9156 33.9214 19.7274 34.1528 19.5845C34.5368 19.3478 34.9485 19.2839 35.388 19.3933C35.6305 19.4536 35.8741 19.6015 35.962 19.8423C35.9878 19.9127 36.0005 20.0254 36 20.1808C35.9969 21.0997 35.9969 21.9957 36 22.8687C36 22.878 35.9955 22.8826 35.9862 22.8826L34.8243 22.8833C34.8183 22.8833 34.8133 22.8783 34.8133 22.8723C34.8133 21.943 34.8133 21.0258 34.8128 20.1207C34.8128 20.0008 34.7893 19.8507 34.6926 19.7732C34.57 19.6752 34.3649 19.6994 34.2289 19.7602C33.9118 19.9024 33.6971 20.2521 33.6138 20.5786C33.5877 20.6813 33.5752 20.834 33.5762 21.0373C33.5798 21.6891 33.5803 22.2992 33.5779 22.8677C33.5779 22.8759 33.5712 22.8826 33.563 22.8826L32.4026 22.8833C32.398 22.8833 32.3942 22.8795 32.3942 22.8749C32.3968 22.0307 32.3963 21.2024 32.393 20.3898C32.3925 20.3053 32.3891 20.2172 32.3827 20.1255C32.3681 19.9156 32.3171 19.7262 32.0689 19.709C31.9444 19.7001 31.8187 19.7365 31.6919 19.8182C31.3426 20.0427 31.1602 20.4348 31.1597 20.8482C31.159 21.5122 31.1585 22.186 31.1585 22.8694C31.1585 22.8766 31.1526 22.8826 31.1454 22.8826L29.9861 22.8833C29.9804 22.8833 29.9756 22.8785 29.9756 22.8725V19.6618C29.9753 19.6508 29.9698 19.6453 29.9588 19.6453H29.4286C29.4171 19.6453 29.4114 19.6396 29.4114 19.6281L29.4119 19.4122C29.4119 19.4016 29.4171 19.3964 29.4277 19.3964L31.1516 19.393C31.1557 19.393 31.1588 19.3961 31.1588 19.4002V20.1607C31.1588 20.182 31.1645 20.1837 31.176 20.1657C31.3421 19.9074 31.5406 19.6841 31.7874 19.5364C32.095 19.3523 32.421 19.2978 32.765 19.3724C33.1946 19.466 33.4567 19.7241 33.5511 20.1466C33.5518 20.1502 33.5554 20.1523 33.5587 20.1514C33.5601 20.1511 33.5616 20.1502 33.5625 20.149Z" fill="white"/>
<path d="M22.575 19.6453H21.989C21.9826 19.6453 21.9775 19.6403 21.9775 19.6338V19.4071C21.9778 19.4007 21.9828 19.3956 21.9893 19.3956H23.7905C23.797 19.3954 23.802 19.4004 23.802 19.4069L23.8025 22.8711C23.8025 22.8775 23.7975 22.8825 23.791 22.8825L22.5982 22.883C22.5918 22.883 22.5867 22.878 22.5867 22.8715V19.6568C22.5865 19.6503 22.5815 19.6453 22.575 19.6453Z" fill="white"/>
<path d="M27.4902 22.2192C27.4878 22.2168 27.4837 22.2168 27.4813 22.2192C27.4808 22.2197 27.4804 22.2204 27.4801 22.2211C27.2087 22.9119 26.4764 23.0804 25.7978 22.9957C25.4938 22.9579 25.2394 22.8384 25.14 22.5361C25.0723 22.3295 25.0663 22.0909 25.0663 21.8786C25.0663 21.1425 25.0663 20.4021 25.0656 19.6579C25.0656 19.6493 25.0613 19.645 25.0529 19.645H24.4727C24.4643 19.645 24.4602 19.6409 24.4602 19.6328V19.4099C24.46 19.4004 24.4648 19.3956 24.4746 19.3956L26.2734 19.3922C26.2818 19.3922 26.2861 19.3965 26.2861 19.4049C26.2859 20.298 26.2861 21.2241 26.2866 22.1833C26.2866 22.2872 26.3019 22.3819 26.3321 22.4679C26.3596 22.5466 26.424 22.6101 26.5059 22.6319C26.9542 22.7503 27.3288 22.2462 27.4571 21.8812C27.4806 21.8142 27.4947 21.745 27.4947 21.6741C27.4947 20.9981 27.4947 20.3255 27.4947 19.6565C27.4947 19.6488 27.4909 19.645 27.4832 19.645H26.9085C26.8963 19.645 26.8903 19.639 26.8903 19.627V19.413C26.8903 19.4018 26.8958 19.396 26.9071 19.396L28.7054 19.3927C28.7102 19.3927 28.7141 19.3965 28.7141 19.4013V22.8717C28.7141 22.8782 28.7088 22.8834 28.7023 22.8834L27.5088 22.8796C27.499 22.8796 27.4942 22.8748 27.4942 22.865C27.4945 22.6436 27.4945 22.4315 27.4942 22.2283C27.4942 22.2247 27.4928 22.2216 27.4899 22.2189L27.4902 22.2192Z" fill="white"/>
<circle cx="20" cy="20.0527" r="19.5" stroke="black" stroke-opacity="0.05"/>
</svg>
