<svg width="40" height="40" viewBox="0 0 40 40" fill="none" xmlns="http://www.w3.org/2000/svg">
<circle cx="20" cy="20" r="20" fill="#F6F8FA"/>
<circle cx="20" cy="20" r="19.5" stroke="black" stroke-opacity="0.05"/>
<g clip-path="url(#clip0_18695_29199)">
<path d="M10.0352 23.2118V11.4879H15.7266C15.7665 11.4809 15.7931 11.509 15.7931 11.5511L15.7865 23.4364C15.7865 23.5066 15.7333 23.5628 15.6668 23.5628L10.2546 23.5838C10.1681 23.5838 10.1149 23.5417 10.095 23.4504L10.0352 23.2188V23.2118Z" fill="#1F925E"/>
<path d="M29.8958 11.4736H24.437C24.3599 11.4736 24.2974 11.5396 24.2974 11.6211V23.4292C24.2974 23.5106 24.3599 23.5766 24.437 23.5766H29.8958C29.9729 23.5766 30.0354 23.5106 30.0354 23.4292V11.6211C30.0354 11.5396 29.9729 11.4736 29.8958 11.4736Z" fill="#19356C"/>
<path d="M22.7413 17.3428H17.3025C17.2107 17.3428 17.1362 17.4214 17.1362 17.5183V29.2983C17.1362 29.3952 17.2107 29.4738 17.3025 29.4738H22.7413C22.8331 29.4738 22.9075 29.3952 22.9075 29.2983V17.5183C22.9075 17.4214 22.8331 17.3428 22.7413 17.3428Z" fill="#CC2721"/>
</g>
<defs>
<clipPath id="clip0_18695_29199">
<rect width="20" height="18" fill="white" transform="translate(10.0352 11.4736)"/>
</clipPath>
</defs>
</svg>
