<svg width="40" height="40" viewBox="0 0 40 40" fill="none" xmlns="http://www.w3.org/2000/svg">
<circle cx="20" cy="20" r="20" fill="#C92C32"/>
<g clip-path="url(#clip0_26416_48137)">
<path d="M11.0753 14.5067C11.0753 14.5067 11.4166 14.099 11.8612 13.623C11.8612 13.623 14.9658 17.5375 15.5746 18.2846C15.7314 18.4765 18.7936 22.2009 19.2437 22.6511C19.6938 23.1012 23.0235 26.9548 23.0235 26.9548L25.5009 29.7698L25.0066 29.9303L21.0017 25.3093C21.0017 25.3093 19.3562 23.3613 19.2437 23.2506C19.1312 23.1381 17.185 20.9299 17.185 20.9299C17.185 20.9299 15.2757 18.8694 14.94 18.5337C13.5915 17.187 11.0753 14.5067 11.0753 14.5067Z" fill="white"/>
<path d="M12.0124 13.4735C12.0124 13.4735 12.5658 12.9717 12.9108 12.6895C12.9108 12.6895 15.0506 15.427 15.2 15.5764C15.3495 15.7277 16.9599 17.8602 17.1462 18.0465C17.3325 18.2346 19.43 20.666 19.43 20.666L22.2118 23.9237L26.8715 29.207L26.4546 29.3988L21.7893 24.0233L19.0186 20.8781L16.8732 18.432L14.3017 15.7111L12.0124 13.4716V13.4735Z" fill="white"/>
<path d="M13.1045 12.544C13.1045 12.544 13.7852 12.0109 14.1025 11.8965L16.674 15.1653L19.0924 18.1095L21.5127 20.93L23.8333 23.5495L27.2276 27.4437L28.1426 28.5062L27.7459 28.7479L25.9806 26.7187L23.4109 23.7764L20.666 20.6312L18.5187 18.2109L16.0007 15.4678L13.1045 12.5458V12.544Z" fill="white"/>
<path d="M14.3017 11.7708C14.3017 11.7708 14.7002 11.531 15.4048 11.186L17.7439 14.2169L20.5885 17.6112L23.433 20.9796L26.8771 24.9457L28.9727 27.342L29.301 27.6704L28.9229 27.9655L26.2757 24.9697L22.8335 20.9279L20.0885 17.8325L17.6185 15.1134L14.3017 11.7708Z" fill="white"/>
<path d="M15.6207 11.0919C15.6207 11.0919 15.9435 10.9573 16.7625 10.6621L19.4189 13.966L23.1102 18.3343L26.1798 21.9517L29.2512 25.5212L30.3562 26.7019L30.0094 27.0523L27.9784 24.6727L24.7852 21.0035L22.0901 17.8841L19.0205 14.4659L17.0725 12.4939L15.6225 11.0901L15.6207 11.0919Z" fill="white"/>
<path d="M10.8853 14.7593C10.8853 14.7593 8.96308 17.0356 8.99998 20.2805C9.06823 25.9585 14.3957 30.5611 21.0515 30.5611C22.079 30.5611 23.0751 30.4522 24.0251 30.2456C24.0251 30.2456 13.1045 17.685 10.8853 14.7611V14.7593Z" fill="white"/>
<path d="M17.0651 10.5774C18.314 10.2048 19.6551 10 21.0534 10C25.1855 10 28.8306 11.7709 31.0019 14.4734V26.0195C31.0019 26.0195 18.4412 11.4997 16.9784 10.5755" fill="white"/>
</g>
<circle cx="20" cy="20" r="19.5" stroke="black" stroke-opacity="0.05"/>
<defs>
<clipPath id="clip0_26416_48137">
<rect width="22" height="20.5593" fill="white" transform="translate(9 10)"/>
</clipPath>
</defs>
</svg>
