<svg width="40" height="40" viewBox="0 0 40 40" fill="none" xmlns="http://www.w3.org/2000/svg">
<circle cx="20" cy="20" r="20" fill="#55A756"/>
<path d="M17.3976 11.5061C19.9012 11.2066 22.3374 11.3078 24.7481 11.9806C26.7839 12.5488 28.7473 13.2518 30.4471 14.5523C31.5635 15.4065 32.5744 16.3642 33.1342 17.6829C34.1892 20.1686 33.7941 22.4291 32.0127 24.4608C30.3282 26.3819 28.1642 27.4991 25.7525 28.1692C20.9716 29.4976 16.2662 29.3042 11.6852 27.317C10.3123 26.7215 9.05933 25.9131 8.00535 24.8379C5.23945 22.0163 5.34227 18.2033 8.26375 15.4057C9.9625 13.779 12.0154 12.7944 14.2747 12.2211C15.2978 11.9615 16.3326 11.7485 17.3976 11.5061ZM17.1623 26.0471C17.7933 26.2084 18.4161 26.4257 19.057 26.5192C20.3727 26.7112 21.6379 26.5291 22.7777 25.7844C23.9393 25.0256 24.02 23.9018 22.9331 23.0528C22.4678 22.6894 21.9389 22.3781 21.394 22.1511C19.715 21.4517 17.9992 20.8397 16.3287 20.1217C15.5325 19.7795 14.7455 19.3533 14.0607 18.8269C12.5527 17.6676 12.4813 15.7653 13.8109 14.3955C13.895 14.3088 13.9678 14.2111 14.1073 14.0458C13.927 14.0251 13.8035 13.972 13.7143 14.0068C12.9139 14.3193 12.0955 14.5996 11.3314 14.9861C10.7432 15.2836 10.2063 15.6956 9.68082 16.1009C8.8503 16.7415 8.17311 17.553 7.82047 18.5263C7.31392 19.9245 7.38328 21.3449 8.17248 22.6562C9.22539 24.4057 10.897 25.3904 12.6838 26.2155C12.919 26.3241 13.1101 26.2561 13.0261 25.9268C12.8168 25.1058 12.6276 24.2788 12.3892 23.4662C12.197 22.8115 12.3144 22.6222 12.9894 22.7409C13.2051 22.7788 13.454 22.9371 13.5816 23.1159C14.4989 24.4014 15.6287 25.417 17.1623 26.0471ZM20.1252 13.8716C19.1335 13.8043 18.1825 13.9609 17.2961 14.4212C16.129 15.0274 16.0294 16.1946 17.1227 16.9256C17.7408 17.3389 18.4232 17.6762 19.1134 17.9576C20.5534 18.5448 22.0233 19.058 23.4702 19.6287C24.5174 20.0416 25.5585 20.482 26.4296 21.2224C27.7822 22.3721 27.9146 24.3741 26.7338 25.6922C26.5094 25.9426 26.2719 26.1814 26.0405 26.4255C26.1784 26.5056 26.2807 26.5114 26.3684 26.4783C28.1023 25.8237 29.6943 24.9342 30.9267 23.5213C31.8076 22.5115 32.4159 21.3538 32.2797 19.9577C32.1583 18.7132 31.5866 17.6522 30.7599 16.7304C29.614 15.4528 28.1251 14.7108 26.5622 14.0949C26.2124 13.9571 26.0851 14.088 26.1502 14.4875C26.2798 15.283 26.4051 16.0795 26.552 16.8718C26.6207 17.2428 26.4792 17.3741 26.1224 17.4013C25.6755 17.4355 25.4017 17.2469 25.1737 16.8733C24.0401 15.0157 22.3578 14.05 20.1252 13.8716Z" fill="#F7FAF7"/>
<circle cx="20" cy="20" r="19.5" stroke="black" stroke-opacity="0.05"/>
</svg>
