<svg width="40" height="40" viewBox="0 0 40 40" fill="none" xmlns="http://www.w3.org/2000/svg">
<circle cx="20" cy="20" r="20" fill="#F6F8FA"/>
<path d="M21.4748 29.4081C21.675 29.1033 21.8559 28.8259 22.0389 28.5505C24.4565 24.9101 26.8733 21.2694 29.2964 17.6322C29.4052 17.4691 29.4141 17.3964 29.2243 17.2834C28.193 16.67 27.171 16.0422 26.1498 15.4131C26.0242 15.3356 25.9685 15.3307 25.8795 15.466C24.9102 16.9381 23.9295 18.4038 22.9598 19.876C22.8594 20.0278 22.7936 20.0512 22.6284 19.949C21.3365 19.152 20.0391 18.3634 18.7388 17.5797C18.5891 17.4897 18.5811 17.4307 18.6747 17.291C19.6559 15.8258 20.6311 14.3565 21.6017 12.8847C21.6911 12.7495 21.7868 12.6998 21.955 12.7002C25.1438 12.705 28.3326 12.7054 31.5209 12.7002C31.7107 12.7002 31.7655 12.7426 31.7655 12.9307C31.76 18.3513 31.7604 23.7723 31.7642 29.1929C31.7642 29.3483 31.7427 29.4129 31.5538 29.4125C28.2596 29.4065 24.9659 29.4081 21.6717 29.4081C21.6181 29.4081 21.565 29.4081 21.476 29.4081H21.4748Z" fill="#8FBE65"/>
<path d="M18.2492 10.6016C18.0953 10.8346 17.9549 11.0482 17.8136 11.2614C15.3408 14.9853 12.8683 18.7097 10.3913 22.4316C10.3107 22.5523 10.3238 22.5992 10.4478 22.6739C11.4989 23.3074 12.547 23.9445 13.5902 24.5897C13.7314 24.677 13.779 24.6426 13.8571 24.5243C14.8576 23.0086 15.8665 21.4981 16.8641 19.9807C16.975 19.812 17.0433 19.7744 17.2364 19.8943C18.5258 20.6938 19.824 21.4799 21.1226 22.2653C21.2529 22.344 21.2891 22.3936 21.1934 22.5366C20.1596 24.0798 19.1342 25.6278 18.1105 27.1775C18.0455 27.2756 17.9755 27.3079 17.8571 27.3079C14.718 27.3051 11.579 27.3043 8.43953 27.3095C8.26666 27.3095 8.23462 27.2566 8.23462 27.1048C8.23841 21.6644 8.23841 16.2241 8.23462 10.7841C8.23462 10.6428 8.25865 10.5879 8.42646 10.5879C11.6427 10.5931 14.8593 10.5919 18.0755 10.5923C18.1227 10.5923 18.1695 10.5972 18.2492 10.602V10.6016Z" fill="#127C6A"/>
<circle cx="20" cy="20" r="19.5" stroke="black" stroke-opacity="0.05"/>
</svg>
