<svg width="40" height="40" viewBox="0 0 40 40" fill="none" xmlns="http://www.w3.org/2000/svg">
<circle cx="20" cy="20" r="20" fill="#13599E"/>
<path d="M15.0484 24.7182C14.8338 24.6585 14.6117 24.6374 14.3818 24.655C13.8468 24.5849 13.3124 24.51 12.7787 24.4301C11.3765 24.2196 10.0216 23.9211 8.71408 23.5346C7.36682 23.136 6.00341 22.5987 4.87632 21.7766C4.27372 21.3376 3.68998 20.6825 3.59572 19.9426C3.31361 17.7194 6.9211 16.3836 8.56191 15.8874C10.3946 15.3339 12.4318 14.9378 14.6734 14.699C17.1574 14.4342 19.7038 14.3565 22.3125 14.466C24.6511 14.5643 26.8916 14.8303 29.034 15.2639C30.0915 15.4775 31.1147 15.7509 32.1036 16.084C33.1579 16.4381 34.2197 16.9067 35.1293 17.5531C36.1837 18.3031 36.9573 19.5258 36.1608 20.7701C35.8991 21.1785 35.5245 21.5506 35.0371 21.8864C33.8622 22.6957 32.4429 23.2363 31.0566 23.6221C29.3505 24.0975 27.5671 24.4384 25.7066 24.6449C22.1579 25.039 18.6052 25.0634 15.0484 24.7182ZM36.1258 19.6888C36.1258 18.3818 34.4302 17.1284 31.4121 16.2043C28.3939 15.2801 24.3004 14.7609 20.0321 14.7609C15.7638 14.7609 11.6703 15.2801 8.65215 16.2043C5.634 17.1284 3.93842 18.3818 3.93842 19.6888C3.93842 20.9957 5.634 22.2491 8.65215 23.1733C11.6703 24.0974 15.7638 24.6166 20.0321 24.6166C24.3004 24.6166 28.3939 24.0974 31.4121 23.1733C34.4302 22.2491 36.1258 20.9957 36.1258 19.6888Z" fill="white"/>
<path d="M7.45958 18.7907C7.07132 19.7643 6.95147 20.8344 7.10005 22.001C7.10319 22.0239 7.09309 22.0353 7.06975 22.0353L6.13185 22.0333C6.12304 22.0333 6.11458 22.0298 6.10828 22.0237C6.10199 22.0175 6.09836 22.0091 6.09819 22.0003C6.06722 20.7731 6.24407 19.6247 6.62874 18.5551C6.90681 17.7808 7.42996 16.8159 8.23589 16.5426C9.07616 16.2578 9.77638 16.8536 10.2006 17.537C10.991 18.8123 11.2502 20.484 11.2347 21.9949C11.2343 22.0209 11.221 22.034 11.195 22.034H10.2679C10.2347 22.034 10.2201 22.0176 10.2241 21.9848C10.3574 20.9069 10.2578 19.8101 9.89353 18.8695C9.72162 18.4238 9.48911 18.0851 9.196 17.8535C8.41094 17.2334 7.71274 18.1571 7.45958 18.7907Z" fill="white"/>
<path d="M21.1025 18.2277V17.281C21.1026 17.2585 21.109 17.2366 21.1211 17.2178C21.1331 17.1991 21.1503 17.1843 21.1705 17.1753C21.8052 16.888 22.4648 16.726 23.1493 16.6892C23.1862 16.6869 23.1949 16.7015 23.1756 16.733C22.9624 17.0754 22.7537 17.4087 22.5494 17.7328C22.5185 17.7813 22.4754 17.8318 22.4161 17.8425C21.974 17.9242 21.5496 18.0611 21.1429 18.2532C21.1386 18.2553 21.1339 18.2562 21.1291 18.2559C21.1243 18.2556 21.1197 18.2541 21.1157 18.2516C21.1117 18.249 21.1083 18.2455 21.106 18.2413C21.1037 18.2371 21.1025 18.2324 21.1025 18.2277Z" fill="white"/>
<path d="M24.0736 17.8027L24.0723 22.2175C24.0723 22.2264 24.0687 22.2349 24.0624 22.2413C24.0561 22.2476 24.0475 22.2511 24.0386 22.2511H23.0973C23.0914 22.2511 23.0855 22.25 23.0801 22.2477C23.0746 22.2454 23.0696 22.2421 23.0654 22.2379C23.0612 22.2337 23.0579 22.2287 23.0556 22.2233C23.0534 22.2178 23.0522 22.2119 23.0522 22.206C23.0558 20.6211 23.0545 19.2117 23.0482 17.9777C23.0477 17.9005 23.0414 17.8197 23.0293 17.7354C23.0262 17.7125 23.0304 17.6911 23.0421 17.6714C23.2172 17.3886 23.3889 17.1123 23.5572 16.8426C23.6184 16.7443 23.6434 16.6601 23.7854 16.6776C23.8492 16.6857 23.884 16.69 23.8898 16.6904C24.6376 16.7254 25.3338 16.8987 25.9783 17.2102C25.9898 17.2158 25.9995 17.2246 26.0063 17.2356C26.0131 17.2465 26.0167 17.2592 26.0167 17.2721L26.0133 18.241C26.0133 18.2738 25.9985 18.283 25.9689 18.2686C25.3917 17.9899 24.774 17.8218 24.116 17.7643C24.0882 17.7616 24.074 17.7744 24.0736 17.8027Z" fill="white"/>
<path d="M26.3053 18.3808C26.8553 17.2288 28.0706 16.6235 29.3465 16.6894C29.3806 16.6912 29.3977 16.7092 29.3977 16.7433V17.69C29.3977 17.7214 29.3822 17.7355 29.3512 17.7324C28.9091 17.6893 28.5031 17.7636 28.1332 17.9552C27.3314 18.3713 26.8951 19.2756 27.2519 20.1286C27.596 20.95 28.4786 21.3843 29.3512 21.2954C29.3572 21.2949 29.3633 21.2955 29.369 21.2974C29.3747 21.2993 29.3799 21.3023 29.3844 21.3063C29.3888 21.3103 29.3924 21.3152 29.3948 21.3206C29.3972 21.3261 29.3984 21.3319 29.3984 21.3379L29.3977 22.2858C29.3977 22.3146 29.3833 22.3298 29.3546 22.3316C28.6198 22.3743 27.9602 22.2104 27.3758 21.8401C26.1908 21.0894 25.7033 19.6398 26.3053 18.3808Z" fill="white"/>
<path d="M12.3802 16.7735C12.3048 17.3265 12.3015 17.8963 12.3701 18.483C12.3707 18.4882 12.3702 18.4935 12.3686 18.4985C12.367 18.5035 12.3644 18.5081 12.3609 18.5121C12.3574 18.516 12.3531 18.5191 12.3483 18.5213C12.3436 18.5235 12.3384 18.5247 12.3331 18.5247L11.5339 18.5274C11.5203 18.5274 11.507 18.5224 11.4967 18.5134C11.4863 18.5044 11.4795 18.4919 11.4774 18.4783C11.3966 17.932 11.3602 17.3629 11.3683 16.7708C11.3687 16.7416 11.3836 16.7271 11.4127 16.7271H12.3405C12.3463 16.7271 12.352 16.7284 12.3573 16.7308C12.3626 16.7332 12.3672 16.7368 12.371 16.7412C12.3748 16.7456 12.3776 16.7508 12.3791 16.7563C12.3807 16.7619 12.3811 16.7678 12.3802 16.7735Z" fill="#42B6E0"/>
<path d="M15.505 16.7615C15.5045 16.7571 15.505 16.7527 15.5063 16.7485C15.5077 16.7443 15.5099 16.7404 15.5128 16.7371C15.5157 16.7338 15.5193 16.7312 15.5232 16.7293C15.5272 16.7275 15.5316 16.7265 15.536 16.7264L16.4799 16.7251C16.4896 16.7251 16.4988 16.7289 16.5056 16.7357C16.5125 16.7426 16.5163 16.7518 16.5163 16.7615C16.523 17.5142 16.4494 18.2894 16.2954 19.087C16.2922 19.1032 16.2834 19.1177 16.2707 19.1281C16.2579 19.1386 16.2419 19.1443 16.2254 19.1442L15.4525 19.1436C15.4468 19.1436 15.4412 19.1423 15.4361 19.1399C15.431 19.1375 15.4264 19.134 15.4228 19.1296C15.4192 19.1252 15.4166 19.1201 15.4152 19.1146C15.4138 19.1091 15.4137 19.1033 15.4148 19.0978C15.5669 18.3388 15.597 17.56 15.505 16.7615Z" fill="#42B6E0"/>
<path d="M17.8837 18.8734C17.3989 19.8995 17.3006 21.1255 17.44 22.2621C17.4405 22.2663 17.44 22.2706 17.4387 22.2747C17.4374 22.2788 17.4353 22.2825 17.4324 22.2857C17.4295 22.2889 17.426 22.2914 17.4221 22.2931C17.4182 22.2949 17.414 22.2957 17.4097 22.2957H16.4799C16.4484 22.2957 16.4325 22.2798 16.4321 22.2479C16.415 21.1697 16.5542 20.1437 16.8495 19.1696C17.0434 18.5304 17.3109 17.9828 17.6521 17.5268C18.0762 16.9599 18.7556 16.527 19.4848 16.8219C19.985 17.0238 20.385 17.4999 20.6448 17.9665C21.3518 19.2343 21.5848 20.7781 21.5787 22.2641C21.5787 22.2721 21.5755 22.2798 21.5698 22.2855C21.5641 22.2912 21.5564 22.2944 21.5484 22.2944L20.5937 22.2964C20.5895 22.2964 20.5854 22.2956 20.5816 22.2938C20.5778 22.2921 20.5744 22.2896 20.5716 22.2864C20.5689 22.2832 20.5668 22.2794 20.5657 22.2753C20.5645 22.2712 20.5641 22.2669 20.5647 22.2627C20.7196 21.0865 20.5937 19.6928 20.0032 18.6552C19.783 18.2688 19.3865 17.8688 18.9212 17.922C18.4425 17.9772 18.081 18.4539 17.8837 18.8734Z" fill="white"/>
<path d="M30.8118 19.0237C30.525 19.6573 30.7236 20.4161 31.2326 20.8867C31.69 21.3104 32.2547 21.4926 32.9266 21.4334C32.9305 21.433 32.9344 21.4335 32.9381 21.4347C32.9418 21.4359 32.9452 21.4378 32.9481 21.4404C32.951 21.443 32.9534 21.4462 32.955 21.4497C32.9566 21.4533 32.9575 21.4571 32.9576 21.461L32.9603 22.4043C32.9605 22.4205 32.9545 22.4362 32.9434 22.4481C32.9324 22.46 32.9172 22.4672 32.901 22.4682C32.0742 22.5221 31.3397 22.3055 30.6974 21.8185C29.2814 20.7453 29.2336 18.6998 30.6065 17.5613C31.2385 17.0375 31.9957 16.794 32.8781 16.8308C32.8994 16.8316 32.9195 16.8407 32.9343 16.8559C32.9491 16.8712 32.9574 16.8916 32.9576 16.9129L32.9596 17.8259C32.9596 17.8614 32.9421 17.8771 32.9071 17.873C31.9961 17.7646 31.1687 18.2373 30.8118 19.0237Z" fill="white"/>
<path d="M8.63839 20.0517C8.91653 20.0517 9.14201 19.8262 9.14201 19.5481C9.14201 19.2699 8.91653 19.0444 8.63839 19.0444C8.36025 19.0444 8.13477 19.2699 8.13477 19.5481C8.13477 19.8262 8.36025 20.0517 8.63839 20.0517Z" fill="white"/>
<path d="M28.7618 20.3127C29.0574 20.3127 29.2971 20.0731 29.2971 19.7775C29.2971 19.4818 29.0574 19.2422 28.7618 19.2422C28.4662 19.2422 28.2266 19.4818 28.2266 19.7775C28.2266 20.0731 28.4662 20.3127 28.7618 20.3127Z" fill="white"/>
<path d="M18.9818 20.3123C19.2603 20.3123 19.4861 20.0865 19.4861 19.808C19.4861 19.5295 19.2603 19.3037 18.9818 19.3037C18.7033 19.3037 18.4775 19.5295 18.4775 19.808C18.4775 20.0865 18.7033 20.3123 18.9818 20.3123Z" fill="white"/>
<path d="M16.0908 19.8398C15.8484 20.6969 15.3057 21.8099 14.4661 22.1808C13.7013 22.5182 12.997 22.0657 12.5412 21.4288C12.2045 20.9584 11.9505 20.4197 11.779 19.8129C11.7782 19.8098 11.7781 19.8065 11.7787 19.8034C11.7794 19.8003 11.7807 19.7973 11.7826 19.7948C11.7846 19.7922 11.7871 19.7902 11.79 19.7888C11.7929 19.7873 11.796 19.7866 11.7992 19.7866L12.62 19.7873C12.6321 19.7873 12.644 19.7909 12.6541 19.7976C12.6642 19.8043 12.672 19.8138 12.6765 19.825C12.8482 20.2552 13.0879 20.6929 13.4535 20.9433C14.2783 21.5082 14.9469 20.507 15.1812 19.8546C15.1865 19.8395 15.1964 19.8264 15.2095 19.8171C15.2227 19.8078 15.2384 19.8028 15.2546 19.8028L16.0612 19.7994C16.0885 19.7994 16.0984 19.8129 16.0908 19.8398Z" fill="white"/>
<path d="M14.3818 24.6549C14.6117 24.6374 14.8338 24.6585 15.0484 24.7182L14.3818 24.6549Z" fill="#42B6E0"/>
<circle cx="20" cy="20" r="19.5" stroke="black" stroke-opacity="0.05"/>
</svg>
