<svg width="40" height="40" viewBox="0 0 40 40" fill="none" xmlns="http://www.w3.org/2000/svg">
<circle cx="20" cy="20" r="20" fill="#003DA5"/>
<path d="M21.6688 20.3695C21.5353 20.137 21.3549 19.9348 21.1389 19.776C20.8933 19.5964 20.626 19.4486 20.3433 19.3362C20.0226 19.2063 19.6953 19.0931 19.3629 18.9971C19.1215 18.9313 18.8946 18.8208 18.6938 18.6715C18.6002 18.5942 18.5261 18.4959 18.4774 18.3847C18.4288 18.2735 18.4069 18.1523 18.4137 18.0311C18.4047 17.7769 18.4851 17.5275 18.6408 17.3264C18.7975 17.1326 19.0617 17.0349 19.4265 17.0349C19.7135 17.0259 19.9927 17.1291 20.2047 17.3226C20.3879 17.4921 20.5075 17.7647 20.5658 18.1318H21.7649C21.7278 17.8034 21.6365 17.4834 21.4947 17.1848C21.3646 16.9155 21.1816 16.6753 20.9564 16.4785C20.7523 16.3057 20.5128 16.1799 20.2547 16.1098C19.9876 16.0365 19.7118 15.9996 19.4349 16.0001C19.1258 15.9978 18.8181 16.0415 18.5219 16.1295C18.2564 16.2076 18.0098 16.3395 17.7975 16.5171C17.59 16.6944 17.4252 16.9161 17.3152 17.1659C17.1911 17.4581 17.1307 17.7735 17.1381 18.0909C17.1268 18.4067 17.2056 18.7191 17.3652 18.9918C17.5204 19.2403 17.7222 19.4565 17.9595 19.6284C18.2033 19.8045 18.469 19.9483 18.7498 20.0561C19.0412 20.1674 19.3168 20.2643 19.5696 20.3422C19.8217 20.4136 20.0617 20.522 20.2819 20.664C20.3808 20.7238 20.4626 20.8081 20.5195 20.9088C20.5764 21.0094 20.6064 21.123 20.6067 21.2385C20.6129 21.407 20.5745 21.5741 20.4954 21.723C20.4259 21.8462 20.3237 21.9478 20.2002 22.0167C20.076 22.0823 19.9412 22.1256 19.802 22.1447C19.6568 22.1655 19.5104 22.1759 19.3637 22.1757C18.9602 22.1757 18.6567 22.0447 18.4621 21.7866C18.3375 21.6104 18.2504 21.4104 18.2062 21.1992V21.2067L17.7853 20.8911H16.9072C16.9434 21.2315 17.0251 21.5656 17.1502 21.8843C17.2677 22.1821 17.4444 22.453 17.6695 22.6806C17.8799 22.8871 18.1332 23.0448 18.4114 23.1424C18.7153 23.2467 19.0349 23.2979 19.3561 23.2938C19.708 23.2974 20.0584 23.2492 20.3963 23.1507C20.6828 23.0679 20.9504 22.9301 21.1843 22.745C21.3993 22.5697 21.5701 22.3465 21.6832 22.0932C21.8066 21.8066 21.8672 21.4968 21.861 21.1848C21.8685 20.901 21.8023 20.6201 21.6688 20.3695Z" fill="white"/>
<path d="M27.2578 20.4776C27.2287 20.7453 27.1611 21.0074 27.0572 21.2558C26.9579 21.49 26.8018 21.6958 26.603 21.8546C26.3751 22.0236 26.0962 22.1096 25.8127 22.0984C25.4864 22.0984 25.22 22.0159 25.0201 21.8531C24.8254 21.6929 24.6715 21.4887 24.5712 21.2573C24.4649 21.0097 24.397 20.7473 24.3699 20.4791C24.3399 20.2082 24.3247 19.9357 24.3244 19.6631C24.3248 19.3879 24.34 19.113 24.3699 18.8395C24.3961 18.5673 24.464 18.3007 24.5712 18.0492C24.6701 17.8157 24.8238 17.6095 25.0194 17.4481C25.22 17.2853 25.4864 17.2028 25.8127 17.2028C26.0962 17.1916 26.3751 17.2776 26.603 17.4466C26.8034 17.6066 26.9597 17.815 27.0572 18.0522C27.1604 18.3019 27.228 18.5649 27.2578 18.8334C27.2902 19.1075 27.3066 19.3833 27.307 19.6593C27.3067 19.9326 27.2903 20.2056 27.2578 20.4769M28.3986 18.2687C28.3964 18.2607 28.3946 18.2526 28.3933 18.2445C28.2893 17.8301 28.1152 17.4366 27.8786 17.081C27.6585 16.7558 27.366 16.4863 27.0239 16.2937C26.6484 16.1038 26.2335 16.0049 25.8127 16.0049C25.3919 16.0049 24.977 16.1038 24.6015 16.2937C24.2595 16.4858 23.9671 16.7551 23.7476 17.0802C23.5105 17.4356 23.3364 17.8292 23.2328 18.2437C23.2328 18.252 23.2328 18.2611 23.2275 18.2694V21.0287C23.2275 21.0363 23.2275 21.0454 23.2328 21.0529C23.337 21.4661 23.5111 21.8583 23.7476 22.2127C23.9675 22.5376 24.2598 22.8071 24.6015 23C24.9776 23.1901 25.3932 23.2892 25.8146 23.2892C26.236 23.2892 26.6516 23.1901 27.0277 23C27.3675 22.8069 27.658 22.5376 27.8763 22.2134C28.1127 21.859 28.2868 21.4668 28.3911 21.0537C28.3911 21.0461 28.3911 21.0378 28.3964 21.0295L28.3986 18.2687Z" fill="white"/>
<path d="M33.8573 20.4777C33.8283 20.7452 33.7613 21.0073 33.6582 21.2559C33.5587 21.49 33.4026 21.6957 33.204 21.8547C32.9758 22.0236 32.6967 22.1096 32.4129 22.0984C32.0874 22.0984 31.8202 22.0159 31.6204 21.8531C31.4258 21.6928 31.2719 21.4886 31.1715 21.2574C31.0652 21.0097 30.9972 20.7473 30.9701 20.4792C30.9401 20.2082 30.9249 19.9358 30.9247 19.6631C30.925 19.388 30.9402 19.113 30.9701 18.8395C30.9967 18.5674 31.0646 18.3009 31.1715 18.0492C31.2706 17.8157 31.4246 17.6095 31.6204 17.4481C31.8202 17.2854 32.0874 17.2029 32.4129 17.2029C32.6967 17.1918 32.9757 17.2778 33.204 17.4466C33.4043 17.6068 33.5605 17.8152 33.6582 18.0522C33.7609 18.302 33.8279 18.565 33.8573 18.8335C33.9219 19.3794 33.9219 19.931 33.8573 20.4769M34.9974 18.2687C34.9974 18.2612 34.9974 18.2528 34.9921 18.2445C34.8883 17.8301 34.7142 17.4365 34.4773 17.081C34.2574 16.7561 33.9651 16.4866 33.6234 16.2937C33.2473 16.1033 32.8318 16.0042 32.4103 16.0042C31.9888 16.0042 31.5732 16.1033 31.1972 16.2937C30.8554 16.4861 30.563 16.7553 30.3433 17.0802C30.1065 17.4357 29.9326 17.8293 29.8293 18.2438C29.8293 18.2521 29.8255 18.2612 29.8232 18.2695V21.0288C29.8232 21.0363 29.8232 21.0454 29.8293 21.053C29.9329 21.4662 30.1067 21.8585 30.3433 22.2127C30.5633 22.5378 30.8559 22.8074 31.198 23C31.5735 23.1896 31.9884 23.2884 32.4092 23.2884C32.8299 23.2884 33.2448 23.1896 33.6204 23C33.9622 22.8073 34.2545 22.5378 34.4743 22.2127C34.711 21.8585 34.8851 21.4662 34.989 21.053C34.9912 21.045 34.993 21.0369 34.9943 21.0288L34.9974 18.2687Z" fill="white"/>
<path d="M13.699 20.2303H12.2221L12.2607 20.119L12.2729 20.0834L12.9398 18.1031L13.02 17.8661L13.0995 18.1031L13.7808 20.1197L13.8179 20.2303H13.699ZM13.6945 16.4998L13.2744 16.0789H12.4742L10.1631 22.8707L10.4462 23.1538H11.3304L11.9277 21.4074L11.9473 21.3506H14.1078L14.1267 21.4074L14.1328 21.4248L14.7051 23.1538H15.5953L15.8777 22.8714L13.6945 16.4998Z" fill="white"/>
<path d="M5.50492 16.0796L5 16.5845V23.1538H6.31491V20.2098V20.1258H6.39894H9.28161V19.4263L8.86147 19.0054H6.39894H6.31491V18.9214V17.2832V17.1992H6.39894H9.54201V16.0796H5.50492Z" fill="white"/>
<circle cx="20" cy="20" r="19.5" stroke="black" stroke-opacity="0.05"/>
</svg>
