<svg width="40" height="40" viewBox="0 0 40 40" fill="none" xmlns="http://www.w3.org/2000/svg">
<circle cx="20" cy="20" r="20" fill="#3D2174"/>
<path d="M25.43 24.5384H12.5731C12.4216 24.5384 12.2763 24.4782 12.1692 24.3711C12.0621 24.264 12.002 24.1188 12.002 23.9673C12.002 24.2818 12.2576 24.6852 12.5731 24.8679L25.43 32.291C25.7454 32.472 26.0002 32.3639 26.0002 32.0484V24.4927C25.9981 24.3965 25.9784 24.3015 25.9422 24.2124C25.8962 24.3095 25.8238 24.3917 25.7331 24.4494C25.6425 24.5071 25.5373 24.5379 25.4299 24.5384" fill="#EC0382"/>
<path d="M25.43 23.5929L19.5349 20.189L12.5731 24.2089C12.2576 24.3908 12.002 24.2827 12.002 23.9673C12.0018 24.0424 12.0165 24.1167 12.0452 24.1861C12.0738 24.2555 12.1159 24.3186 12.1689 24.3717C12.222 24.4248 12.285 24.4669 12.3543 24.4957C12.4237 24.5245 12.498 24.5393 12.5731 24.5393H25.43C25.6549 24.5393 25.8517 24.4048 25.9423 24.2132C25.8437 23.9562 25.6638 23.7384 25.43 23.5929Z" fill="#801C8F"/>
<path d="M25.9991 8.32951C25.9991 8.01493 25.7442 7.90594 25.4298 8.08875L12.572 15.5118C12.2565 15.6928 12 16.0962 12 16.4106C12.0005 16.2593 12.0609 16.1144 12.1682 16.0076C12.2754 15.9009 12.4207 15.841 12.572 15.8413H25.4288C25.6537 15.8413 25.8498 15.9731 25.9411 16.1656C25.9771 16.0767 25.9968 15.982 25.9991 15.8862V8.32951Z" fill="#FAB220"/>
<path d="M25.43 15.8408H12.5731C12.4217 15.8408 12.2766 15.9009 12.1695 16.0078C12.0625 16.1147 12.0022 16.2597 12.002 16.4111C12.002 16.0956 12.2576 15.9885 12.5731 16.1704L19.5349 20.1895L25.4308 16.7854C25.6549 16.6554 25.8517 16.4102 25.9422 16.1651C25.8962 16.0682 25.8236 15.9862 25.7329 15.9288C25.6423 15.8714 25.5372 15.8409 25.4299 15.8408" fill="#F57615"/>
<path d="M12.5731 24.2092L19.5349 20.1892L12.5731 16.1701C12.2576 15.9882 12.002 16.0953 12.002 16.4108V23.9675C12.002 24.283 12.2576 24.391 12.5731 24.2092Z" fill="white"/>
<circle cx="20" cy="20" r="19.5" stroke="black" stroke-opacity="0.05"/>
</svg>
