<svg width="40" height="40" viewBox="0 0 40 40" fill="none" xmlns="http://www.w3.org/2000/svg">
<circle cx="20" cy="20" r="20" fill="#F6F8FA"/>
<path fill-rule="evenodd" clip-rule="evenodd" d="M20.0352 25.3958C21.6455 23.9323 22.6566 21.821 22.6566 19.4736C22.6566 17.1262 21.6455 15.0149 20.0352 13.5515C21.4558 12.2605 23.3429 11.4736 25.4137 11.4736C29.832 11.4736 33.4137 15.0554 33.4137 19.4736C33.4137 23.8919 29.832 27.4736 25.4137 27.4736C23.3429 27.4736 21.4558 26.6868 20.0352 25.3958Z" fill="#8EC63F"/>
<path fill-rule="evenodd" clip-rule="evenodd" d="M20.0352 13.5515C18.4248 15.0149 17.4137 17.1262 17.4137 19.4736C17.4137 21.8211 18.4248 23.9323 20.0352 25.3958C18.6145 26.6868 16.7274 27.4736 14.6566 27.4736C10.2383 27.4736 6.65656 23.8919 6.65656 19.4736C6.65656 15.0554 10.2383 11.4736 14.6566 11.4736C16.7274 11.4736 18.6145 12.2605 20.0352 13.5515Z" fill="#05508A"/>
<path d="M22.9729 16.4456C24.1029 20.2874 22.0238 23.9485 20.8486 24.988C26.0193 22.4208 25.8957 17.44 25.1876 15.2705C25.1876 15.2705 24.5096 15.4784 23.9673 15.7677C23.4249 16.0569 22.9729 16.4456 22.9729 16.4456Z" fill="white"/>
<path d="M26.1861 17.0923C26.3817 21.092 23.9673 23.6317 22.1141 24.8964C27.4023 23.5413 28.0802 18.1628 28.0802 16.7617C28.0802 16.7617 27.6359 16.6079 27.0407 16.7617C26.4455 16.9154 26.1861 17.0923 26.1861 17.0923Z" fill="white"/>
<path d="M17.0376 16.4456C15.9076 20.2874 17.9867 23.9485 19.1619 24.988C13.9912 22.4208 14.1147 17.44 14.8228 15.2705C14.8228 15.2705 15.5008 15.4784 16.0432 15.7677C16.5856 16.0569 17.0376 16.4456 17.0376 16.4456Z" fill="white"/>
<path d="M13.8242 17.0923C13.6286 21.092 16.0431 23.6317 17.8963 24.8964C12.6081 23.5413 11.9301 18.1628 11.9301 16.7617C11.9301 16.7617 12.3745 16.6079 12.9696 16.7617C13.5648 16.9154 13.8242 17.0923 13.8242 17.0923Z" fill="white"/>
<circle cx="20" cy="20" r="19.5" stroke="black" stroke-opacity="0.05"/>
</svg>
