<svg width="40" height="40" viewBox="0 0 40 40" fill="none" xmlns="http://www.w3.org/2000/svg">
<circle cx="20" cy="20" r="20" fill="#466FAC"/>
<path d="M25.3877 24.583H23.1465V12.6387H25.3877V24.583ZM27.5498 19.3711H24.7373V17.5342H27.5498V19.3711ZM22.1885 16.0752H12.6875V14.3086H22.1885V16.0752ZM17.4512 16.6377C18.2129 16.6377 18.8926 16.7695 19.4902 17.0332C20.0879 17.291 20.5537 17.6543 20.8877 18.123C21.2217 18.5918 21.3887 19.1309 21.3887 19.7402C21.3887 20.3438 21.2217 20.877 20.8877 21.3398C20.5537 21.7969 20.0879 22.1543 19.4902 22.4121C18.8926 22.6699 18.2129 22.7988 17.4512 22.7988C16.6777 22.7988 15.9893 22.6699 15.3857 22.4121C14.7822 22.1543 14.3135 21.7969 13.9795 21.3398C13.6455 20.877 13.4785 20.3438 13.4785 19.7402C13.4785 19.1309 13.6455 18.5918 13.9795 18.123C14.3135 17.6543 14.7822 17.291 15.3857 17.0332C15.9893 16.7695 16.6777 16.6377 17.4512 16.6377ZM17.4512 18.3604C17.0938 18.3604 16.7773 18.4131 16.502 18.5186C16.2324 18.624 16.0244 18.7822 15.8779 18.9932C15.7314 19.2041 15.6582 19.4531 15.6582 19.7402C15.6582 20.0273 15.7314 20.2734 15.8779 20.4785C16.0244 20.6777 16.2324 20.8301 16.502 20.9355C16.7773 21.041 17.0938 21.0938 17.4512 21.0938C17.8086 21.0938 18.1221 21.041 18.3916 20.9355C18.667 20.8301 18.8809 20.6777 19.0332 20.4785C19.1855 20.2734 19.2617 20.0273 19.2617 19.7402C19.2617 19.4531 19.1855 19.2041 19.0332 18.9932C18.8809 18.7822 18.667 18.624 18.3916 18.5186C18.1221 18.4131 17.8086 18.3604 17.4512 18.3604ZM18.5674 15.1787H16.3262V12.6123H18.5674V15.1787ZM25.959 28.3447H15.0078V26.5342H25.959V28.3447ZM17.249 27.3076H15.0078V23.6602H17.249V27.3076Z" fill="white"/>
<circle cx="20" cy="20" r="19.5" stroke="black" stroke-opacity="0.05"/>
</svg>
