<svg width="40" height="40" viewBox="0 0 40 40" fill="none" xmlns="http://www.w3.org/2000/svg">
<circle cx="20" cy="20" r="20" fill="#00A0DC"/>
<path d="M6.36425 17.5H6.6125C6.84529 17.5104 7.07414 17.5638 7.2875 17.6575C7.47655 17.7437 7.64114 17.8757 7.76638 18.0415C7.94563 18.2823 7.9775 18.5414 7.97525 18.85C7.97 19.55 7.97 20.24 7.97525 20.92C7.97925 21.4468 7.75425 21.8171 7.30025 22.0311C7.10021 22.1235 6.8843 22.1766 6.66425 22.1875H6.3125C6.01834 22.1768 5.73285 22.085 5.4875 21.9224C5.202 21.7281 5.0395 21.449 5 21.085V18.6044C5.057 18.1544 5.28975 17.8378 5.69825 17.6545C5.90958 17.5647 6.13496 17.5124 6.36425 17.5ZM7.03438 18.7075C7.03428 18.6489 7.02262 18.5908 7.00008 18.5367C6.97754 18.4826 6.94456 18.4334 6.90301 18.392C6.86146 18.3507 6.81217 18.3179 6.75794 18.2956C6.70372 18.2733 6.64563 18.2619 6.587 18.262H6.3905C6.27201 18.2623 6.15849 18.3096 6.07489 18.3936C5.99128 18.4775 5.94443 18.5913 5.94463 18.7097L5.94838 20.9875C5.94837 21.0462 5.95995 21.1043 5.98245 21.1585C6.00495 21.2127 6.03792 21.262 6.07948 21.3034C6.12103 21.3449 6.17036 21.3777 6.22463 21.4001C6.2789 21.4225 6.33705 21.4339 6.39575 21.4338H6.59225C6.71048 21.4335 6.82377 21.3863 6.90734 21.3027C6.9909 21.2191 7.03793 21.1057 7.03813 20.9875L7.03438 18.7075Z" fill="white"/>
<path d="M35.0002 17.6158V22.0843H34.1164C34.1138 22.0847 34.1112 22.0845 34.1088 22.0836C34.1063 22.0828 34.1041 22.0815 34.1023 22.0796C34.1005 22.0778 34.0991 22.0756 34.0983 22.0731C34.0975 22.0707 34.0972 22.0681 34.0976 22.0655V19.8564C34.0975 19.842 34.1 19.8277 34.1047 19.814C34.1096 19.8014 34.1107 19.7876 34.1077 19.7743C34.1044 19.7597 34.0987 19.7589 34.0909 19.7713C34.0417 19.8485 34.0335 19.9179 34.0057 19.9989C33.7727 20.6739 33.5352 21.3622 33.2932 22.0637C33.2915 22.0703 33.2875 22.0761 33.282 22.08C33.2764 22.084 33.2697 22.0859 33.2629 22.0854H32.6572C32.6512 22.0854 32.6453 22.0835 32.6403 22.0799C32.6354 22.0763 32.6318 22.0713 32.6299 22.0655C32.4196 21.4468 32.2057 20.8255 31.9882 20.2018C31.9382 20.0553 31.897 19.9284 31.8645 19.8212C31.8409 19.7413 31.8292 19.7428 31.8292 19.8264L31.8315 22.0607C31.8319 22.0638 31.8316 22.067 31.8306 22.0701C31.8296 22.0731 31.8279 22.0758 31.8256 22.0781C31.8234 22.0803 31.8207 22.082 31.8176 22.083C31.8146 22.0841 31.8114 22.0844 31.8082 22.0839H30.9457C30.9425 22.0844 30.9392 22.0841 30.9361 22.083C30.933 22.0819 30.9302 22.0802 30.9279 22.0778C30.9256 22.0755 30.9239 22.0727 30.9229 22.0696C30.9219 22.0665 30.9216 22.0632 30.9221 22.0599V17.6327C30.9221 17.6277 30.9241 17.6229 30.9276 17.6194C30.9311 17.6159 30.9359 17.6139 30.9409 17.6139H31.9121C31.919 17.6139 31.9256 17.6161 31.9312 17.6201C31.9367 17.6242 31.9408 17.6299 31.9429 17.6364L32.9554 20.7635C32.9632 20.7872 32.9707 20.7872 32.9782 20.7635L33.9814 17.6417C33.9835 17.6334 33.9884 17.6261 33.9952 17.621C34.002 17.6159 34.0104 17.6133 34.0189 17.6135L35.0002 17.6158Z" fill="white"/>
<path d="M9.56338 20.4463C9.56201 20.4461 9.56061 20.4462 9.5593 20.4467C9.55798 20.4471 9.55679 20.4479 9.55581 20.4488C9.55483 20.4498 9.55409 20.451 9.55365 20.4523C9.5532 20.4536 9.55307 20.455 9.55326 20.4564V22.0569C9.55383 22.0606 9.55352 22.0645 9.55235 22.068C9.55117 22.0716 9.54917 22.0749 9.54651 22.0775C9.54384 22.0802 9.54058 22.0822 9.537 22.0834C9.53342 22.0846 9.52961 22.0849 9.52588 22.0843H8.63976C8.63685 22.0847 8.63387 22.0845 8.63108 22.0836C8.62828 22.0827 8.62574 22.0811 8.62366 22.079C8.62157 22.0769 8.62001 22.0744 8.6191 22.0716C8.61818 22.0688 8.61793 22.0658 8.61838 22.0629V17.6379C8.61842 17.6355 8.61896 17.6331 8.61996 17.6309C8.62096 17.6287 8.6224 17.6268 8.6242 17.6251C8.62599 17.6235 8.6281 17.6223 8.63039 17.6215C8.63268 17.6208 8.6351 17.6205 8.63751 17.6207C9.03751 17.6207 9.44126 17.6207 9.84876 17.6207C10.0433 17.6207 10.2323 17.6258 10.4158 17.636C10.6041 17.6529 10.7871 17.7075 10.9539 17.7965C11.1372 17.8855 11.2922 18.0237 11.4016 18.1955C11.5235 18.3872 11.5569 18.5739 11.558 18.7955C11.558 18.9985 11.5568 19.1902 11.5543 19.3704C11.5468 19.7589 11.2993 20.0957 10.9565 20.2682C10.7354 20.3798 10.4917 20.4392 10.244 20.4418C10.0083 20.4443 9.78138 20.4458 9.56338 20.4463ZM9.55551 18.386L9.55101 19.688C9.55101 19.6916 9.55243 19.6951 9.55496 19.6976C9.55749 19.7001 9.56093 19.7015 9.56451 19.7015H10.1296C10.403 19.7015 10.6254 19.4983 10.6265 19.2452V18.8327C10.6265 18.5795 10.4064 18.3737 10.133 18.3725L9.56788 18.3707C9.56603 18.3708 9.56424 18.3713 9.5626 18.3722C9.56096 18.373 9.55951 18.3742 9.55835 18.3757C9.55719 18.3771 9.55634 18.3788 9.55585 18.3806C9.55536 18.3823 9.55524 18.3842 9.55551 18.386Z" fill="white"/>
<path d="M12.7899 18.372H11.8194C11.816 18.372 11.8128 18.3706 11.8104 18.3682C11.808 18.3658 11.8066 18.3626 11.8066 18.3592V17.6343C11.8066 17.631 11.808 17.6277 11.8104 17.6253C11.8128 17.6229 11.816 17.6216 11.8194 17.6216H14.7204C14.7238 17.6216 14.727 17.6229 14.7294 17.6253C14.7318 17.6277 14.7331 17.631 14.7331 17.6343V18.3592C14.7331 18.3626 14.7318 18.3658 14.7294 18.3682C14.727 18.3706 14.7238 18.372 14.7204 18.372H13.7521C13.7488 18.372 13.7455 18.3733 13.7431 18.3757C13.7407 18.3781 13.7394 18.3813 13.7394 18.3847V22.0717C13.7394 22.0751 13.738 22.0783 13.7357 22.0807C13.7333 22.0831 13.73 22.0845 13.7266 22.0845H12.815C12.8116 22.0845 12.8084 22.0831 12.806 22.0807C12.8036 22.0783 12.8023 22.0751 12.8023 22.0717V18.3847C12.8023 18.3814 12.801 18.3782 12.7987 18.3758C12.7964 18.3734 12.7932 18.3721 12.7899 18.372Z" fill="white"/>
<path d="M16.1802 17.6211H15.2659C15.2593 17.6211 15.2539 17.6265 15.2539 17.6331V22.0723C15.2539 22.079 15.2593 22.0843 15.2659 22.0843H16.1802C16.1868 22.0843 16.1922 22.079 16.1922 22.0723V17.6331C16.1922 17.6265 16.1868 17.6211 16.1802 17.6211Z" fill="white"/>
<path d="M17.9286 20.4711V22.0645C17.9289 22.0672 17.9287 22.0699 17.9278 22.0725C17.927 22.075 17.9255 22.0774 17.9236 22.0793C17.9216 22.0812 17.9193 22.0826 17.9167 22.0834C17.9141 22.0842 17.9114 22.0844 17.9087 22.084H17.0057C17.0027 22.0844 16.9997 22.0841 16.9968 22.0832C16.994 22.0823 16.9914 22.0807 16.9892 22.0786C16.9871 22.0765 16.9855 22.0739 16.9845 22.0711C16.9835 22.0682 16.9832 22.0652 16.9836 22.0622V17.6383C16.9836 17.6338 16.9855 17.6295 16.9887 17.6263C16.9919 17.623 16.9963 17.6212 17.0008 17.6211H18.2342C18.5469 17.6211 18.7302 17.6245 18.7839 17.6312C18.9676 17.6528 19.1463 17.7051 19.3127 17.7857C19.5669 17.9076 19.8002 18.1472 19.8808 18.4165C19.9201 18.5619 19.9394 18.7121 19.9382 18.8627C19.9412 19.0925 19.9367 19.28 19.9247 19.4252C19.8823 19.9363 19.4623 20.2877 18.9774 20.398C18.8992 20.4138 18.8203 20.4253 18.7408 20.4325C18.4851 20.4602 18.2139 20.4441 17.9552 20.4441C17.9515 20.4435 17.9478 20.4438 17.9442 20.4449C17.9407 20.4461 17.9375 20.4481 17.9349 20.4507C17.9323 20.4534 17.9303 20.4566 17.9292 20.4601C17.9281 20.4637 17.9279 20.4674 17.9286 20.4711ZM17.9312 18.3838L17.9267 19.6903C17.9266 19.6918 17.9269 19.6933 17.9274 19.6947C17.928 19.6961 17.9288 19.6974 17.9299 19.6984C17.9309 19.6995 17.9322 19.7003 17.9336 19.7008C17.9349 19.7014 17.9364 19.7016 17.9379 19.7016H18.5038C18.7798 19.7016 19.0041 19.495 19.0052 19.2377V18.8402C19.0052 18.583 18.7832 18.3737 18.5072 18.3726L17.9413 18.3707C17.9398 18.3707 17.9383 18.3709 17.9369 18.3715C17.9355 18.372 17.9343 18.3728 17.9332 18.3739C17.9322 18.375 17.9313 18.3762 17.9308 18.3776C17.9303 18.379 17.93 18.3805 17.9301 18.382L17.9312 18.3838Z" fill="white"/>
<path d="M22.2496 19.45V17.6346C22.2496 17.6314 22.2509 17.6284 22.2531 17.6261C22.2554 17.6239 22.2584 17.6226 22.2616 17.6226H23.1755C23.1787 17.6226 23.1817 17.6239 23.184 17.6261C23.1862 17.6284 23.1875 17.6314 23.1875 17.6346V22.072C23.1875 22.0752 23.1862 22.0782 23.184 22.0805C23.1817 22.0827 23.1787 22.084 23.1755 22.084H22.2597C22.2565 22.084 22.2535 22.0827 22.2512 22.0805C22.249 22.0782 22.2477 22.0752 22.2477 22.072V20.2491C22.2477 20.2459 22.2465 20.2429 22.2442 20.2406C22.242 20.2384 22.2389 20.2371 22.2357 20.2371H21.3144C21.3112 20.2371 21.3081 20.2384 21.3059 20.2406C21.3036 20.2429 21.3024 20.2459 21.3024 20.2491V22.0723C21.3024 22.0755 21.3011 22.0786 21.2988 22.0808C21.2966 22.0831 21.2935 22.0843 21.2904 22.0843H20.3724C20.3692 22.0843 20.3661 22.0831 20.3639 22.0808C20.3616 22.0786 20.3604 22.0755 20.3604 22.0723V17.6331C20.3604 17.6299 20.3616 17.6269 20.3639 17.6246C20.3661 17.6224 20.3692 17.6211 20.3724 17.6211H21.2907C21.2939 17.6211 21.297 17.6224 21.2992 17.6246C21.3015 17.6269 21.3027 17.6299 21.3027 17.6331V19.45C21.3027 19.4532 21.304 19.4562 21.3062 19.4585C21.3085 19.4607 21.3115 19.462 21.3147 19.462H22.2369C22.2385 19.4621 22.2401 19.4618 22.2417 19.4613C22.2432 19.4607 22.2446 19.4599 22.2458 19.4587C22.247 19.4576 22.248 19.4562 22.2486 19.4547C22.2493 19.4532 22.2496 19.4516 22.2496 19.45Z" fill="white"/>
<path d="M25.8501 21.2441H24.7048C24.7021 21.2441 24.6994 21.245 24.6972 21.2467C24.695 21.2484 24.6935 21.2508 24.6928 21.2535L24.5001 22.0751C24.4994 22.0778 24.4979 22.0801 24.4957 22.0818C24.4935 22.0835 24.4908 22.0845 24.4881 22.0845H23.5779C23.5747 22.0845 23.5715 22.0832 23.5692 22.0808C23.5669 22.0785 23.5656 22.0754 23.5656 22.0721C23.5654 22.071 23.5654 22.0698 23.5656 22.0687L24.7656 17.6306C24.7663 17.628 24.7679 17.6257 24.77 17.6241C24.7722 17.6224 24.7749 17.6216 24.7776 17.6216H25.7717C25.7744 17.6216 25.777 17.6224 25.7792 17.6241C25.7814 17.6257 25.783 17.628 25.7837 17.6306L26.9837 22.0691C26.9841 22.0707 26.9843 22.0723 26.9841 22.0739C26.9839 22.0756 26.9834 22.0771 26.9826 22.0786C26.9818 22.08 26.9807 22.0813 26.9794 22.0823C26.9781 22.0833 26.9766 22.084 26.9751 22.0845H26.0657C26.0629 22.0844 26.0602 22.0835 26.058 22.0817C26.0558 22.0799 26.0543 22.0775 26.0537 22.0747L25.8632 21.2542C25.8626 21.2512 25.861 21.2485 25.8586 21.2466C25.8561 21.2448 25.8531 21.2438 25.8501 21.2441ZM25.2542 18.8321L24.8619 20.5196C24.8593 20.5316 24.8638 20.5376 24.8762 20.5376H25.6716C25.6744 20.5376 25.6773 20.5371 25.6799 20.536C25.6826 20.535 25.685 20.5334 25.6871 20.5313C25.6891 20.5293 25.6907 20.5269 25.6918 20.5242C25.6928 20.5216 25.6934 20.5187 25.6933 20.5158C25.6937 20.5142 25.6937 20.5126 25.6933 20.511C25.5753 20.0135 25.4566 19.5093 25.3371 18.9986C25.3196 18.9221 25.3087 18.867 25.3044 18.8332C25.2932 18.7376 25.2767 18.7376 25.2542 18.8321Z" fill="white"/>
<path d="M29.8592 20.1797C30.172 20.3117 30.331 20.5307 30.3302 20.8922C30.3302 21.2884 30.3302 21.6766 30.3302 22.0566C30.3301 22.0631 30.3275 22.0693 30.3229 22.074C30.3183 22.0786 30.312 22.0812 30.3055 22.0813H29.4126C29.4098 22.0817 29.4069 22.0814 29.4042 22.0805C29.4014 22.0795 29.399 22.078 29.3969 22.076C29.3949 22.0739 29.3934 22.0715 29.3925 22.0688C29.3915 22.0661 29.3912 22.0632 29.3916 22.0603C29.3916 21.6531 29.3916 21.2544 29.3916 20.8644C29.3916 20.5956 29.1741 20.4489 28.9251 20.4452C28.7409 20.4427 28.5464 20.4427 28.3416 20.4452C28.339 20.4449 28.3363 20.4452 28.3338 20.446C28.3314 20.4469 28.3291 20.4484 28.3273 20.4502C28.3254 20.4521 28.324 20.4544 28.3232 20.4569C28.3224 20.4594 28.3221 20.4621 28.3225 20.4647V22.0659C28.3228 22.0683 28.3226 22.0707 28.3218 22.073C28.321 22.0753 28.3197 22.0773 28.318 22.079C28.3163 22.0807 28.3142 22.0819 28.3119 22.0826C28.3096 22.0834 28.3072 22.0836 28.3049 22.0832H27.3932C27.39 22.0832 27.3868 22.0819 27.3845 22.0796C27.3822 22.0772 27.3809 22.0741 27.3809 22.0708V17.6334C27.3809 17.6299 27.3822 17.6265 27.3847 17.624C27.3871 17.6215 27.3905 17.62 27.394 17.6199C27.9092 17.6199 28.4352 17.6199 28.972 17.6199C29.1975 17.6179 29.4212 17.6612 29.6297 17.7471C29.7716 17.8042 29.9007 17.889 30.0095 17.9966C30.1182 18.1042 30.2045 18.2324 30.2631 18.3737C30.2953 18.471 30.3161 18.5716 30.325 18.6737C30.3402 18.7902 30.3389 19.0277 30.3209 19.3862C30.3036 19.7249 30.1491 19.9793 29.8574 20.1493C29.8375 20.1602 29.8379 20.1707 29.8592 20.1797ZM28.3251 18.3789L28.3229 19.6832C28.3229 19.6857 28.3238 19.6881 28.3256 19.6898C28.3274 19.6916 28.3297 19.6926 28.3322 19.6926H28.9577C29.0702 19.6954 29.1792 19.6536 29.2609 19.5763C29.3426 19.499 29.3904 19.3925 29.3939 19.2801V18.7866C29.3913 18.6738 29.3441 18.5667 29.2626 18.4888C29.1811 18.4109 29.072 18.3686 28.9592 18.3711H28.3337C28.3316 18.3712 28.3296 18.3721 28.328 18.3735C28.3265 18.3749 28.3254 18.3768 28.3251 18.3789Z" fill="white"/>
<circle cx="20" cy="20" r="19.5" stroke="black" stroke-opacity="0.05"/>
</svg>
