<svg width="40" height="40" viewBox="0 0 40 40" fill="none" xmlns="http://www.w3.org/2000/svg">
<circle cx="20" cy="20" r="20" fill="#F6F8FA"/>
<g clip-path="url(#clip0_46604_83234)">
<path d="M16.0914 21.628C16.5276 21.9366 17.0597 22.2035 17.6006 22.1701C17.714 22.1701 17.8013 22.1284 17.8623 22.07C18.0979 21.8448 17.7838 21.6613 17.5745 21.6113C17.2953 21.5529 17.0685 21.4945 16.8852 21.4445C15.4109 21.0525 15.3847 19.3761 16.3792 18.5421C17.3651 17.7164 18.9441 17.9249 20.0085 18.4837C20.0259 18.492 20.0346 18.5087 20.0259 18.5254L19.4327 19.9015C19.4327 19.9015 19.3978 19.9266 19.3803 19.9266C19.3803 19.9266 19.3803 19.9266 19.3716 19.9266C19.075 19.7014 18.7435 19.5679 18.3771 19.5179C18.1764 19.4929 17.8536 19.5095 17.7838 19.7347C17.7315 19.9349 18.159 20.06 18.316 20.1017C18.5864 20.1768 19.0139 20.2268 19.3018 20.3769C19.9474 20.7105 20.1917 21.2944 20.1044 21.9866C19.9823 22.854 19.2757 23.4962 18.3858 23.6797C17.3912 23.8882 16.3007 23.6463 15.4021 23.1543C15.3847 23.1543 15.3847 23.1292 15.3934 23.1209L16.0303 21.6447C16.0303 21.6447 16.0565 21.6196 16.0826 21.628H16.0914Z" fill="#2E5BA7"/>
<path d="M12.2178 23.7547C10.9789 23.7547 9.83607 23.1709 9.63542 21.9115C9.60925 21.7197 9.5918 21.4444 9.5918 21.0858C9.5918 19.9348 9.5918 18.959 9.5918 18.1584C9.5918 18.1417 9.60925 18.125 9.62669 18.125H11.6158C11.6158 18.125 11.6594 18.1417 11.6594 18.1667C11.6594 19.3093 11.6594 20.3602 11.6594 21.3026C11.6594 21.678 11.7728 22.0283 12.2265 22.0283C12.6801 22.0283 12.7935 21.678 12.7935 21.3026C12.7935 20.3602 12.7935 19.3177 12.7935 18.1667C12.7935 18.1417 12.811 18.125 12.8372 18.125H14.8263C14.8263 18.125 14.8612 18.1417 14.8612 18.1584C14.8612 18.959 14.8612 19.9348 14.8612 21.0858C14.8612 21.4444 14.8437 21.7197 14.8175 21.9115C14.6169 23.1709 13.474 23.7464 12.2352 23.7464L12.2178 23.7547Z" fill="#2E5BA7"/>
<path d="M22.5737 18.125C23.7602 18.125 24.4756 18.125 24.7199 18.125C24.7373 18.125 24.7548 18.1417 24.7548 18.1584V19.9099C24.7548 19.9099 24.7373 19.9349 24.7286 19.9349H23.6381C23.6381 19.9349 23.6119 19.9432 23.6119 19.9599V23.5879C23.6119 23.5879 23.5945 23.6213 23.577 23.6213C23.5508 23.6213 23.2193 23.6213 22.5825 23.6213C21.9456 23.6213 21.6141 23.6213 21.5879 23.6213C21.5705 23.6213 21.553 23.6046 21.553 23.5879V19.9516C21.553 19.9516 21.5356 19.9265 21.5268 19.9265H20.4363C20.4363 19.9265 20.4102 19.9182 20.4102 19.9015V18.1501C20.4102 18.1501 20.4189 18.1167 20.4363 18.1167C20.6806 18.1167 21.396 18.1167 22.5825 18.1167L22.5737 18.125Z" fill="#2E5BA7"/>
<path d="M32.1442 20.4186C32.1442 20.4186 32.1442 20.427 32.153 20.427L33.418 18.1667C33.418 18.1667 33.4529 18.125 33.4877 18.125C34.2031 18.125 34.9534 18.125 35.7386 18.125C35.756 18.125 35.7647 18.125 35.7647 18.1417C35.7647 18.1834 34.8836 19.5345 34.0723 20.7939C34.0723 20.8023 34.0723 20.819 34.0723 20.8356L35.9916 23.5796C35.9916 23.5796 35.9916 23.5963 35.9916 23.6046C35.9916 23.6046 35.9916 23.6046 35.9828 23.6046H33.575C33.575 23.6046 33.5226 23.5879 33.5052 23.5712L32.1704 21.3611C32.1704 21.3611 32.1617 21.3611 32.153 21.3611C32.153 21.3611 32.153 21.3611 32.153 21.3694V23.5796C32.153 23.5796 32.1442 23.6046 32.1268 23.6046H30.1726C30.1726 23.6046 30.1377 23.5879 30.1377 23.5712V18.1501C30.1377 18.1501 30.1551 18.1167 30.1726 18.1167H32.1268C32.1268 18.1167 32.1617 18.1334 32.1617 18.1501V20.4103L32.1442 20.4186Z" fill="#2E5BA7"/>
<path d="M29.3002 22.1451V23.5796C29.3002 23.5796 29.2827 23.6129 29.2653 23.6129H25.4529C25.4529 23.6129 25.418 23.5963 25.418 23.5796V18.1501C25.418 18.1501 25.4354 18.1167 25.4529 18.1167H29.2217C29.2217 18.1167 29.2566 18.1334 29.2566 18.1501V19.5846C29.2566 19.5846 29.2391 19.618 29.2217 19.618H27.4681C27.4681 19.618 27.4332 19.6346 27.4332 19.6513V20.11C27.4332 20.11 27.4507 20.1434 27.4681 20.1434H29.0559C29.0559 20.1434 29.0908 20.1601 29.0908 20.1767V21.5195C29.0908 21.5195 29.0734 21.5529 29.0559 21.5529H27.4681C27.4681 21.5529 27.4332 21.5696 27.4332 21.5863V22.1034C27.4332 22.1034 27.4507 22.1367 27.4681 22.1367H29.2653C29.2653 22.1367 29.3002 22.1534 29.3002 22.1701V22.1451Z" fill="#2E5BA7"/>
<path d="M4.0087 24.8559C4.0087 24.8559 4.11338 24.7641 4.29659 24.6057C4.50597 24.4222 4.65428 24.2137 4.7328 23.9801C4.78514 23.8217 4.81131 23.5715 4.81131 23.2212C4.81131 21.0944 4.81131 19.418 4.81131 18.2003C4.81131 18.1836 4.82004 18.1753 4.83748 18.1753H8.75461C8.75461 18.1753 8.78078 18.1836 8.78078 18.2003C8.78078 20.7024 8.78078 22.237 8.78078 22.8208C8.78078 23.5631 8.76333 24.0969 8.70226 24.4222C8.45799 25.6982 7.76006 26.8492 6.68699 27.6499C6.52124 27.775 6.3642 27.8917 6.18972 28.0085C6.181 28.0085 6.16355 28.0085 6.15482 28.0085L3.99997 24.9059C3.99997 24.9059 3.99125 24.8642 3.99997 24.8559H4.0087ZM5.73607 19.0677C5.72734 21.9701 5.71862 23.438 5.72734 23.4714C5.72734 24.0218 5.55286 24.5222 5.18645 24.9726C5.17772 24.981 5.17772 24.9976 5.18645 25.006L6.39037 26.7241C6.39037 26.7241 6.41655 26.7408 6.42527 26.7241C7.14937 26.0569 7.61175 25.2645 7.8124 24.3471C7.8822 24.0302 7.90837 23.5548 7.89964 22.9209C7.89964 22.7124 7.89964 21.4197 7.89964 19.051C7.89964 19.0427 7.89092 19.0343 7.8822 19.0343H5.78841C5.78841 19.0343 5.75352 19.051 5.75352 19.0677H5.73607Z" fill="#2E5BA7"/>
</g>
<circle cx="20" cy="20" r="19.5" stroke="black" stroke-opacity="0.05"/>
<defs>
<clipPath id="clip0_46604_83234">
<rect width="33" height="12" fill="white" transform="translate(3 17)"/>
</clipPath>
</defs>
</svg>
