<svg width="40" height="40" viewBox="0 0 40 40" fill="none" xmlns="http://www.w3.org/2000/svg">
<circle cx="20" cy="20" r="20" fill="#F6F8FA"/>
<g clip-path="url(#clip0_18553_55711)">
<path d="M24.9754 26.4945C24.9754 26.4945 25.0029 26.4945 24.9919 26.4717L19.7331 16.2217C19.7331 16.2217 19.7276 16.2217 19.7221 16.2217C18.0646 19.4547 16.4071 22.6933 14.7496 25.9263C14.7386 25.949 14.7166 25.966 14.6891 25.9717C13.3014 26.2501 11.9302 26.6308 10.5756 27.1138C10.5701 27.1138 10.5646 27.1138 10.5591 27.1081C10.5591 27.1081 10.5591 27.1024 10.5591 27.0967C13.3454 21.6422 16.1153 16.2331 18.8686 10.8638C18.9732 10.6649 19.0503 10.5342 19.1109 10.4774C19.4578 10.1251 19.9974 10.1308 20.3443 10.4774C20.3994 10.5342 20.471 10.6422 20.5481 10.7956C23.4501 16.4547 26.3521 22.1195 29.254 27.7785C29.2706 27.807 29.2926 27.8297 29.3256 27.841C30.2232 28.2104 31.1153 28.6592 31.9963 29.182C32.0514 29.2104 32.0459 29.2217 31.9853 29.2047C28.7309 28.324 25.3774 27.8297 22.0128 27.6706C21.2584 27.6365 20.515 27.6138 19.7882 27.6081C19.3807 27.6081 18.8851 27.6081 18.3069 27.6251C14.4908 27.7217 10.7408 28.2217 7.07892 29.2047C7.02386 29.2217 7.02386 29.2104 7.06791 29.182C10.4875 27.1535 14.4468 26.1138 18.406 25.949C20.6362 25.8581 22.8223 26.0399 24.9754 26.4945Z" fill="#CE3D43"/>
<path d="M20.1521 22.4266C20.053 22.8527 19.8602 23.2561 19.6345 23.6368C19.5904 23.705 19.5133 23.7448 19.4583 23.6595C19.2215 23.2902 19.0508 22.9038 18.9406 22.5061C18.825 22.0857 18.803 21.5175 19.2821 21.3129C19.4638 21.2334 19.6895 21.2448 19.8602 21.3414C20.053 21.455 20.1631 21.6254 20.1961 21.8584C20.2182 22.0402 20.2017 22.2391 20.1576 22.4266H20.1521Z" fill="#97BC55"/>
<path d="M18.8801 24.2732C18.3515 24.1482 17.2557 23.7788 17.1566 23.1084C17.1015 22.7277 17.3713 22.3584 17.7513 22.3357C17.944 22.3243 18.0927 22.3698 18.2414 22.4948C18.5277 22.7391 18.7039 23.0857 18.8416 23.455C18.9132 23.6538 18.9737 23.847 19.0178 24.0288C19.0343 24.097 19.0508 24.1538 19.0453 24.2277C19.0453 24.2561 19.0233 24.2788 19.0013 24.2845C18.9572 24.2959 18.9242 24.2845 18.8801 24.2732Z" fill="#97BC55"/>
<path d="M20.9884 24.0058C20.7241 24.1251 20.4433 24.216 20.1459 24.2842C20.0358 24.3126 20.0138 24.2217 20.0303 24.1364C20.0964 23.8239 20.201 23.5114 20.3332 23.2103C20.4708 22.9035 20.6691 22.5853 20.9444 22.4148C21.1426 22.2955 21.4345 22.3126 21.6217 22.4376C21.7373 22.5171 21.8144 22.6137 21.864 22.733C22.1283 23.3637 21.4565 23.7955 20.9939 24.0001L20.9884 24.0058Z" fill="#97BC55"/>
</g>
<circle cx="20" cy="20" r="19.5" stroke="black" stroke-opacity="0.05"/>
<defs>
<clipPath id="clip0_18553_55711">
<rect width="25" height="19" fill="white" transform="translate(7.03516 10.2104)"/>
</clipPath>
</defs>
</svg>
