<svg width="40" height="40" viewBox="0 0 40 40" fill="none" xmlns="http://www.w3.org/2000/svg">
<circle cx="20" cy="20" r="20" fill="#314194"/>
<g clip-path="url(#clip0_18553_55697)">
<path d="M18.3754 19.4702C18.3754 19.4702 18.3754 19.5602 18.3954 19.6002C18.5054 19.8202 18.6754 19.9302 18.9254 19.9302C19.8154 19.9302 20.7354 19.9302 21.6854 19.9302C22.2254 19.9302 22.6354 20.1202 22.9254 20.4902C23.4954 21.2302 23.2754 22.3102 22.4354 22.7202C22.1954 22.8402 21.8654 22.9002 21.4754 22.8902C20.3254 22.8802 19.1954 22.8802 18.0654 22.8902C17.6954 22.8902 17.5254 22.7202 17.5354 22.3802C17.5354 22.0302 17.6654 21.8502 18.0454 21.8502C19.2854 21.8502 20.5254 21.8502 21.7754 21.8502C22.0654 21.8502 22.2054 21.7102 22.2054 21.4202V21.3602C22.2054 21.1602 22.0554 21.0002 21.8554 21.0002C21.0054 20.9802 20.1354 20.9702 19.2254 21.0002C18.7854 21.0002 18.4454 20.9602 18.2054 20.8502C17.3554 20.4602 17.1154 19.3702 17.6654 18.6302C17.9354 18.2102 18.3454 18.0102 18.8654 18.0002C19.9954 17.9902 21.2254 17.9902 22.5454 18.0002C22.9054 18.0002 23.0654 18.1802 23.0654 18.5302C23.0654 18.8602 22.8954 19.0302 22.5654 19.0302C21.3954 19.0302 20.1454 19.0302 18.8354 19.0502C18.5854 19.0502 18.4354 19.1902 18.3754 19.4702Z" fill="white"/>
<path d="M35.3253 19.1C35.3253 19.1 35.2353 19.06 35.1853 19.06C34.1753 19.03 33.1253 19.03 32.0453 19.06C31.8153 19.06 31.7053 19.18 31.7053 19.41C31.7053 20.37 31.7053 21.35 31.6953 22.33C31.6953 22.64 31.5253 22.82 31.1953 22.87C31.1853 22.87 31.1753 22.87 31.1653 22.87C30.8253 22.82 30.6553 22.6301 30.6553 22.2901C30.6753 21.4401 30.6753 20.57 30.6553 19.68C30.6553 19.22 30.7053 18.88 30.8353 18.66C31.0853 18.22 31.5153 18 32.1053 18C33.0653 17.99 34.0553 18 35.0653 18C35.6853 18 36.1153 18.22 36.3553 18.65C36.4953 18.89 36.5553 19.3201 36.5553 19.9401C36.5553 20.8101 36.5553 21.6201 36.5353 22.3601C36.5353 22.6901 36.3653 22.85 36.0353 22.85H36.0153C35.6853 22.85 35.5253 22.6801 35.5253 22.3601C35.5253 21.3801 35.5253 20.39 35.5053 19.39C35.5053 19.26 35.4453 19.16 35.3253 19.1Z" fill="white"/>
<path d="M27.0752 19.5202C26.9552 19.4502 26.8052 19.4802 26.7252 19.5902C26.0052 20.5702 25.2652 21.5802 24.4952 22.6002C24.0852 23.1502 23.2252 22.5702 23.7352 21.8902C24.5552 20.8102 25.3552 19.7202 26.1352 18.6302C26.3052 18.3902 26.4752 18.2302 26.6552 18.1602C27.0252 17.9902 27.3552 18.1002 27.6452 18.4802C28.5352 19.6902 29.4052 20.8702 30.2352 22.0102C30.4152 22.2602 30.3852 22.4902 30.1252 22.7002C30.1252 22.7002 30.1152 22.7002 30.1052 22.7102C29.8252 22.8902 29.5852 22.8502 29.3952 22.6002C28.6252 21.5802 27.9152 20.6202 27.2552 19.7202C27.1752 19.6202 27.1252 19.5502 27.0752 19.5302V19.5202Z" fill="white"/>
<path d="M4.03516 18.5599C4.03516 18.3299 4.21516 18.1399 4.45516 18.1399H7.48516C8.83516 18.1199 9.93516 19.1899 9.93516 20.4999V20.5199C9.93516 21.8299 8.84516 22.8999 7.49516 22.9099H4.46516C4.23516 22.9199 4.04516 22.7399 4.04516 22.4999V18.5599H4.03516ZM5.07516 19.2899V21.7499C5.06516 21.8099 5.11516 21.8699 5.17516 21.8699H7.48516C8.25516 21.8899 8.88516 21.2899 8.88516 20.5499C8.88516 19.7999 8.26516 19.1999 7.50516 19.1899H5.19516C5.13516 19.1799 5.07516 19.2299 5.07516 19.2899Z" fill="white"/>
<path d="M13.7352 19.5901C13.6152 19.5101 13.4552 19.5401 13.3652 19.6501C12.6052 20.6701 11.8752 21.6601 11.1852 22.6101C10.7252 23.2401 9.88518 22.6301 10.3752 21.9701C11.1152 20.9801 11.9052 19.9001 12.7452 18.7401C13.3552 17.9001 13.8952 17.9701 14.4852 18.7801C15.2652 19.8701 16.0652 20.9501 16.8752 22.0301C17.2852 22.5701 16.4952 23.2601 16.0052 22.6001C15.3252 21.6801 14.6152 20.7101 13.8752 19.7201C13.8352 19.6701 13.7952 19.6301 13.7452 19.6001L13.7352 19.5901Z" fill="white"/>
<path d="M12.5156 22.5898L13.4556 21.3298C13.5156 21.2498 13.6256 21.2398 13.7056 21.2898C13.7156 21.2998 13.7356 21.3098 13.7456 21.3298L14.6856 22.5898C14.7456 22.6698 14.7256 22.7798 14.6456 22.8398C14.6156 22.8598 14.5756 22.8698 14.5356 22.8698H12.6556C12.5556 22.8698 12.4756 22.7898 12.4756 22.6898C12.4756 22.6498 12.4856 22.6198 12.5056 22.5798L12.5156 22.5898Z" fill="white"/>
<path d="M25.8554 22.5499C26.1354 22.1399 26.4154 21.7599 26.7054 21.3999C26.8054 21.2699 26.9954 21.2499 27.1254 21.3499C27.1454 21.3699 27.1654 21.3799 27.1754 21.3999C27.4454 21.7499 27.7254 22.1299 28.0154 22.5299C28.0554 22.5899 28.0654 22.6699 28.0354 22.7399C28.0154 22.7699 27.9854 22.7899 27.9154 22.7899C27.2654 22.7999 26.6154 22.7999 25.9454 22.7899C25.8954 22.7899 25.8454 22.7599 25.8254 22.7099C25.8054 22.6499 25.8154 22.5899 25.8554 22.5399V22.5499Z" fill="white"/>
</g>
<circle cx="20" cy="20" r="19.5" stroke="black" stroke-opacity="0.05"/>
<defs>
<clipPath id="clip0_18553_55697">
<rect width="32.52" height="4.91" fill="white" transform="translate(4.03516 18)"/>
</clipPath>
</defs>
</svg>
