<svg width="40" height="40" viewBox="0 0 40 40" fill="none" xmlns="http://www.w3.org/2000/svg">
<circle cx="20" cy="20" r="20" fill="#3F3936"/>
<g clip-path="url(#clip0_18553_55658)">
<path d="M18.5372 18.8342V23.052C18.5372 23.052 18.5154 23.1112 18.479 23.1112H17.2342C17.2342 23.1112 17.2051 23.1038 17.2051 23.089C17.2051 23.089 17.2051 23.0816 17.2051 23.0742C17.3361 22.793 17.4235 22.4822 17.4744 22.1566C17.5836 21.4759 17.7146 20.7285 17.8748 19.8924C17.933 19.5668 18.0204 19.2708 18.1296 18.997C19.1268 16.4886 22.024 16.2 24.2952 16.6514C24.3461 16.6588 24.3534 16.681 24.3024 16.7106C23.8511 16.9621 23.5381 17.3025 23.3707 17.7465C23.065 18.5456 23.0286 19.4114 22.9266 20.2476C22.8029 21.2021 22.5336 22.2602 22.0458 23.1112C22.0386 23.126 22.0167 23.1334 22.0022 23.1334C21.973 23.1334 21.9585 23.1112 21.9585 23.0964C21.9585 21.6683 21.9585 20.2476 21.9585 18.8268C21.9585 18.8046 21.9512 18.7972 21.9294 18.7972H21.398C21.398 18.7972 21.3689 18.812 21.3689 18.8268C21.3689 19.6926 21.3689 20.5953 21.3689 21.5425C21.3689 21.7349 21.3689 21.9347 21.3834 22.1418C21.3834 22.2158 21.3689 22.2232 21.3325 22.1566C21.2597 22.0308 21.1723 21.8903 21.085 21.7497C20.4662 20.8173 19.8184 19.8406 19.1195 18.8268C19.105 18.8046 19.0831 18.7898 19.054 18.7898H18.5882C18.5882 18.7898 18.5372 18.8046 18.5372 18.8416V18.8342Z" fill="#F31747"/>
<path d="M13.0043 18.8191C13.3391 18.2568 13.856 17.9756 14.5475 17.9756C15.0279 17.9756 15.4283 18.131 15.7559 18.4418C16.3091 18.9745 16.4547 19.7589 16.4547 20.4988C16.4547 21.2906 16.4547 22.0676 16.4547 22.8371C16.4547 22.8593 16.4474 22.8667 16.4256 22.8667H15.9597C15.9597 22.8667 15.9379 22.8593 15.9379 22.8445C15.9379 22.0084 15.9379 21.1722 15.9379 20.3435C15.9379 20.0919 15.8869 19.8107 15.7777 19.4777C15.6758 19.1817 15.5084 18.9449 15.2536 18.7673C15.0207 18.5972 14.7586 18.5306 14.4601 18.5528C13.936 18.5898 13.5648 18.8635 13.3464 19.3667C13.2154 19.6627 13.1499 19.9883 13.1499 20.3435C13.1499 21.1574 13.1426 21.9862 13.1499 22.8297C13.1499 22.8445 13.1353 22.8593 13.1207 22.8593H12.6403C12.6403 22.8593 12.6185 22.8593 12.6185 22.8445C12.6112 21.8826 12.6185 20.9946 12.6185 20.1733C12.6185 19.6923 12.7568 19.2409 13.0043 18.8265V18.8191Z" fill="white"/>
<path d="M4 21.9125V21.8903L4.43676 21.6314C4.43676 21.6314 4.50227 21.6314 4.52411 21.6535C4.66242 21.9347 4.90264 22.2603 5.20109 22.3417C5.62329 22.4601 6.10373 22.1937 6.14741 21.7275C6.16197 21.5648 6.11101 21.402 5.99454 21.2466C5.88535 21.0986 5.7616 20.9654 5.61601 20.847C5.33212 20.6176 5.05551 20.3882 4.77889 20.1588C4.41492 19.8555 4.25478 19.4633 4.31301 19.0045C4.34941 18.7011 4.495 18.4569 4.74977 18.2645C4.94631 18.1166 5.17925 18.0426 5.46315 18.0352C5.78344 18.0352 6.07461 18.1535 6.32939 18.3903C6.4677 18.5235 6.59873 18.6715 6.7152 18.8491C6.7152 18.8565 6.7152 18.8713 6.7152 18.8787L6.26388 19.2191C6.26388 19.2191 6.24932 19.2191 6.24204 19.2191C6.08189 18.9675 5.84167 18.6863 5.52866 18.6419C5.39035 18.6271 5.27389 18.6419 5.17197 18.7085C4.69882 18.9897 4.92448 19.5077 5.25205 19.7667C5.47771 19.9442 5.71793 20.1292 5.96542 20.3216C6.22748 20.5214 6.49682 20.7878 6.6424 21.0912C6.90446 21.6092 6.80983 22.1641 6.40946 22.5785C5.93631 23.0595 5.19381 23.0965 4.64786 22.7265C4.40036 22.5563 4.18926 22.2899 4.02184 21.9273L4 21.9125Z" fill="white"/>
<path d="M8.17113 20.8838V22.8299C8.17113 22.8299 8.16385 22.8521 8.14929 22.8521H7.59606C7.59606 22.8521 7.57422 22.8447 7.57422 22.8299V18.1682C7.57422 18.1682 7.5815 18.146 7.59606 18.146H8.14929C8.14929 18.146 8.17113 18.1534 8.17113 18.1682V19.7221C8.17113 19.7295 8.1784 19.7443 8.19296 19.7443C8.19296 19.7443 8.20024 19.7443 8.20752 19.7443L9.85993 18.1608C9.85993 18.1608 9.86721 18.1608 9.87449 18.1608H10.6243C10.6243 18.1608 10.6461 18.1682 10.6461 18.183C10.6461 18.183 10.6461 18.1904 10.6461 18.1978L8.4623 20.2697C8.4623 20.2697 8.45502 20.2919 8.4623 20.2993L10.799 22.8373C10.799 22.8373 10.8062 22.8595 10.799 22.8669C10.799 22.8669 10.7917 22.8669 10.7844 22.8669H10.0492C10.0492 22.8669 10.0419 22.8669 10.0346 22.8669L8.20752 20.8912C8.20752 20.8912 8.18568 20.8838 8.1784 20.8912C8.1784 20.8912 8.1784 20.8986 8.1784 20.906L8.17113 20.8838Z" fill="white"/>
<path d="M11.7597 18.146H11.2211C11.209 18.146 11.1992 18.1559 11.1992 18.1682V22.8225C11.1992 22.8348 11.209 22.8447 11.2211 22.8447H11.7597C11.7718 22.8447 11.7816 22.8348 11.7816 22.8225V18.1682C11.7816 18.1559 11.7718 18.146 11.7597 18.146Z" fill="white"/>
<path d="M36 20.5877V23.3773H35.5195C35.5195 23.3773 35.4759 23.3551 35.4759 23.3329C35.4686 22.6669 35.4686 21.9418 35.4759 21.1426C35.4759 20.8318 35.4613 20.5655 35.4176 20.3435C35.3594 20.0475 35.2575 19.7885 35.1046 19.5739C35.01 19.4407 34.8789 19.3297 34.7115 19.2335C33.9836 18.8266 33.1392 19.1891 32.8626 19.9735C32.7461 20.3065 32.6879 20.6616 32.6879 21.0464C32.6879 21.7938 32.6879 22.5633 32.6879 23.3477C32.6879 23.3699 32.6806 23.3773 32.6587 23.3773H32.2074C32.2074 23.3773 32.1783 23.3773 32.1783 23.3477C32.171 22.2304 32.171 21.3276 32.1783 20.6321C32.1783 20.2473 32.2729 19.8773 32.4476 19.5295C32.666 19.0855 32.979 18.7748 33.3794 18.6194C33.7652 18.464 34.1656 18.4418 34.5805 18.5528C35.1774 18.7082 35.5923 19.1225 35.8325 19.7959C35.9126 20.0179 35.9636 20.2769 36 20.5877Z" fill="white"/>
<path d="M24.3753 23.3329C23.9968 23.1479 23.742 22.8001 23.5527 22.4301C23.5527 22.4227 23.5527 22.4153 23.5527 22.4079L24.0113 22.1267C24.0113 22.1267 24.0332 22.1267 24.0405 22.1341C24.2661 22.5263 24.4845 22.7557 24.6883 22.8371C24.914 22.9259 25.1324 22.9037 25.3435 22.7779C25.6783 22.5707 25.7729 22.2747 25.6273 21.8973C25.5764 21.7641 25.4381 21.6014 25.2124 21.4016C24.9649 21.187 24.6956 20.965 24.4117 20.743C24.2807 20.6394 24.1642 20.521 24.0623 20.3804C23.742 19.9365 23.7711 19.2409 24.186 18.8561C24.4408 18.6193 24.7538 18.5157 25.1251 18.5527C25.6273 18.5971 25.9768 18.9375 26.2534 19.3519C26.2606 19.3667 26.2534 19.3815 26.2534 19.3889C26.0204 19.5887 25.8748 19.6997 25.8093 19.7219C25.7948 19.7219 25.7875 19.7219 25.7802 19.7145C25.5327 19.3519 25.1833 19.0041 24.7247 19.2187C24.419 19.3667 24.368 19.7515 24.5573 20.0178C24.6883 20.1954 24.863 20.3582 25.096 20.5136C25.7584 20.965 26.5882 21.6754 26.2534 22.6077C25.9768 23.3699 25.0741 23.6732 24.3753 23.3255V23.3329Z" fill="white"/>
<path d="M27.7821 20.2328L29.3981 18.6863C29.3981 18.6863 29.4345 18.6641 29.4563 18.6641H30.1697C30.2207 18.6641 30.228 18.6789 30.1843 18.7159C30.1697 18.7233 30.1624 18.7381 30.1479 18.7455C29.4345 19.4114 28.7284 20.0774 28.0078 20.7655C28.0005 20.7729 28.0005 20.7877 28.0078 20.8025L30.3371 23.3258C30.3371 23.3258 30.3444 23.348 30.3371 23.3628C30.3371 23.3628 30.3299 23.3628 30.3226 23.3628H29.6529C29.6092 23.3628 29.5728 23.348 29.5437 23.311L27.7675 21.3945C27.7675 21.3945 27.7239 21.3723 27.7239 21.4093V23.348C27.7239 23.348 27.7239 23.3628 27.7093 23.3628H27.1415C27.1415 23.3628 27.127 23.3628 27.127 23.348V18.6789C27.127 18.6789 27.127 18.6641 27.1415 18.6641H27.7093C27.7093 18.6641 27.7239 18.6641 27.7239 18.6789V20.2106C27.7239 20.255 27.7384 20.2624 27.7675 20.2328H27.7821Z" fill="white"/>
<path d="M31.3193 18.6641H30.7879C30.7718 18.6641 30.7588 18.6773 30.7588 18.6937V23.3332C30.7588 23.3495 30.7718 23.3628 30.7879 23.3628H31.3193C31.3354 23.3628 31.3484 23.3495 31.3484 23.3332V18.6937C31.3484 18.6773 31.3354 18.6641 31.3193 18.6641Z" fill="white"/>
<path d="M19.1197 20.0107C19.1197 19.9589 19.0906 19.8849 19.0978 19.8331C19.1051 19.7739 19.127 19.7739 19.1561 19.8183C19.2944 20.0403 19.4473 20.277 19.6074 20.5212C20.1679 21.3648 20.743 22.2083 21.318 23.0593C21.3253 23.0741 21.318 23.0889 21.318 23.0963C21.318 23.0963 21.3108 23.0963 21.3035 23.0963H19.1852C19.1852 23.0963 19.1342 23.0815 19.1342 23.0445C19.1415 22.0011 19.1342 20.9874 19.127 19.9885L19.1197 20.0107Z" fill="#F31747"/>
</g>
<circle cx="20" cy="20" r="19.5" stroke="black" stroke-opacity="0.05"/>
<defs>
<clipPath id="clip0_18553_55658">
<rect width="32" height="7" fill="white" transform="translate(4 16.4736)"/>
</clipPath>
</defs>
</svg>
