<svg width="40" height="40" viewBox="0 0 40 40" fill="none" xmlns="http://www.w3.org/2000/svg">
<circle cx="20" cy="20" r="20" fill="#F6F8FA"/>
<g clip-path="url(#clip0_26526_47894)">
<path d="M15.4619 26L14.5224 24.5984H13.65V26H12.5596V21.5513H14.5224C15.7639 21.5513 16.4853 22.1455 16.4853 23.0748C16.4853 23.6842 16.1665 24.1565 15.5961 24.4003L16.7201 26H15.4619ZM13.65 23.7147H14.4721C15.0425 23.7147 15.3948 23.4862 15.3948 23.0748C15.3948 22.6635 15.0425 22.4349 14.4721 22.4349H13.65V23.7299V23.7147Z" fill="#8B0D02"/>
<path d="M17.2236 21.5359H18.1296L20.5622 24.2174V21.4902H21.6526V25.939H20.7467L18.3141 23.2575V25.9847H17.2236V21.5359Z" fill="#8B0D02"/>
<path d="M22.5244 21.5361H23.3968L25.0744 24.0195L26.7521 21.5361H27.6245V25.9849H26.534V23.5472L25.41 25.2536H24.7557L23.6317 23.5472V25.9849H22.5412V21.5361H22.5244Z" fill="#8B0D02"/>
<path d="M14.0356 16.6606H12.5928V20.1191H14.0356V16.6606Z" fill="#0360A9"/>
<path d="M10.2109 16.6606V18.0318H7.44278V16.6606H6V20.1191H7.44278V18.6565H10.2109V20.1191H11.6537V16.6606H10.2109Z" fill="#0360A9"/>
<path d="M27.5243 17.2853V16.6606H22.29V20.1191H27.5243V19.4944H23.7328V18.687H27.2727V18.0623H23.7328V17.2853H27.5243Z" fill="#0360A9"/>
<path d="M32.5737 16.6606V19.0069L29.7553 16.6606H28.3125V20.1191H29.7553V17.8185L32.5737 20.1191H34.0165V16.6606H32.5737Z" fill="#0360A9"/>
<path d="M18.8848 17.2548H19.8242V18.946H16.3515V16.2036H19.6733V15.7161H15.8147V19.4335H20.3611V16.7673H18.8848V17.2548ZM21.3006 19.6621V16.7673H20.7637V19.6621H15.3952V15.4875H19.6565V15H14.8584V20.1496H21.2838V19.6621H21.3006Z" fill="#0360A9"/>
</g>
<circle cx="20" cy="20" r="19.5" stroke="black" stroke-opacity="0.05"/>
<defs>
<clipPath id="clip0_26526_47894">
<rect width="28" height="11" fill="white" transform="translate(6 15)"/>
</clipPath>
</defs>
</svg>
