<svg width="40" height="40" viewBox="0 0 40 40" fill="none" xmlns="http://www.w3.org/2000/svg">
<circle cx="20" cy="20" r="20" fill="#F6F8FA"/>
<path fill-rule="evenodd" clip-rule="evenodd" d="M9.19314 27.6395L14.8888 27.6317L15.2554 19.1492C15.0268 18.9258 14.7246 18.6328 14.3488 18.2702C13.0126 16.9773 12.8195 15.3376 13.7063 13.6072C15.2672 10.5564 18.7162 9.28716 22.11 8.97576C22.13 8.97429 22.1496 8.9688 22.1675 8.95961C22.1854 8.95042 22.2012 8.93772 22.2141 8.92227C22.227 8.90682 22.2366 8.88894 22.2424 8.86969C22.2482 8.85043 22.2501 8.83021 22.2479 8.81022L22.2361 8.70379C22.2361 8.69065 22.2151 8.68408 22.173 8.68408L10.4821 8.77868C10.09 8.7818 9.71506 8.93974 9.43894 9.21808C9.16281 9.49643 9.00787 9.87262 9.00788 10.2647L9 27.4425C9 27.5738 9.06438 27.6395 9.19314 27.6395ZM20.281 22.6691C18.7123 21.5655 17.0371 20.3922 15.2554 19.1492L14.8888 27.6317C16.2027 27.7499 17.556 27.6632 18.9488 27.3715C19.653 27.227 20.2968 26.9327 20.8802 26.4886C21.7841 25.8001 22.0535 25.0052 21.6882 24.1039C21.5227 23.6887 21.0536 23.2104 20.281 22.6691Z" fill="url(#paint0_linear_17752_43697)"/>
<path fill-rule="evenodd" clip-rule="evenodd" d="M27.5342 25.2944C27.2609 25.9644 26.8312 26.6753 26.2452 27.4268L26.9074 30.8718C28.0006 30.9322 28.7705 30.9428 29.2173 30.9033C30.3866 30.7982 30.9739 30.1518 30.9792 28.964C31.0028 23.4589 31.0068 17.8959 30.991 12.275C30.9905 12.2307 30.9813 12.1869 30.9639 12.1462C30.9465 12.1055 30.9214 12.0687 30.8898 12.0379C30.8583 12.0071 30.821 11.9829 30.7802 11.9668C30.7394 11.9507 30.6958 11.9429 30.652 11.9439L27.2937 11.9991L27.2937 11.9991L23.9197 12.0031L23.9197 12.0031C22.4875 12.0478 21.4942 12.1844 20.9398 12.413C19.2291 13.1265 18.2082 14.6519 20.112 16.063C21.3103 16.9486 22.5992 17.8499 23.9788 18.767L27.3016 21.5695C27.9743 22.7835 28.0518 24.0251 27.5342 25.2944ZM26.9074 30.8718L26.2452 27.4268C23.9276 29.5821 21.7545 30.0675 19.0303 30.6759C18.9098 30.7028 18.7882 30.73 18.6654 30.7575C18.6208 30.768 18.601 30.7956 18.6063 30.8403L18.6181 30.9428C18.6234 31.0006 18.6575 31.0295 18.7206 31.0295L26.9074 30.8718Z" fill="url(#paint1_linear_17752_43697)"/>
<circle cx="20" cy="20" r="19.5" stroke="black" stroke-opacity="0.05"/>
<defs>
<linearGradient id="paint0_linear_17752_43697" x1="20.5" y1="19.7759" x2="9" y2="19.7759" gradientUnits="userSpaceOnUse">
<stop stop-color="#335693"/>
<stop offset="1" stop-color="#0EA3CC"/>
</linearGradient>
<linearGradient id="paint1_linear_17752_43697" x1="18.4605" y1="15.2431" x2="33.0446" y2="15.2431" gradientUnits="userSpaceOnUse">
<stop stop-color="#6E5474"/>
<stop offset="1" stop-color="#E58839"/>
</linearGradient>
</defs>
</svg>
