<svg width="40" height="40" viewBox="0 0 40 40" fill="none" xmlns="http://www.w3.org/2000/svg">
<circle cx="20" cy="20" r="20" fill="#F6F8FA"/>
<path d="M5 18.1707C5 17.8614 5.12284 17.5649 5.34149 17.3462C5.56015 17.1276 5.85671 17.0047 6.16593 17.0047H10.9577C11.8244 17.0047 12.6555 17.3449 13.2683 17.9505C13.8811 18.5561 14.2254 19.3775 14.2254 20.2339C14.2254 21.0903 13.8811 21.9116 13.2683 22.5172C12.6555 23.1228 11.8244 23.463 10.9577 23.463H6.16593C6.01282 23.463 5.86121 23.4329 5.71975 23.3743C5.57829 23.3157 5.44976 23.2298 5.34149 23.1215C5.23323 23.0133 5.14734 22.8847 5.08875 22.7433C5.03016 22.6018 5 22.4502 5 22.2971V18.1707ZM6.47936 18.708V21.758C6.47936 21.8547 6.51775 21.9474 6.5861 22.0157C6.65446 22.0841 6.74716 22.1225 6.84382 22.1225H10.8332C11.3415 22.1225 11.8289 21.9234 12.1883 21.5691C12.5477 21.2147 12.7496 20.7341 12.7496 20.233C12.7496 19.7319 12.5477 19.2513 12.1883 18.8969C11.8289 18.5426 11.3415 18.3435 10.8332 18.3435H6.84382C6.74716 18.3435 6.65446 18.3819 6.5861 18.4502C6.51775 18.5186 6.47936 18.6113 6.47936 18.708Z" fill="#E1002C"/>
<path d="M20.5869 21.1786C20.5236 21.1792 20.5197 21.195 20.5752 21.226L24.4867 23.3958C24.5596 23.4364 24.5542 23.4567 24.4706 23.4567H22.0152C21.9453 23.4567 21.8803 23.4391 21.82 23.4039C20.534 22.6523 19.2726 21.9153 18.0356 21.1929C17.5252 20.8947 17.6416 20.0709 18.1851 19.8935C18.3111 19.8523 18.446 19.8321 18.5899 19.8326C19.8842 19.8368 21.143 19.8371 22.3662 19.8335C23.3521 19.8309 23.3611 18.347 22.3313 18.347C20.6728 18.3464 19.0168 18.3467 17.3631 18.3479C17.2424 18.3479 17.1267 18.3958 17.0414 18.4812C16.9561 18.5665 16.9082 18.6822 16.9082 18.8028V23.403C16.9082 23.4388 16.8906 23.4567 16.8553 23.4567H15.4628C15.4414 23.4567 15.4309 23.446 15.4315 23.4245C15.4369 21.9684 15.4363 20.364 15.4297 18.6112C15.4252 17.4327 15.9715 16.9921 17.1186 17.0011C18.8565 17.0142 20.5436 17.0139 22.1799 17.0002C22.6187 16.9966 22.9617 17.0402 23.2089 17.1309C25.0455 17.807 25.0464 20.3986 23.1954 21.055C22.9357 21.1469 22.5934 21.189 22.1683 21.1813C21.6316 21.1711 21.1045 21.1702 20.5869 21.1786Z" fill="#E1002C"/>
<path d="M34.5573 20.2724C35.3982 21.372 34.9961 22.8254 33.7263 23.3385C33.5144 23.4245 33.1239 23.4663 32.555 23.4639C30.8094 23.4567 29.0492 23.4523 27.2743 23.4505C26.3904 23.4505 25.7511 23.0905 25.7448 22.0831C25.7364 20.8532 25.7361 19.6187 25.7439 18.3793C25.7519 17.174 26.5964 16.9949 27.6325 17.0011C29.5178 17.0131 31.3097 17.0149 33.0081 17.0065C34.7167 16.9975 35.5755 18.8727 34.5573 20.1918C34.537 20.2186 34.537 20.2455 34.5573 20.2724ZM28.6175 20.9019C27.7202 20.8983 27.7149 19.5605 28.639 19.5613C29.993 19.5625 31.4219 19.5622 32.9257 19.5605C33.7093 19.5596 33.7111 18.3471 32.9186 18.3471C31.1664 18.3488 29.4002 18.3486 27.6199 18.3462C27.3826 18.3462 27.2223 18.4724 27.2214 18.7214C27.2173 19.6784 27.217 20.6727 27.2206 21.7043C27.2212 21.9801 27.3594 22.1174 27.6352 22.1162C29.3097 22.1102 31.0398 22.112 32.8254 22.1216C32.9878 22.1222 33.1195 22.092 33.2204 22.0311C33.6242 21.7866 33.6287 21.2207 33.2222 20.9888C33.1123 20.9255 32.9365 20.8947 32.6947 20.8965C31.2828 20.9067 29.9238 20.9085 28.6175 20.9019Z" fill="#E1002C"/>
<circle cx="20" cy="20" r="19.5" stroke="black" stroke-opacity="0.05"/>
</svg>
