<svg width="40" height="40" viewBox="0 0 40 40" fill="none" xmlns="http://www.w3.org/2000/svg">
<circle cx="20" cy="20" r="20" fill="#525252"/>
<g clip-path="url(#clip0_17752_43622)">
<path d="M32.1935 14.7798H32.2147C32.2959 15.2017 32.3175 15.6271 32.3422 16.0552C32.3426 16.0628 32.3393 16.0679 32.3321 16.0705C31.9368 16.2191 31.6239 16.4437 31.3179 16.7307C31.3147 16.7223 31.3058 16.7255 31.291 16.7403C31.2878 16.7436 31.2843 16.744 31.2803 16.7414C31.2785 16.7402 31.2774 16.7384 31.2771 16.7359C31.2754 16.7247 31.2725 16.7144 31.2682 16.7049C31.2656 16.6992 31.2626 16.6938 31.2591 16.6888C31.2552 16.683 31.25 16.6784 31.2436 16.6751C31.2205 16.6632 31.2008 16.6482 31.1846 16.6299C31.1794 16.6242 31.173 16.622 31.1654 16.6233C31.1528 16.6258 31.1412 16.6249 31.1305 16.6208C31.1242 16.6182 31.1221 16.6138 31.1244 16.6074C31.1282 16.5964 31.1247 16.5876 31.1139 16.5809C31.1092 16.5782 31.1042 16.5775 31.0991 16.5789C31.096 16.5798 31.0926 16.5797 31.0896 16.5786C31.0865 16.5775 31.0838 16.5754 31.082 16.5727C31.0759 16.5639 31.0678 16.5582 31.0578 16.5556C31.0498 16.5536 31.0416 16.551 31.0334 16.5476C31.0062 16.5364 30.9826 16.5207 30.9625 16.5007C30.9565 16.4946 30.9492 16.4916 30.9409 16.4918C30.9281 16.4919 30.9193 16.4862 30.9144 16.4745C30.9138 16.4732 30.9129 16.472 30.9116 16.4713C30.9104 16.4706 30.9089 16.4702 30.9075 16.4703C30.9061 16.4704 30.9047 16.471 30.9036 16.4719C30.9024 16.4728 30.9016 16.474 30.9012 16.4754L30.8971 16.4922C30.8965 16.4948 30.8963 16.4974 30.8968 16.4999C30.8972 16.5025 30.8982 16.5049 30.8996 16.5071C30.9119 16.5261 30.9295 16.5366 30.9525 16.5388C30.9564 16.5392 30.9582 16.5413 30.9577 16.5451C30.9576 16.5459 30.9572 16.5466 30.9566 16.5472C30.9543 16.5493 30.9517 16.5501 30.9486 16.5497C30.9386 16.5482 30.9283 16.547 30.9178 16.546C30.9095 16.5453 30.9044 16.5408 30.9026 16.5326C30.8983 16.5139 30.8866 16.5062 30.8675 16.5093C30.857 16.5112 30.8526 16.5068 30.8542 16.4964C30.855 16.4913 30.8574 16.4872 30.8613 16.484C30.8733 16.4739 30.8714 16.4692 30.8556 16.4701C30.8418 16.471 30.8312 16.4654 30.8239 16.4533C30.8192 16.4454 30.814 16.4451 30.8084 16.4524C30.8036 16.4584 30.7974 16.4605 30.79 16.4585C30.7764 16.4547 30.7764 16.4507 30.7897 16.4464C30.7926 16.4454 30.7952 16.4438 30.7975 16.4416C30.8049 16.4345 30.8039 16.4287 30.7945 16.4243C30.789 16.4219 30.7846 16.4182 30.7811 16.4134C30.7765 16.4068 30.7703 16.403 30.7624 16.4017L30.709 16.394C30.701 16.3929 30.6945 16.3891 30.6897 16.3826C30.6737 16.361 30.658 16.3384 30.6427 16.3149C30.6368 16.3059 30.6289 16.3035 30.619 16.3076C30.6138 16.3099 30.6087 16.3098 30.6035 16.3074C30.6012 16.3063 30.5992 16.3049 30.5976 16.303C30.5912 16.2954 30.584 16.2946 30.5761 16.3005C30.5737 16.3024 30.572 16.3046 30.5709 16.3071C30.5671 16.3161 30.5613 16.3177 30.5536 16.3119L30.5205 16.2878C30.7095 15.8437 30.965 15.4441 31.3601 15.1632C31.597 14.9948 31.8748 14.867 32.1935 14.7798Z" fill="#50AF49"/>
<path d="M34.9997 16.0362V16.0681C34.969 16.1896 34.9381 16.3111 34.9071 16.4324C34.7313 17.1232 34.4953 17.7938 34.1993 18.4441C34.1961 18.4513 34.1908 18.4535 34.1833 18.4507C33.7139 18.283 33.2368 18.2099 32.7522 18.2317C31.9523 18.2675 31.244 18.6153 30.7272 19.2306C30.5392 19.4543 30.3833 19.6941 30.2596 19.9498C30.2456 19.9789 30.2363 19.9774 30.2316 19.9455C30.1363 19.2896 30.3253 18.6331 30.6782 18.0737C31.5549 16.6831 33.3535 15.8134 34.9997 16.0362Z" fill="#2591D0"/>
<path d="M30.5204 16.2876L30.5535 16.3118C30.5612 16.3175 30.567 16.3159 30.5708 16.307C30.5718 16.3044 30.5736 16.3022 30.576 16.3004C30.5839 16.2944 30.5911 16.2953 30.5975 16.3029C30.5991 16.3047 30.6011 16.3061 30.6034 16.3072C30.6086 16.3096 30.6137 16.3097 30.6189 16.3074C30.6288 16.3033 30.6367 16.3058 30.6426 16.3147C30.6579 16.3383 30.6736 16.3608 30.6896 16.3824C30.6944 16.389 30.7009 16.3928 30.7089 16.3938L30.7623 16.4016C30.7702 16.4028 30.7764 16.4067 30.781 16.4132C30.7845 16.4181 30.7889 16.4217 30.7944 16.4241C30.8038 16.4286 30.8048 16.4343 30.7974 16.4415C30.7951 16.4436 30.7925 16.4452 30.7896 16.4463C30.7763 16.4505 30.7763 16.4545 30.7899 16.4583C30.7973 16.4603 30.8035 16.4583 30.8083 16.4522C30.8139 16.4449 30.8191 16.4452 30.8238 16.4531C30.8311 16.4653 30.8417 16.4709 30.8555 16.47C30.8713 16.4691 30.8732 16.4737 30.8612 16.4839C30.8573 16.4871 30.8549 16.4912 30.8541 16.4962C30.8525 16.5067 30.8569 16.511 30.8674 16.5092C30.8865 16.506 30.8982 16.5137 30.9025 16.5324C30.9043 16.5406 30.9094 16.5451 30.9177 16.5459C30.9282 16.5468 30.9385 16.548 30.9485 16.5495C30.9516 16.55 30.9542 16.5491 30.9565 16.547C30.9571 16.5464 30.9575 16.5457 30.9576 16.545C30.9581 16.5412 30.9563 16.539 30.9524 16.5386C30.9294 16.5365 30.9118 16.5259 30.8995 16.5069C30.8981 16.5047 30.8971 16.5023 30.8967 16.4998C30.8962 16.4972 30.8964 16.4946 30.897 16.4921L30.9011 16.4752C30.9015 16.4738 30.9023 16.4726 30.9035 16.4717C30.9046 16.4708 30.906 16.4703 30.9074 16.4702C30.9088 16.4701 30.9103 16.4704 30.9115 16.4711C30.9128 16.4719 30.9137 16.473 30.9143 16.4743C30.9192 16.486 30.928 16.4918 30.9408 16.4916C30.9491 16.4915 30.9563 16.4944 30.9624 16.5005C30.9825 16.5206 31.0061 16.5362 31.0333 16.5475C31.0415 16.5508 31.0497 16.5535 31.0577 16.5555C31.0677 16.558 31.0758 16.5637 31.0819 16.5726C31.0837 16.5753 31.0864 16.5773 31.0895 16.5784C31.0925 16.5795 31.0959 16.5796 31.099 16.5787C31.1041 16.5773 31.1091 16.578 31.1138 16.5808C31.1246 16.5874 31.1281 16.5963 31.1243 16.6072C31.122 16.6136 31.1241 16.6181 31.1304 16.6207C31.1411 16.6248 31.1527 16.6256 31.1653 16.6232C31.1729 16.6218 31.1793 16.624 31.1845 16.6298C31.2007 16.648 31.2204 16.6631 31.2435 16.6749C31.2499 16.6783 31.2551 16.6828 31.259 16.6886C31.2625 16.6936 31.2655 16.699 31.2681 16.7048C31.2724 16.7142 31.2753 16.7245 31.277 16.7358C31.2773 16.7382 31.2784 16.74 31.2802 16.7412C31.2842 16.7438 31.2877 16.7434 31.2909 16.7401C31.3057 16.7254 31.3146 16.7222 31.3178 16.7305C30.8798 17.1878 30.5825 17.727 30.4258 18.3479C30.4253 18.35 30.4241 18.3518 30.4224 18.353C30.4206 18.3543 30.4186 18.3549 30.4165 18.3548C30.4101 18.3543 30.407 18.3518 30.4073 18.3472C30.4076 18.3438 30.4073 18.3403 30.4064 18.337C30.2099 17.6467 30.2393 16.9455 30.5204 16.2876Z" fill="#4F9342"/>
<path d="M5 24.2155V19.3993C5.03404 19.0896 5.16147 18.8133 5.38229 18.5704C5.60707 18.3231 5.8674 18.1671 6.1633 18.1024C6.2554 18.0823 6.3728 18.0725 6.5155 18.0728C7.32432 18.0741 8.15615 18.0744 9.01102 18.0734C9.01283 18.0734 9.01457 18.0742 9.01585 18.0754C9.01714 18.0767 9.01786 18.0785 9.01786 18.0803V19.0706C9.01786 19.0788 9.01368 19.0829 9.00532 19.0829C8.32158 19.0826 7.65509 19.0825 7.00585 19.0826C6.72682 19.0829 6.50798 19.2987 6.50912 19.5789C6.51064 19.9631 6.51087 20.3292 6.5098 20.6772C6.5098 20.6856 6.51398 20.6898 6.52234 20.6898H9.00646C9.01406 20.6898 9.01786 20.6936 9.01786 20.7012V21.6871C9.01786 21.6947 9.01406 21.6985 9.00646 21.6985H6.51596C6.51445 21.6985 6.513 21.6991 6.51193 21.7002C6.51086 21.7013 6.51026 21.7027 6.51026 21.7042V24.2111C6.51026 24.2128 6.50959 24.2145 6.50839 24.2156C6.50719 24.2168 6.50557 24.2175 6.50388 24.2175L5 24.2155Z" fill="white"/>
<path d="M11.5225 19.1963H10.0247C10.0197 19.1963 10.0156 19.2004 10.0156 19.2054V24.2078C10.0156 24.2129 10.0197 24.217 10.0247 24.217H11.5225C11.5275 24.217 11.5316 24.2129 11.5316 24.2078V19.2054C11.5316 19.2004 11.5275 19.1963 11.5225 19.1963Z" fill="white"/>
<path d="M14.0386 20.2207V24.2114C14.0386 24.2129 14.038 24.2144 14.0369 24.2154C14.0358 24.2165 14.0344 24.2171 14.0329 24.2171L12.5397 24.2169C12.5367 24.2169 12.5338 24.2157 12.5317 24.2136C12.5295 24.2115 12.5283 24.2087 12.5283 24.2057V19.208C12.5283 19.1998 12.5324 19.1957 12.5406 19.1957C13.6511 19.1971 14.8117 19.1968 16.0223 19.1948C16.1883 19.1947 16.3191 19.206 16.4149 19.2288C16.8368 19.3296 17.1988 19.6332 17.3963 20.005C17.501 20.2026 17.5535 20.418 17.5538 20.6513C17.5553 21.8615 17.5556 23.048 17.5547 24.2109C17.5547 24.2126 17.554 24.2141 17.5529 24.2153C17.5517 24.2164 17.5502 24.2171 17.5485 24.2171L16.0506 24.2169C16.0476 24.2169 16.0447 24.2157 16.0425 24.2136C16.0404 24.2115 16.0392 24.2087 16.0392 24.2057C16.0386 22.9932 16.0387 21.8245 16.0396 20.6996C16.0396 20.6335 16.0309 20.5765 16.0134 20.5286C15.9649 20.3957 15.8395 20.2699 15.7027 20.2266C15.6541 20.2112 15.6008 20.2036 15.5429 20.2038C15.0487 20.2052 14.5526 20.2054 14.0548 20.2045C14.044 20.2045 14.0386 20.2099 14.0386 20.2207Z" fill="white"/>
<path d="M22.2312 25.2201H18.8404L18.8388 24.2235C18.8388 24.2154 18.8429 24.2113 18.8511 24.2112C19.7289 24.2104 20.621 24.211 21.5272 24.213C21.6205 24.2131 21.6916 24.2038 21.7406 24.185C21.8721 24.1346 21.9891 24.0156 22.0367 23.8827C22.0566 23.8275 22.0659 23.761 22.0645 23.6832C22.0616 23.516 22.0614 23.3645 22.0638 23.2286C22.0641 23.2191 22.0595 23.2143 22.0499 23.2143C21.4077 23.2125 20.7721 23.2129 20.1432 23.2157C19.9666 23.2164 19.8256 23.2058 19.7201 23.1837C19.1728 23.0691 18.6932 22.5785 18.5805 22.0414C18.5584 21.9353 18.5483 21.8091 18.5505 21.6628C18.5546 21.3746 18.5545 21.0878 18.5502 20.8024C18.5475 20.6155 18.5581 20.4665 18.5821 20.3554C18.6706 19.9453 18.946 19.6036 19.3009 19.3861C19.4199 19.3133 19.5512 19.2607 19.6948 19.2283C19.7951 19.2057 19.9191 19.1945 20.0666 19.1948C21.2464 19.197 22.4145 19.197 23.5709 19.1951C23.5733 19.1951 23.5756 19.196 23.5773 19.1977C23.5791 19.1994 23.58 19.2018 23.58 19.2042C23.5776 20.6618 23.5778 22.1134 23.5807 23.559C23.5812 23.7354 23.5762 23.8634 23.5659 23.9431C23.5082 24.3913 23.2299 24.7674 22.853 25.0131C22.6745 25.1294 22.4672 25.1984 22.2312 25.2201ZM20.0915 21.8757C20.1617 22.0535 20.3395 22.2046 20.539 22.2049C21.0703 22.2055 21.5731 22.2056 22.0474 22.2053C22.0577 22.2053 22.0629 22.2001 22.0629 22.1896V20.2172C22.0629 20.2155 22.0626 20.2138 22.0619 20.2121C22.0612 20.2105 22.0602 20.209 22.059 20.2078C22.0577 20.2066 22.0562 20.2056 22.0546 20.205C22.053 20.2043 22.0512 20.204 22.0495 20.204C21.5908 20.2058 21.1058 20.2055 20.5944 20.2029C20.5119 20.2026 20.4425 20.2124 20.3862 20.2323C20.1982 20.2986 20.0612 20.4869 20.0621 20.6878C20.0638 20.9791 20.0634 21.2997 20.0609 21.6495C20.0602 21.7467 20.0704 21.822 20.0915 21.8757Z" fill="white"/>
<path d="M26.0854 22.2266C26.0877 22.3714 26.0876 22.5199 26.0852 22.6722C26.084 22.7474 26.0926 22.8124 26.1112 22.8671C26.1586 23.0069 26.2767 23.1293 26.4162 23.1808C26.4686 23.2003 26.5396 23.2099 26.6291 23.2098C27.6209 23.2078 28.6102 23.2076 29.597 23.2091C29.5985 23.2091 29.6001 23.2097 29.6012 23.2108C29.6023 23.2119 29.6029 23.2134 29.6029 23.215V24.2107C29.6029 24.2124 29.6022 24.2141 29.601 24.2153C29.5998 24.2165 29.5982 24.2171 29.5965 24.2171C28.3967 24.2174 27.1938 24.2173 25.9879 24.2167C25.3496 24.2164 24.7441 23.6769 24.6082 23.0682C24.5848 22.9636 24.5735 22.8342 24.5743 22.6797C24.5778 22.0355 24.5779 21.3931 24.5747 20.7525C24.5738 20.5873 24.5841 20.4544 24.6057 20.3538C24.7204 19.819 25.1852 19.354 25.7191 19.2295C25.8273 19.2044 25.9741 19.1926 26.1595 19.194C26.7869 19.1987 27.4068 19.1987 28.0192 19.1942C28.1987 19.1928 28.3406 19.2035 28.4448 19.2263C28.8155 19.3073 29.1246 19.537 29.3442 19.8441C29.566 20.1539 29.6282 20.5079 29.594 20.8877C29.5361 21.5333 29.0027 22.0957 28.3655 22.1933C28.2737 22.2074 28.1298 22.2139 27.9338 22.2129C27.3021 22.2098 26.6907 22.2097 26.0993 22.2124C26.0899 22.2124 26.0853 22.2171 26.0854 22.2266ZM26.4005 20.2353C26.2092 20.3144 26.0861 20.4861 26.0863 20.7028C26.0866 20.8653 26.0866 21.0271 26.0863 21.1882C26.0863 21.1902 26.0867 21.1922 26.0875 21.194C26.0883 21.1959 26.0894 21.1976 26.0908 21.199C26.0922 21.2004 26.0939 21.2015 26.0958 21.2023C26.0976 21.2031 26.0996 21.2035 26.1016 21.2035C26.5288 21.2007 26.9739 21.2012 27.4368 21.205C27.5588 21.2061 27.6396 21.2036 27.6791 21.1975C28.048 21.1405 28.2041 20.6912 27.9926 20.4058C27.8708 20.2414 27.7345 20.2009 27.5303 20.2029C27.2448 20.206 26.9558 20.2061 26.6631 20.2034C26.5424 20.2022 26.4549 20.2128 26.4005 20.2353Z" fill="white"/>
<path d="M32.6125 20.2041C32.3382 20.2034 32.1114 20.4095 32.1114 20.6963C32.1109 21.8671 32.1108 23.0386 32.1109 24.2108C32.1109 24.2125 32.1103 24.2141 32.1091 24.2153C32.1079 24.2165 32.1063 24.2172 32.1046 24.2172H30.6164C30.6144 24.2172 30.6124 24.2168 30.6105 24.216C30.6086 24.2152 30.6069 24.2141 30.6055 24.2126C30.604 24.2112 30.6029 24.2095 30.6021 24.2076C30.6013 24.2057 30.6009 24.2037 30.6009 24.2017C30.6011 23.0793 30.6003 21.9339 30.5986 20.7653C30.5983 20.5889 30.6087 20.4519 30.6296 20.3543C30.7265 19.9041 31.0803 19.5063 31.4913 19.3155C31.6733 19.2309 31.8572 19.1956 32.0647 19.1958C32.9329 19.1969 33.7818 19.1969 34.6113 19.1958C34.6132 19.1958 34.615 19.1966 34.6164 19.1979C34.6178 19.1993 34.6185 19.2012 34.6185 19.2031V20.1895C34.6185 20.1992 34.6137 20.2041 34.604 20.2041C33.986 20.2059 33.3222 20.2059 32.6125 20.2041Z" fill="white"/>
</g>
<circle cx="20" cy="20" r="19.5" stroke="black" stroke-opacity="0.05"/>
<defs>
<clipPath id="clip0_17752_43622">
<rect width="30" height="10.4407" fill="white" transform="translate(5 14.7798)"/>
</clipPath>
</defs>
</svg>
