<svg width="40" height="40" viewBox="0 0 40 40" fill="none" xmlns="http://www.w3.org/2000/svg">
<circle cx="20" cy="20" r="20" fill="#00529E"/>
<path fill-rule="evenodd" clip-rule="evenodd" d="M25.1011 19.8781H26.1389L25.4399 16.2852H24.5283V17.963L24.6918 17.6595L24.8853 18.6481H24.5283V19.3961H25.0295L25.1011 19.8781Z" fill="white"/>
<path fill-rule="evenodd" clip-rule="evenodd" d="M22.0682 19.8813L22.5031 16.936L22.5993 16.2852H22.5031H21.3927L21.2228 17.4907H20.1862L20.355 16.2852H19.1485L19.156 16.2948L18.644 19.8813H19.8485L20.0419 18.4589H21.0796L20.8616 19.8813H22.0682Z" fill="white"/>
<path fill-rule="evenodd" clip-rule="evenodd" d="M24.5229 16.2852H24.2867L22.503 19.7082L22.4058 19.8781H22.503H23.5386L23.7812 19.3961H24.5229V18.6481H24.1905L24.5282 17.9726V17.963L24.5229 17.9726V16.2852Z" fill="white"/>
<path fill-rule="evenodd" clip-rule="evenodd" d="M29.9753 19.8781L30.359 17.0322L30.4798 16.2852H30.359L29.4495 16.2916L29.161 18.3168L28.1468 16.2916H27.1102L26.5801 19.8781H27.6167L27.8818 18.0207L28.9376 19.8781H29.9753Z" fill="white"/>
<path fill-rule="evenodd" clip-rule="evenodd" d="M30.2639 19.8781H30.359H31.3967L31.6372 19.3961H32.3853H32.894L32.9912 19.8781H34.0044L33.3044 16.2852H32.3885V17.9726L32.5574 17.6595L32.7497 18.6481H32.3853H32.0476L32.3853 17.9726V16.2852H32.1448L30.359 19.6858L30.2639 19.8781Z" fill="white"/>
<path fill-rule="evenodd" clip-rule="evenodd" d="M22.5446 26.4913C16.1067 26.4913 10.8957 23.499 10.8957 19.8066C10.8957 16.1142 16.1056 13.1251 22.5446 13.1251C25.7047 13.1251 28.5753 13.8732 30.6731 15.0488C28.1168 13.3602 24.2609 12.3 19.9658 12.3C12.2466 12.3054 6 15.753 6 19.9787C6 24.2236 12.2423 27.6733 19.9615 27.6733C26.0382 27.6733 31.1989 25.5263 33.129 22.5596C31.3282 24.8744 27.2479 26.4913 22.5446 26.4913Z" fill="white"/>
<path fill-rule="evenodd" clip-rule="evenodd" d="M22.9101 22.2967L23.1431 21.0356L23.1623 20.9395H23.1431H22.6194L22.27 21.7346L22.2112 20.9395H21.6875L21.4353 22.2967H21.7848L21.96 21.2889L22.037 22.2775L22.3277 22.2967L22.7594 21.3071L22.5842 22.2967H22.9101Z" fill="white"/>
<path fill-rule="evenodd" clip-rule="evenodd" d="M28.6652 21.3091C28.6727 21.262 28.6698 21.2139 28.6567 21.168C28.6438 21.1223 28.6204 21.0802 28.5883 21.0451C28.5568 21.0097 28.5177 20.9819 28.4739 20.9639C28.4299 20.9459 28.3825 20.9378 28.335 20.9404H28.0261V21.2119H28.1426C28.1601 21.2101 28.1777 21.2127 28.1939 21.2193C28.21 21.2258 28.2243 21.2361 28.2356 21.2493C28.2473 21.2622 28.2554 21.2781 28.2591 21.2952C28.2634 21.3124 28.2634 21.3304 28.2591 21.3476C28.2483 21.3858 28.2255 21.4196 28.1939 21.4438C28.1632 21.4676 28.1259 21.4814 28.087 21.4833H28.0293V21.9493L28.1651 22.2987H28.631L28.4557 21.852C28.4557 21.852 28.4173 21.697 28.2815 21.6767C28.3743 21.6588 28.4599 21.6147 28.5284 21.5496C28.5957 21.4839 28.6431 21.4005 28.6652 21.3091Z" fill="white"/>
<path fill-rule="evenodd" clip-rule="evenodd" d="M27.8112 21.4887L27.8507 21.2173H28.0249V20.9458H27.5589L27.3452 22.1096L27.3057 22.3041H27.7139L27.8101 21.7612H27.9084C27.9084 21.7612 27.9661 21.7409 27.9854 21.8574L28.0249 21.9547V21.4887H27.8112Z" fill="white"/>
<path fill-rule="evenodd" clip-rule="evenodd" d="M29.1665 22.2892L29.4037 20.9287H28.9912L28.7774 22.1705V22.1727L28.7593 22.2892H28.7774H29.1665Z" fill="white"/>
<path fill-rule="evenodd" clip-rule="evenodd" d="M24.9386 22.1727L24.9204 22.2892H24.9386H25.3265L25.4965 21.3156H25.9453L26.0255 20.9287H25.5638H25.1513H24.7078L24.6511 21.3156H25.085L24.9386 22.1705V22.1727Z" fill="white"/>
<path fill-rule="evenodd" clip-rule="evenodd" d="M31.1638 20.9287L30.9511 22.1705V22.1727L30.9319 22.2892H30.9511H31.074H31.2012H31.3391H31.9589L32.0177 21.9803H31.3925L31.5763 20.9287H31.1638Z" fill="white"/>
<path fill-rule="evenodd" clip-rule="evenodd" d="M27.2629 21.2376L27.3228 20.9287H26.5886H26.176L25.9153 22.2892H26.176H26.3032H27.0609L27.1208 21.9803H26.3684L26.4176 21.7463H27.1657L27.2244 21.4374H26.4817L26.5234 21.2376H27.2629Z" fill="white"/>
<path fill-rule="evenodd" clip-rule="evenodd" d="M24.5358 22.2967L24.337 20.9395H23.8603L23.0845 22.2967H23.512L23.6188 22.0434H24.0987V22.2967H24.5358ZM24.0613 21.788H23.7749L24.0613 21.2643V21.788Z" fill="white"/>
<path fill-rule="evenodd" clip-rule="evenodd" d="M30.747 22.2967L30.5482 20.9395H30.0716L29.2979 22.2967H29.7253L29.8322 22.0434H30.3121V22.2967H30.747ZM30.2693 21.788H29.9829L30.2693 21.2643V21.788Z" fill="white"/>
<path fill-rule="evenodd" clip-rule="evenodd" d="M32.9315 20.9075C32.3672 20.9075 32.3191 21.2409 32.3191 21.3157C32.3191 21.3905 32.3052 21.6716 32.8118 21.7208C32.8118 21.7208 32.9678 21.7336 32.9625 21.8714C32.9571 22.0093 32.8652 22.0488 32.7487 22.0403C32.6012 22.0285 32.535 21.9869 32.535 21.8137H32.1844C32.1697 21.9216 32.1803 22.0313 32.2154 22.1343C32.2731 22.2637 32.5083 22.3128 32.7712 22.3128C33.0341 22.3128 33.375 22.0862 33.3835 21.7571C33.3921 21.4279 32.9219 21.4237 32.9219 21.4237C32.9219 21.4237 32.691 21.4375 32.691 21.2644C32.691 21.0913 33.0597 21.0507 33.0501 21.2954H33.4509C33.4509 21.2954 33.5 20.9075 32.9315 20.9075Z" fill="white"/>
<circle cx="20" cy="20" r="19.5" stroke="black" stroke-opacity="0.05"/>
</svg>
