<svg width="40" height="40" viewBox="0 0 40 40" fill="none" xmlns="http://www.w3.org/2000/svg">
<circle cx="20" cy="20" r="20" fill="#1E1E23"/>
<g clip-path="url(#clip0_22307_36406)">
<path d="M6.71801 13.2632H6.76434L7.40141 13.59C7.40141 13.59 7.47091 13.6484 7.47091 13.6951V14.3605C7.47091 14.3605 7.44774 14.4422 7.40141 14.4655L6.81068 14.7573C6.81068 14.7573 6.72959 14.7807 6.68326 14.7573L5.98828 14.3955V13.6484L6.70643 13.2632H6.71801Z" fill="#EBEBEB"/>
<path d="M7.85339 14.769V14.6639C7.85339 14.6639 7.89972 14.5822 7.94606 14.5588C8.1893 14.4304 8.64104 14.1036 8.90745 14.232C9.10436 14.3254 9.31285 14.4304 9.53293 14.5472C9.57926 14.5705 9.60243 14.6055 9.60243 14.6522V15.516C9.60243 15.516 9.57926 15.5977 9.53293 15.6211L9.11594 15.8429C9.11594 15.8429 9.05802 15.8896 9.05802 15.9363V16.4732C9.05802 16.4732 9.09277 16.5549 9.13911 16.5549C9.4866 16.5549 9.66034 16.7534 9.66034 17.1269C9.66034 17.9791 9.66034 18.9129 9.66034 19.9168C9.66034 20.1736 9.45185 20.3721 9.2086 20.3721H8.21246C8.21246 20.3721 8.16613 20.3604 8.16613 20.3254V19.7767C8.16613 19.7767 8.17772 19.7417 8.20088 19.7417H8.89586C8.95378 19.7417 8.98853 19.7184 8.98853 19.6483V17.2086C8.98853 17.2086 8.98853 17.197 8.97694 17.197L7.94606 17.7339C7.94606 17.7339 7.91131 17.769 7.91131 17.7923V22.7767C7.91131 22.7767 7.91131 22.8001 7.88814 22.8001H7.26266C7.26266 22.8001 7.22791 22.8001 7.22791 22.7651V17.8156C7.22791 17.8156 7.20474 17.7339 7.16999 17.7106L6.16227 17.1853C6.16227 17.1853 6.09277 17.1153 6.09277 17.0686V15.5511C6.09277 15.5511 6.11594 15.4693 6.15069 15.446L7.44799 14.7573C7.44799 14.7573 7.51748 14.7339 7.55223 14.7339C7.62173 14.7339 7.67965 14.7573 7.73756 14.804C7.79548 14.8507 7.83023 14.839 7.84181 14.769H7.85339Z" fill="#EBEBEB"/>
<path d="M25.0311 14.2671C25.0311 14.2671 25.1354 14.2904 25.2744 14.3138C25.5176 14.3605 25.5408 14.4538 25.3554 14.6173L23.3052 16.3799C23.3052 16.3799 23.2589 16.4033 23.2357 16.4033H22.2396C22.2396 16.4033 22.228 16.4033 22.228 16.3916L24.4056 14.4538C24.591 14.2904 24.7879 14.2321 25.0311 14.2787V14.2671Z" fill="#EBEBEB"/>
<path d="M28.1117 21.8548V17.5824C28.1117 17.5824 28.0886 17.489 28.0538 17.454L25.2971 15.1544C25.2971 15.1544 25.2739 15.1194 25.2971 15.1077L25.7256 14.7225C25.7256 14.7225 25.7604 14.7108 25.7836 14.7225L28.7836 17.2089C28.7836 17.2089 28.853 17.2906 28.853 17.3489V22.1699C28.853 22.1699 28.8299 22.2633 28.7951 22.2983C27.7411 23.2322 26.7102 24.131 25.7372 24.9948C25.1697 25.4968 24.66 25.2633 24.1503 24.8081C23.548 24.2594 22.8762 23.6641 22.1465 23.0104C22.5171 23.0104 22.853 23.0104 23.131 23.0104C23.1542 23.0104 23.1658 23.0104 23.1774 23.0221L24.8801 24.5396C24.9843 24.633 25.1233 24.633 25.2276 24.5396L28.0422 22.0415C28.0422 22.0415 28.1117 21.9482 28.1117 21.8781V21.8548Z" fill="#EBEBEB"/>
<path d="M25.0773 23.2088L26.8842 21.6213C26.8842 21.6213 26.8958 21.5979 26.8958 21.5863V17.8742C26.8958 17.8742 26.8958 17.8509 26.8842 17.8392L24.556 15.8081C24.556 15.8081 24.5329 15.773 24.556 15.7497L25.0309 15.3411C25.0309 15.3411 25.0657 15.3295 25.0888 15.3411L27.7182 17.6407C27.7182 17.6407 27.7298 17.6641 27.7298 17.6758V21.8081C27.7298 21.8081 27.7298 21.8314 27.7182 21.8431L25.0888 24.1544C25.0888 24.1544 25.0541 24.166 25.0309 24.1544L23.7915 23.0571C23.7915 23.0571 23.7684 23.0221 23.7915 22.9987C23.7915 22.9987 23.8147 22.987 23.8263 22.987H24.7761C24.7761 22.987 24.7993 22.987 24.7993 22.9987L25.0309 23.2205C25.0309 23.2205 25.0657 23.2322 25.0888 23.2205L25.0773 23.2088Z" fill="#EBEBEB"/>
<path d="M24.3011 16.0296L24.6486 16.3214C24.6486 16.3214 24.6718 16.3681 24.6486 16.3798C24.6486 16.3798 24.6255 16.3914 24.6139 16.3914H23.9189C23.9189 16.3914 23.8726 16.3681 23.8726 16.3447C23.8726 16.3331 23.8726 16.3214 23.8841 16.3097L24.2432 16.0179C24.2432 16.0179 24.278 16.0062 24.3011 16.0179V16.0296Z" fill="#EBEBEB"/>
<path d="M12.0696 19.9871V22.1233C12.0696 22.1233 12.0928 22.17 12.116 22.17H13.4133C13.4133 22.17 13.4596 22.1933 13.4596 22.2167V22.7536C13.4596 22.7536 13.4364 22.8003 13.4133 22.8003H11.4326C11.4326 22.8003 11.3862 22.777 11.3862 22.7536V16.6019C11.3862 16.6019 11.4094 16.5552 11.4326 16.5552H13.3785C13.3785 16.5552 13.4248 16.5785 13.4248 16.6019V17.1622C13.4248 17.1622 13.4133 17.2089 13.3901 17.2089H12.116C12.116 17.2089 12.0696 17.2322 12.0696 17.2556V19.275C12.0696 19.275 12.0928 19.3217 12.116 19.3217H13.2743C13.2743 19.3217 13.3206 19.3451 13.3206 19.3684V19.9287C13.3206 19.9521 13.2974 19.9754 13.2743 19.9754H12.116C12.116 19.9754 12.0696 19.9871 12.0696 20.0104V19.9871Z" fill="#EBEBEB"/>
<path d="M15.6604 19.5085V22.7536C15.6604 22.7536 15.6372 22.7886 15.6256 22.7886H15.0581C15.0581 22.7886 15.0117 22.777 15.0117 22.7419V16.6602C15.0117 16.5902 15.0465 16.5552 15.116 16.5552H15.5445C15.6025 16.5552 15.6488 16.5902 15.6604 16.6486L16.4828 20.1038C16.5175 20.2205 16.5407 20.2205 16.5638 20.1038L17.3978 16.6486C17.4094 16.5902 17.4442 16.5552 17.5136 16.5552H17.9654C17.9654 16.5552 18.0465 16.5785 18.0465 16.6369V22.7536C18.0465 22.7536 18.0349 22.7886 18.0117 22.7886H17.4326C17.4326 22.7886 17.3978 22.777 17.3978 22.7536V19.5085C17.3978 19.3451 17.3747 19.3451 17.3399 19.5085L16.6681 22.1583C16.6681 22.1583 16.6218 22.24 16.5638 22.2283H16.4712C16.4712 22.2283 16.4133 22.205 16.4017 22.1583L15.7299 19.5085C15.6951 19.3567 15.672 19.3567 15.672 19.5085H15.6604Z" fill="#EBEBEB"/>
<path d="M20.803 17.2438V22.7536C20.803 22.7536 20.7799 22.8003 20.7567 22.8003H20.1544C20.1544 22.8003 20.1081 22.7886 20.1081 22.7652V17.2438C20.1081 17.2438 20.0849 17.1972 20.0617 17.1972H19.2509C19.2509 17.1972 19.2046 17.1738 19.2046 17.1505V16.5901C19.2046 16.5901 19.2278 16.5435 19.2509 16.5435H21.637C21.637 16.5435 21.6834 16.5668 21.6834 16.5901V17.1505C21.6834 17.1505 21.6602 17.1972 21.637 17.1972H20.8262C20.8262 17.1972 20.7799 17.2205 20.7799 17.2438H20.803Z" fill="#EBEBEB"/>
<path d="M24.5211 19.9871L25.4593 22.7887C25.4593 22.7887 25.4593 22.8237 25.4478 22.8237L24.8223 22.8004C24.8223 22.8004 24.7759 22.7887 24.7644 22.7537L23.6987 19.5085C23.664 19.4035 23.7219 19.2984 23.8146 19.2634C23.8377 19.2634 23.8493 19.2634 23.8725 19.2634H24.5906C24.5906 19.2634 24.6601 19.2284 24.6601 19.1934V17.2323C24.6601 17.2323 24.6485 17.1972 24.6254 17.1972H23.5597C23.5597 17.1972 23.525 17.2089 23.525 17.2323V22.7653C23.525 22.7653 23.5018 22.8004 23.4902 22.8004H22.8995C22.8995 22.8004 22.8647 22.777 22.8647 22.7537V16.6369C22.8647 16.6369 22.8879 16.5669 22.9342 16.5669H24.8686C25.135 16.5669 25.3551 16.7887 25.3551 17.0572C25.3551 17.7576 25.3551 18.528 25.3551 19.3685C25.3551 19.7653 25.0076 19.9288 24.6485 19.8821C24.5559 19.8821 24.5211 19.9054 24.5559 19.9988L24.5211 19.9871Z" fill="#EBEBEB"/>
<path d="M29.9652 18.9248V22.7536C29.9652 22.7536 29.9536 22.7886 29.9304 22.7886H29.3629C29.3629 22.7886 29.3281 22.777 29.3281 22.7536V16.6252C29.3281 16.6252 29.3513 16.5552 29.3976 16.5552H29.7914C29.7914 16.5552 29.8725 16.5785 29.8841 16.6252L31.1467 20.3139C31.2046 20.4657 31.2277 20.4657 31.2277 20.3023V16.6019C31.2277 16.6019 31.2393 16.5668 31.2625 16.5668H31.8301C31.8301 16.5668 31.8648 16.5785 31.8648 16.6019V22.7303C31.8648 22.7303 31.8416 22.8003 31.7953 22.8003H31.4247C31.4247 22.8003 31.3552 22.777 31.3436 22.7419L30.0231 18.9132C29.9768 18.7964 29.9652 18.7964 29.9652 18.9132V18.9248Z" fill="#EBEBEB"/>
<path d="M5.99986 19.2632H6.55585C6.55585 19.2632 6.5906 19.2632 6.5906 19.2982V19.7768C6.5906 19.7768 6.57901 19.8235 6.54427 19.8235H5.98828V19.2749L5.99986 19.2632Z" fill="#EBEBEB"/>
<path d="M10.2363 19.2853L10.2354 19.7755C10.2354 19.7949 10.2509 19.8106 10.2701 19.8106L10.7682 19.8115C10.7874 19.8115 10.8029 19.7959 10.803 19.7765L10.8038 19.2863C10.8039 19.2669 10.7883 19.2512 10.7691 19.2512L10.2711 19.2503C10.2519 19.2503 10.2363 19.2659 10.2363 19.2853Z" fill="#EBEBEB"/>
<path d="M14.4186 19.2452L13.9321 19.2469C13.9065 19.247 13.8858 19.268 13.8859 19.2938L13.8875 19.7607C13.8876 19.7865 13.9084 19.8073 13.934 19.8072L14.4205 19.8055C14.4461 19.8054 14.4668 19.7844 14.4667 19.7586L14.4651 19.2917C14.465 19.2659 14.4441 19.2451 14.4186 19.2452Z" fill="#EBEBEB"/>
<path d="M18.6136 19.296L18.612 19.7629C18.6119 19.7887 18.6326 19.8096 18.6581 19.8097L19.1562 19.8115C19.1818 19.8116 19.2026 19.7907 19.2027 19.765L19.2043 19.298C19.2044 19.2722 19.1837 19.2513 19.1582 19.2512L18.6601 19.2494C18.6345 19.2493 18.6137 19.2702 18.6136 19.296Z" fill="#EBEBEB"/>
<path d="M21.6654 19.3086L21.6646 19.7756C21.6646 19.8014 21.6853 19.8223 21.7109 19.8223L22.1974 19.8232C22.223 19.8232 22.2437 19.8024 22.2438 19.7766L22.2446 19.3097C22.2446 19.2839 22.2239 19.2629 22.1983 19.2629L21.7119 19.262C21.6863 19.262 21.6655 19.2829 21.6654 19.3086Z" fill="#EBEBEB"/>
<path d="M26.3227 19.2486L25.8247 19.2521C25.7991 19.2523 25.7785 19.2733 25.7786 19.2991L25.7819 19.766C25.7821 19.7918 25.8029 19.8126 25.8285 19.8124L26.3266 19.8089C26.3522 19.8087 26.3728 19.7877 26.3726 19.7619L26.3694 19.295C26.3692 19.2692 26.3483 19.2484 26.3227 19.2486Z" fill="#EBEBEB"/>
<path d="M33 19.2631V19.8118H32.4672C32.4672 19.8118 32.4209 19.7884 32.4209 19.7651V19.2865C32.4209 19.2865 32.4325 19.2515 32.4556 19.2515H32.9885L33 19.2631Z" fill="#EBEBEB"/>
</g>
<circle cx="20" cy="20" r="19.5" stroke="black" stroke-opacity="0.05"/>
<defs>
<clipPath id="clip0_22307_36406">
<rect width="27" height="12" fill="white" transform="translate(6 13.2632)"/>
</clipPath>
</defs>
</svg>
