<svg width="40" height="40" viewBox="0 0 40 40" fill="none" xmlns="http://www.w3.org/2000/svg">
<circle cx="20" cy="20" r="20" fill="#32A440"/>
<path d="M25.7015 21.2156C25.1651 20.9995 24.9669 20.4241 25.0238 19.8646C25.0782 19.3333 25.3352 18.9823 25.7962 18.8116C26.0756 18.7086 26.3659 18.7118 26.6683 18.8224C27.332 19.0641 27.5091 19.8563 27.3275 20.4771C27.2022 20.9061 26.9234 21.1708 26.4905 21.2712C26.215 21.3352 25.9522 21.3166 25.7015 21.2156ZM26.1971 20.8499C26.5231 20.8499 26.7872 20.481 26.7872 20.0264C26.7872 19.5718 26.5231 19.2028 26.1971 19.2028C25.871 19.2028 25.6069 19.5718 25.6069 20.0264C25.6069 20.481 25.871 20.8499 26.1971 20.8499Z" fill="white"/>
<path d="M34.4969 19.2993C33.7437 19.0333 33.1465 19.5147 33.3575 20.3114C33.4387 20.6164 33.713 20.8044 34.0212 20.8191C34.1983 20.8274 34.3722 20.7999 34.5436 20.7372C34.5468 20.736 34.5493 20.7372 34.5513 20.7398C34.5717 20.7718 34.603 20.9265 34.6446 21.2033C34.6459 21.2116 34.6401 21.22 34.6318 21.2219C34.0794 21.3561 33.3825 21.3779 32.981 20.8862C32.8486 20.7238 32.7668 20.5377 32.7361 20.3274C32.5564 19.0915 33.5321 18.5224 34.6229 18.8197C34.6651 18.8313 34.6804 18.8581 34.6695 18.9009L34.5743 19.259C34.5634 19.3006 34.5372 19.314 34.4969 19.2993Z" fill="white"/>
<path d="M3.49679 19.5294C3.52429 20.0952 3.53004 20.6668 3.5147 21.2454C3.5147 21.2531 3.51022 21.2569 3.50255 21.2569L3.01407 21.2614C3.00448 21.2614 3 21.2569 3 21.2474V18.8152C3 18.7922 3.01918 18.773 3.0422 18.773L3.5927 18.7755C3.62914 18.7755 3.65664 18.7909 3.67518 18.8209C3.99806 19.3343 4.27875 19.8618 4.51851 20.4034C4.54089 20.4539 4.55048 20.4513 4.54729 20.3964C4.5134 19.8145 4.50189 19.2832 4.51148 18.8018C4.51148 18.7819 4.52171 18.7723 4.54089 18.773L5.0185 18.7749C5.03257 18.7749 5.04344 18.7858 5.04344 18.7998L5.04664 21.225C5.04664 21.248 5.03513 21.2595 5.01211 21.2595H4.48079C4.45713 21.2595 4.4354 21.2467 4.42325 21.2263C4.09717 20.6617 3.79538 20.0939 3.51853 19.5236C3.50255 19.4897 3.49488 19.4916 3.49679 19.5294Z" fill="white"/>
<path d="M6.04973 20.6658L5.89756 21.2285C5.89309 21.2445 5.87902 21.256 5.8624 21.256L5.33811 21.2598C5.31765 21.2598 5.30103 21.2432 5.30103 21.2227C5.30103 21.2195 5.30103 21.2157 5.3023 21.2125L6.03439 18.8001C6.0395 18.7842 6.05357 18.7739 6.07019 18.7739L6.75816 18.7771C6.77414 18.7771 6.78885 18.788 6.79332 18.8033L7.54395 21.2125C7.55034 21.2317 7.53947 21.2528 7.52029 21.2592C7.51646 21.2605 7.51262 21.2611 7.50878 21.2611L6.95381 21.2579C6.93718 21.2579 6.92248 21.247 6.918 21.231L6.75752 20.6639C6.75304 20.6479 6.73834 20.6371 6.72171 20.6371L6.08554 20.6383C6.06891 20.6383 6.05421 20.6498 6.04973 20.6658ZM6.64947 20.1908L6.4129 19.3283C6.40075 19.2848 6.38924 19.2848 6.37773 19.3283L6.15843 20.1588C6.15331 20.1774 6.16482 20.1965 6.18336 20.2016C6.18656 20.2023 6.18912 20.2029 6.19231 20.2029L6.6386 20.2048C6.64499 20.2048 6.6501 20.1997 6.6501 20.1933C6.6501 20.1921 6.6501 20.1914 6.6501 20.1901L6.64947 20.1908Z" fill="white"/>
<path d="M7.93467 19.2762L7.34197 19.282C7.32535 19.282 7.31192 19.2685 7.31128 19.2519V18.8075C7.31128 18.7903 7.32407 18.7769 7.34133 18.7769H9.19871C9.21597 18.7769 9.2294 18.7909 9.2294 18.8082L9.22684 19.2487C9.22684 19.266 9.21342 19.2794 9.19615 19.2794L8.58172 19.2775C8.56445 19.2775 8.55103 19.2909 8.55103 19.3082L8.55614 21.2289C8.55614 21.2461 8.54271 21.2595 8.52545 21.2595H7.99605C7.97879 21.2595 7.96536 21.2461 7.96536 21.2289V19.3069C7.966 19.2896 7.95257 19.2762 7.93531 19.2762C7.93531 19.2762 7.93531 19.2762 7.93467 19.2762Z" fill="white"/>
<path d="M10.0958 20.5859C10.2269 20.9184 10.7167 20.9235 10.8426 20.5846C10.8816 20.4804 10.9014 20.3755 10.9027 20.27C10.9078 19.8308 10.9078 19.3487 10.9027 18.8238C10.9027 18.7886 10.9193 18.7714 10.9545 18.772L11.4244 18.7758C11.4609 18.7758 11.4788 18.7944 11.4794 18.8308C11.4813 19.3129 11.4794 19.7956 11.4762 20.279C11.4724 20.8416 11.1681 21.2515 10.5901 21.3001C10.0786 21.3436 9.73905 21.1824 9.57154 20.8161C9.49289 20.6441 9.45517 20.3864 9.45901 20.0431C9.46412 19.6 9.4654 19.1889 9.46284 18.8091C9.46284 18.7861 9.47371 18.7745 9.49673 18.7745L9.99864 18.7765C10.0185 18.7765 10.0287 18.7867 10.0293 18.8065C10.0306 19.2618 10.0306 19.7381 10.03 20.2349C10.03 20.3557 10.0517 20.4727 10.0965 20.5859H10.0958Z" fill="white"/>
<path d="M12.473 20.3341V21.2279C12.473 21.249 12.4634 21.2593 12.4423 21.2593L11.9315 21.2605C11.9142 21.2605 11.9001 21.2471 11.9001 21.2298V18.8431C11.9001 18.8264 11.9136 18.8124 11.9302 18.8098C12.418 18.7478 13.3848 18.6263 13.6316 19.1934C13.7805 19.5361 13.6424 19.9031 13.3138 20.0751C13.2914 20.0873 13.2901 20.1007 13.31 20.1167C13.4417 20.2196 13.5254 20.3392 13.5606 20.476C13.6277 20.7343 13.6974 20.9875 13.7684 21.2362C13.7729 21.2509 13.7671 21.258 13.7524 21.2586L13.1968 21.2599C13.1821 21.2599 13.1725 21.2529 13.1687 21.2388C13.1066 21.0182 13.0478 20.804 12.9916 20.5949C12.9308 20.3673 12.7697 20.2669 12.5088 20.2944C12.4852 20.297 12.473 20.3104 12.473 20.3341ZM12.4749 19.2318L12.4717 19.8418C12.4717 19.859 12.4845 19.8724 12.5018 19.8731L12.7307 19.8744C12.9404 19.8756 13.1111 19.7324 13.1124 19.5547V19.5265C13.113 19.3488 12.9442 19.2043 12.7345 19.203L12.5056 19.2017C12.489 19.2017 12.4756 19.2152 12.4749 19.2318Z" fill="white"/>
<path d="M14.4545 21.2585L13.9193 21.2598C13.9014 21.2598 13.8867 21.2451 13.8867 21.2272C13.8867 21.224 13.8867 21.2208 13.888 21.2176L14.6284 18.7969C14.6329 18.7835 14.6457 18.7739 14.6597 18.7739L15.3522 18.7771C15.3662 18.7771 15.3784 18.7867 15.3829 18.8001L16.1348 21.2189C16.1399 21.2362 16.1303 21.2541 16.113 21.2598C16.1098 21.2611 16.1066 21.2611 16.1034 21.2611L15.5433 21.2566C15.5293 21.2566 15.5165 21.247 15.512 21.2336L15.3458 20.6607C15.3419 20.6467 15.3291 20.6371 15.3144 20.6371H14.6706C14.6559 20.6377 14.6431 20.6479 14.6393 20.662L14.4858 21.2342C14.482 21.2483 14.4692 21.2585 14.4545 21.2585ZM15.0043 19.3155C15.0018 19.304 14.9903 19.2976 14.9788 19.3001C14.9711 19.302 14.9653 19.3078 14.9634 19.3155L14.7441 20.1793C14.7416 20.1908 14.748 20.2023 14.7595 20.2048C14.7614 20.2048 14.7633 20.2055 14.7652 20.2048L15.2102 20.2036C15.2217 20.2036 15.2313 20.194 15.2313 20.1825C15.2313 20.1805 15.2313 20.1793 15.2313 20.1774L15.005 19.3148L15.0043 19.3155Z" fill="white"/>
<path d="M17.0208 20.7732L17.9421 20.7707C17.9587 20.7707 17.9721 20.7841 17.9721 20.8007L17.9734 21.2291C17.9734 21.2457 17.96 21.2592 17.9434 21.2592H16.4536C16.437 21.2592 16.4236 21.2457 16.4236 21.2291V18.804C16.4242 18.7874 16.4376 18.7739 16.4543 18.7739L16.9645 18.7784C16.9811 18.7784 16.9945 18.7918 16.9945 18.8085L16.9907 20.7432C16.9907 20.7598 17.0041 20.7732 17.0208 20.7732Z" fill="white"/>
<path d="M18.8596 19.757L19.6863 19.7532C19.71 19.7532 19.7292 19.7723 19.7292 19.796L19.7317 20.1847C19.7317 20.2084 19.7132 20.2276 19.6895 20.2282C19.6895 20.2282 19.6889 20.2282 19.6882 20.2282L18.8564 20.2225C18.8328 20.2225 18.8136 20.2416 18.8136 20.2653C18.8136 20.2653 18.8136 20.2653 18.8136 20.2659L18.8181 20.7499C18.8181 20.7736 18.8372 20.7928 18.8609 20.7928C18.8609 20.7928 18.8609 20.7928 18.8615 20.7928L19.7841 20.7864C19.8078 20.7864 19.827 20.8049 19.8276 20.8286L19.8359 21.2148C19.8366 21.2384 19.818 21.2582 19.7944 21.2589C19.7944 21.2589 19.7937 21.2589 19.7931 21.2589H18.2867C18.2631 21.2589 18.2439 21.2391 18.2439 21.2154V18.8241C18.2439 18.8005 18.2624 18.7819 18.2861 18.7813L19.733 18.7666C19.7567 18.7666 19.7758 18.7851 19.7765 18.8088L19.7797 19.2212C19.7797 19.2449 19.7611 19.2634 19.7375 19.264L18.8398 19.2666C18.8161 19.2666 18.797 19.2858 18.797 19.3094C18.797 19.3101 18.797 19.3107 18.797 19.3113L18.8168 19.7161C18.8181 19.7391 18.8366 19.757 18.8596 19.757Z" fill="white"/>
<path d="M20.6672 19.5528L20.6768 21.226C20.6768 21.2478 20.6659 21.2586 20.6442 21.2586L20.1762 21.2612C20.1627 21.2612 20.1519 21.2503 20.1519 21.2369L20.1487 18.8156C20.1487 18.7913 20.1685 18.7715 20.1928 18.7715C20.1928 18.7715 20.1928 18.7715 20.1934 18.7715L20.758 18.774C20.7938 18.774 20.8207 18.79 20.8379 18.8214C21.1212 19.315 21.4389 19.8233 21.6487 20.3501C21.6902 20.4537 21.7068 20.4498 21.6992 20.3386C21.664 19.8265 21.655 19.3162 21.671 18.8092C21.6717 18.7856 21.6845 18.774 21.7081 18.7734L22.1608 18.7715C22.1851 18.7715 22.2043 18.7913 22.2043 18.8156L22.2068 21.2126C22.2068 21.2388 22.1857 21.2599 22.1602 21.2599H21.6352C21.609 21.2599 21.5847 21.2459 21.5719 21.2228C21.2765 20.6909 20.93 20.1257 20.6928 19.5477C20.6755 19.5048 20.6666 19.5061 20.6672 19.5528Z" fill="white"/>
<path d="M22.6269 18.8781C22.6269 18.8148 22.678 18.7637 22.7413 18.7637L23.6083 18.7656C24.2746 18.7669 24.8142 19.279 24.8129 19.9094V20.1358C24.8116 20.7662 24.2707 21.2771 23.6045 21.2758L22.7375 21.2739C22.6742 21.2739 22.623 21.2227 22.623 21.1594L22.6269 18.8781ZM23.1972 19.2534V20.7854C23.1972 20.8097 23.217 20.8295 23.2413 20.8295H23.476C23.8807 20.8295 24.2087 20.5015 24.2087 20.0968V19.942C24.2087 19.5373 23.8807 19.2093 23.476 19.2093H23.2413C23.217 19.2093 23.1972 19.2291 23.1972 19.2534Z" fill="white"/>
<path d="M30.0078 19.3133V21.2205C30.0078 21.241 29.9918 21.257 29.9714 21.2576L29.4701 21.2621C29.4496 21.2621 29.433 21.2461 29.4324 21.2257C29.4324 21.2257 29.4324 21.2257 29.4324 21.225L29.4362 19.3139C29.4362 19.2935 29.4196 19.2768 29.3991 19.2768C29.3991 19.2768 29.3991 19.2768 29.3985 19.2768L28.8039 19.2839C28.7834 19.2839 28.7668 19.2679 28.7662 19.2474L28.7598 18.8146C28.7598 18.7941 28.7757 18.7775 28.7962 18.7769C28.7962 18.7769 28.7962 18.7769 28.7968 18.7769L30.6421 18.7788C30.6625 18.7788 30.6792 18.7954 30.6792 18.8159L30.6772 19.243C30.6772 19.2634 30.6606 19.28 30.6402 19.28L30.0449 19.2762C30.0244 19.2762 30.0078 19.2928 30.0078 19.3133Z" fill="white"/>
<path d="M31.5301 19.759L32.3562 19.7526C32.3799 19.7526 32.392 19.7641 32.3927 19.7878L32.3997 20.2021C32.3997 20.2168 32.392 20.2238 32.3773 20.2238L31.525 20.2226C31.5122 20.2226 31.5014 20.2334 31.5014 20.2462C31.5026 20.5512 31.5033 20.7251 31.5039 20.7673C31.5039 20.782 31.5116 20.7897 31.5263 20.7897C31.8383 20.7897 32.1471 20.7884 32.4528 20.7846C32.4847 20.7846 32.5007 20.7999 32.5014 20.8319L32.5026 21.2104C32.5026 21.2417 32.4873 21.2577 32.456 21.2577L30.9477 21.259C30.9291 21.259 30.9138 21.2436 30.9138 21.2245L30.9119 18.8172C30.9119 18.7923 30.924 18.7801 30.949 18.7795L32.3901 18.7725C32.4221 18.7725 32.4483 18.7987 32.4489 18.8306L32.4528 19.2155C32.4528 19.2482 32.4374 19.2641 32.4048 19.2641L31.5282 19.2622C31.5084 19.2622 31.4982 19.2725 31.4982 19.2929V19.7283C31.4988 19.7494 31.509 19.7597 31.5301 19.759Z" fill="white"/>
<path d="M35.5377 20.2762L35.5415 21.2206C35.5415 21.241 35.5249 21.2577 35.5044 21.2577L34.9897 21.2609C34.9693 21.2609 34.9526 21.2442 34.9526 21.2238V18.8076C34.9533 18.7871 34.9699 18.7705 34.9904 18.7705L35.5025 18.7737C35.523 18.7737 35.5396 18.7903 35.5396 18.8108L35.5389 19.7027C35.5389 19.7232 35.5556 19.7398 35.576 19.7398H36.3957C36.4162 19.7398 36.4328 19.7232 36.4328 19.7027L36.4309 18.814C36.4309 18.7935 36.4469 18.7769 36.4673 18.7763C36.4673 18.7763 36.4673 18.7763 36.468 18.7763L36.9622 18.7724C36.9826 18.7724 36.9993 18.7884 36.9999 18.8089C36.9999 18.8089 36.9999 18.8089 36.9999 18.8095V21.2219C36.9999 21.2423 36.9833 21.259 36.9628 21.259H36.4673C36.4469 21.259 36.4302 21.2423 36.4302 21.2219L36.4347 20.2782C36.4347 20.2577 36.4181 20.2411 36.3976 20.2411L35.5747 20.2392C35.5543 20.2392 35.5377 20.2558 35.5377 20.2762Z" fill="white"/>
<circle cx="20" cy="20" r="19.5" stroke="black" stroke-opacity="0.05"/>
</svg>
