<svg width="40" height="40" viewBox="0 0 40 40" fill="none" xmlns="http://www.w3.org/2000/svg">
<circle cx="20" cy="20" r="20" fill="#0C479D"/>
<g clip-path="url(#clip0_19604_31178)">
<path d="M15.7252 9.59024C19.6444 9.71783 21.0478 10.3067 21.0478 10.3067C29.1052 12.3284 32.2327 17.8701 32.2327 17.8701C32.8248 18.737 32.6514 19.375 32.6514 19.375C32.4813 20.7522 30.2895 21.3705 30.2895 21.3705C28.8599 21.7434 27.0377 22.4043 27.0377 22.4043C24.2014 23.1927 21.2702 25.041 21.2702 25.041C19.471 26.1238 16.8342 27.9983 16.8342 27.9983C14.7406 29.4312 13.4091 29.778 13.4091 29.778C11.8356 30.2687 11.1191 29.8009 11.1191 29.8009C10.6742 29.5294 10.648 28.9601 10.648 28.9601C10.4256 28.4204 11.9304 25.836 11.9304 25.836C12.8693 24.282 14.4396 20.7326 14.4396 20.7326C15.1364 18.9824 14.8681 18.4884 14.8681 18.4884C14.7504 17.1864 12.8726 14.9946 12.8726 14.9946C11.9337 13.8594 11.2467 12.8485 11.2467 12.8485C10.7004 12.0863 10.8247 11.1932 10.8247 11.1932C11.1682 9.34162 15.7252 9.59024 15.7252 9.59024ZM17.8909 9.96973C16.9651 10.4997 17.3446 12.9009 18.7415 15.3283C20.1351 17.7556 22.0194 19.2899 22.9452 18.7632C23.871 18.2267 23.4915 15.8288 22.0946 13.4014C20.6945 10.974 18.8134 9.43322 17.8909 9.96973Z" fill="white"/>
</g>
<circle cx="20" cy="20" r="19.5" stroke="black" stroke-opacity="0.05"/>
<defs>
<clipPath id="clip0_19604_31178">
<rect width="22.0459" height="20.42" fill="white" transform="translate(10.6282 9.58008)"/>
</clipPath>
</defs>
</svg>
