<svg width="40" height="40" viewBox="0 0 40 40" fill="none" xmlns="http://www.w3.org/2000/svg">
<circle cx="20" cy="20" r="20" fill="#00ACCD"/>
<path d="M16.8654 30.4426C16.8654 30.4426 16.9464 26.3586 16.4162 24.8368C15.8769 23.3166 15.281 20.8675 11.3116 18.3083C9.92737 17.413 9.46901 17.4939 9.32845 17.578C9.18177 17.6605 8.96634 18.0302 9.0076 19.6727C9.04885 21.3212 8.92662 25.8437 10.8578 27.8406C12.7967 29.8345 14.2909 30.3096 16.8654 30.4426ZM20.0005 19.6635C23.1082 14.6903 27.7911 12.9363 28.3014 12.7805C28.7445 12.6491 28.966 12.5055 29.0012 12.1403C29.0439 11.7889 28.4725 11.0342 26.824 10.2519C24.5719 9.1778 20.0021 9.30462 20.0021 9.30462C20.0021 9.30462 15.4353 9.1778 13.1832 10.2519C11.5377 11.0342 10.9602 11.7904 11.003 12.1403C11.0442 12.5055 11.2566 12.6491 11.7012 12.7805C12.21 12.9363 16.8959 14.6903 20.0005 19.6635ZM20.0005 30.5999C20.818 30.5999 21.5712 30.5633 22.2572 30.5174C22.2572 30.5174 22.3397 26.8399 22.1136 25.4755C21.8645 23.9568 21.339 21.555 20.0005 19.7048C18.6683 21.555 18.1427 23.9568 17.8921 25.474C17.6736 26.8399 17.7515 30.5159 17.7515 30.5159C18.4375 30.5633 19.1923 30.5999 20.0005 30.5999ZM23.1388 30.4426C23.1388 30.4426 23.0563 26.3586 23.591 24.8368C24.1288 23.3166 24.7247 20.8675 28.6956 18.3083C30.0783 17.4114 30.5397 17.4939 30.6788 17.578C30.8254 17.6605 31.0409 18.0302 30.9965 19.6727C30.9568 21.3212 31.0836 25.8437 29.1478 27.8406C27.212 29.8345 25.7102 30.3096 23.1388 30.4426Z" fill="white"/>
<path d="M10.3764 14.0059C10.0953 13.9509 9.90891 13.6682 9.90891 13.3688C9.90898 13.2593 9.93627 13.1516 9.98831 13.0553C10.0404 12.9591 10.1155 12.8772 10.2071 12.8172C10.2986 12.7572 10.4036 12.7209 10.5126 12.7116C10.6217 12.7022 10.7313 12.7202 10.8317 12.7637C10.8317 12.7637 13.8141 14.1128 15.6934 16.5926L15.6445 16.6659C13.1296 14.6934 10.3764 14.0059 10.3764 14.0059ZM9.70876 15.5368C9.56961 15.5011 9.44569 15.4214 9.35541 15.3097C9.26513 15.1979 9.2133 15.06 9.20762 14.9165C9.19846 14.5529 9.47653 14.2274 9.84474 14.2274C9.94648 14.2277 10.0472 14.248 10.1411 14.287C10.1411 14.287 13.1449 15.5047 15.0227 17.8041L14.9692 17.8683C12.3443 16.0059 9.70876 15.5368 9.70876 15.5368ZM9.57889 17.2006C9.44471 17.1679 9.32486 17.0923 9.23747 16.9853C9.15008 16.8784 9.09992 16.7459 9.09456 16.6078C9.08768 16.5002 9.10822 16.3926 9.15427 16.2951C9.20032 16.1976 9.27036 16.1134 9.35785 16.0503C9.44533 15.9872 9.54739 15.9474 9.65446 15.9346C9.76153 15.9217 9.87011 15.9363 9.97003 15.9768C9.97003 15.9768 12.8638 17.1563 14.3733 18.9837L14.3244 19.0631C11.808 17.4558 9.57889 17.2006 9.57889 17.2006ZM29.6275 14.0059C29.9116 13.9509 30.1011 13.6682 30.1011 13.3688C30.0999 13.2591 30.0717 13.1514 30.0189 13.0553C29.9662 12.9591 29.8905 12.8775 29.7986 12.8177C29.7066 12.7578 29.6014 12.7216 29.4921 12.7122C29.3828 12.7027 29.2729 12.7205 29.1722 12.7637C29.1722 12.7637 26.1867 14.1144 24.312 16.5926L24.3609 16.6659C26.8758 14.695 29.6259 14.0044 29.6259 14.0044M30.2997 15.5368C30.4383 15.5007 30.5614 15.4208 30.6509 15.309C30.7404 15.1973 30.7914 15.0596 30.7963 14.9165C30.8019 14.8037 30.7783 14.6914 30.7278 14.5904C30.6774 14.4894 30.6017 14.4031 30.5082 14.3398C30.4147 14.2766 30.3065 14.2385 30.1939 14.2292C30.0814 14.22 29.9684 14.2399 29.8658 14.287C29.8658 14.287 26.862 15.5047 24.9767 17.8041L25.0332 17.8683C27.6611 16.0059 30.2997 15.5368 30.2997 15.5368ZM30.4281 17.2006C30.5616 17.1671 30.6806 17.0912 30.7673 16.9843C30.8541 16.8775 30.9039 16.7454 30.9093 16.6078C30.9156 16.523 30.9046 16.4379 30.877 16.3575C30.8494 16.277 30.8058 16.203 30.7488 16.1399C30.6918 16.0768 30.6227 16.0259 30.5455 15.9903C30.4683 15.9546 30.3847 15.935 30.2997 15.9325C30.2113 15.9334 30.1237 15.9483 30.04 15.9768C30.04 15.9768 27.1416 17.1563 25.6321 18.9837L25.6825 19.0631C28.1913 17.4558 30.4281 17.2006 30.4281 17.2006Z" fill="white"/>
<circle cx="20" cy="20" r="19.5" stroke="black" stroke-opacity="0.05"/>
</svg>
