<svg width="40" height="40" viewBox="0 0 40 40" fill="none" xmlns="http://www.w3.org/2000/svg">
<circle cx="20" cy="20" r="20" fill="#BE2050"/>
<path d="M13.9352 14.5227C13.4319 15.0554 12.5639 16.101 12.7018 16.8489C12.7851 17.3002 13.0063 17.7229 13.357 18.0151C13.6307 18.2422 13.8764 18.5141 14.085 18.7931C14.8093 19.7607 14.8487 20.7485 14.2033 21.7563C13.8309 22.338 13.3503 22.87 12.7613 23.3522C11.6199 24.2862 10.3632 25.217 8.99122 26.1444C8.80572 26.2699 8.59643 26.3799 8.39973 26.4851C8.3512 26.5108 8.3085 26.5033 8.27163 26.4626L8.01964 26.1816C7.99071 26.1489 7.99374 26.1197 8.02874 26.094C9.11838 25.3067 10.1322 24.4554 11.0702 23.54C11.6712 22.9532 12.1304 22.389 12.4477 21.8474C12.6937 21.4274 12.787 21.0286 12.7277 20.6511C12.664 20.2474 12.2237 19.9025 11.885 19.7014C11.4654 19.4519 11.0247 19.237 10.5627 19.0566C10.177 18.9059 9.9488 18.7279 9.778 18.3557C9.6282 18.0287 9.60277 17.7053 9.7017 17.3857C9.9285 16.6498 10.5067 15.9833 11.0968 15.4731C12.5548 14.2122 14.0661 13.0306 15.7083 12.062C15.7899 12.0138 15.8781 11.9937 15.9729 12.0017C16.1763 12.0199 16.3866 12.0384 16.6035 12.0571C16.6885 12.0645 16.6966 12.0937 16.628 12.1447C15.6387 12.8764 14.7411 13.669 13.9352 14.5227Z" fill="white"/>
<path d="M26.6294 21.2022C26.6243 21.2274 26.614 21.2522 26.5986 21.2765C26.1445 21.9913 25.6891 22.717 25.2322 23.4534C25.2222 23.4698 25.2081 23.4834 25.1912 23.4927C25.1744 23.5021 25.1555 23.5068 25.1363 23.5066L23.9324 23.5003C23.9249 23.5003 23.9177 23.4983 23.9113 23.4945C23.9049 23.4907 23.8996 23.4853 23.896 23.4788C23.8924 23.4723 23.8905 23.465 23.8906 23.4576C23.8907 23.4502 23.8928 23.4429 23.8967 23.4365L26.313 19.3687C26.321 19.3552 26.3252 19.3397 26.3251 19.324C26.325 19.3083 26.3205 19.293 26.3123 19.2797L25.1531 17.4049C25.1497 17.3992 25.1478 17.3926 25.1477 17.3859C25.1476 17.3792 25.1492 17.3726 25.1525 17.3667C25.1558 17.3609 25.1605 17.356 25.1663 17.3526C25.1721 17.3492 25.1786 17.3474 25.1853 17.3474L26.4621 17.3481C26.4798 17.3481 26.4972 17.3525 26.5128 17.361C26.5285 17.3694 26.5418 17.3816 26.5517 17.3965L27.7571 19.2334C27.7949 19.2914 27.7958 19.35 27.7599 19.4094C27.3763 20.0378 27.0081 20.6275 26.6553 21.1783C26.6516 21.1835 26.6467 21.187 26.6406 21.1889C26.6341 21.1912 26.6303 21.1956 26.6294 21.2022Z" fill="white"/>
<path d="M27.0122 20.9667C27.1863 20.6602 27.3907 20.3682 27.6254 20.0906C28.4164 19.1536 29.8101 18.7681 31.0035 18.8865C31.2406 18.9099 31.4588 18.9959 31.658 19.1444C32.0822 19.4605 32.0598 20.0479 31.8701 20.5013C31.858 20.5308 31.8361 20.5462 31.8043 20.5476L30.6641 20.6086C30.6529 20.6091 30.6419 20.6057 30.6331 20.5989C30.6242 20.5921 30.6181 20.5823 30.6158 20.5714C30.5724 20.3752 30.5047 20.1936 30.4128 20.0268C30.2952 19.8124 29.9123 19.8607 29.7254 19.9322C29.1731 20.1425 28.6859 20.6359 28.3135 21.0992C28.1884 21.2543 28.0998 21.4262 28.0475 21.615C27.9929 21.8098 27.9698 22.3341 28.2547 22.3923C28.93 22.5296 29.4106 22.3058 29.6967 21.7208C29.7083 21.697 29.7272 21.6853 29.7534 21.6858L31.1183 21.7243C31.1239 21.7246 31.1293 21.7264 31.134 21.7295C31.1386 21.7326 31.1423 21.7369 31.1447 21.7419C31.147 21.7469 31.1478 21.7525 31.1472 21.7579C31.1465 21.7634 31.1442 21.7685 31.1407 21.7727C30.1531 23.009 28.7531 23.6903 27.1697 23.2985C27.096 23.2803 27.0342 23.2443 26.9842 23.1905C26.3669 22.5261 26.6041 21.6837 27.0122 20.9667Z" fill="white"/>
<path d="M22.4081 19.6559C23.197 19.2929 24.0685 19.0637 24.898 19.3286C25.6098 19.5564 25.4544 20.1809 25.1528 20.6596C24.5704 21.5819 23.967 22.5423 23.3426 23.5408C23.3289 23.5628 23.3099 23.581 23.2876 23.5937C23.2652 23.6064 23.2401 23.6133 23.2145 23.6137L21.846 23.6389C21.8403 23.6391 21.8346 23.6377 21.8295 23.6348C21.8245 23.6319 21.8204 23.6278 21.8175 23.6227C21.8146 23.6176 21.8132 23.6118 21.8133 23.6059C21.8134 23.6 21.815 23.5942 21.818 23.5892C22.3057 22.7977 22.8262 21.9573 23.3797 21.0682C23.5094 20.8598 23.543 20.6395 23.4805 20.4073C23.4217 20.1893 23.1508 20.218 22.9828 20.2559C22.2917 20.4101 21.7795 20.7568 21.4463 21.2959C20.9605 22.0809 20.4783 22.8575 19.9995 23.6256C19.9915 23.6383 19.9804 23.6487 19.9672 23.6559C19.954 23.6631 19.9391 23.6669 19.9239 23.667L18.6219 23.6656C18.6169 23.6655 18.6121 23.6641 18.6078 23.6616C18.6036 23.659 18.6 23.6554 18.5976 23.6511C18.5951 23.6468 18.5938 23.642 18.5938 23.637C18.5937 23.632 18.595 23.6272 18.5974 23.6228L21.0494 19.4036C21.0672 19.3732 21.0933 19.3581 21.1278 19.3581L22.4228 19.3532C22.4302 19.3531 22.4375 19.3549 22.444 19.3584C22.4506 19.3619 22.4561 19.3671 22.4602 19.3733C22.4643 19.3796 22.4668 19.3867 22.4675 19.3942C22.4682 19.4017 22.467 19.4093 22.4641 19.4162L22.3752 19.6237C22.3584 19.6629 22.3694 19.6737 22.4081 19.6559Z" fill="white"/>
<path d="M16.835 23.3188C16.8356 23.3128 16.8346 23.3068 16.8321 23.3013C16.8296 23.2958 16.8257 23.2911 16.8207 23.2877C16.8158 23.2843 16.8101 23.2822 16.8041 23.2818C16.7981 23.2813 16.7921 23.2825 16.7867 23.2852C16.1292 23.6155 15.4868 23.7734 14.8596 23.7589C14.6503 23.754 14.4277 23.6938 14.2611 23.5669C13.7131 23.1478 13.9664 22.5303 14.2765 22.0551C14.8533 21.1706 15.4219 20.2908 15.9824 19.4157C15.9954 19.3949 16.0136 19.3778 16.0352 19.366C16.0567 19.3542 16.081 19.3482 16.1056 19.3484L17.367 19.3568C17.4085 19.3568 17.4185 19.3746 17.3971 19.4101C16.9061 20.2226 16.4038 21.0529 15.89 21.9009C15.7724 22.0951 15.6289 22.5415 15.8963 22.667C16.3366 22.8731 17.0023 22.5927 17.4062 22.3138C17.4981 22.2502 17.5728 22.168 17.6302 22.0671C18.1449 21.1657 18.6647 20.2506 19.1897 19.3218C19.1982 19.3069 19.2105 19.2945 19.2252 19.2859C19.24 19.2773 19.2567 19.2727 19.2737 19.2727L20.6751 19.2804C20.6803 19.2805 20.6854 19.2819 20.6899 19.2845C20.6944 19.2872 20.6982 19.2909 20.7008 19.2955C20.7034 19.3 20.7048 19.3051 20.7048 19.3103C20.7049 19.3156 20.7035 19.3207 20.701 19.3253L18.2007 23.6146C18.1921 23.6292 18.1799 23.6413 18.1653 23.6496C18.1506 23.6578 18.1341 23.662 18.1174 23.6615L16.8553 23.6342C16.8482 23.634 16.8412 23.6324 16.8348 23.6294C16.8284 23.6265 16.8226 23.6222 16.818 23.6169C16.8133 23.6117 16.8098 23.6055 16.8076 23.5988C16.8055 23.5921 16.8048 23.5851 16.8056 23.5781L16.835 23.3188Z" fill="white"/>
<circle cx="20" cy="20" r="19.5" stroke="black" stroke-opacity="0.05"/>
</svg>
