<svg width="40" height="40" viewBox="0 0 40 40" fill="none" xmlns="http://www.w3.org/2000/svg">
<circle cx="20" cy="20" r="20" fill="#C11C23"/>
<path d="M5 20.5362C5.01185 20.4976 5.03039 20.4754 5.03435 20.4487C5.30242 18.9733 6.12548 17.8834 7.3771 17.0999C8.27615 16.5367 9.25757 16.2868 10.3171 16.4224C11.3055 16.5491 12.0143 17.0558 12.3739 18.0077C12.4091 18.1013 12.4018 18.1634 12.3207 18.2406C11.8104 18.725 11.3085 19.2183 10.8031 19.7077C10.7663 19.7432 10.7229 19.7721 10.6602 19.8216C10.9034 18.9496 10.3536 18.1782 9.47489 18.1162C8.31293 18.0342 7.13274 18.87 6.83731 19.9836C6.60024 20.8827 7.14277 21.6425 8.07191 21.7033C8.69255 21.7444 9.22991 21.5194 9.68795 21.1289C10.1609 20.7256 10.6153 20.2979 11.0505 19.8542C11.9572 18.9299 12.8966 18.0503 14.0379 17.4157C14.9926 16.8847 16.0041 16.5443 17.1077 16.5491C17.7095 16.5519 18.2882 16.675 18.7757 17.054C19.4574 17.584 19.7146 18.305 19.634 19.1454C19.4213 21.3702 17.4809 22.9644 15.7293 23.2485C15.1288 23.3461 14.5245 23.358 13.9543 23.1057C13.6996 22.9929 13.4705 22.8233 13.2191 22.6735C13.1905 22.7735 13.1486 22.9051 13.1149 23.0382C12.9106 23.8461 12.708 24.6544 12.507 25.463C12.483 25.5603 12.4462 25.6095 12.3383 25.6366C11.7997 25.7731 11.2648 25.9223 10.721 26.0758C10.7192 26.0779 10.7168 26.0795 10.7142 26.0805C10.7115 26.0815 10.7087 26.0818 10.7059 26.0815C10.7031 26.0812 10.7004 26.0802 10.6981 26.0786C10.6957 26.077 10.6938 26.0749 10.6925 26.0724C10.6873 26.0591 10.6858 26.0446 10.6882 26.0305C11.1901 24.4425 11.6925 22.8548 12.1954 21.2675C12.2168 21.2059 12.2496 21.1488 12.2921 21.0994C12.8532 20.4198 13.4964 19.8123 14.2069 19.291C14.2485 19.2606 14.2932 19.2341 14.3403 19.2034C14.3498 19.228 14.3531 19.2338 14.3522 19.2338C14.3288 19.2727 14.3036 19.3107 14.2811 19.3502C14.0379 19.7782 13.8859 20.2301 13.9747 20.7268C14.0963 21.4036 14.6698 21.8343 15.4336 21.8425C16.1387 21.8501 16.7314 21.569 17.2484 21.1131C17.8259 20.6025 18.1733 19.9745 18.1256 19.1831C18.0973 18.7086 17.8949 18.3226 17.425 18.1369C17.0512 17.991 16.6585 17.9649 16.2609 18.0156C15.6476 18.0962 15.0981 18.3451 14.5801 18.6688C13.5963 19.2831 12.7626 20.0669 12.017 20.9505C11.5307 21.528 11.038 22.0987 10.4138 22.537C9.39191 23.2555 8.27099 23.592 7.02119 23.3795C5.99084 23.2045 5.27385 22.51 5.04559 21.4915C5.0335 21.4509 5.01837 21.4113 5.0003 21.3729L5 20.5362Z" fill="white"/>
<path d="M34.999 21.2996C34.9628 21.3908 34.9263 21.4698 34.8862 21.5571H34.5355C34.4443 21.8707 34.3513 22.1786 34.2665 22.4892C34.2334 22.6108 34.2841 22.6576 34.4096 22.6385C34.4595 22.6306 34.5084 22.6166 34.5808 22.6002C34.5589 22.7217 34.5437 22.8345 34.5154 22.9436C34.5079 22.9608 34.4963 22.9758 34.4817 22.9876C34.4671 22.9993 34.4499 23.0074 34.4315 23.0111C34.2723 23.0293 34.1103 23.0582 33.9522 23.0457C33.7112 23.0269 33.6179 22.8938 33.6787 22.6622C33.7583 22.3446 33.8556 22.0315 33.9455 21.7166C33.9592 21.6686 33.9729 21.6203 33.9893 21.5619L33.7525 21.5501C33.793 21.4154 33.8313 21.2878 33.8705 21.158H34.0832C34.0981 21.1473 34.1136 21.1425 34.1136 21.1364C34.1376 20.8136 34.368 20.6881 34.6303 20.5893C34.6993 20.5638 34.7653 20.5285 34.8531 20.489C34.7865 20.7176 34.7254 20.9282 34.6598 21.154C34.7741 21.154 34.8725 21.154 34.9868 21.1565C34.9983 21.2033 35.0024 21.2516 34.999 21.2996Z" fill="white"/>
<path d="M19.4692 22.0985C19.2345 21.4906 19.3291 20.908 19.6193 20.3752C20.3093 19.1089 21.38 18.4299 22.8411 18.4315C23.2401 18.4315 23.6182 18.5509 23.9754 18.8187C24.0058 18.6135 24.048 18.4372 24.058 18.2594C24.0702 18.0482 23.9723 17.9212 23.7693 17.8479C23.4298 17.7263 23.0818 17.7567 22.7359 17.8047C22.0508 17.9005 21.4092 18.1497 20.7603 18.371C20.7299 18.3816 20.6962 18.3895 20.6387 18.4059C20.9557 17.9297 21.2563 17.4753 21.5612 17.0236C21.5922 16.9851 21.6349 16.9576 21.6828 16.9452C22.3754 16.7437 23.0787 16.6008 23.8039 16.6376C24.0661 16.6483 24.3261 16.6902 24.5784 16.7625C25.1413 16.9321 25.4458 17.3826 25.372 17.9664C25.3157 18.3707 25.2284 18.77 25.1109 19.1609C24.7556 20.3925 24.3814 21.6186 24.021 22.8486C23.9906 22.951 23.9431 22.9963 23.8413 23.0139C23.4532 23.0802 23.066 23.1528 22.6529 23.2267C22.6915 23.0808 22.7274 22.9456 22.7645 22.8048C22.5317 22.8924 22.3165 22.9887 22.0925 23.0547C21.5973 23.1997 21.0952 23.2179 20.595 23.0769C20.0719 22.9298 19.7005 22.603 19.4722 22.0976M23.3745 20.1046C23.266 19.8466 23.0705 19.6837 22.7997 19.6393C22.6009 19.607 22.3988 19.5984 22.1979 19.6138C21.4955 19.6688 20.8484 20.2305 20.6962 20.8991C20.5795 21.4128 20.8357 21.8414 21.3481 21.9529C21.8925 22.0727 22.4004 21.9714 22.8274 21.6064C23.2784 21.2213 23.5106 20.7378 23.3745 20.1046Z" fill="white"/>
<path d="M27.471 21.934C27.8163 21.7413 28.0439 21.4732 28.1166 21.0872C28.1619 20.8459 28.1011 20.6583 27.8801 20.5489C27.6522 20.4356 27.4023 20.3666 27.1613 20.2799C26.8531 20.1699 26.5328 20.086 26.2373 19.949C25.6529 19.6781 25.4729 19.2599 25.6249 18.6335C25.7887 17.9576 26.2249 17.4971 26.8103 17.17C27.6418 16.7065 28.5123 16.629 29.4092 16.9682C29.7077 17.081 29.9518 17.2776 30.1691 17.5329L29.3609 18.2527C29.2089 18.1311 29.0734 18.0028 28.9187 17.9013C28.2847 17.4846 27.3257 17.5959 26.8783 18.1299C26.8653 18.1454 26.8522 18.1603 26.84 18.177C26.5328 18.5812 26.6039 18.9253 27.0674 19.1286C27.3382 19.2472 27.6345 19.3058 27.9169 19.3988C28.1129 19.4633 28.3135 19.5231 28.4968 19.6152C29.1287 19.9325 29.3518 20.4535 29.1439 21.1304C28.8676 22.03 28.2193 22.571 27.3695 22.8847C26.6948 23.1339 26.0018 23.1464 25.321 22.892C24.8915 22.7315 24.5787 22.4361 24.3696 22.0106L25.2763 21.3835C25.8465 22.1461 26.6255 22.3416 27.471 21.934Z" fill="white"/>
<path d="M32.6965 21.1042C32.7968 21.1081 32.8969 21.1173 32.9962 21.1316C33.2825 21.1857 33.4685 21.3857 33.4719 21.6753C33.474 21.8577 33.4315 22.0419 33.4084 22.2294H32.0625C31.999 22.4091 32.023 22.5334 32.1336 22.6197C32.2443 22.706 32.4853 22.7309 32.5826 22.6039C32.7908 22.3303 33.0269 22.4762 33.2634 22.5018C32.9932 22.9805 32.278 23.2118 31.7896 22.9826C31.568 22.8786 31.4516 22.665 31.4777 22.379C31.5367 21.7313 31.9944 21.1632 32.6965 21.1042ZM32.7938 21.5124C32.4899 21.4517 32.2002 21.6419 32.1762 21.9155H32.9281C32.9941 21.7194 32.9683 21.6313 32.795 21.5124H32.7938Z" fill="white"/>
<path d="M30.1177 21.3556C30.3797 21.1787 30.6545 21.0559 30.9833 21.1246C31.2651 21.1836 31.3949 21.3477 31.3256 21.6224C31.2131 22.0671 31.0791 22.5066 30.9493 22.9464C30.9408 22.9645 30.928 22.9802 30.9122 22.9924C30.8963 23.0046 30.8778 23.0127 30.8581 23.0163C30.7061 23.0239 30.556 23.0196 30.3867 23.0196C30.4755 22.7206 30.5618 22.4367 30.6435 22.1516C30.6856 22.0167 30.7192 21.8794 30.7441 21.7404C30.7678 21.5857 30.6873 21.5018 30.5314 21.4948C30.4115 21.4883 30.2928 21.5214 30.1936 21.589C30.0944 21.6566 30.0202 21.755 29.9825 21.8689C29.8609 22.2057 29.7579 22.5485 29.6606 22.8926C29.6302 22.9984 29.5876 23.0294 29.4846 23.0218C29.3591 23.0127 29.2323 23.0196 29.0776 23.0196C29.2636 22.3917 29.4454 21.7778 29.6281 21.1605H30.129C30.1165 21.2118 30.1049 21.2586 30.0867 21.3246C30.0825 21.3401 30.0819 21.3565 30.0849 21.3723L30.1177 21.3556Z" fill="white"/>
<path d="M29.3321 15.7765C28.973 15.6533 28.596 15.5901 28.2163 15.5896C27.4613 15.5896 26.744 15.8434 26.1899 16.2932C26.2352 16.3627 26.2738 16.4362 26.3051 16.513C26.3823 16.4478 26.463 16.3869 26.5468 16.3306C27.0413 16.0022 27.6226 15.8287 28.2163 15.8324C28.5693 15.833 28.9198 15.8917 29.2536 16.0063C30.7499 16.5169 31.6128 18.0141 31.2596 19.4147L31.4925 19.4855C31.8848 17.9585 30.9557 16.3306 29.3321 15.7765Z" fill="white"/>
<path d="M29.7182 14.6443C29.2174 14.4725 28.6917 14.3845 28.1623 14.3838C26.9769 14.3838 25.8615 14.8309 25.0591 15.6117C25.1503 15.6315 25.2381 15.6543 25.3256 15.6804C25.4386 15.714 25.548 15.7585 25.6524 15.8132C25.7472 15.7348 25.8463 15.6612 25.9502 15.5901C26.6056 15.1552 27.3758 14.9257 28.1623 14.9309C28.6321 14.9313 29.0985 15.0095 29.5428 15.1622C31.5381 15.843 32.6849 17.8414 32.1956 19.6997L32.7192 19.8589C33.2949 17.7174 31.9974 15.422 29.7182 14.6443Z" fill="white"/>
<path d="M30.1619 13.345C29.4986 13.1174 28.8022 13.0008 28.1009 13C26.1144 13 24.2692 13.9489 23.2349 15.5455C23.5312 15.5127 23.8294 15.4997 24.1275 15.5066C24.4232 15.148 24.77 14.8347 25.1567 14.5768C26.0129 14.0027 27.0311 13.6991 28.1012 13.6991C28.7256 13.6999 29.3456 13.8038 29.9361 14.0066C31.2859 14.4671 32.3855 15.3877 33.0332 16.5989C33.6247 17.705 33.7715 18.9317 33.4587 20.0842L34.1274 20.2878C34.9143 17.4405 33.1937 14.3784 30.1619 13.345Z" fill="white"/>
<circle cx="20" cy="20" r="19.5" stroke="black" stroke-opacity="0.05"/>
</svg>
