<svg width="40" height="40" viewBox="0 0 40 40" fill="none" xmlns="http://www.w3.org/2000/svg">
<circle cx="20" cy="20" r="20" fill="#EC2C1D"/>
<path fill-rule="evenodd" clip-rule="evenodd" d="M25.8337 19.1429C25.282 19.1434 24.7392 19.0048 24.2553 18.7399C23.7715 18.4749 23.3623 18.0923 23.0655 17.6273C22.7688 17.1622 22.5941 16.6299 22.5577 16.0795C22.5212 15.5291 22.6241 14.9783 22.8569 14.4782C23.0898 13.9781 23.4449 13.5448 23.8896 13.2184C24.3343 12.892 24.8541 12.683 25.401 12.6107C25.9479 12.5384 26.5041 12.6052 27.0183 12.8049C27.5325 13.0047 27.9881 13.3308 28.3428 13.7533V12.5027C27.7194 12.0366 26.9785 11.7531 26.2031 11.684C25.4277 11.615 24.6484 11.763 23.9524 12.1117C23.2564 12.4603 22.6711 12.9958 22.2621 13.6581C21.8531 14.3204 21.6364 15.0835 21.6364 15.862C21.6364 16.6405 21.8531 17.4036 22.2621 18.0659C22.6711 18.7282 23.2564 19.2637 23.9524 19.6123C24.6484 19.961 25.4277 20.109 26.2031 20.04C26.9785 19.9709 27.7194 19.6874 28.3428 19.2213V17.9721C28.0359 18.3392 27.6521 18.6343 27.2185 18.8366C26.7849 19.039 26.3121 19.1435 25.8337 19.1429ZM12.5668 28.2275H11.6674V20.2692H12.059V20.2652H16.6735V21.2105H12.5668V23.8169H16.6735V24.7622H12.5668V28.2275ZM27.4123 22.0235V26.2909L12.5668 12.4865L11.6876 11.6695H11.6674V18.0018H12.5668V13.7127L27.4123 27.5063L28.3117 28.3409V22.0235H27.4123Z" fill="white"/>
<circle cx="20" cy="20" r="19.5" stroke="black" stroke-opacity="0.05"/>
</svg>
