<svg width="40" height="40" viewBox="0 0 40 40" fill="none" xmlns="http://www.w3.org/2000/svg">
<circle cx="20" cy="20" r="20" fill="#373737"/>
<g clip-path="url(#clip0_24560_40157)">
<path d="M5.93267 19.004V21.5887C5.93267 21.5887 5.92366 21.6161 5.90565 21.6161H5.03191C5.03191 21.6161 5.00488 21.6024 5.00488 21.5887V15.5576C5.00488 15.5576 5.01839 15.5303 5.03191 15.5303H5.90565C5.90565 15.5303 5.93267 15.5394 5.93267 15.5531V18.1515C5.93267 18.1652 5.94618 18.1788 5.95969 18.1788H8.86016C8.86016 18.1788 8.88718 18.1697 8.88718 18.1561V15.5576C8.88718 15.5576 8.89619 15.5303 8.9097 15.5303H9.78344C9.78344 15.5303 9.81047 15.5394 9.81047 15.5531V21.5841C9.81047 21.5841 9.79696 21.6115 9.78344 21.6115H8.91421C8.91421 21.6115 8.88718 21.5978 8.88718 21.5841V18.9994C8.88718 18.9857 8.87367 18.972 8.86016 18.972H5.95969C5.95969 18.972 5.93267 18.9857 5.93267 18.9994V19.004Z" fill="white"/>
<path d="M14.3279 20.5861C14.6837 20.3126 14.8593 19.9479 14.8593 19.4875C14.8593 18.2111 14.8593 16.9073 14.8593 15.5807C14.8593 15.5488 14.8729 15.5352 14.9044 15.5352H15.7466C15.7466 15.5352 15.7826 15.5488 15.7826 15.5671C15.7826 16.8936 15.7826 18.2202 15.7826 19.5422C15.7826 19.8841 15.7106 20.1986 15.5755 20.4858C15.5304 20.5816 15.4854 20.6682 15.4403 20.7594C15.3998 20.8369 15.3413 20.9144 15.2647 20.9964C14.7693 21.5207 14.0937 21.7349 13.3731 21.7349C13.22 21.7349 13.0758 21.7076 12.9272 21.6939C12.8596 21.6893 12.7966 21.6756 12.7335 21.662C12.2156 21.5252 11.7877 21.2973 11.4499 20.8779C11.3824 20.7958 11.3283 20.7092 11.2833 20.6135C11.2248 20.4858 11.1437 20.3719 11.1122 20.2351C11.0716 20.0482 11.0176 19.8704 11.0176 19.679C11.0176 18.3068 11.0176 16.9392 11.0176 15.5762C11.0176 15.5534 11.0311 15.5397 11.0536 15.5397H11.8868C11.9183 15.5352 11.9364 15.5488 11.9364 15.5853C11.9364 16.7751 11.9364 17.9877 11.9364 19.2231C11.9364 19.4921 11.9364 19.7291 12.0264 19.9753C12.1435 20.3035 12.3552 20.5451 12.657 20.7001C13.1479 20.9508 13.891 20.9326 14.3324 20.5907L14.3279 20.5861Z" fill="white"/>
<path d="M22.1867 17.2538C22.1867 17.2538 22.1642 17.2538 22.1551 17.2674C21.9164 17.8829 21.6597 18.5074 21.394 19.1502C21.3625 19.2231 21.3445 19.3052 21.3129 19.3781C21.0427 20.0391 20.7725 20.7092 20.4977 21.393C20.4752 21.4523 20.4482 21.5161 20.4257 21.5799C20.4212 21.5982 20.4077 21.6073 20.3896 21.6073H19.6916C19.6916 21.6073 19.651 21.5936 19.6465 21.5708C19.6285 21.5024 19.6015 21.4295 19.57 21.3565C19.2502 20.577 18.9349 19.7975 18.6151 19.018C18.5251 18.7946 18.435 18.5712 18.3494 18.3524C18.2278 18.0379 18.0882 17.696 17.9306 17.3358C17.917 17.3085 17.899 17.2811 17.881 17.2629C17.872 17.2538 17.8585 17.2538 17.8495 17.2629C17.8495 17.2629 17.845 17.272 17.845 17.2766C17.845 17.3769 17.854 17.4771 17.854 17.5774C17.854 18.9177 17.854 20.2625 17.854 21.6073C17.854 21.6209 17.845 21.6301 17.8315 21.6301H17.0163C17.0163 21.6301 16.9893 21.6118 16.9893 21.5982V15.558C16.9893 15.558 17.0028 15.5306 17.0163 15.5306H18.0747C18.0747 15.5306 18.1107 15.5397 18.1152 15.5534L20.0113 20.2078C20.0113 20.2078 20.0338 20.226 20.0429 20.2214C20.1284 20.1667 20.1554 19.9935 20.1915 19.9069C20.4167 19.3599 20.6329 18.8265 20.84 18.3068C20.9842 17.9467 21.1283 17.582 21.2769 17.2127C21.3129 17.1261 21.349 17.035 21.385 16.9392C21.5742 16.4697 21.7633 16.0047 21.9525 15.5443C21.957 15.5306 21.9705 15.5215 21.984 15.5215H23.0424C23.0424 15.5215 23.0739 15.5397 23.0739 15.558V21.589C23.0739 21.589 23.0649 21.6073 23.0559 21.6073H22.2092C22.2092 21.6073 22.1912 21.5982 22.1912 21.589V17.2766C22.1912 17.2766 22.1822 17.2538 22.1732 17.2492L22.1867 17.2538Z" fill="white"/>
<path d="M33.9105 19.9751C33.9285 19.9113 33.9105 19.8475 33.9105 19.7836C33.9105 18.3705 33.9105 16.9619 33.9105 15.5487C33.9105 15.5396 33.9195 15.5304 33.9285 15.5304H34.8068C34.8068 15.5304 34.8293 15.535 34.8293 15.5487V21.5934C34.8293 21.6071 34.8248 21.6117 34.8113 21.6117H34.0096C33.9871 21.6117 33.9646 21.598 33.9511 21.5798C33.915 21.5205 33.879 21.4612 33.843 21.4065C33.5682 21.0008 33.289 20.5905 33.0007 20.1711C32.8927 20.0116 32.7756 19.8657 32.672 19.7016C32.6314 19.6378 32.5909 19.574 32.5459 19.5101C32.0369 18.7671 31.5325 18.0331 31.0281 17.2992C31.001 17.2627 30.9695 17.2217 30.9245 17.1807C30.92 17.1761 30.911 17.1807 30.9065 17.1807C30.9065 17.1807 30.9065 17.1852 30.9065 17.1898V21.5798C30.9065 21.5798 30.8975 21.6117 30.8794 21.6117H30.0147C30.0147 21.6117 29.9922 21.6025 29.9922 21.5843C29.9922 19.615 29.9922 17.7004 29.9922 15.8313C29.9922 15.7356 29.9922 15.6398 30.0012 15.5441C30.0012 15.535 30.0057 15.5259 30.0192 15.5259H30.8209C30.8434 15.5259 30.8614 15.535 30.8749 15.5532L33.897 19.9751C33.897 19.9751 33.9105 19.9842 33.9195 19.9751C33.9195 19.9751 33.924 19.9706 33.924 19.966L33.9105 19.9751Z" fill="white"/>
<path d="M25.3573 20.0297C25.2176 20.4399 25.0735 20.8502 24.9339 21.265C24.9069 21.3517 24.8753 21.4474 24.8483 21.5568C24.8393 21.5887 24.8078 21.6161 24.7763 21.6161H23.8485C23.8485 21.6161 23.835 21.6115 23.835 21.6024C23.835 21.6024 23.835 21.6024 23.835 21.5978C24.0106 21.1237 24.1818 20.6451 24.3484 20.1619C24.5286 19.6422 24.7267 19.1179 24.9069 18.5891C25.1005 18.0193 25.3032 17.4586 25.5014 16.907C25.5239 16.8432 25.5464 16.7839 25.5689 16.7201C25.7086 16.3417 25.8302 15.9907 25.9382 15.667C25.9473 15.6351 25.9608 15.6032 25.9698 15.5667C25.9743 15.5439 25.9968 15.5303 26.0193 15.5303H27.0462C27.0462 15.5303 27.0732 15.5394 27.0777 15.5531C27.0822 15.585 27.0912 15.6123 27.1002 15.6351C27.5731 16.9799 28.037 18.2837 28.4919 19.5464C28.5234 19.6376 28.5595 19.7288 28.591 19.82C28.8027 20.3989 29.0144 20.9824 29.217 21.5705C29.2215 21.5841 29.217 21.6024 29.199 21.6069C29.199 21.6069 29.1945 21.6069 29.19 21.6069H28.2667C28.2667 21.6069 28.2262 21.5933 28.2217 21.5705C28.0505 21.0553 27.8569 20.5311 27.6992 20.0205C27.6992 20.0069 27.6857 20.0023 27.6767 20.0023H25.3843C25.3843 20.0023 25.3663 20.0069 25.3618 20.0205L25.3573 20.0297ZM25.65 19.2C25.65 19.2 25.65 19.2273 25.668 19.2319C25.668 19.2319 25.6725 19.2319 25.677 19.2319H27.3885C27.3885 19.2319 27.4155 19.2273 27.4155 19.2137C27.4155 19.2137 27.4155 19.2091 27.4155 19.2045L26.5688 16.6699C26.5688 16.6699 26.5508 16.6471 26.5373 16.6517C26.5283 16.6517 26.5237 16.6608 26.5192 16.6699L25.6545 19.2H25.65Z" fill="white"/>
<path d="M10.9091 24.0962C10.8686 24.1417 10.8461 24.201 10.8415 24.2648C10.7335 24.6569 10.738 25.0307 10.8506 25.3954C10.8821 25.5002 10.9451 25.6233 11.0352 25.7601C11.2604 26.102 11.6748 26.2524 12.0711 26.1795C12.4674 26.1065 12.7241 25.8695 12.8457 25.4637C12.8548 25.4364 12.8728 25.4227 12.8998 25.4227H13.134C13.179 25.4227 13.1925 25.441 13.1835 25.4865C13.1385 25.6689 13.0845 25.8102 13.0169 25.915C12.8548 26.1749 12.6161 26.3572 12.3053 26.4666C12.2017 26.5031 12.0936 26.5077 11.9855 26.5168C11.5486 26.5533 11.1928 26.4165 10.8866 26.1111C10.774 25.9971 10.6839 25.8603 10.6164 25.7099C10.3371 25.058 10.3596 24.2375 10.774 23.6403C10.8325 23.5537 10.9271 23.4625 11.0577 23.3622C11.2829 23.1935 11.5396 23.1069 11.8279 23.0978C12.3413 23.0841 12.7377 23.2893 13.0214 23.7087C13.0574 23.7634 13.116 23.9047 13.188 24.1326C13.2016 24.1691 13.188 24.1873 13.1475 24.1873H12.9043C12.8593 24.1828 12.8322 24.16 12.8232 24.1144C12.8097 24.046 12.7917 23.9867 12.7602 23.9366C12.589 23.6448 12.3413 23.4762 12.017 23.4306C11.7288 23.3896 11.4586 23.4671 11.2289 23.6448C11.0757 23.7679 10.9677 23.9138 10.9046 24.0916L10.9091 24.0962Z" fill="#D6D6D6"/>
<path d="M20.6821 26.0929C20.2813 25.6599 20.1957 25.0034 20.2768 24.4427C20.3848 23.6814 20.9208 23.0842 21.7225 23.1025C22.362 23.1161 22.8304 23.5264 23.0241 24.1327C23.1817 24.6342 23.1592 25.2587 22.925 25.7465C22.8124 25.9835 22.6413 26.175 22.4206 26.3209C22.1819 26.4804 21.8936 26.5442 21.5513 26.5214C21.2135 26.4941 20.9253 26.3528 20.6866 26.0929H20.6821ZM22.6052 23.9914C22.1954 23.1891 21.0739 23.2529 20.7271 24.0734C20.5245 24.5567 20.511 25.2313 20.8037 25.7054C20.9793 25.9881 21.2271 26.1522 21.5558 26.1932C21.9206 26.2388 22.299 26.0838 22.5061 25.7921C22.8574 25.2952 22.871 24.5202 22.6007 23.9914H22.6052Z" fill="#D6D6D6"/>
<path d="M28.3931 26.07C28.1499 26.3435 27.8526 26.494 27.5058 26.5213C26.7312 26.5806 26.1862 26.1247 26.0015 25.3953C25.7448 24.3924 26.1682 23.0796 27.3977 23.1023C27.8391 23.1115 28.1949 23.2892 28.4606 23.6403C28.938 24.2648 28.9245 25.4774 28.3931 26.07ZM27.6229 26.1658C27.9787 26.0883 28.258 25.7828 28.3706 25.4455C28.5147 25.0033 28.5102 24.5702 28.3615 24.1463C28.1724 23.6175 27.686 23.3303 27.1365 23.4442C27.0059 23.4716 26.8843 23.5263 26.7717 23.6084C26.2493 23.9867 26.1682 24.7845 26.3393 25.3634C26.5105 25.9561 27.0104 26.3071 27.6274 26.1703L27.6229 26.1658Z" fill="#D6D6D6"/>
<path d="M31.7303 25.1768C31.7303 25.1768 31.7213 25.154 31.7123 25.154H30.8295C30.8295 25.154 30.7935 25.1404 30.7935 25.1221V24.8851C30.798 24.8623 30.8115 24.8486 30.834 24.8486H32.0321C32.0321 24.8486 32.0681 24.8668 32.0681 24.8851C32.0681 25.1312 32.0816 25.4002 32.0005 25.6327C31.8339 26.1068 31.5231 26.3985 31.0637 26.4988C30.9421 26.5262 30.78 26.5353 30.5728 26.5216C30.0459 26.4943 29.5865 26.1068 29.4108 25.6008C29.2307 25.0857 29.2262 24.5751 29.4063 24.0463C29.6675 23.2804 30.4197 22.934 31.1853 23.1756C31.3655 23.2349 31.5231 23.3215 31.6492 23.4491C31.8339 23.6269 32.023 23.9095 32.0456 24.1648C32.0456 24.1785 32.0411 24.1876 32.023 24.1922C31.924 24.2013 31.7033 24.2286 31.6672 24.1147C31.5141 23.6862 31.2079 23.4537 30.7485 23.4218C30.4917 23.4035 30.19 23.5266 30.0008 23.7135C29.8252 23.8913 29.7171 24.0964 29.6675 24.338C29.573 24.8258 29.5955 25.4367 29.9243 25.8242C30.2666 26.2253 30.816 26.3119 31.2754 26.0521C31.415 25.9746 31.5231 25.8561 31.6042 25.6965C31.6898 25.5324 31.7303 25.3546 31.7393 25.1723L31.7303 25.1768Z" fill="#D6D6D6"/>
<path d="M15.9534 24.6342V23.1618C15.9534 23.1618 15.9624 23.1299 15.9804 23.1299L16.2551 23.139C16.2551 23.139 16.2867 23.1527 16.2867 23.1709V26.4531C16.2867 26.4531 16.2777 26.485 16.2597 26.485H15.9849C15.9849 26.485 15.9534 26.4759 15.9534 26.4577V24.9989C15.9534 24.9989 15.9399 24.967 15.9219 24.967L14.1789 24.9579C14.1789 24.9579 14.1474 24.9716 14.1474 24.9898V26.4531C14.1474 26.4531 14.1384 26.485 14.1203 26.485H13.8411C13.8411 26.485 13.8096 26.4714 13.8096 26.4531V23.1664C13.8096 23.1481 13.8231 23.1344 13.8411 23.1344L14.1248 23.1481C14.1248 23.1481 14.1564 23.1618 14.1564 23.18V24.6388C14.1564 24.6388 14.1744 24.6707 14.1924 24.6707H15.9309C15.9309 24.6707 15.9624 24.657 15.9624 24.6388L15.9534 24.6342Z" fill="#D6D6D6"/>
<path d="M33.6493 24.7072C33.6493 24.7072 33.6583 24.7117 33.6583 24.7072L34.5816 23.1983C34.6041 23.1618 34.6401 23.139 34.6806 23.139C34.7797 23.1344 34.8698 23.139 34.9554 23.139C34.9914 23.139 35.0004 23.1618 34.9824 23.1937C34.5635 23.8593 34.1897 24.461 33.8564 25.0035C33.8294 25.0491 33.8159 25.0992 33.8159 25.1494C33.8159 25.5368 33.8159 25.979 33.8159 26.4714C33.8159 26.485 33.8069 26.4942 33.7934 26.4896H33.5006C33.5006 26.4896 33.4736 26.4759 33.4736 26.4577V25.081C33.4736 25.081 33.4736 25.0536 33.4646 25.04L32.3251 23.2028C32.2936 23.1572 32.3071 23.1299 32.3657 23.1299H32.6224C32.6584 23.1299 32.6855 23.1436 32.7035 23.1755L33.6448 24.7026L33.6493 24.7072Z" fill="#D6D6D6"/>
<path d="M6.34214 26.4849H6.06741C6.06741 26.4849 6.03138 26.4712 6.03138 26.4484V23.4944C6.03138 23.4944 6.01336 23.4579 5.99535 23.4579L5.03603 23.4488C5.03603 23.4488 5 23.4306 5 23.4124V23.1707C5 23.1707 5.01351 23.1343 5.03153 23.1343H7.37802C7.37802 23.1343 7.41405 23.1525 7.41405 23.1707V23.4124C7.41405 23.4124 7.39604 23.4488 7.37802 23.4488H6.41871C6.41871 23.4488 6.38268 23.4716 6.38268 23.4899V26.4439C6.38268 26.4439 6.36466 26.4803 6.34214 26.4803V26.4849Z" fill="#D6D6D6"/>
<path d="M8.32374 24.976C8.33274 25.3452 8.33274 25.7281 8.32374 26.1202C8.32374 26.1475 8.34175 26.1658 8.36877 26.1703H9.91809C9.91809 26.1703 9.94061 26.1794 9.94061 26.1931V26.4575C9.94061 26.4575 9.9316 26.4849 9.91359 26.4849H8.03099C7.99946 26.4894 7.98145 26.4758 7.98145 26.4393V23.1981C7.98145 23.1571 7.99946 23.1343 8.0445 23.1343H9.87756C9.90458 23.1343 9.91809 23.148 9.91809 23.1753V23.4032C9.91359 23.4306 9.89107 23.4488 9.86405 23.4488C9.39114 23.4488 8.95427 23.4488 8.54893 23.4488C8.48137 23.4488 8.41381 23.4488 8.34626 23.4579C8.33725 23.4579 8.32824 23.4671 8.32824 23.4762V24.6204C8.32824 24.6204 8.34626 24.6569 8.36427 24.6569H9.78748C9.78748 24.6569 9.81901 24.6705 9.81901 24.6888V24.9213C9.81901 24.9213 9.8055 24.9532 9.78748 24.9532H8.34626C8.34626 24.9532 8.32374 24.9532 8.32374 24.9714V24.976Z" fill="#D6D6D6"/>
<path d="M19.2861 25.8742C19.2861 25.8742 19.2996 25.8833 19.3086 25.8742C19.3086 25.8742 19.3131 25.8651 19.3131 25.8605C19.3131 25.7921 19.2996 25.7192 19.2996 25.6508C19.2996 24.771 19.2996 23.9504 19.2996 23.1983C19.2996 23.1527 19.3221 23.1344 19.3627 23.1344H19.5518C19.5924 23.139 19.6149 23.1618 19.6149 23.2028C19.6149 24.2513 19.6194 25.2861 19.6149 26.3118C19.6149 26.3574 19.6194 26.403 19.6284 26.4486C19.6284 26.4622 19.6284 26.4714 19.6104 26.4714C19.5068 26.4896 19.3221 26.5261 19.2546 26.4258C18.9843 26.0109 18.6781 25.6007 18.4169 25.2132C18.2502 24.9716 18.0836 24.7391 17.9214 24.5066C17.7638 24.2741 17.5927 24.0371 17.408 23.7863C17.372 23.7407 17.3585 23.7453 17.363 23.8046C17.363 23.8775 17.3675 23.9413 17.372 24.0006C17.381 24.7664 17.381 25.5779 17.372 26.4349C17.372 26.4622 17.3494 26.485 17.3179 26.485L17.0837 26.4759C17.0477 26.4759 17.0342 26.4577 17.0342 26.4212V23.1527C17.0342 23.1527 17.0432 23.1299 17.0567 23.1299C17.1198 23.1299 17.1873 23.1299 17.2549 23.1299C17.3134 23.1299 17.363 23.1299 17.399 23.18C17.5341 23.3897 17.6827 23.5812 17.8223 23.7863C18.2187 24.3835 18.642 24.9488 19.0384 25.5368C19.1195 25.6599 19.2005 25.7693 19.2771 25.8651L19.2861 25.8742Z" fill="#D6D6D6"/>
<path d="M24.1141 26.1656H25.6003C25.6003 26.1656 25.6363 26.1838 25.6363 26.2066L25.6273 26.4619C25.6273 26.4619 25.6183 26.4893 25.5958 26.4893C25.1274 26.4893 24.641 26.4893 24.1321 26.4893C24.0105 26.4893 23.8889 26.4893 23.7718 26.4802C23.7537 26.4802 23.7402 26.4665 23.7402 26.4482V23.1432C23.7402 23.1432 23.7402 23.1432 23.7402 23.1387C23.7988 23.1296 23.9069 23.1296 24.0645 23.1387C24.0735 23.1387 24.078 23.1387 24.078 23.1523V26.1383C24.078 26.1383 24.0915 26.1656 24.1095 26.1656H24.1141Z" fill="#D6D6D6"/>
</g>
<circle cx="20" cy="20" r="19.5" stroke="black" stroke-opacity="0.05"/>
<defs>
<clipPath id="clip0_24560_40157">
<rect width="30" height="11" fill="white" transform="translate(5 15.5259)"/>
</clipPath>
</defs>
</svg>
