<svg width="40" height="40" viewBox="0 0 40 40" fill="none" xmlns="http://www.w3.org/2000/svg">
<circle cx="20" cy="20" r="20" fill="#F6F8FA"/>
<g clip-path="url(#clip0_26413_47938)">
<path d="M20.0813 23.417L20.6855 23.9852C20.6855 23.9852 20.7067 24.0378 20.6855 24.0588C20.4894 24.285 20.2721 24.4955 20.0389 24.6796C18.9152 25.5897 17.6537 26.0264 16.2438 25.9896C14.7014 25.9527 13.2332 25.2793 12.1732 24.1167C11.2509 23.1066 10.7315 21.9124 10.6096 20.5393C10.4823 19.1031 10.8163 17.7774 11.6166 16.5674C11.7968 16.2938 12.0035 16.036 12.2262 15.8045C13.6414 14.342 15.576 13.7213 17.5689 14.1158C18.8039 14.3631 19.9011 15.0417 20.7438 15.9939C20.7597 16.0097 20.7597 16.036 20.7438 16.0518L20.1078 16.5516C20.0707 16.5832 20.0336 16.5779 19.9965 16.5411C19.1325 15.6152 18.0937 15.0891 16.8852 14.9523C15.4011 14.7892 13.9435 15.3784 12.9311 16.4306C11.8763 17.5248 11.341 19.0821 11.5371 20.634C11.8233 22.912 13.5672 24.769 15.9046 25.0426C17.4735 25.2267 18.9894 24.5691 20.0336 23.4117C20.0495 23.396 20.0654 23.396 20.0813 23.4117V23.417Z" fill="#273E93"/>
<path d="M9.31628 16.7042C9.96321 16.7042 10.4877 16.1837 10.4877 15.5416C10.4877 14.8994 9.96321 14.3789 9.31628 14.3789C8.66934 14.3789 8.1449 14.8994 8.1449 15.5416C8.1449 16.1837 8.66934 16.7042 9.31628 16.7042Z" fill="#E38E34"/>
<path d="M14.7544 22.1859C15.8357 23.0697 17.4311 22.9434 18.3534 21.9018C18.3799 21.8702 18.4276 21.8702 18.4594 21.8965L19.4823 22.8593C19.4823 22.8593 19.5088 22.9171 19.4823 22.9434C18.7138 23.7904 17.7703 24.2481 16.6466 24.3218C14.4629 24.4586 12.6343 22.8593 12.2844 20.7865C12.1148 19.7817 12.2579 18.8347 12.7138 17.9561C14.0601 15.3783 17.4947 14.8785 19.4823 17.0671C19.4929 17.0776 19.4929 17.0934 19.4823 17.1039L18.4011 18.0719C18.4011 18.0719 18.3693 18.0877 18.3534 18.0719C18.242 17.9667 18.1307 17.872 18.0141 17.7825C17.4364 17.3248 16.6254 17.1144 15.894 17.2775C13.583 17.7825 12.9682 20.7234 14.7544 22.1911V22.1859Z" fill="#273E93"/>
<path d="M7 22.6223L8.07597 17.3773C8.07597 17.3773 8.09717 17.3457 8.11307 17.3457H9.78799C9.78799 17.3457 9.82509 17.3615 9.82509 17.3825C9.82509 17.3825 9.82509 17.3825 9.82509 17.3878L8.74912 22.6381C8.74912 22.6381 8.72792 22.6697 8.71201 22.6697H7.0371C7.0371 22.6697 7 22.6539 7 22.6329C7 22.6329 7 22.6329 7 22.6276V22.6223Z" fill="#273E93"/>
<path d="M30.5919 20.4603C30.5654 20.7865 30.6502 21.0548 30.841 21.2757C31.1749 21.6598 31.7368 21.6914 32.1449 21.3915C32.2933 21.2863 32.4152 21.1442 32.5053 20.9706C32.5265 20.9338 32.5583 20.918 32.6007 20.9233L33.7191 21.1127C33.7191 21.1127 33.7562 21.139 33.7509 21.16C33.7509 21.1653 33.7509 21.1705 33.7456 21.1758C33.6608 21.302 33.5866 21.4441 33.4965 21.5704C32.8869 22.4068 31.8216 22.7435 30.7933 22.4542C29.9982 22.2332 29.4364 21.5598 29.3251 20.7549C29.1237 19.3029 29.8763 17.8351 31.3869 17.5353C32.4152 17.3301 33.4912 17.5984 33.8622 18.6769C34.053 19.2293 34.0265 19.8185 33.9152 20.4024C33.9152 20.4235 33.8993 20.434 33.8781 20.434H30.629C30.629 20.434 30.5972 20.4445 30.5972 20.4656L30.5919 20.4603ZM30.7403 19.566C30.7403 19.5923 30.7456 19.6081 30.7721 19.6081H32.7438C32.7438 19.6081 32.7756 19.5923 32.7756 19.5765C32.7756 19.2398 32.7067 18.84 32.4417 18.6243C32.2562 18.4717 32.0389 18.4138 31.7845 18.4401C31.2014 18.5033 30.8463 19.0136 30.7403 19.5712V19.566Z" fill="#273E93"/>
<path d="M27.5336 18.3664C27.9629 17.7825 28.5194 17.3195 29.3039 17.5194C29.394 17.5405 29.4735 17.5773 29.5424 17.6194C29.5583 17.6299 29.5636 17.6404 29.553 17.6562L29.0707 18.661C29.0707 18.661 29.0442 18.6873 29.023 18.6821C28.8215 18.6453 28.6466 18.6084 28.4346 18.661C27.9152 18.7978 27.523 19.2503 27.3427 19.7658C27.2473 20.0394 27.1678 20.3024 27.1148 20.5602C26.977 21.1757 26.8498 21.7702 26.7332 22.3436C26.7226 22.3857 26.6855 22.4173 26.6378 22.4173H25.4293C25.3816 22.4173 25.3657 22.3962 25.3763 22.3542L26.3834 17.6089C26.3834 17.6089 26.4046 17.5773 26.4258 17.5773H27.6025C27.6025 17.5773 27.6449 17.5931 27.6502 17.6194C27.6502 17.6194 27.6502 17.6247 27.6502 17.6299L27.4964 18.3454C27.4805 18.4138 27.4965 18.419 27.5336 18.3612V18.3664Z" fill="#273E93"/>
<path d="M23.0071 21.849C23.0071 21.849 23.0017 21.8332 22.9911 21.8332C22.9911 21.8332 22.9858 21.8332 22.9805 21.8332C22.5194 22.254 22.0106 22.4908 21.454 22.5381C20.9346 22.5855 20.4311 22.4487 20.1449 21.991C19.8904 21.5807 19.954 21.0861 20.0495 20.6232C20.2562 19.6341 20.4682 18.6346 20.6802 17.6245C20.6855 17.5982 20.7067 17.5824 20.7332 17.5824H21.9841C22.0212 17.5824 22.0371 17.5982 22.0318 17.635C21.8251 18.6293 21.6078 19.6499 21.3851 20.7021C21.3268 20.9809 21.2579 21.2545 21.5124 21.4597C21.7668 21.6648 22.0954 21.5964 22.3551 21.4491C22.7897 21.2071 23.076 20.8336 23.2191 20.3338C23.2774 20.1234 23.3304 19.9024 23.3781 19.671C23.5212 18.9871 23.6643 18.3031 23.8127 17.614C23.8127 17.5929 23.8392 17.5771 23.8604 17.5771H25.1272C25.1272 17.5771 25.159 17.5929 25.159 17.6087C25.159 17.6087 25.159 17.6087 25.159 17.614C24.8304 19.1554 24.5124 20.639 24.2155 22.0752C24.1943 22.1857 24.1678 22.2909 24.136 22.3961C24.136 22.4119 24.1201 22.4171 24.1095 22.4171H22.9169C22.9169 22.4171 22.8904 22.4066 22.8904 22.3856C22.9116 22.2172 22.9487 22.0541 22.9911 21.891C22.9911 21.8753 22.9964 21.8542 22.9964 21.8384L23.0071 21.849Z" fill="#273E93"/>
<path d="M16.4028 21.8069C17.4039 21.8069 18.2155 21.0014 18.2155 20.0077C18.2155 19.014 17.4039 18.2085 16.4028 18.2085C15.4017 18.2085 14.5901 19.014 14.5901 20.0077C14.5901 21.0014 15.4017 21.8069 16.4028 21.8069Z" fill="#E38E34"/>
</g>
<circle cx="20" cy="20" r="19.5" stroke="black" stroke-opacity="0.05"/>
<defs>
<clipPath id="clip0_26413_47938">
<rect width="27" height="12" fill="white" transform="translate(7 14)"/>
</clipPath>
</defs>
</svg>
