<svg width="40" height="40" viewBox="0 0 40 40" fill="none" xmlns="http://www.w3.org/2000/svg">
<circle cx="20" cy="20" r="20" fill="#F6F8FA"/>
<g clip-path="url(#clip0_30798_48513)">
<path d="M28.8662 11.5198C29.5651 11.5198 30.1317 10.9619 30.1317 10.2738C30.1317 9.58567 29.5651 9.02783 28.8662 9.02783C28.1672 9.02783 27.6006 9.58567 27.6006 10.2738C27.6006 10.9619 28.1672 11.5198 28.8662 11.5198Z" fill="#14A83B"/>
<path d="M28.7663 15.3783C28.7663 16.6384 28.2579 17.8469 27.3528 18.7379C26.4477 19.629 25.2202 20.1296 23.9403 20.1296C22.6603 20.1296 21.4328 19.629 20.5278 18.7379C19.6227 17.8469 19.1143 16.6384 19.1143 15.3783C19.1143 14.1181 19.6227 12.9096 20.5278 12.0186C21.4328 11.1275 22.6603 10.627 23.9403 10.627C25.2202 10.627 26.4477 11.1275 27.3528 12.0186C28.2579 12.9096 28.7663 14.1181 28.7663 15.3783ZM25.9016 15.3783C25.9016 14.8661 25.6949 14.375 25.3271 14.0129C24.9593 13.6508 24.4604 13.4473 23.9403 13.4473C23.4201 13.4473 22.9213 13.6508 22.5535 14.0129C22.1856 14.375 21.979 14.8661 21.979 15.3783C21.979 15.8904 22.1856 16.3815 22.5535 16.7436C22.9213 17.1057 23.4201 17.3092 23.9403 17.3092C24.4604 17.3092 24.9593 17.1057 25.3271 16.7436C25.6949 16.3815 25.9016 15.8904 25.9016 15.3783Z" fill="#14A83B"/>
<path d="M32.9674 17.5652C34.1867 18.5376 34.3386 20.3142 33.2868 21.4831C32.6686 22.1711 31.8376 22.4657 30.7936 22.3667C30.3876 22.3281 30.0006 21.9401 29.5031 22.3118C29.1743 22.5561 29.0603 22.9488 29.2787 23.3111C29.7928 24.1644 29.5055 25.2631 28.8157 25.8533C28.0393 26.5172 26.9138 26.5441 26.11 25.9024C25.3063 25.2619 25.0985 24.1737 25.5972 23.2878C26.04 22.5 27.0717 21.995 28.0262 22.3129C28.4322 22.4474 28.7979 22.2557 28.9724 21.8887C29.2384 21.3323 28.7718 21.0401 28.6495 20.6579C28.3337 19.6729 28.4532 18.8111 29.008 18.0724C29.9507 16.8171 31.7481 16.5939 32.9674 17.5652ZM28.1473 24.2953C28.1473 24.1087 28.072 23.9297 27.938 23.7977C27.8039 23.6658 27.6222 23.5916 27.4326 23.5916C27.3387 23.5916 27.2458 23.6098 27.1591 23.6452C27.0724 23.6806 26.9936 23.7324 26.9272 23.7977C26.8609 23.8631 26.8082 23.9406 26.7723 24.026C26.7364 24.1114 26.7179 24.2029 26.7179 24.2953C26.7179 24.3877 26.7364 24.4792 26.7723 24.5646C26.8082 24.6499 26.8609 24.7275 26.9272 24.7928C26.9936 24.8582 27.0724 24.91 27.1591 24.9454C27.2458 24.9807 27.3387 24.9989 27.4326 24.9989C27.6222 24.9989 27.8039 24.9248 27.938 24.7928C28.072 24.6609 28.1473 24.4819 28.1473 24.2953Z" fill="#14A83B"/>
<path d="M11.9627 22.5922V20.4883C11.9627 20.1618 12.1281 19.99 12.4589 19.9728C12.4724 19.9721 12.4874 19.9717 12.504 19.9717C12.838 19.9818 13.005 20.1509 13.005 20.479C13.0058 24.093 13.0046 26.0897 13.0015 26.4692C13.0003 26.6971 12.7901 26.8993 12.561 26.9192C12.212 26.9504 12.0121 26.7899 11.9615 26.4377C11.9551 26.3948 11.9334 26.3847 11.8962 26.4073C11.0303 26.9356 10.2024 27.008 9.41252 26.6247C7.4085 25.651 7.67325 22.7979 9.83279 22.21C10.5657 22.0105 11.2634 22.1441 11.9259 22.6109C11.9294 22.6132 11.9334 22.6145 11.9377 22.6147C11.9419 22.615 11.9461 22.6141 11.9498 22.6122C11.9536 22.6103 11.9567 22.6074 11.959 22.6039C11.9612 22.6004 11.9625 22.5963 11.9627 22.5922ZM11.7786 24.4927C11.7786 24.1474 11.6393 23.8162 11.3913 23.572C11.1432 23.3278 10.8068 23.1906 10.4561 23.1906C10.1053 23.1906 9.76892 23.3278 9.52089 23.572C9.27287 23.8162 9.13352 24.1474 9.13352 24.4927C9.13352 24.8381 9.27287 25.1692 9.52089 25.4134C9.76892 25.6576 10.1053 25.7948 10.4561 25.7948C10.8068 25.7948 11.1432 25.6576 11.3913 25.4134C11.6393 25.1692 11.7786 24.8381 11.7786 24.4927Z" fill="#014099"/>
<path d="M20.8588 22.5922C20.8589 22.5963 20.8602 22.6004 20.8625 22.6039C20.8647 22.6074 20.8679 22.6103 20.8716 22.6122C20.8754 22.6141 20.8796 22.615 20.8838 22.6147C20.888 22.6145 20.8921 22.6132 20.8956 22.6109C21.5581 22.1441 22.2557 22.0105 22.9886 22.21C25.147 22.7967 25.4129 25.6499 23.4089 26.6235C22.619 27.0069 21.7911 26.9344 20.9253 26.4061C20.8881 26.3835 20.8663 26.3936 20.86 26.4365C20.8101 26.7887 20.6107 26.9492 20.2616 26.918C20.0325 26.8982 19.8223 26.696 19.8212 26.468C19.818 26.0886 19.8164 24.0922 19.8164 20.479C19.8164 20.1509 19.9834 19.9818 20.3174 19.9717C20.334 19.9717 20.3491 19.9721 20.3625 19.9728C20.6934 19.99 20.8588 20.1618 20.8588 20.4883V22.5922ZM23.6903 24.4927C23.6903 24.1474 23.5509 23.8162 23.3029 23.572C23.0549 23.3278 22.7185 23.1906 22.3677 23.1906C22.017 23.1906 21.6806 23.3278 21.4325 23.572C21.1845 23.8162 21.0452 24.1474 21.0452 24.4927C21.0452 24.8381 21.1845 25.1692 21.4325 25.4134C21.6806 25.6576 22.017 25.7948 22.3677 25.7948C22.7185 25.7948 23.0549 25.6576 23.3029 25.4134C23.5509 25.1692 23.6903 24.8381 23.6903 24.4927Z" fill="#014099"/>
<path d="M16.9631 27.0002H16.2602C15.1981 26.8257 14.4671 26.2756 14.0674 25.3498C13.7659 24.6521 13.8051 23.7626 14.1838 23.073C15.0374 21.5184 17.0485 21.1818 18.4222 22.3308C18.6928 22.5552 18.9291 22.8626 18.6857 23.2319C18.5472 23.4431 18.3541 23.5265 18.1064 23.4821C17.857 23.4376 17.7169 23.184 17.5353 23.0648C16.9559 22.6853 16.3794 22.6545 15.8055 22.9724C15.0232 23.4049 14.7572 24.4078 15.2487 25.157C15.8032 26.0021 16.8966 26.1341 17.673 25.4773C17.844 25.3323 17.9627 25.0541 18.2049 24.9583C18.5801 24.811 18.992 25.1395 18.9706 25.5123C18.9627 25.651 18.8808 25.8147 18.7249 26.0032C18.2801 26.5393 17.6928 26.8717 16.9631 27.0002Z" fill="#014099"/>
</g>
<circle cx="20" cy="20" r="19.5" stroke="black" stroke-opacity="0.05"/>
<defs>
<clipPath id="clip0_30798_48513">
<rect width="26" height="18" fill="white" transform="translate(8 9)"/>
</clipPath>
</defs>
</svg>
