<svg width="40" height="40" viewBox="0 0 40 40" fill="none" xmlns="http://www.w3.org/2000/svg">
<circle cx="20" cy="20" r="20" fill="#005D86"/>
<path d="M29.6002 25.2473C29.1983 25.2473 28.819 25.2473 28.441 25.2473C28.0726 25.2473 27.9373 25.1095 27.9373 24.745C27.9373 22.8619 27.9373 20.9783 27.9373 19.0943C27.9373 18.8457 27.9966 18.7858 28.2471 18.7845C28.7945 18.7845 29.3422 18.7845 29.89 18.7845C30.3408 18.7845 30.5669 19.0531 30.5128 19.5078C30.4568 19.9786 30.393 20.4487 30.3473 20.9201C30.3099 21.3065 30.4638 21.4998 30.8432 21.5938C31.2637 21.6962 31.5671 21.5294 31.5922 21.1017C31.6347 20.3669 31.6566 19.6256 31.5838 18.8934C31.5194 18.2242 31.0042 17.8063 30.2751 17.7341C30.1882 17.7258 30.1 17.7251 30.013 17.7251H24.5388C23.6642 17.7251 23.1271 18.2667 23.1271 19.1484C23.1271 19.9642 23.1271 20.7819 23.1271 21.6015C23.1271 22.1354 22.9822 22.2816 22.4586 22.2816C22.0722 22.2816 21.6858 22.2816 21.2993 22.2816C20.9219 22.2816 20.7101 22.0813 20.7146 21.702C20.7236 21.0097 20.7487 20.3167 20.768 19.6244C20.7796 19.209 20.8002 18.7936 20.8041 18.3782C20.808 17.9628 20.5278 17.6871 20.1221 17.6826C19.7163 17.6781 19.422 17.9402 19.4252 18.3582C19.4317 19.102 19.4626 19.8453 19.4825 20.5891C19.4922 20.9388 19.5044 21.2892 19.5077 21.6389C19.5122 22.1212 19.3441 22.2893 18.8694 22.29H17.7746C17.2832 22.29 17.0765 22.0813 17.0758 21.5815C17.0758 20.7052 17.0758 19.8289 17.0758 18.9526C17.0802 18.7702 17.0612 18.5879 17.0191 18.4104C16.9704 18.2027 16.8589 18.0152 16.6997 17.8732C16.5406 17.7312 16.3416 17.6417 16.1297 17.6169C15.686 17.5525 15.1798 17.803 14.946 18.2126C14.5854 18.8457 14.2299 19.4814 13.8711 20.1157C13.5985 20.5915 13.3267 21.0655 13.0558 21.5378C12.9218 21.7728 12.8085 21.7735 12.6694 21.5378C12.0438 20.4605 11.4213 19.3818 10.8017 18.3015C10.5119 17.8011 10.0289 17.5429 9.53491 17.6234C8.88766 17.7283 8.53409 18.1341 8.52958 18.7923C8.52443 19.5226 8.52958 20.2523 8.52958 20.982C8.52958 21.3548 8.3879 21.4972 8.01436 21.501C7.81729 21.501 7.62022 21.501 7.42315 21.501C7.12689 21.501 7.01999 21.3974 7.00195 21.0979C7.00195 21.0837 7.00195 21.0689 7.00195 21.0541C7.01226 20.0835 7.01677 19.113 7.03544 18.1431C7.04557 17.7559 7.11664 17.3727 7.24604 17.0077C7.54873 16.1389 8.18052 15.6829 9.06735 15.5444C9.31258 15.509 9.56023 15.4931 9.80798 15.4968C12.5241 15.4968 15.2401 15.4955 17.9562 15.4929C18.132 15.4929 18.1874 15.5399 18.2087 15.7138C18.3239 16.6528 19.1747 17.3831 20.133 17.3812C21.0913 17.3793 21.9575 16.6328 22.058 15.6868C22.0767 15.5155 22.1359 15.4936 22.2841 15.4936C24.9709 15.4974 27.6576 15.4989 30.3441 15.4981C30.867 15.4981 31.379 15.5812 31.8466 15.8278C32.7128 16.2857 32.9897 17.0708 32.9942 17.9847C33.0032 19.605 33 21.226 32.9942 22.8471C32.9953 23.1753 32.9651 23.5029 32.9041 23.8253C32.7572 24.5756 32.2948 24.9846 31.5626 25.1379C30.9192 25.2731 30.2706 25.2416 29.6002 25.2473Z" fill="white"/>
<path d="M25.1313 25.2732C19.8825 25.2732 14.6481 25.2732 9.42802 25.2732C8.7286 25.2732 8.07556 25.1232 7.57386 24.5918C7.13657 24.1301 6.98716 23.5614 7.01807 22.9406C7.02966 22.7139 7.1765 22.596 7.41286 22.5947C7.76321 22.5947 8.11356 22.5947 8.46391 22.5947C9.19166 22.5947 9.66115 22.14 9.67017 21.4116C9.67983 20.6671 9.67017 19.9226 9.67017 19.1775C9.67017 19.1266 9.67017 19.0758 9.67017 19.0242C9.67017 18.9727 9.67017 18.9321 9.7262 18.9193C9.78223 18.9064 9.80091 18.956 9.82281 18.9914C9.95612 19.2084 10.0875 19.4267 10.2195 19.6457L12.1703 22.8858C12.1928 22.9232 12.216 22.9605 12.2398 22.9972C12.6166 23.5769 13.2123 23.5659 13.553 22.9605C14.2685 21.6911 14.9776 20.4185 15.6918 19.1485C15.7427 19.0597 15.7736 18.8909 15.8908 18.9276C15.9894 18.9566 15.9494 19.1208 15.9501 19.2232C15.9501 20.1283 15.9501 21.0336 15.9501 21.9391C15.9501 22.7841 16.4009 23.2774 17.2452 23.2838C19.121 23.2971 20.9973 23.2971 22.874 23.2838C23.7512 23.2774 24.2265 22.7628 24.2265 21.8869C24.2265 21.0986 24.2265 20.3101 24.2265 19.5214C24.2265 18.9598 24.4132 18.7763 24.9761 18.7756C25.4727 18.7756 25.9692 18.7756 26.4651 18.7756C26.7227 18.7756 26.7871 18.84 26.791 19.0976C26.791 20.9816 26.791 22.8652 26.791 24.7483C26.791 25.0903 26.6287 25.2636 26.2873 25.2719C25.9125 25.2803 25.5325 25.2732 25.1313 25.2732Z" fill="white"/>
<path d="M21.0554 16.5053C20.5247 16.9111 19.9187 16.9561 19.3918 16.6393C18.8869 16.3347 18.6338 15.7621 18.7356 15.158C18.8283 14.6048 19.2688 14.1591 19.8472 14.0323C20.1453 13.9706 20.4555 14.0067 20.7315 14.1351C21.0076 14.2635 21.235 14.4774 21.38 14.7452C21.6962 15.328 21.5751 16.0081 21.0554 16.5053Z" fill="#D80E1A"/>
<circle cx="20" cy="20" r="19.5" stroke="black" stroke-opacity="0.05"/>
</svg>
