<svg width="40" height="40" viewBox="0 0 40 40" fill="none" xmlns="http://www.w3.org/2000/svg">
<circle cx="20" cy="20" r="20" fill="#494949"/>
<g clip-path="url(#clip0_14382_19786)">
<path d="M18.0614 18.9015C17.9604 18.89 17.858 18.9017 17.7622 18.9359C17.6664 18.97 17.5796 19.0255 17.5086 19.0983C17.2798 19.3076 17.0659 19.5326 16.8683 19.7715C16.8518 19.7973 16.844 19.8277 16.846 19.8583C16.848 19.8889 16.8596 19.918 16.8792 19.9416C17.0809 20.2854 17.4478 20.3887 17.9727 20.3887H21.9434C22.2192 20.3887 22.3237 20.3474 22.495 20.1918C22.7244 19.9832 22.9388 19.7587 23.1365 19.5199C23.153 19.4937 23.1608 19.4629 23.1588 19.4319C23.1569 19.401 23.1453 19.3714 23.1256 19.3474C22.9239 19.0048 22.557 18.9015 22.0321 18.9015H18.0614Z" fill="#FA2828"/>
<path d="M28.2823 18.1032C28.0393 17.9817 27.9263 17.9671 27.7015 18.0267C27.4027 18.1093 27.1099 18.2129 26.8255 18.3365C26.799 18.352 26.7781 18.3755 26.7659 18.4037C26.7536 18.4319 26.7507 18.4633 26.7575 18.4932C26.7818 18.8905 27.0624 19.1493 27.5254 19.385L31.0623 21.1869C31.3053 21.3084 31.4183 21.323 31.6431 21.2635C31.9417 21.1806 32.2344 21.0775 32.5191 20.9549C32.5456 20.939 32.5664 20.9152 32.5786 20.8869C32.5908 20.8585 32.5938 20.827 32.5871 20.7969C32.5628 20.3996 32.2822 20.1408 31.8192 19.9051L28.2823 18.1032Z" fill="white"/>
<path d="M25.3259 16.0328C25.3036 16.014 25.276 16.0029 25.2469 16.0009C25.2179 15.999 25.189 16.0063 25.1643 16.0218C24.9389 16.2092 24.727 16.4122 24.5301 16.6293C24.4617 16.6962 24.4095 16.7778 24.3775 16.8679C24.3454 16.9581 24.3345 17.0543 24.3454 17.1494V22.233C24.3454 22.719 24.4426 23.0701 24.7658 23.2609C24.7884 23.2791 24.8161 23.2898 24.8451 23.2915C24.874 23.2933 24.9028 23.286 24.9274 23.2706C25.1535 23.0836 25.3659 22.8806 25.5629 22.6631C25.6314 22.5963 25.6836 22.5147 25.7156 22.4246C25.7476 22.3344 25.7586 22.2381 25.7475 22.1431V17.0594C25.7475 16.5686 25.6503 16.2223 25.3259 16.0328Z" fill="white"/>
<path d="M34.5795 16.0328C34.5572 16.014 34.5296 16.0029 34.5005 16.0009C34.4715 15.999 34.4426 16.0063 34.4179 16.0218C34.1925 16.2092 33.9806 16.4122 33.7837 16.6293C33.7151 16.696 33.6627 16.7776 33.6307 16.8678C33.5986 16.958 33.5878 17.0543 33.599 17.1494V22.233C33.599 22.719 33.6962 23.0701 34.0194 23.2609C34.0419 23.2793 34.0696 23.2901 34.0986 23.2918C34.1276 23.2936 34.1565 23.2861 34.181 23.2706C34.4067 23.0835 34.6186 22.8805 34.8152 22.6631C34.884 22.5965 34.9364 22.5149 34.9684 22.4247C35.0004 22.3345 35.0112 22.2381 34.9999 22.1431V17.0594C34.9987 16.5686 34.9027 16.2223 34.5795 16.0328Z" fill="white"/>
<path d="M8.94265 18.1032C8.69964 17.9817 8.58665 17.9671 8.36187 18.0267C8.06291 18.1091 7.77017 18.2127 7.48584 18.3365C7.45918 18.3519 7.43817 18.3754 7.42592 18.4036C7.41367 18.4318 7.41082 18.4633 7.4178 18.4932C7.4421 18.8905 7.72155 19.1493 8.18569 19.385L11.7226 21.1869C11.9656 21.3084 12.0786 21.323 12.3022 21.2635C12.6012 21.1806 12.8943 21.0775 13.1794 20.9549C13.2056 20.9387 13.2263 20.9149 13.2384 20.8866C13.2506 20.8584 13.2538 20.827 13.2475 20.7969C13.2232 20.3996 12.9425 20.1408 12.4796 19.9051L8.94265 18.1032Z" fill="white"/>
<path d="M5.98041 16.0328C5.95811 16.014 5.93044 16.0029 5.9014 16.0009C5.87235 15.999 5.84343 16.0063 5.81881 16.0218C5.59342 16.2092 5.38149 16.4122 5.18457 16.6293C5.11594 16.696 5.06357 16.7776 5.03155 16.8678C4.99952 16.958 4.98869 17.0543 4.99989 17.1494V22.233C4.99989 22.719 5.09588 23.0701 5.42029 23.2609C5.4428 23.2793 5.47052 23.2901 5.49952 23.2918C5.52852 23.2936 5.55733 23.2861 5.58188 23.2706C5.80756 23.0835 6.01951 22.8805 6.21612 22.6631C6.28484 22.5965 6.33725 22.5149 6.36928 22.4247C6.40132 22.3345 6.4121 22.2381 6.40081 22.1431V17.0594C6.40081 16.5686 6.30482 16.2223 5.98041 16.0328Z" fill="white"/>
<path d="M15.2329 16.0328C15.2106 16.014 15.1829 16.0029 15.1539 16.0009C15.1248 15.999 15.0959 16.0063 15.0713 16.0218C14.8458 16.2095 14.6335 16.4125 14.4359 16.6293C14.3674 16.6962 14.3152 16.7778 14.2832 16.8679C14.2512 16.9581 14.2402 17.0543 14.2512 17.1494V22.233C14.2512 22.719 14.3484 23.0701 14.6728 23.2609C14.6953 23.2793 14.723 23.2901 14.752 23.2918C14.781 23.2936 14.8098 23.2861 14.8344 23.2706C15.0598 23.0832 15.2717 22.8802 15.4686 22.6631C15.5373 22.5965 15.5897 22.5149 15.6218 22.4247C15.6538 22.3345 15.6646 22.2381 15.6533 22.1431V17.0594C15.6533 16.5686 15.5561 16.2223 15.2329 16.0328Z" fill="white"/>
</g>
<circle cx="20" cy="20" r="19.5" stroke="black" stroke-opacity="0.05"/>
<defs>
<clipPath id="clip0_14382_19786">
<rect width="30" height="7.29011" fill="white" transform="translate(5 16)"/>
</clipPath>
</defs>
</svg>
