<svg width="40" height="40" viewBox="0 0 40 40" fill="none" xmlns="http://www.w3.org/2000/svg">
<circle cx="20" cy="20" r="20" fill="#00215B"/>
<circle cx="20" cy="20" r="19.5" stroke="black" stroke-opacity="0.05"/>
<path d="M10.85 19.8796C10.8543 19.8791 10.8584 19.8778 10.8622 19.8758C10.8659 19.8737 10.8692 19.8709 10.8719 19.8676C10.8745 19.8643 10.8765 19.8604 10.8776 19.8564C10.8787 19.8523 10.8789 19.8481 10.8783 19.8439C10.7681 19.0559 10.2664 18.7499 9.54547 18.6975C8.64827 18.6331 7.80586 18.7952 7.01825 19.1839C7.00785 19.1891 6.99629 19.1916 6.98466 19.1911C6.97304 19.1905 6.96172 19.187 6.9518 19.1809C6.94187 19.1747 6.93366 19.1661 6.92794 19.1559C6.92223 19.1456 6.91919 19.1341 6.91913 19.1223C6.91954 18.6549 6.90866 18.1613 6.8865 17.6417C6.88362 17.5715 6.91728 17.5219 6.98746 17.4927C8.00082 17.0735 9.21918 16.9436 10.3243 17.0279C10.6881 17.0556 11.0544 17.1455 11.4041 17.2508C11.417 17.2547 11.4306 17.2559 11.4439 17.2543C11.4573 17.2527 11.4702 17.2485 11.4819 17.2417C11.4935 17.2349 11.5037 17.2259 11.5117 17.2151C11.5197 17.2042 11.5254 17.1919 11.5285 17.1787C12.0241 15.0332 13.1993 13.0853 14.8 11.5764C16.4668 10.0052 18.4399 9.02184 20.7195 8.62618C21.1016 8.56011 21.4956 8.5166 21.9015 8.49567C24.3058 8.37254 26.5088 8.9219 28.5105 10.1438C31.3898 11.902 33.31 14.8411 33.8623 18.1582C34.0166 19.0862 34.0412 20.1082 33.9362 21.2242C33.8988 21.6235 33.8338 22.0266 33.741 22.4333C33.308 24.3315 32.5171 25.9884 31.3683 27.404C30.0131 29.0732 28.28 30.2536 26.1692 30.9452C24.0817 31.6294 21.9095 31.7043 19.6525 31.1699C17.4366 30.6458 15.499 29.5272 13.8396 27.814C12.731 26.6698 11.8498 25.3449 11.196 23.8394C11.1759 23.7926 11.1449 23.7836 11.1031 23.8123C10.1186 24.4908 8.86642 24.7721 7.68807 24.4698C6.90374 24.2691 6.22098 23.6898 6.05907 22.8753C5.89777 22.0651 6.0523 21.1589 6.70303 20.619C7.04574 20.3354 7.45269 20.1373 7.92386 20.0249C8.71887 19.8353 9.59965 19.7879 10.5662 19.8827C10.6602 19.8921 10.7548 19.8911 10.85 19.8796ZM24.4386 19.1174L24.409 17.6085C24.4085 17.5855 24.4149 17.5629 24.4275 17.5436C24.44 17.5244 24.458 17.5094 24.4792 17.5007C24.7132 17.4035 24.9549 17.324 25.2044 17.2625C25.9108 17.0885 26.5993 17.0012 27.2699 17.0008C28.1565 17.0002 29.1563 17.2052 29.8156 17.7772C30.3361 18.2295 30.634 18.8049 30.7096 19.5034C30.7461 19.8433 30.7602 20.1644 30.752 20.4669C30.7352 21.0575 30.7161 21.666 30.6948 22.2923C30.6743 22.8883 30.749 23.4696 30.9189 24.0364C30.9456 24.1263 30.9798 24.1294 31.0217 24.0457C31.2052 23.6794 31.3209 23.3007 31.436 22.916C31.9113 21.3309 31.9997 19.7454 31.7014 18.1595C31.2195 15.5967 29.9585 13.5027 27.9182 11.8774C26.1907 10.5008 24.0126 9.76944 21.8073 9.72819C21.2415 9.71773 20.6117 9.78422 20.0595 9.87964C17.4639 10.3291 15.341 11.5998 13.6906 13.6917C13.0688 14.4798 12.564 15.3975 12.1761 16.4449C12.0598 16.7576 11.9908 17.0907 11.8511 17.3991C11.8487 17.4044 11.8483 17.4104 11.8502 17.416C11.852 17.4215 11.8558 17.4263 11.8609 17.4293C12.4314 17.7716 12.802 18.2013 12.9728 18.7185C13.1673 19.3077 13.2554 20.0033 13.4031 20.6467C13.6943 21.9174 14.4947 22.7817 15.8288 22.9012C16.2332 22.9369 17.1401 23.0262 17.3925 22.6112C17.6732 22.1513 17.1346 21.8158 16.7387 21.6865C16.2745 21.5347 15.8458 21.3984 15.4526 21.2777C15.0463 21.1534 14.6079 20.9465 14.3371 20.619C13.9375 20.1369 13.8605 19.4283 13.9917 18.8238C14.2533 17.6183 15.5831 17.0698 16.6974 17.015C17.641 16.9686 18.5501 17.0841 19.4248 17.3616C19.5122 17.3887 19.5362 17.4792 19.5294 17.5592C19.4863 18.0616 19.4352 18.574 19.3761 19.0965C19.375 19.1059 19.3716 19.1148 19.3663 19.1226C19.3609 19.1304 19.3538 19.1368 19.3455 19.1411C19.3371 19.1455 19.3279 19.1478 19.3185 19.1477C19.3092 19.1477 19.3 19.1453 19.2918 19.1408C18.5296 18.7316 17.6878 18.5978 16.7664 18.7394C16.631 18.7603 16.4413 18.8398 16.3595 18.9537C16.0744 19.3532 16.6143 19.6333 16.9406 19.7392C17.3371 19.8677 17.7209 19.9777 18.0919 20.0692C18.5052 20.171 18.8411 20.3005 19.0997 20.4577C19.932 20.9637 20.1081 21.9568 19.8963 22.8649C19.6335 23.9915 18.5739 24.428 17.5169 24.5456C16.7387 24.6322 15.8842 24.6102 14.9533 24.4797C14.7785 24.4551 14.6098 24.4196 14.4473 24.3732C14.4363 24.3699 14.4246 24.3706 14.414 24.3751C14.4035 24.3796 14.3948 24.3876 14.3894 24.3978C14.375 24.4253 14.3771 24.4501 14.3955 24.4723C14.4062 24.4854 14.4156 24.4992 14.4239 24.5136C15.3535 26.1393 16.6133 27.3796 18.2033 28.2345C21.5586 30.039 25.716 29.6087 28.6342 27.1467C29.5019 26.4145 30.2304 25.5364 30.8198 24.5123C30.8304 24.4943 30.8263 24.4807 30.8074 24.4717C30.7463 24.4413 30.6796 24.4261 30.6074 24.4261C29.9671 24.4261 29.3198 24.4255 28.6656 24.4243C28.5942 24.4243 28.5556 24.3886 28.5499 24.3172C28.5252 23.9995 28.5224 23.7019 28.5413 23.4245C28.5449 23.3699 28.5205 23.3506 28.468 23.3666C28.4569 23.3698 28.4475 23.3768 28.4415 23.3863C28.2047 23.7532 27.9018 24.0463 27.5328 24.2655C26.9313 24.6238 26.2055 24.6478 25.5147 24.5382C24.9266 24.4446 24.4464 24.2064 24.0741 23.8234C23.7897 23.5304 23.6163 23.1936 23.5539 22.8131C23.4246 22.0313 23.5718 21.1885 24.1634 20.6664C24.4954 20.3733 24.8851 20.1696 25.3325 20.055C26.2835 19.8113 27.2732 19.7653 28.3018 19.9171C28.3142 19.919 28.3268 19.918 28.3387 19.9142C28.3507 19.9103 28.3616 19.9038 28.3706 19.8951C28.3797 19.8863 28.3866 19.8756 28.3909 19.8637C28.3952 19.8519 28.3967 19.8392 28.3953 19.8266C28.3079 19.0362 27.7662 18.7357 27.0366 18.6963C26.1569 18.6489 25.3042 18.7831 24.5537 19.1851C24.5419 19.1915 24.5286 19.1947 24.5152 19.1944C24.5018 19.1941 24.4887 19.1904 24.4771 19.1836C24.4656 19.1768 24.4559 19.1672 24.4492 19.1556C24.4424 19.144 24.4388 19.1308 24.4386 19.1174ZM9.64275 21.1885C9.0979 21.2082 8.43423 21.359 8.3425 21.9863C8.2557 22.5866 8.75129 22.8833 9.28813 22.9024C10.2184 22.935 10.7835 22.1581 10.8716 21.2999C10.8731 21.2841 10.8684 21.2683 10.8583 21.2559C10.8483 21.2436 10.8338 21.2357 10.818 21.234C10.4129 21.1897 10.0212 21.1745 9.64275 21.1885ZM25.8964 22.36C26.014 22.8033 26.6094 22.9357 27.0114 22.8956C27.288 22.8677 27.5189 22.782 27.704 22.6383C28.1214 22.3151 28.4083 21.7893 28.3843 21.2513C28.383 21.2262 28.3699 21.2133 28.3449 21.2125C27.9861 21.1989 27.6529 21.1897 27.345 21.1848C26.959 21.178 26.4142 21.2426 26.1285 21.5C25.8806 21.7228 25.8033 22.0095 25.8964 22.36Z" fill="#5CB531"/>
<path d="M21.7594 16.6381C22.4543 16.6381 23.0177 16.0747 23.0177 15.3797C23.0177 14.6847 22.4543 14.1213 21.7594 14.1213C21.0644 14.1213 20.501 14.6847 20.501 15.3797C20.501 16.0747 21.0644 16.6381 21.7594 16.6381Z" fill="#5CB531"/>
<path d="M22.9216 17.1689H20.5981C20.5447 17.1689 20.5015 17.2122 20.5015 17.2656V24.3295C20.5015 24.3829 20.5447 24.4262 20.5981 24.4262H22.9216C22.975 24.4262 23.0182 24.3829 23.0182 24.3295V17.2656C23.0182 17.2122 22.975 17.1689 22.9216 17.1689Z" fill="#5CB531"/>
</svg>
