<svg width="40" height="40" viewBox="0 0 40 40" fill="none" xmlns="http://www.w3.org/2000/svg">
<circle cx="20" cy="20" r="20" fill="#1A4586"/>
<g clip-path="url(#clip0_14382_21064)">
<path d="M14.4621 19.0176C13.7443 18.4818 12.478 18.8083 11.6346 19.7668C10.7911 20.7254 10.6907 21.9225 11.4086 22.4583C12.1264 22.9941 13.3906 22.6676 14.234 21.7091C15.0775 20.7505 15.18 19.5533 14.4621 19.0176ZM13.7003 20.9619C13.3696 21.9163 12.7585 22.5902 12.3357 22.4667C11.913 22.3432 11.8376 21.4705 12.1683 20.5161C12.499 19.5617 13.1101 18.8857 13.5329 19.0092C13.9556 19.1327 14.031 20.0054 13.7003 20.9619Z" fill="white"/>
<path d="M34.5208 19.0176C33.8029 18.4818 32.5388 18.8083 31.6954 19.7668C30.8519 20.7254 30.7494 21.9225 31.4672 22.4583C32.1851 22.9941 33.4513 22.6676 34.2948 21.7091C35.1382 20.7505 35.2387 19.5533 34.5208 19.0176ZM33.7611 20.9619C33.4304 21.9163 32.8193 22.5902 32.3965 22.4667C31.9737 22.3432 31.8984 21.4705 32.2291 20.5161C32.5597 19.5617 33.1709 18.8857 33.5937 19.0092C34.0164 19.1327 34.0918 20.0054 33.7611 20.9619Z" fill="white"/>
<path d="M23.8385 21.5479L24.5543 18.8878C24.5595 18.8719 24.5605 18.8549 24.557 18.8385C24.5535 18.8221 24.5457 18.8069 24.5344 18.7946C24.5231 18.7822 24.5087 18.7731 24.4927 18.7681C24.4767 18.7632 24.4597 18.7626 24.4433 18.7664C24.4433 18.7664 22.9532 18.8669 22.995 19.0992L23.2776 19.1599C23.3209 19.1687 23.3618 19.1865 23.3978 19.2122C23.4337 19.2378 23.4638 19.2708 23.4862 19.309C23.5085 19.3471 23.5225 19.3895 23.5273 19.4334C23.5321 19.4773 23.5276 19.5218 23.5141 19.5638C23.2776 20.3068 22.9343 21.8451 22.8632 22.0753C22.7753 22.3579 22.9825 22.8141 23.6313 22.7032C24.2801 22.5923 24.5919 21.6567 24.5919 21.6567L24.1482 21.9518C23.4701 22.4332 23.8385 21.5479 23.8385 21.5479Z" fill="white"/>
<path d="M24.2969 17C24.1826 17 24.071 17.0339 23.976 17.0974C23.881 17.1608 23.8069 17.251 23.7632 17.3566C23.7195 17.4621 23.7081 17.5783 23.7303 17.6903C23.7526 17.8024 23.8076 17.9053 23.8884 17.9861C23.9692 18.0669 24.0721 18.1219 24.1842 18.1442C24.2962 18.1665 24.4124 18.155 24.5179 18.1113C24.6235 18.0676 24.7137 17.9936 24.7772 17.8986C24.8407 17.8036 24.8745 17.6919 24.8745 17.5777C24.8748 17.5017 24.8601 17.4265 24.8311 17.3563C24.8022 17.2861 24.7597 17.2223 24.706 17.1686C24.6523 17.1149 24.5885 17.0723 24.5183 17.0434C24.4481 17.0145 24.3728 16.9997 24.2969 17Z" fill="white"/>
<path d="M30.8455 17.0566C30.8455 17.0566 30.7743 17.3621 30.5127 17.3621C30.2511 17.3621 30.0941 17.0963 29.8053 17.0566C29.5165 17.0168 28.3989 16.7426 27.005 17.8812C26.1678 18.5656 25.6174 19.4676 25.7283 21.0771C25.7806 21.8347 26.2725 22.2491 26.7748 22.4793C27.1341 22.6424 27.5255 22.7226 27.9201 22.7139C28.3146 22.7052 28.7021 22.6079 29.054 22.4291C29.512 22.2101 29.8648 21.8189 30.0355 21.3408C30.0355 21.3408 29.0372 22.2679 28.2607 22.3098C27.4843 22.3517 26.7496 21.6966 26.8208 20.7171C26.9108 19.4341 27.3964 17.9063 28.3947 17.4835C29.393 17.0607 30.0418 17.45 30.2637 17.8414C30.3929 18.1057 30.4191 18.4086 30.3369 18.6911H30.5085L31.0757 17.0566H30.8455Z" fill="white"/>
<path d="M11.2788 17.1528V17.0146H9.77396V17.1528H10.1005C10.1967 17.1528 10.1695 17.247 10.1695 17.247L7.64337 19.6015L8.21683 17.6551C8.25892 17.5118 8.34632 17.386 8.46594 17.2966C8.58555 17.2071 8.73094 17.1589 8.88029 17.1591V17.0209H6.67434V17.1528C6.73649 17.153 6.79773 17.1677 6.85315 17.1958C6.90858 17.224 6.95663 17.2647 6.99347 17.3148C7.0303 17.3648 7.05489 17.4228 7.06526 17.4841C7.07562 17.5454 7.07148 17.6082 7.05316 17.6676L5.58811 22.3307C5.56664 22.3999 5.52355 22.4604 5.46517 22.5034C5.40678 22.5463 5.33618 22.5694 5.26371 22.5693H5V22.7074H7.21013V22.5693C7.15717 22.5692 7.10496 22.5567 7.05764 22.5329C7.01033 22.5091 6.96921 22.4746 6.93753 22.4322C6.90585 22.3897 6.88448 22.3405 6.87513 22.2884C6.86577 22.2363 6.86869 22.1827 6.88363 22.1318L7.49686 20.0745L7.79824 19.8652L8.491 22.1967C8.50403 22.2404 8.50668 22.2866 8.49873 22.3315C8.49079 22.3764 8.47247 22.4188 8.44524 22.4554C8.418 22.492 8.3826 22.5217 8.34186 22.5422C8.30112 22.5627 8.25615 22.5734 8.21055 22.5735V22.7116H10.4207V22.5735H10.1779C10.1148 22.5737 10.0533 22.5535 10.0027 22.5157C9.9521 22.4779 9.91516 22.4248 9.89745 22.3642L8.8154 18.9276L10.5274 17.4353C10.7353 17.2531 11.0023 17.1526 11.2788 17.1528Z" fill="white"/>
<path d="M23.1625 17.1381V17H21.4463L20.8185 17.856L18.6544 20.8698L18.3362 17H16.6996V17.1381H16.821C16.8511 17.1382 16.8808 17.1453 16.9078 17.1589C16.9347 17.1724 16.9582 17.1921 16.9762 17.2162C16.9943 17.2404 17.0065 17.2684 17.0119 17.298C17.0173 17.3277 17.0157 17.3582 17.0072 17.3872L15.5422 22.2386C15.5151 22.3289 15.4599 22.4083 15.3846 22.4651C15.3093 22.5219 15.2179 22.5533 15.1236 22.5546H14.9143V22.6928H16.2098V22.5546H16.1177C16.0716 22.5547 16.0262 22.5439 15.985 22.5232C15.9438 22.5024 15.908 22.4724 15.8805 22.4353C15.8531 22.3983 15.8346 22.3553 15.8268 22.3099C15.8189 22.2645 15.8218 22.2178 15.8352 22.1737L17.2061 17.6404L17.6351 22.7137L18.3425 21.7802V21.8137L21.1324 17.9523L19.8766 22.2721C19.8523 22.3537 19.8023 22.4252 19.7341 22.4761C19.6658 22.527 19.583 22.5546 19.4978 22.5546H19.2676V22.6928H21.5133V22.5546H21.44C21.3939 22.5545 21.3484 22.5437 21.3072 22.523C21.266 22.5023 21.2301 22.4723 21.2025 22.4353C21.1749 22.3984 21.1563 22.3555 21.1481 22.3101C21.1399 22.2647 21.1424 22.218 21.1554 22.1737L22.5326 17.4751C22.5612 17.3775 22.6207 17.2918 22.7023 17.2311C22.7838 17.1703 22.8829 17.1377 22.9846 17.1381H23.1625Z" fill="white"/>
</g>
<circle cx="20" cy="20" r="19.5" stroke="black" stroke-opacity="0.05"/>
<defs>
<clipPath id="clip0_14382_21064">
<rect width="30" height="5.71369" fill="white" transform="translate(5 17)"/>
</clipPath>
</defs>
</svg>
