<svg width="40" height="40" viewBox="0 0 40 40" fill="none" xmlns="http://www.w3.org/2000/svg">
<circle cx="20" cy="20" r="20" fill="#00B30D"/>
<g clip-path="url(#clip0_17752_43615)">
<path d="M20.2611 8.12819L30.2377 13.8784C30.2982 13.9131 30.3484 13.9631 30.3833 14.0234C30.4183 14.0837 30.4367 14.1522 30.4367 14.2218L30.4387 25.775C30.4389 25.8445 30.4207 25.9128 30.3861 25.9731C30.3515 26.0334 30.3017 26.0835 30.2416 26.1184L20.2475 31.8999C20.187 31.935 20.1184 31.9535 20.0484 31.9535C19.9785 31.9535 19.9099 31.935 19.8494 31.8999L9.86503 26.1067C9.80494 26.0718 9.7551 26.0217 9.72051 25.9614C9.68591 25.9011 9.66779 25.8328 9.66796 25.7633L9.65235 14.214C9.65203 14.144 9.67029 14.0752 9.70525 14.0145C9.74021 13.9538 9.79063 13.9035 9.85137 13.8687L19.867 8.12819C19.927 8.09379 19.9949 8.07568 20.0641 8.07568C20.1332 8.07568 20.2011 8.09379 20.2611 8.12819ZM29.7597 14.2355C29.7883 14.2368 29.8149 14.2303 29.8397 14.216C29.8503 14.2103 29.8591 14.2019 29.8653 14.1916C29.8715 14.1813 29.8748 14.1695 29.8748 14.1575C29.8748 14.1454 29.8715 14.1336 29.8653 14.1233C29.8591 14.113 29.8503 14.1046 29.8397 14.0989L20.1811 8.51453C20.1451 8.49325 20.104 8.48202 20.0621 8.48202C20.0202 8.48202 19.9791 8.49325 19.9431 8.51453L10.4602 14.0345C10.4468 14.0425 10.4358 14.0538 10.4281 14.0673C10.4204 14.0808 10.4164 14.0961 10.4164 14.1116C10.4164 14.1271 10.4204 14.1424 10.4281 14.1559C10.4358 14.1694 10.4468 14.1807 10.4602 14.1887L13.1919 15.7672C13.2203 15.7838 13.2526 15.7926 13.2855 15.7926C13.3184 15.7926 13.3508 15.7838 13.3792 15.7672L19.8553 12.0326C19.92 11.9958 19.9934 11.9767 20.068 11.977C20.1426 11.9774 20.2159 11.9972 20.2806 12.0345L26.7528 15.7789C26.8153 15.8153 26.8784 15.8153 26.9421 15.7789L29.6055 14.2706C29.6536 14.2446 29.705 14.2329 29.7597 14.2355ZM21.2133 19.0745C22.6936 18.2381 24.2514 17.3484 25.8865 16.4053C26.0439 16.3142 26.2202 16.2284 26.4153 16.1477C26.4699 16.1256 26.4719 16.0996 26.4211 16.0697L20.3431 12.5477C20.2559 12.497 20.2182 12.5217 20.2299 12.6218C20.2507 12.8183 20.2611 13.0114 20.2611 13.2014C20.265 15.2254 20.2761 17.3178 20.2943 19.4784C20.2946 19.4929 20.2986 19.507 20.3061 19.5194C20.3136 19.5317 20.3242 19.5419 20.3369 19.5488C20.3496 19.5558 20.3639 19.5592 20.3783 19.5589C20.3928 19.5585 20.4069 19.5543 20.4192 19.5467C20.6507 19.3997 20.9154 19.2423 21.2133 19.0745ZM13.7987 16.0267C13.7886 16.0325 13.7801 16.0409 13.7743 16.051C13.7684 16.0611 13.7653 16.0726 13.7653 16.0843C13.7653 16.096 13.7684 16.1074 13.7743 16.1176C13.7801 16.1277 13.7886 16.136 13.7987 16.1418L19.7304 19.5526C19.7406 19.5585 19.7521 19.5615 19.7638 19.5615C19.7756 19.5614 19.7871 19.5583 19.7972 19.5523C19.8073 19.5464 19.8157 19.5378 19.8214 19.5276C19.8272 19.5174 19.8301 19.5058 19.8299 19.494L19.8319 12.6258C19.8321 12.614 19.8291 12.6024 19.8234 12.5922C19.8176 12.582 19.8093 12.5734 19.7992 12.5675C19.789 12.5615 19.7775 12.5584 19.7658 12.5583C19.7541 12.5583 19.7425 12.5613 19.7323 12.5672L13.7987 16.0267ZM26.9206 24.1321L20.4133 27.8667C20.3766 27.8875 20.3459 27.9175 20.3243 27.9538C20.3028 27.9901 20.2911 28.0314 20.2904 28.0736L20.2514 31.2989C20.2513 31.3102 20.2542 31.3212 20.2598 31.331C20.2653 31.3407 20.2733 31.3489 20.283 31.3546C20.2926 31.3603 20.3036 31.3634 20.3149 31.3636C20.3261 31.3637 20.3372 31.361 20.347 31.3555L29.9216 25.8511C29.9585 25.8297 29.989 25.7991 30.0102 25.7624C30.0315 25.7258 30.0426 25.6844 30.0426 25.6423L30.0523 14.497C30.0526 14.491 30.0511 14.485 30.0482 14.4797C30.0453 14.4745 30.041 14.4701 30.0358 14.4671C30.0306 14.4641 30.0246 14.4626 30.0186 14.4627C30.0126 14.4628 30.0067 14.4645 30.0016 14.4677L27.1158 16.1575C27.0611 16.1887 27.0293 16.2362 27.0202 16.2999C27.0006 16.4521 27.0787 16.6375 27.0767 16.7994C27.0455 19.163 27.0436 21.5188 27.0709 23.8667C27.0714 23.9206 27.0578 23.9736 27.0314 24.0202C27.005 24.0668 26.9668 24.1054 26.9206 24.1321ZM13.0728 16.2492C13.0728 16.2384 13.0699 16.2278 13.0644 16.2186C13.0589 16.2093 13.051 16.2017 13.0416 16.1965L10.187 14.5614C10.1779 14.5563 10.1678 14.5537 10.1574 14.5538C10.1471 14.5538 10.1369 14.5565 10.1279 14.5616C10.1189 14.5667 10.1114 14.574 10.106 14.5829C10.1006 14.5917 10.0976 14.6018 10.0972 14.6121L10.0621 25.7301C10.0621 25.7409 10.0651 25.7515 10.0706 25.7607C10.076 25.77 10.0839 25.7776 10.0933 25.7828L19.7616 31.3477C19.7709 31.3533 19.7814 31.3563 19.7922 31.3564C19.803 31.3565 19.8136 31.3537 19.823 31.3483C19.8323 31.343 19.8401 31.3352 19.8454 31.3258C19.8507 31.3164 19.8535 31.3058 19.8533 31.295L19.8494 28.0033C19.8496 27.9927 19.8469 27.9823 19.8418 27.9731C19.8367 27.9638 19.8292 27.9561 19.8202 27.9506L13.1002 24.0658C13.0911 24.0603 13.0836 24.0526 13.0785 24.0433C13.0734 24.0341 13.0707 24.0236 13.0709 24.0131L13.0728 16.2492ZM19.7714 23.5018C19.7804 23.5071 19.7907 23.5098 19.8011 23.5097C19.8116 23.5096 19.8218 23.5067 19.8308 23.5014C19.8398 23.496 19.8471 23.4883 19.8521 23.4791C19.8571 23.47 19.8595 23.4596 19.8592 23.4492L19.8162 20.1575C19.8163 20.1472 19.8136 20.1371 19.8084 20.1282C19.8033 20.1193 19.7959 20.1119 19.787 20.1067L13.5997 16.5028C13.5908 16.4977 13.5807 16.495 13.5704 16.495C13.5601 16.495 13.55 16.4977 13.5411 16.5028C13.5322 16.508 13.5248 16.5154 13.5197 16.5243C13.5146 16.5332 13.5119 16.5433 13.5119 16.5536L13.5002 19.8433C13.5001 19.8536 13.5028 19.8637 13.508 19.8726C13.5131 19.8815 13.5205 19.8889 13.5294 19.894L19.7714 23.5018ZM26.5538 23.494C26.5638 23.4998 26.5752 23.5029 26.5868 23.5029C26.5983 23.503 26.6097 23.5 26.6198 23.4943C26.6298 23.4885 26.6382 23.4803 26.6441 23.4703C26.65 23.4604 26.6532 23.449 26.6533 23.4375V16.5536C26.6532 16.542 26.65 16.5307 26.6441 16.5207C26.6382 16.5107 26.6298 16.5025 26.6198 16.4968C26.6097 16.491 26.5983 16.488 26.5868 16.4881C26.5752 16.4881 26.5638 16.4912 26.5538 16.497L20.5714 19.9389C20.5617 19.9449 20.5537 19.9532 20.5481 19.9631C20.5426 19.973 20.5397 19.9841 20.5397 19.9955C20.5397 20.0069 20.5426 20.018 20.5481 20.0279C20.5537 20.0378 20.5617 20.0462 20.5714 20.0521L26.5538 23.494ZM19.748 27.4218C19.7588 27.4281 19.771 27.4313 19.7835 27.4313C19.796 27.4312 19.8082 27.4278 19.8189 27.4215C19.8296 27.4151 19.8385 27.406 19.8445 27.3951C19.8506 27.3842 19.8536 27.3719 19.8533 27.3594L19.8338 24.1009C19.8338 24.0886 19.8305 24.0766 19.8243 24.0659C19.8182 24.0553 19.8093 24.0465 19.7987 24.0404L13.6036 20.4248C13.5929 20.4186 13.5808 20.4154 13.5685 20.4154C13.5562 20.4153 13.5441 20.4186 13.5335 20.4247C13.5228 20.4308 13.5139 20.4396 13.5077 20.4503C13.5016 20.4609 13.4983 20.473 13.4982 20.4853V23.7672C13.4983 23.7795 13.5015 23.7915 13.5077 23.8021C13.5139 23.8128 13.5227 23.8216 13.5333 23.8277L19.748 27.4218ZM20.3704 20.4189C20.3604 20.4131 20.349 20.4101 20.3374 20.41C20.3259 20.41 20.3145 20.413 20.3044 20.4187C20.2944 20.4244 20.286 20.4327 20.2801 20.4426C20.2742 20.4526 20.271 20.4639 20.2709 20.4755L20.2826 27.3906C20.2827 27.4022 20.2859 27.4135 20.2918 27.4235C20.2977 27.4335 20.3061 27.4417 20.3161 27.4474C20.3262 27.4532 20.3376 27.4561 20.3491 27.4561C20.3607 27.4561 20.3721 27.453 20.3821 27.4472L26.308 23.9799C26.3181 23.9741 26.3265 23.9657 26.3324 23.9556C26.3382 23.9455 26.3413 23.934 26.3413 23.9223C26.3413 23.9107 26.3382 23.8992 26.3324 23.8891C26.3265 23.879 26.3181 23.8706 26.308 23.8648L20.3704 20.4189Z" fill="white"/>
</g>
<circle cx="20" cy="20" r="19.5" stroke="black" stroke-opacity="0.05"/>
<defs>
<clipPath id="clip0_17752_43615">
<rect width="20.878" height="24" fill="white" transform="translate(9.56055 8)"/>
</clipPath>
</defs>
</svg>
