<svg width="40" height="40" viewBox="0 0 40 40" fill="none" xmlns="http://www.w3.org/2000/svg">
<circle cx="20" cy="20" r="20" fill="#0071BD"/>
<g clip-path="url(#clip0_24563_42813)">
<path d="M8.29585 18.5088V18.6417C8.29585 18.7126 8.26041 18.748 8.18953 18.748H5.11511C5.04423 18.748 5.00879 18.7126 5.00879 18.6417C5.00879 18.3936 5.00879 18.1456 5.03537 17.8886C5.09739 17.1001 6.09857 16.7723 6.77193 16.7634C9.14641 16.7368 11.5741 16.7368 14.0637 16.7545C14.2321 16.7545 14.3118 16.8431 14.3118 17.0115V18.119C14.3118 18.2873 14.2232 18.3759 14.0549 18.3759H8.44647C8.34901 18.3759 8.29585 18.4202 8.29585 18.5177V18.5088Z" fill="white"/>
<path d="M24.1378 18.4557V18.6506C24.1378 18.7037 24.0935 18.748 24.0404 18.748H20.8951C20.8508 18.748 20.8065 18.7126 20.8065 18.6594V18.3228C20.8065 18.2519 20.7444 18.1899 20.6736 18.1899C20.6736 18.1899 20.6736 18.1899 20.6647 18.1899C20.0356 18.243 19.3889 18.2342 18.7244 18.1721C18.5915 18.1633 18.5206 18.2253 18.5206 18.3582V18.624C18.5206 18.7037 18.4763 18.748 18.3965 18.748H15.2778C15.2158 18.748 15.1892 18.7215 15.1804 18.6594C15.0652 17.1975 16.2967 16.7368 17.5105 16.7368C20.2128 16.7545 22.6759 16.7545 24.8909 16.7368C25.0593 16.7368 25.139 16.8166 25.139 16.9849V18.1278C25.139 18.2785 25.0593 18.3582 24.9086 18.3582H24.2264C24.1644 18.3582 24.1378 18.3936 24.1378 18.4557Z" fill="white"/>
<path d="M31.5269 18.3669H26.3969C26.202 18.3669 26.0957 18.2695 26.0957 18.0657V17.0202C26.0957 16.843 26.1843 16.7544 26.3615 16.7544C28.6385 16.7544 30.7915 16.7544 32.8205 16.7544C33.3432 16.7544 33.8216 16.8784 34.2646 17.1177C34.8317 17.4278 35.0709 17.9416 34.9823 18.6593C34.9823 18.7213 34.938 18.7479 34.876 18.7479H31.7661C31.6952 18.7479 31.6598 18.7125 31.6598 18.6416V18.491C31.6598 18.4024 31.6155 18.3581 31.5269 18.3581V18.3669Z" fill="white"/>
<path d="M13.541 20.0861C14.1612 20.2279 14.489 20.5646 14.5422 21.0873C14.5422 21.167 14.5156 21.2113 14.427 21.2113C13.3372 21.1936 12.2474 21.2025 11.1488 21.2113C10.564 21.2202 9.98812 21.167 9.42994 21.0607C8.3313 20.8392 7.25038 20.6177 6.18718 20.4051C5.51382 20.2722 4.93792 19.9355 5.01766 19.1913C5.01766 19.1647 5.04424 19.147 5.07082 19.147C6.00112 19.147 6.94914 19.147 7.91488 19.1292C8.54394 19.1204 9.2173 19.1824 9.91724 19.3242C11.4057 19.6165 12.6107 19.8646 13.541 20.0773V20.0861Z" fill="white"/>
<path d="M18.5029 19.581C18.5029 19.6519 18.5649 19.7051 18.6358 19.7051H20.6382C20.6913 19.7051 20.7356 19.6785 20.7622 19.6431C20.8242 19.5545 20.8331 19.4481 20.7888 19.333C20.7622 19.2621 20.8065 19.1735 20.8774 19.1558C20.8951 19.1558 20.904 19.1558 20.9217 19.1558H24.0581C24.0581 19.1558 24.1113 19.1735 24.1201 19.2089C24.3062 20.7151 23.1278 21.2113 21.8874 21.2113C19.6458 21.2113 17.4308 21.2113 15.2513 21.2113C15.1981 21.2113 15.1538 21.167 15.1538 21.1227V19.2532C15.1538 19.1912 15.1892 19.1558 15.2513 19.1558H18.3966C18.4497 19.1558 18.494 19.2001 18.494 19.2532V19.5899L18.5029 19.581Z" fill="white"/>
<path d="M31.6507 19.3861V19.2887C31.6507 19.2001 31.695 19.1558 31.7836 19.1558H34.8669C34.9378 19.1558 34.9732 19.1912 34.9732 19.2621V21.2024C34.9732 21.2733 34.9378 21.3087 34.8669 21.3087H31.7836C31.7216 21.3087 31.6773 21.2733 31.6596 21.2113L31.6153 21.0518C31.5975 20.9809 31.5444 20.9455 31.4735 20.9543C30.6584 20.9986 29.7547 20.8392 28.9041 20.9189C28.8332 20.9189 28.7978 20.9632 28.7978 21.0341V21.1936C28.7978 21.2733 28.7535 21.3087 28.6826 21.3087H25.5284C25.4576 21.3087 25.4221 21.2733 25.4133 21.2024C25.3512 20.0595 26.4056 19.5367 27.4068 19.5367C28.8332 19.5367 30.2065 19.5367 31.5267 19.5013C31.5975 19.5013 31.633 19.4659 31.633 19.3861H31.6507Z" fill="white"/>
<path d="M11.1754 21.9818V21.6628C11.1754 21.6185 11.2108 21.5742 11.264 21.5742H14.4093C14.4801 21.5742 14.5156 21.6097 14.5244 21.6717C14.7371 23.3374 13.3904 23.7095 12.0702 23.7095C9.8375 23.7095 7.54275 23.7095 5.19485 23.7095C5.07081 23.7095 5.00879 23.6475 5.00879 23.5234V22.2653C5.00879 22.159 5.09739 22.0792 5.19485 22.0792H11.0779C11.1488 22.0792 11.1842 22.0438 11.1842 21.9729L11.1754 21.9818Z" fill="white"/>
<path d="M18.6179 21.9378C19.9469 21.9378 21.338 21.9378 22.791 21.9378C23.8099 21.9378 25.0946 22.2568 25.1566 23.4617C25.1566 23.5503 25.1212 23.6035 25.0237 23.6035C22.3569 23.6035 19.7697 23.6035 17.2801 23.6035C16.0131 23.6035 15.0208 23.1782 15.1714 21.6986C15.1714 21.6277 15.2157 21.5923 15.2866 21.5923H18.423C18.423 21.5923 18.5028 21.6277 18.5028 21.672V21.8049C18.485 21.8935 18.5293 21.9378 18.6179 21.9378Z" fill="white"/>
<path d="M31.6508 21.9375V21.8134C31.6508 21.7514 31.7039 21.7071 31.766 21.7071H34.8847C34.9556 21.7071 34.991 21.7425 34.991 21.8046C35.0087 22.2033 34.9999 22.5665 34.9733 22.9209C34.9201 23.5943 34.1493 23.7272 33.6 23.7272C31.828 23.7095 29.9585 23.7095 27.9827 23.7272C26.5917 23.736 25.3425 23.4968 25.4399 21.7603C25.4399 21.7248 25.4665 21.6982 25.5019 21.6982H28.7093C28.7536 21.6982 28.789 21.716 28.7979 21.7603C28.8156 21.8134 28.8156 21.8666 28.7979 21.9197C28.7801 21.9995 28.8244 22.0792 28.9042 22.0969C28.913 22.0969 28.9308 22.0969 28.9396 22.0969L31.509 22.0526C31.5976 22.0526 31.6419 22.0083 31.6419 21.9197L31.6508 21.9375Z" fill="white"/>
<path d="M21.8165 24.2413V24.0818C21.8165 24.0198 21.8431 23.9844 21.9051 23.9844H25.0327C25.0947 23.9844 25.1302 24.011 25.1302 24.073C25.2808 25.6323 23.8809 25.9956 22.676 25.9956C20.2749 25.9956 17.8561 25.9956 15.4107 25.9956C15.2424 25.9956 15.1538 25.907 15.1538 25.7387V24.6843C15.1538 24.4628 15.269 24.3476 15.4905 24.3476H21.7014C21.7722 24.3476 21.8077 24.3122 21.8077 24.2325L21.8165 24.2413Z" fill="white"/>
</g>
<circle cx="20" cy="20" r="19.5" stroke="black" stroke-opacity="0.05"/>
<defs>
<clipPath id="clip0_24563_42813">
<rect width="30" height="9.25871" fill="white" transform="translate(5 16.7368)"/>
</clipPath>
</defs>
</svg>
