<svg width="40" height="40" viewBox="0 0 40 40" fill="none" xmlns="http://www.w3.org/2000/svg">
<circle cx="20" cy="20" r="20" fill="#00539B"/>
<g clip-path="url(#clip0_14382_19679)">
<rect x="7" y="7" width="26" height="26" fill="white"/>
<path d="M19.87 32.5287C13.1019 32.5287 7.60937 27.0362 7.60937 20.2681C7.60937 13.5 13.1019 8.00752 19.87 8.00752C26.6381 8.00752 32.1306 13.5 32.1306 20.2681C32.1306 27.0362 26.6381 32.5287 19.87 32.5287ZM7 33H33V7L7 7.00001L7 33ZM20.4387 24.6312H20.4631C20.9181 24.8587 21.235 25.33 21.235 25.8744C21.235 26.6381 20.6175 27.2556 19.8537 27.2556C19.09 27.2556 18.4725 26.6381 18.4725 25.8744C18.4725 25.3219 18.7975 24.8506 19.2606 24.6312C16.6525 24.4931 14.6375 23.4937 14.6375 22.275C14.6375 21.5031 15.45 20.8125 16.7094 20.3819H16.7175V21.4544V21.4625C16.1975 21.6819 15.8888 21.9662 15.8888 22.2669C15.8888 22.9494 17.3919 23.51 19.3337 23.5912V16.1163C18.5944 16.3438 18.05 17.0263 18.05 17.8388V22.8437C18.05 22.8437 16.9937 22.8762 16.9937 22.8437V17.8063L17.0181 17.8306C17.0181 16.425 18.0337 15.255 19.3744 15.0275V15.0194H16.9856V13.955H22.73V15.0194H20.3412C21.6819 15.2631 22.6975 16.4331 22.6975 17.8306L22.7219 17.8063V22.8437H21.6656V17.8388C21.6656 17.0263 21.1294 16.3357 20.39 16.1082V23.5912C22.3319 23.5019 23.8269 22.9412 23.8269 22.2669C23.8269 21.9744 23.5425 21.6981 23.0631 21.4787V20.39C23.0631 20.39 23.0469 20.39 23.0306 20.3819H23.0631V20.39C24.29 20.8287 25.0862 21.5031 25.0862 22.2669C25.0862 23.4856 23.055 24.4931 20.4468 24.6312M19.8781 11.0706C14.8 11.0706 10.6806 15.19 10.6806 20.2681C10.6806 25.3462 14.8 29.4656 19.8781 29.4656C24.9562 29.4656 29.0756 25.3462 29.0756 20.2681C29.0756 15.19 24.9562 11.0706 19.8781 11.0706Z" fill="#00539B"/>
<path d="M10.7132 24.6231L10.5426 24.2412C10.4613 24.0543 10.3232 24.0056 10.177 24.0625C9.99011 24.1437 10.0307 24.3225 10.0876 24.4687L10.242 24.8262L10.7132 24.6231ZM10.1039 24.8912L9.96573 24.5662C9.89261 24.3956 9.7951 24.3143 9.6326 24.3875C9.51073 24.4443 9.47011 24.55 9.55948 24.745L9.69762 25.07L10.112 24.8912H10.1039ZM9.61636 25.3218L9.35636 24.7368C9.25073 24.485 9.3401 24.29 9.52697 24.2087C9.61635 24.1681 9.75448 24.1518 9.88448 24.2656C9.88448 24.1681 9.87637 23.9812 10.1039 23.8837C10.3151 23.7862 10.567 23.8756 10.697 24.16L10.9488 24.7287L9.6245 25.3137L9.61636 25.3218Z" fill="#00539B"/>
<path d="M10.1362 22.4781L10.4368 23.51L9.04745 23.9163L8.74683 22.9007L8.91744 22.8519L9.15308 23.6806L9.57559 23.5588L9.36433 22.795L9.52682 22.7463L9.74621 23.5019L10.2174 23.3719L9.97371 22.535L10.1362 22.4781Z" fill="#00539B"/>
<path d="M8.682 22.6244L8.49512 21.4625L8.67387 21.4381L8.74699 21.9256L10.0064 21.7225L10.0389 21.9094L8.7795 22.1125L8.85262 22.6L8.682 22.6244Z" fill="#00539B"/>
<path d="M8.47887 21.2756L8.43823 20.0975L8.60888 20.0894L8.63325 20.585L9.90075 20.5362L9.90886 20.7312L8.63325 20.78L8.65762 21.2675L8.47887 21.2756Z" fill="#00539B"/>
<path d="M9.98193 18.8137L9.89254 19.8863L8.44629 19.7644L8.53568 18.7081L8.7063 18.7244L8.64128 19.5856L9.08004 19.6181L9.14505 18.83L9.32378 18.8463L9.25066 19.6344L9.73816 19.675L9.81128 18.8056L9.98193 18.8137Z" fill="#00539B"/>
<path d="M9.29122 18.2206L9.38871 17.7818C9.42121 17.6437 9.42121 17.4893 9.20996 17.4406C8.99059 17.3918 8.9337 17.5462 8.91745 17.6437L8.81184 18.1231L9.29122 18.2287V18.2206ZM10.0631 18.3912L10.0225 18.5781L8.60059 18.2612L8.74683 17.6112C8.8037 17.3756 8.92558 17.1643 9.23433 17.2293C9.44558 17.2781 9.49432 17.4 9.52682 17.4975C9.57557 17.4243 9.63247 17.3512 9.82747 17.3837L10.0875 17.4243C10.1687 17.4406 10.1931 17.4406 10.2418 17.3918H10.2743L10.2175 17.6356C10.1281 17.6356 9.9087 17.6031 9.85995 17.5949C9.73808 17.5706 9.59997 17.5625 9.55122 17.79L9.44559 18.2531L10.055 18.3912H10.0631Z" fill="#00539B"/>
<path d="M10.4368 16.4737L10.7293 15.7993L10.8837 15.8643L10.518 16.7256L9.18555 16.1649L9.25867 15.9781L10.4368 16.4737Z" fill="#00539B"/>
<path d="M11.0706 15.5232L10.9812 15.6938L9.69751 15.0276L9.78687 14.8569L11.0706 15.5232Z" fill="#00539B"/>
<path d="M11.3305 15.0763L11.2249 15.2388L9.99805 14.4588L10.5343 13.6138L10.6805 13.7031L10.2499 14.3856L10.6237 14.6213L11.0055 14.02L11.1518 14.1175L10.7699 14.7188L11.3305 15.0763Z" fill="#00539B"/>
<path d="M12.5576 13.4187L11.8751 14.2394L10.762 13.3212L11.4363 12.5006L11.5663 12.6144L11.022 13.2806L11.3632 13.5569L11.867 12.9475L11.997 13.0612L11.4932 13.6706L11.867 13.9794L12.4276 13.305L12.5576 13.4187Z" fill="#00539B"/>
<path d="M12.0618 11.8588L12.9636 11.1031L13.0774 11.2332L12.7036 11.55L13.5243 12.525L13.378 12.6469L12.5492 11.6719L12.1755 11.9969L12.0618 11.8588Z" fill="#00539B"/>
<path d="M14.028 10.3881L14.1905 10.2825L14.9786 11.5012L14.808 11.6068L14.4505 11.0381L13.8086 11.4525L14.1742 12.0212L14.0118 12.1268L13.2236 10.9081L13.3943 10.8025L13.7192 11.3062L14.353 10.8918L14.028 10.3881Z" fill="#00539B"/>
<path d="M15.0763 10.5669L15.4906 10.38C15.6206 10.315 15.7425 10.2256 15.6531 10.0306C15.5556 9.82749 15.4012 9.87624 15.32 9.91686L14.8731 10.12L15.0844 10.5669H15.0763ZM15.4094 11.2819L15.2306 11.3631L14.6294 10.0469L15.2388 9.77062C15.45 9.67312 15.71 9.64874 15.8319 9.92499C15.9213 10.12 15.8563 10.2337 15.7913 10.3231C15.8806 10.3231 15.97 10.3231 16.0594 10.4937L16.1812 10.7294C16.2137 10.8025 16.2381 10.8269 16.3113 10.8269L16.3275 10.8594L16.1081 10.9569C16.0431 10.8837 15.9456 10.6887 15.9213 10.64C15.8725 10.5262 15.7913 10.4125 15.58 10.51L15.1494 10.705L15.4094 11.2656V11.2819Z" fill="#00539B"/>
<path d="M16.7257 9.3644C16.4169 9.44565 16.3113 9.74627 16.4088 10.0713C16.5063 10.3963 16.7582 10.5831 17.0588 10.4938C17.3594 10.4125 17.4732 10.1119 17.3757 9.78689C17.2782 9.45377 17.0263 9.27503 16.7257 9.3644ZM17.1076 10.6644C16.5876 10.8188 16.3032 10.4288 16.2138 10.1282C16.1326 9.82753 16.1569 9.34815 16.6769 9.2019C17.1969 9.04753 17.4813 9.43752 17.5707 9.73814C17.6519 10.0388 17.6194 10.5182 17.1076 10.6725" fill="#00539B"/>
<path d="M18.887 8.81189L19.017 9.74627C19.0576 10.0388 18.9113 10.315 18.5132 10.3638C18.1313 10.4206 17.9282 10.1931 17.8876 9.92502L17.7576 8.96627L17.9526 8.94189L18.0745 9.84377C18.1151 10.1525 18.3182 10.2175 18.4969 10.1931C18.6757 10.1688 18.8626 10.055 18.8219 9.74627L18.692 8.83626L18.887 8.81189Z" fill="#00539B"/>
<path d="M19.9918 9.45377H20.6256V10.2338H20.5037L20.4631 10.0469C20.3656 10.185 20.1787 10.2744 19.9837 10.2663C19.7318 10.2663 19.61 10.1769 19.5368 10.0956C19.3175 9.88439 19.3093 9.64064 19.3093 9.48627C19.3093 9.12877 19.5287 8.73877 20 8.73877C20.2681 8.73877 20.5687 8.89314 20.6093 9.21814H20.4224C20.3574 8.96627 20.1543 8.9094 19.9918 8.9094C19.7318 8.9094 19.5206 9.11253 19.5125 9.4944C19.5125 9.7869 19.6099 10.0956 19.9918 10.0956C20.0649 10.0956 20.1868 10.0956 20.2924 10.0063C20.4224 9.90877 20.455 9.77877 20.455 9.62439H20.0081V9.45377H19.9918Z" fill="#00539B"/>
<path d="M22.0313 8.96619L22.2262 8.9987L21.9987 10.4287L21.8119 10.3962L21.9094 9.72994L21.17 9.61619L21.0644 10.2906L20.8694 10.2581L21.0888 8.81995L21.2837 8.85244L21.1944 9.44556L21.9419 9.55931L22.0313 8.96619Z" fill="#00539B"/>
<path d="M23.0225 10.5425L23.4125 10.6807C23.6075 10.7457 23.7375 10.6807 23.7943 10.5344C23.8593 10.3394 23.705 10.2419 23.5587 10.1932L23.1931 10.0632L23.0225 10.5425ZM23.25 9.90879L23.5831 10.0307C23.7618 10.0957 23.8918 10.0794 23.9487 9.90879C23.9893 9.78692 23.9487 9.6813 23.7375 9.60817L23.4043 9.48629L23.2581 9.90879H23.25ZM23.2662 9.26691L23.8675 9.47817C24.1193 9.56754 24.2006 9.77066 24.1274 9.95754C24.0949 10.0469 24.0218 10.1607 23.8431 10.1769C23.9162 10.25 24.0543 10.3638 23.965 10.5994C23.8918 10.8188 23.6643 10.9488 23.3556 10.835L22.7625 10.6238L23.25 9.25879L23.2662 9.26691Z" fill="#00539B"/>
<path d="M24.9726 11.5825L24.022 11.095L24.6801 9.8031L25.6226 10.2825L25.5413 10.4368L24.7776 10.0469L24.5745 10.445L25.2732 10.8025L25.2001 10.9568L24.4932 10.5993L24.2738 11.03L25.0538 11.4281L24.9726 11.5825Z" fill="#00539B"/>
<path d="M25.8663 10.4287L26.8413 11.095L26.7357 11.2331L26.3294 10.9568L25.6144 12.0131L25.4519 11.8993L26.175 10.8431L25.7688 10.5668L25.8663 10.4287Z" fill="#00539B"/>
<path d="M26.9876 11.2087L27.8732 11.9806L27.7594 12.1106L27.3857 11.7856L26.5488 12.7525L26.4026 12.6225L27.2395 11.6556L26.8738 11.3387L26.9876 11.2087Z" fill="#00539B"/>
<path d="M27.7431 13.9794L27.0281 13.1832L28.1087 12.2163L28.8156 13.0044L28.6775 13.1263L28.1087 12.4844L27.7756 12.7769L28.3118 13.3701L28.1818 13.4838L27.6456 12.8988L27.2881 13.2157L27.8731 13.8657L27.7431 13.9794Z" fill="#00539B"/>
<path d="M28.6532 13.8899L28.9132 14.2637C28.9944 14.3856 29.1082 14.4912 29.2869 14.3693C29.4738 14.2474 29.3925 14.1012 29.3438 14.0199L29.0675 13.6137L28.6613 13.8899H28.6532ZM28.0032 14.3368L27.8894 14.1743L29.0919 13.3618L29.4657 13.9143C29.6038 14.1093 29.6688 14.3531 29.4169 14.5318C29.2382 14.6537 29.1163 14.6049 29.0188 14.5562C29.035 14.6456 29.0513 14.7349 28.8969 14.8487L28.6857 15.0112C28.6207 15.0599 28.6044 15.0843 28.6125 15.1493L28.58 15.1656L28.45 14.9706C28.5069 14.8974 28.6857 14.7674 28.7344 14.7349C28.8319 14.6699 28.9294 14.5724 28.7994 14.3774L28.5313 13.9874L28.0113 14.3368H28.0032Z" fill="#00539B"/>
<path d="M29.3601 16.9043L30.1564 16.5793C30.1564 16.5793 30.3676 16.498 30.4976 16.4493L29.2139 16.5305L29.1408 16.3518L30.1076 15.5068C29.9858 15.5555 29.8151 15.6286 29.7826 15.6449L28.9864 15.9699L28.9214 15.7912L30.262 15.2386L30.3676 15.4987L29.3926 16.3436L30.6845 16.2705L30.7901 16.5305L29.4495 17.0749L29.3845 16.8961L29.3601 16.9043Z" fill="#00539B"/>
<path d="M29.7581 18.375L29.498 17.335L30.9037 16.9856L31.1556 18.0094L30.993 18.0581L30.7899 17.2212L30.3512 17.3269L30.5462 18.0987L30.3755 18.1394L30.1887 17.3756L29.7174 17.4894L29.9205 18.3343L29.7581 18.375Z" fill="#00539B"/>
<path d="M29.9857 18.7731L30.0263 19.1468C30.0507 19.4068 30.2701 19.5449 30.6357 19.5043C31.0013 19.4637 31.1638 19.2768 31.1313 19.0168L31.0907 18.6512L29.9857 18.7731ZM31.2369 18.4399L31.302 19.0249C31.3426 19.3987 31.0826 19.6587 30.6682 19.7074C30.3432 19.7399 29.9126 19.6506 29.8638 19.1712L29.7988 18.5943L31.2369 18.4399Z" fill="#00539B"/>
<path d="M31.368 20.0049L29.9219 20.0231L29.9243 20.2181L31.3705 20.1999L31.368 20.0049Z" fill="#00539B"/>
<path d="M30.8468 21.6251C31.1068 21.5926 31.1718 21.3894 31.18 21.2513C31.2043 20.9913 31.0256 20.7638 30.6437 20.7232C30.3025 20.6988 30.0343 20.7963 30.0018 21.1457C29.9856 21.2757 30.0343 21.4951 30.3593 21.5926L30.3431 21.7794C29.8068 21.6494 29.8231 21.2026 29.8312 21.0969C29.8637 20.7719 30.0993 20.4632 30.6518 20.5119C31.0987 20.5526 31.3831 20.8288 31.3506 21.2513C31.31 21.6169 31.0662 21.7957 30.8225 21.8038L30.8387 21.6169L30.8468 21.6251Z" fill="#00539B"/>
<path d="M29.7256 22.1612L29.7662 21.9744L31.1881 22.2344L31.1556 22.4294L29.7256 22.1612Z" fill="#00539B"/>
<path d="M30.8064 23.7863L30.7576 23.9732L29.3601 23.575L29.4251 23.3638L30.7576 22.9738L29.6282 22.6488L29.677 22.4619L31.0745 22.8682L31.0095 23.0875L29.6851 23.4613L29.677 23.4694L30.8064 23.7863Z" fill="#00539B"/>
<path d="M28.8318 24.81L29.2624 23.8269L30.5868 24.42L30.1562 25.3869L30.0018 25.3138L30.3512 24.5257L29.9449 24.3469L29.6199 25.07L29.4574 24.9969L29.7824 24.2738L29.3437 24.0788L28.9862 24.8832L28.8318 24.81Z" fill="#00539B"/>
<path d="M12.33 27.2475C12.3787 27.1744 12.4681 27.0281 12.2812 26.8006C12.1675 26.6706 11.9319 26.5325 11.6231 26.8006C11.4281 26.9631 11.3225 27.2069 11.5175 27.4425C11.6475 27.5969 11.8018 27.6456 11.9643 27.5644L12.1919 27.8406C11.9075 27.9868 11.5825 27.9381 11.3062 27.605C11.0137 27.2556 10.9975 26.8331 11.3875 26.5162C11.7694 26.1993 12.1919 26.2969 12.4681 26.6381C12.8012 27.0362 12.7037 27.3856 12.5493 27.5318L12.3218 27.2556L12.33 27.2475Z" fill="#00539B"/>
<path d="M12.9718 29.1649L12.728 28.9456L13.1505 28.458C13.1993 28.4012 13.2805 28.2955 13.1262 28.1574C13.0124 28.0599 12.8743 28.0518 12.7687 28.1737L12.3705 28.6287L12.1187 28.4093L13.0612 27.3368L13.313 27.5562L12.9799 27.938C13.0693 27.9055 13.2318 27.9381 13.3618 28.0599C13.5487 28.2224 13.6137 28.4418 13.4593 28.6124L12.9718 29.1649Z" fill="#00539B"/>
<path d="M14.2719 29.0268C14.0607 28.8887 13.9144 29.0187 13.8413 29.1324C13.7682 29.2462 13.7031 29.4249 13.9225 29.5712C14.1419 29.7093 14.28 29.5793 14.3531 29.4656C14.4263 29.3518 14.4913 29.1731 14.2719 29.0268ZM13.7925 29.7662C13.5081 29.5793 13.3456 29.2624 13.5488 28.9456C13.76 28.6287 14.1094 28.6449 14.3938 28.8318C14.6782 29.0187 14.8406 29.3274 14.6375 29.6524C14.4263 29.9693 14.0769 29.9531 13.7844 29.7662" fill="#00539B"/>
<path d="M15.7263 30.7575L15.4175 30.6194L15.6938 30.0344C15.7263 29.9613 15.775 29.8394 15.58 29.75C15.4419 29.685 15.3038 29.7175 15.2388 29.8638L14.9869 30.4082L14.6863 30.27L15.1332 29.3113L15.4257 29.4494L15.3607 29.5875C15.4257 29.5469 15.5638 29.4819 15.7832 29.5875C16.0025 29.6932 16.1325 29.88 16.0269 30.0913L15.7182 30.7575H15.7263Z" fill="#00539B"/>
<path d="M16.7255 30.8549C16.9368 30.9199 17.0424 30.7818 17.0912 30.6437C17.1399 30.4812 17.083 30.3187 16.9043 30.2618C16.7905 30.2212 16.6361 30.2618 16.563 30.4974C16.5224 30.6274 16.5387 30.7981 16.7337 30.8549M17.5624 30.2374L17.2699 31.1962C17.213 31.3749 17.1155 31.6593 16.5143 31.4806C16.2624 31.4074 16.0268 31.2368 16.0755 31.0174L16.4249 31.1231C16.4249 31.1799 16.4249 31.2368 16.6199 31.2937C16.7905 31.3506 16.8961 31.3018 16.9449 31.1393L16.9855 31.0174C16.9124 31.0743 16.8068 31.1231 16.6118 31.0662C16.3193 30.9768 16.1405 30.7331 16.2462 30.3837C16.3518 30.0343 16.6443 29.9368 16.9124 30.0099C17.1399 30.0831 17.1968 30.2212 17.2211 30.2943L17.2699 30.1399L17.5786 30.2293L17.5624 30.2374Z" fill="#00539B"/>
<path d="M18.7974 31.505L18.4399 31.4725L18.5456 30.0507L18.895 30.075L18.8543 30.66L19.5531 30.1238L20.0162 30.1563L19.2768 30.6925L19.9512 31.5863L19.4962 31.5538L19.0087 30.8875L18.8381 31.0175L18.7974 31.505Z" fill="#00539B"/>
<path d="M21.3973 31.4644L21.0723 31.4888V31.3425H21.0561C20.9911 31.4644 20.8611 31.5375 20.6823 31.5538C20.4305 31.57 20.2436 31.4725 20.2192 31.1963L20.1624 30.4975L20.4955 30.465L20.5442 31.1232C20.5605 31.2857 20.6742 31.31 20.7798 31.3019C20.8855 31.2938 21.0317 31.2288 21.0155 31.0419L20.9586 30.4325L21.2998 30.4L21.3892 31.4563L21.3973 31.4644Z" fill="#00539B"/>
<path d="M22.9492 31.1393L22.6242 31.2125L22.478 30.5868C22.4617 30.5137 22.4292 30.3837 22.218 30.4325C22.0799 30.465 21.9824 30.5706 22.0149 30.7331L22.153 31.3262L21.828 31.3993L21.5842 30.3675L21.9011 30.2944L21.9336 30.4406C21.9661 30.3675 22.0311 30.2293 22.2667 30.1725C22.5105 30.1156 22.7299 30.1887 22.7786 30.4162L22.9411 31.1312L22.9492 31.1393Z" fill="#00539B"/>
<path d="M24.3063 30.3757L24.6232 30.2213C24.8832 30.0994 24.8669 29.8313 24.7694 29.6282C24.5907 29.2463 24.355 29.3194 24.2169 29.3844L23.9082 29.5307L24.3144 30.3757H24.3063ZM23.4775 29.4576L24.16 29.1326C24.68 28.8807 24.9644 29.1976 25.0863 29.4413C25.2163 29.7176 25.2732 30.1807 24.7694 30.4244L24.095 30.7495L23.4775 29.4576Z" fill="#00539B"/>
<path d="M26.0207 29.1C26.0207 29.1 25.9719 29.1813 25.8663 29.2707C25.7769 29.3519 25.7038 29.4332 25.7688 29.5307C25.8257 29.6119 25.9151 29.5875 25.9719 29.555C26.0938 29.4738 26.1751 29.3194 26.1019 29.2138L26.0207 29.1081V29.1ZM26.4675 29.1732C26.5407 29.2788 26.5813 29.2788 26.6219 29.2707L26.6463 29.3032L26.3457 29.5063C26.305 29.4738 26.2888 29.4656 26.2482 29.4169C26.2238 29.5144 26.1832 29.6444 25.9963 29.7744C25.8338 29.88 25.6225 29.9125 25.5007 29.7338C25.3869 29.5632 25.4519 29.3844 25.6144 29.2463L25.8419 29.0432C25.8419 29.0432 25.9232 28.9538 25.8907 28.905C25.8257 28.8156 25.7119 28.8806 25.6307 28.9294C25.5007 29.0188 25.5169 29.1081 25.5494 29.165L25.2813 29.3438C25.135 29.0513 25.3301 28.8644 25.5413 28.7182C25.6876 28.6207 25.9882 28.4744 26.1344 28.6856L26.4513 29.1569L26.4675 29.1732Z" fill="#00539B"/>
<path d="M27.7756 28.312L27.5318 28.5394L27.1012 28.0601C27.0443 28.0032 26.955 27.9057 26.8006 28.0519C26.6868 28.1494 26.6624 28.2876 26.7681 28.4094L27.1743 28.8644L26.9224 29.0919L26.2156 28.3038L26.4593 28.0845L26.5568 28.1982C26.5487 28.1169 26.5406 27.9626 26.7193 27.8082C26.9062 27.6457 27.1337 27.6051 27.2881 27.7757L27.7756 28.3201V28.312Z" fill="#00539B"/>
<path d="M28.2549 27.4263C28.4011 27.2475 28.3118 27.1013 28.198 27.0038C28.068 26.8981 27.8893 26.8819 27.7755 27.0281C27.6943 27.1256 27.6618 27.28 27.8568 27.4344C27.9624 27.5156 28.1249 27.5725 28.2549 27.4181M28.0111 26.4106L28.783 27.0525C28.9211 27.1663 29.1486 27.3775 28.7505 27.8569C28.5799 28.06 28.328 28.2063 28.1493 28.0844L28.3768 27.8C28.4336 27.8244 28.4905 27.8406 28.6124 27.6863C28.7261 27.5481 28.7261 27.4425 28.5961 27.3287L28.4986 27.2475H28.4905C28.523 27.345 28.5311 27.4588 28.4011 27.6131C28.2061 27.8488 27.9136 27.9219 27.6293 27.6863C27.3449 27.4506 27.3693 27.15 27.548 26.9306C27.6943 26.7519 27.8486 26.7519 27.9299 26.7681L27.808 26.6625L28.0111 26.4188V26.4106Z" fill="#00539B"/>
<path d="M10.6237 25.4194C10.4287 25.4194 10.2825 25.5738 10.2825 25.7688C10.2825 25.9638 10.4368 26.11 10.6237 26.11C10.8106 26.11 10.965 25.9557 10.965 25.7688C10.965 25.5819 10.8106 25.4194 10.6237 25.4194Z" fill="#00539B"/>
<path d="M29.1325 25.5006C28.9456 25.5006 28.7913 25.655 28.7913 25.8419C28.7913 26.0287 28.9456 26.1831 29.1325 26.1831C29.3194 26.1831 29.4738 26.0287 29.4738 25.8419C29.4738 25.655 29.3194 25.5006 29.1325 25.5006Z" fill="#00539B"/>
</g>
<circle cx="20" cy="20" r="19.5" stroke="black" stroke-opacity="0.05"/>
<defs>
<clipPath id="clip0_14382_19679">
<rect width="26" height="26" fill="white" transform="translate(7 7)"/>
</clipPath>
</defs>
</svg>
