<svg width="40" height="40" viewBox="0 0 40 40" fill="none" xmlns="http://www.w3.org/2000/svg">
<ellipse cx="20" cy="20.0269" rx="20" ry="19.9732" fill="#F6F8FA"/>
<g clip-path="url(#clip0_19604_30676)">
<path d="M28.417 16.0914V16.6245L31.5 14.7766L28.417 12.9287V13.5155H11.583V12.9287L8.5 14.7766L11.583 16.6245V16.0914H13.9959C12.5251 17.6593 11.6175 19.8117 11.6175 22.1759C11.6175 26.9949 15.3825 30.9046 20.0248 30.9046C24.6671 30.9046 28.4321 26.9927 28.4321 22.1737C28.4321 19.8106 27.5257 17.6593 26.0548 16.0914H28.417ZM18.7051 28.1126C16.1152 27.5056 14.1297 25.0821 14.1297 22.1826C14.1297 19.2831 16.1152 16.8585 18.7051 16.2526V28.1126ZM21.2949 28.1126V16.2526C23.8848 16.8585 25.8714 19.282 25.8714 22.1826C25.8714 25.0832 23.8848 27.5067 21.2949 28.1126Z" fill="#2783D6"/>
</g>
<path d="M20 0.5C30.7702 0.5 39.5 9.21952 39.5 19.9736C39.4998 30.7275 30.77 39.4463 20 39.4463C9.22997 39.4463 0.500245 30.7275 0.5 19.9736C0.5 9.21952 9.22981 0.5 20 0.5Z" stroke="black" stroke-opacity="0.05"/>
<defs>
<clipPath id="clip0_19604_30676">
<rect width="23" height="17.9759" fill="white" transform="translate(8.5 12.9287)"/>
</clipPath>
</defs>
</svg>
