<svg width="40" height="40" viewBox="0 0 40 40" fill="none" xmlns="http://www.w3.org/2000/svg">
<circle cx="20" cy="20" r="20" fill="#1F3C7C"/>
<path d="M29.8372 20.9244L29.697 21.0041L25.8025 23.2257C25.7107 23.2789 25.6647 23.2523 25.6647 23.1459V16.8124C25.6647 16.7302 25.6309 16.6673 25.5608 16.6262L19.9766 13.4062C19.9403 13.3845 19.8944 13.3845 19.8582 13.4062L14.3513 16.59C14.2377 16.6552 14.1676 16.7737 14.1676 16.9042L14.1724 23.2015C14.1724 23.2958 14.2232 23.3829 14.3054 23.4288L19.73 26.5545C19.8509 26.6246 19.9984 26.6246 20.1192 26.5545L25.5826 23.3974C25.643 23.3611 25.6744 23.3804 25.6744 23.4505L25.6575 28.0726C25.6575 28.104 25.6575 28.1355 25.6575 28.1669L20.2063 31.3119C20.0225 31.4183 19.7953 31.4183 19.6092 31.3119L10.2248 25.8824C10.0846 25.8027 10 25.6528 10 25.4932L10.0048 14.4336C10.0048 14.3394 10.0556 14.2523 10.1354 14.2064L19.6478 8.70924C19.8195 8.61254 20.0274 8.61254 20.199 8.70924L29.6462 14.1774C29.7719 14.2499 29.8348 14.3587 29.8348 14.5062V20.9219L29.8372 20.9244Z" fill="white"/>
<path d="M29.8372 20.9243L33.896 23.2571C33.9661 23.2982 33.9999 23.3586 33.9999 23.4384V27.9033C34.0024 28.0774 33.9274 28.2079 33.7775 28.295L30.2022 30.3473C29.9387 30.4996 29.6776 30.4996 29.4166 30.3473L25.6599 28.1668C25.6599 28.1354 25.6599 28.104 25.6599 28.0726L29.5471 25.8389C29.7115 25.7446 29.813 25.5657 29.8082 25.3772L29.6994 21.0041L29.8396 20.9243H29.8372Z" fill="#1B99D5"/>
<circle cx="20" cy="20" r="19.5" stroke="black" stroke-opacity="0.05"/>
</svg>
