<svg width="40" height="40" viewBox="0 0 40 40" fill="none" xmlns="http://www.w3.org/2000/svg">
<circle cx="20" cy="20" r="20" fill="#0062A6"/>
<path d="M5.89444 21.5352C6.16102 21.5285 6.45931 21.5285 6.78931 21.5352C7.18202 21.5438 7.57617 21.4944 7.71923 21.1117C7.93955 20.5216 8.09764 19.8956 8.27862 19.2812C8.35015 19.0404 8.26002 18.9197 8.00822 18.9192H5.11545C5.1106 18.9192 5.10579 18.9183 5.10132 18.9164C5.09685 18.9145 5.09279 18.9118 5.0894 18.9083C5.086 18.9048 5.08333 18.9007 5.08154 18.8962C5.07975 18.8917 5.07887 18.8869 5.07897 18.882C5.07862 18.8787 5.07862 18.8753 5.07897 18.872L5.32075 18.0394C5.32385 18.0285 5.33041 18.0189 5.33945 18.0121C5.34848 18.0052 5.35949 18.0015 5.37082 18.0015C6.59641 18.0015 7.83941 18.0015 9.09981 18.0015C9.65776 18.0015 9.9768 18.4757 9.81514 19.0065C9.62343 19.6059 9.42147 20.2872 9.20925 21.0502C9.08765 21.4889 8.96604 21.7891 8.84444 21.9508C8.51682 22.39 8.05329 22.5452 7.5125 22.5416C6.32029 22.534 5.16004 22.534 4.03173 22.5416C4.02338 22.5416 4.01538 22.5383 4.00948 22.5324C4.00357 22.5265 4.00026 22.5185 4.00026 22.5102C3.99991 22.5071 3.99991 22.504 4.00026 22.5009L4.80643 19.7812C4.81076 19.7657 4.82016 19.7522 4.83314 19.7427C4.84612 19.7332 4.86191 19.7284 4.87796 19.729H6.30861C6.34795 19.729 6.36226 19.7483 6.35153 19.7862L5.85223 21.4794C5.8491 21.4905 5.8504 21.5024 5.85588 21.5125C5.86135 21.5227 5.87057 21.5303 5.88156 21.5337L5.89444 21.5352Z" fill="white"/>
<path d="M10.8108 18.8663C10.8966 18.4686 11.0404 18.0794 11.4996 18.0179C11.6 18.0055 11.7011 17.9995 11.8022 18C13.1656 18.0029 14.494 18.0029 15.7873 18C15.7922 17.9999 15.7972 18.0008 15.8018 18.0027C15.8063 18.0045 15.8105 18.0072 15.8141 18.0107C15.8176 18.0141 15.8204 18.0183 15.8223 18.0228C15.8242 18.0274 15.8252 18.0323 15.8252 18.0372C15.8251 18.0402 15.8244 18.0431 15.8231 18.0458L15.5691 18.872C15.5649 18.8853 15.5567 18.8969 15.5455 18.9053C15.5343 18.9136 15.5208 18.9183 15.5069 18.9185H10.8573C10.8158 18.9207 10.8029 18.9042 10.8108 18.8663Z" fill="white"/>
<path d="M20.06 18.0022H21.5364C21.5398 18.0022 21.5432 18.0028 21.5463 18.0042C21.5494 18.0055 21.5523 18.0075 21.5546 18.01C21.557 18.0125 21.5588 18.0154 21.5599 18.0186C21.5611 18.0218 21.5616 18.0252 21.5614 18.0286C21.5618 18.0308 21.5618 18.0329 21.5614 18.0351L20.2331 22.518C20.2316 22.5235 20.2283 22.5283 20.2238 22.5317C20.2192 22.5351 20.2137 22.5368 20.208 22.5366H17.7473C17.7416 22.5368 17.7361 22.5351 17.7315 22.5317C17.727 22.5283 17.7237 22.5235 17.7223 22.518L16.3946 18.0322C16.3936 18.0289 16.3933 18.0255 16.3937 18.0221C16.3941 18.0186 16.3951 18.0153 16.3968 18.0123C16.3985 18.0093 16.4007 18.0067 16.4034 18.0046C16.4061 18.0025 16.4092 18.0009 16.4125 18H16.4189H17.8961C17.9018 17.9998 17.9073 18.0016 17.9119 18.0049C17.9164 18.0083 17.9197 18.0131 17.9211 18.0186L18.9548 21.508C18.9558 21.5112 18.9574 21.5142 18.9595 21.5169C18.9617 21.5195 18.9643 21.5216 18.9673 21.5232C18.9703 21.5248 18.9736 21.5258 18.9769 21.5261C18.9803 21.5265 18.9837 21.5261 18.987 21.5251C18.9911 21.524 18.9948 21.5219 18.9978 21.5188C19.0009 21.5158 19.003 21.5121 19.0041 21.508L20.0349 18.0208C20.0364 18.0153 20.0396 18.0105 20.0442 18.0071C20.0487 18.0037 20.0543 18.002 20.06 18.0022Z" fill="white"/>
<path d="M24.3077 18.0272L22.9672 22.5202C22.9658 22.5248 22.963 22.5288 22.9591 22.5316C22.9552 22.5345 22.9505 22.536 22.9457 22.5359H21.4629C21.457 22.5359 21.4513 22.5336 21.4472 22.5294C21.443 22.5253 21.4407 22.5196 21.4407 22.5138C21.4403 22.5116 21.4403 22.5094 21.4407 22.5073L22.7812 18.0179C22.7826 18.0133 22.7854 18.0093 22.7893 18.0065C22.7932 18.0037 22.7979 18.0021 22.8027 18.0022H24.2863C24.2921 18.0022 24.2978 18.0045 24.3019 18.0087C24.3061 18.0129 24.3084 18.0185 24.3084 18.0244C24.3083 18.0253 24.308 18.0263 24.3077 18.0272Z" fill="white"/>
<path d="M26.8987 18.9514C26.8491 18.9713 26.8048 19.0026 26.7695 19.0427C26.7343 19.0828 26.7089 19.1307 26.6956 19.1825L26.1333 21.0595C26.0446 21.3564 26.2048 21.5602 26.5096 21.5602C27.4819 21.5636 28.3756 21.5655 29.1906 21.5659C29.1984 21.5659 29.2058 21.569 29.2113 21.5745C29.2168 21.58 29.2199 21.5875 29.2199 21.5953C29.2199 21.5953 29.2199 21.601 29.2199 21.6031L28.9567 22.4808C28.9519 22.4973 28.9419 22.5117 28.9283 22.5221C28.9146 22.5324 28.898 22.538 28.8809 22.5381H25.1576C24.6411 22.5381 24.2942 22.1024 24.4494 21.5838C24.7513 20.5762 25.0496 19.5731 25.3443 18.5745C25.4588 18.1875 25.7413 18.0022 26.1197 18.0022C27.5504 18.0022 28.9243 18.0022 30.2414 18.0022C30.2456 18.0023 30.2498 18.0032 30.2537 18.0049C30.2576 18.0066 30.261 18.0091 30.264 18.0121C30.2669 18.0152 30.2692 18.0188 30.2707 18.0227C30.2722 18.0267 30.273 18.0309 30.2729 18.0351C30.2732 18.0387 30.273 18.0423 30.2722 18.0458L30.0175 18.8828C30.0141 18.8938 30.0073 18.9034 29.998 18.9102C29.9888 18.9171 29.9775 18.9207 29.966 18.9207H27.0532C27.0002 18.9207 26.9477 18.9311 26.8987 18.9514Z" fill="white"/>
<path d="M30.9968 18.8863C31.0733 18.3419 31.2979 17.9993 31.8873 18C33.2417 18 34.5963 18 35.9511 18C35.9933 18 36.0076 18.02 35.9955 18.0601L35.7515 18.8648C35.7469 18.8804 35.7375 18.894 35.7246 18.9039C35.7118 18.9138 35.6962 18.9194 35.68 18.9199H31.0304C31.0039 18.9213 30.9932 18.9099 30.9968 18.8863Z" fill="white"/>
<path d="M11.5592 21.5166C11.5579 21.5213 11.5575 21.5261 11.5581 21.5309C11.5587 21.5357 11.5602 21.5403 11.5626 21.5445C11.565 21.5487 11.5682 21.5524 11.5721 21.5553C11.5759 21.5583 11.5803 21.5604 11.5849 21.5617H11.5949H14.761C14.776 21.5617 14.781 21.5688 14.7767 21.5831L14.5056 22.5002C14.5032 22.5114 14.4968 22.5214 14.4876 22.5282C14.4784 22.5351 14.467 22.5383 14.4555 22.5374C13.2461 22.5374 12.0203 22.5374 10.778 22.5374C10.6263 22.5448 10.4752 22.5127 10.3395 22.4444C9.87315 22.1804 9.93753 21.7519 10.0813 21.3077C10.2563 20.765 10.408 20.2552 10.5363 19.7784C10.5401 19.7641 10.5485 19.7515 10.5603 19.7425C10.5721 19.7336 10.5866 19.7288 10.6013 19.729H15.2853C15.2933 19.729 15.3009 19.7322 15.3065 19.7378C15.3122 19.7434 15.3153 19.7511 15.3153 19.7591C15.3156 19.7617 15.3156 19.7643 15.3153 19.7669L15.0714 20.6039C15.0672 20.6195 15.0579 20.6332 15.0449 20.6428C15.0319 20.6524 15.016 20.6573 14.9999 20.6568H11.8525C11.838 20.6566 11.824 20.6612 11.8124 20.6699C11.8009 20.6785 11.7926 20.6908 11.7888 20.7047L11.5592 21.5166Z" fill="white"/>
<path d="M31.7351 21.513C31.7336 21.5179 31.733 21.523 31.7335 21.5281C31.7339 21.5332 31.7354 21.5382 31.7378 21.5427C31.7402 21.5472 31.7435 21.5512 31.7474 21.5545C31.7514 21.5577 31.7559 21.5601 31.7609 21.5616H31.7723H34.934C34.9366 21.5616 34.9391 21.5621 34.9414 21.5631C34.9438 21.5641 34.9459 21.5655 34.9477 21.5673C34.9495 21.5691 34.9509 21.5712 34.9519 21.5735C34.9528 21.5759 34.9533 21.5784 34.9533 21.5809C34.9537 21.5826 34.9537 21.5843 34.9533 21.5859L34.6894 22.4851C34.6851 22.5006 34.6757 22.5141 34.6627 22.5236C34.6497 22.5331 34.6339 22.5379 34.6179 22.5373C33.5096 22.5373 32.284 22.5373 30.9411 22.5373C30.7924 22.5454 30.6442 22.5135 30.5119 22.445C30.112 22.2118 30.0906 21.8456 30.2172 21.44C30.3965 20.8649 30.5634 20.3026 30.7179 19.7533C30.72 19.7458 30.7245 19.7392 30.7307 19.7344C30.7369 19.7296 30.7444 19.727 30.7522 19.7268H35.4412C35.447 19.7268 35.4527 19.728 35.458 19.7302C35.4633 19.7325 35.4681 19.7357 35.4721 19.7399C35.4761 19.744 35.4792 19.7489 35.4813 19.7543C35.4833 19.7597 35.4843 19.7654 35.4841 19.7712C35.4848 19.7749 35.4848 19.7788 35.4841 19.7826L35.2352 20.6317C35.2332 20.6383 35.2291 20.6441 35.2236 20.6482C35.218 20.6523 35.2113 20.6546 35.2044 20.6546H32.0391C32.0229 20.6549 32.0071 20.6604 31.9943 20.6703C31.9814 20.6802 31.972 20.694 31.9676 20.7097L31.7351 21.513Z" fill="white"/>
<circle cx="20" cy="20" r="19.5" stroke="black" stroke-opacity="0.05"/>
</svg>
