<svg width="40" height="40" viewBox="0 0 40 40" fill="none" xmlns="http://www.w3.org/2000/svg">
<circle cx="20" cy="20" r="20" fill="#004098"/>
<path d="M23.415 17.5148C24.06 17.5898 24.555 18.1098 24.63 18.7298H24.655C24.73 18.0848 25.25 17.5898 25.87 17.5148C25.225 17.4398 24.73 16.9198 24.655 16.2998H24.63C24.555 16.8948 24.06 17.4148 23.415 17.5148C23.415 17.4898 23.415 17.4898 23.415 17.5148Z" fill="white"/>
<path d="M21.88 17.4899L23.07 17.1199V23.5549H21.88V17.4899ZM24.06 19.0749H25.25V23.5549H24.06V19.0749ZM19.705 17.4899L20.87 17.1199V23.5549H19.705V17.4899ZM5 17.4899H6.215V23.5549H5V17.4899ZM12.25 18.1849L13.415 17.8149V19.0749H14.455V19.9149H13.415V21.9949C13.415 22.2449 13.515 22.7399 13.96 22.7399C14.135 22.7399 14.33 22.7149 14.48 22.6149L14.505 23.5299C14.235 23.6049 13.935 23.6299 13.64 23.6299C12.7 23.6049 12.23 23.1099 12.23 22.1699L12.25 18.1849ZM18.69 23.3299C18.27 23.5549 17.775 23.6749 17.155 23.6749C15.62 23.6499 14.83 22.8849 14.805 21.3499C14.805 20.6799 15.075 18.9749 16.885 18.9749C19.015 18.9749 19.015 20.8799 19.015 21.6749H15.895C15.945 22.0949 16.19 22.8149 17.18 22.8149C17.85 22.8149 18.465 22.4949 18.665 22.3699V23.3349H18.69V23.3299ZM17.895 20.8799C17.895 20.5849 17.745 19.8399 16.955 19.8399C16.065 19.8399 15.94 20.5849 15.915 20.8799H17.895ZM26.41 19.3199C26.905 19.0949 27.425 18.9999 27.97 18.9749C29.28 18.9499 29.925 19.5949 29.9 20.8549V21.4249C29.9 21.8699 29.9 22.2399 29.925 22.5399C29.925 22.8599 29.95 23.2099 29.975 23.5299H28.935C28.91 23.3049 28.885 23.0849 28.885 22.8599H28.86C28.71 23.1099 28.515 23.3049 28.265 23.4299C28.015 23.5799 27.745 23.6299 27.475 23.6299C26.285 23.6299 25.915 22.8649 25.915 22.2949C25.915 21.0099 27.155 20.8349 27.425 20.8099C27.945 20.7599 28.835 20.7599 28.835 20.7599C28.835 20.3899 28.76 20.1399 28.585 19.9949C28.41 19.8449 28.165 19.7949 27.82 19.7949C27.325 19.7949 26.83 19.9699 26.435 20.2899L26.41 19.3199ZM27.795 22.8099C28.165 22.8099 28.44 22.6599 28.61 22.4149C28.785 22.1449 28.86 21.8199 28.86 21.4999C28.86 21.4999 27.97 21.4749 27.525 21.6249C27.255 21.7249 27.055 21.9699 27.055 22.2699C27.055 22.5149 27.3 22.8099 27.795 22.8099ZM30.84 19.0749H31.955V19.6949H31.98C32.35 19.2249 32.845 18.9749 33.465 18.9749C34.8 18.9749 35 20.2849 35 20.8049V23.5549H33.835V21.2049C33.835 20.8599 33.785 19.8699 33.07 19.8699C32.13 19.8699 32.03 20.9849 32.03 21.3549V23.5599H30.865V19.0799H30.84V19.0749ZM7.18 19.0749H8.295V19.6949H8.32C8.69 19.2249 9.185 18.9749 9.805 18.9749C11.14 18.9749 11.34 20.2849 11.34 20.8049V23.5549H10.175V21.2049C10.175 20.8599 10.125 19.8699 9.41 19.8699C8.47 19.8699 8.37 20.9849 8.37 21.3549V23.5599H7.205V19.0799H7.18V19.0749Z" fill="white"/>
<circle cx="20" cy="20" r="19.5" stroke="black" stroke-opacity="0.05"/>
</svg>
