<svg width="40" height="40" viewBox="0 0 40 40" fill="none" xmlns="http://www.w3.org/2000/svg">
<circle cx="20" cy="20" r="20" fill="#60AF46"/>
<path d="M12.5779 19.2781C11.2322 18.6789 10.0896 17.8765 9.15037 16.8708C8.56649 16.2431 8.04199 15.4512 8.00214 14.6118C7.98301 14.228 8.09102 13.6728 8.37598 13.3763C8.867 12.869 9.51664 12.8183 10.0934 13.1886C10.2806 13.3037 10.4482 13.4479 10.5899 13.6158C10.7868 13.8603 10.9323 14.1791 11.0264 14.5724C11.1034 14.8939 11.1787 15.2426 11.2523 15.6186C11.2994 15.8577 11.3658 16.1197 11.4516 16.4045C11.7138 17.301 12.2232 18.1054 12.9215 18.7257C13.6202 19.349 14.4735 19.8261 15.3435 20.1693C15.3985 20.1948 15.4518 20.2239 15.5029 20.2565C15.5038 20.2569 15.5045 20.2575 15.5051 20.2581C15.5057 20.2588 15.5061 20.2596 15.5064 20.2605C15.5067 20.2614 15.5067 20.2623 15.5066 20.2632C15.5065 20.2641 15.5062 20.2649 15.5057 20.2657C15.5037 20.2693 15.5013 20.2705 15.4977 20.2689C15.4568 20.2511 15.4144 20.237 15.371 20.2267C14.4124 19.9982 13.4774 19.6807 12.5779 19.2781Z" fill="#F68D22"/>
<path d="M19.676 25.7801C16.4297 25.0037 13.3429 23.413 11.0246 21.0161C9.90688 19.8651 9.00043 18.5264 8.34667 17.0613C8.33033 17.0242 8.33671 17.0194 8.3666 17.0465C8.44153 17.1151 8.5037 17.198 8.57385 17.2705C9.02016 17.7295 9.50601 18.1483 10.0258 18.522C12.2397 20.1214 14.8949 21.0584 17.5764 21.5131C17.823 21.5549 18.0833 21.5874 18.3575 21.6108C19.718 21.726 21.0862 21.7152 22.4447 21.5785C23.4314 21.4746 24.4067 21.2815 25.3585 21.0018C25.8727 20.853 26.5175 20.7228 27.2931 20.6112C27.9908 20.5076 28.6982 20.487 29.4007 20.5498C29.8536 20.5878 30.2969 20.7014 30.7123 20.8858C31.4297 21.2102 31.9399 21.8184 31.9937 22.6131C32.1531 24.9594 29.3413 25.8673 27.5362 26.1627C26.7733 26.2884 26.0025 26.3603 25.2294 26.3779C23.3602 26.4186 21.4936 26.2177 19.676 25.7801Z" fill="white"/>
<circle cx="20" cy="20" r="19.5" stroke="black" stroke-opacity="0.05"/>
</svg>
