<svg width="40" height="40" viewBox="0 0 40 40" fill="none" xmlns="http://www.w3.org/2000/svg">
<circle cx="20" cy="20" r="20" fill="#E41736"/>
<g clip-path="url(#clip0_24563_41703)">
<path d="M13.4146 25.2992C18.0355 24.6114 22.4065 22.1598 26.1597 19.3404C28.5786 17.5222 30.8463 15.4928 32.9497 13.2659C32.9563 13.2591 32.9694 13.2523 32.9826 13.2659L33.0286 13.3067C33.0286 13.3067 33.0417 13.3272 33.0286 13.334C30.3336 17.1136 27.218 20.4505 23.6883 23.3311C23.6751 23.3447 23.6686 23.3584 23.6751 23.3788L26.0611 29.4057C26.0611 29.4057 26.0611 29.4602 26.0349 29.4738C26.0349 29.4738 26.0217 29.4738 26.0151 29.4738H23.616C23.616 29.4738 23.5568 29.4533 23.5437 29.4261L21.7492 24.8293C21.7492 24.8293 21.7229 24.8021 21.7032 24.8089C21.7032 24.8089 21.7032 24.8089 21.6966 24.8089C19.1266 26.5999 16.5499 27.9143 13.9799 28.7587C12.9939 29.0788 12.0277 29.3103 11.0746 29.4397C11.0549 29.4397 11.0417 29.4261 11.0352 29.4125C11.0352 29.4125 11.0352 29.3989 11.0352 29.3921L18.5153 10.501C18.5153 10.501 18.5482 10.4738 18.5679 10.4806C18.5744 10.4806 18.581 10.4942 18.5876 10.501L22.5446 20.4777C22.5577 20.5186 22.5446 20.5594 22.5183 20.5867C21.9136 21.0498 21.2957 21.4584 20.645 21.8125C20.6187 21.8261 20.5792 21.8125 20.5661 21.7921L18.6073 16.7731C18.5744 16.6845 18.535 16.6845 18.5021 16.7731L15.61 24.1688C15.5771 24.2573 15.5048 24.3322 15.4194 24.3731L13.4015 25.2447C13.2306 25.3197 13.2371 25.3401 13.4212 25.3128L13.4146 25.2992Z" fill="white"/>
</g>
<circle cx="20" cy="20" r="19.5" stroke="black" stroke-opacity="0.05"/>
<defs>
<clipPath id="clip0_24563_41703">
<rect width="22" height="19" fill="white" transform="translate(11.0352 10.4736)"/>
</clipPath>
</defs>
</svg>
