<svg width="40" height="40" viewBox="0 0 40 40" fill="none" xmlns="http://www.w3.org/2000/svg">
<circle cx="20" cy="20" r="20" fill="#EB2D2E"/>
<g clip-path="url(#clip0_18553_55922)">
<path d="M6 20.3241C6 20.3241 24.6396 27.9155 34 12V22.2C34 22.2 23.4763 34.1586 6 26.3328V20.3241Z" fill="white"/>
<path d="M6.21631 14.5498H6.9738L7.40665 16.7188L7.73128 14.5498H8.43467L8.78636 16.7188L9.21921 14.5498H9.97669L9.21921 18.1257H8.40761L8.11003 15.8688L7.81244 18.1257H7.00085L6.21631 14.5498Z" fill="#231F20"/>
<path d="M10.2202 15.3413H10.9236V18.1258H10.2202V15.3413Z" fill="#231F20"/>
<path d="M14.0078 15.3413H14.7112V16.3086H15.4957V15.3413H16.1991V18.1258H15.4957V16.8361H14.7112V18.1258H14.0078V15.3413Z" fill="#231F20"/>
<path d="M16.6318 15.3413H17.3352V18.1258H16.6318V15.3413Z" fill="#231F20"/>
<path d="M17.687 15.3413H19.8513V16.0448H19.1208V18.1551H18.4174V16.0448H17.687V15.3413Z" fill="#231F20"/>
<path d="M24.6665 15.3413H25.3699V16.3086H26.1544V15.3413H26.8578V18.1258H26.1544V16.8361H25.3699V18.1258H24.6665V15.3413Z" fill="#231F20"/>
<path d="M23.5303 17.481C23.395 17.481 23.2868 17.4223 23.2056 17.3051C23.1245 17.1879 23.0974 17.012 23.0974 16.7189C23.0974 16.4551 23.1245 16.3379 23.2056 16.2206C23.2868 16.0741 23.4221 15.9861 23.5844 15.9861H24.3148V15.3413H23.5573C23.1786 15.3413 22.9081 15.4585 22.6916 15.7223C22.5023 15.9568 22.394 16.2792 22.394 16.7482C22.394 17.0999 22.4481 17.393 22.5564 17.5982C22.6646 17.8327 22.7998 17.9206 22.9622 18.0085C23.1245 18.0965 23.3138 18.1551 23.5844 18.1551H24.3148V17.5103H23.5573L23.5303 17.481Z" fill="#231F20"/>
<path d="M13.1422 18.1258C13.4398 18.1258 13.5751 17.9206 13.5751 17.6568V15.3413H12.8988V16.8948L12.1683 15.5465C12.1683 15.5465 11.9519 15.3413 11.8166 15.3413C11.5191 15.3413 11.3838 15.5758 11.3838 15.8396V18.1551H12.0601V16.6017L12.7906 17.9499C12.7906 17.9499 13.007 18.1551 13.1422 18.1551V18.1258Z" fill="black"/>
<path d="M22.0968 15.3413H20.1489V17.6568C20.1489 17.9206 20.2842 18.1258 20.5818 18.1258H22.0968V17.481H20.8794V16.9827H22.0968V16.4551H20.8794V15.9861H22.0968V15.3413Z" fill="black"/>
</g>
<circle cx="20" cy="20" r="19.5" stroke="black" stroke-opacity="0.05"/>
<defs>
<clipPath id="clip0_18553_55922">
<rect width="28" height="17" fill="white" transform="translate(6 12)"/>
</clipPath>
</defs>
</svg>
