<svg width="40" height="40" viewBox="0 0 40 40" fill="none" xmlns="http://www.w3.org/2000/svg">
<circle cx="20" cy="20" r="20" fill="#106AB4"/>
<path d="M7.52252 20.6002C7.51949 20.6002 7.51783 20.6019 7.517 20.6047C7.49329 20.6993 7.46433 20.7928 7.43013 20.8852C7.22024 21.45 6.7238 21.7801 6.13635 21.8408C5.91902 21.8631 5.7141 21.875 5.52187 21.8761C5.02543 21.8789 4.5265 21.8791 4.0251 21.8769C4.01131 21.8769 4 21.8656 4 21.8518V18.1015C4.00028 18.0957 4.00303 18.0929 4.00883 18.0929C4.46527 18.0929 4.93579 18.0935 5.4201 18.0941C5.71548 18.0943 5.94494 18.104 6.10904 18.1227C6.86998 18.2102 7.33746 18.6197 7.51121 19.3509C7.51921 19.3848 7.52335 19.3845 7.52335 19.3495V18.1164C7.52335 18.1026 7.53024 18.0957 7.54376 18.0957C8.21616 18.0965 8.87284 18.0968 9.5138 18.0971C10.1931 18.0974 10.8385 18.3905 10.8517 19.1567C10.8572 19.4915 10.7684 19.8059 10.5039 20.0178C10.494 20.0258 10.494 20.0338 10.5039 20.0418C10.6956 20.1943 10.7662 20.4825 10.7836 20.7142C10.807 21.0266 10.8332 21.2702 10.8616 21.4442C10.8804 21.5578 10.9309 21.656 11.0133 21.7385C11.0279 21.7531 11.0354 21.7501 11.0354 21.7294V18.1078C11.0351 18.1015 11.0401 18.0965 11.0464 18.0965L14.1097 18.0982C14.1161 18.0982 14.121 18.1034 14.121 18.1098L14.1199 18.7281C14.1199 18.7386 14.1117 18.7469 14.1012 18.7469H11.7442C11.7345 18.7471 11.7299 18.7518 11.7299 18.7615V19.6046C11.7301 19.6195 11.7423 19.6316 11.7572 19.6316H13.9156C13.9252 19.6316 13.9302 19.6366 13.9302 19.6463L13.931 20.2732C13.931 20.2823 13.9236 20.2897 13.9145 20.2897L11.7445 20.2902C11.7343 20.2902 11.7293 20.2955 11.7293 20.3057L11.7301 21.2147C11.7301 21.2238 11.7376 21.2313 11.747 21.2313H14.0893C14.1042 21.2313 14.118 21.2227 14.1244 21.2092L15.5985 18.1112C15.6032 18.1018 15.6128 18.0957 15.6233 18.0957H16.2127C16.2265 18.0957 16.2364 18.1018 16.2422 18.1142L17.859 21.554C17.8725 21.5824 17.8791 21.581 17.8791 21.5496L17.8783 18.1095C17.8783 18.1021 17.8841 18.0963 17.8915 18.096H18.7095C18.7162 18.0957 18.7222 18.0996 18.725 18.1054L20.1125 20.9969C20.1197 21.0117 20.1269 21.0117 20.134 20.9969L21.5357 18.1172C21.5414 18.1048 21.5541 18.0971 21.5676 18.0971L28.961 18.0979C28.9732 18.0979 28.9792 18.104 28.9792 18.1161L28.9773 18.7356C28.9773 18.7419 28.9721 18.7471 28.9654 18.7471L26.59 18.7466C26.5842 18.7466 26.5814 18.7494 26.5814 18.7549L26.5809 19.6035C26.5809 19.619 26.5936 19.6316 26.609 19.6316H28.7666C28.7751 19.6314 28.7823 19.625 28.7834 19.6167C28.9026 18.7562 29.4859 18.1796 30.332 18.0392C30.9468 17.9374 31.6239 18.024 32.1074 18.409C32.4342 18.6694 32.5511 19.1253 32.5417 19.5453C32.5417 19.5555 32.5332 19.5638 32.523 19.5638L31.9046 19.5652C31.8909 19.5652 31.884 19.5583 31.8842 19.5448C31.8886 19.0348 31.5602 18.7427 31.0839 18.6917C30.8436 18.6661 30.6282 18.6705 30.4379 18.7052C29.9238 18.7995 29.5661 19.1636 29.4804 19.6758C29.3783 20.2836 29.5446 20.908 30.1257 21.1899C30.2606 21.2553 30.4264 21.2947 30.6236 21.3088C31.2645 21.3546 31.9369 20.9855 31.9697 20.2809C31.9703 20.2676 31.981 20.2574 31.9943 20.2574H32.5986C32.6195 20.2574 32.63 20.2472 32.63 20.2263L32.6294 18.1081C32.6294 18.1015 32.6347 18.0963 32.6413 18.0963L33.3041 18.0954C33.3112 18.0954 33.317 18.1012 33.317 18.1084V19.5078C33.317 19.5232 33.3297 19.5357 33.3451 19.5357L35.2893 19.5362C35.2975 19.5362 35.3042 19.5296 35.3042 19.5213L35.305 18.1219C35.305 18.1048 35.3135 18.0963 35.3304 18.0963H35.9801C35.9912 18.0963 36 18.1051 36 18.1161V21.8791C36 21.8869 35.9937 21.8932 35.9859 21.8932H35.3246C35.3138 21.8932 35.305 21.8841 35.305 21.8733L35.3044 20.2254C35.3044 20.2114 35.2973 20.2042 35.2832 20.2042L33.3305 20.205C33.3231 20.205 33.3173 20.2108 33.3173 20.2183V21.8797C33.3173 21.8874 33.3109 21.8935 33.3032 21.8935L32.6421 21.8929C32.635 21.8929 32.6292 21.8871 32.6292 21.88L32.6303 20.7288C32.6303 20.7015 32.6259 20.7006 32.6168 20.7263C32.3638 21.445 31.751 21.902 30.9939 21.969C30.8301 21.9834 30.6644 21.9839 30.497 21.9707C29.5656 21.8962 28.8725 21.2398 28.7765 20.3035C28.7757 20.2955 28.7691 20.2897 28.7613 20.2897H26.5966C26.5861 20.2897 26.5809 20.2952 26.5809 20.3054V21.2139C26.5809 21.2236 26.5886 21.2313 26.598 21.2313H28.9619C28.9707 21.2313 28.9778 21.2385 28.9778 21.2473L28.9792 21.8662C28.9792 21.8841 28.9701 21.8932 28.9522 21.8932H25.9123C25.901 21.8932 25.8919 21.8841 25.8919 21.8728V18.762C25.8916 18.7538 25.8848 18.7469 25.8765 18.7469H24.479C24.4691 18.7471 24.4641 18.7521 24.4641 18.7618V21.8656C24.4641 21.8838 24.455 21.8929 24.4365 21.8932H23.79C23.7727 21.8932 23.7641 21.8847 23.7641 21.8673L23.7633 18.7698C23.7633 18.7543 23.7556 18.7466 23.7401 18.7466L22.3479 18.7471C22.3432 18.7471 22.3393 18.7507 22.3393 18.7554V21.8772C22.3391 21.8866 22.3313 21.894 22.322 21.894L21.6705 21.8926C21.6664 21.8926 21.6628 21.8893 21.6628 21.8852L21.6727 19.3495C21.6727 19.3128 21.6653 19.3112 21.6496 19.344L20.4394 21.8744C20.4341 21.8858 20.4222 21.8932 20.4096 21.8932H19.8296C19.8171 21.8932 19.8061 21.8858 19.8006 21.8747C19.4018 21.0614 19.0088 20.2591 18.6216 19.4673C18.5992 19.4218 18.576 19.3771 18.552 19.3338C18.541 19.3139 18.5355 19.3153 18.5358 19.3382L18.5623 21.8653C18.5623 21.8838 18.5532 21.8932 18.5347 21.8932H17.2991C17.2919 21.8929 17.2856 21.8888 17.2828 21.8824L16.7966 20.8383C16.7916 20.8272 16.7806 20.8203 16.7687 20.8203H15.059C15.0483 20.8203 15.0408 20.8253 15.0361 20.835L14.5485 21.872C14.5425 21.8849 14.5295 21.8932 14.5152 21.8932H10.28C10.2656 21.8932 10.2529 21.8844 10.2477 21.8709C10.1821 21.699 10.1435 21.5123 10.1302 21.327C10.1172 21.145 10.1026 20.9582 10.0866 20.7668C10.0673 20.5363 9.98349 20.4452 9.75512 20.416C9.69362 20.408 9.63543 20.4039 9.58054 20.4036C9.11747 20.4017 8.66709 20.4014 8.2294 20.4028C8.21947 20.4028 8.2145 20.4077 8.2145 20.4179L8.2134 21.886C8.2134 21.8913 8.21092 21.8938 8.20595 21.8938L7.53576 21.8929C7.52886 21.8929 7.52335 21.8874 7.52335 21.8808C7.52362 21.4718 7.52335 21.0622 7.52169 20.6521C7.52169 20.6358 7.5228 20.6201 7.52583 20.6044C7.52638 20.6016 7.52528 20.6002 7.52252 20.6002ZM4.62055 18.7022V21.2484C4.62055 21.2608 4.63076 21.271 4.64317 21.271H5.8622C6.45821 21.271 6.94113 20.8049 6.94113 20.2301V19.7204C6.94113 19.1457 6.45821 18.6796 5.8622 18.6796H4.64317C4.63076 18.6796 4.62055 18.6898 4.62055 18.7022ZM8.15383 18.7036L8.15548 19.7886C8.15548 19.7952 8.161 19.8004 8.16762 19.8002L9.6084 19.7977C9.94598 19.7971 10.2196 19.5859 10.219 19.3258L10.2185 19.1586C10.2179 18.8986 9.94377 18.6884 9.60619 18.689L8.16541 18.6914C8.15879 18.6914 8.15355 18.697 8.15383 18.7036ZM15.3635 20.1347C15.361 20.1405 15.3635 20.1471 15.369 20.1496C15.3704 20.1501 15.3721 20.1507 15.3737 20.1507H16.4565C16.4629 20.1507 16.4678 20.1455 16.4678 20.1394C16.4678 20.1377 16.4676 20.1364 16.4667 20.1347L15.9253 18.9672C15.9226 18.9617 15.9159 18.9592 15.9102 18.962C15.908 18.9631 15.906 18.965 15.9049 18.9672L15.3635 20.1347Z" fill="white"/>
<circle cx="20" cy="20" r="19.5" stroke="black" stroke-opacity="0.05"/>
</svg>
