<svg width="40" height="40" viewBox="0 0 40 40" fill="none" xmlns="http://www.w3.org/2000/svg">
<circle cx="20" cy="20" r="20" fill="#E41D25"/>
<path d="M14.0901 15.1298C14.5814 12.3295 17.0382 10.2056 20 10.2056C23.3098 10.2056 25.9986 12.8706 25.9986 16.1511C25.9986 17.1793 25.7324 18.1398 25.2752 18.9853C25.671 19.3235 26.0259 19.6955 26.3534 20.0946C27.0768 18.9514 27.4999 17.5986 27.4999 16.1444C27.4999 12.3024 24.5586 9.14365 20.7916 8.75134V7.89231L20.7643 7.75703L20.7438 7.70292L20.4231 7.5H19.4335L19.2425 7.52706L18.7852 7.81114L18.7716 7.85849L18.8125 7.91937L19.1469 8.18993L19.2083 8.39285V8.7581C15.4345 9.15041 12.5 12.3092 12.5 16.1511C12.5 16.557 12.5341 16.9628 12.5955 17.3551C12.9641 16.5299 13.4691 15.7791 14.0901 15.1298Z" fill="white"/>
<path d="M20 28.0354C22.095 28.0354 23.9854 27.1831 25.3434 25.8168C25.3776 25.5733 25.398 25.323 25.398 25.066C25.398 24.5519 25.323 24.0581 25.1865 23.5914C24.1492 25.3636 22.2111 26.554 20 26.554C16.6902 26.554 14.0014 23.889 14.0014 20.6085C14.0014 17.328 16.6902 14.6629 20 14.6629C22.2179 14.6629 24.1492 15.8534 25.1865 17.6256C25.323 17.1589 25.398 16.6583 25.398 16.151C25.398 15.894 25.3776 15.6437 25.3434 15.4002C24.156 14.203 22.5659 13.4048 20.7916 13.2222V12.3564L20.7711 12.2211L20.7506 12.167L20.4299 11.9641H20.4026H20.3753H19.4404L19.2493 11.9912L18.7921 12.2753L18.7784 12.3226L18.8194 12.3835L19.1537 12.654L19.2152 12.857V12.9314V12.9449V13.2154C15.4413 13.6078 12.5 16.7665 12.5 20.6085C12.5 24.7142 15.8576 28.0421 20 28.0421" fill="white"/>
<path d="M26.729 20.6085C26.9883 20.9873 27.2067 21.3864 27.3978 21.8125C27.466 21.4202 27.5002 21.0211 27.5002 20.6085C27.5002 20.1959 27.466 19.7969 27.3978 19.4045C27.2067 19.8239 26.9883 20.2297 26.729 20.6085Z" fill="white"/>
<path d="M20.0001 23.5786C21.6857 23.5786 23.2349 23.0308 24.4905 22.0973C24.2107 21.678 23.8695 21.3059 23.4874 20.9813C22.5047 21.678 21.3036 22.0906 20.0001 22.0906C17.7822 22.0906 15.8509 20.9001 14.8136 19.1279C14.6771 19.5946 14.6021 20.0952 14.6021 20.6025C14.6021 20.8595 14.6225 21.1098 14.6566 21.3533C16.0147 22.7196 17.905 23.5719 20.0001 23.5719" fill="white"/>
<path d="M20.7916 17.6732V16.8074L20.7711 16.6789L20.7506 16.6248L20.4299 16.4219H19.4404L19.2493 16.4489L18.7921 16.733L18.7784 16.7804L18.8194 16.8412L19.1537 17.1118L19.2152 17.3147V17.6732C17.8366 17.8153 16.5741 18.3293 15.5164 19.1072C15.7962 19.5265 16.1374 19.8986 16.5195 20.2232C17.5023 19.5265 18.7033 19.1139 20.0068 19.1139C23.3166 19.1139 26.0054 21.779 26.0054 25.0595C26.0054 28.34 23.3166 31.005 20.0068 31.005C17.045 31.005 14.5883 28.8811 14.0969 26.0809C13.4827 25.4315 12.9777 24.6807 12.6092 23.8555C12.5341 24.2546 12.5 24.6604 12.5 25.0663C12.5 29.172 15.8576 32.4999 20 32.4999C24.1424 32.4999 27.4999 29.172 27.4999 25.0663C27.4999 21.2243 24.5655 18.0723 20.7916 17.68" fill="white"/>
<circle cx="20" cy="20" r="19.5" stroke="black" stroke-opacity="0.05"/>
</svg>
