<svg width="40" height="40" viewBox="0 0 40 40" fill="none" xmlns="http://www.w3.org/2000/svg">
<circle cx="20" cy="20" r="20" fill="#FF5F00"/>
<path d="M4.55103 18.1006H6.10574C7.28059 18.1006 8.24914 18.9333 8.24914 20C8.24914 21.0666 7.27555 21.8993 6.10574 21.8993H4.55103V18.1006ZM5.64537 21.0641H5.89191C6.54599 21.0641 7.10448 20.7421 7.10448 20C7.10448 19.3207 6.60637 18.9383 5.90197 18.9383H5.64285V21.0641H5.64537Z" fill="white"/>
<path d="M9.62754 18.9383V19.5723H10.8653V20.4075H9.62754V21.0641H10.9307V21.8993H8.5332V18.1006H10.9307V18.9383H9.62754Z" fill="white"/>
<path d="M13.1522 20.4075L14.1761 18.1006H15.366L13.5647 21.8993H12.7169L10.9434 18.1006H12.1333L13.1522 20.4075Z" fill="white"/>
<path d="M17.731 19.0792C17.5297 18.9283 17.2731 18.8277 17.004 18.8277C16.8027 18.8277 16.5335 18.9333 16.5335 19.1447C16.5335 19.366 16.8304 19.4516 17.0216 19.5069L17.3008 19.5824C17.8895 19.7384 18.3423 20.005 18.3423 20.6189C18.3423 20.9962 18.2417 21.3836 17.9046 21.6428C17.575 21.8943 17.1323 22 16.7071 22C16.1763 22 15.6555 21.839 15.2253 21.5673L15.6933 20.7698C15.97 20.9862 16.292 21.1623 16.6669 21.1623C16.9235 21.1623 17.1977 21.0465 17.1977 20.7799C17.1977 20.5132 16.765 20.4075 16.531 20.3472C15.8442 20.1711 15.3889 20.0101 15.3889 19.2755C15.3889 18.5031 16.0002 18 16.843 18C17.2681 18 17.7889 18.1208 18.1637 18.3145L17.726 19.0792H17.731Z" fill="white"/>
<path d="M19.7336 18.1006H18.6367V21.8993H19.7336V18.1006Z" fill="white"/>
<path d="M22.5409 19.0792C22.3396 18.9283 22.0805 18.8277 21.8138 18.8277C21.6101 18.8277 21.3434 18.9333 21.3434 19.1447C21.3434 19.366 21.6403 19.4516 21.8289 19.5069L22.1082 19.5824C22.6944 19.7384 23.1472 20.005 23.1472 20.6189C23.1472 20.9962 23.0466 21.3836 22.7094 21.6428C22.3799 21.8943 21.9396 22 21.5145 22C20.9837 22 20.4629 21.839 20.0327 21.5673L20.5032 20.7698C20.7774 20.9862 21.1019 21.1623 21.4767 21.1623C21.7333 21.1623 22.0076 21.0465 22.0076 20.7799C22.0076 20.5132 21.5774 20.4075 21.3434 20.3472C20.6566 20.1711 20.2013 20.0101 20.2013 19.2755C20.2013 18.5031 20.8101 18 21.6554 18C22.0805 18 22.6013 18.1208 22.9761 18.3145L22.5384 19.0792H22.5409Z" fill="white"/>
<path d="M25.1246 21.8993H24.0277V18.9383H23.1221V18.1006H26.0302V18.9383H25.1246V21.8993Z" fill="white"/>
<path d="M27.3007 18.9383V19.5723H28.5359V20.4075H27.3007V21.0641H28.6039V21.8993H26.2039V18.1006H28.6039V18.9383H27.3007Z" fill="white"/>
<path d="M32.5611 21.8993H31.1976L30.1611 20.4402H30.1511V21.8993H29.0542V18.1006H30.6919C31.5246 18.1006 32.1586 18.4603 32.1586 19.2704C32.1586 19.7962 31.8316 20.2465 31.2353 20.3421L32.5611 21.8968V21.8993ZM30.1511 19.8062H30.2567C30.6165 19.8062 31.019 19.7459 31.019 19.3308C31.019 18.9157 30.6165 18.8578 30.2567 18.8578H30.1511V19.8062Z" fill="white"/>
<path d="M34.8379 19.0792C34.6366 18.9283 34.38 18.8277 34.1108 18.8277C33.907 18.8277 33.6429 18.9333 33.6429 19.1447C33.6429 19.366 33.9372 19.4516 34.1284 19.5069L34.4077 19.5824C34.9938 19.7384 35.4492 20.005 35.4492 20.6189C35.4492 20.9962 35.3486 21.3836 35.0114 21.6428C34.6819 21.8943 34.2391 22 33.8165 22C33.2857 22 32.7649 21.839 32.3347 21.5673L32.8052 20.7698C33.0819 20.9862 33.4039 21.1623 33.7787 21.1623C34.0353 21.1623 34.3096 21.0465 34.3096 20.7799C34.3096 20.5132 33.8794 20.4075 33.6454 20.3472C32.9561 20.1711 32.5033 20.0101 32.5033 19.2755C32.5033 18.5031 33.1121 18 33.9574 18C34.3825 18 34.9008 18.1208 35.2781 18.3145L34.8404 19.0792H34.8379Z" fill="white"/>
<circle cx="20" cy="20" r="19.5" stroke="black" stroke-opacity="0.05"/>
</svg>
