<svg width="40" height="40" viewBox="0 0 40 40" fill="none" xmlns="http://www.w3.org/2000/svg">
<circle cx="20" cy="20" r="20" fill="#002D5D"/>
<path d="M31.9956 16.0819C31.9956 18.3375 30.1619 20.1638 27.8973 20.1638C25.6326 20.1638 23.8027 18.3375 23.8027 16.0819C23.8027 13.8263 25.6364 12 27.8973 12C30.1581 12 31.9956 13.8263 31.9956 16.0819Z" fill="#8A2432"/>
<path d="M12.7032 21.5383C12.7032 24.7541 11.9584 27.9887 8 27.9887L8.00756 18.4806C8.00756 15.2686 8.74858 12.0339 12.7108 12.0339V21.5421L12.7032 21.5383Z" fill="white"/>
<path d="M17.9884 18.4844C17.9884 15.2686 17.2473 12.0339 13.2852 12.0339L13.2927 21.5421C13.2927 24.7579 14.0337 27.9925 17.9922 27.9925L17.9846 18.4844H17.9884Z" fill="white"/>
<path d="M31.9995 28C31.973 24.9498 31.6138 21.7566 28.0826 21.0524C24.7896 20.3935 23.9427 18.9701 23.8066 18.1228V21.5344C23.8066 24.7389 24.5363 28 28.5174 28H31.9995Z" fill="white"/>
<path d="M23.2776 12.0339C19.3191 12.0339 18.5781 15.2723 18.5781 18.4844V27.9925C22.5365 27.9925 23.27 24.7579 23.27 21.5421L23.2776 12.0339Z" fill="white"/>
<circle cx="20" cy="20" r="19.5" stroke="black" stroke-opacity="0.05"/>
</svg>
