<svg width="40" height="40" viewBox="0 0 40 40" fill="none" xmlns="http://www.w3.org/2000/svg">
<circle cx="20" cy="20" r="20" fill="#F6F8FA"/>
<g clip-path="url(#clip0_14382_19579)">
<path d="M11.1049 11.0066C12.2188 11.6141 13.2967 12.1225 14.3353 12.5319C19.4332 14.5426 24.2461 13.6313 28.8985 11.0099C28.9247 10.9967 28.9607 11.0066 28.9738 11.033C28.9771 11.0396 28.9804 11.0495 28.9804 11.0561L28.9935 13.3936C28.9935 13.4431 28.9607 13.4894 28.9149 13.5059C22.9389 15.7674 16.9924 15.7542 11.0721 13.4696C11.0295 13.453 11.0066 13.4233 11.0066 13.3771L11.0131 11.0594C11.0131 11.0264 11.0426 11 11.0787 11C11.0885 11 11.0983 11 11.1049 11.0066Z" fill="#008CD5"/>
<path d="M28.9901 16.5598C28.9901 16.6093 28.9541 16.6555 28.9049 16.6621C23.0273 17.5932 17.0939 17.5932 11.1048 16.6654C11.0589 16.6588 11.0229 16.6192 11.0229 16.5763C10.9868 15.7575 10.9934 14.9585 11.0393 14.1761C11.0393 14.1629 11.0524 14.1497 11.0655 14.1497C11.0655 14.1497 11.072 14.1497 11.0753 14.1497C16.9792 16.3023 22.9191 16.3056 28.8984 14.1629C28.9344 14.1497 28.977 14.1662 28.9901 14.2025C28.9934 14.2124 28.9967 14.2223 28.9967 14.2322L28.9901 16.5565V16.5598Z" fill="#008CD5"/>
<path d="M28.9967 17.5568V19.4123C28.9999 19.5477 28.8918 19.6566 28.7608 19.6566H11.1212C11.0458 19.6533 11.0098 19.617 11.0098 19.5411V17.3719C11.0098 17.3257 11.0294 17.3059 11.0753 17.3125C17.048 18.2303 22.9388 18.2402 28.7477 17.3422C28.9148 17.3191 28.9967 17.3885 28.9967 17.5568Z" fill="#008CD5"/>
<path d="M11.1049 22.6281C11.0525 22.6347 11.0262 22.6115 11.0262 22.5587L11.0066 20.383C11.0066 20.3269 11.0328 20.3005 11.0885 20.3005H28.9443C28.9771 20.2972 28.9935 20.3137 28.9935 20.3467V22.5719C28.9935 22.6082 28.964 22.638 28.928 22.638C28.9247 22.638 28.9214 22.638 28.9181 22.638C23.011 21.7168 17.071 21.7135 11.1049 22.6281Z" fill="#004A94"/>
<path d="M28.869 25.7316C22.6702 23.6615 16.7467 23.678 11.1016 25.7844C11.0656 25.7943 11.0295 25.7778 11.0197 25.7448C11.0197 25.7382 11.0197 25.7316 11.0197 25.725L11.0066 23.3677C11.0066 23.3214 11.0394 23.2818 11.0852 23.2752C16.9531 22.3607 22.8963 22.3574 28.9214 23.262C28.9771 23.2719 29.0033 23.3016 29.0033 23.3578L28.9968 25.6424C28.9968 25.7283 28.9542 25.758 28.8723 25.7316H28.869Z" fill="#004A94"/>
<path d="M28.9018 28.9834C24.5869 26.5435 20.5341 25.7875 16.7434 26.7152C14.794 27.1906 12.9495 27.9302 11.213 28.9339C11.1475 28.9702 11.0656 28.9471 11.0296 28.881C11.0197 28.8612 11.0132 28.8414 11.0132 28.8183V26.702C11.0132 26.5468 11.0885 26.4412 11.236 26.3851C17.2218 24.1928 23.1158 24.216 28.9182 26.4544C28.9706 26.4742 28.9968 26.5105 28.9968 26.5667L28.987 28.9339C28.987 28.9966 28.9575 29.0131 28.9018 28.9834Z" fill="#004A94"/>
</g>
<circle cx="20" cy="20" r="19.5" stroke="black" stroke-opacity="0.05"/>
<defs>
<clipPath id="clip0_14382_19579">
<rect width="18" height="18" fill="white" transform="translate(11 11)"/>
</clipPath>
</defs>
</svg>
