<svg width="40" height="40" viewBox="0 0 40 40" fill="none" xmlns="http://www.w3.org/2000/svg">
<circle cx="20" cy="20" r="20" fill="#D41F26"/>
<g clip-path="url(#clip0_22307_36521)">
<path d="M9.61436 19.7508C9.61436 19.7508 9.63743 19.8084 9.67204 19.8084C9.67204 19.8084 9.69511 19.8084 9.70664 19.8084C10.5718 19.2668 11.3563 19.2553 12.06 19.7739C13.179 20.5806 13.1328 22.2402 11.9677 22.9893C10.9525 23.6347 9.54514 23.2083 9.09524 22.0558C8.99142 21.7907 8.94527 21.4565 8.95681 21.0301C8.96834 20.0044 8.97988 18.9902 8.95681 17.9645C8.95681 17.8608 9.03756 17.7801 9.14138 17.7686H9.47592C9.59128 17.7686 9.64896 17.8262 9.64896 17.9414L9.62589 19.7508H9.61436ZM12.2215 21.3297C12.2215 20.6267 11.6447 20.0505 10.941 20.0505C10.2373 20.0505 9.6605 20.6267 9.6605 21.3297C9.6605 22.0327 10.2373 22.609 10.941 22.609C11.6447 22.609 12.2215 22.0327 12.2215 21.3297Z" fill="white"/>
<path d="M26.3876 19.7624C27.3335 19.1171 28.4987 19.313 29.1562 20.235C29.8945 21.2837 29.4331 22.7013 28.2449 23.1392C26.9067 23.6348 25.5916 22.6552 25.5801 21.2376C25.5801 20.1428 25.5801 19.0479 25.5801 17.93C25.5801 17.8148 25.6378 17.7456 25.7647 17.7456H26.0877C26.1799 17.7456 26.2607 17.8148 26.2607 17.9185V19.6818C26.2607 19.7855 26.2953 19.8085 26.3876 19.7509V19.7624ZM28.8332 21.3298C28.8332 20.6268 28.2564 20.0506 27.5527 20.0506C26.849 20.0506 26.2722 20.6268 26.2722 21.3298C26.2722 22.0328 26.849 22.6091 27.5527 22.6091C28.2564 22.6091 28.8332 22.0328 28.8332 21.3298Z" fill="white"/>
<path d="M30.3903 19.1631C30.6069 19.1631 30.7825 18.9876 30.7825 18.7712C30.7825 18.5548 30.6069 18.3794 30.3903 18.3794C30.1737 18.3794 29.998 18.5548 29.998 18.7712C29.998 18.9876 30.1737 19.1631 30.3903 19.1631Z" fill="white"/>
<path d="M7.88392 22.9895C7.88392 22.8973 7.82624 22.8742 7.74549 22.9203C6.60343 23.6695 5.35755 23.22 4.75769 22.0099C4.30779 21.1109 4.90765 20.0622 5.68056 19.6242C6.63804 19.0711 7.84931 19.4744 8.3569 20.431C8.69144 21.0533 8.55301 22.3672 8.58761 23.1278C8.58761 23.2085 8.55301 23.2546 8.48379 23.2776C8.3569 23.3237 8.21846 23.3237 8.0685 23.3007C7.98775 23.2891 7.9416 23.2315 7.93007 23.1508L7.90699 22.9664L7.88392 22.9895ZM7.89546 21.3299C7.89546 20.6154 7.31866 20.0507 6.61497 20.0507C5.89974 20.0507 5.33448 20.6269 5.33448 21.3299C5.33448 22.0445 5.91128 22.6092 6.61497 22.6092C7.3302 22.6092 7.89546 22.0329 7.89546 21.3299Z" fill="white"/>
<path d="M13.9749 22.9549V24.7988C13.9749 24.8795 13.9403 24.9256 13.8596 24.9371L13.4673 24.9717C13.3751 24.9717 13.3289 24.9371 13.3289 24.8449C13.3289 23.8308 13.3289 22.7589 13.3174 21.6295C13.3174 20.7767 13.5827 19.9815 14.3902 19.6011C16.5821 18.5293 18.3817 21.5834 16.3513 22.9549C15.6476 23.4274 14.8978 23.4159 14.1018 22.8972C14.0672 22.8742 14.0326 22.8857 14.0095 22.9203C14.0095 22.9318 13.998 22.9433 14.0095 22.9549H13.9749ZM16.5474 21.3299C16.5474 20.6153 15.9706 20.0506 15.267 20.0506C14.5517 20.0506 13.9865 20.6269 13.9865 21.3299C13.9865 22.0444 14.5633 22.6091 15.267 22.6091C15.9822 22.6091 16.5474 22.0329 16.5474 21.3299Z" fill="white"/>
<path d="M19.7662 20.0622C18.9356 20.0622 18.3357 20.5463 18.3127 21.3991C18.3127 22.0099 18.3127 22.5977 18.3357 23.1509C18.3357 23.2776 18.2781 23.3353 18.1627 23.3237L17.8282 23.3007C17.7013 23.3007 17.6436 23.2315 17.6436 23.1048C17.7013 21.572 17.286 19.8893 19.3048 19.4168C19.4663 19.3823 19.6162 19.3707 19.7662 19.3823C19.8931 19.3823 19.9508 19.4629 19.9508 19.5897V19.8778C19.9508 20.0046 19.8931 20.0622 19.7662 20.0622Z" fill="white"/>
<path d="M23.8269 21.3295C23.8269 22.4013 22.9501 23.2772 21.8773 23.2772C20.8045 23.2772 19.9277 22.4013 19.9277 21.3295C19.9277 20.2577 20.8045 19.3818 21.8773 19.3818C22.9501 19.3818 23.8269 20.2577 23.8269 21.3295ZM23.1578 21.3295C23.1578 20.6265 22.581 20.0503 21.8773 20.0503C21.1736 20.0503 20.5968 20.6265 20.5968 21.3295C20.5968 22.0325 21.1736 22.6088 21.8773 22.6088C22.581 22.6088 23.1578 22.0325 23.1578 21.3295Z" fill="white"/>
<path d="M34.578 22.7937C33.8858 23.4852 32.7668 23.4967 32.0747 22.8052L31.8555 22.5978C31.1633 21.9063 31.1518 20.7884 31.844 20.0969L32.0631 19.8779C32.7553 19.1864 33.8743 19.1749 34.5664 19.8664L34.7856 20.0739C35.4778 20.7653 35.4893 21.8833 34.7971 22.5747L34.578 22.7937ZM34.601 21.3301C34.601 20.6155 34.0242 20.0508 33.3206 20.0508C32.6053 20.0508 32.0401 20.627 32.0401 21.3301C32.0401 22.0331 32.6169 22.6093 33.3206 22.6093C34.0242 22.6093 34.601 22.0331 34.601 21.3301Z" fill="white"/>
<path d="M30.5959 19.4131L30.1806 19.4138C30.1105 19.414 30.0538 19.4708 30.0539 19.5408L30.0603 23.1942C30.0604 23.2642 30.1173 23.3209 30.1874 23.3208L30.6027 23.32C30.6728 23.3199 30.7295 23.263 30.7294 23.193L30.723 19.5397C30.7229 19.4697 30.666 19.413 30.5959 19.4131Z" fill="white"/>
</g>
<circle cx="20" cy="20" r="19.5" stroke="black" stroke-opacity="0.05"/>
<defs>
<clipPath id="clip0_22307_36521">
<rect width="32" height="8" fill="white" transform="translate(4.03516 17)"/>
</clipPath>
</defs>
</svg>
