<svg width="40" height="40" viewBox="0 0 40 40" fill="none" xmlns="http://www.w3.org/2000/svg">
<circle cx="20" cy="20" r="20" fill="#EFF3FB"/>
<circle cx="20" cy="20" r="19.5" stroke="black" stroke-opacity="0.05"/>
<g clip-path="url(#clip0_14382_20460)">
<path d="M21.337 12.1647C21.7138 11.0385 22.3505 10.1036 23.3838 9.48749C24.5101 8.81527 25.6446 8.81937 26.7059 9.61332C30.2523 12.2694 31.8005 15.8308 31.4094 20.228C31.1659 22.9634 30.1709 25.4108 28.2507 27.3947C25.1686 30.578 21.428 31.7029 17.1266 30.567C13.28 29.5481 10.4331 27.2107 8.96488 23.4824C7.41529 19.5496 7.68199 15.7009 10.1274 12.1381C10.8851 11.0357 11.8842 10.1734 13.0454 9.50459C14.4254 8.70928 15.9606 8.90212 17.0623 10.0626C18.2871 11.3517 18.5825 12.8664 18.0272 14.5486C18.0498 14.9925 17.7489 15.3043 17.5731 15.6681C17.3352 16.0476 17.0842 16.4203 16.8141 16.778C16.5822 17.0925 16.3484 17.4057 16.1241 17.7258C15.9613 17.9549 15.804 18.1874 15.655 18.4254C15.5182 18.6722 15.3609 18.9082 15.2446 19.1673C15.1669 19.3461 15.0984 19.5287 15.0395 19.7144C14.939 20.029 14.8152 20.3367 14.7981 20.6718C14.7508 20.8865 14.7326 21.1066 14.7441 21.3262C14.7516 21.584 14.703 21.8439 14.7707 22.099C14.7853 22.1506 14.7944 22.2035 14.7981 22.2569C14.809 22.3903 14.7871 22.5271 14.833 22.6577C14.8458 22.7045 14.8545 22.7523 14.8589 22.8006C14.8644 22.8471 14.8665 22.8936 14.8706 22.9374C14.8761 22.9979 14.8885 23.0575 14.9075 23.1152C14.9342 23.2177 14.9581 23.3203 14.9923 23.4229C15.0333 23.5713 15.0894 23.7149 15.1345 23.8626L15.192 24.0356C15.2248 24.1512 15.2829 24.2572 15.324 24.3693C15.3647 24.4942 15.4257 24.6116 15.5045 24.7167C15.5551 24.805 15.5961 24.8993 15.6467 24.9903C15.7137 25.101 15.7882 25.207 15.8697 25.3076C15.9517 25.4259 16.0441 25.5374 16.1275 25.6543C16.2123 25.7544 16.3037 25.8488 16.401 25.9367C16.4917 26.035 16.5939 26.122 16.7053 26.1959C16.7894 26.2574 16.8599 26.3327 16.9433 26.3969C17.05 26.477 17.1731 26.5296 17.2852 26.6021C17.4537 26.703 17.6284 26.793 17.8084 26.8715C17.9174 26.9287 18.0319 26.9745 18.1503 27.0083C18.302 27.0639 18.458 27.1072 18.6167 27.1375C18.7295 27.1793 18.8519 27.1752 18.9675 27.2059C19.1227 27.2634 19.2903 27.2299 19.4462 27.2695C19.7033 27.3502 19.9666 27.2805 20.2258 27.3017C20.5574 27.3345 20.8734 27.2333 21.1955 27.1854C22.4531 26.9119 23.3373 26.1692 23.9165 25.0381C24.1093 24.7646 24.2099 24.4548 24.3268 24.1491C24.4145 23.9314 24.4813 23.7059 24.5265 23.4756C24.5689 23.2704 24.6393 23.0721 24.6591 22.8601C24.6742 22.6761 24.7275 22.4977 24.7275 22.313C24.8116 21.8183 24.8219 21.3138 24.7583 20.8161C24.7166 20.6793 24.7344 20.5268 24.6899 20.3866C24.6635 20.2025 24.62 20.0211 24.56 19.845C24.5155 19.7083 24.4772 19.5674 24.4266 19.4347C24.3923 19.3166 24.3465 19.2021 24.2899 19.0928C24.2454 18.9977 24.201 18.9034 24.1531 18.811C24.094 18.6771 24.0254 18.5475 23.948 18.4233C23.8864 18.3248 23.8208 18.2291 23.7551 18.1334C23.7052 18.0472 23.6655 17.9549 23.6074 17.8728C23.5482 17.7772 23.4824 17.6858 23.4104 17.5993C23.3571 17.5309 23.3133 17.4625 23.2634 17.3893C23.2012 17.2937 23.1327 17.2023 23.0583 17.1158C22.9967 17.0365 22.9427 16.9517 22.8798 16.8737C22.8451 16.8302 22.8134 16.7845 22.7847 16.7369C22.7622 16.7034 22.741 16.6686 22.7163 16.635C22.6917 16.6015 22.6541 16.5462 22.624 16.5017C22.5939 16.4573 22.5556 16.4149 22.5228 16.3731C22.4865 16.3298 22.4532 16.2841 22.423 16.2364C22.3833 16.1762 22.3389 16.1194 22.2978 16.0599C22.2329 15.9601 22.1686 15.8603 22.1009 15.7625C22.051 15.6872 22.0038 15.6106 21.9511 15.5375C21.8695 15.4264 21.7974 15.3086 21.7357 15.1853C21.6615 14.9973 21.5747 14.8145 21.4758 14.6382C21.4227 14.5223 21.377 14.403 21.3391 14.2812C21.3076 14.1725 21.2857 14.0617 21.2543 13.9523C21.2351 13.873 21.2146 13.7937 21.1948 13.7137C21.1476 13.5352 21.1948 13.3478 21.1414 13.1666C21.1256 13.1017 21.121 13.0347 21.1278 12.9683C21.131 12.9355 21.1369 12.903 21.1456 12.8712C21.1719 12.7592 21.1795 12.6437 21.1681 12.5292C21.1777 12.387 21.1955 12.2489 21.337 12.1647Z" fill="#D60004"/>
<path d="M17.5027 15.6525L18.0299 14.5528C18.4601 14.5597 18.657 14.1856 18.9442 13.9716C19.7026 13.4067 20.4336 12.809 21.1777 12.2216C21.2276 12.1956 21.2814 12.1779 21.337 12.1689L21.259 12.5793C21.2078 12.6907 21.2693 12.8172 21.2119 12.928L21.216 12.9246C20.5184 13.5401 19.7642 14.0871 19.0413 14.6698C18.6618 14.9768 18.2713 15.2688 17.8897 15.5731C17.7776 15.6613 17.6634 15.7831 17.5027 15.6525Z" fill="#E8F2FA"/>
<path d="M14.7173 20.6442C14.7385 20.3056 14.8249 19.9742 14.9717 19.6684C15.6823 19.1979 16.3223 18.6351 16.9911 18.1106C18.1345 17.2124 19.277 16.3132 20.4186 15.4128C20.6859 15.2022 20.939 14.9731 21.2207 14.7795C21.3219 14.7112 21.4101 14.6113 21.5496 14.6216C21.6634 14.7921 21.7512 14.9785 21.8102 15.1748C19.5708 16.9332 17.3342 18.6948 15.1003 20.4596C14.9895 20.5437 14.8904 20.675 14.7173 20.6442Z" fill="#B8E9F9"/>
<path d="M16.9092 26.4495C16.8106 26.4143 16.7262 26.348 16.6685 26.2607C16.6801 26.0617 16.8401 25.9756 16.9707 25.8716C18.5358 24.6275 20.1052 23.3886 21.679 22.1549C22.5358 21.4806 23.3886 20.8016 24.2489 20.1307C24.3856 20.0261 24.48 19.8804 24.6332 19.7991C24.7225 19.9676 24.7695 20.1554 24.77 20.3461C24.8062 20.4774 24.7016 20.526 24.6243 20.5862C22.1802 22.5057 19.7471 24.4396 17.2996 26.3537C17.1841 26.4447 17.0712 26.5589 16.9092 26.4495Z" fill="#0099D9"/>
<path d="M14.7174 20.6445C16.4448 19.2877 18.1724 17.9305 19.9003 16.5729C20.4697 16.1243 21.0368 15.6727 21.6017 15.2182C21.6701 15.1635 21.7262 15.1218 21.8103 15.1751C21.8896 15.2845 22.0011 15.3734 22.0236 15.517C21.6694 15.9048 21.2352 16.2009 20.8255 16.5182C18.8116 18.091 16.8155 19.6878 14.8077 21.2661C14.789 21.2871 14.7657 21.3034 14.7395 21.3137C14.7134 21.3241 14.6852 21.3281 14.6572 21.3256C14.6531 21.0945 14.6032 20.8606 14.7174 20.6445Z" fill="#9BE4F8"/>
<path d="M16.3443 25.9784C16.2332 25.9117 16.1431 25.815 16.0844 25.6994C16.1042 25.5442 16.2328 25.4778 16.3381 25.3944C18.893 23.3566 21.467 21.3467 24.0321 19.3198C24.1387 19.2357 24.2256 19.1256 24.3514 19.0654C24.4316 19.1589 24.4796 19.2756 24.4882 19.3985C24.5846 19.6228 24.4314 19.7301 24.283 19.8457C22.4941 21.2517 20.7072 22.6602 18.9224 24.0712C18.1982 24.6415 17.4795 25.2173 16.7505 25.7808C16.6356 25.8717 16.533 26.0201 16.3443 25.9784Z" fill="#00A3E1"/>
<path d="M24.3514 19.0642C24.3028 19.3527 24.0266 19.4348 23.8426 19.5825C22.4838 20.6767 21.1072 21.7448 19.7395 22.8226L16.0844 25.6981C15.9691 25.6057 15.8757 25.489 15.8109 25.3562C16.2389 24.9124 16.7539 24.5746 17.2333 24.1937C19.4216 22.454 21.6256 20.73 23.8194 18.9965C23.9349 18.9055 24.0245 18.7387 24.2194 18.7913C24.2954 18.863 24.3423 18.9601 24.3514 19.0642Z" fill="#00A8E4"/>
<path d="M15.0648 23.9222C14.9895 23.7723 14.9412 23.6102 14.9219 23.4436C16.055 22.5122 17.2127 21.6115 18.3664 20.7082C19.5016 19.8192 20.6313 18.9165 21.7678 18.0261C22.0988 17.7669 22.4428 17.5235 22.7533 17.2383C22.801 17.1889 22.8582 17.1496 22.9214 17.1226C22.9845 17.0955 23.0525 17.0814 23.1212 17.0811C23.2123 17.1547 23.2829 17.2506 23.3263 17.3594C23.3674 17.5344 23.2224 17.596 23.1212 17.676C21.2748 19.1483 19.412 20.6015 17.5608 22.069C16.8852 22.6052 16.2013 23.1324 15.5278 23.6713C15.3896 23.78 15.2713 23.9352 15.0648 23.9222Z" fill="#00C5F2"/>
<path d="M17.7776 26.936C17.578 26.889 17.3923 26.7953 17.236 26.6624C18.6721 25.5737 20.0754 24.4351 21.4957 23.3225C22.4791 22.5518 23.4563 21.7743 24.4417 21.007C24.5566 20.9181 24.6674 20.7253 24.8595 20.899C24.8595 21.0713 24.8595 21.2409 24.8595 21.4139C24.8288 21.5575 24.6879 21.5856 24.5935 21.6601C22.4353 23.3615 20.2778 25.0641 18.1209 26.7677C18.0197 26.845 17.9431 26.9818 17.7776 26.936Z" fill="#0090D2"/>
<path d="M24.2208 18.7927C22.6184 20.0633 21.0156 21.3334 19.4127 22.6031C18.3222 23.4652 17.2299 24.325 16.1357 25.1826C16.042 25.2558 15.9477 25.3515 15.8123 25.359C15.7118 25.2647 15.6358 25.1473 15.5907 25.0171C16.9146 23.9599 18.2522 22.9211 19.5789 21.8714C21.0225 20.726 22.4804 19.5983 23.9165 18.444C23.9427 18.4221 23.9725 18.4052 24.0047 18.394C24.1076 18.5077 24.1818 18.6444 24.2208 18.7927Z" fill="#00ACE8"/>
<path d="M16.3443 25.9784C18.1387 24.5628 19.9331 23.1473 21.7275 21.7317C22.581 21.0588 23.4371 20.3866 24.2954 19.7246C24.4137 19.633 24.5005 19.553 24.4909 19.3984C24.5749 19.5166 24.6242 19.6559 24.6332 19.8005C24.5094 20.1821 24.1415 20.3168 23.8666 20.537C22.33 21.768 20.7831 22.9879 19.2383 24.21C18.4752 24.814 17.7106 25.4165 16.9447 26.0174C16.8483 26.094 16.7607 26.1808 16.6712 26.2622C16.5381 26.1995 16.425 26.1013 16.3443 25.9784Z" fill="#009EDD"/>
<path d="M23.1212 17.0802C22.2397 17.7811 21.3617 18.4876 20.474 19.1823C19.345 20.0666 18.2064 20.9378 17.0767 21.8213C16.4031 22.3492 15.7377 22.8881 15.0723 23.4263C15.0529 23.4456 15.0277 23.458 15.0005 23.4616C14.9733 23.4652 14.9457 23.4598 14.9219 23.4461C14.8911 23.3353 14.8604 23.2239 14.8303 23.1131C15.0279 22.7787 15.3705 22.6009 15.6598 22.3718C17.6751 20.7784 19.6945 19.1947 21.7077 17.5958C22.01 17.3551 22.3191 17.1233 22.6213 16.8819C22.7109 16.8094 22.7991 16.7308 22.9243 16.8135C23.0123 16.8835 23.0802 16.9755 23.1212 17.0802Z" fill="#00CDF3"/>
<path d="M24.8123 20.8493C24.0874 21.4094 23.3584 21.9647 22.637 22.5302C21.8266 23.1662 21.0244 23.8124 20.2168 24.4511C19.3834 25.1117 18.548 25.77 17.7105 26.4261C17.5738 26.5362 17.437 26.6743 17.2359 26.6627C17.1099 26.6238 16.9969 26.5512 16.9091 26.4527C17.2469 26.4056 17.4473 26.1327 17.688 25.9453C19.1692 24.7903 20.6326 23.6134 22.1049 22.4475C22.9905 21.7451 23.8829 21.049 24.7719 20.3501C24.856 20.478 24.8321 20.6236 24.8403 20.7604C24.867 20.7987 24.8567 20.8274 24.8123 20.8493Z" fill="#0095D5"/>
<path d="M24.0047 18.3932C23.9473 18.6756 23.6751 18.7577 23.4905 18.9054C22.1406 19.9886 20.7742 21.052 19.4148 22.1236C18.2235 23.0618 17.0334 24.0014 15.8444 24.9424C15.7717 24.9974 15.6818 25.0247 15.5907 25.0196C15.5136 24.9492 15.4589 24.8576 15.4334 24.7564C15.5121 24.5793 15.681 24.4917 15.8218 24.3816C18.3268 22.4286 20.8043 20.4406 23.3106 18.4889C23.4802 18.3563 23.6102 18.1743 23.8146 18.0854C23.9032 18.1701 23.9686 18.2761 24.0047 18.3932Z" fill="#00B0EB"/>
<path d="M23.8146 18.0852C23.6716 18.3861 23.3824 18.5393 23.1389 18.7328C21.1879 20.2824 19.241 21.8347 17.2729 23.3638C16.6663 23.8357 16.0953 24.3574 15.4334 24.7561C15.3499 24.6528 15.2914 24.5315 15.2624 24.4019C16.2697 23.5874 17.2955 22.7969 18.3096 21.9913C19.9919 20.6558 21.6837 19.3318 23.3701 17.9977C23.459 17.9293 23.541 17.8445 23.6655 17.8445C23.7418 17.9048 23.7946 17.99 23.8146 18.0852Z" fill="#00B5EE"/>
<path d="M22.1576 15.7207C22.2559 15.8145 22.3321 15.9289 22.3806 16.0558C21.9997 16.4825 21.5162 16.7868 21.0731 17.1369C19.0781 18.7139 17.0821 20.2892 15.0853 21.863C14.9725 21.9519 14.8699 22.075 14.6969 22.0162C14.6128 21.69 14.7304 21.4691 14.9978 21.2571C16.7963 19.8438 18.5932 18.429 20.3885 17.0125C20.8672 16.6323 21.3582 16.2603 21.8342 15.8698C21.9265 15.7959 22.0079 15.6797 22.1576 15.7207Z" fill="#7CDDF6"/>
<path d="M24.8123 20.8496L24.8363 20.7642C24.9429 21.2955 24.9115 21.8255 24.8219 22.3548C24.1435 22.9586 23.4091 23.4934 22.6985 24.0576C21.4191 25.0731 20.13 26.0776 18.854 27.0973C18.7781 27.1581 18.7172 27.2593 18.5948 27.2149C18.4278 27.2108 18.2648 27.1622 18.1229 27.074C18.1845 26.9065 18.3212 26.8005 18.4532 26.6986C19.3716 25.9641 20.2907 25.231 21.2228 24.5144C21.3388 24.4434 21.446 24.3589 21.5422 24.2627C21.5636 24.2431 21.5864 24.225 21.6105 24.2087C21.6853 24.163 21.7556 24.1103 21.8205 24.0514C21.8418 24.032 21.8647 24.0144 21.8889 23.9988C21.9863 23.9363 22.0764 23.8631 22.1576 23.7806C22.1791 23.7612 22.2019 23.7433 22.226 23.7273C22.3235 23.6659 22.4134 23.5934 22.4941 23.5112C22.5155 23.4921 22.5384 23.4748 22.5625 23.4592C22.6478 23.4107 22.7222 23.3453 22.7813 23.267C22.81 23.2352 22.8434 23.208 22.8804 23.1863C22.9694 23.1446 23.0513 23.0892 23.1232 23.0222C23.1448 23.0034 23.1677 22.986 23.1916 22.9702C23.2876 22.908 23.3766 22.8356 23.4569 22.7541C23.4782 22.7347 23.5011 22.7171 23.5253 22.7015C23.6224 22.6401 23.7121 22.5679 23.7927 22.4861C23.8141 22.467 23.8369 22.4496 23.8611 22.4341C23.9466 22.3854 24.0213 22.3198 24.0806 22.2413C24.1094 22.2093 24.1431 22.1821 24.1804 22.1606C24.2698 22.118 24.3522 22.0619 24.4246 21.9944C24.4472 21.9749 24.4712 21.9571 24.4964 21.9411C24.599 21.8727 24.7159 21.8207 24.7275 21.675C24.733 21.5964 24.7662 21.5223 24.8212 21.4658L24.8123 20.8496Z" fill="#0085CA"/>
<path d="M23.6628 17.8445C23.156 18.3608 22.5467 18.7534 21.9901 19.2081C21.2659 19.8003 20.5164 20.3618 19.7908 20.9533C19.014 21.5879 18.2091 22.1842 17.4186 22.8058C16.7885 23.2991 16.1617 23.7954 15.538 24.2946C15.502 24.3299 15.4592 24.3577 15.4122 24.3761C15.3652 24.3946 15.3149 24.4034 15.2645 24.4019C15.1876 24.3031 15.1402 24.1846 15.1277 24.06C16.1719 23.3844 17.1108 22.5672 18.0826 21.8033C19.3525 20.8042 20.6326 19.8202 21.8882 18.8012C22.4093 18.3793 22.9495 17.9806 23.4679 17.5566C23.5555 17.6351 23.6225 17.734 23.6628 17.8445Z" fill="#00BAF0"/>
<path d="M23.4638 17.5548C23.4303 17.8386 23.1616 17.922 22.9851 18.0513C22.2288 18.6059 21.5217 19.222 20.7838 19.7992C19.5755 20.7443 18.3767 21.7023 17.1704 22.6495C16.5946 23.1015 16.0078 23.5385 15.4293 23.9884C15.3377 24.0568 15.2481 24.1307 15.1236 24.0609L15.0648 23.9241L19.2513 20.628C20.5734 19.5845 21.8955 18.5398 23.2176 17.4939C23.2577 17.4529 23.2924 17.407 23.3209 17.3572C23.3908 17.4037 23.4416 17.4738 23.4638 17.5548Z" fill="#00C0F1"/>
<path d="M22.1576 15.7208C20.539 16.9907 18.9326 18.2764 17.3078 19.5374C16.4961 20.1679 15.6919 20.81 14.8891 21.4521C14.6976 21.6053 14.6948 21.7941 14.7181 22.004C14.7275 22.0161 14.7343 22.0298 14.7383 22.0446C14.7423 22.0593 14.7434 22.0747 14.7414 22.0898C14.7394 22.1049 14.7345 22.1195 14.7268 22.1327C14.7192 22.1459 14.709 22.1575 14.6969 22.1668C14.6162 21.8884 14.6429 21.6046 14.6545 21.3215C14.9533 20.9427 15.3732 20.7061 15.7418 20.41C17.2422 19.2078 18.7453 18.0076 20.2702 16.8362C20.8508 16.3903 21.3733 15.8658 22.0236 15.5129C22.0901 15.5655 22.1372 15.6386 22.1576 15.7208Z" fill="#91E1F8"/>
<path d="M21.3316 13.9426L21.4184 14.264C21.454 14.4295 21.3357 14.5116 21.2311 14.595C19.3758 16.0714 17.5041 17.5287 15.6468 19.003C15.5196 19.1049 15.3876 19.2424 15.192 19.1398C15.2857 18.87 15.4245 18.6179 15.6023 18.3944C16.7074 17.437 17.8877 16.5679 19.0304 15.659C19.6459 15.1701 20.2614 14.688 20.8714 14.1977C21.0061 14.0841 21.1237 13.9262 21.3316 13.9426Z" fill="#CDEDFA"/>
<path d="M19.3963 27.3502C19.2362 27.3502 19.0742 27.366 18.9265 27.2818C20.2941 26.1371 21.7193 25.058 23.1171 23.9481C23.5007 23.6438 23.8809 23.3326 24.2687 23.0372C24.4054 22.9346 24.5354 22.7637 24.7474 22.8963C24.7318 23.107 24.6857 23.3144 24.6106 23.5118C23.0309 24.7585 21.443 25.9948 19.875 27.2559C19.8104 27.3121 19.7322 27.3504 19.6482 27.3669C19.5642 27.3835 19.4773 27.3777 19.3963 27.3502Z" fill="#007DC3"/>
<path d="M24.7487 22.9013C24.3986 22.9293 24.2051 23.2145 23.9623 23.4032C22.4783 24.5534 21.0094 25.7242 19.5296 26.8806C19.3402 27.029 19.2267 27.2984 18.9285 27.2868C18.8122 27.2868 18.6946 27.2916 18.5948 27.2184C19.7033 26.2678 20.8761 25.3966 22.014 24.483C22.8271 23.8313 23.6498 23.1926 24.4649 22.5436C24.5737 22.4575 24.679 22.3754 24.8205 22.3569C24.8445 22.5402 24.7904 22.718 24.7487 22.9013Z" fill="#0081C7"/>
<path d="M15.192 19.1401C15.5681 19.0649 15.7993 18.7654 16.081 18.5486C17.2251 17.6596 18.3555 16.7576 19.492 15.8611C20.0781 15.3988 20.6669 14.9399 21.2502 14.4756C21.3146 14.4123 21.3719 14.3421 21.4212 14.2664C21.4921 14.3722 21.5371 14.4934 21.5525 14.6199C20.1478 15.7236 18.7432 16.8278 17.3386 17.9325C16.637 18.4857 15.9408 19.0464 15.2399 19.6004C15.166 19.6585 15.1079 19.8294 14.9745 19.6687C14.9828 19.4643 15.0915 19.3036 15.192 19.1401Z" fill="#C3EBF9"/>
<path d="M24.8274 21.4651C24.8274 21.5567 24.8274 21.6477 24.8274 21.7386C24.7357 21.8569 24.5955 21.9144 24.4854 22.0122C24.389 22.0737 24.307 22.1537 24.2119 22.2173C24.1893 22.2399 24.1668 22.2631 24.1435 22.2857C24.0471 22.3466 23.9657 22.428 23.87 22.4909C23.7435 22.5654 23.6539 22.6871 23.5281 22.7644C23.4022 22.8417 23.312 22.9607 23.1861 23.0379C23.089 23.0988 23.007 23.1795 22.9126 23.2431L22.8442 23.3115C22.7471 23.3723 22.6657 23.4537 22.5707 23.5166C22.4435 23.5912 22.3539 23.7129 22.2287 23.7902C22.1036 23.8674 22.0127 23.9871 21.8868 24.0637C21.7904 24.1246 21.709 24.206 21.6133 24.2689C21.4553 24.3051 21.4129 24.4856 21.2714 24.5424C20.8344 24.9849 20.3099 25.3206 19.8353 25.7207C19.2793 26.1912 18.6919 26.6247 18.1188 27.074C17.9916 27.0684 17.87 27.0203 17.7735 26.9372L22.9023 22.8738C23.4494 22.4382 24.0027 22.006 24.5484 21.567C24.5857 21.5322 24.6296 21.5052 24.6775 21.4877C24.7254 21.4702 24.7764 21.4625 24.8274 21.4651Z" fill="#008ACD"/>
<path d="M19.3963 27.3504C19.5427 27.3535 19.6854 27.3051 19.7998 27.2136C20.6204 26.5441 21.4554 25.8876 22.2855 25.2305C22.9028 24.7386 23.5215 24.2478 24.1415 23.7581C24.2783 23.6487 24.4089 23.5085 24.6106 23.5154C24.5753 23.7524 24.505 23.9829 24.402 24.1992C23.2286 25.1046 22.0831 26.0456 20.9028 26.9428C20.6908 27.1042 20.5424 27.3593 20.2463 27.4003C19.9632 27.4092 19.6774 27.4413 19.3963 27.3504Z" fill="#0078BF"/>
<path d="M17.5027 15.6524C17.807 15.6654 17.9472 15.4021 18.1448 15.2516C19.1241 14.5028 20.087 13.7342 21.058 12.9751C21.1074 12.9499 21.1609 12.9337 21.216 12.9272C21.2293 12.9528 21.2358 12.9813 21.2347 13.0101C21.2336 13.0389 21.2251 13.0669 21.2098 13.0914C21.3015 13.3499 21.1804 13.5283 20.9862 13.6781C19.8077 14.5822 18.6411 15.5012 17.4863 16.4354C17.3358 16.5564 17.169 16.6549 17.0076 16.765C16.9344 16.8163 16.825 16.9195 16.7552 16.7452C17.006 16.3791 17.2552 16.0148 17.5027 15.6524Z" fill="#E2F1FA"/>
<path d="M20.2484 27.3982C21.5025 26.3362 22.8039 25.3344 24.1053 24.3319C24.1976 24.2635 24.2769 24.1828 24.4041 24.1951C24.3295 24.5192 24.1675 24.8037 23.9938 25.0841C23.1048 25.8363 22.1679 26.525 21.2693 27.2635C20.9394 27.3673 20.5939 27.4129 20.2484 27.3982Z" fill="#0073BC"/>
<path d="M16.7587 16.7419C17.05 16.7945 17.2134 16.5367 17.3673 16.4C18.0047 15.846 18.6865 15.3468 19.3505 14.8319C19.8716 14.4291 20.3325 13.9429 20.9172 13.6181C21.0895 13.5216 21.2625 13.3445 21.2092 13.0874C21.2775 13.298 21.2645 13.5182 21.2775 13.735C21.0375 14.0769 20.6621 14.267 20.3448 14.5201C19.066 15.5394 17.7833 16.554 16.4968 17.5639C16.4045 17.6492 16.2987 17.7185 16.1836 17.769C16.1261 17.7882 16.04 17.8128 16.0666 17.6897C16.2567 17.3416 16.5104 17.0441 16.7587 16.7419Z" fill="#DAF0F9"/>
<path d="M22.5782 16.3362L22.6869 16.4805C22.4353 16.8772 22.014 17.0823 21.6612 17.3627C19.5467 19.0511 17.4097 20.7135 15.2911 22.3944C15.1441 22.5114 15.0176 22.722 14.7687 22.6392C14.6873 22.4231 14.8166 22.3048 14.967 22.1838C16.1193 21.2579 17.2921 20.3545 18.4471 19.4341C19.7115 18.4295 20.9876 17.44 22.2493 16.432C22.3471 16.3526 22.4332 16.2425 22.5782 16.3362Z" fill="#50D6F6"/>
<path d="M14.6969 22.1693L14.7174 22.0066C15.2392 21.6086 15.7657 21.2167 16.2814 20.8112C17.4111 19.9222 18.5381 19.0257 19.6637 18.134C20.4897 17.4809 21.3186 16.8347 22.1447 16.1788C22.2171 16.1214 22.2814 16.0592 22.3806 16.0571C22.4161 16.105 22.449 16.1522 22.4866 16.2001C21.8875 16.7929 21.1873 17.2662 20.5342 17.79C19.2841 18.7884 18.0231 19.7731 16.7676 20.7661C16.1624 21.2448 15.5538 21.7235 14.9458 22.196C14.8774 22.248 14.8173 22.3328 14.7085 22.2842L14.6969 22.1693Z" fill="#6BDAF6"/>
<path d="M16.0701 17.6882C16.4045 17.6527 16.5816 17.3702 16.8161 17.1904C18.1599 16.1598 19.4831 15.106 20.8235 14.0679C20.9719 13.9531 21.0615 13.7527 21.281 13.7356C21.3032 13.7644 21.3192 13.7975 21.3279 13.8328C21.3366 13.8682 21.3378 13.9049 21.3316 13.9407C19.5992 15.2998 17.8692 16.6586 16.1419 18.0172C15.9695 18.1539 15.8485 18.3639 15.6016 18.3905C15.7248 18.1361 15.8825 17.8997 16.0701 17.6882Z" fill="#D5EFFA"/>
<path d="M14.7085 22.2856L21.5695 16.8894C21.8697 16.6527 22.1364 16.371 22.4865 16.2014L22.5782 16.3382C22.1234 16.5946 21.7466 16.9536 21.3384 17.2716C20.1943 18.1606 19.0625 19.0647 17.9253 19.9619C16.9223 20.7538 15.9171 21.5445 14.9095 22.3341C14.8616 22.3656 14.8244 22.4109 14.8029 22.4641C14.7814 22.5172 14.7766 22.5757 14.7892 22.6316C14.7972 22.6465 14.7994 22.6639 14.7953 22.6803C14.7913 22.6967 14.7813 22.711 14.7673 22.7205C14.6914 22.5796 14.7044 22.4312 14.7085 22.2856Z" fill="#5FD8F6"/>
<path d="M22.9242 16.8147C22.4804 17.024 22.1399 17.3769 21.7617 17.6716C20.5109 18.6399 19.2821 19.6363 18.0388 20.6121C16.9741 21.4505 15.9011 22.2793 14.8323 23.1123C14.7639 23.0788 14.7803 23.0206 14.7912 22.9646C14.8401 22.8496 14.9184 22.7496 15.0183 22.6746C17.4699 20.7421 19.9297 18.8198 22.3731 16.8763C22.4982 16.7771 22.6097 16.5761 22.834 16.6793L22.9242 16.8147Z" fill="#23D0F4"/>
<path d="M21.272 27.2649C21.4423 26.8621 21.8526 26.7116 22.1515 26.4484C22.6343 26.0237 23.1622 25.651 23.6675 25.2523C23.7603 25.1682 23.8739 25.1106 23.9965 25.0854C23.4166 26.222 22.5296 26.9756 21.272 27.2649Z" fill="#016DB7"/>
<path d="M22.8319 16.6779C22.2978 16.9603 21.8745 17.3898 21.4033 17.7563C19.1911 19.4816 16.9925 21.2254 14.7892 22.9631L14.783 22.8263C14.876 22.6478 15.0463 22.5528 15.1968 22.4331C16.7334 21.1981 18.2925 19.9904 19.8359 18.7636C20.7133 18.0654 21.6023 17.3829 22.4735 16.6765C22.5577 16.6081 22.6507 16.5226 22.7758 16.6081L22.8319 16.6779Z" fill="#38D1F4"/>
<path d="M22.7758 16.6098C22.3724 16.7151 22.1214 17.0454 21.813 17.2834C20.301 18.4507 18.8041 19.6399 17.3051 20.8243C16.4626 21.4904 15.6219 22.1589 14.7831 22.83L14.7673 22.7165C14.7749 22.6871 14.7817 22.657 14.7892 22.6276C15.3363 22.3233 15.7822 21.8836 16.2697 21.5013C18.3473 19.8758 20.4125 18.2346 22.4832 16.6009C22.5489 16.5556 22.6174 16.5145 22.6883 16.4778L22.7758 16.6098Z" fill="#41D4F5"/>
<path d="M21.2119 12.9274C21.2119 12.8091 21.1674 12.6846 21.2591 12.5786C21.2723 12.697 21.2561 12.8168 21.2119 12.9274Z" fill="#E2F1FA"/>
<path d="M21.2728 24.5424C21.3911 24.4576 21.3863 24.2175 21.6147 24.2688C21.5292 24.3933 21.4478 24.5212 21.2728 24.5424Z" fill="#008ACD"/>
<path d="M24.4855 22.0118C24.5539 21.8641 24.6906 21.8067 24.8274 21.7383C24.7775 21.9079 24.6393 21.9687 24.4855 22.0118Z" fill="#008ACD"/>
<path d="M23.5281 22.7645C23.6136 22.6373 23.6977 22.5087 23.87 22.491C23.7852 22.6154 23.7045 22.744 23.5281 22.7645Z" fill="#008ACD"/>
<path d="M23.1868 23.0379C23.2716 22.9107 23.3557 22.7822 23.5288 22.7644C23.4433 22.8889 23.3626 23.0174 23.1868 23.0379Z" fill="#008ACD"/>
<path d="M22.2294 23.7901C22.3142 23.6629 22.3983 23.5344 22.5714 23.5166C22.4866 23.6411 22.4052 23.7696 22.2294 23.7901Z" fill="#008ACD"/>
<path d="M21.8875 24.0638C21.973 23.9366 22.0571 23.8081 22.2294 23.7903C22.1446 23.9147 22.0633 24.0426 21.8875 24.0638Z" fill="#008ACD"/>
<path d="M24.2119 22.2174C24.2721 22.1079 24.3487 22.019 24.4855 22.0122C24.4253 22.1189 24.3494 22.2085 24.2119 22.2174Z" fill="#008ACD"/>
<path d="M23.87 22.4908C23.9302 22.3814 24.0068 22.2925 24.1435 22.2856C24.0834 22.3923 24.0081 22.4819 23.87 22.4908Z" fill="#008ACD"/>
<path d="M22.9133 23.243C22.9734 23.1336 23.05 23.044 23.1868 23.0378C23.1266 23.1445 23.0507 23.2334 22.9133 23.243Z" fill="#008ACD"/>
<path d="M22.5714 23.5164C22.6315 23.4063 22.7081 23.3174 22.8449 23.3113C22.7847 23.418 22.7088 23.5069 22.5714 23.5164Z" fill="#008ACD"/>
<path d="M21.614 24.2689C21.6741 24.1595 21.7507 24.0706 21.8875 24.0637C21.8273 24.1704 21.7521 24.2593 21.614 24.2689Z" fill="#008ACD"/>
</g>
<defs>
<clipPath id="clip0_14382_20460">
<rect width="23.4682" height="22" fill="white" transform="translate(8 9)"/>
</clipPath>
</defs>
</svg>
