<svg width="40" height="40" viewBox="0 0 40 40" fill="none" xmlns="http://www.w3.org/2000/svg">
<circle cx="20" cy="20" r="20" fill="#ED1B24"/>
<path d="M21.376 18.476C20.378 18.3126 19.3651 18.2587 18.3554 18.3154C18.1235 16.965 17.5851 15.854 16.189 15.4695C15.5773 15.3014 14.9193 15.3149 14.2908 15.3209C14.2811 15.3211 14.2719 15.3251 14.2651 15.332C14.2583 15.3389 14.2545 15.3482 14.2545 15.3579V19.2248C13.7997 19.4076 13.4363 19.5663 13.1643 19.7007C12.5099 20.0251 11.8768 20.3908 11.2688 20.7957V13.0464C11.2682 13.0412 11.2687 13.036 11.2704 13.0311C11.272 13.0263 11.2748 13.0218 11.2784 13.0181C11.282 13.0144 11.2864 13.0116 11.2913 13.0099C11.2961 13.0081 11.3013 13.0075 11.3065 13.0081C12.9272 12.9919 14.3459 12.9948 15.5625 13.0168C16.3781 13.0294 17.1855 13.1801 17.9507 13.4624C19.196 13.9258 20.1099 14.7583 20.6924 15.9602C21.0803 16.7526 21.2631 17.5821 21.376 18.476Z" fill="white"/>
<path d="M28.4116 21.3858C28.3641 21.3531 28.315 21.3228 28.2644 21.295C28.1831 21.2507 28.13 21.2224 28.1139 21.2097C27.0651 20.5291 25.9579 19.9429 24.8055 19.458C24.5756 18.6514 24.3536 17.8525 24.1394 17.0611C24.1136 16.987 24.0805 16.9156 24.0406 16.848C23.8927 16.5792 23.5876 16.4192 23.3012 16.3775C23.2596 16.3717 23.0445 16.3692 22.656 16.3701C22.2675 16.371 21.8642 16.371 21.4461 16.3701C21.4335 16.3707 21.4211 16.3669 21.411 16.3595C21.4008 16.352 21.3935 16.3413 21.3903 16.3291C21.2061 15.7762 20.8454 15.1851 20.3081 14.556C19.8425 14.0061 19.2711 13.5556 18.6277 13.2312C18.488 13.1618 18.3394 13.1121 18.1861 13.0833C18.0362 13.0544 18.0376 13.0329 18.1861 13.0161C18.2467 13.01 18.3075 13.0071 18.3683 13.0073C20.4336 13.0073 22.4162 13.0085 24.3162 13.0107C24.7773 13.0107 25.3392 13.1451 25.7136 13.4362C26.1922 13.8079 26.5202 14.5667 26.6808 15.1455C27.2589 17.1875 27.8358 19.2676 28.4116 21.3858Z" fill="white"/>
<path d="M21.3757 18.476C22.5802 18.6776 23.6684 19.007 24.8037 19.458C25.9561 19.9429 27.0633 20.529 28.1121 21.2096C28.1316 21.2224 28.1793 21.2506 28.2626 21.295C28.3132 21.3227 28.3623 21.353 28.4098 21.3857C29.449 22.0976 30.4455 22.8699 31.3942 23.6986C31.4036 23.7067 31.4063 23.7134 31.4016 23.7194L31.3962 23.7255C31.3945 23.7266 31.3925 23.7273 31.3905 23.7273C31.3885 23.7273 31.3865 23.7266 31.3848 23.7255C30.5244 23.2452 29.6337 22.8213 28.7183 22.4565C27.6411 22.0214 26.5375 21.6548 25.414 21.3588C25.3923 21.3577 25.3707 21.3639 25.3529 21.3763C25.3524 21.3695 25.35 21.363 25.346 21.3575C25.3419 21.352 25.3364 21.3478 25.33 21.3454C24.0402 21.0034 22.7243 20.7682 21.3959 20.6423C19.0066 20.3941 16.5926 20.5465 14.2535 21.0933C14.2148 21.1094 14.1748 21.1222 14.1339 21.1316C13.1559 21.366 12.1971 21.6742 11.2658 22.0538C10.145 22.5144 9.06662 23.072 8.04283 23.7201C8.03859 23.7237 8.03323 23.7256 8.0277 23.7256C8.02217 23.7256 8.01682 23.7237 8.01258 23.7201C8.00904 23.718 8.00606 23.715 8.00389 23.7115C8.00171 23.7079 8.00041 23.7039 8.00008 23.6998C7.99975 23.6957 8.00041 23.6915 8.002 23.6877C8.00359 23.6839 8.00606 23.6805 8.00922 23.6778C8.96342 22.5771 10.0594 21.608 11.2685 20.7956C11.8764 20.3907 12.5096 20.025 13.164 19.7006C13.4328 19.5662 13.796 19.4076 14.2535 19.2247C15.5645 18.7097 16.9479 18.4029 18.3537 18.3153C19.3639 18.2586 20.3772 18.3124 21.3757 18.476Z" fill="#241E20"/>
<path d="M31.9999 20.9892C31.9999 21.2803 31.8843 21.5595 31.6785 21.7654C31.4726 21.9712 31.1934 22.0869 30.9023 22.0869C30.6852 22.0869 30.473 22.0225 30.2925 21.9019C30.112 21.7813 29.9713 21.6098 29.8882 21.4093C29.8052 21.2087 29.7834 20.988 29.8258 20.7751C29.8681 20.5622 29.9727 20.3666 30.1262 20.2131C30.2797 20.0596 30.4753 19.955 30.6882 19.9127C30.9011 19.8703 31.1218 19.8921 31.3224 19.9752C31.5229 20.0582 31.6944 20.1989 31.815 20.3794C31.9356 20.5599 31.9999 20.7721 31.9999 20.9892Z" fill="#828387"/>
<path d="M21.3957 20.645C21.3285 21.7688 21.0737 22.8987 20.5286 23.8713C19.9205 24.9625 18.9927 25.6918 17.7452 26.0592C16.9692 26.2843 16.165 26.3975 15.357 26.3953C14.1978 26.3993 13.0403 26.4011 11.8847 26.4007C11.6853 26.4007 11.4888 26.3951 11.2952 26.3839C11.2871 26.3835 11.2795 26.38 11.274 26.3741C11.2684 26.3682 11.2654 26.3604 11.2656 26.3523V22.0565C12.1969 21.6769 13.1557 21.3686 14.1337 21.1343C14.1746 21.1249 14.2146 21.1121 14.2534 21.096V24.0233C14.2524 24.0301 14.253 24.0372 14.2552 24.0438C14.2573 24.0504 14.261 24.0564 14.2659 24.0613C14.2708 24.0663 14.2767 24.07 14.2833 24.0723C14.2899 24.0745 14.2969 24.0752 14.3038 24.0743C14.7575 24.0865 15.2116 24.076 15.6642 24.0427C16.698 23.9628 17.5389 23.4459 17.9643 22.4854C18.2315 21.8711 18.3813 21.2122 18.4059 20.5428C19.4037 20.5066 20.4028 20.5407 21.3957 20.645Z" fill="white"/>
<path d="M28.719 22.4566L29.8173 26.3927C29.8198 26.4015 29.8187 26.4108 29.8143 26.4188C29.8099 26.4267 29.8025 26.4326 29.7938 26.4351H29.7844H26.7906C26.7779 26.4351 26.7656 26.431 26.7555 26.4233C26.7455 26.4157 26.7382 26.4049 26.7348 26.3927L25.3535 21.3811C25.3714 21.3687 25.3929 21.3625 25.4147 21.3637C26.538 21.658 27.6417 22.0231 28.719 22.4566Z" fill="white"/>
<circle cx="20" cy="20" r="19.5" stroke="black" stroke-opacity="0.05"/>
</svg>
