<svg width="40" height="40" viewBox="0 0 40 40" fill="none" xmlns="http://www.w3.org/2000/svg">
<circle cx="20" cy="20" r="20" fill="#EA9B45"/>
<g clip-path="url(#clip0_18553_55909)">
<path d="M18.6198 11.5761C17.2878 11.1545 15.9201 11.0297 14.5046 11.202C14.3851 11.2138 14.3373 11.2435 14.2537 11.3207C14.2119 11.3623 14.2 11.3564 14.2119 11.297C14.2358 11.1841 14.2955 11.1069 14.3911 11.0535C15.5199 10.418 16.7623 9.94291 18.1061 9.62815C18.5123 9.53313 18.8945 9.48562 19.2648 9.48562C19.9935 9.48562 20.7699 9.44404 21.4747 9.53907C22.1496 9.62815 22.8663 9.83601 23.6249 10.1627C25.6735 11.0535 27.537 12.4907 28.7375 14.3793C29.7051 15.8996 29.9798 18.008 29.3109 19.6649C28.7196 21.1199 27.6863 22.1474 26.1931 22.7472C24.6641 23.3649 23.2068 23.3233 21.624 22.967C21.5524 22.9491 21.5105 22.8779 21.5225 22.8066C21.5225 22.7828 21.5404 22.7591 21.5583 22.7413C22.4005 21.892 22.723 20.8765 22.9619 19.6293C23.6428 16.0481 22.2691 12.7401 18.6138 11.5761H18.6198Z" fill="white"/>
<path d="M13.6622 21.9515C12.9634 23.7213 12.9514 25.5564 13.6263 27.4628C13.8055 27.9676 14.1101 28.419 14.3849 28.8941C14.5402 29.1673 14.4924 29.2089 14.2415 29.0129C13.8473 28.71 13.4472 28.4309 13.0828 28.0864C12.611 27.6469 12.1391 27.1421 11.6554 26.5779C10.5205 25.2476 9.85758 23.6916 9.64256 21.9812C9.48727 20.7756 9.50519 19.5225 9.69034 18.2338C9.73215 17.9309 9.85758 17.4439 10.0547 16.7668C10.419 15.5494 11.0103 14.3675 12.0615 13.5836C13.8055 12.277 16.2185 11.8435 18.2791 12.6928C20.2441 13.5004 21.4446 15.2821 21.8089 17.3489C21.8089 17.3726 21.797 17.3964 21.7731 17.3964C21.7731 17.3964 21.7671 17.3964 21.7612 17.3964C21.3789 17.3607 20.9847 17.2538 20.6084 17.2479C17.4787 17.1885 14.791 19.1305 13.6622 21.9634V21.9515Z" fill="white"/>
<path d="M30.4994 20.2468C30.4994 20.2468 30.5113 20.2171 30.5113 20.2052C30.5113 20.2052 30.5113 20.2052 30.5113 20.2111C30.5292 20.2646 30.5471 20.318 30.5352 20.3774C30.4456 20.9001 30.4277 21.4286 30.3023 21.9394C30.1111 22.7233 29.8722 23.5072 29.5855 24.2912C28.6896 26.7321 26.5215 28.5672 24.1623 29.6065C23.1231 30.0638 22.0779 30.4142 21.0147 30.4558C20.4592 30.4795 19.8918 30.4795 19.3065 30.4558C18.7869 30.432 18.2314 30.2598 17.6282 29.9272C14.4328 28.1634 13.1308 24.2793 15.3884 21.1792C15.7289 20.71 16.1171 20.2943 16.5471 19.938C16.5949 19.8964 16.6726 19.9023 16.7144 19.9498C16.7323 19.9677 16.7383 19.9914 16.7442 20.0152C16.7502 20.1577 16.7741 20.2943 16.8279 20.4249C17.234 21.3455 17.7775 22.1175 18.4524 22.7352C20.2144 24.3446 22.6751 25.0514 25.0523 24.5466C26.8321 24.1665 28.618 23.1093 29.6811 21.5712C29.9976 21.1139 30.2724 20.6684 30.5053 20.2468H30.4994Z" fill="white"/>
</g>
<circle cx="20" cy="20" r="19.5" stroke="black" stroke-opacity="0.05"/>
<defs>
<clipPath id="clip0_18553_55909">
<rect width="21" height="21" fill="white" transform="translate(9.53516 9.47363)"/>
</clipPath>
</defs>
</svg>
