<svg width="40" height="40" viewBox="0 0 40 40" fill="none" xmlns="http://www.w3.org/2000/svg">
<circle cx="20" cy="20" r="20" fill="#F6F8FA"/>
<path d="M19.1274 12.3517L16.1772 14.1223C16.1739 14.1244 16.1712 14.1272 16.1694 14.1306C16.1675 14.134 16.1666 14.1378 16.1667 14.1416V18.8087C16.1666 18.8125 16.1675 18.8163 16.1694 18.8197C16.1712 18.8231 16.1739 18.8259 16.1772 18.828L18.513 20.2315C18.5163 20.2335 18.519 20.2364 18.5208 20.2397C18.5227 20.2431 18.5236 20.2469 18.5235 20.2508V22.0909C18.5235 22.0948 18.5224 22.0987 18.5204 22.1021C18.5184 22.1055 18.5156 22.1083 18.5121 22.1102C18.5087 22.1121 18.5048 22.113 18.5008 22.1129C18.4969 22.1129 18.493 22.1117 18.4897 22.1097L14.6106 19.7756C14.6073 19.7736 14.6046 19.7707 14.6028 19.7673C14.6009 19.764 14.6 19.7602 14.6001 19.7563V13.1957C14.6 13.1918 14.6009 13.188 14.6028 13.1846C14.6046 13.1812 14.6073 13.1784 14.6106 13.1764L20.9435 9.37096C20.9469 9.3689 20.9507 9.36777 20.9547 9.36768C20.9586 9.36759 20.9625 9.36856 20.966 9.37047C20.9694 9.37238 20.9723 9.37517 20.9743 9.37855C20.9763 9.38193 20.9773 9.38578 20.9773 9.3897V14.9724C20.9774 14.9763 20.9764 14.9801 20.9744 14.9835C20.9725 14.9869 20.9696 14.9897 20.9662 14.9917L19.1945 15.9961C19.1911 15.998 19.1873 15.9991 19.1833 15.9991C19.1794 15.999 19.1756 15.998 19.1722 15.9961C19.1688 15.9941 19.166 15.9913 19.1641 15.9879C19.1622 15.9845 19.1612 15.9807 19.1612 15.9768V12.3704C19.1612 12.3665 19.1601 12.3626 19.1581 12.3593C19.1561 12.3559 19.1533 12.3531 19.1498 12.3512C19.1464 12.3493 19.1425 12.3483 19.1385 12.3484C19.1346 12.3485 19.1307 12.3496 19.1274 12.3517Z" fill="#0D417D"/>
<path d="M21.019 20.5799C21.0189 20.5817 21.0194 20.5834 21.0202 20.585C21.0211 20.5865 21.0223 20.5878 21.0239 20.5887C21.0254 20.5896 21.0271 20.5901 21.0289 20.5901C21.0307 20.5901 21.0324 20.5896 21.034 20.5887L23.9464 18.8363C23.9634 18.826 23.9719 18.8111 23.9719 18.7916V14.161C23.9719 14.1522 23.9697 14.1436 23.9654 14.1361C23.9611 14.1286 23.955 14.1223 23.9475 14.118L21.5946 12.7056C21.5839 12.6992 21.5751 12.6901 21.569 12.6792C21.5629 12.6683 21.5597 12.6559 21.5597 12.6433V10.8263C21.5597 10.8233 21.5606 10.8203 21.5622 10.8176C21.5638 10.815 21.566 10.8128 21.5687 10.8113C21.5714 10.8098 21.5744 10.8091 21.5775 10.8091C21.5806 10.8091 21.5836 10.8099 21.5863 10.8114L25.5202 13.1786C25.5258 13.1819 25.5304 13.1867 25.5336 13.1924C25.5368 13.1981 25.5385 13.2045 25.5385 13.2111V19.7266C25.5385 19.7388 25.5353 19.7509 25.5292 19.7617C25.523 19.7724 25.5142 19.7814 25.5036 19.7878L19.1513 23.6058C19.1483 23.6076 19.145 23.6085 19.1415 23.6086C19.1381 23.6086 19.1347 23.6078 19.1317 23.6061C19.1288 23.6044 19.1263 23.602 19.1245 23.599C19.1228 23.5961 19.1219 23.5927 19.1219 23.5893C19.1163 22.0615 19.1171 20.4686 19.1241 18.8104C19.1258 18.4548 19.1114 18.156 18.7021 18.0391C18.6963 18.0375 18.6911 18.0342 18.6871 18.0297C18.6832 18.0251 18.6807 18.0195 18.68 18.0135C18.6793 18.0075 18.6804 18.0015 18.6831 17.9961C18.6859 17.9908 18.6902 17.9864 18.6954 17.9834L20.9935 16.6825C20.9961 16.681 20.9991 16.6802 21.0021 16.6802C21.0051 16.6802 21.008 16.681 21.0106 16.6824C21.0132 16.6839 21.0153 16.686 21.0168 16.6885C21.0183 16.691 21.019 16.6939 21.019 16.6968V20.5799Z" fill="#0D417D"/>
<path d="M26.7853 28.5144C25.877 28.6825 25.0136 28.1544 24.8971 27.2216C24.794 26.3958 25.2703 25.6897 26.1005 25.5182C26.8319 25.3672 27.6027 25.6599 27.9133 26.3611C28.0918 26.7635 28.0963 27.2553 27.9199 27.6483C27.7055 28.1254 27.3273 28.414 26.7853 28.5144ZM26.4684 27.881C26.5806 27.8806 26.6915 27.8577 26.795 27.8137C26.8984 27.7696 26.9924 27.7052 27.0714 27.6242C27.1504 27.5432 27.213 27.4472 27.2555 27.3416C27.2981 27.2359 27.3197 27.1228 27.3193 27.0086C27.3185 26.7781 27.2278 26.5573 27.0671 26.3948C26.9063 26.2323 26.6888 26.1415 26.4623 26.1423C26.3502 26.1427 26.2392 26.1655 26.1357 26.2096C26.0323 26.2536 25.9384 26.318 25.8593 26.399C25.7803 26.48 25.7178 26.576 25.6752 26.6817C25.6327 26.7873 25.611 26.9004 25.6114 27.0146C25.6122 27.2451 25.7029 27.466 25.8637 27.6284C26.0244 27.7909 26.2419 27.8817 26.4684 27.881Z" fill="#211614"/>
<path d="M31.1588 25.4799C32.0305 25.4975 32.6948 26.0885 32.7093 26.976C32.7431 29.0075 29.646 29.0791 29.5489 27.0962C29.5023 26.1458 30.211 25.4606 31.1588 25.4799ZM31.1248 27.8801C31.2369 27.8807 31.3481 27.8588 31.4519 27.8156C31.5558 27.7725 31.6503 27.7089 31.73 27.6286C31.8097 27.5483 31.8731 27.4528 31.9166 27.3476C31.9601 27.2423 31.9827 27.1294 31.9834 27.0152C31.9846 26.7846 31.8958 26.5631 31.7365 26.3992C31.5772 26.2353 31.3604 26.1426 31.1339 26.1414C31.0218 26.1408 30.9106 26.1627 30.8068 26.2059C30.703 26.249 30.6085 26.3126 30.5287 26.3929C30.449 26.4732 30.3856 26.5687 30.3421 26.674C30.2987 26.7792 30.276 26.8922 30.2754 27.0063C30.2742 27.2369 30.363 27.4585 30.5223 27.6223C30.6816 27.7862 30.8983 27.8789 31.1248 27.8801Z" fill="#211614"/>
<path d="M17.01 28.4787H16.3091C16.3045 28.4787 16.3001 28.4769 16.2969 28.4737C16.2937 28.4705 16.2919 28.4661 16.2919 28.4616V25.573C16.2919 25.5684 16.2937 25.5641 16.2969 25.5609C16.3001 25.5577 16.3045 25.5559 16.3091 25.5559L16.8941 25.5581C16.8965 25.5581 16.8989 25.5587 16.9011 25.5597C16.9033 25.5608 16.9053 25.5623 16.9069 25.5641L18.2023 27.1171C18.2045 27.1198 18.2076 27.1218 18.211 27.1227C18.2145 27.1237 18.2181 27.1235 18.2215 27.1223C18.2248 27.1211 18.2277 27.1189 18.2297 27.116C18.2317 27.113 18.2328 27.1096 18.2328 27.106V25.5327C18.2328 25.5282 18.2346 25.5238 18.2378 25.5206C18.241 25.5174 18.2454 25.5156 18.25 25.5156H18.9503C18.9526 25.5156 18.9548 25.5161 18.9569 25.5169C18.959 25.5178 18.9609 25.519 18.9625 25.5206C18.9641 25.5222 18.9654 25.5241 18.9662 25.5262C18.9671 25.5282 18.9675 25.5305 18.9675 25.5327V28.4214C18.9675 28.4236 18.9671 28.4258 18.9662 28.4279C18.9654 28.43 18.9641 28.4319 18.9625 28.4334C18.9609 28.435 18.959 28.4363 18.9569 28.4371C18.9548 28.438 18.9526 28.4384 18.9503 28.4384L18.3703 28.4362C18.3678 28.4363 18.3653 28.4357 18.363 28.4347C18.3607 28.4336 18.3586 28.4321 18.357 28.4302L17.056 26.869C17.0538 26.8662 17.0507 26.8643 17.0473 26.8633C17.0438 26.8624 17.0402 26.8625 17.0368 26.8637C17.0335 26.865 17.0306 26.8672 17.0286 26.8701C17.0266 26.873 17.0255 26.8765 17.0255 26.88L17.0272 28.4616C17.0272 28.4661 17.0254 28.4705 17.0222 28.4737C17.0189 28.4769 17.0146 28.4787 17.01 28.4787Z" fill="#211614"/>
<path d="M9.09687 26.651V25.5793C9.09687 25.5735 9.09921 25.5678 9.10337 25.5637C9.10753 25.5596 9.11317 25.5573 9.11905 25.5573L9.80946 25.5562C9.81534 25.5562 9.82098 25.5585 9.82514 25.5626C9.8293 25.5667 9.83164 25.5724 9.83164 25.5782V28.4569C9.83164 28.4628 9.8293 28.4684 9.82514 28.4725C9.82098 28.4767 9.81534 28.479 9.80946 28.479L9.1196 28.4779C9.11372 28.4779 9.10808 28.4756 9.10392 28.4714C9.09976 28.4673 9.09742 28.4617 9.09742 28.4558L9.09631 27.3428C9.09631 27.337 9.09398 27.3314 9.08982 27.3272C9.08566 27.3231 9.08001 27.3208 9.07413 27.3208H7.95396C7.94807 27.3208 7.94243 27.3231 7.93827 27.3272C7.93411 27.3314 7.93178 27.337 7.93178 27.3428L7.93288 28.4564C7.93288 28.4622 7.93055 28.4678 7.92639 28.472C7.92223 28.4761 7.91659 28.4784 7.9107 28.4784H7.23361C7.22772 28.4784 7.22208 28.4761 7.21792 28.472C7.21376 28.4678 7.21143 28.4622 7.21143 28.4564V25.5782C7.21143 25.5724 7.21376 25.5667 7.21792 25.5626C7.22208 25.5585 7.22772 25.5562 7.23361 25.5562L7.90959 25.5573C7.91548 25.5573 7.92112 25.5596 7.92528 25.5637C7.92944 25.5678 7.93178 25.5735 7.93178 25.5793L7.93288 26.651C7.93288 26.6568 7.93522 26.6624 7.93938 26.6666C7.94354 26.6707 7.94918 26.673 7.95507 26.673H9.07469C9.08057 26.673 9.08621 26.6707 9.09037 26.6666C9.09453 26.6624 9.09687 26.6568 9.09687 26.651Z" fill="#211614"/>
<path d="M13.5298 27.9272L12.5339 27.9277C12.5289 27.9278 12.5241 27.9293 12.52 27.9322C12.5159 27.935 12.5128 27.939 12.5111 27.9437L12.3248 28.4624C12.3231 28.4671 12.32 28.4711 12.316 28.474C12.3119 28.4768 12.3071 28.4784 12.3021 28.4784H11.5873C11.5833 28.4784 11.5794 28.4775 11.5759 28.4756C11.5724 28.4738 11.5694 28.4711 11.5671 28.4679C11.5649 28.4646 11.5635 28.4608 11.563 28.4569C11.5626 28.453 11.5631 28.449 11.5645 28.4454L12.6847 25.5716C12.6865 25.567 12.6896 25.5631 12.6937 25.5604C12.6977 25.5576 12.7025 25.5562 12.7074 25.5562L13.4084 25.5567C13.4133 25.5567 13.4181 25.5582 13.4222 25.5609C13.4262 25.5637 13.4293 25.5676 13.4311 25.5721L14.5524 28.4465C14.5539 28.4501 14.5544 28.4541 14.5539 28.458C14.5535 28.4619 14.5521 28.4657 14.5498 28.469C14.5476 28.4722 14.5446 28.4749 14.5411 28.4767C14.5376 28.4786 14.5336 28.4795 14.5297 28.4795L13.7622 28.4779C13.7572 28.4778 13.7524 28.4763 13.7483 28.4734C13.7442 28.4706 13.7411 28.4665 13.7395 28.4619L13.5526 27.9431C13.5509 27.9385 13.5478 27.9345 13.5437 27.9316C13.5397 27.9288 13.5348 27.9272 13.5298 27.9272ZM12.7585 27.2552C12.7575 27.2579 12.7572 27.2608 12.7576 27.2637C12.758 27.2666 12.7591 27.2693 12.7608 27.2717C12.7624 27.2741 12.7647 27.276 12.7673 27.2774C12.7699 27.2787 12.7727 27.2794 12.7757 27.2794H13.2881C13.291 27.2794 13.2939 27.2787 13.2964 27.2774C13.299 27.276 13.3013 27.2741 13.3029 27.2717C13.3046 27.2693 13.3057 27.2666 13.3061 27.2637C13.3065 27.2608 13.3062 27.2579 13.3052 27.2552L13.049 26.5451C13.0478 26.5416 13.0454 26.5386 13.0423 26.5365C13.0393 26.5343 13.0356 26.5332 13.0319 26.5332C13.0281 26.5332 13.0244 26.5343 13.0214 26.5365C13.0183 26.5386 13.0159 26.5416 13.0147 26.5451L12.7585 27.2552Z" fill="#211614"/>
<path d="M21.9542 27.8691C22.2509 27.8488 22.3535 27.5858 22.3518 27.3223C22.3485 26.7074 22.348 26.1284 22.3502 25.5852C22.3502 25.5665 22.3598 25.5571 22.379 25.5571H23.0467C23.0737 25.5571 23.087 25.5705 23.0866 25.5974C23.0807 26.0957 23.0814 26.6088 23.0888 27.1365C23.0955 27.636 23.0212 28.0836 22.5953 28.3493C22.2984 28.5342 21.9688 28.5886 21.6065 28.5125C21.059 28.3971 20.7644 28.049 20.7226 27.4684C20.7208 27.4438 20.7322 27.4314 20.757 27.4314H21.4224C21.4435 27.4314 21.4553 27.4417 21.4579 27.4623C21.4945 27.7541 21.66 27.8897 21.9542 27.8691Z" fill="#211614"/>
<path d="M12.7458 30.9883C12.734 30.9784 12.7205 30.9733 12.7054 30.9729C12.468 30.9722 12.237 30.9731 12.0122 30.9757C11.99 30.976 11.9789 30.9652 11.9789 30.9431L11.9806 30.4045C11.9806 30.3788 11.9937 30.366 12.0199 30.366H13.4906C13.4944 30.366 13.4982 30.3667 13.5018 30.3682C13.5053 30.3697 13.5085 30.3718 13.5112 30.3745C13.5139 30.3773 13.516 30.3805 13.5174 30.384C13.5188 30.3876 13.5195 30.3914 13.5194 30.3952C13.5172 30.5297 13.5244 30.6675 13.5011 30.7948C13.3795 31.4545 12.9911 31.8489 12.336 31.9779C12.0887 32.0264 11.7355 31.9961 11.4881 31.8946C11.0027 31.6954 10.7184 31.3373 10.6352 30.8202C10.4306 29.5446 11.7033 28.8042 12.7885 29.3108C13.1176 29.4644 13.347 29.7245 13.4767 30.0909C13.4784 30.0956 13.4789 30.1007 13.4782 30.1057C13.4775 30.1107 13.4756 30.1154 13.4727 30.1195C13.4698 30.1237 13.4659 30.127 13.4614 30.1293C13.4568 30.1316 13.4518 30.1328 13.4468 30.1328L12.7719 30.1322C12.7508 30.1322 12.7342 30.1239 12.722 30.1074C12.5815 29.9185 12.3998 29.8165 12.1769 29.8015C11.7713 29.7743 11.4981 29.9365 11.3573 30.2882C11.2944 30.4448 11.2855 30.6098 11.3306 30.7833C11.5064 31.4542 12.376 31.5804 12.7497 31.0181C12.7528 31.0136 12.7541 31.0081 12.7534 31.0026C12.7527 30.9972 12.75 30.9921 12.7458 30.9883Z" fill="#A2A7AD"/>
<path d="M9.2087 31.3488L9.20815 31.916C9.20815 31.922 9.20575 31.9278 9.20149 31.932C9.19722 31.9362 9.19144 31.9386 9.18541 31.9386L7.2484 31.9381C7.24541 31.9381 7.24245 31.9375 7.2397 31.9364C7.23694 31.9352 7.23443 31.9336 7.23232 31.9315C7.23021 31.9294 7.22853 31.9269 7.22739 31.9241C7.22625 31.9214 7.22566 31.9184 7.22566 31.9155L7.2179 29.2462C7.2179 29.2402 7.22029 29.2345 7.22455 29.2303C7.22882 29.226 7.2346 29.2236 7.24063 29.2236L7.86948 29.2253C7.87551 29.2253 7.8813 29.2277 7.88556 29.2319C7.88982 29.2361 7.89222 29.2419 7.89222 29.2479L7.87669 31.2986C7.87669 31.3046 7.87909 31.3103 7.88335 31.3146C7.88761 31.3188 7.8934 31.3212 7.89943 31.3212L9.18597 31.3262C9.192 31.3262 9.19778 31.3286 9.20204 31.3328C9.20631 31.337 9.2087 31.3428 9.2087 31.3488Z" fill="#A2A7AD"/>
<path d="M10.2458 29.2217H9.61032C9.59409 29.2217 9.58093 29.2348 9.58093 29.2509V31.9102C9.58093 31.9264 9.59409 31.9394 9.61032 31.9394H10.2458C10.2621 31.9394 10.2752 31.9264 10.2752 31.9102V29.2509C10.2752 29.2348 10.2621 29.2217 10.2458 29.2217Z" fill="#A2A7AD"/>
<path d="M14.5866 30.9062L14.5871 31.9095C14.5871 31.9175 14.5839 31.9252 14.5782 31.9309C14.5725 31.9366 14.5647 31.9398 14.5566 31.9398L13.9239 31.936C13.9158 31.936 13.908 31.9328 13.9023 31.9271C13.8966 31.9214 13.8934 31.9137 13.8934 31.9056L13.8928 29.254C13.8928 29.246 13.896 29.2383 13.9018 29.2326C13.9075 29.2269 13.9152 29.2237 13.9233 29.2237L14.5566 29.2188C14.5647 29.2188 14.5725 29.2219 14.5782 29.2276C14.5839 29.2333 14.5871 29.241 14.5871 29.2491V30.2259C14.5871 30.234 14.5903 30.2417 14.596 30.2474C14.6018 30.253 14.6095 30.2562 14.6176 30.2562H15.6086C15.6167 30.2562 15.6244 30.253 15.6301 30.2474C15.6359 30.2417 15.6391 30.234 15.6391 30.2259L15.6402 29.2518C15.6402 29.2438 15.6434 29.2361 15.6491 29.2304C15.6548 29.2247 15.6626 29.2215 15.6707 29.2215L16.3029 29.2226C16.311 29.2226 16.3187 29.2258 16.3244 29.2315C16.3301 29.2372 16.3334 29.2449 16.3334 29.2529L16.3339 31.9067C16.3339 31.9148 16.3307 31.9225 16.325 31.9282C16.3193 31.9339 16.3115 31.9371 16.3034 31.9371L15.6707 31.9404C15.6667 31.9404 15.6627 31.9396 15.659 31.9381C15.6553 31.9365 15.652 31.9343 15.6491 31.9315C15.6463 31.9287 15.644 31.9253 15.6425 31.9216C15.641 31.918 15.6402 31.914 15.6402 31.91L15.6396 30.9073C15.6396 30.8992 15.6364 30.8915 15.6307 30.8858C15.625 30.8802 15.6172 30.877 15.6091 30.877L14.6171 30.8759C14.609 30.8759 14.6012 30.8791 14.5955 30.8847C14.5898 30.8904 14.5866 30.8981 14.5866 30.9062Z" fill="#A2A7AD"/>
<path d="M17.5213 29.8419L16.7261 29.8441C16.7175 29.8441 16.7094 29.8407 16.7033 29.8347C16.6973 29.8287 16.6939 29.8206 16.6939 29.8121L16.6934 29.2548C16.6934 29.2463 16.6967 29.2381 16.7028 29.2321C16.7088 29.2262 16.717 29.2228 16.7255 29.2228L19.0607 29.2217C19.0692 29.2217 19.0774 29.225 19.0834 29.231C19.0895 29.237 19.0929 29.2452 19.0929 29.2537L19.0912 29.8121C19.0912 29.8206 19.0878 29.8287 19.0818 29.8347C19.0757 29.8407 19.0676 29.8441 19.059 29.8441L18.2638 29.843C18.2553 29.843 18.2471 29.8463 18.2411 29.8523C18.235 29.8583 18.2317 29.8665 18.2317 29.8749L18.2355 31.9069C18.2355 31.9154 18.2322 31.9235 18.2261 31.9295C18.2201 31.9355 18.2119 31.9389 18.2034 31.9389L17.5845 31.9383C17.576 31.9383 17.5678 31.935 17.5618 31.929C17.5557 31.923 17.5523 31.9148 17.5523 31.9064L17.5535 29.8738C17.5535 29.8653 17.5501 29.8572 17.544 29.8512C17.538 29.8452 17.5298 29.8419 17.5213 29.8419Z" fill="#A2A7AD"/>
<path d="M20.9237 30.6732C20.9144 30.6945 20.9096 30.7165 20.9093 30.7393C20.9081 31.1061 20.9085 31.4951 20.9104 31.9064C20.9104 31.9148 20.907 31.923 20.9009 31.929C20.8949 31.935 20.8867 31.9383 20.8782 31.9383L20.2582 31.94C20.2298 31.94 20.2155 31.9258 20.2155 31.8975L20.215 29.2366C20.215 29.2328 20.2165 29.2291 20.2192 29.2264C20.2219 29.2237 20.2256 29.2222 20.2294 29.2222L20.7329 29.2217C20.7454 29.2215 20.7578 29.2247 20.7688 29.2308C20.7798 29.2368 20.789 29.2457 20.7956 29.2564L21.6285 30.6043C21.6302 30.6071 21.6327 30.6095 21.6356 30.6112C21.6386 30.6129 21.6419 30.6138 21.6453 30.6138C21.6486 30.6139 21.652 30.6131 21.655 30.6115C21.6579 30.6099 21.6605 30.6076 21.6623 30.6048L22.5069 29.2432C22.5106 29.2371 22.5157 29.2321 22.5219 29.2286C22.528 29.2252 22.5349 29.2233 22.5418 29.2233L23.0293 29.2217C23.0574 29.2217 23.0714 29.2356 23.0714 29.2636V31.9036C23.0714 31.9268 23.0598 31.9383 23.0365 31.9383L22.4193 31.9378C22.4138 31.9378 22.4083 31.9367 22.4032 31.9346C22.3981 31.9325 22.3935 31.9294 22.3897 31.9255C22.3858 31.9216 22.3827 31.917 22.3807 31.9119C22.3786 31.9068 22.3776 31.9014 22.3777 31.8959L22.3793 30.7118C22.3793 30.664 22.367 30.6607 22.3422 30.7018L21.8769 31.4714C21.8696 31.4835 21.8594 31.4935 21.8471 31.5005C21.8349 31.5075 21.8211 31.5111 21.8071 31.5111L21.5021 31.5122C21.4818 31.5124 21.4618 31.5072 21.4441 31.4973C21.4264 31.4873 21.4116 31.4729 21.4011 31.4554L20.9337 30.6726C20.9331 30.6717 20.9324 30.671 20.9315 30.6705C20.9306 30.67 20.9295 30.6697 20.9285 30.6698C20.9274 30.6698 20.9264 30.6702 20.9256 30.6708C20.9247 30.6714 20.9241 30.6722 20.9237 30.6732Z" fill="#A2A7AD"/>
<path d="M24.2242 30.257L25.4121 30.2553C25.4204 30.2553 25.4285 30.2586 25.4344 30.2645C25.4403 30.2704 25.4437 30.2784 25.4437 30.2867L25.4431 30.8314C25.4431 30.8397 25.4398 30.8477 25.4339 30.8536C25.4279 30.8595 25.4199 30.8628 25.4115 30.8628L24.2087 30.8656C24.2045 30.8656 24.2003 30.8664 24.1963 30.8681C24.1924 30.8697 24.1889 30.8721 24.186 30.8752C24.183 30.8782 24.1807 30.8818 24.1792 30.8857C24.1777 30.8897 24.1769 30.8939 24.1771 30.8981L24.1921 31.2983C24.1924 31.3064 24.1958 31.3142 24.2017 31.3198C24.2076 31.3255 24.2155 31.3286 24.2237 31.3286L25.5646 31.3325C25.5729 31.3325 25.581 31.3358 25.5869 31.3417C25.5928 31.3476 25.5962 31.3556 25.5962 31.3639L25.594 31.9064C25.594 31.9147 25.5906 31.9227 25.5847 31.9286C25.5788 31.9345 25.5707 31.9378 25.5623 31.9378L23.5316 31.9389C23.5232 31.9389 23.5152 31.9356 23.5093 31.9297C23.5033 31.9238 23.5 31.9158 23.5 31.9075V29.2542C23.5 29.2459 23.5033 29.2379 23.5093 29.232C23.5152 29.2261 23.5232 29.2228 23.5316 29.2228L25.5346 29.2217C25.543 29.2217 25.551 29.225 25.557 29.2309C25.5629 29.2368 25.5662 29.2448 25.5662 29.2531L25.5684 29.7994C25.5684 29.8077 25.5651 29.8157 25.5592 29.8216C25.5533 29.8275 25.5452 29.8308 25.5368 29.8308L24.2253 29.8292C24.217 29.8292 24.2089 29.8325 24.203 29.8384C24.1971 29.8443 24.1937 29.8523 24.1937 29.8606L24.1926 30.2255C24.1926 30.2339 24.196 30.2419 24.2019 30.2478C24.2078 30.2537 24.2158 30.257 24.2242 30.257Z" fill="#A2A7AD"/>
<path d="M27.4514 29.8694L27.452 31.9118C27.452 31.9191 27.449 31.9261 27.4438 31.9313C27.4386 31.9365 27.4316 31.9394 27.4242 31.9394L26.7854 31.9366C26.778 31.9366 26.771 31.9337 26.7658 31.9285C26.7606 31.9234 26.7577 31.9164 26.7577 31.9091L26.7582 29.8705C26.7582 29.8631 26.7553 29.8561 26.7501 29.851C26.7449 29.8458 26.7379 29.8429 26.7305 29.8429H25.9386C25.9313 29.8429 25.9242 29.84 25.919 29.8348C25.9138 29.8297 25.9109 29.8226 25.9109 29.8153L25.9126 29.2503C25.9126 29.243 25.9155 29.236 25.9207 29.2308C25.9259 29.2256 25.9329 29.2227 25.9403 29.2227L28.2838 29.2222C28.2911 29.2222 28.2982 29.2251 28.3034 29.2302C28.3086 29.2354 28.3115 29.2424 28.3115 29.2497L28.3126 29.8164C28.3126 29.8237 28.3097 29.8308 28.3045 29.8359C28.2993 29.8411 28.2922 29.844 28.2849 29.844L27.4791 29.8418C27.4718 29.8418 27.4647 29.8447 27.4595 29.8499C27.4543 29.855 27.4514 29.862 27.4514 29.8694Z" fill="#A2A7AD"/>
<path d="M29.7347 31.4272L28.8458 31.4288C28.8375 31.4289 28.8295 31.4315 28.8227 31.4362C28.816 31.4409 28.8109 31.4476 28.8081 31.4553L28.645 31.9079C28.6423 31.9157 28.6372 31.9225 28.6305 31.9273C28.6237 31.9321 28.6156 31.9348 28.6073 31.9349L27.9707 31.9437C27.964 31.9438 27.9574 31.9423 27.9515 31.9393C27.9456 31.9362 27.9405 31.9318 27.9367 31.9263C27.9329 31.9209 27.9306 31.9146 27.9298 31.908C27.9291 31.9014 27.93 31.8947 27.9324 31.8886L28.9589 29.2486C28.9618 29.241 28.967 29.2344 28.9737 29.2298C28.9804 29.2252 28.9884 29.2227 28.9966 29.2227H29.6271C29.6353 29.2227 29.6433 29.2252 29.65 29.2298C29.6568 29.2344 29.6619 29.241 29.6648 29.2486L30.6957 31.8864C30.6981 31.8925 30.6989 31.899 30.6981 31.9055C30.6973 31.912 30.695 31.9181 30.6913 31.9235C30.6876 31.9289 30.6826 31.9333 30.6768 31.9363C30.671 31.9393 30.6646 31.9409 30.658 31.941L29.9687 31.936C29.9603 31.936 29.9521 31.9334 29.9452 31.9286C29.9384 31.9237 29.9332 31.9169 29.9305 31.909L29.773 31.4542C29.7702 31.4463 29.765 31.4395 29.7582 31.4346C29.7513 31.4298 29.7431 31.4272 29.7347 31.4272ZM29.0448 30.7943C29.0438 30.7972 29.0434 30.8004 29.0438 30.8035C29.0442 30.8065 29.0454 30.8095 29.0472 30.812C29.049 30.8146 29.0514 30.8166 29.0542 30.8181C29.0569 30.8195 29.06 30.8202 29.0631 30.8202L29.5118 30.8224C29.5149 30.8225 29.5181 30.8219 29.5209 30.8205C29.5238 30.8191 29.5263 30.817 29.5281 30.8145C29.53 30.8119 29.5312 30.8089 29.5316 30.8058C29.5321 30.8027 29.5317 30.7995 29.5306 30.7965L29.3094 30.1637C29.308 30.1599 29.3055 30.1567 29.3023 30.1543C29.299 30.152 29.2951 30.1508 29.2911 30.1508C29.2871 30.1508 29.2831 30.152 29.2799 30.1543C29.2766 30.1567 29.2741 30.1599 29.2728 30.1637L29.0448 30.7943Z" fill="#A2A7AD"/>
<path d="M31.6561 31.3172H32.8988C32.9071 31.3172 32.915 31.3204 32.9208 31.3262C32.9266 31.332 32.9299 31.3399 32.9299 31.348L32.9316 31.9048C32.9316 31.913 32.9283 31.9209 32.9225 31.9267C32.9166 31.9324 32.9087 31.9357 32.9005 31.9357L30.9629 31.9401C30.9547 31.9401 30.9468 31.9369 30.941 31.9311C30.9352 31.9253 30.9319 31.9174 30.9319 31.9092V29.2532C30.9319 29.245 30.9352 29.2372 30.941 29.2314C30.9468 29.2256 30.9547 29.2224 30.9629 29.2224L31.5946 29.2207C31.6028 29.2207 31.6107 29.224 31.6165 29.2297C31.6223 29.2355 31.6256 29.2434 31.6256 29.2516L31.6251 31.2863C31.6251 31.2945 31.6283 31.3023 31.6342 31.3081C31.64 31.3139 31.6479 31.3172 31.6561 31.3172Z" fill="#A2A7AD"/>
<circle cx="20" cy="20" r="19.5" stroke="black" stroke-opacity="0.05"/>
</svg>
