<svg width="40" height="40" viewBox="0 0 40 40" fill="none" xmlns="http://www.w3.org/2000/svg">
<circle cx="20" cy="20" r="20" fill="#1E1E23"/>
<g clip-path="url(#clip0_20940_31882)">
<path d="M10.9998 20.0407V23.9162H9V14.8776H10.9998V17.973C13.2025 17.189 14.3618 14.8613 14.3618 14.8613H16.7384C15.1692 17.4978 13.4054 18.6474 13.4054 18.6474C13.4054 18.6474 14.6724 18.7002 15.7779 20.057C16.5231 20.971 16.5604 22.4781 16.5604 22.4781V23.9202H14.5689V22.6162C14.5689 22.6162 14.544 20.0407 10.9998 20.0407Z" fill="white"/>
<path d="M17.1438 23.9161V16.0271C17.1438 16.0271 17.1024 14.9994 18.0092 14.8613C18.9449 14.7191 19.5122 15.365 19.5122 15.365L23.4 19.8416V17.2499H25.4164V23.1037C25.4164 23.1037 25.4247 23.8714 24.4186 23.8714C23.7644 23.8714 23.2013 23.059 23.2013 23.059L19.1851 18.4605V22.5349C19.1851 22.5349 19.2306 23.912 18.0672 23.912H17.148L17.1438 23.9161Z" fill="#F08300"/>
<path d="M23.4463 16.6689H28.1539C28.1539 16.6689 29.5948 16.5836 29.5948 17.6439C29.5948 18.631 28.1374 18.6473 28.1374 18.6473H27.7523C27.7523 18.6473 26.7214 18.4888 26.5971 19.3703C26.5433 19.7644 26.9822 20.3778 26.9822 20.3778L29.5617 23.916H31.9962L29.305 20.2153C29.305 20.2153 31.5408 19.801 31.5408 17.6073C31.5449 14.9303 28.4106 14.8775 28.4106 14.8775H24.5642C24.5642 14.8775 23.4504 14.8612 23.4504 15.8646V16.6689H23.4463Z" fill="white"/>
<path d="M9.24828 26.1382L9.83622 26.1016C9.84864 26.1991 9.87348 26.2722 9.91489 26.321C9.97699 26.4022 10.0681 26.4428 10.1882 26.4428C10.2751 26.4428 10.3455 26.4225 10.391 26.3819C10.4407 26.3413 10.4614 26.2925 10.4614 26.2357C10.4614 26.1829 10.4366 26.1382 10.391 26.0935C10.3455 26.0529 10.2378 26.0122 10.0722 25.9757C9.8031 25.9147 9.6085 25.8335 9.49257 25.7319C9.37663 25.6304 9.31867 25.5004 9.31867 25.342C9.31867 25.2404 9.34765 25.1388 9.40976 25.0495C9.46772 24.956 9.55881 24.8829 9.67888 24.8301C9.79896 24.7773 9.96043 24.7529 10.1716 24.7529C10.4283 24.7529 10.6229 24.8017 10.7554 24.8951C10.8879 24.9926 10.9707 25.1429 10.9955 25.3541L10.4117 25.3866C10.3952 25.2973 10.3621 25.2282 10.3124 25.1876C10.2627 25.147 10.1964 25.1267 10.1095 25.1267C10.0391 25.1267 9.98527 25.1429 9.94801 25.1713C9.91075 25.2038 9.89419 25.2404 9.89419 25.281C9.89419 25.3135 9.91075 25.342 9.93973 25.3663C9.96871 25.3948 10.0391 25.4191 10.1468 25.4395C10.4159 25.4963 10.6105 25.5573 10.7264 25.6182C10.8423 25.6791 10.9293 25.7523 10.9831 25.8416C11.0369 25.931 11.0618 26.0285 11.0618 26.1382C11.0618 26.2682 11.0245 26.386 10.9541 26.4957C10.8837 26.6053 10.7844 26.6866 10.656 26.7435C10.5277 26.8003 10.3703 26.8288 10.1757 26.8288C9.83622 26.8288 9.60022 26.7638 9.46772 26.6297C9.33523 26.4957 9.2607 26.3291 9.24414 26.126L9.24828 26.1382Z" fill="white"/>
<path d="M11.165 24.7935H11.8523L12.254 25.4719L12.6597 24.7935H13.3429L12.5645 25.9634V26.8043H11.9476V25.9634L11.1692 24.7935H11.165Z" fill="white"/>
<path d="M13.4009 26.1382L13.9888 26.1016C14.0012 26.1991 14.0261 26.2722 14.0675 26.321C14.1296 26.4022 14.2207 26.4428 14.3407 26.4428C14.4277 26.4428 14.4981 26.4225 14.5436 26.3819C14.5933 26.3413 14.614 26.2925 14.614 26.2357C14.614 26.1829 14.5933 26.1382 14.5436 26.0935C14.4981 26.0529 14.3904 26.0122 14.2248 25.9757C13.9557 25.9147 13.7611 25.8335 13.6451 25.7319C13.5292 25.6304 13.4712 25.5004 13.4712 25.342C13.4712 25.2404 13.5002 25.1388 13.5582 25.0495C13.6162 24.956 13.7072 24.8829 13.8273 24.8301C13.9474 24.7773 14.1089 24.7529 14.32 24.7529C14.5767 24.7529 14.7713 24.8017 14.9038 24.8951C15.0363 24.9926 15.1191 25.1429 15.144 25.3541L14.5602 25.3866C14.5436 25.2973 14.5105 25.2282 14.4608 25.1876C14.4111 25.147 14.3449 25.1267 14.2579 25.1267C14.1875 25.1267 14.1337 25.1429 14.0964 25.1713C14.0592 25.2038 14.0426 25.2404 14.0426 25.281C14.0426 25.3135 14.0592 25.342 14.0882 25.3663C14.1172 25.3948 14.1875 25.4191 14.2952 25.4395C14.5643 25.4963 14.7589 25.5573 14.8748 25.6182C14.9908 25.6791 15.0777 25.7523 15.1316 25.8416C15.1854 25.931 15.2102 26.0285 15.2102 26.1382C15.2102 26.2682 15.173 26.386 15.1026 26.4957C15.0322 26.6053 14.9328 26.6866 14.8045 26.7435C14.6761 26.8003 14.5146 26.8288 14.3242 26.8288C13.9847 26.8288 13.7487 26.7638 13.6162 26.6297C13.4837 26.4957 13.4133 26.3291 13.3926 26.126L13.4009 26.1382Z" fill="white"/>
<path d="M15.4756 24.7935H17.3553V25.2931H16.726V26.8084H16.1091V25.2931H15.4797V24.7935H15.4756Z" fill="white"/>
<path d="M17.72 24.7935H19.3761V25.2241H18.3369V25.545H19.2975V25.9553H18.3369V26.3493H19.401V26.8084H17.7158V24.7935H17.72Z" fill="white"/>
<path d="M19.8184 24.7935H20.634L20.9446 26.0162L21.2551 24.7935H22.0666V26.8084H21.5615V25.2728L21.1723 26.8084H20.7168L20.3276 25.2728V26.8084H19.8225V24.7935H19.8184Z" fill="white"/>
<path d="M22.4438 26.1382L23.0318 26.1016C23.0442 26.1991 23.069 26.2722 23.1104 26.321C23.1725 26.4022 23.2636 26.4428 23.3837 26.4428C23.4707 26.4428 23.541 26.4225 23.5866 26.3819C23.6363 26.3413 23.657 26.2925 23.657 26.2357C23.657 26.1829 23.6321 26.1382 23.5866 26.0935C23.541 26.0529 23.4334 26.0122 23.2678 25.9757C22.9986 25.9147 22.804 25.8335 22.6881 25.7319C22.5722 25.6304 22.5142 25.5004 22.5142 25.342C22.5142 25.2404 22.5432 25.1388 22.6053 25.0495C22.6633 24.956 22.7544 24.8829 22.8744 24.8301C22.9945 24.7773 23.156 24.7529 23.3671 24.7529C23.6238 24.7529 23.8184 24.8017 23.9509 24.8951C24.0834 24.9926 24.1662 25.1429 24.1911 25.3541L23.6073 25.3866C23.5907 25.2973 23.5576 25.2282 23.5079 25.1876C23.4582 25.147 23.3878 25.1267 23.3009 25.1267C23.2305 25.1267 23.1767 25.1429 23.1394 25.1713C23.1022 25.2038 23.0856 25.2404 23.0856 25.281C23.0856 25.3135 23.1022 25.342 23.1311 25.3663C23.1601 25.3948 23.2305 25.4191 23.3382 25.4395C23.6073 25.4963 23.8019 25.5573 23.9178 25.6182C24.0337 25.6791 24.1207 25.7523 24.1745 25.8416C24.2283 25.931 24.2532 26.0285 24.2532 26.1382C24.2532 26.2682 24.2159 26.386 24.1455 26.4957C24.0752 26.6053 23.9758 26.6866 23.8474 26.7435C23.7191 26.8003 23.5617 26.8288 23.3671 26.8288C23.0276 26.8288 22.7916 26.7638 22.6591 26.6297C22.5266 26.4957 22.4562 26.3291 22.4355 26.126L22.4438 26.1382Z" fill="white"/>
<path d="M25.5859 24.7935H26.2029V26.8084H25.5859V24.7935Z" fill="white"/>
<path d="M26.7373 24.7935H27.3128L28.0664 25.9065V24.7935H28.6502V26.8084H28.0664L27.317 25.6993V26.8084H26.7373V24.7935Z" fill="white"/>
<path d="M30.3807 25.984L30.9231 26.1505C30.8858 26.3049 30.8278 26.4308 30.7533 26.5324C30.6746 26.6339 30.5794 26.7111 30.4635 26.7639C30.3475 26.8167 30.2026 26.8411 30.0205 26.8411C29.8052 26.8411 29.6271 26.8086 29.4905 26.7477C29.3538 26.6827 29.2338 26.573 29.1344 26.4105C29.035 26.2521 28.9854 26.0449 28.9854 25.7971C28.9854 25.464 29.0723 25.2081 29.2503 25.0293C29.4242 24.8506 29.6768 24.7612 29.9956 24.7612C30.2482 24.7612 30.4428 24.814 30.5877 24.9156C30.7326 25.0172 30.8403 25.1756 30.9065 25.3868L30.36 25.5087C30.3393 25.4478 30.3227 25.4031 30.302 25.3746C30.2689 25.3259 30.2233 25.2893 30.1737 25.265C30.124 25.2406 30.066 25.2284 30.008 25.2284C29.8673 25.2284 29.7596 25.2853 29.6851 25.399C29.6271 25.4843 29.6023 25.6143 29.6023 25.7971C29.6023 26.0205 29.6354 26.1749 29.7016 26.2562C29.7679 26.3374 29.8631 26.3821 29.9832 26.3821C30.1033 26.3821 30.1902 26.3496 30.2523 26.2805C30.3144 26.2115 30.3558 26.114 30.3848 25.988L30.3807 25.984Z" fill="white"/>
<path d="M31.3164 26.248H31.9085V26.8086H31.3164V26.248Z" fill="white"/>
</g>
<circle cx="20" cy="20" r="19.5" stroke="black" stroke-opacity="0.05"/>
<defs>
<clipPath id="clip0_20940_31882">
<rect width="23" height="12" fill="white" transform="translate(9 14.8408)"/>
</clipPath>
</defs>
</svg>
