<svg width="40" height="40" viewBox="0 0 40 40" fill="none" xmlns="http://www.w3.org/2000/svg">
<circle cx="20" cy="20" r="20" fill="#F6F8FA"/>
<g clip-path="url(#clip0_26526_47893)">
<path d="M23.9731 26.0592C23.6598 26.4152 23.0443 26.5055 22.5607 26.4804C22.0386 26.4553 21.588 26.2648 21.2143 25.9138C20.956 25.673 20.7637 25.3421 20.7637 25.0011C20.7637 23.943 20.7637 22.8799 20.7637 21.8118C20.7637 21.8068 20.7637 21.8018 20.7747 21.8018H22.1321C22.1321 21.8018 22.1486 21.8068 22.1486 21.8168C22.1486 22.7495 22.1486 23.7023 22.1486 24.6701C22.1486 24.9209 22.2365 25.1716 22.5332 25.2267C22.9509 25.307 23.3081 24.9911 23.1927 24.6099C23.0883 24.269 22.6542 24.269 22.3794 24.4094C22.3629 24.4194 22.3574 24.4094 22.3574 24.3993V23.0003C22.3574 23.0003 22.3684 22.9802 22.3794 22.9752C22.9674 22.8899 23.5664 23.0103 23.9951 23.4014C24.0006 23.4064 24.0116 23.4064 24.0226 23.4014C24.2204 23.2209 24.4677 23.0955 24.759 23.0253C25.6383 22.8147 26.622 23.0905 27.0836 23.8277C27.1605 23.948 27.21 24.0684 27.232 24.1787C27.2485 24.274 27.2595 24.3893 27.2595 24.5347C27.2595 25.1716 27.2595 25.8135 27.2595 26.4603C27.2595 26.4704 27.2485 26.4804 27.2375 26.4804H25.8801C25.8801 26.4804 25.8636 26.4754 25.8636 26.4654C25.8636 25.8736 25.8636 25.3421 25.8636 24.8807C25.8636 24.7704 25.8526 24.6451 25.8031 24.5448C25.7042 24.3442 25.5174 24.2589 25.2426 24.284C24.8634 24.3191 24.7205 24.6952 24.8634 24.976C25.0173 25.2869 25.3415 25.2518 25.6328 25.1565C25.6438 25.1565 25.6492 25.1565 25.6547 25.1666V26.4503C25.6547 26.4503 25.6492 26.4654 25.6383 26.4654C25.0777 26.4904 24.4237 26.3801 24.0116 26.0391C24.0006 26.0291 23.9896 26.0291 23.9841 26.0391L23.9731 26.0592ZM23.9181 23.5218C23.9181 23.5218 23.9181 23.5318 23.9181 23.5368C23.9181 23.5368 23.9181 23.5368 23.9236 23.5368H24.083C24.083 23.5368 24.094 23.5368 24.094 23.5268V23.5218L24.0171 23.4516C24.0171 23.4516 24.0061 23.4516 24.0006 23.4516L23.9236 23.5218H23.9181ZM23.7753 23.6873H23.7643L23.6598 23.8277C23.6598 23.8277 23.6598 23.8377 23.6598 23.8427C23.6598 23.8427 23.6598 23.8427 23.6653 23.8427H24.3248C24.3248 23.8427 24.3358 23.8427 24.3358 23.8327C24.3358 23.8327 24.3358 23.8327 24.3358 23.8277L24.2314 23.6873C24.2314 23.6873 24.2259 23.6822 24.2204 23.6873H23.7698H23.7753ZM23.5719 24.0032C23.5719 24.0032 23.5609 24.0032 23.5554 24.0132L23.4895 24.1486C23.4895 24.1486 23.4895 24.1687 23.5005 24.1687C23.5005 24.1687 23.5005 24.1687 23.506 24.1687H24.5062C24.5062 24.1687 24.5227 24.1636 24.5227 24.1536C24.5227 24.1536 24.5227 24.1536 24.5227 24.1486L24.4567 24.0132C24.4567 24.0132 24.4457 24.0032 24.4402 24.0032H23.5774H23.5719ZM23.4345 24.3191C23.4345 24.3191 23.4235 24.3191 23.4235 24.3291L23.3906 24.4796C23.3906 24.4796 23.3906 24.4896 23.4016 24.4946H24.6051C24.6051 24.4946 24.6161 24.4946 24.6161 24.4846L24.5831 24.3341C24.5831 24.3341 24.5776 24.3241 24.5721 24.3241H23.4345V24.3191ZM24.6436 24.6551C24.6436 24.6551 24.6381 24.64 24.6271 24.64H23.3796C23.3796 24.64 23.3631 24.6451 23.3631 24.6551V24.8005C23.3631 24.8005 23.3686 24.8155 23.3796 24.8155H24.6271C24.6271 24.8155 24.6436 24.8105 24.6436 24.8005V24.6551ZM24.5776 25.1315C24.5776 25.1315 24.5941 25.1315 24.5941 25.1214L24.6271 24.976C24.6271 24.976 24.6271 24.961 24.6161 24.956H23.4016C23.4016 24.956 23.3851 24.961 23.3851 24.971L23.418 25.1164C23.418 25.1164 23.429 25.1265 23.4345 25.1265H24.5831L24.5776 25.1315ZM23.4785 25.2819C23.4785 25.2819 23.462 25.2869 23.462 25.297C23.462 25.297 23.462 25.297 23.462 25.302L23.5225 25.4424C23.5225 25.4424 23.5334 25.4524 23.5389 25.4524H24.4567C24.4567 25.4524 24.4677 25.4524 24.4732 25.4424L24.5336 25.302C24.5336 25.302 24.5336 25.2869 24.5227 25.2819C24.5227 25.2819 24.5227 25.2819 24.5172 25.2819H23.4785ZM24.2479 25.7683C24.2479 25.7683 24.2534 25.7683 24.2589 25.7683L24.3688 25.6179C24.3688 25.6179 24.3688 25.6079 24.3688 25.6028C24.3688 25.6028 24.3688 25.6028 24.3633 25.6028H23.6379C23.6379 25.6028 23.6269 25.6028 23.6269 25.6129C23.6269 25.6129 23.6269 25.6129 23.6269 25.6179L23.7368 25.7683C23.7368 25.7683 23.7368 25.7683 23.7478 25.7683H24.2534H24.2479ZM24.0885 25.9388C24.0885 25.9388 24.094 25.9238 24.0885 25.9188C24.0885 25.9188 24.083 25.9188 24.0775 25.9188H23.8907C23.8907 25.9188 23.8742 25.9288 23.8742 25.9338C23.8742 25.9338 23.8742 25.9388 23.8742 25.9438L23.9621 26.0191C23.9621 26.0191 23.9786 26.0191 23.9841 26.0191L24.083 25.9388H24.0885Z" fill="#3A83B9"/>
<path d="M15.0639 26.4756L15.0254 21.8271C15.0254 21.8271 15.0309 21.812 15.0419 21.812H16.4927C16.4927 21.812 16.5092 21.812 16.5092 21.822V26.4706C16.5092 26.4806 16.5037 26.4856 16.4927 26.4856H15.0803C15.0803 26.4856 15.0639 26.4856 15.0639 26.4756Z" fill="#3A83B9"/>
<path d="M27.4627 26.4706L27.4297 21.8321C27.4297 21.8321 27.4407 21.812 27.4517 21.812H28.886C28.886 21.812 28.908 21.817 28.908 21.8271V26.4656C28.908 26.4756 28.897 26.4856 28.886 26.4856H27.4846C27.4846 26.4856 27.4627 26.4806 27.4627 26.4706Z" fill="#3A83B9"/>
<path d="M12.1512 27.8644V26.7461C12.1512 26.7461 12.1567 26.7261 12.1732 26.7311C12.404 26.8113 12.6183 26.8464 12.8272 26.8464C13.2558 26.8464 13.5361 26.5355 13.5361 26.1594C13.5361 25.7181 13.5361 25.2167 13.5361 24.655C13.5361 24.5698 13.5196 24.4946 13.4921 24.4344C13.3547 24.1586 12.992 24.0583 12.7228 24.2238C12.404 24.4244 12.426 24.8506 12.7502 25.0311C12.9151 25.1214 13.1294 25.1164 13.2943 25.0311C13.3108 25.0211 13.3218 25.0311 13.3218 25.0462V26.1945C13.3218 26.1945 13.3163 26.2146 13.2998 26.2196C13.1074 26.2547 12.9096 26.2747 12.7173 26.2647C11.816 26.2346 11.14 25.6329 11.1016 24.8055C11.0851 24.4394 11.173 24.1084 11.3708 23.8126C11.8435 23.1055 12.6843 22.8197 13.5691 22.9952C14.4594 23.1757 14.943 23.8978 14.943 24.6951C14.943 25.1164 14.943 25.5476 14.943 25.9889C14.943 26.2196 14.932 26.4001 14.9045 26.5355C14.7231 27.378 14.0472 27.9847 13.0745 27.9847C12.7502 27.9847 12.437 27.9647 12.1622 27.8644C12.1622 27.8644 12.1567 27.8594 12.1567 27.8544L12.1512 27.8644Z" fill="#3A83B9"/>
<path d="M20.5654 24.7252C20.5654 25.7031 19.6971 26.4954 18.6255 26.4954C17.5538 26.4954 16.6855 25.7031 16.6855 24.7252C16.6855 23.7474 17.5538 22.9551 18.6255 22.9551C19.6971 22.9551 20.5654 23.7474 20.5654 24.7252ZM19.2135 24.7252C19.2135 24.4294 18.9497 24.1887 18.6255 24.1887C18.3012 24.1887 18.0375 24.4294 18.0375 24.7252C18.0375 25.0211 18.3012 25.2618 18.6255 25.2618C18.9497 25.2618 19.2135 25.0211 19.2135 24.7252Z" fill="#3A83B9"/>
<path d="M9.22041 19.2474C8.95113 19.5583 8.45103 19.6636 8.01138 19.6736C7.242 19.6987 6.54956 19.3577 6.17586 18.756C6.05496 18.5704 6 18.3648 6 18.1341C6 17.1312 6 16.0932 6 15.0201C6 15.005 6.0055 15 6.02198 15H7.3739C7.3739 15 7.39588 15.01 7.39588 15.0201C7.39588 15.9979 7.39588 16.9808 7.39588 17.9586C7.39588 18.2645 7.64868 18.4902 7.9949 18.435C8.2367 18.3999 8.38508 18.2695 8.44553 18.0489C8.484 17.9035 8.43454 17.7129 8.30265 17.6126C8.10481 17.4672 7.84102 17.5123 7.6212 17.6126C7.6157 17.6126 7.61021 17.6126 7.60471 17.6126V16.2085C7.60471 16.2085 7.61021 16.1935 7.6212 16.1935C8.21472 16.1082 8.82473 16.2286 9.24239 16.6247C9.24789 16.6298 9.25888 16.6298 9.26438 16.6247C9.6106 16.2888 10.1602 16.1634 10.6548 16.1784C11.1274 16.1935 11.5395 16.3289 11.8913 16.5896C12.1551 16.7852 12.4024 17.0861 12.4683 17.402C12.4848 17.4873 12.4958 17.5725 12.4903 17.6628C12.4903 18.3949 12.4903 19.0719 12.4903 19.6887C12.4903 19.6937 12.4848 19.7037 12.4738 19.7037H11.1109C11.1109 19.7037 11.0889 19.6937 11.0889 19.6837C11.0889 19.1672 11.0889 18.6456 11.0889 18.1241C11.0889 18.0038 11.0889 17.8784 11.034 17.7631C10.924 17.5474 10.7152 17.4672 10.4239 17.5123C10.0612 17.5725 9.96232 17.9887 10.1272 18.2495C10.2866 18.4952 10.5833 18.4802 10.8581 18.3849C10.8691 18.3849 10.8801 18.3849 10.8856 18.3949C10.8856 18.3949 10.8856 18.3949 10.8856 18.3999V19.6786C10.8856 19.6786 10.8801 19.6937 10.8691 19.6937C10.303 19.7188 9.66555 19.6135 9.2369 19.2674C9.2314 19.2624 9.22041 19.2674 9.21492 19.2674L9.22041 19.2474ZM9.16546 16.71C9.16546 16.71 9.15996 16.725 9.16546 16.73C9.16546 16.73 9.17095 16.73 9.17645 16.73H9.32483C9.32483 16.73 9.34132 16.72 9.34132 16.715C9.34132 16.715 9.34132 16.71 9.34132 16.705L9.26438 16.6398C9.26438 16.6398 9.24789 16.6398 9.24239 16.6398L9.17095 16.705L9.16546 16.71ZM9.57763 17.046C9.57763 17.046 9.58862 17.046 9.58862 17.0359C9.58862 17.0359 9.58862 17.0359 9.58862 17.0309L9.4842 16.8855C9.4842 16.8855 9.4787 16.8855 9.47321 16.8855H9.01708C9.01708 16.8855 9.01158 16.8855 9.00608 16.8855L8.90167 17.0309C8.90167 17.0309 8.90167 17.041 8.90167 17.046C8.90167 17.046 8.90167 17.046 8.90716 17.046H9.57763ZM8.81374 17.1964C8.81374 17.1964 8.80275 17.1964 8.80275 17.2014L8.73131 17.3468C8.73131 17.3468 8.73131 17.3619 8.7368 17.3619H9.74799C9.74799 17.3619 9.75898 17.3619 9.75898 17.3519L9.68754 17.2064C9.68754 17.2064 9.68204 17.2014 9.67655 17.2014H8.80275L8.81374 17.1964ZM9.8524 17.6878C9.8524 17.6878 9.8634 17.6828 9.8634 17.6778L9.83042 17.5324C9.83042 17.5324 9.82493 17.5224 9.81943 17.5224H8.68734C8.68734 17.5224 8.67635 17.5224 8.67635 17.5324L8.64338 17.6778C8.64338 17.6778 8.64338 17.6929 8.65437 17.6929H9.8579L9.8524 17.6878ZM9.89087 17.8483C9.89087 17.8483 9.87988 17.8333 9.87439 17.8333H8.63238C8.63238 17.8333 8.6159 17.8433 8.6159 17.8483V17.9887C8.6159 17.9887 8.62689 18.0038 8.63238 18.0038H9.87439C9.87439 18.0038 9.89087 17.9937 9.89087 17.9887V17.8483ZM9.82493 18.3247C9.82493 18.3247 9.84141 18.3197 9.84141 18.3097L9.87439 18.1642C9.87439 18.1642 9.87439 18.1492 9.8634 18.1442H8.64887C8.64887 18.1442 8.63238 18.1492 8.63238 18.1592L8.66536 18.3046C8.66536 18.3046 8.67635 18.3197 8.68184 18.3197H9.83592L9.82493 18.3247ZM8.72581 18.4751C8.72581 18.4751 8.70932 18.4802 8.70932 18.4902C8.70932 18.4902 8.70932 18.4902 8.70932 18.4952L8.76977 18.6356C8.76977 18.6356 8.78077 18.6456 8.78626 18.6456H9.70402C9.70402 18.6456 9.71501 18.6456 9.72051 18.6356L9.78096 18.4952C9.78096 18.4952 9.78096 18.4802 9.76997 18.4751C9.76997 18.4751 9.76997 18.4751 9.76448 18.4751H8.72581ZM8.87969 18.7911C8.87969 18.7911 8.86869 18.7911 8.86869 18.8011C8.86869 18.8011 8.86869 18.8011 8.86869 18.8061L8.97861 18.9565C8.97861 18.9565 8.9841 18.9616 8.9896 18.9565H9.49519C9.49519 18.9565 9.50618 18.9565 9.50618 18.9515L9.61609 18.8011C9.61609 18.8011 9.61609 18.7911 9.61609 18.786C9.61609 18.786 9.61609 18.786 9.6106 18.786H8.88518L8.87969 18.7911ZM9.33582 19.1321C9.33582 19.1321 9.34132 19.122 9.33582 19.117C9.33582 19.117 9.33032 19.117 9.32483 19.117H9.13248C9.13248 19.117 9.12149 19.122 9.12149 19.127C9.12149 19.127 9.12149 19.1321 9.12149 19.1371L9.21492 19.2173C9.21492 19.2173 9.22591 19.2173 9.2314 19.2173L9.33032 19.1371L9.33582 19.1321Z" fill="#3A83B9"/>
<path d="M17.6724 17.4522C17.6724 17.4522 17.6614 17.4321 17.6614 17.4522V19.6686C17.6614 19.6686 17.6559 19.6786 17.6504 19.6786H16.2271C16.2271 19.6786 16.2051 19.6686 16.2051 19.6586V15.01C16.2051 15.01 16.2051 15 16.2161 15H17.6559C17.6559 15 17.6669 15 17.6669 15.01V17.3519C17.6669 17.3519 17.6669 17.3769 17.6834 17.3519L18.2879 16.1985C18.2879 16.1985 18.3044 16.1835 18.3154 16.1835H19.7332C19.7332 16.1835 19.7607 16.1935 19.7497 16.2085L19.0903 17.4321C19.0903 17.4321 19.0903 17.4471 19.0903 17.4522L20.1124 19.6586C20.1124 19.6586 20.1124 19.6736 20.1069 19.6736H18.6066C18.6066 19.6736 18.5737 19.6636 18.5627 19.6486L17.6724 17.4471V17.4522Z" fill="#3A83B9"/>
<path d="M32.6034 17.5475C32.6034 17.5475 32.6254 17.5374 32.6199 17.5224C32.5265 17.3218 32.3012 17.1463 32.0484 17.1914C31.4439 17.2967 31.3779 18.2294 31.8231 18.5303C32.0594 18.6908 32.3396 18.6005 32.5265 18.405C32.532 18.3999 32.543 18.3999 32.5485 18.405L33.2959 19.2324C33.2959 19.2324 33.3069 19.2775 33.2904 19.2875C32.9661 19.5182 32.6144 19.6486 32.2407 19.6787C31.246 19.7589 30.3502 19.2374 30.1579 18.3147C29.9106 17.1312 30.7624 16.1233 32.0923 16.1434C32.7024 16.1484 33.2739 16.4292 33.6311 16.8805C33.9114 17.2416 34.0323 17.6528 33.9828 18.1141C33.9828 18.1241 33.9718 18.1342 33.9553 18.1342H31.834C31.834 18.1342 31.8231 18.1342 31.8231 18.1241V17.5575C31.8231 17.5575 31.8286 17.5424 31.8395 17.5424H32.5979L32.6034 17.5475Z" fill="#3A83B9"/>
<path d="M14.3151 17.4269C14.2051 17.432 14.1227 17.5022 14.1227 17.6025C14.1227 18.2995 14.1227 18.9865 14.1227 19.6635C14.1227 19.6735 14.1117 19.6785 14.1062 19.6785H12.6939C12.6939 19.6785 12.6719 19.6685 12.6719 19.6585C12.6719 18.9363 12.6719 18.1892 12.6719 17.4119C12.6719 17.3066 12.7103 17.1762 12.7873 17.0208C13.1115 16.3638 13.7985 16.1181 14.5514 16.1883C15.2273 16.2535 15.6835 16.5795 15.9198 17.1662C15.9472 17.2414 15.9637 17.3166 15.9637 17.4019C15.9637 18.1541 15.9637 18.9063 15.9637 19.6635C15.9637 19.6685 15.9582 19.6785 15.9472 19.6785H14.6173C14.6173 19.6785 14.5898 19.6685 14.5898 19.6534C14.5898 18.9865 14.5898 18.3246 14.5898 17.6827C14.5898 17.5222 14.5019 17.4169 14.3096 17.4269H14.3151Z" fill="#3A83B9"/>
<path d="M22.4873 19.2425C22.4873 19.2425 22.4708 19.2726 22.4598 19.2826C22.0477 19.6186 21.5696 19.744 21.0255 19.6537C20.7947 19.6186 20.5968 19.5384 20.4265 19.423C20.1572 19.2425 19.9923 18.9216 19.9758 18.6157C19.9703 18.4903 19.9648 18.3599 19.9648 18.2296C19.9648 17.4824 19.9648 16.8004 19.9648 16.1986C19.9648 16.1886 19.9703 16.1836 19.9813 16.1836H21.3497C21.3497 16.1836 21.3717 16.1886 21.3717 16.2037C21.3717 16.8856 21.3717 17.5576 21.3717 18.2296C21.3717 18.365 21.3937 18.5004 21.5805 18.5054C21.7014 18.5054 21.7619 18.4201 21.7619 18.3198C21.7619 17.6328 21.7619 16.9258 21.7619 16.1986C21.7619 16.1936 21.7619 16.1886 21.7729 16.1886H23.1962C23.1962 16.1886 23.2127 16.1936 23.2127 16.2037C23.2127 16.9107 23.2127 17.6178 23.2127 18.3198C23.2127 18.4602 23.3391 18.5455 23.4875 18.4953C23.5864 18.4602 23.6084 18.3549 23.6084 18.2697C23.6084 17.6077 23.6084 16.9207 23.6084 16.2087C23.6084 16.1986 23.6139 16.1936 23.6249 16.1936H24.9878C24.9878 16.1936 25.0208 16.2037 25.0208 16.2237V16.2739C25.0208 16.2739 25.0263 16.2939 25.0428 16.2889C25.5648 16.1435 26.1639 16.1485 26.664 16.3641C27.3839 16.675 27.6916 17.3169 27.6861 18.0189C27.6861 18.5655 27.6861 19.1172 27.6861 19.6788C27.6861 19.6888 27.6751 19.6988 27.6642 19.6988H26.3067C26.3067 19.6988 26.2903 19.6888 26.2903 19.6838C26.2903 19.1723 26.2903 18.6658 26.2903 18.1543C26.2903 17.9638 26.2903 17.7983 26.1529 17.6429C26.0594 17.5375 25.9276 17.4824 25.7627 17.4824C25.4659 17.4774 25.2791 17.6479 25.2406 17.9136C25.2296 17.9738 25.2406 18.039 25.2571 18.0992C25.3615 18.4552 25.7682 18.5004 26.1034 18.395C26.1089 18.395 26.1144 18.395 26.1144 18.4001V19.6888C26.1144 19.6888 26.1144 19.6988 26.1034 19.6988C25.5703 19.7089 25.0922 19.6036 24.6691 19.3829C24.6581 19.3779 24.6471 19.3829 24.6416 19.3829C24.4053 19.5685 24.103 19.6738 23.7293 19.6938C23.2897 19.7189 22.8885 19.5885 22.5368 19.3027C22.5258 19.2927 22.5148 19.2776 22.5093 19.2626C22.5093 19.2425 22.4983 19.2425 22.4873 19.2626V19.2425ZM25.0098 16.309C25.0098 16.309 25.0098 16.2989 24.9933 16.2989C24.7625 16.3691 24.5592 16.4744 24.3888 16.6098C24.3723 16.6199 24.3778 16.6299 24.3943 16.6299H24.9823C24.9823 16.6299 25.0043 16.6199 25.0043 16.6098V16.314L25.0098 16.309ZM24.2239 16.7753C24.2239 16.7753 24.2184 16.7753 24.2129 16.7753L24.0865 16.9258V16.9408C24.0865 16.9408 24.0865 16.9408 24.092 16.9408H24.9933C24.9933 16.9408 25.0043 16.9408 25.0043 16.9308V16.7803C25.0043 16.7753 24.9988 16.7703 24.9933 16.7703H24.2184L24.2239 16.7753ZM23.9876 17.0912C23.9876 17.0912 23.9766 17.0912 23.9766 17.0963L23.9052 17.2517C23.9052 17.2517 23.9052 17.2617 23.9107 17.2668H24.9933C24.9933 17.2668 25.0043 17.2668 25.0043 17.2567V17.1013C25.0043 17.1013 25.0043 17.0912 24.9933 17.0912H23.9821H23.9876ZM24.9988 17.5877C24.9988 17.5877 25.0098 17.5827 25.0098 17.5777V17.4272C25.0098 17.4272 25.0043 17.4172 24.9933 17.4172H23.8667C23.8667 17.4172 23.8557 17.4172 23.8557 17.4272L23.8282 17.5777C23.8282 17.5777 23.8282 17.5927 23.8392 17.5927H24.9933L24.9988 17.5877ZM25.0098 17.7482C25.0098 17.7482 25.0043 17.7381 24.9988 17.7381H23.8282C23.8282 17.7381 23.8172 17.7431 23.8172 17.7482V17.8936C23.8172 17.8936 23.8227 17.9036 23.8282 17.9036H24.9988C24.9988 17.9036 25.0098 17.8986 25.0098 17.8936V17.7482ZM23.8337 18.054C23.8337 18.054 23.8227 18.0591 23.8227 18.0641L23.8447 18.2095C23.8447 18.2095 23.8502 18.2195 23.8557 18.2195H24.9988C24.9988 18.2195 25.0098 18.2195 25.0098 18.2095V18.0641C25.0098 18.0641 25.0043 18.054 24.9988 18.054H23.8337ZM23.8942 18.375C23.8942 18.375 23.8832 18.38 23.8832 18.385L23.9327 18.5304C23.9327 18.5304 23.9382 18.5405 23.9436 18.5405H24.9988C24.9988 18.5405 25.0098 18.5405 25.0098 18.5304V18.38C25.0098 18.38 25.0098 18.37 24.9988 18.37H23.8942V18.375ZM24.0316 18.6859C24.0316 18.6859 24.0096 18.6959 24.0096 18.706C24.0096 18.706 24.0096 18.711 24.0096 18.716L24.0975 18.8564C24.0975 18.8564 24.1085 18.8664 24.114 18.8664H24.9329C24.9329 18.8664 24.9493 18.8664 24.9548 18.8514L24.9933 18.711C24.9933 18.711 24.9933 18.6909 24.9768 18.6909H24.0316V18.6859ZM24.6306 19.3278C24.6306 19.3278 24.6526 19.3278 24.6581 19.3278C24.757 19.2375 24.8339 19.1372 24.8889 19.0219C24.8889 19.0219 24.8889 19.0118 24.8834 19.0068H24.2459C24.2459 19.0068 24.2239 19.0118 24.2349 19.0269C24.3448 19.1372 24.4767 19.2425 24.6306 19.3328V19.3278Z" fill="#3A83B9"/>
<path d="M29.3447 17.6227C29.3447 17.6227 29.3282 17.6528 29.3282 17.6678V19.6637C29.3282 19.6637 29.3227 19.6837 29.3117 19.6837H27.8994C27.8994 19.6837 27.8829 19.6787 27.8829 19.6687C27.8664 19.1421 27.8554 18.6206 27.8499 18.0941C27.8499 17.6779 27.8279 17.4723 27.9214 17.1714C28.0532 16.7602 28.328 16.4693 28.7512 16.2989C29.1304 16.1484 29.5206 16.1785 29.9217 16.1835C29.9327 16.1835 29.9382 16.1885 29.9382 16.1986V17.5074C29.9382 17.5074 29.9327 17.5224 29.9217 17.5224C29.8063 17.5224 29.6909 17.5224 29.57 17.5224C29.4656 17.5224 29.3887 17.5575 29.3337 17.6227H29.3447Z" fill="#3A83B9"/>
</g>
<circle cx="20" cy="20" r="19.5" stroke="black" stroke-opacity="0.05"/>
<defs>
<clipPath id="clip0_26526_47893">
<rect width="28" height="13" fill="white" transform="translate(6 15)"/>
</clipPath>
</defs>
</svg>
