<svg width="40" height="40" viewBox="0 0 40 40" fill="none" xmlns="http://www.w3.org/2000/svg">
<circle cx="20" cy="20" r="20" fill="#285DA7"/>
<g clip-path="url(#clip0_18695_29048)">
<path d="M15.5947 27.3095C13.3725 26.8401 11.222 26.0133 9.45854 24.6542C9.22198 24.472 8.95675 24.2198 8.65567 23.8975C7.93166 23.1759 7.42987 22.3842 7.1718 21.5155C7.02843 21.039 6.97108 20.4786 7.02126 19.841C7.13596 18.1876 8.31159 16.7163 9.60908 15.7354C10.6557 14.9508 11.8743 14.3132 13.2722 13.8298C14.9854 13.2343 16.8062 12.884 18.7202 12.7789C19.903 12.7158 21.1001 12.7088 22.2686 12.8489C22.8205 12.919 23.5231 13.0311 24.3689 13.1922C26.0177 13.5075 27.5804 14.061 29.0499 14.8527C30.3904 15.5743 31.7094 16.6883 32.4191 18.0334C33.2148 19.5467 33.1861 21.0671 32.3331 22.5804C31.4012 24.2478 29.5302 25.4949 27.7309 26.2586C26.4048 26.819 24.9998 27.2184 23.5087 27.4496C20.8349 27.87 18.1969 27.8139 15.5876 27.3025L15.5947 27.3095ZM18.2256 13.9489C16.8779 14.124 15.5517 14.4603 14.2471 14.9578C14.2471 14.9578 14.2471 14.9578 14.2471 14.9648C14.2471 14.9648 14.2471 14.9648 14.2542 14.9648C18.1897 13.7878 22.0894 13.8158 25.946 15.0348C28.1395 15.7284 31.2722 17.4099 31.3654 20.0021C31.4155 21.4874 30.4335 22.7765 29.2578 23.6243C28.1682 24.409 26.9352 24.9134 25.6091 25.3548C25.437 25.4108 25.3582 25.3548 25.3725 25.1726C25.4585 24.1918 25.6664 23.2179 25.9962 22.2371C26.0392 22.104 26.161 22.0689 26.2973 22.0899C27.5804 22.3141 28.9424 22.0199 29.8026 21.011C30.713 19.9391 30.756 18.1736 29.0929 17.7532C28.4119 17.578 27.7453 17.5921 27.1001 17.7882C26.1252 18.0895 25.7238 19.0143 25.4155 19.9041C24.7059 21.9218 24.0679 24.0446 24.0105 26.1745C24.0105 26.1955 24.0248 26.2095 24.0464 26.2095C24.0464 26.2095 24.0464 26.2095 24.0535 26.2095C26.6413 25.6771 29.6879 24.5491 31.1861 22.2861C31.6306 21.6065 31.8528 20.8709 31.8385 20.0722C31.817 19.0423 31.3797 18.1175 30.6987 17.3749C30.0177 16.6322 29.2292 16.0297 28.3403 15.5673C26.7632 14.7546 24.9424 14.1941 23.1216 14.0049C22.5697 13.9489 22.0177 13.8999 21.4585 13.8578C20.3761 13.7737 19.2937 13.8018 18.2184 13.9419L18.2256 13.9489ZM10.3761 17.1507C10.3761 17.3609 10.2399 17.6061 10.1826 17.8233C10.0894 18.1736 10.0033 18.5379 9.91015 18.9162C9.82413 19.2525 9.75245 19.6238 9.68793 20.0232C9.60908 20.5206 9.57324 20.8989 9.5804 21.1441C9.61625 22.0829 10.5697 22.2091 11.3295 22.181C12.5768 22.132 13.5589 21.6416 14.2829 20.7098C14.5553 20.3594 14.7202 19.9531 14.7847 19.4837C14.8779 18.7831 14.5625 18.1946 13.8886 17.9143C13.308 17.6761 12.6413 17.7041 12.032 17.7462C11.9245 17.7462 11.8241 17.7742 11.7309 17.8162C11.7023 17.8303 11.6736 17.8303 11.6449 17.8162C11.5302 17.7812 11.48 17.7041 11.5087 17.585C11.7023 16.8144 11.9747 16.0437 12.3116 15.28C12.3331 15.231 12.3188 15.224 12.2757 15.245C10.8349 15.9316 9.7166 16.8074 8.92807 17.8723C8.66284 18.2226 8.46212 18.6009 8.32592 19.0073C8.13954 19.5538 8.11087 20.3314 8.21123 20.8569C8.67001 23.253 11.4585 24.9204 13.6951 25.565C14.8636 25.9013 15.946 26.1184 16.9496 26.2095C18.6055 26.3637 20.2686 26.3286 21.9532 26.0904C21.9675 26.0904 21.9675 26.0834 21.9675 26.0694C21.9675 26.0694 21.9675 26.0554 21.9532 26.0554C21.4944 26.0694 21.0213 26.0904 20.5338 26.1184C20.1037 26.1465 19.6306 26.1395 19.1145 26.1184C18.4478 26.0834 17.8456 26.0344 17.308 25.9713C15.903 25.8102 14.498 25.4599 13.1001 24.9064C11.7883 24.3879 10.4478 23.6033 9.57324 22.5383C8.89223 21.7116 8.43345 20.5906 8.67718 19.5047C8.8994 18.5519 9.48005 17.7672 10.2041 17.0876C10.2471 17.0456 10.3116 17.0526 10.3546 17.0876C10.3761 17.1086 10.3833 17.1297 10.3833 17.1577L10.3761 17.1507ZM22.3689 19.6729C22.4191 19.6939 22.4478 19.7429 22.4478 19.792C22.4478 20.3244 22.4263 20.8429 22.4048 21.3613C22.3976 21.5505 22.4263 22.111 22.6915 22.146C23.0571 22.188 23.2937 22.2301 23.5087 21.8798C24.2112 20.7098 25.0499 19.3436 26.0177 17.7812C26.0822 17.6831 26.0535 17.6341 25.9317 17.6341H25.0929C24.9854 17.6341 24.9066 17.6761 24.8564 17.7672C24.584 18.2366 24.3044 18.699 24.0248 19.1544C23.9102 19.3366 23.8671 19.5397 23.6808 19.6729C23.6449 19.6939 23.6019 19.6869 23.5804 19.6518C23.5732 19.6378 23.5661 19.6238 23.5661 19.6168V17.9003C23.5589 17.7602 23.4442 17.6411 23.3008 17.6341C22.9567 17.6201 22.5697 17.585 22.3474 17.9143C22.032 18.3977 21.7094 18.9022 21.3869 19.4206C21.1431 19.813 21.0356 19.7779 21.0643 19.3226C21.0929 18.8952 21.1216 18.3697 21.136 17.7462C21.136 17.6831 21.0858 17.6271 21.0213 17.6201L20.0965 17.6341C20.0535 17.6341 20.032 17.6551 20.032 17.6971C19.989 18.5028 19.9173 19.2945 19.9102 20.0862C19.9102 20.6187 19.8815 21.1021 19.8313 21.5365C19.8098 21.7467 19.8743 21.9428 20.0392 22.125C20.0679 22.16 20.1109 22.174 20.1539 22.174C20.4263 22.16 20.6987 22.2721 20.8707 21.9849C21.3223 21.2492 21.7668 20.4996 22.2112 19.7359C22.2471 19.6729 22.2972 19.6518 22.3618 19.6799L22.3689 19.6729ZM17.2005 21.2282C16.7202 21.1792 16.4119 20.7238 16.3904 20.2824C16.3403 19.3856 16.9711 18.5939 17.9317 18.5869C18.2829 18.5869 18.5983 18.643 18.8851 18.7691C18.9496 18.7971 18.9998 18.7831 19.0428 18.734L19.5231 18.1665C19.5876 18.0895 19.5732 18.0334 19.48 17.9914C19.1431 17.8513 18.8636 17.7672 18.6557 17.7392C18.075 17.6691 17.3653 17.6691 16.8205 17.8863C15.7668 18.3137 15.1933 19.1054 15.1145 20.2544C15.0786 20.7308 15.222 21.1511 15.5302 21.5295C16.2972 22.4613 17.9603 22.2231 18.9424 21.8447C18.9711 21.8377 18.9854 21.8027 18.9711 21.7817C18.9711 21.7817 18.9711 21.7747 18.9639 21.7677L18.5051 21.2212C18.5051 21.2212 18.4406 21.1722 18.3976 21.1862C18.0177 21.2562 17.6162 21.2702 17.1933 21.2282H17.2005Z" fill="white"/>
<path d="M11.2581 18.8323C11.2724 18.7903 11.3154 18.7553 11.3656 18.7413C12.0251 18.5871 13.7383 18.3419 13.5305 19.568C13.4588 19.9673 13.2007 20.3737 12.7419 20.794C12.319 21.1794 11.81 21.3195 11.2079 21.2144C10.7563 21.1373 10.8208 20.731 10.8638 20.4017C10.9498 19.8272 11.0788 19.3088 11.2652 18.8253L11.2581 18.8323Z" fill="white"/>
<path d="M26.3762 20.9759C26.5339 20.4294 26.7418 19.8829 27.007 19.3715C27.1002 19.1963 27.2292 19.0422 27.3941 18.9161C28.1826 18.3066 29.6378 18.6709 29.2077 19.8829C28.8493 20.9058 27.5447 21.3332 26.5482 21.2211C26.4407 21.2071 26.3619 21.116 26.3762 21.0039C26.3762 20.9969 26.3762 20.9829 26.3762 20.9759Z" fill="white"/>
</g>
<circle cx="20" cy="20" r="19.5" stroke="black" stroke-opacity="0.05"/>
<defs>
<clipPath id="clip0_18695_29048">
<rect width="26" height="15" fill="white" transform="translate(7 12.7368)"/>
</clipPath>
</defs>
</svg>
