<svg width="40" height="40" viewBox="0 0 40 40" fill="none" xmlns="http://www.w3.org/2000/svg">
<circle cx="20" cy="20" r="20" fill="#FB0008"/>
<path d="M9.0001 26.8583C9.16541 26.7756 9.1948 26.6066 9.27562 26.4808C12.1386 21.819 15.0006 17.156 17.8617 12.4917C17.9086 12.4155 17.9591 12.3411 18.0454 12.2107C21.5555 17.8956 25.055 23.5609 28.5437 29.2066C28.4518 29.3205 28.3398 29.2736 28.2479 29.2746C27.3699 29.2746 26.4919 29.2691 25.614 29.2828C25.5166 29.2918 25.4187 29.2709 25.3335 29.2228C25.2484 29.1747 25.1799 29.1018 25.1373 29.0137C22.8444 25.2936 20.545 21.5765 18.2392 17.8625C18.1813 17.7707 18.1171 17.6788 18.0353 17.5576C17.5844 18.2923 17.15 18.9912 16.7174 19.6947C15.4105 21.8199 14.1092 23.9478 12.794 26.0675C12.6333 26.3256 12.6425 26.4349 12.9327 26.5781C14.6538 27.4047 16.4281 27.4111 18.2319 26.9455C19.4413 26.6291 20.5816 26.0913 21.595 25.3594C21.7989 25.2143 21.9009 25.1914 22.0432 25.4402C22.4179 26.0923 22.822 26.726 23.2206 27.3689C23.2959 27.4892 23.3281 27.5526 23.1784 27.6573C21.1579 29.0349 18.9537 29.8798 16.4649 30.0194C16.1407 30.0671 15.844 30.0332 15.5207 30.0442C13.1329 30.0626 11.1317 29.2176 9.45011 27.5792C9.27005 27.4121 9.12246 27.2131 9.01479 26.9923C9.00266 26.9487 8.9977 26.9035 9.0001 26.8583Z" fill="white"/>
<path d="M20.9999 9.00192C21.5436 9.12683 22.079 9.14611 22.6007 9.26642C26.0291 10.0572 28.4739 12.6893 28.9147 16.1204C29.2453 18.6865 28.5932 21.044 27.3066 23.25C27.0538 23.6907 26.7679 24.1116 26.4515 24.5091C25.9354 23.6679 25.4349 22.8468 24.9261 22.0294C24.8342 21.8788 24.9463 21.798 25.0014 21.7006C25.6966 20.4718 26.1577 19.1723 26.2385 17.7515C26.4019 14.8879 24.8434 12.6645 22.0836 11.8389C20.9838 11.5009 19.8204 11.4236 18.6855 11.6129C18.6102 11.6258 18.5322 11.6276 18.3926 11.6405C18.9308 10.7607 19.4451 9.92216 19.9768 9.06897C20.2523 9.01019 20.5141 9.0506 20.8034 9.0157C20.8682 9.00394 20.9341 8.99932 20.9999 9.00192Z" fill="white"/>
<circle cx="20" cy="20" r="19.5" stroke="black" stroke-opacity="0.05"/>
</svg>
