<svg width="40" height="40" viewBox="0 0 40 40" fill="none" xmlns="http://www.w3.org/2000/svg">
<circle cx="20" cy="20" r="20" fill="#F6F8FA"/>
<path d="M35.994 17.038C35.994 16.2585 35.6009 15.8108 34.926 15.8108C34.8597 15.8111 34.7935 15.8151 34.7277 15.8227H34.7055L34.6834 15.8287C34.5417 15.8638 34.4098 15.931 34.298 16.0249C34.1862 16.1189 34.0974 16.2372 34.0383 16.3708C33.9643 16.5316 33.9294 16.747 33.9277 17.0516C33.9277 17.5512 33.9277 18.0542 33.9277 18.5563C33.4851 17.8474 33.034 17.1367 32.5804 16.4329C32.3183 16.0261 31.9575 15.8116 31.5353 15.8116C31.5064 15.8116 31.4766 15.8116 31.4502 15.8116H31.4094L31.3702 15.8244C30.8843 15.9887 30.6119 16.3759 30.6043 16.9163C30.594 17.5572 30.5906 18.2057 30.5941 18.8448C30.6026 20.2567 30.6026 21.2099 30.5941 21.6789C30.5893 21.8639 30.6033 22.049 30.6358 22.2312C30.7209 22.7061 31.1106 23.0567 31.5583 23.0661H31.5975C31.9379 23.0661 32.3549 22.9733 32.5336 22.7836C32.7966 22.501 32.8128 22.0806 32.8077 21.7078C32.8009 21.2406 32.7992 21.027 32.8017 20.5529C33.3055 21.3597 33.6281 21.8823 34.0996 22.6159C34.1908 22.7603 34.3169 22.8796 34.4662 22.9627C34.6154 23.0458 34.7832 23.0901 34.954 23.0916C35.1179 23.0925 35.2797 23.0544 35.4259 22.9804C35.5721 22.9064 35.6986 22.7987 35.7949 22.6661C35.9132 22.4959 35.9753 22.267 35.9838 21.9538C35.9983 21.4431 36.0034 20.9274 35.9983 20.4219C36.0017 19.2933 36 18.1555 35.994 17.038Z" fill="#945420"/>
<path d="M26.5282 23.09C28.4013 23.09 29.9197 21.4439 29.9197 19.4134C29.9197 17.3829 28.4013 15.7368 26.5282 15.7368C24.6551 15.7368 23.1367 17.3829 23.1367 19.4134C23.1367 21.4439 24.6551 23.09 26.5282 23.09Z" fill="#945420"/>
<path d="M26.5288 15.7368C25.6585 15.737 24.8239 16.0829 24.2085 16.6983C23.5931 17.3136 23.2473 18.1482 23.2471 19.0185C23.2471 19.8889 23.5928 20.7236 24.2083 21.339C24.8237 21.9545 25.6584 22.3002 26.5288 22.3002C27.3991 22.3002 28.2338 21.9545 28.8493 21.339C29.4647 20.7236 29.8105 19.8889 29.8105 19.0185C29.8105 18.1482 29.4647 17.3134 28.8493 16.698C28.2338 16.0826 27.3991 15.7368 26.5288 15.7368ZM26.5288 20.2313C26.2071 20.2313 25.8987 20.1035 25.6712 19.8761C25.4438 19.6486 25.316 19.3402 25.316 19.0185C25.316 18.6969 25.4438 18.3884 25.6712 18.161C25.8987 17.9335 26.2071 17.8058 26.5288 17.8058C26.8504 17.8058 27.1589 17.9335 27.3863 18.161C27.6138 18.3884 27.7415 18.6969 27.7415 19.0185C27.7415 19.3402 27.6138 19.6486 27.3863 19.8761C27.1589 20.1035 26.8504 20.2313 26.5288 20.2313Z" fill="url(#paint0_linear_17752_43761)"/>
<path d="M26.699 16.2381C27.4401 16.237 28.1542 16.516 28.6981 17.0194C28.4222 16.7191 28.0869 16.4794 27.7134 16.3156C27.34 16.1518 26.9366 16.0675 26.5288 16.0679C25.7462 16.0679 24.9957 16.3787 24.4423 16.9321C23.889 17.4854 23.5781 18.236 23.5781 19.0185C23.5777 19.4263 23.6621 19.8297 23.8259 20.2032C23.9897 20.5766 24.2293 20.912 24.5296 21.1879C24.0262 20.644 23.7471 19.9298 23.7483 19.1887C23.7483 18.4062 24.0592 17.6557 24.6126 17.1023C25.1659 16.549 25.9164 16.2381 26.699 16.2381Z" fill="#FEFEC8"/>
<path d="M26.6985 20.7011C26.8971 20.7012 27.0938 20.6621 27.2774 20.5862C27.4609 20.5102 27.6277 20.3988 27.7681 20.2584C27.9086 20.1179 28.02 19.9511 28.0959 19.7676C28.1719 19.5841 28.2109 19.3874 28.2108 19.1887C28.2109 18.9698 28.1633 18.7536 28.0715 18.5549C27.9796 18.3562 27.8457 18.1799 27.6789 18.0381C27.9127 18.3112 28.0411 18.659 28.0406 19.0185C28.0407 19.2171 28.0017 19.4139 27.9257 19.5974C27.8498 19.7809 27.7384 19.9477 27.5979 20.0881C27.4575 20.2286 27.2907 20.34 27.1072 20.416C26.9236 20.4919 26.7269 20.531 26.5283 20.5309C26.1687 20.5314 25.8209 20.4031 25.5479 20.1692C25.6895 20.336 25.8659 20.47 26.0646 20.5619C26.2633 20.6537 26.4796 20.7012 26.6985 20.7011Z" fill="#FEFEC8"/>
<path d="M29.482 19.0185C29.483 18.2774 29.2039 17.5634 28.7008 17.0193C28.1568 16.516 27.4427 16.2369 26.7016 16.238C26.3141 16.238 25.9304 16.3144 25.5725 16.4626C25.2145 16.6109 24.8892 16.8283 24.6152 17.1023C24.3412 17.3763 24.1239 17.7015 23.9756 18.0595C23.8273 18.4175 23.751 18.8012 23.751 19.1887C23.7497 19.9298 24.0288 20.644 24.5323 21.1878C25.0763 21.691 25.7904 21.9701 26.5314 21.9691C27.314 21.9691 28.0645 21.6582 28.6178 21.1049C29.1712 20.5515 29.482 19.801 29.482 19.0185ZM25.0191 19.0185C25.0193 18.6174 25.1787 18.2329 25.4623 17.9493C25.7458 17.6658 26.1304 17.5064 26.5314 17.5061C26.7503 17.506 26.9666 17.5535 27.1653 17.6453C27.364 17.7372 27.5403 17.8712 27.682 18.038C27.8488 18.1798 27.9828 18.3561 28.0746 18.5548C28.1665 18.7535 28.214 18.9698 28.214 19.1887C28.2141 19.3873 28.175 19.584 28.0991 19.7676C28.0231 19.9511 27.9117 20.1179 27.7713 20.2583C27.6308 20.3988 27.464 20.5102 27.2805 20.5861C27.097 20.6621 26.9003 20.7011 26.7016 20.701C26.4827 20.7012 26.2664 20.6537 26.0677 20.5618C25.869 20.47 25.6927 20.336 25.551 20.1691C25.3837 20.0277 25.2492 19.8514 25.1569 19.6527C25.0646 19.454 25.0167 19.2376 25.0165 19.0185H25.0191Z" fill="url(#paint1_linear_17752_43761)"/>
<path d="M28.6978 17.0193C28.1539 16.516 27.4398 16.2369 26.6987 16.238C25.9161 16.238 25.1656 16.5489 24.6123 17.1023C24.0589 17.6556 23.7481 18.4061 23.7481 19.1887C23.7468 19.9298 24.0259 20.644 24.5293 21.1878C25.0681 21.7725 25.8425 22.0389 26.6987 21.981C28.2451 21.8772 29.3685 20.8491 29.491 19.1887C29.554 18.3334 29.2825 17.5597 28.6978 17.0193ZM26.5285 17.5061C26.7474 17.506 26.9637 17.5535 27.1624 17.6453C27.3611 17.7372 27.5374 17.8712 27.6791 18.038C27.8459 18.1798 27.9798 18.3561 28.0717 18.5548C28.1635 18.7535 28.2111 18.9698 28.211 19.1887C28.2111 19.3873 28.1721 19.584 28.0961 19.7676C28.0202 19.9511 27.9088 20.1179 27.7683 20.2583C27.6279 20.3988 27.4611 20.5102 27.2776 20.5861C27.094 20.6621 26.8973 20.7011 26.6987 20.701C26.4798 20.7012 26.2635 20.6537 26.0648 20.5618C25.8661 20.47 25.6897 20.336 25.5481 20.1691C25.3812 20.0274 25.2472 19.8511 25.1553 19.6524C25.0635 19.4537 25.016 19.2374 25.0161 19.0185C25.0164 18.6174 25.1758 18.2329 25.4593 17.9493C25.7429 17.6658 26.1274 17.5064 26.5285 17.5061Z" fill="url(#paint2_linear_17752_43761)"/>
<path d="M21.4738 23.0567C21.9155 23.0567 22.3359 22.7793 22.3827 22.2721C22.4083 21.9784 22.6134 20.832 22.3827 20.6814C22.1789 20.5747 21.9504 20.5239 21.7206 20.5342C20.6993 20.5342 19.6721 21.4703 18.6355 21.4703C18.6119 21.4703 18.589 21.4617 18.5713 21.446C18.5536 21.4303 18.5422 21.4087 18.5393 21.3852C18.5172 21.1696 18.5172 20.9523 18.5393 20.7367C18.5759 20.3963 19.0049 20.6848 19.2764 20.6882C19.9538 20.695 20.6063 20.695 21.2338 20.6882C21.5104 20.6882 21.8653 20.581 22.0721 20.3938C22.3632 20.1316 22.5223 19.4286 22.5512 18.9657C22.5827 18.455 22.5998 17.9844 22.4712 17.5308C22.0653 16.3282 21.1708 16.3086 19.9785 16.3214C19.2976 16.3291 18.341 16.078 17.7802 16.0789C17.2959 16.0789 17.3138 17.084 17.3232 17.5614C17.3325 18.0389 17.5546 18.4184 18.1053 18.4125C18.9308 18.4051 19.7564 18.4068 20.5819 18.4176C20.7397 18.4155 20.895 18.4573 21.0304 18.5384C21.1009 18.5903 21.1607 18.6554 21.2066 18.7299C21.3027 18.8874 21.2866 18.6321 21.1581 18.8286C21.0941 18.9138 21.0107 18.9823 20.9147 19.0284C20.8187 19.0745 20.713 19.0967 20.6066 19.0933C19.9861 19.0933 19.387 18.3333 18.8108 18.3342C17.8483 18.3342 17.1632 18.8593 17.1291 19.838C17.1198 20.0933 17.107 21.0814 17.0908 21.3044C17.0908 21.3155 17.0908 21.3342 17.0908 21.3461V22.3257C17.0908 22.7512 17.3938 23.0559 17.7717 23.0559L21.4738 23.0567Z" fill="#2E2F33"/>
<path d="M4.68147 15.8619C5.37934 15.7008 5.94218 15.8923 6.36998 16.4364C6.66274 16.8074 6.96232 17.1944 7.2687 17.5972C7.27366 17.6041 7.27997 17.61 7.28726 17.6144C7.29454 17.6188 7.30264 17.6217 7.31108 17.6229C7.31951 17.6241 7.3281 17.6236 7.33632 17.6214C7.34454 17.6191 7.35223 17.6153 7.35891 17.61C7.36378 17.6064 7.36809 17.6021 7.37168 17.5972C7.68147 17.1893 7.99579 16.7904 8.31466 16.4006C8.71977 15.9047 9.2304 15.7169 9.84657 15.8372H9.85679C10.0785 15.8851 10.2776 16.0065 10.4217 16.1817C10.5658 16.3568 10.6465 16.5755 10.6508 16.8023C10.6508 16.8559 10.6508 16.9147 10.6508 16.9794C10.6508 18.5794 10.6398 20.4474 10.6253 22.073C10.6134 23.4006 8.31977 23.3955 8.27381 22.1198C8.24828 21.4287 8.24402 21.1104 8.26104 20.3147C8.26445 20.1445 8.2165 20.1291 8.11721 20.2687C7.84913 20.5547 7.59466 20.5921 7.32147 20.6142C6.81083 20.5291 6.76487 20.5172 6.45338 20.1411C6.41679 20.0866 6.39891 20.0925 6.39977 20.1581C6.39977 20.9785 6.39551 21.3615 6.37423 22.1589C6.37391 22.3352 6.31392 22.5062 6.20402 22.644C5.73338 23.2194 4.57849 23.2398 4.16147 22.6057C4.07443 22.4725 4.02556 22.318 4.02019 22.1589C4.00998 20.5955 4.00402 18.6542 4.00402 17.1189C4.00232 17.1206 3.92402 16.1734 4.68147 15.8619Z" fill="#945420"/>
<path d="M4.88619 15.8058C5.53073 15.6577 6.05017 15.8345 6.44449 16.336C6.714 16.6765 6.98917 17.0336 7.27002 17.4075C7.27473 17.414 7.2807 17.4195 7.28757 17.4236C7.29445 17.4278 7.30209 17.4305 7.31004 17.4316C7.31799 17.4327 7.32608 17.4322 7.33383 17.4301C7.34158 17.428 7.34882 17.4244 7.35513 17.4194C7.35971 17.4161 7.36374 17.4121 7.36705 17.4075C7.65073 17.0313 7.94095 16.6626 8.23768 16.3011C8.61102 15.8433 9.08279 15.6699 9.653 15.7811H9.66236C9.86696 15.8255 10.0506 15.9376 10.1836 16.0993C10.3165 16.261 10.3911 16.4629 10.3951 16.6722C10.3951 16.7216 10.3951 16.776 10.3951 16.8356C10.3951 18.3108 10.3872 19.799 10.3713 21.3003C10.3602 22.5258 8.47939 22.5207 8.43683 21.3437C8.413 20.7054 8.40903 20.0191 8.42492 19.285C8.42832 19.1255 8.38407 19.1113 8.29215 19.2424C8.04194 19.6016 7.81045 19.9233 7.32194 19.9539C6.83343 19.9845 6.51088 19.4671 6.28534 19.125C6.25215 19.0747 6.23513 19.0799 6.23598 19.1403C6.24052 19.8977 6.23258 20.6441 6.21215 21.3794C6.21238 21.542 6.15748 21.6998 6.05641 21.8271C5.62151 22.3582 4.79173 22.3811 4.40449 21.7922C4.32426 21.6691 4.27924 21.5263 4.27428 21.3794C4.26492 19.9326 4.25981 18.3811 4.25896 16.9641C4.25896 16.9641 4.18662 16.0935 4.88619 15.8058ZM4.9713 16.1462C4.7052 16.2858 4.56903 16.4844 4.56279 16.742C4.54747 17.4546 4.5452 18.944 4.55598 21.2101C4.55756 21.3829 4.60232 21.5526 4.68619 21.7037C4.75185 21.7676 4.82949 21.8178 4.91464 21.8515C4.99979 21.8853 5.09078 21.9019 5.18236 21.9003C5.46605 21.9139 5.66861 21.8356 5.79002 21.6654C5.8634 21.5645 5.90275 21.4429 5.90236 21.3182C5.90236 20.2594 5.91002 19.2424 5.92534 18.2671C5.92493 18.2628 5.92549 18.2584 5.92698 18.2544C5.92847 18.2503 5.93086 18.2466 5.93396 18.2436C5.93706 18.2406 5.94081 18.2383 5.94491 18.2369C5.94902 18.2355 5.95338 18.2351 5.95768 18.2356C5.96496 18.2355 5.97215 18.2372 5.97866 18.2404C5.98517 18.2437 5.99082 18.2485 5.99513 18.2543C6.23229 18.5675 6.47059 18.8747 6.71002 19.176C6.81426 19.3111 6.93172 19.4354 7.06066 19.5471C7.10517 19.5882 7.15865 19.6184 7.21685 19.6352C7.27506 19.6521 7.33639 19.6551 7.39598 19.6441C7.51939 19.6192 7.62968 19.5506 7.70662 19.4509C8.08676 18.997 8.42322 18.5633 8.71598 18.1496C8.73017 19.1511 8.73187 20.1406 8.72109 21.1182C8.71004 21.275 8.7294 21.4325 8.77811 21.582C8.81318 21.6639 8.86882 21.7354 8.93964 21.7896C9.01047 21.8437 9.09408 21.8786 9.18236 21.8909C9.34304 21.9071 9.5053 21.8944 9.66151 21.8535C9.76307 21.8346 9.85521 21.7818 9.92279 21.7037C9.99048 21.6159 10.027 21.5081 10.0266 21.3973C10.0374 20.3913 10.0431 18.8983 10.0436 16.9182C10.0486 16.7843 10.034 16.6504 10.0002 16.5207C9.98161 16.4515 9.94945 16.3867 9.90563 16.33C9.86181 16.2734 9.80718 16.2259 9.74492 16.1905C9.63551 16.1151 9.50674 16.0728 9.37395 16.0686C9.24116 16.0644 9.10996 16.0984 8.99598 16.1667C8.85064 16.251 8.72292 16.3625 8.61981 16.4952C8.18974 17.0347 7.7679 17.5755 7.35428 18.1173L7.32619 18.1301C7.32112 18.1331 7.31546 18.1351 7.30958 18.1359C7.30369 18.1367 7.29772 18.1362 7.29202 18.1345C7.28633 18.1328 7.28106 18.13 7.27654 18.1261C7.27202 18.1223 7.26835 18.1175 7.26577 18.1122C7.1477 17.9298 7.01717 17.7558 6.87513 17.5913C6.52619 17.1896 6.25471 16.7403 5.90151 16.3624C5.65414 16.0969 5.37414 16.0018 5.06151 16.0773C5.04335 16.0815 5.02629 16.0895 5.01146 16.1008C4.99664 16.1121 4.9844 16.1264 4.97556 16.1428L4.9713 16.1462Z" fill="url(#paint3_linear_17752_43761)"/>
<path d="M22.1727 18.411C22.1478 18.8081 22.0108 19.1202 21.7617 19.3471C21.5565 19.5094 21.3033 19.5992 21.0417 19.6025C20.5044 19.611 19.9449 19.611 19.3634 19.6025C19.1302 19.6025 18.7617 19.6467 18.7302 19.9369C18.711 20.122 18.711 20.3085 18.7302 20.4935C18.7327 20.5143 18.7428 20.5334 18.7585 20.5472C18.7742 20.561 18.7944 20.5686 18.8153 20.5684H18.8962C18.8857 20.4147 18.8886 20.2604 18.9047 20.1071C18.9362 19.8169 19.3047 19.7667 19.5379 19.7727C20.1188 19.7795 20.6783 19.7795 21.2162 19.7727C21.4778 19.7694 21.7309 19.6796 21.9362 19.5173C22.1858 19.2904 22.3228 18.9783 22.3472 18.5812C22.3745 18.1454 22.3889 17.7386 22.2783 17.3488C22.1983 17.0743 22.0408 16.8288 21.8247 16.6416C21.9507 16.8021 22.0467 16.984 22.1081 17.1786C22.2144 17.5667 22.2 17.9735 22.1727 18.411Z" fill="#EBECED"/>
<path d="M20.4817 17.5012C19.7725 17.4915 19.0633 17.4901 18.3541 17.4969C18.2426 17.502 18.1317 17.477 18.0332 17.4246C18.1183 17.5743 18.2715 17.6697 18.5243 17.6671C19.2335 17.6603 19.9427 17.6617 20.6519 17.6714C20.7773 17.6702 20.9009 17.7009 21.0111 17.7607C21.0005 17.7379 20.9886 17.7157 20.9753 17.6943C20.9107 17.63 20.8336 17.5796 20.7486 17.5463C20.6637 17.5131 20.5728 17.4977 20.4817 17.5012Z" fill="#EBECED"/>
<path d="M22.1995 20.8644C22.1834 20.855 22.1638 20.8474 22.1459 20.8389C22.214 20.9972 22.1978 21.2193 22.1817 21.4023C22.1417 21.838 21.8472 21.8976 21.4676 21.8967C20.1944 21.8967 18.949 21.9101 17.7314 21.9367V22.0125C17.7318 22.0253 17.7346 22.038 17.7399 22.0497C17.7451 22.0615 17.7526 22.0721 17.7619 22.081C17.7712 22.0898 17.7822 22.0967 17.7942 22.1013C17.8062 22.1059 17.819 22.1081 17.8319 22.1078C19.0716 22.0783 20.3402 22.0647 21.6378 22.067C22.0174 22.067 22.3119 22.0082 22.3519 21.5725C22.374 21.3206 22.3978 20.9938 22.1995 20.8644Z" fill="#EBECED"/>
<path d="M18.5382 16.3198C19.0199 16.3198 19.5518 16.3161 20.1339 16.3087C20.8326 16.3011 21.4105 16.3087 21.8207 16.6398C21.4114 16.1385 20.7663 16.1291 19.9637 16.1385C19.3816 16.1453 18.8497 16.149 18.368 16.1496C17.9526 16.1496 17.7487 16.3547 17.7561 16.7649C17.7612 17.0525 17.825 17.3053 18.0344 17.4245C17.9579 17.273 17.9208 17.1047 17.9263 16.9351C17.9183 16.5249 18.1223 16.3198 18.5382 16.3198Z" fill="white"/>
<path d="M17.7599 19.987C17.7889 19.147 18.3038 18.6977 19.131 18.696C19.6257 18.696 20.1398 18.694 20.6731 18.69C20.7644 18.6929 20.8551 18.6737 20.9375 18.6342C21.0198 18.5946 21.0914 18.5358 21.1463 18.4628C21.2076 18.3755 21.2404 18.2715 21.2404 18.1649C21.2404 18.0583 21.2076 17.9543 21.1463 17.867C21.1071 17.8257 21.0618 17.7906 21.0118 17.7632C21.0561 17.8463 21.0764 17.9401 21.0702 18.0341C21.064 18.1281 21.0317 18.2185 20.9769 18.2951C20.9221 18.3682 20.8505 18.427 20.7681 18.4665C20.6857 18.5061 20.5951 18.5252 20.5037 18.5223C19.9698 18.5257 19.4558 18.5277 18.9616 18.5283C18.1344 18.5283 17.6195 18.9794 17.5906 19.8194C17.582 20.0508 17.5701 20.2585 17.5557 20.4406L17.5616 21.8423C17.562 21.8552 17.5648 21.8678 17.57 21.8796C17.5753 21.8913 17.5828 21.9019 17.5921 21.9108C17.6014 21.9197 17.6124 21.9266 17.6244 21.9312C17.6364 21.9358 17.6492 21.938 17.662 21.9377H17.7318L17.7259 20.6091C17.7369 20.4262 17.7514 20.2185 17.7599 19.987Z" fill="white"/>
<path d="M22.1817 21.4025C22.1979 21.2195 22.2141 20.9974 22.146 20.8391C21.9841 20.7671 21.8081 20.7325 21.6311 20.7378H18.9817C18.9608 20.738 18.9406 20.7304 18.9249 20.7166C18.9092 20.7028 18.8991 20.6837 18.8966 20.6629C18.8966 20.6314 18.8915 20.5999 18.8898 20.5676H18.809C18.7881 20.5678 18.7678 20.5602 18.7521 20.5464C18.7364 20.5326 18.7264 20.5135 18.7239 20.4927C18.7047 20.3077 18.7047 20.1211 18.7239 19.9361C18.7553 19.6459 19.1239 19.5957 19.357 19.6016C19.938 19.6085 20.4975 19.6085 21.0353 19.6016C21.297 19.5984 21.5501 19.5086 21.7553 19.3463C22.005 19.1194 22.142 18.8073 22.1664 18.4102C22.1936 17.9744 22.2081 17.5676 22.0975 17.1778C22.0361 16.9832 21.9401 16.8013 21.8141 16.6408C21.4056 16.308 20.826 16.3004 20.1273 16.3097C19.5451 16.3165 19.0132 16.3202 18.5315 16.3208C18.1162 16.3208 17.9122 16.5259 17.9196 16.9361C17.9141 17.1057 17.9513 17.274 18.0277 17.4255C18.1262 17.4779 18.237 17.5029 18.3485 17.4978C19.0578 17.491 19.767 17.4924 20.4762 17.5021C20.5673 17.4986 20.6582 17.514 20.7431 17.5473C20.8281 17.5805 20.9052 17.6309 20.9698 17.6953C20.983 17.7167 20.995 17.7388 21.0056 17.7616C21.0555 17.7891 21.1008 17.8241 21.14 17.8655C21.2013 17.9527 21.2342 18.0567 21.2342 18.1633C21.2342 18.27 21.2013 18.374 21.14 18.4612C21.0852 18.5343 21.0135 18.5931 20.9312 18.6326C20.8488 18.6722 20.7582 18.6913 20.6668 18.6885C20.1329 18.6919 19.6189 18.6938 19.1247 18.6944C18.2975 18.6944 17.7826 19.1455 17.7536 19.9855C17.7451 20.217 17.7332 20.4246 17.7188 20.6068L17.7247 21.9353C18.9417 21.9063 20.1871 21.893 21.4609 21.8953C21.8473 21.9004 22.1417 21.8382 22.1817 21.4025Z" fill="#EBECED"/>
<path d="M4.76805 21.2082C4.7567 18.9421 4.75897 17.4527 4.77486 16.7401C4.78082 16.4848 4.87358 16.3146 5.13316 16.1367C5.17465 16.1101 5.22001 16.09 5.26762 16.0771C5.29996 16.0695 5.33145 16.0652 5.36209 16.061C5.26126 16.0474 5.15877 16.0529 5.05996 16.0771C5.01235 16.09 4.96699 16.1101 4.9255 16.1367C4.66592 16.3154 4.57316 16.4814 4.5672 16.7401C4.55188 17.4527 4.54961 18.9421 4.56039 21.2082C4.56197 21.381 4.60673 21.5507 4.6906 21.7018C4.82188 21.8304 4.99877 21.9017 5.18252 21.9001C5.2355 21.904 5.28869 21.904 5.34167 21.9001C5.17459 21.8919 5.01655 21.8218 4.89826 21.7035C4.81411 21.5519 4.76934 21.3816 4.76805 21.2082Z" fill="white"/>
<path d="M7.53201 18.1299L7.5601 18.1171C7.97485 17.5725 8.39811 17.0335 8.82988 16.5001C8.933 16.3675 9.06072 16.2559 9.20605 16.1716C9.28562 16.1287 9.372 16.0999 9.46137 16.0865C9.30185 16.061 9.1384 16.091 8.99839 16.1716C8.85306 16.2559 8.72534 16.3675 8.62222 16.5001C8.21258 17.0074 7.81116 17.518 7.41797 18.032C7.43584 18.0584 7.45371 18.0839 7.47159 18.1112C7.47408 18.1166 7.47769 18.1214 7.48218 18.1254C7.48667 18.1293 7.49193 18.1322 7.49763 18.134C7.50333 18.1358 7.50933 18.1363 7.51526 18.1356C7.52118 18.1349 7.52689 18.133 7.53201 18.1299Z" fill="white"/>
<path d="M9.99986 16.5232C9.98123 16.454 9.94908 16.3892 9.90525 16.3326C9.86143 16.2759 9.80681 16.2285 9.74454 16.193C9.65759 16.1369 9.56042 16.0984 9.45858 16.0798C9.36921 16.0933 9.28283 16.1221 9.20326 16.1649C9.05793 16.2492 8.93021 16.3608 8.82709 16.4934C8.39532 17.0285 7.97206 17.5675 7.55731 18.1105L7.52922 18.1232C7.52415 18.1263 7.51849 18.1283 7.51261 18.1291C7.50672 18.1298 7.50074 18.1294 7.49505 18.1277C7.48936 18.126 7.48409 18.1231 7.47956 18.1193C7.47504 18.1154 7.47137 18.1107 7.4688 18.1054C7.45092 18.0781 7.43305 18.0526 7.41518 18.0262C7.3108 17.8722 7.19712 17.7247 7.07475 17.5845C6.72582 17.1828 6.45433 16.7334 6.10114 16.3556C5.87816 16.1173 5.6305 16.0151 5.3556 16.0543C5.32497 16.0585 5.29348 16.0628 5.26114 16.0705C5.21352 16.0833 5.16816 16.1034 5.12667 16.13C4.87135 16.3088 4.77433 16.4747 4.76837 16.7334C4.75305 17.4461 4.75078 18.9354 4.76156 21.2015C4.76314 21.3743 4.8079 21.544 4.89177 21.6951C5.01021 21.8179 5.17079 21.8912 5.34114 21.9002C5.42837 21.8977 5.51393 21.8757 5.59154 21.8358C5.66915 21.7959 5.73684 21.7391 5.78965 21.6696C5.86302 21.5687 5.90237 21.4471 5.90199 21.3224C5.90199 20.2637 5.90965 19.2466 5.92497 18.2713C5.92455 18.267 5.92511 18.2627 5.9266 18.2586C5.92809 18.2545 5.93048 18.2508 5.93358 18.2478C5.93669 18.2448 5.94043 18.2425 5.94454 18.2411C5.94864 18.2397 5.95301 18.2393 5.95731 18.2398C5.96459 18.2398 5.97178 18.2414 5.97829 18.2447C5.9848 18.2479 5.99044 18.2527 5.99475 18.2585L6.13007 18.4347C6.32326 18.69 6.5156 18.936 6.70965 19.1802C6.81388 19.3153 6.93134 19.4396 7.06029 19.5513C7.10479 19.5924 7.15827 19.6226 7.21648 19.6395C7.27468 19.6563 7.33602 19.6593 7.3956 19.6483C7.40567 19.646 7.41561 19.6432 7.42539 19.6398C7.53656 19.6104 7.63513 19.5455 7.70624 19.4551C8.08638 19.0012 8.42284 18.5675 8.7156 18.1539C8.7156 18.2483 8.7156 18.342 8.7156 18.4364C8.78539 18.3411 8.85433 18.2475 8.91986 18.1539C8.93404 19.1553 8.93575 20.1448 8.92497 21.1224C8.91392 21.2792 8.93328 21.4367 8.98199 21.5862C9.01705 21.6682 9.0727 21.7397 9.14352 21.7938C9.21435 21.8479 9.29796 21.8828 9.38624 21.8951C9.4288 21.9003 9.47135 21.9045 9.50709 21.9071L9.61007 21.8977C9.67156 21.8881 9.73052 21.8663 9.78355 21.8337C9.83658 21.8012 9.88262 21.7584 9.91901 21.7079C9.9867 21.6202 10.0232 21.5124 10.0228 21.4015C10.0336 20.3956 10.0393 18.9025 10.0399 16.9224C10.0461 16.7881 10.0327 16.6536 9.99986 16.5232Z" fill="url(#paint4_linear_17752_43761)"/>
<path d="M17.4513 16.5189C17.3964 16.7854 17.4201 17.0621 17.5194 17.3155C17.6896 17.741 18.0768 17.8601 18.5058 17.8533C19.2524 17.8414 19.952 17.8414 20.6045 17.8533C20.7202 17.8533 20.7704 17.9146 20.756 18.0287L20.7483 18.0823C20.7448 18.1097 20.7318 18.1351 20.7117 18.1541C20.6915 18.173 20.6653 18.1843 20.6377 18.1861C20.1361 18.2218 19.5687 18.2312 18.9355 18.2142C18.5633 18.2032 18.1979 18.3157 17.8964 18.5342C17.8061 18.6001 17.7281 18.6814 17.6658 18.7742C17.6019 18.8678 17.5432 18.9563 17.4896 19.0414C17.381 19.2367 17.3168 19.4534 17.3015 19.6763C17.273 20.1427 17.2761 20.6104 17.3109 21.0763L17.333 22.0184C17.3339 22.0594 17.3496 22.0986 17.3771 22.1289C17.4046 22.1593 17.4421 22.1786 17.4828 22.1835C17.592 22.1976 17.702 22.2047 17.8121 22.2048C18.8902 22.2082 19.9704 22.2193 21.053 22.238C21.5287 22.2465 21.8989 22.238 22.0862 22.0899C22.4692 21.7878 22.5304 21.5793 22.436 20.7733C22.3568 20.2687 21.6802 20.278 21.6802 20.278C20.8104 20.2672 19.9682 20.265 19.1534 20.2712C19.1227 20.2715 19.0931 20.26 19.0706 20.2391C19.0481 20.2182 19.0345 20.1895 19.0326 20.1589V20.1069C19.028 20.0842 19.0291 20.0607 19.0355 20.0385C19.042 20.0163 19.0538 19.9959 19.0699 19.9792C19.0859 19.9625 19.1057 19.9499 19.1277 19.9425C19.1497 19.9351 19.1731 19.9331 19.196 19.9367C19.7826 19.9367 20.3682 19.9311 20.9526 19.9197C21.2272 19.911 21.4973 19.8479 21.7475 19.7342C21.9427 19.6578 22.1095 19.5228 22.2249 19.3478C22.5849 18.7648 22.5926 17.8057 22.436 17.1904V17.1784C22.3501 16.8356 22.1654 16.5255 21.9046 16.2868C21.6439 16.0482 21.3187 15.8915 20.9696 15.8363C20.8005 15.8107 20.6299 15.7959 20.4589 15.7921C19.7338 15.7728 19.0467 15.7728 18.3977 15.7921C18.2078 15.7849 18.0188 15.8204 17.8445 15.8959C17.4666 16.0874 17.4513 16.5189 17.4513 16.5189ZM22.1815 21.4023C22.1415 21.838 21.847 21.8976 21.4675 21.8967C20.1699 21.8967 18.9012 21.9104 17.6615 21.9376C17.6486 21.9377 17.6358 21.9352 17.6239 21.9304C17.612 21.9255 17.6011 21.9183 17.592 21.9092C17.5829 21.9001 17.5757 21.8892 17.5708 21.8773C17.566 21.8654 17.5635 21.8526 17.5636 21.8397L17.5577 20.438C17.5721 20.2559 17.5841 20.0482 17.5926 19.8167C17.6215 18.9767 18.1364 18.5274 18.9636 18.5257C19.4584 18.5257 19.9724 18.5237 20.5058 18.5197C20.5971 18.5226 20.6877 18.5034 20.7701 18.4639C20.8525 18.4243 20.9241 18.3655 20.9789 18.2925C21.0402 18.2052 21.0731 18.1012 21.0731 17.9946C21.0731 17.888 21.0402 17.784 20.9789 17.6967C20.9144 17.6324 20.8372 17.582 20.7523 17.5487C20.6673 17.5155 20.5765 17.5001 20.4853 17.5035C19.7761 17.4939 19.0669 17.4925 18.3577 17.4993C17.8845 17.5035 17.7662 17.1674 17.7619 16.7674C17.7577 16.3674 17.9585 16.1521 18.3738 16.1521C18.8555 16.1521 19.3875 16.1484 19.9696 16.141C20.9909 16.1299 21.7619 16.1469 22.11 17.1793C22.2206 17.5691 22.2062 17.9759 22.1789 18.4116C22.154 18.8088 22.017 19.1208 21.7679 19.3478C21.5627 19.5101 21.3095 19.5999 21.0479 19.6031C20.5106 19.6116 19.9511 19.6116 19.3696 19.6031C19.1364 19.6031 18.7679 19.6474 18.7364 19.9376C18.7172 20.1226 18.7172 20.3091 18.7364 20.4942C18.7389 20.5149 18.749 20.534 18.7647 20.5479C18.7804 20.5617 18.8006 20.5692 18.8215 20.5691H21.4709C21.6682 20.5603 21.8644 20.6041 22.0394 20.6959C22.2275 20.8235 22.2036 21.1504 22.1815 21.4023Z" fill="#6B6A6C"/>
<path d="M16.7805 21.6671C16.7592 21.5406 16.6998 21.4236 16.6103 21.3318L16.4281 21.1462C16.3312 21.0491 16.2153 20.973 16.0875 20.9228C15.9598 20.8726 15.8231 20.8493 15.686 20.8543C15.0052 20.8458 14.3101 20.8458 13.6009 20.8543C13.5174 20.8559 13.4339 20.8527 13.3507 20.8449C13.3299 20.8435 13.3103 20.8345 13.2957 20.8196C13.2811 20.8047 13.2725 20.7849 13.2715 20.7641L13.2588 20.6262C13.2537 20.5718 13.2775 20.5411 13.3311 20.5462C14.0653 20.5553 14.7822 20.5553 15.4818 20.5462C15.606 20.5494 15.7287 20.5185 15.8367 20.4569C16.2554 20.1936 16.4301 19.8248 16.3609 19.3505C16.2384 18.6398 15.7652 18.4484 15.1073 18.4603C14.4945 18.4722 13.9062 18.4679 13.3422 18.4475C13.3305 18.4475 13.3189 18.4451 13.3082 18.4405C13.2974 18.4359 13.2878 18.429 13.2798 18.4205C13.2718 18.412 13.2657 18.4019 13.2618 18.3908C13.2579 18.3798 13.2563 18.3681 13.2571 18.3564V18.2628C13.2554 18.2492 13.2569 18.2355 13.2614 18.2225C13.2658 18.2096 13.2732 18.1978 13.2828 18.1882C13.2925 18.1785 13.3043 18.1711 13.3172 18.1667C13.3301 18.1622 13.3439 18.1607 13.3575 18.1624C14.1581 18.1624 14.9598 18.1579 15.7626 18.1488C15.906 18.1521 16.0483 18.1237 16.1794 18.0656C16.3105 18.0074 16.4271 17.9211 16.5209 17.8126C16.8324 17.4543 16.8911 17.0466 16.7456 16.5709C16.5218 15.8458 15.7184 15.8288 15.7184 15.8288C14.8911 15.8146 13.7694 15.8126 12.3532 15.8228C12.2911 15.8228 12.2307 15.8228 12.172 15.8296C11.962 15.84 11.759 15.9077 11.5848 16.0253C11.4106 16.1429 11.2719 16.306 11.1839 16.4969C11.1317 16.6097 11.1028 16.7318 11.0988 16.856C11.0869 17.7547 11.0891 19.1048 11.1056 20.9062C11.0846 21.3499 11.0846 21.7925 11.1056 22.2339C11.1311 22.7445 11.6086 23.0611 12.0673 23.0628C13.2906 23.0679 14.5833 23.0659 15.9456 23.0569C16.0956 23.0484 16.239 22.9924 16.3549 22.8969C16.8264 22.5556 16.8775 22.1854 16.7805 21.6671ZM16.1584 19.759C16.1584 19.759 16.1541 19.759 16.1524 19.7641C16.1547 19.7628 16.1567 19.7611 16.1584 19.759Z" fill="#945420"/>
<path d="M15.4771 15.7981C14.7219 15.7851 13.7006 15.7834 12.4132 15.793C12.3486 15.793 12.2856 15.793 12.226 15.8007C12.0405 15.8119 11.8614 15.8727 11.7073 15.9768C11.5533 16.0808 11.43 16.2243 11.3503 16.3922C11.3049 16.4923 11.2801 16.6006 11.2771 16.7105C11.2663 17.5048 11.2686 18.7014 11.2839 20.3002C11.2634 20.692 11.2634 21.0846 11.2839 21.4764C11.3077 21.9275 11.7417 22.21 12.1605 22.2109C13.2742 22.216 14.4521 22.2143 15.6941 22.2058C15.8299 22.1983 15.9601 22.1489 16.0669 22.0645C16.4924 21.7624 16.5349 21.4339 16.4464 20.9743C16.4257 20.861 16.3704 20.757 16.2881 20.6764L16.1179 20.513C16.0284 20.427 15.9224 20.36 15.8062 20.3161C15.6901 20.2722 15.5662 20.2524 15.4422 20.2577C14.8181 20.2498 14.1849 20.2498 13.5426 20.2577C13.4659 20.2588 13.3892 20.2557 13.3128 20.2483C13.2947 20.2468 13.2777 20.2388 13.2649 20.2259C13.2521 20.2129 13.2444 20.1958 13.243 20.1777L13.2311 20.0551C13.226 20.0066 13.2481 19.9828 13.2966 19.9837C13.9656 19.9922 14.6181 19.9922 15.2541 19.9837C15.3672 19.9868 15.4791 19.9597 15.5783 19.9054C15.9596 19.6722 16.1185 19.3445 16.0549 18.9224C15.9434 18.2926 15.5145 18.1232 14.9128 18.1343C14.3545 18.1445 13.8186 18.1405 13.3052 18.1224C13.2843 18.1217 13.2646 18.1128 13.2502 18.0977C13.2359 18.0826 13.2281 18.0624 13.2286 18.0415V17.9564C13.2279 17.9444 13.2299 17.9323 13.2342 17.9211C13.2386 17.9098 13.2453 17.8997 13.2539 17.8912C13.2625 17.8828 13.2729 17.8762 13.2842 17.8721C13.2955 17.8679 13.3076 17.8662 13.3196 17.8671C14.0487 17.8671 14.7789 17.8631 15.5103 17.8551C15.6406 17.8593 15.7704 17.8351 15.8905 17.7841C16.0105 17.7331 16.1181 17.6566 16.2056 17.5598C16.4898 17.2415 16.546 16.879 16.4098 16.4594C16.2056 15.8134 15.4771 15.7981 15.4771 15.7981ZM15.8771 19.2849L15.872 19.2892L15.8779 19.2832L15.8771 19.2849ZM12.9332 18.4543C13.9647 18.4475 14.7216 18.4475 15.2039 18.4543C15.344 18.4589 15.4795 18.5055 15.5928 18.5879C15.8354 18.7334 15.746 19.1837 15.6549 19.41C15.5869 19.4877 15.5022 19.549 15.4071 19.5894C15.3121 19.6298 15.2092 19.6482 15.106 19.6432C14.3826 19.6523 13.6589 19.6537 12.9349 19.6475L12.9264 20.4909C12.9264 20.5032 12.9302 20.5151 12.9374 20.5251C12.9446 20.535 12.9548 20.5424 12.9664 20.5462L13.0149 20.5607H15.4575C15.5828 20.5587 15.7066 20.5889 15.8169 20.6485C15.9272 20.7081 16.0203 20.7951 16.0873 20.9011C16.1332 21.0075 16.1569 21.1222 16.1569 21.2381C16.1569 21.354 16.1332 21.4687 16.0873 21.5751C16.0005 21.8061 15.8172 21.9195 15.5375 21.9156C14.392 21.9031 13.2461 21.9031 12.1 21.9156C11.9902 21.9255 11.8802 21.8982 11.7877 21.8381C11.7345 21.7977 11.6903 21.7464 11.6582 21.6878C11.6261 21.6291 11.6067 21.5644 11.6013 21.4977C11.5871 20.8702 11.584 19.8529 11.592 18.4458C11.592 17.9402 11.592 17.4356 11.592 16.9317C11.592 16.5207 11.666 16.1768 12.1366 16.176L15.4771 16.1683C15.654 16.1655 15.8269 16.2211 15.969 16.3266C16.1999 16.616 16.2232 16.9298 16.0388 17.2679C15.9477 17.4381 15.7681 17.5232 15.4983 17.5232L12.9971 17.5292C12.98 17.5294 12.9637 17.5363 12.9516 17.5484C12.9395 17.5605 12.9326 17.5768 12.9324 17.5939L12.9332 18.4543Z" fill="url(#paint5_linear_17752_43761)"/>
<path d="M11.7598 18.6245C11.7598 18.119 11.7598 17.6143 11.7598 17.1105C11.7598 16.6994 11.8339 16.3556 12.3045 16.3547L15.645 16.3471C15.7843 16.3456 15.9218 16.3798 16.0441 16.4466C16.0208 16.4078 15.9949 16.3705 15.9667 16.3352C15.8246 16.2297 15.6517 16.174 15.4747 16.1769L12.1343 16.1845C11.6637 16.1845 11.5879 16.5249 11.5896 16.9403C11.5896 17.4441 11.5896 17.9488 11.5896 18.4543C11.5811 19.862 11.5842 20.8793 11.599 21.5062C11.6044 21.5729 11.6238 21.6376 11.6559 21.6963C11.688 21.755 11.7321 21.8062 11.7854 21.8466C11.7999 21.8577 11.8156 21.8671 11.8322 21.8747C11.794 21.8166 11.7722 21.7493 11.7692 21.6798C11.755 21.0506 11.7519 20.0322 11.7598 18.6245Z" fill="white"/>
<path d="M15.5355 21.9165C15.8158 21.9199 15.999 21.8064 16.0853 21.576C16.1312 21.4696 16.1548 21.3549 16.1548 21.239C16.1548 21.1231 16.1312 21.0084 16.0853 20.902C16.0776 20.8909 16.0691 20.8816 16.0614 20.8705C15.9344 20.7799 15.7816 20.7328 15.6257 20.736H13.1831L13.1346 20.7216C13.1229 20.7178 13.1128 20.7104 13.1056 20.7004C13.0984 20.6905 13.0946 20.6785 13.0946 20.6663V20.5658H13.0095L12.961 20.5514C12.9493 20.5476 12.9392 20.5402 12.932 20.5302C12.9248 20.5203 12.9209 20.5083 12.921 20.496L12.9295 19.6526C13.6541 19.6595 14.3777 19.658 15.1006 19.6484C15.2037 19.6533 15.3067 19.635 15.4017 19.5946C15.4968 19.5542 15.5815 19.4929 15.6495 19.4152C15.7202 19.245 15.7891 18.9292 15.7031 18.7343C15.602 18.673 15.4869 18.6384 15.3687 18.6339C14.8864 18.6254 14.1295 18.6254 13.098 18.6339V18.4637H12.9278V17.6067C12.928 17.5896 12.9349 17.5733 12.947 17.5612C12.9591 17.5491 12.9754 17.5422 12.9925 17.542L15.4938 17.536C15.7636 17.536 15.9431 17.4509 16.0342 17.2807C16.1953 16.9851 16.1979 16.7085 16.0419 16.4509C15.9195 16.3841 15.7821 16.3499 15.6427 16.3514L12.3023 16.359C11.8316 16.359 11.7559 16.6995 11.7576 17.1148C11.7576 17.6186 11.7576 18.1233 11.7576 18.6288C11.7491 20.0365 11.7522 21.0538 11.767 21.6807C11.77 21.7502 11.7918 21.8175 11.8299 21.8756C11.9131 21.9134 12.0043 21.9303 12.0955 21.925C13.2427 21.9085 14.3894 21.9057 15.5355 21.9165ZM16.0853 16.5667C16.081 16.5667 16.0776 16.5667 16.075 16.5667C16.0725 16.5667 16.081 16.5684 16.0853 16.5667ZM15.915 16.3965C15.9108 16.3965 15.9074 16.3965 15.9048 16.3965C15.9023 16.3965 15.9108 16.3982 15.915 16.3965ZM12.9312 19.8169C12.9312 19.8169 12.9312 19.8169 12.9312 19.822C12.9312 19.8271 12.9312 19.8186 12.9312 19.8169ZM12.761 19.6467C12.761 19.6467 12.761 19.6467 12.761 19.6518C12.761 19.6569 12.761 19.6484 12.761 19.6467Z" fill="url(#paint6_linear_17752_43761)"/>
<path d="M13.1851 20.7351L13.1366 20.7206C13.1249 20.7168 13.1147 20.7094 13.1075 20.6995C13.1004 20.6895 13.0965 20.6776 13.0966 20.6653V20.5649H13.0115L12.963 20.5504C12.9513 20.5466 12.9411 20.5392 12.9339 20.5293C12.9267 20.5193 12.9229 20.5073 12.923 20.4951L12.9315 19.6517C13.656 19.6585 14.3797 19.6571 15.1025 19.6474C15.2057 19.6524 15.3086 19.634 15.4037 19.5936C15.4987 19.5532 15.5834 19.4919 15.6515 19.4142C15.7221 19.244 15.791 18.9283 15.7051 18.7334C15.604 18.672 15.4888 18.6374 15.3706 18.6329C14.8883 18.6244 14.1315 18.6244 13.1 18.6329V18.4627H12.9298V17.6057C12.93 17.5886 12.9369 17.5723 12.949 17.5602C12.961 17.5481 12.9774 17.5412 12.9944 17.541L15.4957 17.5351C15.7655 17.5351 15.9451 17.45 16.0361 17.2798C16.1973 16.9841 16.1998 16.7076 16.0438 16.45C15.9215 16.3832 15.784 16.3489 15.6447 16.3504L12.3042 16.3581C11.8336 16.3581 11.7579 16.6985 11.7596 17.1138C11.7596 17.6176 11.7596 18.1223 11.7596 18.6278C11.751 20.0355 11.7542 21.0528 11.7689 21.6798C11.772 21.7492 11.7937 21.8165 11.8319 21.8746C11.9151 21.9124 12.0062 21.9294 12.0974 21.924C13.243 21.9087 14.3888 21.9087 15.5349 21.924C15.8152 21.9274 15.9984 21.8139 16.0847 21.5836C16.1306 21.4772 16.1542 21.3625 16.1542 21.2466C16.1542 21.1307 16.1306 21.016 16.0847 20.9095C16.077 20.8985 16.0685 20.8891 16.0608 20.878C15.9339 20.7875 15.781 20.7403 15.6251 20.7436H13.1825M13.0847 18.6568C13.0814 18.6629 13.0791 18.6695 13.0779 18.6763C13.0788 18.6664 13.082 18.6568 13.0872 18.6483L13.0847 18.6568ZM16.083 16.5751C16.0787 16.5751 16.0753 16.5751 16.0727 16.5751C16.0702 16.5751 16.0813 16.5683 16.0855 16.5666L16.083 16.5751ZM15.9127 16.4049C15.9085 16.4049 15.9051 16.4049 15.9025 16.4049C15.9 16.4049 15.911 16.398 15.9153 16.3963L15.9127 16.4049ZM12.9289 19.8253C12.9289 19.8253 12.9289 19.8253 12.9289 19.8304C12.9289 19.8355 12.9315 19.8185 12.9315 19.8168L12.9289 19.8253ZM12.9144 18.4866C12.9112 18.4927 12.9089 18.4993 12.9076 18.5061C12.9086 18.4962 12.9118 18.4866 12.917 18.478L12.9144 18.4866ZM12.7587 19.6551C12.7587 19.6551 12.7587 19.6551 12.7587 19.6602C12.7587 19.6653 12.7613 19.6483 12.7613 19.6466L12.7587 19.6551Z" fill="url(#paint7_linear_17752_43761)"/>
<path d="M8.98522 21.5844C8.93651 21.4349 8.91715 21.2774 8.9282 21.1206C8.93926 20.1436 8.93756 18.8789 8.92309 17.8772C8.85756 17.97 8.78862 18.0644 8.71884 18.1598C8.7299 19.0644 8.73075 20.2355 8.71884 21.1206C8.70779 21.2774 8.72715 21.4349 8.77586 21.5844C8.81092 21.6664 8.86657 21.7379 8.93739 21.792C9.00822 21.8461 9.09183 21.8811 9.18011 21.8934C9.28896 21.9081 9.39899 21.9121 9.50862 21.9053C9.46948 21.9053 9.43033 21.8985 9.38777 21.8934C9.29979 21.8808 9.21653 21.8457 9.14603 21.7916C9.07552 21.7375 9.02014 21.6662 8.98522 21.5844Z" fill="white"/>
<path d="M15.3735 18.6289C15.4917 18.6334 15.6068 18.6679 15.7079 18.7293C15.6849 18.6725 15.6444 18.6245 15.5922 18.5923C15.4788 18.5098 15.3433 18.4633 15.2033 18.4587C14.7479 18.4502 13.8773 18.4484 12.9326 18.4536V18.6238C13.9641 18.6187 14.8909 18.6204 15.3735 18.6289Z" fill="white"/>
<path d="M13.0225 20.735H15.6276C15.7835 20.7317 15.9363 20.7789 16.0633 20.8695C15.9946 20.7733 15.9035 20.6954 15.7979 20.6423C15.6924 20.5892 15.5755 20.5626 15.4573 20.5648C14.7101 20.5648 13.7765 20.558 13.0148 20.558C12.9955 20.5586 12.9765 20.5526 12.961 20.541C12.9456 20.5294 12.9345 20.5129 12.9297 20.4941V20.6644C12.9296 20.6766 12.9335 20.6886 12.9407 20.6985C12.9479 20.7085 12.958 20.7159 12.9697 20.7197L13.1884 20.7341" fill="white"/>
<path d="M31.2507 21.4033C31.225 21.263 31.2138 21.1204 31.2175 20.9777C31.226 20.5567 31.226 19.7139 31.2175 18.4492C31.2175 17.8819 31.2206 17.3119 31.2269 16.7394C31.2193 16.5873 31.2644 16.4371 31.3546 16.3143C31.4448 16.1915 31.5747 16.1036 31.7222 16.0654C31.6729 16.0615 31.6234 16.0615 31.5741 16.0654C31.424 16.1024 31.2915 16.1907 31.1995 16.315C31.1075 16.4393 31.0618 16.5918 31.0703 16.7463C31.0606 17.3136 31.0575 17.8836 31.0609 18.456C31.0683 19.7207 31.0683 20.5636 31.0609 20.9845C31.0564 21.1272 31.0676 21.2699 31.0941 21.4101C31.1184 21.5442 31.1879 21.6659 31.291 21.7549C31.3941 21.844 31.5247 21.895 31.6609 21.8994H31.666C31.706 21.8994 31.7435 21.8994 31.7792 21.8994C31.6488 21.8864 31.5263 21.8307 31.4308 21.741C31.3352 21.6513 31.2719 21.5326 31.2507 21.4033Z" fill="#FEFEC8"/>
<path d="M35.3978 21.6501C35.4676 21.557 35.5056 21.4056 35.5119 21.1956C35.5255 20.7417 35.53 20.2907 35.5255 19.8424C35.5289 18.8399 35.5289 17.8382 35.5255 16.8373C35.5255 16.3483 35.3201 16.0898 34.9093 16.062L34.8387 16.0671C34.752 16.0854 34.6707 16.1234 34.601 16.1782C34.5314 16.2329 34.4753 16.303 34.437 16.3829C34.3813 16.5326 34.357 16.6922 34.3655 16.8518C34.3615 17.5684 34.3615 18.2839 34.3655 18.9982V19.1258C34.3655 19.2024 34.3425 19.2109 34.3008 19.1446L34.2072 19.0067V19.125C34.2072 19.2016 34.1842 19.2101 34.1417 19.1437C33.5629 18.2535 32.9703 17.3639 32.3638 16.4748C32.2957 16.362 32.2025 16.2663 32.0915 16.1952C31.9806 16.124 31.8548 16.0794 31.7238 16.0646C31.5763 16.1028 31.4464 16.1907 31.3562 16.3135C31.266 16.4363 31.2209 16.5864 31.2285 16.7386C31.2188 17.306 31.2157 17.8759 31.2191 18.4484C31.2276 19.7131 31.2276 20.5559 31.2191 20.9769C31.2155 21.1195 31.2266 21.2621 31.2523 21.4024C31.2754 21.53 31.3395 21.6466 31.4349 21.7345C31.5303 21.8224 31.6517 21.8767 31.7808 21.8892C32.3144 21.8544 32.3646 21.4952 32.357 21.0024C32.3468 20.2779 32.349 19.5531 32.3638 18.828C32.3638 18.7429 32.3876 18.7361 32.4319 18.8101C32.4549 18.8492 32.4787 18.8875 32.5034 18.9241L32.5187 18.948C32.5187 18.908 32.5187 18.868 32.5187 18.828C32.5187 18.7423 32.5417 18.7363 32.5876 18.8101C32.6106 18.8492 32.6344 18.8875 32.6583 18.9241C33.2824 19.879 33.8841 20.7806 34.4634 21.6288C34.5176 21.7059 34.5879 21.7702 34.6695 21.8174C34.751 21.8645 34.8419 21.8934 34.9357 21.902C35.0259 21.8938 35.1134 21.8673 35.1929 21.8239C35.2724 21.7806 35.3421 21.7214 35.3978 21.6501Z" fill="url(#paint8_linear_17752_43761)"/>
<path d="M35.5238 16.8373C35.5238 16.3483 35.3184 16.0898 34.9076 16.062L34.837 16.0671C34.7503 16.0854 34.669 16.1234 34.5993 16.1782C34.5297 16.2329 34.4735 16.303 34.4353 16.3829C34.3796 16.5326 34.3553 16.6922 34.3638 16.8518C34.3598 17.5684 34.3598 18.2839 34.3638 18.9982V19.1258C34.3638 19.2024 34.3408 19.2109 34.2991 19.1446L34.2072 19.0067V19.125C34.2072 19.2016 34.1842 19.2101 34.1417 19.1437C33.5629 18.2535 32.9703 17.3639 32.3638 16.4748C32.2957 16.362 32.2025 16.2663 32.0915 16.1952C31.9806 16.124 31.8548 16.0794 31.7238 16.0646C31.5763 16.1028 31.4464 16.1907 31.3562 16.3135C31.266 16.4363 31.2209 16.5864 31.2285 16.7386C31.2188 17.306 31.2157 17.8759 31.2191 18.4484C31.2276 19.7131 31.2276 20.5559 31.2191 20.9769C31.2155 21.1195 31.2266 21.2621 31.2523 21.4024C31.2754 21.53 31.3395 21.6466 31.4349 21.7345C31.5303 21.8224 31.6517 21.8767 31.7808 21.8892C32.3144 21.8544 32.3646 21.4952 32.357 21.0024C32.3468 20.2779 32.349 19.5531 32.3638 18.828C32.3638 18.7429 32.3876 18.7361 32.4319 18.8101C32.4549 18.8492 32.4787 18.8875 32.5034 18.9241L32.5187 18.948C33.1383 19.8938 33.734 20.7874 34.3059 21.6288C34.3764 21.727 34.4722 21.8043 34.5831 21.8524C34.694 21.9005 34.8158 21.9176 34.9357 21.902C35.0263 21.8935 35.1141 21.8665 35.1938 21.8226C35.2734 21.7786 35.3432 21.7188 35.3987 21.6467C35.4685 21.5536 35.5065 21.4022 35.5127 21.1922C35.5263 20.7383 35.5309 20.2873 35.5263 19.839C35.5292 18.8387 35.5283 17.8382 35.5238 16.8373Z" fill="url(#paint9_linear_17752_43761)"/>
<path d="M34.831 16.0585C35.2889 16.0585 35.5193 16.3181 35.5221 16.8373C35.5283 17.8381 35.5283 18.8398 35.5221 19.8424C35.5272 20.2917 35.5227 20.7428 35.5085 21.1956C35.5022 21.4055 35.4642 21.557 35.3944 21.65C35.33 21.7314 35.2476 21.7968 35.1537 21.841C35.0598 21.8853 34.957 21.9073 34.8532 21.9053C34.7456 21.9076 34.6391 21.8835 34.543 21.8351C34.4468 21.7868 34.364 21.7156 34.3017 21.6279C33.7235 20.7768 33.1221 19.8753 32.4974 18.9232C32.4727 18.8866 32.4489 18.8483 32.4259 18.8092C32.403 18.77 32.3902 18.7581 32.3783 18.7581C32.3664 18.7581 32.3587 18.7811 32.3578 18.827C32.3437 19.5527 32.3414 20.2775 32.351 21.0015C32.3595 21.5207 32.3025 21.8909 31.6872 21.8909H31.6566C31.5204 21.8864 31.3898 21.8354 31.2867 21.7464C31.1835 21.6573 31.114 21.5356 31.0898 21.4015C31.0632 21.2613 31.0521 21.1186 31.0566 20.976C31.0639 20.555 31.0639 19.7121 31.0566 18.4475C31.0532 17.8801 31.0563 17.3102 31.0659 16.7377C31.0575 16.5833 31.1032 16.4308 31.1952 16.3065C31.2871 16.1822 31.4196 16.0939 31.5698 16.0568H31.6327C31.9272 16.0568 32.1689 16.1953 32.3578 16.4721C32.9638 17.3618 33.5564 18.2514 34.1357 19.1411C34.1576 19.1817 34.1835 19.2199 34.2132 19.2551C34.2259 19.2551 34.2004 19.1641 34.2013 19.1224V18.9947C34.1944 18.2798 34.1944 17.5643 34.2013 16.8483C34.193 16.6887 34.2176 16.5291 34.2736 16.3794C34.3117 16.2995 34.3677 16.2295 34.4372 16.1748C34.5067 16.12 34.5879 16.082 34.6744 16.0636C34.7253 16.058 34.7765 16.0551 34.8276 16.0551M34.8276 15.7411C34.7651 15.7412 34.7026 15.7446 34.6404 15.7513H34.62L34.5987 15.7564C34.4677 15.7859 34.3451 15.8447 34.2401 15.9282C34.135 16.0118 34.0501 16.118 33.9919 16.239C33.9133 16.4303 33.8775 16.6366 33.8872 16.8432C33.8872 17.2883 33.8872 17.736 33.8872 18.1819C33.471 17.5513 33.0464 16.919 32.62 16.2926C32.3732 15.9317 32.0327 15.7402 31.6353 15.7402H31.5502H31.5119L31.4753 15.7521C31.2624 15.8107 31.0756 15.9397 30.9454 16.118C30.8153 16.2964 30.7495 16.5137 30.7587 16.7343C30.7493 17.3045 30.7459 17.8815 30.7493 18.4509C30.757 19.707 30.757 20.5547 30.7493 20.9717C30.7451 21.1366 30.7582 21.3015 30.7885 21.4636C30.8274 21.6676 30.9345 21.8523 31.0923 21.9873C31.25 22.1223 31.449 22.1997 31.6566 22.2066H31.6949C32.0123 22.2066 32.2481 22.1215 32.4149 21.9556C32.6625 21.7002 32.6778 21.33 32.6702 20.999C32.6642 20.5828 32.6625 20.1632 32.6651 19.7436C33.1391 20.4619 33.6013 21.1539 34.0472 21.8066C34.1384 21.9365 34.26 22.0422 34.4013 22.1144C34.5427 22.1867 34.6995 22.2233 34.8583 22.2211C35.0107 22.2226 35.1614 22.1889 35.2987 22.1226C35.436 22.0563 35.5561 21.9593 35.6498 21.839C35.7613 21.6917 35.82 21.4841 35.8276 21.2049C35.8413 20.7513 35.8455 20.2926 35.8413 19.8432C35.8413 18.8449 35.8413 17.8339 35.8413 16.8381C35.8413 16.1445 35.471 15.747 34.8361 15.747L34.8276 15.7411Z" fill="url(#paint10_linear_17752_43761)"/>
<path d="M34.3615 19.3606V18.9981C34.3552 18.2832 34.3552 17.5677 34.3615 16.8517C34.353 16.6922 34.3773 16.5326 34.433 16.3828C34.4712 16.3029 34.5274 16.2328 34.597 16.1781C34.6667 16.1233 34.748 16.0853 34.8347 16.067L34.9053 16.0619C34.8293 16.0565 34.7529 16.0582 34.6772 16.067C34.5907 16.0854 34.5095 16.1234 34.44 16.1782C34.3705 16.2329 34.3145 16.3029 34.2764 16.3828C34.2204 16.5325 34.1958 16.6921 34.204 16.8517C34.1998 17.5683 34.204 18.5189 34.204 19.2347V19.2432L34.2934 19.3802C34.3385 19.444 34.3606 19.4381 34.3615 19.3606Z" fill="#FEFEC8"/>
<path d="M11.7979 23.5225C11.8123 23.5386 11.8285 23.5548 11.8438 23.571L11.8208 23.5403L11.7979 23.5225Z" fill="#EBB530"/>
<path d="M27.3111 23.5403L27.2881 23.571C27.3034 23.5548 27.3196 23.5386 27.334 23.5225L27.3111 23.5403Z" fill="#EBB530"/>
<path d="M19.8218 25.6321C16.6406 25.6321 13.8218 24.73 12.0771 23.3428L12.1001 23.3726C13.6593 25.0185 16.5333 26.1223 19.8227 26.1223C23.112 26.1223 25.9852 25.016 27.5444 23.3726L27.5674 23.3428C25.8218 24.73 23.0023 25.6321 19.8218 25.6321Z" fill="#EBB530"/>
<path d="M19.8222 26.1223C16.5328 26.1223 13.6588 25.016 12.0996 23.3726C13.5158 25.2049 16.44 26.4628 19.8222 26.4628C23.2043 26.4628 26.1277 25.2049 27.5439 23.3726C25.9847 25.0185 23.1107 26.1223 19.8222 26.1223Z" fill="#A34F11"/>
<path d="M19.8218 25.8671C17.3895 25.8671 15.1835 25.2628 13.5665 24.2832C13.0288 24.0183 12.5207 23.6971 12.0508 23.325C13.5989 24.9981 16.4976 26.1232 19.8193 26.1232C23.141 26.1232 26.0389 24.9981 27.587 23.325C27.1189 23.6967 26.6128 24.018 26.0772 24.2832C24.4601 25.2628 22.2533 25.8671 19.8218 25.8671Z" fill="#EBB530"/>
<path d="M26.077 24.2832C24.3979 25.1241 22.2132 25.633 19.8251 25.633C17.437 25.633 15.2481 25.1232 13.5664 24.2832C15.1834 25.2636 17.3868 25.8679 19.8192 25.8679C22.2515 25.8679 24.46 25.2628 26.077 24.2832Z" fill="#FEFEC8"/>
<path d="M18.811 20.735C19.7004 20.735 20.754 20.735 21.6306 20.735C21.8077 20.7297 21.9837 20.7643 22.1455 20.8363C22.1219 20.7776 22.0813 20.7272 22.0289 20.6916C21.854 20.5998 21.6578 20.556 21.4604 20.5648C20.6093 20.5648 19.5838 20.5648 18.7217 20.5648C18.7217 20.5972 18.7217 20.6287 18.7285 20.6601C18.7309 20.6805 18.7406 20.6992 18.7558 20.713C18.771 20.7267 18.7906 20.7346 18.811 20.735Z" fill="white"/>
<circle cx="20" cy="20" r="19.5" stroke="black" stroke-opacity="0.05"/>
<defs>
<linearGradient id="paint0_linear_17752_43761" x1="23.2471" y1="19.0185" x2="29.8105" y2="19.0185" gradientUnits="userSpaceOnUse">
<stop stop-color="#F6BE00"/>
<stop offset="1" stop-color="#D7831A"/>
</linearGradient>
<linearGradient id="paint1_linear_17752_43761" x1="23.7484" y1="19.1036" x2="29.6497" y2="19.1036" gradientUnits="userSpaceOnUse">
<stop stop-color="#F4E400"/>
<stop offset="1" stop-color="#FFC509"/>
</linearGradient>
<linearGradient id="paint2_linear_17752_43761" x1="23.577" y1="19.1129" x2="29.4995" y2="19.1129" gradientUnits="userSpaceOnUse">
<stop stop-color="#F4E400"/>
<stop offset="1" stop-color="#FFC509"/>
</linearGradient>
<linearGradient id="paint3_linear_17752_43761" x1="7.31598" y1="16.2628" x2="7.35598" y2="22.4007" gradientUnits="userSpaceOnUse">
<stop stop-color="#F6BE00"/>
<stop offset="1" stop-color="#D7831A"/>
</linearGradient>
<linearGradient id="paint4_linear_17752_43761" x1="7.39986" y1="19.0781" x2="7.25858" y2="21.5675" gradientUnits="userSpaceOnUse">
<stop stop-color="#F4E400"/>
<stop offset="1" stop-color="#FFC509"/>
</linearGradient>
<linearGradient id="paint5_linear_17752_43761" x1="11.2669" y1="19.0007" x2="16.4822" y2="19.0007" gradientUnits="userSpaceOnUse">
<stop stop-color="#F6BE00"/>
<stop offset="1" stop-color="#D7831A"/>
</linearGradient>
<linearGradient id="paint6_linear_17752_43761" x1="11.7559" y1="19.1343" x2="16.3312" y2="19.1343" gradientUnits="userSpaceOnUse">
<stop stop-color="#F4E400"/>
<stop offset="1" stop-color="#FFC509"/>
</linearGradient>
<linearGradient id="paint7_linear_17752_43761" x1="11.5859" y1="19.1342" x2="16.1613" y2="19.1342" gradientUnits="userSpaceOnUse">
<stop stop-color="#F4E400"/>
<stop offset="1" stop-color="#FFC509"/>
</linearGradient>
<linearGradient id="paint8_linear_17752_43761" x1="31.2157" y1="18.982" x2="35.6846" y2="18.982" gradientUnits="userSpaceOnUse">
<stop stop-color="#F4E400"/>
<stop offset="1" stop-color="#FFC509"/>
</linearGradient>
<linearGradient id="paint9_linear_17752_43761" x1="31.0583" y1="18.9846" x2="35.5272" y2="18.9846" gradientUnits="userSpaceOnUse">
<stop stop-color="#F4E400"/>
<stop offset="1" stop-color="#FFC509"/>
</linearGradient>
<linearGradient id="paint10_linear_17752_43761" x1="30.7459" y1="18.9828" x2="35.8421" y2="18.9828" gradientUnits="userSpaceOnUse">
<stop stop-color="#F6BE00"/>
<stop offset="1" stop-color="#D7831A"/>
</linearGradient>
</defs>
</svg>
