<svg width="40" height="40" viewBox="0 0 40 40" fill="none" xmlns="http://www.w3.org/2000/svg">
<circle cx="20" cy="20" r="20" fill="#00A0B0"/>
<path d="M14.0072 18.9185C14.0108 18.9194 14.0146 18.9191 14.018 18.9177C14.0214 18.9163 14.0243 18.9138 14.0262 18.9107C14.4776 18.3028 15.1201 17.8968 15.8703 17.793C16.8316 17.6599 17.6396 18.0333 18.0415 18.941C18.3034 19.5323 18.3228 20.2434 18.2206 20.8981C18.0284 22.1293 17.4249 23.2926 16.4316 24.0436C15.7982 24.5228 15.0634 24.7895 14.2272 24.8437C13.344 24.9012 12.516 24.684 12.0741 23.8639C11.7303 23.226 11.6856 22.379 11.8278 21.6689C12.2843 19.3927 12.7379 17.1209 13.1886 14.8535C13.1892 14.8507 13.1907 14.8482 13.1929 14.8463C13.1952 14.8445 13.1979 14.8435 13.2008 14.8435H14.8073C14.8105 14.8436 14.8135 14.8449 14.8157 14.8472C14.8179 14.8495 14.8192 14.8525 14.8192 14.8557C14.8192 14.8557 14.8192 14.8573 14.8192 14.8579L13.994 18.8994C13.9933 18.9036 13.9942 18.908 13.9966 18.9115C13.999 18.9151 14.0027 18.9176 14.0069 18.9185H14.0072ZM15.0526 19.1763C14.2713 19.4732 13.7587 20.3381 13.5755 21.1307C13.5114 21.408 13.442 21.7464 13.3674 22.1458C13.3049 22.4852 13.3037 22.7807 13.364 23.0322C13.4918 23.5567 14.0347 23.6685 14.4957 23.5885C15.027 23.4948 15.4827 23.1494 15.7968 22.7253C16.2595 22.1055 16.53 21.3634 16.5747 20.5912C16.6032 20.1662 16.5122 19.6517 16.1916 19.3454C15.8918 19.0597 15.4264 19.0341 15.0526 19.1763Z" fill="white"/>
<path d="M21.5419 15.7851C21.4922 15.5763 21.3648 15.3943 21.1856 15.2761C21.0064 15.1579 20.7889 15.1125 20.5774 15.149C20.3578 15.1842 20.1544 15.2861 19.9948 15.4409C19.7001 15.7222 19.5688 16.1373 19.6588 16.5061C19.696 16.6643 19.7767 16.8089 19.8917 16.9237C19.9778 17.0077 20.081 17.0724 20.1942 17.1133C20.3074 17.1542 20.428 17.1704 20.548 17.1609C20.6909 17.1487 20.83 17.1084 20.9572 17.0423C21.0844 16.9761 21.1973 16.8855 21.2894 16.7755C21.396 16.6517 21.4758 16.5072 21.5238 16.3511C21.5816 16.1676 21.5878 15.9718 21.5419 15.7851ZM21.2356 16.1679C21.2338 16.1669 21.2318 16.1662 21.2297 16.1657C21.2318 16.1661 21.2338 16.1669 21.2356 16.1679ZM21.2125 16.1682C21.2111 16.1687 21.2097 16.1694 21.2084 16.1701L21.2125 16.1682ZM20.3174 16.4736H20.3152C20.3159 16.4737 20.3166 16.4737 20.3174 16.4736ZM20.3111 16.4717C20.3109 16.4709 20.3108 16.4701 20.3108 16.4692C20.3107 16.4701 20.3107 16.4709 20.3108 16.4717H20.3111ZM21.2403 16.1698C21.2437 16.1718 21.2466 16.1746 21.2487 16.1779C21.2464 16.1747 21.2434 16.1719 21.24 16.1698H21.2403ZM21.436 16.3411C21.436 16.3411 21.436 16.3436 21.436 16.3445C21.436 16.3455 21.4375 16.3423 21.436 16.3411ZM21.4525 16.3561C21.4525 16.3561 21.4507 16.3561 21.4494 16.3561C21.4508 16.3562 21.4521 16.3562 21.4535 16.3561H21.4525Z" fill="white"/>
<path d="M9.05541 23.5327C9.05322 23.523 9.04978 23.5224 9.04447 23.5308C8.60878 24.2394 7.96837 24.702 7.13794 24.8076C6.73163 24.8595 6.27781 24.8145 5.91651 24.6216C5.22766 24.255 4.96262 23.4783 5.00419 22.7226C5.04474 21.8431 5.37707 21.0022 5.9487 20.3326C6.72475 19.4071 7.93524 18.9633 9.13136 19.0589C9.34603 19.0757 9.55685 19.1254 9.75645 19.2062C9.75843 19.2075 9.76074 19.2083 9.76313 19.2084C9.76552 19.2086 9.7679 19.2081 9.77004 19.207C9.77217 19.2059 9.77398 19.2043 9.77527 19.2023C9.77657 19.2002 9.7773 19.1979 9.77739 19.1955C9.82333 19.008 9.87115 18.7523 9.82427 18.5657C9.78583 18.4154 9.61049 18.306 9.47328 18.2488C9.17136 18.1238 8.85319 18.1041 8.52533 18.1057C8.14465 18.1076 7.76074 18.126 7.3736 18.161C7.37074 18.1613 7.3679 18.1604 7.36568 18.1586C7.36346 18.1568 7.36204 18.1542 7.36172 18.1513C7.36157 18.1502 7.36157 18.149 7.36172 18.1479L7.61551 17.0705C7.61624 17.0675 7.61789 17.0647 7.62023 17.0626C7.62257 17.0604 7.6255 17.0591 7.62864 17.0587C8.15747 16.9954 8.69078 16.9779 9.22262 17.0065C10.023 17.0496 11.3386 17.2527 11.402 18.292C11.4095 18.4151 11.382 18.6064 11.3195 18.8658C11.1911 19.3982 11.0593 19.976 10.9241 20.5992C10.8126 21.1147 10.7223 21.576 10.6531 21.9831C10.4728 23.0458 10.7528 24.2022 11.7158 24.8032C11.747 24.8223 11.7436 24.8345 11.708 24.8345C10.7153 24.9007 9.30888 24.7113 9.05541 23.5327ZM6.74257 21.6056C6.56567 22.0244 6.50316 22.4335 6.55504 22.8329C6.6013 23.1858 6.79414 23.4946 7.152 23.5865C7.36424 23.6424 7.58844 23.6325 7.79491 23.558C8.47126 23.3193 8.92664 22.6145 9.14855 21.9441C9.22149 21.7187 9.28067 21.489 9.32576 21.2565C9.40556 20.8606 9.48557 20.4779 9.56579 20.1085C9.56678 20.1058 9.56714 20.103 9.56682 20.1002C9.5665 20.0974 9.56553 20.0947 9.56397 20.0924C9.56241 20.09 9.56032 20.0881 9.55787 20.0867C9.55542 20.0853 9.55267 20.0845 9.54985 20.0844C9.26856 20.0325 8.9432 20.0138 8.6691 20.0532C7.79647 20.1763 7.08137 20.7995 6.74101 21.6059L6.74257 21.6056Z" fill="white"/>
<path d="M27.512 22.6605C26.8488 24.0073 25.5742 24.8555 24.0574 24.8518C22.3594 24.8474 21.2648 23.6328 21.312 21.9398C21.3358 21.0828 21.5599 20.3077 21.9843 19.6144C22.7344 18.388 24.0205 17.6888 25.4682 17.777C26.6987 17.852 27.6379 18.6209 27.913 19.8398C27.96 20.0456 27.9859 20.2557 27.9902 20.4667C28.0039 21.2542 27.8445 21.9854 27.512 22.6605ZM25.1188 19.0256C23.9033 18.949 23.2307 20.3405 23.0466 21.3356C22.9357 21.9448 22.9357 22.6414 23.3107 23.1262C23.5687 23.4596 23.9259 23.6159 24.3825 23.595C24.9341 23.5678 25.3954 23.169 25.6952 22.7083C26.0702 22.1284 26.2786 21.466 26.3202 20.7208C26.3609 19.9242 26.019 19.0825 25.1188 19.0256Z" fill="white"/>
<path d="M34.1188 17.0758C33.5193 16.3707 32.7198 15.8621 31.8778 15.488C31.2723 15.2192 30.6467 14.9981 30.0066 14.827C27.8682 14.2538 25.6688 14.0581 23.4619 14H22.5058L22.3183 14.0094C22.2917 14.0094 22.2899 14.0181 22.3127 14.0316C22.4948 14.1414 22.699 14.2095 22.9106 14.231C23.0823 14.247 23.249 14.2604 23.4107 14.271C25.115 14.3826 26.8712 14.6738 28.5111 15.1877C29.6719 15.5505 30.7958 16.0566 31.7444 16.821C32.0942 17.1103 32.4035 17.4453 32.6639 17.8171C32.6648 17.8185 32.6655 17.8199 32.6661 17.8215C32.6669 17.825 32.6664 17.8287 32.6646 17.8319C32.6628 17.835 32.6599 17.8374 32.6564 17.8384L32.3341 17.9296C31.715 18.1484 31.1912 18.586 30.8267 19.1236C30.8242 19.1274 30.8205 19.1304 30.8161 19.132C30.8106 19.1341 30.8044 19.134 30.7989 19.1316C30.7935 19.1292 30.7892 19.1247 30.787 19.1192C30.5967 18.6329 30.2748 18.0315 29.7869 17.8134C29.7063 17.777 29.6179 17.7612 29.5297 17.7674C29.5272 17.7673 29.5248 17.7677 29.5225 17.7685C29.5202 17.7693 29.5181 17.7706 29.5162 17.7723C29.5144 17.7739 29.513 17.7759 29.512 17.7782C29.5109 17.7804 29.5104 17.7828 29.5103 17.7852C29.4003 18.5847 29.3255 19.0893 29.2859 19.2989C28.9394 21.1325 28.5927 22.9736 28.2457 24.8222C28.2432 24.8366 28.2492 24.8438 28.2636 24.8438H29.8425C29.8467 24.8438 29.8507 24.8423 29.8539 24.8397C29.8571 24.8371 29.8592 24.8334 29.86 24.8294C30.0476 23.8388 30.2432 22.7949 30.447 21.6977C30.4897 21.4668 30.5358 21.2657 30.5851 21.0945C30.7952 20.3647 31.2243 19.5977 31.9207 19.2314C32.1266 19.1219 32.3605 19.0759 32.5926 19.0995C33.1865 19.1601 33.3237 19.6818 33.2927 20.185C33.2807 20.4111 33.2541 20.6361 33.213 20.8588C32.9569 22.1857 32.7006 23.5082 32.4439 24.8263C32.4437 24.8272 32.4437 24.8281 32.4439 24.8291C32.4439 24.831 32.4442 24.833 32.445 24.8348C32.4458 24.8366 32.4469 24.8382 32.4483 24.8396C32.4497 24.8409 32.4513 24.842 32.4531 24.8427C32.455 24.8435 32.4569 24.8438 32.4589 24.8438H34.0619C34.0648 24.844 34.0678 24.8431 34.07 24.8413C34.0723 24.8394 34.0738 24.8367 34.0741 24.8338C34.3368 23.4557 34.6005 22.0791 34.8651 20.7041C34.937 20.3182 34.9819 19.9277 34.9995 19.5355V19.3939C34.9787 18.5142 34.6851 17.7415 34.1188 17.0758Z" fill="white"/>
<path d="M18.1986 24.814L19.5319 17.7858C19.5325 17.7828 19.5341 17.7801 19.5364 17.7782C19.5387 17.7762 19.5417 17.7752 19.5447 17.7751H21.1337C21.1372 17.7751 21.1405 17.7765 21.143 17.7789C21.1455 17.7812 21.147 17.7845 21.1471 17.788C21.1473 17.7889 21.1473 17.7898 21.1471 17.7908L19.8141 24.8193C19.8136 24.8223 19.812 24.825 19.8096 24.8269C19.8073 24.8288 19.8044 24.8299 19.8013 24.8299H18.2117C18.2083 24.8299 18.2049 24.8286 18.2024 24.8262C18.1999 24.8238 18.1984 24.8206 18.1983 24.8171C18.1982 24.8161 18.1983 24.815 18.1986 24.814Z" fill="white"/>
<circle cx="20" cy="20" r="19.5" stroke="black" stroke-opacity="0.05"/>
</svg>
