<svg width="40" height="40" viewBox="0 0 40 40" fill="none" xmlns="http://www.w3.org/2000/svg">
<circle cx="20" cy="20" r="20" fill="#01582E"/>
<g clip-path="url(#clip0_18553_55920)">
<path d="M35.0004 22.8016C35.0004 22.8016 34.9923 22.8016 34.9896 22.8016C34.874 22.8016 34.7583 22.8016 34.6454 22.8016C33.8761 22.7988 33.1096 22.7988 32.3404 22.8016C32.2651 22.8016 32.1951 22.8016 32.1279 22.8016C31.1919 22.8016 30.2451 22.8016 29.2903 22.8016C29.0725 22.8016 28.8519 22.8016 28.6341 22.8016C28.5803 22.8016 28.5292 22.8016 28.4754 22.8016C28.47 22.8016 28.4646 22.7988 28.4592 22.7903C28.4539 22.7533 28.4512 22.7136 28.4512 22.6738C28.4512 22.6483 28.4512 22.6227 28.4512 22.6C28.4512 20.9927 28.4512 19.3826 28.4512 17.7753C28.4512 17.5282 28.4512 17.2811 28.4512 17.0341C28.4512 17.0256 28.4566 17.017 28.4646 17.0142C28.4861 17.0085 28.5077 17.0057 28.5292 17.0057C29.2903 17.0057 30.0273 17.0057 30.7427 17.0057C30.7885 17.0057 30.8288 17.0256 30.8664 17.0625C31.0144 17.213 31.1596 17.3635 31.3022 17.5197C31.4313 17.6617 31.5711 17.7951 31.7029 17.9371C31.8509 18.0961 31.9961 18.2495 32.1413 18.4C32.1924 18.454 32.2435 18.5051 32.2919 18.559C32.4049 18.684 32.5233 18.8061 32.647 18.9339C32.6524 18.9396 32.6604 18.9396 32.6658 18.9339C32.6658 18.9339 32.6658 18.931 32.6685 18.9282C32.6739 18.9083 32.6793 18.8884 32.6766 18.8686C32.6739 18.7493 32.6739 18.6385 32.6766 18.5391C32.6766 18.454 32.6766 18.3801 32.6766 18.3148C32.6766 17.8803 32.6766 17.4515 32.6766 17.0256C32.6766 17.0114 32.6873 17 32.7008 17C32.7384 17 32.7734 17 32.8057 17C33.4673 17 34.1774 17 34.9358 17C34.96 17 34.9843 17.0028 35.0031 17.0114C35.0112 17.0142 35.0165 17.0227 35.0165 17.0341C35.0165 17.0994 35.0138 17.1704 35.0138 17.2471C35.0138 18.8572 35.0138 20.6832 35.0138 22.7221C35.0138 22.7448 35.0138 22.7874 34.995 22.8016H35.0004ZM32.4964 22.316C32.4964 22.316 32.5071 22.3103 32.5071 22.3047C32.5071 22.3047 32.5071 22.299 32.5044 22.2961L30.8207 20.5185C30.8207 20.5185 30.81 20.5156 30.8073 20.5185C30.8073 20.5185 30.8046 20.5241 30.8046 20.527V22.3047C30.8046 22.3047 30.81 22.316 30.8153 22.316H32.499H32.4964ZM31.7809 22.3416C31.8535 22.3416 31.9288 22.3416 32.0042 22.3416C32.0095 22.3416 32.0122 22.3416 32.0122 22.3359C32.0122 22.3331 32.0176 22.3302 32.023 22.3302C32.0284 22.3302 32.0284 22.3302 32.023 22.3274C32.023 22.3274 32.0176 22.3245 32.0149 22.3274C31.9907 22.3274 31.9665 22.3274 31.9396 22.3274C31.9046 22.3274 31.8804 22.3245 31.867 22.3245C31.8374 22.3245 31.8051 22.3245 31.7755 22.3245C31.7648 22.3245 31.7513 22.3245 31.7352 22.3245C31.7217 22.3245 31.7083 22.3245 31.6949 22.3245C31.6787 22.3245 31.6626 22.3245 31.6464 22.3245C31.5523 22.3245 31.4582 22.3245 31.3613 22.3245C31.2833 22.3245 31.2027 22.3245 31.1139 22.3245C31.1139 22.3245 31.1139 22.3245 31.1112 22.3245C31.1112 22.3245 31.1112 22.3245 31.1112 22.3274C31.1112 22.3274 31.1112 22.3274 31.1139 22.3274C31.1354 22.3331 31.1542 22.3387 31.1677 22.3387C31.2645 22.3387 31.3721 22.3387 31.4878 22.3387C31.4904 22.3387 31.4931 22.3387 31.4958 22.3359C31.5039 22.3302 31.512 22.3302 31.52 22.3359C31.5227 22.3359 31.5254 22.3387 31.5308 22.3387H31.7271C31.7271 22.3387 31.7271 22.3387 31.7298 22.3387C31.7433 22.3387 31.7594 22.3359 31.7755 22.3359L31.7809 22.3416Z" fill="white"/>
<path d="M11.6193 22.8043H5.48697C5.34173 22.8043 5.20994 22.8043 5.09429 22.8015C5.07277 22.8015 5.06201 22.7873 5.06201 22.7645C5.06201 20.8505 5.06201 18.9394 5.06201 17.0339C5.06201 17.0197 5.07277 17.0055 5.08891 17.0055C5.20725 16.9998 5.3229 17.0055 5.43856 17.0055C6.01683 17.0055 6.5924 17.0055 7.17067 17.0055C7.24598 17.0055 7.32398 16.997 7.3966 17.0083C7.41812 17.0112 7.42888 17.0225 7.42888 17.0453C7.42888 18.7889 7.42888 20.5012 7.42888 22.1824C7.42888 22.2165 7.42888 22.2505 7.42619 22.2846C7.42619 22.3017 7.43694 22.3159 7.45308 22.3159H9.25513C9.25513 22.3159 9.27395 22.3102 9.27395 22.296C9.27395 22.242 9.27126 22.1852 9.27126 22.1284C9.27126 22.0773 9.27126 22.029 9.27126 21.9836C9.27126 20.399 9.27126 18.8968 9.27126 17.4797C9.27126 17.3008 9.27126 17.1532 9.27395 17.0311C9.27395 17.0112 9.28202 17.0027 9.30085 17.0027C10.0593 17.0027 10.8124 17.0027 11.5628 17.0027C11.5843 17.0027 11.6032 17.0027 11.622 17.0083C11.6301 17.0083 11.6381 17.0169 11.6381 17.0282C11.6381 17.1333 11.6381 17.2384 11.6381 17.3434C11.6381 19.141 11.6381 20.9386 11.6381 22.7361C11.6381 22.756 11.6381 22.7901 11.6166 22.8043H11.6193ZM7.73011 22.3443C7.73011 22.3443 7.74087 22.3443 7.74356 22.3443C7.74894 22.3414 7.75163 22.3443 7.75432 22.3471C7.75432 22.3499 7.75701 22.3528 7.76239 22.3528C7.89956 22.3584 8.04211 22.3584 8.19004 22.3584C8.45631 22.3584 8.72258 22.3556 8.99154 22.3556C9.00499 22.3556 9.01844 22.3528 9.03189 22.3556C9.03458 22.3556 9.03727 22.3556 9.03996 22.3528C9.04534 22.3471 9.0534 22.3414 9.06416 22.3443C9.05878 22.3443 9.0534 22.3443 9.05071 22.3414C9.05071 22.3414 9.04803 22.3386 9.04534 22.3386C8.99154 22.3357 8.93237 22.3329 8.8732 22.3357C8.8732 22.3357 8.87051 22.3357 8.86782 22.3357C8.86782 22.3329 8.86244 22.3301 8.85975 22.3301C8.49934 22.3301 8.14162 22.3301 7.78122 22.3301C7.76239 22.3301 7.74356 22.3301 7.72473 22.3329C7.71935 22.3329 7.71666 22.3329 7.71397 22.3357C7.7086 22.3357 7.70591 22.3357 7.70053 22.3357C7.69515 22.3357 7.69246 22.3357 7.68708 22.3357C7.67363 22.3443 7.65749 22.3443 7.63867 22.3414C7.66556 22.3414 7.68977 22.3414 7.71935 22.3443C7.71935 22.3443 7.71935 22.3443 7.72204 22.3443C7.72204 22.3443 7.72204 22.3443 7.72473 22.3443H7.73011Z" fill="white"/>
<path d="M18.5532 17.1507C18.5532 17.1791 18.5532 17.2046 18.5532 17.233C18.5532 18.6728 18.5532 20.0842 18.5532 21.4671C18.5532 21.8164 18.5532 22.2026 18.5559 22.6257C18.5559 22.6712 18.5532 22.7194 18.5559 22.7649C18.5559 22.7933 18.5451 22.8046 18.5182 22.8046C17.3617 22.8018 16.3504 22.799 15.479 22.8046C15.4063 22.8046 15.3337 22.8046 15.2665 22.8046C14.4004 22.8046 13.5397 22.8046 12.6818 22.8046C12.6199 22.8046 12.5473 22.8046 12.4693 22.8046C12.316 22.8046 12.16 22.8075 11.9959 22.8075C11.9825 22.7677 11.9744 22.7223 11.9771 22.6683C11.9771 22.6343 11.9771 22.603 11.9771 22.5775C11.9771 20.6464 11.9771 18.8233 11.9771 17.1024C11.9771 17.074 11.9771 17.0513 11.9771 17.0257C11.9771 17.0144 11.9851 17.0059 11.9932 17.0059C12.0094 17.0059 12.0255 17.0059 12.0416 17.0059C12.8109 17.0059 13.5532 17.0059 14.274 17.0059C14.3278 17.0059 14.3735 17.0343 14.4085 17.074C14.543 17.2132 14.6775 17.3523 14.8119 17.4971C14.9249 17.6192 15.0406 17.7414 15.1589 17.8606C15.2799 17.9827 15.4682 18.1957 15.635 18.3633C15.8017 18.5336 15.9739 18.7182 16.1514 18.9142C16.1567 18.9199 16.1648 18.9255 16.1729 18.9284C16.1836 18.9284 16.1917 18.9255 16.1944 18.9142C16.1944 18.9142 16.1944 18.9113 16.1944 18.9085C16.189 18.7665 16.1944 18.6274 16.1944 18.4854C16.1944 18.1446 16.1944 17.7811 16.1944 17.3949C16.1944 17.2756 16.1971 17.1564 16.1944 17.0371C16.1944 17.0286 16.1998 17.0172 16.2078 17.0144C16.2186 17.0087 16.2294 17.0059 16.2401 17.0059C16.891 17.0059 17.6495 17.0059 18.5155 17.0059C18.5344 17.0059 18.5478 17.0201 18.5478 17.0399V17.1535L18.5532 17.1507ZM15.4171 22.3162C15.6134 22.3162 15.7829 22.3162 15.9254 22.3162C15.9496 22.3162 15.9712 22.319 15.9954 22.3219C16.033 22.3276 16.0384 22.3134 16.0115 22.285C15.9765 22.2481 15.947 22.2055 15.9093 22.1685C15.8125 22.0691 15.7156 21.9584 15.6242 21.8618C15.5005 21.7341 15.3687 21.5949 15.2288 21.4416C15.1481 21.3535 15.0406 21.2513 14.9491 21.1547C14.8684 21.0696 14.785 20.9787 14.6936 20.8821C14.6075 20.7913 14.5134 20.6975 14.4273 20.6067C14.4031 20.5811 14.3843 20.5527 14.3628 20.5243C14.3601 20.5186 14.352 20.5186 14.3493 20.5243C14.3439 20.53 14.3439 20.5385 14.3439 20.5442C14.3493 20.6379 14.3439 20.7373 14.3439 20.8367C14.3439 21.3223 14.3439 21.7908 14.3439 22.2424C14.3439 22.2679 14.3386 22.3332 14.3789 22.3219C14.4004 22.3162 14.4219 22.3134 14.4461 22.3134C14.6021 22.3134 14.9276 22.3134 15.4171 22.3134V22.3162ZM15.5354 22.3247C15.5032 22.319 15.4655 22.3162 15.4225 22.3162C15.1992 22.3162 14.9921 22.3162 14.8012 22.319C14.7904 22.319 14.7823 22.3247 14.7716 22.3247C14.7474 22.3247 14.7259 22.3247 14.7017 22.3247C14.6936 22.3247 14.6828 22.3247 14.6748 22.3304C14.664 22.3332 14.6559 22.3361 14.6452 22.3361C14.6371 22.3361 14.6371 22.3361 14.6452 22.3389L14.6694 22.3446V22.3531C14.9115 22.356 15.1535 22.3588 15.3983 22.3531C15.4225 22.3531 15.4467 22.3531 15.4763 22.3503C15.5032 22.3503 15.5274 22.3503 15.5516 22.3474C15.5543 22.3474 15.557 22.3474 15.5596 22.3446C15.565 22.3418 15.5704 22.3389 15.5758 22.3389C15.5946 22.3389 15.6134 22.3389 15.6323 22.3389C15.6215 22.3389 15.6081 22.3389 15.5946 22.3389C15.5946 22.3389 15.5946 22.3389 15.5946 22.3361C15.5731 22.3361 15.5543 22.3361 15.5328 22.3304L15.5354 22.3247Z" fill="white"/>
<path d="M21.2724 17.3267V22.7904C21.2724 22.7904 21.2617 22.8103 21.2536 22.8103C21.2267 22.8132 21.2025 22.816 21.181 22.816C20.5274 22.816 19.8577 22.816 19.1691 22.816C19.0885 22.816 19.0051 22.8188 18.9217 22.816C18.9002 22.816 18.8814 22.7961 18.8814 22.7734C18.8787 22.6854 18.876 22.5917 18.876 22.4979C18.8787 20.8338 18.8787 19.1697 18.876 17.5056V17.0314C18.876 17.0314 18.884 17.0115 18.8921 17.0087C18.9109 17.0059 18.9271 17.003 18.9432 17.003C19.6506 17.003 20.3284 17.003 20.9739 17.003C21.0626 17.003 21.1514 16.9973 21.2402 17.003C21.259 17.003 21.2697 17.0144 21.2697 17.0371V17.3239L21.2724 17.3267Z" fill="white"/>
<path d="M28.1552 22.7506C28.1552 22.7676 28.1552 22.7818 28.1498 22.7932C28.1498 22.7989 28.1444 22.8017 28.139 22.8017C28.0045 22.8017 27.8378 22.8017 27.6388 22.8017C26.883 22.8017 26.1245 22.8017 25.3607 22.8017C25.2853 22.8017 25.2154 22.8017 25.1482 22.8017C24.0992 22.8017 23.053 22.8017 22.004 22.8017C21.8749 22.8017 21.7485 22.8017 21.6221 22.8017C21.5952 22.8017 21.5791 22.7875 21.5791 22.7591C21.5737 22.691 21.5791 22.6171 21.5791 22.5575C21.5791 20.8906 21.5791 19.2208 21.5791 17.5538V17.0342C21.5791 17.0342 21.5871 17.0114 21.5979 17.0086C21.6086 17.0058 21.6221 17.0029 21.6382 17.0029C21.7162 17.0029 21.813 17.0029 21.926 17.0029C23.9486 17.0058 25.9739 17.0058 28.0019 17.0029C28.0557 17.0029 28.1014 17.0029 28.139 17.0058C28.1552 17.0058 28.1632 17.0171 28.1632 17.0342V22.7506H28.1552ZM25.8044 22.0946C25.8071 22.1145 25.8098 22.1315 25.8071 22.1514C25.8071 22.1514 25.8071 22.1514 25.8071 22.1542C25.8071 22.1514 25.8071 22.1486 25.8098 22.1457H25.8125C25.8125 22.1429 25.8125 22.14 25.8179 22.1372C25.8179 22.1344 25.8233 22.1372 25.8233 22.1372C25.8233 22.1429 25.826 22.1486 25.826 22.1542C25.826 22.1571 25.826 22.1599 25.8313 22.1628C25.8394 22.1684 25.8421 22.177 25.8394 22.1883C25.8394 22.177 25.8394 22.1628 25.8394 22.1514C25.8394 22.14 25.8394 22.1287 25.8475 22.1145C25.8555 22.0889 25.8609 22.0662 25.8636 22.0492C25.8663 22.0094 25.869 21.9384 25.869 21.8419C25.869 21.839 25.869 21.8334 25.869 21.8305C25.869 21.8248 25.8663 21.8163 25.8636 21.805C25.8582 21.734 25.8555 21.6885 25.8555 21.6686C25.8555 21.5181 25.8555 21.3705 25.8555 21.22C25.8555 21.22 25.8555 21.22 25.8555 21.2171C25.8555 21.2171 25.8555 21.2143 25.8555 21.2114C25.8555 21.1575 25.8555 21.1035 25.8555 21.0496C25.8555 20.9928 25.8555 20.9388 25.8555 20.8877C25.8555 20.5611 25.8582 20.2403 25.8555 19.9222C25.8555 19.9165 25.8555 19.9137 25.8555 19.908C25.8555 19.9052 25.8555 19.8995 25.8555 19.8966C25.8555 19.8938 25.8582 19.8881 25.8582 19.8853V19.7177C25.8582 19.7177 25.8582 19.7092 25.8529 19.7064C25.8502 19.7035 25.8475 19.6979 25.8475 19.6922C25.8475 19.6695 25.8475 19.6496 25.8475 19.6297C25.8475 19.624 25.8475 19.6212 25.8448 19.6183C25.8394 19.6127 25.8367 19.6041 25.8313 19.5985C25.8313 19.5928 25.8286 19.5928 25.8286 19.5985C25.826 19.5985 25.8233 19.6013 25.8233 19.607C25.8233 19.6155 25.8233 19.6212 25.8206 19.6269C25.8179 19.6325 25.8152 19.6325 25.8152 19.6269C25.8152 19.6212 25.8152 19.6155 25.8125 19.6098C25.8125 19.607 25.8125 19.6041 25.8071 19.6098C25.8071 19.6098 25.8044 19.6098 25.8018 19.6098C25.7991 19.6098 25.7964 19.6041 25.7964 19.6013V19.5161C25.7964 19.5161 25.7802 19.4962 25.7668 19.4962C25.2235 19.4962 24.6802 19.4962 24.1369 19.4962C24.075 19.4962 24.0132 19.4991 23.9486 19.4962C23.9378 19.4962 23.9298 19.5048 23.9298 19.5133C23.9352 19.5899 23.9352 19.6723 23.9352 19.7603C23.9352 19.908 23.9325 19.9847 23.9325 19.9847C23.9325 20.7571 23.9325 21.5238 23.9325 22.2934C23.9325 22.3076 23.9432 22.3218 23.9594 22.3218C24.0831 22.3161 24.2418 22.3218 24.3278 22.3218C24.699 22.3218 25.0621 22.3218 25.4171 22.3218C25.5382 22.3218 25.6565 22.3218 25.7749 22.3218C25.7829 22.3218 25.7883 22.3161 25.7883 22.3076L25.7964 22.0975L25.8044 22.0946ZM25.8502 22.2764C25.8502 22.2764 25.8502 22.2678 25.8502 22.265C25.8502 22.2593 25.8502 22.2593 25.8475 22.265C25.8421 22.2735 25.8367 22.2735 25.8286 22.265C25.8286 22.265 25.8233 22.265 25.8206 22.265C25.8206 22.265 25.8206 22.2678 25.8206 22.2707C25.8206 22.2849 25.826 22.2934 25.8394 22.3019C25.8421 22.3019 25.8475 22.3019 25.8502 22.2991C25.8502 22.2991 25.8502 22.2962 25.8502 22.2934C25.8502 22.2906 25.8502 22.2849 25.8502 22.282C25.8502 22.282 25.8502 22.282 25.8502 22.2792V22.2764ZM25.6108 22.3332C25.6108 22.3332 25.6189 22.3332 25.6215 22.3332C25.5785 22.3332 25.5355 22.3303 25.4924 22.3275C25.4871 22.3275 25.4817 22.3275 25.479 22.3218C25.4763 22.3218 25.4709 22.3218 25.4682 22.3218H24.1611C24.1611 22.3218 24.1557 22.3218 24.153 22.3246C24.1476 22.3303 24.1423 22.3303 24.1342 22.3275C24.1342 22.3275 24.1315 22.3275 24.1288 22.3275C24.1261 22.3275 24.1261 22.3332 24.1288 22.3332C24.1342 22.3332 24.1369 22.336 24.1423 22.336C24.1638 22.336 24.1853 22.3417 24.2041 22.3474C24.2041 22.3474 24.2041 22.3474 24.2068 22.3474C24.2068 22.3474 24.2068 22.3502 24.2095 22.3502C24.2095 22.3502 24.2122 22.3502 24.2149 22.3502H25.6135C25.6135 22.3502 25.6189 22.3502 25.6215 22.3445C25.6242 22.3445 25.6269 22.3417 25.6323 22.3417C25.6377 22.336 25.635 22.336 25.6323 22.3388C25.6296 22.3388 25.6269 22.3388 25.6242 22.3388C25.6215 22.3388 25.6189 22.3388 25.6189 22.3332C25.6189 22.3332 25.6189 22.3303 25.6135 22.3303C25.6054 22.3303 25.6054 22.3303 25.6135 22.3275L25.6108 22.3332Z" fill="white"/>
<path d="M5.48976 23.0544H11.2993L11.5279 23.0572H11.6355L11.6597 23.0658V23.2702C11.6624 23.3071 11.6194 23.3015 11.5979 23.3015H5.05135C5.04328 23.2844 5.0379 23.2674 5.0379 23.2475C5.03521 23.1793 5.03521 23.1225 5.04059 23.08C5.04059 23.0629 5.05404 23.0516 5.07824 23.0516C5.21541 23.0516 5.35258 23.0487 5.48976 23.0516V23.0544Z" fill="white"/>
<path d="M12.0956 23.0546H12.3243C13.3248 23.0546 14.3253 23.0546 15.3259 23.0546C16.3668 23.0546 17.2678 23.0546 18.0343 23.0546C18.1796 23.0546 18.3275 23.0546 18.4727 23.0546C18.4969 23.0546 18.5238 23.0546 18.5507 23.0603C18.5669 23.0603 18.5749 23.0773 18.5749 23.0944C18.5749 23.1597 18.5749 23.2165 18.5696 23.2676C18.5696 23.2903 18.5534 23.3017 18.5319 23.3017C16.8912 23.3017 14.7745 23.3017 12.1817 23.3017C12.1602 23.3017 12.1387 23.3017 12.1172 23.3017C12.0849 23.3017 12.0526 23.2988 12.0176 23.2988C11.9934 23.2988 11.98 23.2903 11.9746 23.2676V23.1C11.9746 23.0773 11.9773 23.066 11.9907 23.0603C12.0042 23.0574 12.0311 23.0546 12.0741 23.0518H12.0956V23.0546Z" fill="white"/>
<path d="M21.2345 23.0542H18.9188C18.8965 23.0542 18.8784 23.0733 18.8784 23.0968V23.2587C18.8784 23.2822 18.8965 23.3013 18.9188 23.3013H21.2345C21.2568 23.3013 21.2749 23.2822 21.2749 23.2587V23.0968C21.2749 23.0733 21.2568 23.0542 21.2345 23.0542Z" fill="white"/>
<path d="M21.6357 23.0542H21.7298C23.6287 23.0542 25.5276 23.0542 27.4264 23.0542C27.6228 23.0542 27.8137 23.0542 27.9993 23.0542C28.045 23.0542 28.0908 23.0542 28.1392 23.0627C28.1472 23.0627 28.1499 23.0684 28.1526 23.0769C28.1526 23.0883 28.1553 23.0968 28.1526 23.1082C28.1499 23.1649 28.1472 23.2217 28.1445 23.2785C28.1445 23.2927 28.1338 23.3013 28.1203 23.3013C28.0692 23.3013 28.0128 23.3013 27.9509 23.3013C26.0413 23.3013 24.0214 23.3013 21.8885 23.3013C21.7836 23.3013 21.676 23.3013 21.5684 23.3013C21.5415 23.3013 21.5281 23.2871 21.5254 23.2587L21.52 23.094C21.52 23.0769 21.5308 23.0627 21.5469 23.0627L21.6303 23.0542H21.6357Z" fill="white"/>
<path d="M35.0354 23.0801C35.0354 23.1397 35.0354 23.1965 35.0327 23.2561C35.0327 23.2788 35.0246 23.293 35.0139 23.3016C33.0612 23.3016 31.1112 23.3016 29.1586 23.3016C28.9757 23.3016 28.7955 23.3016 28.6126 23.3016C28.5642 23.3016 28.5131 23.2959 28.4646 23.3044C28.4593 23.3044 28.4512 23.3044 28.4485 23.2959C28.4431 23.2845 28.4404 23.2703 28.4404 23.2533C28.4404 23.2221 28.4351 23.188 28.4351 23.1482C28.4351 23.117 28.4377 23.0857 28.4512 23.0573C28.462 23.0573 28.4727 23.0573 28.4754 23.0517C28.4969 23.0517 28.5211 23.0488 28.54 23.0488C29.2581 23.0488 29.952 23.0488 30.6217 23.0488C31.3506 23.0488 32.2113 23.0488 33.2091 23.0488C33.6126 23.0488 34.0079 23.0488 34.3979 23.0488C34.4706 23.0488 34.5432 23.0488 34.6104 23.0488C34.7315 23.0488 34.8525 23.0488 34.9735 23.0517C34.9923 23.0517 35.0273 23.0517 35.0381 23.0715L35.0354 23.0801Z" fill="white"/>
<path d="M5.39308 23.5599H11.3398H11.6249C11.633 23.5599 11.6411 23.5656 11.6411 23.5769C11.6411 23.594 11.6411 23.611 11.6411 23.628C11.6411 23.7416 11.6411 23.8495 11.6411 23.9518C11.6411 23.966 11.6384 23.9802 11.6303 23.9915C11.6303 23.9944 11.6249 23.9972 11.6222 23.9972C11.6088 23.9972 11.5953 23.9972 11.5792 23.9972C9.45441 23.9972 7.32961 23.9972 5.20481 23.9972C5.16447 23.9972 5.12143 23.9972 5.08378 23.9858C5.06764 23.983 5.05957 23.9716 5.05957 23.9546C5.05957 23.895 5.05957 23.8439 5.05957 23.7956C5.06226 23.7331 5.05957 23.6706 5.05957 23.6082C5.05957 23.5854 5.06764 23.5712 5.08378 23.5627C5.09991 23.557 5.12412 23.5542 5.15371 23.5542C5.23171 23.5542 5.3097 23.5542 5.3877 23.557L5.39308 23.5599Z" fill="white"/>
<path d="M12.0604 23.5601C14.2067 23.5601 16.3504 23.5601 18.4967 23.5601C18.5155 23.5601 18.5532 23.5601 18.5559 23.5941C18.5585 23.7049 18.5585 23.8156 18.5559 23.9292C18.5559 23.9463 18.5559 23.9633 18.5532 23.9803C18.5532 23.9832 18.5505 23.986 18.5451 23.9889C18.5316 23.9945 18.5155 23.9974 18.4994 23.9974C18.3864 24.0002 18.2788 23.9974 18.1712 23.9974C16.1406 23.9974 14.1126 23.9974 12.0819 23.9974C12.0577 23.9974 12.0308 23.9974 12.0039 23.9917C11.9851 23.9917 11.9771 23.9775 11.9771 23.9605C11.9771 23.8781 11.9771 23.7929 11.9771 23.7077C11.9771 23.668 11.9771 23.6254 11.9824 23.5828C11.9824 23.5714 11.9905 23.5657 12.0013 23.5629H12.0631L12.0604 23.5601Z" fill="white"/>
<path d="M21.2453 23.7276V23.9605C21.2453 23.9832 21.2345 23.9945 21.213 23.9974C21.17 23.9974 21.1189 23.9974 21.0597 23.9974C20.355 23.9974 19.6745 23.9974 19.0183 23.9974C18.9833 23.9974 18.9457 23.9945 18.9053 23.986C18.8865 23.9832 18.8784 23.9718 18.8784 23.9519L18.8838 23.5998C18.8865 23.5771 18.8972 23.5657 18.9161 23.5629C18.9349 23.5601 18.9564 23.5572 18.9806 23.5572C19.5454 23.5572 20.1076 23.5601 20.6616 23.5572C20.788 23.5572 20.9306 23.5572 21.0947 23.5572C21.1377 23.5572 21.1807 23.5515 21.2238 23.5572C21.2345 23.5572 21.2426 23.5686 21.2426 23.5799V23.7191L21.2453 23.7276Z" fill="white"/>
<path d="M28.1281 23.6934C28.1281 23.773 28.1281 23.8553 28.1281 23.9348C28.1281 23.9575 28.1281 23.9717 28.12 23.9774C28.0958 24.003 28.034 23.9973 28.0017 23.9973C25.8823 23.9973 23.7898 23.9973 21.7188 23.9973C21.6972 23.9973 21.6515 23.9973 21.5843 23.9916C21.5708 23.9916 21.5601 23.9831 21.5547 23.9689L21.5601 23.5827C21.5601 23.5656 21.5681 23.5571 21.5843 23.5571C22.0281 23.5571 22.4692 23.56 22.9103 23.5571C25.6214 23.5571 27.3427 23.5571 28.0743 23.5571C28.0958 23.5571 28.1281 23.5628 28.1281 23.5969C28.1281 23.6281 28.1281 23.6622 28.1308 23.6906L28.1281 23.6934Z" fill="white"/>
<path d="M34.8307 23.5599C34.8791 23.5571 34.9464 23.5543 34.9975 23.5685C35.0163 23.5741 35.0217 23.5912 35.019 23.6082C35.0163 23.7218 35.0163 23.8354 35.019 23.9461C35.019 23.9745 35.0082 23.9916 34.9813 23.9944C34.9383 23.9973 34.8953 24.0001 34.8522 24.0001C32.7409 24.0001 30.6591 24.0001 28.6069 24.0001C28.5639 24.0001 28.5209 23.9973 28.4751 23.9887C28.4563 23.9887 28.4482 23.9745 28.4482 23.9547V23.5798C28.4698 23.5656 28.4913 23.5599 28.5209 23.5599C28.6553 23.5599 28.927 23.5599 29.3304 23.5599C31.1648 23.5599 32.9964 23.5599 34.8307 23.5599Z" fill="white"/>
</g>
<circle cx="20" cy="20" r="19.5" stroke="black" stroke-opacity="0.05"/>
<defs>
<clipPath id="clip0_18553_55920">
<rect width="30" height="7" fill="white" transform="translate(5.03516 17)"/>
</clipPath>
</defs>
</svg>
