<svg width="40" height="40" viewBox="0 0 40 40" fill="none" xmlns="http://www.w3.org/2000/svg">
<circle cx="20" cy="20" r="20" fill="#F6F8FA"/>
<path d="M33.0001 11.1002C33.0001 11.5511 32.821 11.9836 32.5021 12.3024C32.1833 12.6213 31.7508 12.8004 31.2999 12.8004C30.9636 12.8004 30.6349 12.7007 30.3553 12.5139C30.0756 12.327 29.8577 12.0615 29.729 11.7508C29.6003 11.4401 29.5667 11.0983 29.6323 10.7685C29.6979 10.4386 29.8598 10.1357 30.0976 9.8979C30.3354 9.66011 30.6383 9.49818 30.9682 9.43257C31.298 9.36697 31.6398 9.40064 31.9505 9.52933C32.2612 9.65802 32.5268 9.87594 32.7136 10.1555C32.9004 10.4352 33.0001 10.7639 33.0001 11.1002Z" fill="#D3111A"/>
<path d="M20.0598 10.0848C19.8075 10.7562 19.4968 11.4043 19.1312 12.0214L19.0372 12.1461L17.541 10.1989C18.3711 10.0425 19.219 10.004 20.0598 10.0848Z" fill="#F08A06"/>
<path d="M20.0593 10.085C20.9438 10.1458 21.8156 10.3283 22.6502 10.6274C22.6343 10.7393 22.6108 10.8499 22.5798 10.9586C22.3837 11.6182 22.1355 12.2612 21.8373 12.8815C21.798 12.951 21.7425 13.0099 21.6754 13.0531C21.5431 13.1352 21.3997 13.1976 21.2495 13.2385C20.958 13.2928 20.6828 13.4005 20.3889 13.4393C20.2901 13.4507 20.2447 13.5138 20.252 13.6288L19.9913 13.6102C20.0539 13.4984 20.024 13.3721 19.9015 13.2312C19.7565 13.0628 19.6156 12.8904 19.4804 12.7139C19.4023 12.6106 19.3373 12.498 19.2869 12.3787C19.2367 12.2637 19.1828 12.1452 19.125 12.0233C19.4926 11.4058 19.8053 10.7572 20.0593 10.085Z" fill="#B00171"/>
<path d="M17.5402 10.199L19.0365 12.1462L18.0406 13.7031C17.4922 13.8537 17.1187 13.9668 16.92 14.0424C16.442 14.2312 15.9879 14.4757 15.5671 14.771L13.543 13.7088C13.5212 13.6845 13.5163 13.6796 13.5268 13.6934L13.6758 11.7373C14.8304 10.9376 16.152 10.4115 17.5402 10.199Z" fill="#F0DC03"/>
<path d="M22.6517 10.6274C23.4006 10.8804 24.1123 11.2322 24.7681 11.6735C24.2118 12.0208 23.628 12.3219 23.0225 12.5738C22.5977 12.7498 22.1732 12.9177 21.7489 13.0774C21.7489 13.1001 21.7222 13.0928 21.668 13.0564C21.735 13.0131 21.7906 12.9542 21.8299 12.8847C22.1315 12.2638 22.3831 11.6197 22.5821 10.9586C22.6128 10.8499 22.6361 10.7393 22.6517 10.6274Z" fill="#369F3B"/>
<path d="M24.7681 11.6733C25.081 11.849 25.3758 12.0551 25.6482 12.2887C25.7284 12.3467 25.8205 12.3863 25.9178 12.4045L26.4036 12.4935L25.9616 15.0431C25.9481 15.0481 25.9362 15.0566 25.9271 15.0676C25.918 15.0787 25.912 15.0921 25.9097 15.1062C25.8475 15.0915 25.7833 15.0865 25.7195 15.0917C25.1673 15.1456 24.6135 15.1853 24.0581 15.2107C24.0095 15.2107 23.9593 15.2552 23.9083 15.3386C23.165 14.6654 22.2843 14.1618 21.3271 13.8626L21.7482 13.0773C22.1724 12.9153 22.5969 12.7475 23.0217 12.5737C23.6275 12.3218 24.2116 12.0207 24.7681 11.6733Z" fill="#1D2567"/>
<path d="M13.6761 11.7373L13.5239 13.691L12.1475 12.9097C12.6127 12.4642 13.1253 12.0711 13.6761 11.7373Z" fill="#369F3B"/>
<path d="M19.1303 12.0215C19.1843 12.144 19.2383 12.2625 19.2923 12.3769C19.3426 12.4962 19.4076 12.6088 19.4858 12.7121C19.621 12.8886 19.7618 13.0611 19.9068 13.2295C20.0288 13.3704 20.0587 13.4967 19.9966 13.6084C19.3439 13.5668 18.6886 13.5986 18.043 13.7031L19.0388 12.1462L19.1303 12.0215Z" fill="#D3111A"/>
<path d="M26.4046 12.4937C26.8786 12.525 27.2102 12.5519 27.3997 12.5746C27.5845 12.6001 27.7629 12.6597 27.926 12.7503L28.032 14.6789C28.0333 14.7048 28.0252 14.7304 28.0094 14.7509C27.9924 14.7716 27.9792 14.7952 27.9705 14.8206L25.9658 15.0432L26.4046 12.4937Z" fill="#369F3B"/>
<path d="M27.9258 12.7502C28.3008 12.9145 28.6192 13.1853 28.8415 13.5291C29.0669 13.8609 29.1981 14.2476 29.2212 14.6481L28.048 14.8286C28.0343 14.81 28.0084 14.8076 27.9671 14.8205C27.9758 14.7952 27.9889 14.7716 28.0059 14.7509C28.0218 14.7303 28.0299 14.7048 28.0286 14.6788L27.9258 12.7502Z" fill="#D3111A"/>
<path d="M12.1477 12.9128L13.5241 13.6942C13.5135 13.6804 13.5184 13.6852 13.5402 13.7095L13.4528 15.2292C13.4641 15.1596 13.4528 15.179 13.4123 15.2875L10.0928 15.6843C10.6168 14.6513 11.3115 13.7143 12.1477 12.9128Z" fill="#1D2567"/>
<path d="M21.672 13.0562C21.7222 13.0926 21.7481 13.0999 21.753 13.0772L21.332 13.8626L20.2527 13.6318C20.2454 13.5168 20.2908 13.4537 20.3895 13.4424C20.6834 13.4075 20.9563 13.2958 21.2502 13.2416C21.399 13.2003 21.541 13.1378 21.672 13.0562Z" fill="#1B5DAB"/>
<path d="M13.5406 13.7097L15.5647 14.772L15.2959 14.9412L13.4531 15.2294L13.5406 13.7097Z" fill="#F08A06"/>
<path d="M29.221 14.6479C29.2248 14.7583 29.2191 14.8689 29.204 14.9783C29.1301 15.5002 29.0475 16.0365 28.9563 16.5871C28.929 16.7199 28.934 16.8573 28.9708 16.9878C29.0955 17.3824 29.1975 17.7624 29.2769 18.1278L28.5701 18.6816C28.5034 18.6088 28.4593 18.5183 28.443 18.4209C28.281 17.3214 28.1493 16.1239 28.0479 14.8285L29.221 14.6479Z" fill="#F08A06"/>
<path d="M27.9672 14.8245C28.0052 14.8116 28.0311 14.814 28.0482 14.8326C28.1507 16.1281 28.2824 17.3255 28.4433 18.425C28.4596 18.5224 28.5037 18.6129 28.5704 18.6857L28.4935 18.7667C27.7397 19.3452 26.9345 19.8533 26.088 20.2848C26.09 20.1107 26.0819 19.9366 26.0637 19.7634C25.9728 18.9197 25.7527 18.095 25.4111 17.3182L25.9107 15.1047C25.9129 15.0905 25.9189 15.0772 25.928 15.0661C25.9371 15.055 25.949 15.0465 25.9625 15.0415L27.9672 14.8245Z" fill="#F0DC03"/>
<path d="M15.2952 14.9412C14.5618 15.5436 13.9452 16.2755 13.476 17.1005C13.412 17.0641 13.3821 16.9807 13.3861 16.8487C13.4039 16.3273 13.4126 15.808 13.412 15.2909C13.4501 15.1824 13.4638 15.163 13.4525 15.2326L15.2952 14.9412Z" fill="#369F3B"/>
<path d="M25.9103 15.1064L25.4108 17.3199C25.1657 16.9027 25.0038 16.6328 24.925 16.5103C24.6333 16.0816 24.2935 15.6877 23.9121 15.3363C23.9631 15.2553 24.0133 15.2108 24.0619 15.2084C24.6173 15.183 25.1711 15.1433 25.7233 15.0894C25.7861 15.0854 25.8492 15.0911 25.9103 15.1064Z" fill="#B00171"/>
<path d="M13.4118 15.291C13.4118 15.8081 13.4031 16.3274 13.3859 16.8488C13.3859 16.9807 13.4118 17.0641 13.4757 17.1006C13.2464 17.5482 13.0589 18.016 12.9155 18.498C11.6802 18.4571 10.4477 18.3545 9.22266 18.1904C9.40067 17.321 9.69421 16.4793 10.0955 15.6877L13.4118 15.291Z" fill="#1B5DAB"/>
<path d="M29.274 18.1279C29.5792 19.4916 29.5916 20.9045 29.3104 22.2733C29.2591 22.1407 29.2145 22.0056 29.1768 21.8685C28.8988 20.8527 28.67 19.8174 28.4902 18.7627L28.5672 18.6817L29.274 18.1279Z" fill="#369F3B"/>
<path d="M9.22309 18.1902C10.4492 18.3544 11.6827 18.4571 12.9191 18.4979C12.8025 18.9765 12.7251 19.4639 12.6876 19.9552C12.5256 20.0888 12.3767 20.2151 12.2309 20.3357C12.1662 20.3907 12.1128 20.4578 12.0739 20.5333C12.0483 20.5266 12.0215 20.5269 11.9961 20.5341C11.9707 20.5414 11.9478 20.5554 11.9297 20.5746C11.9297 20.5681 11.9241 20.5616 11.9216 20.556C11.9211 20.5543 11.9201 20.5529 11.9189 20.5518C11.9176 20.5506 11.916 20.5498 11.9143 20.5495L9.02148 19.718C9.03481 19.2031 9.10239 18.691 9.22309 18.1902Z" fill="#D3111A"/>
<path d="M28.4924 18.7585C28.6727 19.8132 28.9015 20.8485 29.179 21.8643C29.2166 22.0015 29.2612 22.1366 29.3126 22.2692L29.1684 22.908C28.1327 22.9803 27.0923 22.9464 26.0634 22.8068C25.9116 22.7857 25.7612 22.7549 25.6133 22.7145C25.9154 21.9367 26.0753 21.111 26.0853 20.2766C26.9324 19.8452 27.7381 19.3371 28.4924 18.7585Z" fill="#1B5DAB"/>
<path d="M11.9265 20.5787L10.3388 21.7697L10.3032 21.7875C9.91062 21.5489 9.48987 21.3601 9.05065 21.2256C8.99491 20.725 8.98515 20.2204 9.0215 19.718L11.9111 20.5536C11.9128 20.5539 11.9144 20.5547 11.9156 20.5558C11.9169 20.557 11.9179 20.5584 11.9184 20.56C11.9208 20.5657 11.9241 20.573 11.9265 20.5787Z" fill="#F08A06"/>
<path d="M12.684 19.9592L12.6921 20.675L12.0703 20.5373C12.1093 20.4619 12.1627 20.3948 12.2274 20.3398C12.3731 20.2191 12.5253 20.0928 12.684 19.9592Z" fill="#1B5DAB"/>
<path d="M12.0707 20.5373L12.6925 20.675C12.7536 21.4265 12.9258 22.1648 13.2034 22.8659L10.3389 21.7696L11.9266 20.5786C11.9447 20.5594 11.9676 20.5454 11.993 20.5381C12.0183 20.5309 12.0452 20.5306 12.0707 20.5373Z" fill="#B00171"/>
<path d="M10.3036 21.7875L9.25107 22.5097C9.14471 22.0887 9.0767 21.6589 9.04785 21.2256C9.4882 21.3599 9.91005 21.5486 10.3036 21.7875Z" fill="#F0DC03"/>
<path d="M10.3031 21.7876L10.3387 21.7698L13.2032 22.866C13.8542 24.3601 14.9313 25.4971 16.4345 26.2771C16.247 26.7963 16.0006 27.2924 15.7002 27.7555C15.7301 27.7555 15.7261 27.7595 15.6864 27.762C14.1207 27.0177 12.6161 26.1514 11.1864 25.1711C10.726 24.8553 10.2502 24.5142 9.75898 24.1477C9.53325 23.6214 9.36521 23.0723 9.25781 22.5098L10.3031 21.7876Z" fill="#369F3B"/>
<path d="M25.6126 22.7146C25.7605 22.755 25.9108 22.7859 26.0627 22.8069C27.0909 22.9472 28.1308 22.982 29.1661 22.9105C28.9061 23.9113 28.4911 24.8653 27.9363 25.7378L25.0782 25.5257C25.0844 25.501 25.0806 25.4748 25.0677 25.4528C25.0871 25.0329 25.0949 24.614 25.0912 24.1963C25.0912 24.0384 25.0588 23.9404 24.998 23.9024L25.6126 22.7146Z" fill="#1D2567"/>
<path d="M24.998 23.9023C25.0587 23.9404 25.0895 24.0384 25.0911 24.1962C25.0954 24.6135 25.0876 25.0323 25.0676 25.4528C25.0031 25.4942 24.9251 25.509 24.8498 25.4941C24.58 25.4471 24.3101 25.3932 24.0402 25.3322C24.0274 25.3296 24.0154 25.3244 24.0048 25.3169C23.9942 25.3094 23.9853 25.2997 23.9787 25.2885L23.9131 25.1848C24.3174 24.7953 24.6809 24.3656 24.998 23.9023Z" fill="#D3111A"/>
<path d="M15.6826 27.762L14.8236 29.5229C14.5412 29.3901 14.2663 29.2417 14.0002 29.0784C12.0673 27.9147 10.6528 26.2711 9.75684 24.1477C10.2475 24.5142 10.7233 24.8553 11.1842 25.1711C12.6134 26.1514 14.1175 27.0177 15.6826 27.762Z" fill="#1D2567"/>
<path d="M23.9112 25.188L23.9768 25.2916C23.9834 25.3028 23.9923 25.3125 24.0029 25.3201C24.0135 25.3276 24.0256 25.3328 24.0383 25.3353C24.3082 25.3963 24.5781 25.4503 24.848 25.4973C24.9232 25.5122 25.0013 25.4974 25.0658 25.456C25.0787 25.4779 25.0825 25.5041 25.0763 25.5288C25.0817 26.5177 25.059 27.4982 25.0083 28.4703C25.0026 28.5731 25.0577 28.6322 25.1702 28.6444C24.1552 29.3782 23.008 29.909 21.7916 30.2078C21.7916 30.1487 21.7479 30.1147 21.6515 30.1066C21.5967 30.1039 21.5424 30.0949 21.4896 30.0799C21.1198 29.9579 20.7479 29.8335 20.3739 29.7066C20.2945 29.718 20.2921 29.6767 20.3666 29.5827C20.3906 29.5537 20.4115 29.5222 20.4289 29.4888C20.756 28.8411 21.1069 28.2042 21.4815 27.5781C21.536 27.4832 21.5802 27.3828 21.6135 27.2785C21.6469 27.1727 21.6946 27.0719 21.7551 26.9789C21.8675 26.8307 21.923 26.6472 21.9114 26.4616C22.6432 26.1492 23.3187 25.719 23.9112 25.188Z" fill="#B00171"/>
<path d="M27.9369 25.7378C27.2246 26.8847 26.284 27.873 25.1736 28.6412C25.0578 28.6282 25.0028 28.5699 25.0117 28.4671C25.0624 27.4955 25.0851 26.515 25.0797 25.5256L27.9369 25.7378Z" fill="#369F3B"/>
<path d="M16.435 26.2769C18.2076 27.107 20.0347 27.1685 21.9163 26.4615C21.9279 26.6471 21.8724 26.8306 21.7601 26.9788C21.6995 27.0718 21.6519 27.1726 21.6184 27.2784C21.5852 27.3827 21.5409 27.4831 21.4864 27.578C21.1086 28.2014 20.7577 28.8383 20.4339 29.4887C20.4164 29.5221 20.3955 29.5536 20.3715 29.5826C20.297 29.6766 20.2995 29.7179 20.3788 29.7065L20.2606 29.7138C20.2404 29.6677 20.1707 29.6239 20.0517 29.5834C18.7503 29.1292 17.4724 28.6101 16.2229 28.0281C16.061 27.9528 15.8828 27.8613 15.6982 27.7553C15.9996 27.2923 16.2468 26.7962 16.435 26.2769Z" fill="#D3111A"/>
<path d="M15.6823 27.7618C15.7219 27.7618 15.726 27.7578 15.696 27.7554C15.8806 27.8614 16.0555 27.9529 16.2207 28.0282C17.4702 28.6102 18.7481 29.1293 20.0495 29.5836C20.1685 29.624 20.2382 29.6645 20.2584 29.7139L19.754 30.5114C18.0532 30.6046 16.3566 30.2644 14.8232 29.5228L15.6823 27.7618Z" fill="#F08A06"/>
<path d="M20.2588 29.7138L20.377 29.7065C20.7511 29.8328 21.123 29.9573 21.4927 30.0798C21.5455 30.0948 21.5998 30.1038 21.6546 30.1065C21.751 30.1146 21.798 30.1486 21.7947 30.2077C21.1276 30.3784 20.4447 30.4802 19.7568 30.5113L20.2588 29.7138Z" fill="#1D2567"/>
<circle cx="20" cy="20" r="19.5" stroke="black" stroke-opacity="0.05"/>
</svg>
