<svg width="40" height="40" viewBox="0 0 40 40" fill="none" xmlns="http://www.w3.org/2000/svg">
<circle cx="20" cy="20" r="20" fill="#F47A20"/>
<g clip-path="url(#clip0_14382_21028)">
<path d="M22.4331 11.9485C20.7673 11.4815 19.0022 11.5043 17.3491 12.0143C15.6959 12.5243 14.2247 13.4999 13.1116 14.8243C11.9985 16.1487 11.2906 17.7658 11.0727 19.4821C10.8548 21.1984 11.136 22.9411 11.8827 24.5016C13.1538 26.3643 19.1263 22.7205 22.4331 11.9485Z" fill="white"/>
<path d="M26.2106 14.1006C24.5513 17.4779 19.0677 27.3964 12.6135 25.759C13.3325 26.7916 14.26 27.662 15.3361 28.314C16.4122 28.966 17.6131 29.3852 18.8612 29.5444C20.1093 29.7036 21.3769 29.5994 22.5823 29.2385C23.7876 28.8776 24.9039 28.2679 25.8591 27.4489C26.8143 26.6299 27.5872 25.6197 28.1278 24.4836C28.6685 23.3475 28.965 22.1106 28.9981 20.8528C29.0312 19.595 28.8003 18.3442 28.3201 17.1812C27.84 16.0182 27.1214 14.9687 26.2106 14.1006Z" fill="white"/>
<path d="M26.4066 11.3781C26.2068 11.5626 25.9567 11.6836 25.688 11.7258C25.4193 11.7679 25.1441 11.7294 24.8974 11.615C24.6506 11.5007 24.4433 11.3156 24.3018 11.0834C24.1604 10.8511 24.091 10.582 24.1026 10.3103C24.1141 10.0386 24.2061 9.77641 24.3668 9.557C24.5275 9.3376 24.7498 9.17084 25.0054 9.07787C25.261 8.9849 25.5384 8.96989 25.8025 9.03475C26.0667 9.09961 26.3056 9.24142 26.489 9.44221C26.734 9.71028 26.8628 10.0644 26.8473 10.4272C26.8319 10.7899 26.6734 11.1318 26.4066 11.3781Z" fill="white"/>
</g>
<circle cx="20" cy="20" r="19.5" stroke="black" stroke-opacity="0.05"/>
<defs>
<clipPath id="clip0_14382_21028">
<rect width="18" height="20.6154" fill="white" transform="translate(11 9)"/>
</clipPath>
</defs>
</svg>
