<svg width="40" height="40" viewBox="0 0 40 40" fill="none" xmlns="http://www.w3.org/2000/svg">
<circle cx="20" cy="20" r="20" fill="#FF6F00"/>
<path d="M29.9807 21.3118L29.9316 17.6179C29.9742 17.4003 29.9945 17.1789 29.992 16.9572C30.0027 16.3375 30.0027 15.763 29.992 15.2339C29.9762 14.5097 29.8989 13.9661 29.7598 13.603C29.4153 12.698 28.9029 12.0486 28.0884 11.5739C26.1832 10.4653 24.3026 9.3677 22.4465 8.2811C21.5424 7.75258 20.5269 7.30146 19.5047 7.53834C19.1084 7.6302 18.5993 7.85325 17.9777 8.20748C15.763 9.4734 13.5763 10.7318 11.4175 11.9826C10.5235 12.5023 10.0588 13.2579 10.0236 14.2495C9.98519 15.3632 9.99368 16.6146 10.0491 18.0039L10.0179 20.0339C9.96977 21.3675 10.4898 22.6765 11.6808 23.374C13.6313 24.5184 15.634 25.6824 17.6889 26.8659C18.3684 27.2576 19.3481 27.0349 19.3547 26.1166C19.3666 24.3825 19.3685 22.2981 19.3603 19.8631C19.348 19.7045 19.3253 19.5469 19.2924 19.3912C19.2282 18.6957 18.8045 18.27 18.2297 17.934C16.7819 17.0897 15.3682 16.2623 13.9884 15.4519C13.6505 15.2537 13.2116 14.8488 13.3126 14.4071C13.3966 14.0342 13.6219 13.7084 13.9412 13.4983C14.2086 13.3146 14.7358 13.0019 15.523 12.5602C16.4403 12.0455 17.3589 11.5233 18.2788 10.9935C18.7201 10.7364 19.2001 10.5522 19.7001 10.448C20.1519 10.3549 20.6892 10.4342 21.3121 10.6858C21.4532 10.7376 21.5898 10.8008 21.7207 10.8746C22.4462 11.315 23.1716 11.7391 23.8971 12.1468C24.5124 12.5124 25.1274 12.8622 25.7422 13.1963C26.1028 13.3808 26.4399 13.608 26.7463 13.873C27.0059 14.1142 27.1937 14.4226 27.289 14.7639C27.3519 14.9715 27.3834 15.3081 27.3834 15.7737C27.3884 17.2303 27.3884 18.6865 27.3834 20.1425V22.2565C27.4166 22.9008 27.3758 23.5468 27.2616 24.1818C27.1693 24.5141 26.978 24.8103 26.7133 25.0312C26.4135 25.2766 26.0923 25.4946 25.7535 25.6824C24.2397 26.5476 22.7573 27.3882 21.3064 28.2042C20.885 28.4305 20.4865 28.6969 20.1163 28.9998C19.4821 29.5466 19.3021 30.2701 19.5765 31.1705C19.6878 31.5367 19.9143 31.7223 20.256 31.7273C20.4344 31.7273 20.6675 31.6471 20.9572 31.4791C23.2613 30.1427 25.5682 28.8158 27.8779 27.4983C28.2168 27.3148 28.5368 27.0983 28.833 26.8518C29.9014 25.8929 30.0241 24.4027 29.9891 23.0361L29.9807 21.3118Z" fill="white"/>
<circle cx="20" cy="20" r="19.5" stroke="black" stroke-opacity="0.05"/>
</svg>
