<svg width="40" height="40" viewBox="0 0 40 40" fill="none" xmlns="http://www.w3.org/2000/svg">
<circle cx="20" cy="20" r="20" fill="#211D1F"/>
<g clip-path="url(#clip0_18695_29743)">
<path d="M23.3535 13.6784C23.3535 12.6789 22.5527 11.8566 21.523 11.8647C20.7059 11.8647 19.8479 11.8647 18.9408 11.8566C18.3933 11.8566 17.9929 11.9131 17.7232 12.0501C17.1757 12.3242 16.8407 12.7756 16.7181 13.3963C16.71 13.4608 16.6691 13.493 16.6037 13.493L15.5251 13.5172C15.4842 13.5172 15.4434 13.485 15.4434 13.4366C15.4434 13.4366 15.4434 13.4366 15.4434 13.4285C15.5578 11.9534 16.7998 10.6475 18.3525 10.6394C19.3739 10.6394 20.4607 10.6394 21.6129 10.6313C23.2963 10.6313 24.6201 12.0179 24.6364 13.6865C24.6446 14.9763 24.6446 16.2338 24.6282 17.4591C24.6282 17.5558 24.5792 17.6042 24.4812 17.6042H23.5087C23.4188 17.6042 23.3698 17.5478 23.3698 17.4591C23.3616 16.1613 23.3535 14.9037 23.3616 13.6865L23.3535 13.6784Z" fill="white"/>
<path d="M13.4659 18.8134C13.7274 19.2567 14.0461 19.3212 14.6181 19.297C14.6916 19.297 14.7243 19.3293 14.7243 19.4018V20.4175C14.7325 20.482 14.6835 20.5384 14.6181 20.5384C13.3597 20.5949 12.2483 19.9097 12.1012 18.636C12.0522 18.1927 12.044 17.6929 12.0686 17.1205C12.1421 15.6534 13.1064 14.4684 14.5364 14.2105C14.6916 14.1782 15.231 14.1621 16.1544 14.1621C18.2626 14.1621 20.4036 14.1621 22.5854 14.1621C22.6263 14.1621 22.6508 14.1944 22.6508 14.2266V15.339C22.6508 15.339 22.6263 15.3874 22.5936 15.3874C20.1258 15.3874 17.6661 15.3874 15.2228 15.3874C14.2504 15.3874 13.6293 15.8791 13.3678 16.8706C13.3106 17.0802 13.2943 17.5478 13.327 18.2813C13.327 18.499 13.376 18.6763 13.4577 18.8053L13.4659 18.8134Z" fill="white"/>
<path d="M26.7284 17.4271C26.8101 16.5887 26.3362 15.7262 25.4782 15.5005C25.3638 15.4682 25.3066 15.3957 25.3147 15.2828V14.2832C25.3147 14.2268 25.3392 14.2026 25.3964 14.2026C25.5926 14.2026 25.7887 14.2349 25.9766 14.3155C27.3168 14.8717 27.995 15.9035 28.0277 17.411C28.0277 17.5319 27.9705 17.5883 27.8561 17.5883H26.8837C26.7693 17.5883 26.7202 17.5319 26.7284 17.419V17.4271Z" fill="white"/>
<path d="M16.5957 16.0889H15.5252C15.4665 16.0889 15.4189 16.1358 15.4189 16.1937V24.0452C15.4189 24.103 15.4665 24.15 15.5252 24.15H16.5957C16.6543 24.15 16.7019 24.103 16.7019 24.0452V16.1937C16.7019 16.1358 16.6543 16.0889 16.5957 16.0889Z" fill="white"/>
<path d="M26.1483 20.9174C25.9114 20.8448 25.6008 20.8045 25.2168 20.7965C22.5773 20.7561 20.0115 20.6997 17.5191 20.6191C17.4701 20.6191 17.4456 20.5949 17.4374 20.5466C17.3965 20.345 17.3965 19.9742 17.4456 19.4341C17.4456 19.3777 17.4783 19.3535 17.5355 19.3535C20.134 19.4261 22.8879 19.5067 25.8051 19.5792C27.178 19.6195 27.9869 20.5949 28.036 21.925C28.0605 22.5618 28.036 23.0697 27.9706 23.4647C27.7418 24.8351 26.9246 25.6976 25.4946 26.0442C25.372 26.0765 25.3148 26.0281 25.3148 25.9072V24.9399C25.3148 24.8351 25.372 24.7625 25.4783 24.7383C25.9114 24.6335 26.2464 24.3675 26.4915 23.9403C26.8429 23.3276 26.753 22.4006 26.7203 21.7154C26.704 21.2962 26.5079 21.0222 26.1402 20.9093L26.1483 20.9174Z" fill="white"/>
<path d="M13.3517 22.3444C13.1474 23.5938 13.6703 24.8111 15.1004 24.8191C17.4538 24.8272 19.938 24.8272 22.5611 24.8191C22.6101 24.8191 22.6509 24.8594 22.6509 24.9078V25.9799C22.6509 26.0525 22.6101 26.0847 22.5365 26.0847C20.3711 26.0686 18.2301 26.0686 16.1137 26.0847C15.1167 26.0928 14.4385 26.0363 14.0789 25.9074C13.1065 25.5607 12.4691 24.8755 12.1749 23.876C12.0279 23.3681 12.0851 22.8442 12.036 22.3202C12.0279 22.2073 12.0769 22.1509 12.1913 22.159L13.2046 22.1751C13.319 22.1751 13.368 22.2315 13.3517 22.3444Z" fill="white"/>
<path d="M23.1903 27.374C23.2965 27.1644 23.3537 26.9467 23.3537 26.721C23.3537 25.3668 23.3537 23.8835 23.3537 22.2794C23.3537 22.2068 23.3946 22.1665 23.4681 22.1665L24.5304 22.1504C24.6122 22.1504 24.6448 22.1907 24.6448 22.2632C24.6285 23.3837 24.6285 24.5768 24.6448 25.8424C24.6694 27.1483 24.4978 28.0753 23.5253 28.9217C22.888 29.4779 22.0871 29.6391 21.2373 29.6311C20.3057 29.623 19.3987 29.615 18.508 29.6069C16.8573 29.5988 15.6643 28.4784 15.4191 26.8903C15.4028 26.8097 15.4436 26.7775 15.5172 26.7775H16.5958C16.653 26.7775 16.702 26.8178 16.7102 26.8661C16.9472 27.8576 17.5764 28.3494 18.5979 28.3574C19.6275 28.3574 20.6162 28.3574 21.5642 28.3574C22.3078 28.3574 22.8389 28.0269 23.1658 27.374H23.1903Z" fill="white"/>
</g>
<circle cx="20" cy="20" r="19.5" stroke="black" stroke-opacity="0.05"/>
<defs>
<clipPath id="clip0_18695_29743">
<rect width="16" height="19" fill="white" transform="translate(12.0352 10.6313)"/>
</clipPath>
</defs>
</svg>
