<svg width="40" height="40" viewBox="0 0 40 40" fill="none" xmlns="http://www.w3.org/2000/svg">
<circle cx="20" cy="20" r="20" fill="#20194F"/>
<path d="M23.8271 23.1023C23.7298 23.0823 23.6404 23.0623 23.551 23.0425C22.7384 22.8627 21.9823 22.0784 21.8887 21.1171C21.7875 20.0776 22.3249 19.2635 23.1054 18.8629C23.8546 18.4781 25.012 18.5167 25.7106 19.4559C25.7209 19.4701 25.7326 19.4835 25.7528 19.5088V18.7524H26.3089V22.9885H25.7657V22.2618C25.3559 22.748 24.8666 23.0395 24.2461 23.0963C24.2111 23.1028 24.1752 23.1032 24.1401 23.0974C24.0722 23.0957 24.0166 23.0994 23.9609 23.1029H23.8271M22.5893 21.6233C22.5977 21.6389 22.606 21.6543 22.6141 21.6699C23.1663 22.7313 24.527 22.8732 25.3102 22.0213C25.6517 21.6495 25.755 21.1933 25.7097 20.6972C25.6894 20.4573 25.6165 20.2249 25.4963 20.0163C25.376 19.8078 25.2113 19.6283 25.0139 19.4905C24.8165 19.3528 24.5912 19.2601 24.354 19.2192C24.1168 19.1783 23.8735 19.1901 23.6413 19.2538C22.6385 19.5233 22.1331 20.6506 22.5897 21.6227L22.5893 21.6233Z" fill="white"/>
<path d="M11.7117 23.1025C11.6019 23.0825 11.4993 23.0662 11.3987 23.0416C10.7102 22.8728 10.292 22.4364 10.1568 21.7459C10.1053 21.4719 10.0781 21.194 10.0755 20.9152C10.0643 20.2125 10.0718 19.5097 10.072 18.808C10.072 18.7906 10.0735 18.7735 10.0746 18.752H10.6281V18.8398C10.6281 19.5646 10.6263 20.2917 10.6333 21.0176C10.6341 21.2201 10.6517 21.4222 10.6858 21.6218C10.7469 21.9688 10.9434 22.2317 11.2546 22.3957C11.6653 22.6121 12.0965 22.6296 12.5208 22.4491C12.9635 22.2609 13.2016 21.9086 13.2181 21.427C13.2376 20.8136 13.24 20.1995 13.2469 19.5856C13.2501 19.3098 13.2469 19.0339 13.2469 18.7526H13.8021V18.8288C13.8021 19.5578 13.804 20.2867 13.7975 21.0154C13.7944 21.3477 13.7678 21.6809 13.6549 21.9962C13.4353 22.6096 12.9903 22.9588 12.3519 23.0673C12.2913 23.0777 12.2298 23.0829 12.1652 23.097C12.0148 23.1025 11.8674 23.1025 11.7117 23.1025Z" fill="white"/>
<path d="M33.3347 23.1025C33.2249 23.079 33.1245 23.0586 33.0248 23.0314C32.6774 22.9385 32.3721 22.7735 32.1338 22.5082L32.5258 22.1175C32.5643 22.1511 32.6113 22.1942 32.6607 22.2344C32.9914 22.5036 33.3584 22.6413 33.7891 22.5383C33.9676 22.4963 34.1285 22.3992 34.249 22.2609C34.473 22.0084 34.4642 21.6379 34.1983 21.4308C34.0063 21.2812 33.7838 21.1672 33.5653 21.0563C33.2725 20.9076 32.9686 20.78 32.716 20.5637C32.1784 20.1025 32.2109 19.3156 32.7859 18.9013C33.1271 18.6549 33.513 18.5994 33.918 18.6628C34.3298 18.7272 34.6737 18.936 34.9972 19.206L34.6006 19.571C34.5771 19.5532 34.5545 19.5365 34.5323 19.5189C34.2749 19.3147 33.9964 19.1581 33.6582 19.1456C33.4043 19.1361 33.1836 19.2161 33.0154 19.4128C32.8682 19.585 32.8553 19.7981 32.9728 19.9924C33.0518 20.1209 33.1642 20.2256 33.298 20.2953C33.5508 20.4315 33.8117 20.552 34.063 20.6906C34.2428 20.7891 34.4165 20.8984 34.583 21.0181C34.8145 21.1859 34.9439 21.422 34.9953 21.7066C35.0017 21.8053 35.0017 21.9044 34.9953 22.0031C34.9775 22.062 34.9689 22.1111 34.954 22.1584C34.7985 22.6486 34.4447 22.92 33.9657 23.0498C33.8833 23.0718 33.7988 23.0852 33.7151 23.1025H33.3347Z" fill="white"/>
<path d="M28.3431 23.1023C28.2599 23.085 28.185 23.0672 28.1101 23.0503C27.7653 22.9717 27.4581 22.8221 27.2033 22.573C27.1886 22.5586 27.1739 22.5443 27.1594 22.5291C27.1536 22.5222 27.1483 22.5149 27.1436 22.5072C27.2727 22.378 27.4005 22.2506 27.5308 22.1208C27.6122 22.1854 27.6999 22.2634 27.7956 22.3293C28.1193 22.552 28.471 22.6411 28.8555 22.5203C29.0824 22.4492 29.2634 22.313 29.3655 22.0914C29.4676 21.8698 29.4131 21.585 29.2058 21.4308C29.0121 21.2869 28.7927 21.1769 28.5816 21.0574C28.3221 20.9103 28.0407 20.7939 27.8015 20.6199C27.1062 20.1124 27.2127 19.1414 27.9966 18.7815C28.4986 18.5509 28.9987 18.6023 29.4793 18.8528C29.6624 18.9482 29.8306 19.0725 30.0182 19.1933C29.8787 19.322 29.7586 19.4364 29.633 19.5447C29.6198 19.5561 29.5695 19.5411 29.5478 19.524C29.3523 19.3703 29.145 19.2398 28.9005 19.1794C28.6684 19.1221 28.4393 19.1247 28.2259 19.2453C27.8264 19.4713 27.7835 19.9042 28.1505 20.1794C28.3526 20.3309 28.5847 20.4451 28.8114 20.56C29.0863 20.6992 29.3653 20.8297 29.606 21.0262C29.7227 21.1218 29.8183 21.2405 29.8868 21.3749C29.9553 21.5093 29.9951 21.6564 30.0038 21.807C30.0124 21.9576 29.9897 22.1083 29.9371 22.2497C29.8844 22.391 29.803 22.5199 29.698 22.6282C29.4325 22.9062 29.1094 23.0575 28.7251 23.0953C28.5992 23.1023 28.4754 23.1023 28.3431 23.1023Z" fill="white"/>
<path d="M5.57492 20.3477V22.994C5.38451 22.994 5.20156 22.994 5.00939 22.9953C5.00104 21.0857 4.99826 19.1724 5.00104 17.2552C5.18838 17.2471 5.3755 17.2471 5.57404 17.2471C5.57404 18.1102 5.57404 18.9652 5.57097 19.8349C5.56965 19.8929 5.57097 19.9364 5.57272 19.9886C5.57316 20.1134 5.57404 20.2313 5.57492 20.3477Z" fill="white"/>
<path d="M31.2013 17C31.2716 17.0354 31.3399 17.0626 31.3942 17.1072C31.473 17.1698 31.5279 17.2577 31.5497 17.356C31.5715 17.4543 31.5588 17.5571 31.5138 17.6472C31.4673 17.7415 31.3905 17.8174 31.2957 17.8627C31.2008 17.908 31.0935 17.9202 30.9909 17.8972C30.8005 17.8574 30.6472 17.6775 30.6356 17.4779C30.6233 17.2693 30.752 17.0863 30.9593 17.018C30.9665 17.0159 30.9729 17.0118 30.9777 17.0061C31.0513 17 31.1223 17 31.2013 17Z" fill="white"/>
<path d="M18.2204 22.8696V22.9878H17.6645V22.8909C17.6645 22.1064 17.6687 21.3215 17.6577 20.537C17.6552 20.2967 17.6276 20.0572 17.5753 19.8226C17.4958 19.4736 17.18 19.2313 16.8256 19.1841C16.2394 19.1057 15.6005 19.5087 15.425 20.2027C15.3473 20.5102 15.3304 20.8234 15.3288 21.1377C15.3255 21.7225 15.3277 22.3074 15.3277 22.8923V22.9902H14.7773V18.7526H15.324V19.4685C15.3853 19.3919 15.4292 19.3368 15.4738 19.281C15.8089 18.8637 16.2425 18.6441 16.7779 18.6412C17.3766 18.6368 17.8382 18.9487 18.0666 19.5021C18.0842 19.5448 18.1002 19.588 18.1218 19.6429C18.1802 19.5538 18.2292 19.4723 18.2847 19.3956C18.5562 19.0205 18.9076 18.7644 19.3688 18.6698C20.1665 18.5059 20.8759 18.9638 21.0289 19.7626C21.0798 20.0367 21.1066 20.3147 21.1089 20.5935C21.1194 21.3722 21.1126 22.151 21.1124 22.9298C21.1124 22.9472 21.1104 22.9643 21.1089 22.9876H20.557V22.892C20.5559 22.0838 20.5594 21.2754 20.551 20.4674C20.5494 20.2562 20.5268 20.0456 20.4836 19.8388C20.4085 19.4839 20.0905 19.2307 19.7292 19.1843C19.0543 19.0965 18.42 19.5841 18.3041 20.2844C18.2554 20.5945 18.2286 20.9076 18.2239 21.2214C18.2112 21.7684 18.2204 22.3146 18.2204 22.8696Z" fill="white"/>
<path d="M5.57908 20.3515C5.57403 20.2305 5.57315 20.1134 5.57535 19.9823C5.58326 19.9274 5.58809 19.8866 5.59314 19.8457C5.7225 19.1269 6.32317 18.6086 7.02596 18.6079C7.74435 18.6079 8.35644 19.1231 8.47899 19.8459C8.48734 19.9057 8.49503 19.9518 8.50315 20.0065C8.50315 20.1238 8.50315 20.2329 8.50315 20.3421C8.49415 20.3537 8.47943 20.364 8.4768 20.3772C8.33382 21.0908 7.74655 21.5862 7.04002 21.5886C6.33349 21.5911 5.74424 21.0949 5.59885 20.3827C5.59433 20.3711 5.58762 20.3605 5.57908 20.3515Z" fill="#03B4E4"/>
<path d="M8.50283 20.3497C8.50283 20.2327 8.50283 20.1235 8.50547 19.9983C8.50547 19.9324 8.50349 19.8837 8.50195 19.8345V17.2539H9.07297V22.9885H8.50195C8.50239 22.1082 8.50239 21.2328 8.50283 20.3497Z" fill="white"/>
<path d="M31.377 19.8928C31.377 20.9239 31.377 21.9465 31.375 22.969C31.375 22.9743 31.3704 22.9793 31.366 22.9892H30.8262V18.7505H31.377V19.8928Z" fill="white"/>
<circle cx="20" cy="20" r="19.5" stroke="black" stroke-opacity="0.05"/>
</svg>
