<svg width="40" height="40" viewBox="0 0 40 40" fill="none" xmlns="http://www.w3.org/2000/svg">
<circle cx="20" cy="20" r="20" fill="#221E1F"/>
<g clip-path="url(#clip0_17752_43785)">
<path d="M20.7857 19.9605C20.7857 19.9605 20.7857 19.9867 20.7857 20.0128C21.9637 21.2694 22.7228 22.0547 23.0632 22.4212H21.6757C21.6757 22.4212 21.5972 22.4212 21.571 22.3689C21.1522 21.95 20.6548 21.4265 20.105 20.8244C20.0789 20.7982 20.0527 20.772 20.0003 20.772C19.948 20.772 19.9218 20.772 19.8956 20.8244C19.3197 21.4265 18.8485 21.9238 18.4296 22.3689C18.4035 22.395 18.3511 22.4212 18.3249 22.4212H16.9375C17.2778 22.0547 18.037 21.2694 19.215 20.0128C19.215 20.0128 19.215 20.0128 19.215 19.9605C19.215 19.9081 19.215 19.9343 19.215 19.9081C18.037 18.6516 17.2778 17.8662 16.9375 17.4998H18.3249C18.3249 17.4998 18.4035 17.4998 18.4296 17.5521C18.8485 17.971 19.3459 18.4945 19.8956 19.0966C19.9218 19.1228 19.948 19.149 20.0003 19.149C20.0527 19.149 20.0789 19.149 20.105 19.0966C20.681 18.4945 21.1522 17.9971 21.571 17.5521C21.5972 17.5259 21.6495 17.4998 21.6757 17.4998H23.0632C22.7228 17.8662 21.9637 18.6516 20.7857 19.9081C20.7857 19.9081 20.7857 19.9081 20.7857 19.9605Z" fill="white"/>
<path d="M7.27749 20.3009C6.64921 19.5941 6.25654 19.1752 6.15183 19.0443C6.15183 19.0443 6.12565 19.0443 6.09948 19.0443C6.09948 19.0443 6.09948 19.0443 6.09948 19.0705V22.3689C6.09948 22.3689 6.0733 22.4475 6.02094 22.4475H5.07853C5.07853 22.4475 5 22.4213 5 22.3689V17.9972C5 17.9972 5 17.8401 5.07853 17.7878C5.31414 17.4736 5.65445 17.3951 6.0733 17.5783C6.12565 17.6045 6.20419 17.6307 6.25654 17.6831C6.25654 17.6831 6.85864 18.3637 8.03665 19.6464C8.66492 20.3532 9.03141 20.7721 9.1623 20.903C9.1623 20.903 9.18848 20.903 9.21466 20.903C9.21466 20.903 9.21466 20.903 9.21466 20.8768V17.5522C9.21466 17.5522 9.24084 17.4736 9.29319 17.4736H10.2356C10.2356 17.4736 10.3141 17.4998 10.3141 17.5522V21.9239C10.3141 21.9239 10.3141 22.081 10.2356 22.1333C9.97382 22.4475 9.65969 22.526 9.24084 22.3427C9.18848 22.3166 9.10995 22.2904 9.05759 22.238C9.05759 22.238 8.4555 21.5574 7.27749 20.2747V20.3009Z" fill="white"/>
<path d="M16.0471 19.9868C16.0471 20.1177 16.0471 20.2748 16.0471 20.4056C16.0471 20.458 15.9947 20.5104 15.9162 20.5104H12.2513C12.2513 20.5104 12.1204 20.5627 12.1204 20.6413V21.2433C12.1204 21.2433 12.1727 21.3742 12.2513 21.3742H16.2565C16.2565 21.3742 16.335 21.4004 16.335 21.4528V22.3952C16.335 22.3952 16.3088 22.4737 16.2565 22.4737H11.7539C11.7539 22.4737 11.6753 22.4737 11.6492 22.4737C11.2565 22.3166 11.0732 22.081 11.0732 21.7931C11.0732 21.5051 11.0732 20.903 11.0732 20.013C11.0732 19.1229 11.0732 18.5208 11.0732 18.2329C11.0732 17.9449 11.2827 17.7355 11.6492 17.5522C11.6753 17.5522 11.7277 17.5522 11.7539 17.5522H16.2565C16.2565 17.5522 16.335 17.6046 16.335 17.6308V18.5732C16.335 18.5732 16.3088 18.6517 16.2565 18.6517H12.2513C12.2513 18.6517 12.1204 18.7041 12.1204 18.7826V19.3847C12.1204 19.3847 12.1727 19.5156 12.2513 19.5156H15.9162C15.9162 19.5156 16.0209 19.568 16.0471 19.6465C16.0471 19.7774 16.0471 19.9344 16.0471 20.0653V19.9868Z" fill="white"/>
<path d="M26.3346 22.4473C25.3922 22.4473 24.8948 22.4473 24.8425 22.4473C24.7901 22.4473 24.7116 22.4473 24.6592 22.4212C23.8477 22.1856 23.5859 21.4788 23.6121 20.6149C23.6121 20.5364 23.6121 19.5154 23.6121 17.6044C23.6121 17.5521 23.6383 17.5259 23.6906 17.5259H24.6069C24.6069 17.5259 24.6854 17.5521 24.6854 17.6044V21.0337C24.6854 21.217 24.8425 21.374 25.0519 21.374C25.5493 21.374 25.9681 21.374 26.3346 21.374C26.7011 21.374 27.12 21.374 27.6173 21.374C27.8006 21.374 27.9838 21.217 27.9838 21.0337V17.6044C27.9838 17.5521 28.01 17.5259 28.0624 17.5259H28.9786C28.9786 17.5259 29.0571 17.5521 29.0571 17.6044C29.0571 19.5154 29.0571 20.5102 29.0571 20.6149C29.0833 21.4788 28.8215 22.1594 28.01 22.4212C27.9577 22.4212 27.8791 22.4473 27.8268 22.4473C27.7744 22.4473 27.277 22.4473 26.3346 22.4473Z" fill="white"/>
<path d="M32.277 20.5102C31.4131 20.5102 30.9158 20.5102 30.811 20.5102C30.7325 20.5102 30.6802 20.5102 30.6016 20.4578C29.1618 19.9866 29.2142 17.9447 30.7063 17.5259C30.7587 17.5259 30.811 17.5259 30.8634 17.5259H34.633C34.633 17.5259 34.7377 17.5782 34.7377 17.6306V18.4945C34.7377 18.4945 34.6854 18.5992 34.633 18.5992C32.277 18.5992 31.0466 18.5992 30.9419 18.5992C30.7325 18.5992 30.6016 18.7301 30.5493 18.9133C30.4969 19.1489 30.6278 19.3845 30.8634 19.4369C30.8896 19.4369 30.9158 19.4369 30.9419 19.4369H32.2508C33.1147 19.4369 33.6121 19.4369 33.7168 19.4369C33.7953 19.4369 33.8477 19.4369 33.9262 19.4892C35.366 19.9604 35.3137 22.0023 33.8215 22.4212C33.7692 22.4212 33.7168 22.4212 33.6644 22.4212H29.8948C29.8948 22.4212 29.7901 22.3688 29.7901 22.3165V21.4526C29.7901 21.4526 29.8425 21.3479 29.8948 21.3479C32.2508 21.3479 33.4812 21.3479 33.5859 21.3479C33.7953 21.3479 33.9262 21.217 33.9786 21.0337C34.0309 20.7981 33.9001 20.5625 33.6644 20.5102C33.6383 20.5102 33.6121 20.5102 33.5859 20.5102H32.277Z" fill="white"/>
</g>
<circle cx="20" cy="20" r="19.5" stroke="black" stroke-opacity="0.05"/>
<defs>
<clipPath id="clip0_17752_43785">
<rect width="30" height="5" fill="white" transform="translate(5 17.4736)"/>
</clipPath>
</defs>
</svg>
