<svg width="40" height="40" viewBox="0 0 40 40" fill="none" xmlns="http://www.w3.org/2000/svg">
<circle cx="20" cy="20" r="20" fill="#404048"/>
<path d="M33.7483 15H34.0579C34.5277 15.0728 34.8271 15.322 34.9555 15.7473C35.0028 15.9039 35.0099 16.0888 34.9887 16.2507C34.941 16.6105 34.7639 16.876 34.4574 17.0471C34.1544 17.2164 33.7253 17.2267 33.4057 17.0853C33.0653 16.9343 32.8656 16.6621 32.8073 16.268C32.8059 16.2584 32.8002 16.2535 32.7907 16.2535L5 16.2546V15.918L32.7839 15.9163C32.7956 15.9163 32.803 15.9106 32.8055 15.8989C32.9112 15.3839 33.2255 15.0841 33.7483 15ZM34.7094 16.3274C34.8593 15.7232 34.4196 15.1495 33.7737 15.245C33.282 15.3174 32.9946 15.7201 33.0632 16.2125C33.1304 16.6968 33.5143 16.9902 33.9932 16.94C34.3478 16.9029 34.6225 16.6784 34.7094 16.3274Z" fill="white"/>
<path d="M34.1211 16.1993L34.3937 16.6649C34.3954 16.668 34.3947 16.6695 34.3908 16.6695L34.1112 16.6702C34.1066 16.6702 34.1024 16.6677 34.1003 16.6638L33.891 16.2622C33.8853 16.2516 33.8765 16.2463 33.8648 16.2463H33.8012C33.7895 16.2463 33.7835 16.252 33.7835 16.2636V16.6613C33.7835 16.6673 33.7807 16.6702 33.7747 16.6702H33.5538C33.5488 16.6702 33.5449 16.6659 33.5449 16.6613V15.5319C33.5449 15.5171 33.5523 15.51 33.5672 15.5107C33.663 15.5153 33.7637 15.5149 33.8694 15.5104C34.1681 15.498 34.3686 15.6228 34.3081 15.9632C34.2873 16.0802 34.2286 16.1502 34.1321 16.1739C34.1169 16.1777 34.1133 16.1862 34.1211 16.1993ZM33.7835 15.7285V16.0296C33.7835 16.0367 33.7892 16.0424 33.7963 16.0424H33.9203C34.0055 16.0424 34.0748 15.9748 34.0748 15.8914V15.8667C34.0748 15.7832 34.0055 15.7157 33.9203 15.7157H33.7963C33.7892 15.7157 33.7835 15.7214 33.7835 15.7285Z" fill="white"/>
<path d="M18.0981 17.3772H19.7903C19.7966 17.3772 19.8016 17.3825 19.8016 17.3885C19.8016 17.3906 19.8009 17.3928 19.7995 17.3949L17.8047 20.36C17.8022 20.3639 17.8022 20.3688 17.8047 20.3727L19.8005 23.3424C19.8041 23.3477 19.8026 23.3548 19.7977 23.358C19.7959 23.3594 19.7934 23.3601 19.791 23.3601H18.0999C18.096 23.3601 18.0924 23.3583 18.0903 23.3551L14.082 17.3949C14.0785 17.3896 14.0799 17.3825 14.0849 17.3793C14.0866 17.3779 14.0888 17.3776 14.0912 17.3772H15.7813C15.7852 17.3772 15.7887 17.379 15.7908 17.3821L16.9323 19.0736C16.9354 19.0789 16.9425 19.0803 16.9478 19.0772C16.9492 19.0761 16.9503 19.075 16.9514 19.0736L18.0885 17.3821C18.0907 17.379 18.0942 17.3772 18.0981 17.3772Z" fill="white"/>
<path d="M5 17.386C5.68931 17.386 6.37863 17.386 7.06794 17.3863C7.29665 17.3863 7.5388 17.4022 7.79437 17.4337C8.70321 17.5458 9.37485 18.0035 9.80964 18.807C10.1688 19.4709 10.2264 20.3172 10.108 21.0768C9.94751 22.1076 9.33773 22.8793 8.32143 23.178C7.92729 23.2939 7.52395 23.3519 7.11213 23.3523C6.40832 23.3526 5.70416 23.3523 5 23.3505V22.0079C5.75118 22.0079 6.50235 22.0062 7.25353 22.0016C7.33943 22.0012 7.4179 21.9956 7.48895 21.9849C8.21468 21.8768 8.53636 21.3494 8.60741 20.6745C8.69826 19.8085 8.42041 18.8586 7.41437 18.7455C7.36028 18.7395 7.30054 18.736 7.23585 18.7356C6.49033 18.7324 5.74517 18.73 5 18.7286L5 17.386Z" fill="white"/>
<path d="M11.9284 21.0119V21.9967C11.9284 22.0031 11.9334 22.008 11.9397 22.008H14.3912C14.3976 22.008 14.4025 22.013 14.4029 22.019C14.4029 22.0215 14.4022 22.0236 14.4008 22.0257L13.5192 23.3464C13.517 23.3495 13.5135 23.3513 13.5096 23.3513H10.4727C10.4664 23.3513 10.4614 23.3464 10.4614 23.34V17.3978C10.4614 17.3914 10.4664 17.3864 10.4727 17.3864L13.4979 17.3857C13.5018 17.3857 13.5054 17.3875 13.5075 17.3907L14.3965 18.7117C14.4001 18.717 14.3986 18.7241 14.3937 18.7273C14.3919 18.7287 14.3898 18.729 14.3873 18.7294H11.9397C11.9334 18.7294 11.9284 18.7343 11.9284 18.7407V19.6371C11.9284 19.6435 11.9334 19.6485 11.9397 19.6485H15.0204C15.0243 19.6485 15.0279 19.6502 15.03 19.6534L15.5122 20.3618C15.5146 20.3657 15.5146 20.3706 15.5122 20.3745L15.0982 20.9956C15.0961 20.9988 15.0926 21.0006 15.089 21.0006H11.9397C11.9334 21.0006 11.9284 21.0055 11.9284 21.0119Z" fill="white"/>
<path d="M25.328 21.869C25.3117 21.8853 25.3142 21.898 25.3351 21.9072C25.8031 22.1168 26.3457 22.0956 26.7819 21.81C27.2496 21.5042 27.5165 20.9485 27.5197 20.39C27.5197 20.3783 27.5257 20.3723 27.5377 20.3723L28.9739 20.3744C28.9881 20.3744 28.9952 20.3815 28.9952 20.3957C29.004 21.0182 28.7986 21.6223 28.4303 22.1267C27.5313 23.3576 25.8077 23.6849 24.5065 22.9949C23.627 22.5286 23.0147 21.6555 22.9433 20.6537C22.9267 20.4176 22.9366 20.1687 22.9737 19.9075C23.0557 19.3274 23.2915 18.8194 23.6811 18.3832C24.1636 17.8427 24.7561 17.5232 25.4581 17.4245C26.6448 17.2577 27.8046 17.696 28.4829 18.6858C28.4904 18.6968 28.4897 18.7074 28.4801 18.7169L25.328 21.869ZM24.5044 19.7597C24.4004 20.0697 24.3856 20.4126 24.4595 20.7884C24.4612 20.7962 24.4687 20.8015 24.4764 20.7997C24.4793 20.799 24.4817 20.7979 24.4839 20.7958L26.4868 18.7929C26.4991 18.7809 26.497 18.7721 26.4808 18.766C25.9883 18.5882 25.4284 18.6695 25.0162 19.0029C24.7797 19.1945 24.6094 19.4469 24.5044 19.7597Z" fill="white"/>
<path d="M21.7732 18.7648V23.3337C21.7732 23.3454 21.7672 23.3514 21.7556 23.3514H20.262C20.2504 23.3514 20.2444 23.3454 20.2444 23.3337V18.756C20.2444 18.7443 20.2384 18.7383 20.2267 18.7383H19.3861C19.3666 18.7383 19.3621 18.7302 19.373 18.7143L20.2564 17.4109C20.2635 17.4003 20.2734 17.395 20.2861 17.395H24.1243C24.1459 17.395 24.1477 17.4007 24.1293 17.4123C23.6036 17.74 23.1858 18.1769 22.8758 18.7235C22.8701 18.7333 22.8616 18.7383 22.85 18.7383H21.7997C21.7821 18.7383 21.7732 18.7471 21.7732 18.7648Z" fill="white"/>
<path d="M32.2427 21.3205C32.2374 21.3216 32.2339 21.3265 32.2346 21.3318C32.2346 21.3336 32.2357 21.335 32.2367 21.3364L33.8168 23.3308C33.8278 23.3446 33.8243 23.3514 33.8069 23.3514H32.1063C32.0939 23.3514 32.0844 23.3464 32.0769 23.3362L29.9779 20.4036C29.9673 20.3891 29.9712 20.3816 29.9892 20.3816C30.4286 20.3827 30.8436 20.3827 31.2342 20.3816C31.7153 20.3802 32.1773 20.2116 32.23 19.6658C32.2989 18.9571 31.7846 18.7344 31.1904 18.7365C30.4852 18.739 29.7782 18.7393 29.0691 18.7372C29.0599 18.7372 29.051 18.7319 29.0464 18.7238C28.7456 18.172 28.3296 17.741 27.799 17.4314C27.7678 17.4134 27.7703 17.4042 27.8064 17.4038H31.347C31.4368 17.4038 31.5241 17.4126 31.6139 17.4141C32.4297 17.4268 33.1251 17.7248 33.4888 18.4986C33.755 19.0638 33.7727 19.7715 33.5114 20.3357C33.2587 20.8815 32.8355 21.2099 32.2427 21.3205Z" fill="white"/>
<path d="M14.0802 23.3414L15.8085 20.7729C15.8124 20.7676 15.8198 20.7662 15.8251 20.7698C15.8262 20.7705 15.8272 20.7715 15.8283 20.7729L16.6735 22.0289C16.6763 22.0328 16.6763 22.0385 16.6735 22.0423L15.7901 23.3549C15.788 23.3581 15.7841 23.3602 15.7802 23.3602H14.0901C14.0834 23.3602 14.0781 23.3549 14.0781 23.3482C14.0781 23.3457 14.0788 23.3436 14.0802 23.3414Z" fill="white"/>
<path d="M22.7677 25.5694H22.3378C21.9992 25.4701 21.8062 25.2481 21.7588 24.9034C21.6973 24.4573 22.0306 24.0978 22.4619 24.0529C22.9197 24.0055 23.3707 24.3318 23.352 24.8228C23.3379 25.1876 23.1272 25.4732 22.7677 25.5694ZM22.9522 24.8175C22.9522 24.5969 22.7733 24.4181 22.5527 24.4181C22.3322 24.4181 22.1533 24.5969 22.1533 24.8175C22.1533 25.0381 22.3322 25.217 22.5527 25.217C22.7733 25.217 22.9522 25.0381 22.9522 24.8175Z" fill="white"/>
<path d="M14.7076 25.5694H14.3926C14.2724 25.5394 14.1579 25.4899 14.049 25.421C14.0437 25.4178 14.0426 25.4135 14.0455 25.4082L14.2007 25.1138C14.2035 25.1085 14.2098 25.1067 14.2148 25.1092C14.2155 25.1095 14.2162 25.1099 14.2169 25.1106C14.377 25.2456 14.5195 25.2852 14.6443 25.229C14.7168 25.1965 14.7479 25.0936 14.6789 25.0364C14.6418 25.0056 14.5998 24.9844 14.552 24.9731C14.3901 24.9342 14.1653 24.8738 14.1194 24.6878C14.0469 24.3962 14.1908 24.1152 14.5029 24.0678C14.68 24.0409 14.862 24.0763 15.049 24.1735C15.0543 24.176 15.0565 24.1823 15.0536 24.1876L14.9119 24.469C14.9098 24.4732 14.9045 24.4747 14.9006 24.4725C14.9002 24.4725 14.8995 24.4722 14.8992 24.4718C14.7977 24.3955 14.6499 24.3375 14.5372 24.4209C14.4672 24.4729 14.5061 24.5655 14.5739 24.592C14.8352 24.6938 15.1243 24.7126 15.1134 25.083C15.1056 25.3457 14.9702 25.5079 14.7076 25.5691V25.5694Z" fill="white"/>
<path d="M24.5168 25.5694H24.1941C24.0633 25.5348 23.9495 25.4842 23.8526 25.4181C23.8509 25.4167 23.8501 25.4149 23.8509 25.4125C23.8611 25.3824 23.9152 25.2806 24.0135 25.1063C24.0142 25.1049 24.0159 25.1046 24.0174 25.1053C24.0174 25.1053 24.0177 25.1053 24.0181 25.1056C24.1397 25.2184 24.2648 25.2661 24.3938 25.2488C24.455 25.2407 24.496 25.2078 24.5168 25.1502C24.5462 25.0682 24.4575 25.0056 24.3903 24.9847C24.1177 24.9017 23.8784 24.8596 23.9095 24.4994C23.9265 24.3032 24.0212 24.1692 24.1934 24.0975C24.3924 24.0144 24.649 24.072 24.8421 24.1646C24.8573 24.1717 24.8611 24.1827 24.8537 24.1975L24.7243 24.4559C24.719 24.4665 24.7063 24.4708 24.6961 24.4655C24.695 24.4651 24.6939 24.4644 24.6929 24.4637C24.5932 24.3919 24.4391 24.3357 24.3366 24.428C24.3005 24.4605 24.2973 24.516 24.3298 24.5524C24.3305 24.5531 24.3309 24.5538 24.3316 24.5542C24.3631 24.5871 24.4012 24.6093 24.4461 24.6206C24.7063 24.6853 24.9237 24.7709 24.9202 25.0809C24.9177 25.3393 24.783 25.5023 24.5168 25.5694Z" fill="white"/>
<path d="M16.2586 24.4335V25.5304C16.2586 25.5374 16.253 25.5431 16.2459 25.5431H15.8914C15.8843 25.5431 15.8786 25.5374 15.8786 25.5304V24.4335C15.8786 24.4264 15.873 24.4207 15.8659 24.4207H15.5821C15.575 24.4207 15.5693 24.4151 15.5693 24.408V24.1065C15.5697 24.0994 15.5753 24.0938 15.5824 24.0938H16.5552C16.5623 24.0938 16.568 24.0994 16.568 24.1065V24.408C16.568 24.4151 16.5623 24.4207 16.5552 24.4207H16.2714C16.2643 24.4207 16.2586 24.4264 16.2586 24.4335Z" fill="white"/>
<path d="M17.8963 25.5696H17.5403C17.2469 25.5056 17.097 25.3232 17.0903 25.0224C17.085 24.771 17.085 24.4692 17.091 24.1164C17.091 24.1012 17.0988 24.0938 17.114 24.0938H17.4505C17.4629 24.0938 17.4693 24.0998 17.4693 24.1121C17.4707 24.3469 17.4703 24.583 17.4682 24.8209C17.4664 25.0005 17.4735 25.2387 17.7142 25.2426C17.9726 25.2472 17.973 24.998 17.9733 24.8121C17.9733 24.5812 17.9733 24.3483 17.973 24.1132C17.973 24.1026 17.9818 24.0938 17.9924 24.0938H18.3293C18.3459 24.0938 18.3541 24.1022 18.3541 24.1188C18.3526 24.391 18.3526 24.6646 18.3544 24.94C18.3562 25.2734 18.2402 25.5003 17.8963 25.5696Z" fill="white"/>
<path d="M18.9835 24.1082C18.9835 24.0994 18.9905 24.0923 18.9994 24.0923L19.5112 24.0941C19.9188 24.0955 20.2479 24.4186 20.2465 24.8155V24.829C20.2451 25.2259 19.9139 25.5469 19.5063 25.5455L18.9944 25.5437C18.9856 25.5437 18.9785 25.5367 18.9785 25.5278L18.9835 24.1082ZM19.3599 24.4359L19.3614 25.2016C19.3614 25.2097 19.3677 25.216 19.3758 25.216H19.4674C19.6774 25.2157 19.8474 25.0534 19.8471 24.8534V24.7827C19.8467 24.5826 19.676 24.421 19.466 24.4214H19.3744C19.3663 24.4214 19.3599 24.4278 19.3599 24.4359Z" fill="white"/>
<path d="M21.1789 24.0938H20.8219C20.8156 24.0938 20.8105 24.0988 20.8105 24.1051V25.5318C20.8105 25.538 20.8156 25.5431 20.8219 25.5431H21.1789C21.1851 25.5431 21.1902 25.538 21.1902 25.5318V24.1051C21.1902 24.0988 21.1851 24.0938 21.1789 24.0938Z" fill="white"/>
<path d="M5 24.73H13.5355C13.5461 24.73 13.5546 24.7385 13.5546 24.7491V25.1386C13.5546 25.1538 13.5468 25.1616 13.5316 25.1616L5 25.1623V24.73Z" fill="white"/>
<path d="M34.0809 24.73H25.4174C25.411 24.73 25.4058 24.7352 25.4058 24.7416V25.151C25.4058 25.1574 25.411 25.1627 25.4174 25.1627H34.0809C34.0873 25.1627 34.0925 25.1574 34.0925 25.151V24.7416C34.0925 24.7352 34.0873 24.73 34.0809 24.73Z" fill="white"/>
<circle cx="20" cy="20" r="19.5" stroke="black" stroke-opacity="0.05"/>
</svg>
