<svg width="40" height="40" viewBox="0 0 40 40" fill="none" xmlns="http://www.w3.org/2000/svg">
<circle cx="20" cy="20" r="20" fill="#013DFD"/>
<g clip-path="url(#clip0_17752_43638)">
<path d="M17.7483 17.1792C16.6066 19.8709 15.4537 22.5991 14.3087 25.2908C14.066 25.8605 13.8755 26.2395 13.7372 26.4278C13.0736 27.3321 12.0022 27.8161 10.8797 27.7041C9.73411 27.5894 8.73102 26.8296 8.31267 25.786C8.02582 25.0705 7.98759 24.3827 8.19798 23.7228C8.29301 23.4249 8.44571 23.0302 8.6561 22.5387C9.81279 19.8373 10.9498 17.1571 12.0671 14.4981C12.3297 13.8736 12.6214 13.3697 13.1737 12.9374C14.6395 11.7891 16.83 12.1989 17.7622 13.786C18.1732 14.4853 18.3131 15.2 18.1818 15.9301C18.1341 16.1936 17.9896 16.6099 17.7483 17.1792Z" fill="white"/>
<path d="M25.6798 19.7919C24.829 21.8016 23.973 23.8104 23.112 25.8184C22.7757 26.6029 22.2199 27.1558 21.4446 27.4772C20.8793 27.7114 20.303 27.7766 19.7156 27.6727C17.7028 27.318 16.5671 25.2237 17.362 23.3435C18.6301 20.3446 19.9173 17.3068 21.2239 14.2301C21.6362 13.2595 22.4696 12.5574 23.4813 12.3452C24.4029 12.1516 25.3715 12.3863 26.1028 12.983C26.9739 13.6937 27.4181 14.842 27.2152 15.9578C27.1724 16.1947 27.0504 16.551 26.8493 17.0265C26.4502 17.9711 26.0603 18.8928 25.6798 19.7919Z" fill="white"/>
<path d="M28.6749 21.8297C28.5207 21.4721 28.3379 21.1552 28.1266 20.879C28.0665 20.8008 28.0082 20.7234 27.9516 20.647C27.7978 20.4408 27.8846 20.1338 28.1485 20.0794C28.2418 20.0604 28.339 20.0649 28.4402 20.0927C30.0535 20.536 31.1481 21.5132 31.724 23.0244C31.9713 23.6721 32.0773 24.5274 31.9341 25.2043C31.6365 26.6125 30.4683 27.6282 29.0303 27.7157C27.3688 27.8171 25.9229 26.5879 25.7299 24.9451C25.6323 24.1097 25.861 23.3844 26.4161 22.7692C26.9103 22.222 27.5286 21.9245 28.2711 21.8768C28.3914 21.8693 28.5123 21.8721 28.6338 21.8854C28.6798 21.8903 28.6935 21.8717 28.6749 21.8297Z" fill="white"/>
</g>
<circle cx="20" cy="20" r="19.5" stroke="black" stroke-opacity="0.05"/>
<defs>
<clipPath id="clip0_17752_43638">
<rect width="24" height="15.4475" fill="white" transform="translate(8 12.2764)"/>
</clipPath>
</defs>
</svg>
