<svg width="40" height="40" viewBox="0 0 40 40" fill="none" xmlns="http://www.w3.org/2000/svg">
<circle cx="20" cy="20" r="20" fill="#F6F8FA"/>
<path d="M15.1114 15.4219C15.1118 15.6775 15.0619 15.9307 14.9645 16.167C14.867 16.4033 14.724 16.618 14.5436 16.7991C14.3632 16.9801 14.1488 17.1238 13.9129 17.222C13.6769 17.3202 13.4239 17.3709 13.1683 17.3714H12.9494C12.6939 17.372 12.4408 17.3222 12.2045 17.225C11.9682 17.1277 11.7534 16.9849 11.5724 16.8046C11.3913 16.6243 11.2476 16.4101 11.1494 16.1742C11.0512 15.9383 11.0004 15.6854 11 15.4299V11.953C10.9992 11.4366 11.2034 10.9411 11.5677 10.5753C11.9321 10.2094 12.4268 10.0032 12.9431 10.002H13.162C13.4176 10.0015 13.6707 10.0515 13.907 10.1489C14.1433 10.2463 14.3581 10.3893 14.5391 10.5698C14.7201 10.7502 14.8638 10.9645 14.962 11.2005C15.0602 11.4364 15.111 11.6894 15.1114 11.945V15.4219Z" fill="#005653"/>
<path d="M15.1958 23.0243C15.5495 25.199 17.2119 26.7392 19.35 27.0612C20.5165 27.214 21.6985 26.9317 22.6699 26.2681C24.0911 25.2582 24.8033 23.8634 24.8065 22.0837C24.8128 18.5497 24.8102 15.2616 24.7986 12.2193C24.7969 11.936 24.843 11.6545 24.935 11.3865C25.6884 9.17697 29.0035 9.75593 29.0004 12.0797C29.0004 15.306 29.0004 18.6602 29.0004 22.1424C29.0004 26.5441 26.0564 30.2319 21.7531 31.1503C21.2842 31.2506 20.8049 31.2943 20.3255 31.2804C19.6911 31.2646 19.0566 31.3169 18.4221 31.2027C14.877 30.5508 12.2566 28.1017 11.2478 24.6216C11.1457 24.2644 11.0767 23.8986 11.0416 23.5287C10.9921 23.0085 11.1395 22.4885 11.4545 22.0715C11.7696 21.6546 12.2296 21.3708 12.7436 21.2764C13.0199 21.2247 13.3039 21.2293 13.5784 21.2899C13.8529 21.3504 14.1124 21.4658 14.3414 21.629C14.5703 21.7921 14.764 21.9998 14.9108 22.2396C15.0576 22.4793 15.1545 22.7462 15.1958 23.0243Z" fill="#F37022"/>
<circle cx="20" cy="20" r="19.5" stroke="black" stroke-opacity="0.05"/>
</svg>
