<svg width="40" height="40" viewBox="0 0 40 40" fill="none" xmlns="http://www.w3.org/2000/svg">
<circle cx="20" cy="20" r="20" fill="#F6F8FA"/>
<path fill-rule="evenodd" clip-rule="evenodd" d="M24 29.8158C27.4881 29.8158 30.3158 26.9881 30.3158 23.5C30.3158 20.0119 27.4881 17.1842 24 17.1842C20.5119 17.1842 17.6842 20.0119 17.6842 23.5C17.6842 26.9881 20.5119 29.8158 24 29.8158ZM24 31C28.1421 31 31.5 27.6421 31.5 23.5C31.5 19.3579 28.1421 16 24 16C19.8579 16 16.5 19.3579 16.5 23.5C16.5 27.6421 19.8579 31 24 31Z" fill="#0B67B2"/>
<path fill-rule="evenodd" clip-rule="evenodd" d="M16 29.8158C19.4881 29.8158 22.3158 26.9881 22.3158 23.5C22.3158 20.0119 19.4881 17.1842 16 17.1842C12.5119 17.1842 9.68421 20.0119 9.68421 23.5C9.68421 26.9881 12.5119 29.8158 16 29.8158ZM16 31C20.1421 31 23.5 27.6421 23.5 23.5C23.5 19.3579 20.1421 16 16 16C11.8579 16 8.5 19.3579 8.5 23.5C8.5 27.6421 11.8579 31 16 31Z" fill="#ED1C1F"/>
<path fill-rule="evenodd" clip-rule="evenodd" d="M20 21.8947C23.4881 21.8947 26.3158 19.2556 26.3158 16C26.3158 12.7444 23.4881 10.1053 20 10.1053C16.5119 10.1053 13.6842 12.7444 13.6842 16C13.6842 19.2556 16.5119 21.8947 20 21.8947ZM20 23C24.1421 23 27.5 19.866 27.5 16C27.5 12.134 24.1421 9 20 9C15.8579 9 12.5 12.134 12.5 16C12.5 19.866 15.8579 23 20 23Z" fill="#11A640"/>
<circle cx="20" cy="20" r="19.5" stroke="black" stroke-opacity="0.05"/>
</svg>
