<svg width="40" height="40" viewBox="0 0 40 40" fill="none" xmlns="http://www.w3.org/2000/svg">
<circle cx="20" cy="20" r="20" fill="black"/>
<path d="M12.1182 22.1002H9.10211C9.0822 22.1002 9.06627 22.1161 9.06627 22.136V26.6087C9.06548 26.6286 9.04955 26.6446 9.02964 26.6446L6.03587 26.643C6.01596 26.643 6.00003 26.627 6.00003 26.6071V16.0656C5.99923 16.0457 6.01516 16.0298 6.03507 16.0298L7.49333 16.0314C7.51324 16.0314 7.52917 16.0155 7.52917 15.9955V14.55C7.52917 14.5301 7.54589 14.5142 7.5658 14.5142L9.02565 14.5182C9.04556 14.5182 9.06149 14.5022 9.06149 14.4823L9.0591 13.0368C9.0591 13.0169 9.07503 13.001 9.09494 13.001H12.1309C12.1508 13.001 12.1668 13.0177 12.1668 13.0376L12.1684 14.4815C12.1684 14.5014 12.1843 14.5174 12.2042 14.5174L13.6537 14.5158C13.6736 14.5158 13.6895 14.5317 13.6895 14.5516L13.6911 15.9939C13.6911 16.0139 13.707 16.0298 13.727 16.0298L15.1828 16.0282C15.2027 16.0282 15.2187 16.0441 15.2187 16.064V26.6087C15.2187 26.6286 15.2019 26.6446 15.182 26.6446H12.1907C12.1707 26.6446 12.1548 26.6286 12.1548 26.6087V22.136C12.154 22.1161 12.1381 22.1002 12.1182 22.1002ZM9.50431 17.4896C9.50431 17.508 9.48997 17.5223 9.47165 17.5223H9.09972C9.0814 17.5223 9.06707 17.5358 9.06707 17.5541V20.0764C9.06707 20.0947 9.08061 20.1091 9.09893 20.1091H12.1222C12.1405 20.1091 12.1548 20.0947 12.1548 20.0764V17.5534C12.1548 17.535 12.1405 17.5207 12.1222 17.5207L11.7455 17.5247C11.7271 17.5247 11.7128 17.5103 11.7128 17.492L11.7152 16.0744C11.7152 16.0561 11.7009 16.0417 11.6825 16.0417L9.54094 16.0401C9.52262 16.0401 9.50829 16.0545 9.50829 16.0728L9.50351 17.4896H9.50431ZM7.2098 18.6166L6.57823 18.6285C6.54956 18.6285 6.53523 18.6437 6.53523 18.6715L6.53204 20.4277C6.53204 20.442 6.54399 20.4531 6.55832 20.4531L7.18193 20.4563C7.19547 20.4563 7.20582 20.446 7.20582 20.4324L7.2106 19.6703C7.2106 19.6535 7.22414 19.6408 7.24086 19.6408L7.84774 19.6376C7.85969 19.6376 7.87004 19.648 7.87004 19.6599L7.86765 20.4285C7.86765 20.4436 7.8796 20.4555 7.89473 20.4555L8.50957 20.4571C8.52868 20.4571 8.53824 20.4476 8.53824 20.4277L8.547 18.6739C8.547 18.6421 8.53187 18.6261 8.50001 18.6253L7.87004 18.6166L7.87561 17.0166C7.87561 16.9831 7.89234 16.9664 7.92579 16.9664L8.48647 16.9688C8.52789 16.9688 8.54859 16.9481 8.54859 16.9067V16.823C8.5478 16.784 8.52789 16.7649 8.48886 16.7649H6.59576C6.55514 16.7649 6.53523 16.7856 6.53523 16.8262V16.9242C6.53443 16.9536 6.54956 16.9688 6.57903 16.9688H7.15485C7.1883 16.9688 7.21538 16.9959 7.21538 17.0285L7.2098 18.6158V18.6166ZM6.86495 22.2077C6.85459 22.2419 6.85539 22.2746 6.86654 22.3072C6.87769 22.3391 6.89999 22.355 6.93344 22.355L8.13047 22.3526C8.16312 22.3526 8.18383 22.3367 8.1918 22.3056C8.20056 22.273 8.20056 22.2411 8.19339 22.2101C8.18622 22.1798 8.20454 22.1487 8.2356 22.1416C8.24038 22.1408 8.24436 22.14 8.24914 22.14H8.49125C8.51435 22.14 8.53267 22.1217 8.53267 22.0986L8.53665 20.5559C8.53665 20.5352 8.51992 20.5184 8.49922 20.5184L7.89712 20.5216C7.87641 20.5216 7.86606 20.532 7.86606 20.5527V22.0938C7.86606 22.1256 7.85013 22.1416 7.81907 22.1408H7.23768C7.21219 22.1408 7.19945 22.1272 7.19945 22.1025L7.20662 20.5487C7.20662 20.5328 7.19387 20.52 7.17794 20.52C7.17794 20.52 7.17794 20.52 7.17715 20.52L6.56071 20.5232C6.5408 20.5232 6.53045 20.5336 6.53045 20.5535L6.52487 22.1041C6.52487 22.1248 6.5416 22.1416 6.56231 22.1416L6.81477 22.14C6.86256 22.14 6.87928 22.1623 6.86495 22.2077ZM7.968 23.016C8.00623 23.0144 8.02534 23.0328 8.02534 23.0718L8.02056 24.19C8.02056 24.2242 8.03729 24.2409 8.07153 24.2417L8.65293 24.2505C8.67682 24.2505 8.69673 24.2314 8.69753 24.2075C8.69753 24.2075 8.69753 24.2075 8.69753 24.2067L8.70629 22.4848C8.70629 22.4378 8.68319 22.4139 8.6354 22.4131L8.09304 22.4108C8.04923 22.4108 8.02693 22.4331 8.02693 22.4769V22.7707C8.02693 22.797 8.00543 22.8185 7.97915 22.8185C7.97915 22.8185 7.97915 22.8185 7.97835 22.8185L7.73226 22.8161C7.70438 22.8161 7.69084 22.8297 7.69164 22.8576L7.69323 22.9826C7.69323 23.0081 7.67412 23.0296 7.64863 23.0296C7.64545 23.0296 7.64146 23.0296 7.63828 23.0288C7.56819 23.0144 7.49731 23.0121 7.42563 23.0216C7.39616 23.0264 7.36909 23.0057 7.3651 22.9762C7.3651 22.9738 7.3651 22.9714 7.3651 22.9683V22.8615C7.3651 22.8313 7.35077 22.8161 7.3205 22.8161L7.07441 22.8177C7.04494 22.8177 7.0306 22.8042 7.0314 22.7747L7.03538 22.527C7.03698 22.4522 7.00034 22.4147 6.92627 22.4139L6.43408 22.4108C6.3847 22.4108 6.36001 22.4347 6.36001 22.484V24.2059C6.36001 24.2306 6.37116 24.2425 6.39506 24.2425L7.00034 24.237C7.02025 24.237 7.0306 24.2266 7.0306 24.2067L7.03299 23.0567C7.03299 23.028 7.04733 23.0144 7.076 23.0152L7.30696 23.0248C7.34201 23.0264 7.35953 23.0447 7.35953 23.0798V23.5958C7.35953 23.6165 7.37705 23.6333 7.39776 23.6333H7.67412C7.68606 23.6333 7.69244 23.6261 7.69244 23.6134V23.0726C7.69244 23.0431 7.70757 23.0272 7.73704 23.0264L7.9688 23.016H7.968ZM8.27462 25.1162L8.47612 25.1274C8.52391 25.1298 8.5478 25.1075 8.54859 25.0597V24.5484C8.54859 24.5189 8.53426 24.503 8.50399 24.5022C8.42754 24.499 8.34949 24.4998 8.26985 24.5054C8.25312 24.5054 8.23878 24.5014 8.22684 24.491C8.20056 24.4679 8.19339 24.4377 8.20613 24.401C8.22126 24.3604 8.20056 24.3158 8.15994 24.3007C8.15118 24.2975 8.14242 24.2959 8.13286 24.2959L6.57505 24.2983C6.55514 24.2983 6.53921 24.3142 6.53921 24.3333V26.0958C6.53921 26.1141 6.55355 26.1293 6.57186 26.1293L8.15277 26.1341C8.18303 26.1341 8.20693 26.1102 8.20772 26.0807V25.9756C8.20932 25.9437 8.22524 25.9278 8.2579 25.9286L8.49284 25.9334C8.52948 25.9334 8.5478 25.9158 8.5478 25.88V25.3822C8.54859 25.3408 8.52789 25.3201 8.48647 25.3201L8.25392 25.3185C8.22126 25.3185 8.20454 25.3018 8.20533 25.2691V25.1815C8.20533 25.1353 8.22843 25.1138 8.27462 25.1162Z" fill="#F50256"/>
<path d="M21.899 15.7763L21.484 15.7803C21.4649 15.7803 21.4498 15.766 21.449 15.7469C21.449 15.7469 21.449 15.7469 21.449 15.7461V14.5618C21.4498 14.5427 21.4347 14.5275 21.4155 14.5275L19.4197 14.5252C19.4006 14.5252 19.3855 14.5403 19.3855 14.5594L19.3791 15.7525C19.3791 15.7716 19.364 15.7867 19.3448 15.7867L18.9371 15.7827C18.918 15.7827 18.9028 15.7978 18.9028 15.817V23.8258C18.9028 23.8449 18.918 23.8601 18.9371 23.8601C18.9371 23.8601 18.9371 23.8601 18.9379 23.8601L19.3496 23.8553C19.3687 23.8553 19.3839 23.8696 19.3847 23.8887C19.3847 23.8887 19.3847 23.8887 19.3847 23.8895L19.3815 25.0914C19.3815 25.1105 19.3966 25.1256 19.4157 25.1256H21.4171C21.4363 25.1256 21.4514 25.1105 21.4514 25.0914L21.4474 23.8975C21.4474 23.8784 21.4625 23.8633 21.4816 23.8633L21.8982 23.8649C21.9173 23.8649 21.9324 23.8497 21.9324 23.8306V22.1334C21.9324 22.1143 21.9173 22.0992 21.8982 22.0992L20.4479 22.1008C20.4288 22.1008 20.4136 22.0856 20.4136 22.0665V19.6526C20.4136 19.6334 20.4288 19.6183 20.4479 19.6183L24.9557 19.6199C24.9748 19.6199 24.9899 19.635 24.9899 19.6541L24.9843 25.0993C24.9843 25.1184 24.9692 25.1336 24.9501 25.1336L23.4942 25.1288C23.4751 25.1288 23.46 25.1439 23.46 25.163V26.6085C23.46 26.6277 23.4448 26.6428 23.4257 26.6428H17.4008C17.3816 26.6436 17.3665 26.6285 17.3665 26.6093L17.3681 25.1654C17.3681 25.1463 17.353 25.1312 17.3339 25.1312L15.8875 25.1296C15.8684 25.1296 15.8533 25.1144 15.8533 25.0953V14.5522C15.8525 14.5331 15.8676 14.518 15.8868 14.518H17.3339C17.353 14.5172 17.3681 14.5021 17.3681 14.4829V13.0342C17.3681 13.0151 17.3824 13 17.4016 13H23.4273C23.4464 13.0008 23.4616 13.0159 23.4616 13.035V14.4837C23.4624 14.5029 23.4775 14.518 23.4966 14.518L24.9509 14.5148C24.97 14.5148 24.9851 14.5299 24.9851 14.5491V17.5245C24.9851 17.5436 24.97 17.5587 24.9509 17.5587H21.9667C21.9476 17.5587 21.9324 17.5428 21.9324 17.5237L21.9332 15.8106C21.9332 15.7915 21.9181 15.7763 21.899 15.7763C21.899 15.7763 21.899 15.7763 21.8982 15.7763H21.899Z" fill="#DFF030"/>
<path d="M32.6469 25.1272L33.9698 25.1256C33.9865 25.1256 34 25.1391 34 25.1559V26.6133C33.9992 26.63 33.9857 26.6436 33.969 26.6436H25.6774C25.6606 26.6436 25.6471 26.63 25.6471 26.6133L25.6455 13.0303C25.6455 13.0135 25.659 13 25.6758 13H33.969C33.9857 13.0008 33.9992 13.0143 33.9992 13.0311V14.5013C33.9992 14.518 33.9849 14.5315 33.9682 14.5315L32.6477 14.5236C32.631 14.5236 32.6174 14.5371 32.6174 14.5538V16.0145C32.6174 16.0312 32.6039 16.0447 32.5872 16.0447L28.4712 16.0424C28.4545 16.0424 28.441 16.0559 28.441 16.0726L28.4386 18.7757C28.4386 18.7924 28.4521 18.806 28.4688 18.806H32.5808C32.5975 18.8052 32.6111 18.8187 32.6111 18.8354L32.615 20.715C32.615 20.7317 32.6015 20.7453 32.5848 20.7453H28.468C28.4513 20.7453 28.4378 20.7588 28.4378 20.7755L28.4434 23.5821C28.4434 23.5988 28.4569 23.6124 28.4736 23.6124L32.5904 23.614C32.6071 23.614 32.6206 23.6275 32.6206 23.6442L32.6166 25.0969C32.6166 25.1137 32.6302 25.1272 32.6469 25.1272Z" fill="#0A71F2"/>
<path d="M7.87003 18.6163H7.20979L7.21537 17.0291C7.21537 16.9964 7.18909 16.9693 7.15564 16.9685C7.15564 16.9685 7.15564 16.9685 7.15484 16.9685H6.57902C6.54956 16.9685 6.53442 16.9534 6.53442 16.9239V16.826C6.53522 16.7854 6.55513 16.7646 6.59575 16.7646H8.48885C8.52788 16.7646 8.54779 16.7838 8.54779 16.8228V16.9064C8.54859 16.9478 8.52788 16.9685 8.48647 16.9685L7.92578 16.9661C7.89233 16.9661 7.87561 16.9829 7.87561 17.0163L7.87003 18.6163Z" fill="white"/>
<path d="M7.86997 18.6162V19.4126C7.86997 19.427 7.85802 19.4381 7.84368 19.4381L7.23362 19.4333C7.21849 19.4333 7.20654 19.4206 7.20654 19.4063L7.20973 18.6162H7.86997Z" fill="#F50256"/>
<path d="M7.20981 18.6162L7.20662 19.4063C7.20662 19.4206 7.21857 19.4325 7.2337 19.4333L7.84376 19.4381C7.8581 19.4381 7.86925 19.427 7.86925 19.4126V18.6162L8.49922 18.625C8.53108 18.625 8.54701 18.6417 8.54621 18.6736L8.53745 20.4273C8.53745 20.4472 8.52789 20.4568 8.50878 20.4568L7.89394 20.4552C7.8788 20.4552 7.86686 20.4432 7.86686 20.4281L7.86925 19.6595C7.86925 19.6476 7.85889 19.6372 7.84695 19.6372L7.24007 19.6404C7.22334 19.6404 7.2106 19.6532 7.20981 19.6699L7.20503 20.4321C7.20503 20.4456 7.19467 20.456 7.18113 20.456L6.55753 20.4528C6.5432 20.4528 6.53125 20.4416 6.53125 20.4273L6.53444 18.6712C6.53444 18.6433 6.54877 18.629 6.57744 18.6282L7.20901 18.6162H7.20981Z" fill="white"/>
<path d="M6.8148 22.1396L6.56233 22.1412C6.54163 22.1412 6.5249 22.1245 6.5249 22.1038L6.53048 20.5531C6.53048 20.5332 6.54083 20.5236 6.56074 20.5228L7.17718 20.5197C7.1931 20.5197 7.20585 20.5316 7.20664 20.5475C7.20664 20.5475 7.20664 20.5475 7.20664 20.5483L7.19948 22.1022C7.19948 22.1268 7.21222 22.1396 7.2377 22.1396H7.8191C7.85016 22.1412 7.86608 22.1253 7.86608 22.0934V20.5523C7.86608 20.5316 7.87644 20.5213 7.89715 20.5213L8.49924 20.5181C8.51995 20.5181 8.53668 20.5348 8.53668 20.5555L8.53269 22.0982C8.53269 22.1213 8.51438 22.1396 8.49128 22.1396H8.24917C8.21731 22.1396 8.19182 22.1651 8.19182 22.1961C8.19182 22.2009 8.19182 22.2049 8.19342 22.2097C8.20058 22.2407 8.20058 22.2726 8.19182 22.3052C8.18386 22.3363 8.16315 22.3522 8.1305 22.3522L6.93347 22.3546C6.90002 22.3546 6.87772 22.3387 6.86657 22.3068C6.85542 22.2742 6.85462 22.2415 6.86498 22.2073C6.87931 22.1619 6.86259 22.1396 6.8148 22.1396Z" fill="white"/>
<path d="M7.69162 23.0725V23.6133C7.69162 23.626 7.68525 23.6324 7.6733 23.6324H7.39694C7.37623 23.6324 7.35951 23.6165 7.35951 23.5957V23.0797C7.35951 23.0446 7.34119 23.0263 7.30615 23.0247L7.07518 23.0152C7.04651 23.0144 7.03218 23.0279 7.03218 23.0566L7.02979 24.2066C7.02979 24.2265 7.01943 24.2369 6.99952 24.2369L6.39424 24.2424C6.37034 24.2424 6.3584 24.2305 6.3584 24.2058V22.4839C6.3584 22.4346 6.38388 22.4099 6.43326 22.4107L6.92545 22.4138C6.99952 22.4138 7.03616 22.4521 7.03456 22.5269L7.03058 22.7746C7.03058 22.8041 7.04412 22.8184 7.07359 22.8176L7.31969 22.816C7.34995 22.816 7.36508 22.8312 7.36429 22.8614V22.9682C7.36429 22.9984 7.38818 23.0223 7.41765 23.0223C7.42004 23.0223 7.42242 23.0223 7.42561 23.0223C7.49729 23.0128 7.56817 23.0152 7.63826 23.0295C7.66295 23.0351 7.68684 23.0191 7.69241 22.9936C7.69241 22.9905 7.69321 22.9865 7.69321 22.9833L7.69162 22.8583C7.69162 22.8304 7.70436 22.8168 7.73223 22.8168L7.97833 22.8192C8.00461 22.8192 8.02612 22.7985 8.02691 22.7722C8.02691 22.7722 8.02691 22.7722 8.02691 22.7714V22.4776C8.02691 22.4338 8.04921 22.4115 8.09302 22.4115L8.63538 22.4138C8.68317 22.4138 8.70706 22.4385 8.70626 22.4855L8.6975 24.2074C8.6975 24.2313 8.67759 24.2512 8.6537 24.2512C8.6537 24.2512 8.6537 24.2512 8.6529 24.2512L8.07151 24.2424C8.03727 24.2424 8.02054 24.2249 8.02054 24.1907L8.02532 23.0725C8.02532 23.0335 8.00621 23.0152 7.96798 23.0167L7.73622 23.0271C7.70675 23.0279 7.69162 23.0438 7.69162 23.0733V23.0725Z" fill="white"/>
<path d="M8.27454 25.1162C8.22835 25.1138 8.20525 25.1353 8.20525 25.1815V25.2691C8.20525 25.3018 8.22118 25.3185 8.25383 25.3185L8.48639 25.3201C8.5278 25.3201 8.54851 25.3408 8.54851 25.3822V25.88C8.54771 25.9158 8.5294 25.9341 8.49276 25.9334L8.25782 25.9286C8.22516 25.9286 8.20923 25.9437 8.20844 25.9756V26.0807C8.20684 26.1102 8.18295 26.1341 8.15269 26.1341L6.57178 26.1293C6.55346 26.1293 6.53833 26.1141 6.53833 26.0958V24.3333C6.53833 24.3142 6.55506 24.2983 6.57497 24.2983L8.13278 24.2959C8.17578 24.2959 8.21083 24.3309 8.21083 24.3739C8.21083 24.3835 8.20923 24.3923 8.20605 24.401C8.1933 24.4377 8.20047 24.4679 8.22675 24.491C8.2387 24.5014 8.25304 24.5062 8.26976 24.5054C8.3494 24.4998 8.42745 24.499 8.50391 24.5022C8.53418 24.503 8.54931 24.5189 8.54931 24.5484V25.0597C8.54771 25.1075 8.52382 25.1298 8.47604 25.1274L8.27454 25.1162ZM7.87155 24.5293C7.87155 24.5133 7.85881 24.5006 7.84288 24.5006H7.24396C7.22804 24.5006 7.21529 24.5133 7.21529 24.5293V25.0915C7.21529 25.1075 7.22804 25.1202 7.24396 25.1202H7.84288C7.85881 25.1202 7.87155 25.1075 7.87155 25.0915V24.5293ZM7.87234 25.3504C7.87234 25.3344 7.8596 25.3209 7.84288 25.3209L7.24396 25.3185C7.22804 25.3185 7.2145 25.3313 7.2145 25.348L7.2129 25.8991C7.2129 25.915 7.22565 25.9286 7.24237 25.9286L7.84128 25.931C7.85721 25.931 7.87075 25.9182 7.87075 25.9015L7.87234 25.3504Z" fill="white"/>
<path d="M7.84292 24.5005H7.244C7.22817 24.5005 7.21533 24.5133 7.21533 24.5292V25.0914C7.21533 25.1073 7.22817 25.1201 7.244 25.1201H7.84292C7.85875 25.1201 7.87159 25.1073 7.87159 25.0914V24.5292C7.87159 24.5133 7.85875 24.5005 7.84292 24.5005Z" fill="#F50256"/>
<path d="M7.21443 25.3486L7.21251 25.8997C7.21245 25.916 7.2256 25.9292 7.24187 25.9293L7.84078 25.9314C7.85705 25.9314 7.87029 25.9183 7.87035 25.902L7.87227 25.3509C7.87233 25.3346 7.85918 25.3214 7.84291 25.3213L7.244 25.3192C7.22772 25.3192 7.21449 25.3323 7.21443 25.3486Z" fill="#F50256"/>
<circle cx="20" cy="20" r="19.5" stroke="black" stroke-opacity="0.05"/>
</svg>
