<svg width="40" height="40" viewBox="0 0 40 40" fill="none" xmlns="http://www.w3.org/2000/svg">
<circle cx="20" cy="20" r="20" fill="#E59635"/>
<path d="M11.0501 8.49994C7.90195 12.4115 7.04038 17.5737 8.85198 22.2548C10.9568 27.6944 16.2704 31.3067 22.2069 31.1043C25.761 30.9844 28.8862 29.5763 31.4818 27.1418C31.4903 27.1334 31.4964 27.1346 31.5 27.1467C31.5 27.1503 31.5 27.1552 31.5 27.1588C31.5 27.1624 31.4976 27.1661 31.4939 27.1697C28.3191 30.4985 23.8973 32.0629 19.3411 31.4121C18.5571 31.2994 17.773 31.1104 16.9902 30.8426C13.3222 29.5872 10.6321 27.2533 8.91984 23.8398C7.60749 21.2235 7.20518 18.3722 7.7117 15.2859C7.78077 14.863 7.92861 14.2862 8.154 13.5567C8.34182 12.9471 8.55025 12.3922 8.77806 11.8893C9.34274 10.6436 10.0928 9.50692 11.0283 8.48055C11.2464 8.24062 11.2537 8.24668 11.0501 8.49994Z" fill="white"/>
<path d="M17.4737 21.7823C17.3501 21.7944 17.2459 21.8586 17.115 21.8586C16.4316 21.855 15.7433 21.855 15.0514 21.8611C14.8515 21.8623 14.6551 21.8441 14.46 21.8065C14.3134 21.7775 14.1692 21.7484 14.0262 21.7205C13.6797 21.6526 13.4034 21.3533 13.2325 21.0661C13.1307 20.8941 13.0823 20.7026 13.0859 20.493C13.0944 20.0676 13.092 19.6472 13.0811 19.2315C13.0544 18.2742 13.5755 17.7338 14.5291 17.7108C15.3519 17.6902 16.2523 17.6889 17.2314 17.7071C17.8918 17.7192 18.6092 18.0416 18.6334 18.8038C18.6685 19.8762 18.6697 20.5099 18.6358 20.7063C18.5207 21.3594 18.1341 21.7181 17.4737 21.7823ZM17.3586 19.3588C17.3586 19.0425 17.1041 18.7844 16.7879 18.7832L15.0041 18.7771C14.6879 18.7771 14.4298 19.0316 14.4285 19.3479L14.4261 20.2155C14.4261 20.5318 14.6806 20.7899 14.9969 20.7911L16.7806 20.7971C17.0969 20.7971 17.355 20.5427 17.3562 20.2264L17.3598 19.3588H17.3586Z" fill="white"/>
<path d="M20.6062 18.7382H19.1836C19.0031 18.7382 18.9134 18.6485 18.9134 18.4692V17.913C18.911 17.7712 18.9825 17.6997 19.1242 17.6997H23.5642C23.6866 17.6997 23.7471 17.7603 23.7471 17.8815V18.5128C23.7484 18.6376 23.6478 18.7382 23.523 18.7382H22.0361C21.984 18.7382 21.9574 18.7649 21.9561 18.8182L21.9283 21.8125C21.9283 21.867 21.8834 21.9118 21.8289 21.9106L20.8643 21.9021C20.8183 21.9021 20.7965 21.8791 20.7977 21.8331C20.828 20.8479 20.7941 19.8433 20.6959 18.8194C20.6911 18.7649 20.6608 18.7382 20.6062 18.7382Z" fill="white"/>
<path d="M24.3481 21.4125C24.13 21.2283 24.0233 20.9447 24.0294 20.5618C24.0367 20.0759 24.0342 19.5694 24.0221 19.0435C24.0088 18.4788 24.2063 18.0825 24.714 17.8535C24.9297 17.7566 25.1563 17.7069 25.3926 17.7045C26.333 17.6936 27.2382 17.6936 28.1082 17.7045C28.8389 17.713 29.5199 18.0801 29.5648 18.8847C29.5926 19.3985 29.5975 19.9475 29.5793 20.5327C29.5684 20.8817 29.4424 21.4113 29.0885 21.5543C28.845 21.6536 28.6487 21.7736 28.3736 21.7845C28.1785 21.7918 28.021 21.8633 27.8222 21.8621C27.094 21.8584 26.3548 21.856 25.6059 21.8548C25.1151 21.8548 24.6959 21.707 24.3481 21.4125ZM28.256 19.3755C28.256 19.0483 27.9907 18.7829 27.6635 18.7829H25.904C25.5768 18.7829 25.3114 19.0483 25.3114 19.3755V20.1995C25.3114 20.5267 25.5768 20.7921 25.904 20.7921H27.6635C27.9907 20.7921 28.256 20.5267 28.256 20.1995V19.3755Z" fill="white"/>
<circle cx="20" cy="20" r="19.5" stroke="black" stroke-opacity="0.05"/>
</svg>
