<svg width="40" height="40" viewBox="0 0 40 40" fill="none" xmlns="http://www.w3.org/2000/svg">
<circle cx="20" cy="20" r="20" fill="#575656"/>
<path d="M17.1127 10.0181C17.1127 10.0181 8.28206 14.5225 7.15565 17.8411C6.02925 21.1597 11.2252 21.3582 15.4136 20.1723C19.602 18.9865 23.5147 17.9801 23.5147 17.9801C23.5147 17.9801 19.4629 17.8067 17.4882 15.3923C15.631 13.1169 17.1127 10.0181 17.1127 10.0181Z" fill="#CECECE"/>
<path d="M15.4136 20.1724L23.5147 17.9802C23.5147 17.9802 30.7056 15.6882 32.5627 18.2559C34.4199 20.8236 29.7574 25.1118 29.7574 25.1118C29.7574 25.1118 26.1025 28.5302 23.3554 30.3861C23.3554 30.3861 24.9167 26.515 22.7043 23.4721C20.5121 20.4588 15.4136 20.1724 15.4136 20.1724Z" fill="url(#paint0_linear_14382_20696)"/>
<circle cx="20" cy="20" r="19.5" stroke="black" stroke-opacity="0.05"/>
<defs>
<linearGradient id="paint0_linear_14382_20696" x1="15.4136" y1="23.7121" x2="33" y2="23.7121" gradientUnits="userSpaceOnUse">
<stop stop-color="#BF0620"/>
<stop offset="1" stop-color="#F11440"/>
</linearGradient>
</defs>
</svg>
