<svg width="40" height="40" viewBox="0 0 40 40" fill="none" xmlns="http://www.w3.org/2000/svg">
<circle cx="20" cy="20" r="20" fill="#0055B8"/>
<circle cx="20" cy="20" r="19.5" stroke="black" stroke-opacity="0.05"/>
<g clip-path="url(#clip0_14382_20465)">
<path d="M24.37 30.1236C24.3419 30.1147 24.3126 30.1101 24.2831 30.11C24.2118 30.1218 24.1417 30.1404 24.0716 30.1578C22.9015 30.4493 21.6999 30.4568 20.5323 30.2924C18.0905 29.9481 16.0196 28.8363 14.3552 26.9895C12.937 25.4174 12.0498 23.5873 11.7582 21.5003C11.3804 18.7706 11.9729 16.2538 13.6727 14.0601C15.7659 11.3583 18.5465 10.071 21.9679 10.2013C23.3712 10.2547 24.6914 10.6399 25.947 11.2634C26.4154 11.4967 26.8689 11.7541 27.3305 12.0265C27.2684 11.9024 27.1617 11.8304 27.0625 11.7479C26.3936 11.1775 25.6657 10.6802 24.8911 10.2646C22.7036 9.11935 20.384 8.77566 17.9515 9.13425C16.5672 9.33532 15.2408 9.82573 14.0586 10.5735C11.9282 11.9105 10.4331 13.7654 9.60614 16.147C9.0961 17.5834 8.90247 19.113 9.03849 20.6312C9.23018 22.6927 9.89462 24.5923 11.1193 26.286C12.1857 27.7612 13.5127 28.93 15.1269 29.7601C16.9973 30.7359 19.1101 31.1498 21.2104 30.9518C22.3109 30.8582 23.3687 30.6063 24.37 30.1236Z" fill="white"/>
<path d="M30.7382 23.5044L30.5521 23.8146C29.4155 25.7297 27.7926 27.0518 25.6442 27.6331C23.1112 28.3155 20.7041 27.9284 18.5675 26.3923C15.6673 24.3072 14.3421 21.4292 14.8881 17.893C15.4228 14.4245 17.5148 12.1762 20.8785 11.1346C20.974 11.1048 21.0869 11.1054 21.2048 10.9634C20.822 11.0155 20.505 11.0471 20.1917 11.103C19.5716 11.2135 18.9651 11.3903 18.3827 11.6303C16.64 12.3487 15.2528 13.4914 14.2348 15.0759C13.445 16.3042 13.0213 17.6585 12.8476 19.1084C12.7155 20.2158 12.834 21.3002 13.0958 22.361C13.5257 24.09 14.3986 25.5802 15.6821 26.8315C17.4682 28.5686 19.6104 29.4644 22.0863 29.5258C24.3743 29.5823 26.4067 28.8552 28.1661 27.3731C29.3951 26.3371 30.24 25.0411 30.7382 23.5044Z" fill="white"/>
<path d="M17.6624 14.144C17.2685 14.5527 16.9344 15.0149 16.6698 15.5169C15.8323 17.1709 15.6195 18.9011 15.9905 20.717C16.3677 22.557 17.3193 24.0522 18.7716 25.1986C20.5528 26.6044 22.5944 27.1373 24.8514 26.7496C26.9948 26.3836 28.6655 25.288 29.8312 23.456C30.8536 21.8492 31.1892 20.0811 30.9051 18.2057C30.8154 17.5423 30.62 16.8977 30.3263 16.2961C30.3142 16.3294 30.3061 16.364 30.3021 16.3991C30.3176 16.491 30.3362 16.5821 30.3542 16.6727C30.8821 19.3565 30.1799 21.6494 28.114 23.4603C26.6213 24.7687 24.8408 25.2749 22.878 25.0255C20.9591 24.7817 19.3796 23.8778 18.1848 22.3579C16.9266 20.7555 16.4092 18.9322 16.6958 16.9023C16.8342 15.9284 17.1626 14.9912 17.6624 14.144Z" fill="white"/>
</g>
<defs>
<clipPath id="clip0_14382_20465">
<rect width="22.0006" height="22" fill="white" transform="translate(9 9)"/>
</clipPath>
</defs>
</svg>
