<svg width="40" height="40" viewBox="0 0 40 40" fill="none" xmlns="http://www.w3.org/2000/svg">
<circle cx="20" cy="20" r="20" fill="#F6F8FA"/>
<g clip-path="url(#clip0_17752_43896)">
<path d="M22.5846 12.1424C22.4856 12.2491 22.3843 12.3496 22.2799 12.4441C22.1557 12.5569 22.0528 12.6559 21.9721 12.7405C21.7755 12.9462 21.5744 13.1519 21.3687 13.3576C19.992 14.7351 18.6716 16.063 17.4092 17.3422C16.2321 18.5353 15.5251 19.9478 15.2897 21.5805C15.228 22.0049 15.218 22.5115 15.26 23.1005C15.2645 23.1622 15.2622 23.2224 15.2531 23.2826C15.2455 23.3344 15.2493 23.3869 15.2653 23.4403C15.298 23.5538 15.3186 23.6673 15.3278 23.7816C15.3369 23.8943 15.3552 24.0079 15.3819 24.1214C15.6142 25.1172 16.0317 26.0794 16.6344 27.0089C16.4858 26.919 16.3045 26.7659 16.0896 26.5502C14.8409 25.297 13.5937 24.0429 12.3481 22.7873C11.4689 21.9013 10.8434 20.8903 10.4716 19.7543C9.69826 17.3925 10.1889 14.7602 11.7454 12.8334C12.764 11.5725 14.0539 10.7314 15.6165 10.3101C16.5353 10.0625 17.4945 10.0115 18.4941 10.157C20.0819 10.3893 21.4456 11.0506 22.5846 12.1424Z" fill="#DA3986"/>
<path d="M22.585 12.1423L23.2775 12.8227C23.2562 12.9073 23.2798 12.988 23.3491 13.0642C23.4504 13.1762 23.503 13.2356 23.5068 13.2425C24.5925 14.831 25.0115 16.581 24.7639 18.4918C24.5955 19.7893 24.1011 20.9618 23.2805 22.0109C23.0558 22.2981 22.7145 22.6715 22.2558 23.1316C20.6627 24.7316 19.0727 26.3315 17.4842 27.9322C17.1581 27.6457 16.8747 27.3379 16.6347 27.0088C16.0321 26.0793 15.6146 25.1171 15.3822 24.1213C15.3555 24.0078 15.3372 23.8943 15.3281 23.7815C15.3189 23.6672 15.2984 23.5537 15.2656 23.4402C15.2496 23.3869 15.2458 23.3343 15.2534 23.2825C15.2626 23.2223 15.2649 23.1621 15.2603 23.1004C15.2184 22.5115 15.2283 22.0048 15.29 21.5805C15.5254 19.9478 16.2324 18.5352 17.4095 17.3421C18.672 16.0629 19.9923 14.735 21.369 13.3575C21.5747 13.1518 21.7758 12.9461 21.9724 12.7404C22.0532 12.6558 22.156 12.5568 22.2802 12.444C22.3846 12.3496 22.4859 12.249 22.585 12.1423Z" fill="#4D3882"/>
<path d="M23.2772 12.8228C24.663 14.1957 26.0375 15.5724 27.4012 16.9529C27.8561 17.4131 28.1905 17.7788 28.4039 18.0507C29.2335 19.1098 29.7333 20.3234 29.9017 21.6917C30.4579 26.2081 26.8321 30.2019 22.2631 30.0023C20.5192 29.9261 18.7356 29.2061 17.4839 27.9323C19.0724 26.3316 20.6624 24.7316 22.2555 23.1317C22.7142 22.6715 23.0555 22.2982 23.2802 22.011C24.1008 20.9619 24.5952 19.7893 24.7636 18.4919C25.0112 16.5811 24.5922 14.8311 23.5065 13.2425C23.5027 13.2357 23.4501 13.1763 23.3488 13.0643C23.2795 12.9881 23.2559 12.9073 23.2772 12.8228Z" fill="#00B0DD"/>
</g>
<circle cx="20" cy="20" r="19.5" stroke="black" stroke-opacity="0.05"/>
<defs>
<clipPath id="clip0_17752_43896">
<rect width="20" height="20.0861" fill="white" transform="translate(10.0352 10)"/>
</clipPath>
</defs>
</svg>
