<svg width="40" height="40" viewBox="0 0 40 40" fill="none" xmlns="http://www.w3.org/2000/svg">
<circle cx="20" cy="20" r="20" fill="#F0582A"/>
<path d="M6.07167 22.0678H5V17.8954H6.07167V22.0678ZM7.65127 22.0678H6.62294V17.8954H7.54412L9.18412 20.5913L9.13843 17.8954H10.167V22.0678H9.23422L7.60637 19.6024L7.65127 22.0678ZM11.8328 22.0678H10.8055V17.8954H11.7255L13.3656 20.5913L13.3212 17.8954H14.3496V22.0678H13.4164L11.7883 19.6024L11.8328 22.0678ZM17.0068 22.1491C16.3838 22.1491 15.8608 22.0101 15.4378 21.5945C15.0126 21.1801 14.8003 20.6692 14.8003 20.0597C14.8003 19.4428 15.0113 18.926 15.4341 18.5084C15.8563 18.093 16.3808 17.884 17.0069 17.884C17.6339 17.884 18.1624 18.0938 18.5935 18.5115C19.0244 18.9308 19.2398 19.4447 19.2398 20.054C19.2398 20.6627 19.0243 21.1759 18.5935 21.5917C18.1623 22.0086 17.6338 22.1491 17.0068 22.1491ZM17.0201 18.8282C16.6911 18.8282 16.4179 18.9442 16.1996 19.1765C15.9811 19.4096 15.8721 19.6972 15.8721 20.0415C15.8721 20.3934 15.9821 20.6879 16.2035 20.9201C16.4245 21.1559 16.7002 21.2721 17.0327 21.2721C17.3516 21.2721 17.6207 21.1559 17.8403 20.9201C18.0588 20.6878 18.1675 20.3995 18.1675 20.0597C18.1675 19.7114 18.0575 19.4195 17.8365 19.1834C17.6157 18.946 17.3438 18.8282 17.0201 18.8282ZM21.8003 21.2721C22.2504 21.2721 22.5882 21.0417 22.8148 20.5788H23.9375C23.8202 21.071 23.5639 21.4668 23.171 21.7672C22.7776 22.0665 22.325 22.1491 21.8125 22.1491C21.1942 22.1491 20.6709 22.0062 20.2432 21.5851C19.8138 21.1647 19.5991 20.6497 19.5991 20.0415C19.5991 19.4372 19.8118 18.926 20.2361 18.5084C20.6608 18.093 21.1826 17.884 21.8005 17.884C22.6161 17.884 23.2384 18.2197 23.6665 18.8908C23.8136 19.1198 23.9045 19.3408 23.9376 19.5532H22.815C22.7319 19.3306 22.598 19.154 22.4145 19.0235C22.2322 18.8937 22.0244 18.8282 21.7941 18.8282C21.4747 18.8282 21.2068 18.9442 20.9922 19.1765C20.7776 19.4096 20.671 19.6972 20.671 20.0415C20.671 20.3895 20.7789 20.6827 20.9961 20.9171C21.2131 21.1543 21.4804 21.2721 21.8003 21.2721ZM26.6694 22.0678H24.3369V17.8954H26.6694V18.8862H25.3641V19.5252H26.6325V20.4801H25.3641V21.1576H26.6694V22.0678ZM29.9544 22.0678L29.7524 21.5296H28.2909L28.0699 22.0678H26.9158L28.5996 17.8954H29.4514L31.1213 22.0678H29.9544ZM29.028 19.2594L28.5868 20.6853H29.463L29.028 19.2594ZM32.4837 22.0678H31.4553V17.8954H32.3765L34.0165 20.5913L33.9721 17.8954H35V22.0678H34.0674L32.4406 19.6024L32.4837 22.0678Z" fill="white"/>
<circle cx="20" cy="20" r="19.5" stroke="black" stroke-opacity="0.05"/>
</svg>
