<svg width="40" height="40" viewBox="0 0 40 40" fill="none" xmlns="http://www.w3.org/2000/svg">
<circle cx="20" cy="20" r="20" fill="#3DAE2B"/>
<path d="M26.4526 11.8323C24.9397 11.4798 23.3726 11.4264 21.8393 11.6751C21.3911 11.5264 20.9216 11.4518 20.4494 11.4544H15.0474C15.0094 11.452 14.9713 11.452 14.9333 11.4544C14.7961 11.4692 14.6668 11.5257 14.5629 11.6165C14.459 11.7072 14.3855 11.8277 14.3525 11.9617L13.551 15.2891C12.5884 16.0494 11.7245 16.927 10.9794 17.9014C7.42871 22.6212 8.84644 27.3258 13.7032 28.5153C18.4864 29.6845 25.3696 27.1077 29.0242 22.469C32.5064 18.0662 31.2231 13.0421 26.4526 11.8323Z" fill="white"/>
<path d="M23.1073 13.2247C22.7862 12.8362 22.3803 12.5266 21.9209 12.3195C21.4615 12.1124 20.9607 12.0134 20.457 12.0301H14.9357L11.5398 26.2327H13.5155C14.0245 26.2087 14.5127 26.0239 14.9101 25.7049C15.3075 25.3859 15.5935 24.9491 15.727 24.4574L16.6908 20.3995H18.4991C20.7968 20.3995 23.1098 18.5303 23.6576 16.2351C23.8016 15.7246 23.8269 15.1879 23.7315 14.6661C23.6361 14.1443 23.4226 13.6512 23.1073 13.2247ZM20.5432 16.2047C20.2896 17.313 19.2269 18.0561 17.9233 18.0561H17.1092L18.0349 14.1199H18.8972C19.1578 14.1036 19.4185 14.1507 19.6569 14.2571C19.8954 14.3636 20.1044 14.5263 20.2662 14.7312C20.428 14.9361 20.5378 15.1772 20.586 15.4339C20.6342 15.6905 20.6196 15.955 20.5432 16.2047Z" fill="#3DAE2B"/>
<path d="M26.4043 23.3666C26.4161 22.9408 26.2819 22.5238 26.0239 22.1848C26.7699 21.6601 27.3076 20.8898 27.5431 20.0087C27.6439 19.6513 27.6609 19.2754 27.5927 18.9103C27.5245 18.5452 27.373 18.2007 27.15 17.9037C26.9261 17.631 26.6424 17.4134 26.3209 17.2678C25.9994 17.1222 25.6488 17.0526 25.296 17.0642H23.995C23.3696 18.5919 22.1797 19.8199 20.6726 20.4932L19.3335 26.1184H20.7614C21.1233 26.1004 21.4702 25.9679 21.7519 25.74C22.0336 25.5121 22.2356 25.2005 22.3287 24.8503L22.7954 22.8873H23.1657H23.2341C23.3448 22.8944 23.4541 22.9166 23.5588 22.9532H23.5765C23.6099 22.9667 23.6421 22.9829 23.6729 23.0014C23.698 23.0199 23.721 23.0412 23.7414 23.0648C23.7414 23.0648 23.7414 23.0648 23.7566 23.0775C23.8682 23.2474 23.8758 23.4351 23.891 23.8916C23.9368 24.5189 24.0691 25.1368 24.2841 25.7278C25.0888 25.2456 25.8523 24.6976 26.5667 24.0894C26.4529 23.8659 26.3971 23.6174 26.4043 23.3666ZM25.2631 19.9631C25.0703 20.7696 24.2816 21.0587 23.6044 21.0587H23.158L23.7211 18.6494H24.2283C24.3924 18.6391 24.5565 18.6688 24.7065 18.736C24.8565 18.8032 24.988 18.9058 25.0895 19.0351C25.1911 19.1643 25.2597 19.3163 25.2895 19.478C25.3193 19.6396 25.3093 19.8061 25.2605 19.9631H25.2631Z" fill="#3DAE2B"/>
<path d="M27.4619 14.3203V12.8848C27.4631 12.8705 27.4631 12.856 27.4619 12.8417C27.09 12.6679 26.7028 12.5287 26.3054 12.4258L26.1507 12.4004V14.3279H24.241C24.3299 14.71 24.3649 15.1027 24.3449 15.4945C24.4557 15.5763 24.5879 15.6239 24.7254 15.6315H26.1507V16.7905C26.5879 16.9126 26.985 17.148 27.3021 17.4727C27.3976 17.3572 27.4536 17.2141 27.4619 17.0644V15.6239H28.8974C29.0788 15.6135 29.2495 15.5342 29.3744 15.4022C29.4993 15.2702 29.5691 15.0955 29.5695 14.9137V14.3203H27.4619Z" fill="#3DAE2B"/>
<circle cx="20" cy="20" r="19.5" stroke="black" stroke-opacity="0.05"/>
</svg>
