<svg width="40" height="40" viewBox="0 0 40 40" fill="none" xmlns="http://www.w3.org/2000/svg">
<circle cx="20" cy="20" r="20" fill="#F6F8FA"/>
<path d="M8.59523 20.7854C8.59022 20.7694 8.58372 20.7539 8.57571 20.7389C8.3025 20.2039 8.28924 19.651 8.53593 19.0801C8.55244 19.0425 8.56971 19.0058 8.58772 18.9697C8.65377 18.8381 8.74409 18.7113 8.85868 18.5892C9.44789 17.958 10.3396 17.8349 11.0924 18.2154C11.4182 18.38 11.6764 18.642 11.867 19.0013C12.2153 19.655 12.1312 20.4634 11.6794 21.0391C11.1517 21.7109 10.2503 21.9278 9.46065 21.5825C9.11388 21.4309 8.84667 21.181 8.63501 20.8672C8.618 20.8417 8.60474 20.8144 8.59523 20.7854ZM9.39685 20.5294C9.66556 20.8477 10.0626 20.9881 10.4694 20.8897C11.2958 20.6908 11.5157 19.67 10.9295 19.0921C10.7719 18.9365 10.579 18.8504 10.3508 18.8339C9.93651 18.8039 9.60576 18.9465 9.35857 19.2617C9.265 19.3808 9.20995 19.5279 9.19344 19.7031C9.17893 19.8612 9.19069 20.0201 9.22872 20.1797C9.26274 20.3203 9.31879 20.4369 9.39685 20.5294Z" fill="black"/>
<path d="M28.4928 19.8719C28.4928 20.368 28.2958 20.8437 27.945 21.1945C27.5942 21.5453 27.1185 21.7424 26.6224 21.7424C26.1263 21.7424 25.6506 21.5453 25.2998 21.1945C24.949 20.8437 24.752 20.368 24.752 19.8719C24.752 19.3758 24.949 18.9001 25.2998 18.5493C25.6506 18.1985 26.1263 18.0015 26.6224 18.0015C27.1185 18.0015 27.5942 18.1985 27.945 18.5493C28.2958 18.9001 28.4928 19.3758 28.4928 19.8719ZM27.6725 19.8719C27.6725 19.5932 27.5618 19.3259 27.3647 19.1289C27.1676 18.9318 26.9003 18.8211 26.6216 18.8211C26.343 18.8211 26.0757 18.9318 25.8786 19.1289C25.6815 19.3259 25.5708 19.5932 25.5708 19.8719C25.5708 20.1506 25.6815 20.4179 25.8786 20.6149C26.0757 20.812 26.343 20.9227 26.6216 20.9227C26.9003 20.9227 27.1676 20.812 27.3647 20.6149C27.5618 20.4179 27.6725 20.1506 27.6725 19.8719Z" fill="black"/>
<path d="M6.93425 18.8286V21.6598C6.93425 21.6633 6.93357 21.6667 6.93225 21.6699C6.93093 21.6731 6.92899 21.676 6.92655 21.6784C6.92411 21.6808 6.92122 21.6828 6.91803 21.6841C6.91484 21.6854 6.91143 21.6861 6.90798 21.6861H6.16565C6.1622 21.6861 6.15879 21.6854 6.1556 21.6841C6.15241 21.6828 6.14951 21.6808 6.14708 21.6784C6.14464 21.676 6.1427 21.6731 6.14138 21.6699C6.14006 21.6667 6.13938 21.6633 6.13938 21.6598V18.8286C6.13938 18.8252 6.1387 18.8218 6.13738 18.8186C6.13606 18.8154 6.13413 18.8125 6.13169 18.8101C6.12925 18.8076 6.12635 18.8057 6.12316 18.8044C6.11998 18.803 6.11656 18.8024 6.11311 18.8024H5.02627C5.0193 18.8024 5.01262 18.7996 5.00769 18.7947C5.00277 18.7897 5 18.7831 5 18.7761V18.0833C5 18.0763 5.00277 18.0697 5.00769 18.0647C5.01262 18.0598 5.0193 18.057 5.02627 18.057L8.04886 18.0578C8.05231 18.0578 8.05572 18.0585 8.05891 18.0598C8.0621 18.0611 8.06499 18.063 8.06743 18.0655C8.06987 18.0679 8.07181 18.0708 8.07313 18.074C8.07445 18.0772 8.07513 18.0806 8.07513 18.0841V18.7753C8.07513 18.7823 8.07236 18.789 8.06743 18.7939C8.06251 18.7988 8.05583 18.8016 8.04886 18.8016L6.96052 18.8024C6.95355 18.8024 6.94687 18.8051 6.94194 18.8101C6.93701 18.815 6.93425 18.8217 6.93425 18.8286Z" fill="black"/>
<path d="M12.6466 18.3625C12.6426 18.2764 12.6486 18.1883 12.6646 18.0983C12.6696 18.0707 12.6861 18.057 12.7141 18.057L13.3116 18.0577C13.3375 18.0577 13.363 18.0637 13.3862 18.0751C13.4094 18.0866 13.4296 18.1032 13.4452 18.1238L15.0327 20.2224C15.0652 20.2659 15.0815 20.2604 15.0815 20.2059L15.0792 18.1088C15.0792 18.0732 15.097 18.0557 15.1325 18.0562L15.8133 18.0577C15.8493 18.0582 15.8673 18.0765 15.8673 18.1125L15.8651 21.6327C15.8651 21.6683 15.8473 21.686 15.8118 21.686L15.2391 21.6868C15.2036 21.6873 15.1748 21.673 15.1528 21.644L13.4865 19.441C13.458 19.4035 13.4437 19.4085 13.4437 19.4561L13.443 21.653C13.443 21.6622 13.4393 21.6709 13.4328 21.6774C13.4264 21.6839 13.4176 21.6875 13.4084 21.6875L12.6856 21.6845C12.6813 21.6845 12.677 21.6837 12.673 21.682C12.669 21.6804 12.6653 21.6779 12.6623 21.6749C12.6592 21.6718 12.6568 21.6681 12.6551 21.6641C12.6535 21.6601 12.6526 21.6558 12.6526 21.6515C12.6371 20.6783 12.6396 19.681 12.6601 18.6597C12.6601 18.6507 12.6556 18.5516 12.6466 18.3625Z" fill="black"/>
<path d="M18.1725 19.3495C18.2075 19.405 18.2423 19.405 18.2768 19.3495L19.0731 18.0907C19.0798 18.0802 19.089 18.0715 19.1001 18.0654C19.1111 18.0594 19.1235 18.0562 19.1362 18.0562L19.9468 18.0585C19.9523 18.0584 19.9577 18.0598 19.9624 18.0625C19.9671 18.0653 19.971 18.0693 19.9736 18.074C19.9762 18.0788 19.9775 18.0842 19.9773 18.0897C19.9771 18.0952 19.9753 18.1004 19.9723 18.105L18.6363 20.1301C18.6221 20.1516 18.6146 20.1772 18.6145 20.2036L18.6153 21.6567C18.6153 21.6653 18.6119 21.6735 18.6058 21.6796C18.5998 21.6856 18.5916 21.689 18.583 21.689L17.873 21.683C17.858 21.6828 17.8437 21.6767 17.8331 21.666C17.8226 21.6554 17.8167 21.641 17.8167 21.626C17.8202 21.1606 17.8209 20.717 17.8189 20.2952C17.8189 20.2046 17.7882 20.1133 17.7266 20.0212C17.2928 19.3732 16.8714 18.7302 16.4626 18.0922C16.4604 18.0888 16.4591 18.0847 16.459 18.0806C16.4589 18.0764 16.4599 18.0723 16.462 18.0686C16.464 18.0649 16.4671 18.0618 16.4707 18.0597C16.4744 18.0575 16.4786 18.0563 16.4829 18.0562L17.3258 18.0585C17.3548 18.0585 17.3771 18.0707 17.3926 18.0952L18.1725 19.3495Z" fill="black"/>
<path d="M22.9878 19.8584C22.9813 19.8719 22.9735 19.8844 22.9645 19.8959C22.7754 20.1311 22.5887 20.3723 22.4046 20.6194C22.4018 20.6232 22.3983 20.6263 22.3941 20.6285C22.39 20.6306 22.3854 20.6318 22.3808 20.6318C22.3761 20.6319 22.3715 20.6309 22.3673 20.6289C22.3631 20.6269 22.3594 20.6239 22.3565 20.6202L21.4266 19.423C21.384 19.3685 21.3628 19.3757 21.3628 19.4448L21.3635 21.6515C21.3635 21.675 21.3518 21.6868 21.3283 21.6868H20.6107C20.6015 21.6868 20.5928 21.6832 20.5863 21.6769C20.5798 21.6705 20.5762 21.662 20.5762 21.653L20.5769 18.0907C20.5769 18.0677 20.5882 18.0562 20.6107 18.0562L21.3898 18.0585C21.4213 18.0585 21.4463 18.0712 21.4649 18.0967L22.3483 19.3224C22.352 19.3276 22.3568 19.3317 22.3624 19.3346C22.368 19.3375 22.3743 19.339 22.3806 19.339C22.3869 19.339 22.3931 19.3375 22.3987 19.3346C22.4043 19.3317 22.4092 19.3276 22.4128 19.3224L23.2903 18.102C23.3118 18.072 23.3411 18.057 23.3781 18.057H24.1242C24.1597 18.057 24.1775 18.075 24.1775 18.111V21.6522C24.1775 21.6569 24.1765 21.6615 24.1748 21.6657C24.173 21.67 24.1704 21.6739 24.1671 21.6772C24.1638 21.6805 24.16 21.6831 24.1557 21.6848C24.1514 21.6866 24.1468 21.6875 24.1422 21.6875L23.4351 21.6845C23.4287 21.6844 23.4224 21.6831 23.4165 21.6805C23.4106 21.678 23.4053 21.6743 23.4009 21.6697C23.3964 21.6651 23.3929 21.6597 23.3905 21.6537C23.3882 21.6478 23.387 21.6414 23.3871 21.635C23.3906 21.0866 23.3891 20.5066 23.3826 19.8951C23.3811 19.7278 23.4231 19.5776 23.3736 19.4095C23.3724 19.4056 23.3701 19.4021 23.3671 19.3994C23.3641 19.3967 23.3603 19.3948 23.3563 19.394C23.3523 19.3933 23.3482 19.3936 23.3443 19.395C23.3405 19.3964 23.3371 19.3988 23.3346 19.402L23.0141 19.8171C23.004 19.8301 22.9953 19.8438 22.9878 19.8584Z" fill="black"/>
<path d="M29.8848 20.9572H31.6239C31.6268 20.9572 31.6297 20.9578 31.6325 20.9589C31.6352 20.9601 31.6377 20.9617 31.6398 20.9638C31.6419 20.9659 31.6435 20.9684 31.6447 20.9711C31.6458 20.9738 31.6464 20.9768 31.6464 20.9797L31.6456 21.6643C31.6456 21.6672 31.645 21.6701 31.6439 21.6729C31.6428 21.6756 31.6411 21.6781 31.639 21.6802C31.6369 21.6823 31.6345 21.6839 31.6317 21.6851C31.629 21.6862 31.6261 21.6868 31.6231 21.6868H29.0801C29.0742 21.6868 29.0684 21.6844 29.0642 21.6802C29.06 21.676 29.0576 21.6702 29.0576 21.6643V18.0787C29.0576 18.0728 29.06 18.067 29.0642 18.0628C29.0684 18.0586 29.0742 18.0562 29.0801 18.0562L29.8397 18.0577C29.8427 18.0577 29.8456 18.0583 29.8483 18.0594C29.8511 18.0606 29.8536 18.0622 29.8556 18.0643C29.8577 18.0664 29.8594 18.0689 29.8605 18.0716C29.8617 18.0743 29.8622 18.0773 29.8622 18.0802V20.9347C29.8622 20.9407 29.8646 20.9464 29.8688 20.9506C29.8731 20.9548 29.8788 20.9572 29.8848 20.9572Z" fill="black"/>
<path d="M33.2882 19.3668L34.1078 18.0773C34.1115 18.0711 34.1167 18.066 34.123 18.0624C34.1294 18.0589 34.1365 18.057 34.1438 18.057H34.9687C34.9743 18.057 34.9798 18.0585 34.9846 18.0614C34.9894 18.0643 34.9933 18.0684 34.9959 18.0734C34.9986 18.0783 34.9998 18.0839 34.9995 18.0895C34.9992 18.095 34.9974 18.1004 34.9942 18.1051L33.6702 20.1136C33.6555 20.1357 33.6477 20.1615 33.6477 20.1879L33.6469 21.6358C33.6469 21.6491 33.6416 21.6619 33.6322 21.6714C33.6228 21.6808 33.61 21.6861 33.5967 21.6861H32.9009C32.8663 21.6861 32.8491 21.6688 32.8491 21.6343V20.2247C32.8491 20.1982 32.8418 20.1737 32.8273 20.1512L31.4875 18.1036C31.4845 18.0991 31.4827 18.0939 31.4825 18.0886C31.4822 18.0832 31.4834 18.0779 31.4859 18.0731C31.4885 18.0684 31.4923 18.0645 31.497 18.0618C31.5016 18.0591 31.5069 18.0577 31.5123 18.0578L32.3507 18.057C32.3792 18.057 32.4007 18.069 32.4152 18.0931C32.6674 18.5014 32.9274 18.9185 33.1951 19.3443C33.2041 19.3588 33.2156 19.3706 33.2296 19.3796C33.2531 19.3951 33.2727 19.3908 33.2882 19.3668Z" fill="black"/>
<path d="M26.6221 20.9227C27.2024 20.9227 27.6729 20.4523 27.6729 19.8719C27.6729 19.2916 27.2024 18.8211 26.6221 18.8211C26.0418 18.8211 25.5713 19.2916 25.5713 19.8719C25.5713 20.4523 26.0418 20.9227 26.6221 20.9227Z" fill="white"/>
<path d="M10.4695 20.8897C10.0627 20.988 9.66563 20.8477 9.39692 20.5294C9.31886 20.4369 9.26281 20.3203 9.22879 20.1797C9.19076 20.02 9.179 19.8612 9.19351 19.703C9.21002 19.5279 9.26507 19.3808 9.35864 19.2617C9.60583 18.9465 9.93659 18.8038 10.3509 18.8339C10.5791 18.8504 10.772 18.9365 10.9296 19.0921C11.5158 19.67 11.2959 20.6908 10.4695 20.8897Z" fill="white"/>
<circle cx="20" cy="20" r="19.5" stroke="black" stroke-opacity="0.05"/>
</svg>
