<svg width="40" height="40" viewBox="0 0 40 40" fill="none" xmlns="http://www.w3.org/2000/svg">
<circle cx="20" cy="20" r="20" fill="#1A3F62"/>
<path d="M32.9821 18.7685C33.026 18.7598 33.03 18.742 32.9939 18.7154C32.5846 18.4138 32.1334 18.1736 31.6546 18.0024C31.0258 17.7768 30.3723 17.6269 29.708 17.5559C29.1046 17.4868 28.4973 17.4574 27.8901 17.468C26.8086 17.49 25.7302 17.5903 24.6632 17.7679C24.403 17.8112 24.1429 17.8563 23.8828 17.9033C23.3084 18.0069 22.7307 18.1375 22.1497 18.2951C22.1484 18.2956 22.1471 18.2958 22.1458 18.2957C22.1444 18.2957 22.1431 18.2953 22.142 18.2946C22.1408 18.294 22.1398 18.2931 22.139 18.292C22.1382 18.2909 22.1376 18.2897 22.1374 18.2884C22.1369 18.2871 22.1367 18.2858 22.1367 18.2845C22.1368 18.2831 22.1371 18.2818 22.1377 18.2806C22.1383 18.2794 22.1392 18.2784 22.1402 18.2775C22.1412 18.2767 22.1424 18.2761 22.1437 18.2757C22.2388 18.2405 22.3374 18.2068 22.44 18.1739C24.1117 17.6419 25.8468 17.2097 27.5328 17.0326C28.2317 16.9605 28.9347 16.934 29.6371 16.9534C30.077 16.9654 30.5157 17.0064 30.9503 17.0762C32.3158 17.2921 33.7114 17.8388 34.628 18.8984C34.744 19.0301 34.8376 19.1798 34.9053 19.3417C35.1077 19.8349 34.9517 20.3978 34.7512 20.8704C34.6141 21.1926 34.3992 21.4757 34.1257 21.6943C33.8521 21.9128 33.5286 22.06 33.1841 22.1226C32.8495 22.1819 32.5068 22.1785 32.1735 22.1123C31.7484 22.0299 31.4719 21.7932 31.344 21.402C31.2252 21.0356 31.3155 20.5991 31.4328 20.2445C31.6685 19.5291 32.2377 18.9155 32.9821 18.7685ZM33.7312 20.7623C33.8334 20.5312 33.9001 20.286 33.9292 20.035C33.951 19.8155 33.8666 19.602 33.6488 19.52C33.2859 19.3825 32.8925 19.5596 32.6794 19.8714C32.5183 20.1059 32.4145 20.4096 32.368 20.7825C32.3284 21.1026 32.479 21.3581 32.8299 21.3767C33.2772 21.3993 33.5648 21.1548 33.7312 20.7623Z" fill="white"/>
<path d="M9.17468 19.9559C9.13507 19.965 9.13269 19.9753 9.17468 19.9875C9.35347 20.0404 9.48209 20.1259 9.56052 20.2442C9.67471 20.4089 9.76053 20.5916 9.81445 20.7846C9.92853 21.2459 10.0474 21.7265 10.171 22.2261C10.1713 22.2273 10.1713 22.2285 10.1711 22.2297C10.171 22.2309 10.1705 22.232 10.1699 22.2331C10.1693 22.2341 10.1685 22.235 10.1675 22.2357C10.1665 22.2364 10.1654 22.2369 10.1642 22.2372H8.35943C8.35424 22.2371 8.34922 22.2353 8.34514 22.2321C8.34106 22.2289 8.33815 22.2244 8.33685 22.2194C8.18764 21.6545 8.03156 21.086 7.86862 20.514C7.77988 20.2034 7.55171 20.1321 7.26649 20.1472C7.25996 20.1472 7.25363 20.1494 7.24857 20.1535C7.24351 20.1576 7.24004 20.1634 7.23876 20.1698L6.68694 22.2024C6.68485 22.2128 6.67904 22.2221 6.67058 22.2286C6.66213 22.2351 6.65161 22.2383 6.64098 22.2376H5.07307C5.06729 22.2376 5.06175 22.2353 5.05766 22.2312C5.05358 22.2271 5.05128 22.2216 5.05128 22.2158C5.05109 22.214 5.05109 22.2121 5.05128 22.2103L5.87287 19.1889C5.87382 19.1853 5.87593 19.1821 5.87886 19.1799C5.88179 19.1776 5.88539 19.1763 5.88911 19.1763C6.66792 19.1784 7.40738 19.1784 8.10749 19.1763C8.24432 19.1727 8.38052 19.1564 8.51432 19.1275C8.6667 19.0974 8.78237 19.0507 8.86134 18.9873C9.03802 18.8459 9.17825 18.5694 9.08555 18.3428C9.01623 18.1732 8.75478 18.1423 8.59632 18.1419C7.4433 18.1388 6.25264 18.1372 5.02434 18.1372C5.00375 18.1372 4.99622 18.1273 5.00176 18.1075L5.27193 17.1124C5.27346 17.1048 5.27773 17.098 5.28394 17.0933C5.29015 17.0886 5.29786 17.0864 5.3056 17.087H9.23054C9.50079 17.0869 9.77049 17.1114 10.0363 17.1603C10.8682 17.3148 10.9601 18.1201 10.6701 18.7746C10.3952 19.3993 9.85564 19.8101 9.17468 19.9559Z" fill="white"/>
<path d="M30.6714 20.3156C30.7722 20.3341 30.8646 20.3837 30.9356 20.4575C31.0067 20.5312 31.0528 20.6254 31.0676 20.7268C31.0971 20.9381 31.066 21.1535 30.978 21.3479C30.8228 21.6902 30.509 22.0075 30.1248 22.0851C29.9242 22.1273 29.7201 22.1505 29.5151 22.1545C28.9999 22.16 28.4528 22.1609 27.8739 22.1572C27.8634 22.1572 27.8533 22.1531 27.8459 22.1456C27.8385 22.1382 27.8343 22.1281 27.8343 22.1176C27.8339 22.1143 27.8339 22.111 27.8343 22.1077L28.7624 18.6879C28.7645 18.6804 28.7689 18.6738 28.7751 18.6692C28.7812 18.6645 28.7888 18.662 28.7965 18.6621H30.633C30.743 18.6624 30.8525 18.6779 30.9582 18.7081C31.2847 18.7984 31.4083 19.1157 31.3516 19.4405C31.3077 19.6924 31.1796 19.922 30.9883 20.0918C30.8949 20.1773 30.778 20.2253 30.6655 20.2815C30.6358 20.297 30.6374 20.3085 30.6714 20.3156ZM29.5789 19.3997L29.4145 19.9987C29.4129 20.0037 29.4133 20.0092 29.4156 20.014C29.418 20.0187 29.4221 20.0223 29.4272 20.024H29.4315C29.5871 20.0301 29.7402 20.0287 29.891 20.0197C30.1205 20.0065 30.2629 19.8974 30.3181 19.6925C30.366 19.5146 30.2852 19.3839 30.0962 19.3783C29.9309 19.3738 29.7685 19.3723 29.609 19.3736C29.6018 19.3738 29.5949 19.3765 29.5894 19.3812C29.5839 19.3858 29.5802 19.3923 29.5789 19.3993V19.3997ZM29.8043 21.3491C30.0816 21.2327 30.2876 20.7153 29.7924 20.705C29.6134 20.7008 29.4352 20.7008 29.258 20.705C29.2475 20.7044 29.2372 20.7077 29.229 20.7142C29.2208 20.7207 29.2152 20.7299 29.2133 20.7403L29.0449 21.3673C29.0432 21.3737 29.0441 21.3805 29.0473 21.3862C29.0506 21.3919 29.056 21.3961 29.0623 21.3978H29.0687C29.2271 21.3978 29.3848 21.3968 29.5416 21.3947C29.6313 21.3962 29.7205 21.3806 29.8043 21.3487V21.3491Z" fill="white"/>
<path d="M23.4507 20.6543C23.5012 20.6799 23.5478 20.7124 23.5894 20.7509C23.6789 20.8373 23.7522 21.0239 23.7767 21.1443C23.838 21.4472 23.9059 21.7752 23.9803 22.1283C23.9859 22.1549 23.9752 22.1679 23.9483 22.1679L22.8894 22.1656C22.883 22.1662 22.8767 22.1643 22.8717 22.1603C22.8667 22.1563 22.8635 22.1505 22.8628 22.1442C22.7749 21.7375 22.6873 21.3485 22.6002 20.9771C22.5918 20.9338 22.573 20.8931 22.5454 20.8586C22.5178 20.824 22.4822 20.7968 22.4417 20.7791C22.3784 20.7506 22.3229 20.7636 22.2595 20.7517C22.2562 20.7507 22.2528 20.7505 22.2494 20.7509C22.246 20.7514 22.2427 20.7526 22.2398 20.7544C22.2369 20.7563 22.2344 20.7587 22.2326 20.7616C22.2307 20.7645 22.2295 20.7677 22.229 20.7712C22.1118 21.2019 21.9961 21.6421 21.882 22.0919C21.8787 22.1063 21.877 22.121 21.8768 22.1358C21.8767 22.1442 21.8734 22.1521 21.8674 22.158C21.8615 22.1639 21.8535 22.1671 21.8452 22.1671L20.892 22.1691C20.8695 22.1691 20.8611 22.158 20.8671 22.1362L21.7849 18.7085C21.787 18.7013 21.7912 18.695 21.797 18.6905C21.8029 18.6859 21.81 18.6833 21.8174 18.6831C22.4248 18.6805 23.0218 18.6814 23.6084 18.6859C23.7634 18.688 23.9174 18.7117 24.0659 18.7564C24.2605 18.814 24.3811 18.9509 24.4276 19.1672C24.5068 19.5439 24.3281 19.9785 24.0798 20.2451C23.9123 20.4253 23.6952 20.5517 23.4559 20.6083C23.4143 20.6186 23.4123 20.6329 23.4507 20.6543ZM22.5923 19.4215L22.4188 20.0625C22.4152 20.0763 22.4188 20.0835 22.4346 20.0846C22.6131 20.0985 22.7926 20.0939 22.9702 20.0712C23.0837 20.0618 23.1905 20.0133 23.2724 19.9341C23.3138 19.8915 23.3462 19.8412 23.368 19.786C23.3897 19.7307 23.4003 19.6718 23.3992 19.6124C23.3992 19.429 23.2253 19.3989 23.0823 19.3973C22.9393 19.3958 22.782 19.3973 22.6236 19.3973C22.6163 19.3969 22.6091 19.3991 22.6034 19.4036C22.5976 19.408 22.5937 19.4144 22.5923 19.4215Z" fill="white"/>
<path d="M24.3862 20.907C24.4258 20.4447 24.5894 19.9531 24.8695 19.5704C25.3995 18.8455 26.2679 18.5773 27.1481 18.7227C27.812 18.8324 28.1662 19.3169 28.0901 19.9852C27.9713 21.0357 27.3311 21.9488 26.2453 22.1243C25.8514 22.1943 25.4465 22.1703 25.0636 22.0542C24.5756 21.9005 24.3466 21.3883 24.3862 20.907ZM26.8189 20.7762C26.9726 20.4146 27.2598 19.5878 26.6288 19.4872C26.5184 19.4685 26.4054 19.4726 26.2967 19.4993C26.188 19.526 26.086 19.5748 25.9969 19.6425C25.6713 19.8802 25.5216 20.3369 25.4705 20.7386C25.4352 21.0052 25.4994 21.2885 25.7874 21.357C25.9323 21.3901 26.0831 21.3866 26.2263 21.3467C26.5036 21.2714 26.7052 21.0428 26.8189 20.7762Z" fill="white"/>
<path d="M16.7293 20.387C17.0502 20.4975 17.1904 20.7241 17.15 21.0604C17.0961 21.5116 16.7669 21.9941 16.3355 22.13C16.0911 22.2092 15.7809 22.2365 15.5207 22.2365H13.9203C13.9162 22.2365 13.9123 22.235 13.9094 22.2322C13.9064 22.2294 13.9046 22.2255 13.9044 22.2215C13.9042 22.2199 13.9042 22.2183 13.9044 22.2167L14.8413 18.7656C14.8422 18.7612 14.8447 18.7572 14.8483 18.7545C14.8518 18.7517 14.8562 18.7503 14.8607 18.7505C15.484 18.7505 16.121 18.7505 16.7717 18.7505C17.1678 18.7505 17.4788 19.0104 17.4392 19.4212C17.3956 19.8736 17.1586 20.1893 16.7281 20.3683C16.7146 20.3763 16.7146 20.3818 16.7293 20.387ZM16.3605 19.8668C16.4132 19.7571 16.4472 19.5586 16.3058 19.502C16.2342 19.4751 16.1581 19.4623 16.0816 19.4643C15.9414 19.4643 15.8093 19.4643 15.6855 19.4643C15.6775 19.4637 15.6695 19.4661 15.6631 19.471C15.6568 19.4759 15.6525 19.483 15.651 19.4909L15.4894 20.0851C15.4858 20.0974 15.4894 20.1037 15.5033 20.1041C15.6831 20.1091 15.8495 20.1079 16.0024 20.1005C16.0783 20.1005 16.1526 20.0783 16.2161 20.0369C16.2797 19.9954 16.3299 19.9363 16.3605 19.8668ZM15.6324 21.4819C15.9097 21.4759 16.1204 21.344 16.1632 21.0461C16.1906 20.8564 16.0119 20.7934 15.8626 20.7922C15.6806 20.7901 15.498 20.7901 15.3147 20.7922C15.3097 20.7923 15.3048 20.794 15.3008 20.7971C15.2968 20.8002 15.2939 20.8044 15.2925 20.8092L15.1154 21.4648C15.1146 21.4685 15.1152 21.4724 15.1171 21.4756C15.119 21.4789 15.1221 21.4813 15.1257 21.4823H15.1289C15.2966 21.4854 15.4644 21.4853 15.6324 21.4819Z" fill="white"/>
<path d="M11.0054 22.0821C10.616 21.8919 10.4294 21.4482 10.4603 21.0279C10.5443 19.8665 11.2712 18.9363 12.4687 18.7894C12.7984 18.7441 13.1339 18.7712 13.452 18.8686C14.4225 19.1768 14.2284 20.2737 13.9123 20.9725C13.7113 21.4344 13.3519 21.8094 12.899 22.0298C12.4751 22.2389 11.9736 22.2801 11.5069 22.2243C11.3329 22.2056 11.1633 22.1575 11.0054 22.0821ZM11.722 20.1806C11.6439 20.3619 11.5869 20.5516 11.5521 20.7459C11.4982 21.0426 11.5446 21.3967 11.9086 21.4534C12.3341 21.5196 12.6775 21.3128 12.8593 20.9341C13.0249 20.5922 13.345 19.706 12.7294 19.5812C12.2766 19.4886 11.9023 19.7611 11.722 20.1794V20.1806Z" fill="white"/>
<path d="M20.7782 21.0597C20.4383 21.7107 19.9148 22.0953 19.2075 22.2137C18.875 22.2691 18.5349 22.2593 18.2061 22.1847C17.1365 21.947 17.2772 20.7895 17.6222 20.0456C17.926 19.39 18.5159 18.9237 19.2277 18.8092C20.0525 18.6769 21.0876 18.8465 21.0769 19.9034C21.0646 20.3062 20.9626 20.7013 20.7782 21.0597ZM19.7697 20.9266C19.9657 20.5138 20.2886 19.5484 19.4603 19.5631C18.7833 19.5746 18.5175 20.2892 18.4462 20.8478C18.3998 21.2086 18.5702 21.4701 18.9556 21.4653C19.3295 21.4601 19.6009 21.2805 19.7697 20.9266Z" fill="white"/>
<circle cx="20" cy="20" r="19.5" stroke="black" stroke-opacity="0.05"/>
</svg>
