<svg width="40" height="40" viewBox="0 0 40 40" fill="none" xmlns="http://www.w3.org/2000/svg">
<circle cx="20" cy="20" r="20" fill="#0082FF"/>
<g clip-path="url(#clip0_14382_20973)">
<path d="M12.9726 25.4571H9L14.4993 14.0039H18.4718L12.9726 25.4571Z" fill="white"/>
<path d="M29.4134 15.2661C29.312 14.979 29.1491 14.7175 28.9362 14.4999C28.7233 14.2822 28.4655 14.1137 28.1807 14.0059C28.0259 13.9421 27.865 13.8942 27.7005 13.8628C27.4747 13.8233 27.2458 13.8036 27.0166 13.804C26.1449 13.7924 25.296 14.0825 24.6138 14.6252C24.3072 14.8816 24.0524 15.1943 23.8632 15.5463L24.1983 15.7894C24.2835 15.652 24.3785 15.521 24.4825 15.3974C24.8294 15.025 25.1802 14.8408 25.5898 14.8839C26.3953 14.9643 26.0131 15.8148 26.0131 15.8148L21.3879 25.4493H25.4311L28.9176 17.8256C29.3546 16.7516 29.6917 16.1206 29.4134 15.2582V15.2661Z" fill="white"/>
<path d="M17.0942 27.5934C16.6177 26.9966 16.2773 26.303 16.0966 25.5611V25.5395C15.9411 24.6398 16.0228 23.715 16.3337 22.8565L16.3475 22.8251C16.3989 22.6843 16.4578 22.5463 16.5238 22.4116L16.8707 21.5924H16.8825L20.0064 14.929C20.2553 14.3077 20.7296 12.4342 18.758 11.3563C15.9516 9.82563 12.7198 11.6816 11.0814 13.8629C9.94079 15.3798 9.68405 17.0985 9.68405 17.5513C9.68405 19.029 10.6228 19.562 10.6287 19.5699C10.6552 19.61 10.6681 19.6575 10.6657 19.7055C10.6632 19.7535 10.6455 19.7995 10.6151 19.8367C10.5846 19.8739 10.5431 19.9004 10.4966 19.9123C10.45 19.9243 10.4009 19.921 10.3563 19.903C10.3328 19.8874 9.32541 19.37 9.25486 17.8001C9.2228 17.3165 9.26443 16.8308 9.37832 16.3597C9.85456 14.1862 11.3029 12.346 13.2588 11.1642C13.3783 11.0917 13.4979 11.0231 13.6194 10.9564L13.6743 10.929C14.465 10.5052 15.3229 10.2208 16.2103 10.0882C18.4974 9.75899 20.8531 10.4371 22.3916 12.2441C22.8651 12.7781 23.2097 13.4137 23.3989 14.102C23.6141 14.9658 23.5383 15.8765 23.1833 16.6928C23.103 16.8888 23.0363 17.0848 22.9873 17.1652L20.6355 22.049C20.6355 22.049 20.177 22.9996 19.8516 23.7384C19.5879 24.3866 19.4643 25.0832 19.4891 25.7825C19.6047 26.7134 20.0496 27.8972 21.3666 28.5263C23.7301 29.6669 27.4577 28.6301 28.9589 25.8002C29.3019 25.1554 29.7762 23.9618 29.7762 22.8937C29.7762 21.3788 29.0491 20.6889 29.0432 20.6772C29.0161 20.6367 29.0028 20.5887 29.0051 20.5401C29.0073 20.4915 29.0251 20.445 29.0558 20.4072C29.0865 20.3695 29.1285 20.3426 29.1756 20.3306C29.2227 20.3185 29.2725 20.3218 29.3176 20.3401C29.3372 20.3538 30.3563 21.4866 30.1427 23.6169C29.8977 25.4141 29.002 27.564 26.6326 28.8908C26.5111 28.9594 26.3955 29.0358 26.272 29.1025L26.2191 29.1319C25.3812 29.555 24.4759 29.8289 23.5439 29.9413C23.2386 29.9825 22.9309 30.0028 22.6228 30.002C20.6297 30.002 18.4209 29.1887 17.0902 27.5954" fill="white"/>
</g>
<circle cx="20" cy="20" r="19.5" stroke="black" stroke-opacity="0.05"/>
<defs>
<clipPath id="clip0_14382_20973">
<rect width="21.1759" height="20" fill="white" transform="translate(9 10)"/>
</clipPath>
</defs>
</svg>
