<svg width="40" height="40" viewBox="0 0 40 40" fill="none" xmlns="http://www.w3.org/2000/svg">
<circle cx="20" cy="20" r="20" fill="#F6F8FA"/>
<path d="M6.94877 22.2093C6.63177 22.2458 6.33727 22.2763 6.0166 22.3095C6.0166 21.9374 6.0166 21.6144 6.0166 21.2826C6.0337 21.2744 6.05718 21.2542 6.08201 21.2524C6.72225 21.2046 6.80004 21.1225 6.80004 20.4898C6.80004 19.6851 6.80004 18.8804 6.80004 18.0591C7.238 18.0591 7.65408 18.0591 8.1015 18.0591C8.1015 18.4309 8.10162 18.7938 8.10147 19.1566C8.10127 19.6631 8.10003 20.1695 8.10146 20.676C8.10167 20.7501 8.10153 20.8281 8.12324 20.8976C8.22098 21.2104 8.55753 21.3242 9.12194 21.2423C9.39515 21.2027 9.5656 21.0163 9.56799 20.7195C9.57427 19.9411 9.57041 19.1626 9.57058 18.3841C9.5706 18.2827 9.57058 18.1814 9.57058 18.0613C10.0011 18.0613 10.4088 18.0613 10.8431 18.0613C10.8487 18.135 10.8601 18.215 10.8602 18.295C10.8615 19.186 10.8631 20.0771 10.8604 20.9681C10.858 21.7495 10.3439 22.2685 9.55887 22.2815C9.18381 22.2877 8.80672 22.3051 8.43406 22.2746C8.18879 22.2545 7.92899 22.1973 7.71408 22.084C7.51608 21.9796 7.3738 21.9372 7.19747 22.0927C7.13675 22.1462 7.0475 22.1674 6.94877 22.2093Z" fill="#77797C"/>
<path d="M17.4035 20.5195C17.4035 20.6319 17.4039 20.7164 17.4035 20.8008C17.3989 21.7138 17.0787 22.1498 16.176 22.2316C15.3607 22.3056 14.5333 22.2473 13.6971 22.2473C13.6971 21.9084 13.6971 21.5763 13.6971 21.2069C14.1973 21.2069 14.6819 21.2069 15.1665 21.2068C15.9861 21.2067 16.1001 21.092 16.1018 20.2605C16.1021 20.1106 16.1011 19.9604 16.0925 19.8108C16.0644 19.3221 15.8595 19.1255 15.3635 19.1198C14.904 19.1145 14.4444 19.1186 13.9848 19.1186C13.8938 19.1186 13.8027 19.1186 13.6963 19.1186C13.6963 18.754 13.6963 18.4203 13.6963 18.0874C13.7124 18.0749 13.7268 18.054 13.7408 18.0542C14.5647 18.066 15.3905 18.0491 16.2119 18.1019C16.9858 18.1516 17.3711 18.5931 17.3992 19.3661C17.4129 19.7408 17.4029 20.1163 17.4035 20.5195Z" fill="#787A7C"/>
<path d="M20.4358 22.2722C20.3535 22.2279 20.2535 22.1859 20.2513 22.1392C20.2368 21.8414 20.2439 21.5426 20.2439 21.2069C20.7332 21.2069 21.1991 21.2069 21.6649 21.2069C22.5438 21.2069 22.6636 21.0862 22.664 20.2006C22.6645 19.2518 22.5304 19.1186 21.5745 19.1186C21.1448 19.1186 20.7151 19.1186 20.264 19.1186C20.264 18.7574 20.264 18.4172 20.264 18C21.181 18.046 22.0972 18.0517 23.003 18.1521C23.5778 18.2157 23.8768 18.5796 23.9219 19.1628C23.9695 19.7772 23.9917 20.4004 23.9455 21.0137C23.8817 21.8609 23.4367 22.2307 22.5159 22.2621C21.8324 22.2854 21.1476 22.2703 20.4358 22.2722Z" fill="#77797C"/>
<path d="M27.1908 19.112C27.0517 19.112 26.9402 19.112 26.8074 19.112C26.8074 18.7563 26.8074 18.4161 26.8074 18.0964C27.6122 18.0964 28.4157 18.0672 29.2156 18.1088C29.6103 18.1293 29.8889 18.4123 29.9439 18.8195C29.9912 19.1695 30.0016 19.5289 29.9842 19.882C29.9657 20.2589 29.7391 20.4986 29.3644 20.5946C29.9713 20.963 30.1188 21.3767 29.9563 22.2565C29.906 22.2615 29.8519 22.2712 29.7977 22.2715C29.4426 22.2728 29.0876 22.2722 28.6836 22.2722C28.6836 22.0592 28.6983 21.8652 28.6804 21.6742C28.6452 21.2977 28.5412 21.1981 28.1654 21.1896C27.7175 21.1793 27.2692 21.1871 26.8037 21.1871C26.8037 20.825 26.8037 20.4926 26.8037 20.1258C27.2834 20.1258 27.7588 20.1291 28.2341 20.1248C28.6152 20.1213 28.7469 19.9865 28.7465 19.6176C28.746 19.2561 28.6219 19.1216 28.2599 19.114C27.9129 19.1066 27.5656 19.1121 27.1908 19.112Z" fill="#77797C"/>
<path d="M34.7324 18.2771C34.7234 18.1279 34.7286 18.0338 34.9011 18.039C35.265 18.05 35.6294 18.0424 36.0339 18.0424C36.0339 18.3458 36.0339 18.6321 36.0339 18.9184C36.0338 19.2464 36.0361 19.5744 36.0333 19.9024C36.0273 20.6179 35.4931 21.1634 34.7773 21.1836C34.564 21.1896 34.3504 21.1845 34.1064 21.1845C34.1064 21.5523 34.1064 21.8941 34.1064 22.2535C33.6686 22.2535 33.2616 22.2535 32.8359 22.2535C32.8359 21.555 32.8359 20.8577 32.8359 20.1259C33.266 20.1259 33.6937 20.1274 34.1214 20.1255C34.5648 20.1236 34.7309 19.9563 34.7321 19.5132C34.7332 19.1102 34.7324 18.7071 34.7324 18.2771Z" fill="#77797C"/>
<path d="M5.3409 19.3375C5.3409 20.3218 5.3409 21.278 5.3409 22.2308C4.72849 22.3516 4.05863 21.7757 4.04536 21.0932C4.02584 20.09 4.04033 19.0861 4.04033 18.0625C4.4673 18.0625 4.88405 18.0625 5.3409 18.0625C5.3409 18.4734 5.3409 18.8913 5.3409 19.3375Z" fill="#D0333A"/>
<path d="M24.8439 21.1553C24.8398 20.1114 24.8398 19.0919 24.8398 18.0574C25.279 18.0574 25.6948 18.0574 26.1175 18.0574C26.1175 19.4648 26.1175 20.8567 26.1175 22.247C25.5046 22.3086 24.987 21.8674 24.8439 21.1553Z" fill="#D0363D"/>
<path d="M12.8475 18.0591C12.9255 18.0925 13.0284 18.1298 13.0287 18.1678C13.0369 19.5255 13.0356 20.8832 13.0356 22.237C12.4424 22.3321 11.7926 21.8168 11.7591 21.1904C11.7231 20.5175 11.7277 19.8404 11.756 19.1669C11.7794 18.609 12.2071 18.1986 12.8475 18.0591Z" fill="#D1383E"/>
<path d="M18.2825 20.7415C18.2843 20.226 18.2719 19.7376 18.2914 19.2503C18.3186 18.567 18.8775 18.0577 19.5768 18.0635C19.5768 19.4579 19.5768 20.8524 19.5768 22.2454C18.9438 22.3186 18.3438 21.7833 18.2896 21.1067C18.2806 20.9947 18.2846 20.8816 18.2825 20.7415Z" fill="#D0343B"/>
<path d="M32.183 18.6632C32.183 19.5138 32.183 20.3364 32.183 21.1571C31.5449 21.1876 30.95 20.7391 30.9102 20.1402C30.8645 19.4524 30.8996 18.7592 30.8996 18.0552C31.3236 18.0552 31.7334 18.0552 32.183 18.0552C32.183 18.2486 32.183 18.4419 32.183 18.6632Z" fill="#D1373E"/>
<circle cx="20" cy="20" r="19.5" stroke="black" stroke-opacity="0.05"/>
</svg>
