<svg width="40" height="40" viewBox="0 0 40 40" fill="none" xmlns="http://www.w3.org/2000/svg">
<circle cx="20" cy="20" r="20" fill="#183C5F"/>
<g clip-path="url(#clip0_18553_55955)">
<path d="M20.031 13.5085C21.3585 13.5085 22.4346 12.4403 22.4346 11.1226C22.4346 9.80499 21.3585 8.73682 20.031 8.73682C18.7036 8.73682 17.6274 9.80499 17.6274 11.1226C17.6274 12.4403 18.7036 13.5085 20.031 13.5085Z" fill="white"/>
<path d="M13.8278 27.2566C13.7802 27.233 13.7247 27.2094 13.6612 27.2015C13.1615 27.107 12.6617 27.0046 12.1778 26.8944C12.0906 26.8708 12.0271 26.792 12.043 26.6975C12.0588 26.5716 12.0668 26.4456 12.0668 26.3117C12.0668 23.0204 12.0668 19.729 12.0668 16.4377C12.0668 16.2566 12.0668 16.0755 12.0509 15.8944C12.0509 15.855 12.0747 15.8157 12.1223 15.8078L13.8278 15.4692C13.8278 15.4692 13.8833 15.4298 13.8833 15.3983V13.0755C13.8754 12.9889 13.9151 12.9574 14.0023 12.9731C15.7792 13.3275 17.6989 13.7212 19.7693 14.1464C19.9597 14.1857 20.1739 14.1779 20.3722 14.1385C22.2046 13.7605 24.1084 13.3668 26.0836 12.9731C26.1709 12.9574 26.2105 12.9889 26.2105 13.0755V15.4062C26.2105 15.4062 26.2264 15.4613 26.2502 15.4692L27.9636 15.8078C28.0112 15.8157 28.043 15.855 28.043 15.9023V26.7527C28.043 26.8235 27.9954 26.8865 27.924 26.9023L26.274 27.2409C26.2343 27.2487 26.2026 27.2881 26.2026 27.3275V29.6739C26.2026 29.6739 26.1788 29.7369 26.1471 29.7369C26.1471 29.7369 26.1391 29.7369 26.1312 29.7369C24.2591 29.3432 22.2839 28.9416 20.2135 28.5401C20.0945 28.5164 19.9676 28.5164 19.8328 28.5401C17.7624 28.9416 15.8109 29.3432 13.9547 29.729C13.9151 29.7369 13.8754 29.7133 13.8675 29.6739C13.8675 29.6739 13.8675 29.6661 13.8675 29.6582L13.8913 27.3668C13.8913 27.3196 13.8675 27.2881 13.8278 27.2645V27.2566ZM19.0554 17.1385C19.103 17.2172 19.1188 17.3038 19.1188 17.4141C19.095 17.918 18.984 18.4141 18.9046 18.918C18.6587 20.4928 18.4604 22.0834 18.3097 23.6975C18.2304 24.5637 18.1986 25.4613 18.2224 26.3826C18.2462 27.1464 18.508 27.7527 19.3568 27.8787C19.6582 27.9259 19.9359 27.7684 20.1739 27.6109C20.8799 27.1464 21.3241 26.5164 21.7762 25.8235C21.8397 25.7212 21.8159 25.6818 21.6969 25.6975C21.5303 25.7212 21.3637 25.7448 21.1972 25.7763C20.9116 25.8157 20.745 25.6897 20.7133 25.3905C20.6657 24.9731 20.6577 24.5952 20.6815 24.2487C20.6815 24.1464 20.7291 23.7605 20.7926 23.0834C20.9274 21.6818 21.102 20.296 21.3003 18.9259C21.4034 18.2251 21.4669 17.5558 21.5621 16.8944C21.6414 16.3353 21.6731 15.855 21.6572 15.4535C21.6493 15.1542 21.5065 14.9653 21.2368 14.8865C20.4991 14.6739 19.9914 14.9889 19.4996 15.4771C19.0395 15.9338 18.6191 16.3983 18.2462 16.8865C18.2224 16.918 18.2304 16.9574 18.2621 16.981C18.27 16.9889 18.2859 16.9968 18.3018 16.9968L18.8808 17.0283C18.9602 17.0283 19.0316 17.0755 19.0712 17.1385H19.0554Z" fill="white"/>
</g>
<circle cx="20" cy="20" r="19.5" stroke="black" stroke-opacity="0.05"/>
<defs>
<clipPath id="clip0_18553_55955">
<rect width="16" height="21" fill="white" transform="translate(12.0352 8.73682)"/>
</clipPath>
</defs>
</svg>
