<svg width="40" height="40" viewBox="0 0 40 40" fill="none" xmlns="http://www.w3.org/2000/svg">
<circle cx="20" cy="20" r="20" fill="#00C6F2"/>
<path d="M28.2074 10.129L22.1415 13.1167C21.7098 13.3291 21.3463 13.6582 21.092 14.0667C20.8378 14.4752 20.7031 14.9467 20.7031 15.4278V23.8337C20.7031 23.3563 20.8358 22.8884 21.0864 22.4822C21.337 22.0759 21.6956 21.7473 22.1223 21.5332L28.5808 18.3535C29.0067 18.1439 29.3654 17.8192 29.6162 17.4162C29.867 17.0132 29.9999 16.548 30 16.0733V11.2451C30.0002 11.0337 29.9464 10.8258 29.8439 10.641C29.7413 10.4562 29.5934 10.3005 29.4139 10.1888C29.2345 10.0771 29.0295 10.013 28.8184 10.0025C28.6073 9.99204 28.397 10.0356 28.2074 10.129Z" fill="white"/>
<path d="M20.6797 24.9731C20.6798 25.4332 20.807 25.8843 21.0473 26.2767C21.2875 26.6691 21.6315 26.9875 22.0412 27.1968L28.0879 30.2911C28.2826 30.3892 28.4991 30.436 28.7169 30.427C28.9347 30.418 29.1466 30.3536 29.3326 30.2398C29.5185 30.126 29.6723 29.9666 29.7794 29.7767C29.8865 29.5868 29.9433 29.3727 29.9445 29.1547V24.0993C29.9442 23.6309 29.8145 23.1717 29.5697 22.7723C29.3249 22.373 28.9746 22.049 28.5574 21.8361L26.6304 20.8524C26.3671 20.7183 26.079 20.6397 25.7841 20.6214C25.4892 20.603 25.1936 20.6453 24.9157 20.7457L22.1201 21.7529C21.2505 22.1893 20.701 22.8658 20.701 23.84L20.6797 24.9731Z" fill="white"/>
<path d="M11.7915 30.2978L17.8574 27.3102C18.289 27.0974 18.6525 26.768 18.9067 26.3594C19.1608 25.9508 19.2956 25.4792 19.2958 24.998V16.5942C19.2957 17.0717 19.1629 17.5397 18.9123 17.9461C18.6618 18.3525 18.3032 18.6813 17.8767 18.8958L11.4191 22.0744C10.9932 22.2839 10.6344 22.6086 10.3836 23.0116C10.1328 23.4146 9.9999 23.8799 10 24.3546V29.1849C10.0004 29.3959 10.0546 29.6033 10.1573 29.7875C10.26 29.9718 10.4079 30.1269 10.5871 30.2382C10.7663 30.3495 10.9709 30.4134 11.1816 30.4238C11.3923 30.4343 11.6022 30.3909 11.7915 30.2978Z" fill="white"/>
<path d="M19.3193 15.4535C19.3191 14.9934 19.1919 14.5423 18.9517 14.1499C18.7114 13.7575 18.3675 13.4391 17.9578 13.2298L11.911 10.1355C11.7164 10.0374 11.4999 9.99064 11.2821 9.99962C11.0642 10.0086 10.8523 10.0731 10.6664 10.1869C10.4805 10.3007 10.3267 10.4601 10.2196 10.6499C10.1125 10.8398 10.0556 11.0539 10.0544 11.2719V16.3274C10.0545 16.7958 10.1841 17.2551 10.4289 17.6545C10.6737 18.0539 11.0242 18.3778 11.4416 18.5905L13.3696 19.5817C13.6329 19.716 13.9209 19.7948 14.2159 19.8131C14.5109 19.8315 14.8064 19.789 15.0843 19.6884L17.8799 18.6822C18.7495 18.2448 19.299 17.5683 19.299 16.5941L19.3193 15.4535Z" fill="white"/>
<circle cx="20" cy="20" r="19.5" stroke="black" stroke-opacity="0.05"/>
</svg>
