<svg width="40" height="40" viewBox="0 0 40 40" fill="none" xmlns="http://www.w3.org/2000/svg">
<circle cx="20" cy="20" r="20" fill="#0A3964"/>
<path d="M23.0788 9.3455L19.9818 13.7061L21.8 16.4485C22.103 16.8879 22.4061 17.3152 22.7091 17.7364C23.203 18.397 24.0606 19.7334 24.1091 21.1637C24.1849 23.3758 22.3121 25.1758 20.097 25.1758C19.0329 25.1758 18.0124 24.7531 17.26 24.0007C16.5076 23.2483 16.0849 22.2278 16.0849 21.1637C16.0849 21.1637 16.0636 19.9516 17.3242 17.8879C18.5849 15.8243 19.9697 13.7061 19.9697 13.7061L17.0061 9.30005L10 13.3394V24.894L20 30.6728L30 24.894V13.3394L23.0788 9.3455Z" fill="white"/>
<circle cx="20" cy="20" r="19.5" stroke="black" stroke-opacity="0.05"/>
</svg>
