<svg width="40" height="40" viewBox="0 0 40 40" fill="none" xmlns="http://www.w3.org/2000/svg">
<circle cx="20" cy="20" r="20" fill="#F6F8FA"/>
<g clip-path="url(#clip0_40531_76262)">
<path d="M8.79206 17.0655C8.03081 17.6135 7.07239 18.5161 6.97381 19.6185C6.97381 19.6636 7.0012 19.7088 7.03953 19.7152C7.98152 19.8184 8.61133 20.3921 8.67705 21.5139C8.7592 22.9387 7.48314 23.6221 6.46449 23.6608C5.86753 23.6865 5.36368 23.5318 4.90912 23.0999C4.26836 22.4874 4.00548 21.6815 4 20.6952C4 19.8313 4.22454 19.0125 4.68458 18.2518C5.36916 17.1171 6.33852 16.2403 7.36813 15.5827C7.38456 15.5698 7.40647 15.5763 7.4229 15.5892L8.79754 17.0204C8.79754 17.0204 8.80849 17.0462 8.79754 17.0591L8.79206 17.0655Z" fill="#0BAF4E"/>
<path d="M31.2076 23.3773C31.9689 22.8293 32.9273 21.9267 33.0259 20.8243C33.0259 20.7791 32.9985 20.734 32.9601 20.7276C32.0182 20.6244 31.3883 20.0506 31.3226 18.9289C31.2405 17.5041 32.5165 16.8207 33.5352 16.782C34.1321 16.7562 34.636 16.911 35.0905 17.3429C35.7313 17.9489 35.9942 18.7548 35.9997 19.7412C35.9997 20.6051 35.7751 21.4238 35.3151 22.1846C34.6305 23.3192 33.6611 24.196 32.6315 24.8536C32.6151 24.8665 32.5932 24.8601 32.5768 24.8472L31.2021 23.4159C31.2021 23.4159 31.1912 23.3902 31.2021 23.3773H31.2076Z" fill="#EF6F20"/>
<path d="M29.5919 19.0707C29.3126 18.9805 29.1647 18.9289 29.1483 18.9225C27.6587 18.5485 26.0704 19.0192 25.8623 21.0435C25.8076 21.5915 25.8623 22.1073 26.0212 22.5843C26.5907 24.2412 28.409 24.2605 29.6138 23.8093C29.6248 23.8093 29.6357 23.8093 29.6412 23.8286L29.8712 25.1889C29.8712 25.1889 29.8658 25.234 29.8438 25.2469C29.0607 25.5693 28.1242 25.6209 27.3136 25.5306C25.5666 25.3372 24.1481 24.0156 24.0715 21.8558C24.0003 19.9282 24.6794 18.5679 26.1143 17.7749C27.1274 17.214 28.5349 17.1882 29.6248 17.5106C29.7507 17.5493 29.8603 17.5944 29.9479 17.6524C29.9698 17.6653 29.9753 17.6911 29.9698 17.7169L29.6412 19.0385C29.6412 19.0385 29.6138 19.0772 29.5919 19.0707Z" fill="#046393"/>
<path d="M12.8346 17.4268C14.6638 17.4268 15.6058 17.4268 15.666 17.4332C15.6879 17.4332 15.7044 17.4525 15.7044 17.4783V18.9289C15.7044 18.9289 15.6934 18.9482 15.6879 18.9482H13.7163C13.7163 18.9482 13.6725 18.9676 13.6725 18.9998V25.4081C13.6725 25.4081 13.6616 25.4403 13.6451 25.4403C13.6123 25.4403 13.3385 25.4403 12.8291 25.4403C12.3198 25.4403 12.046 25.4403 12.0131 25.4403C11.9967 25.4403 11.9857 25.4274 11.9857 25.4081L11.9967 18.9998C11.9967 18.9998 11.9802 18.9482 11.9529 18.9482H9.98127C9.98127 18.9482 9.96484 18.9353 9.96484 18.9225V17.4719C9.96484 17.4719 9.98675 17.4268 10.0087 17.4268C10.0689 17.4268 11.0109 17.4268 12.8401 17.4268H12.8346Z" fill="#046393"/>
<path d="M22.1831 19.1287C22.1831 19.1287 22.1776 19.1158 22.1666 19.1158C22.1666 19.1158 22.1557 19.1158 22.1557 19.1287C21.9092 20.1538 21.7066 20.9145 21.5423 21.4174C21.148 22.6617 20.792 23.9382 20.4251 25.2082C20.4196 25.234 20.3977 25.2533 20.3758 25.2469H19.1271C19.1271 25.2469 19.0833 25.2276 19.0778 25.2018C18.8642 24.3637 18.5794 23.2548 18.2234 21.8816C17.988 20.9661 17.7908 20.0506 17.6374 19.1223C17.6374 19.1158 17.6265 19.1094 17.621 19.1094C17.6155 19.1094 17.6101 19.1158 17.6101 19.1223L17.3472 25.3307C17.3472 25.3307 17.3308 25.3694 17.3143 25.3694H15.8028C15.8028 25.3694 15.7754 25.3565 15.7754 25.3372L16.2519 17.4461C16.2519 17.4461 16.2628 17.4203 16.2792 17.4203H18.4809C18.4809 17.4203 18.5082 17.4332 18.5137 17.4461C19.0285 19.2706 19.4009 20.6953 19.6419 21.7333C19.7186 22.0621 19.7898 22.4425 19.8664 22.868C19.8664 22.8873 19.8829 22.8938 19.8993 22.8938C19.9103 22.8938 19.9157 22.8809 19.9212 22.868C20.0362 22.32 20.1567 21.8171 20.2772 21.3594C20.5894 20.1731 20.9672 18.8773 21.3999 17.4654C21.4054 17.4396 21.4273 17.4203 21.4547 17.4203H23.5906C23.5906 17.4203 23.6289 17.4396 23.6289 17.4654L24.0232 25.3243C24.0232 25.3243 24.0068 25.3758 23.9849 25.3758H22.4295C22.4295 25.3758 22.3912 25.3565 22.3857 25.3307C22.2762 23.1001 22.2104 21.0306 22.194 19.1287H22.1831Z" fill="#046393"/>
</g>
<circle cx="20" cy="20" r="19.5" stroke="black" stroke-opacity="0.05"/>
<defs>
<clipPath id="clip0_40531_76262">
<rect width="32" height="10" fill="white" transform="translate(4 15.5757)"/>
</clipPath>
</defs>
</svg>
