<svg width="40" height="40" viewBox="0 0 40 40" fill="none" xmlns="http://www.w3.org/2000/svg">
<circle cx="20" cy="20" r="20" fill="#F6F8FA"/>
<circle cx="20" cy="20" r="19.5" stroke="black" stroke-opacity="0.05"/>
<g clip-path="url(#clip0_18553_55634)">
<path d="M4.03516 22.9316V16.967C5.19097 16.9591 6.34678 16.9591 7.50259 16.963C7.68592 16.963 7.90911 17.0062 8.16817 17.0925C9.03702 17.3829 9.65877 18.1167 9.83413 18.984C9.9258 19.4431 9.88595 19.9925 9.88196 20.4791C9.88196 21.5857 9.08485 22.551 8.01274 22.8492C7.81745 22.9042 7.4986 22.9316 7.06019 22.9316C6.05185 22.9316 5.0435 22.9316 4.03516 22.9316ZM4.54531 17.6615L4.55328 22.2331C4.55328 22.2331 4.56523 22.2645 4.58516 22.2645H7.21563C8.33557 22.2567 9.24029 21.3816 9.24029 20.3025V19.5804C9.24029 18.5013 8.3276 17.6262 7.20766 17.6301H4.57321C4.57321 17.6301 4.54132 17.6498 4.54132 17.6654L4.54531 17.6615Z" fill="#3F3F40"/>
<path d="M11.121 16.959H10.5032C10.4944 16.959 10.4873 16.966 10.4873 16.9747V22.9158C10.4873 22.9245 10.4944 22.9315 10.5032 22.9315H11.121C11.1298 22.9315 11.1369 22.9245 11.1369 22.9158V16.9747C11.1369 16.966 11.1298 16.959 11.121 16.959Z" fill="#F26521"/>
<path d="M11.7393 17.0022C11.7393 16.9787 11.7592 16.959 11.7831 16.959L15.127 16.9473C16.5618 16.9434 17.7295 18.0617 17.7335 19.4469V20.4162C17.7415 21.8014 16.5817 22.9316 15.1469 22.9355L11.803 22.9473C11.7791 22.9473 11.7592 22.9277 11.7592 22.9041L11.7393 17.0022ZM12.3889 17.6811L12.4048 22.2213C12.4048 22.2488 12.4248 22.2684 12.4527 22.2684L15.0513 22.2606C16.1792 22.2606 17.0879 21.3659 17.0879 20.271V19.6C17.0799 18.5052 16.1632 17.6183 15.0393 17.6222L12.4407 17.6301C12.4128 17.6301 12.3929 17.6497 12.3929 17.6772L12.3889 17.6811Z" fill="#3F3F40"/>
<path d="M18.9606 16.959H18.3628C18.3496 16.959 18.3389 16.9695 18.3389 16.9825V22.908C18.3389 22.921 18.3496 22.9315 18.3628 22.9315H18.9606C18.9738 22.9315 18.9845 22.921 18.9845 22.908V16.9825C18.9845 16.9695 18.9738 16.959 18.9606 16.959Z" fill="#F26521"/>
<path d="M20.2842 18.1637V22.9119C20.2842 22.9119 20.2763 22.9315 20.2643 22.9315H19.6147C19.6147 22.9315 19.5947 22.9237 19.5947 22.9119V16.9786C19.5947 16.9786 19.6027 16.959 19.6147 16.959H20.3161C20.3161 16.959 20.3281 16.959 20.3321 16.9668L22.5839 19.5685C22.5839 19.5685 22.6038 19.5803 22.6118 19.5685L24.8517 16.9668C24.8517 16.9668 24.8596 16.959 24.8676 16.959H25.5531C25.5531 16.959 25.5731 16.9668 25.5731 16.9786V22.9119C25.5731 22.9119 25.5651 22.9315 25.5531 22.9315H24.8995C24.8995 22.9315 24.8796 22.9237 24.8796 22.9119V18.1676C24.8796 18.1676 24.8716 18.148 24.8596 18.148C24.8557 18.148 24.8477 18.148 24.8437 18.1558L22.6078 20.6869C22.6078 20.6869 22.5879 20.6948 22.5799 20.6869L20.3201 18.1558C20.3201 18.1558 20.3002 18.148 20.2922 18.1558C20.2882 18.1558 20.2842 18.1637 20.2842 18.1715V18.1637Z" fill="#3F3F40"/>
<path d="M28.0322 21.303V22.1937C28.0322 22.2173 28.0441 22.2291 28.068 22.2291H29.6503C29.6702 22.2291 29.6822 22.2408 29.6822 22.2605V22.8373C29.6822 22.8569 29.6702 22.8687 29.6503 22.8687H27.3387C27.3148 22.8687 27.3028 22.8569 27.3028 22.8334C27.3028 21.9544 27.3028 20.9773 27.2988 19.8981C27.2988 19.4939 27.4742 19.2232 27.9285 19.2193C28.5144 19.2153 29.0923 19.2153 29.6543 19.2193C29.6742 19.2193 29.6822 19.2271 29.6822 19.2467V19.8314C29.6822 19.8314 29.6742 19.8589 29.6543 19.8589H28.1517C28.084 19.8589 28.0282 19.9138 28.0282 19.9805V20.6045C28.0282 20.628 28.0401 20.6398 28.0601 20.6398H29.4789C29.4789 20.6398 29.4989 20.6476 29.4989 20.6594V21.252C29.4989 21.252 29.4909 21.2716 29.4789 21.2716H28.068C28.0401 21.2716 28.0282 21.2873 28.0282 21.3147L28.0322 21.303Z" fill="#3F3F40"/>
<path d="M32.1932 21.4363L32.3964 20.9458C32.4044 20.9261 32.4203 20.9144 32.4403 20.9144H33.0979C33.1258 20.9144 33.1338 20.9261 33.1218 20.9536C32.9704 21.3146 32.8149 21.6482 32.6515 21.9543C32.6356 21.9856 32.6396 22.0131 32.6595 22.0406L33.2972 22.8372C33.2972 22.8372 33.3012 22.8568 33.2972 22.8607C33.2972 22.8607 33.2892 22.8607 33.2852 22.8607H32.4562C32.4323 22.8607 32.4164 22.8529 32.4004 22.8333L32.2051 22.5743C32.1852 22.5507 32.1653 22.5468 32.1414 22.5703C31.8066 22.8804 31.404 22.9824 30.9337 22.8804C30.5591 22.7979 30.2562 22.5233 30.1805 22.1426C30.0729 21.6089 30.2761 21.1616 30.7544 20.8751C30.7783 20.8594 30.7823 20.8398 30.7624 20.8163C30.7145 20.7613 30.6747 20.7064 30.6388 20.6475C30.3518 20.1923 30.4595 19.4742 31.0374 19.2701C31.6631 19.0504 32.4204 19.3094 32.4044 20.0746C32.3964 20.4866 32.1493 20.8006 31.7986 20.9968C31.7866 21.0046 31.7827 21.0203 31.7866 21.0321C31.7866 21.0321 31.7866 21.0321 31.7866 21.036L32.1294 21.4441C32.1533 21.4716 32.1732 21.4716 32.1892 21.4363H32.1932ZM31.2008 19.9294C31.0812 20.1452 31.1928 20.3846 31.3562 20.5533C31.3682 20.5651 31.3881 20.569 31.408 20.5612C31.6551 20.4474 31.8185 20.2316 31.7229 19.9529C31.6432 19.7253 31.3084 19.7293 31.2008 19.9255V19.9294ZM31.7388 22.0092L31.1928 21.3342C31.1729 21.3107 31.141 21.3068 31.1171 21.3264L31.0533 21.3774C30.8142 21.5658 30.7544 21.8836 30.9218 22.0877L30.9298 22.0994C31.0971 22.3035 31.424 22.3192 31.6631 22.1308L31.7269 22.0798C31.7508 22.0602 31.7548 22.0288 31.7348 22.0053L31.7388 22.0092Z" fill="#3F3F40"/>
<path d="M34.4166 21.2599C34.4166 21.2599 34.3847 21.2716 34.3847 21.2913V22.8334C34.3847 22.857 34.3728 22.8688 34.3488 22.8688H33.6673C33.6673 22.8688 33.6514 22.8609 33.6514 22.8531C33.6514 21.7778 33.6514 20.7968 33.6514 19.91C33.6514 19.4273 33.8825 19.2115 34.3688 19.2154C34.9148 19.2154 35.4608 19.2154 36.0068 19.2154C36.0228 19.2154 36.0347 19.2232 36.0347 19.2429V19.8354C36.0347 19.8354 36.0268 19.855 36.0148 19.855H34.5441C34.4405 19.855 34.3927 19.906 34.3927 20.0041V20.5849C34.3927 20.6124 34.4126 20.632 34.4405 20.632H35.8434C35.8434 20.632 35.8673 20.6398 35.8673 20.6555V21.2363C35.8673 21.2363 35.8554 21.2599 35.8434 21.2599H34.4286H34.4166Z" fill="#3F3F40"/>
</g>
<defs>
<clipPath id="clip0_18553_55634">
<rect width="32" height="6" fill="white" transform="translate(4.03516 16.9473)"/>
</clipPath>
</defs>
</svg>
