<svg width="40" height="40" viewBox="0 0 40 40" fill="none" xmlns="http://www.w3.org/2000/svg">
<circle cx="20" cy="20" r="20" fill="#F6F8FA"/>
<path d="M18.1208 16.1883C17.4699 14.8887 16.4856 14.1096 15.168 13.8508C15.5788 13.8391 15.9876 13.7875 16.3884 13.6965C17.827 13.2886 18.657 12.328 18.8785 10.8149C18.9565 10.2809 18.8192 9.73509 18.7836 9.19944C18.6955 7.85579 19.1531 6.79014 20.1566 6.00249C20.5576 5.67623 21.0254 5.442 21.5268 5.31634C22.0283 5.19069 22.5512 5.17668 23.0586 5.27529C23.872 5.42688 24.6093 5.8516 25.1485 6.4792C25.6877 7.1068 25.9965 7.89967 26.0237 8.72662C26.051 9.55358 25.7952 10.3651 25.2985 11.0268C24.8019 11.6886 24.0942 12.161 23.2926 12.3659C22.6908 12.5354 22.0857 12.4422 21.4737 12.4778C20.2453 12.5512 19.3232 13.0597 18.7073 14.0033C18.3536 14.5537 18.1581 15.282 18.1208 16.1883Z" fill="#B3B2B2"/>
<path d="M24.3264 15.902C24.3264 16.4468 24.1649 16.9793 23.8622 17.4323C23.5596 17.8853 23.1294 18.2384 22.626 18.4468C22.1227 18.6553 21.5689 18.7099 21.0345 18.6036C20.5002 18.4973 20.0094 18.235 19.6242 17.8497C19.2389 17.4645 18.9766 16.9737 18.8703 16.4394C18.764 15.905 18.8186 15.3512 19.0271 14.8479C19.2355 14.3446 19.5886 13.9144 20.0416 13.6117C20.4946 13.309 21.0271 13.1475 21.5719 13.1475C22.3023 13.1479 23.0027 13.4383 23.5192 13.9547C24.0356 14.4712 24.326 15.1716 24.3264 15.902Z" fill="#B3B2B2"/>
<path d="M15.1678 13.8507C16.4855 14.1084 17.4698 14.8875 18.1207 16.1882C18.1986 16.3679 18.2902 16.6069 18.3868 16.907C18.6371 17.7098 19.1423 18.409 19.8259 18.8987C20.4341 19.5047 20.826 20.2939 20.9413 21.1447C19.9638 20.2553 18.8801 19.9367 17.6901 20.1887C17.2087 20.2904 16.6731 20.5633 16.1645 20.7904C15.6484 21.0279 15.0838 21.1411 14.516 21.1211C13.9482 21.1011 13.393 20.9484 12.8949 20.6751C12.3968 20.4019 11.9695 20.0159 11.6475 19.5478C11.3254 19.0798 11.1175 18.5428 11.0403 17.98C10.7656 16.0594 11.92 14.4491 13.7694 13.9117C14.227 13.8 14.7022 13.7792 15.1678 13.8507Z" fill="#ED7E21"/>
<path d="M24.6691 25.552C24.0396 25.4134 23.4549 25.1197 22.9679 24.6975C22.4809 24.2753 22.1071 23.7381 21.8806 23.1348C21.7236 22.4084 21.4024 21.7277 20.9415 21.1447C20.8263 20.2939 20.4343 19.5047 19.8262 18.8987C21.1602 19.6463 22.3586 19.4479 23.6418 18.7529C25.7963 17.5833 28.3152 18.8614 28.8966 21.1362C29.0424 21.73 29.0343 22.3511 28.8729 22.9408C28.7115 23.5305 28.4023 24.0693 27.9745 24.5061C27.1224 25.3909 26.0206 25.7396 24.6691 25.552Z" fill="#1BA13E"/>
<path d="M21.1126 23.4992C21.1126 24.044 20.951 24.5765 20.6484 25.0295C20.3457 25.4825 19.9155 25.8355 19.4122 26.044C18.9088 26.2525 18.355 26.307 17.8207 26.2008C17.2863 26.0945 16.7955 25.8321 16.4103 25.4469C16.0251 25.0617 15.7627 24.5709 15.6564 24.0365C15.5502 23.5022 15.6047 22.9484 15.8132 22.445C16.0217 21.9417 16.3747 21.5115 16.8277 21.2089C17.2807 20.9062 17.8133 20.7446 18.358 20.7446C19.0885 20.7451 19.7888 21.0354 20.3053 21.5519C20.8218 22.0684 21.1121 22.7687 21.1126 23.4992Z" fill="#B3B2B2"/>
<path d="M21.8799 23.1348C22.1064 23.7381 22.4802 24.2753 22.9671 24.6975C23.4541 25.1197 24.0389 25.4134 24.6683 25.552C24.309 25.6435 23.9106 25.6401 23.597 25.7367C22.1743 26.1718 21.3595 27.1143 21.1527 28.5642C21.1061 29.0737 21.1317 29.5874 21.229 30.0897C21.6562 33.1307 18.2253 35.3072 15.6352 33.6291C12.9671 31.8984 13.6773 27.9556 16.6522 27.0793C17.4489 26.8453 18.2524 27.0487 19.0491 26.8928C20.5899 26.5911 21.7036 25.452 21.807 23.8416C21.8274 23.6145 21.8494 23.3772 21.8799 23.1348Z" fill="#B3B2B2"/>
<circle cx="20" cy="20" r="19.5" stroke="black" stroke-opacity="0.05"/>
</svg>
