<svg width="40" height="40" viewBox="0 0 40 40" fill="none" xmlns="http://www.w3.org/2000/svg">
<circle cx="20" cy="20" r="20" fill="#F6F8FA"/>
<path d="M10.3589 13H10.8222C10.8222 15.9564 10.8222 18.9128 10.8222 21.8692C10.8222 22.0664 10.8162 22.3101 10.8033 22.6003C10.7843 23.0368 10.8033 23.2659 10.7413 23.5802C10.596 24.3931 10.2443 25.1551 9.72002 25.7932C8.78889 26.9086 7.57332 27.5036 6.07331 27.5782C6.06426 27.5787 6.05521 27.5774 6.04667 27.5743C6.03814 27.5713 6.03028 27.5666 6.02356 27.5605C6.01685 27.5544 6.01139 27.5471 6.00752 27.5389C6.00364 27.5307 6.00142 27.5218 6.00098 27.5128C6.00098 24.3032 6.00385 21.0469 6.00959 17.7437C6.00959 17.5715 6.04231 17.3993 6.0337 17.2219C6.03027 17.1515 6.03753 17.0809 6.05523 17.0127C6.12641 16.7256 6.20218 16.4624 6.28255 16.2231C6.64765 15.1148 7.66029 14.0213 8.7289 13.5468C9.25588 13.3189 9.80117 13.136 10.3589 13Z" fill="#61BBB9"/>
<path d="M20.7369 13H21.3147C21.3181 16.0339 21.3204 19.0678 21.3215 22.1017C21.3215 22.8813 21.286 23.4358 21.2148 23.7653C20.8342 25.5228 19.5262 26.8713 17.8014 27.3914C17.4501 27.4973 17.0566 27.53 16.682 27.5834C16.5485 27.6023 16.4779 27.5412 16.4693 27.4008C16.4616 27.2743 16.4573 27.1425 16.4581 27.0142C16.4616 23.8603 16.4644 20.8178 16.4667 17.8867C16.466 16.9309 16.7525 15.997 17.2891 15.2061C17.9024 14.2578 18.8369 13.5623 19.9214 13.2471L20.7369 13Z" fill="#CEC9A3"/>
<path d="M13.073 13.4107C13.7963 13.7096 14.4367 14.1789 14.9395 14.7786C15.4424 15.3784 15.7929 16.0907 15.9611 16.8551C16.0436 17.3031 16.0796 17.7584 16.0687 18.2139C16.0601 21.3138 16.0584 24.4062 16.0636 27.4912C16.0637 27.4993 16.0622 27.5074 16.0592 27.5149C16.0561 27.5224 16.0517 27.5292 16.046 27.535C16.0403 27.5408 16.0335 27.5454 16.026 27.5485C16.0186 27.5516 16.0105 27.5532 16.0024 27.5532C14.1227 27.548 12.5357 26.4579 11.697 24.7977C11.3302 24.0701 11.2303 23.3451 11.2329 22.465C11.2415 19.2652 11.2415 16.1366 11.2329 13.0792C11.2319 13.0727 11.2325 13.0662 11.2346 13.06C11.2368 13.0538 11.2403 13.0483 11.2451 13.0438C11.2498 13.0393 11.2556 13.036 11.2618 13.0343C11.2681 13.0325 11.2747 13.0322 11.2811 13.0336C11.8958 13.054 12.5022 13.1816 13.073 13.4107Z" fill="#9F7B65"/>
<path d="M32.5807 13.2429C32.6668 13.2135 32.7567 13.1964 32.8476 13.1921C32.8714 13.191 32.8948 13.1855 32.9165 13.1757C33.1404 13.075 33.3557 13.1137 33.5899 13.081C33.7147 13.0629 33.8319 13.05 33.9429 13.0405C33.98 13.0405 33.9989 13.0552 33.998 13.0922C33.9883 16.1984 33.9883 19.3778 33.998 22.6305C34.0044 23.0193 33.9666 23.4075 33.8852 23.7878C33.6191 25.0033 32.889 26.067 31.8505 26.7525C31.5921 26.9276 31.3166 27.0759 31.0281 27.1951C30.7355 27.3207 30.4292 27.4117 30.1154 27.4663C29.8424 27.5111 29.5436 27.5524 29.2207 27.5895C29.2087 27.5907 29.1966 27.5871 29.1871 27.5796C29.1776 27.572 29.1714 27.561 29.1699 27.549V27.5438C29.1699 24.2212 29.1699 20.9235 29.1699 17.6508C29.1699 17.5277 29.1835 17.405 29.2104 17.2848C29.2371 17.1677 29.2603 17.0437 29.2801 16.912C29.3281 16.6074 29.4149 16.3102 29.5385 16.0276C29.6557 15.7502 29.7978 15.4839 29.963 15.232C30.5821 14.2889 31.5062 13.5867 32.5807 13.2429Z" fill="#61BBB9"/>
<path d="M22.6082 13.1207C22.9028 13.1748 23.1913 13.2585 23.4693 13.3704C25.349 14.1299 26.5588 15.8546 26.5554 17.8868C26.5514 21.2129 26.5528 24.2657 26.5597 27.0453C26.5609 27.2004 26.5523 27.3554 26.5339 27.5095C26.5338 27.5158 26.5324 27.522 26.5298 27.5278C26.5272 27.5336 26.5234 27.5388 26.5187 27.543C26.5141 27.5473 26.5086 27.5506 26.5026 27.5527C26.4966 27.5547 26.4902 27.5556 26.4839 27.5551C26.2978 27.5627 26.1114 27.5512 25.9277 27.5206C24.0522 27.2084 22.7606 26.1868 22.0528 24.456C21.9336 24.158 21.847 23.8479 21.7944 23.5312C21.7455 23.2275 21.7222 22.9201 21.7247 22.6124C21.7207 19.4448 21.7207 16.2745 21.7247 13.1017C22.0181 13.0579 22.3169 13.0643 22.6082 13.1207Z" fill="#9F7B65"/>
<circle cx="20" cy="20" r="19.5" stroke="black" stroke-opacity="0.05"/>
</svg>
