<svg width="40" height="40" viewBox="0 0 40 40" fill="none" xmlns="http://www.w3.org/2000/svg">
<circle cx="20" cy="20" r="20" fill="#093463"/>
<path d="M21.2702 19.4057H18.068V18.5766H21.5248V17.4541H16.7537V22.0059H18.0678V20.4874H21.27V19.4059L21.2702 19.4057ZM28.0602 17.4541V22.0059H29.3743V17.4541H28.0602ZM31.7776 20.8814C31.5565 20.8814 31.3819 20.7255 31.3819 20.4979V18.964C31.3819 18.7365 31.5565 18.5805 31.7776 18.5805H34.8373V17.4541H31.5028C31.0804 17.4541 30.7383 17.5796 30.4701 17.8266C30.202 18.0736 30.0678 18.392 30.0678 18.7755V20.6863C30.0678 21.0697 30.202 21.3883 30.4701 21.6352C30.7383 21.8822 31.0804 22.0057 31.5028 22.0057H34.8373V20.8812H31.7776V20.8814Z" fill="white"/>
<path fill-rule="evenodd" clip-rule="evenodd" d="M9.93399 19.7346H8.748L8.57632 19.5494C8.01076 18.9381 7.44556 18.3266 6.8807 17.7147C6.3823 17.1754 5.83794 16.9452 5.21622 17.0109C4.75417 17.0597 4.43054 17.2531 4.22668 17.602C4.08318 17.8481 4.00873 18.1273 4.005 18.4312C4.00132 18.7059 4 19.7265 4 19.7265H5.18953V19.6162C5.18953 19.4314 5.19126 19.2132 5.19281 19.0021C5.19413 18.8228 5.19567 18.6452 5.19585 18.4891C5.19585 18.4413 5.19785 18.3706 5.21449 18.3081C5.23549 18.2282 5.28803 18.1645 5.35903 18.133C5.42644 18.103 5.50221 18.1054 5.57294 18.1396C5.65703 18.1801 5.74507 18.2458 5.81998 18.3241C6.09721 18.6163 6.37489 18.9176 6.64334 19.2089L6.86343 19.4473L6.86693 19.451C6.94722 19.5377 7.0444 19.607 7.15249 19.6547C7.26058 19.7024 7.37729 19.7274 7.49542 19.7283L8.74778 19.7344V19.8444C8.74778 20.0276 8.74623 20.2438 8.7445 20.4531C8.74318 20.6336 8.74164 20.812 8.74141 20.9688C8.74141 21.0165 8.73946 21.0871 8.72282 21.1495C8.702 21.2288 8.64946 21.2923 8.57891 21.3238C8.51169 21.3536 8.43573 21.3516 8.36541 21.3174C8.2811 21.2772 8.19373 21.2117 8.11928 21.1333C7.8436 20.8429 7.56769 20.5435 7.30074 20.254C7.22738 20.1744 7.15379 20.0949 7.0802 20.0151C7.0787 20.0134 7.07715 20.0114 7.0752 20.0094C6.99514 19.9229 6.89818 19.8536 6.79031 19.806C6.68244 19.7583 6.56594 19.7333 6.44802 19.7325L5.18908 19.7274L5.36953 19.9111C5.8568 20.4379 6.34388 20.9649 6.83079 21.492L7.06093 21.7412C7.50306 22.2197 7.98155 22.454 8.51828 22.454C8.58528 22.454 8.65296 22.4505 8.72128 22.4432C9.17568 22.3955 9.5074 22.1971 9.70822 21.8535C9.77963 21.7307 9.83436 21.599 9.87095 21.4617C9.90795 21.3233 9.92763 21.1779 9.9294 21.0262C9.93967 20.0994 9.93422 19.7342 9.93422 19.7342L9.93399 19.7346Z" fill="#1180FE"/>
<path fill-rule="evenodd" clip-rule="evenodd" d="M35.1976 17.5904C35.2824 17.5337 35.3822 17.5034 35.4842 17.5034C35.621 17.5034 35.7522 17.5578 35.8489 17.6545C35.9456 17.7512 35.9999 17.8824 35.9999 18.0191C35.9999 18.1212 35.9697 18.2208 35.913 18.3056C35.8562 18.3903 35.7757 18.4564 35.6814 18.4954C35.5872 18.5344 35.4835 18.5446 35.3835 18.5248C35.2834 18.5048 35.1915 18.4557 35.1194 18.3835C35.0472 18.3114 34.9981 18.2195 34.9782 18.1194C34.9583 18.0194 34.9685 17.9157 35.0075 17.8214C35.0465 17.7272 35.1126 17.6466 35.1973 17.5899L35.1976 17.5904ZM35.2549 18.3623C35.3343 18.4153 35.4296 18.4392 35.5246 18.4299C35.6196 18.4205 35.7084 18.3785 35.7759 18.311C35.8532 18.2337 35.8967 18.1288 35.8968 18.0194C35.8968 17.9377 35.8725 17.8579 35.8271 17.7901C35.7818 17.7222 35.7173 17.6693 35.6419 17.6381C35.5665 17.6068 35.4835 17.5987 35.4034 17.6147C35.3234 17.6307 35.2499 17.67 35.1921 17.7277C35.1344 17.7854 35.0951 17.859 35.0791 17.939C35.0632 18.0191 35.0714 18.102 35.1025 18.1775C35.1338 18.2529 35.1867 18.3173 35.2545 18.3627L35.2549 18.3623ZM35.6452 17.8067C35.6743 17.8358 35.6905 17.8751 35.6905 17.9162C35.6905 17.9502 35.6791 17.983 35.6583 18.0097C35.6377 18.0366 35.6087 18.056 35.576 18.0647L35.7179 18.2771H35.5942L35.4564 18.0708H35.3811V18.2771H35.2779V17.7614H35.5359C35.5768 17.7614 35.6163 17.7776 35.6454 17.8067H35.6452ZM35.3811 17.9676H35.5359C35.5495 17.9676 35.5626 17.9622 35.5725 17.9526C35.5797 17.9453 35.5846 17.9361 35.5866 17.9261C35.5886 17.916 35.5876 17.9057 35.5837 17.8962C35.5798 17.8868 35.5731 17.8787 35.5646 17.873C35.5561 17.8673 35.5461 17.8643 35.5359 17.8643H35.3811V17.9676Z" fill="white"/>
<path d="M11.2029 22.0029V17.4512H14.7062C15.1533 17.4512 15.5227 17.5988 15.8079 17.8775C16.0996 18.1563 16.2421 18.5126 16.2421 18.9468V19.0699C16.2421 19.7439 15.7884 20.2883 15.108 20.4893L16.3201 22.0029H14.8813L13.7667 20.5605H12.4734V22.0029H11.2029ZM12.4732 18.5774V19.4783H14.5507C14.8099 19.4783 14.972 19.3228 14.972 19.083V18.9729C14.972 18.7331 14.8036 18.5776 14.5444 18.5776H12.4734L12.4732 18.5774ZM23.481 17.4538V19.221H26.1222V17.4538H27.3954V22.0056H26.1222V20.3444H23.481V22.0056H22.2079V17.4538H23.481Z" fill="white"/>
<circle cx="20" cy="20" r="19.5" stroke="black" stroke-opacity="0.05"/>
</svg>
