<svg width="40" height="40" viewBox="0 0 40 40" fill="none" xmlns="http://www.w3.org/2000/svg">
<circle cx="20" cy="20" r="20" fill="#F6F8FA"/>
<g clip-path="url(#clip0_22307_36445)">
<path d="M9.40625 26.2794V14.706C9.40625 14.6029 9.4674 14.5126 9.55572 14.461L20.2769 9.07731C20.3652 9.03217 20.4671 9.03217 20.5487 9.07731L31.2563 14.4546C31.3514 14.4997 31.4125 14.5964 31.4057 14.6996V26.2923C31.3921 26.3954 31.3378 26.4857 31.2427 26.5308L20.5555 31.9661C20.4671 32.0113 20.3652 32.0113 20.2837 31.9661L9.55572 26.5179C9.4674 26.4728 9.40625 26.3825 9.40625 26.2794ZM24.4349 18.639C24.4893 18.7422 24.5844 18.8002 24.7067 18.8002H28.7288C28.8036 18.8002 28.8579 18.7422 28.8579 18.6713C28.8579 18.6584 28.8579 18.6455 28.8579 18.639C26.7653 11.9078 15.6365 11.508 12.7897 17.7751C11.7366 20.1026 12.022 22.327 13.6594 24.4483C15.4463 26.763 18.8094 27.8268 21.792 27.4786C25.2638 27.0724 27.6214 25.3638 28.8647 22.3593C28.8783 22.3206 28.8783 22.2626 28.8647 22.2239C28.8511 22.1787 28.8104 22.1465 28.7628 22.1465H24.7475C24.6184 22.1465 24.5029 22.2045 24.4349 22.3077C23.3615 23.9583 21.8396 24.6482 19.8896 24.3838C19.0472 24.2677 18.2998 23.926 17.6612 23.3522C15.8335 21.721 15.9218 19.0646 17.7019 17.4527C18.8094 16.4533 20.4943 16.1954 21.9279 16.6016C23.0217 16.9111 23.8574 17.5881 24.4281 18.639H24.4349Z" fill="#EC6D2F"/>
</g>
<circle cx="20" cy="20" r="19.5" stroke="black" stroke-opacity="0.05"/>
<defs>
<clipPath id="clip0_22307_36445">
<rect width="22" height="24" fill="white" transform="translate(9.40625 8)"/>
</clipPath>
</defs>
</svg>
