<svg width="40" height="40" viewBox="0 0 40 40" fill="none" xmlns="http://www.w3.org/2000/svg">
<circle cx="20" cy="20" r="20" fill="#172F57"/>
<g clip-path="url(#clip0_18553_55865)">
<path d="M24.3603 17.6569L24.4753 18.2523L24.5759 19.071V19.6367C24.6478 21.5273 24.3747 23.3731 23.7567 25.1744C23.2249 26.7225 22.0463 28.5386 20.4653 28.9108C18.6974 29.3276 17.3033 28.2707 16.3834 26.797C16.3116 26.6928 16.3259 26.6779 16.4265 26.7672C17.6482 27.8837 19.258 28.4047 20.609 27.1691C21.2846 26.5588 21.7876 25.8145 22.1182 24.9213C22.5637 23.7453 22.765 22.5544 22.7506 21.3337L22.7218 21.0807C22.765 20.9467 22.765 20.7383 22.7218 20.4555L22.6212 19.7111L22.4344 18.7882L22.2475 18.0439C22.0894 17.4633 21.8595 16.8977 21.5433 16.332C20.4653 14.4266 18.4387 13.846 16.8002 15.4388C15.8373 16.3766 15.4061 17.4485 14.9893 18.7435C15.133 17.0912 15.5929 15.5877 16.3403 14.2479C17.1596 12.7891 18.6256 11.7173 20.2785 12.0745C22.1182 12.4765 23.383 14.367 23.9723 16.1534C24.1304 16.6595 24.2741 17.1656 24.4035 17.6569H24.3603Z" fill="white"/>
<path d="M34.1194 16.8676C34.7087 15.7511 34.22 15.3194 33.1851 15.1408C32.5527 15.0217 31.9491 14.9324 31.4029 14.858C31.1873 14.8282 31.1873 14.7984 31.4029 14.7835L37.8707 14.1732C38.0431 14.1583 38.0575 14.203 37.9138 14.3072L34.1769 16.942C34.0906 17.0016 34.0762 16.9867 34.1194 16.8974V16.8676Z" fill="#ED1C24"/>
<path d="M24.4607 18.252L24.3457 17.6566C27.0909 17.1802 29.8505 16.689 32.5957 16.1978C32.6101 16.1978 32.6244 16.1978 32.6244 16.2126C32.6244 16.2126 32.6244 16.2424 32.6101 16.2424C29.8936 16.9123 27.1771 17.5673 24.4607 18.252Z" fill="#40BAD4"/>
<path d="M24.5615 19.6368V19.0711C26.1138 18.5799 27.6517 18.1035 29.1896 17.6123C29.2039 17.6123 29.2183 17.6123 29.2327 17.6272C29.2327 17.6272 29.2327 17.657 29.2183 17.6718C27.6661 18.3268 26.1138 18.9818 24.5615 19.6368Z" fill="#ED1C24"/>
<path d="M22.2185 18.029L22.4054 18.7734L7.0983 22.5693C7.0983 22.5693 7.04081 22.5693 7.01206 22.5544L5.01424 21.1105C5.01424 21.1105 4.9855 21.0658 5.01424 21.0509C5.01424 21.0509 5.02861 21.0509 5.04299 21.0361L22.2329 18.0142L22.2185 18.029Z" fill="#40BAD4"/>
<path d="M22.5923 19.6963L22.6929 20.4406L11.6546 25.1149C11.6546 25.1149 11.554 25.1297 11.4965 25.1149L9.52738 23.8644C9.52738 23.8644 9.51301 23.8346 9.52738 23.8198C9.52738 23.8198 9.52738 23.8198 9.54176 23.8198L22.5923 19.7261V19.6963Z" fill="#ED1C24"/>
<path d="M22.7219 21.0659L22.7507 21.319L14.1988 26.5738C14.1988 26.5738 14.1557 26.5738 14.1414 26.5738L13.1353 25.8741C13.1353 25.8741 13.1353 25.8593 13.1353 25.8444L22.7219 21.0659Z" fill="#B5D440"/>
</g>
<circle cx="20" cy="20" r="19.5" stroke="black" stroke-opacity="0.05"/>
<defs>
<clipPath id="clip0_18553_55865">
<rect width="33" height="17" fill="white" transform="translate(5 12)"/>
</clipPath>
</defs>
</svg>
