<svg width="40" height="40" viewBox="0 0 40 40" fill="none" xmlns="http://www.w3.org/2000/svg">
<circle cx="20" cy="20" r="20" fill="#1E1E23"/>
<g clip-path="url(#clip0_18553_55779)">
<path d="M12.76 22.0448C12.71 20.5148 12.7 18.9248 12.73 17.2748C12.73 17.2348 12.75 17.2248 12.79 17.2248H14.87C14.87 17.2248 14.92 17.2448 14.92 17.2748V24.1348C14.92 24.1848 14.88 24.2348 14.83 24.2348H11.47C11.38 24.2348 11.32 24.1948 11.27 24.1248L8.34 19.0448C8.34 19.0448 8.29 18.9948 8.25 18.9948C8.19 18.9948 8.16 19.0248 8.16 19.0648C8.21 20.8248 8.22 22.5148 8.19 24.1548C8.19 24.1948 8.16 24.2248 8.12 24.2248H6.09C6.09 24.2248 6 24.1848 6 24.1348V17.2948C6 17.2948 6.03 17.2148 6.07 17.2148H9.61C9.69 17.2148 9.75 17.2448 9.78 17.3148L12.55 22.1048C12.7 22.3548 12.76 22.3348 12.75 22.0448H12.76Z" fill="white"/>
<path d="M18.4199 22.0248C18.4199 22.0248 18.3499 22.0548 18.3499 22.0948V24.1648C18.3499 24.1648 18.3399 24.2248 18.2999 24.2248H16.4799C16.4799 24.2248 16.4399 24.2148 16.4399 24.1848V17.3248C16.4399 17.2548 16.4699 17.2148 16.5499 17.2148C18.6499 17.2148 20.8399 17.2148 23.1299 17.2148C24.5599 17.2148 25.4099 18.2848 25.3599 19.7148C25.2999 21.5348 24.0799 22.0748 22.4599 22.0348C21.0799 22.0048 19.7299 22.0048 18.4299 22.0348L18.4199 22.0248ZM18.3499 19.0948V20.1348C18.3499 20.1948 18.3999 20.2448 18.4599 20.2448H22.8699C23.2199 20.2448 23.4999 19.9748 23.4999 19.6448V19.5848C23.4999 19.2548 23.2199 18.9848 22.8699 18.9848H18.4599C18.3999 18.9848 18.3499 19.0348 18.3499 19.0948Z" fill="white"/>
<path d="M30.84 21.7046C30.71 21.8246 30.74 21.8646 30.9 21.8146L32.2 21.4046C32.28 21.3846 32.35 21.4046 32.41 21.4546L35.21 24.1146C35.29 24.1946 35.28 24.2246 35.17 24.2246H32.6C32.52 24.2246 32.44 24.1846 32.38 24.1346L30.42 22.2446C30.42 22.2446 30.33 22.2146 30.29 22.2446L28.26 24.1846C28.26 24.1846 28.22 24.2146 28.19 24.2146C27.33 24.2146 26.4 24.2146 25.41 24.2146C26.52 23.1646 27.67 22.0646 28.85 20.9146C28.91 20.8546 28.91 20.8046 28.85 20.7446L25.21 17.2446V17.2246C25.21 17.2246 25.21 17.2246 25.22 17.2246H27.96C27.96 17.2246 28.04 17.2446 28.08 17.2746L30.27 19.3946C30.27 19.3946 30.37 19.4346 30.41 19.3946L32.62 17.2646C32.62 17.2646 32.68 17.2246 32.72 17.2246C33.69 17.2246 34.62 17.2246 35.5 17.2246C35.5 17.2246 35.5 17.2246 35.5 17.2346C33.98 18.6546 32.42 20.1446 30.83 21.6946L30.84 21.7046Z" fill="white"/>
</g>
<circle cx="20" cy="20" r="19.5" stroke="black" stroke-opacity="0.05"/>
<defs>
<clipPath id="clip0_18553_55779">
<rect width="29.51" height="7.01" fill="white" transform="translate(6 17.2148)"/>
</clipPath>
</defs>
</svg>
