<svg width="40" height="40" viewBox="0 0 40 40" fill="none" xmlns="http://www.w3.org/2000/svg">
<circle cx="20" cy="20" r="20" fill="#3B5EAB"/>
<path d="M9.04432 9.29172C9.1032 9.16147 9.20047 9.13357 9.30781 9.08483C9.41415 8.98724 9.52754 9.00002 9.63557 9.00114C16.8423 9.07553 24.0493 9.00826 31.2843 9.05464C31.3125 9.07099 31.3086 9.06944 31.3085 9.07153C31.3712 9.13217 31.4186 9.20061 31.4509 9.31488C31.4784 9.49843 31.4724 9.65156 31.4724 9.80436C31.4728 16.6095 31.473 23.4146 31.4713 30.2198C31.4713 30.3924 31.5021 30.5705 31.3986 30.7616C23.9635 30.7877 16.5481 30.7879 9.10233 30.7873C8.97448 30.6746 9.00264 30.5379 9.00262 30.4095C9.00125 23.488 9.00136 16.5665 9.00201 9.64503C9.00202 9.53625 8.99073 9.42597 9.04432 9.29172Z" fill="#3B5EAB"/>
<path d="M21.3529 19.802C21.06 19.5525 20.7771 19.3293 20.5329 19.0613C20.4339 18.9527 20.415 18.8781 20.5309 18.7635C20.6856 18.6107 20.814 18.4317 20.9594 18.269C21.1071 18.1038 21.1071 17.9869 20.8949 17.8653C20.4117 17.5884 19.9432 17.2861 19.4616 17.0064C19.2869 16.905 19.2 16.7705 19.1477 16.5778C18.277 13.3743 20.5202 10.0147 23.8112 9.57933C25.5645 9.34739 27.1552 9.71858 28.5602 10.8015C29.685 11.6684 30.3113 12.8441 30.586 14.2181C30.6671 14.6239 30.7057 15.038 30.7732 15.4467C30.8018 15.6197 30.7416 15.6703 30.5713 15.6875C28.3893 15.9068 26.208 16.1329 24.0267 16.3591C23.4407 16.4199 22.8561 16.4954 22.2693 16.5467C22.0611 16.565 22.0598 16.6372 22.1445 16.7887C22.6369 17.6699 23.3883 18.1883 24.3819 18.313C25.6814 18.476 26.7456 18.0236 27.5396 16.9776C27.6705 16.8052 27.7573 16.7931 27.9339 16.9046C28.5063 17.2661 29.087 17.6147 29.6716 17.9563C29.8559 18.0639 29.8755 18.1518 29.7503 18.3303C29.3645 18.8801 28.9218 19.3714 28.3842 19.7765C28.2414 19.8841 28.1215 19.9123 27.9414 19.822C26.436 19.0668 24.8714 18.9864 23.2473 19.4634C23.1909 19.5726 23.1058 19.6056 23.0213 19.6184C22.7123 19.6651 22.4494 19.8219 22.1786 19.9591C21.7597 20.1712 21.7099 20.1645 21.3529 19.802Z" fill="#D0D1D4"/>
<path d="M17.4574 20.5333C16.3393 20.7777 15.2516 20.787 14.1626 20.4824C11.541 19.7493 9.75733 17.2375 10.0727 14.5512C10.3384 12.2882 11.627 10.7229 13.7467 9.93552C15.9522 9.11623 18.0002 9.51656 19.8217 11.0161C20.1438 11.2814 20.1383 11.2881 19.8237 11.5486C19.2936 11.9877 18.7545 12.4164 18.2383 12.8712C18.0485 13.0384 17.9387 13.0551 17.728 12.889C16.2863 11.7523 14.1068 12.1798 13.2498 13.7518C12.3377 15.4251 13.3182 17.4766 15.2242 17.855C16.4057 18.0895 17.4066 17.7387 18.1923 16.8269C18.3371 16.659 18.4283 16.6328 18.6086 16.7469C19.273 17.1673 19.941 17.5823 20.616 17.9853C20.7835 18.0853 20.7929 18.1522 20.6787 18.3039C20.1516 19.004 19.5176 19.5776 18.7298 20.0109C18.3517 20.3129 17.9435 20.4883 17.4574 20.5333Z" fill="#FDFDFD"/>
<path d="M20.6968 30.3C19.7759 30.3343 18.8699 30.3414 17.9639 30.345C17.9246 30.3451 17.8852 30.3142 17.8243 30.2798C17.738 30.1864 17.7646 30.0953 17.7646 30.0111C17.7647 28.7161 17.7598 27.4212 17.7769 26.0957C17.7806 25.2255 17.8689 24.3802 17.692 23.5493C17.4567 22.4448 17.0293 22.0295 15.9207 21.8933C15.1208 21.795 14.3375 21.8673 13.7479 22.5227C13.3641 22.9493 13.271 23.4941 13.2007 24.0378C13.0588 25.1366 13.155 26.2422 13.1217 27.3443C13.0951 28.2285 13.0862 29.1133 13.0823 29.9978C13.0814 30.198 13.0383 30.2992 12.8163 30.2981C12.3358 30.2956 11.854 30.3359 11.3751 30.3115C10.7974 30.282 10.4706 29.8459 10.4556 29.1273C10.4425 28.5046 10.4462 27.8816 10.4441 27.2587C10.438 25.379 10.4344 23.4993 10.4259 21.6197C10.4232 21.0081 10.4147 20.3965 10.396 19.7852C10.3894 19.5692 10.4679 19.4796 10.6807 19.508C10.6914 19.5094 10.7027 19.509 10.7135 19.5078C11.4091 19.4262 11.9907 19.6263 12.5965 20.014C14.1508 21.0086 15.8544 21.1774 17.6456 20.632C17.9551 20.4015 18.318 20.3509 18.6337 20.1933C18.7128 20.1538 18.8008 20.2063 18.8901 20.277C19.3369 20.6523 19.7206 21.0492 19.9973 21.5399C20.068 21.6653 20.11 21.7686 20.0144 21.925C18.6978 24.0807 18.8939 26.5091 20.5274 28.437C20.5829 28.5026 20.628 28.5771 20.6847 28.6695C20.7416 29.2178 20.7042 29.7452 20.6968 30.3Z" fill="#CFD1D4"/>
<path d="M23.4856 19.581C25.1506 19.1862 26.7066 19.3849 28.1557 20.2803C31.5716 22.3911 31.5223 27.3403 28.0649 29.3901C25.666 30.8123 22.5184 30.366 20.7558 28.3536C18.6133 25.9075 19.0063 22.431 21.6596 20.4495C21.6831 20.4098 21.6979 20.3906 21.734 20.3722C21.7523 20.3705 21.748 20.3753 21.7512 20.375C21.7928 20.279 21.8617 20.2019 21.9494 20.16C22.4376 19.9268 22.888 19.5892 23.4856 19.581Z" fill="#FCFDFD"/>
<path d="M23.4799 19.565C22.9132 19.782 22.3176 19.9908 21.7763 20.3689C21.7521 20.1957 21.6279 20.1011 21.4882 20.0447C21.3788 20.0005 21.3313 19.9435 21.3366 19.8086C21.6349 20.056 21.9243 20.0859 22.2733 19.8345C22.534 19.6467 22.852 19.5384 23.2034 19.4819C23.2788 19.5756 23.3688 19.563 23.4799 19.565Z" fill="#4F6AAB"/>
<path d="M17.7696 26.0854C17.7954 27.4439 17.8032 28.8224 17.8069 30.2315C17.7532 30.2293 17.7314 30.1813 17.7317 30.1239C17.7381 28.7844 17.7449 27.445 17.7696 26.0854Z" fill="#3B5997"/>
<path d="M18.9057 20.2732C18.7877 20.2334 18.6776 20.2281 18.5495 20.2987C18.2881 20.4426 18.0059 20.5411 17.6931 20.6219C17.6262 20.5516 17.5556 20.5504 17.4604 20.5415C17.8482 20.3764 18.2752 20.2476 18.6921 20.0322C18.6975 20.1705 18.8909 20.134 18.9057 20.2732Z" fill="#4F6AAB"/>
<path d="M20.7039 30.3246C20.6811 29.8027 20.6803 29.2771 20.6855 28.7217C20.8112 28.9634 20.733 29.2489 20.7443 29.5274C20.755 29.7913 20.7333 30.0565 20.7039 30.3246Z" fill="#3B5997"/>
<path d="M21.7334 20.3716C21.7371 20.3877 21.7221 20.4053 21.6894 20.4271C21.6861 20.4119 21.7004 20.3925 21.7334 20.3716Z" fill="#4F6AAB"/>
<path d="M26.8931 12.8303C27.1112 13.0591 27.2939 13.2851 27.4562 13.5909C25.5822 13.7905 23.7461 13.986 21.8716 14.1856C22.1818 13.2109 22.7561 12.5338 23.7029 12.2372C24.852 11.8772 25.9459 11.9231 26.8931 12.8303Z" fill="#3C5FAB"/>
<path d="M10.7079 25.4726C10.7079 25.1469 10.7079 24.854 10.7079 24.561C10.7232 24.5612 10.7386 24.5614 10.754 24.5616C10.754 25.558 10.754 26.5544 10.754 27.5508C10.7386 27.5512 10.7232 27.5516 10.7079 27.552C10.7079 26.8698 10.7079 26.1875 10.7079 25.4726Z" fill="#D1CEEB"/>
<path d="M25.5627 21.1743C27.5306 21.4834 28.8813 23.0145 28.8614 24.8873C28.8438 26.5559 27.5685 28.0254 25.8194 28.3928C23.9456 28.7864 21.9907 27.7018 21.4072 25.945C20.7026 23.8236 22.0915 21.5718 24.3262 21.2071C24.7282 21.1415 25.1295 21.118 25.5627 21.1743Z" fill="#3F5FA9"/>
<path d="M28.1315 25.0151C28.1202 26.1076 27.5999 26.9139 26.6714 27.455C25.6692 28.039 24.6356 28.0709 23.5784 27.5368C23.4662 27.2833 23.6072 27.2275 23.7828 27.2724C24.342 27.4154 24.8472 27.1997 25.3805 27.1069C25.9279 27.0117 26.298 26.6307 26.7822 26.4491C27.0716 26.3406 27.2191 26.0029 27.5193 25.8811C27.5486 25.4797 27.9547 25.3337 28.1315 25.0151Z" fill="#884315"/>
<path d="M28.1619 24.9871C28.034 25.2195 28.0096 25.5047 27.7073 25.5635C27.6891 25.567 27.6581 25.5931 27.6603 25.601C27.8014 26.1011 27.2227 26.0435 27.0831 26.3415C26.9728 26.577 26.6404 26.5502 26.4517 26.7045C25.8146 27.2254 25.0264 27.2795 24.2714 27.4377C24.1053 27.4725 23.9475 27.4094 23.7947 27.3522C23.6722 27.3063 23.5787 27.2955 23.5681 27.491C23.2521 27.415 22.9951 27.2286 22.771 26.9627C22.8412 26.732 23.0197 26.7602 23.1772 26.7842C23.6669 26.8588 24.1583 26.8132 24.6488 26.8234C24.7034 26.8245 24.7595 26.8231 24.8115 26.8077C25.6513 26.5582 26.449 26.25 27.0752 25.5829C27.3117 25.331 27.5126 25.0853 27.6484 24.7694C27.7211 24.6004 27.8154 24.3947 28.1022 24.4671C28.1987 24.6336 28.1571 24.7988 28.1619 24.9871Z" fill="#9A4C1A"/>
<path d="M22.3267 26.3455C22.2461 26.236 22.1896 26.1364 22.1344 26.0148C22.1343 25.901 22.0442 25.8123 22.1485 25.7073C22.5538 25.7499 22.8648 25.9995 23.2325 26.0881C23.7589 26.215 24.2906 26.3709 24.8115 26.0628C24.8985 26.0113 24.992 25.9782 25.0909 25.9832C25.3207 25.9947 25.5088 25.8964 25.7038 25.791C26.6363 25.287 27.1771 24.5124 27.3364 23.468C27.3551 23.3455 27.394 23.2359 27.5099 23.1416C27.6478 23.1739 27.666 23.2921 27.7361 23.3951C27.9251 23.9194 27.7385 24.3606 27.4735 24.762C26.9096 25.6159 26.2231 26.3173 25.1647 26.5545C24.2013 26.7704 23.2665 26.7384 22.3267 26.3455Z" fill="#B65B23"/>
<path d="M22.3071 26.3571C22.5999 26.1828 22.8031 26.4626 23.0618 26.5063C24.6674 26.7773 26.1005 26.4913 27.1381 25.0948C27.4276 24.7051 27.581 24.2852 27.7571 23.8566C27.826 23.6888 27.6473 23.5877 27.7214 23.4292C27.9666 23.7166 28.0596 24.0651 28.1224 24.4524C27.813 24.4743 27.7417 24.7347 27.6561 24.9448C27.5534 25.1969 27.3828 25.3705 27.2095 25.5725C26.868 25.9705 26.4088 26.1917 26.0281 26.522C25.8519 26.6747 25.5434 26.6213 25.3042 26.7331C24.6337 27.0466 23.9218 26.9178 23.2216 26.8717C23.0795 26.8623 22.9421 26.8267 22.7879 26.9265C22.764 26.9422 22.7635 26.9368 22.7639 26.9341C22.7395 26.8894 22.7459 26.8245 22.6588 26.8093C22.6394 26.8046 22.638 26.7999 22.6392 26.7978C22.6258 26.7418 22.5981 26.6986 22.5268 26.6666C22.3955 26.5983 22.3706 26.4764 22.3071 26.3571Z" fill="#A8531F"/>
<path d="M21.9471 24.5074C21.9056 24.3134 21.9999 24.1586 22.0342 23.9731C22.2133 23.9536 22.2632 24.1014 22.369 24.2074C22.4037 24.3074 22.4124 24.3971 22.52 24.4532C22.5479 24.4785 22.5582 24.4898 22.5817 24.5204C22.6864 24.7141 22.854 24.808 23.0155 24.8878C24.3434 25.544 25.6915 24.97 26.1671 23.6464C26.3613 23.1062 26.1192 22.6474 26.1837 22.1334C26.3071 22.1165 26.4032 22.1534 26.5042 22.2375C26.6082 22.3095 26.6625 22.3883 26.6693 22.4941C26.7266 23.387 26.6975 24.2522 25.9047 24.8723C25.8705 24.899 25.845 24.936 25.8004 24.9899C25.5229 25.2868 25.102 25.287 24.816 25.5716C24.0372 25.6816 23.2938 25.7032 22.636 25.2183C22.5654 25.1662 22.485 25.1316 22.3762 25.0996C22.3363 25.0859 22.3209 25.0798 22.2845 25.0611C22.1634 25.0053 22.2284 24.8187 22.0491 24.8309C22.0139 24.8323 21.9997 24.8286 21.9717 24.8075C21.9091 24.7019 21.9707 24.6143 21.9471 24.5074Z" fill="#F07A35"/>
<path d="M21.9439 25.2955C21.9079 25.1386 21.8871 25.0025 21.8704 24.8408C21.8979 24.793 21.9254 24.783 21.9762 24.801C21.9948 24.8149 21.9955 24.8158 21.996 24.8161C22.1227 24.9074 22.162 25.0461 22.1691 25.1581C22.1347 25.1196 22.1493 25.0596 22.2358 25.0079C22.2582 25.0123 22.258 25.0129 22.2582 25.0128C22.879 25.6843 24.1482 25.8862 24.9647 25.5444C25.0094 25.5064 25.0387 25.4908 25.094 25.4736C25.6122 25.4268 26.3899 24.7943 26.5244 24.3041C26.536 24.2654 26.5419 24.2502 26.5607 24.2142C26.7544 24.0132 26.8178 23.7808 26.8255 23.5406C26.8335 23.2896 26.8536 23.0427 26.9095 22.773C26.9127 22.6955 26.9248 22.6459 26.9701 22.5827C27.0256 22.5808 27.0618 22.5964 27.1067 22.6302C27.1442 22.6783 27.1443 22.7208 27.1813 22.7617C27.1998 22.7683 27.1965 22.7633 27.1995 22.7629C27.4602 23.9078 26.9197 24.7379 26.1021 25.4257C25.3667 26.0445 24.4719 26.3082 23.5438 26.1156C22.9796 25.9985 22.3386 25.8726 21.9439 25.2955Z" fill="#D0682B"/>
<path d="M21.927 25.2997C22.3238 25.6805 22.8696 25.8119 23.3664 26.003C23.7886 26.1654 24.2906 26.1413 24.722 26.0228C25.519 25.8037 26.2324 25.3987 26.6939 24.6717C26.9035 24.3414 27.1176 24.0289 27.1478 23.5869C27.1652 23.333 27.0969 23.0642 27.1935 22.7876C27.2561 22.7992 27.3097 22.8359 27.3705 22.8917C27.3875 22.9216 27.3972 22.9324 27.4215 22.9596C27.4361 22.9759 27.4498 22.994 27.4496 23.0053C27.4554 23.0449 27.4679 23.0699 27.5049 23.1033C27.5227 23.1151 27.5329 23.122 27.5335 23.1278C27.4648 23.2899 27.4393 23.4546 27.4084 23.6227C27.2997 24.2142 27.0142 24.7212 26.6447 25.196C26.328 25.6031 25.8789 25.8861 25.4508 26.0161C24.7953 26.2152 24.094 26.4958 23.3768 26.2524C22.9653 26.1127 22.5742 25.9129 22.1499 25.7379C21.9603 25.7396 22.0314 25.581 21.9605 25.4929C21.9409 25.4242 21.933 25.3746 21.927 25.2997Z" fill="#C26128"/>
<path d="M22.3388 24.304C22.3155 24.134 22.0889 24.1455 22.0698 23.9689C22.0936 23.8229 22.1214 23.6848 22.2278 23.557C22.5391 23.9204 22.8534 24.2672 23.2772 24.516C23.88 24.8699 24.8919 24.7945 25.3397 24.2539C25.7658 23.7395 26.0603 23.1494 25.6907 22.4331C25.6729 22.3991 25.6648 22.3862 25.6461 22.3531C25.618 22.2925 25.6066 22.2497 25.5861 22.1877C25.5537 22.1036 25.4991 22.0493 25.5259 21.9545C25.7124 21.9098 25.8655 22.0063 26.0514 22.0388C26.1603 22.3313 26.2141 22.6198 26.2572 22.9035C26.3433 23.4696 26.0773 23.9414 25.7362 24.3603C24.9169 25.3662 23.4704 25.3249 22.5397 24.5051C22.5208 24.4874 22.5204 24.4877 22.5206 24.4875C22.4649 24.4307 22.4095 24.3738 22.3388 24.304Z" fill="#F38F55"/>
<path d="M25.6465 22.3237C26.0074 22.6319 25.9957 23.3346 25.7773 23.7629C25.5099 24.2873 25.11 24.6188 24.5431 24.764C23.7818 24.9589 23.1187 24.6772 22.6207 24.0804C22.4931 23.9274 22.1883 23.8974 22.2495 23.5705C22.246 23.5429 22.2453 23.5222 22.2514 23.5138C22.2763 23.4883 22.2928 23.4693 22.311 23.4297C22.3283 23.381 22.3416 23.3509 22.3701 23.313C22.4092 23.2857 22.4367 23.2767 22.4894 23.2806C22.5234 23.2932 22.5354 23.302 22.5588 23.33C22.6248 23.5639 22.7208 23.7544 22.9117 23.9137C22.9403 23.9388 22.9514 23.9495 22.9776 23.9779C23.314 24.3388 23.6626 24.5106 24.1763 24.4355C24.6176 24.3709 25.018 24.3084 25.3008 23.944C25.6085 23.5475 25.8079 23.1238 25.5269 22.619C25.4609 22.5004 25.4721 22.3843 25.6465 22.3237Z" fill="#F59C66"/>
<path d="M22.5715 23.0555C22.5835 22.9781 22.6002 22.9308 22.6804 22.9083C22.9199 22.8339 22.917 23.0208 22.9708 23.14C23.1041 23.4352 23.212 23.7493 23.5685 23.8975C23.6048 23.9114 23.6188 23.918 23.6518 23.9377C23.9194 24.1466 24.1735 24.1347 24.4485 23.9559C24.6553 23.8431 24.8202 23.7125 24.9822 23.5405C25.2599 23.1205 25.2538 22.8895 24.9555 22.4972C24.8302 22.3323 24.8051 22.1865 25.009 22.037C25.1498 22.0106 25.236 22.0374 25.2822 22.1668C25.3491 22.3545 25.4523 22.5268 25.5432 22.7039C25.616 22.8458 25.639 22.9943 25.6074 23.1473C25.3089 24.5929 23.7855 24.7001 23.0823 24.097C23.041 24.0616 22.9969 24.0298 22.9343 23.9793C22.9146 23.9623 22.9141 23.9627 22.9143 23.9625C22.7959 23.7817 22.7666 23.5611 22.6411 23.3583C22.6182 23.309 22.6119 23.2791 22.6138 23.2249C22.6074 23.1558 22.5768 23.1192 22.5715 23.0555Z" fill="#F6B287"/>
<path d="M22.521 24.5119C22.8181 24.6274 23.1066 24.7918 23.4146 24.9017C23.926 25.0842 24.434 25.0929 24.9491 24.8512C25.3847 24.6469 25.7072 24.3439 25.9275 23.9327C26.146 23.5248 26.3314 23.1054 26.099 22.627C26.0155 22.455 26.1042 22.2308 25.9632 22.0659C25.9848 22.0632 26.0064 22.0604 26.0492 22.0562C26.1055 22.0644 26.1406 22.0742 26.1869 22.0987C26.2633 22.5124 26.4722 22.925 26.3704 23.3062C26.1853 23.9994 25.8705 24.6516 25.1655 24.996C24.7213 25.2129 24.2756 25.3502 23.7621 25.2078C23.3777 25.1013 22.9858 25.0466 22.6725 24.7663C22.5962 24.6981 22.5159 24.6506 22.521 24.5119Z" fill="#F38647"/>
<path d="M22.9167 23.9854C23.1945 23.958 23.3438 24.2139 23.6003 24.2924C24.2655 24.4962 24.9661 24.1964 25.342 23.6095C25.7193 23.0204 25.3735 22.5906 25.1706 22.1109C25.1592 22.0837 25.093 22.0798 25.0316 22.0646C24.9478 22.1203 24.8728 22.134 24.7691 22.1214C24.7324 22.1116 24.7183 22.1061 24.6854 22.0882C24.6345 22.045 24.6078 22.0098 24.5761 21.952C24.8739 21.8214 25.184 21.8708 25.5158 21.9223C25.5355 22.0158 25.5913 22.0533 25.6575 22.1078C25.6224 22.1741 25.5619 22.2217 25.6551 22.3075C25.6704 22.3221 25.6706 22.3223 25.6706 22.3223C25.6073 22.4013 25.5038 22.4491 25.5823 22.5944C25.8877 23.1596 25.6481 23.8894 25.1162 24.2516C24.8033 24.4647 24.4526 24.4105 24.1443 24.5161C23.6539 24.6841 23.3809 24.3937 23.0489 24.1894C22.9905 24.1534 22.9614 24.0699 22.9167 23.9854Z" fill="#F6A776"/>
<path d="M24.5404 21.9292C24.6009 21.9425 24.6338 21.9531 24.6757 21.9794C24.6766 22.006 24.6685 22.0169 24.6734 22.0435C24.7765 22.0603 24.8667 22.0614 24.9839 22.0634C24.8851 22.2253 24.9144 22.3591 25.0571 22.5021C25.3543 22.7999 25.3498 23.2123 25.0378 23.565C24.8725 23.3964 24.9411 23.1912 24.9315 23.0004C24.9068 22.5047 24.4642 22.1866 23.9538 22.3335C23.6473 22.4229 23.3932 22.544 23.2756 22.8663C23.2157 23.1893 23.2994 23.4387 23.5291 23.6453C23.6073 23.7156 23.6849 23.7994 23.6495 23.9433C23.4063 24.0114 23.3012 23.8691 23.1715 23.7074C22.978 23.4663 22.9387 23.1532 22.7253 22.9107C23.1712 22.3325 23.7967 22.0455 24.5404 21.9292Z" fill="#F2BE9A"/>
<path d="M26.9786 22.5471C26.9872 22.6194 26.9849 22.6735 26.9824 22.7544C26.8599 22.9224 26.8313 23.091 26.8528 23.2677C26.8942 23.6066 26.8001 23.9088 26.6049 24.2082C26.5894 24.2257 26.5893 24.2584 26.5892 24.2748C26.376 24.5877 26.2008 24.9227 25.7775 25.0303C25.7457 24.7733 25.9685 24.6549 26.1028 24.5508C26.4337 24.2942 26.4899 23.9127 26.5599 23.5879C26.6477 23.1803 26.6428 22.7301 26.5329 22.2769C26.6965 22.3021 26.8357 22.4097 26.9786 22.5471Z" fill="#E37231"/>
<path d="M21.9463 25.4979C22.0983 25.4892 22.0333 25.6363 22.1089 25.7216C22.1387 25.8127 22.1517 25.8898 22.1502 25.9798C21.9979 25.8659 21.9886 25.6868 21.9463 25.4979Z" fill="#A8531F"/>
<path d="M22.6443 26.8226C22.7025 26.7769 22.7237 26.6489 22.7994 26.6933C22.8777 26.7392 22.7798 26.8189 22.7717 26.9087C22.726 26.901 22.6875 26.871 22.6443 26.8226Z" fill="#9A4C1A"/>
<path d="M21.995 24.79C21.9679 24.8153 21.9412 24.8156 21.8944 24.8156C21.847 24.7151 21.8845 24.6248 21.9261 24.5112C22.0266 24.5651 21.9858 24.6706 21.995 24.79Z" fill="#DE6F2E"/>
<path d="M22.5183 26.6748C22.574 26.6587 22.6313 26.6709 22.6416 26.7726C22.6028 26.7612 22.5651 26.7268 22.5183 26.6748Z" fill="#9A4C1A"/>
<path d="M22.5643 23.0449C22.6 23.0693 22.6184 23.1036 22.6443 23.156C22.6325 23.1903 22.6131 23.2066 22.5574 23.2121C22.4876 23.1452 22.5122 23.0991 22.5643 23.0449Z" fill="#F6A776"/>
<path d="M22.5191 23.2025C22.5427 23.1965 22.5644 23.1913 22.6189 23.1802C22.6524 23.2037 22.6529 23.2331 22.6537 23.2846C22.6274 23.3297 22.5966 23.3393 22.541 23.321C22.5097 23.2909 22.4989 23.275 22.4995 23.2326C22.5108 23.2061 22.5172 23.2032 22.5191 23.2025Z" fill="#F59C66"/>
<path d="M27.1989 22.7484C27.1532 22.7621 27.127 22.7349 27.1167 22.6689C27.143 22.675 27.1705 22.7018 27.1989 22.7484Z" fill="#C26128"/>
<path d="M22.4889 23.207C22.5134 23.2227 22.5158 23.2394 22.5194 23.2814C22.4904 23.3066 22.4604 23.3065 22.408 23.3057C22.4126 23.2727 22.4398 23.2404 22.4889 23.207Z" fill="#F6A776"/>
<path d="M27.5174 23.0946C27.5012 23.0968 27.4797 23.0783 27.4539 23.0383C27.4703 23.0358 27.4912 23.0548 27.5174 23.0946Z" fill="#B65B23"/>
<path d="M27.4325 22.9604C27.4158 22.9692 27.4002 22.9568 27.3833 22.9248C27.3995 22.915 27.4167 22.9264 27.4325 22.9604Z" fill="#B65B23"/>
<path d="M22.2987 23.4219C22.3065 23.4349 22.2979 23.4589 22.2735 23.494C22.2659 23.4811 22.2741 23.4569 22.2987 23.4219Z" fill="#F38F55"/>
<path d="M24.9925 25.5217C25.0157 25.6451 24.995 25.7188 24.86 25.7364C24.3436 25.8036 23.8054 25.8992 23.3212 25.7136C22.944 25.5691 22.4502 25.5373 22.2585 25.0372C22.4248 25.0021 22.5599 25.0431 22.7062 25.1486C23.0688 25.4102 23.4722 25.5769 23.9405 25.5416C24.2107 25.5212 24.4836 25.5376 24.786 25.5374C24.862 25.4984 24.9133 25.4879 24.9925 25.5217Z" fill="#DE6F2E"/>
<path d="M25.0363 25.5379C24.9651 25.5379 24.9156 25.5378 24.8414 25.5375C24.8177 25.4041 24.9102 25.3401 25.0167 25.3116C25.2569 25.2473 25.4684 25.1236 25.7114 25.013C25.7358 25.0125 25.7361 25.0128 25.7361 25.0128C25.8254 25.1633 25.7014 25.224 25.6133 25.2947C25.4859 25.3969 25.3266 25.437 25.1634 25.521C25.1162 25.5376 25.0872 25.5377 25.0363 25.5379Z" fill="#E37231"/>
<path d="M22.2579 24.9888C22.1829 25.0556 22.1984 25.1414 22.1613 25.2149C22.1521 25.0712 22.0007 25.005 21.9966 24.8407C22.0516 24.7703 22.1066 24.7241 22.1769 24.665C22.2052 24.7703 22.2314 24.8678 22.2579 24.9888Z" fill="#DE6F2E"/>
<path d="M22.3246 24.3145C22.4287 24.2884 22.5231 24.2995 22.5199 24.4632C22.4147 24.4914 22.3202 24.4805 22.3246 24.3145Z" fill="#F38647"/>
<path d="M25.1723 25.5378C25.1666 25.3692 25.3239 25.3849 25.4259 25.3208C25.5379 25.2503 25.6883 25.2139 25.7337 25.0362C26.0059 24.9167 26.2049 24.7351 26.3543 24.4959C26.4043 24.4158 26.4299 24.3155 26.566 24.2935C26.68 24.5974 26.4077 24.7228 26.2542 24.868C25.9512 25.1546 25.6866 25.5315 25.1723 25.5378Z" fill="#DE6F2E"/>
<path d="M26.6132 24.2226C26.5943 24.14 26.5783 24.0536 26.6393 23.9756C26.7956 23.7755 26.8099 23.5473 26.7942 23.2998C26.7826 23.1167 26.7143 22.8936 26.9624 22.7744C26.8765 23.1814 26.981 23.6117 26.8046 24.0035C26.7644 24.0926 26.7557 24.1953 26.6132 24.2226Z" fill="#DE6F2E"/>
<path d="M25.6704 22.2971C25.5943 22.3067 25.4747 22.3648 25.4521 22.2662C25.4298 22.1684 25.5526 22.1613 25.646 22.1265C25.6693 22.1734 25.6699 22.2229 25.6704 22.2971Z" fill="#F59C66"/>
<path d="M22.5205 23.3323C22.5501 23.3067 22.5798 23.3068 22.6318 23.3066C22.829 23.4692 22.9193 23.6686 22.9146 23.9358C22.6389 23.855 22.5507 23.6253 22.5205 23.3323Z" fill="#F6A776"/>
<path d="M23.6361 23.9628C23.6302 23.7988 23.4934 23.7248 23.3968 23.6282C23.1856 23.4167 23.1074 23.1806 23.232 22.8708C23.2346 22.8215 23.2373 22.8007 23.2546 22.792C23.3126 22.7629 23.3373 22.8128 23.3513 22.8472C23.4133 22.9988 23.462 23.1563 23.5362 23.3024C23.7224 23.6689 24.0176 23.7803 24.376 23.6257C24.6933 23.4887 24.8155 23.1661 24.6997 22.8012C24.6218 22.5559 24.4275 22.4758 24.2074 22.4237C24.1036 22.3992 23.9869 22.4476 23.8954 22.3444C23.9496 22.2097 23.9876 22.1291 24.1587 22.1742C24.7227 22.3227 25.0943 22.4873 25.016 23.1838C25.004 23.2906 25.014 23.3999 25.0139 23.5385C24.9032 23.7582 24.7595 23.9078 24.5135 23.9629C24.2288 24.1152 23.9597 24.0851 23.6622 23.9819C23.6364 23.9629 23.6361 23.963 23.6361 23.9628Z" fill="#F8C8A8"/>
<path d="M23.6396 23.9883C23.9003 23.9627 24.1644 23.9627 24.4589 23.9629C24.3482 24.2196 23.8716 24.2482 23.6396 23.9883Z" fill="#F2BE9A"/>
<path d="M24.6861 22.0431C24.6785 22.0415 24.6707 22.024 24.6738 22.0007C24.6846 21.9949 24.686 22.027 24.6861 22.0431Z" fill="#F6B287"/>
<path d="M23.8721 22.321C24.0128 22.3252 24.1304 22.315 24.2414 22.3376C24.6883 22.4286 24.9359 22.8541 24.8086 23.2972C24.7106 23.6386 24.2 23.9008 23.8417 23.7482C23.5087 23.6063 23.4061 23.2676 23.3086 22.9459C23.297 22.9075 23.2861 22.8688 23.2586 22.8383C23.1917 22.8354 23.1029 22.792 23.1499 22.7622C23.3817 22.6152 23.495 22.276 23.8721 22.321Z" fill="#F8D2B9"/>
<path d="M24.3619 22.5653C24.7929 22.9812 24.7668 23.4146 24.3276 23.589C24.1177 23.6724 23.9347 23.6375 23.7882 23.4831C23.619 23.3046 23.4995 23.1072 23.6253 22.8375C23.7165 22.6417 23.8113 22.5114 24.0608 22.5555C24.144 22.5703 24.2451 22.498 24.3619 22.5653Z" fill="#F8DECA"/>
<path d="M23.9659 22.7819C24.1716 22.665 24.2938 22.7533 24.3421 22.9191C24.3793 23.0468 24.4108 23.2233 24.2336 23.2867C24.0882 23.3388 23.9074 23.3407 23.8109 23.2023C23.6954 23.0366 23.7866 22.8938 23.9659 22.7819Z" fill="#F8EDE4"/>
<circle cx="20" cy="20" r="19.5" stroke="black" stroke-opacity="0.05"/>
</svg>
