<svg width="40" height="40" viewBox="0 0 40 40" fill="none" xmlns="http://www.w3.org/2000/svg">
<circle cx="20" cy="20" r="20" fill="#F6F8FA"/>
<g clip-path="url(#clip0_19631_63550)">
<path fill-rule="evenodd" clip-rule="evenodd" d="M6.98643 18.9132C6.98825 18.9192 6.98876 18.9259 6.98876 18.9324V21.8593L6.98876 21.8595C6.98873 21.8636 6.98783 21.8677 6.98614 21.8715L6.9946 21.9658C6.99524 21.9696 6.99514 21.9734 6.99432 21.9772C6.99337 21.9815 6.99146 21.9856 6.98872 21.9891C6.98816 21.9898 6.98757 21.9905 6.98694 21.9912L6.98369 22.0152L6.96012 22.012C6.95416 22.0116 6.94417 22.0091 6.93892 21.9986C6.93365 21.9881 6.93786 21.9783 6.94008 21.9742L6.94029 21.9739L6.94053 21.9735C6.94298 21.9694 6.94635 21.966 6.95036 21.9636C6.9511 21.9631 6.95185 21.9627 6.95262 21.9623L6.94447 21.8715C6.94409 21.8682 6.94433 21.8648 6.94517 21.8615C6.94567 21.8596 6.94637 21.8578 6.94726 21.8561V18.947C6.94514 18.948 6.94291 18.9488 6.94061 18.9494C6.93206 18.9516 6.923 18.9507 6.91504 18.9469L6.93121 18.9132L6.933 18.9095C6.93229 18.9092 6.9315 18.909 6.93072 18.9091C6.93053 18.9091 6.93035 18.9092 6.93016 18.9092C6.92921 18.9095 6.92838 18.91 6.92782 18.9108L6.92876 18.9095L6.92991 18.9083C6.9344 18.9037 6.93948 18.8993 6.94502 18.8962C6.95024 18.8934 6.95976 18.8898 6.9702 18.8941C6.98055 18.8984 6.98473 18.9076 6.98643 18.9132Z" fill="#004D8D"/>
<path fill-rule="evenodd" clip-rule="evenodd" d="M5.89619 20.7923L5.85844 20.7884C5.85813 20.7846 5.85811 20.779 5.85999 20.7736C5.86185 20.7682 5.86778 20.7582 5.88033 20.7571C5.883 20.7568 5.88569 20.7566 5.88837 20.7567L5.89115 20.7544C5.89186 20.7553 5.89254 20.7561 5.89318 20.7571C5.89352 20.7571 5.89387 20.7571 5.89421 20.7572C5.91 20.7586 5.92467 20.766 5.93522 20.7778C5.94585 20.7898 5.95147 20.8054 5.95092 20.8213C5.95202 21.1912 5.95202 21.6199 5.95092 22.1075C5.95097 22.1541 5.94722 22.2006 5.93971 22.2466C5.94119 22.2486 5.94247 22.2507 5.94353 22.253L5.9445 22.255L5.945 22.2572C5.94565 22.2601 5.94582 22.263 5.94551 22.2659C5.9454 22.2686 5.9449 22.2712 5.94403 22.2737C5.94285 22.2772 5.941 22.2803 5.9386 22.2831C5.93619 22.2858 5.93326 22.288 5.93 22.2896C5.92673 22.2912 5.92318 22.2921 5.91956 22.2923L5.91933 22.2923L5.76371 22.2998L5.76172 22.2583L5.89703 22.2518C5.89705 22.2502 5.89723 22.2486 5.89756 22.247C5.90551 22.2009 5.90948 22.1543 5.90942 22.1075L5.90942 22.1074C5.91052 21.6197 5.91052 21.1909 5.90942 20.821L5.90941 20.8206L5.90943 20.8201C5.90966 20.8147 5.90779 20.8094 5.90421 20.8054C5.90063 20.8014 5.89562 20.7989 5.89024 20.7985L5.88931 20.7984L5.88839 20.7983C5.88754 20.7981 5.88667 20.7981 5.88582 20.7983L5.88414 20.7986H5.88244C5.88358 20.7986 5.88471 20.7985 5.88582 20.7982C5.88674 20.7981 5.88764 20.7978 5.88852 20.7975C5.88915 20.7973 5.88977 20.797 5.89037 20.7967C5.89197 20.796 5.89345 20.795 5.89475 20.7938C5.89529 20.7933 5.89577 20.7928 5.89619 20.7923Z" fill="#023A7A"/>
<path fill-rule="evenodd" clip-rule="evenodd" d="M10.9248 20.2988L12.042 22.2596C12.0454 22.2657 12.0466 22.2728 12.0454 22.2797M10.9248 20.2988L10.8887 20.3194L10.9248 20.2988ZM10.8887 20.3194L11.9943 22.2597L10.8887 20.3194ZM11.9943 22.2597C11.987 22.259 11.9796 22.2587 11.9722 22.2588H10.1846" fill="#A6A6A7"/>
<path fill-rule="evenodd" clip-rule="evenodd" d="M10.398 19.4589C10.405 19.451 10.4168 19.4432 10.4318 19.447L10.4215 19.4873C10.4238 19.4879 10.4263 19.4876 10.4281 19.4868C10.4289 19.4865 10.4293 19.4861 10.4294 19.4861C10.4294 19.4861 10.4292 19.4862 10.429 19.4865C10.4271 19.4886 10.424 19.4935 10.4202 19.5032C10.4187 19.5073 10.416 19.5109 10.4125 19.5135C10.4089 19.5162 10.4046 19.5178 10.4001 19.518C10.3945 19.5183 10.389 19.5173 10.3839 19.5151C10.3736 19.5287 10.3593 19.5388 10.3428 19.544C10.3104 19.5544 10.2773 19.5622 10.2436 19.5673C10.2426 19.5675 10.2417 19.5679 10.2408 19.5684C10.2387 19.572 10.2359 19.5752 10.2325 19.5777C10.2283 19.5809 10.2233 19.583 10.218 19.5839C10.2127 19.5847 10.2073 19.5842 10.2023 19.5824C10.1974 19.5806 10.193 19.5777 10.1895 19.5739C10.1893 19.5737 10.189 19.5736 10.1887 19.5734C10.1884 19.5733 10.1881 19.5733 10.1877 19.5733C10.1874 19.5734 10.187 19.5735 10.1867 19.5736C10.1864 19.5738 10.1862 19.5741 10.186 19.5744L10.1852 19.5757L10.1842 19.5768C10.1759 19.5863 10.1643 19.5921 10.1517 19.593L10.1512 19.5931L10.1506 19.5931C10.148 19.5931 10.1455 19.594 10.1435 19.5956C10.1416 19.597 10.1401 19.5989 10.1393 19.6012C10.1382 19.6059 10.136 19.6104 10.133 19.6142C10.1298 19.6185 10.1256 19.622 10.1208 19.6244C10.1159 19.6268 10.1106 19.6281 10.1053 19.6281C10.1005 19.6282 10.0958 19.6273 10.0914 19.6255C10.0888 19.6248 10.0861 19.6249 10.0835 19.6258C10.0808 19.6268 10.0784 19.6286 10.0768 19.6311M10.398 19.4589C10.3948 19.4624 10.392 19.4667 10.3894 19.4713L10.398 19.4589ZM10.3894 19.4713C10.3847 19.4701 10.3798 19.47 10.3751 19.4709C10.3698 19.4719 10.3649 19.4742 10.3608 19.4776C10.3572 19.4804 10.3543 19.484 10.3523 19.4881C10.347 19.4958 10.3393 19.5016 10.3303 19.5044L10.3302 19.5045C10.2998 19.5142 10.2687 19.5215 10.2372 19.5263L10.2369 19.5264C10.2299 19.5275 10.2232 19.5302 10.2173 19.5342C10.2153 19.5355 10.2134 19.5371 10.2116 19.5388C10.209 19.5371 10.2062 19.5357 10.2032 19.5346C10.197 19.5322 10.1903 19.5314 10.1837 19.532C10.1771 19.5327 10.1707 19.5348 10.165 19.5383C10.16 19.5414 10.1557 19.5454 10.1523 19.5502C10.1514 19.551 10.1502 19.5515 10.149 19.5516C10.138 19.552 10.1274 19.5557 10.1185 19.5624C10.1107 19.5682 10.1047 19.5761 10.1011 19.5851C10.0907 19.5826 10.0798 19.5831 10.0697 19.5867C10.0592 19.5904 10.0502 19.5971 10.0437 19.606C10.0318 19.6053 10.02 19.607 10.0088 19.611C9.99672 19.6152 9.98578 19.6221 9.97669 19.6311C9.97619 19.6315 9.97561 19.6319 9.97498 19.6321C9.97431 19.6323 9.9736 19.6324 9.97289 19.6323L9.97034 19.6529L9.97295 19.6323C9.96213 19.6309 9.95114 19.632 9.9408 19.6355C9.93047 19.639 9.92106 19.6447 9.91328 19.6524C9.91307 19.6526 9.91281 19.6527 9.91254 19.6528C9.91226 19.6529 9.91196 19.653 9.91166 19.6529L9.91146 19.6529L9.91125 19.6529C9.89714 19.652 9.88306 19.6549 9.87046 19.6613L9.87 19.6616L9.86956 19.6618C9.86223 19.666 9.8543 19.6691 9.84604 19.6709C9.81205 19.6767 9.77973 19.6899 9.75129 19.7094L9.75116 19.7095L9.75102 19.7096C9.75062 19.7099 9.75016 19.7101 9.74968 19.7102C9.74924 19.7103 9.74879 19.7103 9.74835 19.7103C9.73696 19.708 9.72517 19.7089 9.71429 19.713C9.70496 19.7165 9.69663 19.7222 9.68998 19.7296C9.68524 19.7276 9.68023 19.7264 9.6751 19.7259C9.66764 19.7252 9.66012 19.7262 9.65306 19.7287C9.646 19.7312 9.63957 19.7352 9.63422 19.7404C9.63209 19.7425 9.63015 19.7448 9.62842 19.7472C9.61844 19.7424 9.60736 19.7401 9.59619 19.7406C9.59182 19.7406 9.5875 19.7415 9.58343 19.7431C9.57904 19.7448 9.57505 19.7474 9.57171 19.7508C9.56836 19.7541 9.56574 19.7581 9.564 19.7625C9.56361 19.7635 9.56327 19.7645 9.56297 19.7655C9.55715 19.763 9.55094 19.7615 9.54457 19.7611C9.53348 19.7603 9.52241 19.7628 9.51268 19.7681C9.50676 19.7708 9.50186 19.7754 9.49872 19.7811C9.49826 19.782 9.49784 19.7828 9.49747 19.7837C9.49326 19.7827 9.48891 19.7825 9.48459 19.7829C9.47806 19.7836 9.47181 19.7859 9.4664 19.7896L9.40021 19.8325C9.39852 19.8335 9.39659 19.8341 9.39461 19.8342C9.38505 19.8335 9.37543 19.8347 9.36636 19.8379L9.36509 19.8383L9.36389 19.8389C9.31843 19.8616 9.27509 19.8883 9.23438 19.9186L9.2592 19.9519C9.29752 19.9233 9.3383 19.8981 9.38106 19.8767C9.38458 19.8756 9.38827 19.8753 9.39194 19.8756L9.39288 19.8757L9.39383 19.8757C9.40392 19.8758 9.41381 19.8729 9.42236 19.8676L9.42249 19.8675L9.48781 19.8252C9.48967 19.8273 9.49193 19.8295 9.49463 19.8313C9.49875 19.8341 9.50537 19.837 9.51346 19.8357C9.52154 19.8343 9.52684 19.8294 9.52982 19.8255C9.53273 19.8217 9.53449 19.8174 9.53564 19.8139L9.53604 19.8127L9.53629 19.8114C9.53683 19.8086 9.53711 19.8057 9.53713 19.8028C9.53861 19.8025 9.54014 19.8024 9.54168 19.8025C9.54494 19.8027 9.54806 19.8039 9.55064 19.8059L9.55081 19.8061L9.55098 19.8062C9.55685 19.8106 9.56688 19.8159 9.57879 19.8126C9.59049 19.8094 9.59639 19.7999 9.59924 19.7934L9.59939 19.793L9.59953 19.7927C9.60087 19.7893 9.60184 19.7858 9.60243 19.7822C9.60637 19.7827 9.61016 19.7841 9.61349 19.7863C9.61676 19.7891 9.62063 19.7912 9.62481 19.7924C9.62979 19.7938 9.63506 19.7939 9.64008 19.7926C9.64511 19.7914 9.64971 19.7888 9.65345 19.7853C9.65688 19.782 9.65947 19.7779 9.66099 19.7734C9.66152 19.7721 9.66228 19.771 9.66324 19.7701C9.66429 19.769 9.66556 19.7683 9.66695 19.7678C9.66834 19.7673 9.66982 19.7671 9.67129 19.7672C9.67275 19.7674 9.67417 19.7678 9.67545 19.7685L9.67581 19.7688L9.67618 19.769C9.68362 19.7729 9.69224 19.7739 9.70039 19.7718C9.70827 19.7698 9.71516 19.7651 9.71984 19.7585C9.72218 19.7555 9.7253 19.7532 9.72886 19.7519C9.73253 19.7505 9.73652 19.7502 9.74036 19.751L9.74065 19.7511L9.74095 19.7511C9.74686 19.7522 9.75292 19.752 9.75878 19.7507C9.76457 19.7494 9.77005 19.747 9.77491 19.7436C9.79848 19.7274 9.82529 19.7165 9.85347 19.7117L9.85389 19.7116L9.85431 19.7115C9.86671 19.7089 9.87863 19.7044 9.88966 19.6981C9.8955 19.6953 9.90199 19.6939 9.9085 19.6943C9.91464 19.6948 9.92082 19.6939 9.92661 19.6919C9.93249 19.6897 9.93784 19.6864 9.94231 19.682L9.94233 19.682C9.94564 19.6787 9.94965 19.6763 9.95404 19.6748C9.95844 19.6733 9.96311 19.6729 9.96772 19.6734L9.96778 19.6735C9.97458 19.6743 9.98148 19.6736 9.98798 19.6715C9.99449 19.6693 10.0004 19.6658 10.0054 19.661L10.0056 19.6609L10.0057 19.6607C10.0105 19.656 10.0163 19.6523 10.0227 19.65C10.029 19.6478 10.0358 19.6469 10.0425 19.6476M10.0419 19.6086C10.0419 19.6086 10.0419 19.6086 10.0419 19.6086L10.0419 19.6086ZM10.4295 19.486C10.4295 19.486 10.4295 19.486 10.4294 19.4861L10.4295 19.486Z" fill="#77787A"/>
<path fill-rule="evenodd" clip-rule="evenodd" d="M10.7697 20.337C10.8142 20.329 10.8569 20.3134 10.896 20.2908L10.9168 20.3267C10.8734 20.3518 10.826 20.3691 10.7766 20.3779L10.7761 20.378L10.7756 20.3781C10.7754 20.3781 10.7752 20.3782 10.775 20.3783C10.7747 20.3784 10.7745 20.3786 10.7743 20.3789C10.7706 20.3849 10.7651 20.3896 10.7586 20.3923C10.7518 20.3952 10.7443 20.3958 10.7371 20.3941C10.7336 20.3933 10.73 20.3935 10.7266 20.3946C10.7231 20.3957 10.72 20.3977 10.7175 20.4004L10.7173 20.4006L10.7171 20.4008C10.7115 20.4065 10.7046 20.4109 10.697 20.4134C10.6901 20.4158 10.6827 20.4166 10.6755 20.4158C10.6713 20.4236 10.6646 20.4299 10.6565 20.4335C10.6476 20.4375 10.6376 20.4381 10.6284 20.4353C10.6254 20.4345 10.6223 20.4347 10.6194 20.4358C10.6164 20.4369 10.6139 20.439 10.6122 20.4416C10.608 20.4483 10.6017 20.4534 10.5942 20.4561C10.5867 20.4587 10.5785 20.4588 10.571 20.4562L10.5708 20.4561L10.5708 20.4561C10.5673 20.4549 10.5635 20.4548 10.56 20.4559C10.5565 20.457 10.5534 20.4593 10.5512 20.4623L10.5511 20.4624L10.551 20.4626C10.5466 20.4685 10.5406 20.4731 10.5336 20.4756C10.5267 20.4781 10.5192 20.4786 10.5121 20.4769C10.5076 20.4759 10.5028 20.4762 10.4984 20.4776C10.494 20.4791 10.49 20.4817 10.487 20.4852C10.4829 20.4899 10.4778 20.4935 10.472 20.4958C10.4664 20.498 10.4603 20.4988 10.4542 20.4981C10.4421 20.4971 10.4301 20.5008 10.4208 20.5086L10.4207 20.5086C10.4137 20.5144 10.4052 20.518 10.3963 20.5191C10.3673 20.5236 10.3397 20.5348 10.3159 20.5519C10.3108 20.5556 10.305 20.5582 10.2989 20.5596C10.2927 20.5609 10.2864 20.561 10.2802 20.5598L10.2798 20.5598L10.2795 20.5597C10.2755 20.5588 10.2714 20.5591 10.2676 20.5605C10.2639 20.5619 10.2607 20.5642 10.2583 20.5674C10.2542 20.5735 10.2482 20.5781 10.2412 20.5806C10.2339 20.5831 10.226 20.5832 10.2187 20.5807L10.2185 20.5806L10.2183 20.5805C10.2148 20.5793 10.2109 20.5792 10.2073 20.5803C10.2038 20.5814 10.2007 20.5836 10.1985 20.5865C10.194 20.593 10.1877 20.5978 10.1803 20.6005C10.1728 20.6031 10.1647 20.6033 10.1571 20.6011C10.1533 20.6 10.1491 20.6001 10.1453 20.6013C10.1414 20.6025 10.138 20.6048 10.1354 20.608L10.1353 20.6082L10.1353 20.6082C10.1301 20.6143 10.1234 20.6189 10.1157 20.6214C10.1081 20.6239 10.0999 20.6242 10.0921 20.6223L10.0916 20.6221L10.0911 20.622C10.0884 20.6212 10.0855 20.6211 10.0829 20.622C10.0802 20.6228 10.0778 20.6243 10.076 20.6265L10.0758 20.6267L10.0757 20.6269C10.068 20.6358 10.0571 20.6413 10.0454 20.6423C10.0247 20.6448 10.0046 20.6514 9.98649 20.6618L9.98628 20.662L9.98607 20.6621C9.96371 20.6742 9.94018 20.6841 9.91583 20.6915C9.85639 20.7097 9.79764 20.7298 9.73957 20.7516C9.71313 20.7619 9.68573 20.7697 9.65778 20.7747L9.65768 20.7747C9.63186 20.7792 9.60475 20.7832 9.57636 20.7867L9.57129 20.7455C9.59904 20.742 9.62545 20.7382 9.65053 20.7338C9.67584 20.7293 9.70064 20.7223 9.72459 20.7129L9.72485 20.7128L9.72485 20.7128C9.78376 20.6907 9.84337 20.6703 9.90367 20.6518L9.90373 20.6518C9.92533 20.6452 9.94621 20.6365 9.96606 20.6257C9.98911 20.6125 10.0146 20.6041 10.041 20.601L10.0414 20.601L10.0419 20.6009C10.0428 20.6009 10.0436 20.6005 10.0442 20.5998C10.0512 20.5915 10.0605 20.5854 10.0709 20.5822C10.0811 20.5791 10.092 20.5791 10.1023 20.582C10.1025 20.582 10.1027 20.582 10.1028 20.582C10.103 20.5819 10.1032 20.5818 10.1034 20.5816C10.1111 20.5722 10.1213 20.5653 10.1329 20.5617C10.1437 20.5583 10.1552 20.5579 10.1661 20.5606C10.1735 20.5511 10.1836 20.5442 10.1951 20.5406C10.2056 20.5374 10.2167 20.5372 10.2272 20.5399C10.2341 20.5317 10.243 20.5254 10.2531 20.5216C10.2643 20.5174 10.2765 20.5166 10.2882 20.5191C10.2888 20.5192 10.2893 20.5192 10.2899 20.5191C10.2906 20.5189 10.2912 20.5187 10.2917 20.5183L10.2917 20.5183C10.3209 20.4972 10.3547 20.4834 10.3904 20.4781L10.3906 20.478L10.3909 20.478C10.3922 20.4778 10.3934 20.4773 10.3944 20.4765C10.4119 20.4621 10.4342 20.455 10.4568 20.4566C10.4646 20.4482 10.4745 20.4418 10.4855 20.4382C10.4963 20.4346 10.5079 20.4339 10.5191 20.436C10.5264 20.4268 10.5362 20.4199 10.5475 20.4163C10.558 20.413 10.5693 20.4128 10.5799 20.4155C10.5862 20.4072 10.5947 20.4008 10.6045 20.3971C10.6156 20.3928 10.6278 20.3922 10.6393 20.3953C10.6428 20.388 10.6486 20.382 10.6558 20.3782C10.6632 20.3744 10.6716 20.3731 10.6798 20.3746C10.6811 20.3747 10.6825 20.3746 10.6837 20.3741C10.685 20.3737 10.6862 20.373 10.6872 20.372C10.6946 20.3641 10.7038 20.3582 10.7141 20.355C10.7232 20.3522 10.7327 20.3514 10.742 20.3528C10.7451 20.349 10.7487 20.3458 10.7528 20.3431L10.7531 20.343L10.7533 20.3428C10.7584 20.3398 10.7639 20.3378 10.7697 20.337Z" fill="#5A5B5D"/>
<path fill-rule="evenodd" clip-rule="evenodd" d="M8.51855 20.0613L8.79162 20.0603L8.79178 20.1018L8.51871 20.1028L8.51855 20.0613Z" fill="#5A5B5D"/>
<path fill-rule="evenodd" clip-rule="evenodd" d="M8.54591 19.4231C8.55043 19.4348 8.54857 19.4478 8.54538 19.4589L8.54533 19.459L8.54529 19.4592C8.54276 19.4675 8.54118 19.4761 8.54057 19.4847C8.53726 19.683 8.53671 19.882 8.53892 20.0816L8.49742 20.0821C8.49521 19.8819 8.49576 19.6824 8.49908 19.4835L8.49909 19.483L8.49913 19.4825C8.49992 19.4705 8.50207 19.4587 8.50553 19.4473C8.5066 19.4435 8.507 19.4409 8.50709 19.4392C8.50714 19.4381 8.50705 19.4376 8.50705 19.4376C8.50705 19.4376 8.50708 19.4377 8.50719 19.438C8.50758 19.439 8.50846 19.4403 8.50977 19.4412C8.51001 19.4414 8.51023 19.4415 8.51041 19.4416L8.516 19.4006C8.52839 19.4023 8.5405 19.4091 8.54591 19.4231Z" fill="#283E5F"/>
<path fill-rule="evenodd" clip-rule="evenodd" d="M8.51758 20.8326C8.7049 20.8274 8.89174 20.828 9.0781 20.8345L9.07847 20.8345L9.07885 20.8345C9.0803 20.8347 9.08317 20.8349 9.08622 20.8359C9.08769 20.8364 9.09074 20.8376 9.09376 20.8403C9.09721 20.8433 9.10103 20.8487 9.10103 20.8562C9.10103 20.8593 9.10036 20.862 9.09949 20.8642H9.12115C9.12115 20.87 9.12003 20.8781 9.11443 20.8853C9.10866 20.8927 9.10067 20.8959 9.09358 20.8972C9.08206 20.8994 9.07169 20.8951 9.06484 20.8872C9.06168 20.8835 9.05953 20.8794 9.05807 20.8754C8.87875 20.8695 8.69897 20.869 8.51874 20.8741L8.51758 20.8326ZM9.07979 20.8636C9.07973 20.8638 9.07969 20.864 9.07967 20.8642H9.08007L9.07979 20.8636ZM9.09645 20.8642H9.08019L9.07983 20.8634C9.0799 20.8632 9.07999 20.8628 9.08013 20.8625H9.09671C9.09665 20.8631 9.09656 20.8636 9.09645 20.8642ZM9.09713 20.8613C9.09712 20.8613 9.09712 20.8613 9.09711 20.8613L9.09713 20.8613ZM9.09563 20.8594C9.09498 20.8588 9.09411 20.8581 9.09299 20.8576C9.09258 20.8574 9.09214 20.8572 9.09166 20.857C9.08941 20.8562 9.08743 20.8562 9.08618 20.8564C9.08616 20.8564 9.08612 20.8564 9.08607 20.8564C9.08553 20.8566 9.08355 20.8574 9.08171 20.8598C9.08171 20.8598 9.08171 20.8597 9.08171 20.8598C9.08142 20.8601 9.08117 20.8605 9.08095 20.8608C9.08081 20.8611 9.08069 20.8613 9.08058 20.8615C9.08052 20.8616 9.08047 20.8617 9.08042 20.8618L9.09563 20.8594ZM9.07965 20.8644C9.07965 20.8644 9.07965 20.8644 9.07965 20.8643L9.07965 20.8644Z" fill="#77787A"/>
<path fill-rule="evenodd" clip-rule="evenodd" d="M8.53759 20.4131V20.8532H8.49609V20.4131H8.53759Z" fill="#345777"/>
<path fill-rule="evenodd" clip-rule="evenodd" d="M8.49609 20.4138L8.49734 20.0818L8.53884 20.0819L8.53759 20.4139L8.49609 20.4138Z" fill="#364B6D"/>
<path fill-rule="evenodd" clip-rule="evenodd" d="M8.20478 20.3261C8.20901 20.3225 8.21429 20.3207 8.21957 20.3205C8.22584 20.3204 8.23099 20.3226 8.23441 20.3246C8.24094 20.3283 8.24604 20.3341 8.24888 20.3411C8.25114 20.3466 8.25186 20.3526 8.25102 20.3584L8.25105 20.3584C8.26309 20.3529 8.27684 20.3523 8.28934 20.3567C8.29675 20.3594 8.30336 20.3637 8.30873 20.3693C8.31496 20.365 8.32245 20.3629 8.33 20.3634C8.33757 20.3639 8.34477 20.3669 8.35044 20.3719C8.35756 20.3777 8.36401 20.3843 8.3697 20.3915C8.37444 20.3874 8.38215 20.3827 8.39221 20.384C8.40411 20.3855 8.41073 20.3941 8.41381 20.3994L8.41453 20.4007L8.41508 20.402C8.41754 20.408 8.41791 20.4147 8.41618 20.4209L8.41661 20.4207L8.41719 20.4205C8.42963 20.4155 8.44337 20.4148 8.45626 20.4184C8.46019 20.4195 8.46389 20.4212 8.46714 20.4237C8.47005 20.4259 8.47255 20.4285 8.47453 20.4316C8.48418 20.4302 8.48938 20.4274 8.49198 20.425C8.49417 20.423 8.49609 20.4199 8.49609 20.4134H8.53759C8.53759 20.4297 8.53203 20.4445 8.52012 20.4555C8.50884 20.4659 8.49388 20.471 8.47816 20.4729C8.47048 20.4741 8.46264 20.4728 8.45569 20.4694C8.45024 20.4666 8.44556 20.4627 8.44201 20.4578C8.43899 20.4574 8.4359 20.4577 8.43302 20.4588C8.42613 20.4619 8.41851 20.4631 8.411 20.4622C8.40348 20.4612 8.39636 20.4583 8.39041 20.4536C8.38482 20.4495 8.38042 20.4441 8.37763 20.4378C8.37382 20.4393 8.36941 20.4401 8.36445 20.4395C8.35259 20.4381 8.34558 20.4297 8.34204 20.4241C8.33829 20.4182 8.33386 20.4129 8.32883 20.4081C8.3244 20.4131 8.31742 20.4184 8.30745 20.4184C8.29366 20.4184 8.28549 20.4082 8.28197 20.403L8.28114 20.4018L8.28049 20.4004C8.27945 20.3983 8.2776 20.3966 8.27535 20.3958C8.27316 20.395 8.27076 20.3951 8.26864 20.396C8.26137 20.3996 8.25322 20.4009 8.24519 20.3999C8.23741 20.3989 8.23007 20.3958 8.22403 20.3908C8.21834 20.3867 8.21395 20.381 8.21139 20.3744C8.21105 20.3736 8.21074 20.3727 8.21047 20.3718C8.20603 20.3723 8.20152 20.3718 8.19724 20.3705C8.19252 20.369 8.18824 20.3664 8.18472 20.363L8.14746 20.3349L8.17242 20.3018L8.20478 20.3261ZM8.39702 20.4227C8.39702 20.4227 8.39698 20.4227 8.39689 20.4228C8.39698 20.4227 8.39702 20.4227 8.39702 20.4227ZM8.36037 20.4004C8.36037 20.4004 8.36042 20.4004 8.3605 20.4003C8.36042 20.4004 8.36037 20.4004 8.36037 20.4004ZM8.37725 20.4021C8.37733 20.4022 8.37737 20.4023 8.37737 20.4023C8.37737 20.4023 8.37733 20.4022 8.37725 20.4021ZM8.29782 20.3806C8.29782 20.3806 8.29783 20.3805 8.29785 20.3805C8.29783 20.3805 8.29782 20.3806 8.29782 20.3806Z" fill="#023A7A"/>
<path fill-rule="evenodd" clip-rule="evenodd" d="M8.53759 21.3369V22.279H8.49609V21.3369H8.53759Z" fill="#436E90"/>
<path fill-rule="evenodd" clip-rule="evenodd" d="M8.49609 21.3367V20.8533H8.53759V21.3367H8.49609Z" fill="#436687"/>
<path fill-rule="evenodd" clip-rule="evenodd" d="M7.88727 21.0628C7.88685 21.0678 7.8884 21.0727 7.89158 21.0766C7.89475 21.0804 7.89931 21.0829 7.90427 21.0834L7.90452 21.0834L7.90476 21.0834C7.92169 21.0856 7.9383 21.0899 7.95421 21.0961L7.95495 21.0964L7.95567 21.0967C7.97005 21.1036 7.9844 21.1114 7.9987 21.1199C8.00133 21.1214 8.00437 21.1221 8.00737 21.1217C8.01654 21.1201 8.02597 21.1208 8.03478 21.1239C8.04367 21.1269 8.05162 21.1322 8.05788 21.1392C8.05943 21.1408 8.06148 21.1419 8.0637 21.1422L8.06379 21.1422L8.06379 21.1422C8.10022 21.1475 8.13483 21.1615 8.16468 21.1831L8.16483 21.1832L8.16499 21.1833C8.16528 21.1835 8.16561 21.1837 8.16597 21.1838C8.1663 21.1838 8.16664 21.1838 8.16697 21.1838C8.17706 21.1819 8.18746 21.1825 8.19729 21.1854C8.20723 21.1884 8.21629 21.1938 8.2237 21.201L8.22377 21.2011C8.22537 21.2027 8.22743 21.2037 8.22965 21.204L8.22994 21.2041L8.22994 21.2041C8.26627 21.2096 8.30075 21.2238 8.3305 21.2453L8.3306 21.2454C8.33098 21.2457 8.33141 21.2459 8.33187 21.246C8.33228 21.2461 8.33269 21.2461 8.3331 21.2461C8.34288 21.2441 8.35298 21.2445 8.36256 21.2473C8.37231 21.2501 8.38122 21.2553 8.38852 21.2623C8.391 21.2647 8.39418 21.2662 8.39759 21.2667L8.39787 21.2667L8.39815 21.2667C8.42899 21.2717 8.45844 21.2828 8.48476 21.2994C8.48549 21.2967 8.48618 21.2944 8.48682 21.2925C8.48725 21.2912 8.48792 21.2893 8.48883 21.2875C8.48924 21.2867 8.49021 21.2848 8.49185 21.2829L8.49189 21.2828C8.49272 21.2818 8.49851 21.2749 8.50882 21.2753C8.52107 21.2758 8.5261 21.2855 8.52694 21.2872C8.52829 21.29 8.52872 21.2925 8.52887 21.2934C8.52924 21.2956 8.52929 21.2977 8.5293 21.299C8.52933 21.3018 8.52915 21.3056 8.52889 21.3097L8.5288 21.311L8.52855 21.3123C8.52822 21.3141 8.52832 21.3159 8.52884 21.3175C8.52937 21.3192 8.53031 21.3207 8.53156 21.322L8.50264 21.3517C8.50096 21.3501 8.4994 21.3483 8.49796 21.3465C8.49083 21.3483 8.48327 21.3474 8.47674 21.344L8.47534 21.3433L8.47406 21.3423C8.44981 21.3244 8.42163 21.3126 8.39186 21.3078C8.3798 21.3061 8.36857 21.3007 8.35978 21.2923L8.35971 21.2922C8.35727 21.2898 8.3543 21.2881 8.35104 21.2872C8.34779 21.2862 8.34435 21.2861 8.34104 21.2868L8.34066 21.2869L8.34029 21.2869C8.33433 21.288 8.32823 21.2878 8.32234 21.2864C8.31648 21.285 8.31096 21.2825 8.3061 21.2789C8.28174 21.2612 8.25353 21.2497 8.2238 21.2451C8.21278 21.2435 8.20254 21.2385 8.19462 21.2306C8.19201 21.2281 8.18882 21.2262 8.18533 21.2252C8.18182 21.2241 8.17811 21.2239 8.17452 21.2246L8.17431 21.2247L8.1741 21.2247C8.16816 21.2257 8.16209 21.2255 8.15623 21.2241C8.15046 21.2227 8.14502 21.2202 8.14025 21.2166C8.11587 21.199 8.08761 21.1876 8.05787 21.1833C8.04615 21.1816 8.03537 21.176 8.02733 21.1673L8.02716 21.1671L8.027 21.1669C8.02545 21.1652 8.02348 21.1639 8.02127 21.1631C8.01907 21.1623 8.0167 21.1622 8.01441 21.1626L8.01397 21.1627L8.01352 21.1627C8.00117 21.1645 7.98857 21.1621 7.97778 21.1558L7.97764 21.1557L7.97751 21.1556C7.96445 21.1478 7.95142 21.1407 7.93843 21.1345C7.92592 21.1297 7.91289 21.1264 7.8996 21.1246C7.88396 21.1229 7.86961 21.1151 7.85958 21.103C7.8495 21.0908 7.84459 21.0751 7.84592 21.0593L7.88727 21.0628ZM8.48779 21.299C8.48779 21.299 8.48779 21.299 8.4878 21.2991L8.48779 21.299Z" fill="#004D8D"/>
<path d="M6.98629 21.9946L6.9618 21.9913C6.95703 21.9913 6.95578 21.9884 6.95807 21.9842C6.95881 21.983 6.95984 21.9819 6.96107 21.9812C6.9623 21.9804 6.96368 21.98 6.96512 21.9799C6.96648 21.9798 6.96782 21.9795 6.96903 21.9789C6.97025 21.9783 6.97132 21.9774 6.97215 21.9763C6.97299 21.9753 6.97357 21.974 6.97386 21.9727C6.97415 21.9714 6.97414 21.97 6.97384 21.9687L6.96491 21.8693C6.9648 21.8684 6.96485 21.8676 6.96506 21.8668C6.96527 21.8659 6.96565 21.8652 6.96616 21.8645C6.96723 21.863 6.96781 21.8612 6.96782 21.8593C6.96782 20.883 6.96782 19.9073 6.96782 18.9323C6.96782 18.9101 6.96014 18.9068 6.94458 18.9228C6.94232 18.926 6.93899 18.9283 6.93519 18.9293C6.93139 18.9303 6.92737 18.9299 6.92383 18.9282L8.0076 17.0271C8.00855 17.0252 8.01002 17.0237 8.01182 17.0227C8.01363 17.0216 8.01569 17.0211 8.01776 17.0213H8.93076C8.93307 17.0213 8.93529 17.0222 8.93692 17.0238C8.93856 17.0254 8.93947 17.0277 8.93947 17.03C8.93967 17.031 8.93967 17.0321 8.93947 17.0331L6.98629 21.9946Z" fill="#005496"/>
<path d="M10.4268 19.4672C10.4178 19.4649 10.4093 19.4747 10.4008 19.496C10.4007 19.4964 10.4005 19.4967 10.4002 19.4969C10.3999 19.4972 10.3995 19.4973 10.3992 19.4973C10.3958 19.4976 10.3925 19.4966 10.3898 19.4946C10.3885 19.4932 10.3868 19.4922 10.3849 19.4916C10.3831 19.491 10.3811 19.4909 10.3792 19.4913C10.3773 19.4917 10.3755 19.4925 10.374 19.4937C10.3725 19.4949 10.3713 19.4965 10.3705 19.4983C10.3627 19.5107 10.3507 19.5199 10.3367 19.5243C10.3053 19.5343 10.2731 19.5419 10.2404 19.5469C10.2363 19.5476 10.2324 19.5491 10.229 19.5514C10.2269 19.5529 10.225 19.5547 10.2236 19.5568C10.2228 19.5586 10.2216 19.5601 10.2201 19.5612C10.2186 19.5624 10.2168 19.5631 10.215 19.5634C10.2131 19.5637 10.2112 19.5635 10.2094 19.5629C10.2076 19.5622 10.206 19.5611 10.2047 19.5597C10.2023 19.5572 10.1994 19.5553 10.1961 19.554C10.1928 19.5528 10.1893 19.5524 10.1858 19.5527C10.1823 19.553 10.179 19.5542 10.176 19.556C10.173 19.5578 10.1705 19.5603 10.1686 19.5633C10.164 19.5686 10.1574 19.5719 10.1504 19.5724C10.1434 19.5725 10.1367 19.5748 10.1311 19.579C10.1256 19.5832 10.1215 19.589 10.1195 19.5956C10.119 19.5978 10.1181 19.5999 10.1167 19.6017C10.1153 19.6034 10.1136 19.6049 10.1116 19.6059C10.1096 19.6069 10.1074 19.6074 10.1052 19.6074C10.1029 19.6075 10.1007 19.607 10.0987 19.606C10.0915 19.6037 10.0838 19.6038 10.0767 19.6063C10.0696 19.6088 10.0636 19.6136 10.0595 19.6199C10.0579 19.6223 10.0557 19.6243 10.0531 19.6255C10.0505 19.6268 10.0476 19.6273 10.0448 19.627C10.035 19.626 10.0251 19.6272 10.0159 19.6305C10.0066 19.6338 9.99819 19.6391 9.99122 19.6461C9.98848 19.6487 9.9852 19.6506 9.98161 19.6518C9.97802 19.653 9.97422 19.6534 9.97047 19.6529C9.96276 19.6519 9.95492 19.6527 9.94755 19.6552C9.94019 19.6577 9.93348 19.6618 9.92793 19.6672C9.92559 19.6695 9.92279 19.6713 9.91971 19.6724C9.91663 19.6735 9.91335 19.6739 9.91009 19.6737C9.89968 19.673 9.88929 19.6751 9.88 19.6799C9.87069 19.6852 9.86061 19.6891 9.85012 19.6913C9.81892 19.6966 9.78926 19.7086 9.76318 19.7266C9.76053 19.7284 9.75753 19.7298 9.75436 19.7305C9.75119 19.7312 9.74791 19.7313 9.74471 19.7307C9.73703 19.7291 9.72905 19.7297 9.72171 19.7325C9.71436 19.7352 9.70795 19.74 9.70321 19.7463C9.70138 19.749 9.69861 19.751 9.69543 19.7518C9.69225 19.7526 9.68889 19.7522 9.68599 19.7506C9.68211 19.7484 9.67779 19.747 9.67332 19.7466C9.66886 19.7462 9.66436 19.7467 9.66014 19.7482C9.65591 19.7497 9.65206 19.7521 9.64886 19.7553C9.64566 19.7584 9.64317 19.7622 9.64158 19.7664C9.64114 19.7679 9.64032 19.7693 9.6392 19.7703C9.63808 19.7714 9.63669 19.7722 9.63518 19.7726C9.63367 19.7729 9.63209 19.7729 9.63059 19.7725C9.62909 19.7721 9.62773 19.7713 9.62664 19.7701C9.61799 19.7639 9.60743 19.7608 9.59676 19.7614C9.59487 19.7614 9.59298 19.7617 9.59121 19.7624C9.58945 19.7631 9.58785 19.7641 9.58651 19.7655C9.58517 19.7668 9.58412 19.7684 9.58342 19.7702C9.58272 19.772 9.58239 19.7738 9.58244 19.7757C9.58225 19.7789 9.58155 19.7821 9.58037 19.7851C9.57663 19.7936 9.57103 19.7952 9.56356 19.7896C9.55772 19.7851 9.55065 19.7824 9.54326 19.7818C9.53586 19.7813 9.52848 19.783 9.52206 19.7867C9.51993 19.7876 9.51815 19.7891 9.51705 19.7911C9.51595 19.7932 9.51559 19.7955 9.51604 19.7977C9.51667 19.801 9.51667 19.8043 9.51604 19.8075C9.51293 19.817 9.50816 19.8179 9.50214 19.8098C9.50059 19.8077 9.49852 19.806 9.49612 19.805C9.4932 19.8037 9.49001 19.8033 9.48686 19.8036C9.4837 19.8039 9.48067 19.805 9.47807 19.8069L9.41146 19.85C9.40624 19.8533 9.4002 19.855 9.39403 19.855C9.38702 19.8543 9.37994 19.8552 9.37328 19.8575C9.32893 19.8796 9.28664 19.9057 9.24692 19.9353L8.78171 18.7544C8.7798 18.7496 8.7798 18.7442 8.78171 18.7393L9.28074 17.4754C9.28125 17.4742 9.28223 17.4731 9.28347 17.4726C9.28471 17.4721 9.28611 17.472 9.28738 17.4725C9.28853 17.4729 9.28949 17.4737 9.29008 17.4748L10.4268 19.4672Z" fill="#86878A"/>
<path d="M17.6088 18.4856C17.5961 18.4841 17.5899 18.49 17.5899 18.5026V19.3023C17.5899 19.3065 17.5915 19.3105 17.5945 19.3135C17.5974 19.3164 17.6015 19.3181 17.6056 19.3181H19.0374C19.0387 19.3181 19.0401 19.3184 19.0413 19.3189C19.0426 19.3194 19.0437 19.3202 19.0446 19.3211C19.0456 19.3221 19.0463 19.3232 19.0468 19.3245C19.0473 19.3258 19.0476 19.3271 19.0476 19.3285V19.8736C19.0476 19.8808 19.044 19.8844 19.0368 19.8844H17.5973C17.5962 19.8844 17.5951 19.8846 17.594 19.885C17.593 19.8855 17.592 19.8861 17.5913 19.8869C17.5905 19.8877 17.5898 19.8887 17.5894 19.8897C17.589 19.8908 17.5888 19.8919 17.5888 19.8931C17.591 20.0627 17.591 20.2588 17.5888 20.4815C17.5888 20.5701 17.5967 20.634 17.616 20.6728C17.6725 20.7872 17.7884 20.8229 17.9092 20.8227C18.3741 20.8227 18.8383 20.8227 19.3015 20.8227C19.3024 20.8227 19.3032 20.8228 19.304 20.8232C19.3047 20.8235 19.3054 20.824 19.306 20.8246C19.3066 20.8252 19.307 20.8259 19.3073 20.8266C19.3076 20.8274 19.3078 20.8283 19.3078 20.8291V21.3823C19.3078 21.3831 19.3076 21.3839 19.3073 21.3847C19.3069 21.3855 19.3065 21.3862 19.3059 21.3868C19.3053 21.3873 19.3045 21.3878 19.3038 21.3881C19.303 21.3884 19.3022 21.3885 19.3013 21.3885C18.7917 21.3867 18.2722 21.3871 17.7428 21.3895C17.4876 21.3906 17.2614 21.3914 17.0373 21.2858C16.7273 21.1391 16.6416 20.811 16.6416 20.488C16.6416 19.6441 16.6416 18.7893 16.6416 17.9235C16.6416 17.9215 16.6424 17.9196 16.6438 17.9182C16.6452 17.9168 16.6471 17.916 16.6491 17.916H19.2374C19.2393 17.916 19.2412 17.9168 19.2425 17.9181C19.2439 17.9195 19.2447 17.9214 19.2447 17.9233V18.4769C19.2447 18.4803 19.2434 18.4835 19.241 18.4859C19.2386 18.4883 19.2354 18.4897 19.232 18.4898H19.2291C19.2137 18.4872 19.1982 18.486 19.1826 18.486L17.6471 18.4877C17.6347 18.4877 17.6218 18.4877 17.6088 18.4856Z" fill="#383839"/>
<path d="M21.688 18.4954V21.378C21.688 21.3804 21.6871 21.3827 21.6854 21.3843C21.6837 21.386 21.6815 21.3869 21.6791 21.3869H20.7632C20.7608 21.3869 20.7585 21.386 20.7569 21.3843C20.7552 21.3827 20.7543 21.3804 20.7543 21.378V18.4952C20.7543 18.4929 20.7533 18.4906 20.7517 18.4889C20.75 18.4872 20.7477 18.4863 20.7453 18.4863H19.6896C19.6884 18.4863 19.6873 18.4861 19.6862 18.4856C19.6851 18.4852 19.6841 18.4845 19.6833 18.4837C19.6824 18.4829 19.6818 18.4819 19.6813 18.4808C19.6809 18.4797 19.6807 18.4786 19.6807 18.4774V17.9227C19.6807 17.9204 19.6816 17.9181 19.6833 17.9164C19.685 17.9148 19.6872 17.9138 19.6896 17.9138H22.6699C22.6723 17.9138 22.6745 17.9148 22.6762 17.9164C22.6779 17.9181 22.6788 17.9204 22.6788 17.9227V18.4778C22.6788 18.4802 22.6779 18.4824 22.6762 18.4841C22.6745 18.4858 22.6723 18.4867 22.6699 18.4867H21.6969C21.6946 18.4867 21.6924 18.4876 21.6907 18.4893C21.689 18.4909 21.6881 18.4931 21.688 18.4954Z" fill="#383839"/>
<path d="M27.7415 20.1521V21.3764C27.7415 21.3791 27.7405 21.3817 27.7385 21.3836C27.7366 21.3855 27.7341 21.3866 27.7314 21.3866H26.8233C26.8227 21.3866 26.8221 21.3865 26.8214 21.3863C26.8208 21.386 26.8203 21.3857 26.8198 21.3852C26.8194 21.3848 26.819 21.3843 26.8187 21.3837C26.8185 21.3831 26.8184 21.3824 26.8184 21.3818V17.9184C26.8184 17.9178 26.8185 17.9173 26.8187 17.9168C26.8189 17.9162 26.8192 17.9157 26.8196 17.9153C26.82 17.9149 26.8205 17.9146 26.821 17.9144C26.8216 17.9142 26.8221 17.9141 26.8227 17.9141C27.4122 17.9141 27.9774 17.9141 28.5184 17.9141C29.0193 17.9141 29.5922 18.0973 29.7501 18.6285C29.8446 18.9368 29.8225 19.2692 29.6879 19.5622C29.5627 19.8475 29.3341 20.0246 29.0021 20.0936C28.8525 20.1239 28.7002 20.1388 28.5477 20.138C28.291 20.138 28.027 20.138 27.7556 20.138C27.7537 20.1377 27.7517 20.1379 27.7499 20.1384C27.748 20.139 27.7463 20.1401 27.7449 20.1415C27.7436 20.1428 27.7425 20.1445 27.7419 20.1464C27.7413 20.1482 27.7412 20.1502 27.7415 20.1521ZM28.6883 18.5642C28.5873 18.5168 28.4773 18.4916 28.3657 18.4901C28.171 18.4859 27.9687 18.485 27.7587 18.4872C27.7578 18.487 27.7569 18.4871 27.756 18.4874C27.7551 18.4877 27.7543 18.4882 27.7536 18.4889C27.7529 18.4895 27.7524 18.4903 27.7521 18.4912C27.7518 18.4921 27.7518 18.4931 27.7519 18.494V19.5765C27.7517 19.5782 27.7518 19.5798 27.7523 19.5813C27.7528 19.5829 27.7537 19.5843 27.7548 19.5855C27.756 19.5866 27.7574 19.5875 27.7589 19.588C27.7605 19.5885 27.7621 19.5886 27.7637 19.5884C27.9376 19.5884 28.1141 19.5877 28.2933 19.5865C28.3476 19.5865 28.402 19.5774 28.4572 19.5757C28.6141 19.5705 28.8043 19.4869 28.883 19.3437C28.9231 19.2703 28.946 19.1887 28.95 19.1051C28.9622 18.8847 28.895 18.6625 28.6883 18.5642Z" fill="#383839"/>
<path d="M31.1788 17.9143H30.2903C30.2864 17.9143 30.2832 17.9175 30.2832 17.9214V21.38C30.2832 21.3839 30.2864 21.387 30.2903 21.387H31.1788C31.1827 21.387 31.1858 21.3839 31.1858 21.38V17.9214C31.1858 17.9175 31.1827 17.9143 31.1788 17.9143Z" fill="#383839"/>
<path d="M15.2072 20.2118C15.0827 20.0574 14.9258 20.0202 14.7374 19.9821C14.5675 19.9476 14.4085 19.9188 14.2602 19.8955C14.0925 19.8692 13.9602 19.8356 13.8632 19.7947C13.5663 19.6702 13.3355 19.4133 13.2801 19.0921C13.2508 18.9377 13.2566 18.7787 13.2972 18.6269C13.4071 18.237 13.8329 18.0058 14.2041 17.9438C14.3313 17.9249 14.4597 17.9165 14.5882 17.9187C14.9982 17.9202 15.4291 17.9183 15.8809 17.9131C15.8832 17.9131 15.8855 17.914 15.8871 17.9156C15.8887 17.9173 15.8897 17.9195 15.8897 17.9218C15.887 18.0631 15.8739 18.321 15.7793 18.4264C15.7511 18.4572 15.7166 18.4815 15.6781 18.4976C15.6396 18.5138 15.5981 18.5214 15.5564 18.52C15.2875 18.5214 15.0403 18.523 14.8148 18.5248C14.7333 18.5236 14.6518 18.529 14.5712 18.541C14.3575 18.5825 14.1589 18.6827 14.1834 18.9375C14.2079 19.1923 14.5108 19.2855 14.7229 19.3206C14.9719 19.3621 15.194 19.4069 15.3894 19.455C15.4849 19.4793 15.5769 19.5156 15.6633 19.5631C16.0329 19.7636 16.2067 20.0802 16.1847 20.513C16.1709 20.7858 16.049 21.002 15.8191 21.1615C15.6541 21.2739 15.4659 21.3477 15.2684 21.3773C15.1528 21.3974 15.0357 21.4078 14.9184 21.4086C14.4238 21.4086 13.9087 21.4086 13.3731 21.4086C13.3712 21.4089 13.3693 21.4088 13.3675 21.4082C13.3657 21.4076 13.3641 21.4065 13.3627 21.4052C13.3614 21.4038 13.3604 21.4021 13.3599 21.4003C13.3594 21.3985 13.3593 21.3966 13.3596 21.3947C13.3617 21.3233 13.3653 21.2556 13.3704 21.1916C13.378 21.1121 13.4004 21.0346 13.4364 20.9633C13.4588 20.9129 13.4957 20.8703 13.5422 20.8408C13.5888 20.8112 13.6431 20.7961 13.6983 20.7973C14.0469 20.7991 14.3758 20.7986 14.6851 20.7959C14.7924 20.7964 14.8993 20.7839 15.0036 20.7587C15.1294 20.7259 15.2458 20.6257 15.2682 20.4933C15.2842 20.3966 15.2694 20.2883 15.2072 20.2118Z" fill="#042E6F"/>
<path d="M32.3079 21.3661C32.3029 21.3724 32.2966 21.3775 32.2895 21.3811C32.2823 21.3847 32.2744 21.3866 32.2664 21.3869C32.0451 21.388 31.8157 21.388 31.5781 21.3869C31.5761 21.3869 31.5741 21.3861 31.5727 21.3846C31.5713 21.3832 31.5705 21.3812 31.5705 21.3792C31.5703 21.3783 31.5703 21.3774 31.5705 21.3765C31.7263 20.9486 31.8792 20.5278 32.0201 20.1006C32.2442 19.4215 32.4823 18.749 32.7345 18.0831C32.774 17.9793 32.9242 17.9349 33.0194 17.9308C33.2246 17.9211 33.4302 17.9232 33.6351 17.9372C33.6837 17.9431 33.7287 17.966 33.7621 18.0019C33.7915 18.0296 33.8184 18.0773 33.8426 18.1449C34.0293 18.6622 34.2069 19.1955 34.3862 19.692C34.5879 20.2506 34.7805 20.8125 34.9795 21.3728C34.98 21.3741 34.9802 21.3756 34.9801 21.3771C34.98 21.3785 34.9796 21.3799 34.979 21.3813C34.9784 21.3826 34.9775 21.3837 34.9764 21.3847C34.9753 21.3857 34.974 21.3864 34.9726 21.3869H34.9689L34.5209 21.3856C34.453 21.3872 34.385 21.3851 34.3173 21.3794C34.2463 21.3646 34.1821 21.327 34.1345 21.2723C34.1121 21.2477 34.0825 21.1821 34.0457 21.0754C33.9828 20.8932 33.9215 20.7095 33.8619 20.5241C33.8611 20.5215 33.8594 20.5192 33.8572 20.5176C33.855 20.516 33.8524 20.5151 33.8496 20.5152L32.6756 20.5137C32.6714 20.5139 32.6673 20.5153 32.664 20.5178C32.6606 20.5204 32.6581 20.5238 32.6567 20.5278C32.5891 20.7457 32.5185 20.9702 32.4451 21.2014C32.4251 21.2665 32.3838 21.323 32.3278 21.3618C32.3253 21.3635 32.3224 21.3645 32.3193 21.3647C32.3175 21.3649 32.3157 21.3649 32.3139 21.3647C32.3129 21.3641 32.3118 21.364 32.3106 21.3642C32.3095 21.3645 32.3085 21.3652 32.3079 21.3661ZM32.8356 19.9582C32.8353 19.9591 32.8351 19.96 32.8352 19.961C32.8352 19.9619 32.8354 19.9628 32.8358 19.9636C32.8363 19.9645 32.8368 19.9652 32.8375 19.9658C32.8382 19.9664 32.8391 19.9669 32.8399 19.9672H32.8422L33.6986 19.9686C33.7004 19.9686 33.7022 19.9679 33.7036 19.9666C33.7049 19.9652 33.7056 19.9634 33.7056 19.9616C33.7057 19.9608 33.7057 19.96 33.7056 19.9593L33.2796 18.7062C33.2794 18.7053 33.2789 18.7045 33.2783 18.7038C33.2777 18.7031 33.2769 18.7025 33.2761 18.7021C33.2753 18.7017 33.2744 18.7015 33.2734 18.7014C33.2725 18.7014 33.2716 18.7015 33.2707 18.7018C33.2697 18.7021 33.2688 18.7027 33.268 18.7034C33.2673 18.7041 33.2667 18.705 33.2663 18.706L32.8356 19.9582Z" fill="#383839"/>
<path fill-rule="evenodd" clip-rule="evenodd" d="M25.0793 21.4815C25.4314 21.3853 25.7678 21.1527 25.9665 20.8441C26.3338 20.2741 26.3903 19.5421 26.1969 18.9061C26.0292 18.3539 25.5804 17.8964 24.9977 17.7926C24.7749 17.753 24.5473 17.7472 24.3227 17.7754C24.025 17.8112 23.7432 17.9296 23.5093 18.1174C23.1095 18.4346 22.902 18.931 22.8785 19.4416C22.8559 19.9143 22.9393 20.4341 23.2 20.8242C23.5075 21.2846 23.9481 21.5244 24.5219 21.5438C24.7098 21.5512 24.8977 21.5302 25.0793 21.4815ZM25.4253 19.417C25.4087 19.2446 25.3716 19.0756 25.3125 18.9168C25.2574 18.7683 25.1678 18.635 25.0513 18.5277C24.8089 18.3022 24.3831 18.2912 24.1402 18.5209C24.0069 18.6473 23.9059 18.8038 23.8457 18.9774C23.78 19.1662 23.7426 19.3629 23.7339 19.5611C23.7277 19.7035 23.7363 19.8467 23.76 19.9884C23.7908 20.1984 23.8623 20.4004 23.9706 20.5831C24.0783 20.7597 24.2599 20.9194 24.4707 20.9433C24.5946 20.9588 24.7205 20.9458 24.8386 20.9051C25.0218 20.8402 25.1791 20.652 25.2625 20.4797C25.3075 20.3874 25.3427 20.2906 25.3675 20.1909C25.4297 19.9403 25.4504 19.6748 25.4253 19.417Z" fill="#383839"/>
<path d="M6.98611 21.9945L6.87655 22.2732C6.87594 22.2752 6.87467 22.277 6.87294 22.2782C6.8712 22.2794 6.86911 22.28 6.86701 22.2798H5.7627L5.91832 22.2724C5.91922 22.2723 5.9201 22.2721 5.92091 22.2717C5.92172 22.2713 5.92245 22.2708 5.92304 22.2701C5.92364 22.2694 5.9241 22.2686 5.92439 22.2678C5.92469 22.2669 5.92481 22.266 5.92475 22.2651C5.92494 22.2643 5.92494 22.2634 5.92475 22.2626C5.92362 22.2602 5.92191 22.2582 5.91977 22.2566C5.919 22.2561 5.9184 22.2554 5.91806 22.2545C5.91773 22.2537 5.91767 22.2527 5.9179 22.2518C5.92611 22.2044 5.93021 22.1564 5.93015 22.1082C5.93125 21.6205 5.93125 21.1917 5.93015 20.8218C5.93061 20.811 5.92686 20.8005 5.91969 20.7924C5.91253 20.7843 5.90251 20.7794 5.89176 20.7786C5.88867 20.7781 5.88551 20.7781 5.88242 20.7786C5.87972 20.7786 5.87869 20.7823 5.8791 20.7875C5.88006 20.7843 5.8802 20.7808 5.87951 20.7775C5.87882 20.7741 5.87733 20.771 5.87516 20.7684L6.92386 18.9277C6.9274 18.9294 6.93142 18.9298 6.93522 18.9288C6.93902 18.9278 6.94235 18.9255 6.94461 18.9223C6.96017 18.9063 6.96785 18.9096 6.96785 18.9318C6.96785 19.9068 6.96785 20.8825 6.96785 21.8588C6.96784 21.8607 6.96726 21.8625 6.96619 21.864C6.96568 21.8647 6.96531 21.8655 6.96509 21.8663C6.96488 21.8671 6.96483 21.868 6.96494 21.8688L6.97387 21.9682C6.97418 21.9695 6.97419 21.9709 6.97389 21.9722C6.9736 21.9735 6.97302 21.9748 6.97218 21.9759C6.97135 21.9769 6.97028 21.9778 6.96907 21.9784C6.96785 21.979 6.96651 21.9794 6.96515 21.9794C6.96372 21.9795 6.96233 21.98 6.9611 21.9807C6.95988 21.9815 6.95885 21.9825 6.9581 21.9837C6.95581 21.9879 6.9581 21.9902 6.96183 21.9908L6.98611 21.9945Z" fill="#004584"/>
<path d="M8.79172 20.081L8.51865 20.082C8.51644 19.882 8.51699 19.6826 8.52031 19.484C8.521 19.4736 8.52288 19.4633 8.52591 19.4533C8.53152 19.4338 8.52737 19.4232 8.51367 19.4213C8.5143 19.4185 8.51575 19.416 8.51782 19.4141C8.52259 19.4101 8.52591 19.411 8.5282 19.4166L8.79172 20.081Z" fill="#4C4D4F"/>
<path d="M8.51234 19.4216C8.52604 19.4235 8.53019 19.4341 8.52459 19.4536C8.52155 19.4636 8.51967 19.4739 8.51898 19.4843C8.51539 19.6829 8.51483 19.8823 8.51732 20.0823L8.51608 20.4143C8.51608 20.4371 8.50114 20.4502 8.47458 20.4533C8.47104 20.4539 8.46742 20.4533 8.46421 20.4517C8.46101 20.4501 8.45839 20.4476 8.45673 20.4444C8.45603 20.4432 8.45508 20.4421 8.45393 20.4412C8.45279 20.4404 8.45148 20.4397 8.45009 20.4394C8.44155 20.4369 8.43242 20.4373 8.42416 20.4407C8.42061 20.4423 8.41666 20.443 8.41277 20.4425C8.40888 20.442 8.4052 20.4404 8.40216 20.438C8.39892 20.4357 8.39649 20.4325 8.39522 20.4287C8.39395 20.425 8.39391 20.421 8.39511 20.4172C8.39595 20.4151 8.39595 20.4128 8.39511 20.4108C8.39137 20.4043 8.38681 20.4037 8.38141 20.4091L8.37456 20.4158C8.36855 20.4218 8.36336 20.4212 8.35879 20.4139C8.35266 20.4043 8.34502 20.3957 8.33618 20.3886C8.33393 20.3865 8.33102 20.3852 8.32796 20.3851C8.32489 20.3849 8.32186 20.3857 8.31937 20.3875C8.31745 20.3887 8.31588 20.3903 8.3148 20.3923C8.30941 20.4006 8.30401 20.4006 8.29841 20.3923C8.295 20.3853 8.28896 20.3798 8.28158 20.3772C8.27421 20.3746 8.2661 20.3749 8.25899 20.3782C8.2553 20.3801 8.25113 20.3808 8.24703 20.3803C8.24292 20.3798 8.23907 20.378 8.23595 20.3753C8.23324 20.3735 8.23115 20.3709 8.22996 20.3678C8.22878 20.3648 8.22855 20.3615 8.22931 20.3583C8.23015 20.3555 8.23001 20.3525 8.22891 20.3499C8.22782 20.3472 8.22583 20.3449 8.2233 20.3435C8.22018 20.3417 8.2179 20.3419 8.21686 20.3435C8.21642 20.3455 8.21543 20.3474 8.21401 20.3488C8.21258 20.3503 8.21078 20.3513 8.2088 20.3518C8.20681 20.3523 8.20473 20.3523 8.20279 20.3516C8.20084 20.351 8.1991 20.3499 8.19777 20.3483L8.15918 20.3193L8.51234 19.4216Z" fill="#042E6F"/>
<path d="M10.4268 19.4671L10.9065 20.3087C10.8652 20.3326 10.8201 20.3491 10.7731 20.3575C10.7699 20.3579 10.7669 20.359 10.7642 20.3606C10.7614 20.3624 10.759 20.3647 10.7571 20.3675C10.7556 20.3701 10.7534 20.3721 10.7506 20.3733C10.7479 20.3744 10.7448 20.3746 10.742 20.3739C10.7348 20.3723 10.7274 20.3726 10.7205 20.3748C10.7135 20.377 10.7073 20.381 10.7023 20.3863C10.699 20.3897 10.695 20.3923 10.6905 20.3938C10.686 20.3953 10.6813 20.3957 10.6766 20.3951C10.6728 20.3943 10.6689 20.3949 10.6655 20.3966C10.6621 20.3984 10.6595 20.4013 10.6579 20.4048C10.656 20.4092 10.6525 20.4126 10.6481 20.4146C10.6437 20.4165 10.6388 20.4168 10.6343 20.4154C10.6269 20.4134 10.6191 20.4137 10.6121 20.4165C10.605 20.4192 10.5989 20.4241 10.5948 20.4305C10.5931 20.4333 10.5905 20.4354 10.5874 20.4365C10.5843 20.4376 10.5809 20.4376 10.5778 20.4366C10.5701 20.4338 10.5617 20.4337 10.5538 20.4361C10.546 20.4386 10.5392 20.4436 10.5345 20.4503C10.5325 20.4529 10.5297 20.455 10.5266 20.4561C10.5235 20.4573 10.5201 20.4575 10.5168 20.4567C10.5086 20.4549 10.5 20.4553 10.492 20.4579C10.4841 20.4606 10.4769 20.4653 10.4714 20.4716C10.4696 20.4738 10.4673 20.4754 10.4646 20.4764C10.462 20.4774 10.4592 20.4778 10.4564 20.4774C10.4388 20.4759 10.4213 20.4813 10.4077 20.4926C10.4036 20.4959 10.3987 20.498 10.3936 20.4986C10.3612 20.5035 10.3305 20.516 10.3039 20.5351C10.3011 20.5371 10.2979 20.5386 10.2945 20.5393C10.2911 20.5401 10.2876 20.5401 10.2842 20.5395C10.2763 20.5377 10.268 20.5382 10.2604 20.5411C10.2528 20.5439 10.2463 20.5489 10.2415 20.5555C10.2398 20.558 10.2373 20.56 10.2344 20.561C10.2315 20.562 10.2284 20.562 10.2255 20.5611C10.2177 20.5582 10.2092 20.558 10.2013 20.5605C10.1934 20.5629 10.1865 20.5678 10.1817 20.5745C10.1797 20.5775 10.1768 20.5797 10.1735 20.5809C10.1701 20.5821 10.1664 20.5822 10.163 20.5812C10.1552 20.579 10.1469 20.5791 10.1392 20.5815C10.1314 20.5839 10.1246 20.5886 10.1195 20.5949C10.1168 20.5981 10.1133 20.6004 10.1094 20.6017C10.1055 20.603 10.1013 20.6031 10.0973 20.6021C10.0907 20.6001 10.0836 20.6001 10.077 20.6021C10.0704 20.6041 10.0645 20.608 10.0601 20.6133C10.0559 20.6182 10.0499 20.6212 10.0435 20.6216C10.0198 20.6244 9.99697 20.632 9.97628 20.6438C9.95514 20.6553 9.9329 20.6647 9.90988 20.6717C9.84999 20.6901 9.79078 20.7102 9.73226 20.7322C9.70704 20.7421 9.68091 20.7495 9.65424 20.7542C9.62879 20.7587 9.60202 20.7626 9.57394 20.7661L9.24609 19.9344C9.28597 19.905 9.3284 19.8791 9.37288 19.8572C9.37953 19.8549 9.38661 19.8541 9.39363 19.8547C9.39979 19.8548 9.40583 19.853 9.41106 19.8497L9.47766 19.8066C9.48026 19.8048 9.48329 19.8036 9.48645 19.8033C9.48961 19.803 9.4928 19.8035 9.49572 19.8047C9.49811 19.8058 9.50018 19.8074 9.50173 19.8095C9.50775 19.8176 9.51252 19.8168 9.51564 19.8072C9.51626 19.804 9.51626 19.8007 9.51564 19.7975C9.51519 19.7952 9.51554 19.7929 9.51664 19.7909C9.51774 19.7889 9.51952 19.7873 9.52165 19.7865C9.52807 19.7827 9.53545 19.781 9.54285 19.7816C9.55024 19.7821 9.55731 19.7848 9.56315 19.7894C9.57062 19.795 9.57622 19.7933 9.57996 19.7848C9.58114 19.7818 9.58184 19.7787 9.58203 19.7755C9.58198 19.7736 9.58231 19.7717 9.58301 19.7699C9.58371 19.7682 9.58476 19.7666 9.5861 19.7652C9.58744 19.7639 9.58904 19.7628 9.59081 19.7621C9.59257 19.7614 9.59446 19.7611 9.59635 19.7611C9.60702 19.7605 9.61758 19.7636 9.62623 19.7699C9.62732 19.771 9.62868 19.7718 9.63018 19.7722C9.63168 19.7726 9.63326 19.7727 9.63477 19.7723C9.63628 19.7719 9.63767 19.7711 9.63879 19.7701C9.63991 19.769 9.64073 19.7676 9.64117 19.7661C9.64276 19.7619 9.64525 19.7581 9.64845 19.755C9.65166 19.7519 9.6555 19.7495 9.65973 19.748C9.66395 19.7465 9.66845 19.7459 9.67291 19.7463C9.67738 19.7467 9.6817 19.7481 9.68558 19.7504C9.68848 19.7519 9.69184 19.7523 9.69502 19.7515C9.6982 19.7507 9.70097 19.7487 9.7028 19.746C9.70754 19.7397 9.71395 19.735 9.7213 19.7322C9.72864 19.7295 9.73662 19.7288 9.7443 19.7304C9.7475 19.731 9.75078 19.7309 9.75395 19.7302C9.75712 19.7295 9.76012 19.7282 9.76277 19.7263C9.78899 19.7084 9.8188 19.6964 9.85012 19.6912C9.86107 19.6894 9.87164 19.6858 9.88146 19.6806C9.89075 19.6759 9.90114 19.6738 9.91154 19.6744C9.9148 19.6747 9.91809 19.6742 9.92117 19.6731C9.92424 19.672 9.92705 19.6703 9.92939 19.668C9.93494 19.6625 9.94165 19.6584 9.94901 19.6559C9.95638 19.6535 9.96421 19.6527 9.97193 19.6537C9.97568 19.6541 9.97948 19.6538 9.98307 19.6526C9.98666 19.6514 9.98994 19.6494 9.99268 19.6468C9.99965 19.6399 10.0081 19.6346 10.0173 19.6313C10.0266 19.628 10.0364 19.6268 10.0462 19.6277C10.0491 19.628 10.052 19.6275 10.0546 19.6263C10.0572 19.625 10.0594 19.6231 10.0609 19.6207C10.065 19.6143 10.0711 19.6095 10.0782 19.607C10.0853 19.6045 10.093 19.6044 10.1002 19.6068C10.1022 19.6077 10.1044 19.6082 10.1066 19.6082C10.1089 19.6082 10.1111 19.6076 10.1131 19.6066C10.1151 19.6056 10.1168 19.6042 10.1182 19.6024C10.1195 19.6006 10.1205 19.5986 10.1209 19.5964C10.123 19.5898 10.1271 19.5839 10.1326 19.5798C10.1382 19.5756 10.1449 19.5733 10.1518 19.5732C10.1589 19.5726 10.1654 19.5694 10.1701 19.564C10.172 19.5611 10.1745 19.5586 10.1775 19.5568C10.1804 19.5549 10.1838 19.5538 10.1873 19.5535C10.1908 19.5531 10.1943 19.5536 10.1975 19.5548C10.2008 19.556 10.2038 19.558 10.2062 19.5605C10.2075 19.5619 10.2091 19.563 10.2108 19.5636C10.2126 19.5643 10.2145 19.5644 10.2164 19.5642C10.2183 19.5639 10.2201 19.5631 10.2216 19.562C10.2231 19.5608 10.2243 19.5593 10.2251 19.5576C10.2265 19.5554 10.2283 19.5536 10.2305 19.5522C10.2339 19.5499 10.2378 19.5483 10.2419 19.5476C10.2745 19.5426 10.3067 19.5351 10.3382 19.525C10.3521 19.5206 10.3641 19.5114 10.372 19.4991C10.3727 19.4973 10.3739 19.4957 10.3754 19.4945C10.3769 19.4933 10.3787 19.4924 10.3806 19.4921C10.3825 19.4917 10.3845 19.4918 10.3864 19.4924C10.3882 19.4929 10.3899 19.494 10.3913 19.4953C10.3939 19.4974 10.3973 19.4983 10.4006 19.498C10.401 19.4981 10.4014 19.4979 10.4017 19.4977C10.402 19.4975 10.4022 19.4972 10.4023 19.4968C10.4104 19.4746 10.4178 19.4648 10.4268 19.4671Z" fill="#67686A"/>
<path d="M8.79218 20.0811L9.10177 20.8644C9.10177 20.8712 9.09908 20.8756 9.09119 20.877C9.08331 20.8785 9.07895 20.8718 9.0775 20.8627C9.0775 20.8627 9.0775 20.8627 9.0775 20.861C9.0774 20.8605 9.07747 20.86 9.07769 20.8596C9.07792 20.8591 9.07829 20.8588 9.07874 20.8586C9.08261 20.8568 9.08261 20.8557 9.07874 20.8554C8.89282 20.8489 8.70642 20.8483 8.51953 20.8536V20.4135L8.52078 20.0815L8.79218 20.0811Z" fill="#67686A"/>
<path d="M10.9068 20.3088L12.024 22.2695C12.0248 22.2711 12.0252 22.2729 12.0251 22.2747C12.0249 22.2765 12.0243 22.2782 12.0233 22.2797C12.0222 22.2811 12.0207 22.2822 12.0191 22.2829C12.0174 22.2836 12.0156 22.2837 12.0138 22.2834C12.0001 22.2805 11.9862 22.2791 11.9723 22.2792C11.3192 22.2792 10.7213 22.2792 10.1787 22.2792C10.1762 22.2792 10.1739 22.2785 10.1719 22.2771C10.1699 22.2757 10.1684 22.2738 10.1675 22.2716L9.57422 20.7662C9.60189 20.7626 9.62865 20.7586 9.65452 20.7543C9.68118 20.7496 9.70731 20.7422 9.73254 20.7323C9.79106 20.7103 9.85026 20.6902 9.91016 20.6718C9.93317 20.6648 9.95542 20.6554 9.97656 20.6439C9.99724 20.6321 10.0201 20.6245 10.0438 20.6217C10.0502 20.6213 10.0562 20.6183 10.0604 20.6134C10.0648 20.6081 10.0706 20.6042 10.0773 20.6022C10.0839 20.6002 10.0909 20.6002 10.0975 20.6022C10.1015 20.6032 10.1057 20.6031 10.1097 20.6018C10.1136 20.6005 10.1171 20.5982 10.1197 20.595C10.1249 20.5887 10.1317 20.584 10.1395 20.5816C10.1472 20.5792 10.1555 20.5791 10.1633 20.5813C10.1667 20.5823 10.1704 20.5822 10.1737 20.581C10.1771 20.5798 10.18 20.5776 10.182 20.5746C10.1868 20.5679 10.1937 20.563 10.2016 20.5606C10.2095 20.5581 10.218 20.5583 10.2258 20.5612C10.2287 20.5621 10.2318 20.5621 10.2347 20.5611C10.2376 20.5601 10.2401 20.5581 10.2417 20.5556C10.2465 20.549 10.2531 20.544 10.2607 20.5412C10.2683 20.5383 10.2766 20.5378 10.2845 20.5396C10.2879 20.5402 10.2914 20.5402 10.2948 20.5394C10.2982 20.5387 10.3014 20.5372 10.3042 20.5352C10.3308 20.5161 10.3615 20.5036 10.3938 20.4987C10.399 20.4981 10.4039 20.496 10.4079 20.4927C10.4216 20.4814 10.4391 20.476 10.4567 20.4775C10.4595 20.4779 10.4623 20.4775 10.4649 20.4765C10.4675 20.4755 10.4698 20.4739 10.4717 20.4717C10.4772 20.4654 10.4843 20.4607 10.4923 20.458C10.5003 20.4554 10.5089 20.455 10.5171 20.4568C10.5203 20.4576 10.5237 20.4574 10.5269 20.4562C10.53 20.4551 10.5327 20.453 10.5347 20.4504C10.5395 20.4437 10.5463 20.4387 10.5541 20.4362C10.5619 20.4338 10.5704 20.4339 10.5781 20.4367C10.5812 20.4377 10.5846 20.4377 10.5877 20.4366C10.5907 20.4355 10.5934 20.4334 10.5951 20.4306C10.5992 20.4242 10.6052 20.4193 10.6123 20.4166C10.6194 20.4138 10.6272 20.4135 10.6345 20.4155C10.6391 20.4169 10.644 20.4166 10.6484 20.4147C10.6527 20.4127 10.6562 20.4093 10.6582 20.4049C10.6597 20.4014 10.6624 20.3985 10.6658 20.3967C10.6692 20.395 10.6731 20.3944 10.6769 20.3952C10.6815 20.3958 10.6863 20.3954 10.6908 20.3939C10.6953 20.3924 10.6993 20.3898 10.7026 20.3864C10.7075 20.3811 10.7138 20.3771 10.7207 20.3749C10.7277 20.3727 10.7351 20.3724 10.7422 20.374C10.7451 20.3747 10.7482 20.3745 10.7509 20.3734C10.7536 20.3722 10.7559 20.3702 10.7574 20.3676C10.7592 20.3648 10.7616 20.3625 10.7644 20.3607C10.7672 20.3591 10.7702 20.358 10.7734 20.3576C10.8203 20.3492 10.8655 20.3327 10.9068 20.3088Z" fill="#4C4D4F"/>
<path d="M8.15899 20.3191L8.19758 20.3481C8.19891 20.3497 8.20064 20.3508 8.20259 20.3515C8.20454 20.3521 8.20662 20.3522 8.2086 20.3517C8.21058 20.3512 8.21239 20.3501 8.21381 20.3487C8.21524 20.3472 8.21623 20.3454 8.21667 20.3434C8.21667 20.3409 8.21999 20.3407 8.2231 20.3434C8.22564 20.3448 8.22762 20.347 8.22872 20.3497C8.22981 20.3524 8.22995 20.3553 8.22912 20.3581C8.22836 20.3613 8.22858 20.3646 8.22977 20.3677C8.23096 20.3707 8.23305 20.3733 8.23576 20.3751C8.23887 20.3778 8.24273 20.3796 8.24683 20.3801C8.25094 20.3806 8.2551 20.3799 8.25879 20.378C8.2659 20.3747 8.27402 20.3744 8.28139 20.377C8.28876 20.3797 8.29481 20.3851 8.29822 20.3921C8.30382 20.4004 8.30921 20.4004 8.31461 20.3921C8.31568 20.3902 8.31726 20.3885 8.31917 20.3874C8.32166 20.3856 8.3247 20.3847 8.32776 20.3849C8.33083 20.3851 8.33373 20.3863 8.33598 20.3884C8.34483 20.3956 8.35247 20.4041 8.3586 20.4137C8.36316 20.421 8.36835 20.4216 8.37437 20.4156L8.38122 20.4089C8.38661 20.4035 8.39118 20.4042 8.39491 20.4106C8.39575 20.4127 8.39575 20.415 8.39491 20.417C8.39372 20.4208 8.39376 20.4248 8.39503 20.4286C8.3963 20.4323 8.39873 20.4355 8.40197 20.4378C8.405 20.4403 8.40868 20.4418 8.41257 20.4423C8.41647 20.4428 8.42042 20.4422 8.42396 20.4405C8.43222 20.4372 8.44136 20.4367 8.4499 20.4392C8.45129 20.4396 8.4526 20.4402 8.45374 20.441C8.45488 20.4419 8.45583 20.443 8.45654 20.4442C8.4582 20.4474 8.46081 20.45 8.46402 20.4516C8.46722 20.4532 8.47085 20.4537 8.47438 20.4531C8.50115 20.45 8.51588 20.437 8.51588 20.4141V20.8542V21.3377C8.51215 21.3341 8.50939 21.3296 8.50783 21.3246C8.50627 21.3197 8.50597 21.3144 8.50696 21.3093C8.508 21.2929 8.50696 21.2927 8.5026 21.3093C8.50152 21.3142 8.4997 21.3188 8.49721 21.3232C8.496 21.3252 8.49408 21.3266 8.49185 21.3272C8.48961 21.3278 8.48723 21.3276 8.48517 21.3265C8.45818 21.3066 8.4268 21.2934 8.39367 21.2881C8.38587 21.2871 8.3786 21.2836 8.37292 21.2782C8.36805 21.2734 8.36209 21.27 8.35558 21.2681C8.34907 21.2662 8.3422 21.266 8.33557 21.2674C8.33235 21.2679 8.32906 21.2678 8.32589 21.2671C8.32272 21.2663 8.31973 21.2649 8.3171 21.263C8.29003 21.2434 8.25865 21.2305 8.22559 21.2254C8.21893 21.2245 8.21274 21.2215 8.20796 21.2167C8.20294 21.2118 8.19681 21.2082 8.19009 21.2062C8.18337 21.2041 8.17625 21.2038 8.16936 21.2051C8.16621 21.2057 8.16299 21.2055 8.15988 21.2048C8.15678 21.204 8.15386 21.2027 8.15131 21.2008C8.12418 21.1812 8.09271 21.1684 8.05959 21.1636C8.05259 21.1626 8.04614 21.1593 8.04133 21.1541C8.03741 21.1496 8.03241 21.1463 8.02681 21.1444C8.02121 21.1424 8.0152 21.142 8.00938 21.1431C8.00163 21.1442 7.99374 21.1426 7.98697 21.1387C7.97314 21.1304 7.9593 21.1229 7.94547 21.1163C7.93111 21.1107 7.91613 21.1069 7.90086 21.1049C7.8905 21.1038 7.88099 21.0987 7.87436 21.0906C7.86773 21.0826 7.8645 21.0723 7.86537 21.0619L8.15899 20.3191Z" fill="#004584"/>
<path d="M5.87514 20.7703C5.87731 20.7729 5.8788 20.776 5.87949 20.7793C5.88018 20.7826 5.88003 20.7861 5.87908 20.7894C5.87908 20.7842 5.87908 20.7811 5.8824 20.7804C5.88748 20.7794 5.89271 20.7795 5.89779 20.7805C5.90286 20.7815 5.90768 20.7836 5.91196 20.7865C5.91624 20.7894 5.91991 20.7931 5.92274 20.7975C5.92557 20.8018 5.92752 20.8067 5.92846 20.8118C5.9293 20.8152 5.92972 20.8186 5.92971 20.8221C5.93081 21.1915 5.93081 21.6203 5.92971 22.1086C5.92977 22.1568 5.92567 22.2048 5.91747 22.2522C5.91723 22.2531 5.91729 22.2541 5.91762 22.2549C5.91796 22.2558 5.91856 22.2565 5.91933 22.257C5.92147 22.2586 5.92318 22.2606 5.92431 22.263C5.9247 22.2638 5.92492 22.2647 5.92496 22.2656C5.925 22.2665 5.92486 22.2674 5.92455 22.2683C5.92424 22.2691 5.92377 22.2699 5.92316 22.2706C5.92255 22.2712 5.92181 22.2718 5.92099 22.2721H5.9185L5.76288 22.2796L5.03331 22.2815C5.02065 22.2815 5.01733 22.2761 5.02356 22.2651L5.87514 20.7703Z" fill="#042E6F"/>
<path d="M9.1003 20.8642L9.65328 22.2669C9.65639 22.2746 9.65328 22.2786 9.6454 22.2786H8.5166V21.3365V20.853C8.70349 20.8479 8.88989 20.8485 9.07581 20.8549C9.08024 20.8549 9.08024 20.8559 9.07581 20.858C9.07536 20.8582 9.07499 20.8586 9.07477 20.859C9.07454 20.8595 9.07447 20.86 9.07457 20.8605C9.07457 20.8696 9.081 20.8769 9.08722 20.8767H9.08847C9.0976 20.8754 9.10113 20.8711 9.1003 20.8642Z" fill="#86878A"/>
<path d="M7.86698 21.0608C7.86611 21.0712 7.86934 21.0815 7.87597 21.0895C7.8826 21.0975 7.89211 21.1026 7.90246 21.1037C7.91774 21.1057 7.93272 21.1096 7.94708 21.1152C7.96008 21.1218 7.97391 21.1293 7.98858 21.1376C7.99535 21.1415 8.00324 21.143 8.01099 21.1419C8.01681 21.1408 8.02281 21.1413 8.02842 21.1432C8.03402 21.1451 8.03902 21.1485 8.04294 21.1529C8.04775 21.1581 8.0542 21.1615 8.0612 21.1625C8.09432 21.1673 8.12579 21.18 8.15292 21.1996C8.15547 21.2015 8.15839 21.2029 8.16149 21.2036C8.1646 21.2044 8.16782 21.2045 8.17097 21.204C8.17786 21.2026 8.18498 21.203 8.1917 21.205C8.19842 21.207 8.20455 21.2107 8.20956 21.2156C8.21435 21.2203 8.22053 21.2234 8.2272 21.2243C8.26026 21.2293 8.29164 21.2422 8.31871 21.2619C8.32134 21.2638 8.32433 21.2652 8.3275 21.2659C8.33067 21.2667 8.33396 21.2668 8.33718 21.2662C8.34381 21.2648 8.35068 21.2651 8.35719 21.267C8.3637 21.2688 8.36965 21.2723 8.37453 21.277C8.3802 21.2825 8.38747 21.2859 8.39527 21.287C8.42841 21.2923 8.45979 21.3054 8.48678 21.3254C8.48771 21.326 8.48876 21.3265 8.48988 21.3268C8.49099 21.3271 8.49215 21.3271 8.49329 21.327C8.49443 21.3268 8.49552 21.3264 8.49651 21.3258C8.49749 21.3252 8.49835 21.3244 8.49902 21.3235C8.50151 21.3191 8.50333 21.3145 8.50442 21.3096C8.50836 21.2938 8.50981 21.294 8.50878 21.3096C8.50779 21.3147 8.50809 21.32 8.50964 21.3249C8.5112 21.3299 8.51397 21.3344 8.5177 21.338V22.2801H8.35668L7.4082 22.2784C7.40607 22.2804 7.40352 22.282 7.40073 22.283C7.39933 22.2829 7.39796 22.2826 7.39669 22.282C7.39542 22.2814 7.39429 22.2805 7.39336 22.2795C7.39243 22.2784 7.39172 22.2772 7.39127 22.2759C7.39083 22.2746 7.39066 22.2732 7.39077 22.2718C7.39058 22.2707 7.39058 22.2697 7.39077 22.2686L7.86698 21.0608Z" fill="#005496"/>
</g>
<circle cx="20" cy="20" r="19.5" stroke="black" stroke-opacity="0.05"/>
<defs>
<clipPath id="clip0_19631_63550">
<rect width="30" height="5.3043" fill="white" transform="translate(5 17)"/>
</clipPath>
</defs>
</svg>
