<svg width="40" height="40" viewBox="0 0 40 40" fill="none" xmlns="http://www.w3.org/2000/svg">
<circle cx="20" cy="20" r="20" fill="#F6F8FA"/>
<g clip-path="url(#clip0_14382_20668)">
<path d="M30.3946 19.7527C29.8363 19.1302 29.2036 18.5786 28.511 18.1103C28.4548 18.0833 28.4083 18.0398 28.3777 17.9855C28.347 17.9313 28.3338 17.8689 28.3397 17.8069C28.4349 16.624 27.6746 15.9589 26.8254 15.3687C25.5371 14.4726 24.0635 14.036 22.5366 13.8062C20.1377 13.4432 17.7528 13.5524 15.4288 14.2936C14.341 14.6401 13.3155 15.1263 12.474 15.931C11.3888 16.9692 11.3507 18.0506 12.4067 19.1117C13.629 20.3404 15.199 20.8887 16.8491 21.1958C19.6249 21.7213 22.3767 21.6363 25.0573 20.6602C25.4127 20.5333 25.5511 20.5333 25.5358 20.9572C25.513 21.5918 25.5231 22.2265 25.5358 22.8522C25.5358 23.1061 25.5028 23.285 25.2058 23.3599C20.4893 24.6292 15.9251 24.4946 11.6527 21.8495C10.5383 21.1578 9.65745 20.1995 9.24748 18.9302C8.59 16.8994 9.33125 15.2494 10.8366 13.8976C12.3597 12.5217 14.2179 11.7792 16.203 11.3985C20.2812 10.6166 24.2437 10.859 27.9347 12.9761C29.1037 13.6476 30.0696 14.5513 30.6256 15.8167C31.2005 17.1456 31.1016 18.4301 30.3946 19.7527Z" fill="#146EB0"/>
<path d="M9.6207 20.8316C10.1282 21.4319 10.7169 21.9586 11.3698 22.3966C11.4617 22.4437 11.5376 22.5171 11.5875 22.6076C11.6375 22.698 11.6593 22.8013 11.6503 22.9043C11.602 23.5859 11.9371 24.1151 12.3928 24.5784C13.2584 25.458 14.3373 25.9746 15.4961 26.316C18.9586 27.3314 22.3818 27.2591 25.7339 25.8477C26.4173 25.5662 27.0397 25.155 27.5667 24.6368C28.6151 23.5935 28.6316 22.4791 27.5667 21.4421C26.3927 20.2997 24.9115 19.7629 23.3503 19.443C20.5148 18.8642 17.7084 18.9505 14.9656 19.9507C14.6076 20.0776 14.4743 20.0421 14.5073 19.6359C14.534 19.3008 14.5073 18.962 14.5073 18.6205C14.5073 17.2688 14.501 17.2383 15.7931 16.9616C19.6314 16.1379 23.396 16.2851 27.0159 17.9504C28.0165 18.4027 28.9171 19.05 29.6648 19.8542C31.4519 21.7835 31.4418 24.3576 29.6255 26.264C28.1328 27.829 26.2315 28.6667 24.1765 29.1211C20.6975 29.8903 17.2375 29.7887 13.874 28.5093C12.196 27.8747 10.6932 26.9468 9.70703 25.3831C8.79443 23.9374 8.76268 22.4359 9.6207 20.8316Z" fill="#189F80"/>
</g>
<circle cx="20" cy="20" r="19.5" stroke="black" stroke-opacity="0.05"/>
<defs>
<clipPath id="clip0_14382_20668">
<rect width="22" height="18.6149" fill="white" transform="translate(9 11)"/>
</clipPath>
</defs>
</svg>
