<svg width="40" height="40" viewBox="0 0 40 40" fill="none" xmlns="http://www.w3.org/2000/svg">
<circle cx="20" cy="20" r="20" fill="#F6F8FA"/>
<g clip-path="url(#clip0_18553_55908)">
<path d="M20 31.4736C26.0731 31.4736 31 26.5512 31 20.4708C31 14.3904 26.0731 9.47363 20 9.47363C13.9269 9.47363 9 14.3961 9 20.4765C9 26.5569 13.9269 31.4793 20 31.4793V31.4736ZM22.3722 22.9976C22.3722 23.1973 22.3323 23.3398 22.2582 23.4368C22.1783 23.5281 22.0586 23.5794 21.8989 23.5794C21.7849 23.5794 21.6879 23.5509 21.6081 23.4939C21.5283 23.4368 21.4484 23.3341 21.3629 23.1801C21.2374 22.9634 21.0778 22.798 20.8725 22.6896C20.6729 22.5869 20.422 22.5299 20.1312 22.5299C19.7662 22.5299 19.4697 22.6554 19.2359 22.9006C19.0021 23.1459 18.888 23.4653 18.888 23.8475C18.888 24.2525 19.0078 24.5776 19.2473 24.8229C19.4868 25.0681 19.8118 25.1936 20.211 25.1936C20.5759 25.1936 20.9523 25.0852 21.323 24.8913C21.6822 24.7031 21.6822 24.6689 21.7849 24.6289C21.859 24.6004 22.07 24.6061 22.2525 24.9084C22.4178 25.1822 22.3437 25.3647 22.2867 25.4332C22.1726 25.5644 21.9217 25.7469 21.705 25.861C21.2602 26.1005 20.7356 26.2203 20.1255 26.2203C19.3727 26.2203 18.7626 25.9979 18.2893 25.5587C17.816 25.1195 17.5822 24.5548 17.5822 23.8589C17.5822 23.163 17.816 22.6212 18.2836 22.1705C18.7512 21.7199 19.3385 21.4975 20.0513 21.4975C20.2908 21.4975 20.5246 21.526 20.7527 21.5887C20.9808 21.6515 21.2032 21.7485 21.4313 21.8739C21.4313 21.8625 21.437 21.777 21.437 21.7713C21.437 21.6458 21.5168 21.5716 21.591 21.5374C21.6708 21.5032 21.7849 21.4918 21.9103 21.4918C22.0757 21.4918 22.1954 21.5203 22.2696 21.5773C22.3437 21.6344 22.3779 21.7313 22.3779 21.8739V22.9976H22.3722ZM13.311 24.8001C13.3738 24.686 13.465 24.6289 13.5848 24.6289H14.3489L16.0425 16.0617H15.2784C15.1586 16.0617 15.0617 16.0046 14.999 15.8905C14.9362 15.7765 14.902 15.611 14.902 15.3886C14.902 15.149 14.9362 14.9779 15.0047 14.8695C15.0731 14.7612 15.1814 14.7098 15.3354 14.7098H16.9264C17.1944 14.7326 17.4339 14.9095 17.5422 15.1661L19.0591 19.1018H20.9694L22.492 15.1661C22.6003 14.9095 22.8398 14.7326 23.1021 14.7098H23.1934H24.6931C24.8471 14.7098 24.9554 14.7612 25.0238 14.8695C25.0866 14.9722 25.1208 15.149 25.1208 15.3886C25.1208 15.6053 25.0866 15.7765 25.0238 15.8905C24.9611 16.0046 24.8699 16.0617 24.7444 16.0617H23.9803L25.6739 24.6289H26.4438C26.5635 24.6289 26.6547 24.686 26.7175 24.8001C26.7802 24.9141 26.8087 25.0795 26.8087 25.302C26.8087 25.5473 26.7745 25.7241 26.7118 25.8325C26.6433 25.9408 26.5407 25.9922 26.3867 25.9922H23.929C23.7807 25.9922 23.6724 25.9408 23.6039 25.8325C23.5412 25.7241 23.507 25.5473 23.507 25.302C23.507 25.0795 23.5412 24.9141 23.5982 24.8001C23.661 24.686 23.7522 24.6289 23.872 24.6289H24.2996L22.9196 17.6359L22.0358 19.9974C21.9217 20.2711 21.648 20.4594 21.3572 20.4594H18.6656C18.3748 20.4594 18.1011 20.2768 17.987 19.9974L17.1032 17.6359L15.7232 24.6289H16.1509C16.2706 24.6289 16.3618 24.686 16.4246 24.8001C16.4873 24.9141 16.5158 25.0795 16.5158 25.302C16.5158 25.5473 16.4816 25.7241 16.4189 25.8325C16.3504 25.9408 16.2478 25.9922 16.0938 25.9922H13.6361C13.4878 25.9922 13.3795 25.9408 13.311 25.8325C13.2483 25.7241 13.2141 25.5473 13.2141 25.302C13.2141 25.0795 13.2426 24.9141 13.3053 24.8001H13.311Z" fill="#2F3338"/>
</g>
<circle cx="20" cy="20" r="19.5" stroke="black" stroke-opacity="0.05"/>
<defs>
<clipPath id="clip0_18553_55908">
<rect width="22" height="22" fill="white" transform="translate(9 9.47363)"/>
</clipPath>
</defs>
</svg>
