<svg width="40" height="40" viewBox="0 0 40 40" fill="none" xmlns="http://www.w3.org/2000/svg">
<circle cx="20" cy="20" r="20" fill="#F6F8FA"/>
<path d="M28.999 6.03778L29.0001 10.7836C29.0001 10.7936 28.9962 10.8033 28.9892 10.8104C28.9822 10.8175 28.9728 10.8215 28.9629 10.8215L24.301 10.8203C24.2937 10.8203 24.2865 10.8181 24.2804 10.8139C24.2743 10.8098 24.2696 10.8039 24.2667 10.7969C24.2639 10.79 24.2632 10.7824 24.2646 10.7751C24.2661 10.7678 24.2696 10.761 24.2748 10.7557L28.9355 6.01105C28.9407 6.00577 28.9474 6.00218 28.9546 6.00072C28.9618 5.99927 28.9692 6.00002 28.976 6.00288C28.9828 6.00574 28.9886 6.01058 28.9927 6.01679C28.9968 6.023 28.999 6.03031 28.999 6.03778Z" fill="#24B6BC"/>
<path d="M19.697 31.0001H18.9299C18.5476 30.9697 18.1679 30.9329 17.7907 30.8898C13.9638 30.4576 10.9074 27.6302 10.195 23.7834C9.73752 21.318 10.0593 18.621 11.4348 16.4642C12.9012 14.1648 15.0414 12.8529 17.8553 12.5283C18.4127 12.4644 19.4979 12.4347 21.1109 12.4392C21.5844 12.4407 21.9379 12.4971 22.1713 12.6085C22.674 12.8484 23.0245 13.2194 23.223 13.7214C23.3346 14.0044 23.3849 14.4184 23.374 14.9636C23.3565 15.8697 23.355 16.7705 23.3696 17.6662C23.3762 18.0729 22.9472 18.2778 22.6485 17.9926C21.4272 16.8251 19.5986 16.4419 17.9899 17.0323C14.3939 18.3502 13.7997 23.2542 16.9601 25.4221C19.6773 27.2859 23.3904 25.7151 24.07 22.4822C24.1758 21.9809 24.2265 21.2961 24.2221 20.4279C24.2075 17.4824 24.2061 14.5633 24.2177 11.6705C24.2177 11.649 24.2279 11.6382 24.2484 11.6382L28.9179 11.6393C28.9551 11.6393 28.9737 11.6582 28.9737 11.6961C28.9832 16.3305 28.9792 19.8772 28.9617 22.3363C28.9463 24.5109 28.1179 26.5373 26.5902 28.0713C24.9334 29.7368 22.8071 30.7406 20.451 30.9288C20.1993 30.9489 19.948 30.9726 19.697 31.0001Z" fill="#009ADE"/>
<circle cx="20" cy="20" r="19.5" stroke="black" stroke-opacity="0.05"/>
</svg>
