<svg width="40" height="40" viewBox="0 0 40 40" fill="none" xmlns="http://www.w3.org/2000/svg">
<circle cx="20" cy="20" r="20" fill="#3B8798"/>
<g clip-path="url(#clip0_18553_55680)">
<path d="M28.1509 12.9473H24.825C24.8081 12.9473 24.7944 12.961 24.7944 12.9778V22.4662C24.7944 22.4831 24.8081 22.4968 24.825 22.4968H28.1509C28.1678 22.4968 28.1815 22.4831 28.1815 22.4662V12.9778C28.1815 12.961 28.1678 12.9473 28.1509 12.9473Z" fill="white"/>
<path d="M29.6037 17.4201C29.6037 17.4201 29.6037 17.4278 29.619 17.4354C29.7413 17.4583 29.8713 17.4813 30.0089 17.5119C30.957 17.7183 31.7216 18.3376 31.9586 19.301C32.0198 19.5533 32.0427 19.8362 32.0274 20.1496C31.9892 20.8378 31.7292 21.4035 31.2322 21.8393C30.6206 22.3822 29.8407 22.5275 29.0456 22.5045C29.0379 22.5045 29.0303 22.5045 29.0303 22.4892V12.9779C29.0303 12.9779 29.0303 12.9626 29.0456 12.9626C29.5731 12.9168 30.0472 12.9626 30.46 13.0926C31.1711 13.3143 31.7369 13.819 31.9357 14.5377C31.9892 14.7365 32.0198 14.9582 32.0198 15.1952C32.0198 15.7839 31.8286 16.3497 31.3775 16.732C31.194 16.8926 30.9799 17.0225 30.7429 17.1219C30.3683 17.2748 29.9936 17.3666 29.6037 17.4048C29.6037 17.4048 29.6037 17.4048 29.6037 17.4125V17.4201Z" fill="white"/>
<path d="M12.3549 16.9538C12.3549 16.9538 12.3855 16.9385 12.3855 16.9232C12.3931 16.8315 12.4008 16.7474 12.4008 16.6633C12.4008 15.4399 12.4008 14.2243 12.4008 13.0086C12.4008 12.9857 12.4161 12.9704 12.439 12.9704C12.5537 12.9704 12.6607 12.9627 12.7525 12.9627C13.8152 12.9627 14.8168 12.9627 15.742 12.9627C15.7802 12.9627 15.7955 12.978 15.7955 13.0162V22.474C15.7955 22.474 15.7878 22.497 15.7726 22.497C15.7267 22.497 15.6808 22.5046 15.6349 22.497C14.7939 22.497 13.9529 22.4817 13.1042 22.497C12.8672 22.497 12.6454 22.497 12.4237 22.4893C12.4161 22.4893 12.4084 22.4817 12.4008 22.474C12.3778 22.2829 12.4008 22.0994 12.4008 21.9082C12.4008 20.9296 12.4008 19.8898 12.4008 18.7888C12.4008 18.5212 12.4008 18.2154 12.3931 17.8636C12.3931 17.8407 12.3702 17.8178 12.3473 17.8178H11.5903C11.5903 17.8178 11.5521 17.8407 11.5521 17.8636V22.4587C11.5521 22.4587 11.5368 22.4893 11.5215 22.4893H8.19562C8.19562 22.4893 8.16504 22.474 8.16504 22.4587V12.9857C8.16504 12.9857 8.16504 12.9704 8.18033 12.9627C8.21856 12.9627 8.26443 12.9551 8.31031 12.9551C9.42659 12.9551 10.5046 12.9551 11.5292 12.9551C11.5368 12.9551 11.5521 12.9627 11.5521 12.9704C11.5521 13.0086 11.5598 13.0468 11.5598 13.0851C11.5598 14.3237 11.5598 15.547 11.5598 16.778C11.5598 16.8238 11.5598 16.8773 11.575 16.9232C11.575 16.9385 11.5903 16.9462 11.6056 16.9462C11.8579 16.9614 12.1102 16.9614 12.3626 16.9462L12.3549 16.9538Z" fill="white"/>
<path d="M20.5589 22.4814C19.2897 19.6142 18.0052 16.6935 16.7283 13.7958C16.6672 13.6658 16.6366 13.5664 16.6366 13.5129C16.6289 13.337 16.6289 13.1612 16.6366 12.9853C16.6366 12.97 16.6519 12.9624 16.6672 12.9624H20.1307C20.1307 12.9624 20.1842 12.9777 20.1995 13.0083C21.4458 15.9137 22.6767 18.7961 23.9077 21.648C23.9383 21.7244 23.9612 21.8162 23.9612 21.9079C23.9612 22.1144 23.9612 22.2979 23.9612 22.4584C23.9612 22.4814 23.9383 22.5043 23.9153 22.5043H20.5894C20.5894 22.5043 20.5665 22.4966 20.5589 22.4814Z" fill="white"/>
<path d="M23.9611 12.9777V19.8742C23.9611 19.8742 23.9611 19.8894 23.9458 19.8894C23.9458 19.8894 23.9305 19.8894 23.9305 19.8818L20.8569 12.9853C20.8569 12.9853 20.8569 12.9624 20.8646 12.9624C20.8646 12.9624 20.8646 12.9624 20.8722 12.9624H23.9382C23.9382 12.9624 23.9535 12.97 23.9535 12.9777H23.9611Z" fill="white"/>
<path d="M16.667 15.5545C17.6762 17.81 18.7007 20.1037 19.7253 22.3822C19.7406 22.4051 19.7482 22.4433 19.7482 22.4816C19.7482 22.4969 19.7406 22.5045 19.7253 22.5122C19.4806 22.4969 19.1977 22.5122 18.9989 22.5122C18.2191 22.5122 17.4468 22.5122 16.6823 22.5122C16.6593 22.5122 16.644 22.4969 16.644 22.4739V15.5622C16.644 15.5622 16.644 15.5469 16.667 15.5469C16.667 15.5469 16.667 15.5469 16.6746 15.5469C16.6746 15.5469 16.6746 15.5469 16.6823 15.5545H16.667Z" fill="white"/>
<path d="M8.03516 24.4236C8.03516 24.3012 8.13455 24.2095 8.24924 24.2095H10.9405C11.6516 24.2095 12.225 24.7753 12.225 25.4863V27.2525C12.225 27.9635 11.6592 28.537 10.9482 28.537H8.25688C8.13455 28.537 8.0428 28.4452 8.0428 28.3305V24.4312L8.03516 24.4236ZM9.60253 25.3716V27.3748C9.61018 27.4207 9.64841 27.4513 9.69428 27.4513H10.4283C10.5506 27.4513 10.6576 27.3442 10.6576 27.2143V25.5245C10.65 25.3946 10.543 25.2875 10.4206 25.2875H9.68664C9.64076 25.2875 9.61018 25.3258 9.61018 25.3716H9.60253Z" fill="white"/>
<path d="M14.2282 26.9006C14.2282 26.9006 14.2129 26.9006 14.2129 26.9159V27.3976C14.2129 27.3976 14.2206 27.4282 14.2435 27.4358C14.2894 27.4435 14.3429 27.4511 14.3964 27.4511C15.0157 27.4511 15.5127 27.4511 15.8797 27.4511C16.025 27.4511 16.1014 27.5276 16.1014 27.6728C16.1014 27.8869 16.1014 28.1086 16.1014 28.3304C16.1014 28.5215 15.9485 28.5445 15.7879 28.5445C14.8016 28.5445 13.8612 28.5445 12.9667 28.5445C12.7679 28.5445 12.7144 28.4527 12.7144 28.2769C12.7144 27.1147 12.7144 25.8455 12.7144 24.454C12.7144 24.3011 12.7908 24.2246 12.9437 24.2246C13.9071 24.2246 14.8705 24.2246 15.8338 24.2246C15.9867 24.2246 16.0632 24.3011 16.0632 24.454C16.0632 24.7292 16.0632 24.9433 16.0632 25.0962C16.0632 25.2338 15.9867 25.3027 15.8415 25.3027C15.4668 25.3027 15.0769 25.3103 14.687 25.3027C14.557 25.3027 14.4194 25.3027 14.2817 25.3027C14.2435 25.3027 14.2282 25.3256 14.2282 25.3638V25.7691C14.2282 25.7691 14.2512 25.8226 14.2817 25.8226C14.7252 25.8226 15.1533 25.8226 15.5739 25.8226C15.7191 25.8226 15.8491 25.8455 15.8491 26.029C15.8491 26.2354 15.8491 26.4648 15.8491 26.7171C15.8491 26.8547 15.7191 26.9083 15.6044 26.9083C15.1533 26.9083 14.6946 26.9083 14.2435 26.9083L14.2282 26.9006Z" fill="white"/>
<path d="M18.7238 25.2875C18.5097 25.2875 18.3033 25.2875 18.0892 25.2875C17.9057 25.2875 17.8598 25.4939 17.9134 25.6316C17.9516 25.7157 18.0204 25.7615 18.1274 25.7615C18.7544 25.7539 19.2208 25.7539 19.519 25.7615C19.6719 25.7615 19.8324 25.8151 19.993 25.9145C20.2988 26.1056 20.467 26.3809 20.4976 26.7402C20.5129 26.8931 20.5129 27.0919 20.4976 27.3519C20.4747 27.8871 20.0847 28.3458 19.5801 28.4758C19.4578 28.5064 19.2819 28.5217 19.0526 28.5217C18.5174 28.5217 18.028 28.5217 17.5999 28.5217C16.9729 28.5217 16.4224 28.1241 16.3383 27.4895C16.323 27.3595 16.3383 27.1684 16.4683 27.0996C16.4989 27.0843 16.5371 27.0766 16.5983 27.0766C16.9882 27.0766 17.3323 27.0766 17.6458 27.0766C17.8369 27.0766 17.8904 27.2448 17.9057 27.3977C17.9057 27.413 17.921 27.4283 17.9439 27.4283C18.2039 27.4283 18.4486 27.4283 18.6856 27.4283C18.8003 27.4283 18.9073 27.4054 18.9302 27.2678C18.9379 27.1837 18.9379 27.0919 18.9302 27.0002C18.9226 26.8855 18.8538 26.832 18.7314 26.832C18.3415 26.832 17.9363 26.832 17.5234 26.832C17.1335 26.832 16.7359 26.6485 16.5448 26.2967C16.3995 26.0368 16.4071 25.8074 16.4071 25.5092C16.4071 25.3563 16.4224 25.2263 16.4454 25.1193C16.5524 24.6911 16.8735 24.3547 17.3017 24.2324C17.4164 24.2018 17.554 24.1865 17.7222 24.1865C18.1657 24.1865 18.6091 24.1865 19.0526 24.1865C19.519 24.1865 19.886 24.3777 20.1536 24.7523C20.2682 24.9129 20.3294 25.0964 20.3371 25.3104C20.3447 25.4787 20.2606 25.601 20.0924 25.601C19.6948 25.601 19.3431 25.601 19.0602 25.601C18.8767 25.601 18.7773 25.5092 18.7697 25.3181C18.7697 25.2875 18.7544 25.2722 18.7238 25.2722V25.2875Z" fill="white"/>
<path d="M22.2638 24.2095H21.1093C20.9953 24.2095 20.9028 24.3019 20.9028 24.4159V28.3305C20.9028 28.4445 20.9953 28.537 21.1093 28.537H22.2638C22.3778 28.537 22.4702 28.4445 22.4702 28.3305V24.4159C22.4702 24.3019 22.3778 24.2095 22.2638 24.2095Z" fill="white"/>
<path d="M25.5517 27.4435C25.5517 27.4435 25.567 27.4358 25.567 27.4205V27.1223C25.567 27.1223 25.5517 27.0918 25.5364 27.0918C25.4294 27.0918 25.3223 27.0918 25.2229 27.0918C25.0853 27.0841 25.0471 26.9847 25.0471 26.8624C25.0471 26.6789 25.0471 26.503 25.0471 26.3272C25.0471 26.1819 25.0471 26.0443 25.2382 26.029C25.3376 26.029 25.4294 26.0214 25.5211 26.0214C25.9952 26.0214 26.4692 26.0214 26.9279 26.0214C27.0732 26.0214 27.142 26.0978 27.142 26.2507C27.142 26.6865 27.142 27.1223 27.142 27.5505C27.142 27.7952 27.1191 28.0934 26.9815 28.2845C26.905 28.3915 26.7827 28.468 26.6145 28.4986C26.4768 28.5292 26.3316 28.5445 26.1787 28.5445C25.2765 28.5445 24.596 28.5445 24.1449 28.5445C23.625 28.5445 23.1509 28.1622 23.0057 27.6652C22.9674 27.5352 22.9521 27.3747 22.9521 27.1835C22.9521 26.6865 22.9521 26.1743 22.9521 25.6544C22.9521 25.425 22.9674 25.2491 22.998 25.1345C23.128 24.6834 23.5026 24.3164 23.969 24.2475C24.0761 24.2323 24.1984 24.2246 24.336 24.2246C24.9553 24.2246 25.5364 24.2246 26.0946 24.2246C26.1863 24.2246 26.278 24.2399 26.3774 24.2705C26.8056 24.4081 27.0732 24.7675 27.1267 25.2109C27.142 25.3638 27.1114 25.5473 26.9203 25.5473C26.5839 25.5473 26.2092 25.5473 25.7887 25.5473C25.6664 25.5473 25.5899 25.5014 25.567 25.3715C25.567 25.3409 25.5441 25.3256 25.5135 25.318C25.2612 25.3027 25.0089 25.3027 24.7565 25.318C24.6036 25.318 24.5348 25.3868 24.5348 25.5167C24.5348 26.0978 24.5348 26.6789 24.5348 27.2447C24.5348 27.3899 24.6036 27.4664 24.7489 27.4664C24.9553 27.4664 25.1847 27.4664 25.4523 27.4664C25.4905 27.4664 25.5211 27.4817 25.5517 27.4664V27.4435Z" fill="white"/>
<path d="M30.6821 26.7327C30.6821 26.0905 30.6821 25.3565 30.6821 24.5155C30.6821 24.3625 30.705 24.2173 30.9038 24.2173C31.1791 24.2173 31.4773 24.2173 31.8137 24.2173C31.8595 24.2173 31.8978 24.2249 31.9284 24.2402C32.0354 24.2937 32.0277 24.3855 32.0277 24.5002C32.0277 25.7694 32.0277 27.0309 32.0277 28.3001C32.0277 28.453 31.9436 28.5371 31.7831 28.5371C31.4161 28.5371 31.0338 28.5371 30.6362 28.5371C30.4221 28.5371 30.3075 28.4377 30.2157 28.2542C29.8258 27.5049 29.4435 26.771 29.0688 26.0523C29.0612 26.037 29.0459 26.0217 29.0383 26.014H29.0306C29.0306 26.7862 29.0306 27.5508 29.0306 28.3154C29.0306 28.453 28.9312 28.5295 28.8089 28.5295C28.5489 28.5295 28.289 28.5295 28.029 28.5295C27.9602 28.5295 27.8914 28.5295 27.8302 28.5142C27.6697 28.4836 27.685 28.2848 27.685 28.1472C27.685 26.8856 27.685 25.647 27.685 24.439C27.685 24.2249 27.8226 24.1943 27.9984 24.1943C28.3884 24.1943 28.7477 24.1943 29.0918 24.1943C29.2676 24.1943 29.39 24.2708 29.4741 24.4237C29.8869 25.2036 30.2616 25.9223 30.5903 26.5722C30.6133 26.6257 30.6439 26.6716 30.6668 26.7174C30.6821 26.748 30.6897 26.748 30.6897 26.7174L30.6821 26.7327Z" fill="white"/>
</g>
<circle cx="20" cy="20" r="19.5" stroke="black" stroke-opacity="0.05"/>
<defs>
<clipPath id="clip0_18553_55680">
<rect width="24" height="15.5897" fill="white" transform="translate(8.03516 12.9473)"/>
</clipPath>
</defs>
</svg>
