<svg width="40" height="40" viewBox="0 0 40 40" fill="none" xmlns="http://www.w3.org/2000/svg">
<circle cx="20" cy="20" r="20" fill="#F04A00"/>
<g clip-path="url(#clip0_14382_21089)">
<path d="M29.4611 21.6779C28.4404 20.6572 25.9306 21.5172 23.847 23.5919C23.0972 24.3302 22.4758 25.1883 22.0083 26.131C22.1682 25.9524 22.3354 25.7754 22.5098 25.6002C24.4773 23.6378 26.663 22.6502 27.412 23.3928C28.161 24.1354 27.167 26.3275 25.2058 28.2886C24.7369 28.7574 24.2313 29.1879 23.6938 29.5761C24.8422 29.3643 26.2751 28.5553 27.5434 27.2794C29.6219 25.2085 30.4806 22.6961 29.4611 21.6779Z" fill="white"/>
<path d="M9.125 26.2586C9.34319 27.4554 9.85102 28.5068 10.6702 29.3272C13.8869 32.549 20.6749 30.9796 25.8272 25.8286C26.0199 25.6359 26.21 25.4458 26.3887 25.2442C22.8466 28.4825 18.4318 29.4153 16.3086 27.2857C14.9051 25.8821 14.8349 23.491 15.8722 21.0093C14.7252 21.4099 12.454 22.6004 9.125 26.2586Z" fill="#00A62B"/>
<path d="M9.12497 26.2586C12.4539 22.5966 14.7251 21.3997 15.8684 21.0093C16.5653 19.3992 17.567 17.939 18.8184 16.7093C19.2121 16.3156 19.6274 15.9442 20.0624 15.5967C18.6002 15.6286 14.9216 16.0701 10.4494 19.2816C9.22704 21.7506 8.75111 24.217 9.12497 26.2586Z" fill="#FFE600"/>
<path d="M29.3258 10.6715C26.1079 7.45358 19.3211 9.02173 14.1688 14.174C12.6606 15.6663 11.4034 17.3924 10.4456 19.2855C14.9178 16.0739 18.5964 15.6324 20.0586 15.6005C23.4526 12.8917 27.4119 12.2205 29.3909 14.197C30.45 15.2573 30.7485 16.8867 30.3823 18.6922C31.4414 15.5036 31.1645 12.5076 29.3258 10.6715Z" fill="white"/>
</g>
<circle cx="20" cy="20" r="19.5" stroke="black" stroke-opacity="0.05"/>
<defs>
<clipPath id="clip0_14382_21089">
<rect width="22" height="22.0026" fill="white" transform="translate(9 9)"/>
</clipPath>
</defs>
</svg>
