<svg width="40" height="40" viewBox="0 0 40 40" fill="none" xmlns="http://www.w3.org/2000/svg">
<circle cx="20" cy="20" r="20" fill="#C8D91D"/>
<path d="M32.9217 15.3292C32.7143 16.476 33.4219 17.94 32.2303 19.1072C31.9985 19.3349 32.2751 19.5667 32.3971 19.7945C33.4951 21.8441 32.7346 24.0361 32.8485 26.1589C32.8688 26.5209 32.3727 26.5127 32.0636 26.2768C31.6976 25.9962 31.7179 25.5936 31.722 25.1951C31.726 24.1418 31.7464 23.0845 31.7179 22.0312C31.6813 20.6932 31.238 20.2337 29.9651 20.1198C26.9273 19.8473 26.4678 20.2662 26.4637 23.3C26.4637 24.1581 26.4637 25.0121 26.4434 25.8661C26.4312 26.2443 26.2034 26.4802 25.8049 26.4639C25.3982 26.4517 25.2152 26.167 25.2152 25.8092C25.2152 24.1621 25.2274 22.5151 25.264 20.8681C25.2681 20.6241 25.3779 20.3231 25.5446 20.1564C26.1221 19.5789 26.0286 19.0259 25.5893 18.4362C25.3494 18.1108 25.2152 17.7489 25.2152 17.3341C25.2152 15.8863 25.2071 14.4345 25.203 12.9868C25.203 12.5516 25.3331 12.1693 25.8618 12.1978C26.3824 12.2263 26.4637 12.6289 26.4637 13.0518C26.4637 14.1051 26.4474 15.1584 26.4678 16.2157C26.5084 17.997 27.0574 18.5175 28.9078 18.5663C29.1762 18.5745 29.4487 18.5785 29.7171 18.5663C31.1689 18.5094 31.665 18.0661 31.7179 16.6916C31.7545 15.7033 31.7179 14.7151 31.7301 13.7269C31.7301 13.3365 31.7098 12.9298 31.8074 12.5557C31.8846 12.2466 32.1327 11.9701 32.5313 12.0026C32.8891 12.0311 32.9176 12.3361 32.9217 12.5882C32.9379 13.4422 32.9298 14.3003 32.9298 15.3292H32.9217Z" fill="white"/>
<path d="M12.5881 18.6312C13.3974 18.6312 14.2066 18.6028 15.0119 18.6434C15.4429 18.6638 15.8049 18.9281 15.8089 19.3673C15.813 19.8187 15.4226 20.083 15.0119 20.0952C13.6658 20.1359 12.3197 20.1074 10.9736 20.1196C9.20863 20.1359 8.29768 20.9899 8.31395 22.5719C8.33428 24.1864 9.3835 25.2356 11.0549 25.2681C11.7951 25.2844 12.5434 25.3169 13.2672 25.2031C13.7593 25.1258 14.3408 24.9469 14.3693 24.2514C14.3896 23.7675 14.3896 23.308 13.6902 23.3161C12.95 23.3242 12.2099 23.3161 11.4697 23.312C11.1322 23.312 10.7947 23.312 10.4612 23.3039C10.0057 23.2876 9.65597 23.0396 9.59904 22.6288C9.53397 22.1652 9.95691 21.9741 10.3473 21.8521C10.4693 21.8114 10.6157 21.8358 10.7499 21.8358C12.096 21.8358 13.4421 21.8358 14.7882 21.8358C15.5202 21.8358 15.8496 22.153 15.9065 22.9054C16.1221 25.7073 14.7679 26.7322 12.462 26.5126C11.8601 26.4556 11.2501 26.5126 10.6442 26.5044C8.69215 26.4719 7.78121 25.8985 7.24846 24.0725C6.56932 21.7463 7.19966 19.0908 10.1724 18.6434C10.9614 18.5255 11.7869 18.6272 12.5922 18.6272V18.6353L12.5881 18.6312Z" fill="white"/>
<path d="M21.2544 26.4883C20.6485 26.4883 20.0426 26.5168 19.4366 26.4842C17.4968 26.3785 16.3744 25.2479 16.3337 23.3691C16.3174 22.7103 16.2849 22.0474 16.35 21.3967C16.5086 19.8351 17.6391 18.729 19.2414 18.6436C20.5834 18.5704 21.9336 18.6273 23.2797 18.6232C23.3488 18.6232 23.4139 18.6232 23.483 18.6314C23.9182 18.6842 24.2842 18.8957 24.337 19.3227C24.394 19.7985 23.971 20.0059 23.5847 20.0954C23.2675 20.1727 22.9137 20.1198 22.5802 20.1198C21.5716 20.1198 20.559 20.0913 19.5505 20.1279C18.18 20.1767 17.9157 20.4085 17.8709 21.779C17.7611 25.2398 17.9035 25.0405 20.9535 25.0121C21.4903 25.008 22.0312 24.9917 22.568 25.0121C23.2634 25.0405 24.3004 24.7843 24.2923 25.801C24.2842 26.6632 23.3163 26.4639 22.6697 26.4802C22.1979 26.4924 21.7262 26.4802 21.2585 26.4802L21.2544 26.4883Z" fill="white"/>
<circle cx="20" cy="20" r="19.5" stroke="black" stroke-opacity="0.05"/>
</svg>
