<svg width="40" height="40" viewBox="0 0 40 40" fill="none" xmlns="http://www.w3.org/2000/svg">
<circle cx="20" cy="20" r="20" fill="#312783"/>
<g clip-path="url(#clip0_14382_21782)">
<path d="M27.4008 19.6774C27.4008 20.273 27.2241 20.8552 26.8932 21.3505C26.5623 21.8457 26.092 22.2317 25.5418 22.4596C24.9915 22.6875 24.386 22.7472 23.8019 22.631C23.2177 22.5148 22.6811 22.228 22.26 21.8068C21.8388 21.3857 21.552 20.8491 21.4358 20.2649C21.3196 19.6808 21.3793 19.0753 21.6072 18.525C21.8351 17.9747 22.221 17.5044 22.7163 17.1735C23.2115 16.8426 23.7938 16.666 24.3894 16.666C25.188 16.666 25.954 16.9833 26.5187 17.548C27.0835 18.1128 27.4008 18.8787 27.4008 19.6774Z" fill="#0069B4"/>
<path d="M18.4904 19.7533C18.5116 18.0903 17.1806 16.725 15.5176 16.7038C13.8545 16.6826 12.4892 18.0135 12.4681 19.6766C12.4469 21.3396 13.7778 22.7049 15.4408 22.7261C17.1039 22.7473 18.4692 21.4163 18.4904 19.7533Z" fill="#E30613"/>
<path d="M11.6364 19.7663C11.6364 18.9399 11.8983 18.1349 12.3845 17.4667C12.8707 16.7985 13.5562 16.3016 14.3424 16.0474V12H9V27.463H14.3502V23.4658C13.5653 23.2145 12.8801 22.7213 12.3926 22.0567C11.9051 21.3922 11.6404 20.5904 11.6364 19.7663Z" fill="white"/>
<path d="M22.6729 16.2445V11.9922H17.3228V16.2909C18.2032 16.7465 18.8786 17.5186 19.2131 18.4519H20.7594C21.084 17.4941 21.7709 16.7017 22.6729 16.2445Z" fill="white"/>
<path d="M17.3228 23.2301V27.4824H22.6729V23.1141C22.2181 22.8843 21.8132 22.567 21.4815 22.1802C21.1498 21.7934 20.8978 21.3449 20.7401 20.8604H19.2904C19.1384 21.3673 18.8859 21.8384 18.5478 22.2455C18.2097 22.6526 17.7931 22.9875 17.3228 23.2301Z" fill="white"/>
<path d="M25.6499 12V16.0629C26.4031 16.3246 27.0562 16.8144 27.5183 17.4642C27.9805 18.114 28.2288 18.8916 28.2288 19.689C28.2288 20.4864 27.9805 21.264 27.5183 21.9138C27.0562 22.5636 26.4031 23.0534 25.6499 23.3151V27.4901H31.0001V12.0271L25.6499 12Z" fill="white"/>
</g>
<circle cx="20" cy="20" r="19.5" stroke="black" stroke-opacity="0.05"/>
<defs>
<clipPath id="clip0_14382_21782">
<rect width="22" height="15.4785" fill="white" transform="translate(9 12)"/>
</clipPath>
</defs>
</svg>
