<svg width="40" height="40" viewBox="0 0 40 40" fill="none" xmlns="http://www.w3.org/2000/svg">
<circle cx="20" cy="20" r="20" fill="#1E1E23"/>
<g clip-path="url(#clip0_18553_55713)">
<path d="M13.3012 17.2181C13.3395 17.2335 13.3855 17.2335 13.4239 17.2412C14.8353 17.2412 16.285 17.2412 17.7731 17.2412C17.8268 17.2412 17.8728 17.2874 17.8728 17.3335C17.8575 17.5335 17.8498 17.7412 17.8498 17.9566C17.8498 20.8566 17.8498 23.7797 17.8652 26.7335C17.8652 26.8489 17.8652 26.9797 17.8652 27.1181C17.8652 27.1643 17.8345 27.2028 17.7885 27.2028H11.0537C11.0537 27.2028 11 27.1797 11 27.1566V13.2874C11 13.2489 11.0384 13.2104 11.0767 13.2104H13.2015C13.2475 13.2104 13.2858 13.2412 13.2858 13.2874V17.172C13.2858 17.172 13.2858 17.2028 13.3088 17.2104L13.3012 17.2181ZM15.564 19.5951C15.564 19.5951 15.5333 19.5335 15.5026 19.5335H13.3395C13.3395 19.5335 13.2782 19.5643 13.2782 19.5951V24.8643C13.2782 24.8643 13.3088 24.9258 13.3395 24.9258H15.5026C15.5026 24.9258 15.564 24.8951 15.564 24.8643V19.5951Z" fill="white"/>
<path d="M23.3652 24.8565V17.3026C23.3652 17.3026 23.3959 17.2334 23.4265 17.2334H25.5743C25.5743 17.2334 25.6433 17.2565 25.6433 17.2949V27.1411C25.6433 27.1411 25.6127 27.2103 25.5743 27.2103H18.8395C18.8395 27.2103 18.7705 27.1796 18.7705 27.1411V17.3026C18.7705 17.2642 18.8012 17.2334 18.8395 17.2334H20.995C20.995 17.2334 21.064 17.2642 21.064 17.3026V24.8565C21.064 24.8565 21.0947 24.9257 21.1254 24.9257H23.2961C23.2961 24.9257 23.3652 24.8949 23.3652 24.8565Z" fill="white"/>
<path d="M29.9307 24.9258H27.7829C27.7448 24.9258 27.7139 24.9568 27.7139 24.995V27.1412C27.7139 27.1794 27.7448 27.2104 27.7829 27.2104H29.9307C29.9688 27.2104 29.9997 27.1794 29.9997 27.1412V24.995C29.9997 24.9568 29.9688 24.9258 29.9307 24.9258Z" fill="white"/>
</g>
<circle cx="20" cy="20" r="19.5" stroke="black" stroke-opacity="0.05"/>
<defs>
<clipPath id="clip0_18553_55713">
<rect width="19" height="14" fill="white" transform="translate(11 13.2104)"/>
</clipPath>
</defs>
</svg>
