<svg width="40" height="40" viewBox="0 0 40 40" fill="none" xmlns="http://www.w3.org/2000/svg">
<circle cx="20" cy="20" r="20" fill="#2C398C"/>
<g clip-path="url(#clip0_46289_83202)">
<path d="M13 28V19.7556C13.6513 17.0075 16.4786 16.0861 18.4247 18.0536C19.4668 19.1051 20.2598 19.938 20.8038 20.5523C20.9059 20.6664 21.0326 20.7532 21.1732 20.8055C21.3137 20.8577 21.4642 20.8739 21.6119 20.8526C21.7596 20.8313 21.9004 20.7733 22.0224 20.6832C22.1444 20.5932 22.2441 20.4738 22.3132 20.335L22.8726 19.2084C23.0206 18.9115 23.0587 18.5674 22.9795 18.2427C22.9002 17.918 22.7093 17.6357 22.4435 17.4501C20.5778 16.1384 17.444 15.6837 15.4557 15.4826C15.3895 15.4767 15.3262 15.4508 15.2732 15.408C15.2203 15.3653 15.1799 15.3074 15.1569 15.2411L13.7241 11.2658C13.7124 11.2357 13.7082 11.203 13.7118 11.1707C13.7154 11.1384 13.7267 11.1076 13.7446 11.0811C13.7626 11.0546 13.7866 11.0333 13.8145 11.0192C13.8424 11.0051 13.8732 10.9986 13.9041 11.0003C17.1912 11.133 24.2632 11.8332 26.4316 14.5008C28.8835 17.5225 25.742 20.838 23.3208 22.6727C23.299 22.6895 23.2809 22.7109 23.2677 22.7357C23.2545 22.7604 23.2465 22.7878 23.2443 22.8161C23.2422 22.8443 23.2458 22.8728 23.255 22.8994C23.2643 22.9261 23.2789 22.9503 23.2978 22.9705L27.9832 27.8914C27.9913 27.9003 27.9968 27.9116 27.9989 27.9238C28.0011 27.9359 27.9999 27.9485 27.9955 27.96C27.991 27.9714 27.9835 27.9813 27.9739 27.9884C27.9642 27.9955 27.9528 27.9995 27.941 28H23.3783C23.3249 28 23.2721 27.9891 23.2228 27.9677C23.1735 27.9463 23.1287 27.9149 23.0909 27.8753L17.1912 21.6789C17.1499 21.6363 17.0977 21.6074 17.0409 21.5957C16.9841 21.584 16.9253 21.5902 16.8718 21.6133C16.8183 21.6365 16.7725 21.6756 16.7401 21.7259C16.7076 21.7762 16.69 21.8354 16.6893 21.8962V27.7505C16.6893 27.8103 16.6667 27.8676 16.6264 27.9099C16.5862 27.9521 16.5316 27.9759 16.4747 27.9759L13 28Z" fill="white"/>
</g>
<circle cx="20" cy="20" r="19.5" stroke="black" stroke-opacity="0.05"/>
<defs>
<clipPath id="clip0_46289_83202">
<rect width="15" height="17" fill="white" transform="translate(13 11)"/>
</clipPath>
</defs>
</svg>
