<svg width="40" height="40" viewBox="0 0 40 40" fill="none" xmlns="http://www.w3.org/2000/svg">
<circle cx="20" cy="20" r="20" fill="#E31610"/>
<g clip-path="url(#clip0_18553_55926)">
<path d="M15.1226 23.0995C15.1702 23.1583 15.1967 23.2118 15.2072 23.2599C15.2125 23.308 15.1967 23.3561 15.1438 23.4096C14.3718 24.2436 13.42 24.7248 12.2832 24.8424C9.23225 25.1632 6.63076 22.7895 7.04319 19.6192C7.30757 17.6144 8.93086 15.941 10.9243 15.647C12.5687 15.4064 13.9858 15.8768 15.1755 17.0637C15.2231 17.1118 15.2337 17.1867 15.1967 17.2455C14.9058 17.6892 14.6943 18.1543 14.5622 18.6515C14.541 18.7317 14.5093 18.7317 14.4723 18.6622C13.3989 16.6841 10.7551 16.4703 9.31157 18.0902C7.70943 19.8865 8.64533 22.891 11.03 23.3775C12.4154 23.6609 13.7796 23.1637 14.467 21.8753C14.4828 21.8485 14.5146 21.8378 14.5463 21.8539C14.5569 21.8592 14.5622 21.8699 14.5674 21.8806L15.1279 23.1102L15.1226 23.0995Z" fill="#FCFEFC"/>
<path d="M22.155 16.2781C22.8265 16.7272 23.3606 17.3099 23.7571 18.021C24.1854 18.8389 24.3758 19.7371 24.3335 20.7154C24.3546 20.801 24.3176 20.8491 24.2277 20.8491C21.7531 20.8491 19.2838 20.8491 16.8198 20.8491C16.7881 20.8491 16.7617 20.8758 16.7617 20.9079C16.7617 20.9079 16.7617 20.9132 16.7617 20.9186C17.3274 23.8376 21.2032 24.3829 22.4828 21.6991C22.4934 21.6777 22.5093 21.667 22.5357 21.667L24.0797 21.6777C24.0797 21.6777 24.1061 21.6884 24.1061 21.7045V21.7152C23.3394 23.5382 22.1339 24.5754 20.4947 24.8266C18.6811 25.11 17.1899 24.4791 16.032 22.9448C14.4034 20.5016 15.2177 17.2939 17.872 16.0268C19.268 15.3586 20.7009 15.4441 22.155 16.2781ZM22.7155 19.3361C21.8536 16.2193 17.6976 16.2621 16.7934 19.3361C16.7775 19.3789 16.804 19.427 16.8463 19.4377C16.8568 19.4377 16.8621 19.4377 16.8727 19.4377H22.6362C22.7049 19.4323 22.7314 19.3949 22.7102 19.3254L22.7155 19.3361Z" fill="#FCFEFC"/>
<path d="M30.2189 15.7216C31.0755 15.9782 31.7629 16.438 32.281 17.1009C32.6565 17.6569 32.8838 18.1755 32.9684 18.6674C33.016 19.2448 33.0001 19.7633 32.9843 20.6989L32.9684 24.5802C32.9684 24.6337 32.942 24.6604 32.8838 24.6604H31.4826C31.4244 24.6604 31.398 24.6337 31.398 24.5749L31.3821 20.6668C31.4086 20.0039 31.4033 19.4586 31.3769 19.0363C31.3504 18.6834 31.2394 18.368 31.0437 18.1007C29.8329 16.4754 26.9035 16.9566 26.8031 19.202C26.7925 19.4426 26.7872 19.6885 26.7925 19.9344V20.6989V24.4626C26.7925 24.6016 26.7238 24.6711 26.5916 24.6711H25.4072C25.275 24.6711 25.2062 24.6016 25.2115 24.4626L25.2274 23.7569L25.2168 20.7417C25.2062 19.3731 25.1375 18.4642 25.6874 17.395C26.5969 16.0691 27.8818 15.4757 29.5473 15.604C29.6584 15.6147 29.8805 15.6521 30.2189 15.7216Z" fill="#FCFEFC"/>
</g>
<circle cx="20" cy="20" r="19.5" stroke="black" stroke-opacity="0.05"/>
<defs>
<clipPath id="clip0_18553_55926">
<rect width="26" height="11" fill="white" transform="translate(7 14.7368)"/>
</clipPath>
</defs>
</svg>
