<svg width="40" height="40" viewBox="0 0 40 40" fill="none" xmlns="http://www.w3.org/2000/svg">
<circle cx="20" cy="20" r="20" fill="#0075C5"/>
<path fill-rule="evenodd" clip-rule="evenodd" d="M15.4052 10.6155C15.0972 10.9441 14.9116 11.3687 14.8799 11.818C14.8481 12.2673 14.9721 12.7138 15.2308 13.0824C15.4896 13.4511 15.8675 13.7194 16.3008 13.8421C16.7341 13.9649 17.1966 13.9347 17.6103 13.7566C18.0239 13.5785 18.3637 13.2634 18.5723 12.8642C18.781 12.4651 18.8458 12.0062 18.7558 11.5649C18.6659 11.1235 18.4267 10.7266 18.0785 10.4409C17.7304 10.1552 17.2944 9.99814 16.844 9.99611C16.5745 9.9949 16.3076 10.0493 16.0601 10.1558C15.8125 10.2624 15.5896 10.4189 15.4052 10.6155ZM32.9819 15.4178H30.8179C30.5755 15.4074 30.3363 15.4764 30.1368 15.6144C29.9372 15.7524 29.7882 15.9518 29.7124 16.1823L28.2854 20.7494C28.2712 20.8109 28.2377 20.8662 28.1897 20.9072C28.1417 20.9481 28.0818 20.9725 28.0188 20.9768C27.9543 20.9748 27.8923 20.9514 27.8426 20.9102C27.7929 20.8691 27.7583 20.8125 27.7444 20.7494L26.2508 16.1823C26.189 15.964 26.0582 15.7716 25.878 15.6338C25.6978 15.496 25.4779 15.4203 25.2511 15.4178H23.3732C23.1259 15.4017 22.8802 15.4679 22.6745 15.6062C22.4688 15.7445 22.3147 15.9471 22.2364 16.1823L20.8329 20.918C20.822 20.9819 20.7888 21.0398 20.7393 21.0815C20.6898 21.1233 20.6272 21.1462 20.5624 21.1462C20.4976 21.1462 20.4349 21.1233 20.3854 21.0815C20.3359 21.0398 20.3028 20.9819 20.2919 20.918L18.8296 16.2137C18.8296 16.2137 18.6179 15.3865 17.9554 15.3865L17.9543 15.3905H15.0679C14.9225 15.3836 14.7791 15.4276 14.6626 15.5149C14.546 15.6021 14.4634 15.7272 14.4289 15.8687L12.2728 23.9759C11.7396 25.8145 11.0144 27.0455 9.2855 26.9358C8.69007 26.8963 8.11914 26.6838 7.6429 26.3242C7.60815 26.2944 7.56613 26.2744 7.52112 26.2662C7.4761 26.2579 7.42971 26.2618 7.38667 26.2773C7.34363 26.2928 7.30548 26.3195 7.27612 26.3546C7.24675 26.3897 7.22722 26.432 7.21951 26.4771L7.02349 27.1004C7.0132 27.1197 7.00781 27.1413 7.00781 27.1631C7.00781 27.185 7.0132 27.2066 7.02349 27.2259C7.78809 27.7957 8.68796 28.1564 9.63442 28.2726C13.2685 28.5744 14.9778 26.7515 15.7971 23.5447L17.0748 18.7213C17.0902 18.69 17.1114 18.6616 17.1376 18.6377C17.1847 18.5949 17.245 18.5696 17.3085 18.5658C17.4065 18.5658 17.5085 18.6403 17.5634 18.8089L19.4373 24.3365C19.5309 24.7037 19.7442 25.0292 20.0434 25.2616C20.3426 25.4941 20.7108 25.6203 21.0897 25.6203C21.4686 25.6203 21.8367 25.4941 22.1359 25.2616C22.4351 25.0292 22.6484 24.7037 22.7421 24.3365L24.5062 18.6638C24.565 18.4913 24.6787 18.4169 24.7806 18.4208C24.8456 18.4276 24.9067 18.4548 24.9553 18.4984C25.0039 18.5421 25.0374 18.6 25.0511 18.6638L26.8662 24.1523C26.9599 24.5194 27.1732 24.8449 27.4724 25.0774C27.7716 25.3098 28.1397 25.436 28.5186 25.436C28.8976 25.436 29.2657 25.3098 29.5649 25.0774C29.8641 24.8449 30.0774 24.5194 30.1711 24.1523L33.0485 15.4923C33.0485 15.4923 33.0838 15.3982 32.9819 15.3982V15.4178Z" fill="white"/>
<circle cx="20" cy="20" r="19.5" stroke="black" stroke-opacity="0.05"/>
</svg>
