<svg width="40" height="40" viewBox="0 0 40 40" fill="none" xmlns="http://www.w3.org/2000/svg">
<circle cx="20" cy="20" r="20" fill="#0046B8"/>
<path fill-rule="evenodd" clip-rule="evenodd" d="M15.0432 29.4805C14.9724 29.4659 14.9091 29.4264 14.8648 29.3692C14.8205 29.312 14.7981 29.2408 14.8017 29.1686L15.3724 15.6216L12.0079 14.3155C11.8449 14.252 11.7391 14.3406 11.7744 14.5129L14.7246 29.1747C14.7427 29.2509 14.7824 29.3203 14.8389 29.3745C14.8954 29.4288 14.9664 29.4656 15.0432 29.4805Z" fill="#FFA52E"/>
<path fill-rule="evenodd" clip-rule="evenodd" d="M15.8091 12.1567C15.6531 12.0774 15.5187 12.1558 15.5112 12.3308L14.8022 29.1682C14.7984 29.2405 14.8208 29.3118 14.8651 29.3691C14.9094 29.4264 14.9727 29.466 15.0436 29.4806C14.9075 29.4515 14.8321 29.3273 14.8727 29.1796L19.1022 13.8193L15.8091 12.1567Z" fill="#87CC25"/>
<path fill-rule="evenodd" clip-rule="evenodd" d="M14.7251 29.1747L12.5438 18.34L9.19827 17.3939C9.02905 17.3463 8.95326 17.4357 9.02993 17.5935L14.6484 29.2007C14.7255 29.3575 14.9313 29.4871 15.1067 29.4871C15.0177 29.4839 14.9322 29.4517 14.8632 29.3952C14.7943 29.3388 14.7458 29.2613 14.7251 29.1747Z" fill="#F46060"/>
<path fill-rule="evenodd" clip-rule="evenodd" d="M14.8019 29.1683L15.2258 19.0987L12.5439 18.3398L14.7252 29.1749C14.7432 29.2511 14.7828 29.3205 14.8392 29.3748C14.8957 29.429 14.9666 29.4658 15.0434 29.4808C14.9725 29.4661 14.9091 29.4266 14.8648 29.3693C14.8205 29.312 14.7982 29.2407 14.8019 29.1683Z" fill="#F98526"/>
<path fill-rule="evenodd" clip-rule="evenodd" d="M18.294 16.7557L15.3724 15.6218L14.8022 29.1684C14.7985 29.2407 14.8208 29.3121 14.8652 29.3694C14.9096 29.4267 14.9731 29.4662 15.0441 29.4808C14.9075 29.4517 14.8321 29.3274 14.8731 29.1798L18.294 16.7557Z" fill="#74B502"/>
<path d="M14.8604 29.4355L14.9173 28.9157L18.287 16.7527C18.6226 15.5661 18.8796 14.6372 19.0581 13.966C19.0674 13.923 19.0698 13.8788 19.0652 13.835C19.0934 13.7879 19.1152 13.7371 19.13 13.6841C19.3649 12.8416 19.5956 12.0058 19.822 11.1766C19.9281 10.7857 20.4015 11.151 20.5895 11.2592C24.014 13.2337 27.4181 15.1973 30.8018 17.1499C31.0588 17.2987 31.0253 17.5209 30.9292 17.7786C29.5167 21.579 28.1054 25.3792 26.6952 29.1792C26.6027 29.4276 26.4104 29.4917 26.147 29.4924C20.9882 29.5014 17.2874 29.5052 15.0447 29.5038C14.9775 29.5016 14.9128 29.4776 14.8604 29.4355Z" fill="white"/>
<path d="M14.8604 29.4355L14.9173 28.9157L18.287 16.7527C18.6226 15.5661 18.8796 14.6372 19.0581 13.966C19.0674 13.923 19.0698 13.8788 19.0652 13.835C19.0934 13.7879 19.1152 13.7371 19.13 13.6841C19.3649 12.8416 19.5956 12.0058 19.822 11.1766C19.9281 10.7857 20.4015 11.151 20.5895 11.2592C24.014 13.2337 27.4181 15.1973 30.8018 17.1499C31.0588 17.2987 31.0253 17.5209 30.9292 17.7786C29.5167 21.579 28.1054 25.3792 26.6952 29.1792C26.6027 29.4276 26.4104 29.4917 26.147 29.4924C20.9882 29.5014 17.2874 29.5052 15.0447 29.5038C14.9775 29.5016 14.9128 29.4776 14.8604 29.4355ZM24.3401 23.9484C24.0126 24.5842 23.297 24.7266 22.6477 24.6604C22.084 24.5984 21.527 24.485 20.9839 24.3215C20.808 24.2702 20.3609 24.1485 20.2506 24.3706C20.1182 24.6369 20.0434 24.9273 20.4222 25.0384C21.2231 25.2764 22.0523 25.4064 22.8877 25.425C23.3755 25.4398 23.8579 25.3188 24.281 25.0754C24.8505 24.7451 25.1795 24.1499 25.3325 23.5184C25.5376 22.664 25.1147 22.0026 24.5074 21.463C24.168 21.162 23.812 20.8483 23.4394 20.5218C23.008 20.1458 22.5324 19.6097 22.6264 18.9967C22.7389 18.257 23.3974 18.0619 24.0503 18.1424C24.7829 18.2307 25.4557 18.5083 26.1299 18.7775C26.3729 18.8752 26.5372 18.8074 26.6226 18.5738C26.7152 18.3204 26.6575 18.1455 26.4496 18.0491C25.0257 17.3934 22.1665 16.4522 21.7137 18.8643C21.5777 19.5877 21.8938 20.2277 22.4043 20.7154C22.8101 21.106 23.261 21.5059 23.757 21.9151C24.4113 22.4547 24.7936 23.0684 24.3401 23.9484Z" fill="#2E77BC"/>
<circle cx="20" cy="20" r="19.5" stroke="black" stroke-opacity="0.05"/>
</svg>
