<svg width="40" height="40" viewBox="0 0 40 40" fill="none" xmlns="http://www.w3.org/2000/svg">
<circle cx="20" cy="20" r="20" fill="#4C4C4C"/>
<g clip-path="url(#clip0_17752_43888)">
<path d="M19.9084 22.8828C21.7528 22.8828 23.248 21.3876 23.248 19.5432C23.248 17.6988 21.7528 16.2036 19.9084 16.2036C18.064 16.2036 16.5688 17.6988 16.5688 19.5432C16.5688 21.3876 18.064 22.8828 19.9084 22.8828Z" fill="url(#paint0_linear_17752_43888)"/>
<path d="M9.03516 24.5395C9.03516 23.7197 9.13871 22.8741 10.3727 21.735C12.0296 20.2076 12.0296 18.9563 12.0296 18.9563C12.0296 18.9563 12.9961 19.8624 13.8072 20.5959C14.9118 21.5883 15.9473 22.667 15.9473 24.5309C15.9473 26.3949 14.4027 27.9913 12.4869 27.9913C10.5712 27.9913 9.03516 26.4467 9.03516 24.5395Z" fill="url(#paint1_linear_17752_43888)"/>
<path d="M16.1806 14.4604C16.1806 15.2802 16.077 16.1259 14.843 17.265C13.1862 18.7924 13.1862 20.0437 13.1862 20.0437C13.1862 20.0437 12.2197 19.1376 11.4085 18.4041C10.3039 17.403 9.25977 16.3244 9.25977 14.4604C9.25977 12.5964 10.8131 11 12.7202 11C14.6273 11 16.1806 12.5447 16.1806 14.4604Z" fill="url(#paint2_linear_17752_43888)"/>
<path d="M23.7743 24.5395C23.7743 23.7197 23.8778 22.8741 25.1118 21.735C26.7687 20.2076 26.7687 18.9563 26.7687 18.9563C26.7687 18.9563 27.7352 19.8624 28.5463 20.5959C29.6509 21.5883 30.6864 22.667 30.6864 24.5309C30.6864 26.3949 29.1418 27.9913 27.226 27.9913C25.3103 27.9913 23.7656 26.4467 23.7656 24.5309L23.7743 24.5395Z" fill="url(#paint3_linear_17752_43888)"/>
<path d="M30.9195 14.4603C30.9195 15.2801 30.816 16.1258 29.5819 17.2649C27.9251 18.7923 27.9251 20.0436 27.9251 20.0436C27.9251 20.0436 26.9586 19.1375 26.1474 18.404C25.0429 17.4116 24.0073 16.3329 24.0073 14.469C24.0073 12.605 25.552 11.0085 27.4677 11.0085C29.3835 11.0085 30.9281 12.5532 30.9281 14.469L30.9195 14.4603Z" fill="url(#paint4_linear_17752_43888)"/>
</g>
<circle cx="20" cy="20" r="19.5" stroke="black" stroke-opacity="0.05"/>
<defs>
<linearGradient id="paint0_linear_17752_43888" x1="19.943" y1="22.3737" x2="19.8826" y2="17.3513" gradientUnits="userSpaceOnUse">
<stop stop-color="#C47229"/>
<stop offset="1" stop-color="#F8951D"/>
</linearGradient>
<linearGradient id="paint1_linear_17752_43888" x1="12.4006" y1="19.0426" x2="12.5473" y2="27.6634" gradientUnits="userSpaceOnUse">
<stop stop-color="#73767A"/>
<stop offset="1" stop-color="#84868A"/>
</linearGradient>
<linearGradient id="paint2_linear_17752_43888" x1="12.7202" y1="19.7934" x2="12.7202" y2="12.1132" gradientUnits="userSpaceOnUse">
<stop stop-color="#C47229"/>
<stop offset="1" stop-color="#F8951D"/>
</linearGradient>
<linearGradient id="paint3_linear_17752_43888" x1="27.0352" y1="19.9999" x2="27.0351" y2="27.9999" gradientUnits="userSpaceOnUse">
<stop stop-color="#73767A"/>
<stop offset="1" stop-color="#84868A"/>
</linearGradient>
<linearGradient id="paint4_linear_17752_43888" x1="27.4591" y1="19.7933" x2="27.4591" y2="12.1131" gradientUnits="userSpaceOnUse">
<stop stop-color="#C47229"/>
<stop offset="1" stop-color="#F8951D"/>
</linearGradient>
<clipPath id="clip0_17752_43888">
<rect width="21.8843" height="17" fill="white" transform="translate(9.03516 11)"/>
</clipPath>
</defs>
</svg>
