<svg width="40" height="40" viewBox="0 0 40 40" fill="none" xmlns="http://www.w3.org/2000/svg">
<circle cx="20" cy="20" r="20" fill="black"/>
<path d="M7.67298 22.1155C8.22318 22.5153 8.97783 22.6971 9.63074 22.7072C10.7596 22.725 11.8137 22.3923 12.7926 21.7095C12.7979 21.7061 12.8051 21.7071 12.8085 21.7124C12.8099 21.7143 12.8104 21.7163 12.8104 21.7187V23.3659C12.8109 23.3813 12.8027 23.3958 12.7892 23.403C12.6633 23.472 12.5356 23.5327 12.4054 23.5863C11.5885 23.92 10.7258 24.0969 9.81784 24.1177C7.88515 24.162 6.09375 23.3818 5.28653 21.5239C5.07291 21.032 4.97888 20.5151 5.00396 19.9726C5.09799 17.9806 6.52002 16.5663 8.42281 16.1366C9.14226 15.9746 9.95527 15.9568 10.6959 16.0826C11.4289 16.207 12.1262 16.4033 12.7873 16.6709C12.8032 16.6772 12.8109 16.6892 12.8109 16.7061L12.8099 18.2902C12.8099 18.3085 12.8022 18.3133 12.7863 18.3042C12.24 18.0028 11.6555 17.7679 11.033 17.5997C9.79614 17.266 8.36398 17.3248 7.41066 18.2569C6.86962 18.7859 6.61405 19.4248 6.64443 20.1742C6.6777 20.9949 7.02055 21.642 7.67298 22.1155Z" fill="white"/>
<path d="M30.9125 16.0253C32.4329 16.1541 33.9056 16.9251 34.6052 18.3327C35.0551 19.2378 35.1318 20.3724 34.7769 21.347C34.2744 22.7275 33.0969 23.6597 31.6691 23.9716C30.0344 24.3294 28.2941 24.0551 27.0293 22.9537C26.2611 22.2849 25.7779 21.3287 25.721 20.302C25.6506 19.0469 26.1594 17.8925 27.1252 17.0934C28.1774 16.223 29.5339 15.9086 30.9125 16.0253ZM28.9668 22.4242C29.7996 22.7709 30.6473 22.8042 31.509 22.5241C31.9613 22.377 32.3384 22.1446 32.6402 21.8273C33.2628 21.1729 33.4774 20.3884 33.284 19.4736C33.1128 18.6621 32.4888 17.9836 31.725 17.6735C30.5518 17.1966 28.9388 17.3461 28.0361 18.3197C27.4917 18.9065 27.2752 19.6163 27.3866 20.4491C27.5047 21.3316 28.1615 22.0891 28.9668 22.4242Z" fill="white"/>
<path d="M16.3947 22.6154H20.3184C20.3271 22.6149 20.3339 22.6216 20.3339 22.6303L20.3329 24.021C20.3329 24.0297 20.3261 24.0364 20.3175 24.0364H14.774C14.7653 24.0364 14.7586 24.0297 14.7586 24.021V16.1094C14.7581 16.1007 14.7648 16.094 14.7735 16.094H16.3638C16.3725 16.094 16.3793 16.1007 16.3793 16.1094V22.5999C16.3793 22.6086 16.386 22.6154 16.3947 22.6154Z" fill="white"/>
<path d="M23.7937 16.094H22.1976C22.1888 16.094 22.1816 16.1011 22.1816 16.1099V24.02C22.1816 24.0288 22.1888 24.036 22.1976 24.036H23.7937C23.8024 24.036 23.8096 24.0288 23.8096 24.02V16.1099C23.8096 16.1011 23.8024 16.094 23.7937 16.094Z" fill="white"/>
<circle cx="20" cy="20" r="19.5" stroke="black" stroke-opacity="0.05"/>
</svg>
