<svg width="40" height="40" viewBox="0 0 40 40" fill="none" xmlns="http://www.w3.org/2000/svg">
<circle cx="20" cy="20" r="20" fill="#1F398D"/>
<path d="M10.5554 13.0866C10.3593 13.1925 9.88578 13.7216 9.72795 13.9988C9.60359 14.2306 9.28313 14.7346 8.94354 15.2336C8.84789 15.3747 8.647 15.7023 8.49873 15.9542C8.35046 16.2113 8.21176 16.4229 8.19262 16.4229C8.17349 16.4229 8.03957 16.6195 7.90087 16.8614C7.76216 17.1084 7.57084 17.4057 7.47997 17.5267C7.36996 17.6678 7.26474 17.9046 7.18821 18.1566L7.06385 18.5648L7.04951 22.4555L7.03516 26.3513L7.15951 26.6285C7.26474 26.8603 7.31257 26.9107 7.46084 26.956C7.58519 26.9964 11.182 27.0064 19.4038 26.9964L31.1698 26.9812L31.3898 26.82C31.6672 26.6184 31.8299 26.3664 31.9829 25.9027C32.0499 25.7011 32.1886 25.3484 32.2938 25.1216C32.5999 24.4412 32.7673 23.9977 32.9012 23.4887L33.0352 22.9998V18.2373V13.4747L32.9204 13.2832C32.8582 13.1773 32.7721 13.0715 32.7243 13.0463C32.6669 13.011 28.7018 12.9959 21.6661 13.0009C11.8372 13.006 10.6845 13.0161 10.5554 13.0866ZM11.5168 16.4129C11.5742 16.4885 11.7081 16.7707 11.8229 17.0479L12.0285 17.5418L11.9711 18.0054C11.9424 18.2574 11.9042 18.5497 11.885 18.6505L11.8563 18.842H12.5499C13.0521 18.842 13.2577 18.8219 13.2912 18.7765C13.3343 18.7211 13.4778 17.8038 13.5973 16.8513C13.6739 16.2163 13.6165 16.2718 14.1856 16.2718H14.6878L14.8313 16.5036C14.9126 16.6296 14.9796 16.7404 14.9796 16.7505C14.9796 16.7656 15.0609 16.9471 15.1566 17.1537L15.3288 17.5367L15.1518 18.7816C15.0513 19.467 14.9413 20.1372 14.9079 20.2784C14.8744 20.4144 14.7883 20.9285 14.7213 21.4123C14.487 23.0855 14.4391 23.403 14.4104 23.5542L14.377 23.7054H13.4682H12.5642L12.5738 23.5794C12.5786 23.4282 12.856 21.503 12.9038 21.2712C12.9182 21.1855 12.9182 21.1099 12.8942 21.1099C12.8703 21.1099 12.5547 21.0998 12.1912 21.0898C11.7798 21.0797 11.5215 21.0948 11.5024 21.125C11.4737 21.1805 11.4211 21.4929 11.2489 22.773C11.1963 23.1762 11.1293 23.5542 11.1054 23.6147C11.0624 23.7306 11.048 23.7306 10.1728 23.7306C9.34531 23.7306 9.28792 23.7256 9.28792 23.6399C9.28792 23.5895 9.3214 23.3224 9.35966 23.0452C9.40271 22.773 9.4888 22.1733 9.55098 21.7147C9.76621 20.1876 9.81882 19.8248 9.86665 19.6232C9.92883 19.3762 10.1584 17.9349 10.2684 17.1033C10.388 16.2113 10.3402 16.2718 10.9237 16.2768C11.402 16.2768 11.4211 16.2818 11.5168 16.4129ZM17.8398 16.5993C17.9259 16.7757 17.9928 16.9572 17.9928 16.9924C17.9928 17.0328 18.055 17.1638 18.1363 17.2847C18.2846 17.5216 18.3085 17.6476 18.232 17.8542C18.1842 17.9853 18.0407 18.8874 17.9498 19.598C17.9211 19.8046 17.8446 20.359 17.7776 20.8327C17.7154 21.3014 17.615 21.9969 17.5624 22.3699C17.438 23.2921 17.3711 23.6197 17.2993 23.6802C17.2611 23.7155 16.9167 23.7256 16.3619 23.7205C15.5153 23.7054 15.4818 23.7004 15.4866 23.6046C15.5009 23.3829 15.6588 22.4051 15.697 22.2943C15.7353 22.1884 15.9314 20.9638 16.0318 20.1776C16.0558 20.0113 16.1084 19.6484 16.1466 19.3712C16.2806 18.4892 16.3714 17.8694 16.4193 17.5569C16.4623 17.2545 16.5054 17.0227 16.6106 16.5338L16.668 16.2718H17.1797H17.6915L17.8398 16.5993ZM25.6503 16.3776C25.7316 16.4633 26.0425 17.1084 26.1764 17.4712C26.2004 17.5367 26.2004 17.6829 26.1764 17.824C26.1477 17.955 26.0951 18.3078 26.0521 18.6152C26.0138 18.9176 25.9564 19.2805 25.9325 19.4216C25.9086 19.5577 25.8464 19.9558 25.7938 20.3036C25.7364 20.6513 25.6599 21.0797 25.6216 21.2611C25.5834 21.4425 25.5307 21.7449 25.5068 21.9415C25.4781 22.133 25.4255 22.5614 25.3825 22.894C25.3394 23.2216 25.2868 23.5441 25.2629 23.6096L25.2151 23.7306H24.3828C23.8902 23.7306 23.5363 23.7104 23.5171 23.6802C23.4741 23.6046 23.8806 20.7924 24.0002 20.3288C24.0624 20.0919 24.2585 18.7664 24.2585 18.5749C24.2585 18.4943 24.2202 18.4842 23.9141 18.4993L23.5697 18.5144L23.5123 18.842C23.4836 19.0235 23.4215 19.4317 23.3784 19.7492C23.3306 20.0667 23.2684 20.4396 23.2302 20.5807C23.1967 20.7168 23.1441 21.0041 23.1154 21.2107C23.0867 21.4173 23.0388 21.7147 23.0149 21.8659C22.991 22.0171 22.9384 22.3799 22.8953 22.6722C22.8571 22.9646 22.7997 23.3224 22.771 23.4635L22.7232 23.7306H21.8622H21.0061V23.5996C21.0061 23.524 21.0348 23.2468 21.0731 22.9797C21.1113 22.7126 21.2022 22.0776 21.2692 21.5635C21.3409 21.0494 21.4413 20.4044 21.4939 20.1272C21.647 19.3258 21.7187 18.8823 21.7187 18.6757L21.7235 18.4892H21.3887C21.0826 18.4892 21.0539 18.4993 21.0348 18.6001C20.9583 19.0487 20.9056 19.3762 20.8626 19.7492C20.8339 19.9861 20.7478 20.5052 20.6713 20.9083C20.5995 21.3115 20.48 22.0675 20.4082 22.5967C20.3365 23.1208 20.2647 23.5895 20.2408 23.6298C20.2121 23.6903 20.0543 23.7054 19.3368 23.7205C18.4998 23.7306 18.4711 23.7306 18.4711 23.6348C18.4711 23.5794 18.5238 23.1863 18.5907 22.763C18.6529 22.3396 18.7485 21.6643 18.8059 21.2712C18.8586 20.8731 18.9351 20.3842 18.9781 20.1876C19.0834 19.6837 19.1312 19.4266 19.1886 18.9932C19.2173 18.7866 19.2603 18.4993 19.2842 18.3633C19.3129 18.2221 19.3895 17.7131 19.4564 17.2293C19.5234 16.7455 19.5903 16.3322 19.5999 16.3121C19.6143 16.2869 20.9583 16.2718 22.5892 16.2718C25.5116 16.2718 25.5499 16.2718 25.6503 16.3776ZM30.8254 16.3625C30.8733 16.4129 30.9641 16.5993 31.0311 16.7808C31.0981 16.9572 31.1985 17.1991 31.2511 17.315C31.342 17.5065 31.3468 17.567 31.3085 17.9198L31.2655 18.3129L30.2611 18.328C29.711 18.333 29.2327 18.3481 29.1992 18.3633C29.1275 18.3885 29.3762 19.0083 29.8162 19.9105C30.2658 20.8277 30.5193 21.4778 30.5767 21.876C30.6867 22.6168 30.4572 23.4433 30.0793 23.6651C29.955 23.7356 26.1477 23.7608 26.1047 23.6903C26.0903 23.6651 26.143 23.2065 26.2195 22.6722C26.3008 22.138 26.363 21.6794 26.363 21.6542C26.363 21.6341 26.8413 21.6139 27.4296 21.6139C28.0179 21.6139 28.5153 21.5988 28.5296 21.5786C28.5488 21.5635 28.5344 21.5131 28.5009 21.4677C28.4627 21.4224 28.3862 21.2561 28.324 21.0948C28.2666 20.9386 28.1948 20.7924 28.1661 20.7723C28.1231 20.7471 28.0131 20.5052 27.5061 19.3611C27.4343 19.1898 27.3483 19.0386 27.3243 19.0235C27.3004 19.0033 27.2287 18.837 27.1665 18.6505C27.0756 18.3733 27.0565 18.2121 27.0565 17.7333C27.0613 16.9672 27.1569 16.6296 27.4343 16.4229L27.6304 16.2768L29.1897 16.2718C30.6389 16.2718 30.7537 16.2768 30.8254 16.3625Z" fill="white"/>
<circle cx="20" cy="20" r="19.5" stroke="black" stroke-opacity="0.05"/>
</svg>
