<svg width="40" height="40" viewBox="0 0 40 40" fill="none" xmlns="http://www.w3.org/2000/svg">
<circle cx="20" cy="20" r="20" fill="#1B52ED"/>
<path d="M29.4756 17.5152C29.863 16.8039 30.4824 16.2793 31.2985 16.2184C32.4159 16.1353 33.3785 16.71 33.7713 17.7802C33.9229 18.1955 33.9997 18.6345 33.9979 19.0766C34.0009 20.361 34.0009 21.6812 33.9979 23.037C33.9896 23.266 33.9125 23.4872 33.7767 23.6717C33.4755 24.0709 33.0738 24.2463 32.5717 24.1977C32.3359 24.1723 32.112 24.0809 31.9256 23.934C31.7393 23.7872 31.5981 23.5908 31.5182 23.3674C31.4687 23.2126 31.4456 23.0506 31.4499 22.8881C31.4555 21.6214 31.4555 20.4007 31.4499 19.2261C31.4499 18.8777 31.295 18.6551 30.9853 18.5584C30.3634 18.3618 29.8241 18.7394 29.8222 19.3824C29.8189 20.5573 29.8189 21.6931 29.8222 22.7898C29.8222 23.048 29.801 23.2376 29.7587 23.3586C29.6684 23.6068 29.5041 23.8214 29.2881 23.9734C29.072 24.1254 28.8146 24.2075 28.5504 24.2087C28.2863 24.2099 28.0281 24.13 27.8107 23.98C27.5933 23.8299 27.4271 23.6168 27.3346 23.3694C27.2858 23.2084 27.2639 23.0405 27.2697 22.8724C27.2753 21.7446 27.2753 20.6004 27.2697 19.4399C27.2728 19.2672 27.232 19.0965 27.1512 18.9439C26.9128 18.5093 26.3922 18.3569 25.989 18.6686C25.7408 18.8608 25.638 19.142 25.6385 19.4522C25.6385 20.4767 25.6385 21.6356 25.6385 22.9289C25.6385 24.1373 24.1607 24.6564 23.3771 23.7563C23.1431 23.4874 23.0792 23.1919 23.0821 22.8261C23.0844 21.0534 23.0857 19.3227 23.0861 17.6342C23.0861 17.0035 23.4862 16.4755 24.1012 16.3501C24.8288 16.2026 25.433 16.6313 25.6193 17.3333C25.6297 17.3722 25.6429 17.3732 25.6582 17.3358C25.9178 16.7065 26.5608 16.2833 27.2191 16.2287C28.278 16.1412 28.9549 16.6367 29.4338 17.5187C29.4366 17.5239 29.4414 17.5279 29.4471 17.5296C29.4528 17.5314 29.459 17.5308 29.4643 17.528C29.4694 17.5252 29.4734 17.5207 29.4756 17.5152Z" fill="white"/>
<path d="M9.55277 22.027C10.4511 22.0247 11.4614 22.0247 12.5836 22.027C12.839 22.0321 13.0845 22.1267 13.2772 22.2944C13.9129 22.8554 13.6951 23.901 12.8898 24.1586C12.7686 24.1973 12.5362 24.216 12.1927 24.2147C10.3197 24.2068 8.63067 24.2058 7.12568 24.2117C6.96429 24.2167 6.8038 24.1859 6.65579 24.1214C6.50778 24.0568 6.37593 23.9602 6.26978 23.8386C5.96399 23.4974 5.91041 22.9045 6.14884 22.494C6.22863 22.373 6.31947 22.2596 6.42021 22.1553C7.54207 20.9174 8.6346 19.7058 9.6978 18.5203C9.70026 18.5178 9.70164 18.5145 9.70164 18.511C9.70164 18.5075 9.70026 18.5041 9.6978 18.5016C9.69655 18.5005 9.69508 18.4996 9.69348 18.499C9.69187 18.4984 9.69017 18.4981 9.68846 18.4982C8.87533 18.4982 8.08465 18.4982 7.31642 18.4982C7.03391 18.4982 6.79793 18.4244 6.6085 18.277C6.45602 18.1575 6.33779 17.9999 6.26577 17.82C6.19374 17.6402 6.17047 17.4446 6.1983 17.2528C6.22614 17.0611 6.3041 16.8802 6.42429 16.7283C6.54448 16.5764 6.70266 16.4589 6.88282 16.3877C7.0245 16.3363 7.17462 16.3121 7.32527 16.3164C8.98463 16.3213 10.6233 16.3225 12.2414 16.3198C12.3671 16.3184 12.4915 16.3455 12.6052 16.399C13.0863 16.6284 13.31 17.0053 13.2763 17.5297C13.2596 17.7826 13.1553 18.0218 12.9813 18.2062C11.8319 19.4768 10.6856 20.7426 9.54245 22.0034C9.54114 22.0047 9.5401 22.0062 9.53939 22.0079C9.53868 22.0096 9.53832 22.0114 9.53832 22.0132C9.53832 22.0151 9.53868 22.0169 9.53939 22.0186C9.5401 22.0202 9.54114 22.0218 9.54245 22.0231C9.5453 22.0256 9.54897 22.027 9.55277 22.027Z" fill="white"/>
<path d="M22.0012 20.4043C21.9923 21.853 21.28 23.1799 20.0077 23.9011C19.4142 24.2404 18.74 24.413 18.0565 24.4006C17.6642 24.3868 17.2752 24.3246 16.8982 24.2152C16.6873 24.1567 16.4837 24.0743 16.2916 23.9694C15.1786 23.3652 14.4421 22.2694 14.2455 21.0075C14.1976 20.6831 14.1759 20.3555 14.1806 20.0277C14.1855 19.2981 14.1855 18.533 14.1806 17.7323C14.1747 17.5496 14.1978 17.3671 14.2489 17.1916C14.3426 16.9148 14.5282 16.6784 14.7749 16.5219C15.0216 16.3654 15.3145 16.2981 15.6048 16.3312C16.2704 16.4089 16.7404 16.9467 16.7399 17.6217C16.7399 18.6669 16.7399 19.6894 16.7399 20.6894C16.7328 20.8591 16.7618 21.0283 16.825 21.1859C17.0555 21.71 17.5722 22.0708 18.1523 22.0413C18.7983 22.0099 19.4517 21.4642 19.4522 20.7857C19.4522 19.7848 19.4513 18.7511 19.4497 17.6846C19.4497 17.1193 19.6839 16.7114 20.1522 16.461C20.8405 16.0933 21.6865 16.464 21.9397 17.1793C21.9879 17.3337 22.0104 17.4949 22.0061 17.6566C22.0081 18.6959 22.0064 19.6118 22.0012 20.4043Z" fill="white"/>
<circle cx="20" cy="20" r="19.5" stroke="black" stroke-opacity="0.05"/>
</svg>
