<svg width="40" height="40" viewBox="0 0 40 40" fill="none" xmlns="http://www.w3.org/2000/svg">
<circle cx="20" cy="20" r="20" fill="#F6F8FA"/>
<path d="M27.37 19.7386C30.5094 19.7441 33.0587 17.2521 33.0641 14.1726C33.0695 11.0932 30.5289 8.5923 27.3895 8.58683C24.2501 8.58135 21.7007 11.0733 21.6953 14.1528C21.69 17.2323 24.2306 19.7331 27.37 19.7386Z" fill="#172E7A"/>
<path d="M15.2252 23.0436C17.5963 23.0353 19.512 21.1417 19.5039 18.814C19.4957 16.4864 17.5669 14.6061 15.1957 14.6144C12.8246 14.6227 10.9089 16.5163 10.9171 18.844C10.9252 21.1716 12.854 23.0518 15.2252 23.0436Z" fill="#1C8B3C"/>
<path d="M10.9663 31.4114C12.7905 31.405 14.2643 29.9476 14.258 28.1562C14.2518 26.3647 12.7679 24.9176 10.9437 24.924C9.11945 24.9304 7.64569 26.3878 7.65195 28.1792C7.6582 29.9707 9.14209 31.4178 10.9663 31.4114Z" fill="#D81418"/>
<circle cx="20" cy="20" r="19.5" stroke="black" stroke-opacity="0.05"/>
</svg>
