<svg width="40" height="40" viewBox="0 0 40 40" fill="none" xmlns="http://www.w3.org/2000/svg">
<circle cx="20" cy="20" r="20" fill="#003686"/>
<g clip-path="url(#clip0_14382_20569)">
<path d="M21.6008 12.3C20.8586 12.3016 20.1183 12.3753 19.3902 12.5199C15.2691 13.3271 12.2153 16.318 12.2153 19.8964C12.2153 23.7036 15.6862 26.8517 20.2019 27.4033C20.6703 27.4641 21.1421 27.4955 21.6144 27.4974C26.8072 27.4974 31.0315 24.0937 31.0315 19.8964C31.0315 15.6991 26.7937 12.3 21.6008 12.3ZM24.7175 25.5916C23.7172 26.1248 22.5999 26.4007 21.4664 26.3943C18.1704 26.3943 15.4978 24.1835 15.4978 21.4616C15.4978 18.7396 18.1884 16.5288 21.4664 16.5288C24.7444 16.5288 27.435 18.7396 27.435 21.4616C27.4332 21.7755 27.397 22.0883 27.3273 22.3943C27.1439 23.0819 26.8163 23.7224 26.3663 24.2737C25.9163 24.8249 25.3544 25.2742 24.7175 25.5916Z" fill="white"/>
<path d="M24.1211 17.4839C24.2168 17.8409 24.2679 18.2084 24.2735 18.578C24.2735 21.3359 21.5112 23.569 18.0942 23.578C17.5007 23.5789 16.909 23.5097 16.3318 23.3717C17.2286 24.9861 19.2333 26.0982 21.5652 26.0623C24.6817 26.0175 27.1749 23.9458 27.139 21.4346C27.1166 19.7126 25.8924 18.2283 24.1211 17.4839Z" fill="white"/>
<path d="M11.8118 19.9322C11.8118 16.3448 14.6458 13.3582 18.4844 12.4792H18.3992C13.2109 12.4792 8.98218 15.8561 8.98218 20.013C8.98218 24.17 13.1929 27.5466 18.3992 27.5466C18.6593 27.5466 18.9149 27.5465 19.166 27.5196C14.9822 26.8515 11.8118 23.708 11.8118 19.9322Z" fill="white"/>
</g>
<circle cx="20" cy="20" r="19.5" stroke="black" stroke-opacity="0.05"/>
<defs>
<clipPath id="clip0_14382_20569">
<rect width="22" height="15.2466" fill="white" transform="translate(9 12.3)"/>
</clipPath>
</defs>
</svg>
