<svg width="40" height="40" viewBox="0 0 40 40" fill="none" xmlns="http://www.w3.org/2000/svg">
<circle cx="20" cy="20" r="20" fill="#515AA7"/>
<path d="M31.7198 18.2128C30.8094 17.106 29.3677 16.6411 28.1598 17.6068C26.5659 18.8839 26.9741 21.9361 29.0675 22.4341C30.1868 22.7012 31.1428 22.174 31.8346 21.301C31.8469 21.2851 31.8651 21.2747 31.885 21.2721C31.905 21.2695 31.9252 21.2749 31.9412 21.2872L33.9487 22.7302C33.962 22.7368 33.9735 22.7465 33.9823 22.7584C33.9911 22.7704 33.9968 22.7842 33.9991 22.7989C34.0014 22.8135 34.0002 22.8285 33.9955 22.8425C33.9908 22.8566 33.9829 22.8693 33.9723 22.8797C33.1154 24.0529 32.0689 24.7581 30.8329 24.9952C27.6244 25.6178 24.7133 23.8219 24.2955 20.5123C23.8776 17.2028 26.2685 14.5242 29.5918 14.4744C31.4228 14.4476 32.8649 15.1394 33.9183 16.5498C33.932 16.5687 33.9379 16.5922 33.9348 16.6153C33.9317 16.6385 33.9199 16.6596 33.9017 16.6743L31.8997 18.2336C31.873 18.2545 31.8391 18.2641 31.8055 18.2602C31.7718 18.2563 31.741 18.2393 31.7198 18.2128Z" fill="white"/>
<path d="M22.3497 17.8393C21.5507 17.2527 20.5926 16.9223 19.6019 16.8915C19.3475 16.8789 19.0955 16.9446 18.8796 17.0797C18.8011 17.1297 18.7364 17.1987 18.6916 17.2803C18.6467 17.3619 18.6232 17.4535 18.6232 17.5466C18.6232 17.6398 18.6467 17.7314 18.6916 17.813C18.7364 17.8946 18.8011 17.9636 18.8796 18.0136C19.0802 18.1438 19.3008 18.2401 19.5327 18.2986C21.3189 18.7358 24.0501 19.1288 24.1539 21.5293C24.2535 23.862 22.5088 24.9883 20.4016 25.0754C18.4083 25.1621 16.712 24.6188 15.3128 23.4456C15.3024 23.4389 15.2937 23.43 15.2873 23.4195C15.2809 23.409 15.277 23.3972 15.2758 23.3849C15.2746 23.3727 15.2762 23.3603 15.2804 23.3488C15.2847 23.3372 15.2915 23.3268 15.3003 23.3183L16.778 21.5376C16.7853 21.5265 16.7949 21.5172 16.8062 21.5102C16.8175 21.5032 16.8301 21.4988 16.8433 21.4972C16.8565 21.4957 16.8698 21.497 16.8824 21.5011C16.895 21.5052 16.9066 21.512 16.9163 21.521C18.0232 22.3636 19.2933 22.8437 20.6257 22.6541C21.0509 22.5933 21.2649 22.3627 21.2677 21.9624C21.2677 21.6455 20.9218 21.4449 20.6589 21.3577C18.964 20.8043 16.0723 20.6106 15.7818 18.3235C15.649 17.2702 15.8874 16.4036 16.4971 15.7238C17.6801 14.4011 19.6973 14.3443 21.294 14.6529C22.2285 14.83 23.1054 15.2333 23.8481 15.8275C23.857 15.833 23.8646 15.8403 23.8703 15.849C23.876 15.8577 23.8797 15.8676 23.8812 15.8779C23.8826 15.8882 23.8818 15.8987 23.8787 15.9087C23.8756 15.9186 23.8704 15.9278 23.8633 15.9355L22.5489 17.8047C22.5385 17.8199 22.5252 17.833 22.5097 17.843C22.4942 17.853 22.4768 17.8599 22.4587 17.8631C22.4405 17.8663 22.4218 17.8659 22.4038 17.8618C22.3858 17.8577 22.3688 17.85 22.3538 17.8393H22.3497Z" fill="white"/>
<path d="M6 24.9161V14.6776C7.44077 14.661 8.88201 14.667 10.3237 14.6956C11.9674 14.7246 13.7481 15.3805 14.7166 16.7129C15.8235 18.2348 15.9618 20.4084 15.151 22.0784C14.2476 23.9476 12.2746 24.8539 10.2545 24.9037C8.83404 24.9387 7.41587 24.9429 6 24.9161ZM8.81836 17.276L8.84604 22.3261C8.84604 22.3385 8.85099 22.3505 8.85981 22.3593C8.86864 22.3682 8.8806 22.3731 8.89308 22.3731H10.184C11.5911 22.3731 12.7256 21.2925 12.7187 19.9754V19.6018C12.7187 18.2846 11.5662 17.222 10.1604 17.2289L8.86956 17.2359C8.8575 17.2347 8.84544 17.2382 8.83591 17.2456C8.82637 17.2531 8.82009 17.264 8.81836 17.276Z" fill="white"/>
<circle cx="20" cy="20" r="19.5" stroke="black" stroke-opacity="0.05"/>
</svg>
