<svg width="40" height="40" viewBox="0 0 40 40" fill="none" xmlns="http://www.w3.org/2000/svg">
<circle cx="20" cy="20" r="20" fill="#0000FF"/>
<path d="M14.486 18.3801V21.6009C14.486 21.6107 14.4899 21.62 14.4968 21.6269C14.5037 21.6338 14.5131 21.6377 14.5228 21.6377H17.6945C17.7241 21.6377 17.735 21.6521 17.727 21.6803C16.3166 27.029 9.68301 28.7441 5.87827 24.7358C3.66155 22.4021 3.40097 18.8276 5.1283 16.1569C5.79706 15.1332 6.72342 14.3036 7.81433 13.7513C8.90525 13.199 10.1223 12.9435 11.3432 13.0105C14.4471 13.1974 16.9605 15.2979 17.74 18.3022C17.7451 18.3238 17.74 18.3346 17.7148 18.3346H14.5308C14.5246 18.3338 14.5184 18.3344 14.5125 18.3364C14.5066 18.3383 14.5013 18.3417 14.497 18.3461C14.4926 18.3505 14.4894 18.3559 14.4875 18.3618C14.4856 18.3677 14.4851 18.374 14.486 18.3801ZM12.6865 18.9006C12.6748 18.9988 12.6685 19.0976 12.6678 19.1965C12.6615 19.9756 12.6615 20.7768 12.6678 21.6002C12.667 21.6053 12.6675 21.6105 12.6691 21.6154C12.6708 21.6202 12.6735 21.6247 12.6772 21.6283C12.6808 21.632 12.6852 21.6347 12.6901 21.6363C12.695 21.638 12.7002 21.6384 12.7053 21.6377H13.4271C13.4321 21.6383 13.4371 21.6378 13.4418 21.6361C13.4465 21.6345 13.4508 21.6318 13.4542 21.6282C13.4577 21.6247 13.4604 21.6203 13.4619 21.6156C13.4635 21.6109 13.4639 21.6058 13.4632 21.6009V17.8655C13.4639 17.8605 13.4635 17.8555 13.462 17.8508C13.4604 17.8461 13.4578 17.8418 13.4543 17.8383C13.4507 17.8348 13.4465 17.8322 13.4418 17.8306C13.437 17.8291 13.432 17.8286 13.4271 17.8294H12.8078C12.7939 17.829 12.7801 17.8319 12.7675 17.8379C12.7549 17.844 12.744 17.8529 12.7356 17.864L11.0177 20.1197C11.0124 20.1265 11.0046 20.1309 10.9961 20.132C10.9876 20.1331 10.979 20.1307 10.9722 20.1255C10.9699 20.1239 10.968 20.122 10.9664 20.1197L9.20805 17.8633C9.19966 17.8522 9.18871 17.8433 9.17614 17.8374C9.16357 17.8315 9.14975 17.8288 9.13587 17.8294H8.51293C8.50803 17.8286 8.50302 17.8291 8.4983 17.8306C8.49359 17.8322 8.48931 17.8348 8.4858 17.8383C8.48229 17.8418 8.47965 17.8461 8.4781 17.8508C8.47654 17.8555 8.47611 17.8605 8.47684 17.8655V21.6189C8.47703 21.6238 8.47909 21.6284 8.48259 21.6318C8.48609 21.6351 8.49076 21.637 8.49561 21.637H9.1633C9.16828 21.637 9.17305 21.635 9.17657 21.6315C9.18009 21.628 9.18207 21.6232 9.18207 21.6182V18.9135C9.18207 18.8977 9.18207 18.8969 9.19361 18.9135C9.24865 19.0186 9.31138 19.1195 9.38129 19.2153C9.85096 19.8514 10.3305 20.4927 10.8199 21.1389C10.8313 21.1542 10.8457 21.1671 10.8622 21.1769C10.8786 21.1866 10.8968 21.1929 10.9158 21.1956C10.9347 21.1982 10.954 21.197 10.9725 21.1921C10.9909 21.1872 11.0083 21.1787 11.0234 21.1671C11.0341 21.1587 11.0435 21.149 11.0516 21.1382C11.5015 20.5367 11.9587 19.9265 12.4231 19.3077C12.514 19.177 12.5941 19.0392 12.6627 18.8955C12.6836 18.8486 12.6923 18.8515 12.6865 18.9006Z" fill="white"/>
<path d="M19.4127 18.9844V20.9875C19.4123 20.9899 19.4125 20.9924 19.4133 20.9948C19.4141 20.9971 19.4154 20.9993 19.4172 21.001C19.4189 21.0028 19.421 21.0041 19.4234 21.0049C19.4258 21.0056 19.4283 21.0059 19.4307 21.0055H22.1195C22.1267 21.0055 22.1337 21.0074 22.1398 21.0111C22.1459 21.0148 22.1509 21.0201 22.1542 21.0264L22.4429 21.5671C22.4472 21.5754 22.4546 21.5817 22.4636 21.5845C22.4725 21.5874 22.4822 21.5865 22.4905 21.5822C22.4967 21.5788 22.5019 21.5738 22.5057 21.5678L24.3269 18.3492C24.3321 18.339 24.3401 18.3306 24.3499 18.3248C24.3598 18.3191 24.371 18.3163 24.3824 18.3167H25.079C25.0906 18.3167 25.102 18.3198 25.112 18.3256C25.122 18.3315 25.1303 18.3398 25.136 18.3499L27.0034 21.6082C27.0214 21.6393 27.0128 21.6551 26.9767 21.6551H26.1675C26.1559 21.6557 26.1444 21.6528 26.1344 21.6469C26.1244 21.641 26.1164 21.6323 26.1112 21.6219L25.7539 20.968C25.7487 20.9572 25.7405 20.9482 25.7302 20.942C25.72 20.9359 25.7081 20.9328 25.6962 20.9333H23.675C23.6637 20.9333 23.6527 20.9364 23.643 20.9423C23.6333 20.9481 23.6254 20.9565 23.6202 20.9665L23.2723 21.6162C23.2668 21.6273 23.2583 21.6367 23.2477 21.6431C23.237 21.6495 23.2248 21.6527 23.2124 21.6523C21.8452 21.6523 20.5572 21.6523 19.3484 21.6523C18.7998 21.6523 18.6266 21.4191 18.6223 20.8936C18.6141 20.244 18.6158 19.5975 18.6273 18.9541C18.6374 18.3766 19.0193 18.3044 19.5181 18.3109C20.532 18.3186 21.5144 18.3186 22.4653 18.3109C22.4671 18.3109 22.4689 18.3113 22.4706 18.312C22.4723 18.3128 22.4738 18.3139 22.475 18.3152C22.4762 18.3166 22.4772 18.3182 22.4777 18.3199C22.4783 18.3217 22.4785 18.3235 22.4783 18.3254C22.4786 18.3273 22.4786 18.3292 22.4783 18.3311L22.1513 18.9086C22.1489 18.913 22.1454 18.9167 22.141 18.9192C22.1367 18.9218 22.1318 18.9231 22.1267 18.923H19.4668C19.4587 18.9215 19.4503 18.9221 19.4425 18.9248C19.4347 18.9275 19.4278 18.9322 19.4223 18.9383C19.4169 18.9445 19.4131 18.952 19.4114 18.9601C19.4097 18.9682 19.4102 18.9765 19.4127 18.9844ZM24.0049 20.2642C24.0021 20.2696 24.0015 20.2758 24.0033 20.2816C24.005 20.2874 24.009 20.2923 24.0143 20.2952C24.0179 20.2962 24.0216 20.2962 24.0251 20.2952L25.3583 20.3017C25.3644 20.3017 25.3703 20.2994 25.3747 20.2953C25.3791 20.2911 25.3818 20.2854 25.3822 20.2793C25.3833 20.2756 25.3833 20.2716 25.3822 20.2678L24.7181 19.0277C24.7161 19.0241 24.7132 19.0211 24.7096 19.019C24.7061 19.0169 24.702 19.0158 24.6979 19.0158C24.6938 19.0158 24.6897 19.0169 24.6861 19.019C24.6826 19.0211 24.6797 19.0241 24.6777 19.0277L24.0049 20.2642Z" fill="white"/>
<path d="M29.9146 20.3903C29.8793 20.3903 29.875 20.4004 29.9031 20.4228L31.3583 21.6073C31.3966 21.639 31.3915 21.6549 31.3417 21.6549H30.3311C30.2877 21.6548 30.2459 21.6383 30.2142 21.6087L28.9481 20.422C28.9273 20.4022 28.8996 20.3913 28.8709 20.3917H28.2393C28.2344 20.391 28.2294 20.3914 28.2247 20.393C28.2199 20.3945 28.2157 20.3972 28.2122 20.4007C28.2086 20.4042 28.206 20.4085 28.2045 20.4132C28.2029 20.4179 28.2025 20.4229 28.2032 20.4278V21.6008C28.2043 21.6081 28.2037 21.6157 28.2013 21.6227C28.199 21.6298 28.195 21.6362 28.1898 21.6415C28.1845 21.6467 28.1781 21.6507 28.171 21.653C28.1639 21.6554 28.1564 21.656 28.1491 21.6549H27.472C27.4658 21.6558 27.4596 21.6552 27.4537 21.6532C27.4478 21.6512 27.4425 21.6479 27.4382 21.6434C27.4338 21.639 27.4306 21.6336 27.4287 21.6277C27.4268 21.6218 27.4263 21.6156 27.4272 21.6094V18.3555C27.4265 18.3502 27.427 18.3448 27.4287 18.3397C27.4305 18.3347 27.4333 18.3301 27.4371 18.3263C27.4408 18.3225 27.4454 18.3197 27.4505 18.318C27.4556 18.3163 27.4609 18.3158 27.4662 18.3165H30.3831C30.809 18.3165 31.0301 18.5138 31.0465 18.9084C31.0575 19.1822 31.0575 19.4728 31.0465 19.7803C31.0255 20.4762 30.4062 20.4076 29.9146 20.3903ZM28.1989 18.9329V19.7991C28.1991 19.8043 28.2013 19.8093 28.205 19.8129C28.2088 19.8166 28.2138 19.8186 28.2191 19.8186H30.0164C30.0794 19.8236 30.1419 19.8038 30.1905 19.7633C30.2391 19.7228 30.2699 19.6649 30.2763 19.602V19.1357C30.2697 19.0729 30.2389 19.0151 30.1903 18.9747C30.1418 18.9343 30.0794 18.9143 30.0164 18.9192H28.2191C28.2138 18.9194 28.2087 18.9216 28.205 18.9253C28.2012 18.9291 28.199 18.9341 28.1989 18.9394V18.9329Z" fill="white"/>
<path d="M35.9989 20.5189C35.9995 20.6678 35.9707 20.8153 35.9141 20.953C35.8576 21.0908 35.7745 21.216 35.6695 21.3215C35.5645 21.4271 35.4397 21.5108 35.3022 21.5681C35.1648 21.6253 35.0174 21.6549 34.8685 21.6551H33.0185C32.8698 21.6553 32.7224 21.6263 32.5849 21.5697C32.4474 21.513 32.3224 21.4298 32.217 21.3249C32.1117 21.2199 32.028 21.0952 31.9708 20.9579C31.9136 20.8206 31.8841 20.6734 31.8838 20.5247V19.4492C31.8834 19.3004 31.9124 19.153 31.969 19.0155C32.0256 18.8779 32.1088 18.7529 32.2138 18.6475C32.3187 18.5421 32.4435 18.4584 32.5808 18.4013C32.7182 18.3442 32.8654 18.3146 33.0142 18.3145H34.8649C35.0137 18.3142 35.161 18.3432 35.2985 18.3998C35.436 18.4565 35.561 18.5397 35.6664 18.6446C35.7718 18.7496 35.8554 18.8743 35.9126 19.0116C35.9698 19.1489 35.9994 19.2961 35.9996 19.4448L35.9989 20.5189ZM35.2172 19.4456C35.2168 19.3082 35.1619 19.1767 35.0646 19.0798C34.9673 18.9829 34.8355 18.9285 34.6982 18.9287H33.1896C33.1216 18.9288 33.0544 18.9423 32.9917 18.9684C32.929 18.9945 32.872 19.0327 32.8241 19.0809C32.7761 19.129 32.7382 19.1861 32.7123 19.2489C32.6865 19.3118 32.6733 19.3791 32.6735 19.447V20.4879C32.6738 20.6252 32.7287 20.7568 32.826 20.8537C32.9233 20.9506 33.0551 21.0049 33.1925 21.0047H34.7011C34.8382 21.0043 34.9696 20.9495 35.0664 20.8523C35.1631 20.7552 35.2174 20.6236 35.2172 20.4864V19.4456Z" fill="white"/>
<path d="M16.7595 19.6339H15.2798C15.2749 19.6347 15.2699 19.6342 15.2651 19.6327C15.2604 19.6311 15.2561 19.6285 15.2526 19.625C15.2491 19.6215 15.2465 19.6172 15.2449 19.6125C15.2434 19.6078 15.243 19.6028 15.2437 19.5978V18.9309C15.2426 18.9235 15.2432 18.916 15.2456 18.9089C15.2479 18.9019 15.2519 18.8954 15.2571 18.8902C15.2624 18.8849 15.2688 18.881 15.2759 18.8786C15.2829 18.8763 15.2905 18.8756 15.2978 18.8767H17.8083C17.8142 18.8761 17.8201 18.8768 17.8257 18.8785C17.8314 18.8803 17.8366 18.8832 17.841 18.8871C17.8455 18.8909 17.8491 18.8956 17.8517 18.9009C17.8542 18.9062 17.8557 18.912 17.856 18.9179C17.9606 19.6051 17.9623 20.304 17.861 20.9917C17.8597 21.0008 17.8552 21.009 17.8483 21.0151C17.8414 21.0212 17.8326 21.0247 17.8235 21.0249H15.2798C15.2704 21.0249 15.2614 21.0212 15.2548 21.0145C15.2481 21.0079 15.2444 20.9989 15.2444 20.9895V20.2316C15.2443 20.2269 15.2452 20.2222 15.2469 20.2178C15.2486 20.2135 15.2512 20.2095 15.2545 20.2061C15.2578 20.2028 15.2617 20.2001 15.2661 20.1983C15.2704 20.1965 15.2751 20.1955 15.2798 20.1955H16.7595C16.762 20.1959 16.7645 20.1957 16.7668 20.1949C16.7692 20.1941 16.7713 20.1928 16.7731 20.191C16.7748 20.1893 16.7762 20.1871 16.7769 20.1848C16.7777 20.1824 16.7779 20.1799 16.7776 20.1775V19.6534C16.7776 19.6397 16.7718 19.6339 16.7595 19.6339Z" fill="white"/>
<circle cx="20" cy="20" r="19.5" stroke="black" stroke-opacity="0.05"/>
</svg>
