<svg width="40" height="40" viewBox="0 0 40 40" fill="none" xmlns="http://www.w3.org/2000/svg">
<circle cx="20" cy="20" r="20" fill="#F6F8FA"/>
<path d="M20.0344 9.73682C14.5117 9.73682 10.0352 14.2133 10.0352 19.7361V27.5748L14.3666 23.2433C13.7347 22.2237 13.3692 21.0221 13.3692 19.7346C13.3692 16.0528 16.3541 13.0679 20.0359 13.0679C23.7177 13.0679 26.7026 16.0528 26.7026 19.7346C26.7026 23.4164 23.7177 26.4013 20.0359 26.4013C18.7484 26.4013 17.5468 26.0357 16.5287 25.4039L12.1972 29.7353H20.0359C25.5587 29.7353 30.0352 25.2588 30.0352 19.7361C30.0352 14.2133 25.5572 9.73682 20.0344 9.73682Z" fill="#005CA9"/>
<path d="M17.8425 16.8712C17.8425 16.4524 17.5036 16.1135 17.0848 16.1135C16.666 16.1135 16.3271 16.4524 16.3271 16.8712C16.3271 17.29 16.666 17.6289 17.0848 17.6289C17.5036 17.6289 17.8425 17.29 17.8425 16.8712Z" fill="#A3D2EB"/>
<path d="M19.778 16.8712C19.778 16.4524 19.4392 16.1135 19.0204 16.1135C18.6016 16.1135 18.2627 16.4524 18.2627 16.8712C18.2627 17.29 18.6016 17.6289 19.0204 17.6289C19.4392 17.6289 19.778 17.29 19.778 16.8712Z" fill="#77B4D6"/>
<path d="M21.7136 16.8712C21.7136 16.4524 21.3747 16.1135 20.9559 16.1135C20.5371 16.1135 20.1982 16.4524 20.1982 16.8712C20.1982 17.29 20.5371 17.6289 20.9559 17.6289C21.3747 17.6289 21.7136 17.29 21.7136 16.8712Z" fill="#005CA9"/>
<path d="M23.6501 16.8712C23.6501 16.4524 23.3112 16.1135 22.8924 16.1135C22.4736 16.1135 22.1348 16.4524 22.1348 16.8712C22.1348 17.29 22.4736 17.6289 22.8924 17.6289C23.3112 17.6289 23.6501 17.29 23.6501 16.8712Z" fill="#4F8FCC"/>
<path d="M17.8425 18.7506C17.8425 18.3318 17.5036 17.9929 17.0848 17.9929C16.666 17.9929 16.3271 18.3318 16.3271 18.7506C16.3271 19.1694 16.666 19.5083 17.0848 19.5083C17.5036 19.5083 17.8425 19.1694 17.8425 18.7506Z" fill="#A3D2EB"/>
<path d="M19.778 18.7506C19.778 18.3318 19.4392 17.9929 19.0204 17.9929C18.6016 17.9929 18.2627 18.3318 18.2627 18.7506C18.2627 19.1694 18.6016 19.5083 19.0204 19.5083C19.4392 19.5083 19.778 19.1694 19.778 18.7506Z" fill="#77B4D6"/>
<path d="M21.7136 18.7506C21.7136 18.3318 21.3747 17.9929 20.9559 17.9929C20.5371 17.9929 20.1982 18.3318 20.1982 18.7506C20.1982 19.1694 20.5371 19.5083 20.9559 19.5083C21.3747 19.5083 21.7136 19.1694 21.7136 18.7506Z" fill="#005CA9"/>
<path d="M23.6501 18.7506C23.6501 18.3318 23.3112 17.9929 22.8924 17.9929C22.4736 17.9929 22.1348 18.3318 22.1348 18.7506C22.1348 19.1694 22.4736 19.5083 22.8924 19.5083C23.3112 19.5083 23.6501 19.1694 23.6501 18.7506Z" fill="#4F8FCC"/>
<path d="M17.8425 20.63C17.8425 20.2112 17.5036 19.8723 17.0848 19.8723C16.666 19.8723 16.3271 20.2112 16.3271 20.63C16.3271 21.0488 16.666 21.3877 17.0848 21.3877C17.5036 21.3877 17.8425 21.0488 17.8425 20.63Z" fill="#A3D2EB"/>
<path d="M19.778 20.63C19.778 20.2112 19.4392 19.8723 19.0204 19.8723C18.6016 19.8723 18.2627 20.2112 18.2627 20.63C18.2627 21.0488 18.6016 21.3877 19.0204 21.3877C19.4392 21.3877 19.778 21.0488 19.778 20.63Z" fill="#77B4D6"/>
<path d="M21.7136 20.63C21.7136 20.2112 21.3747 19.8723 20.9559 19.8723C20.5371 19.8723 20.1982 20.2112 20.1982 20.63C20.1982 21.0488 20.5371 21.3877 20.9559 21.3877C21.3747 21.3877 21.7136 21.0488 21.7136 20.63Z" fill="#005CA9"/>
<path d="M23.6501 20.63C23.6501 20.2112 23.3112 19.8723 22.8924 19.8723C22.4736 19.8723 22.1348 20.2112 22.1348 20.63C22.1348 21.0488 22.4736 21.3877 22.8924 21.3877C23.3112 21.3877 23.6501 21.0488 23.6501 20.63Z" fill="#4F8FCC"/>
<path d="M17.8425 22.5094C17.8425 22.0906 17.5036 21.7517 17.0848 21.7517C16.666 21.7517 16.3271 22.0906 16.3271 22.5094C16.3271 22.9282 16.666 23.2671 17.0848 23.2671C17.5036 23.2671 17.8425 22.9282 17.8425 22.5094Z" fill="#A3D2EB"/>
<path d="M19.778 22.5094C19.778 22.0906 19.4392 21.7517 19.0204 21.7517C18.6016 21.7517 18.2627 22.0906 18.2627 22.5094C18.2627 22.9282 18.6016 23.2671 19.0204 23.2671C19.4392 23.2671 19.778 22.9282 19.778 22.5094Z" fill="#77B4D6"/>
<path d="M21.7136 22.5094C21.7136 22.0906 21.3747 21.7517 20.9559 21.7517C20.5371 21.7517 20.1982 22.0906 20.1982 22.5094C20.1982 22.9282 20.5371 23.2671 20.9559 23.2671C21.3747 23.2671 21.7136 22.9282 21.7136 22.5094Z" fill="#005CA9"/>
<path d="M23.6501 22.5094C23.6501 22.0906 23.3112 21.7517 22.8924 21.7517C22.4736 21.7517 22.1348 22.0906 22.1348 22.5094C22.1348 22.9282 22.4736 23.2671 22.8924 23.2671C23.3112 23.2671 23.6501 22.9282 23.6501 22.5094Z" fill="#4F8FCC"/>
<circle cx="20" cy="20" r="19.5" stroke="black" stroke-opacity="0.05"/>
</svg>
