<svg width="40" height="40" viewBox="0 0 40 40" fill="none" xmlns="http://www.w3.org/2000/svg">
<circle cx="20" cy="20" r="20" fill="#0056B8"/>
<path d="M21.1806 9.03931L14.907 19.5223L12.9555 16.195C12.8006 15.9284 12.7205 15.625 12.7235 15.3167C12.7265 15.0084 12.8126 14.7066 12.9726 14.4431L15.7658 9.82826C15.9202 9.57271 16.1386 9.3619 16.3994 9.21665C16.6603 9.0714 16.9545 8.99676 17.253 9.00011L21.1806 9.03931Z" fill="#FEFEFE"/>
<path d="M22.8125 9.03931H23.6811C23.789 9.03921 23.8952 9.06701 23.9892 9.12003C24.0832 9.17305 24.1619 9.24948 24.2177 9.3419L27.1958 14.2422C27.3329 14.4683 27.4074 14.7267 27.4117 14.991C27.416 15.2554 27.3499 15.5161 27.2203 15.7465C27.0906 15.9768 26.9021 16.1686 26.6739 16.3021C26.4457 16.4356 26.1861 16.506 25.9218 16.5062H23.0024C23.0024 16.5062 23.5733 16.0443 22.9755 15.2015C22.565 14.6232 21.7308 13.2622 21.2493 12.4671C21.1407 12.2865 21.0861 12.0787 21.092 11.8681C21.0978 11.6575 21.1639 11.453 21.2824 11.2788L22.8125 9.03931Z" fill="#FEFEFE"/>
<path d="M17.0669 30.9952H16.1113C15.9927 30.9952 15.876 30.9647 15.7726 30.9065C15.6692 30.8484 15.5825 30.7646 15.5208 30.6632L12.2437 25.2729C12.0904 25.0241 12.0064 24.7388 12.0003 24.4466C11.9943 24.1545 12.0665 23.866 12.2095 23.6111C12.3524 23.3562 12.5609 23.1441 12.8133 22.9969C13.0658 22.8497 13.353 22.7726 13.6452 22.7737H16.8586C16.8586 22.7737 16.2302 23.2821 16.888 24.2083C17.3401 24.8453 18.2577 26.3436 18.7869 27.2183C18.9072 27.4165 18.9678 27.6453 18.9615 27.8771C18.9552 28.1089 18.8823 28.334 18.7514 28.5254L17.0669 30.9952Z" fill="#FEFEFE"/>
<path d="M24.198 22.7002L18.9302 30.9952H24.0351L27.7961 25.203C27.9544 24.9582 28.0438 24.6752 28.0549 24.3838C28.066 24.0924 27.9983 23.8035 27.859 23.5473C27.7197 23.2911 27.5139 23.0773 27.2633 22.9282C27.0128 22.7791 26.7266 22.7004 26.435 22.7002H24.198Z" fill="#FEFEFE"/>
<path d="M17.8055 17.4961L25.2785 17.4214L27.9945 21.752L18.0211 21.8746C17.7296 21.8792 17.4422 21.8053 17.1892 21.6604C16.9362 21.5156 16.7269 21.3052 16.5833 21.0514C16.4397 20.7976 16.3672 20.5099 16.3734 20.2184C16.3796 19.9269 16.4642 19.6424 16.6184 19.395L17.8055 17.4961Z" fill="#FEFEFE"/>
<circle cx="20" cy="20" r="19.5" stroke="black" stroke-opacity="0.05"/>
</svg>
