<svg width="40" height="40" viewBox="0 0 40 40" fill="none" xmlns="http://www.w3.org/2000/svg">
<circle cx="20" cy="20" r="20" fill="#19154A"/>
<g clip-path="url(#clip0_18553_55573)">
<path d="M15.3851 17.5275C11.4807 17.7072 11.4358 23.5754 15.2952 23.797C15.4621 23.809 15.5906 23.9347 15.5906 24.0844V24.1563C15.5906 24.3658 15.4814 24.4676 15.2631 24.4676H6.13153C6.07374 24.4676 6.04163 24.4317 6.04163 24.3778V15.5635C6.03521 15.5155 6.08016 15.4736 6.13153 15.4736H15.3722C15.5071 15.4736 15.5649 15.5395 15.552 15.6593C15.5007 16.2102 15.5007 16.773 15.552 17.3419C15.5585 17.4377 15.4878 17.5155 15.3851 17.5215C15.3851 17.5215 15.3851 17.5215 15.3787 17.5215L15.3851 17.5275Z" fill="white"/>
<path d="M19.3342 17.8628H18.8975C18.8231 17.8628 18.7627 17.9191 18.7627 17.9885V22.9706C18.7627 23.04 18.8231 23.0963 18.8975 23.0963H19.3342C19.4087 23.0963 19.4691 23.04 19.4691 22.9706V17.9885C19.4691 17.9191 19.4087 17.8628 19.3342 17.8628Z" fill="white"/>
<path d="M20.8626 18.7792C21.1109 18.7792 21.3121 18.5916 21.3121 18.3601C21.3121 18.1286 21.1109 17.9409 20.8626 17.9409C20.6143 17.9409 20.4131 18.1286 20.4131 18.3601C20.4131 18.5916 20.6143 18.7792 20.8626 18.7792Z" fill="white"/>
<path d="M15.3853 23.2578C13.9725 23.186 12.8937 21.9524 12.9772 20.4914C13.0607 19.0363 14.2679 17.9045 15.6807 17.9764C17.0934 18.0482 18.1723 19.2818 18.0888 20.7429C18.0053 22.1979 16.7981 23.3297 15.3853 23.2578ZM15.5266 22.5333C16.4705 22.5333 17.2411 21.677 17.2411 20.6171C17.2411 19.5572 16.477 18.7009 15.533 18.6949C14.589 18.6949 13.8184 19.5512 13.8184 20.6111C13.8184 21.671 14.5826 22.5273 15.5266 22.5333Z" fill="white"/>
<path d="M23.0076 21.366L23.0397 22.9349C23.0397 23.0487 22.9819 23.1026 22.8599 23.1026H22.4682C22.359 23.1026 22.3076 23.0487 22.3076 22.9469V18.2762C22.3076 18.1864 22.3526 18.1445 22.4489 18.1445C23.2002 18.1445 24.4075 18.0008 24.9983 18.5038C25.5441 18.9649 25.6854 19.5337 25.4349 20.2104C25.2359 20.7373 24.8313 21.0726 24.2341 21.2104C23.8745 21.2942 23.4892 21.2463 23.1103 21.2702C23.0397 21.2702 23.0076 21.3062 23.0076 21.372V21.366ZM23.0268 18.869L23.014 20.4978C23.014 20.5577 23.0654 20.6056 23.1296 20.6056H23.7461C24.3176 20.6175 24.7864 20.2343 24.7928 19.7613V19.6295C24.7928 19.1565 24.3368 18.7672 23.7653 18.7672H23.1488C23.0846 18.7613 23.0333 18.8092 23.0333 18.869H23.0268Z" fill="white"/>
<path d="M15.5265 22.1022H15.5201C14.8137 22.1022 14.2422 21.4615 14.2422 20.6771V20.4914C14.2422 19.707 14.8201 19.0723 15.5265 19.0723H15.5329V22.0902L15.5265 22.1022Z" fill="white"/>
<path d="M27.7726 20.8087C28.0295 20.7668 28.1001 20.6411 27.9845 20.4195C27.9589 20.3716 27.9332 20.3297 27.9011 20.2938C27.7662 20.1261 27.5479 20.0243 27.3167 20.0303C26.9442 20.0363 26.5975 20.174 26.27 20.4375C26.2058 20.4914 26.1094 20.4854 26.0516 20.4255C26.0259 20.4015 26.0131 20.3716 26.0131 20.3357C26.0003 19.9704 26.1351 19.7309 26.4241 19.6111C27.1433 19.3177 28.2478 19.2997 28.5946 20.0602C28.6973 20.2938 28.7487 20.5932 28.7359 20.9644C28.7166 21.665 28.7166 22.3297 28.7359 22.9644C28.7359 23.0423 28.6845 23.1081 28.6074 23.1201C28.4019 23.162 28.19 23.1081 28.068 22.9464C28.0488 22.9225 28.0295 22.9045 28.0038 22.8926C27.946 22.8626 27.8818 22.8626 27.824 22.8926C27.4901 23.0842 27.2075 23.2458 26.7837 23.18C26.0773 23.0662 25.7241 22.6949 25.7306 22.0662C25.737 20.9764 26.9442 20.9405 27.7662 20.8147L27.7726 20.8087ZM26.7644 22.4914C26.9763 22.5991 27.1818 22.6171 27.3938 22.5333C27.8433 22.3536 28.0616 22.0003 28.0359 21.4614C28.0359 21.4135 28.0038 21.3836 27.9524 21.3896C27.6185 21.3955 27.291 21.4494 26.9635 21.5213C26.4434 21.6291 26.2507 22.2279 26.7644 22.4914Z" fill="white"/>
<path d="M30.9251 22.5337C31.3618 22.408 31.4645 22.0607 31.0343 21.8272C30.3985 21.4739 29.1271 21.2343 29.4931 20.2283C29.7756 19.4559 30.8159 19.3122 31.5673 19.5278C31.7599 19.5816 31.8627 19.7074 31.8562 19.899V20.0846C31.8562 20.2703 31.7663 20.3242 31.5865 20.2403C31.0022 19.9709 30.5783 19.9649 30.2958 20.2224C30.0453 20.4619 30.0967 20.6655 30.4563 20.8391C31.1049 21.1445 32.0874 21.3721 31.9526 22.2403C31.8049 23.2164 30.4756 23.3182 29.6922 23.0427C29.4931 22.9709 29.3903 22.8391 29.3968 22.6355V22.426C29.3968 22.2224 29.4931 22.1745 29.6729 22.2942C30.0903 22.5697 30.5077 22.6535 30.9187 22.5337H30.9251Z" fill="white"/>
<path d="M34.3285 22.0425C34.1487 21.7611 33.6414 21.5934 33.3267 21.4737C32.8002 21.2761 32.3956 20.8689 32.524 20.306C32.7167 19.4617 33.9239 19.282 34.6496 19.5335C34.7909 19.5814 34.8615 19.6713 34.8808 19.809L34.9129 20.1383C34.9257 20.282 34.8679 20.318 34.7266 20.2521C34.3157 20.0545 33.8533 19.9108 33.4166 20.1503C33.1148 20.318 33.1533 20.6773 33.468 20.815C33.9625 21.0365 34.8936 21.3 35.0028 21.8808C35.0927 22.3599 34.9064 22.7192 34.4377 22.9707C33.9625 23.2222 33.3717 23.2401 32.6846 23.0246C32.5433 22.9826 32.4727 22.8868 32.4727 22.7491V22.3539C32.4727 22.1982 32.5305 22.1683 32.6717 22.2581C33.2561 22.6353 33.7827 22.6773 34.245 22.3838C34.3927 22.294 34.4184 22.1743 34.3285 22.0365V22.0425Z" fill="white"/>
<path d="M20.5065 19.633L20.5002 22.9803C20.5001 23.0465 20.5575 23.1002 20.6284 23.1003L21.0651 23.101C21.136 23.1011 21.1936 23.0476 21.1938 22.9815L21.2 19.6342C21.2001 19.568 21.1427 19.5143 21.0718 19.5142L20.6351 19.5135C20.5642 19.5134 20.5066 19.5669 20.5065 19.633Z" fill="white"/>
</g>
<circle cx="20" cy="20" r="19.5" stroke="black" stroke-opacity="0.05"/>
<defs>
<clipPath id="clip0_18553_55573">
<rect width="29" height="9" fill="white" transform="translate(6.03516 15.4736)"/>
</clipPath>
</defs>
</svg>
