<svg width="40" height="40" viewBox="0 0 40 40" fill="none" xmlns="http://www.w3.org/2000/svg">
<circle cx="20" cy="20" r="20" fill="#F6F8FA"/>
<g clip-path="url(#clip0_16525_14447)">
<path d="M28.6131 17.3283C28.5461 17.7593 28.1403 18.1083 27.7069 18.1083C27.2736 18.1083 26.9751 17.7593 27.0421 17.3283C27.1085 16.8973 27.5143 16.5483 27.9483 16.5483C28.3823 16.5483 28.6795 16.8973 28.6131 17.3283Z" fill="#95C11F"/>
<path d="M26.0229 18.4116C26.2015 17.2582 25.5437 16.5203 24.2204 16.5203H21.4962L20.4531 23.2547H23.2917C24.5013 23.2547 25.4738 22.5735 25.6686 21.3149C25.8077 20.4165 25.3496 19.9912 24.9699 19.802C25.3376 19.6408 25.9079 19.1594 26.0236 18.4116H26.0229ZM24.128 21.2505C24.0715 21.6135 23.7963 21.9162 23.3157 21.9162H22.2112L22.4158 20.5917H23.5203C24.0002 20.5917 24.1837 20.8868 24.1273 21.2498L24.128 21.2505ZM24.4724 18.4684C24.4152 18.8391 24.1252 19.0893 23.6756 19.0893H22.6395L22.8315 17.8482H23.8676C24.3171 17.8482 24.5303 18.0977 24.4724 18.4684Z" fill="#95C11F"/>
<path d="M29.0337 23.3361C29.0252 23.3851 28.9391 23.3929 28.9391 23.3929C26.0343 24.0081 26.3773 21.7678 26.3773 21.7678L26.8995 18.4153H28.4218L27.8826 22.0999C27.8826 22.0999 27.6434 23.2191 28.9173 23.2744C28.9173 23.2744 29.0429 23.2821 29.0337 23.3361Z" fill="#95C11F"/>
<path d="M33.8548 19.7227C33.5478 18.9196 32.7821 18.373 31.8018 18.373C31.7524 18.373 31.7044 18.3773 31.6557 18.3801C30.2964 18.455 29.0557 19.5602 28.8454 20.9168C28.628 22.3219 29.5984 23.4606 31.0134 23.4606C32.4285 23.4606 33.7518 22.3219 33.9698 20.9168C34.0369 20.4852 33.9903 20.0787 33.8548 19.7227ZM31.2823 22.0136C31.2654 22.015 31.2527 22.015 31.2379 22.0157C31.1941 22.0157 31.1518 22.0129 31.1094 22.0079C30.5688 21.9442 30.2138 21.4803 30.3006 20.9168C30.3945 20.31 30.9662 19.818 31.578 19.818C31.638 19.818 31.6952 19.8243 31.7517 19.8335C32.2662 19.9168 32.6 20.3695 32.5153 20.9175C32.4341 21.4417 31.9958 21.8797 31.4842 21.9897C31.4065 22.003 31.3388 22.0107 31.2823 22.0143V22.0136Z" fill="#95C11F"/>
<path d="M14.5688 16.5L13.628 21.7964L13.6083 21.9078H16.6832C16.9832 21.9085 17.2302 21.8658 17.4172 21.7824C17.624 21.6906 17.7461 21.5498 17.7793 21.3648C17.8068 21.2064 17.7045 20.9219 16.7326 20.0102C16.3522 19.6486 16.1123 19.3844 16.0198 19.226C15.9295 19.0711 15.8639 18.9071 15.8265 18.7383C15.7898 18.5736 15.7876 18.3977 15.8201 18.2155C15.8632 17.9737 15.9556 17.7453 16.0961 17.5343C16.2365 17.3234 16.4249 17.1384 16.6557 16.9842C16.8893 16.8287 17.1589 16.7088 17.4582 16.6275C17.7595 16.5456 18.1067 16.5042 18.4921 16.5042C18.5055 16.5042 20.1457 16.5042 20.6404 16.5049L20.4061 17.8637C20.0723 17.8637 18.9522 17.8637 18.9501 17.8637C18.6777 17.8637 18.4476 17.9043 18.2677 17.9849C18.0679 18.0739 17.9501 18.2127 17.9176 18.3977C17.8837 18.5855 18.0009 18.8111 18.2853 19.1076C18.4173 19.2428 18.6805 19.4867 19.0913 19.8546C19.4223 20.1503 19.6312 20.3704 19.7123 20.5091C19.7921 20.6479 19.8499 20.7936 19.8845 20.9415C19.9177 21.0851 19.9184 21.2505 19.8859 21.4327C19.7949 21.945 19.5373 22.3633 19.1209 22.6773C18.6142 23.0606 17.9007 23.2547 17.0001 23.2547H14.9238C14.9189 23.254 14.9139 23.254 14.9097 23.2547H11.3308L12.2666 17.9856L12.2892 17.8623H10.0548C9.78169 17.8623 9.55232 17.9029 9.37235 17.9835C9.17263 18.0725 9.05477 18.2113 9.0216 18.3963C8.98842 18.582 9.10911 18.8146 9.38929 19.1069C9.52127 19.2414 9.78451 19.4853 10.1953 19.8539C10.527 20.1496 10.7359 20.3697 10.8163 20.5084C10.8968 20.6479 10.9546 20.7936 10.9885 20.9415C11.0217 21.0858 11.0224 21.2512 10.9899 21.4327C10.8989 21.9443 10.6413 22.3633 10.2242 22.6773C9.71676 23.0606 9.00395 23.2547 8.10412 23.2547C8.08577 23.2547 6.46748 23.2547 6.00098 23.254L6.23035 21.9064H7.78723C8.08788 21.9071 8.3349 21.8644 8.52192 21.781C8.72871 21.6885 8.8508 21.5477 8.88327 21.3633C8.9115 21.2057 8.80916 20.9212 7.83734 20.0095C7.45624 19.6465 7.21628 19.383 7.12453 19.226C7.0342 19.0711 6.96856 18.9071 6.93116 18.7383C6.89446 18.5729 6.89234 18.397 6.92481 18.2155C6.96786 17.973 7.06102 17.7446 7.20075 17.5343C7.34191 17.3234 7.52964 17.1384 7.76042 16.9842C7.99402 16.8294 8.26362 16.7088 8.56286 16.6275C8.8628 16.547 9.21074 16.5049 9.59537 16.5049L14.5688 16.5Z" fill="#164194"/>
</g>
<circle cx="20" cy="20" r="19.5" stroke="black" stroke-opacity="0.05"/>
<defs>
<clipPath id="clip0_16525_14447">
<rect width="28" height="7" fill="white" transform="translate(6 16.5)"/>
</clipPath>
</defs>
</svg>
