<svg width="40" height="40" viewBox="0 0 40 40" fill="none" xmlns="http://www.w3.org/2000/svg">
<circle cx="20" cy="20" r="20" fill="#94A839"/>
<g clip-path="url(#clip0_18695_29042)">
<path d="M28.5968 12.0824C28.5209 11.8803 28.4601 11.6333 28.4069 11.3564C28.3158 10.8774 27.8828 10.8399 27.5182 10.6828C27.4271 10.6453 27.3891 10.548 27.4195 10.4582C27.541 10.1139 27.86 9.90437 28.1867 9.75468C28.3386 9.68732 28.3842 9.51518 28.3766 9.36549C28.3614 9.17837 28.3386 8.59458 28.6956 8.76672C28.8323 8.83408 28.9614 8.9239 29.083 9.03617C29.2653 9.20831 29.5235 9.29813 29.7818 9.28316C30.0704 9.26819 30.3515 9.2607 30.6325 9.25322C30.6933 9.25322 30.7465 9.29064 30.7617 9.34303C30.7845 9.40291 30.7769 9.46279 30.7313 9.51518C30.3743 9.95677 30.192 10.4208 30.5414 10.8998C30.6477 11.0495 30.6781 11.2291 30.6477 11.4013C30.6477 11.4537 30.5946 11.4911 30.549 11.4911C30.2831 11.4911 30.0097 11.3863 29.759 11.3264C29.7134 11.319 29.6755 11.3264 29.6375 11.3564L28.6956 12.0973C28.6956 12.0973 28.6348 12.1123 28.612 12.0899C28.612 12.0899 28.612 12.0824 28.6044 12.0749L28.5968 12.0824Z" fill="white"/>
<path d="M15.2814 31.7293C15.289 31.1306 15.3042 30.5468 15.4105 29.9405C15.5245 29.3343 15.5093 28.6607 15.5701 28.0245C15.6308 27.3659 15.6916 26.6773 15.7524 25.9737C15.7903 25.4872 15.8511 24.9783 15.9195 24.4619C16.0106 23.7957 16.0486 23.1221 16.0258 22.441C16.0258 22.3812 15.9802 22.3362 15.9271 22.3213C14.3699 21.9695 13.071 21.1238 12.1291 19.8514C11.924 19.5745 11.7797 19.3724 11.6961 19.2526C11.3999 18.8035 11.1796 18.3021 11.0505 17.7482C10.9745 17.4189 11.0733 17.1944 11.3619 17.0746C11.7645 16.91 12.0456 17.0297 12.2203 17.4414C12.4102 17.8979 12.6304 18.332 12.8811 18.7586C13.2305 19.3499 13.8154 20.0086 14.4307 20.3828C14.9396 20.6971 15.4637 20.9441 16.003 21.1238C16.0866 21.1537 16.1853 21.1088 16.2157 21.019C16.2157 21.004 16.2233 20.989 16.2233 20.9741C16.2385 20.5325 16.2841 20.0759 16.3524 19.5969C16.5043 18.6015 16.5423 17.5761 16.6183 16.5806C16.6335 16.386 16.6639 16.1914 16.7094 16.0043C16.7246 15.9444 16.6942 15.8846 16.6335 15.8621C16.0942 15.675 15.4941 15.3906 15.0383 15.0688C13.8686 14.2679 13.0634 13.1752 12.6152 11.8055C12.5393 11.5585 12.5545 11.3415 12.6836 11.1394C12.6988 11.1169 12.7216 11.0945 12.752 11.0795C13.1697 10.8999 13.466 11.0046 13.6331 11.4088C13.7394 11.6708 13.8534 11.9252 13.9749 12.1722C14.4307 13.1153 15.0915 13.8637 16.0182 14.3802C16.2613 14.5149 16.5347 14.5374 16.7702 14.6721C16.8006 14.687 16.8234 14.6796 16.831 14.6496C16.869 14.5598 16.8841 14.4775 16.8917 14.4101C16.9677 13.1452 17.0589 11.8953 17.15 10.6604C17.1804 10.2337 17.2487 9.79215 17.3323 9.32811C17.3551 9.21584 17.4538 9.13351 17.5754 9.12603C18.7755 9.09609 19.8465 9.09609 20.796 9.11854C20.9555 9.11854 21.1151 9.141 21.2822 9.16345C21.3885 9.17842 21.4493 9.2383 21.4721 9.34308C21.5708 9.867 21.6392 10.3834 21.6848 10.8924C21.7987 12.1947 21.9126 13.512 22.0038 14.8367C22.0342 15.3083 22.1101 15.7573 22.1177 16.2363C22.1177 16.3187 22.1861 16.386 22.2772 16.3935C22.5583 16.3935 22.7938 16.3336 22.9837 16.2064C23.2647 16.0193 23.5837 15.9145 23.8344 15.7124C24.2825 15.3532 24.6851 14.9565 25.0345 14.5149C25.2244 14.2754 25.4067 13.9685 25.5814 13.5868C25.741 13.25 25.8853 12.9132 26.0296 12.5914C26.1284 12.3594 26.6829 12.4342 26.85 12.4866C27.131 12.5764 27.169 13.0404 27.093 13.265C26.8879 13.9087 26.5765 14.5299 26.1663 15.1286C25.5207 16.0717 24.6472 16.7902 23.5609 17.2692C23.2115 17.4264 22.8241 17.5836 22.4064 17.7482C22.3 17.7931 22.2393 17.9054 22.262 18.0102C22.3228 18.3096 22.3684 18.594 22.3836 18.8709C22.4747 20.1208 22.5811 21.3483 22.7254 22.5683C22.7482 22.7853 22.7786 23.0099 22.8165 23.2269C22.8317 23.3242 22.9229 23.3916 23.0216 23.3691C23.0292 23.3691 23.0444 23.3691 23.052 23.3616C23.3862 23.2419 23.6977 23.1221 24.0015 22.9275C24.237 22.7778 24.4876 22.6581 24.7079 22.4859C25.27 22.0444 25.7182 21.5579 26.0524 21.019C26.3107 20.5998 26.5385 20.1208 26.736 19.5894C26.8803 19.1853 27.6703 19.2077 27.8146 19.5894C27.9893 20.046 27.8146 20.4352 27.6096 20.8468C27.2374 21.6327 26.7588 22.3138 26.1815 22.8901C25.3308 23.7433 24.2294 24.2897 23.0748 24.6265C22.9912 24.649 22.9305 24.7238 22.9305 24.8061C22.9229 24.9484 22.9229 25.098 22.9305 25.2477C23.0064 26.2282 23.0976 27.2237 23.2191 28.1892C23.371 29.3568 23.4546 30.5393 23.4698 31.7293H15.2814Z" fill="white"/>
<path d="M31.0274 16.8501C31.1033 17.2093 30.6096 17.344 30.3513 17.4488C29.9867 17.5985 29.9184 18.0775 29.7968 18.3994C29.6221 18.8784 28.9993 18.0027 28.9005 17.8829C28.8094 17.7707 28.6878 17.7108 28.5283 17.7108C28.2928 17.7108 28.0726 17.7108 27.8599 17.7108C27.7535 17.7108 27.6624 17.6285 27.6548 17.5162C27.6548 17.4638 27.67 17.4189 27.708 17.3815C27.951 17.112 28.2093 16.7752 28.2017 16.416C28.2017 16.386 28.1941 16.3636 28.1789 16.3411C28.0194 16.0941 27.9586 15.8397 27.989 15.5852C27.9966 15.5178 28.0574 15.4729 28.1257 15.4804C28.1409 15.4804 28.1485 15.4804 28.1637 15.4879C28.46 15.6226 29.0828 15.8172 29.3487 15.5702C29.531 15.4056 29.6829 15.2633 29.9412 15.2559C30.1083 15.2559 30.1842 15.3906 30.1842 15.5403C30.1994 15.9819 30.2298 16.3561 30.64 16.618C30.7311 16.6779 30.8299 16.7228 30.9362 16.7603C30.9818 16.7752 31.0122 16.8126 31.0198 16.8576L31.0274 16.8501Z" fill="white"/>
</g>
<circle cx="20" cy="20" r="19.5" stroke="black" stroke-opacity="0.05"/>
<defs>
<clipPath id="clip0_18695_29042">
<rect width="20" height="23" fill="white" transform="translate(11.0352 8.73682)"/>
</clipPath>
</defs>
</svg>
