<svg width="40" height="40" viewBox="0 0 40 40" fill="none" xmlns="http://www.w3.org/2000/svg">
<circle cx="20" cy="20" r="20" fill="#F6F8FA"/>
<g clip-path="url(#clip0_14382_20400)">
<path d="M12.4277 23.0839C12.4051 23.0839 12.3821 23.0839 12.3595 23.0825C11.7321 23.065 11.1488 22.8167 10.789 22.3629C10.4168 21.893 10.2256 21.2397 10.3592 20.5878C10.6255 19.2873 11.9518 18.2922 13.2528 18.2922C13.2754 18.2922 13.2984 18.2922 13.3214 18.2932C14.0714 18.3143 14.6943 18.6806 15.0292 19.2979L15.0518 19.3398L14.3893 19.7581C14.323 19.8001 14.2511 19.8208 14.1751 19.8208C14.0166 19.8208 13.8881 19.7291 13.8369 19.6748C13.6522 19.4785 13.4016 19.3702 13.1118 19.3624C13.0985 19.3624 13.0851 19.362 13.0717 19.362C12.3471 19.362 11.7063 19.9079 11.5482 20.6597C11.4709 21.0292 11.5478 21.3945 11.7597 21.6631C11.9486 21.9031 12.2268 22.0399 12.5424 22.0487C12.5549 22.0491 12.5664 22.0496 12.5779 22.0496C12.9451 22.0496 13.3187 21.8801 13.6296 21.5719C13.7328 21.4691 13.866 21.4106 13.9945 21.4106C14.0608 21.4106 14.1263 21.4263 14.1852 21.4562C14.3396 21.535 14.733 21.746 14.7371 21.7479L14.7878 21.775L14.7551 21.8216C14.2004 22.5997 13.309 23.0834 12.4291 23.0834L12.4277 23.0839Z" fill="#008CD6"/>
<path d="M22.8116 18.1038C22.5605 18.1038 22.4113 18.2521 22.3647 18.5166L22.3274 18.7027C22.2869 18.9252 22.2003 19.3937 22.1095 19.9079L22.08 20.076L22.1966 19.9512C22.3758 19.7586 22.6559 19.7153 22.7397 19.7153H23.8693C24.3107 19.7153 24.7327 19.3564 24.8105 18.9165C24.8488 18.6981 24.799 18.4931 24.67 18.3392C24.5424 18.1867 24.3526 18.1033 24.1356 18.1033H22.8116V18.1038ZM20.3188 23.024L21.2683 17.726C21.371 17.1414 21.7069 17 22.1542 17H24.4572C24.9718 17 25.4431 17.2096 25.7499 17.5754C26.0516 17.9347 26.17 18.4051 26.0825 18.8994C25.8996 19.9383 24.8386 20.8159 23.7661 20.8159H22.5439C22.2592 20.8159 21.9492 20.85 21.8787 21.2526L21.6359 22.6209C21.5866 22.8977 21.3434 23.024 21.1375 23.024H20.3184H20.3188Z" fill="#004098"/>
<path d="M17.9587 19.3351C17.257 19.3351 16.5545 19.9584 16.4246 20.6969C16.3587 21.0673 16.4499 21.4317 16.6724 21.6975C16.8691 21.9316 17.1492 22.061 17.4602 22.061C18.1494 22.061 18.8681 21.4156 18.998 20.6789C19.062 20.3159 18.9736 19.9584 18.7561 19.6995C18.5589 19.4646 18.2756 19.3351 17.9587 19.3351ZM17.2893 23.0939C16.642 23.0939 16.0749 22.8469 15.693 22.3987C15.3028 21.9408 15.1522 21.3299 15.2687 20.6789C15.5055 19.3572 16.7904 18.282 18.1328 18.282C18.7801 18.282 19.3472 18.5285 19.7286 18.9772C20.1188 19.4351 20.2695 20.0455 20.1534 20.6969C19.917 22.0186 18.6317 23.0943 17.2893 23.0943" fill="#008CD6"/>
<path d="M32.7671 19.3351C32.0654 19.3351 31.3629 19.9584 31.233 20.6969C31.168 21.0673 31.2583 21.4317 31.4813 21.6975C31.678 21.9316 31.9576 22.061 32.2691 22.061C32.9582 22.061 33.6765 21.4156 33.8068 20.6789C33.8709 20.3159 33.7829 19.9584 33.565 19.6995C33.3678 19.4646 33.0849 19.3351 32.7675 19.3351M32.0981 23.0939C31.4509 23.0939 30.8842 22.8469 30.5023 22.3987C30.1121 21.9408 29.9615 21.3299 30.078 20.6789C30.3144 19.3572 31.5997 18.282 32.9417 18.282C33.5894 18.282 34.156 18.5285 34.5379 18.9772C34.9281 19.4351 35.0788 20.0455 34.9622 20.6969C34.7254 22.0186 33.4411 23.0943 32.0981 23.0943M29.1903 18.4653C28.5642 18.4653 28.0432 18.7722 27.8455 19.1075C27.9045 18.7735 27.9801 18.4266 27.9801 18.4266H27.2098C26.9223 18.4266 26.7182 18.58 26.674 18.8293L25.93 23.0243H26.6947C26.9407 23.0243 27.1918 22.8718 27.243 22.5788C27.2595 22.4876 27.4632 21.2106 27.553 20.7398C27.6428 20.2689 28.0399 19.5493 28.9176 19.5493H29.7523C30.0633 19.5493 30.2066 19.3872 30.3259 19.1343C30.43 18.9117 30.5332 18.6888 30.635 18.4653H29.1907H29.1903Z" fill="#004098"/>
<path d="M5.85452 23.024C5.57442 23.024 5.33533 22.9226 5.18146 22.7383C5.02528 22.5513 4.96724 22.2915 5.01791 22.0072L5.78542 17.7532C5.87802 17.2391 6.28665 17 6.72983 17H10.829C10.829 17 10.6074 17.486 10.5075 17.7072C10.4181 17.9048 10.3167 18.1287 9.92977 18.1287H7.32964C7.06613 18.1287 6.94773 18.2374 6.90259 18.4876C6.89383 18.5369 6.80354 19.0118 6.80354 19.0118C6.78788 19.0966 6.6856 19.6748 6.6856 19.6748L6.65842 19.8272L6.77037 19.7199C6.77359 19.7171 7.08502 19.4228 7.52129 19.4228H9.83487C9.83487 19.4228 9.6317 19.883 9.54003 20.0921C9.4184 20.3676 9.27559 20.5068 8.96509 20.5068H7.00348C6.74042 20.5068 6.49902 20.7025 6.45388 20.9527L6.36727 21.4318C6.34562 21.553 6.37326 21.6677 6.44558 21.7543C6.5216 21.8451 6.63723 21.8957 6.77129 21.8957H9.38155C9.83487 21.8957 9.97814 22.1606 9.91733 22.4965L9.82289 23.0235H5.85452V23.024Z" fill="#008CD6"/>
</g>
<circle cx="20" cy="20" r="19.5" stroke="black" stroke-opacity="0.05"/>
<defs>
<clipPath id="clip0_14382_20400">
<rect width="30" height="6.09398" fill="white" transform="translate(5 17)"/>
</clipPath>
</defs>
</svg>
