<svg width="40" height="40" viewBox="0 0 40 40" fill="none" xmlns="http://www.w3.org/2000/svg">
<circle cx="20" cy="20" r="20" fill="#58B43C"/>
<path d="M27.136 18.6718L27.1377 21.4365C27.1377 21.4585 27.1198 21.4764 27.0972 21.477L26.4509 21.4782C26.4381 21.4782 26.4277 21.4683 26.4277 21.4556C26.4271 20.5581 26.4277 19.6734 26.4289 18.8026C26.4295 18.4618 26.4046 18.2315 26.7228 18.0903C27.1169 17.9149 27.6064 17.9931 27.806 18.4166C28.203 19.2574 28.6039 20.1091 29.009 20.973C29.0125 20.9805 29.0211 20.9846 29.0287 20.9811C29.0321 20.9794 29.035 20.9765 29.0368 20.973C29.4123 20.1623 29.7994 19.3262 30.1992 18.4646C30.253 18.3483 30.3219 18.2523 30.4058 18.1753C30.746 17.864 31.6134 17.9572 31.6151 18.5358C31.618 19.5016 31.6175 20.4719 31.6134 21.4469C31.6134 21.4631 31.5995 21.4764 31.5833 21.4764L30.9405 21.4782C30.9063 21.4782 30.889 21.4614 30.8895 21.4272L30.8959 18.6735C30.8959 18.6081 30.882 18.6053 30.8548 18.6643C30.3994 19.652 30.0089 20.4875 29.6837 21.1703C29.5274 21.4984 29.2011 21.5412 28.8759 21.5152C28.6196 21.4944 28.4361 21.3659 28.3256 21.1304C27.9368 20.3006 27.5526 19.4784 27.1724 18.6637C27.1481 18.6116 27.136 18.6145 27.136 18.6718Z" fill="white"/>
<path d="M11.5235 20.8071C11.5102 20.7827 11.4893 20.7706 11.461 20.7706H9.24598C9.22399 20.7706 9.20316 20.7822 9.19217 20.8018L8.83747 21.4337C8.82184 21.4603 8.79349 21.4771 8.76282 21.4771H8.03201C8.01639 21.4777 8.00366 21.465 8.00366 21.4493C8.00366 21.4441 8.00482 21.4395 8.00713 21.4349C8.51228 20.5525 9.0585 19.5867 9.64581 18.5382C9.84544 18.1824 10.0248 17.9961 10.4611 18.04C10.6897 18.0638 10.8569 18.1685 10.9628 18.3554C11.5426 19.3767 12.1235 20.4026 12.7056 21.4331C12.7224 21.4626 12.7137 21.4777 12.6796 21.4777H11.9412C11.9146 21.4777 11.8903 21.4632 11.8776 21.4401L11.5235 20.8071ZM9.5081 20.244C9.50289 20.2533 9.50636 20.2649 9.51562 20.2701C9.51852 20.2718 9.52141 20.2724 9.52488 20.2724L11.1803 20.2666C11.1908 20.2666 11.1994 20.2574 11.1989 20.2469C11.1989 20.244 11.1977 20.2406 11.1965 20.2383L10.3639 18.7697C10.3587 18.7604 10.3471 18.757 10.3379 18.7622C10.3344 18.7639 10.3321 18.7668 10.3303 18.7697L9.5081 20.244Z" fill="white"/>
<path d="M7.11073 20.8326C7.11826 20.8291 7.12173 20.8233 7.12173 20.8146C7.12346 19.9033 7.12346 19.0018 7.12173 18.1101C7.12173 18.0835 7.13504 18.0702 7.16107 18.0702L7.80278 18.0679C7.83055 18.0679 7.84444 18.0817 7.84502 18.1101C7.84675 19.4554 7.84617 20.4634 7.84328 21.1346C7.8427 21.2769 7.77558 21.3765 7.64307 21.4338C7.37285 21.5501 7.10205 21.5518 6.83183 21.4378C6.6704 21.3707 6.58071 21.2422 6.47308 21.097C5.9014 20.3234 5.3326 19.5555 4.7667 18.7923C4.7424 18.7599 4.73025 18.764 4.73025 18.8045L4.73199 21.4494C4.73199 21.4644 4.71983 21.4766 4.70537 21.4766L4.04052 21.4783C4.01969 21.4783 4.00233 21.4615 4.00233 21.4407C3.99886 20.4738 3.99944 19.4872 4.00291 18.4798C4.00523 17.9498 4.74934 17.9921 5.04676 18.1269C5.13529 18.1668 5.21746 18.2397 5.29383 18.345C5.89445 19.173 6.49391 20.0005 7.0928 20.8279C7.09685 20.8337 7.10437 20.8355 7.11073 20.8326Z" fill="white"/>
<path d="M16.0592 20.8247C16.065 20.8328 16.0766 20.8345 16.0841 20.8287C16.0887 20.8253 16.0916 20.8195 16.0916 20.8137V18.1092C16.0916 18.082 16.1049 18.0681 16.1321 18.0681L16.7738 18.0664C16.7952 18.0664 16.8126 18.0837 16.8126 18.1057C16.812 19.0703 16.8126 20.0788 16.8126 21.1302C16.8132 21.4745 16.341 21.5393 16.0789 21.5127C15.7861 21.4826 15.6281 21.3611 15.4597 21.1314C14.869 20.3253 14.2973 19.5517 13.7441 18.8105C13.7111 18.7659 13.6943 18.7717 13.6943 18.8273L13.6955 21.4519C13.6955 21.4652 13.6845 21.4762 13.6712 21.4762L13.0116 21.4785C12.9942 21.4785 12.9797 21.4641 12.9797 21.4461C12.9797 20.4683 12.9797 19.4678 12.9797 18.4448C12.9797 18.0386 13.4768 18.0189 13.7771 18.0565C13.9756 18.082 14.1312 18.1728 14.2446 18.3285C14.8504 19.1634 15.4545 19.9955 16.058 20.8247H16.0592Z" fill="white"/>
<path d="M17.823 21.2954C17.4961 21.1594 17.3272 20.9158 17.3167 20.5657C17.3057 20.1902 17.3017 19.7597 17.3052 19.2742C17.3081 18.9427 17.3202 18.7355 17.3422 18.6522C17.4545 18.2304 18.0898 18.1013 18.4728 18.0851C19.2146 18.0545 19.9275 18.0562 20.612 18.0915C20.8238 18.1025 21.042 18.1575 21.2659 18.2558C21.5332 18.3733 21.6686 18.5665 21.6715 18.8356C21.6785 19.4322 21.6779 20.023 21.6698 20.6068C21.6634 21.0674 21.4105 21.2919 20.9968 21.3885C20.7474 21.447 20.4894 21.4771 20.2226 21.4776C19.7319 21.4794 19.2251 21.4782 18.702 21.4736C18.3947 21.4707 18.1019 21.4117 17.823 21.2954ZM20.9523 18.9832C20.9523 18.7581 20.7694 18.5752 20.5443 18.5752H18.437C18.2119 18.5752 18.029 18.7581 18.029 18.9832V20.564C18.029 20.7891 18.2119 20.9719 18.437 20.9719H20.5443C20.7694 20.9719 20.9523 20.7891 20.9523 20.564V18.9832Z" fill="white"/>
<path d="M23.1237 18.6208C22.8616 18.7099 22.8928 18.9159 22.8923 19.134C22.8923 19.5691 22.8917 19.9788 22.8917 20.363C22.8917 20.5314 22.8946 20.628 22.8998 20.6517C22.9542 20.8849 23.2169 20.9752 23.431 20.9752C24.1988 20.9752 25.0048 20.9752 25.8485 20.9764C25.8728 20.9764 25.8849 20.9885 25.8849 21.0128V21.4456C25.8849 21.4659 25.8739 21.4763 25.8537 21.4763C25.0106 21.478 24.2011 21.4786 23.4252 21.4786C22.8234 21.4786 22.1707 21.3241 22.1794 20.5783C22.1852 20.076 22.1852 19.5414 22.1788 18.9749C22.1771 18.8007 22.1996 18.6578 22.2465 18.5461C22.3969 18.1903 22.9675 18.0699 23.3418 18.0687C24.1658 18.0676 25.0083 18.0676 25.8693 18.0687C25.8925 18.0687 25.9046 18.0809 25.9052 18.104L25.9127 18.538C25.9127 18.56 25.9023 18.571 25.8803 18.571C25.1229 18.571 24.3024 18.571 23.4194 18.5727C23.317 18.5727 23.218 18.5889 23.1237 18.6213V18.6208Z" fill="white"/>
<path d="M35.3288 20.2742C35.3201 20.0763 35.0817 20.0207 34.9231 20.0196C34.3746 20.0155 33.8527 20.0144 33.3568 20.0149C32.9859 20.0155 32.4663 19.9125 32.2319 19.5943C32.166 19.5046 32.1318 19.375 32.1295 19.2043C32.1266 18.9809 32.1075 18.687 32.2146 18.5064C32.4397 18.1251 33.0264 18.0667 33.421 18.0661C34.2508 18.0655 35.1014 18.0661 35.9722 18.0702C35.9878 18.0702 35.9959 18.0788 35.9959 18.0945L36 18.5423C36 18.5614 35.9907 18.5707 35.9716 18.5707C35.0533 18.5707 34.1333 18.5707 33.2115 18.5718C33.0455 18.5718 32.8013 18.6199 32.7851 18.8322C32.7706 19.0214 32.777 19.1724 32.8042 19.2864C32.8597 19.5202 33.1982 19.5352 33.388 19.5347C33.8712 19.5329 34.3624 19.5347 34.863 19.5399C35.2668 19.5439 35.9757 19.7221 35.9699 20.2389C35.9676 20.4223 35.9658 20.593 35.9652 20.7515C35.9612 21.3302 35.1147 21.4812 34.694 21.4794C33.892 21.4766 33.0432 21.476 32.1469 21.4789C32.1318 21.4789 32.1243 21.4713 32.1243 21.4569V21.0032C32.1237 20.9876 32.1312 20.9801 32.1469 20.9801C33.0183 20.9772 33.8683 20.9743 34.6969 20.9714C34.8606 20.9708 35.2321 20.9558 35.3085 20.7735C35.3612 20.6491 35.3351 20.4044 35.3288 20.2742Z" fill="white"/>
<circle cx="20" cy="20" r="19.5" stroke="black" stroke-opacity="0.05"/>
</svg>
