<svg width="40" height="40" viewBox="0 0 40 40" fill="none" xmlns="http://www.w3.org/2000/svg">
<circle cx="20" cy="20" r="20" fill="#0F2F6D"/>
<g clip-path="url(#clip0_14382_19488)">
<path d="M8.34645 17.0929V18.2603H5.67204C5.3372 18.2603 5.17518 18.4397 5.17518 18.7035C5.17518 18.9521 5.3156 19.1705 5.7671 19.1705H6.871C8.34861 19.1705 8.68994 19.9725 8.68994 20.7508C8.68994 21.6761 8.19955 22.3463 6.97037 22.3463H4.09289V21.1789H7.00926C7.35057 21.1789 7.52339 20.9929 7.52339 20.7205C7.52339 20.4633 7.37649 20.2298 6.90987 20.2298H5.80598C4.34996 20.2298 4 19.4277 4 18.6646C4 17.7544 4.49038 17.0929 5.71093 17.0929H8.34645Z" fill="white"/>
<path d="M13.0668 17.0929C14.5897 17.0929 15.4387 17.9641 15.4387 19.7304C15.4387 21.4966 14.5984 22.3441 13.0668 22.3441H12.3517C10.8201 22.3441 9.97974 21.488 9.97974 19.7304C9.97974 17.9728 10.8287 17.0929 12.3517 17.0929H13.0668ZM12.3517 18.2603C11.4811 18.2603 11.1549 18.6797 11.1549 19.7239C11.1549 20.7681 11.4811 21.1789 12.3517 21.1789H13.0668C13.946 21.1789 14.2636 20.7746 14.2636 19.7239C14.2636 18.6732 13.9438 18.2603 13.0668 18.2603H12.3517Z" fill="white"/>
<path d="M18.1455 17.0929V20.4308C18.1455 20.8351 18.34 21.1789 19.0788 21.1789H20.9906V22.3463H19.001C17.5385 22.3463 16.9639 21.5442 16.9639 20.4395V17.0929H18.1455Z" fill="white"/>
<path d="M23.3711 17.0929V20.5325C23.3711 20.9302 23.5655 21.1789 24.0559 21.1789H24.8487C25.3305 21.1789 25.5249 20.9302 25.5249 20.5325V17.0929H26.6763V20.634C26.6763 21.7626 26.0779 22.3463 24.9416 22.3463H23.9155C22.7727 22.3463 22.1743 21.7626 22.1743 20.634V17.0929H23.3711Z" fill="white"/>
<path d="M28.8625 22.3463H27.603L29.0656 18.1199C29.2988 17.4194 29.6726 17 30.4807 17C31.375 17 31.8112 17.5145 31.8112 18.2842V21.0946C31.8112 21.2265 31.8976 21.3043 31.9971 21.3043C32.0901 21.3043 32.1677 21.2416 32.2001 21.1573L33.2651 18.122C33.4897 17.4216 33.8635 17.0022 34.6714 17.0022C35.5744 17.0022 36.0022 17.5167 36.0022 18.2863V22.3485H34.8293V18.3469C34.8293 18.215 34.7514 18.1371 34.6435 18.1371C34.5571 18.1371 34.4792 18.1912 34.4489 18.2842L33.3839 21.3194C33.1593 22.0199 32.7704 22.4393 31.9691 22.4393C31.0833 22.4393 30.6383 21.9248 30.6383 21.1551V18.3469C30.6383 18.215 30.5519 18.1371 30.4525 18.1371C30.3595 18.1371 30.2883 18.1912 30.2494 18.2842L28.8647 22.3463H28.8625Z" fill="white"/>
</g>
<circle cx="20" cy="20" r="19.5" stroke="black" stroke-opacity="0.05"/>
<defs>
<clipPath id="clip0_14382_19488">
<rect width="32" height="5.54667" fill="white" transform="translate(4 17)"/>
</clipPath>
</defs>
</svg>
