<svg width="40" height="40" viewBox="0 0 40 40" fill="none" xmlns="http://www.w3.org/2000/svg">
<circle cx="20" cy="20" r="20" fill="#F6F8FA"/>
<g clip-path="url(#clip0_16604_10956)">
<path d="M27.438 17.3619V19.9533L25.6194 17.3619H25.0575H23.6233H23.5923V22.6878H25.0575V19.4064L27.3621 22.6878H27.438H28.7514H28.8842V17.3619H27.438Z" fill="#54565A"/>
<path d="M6.6117 17.3958H5V22.6878H6.6117V17.3958Z" fill="#54565A"/>
<path d="M14.8028 17.3977H13.0739H11.4863V22.6897H13.0739V18.7123H13.9685C13.9685 18.7123 15.1251 18.6725 15.1251 20.0427C15.1251 21.413 14.0806 21.4309 14.0806 21.4309H13.267V22.6917H14.7701C16.7989 22.6917 16.8196 20.0308 16.8196 20.0308C16.8196 17.6662 14.8011 17.3977 14.8011 17.3977H14.8028Z" fill="#54565A"/>
<path d="M9.26818 17.3958H7.6582V21.3931V22.6878H9.26818H11.1988V21.3931H9.26818V17.3958Z" fill="#54565A"/>
<path d="M18.7341 19.993C18.7341 19.0882 19.3564 18.3543 20.1269 18.3543C20.8974 18.3543 21.5197 19.0882 21.5197 19.993C21.5197 20.8979 20.8957 21.6318 20.1269 21.6318C19.3581 21.6318 18.7341 20.8979 18.7341 19.993ZM17.0017 20.1621C17.0017 23.0656 20.1476 22.996 20.1476 22.996C20.1476 22.996 23.252 23.2188 23.252 20.0348C23.252 16.8509 20.1751 17.004 20.1751 17.004C19.496 17.004 17 17.2605 17 20.1641L17.0017 20.1621Z" fill="#54565A"/>
<path d="M33.3881 19.118H34.9998V18.8615C34.9998 18.8615 34.8791 17 32.2504 17C29.6217 17 29.208 18.8137 29.208 19.9732C29.208 21.1326 29.6838 22.8389 32.1194 22.8389C32.1194 22.8389 33.3174 22.9562 34.7067 22.0792V19.5277H32.0901V20.6513H33.1571V21.3175C33.1571 21.3175 33.1364 21.6139 32.4159 21.6139C31.6954 21.6139 30.9352 21.1883 30.9352 19.9473C30.9352 18.7063 31.5437 18.2509 32.3159 18.2509C32.3159 18.2509 33.3915 18.2628 33.3915 19.116L33.3881 19.118Z" fill="#54565A"/>
<path d="M15 25.8183C15 25.8183 16.5824 23.4 20.4505 23.4C24.3185 23.4 25.7389 25.8183 25.7389 25.8183H15Z" fill="#EA0029"/>
</g>
<circle cx="20" cy="20" r="19.5" stroke="black" stroke-opacity="0.05"/>
<defs>
<clipPath id="clip0_16604_10956">
<rect width="30" height="9" fill="white" transform="translate(5 17)"/>
</clipPath>
</defs>
</svg>
