<svg width="40" height="40" viewBox="0 0 40 40" fill="none" xmlns="http://www.w3.org/2000/svg">
<circle cx="20" cy="20" r="20" fill="#DC1A5A"/>
<path d="M6.20321 16.317L5.17925 16.3195C5.08021 16.3195 5 16.2393 5 16.1402C5 16.1386 5 16.137 5 16.1353L5.02292 15.199C5.02537 15.104 5.10231 15.0271 5.19726 15.0246L6.19584 15.0001C6.29488 14.9976 6.37755 15.0754 6.38001 15.1744C6.38001 15.176 6.38001 15.1769 6.38001 15.1785L6.38164 16.1378C6.38164 16.2368 6.30225 16.3162 6.20321 16.317Z" fill="#EFA52A"/>
<path d="M14.1398 15.1415L14.1379 16.199C14.1378 16.2655 14.1916 16.3194 14.258 16.3195L15.3908 16.3215C15.4573 16.3216 15.5112 16.2679 15.5114 16.2014L15.5132 15.1439C15.5133 15.0774 15.4595 15.0235 15.3931 15.0234L14.2603 15.0214C14.1938 15.0213 14.1399 15.0751 14.1398 15.1415Z" fill="#1399CF"/>
<path d="M21.4569 18.383C21.7958 17.9934 22.0553 17.6504 22.6209 17.5653C22.9155 17.5203 23.2069 17.5284 23.4942 17.5898C24.907 17.891 25.1893 19.5019 25.1525 20.7575C25.11 22.2439 24.6491 23.5666 22.963 23.7401C22.404 23.7974 21.8629 23.7106 21.3399 23.479C20.7383 23.2122 20.3962 22.6155 20.2832 21.9672C20.212 21.5572 20.176 21.1815 20.1752 20.8385C20.1702 18.9142 20.1678 16.9907 20.1686 15.0688C20.1686 15.0361 20.185 15.0197 20.2177 15.0205L21.3481 15.0287C21.3849 15.0287 21.4144 15.0582 21.4144 15.095V18.3666C21.4144 18.3805 21.4258 18.3912 21.4389 18.3912C21.4455 18.3912 21.452 18.3879 21.4569 18.383ZM22.2321 18.3764C21.7 18.6596 21.4971 19.6369 21.4676 20.1747C21.4422 20.6478 21.4496 21.0939 21.4897 21.513C21.5314 21.941 21.6247 22.4886 21.8924 22.8291C22.2812 23.3243 23.071 23.2883 23.3911 22.7276C23.8085 21.9951 23.8462 21.0096 23.8102 20.1305C23.793 19.6959 23.6882 19.2784 23.4975 18.879C23.274 18.4108 22.7248 18.1137 22.2321 18.3764Z" fill="white"/>
<path d="M27.4625 15.0212H26.3034C26.251 15.0212 26.2085 15.0637 26.2085 15.1162V16.2195C26.2085 16.272 26.251 16.3145 26.3034 16.3145H27.4625C27.5149 16.3145 27.5574 16.272 27.5574 16.2195V15.1162C27.5574 15.0637 27.5149 15.0212 27.4625 15.0212Z" fill="white"/>
<path d="M28.8572 15.1336L28.8517 16.1944C28.8513 16.2581 28.9027 16.3101 28.9665 16.3104L30.096 16.3163C30.1597 16.3167 30.2117 16.2653 30.212 16.2015L30.2176 15.1408C30.2179 15.077 30.1665 15.0251 30.1028 15.0247L28.9732 15.0188C28.9095 15.0185 28.8576 15.0699 28.8572 15.1336Z" fill="white"/>
<path d="M17.3544 15.1182L17.3467 16.2216C17.3464 16.2632 17.3799 16.2971 17.4215 16.2974L18.6165 16.3057C18.6581 16.306 18.692 16.2726 18.6923 16.231L18.7 15.1276C18.7003 15.0861 18.6668 15.0521 18.6252 15.0518L17.4302 15.0435C17.3887 15.0432 17.3547 15.0767 17.3544 15.1182Z" fill="#A6AAA8"/>
<path d="M6.31781 18.816C6.31781 18.9257 6.34073 18.9298 6.38411 18.8291C6.49215 18.5795 6.65012 18.3429 6.85802 18.1178C7.29265 17.6472 7.78785 17.4696 8.40746 17.5711C9.06391 17.6791 9.43633 18.1628 9.5591 18.7955C9.57957 18.9011 9.61558 18.906 9.66633 18.8119C9.79811 18.5664 9.9127 18.3093 10.0993 18.0974C10.4865 17.657 11.0185 17.4802 11.6938 17.5661C12.8184 17.7102 12.8626 18.9642 12.8634 19.8244C12.8634 21.0669 12.8651 22.3127 12.8659 23.5609C12.8659 23.5855 12.8462 23.6059 12.8217 23.6059L11.684 23.6035C11.6348 23.6035 11.5956 23.5634 11.5956 23.5151C11.5956 22.1392 11.5988 20.8917 11.6029 19.7737C11.6046 19.3824 11.5677 18.5893 11.0201 18.5344C10.4824 18.4812 10.1877 18.7636 9.988 19.2163C9.7269 19.808 9.59103 20.4498 9.58202 21.1406C9.57138 21.9108 9.57302 22.7113 9.58857 23.5421C9.58857 23.5789 9.55992 23.6084 9.52309 23.6092C9.52309 23.6092 9.52227 23.6092 9.52145 23.6092L8.41155 23.6043C8.35917 23.6043 8.31743 23.5617 8.31743 23.5093C8.31743 23.5093 8.31743 23.5093 8.31743 23.5085C8.33052 22.2259 8.33707 20.9171 8.33707 19.5821C8.33707 19.2605 8.26095 18.6556 7.88362 18.5647C6.48478 18.2291 6.33009 20.4154 6.3219 21.2715C6.31453 22.0434 6.3088 22.7989 6.30471 23.5396C6.30471 23.5765 6.27443 23.6059 6.23841 23.6059L5.18172 23.6117C5.1277 23.6117 5.0835 23.5675 5.0835 23.5134L5.08677 17.7282C5.08677 17.6922 5.11624 17.6627 5.15225 17.6627L6.20322 17.6611C6.26542 17.6611 6.31535 17.711 6.31535 17.7732L6.31781 18.816Z" fill="white"/>
<path d="M18.8596 19.1434C19.1739 20.1862 19.1567 21.2281 18.8089 22.2701C18.5625 23.0084 18.0378 23.4725 17.2349 23.6616C16.5367 23.8261 15.8696 23.7565 15.2336 23.4528C14.5543 23.1287 14.1532 22.266 14.0656 21.5572C13.8765 20.0176 14.0239 18.1178 15.6928 17.6488C16.4745 17.4286 17.6245 17.526 18.258 18.1407C18.5404 18.4157 18.7409 18.7497 18.8596 19.1434ZM17.7096 20.0675C17.6785 19.5166 17.6302 19.0525 17.3388 18.5631C17.1105 18.1808 16.6938 18.0319 16.278 18.1358C15.6568 18.2921 15.4882 19.0951 15.4194 19.6345C15.3089 20.4964 15.3384 21.3223 15.5078 22.1121C15.6069 22.5754 15.8843 23.0747 16.3648 23.1688C17.1268 23.3194 17.5345 22.5181 17.6278 21.9116C17.7186 21.3214 17.7456 20.7067 17.7096 20.0675Z" fill="white"/>
<path d="M34.5798 18.8413C34.1706 18.5343 33.6492 18.2847 33.1515 18.292C32.6064 18.2994 32.1039 18.7651 32.5712 19.2923C32.7112 19.4486 32.8863 19.591 33.0967 19.7179C33.4233 19.9151 33.7286 20.1026 34.0126 20.2818C34.5103 20.5953 34.8909 21.0242 34.976 21.625C35.0439 22.1088 34.9645 22.5507 34.7378 22.9502C34.5045 23.3594 33.8571 23.6304 33.4151 23.7008C32.7497 23.8055 32.0629 23.7351 31.3566 23.4896C31.3009 23.4708 31.2632 23.4184 31.2632 23.3594L31.26 22.4353C31.26 22.383 31.3017 22.3404 31.3541 22.3396C31.3721 22.3396 31.3901 22.3445 31.4057 22.3543C31.6111 22.4844 31.8092 22.599 32.0015 22.6997C32.4313 22.9248 33.2661 23.0672 33.6451 22.658C34.2492 22.0056 33.3996 21.4523 32.9003 21.1642C32.0588 20.6796 31.0791 20.0928 31.278 18.9485C31.5505 17.386 33.4151 17.3581 34.5692 17.7338C34.5954 17.7428 34.6134 17.76 34.6224 17.7862C34.7214 18.0661 34.6789 18.4999 34.6658 18.8003C34.6642 18.8298 34.6388 18.8527 34.6093 18.8519C34.5987 18.8519 34.5889 18.8478 34.5798 18.8413Z" fill="white"/>
<path d="M27.4246 17.6658H26.3474C26.2923 17.6658 26.2476 17.7105 26.2476 17.7656V23.5067C26.2476 23.5618 26.2923 23.6065 26.3474 23.6065H27.4246C27.4797 23.6065 27.5244 23.5618 27.5244 23.5067V17.7656C27.5244 17.7105 27.4797 17.6658 27.4246 17.6658Z" fill="white"/>
<path d="M30.0561 17.6699H29.0363C28.9779 17.6699 28.9307 17.7172 28.9307 17.7755V23.5034C28.9307 23.5618 28.9779 23.609 29.0363 23.609H30.0561C30.1144 23.609 30.1617 23.5618 30.1617 23.5034V17.7755C30.1617 17.7172 30.1144 17.6699 30.0561 17.6699Z" fill="white"/>
<circle cx="20" cy="20" r="19.5" stroke="black" stroke-opacity="0.05"/>
</svg>
