<svg width="40" height="40" viewBox="0 0 40 40" fill="none" xmlns="http://www.w3.org/2000/svg">
<circle cx="20" cy="20" r="20" fill="#004C9F"/>
<path d="M21.5199 16.9035C21.5199 16.4847 21.5242 16.095 21.5176 15.7056C21.5149 15.5457 21.5705 15.4728 21.7366 15.4762C22.6603 15.4952 23.5856 15.484 24.5074 15.5353C25.1038 15.5685 25.6176 15.8383 25.9111 16.3867C26.0199 16.5899 26.0618 16.8463 26.0718 17.0811C26.0914 17.5375 26.0797 17.9965 26.0569 18.4532C26.0348 18.8955 25.7039 19.1198 25.3725 19.3306C25.2757 19.3922 25.1671 19.4352 25.0714 19.4829C25.3063 19.6423 25.571 19.7627 25.7495 19.9609C25.9047 20.1331 26.0362 20.3888 26.0494 20.6152C26.0919 21.3433 26.0518 22.0761 26.0886 22.8048C26.1143 23.3127 26.2139 23.8169 26.2847 24.3546C26.2874 24.3541 26.2172 24.3747 26.1468 24.375C25.6403 24.3779 25.1337 24.3704 24.6274 24.3798C24.4423 24.3833 24.3228 24.3297 24.2984 24.1373C24.2413 23.6874 24.1564 23.2382 24.1402 22.7867C24.1138 22.0474 24.1396 21.3064 24.1263 20.5664C24.1242 20.4477 24.0612 20.3008 23.9757 20.2219C23.9043 20.1562 23.7491 20.1369 23.6498 20.1645C23.5989 20.1787 23.5649 20.3405 23.5644 20.4357C23.5588 21.624 23.5529 22.8124 23.5663 24.0005C23.5695 24.2868 23.4988 24.4017 23.192 24.3834C22.7553 24.3573 22.3142 24.3537 21.8781 24.3845C21.5621 24.4068 21.513 24.2845 21.5142 24.004C21.5243 21.6469 21.5199 19.2898 21.5199 16.9035ZM24.1356 17.8095C24.1355 17.5961 24.1361 17.3827 24.1354 17.1693C24.1339 16.7614 23.9832 16.6381 23.525 16.6985C23.525 17.4088 23.5152 18.1238 23.5303 18.8382C23.5356 19.0881 23.7576 19.0339 23.8796 18.9739C24.027 18.9013 24.1603 18.7828 24.1404 18.5658C24.1192 18.3349 24.1356 18.1006 24.1356 17.8095Z" fill="white"/>
<path d="M7.18104 16.3203C7.18121 16.0868 7.16564 15.8804 7.18987 15.6788C7.1986 15.6062 7.30334 15.4869 7.36357 15.4873C8.23856 15.4935 9.1144 15.4978 9.98793 15.5432C10.4242 15.5658 10.7964 15.7896 11.1112 16.0964C11.3396 16.3189 11.4479 16.5922 11.4503 16.9068C11.4543 17.4228 11.4492 17.9389 11.4536 18.4549C11.4581 18.9892 11.1179 19.2674 10.6984 19.4896C10.642 19.5194 10.5835 19.545 10.5084 19.5811C10.7274 19.7136 10.9244 19.8267 11.115 19.9497C11.41 20.1401 11.5224 20.4347 11.5277 20.7664C11.5384 21.4283 11.5485 22.091 11.5285 22.7525C11.4989 23.7345 10.762 24.2892 9.98265 24.3524C9.07403 24.4262 8.15483 24.3697 7.18103 24.3697C7.18103 21.6916 7.18103 19.0205 7.18104 16.3203ZM9.55853 22.9961C9.57408 22.9404 9.60294 22.8847 9.60319 22.8289C9.60686 22.0407 9.61495 21.2523 9.60329 20.4643C9.5986 20.1474 9.43108 20.0558 9.0375 20.1263C9.0375 21.0351 9.03424 21.9482 9.04177 22.8612C9.04268 22.9711 9.10203 23.0806 9.13429 23.1902C9.26812 23.1395 9.40194 23.0888 9.55853 22.9961ZM9.60913 18.4954C9.60905 18.0495 9.61239 17.6036 9.60789 17.1578C9.60381 16.7535 9.485 16.6529 9.03685 16.6902C9.03685 17.4306 9.0331 18.1744 9.04518 18.9179C9.046 18.9682 9.16858 19.0616 9.23031 19.0582C9.54643 19.0407 9.60377 18.8097 9.60913 18.4954Z" fill="white"/>
<path d="M16.1225 16.1265C16.1075 16.0716 16.0925 16.0168 16.0616 15.9037C16.2637 15.942 16.4338 15.9742 16.6827 16.0214C16.5349 15.8848 16.4355 15.793 16.3361 15.7011C16.3437 15.6733 16.3514 15.6455 16.359 15.6177C16.5679 15.6826 16.7831 15.7322 16.9845 15.8153C17.661 16.0944 18.2083 16.5608 18.7031 17.082C19.6078 18.035 20.2144 19.1516 20.447 20.4553C20.5573 21.0742 20.365 21.6244 20.0276 22.1314C19.5655 22.8257 19.0058 23.4108 18.2201 23.7501C17.9652 23.8602 17.7343 24.0247 17.4866 24.1531C16.4718 24.6794 15.4573 24.6329 14.4655 24.1038C14.1132 23.9158 13.7344 23.7144 13.4776 23.4225C12.7028 22.5412 12.3861 21.5263 12.6913 20.3384C12.969 19.2577 13.4742 18.3384 14.3435 17.6309C14.7851 17.2715 15.2731 17.0038 15.8405 16.899C15.9066 16.8867 15.9709 16.8615 16.0337 16.8364C16.0669 16.8231 16.0951 16.7973 16.1568 16.7565C16.0394 16.6447 15.9374 16.5475 15.8019 16.4184C15.8844 16.3335 15.9689 16.2467 16.0809 16.1678C16.1221 16.1723 16.1358 16.1688 16.1495 16.1654C16.1405 16.1524 16.1315 16.1395 16.1225 16.1265ZM17.6854 22.2584C17.7572 22.2092 17.8306 22.1622 17.9006 22.1105C18.4522 21.7029 18.7854 21.1993 18.6258 20.4746C18.4423 19.6416 18.05 18.9018 17.5939 18.1939C17.55 18.1258 17.3729 18.0864 17.2832 18.1148C16.9358 18.2245 16.583 18.3369 16.2618 18.5048C15.8203 18.7356 15.3496 18.9573 14.9911 19.2902C14.2341 19.9932 14.0778 20.9116 14.3341 21.8843C14.5589 22.7377 15.1234 23.1379 15.9528 22.9333C16.5369 22.7892 17.0867 22.5061 17.6854 22.2584Z" fill="#F9E14F"/>
<path d="M31.1847 24.377C30.8783 24.4226 30.7891 24.2982 30.7672 24.0234C30.7225 23.4619 30.6327 22.9041 30.5686 22.344C30.5393 22.0885 30.4293 21.9521 30.1533 22.003C30.0968 22.0134 30.0353 22.0128 29.9786 22.0031C29.6698 21.9504 29.5866 22.0921 29.5588 22.3872C29.5014 22.9953 29.399 23.5996 29.2982 24.2026C29.287 24.27 29.1678 24.3672 29.0964 24.3691C28.5711 24.3835 28.0453 24.3747 27.5197 24.3787C27.3555 24.38 27.3002 24.3356 27.3313 24.1534C27.5352 22.9579 27.7181 21.7588 27.9238 20.5636C28.1537 19.2278 28.4028 17.8953 28.6381 16.5604C28.687 16.2831 28.7173 16.0022 28.7467 15.7219C28.7654 15.5436 28.8455 15.4732 29.0302 15.4754C29.7115 15.4836 30.3931 15.4847 31.0743 15.4747C31.2595 15.472 31.3369 15.5423 31.3651 15.7153C31.4727 16.376 31.5831 17.0362 31.6988 17.6955C31.8392 18.4949 31.9923 19.2921 32.1283 20.0922C32.2601 20.8673 32.3739 21.6453 32.5019 22.421C32.5821 22.9074 32.6764 23.3914 32.7589 23.8774C32.7845 24.0278 32.7922 24.1812 32.8126 24.377C32.2567 24.377 31.7344 24.377 31.1847 24.377ZM29.8007 20.6882C29.9445 20.7098 30.0904 20.752 30.2305 20.7375C30.2634 20.7342 30.3042 20.5373 30.2947 20.4337C30.2343 19.7763 30.1609 19.1201 30.0918 18.4634C30.0731 18.4618 30.0545 18.4602 30.0358 18.4585C29.9555 19.1868 29.8751 19.915 29.8007 20.6882Z" fill="white"/>
<circle cx="20" cy="20" r="19.5" stroke="black" stroke-opacity="0.05"/>
</svg>
