<svg width="40" height="40" viewBox="0 0 40 40" fill="none" xmlns="http://www.w3.org/2000/svg">
<circle cx="20" cy="20" r="20" fill="#1C208C"/>
<g clip-path="url(#clip0_14382_21727)">
<path d="M19.8389 8.96387C21.1499 8.96875 22.4151 9.19163 23.6584 9.63799C25.1434 10.1717 26.4208 10.9997 27.5505 12.0805C27.6237 12.1507 27.6866 12.2313 27.7593 12.3027C27.9987 12.5384 27.9974 12.7589 27.821 13.0593C26.7133 14.9424 25.1635 16.3902 23.3628 17.5754C21.821 18.5903 20.1412 19.323 18.3783 19.8805C16.693 20.4136 14.9699 20.7354 13.2192 20.9357C12.8968 20.9729 12.5744 21.015 12.2508 21.0401C12.0084 21.059 11.9156 21.1842 11.9766 21.4052C12.216 22.2717 12.5433 23.104 13.0043 23.8764C13.2992 24.3704 13.276 24.4247 12.8925 24.8363C12.4999 25.2576 12.1458 25.7193 11.8093 26.1876C11.5486 26.5497 11.3709 26.5986 11.0802 26.2725C10.4757 25.5941 10.0861 24.7917 9.7735 23.9479C9.35889 22.8268 9.06701 21.6733 9.01328 20.4765C8.94306 18.928 9.14761 17.4191 9.7161 15.9603C10.2528 14.5852 11.0234 13.3561 12.034 12.3009C13.1044 11.1835 14.3751 10.3298 15.826 9.74912C17.118 9.23193 18.4504 8.96387 19.8389 8.96387ZM13.2888 17.6121C13.2894 17.6224 13.2901 17.6328 13.2913 17.6432C13.7572 17.6054 14.2237 17.5779 14.6878 17.5284C15.8956 17.3996 17.0918 17.1828 18.2062 16.6949C19.1239 16.2931 20.013 15.8187 20.8849 15.3247C21.8912 14.7544 22.7119 13.9429 23.5265 13.1332C23.7603 12.9011 23.7243 12.746 23.4208 12.608C22.6502 12.2582 21.8552 11.9895 21.0089 11.8838C18.4205 11.5596 16.1771 12.3302 14.2866 14.0839C13.3621 14.9418 12.7069 16.0141 12.2831 17.2139C12.1964 17.4588 12.266 17.5919 12.5256 17.6084C12.779 17.6243 13.0342 17.6121 13.2882 17.6121H13.2888Z" fill="white"/>
<path d="M20.2231 31.0359C19.2358 31.0341 18.2643 30.9162 17.319 30.6659C16.1857 30.3655 15.0933 29.938 14.142 29.2358C13.4911 28.7552 12.8688 28.2319 12.2582 27.6995C11.9499 27.4308 11.9578 27.2464 12.1721 26.8916C12.9458 25.6087 13.9332 24.5163 15.0744 23.5461C16.2389 22.5562 17.5334 21.7801 18.9042 21.1329C20.592 20.336 22.3634 19.7663 24.2007 19.4329C25.3493 19.2247 26.5107 19.0885 27.6666 18.9231C28.0067 18.8742 28.1062 18.779 27.9786 18.462C27.6379 17.6151 27.2746 16.7767 26.8881 15.95C26.7268 15.6043 26.7183 15.5537 26.9741 15.2612C27.4156 14.758 27.8412 14.2402 28.2546 13.7139C28.5007 13.4006 28.6289 13.3774 28.8952 13.6839C29.6651 14.5706 30.0969 15.6312 30.4541 16.7291C30.8125 17.8313 30.9578 18.9713 30.9969 20.1205C31.0164 20.6951 30.9401 21.2794 30.8528 21.851C30.6281 23.3275 30.0944 24.6965 29.2908 25.9525C28.2919 27.5145 26.9729 28.7418 25.3536 29.6486C24.2685 30.2568 23.1083 30.65 21.8877 30.8576C21.3387 30.951 20.7788 30.9785 20.2238 31.0353L20.2231 31.0359ZM20.2866 28.1526C21.7863 28.0604 22.0251 28.0133 23.664 27.3099C24.5243 26.9405 25.2498 26.3549 25.8995 25.6936C26.6994 24.879 27.2685 23.9075 27.6727 22.839C27.7875 22.5361 27.7093 22.367 27.3875 22.3724C26.5644 22.3859 25.7334 22.3627 24.9206 22.4683C23.2256 22.6887 21.6105 23.2047 20.1029 24.0223C18.7345 24.7642 17.5254 25.7186 16.4544 26.8471C16.2566 27.0559 16.2865 27.2305 16.5399 27.3527C17.7349 27.9279 18.9946 28.1971 20.2866 28.1532V28.1526Z" fill="white"/>
</g>
<circle cx="20" cy="20" r="19.5" stroke="black" stroke-opacity="0.05"/>
<defs>
<clipPath id="clip0_14382_21727">
<rect width="22" height="22.0721" fill="white" transform="translate(9 8.96387)"/>
</clipPath>
</defs>
</svg>
