<svg width="40" height="40" viewBox="0 0 40 40" fill="none" xmlns="http://www.w3.org/2000/svg">
<circle cx="20" cy="20" r="20" fill="#1E1E23"/>
<g clip-path="url(#clip0_24563_41691)">
<path d="M19.705 21.3451L17.9121 24.6149C17.9121 24.6149 17.8953 24.6348 17.8869 24.6467C17.8449 24.6784 17.8281 24.7181 17.8365 24.7657C17.8449 24.8015 17.8197 24.8332 17.7819 24.8411C17.7819 24.8411 17.7735 24.8411 17.7693 24.8411H14.9476C14.9224 24.8411 14.9014 24.8213 14.9014 24.7975V24.7895L16.4214 17.8888C16.4298 17.853 16.4634 17.8292 16.5012 17.8292H18.6469C18.6847 17.8292 18.6973 17.8451 18.6889 17.8808C18.3152 19.2657 17.9414 20.6665 17.5593 22.0872C17.5299 22.1943 17.4964 22.3015 17.4544 22.4046C17.4334 22.4602 17.446 22.4681 17.4922 22.4284C17.5048 22.4165 17.5173 22.4046 17.5257 22.3888C17.6517 22.1864 17.7147 21.9602 17.8239 21.7538C18.143 21.1388 18.4117 20.5237 18.7309 19.9324C19.092 19.2618 19.4531 18.5753 19.8184 17.8769C19.831 17.8491 19.8604 17.8332 19.894 17.8332H22.2034C22.237 17.8332 22.2496 17.8491 22.2412 17.8808L20.9899 22.5951C20.9563 22.7261 20.9647 22.734 21.0277 22.607C21.6702 21.2657 22.4134 19.8094 23.249 18.238C23.4044 17.9443 23.5807 17.7102 23.7697 17.5395C25.1343 16.2935 26.9651 15.8411 28.8967 16.0475C29.0058 16.0594 29.136 16.0872 29.2914 16.1388C29.3124 16.1467 29.3292 16.1626 29.3334 16.1824C29.3376 16.1983 29.3334 16.2062 29.325 16.2142C29.3166 16.2221 29.3082 16.2221 29.2956 16.2261C28.8841 16.2618 28.4558 16.3451 28.0107 16.4761C27.1877 16.7142 26.4906 17.107 25.9238 17.6626C25.7516 17.8332 25.5878 18.0554 25.4409 18.3292C24.2862 20.488 23.1398 22.7935 22.0733 24.7975C22.0565 24.8292 22.0271 24.8451 21.9893 24.8451H19.1928C19.1592 24.8451 19.1424 24.8292 19.1466 24.7975C19.2893 23.7062 19.4909 22.5634 19.7554 21.3689C19.7848 21.2261 19.768 21.2221 19.6966 21.3491L19.705 21.3451Z" fill="white"/>
<path d="M7.14551 22.4129C6.98594 22.2779 6.85158 22.1272 6.67102 22.0121C5.99078 21.5716 5.56668 21.274 5.39032 21.1192C5.31054 21.0478 5.24755 20.9248 5.19717 20.7422C5.0418 20.1589 5.33993 19.4287 5.69685 18.8811C6.00758 18.401 6.46947 18.0716 7.07832 17.893C7.82575 17.6748 8.58157 17.6192 9.33319 17.7343C9.6943 17.7899 10.0092 17.8851 10.278 18.02C10.6139 18.1906 10.7483 18.4843 10.6727 18.893C10.6097 19.2303 10.5047 19.5637 10.3619 19.9049C10.3493 19.9327 10.3284 19.9486 10.2948 19.9486H8.25404C8.22045 19.9486 8.19106 19.9208 8.19106 19.8891C8.19106 19.8811 8.19106 19.8772 8.19106 19.8692L8.4556 19.1232C8.46819 19.0914 8.46399 19.0597 8.443 19.0319C8.27084 18.77 7.93492 18.9089 7.76696 19.0795C7.53182 19.3216 7.36805 19.8414 7.63259 20.0994C7.74596 20.2105 7.88033 20.3057 8.04409 20.3891C8.46819 20.6073 8.8713 20.8851 9.25341 21.2264C9.52634 21.4684 9.64392 21.77 9.59773 22.1311C9.52214 22.766 9.2954 23.3573 8.92589 23.9049C8.30023 24.8216 6.7466 25.0438 5.69265 24.9922C5.02921 24.9605 3.8073 24.6629 3.96686 23.7978C3.99625 23.6311 3.98365 23.4843 4.03404 23.3176C4.12222 23.0279 4.2188 22.7264 4.32377 22.4168C4.34057 22.3692 4.38676 22.3375 4.43715 22.3375H6.49886C6.54085 22.3375 6.55345 22.3573 6.53665 22.393C6.39388 22.7184 6.26791 23.0518 6.15874 23.3891C6.12515 23.4922 6.12095 23.6033 6.13774 23.7145C6.13774 23.7383 6.15454 23.7541 6.17973 23.7621C6.89357 24.0002 7.1581 23.1906 7.22949 22.6827C7.24628 22.5716 7.21269 22.4803 7.13291 22.4129H7.14551Z" fill="white"/>
<path d="M27.5865 20.3571L28.5229 20.3491C28.5229 20.3491 28.5439 20.3412 28.5481 20.3293L29.4719 17.861C29.4719 17.861 29.4845 17.8412 29.4971 17.8412L31.7897 17.8174C31.7897 17.8174 31.8191 17.8293 31.8191 17.8452V17.8531L29.2367 24.8174C29.2367 24.8174 29.2241 24.8372 29.2115 24.8372H26.9231C26.9231 24.8372 26.8937 24.8253 26.8937 24.8134C26.8937 24.8134 26.8937 24.8094 26.8937 24.8055L27.9518 21.9483C27.9518 21.9483 27.9518 21.9206 27.935 21.9126C27.935 21.9126 27.9308 21.9126 27.9266 21.9126L26.9819 21.9047C26.9819 21.9047 26.9609 21.9126 26.9567 21.9245L25.8901 24.8214C25.8901 24.8214 25.8775 24.8412 25.8649 24.8412H23.5807C23.5807 24.8412 23.5513 24.8293 23.5513 24.8134C23.5513 24.8134 23.5513 24.8094 23.5513 24.8055L26.1211 17.8491C26.1211 17.8491 26.1337 17.8293 26.1463 17.8293L28.4347 17.8214C28.4347 17.8214 28.4641 17.8333 28.4641 17.8491C28.4641 17.8491 28.4641 17.8531 28.4641 17.8571L27.5571 20.3174C27.5571 20.3174 27.5571 20.3452 27.5739 20.3531H27.5823L27.5865 20.3571Z" fill="white"/>
<path d="M13.4818 20.5835H14.8549C14.8549 20.5835 14.8843 20.5954 14.8843 20.6113V20.6192L14.4182 21.893C14.4182 21.893 14.4014 21.9129 14.3888 21.9129H12.9738C12.9738 21.9129 12.9486 21.9208 12.9444 21.9327L12.3985 23.4089C12.3985 23.4089 12.3985 23.4406 12.4153 23.4446H12.4237H14.0529C14.0529 23.4446 14.0823 23.4605 14.0823 23.4764C14.0823 23.4764 14.0823 23.4803 14.0823 23.4843L13.5826 24.8256C13.5826 24.8256 13.5658 24.8454 13.5532 24.8454H9.55576C9.55576 24.8454 9.52637 24.8335 9.52637 24.8176V24.8097L12.0962 17.8533C12.0962 17.8533 12.113 17.8335 12.1256 17.8335H15.9802C15.9802 17.8335 16.0096 17.8454 16.0096 17.8573V17.8652L15.5142 19.2065C15.5142 19.2065 15.4974 19.2264 15.4848 19.2264H13.9479C13.9479 19.2264 13.9227 19.2383 13.9185 19.2462L13.4398 20.5438C13.4398 20.5438 13.4398 20.5756 13.4566 20.5795H13.465L13.4818 20.5835Z" fill="white"/>
<path d="M33.6122 23.5796H32.89C32.848 23.5796 32.8228 23.5955 32.8018 23.6312L32.5415 24.1272C32.5289 24.151 32.5247 24.1748 32.5289 24.2026C32.5289 24.2304 32.5205 24.2502 32.4995 24.2661C32.4701 24.2859 32.4533 24.3097 32.4449 24.3375C32.3987 24.5082 32.3231 24.6629 32.2181 24.8058C32.2013 24.8296 32.1761 24.8415 32.1468 24.8415H29.9087C29.8793 24.8415 29.8625 24.8296 29.8541 24.8018C29.8373 24.7383 29.8541 24.6867 29.8961 24.6471C29.9171 24.6312 29.9339 24.6034 29.9507 24.5717L33.566 17.8693C33.5786 17.8455 33.6038 17.8296 33.6332 17.8296H36.9168C36.9462 17.8296 36.963 17.8455 36.9546 17.8732L35.7117 24.7939C35.7075 24.8256 35.6865 24.8415 35.6529 24.8415H33.3897C33.3393 24.8415 33.3225 24.8177 33.3351 24.774L33.6416 23.6232C33.65 23.5915 33.6416 23.5756 33.6038 23.5756L33.6122 23.5796ZM33.3435 22.2145L33.2889 22.2542C33.2889 22.2542 33.2637 22.2978 33.2805 22.3177C33.2889 22.3296 33.3015 22.3336 33.3183 22.3336H33.9397C34.0027 22.3415 34.0447 22.3097 34.0615 22.2463L34.7375 19.6113C34.7585 19.524 34.7501 19.5201 34.7081 19.5994C34.2966 20.3653 33.8725 21.1669 33.4358 22.0082C33.4191 22.0439 33.4065 22.0836 33.3981 22.1272C33.3939 22.1629 33.3729 22.1907 33.3435 22.2145Z" fill="white"/>
</g>
<circle cx="20" cy="20" r="19.5" stroke="black" stroke-opacity="0.05"/>
<defs>
<clipPath id="clip0_24563_41691">
<rect width="33" height="9" fill="white" transform="translate(3.96289 16)"/>
</clipPath>
</defs>
</svg>
