<svg width="40" height="40" viewBox="0 0 40 40" fill="none" xmlns="http://www.w3.org/2000/svg">
<circle cx="20" cy="20" r="20" fill="#CF0027"/>
<g clip-path="url(#clip0_20940_31880)">
<path d="M7.49596 20.9892C7.49596 20.9892 7.51033 20.9605 7.51033 20.9413C7.50554 19.7201 7.50554 18.4606 7.51033 17.158C7.51033 17.1437 7.52469 17.1293 7.53906 17.1293H8.76025C8.7842 17.1293 8.79856 17.1437 8.79856 17.1676C8.79856 19.0018 8.79856 20.7881 8.79856 22.5217C8.79856 22.9527 8.61179 23.2784 8.15684 23.3119C7.74499 23.3406 7.4337 23.1682 7.22778 22.7899C7.08411 22.5265 6.95959 22.287 6.85424 22.0667C6.34181 21.0036 5.84855 19.974 5.36486 18.9731C5.32176 18.8821 5.29781 18.8869 5.29781 18.9874V23.1826C5.29781 23.1826 5.27866 23.2209 5.2595 23.2209H4.03352C4.03352 23.2209 4.00479 23.2065 4.00479 23.1922C4 21.5352 4 19.7728 4 17.9147C4 17.6321 4.09578 17.3975 4.28734 17.2203C4.44059 17.0862 4.65609 17.0192 4.94343 17.0287C5.51811 17.0431 5.81981 17.5172 6.04011 17.9817C6.51901 18.9874 6.9979 19.9883 7.4768 20.9892C7.4768 20.9892 7.48638 20.994 7.49117 20.9892H7.49596Z" fill="white"/>
<path d="M16.9732 23.3358C15.2539 23.3358 13.8604 21.9183 13.8604 20.1703C13.8651 18.4175 15.2539 17 16.9732 17C18.6924 17 20.086 18.4175 20.086 20.1655C20.086 21.9135 18.6924 23.331 16.9732 23.331V23.3358ZM18.5727 21.0658C18.9702 20.223 18.793 19.179 18.0124 18.6043C17.5958 18.2978 16.978 18.226 16.4751 18.3553C15.2204 18.6809 14.8325 20.2182 15.4742 21.2478C16.1878 22.402 18.0028 22.2823 18.5775 21.0658H18.5727Z" fill="white"/>
<path d="M30.9902 18.6091C30.9759 18.5517 30.9663 18.5517 30.9615 18.6091L30.5066 23.1682C30.5066 23.197 30.4778 23.2209 30.4491 23.2209H29.1896C29.1896 23.2209 29.1465 23.2018 29.1465 23.1778C29.1465 23.1778 29.1465 23.1778 29.1465 23.173C29.3476 21.5256 29.5488 19.8686 29.7547 18.2069C29.7834 17.9578 29.8648 17.7184 29.9846 17.4885C30.2049 17.0719 30.5688 17 30.995 17.0336C31.4931 17.0671 31.8187 17.3927 31.9337 17.8956C32.154 18.8486 32.3599 19.7681 32.5515 20.6492C32.5754 20.7498 32.5946 20.7498 32.6185 20.6492C32.8101 19.7729 33.0064 18.8821 33.2075 17.977C33.3608 17.273 33.7248 16.9952 34.4431 17.024C35.1279 17.0527 35.3482 17.7423 35.4153 18.3026C35.602 19.8543 35.7888 21.3772 35.9708 22.8665C35.9852 22.9671 35.9947 23.0677 35.9995 23.1778C35.9995 23.197 35.9852 23.2161 35.9612 23.2209H34.649C34.649 23.2209 34.6203 23.2114 34.6203 23.1922C34.491 21.7555 34.3569 20.2949 34.2228 18.8103C34.218 18.7432 34.2037 18.6714 34.1893 18.6043C34.1797 18.5708 34.1701 18.5708 34.1606 18.6043C34.1318 18.6858 34.1318 18.7767 34.1127 18.8677C33.7918 20.1608 33.4518 21.516 33.0926 22.9336C33.0064 23.2784 32.6808 23.2928 32.379 23.2592C32.0821 23.2305 32.0151 23.0485 31.9576 22.7947C31.6368 21.382 31.3207 19.9884 30.9998 18.6091H30.9902Z" fill="white"/>
<path d="M10.9343 20.7401C10.872 20.7401 10.8529 20.7688 10.8673 20.8263C11.0923 21.5542 11.5808 21.9373 12.3375 21.9756C12.5961 21.99 12.8643 21.99 13.142 21.9756C13.1612 21.9756 13.1756 21.99 13.1756 22.0043V23.1824C13.1756 23.1824 13.1612 23.2208 13.1372 23.2208C12.7302 23.2303 12.3662 23.2208 12.031 23.1872C10.9295 23.0675 10.0723 22.3731 9.70354 21.3435C9.56945 20.9604 9.50719 20.5198 9.52156 20.0265C9.55987 18.609 10.4075 17.4213 11.8442 17.1771C12.2465 17.11 12.7062 17.1244 13.1372 17.1292C13.1564 17.1292 13.1708 17.1435 13.1708 17.1627V18.3408C13.1708 18.3408 13.1564 18.3695 13.142 18.3695C12.8068 18.3599 12.4907 18.3599 12.1938 18.3743C11.5521 18.403 11.0014 18.9059 10.8673 19.5284C10.8577 19.5668 10.872 19.5859 10.9104 19.5859H13.142C13.142 19.5859 13.1708 19.5955 13.1708 19.6099V20.7065C13.1708 20.7257 13.1564 20.7401 13.1372 20.7401H10.9295H10.9343Z" fill="white"/>
<path d="M22.9594 21.7554C23.0312 21.6021 23.0121 21.4633 22.9019 21.334C22.7822 21.1951 22.6481 21.0706 22.4949 20.9652C22.1692 20.7353 21.8436 20.5055 21.5227 20.266C20.9528 19.8398 20.5362 19.2555 20.6176 18.518C20.6894 17.8907 21.0247 17.4118 21.5993 17.2011C21.7574 17.1436 21.992 17.1149 22.2985 17.1197C22.8828 17.1244 23.4862 17.1292 24.1183 17.1197C24.1375 17.1197 24.1519 17.134 24.1519 17.1532V18.2451C24.1519 18.2451 24.1423 18.2594 24.1375 18.2594C23.5532 18.2594 22.9881 18.2594 22.4422 18.2594C22.2028 18.2594 22.0208 18.3552 21.9872 18.6042C21.9681 18.7335 22.0112 18.8533 22.1166 18.9538C22.2746 19.1071 22.4518 19.2555 22.6529 19.3896C22.9881 19.6195 23.3042 19.8494 23.5963 20.084C23.9699 20.381 24.3482 20.8215 24.3722 21.2909C24.4105 22.0715 24.104 22.8185 23.3425 23.0963C23.0839 23.1921 22.7726 23.2112 22.4901 23.2112C21.8819 23.2112 21.2641 23.2112 20.6463 23.2112C20.6272 23.2112 20.6128 23.1969 20.6128 23.1729V21.9948C20.6128 21.9948 20.6224 21.9709 20.6368 21.9709C21.1971 21.9709 21.7622 21.9709 22.3368 21.9709C22.629 21.9709 22.8445 21.9948 22.9642 21.7458L22.9594 21.7554Z" fill="white"/>
<path d="M26.3024 19.5861H28.5292C28.5292 19.5861 28.5484 19.5908 28.5484 19.6052V20.7163C28.5484 20.7163 28.534 20.745 28.5197 20.745H26.2976C26.2401 20.745 26.2209 20.7689 26.2353 20.8264C26.4604 21.5687 26.9584 21.9518 27.7343 21.9805C27.9785 21.9901 28.2371 21.9901 28.5053 21.9805C28.5244 21.9805 28.5436 21.9949 28.5436 22.0141V23.1969C28.5436 23.1969 28.534 23.2209 28.5197 23.2209C28.1509 23.2353 27.7965 23.2257 27.4661 23.1922C26.0964 23.0581 25.1291 22.1003 24.9279 20.7546C24.6789 19.1024 25.4643 17.4885 27.2027 17.1772C27.6289 17.1006 28.0791 17.1341 28.5053 17.1245C28.534 17.1245 28.5436 17.1389 28.5436 17.1628V18.3313C28.5436 18.3313 28.534 18.3601 28.5149 18.3601C28.3089 18.3601 28.0934 18.3601 27.8636 18.3601C27.6145 18.3553 27.4038 18.3792 27.2362 18.4319C26.7334 18.5899 26.3981 18.9491 26.2353 19.5046C26.2209 19.5573 26.2353 19.5861 26.2976 19.5861H26.3024Z" fill="white"/>
</g>
<circle cx="20" cy="20" r="19.5" stroke="black" stroke-opacity="0.05"/>
<defs>
<clipPath id="clip0_20940_31880">
<rect width="32" height="6.33583" fill="white" transform="translate(4 17)"/>
</clipPath>
</defs>
</svg>
