<svg width="40" height="40" viewBox="0 0 40 40" fill="none" xmlns="http://www.w3.org/2000/svg">
<ellipse cx="20" cy="19.869" rx="20" ry="19.869" fill="#E60044"/>
<path d="M12.5115 16.5291C12.5014 16.6223 12.4567 16.7085 12.3861 16.7706C12.2676 16.8745 12.2101 16.8485 12.2136 16.6927C12.231 15.1798 12.231 13.6055 12.2136 11.9697C12.1863 11.5003 12.314 11.0348 12.5772 10.644C12.8404 10.2531 13.2248 9.95832 13.672 9.80424C17.1132 8.50599 20.5109 7.23025 23.865 5.97701C23.9853 5.93373 24.0454 5.97528 24.0454 6.10164C24.0454 7.47259 24.0454 8.83661 24.0454 10.1937C24.0454 11.1579 23.5714 11.8148 22.6236 12.1644C19.7556 13.2255 16.6515 14.3922 13.3113 15.6645C13.1132 15.7259 12.9349 15.8382 12.7944 15.99C12.654 16.1419 12.5564 16.3278 12.5115 16.5291Z" fill="white"/>
<path d="M22.3168 21.3551L13.3103 19.3013C13.0189 19.2347 12.7567 19.0767 12.5627 18.8507C12.3686 18.6246 12.2529 18.3426 12.2327 18.0462C12.2125 17.7497 12.2888 17.4547 12.4504 17.2048C12.612 16.9548 12.8502 16.7631 13.1299 16.658L17.8945 14.8665C18.1515 14.7695 18.4317 14.7505 18.6995 14.8119L27.7583 16.8891C28.0504 16.9556 28.3132 17.114 28.5075 17.3406C28.7019 17.5673 28.8175 17.8502 28.8372 18.1473C28.8568 18.4444 28.7795 18.7399 28.6167 18.9899C28.4539 19.2399 28.2143 19.431 27.9334 19.535L23.1165 21.3162C22.8593 21.4054 22.5816 21.4189 22.3168 21.3551Z" fill="white"/>
<path d="M13.6107 25.8741L27.0447 20.7928C27.6693 20.5539 28.2652 20.3851 28.5214 19.7308C28.7592 19.1258 28.8716 19.1466 28.8533 19.7983C28.8167 21.2022 28.8106 22.7055 28.835 24.3084C28.8533 25.5392 28.2025 26.0325 27.1179 26.4427C22.0875 28.3468 17.1548 30.2128 12.3196 32.0408C12.3016 32.0476 12.2816 32.047 12.264 32.0392C12.2464 32.0314 12.2325 32.0171 12.2255 31.9992C12.2243 31.9906 12.2243 31.9819 12.2255 31.9733C12.2255 30.45 12.2307 29.0652 12.2412 27.8189C12.2209 27.3899 12.3444 26.9664 12.5922 26.6145C12.8399 26.2626 13.1982 26.0022 13.6107 25.8741Z" fill="white"/>
<path d="M20 0.761963C30.7727 0.761963 39.5 9.43698 39.5 20.1311C39.4999 30.8252 30.7726 39.5002 20 39.5002C9.22738 39.5002 0.500061 30.8252 0.5 20.1311C0.5 9.43698 9.22734 0.761963 20 0.761963Z" stroke="black" stroke-opacity="0.05"/>
</svg>
