<svg width="40" height="40" viewBox="0 0 40 40" fill="none" xmlns="http://www.w3.org/2000/svg">
<circle cx="20" cy="20" r="20" fill="#21BC79"/>
<path d="M12.055 20.232C12.4252 19.8438 12.7451 19.4106 13.0072 18.9426C13.3474 18.3337 13.5847 17.6728 13.7095 16.9866H9.41858C9.1399 17.9677 8.99902 18.9829 9.00001 20.0029C8.99988 20.6628 9.05863 21.3214 9.17557 21.9708C10.274 21.66 11.2685 21.0594 12.055 20.232Z" fill="white"/>
<path d="M20.7441 24.7085V30.9752C22.8074 30.8388 24.7898 30.1203 26.4614 28.9032C24.2605 27.9596 22.3048 26.5247 20.7441 24.7085Z" fill="white"/>
<path d="M18.3981 23.6929C18.535 23.5322 18.6673 23.3692 18.7949 23.2039C17.9592 22.8901 17.183 22.4363 16.4997 21.8619C15.662 21.1603 14.9794 20.2922 14.4951 19.3127C14.3376 19.6308 14.159 19.938 13.9604 20.2322C13.6803 20.647 13.3611 21.0339 13.0072 21.3878C12.0456 22.3532 10.8491 23.0516 9.53564 23.4142C10.0877 25.1043 11.0405 26.6357 12.3129 27.8777C14.6755 27.045 16.7752 25.6011 18.3981 23.6929Z" fill="white"/>
<path d="M30.5843 16.9846H26.3896C26.5142 17.6715 26.7515 18.3331 27.0919 18.9426C27.354 19.4106 27.674 19.8438 28.0441 20.232C28.8077 21.0354 29.7677 21.6256 30.8293 21.944C30.9431 21.3033 31.0002 20.6537 30.9999 20.0029C31.0021 18.9824 30.8622 17.9666 30.5843 16.9846Z" fill="white"/>
<path d="M13.623 28.9606C15.2774 30.1411 17.228 30.8374 19.256 30.9712V24.9663C17.6984 26.6997 15.7741 28.0642 13.623 28.9606Z" fill="white"/>
<path d="M26.1396 20.2322C25.9417 19.9388 25.7641 19.6322 25.6079 19.3147C25.1229 20.2937 24.4404 21.1617 23.6033 21.8638C22.9458 22.4149 22.2027 22.8548 21.4033 23.1662C21.5415 23.3447 21.6837 23.5196 21.8298 23.6909C23.4129 25.552 25.4499 26.9727 27.7434 27.8151C28.992 26.5782 29.9263 25.0603 30.4682 23.3884C29.1931 23.0171 28.0328 22.3288 27.0957 21.3877C26.7408 21.034 26.4206 20.6471 26.1396 20.2322Z" fill="white"/>
<path d="M16.9954 13.7522H10.9449C10.5636 14.3024 10.2336 14.8864 9.95898 15.4969H19.2539V13.7522H16.9954Z" fill="white"/>
<path d="M17.1624 16.9846H15.2778C15.4538 17.9399 15.8453 18.8425 16.4227 19.6237C17 20.4049 17.748 21.0441 18.6096 21.4927C18.8206 21.6042 19.0379 21.7035 19.2602 21.7903V16.9896H17.1624V16.9846Z" fill="white"/>
<path d="M17.0582 9.39886C15.8337 9.73829 14.6774 10.288 13.6412 11.0236C13.2366 11.3111 12.8519 11.6256 12.4896 11.9649C12.3845 12.0641 12.2813 12.1632 12.1812 12.2624H19.2563V9.90174L19.2394 9.90869C19.2394 9.89281 19.2503 9.87695 19.2563 9.86008V9.02393C18.8051 9.05432 18.3563 9.11229 17.9123 9.19751C17.6236 9.25503 17.338 9.32149 17.0582 9.39886Z" fill="white"/>
<path d="M23.2308 15.4969H30.0391C29.7838 14.9299 29.4812 14.3854 29.1345 13.8692C29.1077 13.8306 29.0809 13.7909 29.0532 13.7522H20.7441V15.4969H23.2308Z" fill="white"/>
<path d="M24.8257 16.9846H20.7441V21.825C21.065 21.7072 21.3759 21.5636 21.6735 21.3955C22.4906 20.9368 23.1965 20.3038 23.7413 19.5414C24.2861 18.7791 24.6564 17.9062 24.8257 16.9846Z" fill="white"/>
<path d="M23.0939 12.2644H27.8193C27.7369 12.1811 27.6536 12.0988 27.5683 12.0184C27.2069 11.6768 26.8228 11.36 26.4187 11.0702C25.4139 10.3453 24.2934 9.79629 23.1048 9.44647C22.8509 9.37208 22.594 9.30661 22.3321 9.24809C21.8089 9.13499 21.2782 9.06007 20.7441 9.02393V12.2624H23.0939V12.2644Z" fill="white"/>
<path d="M29.0964 13.7522H29.0488C29.0766 13.7909 29.1034 13.8306 29.1302 13.8692C29.1242 13.8306 29.1113 13.7909 29.0964 13.7522Z" fill="#21BC79"/>
<path d="M25.6083 19.3127C25.7645 19.6302 25.9421 19.9367 26.1399 20.2301C26.4197 20.6448 26.7386 21.0318 27.0921 21.3857C28.0292 22.3267 29.1895 23.015 30.4646 23.3863C30.6177 22.9137 30.7383 22.4312 30.8256 21.9421C29.7656 21.6236 28.807 21.0342 28.0444 20.2321C27.6742 19.8439 27.3543 19.4107 27.0921 18.9427C26.7519 18.3338 26.5147 17.6729 26.3899 16.9867H30.5846C30.4402 16.4782 30.2589 15.9809 30.042 15.4989H20.7441V13.7541H29.0531C28.6862 13.223 28.2733 12.7251 27.8192 12.2663H20.7441V9.02384L20.6449 9.01789C20.4306 9.00598 20.2144 8.99805 19.9972 8.99805C19.8593 8.99805 19.7215 8.99805 19.5846 9.00698C19.4735 9.00698 19.3634 9.01689 19.2533 9.02384V9.85999C19.2473 9.87686 19.2414 9.89273 19.2364 9.9086L19.2533 9.90165V12.2623H12.1811C11.7631 12.6842 11.3799 13.1393 11.0355 13.6232C11.0058 13.6649 10.976 13.7075 10.9472 13.7502H19.2563V15.4949H9.96131C9.74447 15.977 9.56313 16.4742 9.41875 16.9827H13.7096C13.5853 17.6703 13.348 18.3326 13.0074 18.9427C12.7452 19.4107 12.4253 19.8439 12.0552 20.2321C11.2695 21.0591 10.276 21.6596 9.17871 21.9709C9.26701 22.4597 9.38863 22.9419 9.54273 23.4141C10.8562 23.0515 12.0527 22.3531 13.0143 21.3877C13.3658 21.0335 13.6827 20.6466 13.9606 20.2321C14.1581 19.9385 14.3357 19.632 14.4922 19.3146C14.9777 20.2937 15.6613 21.1611 16.4998 21.8618C17.1835 22.4378 17.9603 22.893 18.797 23.2078C18.6681 23.3738 18.5358 23.5368 18.4003 23.6968C16.7764 25.6003 14.6776 27.04 12.317 27.8696C12.7239 28.2663 13.1606 28.631 13.6233 28.9607C15.7744 28.0643 17.6987 26.6998 19.2563 24.9664V30.9713C19.5022 30.9885 19.7502 30.9971 20.0002 30.9971C20.2501 30.9971 20.4981 30.9885 20.7441 30.9713V24.7045C22.3047 26.5207 24.2604 27.9556 26.4613 28.8992C26.916 28.5687 27.3447 28.204 27.7438 27.8081C25.4503 26.9657 23.4133 25.545 21.8302 23.6839C21.6834 23.512 21.5412 23.3371 21.4037 23.1592C22.203 22.8478 22.9462 22.4079 23.6037 21.8568C24.4402 21.1561 25.1227 20.2899 25.6083 19.3127ZM18.6056 21.4948C17.744 21.0462 16.996 20.407 16.4187 19.6258C15.8413 18.8446 15.4498 17.942 15.2738 16.9867H19.2563V21.7874C19.034 21.7016 18.8167 21.6033 18.6056 21.4928V21.4948ZM21.6735 21.3956C21.3758 21.5637 21.065 21.7073 20.7441 21.8251V16.9847H24.8257C24.6563 17.9063 24.2861 18.7792 23.7413 19.5415C23.1965 20.3039 22.4905 20.9369 21.6735 21.3956Z" fill="#21BC79"/>
<circle cx="20" cy="20" r="19.5" stroke="black" stroke-opacity="0.05"/>
</svg>
