<svg width="40" height="40" viewBox="0 0 40 40" fill="none" xmlns="http://www.w3.org/2000/svg">
<circle cx="20" cy="20" r="20" fill="#F6F8FA"/>
<circle cx="20" cy="20" r="20" fill="#021850"/>
<circle cx="20" cy="20" r="19.5" stroke="black" stroke-opacity="0.05"/>
<path d="M36.9896 24.9985C35.9916 24.3923 34.9493 23.8622 33.8716 23.4129C33.7754 23.3725 33.7215 23.3847 33.6459 23.4591C33.1643 23.9371 32.5718 24.2071 31.9127 24.3313C30.5231 24.5929 29.0949 24.5707 27.7141 24.2658C27.5257 24.2294 27.3346 24.2085 27.1427 24.2034C26.9704 24.1953 26.84 24.2796 26.7463 24.4292C26.7315 24.4501 26.7124 24.4676 26.6902 24.4806C26.6681 24.4936 26.6435 24.5017 26.618 24.5045C24.3659 24.5079 22.1138 24.5086 19.8617 24.5067C19.8498 24.5053 19.838 24.503 19.8265 24.4997V24.0708C20.0655 24.055 20.3078 24.0426 20.5491 24.0209C20.6981 24.0081 20.8461 23.9853 20.992 23.9526C21.2338 23.8962 21.3506 23.7435 21.3732 23.4927C21.3972 23.225 21.3075 22.9823 21.2064 22.745C20.9533 22.1503 20.6947 21.5578 20.4308 20.9675C20.4176 20.9465 20.3997 20.9287 20.3784 20.9158C20.3572 20.9029 20.3332 20.8951 20.3084 20.8931C19.2137 20.9233 18.1192 20.9572 17.0251 20.9946C16.7294 21.0051 16.4343 21.0353 16.1397 21.0635C16.0934 21.068 16.0283 21.1004 16.0102 21.1382C15.697 21.7987 15.4056 22.4702 15.2165 23.1781C15.1121 23.5712 15.2165 23.7893 15.6034 23.9072C15.8954 23.9958 16.2097 24.011 16.5147 24.055C16.5923 24.0663 16.6718 24.0638 16.7559 24.0677V24.5017H8.45384V24.2844C8.66516 24.2635 8.87903 24.2483 9.09092 24.2198C9.57254 24.1552 9.74521 23.9594 9.74944 23.4749C9.75283 23.0517 9.74944 22.6285 9.74944 22.1895C7.38508 22.837 5.12652 23.7097 3.02342 24.9881C3.00649 24.9827 3.0031 24.9788 3 24.9751C3.48472 24.6385 3.95562 24.2791 4.45699 23.9693C6.31237 22.8218 8.32236 22.0253 10.4125 21.43C12.1127 20.9452 13.8436 20.6154 15.5994 20.408C17.6121 20.1706 19.6408 20.0971 21.6655 20.1883C25.1717 20.3446 28.5935 20.9416 31.8864 22.1889C33.6797 22.8683 35.3757 23.7314 36.9114 24.891C36.9447 24.9141 36.9745 24.9419 37 24.9734C36.9987 24.9829 36.995 24.992 36.9893 24.9997M31.8156 23.7314C32.0978 23.4493 32.1542 23.1711 31.9795 22.9014C31.8719 22.734 31.7072 22.6114 31.516 22.5563C30.4017 22.208 29.2704 21.9165 28.1266 21.6831C26.9255 21.437 25.7143 21.2562 24.496 21.1216C24.2756 21.0973 24.0541 21.0804 23.8041 21.0573C24.0908 21.612 24.3538 22.1452 24.6401 22.6655C24.8217 22.9987 25.0245 23.3198 25.2473 23.627C25.4818 23.9467 25.8299 24.0587 26.2334 24.0581V22.2468H26.695C26.7013 22.2544 26.707 22.2627 26.7119 22.2713C26.7238 22.2967 26.7348 22.3227 26.7455 22.3486C27.0574 23.0929 27.5889 23.6124 28.3402 23.9069C29.102 24.2071 29.8897 24.2647 30.6944 24.1761C31.1009 24.1312 31.49 24.035 31.8162 23.7303M12.1745 23.9749C12.2484 24.1036 12.3703 24.1628 12.5077 24.1865C12.8547 24.2466 13.1823 24.1907 13.4323 23.9326C13.6394 23.7173 13.8504 23.4907 13.9949 23.232C14.3577 22.5775 14.6836 21.9026 15.0233 21.2353C15.0303 21.215 15.035 21.194 15.0374 21.1727C14.6252 21.2291 14.2192 21.2793 13.8177 21.3419C13.3036 21.4232 12.7909 21.5138 12.2783 21.6046C12.1423 21.6286 12.063 21.7355 12.0627 21.8721C12.0627 22.4082 12.0557 22.9442 12.0681 23.4783C12.0706 23.6394 12.1302 23.7977 12.1745 23.9749Z" fill="white"/>
<path d="M23.1543 19.7262C23.1805 19.7826 23.2031 19.8275 23.2225 19.8673L19.7858 19.7336C19.5239 19.1975 19.2497 18.6332 18.974 18.0689C18.7336 17.5761 18.4928 17.0836 18.2515 16.5913C18.2282 16.5543 18.2009 16.52 18.1702 16.4889C18.1416 16.5225 18.1161 16.5585 18.094 16.5967C17.5978 17.663 17.1032 18.7299 16.6102 19.7973C16.5665 19.8924 16.5123 19.9265 16.411 19.9339C16.1492 19.9525 15.8882 19.9838 15.6016 20.0126C16.8469 17.3401 18.0867 14.6832 19.3371 12C20.6153 14.587 21.8829 17.1517 23.1543 19.7262Z" fill="#00A3CA"/>
<path d="M28.2781 18.9411C28.0742 19.2867 28.1698 19.6552 28.538 19.8394C28.819 19.9782 29.1117 20.0919 29.4126 20.1794C30.3068 20.4441 31.2074 20.6873 32.1034 20.9463C32.5464 21.0741 32.9725 21.2456 33.3567 21.5066C33.6795 21.7261 33.9439 21.9933 34.0217 22.3951C34.0421 22.4992 34.0401 22.6078 34.05 22.7351C33.7929 22.614 33.5582 22.5003 33.3206 22.3925C31.5431 21.5853 29.6903 21.001 27.785 20.582C27.3634 20.4892 26.9385 20.4142 26.5153 20.3225C26.4873 20.3134 26.4615 20.2984 26.44 20.2783C26.4184 20.2582 26.4016 20.2336 26.3906 20.2062C26.2927 19.8846 26.3508 19.5793 26.5407 19.3084C26.8976 18.7986 27.4001 18.4922 27.9898 18.3209C28.7578 18.0986 29.5472 18.0512 30.3364 18.1181C31.0228 18.1762 31.7039 18.2964 32.3873 18.3895C32.6556 18.4262 32.9081 18.4259 33.0562 18.1381C33.0681 18.1147 33.1172 18.1 33.1494 18.0989C33.2853 18.0947 33.4216 18.0972 33.5672 18.0972V20.0637H33.1299C32.5602 19.094 31.6963 18.5867 30.6075 18.4386C30.0596 18.3641 29.51 18.3649 28.9711 18.5198C28.7084 18.596 28.4646 18.7125 28.2781 18.9411Z" fill="#00A3CA"/>
<path d="M11.0014 20.8753C10.4247 21.0463 9.85788 21.2105 9.29303 21.3832C9.20133 21.4114 9.14772 21.4083 9.08057 21.3293C8.47509 20.6163 7.85691 19.9143 7.25849 19.196C6.95744 18.8351 6.59235 18.6283 6.12625 18.5939C6.10283 18.5922 6.07941 18.5894 6.05627 18.5857C6.04593 18.5826 6.03592 18.5784 6.02637 18.5733V18.3589H10.7664V18.5809C10.6747 18.5877 10.5785 18.5939 10.4825 18.6024C10.2628 18.6218 10.0416 18.6306 9.82402 18.6656C9.62652 18.6963 9.57235 18.8219 9.6711 18.9931C9.73509 19.103 9.80884 19.2069 9.89145 19.3035C10.2901 19.7727 10.6925 20.2385 11.0931 20.7058C11.1233 20.741 11.1521 20.7774 11.1907 20.8251C11.1241 20.8409 11.068 20.8559 11.0014 20.8753Z" fill="#00A3CA"/>
<path d="M15.0522 18.7398C14.9346 18.8244 14.8135 18.8935 14.7202 18.9889C14.3127 19.4051 13.9149 19.8308 13.5083 20.2481C13.4525 20.3014 13.3833 20.3386 13.308 20.3559C13.095 20.4064 12.8789 20.4433 12.6247 20.4933C12.6794 20.4326 12.711 20.3974 12.7429 20.3624C13.0118 20.0675 13.284 19.7758 13.547 19.4759C13.6253 19.3822 13.6916 19.2792 13.7445 19.1692C13.8591 18.9435 13.7851 18.7525 13.5383 18.6895C13.3408 18.6385 13.1311 18.6297 12.9266 18.6049C12.825 18.593 12.7223 18.5902 12.6162 18.5829V18.3572H15.7232V18.564C15.5034 18.6213 15.2828 18.6783 15.0522 18.7398Z" fill="#00A3CA"/>
</svg>
