<svg width="40" height="40" viewBox="0 0 40 40" fill="none" xmlns="http://www.w3.org/2000/svg">
<circle cx="20" cy="20" r="20" fill="#377EBF"/>
<path d="M12.5392 10.4451C12.0282 9.70197 12.2721 8.93819 13.1327 8.67373C14.0775 8.38418 15.2116 8.69435 15.7441 9.5675C17.5253 12.4935 18.8566 15.5325 19.4339 18.8315C19.7485 20.6244 19.8669 22.4173 19.7898 24.2093C19.7826 24.3788 19.7172 24.5428 19.5934 24.7015C19.3738 24.983 19.0251 24.9391 18.8548 24.628C18.7472 24.4326 18.6791 24.2201 18.6495 23.9906C18.3814 21.8794 17.8561 19.9099 17.0717 18.0812C15.9251 15.4088 14.2649 12.9516 12.5392 10.4451Z" fill="white"/>
<path d="M22.7175 24.8084C22.6135 25.1392 22.3078 25.5058 21.9277 25.4413C21.6525 25.3946 21.527 25.1069 21.5682 24.8532C22.332 20.1378 22.0998 15.158 21.7036 10.2884C21.6023 9.0361 22.8932 8.77702 23.7529 9.31669C24.5086 9.79091 24.7184 10.6721 24.6816 11.5462C24.574 14.1091 24.4208 16.6121 24.0335 19.1553C23.7412 21.0764 23.3029 22.9608 22.7175 24.8084Z" fill="white"/>
<path d="M19.1263 13.277C19.3989 12.9749 19.562 12.6298 19.649 12.2362C19.6624 12.1726 19.6884 12.1681 19.7261 12.221C19.9538 12.5455 20.2496 12.8037 20.6145 12.9946C20.8108 13.0977 20.9659 13.2178 21.0815 13.3541C22.0174 14.4576 20.7812 16.065 19.4795 15.4115C18.6638 15.0018 18.5194 13.9502 19.1263 13.277Z" fill="white"/>
<path d="M30.2496 20.9972C31.7351 22.4235 32.4621 24.375 31.684 26.3625C30.7248 28.8107 27.9556 30.3239 25.5522 30.9981C22.1528 31.9519 18.2936 31.8372 14.9821 30.4898C12.3662 29.4248 9.50382 27.1245 10.0731 23.9196C10.2676 22.8278 10.8996 21.8318 11.6992 21.0411C11.7091 21.0313 11.7199 21.0313 11.7297 21.0411C11.7378 21.0492 11.7378 21.0573 11.7315 21.0653C10.16 22.9246 10.3088 25.2527 11.9135 27.0295C13.3622 28.6332 15.5693 29.5915 17.7001 30.0263C21.0233 30.704 24.7786 30.3956 27.8032 28.7784C29.4446 27.9008 31.034 26.4539 31.3263 24.5454C31.5244 23.2527 31.0816 22.0371 30.229 21.016C30.1268 20.8932 30.1331 20.8869 30.2487 20.9972H30.2496Z" fill="white"/>
<path d="M14.8862 21.0491C14.8243 21.128 14.7625 21.206 14.7015 21.2831C14.152 21.985 13.9628 22.7228 14.134 23.4956C14.5159 25.2203 16.5814 26.2737 18.1466 26.6708C20.3348 27.2275 22.4684 27.1549 24.5491 26.4548C26.0991 25.933 28.169 24.5758 27.9018 22.6619C27.8176 22.0585 27.5612 21.5323 27.1327 21.0832C27.0269 20.972 27.0332 20.9649 27.1515 21.0626C28.3312 22.0334 28.8745 23.4498 28.1717 24.868C27.5182 26.1867 25.9628 27.0697 24.541 27.5153C22.5912 28.1258 20.5643 28.2163 18.4621 27.786C16.974 27.4812 15.3864 26.7909 14.3671 25.6569C13.6159 24.8205 13.2833 23.7268 13.6751 22.6583C13.8839 22.0926 14.2811 21.5502 14.8665 21.0312C14.9409 20.9658 14.9471 20.972 14.8862 21.0491Z" fill="white"/>
<circle cx="20" cy="20" r="19.5" stroke="black" stroke-opacity="0.05"/>
</svg>
