<svg width="40" height="40" viewBox="0 0 40 40" fill="none" xmlns="http://www.w3.org/2000/svg">
<circle cx="20" cy="20" r="20" fill="#003585"/>
<path d="M8.32037 19.0426V23.1233C8.32037 23.1384 8.31441 23.153 8.30378 23.1637C8.29314 23.1745 8.27869 23.1806 8.26356 23.1808H6.01995C6.01414 23.1808 6.00857 23.1785 6.00446 23.1744C6.00035 23.1703 5.99805 23.1647 5.99805 23.1589V14.5609C5.99804 14.5526 6.00127 14.5447 6.00703 14.5389C6.01278 14.533 6.02062 14.5296 6.02885 14.5294H8.24166C8.25252 14.5275 8.26368 14.5282 8.27419 14.5315C8.28471 14.5348 8.29428 14.5406 8.30207 14.5484C8.30987 14.5562 8.31567 14.5657 8.31897 14.5763C8.32228 14.5868 8.32299 14.5979 8.32106 14.6088V18.0851C8.32105 18.0911 8.32341 18.097 8.32763 18.1013C8.33185 18.1057 8.33759 18.1082 8.34364 18.1084C8.34886 18.1086 8.35398 18.1069 8.35802 18.1036C8.4511 18.0351 8.54213 17.955 8.63179 17.875C9.87977 16.7507 11.0972 15.6542 12.284 14.5855C12.326 14.548 12.3803 14.5273 12.4366 14.5273H14.6269C14.7138 14.5273 14.7254 14.5561 14.6604 14.6143L10.7255 18.1508C10.718 18.157 10.7119 18.1647 10.7076 18.1734C10.7033 18.1821 10.7009 18.1916 10.7006 18.2014C10.7003 18.2111 10.702 18.2207 10.7057 18.2297C10.7094 18.2387 10.715 18.2468 10.7221 18.2535L15.1025 23.0966C15.1552 23.1548 15.1422 23.1835 15.0642 23.1835H12.2135C12.181 23.1835 12.1488 23.1767 12.1191 23.1635C12.0894 23.1503 12.0628 23.131 12.041 23.1069C10.9459 21.8913 9.79992 20.6175 8.60305 19.2856C8.52268 19.1951 8.43525 19.1111 8.34159 19.0344C8.32653 19.0207 8.32037 19.0242 8.32037 19.0426Z" fill="white"/>
<path d="M18.8031 15.8297C18.7986 19.1511 18.7986 22.4615 18.8031 25.761C18.8031 25.8664 18.81 25.9314 18.7231 26.004C18.0039 26.604 17.2718 27.2127 16.5267 27.8301C16.5231 27.833 16.519 27.8352 16.5146 27.8365C16.5102 27.8379 16.5056 27.8384 16.501 27.8379C16.4965 27.8375 16.492 27.8361 16.488 27.834C16.4839 27.8318 16.4803 27.8288 16.4774 27.8253C16.472 27.819 16.4691 27.811 16.4692 27.8027V14.586C16.4682 14.5781 16.469 14.57 16.4716 14.5624C16.4742 14.5549 16.4785 14.548 16.4842 14.5424C16.4899 14.5367 16.4968 14.5325 16.5044 14.53C16.512 14.5275 16.5201 14.5267 16.528 14.5279C18.1479 14.5279 19.7593 14.5279 21.3623 14.5279C21.8309 14.5271 22.2983 14.5762 22.7565 14.6743C24.2623 14.9967 24.8215 16.0316 24.8269 17.4847C24.8315 18.6158 24.8295 19.5987 24.8208 20.4333C24.8113 20.7214 24.769 21.0075 24.6949 21.2861C24.4115 22.4284 23.5019 22.9397 22.3855 23.0923C21.5115 23.2121 20.6607 23.1854 19.7525 23.1806C19.7463 23.1807 19.7402 23.1796 19.7345 23.1773C19.7289 23.175 19.7237 23.1715 19.7194 23.1672C19.715 23.1629 19.7116 23.1577 19.7093 23.152C19.707 23.1463 19.7058 23.1402 19.7059 23.1341L19.7011 21.9582C19.701 21.9521 19.7022 21.946 19.7045 21.9403C19.7068 21.9346 19.7102 21.9294 19.7146 21.9251C19.7189 21.9207 19.7241 21.9173 19.7298 21.915C19.7354 21.9127 19.7415 21.9116 19.7477 21.9117C20.1319 21.9153 20.5172 21.9101 20.9037 21.8959C21.2117 21.8843 21.6101 21.8213 21.8558 21.6632C22.2381 21.4191 22.4316 21.0645 22.4362 20.5996C22.449 19.2179 22.449 18.0575 22.4362 17.1185C22.4225 16.2 21.7517 15.818 20.9215 15.8057C20.3151 15.7952 19.6206 15.792 18.838 15.7961C18.8335 15.7959 18.829 15.7967 18.8248 15.7983C18.8206 15.7999 18.8167 15.8023 18.8134 15.8055C18.8102 15.8086 18.8076 15.8124 18.8058 15.8165C18.804 15.8207 18.8031 15.8251 18.8031 15.8297Z" fill="white"/>
<path d="M30.5674 20.23C29.7757 19.902 28.9088 19.5579 27.9665 19.1979C27.1452 18.8831 26.5196 18.2397 26.3492 17.3355C26.2968 17.0269 26.3118 16.7106 26.3931 16.4083C26.4744 16.106 26.62 15.8248 26.8201 15.584C27.486 14.7812 28.6866 14.53 29.7208 14.5293C31.1243 14.5293 32.5106 14.5293 33.8794 14.5293C33.9814 14.5293 33.9944 14.5635 33.9185 14.6313C33.6086 14.9087 33.2865 15.2236 32.952 15.5758C32.9224 15.607 32.8867 15.6318 32.8472 15.6488C32.8076 15.6657 32.7651 15.6744 32.722 15.6744C31.8738 15.6744 30.9913 15.6744 30.0746 15.6744C29.5572 15.6744 28.8522 15.762 28.8118 16.4382C28.7892 16.814 29.0671 17.0809 29.3717 17.2534C29.7072 17.4426 30.0563 17.6066 30.4162 17.7441C31.1252 18.0179 31.8252 18.2917 32.516 18.5655C33.6481 19.0138 34.2449 20.1459 33.9048 21.3108C33.4749 22.7844 31.8165 23.178 30.473 23.1814C29.0981 23.1846 27.6772 23.1864 26.2102 23.1869C26.15 23.1869 26.1411 23.1656 26.1835 23.1232L27.2102 22.1068C27.2667 22.0504 27.3432 22.0184 27.4231 22.0178C28.3521 22.0242 29.3206 22.0242 30.3285 22.0178C30.5866 22.016 30.842 21.9656 31.0814 21.8693C31.6372 21.6469 31.6769 20.9542 31.2224 20.6099C31.0213 20.4557 30.8011 20.3281 30.5674 20.23Z" fill="white"/>
<circle cx="20" cy="20" r="19.5" stroke="black" stroke-opacity="0.05"/>
</svg>
