<svg width="40" height="40" viewBox="0 0 40 40" fill="none" xmlns="http://www.w3.org/2000/svg">
<circle cx="20" cy="20" r="20" fill="#F6F8FA"/>
<g clip-path="url(#clip0_24563_41700)">
<path d="M29 11.5039C28.8659 11.5197 28.7634 11.5591 28.6924 11.6378C28.369 11.9764 27.7379 12.6142 26.7914 13.5512C26.6573 13.6772 26.468 13.8268 26.326 13.9764C25.3322 14.9921 24.3146 15.9764 23.2813 16.9449H17.0894C17.0342 16.8976 16.9711 16.8583 16.9001 16.811C16.837 16.7717 16.7818 16.7244 16.7266 16.6693C15.7721 15.7087 14.9676 14.9055 14.305 14.2598C13.3979 13.3858 12.6328 12.622 11.986 11.9685C11.7257 11.7008 11.4417 11.4567 11.1656 11.1969C11.142 11.1811 11.1183 11.1732 11.0947 11.1732H11.071C11.071 11.1732 11.0237 11.1732 11.0237 11.1339L11 11H28.9527C28.9527 11 28.9921 11.0157 28.9921 11.0394V11.5039H29Z" fill="#3C3C3C"/>
<path d="M11 11L11.0158 11.1417C11.0158 11.1417 11.0316 11.1811 11.0631 11.1811H11.0868C11.0868 11.1811 11.142 11.1811 11.1578 11.2047C11.4338 11.4567 11.7178 11.7087 11.9781 11.9764C12.617 12.6299 13.39 13.3937 14.2971 14.2677C14.9597 14.9134 15.7642 15.7087 16.7187 16.6772C16.7739 16.7323 16.8291 16.7795 16.8922 16.8189C16.9632 16.8661 17.0263 16.9055 17.0815 16.9449V23.0709C17.0026 23.0866 16.9395 23.1181 16.8922 23.1654C15.7248 24.2756 14.3365 25.7087 12.9798 26.9921C12.4119 27.5354 11.8598 28.0866 11.3234 28.6535C11.2761 28.7008 11.1735 28.748 11 28.7953V11Z" fill="#706E6F"/>
<path d="M29.0001 11.5039V28.3858C28.937 28.3622 28.9054 28.3543 28.9054 28.3543C28.8344 28.3858 28.7555 28.37 28.7003 28.3149C28.3138 27.9134 27.9352 27.5354 27.5566 27.1732C26.476 26.1417 25.5137 25.1417 24.4172 24.1023C24.4172 24.1023 24.2516 23.9291 23.9282 23.5984C23.7231 23.3858 23.5023 23.2047 23.2656 23.0551L23.2814 16.9449C24.3147 15.9763 25.3322 14.9921 26.3261 13.9763C26.4681 13.8267 26.6653 13.685 26.7915 13.5512C27.738 12.6141 28.369 11.9763 28.6924 11.6378C28.7634 11.559 28.866 11.5118 29.0001 11.5039Z" fill="#706E6F"/>
<path d="M17.0892 23.0552H23.2653C23.502 23.2048 23.7228 23.3859 23.9279 23.5985C24.2513 23.9292 24.4169 24.1024 24.4169 24.1024C25.5133 25.1497 26.4757 26.1418 27.5563 27.1733C27.9349 27.5355 28.3135 27.9134 28.7 28.315C28.7552 28.3701 28.8341 28.3859 28.9051 28.3544C28.9051 28.3544 28.9445 28.3623 28.9998 28.3859L28.984 28.9607C28.984 28.9607 28.9682 29.0001 28.9446 29.0001C28.8499 29.0001 28.7631 29.0001 28.6843 29.0001C22.8078 28.9843 16.9235 28.9764 11.0471 28.9686C11.0155 28.9686 11.0077 28.9056 11.0155 28.7875C11.1891 28.7402 11.2916 28.693 11.3389 28.6457C11.8753 28.0788 12.4275 27.5197 12.9954 26.9843C14.3442 25.693 15.7403 24.2678 16.9077 23.1575C16.9551 23.1103 17.0182 23.0788 17.097 23.063L17.0892 23.0552Z" fill="#3C3C3C"/>
</g>
<circle cx="20" cy="20" r="19.5" stroke="black" stroke-opacity="0.05"/>
<defs>
<clipPath id="clip0_24563_41700">
<rect width="18" height="18" fill="white" transform="translate(11 11)"/>
</clipPath>
</defs>
</svg>
