<svg width="40" height="40" viewBox="0 0 40 40" fill="none" xmlns="http://www.w3.org/2000/svg">
<circle cx="20" cy="20" r="20" fill="#00A040"/>
<g clip-path="url(#clip0_18553_55720)">
<path d="M13.5835 25.4971L20.7782 11.599C20.8077 11.5424 20.8666 11.5059 20.9302 11.5059L29.4611 11.5C29.533 11.5 29.5554 11.5342 29.5283 11.6013L29.315 12.1233C29.2879 12.1917 29.2372 12.2294 29.163 12.2376C27.7809 12.392 26.4364 12.65 25.1285 13.0129C23.5826 13.4418 22.0661 14.0345 20.7994 14.9925C20.1349 15.4944 19.5858 16.1508 19.3784 16.9544C19.0343 18.2882 19.8674 19.1319 21.0092 19.5985C21.5759 19.8294 22.0897 19.9744 22.5504 20.0333C24.1269 20.2336 25.2958 20.3408 26.5601 20.7956C26.5601 20.7956 22.0437 23.4468 13.5835 25.4971Z" fill="white"/>
<path d="M27.2577 21.2094C28.7965 22.2699 28.2074 24.1022 27.015 25.145C26.1725 25.8826 25.1591 26.4623 23.9773 26.8853C21.735 27.6877 19.4762 28.152 17.2009 28.2781C15.4747 28.3747 13.8085 28.4466 12.2013 28.4925C12.1566 28.4937 12.1189 28.4583 12.1177 28.4136C12.1177 28.3994 12.12 28.3865 12.1271 28.3735L13.316 26.0794C13.4067 25.9851 13.5788 25.9109 13.8321 25.8567C18.464 24.8692 22.9015 23.3268 27.1446 21.2283C27.1858 21.2083 27.2235 21.2012 27.2577 21.2094Z" fill="white"/>
<path d="M23.4141 18.4285C23.4141 18.4285 25.9533 17.8747 28.1839 17.7545C30.4144 17.6343 32.4917 17.8983 29.5401 19.8448C26.5884 21.7914 16.7296 26.7933 3 27.3294C3 27.3294 15.642 26.1841 25.3406 21.2765C32.943 17.4293 27.0315 18.0574 23.4141 18.4285Z" fill="#F39802"/>
</g>
<circle cx="20" cy="20" r="19.5" stroke="black" stroke-opacity="0.05"/>
<defs>
<clipPath id="clip0_18553_55720">
<rect width="28" height="16.9923" fill="white" transform="translate(3 11.5)"/>
</clipPath>
</defs>
</svg>
