<svg width="40" height="40" viewBox="0 0 40 40" fill="none" xmlns="http://www.w3.org/2000/svg">
<circle cx="20" cy="20" r="20" fill="#F6F8FA"/>
<g clip-path="url(#clip0_40988_78869)">
<path d="M14.3087 19.64C14.3087 20.07 13.9739 20.62 13.5626 20.86L9.74609 23.12C9.33478 23.36 9 23.21 9 22.78V18.08C9 17.65 9.33478 16.52 9.74609 16.28L13.5626 14.02C13.9739 13.78 14.3087 13.93 14.3087 14.36V19.64Z" fill="#2371B0"/>
<path d="M30.8378 22.6502C30.8378 23.0802 30.5031 23.6302 30.0918 23.8702L26.7344 25.8702C26.3231 26.1102 25.9883 25.9602 25.9883 25.5302V20.2502C25.9883 19.8202 26.3231 19.2702 26.7344 19.0302L30.0918 17.0302C30.5031 16.7902 30.8378 16.9402 30.8378 17.3702V22.6502Z" fill="#2371B0"/>
<path d="M26.1795 18.6902C25.8064 18.9002 25.3664 18.9602 24.7543 18.6202L20.9951 16.3902C20.5838 16.1502 20.5264 15.7302 20.8995 15.5202L24.8786 13.1502C25.2517 12.9402 25.8734 12.9602 26.2751 13.2102L30.0917 15.5002C30.503 15.7402 30.5317 16.1202 30.1586 16.3302L26.1699 18.7002L26.1795 18.6902Z" fill="#414042"/>
<path d="M15.3611 26.6999C14.9881 26.9099 14.3472 26.8699 13.9359 26.6299L10.1768 24.3999C9.76547 24.1599 9.70808 23.7399 10.0811 23.5299L14.0603 21.1599C14.4333 20.9499 15.055 20.9699 15.4568 21.2199L19.2733 23.5099C19.6846 23.7499 19.7133 24.1299 19.3403 24.3399L15.3516 26.7099L15.3611 26.6999Z" fill="#414042"/>
<path d="M14.835 19.4298C14.835 19.8598 15.1697 20.4098 15.581 20.6498L24.7063 26.0598C25.1176 26.2998 25.4524 26.1498 25.4524 25.7198V20.4398C25.4524 20.0098 25.1176 19.4598 24.7063 19.2198L15.581 13.8198C15.1697 13.5798 14.835 13.7298 14.835 14.1598V19.4398V19.4298Z" fill="#21A0C7"/>
</g>
<circle cx="20" cy="20" r="19.5" stroke="black" stroke-opacity="0.05"/>
<defs>
<clipPath id="clip0_40988_78869">
<rect width="22" height="14" fill="white" transform="translate(9 13)"/>
</clipPath>
</defs>
</svg>
