<svg width="40" height="40" viewBox="0 0 40 40" fill="none" xmlns="http://www.w3.org/2000/svg">
<circle cx="20" cy="20" r="20" fill="#14436A"/>
<path d="M9.91893 16.4513C7.84007 16.8593 7.27196 18.6149 7.3734 20.4013C7.41849 21.1888 7.65154 21.8592 8.07256 22.4126C9.32461 24.0593 11.8989 23.8368 13.6869 23.1898C13.6932 23.1875 13.7001 23.1866 13.7068 23.1874C13.7135 23.1881 13.72 23.1903 13.7256 23.1939C13.7312 23.1975 13.7357 23.2023 13.7389 23.2079C13.742 23.2135 13.7436 23.2198 13.7436 23.2261L13.7444 24.8539C13.745 24.8828 13.7309 24.9034 13.7021 24.9155C13.5635 24.976 13.4324 25.0233 13.309 25.0575C12.4642 25.2932 11.508 25.3931 10.4405 25.3573C7.47655 25.2587 5.28355 23.5875 5.02909 20.7659C4.83887 18.667 5.57268 16.6975 7.4943 15.5471C9.01688 14.6357 10.9199 14.4732 12.7105 14.773C13.0627 14.8325 13.4133 14.9245 13.7622 15.0492C13.7856 15.0575 13.8057 15.0722 13.8199 15.0914C13.8341 15.1106 13.8417 15.1333 13.8416 15.1565L13.8366 16.9461C13.836 16.995 13.8118 17.0097 13.7639 16.9903C12.9731 16.6752 12.2156 16.4716 11.4914 16.3795C11.0033 16.3175 10.4792 16.3414 9.91893 16.4513Z" fill="white"/>
<path d="M21.8724 20.795L17.188 20.7981C17.1755 20.7981 17.1634 20.8028 17.1545 20.8111C17.1457 20.8194 17.1407 20.8306 17.1407 20.8423L17.1398 25.1497C17.1398 25.1614 17.1348 25.1727 17.126 25.181C17.1171 25.1893 17.105 25.1939 17.0925 25.1939L14.9105 25.1931C14.9043 25.1931 14.8981 25.192 14.8924 25.1898C14.8866 25.1875 14.8814 25.1843 14.877 25.1802C14.8726 25.1761 14.8691 25.1712 14.8668 25.1658C14.8644 25.1605 14.8632 25.1547 14.8632 25.1489L14.8623 14.8613C14.8623 14.8496 14.8673 14.8384 14.8762 14.8301C14.885 14.8218 14.8971 14.8171 14.9096 14.8171H17.0933C17.1059 14.8171 17.1179 14.8218 17.1268 14.8301C17.1357 14.8384 17.1407 14.8496 17.1407 14.8613L17.1398 18.921C17.1398 18.9268 17.1411 18.9325 17.1434 18.9379C17.1458 18.9432 17.1493 18.9481 17.1537 18.9522C17.1581 18.9563 17.1633 18.9596 17.1691 18.9618C17.1748 18.964 17.181 18.9652 17.1872 18.9652L21.8716 18.9675C21.8841 18.9675 21.8962 18.9629 21.9051 18.9546C21.9139 18.9463 21.9189 18.9351 21.9189 18.9233L21.9198 14.8629C21.9198 14.8512 21.9248 14.8399 21.9336 14.8317C21.9425 14.8234 21.9546 14.8187 21.9671 14.8187L24.1254 14.8179C24.138 14.8179 24.15 14.8226 24.1589 14.8309C24.1678 14.8392 24.1728 14.8504 24.1728 14.8621L24.1719 25.1521C24.1719 25.1638 24.167 25.175 24.1581 25.1833C24.1492 25.1916 24.1372 25.1963 24.1246 25.1963L21.9663 25.1915C21.9537 25.1915 21.9417 25.1869 21.9328 25.1786C21.9239 25.1703 21.9189 25.1591 21.9189 25.1474L21.9198 20.8392C21.9198 20.8274 21.9148 20.8162 21.9059 20.8079C21.897 20.7996 21.885 20.795 21.8724 20.795Z" fill="white"/>
<path d="M27.1111 25.1932H25.0297C25.0224 25.1933 25.0152 25.1917 25.0087 25.1887C25.0022 25.1857 24.9965 25.1812 24.9922 25.1757C24.9879 25.1703 24.9851 25.1639 24.984 25.1572C24.9828 25.1505 24.9834 25.1436 24.9857 25.1372L28.6125 14.8456C28.6155 14.8371 28.6213 14.8298 28.629 14.8245C28.6368 14.8193 28.6461 14.8164 28.6556 14.8164L31.2798 14.8172C31.2893 14.8172 31.2986 14.8201 31.3064 14.8253C31.3141 14.8306 31.3199 14.8379 31.3229 14.8464L34.9979 25.1372C35.0002 25.1435 35.0008 25.1503 34.9997 25.157C34.9986 25.1636 34.9958 25.17 34.9916 25.1754C34.9874 25.1809 34.9819 25.1854 34.9755 25.1884C34.9691 25.1915 34.962 25.1931 34.9548 25.1932L32.7872 25.1916C32.7776 25.1916 32.7683 25.1887 32.7606 25.1835C32.7528 25.1782 32.747 25.1709 32.744 25.1624L31.7355 22.2792C31.7325 22.2708 31.7267 22.2634 31.7189 22.2581C31.7112 22.2529 31.7019 22.2501 31.6923 22.25L28.1577 22.2516C28.1479 22.2515 28.1383 22.2544 28.1304 22.2598C28.1225 22.2652 28.1166 22.2728 28.1137 22.2816L27.155 25.1632C27.1521 25.1719 27.1463 25.1796 27.1384 25.185C27.1305 25.1904 27.1209 25.1932 27.1111 25.1932ZM28.4705 20.7816C28.4626 20.8042 28.4713 20.8155 28.4967 20.8155H31.3068C31.3497 20.8155 31.3643 20.7966 31.3508 20.7587C31.0267 19.8466 30.7148 18.9563 30.4149 18.0878C30.2264 17.5394 30.0742 16.9681 29.9246 16.3984C29.9128 16.3522 29.8933 16.349 29.8663 16.389C29.8567 16.4037 29.8499 16.4192 29.846 16.4355C29.6696 17.1857 29.4898 17.8311 29.3066 18.3719C29.0349 19.173 28.7562 19.9763 28.4705 20.7816Z" fill="white"/>
<circle cx="20" cy="20" r="19.5" stroke="black" stroke-opacity="0.05"/>
</svg>
