<svg width="40" height="40" viewBox="0 0 40 40" fill="none" xmlns="http://www.w3.org/2000/svg">
<circle cx="20" cy="20" r="20" fill="#F6F8FA"/>
<path d="M30.703 11.2104H31.1624C31.3903 11.2359 31.6161 11.2784 31.8377 11.3376C32.9724 11.6405 33.142 12.7126 32.9088 13.708C32.5504 15.2485 31.6833 16.7022 30.7676 17.9853C30.7596 17.9959 30.7477 18.003 30.7345 18.0051C30.7214 18.0072 30.7079 18.0041 30.697 17.9964C30.689 17.9906 30.683 17.9825 30.6798 17.9732C30.3487 17.0518 29.7137 16.4633 28.7749 16.2075C28.7519 16.2009 28.7325 16.1856 28.7208 16.1648C28.7091 16.1441 28.706 16.1195 28.7123 16.0965C28.7162 16.0848 28.722 16.0739 28.7294 16.0642C29.32 15.3575 29.96 14.2814 29.8641 13.3637C29.7682 12.4461 28.6214 12.648 28.0026 12.7782C27.2297 12.9433 26.4717 13.1716 25.7362 13.4607C25.7252 13.4647 25.7131 13.4643 25.7024 13.4596C25.6917 13.4549 25.6832 13.4462 25.6787 13.4354C25.6755 13.4292 25.6738 13.4222 25.6738 13.4152C25.6738 13.4082 25.6755 13.4013 25.6787 13.395C25.6906 13.3783 25.7041 13.3627 25.7191 13.3486C25.9919 13.0764 26.2947 12.836 26.6216 12.6318C27.856 11.8533 29.252 11.3671 30.703 11.2104Z" fill="#8B8A8F"/>
<path d="M20.6842 20.16C20.6974 22.9391 24.5699 19.9015 25.2755 19.3463C25.2906 19.3347 25.3096 19.3295 25.3285 19.3318C25.3473 19.334 25.3646 19.3436 25.3765 19.3584C25.3837 19.3667 25.3886 19.3768 25.3906 19.3877C25.6329 20.4571 26.282 21.1637 27.3379 21.5077C27.3444 21.5098 27.3503 21.5132 27.3555 21.5177C27.3606 21.5222 27.3648 21.5276 27.3678 21.5337C27.3708 21.5398 27.3725 21.5465 27.373 21.5533C27.3734 21.56 27.3725 21.5668 27.3702 21.5733C27.3663 21.5827 27.3601 21.5911 27.3521 21.5975C25.7853 22.7335 24.1825 23.5348 22.5438 24.0011C20.5146 24.5786 18.0121 24.5059 19.0993 21.4632C19.3322 20.8118 19.5482 20.197 19.7474 19.6189C19.8675 19.2726 19.9766 18.7789 19.8847 18.4226C19.4506 16.7498 15.8467 19.1 15.1329 19.6007C15.1161 19.6123 15.0954 19.6168 15.0752 19.6135C15.0551 19.6101 15.037 19.599 15.0249 19.5825C15.0189 19.5745 15.0147 19.5651 15.0128 19.5553C14.7698 18.4784 14.1641 17.7694 13.1957 17.4282C13.1842 17.4246 13.174 17.4177 13.1662 17.4084C13.1585 17.3992 13.1535 17.3879 13.1519 17.376C13.1503 17.364 13.1522 17.3519 13.1572 17.3409C13.1623 17.33 13.1704 17.3207 13.1805 17.3141C14.8059 16.2309 16.6462 15.3547 18.5663 15.0084C19.1745 14.8872 19.8 14.8803 20.4107 14.9882C21.6594 15.2446 21.3657 17.0436 21.0931 17.9158C20.8579 18.6649 20.6812 19.3968 20.6842 20.16Z" fill="#8B8A8F"/>
<path d="M30.3076 18.8554C30.3076 19.148 30.2499 19.4377 30.138 19.7081C30.026 19.9784 29.8619 20.224 29.655 20.4309C29.4481 20.6378 29.2025 20.8019 28.9322 20.9138C28.6619 21.0258 28.3721 21.0834 28.0796 21.0834C27.787 21.0834 27.4973 21.0258 27.2269 20.9138C26.9566 20.8019 26.711 20.6378 26.5041 20.4309C26.2972 20.224 26.1331 19.9784 26.0212 19.7081C25.9092 19.4377 25.8516 19.148 25.8516 18.8554C25.8516 18.2647 26.0862 17.6982 26.5038 17.2804C26.9214 16.8626 27.4878 16.6277 28.0785 16.6274C28.3712 16.6273 28.661 16.6848 28.9315 16.7967C29.2019 16.9087 29.4476 17.0727 29.6546 17.2796C29.8616 17.4866 30.0258 17.7322 30.1379 18.0026C30.2499 18.273 30.3076 18.5628 30.3076 18.8554Z" fill="#0032A0"/>
<path d="M14.5297 20.0246C14.5297 20.3167 14.4721 20.6059 14.3602 20.8757C14.2483 21.1455 14.0842 21.3906 13.8775 21.5969C13.6707 21.8032 13.4253 21.9666 13.1552 22.078C12.8852 22.1893 12.5959 22.2462 12.3038 22.2456C11.8647 22.2446 11.4358 22.1135 11.0713 21.8688C10.7067 21.6242 10.4228 21.277 10.2555 20.8711C10.0882 20.4651 10.0449 20.0188 10.1312 19.5883C10.2174 19.1578 10.4294 18.7625 10.7402 18.4524C11.051 18.1423 11.4467 17.9313 11.8774 17.846C12.3081 17.7607 12.7544 17.805 13.1599 17.9733C13.5654 18.1415 13.912 18.4262 14.1558 18.7913C14.3996 19.1564 14.5297 19.5856 14.5297 20.0246Z" fill="#007565"/>
<path d="M10.109 25.7707C9.9596 28.0724 13.5959 26.2411 14.4115 25.7485C14.4115 25.7485 14.4206 25.7485 14.4277 25.7576L14.4469 25.7768C14.4485 25.7779 14.4499 25.7794 14.4509 25.7811C14.4518 25.7829 14.4523 25.7849 14.4523 25.7869C14.4523 25.7889 14.4518 25.7908 14.4509 25.7926C14.4499 25.7944 14.4485 25.7959 14.4469 25.797C13.5416 26.5026 12.5496 27.0892 11.4951 27.5424C10.2837 28.0633 8.54123 28.4399 7.47317 27.6242C6.88058 27.1709 6.96336 26.3683 7.10167 25.7273C7.48326 23.9627 8.43927 22.2869 9.55882 20.8201C9.56524 20.811 9.57351 20.8035 9.58309 20.7979C9.59266 20.7923 9.60332 20.7889 9.61434 20.7878C9.62762 20.7868 9.64084 20.7902 9.65197 20.7975C9.66311 20.8048 9.67152 20.8156 9.67592 20.8281C9.99022 21.7704 10.6165 22.3845 11.5546 22.6705C11.5649 22.6733 11.5745 22.6783 11.5828 22.685C11.591 22.6917 11.5978 22.7001 11.6026 22.7096C11.6075 22.7191 11.6103 22.7295 11.6109 22.7402C11.6115 22.7508 11.6099 22.7615 11.6061 22.7715C11.603 22.7813 11.5983 22.7905 11.592 22.7987C10.9257 23.5952 10.1736 24.7531 10.109 25.7707Z" fill="#8B8A8F"/>
<circle cx="20" cy="20" r="19.5" stroke="black" stroke-opacity="0.05"/>
</svg>
