<svg width="40" height="40" viewBox="0 0 40 40" fill="none" xmlns="http://www.w3.org/2000/svg">
<circle cx="20" cy="20" r="20" fill="#F6F8FA"/>
<path d="M35.0355 23.0403C34.5411 23.0543 34.0467 23.0543 33.5465 23.0543C33.5465 21.4051 33.5465 19.7726 33.5465 18.1043C33.4468 18.4335 33.3554 18.7318 33.266 19.0307C32.8797 20.3224 32.4925 21.6139 32.1103 22.9068C32.078 23.0162 32.0326 23.0548 31.9156 23.0526C31.4909 23.0448 31.0658 23.0495 30.6305 23.0495C30.1629 21.4141 29.6972 19.785 29.2196 18.1142C29.2196 19.7821 29.2196 21.4048 29.2196 23.0385C28.7272 23.0385 28.2255 23.0385 27.7158 23.0385C27.7158 20.8901 27.7158 18.7449 27.7158 16.5881C27.7593 16.5856 27.803 16.5809 27.8467 16.5809C28.5724 16.5804 29.2982 16.5831 30.0239 16.5779C30.1354 16.5771 30.1753 16.6149 30.205 16.7192C30.5804 18.0401 30.9611 19.3595 31.3407 20.6792C31.3553 20.7299 31.3732 20.7797 31.4044 20.8753C31.4822 20.62 31.5472 20.4088 31.611 20.1973C31.9598 19.0403 32.3103 17.8839 32.6537 16.7253C32.6869 16.6136 32.7306 16.577 32.8468 16.5778C33.5675 16.5824 34.2882 16.5788 35.0222 16.5728C35.0355 18.7204 35.0355 20.8733 35.0355 23.0403Z" fill="#02A2BC"/>
<path d="M20.6358 16.4473C20.8094 16.4672 20.9706 16.4791 21.1284 16.5088C21.476 16.5742 21.8226 16.6455 22.1676 16.7236C22.2052 16.7321 22.258 16.8031 22.255 16.8414C22.223 17.26 22.1814 17.6779 22.1417 18.0959C22.14 18.1144 22.132 18.1322 22.1233 18.1638C21.7748 17.9629 21.4105 17.831 21.0211 17.7844C20.4097 17.7112 19.8128 17.7653 19.2511 18.0382C18.7165 18.2979 18.3952 18.7265 18.2733 19.3073C18.1863 19.7216 18.1968 20.1334 18.3183 20.538C18.5372 21.2675 19.1593 21.7813 19.9278 21.8471C20.1829 21.869 20.4434 21.8338 20.7008 21.8159C20.8026 21.8088 20.8489 21.7502 20.8462 21.6337C20.8375 21.2601 20.843 20.8862 20.843 20.4987C20.5189 20.4987 20.2107 20.4987 19.8924 20.4987C19.8924 20.0824 19.8924 19.68 19.8924 19.2715C20.734 19.2715 21.5685 19.2715 22.4148 19.2715C22.4148 20.4652 22.4148 21.658 22.4148 22.8796C22.0871 22.9437 21.7531 23.0253 21.4143 23.072C20.7494 23.1636 20.0795 23.2124 19.4117 23.1122C18.3309 22.9501 17.4349 22.4888 16.893 21.4871C16.6954 21.1218 16.5876 20.7268 16.5492 20.3159C16.4905 19.6885 16.5233 19.0676 16.741 18.468C17.0998 17.4794 17.8389 16.9153 18.826 16.6652C19.2489 16.5581 19.6925 16.5325 20.133 16.4586C20.3001 16.4473 20.4609 16.4473 20.6358 16.4473Z" fill="#02A2BC"/>
<path d="M5.05492 23.0483C5.03927 23.0027 5.03539 22.9578 5.03538 22.913C5.03508 20.8405 5.03511 18.7681 5.0353 16.6956C5.0353 16.6657 5.03791 16.6358 5.04293 16.5932C5.85236 16.5809 6.65821 16.576 7.46393 16.5839C8.04589 16.5896 8.61991 16.6576 9.17151 16.8607C9.99076 17.1625 10.5217 17.731 10.7466 18.5745C10.9528 19.3481 10.9618 20.1303 10.7625 20.904C10.4764 22.0144 9.71699 22.6484 8.62764 22.8945C8.21638 22.9874 7.78785 23.03 7.3656 23.0427C6.60053 23.0657 5.83426 23.0491 5.05492 23.0483ZM6.67098 21.537C6.67098 21.6097 6.67098 21.6823 6.67098 21.7773C7.03902 21.7613 7.39102 21.7726 7.73503 21.7256C8.43075 21.6304 8.90956 21.25 9.10473 20.5596C9.24347 20.0688 9.243 19.5711 9.10573 19.0801C8.95943 18.5568 8.63503 18.1872 8.11824 17.9953C7.65055 17.8217 7.16618 17.8692 6.67097 17.8658C6.67097 19.0893 6.67097 20.2982 6.67098 21.537Z" fill="#242021"/>
<path d="M15.8397 17.2342C16.3191 17.7984 16.2462 19.0225 15.6716 19.4841C15.4733 19.6433 15.234 19.7514 15.0336 19.8708C15.2687 19.9407 15.4307 20.1433 15.5222 20.4017C15.83 21.271 16.1308 22.1429 16.4337 23.014C16.4366 23.0223 16.4318 23.0333 16.4299 23.049C15.8954 23.049 15.3603 23.0471 14.8253 23.051C14.7393 23.0517 14.7194 23.0115 14.6982 22.9411C14.5532 22.4588 14.4113 21.9753 14.2517 21.4978C14.1796 21.2818 14.0823 21.0714 13.973 20.8712C13.8382 20.6244 13.6121 20.5051 13.331 20.4975C13.1919 20.4937 13.0527 20.4968 12.8982 20.4968C12.8982 21.3487 12.8982 22.191 12.8982 23.0411C12.3448 23.0411 11.8069 23.0411 11.2598 23.0411C11.2598 20.8916 11.2598 18.7436 11.2598 16.5818C11.3115 16.5818 11.3605 16.5818 11.4095 16.5818C12.3551 16.5818 13.3007 16.5768 14.2462 16.5838C14.7779 16.5878 15.2771 16.7077 15.6882 17.0744C15.7401 17.1208 15.7848 17.1751 15.8397 17.2342ZM12.8973 18.8045C12.8973 18.9531 12.8973 19.1018 12.8973 19.2898C13.2693 19.2614 13.6288 19.2575 13.9797 19.2006C14.3238 19.1448 14.4972 18.9019 14.5086 18.5545C14.5197 18.2144 14.3627 17.9936 14.0208 17.8923C13.6574 17.7847 13.2833 17.8034 12.8973 17.8048C12.8973 18.1373 12.8973 18.4559 12.8973 18.8045Z" fill="#252122"/>
<path d="M26.3259 23.0496C25.1759 23.0496 24.0409 23.0496 22.8955 23.0496C22.8955 20.893 22.8955 18.7486 22.8955 16.5923C24.3347 16.5923 25.7725 16.5923 27.2186 16.5923C27.2186 16.9914 27.2186 17.3888 27.2186 17.801C26.3274 17.801 25.4394 17.801 24.5403 17.801C24.5403 18.2475 24.5403 18.6795 24.5403 19.1278C25.3805 19.1278 26.2183 19.1278 27.0665 19.1278C27.0665 19.5461 27.0665 19.9484 27.0665 20.3657C26.2284 20.3657 25.3896 20.3657 24.54 20.3657C24.54 20.8527 24.54 21.3248 24.54 21.8106C25.4606 21.8106 26.3791 21.8106 27.3097 21.8106C27.3097 22.2258 27.3097 22.6278 27.3097 23.0496C26.9879 23.0496 26.6645 23.0496 26.3259 23.0496Z" fill="#03A2BD"/>
<circle cx="20" cy="20" r="19.5" stroke="black" stroke-opacity="0.05"/>
</svg>
