<svg width="40" height="40" viewBox="0 0 40 40" fill="none" xmlns="http://www.w3.org/2000/svg">
<circle cx="20" cy="20" r="20" fill="#124A85"/>
<circle cx="20" cy="20" r="19.5" stroke="black" stroke-opacity="0.05"/>
<g clip-path="url(#clip0_14382_20435)">
<path fill-rule="evenodd" clip-rule="evenodd" d="M16.0038 10.0076H20.4053C23.2666 10.0076 24.6979 11.8961 24.6979 15.6719C24.6979 17.1784 24.4446 18.3631 23.9379 19.2261C23.4313 20.0886 22.7992 20.632 22.043 20.8575C21.2856 21.0821 20.1705 21.205 18.6979 21.2261V29.9974H16.0038V10.0076ZM18.6979 19.1399C19.8362 19.1399 20.651 18.9098 21.1425 18.4496C21.6331 17.9894 21.8784 17.0635 21.8784 15.6719C21.8784 14.2702 21.6643 13.3185 21.2362 12.8169C20.8081 12.3145 19.962 12.0633 18.6979 12.0633V19.1399Z" fill="white"/>
</g>
<defs>
<clipPath id="clip0_14382_20435">
<rect width="8.7017" height="20" fill="white" transform="translate(16 10)"/>
</clipPath>
</defs>
</svg>
