<svg width="40" height="40" viewBox="0 0 40 40" fill="none" xmlns="http://www.w3.org/2000/svg">
<circle cx="20" cy="20" r="20" fill="#F6F8FA"/>
<g clip-path="url(#clip0_19604_30843)">
<path d="M8 19.545C8.33068 19.2781 8.31474 18.8458 8.50199 18.5052C9.4243 16.8339 11.3745 15.9514 13.2311 16.3936C15.0518 16.8279 16.3028 18.3956 16.3924 20.3538C16.4821 22.3319 17.7271 23.7602 19.6135 24.051C21.1096 24.2821 22.7849 23.2462 23.3805 21.7303C23.6016 21.1665 23.6195 20.5709 23.6813 19.9813C23.8964 17.8657 25.6076 16.3299 27.7649 16.3159C30.0239 16.3 31.7351 17.8299 31.9741 20.0769C32.1972 22.1685 30.7928 24.1167 28.747 24.541C28.4243 24.6088 28.0956 24.6625 27.7669 24.6884C25.7331 24.8438 24.3367 26.0112 24.2331 28.0112C24.1036 30.4952 22.8426 31.8677 20.5438 32.4713H19.1494C16.8745 31.9255 15.8625 30.7761 15.5438 28.3717C15.241 26.0809 14.3287 25.1805 12.0876 24.9554C9.77888 24.7243 8.44024 23.4733 8 21.1367V19.545Z" fill="#0070B1"/>
<path d="M20.7451 8.21045C21.508 8.50726 22.2769 8.77818 22.8925 9.36981C24.2829 10.7085 24.6295 12.7842 23.7112 14.4734C22.8247 16.1049 20.9104 16.9555 19.0479 16.5471C17.253 16.1547 15.8566 14.4256 15.7909 12.5132C15.7291 10.7503 16.9821 9.00527 18.7152 8.43156C18.9283 8.36184 19.1913 8.42758 19.3526 8.21045H20.7471H20.7451Z" fill="#569DCF"/>
</g>
<circle cx="20" cy="20" r="19.5" stroke="black" stroke-opacity="0.05"/>
<defs>
<clipPath id="clip0_19604_30843">
<rect width="24" height="24.261" fill="white" transform="translate(8 8.21045)"/>
</clipPath>
</defs>
</svg>
