<svg width="40" height="40" viewBox="0 0 40 40" fill="none" xmlns="http://www.w3.org/2000/svg">
<circle cx="20" cy="20" r="20" fill="#F6F8FA"/>
<g clip-path="url(#clip0_17752_43872)">
<path d="M30.8369 19.4796C30.8369 18.6215 30.8369 17.7698 30.8495 16.9118C30.8495 16.6405 30.8937 16.3629 30.9694 16.0916C30.9694 16.0727 30.9694 16.06 30.9504 16.0537L29.0451 15.5995C29.0451 15.5995 29.0261 15.5995 29.0198 15.6121L28.8116 15.9843C28.8116 15.9843 28.8116 16.0033 28.8116 16.0096L29.7832 16.5711C29.7832 16.5711 29.8085 16.5963 29.8085 16.6152V19.8077L27.676 19.4228C27.6381 19.3976 27.6255 19.3723 27.6381 19.3408C28.0104 18.6342 28.2754 17.9149 28.4331 17.1831C28.4331 17.1641 28.4331 17.1515 28.4142 17.1515L27.3101 16.8171L30.3258 11.0127C30.3258 11.0127 30.3448 11.0001 30.3574 11.0064L36.2186 15.0443C36.2186 15.0443 36.2375 15.0695 36.2186 15.0821L30.8306 19.4796H30.8369Z" fill="#00B2D5"/>
<path d="M26.2247 17.4353V17.2776C26.2247 17.2776 26.2247 17.246 26.2121 17.246L25.6758 17.0883L25.9029 11.4795C25.9029 11.4795 25.9092 11.4606 25.9281 11.4669L28.5338 12.9495C28.5338 12.9495 28.5528 12.9748 28.5464 12.9874L26.231 17.4479L26.2247 17.4353Z" fill="#00B2D5"/>
<path d="M11.0767 16.5647L10.1114 16.0095C10.1114 16.0095 10.0861 15.9843 10.0987 15.959L10.2754 15.6184C10.2754 15.6184 10.3006 15.5868 10.3259 15.5931L12.2249 16.0474C12.2249 16.0474 12.2502 16.06 12.2439 16.0789C12.1618 16.4133 12.1177 16.7098 12.1177 16.9622C12.1177 19.2083 12.1177 21.3912 12.1177 23.5237C12.1177 23.5363 12.1051 23.549 12.0924 23.549H11.1271C11.1271 23.549 11.1019 23.5363 11.1019 23.5237V16.5963C11.1019 16.5963 11.0956 16.5647 11.0767 16.5521V16.5647Z" fill="black"/>
<path d="M30.8366 19.4794V23.5362C30.8366 23.5362 30.8303 23.5551 30.8177 23.5551H29.8461C29.8461 23.5551 29.8208 23.5425 29.8208 23.5299V16.6024C29.8208 16.6024 29.8082 16.5709 29.7956 16.5583L28.824 15.9968C28.824 15.9968 28.8114 15.9841 28.8177 15.9715L29.0259 15.5993C29.0259 15.5993 29.0385 15.5867 29.0511 15.5867L30.9565 16.0409C30.9565 16.0409 30.9817 16.0599 30.9817 16.0788C30.906 16.3564 30.8682 16.6277 30.8618 16.899C30.8492 17.7507 30.8492 18.6088 30.8492 19.4668L30.8366 19.4794Z" fill="black"/>
<path d="M19.7641 19.9401V22.9937C19.7641 22.9937 19.7578 23.019 19.7389 23.019H18.8178C18.8178 23.019 18.7925 23.0127 18.7925 22.9937V17.1767C18.7925 17.1767 18.7862 17.1452 18.7673 17.1325L18.0417 16.6341C18.0417 16.6341 18.0228 16.6089 18.0291 16.59L18.2058 16.2871C18.2058 16.2871 18.231 16.2619 18.2499 16.2682L19.8398 16.7035C19.8398 16.7035 19.8651 16.7225 19.8588 16.7351C19.802 17.0001 19.7704 17.2524 19.7704 17.4985C19.7704 18.06 19.7641 18.5963 19.7704 19.1199C19.7704 19.1325 19.7768 19.1389 19.7894 19.1389H20.8178C20.8178 19.1389 20.8304 19.1325 20.8304 19.1199V16.7477C20.8304 16.7477 20.8178 16.7098 20.8051 16.7035L19.9282 16.1862C19.9282 16.1862 19.9092 16.1609 19.9156 16.142L20.1111 15.7824C20.1111 15.7824 20.1364 15.7572 20.1616 15.7635L21.9723 16.1736C21.9723 16.1736 21.9976 16.1862 21.9913 16.2051C21.8966 16.5143 21.8525 16.8108 21.8525 17.0947C21.8525 19.0821 21.8525 21.1199 21.8525 23.2146C21.8525 23.2209 21.8525 23.2272 21.8398 23.2272H20.8556C20.8556 23.2272 20.8304 23.2209 20.8304 23.202V19.9212C20.8304 19.9212 20.8178 19.8896 20.7988 19.8896H19.802C19.802 19.8896 19.7641 19.9023 19.7641 19.9275V19.9401Z" fill="black"/>
<path d="M27.3034 16.8043L28.4075 17.1387C28.4075 17.1387 28.4327 17.1576 28.4264 17.1703C28.2687 17.9021 28.01 18.6214 27.6315 19.328C27.6189 19.3532 27.6315 19.3848 27.6693 19.41L29.3097 20.8485C29.3097 20.8485 29.3223 20.8674 29.3097 20.88L28.6977 21.6561C28.6977 21.6561 28.6599 21.6813 28.6409 21.6561L27.316 19.9904C27.316 19.9904 27.2845 19.9715 27.2719 19.9904C26.8996 20.6024 26.4075 21.1955 25.9217 21.5804C25.7703 21.7002 25.6062 21.8201 25.4233 21.9337C25.4043 21.9463 25.3854 21.9463 25.3665 21.9337L25.1141 21.7192C25.1141 21.7192 25.1015 21.6939 25.1141 21.675C25.4107 21.3595 25.6819 20.9999 25.9343 20.6024C25.9406 20.5898 25.9343 20.5772 25.9343 20.5646L25.2592 19.6624C25.2592 19.6624 25.2403 19.6498 25.2277 19.6624C24.7797 20.3753 24.2119 20.9684 23.5242 21.4416C23.5053 21.4542 23.4864 21.4542 23.4737 21.4416L23.234 21.2397C23.234 21.2397 23.2151 21.2018 23.234 21.1892C23.5747 20.8233 23.8838 20.4132 24.1678 19.9589C24.6031 19.2649 24.9879 18.4447 24.9943 17.6371C24.9943 17.5993 24.9816 17.5677 24.9564 17.5425L24.4769 17.1009C24.4769 17.1009 24.458 17.0693 24.4769 17.0504L24.6346 16.8106C24.6346 16.8106 24.6599 16.7854 24.6788 16.7917L25.6819 17.0819L26.2182 17.2397C26.2182 17.2397 26.2435 17.2586 26.2435 17.2712V17.4289C26.1678 17.6624 26.0984 17.9021 26.029 18.1356C25.9532 18.3879 25.8208 18.6971 25.6189 19.0567C25.6062 19.0756 25.6125 19.0882 25.6252 19.1009L26.3823 19.8012C26.3823 19.8012 26.4138 19.8138 26.4201 19.7949L26.6977 19.227C26.9564 18.6908 27.152 18.104 27.1709 17.5046C27.1709 17.4857 27.1709 17.4731 27.1583 17.4542C27.1204 17.4037 27.0826 17.3658 27.0321 17.3406L26.6662 16.9873C26.6662 16.9873 26.6472 16.9494 26.6599 16.9305L26.8176 16.6781C26.8176 16.6781 26.8428 16.6529 26.8618 16.6592L27.316 16.798L27.3034 16.8043Z" fill="black"/>
<path d="M4.96289 17.713V17.6625L5.05122 17.2777C5.05122 17.2777 5.06384 17.2524 5.08276 17.2524H9.53702C9.53702 17.2524 9.56226 17.2588 9.56226 17.2777V17.9212C9.56226 17.9212 9.55595 17.9464 9.53702 17.9464H6.57803C6.57803 17.9464 6.56541 17.9464 6.56541 17.9591V20.6531C6.56541 20.6531 6.57803 20.6783 6.59065 20.6783C7.44869 20.6846 8.30043 20.6657 9.15216 20.6152C9.5875 20.59 9.94712 20.5584 10.2373 20.5206C10.2436 20.5206 10.25 20.5206 10.25 20.5332V21.1641C10.25 21.1641 10.2373 21.2083 10.2121 21.2083C9.63166 21.2714 9.03229 21.3218 8.4203 21.3471C7.47393 21.3912 6.50232 21.3786 5.57488 21.3723C5.56226 21.3723 5.54964 21.3597 5.54964 21.3471V17.9275C5.54964 17.9275 5.54333 17.9023 5.5244 17.896L4.96289 17.713Z" fill="black"/>
<path d="M18.2434 19.4039C18.2434 20.59 17.2466 21.5553 16.0226 21.549C14.7986 21.549 13.8081 20.5837 13.8081 19.3912C13.8081 18.2051 14.805 17.2398 16.0289 17.2461C17.2529 17.2461 18.2434 18.2114 18.2434 19.4039ZM16.0226 20.8676C16.6472 20.8676 17.152 20.2114 17.152 19.4039C17.152 18.5963 16.6472 17.9401 16.0226 17.9401C15.398 17.9401 14.8933 18.5963 14.8933 19.4039C14.8933 20.2114 15.398 20.8676 16.0226 20.8676Z" fill="black"/>
<path d="M26.6854 19.2334L26.1302 19.1388C26.1302 19.1388 26.105 19.1198 26.105 19.1072C26.105 19.1072 26.105 19.1072 26.105 19.1009L27.0135 17.3533C27.0577 17.3785 27.1018 17.4227 27.1397 17.4668C27.1523 17.4795 27.1523 17.4984 27.1523 17.5173C27.1334 18.1167 26.9378 18.7034 26.6791 19.2397L26.6854 19.2334Z" fill="#00B2D5"/>
<path d="M18.2943 26.0537H21.739C21.739 26.0537 21.7643 26.06 21.7643 26.0789V26.7287C21.7643 26.7287 21.7643 26.7414 21.7517 26.7414H17.2659C17.2659 26.7414 17.2532 26.7414 17.2532 26.7287V24.1357C17.2532 24.1357 17.2406 24.0978 17.2217 24.0915L16.5466 23.7698C16.5466 23.7698 16.5277 23.7508 16.534 23.7382L16.6854 23.3849C16.6854 23.3849 16.7043 23.366 16.717 23.366L18.37 23.612C18.37 23.612 18.3952 23.6246 18.3889 23.6436C18.3069 23.9086 18.2627 24.1357 18.2564 24.3376C18.2438 24.8423 18.2438 25.4038 18.2564 26.0221C18.2564 26.0474 18.269 26.06 18.2943 26.06V26.0537Z" fill="black"/>
<path d="M25.146 27.0001H24.7359V24.7099C24.7359 24.7099 24.7233 24.672 24.7107 24.6657L24.4204 24.4827C24.4204 24.4827 24.3952 24.4575 24.4078 24.4323L24.4646 24.3187C24.4646 24.3187 24.4962 24.2935 24.5151 24.2935L25.1649 24.4512C25.1649 24.4512 25.1965 24.4701 25.1902 24.4953C25.1712 24.5774 25.1523 24.6657 25.1523 24.7477C25.1523 25.4985 25.1523 26.2493 25.1523 26.9938L25.146 27.0001Z" fill="black"/>
<path d="M28.0416 27H27.6315V24.7161C27.6315 24.7161 27.6189 24.6656 27.6 24.653L27.3224 24.4827C27.3224 24.4827 27.2908 24.4448 27.3098 24.4196C27.3287 24.3943 27.3476 24.3628 27.3539 24.3312C27.3602 24.306 27.3792 24.2934 27.4107 24.2997L28.0605 24.4574C28.0605 24.4574 28.0921 24.4764 28.0858 24.5016C28.0669 24.6025 28.0416 24.6972 28.0479 24.7981C28.0479 25.5363 28.0479 26.2682 28.0479 27.0063L28.0416 27Z" fill="black"/>
<path d="M30.9692 27.0001H30.5591V25.6752C30.5591 25.6752 30.5528 25.65 30.5402 25.65H30.1364C30.1364 25.65 30.0986 25.6626 30.0923 25.6815C29.9345 26.0979 29.6254 26.2872 29.1585 26.2493C28.5213 26.1925 28.25 25.3534 28.7547 24.956C29.209 24.5963 29.903 24.7541 30.0923 25.3345C30.0923 25.3534 30.1112 25.3597 30.1301 25.3597H30.5339C30.5339 25.3597 30.5654 25.3471 30.5654 25.3282V24.7099C30.5654 24.7099 30.5528 24.672 30.5402 24.6657L30.25 24.4891C30.25 24.4891 30.2247 24.4575 30.2374 24.4386L30.2878 24.325C30.2878 24.325 30.3131 24.2998 30.3383 24.2998L30.9818 24.4575C30.9818 24.4575 31.0134 24.4765 31.0071 24.4954C30.9882 24.6026 30.9818 24.7036 30.9818 24.8108C30.9818 25.5427 30.9818 26.2683 30.9818 27.0001H30.9692ZM29.291 25.978C29.4929 25.978 29.6506 25.7698 29.6506 25.5049C29.6506 25.2399 29.4866 25.0317 29.291 25.0317C29.0954 25.0317 28.9314 25.2399 28.9314 25.5049C28.9314 25.7698 29.0954 25.978 29.291 25.978Z" fill="black"/>
<path d="M22.8491 25.101L22.704 25.0632C22.704 25.0632 22.6788 25.0443 22.6851 25.0316L22.7103 24.8739C22.7103 24.8739 22.7229 24.855 22.7356 24.855H24.2371C24.2371 24.855 24.2624 24.8676 24.2624 24.8802V26.2682C24.2624 26.2682 24.2498 26.2935 24.2371 26.2935H22.8933C22.8933 26.2935 22.8681 26.2808 22.8681 26.2682V25.1263C22.8681 25.1263 22.8618 25.101 22.8491 25.101ZM23.8523 25.1389C23.8523 25.1389 23.846 25.12 23.8334 25.12H23.3034C23.3034 25.12 23.2845 25.1263 23.2845 25.1389V25.9969C23.2845 25.9969 23.2908 26.0159 23.3034 26.0159H23.8334C23.8334 26.0159 23.8523 26.0096 23.8523 25.9969V25.1389Z" fill="black"/>
<path d="M26.1994 25.164V25.9716C26.1994 25.9716 26.212 26.0094 26.2309 26.0094C26.6284 26.0157 27.0133 25.9968 27.3855 25.9526C27.4107 25.9526 27.4171 25.959 27.4171 25.9842V26.1924C27.4171 26.1924 27.4107 26.2176 27.3918 26.2239C27.1395 26.2681 26.8871 26.2618 26.6284 26.2744C26.3571 26.2933 26.0732 26.2933 25.7893 26.287C25.783 26.287 25.7767 26.2807 25.7767 26.2681C25.7767 25.9022 25.7767 25.5236 25.7704 25.1388C25.7704 25.1009 25.7199 25.0757 25.6253 25.0631C25.6 25.0631 25.5874 25.0378 25.5874 25.0189L25.6 24.899C25.6 24.899 25.6126 24.8738 25.6253 24.8738H27.1584C27.1584 24.8738 27.1836 24.8801 27.1836 24.899V25.1009C27.1836 25.1009 27.1773 25.1261 27.1584 25.1261H26.2246C26.2246 25.1261 26.1868 25.1388 26.1868 25.164H26.1994Z" fill="black"/>
</g>
<circle cx="20" cy="20" r="19.5" stroke="black" stroke-opacity="0.05"/>
<defs>
<clipPath id="clip0_17752_43872">
<rect width="31.2681" height="16" fill="white" transform="translate(4.96289 11)"/>
</clipPath>
</defs>
</svg>
