<svg width="40" height="40" viewBox="0 0 40 40" fill="none" xmlns="http://www.w3.org/2000/svg">
<circle cx="20" cy="20" r="20" fill="#1B86C4"/>
<path d="M31.7831 19.9375C31.7797 19.9409 31.7777 19.9456 31.7777 19.9504C31.7777 19.9553 31.7797 19.96 31.7831 19.9634L31.7868 19.9662C31.8806 20.0256 31.9821 20.0787 32.0681 20.1537C32.3524 20.4037 32.454 20.7425 32.4503 21.1169C32.444 21.7309 32.0643 22.2419 31.4868 22.4431C31.2584 22.5189 31.0194 22.5578 30.7787 22.5581C30.3777 22.565 30.0432 22.565 29.7753 22.5581C29.3363 22.5456 29.0057 22.3411 28.7834 21.9447C28.6821 21.764 28.6584 21.5606 28.6603 21.3372C28.6644 20.479 28.6652 19.6834 28.6624 18.9503C28.6624 18.7355 28.7293 18.5236 28.8631 18.3147C29.0279 18.0545 29.2844 17.8656 29.5818 17.7856C29.7252 17.7494 29.8728 17.7332 30.0206 17.7375L30.8912 17.7431C31.0575 17.7466 31.2224 17.7746 31.3806 17.8262C32.0243 18.0262 32.3206 18.624 32.2024 19.2697C32.1629 19.4818 32.0614 19.6775 31.9109 19.8322C31.8721 19.8712 31.824 19.8984 31.7831 19.9375ZM28.9124 21.6131C29.0187 22.0487 29.3753 22.324 29.8187 22.3256C30.1312 22.3269 30.4279 22.3269 30.7087 22.3256C31.1149 22.3231 31.5259 22.2515 31.8337 21.9634C32.1118 21.703 32.2368 21.3762 32.2087 20.9831C32.1837 20.6284 32.0121 20.3512 31.6918 20.1909C31.4928 20.0912 31.4912 19.8643 31.6571 19.7334C31.869 19.5667 31.9794 19.3397 31.9884 19.0522C32.0099 18.3528 31.4999 17.979 30.8465 17.9772C30.5678 17.9772 30.2888 17.9758 30.0096 17.9731C29.8766 17.9678 29.7436 17.9836 29.6156 18.02C29.4791 18.062 29.353 18.1322 29.2453 18.226C29.1377 18.3199 29.0509 18.4352 28.9906 18.5647C28.9304 18.6848 28.8979 18.8169 28.8956 18.9512C28.8931 19.7541 28.8931 20.5968 28.8956 21.4794C28.896 21.5244 28.9017 21.5693 28.9124 21.6131Z" fill="white"/>
<path d="M35.9999 21.2515V21.4421C35.957 21.8434 35.775 22.151 35.454 22.3649C35.3371 22.4423 35.2072 22.4978 35.0705 22.5287C34.9355 22.5532 34.7983 22.5637 34.6612 22.5599C34.0591 22.5616 33.4567 22.5616 32.854 22.5599C32.8526 22.5601 32.8511 22.56 32.8498 22.5596C32.8484 22.5591 32.8472 22.5584 32.8462 22.5574C32.8452 22.5564 32.8445 22.5551 32.844 22.5538C32.8436 22.5524 32.8434 22.551 32.8437 22.5496V22.338C32.8437 22.3355 32.8437 22.3343 32.8477 22.3343C33.4311 22.3243 33.9961 22.3227 34.5427 22.3296C34.7854 22.3327 34.9575 22.3186 35.059 22.2871C35.3702 22.1902 35.5853 21.9885 35.7043 21.6818C35.8765 21.2377 35.673 20.7312 35.2171 20.5796C35.1013 20.5443 34.9803 20.5288 34.8593 20.534C34.5676 20.5396 34.2864 20.5396 34.0155 20.534C33.7974 20.5294 33.5845 20.4668 33.3987 20.3524C32.8412 20.0137 32.6087 19.3887 32.7965 18.7599C32.8486 18.5832 32.936 18.4188 33.0533 18.2768C33.349 17.9193 33.7443 17.7404 34.2393 17.7402C34.7039 17.7402 35.1602 17.7402 35.6083 17.7402C35.6149 17.7402 35.618 17.7434 35.618 17.7496V17.9618C35.618 17.9651 35.6167 17.9683 35.6144 17.9706C35.612 17.973 35.6088 17.9743 35.6055 17.9743C35.1443 17.9716 34.6639 17.9724 34.1643 17.9768C34.0382 17.9787 33.9133 18.0004 33.794 18.0412C33.049 18.289 32.7037 19.2265 33.2024 19.8624C33.3478 20.0527 33.5503 20.1915 33.7802 20.2584C33.895 20.2921 34.0565 20.3073 34.2646 20.304C34.5275 20.3 34.7765 20.3 35.0115 20.304C35.1295 20.3064 35.2461 20.3308 35.3552 20.3759C35.7296 20.5371 35.9445 20.829 35.9999 21.2515Z" fill="white"/>
<path d="M20.5626 22.5303C20.4961 22.5006 20.4396 22.4524 20.3997 22.3915C20.3599 22.3305 20.3384 22.2594 20.3379 22.1866C20.3379 20.7551 20.3379 19.3023 20.3379 17.8281C20.3378 17.8272 20.3379 17.8263 20.3382 17.8255C20.3385 17.8247 20.339 17.8239 20.3396 17.8233C20.3403 17.8226 20.341 17.8222 20.3419 17.8219C20.3427 17.8216 20.3436 17.8215 20.3445 17.8216H20.5667C20.5698 17.8216 20.5714 17.8231 20.5714 17.8266C20.5714 19.2157 20.5714 20.6583 20.5714 22.1544C20.5714 22.2753 20.6392 22.3266 20.7498 22.3266C21.7929 22.3266 22.8358 22.3254 23.8786 22.3231C23.8799 22.323 23.8813 22.3231 23.8825 22.3236C23.8838 22.324 23.885 22.3248 23.886 22.3257C23.8869 22.3267 23.8876 22.3279 23.8881 22.3291C23.8885 22.3304 23.8887 22.3318 23.8886 22.3331V22.5559C23.8886 22.5588 23.8886 22.5603 23.8845 22.5603C22.852 22.5603 21.8306 22.5609 20.8204 22.5622C20.7011 22.5632 20.6151 22.5526 20.5626 22.5303Z" fill="white"/>
<path d="M26.2248 18.1386L24.3513 22.4683C24.3502 22.4724 24.3482 22.4761 24.3454 22.4792C24.3426 22.4824 24.339 22.4848 24.3351 22.4863C24.3312 22.4878 24.327 22.4884 24.3228 22.488C24.3186 22.4876 24.3146 22.4862 24.311 22.484L24.1488 22.4108C24.145 22.4097 24.1414 22.4078 24.1384 22.4051C24.1354 22.4023 24.1331 22.399 24.1316 22.3952C24.1302 22.3914 24.1296 22.3874 24.13 22.3834C24.1304 22.3794 24.1317 22.3755 24.1338 22.3721C24.7649 20.915 25.3967 19.4554 26.0292 17.9933C26.1138 17.798 26.3617 17.8199 26.4448 18.0093C27.0906 19.4813 27.7277 20.9335 28.356 22.3658C28.3588 22.37 28.3606 22.3748 28.3612 22.3798C28.3617 22.3848 28.3611 22.3898 28.3593 22.3945C28.3575 22.3992 28.3545 22.4034 28.3508 22.4067C28.347 22.4101 28.3425 22.4124 28.3376 22.4136L28.1848 22.4824C28.1807 22.4847 28.1762 22.4861 28.1716 22.4865C28.167 22.4868 28.1623 22.4861 28.1579 22.4844C28.1536 22.4828 28.1497 22.4801 28.1465 22.4768C28.1433 22.4734 28.1409 22.4693 28.1395 22.4649L26.2423 18.1386C26.2411 18.1364 26.2392 18.1346 26.2368 18.1338C26.2344 18.1329 26.2318 18.133 26.2295 18.134C26.2274 18.1349 26.2257 18.1366 26.2248 18.1386Z" fill="white"/>
<path d="M15.4917 19.0716C15.1742 18.2951 14.3845 17.8807 13.5608 18.0601C12.8458 18.2163 12.3998 18.7491 12.2951 19.4663C12.2758 19.6224 12.2676 19.7797 12.2704 19.937C12.2727 20.7661 12.2733 21.589 12.272 22.4057C12.2725 22.4089 12.2722 22.4121 12.2711 22.4151C12.2701 22.4181 12.2683 22.4208 12.2661 22.423C12.2638 22.4252 12.261 22.4268 12.2579 22.4277C12.2549 22.4286 12.2517 22.4288 12.2486 22.4282L12.1701 22.4263C12.168 22.4266 12.1658 22.4264 12.1638 22.4257C12.1618 22.425 12.16 22.4238 12.1585 22.4222C12.157 22.4207 12.1559 22.4188 12.1552 22.4167C12.1546 22.4147 12.1545 22.4125 12.1548 22.4104C12.1548 21.5771 12.1543 20.7421 12.1533 19.9054C12.1484 19.7123 12.1632 19.5192 12.1976 19.3291C12.3611 18.5626 12.8851 18.026 13.682 17.9188C14.7004 17.782 15.5951 18.4629 15.7133 19.4901C15.7758 20.0341 15.5845 20.4779 15.2573 20.8963C15.1767 20.9998 15.1124 21.115 15.0667 21.2379C14.8929 21.7007 15.1748 22.0838 15.5179 22.3607C15.5226 22.3637 15.5266 22.3676 15.5296 22.3723C15.5327 22.3769 15.5347 22.3821 15.5355 22.3876C15.5363 22.3931 15.536 22.3987 15.5344 22.404C15.5329 22.4094 15.5303 22.4143 15.5267 22.4185L15.5067 22.4479C15.5047 22.4529 15.5015 22.4573 15.4973 22.4607C15.4931 22.4641 15.4881 22.4663 15.4828 22.4672C15.4774 22.4681 15.472 22.4676 15.4669 22.4657C15.4619 22.4639 15.4574 22.4607 15.4539 22.4566C15.2433 22.2973 15.0885 22.1183 14.9895 21.9198C14.7973 21.5338 14.927 21.1204 15.177 20.802C15.427 20.4835 15.6161 20.0926 15.6089 19.6891C15.6084 19.4778 15.5687 19.2684 15.4917 19.0716Z" fill="white"/>
<path d="M9.56087 18.0428C9.53399 18.0328 9.51555 18.0391 9.50587 18.0616C8.80983 19.6697 8.1791 21.1267 7.61368 22.4325C7.61211 22.4389 7.60901 22.4448 7.60465 22.4498C7.6003 22.4547 7.59481 22.4585 7.58866 22.4608C7.58251 22.4631 7.57589 22.464 7.56936 22.4632C7.56283 22.4624 7.55659 22.46 7.55118 22.4563L7.52712 22.4457C7.5217 22.4441 7.51672 22.4413 7.51252 22.4375C7.50833 22.4337 7.50503 22.4291 7.50287 22.4238C7.50072 22.4186 7.49975 22.413 7.50005 22.4074C7.50036 22.4017 7.50191 22.3962 7.50462 22.3913C7.5318 22.3197 7.55993 22.251 7.58837 22.1847C8.1992 20.7791 8.79983 19.3936 9.39024 18.0282C9.45274 17.8807 9.63555 17.8838 9.69899 18.0282C10.3448 19.4971 10.983 20.9513 11.6134 22.3907C11.6161 22.3948 11.6178 22.3995 11.6184 22.4045C11.6189 22.4094 11.6183 22.4144 11.6165 22.4191C11.6147 22.4237 11.6119 22.4279 11.6082 22.4312C11.6045 22.4345 11.6001 22.4369 11.5952 22.4382L11.5577 22.455C11.5529 22.4581 11.5473 22.46 11.5416 22.4606C11.5358 22.4612 11.53 22.4604 11.5246 22.4583C11.5192 22.4563 11.5144 22.453 11.5105 22.4487C11.5066 22.4445 11.5037 22.4393 11.5021 22.4338L9.58743 18.0678C9.58491 18.0621 9.58126 18.0569 9.5767 18.0526C9.57213 18.0483 9.56675 18.045 9.56087 18.0428Z" fill="white"/>
<path d="M4 20.2972V20.1469C4.00729 20.0363 4.01771 19.9269 4.03125 19.8188C4.15188 18.9122 4.7975 17.9513 5.8125 17.9463C6.19563 17.9444 6.58104 17.9461 6.96875 17.9513C6.97195 17.9509 6.97521 17.9512 6.97827 17.9523C6.98133 17.9533 6.9841 17.9551 6.98637 17.9574C6.98864 17.9597 6.99034 17.9625 6.99135 17.9655C6.99236 17.9686 6.99265 17.9719 6.99219 17.9751V18.0354C6.99278 18.0387 6.99257 18.0421 6.99156 18.0454C6.99055 18.0486 6.98878 18.0516 6.98639 18.054C6.984 18.0564 6.98107 18.0582 6.97783 18.0593C6.9746 18.0603 6.97117 18.0606 6.96781 18.0601C6.59448 18.0601 6.19656 18.0613 5.77406 18.0638C5.55677 18.0655 5.33729 18.1291 5.11563 18.2547C4.63719 18.5269 4.32469 19.0504 4.19531 19.5879C4.08969 20.0218 4.09377 20.4753 4.20719 20.9072C4.37625 21.5635 4.82719 22.1904 5.51563 22.3535C5.61521 22.377 5.79229 22.3882 6.04688 22.3869C6.34583 22.3853 6.65208 22.3862 6.96563 22.3897C6.97218 22.3898 6.97844 22.3924 6.98311 22.397C6.98777 22.4016 6.99046 22.4079 6.99063 22.4144V22.4732C6.99127 22.4769 6.99103 22.4807 6.98991 22.4842C6.9888 22.4878 6.98684 22.4911 6.98421 22.4937C6.98158 22.4964 6.97835 22.4984 6.97479 22.4995C6.97123 22.5007 6.96744 22.501 6.96375 22.5004C6.68146 22.4985 6.39323 22.4998 6.09906 22.5044C5.82365 22.5088 5.61927 22.4963 5.48594 22.4669C4.9375 22.3451 4.5 21.9101 4.2625 21.4007C4.1011 21.0545 4.01179 20.679 4 20.2972Z" fill="white"/>
<path d="M16.3627 20.3105C16.3923 20.8907 16.5617 21.3758 16.8708 21.7658C17.1743 22.1493 17.5933 22.3908 18.0871 22.3855C18.4777 22.3816 18.8575 22.3858 19.2264 22.3983C19.2276 22.3982 19.2287 22.3986 19.2295 22.3993C19.2304 22.4 19.231 22.401 19.2311 22.4021C19.2385 22.4305 19.2395 22.4601 19.2343 22.489C19.2342 22.4898 19.234 22.4906 19.2337 22.4913C19.2333 22.492 19.2328 22.4927 19.2322 22.4932C19.2316 22.4937 19.2309 22.4941 19.2301 22.4943C19.2293 22.4946 19.2285 22.4947 19.2277 22.4946C18.9331 22.4973 18.631 22.5005 18.3214 22.5043C18.0358 22.5078 17.8307 22.4936 17.7061 22.4618C17.2374 22.343 16.8599 22.018 16.6164 21.6071C16.3206 21.1071 16.2034 20.5459 16.2649 19.9236C16.3599 18.9511 17.0096 17.948 18.0855 17.9446C18.4605 17.9446 18.837 17.9469 19.2149 17.9515C19.2181 17.9511 19.2213 17.9515 19.2244 17.9526C19.2274 17.9536 19.2302 17.9554 19.2324 17.9576C19.2347 17.9599 19.2365 17.9627 19.2375 17.9657C19.2386 17.9688 19.239 17.972 19.2386 17.9752V18.023C19.2386 18.0313 19.2353 18.0393 19.2295 18.0451C19.2236 18.051 19.2157 18.0543 19.2074 18.0543C18.9213 18.0616 18.611 18.063 18.2764 18.0586C18.0381 18.0555 17.8549 18.0703 17.7268 18.103C16.8383 18.3299 16.3889 19.2999 16.3621 20.1393C16.3613 20.1432 16.3616 20.1473 16.3627 20.1511C16.3638 20.155 16.3659 20.1585 16.3687 20.1614C16.3715 20.1643 16.3749 20.1665 16.3787 20.1678C16.3825 20.1691 16.3865 20.1695 16.3905 20.169H19.2189C19.2212 20.1686 19.2235 20.1688 19.2256 20.1696C19.2277 20.1703 19.2297 20.1715 19.2313 20.1731C19.2329 20.1747 19.234 20.1767 19.2347 20.1788C19.2354 20.181 19.2356 20.1833 19.2352 20.1855V20.2636C19.2356 20.2669 19.2353 20.2702 19.2342 20.2733C19.2331 20.2764 19.2314 20.2792 19.229 20.2815C19.2267 20.2838 19.2239 20.2855 19.2208 20.2865C19.2177 20.2876 19.2144 20.2879 19.2111 20.2874H16.3849C16.3818 20.2869 16.3786 20.2872 16.3756 20.2883C16.3727 20.2893 16.37 20.291 16.3678 20.2932C16.3657 20.2955 16.3641 20.2983 16.3632 20.3013C16.3623 20.3043 16.3621 20.3074 16.3627 20.3105Z" fill="white"/>
<circle cx="20" cy="20" r="19.5" stroke="black" stroke-opacity="0.05"/>
</svg>
