<svg width="40" height="40" viewBox="0 0 40 40" fill="none" xmlns="http://www.w3.org/2000/svg">
<circle cx="20" cy="20" r="20" fill="#F6F8FA"/>
<path d="M9.00469 14.9601C9.00469 12.2072 11.116 10.5729 13.6426 10.1178C14.2108 10.0291 14.7856 9.99035 15.3605 10.002C20.628 10.0089 25.8266 10.0089 30.9562 10.002C30.9612 10.002 30.9661 10.003 30.9707 10.005C30.9753 10.0069 30.9795 10.0098 30.983 10.0134C30.9865 10.017 30.9892 10.0213 30.991 10.0259C30.9928 10.0306 30.9936 10.0356 30.9934 10.0406V14.2838C30.9934 14.2988 30.9875 14.3132 30.9769 14.3238C30.9663 14.3344 30.9519 14.3404 30.9369 14.3404C25.605 14.3464 20.3653 14.3429 15.2178 14.3301C14.0232 14.3301 13.3597 14.7158 13.3688 15.9772C13.3825 17.8905 13.3825 19.7434 13.3688 21.5358C13.3688 21.5457 13.3648 21.5552 13.3578 21.5622C13.3508 21.5692 13.3414 21.5731 13.3315 21.5731H9.07541C9.06577 21.5746 9.0559 21.5739 9.04661 21.5709C9.03733 21.5679 9.02889 21.5627 9.02198 21.5558C9.01508 21.5489 9.00991 21.5405 9.00691 21.5312C9.0039 21.5219 9.00314 21.512 9.00469 21.5024C9.0064 19.1699 9.0064 16.9892 9.00469 14.9601Z" fill="#00A0EA"/>
<path d="M25.2674 24.6924C25.4443 24.6938 25.6197 24.6601 25.7835 24.5934C25.9473 24.5267 26.0963 24.4283 26.222 24.3037C26.3476 24.1792 26.4473 24.031 26.5154 23.8678C26.5835 23.7046 26.6187 23.5295 26.6188 23.3526C26.6188 21.4204 26.6188 19.4797 26.6188 17.5304C26.6173 17.5208 26.6181 17.5109 26.6211 17.5016C26.6241 17.4923 26.6292 17.4839 26.6361 17.477C26.643 17.4701 26.6515 17.4649 26.6608 17.4619C26.6701 17.4589 26.6799 17.4582 26.6896 17.4597H30.8968C30.9095 17.4577 30.9226 17.4588 30.9349 17.4628C30.9472 17.4668 30.9583 17.4737 30.9675 17.4828C30.9766 17.492 30.9835 17.5032 30.9875 17.5154C30.9915 17.5277 30.9926 17.5408 30.9906 17.5536C30.9838 19.8209 30.9863 21.9151 30.9983 23.8361C31.0112 24.3591 30.9493 24.8813 30.8145 25.3868C30.2371 27.3798 28.4267 28.5666 26.4157 28.9202C25.741 29.019 25.0594 29.062 24.3777 29.0488C19.1864 29.0333 14.074 29.0308 9.04043 29.0411C9.01343 29.0411 9.00057 29.0282 9.00057 29.0025V24.7593C8.99929 24.75 9.00017 24.7406 9.00314 24.7318C9.00611 24.7229 9.0111 24.7149 9.0177 24.7083C9.0243 24.7017 9.03235 24.6967 9.0412 24.6937C9.05005 24.6907 9.05947 24.6899 9.06872 24.6911C14.7683 24.6937 20.1679 24.6941 25.2674 24.6924Z" fill="#01358B"/>
<circle cx="20" cy="20" r="19.5" stroke="black" stroke-opacity="0.05"/>
</svg>
