<svg width="40" height="40" viewBox="0 0 40 40" fill="none" xmlns="http://www.w3.org/2000/svg">
<circle cx="20" cy="20" r="20" fill="#F6F8FA"/>
<g clip-path="url(#clip0_22307_36325)">
<path d="M7.8674 23.4602C7.65729 23.6808 7.29836 23.6808 7.08826 23.6808C6.70307 23.6808 6.38791 23.3985 6.38791 22.8955V22.4632C6.18656 23.0455 5.63503 23.6897 4.97845 23.6897C4.12053 23.6897 3.81412 22.9749 3.81412 22.022V19.2249C3.46395 19.2249 3.15754 19.2338 3.09626 19.2338C3.03498 19.2338 2.99121 19.1897 2.99121 19.1014C2.99121 19.0132 3.03498 18.9691 3.09626 18.9691C3.14004 18.9691 3.45519 19.0044 3.86665 19.0044C4.13803 19.0044 4.33939 18.9602 4.44444 18.9602C4.50572 18.9602 4.54949 19.0044 4.54949 19.1014V22.4367C4.54949 23.1073 4.72458 23.372 5.12728 23.372C5.72258 23.372 6.37915 22.3838 6.37915 21.1926V19.2161C6.02898 19.2161 5.73133 19.2249 5.64379 19.2249C5.60002 19.2249 5.53873 19.1808 5.53873 19.0926C5.53873 19.0044 5.60002 18.9602 5.64379 18.9602C5.70507 18.9602 6.00272 18.9955 6.42293 18.9955C6.68556 18.9955 6.88691 18.9514 7.00072 18.9514C7.062 18.9514 7.10577 18.9955 7.10577 19.0926V23.0808C7.10577 23.3544 7.16705 23.4249 7.28086 23.4249" fill="#2E3192"/>
<path d="M10.6602 23.7073C10.0912 23.7073 9.67975 23.3543 9.43462 22.8161V23.4867C9.43462 23.5837 9.39085 23.6367 9.32957 23.6367C9.22452 23.6367 9.01441 23.5926 8.75178 23.5926C8.35784 23.5926 7.14098 23.6808 7.08845 23.6808C7.02717 23.6808 6.9834 23.619 6.9834 23.5484C6.9834 23.469 7.02717 23.4161 7.08845 23.4161C7.15849 23.4161 8.35784 23.3808 8.69926 23.3808V16.2779C8.34908 16.2779 8.05143 16.2867 7.9814 16.2867C7.92012 16.2867 7.87634 16.2426 7.87634 16.1543C7.87634 16.0837 7.92012 16.0396 7.9814 16.0396C8.02517 16.0396 8.35784 16.0661 8.75178 16.0661C9.02317 16.0661 9.22452 16.022 9.32957 16.022C9.39085 16.022 9.43462 16.0837 9.43462 16.172V19.7808C9.67975 19.2337 10.0824 18.8896 10.6602 18.8896C11.5882 18.8896 12.3586 19.8602 12.3586 21.2896C12.3586 22.719 11.5882 23.7073 10.6602 23.7073ZM10.599 19.1631C10.0037 19.1631 9.43462 19.869 9.43462 21.2984C9.43462 22.7279 10.0037 23.4337 10.599 23.4337C11.3081 23.4337 11.5269 22.8867 11.5269 21.2984C11.5269 19.7102 11.3081 19.1631 10.599 19.1631Z" fill="#2E3192"/>
<path d="M15.0983 23.6192C14.9583 23.6192 14.8007 23.5839 14.1354 23.5839H13.864C13.1899 23.5839 13.0498 23.6192 12.9097 23.6192C12.8485 23.6192 12.8047 23.575 12.8047 23.4956C12.8047 23.425 12.8485 23.3809 12.9097 23.3809H13.6276V19.2339C13.2949 19.2339 12.9798 19.2427 12.9097 19.2427C12.8485 19.2427 12.8047 19.1986 12.8047 19.1103C12.8047 19.0221 12.8485 18.978 12.9097 18.978C12.971 18.978 13.2687 19.0133 13.6889 19.0133C13.9603 19.0133 14.1529 18.9692 14.2667 18.9692C14.3279 18.9692 14.3717 19.0133 14.3717 19.1103V23.3721H15.0896C15.1334 23.3721 15.1946 23.4162 15.1946 23.4868C15.1946 23.5662 15.1334 23.6103 15.0896 23.6103L15.0983 23.6192ZM14.004 17.5927C13.7502 17.5927 13.5401 17.3898 13.5401 17.1339C13.5401 16.878 13.7502 16.675 14.004 16.675C14.2579 16.675 14.4593 16.878 14.4593 17.1339C14.4593 17.3898 14.2579 17.5927 14.004 17.5927Z" fill="#2E3192"/>
<path d="M19.4321 23.6808C19.2045 23.7867 19.047 23.9808 19.047 24.2102V24.422C19.047 25.4455 19.8524 25.922 20.1675 25.9926C20.4126 26.0455 20.5527 26.1338 20.5527 26.3808V26.8926C20.5527 27.1573 20.4126 27.2808 20.1675 27.2632C18.9769 27.2102 17.7163 25.9749 17.7163 24.422V24.2102C17.7163 23.9808 17.5587 23.7867 17.3311 23.6808C16.193 23.1514 15.4927 22.0926 15.4927 20.9102V18.122C15.4927 16.6044 16.6483 15.2632 18.3816 15.2632C20.115 15.2632 21.2706 16.6044 21.2706 18.122V20.9102C21.2706 22.0926 20.5702 23.1514 19.4321 23.6808ZM19.9224 18.122C19.9224 17.3279 19.3621 16.5161 18.3816 16.5161C17.4011 16.5161 16.8408 17.3279 16.8408 18.122V20.9102C16.8408 21.7044 17.4011 22.5161 18.3816 22.5161C19.3621 22.5161 19.9224 21.7044 19.9224 20.9102V18.122Z" fill="#ED1C24"/>
<path d="M25.8316 23.4337C26.0154 23.4337 26.0505 23.222 26.1468 23.1426C26.173 23.1161 26.1905 23.1073 26.2168 23.1073C26.3131 23.1073 26.3831 23.169 26.3831 23.2396C26.3831 23.3102 26.3481 23.372 26.3131 23.4073C26.103 23.6279 25.8404 23.6896 25.6303 23.6896C25.2451 23.6896 24.9299 23.4073 24.9299 22.9043V22.472C24.7286 23.0543 24.177 23.6984 23.5204 23.6984C22.6625 23.6984 22.3561 22.9837 22.3561 22.0308V19.2337C22.0059 19.2337 21.7083 19.2426 21.6383 19.2426C21.577 19.2426 21.5332 19.1984 21.5332 19.1102C21.5332 19.022 21.577 18.9779 21.6383 18.9779C21.682 18.9779 21.9972 19.0131 22.4086 19.0131C22.68 19.0131 22.8814 18.969 22.9864 18.969C23.0477 18.969 23.0915 19.0131 23.0915 19.1102V22.4455C23.0915 23.1161 23.2666 23.3808 23.6693 23.3808C24.2646 23.3808 24.9211 22.3926 24.9211 21.2014V19.2249C24.571 19.2249 24.2733 19.2337 24.1858 19.2337C24.142 19.2337 24.0807 19.1896 24.0807 19.1014C24.0807 19.0131 24.142 18.969 24.1858 18.969C24.2471 18.969 24.5447 19.0043 24.9649 19.0043C25.2363 19.0043 25.4289 18.9602 25.5515 18.9602C25.6127 18.9602 25.6565 19.0043 25.6565 19.1014V23.0896C25.6565 23.3631 25.7178 23.4337 25.8316 23.4337Z" fill="#2E3192"/>
<path d="M27.7838 23.5839C26.7771 23.2309 26.2693 22.0309 26.7333 20.6721C27.1973 19.3221 28.3178 18.678 29.3333 19.0309C30.3313 19.375 30.8478 20.5839 30.3839 21.9339C29.9199 23.3015 28.7818 23.928 27.7838 23.5839ZM29.2545 19.2603C28.5367 19.0133 28.0289 19.4456 27.5124 20.9368C27.0047 22.4368 27.1447 23.0986 27.8626 23.3456C28.5805 23.5927 29.097 23.1515 29.6047 21.6515C30.1125 20.1515 29.9724 19.4986 29.2545 19.2515V19.2603Z" fill="#2E3192"/>
<path d="M32.765 23.4338C33.3078 23.4338 33.8681 23.1162 33.8681 22.5162C33.8681 22.0485 33.3603 21.8632 32.9489 21.7397L32.5112 21.5985C31.4869 21.2897 31.2768 20.8132 31.2768 20.2485C31.2768 19.2426 32.126 18.8809 32.73 18.8809C33.4304 18.8809 34.0782 19.2691 34.0782 19.7809C34.0782 20.1073 33.8943 20.275 33.6842 20.275C33.4654 20.275 33.2903 20.0897 33.2903 19.8779C33.2903 19.7103 33.4041 19.5603 33.5617 19.5162C33.4129 19.2779 33.1065 19.1544 32.7563 19.1544C32.1435 19.1544 31.7233 19.4809 31.7233 20.0367C31.7233 20.425 32.0472 20.6103 32.4586 20.7426L32.9664 20.8926C33.8243 21.1397 34.3233 21.5279 34.3233 22.3132C34.3233 23.2044 33.6142 23.7338 32.73 23.7338C31.7408 23.7338 31.1367 23.0279 31.1367 22.5338C31.1367 22.2426 31.3031 22.0662 31.5307 22.0662C31.7408 22.0662 31.9246 22.2514 31.9246 22.4632C31.9246 22.6485 31.7933 22.8073 31.627 22.8426C31.8371 23.2397 32.3273 23.4426 32.765 23.4426V23.4338Z" fill="#2E3192"/>
<path d="M36.4418 23.4338C36.9933 23.4338 37.5448 23.1162 37.5448 22.5162C37.5448 22.0485 37.0371 21.8632 36.6256 21.7397L36.1879 21.5985C35.1637 21.2897 34.9535 20.8132 34.9535 20.2485C34.9535 19.2426 35.8027 18.8809 36.4068 18.8809C37.1071 18.8809 37.7549 19.2691 37.7549 19.7809C37.7549 20.1073 37.5711 20.275 37.361 20.275C37.1421 20.275 36.9671 20.0897 36.9671 19.8779C36.9671 19.7103 37.0809 19.5603 37.2384 19.5162C37.0896 19.2779 36.7832 19.1544 36.433 19.1544C35.8202 19.1544 35.4 19.4809 35.4 20.0367C35.4 20.425 35.7239 20.6103 36.1354 20.7426L36.6431 20.8926C37.5011 21.1397 38.0001 21.5279 38.0001 22.3132C38.0001 23.2044 37.291 23.7338 36.4068 23.7338C35.4175 23.7338 34.8135 23.0279 34.8135 22.5338C34.8135 22.2426 34.9798 22.0662 35.2074 22.0662C35.4175 22.0662 35.6014 22.2514 35.6014 22.4632C35.6014 22.6485 35.4701 22.8073 35.295 22.8426C35.5051 23.2397 35.9953 23.4426 36.433 23.4426L36.4418 23.4338Z" fill="#2E3192"/>
</g>
<circle cx="20" cy="20" r="19.5" stroke="black" stroke-opacity="0.05"/>
<defs>
<clipPath id="clip0_22307_36325">
<rect width="35" height="12" fill="white" transform="translate(3 15.2632)"/>
</clipPath>
</defs>
</svg>
