<svg width="40" height="40" viewBox="0 0 40 40" fill="none" xmlns="http://www.w3.org/2000/svg">
<circle cx="20" cy="20" r="20" fill="#EA2424"/>
<path d="M10.4683 19.7627C10.056 20.7618 9.27989 21.5288 8.16427 21.5595C6.81041 21.5965 6.48403 20.4507 6.83714 19.3647C7.19024 18.2787 7.95673 17.3933 9.12238 17.3319C9.76207 17.2989 10.2937 17.5099 10.5564 18.099C10.7696 18.5829 10.6724 19.268 10.4683 19.7627ZM9.4391 18.1183C9.02686 17.9142 8.5134 18.1416 8.21943 18.4555C7.9189 18.7847 7.70409 19.1829 7.59396 19.6149C7.45578 20.1175 7.55302 20.7254 8.13812 20.8334C8.54809 20.9096 8.97966 20.6532 9.2452 20.3359C9.49904 20.0305 9.68319 19.6735 9.78481 19.2896C9.89967 18.8598 9.87238 18.3321 9.4391 18.1183Z" fill="white"/>
<path d="M21.5278 20.0041H20.6027C20.5929 20.0041 20.5835 20.0002 20.5765 19.9933C20.5696 19.9863 20.5657 19.9769 20.5657 19.9671C20.5649 19.9632 20.5649 19.9591 20.5657 19.9552L20.7693 19.3383C20.7718 19.3286 20.7775 19.32 20.7856 19.3141C20.7937 19.3082 20.8036 19.3053 20.8136 19.3058H22.5359C22.5621 19.3058 22.5712 19.3184 22.5627 19.3434C22.3811 19.8828 22.2016 20.4253 22.0242 20.9707C22.0037 21.0335 21.96 21.086 21.9019 21.1174C21.2893 21.4677 20.5816 21.6154 19.88 21.5394C19.0902 21.4541 18.7319 20.8138 18.7831 20.0752C18.8265 19.4271 19.061 18.8064 19.4569 18.2914C19.9982 17.5744 20.7829 17.2338 21.695 17.3567C22.3608 17.4465 22.7458 17.94 22.7981 18.5905C22.7991 18.5957 22.7989 18.6009 22.7977 18.606C22.7964 18.611 22.794 18.6158 22.7907 18.6198C22.7874 18.6238 22.7832 18.627 22.7785 18.6293C22.7738 18.6315 22.7686 18.6326 22.7634 18.6326L22.0407 18.7179C22.0284 18.7191 22.0161 18.7157 22.0063 18.7084C21.9964 18.701 21.9896 18.6902 21.9872 18.6781C21.9179 18.2937 21.7029 18.0316 21.2822 18.0282C20.7492 18.0236 20.3288 18.2594 20.021 18.7355C19.7516 19.145 19.6065 19.6237 19.603 20.1138C19.5917 21.1345 20.7443 20.8712 21.3379 20.6091C21.346 20.6054 21.3533 20.6001 21.3593 20.5934C21.3652 20.5867 21.3698 20.5789 21.3726 20.5704L21.5505 20.0365C21.5516 20.0334 21.552 20.0301 21.5518 20.0268C21.5516 20.0235 21.5507 20.0202 21.5492 20.0173C21.5478 20.0143 21.5457 20.0117 21.5432 20.0095C21.5407 20.0073 21.5378 20.0057 21.5346 20.0047L21.5278 20.0041Z" fill="white"/>
<path d="M4.9263 19.115C4.92643 19.1158 4.92672 19.1165 4.92714 19.1171C4.92756 19.1178 4.9281 19.1183 4.92874 19.1187C4.92938 19.1192 4.93009 19.1195 4.93084 19.1196C4.9316 19.1197 4.93237 19.1197 4.93312 19.1196C4.93312 19.1196 4.93312 19.1196 4.93653 19.1196L6.25116 17.4734C6.26824 17.4523 6.28982 17.4353 6.31431 17.4236C6.3388 17.4119 6.3656 17.4058 6.39274 17.4058L7.19448 17.4092C7.19757 17.4092 7.20062 17.4098 7.20346 17.411C7.2063 17.4122 7.20885 17.414 7.21098 17.4162C7.21311 17.4185 7.21476 17.4211 7.21583 17.424C7.21691 17.4269 7.21738 17.43 7.21723 17.4331C7.21729 17.4383 7.21547 17.4433 7.21211 17.4473C6.53281 18.2627 5.86337 19.0663 5.20378 19.8582C5.13214 19.947 5.07776 20.0484 5.04343 20.1573C4.90203 20.586 4.7595 21.0166 4.61583 21.4492C4.6134 21.4595 4.60726 21.4687 4.59857 21.4748C4.58989 21.481 4.57924 21.4838 4.56864 21.4827H3.84366C3.83921 21.4827 3.8348 21.4818 3.83069 21.4801C3.82658 21.4784 3.82286 21.4759 3.81974 21.4727C3.81661 21.4695 3.81415 21.4657 3.8125 21.4616C3.81085 21.4575 3.81004 21.453 3.81011 21.4486C3.80957 21.445 3.80957 21.4414 3.81011 21.4378L4.30082 19.9765C4.31795 19.9251 4.31895 19.8697 4.30367 19.8178L3.60882 17.4757C3.59575 17.4313 3.61224 17.4092 3.65886 17.4092H4.41455C4.42534 17.4084 4.43606 17.4115 4.44473 17.418C4.4534 17.4245 4.45944 17.4339 4.46174 17.4444C4.62929 18.0104 4.78414 18.5672 4.9263 19.115Z" fill="white"/>
<path d="M14.4507 19.4648C14.2802 19.9799 14.0703 20.6128 13.6843 21C13.2021 21.4851 12.6266 21.592 11.9653 21.5482C11.4206 21.5124 10.976 21.207 10.91 20.6475C10.8799 20.3928 10.943 20.1295 11.0237 19.889C11.2989 19.0789 11.5821 18.2605 11.8732 17.4337C11.8759 17.4242 11.8818 17.4159 11.8899 17.4102C11.898 17.4046 11.9077 17.4018 11.9176 17.4024H12.6841C12.691 17.4026 12.6975 17.4054 12.7024 17.4103C12.7073 17.4151 12.7101 17.4217 12.7102 17.4286C12.7105 17.4314 12.7105 17.4343 12.7102 17.4371C12.3713 18.4227 12.0436 19.3784 11.7271 20.3041C11.6253 20.6009 11.9142 20.8084 12.182 20.8357C12.9212 20.9125 13.2419 20.5275 13.4625 19.8964C13.7169 19.1685 13.9911 18.3492 14.2853 17.4383C14.2878 17.4277 14.294 17.4184 14.3027 17.4119C14.3115 17.4055 14.3222 17.4023 14.333 17.403H15.0751C15.1228 17.403 15.1388 17.4252 15.1234 17.4707C14.8865 18.1564 14.6623 18.8211 14.4507 19.4648Z" fill="white"/>
<path d="M15.1966 21.4823H14.454C14.4492 21.4823 14.4445 21.4804 14.4411 21.477C14.4377 21.4735 14.4358 21.4689 14.4358 21.4641C14.4355 21.4622 14.4355 21.4603 14.4358 21.4584L15.7896 17.4162C15.7908 17.4125 15.793 17.4093 15.7961 17.4071C15.7992 17.4048 15.8029 17.4036 15.8067 17.4036H16.559C16.563 17.4036 16.5669 17.405 16.5701 17.4074C16.5733 17.4099 16.5756 17.4134 16.5766 17.4173L17.2282 20.0232C17.2292 20.0271 17.2315 20.0306 17.2347 20.0331C17.2379 20.0356 17.2418 20.0369 17.2459 20.0369C17.2499 20.0369 17.2538 20.0356 17.257 20.0331C17.2602 20.0306 17.2625 20.0271 17.2635 20.0232L18.1312 17.4167C18.1323 17.4131 18.1346 17.4099 18.1376 17.4076C18.1407 17.4054 18.1444 17.4042 18.1482 17.4042L18.8931 17.4014C18.8979 17.4014 18.9025 17.4032 18.906 17.4065C18.9095 17.4097 18.9116 17.4142 18.9119 17.419C18.9122 17.4211 18.9122 17.4232 18.9119 17.4252L17.5597 21.4692C17.5586 21.4729 17.5564 21.4761 17.5533 21.4783C17.5502 21.4806 17.5465 21.4818 17.5427 21.4817H16.7893C16.7852 21.4817 16.7813 21.4804 16.7781 21.4779C16.7749 21.4754 16.7726 21.472 16.7716 21.4681L16.1194 18.8763C16.1184 18.8717 16.1155 18.8676 16.1114 18.8651C16.1074 18.8625 16.1025 18.8617 16.0978 18.8627C16.0946 18.8632 16.0916 18.8647 16.0892 18.8669C16.0867 18.8692 16.085 18.872 16.0842 18.8752L15.2136 21.4698C15.2125 21.4734 15.2103 21.4766 15.2072 21.4789C15.2041 21.4811 15.2004 21.4823 15.1966 21.4823Z" fill="white"/>
<path d="M25.7831 18.9808H27.2165C27.2211 18.9808 27.2255 18.9794 27.2291 18.9767C27.2328 18.9741 27.2356 18.9703 27.237 18.966L27.7487 17.4188C27.7502 17.4145 27.7529 17.4108 27.7566 17.4081C27.7603 17.4055 27.7647 17.4041 27.7692 17.404H28.5624C28.5682 17.404 28.5736 17.4063 28.5777 17.4104C28.5818 17.4144 28.584 17.4199 28.584 17.4257C28.5843 17.4279 28.5843 17.4302 28.584 17.4325L27.2341 21.4696C27.2327 21.4739 27.23 21.4777 27.2263 21.4803C27.2226 21.483 27.2182 21.4844 27.2137 21.4844H26.4176C26.4119 21.4844 26.4064 21.4821 26.4023 21.4781C26.3983 21.474 26.396 21.4685 26.396 21.4628C26.3957 21.4605 26.3957 21.4582 26.396 21.456L26.9885 19.7058C26.9903 19.7004 26.9899 19.6944 26.9873 19.6893C26.9848 19.6842 26.9803 19.6803 26.9749 19.6785H26.968H25.5357C25.5312 19.6785 25.5268 19.6799 25.5231 19.6826C25.5194 19.6852 25.5167 19.689 25.5152 19.6933L24.9244 21.4679C24.923 21.4722 24.9203 21.476 24.9166 21.4786C24.9129 21.4813 24.9085 21.4827 24.904 21.4827H24.1136C24.1079 21.4827 24.1024 21.4804 24.0983 21.4764C24.0943 21.4723 24.092 21.4668 24.092 21.4611C24.0917 21.4588 24.0917 21.4565 24.092 21.4543L25.4407 17.4171C25.4422 17.4128 25.4449 17.4091 25.4486 17.4064C25.4523 17.4038 25.4567 17.4024 25.4612 17.4023H26.255C26.2607 17.4023 26.2662 17.4046 26.2703 17.4087C26.2743 17.4127 26.2766 17.4182 26.2766 17.424C26.2769 17.4262 26.2769 17.4285 26.2766 17.4308L25.7649 18.9518C25.7637 18.9545 25.7631 18.9575 25.763 18.9604C25.763 18.9634 25.7636 18.9663 25.7648 18.969C25.766 18.9717 25.7677 18.9742 25.7699 18.9762C25.772 18.9782 25.7746 18.9798 25.7774 18.9808H25.7831Z" fill="white"/>
<path d="M31.7831 20.0834L33.3479 17.4331C33.3533 17.4241 33.361 17.4166 33.3701 17.4114C33.3793 17.4062 33.3897 17.4035 33.4002 17.4035H34.1485C34.1509 17.4035 34.1533 17.404 34.1555 17.405C34.1577 17.4059 34.1597 17.4073 34.1614 17.4091C34.163 17.4108 34.1643 17.4129 34.1651 17.4152C34.1659 17.4175 34.1663 17.4199 34.1661 17.4223C34.167 17.4253 34.167 17.4284 34.1661 17.4314L31.7558 21.452C31.7504 21.461 31.7428 21.4684 31.7338 21.4736C31.7247 21.4788 31.7145 21.4815 31.704 21.4816H30.97C30.9146 21.4816 30.8902 21.4543 30.8966 21.3997L31.1855 18.713C31.1957 18.616 31.1754 18.6092 31.1246 18.6926L29.4648 21.4088C29.4529 21.4284 29.4362 21.4446 29.4164 21.4561C29.3965 21.4675 29.374 21.4737 29.3511 21.4742L28.6034 21.4822C28.5727 21.4822 28.559 21.4674 28.5619 21.4373L28.9599 17.4325C28.9598 17.4284 28.9606 17.4244 28.9622 17.4206C28.9638 17.4169 28.9662 17.4135 28.9692 17.4107C28.9722 17.408 28.9758 17.4059 28.9797 17.4047C28.9836 17.4034 28.9877 17.403 28.9918 17.4035H29.7469C29.7673 17.4035 29.7764 17.4138 29.7736 17.4337L29.4478 20.1147C29.4421 20.1607 29.4512 20.1641 29.4751 20.1243L31.1087 17.445C31.1161 17.4327 31.1267 17.4225 31.1392 17.4154C31.1518 17.4084 31.1659 17.4046 31.1803 17.4047H32.0014C32.0208 17.4047 32.0293 17.4143 32.027 17.4337C31.9243 18.3313 31.8356 19.2128 31.7609 20.0783C31.7581 20.1107 31.7654 20.1135 31.7831 20.0834Z" fill="white"/>
<path d="M35.5053 20.618C35.5051 20.6099 35.5018 20.6022 35.4961 20.5964C35.4904 20.5907 35.4826 20.5874 35.4745 20.5873H34.0377C34.0251 20.5873 34.0128 20.5904 34.0018 20.5964C33.9908 20.6023 33.9814 20.6109 33.9745 20.6214L33.4293 21.4522C33.4229 21.4614 33.4145 21.469 33.4046 21.4743C33.3947 21.4795 33.3836 21.4823 33.3724 21.4823H32.5843C32.5812 21.4823 32.5782 21.4817 32.5753 21.4805C32.5725 21.4792 32.5699 21.4775 32.5678 21.4752C32.5657 21.473 32.564 21.4704 32.5629 21.4675C32.5619 21.4646 32.5614 21.4615 32.5616 21.4584C32.5615 21.4542 32.5627 21.45 32.565 21.4465L35.2613 17.4457C35.2705 17.432 35.283 17.4208 35.2976 17.4131C35.3121 17.4054 35.3284 17.4013 35.3449 17.4014H36.1978C36.2062 17.4015 36.2142 17.4049 36.2202 17.4109C36.2261 17.4168 36.2295 17.4248 36.2297 17.4332C36.2535 18.5302 36.275 19.6296 36.2939 20.7312C36.2981 20.965 36.2981 21.2012 36.2939 21.4396C36.2938 21.4506 36.2893 21.461 36.2816 21.4686C36.2738 21.4763 36.2633 21.4806 36.2524 21.4806H35.5433C35.5389 21.4807 35.5344 21.4798 35.5302 21.4782C35.5261 21.4766 35.5223 21.4741 35.5191 21.471C35.5158 21.4679 35.5133 21.4642 35.5115 21.46C35.5097 21.4559 35.5087 21.4515 35.5087 21.447L35.5053 20.618ZM34.4772 19.8646C34.4748 19.8685 34.4739 19.8733 34.4749 19.8778C34.4759 19.8824 34.4785 19.8864 34.4823 19.889C34.4855 19.8899 34.4888 19.8899 34.492 19.889H35.4836C35.4883 19.889 35.4928 19.8872 35.4961 19.8839C35.4994 19.8806 35.5013 19.8761 35.5013 19.8714L35.4939 18.3765C35.4936 18.3719 35.4915 18.3676 35.4882 18.3644C35.4848 18.3612 35.4803 18.3595 35.4757 18.3595C35.473 18.3596 35.4704 18.3604 35.468 18.3616C35.4657 18.3629 35.4636 18.3647 35.462 18.3669L34.4772 19.8646Z" fill="white"/>
<path d="M9.43956 18.1178C9.87284 18.3316 9.90013 18.857 9.78357 19.2892C9.68194 19.673 9.49779 20.0301 9.24396 20.3354C8.97842 20.6527 8.54684 20.9091 8.13687 20.8329C7.55177 20.7249 7.45454 20.1171 7.59271 19.6144C7.70284 19.1824 7.91766 18.7843 8.21818 18.455C8.51386 18.1411 9.02732 17.9137 9.43956 18.1178Z" fill="#EA2424"/>
<path d="M34.477 19.8642L35.4607 18.3676C35.4635 18.3638 35.4676 18.3613 35.4721 18.3606C35.4767 18.3598 35.4814 18.3609 35.4852 18.3636C35.4874 18.3652 35.4892 18.3672 35.4905 18.3696C35.4918 18.3719 35.4925 18.3746 35.4926 18.3773L35.5005 19.8721C35.5005 19.8768 35.4987 19.8813 35.4954 19.8846C35.4921 19.8879 35.4876 19.8898 35.4829 19.8898H34.4913C34.4866 19.8898 34.4821 19.8879 34.4788 19.8846C34.4755 19.8813 34.4736 19.8768 34.4736 19.8721C34.4742 19.8693 34.4753 19.8665 34.477 19.8642Z" fill="#EA2424"/>
<path d="M36.4444 22.3348L36.4399 22.3558C36.4357 22.3859 36.4202 22.4132 36.3965 22.4321C36.3728 22.4511 36.3427 22.4602 36.3125 22.4576C35.6465 22.4576 34.9641 22.4737 34.2655 22.5059C33.7826 22.5264 33.4035 22.5395 33.1283 22.5451C30.4577 22.5986 28.2729 22.6308 26.5739 22.6418C20.3192 22.6833 13.986 22.6862 7.75289 22.5611C6.80179 22.5425 5.85714 22.5143 4.91893 22.4763C4.50271 22.4593 4.09672 22.4667 3.69755 22.4564C3.58838 22.4564 3.54119 22.395 3.55654 22.2819C3.56069 22.2494 3.57654 22.2195 3.60114 22.1978C3.62574 22.1762 3.65738 22.1642 3.69016 22.1642C4.82738 22.1642 5.9646 22.1773 7.09841 22.1471C8.01918 22.1229 8.91967 22.1049 9.79988 22.0931C16.699 21.9991 23.5982 22.0002 30.4973 22.0965C30.8646 22.1018 31.2437 22.1096 31.6345 22.1198C33.1304 22.16 34.6884 22.1738 36.3085 22.1613C36.3455 22.161 36.3811 22.1754 36.4076 22.2013C36.434 22.2272 36.4491 22.2625 36.4495 22.2995C36.4493 22.3114 36.4475 22.3233 36.4444 22.3348Z" fill="white"/>
<circle cx="20" cy="20" r="19.5" stroke="black" stroke-opacity="0.05"/>
</svg>
