<svg width="40" height="40" viewBox="0 0 40 40" fill="none" xmlns="http://www.w3.org/2000/svg">
<circle cx="20" cy="20" r="20" fill="#F6F8FA"/>
<g clip-path="url(#clip0_14382_19151)">
<path d="M8.68709 19.8845L5 26.2709H12.3723L8.68709 19.8845Z" fill="#127E3B"/>
<path d="M5 13.5H12.3723L16.0594 19.8845L5 13.5Z" fill="#5BB531"/>
<path d="M5 13.5L16.0594 19.8845L12.3723 26.271L5 13.5Z" fill="#22A439"/>
<path d="M30.8248 22.6235H29.7673V17.1475H30.8248C32.4403 17.1475 33.1924 18.041 33.1924 19.8205C33.1924 21.6489 32.4384 22.6235 30.8248 22.6235ZM30.8757 15.7356H27.9087V24.0297H30.8757C33.5977 24.0297 35.0001 22.6084 35.0001 19.8148C35.0001 17.0514 33.5977 15.73 30.8757 15.73" fill="#123479"/>
<path d="M24.4855 15.7356V20.4444L23.6259 18.9552H21.0906V15.7356H19.2527V24.0353H21.0906V20.5612H24.4855V24.0353H26.3347V15.7356H24.4855Z" fill="#123479"/>
</g>
<circle cx="20" cy="20" r="19.5" stroke="black" stroke-opacity="0.05"/>
<defs>
<clipPath id="clip0_14382_19151">
<rect width="30" height="12.771" fill="white" transform="translate(5 13.5)"/>
</clipPath>
</defs>
</svg>
