<svg width="40" height="40" viewBox="0 0 40 40" fill="none" xmlns="http://www.w3.org/2000/svg">
<circle cx="20" cy="20" r="20" fill="#ED1B28"/>
<g clip-path="url(#clip0_14382_18879)">
<path d="M29.5193 11.3679L28.7066 13.6986H26.2073L28.2313 15.3393L27.4953 17.6699L29.6573 16.2746L31.8193 17.6699L30.9913 15.2013L32.9999 13.6986H30.5313L29.5193 11.3679Z" fill="white"/>
<path fill-rule="evenodd" clip-rule="evenodd" d="M18.694 28.4033C20.4179 28.4063 22.1038 27.8977 23.5384 26.9419C24.973 25.9861 26.0917 24.626 26.7528 23.034C27.4139 21.4419 27.5876 19.6895 27.2521 17.9986C26.9165 16.3077 26.0867 14.7545 24.8678 13.5355C23.6488 12.3166 22.0956 11.4868 20.4047 11.1512C18.7138 10.8157 16.9614 10.9894 15.3693 11.6505C13.7773 12.3116 12.4172 13.4303 11.4614 14.8649C10.5056 16.2995 9.99698 17.9854 10 19.7093C10.001 20.2877 10.0596 20.86 10.1725 21.4187C10.1648 21.35 10.1584 21.2812 10.1533 21.2121C10.4169 20.6325 10.7573 20.091 11.1653 19.6021C11.0196 20.2156 10.9374 20.8425 10.92 21.4728L12.4533 21.7641L11.2266 22.5155C11.0694 23.1722 11.1409 23.8605 11.4251 24.4681C11.7495 24.9632 12.126 25.4275 12.5509 25.8524C14.1805 27.4819 16.3895 28.3992 18.694 28.4033ZM21.9447 12.0118L21.5307 13.9898C20.8227 14.0609 20.1239 14.2048 19.4454 14.4192L21.2701 15.5845L20.9634 17.3172L22.7574 15.9985L24.7814 16.9798L23.8921 15.0632L24.7507 13.6832C24.151 13.6941 23.5523 13.735 22.9567 13.8058L21.9447 12.0118ZM16.5779 24.7848L16.9766 23.8341L17.4213 24.7695C17.6513 24.7695 18.2646 24.6928 18.2646 24.6928L17.6513 25.4595L18.0193 26.3641L17.0073 25.8275L15.9799 26.3948L16.3326 25.4595L15.6733 24.7848H16.5779ZM16.3634 13.7754L16.1794 15.5847C15.6366 15.8104 15.122 16.0985 14.646 16.4434L16.1794 16.9187L16.0107 18.4521L17.452 17.0874L19.154 17.6547L18.2647 16.1214L18.924 14.5881C18.3997 14.7136 17.8868 14.8829 17.3907 15.0941L16.3634 13.7754ZM12.3767 18.1759L12.024 16.6425L13.2353 17.3939C13.5549 17.125 13.8931 16.8791 14.2473 16.6579L14.1553 18.0225L15.29 18.9425L13.7567 19.0345L12.9593 20.4145L12.714 19.1572H11.518C11.7731 18.8041 12.0606 18.4756 12.3767 18.1759ZM14.14 25.1681C14.5101 25.104 14.8643 24.9686 15.1827 24.7694L15.1214 24.7234C14.7694 24.7094 14.4198 24.658 14.0787 24.5701L13.864 23.3741L13.128 24.2174C12.7059 24.0665 12.3082 23.8547 11.9474 23.5887C12.1115 23.9888 12.328 24.3652 12.5914 24.7081L12.1314 25.2601C12.4872 25.3134 12.8489 25.3134 13.2047 25.2601L14.14 26.5481V25.1681Z" fill="white"/>
</g>
<circle cx="20" cy="20" r="19.5" stroke="black" stroke-opacity="0.05"/>
<defs>
<clipPath id="clip0_14382_18879">
<rect width="23" height="17.4033" fill="white" transform="translate(10 11)"/>
</clipPath>
</defs>
</svg>
