<svg width="40" height="40" viewBox="0 0 40 40" fill="none" xmlns="http://www.w3.org/2000/svg">
<circle cx="20" cy="20" r="20" fill="#F6F8FA"/>
<path d="M18.6915 8.57817C10.6985 10.5701 4.56684 15.3049 5.02399 19.3685L5.03125 19.3322C5.4884 23.3922 12.7303 28.595 21.2312 31.1493C29.7321 33.6999 35.8711 29.0486 34.8987 20.3481L34.8951 20.4098C33.9191 11.7093 26.6844 6.60079 18.6915 8.57817Z" fill="#CDE0F4"/>
<path d="M15.5347 10.951C9.686 14.1801 5.87275 19.1689 7.08095 22.2565V22.2311C8.28189 25.3151 15.0449 27.8803 22.2396 28.1052C29.4307 28.3265 33.2694 23.3994 30.6897 16.7888L30.7006 16.836C28.121 10.2217 21.387 7.72916 15.5347 10.951Z" fill="#94C0E7"/>
<path d="M18.5859 13.3457C13.6914 13.7557 9.65321 15.8455 9.5625 18.1313L9.56975 18.1132C9.47905 20.3953 13.2887 23.8965 18.0815 26.0372C22.8708 28.1778 26.9054 26.1388 27.1049 21.2443L27.0977 21.277C27.2936 16.3861 23.4767 12.9393 18.5859 13.3457Z" fill="#0060B0"/>
<path d="M20.9194 16.2845V16.4659L20.9121 22.0352H22.338L22.3489 16.172H20.9194V16.2845Z" fill="white"/>
<path d="M13.2747 21.901C13.7174 21.8321 14.1818 21.5128 14.2072 21.4983L14.2108 21.4947V21.491C14.3414 21.3822 14.4539 21.2625 14.5301 21.1246C14.6244 20.9577 14.6716 20.7618 14.6716 20.5441C14.6716 20.5042 14.6752 16.1648 14.6752 16.1648L13.2493 16.1612V16.2773C13.2493 16.2773 13.2457 19.9237 13.2421 20.4389C13.2348 20.5441 13.2131 20.7146 13.1296 20.7981C13.097 20.8234 13.0534 20.8561 13.0208 20.8851C12.9337 20.9359 12.7704 21.0049 12.4874 21.0593C12.3858 21.0702 12.1065 21.0883 12.0012 21.0992C11.9214 21.1064 11.8307 21.1101 11.7436 21.1173L11.0361 21.1427C11.2937 21.4402 11.5804 21.7378 11.896 22.0353C12.0665 22.0353 12.2806 22.0244 12.4185 22.0171C12.901 21.9809 13.2747 21.901 13.2747 21.901Z" fill="white"/>
<path d="M19.5367 16.2011C19.5185 16.2011 18.9525 16.1684 18.9525 16.1684C18.9453 16.1684 18.0527 16.1648 18.0527 16.1648C18.0527 16.1648 18.0346 16.1648 18.0056 16.1684C17.8713 16.1612 17.0985 16.143 16.4708 16.4043C16.4708 16.4043 16.2713 16.4732 16.0536 16.6328C16.0499 16.6365 16.0499 16.6365 16.0463 16.6401C16.0427 16.6401 16.0391 16.6473 16.0354 16.651C15.9629 16.7054 15.8939 16.7671 15.8286 16.8396C15.8214 16.8505 15.8177 16.8578 15.8105 16.865C15.7669 16.9195 15.7234 16.9775 15.6835 17.0428C15.6762 17.0537 15.6654 17.0646 15.6581 17.0755C15.5674 17.2387 15.5202 17.4347 15.5202 17.6524C15.5202 17.6959 15.5166 20.4933 15.5166 20.4933C15.5166 20.7545 15.5638 20.9468 15.6545 21.1101C15.6581 21.1137 15.6581 21.1173 15.6581 21.1173C15.7016 21.208 15.8032 21.3677 16.0064 21.5237C16.0137 21.5309 16.0173 21.5345 16.0245 21.5418C16.0245 21.5418 16.0318 21.5454 16.0354 21.5491C16.1515 21.6361 16.3039 21.7196 16.4962 21.7958C16.5035 21.803 16.5107 21.803 16.5107 21.803C16.5144 21.803 16.5289 21.8103 16.547 21.8139C16.6921 21.8683 16.859 21.9155 17.055 21.9518C17.055 21.9518 17.269 21.9917 17.5593 22.0135C17.5738 22.0135 17.5847 22.0171 17.5847 22.0171C17.5847 22.0171 17.5992 22.0171 17.6173 22.0171C17.7407 22.0244 17.8713 22.0316 18.0128 22.0316C18.031 22.0316 18.0455 22.0316 18.0455 22.0316C18.0491 22.0316 18.9416 22.0352 18.9416 22.0352C18.9489 22.0352 19.5149 22.0062 19.5149 22.0062C19.5294 22.0062 19.9104 21.9119 20.0156 21.8865V21.1028L18.2922 21.0992C18.2922 21.0992 18.1362 21.0919 17.9983 21.0847C17.9838 21.0847 17.9729 21.081 17.9729 21.081C17.3271 21.023 17.0912 20.8633 17.0042 20.7617C16.9643 20.7073 16.9425 20.6384 16.9425 20.5404V20.4896C16.9425 20.4533 16.9461 19.7749 16.9461 19.5245C17.142 19.5281 18.6187 19.5281 18.6187 19.5281C18.626 19.5281 19.3045 19.4955 19.3045 19.4955C19.3081 19.4955 19.3335 19.4882 19.3661 19.481C19.5185 19.4592 19.8305 19.3685 19.8305 19.3685L19.8922 19.354V19.1036V19.1V19.0928V18.6937C19.8088 18.6828 19.2682 18.6066 19.123 18.5921C19.1013 18.5921 19.0868 18.5921 19.0868 18.5921H16.9461C16.9461 18.4143 16.9461 17.7177 16.9461 17.7177C16.9461 17.7104 16.9461 17.6596 16.9461 17.6596C16.9461 17.5798 16.9606 17.5217 16.986 17.4709C17.0695 17.3548 17.3271 17.1626 18.1434 17.1045C18.2305 17.1009 18.2994 17.0972 18.2994 17.0972L20.0156 17.1009V16.3136L19.9067 16.2882L19.5367 16.2011Z" fill="white"/>
<path d="M27.1013 21.2515V21.1753H27.0977C27.0977 21.2079 27.0977 21.2442 27.0977 21.2805L27.1013 21.2515Z" fill="white"/>
<path d="M27.094 21.2805C27.094 21.2479 27.094 21.2116 27.094 21.1753C26.9815 21.1681 26.4264 21.1427 26.1869 21.1318C26.1107 21.1245 26.02 21.1173 25.9039 21.11C25.9039 21.11 25.7479 21.0955 25.6173 21.081C25.0948 20.9939 24.8916 20.8342 24.8154 20.7145C24.79 20.6565 24.7755 20.5912 24.7792 20.5005C24.7792 20.4968 24.7864 16.1756 24.7864 16.1756L23.3605 16.172V16.2881L23.3533 20.515C23.346 20.7435 23.3932 20.954 23.4911 21.1318C23.5093 21.1644 23.5347 21.1935 23.5564 21.2225C23.5782 21.2551 23.6 21.2878 23.6254 21.3204C23.6508 21.3531 23.6798 21.3821 23.7088 21.4148C23.7342 21.4402 23.7633 21.4692 23.7923 21.4946C23.8141 21.5127 23.8358 21.5381 23.8612 21.5563C23.8648 21.5599 23.8721 21.5635 23.8866 21.5708C24.5578 22.0606 25.6209 22.0461 25.8205 22.0352C25.8567 22.0352 25.8785 22.0388 25.8785 22.0388C25.8785 22.0388 25.9148 22.0388 25.9728 22.0388C26.2232 22.0425 26.8073 22.0424 27.025 22.0424C27.0577 21.7921 27.0831 21.5345 27.094 21.266V21.2479V21.2805Z" fill="white"/>
<circle cx="20" cy="20" r="19.5" stroke="black" stroke-opacity="0.05"/>
</svg>
