<svg width="40" height="40" viewBox="0 0 40 40" fill="none" xmlns="http://www.w3.org/2000/svg">
<circle cx="20" cy="20" r="20" fill="#48629F"/>
<g clip-path="url(#clip0_17752_43629)">
<path d="M12.5227 11.2485H9.06309C9.04605 11.2485 9.03223 11.2624 9.03223 11.2794V28.6587C9.03223 28.6758 9.04605 28.6896 9.06309 28.6896H12.5227C12.5397 28.6896 12.5535 28.6758 12.5535 28.6587V11.2794C12.5535 11.2624 12.5397 11.2485 12.5227 11.2485Z" fill="white"/>
<path d="M28.4231 28.1274C28.3911 28.0871 28.325 28.0742 28.2248 28.0886C28.1245 28.1031 28.0593 28.1107 28.0291 28.1116C27.7064 28.1204 27.4932 28.1127 27.3894 28.0886C26.6219 27.9109 26.0819 27.4715 25.7693 26.7706C25.6465 26.4961 25.5079 26.217 25.4042 25.9445C25.3906 25.9086 25.3875 25.8578 25.395 25.7921C26.4897 25.3876 27.2581 24.656 27.4301 23.5113C27.4603 23.3108 27.4743 22.8736 27.4722 22.1999C27.4634 19.5752 27.4627 17.0166 27.4702 14.5242C27.4702 14.5168 27.4672 14.5098 27.4619 14.5046C27.4566 14.4995 27.4494 14.4966 27.4419 14.4966L25.1769 14.4959C25.1616 14.4959 25.1469 14.4898 25.1361 14.479C25.1252 14.4682 25.1191 14.4535 25.1191 14.4381L25.1211 11.2701C25.1211 11.2621 25.1243 11.2544 25.13 11.2488C25.1356 11.2431 25.1433 11.2399 25.1513 11.2399L30.9462 11.2393C30.9594 11.2393 30.9721 11.2445 30.9815 11.2539C30.9908 11.2632 30.9961 11.2759 30.9961 11.2892C30.9952 15.1944 30.9946 19.1409 30.9941 23.1285C30.9937 23.6954 30.9278 24.2823 30.7965 24.8891C30.6638 25.4999 30.3941 26.0992 29.9874 26.6872C29.5509 27.3176 29.0294 27.7977 28.4231 28.1274Z" fill="white"/>
<path d="M20.5445 11.4154C20.4421 11.5345 20.3368 11.7313 20.2287 12.0058C19.712 13.314 19.1956 14.6226 18.6795 15.9317C18.6313 16.0547 18.5742 16.1709 18.5081 16.2804L17.0567 19.8923C17.0353 19.9453 17.035 19.9983 17.0561 20.0512L20.4664 28.6562C20.4813 28.6939 20.4686 28.7127 20.4283 28.7127L16.9306 28.7153C16.9115 28.7153 16.8928 28.7096 16.877 28.6988C16.8612 28.688 16.849 28.6727 16.842 28.6549L13.4553 20.0486C13.4355 19.9993 13.4355 19.944 13.4553 19.8943L16.8971 11.2775C16.9006 11.2692 16.9065 11.262 16.9141 11.257C16.9217 11.252 16.9307 11.2493 16.9398 11.2493C18.0794 11.248 19.2199 11.248 20.3613 11.2493C20.4935 11.2497 20.5546 11.3051 20.5445 11.4154Z" fill="white"/>
<path d="M20.5443 11.4153C21.5447 14.5229 22.5422 17.6195 23.5369 20.7052C23.6714 21.122 23.8141 21.5357 23.9651 21.9464C24.4231 23.1955 24.8815 24.4443 25.3403 25.693C25.3552 25.7337 25.3731 25.7667 25.3941 25.7921C25.3867 25.8578 25.3898 25.9086 25.4033 25.9445C25.5071 26.217 25.6457 26.4961 25.7685 26.7706C26.0811 27.4716 26.6211 27.9109 27.3886 28.0887C27.4924 28.1127 27.7056 28.1204 28.0282 28.1116C28.0584 28.1108 28.1237 28.1031 28.2239 28.0887C28.3242 28.0742 28.3903 28.0871 28.4223 28.1274C27.5992 28.5621 26.6743 28.7416 25.6476 28.6659C24.9261 28.6125 24.2528 28.4023 23.6276 28.0355C23.0304 27.6843 22.5786 27.1625 22.2721 26.4698C22.0191 25.8981 21.8043 25.3885 21.6279 24.941C20.867 23.0111 20.129 21.0502 19.4141 19.0581C19.2696 18.6562 19.1295 18.2416 18.9938 17.8143C18.8327 17.3095 18.6707 16.7982 18.5078 16.2802C18.5739 16.1708 18.6311 16.0545 18.6792 15.9315C19.1954 14.6225 19.7118 13.3139 20.2284 12.0057C20.3365 11.7312 20.4418 11.5344 20.5443 11.4153Z" fill="#2E3959"/>
</g>
<circle cx="20" cy="20" r="19.5" stroke="black" stroke-opacity="0.05"/>
<defs>
<clipPath id="clip0_17752_43629">
<rect width="22" height="17.5343" fill="white" transform="translate(9 11.2329)"/>
</clipPath>
</defs>
</svg>
