<svg width="40" height="40" viewBox="0 0 40 40" fill="none" xmlns="http://www.w3.org/2000/svg">
<circle cx="20" cy="20" r="20" fill="#C6D800"/>
<path fill-rule="evenodd" clip-rule="evenodd" d="M22.7592 20.3265L22.3037 19.9734L20.9594 19.0306V18.9635L20.9748 18.9118V18.5103L20.9594 17.9548L20.8758 16.8778L20.7911 16.3574L20.757 16.2716L20.724 16.1539V16.0527L20.7075 15.9361L20.8395 15.8349L20.9748 15.7337L21.6492 15.2299L23.0111 14.3212L24.4742 13.5302L25.9725 12.824L26.7459 12.5215L26.8625 12.4862L26.9483 12.4532L27.0154 12.4367L27.0484 12.4191L27.5522 12.2354L28.6116 12.033L29.1506 12H29.2354L29.539 12.0154L30.0923 12.2354L30.5125 12.5886L30.7821 13.0924L30.8679 13.3949V13.5137L30.9845 14.4048L30.9999 15.3289L30.9845 16.2045L30.7821 17.9196L30.5984 18.7611H30.5796V18.8293L30.4476 19.2661L30.0923 20.1076L29.5885 20.848L28.9482 21.4871L28.6116 21.7566L28.3267 21.9568L27.737 22.2935L27.099 22.5124L26.4422 22.6642L26.0726 22.6972L22.7592 20.3265Z" fill="white"/>
<path fill-rule="evenodd" clip-rule="evenodd" d="M21.4979 25.2211L20.3538 24.4807L20.3032 24.4301L20.3362 24.2112L20.5056 22.9329L20.5375 22.8152L20.7906 21.0826L21.3791 21.3356L22.6574 21.8405L23.1953 22.0583L25.8707 23.1529L26.2074 23.4719L26.7464 24.2288L26.9301 24.6666L26.9642 24.6996V24.7502L26.9807 24.7843L27.0148 24.868L27.0478 24.9351L27.0819 25.0539L27.0995 25.1705L27.1479 25.407L27.1666 25.8932L27.1325 26.1286L27.0643 26.5324L26.8806 26.9526L26.7618 27.1902L26.4417 27.6105L26.0566 27.9625L25.6188 28.2309L25.1469 28.4344L24.6595 28.5356L24.1557 28.5521L23.6332 28.4674L23.3636 28.3992L23.3471 28.3838H23.3141L23.2811 28.3651L23.2305 28.3508H23.2118L23.1953 28.3332L22.994 28.2496L22.7916 28.1649L22.4055 27.9295L21.7322 27.4069L21.1602 26.7689L20.7411 26.0285L20.5892 25.6413L21.4473 25.759L21.7487 25.8272V25.407L21.4979 25.2211Z" fill="white"/>
<path fill-rule="evenodd" clip-rule="evenodd" d="M17.376 20.3265L17.8634 19.9734L19.2253 19.0306V18.7116L19.2099 18.5103L19.2253 17.9548L19.3276 16.8778L19.4123 16.3574L19.4277 16.2716L19.4464 16.1539L19.4618 16.0527L19.4948 15.9361L19.3606 15.8349L19.2099 15.7337L18.5377 15.2299L17.1065 14.3212L15.6434 13.5302L14.0956 12.824L13.3057 12.5215L13.2056 12.4862L13.1198 12.4532L13.0703 12.4367L13.0197 12.4191L12.4972 12.2354L11.4213 12.033L10.8668 12H10.7821L10.4796 12.0154L9.92517 12.2354L9.48624 12.5886L9.18371 13.0924L9.11661 13.3949V13.5137L9.0165 14.4048L9 15.3289L9.0165 16.2045L9.23542 17.9196L9.42023 18.7611V18.7941L9.43673 18.8293L9.55444 19.2661L9.92517 20.1076L10.4301 20.848L11.0682 21.4871L11.4213 21.7566L11.7073 21.9568L12.3134 22.2935L12.9691 22.5124L13.6423 22.6642L13.9955 22.6972L17.376 20.3265Z" fill="white"/>
<path fill-rule="evenodd" clip-rule="evenodd" d="M18.57 25.2211L19.6646 24.4807L19.6965 24.4301L19.6646 24.2112L19.4952 22.9329L19.4787 22.8152L19.2433 21.0826L18.6536 21.3356L17.4105 21.8405L16.9045 22.0583L14.3138 23.1529L13.9794 23.4719L13.4393 24.2288L13.2544 24.6666V24.7337L13.2214 24.7502V24.7843L13.1873 24.868L13.1708 24.9351L13.1378 25.0539L13.1037 25.1705L13.052 25.407L13.0366 25.8932L13.0707 26.1286L13.1378 26.5324L13.305 26.9526L13.4393 27.1902L13.7264 27.6105L14.1125 27.9625L14.5327 28.2309L14.9882 28.4344L15.492 28.5356L15.9969 28.5521L16.5019 28.4674L16.7373 28.3992L16.7703 28.3838L16.8209 28.3651L16.8561 28.3508H16.8715L16.8891 28.3332L17.0904 28.2496L17.2917 28.1649L17.6779 27.9295L18.3357 27.4069L18.8726 26.7689L19.2763 26.0285L19.4281 25.6413L18.6206 25.759L18.3005 25.8272V25.407L18.57 25.2211Z" fill="white"/>
<circle cx="20" cy="20" r="19.5" stroke="black" stroke-opacity="0.05"/>
</svg>
