<svg width="40" height="40" viewBox="0 0 40 40" fill="none" xmlns="http://www.w3.org/2000/svg">
<circle cx="20" cy="20" r="20" fill="#404048"/>
<g clip-path="url(#clip0_18695_29118)">
<path d="M15.8453 13.105H28.7326L22.3347 19.6627H22.289C22.289 19.6627 22.2204 19.6781 22.1976 19.7089C20.1944 21.7563 18.1836 23.7882 16.1576 25.8125C16.0281 25.9433 15.9139 26.0049 15.8301 25.9972V18.1618L15.8529 13.105H15.8453Z" fill="#F5EE30"/>
<path d="M15.8144 18.1616V25.9816C15.8144 25.9816 15.7916 25.997 15.784 26.0201L8.0531 18.2848C7.96931 18.2001 7.98455 18.1616 8.10641 18.1616H15.8221H15.8144Z" fill="#2FC5F4"/>
<path d="M22.3345 19.6629L25.5106 22.7647C25.5106 22.7647 25.5335 22.8263 25.5411 22.8494C25.5487 22.8955 25.5715 22.9417 25.6096 22.9802L28.6791 26.1051C24.3529 26.1051 20.1104 26.1051 15.967 26.1051C15.906 26.1051 15.8451 26.0743 15.7842 26.0205C15.7918 25.9974 15.807 25.9897 15.8223 25.982C15.9137 25.9897 16.0203 25.9281 16.1498 25.7973C18.1758 23.773 20.1866 21.741 22.1898 19.6936C22.2126 19.6629 22.2431 19.6552 22.2812 19.6475H22.3269L22.3345 19.6629Z" fill="#F1592A"/>
<path d="M28.6793 26.0973L25.6098 22.9724C25.6098 22.9724 25.5564 22.8954 25.5412 22.8415C25.5412 22.8184 25.526 22.7876 25.5107 22.7569L31.8478 22.7261C32.0153 22.7261 32.0382 22.7876 31.9163 22.9031L28.6716 26.0973H28.6793Z" fill="#13A89E"/>
</g>
<circle cx="20" cy="20" r="19.5" stroke="black" stroke-opacity="0.05"/>
<defs>
<clipPath id="clip0_18695_29118">
<rect width="24" height="13" fill="white" transform="translate(8 13.105)"/>
</clipPath>
</defs>
</svg>
