<svg width="40" height="40" viewBox="0 0 40 40" fill="none" xmlns="http://www.w3.org/2000/svg">
<circle cx="20" cy="20" r="20" fill="#F6F8FA"/>
<g clip-path="url(#clip0_22307_36362)">
<path d="M18.207 15.2632H21.4867L18.7358 18.5602C18.7358 18.5602 18.7106 18.5794 18.7106 18.5474V16.4156C18.7106 16.4156 18.698 16.3835 18.6791 16.3835H18.2322C18.2322 16.3835 18.2007 16.3707 18.2007 16.3515V15.2632H18.207Z" fill="#ED1B23"/>
<path d="M14.9335 21.0058L18.1754 16.9661C18.1754 16.9661 18.188 16.9597 18.2006 16.9661C18.2006 16.9661 18.2006 16.9725 18.2006 16.979V20.148C18.2006 20.148 18.2006 20.1544 18.2006 20.1608L16.224 22.7856C16.224 22.7856 16.224 22.7856 16.224 22.7984V25.2568C16.224 25.2568 16.2177 25.276 16.2051 25.276H13.5864C13.5864 25.276 13.5675 25.2696 13.5675 25.2568V22.7984C13.5675 22.7984 13.5675 22.792 13.5675 22.7856L9.03516 16.9533C9.03516 16.9533 9.03516 16.9341 9.03516 16.9277C9.03516 16.9277 9.03516 16.9277 9.04775 16.9277H11.6098C11.6098 16.9277 11.6161 16.9277 11.6224 16.9277L14.9084 20.9994C14.9084 20.9994 14.9209 21.0058 14.9335 20.9994V21.0058Z" fill="#221E1F"/>
<path d="M27.3789 20.2184L24.1055 23.5603H24.0866L20.8447 20.2184H20.8258C20.8258 20.2184 20.8258 20.2248 20.8258 20.2312V25.244C20.8258 25.244 20.8195 25.2568 20.8133 25.2568H18.2323C18.2323 25.2568 18.2197 25.2504 18.2197 25.244V20.1416C18.2197 20.1416 18.2197 20.1352 18.2197 20.1288L20.7692 16.9341C20.7692 16.9341 20.7818 16.9277 20.7881 16.9341L24.0929 20.6217C24.0929 20.6217 24.1055 20.6281 24.1118 20.6217L27.5174 16.9277C27.5174 16.9277 27.5237 16.9277 27.53 16.9277H30.0228C30.0228 16.9277 30.0354 16.9341 30.0354 16.9405V25.244C30.0354 25.244 30.0291 25.2568 30.0228 25.2568H27.423C27.423 25.2568 27.4104 25.2504 27.4104 25.244V20.2312C27.4104 20.2312 27.4104 20.2184 27.3978 20.212C27.3978 20.212 27.3915 20.212 27.3852 20.212L27.3789 20.2184Z" fill="#221E1F"/>
</g>
<circle cx="20" cy="20" r="19.5" stroke="black" stroke-opacity="0.05"/>
<defs>
<clipPath id="clip0_22307_36362">
<rect width="21" height="10" fill="white" transform="translate(9.03516 15.2632)"/>
</clipPath>
</defs>
</svg>
