<svg width="40" height="40" viewBox="0 0 40 40" fill="none" xmlns="http://www.w3.org/2000/svg">
<circle cx="20" cy="20" r="20" fill="#F6F8FA"/>
<g clip-path="url(#clip0_18553_55626)">
<path d="M19.7303 23.1069C19.2703 23.1069 18.8603 23.0569 18.5103 22.9769C18.1603 22.8869 17.8303 22.7769 17.5303 22.6469V21.2069H17.6703C17.9703 21.4669 18.3103 21.6569 18.6703 21.7969C19.0403 21.9369 19.3903 22.0069 19.7303 22.0069C19.8203 22.0069 19.9303 22.0069 20.0703 21.9769C20.2103 21.9569 20.3303 21.9269 20.4103 21.8869C20.5203 21.8369 20.6003 21.7769 20.6803 21.6969C20.7503 21.6169 20.7903 21.5069 20.7903 21.3669C20.7903 21.2169 20.7303 21.0969 20.6103 20.9969C20.4903 20.9069 20.3503 20.8369 20.1803 20.7869C19.9703 20.7369 19.7503 20.6769 19.5203 20.6369C19.2903 20.5869 19.0703 20.5269 18.8603 20.4569C18.3903 20.2869 18.0603 20.0669 17.8503 19.7869C17.6503 19.5069 17.5503 19.1569 17.5503 18.7369C17.5503 18.1669 17.7903 17.7169 18.2703 17.3669C18.7503 17.0169 19.3503 16.8369 20.0603 16.8369C20.4203 16.8369 20.7803 16.8769 21.1303 16.9469C21.4903 17.0169 21.8003 17.1169 22.0903 17.2469V18.6269H21.9603C21.7403 18.4369 21.4603 18.2769 21.1403 18.1369C20.8203 18.0069 20.4803 17.9369 20.1403 17.9369C20.0103 17.9369 19.8903 17.9369 19.7803 17.9669C19.6703 17.9869 19.5603 18.0269 19.4503 18.0769C19.3603 18.1169 19.2703 18.1869 19.2003 18.2669C19.1303 18.3569 19.1003 18.4469 19.1003 18.5569C19.1003 18.7069 19.1503 18.8369 19.2603 18.9269C19.3703 19.0169 19.5803 19.0969 19.9003 19.1669C20.1003 19.2169 20.3003 19.2569 20.4903 19.2969C20.6803 19.3369 20.8803 19.3969 21.0903 19.4769C21.5103 19.6269 21.8203 19.8369 22.0303 20.0869C22.2303 20.3469 22.3403 20.6769 22.3403 21.0969C22.3403 21.6969 22.1003 22.1769 21.6303 22.5469C21.1603 22.9169 20.5203 23.0969 19.7203 23.0969L19.7303 23.1069Z" fill="#413F40"/>
<path d="M24.99 23.1069C24.53 23.1069 24.12 23.0569 23.77 22.9769C23.42 22.8869 23.09 22.7769 22.79 22.6469V21.2069H22.93C23.23 21.4669 23.57 21.6569 23.93 21.7969C24.3 21.9369 24.65 22.0069 24.99 22.0069C25.08 22.0069 25.19 22.0069 25.33 21.9769C25.47 21.9569 25.59 21.9269 25.67 21.8869C25.78 21.8369 25.86 21.7769 25.94 21.6969C26.01 21.6169 26.05 21.5069 26.05 21.3669C26.05 21.2169 25.99 21.0969 25.87 20.9969C25.75 20.9069 25.61 20.8369 25.44 20.7869C25.23 20.7369 25.01 20.6769 24.78 20.6369C24.55 20.5869 24.33 20.5269 24.12 20.4569C23.65 20.2869 23.32 20.0669 23.11 19.7869C22.91 19.5069 22.8 19.1569 22.8 18.7369C22.8 18.1669 23.04 17.7169 23.52 17.3669C24 17.0169 24.6 16.8369 25.31 16.8369C25.67 16.8369 26.03 16.8769 26.38 16.9469C26.74 17.0169 27.05 17.1169 27.34 17.2469V18.6269H27.21C26.99 18.4369 26.71 18.2769 26.39 18.1369C26.07 18.0069 25.73 17.9369 25.39 17.9369C25.26 17.9369 25.14 17.9369 25.03 17.9669C24.92 17.9869 24.81 18.0269 24.7 18.0769C24.6 18.1169 24.52 18.1869 24.45 18.2669C24.38 18.3569 24.35 18.4469 24.35 18.5569C24.35 18.7069 24.4 18.8369 24.51 18.9269C24.62 19.0169 24.83 19.0969 25.15 19.1669C25.35 19.2169 25.55 19.2569 25.74 19.2969C25.93 19.3369 26.13 19.3969 26.34 19.4769C26.76 19.6269 27.07 19.8369 27.27 20.0869C27.47 20.3469 27.58 20.6769 27.58 21.0969C27.58 21.6969 27.34 22.1769 26.87 22.5469C26.4 22.9169 25.76 23.0969 24.96 23.0969L24.99 23.1069Z" fill="#413F40"/>
<path d="M33.9804 22.997H32.1304L30.4504 20.777H29.9104V22.997H28.4004V16.957H30.8304C31.1704 16.957 31.4604 16.977 31.7104 17.017C31.9604 17.057 32.1904 17.147 32.4004 17.277C32.6204 17.417 32.7904 17.587 32.9104 17.807C33.0404 18.017 33.1004 18.287 33.1004 18.617C33.1004 19.077 33.0004 19.457 32.7904 19.747C32.5804 20.037 32.3004 20.267 31.9504 20.437L33.9804 23.007V22.997ZM31.5404 18.807C31.5404 18.657 31.5104 18.527 31.4504 18.417C31.3904 18.307 31.3004 18.227 31.1604 18.167C31.0704 18.127 30.9604 18.097 30.8404 18.087C30.7204 18.077 30.5804 18.067 30.4104 18.067H29.9004V19.697H30.3304C30.5404 19.697 30.7204 19.687 30.8704 19.657C31.0204 19.627 31.1404 19.577 31.2504 19.497C31.3504 19.417 31.4204 19.327 31.4704 19.227C31.5204 19.117 31.5404 18.987 31.5404 18.817V18.807Z" fill="#9D3324"/>
<path d="M19.45 29.8268C14.11 29.8268 9.75 25.5568 9.6 20.2568H7C7.15 27.0068 12.67 32.4268 19.45 32.4268C24.88 32.4268 29.5 28.9468 31.2 24.1068H28.4C26.83 27.4868 23.41 29.8368 19.45 29.8368V29.8268Z" fill="#AFAFAF"/>
<path d="M28.3998 15.8368H31.1998C29.7498 11.7068 26.1798 8.57682 21.7998 7.73682V10.3968C24.7298 11.1168 27.1498 13.1468 28.3998 15.8368Z" fill="#AFAFAF"/>
<path d="M19.4505 26.0969C16.1705 26.0969 13.4805 23.5069 13.3305 20.2569C13.3305 20.1569 13.3305 20.0669 13.3305 19.9669C13.3305 16.5869 16.0805 13.8469 19.4505 13.8469C20.2805 13.8469 21.0705 14.0169 21.8005 14.3169C22.6305 14.6669 23.3705 15.1869 23.9605 15.8369H27.1305C26.0205 13.7769 24.1005 12.2169 21.8005 11.5769C21.0505 11.3669 20.2705 11.2569 19.4505 11.2569C14.6305 11.2469 10.7305 15.1569 10.7305 19.9669C10.7305 20.0669 10.7305 20.1569 10.7305 20.2569C10.8805 24.9369 14.7205 28.6869 19.4405 28.6869C22.7605 28.6869 25.6505 26.8269 27.1205 24.0969H23.9505C22.8305 25.3169 21.2205 26.0869 19.4405 26.0869L19.4505 26.0969Z" fill="#AFAFAF"/>
</g>
<circle cx="20" cy="20" r="19.5" stroke="black" stroke-opacity="0.05"/>
<defs>
<clipPath id="clip0_18553_55626">
<rect width="26.98" height="24.69" fill="white" transform="translate(7 7.73682)"/>
</clipPath>
</defs>
</svg>
