<svg width="40" height="40" viewBox="0 0 40 40" fill="none" xmlns="http://www.w3.org/2000/svg">
<circle cx="20" cy="20" r="20" fill="#F6F8FA"/>
<path d="M31.9079 18.7447L29.1698 21.4342L20.1182 12.427C20.0674 12.3784 20.0399 12.3889 20.0378 12.4587C19.9871 13.6681 19.9673 14.8614 19.9786 16.0384C19.964 16.2381 19.9928 16.4386 20.0632 16.6261L20.0167 24.942L10.9058 15.8671C10.8989 15.8604 10.8933 15.8523 10.8895 15.8434C10.8857 15.8345 10.8838 15.825 10.8838 15.8153C10.8838 15.8056 10.8857 15.796 10.8895 15.7871C10.8933 15.7782 10.8989 15.7702 10.9058 15.7635L19.9659 6.75415C19.978 6.743 19.9939 6.73682 20.0103 6.73682C20.0268 6.73682 20.0426 6.743 20.0547 6.75415C23.9705 10.6516 27.8779 14.5484 31.7768 18.4445C31.9311 18.5989 31.9734 18.6982 31.9079 18.7447Z" fill="#E61415"/>
<path d="M10.8654 20.0577L8.09559 22.7641L8.00044 18.9223C7.99732 18.8439 8.01078 18.7657 8.03992 18.6928C8.06907 18.62 8.11325 18.5541 8.16959 18.4994L10.6751 15.9897C10.6822 15.9826 10.6906 15.9769 10.6998 15.9731C10.7091 15.9693 10.719 15.9673 10.729 15.9673C10.7391 15.9673 10.749 15.9693 10.7582 15.9731C10.7675 15.9769 10.7759 15.9826 10.783 15.9897C10.7963 16.0032 10.8038 16.0214 10.8041 16.0404L10.8654 20.0577Z" fill="#B7BCC0"/>
<path d="M20.0719 16.6262L29.0981 25.5742C29.1235 25.6003 29.1376 25.6352 29.1376 25.6715C29.1376 25.7078 29.1235 25.7427 29.0981 25.7688L20.0973 34.721C20.0878 34.7337 20.0755 34.744 20.0614 34.7511C20.0473 34.7582 20.0317 34.7619 20.0159 34.7619C20 34.7619 19.9844 34.7582 19.9703 34.7511C19.9562 34.744 19.9439 34.7337 19.9345 34.721C16.013 30.8292 12.0965 26.9274 8.18489 23.0159C8.14992 22.9818 8.1238 22.9397 8.10877 22.8932C8.0834 22.8234 8.07917 22.779 8.09609 22.7642L10.8659 20.0578L19.8605 29.0291C19.9598 29.1285 20.0085 29.1074 20.0106 28.9678L20.0254 24.9505L20.0719 16.6262Z" fill="#231816"/>
<path d="M31.908 18.7446C31.9954 20.0485 32.0208 21.3235 31.9842 22.5695C31.981 22.7787 31.896 22.9784 31.7473 23.1256C31.0313 23.8501 30.256 24.6028 29.4215 25.3838C29.2608 25.536 29.1805 25.5 29.1784 25.278L29.1699 21.4341L31.908 18.7446Z" fill="#B7BCC0"/>
<circle cx="20" cy="20" r="19.5" stroke="black" stroke-opacity="0.05"/>
</svg>
