<svg width="40" height="40" viewBox="0 0 40 40" fill="none" xmlns="http://www.w3.org/2000/svg">
<circle cx="20" cy="20" r="20" fill="#76303E"/>
<path d="M12.6608 19.5024C12.6629 19.2575 12.6608 19.0106 12.6608 18.7637C12.6608 18.5167 12.5452 18.38 12.3146 18.3528C12.2744 18.348 12.2431 18.3147 12.2418 18.2746C12.2404 18.2249 12.2642 18.1943 12.3132 18.1827C12.5295 18.131 12.7397 18.0732 12.9445 18.0099C13.0391 17.9807 13.0867 18.0161 13.086 18.1154C13.0812 19.2113 13.0812 20.3507 13.086 21.5337C13.086 21.7146 13.1608 21.8228 13.3098 21.8588C13.3533 21.869 13.3846 21.9078 13.3853 21.9527C13.3853 22.0051 13.3744 22.0323 13.3506 22.033C13.1241 22.0425 12.9057 22.0432 12.6955 22.0343C12.671 22.033 12.6513 22.0126 12.6527 21.9874C12.6527 21.9874 12.6527 21.9874 12.6527 21.9867L12.6635 21.8187C12.6697 21.7303 12.6404 21.7167 12.5758 21.7779C12.0915 22.2411 11.4024 22.1901 11.1173 21.5432C10.8411 20.9153 10.8296 19.8364 11.4819 19.3963C11.8316 19.1603 12.3091 19.2426 12.6187 19.5208C12.6289 19.5296 12.6452 19.529 12.654 19.5187C12.6581 19.514 12.6601 19.5085 12.6601 19.5024H12.6608ZM12.637 19.8215C12.4581 19.5704 12.1159 19.4528 11.8275 19.58C11.3296 19.7997 11.3745 20.7521 11.4513 21.1922C11.5609 21.8187 12.1615 22.0731 12.5874 21.5024C12.6411 21.4303 12.6669 21.3473 12.6663 21.2527C12.6629 20.8058 12.6615 20.3568 12.6635 19.9058C12.6635 19.8745 12.6554 19.8466 12.637 19.8215Z" fill="white"/>
<path d="M4.23725 18.4093C4.18283 18.3944 4.12773 18.3767 4.07263 18.3569C4.04338 18.3467 4.02297 18.3195 4.02161 18.2882C4.01957 18.242 4.0427 18.2175 4.091 18.2155C4.50255 18.1991 4.88622 18.1991 5.24199 18.2148C5.27737 18.2161 5.29505 18.2345 5.29505 18.2692V18.2944C5.29505 18.3427 5.27124 18.3692 5.22295 18.3733C5.0005 18.3916 4.88894 18.5195 4.88758 18.7569C4.88146 19.8923 4.8801 20.7882 4.88486 21.446C4.88758 21.7875 5.12363 21.8501 5.40049 21.8188C5.95422 21.7555 6.2753 21.2542 6.53788 20.8134C6.55489 20.7861 6.59026 20.7773 6.61747 20.7943C6.63108 20.8032 6.64128 20.8168 6.644 20.8331C6.65353 20.8875 6.64876 20.9453 6.62972 21.0065C6.52972 21.331 6.43244 21.6521 6.33653 21.9698C6.32428 22.0106 6.28687 22.0392 6.24401 22.0392C5.59165 22.0392 4.93588 22.0392 4.27807 22.0378C4.22433 22.0378 4.17127 22.0337 4.11821 22.0249C3.96923 21.9997 3.96107 21.9514 4.09372 21.8786C4.14678 21.8494 4.20664 21.829 4.27263 21.8167C4.29712 21.8127 4.31889 21.799 4.33317 21.7786C4.40732 21.6746 4.44473 21.5589 4.44541 21.431C4.44881 20.5991 4.44813 19.7256 4.44337 18.81C4.44269 18.676 4.39167 18.4529 4.23725 18.4093Z" fill="white"/>
<path d="M27.6375 20.661C27.5743 20.8617 27.5117 21.0794 27.4505 21.3141C27.4137 21.4549 27.4137 21.578 27.4505 21.6828C27.496 21.8127 27.6668 21.8331 27.7858 21.8569C27.8083 21.861 27.8253 21.8732 27.8362 21.8936C27.8518 21.9229 27.8552 21.9535 27.847 21.9855C27.8402 22.0106 27.8239 22.0242 27.7974 22.0256C27.4198 22.0467 27.0498 22.0474 26.6872 22.0283C26.6607 22.0263 26.645 22.0127 26.6403 21.9862C26.626 21.91 26.6872 21.8515 26.7593 21.8433C26.9933 21.8154 27.0967 21.5868 27.1627 21.3766C27.4797 20.3651 27.7926 19.3298 28.1021 18.2706C28.1123 18.2352 28.1443 18.21 28.181 18.2094L28.4722 18.2046C28.5157 18.2039 28.5436 18.2237 28.5559 18.2651C28.8559 19.2706 29.1769 20.329 29.5205 21.4413C29.5769 21.6249 29.6735 21.8229 29.8871 21.844C29.9368 21.8487 29.9654 21.876 29.9735 21.9249L29.9796 21.9617C29.9851 21.997 29.9613 22.0304 29.9266 22.0358C29.9232 22.0358 29.9198 22.0365 29.9164 22.0365H28.7157C28.6742 22.0372 28.6402 22.0038 28.6389 21.9623C28.6375 21.9072 28.6654 21.8732 28.7219 21.8617C28.8906 21.8263 29.1089 21.7862 29.0484 21.5433C28.9695 21.2243 28.8878 20.9256 28.8042 20.6474C28.7953 20.6188 28.7763 20.6046 28.7463 20.6052L27.7103 20.608C27.6729 20.608 27.6491 20.6256 27.6375 20.661ZM27.7355 20.3222C27.73 20.342 27.7416 20.3631 27.7613 20.3685C27.7647 20.3692 27.7681 20.3699 27.7715 20.3699H28.6804C28.7008 20.3699 28.7178 20.3529 28.7178 20.3324C28.7178 20.329 28.7178 20.3256 28.7164 20.3222L28.262 18.7175C28.2566 18.6978 28.2362 18.6862 28.2157 18.6917C28.2028 18.6951 28.1933 18.7053 28.1899 18.7175L27.7355 20.3222Z" fill="white"/>
<path d="M7.50978 18.6989C7.51044 18.5103 7.3928 18.357 7.24703 18.3565C7.10127 18.356 6.98256 18.5085 6.9819 18.6971C6.98125 18.8857 7.09888 19.039 7.24465 19.0395C7.39042 19.04 7.50912 18.8875 7.50978 18.6989Z" fill="white"/>
<path d="M33.0689 18.6989C33.0699 18.5103 32.9532 18.3568 32.8081 18.356C32.6631 18.3552 32.5448 18.5075 32.5438 18.6961C32.5428 18.8847 32.6596 19.0382 32.8046 19.039C32.9496 19.0397 33.0679 18.8875 33.0689 18.6989Z" fill="white"/>
<path d="M8.77331 19.6398C8.77058 19.7146 8.79507 19.7248 8.84609 19.6704C9.03793 19.4677 9.31003 19.2922 9.58825 19.2623C10.2168 19.1963 10.3808 19.6942 10.3692 20.2146C10.359 20.6473 10.3603 21.0901 10.3733 21.5425C10.3794 21.737 10.4746 21.8425 10.659 21.8588C10.6916 21.8615 10.7195 21.8826 10.7304 21.9132C10.7372 21.9302 10.7406 21.9479 10.7406 21.9656C10.7406 22.0118 10.7168 22.035 10.6705 22.0357L9.62295 22.0391C9.59506 22.0391 9.57125 22.0193 9.56581 21.9921C9.55832 21.9574 9.5624 21.9255 9.57805 21.8955C9.58893 21.8738 9.60934 21.8588 9.63315 21.8533C9.82702 21.8098 9.92294 21.7554 9.92634 21.535C9.93382 21.1187 9.93655 20.6643 9.93382 20.1711C9.93246 19.8942 9.88893 19.5133 9.50254 19.5554C9.26513 19.582 9.04541 19.7058 8.84269 19.9269C8.76446 20.0119 8.78011 20.0765 8.77807 20.1833C8.76854 20.6806 8.77263 21.135 8.78963 21.5452C8.79712 21.7343 8.89235 21.8363 9.07398 21.8506C9.13112 21.8554 9.15969 21.886 9.15901 21.9438V21.9785C9.15901 22.0105 9.13316 22.037 9.10119 22.037H8.0223C7.99373 22.037 7.97332 22.0241 7.96108 21.9989C7.94679 21.9704 7.94884 21.9425 7.9672 21.9153C7.98829 21.8819 8.0189 21.8615 8.05768 21.8527C8.1257 21.8384 8.18897 21.8139 8.24747 21.7806C8.26992 21.7676 8.28488 21.7493 8.29373 21.7248C8.3325 21.6105 8.35223 21.4853 8.35223 21.3486C8.35223 20.884 8.35019 20.4371 8.34747 20.0078C8.34542 19.7595 8.23114 19.6221 8.00462 19.5949C7.98081 19.5915 7.96312 19.5799 7.95156 19.5588C7.93523 19.5282 7.93659 19.4983 7.95496 19.4704C7.96992 19.448 7.99237 19.433 8.0223 19.4262C8.26039 19.3711 8.48964 19.3316 8.71004 19.3065C8.74542 19.3024 8.77739 19.3276 8.78147 19.3629C8.78147 19.3663 8.78147 19.3697 8.78147 19.3731L8.77263 19.6398H8.77331Z" fill="white"/>
<path d="M14.1567 20.4083C14.1404 20.4083 14.1275 20.4206 14.1268 20.4369C14.1105 20.8171 14.1656 21.3253 14.4281 21.6212C14.803 22.0443 15.307 21.7702 15.5172 21.3573C15.5274 21.3375 15.5492 21.3273 15.571 21.3328C15.6097 21.3423 15.6369 21.3702 15.6526 21.4158C15.6608 21.4403 15.6594 21.4668 15.6478 21.4892C15.3723 22.0484 14.7853 22.2681 14.2513 21.9416C13.4268 21.4369 13.4601 19.5036 14.5186 19.2825C15.2199 19.1356 15.6914 19.7247 15.6696 20.3736C15.6689 20.3927 15.6533 20.4083 15.6335 20.4083H14.1567ZM14.2002 20.1831L15.188 20.1872C15.2009 20.1872 15.2118 20.1763 15.2118 20.1634V20.1546C15.2131 19.7818 14.9832 19.4791 14.6982 19.4777H14.6955C14.4104 19.4764 14.1778 19.7777 14.1764 20.1505V20.1593C14.1764 20.1723 14.1873 20.1831 14.2002 20.1831Z" fill="white"/>
<path d="M16.6935 19.6208C16.6962 19.6378 16.7125 19.6493 16.7295 19.6466C16.737 19.6453 16.7431 19.6419 16.7479 19.6364C17.0254 19.3201 17.4465 19.1405 17.8343 19.3351C17.9642 19.3997 18.0506 19.4976 18.0948 19.6283C18.1036 19.6548 18.1322 19.6684 18.1581 19.6595C18.1655 19.6568 18.1723 19.6527 18.1785 19.6466C18.3424 19.4718 18.5315 19.3527 18.7458 19.2881C19.2233 19.1453 19.5587 19.4664 19.556 19.9419C19.5526 20.4745 19.5533 20.9922 19.5594 21.4942C19.5614 21.6949 19.6478 21.8173 19.8179 21.8602C19.8512 21.869 19.8764 21.8887 19.8934 21.9194C19.909 21.9486 19.9063 21.9772 19.8852 22.0051C19.8703 22.0248 19.8505 22.0343 19.8254 22.0343L18.8077 22.0391C18.7778 22.0391 18.7574 22.0255 18.7458 21.9976C18.7206 21.9343 18.741 21.8901 18.807 21.8656C18.8567 21.8466 18.907 21.833 18.9574 21.8255C18.9859 21.8207 19.0118 21.8058 19.0301 21.7833C19.092 21.7071 19.1227 21.6255 19.1233 21.5384C19.124 21.0527 19.1261 20.552 19.1288 20.0357C19.1322 19.2813 18.4723 19.5711 18.1737 19.8772C18.1424 19.9092 18.1247 19.9521 18.124 19.997C18.1206 20.5024 18.122 21.0003 18.1281 21.4915C18.1295 21.5969 18.1621 21.6928 18.2254 21.7806C18.2404 21.8017 18.2601 21.8146 18.2846 21.8207L18.4723 21.8683C18.4955 21.8745 18.5132 21.8935 18.5179 21.9173C18.5322 21.9915 18.5029 22.0302 18.4302 22.0323C18.0553 22.0425 17.7036 22.0418 17.3758 22.0302C17.337 22.0289 17.3145 22.0085 17.3091 21.9697C17.3043 21.9296 17.3247 21.8949 17.371 21.8656C17.3839 21.8575 17.3982 21.852 17.4132 21.8506C17.5982 21.8302 17.6921 21.7268 17.6941 21.5405C17.6989 21.1017 17.7009 20.5908 17.7002 20.0085C17.6989 19.3398 17.1064 19.531 16.7941 19.8119C16.7261 19.8738 16.6969 19.9255 16.6948 20.0174C16.6833 20.5568 16.688 21.0622 16.7098 21.535C16.7139 21.6248 16.7438 21.7078 16.7989 21.7833C16.8132 21.803 16.8316 21.816 16.8554 21.8228C16.9043 21.8357 16.9533 21.8472 17.003 21.8575C17.0669 21.8704 17.1023 21.9336 17.0785 21.9942C17.0703 22.0153 17.0547 22.0268 17.0322 22.0275C16.6533 22.0459 16.2833 22.0459 15.9221 22.0262C15.8962 22.0248 15.8751 22.0037 15.8751 21.9772C15.8744 21.9098 15.9084 21.8697 15.9778 21.8575C16.1669 21.8248 16.2615 21.7132 16.2622 21.5234C16.2642 21.0452 16.2663 20.5861 16.269 20.1459C16.2703 19.9031 16.2513 19.6636 15.9724 19.5976C15.8125 19.5602 15.8057 19.5038 15.952 19.4283C15.9894 19.4092 16.0302 19.3963 16.0744 19.3902C16.2615 19.3616 16.439 19.333 16.6071 19.3044C16.6513 19.297 16.6928 19.3262 16.7009 19.3704C16.703 19.3806 16.7023 19.3915 16.7009 19.4017C16.6853 19.4745 16.6826 19.548 16.6941 19.6208H16.6935Z" fill="white"/>
<path d="M21.5955 20.4167C21.6159 20.1677 21.6084 19.9616 21.5723 19.7977C21.4968 19.4541 21.0281 19.429 20.7805 19.5589C20.6091 19.6494 20.6445 19.848 20.6173 20.0092C20.5921 20.1609 20.437 20.263 20.3037 20.167C20.0778 20.0058 20.239 19.6718 20.403 19.5317C20.703 19.2745 21.0662 19.1977 21.4914 19.3004C21.954 19.4126 22.0315 19.7466 22.0227 20.1691C22.0145 20.5779 22.0172 20.9847 22.0301 21.3901C22.037 21.5942 22.0961 21.9269 22.4077 21.7881C22.4444 21.7718 22.4866 21.7881 22.5029 21.8248C22.507 21.8344 22.5091 21.8452 22.5091 21.8554C22.507 21.9731 22.3764 22.05 22.1165 22.0847C22.0546 22.0928 21.9948 22.0874 21.9363 22.0677C21.8036 22.0241 21.6995 21.9133 21.6247 21.735C21.6172 21.718 21.5975 21.7099 21.5798 21.7173C21.5764 21.7187 21.573 21.7207 21.5703 21.7235C21.437 21.8439 21.2962 21.9398 21.1472 22.0112C20.7533 22.201 20.1574 22.0235 20.1111 21.5276C20.0302 20.6657 20.9138 20.533 21.5472 20.4664C21.573 20.4636 21.5927 20.4425 21.5955 20.4167ZM21.5635 20.6582C21.1363 20.6766 20.5724 20.8575 20.5506 21.3425C20.5445 21.482 20.5826 21.5949 20.6649 21.682C20.9261 21.9588 21.3513 21.7187 21.5601 21.4861C21.5907 21.452 21.605 21.4112 21.6043 21.3643C21.5995 21.1487 21.6002 20.9276 21.607 20.701C21.6077 20.6711 21.5934 20.6568 21.5635 20.6582Z" fill="white"/>
<path d="M23.4707 19.6887C23.5299 19.6472 23.5734 19.5757 23.6285 19.5315C24.2006 19.0758 24.9877 19.1513 24.9884 20.0383C24.9884 20.5335 24.9884 20.9927 24.987 21.4152C24.987 21.6077 25.0428 21.8478 25.2863 21.8532C25.3244 21.8532 25.3564 21.8825 25.3611 21.9199L25.3679 21.973C25.372 22.0029 25.3509 22.0308 25.321 22.0349C25.3183 22.0349 25.3162 22.0349 25.3135 22.0349H24.2435C24.2135 22.0349 24.1918 22.022 24.1775 21.9954C24.1476 21.9396 24.1632 21.8988 24.2238 21.8737C24.2782 21.8512 24.3353 21.8349 24.3959 21.8254C24.4176 21.822 24.4367 21.8124 24.4523 21.7968C24.5217 21.7281 24.5578 21.6417 24.5598 21.5376C24.57 21.0376 24.5707 20.5295 24.5598 20.0138C24.5557 19.7819 24.4285 19.524 24.1544 19.5513C23.9312 19.573 23.419 19.7975 23.4149 20.1063C23.4081 20.6172 23.4108 21.0961 23.4231 21.5431C23.4292 21.7716 23.5387 21.8206 23.7374 21.8662C23.7612 21.8716 23.7816 21.8879 23.7925 21.9111C23.8068 21.943 23.8047 21.973 23.7857 22.0015C23.7714 22.0233 23.751 22.0342 23.7251 22.0342L22.6755 22.0376C22.6544 22.0376 22.636 22.0294 22.6217 22.0138C22.5911 21.9805 22.5864 21.943 22.6075 21.9015C22.6177 21.8818 22.6347 21.8675 22.6558 21.8621L22.8129 21.8186C22.866 21.8036 22.9081 21.7621 22.9245 21.709C22.9632 21.5798 22.9823 21.4417 22.9823 21.2954C22.9823 20.8907 22.983 20.505 22.983 20.137C22.983 19.9186 22.9558 19.6308 22.6734 19.6036C22.6415 19.6009 22.6122 19.5832 22.5945 19.556C22.5796 19.5336 22.5775 19.5091 22.5884 19.4826C22.6 19.4567 22.619 19.4397 22.6462 19.4322C22.8755 19.3676 23.117 19.3261 23.3714 19.3091C23.3952 19.3077 23.4163 19.3261 23.4177 19.3499C23.4177 19.3513 23.4177 19.3519 23.4177 19.3533L23.4115 19.6567C23.4115 19.6771 23.4279 19.6941 23.4483 19.6948C23.4557 19.6948 23.4632 19.6928 23.47 19.688L23.4707 19.6887Z" fill="white"/>
<path d="M31.5183 19.4555L31.5461 19.3487C31.5536 19.3201 31.572 19.3065 31.6012 19.3086C31.6536 19.312 31.6836 19.3412 31.6904 19.3956C31.7203 19.6412 31.7563 19.8854 31.7985 20.1269C31.8026 20.1494 31.7944 20.1657 31.7734 20.1752C31.7278 20.197 31.6924 20.1847 31.6672 20.1385C31.5312 19.8875 31.4128 19.6637 31.1394 19.5426C30.5516 19.2827 30.0938 20.0317 30.7754 20.2528C30.9741 20.3174 31.1672 20.3786 31.355 20.4371C31.6047 20.5153 31.8904 20.667 31.9373 20.9473C32.0019 21.3316 31.9135 21.633 31.6706 21.8514C31.3223 22.1656 30.738 22.1684 30.3856 21.8466C30.3577 21.8207 30.3367 21.8255 30.3224 21.8616C30.3074 21.9017 30.2986 21.9446 30.2965 21.9908C30.2952 22.0187 30.2809 22.0357 30.253 22.0412C30.2387 22.0439 30.2237 22.0439 30.2081 22.0412C30.1659 22.035 30.1326 22.001 30.1258 21.9582L29.9986 21.0881C29.9952 21.0629 30.0088 21.0385 30.0319 21.0282C30.0611 21.0153 30.0884 21.0167 30.1135 21.0337C30.136 21.0487 30.1516 21.0684 30.1605 21.0929C30.3271 21.5772 30.6632 21.9092 31.189 21.8214C31.5904 21.7534 31.8033 21.1629 31.3196 20.9908C30.9775 20.8691 30.3074 20.7419 30.1339 20.3997C29.9836 20.1045 30.0618 19.7337 30.2761 19.512C30.5972 19.1793 31.1217 19.1746 31.4625 19.4718C31.4774 19.4841 31.4992 19.4827 31.5115 19.4677C31.5149 19.4637 31.5169 19.4596 31.5183 19.4548V19.4555Z" fill="white"/>
<path d="M35.0433 21.7148C34.7535 22.0284 34.3276 22.2019 33.9317 22.0012C33.7616 21.9155 33.6535 21.7822 33.6072 21.6012C33.5025 21.1979 33.7351 20.8387 34.1059 20.6707C34.38 20.5468 34.6916 20.4795 35.0419 20.4693C35.0637 20.4686 35.082 20.4523 35.0847 20.4305C35.1398 19.9326 35.082 19.387 34.4276 19.4959C34.2712 19.5217 34.1045 19.6401 34.1072 19.8156C34.1079 19.8822 34.1052 19.9482 34.0984 20.0135C34.0705 20.2781 33.6875 20.2625 33.6848 19.9482C33.6834 19.806 33.7385 19.685 33.8351 19.585C34.0957 19.3149 34.4453 19.2129 34.8854 19.2795C35.4698 19.3686 35.5378 19.7992 35.5256 20.3414C35.5153 20.7707 35.5194 21.1727 35.5364 21.5475C35.5405 21.6448 35.5786 21.7264 35.65 21.7938C35.6664 21.8094 35.6861 21.8176 35.7092 21.8196C35.7609 21.823 35.814 21.8176 35.8691 21.8046C35.9997 21.7727 36.0323 21.8155 35.9677 21.9332C35.9521 21.9611 35.931 21.9822 35.9031 21.9965C35.5841 22.1563 35.3385 22.1121 35.1657 21.8638C35.1358 21.8216 35.1283 21.7686 35.1052 21.723C35.0956 21.7046 35.0725 21.6972 35.0535 21.7067C35.0494 21.7087 35.046 21.7114 35.0433 21.7148ZM35.0535 20.6543C34.663 20.6822 34.129 20.8217 34.0406 21.2536C34.0045 21.4298 34.0426 21.5747 34.1548 21.6897C34.4106 21.9502 34.829 21.7223 35.0296 21.4985C35.0745 21.4489 35.0963 21.3863 35.0956 21.3115C35.0936 21.089 35.0936 20.8836 35.0956 20.6938C35.0956 20.6652 35.082 20.6523 35.0535 20.6543Z" fill="white"/>
<path d="M6.74123 21.8488C6.97388 21.8392 7.02082 21.6576 7.02354 21.4644C7.03102 20.9876 7.03238 20.51 7.02762 20.0332C7.02558 19.7529 6.90653 19.6073 6.67049 19.5971C6.64532 19.5964 6.62491 19.576 6.62287 19.5502C6.61743 19.476 6.65212 19.4318 6.72627 19.4169C6.93851 19.374 7.15687 19.3359 7.38203 19.3019C7.41537 19.2971 7.44666 19.3203 7.45142 19.3536C7.45142 19.3563 7.45142 19.3597 7.45142 19.3624C7.45414 20.0577 7.4555 20.7583 7.45482 21.4651C7.45482 21.5869 7.48815 21.6916 7.5555 21.7787C7.57047 21.7978 7.58951 21.8107 7.61332 21.8175L7.78747 21.8678C7.8174 21.8767 7.83645 21.8957 7.84529 21.9256C7.85141 21.9467 7.85345 21.9678 7.85141 21.9896C7.84937 22.0107 7.83168 22.0277 7.8106 22.0284C7.43441 22.044 7.0698 22.0447 6.71674 22.0318C6.67593 22.0304 6.65076 22.01 6.64124 21.9699C6.63375 21.9379 6.64804 21.9059 6.68273 21.8733C6.69838 21.8583 6.71878 21.8495 6.74055 21.8488H6.74123Z" fill="white"/>
<path d="M32.5408 21.7042C32.5598 21.6579 32.5701 21.6117 32.5707 21.5661C32.5809 21.1069 32.5823 20.6416 32.5762 20.1702C32.5721 19.8722 32.5952 19.6335 32.2531 19.5967C32.2136 19.5927 32.185 19.5573 32.1891 19.5178C32.1898 19.5103 32.1918 19.5035 32.1945 19.4961C32.2143 19.4505 32.2503 19.4233 32.3014 19.4137C32.5197 19.3736 32.7333 19.3348 32.9435 19.2988C32.9714 19.2933 32.9986 19.3124 33.0041 19.341C33.0041 19.3437 33.0047 19.3471 33.0047 19.3498C33.0054 20.028 33.0068 20.6987 33.0075 21.3606C33.0075 21.4783 33.0374 21.7586 33.168 21.8178C33.2136 21.8389 33.2639 21.8518 33.3177 21.8572C33.3632 21.862 33.3979 21.9014 33.3952 21.9477C33.3952 21.9559 33.3952 21.964 33.3959 21.9722C33.3986 22.0028 33.3762 22.0293 33.3455 22.0321C33.3442 22.0321 33.3428 22.0321 33.3421 22.0321C32.9898 22.0409 32.6381 22.0423 32.2877 22.0375C32.2565 22.0368 32.2313 22.0239 32.2129 22.0001C32.1945 21.9756 32.1905 21.9477 32.2014 21.9157C32.2095 21.8912 32.2258 21.8756 32.251 21.8681L32.4061 21.8239C32.4673 21.8069 32.517 21.7627 32.5408 21.7042Z" fill="white"/>
<circle cx="20" cy="20" r="19.5" stroke="black" stroke-opacity="0.05"/>
</svg>
