<svg width="40" height="40" viewBox="0 0 40 40" fill="none" xmlns="http://www.w3.org/2000/svg">
<circle cx="20" cy="20" r="20" fill="#F6F8FA"/>
<g clip-path="url(#clip0_20329_63505)">
<path d="M28.9666 20.5827C28.9554 20.7863 28.9443 20.9631 28.9219 21.1132C28.693 22.8333 28.0063 24.3659 26.8618 25.7056C26.5714 26.0486 26.2141 26.4023 25.7842 26.772C25.6111 26.9221 25.4325 27.0614 25.2482 27.1954C23.9864 28.101 22.5795 28.669 21.0218 28.8994C20.8711 28.9209 20.7203 28.937 20.5752 28.9477C20.3686 28.9637 20.1732 28.9905 19.9666 28.9905C19.4976 29.0013 19.0342 28.9852 18.5876 28.9423C18.046 28.8887 17.5044 28.7869 16.9517 28.6261C14.2774 27.8706 12.1223 26.0218 10.9945 23.5461C10.9833 23.5193 10.9945 23.4871 11.0224 23.471L11.3742 23.3317C11.4077 23.321 11.43 23.3317 11.4467 23.3585C11.9436 24.4785 12.6695 25.4591 13.6242 26.3058C13.7861 26.4505 13.9592 26.5898 14.1434 26.7292C15.3047 27.5919 16.6949 28.1921 18.1577 28.4118C18.314 28.4332 18.4703 28.4707 18.6266 28.4761C18.7383 28.4815 18.8611 28.4922 18.984 28.5029C19.1124 28.5136 19.2296 28.5243 19.3413 28.5243C19.5814 28.5297 19.8103 28.5243 20.0336 28.5136C20.3239 28.4975 20.6142 28.4761 20.9046 28.4332C22.144 28.251 23.283 27.8491 24.3214 27.2222C25.3041 26.6327 26.136 25.8771 26.8338 24.9608C27.6825 23.8354 28.2129 22.5654 28.425 21.1453C28.4585 20.9042 28.4753 20.6523 28.492 20.4058C28.5144 20.1486 28.5199 19.8753 28.492 19.6235C28.4641 19.3448 28.4529 19.0554 28.4139 18.7982C28.157 17.1102 27.4424 15.6312 26.2811 14.3612C24.796 12.7375 22.6521 11.6657 20.4077 11.505C20.2737 11.4943 20.1453 11.4835 20.0113 11.4728C19.8717 11.4567 19.7377 11.4514 19.6093 11.4567C19.5981 11.4567 19.5925 11.4514 19.5869 11.4407V11.0334C19.5869 11.0334 19.5981 11.012 19.6149 11.012C19.8214 10.9959 20.0392 11.0013 20.2681 11.028C20.2904 11.028 20.3072 11.0334 20.3239 11.0441C20.3462 11.0548 20.3797 11.0656 20.4021 11.0656C20.6142 11.0656 20.8264 11.0763 21.0386 11.1191C21.1279 11.1352 21.2172 11.1352 21.301 11.1567C21.435 11.1888 21.569 11.2102 21.703 11.237C22.8084 11.4835 23.8134 11.8962 24.7178 12.4642C26.4821 13.5788 27.7327 15.0953 28.4641 17.0245C28.5367 17.2174 28.6037 17.4264 28.6651 17.6514C28.9108 18.5356 29.0168 19.4359 28.9833 20.3576C28.9833 20.4326 28.961 20.5077 28.961 20.5827H28.9666Z" fill="#F2B2A4"/>
<path d="M20.2186 11.9922C20.3861 11.9922 20.5424 11.9975 20.7099 12.0243C20.8271 12.0404 20.95 12.0618 21.0672 12.0779C23.3954 12.4744 25.4276 13.7766 26.695 15.6843C27.3315 16.6435 27.739 17.6831 27.9177 18.7977C27.9456 18.9799 27.9679 19.1836 27.9847 19.4194C28.007 19.6927 28.0126 19.9124 28.007 20.0731C27.9959 20.4214 27.9791 20.7858 27.9289 21.1288C27.6776 22.8168 26.8681 24.4137 25.6063 25.6355C24.3277 26.8734 22.7868 27.645 20.9834 27.9451C20.7155 27.988 20.3637 28.0201 19.9171 28.0362H19.4872C19.0908 28.0309 18.8004 28.0148 18.6106 27.9933C16.7682 27.7576 15.1826 27.0395 13.8594 25.8391C12.5753 24.6709 11.7545 23.2401 11.3916 21.5414C11.3749 21.461 11.3581 21.3753 11.347 21.2949C11.3302 21.177 11.3023 21.0645 11.2911 20.9466C11.2688 20.7108 11.2521 20.4804 11.2409 20.2446C11.2241 19.9338 11.2576 19.6016 11.2744 19.2908C11.2856 19.1514 11.2967 19.0014 11.3246 18.8513C11.4028 18.3476 11.5145 17.8975 11.654 17.5009C12.2459 15.8344 13.2564 14.5 14.6968 13.4926C15.8191 12.7049 17.0864 12.2172 18.499 12.0297C18.566 12.0297 18.6218 12.0189 18.672 11.9975L19.1634 11.9761L20.2241 11.9922H20.2186ZM26.1534 20.0035C26.1534 16.5417 23.2279 13.7337 19.6212 13.7337C16.0145 13.7337 13.0889 16.5417 13.0889 20.0035C13.0889 23.4652 16.0145 26.2732 19.6212 26.2732C23.2279 26.2732 26.1534 23.4652 26.1534 20.0035Z" fill="#D73135"/>
<path d="M19.8384 14.688C19.6988 14.6773 19.576 14.6773 19.442 14.688C19.3527 14.6934 19.2633 14.6987 19.1796 14.7041C17.9457 14.7791 16.7453 15.3096 15.852 16.1081C15.0537 16.8208 14.5177 17.6889 14.2441 18.7178C14.2106 18.841 14.1939 18.9643 14.1604 19.0822C14.1492 19.1304 14.138 19.1786 14.1324 19.2322C14.1045 19.5002 14.071 19.7735 14.0766 20.0307C14.1045 21.424 14.607 22.6297 15.5896 23.6478C16.3489 24.4409 17.3707 24.9768 18.4538 25.2072C18.6827 25.2555 18.9116 25.2876 19.1405 25.3037C19.1573 25.3037 19.1684 25.3198 19.1684 25.3358L19.1238 25.7431C19.1238 25.7431 19.1126 25.7645 19.0958 25.7699C19.04 25.7699 18.9842 25.7699 18.9228 25.7645C17.3092 25.5823 15.852 24.8053 14.8638 23.5782C14.205 22.7636 13.7975 21.8527 13.6467 20.8452C13.6355 20.7648 13.6244 20.6952 13.6188 20.6309C13.6132 20.5183 13.5853 20.4165 13.5853 20.304C13.5685 19.9182 13.5853 19.5538 13.6411 19.2054C13.831 18.0158 14.3279 16.9923 15.1318 16.1349C16.1368 15.0685 17.5382 14.3772 19.0456 14.2486C19.308 14.2272 19.4476 14.2165 19.4587 14.2165C19.5983 14.2111 19.7323 14.2165 19.8719 14.2272C20.0059 14.2433 20.1064 14.2486 20.179 14.254C20.2795 14.254 20.3855 14.27 20.4916 14.2808C22.0047 14.4951 23.272 15.181 24.2882 16.3332C24.3272 16.376 24.3217 16.4189 24.2714 16.4564C24.1988 16.51 24.1318 16.5636 24.0592 16.6225C23.9978 16.6708 23.9532 16.6761 23.9197 16.6386C23.1157 15.7115 22.1107 15.1114 20.9048 14.8274C20.7987 14.8006 20.687 14.7898 20.5865 14.7684C20.5251 14.7577 20.4693 14.747 20.4135 14.7416C20.2292 14.7255 20.045 14.7041 19.8496 14.6934L19.8384 14.688Z" fill="#F2B2A4"/>
</g>
<circle cx="20" cy="20" r="19.5" stroke="black" stroke-opacity="0.05"/>
<defs>
<clipPath id="clip0_20329_63505">
<rect width="18" height="18" fill="white" transform="translate(10.9951 11.001)"/>
</clipPath>
</defs>
</svg>
