<svg width="40" height="40" viewBox="0 0 40 40" fill="none" xmlns="http://www.w3.org/2000/svg">
<circle cx="20" cy="20" r="20" fill="#120064"/>
<mask id="mask0_29124_47970" style="mask-type:luminance" maskUnits="userSpaceOnUse" x="0" y="0" width="40" height="40">
<circle cx="20" cy="20" r="20" fill="white"/>
</mask>
<g mask="url(#mask0_29124_47970)">
<path d="M14.9062 18.148C14.3955 18.148 13.9274 18.3182 13.587 18.6586L13.4594 18.7863V16.2331H12.0977V20.5735C12.0977 22.1905 13.0764 23.2118 14.6508 23.2118C16.1828 23.2118 17.2891 22.148 17.2891 20.6586C17.2891 19.2118 16.3104 18.148 14.9062 18.148ZM14.6934 21.9778C13.97 21.9778 13.3743 21.382 13.3743 20.6586C13.3743 19.9352 13.97 19.3395 14.6934 19.3395C15.4168 19.3395 16.0125 19.9352 16.0125 20.6586C15.97 21.4246 15.4168 21.9778 14.6934 21.9778Z" fill="white"/>
<path d="M9.79995 16.1906L7.1191 19.3395V16.1906H5.71484V23.0842H7.1191V19.9778L9.88506 23.0842H11.6297L8.60846 19.6374L11.5446 16.1906H9.79995Z" fill="white"/>
<path d="M34.2676 18.3182H32.7783L31.0336 20.3608V16.1906H29.6719V23.0842H31.0336V20.9991L32.7783 23.0842H34.2676L32.2676 20.7012L34.2676 18.3182Z" fill="white"/>
<path d="M26.9909 18.1481C26.1398 18.1481 25.6292 18.5311 25.3738 18.8289V18.3183H24.0547V23.0842H25.4164V20.4885C25.4164 19.8502 25.8845 19.3821 26.4377 19.3821C26.9909 19.3821 27.4589 19.8502 27.4589 20.4885V23.0842H28.8206V20.063C28.8206 18.9566 28.0121 18.1481 26.9909 18.1481Z" fill="white"/>
<path d="M20.566 18.1481C19.0341 18.1481 17.9277 19.2119 17.9277 20.7013C17.9277 22.1906 18.949 23.2545 20.3533 23.2545C21.332 23.2545 21.8852 22.531 21.8852 22.531L21.9703 22.4034V23.0842H23.2043V20.7013C23.2043 19.2119 22.0979 18.1481 20.566 18.1481ZM20.6086 21.9779C19.8852 21.9779 19.2894 21.3821 19.2894 20.6587C19.2894 19.9353 19.8852 19.3396 20.6086 19.3396C21.332 19.3396 21.9277 19.9353 21.9277 20.6587C21.9277 21.4247 21.332 21.9779 20.6086 21.9779Z" fill="white"/>
</g>
<circle cx="20" cy="20" r="19.5" stroke="black" stroke-opacity="0.04"/>
</svg>
