<svg width="40" height="40" viewBox="0 0 40 40" fill="none" xmlns="http://www.w3.org/2000/svg">
<circle cx="20" cy="20" r="20" fill="#005894"/>
<path d="M13.2766 11.9655L14.6848 30.018L15.6339 11.6584L13.2766 11.9655Z" fill="white"/>
<path d="M14.6847 30.0181L30.8999 21.0289L30.6523 18.4187L14.6847 30.0181Z" fill="white"/>
<path d="M20.5798 11.0139L17.6873 11.391L14.6847 30.0182L20.5798 11.0139Z" fill="white"/>
<path d="M14.6847 30.0181L30.3673 15.4161L30.0863 12.4495L14.6847 30.0181Z" fill="white"/>
<path d="M14.6847 30.018L31.4037 26.3486L31.1608 23.7825L14.6847 30.018Z" fill="white"/>
<path d="M28.2156 10.0181L23.7213 10.604L14.6847 30.0181L28.2156 10.0181Z" fill="white"/>
<path d="M11.1209 12.2471L8.5 12.5881L14.6848 30.018L11.1209 12.2471Z" fill="white"/>
<circle cx="20" cy="20" r="19.5" stroke="black" stroke-opacity="0.05"/>
</svg>
