<svg width="40" height="40" viewBox="0 0 40 40" fill="none" xmlns="http://www.w3.org/2000/svg">
<ellipse cx="19.9824" cy="20" rx="19.9824" ry="20" fill="#F6F8FA"/>
<g clip-path="url(#clip0_17752_43905)">
<path d="M26.444 10.7447C26.8314 10.6755 27.2119 10.6686 27.5993 10.7447C29.1351 11.0148 29.7507 12.4619 29.8476 13.8605C29.9098 14.7675 29.7992 15.6884 29.6055 16.5954C29.6055 16.6023 29.6055 16.6162 29.6193 16.6162H31.5839C31.6185 16.6162 31.6393 16.6023 31.6462 16.5677C31.8122 15.5845 31.8537 14.5598 31.7292 13.5766C31.5217 12.0464 30.7953 10.5578 29.2872 9.96235C28.132 9.50538 26.8245 9.69924 25.6831 10.1424C25.6554 10.1493 25.6278 10.1493 25.607 10.1424C24.3756 9.47768 22.9022 9.64385 21.6293 10.1424C21.6016 10.1562 21.567 10.1493 21.5394 10.1424C19.8791 9.26304 17.8937 9.84464 16.3649 10.7101C14.8222 11.5825 13.4663 12.8219 12.318 14.2205C11.7023 14.9683 11.1489 15.7576 10.6508 16.5885C10.6508 16.6023 10.6508 16.6162 10.6577 16.6231C10.6577 16.6231 10.6646 16.6231 10.6716 16.6231C10.8445 16.6231 11.0105 16.6231 11.1835 16.6231C11.2181 16.6231 11.2457 16.6092 11.2665 16.5746C11.8337 15.7022 12.4563 14.8852 13.1412 14.1305C14.0405 13.1404 15.0643 12.2403 16.2127 11.5687C17.3195 10.9178 18.7792 10.3916 20.0313 10.9178C20.0313 10.9178 20.0382 10.9248 20.0382 10.9317C18.7515 11.7349 17.6101 12.7665 16.6208 13.9297C15.9083 14.7606 15.2719 15.6468 14.7115 16.5885V16.6023C14.8776 16.6023 15.0436 16.6092 15.2096 16.6092C15.258 16.6092 15.3065 16.5954 15.3341 16.5538C16.102 15.3629 16.9736 14.2967 17.956 13.3412C18.7446 12.5726 19.6577 11.8664 20.64 11.354C20.6746 11.3402 20.7023 11.3402 20.73 11.3679C21.1381 11.7556 21.4079 12.2957 21.5532 12.8427C21.567 12.8911 21.5809 12.9396 21.5532 12.9742C20.4948 14.0474 19.5747 15.2452 18.7861 16.5608C18.7723 16.5885 18.7792 16.6023 18.8068 16.6023C18.9729 16.6023 19.1389 16.6023 19.3188 16.6023C19.3533 16.6023 19.381 16.5885 19.4018 16.5538C20.0728 15.5083 20.8337 14.5529 21.6846 13.6805C21.6846 13.6735 21.7054 13.6735 21.7123 13.6805C21.7123 13.6805 21.7123 13.6874 21.7123 13.6943C21.7953 14.6636 21.6985 15.6399 21.484 16.5815C21.484 16.5954 21.484 16.6023 21.4979 16.6023H23.4763C23.4763 16.6023 23.5178 16.5885 23.5178 16.5677C23.6839 15.536 23.7392 14.5113 23.587 13.4727C23.5317 13.0642 23.4279 12.6696 23.2965 12.2888C23.2896 12.268 23.2965 12.2472 23.3103 12.2334C23.7254 11.9218 24.1612 11.6379 24.6247 11.3887C24.6593 11.3679 24.6869 11.354 24.7215 11.3471C24.7492 11.3402 24.7769 11.3471 24.7976 11.3679C25.4963 12.081 25.7592 13.0781 25.7938 14.0751C25.8215 14.9198 25.7177 15.7438 25.5447 16.5746C25.5447 16.5954 25.5447 16.6092 25.5724 16.6092H27.5371C27.5371 16.6092 27.5716 16.5954 27.5786 16.5746C27.7377 15.6122 27.793 14.6636 27.6823 13.7012C27.5578 12.6073 27.1843 11.5618 26.4371 10.7655C26.4371 10.7655 26.4371 10.7517 26.4371 10.7447H26.444ZM32.4487 21.4075C32.421 21.5252 32.4002 21.6429 32.3726 21.7606C32.3726 21.7883 32.3726 21.8021 32.4072 21.8021H33.0159C33.0159 21.8021 33.0367 21.8021 33.0367 21.7883L33.4863 19.6834C33.4863 19.6834 33.4863 19.6626 33.4725 19.6626H32.0198C32.0198 19.6626 32.0059 19.6626 31.999 19.6765L31.8607 20.3135C31.8607 20.3135 31.8607 20.3343 31.8745 20.3343H32.67C32.67 20.3343 32.6839 20.3412 32.6839 20.355C32.6216 20.6666 32.4417 20.9228 32.1512 21.0751C31.8399 21.2344 31.3903 21.269 31.0997 21.0543C30.6085 20.6874 30.8507 19.725 31.0582 19.2611C31.2796 18.7556 31.7015 18.354 32.2826 18.4025C32.6216 18.4302 32.8637 18.7072 32.8706 19.0395C32.8706 19.0464 32.8706 19.0533 32.8845 19.0533H33.5832C33.5832 19.0533 33.6108 19.0464 33.6108 19.0326C33.6939 18.3402 33.2788 17.8001 32.5939 17.7101C31.9298 17.627 31.328 17.8486 30.8714 18.3263C30.4564 18.7625 30.2211 19.3095 30.1035 19.905C29.9929 20.4866 29.9998 21.1097 30.3872 21.5529C30.5394 21.7259 30.7261 21.8437 30.9475 21.8921C31.4318 22.0029 31.8676 21.906 32.2619 21.6221C32.3311 21.5736 32.3933 21.5044 32.4417 21.4213C32.4625 21.3936 32.4625 21.3936 32.4556 21.4213L32.4487 21.4075ZM8.00822 19.3857C8.00822 19.3857 7.96671 19.4065 7.98055 19.3718L8.31952 17.7932C8.31952 17.7932 8.31952 17.7724 8.30568 17.7724H7.61391C7.61391 17.7724 7.58624 17.7794 7.58624 17.8001L6.73535 21.7883C6.73535 21.7883 6.73535 21.8229 6.76302 21.8229H7.44096C7.44096 21.8229 7.46863 21.8229 7.47555 21.8021L7.75226 20.5143C7.75918 20.4727 7.77993 20.4381 7.81452 20.4035L8.195 20.0573H8.20883L8.90061 21.7883C8.90061 21.7883 8.92828 21.8229 8.94903 21.8229H9.84834C9.84834 21.8229 9.8691 21.809 9.8691 21.7952C9.8691 21.7952 9.8691 21.7952 9.8691 21.7883L8.86602 19.4619C8.86602 19.4619 8.86602 19.4203 8.87986 19.4065L10.6093 17.8071C10.6093 17.8071 10.637 17.7655 10.5955 17.7655C10.3188 17.7655 10.042 17.7655 9.77225 17.7655C9.72382 17.7655 9.68232 17.7794 9.64773 17.814C9.09431 18.3471 8.55472 18.8733 8.02897 19.3788L8.00822 19.3857ZM13.0997 20.4866C13.0028 20.9297 12.6915 21.1997 12.2281 21.1928C11.7992 21.1859 11.6746 20.8189 11.7507 20.452C11.9375 19.5726 12.1243 18.6864 12.3111 17.7932C12.3111 17.7863 12.3111 17.7724 12.2972 17.7724H11.5709C11.5709 17.7724 11.557 17.7724 11.557 17.7863C11.3703 18.6725 11.1835 19.5588 10.9967 20.4312C10.9552 20.6389 10.9344 20.8397 10.9552 21.0474C11.052 22.0237 12.3249 22.0721 12.989 21.7259C13.3764 21.5252 13.6531 21.1651 13.7915 20.7566C13.8468 20.6043 13.8952 20.4243 13.9367 20.2166C14.1097 19.3926 14.2826 18.5895 14.4487 17.8001C14.4487 17.7863 14.4487 17.7724 14.4279 17.7655H13.7154C13.7154 17.7655 13.6946 17.7655 13.6946 17.7794C13.5009 18.7002 13.3141 19.6003 13.1204 20.4797L13.0997 20.4866ZM17.783 18.7833L17.1466 21.7883C17.1466 21.7883 17.1466 21.809 17.1604 21.816H17.8038C17.8038 21.816 17.8314 21.809 17.8314 21.7952L18.6823 17.7932C18.6823 17.7932 18.6823 17.7724 18.6685 17.7655H17.6447C17.6447 17.7655 17.617 17.7794 17.6101 17.7932L16.3649 20.7843C16.3441 20.8328 16.3372 20.8328 16.3372 20.7843V17.7932C16.3372 17.7932 16.3303 17.7724 16.3165 17.7724H15.2719C15.2719 17.7724 15.2442 17.7794 15.2442 17.7932L14.4002 21.7883C14.4002 21.7883 14.4002 21.816 14.421 21.8229H15.0505C15.0505 21.8229 15.0851 21.809 15.092 21.7952L15.7354 18.7764C15.7561 18.6795 15.763 18.6795 15.763 18.7764L15.7423 21.8021C15.7423 21.8021 15.7561 21.8298 15.7699 21.8298H16.4271C16.4271 21.8298 16.4756 21.809 16.4894 21.7883L17.7692 18.7902C17.7968 18.721 17.8038 18.721 17.7899 18.7902L17.783 18.7833ZM20.5363 19.5172C20.5363 19.5172 20.5294 19.5103 20.5294 19.5034C20.3979 18.9149 20.2665 18.3402 20.1489 17.7794C20.1489 17.7724 20.142 17.7655 20.1351 17.7655H19.2911C19.2911 17.7655 19.2634 17.7724 19.2703 17.7932C19.5055 18.6033 19.7477 19.4203 19.9829 20.2512C19.9898 20.2789 19.9898 20.3066 19.9829 20.3343C19.8791 20.8189 19.7753 21.3036 19.6716 21.7952C19.6716 21.809 19.6716 21.816 19.6854 21.816H20.3772C20.3772 21.816 20.4118 21.8021 20.4118 21.7883C20.5086 21.3313 20.6124 20.8605 20.7161 20.3758C20.73 20.3273 20.7438 20.2789 20.7784 20.2304C21.3387 19.4065 21.8922 18.5895 22.4317 17.7932C22.4317 17.7932 22.4317 17.7794 22.4317 17.7724C22.4317 17.7724 22.4318 17.7724 22.4248 17.7724H21.6362C21.6362 17.7724 21.6155 17.7724 21.6085 17.7863L20.557 19.5172C20.557 19.5172 20.5501 19.5172 20.5432 19.5172H20.5363ZM24.5278 20.9782C24.5278 20.9782 24.5486 20.9851 24.5486 20.9989L24.597 21.7952C24.597 21.7952 24.6039 21.816 24.6178 21.816H25.3787C25.3787 21.816 25.3995 21.8021 25.3995 21.7952L24.9913 17.7863C24.9913 17.7863 24.9844 17.7655 24.9706 17.7655H24.1404C24.1404 17.7655 24.1266 17.7655 24.1197 17.7794L21.989 21.7883C21.989 21.7883 21.989 21.809 21.9959 21.816C21.9959 21.816 21.9959 21.816 22.0028 21.816H22.7361C22.7361 21.816 22.75 21.816 22.7569 21.8021L23.1789 20.9851C23.1789 20.9851 23.1927 20.9713 23.1996 20.9713H24.5209L24.5278 20.9782ZM28.464 20.5489L27.6754 17.7863C27.6754 17.7863 27.6616 17.7655 27.6408 17.7655H26.8937C26.8937 17.7655 26.873 17.7724 26.873 17.7863L26.0221 21.8021C26.0221 21.8021 26.0221 21.816 26.0359 21.8229H26.6793C26.6793 21.8229 26.7138 21.809 26.7208 21.7952L27.3157 18.991C27.3226 18.9426 27.3364 18.9426 27.3503 18.991L28.1597 21.8021C28.1597 21.8021 28.1873 21.8367 28.2081 21.8367H28.886C28.886 21.8367 28.9137 21.8229 28.9137 21.809L29.7646 17.8001C29.7646 17.8001 29.7646 17.7794 29.7507 17.7794H29.1143C29.1143 17.7794 29.0797 17.7932 29.0797 17.8071C28.8999 18.6587 28.7269 19.4826 28.554 20.2858C28.5332 20.3827 28.5125 20.4727 28.4917 20.5627C28.4917 20.5627 28.4848 20.5697 28.4779 20.5697C28.4779 20.5697 28.4779 20.5697 28.471 20.5627L28.464 20.5489ZM20.0244 28.082C20.0244 28.082 20.0105 28.0751 20.0244 28.0682C20.6954 27.6528 21.3249 27.175 21.9268 26.635C23.2204 25.4648 24.3411 24.0801 25.2473 22.5914C25.2542 22.5776 25.2473 22.5637 25.2334 22.5568C25.2265 22.5568 25.2127 22.5568 25.2058 22.5568C24.4379 22.5568 23.6839 22.5568 22.9437 22.5568C22.9022 22.5568 22.8607 22.5568 22.833 22.5984C22.0444 23.7754 21.1312 24.8417 20.0866 25.7972C19.3879 26.4411 18.5786 27.0296 17.7277 27.4797C17.7069 27.4866 17.6862 27.4797 17.6654 27.4727C17.5616 27.3689 17.4579 27.2512 17.3541 27.1196C17.3403 27.1058 17.3472 27.0781 17.3541 27.0642C18.8622 25.7972 20.1281 24.2808 21.1727 22.5914C21.1796 22.5776 21.1727 22.5637 21.1658 22.5568C21.1658 22.5568 21.1589 22.5568 21.152 22.5568C20.4118 22.5568 19.6785 22.5568 18.9383 22.5568C18.8414 22.5568 18.7999 22.5499 18.7515 22.6191C18.2188 23.4154 17.6032 24.1839 16.9183 24.9248C16.8491 25.0009 16.773 25.0702 16.7038 25.1463C16.7038 25.1463 16.69 25.1463 16.6831 25.1463C16.6831 25.1463 16.6831 25.1463 16.6831 25.1394C16.6001 24.3085 16.6831 23.4361 16.8422 22.6122C16.8422 22.5845 16.8284 22.5637 16.8076 22.5568C16.8076 22.5568 16.8076 22.5568 16.8007 22.5568H16.5586C16.5586 22.5568 16.524 22.5637 16.524 22.5845C16.3718 23.5123 16.3441 24.4401 16.4479 25.3471C16.4479 25.3887 16.4479 25.4164 16.4133 25.4441C15.5901 26.2472 14.6908 26.9465 13.6808 27.4797C13.66 27.4935 13.6324 27.4866 13.6116 27.4727C13.1896 27.0781 12.9198 26.5311 12.7746 25.9633C12.4909 24.8763 12.5739 23.6923 12.7884 22.5984C12.7884 22.5776 12.7815 22.5637 12.7607 22.5568C12.7607 22.5568 12.7607 22.5568 12.7538 22.5568H12.5048C12.5048 22.5568 12.4702 22.5707 12.4633 22.5914C12.3872 23.0484 12.3387 23.5746 12.3249 24.1701C12.2972 25.3887 12.5394 26.6765 13.1965 27.6943C13.1965 27.6943 13.1965 27.7081 13.1965 27.7151C12.1174 28.179 10.7892 28.4005 9.77917 27.6597C8.87986 26.995 8.57548 25.7972 8.54089 24.7378C8.52705 24.2601 8.54089 23.8169 8.60315 23.4084C8.63082 23.18 8.67232 22.9099 8.72075 22.6053C8.72075 22.5845 8.70691 22.5637 8.68616 22.5637H8.45096C8.45096 22.5637 8.40945 22.5776 8.40253 22.6053C8.195 23.8654 8.195 25.2363 8.56856 26.4619C9.00438 27.902 10.0005 28.9821 11.5017 29.2522C11.7161 29.2868 11.9583 29.3076 12.2281 29.3076C12.9475 29.3076 13.6739 29.1414 14.3726 28.8783C14.4071 28.8644 14.4625 28.8713 14.4902 28.8852C15.5762 29.4599 16.8422 29.3976 18.0113 29.0237C18.1427 28.9821 18.2673 28.9406 18.3918 28.8921C18.4471 28.8713 18.5094 28.8644 18.5647 28.8921C19.9483 29.6191 21.5878 29.3076 22.9437 28.6913C24.175 28.1305 25.3165 27.2927 26.3126 26.3511C27.4402 25.2779 28.4364 24.0316 29.3149 22.5984C29.3149 22.5845 29.3149 22.5707 29.308 22.5707C29.308 22.5707 29.3011 22.5707 29.2942 22.5707C28.5332 22.5707 27.7792 22.5707 27.0321 22.5707C26.9767 22.5707 26.9283 22.5776 26.8937 22.626C26.0428 23.8862 25.0951 24.9802 24.0574 25.901C22.9229 26.9119 21.567 27.8189 20.0728 28.1028C20.059 28.1028 20.0382 28.1028 20.0244 28.1028V28.082Z" fill="white"/>
<path d="M26.444 10.7449C26.444 10.7449 26.4301 10.7518 26.4301 10.7588C27.1772 11.555 27.5508 12.6005 27.6753 13.6945C27.786 14.6569 27.7376 15.6055 27.5716 16.5679C27.5716 16.5886 27.5508 16.6025 27.5301 16.6025H25.5654C25.5654 16.6025 25.5308 16.5886 25.5377 16.5679C25.7176 15.737 25.8214 14.92 25.7868 14.0684C25.7522 13.0783 25.4893 12.0743 24.7906 11.3611C24.7699 11.3404 24.7422 11.3334 24.7145 11.3404C24.6799 11.3542 24.6453 11.3681 24.6177 11.3819C24.1542 11.6312 23.7184 11.915 23.3033 12.2266C23.2895 12.2405 23.2826 12.2612 23.2895 12.282C23.4278 12.6628 23.5247 13.0575 23.58 13.466C23.7322 14.5046 23.6769 15.5293 23.5108 16.5609C23.5108 16.5817 23.4901 16.5956 23.4693 16.5956H21.4909C21.4909 16.5956 21.4701 16.5886 21.4701 16.5748C21.6845 15.6331 21.7814 14.6569 21.6984 13.6876C21.6984 13.6806 21.6915 13.6737 21.6776 13.6737C21.6776 13.6737 21.6707 13.6737 21.6638 13.6737C20.8129 14.5461 20.052 15.5085 19.3809 16.5471C19.3602 16.5748 19.3325 16.5886 19.2979 16.5956C19.125 16.5956 18.952 16.5956 18.786 16.5956C18.7583 16.5956 18.7514 16.5817 18.7653 16.554C19.5539 15.2316 20.4739 14.0407 21.5324 12.9675C21.5669 12.9329 21.5462 12.8775 21.5324 12.8359C21.3871 12.2889 21.1173 11.7489 20.7091 11.3611C20.6815 11.3334 20.6538 11.3334 20.6192 11.3473C19.6369 11.8527 18.7307 12.5659 17.9351 13.3344C16.9528 14.2899 16.0812 15.3562 15.3133 16.5471C15.2856 16.5886 15.2372 16.6094 15.1888 16.6025C15.0227 16.6025 14.8567 16.6025 14.6907 16.5956C14.6907 16.5956 14.6769 16.5956 14.6769 16.5817C15.2372 15.6401 15.8736 14.7538 16.5862 13.923C17.5823 12.7598 18.7168 11.7281 20.0035 10.9249C20.0035 10.9249 20.0104 10.9111 20.0035 10.9042C18.7514 10.378 17.2918 10.9042 16.1849 11.555C15.0435 12.2266 14.0197 13.1267 13.1134 14.1168C12.4286 14.8715 11.806 15.6885 11.2387 16.5609C11.218 16.5886 11.1903 16.6094 11.1557 16.6094C10.9828 16.6094 10.8098 16.6094 10.6438 16.6094C10.63 16.6094 10.623 16.5956 10.623 16.5886C10.623 16.5886 10.623 16.5817 10.623 16.5748C11.1142 15.7439 11.6745 14.9546 12.2902 14.2068C13.4386 12.8151 14.7945 11.5689 16.3371 10.6965C17.8659 9.83097 19.8513 9.24937 21.5116 10.1287C21.5393 10.1425 21.5739 10.1425 21.6015 10.1287C22.8744 9.63018 24.341 9.46401 25.5792 10.1287C25.6069 10.1425 25.6346 10.1425 25.6553 10.1287C26.7968 9.68557 28.1042 9.4917 29.2595 9.94868C30.7676 10.5511 31.5009 12.0328 31.7015 13.5629C31.8329 14.5392 31.7845 15.5708 31.6185 16.554C31.6185 16.5886 31.5908 16.6094 31.5562 16.6094H29.5915C29.5915 16.6094 29.5708 16.5956 29.5708 16.5886C29.7645 15.6816 29.8752 14.7677 29.8129 13.8537C29.7161 12.4551 29.1004 11.008 27.5646 10.738C27.1842 10.6688 26.7968 10.6688 26.4094 10.738L26.444 10.7449ZM22.3763 10.7657C22.6254 11.0288 22.8398 11.3334 23.0128 11.6519C23.0128 11.6589 23.0266 11.6658 23.0404 11.6589C23.4002 11.3888 23.746 11.1465 24.0919 10.9319C24.0919 10.9319 24.0988 10.9249 24.1058 10.918V10.9042C23.7599 10.7588 23.4002 10.6895 23.0404 10.6895C22.8191 10.6895 22.5977 10.7034 22.3902 10.738C22.3832 10.738 22.3763 10.7449 22.3763 10.7518C22.3763 10.7518 22.3763 10.7518 22.3763 10.7588V10.7657Z" fill="#E3BC00"/>
<path d="M23.0129 11.6518C22.84 11.3264 22.6255 11.0217 22.3765 10.7655C22.3765 10.7655 22.3765 10.7517 22.3765 10.7448C22.3765 10.7448 22.3765 10.7448 22.3834 10.7448C22.5978 10.7101 22.8123 10.6963 23.0337 10.6963C23.3934 10.6963 23.7462 10.7655 24.099 10.9109C24.099 10.9109 24.1059 10.9179 24.099 10.9248C24.099 10.9248 24.099 10.9386 24.0852 10.9386C23.7393 11.1533 23.3934 11.3956 23.0337 11.6656C23.0267 11.6656 23.0129 11.6656 23.006 11.6656L23.0129 11.6518Z" fill="white"/>
<path d="M32.4347 21.4008C32.3862 21.4838 32.3309 21.5462 32.2548 21.6015C31.8605 21.8923 31.4247 21.9824 30.9404 21.8716C30.719 21.8231 30.5323 21.7123 30.3801 21.5323C29.9927 21.0892 29.9858 20.466 30.0964 19.8844C30.2071 19.289 30.4493 18.742 30.8643 18.3058C31.3209 17.8211 31.9227 17.5996 32.5868 17.6896C33.2717 17.7796 33.6868 18.3266 33.6038 19.012C33.6038 19.0259 33.5899 19.0328 33.5761 19.0328H32.8774C32.8774 19.0328 32.8636 19.0259 32.8636 19.0189C32.8636 18.6866 32.6214 18.4097 32.2755 18.382C31.6945 18.3404 31.2725 18.742 31.0511 19.2405C30.8505 19.6975 30.6014 20.6668 31.0926 21.0338C31.3762 21.2484 31.8328 21.2138 32.1441 21.0546C32.4347 20.9092 32.6145 20.6461 32.6768 20.3345C32.6768 20.3276 32.6768 20.3206 32.6629 20.3206H31.8674C31.8674 20.3206 31.8466 20.3068 31.8466 20.2999L31.985 19.6629C31.985 19.6629 31.9919 19.649 32.0057 19.649H33.4585C33.4585 19.649 33.4792 19.6559 33.4792 19.6698L33.0296 21.7746C33.0296 21.7746 33.0227 21.7885 33.0088 21.7885H32.4001C32.4001 21.7885 32.3586 21.7746 32.3655 21.7469C32.3931 21.6292 32.4208 21.5115 32.4416 21.3938C32.4485 21.3592 32.4416 21.3592 32.4277 21.3938L32.4347 21.4008Z" fill="#E11C2B"/>
<path d="M8.0084 19.3857C8.53415 18.8734 9.07374 18.3541 9.62716 17.8209C9.66175 17.7863 9.70325 17.7725 9.75168 17.7725C10.0215 17.7725 10.2982 17.7725 10.5749 17.7725C10.6164 17.7725 10.6233 17.7863 10.5887 17.814L8.85929 19.4134C8.85929 19.4134 8.83853 19.448 8.84545 19.4688L9.84853 21.7952C9.84853 21.7952 9.84853 21.816 9.83469 21.8229C9.83469 21.8229 9.83469 21.8229 9.82777 21.8229H8.92847C8.92847 21.8229 8.88696 21.816 8.88004 21.7952L8.18826 20.0643C8.18826 20.0643 8.18135 20.0573 8.17443 20.0643L7.79395 20.4104C7.79395 20.4104 7.73861 20.4797 7.73169 20.5212L7.45498 21.8091C7.45498 21.8091 7.44115 21.8368 7.42039 21.8368H6.74245C6.74245 21.8368 6.70786 21.8229 6.71478 21.7952L7.56567 17.8071C7.56567 17.8071 7.5795 17.7794 7.59334 17.7794H8.28511C8.28511 17.7794 8.30587 17.7863 8.29895 17.8002L7.95998 19.3788C7.95306 19.4203 7.95998 19.4203 7.98765 19.3926L8.0084 19.3857Z" fill="#E11C2B"/>
<path d="M12.228 21.1928C12.6984 21.1998 13.0027 20.9367 13.0996 20.4866C13.2933 19.6073 13.4801 18.7072 13.6738 17.7863C13.6738 17.7725 13.6807 17.7725 13.6945 17.7725H14.407C14.407 17.7725 14.4347 17.7863 14.4347 17.8002C14.2687 18.5826 14.1027 19.3857 13.9228 20.2166C13.8813 20.4243 13.8329 20.6043 13.7775 20.7566C13.6392 21.1651 13.3555 21.5252 12.9751 21.726C12.311 22.0722 11.0381 22.0237 10.9412 21.0474C10.9205 20.8397 10.9412 20.6389 10.9828 20.4312C11.1695 19.5588 11.3563 18.6726 11.5431 17.7863C11.5431 17.7794 11.55 17.7725 11.5569 17.7725H12.2833C12.2833 17.7725 12.304 17.7794 12.304 17.7932C12.1173 18.6795 11.9305 19.5657 11.7437 20.452C11.6676 20.819 11.7921 21.1859 12.221 21.1928H12.228Z" fill="#E11C2B"/>
<path d="M17.7829 18.7901C17.7967 18.7139 17.7898 18.7139 17.7621 18.7901L16.4823 21.7881C16.4823 21.7881 16.4477 21.8297 16.4201 21.8297H15.7629C15.7629 21.8297 15.7352 21.8227 15.7352 21.8089L15.7559 18.7832C15.7559 18.6862 15.749 18.6862 15.7283 18.7832L15.0849 21.802C15.0849 21.802 15.0642 21.8366 15.0434 21.8366H14.4139C14.4139 21.8366 14.3862 21.8227 14.3862 21.8089L15.2302 17.8138C15.2302 17.8138 15.244 17.7931 15.2579 17.7931H16.3025C16.3025 17.7931 16.3232 17.8 16.3232 17.8138V20.8049C16.3232 20.8534 16.3301 20.8603 16.3509 20.8049L17.5961 17.8138C17.5961 17.8138 17.6168 17.7861 17.6307 17.7861H18.6545C18.6545 17.7861 18.6752 17.7931 18.6752 17.8069L17.8244 21.8089C17.8244 21.8089 17.8105 21.8366 17.7967 21.8366H17.1533C17.1533 21.8366 17.1326 21.8227 17.1326 21.8158L17.769 18.8109L17.7829 18.7901Z" fill="#E11C2B"/>
<path d="M20.5365 19.5242H20.5504L21.6019 17.7932C21.6019 17.7932 21.6226 17.7794 21.6295 17.7794H22.4182C22.4182 17.7794 22.432 17.7863 22.432 17.7932C22.432 17.7932 22.432 17.7932 22.432 17.8002C21.8924 18.5964 21.3459 19.4134 20.7787 20.2373C20.751 20.2789 20.7302 20.3274 20.7164 20.3827C20.6126 20.8674 20.5158 21.3382 20.412 21.7952C20.412 21.816 20.3913 21.8229 20.3774 21.8229H19.6857C19.6857 21.8229 19.6649 21.8091 19.6649 21.8021C19.7687 21.3175 19.8724 20.8328 19.9762 20.3412C19.9762 20.3135 19.9762 20.2858 19.9762 20.2581C19.741 19.4273 19.4989 18.6033 19.2637 17.8002C19.2637 17.7794 19.2637 17.7725 19.2844 17.7725H20.1284C20.1284 17.7725 20.1422 17.7725 20.1422 17.7863C20.2598 18.3402 20.3913 18.9149 20.5227 19.5103C20.5227 19.5103 20.5227 19.5242 20.5296 19.5242H20.5365Z" fill="#E11C2B"/>
<path d="M24.5281 20.9851H23.2068C23.2068 20.9851 23.1929 20.9851 23.186 20.992L22.764 21.8091C22.764 21.8091 22.7502 21.8229 22.7433 21.8229H22.01C22.01 21.8229 21.9893 21.816 21.9893 21.8021C21.9893 21.8021 21.9893 21.8021 21.9893 21.7952L24.1199 17.7863C24.1199 17.7863 24.1338 17.7725 24.1407 17.7725H24.9708C24.9708 17.7725 24.9916 17.7794 24.9916 17.7932L25.3997 21.8021C25.3997 21.8021 25.3928 21.8229 25.379 21.8229H24.618C24.618 21.8229 24.5973 21.816 24.5973 21.8021L24.5488 21.0059C24.5488 21.0059 24.5419 20.9851 24.5281 20.9851ZM23.5596 20.272C23.5596 20.272 23.5596 20.2858 23.5596 20.2927H24.452C24.452 20.2927 24.4658 20.2927 24.4658 20.2858L24.3551 18.7141C24.3551 18.7141 24.3551 18.7003 24.3413 18.7003C24.3413 18.7003 24.3344 18.7003 24.3275 18.7072L23.5388 20.272H23.5596Z" fill="#E11C2B"/>
<path d="M28.4639 20.5559C28.4639 20.5559 28.4709 20.5629 28.4778 20.5629C28.4778 20.5629 28.4778 20.5629 28.4847 20.5559C28.5054 20.4659 28.5262 20.3759 28.547 20.279C28.7199 19.4758 28.8928 18.6519 29.0727 17.8002C29.0727 17.7864 29.0935 17.7725 29.1073 17.7725H29.7437C29.7437 17.7725 29.7645 17.7795 29.7645 17.7933L28.9136 21.8022C28.9136 21.8022 28.8998 21.823 28.8859 21.823H28.208C28.208 21.823 28.1665 21.8161 28.1596 21.7953L27.3502 18.9842C27.3363 18.9358 27.3225 18.9358 27.3156 18.9842L26.7207 21.7884C26.7207 21.7884 26.6999 21.823 26.6792 21.823H26.0358C26.0358 21.823 26.022 21.8161 26.022 21.8022L26.8729 17.7864C26.8729 17.7864 26.8867 17.7656 26.8936 17.7656H27.6407C27.6407 17.7656 27.6684 17.7656 27.6753 17.7864L28.4639 20.549V20.5559Z" fill="#E11C2B"/>
<path d="M23.5596 20.272L24.3489 18.7072C24.3489 18.7072 24.3627 18.7003 24.3697 18.7072C24.3697 18.7072 24.3697 18.7072 24.3766 18.721L24.4874 20.2927C24.4874 20.2927 24.4874 20.3066 24.4735 20.3066H23.5803C23.5803 20.3066 23.5665 20.2997 23.5665 20.2927L23.5596 20.272Z" fill="white"/>
<path d="M20.0244 28.0889C20.0244 28.0889 20.059 28.0889 20.0728 28.0889C21.5671 27.8119 22.923 26.898 24.0575 25.8871C25.0951 24.9593 26.0429 23.8723 26.8938 22.6121C26.9283 22.5637 26.9768 22.5567 27.0321 22.5567C27.7792 22.5637 28.5333 22.5637 29.2942 22.5567C29.3081 22.5567 29.315 22.5637 29.315 22.5775C29.315 22.5775 29.315 22.5844 29.315 22.5913C28.4364 24.0246 27.4333 25.2709 26.3127 26.3441C25.3234 27.2857 24.182 28.1304 22.9437 28.6843C21.5878 29.3005 19.9414 29.6121 18.5648 28.8851C18.5094 28.8574 18.4472 28.8643 18.3918 28.8851C18.2673 28.9336 18.1428 28.9751 18.0114 29.0167C16.8423 29.3975 15.5763 29.4529 14.4902 28.8782C14.4625 28.8643 14.4003 28.8574 14.3726 28.8713C13.667 29.1344 12.9476 29.3005 12.2281 29.3005C11.9583 29.3005 11.7162 29.2798 11.5017 29.2452C10.0006 28.9751 9.00443 27.895 8.56862 26.4548C8.19506 25.2293 8.19506 23.8653 8.40259 22.5983C8.40259 22.5706 8.42334 22.5567 8.45101 22.5567H8.68622C8.68622 22.5567 8.72772 22.5706 8.72772 22.5913C8.6793 22.896 8.63779 23.166 8.61012 23.3945C8.55478 23.803 8.53403 24.2461 8.54786 24.7239C8.58245 25.7832 8.88683 26.988 9.78614 27.6457C10.7892 28.3866 12.1243 28.165 13.2035 27.7011C13.2035 27.7011 13.2104 27.6873 13.2035 27.6873C12.5532 26.6695 12.3042 25.3817 12.3319 24.1631C12.3457 23.5676 12.3872 23.0414 12.4702 22.5844C12.4702 22.5637 12.491 22.5498 12.5117 22.5498H12.7608C12.7608 22.5498 12.7954 22.5637 12.7954 22.5844C12.7954 22.5844 12.7954 22.5844 12.7954 22.5913C12.5809 23.6853 12.4979 24.8693 12.7815 25.9563C12.9268 26.5241 13.1966 27.0641 13.6186 27.4657C13.6393 27.4865 13.667 27.4865 13.6878 27.4727C14.6978 26.9395 15.5971 26.2402 16.4203 25.437C16.4479 25.4093 16.4618 25.3817 16.4549 25.3401C16.3511 24.4262 16.3718 23.5053 16.531 22.5775C16.531 22.5567 16.5448 22.5498 16.5655 22.5498H16.8077C16.8077 22.5498 16.8561 22.5706 16.8492 22.5983C16.8492 22.5983 16.8492 22.5983 16.8492 22.6052C16.6901 23.4291 16.6071 24.3015 16.6901 25.1324C16.6901 25.1393 16.697 25.1462 16.7039 25.1462C16.7039 25.1462 16.7039 25.1462 16.7108 25.1462C16.7869 25.0701 16.8561 25.0008 16.9253 24.9247C17.617 24.1838 18.2258 23.4153 18.7585 22.619C18.8069 22.5498 18.8553 22.5567 18.9453 22.5567C19.6855 22.5567 20.4257 22.5567 21.1589 22.5567C21.1728 22.5567 21.1866 22.5706 21.1866 22.5775C21.1866 22.5775 21.1866 22.5844 21.1866 22.5913C20.1489 24.2808 18.883 25.7971 17.368 27.0641C17.3542 27.078 17.3473 27.0988 17.368 27.1195C17.4649 27.2511 17.5686 27.3688 17.6793 27.4727C17.6931 27.4865 17.7208 27.4934 17.7416 27.4796C18.5924 27.0365 19.3949 26.441 20.1005 25.7971C21.1451 24.8416 22.0582 23.7753 22.8469 22.5983C22.8745 22.5567 22.9091 22.5567 22.9576 22.5567C23.6978 22.5567 24.4518 22.5567 25.2197 22.5567C25.2266 22.5567 25.2404 22.5567 25.2473 22.5567C25.2681 22.5567 25.2681 22.5706 25.2612 22.5913C24.3549 24.08 23.2343 25.4647 21.9406 26.6349C21.3388 27.1749 20.7093 27.6527 20.0383 28.0681C20.0244 28.075 20.0244 28.082 20.0383 28.082L20.0244 28.0889ZM15.9499 28.0958C16.3995 28.0196 16.8146 27.8812 17.2435 27.7081C17.2504 27.7081 17.2573 27.6942 17.2504 27.6873L17.0498 27.3549C17.0498 27.3549 17.0221 27.3411 17.0152 27.348C16.6693 27.6181 16.3096 27.8604 15.9499 28.082C15.9222 28.0958 15.9291 28.1027 15.9499 28.0958Z" fill="#E3BC00"/>
<path d="M17.2433 27.7153C16.8144 27.8884 16.3993 28.0269 15.9497 28.1031C15.922 28.1031 15.9151 28.1031 15.9497 28.0892C16.3094 27.8677 16.6622 27.6253 17.015 27.3553C17.0289 27.3484 17.0427 27.3484 17.0565 27.3553L17.2571 27.6876C17.2571 27.6876 17.2571 27.7015 17.2571 27.7084L17.2433 27.7153Z" fill="white"/>
</g>
<path d="M19.9824 0.5C30.7419 0.5 39.4648 9.23003 39.4648 20C39.4648 30.77 30.7419 39.5 19.9824 39.5C9.22299 39.5 0.5 30.77 0.5 20C0.5 9.23004 9.22299 0.500008 19.9824 0.5Z" stroke="black" stroke-opacity="0.05"/>
<path d="M20.0176 0.5C30.777 0.5 39.5 9.23003 39.5 20C39.5 30.77 30.777 39.5 20.0176 39.5C9.25815 39.5 0.535156 30.77 0.535156 20C0.535156 9.23004 9.25815 0.500008 20.0176 0.5Z" stroke="black" stroke-opacity="0.05"/>
<defs>
<clipPath id="clip0_17752_43905">
<rect width="28.2798" height="21" fill="white" transform="translate(6.02979 9)"/>
</clipPath>
</defs>
</svg>
