<svg width="40" height="40" viewBox="0 0 40 40" fill="none" xmlns="http://www.w3.org/2000/svg">
<circle cx="20" cy="20" r="20" fill="#F6F8FA"/>
<path d="M27.8025 9.94891C28.1104 9.94486 28.4075 10.0618 28.6301 10.2746C28.8526 10.4874 28.9827 10.779 28.9924 11.0867C28.9924 16.6247 28.9924 22.3758 28.9924 28.3401C28.9924 29.0704 28.5075 29.5612 27.7475 29.5686C26.5993 29.5805 25.3915 29.5805 24.1243 29.5686C24.0373 29.5678 23.9541 29.5331 23.8923 29.472L13.0197 18.5994C13.0144 18.5941 13.0102 18.5879 13.0073 18.581C13.0044 18.5741 13.0029 18.5667 13.0029 18.5592C13.0029 18.5518 13.0044 18.5444 13.0073 18.5375C13.0102 18.5306 13.0144 18.5243 13.0197 18.5191L21.5779 10.0411C21.6107 10.0082 21.6496 9.982 21.6925 9.96413C21.7354 9.94626 21.7814 9.93704 21.8278 9.93701C23.8268 9.94494 25.8184 9.94891 27.8025 9.94891Z" fill="#7ECCD8"/>
<path d="M11.0763 19.2612C11.0525 19.2623 11.0288 19.2587 11.0064 19.2508C11.0064 16.6261 11.0064 14.0014 11.0064 11.3767C10.9877 11.0739 11.045 10.7713 11.173 10.4962C11.3564 10.1868 11.6712 10.0312 12.1174 10.0292C14.2057 10.0183 16.3936 10.0183 18.6811 10.0292C19.5036 10.0292 18.9563 10.9632 18.7094 11.2191C16.3812 13.6782 14.055 16.1373 11.7307 18.5964C11.4194 18.9246 11.2012 19.1462 11.0763 19.2612Z" fill="#A2D081"/>
<path d="M11.0035 19.251C11.0259 19.2589 11.0496 19.2625 11.0734 19.2614C11.0619 19.2902 11.0597 19.322 11.0672 19.3521C11.0747 19.3823 11.0914 19.4093 11.115 19.4295C13.9093 22.3744 16.7005 25.3219 19.4888 28.2718C19.9454 28.7567 20.4021 29.2996 21.0803 29.4617C21.229 29.4944 21.229 29.5108 21.0803 29.5123C17.7615 29.5182 14.7521 29.5157 12.052 29.5048C11.8782 29.5157 11.7048 29.4783 11.5509 29.3966C11.3971 29.315 11.2688 29.1923 11.1805 29.0423C11.0504 28.7689 10.9921 28.4669 11.0109 28.1647C11.001 25.191 10.9985 22.2197 11.0035 19.251Z" fill="#B18BBC"/>
<circle cx="20" cy="20" r="19.5" stroke="black" stroke-opacity="0.05"/>
</svg>
