<svg width="40" height="40" viewBox="0 0 40 40" fill="none" xmlns="http://www.w3.org/2000/svg">
<circle cx="20" cy="20" r="20" fill="#585856"/>
<g clip-path="url(#clip0_14382_20334)">
<path d="M7.55025 18.7051C8.12148 18.7051 8.61625 18.9425 8.88574 19.1597L9.46098 18.3994C8.96621 18.0173 8.27837 17.8 7.53419 17.8C6.04989 17.8 5 18.7614 5 20.0285C5 21.3037 6.04989 22.261 7.53419 22.261C8.31054 22.261 9.00645 22.0357 9.50523 21.6255L8.90585 20.8853L8.87369 20.9135C8.60416 21.1267 8.11341 21.3559 7.55025 21.3559C6.63312 21.3559 5.9493 20.825 5.9493 20.0285C5.9493 19.2361 6.63316 18.7051 7.55025 18.7051ZM17.3813 18.7051C17.9566 18.7051 18.4473 18.9425 18.7168 19.1597L19.292 18.3994C18.7973 18.0173 18.1094 17.8 17.3653 17.8C15.8809 17.8 14.8311 18.7614 14.8311 20.0285C14.8311 21.3037 15.8809 22.261 17.3653 22.261C18.1416 22.261 18.8375 22.0357 19.3363 21.6255L18.7369 20.8853L18.7048 20.9135C18.4352 21.1267 17.9445 21.3559 17.3813 21.3559C16.4642 21.3559 15.7844 20.825 15.7844 20.0285C15.7844 19.2361 16.4642 18.7051 17.3813 18.7051ZM26.6251 21.3559C25.6798 21.3559 25.0201 20.8089 25.0201 20.0285C25.0201 19.2522 25.6798 18.7051 26.6251 18.7051C27.5664 18.7051 28.226 19.2522 28.226 20.0285C28.226 20.8089 27.5664 21.3559 26.6251 21.3559ZM26.6251 17.8C25.1448 17.8 24.0306 18.7574 24.0306 20.0285C24.0306 21.3037 25.1448 22.261 26.6251 22.261C28.1014 22.261 29.2156 21.3037 29.2156 20.0285C29.2156 18.7574 28.1014 17.8 26.6251 17.8ZM32.4095 21.3559C31.4642 21.3559 30.8045 20.8089 30.8045 20.0285C30.8045 19.2522 31.4642 18.7051 32.4095 18.7051C33.3508 18.7051 34.0105 19.2522 34.0105 20.0285C34.0105 20.8089 33.3507 21.3559 32.4095 21.3559ZM32.4095 17.8C30.9292 17.8 29.815 18.7574 29.815 20.0285C29.815 21.3037 30.9292 22.261 32.4095 22.261C33.8857 22.261 35 21.3037 35 20.0285C35 18.7574 33.8857 17.8 32.4095 17.8Z" fill="white"/>
<path d="M24.3119 17.8926H22.9765L20.8485 19.8757V17.8926H19.9153V22.1484H20.8485V20.1412L23.0328 22.1524H24.3803L22.0191 19.9763L24.3119 17.8926ZM13.3264 20.4268C13.3264 20.8049 13.1092 21.348 12.1116 21.348C10.9571 21.348 10.9451 20.5836 10.9451 20.4268V17.8926H10.0078V20.6037C10.0078 21.3318 10.6434 22.261 12.1116 22.261C13.5959 22.261 14.2596 21.3117 14.2596 20.6037V17.8926H13.3264L13.3264 20.4268Z" fill="white"/>
</g>
<circle cx="20" cy="20" r="19.5" stroke="black" stroke-opacity="0.05"/>
<defs>
<clipPath id="clip0_14382_20334">
<rect width="30" height="4.46098" fill="white" transform="translate(5 17.8)"/>
</clipPath>
</defs>
</svg>
