<svg width="40" height="40" viewBox="0 0 40 40" fill="none" xmlns="http://www.w3.org/2000/svg">
<circle cx="20" cy="20" r="20" fill="#EA002C"/>
<path d="M14.6548 22.1057C14.0429 21.8211 13.545 21.5899 13.545 21.1239C13.545 20.7682 13.8295 20.5085 14.3915 20.5085C14.5767 20.51 14.7613 20.529 14.9429 20.5655C15.0319 20.5834 15.1224 20.5929 15.2132 20.5939C15.7041 20.5939 15.9816 20.3022 16.1665 19.7473L16.2412 19.5197C15.6293 19.2688 14.9747 19.1383 14.3133 19.1355C12.6486 19.1355 11.7699 20.2026 11.7699 21.3125C11.7533 21.7815 11.9133 22.2397 12.2181 22.5966C12.5948 22.9861 13.0461 23.2958 13.545 23.5072C14.2315 23.8416 14.8504 24.0906 14.8504 24.5921C14.8504 25.0332 14.3951 25.2858 13.7833 25.2858C13.1889 25.2523 12.6142 25.0607 12.1185 24.7308L11.4285 26.0327C12.1782 26.465 13.0319 26.6839 13.8971 26.6659C15.4516 26.6659 16.629 25.7731 16.629 24.4036C16.629 23.0341 15.5263 22.5325 14.6548 22.1057Z" fill="white"/>
<path d="M20.73 22.7424L23.5508 19.2849H21.541L19.2929 22.2693H19.2609V19.2849H17.6033V26.609H17.7029C18.4143 26.609 19.2716 26.2782 19.2716 25.0795V23.4005H19.3036L21.5979 26.5094H23.7073L20.73 22.7424Z" fill="white"/>
<path d="M23.6437 11.4412C23.0639 11.5514 22.1995 12.0814 22.1995 13.017C22.1995 13.8671 22.911 14.3829 22.911 15.5069C22.9105 15.852 22.8196 16.1909 22.6473 16.4898C22.4751 16.7888 22.2275 17.0374 21.9292 17.2108C22.1284 17.193 22.3525 17.1788 22.5944 17.1788C22.8739 17.1751 23.1532 17.1918 23.4303 17.2286L26.0448 14.0272C25.3908 13.04 24.5797 12.1665 23.6437 11.4412Z" fill="white"/>
<path d="M25.842 20.1065C26.1728 19.5943 26.1977 18.7797 26.2404 17.9473C26.2724 17.1719 26.4324 16.5885 27.4711 16.5849C27.7023 16.5849 27.9193 16.6134 28.3177 16.6134C29.421 16.61 30.5028 16.3076 31.448 15.7384C29.8349 14.6998 27.9755 14.1071 26.0589 14.0203C25.9095 14.44 24.7535 17.6592 24.6646 17.9331C24.8403 18.1423 24.9963 18.3674 25.1305 18.6054C25.4211 19.0786 25.6597 19.5819 25.842 20.1065Z" fill="white"/>
<path d="M20.3178 17.4777C20.1862 17.4777 20.1221 17.3923 20.1044 17.2394C20.0866 17.0864 19.4392 11.1033 19.336 10.1998C19.336 10.0647 19.2862 9.82277 19.2862 9.7374C19.2837 9.70995 19.287 9.68228 19.2959 9.6562C19.3049 9.63013 19.3192 9.60623 19.338 9.58608C19.3568 9.56593 19.3797 9.54998 19.4051 9.53928C19.4305 9.52857 19.4579 9.52336 19.4854 9.52397C19.7949 9.52397 21.4845 9.91881 23.2737 11.1745C22.8734 11.2755 22.5164 11.5032 22.2561 11.8238C21.9958 12.1443 21.8462 12.5405 21.8296 12.953C21.8296 13.9348 22.541 14.479 22.541 15.4644C22.5481 17.09 20.7019 17.4777 20.3178 17.4777Z" fill="white"/>
<path d="M25.991 20.5333C26.0136 20.5957 26.041 20.6564 26.0728 20.7147C26.0873 20.745 26.1099 20.7707 26.1382 20.7889C26.1665 20.8072 26.1992 20.8172 26.2329 20.8178C26.2848 20.8149 26.3356 20.8016 26.3823 20.7787L32.8064 17.7907C32.9238 17.7338 33.1621 17.6342 33.2261 17.5915C33.2587 17.5753 33.2862 17.5505 33.3056 17.5198C33.325 17.489 33.3357 17.4536 33.3364 17.4172C33.3363 17.3798 33.3265 17.343 33.308 17.3105C32.8736 16.7894 32.3627 16.3372 31.7926 15.9695C30.7599 16.5998 29.5769 16.9413 28.3671 16.9584C27.9687 16.9584 27.8762 16.9335 27.6059 16.9335C26.8091 16.9335 26.6099 17.2892 26.5814 17.9721C26.5814 18.1038 26.5814 18.2816 26.5814 18.4772C26.553 19.0997 26.4676 19.9606 25.991 20.5333Z" fill="white"/>
<circle cx="20" cy="20" r="19.5" stroke="black" stroke-opacity="0.05"/>
</svg>
