<svg width="40" height="40" viewBox="0 0 40 40" fill="none" xmlns="http://www.w3.org/2000/svg">
<circle cx="20" cy="20" r="20" fill="#F6F8FA"/>
<path d="M24.8991 19.2627C24.7136 19.686 24.8543 19.9811 25.2565 20.1517C25.2976 20.1704 25.3175 20.219 25.2988 20.2601C25.2913 20.2787 25.2764 20.2924 25.259 20.3011C25.2241 20.3173 25.1855 20.326 25.1419 20.326C23.8756 20.3285 22.6342 20.331 21.4177 20.3335C20.9358 20.3335 20.688 19.9674 20.8835 19.5242C21.9394 17.126 22.862 15.0217 23.6527 13.2113C23.7984 12.8788 24.106 12.7493 24.4795 12.7518C25.5192 12.7555 26.5751 12.7518 27.6459 12.7369C27.6845 12.7356 27.7181 12.7667 27.7194 12.8053C27.7194 12.8165 27.7181 12.8265 27.7132 12.8365C26.7681 14.9931 25.8305 17.1347 24.8991 19.2627Z" fill="#FEC925"/>
<path d="M11.5411 27.4735C11.515 27.4524 11.5411 27.4275 11.6146 27.3988C11.972 27.3129 12.2297 27.0913 12.3878 26.7364C14.2269 22.5988 16.1855 18.1561 18.2649 13.4108C18.4418 13.0086 18.6821 12.7422 19.1328 12.7471C20.2061 12.7571 21.2583 12.7571 22.288 12.7471C22.3229 12.7471 22.3515 12.7758 22.3515 12.8106C22.3515 12.8194 22.3503 12.8281 22.3466 12.8355C20.2734 17.5547 18.25 22.2414 16.1208 26.8908C15.9054 27.359 15.5953 27.4698 15.0749 27.476C13.8957 27.4872 12.7178 27.4872 11.5411 27.4735Z" fill="#E84E4A"/>
<path d="M32.995 12.8254C30.9106 17.5346 28.8922 22.1828 26.7855 26.8396C26.5875 27.2767 26.2774 27.4871 25.8068 27.4858C24.4396 27.4821 23.1284 27.4784 21.8721 27.4734C21.8534 27.4734 21.8347 27.4634 21.826 27.446L21.7961 27.3937C21.7849 27.3713 21.7912 27.3588 21.8161 27.3564C21.9331 27.3439 22.0477 27.3315 22.161 27.319C22.598 27.2679 22.9678 26.8894 23.1359 26.5109C25.0647 22.1578 27.0096 17.7513 28.9694 13.2899C29.1313 12.9213 29.4252 12.7495 29.8211 12.752C30.9492 12.7607 31.9914 12.7607 32.9465 12.752C32.9751 12.752 32.9988 12.7744 33 12.803C33 12.8105 32.9988 12.818 32.995 12.8254Z" fill="#165F9C"/>
<path d="M11.6145 27.3987C11.5398 27.4273 11.5149 27.4522 11.5411 27.4734C10.2038 27.4871 8.86648 27.4896 7.52919 27.4808C7.21292 27.4784 7.03611 27.3177 7 26.999V26.9529C7.04109 26.7773 7.07346 26.664 7.09588 26.6117C7.92141 24.678 8.73823 22.7792 9.54633 20.9127C9.6447 20.6836 9.63349 20.4756 9.51022 20.2889C9.43551 20.1755 9.30726 20.1195 9.19645 20.0498C8.99847 19.9265 9.0159 19.8643 9.24874 19.8643C10.3084 19.8643 11.3518 19.8643 12.3766 19.8643C12.6343 19.8643 12.8609 19.9253 13.0539 20.0485C13.557 20.3661 13.5383 20.8268 13.3179 21.3248C12.5745 23.0058 11.8536 24.6531 11.1538 26.2681C10.9285 26.7885 10.9421 27.2617 11.6145 27.3987Z" fill="#FEC925"/>
<circle cx="20" cy="20" r="19.5" stroke="black" stroke-opacity="0.05"/>
</svg>
