<svg width="40" height="40" viewBox="0 0 40 40" fill="none" xmlns="http://www.w3.org/2000/svg">
<circle cx="20" cy="20" r="20" fill="#E60012"/>
<g clip-path="url(#clip0_17651_16861)">
<path d="M24.5333 29.1313C22.0252 31.6232 17.9766 31.6232 15.4684 29.1313L10.8702 24.5322C8.37662 22.0254 8.37662 17.9748 10.8702 15.4679L15.4685 10.8688C17.9766 8.37705 22.0252 8.37705 24.5333 10.8688L29.1316 15.4679C31.6228 17.9757 31.6228 22.0245 29.1316 24.5322L24.5333 29.1313Z" fill="white"/>
<path d="M17.27 26.7629C16.9034 26.7549 16.6117 26.4533 16.6158 26.0868C16.6198 25.7201 16.918 25.4251 17.2845 25.4251C17.6511 25.4251 17.9493 25.7201 17.9533 26.0868C17.9573 26.4533 17.6657 26.7549 17.2992 26.7629H17.2699M19.7468 14.1907C19.5778 14.1845 19.4094 14.213 19.2519 14.2745C19.0944 14.3359 18.9512 14.4291 18.8312 14.5482C18.3108 15.0687 18.037 16.139 18.06 17.5647C18.0893 19.325 18.5094 22.7742 19.8909 24.5512C20.0916 24.8156 20.3337 25.0457 20.6079 25.2326C20.8797 25.4376 21.2101 25.5497 21.5505 25.5525C21.6746 25.5514 21.7984 25.5395 21.9205 25.517C22.7126 25.3268 23.7054 24.4445 24.4453 23.2697C24.6243 22.9875 24.997 22.9018 25.2813 23.0773C25.3494 23.1195 25.4084 23.1749 25.4547 23.2403C25.501 23.3056 25.5338 23.3796 25.551 23.4578C25.5693 23.5361 25.5719 23.6173 25.5586 23.6966C25.5453 23.7759 25.5164 23.8518 25.4736 23.9198C24.5394 25.4041 23.3063 26.4473 22.1734 26.7106H22.1462C21.9463 26.7474 21.7434 26.7663 21.5401 26.767C20.9622 26.7629 20.3996 26.5813 19.9285 26.2466C19.5435 25.9861 19.2033 25.6648 18.9212 25.2954C16.9752 22.7868 16.8414 18.1061 16.831 17.5794C16.81 16.3251 16.9898 14.6527 17.9639 13.6765C18.1952 13.4439 18.4714 13.2607 18.7758 13.1382C19.0801 13.0156 19.4061 12.9562 19.7341 12.9636H19.847C20.1752 12.9557 20.5016 13.0146 20.8063 13.1368C21.1111 13.259 21.3877 13.4419 21.6195 13.6744C22.5934 14.6402 22.7732 16.3313 22.7524 17.5774C22.7314 18.8776 22.4931 21.3966 21.1451 23.6522C20.9632 23.9204 20.6037 23.9997 20.3259 23.833C20.0483 23.6664 19.9489 23.3118 20.1 23.0251C21.0426 21.4468 21.5003 19.7096 21.5358 17.5564C21.5589 16.1306 21.2851 15.0583 20.7625 14.5398C20.6433 14.4208 20.5009 14.3276 20.3441 14.2661C20.1873 14.2046 20.0195 14.1761 19.8511 14.1823L19.7468 14.1907Z" fill="#E60012"/>
</g>
<circle cx="20" cy="20" r="19.5" stroke="black" stroke-opacity="0.05"/>
<defs>
<clipPath id="clip0_17651_16861">
<rect width="22" height="22.0002" fill="white" transform="translate(9 9)"/>
</clipPath>
</defs>
</svg>
