<svg width="40" height="40" viewBox="0 0 40 40" fill="none" xmlns="http://www.w3.org/2000/svg">
<circle cx="20" cy="20" r="20" fill="white"/>
<path d="M4.70764 18.3364C4.70764 18.3747 4.72179 18.3806 4.7501 18.3552C4.97207 18.1475 5.23526 17.9888 5.52257 17.8894C5.80989 17.7901 6.11489 17.7523 6.41776 17.7785C7.7841 17.8711 8.66688 19.0399 8.47817 20.3732C8.38618 21.0234 8.0475 21.54 7.46212 21.9229C6.99828 22.213 6.44459 22.3242 5.90473 22.2354C4.67579 22.0243 4.0059 21.0484 4.00413 19.8425C4.00236 18.6365 4.00059 17.4359 4 16.2453C4 16.2412 4.00081 16.2372 4.00239 16.2334C4.00397 16.2297 4.00628 16.2262 4.00919 16.2234C4.0121 16.2205 4.01555 16.2183 4.01934 16.2168C4.02313 16.2153 4.02718 16.2145 4.03125 16.2146H4.67992C4.68409 16.214 4.68833 16.2144 4.69232 16.2158C4.69631 16.2171 4.69994 16.2193 4.70291 16.2223C4.70588 16.2253 4.70813 16.2289 4.70946 16.2329C4.71079 16.2369 4.71118 16.2411 4.71059 16.2453L4.70764 18.3364ZM7.80592 20.0146C7.80592 19.7094 7.71541 19.411 7.54583 19.1573C7.37626 18.9035 7.13524 18.7057 6.85325 18.5889C6.57126 18.4721 6.26096 18.4415 5.9616 18.5011C5.66224 18.5606 5.38726 18.7076 5.17144 18.9234C4.95561 19.1392 4.80863 19.4142 4.74909 19.7136C4.68954 20.0129 4.7201 20.3232 4.8369 20.6052C4.95371 20.8872 5.15151 21.1282 5.4053 21.2978C5.65908 21.4674 5.95745 21.5579 6.26267 21.5579C6.46533 21.5579 6.66601 21.518 6.85325 21.4404C7.04048 21.3629 7.21061 21.2492 7.35391 21.1059C7.49721 20.9626 7.61089 20.7925 7.68844 20.6052C7.766 20.418 7.80592 20.2173 7.80592 20.0146Z" fill="#A7A8AC"/>
<path d="M16.0387 18.3294C16.0747 18.3624 16.0924 18.3548 16.0924 18.3058L16.0812 16.2761C16.0812 16.2325 16.1024 16.213 16.1455 16.2171C16.3541 16.2357 16.5641 16.2336 16.7723 16.2106C16.7794 16.2098 16.7866 16.2118 16.7922 16.2162C16.7979 16.2206 16.8015 16.2271 16.8024 16.2342V16.2372C16.7989 17.3356 16.7961 18.4334 16.7941 19.5306C16.7941 19.6704 16.7941 19.8084 16.8018 19.9434C16.8318 20.4533 16.6746 20.9566 16.3595 21.3587C15.8143 22.0581 15.096 22.349 14.2048 22.2315C13.8233 22.1828 13.4637 22.0259 13.1687 21.7792C12.5165 21.241 12.2401 20.5473 12.3396 19.6981C12.4029 19.1607 12.6517 18.7001 13.0861 18.3164C13.5532 17.9029 14.1138 17.7246 14.7679 17.7816C15.2418 17.8131 15.6905 18.0065 16.0387 18.3294ZM16.1013 20.0148C16.1013 19.7095 16.0108 19.4111 15.8412 19.1573C15.6716 18.9034 15.4306 18.7055 15.1486 18.5886C14.8666 18.4717 14.5563 18.4411 14.2569 18.5005C13.9575 18.5599 13.6824 18.7068 13.4664 18.9225C13.2504 19.1382 13.1032 19.4132 13.0435 19.7125C12.9837 20.0119 13.014 20.3222 13.1306 20.6044C13.2472 20.8865 13.4448 21.1277 13.6984 21.2976C13.9521 21.4674 14.2504 21.5583 14.5557 21.5586C14.9651 21.5586 15.3578 21.396 15.6473 21.1064C15.9368 20.8169 16.0995 20.4242 16.0995 20.0148H16.1013Z" fill="#A7A8AC"/>
<path d="M26.6131 18.3404C26.7439 18.2177 26.8907 18.1134 27.0495 18.0302C27.4586 17.8144 27.9237 17.7283 28.3829 17.7834C28.8421 17.8385 29.2736 18.0322 29.62 18.3386C30.2168 18.8646 30.4774 19.7079 30.3064 20.491C30.1906 21.0451 29.8679 21.5342 29.4042 21.8588C28.9405 22.1834 28.3705 22.3191 27.8102 22.2383C26.8974 22.1204 26.1921 21.4788 25.9444 20.6036C25.8927 20.4048 25.8687 20.1999 25.8731 19.9945C25.8782 18.7262 25.8782 17.4775 25.8731 16.2481C25.8725 16.2437 25.8729 16.2391 25.8744 16.2348C25.8758 16.2306 25.8783 16.2267 25.8814 16.2235C25.8846 16.2203 25.8885 16.2179 25.8928 16.2164C25.8971 16.215 25.9016 16.2145 25.9061 16.2151H26.5412C26.5453 16.2145 26.5496 16.2149 26.5536 16.2162C26.5576 16.2176 26.5612 16.2198 26.5642 16.2228C26.5671 16.2258 26.5694 16.2294 26.5707 16.2334C26.572 16.2374 26.5724 16.2416 26.5718 16.2458V18.3221C26.5713 18.3616 26.5854 18.3681 26.6131 18.3404ZM29.6566 20.0134C29.6566 19.6041 29.494 19.2115 29.2046 18.9221C28.9151 18.6327 28.5226 18.4701 28.1133 18.4701C27.8081 18.4701 27.5097 18.5606 27.2559 18.7302C27.0022 18.8998 26.8044 19.1408 26.6875 19.4228C26.5707 19.7048 26.5402 20.0151 26.5997 20.3144C26.6593 20.6138 26.8063 20.8888 27.0221 21.1046C27.2379 21.3204 27.5129 21.4674 27.8122 21.5269C28.1116 21.5865 28.4219 21.5559 28.7039 21.4391C28.9859 21.3223 29.2269 21.1245 29.3965 20.8707C29.566 20.617 29.6566 20.3186 29.6566 20.0134Z" fill="#BF2726"/>
<path d="M9.63283 19.3619C9.53022 19.5612 9.47676 19.8339 9.47243 20.1798C9.46457 20.7597 9.46831 21.3211 9.48364 21.864C9.48388 21.8694 9.48304 21.8748 9.48117 21.8799C9.47931 21.8849 9.47645 21.8896 9.47277 21.8935C9.4691 21.8975 9.46467 21.9006 9.45975 21.9029C9.45484 21.9051 9.44952 21.9063 9.44413 21.9065H8.82141C8.80843 21.9065 8.79598 21.9013 8.7868 21.8921C8.77762 21.883 8.77246 21.8705 8.77246 21.8575C8.78308 21.3987 8.78445 20.9124 8.77659 20.3986C8.76951 19.9418 8.79782 19.6059 8.86151 19.3908C8.9833 18.9837 9.21666 18.6187 9.53515 18.3373C9.85364 18.0559 10.2446 17.8693 10.6636 17.7986C10.769 17.781 10.8761 17.776 10.9827 17.7839C10.988 17.7837 10.9933 17.7846 10.9982 17.7867C11.0031 17.7887 11.0075 17.7918 11.0111 17.7957C11.0147 17.7997 11.0174 17.8044 11.019 17.8094C11.0206 17.8145 11.0211 17.8199 11.0204 17.8252L11.0174 18.4272C11.0172 18.4393 11.0124 18.4508 11.0042 18.4595C10.9959 18.4682 10.9846 18.4735 10.9726 18.4744C10.3629 18.5149 9.91628 18.8108 9.63283 19.3619Z" fill="#A7A8AC"/>
<path d="M12.0836 21.8724C12.0836 21.881 12.0802 21.8892 12.0741 21.8953C12.068 21.9014 12.0597 21.9048 12.0511 21.9048H11.4143C11.4057 21.9048 11.3974 21.9014 11.3913 21.8953C11.3852 21.8892 11.3818 21.881 11.3818 21.8724L11.3748 17.8117C11.3748 17.8031 11.3782 17.7949 11.3843 17.7888C11.3903 17.7827 11.3986 17.7793 11.4072 17.7793H12.0441C12.0527 17.7793 12.0609 17.7827 12.067 17.7888C12.0731 17.7949 12.0765 17.8031 12.0765 17.8117L12.0836 21.8724Z" fill="#A7A8AC"/>
<path d="M20.8159 21.6708C20.4575 22.0007 20.0017 22.2051 19.517 22.2533C19.0323 22.3015 18.5451 22.1908 18.1288 21.9378C17.7126 21.6849 17.3898 21.3035 17.2093 20.8511C17.0287 20.3988 17.0002 19.9 17.1279 19.4299C17.372 18.5312 18.177 17.8218 19.127 17.7829C19.6188 17.7629 20.0516 17.8366 20.4674 18.0913C20.881 18.341 21.2027 18.718 21.3843 19.1657C21.4879 19.433 21.5446 19.716 21.5518 20.0025C21.5801 20.5824 21.5821 21.1741 21.5577 21.7775C21.54 22.2131 21.4726 22.5638 21.3554 22.8295C21.1818 23.2262 20.8961 23.5636 20.5335 23.8003C20.1708 24.0369 19.7469 24.1625 19.3139 24.1617C19.3087 24.1624 19.3035 24.162 19.2985 24.1604C19.2935 24.1588 19.289 24.156 19.2853 24.1524C19.2816 24.1487 19.2788 24.1442 19.2771 24.1393C19.2754 24.1344 19.2749 24.1291 19.2756 24.1239L19.2732 23.4988C19.273 23.4871 19.2774 23.4757 19.2855 23.4672C19.2935 23.4586 19.3045 23.4535 19.3163 23.4529C19.4327 23.4524 19.5487 23.4398 19.6624 23.4151C20.4968 23.1763 20.8554 22.5306 20.8731 21.6985C20.8742 21.6425 20.8554 21.6342 20.8159 21.6708ZM20.843 20.0155C20.8428 19.6059 20.6801 19.2132 20.3905 18.9236C20.1009 18.634 19.7081 18.4712 19.2986 18.4711C18.889 18.4712 18.4963 18.634 18.2067 18.9236C17.9171 19.2132 17.7543 19.6059 17.7541 20.0155C17.7541 20.4251 17.9169 20.8179 18.2065 21.1076C18.4961 21.3972 18.889 21.5599 19.2986 21.5599C19.7082 21.5599 20.101 21.3972 20.3906 21.1076C20.6803 20.8179 20.843 20.4251 20.843 20.0155Z" fill="#A7A8AC"/>
<path d="M25.5829 18.4472L25.0357 18.8317C24.5675 18.4952 24.0804 18.3959 23.5744 18.5339C23.386 18.5852 23.2113 18.6774 23.0626 18.804C22.3691 19.3866 22.2553 20.2653 22.8108 20.9735C23.381 21.7006 24.3617 21.7348 25.0552 21.1557C25.0715 21.1421 25.0924 21.1351 25.1137 21.1361C25.1349 21.1371 25.1551 21.146 25.1701 21.161L25.5682 21.5602C25.5792 21.5713 25.5853 21.5862 25.5853 21.6018C25.5853 21.6174 25.5792 21.6323 25.5682 21.6434C25.3468 21.8541 25.0849 22.0175 24.7983 22.1236C24.5118 22.2297 24.2066 22.2764 23.9014 22.2607C23.5962 22.245 23.2974 22.1674 23.0232 22.0325C22.749 21.8975 22.5052 21.7082 22.3066 21.4759C22.033 21.166 21.8567 20.7825 21.7994 20.3732C21.6858 19.5551 21.9217 18.8789 22.5071 18.3446C23.368 17.5591 24.6854 17.6034 25.5328 18.3446C25.5788 18.3835 25.5959 18.4183 25.5829 18.4472Z" fill="#A7A8AC"/>
<path d="M31.2896 21.8715C31.2896 21.8809 31.2858 21.8899 31.2792 21.8965C31.2726 21.9032 31.2636 21.9069 31.2542 21.9069H30.6279C30.6185 21.9069 30.6095 21.9032 30.6029 21.8965C30.5963 21.8899 30.5925 21.8809 30.5925 21.8715V17.8132C30.5925 17.8038 30.5963 17.7948 30.6029 17.7882C30.6095 17.7816 30.6185 17.7778 30.6279 17.7778H31.2542C31.2636 17.7778 31.2726 17.7816 31.2792 17.7882C31.2858 17.7948 31.2896 17.8038 31.2896 17.8132V21.8715Z" fill="#BF2726"/>
<path d="M36 20.0147C36 20.6118 35.7628 21.1844 35.3406 21.6067C34.9183 22.0289 34.3457 22.2661 33.7485 22.2661C33.1514 22.2661 32.5787 22.0289 32.1565 21.6067C31.7343 21.1844 31.4971 20.6118 31.4971 20.0147C31.4971 19.719 31.5553 19.4262 31.6685 19.1531C31.7816 18.8799 31.9474 18.6317 32.1565 18.4226C32.3656 18.2136 32.6138 18.0477 32.8869 17.9346C33.1601 17.8214 33.4529 17.7632 33.7485 17.7632C34.0442 17.7632 34.337 17.8214 34.6101 17.9346C34.8833 18.0477 35.1315 18.2136 35.3406 18.4226C35.5496 18.6317 35.7155 18.8799 35.8286 19.1531C35.9418 19.4262 36 19.719 36 20.0147ZM35.2924 20.0147C35.2924 19.6057 35.1299 19.2134 34.8407 18.9243C34.5515 18.6351 34.1593 18.4726 33.7503 18.4726C33.4453 18.4726 33.1472 18.563 32.8936 18.7325C32.64 18.9019 32.4423 19.1428 32.3256 19.4245C32.2089 19.7063 32.1784 20.0164 32.2379 20.3155C32.2974 20.6146 32.4442 20.8894 32.6599 21.1051C32.8756 21.3207 33.1503 21.4676 33.4495 21.5271C33.7486 21.5866 34.0587 21.556 34.3404 21.4393C34.6222 21.3226 34.863 21.125 35.0325 20.8714C35.2019 20.6178 35.2924 20.3196 35.2924 20.0147Z" fill="#BF2726"/>
<path d="M25.5831 18.4473L24.2822 20.2553C24.2803 20.2579 24.278 20.2601 24.2752 20.2618C24.2725 20.2635 24.2694 20.2646 24.2662 20.2651C24.263 20.2656 24.2598 20.2655 24.2567 20.2647C24.2535 20.2639 24.2506 20.2625 24.248 20.2606H24.2451L23.7933 19.7888C23.7904 19.7859 23.7881 19.7825 23.7866 19.7787C23.785 19.7749 23.7842 19.7708 23.7842 19.7667C23.7842 19.7626 23.785 19.7585 23.7866 19.7547C23.7881 19.751 23.7904 19.7475 23.7933 19.7446L25.0317 18.8371L25.5831 18.4473Z" fill="#BF2726"/>
<path d="M7.80597 20.0149C7.80597 20.3201 7.71546 20.6185 7.54588 20.8723C7.37631 21.1261 7.13529 21.3239 6.8533 21.4407C6.57131 21.5575 6.26101 21.5881 5.96165 21.5285C5.66229 21.469 5.38731 21.322 5.17149 21.1062C4.95566 20.8903 4.80868 20.6154 4.74914 20.316C4.68959 20.0166 4.72015 19.7063 4.83696 19.4243C4.95376 19.1424 5.15156 18.9013 5.40535 18.7318C5.65913 18.5622 5.9575 18.4717 6.26272 18.4717C6.67202 18.4717 7.06455 18.6343 7.35396 18.9237C7.64337 19.2131 7.80597 19.6056 7.80597 20.0149Z" fill="white"/>
<path d="M16.1011 20.0145C16.1011 20.2174 16.0612 20.4183 15.9835 20.6057C15.9058 20.7932 15.7919 20.9634 15.6483 21.1068C15.5048 21.2502 15.3344 21.3639 15.1469 21.4414C14.9594 21.5188 14.7584 21.5586 14.5555 21.5584C14.1461 21.5584 13.7534 21.3957 13.4639 21.1062C13.1744 20.8167 13.0117 20.424 13.0117 20.0145C13.0117 19.6051 13.1744 19.2124 13.4639 18.9229C13.7534 18.6334 14.1461 18.4707 14.5555 18.4707C14.965 18.4707 15.3577 18.6334 15.6472 18.9229C15.9367 19.2124 16.0994 19.6051 16.0994 20.0145H16.1011Z" fill="white"/>
<path d="M20.843 20.0146C20.843 20.3201 20.7524 20.6187 20.5827 20.8727C20.413 21.1266 20.1718 21.3246 19.8896 21.4415C19.6074 21.5584 19.2969 21.589 18.9973 21.5294C18.6977 21.4698 18.4225 21.3227 18.2065 21.1067C17.9905 20.8907 17.8434 20.6155 17.7838 20.3159C17.7242 20.0163 17.7548 19.7058 17.8717 19.4236C17.9886 19.1414 18.1866 18.9002 18.4405 18.7305C18.6945 18.5608 18.9931 18.4702 19.2986 18.4702C19.7081 18.4704 20.1009 18.6331 20.3905 18.9227C20.6801 19.2123 20.8428 19.6051 20.843 20.0146Z" fill="white"/>
<path d="M29.6566 20.0135C29.6566 20.4227 29.494 20.8153 29.2045 21.1047C28.9151 21.3941 28.5226 21.5567 28.1133 21.5567C27.8081 21.5567 27.5097 21.4662 27.2559 21.2966C27.0021 21.127 26.8043 20.886 26.6875 20.604C26.5707 20.322 26.5402 20.0117 26.5997 19.7124C26.6593 19.413 26.8062 19.138 27.0221 18.9222C27.2379 18.7064 27.5129 18.5594 27.8122 18.4999C28.1116 18.4403 28.4219 18.4709 28.7039 18.5877C28.9859 18.7045 29.2269 18.9023 29.3965 19.1561C29.566 19.4099 29.6566 19.7082 29.6566 20.0135Z" fill="white"/>
<path d="M35.2912 20.0142C35.2912 20.4232 35.1287 20.8154 34.8395 21.1046C34.5503 21.3938 34.1581 21.5563 33.7491 21.5563C33.4441 21.5563 33.146 21.4659 32.8924 21.2964C32.6388 21.127 32.4411 20.8861 32.3244 20.6044C32.2077 20.3226 32.1772 20.0125 32.2367 19.7134C32.2962 19.4143 32.443 19.1395 32.6587 18.9238C32.8744 18.7082 33.1491 18.5613 33.4483 18.5018C33.7474 18.4423 34.0574 18.4728 34.3392 18.5896C34.621 18.7063 34.8618 18.9039 35.0313 19.1575C35.2007 19.4111 35.2912 19.7092 35.2912 20.0142Z" fill="white"/>
<circle cx="20" cy="20" r="19.5" stroke="black" stroke-opacity="0.05"/>
</svg>
