<svg width="40" height="40" viewBox="0 0 40 40" fill="none" xmlns="http://www.w3.org/2000/svg">
<circle cx="20" cy="20" r="20" fill="#08315F"/>
<path d="M27.9696 17.791L30.9253 17.8378C28.6387 20.1022 26.3715 22.3411 24.1236 24.5545C23.7952 24.878 23.3025 25.0348 22.6457 25.025C22.1039 25.0061 21.59 24.7796 21.2104 24.3925C20.8308 24.0053 20.6145 23.4871 20.6063 22.9449C20.6063 21.174 20.6063 19.5102 20.6063 17.9536C20.6076 17.9447 20.6068 17.9358 20.6039 17.9273C20.6011 17.9189 20.5963 17.9112 20.5899 17.905C20.5836 17.8987 20.5758 17.8941 20.5673 17.8914C20.5588 17.8887 20.5498 17.8881 20.541 17.8895C17.7053 17.8895 14.8218 17.8895 11.8908 17.8895C10.8268 17.8895 10.8551 19.3021 11.9302 19.2996C13.7184 19.2996 15.353 19.2996 16.8342 19.2996C17.3338 19.2988 17.8211 19.4552 18.227 19.7467C19.3149 20.5151 19.7352 21.5459 19.4881 22.839C19.2418 24.1063 18.0103 25.0348 16.6962 25.0348H9.06322C9.0548 25.036 9.04621 25.0353 9.03813 25.0326C9.03006 25.03 9.02269 25.0255 9.01662 25.0196C9.01055 25.0136 9.00593 25.0063 9.00312 24.9983C9.00031 24.9903 8.99938 24.9817 9.00041 24.9733V22.9425C9.00041 22.9346 9.00197 22.9267 9.005 22.9194C9.00803 22.9121 9.01248 22.9054 9.01808 22.8998C9.02369 22.8942 9.03034 22.8898 9.03766 22.8867C9.04498 22.8837 9.05283 22.8821 9.06075 22.8821H16.6667C17.7258 22.8821 17.6913 21.4449 16.6827 21.4388C15.1835 21.4289 13.7057 21.4314 12.2492 21.4462C11.6416 21.4544 11.1638 21.3916 10.8157 21.2578C8.79967 20.4893 8.3908 17.8477 9.97578 16.4351C10.546 15.9277 11.1851 15.7368 11.9511 15.7368C15.4553 15.7368 19.0378 15.7368 22.6987 15.7368C22.7135 15.7371 22.7276 15.7432 22.7379 15.7538C22.7483 15.7644 22.7541 15.7787 22.7541 15.7935V22.2048C22.7539 22.2567 22.7695 22.3075 22.7991 22.3502C22.8286 22.3929 22.8705 22.4256 22.9191 22.4437C22.9773 22.4664 23.041 22.4708 23.1018 22.4562C23.1625 22.4417 23.2174 22.409 23.259 22.3624C24.6548 21.0127 26.1851 19.516 27.8502 17.8723C27.8846 17.838 27.9251 17.8104 27.9696 17.791Z" fill="white"/>
<path d="M30.9244 17.8377L27.9688 17.7909L29.9158 15.8303C29.9701 15.7762 30.0435 15.7456 30.1202 15.7454H32.9158C33.0106 15.7454 33.0242 15.7786 32.9564 15.8463L30.9244 17.8377Z" fill="#DF9021"/>
<circle cx="20" cy="20" r="19.5" stroke="black" stroke-opacity="0.05"/>
</svg>
