<svg width="40" height="40" viewBox="0 0 40 40" fill="none" xmlns="http://www.w3.org/2000/svg">
<circle cx="20" cy="20" r="20" fill="#F6F8FA"/>
<g clip-path="url(#clip0_18553_55883)">
<path d="M28.3102 16.3275C28.8402 15.7475 29.6002 14.5475 28.7802 13.2875C28.0202 12.1175 26.8802 12.0775 26.0302 12.3475C23.1102 13.4475 20.8802 13.5075 19.1202 12.9575C18.1002 12.6375 17.1202 11.9975 16.5602 11.6175C16.5202 11.5875 16.3302 11.4775 16.2702 11.4375C15.9402 11.2675 15.3502 11.0675 14.8002 11.1975C14.4902 11.2675 13.8302 11.5075 13.4602 12.4075C13.2202 12.9875 13.5202 13.9175 13.7102 14.2275C15.8002 17.5175 19.3402 17.7475 21.2002 17.9675C21.2302 17.9675 21.2702 17.9975 21.2902 18.0375C21.3102 18.0775 21.3102 18.1175 21.2902 18.1475C20.9702 19.0475 20.5302 20.5775 20.3102 22.2175C22.2802 23.0875 23.6902 24.3575 24.5002 25.3275C25.3902 26.3875 25.5702 27.8675 24.7602 28.6775C25.4402 27.9875 25.4302 27.0875 25.4202 26.6275C25.4202 26.4675 25.3702 25.8975 25.3602 25.7575C25.2702 24.8475 25.2102 23.6475 25.3302 22.6775C25.6102 20.4475 26.3302 18.4775 28.3102 16.3475" fill="#E9480A"/>
<path d="M24.4901 25.3277C23.2301 23.8277 20.5701 21.6377 16.6101 21.2477C16.5701 21.2477 16.5101 21.2177 16.4801 21.1577C16.4501 21.0877 16.4601 21.0077 16.4801 20.9677C16.6401 20.4677 17.0601 18.9677 17.1801 17.1077C15.9201 16.5877 14.6701 15.7277 13.7101 14.2277C13.5101 13.9177 13.2201 12.9877 13.4601 12.4077C13.2501 12.9077 13.3101 13.5077 13.3901 13.9077C13.3901 13.9077 13.3901 13.9377 13.3901 13.9477C13.4901 14.3977 13.7701 16.0077 13.7201 17.2377C13.6201 19.0277 12.7401 20.8277 11.4601 22.3277C11.2501 22.5777 10.7501 23.3677 11.1401 24.1977C11.6101 25.1877 12.6601 25.0577 13.0001 25.0077C13.2701 24.9777 13.5501 24.9377 13.8101 24.9277C15.3001 24.8677 16.7701 25.2077 18.2401 26.0977C19.3401 26.7877 20.4901 27.7977 21.0201 28.3377C21.0701 28.3877 21.3701 28.6577 21.4501 28.7177C21.9801 29.0977 22.6201 29.2977 23.1901 29.2977C23.8501 29.2977 24.4101 29.0177 24.7501 28.6777C25.5601 27.8677 25.3801 26.3977 24.4901 25.3277Z" fill="#71685C"/>
</g>
<circle cx="20" cy="20" r="19.5" stroke="black" stroke-opacity="0.05"/>
<defs>
<clipPath id="clip0_18553_55883">
<rect width="18.14" height="18.14" fill="white" transform="translate(11 11.1577)"/>
</clipPath>
</defs>
</svg>
