<svg width="40" height="40" viewBox="0 0 40 40" fill="none" xmlns="http://www.w3.org/2000/svg">
<circle cx="20" cy="20" r="20" fill="#252525"/>
<path d="M5.80891 21.0274L5.09271 21.0288C5.08051 21.0288 5.06881 21.0239 5.06019 21.0153C5.05156 21.0067 5.04671 20.995 5.04671 20.9828L5.04742 19.9078C5.04742 19.9016 5.04981 19.8956 5.05405 19.8913C5.0583 19.8869 5.06406 19.8844 5.07007 19.8844L7.1309 19.8851C7.15543 19.8851 7.1677 19.8974 7.1677 19.9219C7.16723 20.4796 7.16699 21.0314 7.16699 21.5772C7.16699 21.6381 7.14482 21.6902 7.10047 21.7336C6.4357 22.3772 5.65817 22.6315 4.76788 22.4965C3.88042 22.3616 3.27675 21.9125 2.95687 21.1491C2.70988 20.561 2.7481 19.7853 3.05312 19.2185C3.83654 17.7613 6.27953 17.583 7.06791 19.147C7.07042 19.1518 7.07194 19.1571 7.07238 19.1625C7.07281 19.1679 7.07215 19.1734 7.07044 19.1786C7.06873 19.1838 7.066 19.1886 7.06241 19.1928C7.05881 19.197 7.05443 19.2004 7.04951 19.2029L6.05165 19.7117C6.0073 19.7339 5.97215 19.724 5.9462 19.682C5.72446 19.3211 5.41661 19.1677 5.02265 19.222C3.56832 19.4223 3.98799 21.8624 5.62561 21.2892C5.72894 21.2524 5.80466 21.2375 5.86906 21.137C5.87596 21.1262 5.87983 21.1137 5.88026 21.1008C5.88068 21.0879 5.87766 21.0752 5.87149 21.064C5.86533 21.0527 5.85626 21.0434 5.84524 21.0369C5.83423 21.0305 5.82167 21.0272 5.80891 21.0274Z" fill="white"/>
<path d="M25.6972 18.6147L25.6837 18.1738C25.6836 18.168 25.6846 18.1621 25.6867 18.1566C25.6889 18.1511 25.6921 18.1461 25.6963 18.1419C25.7004 18.1377 25.7054 18.1343 25.7109 18.132C25.7164 18.1297 25.7224 18.1286 25.7283 18.1286L29.269 18.1271C29.3025 18.1271 29.3192 18.1439 29.3192 18.1774L29.3235 19.2241C29.3235 19.2359 29.3187 19.2472 29.3102 19.2556C29.3017 19.264 29.2902 19.2687 29.2782 19.2687L28.2081 19.2694C28.1803 19.2694 28.1664 19.2835 28.1664 19.3118L28.1678 22.4342C28.1678 22.4397 28.1656 22.4449 28.1618 22.4487C28.1579 22.4526 28.1527 22.4547 28.1473 22.4547L26.8819 22.4554C26.874 22.4554 26.8664 22.4522 26.8609 22.4465C26.8553 22.4408 26.8522 22.4331 26.8522 22.425V19.2977C26.8522 19.2904 26.8492 19.2833 26.8441 19.2782C26.8389 19.273 26.8319 19.2701 26.8246 19.2701L25.7326 19.2694C25.7014 19.2694 25.6863 19.254 25.6873 19.2234L25.6986 18.7435C25.7 18.6784 25.6811 18.6718 25.642 18.7237L25.0143 19.551C24.9963 19.5746 24.9751 19.5784 24.9506 19.5624C24.5323 19.2892 24.0631 19.1342 23.5769 19.1745C23.4972 19.1807 23.4358 19.2177 23.3929 19.2856C23.384 19.2995 23.3781 19.3151 23.3756 19.3313C23.3731 19.3476 23.3741 19.3642 23.3784 19.3801C23.3828 19.396 23.3904 19.4108 23.4008 19.4235C23.4112 19.4363 23.4242 19.4467 23.4389 19.4541C23.5436 19.5069 23.6578 19.5454 23.7814 19.5694C24.5012 19.7081 25.6788 19.8759 25.7743 20.8291C25.9215 22.2891 24.5875 22.6345 23.4389 22.5036C22.8383 22.4347 22.3337 22.2212 21.9251 21.8631C21.9186 21.8572 21.9144 21.8492 21.9133 21.8405C21.9123 21.8317 21.9145 21.8229 21.9195 21.8157L22.5564 20.9091C22.5601 20.904 22.5648 20.8996 22.5702 20.8964C22.5757 20.8932 22.5818 20.8912 22.5881 20.8906C22.5944 20.8899 22.6007 20.8906 22.6067 20.8925C22.6127 20.8945 22.6183 20.8978 22.6229 20.902C22.9202 21.1705 23.2728 21.338 23.6809 21.4045C23.9201 21.4441 24.2853 21.4632 24.4495 21.2637C24.4576 21.2539 24.4637 21.2427 24.4675 21.2306C24.4712 21.2185 24.4726 21.2057 24.4714 21.1931C24.4702 21.1805 24.4665 21.1682 24.4606 21.157C24.4547 21.1458 24.4466 21.1359 24.4368 21.1278C24.3769 21.0773 24.3061 21.0431 24.2245 21.0252C23.4545 20.8575 22.2443 20.7888 22.0752 19.7874C21.9301 18.9318 22.4821 18.268 23.2917 18.1215C24.1782 17.9606 24.9673 18.1316 25.659 18.6346C25.6859 18.6539 25.6986 18.6473 25.6972 18.6147Z" fill="white"/>
<path d="M8.86044 18.127H7.63045C7.60856 18.127 7.59082 18.1447 7.59082 18.1666V22.4156C7.59082 22.4375 7.60856 22.4553 7.63045 22.4553H8.86044C8.88233 22.4553 8.90007 22.4375 8.90007 22.4156V18.1666C8.90007 18.1447 8.88233 18.127 8.86044 18.127Z" fill="white"/>
<path d="M10.6031 21.975L10.468 22.423C10.4652 22.4323 10.4595 22.4404 10.4517 22.4461C10.4439 22.4519 10.4345 22.4549 10.4248 22.4548L9.03062 22.4569C9.02337 22.4571 9.0162 22.4554 9.00973 22.4521C9.00326 22.4488 8.9977 22.444 8.99351 22.4381C8.98933 22.4321 8.98665 22.4253 8.98572 22.4181C8.98479 22.4109 8.98563 22.4036 8.98816 22.3968L10.5536 18.1577C10.5568 18.1491 10.5625 18.1418 10.5699 18.1366C10.5774 18.1314 10.5863 18.1286 10.5954 18.1286L12.1877 18.1279C12.1968 18.1279 12.2056 18.1307 12.2131 18.1359C12.2206 18.1411 12.2263 18.1484 12.2294 18.1569L13.7956 22.3954C13.7981 22.4021 13.7989 22.4094 13.798 22.4165C13.7971 22.4236 13.7945 22.4305 13.7904 22.4364C13.7863 22.4423 13.7809 22.4471 13.7745 22.4504C13.7681 22.4538 13.761 22.4555 13.7538 22.4555H12.3582C12.3487 22.4555 12.3394 22.4523 12.3318 22.4466C12.3241 22.4409 12.3185 22.4328 12.3158 22.4237L12.1849 21.9771C12.1821 21.968 12.1765 21.9599 12.1689 21.9542C12.1612 21.9485 12.1519 21.9453 12.1424 21.9453L10.6463 21.9432C10.6366 21.9431 10.6272 21.9461 10.6194 21.9519C10.6116 21.9576 10.6059 21.9657 10.6031 21.975ZM10.9719 20.7783C10.9708 20.7818 10.9705 20.7856 10.9711 20.7893C10.9717 20.793 10.9732 20.7965 10.9754 20.7995C10.9776 20.8025 10.9805 20.805 10.9838 20.8067C10.9871 20.8084 10.9908 20.8094 10.9945 20.8094H11.7885C11.7923 20.8094 11.7959 20.8084 11.7993 20.8067C11.8026 20.805 11.8055 20.8025 11.8076 20.7995C11.8098 20.7965 11.8113 20.793 11.8119 20.7893C11.8125 20.7856 11.8123 20.7818 11.8112 20.7783L11.4149 19.4853C11.4136 19.4801 11.4106 19.4755 11.4063 19.4721C11.4021 19.4688 11.3969 19.467 11.3915 19.467C11.3861 19.467 11.3809 19.4688 11.3767 19.4721C11.3725 19.4755 11.3695 19.4801 11.3682 19.4853L10.9719 20.7783Z" fill="white"/>
<path d="M16.7678 18.1286L18.0396 18.1265C18.0456 18.1265 18.0514 18.1289 18.0556 18.1331C18.0598 18.1373 18.0622 18.1431 18.0622 18.1491L18.0587 22.4328C18.0587 22.4388 18.0563 22.4446 18.0521 22.4488C18.0478 22.4531 18.0421 22.4555 18.0361 22.4555L16.8096 22.4541C16.806 22.4541 16.8025 22.4533 16.7993 22.4517C16.7961 22.4501 16.7933 22.4477 16.7912 22.4449L15.2371 20.3119C15.2343 20.3079 15.2303 20.305 15.2257 20.3035C15.2211 20.302 15.2162 20.302 15.2116 20.3035C15.2071 20.305 15.2031 20.3079 15.2003 20.3119C15.1975 20.3158 15.196 20.3205 15.196 20.3253L15.2017 22.4321C15.2017 22.4381 15.1993 22.4439 15.1951 22.4481C15.1908 22.4524 15.1851 22.4548 15.1791 22.4548H13.9045C13.8985 22.4548 13.8927 22.4524 13.8885 22.4481C13.8842 22.4439 13.8818 22.4381 13.8818 22.4321V18.1512C13.8818 18.1452 13.8842 18.1395 13.8885 18.1352C13.8927 18.131 13.8985 18.1286 13.9045 18.1286L15.2307 18.1272C15.2343 18.1271 15.2378 18.128 15.241 18.1296C15.2442 18.1312 15.247 18.1335 15.2491 18.1364L16.7063 20.1215C16.7091 20.1254 16.7131 20.1283 16.7176 20.1298C16.7222 20.1313 16.7272 20.1313 16.7317 20.1298C16.7363 20.1283 16.7403 20.1254 16.7431 20.1215C16.7459 20.1176 16.7474 20.1128 16.7473 20.108L16.7452 18.1512C16.7452 18.1452 16.7476 18.1395 16.7518 18.1352C16.7561 18.131 16.7618 18.1286 16.7678 18.1286Z" fill="white"/>
<path d="M20.8429 19.3081L20.8443 22.4156C20.8443 22.4263 20.8401 22.4366 20.8325 22.4442C20.8249 22.4517 20.8147 22.456 20.804 22.456L19.5705 22.4538C19.5598 22.4538 19.5495 22.4496 19.5419 22.442C19.5344 22.4345 19.5301 22.4242 19.5301 22.4135L19.5308 19.3116C19.5308 19.3009 19.5266 19.2907 19.519 19.2831C19.5114 19.2756 19.5012 19.2713 19.4905 19.2713L18.4056 19.2678C18.3949 19.2678 18.3846 19.2635 18.377 19.256C18.3695 19.2484 18.3652 19.2381 18.3652 19.2274V18.1673C18.3652 18.1566 18.3695 18.1463 18.377 18.1388C18.3846 18.1312 18.3949 18.127 18.4056 18.127L21.9582 18.1277C21.9689 18.1277 21.9792 18.1319 21.9868 18.1395C21.9943 18.147 21.9986 18.1573 21.9986 18.168L21.9929 19.2296C21.9929 19.2403 21.9887 19.2505 21.9811 19.2581C21.9735 19.2656 21.9633 19.2699 21.9526 19.2699L20.8832 19.2678C20.8779 19.2678 20.8727 19.2688 20.8678 19.2708C20.8629 19.2729 20.8585 19.2758 20.8547 19.2796C20.851 19.2833 20.848 19.2878 20.846 19.2927C20.8439 19.2976 20.8429 19.3028 20.8429 19.3081Z" fill="white"/>
<path d="M30.9412 19.3034L30.9405 19.6608C30.9405 19.67 30.9442 19.6788 30.9507 19.6853C30.9572 19.6918 30.966 19.6955 30.9752 19.6955L32.8265 19.6962C32.8357 19.6962 32.8446 19.6999 32.8511 19.7064C32.8576 19.7129 32.8612 19.7217 32.8612 19.7309L32.8641 20.8045C32.8641 20.8137 32.8604 20.8225 32.8539 20.829C32.8474 20.8355 32.8386 20.8391 32.8294 20.8391L30.9724 20.837C30.9678 20.837 30.9632 20.8379 30.9589 20.8397C30.9547 20.8415 30.9508 20.8441 30.9476 20.8474C30.9444 20.8507 30.9418 20.8546 30.9401 20.8589C30.9384 20.8632 30.9376 20.8678 30.9377 20.8724L30.9455 21.273C30.9457 21.282 30.9494 21.2907 30.9559 21.297C30.9624 21.3034 30.9711 21.3069 30.9802 21.3069H32.8775C32.8867 21.3069 32.8955 21.3106 32.902 21.3171C32.9085 21.3236 32.9122 21.3324 32.9122 21.3416L32.9143 22.4209C32.9143 22.4301 32.9106 22.4389 32.9041 22.4454C32.8976 22.4519 32.8888 22.4555 32.8796 22.4555L29.661 22.4548C29.6518 22.4548 29.643 22.4512 29.6365 22.4447C29.63 22.4382 29.6263 22.4293 29.6263 22.4201L29.6221 18.1626C29.6221 18.1534 29.6257 18.1446 29.6322 18.1381C29.6387 18.1316 29.6476 18.1279 29.6567 18.1279H32.8803C32.8849 18.1279 32.8894 18.1288 32.8936 18.1306C32.8978 18.1323 32.9016 18.1349 32.9049 18.1381C32.9081 18.1413 32.9106 18.1451 32.9124 18.1493C32.9141 18.1535 32.915 18.1581 32.915 18.1626L32.9115 19.2355C32.9115 19.2447 32.9078 19.2535 32.9013 19.26C32.8948 19.2665 32.886 19.2702 32.8768 19.2702L30.9759 19.2687C30.9667 19.2687 30.9579 19.2724 30.9514 19.2789C30.9449 19.2854 30.9412 19.2942 30.9412 19.3034Z" fill="white"/>
<path d="M34.6496 21.1279L34.6503 22.4167C34.6503 22.4268 34.6464 22.4365 34.6393 22.4437C34.6323 22.4509 34.6228 22.4549 34.6128 22.4549H33.3694C33.3602 22.4549 33.3514 22.4512 33.3449 22.4447C33.3383 22.4382 33.3347 22.4294 33.3347 22.4202L33.334 18.1761C33.334 18.1459 33.3491 18.1308 33.3793 18.1308C34.1606 18.1252 34.9332 18.1245 35.697 18.1287C36.5597 18.1337 37.2143 18.7161 37.2044 19.5986C37.1938 20.6092 36.4974 21.0982 35.5611 21.0911C35.2691 21.0888 34.9794 21.0869 34.6921 21.0855C34.6638 21.0855 34.6496 21.0996 34.6496 21.1279ZM34.6517 19.29L34.6503 19.9256C34.6502 19.9286 34.6507 19.9316 34.6518 19.9344C34.6529 19.9373 34.6546 19.9399 34.6567 19.942C34.6588 19.9442 34.6613 19.9459 34.6641 19.9471C34.6669 19.9483 34.6699 19.9489 34.673 19.9489L35.5116 19.9503C35.5587 19.9504 35.6054 19.9423 35.649 19.9265C35.6925 19.9106 35.7321 19.8874 35.7655 19.858C35.7989 19.8286 35.8254 19.7937 35.8435 19.7553C35.8616 19.7168 35.871 19.6756 35.8711 19.634V19.5873C35.8713 19.5032 35.8336 19.4225 35.7665 19.3629C35.6993 19.3033 35.6082 19.2697 35.513 19.2695L34.6744 19.2681C34.6685 19.2681 34.6628 19.2704 34.6586 19.2745C34.6544 19.2786 34.6519 19.2842 34.6517 19.29Z" fill="white"/>
<path d="M10.9727 20.778L11.3691 19.4851C11.3704 19.4799 11.3734 19.4752 11.3776 19.4719C11.3818 19.4686 11.387 19.4668 11.3924 19.4668C11.3978 19.4668 11.403 19.4686 11.4072 19.4719C11.4115 19.4752 11.4145 19.4799 11.4158 19.4851L11.8121 20.778C11.8132 20.7816 11.8134 20.7854 11.8128 20.7891C11.8122 20.7928 11.8107 20.7962 11.8085 20.7993C11.8063 20.8023 11.8035 20.8048 11.8002 20.8065C11.7968 20.8082 11.7932 20.8091 11.7894 20.8092H10.9954C10.9917 20.8091 10.988 20.8082 10.9847 20.8065C10.9814 20.8048 10.9785 20.8023 10.9763 20.7993C10.9741 20.7962 10.9726 20.7928 10.972 20.7891C10.9714 20.7854 10.9716 20.7816 10.9727 20.778Z" fill="#252525"/>
<circle cx="20" cy="20" r="19.5" stroke="black" stroke-opacity="0.05"/>
</svg>
