<svg width="40" height="40" viewBox="0 0 40 40" fill="none" xmlns="http://www.w3.org/2000/svg">
<circle cx="20" cy="20" r="20" fill="#F6F8FA"/>
<path d="M29.991 17.2705C30.0006 17.2545 30.0064 17.2365 30.008 17.2179C30.0096 17.1993 30.0069 17.1805 30.0002 17.1631L32.0629 17.6314C32.0736 17.6339 32.0847 17.6339 32.0953 17.6313C32.106 17.6288 32.1159 17.6237 32.1243 17.6166C32.191 17.562 32.2674 17.5204 32.3495 17.4939C32.3609 17.4902 32.3711 17.4832 32.3786 17.4739C32.3861 17.4645 32.3907 17.4531 32.3918 17.4411C32.4262 17.1077 32.4589 16.7642 32.49 16.4107C32.4956 16.3419 32.498 16.2769 32.4968 16.2149C32.4965 16.2053 32.4937 16.1959 32.4885 16.1878C32.4833 16.1797 32.476 16.1731 32.4673 16.1689C32.4035 16.1411 32.3484 16.0967 32.3077 16.0402C32.2671 15.9837 32.2425 15.9172 32.2366 15.8479C32.2304 15.7865 32.2605 15.7319 32.2593 15.673C32.2592 15.6648 32.2573 15.6568 32.2537 15.6495C32.25 15.6421 32.2448 15.6357 32.2384 15.6306L30.4973 14.1976C30.493 14.1939 30.4874 14.1918 30.4817 14.1918C30.4759 14.1918 30.4703 14.1939 30.466 14.1976C30.3336 14.3155 30.1639 14.3828 29.9867 14.3879C29.9682 14.387 29.9501 14.3935 29.9363 14.4059C29.9225 14.4183 29.9142 14.4356 29.913 14.4542L29.5804 16.639C29.5598 16.6213 29.5339 16.6109 29.5068 16.6095C29.5024 16.6098 29.498 16.609 29.494 16.6072C29.4899 16.6054 29.4864 16.6027 29.4836 16.5993C29.4809 16.5959 29.479 16.5918 29.4781 16.5875C29.4772 16.5832 29.4774 16.5788 29.4785 16.5745V16.5512L29.805 14.4229C29.806 14.4099 29.8028 14.397 29.796 14.386C29.7891 14.375 29.779 14.3664 29.767 14.3615C29.5988 14.309 29.4563 14.1957 29.3674 14.0436C29.3633 14.0366 29.3568 14.0314 29.3491 14.0289C29.3415 14.0264 29.3331 14.0269 29.3257 14.0301L27.2213 14.9236L27.1728 14.8218L29.2594 13.9349C29.2689 13.9328 29.2778 13.9285 29.2854 13.9226C29.2931 13.9166 29.2993 13.909 29.3037 13.9003C29.3081 13.8916 29.3105 13.8821 29.3108 13.8724C29.3111 13.8627 29.3093 13.853 29.3055 13.8441C29.274 13.7446 29.2717 13.6381 29.2987 13.5373C29.3013 13.5258 29.2998 13.5138 29.2944 13.5033C29.289 13.4929 29.2801 13.4847 29.2693 13.4802C28.0226 12.997 26.7653 12.506 25.4974 12.0073C25.4808 11.9997 25.4622 11.9975 25.4443 12.0012C25.4265 12.0048 25.4102 12.014 25.3979 12.0275C25.3821 12.0433 25.3717 12.0636 25.3681 12.0857C25.3646 12.1077 25.3682 12.1304 25.3783 12.1503L26.6781 14.6469C26.6707 14.6666 26.6562 14.6829 26.6376 14.6927C26.619 14.7025 26.5974 14.7052 26.5769 14.7003C26.1317 13.8615 25.6911 13.017 25.2549 12.1668C25.2365 12.1325 25.2169 12.1312 25.1936 12.1632C25.1859 12.1826 25.1832 12.2037 25.1856 12.2245C25.1819 12.8792 25.1786 13.5338 25.1758 14.1884L25.069 14.1669C25.069 13.5254 25.0665 12.8824 25.0616 12.238C25.0633 12.2183 25.0601 12.1984 25.0524 12.1801C25.0447 12.1618 25.0327 12.1457 25.0174 12.1331C25.0037 12.1236 24.9868 12.1197 24.9703 12.1222C24.9537 12.1247 24.9388 12.1334 24.9284 12.1466L23.539 13.9331C23.5191 13.9289 23.5009 13.9191 23.4864 13.9049C23.4719 13.8906 23.4619 13.8725 23.4574 13.8527C23.9099 13.2656 24.3628 12.6832 24.8161 12.1055C24.8281 12.0902 24.8368 12.0726 24.8419 12.0539C24.8457 12.0429 24.8463 12.031 24.8435 12.0197C24.8408 12.0083 24.8349 11.998 24.8266 11.9899C24.8182 11.9818 24.8077 11.9762 24.7963 11.9739C24.7849 11.9715 24.773 11.9725 24.7621 11.9766L19.4842 13.6471C19.4834 13.6101 19.4767 13.5734 19.4645 13.5385C21.1985 12.9861 22.9332 12.4361 24.6688 11.8882C24.7052 11.8812 24.7373 11.8603 24.7584 11.8299C24.7795 11.7995 24.7879 11.7621 24.7818 11.7256C24.78 11.7076 24.7733 11.6904 24.7625 11.6759C24.7517 11.6614 24.7371 11.6502 24.7204 11.6433L22.5491 10.8265C22.5393 10.8229 22.5285 10.8234 22.5191 10.8277C22.5096 10.8321 22.5023 10.84 22.4987 10.8498C22.4985 10.8512 22.4985 10.8527 22.4987 10.8541C22.4773 10.9482 22.4297 11.0343 22.3614 11.1025C22.2931 11.1706 22.2068 11.218 22.1126 11.2391C22.0185 11.2603 21.9202 11.2543 21.8293 11.2219C21.7384 11.1895 21.6586 11.1319 21.599 11.056C21.5925 11.0483 21.5831 11.0434 21.573 11.0425C21.5629 11.0416 21.5529 11.0447 21.545 11.0511C21.545 11.0511 21.545 11.0511 21.542 11.0542L19.3326 13.39C19.3037 13.39 19.278 13.363 19.2559 13.3139C19.9948 12.5197 20.7396 11.7295 21.4904 10.9431C21.5004 10.9331 21.5077 10.9206 21.5115 10.907C21.5152 10.8933 21.5154 10.8789 21.5119 10.8651C21.4849 10.7601 21.4921 10.6491 21.5324 10.5484C21.5727 10.4477 21.6439 10.3624 21.7359 10.3048C21.9429 10.1792 22.1538 10.2034 22.3686 10.3772C22.3759 10.3835 22.3844 10.3882 22.3936 10.3911C22.4028 10.3939 22.4125 10.3949 22.422 10.3938C22.4838 10.3891 22.5453 10.3807 22.6061 10.3686L26.6831 9.57081C26.6985 9.56754 26.7127 9.56009 26.7242 9.54926C26.7357 9.53843 26.7439 9.52466 26.7481 9.50944C26.9936 8.68583 28.1498 8.91536 28.0449 9.80709C28.0428 9.82247 28.0451 9.83813 28.0513 9.85232C28.0576 9.86651 28.0677 9.87868 28.0805 9.88749L32.4121 12.9849C32.42 12.9916 32.43 12.9953 32.4403 12.9953C32.4507 12.9953 32.4607 12.9916 32.4686 12.9849C32.6793 12.827 32.8932 12.8123 33.1105 12.9407C33.4026 13.1126 33.4112 13.5637 33.1522 13.7717C33.1191 13.7981 33.0866 13.8245 33.0553 13.8515C33.0472 13.8574 33.0413 13.8657 33.0383 13.8752C33.0353 13.8847 33.0355 13.8948 33.0387 13.9043C33.2723 14.7279 33.5031 15.5545 33.731 16.3843C33.7396 16.4191 33.7561 16.4514 33.779 16.479C33.802 16.5065 33.8309 16.5285 33.8635 16.5432C34.0728 16.6457 34.0243 16.928 33.8402 17.017C33.7574 17.0569 33.6794 17.0269 33.5947 17.0256C33.5726 17.0259 33.5511 17.0332 33.5334 17.0465L32.7797 17.6019C32.7656 17.6122 32.7551 17.6268 32.7498 17.6434C32.7445 17.6601 32.7447 17.678 32.7503 17.6946C32.954 18.3015 32.0316 18.4145 32.0604 17.7854C32.0618 17.7747 32.0589 17.7638 32.0524 17.7552C32.0458 17.7466 32.0362 17.7409 32.0255 17.7394L29.991 17.2705ZM22.5748 10.7037C23.3113 10.9922 24.0312 11.2561 24.7953 11.5439C24.8052 11.5477 24.8158 11.5493 24.8264 11.5485C24.837 11.5478 24.8473 11.5448 24.8566 11.5396C25.0272 11.4506 25.0972 11.3991 25.2961 11.4715C25.3055 11.4758 25.3162 11.4768 25.3263 11.4744C25.3364 11.4719 25.3454 11.4662 25.3519 11.458L26.7401 9.93904C26.7478 9.93099 26.7533 9.92119 26.7563 9.91049C26.7593 9.89979 26.7597 9.88853 26.7573 9.87767L26.7254 9.70092C26.7239 9.69386 26.7198 9.68763 26.7138 9.68352C26.7079 9.67941 26.7006 9.67773 26.6935 9.67883L22.5202 10.4951C22.5086 10.4973 22.498 10.5034 22.4903 10.5125C22.4826 10.5215 22.4782 10.5329 22.4779 10.5448C22.4713 10.579 22.4776 10.6144 22.4955 10.6443C22.5133 10.6742 22.5416 10.6964 22.5748 10.7068V10.7037ZM29.7074 13.0469C30.118 12.9002 30.5249 13.0837 30.6507 13.5066C30.6549 13.5194 30.6632 13.5305 30.6742 13.5381C30.6853 13.5458 30.6986 13.5496 30.7121 13.5489L32.2286 13.3789C32.2425 13.3773 32.2556 13.3718 32.2665 13.363C32.2774 13.3542 32.2855 13.3425 32.29 13.3292L32.3513 13.1451C32.3558 13.1311 32.3556 13.1161 32.351 13.1022C32.3464 13.0884 32.3375 13.0763 32.3256 13.0678L28.0179 9.99305C28.0106 9.98688 28.0013 9.98376 27.9918 9.98433C27.9823 9.9849 27.9734 9.98913 27.9669 9.99612C27.9286 10.0316 27.9 10.0764 27.8841 10.1262C27.881 10.1351 27.88 10.1447 27.8812 10.154C27.8823 10.1634 27.8856 10.1724 27.8908 10.1802L29.6332 13.0211C29.636 13.028 29.6403 13.0342 29.6456 13.0394C29.6509 13.0446 29.6572 13.0487 29.6642 13.0514C29.6711 13.0541 29.6785 13.0553 29.686 13.0551C29.6934 13.0548 29.7007 13.0531 29.7074 13.05V13.0469ZM27.7313 10.2293C27.441 10.392 27.0605 10.3423 26.8629 10.0618C26.8595 10.0571 26.8553 10.0531 26.8503 10.05C26.8454 10.047 26.84 10.0449 26.8342 10.044C26.8285 10.0431 26.8227 10.0433 26.8171 10.0447C26.8115 10.0461 26.8062 10.0485 26.8015 10.052C26.799 10.0535 26.7967 10.0553 26.7947 10.0575L25.4489 11.5304C25.4402 11.5394 25.4344 11.5509 25.4324 11.5633C25.4305 11.5757 25.4323 11.5885 25.4378 11.5998C25.4731 11.6777 25.4899 11.7628 25.4869 11.8483C25.4867 11.856 25.4889 11.8636 25.4932 11.87C25.4975 11.8763 25.5036 11.8812 25.5109 11.8839L29.2999 13.3568C29.3086 13.3609 29.3184 13.362 29.3277 13.3599C29.3371 13.3578 29.3454 13.3526 29.3515 13.3452L29.5387 13.1402C29.5441 13.1341 29.5475 13.1263 29.5482 13.1182C29.549 13.11 29.5472 13.1018 29.543 13.0948L27.7834 10.2392C27.777 10.232 27.7682 10.2274 27.7586 10.2262C27.749 10.2249 27.7394 10.2271 27.7313 10.2324V10.2293ZM30.5832 14.1129L32.2955 15.5122C32.3056 15.5216 32.3184 15.5275 32.332 15.5292C32.3457 15.5309 32.3596 15.5281 32.3716 15.5214L32.5293 15.4453C32.543 15.4388 32.5547 15.4289 32.5634 15.4166C32.5722 15.4042 32.5775 15.3898 32.579 15.3747L32.7153 13.9386C32.7167 13.9226 32.7127 13.9066 32.7039 13.8931C32.6951 13.8797 32.682 13.8695 32.6668 13.8644C32.5985 13.8454 32.5351 13.8116 32.4813 13.7655C32.4274 13.7194 32.3843 13.662 32.355 13.5974C32.3429 13.5681 32.3274 13.5403 32.309 13.5146C32.3033 13.5059 32.2952 13.4991 32.2858 13.4948C32.2763 13.4906 32.2659 13.4891 32.2556 13.4906L30.717 13.6692C30.706 13.6705 30.6957 13.6756 30.6881 13.6837C30.6805 13.6918 30.6759 13.7023 30.6753 13.7134C30.6701 13.8361 30.6351 13.9558 30.5734 14.062C30.5704 14.0661 30.5683 14.0709 30.5671 14.0759C30.566 14.0809 30.5659 14.086 30.5668 14.0911C30.5677 14.0961 30.5696 14.1009 30.5725 14.1052C30.5753 14.1095 30.5789 14.1132 30.5832 14.116V14.1129ZM32.7196 15.4398C32.9826 15.5625 33.06 15.7567 32.9515 16.0222C32.9484 16.03 32.9478 16.0387 32.9499 16.0468C32.952 16.055 32.9566 16.0623 32.9632 16.0676L33.5426 16.5304C33.5476 16.5346 33.5535 16.5378 33.5598 16.5398C33.5661 16.5417 33.5727 16.5424 33.5793 16.5418C33.5858 16.5411 33.5922 16.5392 33.598 16.5361C33.6038 16.533 33.609 16.5287 33.6131 16.5236C33.6182 16.5173 33.6217 16.51 33.6236 16.5021C33.6297 16.4769 33.6297 16.4506 33.6236 16.4254C33.3683 15.5134 33.1391 14.6902 32.9362 13.9558V13.9472C32.9166 13.9024 32.8951 13.8828 32.8712 13.8859C32.86 13.8882 32.85 13.8941 32.8427 13.9028C32.8353 13.9115 32.8311 13.9224 32.8306 13.9337L32.7005 15.3962C32.6979 15.4045 32.6984 15.4135 32.7019 15.4216C32.7054 15.4296 32.7117 15.436 32.7196 15.4398ZM32.8067 16.1523L32.6576 16.1996C32.6464 16.2024 32.6365 16.2087 32.6293 16.2177C32.6221 16.2267 32.618 16.2378 32.6177 16.2493L32.5091 17.4497C32.5072 17.471 32.5137 17.4922 32.5272 17.5087C32.5408 17.5252 32.5602 17.5358 32.5815 17.5381C32.6248 17.5445 32.6688 17.5337 32.7042 17.508C32.9522 17.3288 33.2026 17.1435 33.4554 16.952C33.4646 16.9457 33.4715 16.9367 33.4754 16.9262C33.4792 16.9158 33.4797 16.9044 33.4769 16.8937C33.4608 16.8222 33.4562 16.7487 33.4634 16.6758C33.4644 16.6633 33.4624 16.6507 33.4576 16.639C33.4528 16.6274 33.4453 16.6171 33.4358 16.6089L32.908 16.1762C32.8945 16.164 32.8781 16.1555 32.8603 16.1515C32.8426 16.1475 32.8241 16.1482 32.8067 16.1535V16.1523Z" fill="#0382C0"/>
<path d="M19.255 13.3138C19.2771 13.3629 19.3029 13.3881 19.3317 13.3899C19.3084 13.5045 19.354 13.554 19.4686 13.5384C19.4808 13.5734 19.4875 13.61 19.4882 13.6471C19.4613 13.6604 19.4402 13.6831 19.4289 13.7109C19.4176 13.7387 19.4169 13.7697 19.4269 13.798C19.4299 13.8132 19.4373 13.8271 19.4482 13.8381C19.4592 13.849 19.4731 13.8564 19.4882 13.8594L21.8615 14.3964C21.8697 14.3983 21.8783 14.3972 21.8857 14.3932C21.8932 14.3893 21.899 14.3828 21.902 14.3749C22.115 13.8226 22.6998 13.5255 23.2638 13.7698C23.3289 13.7987 23.3946 13.8257 23.4602 13.8502C23.4647 13.87 23.4748 13.8881 23.4893 13.9024C23.5037 13.9166 23.522 13.9264 23.5418 13.9306C23.751 14.1233 23.8764 14.3904 23.891 14.6744C23.8907 14.6805 23.8916 14.6867 23.8938 14.6924C23.8959 14.6981 23.8992 14.7033 23.9035 14.7077C23.9078 14.7121 23.9129 14.7156 23.9186 14.7179C23.9243 14.7202 23.9303 14.7212 23.9365 14.7211L24.4526 14.7696C24.4576 14.7704 24.4628 14.7703 24.4678 14.7692C24.4728 14.768 24.4775 14.7659 24.4817 14.763C24.4858 14.76 24.4894 14.7562 24.4921 14.7519C24.4948 14.7475 24.4966 14.7427 24.4974 14.7376C24.5232 14.6081 24.5882 14.4896 24.6836 14.3983C24.779 14.3069 24.9002 14.2472 25.0307 14.227C25.0396 14.2255 25.0479 14.2216 25.0546 14.2156C25.0613 14.2097 25.0662 14.2019 25.0688 14.1933C25.0719 14.184 25.073 14.1742 25.0718 14.1644L25.1786 14.1859C25.1873 14.2023 25.2017 14.215 25.2191 14.2215C25.5579 14.2976 25.7451 14.5091 25.7807 14.8561C25.7817 14.8662 25.7862 14.8757 25.7935 14.8827C25.8008 14.8898 25.8104 14.8941 25.8206 14.8948L26.4042 14.9383C26.414 14.9396 26.424 14.9385 26.4333 14.9351C26.4426 14.9316 26.451 14.926 26.4576 14.9187C26.5209 14.861 26.5621 14.7831 26.5742 14.6984C26.5947 14.7033 26.6163 14.7006 26.6349 14.6908C26.6536 14.681 26.668 14.6647 26.6755 14.645C26.6812 14.654 26.6889 14.6616 26.6981 14.6672C26.7072 14.6727 26.7176 14.676 26.7283 14.6769C26.8885 14.6783 27.0448 14.727 27.1775 14.8168L27.226 14.9187C27.165 14.9968 27.135 15.0947 27.1419 15.1936C27.1414 15.2035 27.1434 15.2134 27.1475 15.2223C27.1517 15.2313 27.158 15.2392 27.1658 15.2452L29.0389 16.7672C29.0457 16.7727 29.0541 16.7757 29.0628 16.7757C29.0715 16.7757 29.08 16.7727 29.0868 16.7672C29.1862 16.691 29.3071 16.648 29.4323 16.6445C29.4418 16.6444 29.451 16.6413 29.4585 16.6355C29.466 16.6297 29.4715 16.6217 29.474 16.6125C29.4803 16.5927 29.4834 16.572 29.4832 16.5512V16.5745C29.482 16.5787 29.4819 16.5832 29.4828 16.5875C29.4837 16.5918 29.4856 16.5958 29.4883 16.5992C29.4911 16.6027 29.4946 16.6054 29.4987 16.6072C29.5027 16.6089 29.5071 16.6097 29.5115 16.6095C29.5386 16.6109 29.5645 16.6212 29.5851 16.6389C29.695 16.6817 29.7916 16.7529 29.865 16.8452C29.9384 16.9375 29.986 17.0476 30.003 17.1643C30.0098 17.1817 30.0125 17.2004 30.0109 17.219C30.0093 17.2377 30.0034 17.2557 29.9938 17.2717C29.9563 17.4219 29.8633 17.5523 29.7336 17.6368C29.4489 17.8142 29.1125 17.6982 28.9603 17.4085C28.9545 17.398 28.9452 17.3898 28.934 17.3853C28.9229 17.3808 28.9105 17.3804 28.899 17.384L25.5511 18.5789C25.5371 18.5839 25.5247 18.5928 25.5155 18.6045C25.5063 18.6162 25.5005 18.6303 25.499 18.6452C25.4701 18.9293 25.2737 19.0422 25.008 18.9882C24.9967 18.9858 24.985 18.9865 24.9741 18.9905C24.9633 18.9944 24.9538 19.0013 24.9466 19.0103L23.2779 21.186C23.2511 21.2203 23.2177 21.2491 23.1797 21.2707L21.9523 21.9519C21.933 21.9204 21.909 21.8921 21.8811 21.8678L23.1024 21.1927C23.1123 21.1873 23.1196 21.1782 23.1229 21.1674C23.1262 21.1567 23.1253 21.1451 23.1202 21.135L22.261 19.451C22.3543 19.4424 22.3838 19.427 22.3506 19.4043L23.2098 21.0436C23.2113 21.0464 23.2133 21.049 23.2158 21.0511C23.2183 21.0531 23.2212 21.0547 23.2242 21.0557C23.2273 21.0566 23.2305 21.057 23.2338 21.0567C23.237 21.0564 23.2401 21.0555 23.243 21.054C23.246 21.0523 23.2487 21.05 23.2509 21.0473L24.827 18.9913C24.8519 18.9588 24.8629 18.9178 24.8576 18.8771C24.8524 18.8365 24.8312 18.7997 24.7987 18.7747C24.7692 18.7517 24.7324 18.7402 24.695 18.7421L22.6777 18.8575C22.687 18.821 22.6851 18.7825 22.6722 18.747L24.7061 18.6347C24.7223 18.6348 24.7381 18.6294 24.7509 18.6194C24.7637 18.6093 24.7728 18.5953 24.7766 18.5795C24.7979 18.5135 24.8296 18.4513 24.8705 18.3954C24.8786 18.3854 24.8833 18.3732 24.8841 18.3605C24.8849 18.3477 24.8816 18.335 24.8748 18.3242L23.3528 15.6576C23.3453 15.645 23.3334 15.6355 23.3194 15.6309C23.3055 15.6263 23.2903 15.6268 23.2767 15.6324C23.1204 15.7027 22.9482 15.73 22.7778 15.7116C22.7614 15.7097 22.7449 15.714 22.7315 15.7237C22.7181 15.7333 22.7088 15.7476 22.7053 15.7638L22.1984 18.1622C22.183 18.1537 22.1657 18.1493 22.1481 18.1493C22.1305 18.1493 22.1132 18.1537 22.0978 18.1622L22.6004 15.727C22.6024 15.7168 22.6008 15.7063 22.5959 15.6972C22.591 15.6881 22.583 15.6811 22.5734 15.6772C22.0566 15.4768 21.8204 15.103 21.8646 14.556C21.8654 14.5511 21.8653 14.5462 21.8643 14.5414C21.8632 14.5366 21.8611 14.532 21.8583 14.528C21.8554 14.524 21.8518 14.5206 21.8476 14.518C21.8434 14.5155 21.8387 14.5138 21.8339 14.513L19.4453 13.9607C19.4354 13.9576 19.4248 13.9584 19.4155 13.9628C19.4061 13.9673 19.3988 13.975 19.395 13.9846C19.3594 14.0578 19.309 14.1228 19.2471 14.1755C19.238 14.1826 19.232 14.1929 19.2303 14.2043C19.2286 14.2157 19.2313 14.2274 19.2379 14.2368L21.6639 18.1873C21.646 18.1848 21.6278 18.1865 21.6107 18.1921C21.5936 18.1977 21.5779 18.2072 21.5651 18.2199C20.7521 16.9192 19.9522 15.621 19.1654 14.3252C19.1554 14.305 19.1395 14.2883 19.1198 14.2773C19.1 14.2663 19.0774 14.2616 19.055 14.2639C19.0494 14.2644 19.044 14.266 19.039 14.2687C19.0341 14.2713 19.0297 14.2749 19.0262 14.2792C19.0227 14.2836 19.02 14.2886 19.0184 14.2939C19.0168 14.2993 19.0163 14.3049 19.0169 14.3105L19.2078 15.6128C19.1743 15.6242 19.1383 15.6256 19.1041 15.6171L18.9138 14.335C18.9126 14.3237 18.9079 14.313 18.9005 14.3043C18.893 14.2957 18.8831 14.2895 18.8721 14.2866C18.7855 14.2693 18.7025 14.2376 18.6266 14.1927C18.1178 13.8287 18.5707 13.0407 19.1679 13.3298C19.1751 13.3335 19.183 13.3357 19.1911 13.3364C19.1993 13.337 19.2074 13.336 19.2151 13.3335C19.2297 13.3297 19.2432 13.323 19.255 13.3138ZM23.872 14.8745C23.8504 15.0038 23.8033 15.1275 23.7336 15.2386C23.6638 15.3496 23.5728 15.4457 23.4657 15.5214C23.4541 15.5297 23.446 15.542 23.4431 15.556C23.4401 15.57 23.4425 15.5845 23.4498 15.5968L24.9423 18.2119C25.0172 18.3444 25.0602 18.3346 25.07 18.1818C25.07 18.1339 25.0743 18.0873 25.0743 18.0419C25.0743 17.0919 25.0729 16.2629 25.07 15.5551C25.0698 15.5445 25.0662 15.5343 25.0596 15.526C25.0531 15.5177 25.044 15.5118 25.0338 15.5091C24.7065 15.4305 24.5258 15.2358 24.4919 14.9248C24.4908 14.9152 24.4864 14.9062 24.4795 14.8994C24.4726 14.8925 24.4635 14.8883 24.4538 14.8874L23.9254 14.834C23.913 14.8327 23.9006 14.8362 23.8907 14.8437C23.8808 14.8512 23.8741 14.8622 23.872 14.8745ZM25.7598 15.0341C25.6616 15.2924 25.5008 15.4581 25.2253 15.5017C25.213 15.5037 25.2019 15.51 25.1938 15.5194C25.1857 15.5289 25.1812 15.5408 25.1811 15.5533L25.178 18.1806C25.178 18.334 25.2099 18.3414 25.275 18.2021L26.5908 15.3734C26.5952 15.3624 26.5964 15.3504 26.5941 15.3387C26.5918 15.3271 26.5862 15.3163 26.5779 15.3078C26.5173 15.2516 26.4746 15.1788 26.4552 15.0985C26.4515 15.0848 26.4436 15.0727 26.4325 15.0639C26.4215 15.055 26.4079 15.05 26.3938 15.0494L25.7997 15.0064C25.7909 15.006 25.7823 15.0085 25.7751 15.0135C25.7679 15.0185 25.7625 15.0257 25.7598 15.0341ZM25.5438 18.4611L28.8664 17.2704C28.8784 17.267 28.8889 17.2597 28.8963 17.2497C28.9037 17.2398 28.9077 17.2276 28.9076 17.2152C28.9118 17.1132 28.9315 17.0125 28.9659 16.9163C28.9707 16.9049 28.9715 16.8922 28.9682 16.8803C28.9648 16.8683 28.9575 16.8579 28.9475 16.8507L27.0922 15.3372C27.0811 15.3286 27.0675 15.3236 27.0534 15.3231C27.0393 15.3225 27.0254 15.3264 27.0136 15.3342C26.946 15.3787 26.8641 15.3962 26.7841 15.3833C26.7649 15.381 26.7454 15.3848 26.7285 15.3942C26.7115 15.4035 26.6979 15.418 26.6896 15.4354L25.3683 18.2684C25.3564 18.2936 25.3524 18.3218 25.3565 18.3494C25.3607 18.3769 25.373 18.4026 25.3917 18.4232C25.4105 18.4439 25.435 18.4585 25.462 18.4652C25.4891 18.4719 25.5175 18.4705 25.5438 18.4611Z" fill="#02A0D7"/>
<path d="M19.1022 15.6178C19.1365 15.6264 19.1725 15.6249 19.206 15.6135C19.2139 15.6534 19.2293 15.6749 19.2526 15.6749C19.4791 15.6816 19.6822 15.7645 19.8013 15.9603C19.9719 16.2352 19.9117 16.4825 19.7577 16.744C19.7509 16.7532 19.7478 16.7646 19.749 16.776C19.7503 16.7874 19.7558 16.7979 19.7644 16.8054L21.3773 18.5446C21.38 18.5474 21.3833 18.5496 21.3869 18.551C21.3904 18.5525 21.3943 18.5533 21.3982 18.5533C21.402 18.5533 21.4059 18.5525 21.4095 18.551C21.413 18.5496 21.4163 18.5474 21.419 18.5446C21.5696 18.3973 21.6162 18.2895 21.559 18.2212C21.5718 18.2086 21.5874 18.1991 21.6046 18.1934C21.6217 18.1878 21.6399 18.1862 21.6578 18.1887C21.7449 18.25 21.8891 18.2433 22.0917 18.1629C22.1071 18.1545 22.1244 18.15 22.142 18.15C22.1596 18.15 22.1769 18.1545 22.1923 18.1629V18.1881C22.1923 18.1975 22.1952 18.2066 22.2007 18.2143C22.2062 18.2219 22.214 18.2275 22.223 18.2304C22.3089 18.2622 22.387 18.3121 22.452 18.3767C22.517 18.4413 22.5674 18.5191 22.5998 18.6048C22.6155 18.6558 22.6391 18.7041 22.6698 18.7478C22.6827 18.7832 22.6846 18.8217 22.6753 18.8582C22.6642 18.8628 22.6545 18.8703 22.6472 18.8799C22.64 18.8895 22.6355 18.9009 22.6342 18.9129C22.6207 19.0096 22.5883 19.1028 22.5388 19.187C22.4893 19.2713 22.4237 19.345 22.3457 19.4038C22.3795 19.4265 22.3494 19.4419 22.2561 19.4505L21.9658 19.4848C21.9524 19.4865 21.9398 19.4922 21.9298 19.5014C21.9198 19.5105 21.9128 19.5225 21.91 19.5358L21.4841 21.4997C21.4818 21.5082 21.482 21.5173 21.4849 21.5257C21.4877 21.5341 21.493 21.5415 21.5 21.5469L21.875 21.8685C21.9029 21.8928 21.9269 21.9211 21.9462 21.9526L21.9339 21.9747C21.9305 21.9807 21.9282 21.9873 21.9274 21.9941C21.9265 22.001 21.9271 22.008 21.929 22.0146C22.0137 22.3272 21.9618 22.5851 21.7731 22.7885C21.6945 22.8746 21.5972 22.9415 21.4886 22.9841C21.3801 23.0266 21.2632 23.0437 21.147 23.0339C21.0308 23.0242 20.9184 22.9879 20.8185 22.9278C20.7185 22.8678 20.6337 22.7856 20.5705 22.6876C20.5073 22.5896 20.4675 22.4784 20.4541 22.3625C20.4407 22.2467 20.4541 22.1293 20.4932 22.0195C20.5323 21.9096 20.5961 21.8103 20.6797 21.729C20.7633 21.6477 20.8644 21.5867 20.9753 21.5506C21.0915 21.5222 21.2111 21.5105 21.3307 21.5156C21.3427 21.5159 21.3544 21.5117 21.3636 21.5039C21.3727 21.4961 21.3787 21.4852 21.3804 21.4733L21.81 19.5131C21.8133 19.4975 21.8109 19.4812 21.8034 19.4672C21.7959 19.4532 21.7836 19.4422 21.7688 19.4364C21.645 19.3933 21.5385 19.3111 21.4655 19.2022C21.3925 19.0932 21.357 18.9634 21.3644 18.8325C21.3673 18.794 21.3621 18.7553 21.3491 18.7189C21.336 18.6825 21.3156 18.6493 21.2889 18.6213C20.7043 17.9892 20.1681 17.4031 19.6804 16.8631C19.6729 16.8545 19.6626 16.8488 19.6514 16.8472C19.6401 16.8455 19.6287 16.8478 19.619 16.8538C18.7598 17.354 18.159 16.0517 19.0556 15.7013C19.0641 15.698 19.0718 15.6929 19.0782 15.6865C19.0847 15.68 19.0897 15.6723 19.093 15.6639C19.1007 15.6498 19.1039 15.6337 19.1022 15.6178Z" fill="#23BAE8"/>
<path d="M7.62184 23.067C7.19346 23.067 6.79066 23.067 6.41343 23.067C6.09716 23.067 5.96235 22.9097 6.00899 22.5951C6.0319 22.4372 6.063 22.2627 6.10228 22.0716C6.10413 22.0624 6.10912 22.0541 6.11639 22.0482C6.12367 22.0422 6.13278 22.039 6.14217 22.0391C7.61509 22.0415 9.09128 22.0415 10.5707 22.0391C10.8641 22.0391 10.9678 22.2631 10.9199 22.53C10.8893 22.7043 10.8588 22.8706 10.8285 23.029C10.8273 23.0392 10.8221 23.0486 10.8141 23.0552C10.8061 23.0617 10.7958 23.0648 10.7855 23.064H9.10028C9.09214 23.0638 9.08421 23.0666 9.07791 23.0718C9.07162 23.0769 9.06737 23.0842 9.06591 23.0922C8.82534 24.4583 8.58824 25.8054 8.35462 27.1335C8.33475 27.2558 8.27117 27.3668 8.17569 27.4458C8.0802 27.5248 7.9593 27.5665 7.83541 27.5631C7.53633 27.5631 7.22947 27.5631 6.91484 27.5631C6.88722 27.5631 6.87556 27.5496 6.88047 27.522L7.66112 23.1112C7.66603 23.083 7.65314 23.067 7.62184 23.067Z" fill="#004592"/>
<path d="M28.8251 23.3143C28.8313 23.2799 28.8251 23.2781 28.8092 23.3088L26.4942 27.5434C26.4901 27.5509 26.4841 27.5572 26.4767 27.5616C26.4694 27.566 26.461 27.5684 26.4525 27.5686H25.3478C25.3436 27.5686 25.3396 27.5671 25.3364 27.5644C25.3333 27.5617 25.3312 27.558 25.3306 27.5538C25.0274 26.1529 24.7449 24.7451 24.4831 23.3302C24.4714 23.2689 24.4604 23.2689 24.4493 23.3302L23.7055 27.552C23.7046 27.5565 23.7022 27.5606 23.6986 27.5636C23.695 27.5665 23.6905 27.568 23.6859 27.568H22.475C22.4672 27.568 22.4597 27.5649 22.4542 27.5593C22.4486 27.5538 22.4455 27.5463 22.4455 27.5385C22.4452 27.5369 22.4452 27.5352 22.4455 27.5336L23.4121 22.0586C23.413 22.0536 23.4157 22.049 23.4196 22.0458C23.4235 22.0425 23.4285 22.0408 23.4336 22.0408H25.4374C25.4423 22.0409 25.4469 22.0426 25.4506 22.0458C25.4543 22.0489 25.4568 22.0532 25.4577 22.058C25.715 23.3198 25.9558 24.5745 26.18 25.8219C26.1929 25.8913 26.188 25.9649 26.1984 26.0343C26.2054 26.0785 26.2195 26.0809 26.2408 26.0416L28.4207 22.0715C28.4256 22.0619 28.4332 22.0539 28.4426 22.0484C28.4519 22.043 28.4626 22.0403 28.4735 22.0408H30.3975C30.4013 22.0409 30.4051 22.0417 30.4087 22.0433C30.4122 22.0449 30.4154 22.0471 30.4181 22.0499C30.4208 22.0527 30.4229 22.056 30.4243 22.0596C30.4257 22.0632 30.4264 22.067 30.4263 22.0709V22.0752L29.4634 27.5299C29.4615 27.5414 29.4556 27.5518 29.4467 27.5594C29.4378 27.5669 29.4265 27.571 29.4149 27.571H28.1206C28.1154 27.571 28.1102 27.57 28.1054 27.568C28.1006 27.566 28.0962 27.563 28.0926 27.5593C28.0889 27.5556 28.086 27.5512 28.0841 27.5464C28.0822 27.5415 28.0812 27.5363 28.0813 27.5311C28.081 27.5289 28.081 27.5266 28.0813 27.5244L28.8251 23.3143Z" fill="#004592"/>
<path d="M16.761 26.2645C16.761 26.2995 16.7708 26.3007 16.7837 26.2682C17.2821 24.9843 17.8064 23.6607 18.3567 22.2974C18.4334 22.1065 18.6525 22.0354 18.8593 22.0384C19.2067 22.0437 19.5272 22.0437 19.821 22.0384C19.8566 22.0384 19.867 22.0538 19.8523 22.0869C19.0275 23.8385 18.2174 25.5601 17.422 27.2519C17.3795 27.3503 17.3079 27.4334 17.2169 27.49C17.1258 27.5466 17.0197 27.574 16.9126 27.5686C16.5137 27.5686 16.1303 27.5686 15.7625 27.5686C15.7574 27.5694 15.7522 27.5691 15.7473 27.5677C15.7423 27.5663 15.7377 27.5638 15.7339 27.5604C15.73 27.557 15.7269 27.5527 15.7249 27.548C15.7228 27.5433 15.7218 27.5382 15.722 27.533C15.5669 26.119 15.4372 24.7756 15.3329 23.5028C15.3329 23.4948 15.3329 23.4942 15.3274 23.5028C14.8094 24.6938 14.2053 26.0386 13.5151 27.5373C13.5112 27.5474 13.5042 27.5559 13.4952 27.5618C13.4862 27.5676 13.4755 27.5704 13.4647 27.5698H12.2987C12.0679 27.5698 11.939 27.4553 11.912 27.2262C11.705 25.4709 11.5023 23.7525 11.3038 22.0709C11.3031 22.0641 11.3051 22.0573 11.3094 22.0519C11.3136 22.0465 11.3198 22.043 11.3266 22.0421H11.3296L12.3644 22.0452C12.5972 22.0452 12.7183 22.1464 12.7277 22.349C12.7907 23.6697 12.8471 24.9697 12.8971 26.2491C12.8971 26.2909 12.9075 26.2927 12.9241 26.254C13.4838 24.9448 14.0519 23.6408 14.6284 22.3422C14.7315 22.1096 14.9002 22.0415 15.1426 22.0409C15.571 22.0409 15.9034 22.0446 16.1399 22.0519C16.3204 22.0581 16.4188 22.1524 16.4351 22.3348C16.5546 23.6453 16.6632 24.9552 16.761 26.2645Z" fill="#004592"/>
<path d="M21.1376 27.1263C21.1168 27.2536 21.0502 27.3689 20.9505 27.4507C20.8507 27.5325 20.7246 27.5751 20.5957 27.5706C20.2765 27.5681 19.9783 27.5681 19.7009 27.5706C19.6739 27.5706 19.6622 27.5583 19.6671 27.5313C19.8643 26.4131 20.0707 25.2471 20.2864 24.0331C20.341 23.7226 20.5644 23.5643 20.8724 23.571C21.1805 23.5778 21.4678 23.5778 21.7427 23.571C21.7481 23.571 21.7532 23.5731 21.757 23.5769C21.7608 23.5807 21.763 23.5859 21.763 23.5913V23.5949C21.542 24.8371 21.3336 26.0142 21.1376 27.1263Z" fill="#004592"/>
<circle cx="20" cy="20" r="19.5" stroke="black" stroke-opacity="0.05"/>
</svg>
