<svg width="40" height="40" viewBox="0 0 40 40" fill="none" xmlns="http://www.w3.org/2000/svg">
<circle cx="20" cy="20" r="20" fill="#194192"/>
<g clip-path="url(#clip0_24563_41704)">
<path d="M5.35328 20.9401H3.02312C3.02312 20.9401 2.99374 20.9557 2.99374 20.9712V22.4376C2.99374 22.4376 2.97906 22.4686 2.96437 22.4686H2.02937C2.02937 22.4686 2 22.4531 2 22.4376V18.5101C2 18.5101 2.01469 18.479 2.02937 18.479H2.95948C2.95948 18.479 2.98885 18.4945 2.98885 18.5101V20.023C2.98885 20.023 3.00354 20.0541 3.01822 20.0541H5.34838C5.34838 20.0541 5.37775 20.0386 5.37775 20.023V18.5101C5.37775 18.5101 5.39244 18.479 5.40713 18.479H6.33723C6.33723 18.479 6.3666 18.4945 6.3666 18.5101V22.4324C6.3666 22.4324 6.35192 22.4635 6.33723 22.4635H5.40713C5.40713 22.4635 5.37775 22.4479 5.37775 22.4324V20.9712C5.37775 20.9712 5.36307 20.9401 5.34838 20.9401H5.35328Z" fill="white"/>
<path d="M8.04546 21.1264C8.04546 21.3647 8.19721 21.629 8.44197 21.629C8.97556 21.629 9.49936 21.629 10.0036 21.629C10.3609 21.629 10.4588 21.3077 10.4539 20.9917C10.449 20.1367 10.449 19.3181 10.4539 18.5305C10.4539 18.4994 10.4686 18.4839 10.5029 18.4839H11.3987C11.433 18.4839 11.4477 18.4994 11.4477 18.5357V21.344C11.4477 22.0797 10.9777 22.4839 10.3267 22.4735C9.56789 22.4632 8.85807 22.4632 8.207 22.4735C7.51676 22.4839 7.07129 21.9347 7.0615 21.2093C7.05171 20.458 7.04682 19.5616 7.05661 18.5305C7.05661 18.4994 7.07129 18.4839 7.10066 18.4839H7.9965C8.02098 18.4839 8.04546 18.5046 8.04546 18.5357C8.04546 19.4165 8.04546 20.2766 8.04546 21.1264Z" fill="white"/>
<path d="M13.1809 19.6601C13.1417 19.6704 13.1173 19.7067 13.1173 19.7481V22.4165C13.1173 22.4165 13.0977 22.4632 13.0732 22.4632H12.1823C12.1529 22.4632 12.1284 22.4373 12.1284 22.401V18.5253C12.1284 18.5253 12.148 18.4839 12.1676 18.4839C12.6033 18.4839 13.0145 18.4839 13.4012 18.4839C13.8173 18.4891 14.0718 18.7792 14.2628 19.1316C14.6642 19.8569 15.0509 20.5461 15.4327 21.1989C15.4866 21.2974 15.5649 21.344 15.6677 21.344C15.7314 21.344 15.7803 21.2922 15.7803 21.2248V18.5305C15.7803 18.4994 15.795 18.4839 15.8244 18.4839H16.7251C16.7545 18.4839 16.7692 18.4994 16.7692 18.5305V22.4165C16.7692 22.4528 16.7496 22.4735 16.7153 22.4735C16.2992 22.4683 15.8782 22.4683 15.4474 22.4735C15.1488 22.4735 14.9187 22.344 14.7621 22.0746C14.3803 21.4217 13.9593 20.6808 13.4942 19.8518C13.4306 19.743 13.3131 19.629 13.1858 19.6652L13.1809 19.6601Z" fill="white"/>
<path d="M18.4334 20.9971C18.3796 21.4272 18.5607 21.6396 18.9719 21.6344C19.7649 21.6292 20.5286 21.6241 21.258 21.6344C21.2825 21.6344 21.2972 21.65 21.2972 21.6759V22.4272C21.2972 22.4531 21.2825 22.4686 21.258 22.4686C20.4209 22.4686 19.53 22.4686 18.595 22.4686C17.939 22.4686 17.4935 21.9919 17.4592 21.2924C17.4397 20.852 17.4348 20.3598 17.4495 19.8261C17.4739 18.7173 18.1886 18.4582 19.109 18.4738C19.8775 18.4842 20.5971 18.4842 21.2678 18.4738C21.2874 18.4738 21.2972 18.4842 21.2972 18.5049V19.3339C21.2972 19.3339 21.2874 19.3598 21.2727 19.3598C20.5286 19.3598 19.7405 19.3598 18.9083 19.3598C18.5509 19.3598 18.3991 19.6085 18.4432 19.9971C18.4432 20.0334 18.4677 20.0489 18.5019 20.0489H21.258C21.2874 20.0489 21.3021 20.0645 21.3021 20.0956V20.8831C21.3021 20.9142 21.2874 20.9298 21.258 20.9298H18.5068C18.4677 20.9298 18.4481 20.9505 18.4432 20.9867L18.4334 20.9971Z" fill="white"/>
<path d="M25.37 21.3595C25.4092 21.1108 25.2917 20.945 25.0567 20.9398C24.3861 20.9398 23.7448 20.9398 23.1476 20.9398C22.9664 20.9398 22.7657 20.8932 22.5405 20.7948C21.9923 20.5564 21.9237 20.002 21.9825 19.4373C22.0559 18.7585 22.5993 18.4891 23.172 18.4839C24.249 18.4839 25.3064 18.4839 26.3442 18.4839C26.3589 18.4839 26.3687 18.4942 26.3687 18.5098V19.344C26.3687 19.344 26.3589 19.3699 26.3442 19.3699H23.2552C23.079 19.3699 22.9811 19.4632 22.9615 19.6497C22.9322 19.9088 23.0203 20.0642 23.2846 20.0642C23.921 20.0642 24.5378 20.0642 25.1448 20.0642C25.6735 20.0642 26.2022 20.2922 26.3246 20.8932C26.5008 21.7637 26.1728 22.4839 25.2525 22.4787C24.0679 22.4683 22.9811 22.4683 21.9923 22.4787C21.9727 22.4787 21.9629 22.4683 21.9629 22.4476V21.6652C21.9629 21.6652 21.9727 21.6393 21.9874 21.6393H25.0616C25.2329 21.6393 25.3357 21.5512 25.3651 21.3699L25.37 21.3595Z" fill="white"/>
<path d="M27.8277 18.479H26.8927C26.8764 18.479 26.8633 18.4929 26.8633 18.5101V22.4324C26.8633 22.4495 26.8764 22.4635 26.8927 22.4635H27.8277C27.8439 22.4635 27.857 22.4495 27.857 22.4324V18.5101C27.857 18.4929 27.8439 18.479 27.8277 18.479Z" fill="white"/>
<path d="M28.3759 19.7533C28.371 18.9554 28.9536 18.5046 29.6585 18.4891C30.1676 18.4787 30.7159 18.4787 31.318 18.4839C31.6607 18.4839 32.0964 18.5616 32.3411 18.7999C32.6055 19.0642 32.7425 19.3699 32.7425 19.7222C32.7425 20.1626 32.7474 20.66 32.7572 21.2248C32.7572 21.5564 32.7181 21.7948 32.6299 21.9502C32.4194 22.3129 32.0425 22.4787 31.6509 22.4735C30.9802 22.4683 30.29 22.4683 29.5851 22.4735C28.7186 22.4839 28.3563 21.8569 28.371 21.0176C28.3808 20.5616 28.3808 20.1367 28.3759 19.7533ZM31.7537 19.8207C31.7537 19.5668 31.5579 19.3647 31.318 19.3647H29.7956C29.5557 19.3699 29.3648 19.5771 29.3648 19.831V21.1834C29.3697 21.4372 29.5655 21.6393 29.8054 21.6393H31.3278C31.5677 21.6341 31.7586 21.4269 31.7586 21.173V19.8207H31.7537Z" fill="white"/>
<path d="M34.5145 19.6549C34.4606 19.6652 34.4166 19.7119 34.4166 19.774V22.4165C34.4166 22.4424 34.397 22.4632 34.3725 22.4632H33.4718C33.4424 22.4632 33.4277 22.4476 33.4277 22.4165V18.5357C33.4277 18.4994 33.4424 18.4839 33.4767 18.4839C33.9173 18.4839 34.3334 18.4839 34.7201 18.4891C35.097 18.4942 35.3565 18.7533 35.5376 19.0797C35.9488 19.8051 36.3404 20.4942 36.7125 21.1523C36.7614 21.2352 36.8251 21.3025 36.9083 21.344C36.967 21.3751 37.0356 21.344 37.0649 21.287C37.0747 21.2715 37.0747 21.2507 37.0747 21.23V18.5305C37.0747 18.5046 37.0943 18.4839 37.1188 18.4839H37.951C37.9804 18.4839 37.995 18.4994 37.995 18.5305V22.3751C37.995 22.4373 37.9657 22.4632 37.9118 22.4632C37.5545 22.4632 37.1677 22.4632 36.7467 22.4683C36.4432 22.4683 36.2034 22.3233 36.0516 22.0538C35.6502 21.3647 35.2341 20.6341 34.8033 19.8621C34.7446 19.7533 34.6369 19.6341 34.5096 19.6549H34.5145Z" fill="white"/>
</g>
<circle cx="20" cy="20" r="19.5" stroke="black" stroke-opacity="0.05"/>
<defs>
<clipPath id="clip0_24563_41704">
<rect width="36" height="4" fill="white" transform="translate(2 18.4736)"/>
</clipPath>
</defs>
</svg>
