<svg width="40" height="40" viewBox="0 0 40 40" fill="none" xmlns="http://www.w3.org/2000/svg">
<circle cx="20" cy="20" r="20" fill="#F6F8FA"/>
<path d="M27.4146 22.2554C27.4205 22.2083 27.4205 22.1613 27.4146 22.1143C27.4086 22.0672 27.4027 22.0202 27.4086 21.9731C27.4086 21.8967 27.4086 21.8202 27.4086 21.7379C27.4086 21.5262 27.4086 21.2968 27.4146 21.0381C27.4205 20.844 27.4264 20.6617 27.4205 20.4912C27.4205 20.0678 27.4146 19.615 27.4086 19.1386C27.4086 18.8446 27.4027 18.5211 27.3433 18.2448C27.3077 18.0801 27.2662 17.8919 27.2068 17.692C27.1831 17.6096 27.1534 17.5273 27.1178 17.4391C27.1119 17.4215 27.0941 17.4097 27.0762 17.4038C27.0644 17.4038 27.0584 17.3979 27.0525 17.3862C27.0466 17.3744 27.0406 17.3626 27.0466 17.3509L27.0584 17.3626C27.0584 17.3626 27.0703 17.3744 27.0703 17.3626C27.0703 17.2803 27.0584 17.2097 27.0584 17.1274C27.0644 16.8451 27.0644 16.5452 27.0584 16.2394C27.0584 16.0748 27.0525 15.9278 27.0525 15.7866C27.0525 14.8927 27.0525 13.9989 27.0525 13.105C27.0525 12.8698 27.0584 12.6404 27.0525 12.4111C27.0525 12.3817 27.0347 12.3699 27.011 12.3758C25.5448 12.6816 24.0491 12.9874 22.5295 13.2991C22.4642 13.3108 22.3811 13.3344 22.2921 13.3638L22.2328 13.3814C22.2328 13.352 22.2268 13.3285 22.1971 13.3167C22.1853 13.3167 22.1793 13.305 22.1734 13.2991C22.1319 13.2344 22.0309 13.2344 21.9657 13.205C21.6986 13.0991 21.4314 13.0227 21.1643 12.9815C21.0753 12.9698 21.0041 12.958 20.9447 12.9639C20.8794 12.958 20.8082 12.9521 20.737 12.9462C20.7014 12.9462 20.6717 12.9462 20.6479 12.958C20.642 12.958 20.6361 12.958 20.6242 12.958C20.6183 12.958 20.6123 12.958 20.6005 12.958L20.2324 12.9933L20.4105 12.9345C20.4105 12.9345 20.4224 12.9286 20.4283 12.9168C20.4343 12.8992 20.4521 12.8874 20.4639 12.8874C20.5114 12.8757 20.553 12.8639 20.5945 12.858C20.642 12.8521 20.6776 12.8345 20.7132 12.8051C20.7607 12.7698 20.8082 12.7286 20.8498 12.6934C20.8498 12.6934 20.8498 12.6934 20.8498 12.6875C20.8498 12.6875 20.8498 12.6875 20.8498 12.6816L21.2949 12.2347C21.2949 12.2347 21.3068 12.2229 21.3068 12.2111C21.3068 12.1994 21.3187 12.1935 21.3246 12.1817C21.4077 12.0994 21.5027 12.0288 21.6036 11.9642C21.6155 11.9642 21.6214 11.9583 21.6333 11.9583C21.6451 11.9583 21.657 11.9583 21.6689 11.9406C21.6748 11.9348 21.6689 11.923 21.6689 11.9171C21.6689 11.9171 21.6629 11.9171 21.657 11.9171C21.5145 11.9171 21.384 11.9348 21.2771 11.9759C21.1643 12.0171 21.0397 12.0582 20.9032 12.1171C20.7667 12.17 20.6242 12.2405 20.4817 12.3229C20.0425 12.5816 19.6686 12.9051 19.354 13.2873C19.3421 13.3285 19.3184 13.3696 19.2768 13.399H19.2709C19.2709 13.3932 19.2709 13.3873 19.259 13.3873C19.2471 13.3873 19.2293 13.3932 19.2175 13.4049C19.164 13.4402 19.1225 13.4637 19.0987 13.4873C18.9978 13.5755 18.891 13.6813 18.7723 13.8048C18.7367 13.8401 18.707 13.8695 18.6832 13.8813C18.6358 13.9048 18.5942 13.9107 18.5586 13.893C18.5823 13.8166 18.612 13.746 18.6536 13.6813C19.2649 12.6463 20.2265 11.8701 21.4077 11.576C21.4671 11.5643 21.6511 11.5231 21.9657 11.4584C24.2924 10.9644 26.6073 10.4881 28.9341 10C28.9578 10 28.9875 10 29.0113 10C29.0231 10 29.0291 10.0059 29.0291 10.0176C29.0291 10.0353 29.035 10.0588 29.035 10.0882C29.035 13.1521 29.035 16.0865 29.035 18.8916C29.035 19.3738 28.9282 19.9208 28.7382 20.3912C28.4771 21.044 28.0853 21.6085 27.563 22.0848C27.563 22.0848 27.5333 22.1025 27.4858 22.1378C27.4502 22.1613 27.4264 22.1966 27.4146 22.2436V22.2554Z" fill="#6BB557"/>
<path d="M20.2446 12.9932C20.1971 12.9932 20.1556 12.9932 20.1081 13.0108C20.0309 13.0285 19.9894 13.0402 19.9894 13.0402C19.9241 13.052 19.8647 13.0697 19.8054 13.0932C19.7163 13.1285 19.6214 13.1696 19.5323 13.2167C19.4848 13.2402 19.4374 13.2696 19.3899 13.3049C19.378 13.3108 19.3721 13.3049 19.3721 13.299C19.3721 13.299 19.3721 13.2872 19.3721 13.2755C19.6807 12.8932 20.0606 12.5698 20.4998 12.311C20.6423 12.2287 20.7848 12.1581 20.9213 12.1052C21.0578 12.0523 21.1824 12.0052 21.2952 11.9641C21.408 11.9288 21.5326 11.9053 21.6751 11.9053C21.687 11.9053 21.6929 11.9112 21.6929 11.9229C21.6929 11.9229 21.6929 11.9288 21.6929 11.9347C21.681 11.9464 21.6692 11.9523 21.6573 11.9523C21.6454 11.9523 21.6336 11.9523 21.6276 11.9582C21.5267 12.0229 21.4317 12.0935 21.3486 12.1758C21.3427 12.1817 21.3368 12.1934 21.3308 12.2052C21.3308 12.2111 21.3249 12.2228 21.319 12.2287L20.8738 12.6756C20.8738 12.6756 20.8738 12.6756 20.8738 12.6815C20.8738 12.6815 20.8738 12.6815 20.8738 12.6874C20.8322 12.7227 20.7848 12.7639 20.7373 12.7991C20.7017 12.8285 20.666 12.8462 20.6186 12.8521C20.577 12.8579 20.5295 12.8697 20.488 12.8815C20.4702 12.8815 20.4583 12.8991 20.4524 12.9109C20.4524 12.9168 20.4405 12.9226 20.4346 12.9285L20.2565 12.9873L20.2446 12.9932Z" fill="#AAD296"/>
<path d="M20.9509 12.9698C20.8025 12.9874 20.6601 13.0227 20.5117 13.0639C20.4939 13.0639 20.482 13.0815 20.4642 13.105C20.4642 13.105 20.4701 13.105 20.4642 13.1109C20.3751 13.1933 20.292 13.2873 20.209 13.3873C20.1911 13.4108 20.1733 13.4285 20.1496 13.4461C20.108 13.4814 20.0665 13.5108 20.0368 13.5461C19.8172 13.7578 19.6154 13.9577 19.4195 14.1459C19.2771 14.2812 19.1465 14.4223 19.01 14.5635C18.9981 14.5811 18.9803 14.5929 18.9625 14.6046C18.9447 14.6164 18.9328 14.6281 18.9209 14.6458C18.909 14.6693 18.8853 14.6693 18.8675 14.687C18.8556 14.6987 18.8438 14.7105 18.8319 14.7222C18.7963 14.7693 18.7547 14.8163 18.7132 14.8575C18.6954 14.8751 18.6835 14.9163 18.6835 14.9457C18.6835 14.9692 18.6716 14.9869 18.6597 15.0045C18.6419 15.028 18.6241 15.0457 18.6063 15.0692C18.5588 15.1221 18.5351 15.1162 18.547 15.0457C18.5707 14.8516 18.6123 14.6693 18.6657 14.4988C18.7132 14.3459 18.8022 14.1518 18.9269 13.9166C18.9565 13.8637 18.9862 13.8049 19.0218 13.7519C19.0574 13.699 19.0871 13.6402 19.1168 13.5873C19.1346 13.5579 19.1524 13.5285 19.1761 13.5049C19.1999 13.4755 19.2236 13.4461 19.2474 13.4167C19.2474 13.4108 19.2474 13.3991 19.2474 13.3991C19.2474 13.3991 19.2414 13.3991 19.2355 13.3991C19.2355 13.3991 19.2296 13.3991 19.2236 13.3991C19.2355 13.3873 19.2533 13.3814 19.2652 13.3814C19.2711 13.3814 19.2771 13.3814 19.2771 13.3932C19.2771 13.3932 19.2771 13.3991 19.283 13.3932C19.3245 13.3638 19.3483 13.3285 19.3602 13.2815C19.3602 13.2932 19.3602 13.2991 19.3602 13.305C19.3602 13.3168 19.3661 13.3168 19.378 13.3109C19.4254 13.2756 19.4729 13.2462 19.5204 13.2227C19.6095 13.1756 19.7044 13.1345 19.7935 13.0992C19.8528 13.0756 19.9122 13.058 19.9775 13.0462C19.9775 13.0462 20.019 13.0345 20.0962 13.0168C20.1377 13.0051 20.1852 12.9992 20.2327 12.9992L20.6007 12.9639C20.6007 12.9639 20.6126 12.9639 20.6244 12.9639C20.6304 12.9639 20.6363 12.9639 20.6482 12.9639C20.6719 12.9521 20.7016 12.9521 20.7372 12.9521C20.8085 12.9521 20.8737 12.9639 20.945 12.9698H20.9509Z" fill="#68895D"/>
<path d="M20.9509 12.9697C21.0043 12.9697 21.0815 12.9697 21.1705 12.9874C21.4376 13.0285 21.7047 13.105 21.9718 13.2108C22.0371 13.2344 22.138 13.2402 22.1796 13.3049C22.1796 13.3108 22.1915 13.3167 22.2033 13.3226C22.233 13.3343 22.2449 13.352 22.239 13.3873C21.9718 13.4167 21.7344 13.4813 21.5326 13.5754C21.2062 13.7283 20.9094 13.9577 20.6541 14.2635C20.4879 14.4634 20.3633 14.6398 20.2861 14.7927C20.2564 14.8457 20.2386 14.9221 20.2208 15.028C20.1021 15.2514 20.0368 15.4867 20.0368 15.7395C20.0368 15.9689 20.0368 16.1982 20.0368 16.4276V16.5099C20.0368 16.5099 20.0131 16.557 19.9893 16.557C19.9478 16.5628 19.9003 16.5805 19.8588 16.5805C19.7935 16.5805 19.746 16.5805 19.7104 16.5922C19.467 16.6687 19.194 16.7275 18.8853 16.7745C18.7369 16.7981 18.4876 16.8451 18.1434 16.9216C18.1374 16.9216 18.1315 16.9216 18.1256 16.9274C18.1196 16.9274 18.1137 16.9392 18.1077 16.9392C18.1018 16.9451 18.0899 16.9392 18.084 16.9392C18.084 16.9392 18.084 16.9333 18.084 16.9216C18.0781 16.2688 18.0721 15.8572 18.084 15.6925C18.0959 15.2279 18.1849 14.7869 18.3452 14.3811C18.3986 14.2517 18.4758 14.0812 18.5767 13.8812C18.6123 13.8989 18.6538 13.893 18.7013 13.8695C18.7251 13.8577 18.7547 13.8342 18.7903 13.793C18.9091 13.6695 19.0159 13.5637 19.1168 13.4755C19.1405 13.4519 19.1821 13.4284 19.2355 13.3931C19.2355 13.3931 19.2415 13.3931 19.2474 13.3931C19.2533 13.3931 19.2652 13.3931 19.2652 13.4049C19.2652 13.4049 19.2652 13.4108 19.2652 13.4167C19.2415 13.4461 19.2177 13.4755 19.194 13.5049C19.1702 13.5284 19.1524 13.5578 19.1346 13.5872C19.1049 13.6401 19.0753 13.6989 19.0396 13.7519C19.004 13.8107 18.9743 13.8636 18.9447 13.9165C18.82 14.1517 18.731 14.3458 18.6835 14.4987C18.6301 14.6693 18.5885 14.8574 18.5648 15.0456C18.5529 15.1162 18.5767 15.1279 18.6241 15.0691C18.642 15.0456 18.6598 15.028 18.6776 15.0045C18.6894 14.9868 18.7013 14.9633 18.7013 14.9456C18.7013 14.9162 18.7132 14.8751 18.731 14.8574C18.7725 14.8163 18.8082 14.7692 18.8497 14.7222C18.8616 14.7104 18.8734 14.6987 18.8853 14.6869C18.9031 14.6693 18.9269 14.6693 18.9387 14.6457C18.9506 14.6281 18.9625 14.6163 18.9803 14.6046C18.9981 14.5928 19.01 14.581 19.0278 14.5634C19.1643 14.4281 19.2949 14.287 19.4373 14.1459C19.6332 13.9577 19.841 13.7577 20.0546 13.546C20.0902 13.5108 20.1259 13.4813 20.1674 13.4461C20.1912 13.4284 20.209 13.4108 20.2268 13.3873C20.3099 13.2873 20.393 13.1932 20.482 13.1109V13.105C20.4998 13.0815 20.5117 13.0697 20.5295 13.0638C20.6719 13.0227 20.8203 12.9932 20.9687 12.9697H20.9509Z" fill="#417A38"/>
<path d="M22.2982 13.3696C22.2982 13.3696 22.2982 13.3755 22.2982 13.3814C22.2982 13.3932 22.2982 13.399 22.3101 13.399C22.405 13.4167 22.4941 13.4461 22.5772 13.4814C23.1529 13.7284 23.7109 13.9695 24.2569 14.2047C24.7437 14.4164 25.1888 14.7104 25.5984 15.0927C26.0911 15.5514 26.5125 16.1159 26.8508 16.7746C26.922 16.9098 26.9577 17.0333 26.9636 17.1392C26.9517 17.1274 26.9458 17.1156 26.9458 17.098C26.9458 17.0862 26.9458 17.0804 26.9339 17.0745C26.922 17.0686 26.9102 17.0627 26.8924 17.0686C26.8805 17.0686 26.8746 17.0686 26.8686 17.0627C26.8449 17.0451 26.8271 17.0215 26.8033 16.998C26.6727 16.851 26.5481 16.6922 26.4116 16.557C25.9605 16.1159 25.3313 15.8454 24.6962 15.7513C24.4469 15.716 24.1679 15.7278 23.9067 15.7278C23.8177 15.7278 23.6218 15.7631 23.325 15.8219C23.3072 15.8219 23.2835 15.8336 23.2538 15.8454C23.2301 15.8572 23.2004 15.863 23.1707 15.8572C23.1707 15.8219 23.1351 15.7984 23.0757 15.7866C23.0223 15.7748 22.9748 15.7631 22.9333 15.7396C22.3575 15.4926 21.7818 15.2456 21.2001 14.9986C20.9567 14.8927 20.7312 14.8574 20.5234 14.8927C20.4344 14.9045 20.3335 14.9515 20.2207 15.028C20.2326 14.9221 20.2563 14.8457 20.286 14.7928C20.3691 14.6399 20.4878 14.4634 20.654 14.2635C20.9092 13.9577 21.206 13.7284 21.5325 13.5755C21.7343 13.4814 21.9717 13.4167 22.2388 13.3873L22.2982 13.3696Z" fill="#A8A9AC"/>
<path d="M26.9638 17.133L27.0469 17.3565C27.0469 17.3565 27.0469 17.38 27.0528 17.3918C27.0588 17.3977 27.0706 17.4035 27.0766 17.4094C27.0944 17.4094 27.1122 17.4271 27.1181 17.4447C27.1537 17.527 27.1834 17.6152 27.2072 17.6976C27.2606 17.9034 27.3081 18.0857 27.3437 18.2504C27.403 18.5267 27.409 18.8502 27.409 19.1442C27.409 19.6206 27.409 20.0734 27.4209 20.4968C27.4209 20.6673 27.4209 20.8496 27.4149 21.0437C27.403 21.3024 27.403 21.5318 27.409 21.7435C27.409 21.8258 27.409 21.9023 27.409 21.9787C27.409 22.0199 27.409 22.0669 27.4149 22.1199C27.4209 22.1669 27.4209 22.214 27.4149 22.261C27.409 22.902 27.409 23.3842 27.4149 23.7018C27.4149 24.0076 27.3971 24.2957 27.3496 24.5721C27.2962 24.8779 27.1894 25.1955 27.0291 25.5248C26.9935 25.5601 26.9638 25.5954 26.9341 25.6365C26.9163 25.66 26.9044 25.6777 26.8807 25.6953C26.8332 25.7424 26.7976 25.7894 26.7501 25.8306C26.6848 25.8894 26.6136 25.96 26.5364 26.0364C26.4059 26.1775 26.2397 26.254 26.0794 26.354C25.8598 26.4833 25.6283 26.5833 25.379 26.6362C25.1653 26.6774 24.9457 26.695 24.7083 26.695C24.4352 26.6774 24.2572 26.6539 24.1741 26.6304C24.0494 26.5951 23.9248 26.5598 23.7942 26.5245C23.6458 26.4833 23.5093 26.4245 23.3609 26.3716C23.3431 26.3657 23.3134 26.3598 23.2837 26.354C23.2481 26.354 23.2243 26.3422 23.2065 26.3246C23.3193 26.2716 23.4321 26.2364 23.5389 26.2069C23.6814 26.1717 23.7704 26.1481 23.812 26.1305C24.3521 25.9188 24.7854 25.513 25.0881 25.0132C25.1238 24.9544 25.1594 24.8956 25.195 24.8367C25.2247 24.7956 25.2425 24.7427 25.2543 24.6897C25.2662 24.6368 25.2781 24.5839 25.284 24.5309C25.3731 24.3545 25.4205 24.1722 25.4265 23.9899C25.4265 23.8429 25.4265 23.6077 25.4265 23.2784C25.4265 23.2548 25.4265 23.2196 25.4383 23.1666C25.4443 23.1255 25.4205 23.0667 25.4205 23.0255C25.4205 22.9196 25.4205 22.8138 25.4265 22.7138C25.4383 22.5492 25.4146 22.3845 25.4146 22.2198C25.4146 21.9199 25.4027 21.6141 25.4146 21.3142C25.4146 21.2554 25.4146 21.2025 25.4146 21.1554C25.4146 21.1084 25.4146 21.0731 25.4146 21.0496C25.4146 20.3262 25.4205 19.6088 25.4265 18.8855C25.4265 18.6561 25.3731 18.4327 25.2662 18.221C25.2662 18.1857 25.2603 18.1269 25.2306 18.0975C25.2247 18.0916 25.2247 18.0798 25.2306 18.0681C25.2306 18.0563 25.2365 18.0504 25.2365 18.0386C25.2365 17.9857 25.2247 17.9446 25.2128 17.9034C25.1475 17.7329 25.0763 17.5741 24.9872 17.4212C24.6964 16.9154 24.3343 16.5097 23.901 16.2039C23.7764 16.1157 23.6042 16.0216 23.3787 15.9275C23.3371 15.9098 23.3015 15.8745 23.254 15.8628C23.2362 15.8628 23.2362 15.851 23.254 15.8393C23.2718 15.8216 23.2956 15.8099 23.3193 15.804C23.6161 15.7452 23.812 15.7099 23.901 15.7099C24.1622 15.7099 24.4412 15.6981 24.6905 15.7334C25.3315 15.8275 25.9547 16.098 26.4059 16.5391C26.5424 16.6743 26.667 16.8331 26.7976 16.9801C26.8154 17.0036 26.8392 17.0213 26.8629 17.0448C26.8688 17.0507 26.8807 17.0566 26.8866 17.0507C26.8985 17.0507 26.9163 17.0507 26.9282 17.0566C26.9341 17.0566 26.9401 17.0683 26.9401 17.0801C26.9401 17.0977 26.946 17.1095 26.9579 17.1213L26.9638 17.133Z" fill="#985A21"/>
<path d="M23.3251 15.8218C23.3251 15.8218 23.2776 15.8394 23.2598 15.8571C23.248 15.8688 23.248 15.8747 23.2598 15.8806C23.3073 15.8923 23.3429 15.9217 23.3845 15.9453C23.61 16.0452 23.7822 16.1393 23.9068 16.2217C24.3401 16.5275 24.7081 16.9332 24.993 17.439C25.0761 17.5919 25.1533 17.7506 25.2186 17.9212C25.2364 17.9624 25.2423 18.0094 25.2423 18.0564C25.2423 18.0682 25.2423 18.08 25.2364 18.0858C25.2364 18.0976 25.2364 18.1035 25.2364 18.1153C25.2601 18.1447 25.272 18.2035 25.272 18.2387C25.2127 18.127 25.1236 18.027 24.999 17.933C24.8387 17.8095 24.6725 17.733 24.5063 17.6977C24.2986 17.6566 24.073 17.6624 23.8237 17.7154C22.779 17.9388 21.5622 18.1858 20.1733 18.4681C20.1377 18.474 20.0961 18.4799 20.0486 18.4857C20.0486 18.4681 20.0486 18.4563 20.0486 18.4505C20.0486 18.4446 20.0368 18.4387 20.0368 18.4269C20.0368 18.3975 20.0249 18.3681 20.0249 18.3387C20.0249 17.8506 20.0249 17.3684 20.0249 16.8803C20.0249 16.8803 20.0249 16.8215 20.0249 16.7156C20.0249 16.6451 20.0249 16.5804 20.0368 16.5216L23.1649 15.8688C23.1945 15.8688 23.2242 15.8688 23.248 15.8571C23.2776 15.8394 23.3014 15.8335 23.3192 15.8335L23.3251 15.8218Z" fill="#E78B3C"/>
<path d="M20.037 16.4219C20.037 16.4219 20.037 16.4748 20.037 16.5101C20.0252 16.5689 20.0252 16.6336 20.0252 16.7042C20.0252 16.81 20.0252 16.8688 20.0252 16.8688C20.0252 17.3569 20.0252 17.8391 20.0252 18.3272C20.0252 18.3566 20.0311 18.3861 20.037 18.4155C20.037 18.4272 20.037 18.4331 20.0489 18.439C20.0548 18.4449 20.0608 18.4566 20.0489 18.4743C20.0252 18.5154 20.0192 18.5684 20.0252 18.6389C19.9955 18.5566 19.9361 18.5272 19.8412 18.539C19.7937 18.5448 19.7699 18.5507 19.7699 18.5507C19.5563 18.5742 19.3485 18.6095 19.1408 18.6566C19.0636 18.6742 18.9864 18.6918 18.9033 18.7036C18.8262 18.7154 18.749 18.733 18.6718 18.7507C18.6066 18.7683 18.5235 18.7801 18.4225 18.7918C18.3335 18.8036 18.2385 18.8212 18.1495 18.8565C18.1376 18.8565 18.1317 18.8683 18.1258 18.88C18.1258 18.8977 18.108 18.9094 18.0901 18.9271C18.0901 18.8683 18.0723 18.8153 18.0723 18.7624C18.0842 18.3684 18.0723 17.9744 18.0842 17.5863C18.0901 17.4275 18.0783 17.2687 18.0842 17.1041C18.0842 17.0453 18.0723 16.9864 18.0664 16.9276L18.0783 16.91C18.0783 16.91 18.0783 16.9218 18.0783 16.9276C18.0783 16.9394 18.0901 16.9394 18.102 16.9276C18.102 16.9276 18.1139 16.9159 18.1198 16.9159C18.1198 16.9159 18.1317 16.9159 18.1376 16.91C18.4878 16.8335 18.7312 16.7806 18.8796 16.763C19.1882 16.7159 19.4613 16.6571 19.7046 16.5807C19.7403 16.5689 19.7877 16.5689 19.853 16.5689C19.8946 16.5689 19.9421 16.5572 19.9836 16.5454C20.0074 16.5454 20.0252 16.5219 20.0252 16.4983V16.416L20.037 16.4219Z" fill="#985A21"/>
<path d="M18.0662 16.9395C18.0662 16.9983 18.084 17.0571 18.084 17.1159C18.084 17.2747 18.09 17.4393 18.084 17.5981C18.0662 17.9862 18.084 18.3802 18.0722 18.7742C18.0722 18.8272 18.09 18.886 18.09 18.9389L18.0722 19.0153V18.933C18.0722 18.933 18.0603 18.8977 18.0366 18.9036C18.0069 18.9154 17.9831 18.9213 17.9475 18.9271C16.6654 19.1976 15.3477 19.4682 13.9884 19.7504C13.6976 19.8092 13.4364 19.9151 13.2168 20.068C12.8429 20.3209 12.552 20.6325 12.3265 21.0089C12.2256 21.1853 12.1484 21.3617 12.095 21.5323C12.0356 21.7499 12 21.9439 12 22.1145C12 24.2315 12 26.3133 12 28.3657C12 28.4362 11.9881 28.5068 12 28.5833C12 28.6009 12.0178 28.6185 12.0416 28.6185C12.4155 28.5656 12.7835 28.4656 13.1575 28.3951C13.4602 28.3421 13.7688 28.2598 14.0656 28.2069C14.2259 28.1775 14.3861 28.1422 14.5405 28.1069C14.8729 28.0363 15.1815 27.9717 15.4546 27.9187C15.692 27.8717 15.9235 27.8129 16.1609 27.7658C16.5586 27.6894 16.9681 27.5953 17.3777 27.513C17.7398 27.4424 18.1137 27.3601 18.458 27.2895C18.6539 27.2483 18.8497 27.2072 19.0397 27.166C19.4018 27.0837 19.7579 27.019 20.1081 26.9425C20.304 26.9014 20.4939 26.8602 20.666 26.8249C20.8738 26.7838 21.1231 26.7308 21.408 26.672C21.9244 26.5603 22.4289 26.4544 22.9157 26.3603C22.981 26.3486 23.0522 26.3427 23.1175 26.3309H23.1946C23.1946 26.3309 23.2362 26.3603 23.2718 26.3662C23.3015 26.3662 23.3312 26.378 23.349 26.3839C23.4914 26.4368 23.6339 26.5015 23.7823 26.5368C23.9069 26.572 24.0375 26.6015 24.1621 26.6426C24.2452 26.6661 24.4233 26.6897 24.6964 26.7073C24.6489 26.7661 24.6073 26.8308 24.5658 26.9072C24.542 26.9484 24.5242 26.9837 24.5005 27.0072C24.4708 27.0425 24.4411 27.0778 24.4114 27.1131L24.3996 27.1248C24.3461 27.166 24.3046 27.2072 24.2749 27.2483C24.2215 27.3189 24.1859 27.3601 24.1621 27.3836C24.1325 27.4189 24.1028 27.4542 24.0731 27.4894C24.0553 27.5071 24.0256 27.5424 23.9722 27.5894C23.9366 27.6247 23.9069 27.66 23.8891 27.7011C23.8772 27.7188 23.8891 27.7423 23.9069 27.7541C23.9128 27.7541 23.9247 27.7541 23.9307 27.7541C23.9959 27.7423 24.0612 27.7247 24.1265 27.7129C24.269 27.6776 24.3936 27.6365 24.4886 27.5894C24.5895 27.5424 24.6904 27.4953 24.7854 27.4483C24.8744 27.4071 24.9694 27.3483 25.0703 27.2895C25.3077 27.1366 25.5333 26.9602 25.741 26.7543C25.8419 26.6544 25.9488 26.5544 26.0616 26.4486C26.0734 26.4368 26.0794 26.425 26.0853 26.4133C26.0853 26.3956 26.0853 26.378 26.0734 26.3662C26.2337 26.2663 26.3999 26.1898 26.5305 26.0487C26.6017 25.9663 26.6729 25.9016 26.7442 25.8428C26.7916 25.8017 26.8272 25.7487 26.8747 25.7076C26.8925 25.6899 26.9103 25.6664 26.9282 25.6488C26.9578 25.6076 26.9875 25.5723 27.0231 25.537C27.0172 25.5782 26.9994 25.6194 26.9756 25.6488C26.9697 25.6605 26.9638 25.6664 26.9638 25.6782C26.9638 25.7135 26.9578 25.7429 26.9341 25.7605C26.9282 25.7664 26.9222 25.7782 26.9222 25.7899C26.9222 25.7958 26.9222 25.8076 26.9103 25.8134C26.9044 25.8193 26.8985 25.8252 26.8925 25.8311C26.8213 25.9722 26.7382 26.1134 26.6432 26.2545C26.0912 27.0719 25.3552 27.6482 24.4352 27.9952C24.2868 28.0481 24.1028 28.101 23.8832 28.1481C23.3252 28.2657 22.8029 28.3774 22.3221 28.4774C22.2627 28.4892 22.1974 28.5009 22.1322 28.5186C21.4317 28.6597 20.7907 28.795 20.209 28.9185C19.8647 28.989 19.5205 29.0596 19.1762 29.1302C19.0872 29.1478 19.01 29.1713 18.915 29.189C18.5233 29.2654 18.1434 29.3419 17.7754 29.4242C17.5024 29.483 17.2115 29.5418 16.9029 29.6065C16.0303 29.7888 15.0391 29.9946 13.9291 30.2298C13.4364 30.3298 12.9438 30.4357 12.4392 30.5415C11.6854 30.7003 10.9791 30.8473 10.3202 30.9885C10.2371 31.0061 10.154 31.0179 10.065 31.0237C10.0412 31.0237 10.0234 31.012 10.0234 30.9885C10.0234 30.9885 10.0234 30.9885 10.0234 30.9826C10.0353 30.7944 10.0234 30.6062 10.0234 30.418C10.0353 27.807 10.0353 25.2077 10.0353 22.5967C10.0353 22.3027 10.0353 22.0027 10.065 21.7146C10.2609 19.8798 11.7151 18.245 13.5492 17.8568C14.0478 17.751 14.5642 17.6569 15.0687 17.5452C15.318 17.4922 15.5851 17.4334 15.876 17.3746C15.965 17.357 16.0541 17.3393 16.1372 17.3217C16.4755 17.257 16.8019 17.1864 17.1225 17.1159C17.3896 17.0571 17.6448 17.0159 17.906 16.9571C17.9653 16.9453 18.0188 16.9453 18.0781 16.9395H18.0662ZM13.2406 18.2979C12.742 18.4567 12.2849 18.7213 11.8694 19.08C11.1987 19.6622 10.7476 20.3738 10.522 21.2088C10.5042 21.3206 10.4805 21.4264 10.4627 21.5264C10.4508 21.5793 10.4627 21.6381 10.4983 21.7087C10.4983 21.7205 10.5102 21.7205 10.522 21.7087C10.5458 21.6734 10.5695 21.6323 10.5992 21.6029C10.6645 21.5323 10.7298 21.4676 10.801 21.4029C10.8069 21.397 10.8188 21.3911 10.8307 21.3853C10.8426 21.3853 10.8544 21.3735 10.8663 21.3617C10.9078 21.3147 10.9494 21.2677 10.9969 21.2206C11.0444 21.1736 11.0859 21.1265 11.1393 21.0854C11.2462 20.9854 11.3412 20.8913 11.4361 20.7972C11.5252 20.7031 11.6261 20.609 11.727 20.5149C11.816 20.4326 11.8991 20.3561 11.9703 20.2738C12.0534 20.1856 12.1365 20.1033 12.2137 20.0268C12.3977 19.8445 12.5876 19.6563 12.7776 19.4682C12.7776 19.4682 12.7776 19.4623 12.7776 19.4564C12.7776 19.4564 12.7776 19.4446 12.7776 19.4388C12.7776 19.4388 12.7835 19.4329 12.7894 19.427C12.831 19.3976 12.8844 19.3388 12.8963 19.327C12.926 19.2976 12.9556 19.2682 12.9853 19.2447C13.0447 19.1918 13.104 19.133 13.1575 19.0683C13.199 19.0212 13.2465 18.9859 13.288 18.933C13.3177 18.8977 13.3533 18.8624 13.383 18.833C13.4839 18.7448 13.5848 18.6449 13.6857 18.5331C13.6857 18.5331 13.6857 18.5272 13.6857 18.5214C13.6857 18.5155 13.6857 18.5096 13.6917 18.5037C13.7688 18.439 13.846 18.3685 13.9232 18.292C13.935 18.2803 13.9469 18.2685 13.9588 18.2685C13.9884 18.2626 14.0181 18.2391 14.0359 18.2156C14.0419 18.2097 14.0537 18.2038 14.0597 18.2038C14.0775 18.2038 14.0894 18.192 14.1012 18.1803C14.1012 18.1744 14.1012 18.1626 14.1012 18.1568C14.1012 18.1568 14.1012 18.1568 14.0953 18.1568C14.0063 18.145 13.9113 18.145 13.8163 18.1685C13.6798 18.1979 13.5373 18.2273 13.4008 18.2567C13.3355 18.2685 13.2821 18.2861 13.2465 18.3038L13.2406 18.2979Z" fill="#E78B3C"/>
<path d="M10.5218 21.2086L10.5337 21.2498C10.5337 21.2498 10.5396 21.2674 10.5515 21.2674C10.5812 21.2792 10.6049 21.2674 10.6168 21.2439C10.6346 21.2145 10.6524 21.1851 10.688 21.1616C10.6939 21.1557 10.6999 21.1439 10.7058 21.138C10.7236 21.091 10.7652 21.0557 10.7949 21.0146C10.8245 20.9734 10.8601 20.9381 10.9076 20.9146C10.9314 20.8969 10.9551 20.8793 10.9789 20.8617C11.0085 20.8323 11.062 20.797 11.0798 20.7617C11.0976 20.7323 11.1213 20.7264 11.1451 20.7029C11.4003 20.4559 11.6555 20.203 11.9108 19.9443C11.9464 19.909 11.9879 19.8678 12.0235 19.8325C12.1304 19.7384 12.2194 19.6267 12.3203 19.5326C12.5874 19.2739 12.813 19.0445 13.0029 18.8505C13.181 18.6682 13.3412 18.5035 13.4896 18.3682C13.5134 18.3447 13.5312 18.3153 13.5549 18.2918C13.5787 18.2741 13.5727 18.2624 13.5431 18.2565C13.5134 18.2565 13.4837 18.2565 13.4481 18.2565C13.3709 18.2565 13.3056 18.28 13.2344 18.2977C13.27 18.28 13.3175 18.2624 13.3887 18.2506C13.5253 18.2212 13.6677 18.1918 13.8042 18.1624C13.9051 18.1448 13.9942 18.1389 14.0832 18.1507C14.0951 18.1507 14.101 18.1624 14.101 18.1742C14.101 18.1742 14.101 18.1742 14.101 18.1801C14.0891 18.1977 14.0773 18.2036 14.0595 18.2036C14.0476 18.2036 14.0417 18.2036 14.0357 18.2153C14.012 18.2389 13.9882 18.2565 13.9586 18.2683C13.9467 18.2683 13.9348 18.28 13.9229 18.2918C13.8517 18.3682 13.7745 18.4388 13.6915 18.5035C13.6915 18.5035 13.6855 18.5094 13.6855 18.5211C13.6855 18.5211 13.6855 18.527 13.6855 18.5329C13.5846 18.6446 13.4837 18.7446 13.3828 18.8328C13.3472 18.8622 13.3175 18.8975 13.2878 18.9328C13.2463 18.9798 13.1988 19.0151 13.1572 19.068C13.1038 19.1327 13.0445 19.1857 12.9851 19.2445C12.9554 19.268 12.9258 19.2974 12.8961 19.3268C12.8842 19.3386 12.8308 19.4032 12.7892 19.4268C12.7892 19.4268 12.7774 19.4326 12.7774 19.4385C12.7774 19.4385 12.7714 19.4503 12.7774 19.4562C12.7774 19.4562 12.7774 19.462 12.7774 19.4679C12.5874 19.662 12.3975 19.8502 12.2135 20.0266C12.1304 20.103 12.0532 20.1854 11.9701 20.2736C11.8989 20.35 11.8158 20.4324 11.7268 20.5147C11.6199 20.6088 11.5249 20.7088 11.4359 20.797C11.3469 20.8911 11.246 20.9852 11.1391 21.0851C11.0916 21.1322 11.0442 21.1733 10.9967 21.2204C10.9492 21.2674 10.9076 21.3145 10.8661 21.3615C10.8542 21.3733 10.8423 21.3792 10.8305 21.385C10.8186 21.385 10.8127 21.3909 10.8008 21.4027C10.7355 21.4674 10.6643 21.5321 10.599 21.6026C10.5693 21.632 10.5515 21.6732 10.5218 21.7085C10.5159 21.7202 10.504 21.7202 10.4981 21.7085C10.4625 21.6379 10.4506 21.5732 10.4625 21.5262C10.4803 21.4203 10.504 21.3145 10.5218 21.2086Z" fill="#EBA25F"/>
<path d="M10.522 21.2089C10.7475 20.3739 11.1986 19.6682 11.8694 19.0801C12.2849 18.7214 12.7419 18.4568 13.2405 18.298C13.3117 18.2804 13.377 18.2568 13.4542 18.2568C13.4898 18.2568 13.5195 18.2568 13.5492 18.2568C13.5788 18.2568 13.5848 18.2686 13.561 18.2921C13.5373 18.3156 13.5195 18.345 13.4957 18.3686C13.3473 18.5038 13.1811 18.6626 13.009 18.8508C12.8191 19.0507 12.5935 19.2801 12.3264 19.5329C12.2255 19.6329 12.1305 19.7388 12.0296 19.8329C11.9881 19.8681 11.9525 19.9034 11.9168 19.9446C11.6616 20.1975 11.4064 20.4503 11.1512 20.7032C11.1274 20.7267 11.1037 20.7326 11.0859 20.762C11.0681 20.7973 11.0146 20.8326 10.985 20.862C10.9612 20.8855 10.9375 20.9032 10.9137 20.9149C10.8722 20.9443 10.8306 20.9737 10.8009 21.0149C10.7713 21.0561 10.7297 21.0855 10.7119 21.1384C10.7119 21.1501 10.7 21.156 10.6941 21.1619C10.6644 21.1854 10.6407 21.2148 10.6229 21.2442C10.611 21.2736 10.5873 21.2795 10.5576 21.2678C10.5517 21.2678 10.5457 21.256 10.5398 21.2501L10.5279 21.2089H10.522Z" fill="#F2BC88"/>
<path d="M20.0369 18.6385C20.0369 19.2384 20.0369 19.8323 20.0369 20.4322C20.0369 20.6792 20.0369 20.8262 20.0428 20.8673C20.0666 21.1143 20.1437 21.3907 20.2921 21.5907C20.2446 21.6436 20.2328 21.7083 20.2684 21.7847C20.6008 22.561 21.2003 23.3078 21.9897 23.6607C22.0313 23.6783 22.0728 23.696 22.1144 23.7077C22.1678 23.7195 22.2153 23.7312 22.2568 23.7312C22.334 23.7312 22.3399 23.7548 22.2687 23.79C22.2687 23.79 22.2509 23.8018 22.2271 23.8194C21.7642 23.9371 21.2952 23.9665 20.8145 23.9135C20.0725 23.8312 19.3602 23.4607 18.8735 22.8962C18.8616 22.8844 18.832 22.8374 18.7726 22.7609C18.7192 22.6845 18.6479 22.6315 18.6005 22.5492C18.5886 22.5257 18.5708 22.5081 18.553 22.4904C18.5233 22.461 18.4996 22.4375 18.4699 22.414C18.4639 22.4081 18.458 22.3963 18.458 22.3904C18.4521 22.361 18.4343 22.3375 18.4165 22.314C18.2562 21.9141 18.1434 21.5201 18.0959 21.1026C18.0841 20.9732 18.0781 20.785 18.0781 20.538C18.0781 20.0323 18.0781 19.5207 18.0781 19.0149L18.0959 18.9385C18.0959 18.9385 18.1256 18.9032 18.1315 18.8914C18.1315 18.8797 18.1434 18.8679 18.1553 18.8679C18.2503 18.8385 18.3393 18.815 18.4283 18.8032C18.5292 18.7914 18.6123 18.7797 18.6776 18.762C18.7548 18.7444 18.832 18.7268 18.9091 18.715C18.9863 18.7032 19.0634 18.6856 19.1465 18.668C19.3543 18.6209 19.562 18.5856 19.7757 18.5621C19.7757 18.5621 19.7995 18.5621 19.8469 18.5503C19.9419 18.5327 20.0013 18.568 20.031 18.6503L20.0369 18.6385Z" fill="#417A38"/>
<path d="M25.4326 21.1616C25.4326 21.2087 25.4326 21.2616 25.4326 21.3204C25.4207 21.6203 25.4326 21.9261 25.4326 22.226C25.4326 22.3907 25.4564 22.5495 25.4445 22.72C25.4385 22.82 25.4326 22.9258 25.4385 23.0317C25.4385 23.0729 25.4623 23.1317 25.4564 23.1728C25.4445 23.2257 25.4445 23.261 25.4445 23.2846V23.2081C25.4445 23.2081 25.4267 23.1728 25.4089 23.1728C25.4089 23.1728 25.4089 23.1728 25.4029 23.1728L22.3401 23.7903L22.2392 23.8197L22.2808 23.7903C22.352 23.755 22.352 23.7374 22.2689 23.7315C22.2274 23.7315 22.1799 23.7197 22.1265 23.708C22.0849 23.6962 22.0434 23.6786 22.0018 23.6609C21.2124 23.3081 20.6129 22.5612 20.2805 21.785C20.2449 21.7085 20.2567 21.6438 20.3042 21.5909C20.3458 21.6262 20.3933 21.6615 20.4407 21.7026C20.6129 21.8497 20.8028 21.9379 21.0165 21.979C21.2658 22.0261 21.4913 21.9908 21.7406 21.9379C22.8387 21.7144 23.9428 21.4909 25.0409 21.2675C25.213 21.2322 25.3436 21.1969 25.4385 21.1616H25.4326Z" fill="#6BB557"/>
<path d="M18.4165 22.3203C18.4165 22.3203 18.4521 22.3615 18.4581 22.3968C18.4581 22.4085 18.464 22.4144 18.4699 22.4203C18.4937 22.4438 18.5233 22.4732 18.553 22.4967C18.5708 22.5144 18.5886 22.532 18.6005 22.5555C18.648 22.6379 18.7192 22.6908 18.7726 22.7672C18.832 22.8437 18.8617 22.8907 18.8735 22.9025C19.3603 23.467 20.0725 23.8375 20.8145 23.9199C21.2953 23.9728 21.7642 23.9434 22.2272 23.8258L22.3281 23.7964C22.3103 23.8258 22.3103 23.8434 22.34 23.8493C22.4587 23.8787 22.5715 23.914 22.6783 23.961C23.1828 24.1786 23.6992 24.3962 24.2334 24.6255C24.4946 24.7373 24.7142 24.7843 24.9754 24.7432C25.1119 24.7196 25.2188 24.655 25.2959 24.5373C25.284 24.5903 25.2781 24.6432 25.2662 24.6961C25.2544 24.7549 25.2306 24.802 25.2069 24.8431C25.1713 24.9019 25.1357 24.9607 25.1 25.0196C24.7973 25.5194 24.37 25.9193 23.8239 26.1369C23.7823 26.1545 23.6933 26.1781 23.5508 26.2133C23.444 26.2427 23.3312 26.278 23.2184 26.331H23.1413C23.1413 26.331 23.1591 26.3133 23.1591 26.3074C23.1591 26.278 23.1472 26.2545 23.1175 26.2486C23.0701 26.2369 23.0285 26.2192 22.981 26.2016C22.3993 25.9487 21.8651 25.7194 21.3725 25.5135C20.7848 25.2724 20.2625 24.9255 19.7995 24.4727C19.4256 24.1139 19.111 23.714 18.8557 23.2789C18.7489 23.0966 18.6361 22.926 18.559 22.732C18.559 22.7261 18.553 22.7143 18.5471 22.7084C18.5412 22.7026 18.5352 22.6967 18.5352 22.6849C18.5233 22.6379 18.5115 22.5908 18.5055 22.5379C18.4937 22.4614 18.4581 22.3909 18.4343 22.3203H18.4165Z" fill="#A8A9AC"/>
<path d="M26.0736 26.3545C26.0736 26.3545 26.0914 26.3839 26.0854 26.4015C26.0854 26.4133 26.0736 26.4251 26.0617 26.4368C25.9548 26.5427 25.848 26.6485 25.7412 26.7426C25.5334 26.9426 25.3079 27.119 25.0704 27.2778C24.9695 27.3425 24.8746 27.3954 24.7855 27.4365C24.6905 27.4836 24.5956 27.5306 24.4887 27.5777C24.3878 27.6247 24.2691 27.6659 24.1267 27.7012C24.0614 27.7188 23.9961 27.7306 23.9308 27.7423C23.907 27.7423 23.8892 27.7306 23.8833 27.7129C23.8833 27.7071 23.8833 27.6953 23.8833 27.6894C23.9011 27.6482 23.9308 27.613 23.9664 27.5777C24.0139 27.5306 24.0495 27.4953 24.0673 27.4777C24.097 27.4424 24.1267 27.4071 24.1563 27.3719C24.1801 27.3483 24.2157 27.3072 24.2691 27.2366C24.2988 27.1954 24.3403 27.1543 24.3938 27.1131L24.4056 27.1013C24.4294 27.0661 24.4591 27.0308 24.4947 26.9955C24.5184 26.972 24.5422 26.9367 24.56 26.8955C24.6015 26.8191 24.6431 26.7544 24.6905 26.6956C24.928 26.6956 25.1476 26.6779 25.3613 26.6368C25.6165 26.5897 25.8421 26.4839 26.0617 26.3545H26.0736Z" fill="#EBA25F"/>
<circle cx="20" cy="20" r="19.5" stroke="black" stroke-opacity="0.05"/>
</svg>
