<svg width="40" height="40" viewBox="0 0 40 40" fill="none" xmlns="http://www.w3.org/2000/svg">
<circle cx="20" cy="20" r="20" fill="#F6F8FA"/>
<g clip-path="url(#clip0_17752_43894)">
<path d="M33.6955 16.2685L35.6226 16.9956V15.9584C35.6226 15.3277 35.0042 14.8459 34.7116 14.6532C34.6258 14.5971 34.5329 14.5533 34.4366 14.5201L31.3198 13.4934V15.403L33.6937 16.2685H33.6955Z" fill="url(#paint0_linear_17752_43894)"/>
<path d="M31.3215 20.5714L29.3926 21.6786C29.6781 23.0679 31.0307 22.5861 31.0307 22.5861L33.6954 21.3773V19.3345L31.3215 20.5714Z" fill="url(#paint1_linear_17752_43894)"/>
<path d="M31.3215 18.3218V13.4934L31.2952 13.4846L30.7678 13.3199C30.2072 13.2376 29.8603 13.5582 29.6553 13.9016C29.4679 14.2134 29.3838 14.5778 29.3838 14.9423V21.6295C29.3873 21.647 29.3908 21.661 29.3943 21.6785L31.3232 20.5713V18.3218H31.3215Z" fill="url(#paint2_linear_17752_43894)"/>
<path d="M35.6244 16.9956L33.6973 16.2686V21.3773L34.9569 20.8061C35.7821 20.3769 35.6244 19.6183 35.6244 19.6183V16.9956Z" fill="url(#paint3_linear_17752_43894)"/>
<path d="M25.4105 14.5202L24.0439 14.0068V14.7409C24.0439 15.1859 24.4837 15.5275 24.6904 15.6624C24.7517 15.7027 24.8166 15.7325 24.8849 15.7553L27.0959 16.4806V15.1316L25.4122 14.5202H25.4105Z" fill="url(#paint4_linear_17752_43894)"/>
<path d="M27.096 11.4805L28.4643 10.6992C28.2611 9.71631 27.3028 10.0579 27.3028 10.0579L25.4106 10.9111V12.353L27.0943 11.4788L27.096 11.4805Z" fill="url(#paint5_linear_17752_43894)"/>
<path d="M27.0957 13.0696V16.4807L27.115 16.4877L27.4899 16.6033C27.8876 16.6611 28.1329 16.4351 28.28 16.1934C28.4132 15.9726 28.4727 15.7151 28.4727 15.4575V10.7325C28.471 10.7202 28.4675 10.7097 28.4657 10.6992L27.0975 11.4806V13.0696H27.0957Z" fill="url(#paint6_linear_17752_43894)"/>
<path d="M24.044 14.0068L25.4105 14.5202V10.9111L24.517 11.3141C23.9336 11.6189 24.044 12.1533 24.044 12.1533V14.0068Z" fill="url(#paint7_linear_17752_43894)"/>
<g clip-path="url(#clip1_17752_43894)">
<path d="M9.65096 18.0171C11.1174 18.0192 12.4061 18.9504 12.785 20.3612C12.8835 20.723 12.9242 21.1661 12.907 21.6949C12.8878 22.3221 12.9756 23.0221 12.8236 23.6066C12.5367 24.7112 11.841 25.4669 10.732 25.8758C10.5094 25.9571 10.2161 25.9999 9.85433 25.9999C8.73258 25.9999 7.67077 25.9999 6.67103 25.9956C6.21291 25.9914 6.03095 25.5761 6.03523 25.15C6.0545 22.9429 6.05664 20.5988 6.04379 18.1155C6.04379 18.0427 6.08019 18.0063 6.15297 18.0063C7.34323 18.0128 8.5078 18.0149 9.64882 18.0171H9.65096ZM7.48452 18.837L7.46311 25.21C7.46311 25.2507 7.49736 25.2849 7.53804 25.2871L9.01944 25.2935C10.3724 25.2978 11.4727 24.1953 11.4792 22.8273L11.4834 21.2539C11.4877 19.8859 10.3959 18.7749 9.04299 18.7706L7.56159 18.7642C7.51877 18.7642 7.48452 18.7963 7.48452 18.8391V18.837Z" fill="#373736"/>
<path d="M15.189 18.0193H13.866C13.8365 18.0193 13.8125 18.0432 13.8125 18.0728V25.9444C13.8125 25.9739 13.8365 25.9979 13.866 25.9979H15.189C15.2186 25.9979 15.2425 25.9739 15.2425 25.9444V18.0728C15.2425 18.0432 15.2186 18.0193 15.189 18.0193Z" fill="#373736"/>
<path d="M16.97 21.8983C16.9465 21.9261 16.9465 21.954 16.9722 21.9818L20.5408 25.8951C20.605 25.9657 20.5879 26 20.4959 26H19.0937C19.0209 26 18.9502 25.9679 18.901 25.9144L15.4608 22.1081C15.3966 22.0375 15.3923 21.9283 15.4544 21.8534L18.5114 18.0813C18.5456 18.0385 18.597 18.015 18.6505 18.015L20.0228 18C20.0592 18 20.0891 18.03 20.0891 18.0664C20.0891 18.0813 20.0848 18.0963 20.0741 18.107L16.97 21.8983Z" fill="#373736"/>
<path d="M21.0913 18.7022V18.0921C21.0913 18.0557 21.1191 18.0278 21.1555 18.0278H27.9546C27.9888 18.03 28.0188 18.0578 28.0188 18.0942L28.0252 18.6979C28.0252 18.7343 27.9974 18.7621 27.961 18.7643H25.3364C25.3 18.7643 25.2722 18.7942 25.2722 18.8306L25.2786 25.9401C25.2786 25.9765 25.2508 26.0043 25.2144 26.0043H23.8829C23.8465 26.0021 23.8186 25.9722 23.8186 25.9379L23.8251 18.8263C23.8251 18.7899 23.7972 18.7621 23.7608 18.7621L21.1555 18.7707C21.1191 18.7707 21.0913 18.7428 21.0913 18.7065V18.7022Z" fill="#373736"/>
</g>
</g>
<circle cx="20" cy="20" r="19.5" stroke="black" stroke-opacity="0.05"/>
<defs>
<linearGradient id="paint0_linear_17752_43894" x1="31.4635" y1="14.7601" x2="34.9516" y2="15.601" gradientUnits="userSpaceOnUse">
<stop offset="0.03" stop-color="#006838"/>
<stop offset="1" stop-color="#86C440"/>
</linearGradient>
<linearGradient id="paint1_linear_17752_43894" x1="33.6639" y1="20.3716" x2="30.9676" y2="21.7329" gradientUnits="userSpaceOnUse">
<stop offset="0.03" stop-color="#006838"/>
<stop offset="1" stop-color="#86C440"/>
</linearGradient>
<linearGradient id="paint2_linear_17752_43894" x1="30.3141" y1="20.8744" x2="30.3894" y2="14.69" gradientUnits="userSpaceOnUse">
<stop offset="0.03" stop-color="#006838"/>
<stop offset="1" stop-color="#86C440"/>
</linearGradient>
<linearGradient id="paint3_linear_17752_43894" x1="34.6433" y1="17.325" x2="34.6696" y2="20.2192" gradientUnits="userSpaceOnUse">
<stop offset="0.03" stop-color="#006838"/>
<stop offset="1" stop-color="#86C440"/>
</linearGradient>
<linearGradient id="paint4_linear_17752_43894" x1="27.0906" y1="15.2595" x2="24.6904" y2="15.235" gradientUnits="userSpaceOnUse">
<stop offset="0.03" stop-color="#2E3389"/>
<stop offset="1" stop-color="#00ABE6"/>
</linearGradient>
<linearGradient id="paint5_linear_17752_43894" x1="25.5158" y1="11.5804" x2="27.2958" y2="10.7885" gradientUnits="userSpaceOnUse">
<stop offset="0.03" stop-color="#2E3389"/>
<stop offset="1" stop-color="#00ABE6"/>
</linearGradient>
<linearGradient id="paint6_linear_17752_43894" x1="27.7527" y1="11.2861" x2="27.8017" y2="15.1439" gradientUnits="userSpaceOnUse">
<stop offset="0.03" stop-color="#2E3389"/>
<stop offset="1" stop-color="#00ABE6"/>
</linearGradient>
<linearGradient id="paint7_linear_17752_43894" x1="24.7237" y1="14.4518" x2="24.7237" y2="11.929" gradientUnits="userSpaceOnUse">
<stop offset="0.03" stop-color="#2E3389"/>
<stop offset="1" stop-color="#00ABE6"/>
</linearGradient>
<clipPath id="clip0_17752_43894">
<rect width="30" height="16" fill="white" transform="translate(6.03516 10)"/>
</clipPath>
<clipPath id="clip1_17752_43894">
<rect width="21.9898" height="8" fill="white" transform="translate(6.03516 18)"/>
</clipPath>
</defs>
</svg>
