<svg width="40" height="40" viewBox="0 0 40 40" fill="none" xmlns="http://www.w3.org/2000/svg">
<circle cx="20" cy="20" r="20" fill="#F6F8FA"/>
<g clip-path="url(#clip0_24563_41713)">
<path d="M26.3763 18.2216C26.3356 18.2765 26.3017 18.3382 26.2746 18.4C25.7119 19.5525 24.8915 20.4786 23.8203 21.1852C21.5017 22.6944 18.5254 22.6944 16.2068 21.1852C15.2034 20.5198 14.4237 19.6623 13.8542 18.5989C13.7864 18.4754 13.7187 18.352 13.6509 18.2216C13.5966 18.0776 13.5424 17.9335 13.4814 17.7826C12.8712 16.1361 12.8441 14.5034 13.4068 12.8776C14.2203 10.5314 16.1864 8.80949 18.5932 8.3087C22.6475 7.45804 26.5661 10.3462 26.9797 14.4966C27.0136 14.819 27 15.1414 27.0068 15.4638C27.0203 16.4174 26.7424 17.3572 26.3831 18.2216H26.3763Z" fill="#EC612B"/>
<path d="M13.6443 18.2217C13.7121 18.352 13.7799 18.4755 13.8477 18.599C14.4172 19.6555 15.1968 20.5198 16.2002 21.1853C15.8951 21.3979 15.6714 21.5694 15.5358 21.6861C14.8375 22.2829 14.268 22.9895 13.8341 23.8058C13.7731 23.9225 13.7324 24.046 13.7053 24.1763C13.6782 24.1351 13.6578 24.1146 13.6375 24.1146C13.0273 22.7219 12.8578 21.2813 13.1426 19.7858C13.2443 19.2438 13.4138 18.7225 13.6511 18.2217H13.6443Z" fill="#F1A27C"/>
<path d="M26.3762 18.2217C26.7152 18.9489 26.9118 19.6898 26.9796 20.4444C27.0067 20.7256 27.0067 21.0824 26.9931 21.5146C26.9728 22.1663 26.8643 22.7905 26.6609 23.3874C26.5931 23.5863 26.505 23.8196 26.3965 24.094C26.3897 24.1146 26.3694 24.1351 26.3423 24.142C25.8203 23.0101 25.0542 22.0702 24.0372 21.3431C24.0372 21.3431 23.9965 21.3156 23.922 21.2745C23.8813 21.247 23.8474 21.2196 23.8135 21.1853C24.8847 20.4787 25.705 19.5526 26.2677 18.4C26.2948 18.3383 26.3287 18.2834 26.3694 18.2217H26.3762Z" fill="#F1A27C"/>
<path d="M16.2 21.1782C18.5187 22.6875 21.495 22.6875 23.8136 21.1782C23.8475 21.2125 23.8814 21.24 23.9221 21.2674C23.9967 21.3155 24.0306 21.336 24.0373 21.336C25.0543 22.0701 25.8204 23.003 26.3424 24.135C25.6238 25.6442 24.5323 26.7624 23.0678 27.4896C22.3628 27.8395 21.6441 28.0658 20.9051 28.155C18.1051 28.5049 15.4475 27.174 13.9899 24.7181C13.8678 24.5191 13.7797 24.3339 13.7119 24.1624C13.739 24.0252 13.7797 23.9017 13.8407 23.792C14.2746 22.9756 14.8441 22.269 15.5424 21.6722C15.678 21.5556 15.9017 21.3909 16.2068 21.1714L16.2 21.1782Z" fill="#EF8763"/>
<path d="M26.3968 24.0869C26.3968 24.1212 26.4036 24.1555 26.4172 24.1898C26.5053 24.4299 26.5866 24.67 26.668 24.917C26.8443 25.4658 26.9528 25.9392 26.9799 26.3508C27.0205 27.0025 27.0273 27.7091 26.9053 28.3677C26.6341 29.8083 26.0036 31.0294 25.0273 32.0447C24.207 32.8885 23.2239 33.4991 22.0646 33.8695C21.7528 33.9724 21.4273 34.041 21.0883 34.089C19.1968 34.3497 17.5019 33.945 15.99 32.8885C13.4138 31.0774 12.3358 27.6405 13.4477 24.6494C13.5155 24.4711 13.5833 24.2927 13.6511 24.1144C13.6714 24.1144 13.6917 24.1349 13.7189 24.1761C13.7799 24.3476 13.8748 24.5328 13.9968 24.7318C15.4477 27.1877 18.1053 28.5117 20.9121 28.1687C21.6511 28.0795 22.3697 27.8531 23.0748 27.5033C24.5392 26.7692 25.6307 25.651 26.3494 24.1487C26.3765 24.1349 26.3968 24.1212 26.4036 24.1006L26.3968 24.0869Z" fill="#F6C3AE"/>
</g>
<circle cx="20" cy="20" r="19.5" stroke="black" stroke-opacity="0.05"/>
<defs>
<clipPath id="clip0_24563_41713">
<rect width="14" height="26" fill="white" transform="translate(13 8.15771)"/>
</clipPath>
</defs>
</svg>
