<svg width="40" height="40" viewBox="0 0 40 40" fill="none" xmlns="http://www.w3.org/2000/svg">
<circle cx="20" cy="20" r="20" fill="#F6F8FA"/>
<path d="M31.1567 19.2418L30.4348 19.2403C30.4988 18.806 30.5302 18.514 30.5293 18.3646C30.5229 17.4738 30.3048 16.6366 29.8748 15.853C28.7949 13.8848 26.7062 12.5899 24.6241 11.8938C23.3972 11.4839 22.1196 11.243 20.7914 11.1712C19.3317 11.0927 17.9161 11.211 16.5439 11.5267C14.9481 11.8935 13.3935 12.5465 12.106 13.5094C11.0181 14.3228 10.1227 15.3732 9.67301 16.6511C9.46725 17.236 9.37516 17.8484 9.39641 18.4881C9.40165 18.6517 9.40904 18.8186 9.41859 18.9886L8.80502 18.9794C8.79763 18.4647 8.81303 18.0085 8.85122 17.6103C8.86909 17.4239 8.90235 17.2194 8.95133 16.997C9.62865 13.9129 12.5326 11.9779 15.3848 11.1457C16.6813 10.7674 18.0251 10.5694 19.4161 10.5509C19.7836 10.5459 20.1455 10.5463 20.5019 10.5515C22.7042 10.5841 24.9416 11.0542 26.8726 12.0521C29.089 13.1973 30.9689 15.1529 31.1373 17.7381C31.1469 17.8869 31.1564 18.0393 31.1654 18.1955C31.1743 18.348 31.1715 18.6969 31.1567 19.2418Z" fill="black"/>
<path d="M30.4344 19.2405L28.5407 19.2359C28.5306 19.2359 28.5226 19.2399 28.5167 19.2479L27.3019 20.8518C27.2985 20.8561 27.2923 20.8567 27.288 20.8533C27.2865 20.8521 27.2856 20.8508 27.285 20.849L26.7173 19.1749C26.7136 19.1641 26.7062 19.1589 26.6948 19.1586L23.4874 19.1333C23.4905 18.7856 23.4884 18.5115 23.4807 18.3109C23.4403 17.2397 22.4516 16.4967 21.5254 16.1782C20.4957 15.8237 19.4651 15.8172 18.4335 16.1585C17.5135 16.4628 16.5103 17.1873 16.4428 18.2416C16.4277 18.4803 16.4228 18.7708 16.4287 19.1127L15.9291 19.1152C15.9198 19.1152 15.9143 19.1198 15.9121 19.1287L15.6725 20.2514C15.6703 20.2607 15.6765 20.2699 15.686 20.2721C15.687 20.2721 15.6879 20.2724 15.6888 20.2724C15.9377 20.2841 16.1866 20.297 16.4354 20.3109C16.4539 20.3118 16.4668 20.3183 16.4739 20.3303C16.4675 20.3448 16.465 20.3648 16.4665 20.3903C16.4835 20.6826 16.5004 20.9192 16.5174 21.1C16.4628 21.5143 16.4028 21.9295 16.3372 22.3456C16.3051 22.5477 16.2645 22.9022 15.9685 22.8686C15.7698 22.8458 15.5511 22.8514 15.3127 22.885C15.3016 22.8865 15.2952 22.893 15.2936 22.9041L15.1513 23.8552C15.1504 23.8626 15.1535 23.87 15.1593 23.8746L16.319 24.7401C16.331 24.7491 16.3455 24.7543 16.3606 24.7546L16.9415 24.766L17.041 25.4141C17.0419 25.4212 17.037 25.4276 17.0299 25.4289C17.0293 25.4289 17.0287 25.4289 17.0284 25.4289C16.6966 25.4249 16.3424 25.4245 15.9651 25.4279C14.9101 25.4381 13.8552 25.4476 12.8002 25.4566C12.4759 25.4593 12.1934 25.4593 11.9526 25.4569C11.7508 25.4547 11.518 25.4738 11.3091 25.4646C11.27 25.4627 11.2355 25.439 11.2201 25.4033L10.9441 24.7632C11.6741 24.7712 12.4097 24.7743 13.1511 24.7722C13.3836 24.7716 13.5496 24.7605 13.6488 24.7386C14.0754 24.6446 14.4324 24.3357 14.6443 23.959C14.6924 23.8734 14.7435 23.789 14.7974 23.7055C14.8532 23.6196 14.8994 23.5336 14.9366 23.4474C15.1251 23.0085 15.244 22.5055 15.293 21.9381C15.3805 20.9244 15.066 20.0115 14.1771 19.45C13.8866 19.2667 13.5546 19.1339 13.1806 19.0523C13.0491 19.0237 12.8951 19.0095 12.718 19.0092C11.875 19.0083 11.0322 19.0012 10.1901 18.9886C10.1433 18.9876 10.0971 18.9876 10.0515 18.988C9.83652 18.9895 9.62553 18.9898 9.41823 18.9889C9.40868 18.8189 9.40129 18.6519 9.39605 18.4884C9.3748 17.8486 9.4669 17.2363 9.67265 16.6513C10.1224 15.3734 11.0178 14.3231 12.1057 13.5096C13.3932 12.5467 14.9477 11.8937 16.5435 11.5269C17.9158 11.2112 19.3314 11.0929 20.7911 11.1715C22.1192 11.2432 23.3969 11.4841 24.6237 11.8941C26.7059 12.5902 28.7945 13.8851 29.8744 15.8533C30.3044 16.6369 30.5225 17.4741 30.529 18.3648C30.5299 18.5142 30.4985 18.8062 30.4344 19.2405Z" fill="#FEBF00"/>
<path d="M23.4874 19.1332L23.3858 19.1381C23.3741 19.1387 23.3673 19.1449 23.3658 19.1566L23.197 20.3132C23.1954 20.324 23.2004 20.3298 23.2112 20.3308L23.4437 20.3477C23.4391 20.4823 23.4317 20.6172 23.4221 20.7521C23.3695 21.4917 23.2977 22.2315 23.2068 22.9711C23.0599 23.0102 22.8868 23.0009 22.735 23.0009C22.8227 22.1453 22.8914 21.2875 22.941 20.4275C22.9481 20.3009 22.941 20.1965 22.9185 20.1142C22.7325 19.4258 22.021 19.0072 21.3711 18.8055C20.9873 18.6866 20.5906 18.6204 20.1812 18.6065C20.0161 18.6009 19.8424 18.6013 19.6604 18.6074C19.0428 18.6281 18.4049 18.7827 17.8585 19.091C17.8538 19.0941 17.8489 19.0972 17.844 19.1002C17.8394 19.103 17.8341 19.1046 17.8283 19.1042C17.568 19.1027 17.3053 19.1042 17.0401 19.1089C17.0552 19.0842 17.0715 19.0639 17.0884 19.0482C17.4485 18.7103 17.8535 18.462 18.3036 18.3034C19.3921 17.9199 20.4818 17.9187 21.5731 18.2997C22.1211 18.491 22.5874 18.7984 22.9715 19.2213C22.978 19.2284 22.9814 19.2271 22.9817 19.2176C22.9888 18.8886 22.982 18.5732 22.9614 18.2711C22.9068 17.4801 22.1085 16.9592 21.4268 16.7245C21.2272 16.6558 21.0372 16.605 20.8567 16.5724C20.2062 16.455 19.5673 16.4612 18.9405 16.5912C18.0923 16.7667 17.1023 17.2913 16.9914 18.2569C16.9757 18.3927 16.9695 18.6773 16.9723 19.111L16.4287 19.1126C16.4228 18.7707 16.4277 18.4802 16.4428 18.2415C16.5103 17.1872 17.5135 16.4627 18.4335 16.1584C19.4651 15.8171 20.4957 15.8236 21.5254 16.1781C22.4516 16.4966 23.4403 17.2395 23.4807 18.3108C23.4884 18.5113 23.4905 18.7855 23.4874 19.1332Z" fill="black"/>
<path d="M17.0401 19.1089L16.9723 19.111C16.9696 18.6773 16.9757 18.3927 16.9914 18.2569C17.1023 17.2913 18.0923 16.7667 18.9405 16.5912C19.5673 16.4612 20.2062 16.455 20.8567 16.5724C21.0372 16.605 21.2272 16.6558 21.4268 16.7245C22.1085 16.9592 22.9068 17.4801 22.9614 18.2711C22.982 18.5732 22.9888 18.8886 22.9817 19.2176C22.9817 19.2271 22.978 19.2284 22.9715 19.2213C22.5874 18.7984 22.1211 18.491 21.5731 18.2997C20.4818 17.9187 19.3921 17.9199 18.3036 18.3034C17.8536 18.462 17.4485 18.7103 17.0884 19.0482C17.0715 19.0639 17.0552 19.0842 17.0401 19.1089Z" fill="#FF8B00"/>
<path d="M8.80483 18.9795L9.41839 18.9887C9.62569 18.9897 9.83668 18.9894 10.0517 18.9878C10.0973 18.9875 10.1435 18.9878 10.1903 18.9884C11.0324 19.0011 11.8751 19.0082 12.7182 19.0091C12.8953 19.0091 13.0493 19.0236 13.1808 19.0522C13.5547 19.1338 13.8868 19.2666 14.1772 19.4498C15.0662 20.0114 15.3806 20.9243 15.2932 21.938C15.2442 22.5054 15.1253 23.0083 14.9368 23.4473C14.8995 23.5335 14.8533 23.6194 14.7976 23.7054C14.7437 23.7889 14.6925 23.8733 14.6445 23.9589C14.4326 24.3356 14.0756 24.6445 13.649 24.7385C13.5498 24.7603 13.3838 24.7714 13.1512 24.772C12.4098 24.7742 11.6743 24.7711 10.9443 24.7631L10.4465 24.7656L10.1493 24.7662H9.6799L8.33326 24.7551C8.31693 24.7551 8.30122 24.7496 8.28829 24.74L7.01433 23.7861C7.00386 23.7781 6.99863 23.7648 7.00109 23.7519L7.17327 22.8245C7.17512 22.814 7.18128 22.8084 7.19206 22.8081C7.3821 22.7998 7.56969 22.794 7.7548 22.7903C7.91343 22.7872 8.02401 22.7133 8.08684 22.5688C8.12935 22.4709 8.12627 22.3646 8.14105 22.2586C8.2273 21.6401 8.32124 21.0072 8.42258 20.36C8.43367 20.2892 8.43428 20.235 8.42474 20.1971C8.39486 20.0791 8.25779 20.0335 8.14537 20.0311C7.96302 20.0277 7.77298 20.0268 7.57492 20.0289C7.57092 20.0289 7.56784 20.0258 7.56784 20.0218C7.56784 20.0212 7.56784 20.0209 7.56784 20.0203L7.73971 18.9943C7.74217 18.9789 7.75141 18.9712 7.76712 18.9712L8.80483 18.9795ZM13.9468 22.6862C14.0127 22.5377 14.0673 22.3868 14.1101 22.2334C14.2345 21.7883 14.3081 21.3297 14.3306 20.8575C14.3436 20.5861 14.3109 20.3274 14.2327 20.081C14.0787 19.5962 13.7608 19.2894 13.2791 19.1603C13.1719 19.1317 13.0243 19.1169 12.8367 19.1166C11.8415 19.115 10.8467 19.1086 9.85146 19.0972C9.81727 19.0969 9.7837 19.0966 9.75105 19.0966C9.12978 19.0981 8.48819 19.0944 7.82626 19.0858C7.81394 19.0858 7.80686 19.0916 7.80532 19.1036L7.69351 19.9267C7.69197 19.939 7.6972 19.9451 7.70983 19.9448C7.86538 19.9427 8.01816 19.9381 8.16754 19.9304C8.32155 19.9223 8.54702 19.9719 8.51468 20.1811C8.38931 20.997 8.27104 21.7914 8.15984 22.5648C8.14567 22.6621 8.09085 22.8777 7.96271 22.883C7.74556 22.8919 7.51486 22.9002 7.27122 22.9079C7.25982 22.9082 7.25305 22.9141 7.25089 22.9252L7.10366 23.6955C7.10089 23.7091 7.10674 23.7159 7.1206 23.7159C7.79176 23.7171 8.44722 23.7205 9.08882 23.7211C10.105 23.722 11.1008 23.7251 12.0763 23.7309C12.3609 23.7325 12.5657 23.722 12.6904 23.6995C13.2741 23.5939 13.693 23.256 13.9468 22.6862Z" fill="#004DFF"/>
<path d="M13.9469 22.6858C13.6931 23.2557 13.2742 23.5936 12.6905 23.6992C12.5657 23.7217 12.3609 23.7322 12.0763 23.7306C11.1008 23.7248 10.105 23.7217 9.08886 23.7208C8.44726 23.7202 7.7918 23.7168 7.12064 23.7155C7.10678 23.7155 7.10093 23.7088 7.1037 23.6952L7.25093 22.9249C7.25309 22.9138 7.25986 22.9079 7.27126 22.9076C7.5149 22.8999 7.7456 22.8916 7.96275 22.8827C8.09089 22.8774 8.14571 22.6618 8.15988 22.5645C8.27108 21.7911 8.38935 20.9967 8.51472 20.1808C8.54706 19.9716 8.32159 19.922 8.16758 19.93C8.01819 19.9377 7.86542 19.9424 7.70987 19.9445C7.69724 19.9445 7.69201 19.9387 7.69355 19.9263L7.80536 19.1033C7.8069 19.0913 7.81398 19.0852 7.8263 19.0855C8.48823 19.0941 9.12982 19.0978 9.75109 19.0962C9.78374 19.0962 9.81731 19.0962 9.8515 19.0969C10.8467 19.1083 11.8416 19.1147 12.8368 19.1163C13.0244 19.1166 13.1719 19.1314 13.2791 19.16C13.7608 19.2891 14.0787 19.5958 14.2327 20.0807C14.3109 20.3271 14.3436 20.5858 14.3307 20.8572C14.3082 21.3294 14.2346 21.788 14.1101 22.2331C14.0673 22.3865 14.0128 22.5374 13.9469 22.6858ZM13.7818 22.348C13.9299 21.9026 14.0171 21.4159 14.0479 20.9292C14.087 20.3111 13.9244 19.6534 13.2597 19.4434C13.1587 19.4116 13.0157 19.3953 12.8306 19.3944C11.2456 19.387 9.65961 19.3775 8.07302 19.3654C8.05793 19.3654 8.04961 19.3725 8.04746 19.3876L8.01296 19.6424C8.0108 19.6565 8.01696 19.663 8.03144 19.6614C8.23042 19.6399 8.42015 19.6411 8.59018 19.7539C8.74234 19.8546 8.81626 20.0406 8.7907 20.2109C8.68351 20.9271 8.57693 21.6398 8.47129 22.3492C8.46174 22.4133 8.45404 22.4773 8.44757 22.5414C8.4257 22.7588 8.33607 23.0176 8.13524 23.1223C8.08288 23.1497 8.01696 23.1639 7.93719 23.1648C7.78657 23.167 7.63841 23.1691 7.49272 23.1719C7.48903 23.1719 7.48687 23.1737 7.48625 23.1774L7.43759 23.4322C7.43697 23.4359 7.43851 23.4377 7.44251 23.4377C9.04142 23.4423 10.64 23.4482 12.238 23.455C12.4108 23.4556 12.5765 23.4448 12.741 23.4023C13.2985 23.2584 13.6077 22.8707 13.7818 22.348Z" fill="white"/>
<path d="M17.8587 19.0908C17.8611 19.1016 17.8719 19.1068 17.8907 19.1068C18.8058 19.1087 19.6837 19.105 20.5242 19.0957C20.7435 19.0936 20.9188 19.1059 21.0503 19.1333C21.9125 19.3135 22.612 19.8177 22.7139 20.7452C22.7706 21.2626 22.6033 21.8568 22.0896 22.0767C22.0865 22.078 22.0849 22.0816 22.0865 22.085C22.0865 22.0857 22.0871 22.0863 22.0877 22.0869C22.4863 22.5135 22.7432 23.1218 22.5618 23.6883C22.4176 24.138 22.1361 24.4552 21.7172 24.6403C21.2422 24.8501 20.714 24.7909 20.2005 24.7876C19.2802 24.7817 18.3623 24.7746 17.4469 24.766H16.9417L16.3608 24.7543C16.3457 24.754 16.3312 24.7487 16.3192 24.7398L15.1595 23.8743C15.1537 23.8697 15.1506 23.8623 15.1515 23.8549L15.2938 22.9037C15.2954 22.8927 15.3018 22.8862 15.3129 22.8846C15.5513 22.8511 15.77 22.8455 15.9687 22.8683C16.2647 22.9019 16.3054 22.5474 16.3374 22.3453C16.403 21.9292 16.4631 21.514 16.5176 21.0997C16.5391 20.9571 16.561 20.8154 16.5835 20.6746C16.6041 20.5431 16.5792 20.4331 16.508 20.3447C16.5022 20.3377 16.4951 20.3337 16.4865 20.3321L16.4741 20.33C16.4671 20.318 16.4541 20.3115 16.4356 20.3106C16.1868 20.2967 15.9379 20.2838 15.689 20.2721C15.6795 20.2714 15.6718 20.2634 15.6724 20.2539C15.6724 20.253 15.6724 20.252 15.6727 20.2511L15.9123 19.1284C15.9145 19.1195 15.92 19.1148 15.9293 19.1148L16.4289 19.1124L16.9725 19.1108L17.0403 19.1087C17.3055 19.1041 17.5682 19.1025 17.8285 19.1041C17.8343 19.1041 17.8396 19.1028 17.8442 19.1001C17.8491 19.097 17.8541 19.0939 17.8587 19.0908ZM21.4166 21.3809C21.6596 21.2438 21.8293 21.0267 21.9257 20.7295C21.9661 20.605 21.9879 20.4966 21.991 20.4045C22.011 19.8301 21.654 19.4047 21.1076 19.2535C21.0097 19.2267 20.8594 19.2128 20.6567 19.2122C20.0918 19.2109 19.5318 19.2076 18.9765 19.2082C17.9776 19.2091 16.9784 19.2045 15.9795 19.1943C15.9727 19.1943 15.9672 19.1989 15.9659 19.2054L15.8085 20.1251C15.8067 20.1362 15.8141 20.147 15.8255 20.1489C15.8261 20.1489 15.827 20.1489 15.8276 20.1489C16.0559 20.1602 16.2672 20.1741 16.4612 20.1907C16.5555 20.1991 16.7252 20.257 16.7082 20.3632C16.5958 21.0701 16.488 21.7641 16.3845 22.4451C16.3636 22.5819 16.338 22.9709 16.1329 22.9758C15.8652 22.9823 15.6172 22.9857 15.3884 22.9866C15.3724 22.9866 15.3585 22.9983 15.3564 23.0143L15.2439 23.8031C15.2418 23.817 15.2476 23.8238 15.2615 23.8238C15.6345 23.8247 16.0063 23.8244 16.3774 23.8225C16.4279 23.8222 16.4754 23.8315 16.5253 23.8315C17.0363 23.8306 17.5118 23.8327 17.9523 23.8379C17.9699 23.8379 17.9877 23.8379 18.0062 23.8379C18.5141 23.8379 18.9916 23.8398 19.4385 23.8441C19.7687 23.8472 20.0484 23.8466 20.2772 23.842C20.7777 23.8321 21.4323 23.6291 21.7187 23.1619C22.101 22.5387 21.9731 21.878 21.4141 21.4068C21.4021 21.3966 21.403 21.388 21.4166 21.3803V21.3809Z" fill="#004DFF"/>
<path d="M21.4142 21.4076C21.9733 21.8789 22.1011 22.5396 21.7189 23.1627C21.4324 23.6299 20.7779 23.8329 20.2774 23.8428C20.0485 23.8474 19.7688 23.848 19.4386 23.8449C18.9917 23.8406 18.5143 23.8385 18.0064 23.8388C17.9879 23.8388 17.97 23.8388 17.9525 23.8388C17.512 23.8335 17.0364 23.8314 16.5254 23.8323C16.4755 23.8323 16.4281 23.8231 16.3776 23.8234C16.0064 23.8252 15.6347 23.8255 15.2616 23.8246C15.2478 23.8246 15.2419 23.8178 15.2441 23.804L15.3565 23.0151C15.3587 22.9991 15.3725 22.9874 15.3885 22.9874C15.6174 22.9865 15.8654 22.9831 16.133 22.9766C16.3382 22.9717 16.3637 22.5827 16.3847 22.4459C16.4882 21.7649 16.596 21.0709 16.7084 20.364C16.7253 20.2578 16.5556 20.1999 16.4614 20.1916C16.2673 20.1749 16.056 20.1611 15.8278 20.1497C15.8164 20.1491 15.8078 20.1392 15.8084 20.1278C15.8084 20.1272 15.8084 20.1263 15.8084 20.1256L15.9658 19.2059C15.967 19.1994 15.9725 19.1948 15.9793 19.1948C16.9782 19.205 17.9774 19.2096 18.9763 19.2087C19.5317 19.2081 20.0916 19.2115 20.6565 19.2127C20.8592 19.2133 21.0095 19.2272 21.1075 19.254C21.6539 19.4052 22.0109 19.8306 21.9908 20.405C21.9878 20.4971 21.9659 20.6055 21.9255 20.73C21.8291 21.0272 21.6594 21.2444 21.4164 21.3814C21.4028 21.3891 21.4019 21.3977 21.4139 21.4079L21.4142 21.4076ZM20.7508 21.2822C20.8718 21.2604 20.9932 21.2336 21.1149 21.2012C21.4275 21.119 21.6034 20.8692 21.6841 20.5649C21.766 20.2569 21.6603 19.8993 21.4044 19.7049C21.1851 19.5386 20.9578 19.4856 20.6682 19.4868C20.1267 19.4893 19.5834 19.4905 19.0385 19.4902C19.0117 19.4902 18.9871 19.4816 18.9618 19.4819C17.9974 19.4841 17.0845 19.4816 16.2227 19.4742C16.2088 19.4742 16.2008 19.4807 16.1986 19.4945L16.1358 19.8685C16.1336 19.882 16.1392 19.8891 16.153 19.89C16.4413 19.9094 16.8661 19.8943 16.9702 20.2415C16.9896 20.3065 16.9899 20.3973 16.9705 20.5134C16.8609 21.1747 16.7595 21.8182 16.6665 22.4432C16.6243 22.7284 16.6049 23.0706 16.3101 23.2147C16.2525 23.2428 16.1838 23.2569 16.1047 23.2569C15.9343 23.2569 15.7683 23.2597 15.6063 23.2659C15.6026 23.2659 15.6005 23.2677 15.6002 23.2714L15.5632 23.5388C15.5626 23.5428 15.5641 23.5446 15.5681 23.5446C16.365 23.5526 17.1624 23.5579 17.9602 23.56H18.0218C18.6951 23.56 19.406 23.5616 20.1548 23.5653C20.3032 23.5659 20.4425 23.5545 20.5724 23.5314C20.9439 23.4655 21.3311 23.293 21.5103 22.9625C21.5716 22.85 21.6151 22.7401 21.6409 22.6329C21.7543 22.1635 21.4309 21.7289 21.048 21.4818C20.9519 21.4199 20.8515 21.3614 20.7471 21.3063C20.7409 21.3029 20.7385 21.2949 20.7418 21.2887C20.7437 21.2853 20.7468 21.2829 20.7508 21.2822Z" fill="white"/>
<path d="M13.7818 22.3482C13.6078 22.8709 13.2985 23.2587 12.741 23.4026C12.5766 23.4451 12.4108 23.4559 12.238 23.4552C10.6401 23.4485 9.04147 23.4426 7.44256 23.438C7.43856 23.438 7.43702 23.4362 7.43763 23.4325L7.4863 23.1777C7.48691 23.174 7.48907 23.1722 7.49277 23.1722C7.63846 23.1694 7.78661 23.1673 7.93723 23.1651C8.01701 23.1642 8.08292 23.15 8.13529 23.1226C8.33611 23.0179 8.42574 22.7591 8.44761 22.5417C8.45408 22.4776 8.46178 22.4135 8.47133 22.3495C8.57698 21.6401 8.68355 20.9274 8.79074 20.2112C8.81631 20.0409 8.74238 19.8549 8.59022 19.7541C8.4202 19.6414 8.23046 19.6402 8.03148 19.6617C8.01701 19.6633 8.01085 19.6568 8.013 19.6426L8.0475 19.3879C8.04966 19.3728 8.05797 19.3654 8.07307 19.3657C9.65965 19.3777 11.2456 19.3873 12.8307 19.3947C13.0158 19.3956 13.1587 19.4119 13.2597 19.4437C13.9244 19.6537 14.0871 20.3113 14.0479 20.9295C14.0171 21.4162 13.93 21.9029 13.7818 22.3482ZM12.1595 22.7785C12.4983 22.0895 12.5898 21.3296 12.6098 20.5165C12.6141 20.3458 12.5997 20.2183 12.5661 20.1342C12.4595 19.8659 12.2208 19.7594 11.9408 19.7634C11.4387 19.7708 10.9613 19.7692 10.5088 19.7591C10.4975 19.7591 10.491 19.7643 10.4894 19.7754L9.95904 23.1916C9.95781 23.1999 9.96335 23.2076 9.97167 23.2088C9.97259 23.2088 9.97321 23.2088 9.97413 23.2088C10.3545 23.2061 10.7466 23.2073 11.1501 23.2125C11.2761 23.2141 11.3756 23.2091 11.448 23.1974C11.7338 23.1503 12.0237 23.0545 12.1595 22.7782V22.7785Z" fill="#FE0000"/>
<path d="M20.7507 21.2822C20.7436 21.2837 20.739 21.2905 20.7405 21.2973C20.7412 21.301 20.7436 21.3044 20.747 21.3062C20.8514 21.3613 20.9518 21.4199 21.0479 21.4818C21.4308 21.7288 21.7542 22.1634 21.6409 22.6328C21.615 22.74 21.5716 22.85 21.5103 22.9624C21.331 23.2929 20.9438 23.4654 20.5724 23.5313C20.4424 23.5544 20.3032 23.5658 20.1547 23.5652C19.4059 23.5615 18.695 23.5596 18.0217 23.56H17.9601C17.1623 23.5578 16.3649 23.5526 15.568 23.5445C15.564 23.5445 15.5625 23.5427 15.5631 23.5387L15.6001 23.2713C15.6004 23.2676 15.6025 23.2658 15.6062 23.2658C15.7683 23.2596 15.9343 23.2566 16.1046 23.2569C16.1838 23.2569 16.2525 23.2427 16.3101 23.2147C16.6048 23.0705 16.6242 22.7283 16.6664 22.4431C16.7595 21.8181 16.8608 21.1747 16.9704 20.5134C16.9898 20.3973 16.9895 20.3064 16.9701 20.2414C16.866 19.8943 16.4413 19.9094 16.153 19.89C16.1391 19.889 16.1336 19.8819 16.1357 19.8684L16.1986 19.4945C16.2007 19.4806 16.2087 19.4738 16.2226 19.4741C17.0844 19.4815 17.9974 19.484 18.9618 19.4818C18.987 19.4815 19.0117 19.4901 19.0385 19.4901C19.5833 19.4901 20.1267 19.4892 20.6682 19.4868C20.9577 19.4855 21.185 19.5385 21.4043 19.7048C21.6603 19.8992 21.7659 20.2568 21.684 20.5648C21.6033 20.8691 21.4274 21.1189 21.1148 21.2012C20.9931 21.2335 20.8718 21.2603 20.7507 21.2822ZM19.9637 19.9281C19.8285 19.8705 19.7176 19.897 19.579 19.897C19.2744 19.8973 18.9685 19.8973 18.6618 19.897C18.6504 19.897 18.6439 19.9026 18.6423 19.914L18.4702 21.1593C18.4683 21.1713 18.4736 21.1771 18.4856 21.1771C18.7554 21.1734 19.0702 21.1738 19.4296 21.1781C19.6037 21.1802 19.7349 21.1654 19.8239 21.134C19.9868 21.0764 20.1103 20.9865 20.1944 20.8642C20.4208 20.5349 20.3494 20.092 19.9637 19.9281ZM19.6874 21.6422C19.6206 21.6099 19.5535 21.5936 19.486 21.593C19.2026 21.5908 18.8561 21.5902 18.4464 21.5917C18.436 21.5917 18.4298 21.597 18.4277 21.6074L18.1501 23.1176C18.1489 23.1244 18.1535 23.1312 18.1603 23.1321C18.1612 23.1321 18.1618 23.1321 18.1628 23.1321C18.3861 23.1287 18.6245 23.1309 18.8777 23.1392C19.1133 23.1469 19.2876 23.1337 19.401 23.0995C19.7426 22.9969 19.9416 22.757 19.9979 22.3803C20.0404 22.0944 19.9619 21.7744 19.6874 21.6419V21.6422Z" fill="#FE0000"/>
<path d="M12.6096 20.5162C12.5896 21.3294 12.4981 22.0892 12.1593 22.7783C12.0234 23.0546 11.7336 23.1504 11.4477 23.1975C11.3754 23.2092 11.2759 23.2141 11.1499 23.2126C10.7464 23.2073 10.3543 23.2061 9.9739 23.2089C9.96527 23.2089 9.9585 23.2021 9.9585 23.1935C9.9585 23.1926 9.9585 23.1919 9.9585 23.1913L10.4889 19.7751C10.4904 19.764 10.4969 19.7585 10.5083 19.7588C10.9608 19.769 11.4382 19.7705 11.9403 19.7631C12.2203 19.7591 12.459 19.8657 12.5655 20.134C12.5991 20.2181 12.6136 20.3456 12.6093 20.5162H12.6096ZM11.2904 22.9335C11.3843 22.9283 11.4998 22.9039 11.6375 22.8605C11.7801 22.8155 11.8796 22.7321 11.9363 22.6104C12.0604 22.3437 12.1485 22.0655 12.2008 21.776C12.2646 21.4233 12.3028 21.1208 12.3151 20.8683C12.3351 20.6246 12.3395 20.4432 12.3284 20.324C12.3114 20.1414 12.163 20.0422 11.9862 20.0425C11.5827 20.0434 11.1668 20.0431 10.739 20.0422C10.7335 20.0422 10.7288 20.0462 10.7279 20.052L10.2828 22.9141C10.2813 22.924 10.2856 22.9289 10.2958 22.9289L11.2904 22.9335Z" fill="white"/>
<path d="M19.9637 19.9283C20.3493 20.0922 20.4207 20.5351 20.1944 20.8644C20.1103 20.9866 19.9868 21.0766 19.8238 21.1342C19.7348 21.1656 19.6036 21.1804 19.4296 21.1782C19.0701 21.1739 18.7553 21.1736 18.4855 21.1773C18.4735 21.1773 18.4682 21.1715 18.4701 21.1594L18.6423 19.9141C18.6438 19.9027 18.6503 19.8972 18.6617 19.8972C18.9685 19.8975 19.2743 19.8975 19.5789 19.8972C19.7175 19.8972 19.8284 19.8707 19.9637 19.9283ZM19.5568 20.6367H19.972C19.9994 20.6367 20.0166 20.6235 20.0237 20.5967C20.073 20.4057 20.0246 20.272 19.8783 20.196C19.8408 20.1766 19.8016 20.1673 19.761 20.1682C19.4758 20.1763 19.1899 20.1778 18.9035 20.1732C18.8942 20.1732 18.8865 20.1796 18.8853 20.1886L18.7895 20.8767C18.7873 20.8912 18.7938 20.8986 18.8086 20.8986H19.485C19.4942 20.8986 19.5019 20.8918 19.5032 20.8828L19.5337 20.6571C19.5355 20.6435 19.5432 20.6367 19.5568 20.6367Z" fill="white"/>
<path d="M12.3153 20.8686L11.6512 20.9246C11.6383 20.9256 11.6278 20.9351 11.6257 20.9477C11.5105 21.5995 11.3956 22.2506 11.2813 22.9012C11.2804 22.9067 11.281 22.9119 11.2828 22.9169C11.2847 22.9218 11.2871 22.9274 11.2905 22.9338L10.296 22.9292C10.2858 22.9292 10.2815 22.9243 10.283 22.9144L10.7281 20.0523C10.729 20.0465 10.7336 20.0425 10.7392 20.0425C11.167 20.0434 11.5828 20.0437 11.9863 20.0428C12.1631 20.0425 12.3116 20.1417 12.3285 20.3243C12.3396 20.4435 12.3353 20.6249 12.3153 20.8686Z" fill="#004DFF"/>
<path d="M19.5336 20.6569L19.5031 20.8826C19.5019 20.8916 19.4942 20.8983 19.485 20.8983H18.8086C18.7938 20.8983 18.7873 20.8909 18.7895 20.8765L18.8853 20.1884C18.8865 20.1794 18.8942 20.1727 18.9034 20.173C19.1899 20.1776 19.4757 20.176 19.7609 20.168C19.8016 20.1671 19.8407 20.1763 19.8783 20.1958C20.0246 20.2718 20.073 20.4055 20.0237 20.5965C20.0166 20.6233 19.9994 20.6365 19.9719 20.6365H19.5567C19.5432 20.6365 19.5355 20.6433 19.5336 20.6569Z" fill="#004DFF"/>
<path d="M16.4741 20.3301L16.4865 20.3322C16.4951 20.3338 16.5022 20.3378 16.508 20.3449C16.5792 20.4333 16.6041 20.5432 16.5835 20.6747C16.561 20.8155 16.5391 20.9572 16.5176 21.0998C16.5006 20.919 16.4837 20.6824 16.4668 20.3901C16.4652 20.3646 16.4677 20.3446 16.4741 20.3301Z" fill="black"/>
<path d="M23.4439 20.3477C23.5579 20.3523 23.674 20.3575 23.792 20.3627C23.9038 20.368 23.9333 20.5094 23.9256 20.5993C23.9133 20.7395 23.8674 20.8673 23.8437 21.005C23.7498 21.5486 23.6537 22.1123 23.5557 22.6953C23.5268 22.8678 23.361 22.9507 23.207 22.971C23.2979 22.2315 23.3697 21.4916 23.4223 20.7521C23.4319 20.6172 23.4393 20.4823 23.4439 20.3477Z" fill="#FEBF00"/>
<path d="M12.3152 20.8687C12.3029 21.1212 12.2647 21.4237 12.2009 21.7764C12.1486 22.0659 12.0605 22.344 11.9363 22.6108C11.8797 22.7325 11.7802 22.8159 11.6376 22.8609C11.4999 22.9043 11.3844 22.9287 11.2904 22.9339C11.287 22.9274 11.2846 22.9219 11.2827 22.917C11.2809 22.912 11.2803 22.9068 11.2812 22.9012C11.3955 22.2507 11.5103 21.5996 11.6255 20.9478C11.6277 20.9352 11.6382 20.9256 11.6511 20.9247L12.3152 20.8687Z" fill="#FEBF00"/>
<path d="M19.6875 21.6422C19.962 21.7746 20.0405 22.0947 19.998 22.3805C19.9416 22.7572 19.7426 22.9971 19.4011 23.0997C19.2877 23.1339 19.1134 23.1472 18.8777 23.1395C18.6246 23.1311 18.3862 23.129 18.1628 23.1324C18.1558 23.1324 18.1502 23.1268 18.1499 23.12C18.1499 23.1191 18.1499 23.1185 18.1499 23.1176L18.4274 21.6074C18.4296 21.5969 18.4357 21.5917 18.4462 21.5917C18.8559 21.5901 19.2024 21.5908 19.4858 21.5929C19.5532 21.5935 19.6204 21.6098 19.6872 21.6422H19.6875ZM19.3358 22.3306H19.7072C19.7171 22.3306 19.7251 22.3238 19.7263 22.3143C19.7528 22.1079 19.6835 21.8649 19.4294 21.8667C19.1682 21.8689 18.9156 21.8695 18.672 21.8689C18.6668 21.8689 18.6621 21.8726 18.6612 21.8778L18.4844 22.8394C18.4832 22.8456 18.4875 22.8515 18.4936 22.8527C18.4943 22.8527 18.4949 22.8527 18.4958 22.8527C18.7324 22.8561 18.9729 22.8706 19.2061 22.8539C19.2163 22.8533 19.2221 22.8481 19.224 22.8382L19.3139 22.3485C19.316 22.3365 19.3234 22.3303 19.3358 22.3303V22.3306Z" fill="white"/>
<path d="M19.3137 22.3488L19.2237 22.8385C19.2219 22.8484 19.216 22.8536 19.2059 22.8542C18.9727 22.8708 18.7321 22.8564 18.4956 22.853C18.4891 22.853 18.4839 22.8477 18.4839 22.8413C18.4839 22.8407 18.4839 22.84 18.4839 22.8394L18.6607 21.8778C18.6616 21.8726 18.6662 21.8689 18.6715 21.8689C18.9151 21.8695 19.1677 21.8689 19.4289 21.8667C19.683 21.8649 19.7523 22.1079 19.7258 22.3143C19.7246 22.3238 19.7166 22.3309 19.7067 22.3309H19.3352C19.3229 22.3306 19.3155 22.3367 19.3134 22.3488H19.3137Z" fill="#004DFF"/>
<path d="M22.6309 23.9944L23.0258 24.312L22.8748 25.3439C22.873 25.3559 22.8813 25.367 22.8933 25.3685C22.8942 25.3685 22.8952 25.3685 22.8964 25.3685L28.498 25.3861C28.5106 25.3861 28.522 25.3787 28.5272 25.3673L28.794 24.7633L29.4426 24.7731C29.3105 25.0956 29.1753 25.4122 29.0364 25.7224C29.0163 25.768 29.0043 25.8157 29.0034 25.8644C28.9988 26.1755 28.9954 26.5011 28.9932 26.8414C28.9929 26.8898 28.9812 26.9406 28.9834 26.988C28.9855 27.0306 28.9945 27.0321 29.0108 26.993C29.3028 26.2876 29.5634 25.5635 29.7925 24.8209C29.7972 24.8055 29.8039 24.7968 29.8104 24.782L30.2318 24.7888C29.9133 25.8961 29.5101 26.9693 29.0219 28.0088C29.0173 28.0184 29.0108 28.0233 29.0022 28.0233L22.5431 28.0036C22.5342 28.0036 22.5292 27.999 22.5286 27.9897C22.4947 27.3635 22.4612 26.7389 22.4279 26.1151C22.4251 26.0603 22.4183 26.007 22.4079 25.9553C22.3977 25.9051 22.3993 25.8499 22.4122 25.7905C22.4147 25.7791 22.4143 25.7668 22.4113 25.7554C22.3946 25.6928 22.398 25.6402 22.4211 25.5971C22.4374 25.5669 22.4479 25.5314 22.4532 25.4911C22.5157 24.9986 22.5751 24.4996 22.6309 23.9941V23.9944ZM28.5115 27.422C28.5174 27.422 28.522 27.4177 28.5223 27.4119L28.5891 25.9935C28.5894 25.9876 28.5848 25.9824 28.579 25.9821C28.579 25.9821 28.5786 25.9821 28.5783 25.9821L22.9192 25.9701C22.9133 25.9701 22.9084 25.975 22.9084 25.9808C22.9084 25.9808 22.9084 25.9808 22.9084 25.9811L22.9642 27.3971C22.9642 27.4029 22.9691 27.4076 22.9749 27.4076L28.5115 27.422Z" fill="black"/>
<path d="M28.7939 24.7638L28.5272 25.3678C28.522 25.3792 28.5106 25.3866 28.4979 25.3866L22.8964 25.3691C22.8844 25.3691 22.8745 25.3592 22.8745 25.3472C22.8745 25.3463 22.8745 25.3454 22.8745 25.3441L23.0254 24.3123L23.5158 24.7176C23.5324 24.7315 23.5531 24.7389 23.5746 24.7389L26.2661 24.7506C26.2815 24.7506 26.2886 24.7429 26.2876 24.7278L26.2405 24.0178C26.2396 24.0033 26.2439 24.0015 26.2537 24.0123C26.3043 24.0686 26.3378 24.1339 26.3994 24.1811C26.6425 24.3662 26.8846 24.5513 27.1264 24.737C27.1359 24.7444 27.1467 24.7481 27.1587 24.7484L27.7655 24.7589C27.7769 24.7589 27.7858 24.7546 27.7923 24.7453L28.1197 24.2913C28.1246 24.2849 28.1339 24.2833 28.1403 24.2883C28.1403 24.2883 28.141 24.2889 28.1413 24.2889C28.303 24.429 28.4748 24.5778 28.6563 24.7352C28.6735 24.75 28.6935 24.7564 28.7163 24.7549C28.7567 24.7518 28.7822 24.7549 28.7936 24.7638H28.7939Z" fill="#FEBF00"/>
<path d="M9.67969 24.7663H10.1491C10.3527 25.4553 10.6007 26.1258 10.8923 26.7779C10.9161 26.8309 10.9444 26.8811 10.9774 26.9285C10.9851 26.9396 10.9888 26.9384 10.9881 26.9251C10.9761 26.6279 10.9638 26.3307 10.9512 26.0334C10.9496 26.0017 10.9416 25.9691 10.9268 25.9355C10.7577 25.5514 10.5976 25.1614 10.4463 24.7656L10.9441 24.7632L11.2201 25.4032C11.2355 25.439 11.27 25.4627 11.3091 25.4645C11.5179 25.4738 11.7508 25.4547 11.9525 25.4568C12.1934 25.4593 12.4758 25.4593 12.8002 25.4565C13.8551 25.4476 14.9101 25.438 15.965 25.4279C16.3424 25.4245 16.6966 25.4248 17.0283 25.4288C17.0354 25.4288 17.0412 25.423 17.0409 25.4156C17.0409 25.4149 17.0409 25.4143 17.0409 25.414L16.9415 24.766H17.4466C17.4931 25.1085 17.5393 25.4507 17.5855 25.7932C17.592 25.8391 17.6151 25.8677 17.6095 25.9185C17.5328 26.6338 17.4592 27.3314 17.3887 28.0118C17.3875 28.0251 17.3801 28.0315 17.3668 28.0315L10.9154 28.0223C10.9087 28.0223 10.9025 28.0183 10.8994 28.0121C10.3943 26.9766 9.99663 25.8739 9.67969 24.7663ZM11.3966 27.4026C11.3966 27.4124 11.4015 27.4174 11.4113 27.4177C12.6154 27.4287 13.7175 27.4355 14.7179 27.4377C14.7872 27.4377 14.8565 27.438 14.9258 27.4383C15.6515 27.4395 16.323 27.4398 16.9402 27.4392C16.9467 27.4392 16.9522 27.434 16.9525 27.4272L17.0157 26.0048C17.0163 25.9885 17.0083 25.9802 16.992 25.9802C15.2652 25.9761 13.569 25.9731 11.9032 25.9712C11.7443 25.9712 11.5845 25.9623 11.424 25.9611C11.4126 25.9611 11.4067 25.9666 11.4067 25.9783C11.4073 26.1185 11.3941 26.2598 11.395 26.4031C11.3975 26.7342 11.3981 27.0674 11.3966 27.4026Z" fill="black"/>
<path d="M10.4466 24.7656C10.5979 25.1614 10.7581 25.5514 10.9272 25.9355C10.9419 25.969 10.9499 26.0017 10.9515 26.0334C10.9641 26.3306 10.9764 26.6279 10.9884 26.9251C10.9891 26.9384 10.9854 26.9396 10.9777 26.9285C10.9447 26.8811 10.9164 26.8309 10.8927 26.7779C10.601 26.1258 10.353 25.4553 10.1494 24.7662L10.4466 24.7656Z" fill="#FF8B00"/>
<path d="M29.8107 24.7824C29.8042 24.7972 29.7974 24.8058 29.7928 24.8212C29.5637 25.5638 29.3031 26.2879 29.0111 26.9933C28.9948 27.0324 28.9858 27.0309 28.9837 26.9884C28.9815 26.9409 28.9932 26.8901 28.9935 26.8418C28.9957 26.5014 28.9991 26.1758 29.0037 25.8647C29.0046 25.8161 29.0166 25.7683 29.0366 25.7227C29.1756 25.4126 29.3108 25.0959 29.4429 24.7734C29.5618 24.7774 29.6819 24.7787 29.8036 24.7765C29.8054 24.7765 29.8067 24.7774 29.8073 24.7796C29.8076 24.7811 29.8088 24.7821 29.8107 24.7824Z" fill="#FF8B00"/>
<path d="M11.3966 27.4025C11.3981 27.0673 11.3975 26.7341 11.3951 26.403C11.3941 26.2597 11.4074 26.1183 11.4068 25.9782C11.4068 25.9665 11.4126 25.9606 11.424 25.9609C11.5845 25.9622 11.7444 25.9711 11.9033 25.9711C13.569 25.973 15.2653 25.976 16.992 25.98C17.0083 25.98 17.0163 25.9884 17.0157 26.0047L16.9526 27.4271C16.9523 27.4339 16.9467 27.4391 16.9403 27.4391C16.323 27.4397 15.6515 27.4394 14.9258 27.4382C14.8565 27.4382 14.7872 27.4379 14.7179 27.4376C13.7175 27.4354 12.6154 27.4286 11.4114 27.4176C11.4015 27.4176 11.3966 27.4123 11.3966 27.4025Z" fill="#FF8B00"/>
<path d="M28.5118 27.4222L22.9752 27.4077C22.9694 27.4077 22.9648 27.4031 22.9644 27.3972L22.9087 25.9813C22.9087 25.9755 22.9133 25.9705 22.9192 25.9702C22.9192 25.9702 22.9192 25.9702 22.9195 25.9702L28.5786 25.9822C28.5845 25.9822 28.5894 25.9872 28.5894 25.993C28.5894 25.993 28.5894 25.9933 28.5894 25.9936L28.5226 27.412C28.5223 27.4179 28.5176 27.4222 28.5118 27.4222Z" fill="#FF8B00"/>
<path d="M31.758 23.2314C31.7617 23.216 31.7715 23.2086 31.7872 23.2096C31.8294 23.2114 31.8793 23.213 31.9067 23.2508C32.0999 23.5182 32.2884 23.7769 32.4716 24.0267C32.4793 24.0372 32.4821 24.0489 32.4803 24.0622L32.374 24.8122C32.3722 24.8254 32.3648 24.8319 32.3515 24.8316L30.2321 24.7894L29.8107 24.7826C29.8089 24.7823 29.8076 24.7814 29.8073 24.7798C29.8067 24.7777 29.8055 24.7768 29.8036 24.7768C29.6819 24.7789 29.5618 24.7777 29.4429 24.7737L28.7942 24.7638C28.7829 24.7549 28.7573 24.7518 28.7169 24.7549C28.6941 24.7564 28.6741 24.75 28.6569 24.7352C28.4755 24.5778 28.3036 24.429 28.1419 24.2889C28.1357 24.2836 28.1265 24.2842 28.1209 24.2904C28.1209 24.2904 28.1203 24.291 28.1203 24.2913L27.7929 24.7453C27.7864 24.7546 27.7775 24.7592 27.7661 24.7589L27.1593 24.7484C27.1473 24.7484 27.1365 24.7444 27.127 24.737C26.8852 24.5513 26.6431 24.3662 26.4 24.1811C26.3384 24.1339 26.3049 24.0686 26.2544 24.0123C26.2445 24.0015 26.2402 24.0033 26.2411 24.0178L26.2882 24.7278C26.2892 24.7429 26.2821 24.7506 26.2667 24.7506L23.5752 24.7389C23.5537 24.7389 23.533 24.7315 23.5164 24.7176L23.0261 24.3123L22.6312 23.9947C22.6343 23.9929 22.6216 23.9768 22.593 23.947C22.5887 23.9426 22.5865 23.9362 22.5877 23.93C22.6293 23.7018 22.6694 23.4735 22.7082 23.2453C22.722 23.164 22.7257 23.0833 22.7353 23.001C22.8871 23.001 23.0602 23.0103 23.2072 22.9712C23.3612 22.9508 23.5269 22.868 23.5558 22.6955C23.6538 22.1124 23.7499 21.5488 23.8438 21.0051C23.8675 20.8674 23.9134 20.7396 23.9258 20.5995C23.9335 20.5095 23.9039 20.3681 23.7921 20.3629C23.6741 20.3577 23.558 20.3524 23.444 20.3478L23.2115 20.3309C23.2007 20.3299 23.1958 20.3241 23.1973 20.3133L23.3661 19.1567C23.3676 19.145 23.3744 19.1388 23.3861 19.1382L23.4878 19.1333L26.6951 19.1586C26.7065 19.1586 26.7139 19.1641 26.7176 19.1749L27.2853 20.8489C27.2871 20.8542 27.2927 20.8566 27.2979 20.8548C27.2995 20.8542 27.301 20.8533 27.3022 20.8517L28.517 19.2479C28.5229 19.2399 28.5309 19.2359 28.5411 19.2359L30.4347 19.2405L31.1567 19.242L32.2896 19.2528C32.3013 19.2528 32.3109 19.2577 32.3179 19.267L32.9851 20.1168C32.9968 20.1319 33.0024 20.1513 33.0002 20.1704L32.9143 20.9432C32.9133 20.9527 32.9078 20.9583 32.8979 20.9592C32.7214 20.9789 32.5567 20.9888 32.403 20.9888C32.333 20.9888 32.2776 20.9986 32.2372 21.019C32.1125 21.0815 32.0549 21.2232 32.0352 21.3569C31.9474 21.9486 31.8575 22.5532 31.7654 23.1701C31.7641 23.1788 31.7592 23.1831 31.7503 23.1828" fill="white"/>
<path d="M23.4878 19.1331L26.6951 19.1584C26.7065 19.1584 26.7139 19.1639 26.7176 19.1747L27.2853 20.8488C27.2871 20.854 27.2927 20.8565 27.2979 20.8546C27.2995 20.854 27.301 20.8531 27.3022 20.8515L28.517 19.2477C28.5229 19.2397 28.5309 19.2357 28.5411 19.2357L30.4347 19.2403L31.1567 19.2419L32.2896 19.2526C32.3013 19.2526 32.3109 19.2576 32.3179 19.2668L32.9851 20.1166C32.9968 20.1317 33.0024 20.1511 33.0002 20.1702L32.9143 20.943C32.9133 20.9526 32.9078 20.9581 32.8979 20.959C32.7214 20.9787 32.5567 20.9886 32.403 20.9886C32.333 20.9886 32.2776 20.9985 32.2372 21.0188C32.1125 21.0813 32.0549 21.223 32.0352 21.3567C31.9474 21.9484 31.8575 22.553 31.7654 23.17C31.7641 23.1786 31.7592 23.1829 31.7503 23.1826C31.5109 23.1734 31.2698 23.1653 31.0267 23.1586C30.8829 23.1549 30.8743 23.0452 30.8928 22.9309C31.0286 22.1021 31.1558 21.328 31.2747 20.6085C31.2907 20.5112 31.2673 20.4188 31.3751 20.3618C31.4093 20.3436 31.4543 20.3338 31.5094 20.3322C31.7469 20.3264 31.9794 20.3196 32.2071 20.3113C32.212 20.3113 32.216 20.3076 32.2166 20.3027L32.3407 19.3395C32.3417 19.3309 32.3358 19.3232 32.3272 19.3219C32.3266 19.3219 32.326 19.3219 32.3253 19.3219L28.5577 19.3133C28.5491 19.3133 28.5408 19.3173 28.5358 19.3244L27.2733 21.04C27.2699 21.0444 27.2637 21.0453 27.2594 21.0422C27.2579 21.041 27.2566 21.0394 27.256 21.0373L26.6385 19.2443C26.6366 19.2388 26.6314 19.2351 26.6255 19.2351H23.4668C23.4582 19.2351 23.4508 19.2412 23.4496 19.2496L23.2872 20.2207C23.286 20.2281 23.2909 20.2352 23.298 20.2361C23.299 20.2361 23.2996 20.2361 23.3005 20.2361C23.4724 20.2343 23.6482 20.2355 23.8278 20.2398C23.9073 20.2417 24.044 20.2783 24.0274 20.38C23.8934 21.2024 23.765 21.9847 23.6421 22.727C23.6119 22.9091 23.4964 23.0363 23.3104 23.0535C23.1517 23.068 22.9999 23.0853 22.8542 23.1047C22.8437 23.1059 22.8351 23.1142 22.8335 23.1247L22.7183 23.8759C22.7168 23.8867 22.7211 23.892 22.7319 23.892L25.7264 23.9104C25.7357 23.9104 25.7409 23.9058 25.7418 23.8966L25.8299 23.1318C25.8311 23.1222 25.8244 23.1139 25.8148 23.1127C25.6956 23.0976 25.5721 23.0803 25.4443 23.0609C25.3513 23.0465 25.31 22.9821 25.3238 22.8847C25.3962 22.383 25.4618 21.9311 25.5201 21.5298C25.5244 21.5005 25.5311 21.4999 25.5404 21.5279L26.3267 23.8864C26.3301 23.8963 26.3369 23.9012 26.3474 23.9012H27.1682C27.1799 23.9012 27.1907 23.8957 27.1975 23.8864L28.8454 21.58C28.8623 21.5563 28.8682 21.5587 28.8629 21.5874C28.7995 21.9413 28.7376 22.3004 28.6769 22.6654C28.655 22.7973 28.5793 23.1004 28.4086 23.1114C28.2488 23.1216 28.0914 23.1321 27.9364 23.1422C27.929 23.1429 27.9232 23.1481 27.922 23.1552L27.812 23.8494C27.8077 23.8766 27.8194 23.8901 27.8468 23.8904L31.5809 23.9021C31.5904 23.9021 31.5987 23.8957 31.6009 23.8864L31.758 23.231C31.7617 23.2156 31.7715 23.2082 31.7872 23.2091C31.8294 23.2109 31.8793 23.2125 31.9067 23.2504C32.0999 23.5177 32.2884 23.7764 32.4716 24.0262C32.4793 24.0367 32.4821 24.0484 32.4803 24.0617L32.374 24.8117C32.3722 24.8249 32.3648 24.8314 32.3515 24.8311L30.2321 24.7889L29.8107 24.7821C29.8089 24.7818 29.8076 24.7809 29.8073 24.7793C29.8067 24.7772 29.8055 24.7763 29.8036 24.7763C29.6819 24.7784 29.5618 24.7772 29.4429 24.7732L28.7942 24.7633C28.7829 24.7544 28.7573 24.7513 28.7169 24.7544C28.6941 24.7559 28.6741 24.7495 28.6569 24.7347C28.4755 24.5773 28.3036 24.4285 28.1419 24.2884C28.1357 24.2831 28.1265 24.2837 28.1209 24.2899C28.1209 24.2899 28.1203 24.2905 28.1203 24.2908L27.7929 24.7448C27.7864 24.7541 27.7775 24.7587 27.7661 24.7584L27.1593 24.7479C27.1473 24.7479 27.1365 24.7439 27.127 24.7365C26.8852 24.5508 26.6431 24.3657 26.4 24.1806C26.3384 24.1334 26.3049 24.0681 26.2544 24.0118C26.2445 24.001 26.2402 24.0028 26.2411 24.0173L26.2882 24.7273C26.2892 24.7424 26.2821 24.7501 26.2667 24.7501L23.5752 24.7384C23.5537 24.7384 23.533 24.731 23.5164 24.7171L23.0261 24.3118L22.6312 23.9942C22.6343 23.9924 22.6216 23.9763 22.593 23.9465C22.5887 23.9422 22.5865 23.9357 22.5877 23.9295C22.6293 23.7013 22.6694 23.4731 22.7082 23.2448C22.722 23.1635 22.7257 23.0828 22.7353 23.0006C22.8871 23.0006 23.0602 23.0098 23.2072 22.9707C23.3612 22.9504 23.5269 22.8675 23.5558 22.695C23.6538 22.1119 23.7499 21.5483 23.8438 21.0046C23.8675 20.8669 23.9134 20.7391 23.9258 20.599C23.9335 20.509 23.9039 20.3676 23.7921 20.3624C23.6741 20.3572 23.558 20.3519 23.444 20.3473L23.2115 20.3304C23.2007 20.3295 23.1958 20.3236 23.1973 20.3128L23.3661 19.1562C23.3676 19.1445 23.3744 19.1384 23.3861 19.1377L23.4878 19.1328V19.1331Z" fill="#004DFF"/>
<path d="M27.1649 21.631C27.1668 21.6366 27.1729 21.6397 27.1785 21.6378C27.1806 21.6372 27.1825 21.6357 27.184 21.6338L28.6797 19.6015C28.685 19.5944 28.693 19.5904 28.7016 19.5904L32.0137 19.5994C32.0226 19.5994 32.0263 19.6037 32.0251 19.6126L31.9721 20.0226C31.9706 20.034 31.9638 20.0401 31.9524 20.0411C31.831 20.0488 31.7112 20.0522 31.5932 20.0515C31.332 20.0503 31.1244 20.1073 31.033 20.3614C31.0293 20.3716 31.0111 20.4785 30.9784 20.6814C30.8654 21.3856 30.744 22.1306 30.6147 22.9164C30.5817 23.1157 30.6541 23.327 30.8512 23.4009C31.021 23.4643 31.2289 23.4323 31.4115 23.4514C31.4171 23.452 31.4192 23.4551 31.4177 23.4603L31.3786 23.6156C31.377 23.6217 31.3733 23.6248 31.3669 23.6248L28.1336 23.614C28.1318 23.614 28.1308 23.6131 28.1312 23.6113L28.1644 23.4095C28.1653 23.4046 28.1681 23.4021 28.173 23.4018C28.2744 23.3997 28.3742 23.3932 28.4727 23.383C28.7278 23.3569 28.8944 23.0297 28.9301 22.8215C29.0444 22.1507 29.1454 21.5845 29.2332 21.1231C29.2415 21.0791 29.2508 21.0326 29.261 20.9833C29.2631 20.9722 29.2591 20.9642 29.2489 20.9593L29.0386 20.8604C29.0278 20.8552 29.0152 20.8585 29.0081 20.8684L27.0494 23.6113C27.0432 23.6199 27.0349 23.6242 27.0241 23.6242H26.5421C26.5359 23.6245 26.5304 23.6205 26.5286 23.6147L25.6076 20.8518C25.6042 20.8413 25.594 20.8345 25.5833 20.8357L25.3553 20.8558C25.3433 20.857 25.3338 20.8659 25.3319 20.8776C25.237 21.5343 25.1422 22.1947 25.047 22.8588C25.0036 23.1637 25.2346 23.3482 25.5176 23.351C25.522 23.351 25.5238 23.3532 25.5232 23.3575L25.4942 23.6208C25.4933 23.6276 25.4878 23.6325 25.481 23.6325L23.0486 23.6162C23.0427 23.6162 23.0403 23.6134 23.0412 23.6076L23.0779 23.3655C23.0785 23.3605 23.0812 23.3578 23.0862 23.3572C23.1647 23.3451 23.2448 23.3365 23.3264 23.331C23.5476 23.3162 23.7349 23.2028 23.8396 23.006C23.8812 22.9281 23.9123 22.8234 23.9329 22.6918C24.0416 21.9997 24.1608 21.2741 24.2905 20.5145C24.3078 20.4128 24.3093 20.3312 24.2948 20.2699C24.2406 20.0392 23.9828 19.9527 23.7657 19.9579C23.7235 19.9591 23.6788 19.9598 23.6323 19.9594C23.6197 19.9594 23.6141 19.953 23.6163 19.9403L23.6843 19.5295C23.6862 19.5196 23.6948 19.5122 23.705 19.5122H26.4146C26.4269 19.5122 26.4377 19.5199 26.4417 19.5316L27.1649 21.631Z" fill="#FE0000"/>
<circle cx="20" cy="20" r="19.5" stroke="black" stroke-opacity="0.05"/>
</svg>
