<svg width="40" height="40" viewBox="0 0 40 40" fill="none" xmlns="http://www.w3.org/2000/svg">
<path d="M40 20C40 31.0457 31.0457 40 20 40C8.9543 40 0 31.0457 0 20C0 8.9543 8.9543 0 20 0C31.0457 0 40 8.9543 40 20Z" fill="#F6F8FA"/>
<path d="M15.2807 11.0131C15.2545 11.1784 15.2233 11.431 15.1397 11.5632C15.1278 11.5819 15.109 11.5951 15.0873 11.5999C15.0657 11.6047 15.043 11.6007 15.0243 11.5888C15.0099 11.5795 14.9986 11.566 14.9919 11.5501C14.9688 11.4802 14.925 11.4189 14.8663 11.3743C14.8076 11.3298 14.7368 11.3041 14.6632 11.3006C14.4287 11.2832 14.4543 11.0755 14.3782 10.9177C14.3713 10.9031 14.3616 10.8901 14.3496 10.8794C14.3376 10.8687 14.3235 10.8605 14.3083 10.8553C14.2012 10.8192 14.1044 10.7581 14.0258 10.6769C14.0154 10.6666 14.0072 10.6544 14.0016 10.6409C13.996 10.6274 13.9932 10.6129 13.9932 10.5983C13.9932 10.5837 13.996 10.5693 14.0016 10.5558C14.0072 10.5423 14.0154 10.5301 14.0258 10.5197C14.0301 10.5157 14.0346 10.5119 14.0395 10.5085C14.2266 10.3838 14.4493 10.3782 14.6726 10.3588C14.6857 10.3575 14.698 10.3513 14.7069 10.3415C14.7159 10.3318 14.721 10.3191 14.7212 10.3058C14.7256 9.94966 14.9408 9.74446 15.2009 9.5536C16.3838 8.6754 17.6396 8.22341 18.9681 8.19763C19.5617 8.1911 20.1531 8.2718 20.7233 8.43714C20.9185 8.48812 21.0871 8.61142 21.1948 8.78206C21.2043 8.7964 21.2189 8.8065 21.2357 8.81022C21.2524 8.81395 21.27 8.81101 21.2846 8.80202C21.4537 8.69786 21.7605 8.57374 21.9639 8.62738C21.9789 8.6313 21.9931 8.63815 22.0055 8.64755C22.0179 8.65694 22.0284 8.6687 22.0363 8.68214C22.0442 8.69558 22.0493 8.71044 22.0514 8.72587C22.0536 8.74131 22.0526 8.75701 22.0487 8.77208C22.0467 8.77913 22.0442 8.78601 22.0412 8.79266C21.9943 8.89287 21.9386 8.98868 21.8747 9.07895C21.865 9.09278 21.8601 9.10938 21.8606 9.12625C21.8612 9.14312 21.8672 9.15935 21.8778 9.17251C22.0518 9.38831 21.9844 9.55111 21.7705 9.68458C21.7462 9.70005 21.7257 9.72093 21.7108 9.7456C21.6959 9.77027 21.6868 9.79806 21.6844 9.82679L21.6651 10.0619C21.663 10.0858 21.6517 10.1078 21.6335 10.1234C21.6152 10.1389 21.5917 10.1466 21.5678 10.1449C21.549 10.143 21.5312 10.1356 21.5166 10.1237C21.3533 9.98602 21.2115 9.82454 21.0963 9.64466C21.0932 9.64007 21.0893 9.63612 21.0848 9.63303C21.0802 9.62995 21.0751 9.6278 21.0697 9.62669C21.0643 9.62559 21.0588 9.62557 21.0534 9.62662C21.048 9.62767 21.0428 9.62977 21.0383 9.63281C20.7632 9.84363 20.4844 9.84238 20.1601 9.74321C19.7465 9.61847 19.3667 9.601 18.9413 9.60038C18.0282 9.60038 17.0976 9.96962 16.3529 10.5066C16.0148 10.7499 15.8302 11.0168 15.3549 10.957C15.3462 10.9546 15.3371 10.9542 15.3283 10.9559C15.3195 10.9576 15.3111 10.9613 15.304 10.9667C15.2968 10.9722 15.2909 10.9792 15.2869 10.9872C15.2829 10.9952 15.2808 11.0041 15.2807 11.0131Z" fill="#D66A39"/>
<path d="M23.2886 10.5876L23.4757 8.76699C23.4776 8.74845 23.4858 8.7311 23.4988 8.71775C23.5118 8.70439 23.5289 8.69581 23.5474 8.69339L24.352 8.59484C24.3737 8.5922 24.3955 8.59827 24.4127 8.61172C24.4299 8.62517 24.441 8.6449 24.4437 8.66657C24.4455 8.68009 24.4438 8.69384 24.4387 8.70649L23.664 10.6912C23.6566 10.7105 23.6421 10.7263 23.6235 10.7355C23.6049 10.7446 23.5835 10.7464 23.5636 10.7404L23.3472 10.675C23.3287 10.6696 23.3127 10.658 23.302 10.642C23.2912 10.626 23.2865 10.6068 23.2886 10.5876Z" fill="#87A543"/>
<path d="M25.3425 9.85435L24.2298 11.0101C24.2175 11.023 24.2009 11.0311 24.1831 11.0327C24.1653 11.0343 24.1475 11.0294 24.1331 11.0188L23.9398 10.876C23.9254 10.8653 23.9154 10.8496 23.9117 10.8321C23.908 10.8145 23.9109 10.7962 23.9198 10.7806L24.5785 9.61796C24.5862 9.60417 24.5983 9.59325 24.6128 9.58685C24.6273 9.58044 24.6435 9.57889 24.6589 9.58241L25.3045 9.73398C25.3139 9.73604 25.3229 9.73996 25.3308 9.74551C25.3387 9.75107 25.3455 9.75814 25.3506 9.76633C25.3558 9.77451 25.3593 9.78364 25.3609 9.79318C25.3625 9.80273 25.3622 9.8125 25.36 9.82192C25.3569 9.834 25.3509 9.84514 25.3425 9.85435Z" fill="#87A543"/>
<path d="M27.5821 11.7745C27.3327 12.3146 26.805 12.5953 26.2418 12.7325C25.9468 12.8049 25.5557 12.813 25.4933 12.435C25.3767 11.752 25.6305 10.8801 26.2686 10.5258C26.7888 10.237 27.3913 10.5196 27.6177 11.0354C27.715 11.2649 27.7031 11.5113 27.5821 11.7745Z" fill="#E09B50"/>
<path d="M23.4506 12.2311C23.4418 12.2379 23.4357 12.2476 23.4332 12.2585C23.4281 12.2719 23.4258 12.2861 23.4264 12.3004C23.427 12.3147 23.4305 12.3287 23.4366 12.3416C23.4427 12.3545 23.4513 12.3661 23.462 12.3756C23.4727 12.3851 23.4851 12.3924 23.4986 12.397C23.747 12.5067 23.9757 12.6565 24.1754 12.8404C24.1833 12.8463 24.1899 12.8538 24.1947 12.8624C24.1996 12.871 24.2026 12.8805 24.2035 12.8903C24.2045 12.9001 24.2033 12.91 24.2002 12.9194C24.1971 12.9287 24.192 12.9373 24.1854 12.9446L23.9602 13.2515C23.9565 13.2595 23.9507 13.2664 23.9434 13.2715C23.9362 13.2765 23.9277 13.2795 23.9189 13.2802C23.91 13.2809 23.9012 13.2793 23.8932 13.2754C23.8852 13.2716 23.8784 13.2657 23.8735 13.2583C23.6903 13.0813 23.4778 12.9373 23.2454 12.8329C23.193 12.8089 23.1349 12.7998 23.0776 12.8068C23.0153 12.8142 22.9878 12.8348 22.9903 12.8691C22.9909 12.897 22.9995 12.9241 23.0153 12.9472C23.031 12.9702 23.0531 12.9882 23.0789 12.9989C23.3292 13.113 23.5593 13.2673 23.76 13.4554C23.764 13.4586 23.7674 13.4625 23.7698 13.467C23.7723 13.4715 23.7738 13.4765 23.7742 13.4816C23.7746 13.4867 23.7739 13.4918 23.7722 13.4967C23.7705 13.5015 23.7679 13.5059 23.7644 13.5097C23.1788 14.278 22.5229 14.99 21.8052 15.6366C21.7255 15.7129 21.6276 15.7676 21.5208 15.7956C21.4904 15.8014 21.4589 15.7973 21.431 15.784C21.4031 15.7706 21.3801 15.7487 21.3655 15.7214C21.3178 15.6313 21.2916 15.5314 21.2888 15.4295C21.2749 15.1022 21.2923 14.7743 21.3406 14.4503C21.4811 13.4939 21.7412 12.3427 22.1208 10.9967C22.2263 10.6225 22.7589 10.7192 23.0227 10.7946C23.5767 10.9518 24.0893 11.2286 24.5247 11.6055C24.6877 11.7502 24.7313 11.919 24.6556 12.1119C24.5803 12.3029 24.4838 12.4849 24.3681 12.6546C24.362 12.6634 24.3527 12.6694 24.3422 12.6714C24.3317 12.6734 24.3208 12.6712 24.312 12.6652C24.3096 12.6639 24.3075 12.6622 24.3057 12.6602C24.0957 12.4512 23.8432 12.2898 23.5654 12.1868C23.5342 12.1774 23.4962 12.1918 23.4506 12.2311Z" fill="#D66A39"/>
<path d="M19.921 14.1691C19.9056 15.061 19.8909 15.9473 19.8767 16.828C19.8811 16.8741 19.8696 16.9203 19.8443 16.959C19.8263 16.9781 19.8018 16.9897 19.7756 16.9915C19.7495 16.9932 19.7236 16.9849 19.7033 16.9684C18.3133 15.8286 16.9219 14.6912 15.5294 13.556C15.5097 13.5409 15.4934 13.5217 15.4816 13.4998C15.4699 13.4779 15.463 13.4538 15.4613 13.429C15.4597 13.4042 15.4633 13.3793 15.4721 13.356C15.4808 13.3328 15.4944 13.3116 15.5119 13.294C16.6425 12.005 18.0883 11.3397 19.8493 11.2981C19.8664 11.2945 19.8842 11.2953 19.9009 11.3003C19.9177 11.3053 19.933 11.3144 19.9454 11.3268C19.9577 11.3392 19.9669 11.3544 19.9719 11.3712C19.9769 11.388 19.9776 11.4057 19.974 11.4229C19.9553 12.3135 19.9376 13.229 19.921 14.1691ZM19.6172 12.0915C19.6172 12.0685 19.6081 12.0465 19.5919 12.0302C19.5756 12.0139 19.5535 12.0048 19.5305 12.0048C19.5134 12.0048 19.4966 12.0099 19.4824 12.0194C19.4681 12.0289 19.457 12.0425 19.4505 12.0583C19.4439 12.0742 19.4422 12.0916 19.4455 12.1084C19.4489 12.1252 19.4571 12.1407 19.4692 12.1528C19.4814 12.1649 19.4968 12.1732 19.5136 12.1765C19.5305 12.1799 19.5479 12.1782 19.5637 12.1716C19.5796 12.165 19.5931 12.1539 19.6026 12.1397C19.6122 12.1254 19.6172 12.1086 19.6172 12.0915ZM19.0596 12.8549C19.0595 12.7905 19.0338 12.7287 18.9882 12.6831C18.9426 12.6375 18.8809 12.6118 18.8164 12.6117C18.7519 12.6118 18.6901 12.6375 18.6446 12.6831C18.599 12.7287 18.5733 12.7905 18.5731 12.8549C18.5731 12.9194 18.5988 12.9813 18.6444 13.0269C18.69 13.0726 18.7519 13.0982 18.8164 13.0982C18.8809 13.0982 18.9428 13.0726 18.9884 13.0269C19.034 12.9813 19.0596 12.9194 19.0596 12.8549ZM17.9943 13.0807C17.9943 12.9925 17.9682 12.9063 17.9192 12.833C17.8702 12.7596 17.8005 12.7025 17.719 12.6687C17.6375 12.635 17.5479 12.6261 17.4614 12.6433C17.3749 12.6605 17.2954 12.703 17.233 12.7654C17.1707 12.8277 17.1282 12.9072 17.111 12.9937C17.0938 13.0802 17.1026 13.1699 17.1364 13.2514C17.1701 13.3329 17.2273 13.4025 17.3006 13.4515C17.3739 13.5005 17.4602 13.5267 17.5484 13.5267C17.6666 13.5267 17.7801 13.4797 17.8637 13.3961C17.9473 13.3124 17.9943 13.199 17.9943 13.0807ZM18.1191 13.5123L18.2195 13.5217C18.2273 13.5222 18.235 13.5197 18.2411 13.5148C18.2471 13.5098 18.251 13.5026 18.2519 13.4949L18.255 13.4643C18.2613 13.3969 18.2338 13.3396 18.1927 13.3352H18.1789C18.1384 13.3315 18.1004 13.3832 18.0941 13.4506V13.4805C18.0937 13.4845 18.094 13.4884 18.0952 13.4922C18.0963 13.496 18.0981 13.4996 18.1006 13.5027C18.1031 13.5057 18.1062 13.5083 18.1097 13.5102C18.1132 13.512 18.117 13.5132 18.1209 13.5136L18.1191 13.5123ZM18.1471 14.4174C18.1471 14.3227 18.1095 14.232 18.0426 14.1651C17.9757 14.0982 17.885 14.0606 17.7904 14.0606C17.6957 14.0606 17.605 14.0982 17.5381 14.1651C17.4712 14.232 17.4336 14.3227 17.4336 14.4174C17.4336 14.512 17.4712 14.6027 17.5381 14.6696C17.605 14.7365 17.6957 14.7741 17.7904 14.7741C17.885 14.7741 17.9757 14.7365 18.0426 14.6696C18.1095 14.6027 18.1471 14.512 18.1471 14.4174ZM19.3366 15.3118C19.3367 15.2866 19.3318 15.2617 19.3222 15.2384C19.3126 15.2151 19.2985 15.194 19.2807 15.1762C19.2629 15.1584 19.2417 15.1443 19.2185 15.1347C19.1952 15.1251 19.1703 15.1202 19.1451 15.1203C19.1199 15.1202 19.095 15.1251 19.0717 15.1347C19.0484 15.1443 19.0273 15.1584 19.0095 15.1762C18.9917 15.194 18.9776 15.2151 18.968 15.2384C18.9584 15.2617 18.9535 15.2866 18.9536 15.3118C18.9536 15.3369 18.9586 15.3618 18.9682 15.385C18.9778 15.4083 18.9919 15.4294 19.0097 15.4472C19.0275 15.4649 19.0486 15.4791 19.0718 15.4887C19.095 15.4983 19.1199 15.5033 19.1451 15.5033C19.1702 15.5033 19.1951 15.4983 19.2184 15.4887C19.2416 15.4791 19.2627 15.4649 19.2805 15.4472C19.2983 15.4294 19.3124 15.4083 19.322 15.385C19.3316 15.3618 19.3366 15.3369 19.3366 15.3118Z" fill="#E09B50"/>
<path d="M12.3264 12.2395C12.1874 12.416 12.3501 12.7148 12.4462 12.8813C12.4572 12.8954 12.4648 12.912 12.4682 12.9295C12.4717 12.9471 12.471 12.9653 12.4661 12.9825C12.4613 12.9998 12.4524 13.0156 12.4403 13.0288C12.4281 13.042 12.4131 13.0522 12.3963 13.0585L12.3452 13.0865C12.2635 13.1308 12.2061 13.1096 12.1743 13.0242C12.0096 12.5688 11.9248 11.9832 12.5254 11.8185C12.532 11.816 12.539 11.815 12.546 11.8156C12.553 11.8162 12.5597 11.8184 12.5657 11.822C12.5717 11.8256 12.5768 11.8305 12.5807 11.8364C12.5845 11.8423 12.5869 11.849 12.5878 11.8559L12.6414 12.0661C12.6436 12.0718 12.6446 12.0779 12.6441 12.084C12.6437 12.09 12.642 12.0959 12.639 12.1013C12.636 12.1066 12.6319 12.1111 12.6269 12.1147C12.6219 12.1182 12.6162 12.1206 12.6102 12.1216C12.5198 12.1472 12.3901 12.1597 12.3264 12.2395Z" fill="#87A543"/>
<path d="M19.5301 12.1783C19.5779 12.1783 19.6168 12.1395 19.6168 12.0916C19.6168 12.0437 19.5779 12.0049 19.5301 12.0049C19.4822 12.0049 19.4434 12.0437 19.4434 12.0916C19.4434 12.1395 19.4822 12.1783 19.5301 12.1783Z" fill="white"/>
<path d="M18.8165 13.0983C18.9508 13.0983 19.0597 12.9894 19.0597 12.8551C19.0597 12.7207 18.9508 12.6118 18.8165 12.6118C18.6821 12.6118 18.5732 12.7207 18.5732 12.8551C18.5732 12.9894 18.6821 13.0983 18.8165 13.0983Z" fill="white"/>
<path d="M17.5485 13.5267C17.7948 13.5267 17.9945 13.327 17.9945 13.0807C17.9945 12.8344 17.7948 12.6348 17.5485 12.6348C17.3022 12.6348 17.1025 12.8344 17.1025 13.0807C17.1025 13.327 17.3022 13.5267 17.5485 13.5267Z" fill="white"/>
<path d="M11.8951 13.6191C11.9221 13.5863 11.9465 13.5515 11.9681 13.5149C12.0966 13.2985 12.3542 13.1937 12.6243 13.1544C12.8338 13.1238 13.0041 13.203 13.1756 13.3116C13.1807 13.3161 13.1869 13.3193 13.1935 13.3209C13.2001 13.3226 13.207 13.3227 13.2136 13.3211C13.2202 13.3196 13.2264 13.3165 13.2316 13.3122C13.2369 13.3078 13.241 13.3022 13.2436 13.296C13.358 13.1105 13.5436 13.0299 13.8006 13.054C13.8897 13.0558 13.9751 13.0894 14.0417 13.1486C14.1082 13.2078 14.1514 13.2888 14.1636 13.3771C14.322 14.1299 14.5509 15.8632 13.5492 16.1395C13.3964 16.1819 13.2555 16.1395 13.1058 16.167C12.9187 16.1981 12.7939 16.3447 12.6018 16.3734C12.3897 16.4054 12.1924 16.3254 12.0099 16.1333C11.6263 15.7316 11.3862 15.2314 11.1735 14.7218C11.0814 14.5122 11.0203 14.2903 10.992 14.0631C10.9583 13.7089 11.2415 13.4556 11.5851 13.5062C11.6787 13.5205 11.7573 13.5879 11.8402 13.6309C11.8491 13.6366 11.8598 13.6385 11.8701 13.6363C11.8804 13.634 11.8894 13.6279 11.8951 13.6191Z" fill="#D66A39"/>
<path d="M18.1184 13.5129C18.1144 13.5126 18.1106 13.5115 18.1071 13.5097C18.1036 13.5079 18.1005 13.5054 18.0979 13.5024C18.0954 13.4994 18.0934 13.4959 18.0922 13.4921C18.091 13.4884 18.0906 13.4844 18.0909 13.4805V13.4505C18.0972 13.3832 18.1352 13.3314 18.1758 13.3352H18.1895C18.23 13.3389 18.2575 13.3975 18.2519 13.4643L18.2487 13.4948C18.2478 13.5026 18.2439 13.5097 18.2379 13.5147C18.2318 13.5197 18.2241 13.5222 18.2163 13.5216L18.1184 13.5129Z" fill="white"/>
<path d="M20.8639 19.027C20.5215 19.0064 20.2171 18.7151 20.4454 18.3596C20.7685 17.8606 21.1446 18.3459 21.56 18.218C21.7418 18.1561 21.9086 18.0566 22.0496 17.9261C22.4142 17.6154 22.7114 17.2333 22.9228 16.8034C23.2322 16.1651 23.4386 15.756 23.5421 15.5759C23.923 14.9135 24.3854 14.3869 24.9293 13.9961C25.6079 13.5089 26.5659 13.2594 27.3362 13.6081C27.7728 13.8071 28.0311 14.2044 28.1134 14.6622C28.3092 15.7475 27.64 16.471 26.7362 16.9413C26.2291 17.2097 25.6868 17.4056 25.1251 17.5232C24.7547 17.5985 24.3837 17.6656 24.0124 17.7247C23.3157 17.8344 22.6995 18.0708 22.1618 18.5592C21.9953 18.7108 21.9423 18.9334 21.9585 19.1523C22.0209 19.9432 20.9606 19.9046 21.0086 19.1879C21.0112 19.1477 20.9977 19.108 20.9712 19.0777C20.9447 19.0473 20.9072 19.0286 20.867 19.0257L20.8639 19.027Z" fill="#E09B50"/>
<path d="M17.7894 14.7751C17.9864 14.7751 18.1462 14.6153 18.1462 14.4183C18.1462 14.2213 17.9864 14.0615 17.7894 14.0615C17.5923 14.0615 17.4326 14.2213 17.4326 14.4183C17.4326 14.6153 17.5923 14.7751 17.7894 14.7751Z" fill="white"/>
<path d="M19.1446 15.5031C19.2504 15.5031 19.3361 15.4174 19.3361 15.3116C19.3361 15.2058 19.2504 15.1201 19.1446 15.1201C19.0389 15.1201 18.9531 15.2058 18.9531 15.3116C18.9531 15.4174 19.0389 15.5031 19.1446 15.5031Z" fill="white"/>
<path d="M15.2713 17.4504C15.2295 17.3257 15.1303 17.2889 15.0112 17.307C14.696 17.3556 14.3885 17.4045 14.0887 17.4535C13.9813 17.4715 13.8716 17.4694 13.765 17.4473C13.7343 17.4408 13.7075 17.4225 13.6903 17.3964C13.6731 17.3702 13.667 17.3383 13.6733 17.3076C13.6733 17.3038 13.6733 17.3001 13.6764 17.2964C13.6844 17.2707 13.6974 17.247 13.7148 17.2265C13.7322 17.206 13.7535 17.1893 13.7775 17.1772C14.0033 17.055 14.2201 16.935 14.428 16.8173C14.8758 16.5635 14.9513 16.1936 15.0748 15.7339C15.106 15.6189 15.1546 15.5094 15.2189 15.409C15.2356 15.3826 15.2619 15.3637 15.2923 15.3564C15.3227 15.3491 15.3547 15.3538 15.3817 15.3697C15.411 15.3872 15.4354 15.4118 15.4526 15.4412C15.4698 15.4707 15.4793 15.504 15.4802 15.5381C15.5089 15.8618 15.4858 16.1955 15.5601 16.5279C15.6224 16.793 15.7522 16.8909 16.0085 16.939C16.5593 17.0401 17.0963 17.2056 17.6084 17.4323C18.7373 17.9367 19.5016 18.7914 19.9012 19.9964C19.9628 20.1864 19.9937 20.3849 19.9928 20.5846C19.9949 20.6087 19.9883 20.6327 19.9742 20.6524C19.9602 20.672 19.9396 20.686 19.9161 20.6919C19.8466 20.714 19.7739 20.7245 19.7009 20.7231C18.5479 20.6815 17.5454 20.3266 16.6934 19.6584C15.9243 19.0565 15.5732 18.3405 15.2713 17.4504ZM19.1203 19.6677C19.1203 19.5937 19.0983 19.5214 19.0572 19.4598C19.0161 19.3983 18.9576 19.3503 18.8892 19.322C18.8209 19.2937 18.7456 19.2863 18.673 19.3007C18.6004 19.3151 18.5337 19.3508 18.4814 19.4031C18.4291 19.4555 18.3934 19.5221 18.379 19.5947C18.3645 19.6673 18.3719 19.7426 18.4003 19.811C18.4286 19.8793 18.4766 19.9378 18.5381 19.9789C18.5997 20.02 18.672 20.042 18.746 20.042C18.8453 20.042 18.9405 20.0025 19.0106 19.9324C19.0808 19.8622 19.1203 19.767 19.1203 19.6677Z" fill="#69A1A0"/>
<path d="M27.6356 18.9643C27.9836 18.5008 28.3148 17.849 28.1757 17.254C28.1327 17.0669 28.4333 16.9896 28.5605 16.9683C28.5859 16.9641 28.612 16.9685 28.6346 16.9809C28.6572 16.9932 28.675 17.0127 28.6853 17.0363C28.7689 17.2284 28.7651 17.4661 28.7476 17.6738C28.704 18.2601 28.3878 18.8638 28.006 19.3429C28.0022 19.3463 27.9991 19.3505 27.997 19.3553C27.9949 19.36 27.9938 19.3651 27.9938 19.3703C27.9938 19.3755 27.9949 19.3806 27.997 19.3853C27.9991 19.3901 28.0022 19.3943 28.006 19.3977C28.2946 19.6946 28.3666 20.0897 28.2219 20.5828C28.1663 20.7699 27.9611 20.7337 27.9306 20.5529C27.9 20.372 27.8782 19.8487 27.61 19.8362C27.5396 19.833 27.4691 19.8378 27.3998 19.8506C27.1341 19.8998 27.0411 19.5861 26.985 19.4002C26.9789 19.3795 26.965 19.3618 26.9463 19.351C26.7361 19.2262 26.4474 19.2948 26.2135 19.336C26.1952 19.3392 26.1763 19.3352 26.1609 19.3248C26.1454 19.3145 26.1346 19.2986 26.1305 19.2805C26.1167 19.2186 26.1221 19.154 26.146 19.0953C26.1698 19.0366 26.211 18.9865 26.264 18.9518C26.6732 18.6268 27.1547 18.6399 27.5738 18.9717C27.5778 18.9764 27.5829 18.98 27.5886 18.9822C27.5944 18.9844 27.6006 18.9852 27.6067 18.9845C27.6128 18.9837 27.6186 18.9815 27.6236 18.978C27.6287 18.9745 27.6328 18.9697 27.6356 18.9643Z" fill="#87A543"/>
<path d="M15.5174 22.8635C15.5144 22.8688 15.5125 22.8747 15.5118 22.8807C15.5111 22.8868 15.5117 22.8929 15.5134 22.8987C15.5152 22.9046 15.5181 22.91 15.522 22.9147C15.5259 22.9193 15.5307 22.9232 15.5362 22.9259H15.5399C15.7077 22.9944 15.868 23.0798 16.0183 23.181C16.0479 23.2014 16.075 23.2251 16.0994 23.2515C16.1748 23.3344 16.1674 23.3987 16.0782 23.4436C16.0631 23.4509 16.0465 23.4545 16.0298 23.4539C16.013 23.4534 15.9967 23.4488 15.9821 23.4405L15.4127 23.1087C15.4029 23.1021 15.391 23.0996 15.3794 23.1016C15.3678 23.1036 15.3574 23.1099 15.3503 23.1193C15.0925 23.4103 14.7629 23.4604 14.3617 23.2696C13.7475 22.9833 13.1945 22.5809 12.7332 22.0845C11.782 21.0466 11.1464 19.7817 11.215 18.3422C11.2262 18.1052 11.2599 17.7415 11.4021 17.5407C11.5269 17.3661 11.8026 17.406 11.936 17.537C12.0505 17.6474 12.1305 17.7886 12.1662 17.9436C12.3766 18.826 12.808 19.6339 13.4604 20.3674C13.9577 20.9258 14.5282 21.4144 15.1563 21.8201C15.51 22.0446 15.7301 22.4481 15.5174 22.8635Z" fill="#87A543"/>
<path d="M21.7678 24.2659C21.4197 25.0007 21.3985 25.9406 21.5432 26.772C21.6786 27.536 21.9253 28.2759 22.2755 28.9682C22.2796 28.977 22.2802 28.987 22.277 28.9962C22.2739 29.0054 22.2673 29.013 22.2586 29.0174C22.2536 29.0199 22.248 29.0212 22.2424 29.0212H17.7959C17.785 29.021 17.7747 29.0166 17.767 29.0089C17.7593 29.0013 17.7549 28.9909 17.7548 28.98C17.7547 28.9715 17.7573 28.9632 17.7622 28.9563C17.8821 28.7814 17.989 28.5979 18.0822 28.4074C18.4901 27.5673 18.4683 26.6436 18.2207 25.7566C17.7417 24.0426 16.6907 22.5551 15.6927 21.108C15.4862 20.8082 15.3031 20.493 15.1451 20.165C15.0923 20.0586 15.0638 19.9419 15.0615 19.8232C15.0614 19.8046 15.0685 19.7867 15.0815 19.7734C15.0945 19.7601 15.1122 19.7524 15.1308 19.7521C15.2222 19.7527 15.3116 19.7788 15.389 19.8275C15.8725 20.1333 16.3298 20.4785 16.7562 20.8598C17.3213 21.3563 17.8992 21.88 18.4901 22.431C18.6486 22.5766 18.8244 22.7023 19.0134 22.8052C19.4138 23.0279 19.7912 22.8956 20.1205 22.6399C20.3738 22.4406 20.6125 22.2234 20.8347 21.99C22.0198 20.7656 23.1368 19.6111 24.3755 18.5458C24.5627 18.383 24.9699 18.0331 25.2113 18.0269C25.2312 18.0265 25.2505 18.0341 25.2648 18.0479C25.2792 18.0617 25.2876 18.0806 25.288 18.1005C25.288 18.1036 25.288 18.1067 25.288 18.1098C25.2666 18.2917 25.2138 18.4686 25.1321 18.6325C24.8959 19.1207 24.6331 19.5957 24.345 20.0552C23.782 20.9584 23.1397 21.9758 22.4183 23.1077C22.1778 23.48 21.9606 23.8668 21.7678 24.2659Z" fill="#D66A39"/>
<path d="M18.7463 20.0429C18.953 20.0429 19.1205 19.8753 19.1205 19.6687C19.1205 19.462 18.953 19.2944 18.7463 19.2944C18.5396 19.2944 18.3721 19.462 18.3721 19.6687C18.3721 19.8753 18.5396 20.0429 18.7463 20.0429Z" fill="white"/>
<path d="M25.691 20.3601C25.908 19.9596 25.8488 19.4956 26.4644 19.4669C26.6265 19.4594 26.7351 19.5239 26.7899 19.6602C26.8423 19.7925 26.9252 19.9105 27.032 20.0045C27.1399 20.1006 27.2559 20.0719 27.3812 20.1112C27.7106 20.2135 27.8128 20.7056 27.7904 20.9963C27.7667 21.3013 27.5228 21.5838 27.3114 21.7821C26.6045 22.4437 25.7273 22.9603 24.6799 23.3321C24.1768 23.5128 23.6451 23.6007 23.1106 23.5916C23.0301 23.5906 22.9509 23.5702 22.8798 23.5323C22.8679 23.5262 22.8572 23.5177 22.8485 23.5075C22.8398 23.4972 22.8332 23.4854 22.8291 23.4726C22.825 23.4598 22.8235 23.4463 22.8246 23.4329C22.8257 23.4195 22.8294 23.4064 22.8356 23.3945L22.8393 23.3882C22.9959 23.1288 23.3464 22.9448 23.6065 22.7745C23.933 22.5487 24.2318 22.2851 24.4965 21.9892C24.962 21.4989 25.3634 20.9515 25.691 20.3601Z" fill="#D66A39"/>
<path d="M25.8473 27.5895L25.8529 29.0316C25.8529 29.0361 25.8521 29.0405 25.8505 29.0447C25.8488 29.0489 25.8464 29.0528 25.8433 29.056C25.8401 29.0592 25.8364 29.0618 25.8323 29.0636C25.8281 29.0654 25.8237 29.0664 25.8192 29.0665L25.4568 29.0702C25.4523 29.0703 25.4478 29.0695 25.4436 29.0679C25.4394 29.0662 25.4356 29.0638 25.4324 29.0606C25.4291 29.0575 25.4265 29.0538 25.4247 29.0496C25.4229 29.0455 25.422 29.0411 25.4219 29.0366V26.0782C25.4219 26.0737 25.4228 26.0693 25.4245 26.0651C25.4262 26.061 25.4287 26.0572 25.4319 26.054C25.4351 26.0508 25.4389 26.0483 25.4431 26.0466C25.4472 26.0448 25.4517 26.0439 25.4562 26.0439H25.8173C25.8218 26.0439 25.8263 26.0448 25.8304 26.0466C25.8346 26.0483 25.8384 26.0508 25.8416 26.054C25.8448 26.0572 25.8473 26.061 25.849 26.0651C25.8507 26.0693 25.8516 26.0737 25.8516 26.0782V27.1348C25.8516 27.1439 25.8552 27.1527 25.8617 27.1591C25.8681 27.1655 25.8768 27.1691 25.8859 27.1691H26.3225C26.3316 27.1691 26.3403 27.1728 26.3468 27.1792C26.3532 27.1856 26.3568 27.1943 26.3568 27.2034V27.5272C26.3568 27.5363 26.3532 27.545 26.3468 27.5514C26.3403 27.5578 26.3316 27.5615 26.3225 27.5615L25.8822 27.5571C25.8777 27.557 25.8732 27.5578 25.869 27.5595C25.8648 27.5611 25.861 27.5636 25.8577 27.5667C25.8545 27.5698 25.8519 27.5736 25.8501 27.5777C25.8483 27.5818 25.8473 27.5863 25.8473 27.5908V27.5895Z" fill="#85868A"/>
<path d="M29.5792 27.6763C29.5792 27.6866 29.5751 27.6964 29.5679 27.7037C29.5606 27.7109 29.5508 27.715 29.5405 27.715H26.7662C26.756 27.715 26.7461 27.7109 26.7389 27.7037C26.7316 27.6964 26.7275 27.6866 26.7275 27.6763V26.1632C26.7275 26.1529 26.7316 26.1431 26.7389 26.1358C26.7461 26.1286 26.756 26.1245 26.7662 26.1245H29.5405C29.5508 26.1245 29.5606 26.1286 29.5679 26.1358C29.5751 26.1431 29.5792 26.1529 29.5792 26.1632V27.6763ZM29.1326 26.5748C29.1326 26.5641 29.1283 26.5538 29.1207 26.5462C29.1131 26.5386 29.1028 26.5343 29.0921 26.5343H27.1897C27.179 26.5343 27.1687 26.5386 27.161 26.5462C27.1534 26.5538 27.1492 26.5641 27.1492 26.5748V27.2734C27.1492 27.2842 27.1534 27.2945 27.161 27.3021C27.1687 27.3097 27.179 27.3139 27.1897 27.3139H29.0921C29.1028 27.3139 29.1131 27.3097 29.1207 27.3021C29.1283 27.2945 29.1326 27.2842 29.1326 27.2734V26.5748Z" fill="#85868A"/>
<path d="M13.0052 27.3225L13.2192 27.3125C13.2258 27.3122 13.2325 27.3131 13.2387 27.3154C13.245 27.3176 13.2507 27.3211 13.2557 27.3255C13.2606 27.33 13.2646 27.3354 13.2674 27.3414C13.2702 27.3474 13.2719 27.3539 13.2722 27.3605L13.2772 27.6443C13.2773 27.651 13.276 27.6575 13.2736 27.6637C13.2711 27.6699 13.2675 27.6755 13.2628 27.6802C13.2582 27.685 13.2527 27.6888 13.2466 27.6914C13.2405 27.694 13.2339 27.6954 13.2273 27.6955L10.4704 27.7086C10.457 27.7086 10.4442 27.7032 10.4347 27.6938C10.4252 27.6843 10.4199 27.6714 10.4199 27.658L10.4318 27.3699C10.4325 27.3575 10.4377 27.3458 10.4464 27.3369C10.4552 27.3281 10.4668 27.3227 10.4792 27.3219L10.6744 27.31C10.687 27.3092 10.6989 27.3037 10.7077 27.2946C10.7165 27.2855 10.7215 27.2734 10.7218 27.2607L10.7349 26.6064C10.7351 26.5998 10.7339 26.5932 10.7315 26.587C10.7291 26.5808 10.7256 26.5752 10.721 26.5704C10.7164 26.5655 10.7109 26.5617 10.7049 26.559C10.6988 26.5563 10.6923 26.5548 10.6856 26.5547H10.4761C10.4627 26.5547 10.4498 26.5494 10.4403 26.5399C10.4309 26.5304 10.4255 26.5176 10.4255 26.5042V26.2328C10.4259 26.2197 10.4312 26.2072 10.4405 26.1979C10.4498 26.1886 10.4623 26.1833 10.4754 26.1829L13.2198 26.1792C13.2332 26.1792 13.2461 26.1845 13.2555 26.194C13.265 26.2035 13.2703 26.2163 13.2703 26.2297V26.5116C13.2704 26.5183 13.2692 26.5249 13.2667 26.531C13.2643 26.5372 13.2606 26.5428 13.256 26.5475C13.2513 26.5523 13.2458 26.5561 13.2397 26.5587C13.2336 26.5613 13.2271 26.5627 13.2204 26.5628L12.9984 26.5541C12.9917 26.5538 12.9851 26.5549 12.9789 26.5572C12.9727 26.5595 12.967 26.563 12.9621 26.5675C12.9572 26.572 12.9533 26.5775 12.9505 26.5835C12.9478 26.5895 12.9462 26.5961 12.946 26.6027V27.2738C12.946 27.2872 12.9513 27.3001 12.9608 27.3096C12.9703 27.319 12.9831 27.3243 12.9965 27.3243L13.0052 27.3225ZM11.1965 26.5572C11.1883 26.5572 11.1806 26.5604 11.1748 26.5661C11.1691 26.5719 11.1659 26.5796 11.1659 26.5877L11.1734 27.2738C11.1735 27.2818 11.1768 27.2894 11.1825 27.295C11.1883 27.3006 11.1959 27.3038 11.2039 27.3038L12.4994 27.3131C12.5034 27.3131 12.5074 27.3123 12.5111 27.3108C12.5148 27.3093 12.5182 27.307 12.521 27.3042C12.5239 27.3013 12.5261 27.298 12.5276 27.2943C12.5292 27.2905 12.53 27.2866 12.53 27.2826V26.5896C12.53 26.5856 12.5292 26.5816 12.5276 26.5779C12.5261 26.5742 12.5239 26.5708 12.521 26.568C12.5182 26.5652 12.5148 26.5629 12.5111 26.5614C12.5074 26.5598 12.5034 26.559 12.4994 26.559L11.1965 26.5572Z" fill="#85868A"/>
<path d="M14.4638 27.3383L16.8071 27.3351C16.8162 27.3351 16.8249 27.3388 16.8314 27.3452C16.8378 27.3516 16.8414 27.3603 16.8414 27.3694V27.6963C16.8414 27.7054 16.8378 27.7141 16.8314 27.7205C16.8249 27.727 16.8162 27.7306 16.8071 27.7306H14.0284C14.0193 27.7306 14.0106 27.727 14.0042 27.7205C13.9978 27.7141 13.9941 27.7054 13.9941 27.6963V26.228C13.9941 26.2189 13.9978 26.2102 14.0042 26.2038C14.0106 26.1973 14.0193 26.1937 14.0284 26.1937L16.8233 26.1763C16.8324 26.1763 16.8412 26.1799 16.8476 26.1863C16.854 26.1927 16.8576 26.2015 16.8576 26.2106V26.5567C16.8576 26.5658 16.854 26.5746 16.8476 26.581C16.8412 26.5874 16.8324 26.591 16.8233 26.591L14.4682 26.5767C14.4591 26.5767 14.4503 26.5803 14.4439 26.5867C14.4375 26.5932 14.4339 26.6019 14.4339 26.611V27.3033C14.4339 27.3124 14.4375 27.3212 14.4439 27.3276C14.4503 27.334 14.4591 27.3376 14.4682 27.3376L14.4638 27.3383Z" fill="#85868A"/>
<path d="M23.48 28.3832H24.8784C24.8837 28.3832 24.889 28.3841 24.8939 28.3861C24.8989 28.3881 24.9034 28.391 24.9072 28.3947C24.9111 28.3984 24.9141 28.4028 24.9162 28.4077C24.9183 28.4126 24.9195 28.4178 24.9195 28.4232V28.7244C24.9195 28.7351 24.9154 28.7453 24.9079 28.7529C24.9004 28.7605 24.8903 28.7648 24.8796 28.765L23.0415 28.7731C23.0308 28.7731 23.0205 28.7688 23.0129 28.7612C23.0052 28.7536 23.001 28.7433 23.001 28.7325V26.2564C23.001 26.2456 23.0052 26.2353 23.0129 26.2277C23.0205 26.2201 23.0308 26.2158 23.0415 26.2158L23.3977 26.2239C23.4083 26.2241 23.4185 26.2284 23.4259 26.236C23.4334 26.2436 23.4376 26.2538 23.4376 26.2645V28.344C23.4376 28.3547 23.4419 28.365 23.4495 28.3726C23.4571 28.3802 23.4674 28.3845 23.4781 28.3845L23.48 28.3832Z" fill="#85868A"/>
<path d="M29.0923 26.5317H27.19C27.1676 26.5317 27.1494 26.5499 27.1494 26.5723V27.2708C27.1494 27.2932 27.1676 27.3114 27.19 27.3114H29.0923C29.1147 27.3114 29.1328 27.2932 29.1328 27.2708V26.5723C29.1328 26.5499 29.1147 26.5317 29.0923 26.5317Z" fill="white"/>
<path d="M11.195 26.559H12.4986C12.5067 26.559 12.5144 26.5622 12.5202 26.568C12.5259 26.5737 12.5291 26.5815 12.5291 26.5896V27.2831C12.5291 27.2912 12.5259 27.299 12.5202 27.3048C12.5144 27.3105 12.5067 27.3137 12.4986 27.3137L11.2031 27.3043C11.1951 27.3043 11.1874 27.3012 11.1817 27.2956C11.176 27.29 11.1727 27.2824 11.1725 27.2744L11.165 26.5883C11.165 26.5843 11.1657 26.5803 11.1671 26.5766C11.1686 26.5728 11.1708 26.5694 11.1736 26.5665C11.1763 26.5636 11.1797 26.5613 11.1833 26.5597C11.187 26.5581 11.191 26.5572 11.195 26.5571V26.559Z" fill="white"/>
<path d="M12.0576 29.0769H11.7033C11.6975 29.077 11.6917 29.0759 11.6863 29.0738C11.6809 29.0716 11.676 29.0684 11.6718 29.0644C11.6676 29.0603 11.6643 29.0555 11.662 29.0502C11.6597 29.0448 11.6585 29.0391 11.6584 29.0333L11.6546 28.4426C11.6545 28.431 11.6497 28.4199 11.6415 28.4117C11.6332 28.4035 11.622 28.3989 11.6104 28.3989H10.3841C10.3724 28.3989 10.3611 28.3943 10.3528 28.386C10.3445 28.3777 10.3398 28.3664 10.3398 28.3547V28.0497C10.3398 28.0379 10.3445 28.0266 10.3528 28.0183C10.3611 28.01 10.3724 28.0054 10.3841 28.0054L13.3094 28.0085C13.321 28.0085 13.3322 28.0131 13.3405 28.0212C13.3488 28.0294 13.3535 28.0405 13.3537 28.0522V28.3534C13.3537 28.3592 13.3527 28.365 13.3505 28.3704C13.3484 28.3758 13.3452 28.3807 13.3411 28.3849C13.3371 28.3891 13.3322 28.3924 13.3269 28.3947C13.3216 28.397 13.3158 28.3982 13.31 28.3983H12.1424C12.1307 28.3983 12.1194 28.403 12.1111 28.4113C12.1028 28.4196 12.0981 28.4309 12.0981 28.4426V29.032C12.0983 29.0432 12.0942 29.0541 12.0867 29.0625C12.0792 29.0708 12.0688 29.076 12.0576 29.0769Z" fill="#85868A"/>
<path d="M27.8695 28.4655L26.6919 28.4617C26.6771 28.4614 26.663 28.4554 26.6525 28.4449C26.6421 28.4345 26.6361 28.4204 26.6357 28.4056V28.128C26.6357 28.113 26.6417 28.0986 26.6524 28.0879C26.663 28.0773 26.6774 28.0713 26.6925 28.0713H29.5984C29.6134 28.0713 29.6277 28.0772 29.6383 28.0877C29.649 28.0982 29.655 28.1125 29.6552 28.1274L29.6589 28.4143C29.6591 28.4218 29.6578 28.4292 29.6551 28.4362C29.6524 28.4431 29.6483 28.4495 29.6432 28.4548C29.638 28.4602 29.6319 28.4645 29.625 28.4675C29.6182 28.4706 29.6109 28.4722 29.6034 28.4723L28.4258 28.4655C28.4184 28.4654 28.411 28.4668 28.4041 28.4696C28.3971 28.4723 28.3908 28.4764 28.3855 28.4817C28.3802 28.4869 28.3759 28.4931 28.373 28.4999C28.3701 28.5068 28.3685 28.5142 28.3684 28.5216L28.3765 29.0243C28.3766 29.0318 28.3752 29.0392 28.3725 29.0461C28.3697 29.053 28.3656 29.0593 28.3604 29.0647C28.3552 29.07 28.3489 29.0742 28.3421 29.0772C28.3352 29.0801 28.3279 29.0816 28.3204 29.0817H27.9873C27.9799 29.0817 27.9725 29.0802 27.9656 29.0774C27.9587 29.0745 27.9525 29.0704 27.9472 29.0651C27.9419 29.0598 27.9378 29.0536 27.9349 29.0467C27.9321 29.0398 27.9306 29.0324 27.9306 29.025V28.5216C27.9306 28.5066 27.9246 28.4921 27.914 28.4815C27.9033 28.4708 27.8889 28.4649 27.8738 28.4649L27.8695 28.4655Z" fill="#85868A"/>
<path d="M16.9357 28.5195H13.8907C13.8756 28.5195 13.8633 28.5318 13.8633 28.547V28.9487C13.8633 28.9638 13.8756 28.9761 13.8907 28.9761H16.9357C16.9509 28.9761 16.9632 28.9638 16.9632 28.9487V28.547C16.9632 28.5318 16.9509 28.5195 16.9357 28.5195Z" fill="#85868A"/>
<path d="M13.7618 30.9505C13.7619 31.0532 13.7417 31.1549 13.7025 31.2499C13.6632 31.3448 13.6056 31.4311 13.5329 31.5037C13.4603 31.5764 13.374 31.634 13.2791 31.6732C13.1842 31.7125 13.0824 31.7327 12.9797 31.7326H12.83C12.7273 31.7327 12.6255 31.7125 12.5306 31.6732C12.4357 31.634 12.3494 31.5764 12.2768 31.5037C12.2041 31.4311 12.1465 31.3448 12.1072 31.2499C12.0679 31.1549 12.0478 31.0532 12.0479 30.9505V30.6947C12.0478 30.592 12.0679 30.4903 12.1072 30.3953C12.1465 30.3004 12.2041 30.2141 12.2768 30.1415C12.3494 30.0689 12.4357 30.0112 12.5306 29.972C12.6255 29.9327 12.7273 29.9125 12.83 29.9126H12.9797C13.0824 29.9125 13.1842 29.9327 13.2791 29.972C13.374 30.0112 13.4603 30.0689 13.5329 30.1415C13.6056 30.2141 13.6632 30.3004 13.7025 30.3953C13.7417 30.4903 13.7619 30.592 13.7618 30.6947V30.9505ZM12.9005 31.4494C13.15 31.4494 13.3583 31.1725 13.3602 30.8257C13.3602 30.4814 13.1593 30.202 12.9067 30.202C12.6541 30.202 12.4489 30.4789 12.447 30.8257C12.4452 31.1669 12.6479 31.4476 12.9005 31.4488V31.4494Z" fill="#85868A"/>
<path d="M10.8913 30.6995L11.5712 30.7033C11.5774 30.7034 11.5835 30.7047 11.5892 30.7071C11.595 30.7096 11.6001 30.7132 11.6045 30.7176C11.6088 30.7221 11.6123 30.7273 11.6146 30.7331C11.6169 30.7389 11.618 30.7451 11.6179 30.7513L11.6104 30.9702C11.6098 30.9823 11.6047 30.9937 11.596 31.0022C11.5873 31.0106 11.5758 31.0155 11.5637 31.0158H10.89C10.8775 31.0158 10.8654 31.0208 10.8565 31.0297C10.8476 31.0385 10.8426 31.0506 10.8426 31.0632V31.6488C10.8426 31.6614 10.8377 31.6735 10.8288 31.6824C10.8199 31.6913 10.8078 31.6963 10.7952 31.6963L10.4715 31.6888C10.4592 31.6884 10.4474 31.6833 10.4388 31.6745C10.4302 31.6656 10.4254 31.6537 10.4254 31.6414L10.416 29.9748C10.4159 29.9686 10.4171 29.9624 10.4194 29.9566C10.4217 29.9508 10.4251 29.9455 10.4295 29.9411C10.4338 29.9366 10.439 29.9331 10.4447 29.9306C10.4504 29.9281 10.4566 29.9268 10.4628 29.9268L11.7265 29.9342C11.739 29.9342 11.7511 29.9392 11.76 29.9481C11.7689 29.957 11.7739 29.9691 11.7739 29.9816L11.7633 30.2149C11.7628 30.2272 11.7576 30.2387 11.7487 30.2472C11.7399 30.2557 11.7281 30.2605 11.7159 30.2604L10.8894 30.2555C10.8832 30.2554 10.877 30.2565 10.8712 30.2588C10.8655 30.2611 10.8602 30.2646 10.8557 30.2689C10.8513 30.2732 10.8477 30.2784 10.8452 30.2841C10.8428 30.2899 10.8415 30.296 10.8414 30.3022V30.6484C10.8409 30.6551 10.8418 30.6619 10.8441 30.6683C10.8464 30.6747 10.85 30.6805 10.8547 30.6853C10.8594 30.6902 10.8652 30.6939 10.8715 30.6964C10.8778 30.6989 10.8845 30.6999 10.8913 30.6995Z" fill="#85868A"/>
<path d="M15.9026 30.9653C15.9029 31.0673 15.883 31.1682 15.8442 31.2625C15.8054 31.3568 15.7484 31.4425 15.6765 31.5147C15.6045 31.587 15.5191 31.6443 15.4249 31.6835C15.3308 31.7227 15.2299 31.7429 15.128 31.7431H14.9708C14.7648 31.7434 14.5671 31.6619 14.4211 31.5166C14.2751 31.3712 14.1929 31.1738 14.1924 30.9678V30.7021C14.1921 30.6002 14.212 30.4992 14.2508 30.4049C14.2896 30.3106 14.3466 30.2249 14.4185 30.1527C14.4905 30.0804 14.576 30.0231 14.6701 29.9839C14.7642 29.9447 14.8651 29.9245 14.967 29.9243H15.1242C15.3302 29.924 15.5279 30.0055 15.6739 30.1508C15.8199 30.2962 15.9021 30.4936 15.9026 30.6996V30.9653ZM15.0406 31.4643C15.2901 31.4643 15.4978 31.1874 15.5003 30.8406C15.5003 30.4956 15.3007 30.2168 15.0494 30.2125C14.798 30.2081 14.5922 30.4894 14.5897 30.8362C14.5872 31.178 14.7893 31.4593 15.0406 31.4612V31.4643Z" fill="#85868A"/>
<path d="M16.4268 30.0341C16.4268 30.0075 16.4373 29.9819 16.4561 29.9629C16.4749 29.944 16.5005 29.9333 16.5272 29.9331H17.1559C17.628 29.9331 18.0116 30.2824 18.0129 30.7165V30.956C18.0129 31.3926 17.6324 31.7431 17.1609 31.7444H16.5322C16.5054 31.7442 16.4798 31.7335 16.4609 31.7146C16.442 31.6957 16.4313 31.6701 16.4311 31.6433L16.4268 30.0341ZM16.839 30.3105L16.8353 31.3708C16.8353 31.3903 16.843 31.409 16.8569 31.4228C16.8707 31.4366 16.8894 31.4444 16.9089 31.4444H17.0923C17.2259 31.4444 17.3541 31.3913 17.4486 31.2968C17.5431 31.2023 17.5962 31.0741 17.5962 30.9404V30.7446C17.5971 30.6112 17.545 30.483 17.4515 30.3879C17.358 30.2929 17.2306 30.2388 17.0973 30.2375H16.9133C16.9036 30.2374 16.894 30.2392 16.885 30.2428C16.8761 30.2465 16.8679 30.2518 16.861 30.2586C16.8541 30.2654 16.8487 30.2734 16.8449 30.2823C16.8411 30.2912 16.8391 30.3008 16.839 30.3105Z" fill="#85868A"/>
<path d="M18.9894 30.3116C18.9779 30.3154 18.9679 30.3228 18.9608 30.3327C18.9538 30.3425 18.95 30.3544 18.9501 30.3665L18.9532 31.6907C18.9533 31.6973 18.9521 31.7039 18.9496 31.71C18.9472 31.7162 18.9435 31.7218 18.9389 31.7266C18.9342 31.7313 18.9287 31.7351 18.9226 31.7377C18.9165 31.7403 18.91 31.7417 18.9033 31.7418L18.5915 31.7474C18.576 31.7476 18.5612 31.7417 18.5501 31.7309C18.539 31.7202 18.5326 31.7055 18.5322 31.69V30.0802C18.5322 30.0684 18.5362 30.0569 18.5434 30.0476C18.5506 30.0382 18.5607 30.0315 18.5721 30.0284C18.8823 29.9365 19.2096 29.9175 19.5283 29.9729C19.8431 30.0353 20.0113 30.2307 20.0329 30.5592C20.0524 30.8503 20.0566 31.231 20.0454 31.7013C20.0462 31.708 20.0455 31.7148 20.0433 31.7212C20.041 31.7275 20.0374 31.7333 20.0325 31.738C20.0277 31.7427 20.0218 31.7463 20.0154 31.7483C20.009 31.7504 20.0022 31.7509 19.9955 31.7499H19.6661C19.6605 31.7506 19.6547 31.75 19.6494 31.7482C19.644 31.7463 19.6391 31.7433 19.635 31.7392C19.631 31.7352 19.6279 31.7303 19.6261 31.7249C19.6242 31.7195 19.6237 31.7138 19.6244 31.7081C19.6206 31.4121 19.6206 31.1012 19.6244 30.7757C19.6331 30.379 19.3948 30.1769 18.9894 30.3116Z" fill="#85868A"/>
<path d="M21.6282 30.6233C21.6089 30.191 21.1087 30.1729 20.7887 30.2833C20.7263 30.3045 20.6908 30.2833 20.6827 30.2172L20.6683 30.1081C20.6651 30.0954 20.6647 30.0822 20.667 30.0694C20.6694 30.0566 20.6744 30.0444 20.6819 30.0337C20.6893 30.023 20.699 30.014 20.7102 30.0074C20.7214 30.0007 20.7339 29.9966 20.7469 29.9952C21.3151 29.8648 21.99 29.8941 21.9781 30.6457C21.9723 30.9912 21.9723 31.3187 21.9781 31.6281C21.9793 31.6391 21.9763 31.6501 21.9697 31.659C21.9631 31.6679 21.9534 31.674 21.9426 31.6761C21.4654 31.8139 20.5561 31.9162 20.5205 31.2189C20.5084 30.9973 20.6084 30.8382 20.8205 30.7418C21.0525 30.6364 21.3282 30.6707 21.5815 30.6719C21.588 30.6729 21.5947 30.6724 21.601 30.6703C21.6073 30.6681 21.6129 30.6645 21.6175 30.6598C21.6221 30.655 21.6255 30.6492 21.6273 30.6428C21.6292 30.6365 21.6295 30.6298 21.6282 30.6233ZM21.6207 31.3867V31.0599C21.6207 31.042 21.6136 31.0249 21.601 31.0122C21.5884 30.9996 21.5713 30.9925 21.5534 30.9925H21.2621C21.0525 30.9925 20.8835 31.0917 20.8835 31.2127V31.2351C20.8835 31.3561 21.0538 31.4547 21.2634 31.454H21.554C21.5717 31.4537 21.5886 31.4465 21.6011 31.4339C21.6135 31.4213 21.6206 31.4044 21.6207 31.3867Z" fill="#85868A"/>
<path d="M24.0261 30.3873C24.054 30.8289 24.0606 31.2697 24.0461 31.7096C24.0467 31.716 24.0458 31.7224 24.0437 31.7284C24.0415 31.7343 24.038 31.7398 24.0335 31.7442C24.0289 31.7487 24.0234 31.7521 24.0174 31.7542C24.0114 31.7563 24.005 31.7571 23.9987 31.7564L23.6974 31.7639C23.6908 31.765 23.6841 31.7646 23.6777 31.7626C23.6713 31.7607 23.6655 31.7573 23.6606 31.7527C23.6558 31.7481 23.6521 31.7424 23.6498 31.7361C23.6475 31.7298 23.6467 31.7231 23.6475 31.7165C23.6404 31.4549 23.6404 31.1807 23.6475 30.8938C23.6556 30.5102 23.5614 30.2027 23.0862 30.3069C23.0576 30.3108 23.0316 30.3255 23.0136 30.348C22.9956 30.3706 22.987 30.3992 22.9895 30.4279L22.9926 31.6947C22.9936 31.7022 22.9929 31.7099 22.9905 31.7171C22.9881 31.7243 22.984 31.7308 22.9786 31.7362C22.9733 31.7416 22.9667 31.7456 22.9595 31.7481C22.9523 31.7505 22.9446 31.7512 22.9371 31.7502H22.6321C22.6237 31.7512 22.6151 31.7503 22.6071 31.7475C22.5991 31.7447 22.5918 31.7401 22.5858 31.7341C22.5798 31.7281 22.5752 31.7208 22.5724 31.7128C22.5696 31.7048 22.5687 31.6962 22.5697 31.6878V30.0836C22.5697 30.076 22.5722 30.0685 22.5768 30.0624C22.5815 30.0564 22.5879 30.052 22.5953 30.0499C23.0593 29.916 23.4616 29.9254 23.8022 30.078C23.8139 30.0832 23.8265 30.0859 23.8393 30.0859C23.8521 30.0859 23.8648 30.0832 23.8764 30.078C24.1388 29.9596 24.4341 29.9355 24.7122 30.01C25.0465 30.0942 25.1401 30.4223 25.1351 30.7354C25.1305 31.0635 25.1326 31.377 25.1413 31.676C25.1439 31.6893 25.1431 31.703 25.1392 31.7159C25.1352 31.7289 25.1282 31.7407 25.1187 31.7503C25.1092 31.7599 25.0975 31.7671 25.0846 31.7712C25.0717 31.7753 25.058 31.7762 25.0447 31.7739L24.7846 31.7676C24.7626 31.7672 24.7417 31.758 24.7264 31.7423C24.7112 31.7265 24.7027 31.7054 24.7029 31.6834C24.7066 31.357 24.7091 31.0368 24.7103 30.7229C24.7103 30.2982 24.3897 30.2239 24.0573 30.3387C24.0469 30.3414 24.0379 30.3479 24.0321 30.3569C24.0264 30.3659 24.0242 30.3768 24.0261 30.3873Z" fill="#85868A"/>
<path d="M27.3451 31.0142C27.3457 31.1153 27.3264 31.2154 27.2882 31.309C27.25 31.4026 27.1938 31.4877 27.1227 31.5595C27.0517 31.6314 26.9671 31.6885 26.874 31.7276C26.7808 31.7667 26.6809 31.7871 26.5798 31.7876H26.4039C26.1997 31.7886 26.0035 31.7085 25.8584 31.5649C25.7132 31.4213 25.6311 31.2259 25.6299 31.0217V30.7485C25.6293 30.6475 25.6487 30.5473 25.6868 30.4537C25.725 30.3602 25.7812 30.275 25.8523 30.2032C25.9233 30.1314 26.0079 30.0743 26.101 30.0351C26.1942 29.996 26.2942 29.9756 26.3952 29.9751H26.5711C26.7753 29.9741 26.9715 30.0542 27.1166 30.1979C27.2618 30.3415 27.344 30.5368 27.3451 30.741V31.0142ZM26.4856 31.5132C26.7351 31.5132 26.941 31.2338 26.9416 30.8895C26.9416 30.5439 26.7389 30.2658 26.4881 30.2658C26.2386 30.2658 26.0328 30.5452 26.0322 30.8895C26.0322 31.235 26.2349 31.5132 26.4856 31.5132Z" fill="#85868A"/>
<path d="M29.487 31.0246C29.4867 31.1275 29.4661 31.2294 29.4263 31.3243C29.3866 31.4193 29.3286 31.5055 29.2556 31.578C29.1825 31.6505 29.0959 31.708 29.0007 31.747C28.9054 31.786 28.8034 31.8059 28.7005 31.8055H28.552C28.3441 31.8045 28.145 31.7211 27.9985 31.5735C27.852 31.4259 27.77 31.2263 27.7705 31.0183V30.7614C27.7708 30.6584 27.7914 30.5566 27.8312 30.4616C27.8709 30.3667 27.9289 30.2805 28.0019 30.2079C28.075 30.1354 28.1616 30.078 28.2568 30.039C28.3521 29.9999 28.4541 29.9801 28.557 29.9805H28.7055C28.9134 29.9815 29.1125 30.0649 29.259 30.2125C29.4055 30.36 29.4875 30.5597 29.487 30.7676V31.0246ZM28.6263 31.5236C28.8757 31.5236 29.0822 31.2448 29.0834 30.8998C29.0834 30.5543 28.882 30.273 28.6312 30.2724C28.3805 30.2718 28.1753 30.5512 28.1741 30.8961C28.1741 31.2416 28.3755 31.5198 28.6263 31.5236Z" fill="#85868A"/>
<path d="M13.3607 30.8274C13.3625 30.4829 13.1596 30.2026 12.9074 30.2013C12.6553 30.1999 12.4494 30.4781 12.4476 30.8226C12.4458 31.167 12.6487 31.4474 12.9009 31.4487C13.153 31.45 13.3589 31.1718 13.3607 30.8274Z" fill="white"/>
<path d="M15.5009 30.8389C15.5033 30.4938 15.3014 30.2125 15.05 30.2108C14.7985 30.209 14.5927 30.4874 14.5903 30.8326C14.5879 31.1777 14.7898 31.4589 15.0412 31.4607C15.2927 31.4625 15.4985 31.1841 15.5009 30.8389Z" fill="white"/>
<path d="M16.839 30.3094C16.839 30.2899 16.8467 30.2712 16.8605 30.2574C16.8743 30.2436 16.8931 30.2358 16.9126 30.2358H17.0959C17.2292 30.2372 17.3565 30.2912 17.45 30.3861C17.5435 30.481 17.5956 30.6091 17.5949 30.7423V30.9381C17.5948 31.0717 17.5416 31.1997 17.4471 31.2941C17.3526 31.3885 17.2245 31.4415 17.091 31.4415H16.9076C16.8881 31.4415 16.8693 31.4337 16.8555 31.4199C16.8417 31.4061 16.834 31.3874 16.834 31.3679L16.839 30.3094Z" fill="white"/>
<path d="M26.9417 30.8872C26.9423 30.5417 26.7392 30.2613 26.4881 30.2608C26.237 30.2604 26.0329 30.5401 26.0323 30.8856C26.0317 31.2311 26.2348 31.5116 26.4859 31.512C26.7371 31.5125 26.9411 31.2327 26.9417 30.8872Z" fill="white"/>
<path d="M29.0844 30.8991C29.0856 30.5536 28.883 30.2728 28.6319 30.2719C28.3808 30.271 28.1762 30.5504 28.175 30.8959C28.1738 31.2414 28.3764 31.5222 28.6275 31.5231C28.8787 31.5239 29.0832 31.2446 29.0844 30.8991Z" fill="white"/>
<path d="M21.621 31.3874C21.6209 31.4051 21.6138 31.422 21.6013 31.4346C21.5889 31.4472 21.572 31.4544 21.5543 31.4547H21.2636C21.0541 31.4547 20.8844 31.3574 20.8838 31.2358V31.2133C20.8838 31.0923 21.0528 30.9938 21.2624 30.9932H21.553C21.5619 30.9931 21.5707 30.9947 21.5789 30.9981C21.5871 31.0014 21.5945 31.0063 21.6009 31.0125C21.6072 31.0187 21.6122 31.026 21.6157 31.0342C21.6191 31.0423 21.6209 31.0511 21.621 31.0599V31.3874Z" fill="white"/>
<circle cx="20" cy="20" r="19.5" stroke="black" stroke-opacity="0.05"/>
</svg>
