<svg width="41" height="40" viewBox="0 0 41 40" fill="none" xmlns="http://www.w3.org/2000/svg">
<circle cx="20.0371" cy="20" r="20" fill="#F6F8FA"/>
<g clip-path="url(#clip0_17752_43611)">
<path d="M11.0742 16.536V29.2953L16.689 27.2806V12.3792L13.0563 13.7155C11.8657 14.152 11.0742 15.2735 11.0742 16.536Z" fill="#CE0000"/>
<path d="M27.5063 11.338L20.9648 8.89361C20.1462 8.59142 19.2263 8.84661 18.6986 9.53158L16.6895 12.3789L22.0742 14.8166C22.3448 14.9375 22.514 15.2061 22.514 15.4949V28.7175L25.4228 29.9532C25.6122 30.0338 25.8219 30.0338 26.0113 29.9532L28.9202 28.7175V13.3594C28.9202 12.4595 28.3587 11.6537 27.5131 11.338H27.5063Z" fill="#CE0000"/>
</g>
<circle cx="20.0371" cy="20" r="19.5" stroke="black" stroke-opacity="0.05"/>
<defs>
<clipPath id="clip0_17752_43611">
<rect width="18" height="23" fill="white" transform="translate(11.0371 8)"/>
</clipPath>
</defs>
</svg>
