<svg width="40" height="40" viewBox="0 0 40 40" fill="none" xmlns="http://www.w3.org/2000/svg">
<circle cx="20" cy="20" r="20" fill="#E23034"/>
<g clip-path="url(#clip0_17752_43611)">
<path d="M17.3386 17.8469C17.3398 18.0669 17.291 18.0787 17.1921 17.8822L13.7986 11.1428C13.721 10.9875 13.6068 10.8669 13.4563 10.781L11.1145 9.44163C11.072 9.41749 11.0241 9.40479 10.9755 9.40479C10.9269 9.40479 10.8793 9.41749 10.8374 9.44163L8.32273 10.8869C8.2792 10.9116 8.25744 10.9493 8.25744 10.9999L8.25391 25.1369C8.25391 25.1948 8.2691 25.2516 8.29792 25.3015C8.32675 25.3514 8.36818 25.3927 8.41802 25.421L10.8163 26.8116C10.857 26.8352 10.9033 26.8476 10.9504 26.8476C10.9975 26.8476 11.0437 26.8352 11.0845 26.8116L13.5674 25.3963C13.6166 25.368 13.6574 25.3272 13.6856 25.2782C13.7139 25.2292 13.7285 25.1738 13.728 25.1175L13.7051 22.2305C13.705 22.2223 13.7069 22.2143 13.7105 22.207C13.714 22.1997 13.7192 22.1933 13.7256 22.1885C13.732 22.1837 13.7394 22.1805 13.7472 22.1792C13.755 22.1779 13.7629 22.1785 13.7704 22.181C13.8268 22.1987 13.868 22.2328 13.8939 22.2834C14.9904 24.4622 16.1063 26.6816 17.2416 28.9416C17.311 29.0816 17.4133 29.1905 17.5486 29.2681L19.8833 30.6128C19.9321 30.6408 19.9872 30.6556 20.0432 30.6559C20.0992 30.6563 20.1542 30.642 20.2027 30.6146L22.6592 29.2028C22.7015 29.1788 22.7366 29.144 22.7611 29.1018C22.7856 29.0596 22.7985 29.0117 22.7986 28.9628L22.8021 24.3852C22.8021 24.311 22.8339 24.2552 22.8974 24.2175C24.6163 23.1952 26.4439 22.1399 28.3804 21.0516C29.1945 20.5952 29.8251 20.1275 30.2721 19.6487C31.1592 18.6981 31.668 17.5687 31.7986 16.2605C31.8774 15.4828 31.808 14.8257 31.5904 14.2893C31.281 13.5222 30.7921 12.944 30.1239 12.5546C29.3615 12.1087 28.5598 11.6416 27.7186 11.1534C26.2345 10.2922 24.971 10.3257 23.4692 11.1993C21.2315 12.4981 19.211 13.6587 17.4074 14.681C17.3498 14.714 17.321 14.764 17.321 14.831L17.3386 17.8469Z" stroke="#F1989A" stroke-width="0.352941"/>
<path d="M17.5657 25.5036C17.5514 25.5221 17.5327 25.5367 17.5113 25.5461C17.4899 25.5555 17.4665 25.5593 17.4434 25.5571C17.4203 25.555 17.3981 25.5471 17.3791 25.534C17.36 25.5209 17.3447 25.5032 17.3345 25.4825L10.9551 12.8348C10.881 12.6866 10.7716 12.5713 10.6269 12.4889L8.68745 11.3825C8.56392 11.3119 8.50275 11.3472 8.50392 11.4883L8.52333 24.9495C8.52328 25.0111 8.53943 25.0714 8.57012 25.1244C8.60082 25.1775 8.64496 25.2212 8.69804 25.2513L10.6569 26.3736C10.6725 26.3827 10.6903 26.3874 10.7084 26.3874C10.7265 26.3873 10.7442 26.3825 10.7598 26.3733C10.7754 26.3642 10.7883 26.351 10.7972 26.3353C10.8061 26.3195 10.8106 26.3017 10.8104 26.2836L10.8086 16.1172C10.8086 16.1051 10.8111 16.0932 10.8158 16.0821C10.8206 16.0711 10.8276 16.0611 10.8363 16.0528C10.8451 16.0446 10.8554 16.0382 10.8668 16.0341C10.8781 16.03 10.8901 16.0282 10.9022 16.0289C11.0127 16.0372 11.0933 16.0919 11.1439 16.1931C13.2804 20.4225 15.3816 24.5895 17.4475 28.6942C17.5292 28.8565 17.6569 28.9909 17.8145 29.0807L19.6939 30.1625C19.8186 30.2342 19.881 30.1983 19.881 30.0548L19.8845 16.4913C19.8846 16.4607 19.8766 16.4308 19.8614 16.4044C19.8462 16.3781 19.8243 16.3563 19.798 16.3413L17.7104 15.1466C17.6997 15.1404 17.6877 15.1372 17.6754 15.1371C17.6631 15.1371 17.651 15.1402 17.6403 15.1463C17.6296 15.1524 17.6207 15.1611 17.6144 15.1717C17.6081 15.1823 17.6047 15.1943 17.6045 15.2066C17.6116 18.6019 17.611 22.0019 17.6027 25.4066C17.6016 25.4242 17.5975 25.4419 17.5904 25.4595C17.5833 25.4748 17.5751 25.4895 17.5657 25.5036Z" stroke="#F1989A" stroke-width="0.352941"/>
<path d="M31.2884 17.2872C31.5002 16.6096 31.5925 16.0231 31.5655 15.5278C31.4996 14.3102 30.9537 13.3937 29.9278 12.7784C29.2125 12.349 28.4596 12.2061 27.669 12.3496C27.2078 12.4331 26.5696 12.7131 25.7543 13.1896C23.7684 14.3484 21.9355 15.4043 20.2555 16.3572C20.2225 16.3772 20.2061 16.4066 20.2061 16.4455L20.2078 30.1272C20.2076 30.142 20.2114 30.1565 20.2187 30.1693C20.2259 30.1821 20.2365 30.1927 20.2493 30.2001C20.262 30.2075 20.2765 30.2113 20.2913 30.2112C20.306 30.2111 20.3204 30.2071 20.3331 30.1996L22.3766 29.0102C22.4637 28.9584 22.5072 28.8825 22.5072 28.7825V24.2014C22.5072 24.1225 22.5414 24.0631 22.6096 24.0231C24.3508 23.0078 26.1014 22.0055 27.8614 21.0161C28.859 20.4549 29.5625 19.9625 29.9719 19.539C30.5766 18.9131 31.0155 18.1625 31.2884 17.2872Z" stroke="#F1989A" stroke-width="0.352941"/>
<path d="M26.9796 18.8597C27.4525 18.6126 27.762 18.4279 27.9078 18.3055C28.6831 17.6561 29.1302 16.8249 29.249 15.812C29.2843 15.5191 29.212 15.2608 29.032 15.0373C28.6437 14.5538 28.152 14.4814 27.5567 14.8202C25.8896 15.7708 24.2302 16.7226 22.5784 17.6755C22.5565 17.6884 22.5384 17.7068 22.526 17.7288C22.5136 17.7508 22.5073 17.7757 22.5078 17.8008L22.5131 21.242C22.5132 21.2608 22.5181 21.2793 22.5275 21.2955C22.5369 21.3118 22.5504 21.3254 22.5666 21.3348C22.5828 21.3443 22.6013 21.3493 22.6201 21.3495C22.6389 21.3496 22.6574 21.3448 22.6737 21.3355C23.7902 20.6967 24.9125 20.0461 26.0408 19.3838C26.3678 19.192 26.6808 19.0173 26.9796 18.8597Z" stroke="#F1989A" stroke-width="0.352941"/>
<path d="M25.5898 17.6072C26.368 17.1607 26.8498 16.4337 27.0633 15.5725C27.0665 15.5597 27.0658 15.5462 27.0614 15.5338C27.057 15.5214 27.049 15.5106 27.0385 15.5027C27.0279 15.4948 27.0153 15.4901 27.0021 15.4894C26.989 15.4886 26.9759 15.4917 26.9645 15.4984L22.8386 17.8737C22.8269 17.88 22.8171 17.8896 22.8103 17.9014C22.8034 17.9132 22.7998 17.9268 22.7998 17.9407L22.8016 19.2042C22.8013 19.2079 22.8021 19.2115 22.8037 19.2147C22.8054 19.2179 22.808 19.2206 22.8111 19.2224C22.8142 19.2242 22.8178 19.2252 22.8214 19.2251C22.825 19.225 22.8285 19.2239 22.8316 19.2219C23.748 18.6748 24.6675 18.1366 25.5898 17.6072Z" stroke="#F1989A" stroke-width="0.352941"/>
<path d="M17.3386 17.8467L17.321 14.8308C17.321 14.7637 17.3498 14.7137 17.4074 14.6808C19.211 13.6584 21.2315 12.4979 23.4692 11.199C24.971 10.3255 26.2345 10.292 27.7186 11.1532C28.5598 11.6414 29.3615 12.1084 30.1239 12.5543C30.7921 12.9437 31.281 13.522 31.5904 14.289C31.808 14.8255 31.8774 15.4826 31.7986 16.2602C31.668 17.5684 31.1592 18.6979 30.2721 19.6484C29.8251 20.1273 29.1945 20.5949 28.3804 21.0514C26.4439 22.1396 24.6163 23.1949 22.8974 24.2173C22.8339 24.2549 22.8021 24.3108 22.8021 24.3849L22.7986 28.9626C22.7985 29.0114 22.7856 29.0594 22.7611 29.1016C22.7366 29.1437 22.7015 29.1786 22.6592 29.2026L20.2027 30.6143C20.1542 30.6417 20.0992 30.656 20.0432 30.6557C19.9872 30.6554 19.9321 30.6405 19.8833 30.6126L17.5486 29.2679C17.4133 29.1902 17.311 29.0814 17.2416 28.9414C16.1063 26.6814 14.9904 24.462 13.8939 22.2832C13.868 22.2326 13.8268 22.1984 13.7704 22.1808C13.7629 22.1783 13.755 22.1776 13.7472 22.1789C13.7394 22.1802 13.732 22.1834 13.7256 22.1883C13.7192 22.1931 13.714 22.1994 13.7105 22.2067C13.7069 22.214 13.705 22.2221 13.7051 22.2302L13.728 25.1173C13.7285 25.1735 13.7139 25.229 13.6856 25.278C13.6574 25.3269 13.6166 25.3677 13.5674 25.3961L11.0845 26.8114C11.0437 26.8349 10.9975 26.8473 10.9504 26.8473C10.9033 26.8473 10.857 26.8349 10.8163 26.8114L8.41802 25.4208C8.36818 25.3924 8.32675 25.3512 8.29792 25.3013C8.2691 25.2514 8.25391 25.1946 8.25391 25.1367L8.25744 10.9996C8.25744 10.949 8.2792 10.9114 8.32273 10.8867L10.8374 9.44139C10.8793 9.41724 10.9269 9.40454 10.9755 9.40454C11.0241 9.40454 11.072 9.41724 11.1145 9.44139L13.4563 10.7808C13.6068 10.8667 13.721 10.9873 13.7986 11.1426L17.1921 17.882C17.291 18.0784 17.3398 18.0667 17.3386 17.8467ZM17.5645 25.5037C17.5502 25.5222 17.5315 25.5368 17.5101 25.5462C17.4887 25.5556 17.4653 25.5594 17.4422 25.5572C17.4191 25.5551 17.3969 25.5472 17.3779 25.5341C17.3588 25.521 17.3435 25.5033 17.3333 25.4826L10.9539 12.8349C10.8798 12.6867 10.7704 12.5714 10.6257 12.489L8.68626 11.3826C8.56273 11.312 8.50155 11.3473 8.50273 11.4884L8.52214 24.9496C8.52209 25.0112 8.53823 25.0715 8.56893 25.1245C8.59963 25.1776 8.64377 25.2213 8.69685 25.2514L10.6557 26.3737C10.6713 26.3828 10.6891 26.3875 10.7072 26.3875C10.7253 26.3874 10.743 26.3825 10.7586 26.3734C10.7742 26.3643 10.7871 26.3511 10.796 26.3354C10.8049 26.3196 10.8094 26.3018 10.8092 26.2837L10.8074 16.1173C10.8074 16.1052 10.8099 16.0933 10.8146 16.0822C10.8194 16.0712 10.8264 16.0612 10.8351 16.0529C10.8439 16.0447 10.8542 16.0383 10.8656 16.0342C10.8769 16.0301 10.8889 16.0283 10.901 16.029C11.0116 16.0373 11.0921 16.092 11.1427 16.1932C13.2792 20.4226 15.3804 24.5896 17.4463 28.6943C17.528 28.8566 17.6557 28.991 17.8133 29.0808L19.6927 30.1626C19.8174 30.2343 19.8798 30.1984 19.8798 30.0549L19.8833 16.4914C19.8834 16.4608 19.8754 16.4309 19.8602 16.4045C19.845 16.3782 19.8231 16.3564 19.7968 16.3414L17.7092 15.1467C17.6985 15.1405 17.6865 15.1373 17.6742 15.1372C17.6619 15.1372 17.6498 15.1403 17.6391 15.1464C17.6284 15.1525 17.6195 15.1612 17.6132 15.1718C17.6069 15.1824 17.6035 15.1944 17.6033 15.2067C17.6104 18.602 17.6098 22.002 17.6015 25.4067C17.6004 25.4243 17.5963 25.442 17.5892 25.4596C17.5821 25.4749 17.5739 25.4896 17.5645 25.5037ZM31.2886 17.2873C31.5004 16.6096 31.5927 16.0232 31.5657 15.5279C31.4998 14.3102 30.9539 13.3937 29.928 12.7784C29.2127 12.349 28.4598 12.2061 27.6692 12.3496C27.208 12.4332 26.5698 12.7132 25.7545 13.1896C23.7686 14.3484 21.9357 15.4043 20.2557 16.3573C20.2227 16.3773 20.2063 16.4067 20.2063 16.4455L20.208 30.1273C20.2078 30.142 20.2116 30.1565 20.2189 30.1693C20.2262 30.1821 20.2367 30.1928 20.2495 30.2001C20.2622 30.2075 20.2767 30.2113 20.2915 30.2113C20.3062 30.2112 20.3206 30.2071 20.3333 30.1996L22.3768 29.0102C22.4639 28.9584 22.5074 28.8826 22.5074 28.7826V24.2014C22.5074 24.1226 22.5415 24.0632 22.6098 24.0232C24.351 23.0079 26.1015 22.0055 27.8615 21.0161C28.8592 20.4549 29.5627 19.9626 29.9721 19.539C30.5768 18.9132 31.0157 18.1626 31.2886 17.2873Z" fill="white"/>
<path d="M17.5647 25.5039C17.5741 25.4898 17.5824 25.4751 17.5894 25.4598C17.5965 25.4421 17.6006 25.4245 17.6018 25.4068C17.61 22.0021 17.6106 18.6021 17.6035 15.2068C17.6037 15.1945 17.6071 15.1825 17.6134 15.1719C17.6197 15.1614 17.6286 15.1526 17.6393 15.1465C17.65 15.1405 17.6621 15.1373 17.6744 15.1374C17.6867 15.1374 17.6988 15.1407 17.7094 15.1468L19.7971 16.3415C19.8234 16.3565 19.8452 16.3783 19.8604 16.4047C19.8756 16.431 19.8836 16.461 19.8835 16.4915L19.88 30.0551C19.88 30.1986 19.8177 30.2345 19.693 30.1627L17.8135 29.0809C17.6559 28.9911 17.5282 28.8567 17.4465 28.6945C15.3806 24.5898 13.2794 20.4227 11.1429 16.1933C11.0924 16.0921 11.0118 16.0374 10.9012 16.0292C10.8892 16.0285 10.8771 16.0302 10.8658 16.0343C10.8545 16.0384 10.8441 16.0448 10.8353 16.0531C10.8266 16.0613 10.8196 16.0713 10.8148 16.0824C10.8101 16.0934 10.8076 16.1054 10.8077 16.1174L10.8094 26.2839C10.8097 26.302 10.8051 26.3198 10.7962 26.3355C10.7873 26.3513 10.7744 26.3644 10.7588 26.3735C10.7432 26.3827 10.7255 26.3875 10.7074 26.3876C10.6893 26.3877 10.6715 26.3829 10.6559 26.3739L8.69706 25.2515C8.64399 25.2215 8.59984 25.1777 8.56915 25.1247C8.53845 25.0717 8.5223 25.0113 8.52236 24.9498L8.50295 11.4886C8.50177 11.3474 8.56295 11.3121 8.68648 11.3827L10.6259 12.4892C10.7706 12.5715 10.88 12.6868 10.9541 12.8351L17.3335 25.4827C17.3437 25.5034 17.3591 25.5212 17.3781 25.5342C17.3972 25.5473 17.4193 25.5553 17.4424 25.5574C17.4656 25.5595 17.4889 25.5557 17.5103 25.5463C17.5317 25.537 17.5504 25.5224 17.5647 25.5039Z" fill="#E23034"/>
<path d="M31.2884 17.2867C31.0155 18.162 30.5766 18.9126 29.9719 19.5385C29.5625 19.962 28.859 20.4544 27.8614 21.0156C26.1014 22.005 24.3508 23.0073 22.6096 24.0226C22.5414 24.0626 22.5072 24.122 22.5072 24.2009V28.782C22.5072 28.882 22.4637 28.9579 22.3766 29.0097L20.3331 30.1991C20.3204 30.2066 20.306 30.2106 20.2913 30.2107C20.2765 30.2108 20.262 30.207 20.2493 30.1996C20.2365 30.1922 20.2259 30.1816 20.2187 30.1688C20.2114 30.156 20.2076 30.1415 20.2078 30.1267L20.2061 16.445C20.2061 16.4062 20.2225 16.3767 20.2555 16.3567C21.9355 15.4038 23.7684 14.3479 25.7543 13.1891C26.5696 12.7126 27.2078 12.4326 27.669 12.3491C28.4596 12.2056 29.2125 12.3485 29.9278 12.7779C30.9537 13.3932 31.4996 14.3097 31.5655 15.5273C31.5925 16.0226 31.5002 16.6091 31.2884 17.2867ZM26.979 18.8591C27.4519 18.612 27.7614 18.4273 27.9072 18.305C28.6825 17.6556 29.1296 16.8244 29.2484 15.8115C29.2837 15.5185 29.2114 15.2603 29.0314 15.0367C28.6431 14.5532 28.1514 14.4809 27.5561 14.8197C25.889 15.7703 24.2296 16.722 22.5778 17.675C22.5559 17.6878 22.5378 17.7062 22.5254 17.7282C22.513 17.7503 22.5067 17.7751 22.5072 17.8003L22.5125 21.2415C22.5126 21.2602 22.5175 21.2787 22.5269 21.295C22.5363 21.3113 22.5498 21.3248 22.566 21.3343C22.5822 21.3437 22.6007 21.3488 22.6195 21.3489C22.6383 21.349 22.6568 21.3442 22.6731 21.335C23.7896 20.6962 24.9119 20.0456 26.0402 19.3832C26.3672 19.1915 26.6802 19.0167 26.979 18.8591Z" fill="#E23034"/>
<path d="M26.0408 19.3838C24.9125 20.0461 23.7902 20.6967 22.6737 21.3355C22.6574 21.3448 22.6389 21.3496 22.6201 21.3495C22.6013 21.3493 22.5828 21.3443 22.5666 21.3348C22.5504 21.3254 22.5369 21.3118 22.5275 21.2955C22.5181 21.2793 22.5132 21.2608 22.5131 21.242L22.5078 17.8008C22.5073 17.7757 22.5136 17.7508 22.526 17.7288C22.5384 17.7068 22.5565 17.6884 22.5784 17.6755C24.2302 16.7226 25.8896 15.7708 27.5567 14.8202C28.152 14.4814 28.6437 14.5538 29.032 15.0373C29.212 15.2608 29.2843 15.5191 29.249 15.812C29.1302 16.8249 28.6831 17.6561 27.9078 18.3055C27.762 18.4279 27.4525 18.6126 26.9796 18.8597C26.6808 19.0173 26.3678 19.192 26.0408 19.3838ZM25.589 17.6067C26.3673 17.1602 26.849 16.4332 27.0625 15.572C27.0657 15.5592 27.0651 15.5458 27.0606 15.5334C27.0562 15.5209 27.0482 15.5101 27.0377 15.5022C27.0272 15.4943 27.0145 15.4897 27.0014 15.4889C26.9882 15.4881 26.9751 15.4913 26.9637 15.4979L22.8378 17.8732C22.8261 17.8796 22.8163 17.8892 22.8095 17.901C22.8027 17.9128 22.799 17.9263 22.799 17.9402L22.8008 19.2038C22.8005 19.2074 22.8013 19.211 22.803 19.2142C22.8046 19.2174 22.8072 19.2201 22.8103 19.2219C22.8134 19.2237 22.817 19.2247 22.8206 19.2246C22.8242 19.2245 22.8278 19.2234 22.8308 19.2214C23.7473 18.6744 24.6667 18.1361 25.589 17.6067Z" fill="white"/>
<path d="M27.0624 15.572C26.8488 16.4332 26.3671 17.1602 25.5888 17.6067C24.6665 18.1361 23.7471 18.6743 22.8306 19.2214C22.8276 19.2234 22.824 19.2245 22.8204 19.2246C22.8168 19.2247 22.8132 19.2237 22.8101 19.2219C22.807 19.2201 22.8044 19.2174 22.8028 19.2142C22.8011 19.211 22.8003 19.2074 22.8006 19.2038L22.7988 17.9402C22.7988 17.9263 22.8025 17.9128 22.8093 17.9009C22.8161 17.8891 22.8259 17.8796 22.8377 17.8732L26.9635 15.4979C26.9749 15.4912 26.988 15.4881 27.0012 15.4889C27.0143 15.4896 27.027 15.4943 27.0375 15.5022C27.0481 15.5101 27.056 15.5209 27.0605 15.5333C27.0649 15.5458 27.0655 15.5592 27.0624 15.572Z" fill="#E23034"/>
</g>
<circle cx="20" cy="20" r="19.5" stroke="black" stroke-opacity="0.05"/>
<defs>
<clipPath id="clip0_17752_43611">
<rect width="24" height="21.7059" fill="white" transform="translate(8.03711 9.15674)"/>
</clipPath>
</defs>
</svg>
