<svg width="40" height="40" viewBox="0 0 40 40" fill="none" xmlns="http://www.w3.org/2000/svg">
<circle cx="20" cy="20" r="20" fill="#1436B1"/>
<g clip-path="url(#clip0_18553_55898)">
<path d="M8.06516 19.7068C8.06516 19.7068 8.06516 19.7468 8.04516 19.7268H7.14516C7.07516 19.7268 7.03516 19.6968 7.03516 19.6268V17.7568C7.03516 17.7568 7.03516 17.7368 7.05516 17.7368H9.03516C9.09516 17.7368 9.12516 17.7668 9.12516 17.8268V18.6268C9.12516 18.6768 9.07516 18.7168 9.02516 18.7268C8.69516 18.7468 8.38516 18.7468 8.10516 18.7268C8.06516 18.7268 8.04516 18.7368 8.04516 18.7768V19.6968L8.06516 19.7068Z" fill="white"/>
<path d="M8.04492 19.7268C8.04492 19.7268 8.07492 19.7368 8.06492 19.7068H8.99492C9.05492 19.7068 9.10492 19.6568 9.10492 19.5868V18.7968C9.10492 18.7968 9.13492 18.7368 9.17492 18.7368C9.95492 18.7268 10.6349 18.7368 11.2149 18.7568C13.1849 18.8368 13.0549 21.6668 11.2149 21.7568C10.6249 21.7868 9.95492 21.7868 9.21492 21.7668C9.15492 21.7668 9.12492 21.7968 9.12492 21.8568V23.0368C9.12492 23.0368 9.10492 23.0868 9.07492 23.0868H8.12492C8.12492 23.0868 8.05492 23.0568 8.05492 23.0168V19.7268H8.04492ZM9.11492 19.7968V20.6868C9.11492 20.6868 9.15492 20.7668 9.19492 20.7668H10.9949C11.2949 20.7668 11.5349 20.5368 11.5249 20.2768V20.2068C11.5249 19.9368 11.2849 19.7268 10.9849 19.7268H9.18492C9.18492 19.7268 9.10492 19.7668 9.10492 19.8068L9.11492 19.7968Z" fill="white"/>
<path d="M14.0852 18.7271H13.1652C13.1266 18.7271 13.0952 18.7584 13.0952 18.7971V23.0071C13.0952 23.0457 13.1266 23.0771 13.1652 23.0771H14.0852C14.1239 23.0771 14.1552 23.0457 14.1552 23.0071V18.7971C14.1552 18.7584 14.1239 18.7271 14.0852 18.7271Z" fill="white"/>
<path d="M15.715 20.607V23.017C15.715 23.017 15.695 23.077 15.655 23.077H14.745C14.695 23.077 14.665 23.057 14.665 23.007V18.787C14.665 18.787 14.695 18.717 14.735 18.717C14.955 18.717 15.315 18.677 15.505 18.847C16.485 19.717 17.415 20.547 18.305 21.347C18.315 21.357 18.335 21.357 18.355 21.347C18.355 21.347 18.355 21.337 18.355 21.327V18.787C18.355 18.787 18.375 18.727 18.415 18.727H19.345C19.345 18.727 19.405 18.757 19.405 18.787V22.997C19.405 22.997 19.395 23.057 19.355 23.067C19.195 23.087 19.025 23.097 18.845 23.077C18.735 23.077 18.595 22.987 18.415 22.827C17.525 22.047 16.645 21.287 15.805 20.567C15.745 20.517 15.725 20.527 15.725 20.607H15.715Z" fill="white"/>
<path d="M21.4852 19.7168H19.8952C19.8952 19.7168 19.8252 19.6768 19.8252 19.6368V18.8068C19.8252 18.7668 19.8552 18.7368 19.8952 18.7368H24.2652C24.2652 18.7368 24.3352 18.7768 24.3352 18.8168V19.6368C24.3352 19.6368 24.2952 19.7068 24.2552 19.7068H22.6652C22.6652 19.7068 22.5952 19.7468 22.5952 19.7868V22.9968C22.5952 23.0368 22.5652 23.0668 22.5252 23.0668H21.6352C21.6352 23.0668 21.5652 23.0468 21.5652 22.9968V19.7768C21.5652 19.7768 21.5252 19.7068 21.4852 19.7068V19.7168Z" fill="white"/>
<path d="M30.455 22.0968H33.365C33.365 22.0968 33.425 22.1268 33.425 22.1568V23.0168C33.425 23.0468 33.395 23.0768 33.365 23.0768H29.395C29.395 23.0768 29.335 23.0468 29.335 23.0168V18.7968C29.335 18.7968 29.365 18.7368 29.395 18.7368H30.325C30.325 18.7368 30.385 18.7568 30.385 18.7968V22.0468C30.385 22.0468 30.415 22.1068 30.445 22.1068L30.455 22.0968Z" fill="white"/>
<path d="M25.8054 19.7868V20.2968C25.8054 20.2968 25.8454 20.3668 25.8854 20.3668H28.6354C28.6354 20.3668 28.7054 20.3968 28.7054 20.4368V21.2668C28.7054 21.3068 28.6754 21.3368 28.6354 21.3368H25.8754C25.8754 21.3368 25.8054 21.3668 25.8054 21.4068V22.0068C25.8054 22.0068 25.8554 22.0768 25.8954 22.0768H28.7854C28.7854 22.0768 28.8554 22.1068 28.8554 22.1468V22.9768C28.8554 22.9768 28.8354 23.0468 28.7854 23.0468H24.8254C24.8254 23.0468 24.7554 23.0168 24.7554 22.9768V18.7868C24.7554 18.7468 24.7854 18.7168 24.8254 18.7168H28.7354C28.7354 18.7168 28.8054 18.7468 28.8054 18.7868V19.6168C28.8054 19.6168 28.7754 19.6868 28.7354 19.6868H25.8754C25.8754 19.6868 25.8054 19.7268 25.8054 19.7668V19.7868Z" fill="white"/>
</g>
<circle cx="20" cy="20" r="19.5" stroke="black" stroke-opacity="0.05"/>
<defs>
<clipPath id="clip0_18553_55898">
<rect width="26.39" height="5.35" fill="white" transform="translate(7.03516 17.7368)"/>
</clipPath>
</defs>
</svg>
