<svg width="40" height="40" viewBox="0 0 40 40" fill="none" xmlns="http://www.w3.org/2000/svg">
<circle cx="20" cy="20" r="20" fill="#FAE100"/>
<circle cx="20" cy="20" r="19.5" stroke="black" stroke-opacity="0.05"/>
<path d="M18.8638 12C18.8855 12.0467 18.8801 12.0968 18.8801 12.146C18.8801 13.0039 18.8801 13.8617 18.8801 14.7196V18.5844C18.8801 18.7381 18.8801 18.7382 18.7272 18.7382C18.5517 18.7382 18.3761 18.7388 18.2002 18.7382C18.1094 18.7376 18.1026 18.7294 18.1008 18.6384C18.1008 18.6209 18.1008 18.6034 18.1008 18.586V12.3221C18.1008 12.1493 18.0953 12.1736 18.2496 12.1386C18.4349 12.097 18.6205 12.0563 18.8059 12.0149C18.8196 12.0109 18.8331 12.0059 18.8462 12.0001L18.8638 12Z" fill="black"/>
<path d="M9.77744 12C9.7783 12.0437 9.77994 12.0874 9.77994 12.131C9.77994 14.2802 9.77994 16.4293 9.77994 18.5784C9.77994 18.6046 9.78072 18.6308 9.77951 18.657C9.77614 18.7259 9.76716 18.737 9.69641 18.7375C9.49483 18.7389 9.29326 18.7389 9.09169 18.7375C9.01463 18.737 9.00383 18.7237 9.00046 18.6444C8.99942 18.6182 9.00046 18.592 9.00046 18.5658V12.3276C9.00046 12.1745 9.00046 12.1739 9.14732 12.1405C9.31293 12.1028 9.47888 12.067 9.6444 12.0289C9.67775 12.0213 9.71351 12.0192 9.74331 12H9.77744Z" fill="black"/>
<path d="M26.878 16.4184C26.8831 16.0713 26.9169 15.7277 27.0197 15.3948C27.1604 14.939 27.4091 14.5614 27.8145 14.3011C28.052 14.1487 28.3141 14.0652 28.5908 14.0275C28.888 13.9865 29.1902 14.0026 29.4816 14.0748C29.9706 14.1949 30.3438 14.4737 30.6015 14.9114C30.7661 15.191 30.8547 15.4954 30.9059 15.8138C30.9349 15.9975 30.9501 16.1831 30.9513 16.3691C30.9558 16.8281 30.9129 17.2828 30.7267 17.7086C30.452 18.3369 29.979 18.7095 29.3021 18.8113C29.0116 18.8562 28.7156 18.8503 28.4271 18.7938C28.0795 18.7249 27.7722 18.574 27.5187 18.3229C27.3419 18.1467 27.2015 17.9368 27.1054 17.7053C26.9758 17.3996 26.9135 17.0796 26.8924 16.7491C26.8852 16.639 26.8766 16.5291 26.878 16.4184ZM27.6892 16.3827C27.6899 16.5957 27.6892 16.7554 27.71 16.9144C27.7407 17.1462 27.7898 17.3728 27.8983 17.5815C28.0724 17.9165 28.338 18.1269 28.714 18.185C28.823 18.2019 28.9327 18.2001 29.0411 18.1928C29.29 18.1762 29.5086 18.0838 29.6942 17.9112C29.8812 17.7375 29.9857 17.5181 30.0549 17.2773C30.131 17.0126 30.1486 16.7398 30.1566 16.4668C30.1617 16.2898 30.1463 16.1126 30.1236 15.9369C30.0908 15.6815 30.0279 15.435 29.9007 15.2085C29.7464 14.9341 29.52 14.7554 29.2166 14.6769C29.0835 14.6425 28.9479 14.6507 28.813 14.6534C28.5571 14.658 28.3379 14.7577 28.1511 14.931C27.9737 15.0947 27.87 15.3044 27.7994 15.5315C27.7086 15.826 27.68 16.1288 27.6892 16.3827Z" fill="black"/>
<path d="M16.7556 17.0491V18.559C16.7556 18.5824 16.7556 18.6056 16.7556 18.6289C16.7536 18.7284 16.7454 18.7371 16.6448 18.7378C16.521 18.7386 16.3972 18.7386 16.2733 18.7378C16.1776 18.7373 16.1756 18.7359 16.1565 18.638C16.1361 18.5325 16.1186 18.4263 16.0975 18.3209C16.084 18.2529 16.0697 18.2474 16.0137 18.2901C15.7539 18.4883 15.4699 18.6386 15.1576 18.7329C14.8802 18.8165 14.596 18.8413 14.3123 18.791C13.7709 18.6949 13.3926 18.27 13.331 17.7184C13.308 17.513 13.3183 17.3052 13.3615 17.1031C13.452 16.675 13.7112 16.3857 14.1039 16.2136C14.3307 16.1143 14.5704 16.0695 14.8155 16.0471C15.166 16.0151 15.5173 16.038 15.8681 16.0315C15.9977 16.029 15.9989 16.0308 15.9977 15.9004C15.9959 15.735 16.0096 15.5685 15.9761 15.4047C15.9395 15.2262 15.8838 15.0577 15.7542 14.9211C15.6265 14.7865 15.4692 14.7186 15.2912 14.6898C15.0395 14.6491 14.7921 14.6835 14.5464 14.7368C14.3409 14.7816 14.14 14.8456 13.9462 14.9279C13.9276 14.9358 13.9086 14.9427 13.8901 14.9506C13.861 14.9628 13.8394 14.9554 13.8273 14.9255C13.7652 14.7721 13.7032 14.6186 13.6412 14.4652C13.6239 14.4224 13.6458 14.4 13.68 14.3821C13.7923 14.323 13.9057 14.2661 14.0242 14.2204C14.4383 14.0609 14.8659 13.9821 15.3094 14.0077C15.532 14.0205 15.7484 14.0666 15.953 14.1601C16.2565 14.2986 16.4666 14.5288 16.5934 14.8365C16.6838 15.0557 16.7273 15.2866 16.7416 15.5236C16.774 16.0669 16.7438 16.6108 16.7556 17.0491ZM16.0109 17.1251C16.0109 16.9766 16.0113 16.8281 16.0109 16.6801C16.0105 16.5792 16.006 16.5739 15.9107 16.5738C15.6342 16.5738 15.3578 16.5715 15.0814 16.5757C14.9171 16.5774 14.7539 16.6036 14.5972 16.6534C14.325 16.7408 14.1512 16.9208 14.0917 17.2071C14.0546 17.3783 14.0581 17.5558 14.1019 17.7253C14.1591 17.9438 14.2969 18.0862 14.515 18.1382C14.6492 18.1702 14.7863 18.1843 14.9253 18.1619C15.312 18.0996 15.6604 17.9539 15.9571 17.6901C15.9955 17.6561 16.012 17.6203 16.0114 17.5698C16.0097 17.4218 16.0108 17.2734 16.0109 17.1251Z" fill="black"/>
<path d="M25.8433 17.1257C25.8433 17.6174 25.8433 18.109 25.8433 18.6006C25.8433 18.738 25.8433 18.7381 25.7032 18.7382C25.5852 18.7382 25.4671 18.7392 25.349 18.7377C25.2733 18.7367 25.2656 18.7303 25.2513 18.6566C25.2309 18.5511 25.2139 18.4448 25.1939 18.3391C25.1767 18.2458 25.168 18.243 25.0946 18.2978C24.8493 18.4805 24.5835 18.6241 24.2923 18.7157C24.0084 18.8049 23.7178 18.8386 23.4226 18.7901C23.1686 18.7484 22.9443 18.6369 22.7619 18.4539C22.6261 18.3175 22.5287 18.1471 22.4794 17.9602C22.3729 17.5628 22.3877 17.171 22.5635 16.7945C22.6649 16.5773 22.8313 16.4181 23.0349 16.2984C23.2547 16.1691 23.495 16.1011 23.7452 16.0657C23.9363 16.0396 24.129 16.0279 24.3218 16.0308C24.5492 16.0331 24.7767 16.0318 25.0042 16.0308C25.0911 16.0308 25.0979 16.0234 25.0986 15.9362C25.1 15.744 25.1051 15.5522 25.0626 15.3629C25.039 15.2572 25.0063 15.1551 24.9526 15.0612C24.8246 14.8377 24.6243 14.7281 24.3779 14.689C24.1286 14.6494 23.8841 14.6856 23.6413 14.736C23.4265 14.7806 23.2195 14.8522 23.0172 14.9381C22.9449 14.9688 22.9381 14.9665 22.9082 14.8944C22.8527 14.76 22.7982 14.6253 22.7448 14.4902C22.7146 14.4142 22.7157 14.4106 22.7842 14.3747C23.1459 14.1859 23.5272 14.0628 23.9332 14.0209C24.2248 13.9909 24.5139 13.9966 24.7987 14.0711C25.283 14.1978 25.592 14.51 25.7404 14.9892C25.8124 15.2215 25.84 15.4609 25.8419 15.7032C25.8458 16.1774 25.8433 16.6516 25.8433 17.1257ZM25.0993 17.1228C25.0993 16.9743 25.0998 16.8265 25.0993 16.6783C25.0993 16.5795 25.094 16.5743 24.9969 16.5742C24.718 16.5742 24.4391 16.5702 24.1603 16.5767C23.9761 16.581 23.7941 16.6103 23.6209 16.6799C23.4321 16.7557 23.295 16.8846 23.2248 17.0795C23.1434 17.3056 23.1408 17.5362 23.2089 17.7643C23.2671 17.9589 23.3995 18.0841 23.5971 18.1359C23.7476 18.1754 23.9014 18.1773 24.051 18.1521C24.4146 18.091 24.745 17.9499 25.0296 17.7066C25.0815 17.6619 25.1019 17.6162 25.1005 17.5501C25.0969 17.4075 25.0993 17.2651 25.0993 17.1228Z" fill="black"/>
<path d="M12.6449 18.367C12.6474 18.3978 12.6265 18.4066 12.6113 18.4187C12.5142 18.4959 12.4167 18.5728 12.3189 18.6495C12.2553 18.6995 12.1919 18.7496 12.1276 18.7986C12.0597 18.8505 12.0534 18.8496 12.0026 18.7863C11.7421 18.461 11.4816 18.1357 11.2212 17.8104C10.8827 17.3881 10.5443 16.9658 10.2059 16.5436C10.166 16.4939 10.126 16.4443 10.0879 16.3934C10.0472 16.3388 10.0462 16.3339 10.0861 16.2791C10.1765 16.155 10.2685 16.0322 10.3605 15.9094C10.8067 15.3139 11.2531 14.7184 11.6995 14.123C11.7221 14.0929 11.7454 14.0633 11.7686 14.0337C11.8172 13.9716 11.8239 13.9691 11.8868 14.0147C12.0107 14.1046 12.133 14.1966 12.2558 14.2878C12.2904 14.3136 12.325 14.3398 12.3595 14.3664C12.425 14.417 12.4256 14.4188 12.3768 14.4814C12.2468 14.648 12.1165 14.8143 11.986 14.9804C11.6593 15.3975 11.3327 15.8145 11.0062 16.2317C10.9608 16.2897 10.9616 16.3015 11.0087 16.3591C11.4835 16.9389 11.9583 17.5187 12.4331 18.0986C12.4936 18.1725 12.5535 18.2468 12.613 18.3215C12.6256 18.337 12.636 18.3543 12.6449 18.367Z" fill="black"/>
<path d="M20.9282 13.9814C20.9431 13.9902 20.9612 13.9996 20.9772 14.0115C21.1421 14.1335 21.3068 14.2558 21.4711 14.3784C21.5185 14.4139 21.5198 14.4168 21.4803 14.4679C21.3582 14.626 21.2345 14.783 21.1112 14.9403C20.7755 15.3689 20.4396 15.7974 20.1037 16.2259C20.0529 16.2907 20.0519 16.2931 20.1057 16.3595C20.3021 16.6028 20.4992 16.8455 20.697 17.0877C20.9548 17.4041 21.213 17.7203 21.4715 18.0363C21.5465 18.1283 21.6224 18.2197 21.6969 18.312C21.7496 18.3775 21.7483 18.3826 21.6822 18.4348C21.5325 18.553 21.3834 18.6717 21.233 18.7892C21.1538 18.851 21.149 18.8503 21.0888 18.7749C20.8679 18.4993 20.6472 18.2235 20.4265 17.9475C20.0663 17.4978 19.706 17.0481 19.3457 16.5985C19.295 16.5351 19.2446 16.4717 19.1932 16.409C19.1383 16.3421 19.1371 16.3371 19.1888 16.2676C19.4261 15.9495 19.6637 15.6315 19.9015 15.3136C20.2192 14.8891 20.5371 14.4648 20.8554 14.0408C20.874 14.0163 20.8864 13.9831 20.9282 13.9814Z" fill="black"/>
<path d="M18.1896 22.4433L18.2241 22.4132C18.2794 22.3551 18.3517 22.3241 18.4203 22.2874C18.8237 22.0722 19.2451 21.9531 19.7075 22.0174C20.0506 22.0651 20.3449 22.1966 20.5501 22.4872C20.6139 22.5775 20.6495 22.5532 20.7181 22.4959C21.2158 22.0772 21.7854 21.9133 22.4232 22.0459C22.9832 22.1623 23.2554 22.5584 23.3694 23.0936C23.4161 23.3129 23.4288 23.5354 23.4289 23.7589C23.4289 24.6832 23.4262 25.6075 23.4321 26.5318C23.433 26.6763 23.396 26.724 23.248 26.7178C22.9648 26.7053 22.6805 26.7142 22.3968 26.7142C22.1974 26.7142 22.1972 26.7142 22.1973 26.5045C22.1973 25.6121 22.1975 24.7197 22.1979 23.8273C22.1979 23.1928 22.0194 23.0217 21.3915 23.0561C21.381 23.0566 21.3705 23.0568 21.36 23.0576C20.862 23.0958 20.8434 23.1157 20.8434 23.612C20.8434 24.5788 20.8434 25.5456 20.8434 26.5125C20.8434 26.7143 20.8434 26.7143 20.6367 26.7143C20.3476 26.7143 20.0584 26.708 19.7697 26.7174C19.6435 26.7215 19.6094 26.6825 19.61 26.5564C19.6149 25.6428 19.6119 24.729 19.6127 23.8154C19.6133 23.2047 19.4281 23.0257 18.8234 23.0547C18.6643 23.0623 18.5137 23.1099 18.36 23.1441C18.2519 23.1682 18.2613 23.249 18.2613 23.3297C18.2621 24.3761 18.2624 25.4226 18.2622 26.469C18.2622 26.5168 18.2596 26.5651 18.2622 26.6124C18.2669 26.6884 18.2324 26.7154 18.1593 26.715C17.8125 26.7131 17.4656 26.7116 17.1189 26.7157C17.006 26.717 17.0247 26.6432 17.0246 26.5764C17.0242 25.9868 17.024 25.3971 17.0242 24.8075C17.0242 23.9682 17.027 23.1289 17.0215 22.2896C17.0206 22.1637 17.0533 22.1236 17.1786 22.1307C17.3676 22.1409 17.557 22.1406 17.746 22.1299C17.8483 22.1243 17.9021 22.166 17.9372 22.2522C17.971 22.2927 17.9877 22.3413 18.0048 22.3904C18.0585 22.5451 18.0595 22.5448 18.1896 22.4433Z" fill="black"/>
<path d="M30.811 25.049C30.5537 24.8922 30.2607 24.8226 29.9878 24.7042C29.9383 24.6759 29.884 24.6571 29.8278 24.6487C29.6941 24.5844 29.5633 24.5156 29.4563 24.4088L29.459 24.4107C29.1974 24.2517 29.0981 23.9858 29.0676 23.7086C29.0392 23.4507 29.0244 23.1816 29.1202 22.9262C29.1424 22.8673 29.1571 22.8054 29.2046 22.7603C29.6372 22.1087 30.2751 21.96 30.9963 22.0084C31.4041 22.0358 31.791 22.1407 32.1696 22.2931C32.2875 22.3407 32.3017 22.3941 32.2536 22.5058C32.1698 22.6999 32.0967 22.8989 32.0289 23.0998C31.9944 23.2026 31.9586 23.2309 31.8488 23.182C31.5693 23.0583 31.2711 22.9835 30.9669 22.9607C30.8085 22.948 30.6522 22.9554 30.5004 23.008C30.3503 23.0599 30.2459 23.1548 30.2233 23.3213C30.2006 23.4878 30.273 23.6087 30.4079 23.6964C30.5996 23.8209 30.8145 23.8926 31.0269 23.9685C31.3048 24.0678 31.577 24.177 31.8255 24.3408C32.2747 24.6371 32.4091 25.0719 32.3536 25.5837C32.2967 26.1092 32.03 26.4844 31.5361 26.6763C31.0422 26.8681 30.5281 26.8629 30.0133 26.7883C29.686 26.74 29.3639 26.661 29.051 26.5525C28.9618 26.5219 28.9276 26.4853 28.9583 26.3812C29.0239 26.1578 29.0802 25.9308 29.126 25.7024C29.1485 25.5906 29.1985 25.5785 29.2902 25.6073C29.495 25.6717 29.6991 25.7398 29.9147 25.7593C30.1597 25.8039 30.403 25.8599 30.6548 25.8523C30.7177 25.8504 30.782 25.8494 30.8409 25.8329C31.1653 25.7423 31.2489 25.5917 31.0933 25.245L31.0617 25.2133C30.99 25.1401 30.8887 25.1128 30.811 25.049Z" fill="black"/>
<path d="M11.783 22.2859C11.743 22.2323 11.7216 22.1644 11.6918 22.1031C11.6059 21.9249 11.5152 21.7494 11.4022 21.5866L11.3763 21.5558C11.3141 21.444 11.2662 21.5276 11.2208 21.5705C11.0079 21.7738 10.8148 21.9985 10.5911 22.1899C10.5755 22.1888 10.5579 22.1922 10.5447 22.1861C10.019 21.9415 9.47034 21.9172 8.91452 22.0328C8.40371 22.1389 7.97099 22.3854 7.75415 22.8881C7.50605 23.4632 7.56764 24.0142 7.97678 24.5066C8.01574 24.5824 8.12821 24.6007 8.12951 24.706C8.0185 24.8394 7.90265 24.9696 7.81851 25.123C7.61222 25.4995 7.58526 26.0066 7.90006 26.2871C7.9798 26.3582 7.91181 26.3953 7.87337 26.4399C7.67165 26.6728 7.52445 26.9336 7.50302 27.2483C7.46622 27.7879 7.76702 28.2318 8.32293 28.4334C9.01931 28.6858 9.72562 28.6549 10.4291 28.4591C10.807 28.3539 11.1332 28.1594 11.3666 27.8318C11.93 27.0409 11.592 26.0275 10.6731 25.7512C10.4555 25.6857 10.2308 25.6632 10.0039 25.6623C9.68346 25.661 9.36244 25.6698 9.04281 25.6528C8.68741 25.6338 8.55903 25.3864 8.71453 25.0637C8.75358 24.983 8.79712 24.96 8.8861 24.9764C9.54438 25.0949 10.1827 25.059 10.776 24.7069C10.8295 24.6647 10.9008 24.645 10.935 24.5783C11.001 24.5358 11.0624 24.4889 11.0905 24.4105C11.0909 24.4053 11.0922 24.4001 11.0942 24.3952C11.4456 23.8284 11.4942 23.2669 11.0701 22.7106C11.0614 22.6989 11.0182 22.664 11.0627 22.6351C11.1861 22.5933 11.3149 22.5722 11.4403 22.5376C11.526 22.5141 11.6107 22.4852 11.6977 22.4684C11.8153 22.4452 11.875 22.4085 11.783 22.2859ZM8.78356 26.578C9.14535 26.579 9.50732 26.5771 9.86911 26.5826C9.96351 26.5838 10.0573 26.5979 10.148 26.6245C10.5309 26.7395 10.6292 27.1613 10.3446 27.4525C10.23 27.5432 10.0945 27.5908 9.9606 27.6414C9.64459 27.7187 9.32737 27.7258 9.01093 27.6476C8.44871 27.5088 8.44854 27.0012 8.63721 26.6452C8.67116 26.5809 8.72447 26.5774 8.78356 26.578ZM10.2867 23.5312C10.2764 23.8719 10.1226 24.0729 9.8159 24.1332C9.71344 24.1534 9.60805 24.1585 9.51069 24.1697C9.40374 24.1578 9.30335 24.1535 9.20625 24.1347C8.90113 24.0756 8.74045 23.8698 8.73112 23.5356C8.72084 23.176 8.85344 22.9704 9.16427 22.8911C9.39422 22.8316 9.63542 22.8326 9.86488 22.894C10.167 22.9748 10.2968 23.1791 10.2863 23.5312H10.2867Z" fill="black"/>
<path d="M28.255 23.5778C28.0923 22.6692 27.5512 22.0699 26.592 22.0065C25.5672 21.9386 24.7463 22.4021 24.4696 23.4742C24.2584 24.2929 24.2903 25.1035 24.6607 25.8807C24.6902 25.936 24.706 26.0002 24.7602 26.0396C24.7948 26.1195 24.8624 26.1717 24.9191 26.2331C25.0642 26.3554 25.2056 26.4828 25.3787 26.565C26.3061 27.0047 27.2169 26.8712 28.1204 26.4833C28.1909 26.453 28.1906 26.4059 28.1689 26.341C28.1035 26.1451 28.0393 25.9487 27.9824 25.75C27.9506 25.6387 27.9139 25.6069 27.7904 25.6525C27.393 25.7996 26.9839 25.881 26.5558 25.8516C26.0128 25.8143 25.691 25.5344 25.5882 25.0003C25.5634 24.8719 25.586 24.8209 25.731 24.8222C26.5191 24.8285 27.3073 24.8202 28.0954 24.8292C28.2458 24.8309 28.2836 24.7738 28.2952 24.641C28.3264 24.2844 28.3181 23.9297 28.255 23.5778ZM26.7704 23.9947C26.4133 23.9947 26.0561 23.9915 25.6992 23.9964C25.5946 23.9978 25.5584 23.9623 25.5696 23.8576C25.5968 23.5979 25.6254 23.34 25.8241 23.1432C25.9232 23.1258 25.9645 23.0258 26.0465 22.9842C26.2684 22.9115 26.4903 22.9208 26.7123 22.9836C27.0041 23.0797 27.0773 23.3307 27.1151 23.5925C27.1725 23.9935 27.1652 23.9947 26.7704 23.9947Z" fill="black"/>
<path d="M15.896 26.1467C15.8928 25.2806 15.9103 24.4137 15.8792 23.5486C15.8562 22.9099 15.582 22.3835 14.9533 22.1565C14.0947 21.8467 13.2779 22.0216 12.502 22.4634C12.4293 22.5048 12.4312 22.5546 12.4594 22.622C12.5434 22.8224 12.6272 23.023 12.7045 23.2261C12.7376 23.3134 12.7723 23.339 12.8653 23.296C13.208 23.1359 13.5723 23.0627 13.948 23.0394C14.4309 23.0094 14.7152 23.2362 14.7653 23.6969C14.7896 23.9199 14.783 23.9279 14.5543 23.9262C13.9706 23.9215 13.3858 23.9087 12.8412 24.1767C12.4838 24.324 12.319 24.6251 12.2207 24.9766C12.1528 25.2194 12.1919 25.4692 12.1838 25.7161C12.205 25.7533 12.2092 25.7943 12.2178 25.8356C12.2896 26.185 12.4492 26.4764 12.767 26.659C13.1724 26.8467 13.5907 26.9011 14.0257 26.7846C14.0978 26.7584 14.1767 26.7554 14.2451 26.7174C14.4423 26.6294 14.6381 26.5376 14.8116 26.407C14.9037 26.3377 14.9378 26.3758 14.9622 26.4657C14.976 26.5168 14.9985 26.5658 15.0087 26.6175C15.0238 26.6935 15.0644 26.7228 15.1406 26.7223C15.3561 26.7193 15.5717 26.7188 15.7873 26.7223C15.8701 26.7238 15.899 26.6902 15.8972 26.6096C15.8939 26.4549 15.8965 26.3008 15.896 26.1467ZM14.7716 25.142C14.7716 25.1685 14.7716 25.195 14.7716 25.2215C14.7716 25.5898 14.7573 25.6114 14.4132 25.7536C14.2279 25.8303 14.0375 25.887 13.8356 25.8929C13.5529 25.9011 13.3873 25.8097 13.3114 25.6051C13.2209 25.3614 13.3 25.0497 13.4911 24.8958C13.6597 24.7602 13.8619 24.7257 14.0667 24.7136C14.2602 24.7023 14.4547 24.7126 14.6486 24.7063C14.7483 24.7031 14.7766 24.7482 14.7724 24.8399C14.768 24.9406 14.7715 25.0419 14.7716 25.1422V25.142Z" fill="black"/>
</svg>
