<svg width="40" height="40" viewBox="0 0 40 40" fill="none" xmlns="http://www.w3.org/2000/svg">
<circle cx="20" cy="20" r="20" fill="#F6F8FA"/>
<path d="M26.2516 22.359C25.4704 22.343 25.297 21.8524 25.3012 21.1852C25.3062 20.1628 25.3066 19.1125 25.3023 18.0341C25.3016 18.0107 25.2899 17.9993 25.2672 18L24.7149 18.0075C24.6844 18.0075 24.6687 18.0231 24.668 18.0543C24.6602 19.1135 24.6617 20.2317 24.6723 21.4087C24.6819 22.5665 25.3268 22.9007 26.3665 22.9273C27.1845 22.9471 27.9518 22.9471 28.6684 22.9273C29.3239 22.9092 29.9422 22.7996 30.1816 22.1132C30.2597 21.8897 30.2994 21.6694 30.3008 21.4523C30.3101 20.3633 30.3125 19.227 30.3083 18.0437C30.3083 18.0195 30.2959 18.0075 30.271 18.0075L29.7123 18.0011C29.6882 18.0004 29.6761 18.0121 29.6761 18.0362C29.6754 18.9635 29.674 19.9177 29.6719 20.8989C29.6698 21.6492 29.7155 22.2717 28.8461 22.3366C28.3239 22.3764 27.4591 22.3838 26.2516 22.359Z" stroke="#8E8FBF" stroke-width="0.212839"/>
<path d="M11.5805 19.5463C11.5805 18.8525 11.9795 18.5896 12.6266 18.58C13.3942 18.5687 14.164 18.5687 14.9359 18.58C15.7159 18.5917 15.9532 18.978 15.9522 19.7049C15.9508 20.8102 15.9511 21.8698 15.9532 22.8836C15.9532 22.9248 15.9742 22.9457 16.016 22.9464L16.5237 22.9496C16.5662 22.9503 16.5875 22.9294 16.5875 22.8868C16.5868 21.773 16.5879 20.7152 16.5907 19.7134C16.5939 18.6098 16.1831 18.0447 15.0199 18.0171C14.2374 17.9986 13.3892 17.9979 12.4755 18.0149C11.4655 18.0352 10.9462 18.5375 10.9483 19.5761C10.9505 20.6112 10.9501 21.7183 10.9473 22.8975C10.9473 22.9032 10.9484 22.9089 10.9506 22.9142C10.9528 22.9195 10.956 22.9243 10.96 22.9283C10.9641 22.9324 10.9689 22.9356 10.9742 22.9378C10.9795 22.94 10.9852 22.9411 10.9909 22.9411L11.5315 22.9432C11.5442 22.9432 11.5564 22.9381 11.5654 22.9289C11.5744 22.9197 11.5794 22.9073 11.5794 22.8943C11.5808 21.757 11.5812 20.641 11.5805 19.5463Z" stroke="#8E8FBF" stroke-width="0.212839"/>
<path d="M18.1296 22.888C18.1354 22.8881 18.1411 22.8866 18.1461 22.8838C18.1512 22.881 18.1554 22.877 18.1584 22.872L20.6656 18.6312C20.6685 18.6261 20.6727 18.6219 20.6777 18.6189C20.6828 18.616 20.6885 18.6144 20.6944 18.6144C20.7002 18.6144 20.7059 18.616 20.711 18.6189C20.716 18.6219 20.7202 18.6261 20.7231 18.6312L23.258 22.8656C23.261 22.8706 23.2652 22.8747 23.2702 22.8775C23.2753 22.8803 23.281 22.8817 23.2867 22.8816L23.8763 22.8805C23.8822 22.8806 23.888 22.8791 23.8931 22.8762C23.8982 22.8733 23.9025 22.8691 23.9054 22.864C23.9083 22.8589 23.9098 22.8531 23.9098 22.8472C23.9097 22.8413 23.9081 22.8356 23.905 22.8305L21.103 18.0236C21.1 18.0186 21.0958 18.0145 21.0908 18.0117C21.0857 18.0089 21.08 18.0075 21.0743 18.0076L20.291 18.0044C20.2853 18.0043 20.2796 18.0057 20.2745 18.0085C20.2695 18.0113 20.2653 18.0154 20.2623 18.0204L17.4667 22.8284C17.4637 22.8334 17.462 22.839 17.4619 22.8448C17.4618 22.8506 17.4632 22.8563 17.466 22.8614C17.4688 22.8665 17.4729 22.8707 17.4779 22.8737C17.4829 22.8767 17.4885 22.8783 17.4943 22.8784L18.1296 22.888Z" stroke="#8E8FBF" stroke-width="0.212839"/>
<path d="M36.9554 20.8053C32.6284 22.9773 27.9151 23.9649 23.0921 24.3353C21.1581 24.4842 19.166 24.4825 17.1156 24.3299C13.503 24.0603 10.181 23.4314 7.14942 22.4431C5.84755 22.0188 4.4946 21.4736 3.09057 20.8074C3.07922 20.8018 3.06964 20.8046 3.06184 20.816L3.04162 20.8457C3.03853 20.8504 3.03649 20.8556 3.03563 20.8611C3.03476 20.8666 3.03509 20.8723 3.0366 20.8777C3.03811 20.8832 3.04076 20.8882 3.04437 20.8926C3.04799 20.897 3.05249 20.9006 3.05758 20.9032C7.85569 23.2515 12.9528 24.5885 18.349 24.9142C19.3167 24.9724 19.9641 24.9979 20.2912 24.9908C25.8644 24.8727 31.361 23.6701 36.3744 21.214C36.5929 21.1068 36.81 20.9937 37.0257 20.8745C37.0356 20.8695 37.0377 20.8617 37.0321 20.8511L37.0182 20.8255C37.004 20.7979 36.9831 20.7911 36.9554 20.8053Z" stroke="#D885BB" stroke-width="0.212839"/>
<path d="M25.3012 21.1852C25.297 21.8524 25.4704 22.343 26.2516 22.359C27.4591 22.3838 28.3239 22.3764 28.8461 22.3366C29.7155 22.2717 29.6698 21.6492 29.6719 20.8989C29.674 19.9177 29.6754 18.9635 29.6761 18.0362C29.6761 18.0121 29.6882 18.0004 29.7123 18.0011L30.271 18.0075C30.2959 18.0075 30.3083 18.0195 30.3083 18.0437C30.3125 19.227 30.3101 20.3633 30.3008 21.4523C30.2994 21.6694 30.2597 21.8897 30.1816 22.1132C29.9422 22.7996 29.3239 22.9092 28.6684 22.9273C27.9518 22.9471 27.1845 22.9471 26.3665 22.9273C25.3268 22.9007 24.6819 22.5665 24.6723 21.4087C24.6617 20.2317 24.6602 19.1135 24.668 18.0543C24.6687 18.0231 24.6844 18.0075 24.7149 18.0075L25.2672 18C25.2899 17.9993 25.3016 18.0107 25.3023 18.0341C25.3066 19.1125 25.3062 20.1628 25.3012 21.1852Z" fill="#1C1F7E"/>
<path d="M12.6266 18.58C11.9795 18.5896 11.5805 18.8525 11.5805 19.5463C11.5812 20.641 11.5808 21.757 11.5794 22.8943C11.5794 22.9073 11.5744 22.9197 11.5654 22.9289C11.5564 22.9381 11.5442 22.9432 11.5315 22.9432L10.9909 22.9411C10.9852 22.9411 10.9795 22.94 10.9742 22.9378C10.9689 22.9356 10.9641 22.9324 10.96 22.9283C10.956 22.9243 10.9528 22.9195 10.9506 22.9142C10.9484 22.9089 10.9473 22.9032 10.9473 22.8975C10.9501 21.7183 10.9505 20.6112 10.9483 19.5761C10.9462 18.5375 11.4655 18.0352 12.4755 18.0149C13.3892 17.9979 14.2374 17.9986 15.0199 18.0171C16.1831 18.0447 16.5939 18.6098 16.5907 19.7134C16.5879 20.7152 16.5868 21.773 16.5875 22.8868C16.5875 22.9294 16.5662 22.9503 16.5237 22.9496L16.016 22.9464C15.9742 22.9457 15.9532 22.9248 15.9532 22.8836C15.9511 21.8698 15.9508 20.8102 15.9522 19.7049C15.9532 18.978 15.7159 18.5917 14.9359 18.58C14.164 18.5687 13.3942 18.5687 12.6266 18.58Z" fill="#1C1F7E"/>
<path d="M18.1296 22.888L17.4943 22.8784C17.4885 22.8783 17.4829 22.8767 17.4779 22.8737C17.4729 22.8707 17.4688 22.8665 17.466 22.8614C17.4632 22.8563 17.4618 22.8506 17.4619 22.8448C17.462 22.839 17.4637 22.8334 17.4667 22.8284L20.2623 18.0204C20.2653 18.0154 20.2695 18.0113 20.2745 18.0085C20.2796 18.0057 20.2853 18.0043 20.291 18.0044L21.0743 18.0076C21.08 18.0075 21.0857 18.0089 21.0908 18.0117C21.0958 18.0145 21.1 18.0186 21.103 18.0236L23.905 22.8305C23.9081 22.8356 23.9097 22.8413 23.9098 22.8472C23.9098 22.8531 23.9083 22.8589 23.9054 22.864C23.9025 22.8691 23.8982 22.8733 23.8931 22.8762C23.888 22.8791 23.8822 22.8806 23.8763 22.8805L23.2867 22.8816C23.281 22.8817 23.2753 22.8803 23.2702 22.8775C23.2652 22.8747 23.261 22.8706 23.258 22.8656L20.7231 18.6312C20.7202 18.6261 20.716 18.6219 20.711 18.6189C20.7059 18.616 20.7002 18.6144 20.6944 18.6144C20.6885 18.6144 20.6828 18.616 20.6777 18.6189C20.6727 18.6219 20.6685 18.6261 20.6656 18.6312L18.1584 22.872C18.1554 22.877 18.1512 22.881 18.1461 22.8838C18.1411 22.8866 18.1354 22.8881 18.1296 22.888Z" fill="#1C1F7E"/>
<path d="M36.9554 20.8053C36.9831 20.7911 37.004 20.7979 37.0182 20.8255L37.0321 20.8511C37.0377 20.8617 37.0356 20.8695 37.0257 20.8745C36.81 20.9937 36.5929 21.1068 36.3744 21.214C31.361 23.6701 25.8644 24.8727 20.2912 24.9908C19.9641 24.9979 19.3167 24.9724 18.349 24.9142C12.9528 24.5885 7.85569 23.2515 3.05758 20.9032C3.05249 20.9006 3.04799 20.897 3.04437 20.8926C3.04076 20.8882 3.03811 20.8832 3.0366 20.8777C3.03509 20.8723 3.03476 20.8666 3.03563 20.8611C3.03649 20.8556 3.03853 20.8504 3.04162 20.8457L3.06184 20.816C3.06964 20.8046 3.07922 20.8018 3.09057 20.8074C4.4946 21.4736 5.84755 22.0188 7.14942 22.4431C10.181 23.4314 13.503 24.0603 17.1156 24.3299C19.166 24.4825 21.1581 24.4842 23.0921 24.3353C27.9151 23.9649 32.6284 22.9773 36.9554 20.8053Z" fill="#B10A77"/>
<circle cx="20" cy="20" r="19.5" stroke="black" stroke-opacity="0.05"/>
</svg>
