<svg width="40" height="40" viewBox="0 0 40 40" fill="none" xmlns="http://www.w3.org/2000/svg">
<circle cx="20" cy="20" r="20" fill="#F6F8FA"/>
<g clip-path="url(#clip0_22307_36501)">
<path d="M34.4058 17.6858C34.8403 17.6858 35.2684 17.7829 35.6525 17.9772C36.0303 18.1601 36.3451 18.4344 36.5592 18.7715C36.7732 19.0972 36.8866 19.4686 36.8866 19.8515C36.8866 20.6344 36.4143 21.3544 35.6588 21.7372C35.2747 21.9315 34.8466 22.0286 34.4058 22.0229C33.7636 22.0344 33.1403 21.8058 32.6869 21.3944C31.7551 20.5658 31.7362 19.2115 32.6492 18.3658C32.6932 18.3258 32.7373 18.2858 32.7814 18.2515C33.2221 17.8858 33.8014 17.6858 34.3995 17.6915L34.4058 17.6858ZM34.4247 18.6572C34.0847 18.6515 33.751 18.7715 33.5117 18.9944C33.2662 19.2229 33.134 19.5315 33.1466 19.8515C33.1466 20.2115 33.2662 20.5029 33.5055 20.7258C33.7447 20.9486 34.0721 21.0686 34.4184 21.0572C34.7647 21.0629 35.0921 20.9429 35.3377 20.7201C35.5832 20.4972 35.7029 20.2058 35.7029 19.8515C35.7029 19.4972 35.5832 19.2115 35.344 18.9886C35.0984 18.7658 34.771 18.6458 34.4247 18.6572Z" fill="#65BC48"/>
<path d="M7.87976 20.5485L8.78642 22.0228H10.159L6.68976 16.0171L3.31494 22.0171H4.69383L5.57531 20.5428H7.87976V20.5485ZM6.72124 18.5428L7.36346 19.5314H6.1042L6.72124 18.5428Z" fill="#221E1F"/>
<path d="M12.224 22.2571C11.9847 22.1771 11.7518 22.0685 11.5503 21.9257V23.6285H10.4736V17.9542H11.5692V18.2857C11.7644 18.1428 11.9847 18.0342 12.2177 17.9599C12.4444 17.8914 12.6836 17.8571 12.9229 17.8571C13.584 17.8457 14.2262 18.0857 14.6859 18.5142C15.1644 18.9485 15.3973 19.4857 15.3973 20.1257C15.3973 20.4171 15.3344 20.7028 15.2084 20.9714C15.0888 21.2399 14.9188 21.4857 14.7047 21.6914C14.2577 22.1257 13.6281 22.3714 12.967 22.3599C12.7151 22.3599 12.4633 22.3199 12.2177 22.2457L12.224 22.2571ZM11.9344 21.0285C12.1799 21.2742 12.5325 21.4057 12.8977 21.4057C13.2629 21.4114 13.6155 21.2799 13.8736 21.0399C14.1444 20.8057 14.2955 20.4742 14.2892 20.1314C14.3018 19.7714 14.1507 19.4285 13.8736 19.1714C13.6155 18.9314 13.2566 18.7999 12.8914 18.8114C12.5262 18.8114 12.1799 18.9428 11.9344 19.1828C11.6699 19.4228 11.5251 19.7485 11.5377 20.0857C11.5314 20.4342 11.6699 20.7771 11.9407 21.0285H11.9344Z" fill="#221E1F"/>
<path d="M18.3376 18.08H17.3869V16.8H16.3228V18.08H15.3721V19.1429H16.3228V22.0172H17.3869V19.1429H18.3376V18.08Z" fill="#221E1F"/>
<path d="M19.2132 21.3943C18.7661 20.9829 18.5206 20.4286 18.5332 19.8514C18.5332 19.5714 18.5898 19.2914 18.6969 19.0343C18.8102 18.7772 18.9739 18.5429 19.188 18.3429C19.3958 18.1372 19.6539 17.9772 19.9373 17.8686C20.2332 17.76 20.548 17.7086 20.8628 17.7143C21.1021 17.7143 21.3413 17.7486 21.568 17.8114C21.8073 17.88 22.0276 17.9886 22.2291 18.1257V17.8114H23.2617V21.9372H22.2102V21.6057C22.015 21.7372 21.801 21.8457 21.5743 21.92C21.3602 21.9886 21.1398 22.0286 20.9132 22.0286C20.2773 22.04 19.6602 21.8114 19.2195 21.4L19.2132 21.3943ZM21.8576 18.9886C21.6184 18.7657 21.2847 18.64 20.9384 18.64C20.2206 18.6229 19.6224 19.1372 19.5973 19.7886C19.5973 19.8114 19.5973 19.8343 19.5973 19.8514C19.5847 20.1886 19.7295 20.5143 19.9876 20.7543C20.2332 20.9886 20.5795 21.12 20.9384 21.1143C21.2847 21.1143 21.6121 20.9829 21.845 20.7543C22.1032 20.5257 22.248 20.2172 22.2417 19.8914C22.2543 19.5543 22.1158 19.2229 21.8513 18.9829L21.8576 18.9886Z" fill="#221E1F"/>
<path d="M28.0654 16.5885C28.5124 16.8799 28.7328 17.2913 28.7328 17.8285C28.7328 18.0171 28.6824 18.1999 28.5817 18.3656C28.4684 18.5428 28.3173 18.7028 28.1347 18.8285C28.4306 18.9485 28.6761 19.1428 28.8524 19.3885C29.0287 19.6228 29.1169 19.8971 29.1169 20.1828C29.1169 20.4571 29.0413 20.7313 28.8965 20.9771C28.7643 21.2171 28.5691 21.4228 28.3298 21.5828C28.0465 21.7599 27.7191 21.8856 27.3791 21.9428C27.0139 21.9999 26.6487 22.0285 26.2773 22.0171H24.3506V16.1599H26.1702C26.9824 16.1599 27.6184 16.3028 28.0717 16.5885H28.0654ZM26.4598 21.0056C26.9195 21.0056 27.2469 20.9485 27.4421 20.8342C27.6373 20.7199 27.7317 20.5313 27.7317 20.2742C27.7317 19.9885 27.6247 19.7771 27.4169 19.6342C27.2091 19.4913 26.888 19.4285 26.4598 19.4285H25.7358V21.0056H26.4598ZM25.9121 18.4971C26.4347 18.4971 26.7998 18.4513 27.0013 18.3599C27.2091 18.2628 27.3161 18.0856 27.3161 17.8228C27.3161 17.5828 27.2343 17.4171 27.0643 17.3256C26.8943 17.2342 26.611 17.1885 26.208 17.1885H25.7421V18.5028H25.9121V18.4971Z" fill="#65BC48"/>
<path d="M30.408 16C30.6032 16 30.7921 16.0686 30.9243 16.2C31.0691 16.3257 31.1447 16.5029 31.1384 16.6857C31.1384 16.8629 31.0628 17.04 30.9243 17.1657C30.7921 17.2914 30.6032 17.3657 30.408 17.3657C30.2128 17.3657 30.0176 17.2971 29.8854 17.1657C29.7406 17.0343 29.665 16.8571 29.665 16.6743C29.665 16.3029 29.9924 16.0057 30.4017 16.0057L30.408 16ZM29.835 17.8457H30.9873V22.0229H29.835V17.8457Z" fill="#65BC48"/>
</g>
<circle cx="20" cy="20" r="19.5" stroke="black" stroke-opacity="0.05"/>
<defs>
<clipPath id="clip0_22307_36501">
<rect width="34" height="8" fill="white" transform="translate(3 16)"/>
</clipPath>
</defs>
</svg>
