<svg width="40" height="40" viewBox="0 0 40 40" fill="none" xmlns="http://www.w3.org/2000/svg">
<circle cx="20" cy="20" r="20" fill="#F6F8FA"/>
<path d="M7.99509 18.9624C8.13121 17.9065 8.62391 17.0508 9.47284 16.3954C10.1103 15.9192 10.825 15.6338 11.6169 15.5393C12.0612 15.4887 12.5033 15.5078 12.9435 15.5967C13.2353 15.6428 13.5221 15.7122 13.8045 15.8048C14.2263 15.9372 14.6478 16.0684 15.0692 16.1985C15.2485 16.2537 15.5428 16.3601 15.9523 16.5176L17.9538 17.3489L22.8835 19.5365L25.1783 20.493C26.0651 20.85 26.9699 21.1882 27.892 21.5081C28.7184 21.7938 29.5602 22.0611 30.4174 22.3105C30.4223 22.312 30.4264 22.3105 30.4294 22.3064L30.6424 22.0072C30.645 22.0038 30.6442 22.0015 30.6401 22.0004C29.7361 21.7409 28.8324 21.4548 27.9298 21.1417C27.0093 20.8204 26.088 20.4735 25.1652 20.1019L22.9004 19.1559L18.063 17.0073C17.3629 16.6972 16.6557 16.4051 15.9418 16.1303C15.2766 15.8716 14.5874 15.6676 13.9072 15.4527C13.6084 15.3642 13.2998 15.2934 12.9822 15.2397C12.5191 15.1498 12.0496 15.1314 11.5742 15.185C10.7991 15.2761 10.0923 15.5375 9.45334 15.9683C8.56729 16.5735 7.99284 17.3887 7.73037 18.4138C7.67787 18.619 7.65687 18.8278 7.62988 19.0355C7.61188 19.1724 7.61788 19.3115 7.61225 19.4521C7.60813 19.553 7.61075 19.6572 7.61975 19.7649C7.64487 20.0633 7.66625 20.2624 7.68462 20.3622C7.8856 21.4672 8.46868 22.492 9.3551 23.2007C9.86281 23.6086 10.4365 23.8831 11.0766 24.0237C11.5764 24.1235 12.0751 24.1355 12.5719 24.0593C13.2795 23.9356 13.9353 23.6904 14.5401 23.3233C15.0614 23.0151 15.5402 22.6581 15.9763 22.2528L17.7806 20.5077L19.3941 18.9343C19.3941 18.9343 19.3948 18.9335 19.3952 18.9328C19.3963 18.9302 19.3952 18.9275 19.3926 18.9264L19.0491 18.7772C19.0446 18.7753 19.0405 18.7761 19.0368 18.7794L17.721 20.0614L15.9335 21.8095C15.8867 21.8493 15.8015 21.9273 15.6774 22.0432C15.3598 22.3394 14.9717 22.6322 14.5135 22.9213C13.9777 23.2622 13.4036 23.504 12.7905 23.6476C12.6987 23.669 12.6154 23.687 12.5416 23.7009C12.0515 23.7781 11.5715 23.7661 11.1021 23.6645C10.4448 23.5059 9.86506 23.1966 9.36297 22.7357C8.68016 22.0881 8.24295 21.3052 8.05209 20.3862C8.00709 20.1691 7.99584 19.9272 7.97335 19.7015C7.95947 19.559 7.97372 19.4169 7.97372 19.274C7.97372 19.1747 7.98122 19.0708 7.99509 18.9624Z" fill="url(#paint0_linear_16604_11842)"/>
<path d="M31.1663 20.3058C31.17 20.3058 31.1738 20.3032 31.1738 20.2991V19.9451C31.1738 19.9399 31.1704 19.935 31.1652 19.9335C30.3699 19.7036 29.5783 19.4535 28.7909 19.1839C27.7008 18.8056 26.6198 18.3969 25.5478 17.9578L22.5765 16.6855L18.0544 14.6791L16.0311 13.8909C15.4495 13.6715 14.8575 13.484 14.2549 13.3288C13.8181 13.2129 13.361 13.1256 12.884 13.0667C12.6868 13.0457 12.5278 13.033 12.4071 13.0288C12.1513 13.0198 11.8592 13.0273 11.5308 13.051C11.5094 13.0525 11.4625 13.0581 11.3902 13.0682C10.6518 13.1548 9.91316 13.3461 9.25509 13.6712C9.17822 13.703 9.1036 13.7371 9.03123 13.7739C7.87708 14.3607 6.89654 15.2764 6.27972 16.4159C5.82714 17.2525 5.57704 18.158 5.52979 19.1326C5.51704 19.3999 5.51892 19.6504 5.53579 19.8836C5.54554 20.0152 5.55716 20.1577 5.57029 20.3107C5.58416 20.4738 5.60253 20.6144 5.62503 20.7333C5.92013 22.2823 6.63369 23.5763 7.76497 24.6153C8.33679 25.1403 9.00124 25.5494 9.75904 25.8422C10.5041 26.1246 11.2739 26.2577 12.0677 26.2416C12.3493 26.2367 12.6283 26.2138 12.905 26.1729C13.4727 26.0856 14.0172 25.9352 14.538 25.7218C15.0431 25.5164 15.5212 25.2681 15.9715 24.9772C16.4781 24.6513 16.9547 24.2854 17.402 23.8789C17.5404 23.7533 17.6746 23.631 17.8047 23.5122C18.1508 23.1769 18.4913 22.8432 18.8254 22.5106C19.6117 21.7284 20.5116 20.857 21.5251 19.8964C21.5296 19.8919 21.5289 19.8885 21.5233 19.8859L21.1835 19.7362C21.1787 19.734 21.1738 19.7347 21.1697 19.7385C20.0121 20.8233 18.894 21.9478 17.7601 23.0566C17.4762 23.3262 17.2726 23.5163 17.1485 23.6273C16.7676 23.9678 16.3682 24.2794 15.9501 24.5625C15.4987 24.8658 15.0266 25.1238 14.5335 25.336C14.004 25.5629 13.4588 25.7219 12.8979 25.813C12.5942 25.8583 12.2931 25.8831 11.9946 25.8868C11.2349 25.891 10.5034 25.7533 9.79992 25.4747C7.89171 24.6926 6.52495 23.0082 6.04837 21.0138C5.96775 20.6759 5.93175 20.3246 5.89876 19.9725C5.86876 19.6511 5.87851 19.3189 5.89351 18.9972C5.89763 18.9038 5.91676 18.7415 5.9505 18.5109C5.97413 18.347 6.00412 18.1914 6.04049 18.0448C6.09561 17.8209 6.13724 17.6672 6.16536 17.5843C6.31572 17.1389 6.49758 16.7384 6.71019 16.3833C6.94529 15.9907 7.23626 15.6169 7.58311 15.2621C8.05294 14.7818 8.61464 14.3802 9.26821 14.0574C9.95815 13.7184 10.6762 13.5073 11.4224 13.4244C11.914 13.3689 12.3954 13.3689 12.8668 13.4244C13.3355 13.4833 13.7986 13.5744 14.2564 13.6982C14.8503 13.8568 15.4372 14.0465 16.0169 14.2674L17.939 15.0195L22.5417 17.059C23.5567 17.5138 24.5807 17.951 25.6138 18.3706C26.6592 18.7973 27.7185 19.1948 28.7916 19.5626C29.5734 19.83 30.3646 20.0778 31.1648 20.3054C31.1652 20.3054 31.1655 20.3054 31.1663 20.3054V20.3058ZM12.8739 13.4064C12.8739 13.4064 12.8731 13.4038 12.8728 13.4031C12.8735 13.4042 12.8739 13.4053 12.8739 13.4064ZM12.8683 13.3989C12.8683 13.3989 12.869 13.4001 12.8698 13.4004C12.8694 13.4004 12.8686 13.4001 12.8683 13.3997V13.3989Z" fill="url(#paint1_linear_16604_11842)"/>
<path d="M31.1002 20.8414C31.1032 20.8418 31.1062 20.8395 31.1066 20.8365L31.1598 20.4938C31.1606 20.4893 31.1587 20.4863 31.1542 20.4848C30.0709 20.1754 28.9948 19.8286 27.9261 19.445L25.7955 18.6332L23.2128 17.548C21.8985 16.9642 20.5839 16.3785 19.2692 15.7913C18.6532 15.5161 18.0326 15.2499 17.4075 14.9923L16.0247 14.4602C15.4513 14.2446 14.8701 14.0552 14.2811 13.8921C13.6819 13.726 13.0755 13.6161 12.4561 13.5689C11.8055 13.5385 11.1636 13.6053 10.531 13.7691C10.0743 13.8895 9.63859 14.0575 9.2235 14.2731C8.16122 14.822 7.27854 15.6586 6.71684 16.7077C6.5661 16.9897 6.44049 17.2814 6.34037 17.5829C6.29463 17.7213 6.24363 17.9039 6.18776 18.1315C6.13564 18.3433 6.11164 18.553 6.08352 18.7644C6.0629 18.9193 6.0509 19.0723 6.04753 19.223C6.04265 19.4465 6.03553 19.6599 6.0539 19.8852C6.06665 20.0401 6.0824 20.1949 6.10115 20.3494C6.35087 22.429 7.67751 24.3068 9.57897 25.1959C10.084 25.4306 10.6184 25.5866 11.1812 25.6635C11.5153 25.7066 11.8528 25.7216 12.1936 25.7085C12.8209 25.6781 13.4299 25.5566 14.0208 25.3447C14.0842 25.3256 14.1461 25.3039 14.2064 25.2799C14.8645 25.0204 15.4802 24.6852 16.0535 24.2738C16.6947 23.8205 17.2688 23.2884 17.8286 22.7406C18.8763 21.7094 19.9164 20.67 20.9881 19.664C20.9926 19.6599 20.9922 19.6565 20.9866 19.6539L20.6499 19.4964C20.6427 19.4934 20.6367 19.4945 20.6311 19.4997L17.8252 22.2419C17.1818 22.8707 16.6775 23.3638 16.0115 23.8602C15.3726 24.3413 14.6808 24.7208 13.9361 24.9983C13.3639 25.2026 12.7816 25.3204 12.1891 25.3519C11.8408 25.3646 11.5025 25.3481 11.1748 25.3024C10.6405 25.2229 10.1268 25.0643 9.63371 24.8262C8.98052 24.5037 8.41282 24.0721 7.93061 23.5314C7.21255 22.7263 6.74084 21.7867 6.51586 20.7116C6.48736 20.5748 6.46561 20.4285 6.45099 20.2729C6.42774 20.0285 6.39287 19.7772 6.39924 19.532C6.40187 19.4323 6.40374 19.3348 6.40487 19.2391C6.40674 19.0933 6.41762 18.9515 6.43674 18.8143C6.46599 18.6073 6.48699 18.4097 6.53948 18.1982C6.5976 17.965 6.64222 17.8034 6.67335 17.7134C6.82483 17.2762 7.00407 16.8945 7.21105 16.5683C7.71538 15.7733 8.3892 15.1419 9.23325 14.6743C9.64159 14.4482 10.0705 14.2708 10.5201 14.1422C11.1306 13.9724 11.7572 13.8992 12.3995 13.9225C12.8348 13.9521 13.2653 14.0166 13.6909 14.1156C13.8772 14.1587 14.0654 14.2048 14.2556 14.2532C14.8461 14.4261 15.4318 14.6199 16.0123 14.8348L17.4049 15.3785C19.3555 16.1922 21.2682 17.0932 23.2068 17.9346L25.7517 19.001L27.8897 19.8121C28.9419 20.1904 30.0117 20.5335 31.0995 20.8414C31.0995 20.8414 31.0998 20.8414 31.1002 20.8414Z" fill="url(#paint2_linear_16604_11842)"/>
<path d="M25.3382 21.1304C26.1414 21.4473 26.9607 21.7503 27.7957 22.039L29.9799 22.7394C29.9867 22.7417 29.9927 22.7406 29.9979 22.7357L30.2968 22.462C30.2998 22.4593 30.2994 22.4575 30.2953 22.4563C29.467 22.2145 28.6432 21.952 27.8239 21.6689C27.0158 21.388 26.2104 21.0892 25.4076 20.7731L22.5316 19.5773L17.828 17.4824L16.0446 16.7418C15.4781 16.5161 14.8879 16.314 14.2737 16.1351C13.8263 15.9893 13.5324 15.8959 13.3917 15.855C13.3017 15.8292 13.1548 15.7988 12.9504 15.7643C12.3223 15.6342 11.6928 15.6492 11.0613 15.8089C10.4932 15.957 9.97542 16.2131 9.50783 16.5765C9.44109 16.6282 9.39572 16.6702 9.37172 16.7028C9.2926 16.7636 9.22736 16.8202 9.17599 16.8723C8.67015 17.3894 8.34956 18.0047 8.21382 18.719C8.15607 19.0224 8.1362 19.3456 8.15457 19.6879C8.16545 19.8976 8.1827 20.0708 8.20632 20.2077C8.34431 21.0112 8.68515 21.7184 9.22848 22.3288C9.74331 22.9063 10.383 23.2891 11.1479 23.4774C11.8015 23.6079 12.4464 23.5741 13.0835 23.3761C13.6051 23.2096 14.0881 22.9798 14.5316 22.6866C15.0765 22.3225 15.5763 21.9111 16.0319 21.4529L17.7597 19.7596L18.858 18.6928C18.858 18.6928 18.8588 18.692 18.8588 18.6917C18.8599 18.6894 18.8588 18.6868 18.8565 18.6857L18.5108 18.5402C18.5052 18.5375 18.4999 18.5387 18.4954 18.5428L17.7342 19.2826L16.0053 20.9846C15.775 21.2028 15.5516 21.4135 15.3348 21.6164C15.1335 21.8058 14.8635 22.0191 14.5249 22.2568C14.0374 22.6011 13.5271 22.8587 12.9935 23.0297C12.3692 23.2258 11.7505 23.2513 11.1367 23.1054C10.3759 22.8992 9.75118 22.4496 9.27873 21.8264C8.88689 21.3003 8.64803 20.7484 8.56254 20.1705C8.50779 19.8012 8.49167 19.4637 8.51454 19.1577C8.57191 18.3864 8.86626 17.7212 9.39797 17.1622C9.87717 16.6818 10.437 16.353 11.0774 16.1753C11.5443 16.0459 12.0062 16.0046 12.4637 16.0511C12.5331 16.0583 12.6928 16.0808 12.9437 16.119L14.262 16.497C14.8507 16.6766 15.4391 16.8843 16.0274 17.1209L17.8254 17.8727L22.5758 19.9879L25.3382 21.1304Z" fill="url(#paint3_linear_16604_11842)"/>
<path d="M22.0729 20.1371C22.0729 20.1371 22.0741 20.1356 22.0744 20.1349C22.0759 20.1315 22.0744 20.1278 22.0711 20.1266L21.731 19.977C21.7246 19.9744 21.719 19.9751 21.7141 19.9796C20.3878 21.2065 19.1309 22.5039 17.8234 23.7507C17.7113 23.8516 17.5985 23.9535 17.4841 24.0563C17.0248 24.4691 16.5335 24.8418 16.0112 25.1737C15.4844 25.5052 14.9351 25.777 14.3625 25.9892C13.8705 26.167 13.3718 26.2903 12.866 26.3593C12.7569 26.374 12.6481 26.3882 12.5401 26.4017C12.0883 26.4377 11.6417 26.4306 11.2011 26.3807C10.4025 26.2813 9.65103 26.0414 8.94684 25.6604C7.12225 24.6585 5.80536 22.808 5.46752 20.7487C5.4244 20.4873 5.39065 20.1788 5.36553 19.8237C5.35653 19.6932 5.35653 19.5181 5.3659 19.2983C5.37153 19.1663 5.36178 19.0426 5.3779 18.9117C5.40527 18.6845 5.43415 18.4667 5.46414 18.2585C5.48027 18.1457 5.52864 17.9406 5.60926 17.644C5.65238 17.4846 5.70825 17.3159 5.77687 17.1381C5.86648 16.9057 5.93548 16.7411 5.9831 16.6443C6.10646 16.395 6.21483 16.1955 6.30819 16.0466C7.15599 14.6949 8.44776 13.7124 9.95662 13.2119C10.47 13.0431 10.9934 12.9344 11.527 12.8853C11.9844 12.8436 12.4457 12.8478 12.9106 12.8969L13.7505 13.0323C14.5121 13.1999 15.2617 13.42 15.9985 13.6918C16.6408 13.9194 17.279 14.1658 17.9127 14.4301C19.6926 15.1771 21.4452 15.9892 23.211 16.7688L25.6771 17.8183C26.3989 18.1116 27.1252 18.3932 27.8553 18.6631C27.9524 18.6988 28.0492 18.7333 28.1452 18.7666C29.1313 19.1236 30.1351 19.4502 31.1565 19.746C31.1565 19.746 31.1565 19.746 31.1569 19.746C31.158 19.746 31.1588 19.7453 31.1588 19.7442C31.1434 19.6156 31.1209 19.4877 31.0909 19.3609C31.0902 19.3568 31.0879 19.3546 31.0838 19.3534C30.1152 19.0651 29.1572 18.7505 28.21 18.4104L25.6726 17.4295L23.2173 16.383C21.6837 15.6911 20.1479 15.008 18.6101 14.3334C18.5164 14.2921 18.3383 14.2183 18.0758 14.1122C17.3945 13.8208 16.7012 13.5561 15.9958 13.3187C15.2793 13.0532 14.535 12.8234 13.7835 12.6783L12.8945 12.5365C12.4179 12.4893 11.9402 12.4878 11.4617 12.5324C10.9353 12.5838 10.4212 12.6888 9.91988 12.8478C8.57712 13.2797 7.45372 14.0289 6.5493 15.0957C6.41019 15.2599 6.28982 15.4384 6.16458 15.615C6.06822 15.7511 5.98197 15.888 5.90623 16.0249C5.77462 16.2626 5.69062 16.4223 5.6535 16.5041C5.56688 16.6946 5.48252 16.8982 5.40077 17.1153C5.31491 17.3432 5.26054 17.5671 5.19904 17.8007C5.15067 17.9863 5.11542 18.1599 5.0933 18.3219C5.06743 18.5131 5.0438 18.6958 5.02281 18.8701C5.00481 19.0171 5.01418 19.1633 5.00631 19.3115C4.99506 19.5282 4.99881 19.7412 5.01793 19.9508C5.04568 20.2541 5.06893 20.5766 5.12555 20.8818C5.52751 23.054 6.90214 25.0046 8.88084 26.0309C9.61053 26.41 10.3867 26.6466 11.209 26.7407C11.674 26.7913 12.1344 26.7958 12.59 26.7542C13.2125 26.6961 13.8102 26.5644 14.3835 26.3593C14.439 26.3398 14.4926 26.3203 14.5443 26.3012C15.0742 26.1029 15.5804 25.8569 16.0637 25.5633C16.7158 25.1643 17.3225 24.7039 17.8831 24.1823C18.0094 24.0657 18.1343 23.9472 18.258 23.8272C19.1493 22.9618 20.0072 22.123 20.8318 21.3112C21.0587 21.0877 21.4726 20.6962 22.0729 20.1371ZM16.0288 25.5127C16.0288 25.5127 16.0281 25.5097 16.0281 25.5082C16.0281 25.5097 16.0285 25.5112 16.0288 25.5127ZM16.0311 25.5164C16.0311 25.5164 16.0326 25.519 16.0337 25.5202C16.0326 25.519 16.0318 25.5179 16.0311 25.5164ZM16.0487 25.5277C16.0487 25.5277 16.0465 25.5269 16.0453 25.5265C16.0472 25.5269 16.0487 25.5277 16.051 25.5277C16.0502 25.5277 16.0498 25.5277 16.0491 25.5277H16.0487ZM16.0371 25.5228C16.0371 25.5228 16.0393 25.5247 16.0408 25.5254C16.0393 25.5247 16.0382 25.5239 16.0371 25.5228Z" fill="url(#paint4_linear_16604_11842)"/>
<path d="M30.9682 21.3393L31.0627 21.0273C31.065 21.0195 31.0605 21.0112 31.0526 21.0086C30.2978 20.7952 29.5471 20.5631 28.8009 20.313C27.6483 19.9227 26.514 19.5005 25.3977 19.0464L22.5487 17.8386L17.979 15.8055L16.0318 15.0241L15.0779 14.7016C14.4044 14.4635 13.7175 14.2862 13.0174 14.1692C12.5169 14.0893 12.0155 14.0762 11.5134 14.1306C10.717 14.2164 9.97083 14.4553 9.27489 14.8471C8.45484 15.3068 7.80502 15.9244 7.32469 16.6995C7.00522 17.2147 6.78361 17.7872 6.6595 18.4168C6.63813 18.5252 6.616 18.6774 6.5935 18.8728C6.57438 19.0385 6.56501 19.1915 6.56613 19.3313C6.56726 19.5346 6.55826 19.7423 6.58301 19.9452C6.60775 20.1492 6.61638 20.3636 6.65312 20.5601C6.96772 22.2505 7.97976 23.7335 9.49163 24.5651C10.1392 24.9165 10.8325 25.1186 11.5716 25.1715C11.7369 25.1805 11.8408 25.185 11.8824 25.1853C12.3834 25.188 12.8858 25.1208 13.3902 24.9836C13.7794 24.8782 14.1547 24.7376 14.5166 24.5618C15.0306 24.3143 15.5098 24.0203 15.9546 23.6795C16.2058 23.4905 16.4098 23.3259 16.5665 23.1853C16.934 22.8557 17.3427 22.4676 17.793 22.0206L20.453 19.4221C20.4572 19.418 20.4564 19.415 20.4515 19.4127L20.1156 19.2579C20.1099 19.2552 20.1051 19.256 20.1006 19.2601L17.7889 21.5193C17.3093 21.9895 16.9943 22.297 16.844 22.4413C16.5616 22.7128 16.2572 22.9813 15.9298 23.2471C15.4791 23.6052 15.0074 23.9101 14.5151 24.1624C14.1213 24.3645 13.7168 24.5228 13.3013 24.6379C12.734 24.7939 12.1595 24.8527 11.5779 24.8145C10.9799 24.7695 10.4092 24.6146 9.86584 24.3499C9.76535 24.3008 9.66636 24.2505 9.56924 24.1992C8.13462 23.36 7.14396 21.8436 6.9651 20.1893C6.94147 19.9725 6.92798 19.8162 6.9246 19.7198C6.90848 19.2912 6.93622 18.8851 7.00784 18.5015C7.15071 17.7377 7.46755 17.0448 7.95763 16.4227C8.33223 15.9476 8.79306 15.5479 9.34014 15.2232C9.94271 14.8651 10.5907 14.6323 11.2832 14.5246C11.3503 14.5141 11.4253 14.5021 11.5086 14.4883C11.8112 14.4594 12.0579 14.4474 12.248 14.4519C12.4505 14.4568 12.7126 14.4834 13.0339 14.5325C13.5323 14.6214 14.0231 14.7418 14.5057 14.8944C14.6703 14.9465 14.8372 15.0001 15.0063 15.0552L16.0146 15.4002L17.8271 16.131L22.5615 18.2331C23.5225 18.6594 24.4869 19.0674 25.4555 19.4566C26.5541 19.9005 27.6592 20.3081 28.7702 20.6794C29.492 20.9235 30.2176 21.1469 30.9476 21.3505C30.9581 21.3532 30.9649 21.3494 30.9682 21.3393Z" fill="url(#paint5_linear_16604_11842)"/>
<path d="M30.7397 21.8355L30.8941 21.5276C30.8968 21.522 30.8953 21.5186 30.8896 21.5168C29.9057 21.2374 28.9229 20.9254 27.9413 20.5809C27.0804 20.2771 26.2258 19.9547 25.3776 19.6134L22.5807 18.4338L18.0043 16.4L15.9937 15.5788L14.2726 15.0111C13.826 14.875 13.3719 14.7704 12.9111 14.6969C12.4255 14.6192 11.9456 14.6114 11.4705 14.6732C10.6594 14.7741 9.9121 15.0467 9.22891 15.4918C8.11414 16.2279 7.4272 17.2346 7.16809 18.5114C7.11522 18.7713 7.08673 19.1072 7.08223 19.5193C7.0811 19.6183 7.08485 19.7143 7.09348 19.8073C7.11635 20.0484 7.13247 20.2955 7.17634 20.5246C7.45719 21.9919 8.34174 23.2915 9.6425 24.0478C10.2454 24.3939 10.9001 24.5922 11.6062 24.6432C11.9294 24.662 12.2493 24.6507 12.5657 24.6095C13.2771 24.5038 13.9494 24.2754 14.5834 23.9244C15.105 23.6417 15.5925 23.3057 16.0454 22.9161C16.1126 22.8595 16.1789 22.801 16.2445 22.7414C16.7849 22.2483 17.3136 21.7417 17.831 21.2224L19.9211 19.1822C19.9252 19.1781 19.9249 19.1751 19.9196 19.1728L19.587 19.0187C19.5799 19.0154 19.5731 19.0165 19.5675 19.0221L17.8543 20.6922L16.0226 22.4651C15.5475 22.8865 15.0447 23.2502 14.5148 23.5566C13.883 23.9012 13.2647 24.14 12.5631 24.2484C12.2538 24.2927 11.9384 24.305 11.6163 24.2859C10.95 24.2368 10.3197 24.0354 9.72574 23.6818C8.56335 22.9581 7.76804 21.7691 7.52094 20.4237C7.48457 20.2254 7.47032 19.9963 7.44969 19.7822C7.43282 19.6078 7.44144 19.4436 7.44557 19.2703C7.44894 19.1354 7.45832 19.0079 7.47444 18.8875C7.6353 17.6857 8.20075 16.7131 9.17079 15.9703C9.85323 15.4629 10.6167 15.1506 11.4611 15.0332C11.9504 14.9676 12.4364 14.9766 12.919 15.0598C13.3708 15.1345 13.8181 15.2424 14.2606 15.3838C14.5808 15.4869 14.9067 15.59 15.2378 15.6924C15.3862 15.7382 15.6371 15.8278 15.9899 15.9609L17.8723 16.7318L22.5676 18.8178C23.5122 19.2351 24.4597 19.6333 25.4106 20.0124C26.2457 20.3472 27.0864 20.6622 27.9319 20.9573C28.8532 21.2802 29.7839 21.5753 30.7239 21.8426C30.731 21.8445 30.7363 21.8426 30.7397 21.8355ZM14.5276 23.9162C14.5276 23.9162 14.5298 23.9192 14.5309 23.9203C14.5294 23.9192 14.5287 23.9177 14.5276 23.9162ZM14.5444 23.9259C14.5444 23.9259 14.5474 23.9263 14.5489 23.9259C14.5489 23.9259 14.5482 23.9259 14.5478 23.9259C14.5467 23.9259 14.5456 23.9256 14.5444 23.9252V23.9259ZM14.5351 23.9229C14.5351 23.9229 14.5377 23.9244 14.5396 23.9252C14.5381 23.9248 14.5366 23.9237 14.5351 23.9229ZM14.525 23.9128C14.5231 23.9094 14.522 23.9057 14.522 23.9019C14.522 23.9057 14.5234 23.9094 14.525 23.9128Z" fill="url(#paint6_linear_16604_11842)"/>
<path d="M34.9332 19.1481C34.844 18.4855 34.6708 17.8398 34.4131 17.2117C34.3483 17.0539 34.2673 16.8791 34.1698 16.6875C34.0131 16.3797 33.8256 16.0849 33.6355 15.8157C33.538 15.6774 33.4094 15.5157 33.2493 15.3309C33.1311 15.1944 33.0063 15.0628 32.8747 14.936C32.7145 14.7819 32.5796 14.6604 32.4704 14.5716C31.6541 13.9075 30.7298 13.4489 29.6983 13.1962C29.3725 13.1163 29.0391 13.0597 28.6975 13.0267C28.4463 12.996 28.1598 12.9832 27.8377 12.9888C27.2974 12.9982 26.7844 13.0582 26.2989 13.1688C25.4424 13.3691 24.7131 13.6825 23.9546 14.1419C23.2864 14.5465 22.6471 14.9949 22.037 15.4876C22.0344 15.4899 22.0344 15.4917 22.0377 15.4929L22.3966 15.6534C22.4015 15.6556 22.406 15.6552 22.4101 15.6519C23.3846 14.8836 24.4484 14.164 25.616 13.7328C25.7229 13.6934 25.9475 13.6278 26.2895 13.5359C26.7646 13.4279 27.2183 13.3646 27.6502 13.3458C27.9352 13.3334 28.2524 13.3424 28.6015 13.3728C28.7099 13.3874 28.8175 13.4009 28.9236 13.4137C29.1809 13.4448 29.4283 13.5055 29.6841 13.5569C30.0159 13.654 30.2626 13.7339 30.4246 13.7965C31.0092 14.0226 31.5499 14.323 32.0475 14.6979C32.1716 14.7913 32.3107 14.9075 32.4648 15.0463C32.6152 15.1816 32.7464 15.3118 32.8582 15.4359C32.9545 15.5427 33.0546 15.6586 33.1581 15.7838C33.3441 16.0085 33.4975 16.2529 33.6527 16.4989C33.7157 16.599 33.7761 16.707 33.8342 16.8233C33.9613 17.0775 34.0438 17.2496 34.0813 17.3396C34.25 17.7461 34.3925 18.223 34.5088 18.7701C34.5624 19.0232 34.5984 19.2703 34.6171 19.5114C34.7292 20.9554 34.4424 22.2982 33.757 23.5389C33.2463 24.464 32.5387 25.2251 31.6343 25.8225C30.7407 26.3905 29.7617 26.7254 28.6968 26.8274C28.0683 26.884 27.4508 26.8675 26.8441 26.7775C25.9539 26.6455 25.0791 26.3917 24.2197 26.0163L22.7824 25.3436C21.533 24.7294 20.2859 24.1055 19.0189 23.5239C19.0132 23.5213 19.0087 23.522 19.0046 23.5262L18.7369 23.7815C18.7331 23.7849 18.7335 23.7879 18.7384 23.7901C20.149 24.437 21.3954 25.0628 22.7172 25.7107C23.1956 25.9522 23.6853 26.1783 24.1859 26.3894C25.2898 26.8694 26.4353 27.1431 27.6221 27.2102C27.96 27.2293 28.3184 27.2211 28.6971 27.1855C29.7981 27.0884 30.8146 26.7516 31.7464 26.1761C32.9429 25.4235 33.8792 24.2979 34.4177 23.0001C34.9385 21.7455 35.1102 20.4616 34.9332 19.1481ZM28.6758 13.3492C28.6758 13.3492 28.6788 13.3477 28.6799 13.3466C28.6788 13.3477 28.6773 13.3484 28.6758 13.3492ZM28.6848 13.3398C28.6848 13.3398 28.6855 13.3391 28.6855 13.3387C28.6855 13.3391 28.6848 13.3394 28.6848 13.3398Z" fill="url(#paint7_linear_16604_11842)"/>
<path d="M21.4441 21.1347L21.1809 21.3878C21.1809 21.3878 21.1798 21.3889 21.1798 21.3897C21.1783 21.3927 21.1798 21.3964 21.1824 21.3975L22.854 22.2105C23.4708 22.5176 24.0944 22.8228 24.7244 23.1254C25.0457 23.2799 25.3746 23.4227 25.7109 23.554C26.6461 23.9196 27.6952 24.1153 28.6968 23.9608C29.4606 23.8401 30.1119 23.5127 30.6507 22.9784C31.4861 22.1542 31.863 20.969 31.7865 19.8246C31.7715 19.6011 31.7344 19.3663 31.6748 19.12C31.6136 18.8684 31.5349 18.628 31.4385 18.3993C31.272 18.0052 31.0388 17.6471 30.7392 17.3247C30.5424 17.1132 30.3001 16.9201 30.0121 16.745C29.9664 16.721 29.9218 16.6962 29.8779 16.6703C29.8228 16.6377 29.7782 16.613 29.7437 16.5965C28.9716 16.2282 28.1576 16.1079 27.3019 16.235C26.7961 16.3126 26.321 16.4765 25.8759 16.7262C25.7394 16.8027 25.5973 16.8848 25.4492 16.9729C25.4484 16.9729 25.448 16.9737 25.4477 16.9744C25.4473 16.9759 25.4477 16.9774 25.4495 16.9778C25.5857 17.0374 25.7233 17.0944 25.8616 17.1495C25.8658 17.151 25.8703 17.151 25.8736 17.1488C26.3075 16.8739 26.7799 16.6906 27.2903 16.5987C27.6971 16.5297 28.1077 16.5263 28.522 16.589C29.0804 16.6733 29.5892 16.8769 30.0489 17.1998C30.392 17.4533 30.6747 17.7619 30.8974 18.1256C30.9604 18.2279 31.0043 18.3299 31.0579 18.4342C31.0981 18.511 31.1326 18.5905 31.1622 18.6727C31.2822 19.0056 31.3598 19.2906 31.395 19.528C31.557 20.6184 31.302 21.6 30.6297 22.473C30.1164 23.0838 29.4726 23.4591 28.6979 23.599C27.6915 23.767 26.6607 23.5536 25.712 23.1704C25.3933 23.0403 25.0667 22.894 24.7322 22.7313C24.1158 22.4317 23.4956 22.128 22.8716 21.8201L21.4595 21.1321C21.4539 21.1294 21.4486 21.1302 21.4441 21.1347Z" fill="url(#paint8_linear_16604_11842)"/>
<path d="M21.0326 21.5322L20.7687 21.7864C20.7687 21.7864 20.7679 21.7872 20.7675 21.7875C20.7664 21.7898 20.7675 21.7928 20.7698 21.7943L22.8655 22.8123C23.6683 23.2229 24.4797 23.6095 25.2998 23.9728C25.8915 24.2158 26.5 24.3864 27.1251 24.4847C27.6808 24.572 28.2365 24.5739 28.7922 24.4895C29.7082 24.3399 30.4841 23.9327 31.12 23.2675C31.9926 22.3365 32.4114 21.0511 32.3236 19.7901C32.3071 19.5535 32.2693 19.3071 32.2097 19.0514C32.1433 18.766 32.0612 18.5021 31.9626 18.2587C31.6281 17.4323 31.0806 16.7802 30.3198 16.3025C30.2302 16.2545 30.1428 16.208 30.057 16.1627C29.7064 15.9782 29.3385 15.8439 28.9538 15.7599C28.829 15.7341 28.7382 15.7164 28.6812 15.7078C27.7554 15.5672 26.8746 15.6816 26.0384 16.0509C25.6751 16.211 25.281 16.4356 24.8565 16.724C24.8558 16.724 24.8554 16.7251 24.855 16.7259C24.8543 16.7277 24.855 16.7296 24.8573 16.7304L25.2379 16.8927C25.2435 16.8953 25.2491 16.895 25.2548 16.8916C25.4422 16.7712 25.6301 16.6599 25.8187 16.5575C26.7948 16.0262 27.8293 15.8796 28.9231 16.118C29.4326 16.2373 29.9014 16.445 30.3292 16.7412C30.736 17.0329 31.0709 17.3903 31.3345 17.8129C31.453 18.003 31.5613 18.2317 31.6378 18.4158C31.7518 18.6884 31.8433 19.0173 31.9123 19.4024C31.9955 19.867 32 20.3323 31.9258 20.7984C31.8216 21.4553 31.5808 22.0553 31.204 22.5982C30.598 23.4426 29.7754 23.956 28.736 24.1378C28.3846 24.1911 28.0411 24.2079 27.7063 24.1881C26.8742 24.1386 26.0482 23.9001 25.2713 23.5698L22.8733 22.4194L21.0473 21.5299C21.0424 21.5273 21.0364 21.5284 21.0326 21.5322ZM28.7307 24.4723C28.7307 24.4723 28.7307 24.4734 28.7307 24.4738C28.7307 24.4738 28.7303 24.4734 28.7303 24.473C28.7303 24.473 28.7303 24.4731 28.7307 24.4727V24.4723Z" fill="url(#paint9_linear_16604_11842)"/>
<path d="M20.6215 21.9266L20.365 22.1831C20.365 22.1831 20.3642 22.1842 20.3639 22.1846C20.3624 22.1876 20.3639 22.1917 20.3669 22.1932L22.5361 23.2465C23.0663 23.5105 23.6021 23.7737 24.1432 24.0362C24.6422 24.2784 25.1627 24.5098 25.6903 24.6811C26.3004 24.8915 26.9284 25.0216 27.5745 25.0715C27.7807 25.0876 28.0016 25.0827 28.2161 25.0812C28.717 25.0644 29.1977 24.9785 29.6578 24.8229C30.1119 24.6695 30.5315 24.4494 30.9169 24.1618C32.0898 23.2788 32.7618 21.9079 32.8589 20.4489C32.8855 20.0503 32.8642 19.6543 32.7948 19.2614C32.7014 18.7308 32.5439 18.2058 32.3058 17.7281C31.7865 16.6876 30.9751 15.9395 29.8712 15.4832C29.5318 15.3497 29.1823 15.2522 28.822 15.1903C27.9285 15.0437 27.0593 15.1153 26.2141 15.4048C26.03 15.4682 25.8515 15.5432 25.6794 15.6302C25.1781 15.8773 24.7161 16.1559 24.2932 16.4652C24.28 16.475 24.2808 16.4832 24.2958 16.4896L24.64 16.6366C24.6539 16.6426 24.667 16.6415 24.6794 16.6328C25.0228 16.397 25.3723 16.187 25.7274 16.0036C26.7376 15.5023 27.7935 15.3568 28.8951 15.5679C29.2258 15.6339 29.5457 15.734 29.855 15.8683C30.701 16.2395 31.3598 16.8181 31.8311 17.6044C31.911 17.7379 31.9725 17.8736 32.0422 18.0131C32.0943 18.1177 32.1397 18.2253 32.1783 18.3352C32.3264 18.7563 32.4217 19.1324 32.4641 19.4631C32.6122 20.618 32.3853 21.6941 31.7831 22.6912C31.542 23.0905 31.2173 23.4569 30.8082 23.7906C30.1404 24.3133 29.3773 24.6163 28.519 24.6991C28.4167 24.7089 28.3135 24.7175 28.2104 24.7254C27.3574 24.7501 26.5238 24.5953 25.7087 24.311C25.2073 24.1284 24.7154 23.9188 24.2335 23.6822C23.6801 23.4104 23.1236 23.1366 22.5646 22.861L20.6361 21.924C20.6312 21.9218 20.6252 21.9229 20.6215 21.9266Z" fill="url(#paint10_linear_16604_11842)"/>
<path d="M20.2206 22.3281L19.9645 22.582C19.96 22.5865 19.9604 22.5902 19.966 22.5929L22.8589 24.0005C23.4547 24.2978 24.0112 24.5644 24.5286 24.8003C24.9122 24.9754 25.3228 25.1291 25.7607 25.2619C26.5786 25.524 27.4211 25.641 28.2877 25.6129C28.4178 25.6087 28.5798 25.5941 28.7729 25.569C29.6574 25.4569 30.4565 25.1464 31.1708 24.6376C31.5701 24.344 31.905 24.0256 32.1749 23.6821C32.9312 22.72 33.3385 21.6041 33.3958 20.3348C33.4307 19.5654 33.289 18.8087 33.0404 18.0959C32.9897 17.9504 32.9279 17.7985 32.8551 17.6403C32.6718 17.2432 32.4513 16.8757 32.1783 16.5413C31.968 16.2833 31.7317 16.0418 31.4696 15.8165C31.4314 15.7838 31.3361 15.713 31.1839 15.6039C31.1179 15.5521 31.0658 15.5139 31.0279 15.4895C30.2334 14.9762 29.3511 14.6803 28.381 14.6027C28.2614 14.5929 28.1744 14.5907 28.12 14.5959C28.1002 14.5948 28.081 14.5937 28.0627 14.5933C27.2287 14.5734 26.4383 14.7216 25.691 15.0373C24.9793 15.3534 24.3224 15.7711 23.7044 16.2255C23.7037 16.2259 23.7033 16.2267 23.7029 16.2274C23.7018 16.2297 23.7029 16.2323 23.7052 16.2334L24.076 16.395C24.0816 16.3977 24.0873 16.3969 24.0921 16.3935C24.604 16.0174 25.1417 15.6935 25.7049 15.4216C26.4938 15.0699 27.3184 14.9113 28.1782 14.9462C28.5239 14.9638 28.8662 15.0129 29.2056 15.0931C29.9094 15.26 30.5521 15.566 31.1344 16.0111C31.341 16.1787 31.5157 16.338 31.6586 16.4899C31.911 16.7584 32.1356 17.064 32.3317 17.4063C32.4922 17.6868 32.6369 18.019 32.7663 18.4034C32.8341 18.6055 32.8754 18.8113 32.9241 19.0206C32.9609 19.1769 32.9875 19.3254 33.004 19.4668C33.2155 21.2692 32.5394 23.0811 31.1157 24.2288C30.4047 24.7782 29.5985 25.1078 28.6967 25.218C27.7331 25.3365 26.7458 25.2023 25.811 24.9045C25.4218 24.7819 25.0828 24.6559 24.7937 24.5266C24.2545 24.2847 23.6077 23.975 22.8533 23.5974L20.2394 22.3251C20.2322 22.3218 20.2262 22.3225 20.2206 22.3281Z" fill="url(#paint11_linear_16604_11842)"/>
<path d="M19.8149 22.7236L19.5573 22.9812C19.5573 22.9812 19.5562 22.9827 19.5554 22.9835C19.5535 22.9876 19.5554 22.9925 19.5592 22.9944L22.8304 24.579C23.4345 24.8827 23.9812 25.1422 24.4705 25.357C24.7798 25.4928 25.1342 25.6244 25.5335 25.7515C26.0634 25.9199 26.6097 26.0376 27.1721 26.1047C27.2445 26.1133 27.3214 26.1201 27.4027 26.125C27.78 26.1613 28.1778 26.1606 28.5966 26.1235C29.5232 26.041 30.3762 25.7627 31.1562 25.2884C32.5364 24.4174 33.4412 23.0562 33.7911 21.451C33.9549 20.6992 33.9785 19.9436 33.8612 19.1843C33.7783 18.647 33.6392 18.14 33.4446 17.6638C33.3868 17.5232 33.3197 17.374 33.2429 17.2169C33.1206 16.9656 32.9759 16.7467 32.8274 16.5198C32.7126 16.3447 32.575 16.1883 32.4397 16.026C32.3557 15.9251 32.2582 15.822 32.1472 15.7166C31.9953 15.5719 31.8903 15.4748 31.8322 15.4256C31.5701 15.2025 31.2563 14.9903 30.8914 14.7882C30.2304 14.4331 29.5067 14.1965 28.7477 14.102C28.6109 14.0851 28.4699 14.0728 28.3244 14.0653C28.2067 14.0593 28.0882 14.0536 27.9686 14.0484C27.7916 14.0409 27.5557 14.0544 27.2614 14.0889C26.7184 14.1459 26.1927 14.2711 25.6839 14.4646C25.3948 14.5805 25.1439 14.6956 24.9317 14.8103C24.3261 15.1377 23.7303 15.5276 23.1442 15.9799C23.1439 15.9802 23.1431 15.981 23.1431 15.9817C23.1424 15.984 23.1431 15.9862 23.145 15.9866C23.2676 16.041 23.388 16.0942 23.5065 16.1467C23.5117 16.149 23.5166 16.1482 23.5215 16.1448C24.2024 15.6379 24.9317 15.1703 25.7173 14.8358C26.2508 14.6262 26.7949 14.4931 27.3502 14.4361C28.0777 14.3701 28.7755 14.4241 29.4433 14.5977C29.9214 14.7222 30.3886 14.9146 30.8449 15.1748C31.6751 15.6619 32.3264 16.3252 32.7989 17.1644C33.0677 17.6421 33.2522 18.0898 33.3531 18.5079C33.4487 18.9061 33.5035 19.1569 33.517 19.2604C33.7108 20.7337 33.4228 22.0828 32.6538 23.3082C32.2657 23.9265 31.7531 24.4522 31.1168 24.8857C30.3504 25.3878 29.5041 25.6814 28.5779 25.7665C28.1808 25.8029 27.7927 25.804 27.4136 25.7699C26.7758 25.7099 26.1533 25.5801 25.547 25.3803C24.6047 25.0668 23.7247 24.621 22.8383 24.1853L19.8291 22.7214C19.8247 22.7188 19.8187 22.7199 19.8149 22.7236Z" fill="url(#paint12_linear_16604_11842)"/>
<path d="M19.4108 23.1269L19.1453 23.3811C19.1427 23.3838 19.143 23.3856 19.1464 23.3875C20.4382 23.9927 21.4311 24.4862 22.5676 25.0445C23.5759 25.5454 24.5906 26.0494 25.6806 26.3501C26.3656 26.5477 27.0766 26.6595 27.813 26.6846C28.2847 26.697 28.7617 26.6598 29.2435 26.574C30.1318 26.4157 30.9481 26.0824 31.6921 25.5739C32.3269 25.1319 32.8545 24.6024 33.2752 23.9856C34.0187 22.8963 34.4147 21.6743 34.4631 20.3195C34.4784 19.8962 34.4533 19.4871 34.3881 19.0923C34.2887 18.4871 34.1312 17.9235 33.9156 17.4015C33.859 17.2643 33.7716 17.0813 33.6535 16.8522C33.5324 16.6175 33.3922 16.4135 33.2538 16.1986C33.1443 16.0284 33.0074 15.8758 32.877 15.7183C32.7813 15.6024 32.6771 15.4892 32.5642 15.3793C32.4191 15.2372 32.2976 15.124 32.1998 15.0396C31.9069 14.7873 31.5616 14.551 31.1637 14.3317C31.0677 14.2754 30.9972 14.2364 30.9519 14.2147C30.1738 13.8375 29.3646 13.6144 28.5243 13.545C28.4565 13.5352 28.3616 13.5281 28.2405 13.524C27.2232 13.4884 26.2595 13.6549 25.3487 14.0235C24.7994 14.2612 24.2568 14.5597 23.7203 14.9192C23.2767 15.2166 22.8994 15.4873 22.589 15.7314C22.5841 15.7352 22.5845 15.7382 22.5901 15.7404L22.9459 15.9005C22.9519 15.9032 22.9576 15.9024 22.9624 15.8983C23.7053 15.3268 24.5268 14.7854 25.3896 14.395C26.4046 13.968 27.4605 13.8048 28.5566 13.9053C29.4824 13.9935 30.3455 14.2698 31.1469 14.7336C31.6287 15.0212 32.0644 15.3696 32.4536 15.779C32.5087 15.8372 32.6092 15.9557 32.7547 16.1345C32.9516 16.3771 33.1372 16.6621 33.2703 16.901C33.4555 17.2332 33.607 17.5703 33.7244 17.9119C33.7847 18.087 33.841 18.2763 33.8935 18.4792C33.955 18.7177 33.9981 18.913 34.0225 19.0656C34.2246 20.3341 34.0723 21.5524 33.5658 22.7212C33.1244 23.74 32.4517 24.5788 31.5484 25.2368C30.446 26.0037 29.1858 26.3505 27.8404 26.3288C27.7305 26.3168 27.6038 26.3198 27.5115 26.313C26.8947 26.2673 26.2862 26.1563 25.6862 25.98C24.6022 25.6681 23.5688 25.1345 22.5417 24.6335L19.4239 23.125C19.419 23.1224 19.4145 23.1232 19.4108 23.1269Z" fill="url(#paint13_linear_16604_11842)"/>
<path d="M16.9031 19.6431L17.1772 19.387C17.1772 19.387 17.1783 19.3855 17.1787 19.3848C17.1798 19.3818 17.1783 19.3788 17.1753 19.3776L15.9841 18.9176C15.281 18.6509 14.5675 18.4005 13.843 18.1657L12.1545 17.6442L10.886 17.3123L9.98498 17.084C9.97785 17.0821 9.97035 17.084 9.9651 17.0892L9.67975 17.3682C9.67975 17.3682 9.67825 17.3701 9.67788 17.3712C9.67713 17.3742 9.67938 17.3772 9.68238 17.3779L10.8553 17.6734L12.1515 18.0165L13.8625 18.5497C14.5795 18.7833 15.2904 19.0353 15.9957 19.3049L16.8844 19.6469C16.8915 19.6495 16.8975 19.6484 16.9031 19.6431Z" fill="url(#paint14_linear_16604_11842)"/>
<path d="M16.4752 20.0498L16.7459 19.7922C16.7459 19.7922 16.747 19.7911 16.7474 19.7903C16.7489 19.7869 16.7474 19.7828 16.7436 19.7813L16.0245 19.508C15.4571 19.2849 14.8767 19.0752 14.2824 18.8799C13.6937 18.6707 13.0918 18.4791 12.4773 18.3054C11.9864 18.1483 11.4855 18.0092 10.9748 17.8889L9.55027 17.5278C9.54577 17.5266 9.5424 17.5278 9.53977 17.5315L9.33354 17.8262C9.33092 17.83 9.33167 17.8326 9.33617 17.8337L10.9369 18.2469C11.4495 18.3711 11.9594 18.5135 12.4671 18.6748C12.6681 18.7352 12.8702 18.7955 13.0738 18.8563C13.4687 18.9736 13.8616 19.1146 14.2576 19.2477L16.0147 19.8874L16.456 20.0535C16.4628 20.0562 16.4703 20.0547 16.4752 20.0498Z" fill="url(#paint15_linear_16604_11842)"/>
<path d="M15.5797 20.8554L15.8696 20.597C15.873 20.594 15.8726 20.5918 15.8685 20.5899L14.2962 20.0106L12.9332 19.555L11.4427 19.1061L9.0163 18.5174C9.0118 18.5163 9.0088 18.5178 9.00768 18.5227L8.92481 18.829C8.92331 18.8347 8.92519 18.838 8.93081 18.8392L11.4108 19.4676L12.919 19.9209L14.2745 20.3807L15.5651 20.858C15.5707 20.8599 15.5756 20.8591 15.5797 20.8554Z" fill="url(#paint16_linear_16604_11842)"/>
<path d="M16.032 20.4476C16.1104 20.385 16.2004 20.3032 16.3013 20.2023C16.3103 20.1937 16.3088 20.187 16.2971 20.1821L16.0118 20.0715C15.2322 19.7704 14.4332 19.4843 13.6154 19.2136C12.9232 18.9897 12.219 18.7771 11.5024 18.575C11.4203 18.5521 11.3337 18.5292 11.2426 18.5067L9.24213 17.9994C9.23688 17.9979 9.23125 18.0009 9.229 18.0058L9.07977 18.3226C9.07977 18.3226 9.07939 18.3234 9.07939 18.3241C9.07827 18.3279 9.08052 18.332 9.08427 18.3328L11.189 18.8585C11.9768 19.0748 12.7747 19.3152 13.5827 19.5803C14.3781 19.8446 15.1827 20.1341 15.9972 20.4494C16.0058 20.4599 16.0174 20.4592 16.032 20.4476Z" fill="url(#paint17_linear_16604_11842)"/>
<path d="M15.1132 21.2453L15.4135 20.993C15.4173 20.9896 15.4169 20.9873 15.412 20.9855L14.2931 20.5726L13.0456 20.1455L11.083 19.5658L8.90897 19.0154C8.90897 19.0154 8.90747 19.0154 8.90634 19.015C8.89697 19.0139 8.88872 19.0206 8.88797 19.03L8.8546 19.3735C8.85347 19.3855 8.86135 19.3964 8.87297 19.399L11.0714 19.9284L13.0554 20.5254L14.2586 20.9375L15.0944 21.2483C15.1012 21.2509 15.1076 21.2502 15.1132 21.2453Z" fill="url(#paint18_linear_16604_11842)"/>
<path d="M11.3691 20.7521L8.91343 20.1206C8.91343 20.1206 8.91193 20.1206 8.91118 20.1206C8.9093 20.1214 8.90818 20.1236 8.90893 20.1255L9.00792 20.5068C9.00979 20.5132 9.01354 20.5169 9.01992 20.5188L11.2618 21.0899L12.5086 21.4667L14.0996 22.0108C14.1041 22.0123 14.1097 22.0119 14.1138 22.0089C14.229 21.9302 14.3407 21.8466 14.4494 21.7581C14.4502 21.7581 14.4506 21.7573 14.4506 21.757C14.4506 21.7562 14.4498 21.7558 14.4491 21.7558L12.5217 21.0974L11.3691 20.7521Z" fill="url(#paint19_linear_16604_11842)"/>
<path d="M14.6203 21.6315L14.9409 21.3881C14.9409 21.3881 14.9427 21.3863 14.9431 21.3851C14.9446 21.3818 14.9431 21.3776 14.9394 21.3765L14.3387 21.1523L12.498 20.5358C12.1147 20.4211 11.7222 20.3026 11.3202 20.18C11.2362 20.1545 11.0596 20.1076 10.7904 20.0398L8.87578 19.5688C8.85891 19.5647 8.85103 19.5714 8.85216 19.5887L8.87578 19.928C8.87728 19.9479 8.88778 19.9603 8.90728 19.9648L10.8162 20.4117L12.4702 20.9029L14.2603 21.5029L14.606 21.6334C14.6109 21.6352 14.6162 21.6345 14.6203 21.6315Z" fill="url(#paint20_linear_16604_11842)"/>
<circle cx="20" cy="20" r="19.5" stroke="black" stroke-opacity="0.05"/>
<defs>
<linearGradient id="paint0_linear_16604_11842" x1="7.61035" y1="19.1088" x2="30.6285" y2="20.0773" gradientUnits="userSpaceOnUse">
<stop stop-color="#E0E85E"/>
<stop offset="0.50624" stop-color="#39D1E9"/>
<stop offset="0.907741" stop-color="#164772"/>
</linearGradient>
<linearGradient id="paint1_linear_16604_11842" x1="5.52148" y1="18.8619" x2="31.1762" y2="19.6762" gradientUnits="userSpaceOnUse">
<stop stop-color="#E0E85E"/>
<stop offset="0.50624" stop-color="#39D1E9"/>
<stop offset="0.907741" stop-color="#164772"/>
</linearGradient>
<linearGradient id="paint2_linear_16604_11842" x1="6.04199" y1="18.9276" x2="31.1589" y2="19.7768" gradientUnits="userSpaceOnUse">
<stop stop-color="#E0E85E"/>
<stop offset="0.50624" stop-color="#39D1E9"/>
<stop offset="0.907741" stop-color="#164772"/>
</linearGradient>
<linearGradient id="paint3_linear_16604_11842" x1="8.14795" y1="19.1557" x2="30.2763" y2="20.1733" gradientUnits="userSpaceOnUse">
<stop stop-color="#E0E85E"/>
<stop offset="0.50624" stop-color="#39D1E9"/>
<stop offset="0.907741" stop-color="#164772"/>
</linearGradient>
<linearGradient id="paint4_linear_16604_11842" x1="5" y1="18.8069" x2="31.1641" y2="19.5906" gradientUnits="userSpaceOnUse">
<stop stop-color="#E0E85E"/>
<stop offset="0.50624" stop-color="#39D1E9"/>
<stop offset="0.907741" stop-color="#164772"/>
</linearGradient>
<linearGradient id="paint5_linear_16604_11842" x1="6.56543" y1="18.9938" x2="31.0583" y2="19.8789" gradientUnits="userSpaceOnUse">
<stop stop-color="#E0E85E"/>
<stop offset="0.50624" stop-color="#39D1E9"/>
<stop offset="0.907741" stop-color="#164772"/>
</linearGradient>
<linearGradient id="paint6_linear_16604_11842" x1="7.08203" y1="19.0567" x2="30.8856" y2="19.982" gradientUnits="userSpaceOnUse">
<stop stop-color="#E0E85E"/>
<stop offset="0.50624" stop-color="#39D1E9"/>
<stop offset="0.907741" stop-color="#164772"/>
</linearGradient>
<linearGradient id="paint7_linear_16604_11842" x1="7.00024" y1="20.2394" x2="34.9541" y2="19.1015" gradientUnits="userSpaceOnUse">
<stop stop-color="#E0E85E"/>
<stop offset="0.50624" stop-color="#39D1E9"/>
<stop offset="0.907741" stop-color="#164772"/>
</linearGradient>
<linearGradient id="paint8_linear_16604_11842" x1="13.5203" y1="20.1746" x2="31.7535" y2="19.2938" gradientUnits="userSpaceOnUse">
<stop stop-color="#E0E85E"/>
<stop offset="0.50624" stop-color="#39D1E9"/>
<stop offset="0.907741" stop-color="#164772"/>
</linearGradient>
<linearGradient id="paint9_linear_16604_11842" x1="12.4222" y1="20.1853" x2="32.2924" y2="19.2657" gradientUnits="userSpaceOnUse">
<stop stop-color="#E0E85E"/>
<stop offset="0.50624" stop-color="#39D1E9"/>
<stop offset="0.907741" stop-color="#164772"/>
</linearGradient>
<linearGradient id="paint10_linear_16604_11842" x1="11.3412" y1="20.1946" x2="32.8269" y2="19.2344" gradientUnits="userSpaceOnUse">
<stop stop-color="#E0E85E"/>
<stop offset="0.50624" stop-color="#39D1E9"/>
<stop offset="0.907741" stop-color="#164772"/>
</linearGradient>
<linearGradient id="paint11_linear_16604_11842" x1="10.2663" y1="20.2092" x2="33.3574" y2="19.2067" gradientUnits="userSpaceOnUse">
<stop stop-color="#E0E85E"/>
<stop offset="0.50624" stop-color="#39D1E9"/>
<stop offset="0.907741" stop-color="#164772"/>
</linearGradient>
<linearGradient id="paint12_linear_16604_11842" x1="9.18137" y1="20.2143" x2="33.8901" y2="19.169" gradientUnits="userSpaceOnUse">
<stop stop-color="#E0E85E"/>
<stop offset="0.50624" stop-color="#39D1E9"/>
<stop offset="0.907741" stop-color="#164772"/>
</linearGradient>
<linearGradient id="paint13_linear_16604_11842" x1="8.0892" y1="20.2284" x2="34.422" y2="19.137" gradientUnits="userSpaceOnUse">
<stop stop-color="#E0E85E"/>
<stop offset="0.50624" stop-color="#39D1E9"/>
<stop offset="0.907741" stop-color="#164772"/>
</linearGradient>
<linearGradient id="paint14_linear_16604_11842" x1="9.67773" y1="18.2159" x2="28.2775" y2="18.1865" gradientUnits="userSpaceOnUse">
<stop stop-color="#E0E85E"/>
<stop offset="0.50624" stop-color="#39D1E9"/>
<stop offset="0.907741" stop-color="#164772"/>
</linearGradient>
<linearGradient id="paint15_linear_16604_11842" x1="9.33203" y1="18.6434" x2="27.72" y2="18.6143" gradientUnits="userSpaceOnUse">
<stop stop-color="#E0E85E"/>
<stop offset="0.50624" stop-color="#39D1E9"/>
<stop offset="0.907741" stop-color="#164772"/>
</linearGradient>
<linearGradient id="paint16_linear_16604_11842" x1="8.92432" y1="19.5512" x2="26.1509" y2="19.5236" gradientUnits="userSpaceOnUse">
<stop stop-color="#E0E85E"/>
<stop offset="0.50624" stop-color="#39D1E9"/>
<stop offset="0.907741" stop-color="#164772"/>
</linearGradient>
<linearGradient id="paint17_linear_16604_11842" x1="9.0791" y1="19.0844" x2="27.001" y2="19.0559" gradientUnits="userSpaceOnUse">
<stop stop-color="#E0E85E"/>
<stop offset="0.50624" stop-color="#39D1E9"/>
<stop offset="0.907741" stop-color="#164772"/>
</linearGradient>
<linearGradient id="paint18_linear_16604_11842" x1="8.85449" y1="20.0018" x2="25.124" y2="19.976" gradientUnits="userSpaceOnUse">
<stop stop-color="#E0E85E"/>
<stop offset="0.50624" stop-color="#39D1E9"/>
<stop offset="0.907741" stop-color="#164772"/>
</linearGradient>
<linearGradient id="paint19_linear_16604_11842" x1="8.90869" y1="20.9557" x2="22.6499" y2="20.9339" gradientUnits="userSpaceOnUse">
<stop stop-color="#E0E85E"/>
<stop offset="0.50624" stop-color="#39D1E9"/>
<stop offset="0.907741" stop-color="#164772"/>
</linearGradient>
<linearGradient id="paint20_linear_16604_11842" x1="8.85205" y1="20.4803" x2="23.9564" y2="20.4562" gradientUnits="userSpaceOnUse">
<stop stop-color="#E0E85E"/>
<stop offset="0.50624" stop-color="#39D1E9"/>
<stop offset="0.907741" stop-color="#164772"/>
</linearGradient>
</defs>
</svg>
