<svg width="40" height="40" viewBox="0 0 40 40" fill="none" xmlns="http://www.w3.org/2000/svg">
<circle cx="20" cy="20" r="20" fill="#F6F8FA"/>
<g clip-path="url(#clip0_24513_40154)">
<path d="M11.0352 25.4782V15.4689L19.9966 10.486C19.9966 10.486 20.0609 10.4736 20.0866 10.486L28.9837 15.4379C29.0159 15.4565 29.0352 15.4875 29.0352 15.5247V25.4225C29.0352 25.4596 29.0094 25.4906 28.9773 25.5092L20.0802 30.455C20.048 30.4736 20.003 30.4736 19.9709 30.455L11.0352 25.4782ZM20.2344 11.6264C20.2344 11.6264 20.1959 11.6264 20.1894 11.6388V11.6511V19.8011C20.1894 19.8011 20.2023 19.8321 20.2216 19.8321H20.2344L27.5566 15.754C27.5566 15.754 27.5759 15.7292 27.5694 15.7106C27.5694 15.7106 27.563 15.6982 27.5566 15.6982L20.2344 11.6264ZM19.8166 19.8259C19.8166 19.8259 19.8616 19.8259 19.8744 19.8135C19.8744 19.8135 19.8744 19.8011 19.8744 19.7949V11.6697C19.8744 11.6697 19.8552 11.6326 19.8359 11.6326C19.8294 11.6326 19.823 11.6326 19.8166 11.6326L12.5202 15.6982C12.5202 15.6982 12.4944 15.7292 12.5009 15.754C12.5009 15.7602 12.5073 15.7664 12.5202 15.7726L19.8166 19.8321V19.8259ZM12.0444 16.5535C12.0444 16.5535 11.9994 16.5535 11.9866 16.5659C11.9866 16.5659 11.9866 16.5783 11.9866 16.5845V24.7097C11.9866 24.7097 12.0059 24.7469 12.0252 24.7469C12.0316 24.7469 12.038 24.7469 12.0444 24.7469L19.3409 20.6812C19.3409 20.6812 19.3666 20.6502 19.3602 20.6254C19.3602 20.6192 19.3537 20.613 19.3409 20.6068L12.0444 16.5535ZM28.013 24.7407C28.013 24.7407 28.0644 24.7407 28.0709 24.7221C28.0709 24.7221 28.0709 24.7097 28.0709 24.7035V16.5969C28.0709 16.5969 28.0516 16.5535 28.0259 16.5535C28.0194 16.5535 28.013 16.5535 28.0066 16.5535L20.7359 20.6068C20.7359 20.6068 20.7102 20.644 20.7166 20.6626C20.7166 20.6688 20.723 20.675 20.7359 20.6812L28.0066 24.7345L28.013 24.7407ZM19.5016 29.1349C19.5016 29.1349 19.5402 29.1349 19.5466 29.1225C19.5466 29.1225 19.5466 29.1101 19.5466 29.1039V20.9663C19.5466 20.9663 19.5337 20.9353 19.5144 20.9353C19.5144 20.9353 19.5016 20.9353 19.4952 20.9353L12.1923 25.0134C12.1923 25.0134 12.173 25.0382 12.1794 25.0568C12.1794 25.0568 12.1859 25.0692 12.1923 25.0692L19.5016 29.1349ZM20.588 20.9601C20.588 20.9601 20.5366 20.9601 20.5237 20.9787C20.5237 20.9849 20.5237 20.9911 20.5237 20.9973V29.0791C20.5237 29.0791 20.543 29.1225 20.5687 29.1225C20.5752 29.1225 20.5816 29.1225 20.588 29.1225L27.8587 25.0816C27.8587 25.0816 27.8909 25.0444 27.878 25.0196C27.878 25.0134 27.8652 25.0072 27.8587 25.001L20.588 20.9601Z" fill="#231F1E"/>
</g>
<circle cx="20" cy="20" r="19.5" stroke="black" stroke-opacity="0.05"/>
<defs>
<clipPath id="clip0_24513_40154">
<rect width="18" height="20" fill="white" transform="translate(11.0352 10.4736)"/>
</clipPath>
</defs>
</svg>
