<svg width="40" height="40" viewBox="0 0 40 40" fill="none" xmlns="http://www.w3.org/2000/svg">
<circle cx="20" cy="20" r="20" fill="#006394"/>
<path d="M8.19558 19.0885C7.51905 18.8432 6.60332 18.8804 6.31139 19.6391C5.97396 20.5138 6.49121 21.4844 7.50573 21.4145C7.72384 21.3995 7.95749 21.3485 8.20724 21.2624C8.21889 21.2586 8.23221 21.2647 8.2361 21.2763C8.2361 21.2774 8.23665 21.2791 8.23721 21.2802L8.38595 22.1121C8.3915 22.1421 8.3754 22.1721 8.34765 22.1848C8.27772 22.2159 8.21001 22.237 8.14452 22.2475C7.56789 22.3408 7.06285 22.3424 6.63051 22.2531C5.4778 22.0139 4.91226 21.1231 5.01105 19.9987C5.16312 18.266 6.95019 17.6661 8.39594 18.1817C8.4259 18.1922 8.44311 18.2233 8.43589 18.2544L8.24387 19.0625C8.23776 19.0891 8.22167 19.098 8.19558 19.0885Z" fill="white"/>
<path d="M9.86283 20.6625C9.23458 20.4433 8.51975 20.0842 8.52641 19.3072C8.53252 18.5979 9.07308 18.1734 9.7374 18.0491C10.2691 17.9497 10.8124 18.0013 11.368 18.2033C11.3902 18.2117 11.3979 18.2272 11.3918 18.25L11.1482 19.1268C11.1432 19.1452 11.1326 19.1502 11.1154 19.1418C10.7486 18.9703 10.364 18.9171 9.96162 18.9814C9.73185 19.0181 9.56536 19.2839 9.80511 19.4487C9.89668 19.5115 9.99547 19.5597 10.1009 19.5925C10.7442 19.7934 11.4928 20.1164 11.5472 20.9017C11.5789 21.359 11.4257 21.7114 11.0877 21.959C10.6443 22.2842 10.0432 22.3391 9.481 22.3075C9.153 22.2886 8.85441 22.2215 8.58469 22.1055C8.54806 22.0899 8.52752 22.05 8.5364 22.0106L8.72676 21.1986C8.73065 21.1803 8.74952 21.1687 8.76839 21.1725C8.77005 21.1725 8.77172 21.1736 8.77338 21.1742C8.9804 21.2541 9.18796 21.3191 9.39497 21.3696C9.66192 21.4345 10.2624 21.4933 10.3751 21.1514C10.4689 20.8673 10.0993 20.7446 9.86283 20.6625Z" fill="white"/>
<path d="M33.7577 20.7458L33.1883 20.7547C33.1577 20.7547 33.1455 20.7403 33.1505 20.7103L33.2809 19.9638C33.2848 19.9411 33.2981 19.9294 33.3215 19.9294L34.8072 19.9283C34.8382 19.9283 34.851 19.9433 34.8455 19.9738C34.7395 20.5649 34.6312 21.1765 34.5213 21.8092C34.5114 21.8669 34.462 21.923 34.4142 21.9546C33.9314 22.2809 33.3931 22.4213 32.7992 22.3764C31.9218 22.3092 31.3335 21.7631 31.2996 20.8713C31.2414 19.3456 32.3119 18.0014 33.9181 18.0802C34.331 18.1002 34.7006 18.2745 34.9831 18.573C35.0059 18.5969 35.0053 18.6341 34.982 18.6574L34.4137 19.2285C34.3865 19.2562 34.3421 19.2568 34.3138 19.2296C34.3132 19.229 34.3127 19.2285 34.3121 19.2279C34.1256 19.0342 33.9075 18.9249 33.6317 18.9415C32.7015 18.9965 32.267 19.9705 32.3591 20.7969C32.4285 21.419 33.0284 21.6033 33.569 21.4662C33.6406 21.4479 33.6844 21.4013 33.6994 21.3258C33.7349 21.1476 33.7655 20.9667 33.791 20.7836C33.7943 20.758 33.7832 20.7453 33.7577 20.7458Z" fill="white"/>
<path d="M21.3916 21.3585L20.2716 21.3557C20.2438 21.3557 20.2183 21.3723 20.2078 21.3979L19.8398 22.2636C19.8281 22.2914 19.801 22.3092 19.771 22.3092L18.8269 22.3108C18.8153 22.3108 18.8047 22.303 18.8009 22.2919C18.7964 22.2803 18.797 22.2692 18.802 22.2587C19.4602 20.9128 20.1195 19.5592 20.7794 18.1983C20.7922 18.1723 20.8183 18.1556 20.8477 18.1556L21.9915 18.1528C22.0076 18.1528 22.0165 18.1606 22.0181 18.1761L22.5698 22.2792C22.5726 22.3003 22.5637 22.3108 22.5437 22.3108H21.5342C21.5131 22.3114 21.502 22.3008 21.5003 22.2797L21.4371 21.4017C21.4354 21.3729 21.4199 21.3585 21.3916 21.3585ZM20.5724 20.5454C20.5685 20.5548 20.5724 20.5654 20.5818 20.5693C20.584 20.5704 20.5868 20.5709 20.5896 20.5709L21.3527 20.5654C21.3627 20.5654 21.371 20.557 21.371 20.5471C21.371 20.5471 21.371 20.5465 21.371 20.546L21.2639 18.9914C21.2634 18.9814 21.2545 18.9737 21.2445 18.9748C21.2378 18.9748 21.2317 18.9792 21.2289 18.9853L20.5724 20.5454Z" fill="white"/>
<path d="M24.374 20.8524H23.9777C23.9644 20.8529 23.9527 20.8623 23.9505 20.8757L23.7096 22.2648C23.7052 22.292 23.6819 22.3114 23.6541 22.312L22.7301 22.3159C22.6984 22.3159 22.6851 22.3003 22.6907 22.2692L23.4072 18.1884C23.4105 18.1679 23.4288 18.1529 23.4499 18.1529C24.0698 18.1495 24.6587 18.1529 25.2164 18.1618C25.8253 18.1717 26.4008 18.4903 26.3719 19.1802C26.3425 19.8844 26.0367 20.3756 25.4551 20.6537C25.4395 20.6609 25.4323 20.6792 25.4384 20.6953L26.0406 22.2515C26.05 22.2748 26.0384 22.3014 26.0151 22.3103C26.0101 22.3125 26.004 22.3136 25.9984 22.3136H24.9706C24.9434 22.3136 24.919 22.2959 24.9101 22.2698L24.435 20.8962C24.425 20.8668 24.4045 20.8524 24.374 20.8524ZM25.3147 19.5931C25.4529 19.2501 25.3174 18.9892 24.9423 18.9665C24.7464 18.9548 24.5388 18.9515 24.3201 18.9565C24.3029 18.9565 24.2879 18.9698 24.2846 18.987L24.1065 20.0115C24.1042 20.0243 24.1126 20.0371 24.1259 20.0393C24.127 20.0393 24.1275 20.0393 24.1287 20.0393C24.5804 20.0765 25.1138 20.0909 25.3147 19.5925V19.5931Z" fill="white"/>
<path d="M27.9423 18.185L27.2192 22.2919C27.2169 22.303 27.2075 22.3114 27.1958 22.3114L26.2241 22.313C26.2107 22.313 26.2002 22.3025 26.2002 22.2892C26.2002 22.2875 26.2002 22.2864 26.2002 22.2847L26.9295 18.1689C26.9311 18.1573 26.9411 18.1489 26.9528 18.1489L27.919 18.1573C27.9323 18.1573 27.9429 18.1684 27.9429 18.1811C27.9429 18.1822 27.9429 18.1833 27.9429 18.185H27.9423Z" fill="white"/>
<path d="M28.8841 19.5459C28.8497 19.3944 28.828 19.3966 28.8197 19.5515C28.7903 20.0737 28.7515 20.5943 28.6571 21.1254C28.5827 21.5444 28.5128 21.9301 28.4479 22.2831C28.4446 22.2998 28.4301 22.312 28.4129 22.312L27.5122 22.3147C27.5011 22.3147 27.4922 22.3059 27.4922 22.2948C27.4922 22.2942 27.4922 22.2931 27.4922 22.2926C27.4994 22.2126 27.5094 22.1338 27.5233 22.0567C27.7525 20.7619 27.9806 19.4693 28.207 18.179C28.2092 18.1651 28.2214 18.1545 28.2359 18.1545H29.2204C29.241 18.154 29.2543 18.1634 29.2604 18.1823C29.4341 18.7112 29.6156 19.2423 29.8048 19.7746C29.9469 20.1758 30.0463 20.5776 30.1489 20.9933C30.1506 20.9994 30.1539 21.0022 30.16 21.0016C30.165 21.0016 30.1695 21.0016 30.1745 21.0011C30.1795 21.0011 30.1822 20.9978 30.1828 20.9928C30.2083 20.4816 30.2288 20.1608 30.2444 20.0299C30.2971 19.5953 30.4014 18.9793 30.5574 18.1817C30.5613 18.1634 30.5724 18.154 30.5913 18.154L31.4704 18.1484C31.4964 18.1484 31.5175 18.1695 31.5175 18.1956C31.5175 18.1984 31.5175 18.2006 31.517 18.2034L30.8044 22.252C30.7983 22.287 30.7677 22.3125 30.7322 22.3125H29.7932C29.7743 22.3125 29.7577 22.3003 29.7516 22.2826C29.5368 21.6499 29.3287 21.0283 29.1283 20.4172C29.0278 20.1125 28.9468 19.8217 28.8841 19.5459Z" fill="white"/>
<path d="M15.4861 20.0599C15.4433 20.0832 15.4445 20.1038 15.49 20.121C15.7758 20.2286 15.9584 20.4334 15.9806 20.7431C16.0561 21.8048 15.1231 22.2982 14.2035 22.3065C13.638 22.3115 13.1046 22.3132 12.6035 22.311C12.5646 22.311 12.5485 22.2915 12.5552 22.2533L13.2728 18.1868C13.2761 18.1669 13.2883 18.1569 13.3088 18.1563C13.9832 18.1513 14.5481 18.1524 15.0049 18.1608C15.6087 18.1713 16.2597 18.4294 16.1099 19.1764C16.0294 19.5815 15.8213 19.8762 15.4861 20.0599ZM15.0554 19.4583C15.1747 19.2064 15.0698 18.9572 14.7707 18.9405C14.6125 18.9316 14.4194 18.9277 14.1918 18.9289C14.1702 18.9289 14.1574 18.9394 14.1535 18.961L14.012 19.7641C14.0098 19.7769 14.0148 19.7835 14.0276 19.7847C14.385 19.8168 14.8811 19.8252 15.0554 19.4583ZM15.0016 20.9346C15.0332 20.6732 14.7735 20.565 14.5637 20.5583C14.3567 20.5517 14.1358 20.5483 13.901 20.5489C13.8838 20.5489 13.8738 20.5578 13.8711 20.5744L13.7079 21.5001C13.7046 21.519 13.7173 21.5373 13.7362 21.5406C13.7384 21.5406 13.7401 21.5406 13.7423 21.5406C13.9321 21.5429 14.1191 21.5368 14.3034 21.5229C14.6791 21.4946 14.9516 21.3536 15.0016 20.934V20.9346Z" fill="white"/>
<path d="M17.2558 20.6232L17.1159 21.4235C17.1126 21.4401 17.1243 21.4568 17.1409 21.4595C17.1426 21.4595 17.1448 21.4595 17.1465 21.4595L18.7637 21.4579C18.7809 21.4579 18.7948 21.4717 18.7948 21.4889C18.7948 21.4906 18.7948 21.4928 18.7948 21.4945L18.6594 22.2826C18.6566 22.2976 18.6438 22.3081 18.6288 22.3081L15.9793 22.3109C15.9621 22.3109 15.9482 22.297 15.9482 22.2798C15.9482 22.2781 15.9482 22.2759 15.9482 22.2743L16.6686 18.1823C16.6714 18.1673 16.6842 18.1568 16.6991 18.1568L19.2882 18.1523C19.3054 18.1523 19.3193 18.1662 19.3193 18.1834C19.3193 18.1851 19.3193 18.1873 19.3193 18.189L19.1827 18.9632C19.18 18.9782 19.1672 18.9887 19.1522 18.9887L17.5683 18.9898C17.5533 18.9898 17.5405 19.0004 17.5377 19.0154L17.4162 19.7085C17.4129 19.7252 17.4245 19.7418 17.4412 19.7446C17.4428 19.7446 17.4451 19.7446 17.4467 19.7446H18.7598C18.777 19.7446 18.7909 19.7579 18.7909 19.7751C18.7909 19.7768 18.7909 19.7785 18.7909 19.7801L18.656 20.5721C18.6538 20.5871 18.6405 20.5982 18.6255 20.5982L17.2874 20.5971C17.2724 20.5971 17.2597 20.6076 17.2569 20.6226L17.2558 20.6232Z" fill="white"/>
<circle cx="20" cy="20" r="19.5" stroke="black" stroke-opacity="0.05"/>
</svg>
