<svg width="40" height="40" viewBox="0 0 40 40" fill="none" xmlns="http://www.w3.org/2000/svg">
<circle cx="20" cy="20" r="20" fill="#164194"/>
<g clip-path="url(#clip0_14382_19345)">
<path d="M21.6092 21.5263C21.6092 20.0779 19.2982 20.1375 19.2982 19.1318C19.2982 18.798 19.6379 18.6386 20.0715 18.6386C20.7733 18.6386 21.2278 19.0811 21.2278 19.0811V18.2154C21.2278 18.2154 20.8121 18.0023 20.1386 18.0023C18.7737 18.0023 18.3863 18.6907 18.3922 19.2614C18.3922 20.5503 20.7033 20.6859 20.7033 21.6201C20.7033 22.0776 20.2667 22.2325 19.7228 22.2325C18.9942 22.2325 18.2537 21.6618 18.2537 21.6618L18.4027 22.5991C18.4027 22.5991 18.9942 22.8732 19.6841 22.8732C20.9104 22.8732 21.6092 22.3681 21.6092 21.5248V21.5263Z" fill="white"/>
<path d="M27.5948 22.0507C27.5873 22.3487 27.717 22.5961 27.9449 22.6736V22.7525H26.6099V22.6736C26.8542 22.5827 26.9705 22.3696 26.969 22.0478V18.8174C26.969 18.503 26.8796 18.2973 26.6158 18.1826V18.1051H27.7497C27.7497 18.1051 27.7885 18.269 27.8943 18.4046L30.2381 21.4339V18.8442C30.2381 18.4612 30.1308 18.2869 29.9118 18.1796V18.1036H31.2349V18.1811C30.998 18.2795 30.8758 18.4821 30.8803 18.8084V22.9328C30.5689 22.8852 30.2068 22.7064 29.8999 22.3264L27.5933 19.3419V22.0507H27.5948Z" fill="white"/>
<path d="M35.9985 20.3729H34.8095V20.4504C34.9883 20.5339 35.0941 20.6784 35.0941 20.9749V22.1878C35.0941 22.1878 34.7737 22.3011 34.3267 22.3011C33.0766 22.3011 32.3837 21.4011 32.3837 20.4102C32.3837 19.4193 33.1317 18.6728 34.2269 18.6728C34.9644 18.6728 35.4532 19.1049 35.4532 19.1049V18.1871C35.4532 18.1871 34.884 18.0574 34.3565 18.0574C32.4999 18.0574 31.5031 19.0662 31.4882 20.5279C31.4763 21.7572 32.2436 22.9045 34.2984 22.9015C35.1179 22.9015 35.9702 22.7063 35.9702 22.7063C35.9702 22.7063 35.918 22.5633 35.918 22.4605V20.7261C35.918 20.4862 36 20.3729 36 20.3729H35.9985Z" fill="white"/>
<path d="M24.7324 18.1051V18.1752C24.874 18.2392 25.0096 18.3793 25.0066 18.7861V21.3683C25.0066 21.8049 24.6043 22.1729 24.0709 22.2251C23.3974 22.2891 22.9593 21.9286 22.9593 21.0763V18.646C22.9593 18.4165 23.0576 18.2512 23.22 18.1826V18.1051H21.8582V18.1826C22.0355 18.2556 22.1308 18.4568 22.1308 18.6803V21.2148C22.1308 22.3115 22.7984 22.8762 23.8563 22.8554C24.2824 22.8464 24.6907 22.687 25.0006 22.4098V22.7555H26.1271V22.6766C25.9215 22.5886 25.8261 22.4352 25.8261 22.0805V18.8203C25.8246 18.3897 25.9185 18.278 26.0988 18.1811V18.1036H24.7324V18.1051Z" fill="white"/>
<path d="M10.6618 20.7336C10.6618 20.8841 10.6618 22.0195 10.6618 22.0195C10.6618 22.4382 10.5933 22.5529 10.3966 22.6721V22.7526H11.766V22.6781C11.5931 22.5499 11.4873 22.4114 11.4933 22.0597V20.7291L13.1994 18.1052H11.8405V18.1826C12.1102 18.3153 12.1012 18.5954 11.9746 18.8055L11.1774 20.0258L10.191 18.3957C10.0807 18.208 9.95855 18.1052 9.66352 18.1052H8.78589C9.06602 18.2214 9.31187 18.4911 9.4728 18.7757L10.6618 20.7351V20.7336Z" fill="white"/>
<path d="M7.41069 20.5339V22.0612C7.41665 22.4352 7.32278 22.6021 7.11566 22.6751V22.7556H8.51928V22.6811C8.37474 22.6066 8.23021 22.5112 8.23021 22.0418V18.8114C8.23021 18.4181 8.31663 18.278 8.5163 18.1812V18.1052H7.11268V18.1826C7.32278 18.2795 7.41069 18.3972 7.41069 18.7846V19.917H5.11008V18.7846C5.1071 18.3972 5.1965 18.2795 5.40808 18.1826V18.1052H4.00149V18.1812C4.20264 18.278 4.28907 18.4181 4.28907 18.8114V22.0389C4.28907 22.5067 4.14602 22.6051 4 22.6766V22.7556H5.40212V22.6766C5.1965 22.6051 5.10412 22.4367 5.10859 22.0627V20.5339H7.4092H7.41069Z" fill="white"/>
<path d="M17.9215 20.3953C17.9215 21.8362 16.7548 22.8822 15.378 22.8822C14.0012 22.8822 12.8599 21.8779 12.8599 20.4311C12.8584 19.0886 13.9983 17.9651 15.4481 18.0008C16.8979 17.9949 17.9215 19.1243 17.9215 20.3968V20.3953ZM13.742 20.3715C13.742 21.3057 14.3901 22.2683 15.4138 22.2683C16.4374 22.2683 17.0394 21.5263 17.0394 20.5309C17.0394 19.5356 16.4315 18.6147 15.3989 18.6147C14.3663 18.6147 13.742 19.3627 13.742 20.3715Z" fill="white"/>
</g>
<circle cx="20" cy="20" r="19.5" stroke="black" stroke-opacity="0.05"/>
<defs>
<clipPath id="clip0_14382_19345">
<rect width="32" height="5" fill="white" transform="translate(4 18)"/>
</clipPath>
</defs>
</svg>
