<svg width="40" height="40" viewBox="0 0 40 40" fill="none" xmlns="http://www.w3.org/2000/svg">
<circle cx="20" cy="20" r="20" fill="#164194"/>
<g clip-path="url(#clip0_17671_18616)">
<path d="M21.6095 21.5264C21.6095 20.0781 19.2984 20.1377 19.2984 19.1319C19.2984 18.7981 19.6381 18.6387 20.0717 18.6387C20.7736 18.6387 21.228 19.0812 21.228 19.0812V18.2155C21.228 18.2155 20.8123 18.0024 20.1388 18.0024C18.7739 18.0024 18.3865 18.6908 18.3925 19.2615C18.3925 20.5504 20.7035 20.686 20.7035 21.6202C20.7035 22.0777 20.2669 22.2327 19.7231 22.2327C18.9945 22.2327 18.2539 21.662 18.2539 21.662L18.4029 22.5992C18.4029 22.5992 18.9945 22.8734 19.6843 22.8734C20.9106 22.8734 21.6095 22.3682 21.6095 21.5249V21.5264Z" fill="white"/>
<path d="M27.5948 22.0509C27.5873 22.3489 27.717 22.5962 27.9449 22.6737V22.7527H26.6099V22.6737C26.8542 22.5828 26.9705 22.3697 26.969 22.0479V18.8175C26.969 18.5031 26.8796 18.2975 26.6158 18.1827V18.1052H27.7497C27.7497 18.1052 27.7885 18.2692 27.8943 18.4047L30.2381 21.434V18.8443C30.2381 18.4614 30.1308 18.287 29.9118 18.1798V18.1038H31.2349V18.1812C30.998 18.2796 30.8758 18.4822 30.8803 18.8085V22.933C30.5689 22.8853 30.2068 22.7065 29.8999 22.3265L27.5933 19.342V22.0509H27.5948Z" fill="white"/>
<path d="M35.9988 20.3729H34.8097V20.4504C34.9885 20.5338 35.0943 20.6783 35.0943 20.9749V22.1878C35.0943 22.1878 34.7739 22.301 34.3269 22.301C33.0768 22.301 32.3839 21.401 32.3839 20.4101C32.3839 19.4193 33.1319 18.6728 34.2271 18.6728C34.9647 18.6728 35.4534 19.1049 35.4534 19.1049V18.187C35.4534 18.187 34.8842 18.0574 34.3567 18.0574C32.5002 18.0574 31.5033 19.0661 31.4884 20.5279C31.4765 21.7571 32.2439 22.9045 34.2986 22.9015C35.1181 22.9015 35.9704 22.7063 35.9704 22.7063C35.9704 22.7063 35.9183 22.5632 35.9183 22.4604V20.726C35.9183 20.4861 36.0002 20.3729 36.0002 20.3729H35.9988Z" fill="white"/>
<path d="M24.7327 18.1052V18.1753C24.8742 18.2394 25.0098 18.3794 25.0068 18.7862V21.3684C25.0068 21.805 24.6045 22.173 24.0711 22.2252C23.3976 22.2893 22.9595 21.9287 22.9595 21.0764V18.6461C22.9595 18.4167 23.0579 18.2513 23.2203 18.1827V18.1052H21.8584V18.1827C22.0357 18.2557 22.1311 18.4569 22.1311 18.6804V21.215C22.1311 22.3116 22.7986 22.8763 23.8565 22.8555C24.2827 22.8465 24.691 22.6871 25.0009 22.41V22.7557H26.1274V22.6767C25.9217 22.5888 25.8264 22.4353 25.8264 22.0807V18.8205C25.8249 18.3898 25.9187 18.2781 26.099 18.1812V18.1038H24.7327V18.1052Z" fill="white"/>
<path d="M10.6621 20.7336C10.6621 20.8841 10.6621 22.0195 10.6621 22.0195C10.6621 22.4382 10.5935 22.553 10.3969 22.6722V22.7526H11.7662V22.6781C11.5934 22.55 11.4876 22.4114 11.4935 22.0598V20.7292L13.1996 18.1052H11.8407V18.1827C12.1104 18.3153 12.1015 18.5954 11.9748 18.8055L11.1776 20.0259L10.1912 18.3958C10.081 18.208 9.95879 18.1052 9.66376 18.1052H8.78613C9.06626 18.2214 9.31212 18.4911 9.47304 18.7757L10.6621 20.7351V20.7336Z" fill="white"/>
<path d="M7.41069 20.534V22.0613C7.41665 22.4353 7.32278 22.6022 7.11566 22.6752V22.7556H8.51928V22.6811C8.37474 22.6066 8.23021 22.5113 8.23021 22.0419V18.8115C8.23021 18.4181 8.31663 18.2781 8.5163 18.1812V18.1052H7.11268V18.1827C7.32278 18.2796 7.41069 18.3973 7.41069 18.7847V19.9171H5.11008V18.7847C5.1071 18.3973 5.1965 18.2796 5.40808 18.1827V18.1052H4.00149V18.1812C4.20264 18.2781 4.28907 18.4181 4.28907 18.8115V22.0389C4.28907 22.5068 4.14602 22.6051 4 22.6767V22.7556H5.40212V22.6767C5.1965 22.6051 5.10412 22.4368 5.10859 22.0628V20.534H7.4092H7.41069Z" fill="white"/>
<path d="M17.9215 20.3953C17.9215 21.8362 16.7548 22.8822 15.378 22.8822C14.0012 22.8822 12.8599 21.8779 12.8599 20.4311C12.8584 19.0886 13.9983 17.9651 15.4481 18.0008C16.8979 17.9949 17.9215 19.1243 17.9215 20.3968V20.3953ZM13.742 20.3715C13.742 21.3057 14.3901 22.2683 15.4138 22.2683C16.4374 22.2683 17.0394 21.5263 17.0394 20.5309C17.0394 19.5356 16.4315 18.6147 15.3989 18.6147C14.3663 18.6147 13.742 19.3627 13.742 20.3715Z" fill="white"/>
</g>
<circle cx="20" cy="20" r="19.5" stroke="black" stroke-opacity="0.05"/>
<defs>
<clipPath id="clip0_17671_18616">
<rect width="32" height="5" fill="white" transform="translate(4 18)"/>
</clipPath>
</defs>
</svg>
