<svg width="40" height="40" viewBox="0 0 40 40" fill="none" xmlns="http://www.w3.org/2000/svg">
<circle cx="20" cy="20" r="20" fill="#1E4571"/>
<g clip-path="url(#clip0_18695_28978)">
<path d="M27.3488 19.5166C27.3553 19.6493 27.414 19.6758 27.5183 19.5962C27.8377 19.364 28.1375 19.1318 28.4112 18.9063C29.3498 18.1433 30.3731 17.9111 31.592 18.2097C32.1265 18.3424 32.5827 18.548 32.9673 18.8267C33.0194 18.8598 33.0194 18.8996 32.9673 18.9395C30.0081 21.1752 27.0751 23.4242 24.155 25.6865C23.8096 25.9518 23.425 26.1243 23.047 26.3234C22.7993 26.456 22.5386 26.5555 22.2648 26.6153C21.8803 26.7015 21.5218 26.8806 21.1242 26.8939C20.87 26.9005 20.6158 26.9271 20.3616 26.9669C20.127 27.0067 19.8662 27.0133 19.586 26.9868C17.0114 26.7612 15.0365 25.5272 13.6742 23.2849C12.9833 22.1504 12.6509 20.7373 12.677 19.4038C12.677 19.3707 12.6509 19.3508 12.6248 19.3508C12.6118 19.3508 12.6053 19.3508 12.5922 19.364C11.9404 19.8284 11.3082 20.4521 10.5782 20.7241C9.39846 21.1553 8.11442 20.8634 7.05852 20.2199C6.99334 20.1801 6.99334 20.1402 7.052 20.0938C9.88078 17.9443 12.7161 15.7683 15.5579 13.5724C15.962 13.2605 16.3466 13.0084 16.7181 12.8293C17.1939 12.5905 17.6567 12.4114 18.1064 12.2787C18.6344 12.1261 19.1428 12.1062 19.6772 12.0332C19.8793 12.0067 20.0944 12.0067 20.3225 12.0199C20.8896 12.0664 21.3458 12.1261 21.6913 12.2123C22.9362 12.5042 24.0573 13.1146 25.048 14.0567C26.1104 15.0651 26.8144 16.2924 27.1533 17.7519C27.2315 18.077 27.2967 18.4352 27.3553 18.8333C27.3944 19.0854 27.3423 19.2844 27.3553 19.5299L27.3488 19.5166ZM24.5917 19.4967C24.5917 16.9226 22.5386 14.8329 20.0096 14.8329C17.4807 14.8329 15.4275 16.9226 15.4275 19.4967C15.4275 22.0708 17.4807 24.1606 20.0096 24.1606C22.5386 24.1606 24.5917 22.0708 24.5917 19.4967Z" fill="white"/>
<path d="M20.0035 21.2944C20.9754 21.2944 21.7633 20.4924 21.7633 19.5032C21.7633 18.5139 20.9754 17.7119 20.0035 17.7119C19.0316 17.7119 18.2437 18.5139 18.2437 19.5032C18.2437 20.4924 19.0316 21.2944 20.0035 21.2944Z" fill="#8DC166"/>
</g>
<circle cx="20" cy="20" r="19.5" stroke="black" stroke-opacity="0.05"/>
<defs>
<clipPath id="clip0_18695_28978">
<rect width="26" height="15" fill="white" transform="translate(7 12)"/>
</clipPath>
</defs>
</svg>
