<svg width="40" height="40" viewBox="0 0 40 40" fill="none" xmlns="http://www.w3.org/2000/svg">
<circle cx="20" cy="20" r="20" fill="#F8A81F"/>
<path d="M28.4131 15.6228C28.2522 15.6228 28.0994 15.6596 27.9633 15.725C27.8726 15.7689 27.7895 15.8253 27.7155 15.8921C27.6911 15.9146 27.6673 15.938 27.6453 15.9623C27.6229 15.9867 27.6018 16.0125 27.5818 16.0392C27.5617 16.0659 27.5431 16.0936 27.5259 16.1218C27.5001 16.1648 27.4767 16.2092 27.4572 16.256C27.4376 16.3023 27.4209 16.351 27.4084 16.4007C27.3999 16.4336 27.3932 16.4675 27.3879 16.5019C27.3803 16.5535 27.376 16.606 27.376 16.66C27.376 17.233 27.8401 17.6971 28.4131 17.6971C28.9862 17.6971 29.4503 17.233 29.4503 16.66C29.4503 16.0869 28.9862 15.6228 28.4131 15.6228Z" fill="white"/>
<path d="M28.753 18.7061H28.0768C28.0681 18.7061 28.061 18.7131 28.061 18.7218V24.2495C28.061 24.2583 28.0681 24.2653 28.0768 24.2653H28.753C28.7617 24.2653 28.7687 24.2583 28.7687 24.2495V18.7218C28.7687 18.7131 28.7617 18.7061 28.753 18.7061Z" fill="white"/>
<path d="M21.3511 15.0282C21.3511 15.0096 21.3421 15.0005 21.3234 15.0005L19.7367 15.0034C19.7304 15.0024 19.7233 15.0029 19.7152 15.0043C19.6989 15.0077 19.6908 15.0172 19.6908 15.0339L19.686 24.2147C19.686 24.2194 19.6884 24.2218 19.6932 24.2218L21.3211 24.2209C21.3378 24.2209 21.3473 24.2127 21.3497 24.196C21.3516 24.1827 21.3473 24.1702 21.3368 24.1588L21.3511 15.0282Z" fill="white"/>
<path d="M11.8978 17.5704L11.712 17.5618L10.2752 17.5661C10.2656 17.5661 10.2575 17.5742 10.2575 17.5838L10.2551 18.2886C10.225 18.2795 10.2007 18.2652 10.1816 18.2461C9.6711 17.7346 9.0532 17.4543 8.32832 17.4052C7.58006 17.3541 6.86665 17.5656 6.2793 18.0403C5.24309 18.8778 4.8945 20.1089 5.02677 21.4101C5.11702 22.3016 5.50142 23.0513 6.17902 23.6587C6.81173 24.2255 7.56239 24.4781 8.43051 24.417C9.10286 24.3697 9.71026 24.0684 10.1897 23.5947L10.2618 23.6129L10.2637 24.2375C10.2637 24.2518 10.2709 24.259 10.2852 24.259L11.9054 24.2604C11.914 24.2604 11.9207 24.2537 11.9207 24.2451V17.5947C11.9207 17.579 11.913 17.5709 11.8978 17.5704ZM10.0698 21.9903C9.43616 23.1005 7.91814 23.2347 7.10397 22.2472C6.74249 21.8079 6.64174 21.3098 6.66179 20.7545C6.68185 20.1962 6.91249 19.6953 7.33891 19.3291C7.53183 19.1634 7.76629 19.0497 8.04182 18.9881C8.59621 18.8635 9.10238 18.9552 9.55936 19.2627C9.76899 19.4289 9.94233 19.6247 10.0794 19.8505C10.4275 20.4555 10.4165 21.3838 10.0698 21.9903Z" fill="white"/>
<path d="M19.0915 19.7785C18.8528 18.8674 18.1885 18.0351 17.308 17.6493C16.4795 17.2864 15.46 17.326 14.6707 17.7982C14.4372 17.9277 14.2271 18.0862 14.0404 18.2748C14.0179 18.2973 14.0069 18.2925 14.0069 18.261V15.0253C14.0064 15.0096 13.9988 15.0019 13.9835 15.0019L12.3714 15C12.3714 15 12.3714 15 12.371 15C12.3695 15 12.3681 15.0005 12.3667 15.001C12.3652 15.001 12.3638 15.001 12.3624 15.0019C12.3609 15.0024 12.36 15.0033 12.3585 15.0043C12.3571 15.0053 12.3562 15.0057 12.3552 15.0067C12.3542 15.0076 12.3533 15.0091 12.3528 15.01C12.3519 15.011 12.3509 15.0124 12.3504 15.0134C12.3499 15.0148 12.3499 15.0162 12.3495 15.0177C12.3495 15.0191 12.3485 15.0201 12.3485 15.0215C12.3485 15.0215 12.3485 15.0215 12.3485 15.022L12.359 22.2621V24.2099C12.3595 24.2189 12.3638 24.2237 12.3729 24.2232C12.9024 24.2209 13.4377 24.2204 13.9778 24.2223C13.9878 24.2223 13.9959 24.2185 14.0022 24.2103C14.0107 24.1994 14.0088 24.1836 13.9964 24.1631L14.08 23.5858C14.5064 23.9979 15.0078 24.2548 15.5851 24.3569C15.6448 24.3674 15.7031 24.3737 15.7599 24.3756C15.8267 24.3971 15.8879 24.4014 15.9428 24.3875C16.8209 24.4209 17.5826 24.1153 18.2272 23.4702C18.7401 22.9573 19.0562 22.3423 19.1756 21.6246C19.2792 21.0024 19.251 20.3869 19.0915 19.778V19.7785ZM13.9998 23.5667V23.5657C13.9998 23.5647 14.0007 23.5647 14.0012 23.5638C14.0002 23.5647 13.9998 23.5657 13.9993 23.5667H13.9998ZM17.2001 22.1537C16.8052 22.6756 16.2828 22.9172 15.6319 22.879C15.3048 22.8599 15.0183 22.7668 14.7724 22.5992C14.122 22.157 13.8804 21.4718 13.9277 20.7092C13.952 20.3162 14.0805 19.9514 14.314 19.6157C14.5484 19.3382 14.8144 19.1472 15.1109 19.0422C15.4438 18.9242 15.8048 18.9042 16.1944 18.9815C16.5846 19.0594 16.9183 19.2762 17.1953 19.631C17.4116 19.9208 17.5372 20.2427 17.5711 20.5955C17.6251 21.1528 17.541 21.7029 17.2001 22.1537Z" fill="white"/>
<path d="M27.5689 21.2064C27.4634 19.7934 26.3269 18.6063 24.8929 18.5318C23.9565 18.4826 23.1371 18.8465 22.535 19.578C22.5287 19.5857 22.5202 19.5881 22.5096 19.5847C22.502 19.5823 22.4968 19.5752 22.4968 19.5675V16.5673C22.4968 16.541 22.4757 16.5195 22.4495 16.5195H21.7996C21.781 16.5195 21.7714 16.5291 21.7714 16.5477V24.2076C21.7709 24.2123 21.7714 24.2166 21.7738 24.2209C21.7771 24.229 21.7838 24.2357 21.7919 24.2391C21.7958 24.241 21.8005 24.2419 21.8053 24.2419H22.449V24.2424C22.4619 24.2424 22.4738 24.2372 22.482 24.2286C22.4901 24.22 22.4958 24.2085 22.4958 24.1956V23.3122C22.4958 23.2544 22.5135 23.2482 22.5488 23.2945C23.1476 24.0796 23.9346 24.4411 24.9101 24.3795C25.6799 24.3308 26.3288 23.985 26.836 23.4244C27.3899 22.8127 27.6344 22.0735 27.5694 21.2064H27.5689ZM24.7444 23.7C23.5253 23.7573 22.4891 22.7917 22.4304 21.543C22.3716 20.2943 23.3119 19.2356 24.5315 19.1779C25.7506 19.1206 26.7868 20.0861 26.8455 21.3348C26.9042 22.5835 25.964 23.6422 24.7444 23.7Z" fill="white"/>
<path d="M34.5091 19.8067C33.9628 18.9796 33.1062 18.5226 32.1158 18.5159C31.2023 18.5102 30.4531 18.8555 29.8676 19.5512C29.4832 20.0077 29.2583 20.543 29.2005 21.1318C29.117 21.9808 29.3424 22.7248 29.8762 23.3642C30.4201 24.015 31.1264 24.3512 31.995 24.3727C32.5265 24.3856 32.9906 24.2934 33.3865 24.0952C34.9608 23.3078 35.4808 21.2774 34.5091 19.8067ZM32.1335 23.7051C30.9277 23.728 29.9307 22.7434 29.9073 21.5052C29.8834 20.267 30.8418 19.2446 32.0475 19.2212C33.2532 19.1983 34.2503 20.183 34.2737 21.4212C34.2976 22.6594 33.3392 23.6817 32.1335 23.7051Z" fill="white"/>
<circle cx="20" cy="20" r="19.5" stroke="black" stroke-opacity="0.05"/>
</svg>
