<svg width="40" height="40" viewBox="0 0 40 40" fill="none" xmlns="http://www.w3.org/2000/svg">
<circle cx="20" cy="20" r="20" fill="#041A41"/>
<path d="M8.75534 20.699C8.75534 20.7378 8.76945 20.7407 8.79001 20.7078C9.13199 20.1594 9.50158 19.6088 9.8988 19.0561C10.437 18.3028 10.9753 17.5483 11.5135 16.7927C11.7203 16.4989 12.1328 15.9971 12.4865 16C12.8403 16.003 13.2105 16 13.5959 16C13.9197 16 14.1594 16.4854 14.2493 16.7351C14.737 18.0936 15.1967 19.4174 15.6284 20.7066C15.6394 20.7395 15.6505 20.7395 15.6619 20.7066C15.828 20.2338 16.0193 19.7596 16.236 19.2841C16.7335 18.1911 17.218 17.1164 17.6897 16.0599C17.6938 16.0498 17.701 16.0411 17.7103 16.0352C17.7195 16.0293 17.7304 16.0265 17.7414 16.027H19.993C20.0183 16.027 20.0259 16.0388 20.0148 16.0617C18.9829 18.2464 17.9208 20.4925 16.8283 22.8002C16.7293 23.0175 16.5853 23.2113 16.4057 23.3687C16.226 23.526 16.0149 23.6433 15.7865 23.7127C15.5761 23.7809 15.3164 23.7627 15.0978 23.7515C14.6712 23.7292 14.3521 23.3472 14.1964 22.9536C13.7796 21.901 13.3732 20.857 12.9772 19.8217C12.8326 19.4453 12.6897 19.0277 12.5482 18.569C12.5469 18.5647 12.5439 18.5611 12.54 18.559C12.536 18.557 12.5314 18.5565 12.5271 18.5578C12.5232 18.5589 12.5198 18.5614 12.5177 18.5648C12.3003 18.9088 12.0598 19.26 11.7961 19.6184C10.9978 20.7027 10.1912 21.7933 9.37643 22.8901C9.07558 23.2938 8.64958 23.738 8.11252 23.755C7.91391 23.7609 7.68299 23.7821 7.49261 23.721C6.92441 23.537 6.77869 23.1392 6.7164 22.5646C6.48137 20.3776 6.24261 18.2074 6.00013 16.0541C5.99946 16.0475 6.00136 16.041 6.00541 16.0359C6.00947 16.0307 6.01537 16.0273 6.02187 16.0265H8.32699C8.32986 16.0262 8.33276 16.0266 8.33549 16.0275C8.33822 16.0284 8.34074 16.0299 8.34289 16.0318C8.34503 16.0337 8.34676 16.0361 8.34797 16.0387C8.34918 16.0413 8.34984 16.0441 8.34991 16.047C8.51835 17.6319 8.6535 19.1826 8.75534 20.699Z" fill="white"/>
<path d="M22.4649 18.9436C22.6095 19.0242 22.773 19.0648 22.9385 19.0611C24.2935 19.0611 25.7491 19.0611 27.3055 19.0611C28.2809 19.0611 29.5753 19.3719 29.6893 20.5565C29.771 21.4038 29.5072 22.2605 28.8814 22.8117C28.074 23.5203 26.9094 23.6496 25.8847 23.6496C23.4434 23.6496 21.1152 23.6496 18.9 23.6496C18.8932 23.6496 18.8866 23.647 18.8817 23.6423C18.8768 23.6376 18.8738 23.6311 18.8735 23.6243C18.8735 23.6173 18.8763 23.6106 18.8812 23.6055L20.681 21.7082C20.6886 21.7002 20.6977 21.6939 20.7078 21.6896C20.7179 21.6852 20.7287 21.683 20.7397 21.6829C22.6568 21.6806 24.5718 21.6806 26.4846 21.6829C26.91 21.6829 27.3719 21.5901 27.3912 21.0677C27.4065 20.6447 26.9911 20.58 26.6709 20.5806C25.1866 20.5806 23.7176 20.579 22.2639 20.5759C21.7727 20.5759 21.1669 20.4584 20.7485 20.1781C20.2393 19.8365 19.9933 19.3314 20.0105 18.6627C20.0693 16.5832 21.9566 16.0186 23.6671 16.0186C25.9109 16.0225 28.1302 16.0225 30.3251 16.0186C30.3275 16.0186 30.3298 16.0192 30.332 16.0202C30.3342 16.0211 30.3362 16.0226 30.3378 16.0243C30.3394 16.026 30.3407 16.0281 30.3416 16.0303C30.3424 16.0326 30.3428 16.035 30.3427 16.0374C30.3426 16.0417 30.3409 16.0459 30.338 16.0491L28.5353 17.9676C28.5227 17.981 28.5075 17.9916 28.4906 17.9989C28.4737 18.0062 28.4555 18.0099 28.4372 18.0099C26.6141 18.0025 24.8339 18.0036 23.0965 18.0134C22.9062 18.0134 22.6359 18.0563 22.4837 18.1756C22.2816 18.3325 22.1911 18.7873 22.4649 18.9436Z" fill="white"/>
<path d="M33.9996 16.0743L32.6728 23.6172C32.671 23.6272 32.6657 23.6363 32.6579 23.6429C32.65 23.6494 32.6401 23.653 32.6299 23.653H30.3489C30.3373 23.653 30.3263 23.6484 30.3181 23.6403C30.31 23.6321 30.3054 23.6211 30.3054 23.6095C30.3051 23.607 30.3051 23.6044 30.3054 23.6019L31.648 16.0607C31.6498 16.0507 31.6551 16.0416 31.663 16.035C31.6708 16.0285 31.6807 16.0249 31.6909 16.0249H33.9567C33.9682 16.0249 33.9793 16.0295 33.9874 16.0376C33.9956 16.0458 34.0002 16.0569 34.0002 16.0684C34.0001 16.0704 33.9999 16.0723 33.9996 16.0743Z" fill="white"/>
<circle cx="20" cy="20" r="19.5" stroke="black" stroke-opacity="0.05"/>
</svg>
