<svg width="40" height="40" viewBox="0 0 40 40" fill="none" xmlns="http://www.w3.org/2000/svg">
<circle cx="20" cy="20" r="20" fill="#603971"/>
<path d="M10.5546 17.5934C10.5539 17.608 10.5474 17.6217 10.5367 17.6316C10.526 17.6414 10.5119 17.6467 10.4973 17.6463H10.4914L10.4598 17.6412C10.4495 17.6397 10.4401 17.6347 10.433 17.6271C10.4259 17.6195 10.4216 17.6097 10.4209 17.5993C10.3827 17.0717 10.3048 16.6147 9.79997 16.3347C9.45642 16.1389 9.08067 16.006 8.69041 15.9423C7.89755 15.8211 6.90776 15.8916 6.22659 16.273C5.17729 16.8608 4.89365 17.9586 4.90394 19.1233C4.91496 20.4526 5.57629 21.6062 6.7461 22.2382C7.47724 22.6328 8.25687 22.7312 9.08059 22.6364C9.69342 22.563 10.1938 22.3425 10.4113 21.7098C10.462 21.5629 10.5083 21.4115 10.5502 21.2609C10.5524 21.2532 10.5574 21.2466 10.5642 21.2424C10.571 21.2382 10.5791 21.2367 10.587 21.2381L10.6112 21.2425C10.6318 21.2468 10.6501 21.2585 10.6626 21.2755C10.6751 21.2924 10.6809 21.3134 10.6788 21.3343C10.6321 21.7799 10.5555 22.2217 10.4495 22.657C10.4047 22.8414 10.2401 22.9149 10.0733 22.9583C9.15971 23.1939 8.16992 23.2088 7.10396 23.0031C5.19713 22.6357 3.9384 21.1021 4.00233 19.1373C4.01999 18.3546 4.28235 17.597 4.75257 16.9711C5.44182 16.0401 6.42205 15.6124 7.55733 15.5463C8.17873 15.5035 8.80295 15.5297 9.4186 15.6241C9.82226 15.6908 10.2159 15.7481 10.5994 15.7961C10.6105 15.7976 10.6206 15.8031 10.6276 15.8117C10.6347 15.8203 10.6383 15.8313 10.6377 15.8424L10.5546 17.5934Z" fill="white"/>
<path d="M13.3813 20.1637C13.3813 20.8299 13.3813 21.514 13.3813 22.216C13.3813 22.5717 13.6606 22.6569 13.9567 22.6738C14.2344 22.6899 14.5129 22.6857 14.79 22.6613C15.2308 22.6216 15.3896 22.4629 15.4711 22.036C15.4736 22.0183 15.4824 22.0022 15.496 21.9906C15.5095 21.9789 15.5268 21.9726 15.5446 21.9728H15.5637C15.5953 21.9728 15.6093 21.9845 15.6071 22.0161C15.5873 22.288 15.5485 22.558 15.491 22.8244C15.4439 23.0258 15.283 22.9898 15.1236 22.9942C14.6944 23.0054 14.2876 23.0015 13.903 22.9824C13.3314 22.9545 12.7707 22.9758 12.1968 22.9743C12.1778 22.9749 12.159 22.9703 12.1423 22.9612C12.1256 22.952 12.1117 22.9385 12.102 22.9222L12.0888 22.9009C12.0869 22.898 12.0856 22.8947 12.085 22.8914C12.0844 22.888 12.0845 22.8845 12.0852 22.8811C12.086 22.8778 12.0874 22.8746 12.0894 22.8718C12.0914 22.869 12.0939 22.8666 12.0969 22.8648C12.0995 22.863 12.1025 22.8618 12.1057 22.8612L12.4518 22.7936C12.4648 22.7913 12.4771 22.786 12.4877 22.778C12.4983 22.7701 12.5069 22.7598 12.5128 22.748C12.6597 22.4754 12.6414 22.0044 12.6458 21.709C12.6624 20.5 12.6649 19.1805 12.6531 17.7506C12.6531 17.3913 12.2703 17.4508 12.0285 17.4184C12.0207 17.4174 12.0135 17.4135 12.0082 17.4076C12.0029 17.4017 12 17.394 11.9999 17.3861V17.3611C11.999 17.3541 11.9997 17.3469 12.0021 17.3402C12.0045 17.3334 12.0084 17.3274 12.0135 17.3224C12.0187 17.3175 12.0249 17.3138 12.0317 17.3118C12.0386 17.3097 12.0458 17.3092 12.0528 17.3104C13.0619 17.3334 14.0172 17.3398 14.9185 17.3295C15.0761 17.3263 15.2327 17.3031 15.3844 17.2605C15.4189 17.2516 15.4344 17.2649 15.43 17.3001L15.3264 18.201C15.3254 18.2096 15.3227 18.218 15.3184 18.2255C15.3142 18.2331 15.3085 18.2397 15.3016 18.2451C15.2948 18.2504 15.287 18.2543 15.2786 18.2566C15.2702 18.2589 15.2615 18.2595 15.2529 18.2583C15.2372 18.2561 15.2227 18.2489 15.2114 18.2378C15.2002 18.2267 15.1928 18.2122 15.1904 18.1966C15.1236 17.8777 15.1581 17.7131 14.7598 17.6639C14.316 17.6121 13.8689 17.5957 13.4225 17.6146C13.4175 17.6142 13.4124 17.6148 13.4077 17.6165C13.403 17.6183 13.3987 17.621 13.3952 17.6246C13.3917 17.6282 13.389 17.6325 13.3874 17.6373C13.3857 17.6421 13.3852 17.6471 13.3857 17.6521L13.3901 19.7559C13.3892 19.7636 13.39 19.7714 13.3925 19.7788C13.3951 19.7862 13.3993 19.7928 13.4048 19.7983C13.4104 19.8038 13.4171 19.8079 13.4245 19.8104C13.4319 19.8128 13.4397 19.8135 13.4475 19.8124C13.8026 19.8124 14.173 19.8107 14.5585 19.8073C14.79 19.8073 14.9994 19.8293 15.1698 19.6603C15.2705 19.5597 15.308 19.5795 15.2837 19.7191C15.2352 20.002 15.2079 20.2882 15.2022 20.5752C15.2017 20.6208 15.1867 20.665 15.1596 20.7016C15.1527 20.7107 15.1425 20.7167 15.1312 20.7183C15.12 20.72 15.1085 20.7171 15.0993 20.7104C15.0912 20.7045 15.0855 20.6959 15.0831 20.6861C15.0258 20.4466 15.0743 20.196 14.7356 20.1644C14.3696 20.1306 13.9349 20.1137 13.4313 20.1137C13.4244 20.1117 13.417 20.1116 13.41 20.1135C13.4031 20.1153 13.3967 20.1189 13.3916 20.124C13.3865 20.1291 13.3829 20.1355 13.3811 20.1424C13.3793 20.1494 13.3793 20.1568 13.3813 20.1637Z" fill="white"/>
<path d="M18.855 17.4341C18.5655 17.4136 18.3267 17.4819 18.3245 17.8148C18.3193 18.6906 18.3245 19.5349 18.3032 20.4123C18.2909 20.9237 18.2909 21.4114 18.3032 21.8753C18.3193 22.3713 18.3767 22.6101 18.938 22.6579C19.2856 22.684 19.6346 22.684 19.9822 22.6579C20.415 22.6263 20.5429 22.3566 20.659 21.9914C20.6622 21.9782 20.6699 21.9665 20.6807 21.9584C20.6916 21.9502 20.7049 21.946 20.7185 21.9466C20.7272 21.9461 20.7358 21.9478 20.7436 21.9515C20.7515 21.9552 20.7582 21.9609 20.7633 21.9679C20.7738 21.981 20.779 21.9975 20.778 22.0142C20.7658 22.3052 20.7205 22.5939 20.6428 22.8747C20.6317 22.9134 20.6085 22.9477 20.5767 22.9725C20.5449 22.9973 20.506 23.0114 20.4657 23.0128C19.9705 23.0304 19.4867 23.0265 19.0145 23.001C18.4038 22.968 17.7815 23.001 17.1774 23.001C17.1449 23.0039 17.1122 23.0039 17.0797 23.001C16.9688 22.9371 16.9754 22.893 17.101 22.8673L17.3465 22.8181C17.3695 22.8133 17.3911 22.8031 17.4094 22.7883C17.4277 22.7734 17.4421 22.7544 17.4515 22.7328C17.4897 22.6414 17.5131 22.5444 17.5206 22.4455C17.55 22.0536 17.5654 21.695 17.5669 21.3698C17.5703 20.2431 17.5703 19.0639 17.5669 17.8324C17.5669 17.4143 17.273 17.4437 16.9636 17.4297C16.9577 17.4301 16.9517 17.4293 16.9461 17.4272C16.9406 17.4252 16.9355 17.422 16.9312 17.4178C16.927 17.4136 16.9237 17.4086 16.9216 17.4031C16.9194 17.3975 16.9185 17.3916 16.9188 17.3856V17.3665C16.9181 17.3576 16.9209 17.3488 16.9265 17.3419C16.9321 17.3349 16.9401 17.3303 16.9489 17.329C17.0733 17.3123 17.199 17.3069 17.3244 17.3129C17.8275 17.3364 18.3235 17.3364 18.8124 17.3129C18.8337 17.3121 18.8548 17.318 18.8727 17.3298C18.9461 17.379 18.9586 17.4113 18.9065 17.4282C18.8898 17.4332 18.8724 17.4352 18.855 17.4341Z" fill="white"/>
<path d="M23.3365 17.4634C23.3012 17.4711 23.2687 17.4885 23.2427 17.5137C23.2168 17.5389 23.1984 17.5709 23.1896 17.606C23.1534 17.7553 23.1364 17.9086 23.1389 18.0623C23.1455 18.7236 23.1617 19.3636 23.1345 20.0323C23.1025 20.7387 23.1074 21.4463 23.1492 22.1522C23.1658 22.4285 23.315 22.5882 23.5967 22.6313C24.0021 22.687 24.4126 22.6959 24.8201 22.6578C25.1956 22.6284 25.4021 22.3874 25.4601 22.017C25.4636 21.9963 25.4747 21.9777 25.4914 21.9649C25.508 21.952 25.5289 21.946 25.5498 21.948H25.577C25.5856 21.9487 25.5935 21.9527 25.5993 21.9591C25.605 21.9655 25.6081 21.9739 25.6078 21.9825C25.5946 22.2836 25.549 22.5824 25.4719 22.8738C25.4639 22.9045 25.4474 22.9323 25.4242 22.954C25.4011 22.9758 25.3723 22.9905 25.3411 22.9965C25.2597 23.0122 25.1771 23.0203 25.0942 23.0208C24.6582 23.0242 24.1987 23.0151 23.7157 22.9936C23.1066 22.9664 22.5025 23.0105 21.8941 22.984C21.8837 22.9835 21.8735 22.9805 21.8644 22.9753C21.8553 22.97 21.8476 22.9627 21.8419 22.9539C21.8352 22.9457 21.8319 22.9352 21.8329 22.9246C21.8339 22.914 21.839 22.9042 21.8471 22.8973C21.8591 22.8862 21.8738 22.8784 21.8897 22.8745L22.2101 22.8011C22.223 22.7992 22.2352 22.7939 22.2454 22.7858C22.2556 22.7777 22.2634 22.767 22.2681 22.7548C22.3082 22.6663 22.3331 22.5716 22.3416 22.4748C22.3688 22.1919 22.3842 21.9171 22.3872 21.6518C22.3994 20.4898 22.3994 19.3208 22.3872 18.1446C22.3874 17.9682 22.3687 17.7923 22.3313 17.6199C22.285 17.4179 21.9375 17.4274 21.781 17.4377C21.7735 17.4381 21.7661 17.437 21.7591 17.4345C21.7521 17.4321 21.7456 17.4282 21.7401 17.4232C21.7345 17.4182 21.73 17.4122 21.7268 17.4055C21.7236 17.3988 21.7218 17.3915 21.7214 17.3841V17.3789V17.3466C21.7222 17.3346 21.7274 17.3233 21.7362 17.3149C21.7449 17.3066 21.7564 17.3019 21.7685 17.3018H23.6826C23.6954 17.3018 23.7078 17.3054 23.7186 17.3122C23.7293 17.3189 23.738 17.3286 23.7436 17.34L23.7561 17.3657C23.7592 17.3725 23.7596 17.3803 23.7571 17.3874C23.7547 17.3945 23.7496 17.4004 23.7429 17.4039C23.7391 17.405 23.735 17.405 23.7311 17.4039C23.598 17.4105 23.4658 17.4305 23.3365 17.4634Z" fill="white"/>
<path d="M26.6969 17.3897C26.6913 17.3884 26.6864 17.3851 26.6832 17.3803C26.6801 17.3754 26.6789 17.3696 26.68 17.364C26.6797 17.3625 26.6797 17.361 26.68 17.3595L26.6881 17.3412C26.6925 17.3309 26.6999 17.3221 26.7093 17.316C26.7188 17.3098 26.7298 17.3066 26.741 17.3066L28.4693 17.3125C28.4789 17.3127 28.4884 17.3151 28.4969 17.3195C28.5055 17.324 28.5129 17.3304 28.5185 17.3382L28.5325 17.3573C28.5375 17.3643 28.5396 17.373 28.5384 17.3815C28.5371 17.39 28.5326 17.3977 28.5258 17.4029C28.5207 17.4067 28.5146 17.4087 28.5082 17.4088C28.0328 17.4396 27.9681 17.5455 27.9718 17.9687C27.9784 18.6932 27.9843 19.359 27.9659 20.0658C27.9507 20.6601 27.9483 21.2883 27.9586 21.9506C27.9615 22.1597 27.9799 22.3682 28.0137 22.5745C28.0171 22.6313 28.0399 22.6852 28.0783 22.7272C28.1167 22.7692 28.1683 22.7967 28.2246 22.8052C28.3664 22.8297 28.5094 22.8466 28.653 22.8559C28.6605 22.8566 28.6678 22.859 28.6743 22.8629C28.6807 22.8668 28.6862 22.8722 28.6903 22.8786C28.6943 22.885 28.6968 22.8923 28.6976 22.8998C28.6984 22.9073 28.6975 22.9149 28.6948 22.9221L28.6838 22.9507C28.6813 22.9567 28.6772 22.962 28.6718 22.9657C28.6665 22.9695 28.6602 22.9717 28.6537 22.972C28.446 22.9846 28.2377 22.9858 28.0298 22.9757C27.611 22.9536 27.1966 22.9669 26.7689 22.9816C26.7491 22.9823 26.7294 22.9772 26.7124 22.967C26.6953 22.9569 26.6815 22.942 26.6727 22.9243L26.6631 22.9059C26.6615 22.9029 26.6605 22.8996 26.6602 22.8961C26.66 22.8927 26.6604 22.8893 26.6615 22.8861C26.6626 22.8828 26.6643 22.8799 26.6666 22.8773C26.6689 22.8748 26.6717 22.8728 26.6749 22.8714H26.6815L27.0364 22.7979C27.0476 22.7959 27.0582 22.7914 27.0674 22.7846C27.0766 22.7779 27.0841 22.7691 27.0893 22.7589C27.1335 22.6742 27.1616 22.582 27.1723 22.487C27.2102 22.1366 27.2279 21.7843 27.2252 21.4319C27.2184 20.2253 27.2167 18.9979 27.2201 17.7497C27.2216 17.4426 26.9203 17.4338 26.6969 17.3897Z" fill="white"/>
<path d="M30.5092 22.6386C30.5399 22.5377 30.5594 22.4337 30.5672 22.3285C30.5917 21.991 30.6052 21.6804 30.6076 21.3968C30.6159 20.6463 30.6159 19.4434 30.6076 17.7881C30.6076 17.531 30.4117 17.4156 30.0198 17.442C30.0114 17.4437 30.0029 17.4434 29.9946 17.4413C29.9864 17.4392 29.9787 17.4354 29.9722 17.4299C29.9657 17.4245 29.9604 17.4177 29.9568 17.41C29.9532 17.4023 29.9514 17.3939 29.9514 17.3855V17.3575C29.9509 17.3538 29.9512 17.3499 29.9521 17.3463C29.9531 17.3426 29.9548 17.3391 29.9572 17.3361C29.9595 17.3331 29.9624 17.3306 29.9657 17.3287C29.969 17.3269 29.9726 17.3257 29.9764 17.3252C30.3791 17.2988 30.7906 17.3414 31.1881 17.3311C31.7338 17.3169 32.284 17.3154 32.8385 17.3267C33.9172 17.348 34.9239 17.6654 35.5573 18.5758C36.287 19.6281 36.068 21.1675 35.2428 22.0846C34.7336 22.6211 34.0474 22.9552 33.311 23.0251C32.8586 23.0541 32.4048 23.0497 31.9531 23.0119C31.3437 22.9658 30.723 22.9467 30.091 22.9546C30.0818 22.9544 30.073 22.9511 30.0659 22.9453C30.0588 22.9394 30.0539 22.9313 30.0521 22.9222L30.0484 22.9017C30.0465 22.8848 30.051 22.8678 30.0611 22.8542C30.0712 22.8405 30.0861 22.8312 30.1028 22.8282H30.1087C30.2549 22.8157 30.4585 22.8032 30.5092 22.6386ZM32.9127 17.6133C32.4246 17.5313 31.9269 17.5233 31.4365 17.5897C31.406 17.594 31.3782 17.6092 31.358 17.6324C31.3379 17.6556 31.3269 17.6854 31.327 17.7161C31.3314 19.0608 31.3331 20.4388 31.3321 21.8502C31.3312 22.0197 31.3534 22.1885 31.3983 22.352C31.4191 22.4148 31.4552 22.4714 31.5033 22.5168C31.5514 22.5622 31.61 22.595 31.6738 22.6122C32.2499 22.79 33.1148 22.7995 33.6909 22.5879C34.6932 22.22 35.1972 21.4573 35.2031 20.2997C35.2097 18.9043 34.278 17.8322 32.9127 17.6133Z" fill="white"/>
<circle cx="20" cy="20" r="19.5" stroke="black" stroke-opacity="0.05"/>
</svg>
