<svg width="40" height="40" viewBox="0 0 40 40" fill="none" xmlns="http://www.w3.org/2000/svg">
<circle cx="20" cy="20" r="20" fill="#0158A8"/>
<path d="M11.5146 11.5147C9.83635 13.1929 8.69345 15.3311 8.23043 17.6589C7.76741 19.9867 8.00504 22.3995 8.91329 24.5922C9.82155 26.7849 11.3596 28.6591 13.333 29.9776C15.3064 31.2962 17.6265 32 19.9999 32C22.3732 32 24.6933 31.2962 26.6667 29.9776C28.6401 28.6591 30.1782 26.7849 31.0864 24.5922C31.9947 22.3995 32.2323 19.9867 31.7693 17.6589C31.3063 15.3311 30.1634 13.1929 28.4851 11.5147C26.2328 9.26782 23.1813 8.00598 19.9999 8.00598C16.8184 8.00598 13.7669 9.26782 11.5146 11.5147ZM12.3343 12.3345C14.1055 10.5675 16.4325 9.46651 18.9219 9.21763C21.4113 8.96874 23.9103 9.58724 25.9962 10.9686C24.5427 10.2326 22.8744 10.0391 21.291 10.4228C19.7076 10.8064 18.3129 11.7421 17.3574 13.0617C16.4019 14.3814 15.9483 15.9984 16.0781 17.6225C16.2078 19.2465 16.9124 20.7711 18.0653 21.9223L12.3271 27.6604C10.2995 25.6252 9.16156 22.8689 9.1629 19.996C9.16425 17.123 10.3047 14.3678 12.3343 12.3345ZM27.6654 27.6655C25.8865 29.4396 23.5475 30.5419 21.047 30.7846C18.5464 31.0273 16.0391 30.3954 13.9523 28.9966C15.4038 29.7403 17.0732 29.9414 18.6598 29.5638C20.2465 29.1861 21.6462 28.2545 22.6071 26.9366C23.5679 25.6187 24.0268 24.001 23.901 22.3749C23.7753 20.7488 23.0732 19.221 21.9211 18.0664L27.6593 12.3283C27.6593 12.3283 27.6593 12.3283 27.6675 12.3365C29.6964 14.3714 30.8356 17.1279 30.8352 20.0015C30.8348 22.875 29.6949 25.6312 27.6654 27.6655Z" fill="white"/>
<circle cx="20" cy="20" r="19.5" stroke="black" stroke-opacity="0.05"/>
</svg>
