<svg width="40" height="40" viewBox="0 0 40 40" fill="none" xmlns="http://www.w3.org/2000/svg">
<circle cx="20" cy="20" r="20" fill="#EA002C"/>
<path d="M14.6548 22.1057C14.0429 21.8211 13.545 21.5899 13.545 21.1239C13.545 20.7682 13.8295 20.5085 14.3915 20.5085C14.5767 20.51 14.7613 20.529 14.9429 20.5655C15.0319 20.5834 15.1224 20.5929 15.2132 20.5939C15.7041 20.5939 15.9816 20.3022 16.1665 19.7473L16.2412 19.5197C15.6293 19.2688 14.9747 19.1383 14.3133 19.1355C12.6486 19.1355 11.7699 20.2026 11.7699 21.3125C11.7533 21.7815 11.9133 22.2397 12.2181 22.5966C12.5948 22.9861 13.0461 23.2958 13.545 23.5072C14.2315 23.8416 14.8504 24.0906 14.8504 24.5921C14.8504 25.0332 14.3951 25.2858 13.7833 25.2858C13.1889 25.2523 12.6142 25.0607 12.1185 24.7308L11.4285 26.0327C12.1782 26.465 13.0319 26.6839 13.8971 26.6659C15.4516 26.6659 16.629 25.7731 16.629 24.4036C16.629 23.0341 15.5263 22.5325 14.6548 22.1057Z" fill="white"/>
<path d="M20.73 22.7424L23.5508 19.2849H21.541L19.2929 22.2693H19.2609V19.2849H17.6033V26.609H17.7029C18.4143 26.609 19.2716 26.2782 19.2716 25.0795V23.4005H19.3036L21.5979 26.5094H23.7073L20.73 22.7424Z" fill="white"/>
<path d="M23.6436 11.4412C23.0638 11.5514 22.1994 12.0814 22.1994 13.017C22.1994 13.8671 22.9108 14.3829 22.9108 15.5069C22.9104 15.852 22.8195 16.1909 22.6472 16.4898C22.4749 16.7888 22.2273 17.0374 21.9291 17.2108C22.1283 17.193 22.3524 17.1788 22.5943 17.1788C22.8737 17.1751 23.1531 17.1918 23.4302 17.2286L26.0447 14.0272C25.3906 13.04 24.5796 12.1665 23.6436 11.4412Z" fill="white"/>
<path d="M25.8418 20.1065C26.1726 19.5943 26.1975 18.7797 26.2402 17.9473C26.2722 17.1719 26.4323 16.5885 27.471 16.5849C27.7022 16.5849 27.9192 16.6134 28.3176 16.6134C29.4209 16.61 30.5027 16.3076 31.4479 15.7384C29.8347 14.6998 27.9754 14.1071 26.0588 14.0203C25.9094 14.44 24.7534 17.6592 24.6644 17.9331C24.8401 18.1423 24.9961 18.3674 25.1304 18.6054C25.421 19.0786 25.6595 19.5819 25.8418 20.1065Z" fill="white"/>
<path d="M20.3177 17.4777C20.186 17.4777 20.122 17.3923 20.1042 17.2394C20.0864 17.0864 19.439 11.1033 19.3359 10.1998C19.3359 10.0647 19.2861 9.82277 19.2861 9.7374C19.2836 9.70995 19.2869 9.68228 19.2958 9.6562C19.3048 9.63013 19.3191 9.60623 19.3379 9.58608C19.3567 9.56593 19.3796 9.54998 19.405 9.53928C19.4304 9.52857 19.4577 9.52336 19.4853 9.52397C19.7948 9.52397 21.4844 9.91881 23.2736 11.1745C22.8732 11.2755 22.5163 11.5032 22.256 11.8238C21.9957 12.1443 21.8461 12.5405 21.8294 12.953C21.8294 13.9348 22.5409 14.479 22.5409 15.4644C22.548 17.09 20.7018 17.4777 20.3177 17.4777Z" fill="white"/>
<path d="M25.991 20.5333C26.0136 20.5957 26.041 20.6564 26.0728 20.7147C26.0873 20.745 26.1099 20.7707 26.1382 20.7889C26.1665 20.8072 26.1992 20.8172 26.2329 20.8178C26.2848 20.8149 26.3356 20.8016 26.3823 20.7787L32.8064 17.7907C32.9238 17.7338 33.1621 17.6342 33.2261 17.5915C33.2587 17.5753 33.2862 17.5505 33.3056 17.5198C33.325 17.489 33.3357 17.4536 33.3364 17.4172C33.3363 17.3798 33.3265 17.343 33.308 17.3105C32.8736 16.7894 32.3627 16.3372 31.7926 15.9695C30.7599 16.5998 29.5769 16.9413 28.3671 16.9584C27.9687 16.9584 27.8762 16.9335 27.6059 16.9335C26.8091 16.9335 26.6099 17.2892 26.5814 17.9721C26.5814 18.1038 26.5814 18.2816 26.5814 18.4772C26.553 19.0997 26.4676 19.9606 25.991 20.5333Z" fill="white"/>
<circle cx="20" cy="20" r="19.5" stroke="black" stroke-opacity="0.05"/>
</svg>
