<svg width="40" height="40" viewBox="0 0 40 40" fill="none" xmlns="http://www.w3.org/2000/svg">
<circle cx="20" cy="20" r="20" fill="#07488A"/>
<g clip-path="url(#clip0_18695_29133)">
<path d="M32.8478 18.3359C31.9854 17.7649 31.0512 17.267 30.0164 16.8424C25.9777 15.1585 21.2347 13.211 15.7875 11C15.7588 11 15.73 11 15.7157 11C15.7157 11 15.7013 11 15.6869 11.0146C15.6725 11.0439 15.6725 11.0732 15.6869 11.1025C16.4055 11.6736 17.1385 12.2593 17.9003 12.8742C18.892 13.6649 20.6023 15.2463 20.7748 16.7399C20.8179 17.0913 20.6311 17.3842 20.2143 17.6038C19.6537 17.8674 19.1076 18.0577 18.5902 18.1602C16.6211 18.5556 14.5371 18.7898 12.3237 18.8777C12.3237 18.8923 12.3381 18.9216 12.3381 18.9509H23.0026C25.9202 18.9509 28.8522 18.9509 31.7698 18.9509C32.1291 18.9509 32.4597 18.907 32.7472 18.8338C32.8047 18.8191 32.8621 18.7752 32.9053 18.7166C32.9771 18.5995 32.9484 18.4238 32.8334 18.3506L32.8478 18.3359Z" fill="white"/>
<path d="M27.9183 20.02C24.4402 20.0493 20.9476 20.0639 17.4551 20.0639C13.3589 20.0493 10.082 20.0639 7.62424 20.0786C7.39428 20.0786 7.17869 20.1372 6.94873 20.2543V20.4007C7.25055 20.7814 7.66736 21.0889 8.19915 21.3525C9.62203 22.026 11.1312 22.685 12.7409 23.3439C16.4346 24.8521 20.2146 26.3895 24.0808 27.9709C24.2533 28.0441 24.2821 28.0002 24.1815 27.8391C24.1815 27.8391 24.1383 27.7952 24.0665 27.7513C22.8161 26.8288 21.695 25.877 20.7177 24.9253C20.0134 24.2371 19.3523 23.3732 19.1942 22.436C19.1223 22.0114 19.2948 21.66 19.6972 21.3671C20.6745 20.9864 21.925 20.6789 23.4628 20.4886C24.9432 20.2982 26.4236 20.1664 27.9183 20.1079C27.9471 20.1079 27.9471 20.1079 27.9471 20.0639C27.9471 20.0639 27.9471 20.02 27.904 20.02H27.9183Z" fill="#00A2E2"/>
</g>
<circle cx="20" cy="20" r="19.5" stroke="black" stroke-opacity="0.05"/>
<defs>
<clipPath id="clip0_18695_29133">
<rect width="26" height="17" fill="white" transform="translate(6.96289 11)"/>
</clipPath>
</defs>
</svg>
