<svg width="40" height="40" viewBox="0 0 40 40" fill="none" xmlns="http://www.w3.org/2000/svg">
<circle cx="20" cy="20" r="20" fill="#282A2C"/>
<path d="M26.4142 20.0057C28.0162 19.0688 29.5474 18.0159 30.9956 16.8554C30.7468 16.032 30.4222 15.2335 30.0258 14.4702C28.1752 14.668 26.3417 15.0012 24.5398 15.467C24.2923 16.4301 23.9885 17.463 23.615 18.5093C24.4498 18.9098 25.3994 19.4071 26.4142 20.0057Z" fill="#5AB247"/>
<path d="M20.0055 13.5836C19.0677 11.9822 18.0149 10.4511 16.8553 9.0022C16.0337 9.25179 15.2368 9.57644 14.4746 9.97203C14.6722 11.8233 15.0054 13.6577 15.4714 15.4602C16.4345 15.7077 17.4651 16.0115 18.5137 16.3828C18.9097 15.548 19.407 14.6006 20.0055 13.5836Z" fill="#5AB247"/>
<path d="M13.5836 19.9944C11.9816 20.9313 10.4504 21.9842 9.0022 23.1446C9.2508 23.9688 9.57547 24.768 9.97202 25.5321C11.8233 25.3342 13.6576 25.0011 15.4602 24.5352C15.7077 23.5699 16.0115 22.5393 16.3828 21.493C15.548 21.088 14.6006 20.5929 13.5836 19.9944Z" fill="#5AB247"/>
<path d="M19.9944 26.4141C20.9317 28.0157 21.9846 29.5469 23.1446 30.9954C23.971 30.7499 24.7726 30.4274 25.5388 30.0323C25.3432 28.1815 25.01 26.3478 24.542 24.5464C23.5789 24.2989 22.5483 23.9951 21.4998 23.6216C21.088 24.4519 20.5884 25.3992 19.9944 26.4141Z" fill="#5AB247"/>
<path d="M24.5397 15.467C25.0088 13.6736 25.3464 11.8484 25.5501 10.0059C24.7923 9.60202 23.9992 9.26835 23.1806 9.00903C22.0117 10.4541 20.9505 11.9831 20.0056 13.5836C20.5119 14.441 21.0249 15.3838 21.502 16.3896C22.3886 16.0813 23.3966 15.7618 24.5397 15.467Z" fill="#0A5CA6"/>
<path d="M15.4603 24.5329C14.9907 26.3285 14.6531 28.156 14.45 30.0009C15.2072 30.4064 16.0004 30.7409 16.8194 30.9999C17.9893 29.5516 19.0505 28.0188 19.9944 26.4141C19.4881 25.559 18.9728 24.6139 18.4958 23.6104C17.6227 23.9164 16.6011 24.2359 15.4603 24.5329Z" fill="#0A5CA6"/>
<path d="M15.467 15.4603C13.6706 14.9908 11.8424 14.6531 9.99683 14.45C9.59151 15.207 9.25778 16.0003 9 16.8194C10.4479 17.9887 11.98 19.0499 13.5836 19.9944C14.4409 19.4881 15.3838 18.9751 16.3896 18.4958C16.0881 17.6227 15.7618 16.6011 15.467 15.4603Z" fill="#0A5CA6"/>
<path d="M30.9999 23.1806C29.5512 22.0113 28.0185 20.9501 26.4141 20.0056C25.5568 20.5119 24.6139 21.0249 23.6104 21.5042C23.9164 22.3773 24.2359 23.3989 24.5307 24.5397C26.327 25.0092 28.1553 25.3469 30.0009 25.5501C30.406 24.7926 30.7405 23.9995 30.9999 23.1806Z" fill="#0A5CA6"/>
<path d="M26.414 20.0055C25.3992 19.407 24.4496 18.9097 23.6148 18.5091C23.9883 17.4628 24.2898 16.43 24.5396 15.4669C23.3965 15.7617 22.3772 16.0812 21.5019 16.3895C21.0248 15.3859 20.5118 14.4408 20.0055 13.5835C19.407 14.6006 18.9097 15.5479 18.5091 16.3827C17.4606 16.0114 16.43 15.7077 15.4669 15.4601C15.7617 16.601 16.0812 17.6226 16.3895 18.4956C15.3836 18.9749 14.4408 19.488 13.5835 19.9943C14.6006 20.5928 15.5479 21.0878 16.3827 21.4906C16.0114 22.537 15.7077 23.5675 15.4601 24.5329C16.601 24.2358 17.6226 23.9163 18.4956 23.6103C18.9727 24.6139 19.488 25.559 19.9943 26.414C20.5928 25.3992 21.0878 24.4519 21.4884 23.6148C22.537 23.9883 23.5675 24.2898 24.5306 24.5396C24.2358 23.3988 23.9163 22.3772 23.6103 21.5041C24.6139 21.0316 25.5567 20.5118 26.414 20.0055Z" fill="#023740"/>
<circle cx="20" cy="20" r="19.5" stroke="black" stroke-opacity="0.05"/>
</svg>
