<svg width="40" height="40" viewBox="0 0 40 40" fill="none" xmlns="http://www.w3.org/2000/svg">
<circle cx="20" cy="20" r="20" fill="#80419B"/>
<path d="M17.5809 22.7417C19.093 22.8871 20.3524 23.4059 21.3591 24.2978C22.6945 25.4812 23.1048 27.4376 22.5462 29.1209C21.8529 31.2045 19.8902 32.0799 17.8677 31.1746C16.3265 30.4838 14.8751 29.0548 14.4935 27.364C14.2441 26.2767 14.4648 25.1195 14.9449 24.112C14.9491 24.1036 14.9515 24.0945 14.9521 24.0851C14.9527 24.0757 14.9513 24.0663 14.9482 24.0575C14.9451 24.0486 14.9402 24.0405 14.9338 24.0336C14.9275 24.0267 14.9198 24.0211 14.9112 24.0173C14.8998 24.0111 14.8868 24.0085 14.8738 24.0098C14.221 24.0635 13.5764 24.1911 12.9523 24.3901C12.1156 24.6532 11.6006 25.3153 11.0221 25.9176C10.8889 26.0548 10.7379 26.1735 10.5732 26.2705C10.4123 26.364 10.3799 26.3316 10.4747 26.1707C10.7182 25.76 10.9464 25.3652 11.1592 24.9861C11.4144 24.5322 11.6568 24.2139 11.8862 24.031C12.9024 23.2192 14.2616 22.8464 15.5945 22.7242C15.6541 22.72 15.712 22.7021 15.7637 22.6721C15.8153 22.6421 15.8594 22.6006 15.8926 22.5509C16.1675 22.1536 16.4731 21.7784 16.8066 21.4286C16.8115 21.424 16.8154 21.4184 16.818 21.4122C16.8207 21.4059 16.8221 21.3993 16.8221 21.3925C16.8221 21.3857 16.8207 21.379 16.818 21.3728C16.8154 21.3666 16.8115 21.361 16.8066 21.3563C16.8023 21.352 16.7972 21.3486 16.7916 21.3463C14.5309 20.38 12.2017 18.9186 10.6193 16.9933C9.58561 15.7339 8.84369 14.0705 9.02823 12.4445C9.31877 9.89209 11.9074 8.95316 14.1406 9.00179C17.0572 9.06538 18.2093 11.3797 18.0647 14.0306C17.9948 15.1743 17.7514 16.3007 17.3427 17.3712C17.1909 17.782 16.9931 18.1744 16.7529 18.5408C16.7263 18.5802 16.6852 18.6076 16.6385 18.617C16.5918 18.6263 16.5433 18.6168 16.5035 18.5906C16.4834 18.5777 16.4661 18.5607 16.4528 18.5407C16.4395 18.5208 16.4305 18.4983 16.4262 18.4747C16.3436 18.0581 16.3929 17.6262 16.5671 17.239C17.1382 15.9322 17.6757 14.6204 17.8253 13.2488C17.9649 11.9637 17.5909 10.9823 16.7031 10.3048C14.8601 8.91824 10.8575 9.523 10.8699 12.371C10.8866 13.0289 11.031 13.6772 11.2951 14.28C12.247 16.4314 13.6651 18.1023 15.5497 19.2927C16.2091 19.7117 16.8928 20.0915 17.5971 20.4299C17.6262 20.4441 17.6589 20.4492 17.6909 20.4445C17.723 20.4398 17.7528 20.4256 17.7767 20.4037C20.1543 18.2155 23.0323 16.6437 26.1585 15.8262C26.1664 15.8242 26.1739 15.8206 26.1805 15.8157C26.187 15.8107 26.1926 15.8046 26.1967 15.7975C26.2009 15.7904 26.2036 15.7826 26.2048 15.7745C26.2059 15.7664 26.2054 15.7581 26.2034 15.7501C26.2018 15.745 26.1998 15.7399 26.1971 15.7352C25.04 13.7239 23.2457 12.0181 21.3541 10.7325C21.3004 10.7007 21.2562 10.6551 21.226 10.6006C21.1958 10.546 21.1806 10.4844 21.182 10.422C21.183 10.3852 21.1956 10.3496 21.218 10.3202C21.2404 10.2909 21.2714 10.2694 21.3067 10.2587C21.9302 10.0592 22.7731 10.5555 23.3018 10.9096C25.0201 12.0705 26.4665 13.5443 27.1224 15.502C27.1311 15.5331 27.1516 15.5596 27.1796 15.5759C27.2075 15.5922 27.2406 15.597 27.272 15.5893C28.1834 15.4089 29.1213 15.4089 30.0327 15.5893C32.4355 16.0881 33.2335 17.8637 32.943 20.0882C32.9168 20.2865 32.8582 20.2977 32.7672 20.1194C31.6786 18.0208 29.812 16.4247 27.4166 16.31C27.4071 16.3095 27.3976 16.3109 27.3887 16.3141C27.3797 16.3172 27.3714 16.3222 27.3644 16.3285C27.3573 16.3349 27.3516 16.3426 27.3475 16.3512C27.3434 16.3598 27.3411 16.3691 27.3406 16.3786C27.34 16.384 27.34 16.3894 27.3406 16.3948C27.6224 17.9709 27.3917 19.683 26.4553 20.9261C25.7071 21.9137 24.4402 22.4499 23.2133 22.5783C21.5037 22.7579 19.7904 22.4424 18.1557 21.8763C18.1461 21.8729 18.1356 21.8727 18.1259 21.8759C18.1162 21.879 18.1079 21.8853 18.1021 21.8937C17.9163 22.1793 17.7405 22.4599 17.5759 22.7329C17.575 22.7342 17.5745 22.7357 17.5745 22.7373C17.5745 22.7389 17.575 22.7404 17.5759 22.7417H17.5809ZM24.4826 21.481C25.8542 20.9486 26.9054 19.552 26.868 18.0482C26.8436 17.4876 26.7226 16.9354 26.5101 16.416C26.5023 16.3902 26.4853 16.3682 26.4623 16.3542C26.4393 16.3402 26.4119 16.3351 26.3854 16.3399C24.4327 16.5382 22.4801 17.6006 20.9077 18.8936C20.1715 19.5059 19.4886 20.1795 18.8665 20.9074C18.8568 20.9172 18.8514 20.9304 18.8514 20.9442C18.8514 20.958 18.8568 20.9712 18.8665 20.981C18.8711 20.9855 18.8766 20.9889 18.8827 20.991C20.6109 21.6905 22.7344 22.1581 24.4826 21.481ZM21.4426 26.8989C20.3927 25.4113 18.7867 24.2442 16.9774 24.006C16.9581 24.0036 16.9385 24.0076 16.9217 24.0173C16.9048 24.0269 16.8915 24.0418 16.8839 24.0597C16.1245 25.8054 15.814 27.7917 17.1332 29.3516C18.2742 30.7058 19.9924 31.5063 21.5137 30.2145C22.5611 29.3204 22.1496 27.8989 21.4426 26.8989Z" fill="white"/>
<circle cx="20" cy="20" r="19.5" stroke="black" stroke-opacity="0.05"/>
</svg>
