<svg width="40" height="40" viewBox="0 0 40 40" fill="none" xmlns="http://www.w3.org/2000/svg">
<circle cx="20" cy="20" r="20" fill="#00984B"/>
<path d="M16.438 25.8277C17.3541 27.7564 18.3977 29.6469 19.5724 31.5028C19.6088 31.5592 19.5924 31.5865 19.525 31.5847C19.1626 31.572 18.8074 31.5228 18.4632 31.439C17.5544 31.2168 16.6292 31.0238 15.684 30.8617C15.4982 30.8289 15.378 30.7743 15.2633 30.6195C13.9829 28.9057 12.8774 27.2392 11.9486 25.6183C9.88148 22.0122 7.48106 16.0221 12.3675 13.3412C13.1816 12.895 14.0886 12.5544 15.0903 12.3231C15.4746 12.2339 15.8807 12.1683 16.3087 12.1264C16.3888 12.1173 16.4198 12.0736 16.4016 11.9953C16.2941 11.5272 16.2795 11.0938 16.356 10.6913C16.4963 9.94639 16.8715 9.2871 17.4816 8.70976C18.1026 8.12331 18.822 7.80277 19.6416 7.74814C20.962 7.66072 22.022 8.0796 22.8179 9.00662C23.5536 9.86079 23.8159 10.8479 23.6028 11.9662C23.5864 12.0554 23.6228 12.1064 23.7121 12.1191C24.0126 12.161 24.3422 12.2175 24.701 12.2922C25.7118 12.5016 26.5733 12.7912 27.2854 13.1609C28.1742 13.6253 28.8498 14.1353 29.3106 14.6926C31.1264 16.8854 30.56 19.976 29.6111 22.3819C28.9136 24.1485 27.9793 25.9133 26.8064 27.6781C26.3037 28.434 25.781 29.188 25.2383 29.9401C25.0635 30.1805 24.8832 30.4246 24.6974 30.6705C24.6628 30.7196 24.6154 30.7542 24.559 30.7761C24.2985 30.8744 23.9907 30.96 23.632 31.0347C23.5719 31.0475 23.5136 31.0475 23.4571 31.0347C23.4098 31.0238 23.3606 31.0238 23.3132 31.0365C22.3826 31.2605 21.4556 31.4481 20.5304 31.5993C20.401 31.6193 20.3701 31.5756 20.4411 31.4663C22.2187 28.709 23.683 25.8113 24.834 22.7717C25.3239 21.4768 25.6772 20.1491 25.8921 18.7886C26.2782 16.3426 25.8375 13.8166 23.5664 12.5417C23.4844 12.4961 23.4298 12.518 23.4025 12.6072C23.3351 12.8203 23.2531 13.0261 23.1548 13.221C22.337 14.851 21.3044 16.4829 20.0587 18.1147C20.0149 18.1712 19.9712 18.1712 19.9293 18.1147C18.649 16.3918 17.3632 14.5323 16.5655 12.5508C16.5527 12.518 16.5145 12.5016 16.4799 12.5144C16.4781 12.5144 16.4744 12.5162 16.4726 12.518C15.8333 12.8804 15.3234 13.3248 14.9391 13.8493C13.921 15.2444 13.8281 17.2733 14.1341 18.9343C14.2233 19.4115 14.2816 19.9159 14.4109 20.3876C14.9264 22.2581 15.602 24.072 16.438 25.8277Z" fill="white"/>
<circle cx="20" cy="20" r="19.5" stroke="black" stroke-opacity="0.05"/>
</svg>
