<svg width="40" height="40" viewBox="0 0 40 40" fill="none" xmlns="http://www.w3.org/2000/svg">
<circle cx="20" cy="20" r="20" fill="#F6F8FA"/>
<path d="M24.106 10.4613C23.8334 9.8731 23.4662 9.33358 23.019 8.86422C22.6727 8.49854 22.28 8.17971 21.851 7.91583C19.3289 6.36805 16.2654 7.11971 14.5671 9.45966C14.262 9.87644 14.0137 10.332 13.8287 10.8142C13.5645 11.4952 13.4411 12.2226 13.466 12.9526C13.4922 13.6943 13.6556 14.4247 13.9479 15.1069C14.1801 15.6587 14.5064 16.166 14.9122 16.6062C15.2782 17.0038 15.6651 17.3817 16.0714 17.7381C16.7535 18.3375 17.4462 18.9418 18.0495 19.6217C18.3427 19.9517 18.5946 20.3162 18.7999 20.707C19.167 21.3904 19.2803 22.1818 19.1198 22.9408C19.1308 22.9743 19.1696 22.9936 19.236 22.9994C19.2777 23.0027 19.3195 22.997 19.3588 22.9826C19.4231 22.9602 19.4882 22.9787 19.5568 22.9703C20.0886 22.9047 20.6088 22.7664 21.1029 22.5593C21.1755 22.5287 21.245 22.491 21.3101 22.4466C21.3753 22.402 21.44 22.3563 21.5042 22.3093C21.59 22.2464 21.649 22.2367 21.6803 22.2798C22.3931 21.4924 22.9883 20.6062 23.4476 19.6485C24.1624 18.1396 24.5854 16.5184 24.7169 14.7847C24.7336 14.5644 24.7414 14.3452 24.7402 14.1272C24.7816 12.9077 24.6139 11.5844 24.106 10.4613ZM24.0312 10.4613V10.4644V10.4613ZM24.0312 10.4578V10.4543V10.4578ZM23.6114 11.4814L23.6078 11.4858L23.6114 11.4814ZM23.6109 11.4484L23.614 11.4532V11.4559C23.6136 11.4533 23.6122 11.4507 23.6109 11.4484ZM14.9883 16.6045C14.9883 16.6045 14.9883 16.6045 14.9883 16.6067V16.6045ZM20.2583 9.5644L20.2658 9.56132C20.2636 9.56299 20.2611 9.56405 20.2583 9.5644ZM13.9114 10.8028C13.9114 10.8028 13.9114 10.8006 13.9088 10.7997L13.9114 10.8028ZM13.903 10.7966H13.8973H13.903Z" fill="url(#paint0_linear_17752_43954)"/>
<path d="M18.5061 23.0015C17.6386 22.9559 16.7979 22.6858 16.0662 22.2177C15.7435 22.0123 15.4828 21.8363 15.2842 21.6896C14.7041 21.2495 14.1171 20.8094 13.4798 20.4494C12.8794 20.1259 12.2096 19.9523 11.5276 19.9433C9.72324 19.8892 8.13893 20.9762 8.0069 22.8651C7.9004 24.3917 9.04198 25.6693 10.3724 26.219C10.5018 26.2715 10.603 26.3093 10.676 26.3325C11.3622 26.5555 12.0825 26.6551 12.8034 26.6265C13.4796 26.6076 14.1519 26.5179 14.8093 26.3589C15.6207 26.1715 16.4122 25.9063 17.1726 25.5668C17.1629 25.5514 17.1686 25.536 17.1898 25.5197C18.0374 24.8675 18.7481 24.1479 19.0716 23.1568C19.0865 23.1128 19.079 23.0636 19.0896 23.0173C18.8939 23.0182 18.6994 23.0129 18.5061 23.0015Z" fill="url(#paint1_linear_17752_43954)"/>
<path d="M24.8634 24.9677C25.4325 25.1957 25.9998 25.3818 26.4816 25.7546C27.0347 26.1821 27.2902 26.7502 27.2483 27.459C27.1528 29.0786 25.5962 29.6155 24.2148 29.5803C23.5815 29.5644 22.8619 29.4438 22.2973 29.156C22.2896 29.1519 22.2834 29.1454 22.2798 29.1374C22.2762 29.1295 22.2754 29.1205 22.2775 29.112L22.597 27.8116C22.6032 27.7865 22.6177 27.7799 22.641 27.7913C23.2268 28.0889 23.8764 28.2387 24.5334 28.2279C24.9779 28.2191 25.4989 28.0378 25.5619 27.5431C25.6235 27.0634 25.2248 26.7906 24.8357 26.6264C24.4696 26.4719 24.0876 26.3509 23.7311 26.1749C23.0054 25.8184 22.4108 25.2507 22.3717 24.4145C22.3074 23.0907 23.3333 22.3052 24.551 22.1459C25.3551 22.0421 26.1724 22.1492 26.9226 22.4566C26.9288 22.4584 26.9345 22.4616 26.9394 22.4657C26.9443 22.4699 26.9482 22.4751 26.951 22.4808C26.9539 22.4866 26.9554 22.4929 26.9557 22.4994C26.956 22.5058 26.9549 22.5122 26.9525 22.5182L26.6049 23.779C26.6041 23.7822 26.6026 23.7852 26.6006 23.7877C26.5987 23.7903 26.5962 23.7925 26.5933 23.7941C26.5905 23.7957 26.5874 23.7967 26.5841 23.7971C26.5809 23.7974 26.5776 23.7971 26.5745 23.7962H26.5705C26.054 23.5485 25.4828 23.4365 24.911 23.471C24.5008 23.4952 24.033 23.7003 24.0308 24.1624C24.0312 24.5963 24.5105 24.826 24.8634 24.9677Z" fill="black"/>
<path d="M27.2191 31.0973L26.7482 29.8976C26.7465 29.893 26.7467 29.8878 26.7488 29.8833C26.7508 29.8787 26.7546 29.8752 26.7592 29.8734C27.1954 29.7335 27.6984 29.4831 27.9527 29.1178C28.1469 28.8409 28.2495 28.5102 28.2463 28.1721C28.2486 26.2413 28.2486 24.2598 28.2463 22.2278C28.2463 22.2238 28.2478 22.2199 28.2506 22.2171C28.2534 22.2142 28.2572 22.2125 28.2613 22.2124H29.9675C29.9714 22.2123 29.9754 22.2131 29.9791 22.2146C29.9827 22.216 29.9861 22.2182 29.9889 22.221C29.9917 22.2238 29.994 22.2271 29.9955 22.2308C29.997 22.2344 29.9978 22.2384 29.9978 22.2423C29.9999 24.1907 29.9999 26.1565 29.9978 28.1395C29.9952 28.3818 29.9675 28.6233 29.9151 28.8599C29.6308 30.1965 28.5284 30.8883 27.2565 31.1198C27.2487 31.121 27.2406 31.1195 27.2337 31.1154C27.2269 31.1113 27.2217 31.1049 27.2191 31.0973Z" fill="black"/>
<path d="M21.6803 22.2798C20.4297 23.6848 18.8926 24.8056 17.1725 25.5668C17.1629 25.5514 17.1686 25.536 17.1897 25.5197C18.0373 24.8675 18.748 24.148 19.0715 23.1569C19.0865 23.1129 19.079 23.0636 19.0896 23.0174L19.1195 22.9377C19.1305 22.9712 19.1692 22.9905 19.2357 22.9963C19.2773 22.9996 19.3192 22.9939 19.3584 22.9795C19.4227 22.9571 19.4878 22.9756 19.5565 22.9672C20.0881 22.9026 20.6083 22.7653 21.1025 22.5593C21.1752 22.5287 21.2446 22.491 21.3098 22.4466C21.3749 22.402 21.4396 22.3562 21.5039 22.3093C21.5901 22.2464 21.6491 22.2367 21.6803 22.2798Z" fill="#823ACB"/>
<circle cx="20" cy="20" r="19.5" stroke="black" stroke-opacity="0.05"/>
<defs>
<linearGradient id="paint0_linear_17752_43954" x1="19.1045" y1="7.10498" x2="19.1045" y2="23.0003" gradientUnits="userSpaceOnUse">
<stop stop-color="#8698F3"/>
<stop offset="1" stop-color="#6959E0"/>
</linearGradient>
<linearGradient id="paint1_linear_17752_43954" x1="19" y1="24.105" x2="8" y2="23.105" gradientUnits="userSpaceOnUse">
<stop stop-color="#F17DD7"/>
<stop offset="1" stop-color="#F9C9F3"/>
</linearGradient>
</defs>
</svg>
