<svg width="40" height="40" viewBox="0 0 40 40" fill="none" xmlns="http://www.w3.org/2000/svg">
<circle cx="20" cy="20" r="20" fill="#F6F8FA"/>
<path d="M28.0141 19.6156C27.8085 22.349 25.5105 24.5345 22.8083 24.7603C20.5694 24.9472 18.4987 23.9271 17.3096 22.0295C16.933 21.4202 16.6843 20.7407 16.5784 20.0322C16.4818 19.3955 16.4887 18.7474 16.5986 18.1129C17.1454 15.1548 19.8866 13.1881 22.9093 13.5076C24.4259 13.6678 25.8423 14.4093 26.7998 15.6143C27.7227 16.7765 28.1275 18.1103 28.0141 19.6156Z" fill="#B8D200"/>
<path d="M10.5362 20.4996V15.4077C10.5354 15.4042 10.5356 15.4006 10.5366 15.3973C10.5376 15.3939 10.5394 15.3908 10.5419 15.3883C10.5444 15.3858 10.5475 15.3839 10.5509 15.3829C10.5543 15.3819 10.5578 15.3818 10.5613 15.3825H11.6336C11.6396 15.3827 11.6453 15.3851 11.6495 15.3893C11.6537 15.3935 11.6562 15.3992 11.6563 15.4052V23.1107C11.6561 23.1129 11.655 23.1149 11.6534 23.1163C11.6517 23.1178 11.6496 23.1186 11.6474 23.1186C11.6458 23.119 11.6441 23.119 11.6425 23.1186C10.0648 21.6066 8.49536 20.0996 6.93412 18.5975C6.64116 18.3249 6.37563 18.0242 6.14134 17.6997C6.12408 17.6756 6.1157 17.6781 6.1157 17.7076V22.8109C6.1157 22.8134 6.1152 22.8159 6.11423 22.8182C6.11326 22.8205 6.11183 22.8226 6.11004 22.8243C6.10825 22.8261 6.10613 22.8275 6.1038 22.8284C6.10147 22.8293 6.09898 22.8297 6.09648 22.8297H5.01823C5.01361 22.8295 5.00922 22.8276 5.006 22.8243C5.00278 22.821 5.00097 22.8165 5.00098 22.8119V15.1207C5.00098 15.1173 5.00233 15.1141 5.00473 15.1117C5.00714 15.1093 5.0104 15.1079 5.0138 15.1079C5.01543 15.1079 5.01707 15.1081 5.01859 15.1087C5.02012 15.1093 5.02151 15.1102 5.02267 15.1114C6.52245 16.5576 8.03817 18.0176 9.56983 19.4914C9.90237 19.8133 10.2169 20.1534 10.512 20.51C10.5288 20.5263 10.5362 20.5238 10.5362 20.4996Z" fill="#0087CE"/>
<path d="M33.8734 20.4953V15.4058C33.8734 15.3999 33.8757 15.3943 33.8799 15.3901C33.8841 15.3859 33.8897 15.3836 33.8956 15.3836H34.9802C34.9833 15.3831 34.9865 15.3833 34.9895 15.3843C34.9925 15.3852 34.9952 15.3869 34.9974 15.3891C34.9996 15.3913 35.0013 15.394 35.0022 15.397C35.0032 15.4 35.0034 15.4032 35.0029 15.4063V23.1113C35.0029 23.1126 35.0026 23.114 35.0021 23.1153C35.0015 23.1165 35.0007 23.1177 34.9997 23.1186C34.9987 23.1195 34.9975 23.1202 34.9961 23.1207C34.9948 23.1211 34.9934 23.1213 34.9921 23.1211C34.9897 23.1211 34.9875 23.1202 34.9857 23.1187C33.406 21.6044 31.8319 20.0925 30.2635 18.5828C29.974 18.3146 29.7113 18.0189 29.4791 17.6998C29.4779 17.6981 29.4764 17.6966 29.4746 17.6955C29.4728 17.6943 29.4709 17.6936 29.4688 17.6932C29.4667 17.6928 29.4646 17.6929 29.4626 17.6933C29.4605 17.6938 29.4586 17.6947 29.4569 17.6959C29.4548 17.6974 29.4531 17.6994 29.4519 17.7018C29.4507 17.7041 29.4501 17.7066 29.45 17.7092V22.811C29.4501 22.8138 29.4496 22.8165 29.4486 22.8191C29.4475 22.8217 29.446 22.824 29.4441 22.826C29.4422 22.8279 29.4399 22.8295 29.4373 22.8306C29.4348 22.8317 29.432 22.8322 29.4293 22.8322H28.3683C28.3639 22.8328 28.3594 22.8323 28.3553 22.8309C28.3511 22.8295 28.3473 22.8271 28.3442 22.8239C28.3411 22.8208 28.3387 22.8169 28.3373 22.8127C28.336 22.8085 28.3356 22.804 28.3362 22.7997V15.1465C28.3362 15.1124 28.3486 15.107 28.3732 15.1307C29.9105 16.6038 31.4671 18.103 33.0431 19.628C33.265 19.8423 33.534 20.1341 33.8502 20.5032C33.866 20.5204 33.8734 20.518 33.8734 20.4953Z" fill="#0087CE"/>
<path d="M16.143 19.3518H13.2341C13.2292 19.3511 13.2241 19.3515 13.2193 19.3531C13.2145 19.3547 13.2101 19.3573 13.2066 19.3609C13.203 19.3644 13.2003 19.3687 13.1986 19.3735C13.197 19.3782 13.1965 19.3833 13.1972 19.3883V21.7307C13.1969 21.7325 13.1971 21.7343 13.1977 21.736C13.1983 21.7378 13.1992 21.7393 13.2005 21.7406C13.2018 21.7419 13.2034 21.7429 13.2051 21.7435C13.2068 21.744 13.2087 21.7442 13.2105 21.744H16.8219C16.8312 21.7439 16.8404 21.7464 16.8483 21.7513C16.8562 21.7562 16.8626 21.7632 16.8667 21.7716C17.0529 22.1425 17.2807 22.491 17.5456 22.8104C17.5479 22.8129 17.5492 22.8161 17.5492 22.8195C17.5492 22.8229 17.5479 22.8262 17.5456 22.8286C17.5433 22.8306 17.5403 22.8317 17.5372 22.8316H12.0045C12.0007 22.8316 11.9971 22.8301 11.9944 22.8274C11.9917 22.8247 11.9902 22.8211 11.9902 22.8173V15.3958C11.9902 15.3928 11.9914 15.3899 11.9936 15.3878C11.9957 15.3857 11.9986 15.3845 12.0016 15.3845H16.1193C16.1224 15.384 16.1256 15.3844 16.1286 15.3854C16.1316 15.3864 16.1343 15.3881 16.1365 15.3904C16.1387 15.3926 16.1403 15.3953 16.1413 15.3983C16.1422 15.4013 16.1425 15.4045 16.142 15.4076V16.3937C16.1425 16.3969 16.1422 16.4002 16.1412 16.4033C16.1402 16.4064 16.1385 16.4092 16.1362 16.4115C16.1339 16.4138 16.131 16.4156 16.1279 16.4166C16.1248 16.4176 16.1215 16.4178 16.1183 16.4173H13.2228C13.2163 16.4173 13.21 16.4199 13.2054 16.4246C13.2007 16.4292 13.1981 16.4355 13.1981 16.442V18.2588C13.1976 18.2628 13.1979 18.2669 13.1992 18.2708C13.2005 18.2746 13.2027 18.2781 13.2055 18.281C13.2084 18.2839 13.2119 18.286 13.2158 18.2873C13.2196 18.2886 13.2237 18.2889 13.2277 18.2884H16.1173C16.1208 18.2878 16.1243 18.288 16.1277 18.2891C16.131 18.2901 16.1341 18.292 16.1366 18.2944C16.1391 18.2969 16.1409 18.2999 16.1421 18.3032C16.1432 18.3065 16.1435 18.31 16.143 18.3135V19.3518Z" fill="#0087CE"/>
<path d="M30.8923 24.2078C30.8109 24.371 30.8055 24.5632 30.81 24.7417C30.8124 24.9775 30.9058 25.2033 31.0708 25.3718C31.48 25.7988 32.1411 25.6765 32.5656 25.32C32.5789 25.3092 32.5853 25.3121 32.5853 25.3294V25.7854C32.5853 25.7884 32.5846 25.7914 32.5832 25.794C32.5819 25.7967 32.5799 25.799 32.5774 25.8007C32.3312 25.9743 32.0337 26.0599 31.7329 26.0438C31.0653 26.0152 30.627 25.7015 30.418 25.1026C30.3016 24.74 30.3326 24.3461 30.5043 24.0061C30.914 23.2405 31.8764 23.0511 32.5927 23.5313C32.5962 23.5336 32.5991 23.5367 32.601 23.5405C32.6029 23.5442 32.6038 23.5484 32.6036 23.5525C32.6036 23.6935 32.5995 23.8365 32.5913 23.9815C32.3837 23.7931 32.1173 23.6825 31.8374 23.6684C31.3967 23.6516 31.0816 23.8314 30.8923 24.2078Z" fill="#0087CE"/>
<path d="M26.4502 23.6845V23.3517C26.4503 23.3469 26.4523 23.3424 26.4557 23.339C26.4591 23.3356 26.4636 23.3336 26.4684 23.3335H28.2719C28.2767 23.3336 28.2813 23.3356 28.2847 23.339C28.2881 23.3424 28.29 23.3469 28.2902 23.3517V23.685C28.29 23.6898 28.2881 23.6944 28.2847 23.6978C28.2813 23.7012 28.2767 23.7031 28.2719 23.7033H27.6049C27.6001 23.7034 27.5955 23.7053 27.5921 23.7087C27.5887 23.7121 27.5867 23.7167 27.5866 23.7215V25.9648C27.5865 25.9696 27.5845 25.9741 27.5811 25.9775C27.5777 25.9809 27.5732 25.9829 27.5684 25.983H27.174C27.1692 25.9829 27.1646 25.9809 27.1612 25.9775C27.1578 25.9741 27.1558 25.9696 27.1557 25.9648V23.7215C27.1556 23.7167 27.1536 23.7121 27.1502 23.7087C27.1468 23.7053 27.1423 23.7034 27.1375 23.7033H26.467C26.4623 23.7028 26.4581 23.7006 26.455 23.6971C26.4519 23.6937 26.4502 23.6892 26.4502 23.6845Z" fill="#0087CE"/>
<path d="M29.0297 24.3555H30.0379C30.0403 24.3555 30.0426 24.356 30.0447 24.3569C30.0469 24.3578 30.0488 24.3591 30.0505 24.3607C30.0521 24.3624 30.0534 24.3643 30.0543 24.3665C30.0552 24.3686 30.0557 24.371 30.0557 24.3733V24.7184C30.0557 24.7207 30.0552 24.723 30.0543 24.7252C30.0534 24.7274 30.0521 24.7293 30.0505 24.731C30.0488 24.7326 30.0469 24.7339 30.0447 24.7348C30.0426 24.7357 30.0403 24.7362 30.0379 24.7362H29.0302C29.0255 24.7362 29.021 24.738 29.0176 24.7414C29.0143 24.7447 29.0125 24.7492 29.0125 24.7539V25.5679C29.0125 25.5702 29.0129 25.5725 29.0138 25.5747C29.0147 25.5768 29.016 25.5788 29.0176 25.5804C29.0193 25.5821 29.0213 25.5834 29.0234 25.5843C29.0256 25.5852 29.0279 25.5856 29.0302 25.5856H30.0379C30.0403 25.5856 30.0426 25.5861 30.0447 25.587C30.0469 25.5879 30.0488 25.5892 30.0505 25.5908C30.0521 25.5925 30.0534 25.5944 30.0543 25.5966C30.0552 25.5987 30.0557 25.6011 30.0557 25.6034V25.9638C30.0557 25.9661 30.0552 25.9684 30.0543 25.9706C30.0534 25.9727 30.0521 25.9747 30.0505 25.9763C30.0488 25.978 30.0469 25.9793 30.0447 25.9802C30.0426 25.9811 30.0403 25.9815 30.0379 25.9815H28.5988C28.5965 25.9815 28.5942 25.9811 28.592 25.9802C28.5899 25.9793 28.5879 25.978 28.5863 25.9763C28.5846 25.9747 28.5833 25.9727 28.5824 25.9706C28.5815 25.9684 28.5811 25.9661 28.5811 25.9638V23.3508C28.5811 23.346 28.5829 23.3415 28.5863 23.3382C28.5896 23.3349 28.5941 23.333 28.5988 23.333H30.0374C30.0422 23.333 30.0467 23.3349 30.05 23.3382C30.0533 23.3415 30.0552 23.346 30.0552 23.3508V23.6845C30.0552 23.6892 30.0533 23.6938 30.05 23.6971C30.0467 23.7004 30.0422 23.7023 30.0374 23.7023H29.0302C29.0255 23.7023 29.021 23.7042 29.0176 23.7075C29.0143 23.7108 29.0125 23.7153 29.0125 23.72V24.3373C29.0124 24.3396 29.0128 24.3419 29.0136 24.3441C29.0144 24.3463 29.0157 24.3483 29.0173 24.35C29.0189 24.3517 29.0208 24.3531 29.0229 24.354C29.0251 24.355 29.0274 24.3555 29.0297 24.3555Z" fill="#0087CE"/>
<path d="M33.2954 24.3062H34.5418C34.5443 24.3063 34.5469 24.3058 34.5492 24.3049C34.5516 24.304 34.5537 24.3025 34.5555 24.3007C34.5573 24.2989 34.5587 24.2968 34.5597 24.2944C34.5606 24.2921 34.5611 24.2895 34.561 24.287V23.3537C34.5609 23.3512 34.5614 23.3486 34.5623 23.3463C34.5633 23.3439 34.5647 23.3418 34.5665 23.34C34.5683 23.3382 34.5704 23.3367 34.5728 23.3358C34.5752 23.3349 34.5777 23.3344 34.5802 23.3345H34.9816C34.9841 23.3344 34.9866 23.3349 34.989 23.3358C34.9914 23.3367 34.9935 23.3382 34.9953 23.34C34.9971 23.3418 34.9985 23.3439 34.9995 23.3463C35.0004 23.3486 35.0009 23.3512 35.0008 23.3537V25.9667C35.0009 25.9693 35.0004 25.9718 34.9995 25.9742C34.9985 25.9765 34.9971 25.9787 34.9953 25.9805C34.9935 25.9823 34.9914 25.9837 34.989 25.9846C34.9866 25.9856 34.9841 25.986 34.9816 25.986H34.5812C34.5787 25.986 34.5762 25.9856 34.5738 25.9846C34.5714 25.9837 34.5693 25.9823 34.5675 25.9805C34.5657 25.9787 34.5643 25.9765 34.5633 25.9742C34.5624 25.9718 34.5619 25.9693 34.562 25.9667V24.7145C34.5621 24.7119 34.5616 24.7094 34.5607 24.707C34.5597 24.7047 34.5583 24.7025 34.5565 24.7007C34.5547 24.6989 34.5526 24.6975 34.5502 24.6966C34.5478 24.6956 34.5453 24.6952 34.5428 24.6952H33.2954C33.2929 24.6952 33.2903 24.6956 33.288 24.6966C33.2856 24.6975 33.2835 24.6989 33.2817 24.7007C33.2799 24.7025 33.2785 24.7047 33.2775 24.707C33.2766 24.7094 33.2761 24.7119 33.2762 24.7145V25.9667C33.2763 25.9693 33.2758 25.9718 33.2749 25.9742C33.2739 25.9765 33.2725 25.9787 33.2707 25.9805C33.2689 25.9823 33.2668 25.9837 33.2644 25.9846C33.262 25.9856 33.2595 25.986 33.257 25.986H32.8571C32.8546 25.986 32.8521 25.9856 32.8497 25.9846C32.8473 25.9837 32.8452 25.9823 32.8434 25.9805C32.8416 25.9787 32.8402 25.9765 32.8392 25.9742C32.8383 25.9718 32.8378 25.9693 32.8379 25.9667V23.3537C32.8378 23.3512 32.8383 23.3486 32.8392 23.3463C32.8402 23.3439 32.8416 23.3418 32.8434 23.34C32.8452 23.3382 32.8473 23.3367 32.8497 23.3358C32.8521 23.3349 32.8546 23.3344 32.8571 23.3345H33.257C33.2595 23.3344 33.262 23.3349 33.2644 23.3358C33.2668 23.3367 33.2689 23.3382 33.2707 23.34C33.2725 23.3418 33.2739 23.3439 33.2749 23.3463C33.2758 23.3486 33.2763 23.3512 33.2762 23.3537V24.287C33.2761 24.2895 33.2766 24.2921 33.2775 24.2944C33.2785 24.2968 33.2799 24.2989 33.2817 24.3007C33.2835 24.3025 33.2856 24.304 33.288 24.3049C33.2903 24.3058 33.2929 24.3063 33.2954 24.3062Z" fill="#0087CE"/>
<path d="M22.2711 23.1511C24.493 23.1511 26.2942 21.3499 26.2942 19.1281C26.2942 16.9062 24.493 15.105 22.2711 15.105C20.0492 15.105 18.248 16.9062 18.248 19.1281C18.248 21.3499 20.0492 23.1511 22.2711 23.1511Z" fill="url(#paint0_radial_17752_43740)"/>
<path d="M25.317 20.2926L24.2052 19.5294L25.1981 18.5675L26.2887 19.2616V19.204L25.2312 18.5325L26.0457 17.7436C26.0457 17.7382 26.0412 17.7323 26.0388 17.7269L26.0166 17.7037L25.1883 18.5053L24.2925 17.9339L25.2948 16.9568L25.8277 17.2491C25.8134 17.222 25.7986 17.1954 25.7839 17.1688L25.3318 16.9222L25.5117 16.7472L25.4821 16.7073L25.2849 16.8976L24.3837 16.4046L24.7968 16.0028C24.784 15.9924 24.7712 15.982 24.7579 15.9722L24.3383 16.3799L23.5988 15.9756L24.0568 15.529C24.041 15.5211 24.0262 15.5127 24.0105 15.5053L23.5534 15.949L22.8587 15.5684L23.2162 15.2203L23.159 15.207L22.8139 15.5433L22.1518 15.1809L22.2272 15.1074H22.1547L22.1054 15.1538L22.029 15.1124C21.9989 15.1124 21.9688 15.1168 21.9393 15.1188L22.0684 15.1898L21.2421 15.9963L20.7175 15.6626L21.1213 15.2731L21.0158 15.3061L20.6747 15.6355L20.4927 15.5196L20.4434 15.5457L20.6406 15.6705L19.7862 16.4938L19.45 16.2631L19.4145 16.2986L19.7502 16.5288L18.9644 17.2836L18.777 17.1357L18.7519 17.1791L18.9284 17.3186L18.4955 17.7362C18.4832 17.7698 18.4718 17.8043 18.4605 17.8388L18.9678 17.3497L19.4505 17.7323L18.6429 18.5147L18.3471 18.25C18.3431 18.2682 18.3382 18.2859 18.3348 18.3047L18.6094 18.5512L18.2574 18.8924C18.2574 18.916 18.2549 18.9417 18.2539 18.9643L18.6483 18.5842L19.198 19.0743L18.3254 19.9183C18.3293 19.9376 18.3338 19.9563 18.3377 19.9755L19.2311 19.1049L19.8005 19.6122L18.8337 20.5553L18.3624 20.083C18.3703 20.1141 18.3781 20.1456 18.3865 20.1767L18.7982 20.5898L18.601 20.7806C18.6084 20.7964 18.6153 20.8127 18.6227 20.8299L18.8317 20.6263L19.3928 21.1894L19.0413 21.53C19.0511 21.5434 19.0615 21.5562 19.0718 21.569L19.4278 21.2239L20.1259 21.9235L19.764 22.276L19.8035 22.3066L20.1609 21.9585L20.8812 22.6793L20.7175 22.84L20.7668 22.8597L20.9148 22.7118L21.2106 23.0076C21.2416 23.0165 21.2732 23.0244 21.3047 23.0323L20.9517 22.6793L22.0487 21.6163L23.0426 22.5038L22.3771 23.1506H22.4495L23.0796 22.5383L23.5406 22.9495L23.5943 22.9312L23.1151 22.5038L24.1731 21.4753L24.9748 22.1103L25.0108 22.0758L24.2091 21.4408L25.3214 20.3591L25.9387 20.7826C25.9456 20.7678 25.9525 20.7525 25.9589 20.7373L25.3574 20.3241L26.2818 19.4253C26.2818 19.4007 26.2862 19.376 26.2877 19.3509L25.317 20.2926ZM25.1548 18.5403L24.1638 19.5008L23.2961 18.9047L24.256 17.9679L25.1548 18.5403ZM20.9961 17.3857L21.6341 17.824L20.7437 18.6927L20.1427 18.2169L20.9961 17.3857ZM20.1037 18.1859L19.5254 17.7278L20.3419 16.939L20.9547 17.3596L20.1037 18.1859ZM22.3845 18.279L21.7115 17.8171L22.6206 16.9296L23.3168 17.3734L22.3845 18.279ZM23.3597 17.3995L24.2136 17.9418L23.2546 18.8786L22.4259 18.3096L23.3597 17.3995ZM22.3485 18.314L21.4117 19.2232L20.7807 18.7233L21.6755 17.8526L22.3485 18.314ZM21.6701 17.789L21.0321 17.3507L21.9195 16.4854L22.5772 16.903L21.6701 17.789ZM20.7466 18.7583L21.3782 19.2582L20.471 20.1422L19.8745 19.6107L20.7466 18.7583ZM21.4171 19.2888L22.1966 19.9065L21.2451 20.8339L20.5055 20.1752L21.4171 19.2888ZM21.4526 19.2542L22.3894 18.3426L23.2182 18.9116L22.2321 19.872L21.4526 19.2542ZM23.2601 18.9402L24.1278 19.5358L23.0841 20.546L22.272 19.905L23.2601 18.9402ZM24.3482 16.4376L25.2494 16.9306L24.2496 17.9068L23.3957 17.3645L24.3482 16.4376ZM23.5657 16.0087L24.3053 16.4129L23.3533 17.3369L22.6571 16.8932L23.5657 16.0087ZM22.8262 15.6034L23.5209 15.984L22.6142 16.8675L21.9565 16.4499L22.8262 15.6034ZM22.1192 15.2154L22.7808 15.5797L21.9141 16.4228L21.285 16.0235L22.1192 15.2154ZM21.249 16.0585L21.8781 16.4583L20.9907 17.3221L20.3783 16.902L21.249 16.0585ZM20.6811 15.6976L21.2066 16.0313L20.3364 16.8734L19.8252 16.5224L20.6811 15.6976ZM19.0048 17.3147L19.7907 16.5574L20.3004 16.9109L19.485 17.6997L19.0048 17.3147ZM19.2311 19.0373L18.6814 18.5472L19.4899 17.7628L20.0682 18.2209L19.2311 19.0373ZM19.2681 19.0703L20.1087 18.2514L20.7092 18.7272L19.8375 19.5777L19.2681 19.0703ZM18.8697 20.5903L19.839 19.6452L20.4355 20.1767L19.4312 21.1534L18.8697 20.5903ZM19.4663 21.1884L20.471 20.2092L21.2106 20.8684L20.1634 21.8904L19.4663 21.1884ZM20.9148 22.6448L20.1959 21.924L21.2456 20.9014L22.0107 21.5833L20.9148 22.6448ZM22.0487 21.5493L21.283 20.8669L22.237 19.9376L23.0491 20.5785L22.0487 21.5493ZM23.0796 22.4678L22.0857 21.5803L23.088 20.6101L24.1357 21.4398L23.0796 22.4678ZM24.1717 21.4063L23.1235 20.577L24.1687 19.5644L25.2805 20.3276L24.1717 21.4063Z" fill="white"/>
<circle cx="20" cy="20" r="19.5" stroke="black" stroke-opacity="0.05"/>
<defs>
<radialGradient id="paint0_radial_17752_43740" cx="0" cy="0" r="1" gradientUnits="userSpaceOnUse" gradientTransform="translate(20.5 17.9736) rotate(34.992) scale(6.10328)">
<stop stop-color="#E9F2FA"/>
<stop offset="0.21875" stop-color="#4699D6"/>
<stop offset="1" stop-color="#0E2A6D"/>
</radialGradient>
</defs>
</svg>
