<svg width="40" height="40" viewBox="0 0 40 40" fill="none" xmlns="http://www.w3.org/2000/svg">
<circle cx="20" cy="20" r="20" fill="#00307A"/>
<path d="M18.5873 14.1792C17.6742 15.1259 16.4517 15.7134 15.142 15.8349C14.2509 15.9177 13.3549 15.9343 12.4614 15.8846C12.4566 15.8843 12.4519 15.8831 12.4476 15.881C12.4433 15.8789 12.4395 15.8759 12.4364 15.8723C12.4332 15.8687 12.4309 15.8644 12.4294 15.8599C12.428 15.8553 12.4274 15.8505 12.4279 15.8457C12.4279 15.8391 12.4302 15.8326 12.4344 15.8274C13.3452 14.5954 14.224 13.403 15.0707 12.2503C15.9693 11.0288 16.8215 10.2317 18.4372 10.2176C19.3495 10.2104 20.3446 10.2086 21.4225 10.2122C21.4351 10.212 21.4475 10.2154 21.4583 10.222C21.4691 10.2285 21.4778 10.238 21.4834 10.2493C21.4891 10.2605 21.4914 10.2732 21.4902 10.2858C21.489 10.2983 21.4842 10.3103 21.4765 10.3203C20.9832 10.9834 20.4763 11.6858 19.9558 12.4274C19.3826 13.2446 18.9265 13.8286 18.5873 14.1792Z" fill="#D04403"/>
<path d="M10.3182 15.9085C11.3831 15.9139 12.3617 16.5415 12.9859 17.372C13.9493 18.6551 14.9573 20.0192 16.01 21.4643C16.0146 21.4706 16.018 21.4777 16.0198 21.4853C16.0217 21.4929 16.022 21.5008 16.0208 21.5085C16.0196 21.5163 16.0169 21.5237 16.0128 21.5304C16.0087 21.537 16.0034 21.5428 15.9971 21.5474C15.9867 21.555 15.9742 21.5592 15.9614 21.5593H14.1891C12.029 21.5593 10.3603 20.7115 9.11938 18.9521C8.40439 17.9376 7.70056 16.9475 7.0079 15.982C7.0046 15.9773 7.00227 15.972 7.00103 15.9665C6.99979 15.9609 6.99967 15.9551 7.00067 15.9495C7.00168 15.9439 7.00379 15.9385 7.00688 15.9337C7.00998 15.9289 7.01399 15.9247 7.0187 15.9215C7.02573 15.9168 7.03398 15.9141 7.04246 15.9139C8.20098 15.9053 9.2929 15.9035 10.3182 15.9085Z" fill="#258338"/>
<path d="M18.0696 17.1634C18.3829 16.4074 19.0482 15.9171 19.869 15.9063C20.4047 15.8991 20.9364 15.8991 21.4642 15.9063C21.4782 15.9063 21.4917 15.9119 21.5016 15.9218C21.5116 15.9317 21.5171 15.9452 21.5171 15.9592V27.1549C21.5171 27.1627 21.5156 27.1704 21.5126 27.1776C21.5096 27.1848 21.5052 27.1914 21.4997 27.1969C21.4942 27.2024 21.4877 27.2068 21.4805 27.2098C21.4733 27.2128 21.4655 27.2143 21.4577 27.2143H18.0016C17.9889 27.2161 17.9759 27.215 17.9637 27.2109C17.9515 27.2068 17.9405 27.1999 17.9314 27.1908C17.9224 27.1816 17.9156 27.1705 17.9117 27.1582C17.9077 27.146 17.9067 27.133 17.9087 27.1203C17.9159 24.0242 17.9159 21.057 17.9087 18.2186C17.8936 17.8598 17.9482 17.5014 18.0696 17.1634Z" fill="white"/>
<path d="M26.9351 24.1329C26.9335 24.1436 26.9344 24.1544 26.9377 24.1647C26.941 24.1749 26.9467 24.1842 26.9542 24.1918C26.9618 24.1995 26.971 24.2053 26.9812 24.2087C26.9913 24.2122 27.0022 24.2132 27.0128 24.2118H31.9573C31.9687 24.2118 31.9797 24.2163 31.9878 24.2244C31.9959 24.2325 32.0005 24.2435 32.0005 24.255C31.9803 25.4632 31.4889 26.3297 30.5262 26.8546C29.9635 27.1603 29.295 27.2197 28.6599 27.2164C26.8778 27.21 25.1055 27.21 23.3429 27.2164C23.336 27.2166 23.3292 27.2154 23.3229 27.2128C23.3165 27.2102 23.3107 27.2064 23.3059 27.2016C23.301 27.1967 23.2972 27.191 23.2947 27.1846C23.2921 27.1783 23.2909 27.1715 23.291 27.1646V15.956C23.291 15.9414 23.2968 15.9273 23.3072 15.917C23.3175 15.9067 23.3315 15.9009 23.3461 15.9009L26.9048 15.9128C26.9095 15.9128 26.9142 15.9137 26.9185 15.9155C26.9228 15.9173 26.9267 15.9199 26.93 15.9232C26.9333 15.9265 26.936 15.9304 26.9378 15.9348C26.9396 15.9391 26.9405 15.9437 26.9405 15.9484L26.9351 24.1329Z" fill="white"/>
<circle cx="20" cy="20" r="19.5" stroke="black" stroke-opacity="0.05"/>
</svg>
