<svg width="40" height="40" viewBox="0 0 40 40" fill="none" xmlns="http://www.w3.org/2000/svg">
<circle cx="20" cy="20" r="20" fill="#0065B3"/>
<path d="M27.695 17.9101C27.695 16.3436 25.2435 16.5218 24.152 16.6858C22.9701 16.8639 22.2547 17.5567 21.9323 18.6849C21.7259 19.4059 21.5421 20.1156 21.381 20.8084C20.8607 23.0705 23.8495 22.8358 25.1502 22.5445C26.8467 22.1628 27.0616 20.848 27.4575 19.4342C27.6066 18.9396 27.6865 18.4267 27.695 17.9101ZM25.9249 18.7414L25.3339 20.7829C25.2999 20.9024 25.2302 21.0086 25.1342 21.0874C25.0382 21.1662 24.9205 21.2139 24.7967 21.2241L23.7675 21.3032C23.6941 21.3085 23.6204 21.3008 23.5497 21.2806C23.3945 21.2347 23.2637 21.1293 23.1858 20.9873C23.108 20.8454 23.0894 20.6784 23.1341 20.5228L23.7279 18.5011C23.7625 18.3846 23.831 18.281 23.9247 18.2034C24.0183 18.1259 24.1329 18.0779 24.2538 18.0656L25.2746 17.9638C25.3533 17.9562 25.4329 17.9629 25.5093 17.9836C25.6645 18.0296 25.7953 18.135 25.8732 18.2769C25.951 18.4189 25.9696 18.5858 25.9249 18.7414Z" fill="white"/>
<path d="M34.8289 16.6292L33.5847 16.6574C33.517 16.6612 33.4524 16.6874 33.4012 16.732C33.35 16.7765 33.3151 16.8368 33.302 16.9034C33.0249 18.2494 32.7063 19.5529 32.3462 20.814C32.2539 21.142 32.1888 21.1363 32.1511 20.797L31.7185 16.8384C31.7182 16.8125 31.7126 16.787 31.702 16.7634C31.6915 16.7397 31.6762 16.7185 31.6571 16.701C31.638 16.6836 31.6156 16.6702 31.5911 16.6617C31.5667 16.6532 31.5407 16.6498 31.5149 16.6518L29.1086 16.6292C29.0438 16.6216 28.9784 16.6391 28.9259 16.6779C28.8734 16.7168 28.8376 16.7741 28.8259 16.8384L27.2933 22.5841C27.2925 22.5905 27.2931 22.597 27.295 22.6031C27.2969 22.6093 27.3001 22.615 27.3044 22.6198C27.3087 22.6246 27.3139 22.6285 27.3198 22.6311C27.3257 22.6337 27.3321 22.635 27.3386 22.635H28.8344C28.8662 22.639 28.8984 22.6302 28.9238 22.6106C28.9492 22.591 28.9659 22.5622 28.9701 22.5303L29.9145 18.5717C30.037 18.0684 30.1256 18.0741 30.1803 18.5887L30.6271 22.5671C30.6299 22.5943 30.6427 22.6196 30.6631 22.6379C30.6835 22.6562 30.7099 22.6662 30.7373 22.6661H33.2822C33.3308 22.6697 33.379 22.6552 33.4176 22.6255C33.4562 22.5957 33.4825 22.5528 33.4914 22.5049L34.9872 16.8497C35.0268 16.6998 34.9731 16.6292 34.8289 16.6292Z" fill="white"/>
<path d="M22.2491 16.7903C22.2499 16.785 22.2495 16.7796 22.2481 16.7745C22.2466 16.7693 22.244 16.7646 22.2405 16.7605C22.237 16.7565 22.2327 16.7533 22.2278 16.7511C22.2229 16.7489 22.2176 16.7478 22.2123 16.7478H20.6882C20.66 16.7464 20.632 16.7538 20.6082 16.769C20.5844 16.7842 20.5659 16.8065 20.5553 16.8327L18.7259 20.7913C18.5421 21.1928 18.4431 21.173 18.4686 20.7319L18.593 16.9118C18.5949 16.8951 18.5934 16.878 18.5886 16.8618C18.5838 16.8456 18.5757 16.8306 18.5648 16.8176C18.554 16.8047 18.5406 16.794 18.5255 16.7864C18.5104 16.7788 18.4939 16.7743 18.4771 16.7733C17.6891 16.6413 17.101 16.6951 16.7126 16.9345L14.8662 20.5877C14.5241 21.2635 14.4647 21.2324 14.493 20.4746C14.5354 19.3634 14.6202 18.2295 14.7475 17.1098C14.8323 16.3718 15.1122 15.614 15.0726 14.7855C15.0528 14.3698 14.8295 14.1804 14.4025 14.22C13.9008 14.2566 13.4196 14.434 13.0141 14.7318C11.8956 15.5831 10.8861 16.5688 10.0084 17.6668L8.31185 19.8639C8.28601 19.8964 8.25397 19.9234 8.21759 19.9435C8.18121 19.9635 8.14122 19.9761 8.09993 19.9806C8.05863 19.9851 8.01686 19.9813 7.97704 19.9695C7.93721 19.9577 7.90012 19.9382 7.86792 19.9119C7.01964 19.2305 5.81509 18.2154 5.40791 17.2116C5.39018 17.1695 5.38059 17.1244 5.37964 17.0787C5.37813 17.0289 5.38644 16.9793 5.40411 16.9328C5.42177 16.8862 5.44843 16.8436 5.48257 16.8074C5.5167 16.7712 5.55765 16.742 5.60306 16.7216C5.64847 16.7012 5.69746 16.6899 5.74723 16.6885C6.73 16.6515 7.70518 16.8739 8.57482 17.3332C8.58199 17.338 8.59017 17.3411 8.59872 17.3422C8.60727 17.3434 8.61598 17.3425 8.62416 17.3398C8.63235 17.3371 8.63981 17.3325 8.64596 17.3265C8.65211 17.3204 8.65679 17.313 8.65965 17.3049L8.69075 17.237C8.70184 17.221 8.70894 17.2026 8.71144 17.1833C8.71394 17.164 8.71178 17.1444 8.70513 17.1261C8.69848 17.1079 8.68754 17.0914 8.67323 17.0783C8.65892 17.0651 8.64166 17.0555 8.62289 17.0504C7.61579 16.6045 6.51528 16.4104 5.4164 16.4849C5.30672 16.4924 5.20368 16.5402 5.12699 16.6189C5.0503 16.6977 5.00535 16.802 5.00074 16.9118C4.95833 18.1334 6.74819 19.6263 7.64454 20.305C7.70967 20.3555 7.75319 20.4288 7.76631 20.5102C7.77944 20.5915 7.76118 20.6748 7.71523 20.7432C6.58419 22.4087 4.99791 25.0808 5.22412 26.8537C5.22912 26.901 5.24532 26.9465 5.27138 26.9863C5.29744 27.0261 5.33261 27.0592 5.37398 27.0827C6.42868 27.6906 8.10827 26.093 8.82647 25.3437C8.83582 25.3379 8.84353 25.3298 8.84888 25.3201C8.85422 25.3105 8.85702 25.2996 8.85702 25.2886C8.85702 25.2776 8.85422 25.2667 8.84888 25.2571C8.84353 25.2474 8.83582 25.2393 8.82647 25.2335L8.76992 25.1882C8.76143 25.1781 8.75083 25.17 8.73886 25.1644C8.72689 25.1588 8.71385 25.1559 8.70065 25.1559C8.68744 25.1559 8.6744 25.1588 8.66243 25.1644C8.65047 25.17 8.63986 25.1781 8.63137 25.1882C7.98906 25.8663 7.23185 26.4253 6.39474 26.8395C6.32607 26.8727 6.25037 26.8888 6.17412 26.8864C6.09787 26.884 6.02334 26.8631 5.95692 26.8256C5.8905 26.7881 5.83415 26.735 5.79271 26.671C5.75127 26.6069 5.72596 26.5338 5.71895 26.4578C5.69047 26.1543 5.72908 25.8483 5.83205 25.5615C6.41149 23.9603 7.19355 22.4399 8.15916 21.0373C8.17279 21.0077 8.19326 20.9817 8.21888 20.9615C8.2445 20.9412 8.27455 20.9274 8.30656 20.9211C8.33857 20.9147 8.37163 20.916 8.40302 20.9249C8.43442 20.9338 8.46325 20.9501 8.48716 20.9723L11.3968 22.9233C12.5787 23.633 18.183 26.7943 19.2688 25.3268C19.3017 25.2839 19.325 25.2344 19.3372 25.1817C19.3494 25.1291 19.3502 25.0744 19.3395 25.0214C19.2345 24.4238 18.9097 23.8872 18.429 23.5171C18.4258 23.513 18.4217 23.5097 18.4171 23.5074C18.4124 23.5051 18.4073 23.5039 18.4021 23.5039C18.3969 23.5039 18.3918 23.5051 18.3872 23.5074C18.3825 23.5097 18.3784 23.513 18.3753 23.5171L18.3244 23.5737C18.3009 23.5979 18.2877 23.6304 18.2877 23.6641C18.2877 23.6979 18.3009 23.7304 18.3244 23.7546C18.5814 23.9912 18.7674 24.2948 18.8616 24.6312C18.873 24.6717 18.8787 24.7135 18.8786 24.7556C18.8756 24.8701 18.8276 24.9788 18.7451 25.0582C18.6625 25.1376 18.552 25.1813 18.4375 25.1797C17.9564 25.168 17.4798 25.0841 17.0237 24.9309C15.2703 24.3566 13.5853 23.5914 11.999 22.649L8.72751 20.5283C8.70764 20.5201 8.69018 20.5071 8.67674 20.4903C8.6633 20.4735 8.65432 20.4536 8.65065 20.4324C8.64698 20.4113 8.64873 20.3895 8.65575 20.3692C8.66276 20.3489 8.6748 20.3307 8.69075 20.3163L10.3873 18.0542C11.3543 16.8694 12.8501 15.1587 14.3318 14.6498C14.3676 14.6382 14.4046 14.6306 14.4421 14.6272C14.5446 14.6233 14.6446 14.66 14.7203 14.7294C14.796 14.7987 14.8413 14.8951 14.8464 14.9976C14.8667 15.5482 14.7623 16.0962 14.541 16.6008C14.5253 16.6444 14.4958 16.6817 14.4571 16.7072C14.4184 16.7327 14.3724 16.745 14.3261 16.7422H13.246C13.2293 16.7418 13.2127 16.7447 13.1971 16.7508C13.1815 16.7568 13.1673 16.7659 13.1552 16.7775C13.1431 16.789 13.1334 16.8028 13.1267 16.8181C13.12 16.8334 13.1163 16.8499 13.1159 16.8666L12.8841 22.4341C12.8844 22.4579 12.8895 22.4814 12.8989 22.5032C12.9084 22.525 12.922 22.5447 12.9391 22.5613C12.9561 22.5778 12.9763 22.5908 12.9984 22.5996C13.0205 22.6083 13.0441 22.6127 13.0679 22.6123H15.1037C15.1386 22.6125 15.1728 22.6027 15.2023 22.5842C15.2319 22.5657 15.2555 22.5391 15.2706 22.5077L16.9473 19.1145C16.9691 19.0867 17.0002 19.0676 17.035 19.0608C17.1113 19.0608 17.1481 19.0778 17.1453 19.157L17.0152 22.4115C17.01 22.4388 17.0114 22.4668 17.0192 22.4934C17.027 22.52 17.041 22.5444 17.06 22.5645C17.0791 22.5847 17.1026 22.6 17.1287 22.6093C17.1549 22.6186 17.1828 22.6215 17.2103 22.6179H19.2292C19.2799 22.6212 19.3303 22.6085 19.3734 22.5816C19.4165 22.5547 19.4501 22.515 19.4695 22.4681L22.2547 16.8129C22.2558 16.8049 22.2538 16.7968 22.2491 16.7903Z" fill="white"/>
<circle cx="20" cy="20" r="19.5" stroke="black" stroke-opacity="0.05"/>
</svg>
