<svg width="40" height="40" viewBox="0 0 40 40" fill="none" xmlns="http://www.w3.org/2000/svg">
<circle cx="20" cy="20" r="20" fill="#F6F8FA"/>
<path d="M7 18.2306C7 18.2306 14.3248 14.4672 18.1561 19.2253L7 18.2306Z" fill="#D9D9D9"/>
<path d="M15.7929 28.3543C15.7929 28.3543 13.7507 26.7281 15.2093 24.5223C16.6679 22.3164 17.3936 21.6083 17.0958 19.7881C17.0958 19.7881 18.9472 20.9225 18.9416 23.0924C18.936 25.2623 15.7929 28.3543 15.7929 28.3543Z" fill="url(#paint0_linear_14382_21772)"/>
<path d="M10.3252 21.3049C6.94736 21.3328 7.00005 18.2321 7.00005 18.2321C7.00005 18.2321 14.3249 14.4687 18.1561 19.2268C18.1561 19.2268 19.4111 20.6502 18.9409 23.0956C18.9409 23.0956 18.7381 21.1332 15.5399 20.8842C14.9956 20.8443 14.4485 20.8601 13.9073 20.9313C12.9613 21.051 10.9295 21.3001 10.3252 21.3049Z" fill="url(#paint1_linear_14382_21772)"/>
<path d="M27.3562 31.4311C27.3562 31.4311 19.6418 28.5506 20.583 22.5151L27.3562 31.4311Z" fill="#D9D9D9"/>
<path d="M28.9178 18.1148C28.9178 18.1148 29.0911 20.719 26.4805 21.1253C23.8699 21.5317 22.8552 21.4726 21.7104 22.9192C21.7104 22.9192 21.3024 20.786 22.9079 19.3266C24.5134 17.8673 28.9178 18.1148 28.9178 18.1148Z" fill="url(#paint2_linear_14382_21772)"/>
<path d="M27.3897 26.9038C29.685 29.3787 27.3562 31.4312 27.3562 31.4312C27.3562 31.4312 19.6418 28.5508 20.583 22.5153C20.583 22.5153 20.7898 20.628 22.9142 19.3291C22.9142 19.3291 21.6001 20.8005 23.5697 23.332C23.9068 23.7613 24.2869 24.1551 24.7041 24.5072C25.4266 25.1259 26.9786 26.4599 27.3897 26.9038Z" fill="url(#paint3_linear_14382_21772)"/>
<path d="M28.4969 9.66357C28.4969 9.66357 27.0495 17.77 20.939 17.9296L28.4969 9.66357Z" fill="#D9D9D9"/>
<path d="M15.1167 10.5136C15.1167 10.5136 17.6475 9.87493 18.5145 12.3714C19.3815 14.8678 19.506 15.8761 21.1338 16.7431C21.1338 16.7431 19.1092 17.5271 17.3872 16.2058C15.6652 14.8845 15.1167 10.5136 15.1167 10.5136Z" fill="url(#paint4_linear_14382_21772)"/>
<path d="M24.0366 10.4426C26.0628 7.74025 28.497 9.66346 28.497 9.66346C28.497 9.66346 27.0496 17.7699 20.939 17.9295C20.939 17.9295 19.0462 18.0637 17.3872 16.2059C17.3872 16.2059 19.0709 17.235 21.2081 14.8439C21.5701 14.4363 21.8895 13.9928 22.1613 13.5203C22.6395 12.6924 23.6742 10.9256 24.0366 10.4426Z" fill="url(#paint5_linear_14382_21772)"/>
<circle cx="20" cy="20" r="19.5" stroke="black" stroke-opacity="0.05"/>
<defs>
<linearGradient id="paint0_linear_14382_21772" x1="17.96" y1="20.9601" x2="19.7075" y2="25.3902" gradientUnits="userSpaceOnUse">
<stop stop-color="#50AB4A"/>
<stop offset="0.528865" stop-color="#86C13B"/>
<stop offset="1" stop-color="#CADC28"/>
</linearGradient>
<linearGradient id="paint1_linear_14382_21772" x1="6.96014" y1="18.4601" x2="18.9601" y2="22.9601" gradientUnits="userSpaceOnUse">
<stop stop-color="#50AB4A"/>
<stop offset="1" stop-color="#CADC28"/>
</linearGradient>
<linearGradient id="paint2_linear_14382_21772" x1="29.4601" y1="18.4601" x2="23.7544" y2="16.8562" gradientUnits="userSpaceOnUse">
<stop stop-color="#51CBF4"/>
<stop offset="0.493724" stop-color="#1D9AD7"/>
<stop offset="1" stop-color="#007FC6"/>
</linearGradient>
<linearGradient id="paint3_linear_14382_21772" x1="21.4601" y1="20.9602" x2="27.4601" y2="31.4602" gradientUnits="userSpaceOnUse">
<stop stop-color="#51CBF4"/>
<stop offset="1" stop-color="#007FC6"/>
</linearGradient>
<linearGradient id="paint4_linear_14382_21772" x1="18.1253" y1="10.4404" x2="18.1253" y2="16.974" gradientUnits="userSpaceOnUse">
<stop stop-color="#FBAF16"/>
<stop offset="1" stop-color="#F46C20"/>
</linearGradient>
<linearGradient id="paint5_linear_14382_21772" x1="29.46" y1="9.46011" x2="15.46" y2="17.9601" gradientUnits="userSpaceOnUse">
<stop stop-color="#F16E20"/>
<stop offset="1" stop-color="#FFB017"/>
</linearGradient>
</defs>
</svg>
