<svg width="40" height="40" viewBox="0 0 40 40" fill="none" xmlns="http://www.w3.org/2000/svg">
<circle cx="20" cy="20" r="20" fill="#0C5FA0"/>
<g clip-path="url(#clip0_26419_48166)">
<path d="M25.1834 15.9829H20.1179C20.0733 15.9829 20.0287 15.9953 19.9968 16.0264L11.1083 24.8856C11.0382 24.9601 11 24.9414 11 24.8484V23.6076C11 23.5518 11.0255 23.5021 11.0637 23.4587L15.1671 19.3393C15.2563 19.2462 15.3009 19.1408 15.3009 19.0105V14.8414C15.3009 14.8414 15.2818 14.8042 15.2627 14.8042H11.0382C11.0382 14.8042 11 14.7918 11 14.7732V12.0869C11 12.0372 11.0255 12.0124 11.0765 12.0124C15.4411 12.0124 20.2071 12.0124 25.3873 12C26.6871 12 27.8276 12.6018 28.5094 13.6999C29.0382 14.5622 29 15.3067 29 16.5165C29 20.0651 29 23.862 29 27.9131C29 27.9628 28.9745 27.9938 28.9172 27.9938H25.2853C25.228 27.9938 25.177 27.9628 25.1451 27.9193L20.3664 20.6607C20.3473 20.6297 20.3536 20.5863 20.3791 20.5615L25.2152 16.0512C25.2662 16.0078 25.2535 15.9829 25.1834 15.9829Z" fill="white"/>
</g>
<circle cx="20" cy="20" r="19.5" stroke="black" stroke-opacity="0.05"/>
<defs>
<clipPath id="clip0_26419_48166">
<rect width="18" height="16" fill="white" transform="translate(11 12)"/>
</clipPath>
</defs>
</svg>
