<svg width="40" height="40" viewBox="0 0 40 40" fill="none" xmlns="http://www.w3.org/2000/svg">
<circle cx="20" cy="20" r="20" fill="#F6F8FA"/>
<path d="M25.1477 13.199C25.1067 13.189 25.0634 13.1946 25.0263 13.2146C24.9121 13.2201 24.7982 13.2321 24.6854 13.2508C23.1653 13.5499 22.0436 14.4111 21.3203 15.8344C21.0067 16.4522 20.4839 16.9929 19.752 17.4566L19.7786 17.4409C19.7568 17.4559 19.7384 17.4559 19.7241 17.4409C19.3519 17.0767 19.0339 16.6611 18.7797 16.2067C18.5583 15.8103 18.4219 15.5767 18.3705 15.5057C17.8037 14.742 17.0245 14.2675 16.0331 14.082L15.9015 14.0602C15.6164 11.5665 17.4384 9.35522 19.902 9.03201C20.1836 8.99519 20.4543 9.01087 20.7326 9.00064C20.8446 8.99551 20.957 9.00099 21.068 9.01701C22.6182 9.24748 23.7833 10.0112 24.5633 11.3081C24.9013 11.8849 25.1013 12.532 25.1477 13.199Z" fill="#F8C6BD"/>
<path d="M29.5975 19.4075C29.5737 19.4094 29.55 19.4042 29.5293 19.3925C28.2569 18.5831 26.6517 18.3308 25.2198 18.7195C24.9652 18.7881 24.7327 18.8413 24.5222 18.8791C23.7657 19.0114 22.99 18.9882 22.2427 18.8109C22.2333 18.8087 22.2243 18.8047 22.2164 18.799C22.2085 18.7934 22.2018 18.7863 22.1967 18.778C22.1916 18.7698 22.1881 18.7606 22.1865 18.751C22.1849 18.7415 22.1853 18.7317 22.1875 18.7222C22.1881 18.7177 22.1895 18.7133 22.1916 18.7093C22.4798 18.0437 22.8898 17.4378 23.4006 16.9227C23.5519 16.7677 23.7013 16.6111 23.8486 16.4529C24.6923 15.5465 25.085 14.4666 25.0268 13.2133C25.064 13.1933 25.1072 13.1877 25.1482 13.1977C25.9038 13.1393 26.6621 13.2698 27.3548 13.5775C29.6111 14.5839 30.6148 17.1328 29.5975 19.4075Z" fill="#EC6D65"/>
<path d="M25.026 13.2146C25.0842 14.4683 24.6914 15.5482 23.8477 16.4542C23.7004 16.6124 23.5511 16.769 23.3997 16.924C22.889 17.439 22.4789 18.0449 22.1907 18.7105C22.1829 18.7285 22.1826 18.7489 22.1897 18.7671C22.1969 18.7854 22.211 18.8001 22.2289 18.808C22.233 18.81 22.2374 18.8114 22.2419 18.8121C22.9892 18.9895 23.7648 19.0127 24.5214 18.8803C24.7319 18.8426 24.9644 18.7894 25.2189 18.7208C26.6509 18.3321 28.256 18.5844 29.5284 19.3938C29.5491 19.4054 29.5729 19.4107 29.5966 19.4088C29.5857 19.4013 29.5843 19.4088 29.5966 19.4333C29.5923 19.4373 29.5874 19.4407 29.5823 19.4435C29.5764 19.4471 29.5717 19.4523 29.5686 19.4585C29.2469 20.1365 28.7532 20.7184 28.1367 21.1462C27.3601 21.697 26.4294 21.9887 25.4774 21.9794C25.1092 21.974 24.7519 21.944 24.3802 21.9842C23.5047 22.077 22.6738 22.4174 21.9848 22.9654C21.5419 21.6108 21.6007 20.142 22.1505 18.8271C22.153 18.8233 22.1544 18.8189 22.1547 18.8143C22.155 18.8098 22.1541 18.8052 22.1521 18.8011C22.1501 18.797 22.1471 18.7935 22.1434 18.7909C22.1396 18.7883 22.1353 18.7866 22.1307 18.7862C21.2382 18.5515 20.4196 18.0948 19.751 17.4586C20.4824 16.9949 21.0052 16.4542 21.3193 15.8364C22.043 14.4131 23.1647 13.5519 24.6844 13.2528C24.7974 13.2334 24.9115 13.2207 25.026 13.2146Z" fill="#EA5442"/>
<path d="M15.8985 14.0608L16.0301 14.0826C16.1466 14.9567 16.5341 15.7722 17.1382 16.4146C17.3382 16.6278 17.5428 16.8385 17.7519 17.0467C18.0226 17.333 18.259 17.6499 18.4562 17.9911H18.4501C17.9209 18.1153 17.3745 18.1487 16.8341 18.09C16.5461 18.0432 16.2609 17.9808 15.9797 17.9031C14.6398 17.5568 13.225 17.6398 11.9348 18.1404C11.9307 18.1471 11.9254 18.1528 11.9191 18.1573C11.9128 18.1619 11.9057 18.1651 11.8981 18.1668C11.8905 18.1685 11.8827 18.1687 11.8751 18.1673C11.8674 18.166 11.8601 18.1631 11.8536 18.1588C11.6718 16.8669 12.0405 15.805 12.9596 14.9731C13.7693 14.2399 14.7489 13.9357 15.8985 14.0608Z" fill="#E6002D"/>
<path d="M19.7781 17.441C19.3667 17.6899 18.92 17.8754 18.4533 17.9912C18.255 17.6509 18.0177 17.3349 17.7462 17.0496C17.5389 16.8414 17.3343 16.6307 17.1325 16.4175C16.5284 15.7751 16.1408 14.9595 16.0244 14.0854C17.0159 14.2709 17.795 14.7455 18.3619 15.5092C18.4142 15.5806 18.5505 15.8142 18.771 16.2102C19.028 16.6641 19.3488 17.0789 19.7236 17.4416C19.7379 17.4587 19.7563 17.4587 19.7781 17.441Z" fill="#EC6D65"/>
<path d="M19.7777 17.4409L19.7511 17.4566C20.4175 18.0919 21.2334 18.5488 22.1234 18.7849C22.1279 18.7853 22.1323 18.7869 22.136 18.7895C22.1397 18.7922 22.1428 18.7957 22.1447 18.7998C22.1467 18.8039 22.1476 18.8085 22.1473 18.813C22.1471 18.8176 22.1456 18.822 22.1431 18.8258C21.5933 20.1407 21.5345 21.6095 21.9774 22.9641V22.9682C21.5841 23.2809 21.2477 23.6592 20.9833 24.0865L20.9628 24.0763C20.9501 24.0696 20.9399 24.0591 20.9335 24.0463C20.5513 23.276 19.9884 22.6097 19.2929 22.1043C19.2837 22.0981 19.2765 22.0894 19.2723 22.0792C19.268 22.0691 19.2669 22.0578 19.269 22.047C19.4664 20.7939 19.2583 19.5105 18.6751 18.384C18.6077 18.2483 18.5309 18.1175 18.4453 17.9926H18.4514C18.9188 17.8764 19.3659 17.6904 19.7777 17.4409Z" fill="#B71B2C"/>
<path d="M18.4473 17.9926C18.5329 18.1176 18.6096 18.2484 18.6771 18.384C19.2603 19.5106 19.4683 20.794 19.271 22.0471C19.2689 22.0579 19.27 22.0691 19.2743 22.0793C19.2785 22.0895 19.2857 22.0982 19.2949 22.1043C19.9904 22.6098 20.5533 23.2761 20.9355 24.0463C20.9418 24.0592 20.9521 24.0697 20.9648 24.0763L20.9852 24.0866C20.9716 24.1159 20.9723 24.1322 20.9852 24.1356C20.9537 24.1524 20.9275 24.1777 20.9096 24.2086C20.7992 24.4048 20.7028 24.6085 20.6211 24.8182C20.5916 24.8941 20.527 25.1087 20.4275 25.4619C20.1428 26.4749 19.6028 27.3978 18.8592 28.1424C18.6937 28.0057 18.5385 27.8571 18.3948 27.6978C17.7725 26.8795 17.6343 25.9999 17.9802 25.0589C18.0642 24.8578 18.1713 24.6672 18.2993 24.4909C18.7818 23.7856 19.1074 22.9851 19.254 22.1432C19.2581 22.1259 19.2567 22.1077 19.25 22.0911C19.2433 22.0746 19.2316 22.0606 19.2165 22.0512C18.2865 21.3932 17.1733 21.0443 16.0341 21.0536C15.8875 21.0536 15.7423 21.0604 15.5977 21.0692C14.8042 21.1101 14.0187 20.8926 13.3591 20.4494C12.5917 19.9381 12.0561 19.1456 11.8679 18.2429C11.8645 18.2272 11.8522 18.2176 11.8311 18.2136C11.8386 18.2069 11.8444 18.1985 11.848 18.1891C11.8517 18.1798 11.8531 18.1697 11.8522 18.1597C11.8587 18.1639 11.866 18.1668 11.8736 18.1682C11.8813 18.1695 11.8891 18.1694 11.8967 18.1676C11.9042 18.1659 11.9114 18.1627 11.9177 18.1582C11.924 18.1536 11.9293 18.1479 11.9333 18.1413C13.2226 17.6416 14.6361 17.5588 15.9748 17.9047C16.256 17.9823 16.5412 18.0447 16.8292 18.0915C17.3703 18.1505 17.9174 18.1171 18.4473 17.9926Z" fill="#EA5442"/>
<path d="M11.8329 18.2135C11.854 18.2176 11.8663 18.2272 11.8697 18.2429C12.0579 19.1456 12.5936 19.9381 13.361 20.4494C14.0202 20.8938 14.8056 21.1125 15.5996 21.0726C15.7441 21.0638 15.8894 21.059 16.036 21.057C17.1751 21.0477 18.2883 21.3966 19.2183 22.0545C19.2334 22.064 19.2451 22.078 19.2519 22.0945C19.2586 22.1111 19.26 22.1293 19.2558 22.1466C19.1092 22.9885 18.7837 23.789 18.3012 24.4943C18.1731 24.6706 18.0661 24.8612 17.9821 25.0623C17.6361 26.0037 17.7743 26.8834 18.3966 27.7012C18.5403 27.8605 18.6955 28.0091 18.861 28.1457C18.8403 28.1605 18.8225 28.179 18.8085 28.2003C17.5939 29.3368 16.1762 29.9364 14.5556 29.9991C13.709 30.0328 12.8642 29.8982 12.07 29.603C11.2758 29.3078 10.5481 28.8579 9.92911 28.2794C8.90211 27.3265 8.23846 26.0462 8.05186 24.6577C7.86525 23.2693 8.16732 21.8592 8.90629 20.669C9.58104 19.5781 10.5773 18.7231 11.7579 18.2217C11.7691 18.2151 11.7816 18.2109 11.7945 18.2095C11.8075 18.2081 11.8205 18.2095 11.8329 18.2135Z" fill="#EC6D65"/>
<path d="M29.594 19.4319C30.3154 19.8906 30.9126 20.5201 31.3325 21.2647C31.7525 22.0093 31.9824 22.846 32.0017 23.7006C32.0211 24.5553 31.8293 25.4015 31.4435 26.1644C31.0576 26.9272 30.4896 27.5831 29.7897 28.074C27.6288 29.5687 24.8031 29.4146 22.8346 27.641L22.7493 27.5503C23.288 26.7252 23.3807 25.8856 23.0275 25.0315C22.9118 24.7955 22.7801 24.5676 22.6334 24.3496C22.3611 23.9175 22.1416 23.4544 21.9795 22.9701V22.966C22.6685 22.418 23.4994 22.0776 24.3749 21.9848C24.7465 21.9446 25.1038 21.9746 25.4721 21.9801C26.4241 21.9893 27.3548 21.6977 28.1314 21.1468C28.7479 20.719 29.2416 20.1371 29.5633 19.4592C29.5663 19.453 29.5711 19.4478 29.577 19.4442C29.5832 19.4409 29.589 19.4368 29.594 19.4319Z" fill="#E6002D"/>
<path d="M21.9791 22.9683C22.1413 23.4518 22.3608 23.9142 22.633 24.3457C22.7797 24.5637 22.9114 24.7915 23.0271 25.0275C23.3803 25.8817 23.2876 26.7213 22.7489 27.5464C22.091 26.9275 21.6138 26.1415 21.3681 25.2723C21.2673 24.8843 21.1402 24.5036 20.9876 24.1329C20.9719 24.1295 20.9712 24.1131 20.9876 24.0838C21.2515 23.6577 21.5869 23.2804 21.9791 22.9683Z" fill="#EC6D65"/>
<path d="M20.9878 24.1355C21.1404 24.5062 21.2675 24.8869 21.3683 25.2749C21.6137 26.1446 22.091 26.9311 22.7491 27.5503L22.8323 27.6424C22.3904 28.162 21.8658 28.5002 21.2585 28.657C20.383 28.8843 19.567 28.7313 18.8105 28.1981C18.8245 28.1768 18.8423 28.1583 18.8631 28.1436C19.6066 27.3991 20.1467 26.4761 20.4314 25.4631C20.5314 25.1099 20.5959 24.8953 20.625 24.8194C20.7067 24.6097 20.8031 24.406 20.9135 24.2098C20.9308 24.1786 20.9565 24.1528 20.9878 24.1355Z" fill="#F8C6BD"/>
<circle cx="20" cy="20" r="19.5" stroke="black" stroke-opacity="0.05"/>
</svg>
