<svg width="40" height="40" viewBox="0 0 40 40" fill="none" xmlns="http://www.w3.org/2000/svg">
<circle cx="20" cy="20" r="20" fill="#222222"/>
<g clip-path="url(#clip0_18553_55712)">
<path d="M5.16679 19.0469C4.34227 18.6094 3.21195 18.4856 2.72034 19.4262C2.53066 19.7862 2.50743 20.1694 2.65066 20.572C2.91001 21.3075 3.69969 21.563 4.43517 21.3772C4.71001 21.3075 4.97324 21.1914 5.22485 21.0249C5.22485 21.0249 5.22485 21.0249 5.22872 21.0249C5.23646 21.1952 5.24034 21.3772 5.24034 21.5591C5.24034 21.5707 5.23646 21.5823 5.22485 21.5862C4.88808 21.7604 4.52808 21.8611 4.14098 21.8843C3.23905 21.9385 2.60808 21.6094 2.24421 20.8972C1.93453 20.3049 1.96937 19.5617 2.35646 19.0198C3.03001 18.0675 4.18356 18.0443 5.15517 18.5049C5.1784 18.5165 5.19388 18.5398 5.19388 18.5669L5.2055 19.0236C5.2055 19.0236 5.19388 19.0507 5.1784 19.0507C5.17453 19.0507 5.17066 19.0507 5.16679 19.0507V19.0469Z" fill="white"/>
<path d="M7.34203 18.2144H7.65557C7.65557 18.2144 7.67493 18.2221 7.6788 18.2298L9.18848 21.8608C9.18848 21.8608 9.18848 21.8879 9.17299 21.8956H9.16525H8.71622C8.71622 21.8956 8.69687 21.8956 8.69299 21.884L8.27106 20.8311C8.27106 20.8311 8.25557 20.8156 8.24783 20.8156H6.81557C6.81557 20.8156 6.79622 20.8195 6.79235 20.8311L6.36654 21.884C6.36654 21.884 6.35106 21.8995 6.34332 21.8995H5.89428C5.89428 21.8995 5.86719 21.884 5.86719 21.8685V21.8608L7.3188 18.2298C7.3188 18.2298 7.33428 18.2144 7.34203 18.2144ZM6.99751 20.3124C6.99751 20.3124 6.99751 20.3395 7.01299 20.3473C7.01299 20.3473 7.02074 20.3473 7.02461 20.3473H8.01557C8.01557 20.3473 8.04267 20.3318 8.04267 20.3163C8.04267 20.3163 8.04267 20.3085 8.04267 20.3047L7.53945 19.0698C7.53945 19.0698 7.52009 19.0505 7.50461 19.0544C7.49687 19.0544 7.49299 19.0621 7.48912 19.0698L6.99751 20.3085V20.3124Z" fill="white"/>
<path d="M11.1203 21.3497C11.5113 21.0748 11.2713 20.6297 10.9577 20.4245C10.7061 20.2619 10.4661 20.0994 10.2339 19.929C9.51 19.4065 9.75774 18.3226 10.6635 18.2219C11.0313 18.1794 11.3526 18.2606 11.639 18.4619C11.6468 18.4697 11.6545 18.4774 11.6545 18.489L11.6468 18.849C11.6468 18.849 11.639 18.8684 11.6274 18.8684C11.6274 18.8684 11.6197 18.8684 11.6158 18.8684C11.3603 18.7097 11.0623 18.6477 10.7216 18.6865C10.4042 18.7213 10.1835 18.9729 10.35 19.2981C10.4042 19.4026 10.4971 19.4994 10.6326 19.5884C10.8377 19.7239 11.039 19.8516 11.2365 19.9794C11.7242 20.2929 11.8906 20.7226 11.7358 21.2645C11.6545 21.551 11.4648 21.7406 11.159 21.8452C10.7835 21.9729 10.3771 21.9071 9.95129 21.6477C9.8971 21.6129 9.86226 21.5548 9.85839 21.489L9.84677 21.1948C9.84677 21.1368 9.86613 21.1252 9.91258 21.16C10.2029 21.369 10.799 21.5781 11.1203 21.3535V21.3497Z" fill="white"/>
<path d="M13.4046 18.6788H12.2859C12.2859 18.6788 12.2549 18.6672 12.2549 18.6517V18.2414C12.2549 18.2259 12.2665 18.2104 12.2859 18.2104H15.1233C15.1233 18.2104 15.1542 18.2221 15.1542 18.2414V18.6479C15.1542 18.6634 15.1426 18.6788 15.1233 18.6788H13.9775C13.9775 18.6788 13.9465 18.6943 13.9465 18.7137V21.8724C13.9465 21.8879 13.9349 21.9034 13.9155 21.9034H13.4704C13.4704 21.9034 13.4394 21.8879 13.4394 21.8724V18.7098C13.4394 18.7098 13.4239 18.6788 13.4084 18.6788H13.4046Z" fill="white"/>
<path d="M18.0493 21.3498V21.7098C18.0493 21.7292 18.0338 21.7447 18.0145 21.7447H16.1022C16.0829 21.7447 16.0674 21.7292 16.0674 21.7098V18.2492C16.0674 18.2298 16.0829 18.2144 16.1022 18.2144H17.9719C17.9913 18.2144 18.0067 18.2298 18.0067 18.2492V18.6363C18.0067 18.6363 17.9874 18.6711 17.968 18.6711H16.559C16.5396 18.6711 16.5242 18.6827 16.5242 18.7021V19.7085C16.5242 19.7279 16.5396 19.7434 16.559 19.7434H17.9293C17.9487 19.7434 17.9642 19.7589 17.9642 19.7782V20.1692C17.9642 20.1885 17.9487 20.204 17.9293 20.204H16.559C16.5396 20.204 16.5242 20.2195 16.5242 20.2427L16.5319 21.284C16.5319 21.3034 16.5474 21.3189 16.5667 21.3189L18.0184 21.3111C18.0377 21.3111 18.0532 21.3266 18.0532 21.346L18.0493 21.3498Z" fill="white"/>
<path d="M19.7834 21.4195H21.2273C21.2273 21.4195 21.2505 21.4272 21.2505 21.4427V21.8724C21.2505 21.8724 21.2428 21.8956 21.2273 21.8956H19.2957C19.2957 21.8956 19.2725 21.884 19.2725 21.8724V18.2337C19.2725 18.2337 19.2841 18.2104 19.2957 18.2104H19.7331C19.7331 18.2104 19.7563 18.2259 19.7563 18.2375V21.3963C19.7563 21.3963 19.7679 21.4195 19.7796 21.4195H19.7834Z" fill="white"/>
<path d="M23.7473 19.8944C23.6776 19.9253 23.6815 19.9485 23.7512 19.9679C24.1693 20.084 24.4015 20.3627 24.448 20.804C24.5176 21.4582 24.026 21.8802 23.3989 21.8918C23.0196 21.8995 22.6131 21.8995 22.1873 21.8918C22.1757 21.8918 22.168 21.884 22.168 21.8724V18.2531C22.168 18.226 22.1796 18.2144 22.2067 18.2144C22.5125 18.2144 22.8183 18.2144 23.1202 18.2144C23.7551 18.2221 24.208 18.5782 24.1538 19.2595C24.1305 19.5731 23.9912 19.7821 23.7435 19.8905L23.7473 19.8944ZM22.6402 18.7176V19.7666C22.6402 19.786 22.6596 19.8053 22.6789 19.8053H23.097C23.426 19.8053 23.6893 19.5537 23.6893 19.2518V19.2324C23.6893 18.9266 23.4222 18.6789 23.0931 18.6827H22.6751C22.6557 18.6827 22.6364 18.7021 22.6364 18.7215L22.6402 18.7176ZM22.6325 20.2931V21.3769C22.6325 21.4079 22.6557 21.4311 22.6867 21.4311H23.3331C23.6738 21.4311 23.9525 21.1911 23.9525 20.8892V20.7847C23.9525 20.4827 23.6776 20.2389 23.337 20.2389H22.6906C22.6596 20.2389 22.6364 20.2621 22.6364 20.2931H22.6325Z" fill="white"/>
<path d="M25.9926 20.8272L25.5823 21.884C25.5823 21.884 25.5707 21.8995 25.5629 21.8995H25.0984C25.0984 21.8995 25.0752 21.8879 25.0752 21.8763C25.0752 21.8763 25.0752 21.8724 25.0752 21.8685L26.5384 18.2259C26.5384 18.2259 26.55 18.2104 26.5578 18.2104H26.8675C26.8675 18.2104 26.8829 18.2143 26.8868 18.2221L28.4042 21.8646C28.4042 21.8646 28.4042 21.8879 28.3926 21.8956H28.3849H27.9242C27.9242 21.8956 27.9087 21.8917 27.9049 21.884L27.4675 20.8272C27.4675 20.8272 27.4558 20.8156 27.4481 20.8156H26.012C26.012 20.8156 25.9965 20.8195 25.9926 20.8272ZM26.2133 20.3201C26.2133 20.3201 26.2133 20.3434 26.2249 20.3511C26.2249 20.3511 26.2287 20.3511 26.2326 20.3511L27.2313 20.3356C27.2313 20.3356 27.2546 20.324 27.2546 20.3124C27.2546 20.3124 27.2546 20.3085 27.2546 20.3046L26.7358 19.0659C26.7358 19.0659 26.7165 19.0466 26.7049 19.0543C26.6971 19.0543 26.6933 19.0621 26.6933 19.0659L26.2094 20.3201H26.2133Z" fill="white"/>
<path d="M31.938 20.8311L31.5315 21.884C31.5315 21.884 31.5199 21.8995 31.5083 21.8995H31.0515C31.0515 21.8995 31.0283 21.8879 31.0283 21.8724V21.8647L32.4838 18.2298C32.4838 18.2298 32.4954 18.2144 32.507 18.2144H32.8167C32.8167 18.2144 32.8361 18.2221 32.8399 18.2298L34.3535 21.8608C34.3535 21.8608 34.3535 21.8879 34.338 21.8918C34.338 21.8918 34.3303 21.8918 34.3264 21.8918H33.8735C33.8735 21.8918 33.8541 21.8918 33.8503 21.8802L33.4167 20.8273C33.4167 20.8273 33.4051 20.8118 33.3935 20.8118H31.9574C31.9574 20.8118 31.938 20.8195 31.9341 20.8273L31.938 20.8311ZM32.1664 20.3085C32.1664 20.3085 32.1664 20.3434 32.1819 20.3473C32.1819 20.3473 32.1896 20.3473 32.1935 20.3473L33.1728 20.3395C33.1728 20.3395 33.2038 20.3279 33.2038 20.3085C33.2038 20.3047 33.2038 20.3008 33.2038 20.2969L32.7045 19.0776C32.7045 19.0776 32.6812 19.0544 32.6657 19.0621C32.658 19.0621 32.6541 19.0698 32.6503 19.0776L32.1703 20.3008L32.1664 20.3085Z" fill="white"/>
<path d="M38.0044 21.0363H38.0122C38.0393 21.226 38.0393 21.4079 38.016 21.586C38.016 21.5899 38.016 21.5937 38.0083 21.5976C37.3038 21.9692 36.2625 22.0505 35.5851 21.5705C34.6135 20.8776 34.5631 19.4221 35.4806 18.6557C36.1967 18.0557 37.1412 18.1369 37.9773 18.5047C37.9889 18.5086 37.9928 18.5163 37.9928 18.5279C38.0006 18.6982 38.0006 18.8802 37.9928 19.0699C37.9928 19.0699 37.9928 19.0737 37.9889 19.0737C37.6328 18.8531 37.2535 18.7369 36.8509 18.7176C36.4367 18.6982 36.0922 18.8144 35.8135 19.066C35.1515 19.6582 35.2367 20.7615 35.9954 21.2299C36.3128 21.4273 36.6767 21.4892 37.0831 21.4195C37.4122 21.3615 37.7219 21.2337 38.0083 21.0402L38.0044 21.0363Z" fill="white"/>
<path d="M30.2425 20.9123C30.2347 21.3458 30.0489 21.7136 29.6425 21.8491C29.4876 21.9033 29.2399 21.9149 28.8954 21.8917C28.8838 21.8917 28.8799 21.8878 28.8799 21.8762V21.4387C28.8799 21.4387 28.8876 21.4233 28.8954 21.4233C29.2941 21.4504 29.7315 21.4465 29.7392 20.9471C29.7547 20.0723 29.7586 19.2207 29.747 18.3923C29.747 18.3768 29.7547 18.3691 29.7702 18.3691L30.227 18.3613C30.227 18.3613 30.2463 18.3691 30.2463 18.3807C30.2541 19.2942 30.2541 20.1381 30.2425 20.9123Z" fill="white"/>
</g>
<circle cx="20" cy="20" r="19.5" stroke="black" stroke-opacity="0.05"/>
<defs>
<clipPath id="clip0_18553_55712">
<rect width="36" height="3.6929" fill="white" transform="translate(2.03516 18.2104)"/>
</clipPath>
</defs>
</svg>
