<svg width="40" height="40" viewBox="0 0 40 40" fill="none" xmlns="http://www.w3.org/2000/svg">
<circle cx="20" cy="20" r="20" fill="#61A244"/>
<path d="M7.25432 21.1771C6.92191 21.9316 6.66485 22.7471 6.57593 23.5532C6.52912 23.9784 6.5269 24.4441 6.64602 24.8474C6.93826 25.8368 7.87176 26.2211 8.83435 26.1994C10.1451 26.1701 11.3551 25.556 12.4119 24.8014C12.4243 24.7923 12.4302 24.7956 12.429 24.8111L12.382 25.4083C12.3817 25.4131 12.3802 25.4177 12.3776 25.4216C12.375 25.4256 12.3713 25.4287 12.367 25.4308C10.9099 26.1759 9.17008 26.6928 7.53575 26.4191C6.92634 26.3169 6.3197 26.0751 5.86292 25.6465C4.88953 24.7324 4.88233 23.2543 5.15185 22.0427C5.39146 20.9668 5.86375 19.9344 6.46762 18.9957C7.30517 17.6887 8.36084 16.5352 9.58864 15.5855C10.684 14.7357 11.8843 14.0305 13.1598 13.4874C14.3334 12.9863 15.5994 12.6323 16.865 12.5137C17.3392 12.4662 17.8167 12.4609 18.2918 12.498C19.3677 12.5896 20.4752 13.1351 20.5101 14.3738C20.5285 14.8694 20.3807 15.3569 20.0902 15.7589C19.9996 15.8863 19.7686 16.1367 19.6032 16.1309C19.5924 16.1305 19.5822 16.1263 19.5742 16.1191C19.5662 16.1119 19.561 16.1022 19.5594 16.0915C19.5568 16.076 19.5579 16.0601 19.5627 16.0451C19.5676 16.0301 19.5759 16.0165 19.5871 16.0054C19.7828 15.8042 19.935 15.565 20.0344 15.3025C20.1337 15.04 20.1781 14.76 20.1647 14.4797C20.1584 14.2946 20.119 14.1121 20.0483 13.9409C19.7317 13.209 18.8165 12.9243 18.0855 12.9032C17.1608 12.8755 16.2237 13.1248 15.3636 13.4805C14.723 13.7458 14.1032 14.0589 13.5096 14.4173C12.1713 15.2254 10.9852 16.1478 9.95124 17.1843C9.72446 17.412 9.49113 17.6722 9.25124 17.9649C8.40638 18.9987 7.74074 20.0694 7.25432 21.1771Z" fill="white"/>
<path d="M19.2566 17.4287C18.9818 18.3816 18.578 19.2722 18.0802 20.1367C17.5354 21.0843 16.8633 21.9528 16.0827 22.7179C16.0806 22.7199 16.0778 22.721 16.0749 22.721C16.072 22.721 16.0693 22.7199 16.0672 22.7179C16.0658 22.7165 16.0649 22.7148 16.0644 22.7129C15.9701 22.355 15.7587 22.1031 15.4304 21.9572C15.4287 21.9565 15.4272 21.9555 15.426 21.9542C15.4247 21.9529 15.4238 21.9513 15.4231 21.9497C15.4225 21.948 15.4222 21.9462 15.4222 21.9444C15.4223 21.9426 15.4227 21.9408 15.4234 21.9392C15.4238 21.938 15.4245 21.9368 15.4254 21.9359C16.3796 20.834 17.2359 19.6185 17.9151 18.3246C18.3636 17.4703 18.7461 16.5382 18.8317 15.5988C18.8832 15.0271 18.6699 14.5108 18.0129 14.4847C17.5525 14.4664 17.083 14.5917 16.6522 14.7659C15.6326 15.1786 14.6633 15.8584 13.8207 16.5825C12.7594 17.4885 11.808 18.5157 10.9858 19.6431C10.3626 20.5018 9.80744 21.4683 9.4224 22.4633C9.25022 22.8992 9.12586 23.3526 9.05149 23.8154C8.94817 24.4893 9.01991 25.166 9.48085 25.6868C9.49003 25.6966 9.49679 25.7084 9.50059 25.7213C9.50439 25.7342 9.50513 25.7478 9.50273 25.761C9.50036 25.7748 9.49261 25.7871 9.48119 25.7952C9.46977 25.8033 9.4556 25.8066 9.44179 25.8043H9.43819C9.3846 25.792 9.3348 25.7669 9.29304 25.7311C8.97504 25.4541 8.81077 25.094 8.73598 24.6707C8.68197 24.3632 8.66421 24.0503 8.68307 23.7386C8.73377 22.8611 8.98778 21.9711 9.34456 21.1589C9.76801 20.1967 10.3278 19.3004 11.0066 18.4977C12.0955 17.206 13.3952 16.0434 14.8459 15.1825C15.6029 14.7335 16.4281 14.3592 17.2783 14.2058C17.94 14.0867 18.7383 14.1163 19.1547 14.7354C19.4547 15.1811 19.4912 15.78 19.4505 16.3288C19.424 16.7011 19.359 17.0698 19.2566 17.4287Z" fill="white"/>
<path d="M27.3491 15.886L19.9254 19.9909C19.9241 19.9916 19.9226 19.9921 19.9212 19.9923C19.9197 19.9924 19.9182 19.9923 19.9167 19.9919C19.9153 19.9915 19.9139 19.9908 19.9128 19.9899C19.9116 19.9889 19.9106 19.9878 19.9099 19.9865L19.7104 19.6263C19.7097 19.625 19.7092 19.6236 19.7091 19.6221C19.7089 19.6206 19.709 19.6191 19.7094 19.6177C19.7098 19.6162 19.7105 19.6149 19.7115 19.6137C19.7124 19.6125 19.7136 19.6116 19.7149 19.6108L27.3491 15.3901C27.3508 15.3892 27.3527 15.3887 27.3547 15.3887C27.3566 15.3887 27.3585 15.3892 27.3602 15.3901L34.9944 19.6114C34.9958 19.6121 34.9969 19.6131 34.9979 19.6143C34.9988 19.6154 34.9995 19.6168 34.9999 19.6182C35.0003 19.6197 35.0004 19.6212 35.0003 19.6227C35.0001 19.6242 34.9996 19.6256 34.9989 19.6269L34.7997 19.987C34.799 19.9883 34.798 19.9895 34.7968 19.9904C34.7957 19.9914 34.7943 19.992 34.7929 19.9925C34.7914 19.9929 34.7899 19.993 34.7884 19.9928C34.787 19.9926 34.7855 19.9922 34.7842 19.9914L27.3605 15.8862C27.3588 15.8852 27.3568 15.8846 27.3548 15.8846C27.3528 15.8845 27.3509 15.885 27.3491 15.886Z" fill="#1A1A1A"/>
<path d="M15.3657 23.3928C15.3478 23.2383 15.3178 23.0853 15.2759 22.9355C15.2258 22.7477 15.1195 22.5797 14.9712 22.454C14.8065 22.3144 14.6087 22.2521 14.3779 22.2671C14.1943 22.2795 14.0176 22.3417 13.8668 22.4471C13.5252 22.6804 13.3638 23.0538 13.3167 23.4596C13.291 23.6812 13.2745 23.9055 13.2671 24.1324L13.2463 24.9471C13.2394 25.1966 13.2469 25.4463 13.2687 25.695C13.274 25.7677 13.2869 25.8397 13.3072 25.9097C13.3585 26.0739 13.5446 26.1426 13.7053 26.1698C13.836 26.1917 13.8272 26.3324 13.6975 26.3296C13.1524 26.3169 12.6289 26.2983 12.0879 26.3244C12.0635 26.328 12.0387 26.3241 12.0167 26.313C11.9947 26.3019 11.9767 26.2843 11.9652 26.2626C11.9629 26.2584 11.9616 26.2537 11.9612 26.249C11.9608 26.2442 11.9614 26.2394 11.9629 26.2349C11.9675 26.2184 11.9768 26.2036 11.9897 26.1924C12.0026 26.1812 12.0186 26.1741 12.0355 26.172C12.153 26.1518 12.2879 26.1354 12.3784 26.0557C12.4616 25.982 12.4859 25.7856 12.5006 25.6778C12.5973 24.9662 12.6095 24.2477 12.6114 23.5213C12.6138 22.6397 12.6077 21.7524 12.5931 20.8593C12.5862 20.4471 12.5045 19.7915 12.0006 19.6862C11.9772 19.6827 11.9551 19.6735 11.9362 19.6592C11.9174 19.645 11.9024 19.6263 11.8926 19.6048C11.8903 19.5985 11.8894 19.5918 11.8897 19.5851C11.8901 19.5784 11.8917 19.5718 11.8946 19.5658C11.8975 19.5598 11.9015 19.5543 11.9065 19.5499C11.9115 19.5454 11.9173 19.5419 11.9236 19.5397C11.9274 19.5384 11.9313 19.5376 11.9352 19.5372C11.9685 19.5336 12.002 19.5319 12.0355 19.5322C12.4464 19.5333 12.861 19.521 13.2793 19.4954C13.2906 19.4954 13.2962 19.4998 13.2962 19.5112C13.2921 20.2543 13.2877 21.0206 13.2829 21.8103C13.281 22.1342 13.2852 22.444 13.2953 22.7396C13.2954 22.7408 13.2956 22.742 13.2961 22.743C13.2966 22.7441 13.2973 22.745 13.2981 22.7458C13.299 22.7466 13.3 22.7472 13.3011 22.7477C13.3022 22.7481 13.3033 22.7483 13.3045 22.7482C13.3058 22.7482 13.307 22.7478 13.3082 22.7473C13.3093 22.7467 13.3103 22.7459 13.3111 22.7449C13.738 22.2036 14.3322 21.9305 15.0313 22.033C15.4407 22.0928 15.787 22.3164 15.9413 22.7058C16.061 23.0081 16.1017 23.377 16.0956 23.6934C16.0823 24.3621 16.049 25.1097 16.0781 25.7986C16.0801 25.8592 16.1006 25.9178 16.1369 25.9665C16.2338 26.0992 16.369 26.1669 16.5424 26.1695C16.5909 26.1695 16.6114 26.1944 16.6036 26.2424C16.6026 26.2481 16.5996 26.2532 16.5953 26.257C16.5561 26.2905 16.5061 26.3087 16.4546 26.308C15.8756 26.3112 15.3678 26.3112 14.931 26.308C14.9078 26.3092 14.8848 26.3026 14.8657 26.2892C14.8466 26.2759 14.8324 26.2566 14.8255 26.2343C14.8146 26.2064 14.8331 26.1762 14.8809 26.1435C14.8911 26.1365 14.9028 26.1322 14.915 26.1307C15.1017 26.1077 15.3028 26.041 15.351 25.8476C15.3689 25.7738 15.3804 25.6985 15.3853 25.6227C15.423 25.0596 15.423 24.487 15.4067 23.9302C15.402 23.7581 15.3884 23.579 15.3657 23.3928Z" fill="#1A1A1A"/>
<path d="M23.0226 20.1894C22.9478 20.4315 22.6807 20.564 22.4264 20.4853C22.1721 20.4066 22.0267 20.1465 22.1018 19.9036C22.1769 19.6606 22.4436 19.5291 22.6979 19.6077C22.953 19.687 23.0976 19.9471 23.0226 20.1894Z" fill="#1A1A1A"/>
<path d="M18.1399 23.9863C18.0961 24.2969 18.1121 24.613 18.187 24.9176C18.243 25.1306 18.3412 25.3303 18.4756 25.5048C18.7803 25.9112 19.2138 26.1175 19.713 26.0666C20.0327 26.0339 20.3351 25.9056 20.5808 25.6984C20.6593 25.6338 20.7401 25.5692 20.8232 25.5045C20.9235 25.4264 20.9977 25.5655 20.9468 25.643C20.6839 26.0455 20.2105 26.2865 19.7437 26.3749C19.0634 26.5034 18.4141 26.3488 17.9155 25.853C17.5443 25.4826 17.3433 25.0214 17.3125 24.4696C17.2641 23.5973 17.578 22.9027 18.2543 22.386C19.0399 21.7849 19.975 21.9362 20.6254 22.6467C20.922 22.9706 21.063 23.3541 21.0484 23.7971C21.0489 23.8147 21.0457 23.8322 21.039 23.8485C21.0323 23.8648 21.0222 23.8794 21.0094 23.8915C20.9659 23.9295 20.8326 23.9336 20.7731 23.9345C19.8582 23.9481 18.9861 23.9608 18.1568 23.9724C18.1547 23.9721 18.1526 23.9721 18.1506 23.9727C18.1486 23.9732 18.1467 23.9741 18.1451 23.9755C18.1435 23.9768 18.1422 23.9784 18.1413 23.9803C18.1404 23.9822 18.1399 23.9842 18.1399 23.9863ZM18.7327 22.4278C18.3449 22.7375 18.1994 23.2148 18.1413 23.6987C18.1413 23.7046 18.1432 23.7076 18.149 23.7079C18.6853 23.7311 19.254 23.7591 19.7867 23.7126C20.026 23.6915 20.2382 23.5907 20.2684 23.3248C20.3318 22.7686 19.8922 22.1929 19.3097 22.1938C19.095 22.1952 18.9008 22.2938 18.7327 22.4278Z" fill="#1A1A1A"/>
<path d="M22.1499 22.3461C22.0349 22.3028 21.9127 22.2816 21.7898 22.2835C21.7771 22.2836 21.7646 22.2804 21.7535 22.2744C21.675 22.2312 21.6724 22.1821 21.7458 22.1273C21.7567 22.1189 21.7697 22.1137 21.7834 22.1123C22.2108 22.0649 22.6439 22.0319 23.0829 22.0134C23.0939 22.0134 23.0992 22.0184 23.0989 22.0292C23.0909 22.4879 23.0773 22.9433 23.0859 23.3949C23.0999 24.1176 23.1035 24.8452 23.0967 25.5776C23.0967 25.7145 23.1083 25.9591 23.2302 26.0486C23.3521 26.138 23.5175 26.1433 23.6693 26.1555C23.7185 26.1586 23.7661 26.174 23.8078 26.2004C23.819 26.2075 23.8277 26.2179 23.8327 26.2302C23.8377 26.2426 23.8386 26.2561 23.8355 26.2691C23.8166 26.3441 23.705 26.3289 23.6346 26.3217C23.1062 26.2661 22.5739 26.2581 22.0441 26.2979C21.9488 26.3051 21.8524 26.333 21.7579 26.3231C21.7474 26.3232 21.7369 26.3212 21.7272 26.3172C21.7174 26.3132 21.7085 26.3073 21.7011 26.2999C21.6936 26.2924 21.6877 26.2835 21.6838 26.2738C21.6798 26.264 21.6778 26.2536 21.6779 26.243C21.6668 26.0663 22.2527 26.1599 22.3286 25.9414C22.3583 25.854 22.374 25.7624 22.3751 25.6702C22.3904 24.8676 22.4035 24.1022 22.4144 23.3741C22.4179 23.1276 22.401 22.8812 22.3638 22.6375C22.3392 22.4892 22.2679 22.3921 22.1499 22.3461Z" fill="#1A1A1A"/>
<path d="M25.7403 22.8186C25.7402 22.8195 25.7404 22.8204 25.7407 22.8212C25.741 22.822 25.7414 22.8228 25.742 22.8234C25.7426 22.8241 25.7433 22.8246 25.7441 22.825C25.7449 22.8253 25.7458 22.8255 25.7466 22.8256C25.7486 22.8255 25.7505 22.8248 25.7519 22.8233C26.1347 22.3923 26.6383 22.022 27.2317 22.0131C27.7474 22.0054 28.1569 22.2663 28.4624 22.6793C28.4635 22.6813 28.465 22.6831 28.467 22.6843C28.4689 22.6856 28.4711 22.6864 28.4734 22.6865C28.4757 22.6867 28.478 22.6863 28.4801 22.6853C28.4822 22.6843 28.484 22.6828 28.4854 22.681C29.0034 22.1799 29.6211 21.8954 30.3488 22.0599C30.6013 22.1172 30.83 22.251 31.0036 22.443C31.1521 22.6117 31.1751 22.8275 31.1917 23.051C31.2037 23.2097 31.209 23.3523 31.2075 23.479C31.2007 24.1553 31.195 24.827 31.1906 25.4942C31.1892 25.625 31.2049 25.7554 31.2374 25.882C31.2928 26.0926 31.474 26.1178 31.6601 26.1191C31.6793 26.1185 31.6984 26.1218 31.7163 26.1289C31.7342 26.1359 31.7504 26.1466 31.764 26.1601C31.8044 26.2011 31.777 26.2615 31.7272 26.2787C31.6714 26.2974 31.6129 26.3068 31.554 26.3064C30.9849 26.3095 30.4372 26.3095 29.9111 26.3064C29.8601 26.3065 29.8103 26.2909 29.7685 26.2618C29.763 26.258 29.7585 26.253 29.7553 26.2472C29.7522 26.2414 29.7504 26.2349 29.7502 26.2283C29.7477 26.1621 29.7848 26.1269 29.861 26.123C29.9794 26.1192 30.0968 26.0999 30.2103 26.0657C30.3407 26.024 30.4131 25.9329 30.4275 25.7926C30.4522 25.5525 30.468 25.3133 30.4748 25.0751C30.4892 24.5839 30.4904 24.0997 30.4784 23.6225C30.4739 23.4436 30.4602 23.2651 30.4374 23.0876C30.3795 22.6353 30.0721 22.2386 29.5759 22.268C29.1566 22.2926 28.8302 22.6004 28.5962 22.9206C28.5877 22.9326 28.5812 22.946 28.5771 22.9602C28.5295 23.1284 28.4952 23.3002 28.4743 23.4738C28.3976 24.1006 28.3834 24.7084 28.3848 25.3427C28.385 25.4914 28.3954 25.64 28.4158 25.7873C28.4465 26.0072 28.5708 26.1189 28.7887 26.1222C28.8749 26.1217 28.9611 26.1272 29.0466 26.1388C29.0655 26.1409 29.0832 26.1491 29.0969 26.1622C29.1107 26.1753 29.1198 26.1926 29.1228 26.2114C29.1241 26.216 29.1245 26.2209 29.1238 26.2257C29.1231 26.2305 29.1213 26.2351 29.1186 26.2391C29.1043 26.2617 29.0842 26.2802 29.0604 26.2925C29.0366 26.3048 29.0099 26.3106 28.9832 26.3092C28.4273 26.3107 27.8596 26.3113 27.2801 26.3111C27.2117 26.3119 27.1434 26.305 27.0765 26.2906C26.9552 26.2629 26.9815 26.1244 27.0956 26.1172C27.34 26.1034 27.5596 26.1053 27.6242 25.8203C27.6575 25.6717 27.6793 25.5209 27.6895 25.369C27.7265 24.8483 27.74 24.3231 27.7303 23.7937C27.7261 23.5841 27.7095 23.375 27.6804 23.1674C27.6449 22.9089 27.5751 22.6488 27.3757 22.4768C27.1125 22.2508 26.7317 22.2898 26.4433 22.4566C26.0706 22.6719 25.8467 23.0071 25.7716 23.4621C25.736 23.6783 25.7134 23.8964 25.7037 24.1153C25.688 24.464 25.6832 24.8405 25.6893 25.2449C25.6915 25.3851 25.6982 25.5152 25.7092 25.6352C25.7342 25.9056 25.7547 26.0975 26.0693 26.1227C26.1339 26.128 26.1959 26.1311 26.256 26.1319C26.2666 26.1306 26.2773 26.1318 26.2873 26.1353C26.2973 26.1387 26.3064 26.1445 26.3138 26.152C26.3213 26.1596 26.3269 26.1687 26.3303 26.1787C26.3337 26.1888 26.3347 26.1995 26.3333 26.21C26.3321 26.2269 26.3266 26.2433 26.3174 26.2576C26.3082 26.2718 26.2956 26.2836 26.2807 26.2917C26.2661 26.3022 26.2485 26.3078 26.2306 26.3078C25.6961 26.3117 25.1486 26.3117 24.5879 26.3078C24.5245 26.3078 24.3358 26.3061 24.3334 26.207C24.3331 26.1946 24.3355 26.1824 24.3402 26.171C24.345 26.1597 24.3521 26.1494 24.361 26.1409C24.3699 26.1324 24.3805 26.1259 24.3921 26.1217C24.4037 26.1175 24.4161 26.1158 24.4284 26.1167C24.5824 26.1122 24.7915 26.089 24.8497 25.9228C24.8823 25.8287 24.9048 25.7315 24.917 25.6327C24.9435 25.4294 24.9597 25.2249 24.9655 25.02C24.9849 24.3086 24.9875 23.5877 24.9732 22.8571C24.9708 22.7279 24.9547 22.6307 24.9248 22.5657C24.8494 22.4012 24.7054 22.3103 24.4926 22.2932C24.4308 22.2882 24.3707 22.2828 24.3123 22.2771C24.2483 22.2707 24.2201 22.2364 24.2278 22.1746C24.2297 22.1594 24.2365 22.1452 24.2471 22.1342C24.2578 22.1231 24.2717 22.1158 24.2868 22.1134C24.7458 22.0367 25.2111 22.004 25.6763 22.0156C25.6802 22.0155 25.6841 22.0167 25.6873 22.019C25.6905 22.0213 25.6928 22.0246 25.694 22.0283C25.7854 22.281 25.748 22.5649 25.7403 22.8186Z" fill="#1A1A1A"/>
<circle cx="20" cy="20" r="19.5" stroke="black" stroke-opacity="0.05"/>
</svg>
