<svg width="40" height="40" viewBox="0 0 40 40" fill="none" xmlns="http://www.w3.org/2000/svg">
<circle cx="20" cy="20" r="20" fill="#0095DA"/>
<path d="M21.9424 14.541C22.3542 14.9634 22.2974 15.2013 21.74 15.4711L20.1246 16.2522C20.0173 16.283 19.9179 16.3367 19.8333 16.4096C19.7487 16.4825 19.6809 16.5728 19.6345 16.6743C19.5881 16.7759 19.5642 16.8863 19.5645 16.9979C19.5647 17.1096 19.5892 17.2199 19.6361 17.3212C19.683 17.4225 19.7512 17.5125 19.8362 17.585C19.9211 17.6574 20.0208 17.7106 20.1282 17.7409C20.2357 17.7713 20.3484 17.778 20.4587 17.7606C20.569 17.7432 20.6743 17.7022 20.7672 17.6404L22.4004 16.8984C22.9649 16.6392 23.1814 16.7528 23.2347 17.3386L23.4015 19.064C23.4237 19.29 23.5347 19.498 23.7101 19.6421C23.8856 19.7863 24.1111 19.8548 24.3371 19.8327C24.563 19.8106 24.771 19.6996 24.9151 19.5241C25.0593 19.3487 25.1278 19.1232 25.1057 18.8972L24.953 17.122C24.9033 16.522 25.0986 16.3481 25.7483 16.4546L27.74 16.7776C28.0034 16.8424 28.2814 16.809 28.522 16.6835C28.7625 16.558 28.949 16.3491 29.0465 16.096C29.185 15.6238 28.8619 15.1694 28.2193 15.0771L26.1814 14.7895C25.5246 14.6936 25.4181 14.47 25.7767 13.8984L26.8737 12.1232C27.2288 11.5623 27.0903 11.0191 26.6394 10.8167C26.3816 10.729 26.1006 10.7387 25.8494 10.844C25.5982 10.9493 25.3943 11.1429 25.2761 11.3883L24.2323 13.1634C23.8773 13.7279 23.6359 13.7741 23.2098 13.3445L21.9601 12.07C21.8824 11.9824 21.7874 11.9119 21.6811 11.8628C21.5748 11.8138 21.4595 11.7873 21.3425 11.7849C21.2254 11.7826 21.1092 11.8045 21.001 11.8493C20.8928 11.894 20.7951 11.9607 20.714 12.0451C20.631 12.1255 20.565 12.2218 20.5199 12.3282C20.4749 12.4347 20.4516 12.5491 20.4516 12.6646C20.4516 12.7802 20.4749 12.8946 20.5199 13.001C20.565 13.1075 20.631 13.2037 20.714 13.2842L21.9424 14.541Z" fill="white"/>
<path d="M11.1599 14.6578C11.199 15.0803 11.0747 15.1904 10.6664 15.0945L9.48063 14.814C9.40837 14.7861 9.33087 14.7745 9.25359 14.7798C9.17632 14.7852 9.10116 14.8074 9.03343 14.845C8.96571 14.8826 8.90706 14.9346 8.86164 14.9973C8.81622 15.0601 8.78513 15.132 8.77057 15.2081C8.75419 15.2841 8.75358 15.3626 8.76877 15.4389C8.78396 15.5151 8.81464 15.5874 8.8589 15.6513C8.90316 15.7152 8.96007 15.7693 9.0261 15.8103C9.09212 15.8514 9.16587 15.8784 9.24276 15.8898L10.4179 16.1915C10.8191 16.2945 10.8865 16.4507 10.6735 16.8022L10.0522 17.8353C10.0078 17.9001 9.97654 17.973 9.96033 18.0498C9.94411 18.1267 9.94324 18.206 9.95775 18.2832C9.97227 18.3604 10.0019 18.4339 10.0449 18.4996C10.0879 18.5653 10.1435 18.6219 10.2084 18.6661C10.2731 18.7086 10.346 18.7372 10.4223 18.7499C10.4987 18.7625 10.5768 18.759 10.6518 18.7396C10.7267 18.7202 10.7967 18.6853 10.8574 18.6372C10.918 18.5891 10.9678 18.5288 11.0037 18.4602L11.6428 17.4164C11.8629 17.0614 12.0333 17.0614 12.3173 17.388L13.1836 18.3856C13.2832 18.5268 13.4341 18.6233 13.604 18.6545C13.7739 18.6857 13.9493 18.6491 14.0925 18.5525C14.1558 18.4972 14.2065 18.429 14.2413 18.3524C14.276 18.2759 14.294 18.1928 14.294 18.1087C14.294 18.0246 14.276 17.9415 14.2413 17.865C14.2065 17.7885 14.1558 17.7202 14.0925 17.6649L13.2191 16.6566C12.9244 16.3016 12.967 16.1525 13.3753 15.9892L14.6321 15.4921C14.7162 15.4701 14.7946 15.4305 14.8622 15.3759C14.9298 15.3213 14.985 15.253 15.0243 15.1755C15.0636 15.098 15.0859 15.0131 15.0899 14.9263C15.0939 14.8395 15.0795 14.7528 15.0475 14.672C15.007 14.594 14.9516 14.5249 14.8843 14.4684C14.8171 14.4119 14.7393 14.3692 14.6556 14.3428C14.5718 14.3164 14.4836 14.3068 14.3961 14.3146C14.3087 14.3223 14.2236 14.3473 14.1457 14.388L12.9031 14.9063C12.4984 15.0732 12.3493 14.9844 12.3102 14.5513L12.1931 13.2661C12.1939 13.1842 12.1775 13.103 12.145 13.0278C12.1126 12.9526 12.0647 12.885 12.0044 12.8295C11.9442 12.774 11.873 12.7317 11.7954 12.7053C11.7178 12.679 11.6356 12.6693 11.554 12.6767C11.4739 12.6897 11.3971 12.7183 11.3281 12.7611C11.2591 12.8038 11.1993 12.8599 11.1521 12.9259C11.1049 12.9919 11.0712 13.0667 11.0531 13.1458C11.0349 13.2249 11.0326 13.3068 11.0463 13.3868L11.1599 14.6578Z" fill="white"/>
<path d="M31.8149 20.9065C31.6587 20.5301 31.1652 20.342 30.6185 20.5195L28.9676 21.0769C28.4137 21.258 28.2185 21.1444 28.1972 20.626L28.1297 19.0603C28.1303 18.955 28.1086 18.8508 28.0662 18.7544C28.0238 18.658 27.9615 18.5717 27.8834 18.501C27.8054 18.4303 27.7133 18.3768 27.6132 18.3442C27.5131 18.3115 27.4072 18.3002 27.3025 18.3112C27.1978 18.3165 27.0952 18.343 27.0009 18.3889C26.9067 18.4349 26.8227 18.4995 26.754 18.5787C26.6854 18.658 26.6335 18.7503 26.6014 18.8502C26.5694 18.95 26.5579 19.0553 26.5676 19.1597L26.6421 20.6935C26.6634 21.2012 26.4895 21.3219 25.9534 21.187L24.3912 20.7929C24.3002 20.7577 24.203 20.741 24.1054 20.7438C24.0078 20.7466 23.9118 20.7688 23.8229 20.8091C23.734 20.8494 23.654 20.9071 23.5876 20.9787C23.5212 21.0502 23.4697 21.1343 23.4362 21.226C23.4184 21.3199 23.4198 21.4165 23.4402 21.5098C23.4607 21.6032 23.4997 21.6915 23.5551 21.7694C23.6105 21.8473 23.681 21.9132 23.7624 21.9632C23.8439 22.0132 23.9346 22.0462 24.0291 22.0603L25.5664 22.4793C26.0918 22.6213 26.1699 22.8059 25.8682 23.2071L24.9912 24.3822C24.9304 24.4528 24.8857 24.5359 24.8604 24.6256C24.835 24.7153 24.8296 24.8094 24.8445 24.9015C24.8594 24.9935 24.8942 25.0811 24.9466 25.1582C24.9989 25.2353 25.0675 25.3001 25.1475 25.3479C25.3151 25.4606 25.52 25.5035 25.7188 25.4678C25.9176 25.432 26.0947 25.3202 26.2125 25.1562L27.125 23.9846C27.4374 23.5799 27.6611 23.5799 28.0161 23.9846L29.0421 25.1597C29.1773 25.3376 29.3725 25.4601 29.5913 25.5045C29.8102 25.549 30.0377 25.5122 30.2315 25.4012C30.5865 25.1881 30.6824 24.7834 30.3167 24.368L29.2516 23.1751C28.8966 22.7633 28.9534 22.568 29.5179 22.3976L31.1759 21.8686C31.7297 21.7053 31.9711 21.2828 31.8149 20.9065Z" fill="white"/>
<path d="M19.94 10.7775L19.3116 10.3337C19.0986 10.1811 19.1092 10.0817 19.3542 9.93967L20.0642 9.51718C20.2879 9.38582 20.3518 9.1799 20.2453 9.02369C20.1769 8.94352 20.0809 8.89204 19.9762 8.87954C19.8716 8.86704 19.7661 8.89443 19.6808 8.95623L18.9459 9.37872C18.7009 9.52073 18.5909 9.48877 18.5305 9.2438L18.3352 8.50889C18.3228 8.45769 18.3003 8.40949 18.269 8.36715C18.2376 8.32481 18.1981 8.28919 18.1528 8.26238C18.1074 8.23557 18.0572 8.21812 18.005 8.21107C17.9528 8.20402 17.8997 8.2075 17.8488 8.22132C17.7973 8.231 17.7483 8.25146 17.7052 8.28136C17.6621 8.31127 17.6258 8.34994 17.5986 8.39484C17.5715 8.43975 17.5541 8.48988 17.5477 8.54196C17.5413 8.59403 17.5459 8.6469 17.5613 8.69707L17.7565 9.43551C17.824 9.68048 17.7565 9.76215 17.4512 9.75505L16.5565 9.7373C16.4434 9.7206 16.3282 9.74819 16.235 9.81433C16.1417 9.88048 16.0776 9.98006 16.056 10.0923C16.0382 10.2876 16.2086 10.4474 16.4855 10.4474H17.3802C17.6749 10.4474 17.7352 10.5326 17.6181 10.774L17.2631 11.484C17.2354 11.5257 17.2182 11.5734 17.213 11.6231C17.2078 11.6728 17.2148 11.723 17.2333 11.7695C17.2518 11.8159 17.2813 11.8572 17.3192 11.8897C17.3572 11.9222 17.4025 11.9451 17.4512 11.9562C17.5577 11.9832 17.6703 11.9717 17.7691 11.9236C17.8679 11.8755 17.9464 11.794 17.9909 11.6935L18.3459 10.9835C18.456 10.7456 18.5696 10.7172 18.7861 10.8663L19.4216 11.3065C19.5048 11.3726 19.6098 11.4049 19.7158 11.397C19.8217 11.3891 19.9208 11.3416 19.9932 11.2639C20.0288 11.2306 20.0559 11.1892 20.0722 11.1432C20.0885 11.0973 20.0936 11.0481 20.087 10.9998C20.0804 10.9514 20.0623 10.9054 20.0343 10.8655C20.0062 10.8256 19.969 10.793 19.9258 10.7704" fill="white"/>
<path d="M9.3454 21.8793L8.50398 22.0106C8.44827 22.0197 8.39131 22.0177 8.33636 22.0048C8.2814 21.9919 8.22953 21.9683 8.18371 21.9353C8.13788 21.9023 8.099 21.8607 8.06928 21.8127C8.03956 21.7647 8.01959 21.7113 8.01049 21.6556C8.0014 21.5999 8.00337 21.5429 8.0163 21.488C8.02922 21.433 8.05283 21.3812 8.0858 21.3353C8.11877 21.2895 8.16044 21.2506 8.20844 21.2209C8.25643 21.1912 8.30981 21.1712 8.36552 21.1621L9.20339 21.0236C9.48742 20.9775 9.53712 20.8603 9.40221 20.5727L8.99393 19.7207C8.93272 19.6177 8.91262 19.4954 8.93763 19.3783C8.96263 19.2611 9.03092 19.1577 9.12884 19.0887C9.18015 19.063 9.23648 19.0488 9.29387 19.047C9.35126 19.0453 9.40833 19.0562 9.46108 19.0789C9.51383 19.1015 9.561 19.1354 9.59928 19.1782C9.63755 19.221 9.66602 19.2717 9.68268 19.3266L10.091 20.1858C10.233 20.4733 10.3466 20.4946 10.549 20.2674L11.1525 19.5893C11.1849 19.5405 11.2281 19.4999 11.2787 19.4705C11.3294 19.4412 11.3862 19.4239 11.4446 19.4201C11.503 19.4163 11.5615 19.4261 11.6156 19.4487C11.6696 19.4713 11.7177 19.506 11.7561 19.5503C11.7978 19.5954 11.8303 19.6483 11.8515 19.7059C11.8727 19.7636 11.8822 19.825 11.8796 19.8864C11.8769 19.9478 11.8621 20.0081 11.8361 20.0637C11.81 20.1194 11.7731 20.1693 11.7277 20.2106L11.1206 20.8923C10.9182 21.1195 10.9359 21.2473 11.1987 21.3964L11.9975 21.8509C12.1083 21.9062 12.1943 22.0011 12.2384 22.1169C12.2824 22.2326 12.2813 22.3607 12.2353 22.4757C12.2108 22.5285 12.1749 22.5752 12.1302 22.6125C12.0855 22.6498 12.0331 22.6766 11.9767 22.6912C11.9204 22.7058 11.8615 22.7078 11.8043 22.6969C11.7471 22.686 11.6931 22.6626 11.646 22.6284L10.8578 22.1704C10.5916 22.0213 10.5028 22.0816 10.4495 22.3976L10.3324 23.3455C10.2933 23.6366 10.0945 23.7964 9.8815 23.7503C9.76545 23.7178 9.66654 23.6415 9.60561 23.5375C9.54468 23.4336 9.52649 23.31 9.55487 23.1929L9.67203 22.2414C9.71463 21.9254 9.62943 21.8331 9.3454 21.8864" fill="white"/>
<path d="M18.7898 19.6925C18.9815 20.005 18.9247 20.1399 18.5696 20.2215L17.5045 20.4665C17.4364 20.476 17.3709 20.4996 17.3123 20.5357C17.2537 20.5719 17.2032 20.6198 17.1641 20.6765C17.125 20.7332 17.0981 20.7973 17.0851 20.8649C17.0721 20.9326 17.0733 21.0021 17.0886 21.0693C17.1039 21.1364 17.133 21.1996 17.174 21.2549C17.215 21.3102 17.2671 21.3564 17.3269 21.3905C17.3867 21.4246 17.4529 21.446 17.5214 21.4531C17.5899 21.4603 17.6591 21.4532 17.7247 21.4322L18.7898 21.1979C19.1448 21.1162 19.2655 21.2192 19.2371 21.592L19.1554 22.7245C19.1433 22.7977 19.1458 22.8727 19.1629 22.945C19.1799 23.0172 19.2112 23.0854 19.2548 23.1455C19.2983 23.2056 19.3534 23.2565 19.4168 23.2951C19.4802 23.3338 19.5507 23.3594 19.6241 23.3706C19.6966 23.3784 19.7699 23.3704 19.8391 23.3472C19.9082 23.324 19.9716 23.2862 20.0248 23.2363C20.0781 23.1865 20.1199 23.1257 20.1476 23.0582C20.1752 22.9907 20.188 22.9181 20.185 22.8452L20.2596 21.702C20.288 21.3186 20.4158 21.244 20.7779 21.3967L21.875 21.8689C21.9412 21.9072 22.0146 21.9314 22.0906 21.9399C22.1666 21.9484 22.2435 21.9411 22.3166 21.9184C22.3896 21.8958 22.4572 21.8582 22.515 21.8081C22.5728 21.758 22.6196 21.6965 22.6525 21.6275C22.6742 21.5554 22.6814 21.4798 22.6737 21.405C22.666 21.3301 22.6434 21.2576 22.6074 21.1915C22.5714 21.1255 22.5227 21.0672 22.464 21.0202C22.4053 20.9731 22.3378 20.9382 22.2655 20.9174L21.1614 20.463C20.8063 20.3174 20.7637 20.1647 21.0122 19.8807L21.7507 19.0286C21.803 18.9791 21.8441 18.9189 21.8712 18.8521C21.8982 18.7853 21.9107 18.7135 21.9077 18.6415C21.9046 18.5695 21.8862 18.499 21.8536 18.4347C21.821 18.3704 21.775 18.3139 21.7187 18.2689C21.6 18.1817 21.4515 18.1451 21.3058 18.167C21.1601 18.189 21.029 18.2677 20.9412 18.386L20.2312 19.2275C19.9898 19.5115 19.8371 19.5008 19.6418 19.1884L19.0596 18.2689C19.0283 18.2093 18.9851 18.1567 18.9327 18.1145C18.8802 18.0723 18.8197 18.0414 18.7547 18.0237C18.6898 18.0059 18.6219 18.0018 18.5553 18.0114C18.4887 18.0211 18.4248 18.0444 18.3675 18.0798C18.3103 18.1153 18.261 18.1621 18.2227 18.2175C18.1844 18.2728 18.1579 18.3355 18.1449 18.4015C18.1319 18.4676 18.1326 18.5356 18.1471 18.6013C18.1615 18.6671 18.1893 18.7292 18.2288 18.7837L18.7898 19.6925Z" fill="white"/>
<path d="M16.6019 14.3775C16.8362 14.6296 16.8185 14.761 16.5309 14.903L15.7037 15.3148C15.6474 15.3384 15.5966 15.3734 15.5544 15.4176C15.5123 15.4617 15.4797 15.5141 15.4587 15.5714C15.4377 15.6287 15.4288 15.6897 15.4324 15.7506C15.4361 15.8116 15.4523 15.8711 15.48 15.9255C15.507 15.98 15.5447 16.0285 15.5909 16.0681C15.637 16.1078 15.6906 16.1378 15.7486 16.1563C15.8065 16.1748 15.8676 16.1816 15.9282 16.1761C15.9888 16.1706 16.0476 16.153 16.1013 16.1243L16.9392 15.7231C17.2232 15.5882 17.3368 15.6556 17.3865 15.9823L17.525 16.948C17.5332 17.0716 17.5894 17.1872 17.6815 17.2701C17.7737 17.353 17.8946 17.3966 18.0185 17.3917C18.0779 17.3831 18.1348 17.3621 18.1856 17.3301C18.2364 17.2981 18.2799 17.2559 18.3134 17.206C18.3468 17.1562 18.3694 17.0999 18.3798 17.0407C18.3902 16.9816 18.388 16.921 18.3735 16.8627L18.2421 15.8864C18.196 15.5562 18.2918 15.4639 18.5972 15.5314L19.5628 15.7373C19.6249 15.7553 19.69 15.7603 19.7541 15.7519C19.8181 15.7435 19.8798 15.722 19.9351 15.6886C19.9905 15.6553 20.0383 15.6108 20.0757 15.5581C20.113 15.5054 20.1391 15.4455 20.1522 15.3823C20.1643 15.3183 20.1631 15.2526 20.1486 15.1891C20.1342 15.1257 20.1067 15.0659 20.0681 15.0136C20.0294 14.9612 19.9803 14.9175 19.9239 14.885C19.8675 14.8525 19.805 14.832 19.7404 14.8249L18.7605 14.619C18.4338 14.548 18.377 14.4237 18.5333 14.1219L19.0125 13.1917C19.0825 13.0763 19.1057 12.9384 19.0773 12.8064C19.0489 12.6744 18.9711 12.5582 18.8599 12.4817C18.8013 12.4502 18.7366 12.4318 18.6702 12.4277C18.6039 12.4235 18.5374 12.4338 18.4754 12.4577C18.4133 12.4816 18.3572 12.5187 18.3108 12.5663C18.2644 12.614 18.2289 12.6711 18.2066 12.7338L17.738 13.671C17.5853 13.9799 17.4575 13.9976 17.2232 13.742L16.5131 12.9716C16.2788 12.7089 16.009 12.7195 15.8421 12.9042C15.7561 13.0058 15.7134 13.1373 15.7234 13.2701C15.7334 13.4029 15.7951 13.5265 15.8954 13.6142L16.6019 14.3775Z" fill="white"/>
<path d="M22.5171 23.0581C22.5132 23.0055 22.4987 22.9543 22.4743 22.9076C22.4499 22.8609 22.4162 22.8197 22.3753 22.7864C22.3344 22.7532 22.2872 22.7287 22.2365 22.7143C22.1858 22.7 22.1327 22.6961 22.0805 22.703C21.9703 22.7206 21.8714 22.7806 21.8051 22.8702C21.7387 22.9598 21.7101 23.0719 21.7254 23.1824L21.8035 23.9989C21.8319 24.2687 21.7432 24.354 21.4662 24.2971L20.6355 24.1516C20.531 24.1233 20.4195 24.1378 20.3256 24.1917C20.2318 24.2456 20.1631 24.3346 20.1349 24.4391C20.1236 24.4916 20.1244 24.5459 20.1371 24.598C20.1498 24.6501 20.1742 24.6986 20.2083 24.74C20.2425 24.7813 20.2856 24.8144 20.3343 24.8367C20.3831 24.859 20.4363 24.8699 20.4899 24.8687L21.31 25.0107C21.587 25.0604 21.6331 25.1563 21.4875 25.3906L21.0651 26.1007C21.0353 26.1408 21.0144 26.1867 21.0036 26.2355C20.9928 26.2843 20.9924 26.3347 21.0024 26.3837C21.0125 26.4326 21.0328 26.4788 21.0619 26.5194C21.091 26.56 21.1284 26.5939 21.1716 26.619C21.2675 26.6655 21.3777 26.6729 21.479 26.6398C21.5803 26.6067 21.6648 26.5356 21.7148 26.4415L22.1444 25.7528C22.2935 25.522 22.4071 25.5078 22.5952 25.7031L23.1526 26.2818C23.2252 26.3635 23.3262 26.4145 23.435 26.4244C23.5438 26.4343 23.6523 26.4023 23.7384 26.335C23.778 26.3017 23.8098 26.2601 23.8317 26.2132C23.8535 26.1663 23.8648 26.1152 23.8648 26.0634C23.8648 26.0117 23.8535 25.9605 23.8317 25.9136C23.8098 25.8667 23.778 25.8251 23.7384 25.7918L23.1739 25.206C22.9858 25.0108 23.0142 24.9007 23.2805 24.7871L24.0935 24.4321C24.3668 24.3114 24.4485 24.0948 24.3633 23.9102C24.338 23.8599 24.3024 23.8156 24.2587 23.7801C24.2151 23.7447 24.1644 23.7189 24.1101 23.7045C24.0557 23.69 23.9989 23.6873 23.9434 23.6965C23.8879 23.7056 23.835 23.7264 23.7881 23.7575L22.9787 24.1125C22.7089 24.2332 22.6236 24.18 22.5846 23.9066L22.5171 23.0581Z" fill="white"/>
<path d="M28.0764 26.0614C28.222 25.8164 28.1687 25.5892 27.9806 25.5111C27.868 25.4833 27.7492 25.4957 27.6448 25.5463C27.5404 25.5969 27.457 25.6824 27.409 25.788L26.9474 26.5797C26.7983 26.8389 26.6847 26.8673 26.5001 26.6898L25.9569 26.1643C25.919 26.1273 25.874 26.0984 25.8245 26.0795C25.775 26.0605 25.7222 26.052 25.6693 26.0543C25.6164 26.0567 25.5645 26.0698 25.5169 26.093C25.4692 26.1162 25.4269 26.1489 25.3924 26.1892C25.354 26.2247 25.3234 26.2678 25.3024 26.3158C25.2815 26.3638 25.2707 26.4155 25.2707 26.4679C25.2707 26.5202 25.2815 26.572 25.3024 26.6199C25.3234 26.6679 25.354 26.711 25.3924 26.7466L25.9321 27.272C26.1131 27.446 26.0847 27.556 25.8255 27.7051L25.0587 28.1383C24.9588 28.1795 24.8781 28.2568 24.8327 28.3548C24.7873 28.4529 24.7805 28.5645 24.8137 28.6673C24.8883 28.8412 25.1084 28.8945 25.3392 28.7631L26.1096 28.3335C26.3723 28.1915 26.4646 28.2306 26.4859 28.5004L26.5463 29.2992C26.5452 29.3501 26.556 29.4005 26.5776 29.4466C26.5993 29.4926 26.6313 29.533 26.6712 29.5646C26.7111 29.5963 26.7577 29.6182 26.8075 29.6289C26.8572 29.6395 26.9088 29.6384 26.9581 29.6258C27.0673 29.5998 27.1634 29.5351 27.2286 29.4438C27.2939 29.3524 27.3239 29.2406 27.3131 29.1288L27.2421 28.3264C27.2208 28.0566 27.3096 27.9714 27.5971 27.9927L28.4457 28.0495C28.5634 28.0658 28.683 28.0388 28.7823 27.9735C28.8816 27.9082 28.9537 27.809 28.9853 27.6945C29.0421 27.4815 28.9321 27.2969 28.6303 27.2827L27.7818 27.2294C27.4977 27.2294 27.4516 27.1158 27.6078 26.8531L28.0764 26.0614Z" fill="white"/>
<path d="M17.2737 31.2236L17.579 30.5917C17.6784 30.3858 17.7708 30.368 17.9341 30.5278L18.4631 31.0142C18.5266 31.0821 18.6143 31.1225 18.7072 31.1264C18.8002 31.1304 18.891 31.0978 18.9601 31.0355C18.9896 31.0009 19.0116 30.9606 19.0247 30.917C19.0377 30.8734 19.0415 30.8276 19.0358 30.7825C19.0302 30.7374 19.0151 30.6939 18.9917 30.655C18.9682 30.616 18.9369 30.5824 18.8997 30.5562L18.3672 30.0804C18.1932 29.9207 18.2039 29.8284 18.4098 29.7254L19.024 29.4024C19.0643 29.3866 19.1007 29.3624 19.1307 29.3313C19.1608 29.3003 19.1839 29.2631 19.1984 29.2224C19.2128 29.1817 19.2184 29.1383 19.2146 29.0952C19.2109 29.0521 19.198 29.0104 19.1767 28.9728C19.125 28.8997 19.0476 28.8489 18.9601 28.8305C18.8725 28.8121 18.7812 28.8274 18.7045 28.8733L18.0974 29.1929C17.8879 29.2994 17.8063 29.2603 17.7601 29.0402L17.6252 28.3976C17.62 28.3564 17.6066 28.3167 17.5858 28.2807C17.5651 28.2448 17.5373 28.2133 17.5043 28.1882C17.4712 28.1631 17.4335 28.1448 17.3933 28.1344C17.3531 28.124 17.3112 28.1218 17.2702 28.1278C17.2283 28.1346 17.1883 28.1503 17.153 28.1737C17.1177 28.1972 17.0877 28.2279 17.0652 28.2639C17.0427 28.2998 17.0281 28.3402 17.0224 28.3822C17.0168 28.4243 17.0201 28.467 17.0323 28.5077L17.1565 29.1538C17.1992 29.3704 17.1352 29.4343 16.9045 29.4059L16.2193 29.3207C16.1766 29.3113 16.1325 29.3105 16.0895 29.3183C16.0465 29.3261 16.0055 29.3424 15.9688 29.3662C15.9322 29.39 15.9006 29.4208 15.876 29.4568C15.8513 29.4929 15.834 29.5335 15.8252 29.5763C15.8191 29.6202 15.8225 29.6648 15.835 29.7073C15.8475 29.7498 15.8689 29.7891 15.8978 29.8226C15.9267 29.8562 15.9624 29.8833 16.0025 29.902C16.0426 29.9207 16.0862 29.9307 16.1305 29.9313L16.8406 30.0201C17.0713 30.0485 17.1175 30.1301 17.0145 30.3361L16.7092 30.9609C16.6876 30.9995 16.6742 31.0421 16.6697 31.0861C16.6653 31.1301 16.6699 31.1746 16.6834 31.2167C16.6968 31.2588 16.7187 31.2978 16.7478 31.3311C16.7769 31.3644 16.8125 31.3914 16.8524 31.4104C16.8924 31.4294 16.9358 31.44 16.98 31.4415C17.0242 31.443 17.0682 31.4355 17.1094 31.4193C17.1505 31.4031 17.1879 31.3787 17.2192 31.3475C17.2506 31.3163 17.2751 31.2789 17.2915 31.2378" fill="white"/>
<path d="M23.2062 28.7707L23.76 27.9826C23.8005 27.9367 23.8308 27.8828 23.8489 27.8244C23.8671 27.766 23.8726 27.7044 23.8652 27.6437C23.8579 27.583 23.8377 27.5246 23.8061 27.4722C23.7745 27.4199 23.7322 27.3748 23.6819 27.34C23.572 27.2796 23.4427 27.2647 23.3219 27.2985C23.2011 27.3324 23.0984 27.4123 23.0358 27.521L22.4926 28.3269C22.3115 28.5932 22.1873 28.6003 21.992 28.3554L21.4027 27.6453C21.3702 27.5938 21.3271 27.5498 21.2763 27.5163C21.2255 27.4827 21.1682 27.4603 21.1081 27.4506C21.048 27.4408 20.9865 27.444 20.9278 27.4598C20.869 27.4756 20.8142 27.5037 20.7671 27.5423C20.7195 27.5799 20.6805 27.6273 20.6528 27.6814C20.6251 27.7354 20.6093 27.7947 20.6066 27.8554C20.6039 27.916 20.6143 27.9765 20.6371 28.0328C20.6599 28.089 20.6946 28.1397 20.7387 28.1814L21.321 28.8914C21.5127 29.1293 21.4808 29.2465 21.1861 29.3565L20.3198 29.6761C20.2642 29.6905 20.2122 29.7163 20.167 29.7519C20.1219 29.7875 20.0846 29.8321 20.0576 29.8828C20.0306 29.9335 20.0144 29.9893 20.01 30.0466C20.0056 30.1039 20.0132 30.1615 20.0322 30.2157C20.0556 30.2687 20.0893 30.3165 20.1315 30.3562C20.1736 30.3959 20.2233 30.4268 20.2776 30.447C20.3319 30.4672 20.3897 30.4763 20.4475 30.4738C20.5054 30.4712 20.5622 30.4571 20.6145 30.4323L21.4772 30.1163C21.7719 30.0133 21.8713 30.0808 21.8855 30.379L21.9174 31.2666C21.9144 31.325 21.9236 31.3834 21.9443 31.4382C21.9651 31.4929 21.997 31.5427 22.038 31.5844C22.079 31.6262 22.1282 31.6589 22.1826 31.6807C22.2369 31.7024 22.2951 31.7126 22.3536 31.7106C22.4121 31.7086 22.4695 31.6945 22.5223 31.6692C22.575 31.6439 22.6219 31.6078 22.66 31.5634C22.6981 31.519 22.7266 31.4672 22.7436 31.4112C22.7606 31.3552 22.7658 31.2963 22.7589 31.2382L22.7305 30.3435C22.7305 30.0453 22.8228 29.9672 23.1281 30.0488L24.0405 30.2938C24.1569 30.3344 24.2845 30.3282 24.3964 30.2765C24.5084 30.2249 24.5959 30.1318 24.6405 30.0169C24.6562 29.9586 24.6592 29.8976 24.6494 29.8381C24.6395 29.7785 24.617 29.7217 24.5834 29.6716C24.5497 29.6215 24.5057 29.5792 24.4543 29.5475C24.403 29.5158 24.3454 29.4955 24.2855 29.4879L23.366 29.25C23.0571 29.1684 23.0109 29.0512 23.1956 28.792" fill="white"/>
<path d="M30.4979 19.0285L30.9701 19.5433C31.0001 19.5798 31.0377 19.6091 31.0804 19.6293C31.1231 19.6494 31.1697 19.6599 31.2168 19.6599C31.264 19.6599 31.3106 19.6494 31.3533 19.6293C31.3959 19.6091 31.4336 19.5798 31.4636 19.5433C31.4985 19.5102 31.5263 19.4703 31.5453 19.426C31.5643 19.3818 31.5741 19.3341 31.5741 19.2859C31.5741 19.2378 31.5643 19.1901 31.5453 19.1459C31.5263 19.1016 31.4985 19.0617 31.4636 19.0285L30.9914 18.5173C30.8316 18.3469 30.8565 18.2475 31.0801 18.1268L31.7511 17.7717C31.8402 17.7339 31.9118 17.664 31.9519 17.576C31.992 17.4879 31.9976 17.388 31.9677 17.296C31.9458 17.2557 31.9155 17.2207 31.8788 17.1932C31.8421 17.1656 31.7999 17.1464 31.7552 17.1366C31.7104 17.1268 31.664 17.1268 31.6192 17.1366C31.5744 17.1463 31.5322 17.1656 31.4955 17.193L30.8316 17.5481C30.6115 17.6723 30.5299 17.6297 30.5121 17.3919L30.4624 16.6818C30.4658 16.6369 30.4583 16.5918 30.4405 16.5504C30.4228 16.509 30.3954 16.4725 30.3605 16.444C30.3257 16.4154 30.2845 16.3957 30.2405 16.3864C30.1964 16.3771 30.1507 16.3786 30.1074 16.3907C30.0153 16.4141 29.935 16.4703 29.8814 16.5488C29.8278 16.6272 29.8047 16.7224 29.8162 16.8167L29.8624 17.5268C29.8624 17.7682 29.802 17.8392 29.5713 17.8108L28.8932 17.7327C28.7995 17.7184 28.7039 17.7396 28.6251 17.7921C28.5463 17.8447 28.4899 17.9248 28.4671 18.0167C28.4572 18.0577 28.4563 18.1003 28.4647 18.1416C28.473 18.1829 28.4903 18.2218 28.5154 18.2557C28.5405 18.2896 28.5727 18.3175 28.6097 18.3376C28.6468 18.3576 28.6878 18.3693 28.7298 18.3717L29.4115 18.4534C29.6458 18.4853 29.6813 18.5706 29.55 18.8084L29.1949 19.5007C29.1384 19.5761 29.1142 19.6707 29.1275 19.764C29.1408 19.8572 29.1906 19.9413 29.2659 19.9978C29.3107 20.0171 29.359 20.0269 29.4078 20.0267C29.4566 20.0265 29.5048 20.0163 29.5494 19.9966C29.5941 19.977 29.6342 19.9483 29.6672 19.9125C29.7003 19.8766 29.7257 19.8344 29.7417 19.7883L30.118 19.096C30.2458 18.8688 30.3417 18.851 30.4979 19.0214" fill="white"/>
<path d="M16.0842 19.9587L16.7588 19.7315C16.85 19.7096 16.9288 19.6525 16.978 19.5727C17.0272 19.4928 17.0429 19.3968 17.0215 19.3055C17.0102 19.2618 16.9891 19.2212 16.9598 19.1868C16.9305 19.1524 16.8938 19.1251 16.8524 19.107C16.8111 19.0889 16.7661 19.0804 16.721 19.0822C16.6759 19.084 16.6317 19.096 16.5919 19.1173L15.9209 19.3481C15.7043 19.4226 15.6333 19.3694 15.644 19.1315L15.6759 18.4214C15.6759 18.2049 15.5552 18.0664 15.3848 18.0664C15.2963 18.0744 15.214 18.1153 15.1542 18.1811C15.0944 18.2468 15.0614 18.3326 15.0617 18.4214L15.0298 19.1315C15.0298 19.3658 14.9446 19.4226 14.7351 19.3552L14.1174 19.1422C14.0771 19.1276 14.0343 19.1212 13.9914 19.1233C13.9486 19.1254 13.9067 19.1361 13.868 19.1546C13.8294 19.1731 13.7948 19.1991 13.7663 19.2311C13.7378 19.2631 13.7159 19.3004 13.702 19.341C13.6871 19.3812 13.6807 19.4241 13.6831 19.4669C13.6855 19.5097 13.6968 19.5516 13.7161 19.5899C13.7354 19.6282 13.7624 19.6621 13.7954 19.6895C13.8284 19.717 13.8667 19.7373 13.9079 19.7493L14.5256 19.9587C14.7316 20.0297 14.7564 20.1185 14.618 20.3137L14.2026 20.8711C14.1475 20.9387 14.1193 21.0242 14.1232 21.1113C14.1271 21.1984 14.163 21.281 14.2239 21.3433C14.2588 21.3683 14.2986 21.3856 14.3407 21.3941C14.3827 21.4026 14.4261 21.4021 14.468 21.3928C14.5098 21.3834 14.5493 21.3653 14.5837 21.3396C14.6181 21.314 14.6467 21.2814 14.6677 21.2439L15.0866 20.6794C15.2286 20.4877 15.3174 20.4877 15.4416 20.6794L15.8144 21.2581C15.8347 21.2971 15.8631 21.3312 15.8977 21.3583C15.9323 21.3854 15.9723 21.4048 16.0149 21.4152C16.0576 21.4256 16.102 21.4268 16.1452 21.4187C16.1884 21.4106 16.2293 21.3934 16.2653 21.3682C16.337 21.3114 16.3841 21.2292 16.3967 21.1385C16.4092 21.0479 16.3863 20.956 16.3327 20.8818L15.9564 20.3031C15.8322 20.1114 15.8641 20.0226 16.0842 19.9481" fill="white"/>
<path d="M17.6998 27.6166L18.1684 27.29C18.3282 27.1835 18.3992 27.2048 18.456 27.3823L18.6264 27.9183C18.6364 27.9515 18.6529 27.9823 18.6748 28.009C18.6967 28.0358 18.7237 28.0579 18.7542 28.0742C18.7847 28.0906 18.8181 28.1007 18.8525 28.1041C18.8869 28.1075 18.9217 28.1041 18.9548 28.0941C18.9879 28.0841 19.0187 28.0676 19.0455 28.0457C19.0722 28.0238 19.0944 27.9968 19.1107 27.9663C19.127 27.9358 19.1372 27.9024 19.1406 27.868C19.144 27.8335 19.1406 27.7988 19.1305 27.7657L18.9601 27.2296C18.9033 27.0521 18.9601 26.9917 19.1483 26.9917H19.7376C19.8134 26.9986 19.8888 26.9753 19.9474 26.9267C20.0059 26.8781 20.0429 26.8083 20.0501 26.7326C20.0483 26.6957 20.0391 26.6595 20.023 26.6263C20.0069 26.5931 19.9842 26.5635 19.9563 26.5393C19.9285 26.515 19.896 26.4967 19.8608 26.4854C19.8257 26.4741 19.7886 26.47 19.7518 26.4734H19.1589C18.9566 26.4734 18.9175 26.4095 18.9814 26.232L19.1767 25.6817C19.1909 25.6482 19.1981 25.6122 19.1979 25.5759C19.1976 25.5396 19.1899 25.5036 19.1753 25.4704C19.1607 25.4371 19.1394 25.4072 19.1128 25.3825C19.0861 25.3578 19.0547 25.3388 19.0205 25.3266C18.9836 25.316 18.945 25.3129 18.907 25.3175C18.8689 25.3222 18.8322 25.3345 18.799 25.3538C18.7658 25.373 18.7369 25.3988 18.7139 25.4295C18.691 25.4602 18.6745 25.4953 18.6655 25.5326L18.4737 26.0793C18.4098 26.2604 18.3317 26.2817 18.1791 26.1716L17.7175 25.8414C17.6896 25.8181 17.6573 25.8005 17.6225 25.7896C17.5877 25.7787 17.5512 25.7749 17.5149 25.7782C17.4786 25.7815 17.4433 25.7919 17.4111 25.8088C17.3789 25.8258 17.3503 25.8489 17.327 25.8769C17.3058 25.9064 17.291 25.94 17.2836 25.9755C17.2762 26.0111 17.2764 26.0478 17.2841 26.0833C17.2918 26.1187 17.3068 26.1522 17.3283 26.1815C17.3498 26.2108 17.3771 26.2352 17.4086 26.2533L17.8666 26.5835C18.0228 26.7006 18.0228 26.7716 17.8666 26.8817L17.4015 27.2083C17.3435 27.2443 17.3018 27.3015 17.2852 27.3678C17.2686 27.4341 17.2785 27.5042 17.3128 27.5633C17.3349 27.5916 17.3625 27.6152 17.3939 27.6327C17.4253 27.6503 17.4598 27.6613 17.4955 27.6653C17.5313 27.6693 17.5674 27.666 17.6019 27.6558C17.6363 27.6457 17.6684 27.6287 17.6962 27.6059" fill="white"/>
<path d="M13.0729 10.458L13.4741 10.9195C13.6054 11.0722 13.5806 11.1609 13.364 11.2745L12.7179 11.5728C12.6328 11.5999 12.5611 11.6581 12.517 11.7357C12.4729 11.8133 12.4597 11.9047 12.48 11.9917C12.5332 12.1408 12.6895 12.2047 12.906 12.1053L13.5557 11.8106C13.7759 11.7077 13.8504 11.7503 13.8504 11.9704V12.6343C13.8466 12.6763 13.8525 12.7186 13.8676 12.758C13.8826 12.7973 13.9065 12.8327 13.9373 12.8615C13.9681 12.8903 14.0051 12.9116 14.0454 12.9239C14.0857 12.9362 14.1283 12.9392 14.1699 12.9325C14.2605 12.9178 14.3425 12.8701 14.4001 12.7987C14.4578 12.7273 14.487 12.6372 14.4824 12.5455V11.8781C14.4824 11.6544 14.5534 11.594 14.7735 11.6295L15.4409 11.7361C15.5321 11.7567 15.6276 11.7427 15.709 11.6967C15.7904 11.6508 15.8517 11.5762 15.8812 11.4875C15.8939 11.447 15.8969 11.4041 15.8902 11.3622C15.8834 11.3203 15.867 11.2806 15.8422 11.2461C15.8173 11.2117 15.7849 11.1835 15.7473 11.1637C15.7097 11.144 15.668 11.1333 15.6256 11.1325L14.9581 11.0296C14.738 10.9941 14.7096 10.9124 14.8409 10.7136L15.2386 10.1278C15.3593 9.95026 15.3273 9.77276 15.1889 9.69821C15.1061 9.66336 15.0131 9.6612 14.9288 9.69216C14.8445 9.72313 14.775 9.78491 14.7344 9.86506L14.3368 10.4509C14.2019 10.6461 14.1096 10.6603 13.9818 10.5041L13.5735 10.0426C13.517 9.97954 13.4377 9.94151 13.3532 9.93685C13.2686 9.93219 13.1857 9.96128 13.1226 10.0177C13.0898 10.043 13.0624 10.0746 13.0422 10.1107C13.022 10.1469 13.0094 10.1868 13.005 10.2279C13.0007 10.2691 13.0048 10.3107 13.0171 10.3503C13.0294 10.3898 13.0496 10.4265 13.0764 10.458" fill="white"/>
<path d="M23.5152 11.1325L23.2915 10.5929C23.217 10.4083 23.2702 10.3444 23.501 10.3408L24.211 10.3231C24.4454 10.3231 24.5661 10.1988 24.5661 10.0533C24.5661 9.90769 24.4383 9.79052 24.211 9.79762H23.501C23.2667 9.79762 23.2099 9.74081 23.2773 9.55265L23.4868 8.9775C23.5022 8.93994 23.5092 8.89945 23.5073 8.85888C23.5054 8.81832 23.4945 8.77867 23.4756 8.74276C23.4566 8.70685 23.4299 8.67554 23.3975 8.65108C23.3651 8.62661 23.3277 8.60957 23.288 8.60117C23.2038 8.58091 23.1151 8.5921 23.0386 8.63264C22.9621 8.67317 22.9031 8.74026 22.8726 8.82129L22.6667 9.39643C22.5992 9.58815 22.5105 9.613 22.3116 9.50294L21.7258 9.14791C21.6528 9.09743 21.5643 9.07439 21.476 9.08284C21.3876 9.09128 21.3051 9.13067 21.243 9.19407C21.1471 9.31833 21.1862 9.48874 21.3708 9.5917L21.9531 9.94673C22.1483 10.0568 22.1483 10.1384 21.9531 10.2556L21.3992 10.6106C21.2288 10.7207 21.2039 10.884 21.314 10.9976C21.3773 11.0563 21.4589 11.0911 21.545 11.0963C21.6311 11.1015 21.7164 11.0767 21.7862 11.026L22.3365 10.671C22.5246 10.5503 22.6099 10.5716 22.6915 10.7562L22.9187 11.2959C22.9547 11.3703 23.0156 11.4297 23.0908 11.4641C23.1659 11.4984 23.2508 11.5055 23.3306 11.484C23.3677 11.4756 23.4025 11.4592 23.4325 11.4358C23.4625 11.4125 23.4871 11.3828 23.5044 11.3489C23.5216 11.3151 23.5312 11.2778 23.5325 11.2398C23.5338 11.2018 23.5266 11.1639 23.5116 11.129" fill="white"/>
<path d="M29.0005 13.8664L29.5366 13.9871C29.7034 14.0261 29.8277 13.9445 29.8419 13.8167C29.8433 13.7456 29.8183 13.6764 29.7718 13.6227C29.7252 13.5689 29.6604 13.5343 29.5898 13.5255L29.0537 13.4155C28.8726 13.38 28.8371 13.3125 28.9117 13.1599L29.1247 12.709C29.1575 12.6477 29.1647 12.576 29.1447 12.5095C29.1248 12.4429 29.0793 12.387 29.0182 12.3539C28.9891 12.3374 28.9567 12.3272 28.9233 12.3242C28.8899 12.3212 28.8563 12.3254 28.8246 12.3365C28.793 12.3476 28.7641 12.3653 28.7399 12.3886C28.7158 12.4118 28.6969 12.4399 28.6845 12.4711L28.4679 12.922C28.3969 13.0711 28.3259 13.0782 28.1945 12.9468L27.8005 12.5563C27.6726 12.4285 27.5306 12.4285 27.4454 12.5172C27.3602 12.606 27.3638 12.7374 27.4916 12.8723L27.8786 13.2593C28.0135 13.3906 28.0064 13.4581 27.8537 13.5255L27.4064 13.7244C27.3764 13.7354 27.3492 13.753 27.3267 13.7758C27.3043 13.7986 27.2872 13.8261 27.2767 13.8563C27.2662 13.8866 27.2625 13.9187 27.2659 13.9505C27.2693 13.9823 27.2797 14.013 27.2963 14.0403C27.3295 14.1013 27.3849 14.1471 27.4511 14.1683C27.5172 14.1894 27.5889 14.1843 27.6513 14.1539L28.0987 13.9551C28.2513 13.8877 28.3153 13.9267 28.3543 14.0971L28.4679 14.6084C28.4781 14.6783 28.5132 14.7423 28.5666 14.7886C28.62 14.8348 28.6883 14.8603 28.759 14.8604C28.7908 14.8565 28.8212 14.8455 28.8481 14.8281C28.875 14.8108 28.8977 14.7876 28.9144 14.7603C28.9311 14.733 28.9415 14.7023 28.9447 14.6705C28.9479 14.6387 28.9439 14.6065 28.933 14.5764L28.8194 14.0581C28.7839 13.8877 28.8194 13.8415 29.0076 13.8806" fill="white"/>
<path d="M18.2673 24.1942L18.7999 24.3255C18.8315 24.3375 18.8654 24.3424 18.8991 24.3399C18.9328 24.3374 18.9656 24.3274 18.995 24.3108C19.0245 24.2942 19.05 24.2714 19.0696 24.2439C19.0893 24.2163 19.1026 24.1848 19.1087 24.1516C19.114 24.0801 19.092 24.0093 19.0473 23.9533C19.0025 23.8973 18.9382 23.8603 18.8673 23.8498L18.3312 23.7113C18.1537 23.6687 18.1218 23.6048 18.1999 23.4486L18.4306 22.9835C18.4622 22.9228 18.4695 22.8523 18.451 22.7864C18.4326 22.7204 18.3897 22.664 18.3312 22.6285C18.3014 22.6079 18.2672 22.5945 18.2314 22.5893C18.1955 22.5841 18.159 22.5874 18.1246 22.5987C18.0902 22.6101 18.0588 22.6293 18.0331 22.6547C18.0074 22.6802 17.9879 22.7114 17.9762 22.7457L17.7454 23.2036C17.6709 23.3598 17.5999 23.3669 17.4721 23.2285L17.1241 22.8344C17.105 22.8065 17.0801 22.783 17.0512 22.7654C17.0222 22.7479 16.9899 22.7367 16.9563 22.7327C16.9227 22.7287 16.8886 22.7319 16.8563 22.7421C16.824 22.7522 16.7943 22.7692 16.7691 22.7918C16.6803 22.877 16.6768 23.019 16.8046 23.1468L17.1809 23.5445C17.3087 23.6794 17.2981 23.7504 17.1454 23.8178L16.691 24.0202C16.661 24.0324 16.6338 24.0507 16.6112 24.074C16.5886 24.0972 16.5711 24.1249 16.5597 24.1553C16.5484 24.1856 16.5435 24.218 16.5453 24.2504C16.5471 24.2827 16.5556 24.3144 16.5703 24.3433C16.5857 24.3744 16.6072 24.4022 16.6335 24.425C16.6598 24.4478 16.6903 24.4651 16.7233 24.476C16.7563 24.4869 16.7912 24.4912 16.8259 24.4885C16.8605 24.4858 16.8943 24.4763 16.9253 24.4604L17.3833 24.2616C17.536 24.1942 17.5999 24.2332 17.6283 24.4072L17.7277 24.9326C17.7331 25.0033 17.765 25.0692 17.817 25.1173C17.869 25.1654 17.9373 25.192 18.0081 25.1918C18.1395 25.1918 18.2247 25.0675 18.1928 24.9007L18.0969 24.3717C18.0685 24.1942 18.1147 24.148 18.2922 24.1871" fill="white"/>
<path d="M14.735 28.8487H15.3882C15.5941 28.8487 15.7149 28.728 15.7007 28.5753C15.6833 28.4946 15.6384 28.4224 15.5736 28.3712C15.5088 28.32 15.4282 28.293 15.3456 28.2948H14.6888C14.4687 28.2948 14.4119 28.2274 14.4581 28.0286L14.6001 27.4463C14.622 27.3663 14.6116 27.2809 14.5711 27.2085C14.5305 27.1361 14.4632 27.0825 14.3835 27.0593C14.3459 27.0482 14.3064 27.0451 14.2676 27.0502C14.2287 27.0553 14.1914 27.0685 14.1579 27.0889C14.1245 27.1093 14.0957 27.1365 14.0734 27.1687C14.0511 27.2009 14.0358 27.2374 14.0285 27.2759L13.89 27.8582C13.8403 28.0499 13.7622 28.0783 13.5776 27.954L13.0166 27.599C12.8356 27.4854 12.6616 27.5173 12.5906 27.6416C12.5196 27.7659 12.548 27.9221 12.7291 28.0428L13.2829 28.3978C13.4711 28.5185 13.4782 28.6002 13.3184 28.7173L12.8427 29.0724C12.811 29.0935 12.7843 29.1213 12.7645 29.1538C12.7446 29.1863 12.7321 29.2227 12.7277 29.2605C12.7233 29.2983 12.7272 29.3367 12.7391 29.3728C12.7509 29.409 12.7705 29.4421 12.7965 29.47C12.85 29.5305 12.9244 29.5685 13.0047 29.5765C13.0851 29.5844 13.1654 29.5616 13.2296 29.5126L13.7054 29.1576C13.8651 29.0404 13.9504 29.0688 14.0356 29.2605L14.2947 29.8321C14.325 29.911 14.3824 29.9764 14.4566 30.0168C14.5307 30.0571 14.6169 30.0697 14.6995 30.0522C14.7336 30.0403 14.7647 30.021 14.7906 29.9957C14.8165 29.9705 14.8365 29.9399 14.8494 29.9061C14.8622 29.8723 14.8675 29.8361 14.8649 29.8C14.8624 29.7639 14.8519 29.7288 14.8344 29.6972L14.5752 29.115C14.4865 28.9268 14.5326 28.8594 14.7527 28.8594" fill="white"/>
<path d="M10.8545 26.9667L11.0888 26.5513C11.1776 26.4164 11.2415 26.4164 11.3515 26.5513L11.6817 26.988C11.7811 27.13 11.9267 27.162 12.0367 27.091C12.0827 27.0433 12.1084 26.9797 12.1084 26.9135C12.1084 26.8472 12.0827 26.7836 12.0367 26.736L11.703 26.2922C11.5929 26.1466 11.6107 26.0791 11.7634 26.0294L12.232 25.8839C12.2641 25.8764 12.294 25.8619 12.3197 25.8414C12.3454 25.8208 12.3662 25.7948 12.3805 25.7651C12.3948 25.7355 12.4023 25.703 12.4024 25.6701C12.4025 25.6372 12.3952 25.6047 12.3811 25.575C12.37 25.5424 12.3525 25.5124 12.3295 25.4868C12.3066 25.4612 12.2787 25.4405 12.2475 25.4259C12.2163 25.4113 12.1825 25.4031 12.1482 25.4019C12.1138 25.4007 12.0795 25.4064 12.0474 25.4188L11.5823 25.5679C11.4296 25.614 11.3728 25.5679 11.3586 25.3939L11.3089 24.8614C11.3093 24.7926 11.284 24.7262 11.2381 24.675C11.1922 24.6238 11.1288 24.5915 11.0604 24.5845C10.9397 24.5845 10.8474 24.6874 10.8651 24.8507L10.9113 25.3797C10.9113 25.5537 10.8758 25.5963 10.716 25.5359L10.2403 25.3584C10.2136 25.344 10.1838 25.3359 10.1535 25.335C10.1231 25.334 10.0929 25.3402 10.0653 25.3529C10.0378 25.3657 10.0135 25.3847 9.99461 25.4084C9.97567 25.4322 9.96254 25.4601 9.95626 25.4898C9.94633 25.5557 9.96017 25.6229 9.9953 25.6795C10.0304 25.7361 10.0845 25.7783 10.148 25.7987L10.6202 25.9833C10.7799 26.0436 10.8048 26.1075 10.7231 26.246L10.4782 26.6543C10.4423 26.7107 10.429 26.7785 10.4408 26.8443C10.4527 26.91 10.4888 26.9689 10.5421 27.0093C10.5648 27.0303 10.592 27.0459 10.6217 27.0547C10.6513 27.0636 10.6826 27.0655 10.7131 27.0603C10.7437 27.0552 10.7726 27.0431 10.7977 27.025C10.8228 27.007 10.8435 26.9834 10.858 26.9561" fill="white"/>
<path d="M13.8083 25.9407L14.1136 25.1632C14.2201 24.9005 14.3302 24.8827 14.5645 25.11L15.2746 25.7703C15.3101 25.8162 15.3546 25.8544 15.4054 25.8825C15.4561 25.9107 15.512 25.9283 15.5698 25.9343C15.6275 25.9403 15.6859 25.9345 15.7413 25.9173C15.7967 25.9001 15.8481 25.8718 15.8923 25.8342C15.9268 25.787 15.9514 25.7333 15.9647 25.6764C15.978 25.6194 15.9797 25.5604 15.9698 25.5028C15.9598 25.4452 15.9384 25.3902 15.9068 25.341C15.8752 25.2918 15.8341 25.2495 15.7858 25.2165L15.0757 24.5526C14.845 24.3324 14.8485 24.1975 15.1006 24.0839L15.8604 23.6898C15.9136 23.6674 15.9611 23.6334 15.9995 23.5903C16.0379 23.5471 16.0661 23.4959 16.0821 23.4404C16.0981 23.3849 16.1015 23.3265 16.092 23.2695C16.0825 23.2126 16.0604 23.1584 16.0272 23.1111C15.9988 23.0585 15.96 23.0121 15.9132 22.9748C15.8663 22.9375 15.8124 22.91 15.7547 22.8941C15.697 22.8782 15.6367 22.8741 15.5773 22.8821C15.518 22.8902 15.4609 22.9101 15.4095 22.9407L14.6391 23.3561C14.387 23.4875 14.284 23.4271 14.1953 23.1253L13.9539 22.2236C13.9323 22.1051 13.8679 21.9988 13.773 21.9248C13.678 21.8508 13.5592 21.8143 13.4391 21.8224C13.2296 21.8543 13.1053 22.0638 13.1799 22.3407L13.4213 23.239C13.4994 23.5336 13.4213 23.6224 13.1373 23.562L12.2604 23.4023C12.2095 23.3861 12.1557 23.3815 12.1028 23.389C12.05 23.3965 11.9995 23.4158 11.9552 23.4455C11.9108 23.4752 11.8737 23.5145 11.8467 23.5605C11.8196 23.6065 11.8032 23.658 11.7988 23.7111C11.8035 23.8282 11.849 23.9399 11.9275 24.0268C12.006 24.1137 12.1125 24.1704 12.2284 24.1869L13.0982 24.3573C13.3894 24.4141 13.4533 24.5206 13.3539 24.7798L13.0521 25.5573C13.0107 25.6655 13.0103 25.785 13.0508 25.8935C13.0913 26.002 13.1701 26.092 13.2722 26.1466C13.3179 26.1752 13.3696 26.1929 13.4232 26.1985C13.4768 26.204 13.531 26.1973 13.5816 26.1788C13.6323 26.1604 13.6781 26.1306 13.7155 26.0918C13.7529 26.053 13.781 26.0062 13.7976 25.9549" fill="white"/>
<circle cx="20" cy="20" r="19.5" stroke="black" stroke-opacity="0.05"/>
</svg>
