<svg width="40" height="40" viewBox="0 0 40 40" fill="none" xmlns="http://www.w3.org/2000/svg">
<circle cx="20" cy="20" r="20" fill="#EF5721"/>
<path fill-rule="evenodd" clip-rule="evenodd" d="M15.3569 12L17.6785 14.3216L20.0001 12L22.3217 14.3216L24.6433 12L33.0001 20.3569L24.6433 28.7137L22.3217 26.3922L20.0001 28.7137L17.6785 26.3922L15.3569 28.7137L7 20.3569L15.3569 12ZM23.3269 25.3869L24.6433 26.7033L30.9897 20.3569L24.6433 14.0105L23.3269 15.3268L28.3569 20.3569L23.3269 25.3869ZM21.3164 15.3268L20.0001 14.0105L13.6537 20.3569L17.6785 24.3817L18.9948 23.0653L16.2864 20.3569L21.3164 15.3268ZM20.0001 22.0601L21.7033 20.3569L20.0001 18.6537L18.2968 20.3569L20.0001 22.0601ZM21.0053 17.6484L22.3217 16.3321L26.3465 20.3569L20.0001 26.7033L18.6837 25.3869L23.7137 20.3569L21.0053 17.6484ZM15.3569 14.0105L16.6732 15.3268L11.6432 20.3569L16.6732 25.3869L15.3569 26.7033L9.01046 20.3569L15.3569 14.0105Z" fill="white"/>
<circle cx="20" cy="20" r="19.5" stroke="black" stroke-opacity="0.05"/>
</svg>
