<svg width="40" height="40" viewBox="0 0 40 40" fill="none" xmlns="http://www.w3.org/2000/svg">
<circle cx="20" cy="20" r="20" fill="#FF5D24"/>
<g clip-path="url(#clip0_17752_43898)">
<path d="M28.9145 20.4772C29.2724 20.3579 29.5377 20.0487 29.6037 19.6782C29.6147 19.6185 29.6194 19.5385 29.6194 19.4396C29.6194 18.6311 29.6194 17.821 29.6194 17.0078C29.6194 17.0031 29.6225 17 29.6272 17C30.2567 17 30.7403 17 31.0762 17C31.0825 17 31.0856 17.0031 31.0841 17.0094C31.0841 17.0173 31.0841 18.1758 31.0841 20.4851C31.0841 20.5777 31.0793 20.6578 31.0715 20.7268C31.0165 21.1507 30.7748 21.5228 30.4247 21.7535C30.1814 21.9152 29.9098 21.9953 29.6084 21.9953C28.9302 21.9953 28.2473 21.9953 27.5597 21.9953C27.0684 21.9953 26.6178 21.7551 26.3431 21.3516C26.1751 21.1052 26.0903 20.8242 26.0903 20.5118C26.0903 19.3532 26.0903 18.1852 26.0903 17.0078C26.0903 17.0031 26.0919 17.0016 26.0966 17.0016H27.5472C27.5472 17.0016 27.555 17.0047 27.555 17.0094C27.555 17.8414 27.555 18.6672 27.555 19.4851C27.555 20.1947 28.2348 20.7049 28.9161 20.4788L28.9145 20.4772Z" fill="white"/>
<path d="M32.9379 18.7519C32.9568 18.7613 32.9772 18.7644 32.996 18.766C33.0101 18.766 33.5784 18.766 34.6977 18.766C34.8029 18.766 34.8908 18.7707 34.9615 18.7785C35.2613 18.8162 35.5313 18.9293 35.7684 19.1176C36.6051 19.7848 36.5737 21.0658 35.7056 21.6922C35.4748 21.8586 35.2158 21.9575 34.9317 21.9873C34.8673 21.9936 34.7841 21.9968 34.6789 21.9968C33.3194 21.9968 31.9646 21.9968 30.613 21.9968C30.6051 21.9968 30.6036 21.9936 30.6098 21.9889C30.6977 21.9245 30.7527 21.8822 30.7778 21.8602C31.1687 21.5085 31.3696 21.069 31.3838 20.5384C31.3838 20.5336 31.3869 20.5321 31.3916 20.5321C32.5047 20.5321 33.6255 20.5321 34.7574 20.5321C34.8108 20.5321 34.8532 20.5132 34.883 20.474C34.9426 20.3955 34.9128 20.2809 34.8218 20.2432C34.8029 20.2354 34.7747 20.2322 34.7339 20.2322C34.1891 20.2322 33.6538 20.2322 33.1263 20.2322C33.0007 20.2322 32.9128 20.2307 32.8626 20.226C32.1718 20.1663 31.591 19.6702 31.4309 18.992C31.2079 18.058 31.8437 17.1412 32.7919 17.0156C32.8657 17.0062 32.9474 17.0015 33.0368 17.0015C34.142 17.0015 35.255 17.0015 36.3728 17.0015C36.3791 17.0015 36.3806 17.0046 36.3775 17.0093L35.7009 18.4599C35.7009 18.4599 35.6946 18.4661 35.6915 18.4661C34.8076 18.4661 33.9128 18.4661 33.0023 18.4661C32.8422 18.4661 32.7919 18.6859 32.9395 18.7534L32.9379 18.7519Z" fill="white"/>
<path d="M6.09457 18.5793H6.09143L5.18406 20.5259C5.18406 20.5259 5.18406 20.5338 5.18877 20.5338H6.70525C6.70525 20.5338 6.71467 20.5369 6.71153 20.5432L6.03649 21.9906C6.03649 21.9906 6.03021 21.9985 6.02393 21.9985H3.03963C3.03963 21.9985 3.03335 21.9969 3.03492 21.9922L5.35831 17.011C5.35831 17.011 5.36459 17.0032 5.37087 17.0032H6.81828C6.81828 17.0032 6.8277 17.0063 6.83084 17.011L9.15423 21.9938C9.15423 21.9938 9.15423 21.9985 9.15109 21.9985H7.69426C7.69426 21.9985 7.68955 21.9985 7.68955 21.9953C7.15894 20.8587 6.6299 19.7222 6.10085 18.584C6.10085 18.5809 6.09771 18.5793 6.09457 18.5793Z" fill="white"/>
<path d="M10.2391 18.584V21.9906C10.2391 21.9906 10.236 21.9985 10.2312 21.9985H9.49655C9.49655 21.9985 9.48713 21.9953 9.48399 21.9906L8.77912 20.4773C8.77912 20.4773 8.77441 20.4631 8.77441 20.4553V17.0079C8.77441 17.0079 8.77598 17.0032 8.77912 17.0032H10.9644C10.9644 17.0032 10.9738 17.0063 10.9769 17.011L12.5625 20.4129C12.5672 20.4239 12.5703 20.4239 12.5703 20.4113V17.0079C12.5703 17.0079 12.5719 17.0047 12.5735 17.0047H14.0272C14.0272 17.0047 14.0334 17.0079 14.0334 17.011V21.9922C14.0334 21.9922 14.0319 21.9985 14.0272 21.9985H11.8435C11.8435 21.9985 11.8356 21.9969 11.8325 21.9922L10.2438 18.584C10.2438 18.584 10.2422 18.5825 10.2407 18.584C10.2407 18.584 10.2407 18.584 10.2407 18.5856L10.2391 18.584Z" fill="white"/>
<path d="M15.7935 17.0046H14.3382C14.3356 17.0046 14.3335 17.0067 14.3335 17.0093V21.9952C14.3335 21.9978 14.3356 21.9999 14.3382 21.9999H15.7935C15.7961 21.9999 15.7982 21.9978 15.7982 21.9952V17.0093C15.7982 17.0067 15.7961 17.0046 15.7935 17.0046Z" fill="white"/>
<path d="M17.5628 20.5431V21.9921C17.5628 21.9921 17.5613 21.9984 17.5565 21.9984H16.106C16.106 21.9984 16.0981 21.9952 16.0981 21.9905V17.0109C16.0981 17.0109 16.0997 17.0046 16.1044 17.0046C17.1578 17.0046 18.2473 17.0046 19.3713 17.0046C19.5047 17.0046 19.6476 17.0266 19.7999 17.069C20.1594 17.1695 20.4561 17.3641 20.6915 17.6499C21.3556 18.4615 21.1719 19.6687 20.2975 20.2433C20.004 20.4363 19.6774 20.5337 19.3179 20.5337C18.7638 20.5337 18.1813 20.5337 17.5722 20.5337C17.566 20.5337 17.5628 20.5368 17.5628 20.5431ZM17.5628 18.474V19.0643C17.5628 19.0643 17.566 19.0706 17.5691 19.0706H19.3226C19.4906 19.0706 19.6272 18.9371 19.6272 18.7707V18.7676C19.6272 18.6028 19.4906 18.4677 19.3226 18.4677H17.5691C17.5691 18.4677 17.5628 18.4709 17.5628 18.474Z" fill="white"/>
<path d="M22.5656 20.5353H25.7806C25.7806 20.5353 25.7885 20.5384 25.7885 20.5431C25.7885 20.5651 25.7901 20.5886 25.7916 20.6106C25.812 21.0941 26.0334 21.5447 26.3992 21.8649C26.4321 21.8932 26.4871 21.9356 26.5671 21.9921C26.5734 21.9968 26.5719 21.9984 26.5656 21.9984H21.1025C21.1025 21.9984 21.0962 21.9968 21.0962 21.9921V19.8477C21.0962 19.8477 21.0962 19.8382 21.0993 19.8351C21.4934 19.171 21.4934 18.372 21.0993 17.7048C21.0978 17.7017 21.0962 17.6969 21.0962 17.6922V17.0109C21.0962 17.0109 21.0978 17.0046 21.1025 17.0046H22.553C22.553 17.0046 22.5593 17.0062 22.5593 17.0109V20.5258C22.5593 20.5258 22.5624 20.5337 22.5671 20.5337L22.5656 20.5353Z" fill="white"/>
</g>
<circle cx="20" cy="20" r="19.5" stroke="black" stroke-opacity="0.05"/>
<defs>
<clipPath id="clip0_17752_43898">
<rect width="33.3422" height="5" fill="white" transform="translate(3.03516 17)"/>
</clipPath>
</defs>
</svg>
