<svg width="40" height="40" viewBox="0 0 40 40" fill="none" xmlns="http://www.w3.org/2000/svg">
<circle cx="20" cy="20" r="20" fill="#DF4940"/>
<g clip-path="url(#clip0_22307_36487)">
<path d="M15.6489 28.8388C14 28.8388 12.3191 27.5984 12.3191 25.3075C12.3191 23.0167 14 21.7762 15.6489 21.7762C17.6383 21.7762 18.4787 23.0484 18.7766 23.6131L19.7234 22.9217C19.3404 22.2302 18.2021 20.615 15.6383 20.615C13.0745 20.615 11 22.6472 11 25.3075C11 27.9679 12.9681 30.0001 15.633 30.0001C18.2979 30.0001 19.3351 28.3848 19.7181 27.6987L18.7766 27.0072C18.4787 27.5667 17.6383 28.8441 15.6489 28.8441V28.8388Z" fill="white"/>
<path d="M15.7287 19.3851C12.6649 19.3851 11 17.015 11 14.6925C11 12.37 12.6649 10 15.633 10C18.1596 10 19.2128 11.5624 19.6064 12.1853L18.6809 12.8662C18.3298 12.3383 17.5691 11.1613 15.633 11.1613C14.0266 11.1613 12.3191 12.3278 12.3191 14.6925C12.3191 17.0573 13.9734 18.2238 15.7447 18.2238C17.3245 18.2238 18.2394 17.4743 18.5266 17.1734V15.3893H16.7021V14.2966H19.766V17.7065C19.2553 18.2027 17.9255 19.3851 15.7394 19.3851H15.7287Z" fill="white"/>
<path d="M28.9999 19.1951L27.5265 17.733C29.0159 16.065 28.8297 14.0381 28.8297 14.0381H26.4946V15.0093H27.7393C27.6222 15.7008 27.2978 16.4292 26.8244 17.0257L24.6382 14.8562C23.5903 13.8058 23.2339 13.4258 23.2339 12.7448C23.2339 12.1695 23.6754 11.6944 24.351 11.6944C24.9573 11.6944 25.3456 11.9584 25.7659 12.6182L26.5956 12.0059C26.2127 11.2827 25.4999 10.7126 24.335 10.7126C22.952 10.7126 22.069 11.6258 22.069 12.7448C22.069 13.2991 22.2339 13.7372 22.5212 14.1647C21.6276 14.6715 20.9893 15.5266 20.9893 16.6351C20.9893 17.9177 21.8935 19.3798 24.3031 19.3798C25.2233 19.3798 26.0478 19.042 26.7339 18.4983L27.4307 19.1898H29.0052L28.9999 19.1951ZM24.2818 18.3928C22.8031 18.3928 22.0956 17.4796 22.0956 16.6298C22.0956 15.8697 22.4786 15.3366 23.1648 14.946L26.0265 17.8069C25.5265 18.1658 24.9361 18.3928 24.2818 18.3928Z" fill="white"/>
<path d="M27.6699 28.7754H21.5156V29.8469H27.6699V28.7754Z" fill="white"/>
<path d="M24.5905 20.7363C22.6118 20.7363 21.0054 22.341 21.0054 24.3098C21.0054 26.2787 22.5798 27.8675 24.5905 27.8675C26.6011 27.8675 28.1862 26.3051 28.1862 24.3098C28.1862 22.3146 26.5745 20.7363 24.5905 20.7363ZM24.5905 26.7274C23.2501 26.7274 22.1596 25.6453 22.1596 24.3151C22.1596 22.9849 23.2713 21.8817 24.5905 21.8817C25.9096 21.8817 27.032 22.9744 27.032 24.3151C27.032 25.6558 25.9362 26.7274 24.5905 26.7274Z" fill="white"/>
</g>
<circle cx="20" cy="20" r="19.5" stroke="black" stroke-opacity="0.05"/>
<defs>
<clipPath id="clip0_22307_36487">
<rect width="19" height="20" fill="white" transform="translate(11 10)"/>
</clipPath>
</defs>
</svg>
