<svg width="40" height="40" viewBox="0 0 40 40" fill="none" xmlns="http://www.w3.org/2000/svg">
<ellipse cx="20.0176" cy="20.2342" rx="19.9824" ry="19.766" fill="#F6F8FA"/>
<path d="M35.7744 19.3339C35.9047 18.9261 36.03 18.5014 35.9563 18.0569L35.9557 18.0563C35.9714 18.055 35.9878 18.0538 36.0035 18.0525C35.9904 17.9633 35.9795 17.8734 35.9687 17.7836C35.9443 17.5808 35.9199 17.378 35.8688 17.1821C35.7914 16.8863 35.6888 16.59 35.5478 16.3191C35.2211 15.6909 34.7396 15.1809 34.1724 14.76C33.3825 14.1741 32.5176 13.7271 31.5791 13.4077C30.7054 13.1107 29.8229 12.8516 28.9152 12.6879C28.36 12.5877 27.7986 12.521 27.2371 12.4606C27.1916 12.4557 27.1462 12.4508 27.1007 12.4459C26.5912 12.3905 26.0799 12.335 25.569 12.3299C24.5562 12.3199 23.5428 12.3448 22.53 12.3716C22.0328 12.3847 21.5349 12.4164 21.0414 12.4731C20.4031 12.5466 19.7673 12.6393 19.1341 12.747L19.0914 12.7543C18.3471 12.8808 17.6012 13.0075 16.8668 13.1798C16.024 13.3778 15.1874 13.6088 14.3591 13.8622C13.6572 14.0764 12.968 14.3323 12.2806 14.59C11.8878 14.737 11.5051 14.9144 11.1268 15.0962C11.0337 15.141 10.9403 15.1856 10.847 15.2301C10.3011 15.491 9.75437 15.7522 9.22649 16.0451C8.70341 16.3353 8.20363 16.6703 7.71139 17.0102C7.29406 17.2991 6.88177 17.6011 6.5041 17.938C6.11321 18.2866 5.74749 18.6683 5.40822 19.0662C5.21607 19.292 5.05336 19.5426 4.89081 19.793C4.8329 19.8821 4.77501 19.9713 4.71582 20.0593C4.44074 20.4677 4.23554 20.9123 4.13735 21.3905C3.93529 22.3749 3.99824 23.3219 4.54209 24.2154C4.95186 24.8891 5.51271 25.399 6.14783 25.8473C6.64573 26.1985 7.18832 26.4631 7.74727 26.7053C8.39372 26.9861 9.04836 27.2389 9.7395 27.389C9.78427 27.3987 9.82905 27.4084 9.87383 27.4182L9.87392 27.4182L9.87401 27.4182C10.3989 27.5326 10.9246 27.6471 11.4535 27.7389C11.9319 27.8217 12.4166 27.8752 12.9 27.9275C12.9985 27.9382 13.097 27.9494 13.1955 27.9607L13.1964 27.9608L13.1968 27.9608C13.5999 28.0069 14.0037 28.053 14.4075 28.057C14.5236 28.0582 14.6397 28.0595 14.7558 28.0608C15.9353 28.074 17.1154 28.0873 18.2919 27.9643C18.4329 27.9496 18.5745 27.9387 18.7161 27.9279L18.7162 27.9279C18.9167 27.9125 19.1172 27.8971 19.316 27.8709C19.8152 27.8049 20.3131 27.727 20.8097 27.6411C20.9821 27.6113 21.1548 27.5823 21.3274 27.5532C21.9377 27.4506 22.5482 27.3479 23.1507 27.2115C24.414 26.9263 25.659 26.5652 26.8708 26.1101C27.7193 25.7913 28.5577 25.4426 29.3854 25.074C29.639 24.9607 29.8808 24.8216 30.1226 24.6826L30.1227 24.6825C30.3232 24.5672 30.5238 24.4519 30.7312 24.3511C31.4116 24.0211 32.0172 23.5815 32.6208 23.1413C33.2043 22.7154 33.7671 22.2603 34.2436 21.713C34.2993 21.6488 34.3569 21.5861 34.4145 21.5234C34.5222 21.4062 34.6297 21.2892 34.7245 21.1626C34.9171 20.9061 35.1034 20.6427 35.262 20.3656C35.2814 20.3318 35.301 20.2979 35.3205 20.264L35.3223 20.2609C35.4953 19.9613 35.6707 19.6573 35.7744 19.3339Z" fill="#00AD3C"/>
<path fill-rule="evenodd" clip-rule="evenodd" d="M13.8167 21.9858C13.9953 22.4268 14.1755 22.8715 14.3588 23.3236C14.3251 23.3289 14.2977 23.3339 14.2744 23.3382L14.2743 23.3382L14.2742 23.3383C14.2336 23.3458 14.2051 23.351 14.1763 23.351C14.0416 23.3518 13.9069 23.3516 13.7723 23.3515H13.7723C13.5629 23.3513 13.3536 23.3511 13.144 23.3541C13.0282 23.356 12.9753 23.3093 12.935 23.2041C12.7166 22.6386 12.4912 22.0748 12.2661 21.5117L12.2661 21.5115L12.2351 21.4339C12.1109 21.1239 12.1079 21.1239 11.7752 21.1239H11.7712C11.7178 21.1239 11.6644 21.1243 11.6109 21.1247C11.4772 21.1257 11.3432 21.1267 11.2097 21.1214C11.1065 21.1176 11.0567 21.145 11.0435 21.254C11.0237 21.4213 10.9952 21.5879 10.9668 21.7542L10.9668 21.7543L10.9668 21.7545C10.9591 21.7991 10.9515 21.8438 10.9441 21.8885C10.9319 21.9609 10.9197 22.0335 10.9076 22.106C10.8465 22.4715 10.7853 22.8373 10.7149 23.201C10.7042 23.2576 10.6205 23.3411 10.5683 23.3429C10.2087 23.3549 9.84849 23.3525 9.48885 23.3501L9.44595 23.3498C9.30432 23.3492 9.31943 23.2452 9.33579 23.1568C9.35932 23.0288 9.38478 22.901 9.41023 22.7733L9.41025 22.7732C9.43926 22.6276 9.46827 22.482 9.49442 22.3361C9.56859 21.9182 9.64019 21.4996 9.71175 21.0812L9.71178 21.081L9.7119 21.0803C9.74049 20.9131 9.76908 20.7461 9.79781 20.5791C9.82238 20.4372 9.84687 20.2954 9.87136 20.1536L9.87139 20.1534C9.92033 19.87 9.96926 19.5866 10.0188 19.3033C10.0911 18.8886 10.1635 18.4739 10.2372 18.0599C10.2593 17.9355 10.2819 17.8113 10.3044 17.6871L10.3045 17.6866C10.3456 17.4609 10.3866 17.2353 10.4248 17.0089C10.4436 16.8955 10.5009 16.8395 10.6161 16.8401C10.8826 16.8418 11.1493 16.8409 11.416 16.84C12.0305 16.8378 12.6453 16.8357 13.2586 16.8657C13.9497 16.8993 14.4275 17.3021 14.7592 17.893C15.0512 18.4142 15.0254 18.9596 14.8416 19.4838C14.6056 20.1563 14.1285 20.6401 13.4512 20.9147C13.4411 20.9187 13.4328 20.9268 13.4218 20.9375L13.4218 20.9375C13.4157 20.9435 13.4087 20.9503 13.4002 20.9576L13.3996 20.9564C13.5332 21.286 13.6669 21.6161 13.8015 21.9483L13.8167 21.9858ZM11.9373 19.9166H11.2948L11.3116 19.8234C11.3467 19.6283 11.3799 19.4441 11.4136 19.2603C11.4291 19.1755 11.4443 19.0905 11.4594 19.0056L11.4595 19.0054L11.4595 19.0053C11.5047 18.7519 11.55 18.4984 11.6037 18.2467C11.6157 18.1906 11.6931 18.1078 11.7422 18.1066C12.1218 18.0954 12.5026 18.0866 12.8821 18.1053C13.545 18.1377 13.7414 18.6931 13.5261 19.2298C13.3461 19.6793 12.9319 19.9184 12.4806 19.9184C12.2043 19.9184 12.1306 19.9177 12.0735 19.9172C12.0372 19.9169 12.0077 19.9166 11.9373 19.9166Z" fill="white"/>
<path d="M26.8756 17.9995C26.5835 17.9926 26.3235 18.2473 26.3216 18.5405C26.3204 18.7933 26.4708 18.949 26.7195 18.9521C27.0241 18.9558 27.2721 18.7174 27.2772 18.4148C27.2809 18.1813 27.1103 18.0045 26.8756 17.9995Z" fill="white"/>
<path d="M25.5925 23.2158L25.5923 23.217C25.5843 23.2692 25.5759 23.3239 25.5669 23.3822H25.5663C25.6185 23.3822 25.6706 23.3824 25.7227 23.3826C25.8958 23.3832 26.0681 23.3839 26.2404 23.3772C26.2656 23.3759 26.3015 23.3087 26.3097 23.2676C26.3726 22.9525 26.4331 22.6375 26.4884 22.3218C26.5383 22.0373 26.5867 21.7526 26.6351 21.4678C26.6882 21.1555 26.7413 20.8431 26.7963 20.5311C26.8208 20.3918 26.8492 20.253 26.8776 20.1142C26.9003 20.0038 26.9229 19.8934 26.9435 19.7827C26.9807 19.5847 26.9593 19.5592 26.7641 19.5561C26.7189 19.5553 26.6736 19.556 26.6283 19.5568C26.5588 19.5579 26.4894 19.559 26.4205 19.5548C26.2644 19.5455 26.2052 19.6383 26.1813 19.7653C26.1064 20.1681 26.0327 20.5716 25.9635 20.9757C25.8851 21.4341 25.8089 21.8932 25.7327 22.3522C25.7066 22.5092 25.6806 22.6661 25.6544 22.823C25.6337 22.9472 25.6146 23.0716 25.5925 23.2158Z" fill="white"/>
<path d="M17.3697 20.2335C17.37 20.2376 17.3695 20.2594 17.3695 20.2553V20.2335L17.3697 20.2335Z" fill="white"/>
<path fill-rule="evenodd" clip-rule="evenodd" d="M16.7274 23.3815C16.7807 23.3812 16.834 23.3809 16.8874 23.3809H17.0189C17.0427 23.3809 17.4067 23.3784 17.6641 23.3535C18.6511 23.2583 19.3813 22.7651 19.7722 21.8748C19.9704 21.4234 20.0611 20.9327 19.9377 20.4035C19.7728 19.6968 19.1188 19.0692 18.4371 19.0262C17.7998 18.9861 17.1603 18.9846 16.5209 18.9831C16.2672 18.9825 16.0135 18.9819 15.76 18.9789C15.6549 18.9776 15.6052 19.0318 15.5875 19.1426C15.5397 19.4406 15.485 19.7375 15.4303 20.0344L15.4303 20.0345C15.413 20.1284 15.3957 20.2224 15.3786 20.3163C15.3127 20.677 15.2465 21.0377 15.1802 21.3983L15.1797 21.4016C15.1132 21.7633 15.0468 22.1251 14.9807 22.4868C14.9587 22.6077 14.9363 22.7286 14.9139 22.8495L14.9139 22.8497C14.864 23.1192 14.814 23.3889 14.768 23.6592C14.7302 23.8811 14.6941 24.1032 14.6581 24.3252L14.658 24.3253C14.6047 24.654 14.5513 24.9827 14.4923 25.3105C14.4652 25.4618 14.515 25.5035 14.6572 25.501C14.8709 25.4974 15.0845 25.498 15.2982 25.4986C15.3804 25.4989 15.4626 25.4991 15.5447 25.4991C15.8223 25.4991 15.8544 25.4686 15.9004 25.1903C15.9343 24.9876 15.9689 24.7851 16.0035 24.5827L16.0036 24.5824C16.0641 24.2283 16.1247 23.8743 16.1811 23.5198C16.1981 23.4145 16.2403 23.3772 16.3441 23.3797C16.4716 23.3827 16.5995 23.3821 16.7274 23.3815ZM17.3697 20.2335C17.3697 20.2327 17.3696 20.2326 17.3695 20.2335C17.3301 20.2335 17.2906 20.2346 17.251 20.2358C17.1634 20.2383 17.0758 20.2409 16.99 20.231C16.7892 20.208 16.7269 20.32 16.7017 20.4838C16.6935 20.5366 16.6856 20.5894 16.6776 20.6421C16.6554 20.7892 16.6332 20.9361 16.6073 21.0828C16.5699 21.294 16.5294 21.5048 16.4889 21.7158L16.4888 21.7159C16.4748 21.7892 16.4607 21.8625 16.4467 21.9358C16.4228 22.0616 16.4587 22.1232 16.6035 22.1182C16.7661 22.1129 16.9289 22.1138 17.0918 22.1148C17.1945 22.1154 17.2971 22.1161 17.3997 22.1151C18.1419 22.1076 18.6316 21.5896 18.614 20.8954C18.6045 20.5348 18.4358 20.3275 18.0726 20.2727C17.9299 20.2512 17.7845 20.2477 17.6389 20.2442C17.5491 20.2421 17.4591 20.2399 17.3697 20.2335Z" fill="white"/>
<path fill-rule="evenodd" clip-rule="evenodd" d="M24.7719 20.6096C24.8115 20.6565 24.8492 20.6995 24.8849 20.7404C24.9582 20.8242 25.0234 20.8988 25.081 20.9788C25.3825 21.3972 25.3435 21.8642 25.1716 22.2944C24.9626 22.8187 24.5535 23.1817 23.982 23.3193C23.7906 23.3654 23.5892 23.3871 23.3922 23.3896C23.0388 23.3938 22.6853 23.3935 22.3317 23.3933C21.9911 23.3931 21.6505 23.3928 21.3099 23.3965C21.1406 23.3984 21.1022 23.3417 21.1299 23.1854C21.1911 22.8334 21.2491 22.4808 21.307 22.1282C21.3503 21.8645 21.3936 21.6008 21.4383 21.3374C21.482 21.0807 21.5286 20.8246 21.5752 20.5686C21.5998 20.4334 21.6244 20.2983 21.6486 20.1631C21.6752 20.0149 21.7015 19.8667 21.7277 19.7185C21.7759 19.4465 21.824 19.1746 21.8745 18.9029C21.8952 18.7927 21.9186 18.6829 21.9421 18.5732C21.9681 18.4518 21.994 18.3304 22.0162 18.2081C22.0325 18.1178 22.064 18.0686 22.1647 18.0692C22.3966 18.0704 22.6287 18.0688 22.8607 18.0672C23.341 18.0638 23.8213 18.0605 24.3005 18.0823C25.0017 18.114 25.5877 18.7516 25.4813 19.5063C25.4196 19.9427 25.2339 20.2933 24.8726 20.5504C24.8501 20.5665 24.8256 20.5802 24.8036 20.5924C24.7924 20.5986 24.7819 20.6045 24.7726 20.6102L24.7719 20.6096ZM22.0136 22.6574H22.0886C22.2423 22.6571 22.3961 22.6583 22.55 22.6596C22.9274 22.6627 23.305 22.6658 23.6811 22.645C24.077 22.6232 24.4591 22.2297 24.5189 21.8418C24.5869 21.4009 24.3313 21.0386 23.8403 21.0323C23.6684 21.0302 23.4965 21.0312 23.3247 21.0323C23.0497 21.034 22.7748 21.0357 22.5002 21.0242C22.3089 21.0168 22.2686 21.0977 22.2447 21.2528C22.2248 21.3826 22.1979 21.5116 22.1711 21.6405C22.1484 21.7489 22.1258 21.8574 22.1074 21.9663C22.0697 22.1867 22.0064 22.6799 22.0136 22.6257C22.0209 22.5714 22.0136 22.6574 22.0136 22.6574ZM23.6232 20.3238C24.2167 20.3238 24.4692 20.1494 24.6725 19.5984C24.8122 19.2211 24.5674 18.8245 24.1576 18.8052C23.7596 18.7863 23.3601 18.7922 22.9609 18.7981C22.9131 18.7988 22.8653 18.7995 22.8175 18.8002C22.7709 18.8002 22.6928 18.8593 22.684 18.9017C22.6103 19.2679 22.5433 19.6353 22.4727 20.0231L22.4726 20.0232C22.4546 20.122 22.4364 20.2221 22.4178 20.3238H23.6232Z" fill="white"/>
<path fill-rule="evenodd" clip-rule="evenodd" d="M28.4209 23.4233C29.8107 23.7744 31.3113 22.7284 31.3113 21.1276H31.3107C31.3346 20.6245 31.1118 20.1918 30.7027 19.8412C30.2759 19.4764 29.766 19.4116 29.2398 19.4919C28.3428 19.6295 27.6926 20.1052 27.3464 20.9501C27.1179 21.5068 27.0669 22.064 27.3741 22.6132C27.607 23.0298 27.9538 23.305 28.4209 23.4233ZM29.7962 22.564C29.547 22.7153 29.2769 22.7819 28.9861 22.7732V22.7726C28.2604 22.7988 27.7662 22.2147 27.9381 21.4775C28.1194 20.7017 28.6481 20.1806 29.5545 20.1799C30.3118 20.1793 30.736 20.8985 30.5233 21.569C30.3873 21.9962 30.1802 22.3318 29.7962 22.564Z" fill="white"/>
<path d="M19.9824 0.5C30.7473 0.5 39.4647 9.1306 39.4648 19.7656C39.4648 30.4008 30.7474 39.0322 19.9824 39.0322C9.21743 39.0322 0.5 30.4008 0.5 19.7656C0.50018 9.13061 9.21754 0.500008 19.9824 0.5Z" stroke="black" stroke-opacity="0.05"/>
</svg>
