<svg width="40" height="40" viewBox="0 0 40 40" fill="none" xmlns="http://www.w3.org/2000/svg">
<circle cx="20" cy="20" r="20" fill="#760000"/>
<g clip-path="url(#clip0_33363_65660)">
<path d="M33.0414 17.0137C34.7771 17.0037 35.85 18.2637 35.86 19.9537C35.87 21.6437 34.8114 22.9166 33.0757 22.9266C31.34 22.9366 30.2672 21.6766 30.2572 19.9866C30.2472 18.2966 31.3043 17.0237 33.0414 17.0137ZM33.0623 22.118C33.2858 22.1176 33.5069 22.0616 33.7132 21.9531C33.9194 21.8446 34.1067 21.6858 34.2643 21.4858C34.422 21.2857 34.5469 21.0483 34.6319 20.7872C34.717 20.526 34.7605 20.2461 34.76 19.9636C34.7595 19.6811 34.715 19.4014 34.6291 19.1405C34.5431 18.8797 34.4174 18.6427 34.259 18.4432C34.1007 18.2437 33.9128 18.0855 33.7062 17.9778C33.4996 17.87 33.2783 17.8148 33.0548 17.8152C32.8314 17.8155 32.6102 17.8716 32.404 17.9801C32.1978 18.0885 32.0105 18.2473 31.8528 18.4474C31.6952 18.6475 31.5703 18.8848 31.4852 19.146C31.4002 19.4072 31.3567 19.687 31.3571 19.9696C31.3576 20.2521 31.4021 20.5318 31.4881 20.7927C31.5741 21.0535 31.6998 21.2905 31.8581 21.49C32.0165 21.6895 32.2043 21.8476 32.4109 21.9554C32.6176 22.0631 32.8389 22.1184 33.0623 22.118Z" fill="white"/>
<path d="M4 22.5678V17.3778C4.18286 17.1245 4.51857 17.035 5.00714 17.1093C5.05762 17.1169 5.08286 17.1464 5.08286 17.1978V19.3064C5.08286 19.3635 5.11143 19.3921 5.16857 19.3921H7.42714C7.47 19.3921 7.49143 19.3707 7.49143 19.3278V17.3421C7.49143 17.185 7.57048 17.1064 7.72857 17.1064H8.19286C8.29402 17.1064 8.39104 17.1466 8.46257 17.2181C8.5341 17.2896 8.57429 17.3867 8.57429 17.4878V22.4193C8.57429 22.6431 8.46286 22.7683 8.24 22.795L7.82429 22.845C7.60429 22.8716 7.49429 22.7745 7.49429 22.5535V20.3621C7.49429 20.2983 7.46238 20.2664 7.39857 20.2664H5.15857C5.1081 20.2664 5.08286 20.2916 5.08286 20.3421V22.7221C5.08286 22.7764 5.05619 22.8078 5.00286 22.8164C4.52667 22.8954 4.19238 22.8126 4 22.5678Z" fill="white"/>
<path d="M12.8072 21.5895H10.58C10.5564 21.5896 10.5334 21.5967 10.514 21.6099C10.4947 21.6232 10.4798 21.642 10.4715 21.6638L10.1286 22.5623C10.1006 22.6358 10.0508 22.6991 9.98604 22.7437C9.92125 22.7884 9.84443 22.8123 9.76575 22.8123H9.06004C8.96194 22.8123 8.93051 22.7661 8.96575 22.6738L11.0686 17.1752C11.0762 17.1552 11.0896 17.1379 11.1071 17.1255C11.1247 17.113 11.1456 17.1059 11.1672 17.1052C11.5715 17.0966 12.2829 16.998 12.4729 17.4995C13.4977 20.1918 14.1477 21.889 14.4229 22.5909C14.4972 22.7785 14.4338 22.8633 14.2329 22.8452L13.7172 22.8009C13.5096 22.7828 13.3634 22.678 13.2786 22.4866L12.9143 21.6595C12.8934 21.6128 12.8577 21.5895 12.8072 21.5895ZM10.8086 20.6838C10.8058 20.6911 10.8049 20.6991 10.8059 20.7069C10.8068 20.7147 10.8097 20.7222 10.8142 20.7286C10.8187 20.7351 10.8247 20.7404 10.8317 20.744C10.8387 20.7476 10.8464 20.7495 10.8543 20.7495L12.56 20.7523C12.5677 20.7523 12.5753 20.7504 12.5822 20.7469C12.589 20.7433 12.5949 20.7382 12.5994 20.7319C12.6038 20.7256 12.6068 20.7184 12.6079 20.7107C12.609 20.7031 12.6082 20.6953 12.6058 20.688L11.7572 18.2552C11.7538 18.2458 11.7476 18.2376 11.7394 18.2319C11.7312 18.2261 11.7215 18.223 11.7115 18.223C11.7015 18.223 11.6917 18.2261 11.6835 18.2319C11.6753 18.2376 11.6691 18.2458 11.6658 18.2552L10.8086 20.6838Z" fill="white"/>
<path d="M17.5828 19.7775C17.8657 20.3146 18.1376 20.8417 18.3985 21.3589C18.4414 21.4437 18.4628 21.4384 18.4628 21.3432V17.356C18.4628 17.1913 18.5452 17.1089 18.71 17.1089H19.1328C19.2397 17.1089 19.3421 17.1512 19.4177 17.2265C19.4932 17.3017 19.5357 17.4039 19.5357 17.5103V22.7546C19.5357 22.7718 19.529 22.7883 19.5169 22.8006C19.5049 22.8129 19.4886 22.8199 19.4714 22.8203C18.94 22.836 18.2157 22.9732 17.9157 22.3689C17.4585 21.4508 17.0843 20.7141 16.7928 20.1589C16.509 19.6217 16.2371 19.0946 15.9771 18.5775C15.9343 18.4927 15.9128 18.4979 15.9128 18.5932V22.5803C15.9128 22.7451 15.8304 22.8275 15.6657 22.8275H15.2428C15.136 22.8275 15.0335 22.7852 14.958 22.7099C14.8824 22.6346 14.84 22.5325 14.84 22.426V17.1817C14.84 17.1646 14.8467 17.1481 14.8587 17.1358C14.8707 17.1235 14.8871 17.1164 14.9043 17.116C15.4357 17.1003 16.16 16.9632 16.46 17.5675C16.9162 18.4856 17.2904 19.2222 17.5828 19.7775Z" fill="white"/>
<path d="M23.8729 21.6572C23.8519 21.6115 23.8162 21.5886 23.7657 21.5886H21.54C21.5164 21.5887 21.4934 21.5958 21.474 21.6091C21.4547 21.6223 21.4398 21.6411 21.4315 21.6629L21.0886 22.56C21.0606 22.6333 21.0111 22.6964 20.9466 22.741C20.8821 22.7857 20.8056 22.8097 20.7272 22.81H20.0215C19.9234 22.81 19.8919 22.7638 19.9272 22.6715L22.0286 17.1772C22.0362 17.1572 22.0496 17.1399 22.0671 17.1274C22.0847 17.115 22.1056 17.1079 22.1272 17.1072C22.53 17.0986 23.2415 17 23.4315 17.5C24.4562 20.1905 25.1062 21.8867 25.3815 22.5886C25.4557 22.7762 25.3924 22.861 25.1915 22.8429L24.6757 22.7986C24.4681 22.7805 24.3219 22.6757 24.2372 22.4843L23.8729 21.6572ZM21.7715 20.6872C21.769 20.6945 21.7682 20.7022 21.7694 20.7099C21.7705 20.7175 21.7734 20.7248 21.7778 20.731C21.7823 20.7373 21.7882 20.7424 21.795 20.746C21.8019 20.7495 21.8095 20.7514 21.8172 20.7515L23.52 20.7486C23.5277 20.7486 23.5353 20.7467 23.5422 20.7431C23.549 20.7396 23.5549 20.7345 23.5594 20.7282C23.5638 20.7219 23.5667 20.7146 23.5679 20.707C23.569 20.6994 23.5682 20.6916 23.5658 20.6843L22.71 18.2529C22.7067 18.2435 22.7004 18.2353 22.6923 18.2296C22.6841 18.2238 22.6743 18.2207 22.6643 18.2207C22.6543 18.2207 22.6446 18.2238 22.6364 18.2296C22.6282 18.2353 22.622 18.2435 22.6186 18.2529L21.7715 20.6872Z" fill="white"/>
<path d="M26.8586 20.7292V22.592C26.8586 22.7844 26.7629 22.8701 26.5714 22.8492L26.1371 22.8006C25.9143 22.7768 25.8029 22.653 25.8029 22.4292V17.5149C25.8028 17.4115 25.8432 17.3122 25.9155 17.238C25.9878 17.1639 26.0863 17.1207 26.19 17.1177C27.12 17.092 28.5443 16.9734 29.2514 17.5392C30.0843 18.2077 30.12 19.7677 29.0743 20.3277C29.0343 20.3496 29.0233 20.3811 29.0414 20.422L30.0314 22.6663C30.0752 22.7654 30.0429 22.8149 29.9343 22.8149H29.2386C29.1664 22.8149 29.0958 22.794 29.0354 22.7547C28.975 22.7154 28.9275 22.6593 28.8986 22.5934L28.0614 20.6949C28.0443 20.6568 28.0152 20.6377 27.9743 20.6377H26.95C26.889 20.6377 26.8586 20.6682 26.8586 20.7292ZM26.8557 18.012L26.8586 19.7406C26.8586 19.7573 26.8652 19.7733 26.877 19.785C26.8888 19.7968 26.9048 19.8034 26.9214 19.8034L27.8129 19.802C28.0644 19.8016 28.3055 19.7085 28.4831 19.5432C28.6608 19.3779 28.7603 19.154 28.76 18.9206V18.8263C28.7598 18.7107 28.7351 18.5963 28.6873 18.4896C28.6395 18.3829 28.5694 18.286 28.4812 18.2044C28.393 18.1228 28.2883 18.0582 28.1731 18.0141C28.058 17.9701 27.9346 17.9475 27.81 17.9477L26.9186 17.9492C26.9019 17.9492 26.8859 17.9558 26.8741 17.9676C26.8623 17.9794 26.8557 17.9953 26.8557 18.012Z" fill="white"/>
</g>
<circle cx="20" cy="20" r="19.5" stroke="black" stroke-opacity="0.05"/>
<defs>
<clipPath id="clip0_33363_65660">
<rect width="32" height="6" fill="white" transform="translate(4 17)"/>
</clipPath>
</defs>
</svg>
