<svg width="40" height="40" viewBox="0 0 40 40" fill="none" xmlns="http://www.w3.org/2000/svg">
<circle cx="20" cy="20" r="20" fill="#0F2E48"/>
<path d="M8.07911 14.4357C8.0566 14.4202 8.04859 14.3992 8.0541 14.3722C8.08312 14.2316 8.44687 14.0479 8.56495 14.0059C8.61849 13.9869 8.67753 14.0154 8.69655 14.0689C8.70305 14.0875 8.70405 14.1075 8.69955 14.1265L8.66452 14.2756C8.65902 14.2981 8.66052 14.3201 8.66803 14.3416C8.73507 14.5293 8.70455 14.7119 8.76559 14.904C8.81113 15.0486 8.85416 15.2147 8.89368 15.4024C8.89719 15.4204 8.89168 15.4349 8.87667 15.4459C8.84015 15.4724 8.79962 15.4879 8.75409 15.4924C8.74058 15.4939 8.72707 15.4894 8.71756 15.4794C8.67353 15.4349 8.61899 15.4044 8.55345 15.3874C8.30377 15.3228 8.14266 15.1597 8.07061 14.898C8.05109 14.8265 8.01507 14.7629 7.96353 14.7079C7.94952 14.6934 7.94902 14.6779 7.96203 14.6624L8.08912 14.5143C8.10813 14.4922 8.10563 14.4587 8.08362 14.4392C8.08212 14.4382 8.08062 14.4367 8.07911 14.4357Z" fill="#E27500"/>
<path d="M11.3308 14.1441C11.3444 14.1276 11.3544 14.1091 11.3604 14.0886C11.3714 14.0531 11.4089 14.0336 11.4439 14.0446C11.4439 14.0446 11.4439 14.0446 11.4444 14.0446C11.6486 14.1086 11.8197 14.2017 11.9583 14.3243C11.9993 14.3608 12.0033 14.4238 11.9668 14.4649C11.9533 14.4804 11.9348 14.4914 11.9148 14.4959C11.7136 14.5429 11.6321 14.677 11.4664 14.7711C11.3118 14.8586 11.2183 15.0052 11.0797 15.1123C11.0096 15.1659 10.9466 15.2274 10.89 15.2959C10.8785 15.3095 10.8585 15.312 10.845 15.301C10.796 15.2619 10.7459 15.2159 10.7454 15.1473C10.7454 15.0523 10.7369 14.9577 10.7214 14.8641C10.6864 14.655 10.801 14.4283 10.9601 14.3008C10.9961 14.2717 11.0146 14.2247 11.0281 14.1817C11.0451 14.1291 11.0807 14.1086 11.1352 14.1211L11.2913 14.1572C11.3073 14.1607 11.3203 14.1567 11.3308 14.1441Z" fill="#E27500"/>
<path d="M10.6971 15.2494C10.6905 15.2619 10.684 15.2835 10.6825 15.297C10.681 15.3085 10.677 15.3095 10.6705 15.3005C10.6405 15.2599 10.636 15.2194 10.657 15.1794C10.6635 15.1674 10.6785 15.1624 10.691 15.1689C10.696 15.1714 10.7001 15.1759 10.7021 15.1809C10.7116 15.2019 10.7096 15.2249 10.6971 15.2494Z" fill="#E27500"/>
<path d="M8.80002 15.5951C8.80403 15.5976 8.80803 15.6001 8.81253 15.6021C8.81403 15.6031 8.81454 15.6051 8.81353 15.6061C8.81303 15.6071 8.81203 15.6076 8.81103 15.6076L8.70846 15.5916C8.69295 15.5891 8.68745 15.5801 8.69195 15.5651L8.69845 15.5436C8.70396 15.5246 8.71547 15.5201 8.73248 15.5301C8.74999 15.5406 8.7645 15.5541 8.77551 15.5716C8.78151 15.5816 8.78952 15.5896 8.80002 15.5951Z" fill="#E27500"/>
<path d="M5.96416 16.2685C5.8771 16.248 5.84258 16.1895 5.86059 16.0929C5.89461 15.9123 5.95415 15.7562 6.03971 15.6246C6.07624 15.569 6.12327 15.5575 6.18181 15.591C6.27788 15.6456 6.27888 15.7737 6.37495 15.8392C6.52706 15.9428 6.62062 16.0779 6.76922 16.185C6.93484 16.3045 7.09295 16.4201 7.24356 16.5307C7.28709 16.5627 7.29659 16.6243 7.26407 16.6678C7.24856 16.6883 7.22604 16.7023 7.20053 16.7068C7.08294 16.7258 6.96686 16.7508 6.85228 16.7824C6.76122 16.8074 6.67266 16.8109 6.5866 16.7924C6.447 16.7629 6.33342 16.7118 6.24536 16.6393C6.18482 16.5897 6.11827 16.5787 6.04572 16.5582C6.0187 16.5502 5.99969 16.5262 5.99869 16.4982L5.99068 16.3005C5.99018 16.283 5.98117 16.272 5.96416 16.2685Z" fill="#E27500"/>
<path d="M7.87757 20.7594C7.83705 20.7359 7.82804 20.7444 7.85106 20.7859C7.86807 20.8159 7.88608 20.8459 7.90459 20.876C7.93461 20.9245 7.92611 20.933 7.87907 20.9015C7.7775 20.8334 7.68144 20.7544 7.59087 20.6648C7.52633 20.6013 7.50031 20.5167 7.47829 20.4321C7.45578 20.3466 7.39724 20.3016 7.3382 20.242C7.32118 20.2245 7.31118 20.204 7.30868 20.1795C7.30017 20.0939 7.26915 20.0159 7.21511 19.9453C7.1981 19.9233 7.19209 19.8988 7.1971 19.8713L7.21561 19.7697C7.21861 19.7537 7.21511 19.7372 7.2061 19.7232L7.10804 19.5685C7.09853 19.554 7.09352 19.5385 7.09252 19.5215C7.08452 19.3909 7.10954 19.2503 7.09803 19.1252C7.07851 18.9156 7.07801 18.746 7.09653 18.6159C7.13806 18.3192 7.31518 17.9664 7.45228 17.6712C7.73647 17.0588 8.18629 16.5684 8.80222 16.2007C9.01187 16.0751 9.27255 15.9515 9.58477 15.8289C9.88298 15.7118 10.2142 15.6488 10.5109 15.8099C10.7076 15.9165 10.9432 15.9955 11.1569 15.9405C11.1754 15.9355 11.1934 15.936 11.2114 15.9425C11.3365 15.985 11.4576 16.0321 11.5752 16.0841C11.8193 16.1927 11.8909 16.4769 11.7123 16.6815C11.6597 16.7416 11.5767 16.7656 11.4996 16.7526C11.1849 16.6985 10.8902 16.6375 10.6155 16.5694C10.2237 16.4719 9.9105 16.5094 9.55525 16.657C8.6261 17.0428 8.00166 17.7047 7.68194 18.6419C7.60588 18.8651 7.57486 19.0952 7.50781 19.3234C7.50281 19.3409 7.50331 19.3579 7.50932 19.3749C7.51782 19.3984 7.52132 19.4219 7.51982 19.446C7.4923 19.9608 7.64291 20.4171 7.97214 20.8159C7.99115 20.8394 7.99616 20.8644 7.98665 20.8915C7.97914 20.9125 7.97164 20.9125 7.96313 20.8915C7.93411 20.8194 7.90559 20.7754 7.87757 20.7589V20.7594Z" fill="#E27500"/>
<path d="M7.23902 16.7457C7.28956 16.7617 7.31407 16.7432 7.35861 16.7432C7.37111 16.7432 7.37162 16.7462 7.36111 16.7522L7.23452 16.8247C7.22251 16.8317 7.2065 16.8272 7.19949 16.8147C7.19899 16.8137 7.19849 16.8127 7.19799 16.8117C7.19149 16.7957 7.19149 16.7802 7.19799 16.7647C7.206 16.7457 7.21951 16.7392 7.23902 16.7457Z" fill="#E27500"/>
<path d="M12.6309 20.0751C13.2258 20.5169 13.557 21.0293 13.4124 21.8068C13.3308 22.2471 13.1392 22.5629 12.7469 22.782C12.3837 22.9857 12.0154 23.1303 11.6036 23.1298C10.9197 23.1288 10.2287 23.1288 9.53168 23.1298C9.34355 23.1303 9.23998 22.9767 9.24048 22.8025C9.24198 21.1539 9.24248 19.5077 9.24098 17.8636C9.24048 17.7465 9.32904 17.5474 9.47014 17.5479C10.1621 17.5494 10.8491 17.5499 11.5311 17.5504C11.8408 17.5509 12.1665 17.6039 12.4342 17.755C12.862 17.9967 13.1817 18.5045 13.1612 19.0159C13.1462 19.3896 12.884 19.7604 12.6274 20.0381C12.6148 20.0516 12.6163 20.0636 12.6309 20.0746V20.0751ZM10.2337 18.451V19.6668C10.2337 19.6823 10.2467 19.6954 10.2622 19.6954H11.5396C11.8968 19.6954 12.186 19.4107 12.186 19.0599V19.0579C12.186 18.7072 11.8968 18.4225 11.5396 18.4225H10.2622C10.2467 18.4225 10.2337 18.4355 10.2337 18.451ZM10.2342 20.596L10.2312 22.2241C10.2312 22.2421 10.2462 22.2571 10.2642 22.2571L11.6031 22.2597C12.08 22.2607 12.4672 21.8894 12.4682 21.4306V21.3975C12.4692 20.9387 12.083 20.5665 11.6061 20.5655L10.2672 20.563C10.2492 20.563 10.2342 20.578 10.2342 20.596Z" fill="white"/>
<path d="M22.0669 22.5189C22.0669 22.4849 22.0548 22.4799 22.0303 22.5039C21.6636 22.8687 21.2348 23.0553 20.7434 23.0638C19.9644 23.0768 19.2269 22.3993 19.0462 21.6838C18.8331 20.8392 19.1238 20.0582 19.8578 19.5613C20.1625 19.3547 20.4908 19.2661 20.8425 19.2957C21.3268 19.3362 21.7051 19.4923 22.0143 19.8591C22.0488 19.8996 22.0659 19.8936 22.0659 19.84V18.0368C22.0659 18.0223 22.0779 18.0103 22.0924 18.0103H22.8934C22.9184 18.0098 22.9385 18.0298 22.9385 18.0548L22.9375 22.9312C22.9375 22.9442 22.927 22.9547 22.9144 22.9547H22.1159C22.0824 22.9547 22.0659 22.9382 22.0659 22.9047L22.0669 22.5189ZM20.9541 22.3943C21.5665 22.3963 22.0649 21.876 22.0669 21.232C22.0689 20.5881 21.5745 20.0642 20.9621 20.0617C20.3497 20.0597 19.8513 20.5801 19.8493 21.224C19.8473 21.868 20.3416 22.3918 20.9541 22.3943Z" fill="#E27500"/>
<path d="M14.6337 18.0713L13.8011 18.0727C13.7884 18.0727 13.7781 18.0831 13.7781 18.0958L13.7794 18.8303C13.7794 18.843 13.7897 18.8533 13.8025 18.8533L14.635 18.8518C14.6477 18.8518 14.658 18.8415 14.658 18.8287L14.6567 18.0942C14.6567 18.0815 14.6464 18.0712 14.6337 18.0713Z" fill="white"/>
<path d="M5.2446 18.9642C5.16205 18.9957 5.10651 18.9687 5.07799 18.8827C5.01895 18.707 4.99343 18.5324 5.00143 18.3593C5.00394 18.3052 5.04947 18.2637 5.103 18.2662C5.11651 18.2667 5.12952 18.2702 5.14153 18.2757C5.22159 18.3148 5.29114 18.3743 5.3787 18.3898C5.58084 18.4248 5.76297 18.5054 5.97211 18.5254C6.12172 18.5394 6.27933 18.5604 6.44394 18.5889C6.49398 18.5975 6.5275 18.6445 6.519 18.6945C6.51549 18.715 6.50499 18.734 6.48898 18.7481C6.41442 18.8136 6.34037 18.8832 6.26732 18.9567C6.0992 19.1263 5.87054 19.1974 5.63988 19.1583C5.57333 19.1473 5.51379 19.1633 5.45025 19.1764C5.41422 19.1839 5.3772 19.1659 5.36119 19.1323L5.28914 18.9817C5.27963 18.9622 5.26512 18.9562 5.2446 18.9642Z" fill="#E27500"/>
<path d="M6.51548 18.8064L6.61305 18.7463C6.62256 18.7403 6.62556 18.7428 6.62206 18.7538C6.61055 18.7904 6.58954 18.8199 6.55901 18.8414C6.55251 18.8464 6.5445 18.8489 6.537 18.8484C6.51698 18.8474 6.50648 18.8409 6.50498 18.8294C6.50348 18.8194 6.50698 18.8119 6.51548 18.8064Z" fill="#E27500"/>
<path d="M16.8007 23.0457C15.771 23.0477 14.9349 22.1856 14.9329 21.1208C14.9309 20.0561 15.7639 19.191 16.7937 19.1895C17.8234 19.1875 18.6595 20.0496 18.6615 21.1143C18.6635 22.179 17.8304 23.0442 16.8007 23.0457ZM16.8037 22.2551C17.4211 22.2521 17.919 21.7392 17.9155 21.1103C17.912 20.4814 17.4091 19.974 16.7917 19.9775C16.1742 19.9805 15.6764 20.4934 15.6799 21.1223C15.6834 21.7513 16.1862 22.2586 16.8037 22.2551Z" fill="white"/>
<path d="M28.1776 19.8455C28.2882 19.7485 28.4013 19.6614 28.5174 19.5849C29.2689 19.0885 30.083 19.1996 30.6233 19.9051C30.8185 20.1593 30.9155 20.4405 30.9145 20.7492C30.912 21.4482 30.912 22.1737 30.9145 22.9252C30.9145 22.9417 30.901 22.9547 30.8845 22.9547H30.0715C30.0539 22.9547 30.0449 22.9457 30.0449 22.9282C30.0444 22.3033 30.0429 21.6738 30.0404 21.0399C30.0384 20.6191 29.7462 20.2258 29.3685 20.0962C28.8641 19.9231 28.3858 20.2488 28.2067 20.7056C28.1606 20.8222 28.1386 20.9964 28.1411 21.229C28.1461 21.8094 28.1466 22.3793 28.1431 22.9382C28.1431 22.9472 28.1361 22.9542 28.1271 22.9542H27.308C27.288 22.9542 27.2715 22.9382 27.2715 22.9182V19.4398C27.271 19.4197 27.287 19.4037 27.307 19.4037H28.1091C28.1291 19.4047 28.1456 19.4213 28.1451 19.4413L28.1436 19.83C28.1436 19.8601 28.1551 19.8651 28.1776 19.8455Z" fill="#E27500"/>
<path d="M32.0974 21.5046C32.0618 21.5046 32.0503 21.5211 32.0633 21.5537C32.261 22.0545 32.6227 22.3062 33.1486 22.3087C33.5139 22.3107 33.8106 22.1506 34.0272 21.8724C34.0557 21.8364 34.0923 21.8184 34.1378 21.8184C34.3805 21.8184 34.6191 21.8194 34.8538 21.8199C34.8628 21.8199 34.8698 21.8269 34.8698 21.8359C34.8698 21.8379 34.8698 21.8394 34.8688 21.8414C34.6592 22.4238 34.1833 22.9196 33.5724 23.0377C32.8364 23.1803 32.2295 22.9782 31.7506 22.4318C31.515 22.1626 31.3714 21.8554 31.3203 21.5096C31.2102 20.7646 31.4384 20.1547 32.0048 19.6809C32.5302 19.241 33.2847 19.1525 33.8976 19.4672C34.0788 19.5603 34.2519 19.6764 34.4175 19.8159C34.9213 20.2402 35.0469 20.8517 34.9854 21.4816C34.9839 21.4971 34.9754 21.5046 34.9599 21.5046H32.0974ZM33.6199 20.1437C33.0225 19.9055 32.4031 20.1347 32.1169 20.7096C32.1119 20.7196 32.1159 20.7316 32.1259 20.7366C32.1289 20.7381 32.1319 20.7386 32.1349 20.7386C32.7798 20.7386 33.4023 20.7381 34.0022 20.7376C34.0577 20.7376 34.1128 20.7331 34.1683 20.7251C34.1878 20.7226 34.1938 20.7121 34.1868 20.6936C34.0848 20.4369 33.8956 20.2538 33.6199 20.1437Z" fill="#E27500"/>
<path d="M24.9858 24.3433H24.3644L24.2323 24.3227C24.2153 24.3202 24.2098 24.3107 24.2158 24.2942L24.7101 22.9933C24.7196 22.9683 24.7191 22.9413 24.7091 22.9168L23.2831 19.4558C23.2691 19.4218 23.2806 19.4048 23.3171 19.4048H24.1162C24.1412 19.4043 24.1642 19.4198 24.1732 19.4433L25.0904 21.8295C25.1119 21.8845 25.1329 21.8845 25.1539 21.8295L26.0796 19.4243C26.0841 19.4123 26.0956 19.4048 26.1081 19.4048H26.9342C26.9482 19.4048 26.9597 19.4163 26.9597 19.4303C26.9597 19.4333 26.9592 19.4363 26.9577 19.4393L24.9858 24.3433Z" fill="#E27500"/>
<path d="M14.6332 19.6035H13.8036C13.7895 19.6035 13.7781 19.6149 13.7781 19.629V23.0534C13.7781 23.0675 13.7895 23.0789 13.8036 23.0789H14.6332C14.6473 23.0789 14.6587 23.0675 14.6587 23.0534V19.629C14.6587 19.6149 14.6473 19.6035 14.6332 19.6035Z" fill="white"/>
<path d="M7.14736 20.8696C7.14786 20.9912 7.15136 21.1098 7.15736 21.2254C7.16187 21.3049 7.14886 21.3745 7.11834 21.434C7.07431 21.5206 7.03228 21.6091 6.94772 21.6662C6.87417 21.7152 6.82013 21.7782 6.7856 21.8553C6.7766 21.8748 6.75608 21.8858 6.73507 21.8823C6.67002 21.8718 6.60748 21.8523 6.54794 21.8243C6.52442 21.8128 6.50741 21.8193 6.4959 21.8428C6.48189 21.8718 6.46138 21.8933 6.43436 21.9078C6.41635 21.9173 6.39483 21.9183 6.37582 21.9108C6.18919 21.8343 6.02857 21.7227 5.89398 21.5761C5.86046 21.5396 5.86346 21.483 5.89998 21.4495C5.91049 21.44 5.9225 21.433 5.93601 21.4295C6.01907 21.4065 6.10113 21.408 6.17368 21.3534C6.31477 21.2474 6.47489 21.1943 6.61549 21.0818C6.73607 20.9852 6.86216 20.8886 6.99425 20.7921C7.03678 20.7605 7.09732 20.77 7.12884 20.8131C7.14085 20.8296 7.14736 20.8491 7.14736 20.8696Z" fill="#E27500"/>
<path d="M7.20089 20.8612L7.2074 20.7902C7.2104 20.7586 7.21991 20.7561 7.23642 20.7837C7.25343 20.8122 7.26294 20.8432 7.26544 20.8767C7.26644 20.8922 7.25943 20.9027 7.24492 20.9078C7.23492 20.9113 7.22491 20.9123 7.2144 20.9108C7.19689 20.9083 7.18988 20.8987 7.19239 20.8812C7.19289 20.8767 7.19489 20.8727 7.19739 20.8692C7.19939 20.8667 7.20039 20.8642 7.20089 20.8612Z" fill="#E27500"/>
<path d="M7.87548 20.9956C7.92001 21.0381 7.9065 21.1047 7.97155 21.1452C8.02509 21.1787 8.07912 21.2133 8.13316 21.2478C8.14467 21.2553 8.14767 21.2648 8.14117 21.2773L8.13566 21.2888C8.13166 21.2968 8.12566 21.2988 8.11815 21.2943C7.95354 21.2043 7.81044 21.0842 7.68835 20.9336C7.66583 20.9055 7.67184 20.8955 7.70686 20.9035C7.76841 20.9176 7.82495 20.9481 7.87548 20.9956Z" fill="#E27500"/>
<path d="M8.43089 21.4403C8.43493 21.4321 8.39684 21.4051 8.3458 21.3798C8.29477 21.3546 8.25013 21.3408 8.24609 21.349C8.24204 21.3571 8.28014 21.3842 8.33117 21.4094C8.3822 21.4347 8.42685 21.4485 8.43089 21.4403Z" fill="#E27500"/>
<path d="M9.03992 21.6665C9.04642 21.6572 9.0115 21.6216 8.96193 21.5869C8.91235 21.5521 8.8669 21.5315 8.8604 21.5408C8.8539 21.5501 8.88882 21.5858 8.93839 21.6205C8.98797 21.6552 9.03342 21.6758 9.03992 21.6665Z" fill="#E27500"/>
<circle cx="20" cy="20" r="19.5" stroke="black" stroke-opacity="0.05"/>
</svg>
