<svg width="40" height="40" viewBox="0 0 40 40" fill="none" xmlns="http://www.w3.org/2000/svg">
<circle cx="20" cy="20" r="20" fill="#58585A"/>
<path d="M7.06288 26.743H4.6748L4.67495 13.2644C4.67495 13.2594 4.67743 13.2568 4.68239 13.2568H7.05683C7.06171 13.2568 7.06414 13.2593 7.06414 13.2641L7.064 14.0819C7.064 14.0865 7.06175 14.0888 7.05726 14.0888H5.5179C5.51275 14.0888 5.51017 14.0915 5.51017 14.0967V25.9068C5.51017 25.9079 5.51062 25.909 5.51141 25.9098C5.5122 25.9106 5.51327 25.911 5.51439 25.911H7.05627C7.06067 25.911 7.06288 25.9133 7.06288 25.9178V26.743Z" fill="white"/>
<path d="M35.3254 26.743H32.9395L32.9406 25.9179C32.9407 25.9133 32.943 25.911 32.9475 25.911L34.4858 25.9112C34.4879 25.9112 34.4898 25.9103 34.4913 25.9089C34.4927 25.9074 34.4936 25.9054 34.4936 25.9033V14.0966C34.4936 14.0945 34.4927 14.0925 34.4913 14.0911C34.4898 14.0896 34.4879 14.0888 34.4858 14.0888L32.9483 14.089C32.9426 14.089 32.9397 14.0861 32.9397 14.0803L32.9396 13.2641C32.9396 13.2593 32.942 13.2568 32.9469 13.2568H35.3178C35.3229 13.2568 35.3254 13.2594 35.3254 13.2644V26.743Z" fill="white"/>
<path d="M11.026 15.8052C11.0242 15.8051 11.0225 15.8053 11.0209 15.8058C11.0192 15.8063 11.0177 15.807 11.0165 15.808C11.0152 15.809 11.0142 15.8101 11.0135 15.8114C11.0128 15.8127 11.0125 15.8141 11.0125 15.8156C11.0124 16.4063 11.0123 16.9972 11.0123 17.5882C11.0123 17.5892 11.0119 17.5902 11.0112 17.591C11.0105 17.5917 11.0095 17.5921 11.0084 17.5921L10.2926 17.5923C10.2857 17.5923 10.2822 17.5887 10.2822 17.5817L10.2826 15.14C10.2826 15.1379 10.2836 15.1359 10.2854 15.1344C10.2871 15.1329 10.2895 15.132 10.2921 15.1318C10.3205 15.1302 10.8354 15.1296 11.8368 15.13C12.6938 15.1303 13.2408 15.9007 13.3251 16.6819C13.3959 17.3385 13.1733 18.0297 12.6496 18.4373C12.469 18.5779 12.2681 18.6649 12.0468 18.6983C11.9745 18.7091 11.8828 18.7144 11.7717 18.714C11.2996 18.7124 10.8071 18.7122 10.2943 18.7133C10.2911 18.7133 10.288 18.712 10.2858 18.7098C10.2835 18.7076 10.2822 18.7045 10.2822 18.7013L10.2826 18.0436C10.2826 18.0386 10.2851 18.0361 10.2901 18.0361C10.7856 18.0362 11.2789 18.0361 11.7697 18.0356C11.9346 18.0354 12.0997 17.9485 12.2202 17.8345C12.5091 17.5615 12.6235 17.1389 12.5766 16.7497C12.5256 16.327 12.2273 15.8074 11.7397 15.8073C11.3444 15.8071 11.1103 15.8092 11.026 15.8052Z" fill="white"/>
<path d="M16.9997 16.514H18.4265C18.4288 16.514 18.431 16.5149 18.4326 16.5165C18.4342 16.5181 18.4351 16.5203 18.4351 16.5225L18.4341 17.183C18.4341 17.1852 18.4332 17.1874 18.4316 17.189C18.43 17.1906 18.4278 17.1915 18.4255 17.1915H16.9996C16.9973 17.1915 16.9951 17.1924 16.9935 17.194C16.9919 17.1957 16.991 17.1978 16.991 17.2001L16.9913 18.0275C16.9913 18.0297 16.9922 18.0319 16.9938 18.0335C16.9954 18.0351 16.9976 18.036 16.9999 18.036H18.5704C18.5715 18.036 18.5726 18.0363 18.5737 18.0367C18.5747 18.0371 18.5757 18.0378 18.5765 18.0385C18.5773 18.0393 18.5779 18.0403 18.5783 18.0413C18.5788 18.0424 18.579 18.0435 18.579 18.0446L18.5787 18.7045C18.5787 18.7067 18.5778 18.7089 18.5762 18.7105C18.5746 18.7121 18.5724 18.713 18.5701 18.713L16.2693 18.7129C16.267 18.7129 16.2649 18.712 16.2633 18.7104C16.2616 18.7088 16.2607 18.7066 16.2607 18.7043L16.261 15.139C16.261 15.1379 16.2612 15.1368 16.2617 15.1357C16.2621 15.1347 16.2627 15.1338 16.2635 15.133C16.2643 15.1322 16.2653 15.1315 16.2663 15.1311C16.2674 15.1307 16.2685 15.1304 16.2696 15.1304L18.5704 15.1299C18.5715 15.1299 18.5726 15.1301 18.5737 15.1305C18.5747 15.131 18.5757 15.1316 18.5765 15.1324C18.5773 15.1332 18.5779 15.1341 18.5783 15.1352C18.5788 15.1362 18.579 15.1373 18.579 15.1385L18.5787 15.7989C18.5787 15.8012 18.5778 15.8033 18.5762 15.8049C18.5746 15.8065 18.5724 15.8075 18.5701 15.8075L16.9997 15.8073C16.9974 15.8073 16.9953 15.8082 16.9937 15.8098C16.992 15.8114 16.9911 15.8136 16.9911 15.8159V16.5054C16.9911 16.5077 16.992 16.5098 16.9937 16.5115C16.9953 16.5131 16.9974 16.514 16.9997 16.514Z" fill="white"/>
<path d="M22.2304 15.815L22.2301 16.506C22.2301 16.507 22.2303 16.508 22.2307 16.509C22.2311 16.5099 22.2317 16.5108 22.2324 16.5115C22.2332 16.5123 22.234 16.5128 22.235 16.5132C22.2359 16.5136 22.237 16.5138 22.238 16.5138H23.6652C23.6673 16.5138 23.6693 16.5147 23.6708 16.5161C23.6722 16.5176 23.6731 16.5196 23.6731 16.5217V17.1837C23.6731 17.1858 23.6722 17.1878 23.6708 17.1892C23.6693 17.1907 23.6673 17.1915 23.6652 17.1915L22.2381 17.1913C22.2371 17.1913 22.2361 17.1915 22.2351 17.1919C22.2342 17.1922 22.2333 17.1928 22.2326 17.1936C22.2318 17.1943 22.2312 17.1952 22.2309 17.1961C22.2305 17.1971 22.2303 17.1981 22.2303 17.1991L22.2305 18.028C22.2305 18.0301 22.2314 18.0321 22.2328 18.0336C22.2343 18.0351 22.2363 18.0359 22.2384 18.0359H23.8095C23.8116 18.0359 23.8136 18.0367 23.8151 18.0382C23.8166 18.0397 23.8174 18.0417 23.8174 18.0438L23.8175 18.7049C23.8175 18.707 23.8167 18.709 23.8152 18.7105C23.8137 18.7119 23.8117 18.7128 23.8097 18.7128H21.5088C21.5068 18.7128 21.5048 18.7119 21.5033 18.7105C21.5018 18.709 21.501 18.707 21.501 18.7049L21.5011 15.138C21.5011 15.1359 21.5019 15.1339 21.5034 15.1325C21.5049 15.131 21.5069 15.1302 21.509 15.1302L23.8097 15.1299C23.8117 15.1299 23.8137 15.1307 23.8152 15.1322C23.8167 15.1337 23.8175 15.1357 23.8175 15.1378L23.8174 15.7994C23.8174 15.8015 23.8166 15.8035 23.8151 15.805C23.8136 15.8065 23.8116 15.8073 23.8095 15.8073L22.2383 15.8072C22.2362 15.8072 22.2342 15.808 22.2327 15.8095C22.2312 15.811 22.2304 15.813 22.2304 15.815Z" fill="white"/>
<path d="M27.4694 17.7564L27.4695 18.6987C27.4695 18.7025 27.468 18.7061 27.4654 18.7088C27.4627 18.7114 27.4591 18.7129 27.4553 18.7129L26.7498 18.7127C26.747 18.7127 26.7443 18.7115 26.7423 18.7096C26.7404 18.7076 26.7393 18.7049 26.7393 18.7021L26.7395 15.1478C26.7395 15.1378 26.7445 15.1328 26.7544 15.1326C27.2852 15.1253 27.8034 15.1294 28.3024 15.1289C28.4282 15.1287 28.5217 15.1322 28.5828 15.1393C28.9731 15.1843 29.2744 15.3785 29.4866 15.722C29.5649 15.8488 29.6195 15.992 29.6503 16.1517C29.7097 16.4587 29.678 16.7501 29.5552 17.0258C29.473 17.2103 29.3395 17.3803 29.1778 17.5027C28.9643 17.6643 28.7174 17.7453 28.4371 17.7459C28.1196 17.7466 27.8003 17.7468 27.4791 17.7467C27.4726 17.7467 27.4694 17.75 27.4694 17.7564ZM28.8689 16.8621C29.0118 16.6733 29.0363 16.3971 28.9576 16.182C28.8661 15.9317 28.6831 15.8068 28.4086 15.8071C28.0948 15.8072 27.7842 15.8073 27.477 15.8072C27.475 15.8072 27.473 15.808 27.4716 15.8094C27.4702 15.8108 27.4694 15.8128 27.4694 15.8148V17.0606C27.4694 17.0617 27.4696 17.0628 27.47 17.0638C27.4704 17.0649 27.4711 17.0658 27.4718 17.0666C27.4726 17.0674 27.4736 17.068 27.4746 17.0684C27.4756 17.0688 27.4767 17.069 27.4778 17.069C27.7803 17.0689 28.0936 17.069 28.4176 17.0696C28.6134 17.0699 28.7638 17.0007 28.8689 16.8621Z" fill="white"/>
<path d="M19.3283 23.0125C19.3283 23.5188 19.1272 24.0043 18.7692 24.3622C18.4113 24.7202 17.9258 24.9213 17.4195 24.9213C16.9133 24.9213 16.4278 24.7202 16.0698 24.3622C15.7118 24.0043 15.5107 23.5188 15.5107 23.0125C15.5107 22.5063 15.7118 22.0208 16.0698 21.6628C16.4278 21.3049 16.9133 21.1038 17.4195 21.1038C17.9258 21.1038 18.4113 21.3049 18.7692 21.6628C19.1272 22.0208 19.3283 22.5063 19.3283 23.0125ZM18.65 23.0127C18.65 22.6863 18.5204 22.3733 18.2896 22.1426C18.0588 21.9118 17.7459 21.7822 17.4195 21.7822C17.0932 21.7822 16.7802 21.9118 16.5494 22.1426C16.3187 22.3733 16.189 22.6863 16.189 23.0127C16.189 23.1743 16.2208 23.3343 16.2827 23.4836C16.3445 23.6329 16.4352 23.7685 16.5494 23.8828C16.6637 23.997 16.7993 24.0877 16.9486 24.1495C17.0979 24.2113 17.2579 24.2432 17.4195 24.2432C17.5811 24.2432 17.7411 24.2113 17.8904 24.1495C18.0397 24.0877 18.1753 23.997 18.2896 23.8828C18.4039 23.7685 18.4945 23.6329 18.5563 23.4836C18.6182 23.3343 18.65 23.1743 18.65 23.0127Z" fill="white"/>
<path d="M11.0121 22.4987L11.0123 24.8656C11.0123 24.8662 11.0122 24.8668 11.012 24.8673C11.0118 24.8678 11.0115 24.8682 11.0111 24.8686C11.0107 24.869 11.0103 24.8693 11.0097 24.8695C11.0092 24.8698 11.0087 24.8699 11.0081 24.8699L10.2864 24.8694C10.2853 24.8694 10.2843 24.869 10.2835 24.8682C10.2827 24.8674 10.2822 24.8663 10.2822 24.8652L10.2824 21.2943C10.2824 21.2937 10.2825 21.2932 10.2827 21.2927C10.2829 21.2922 10.2832 21.2917 10.2836 21.2913C10.284 21.2909 10.2845 21.2906 10.285 21.2904C10.2855 21.2902 10.286 21.2901 10.2866 21.2901L11.1145 21.2899C11.1152 21.2899 11.1159 21.2901 11.1166 21.2904C11.1172 21.2908 11.1178 21.2913 11.1182 21.2919L12.5651 23.6588C12.5655 23.6596 12.5662 23.6602 12.5671 23.6606C12.568 23.6609 12.569 23.661 12.5699 23.6607C12.5708 23.6605 12.5716 23.6599 12.5721 23.6591C12.5727 23.6584 12.573 23.6574 12.5729 23.6565L12.5733 21.2943C12.5733 21.2932 12.5738 21.2921 12.5746 21.2913C12.5754 21.2905 12.5764 21.2901 12.5776 21.2901L13.2987 21.2898C13.2998 21.2898 13.3009 21.2902 13.3017 21.291C13.3025 21.2918 13.3029 21.2929 13.3029 21.294V24.8654C13.3029 24.8665 13.3025 24.8676 13.3017 24.8683C13.3009 24.8691 13.2998 24.8696 13.2987 24.8696H12.4726C12.4719 24.8696 12.4711 24.8694 12.4705 24.8691C12.4699 24.8687 12.4693 24.8682 12.4689 24.8676L11.0199 22.4964C11.0195 22.4956 11.0187 22.495 11.0179 22.4946C11.017 22.4942 11.016 22.4942 11.0151 22.4945C11.0142 22.4947 11.0134 22.4953 11.0129 22.496C11.0123 22.4968 11.012 22.4977 11.0121 22.4987Z" fill="white"/>
<path d="M23.0336 24.1923L23.5311 24.1928C23.534 24.1928 23.5367 24.1939 23.5387 24.1959C23.5407 24.198 23.5418 24.2007 23.5418 24.2035L23.542 24.859C23.542 24.8618 23.5408 24.8646 23.5388 24.8666C23.5368 24.8686 23.5341 24.8697 23.5313 24.8697L21.7864 24.8698C21.7835 24.8698 21.7808 24.8687 21.7788 24.8667C21.7768 24.8647 21.7757 24.862 21.7757 24.8591L21.7762 24.2035C21.7762 24.2007 21.7774 24.198 21.7794 24.1959C21.7814 24.1939 21.7841 24.1928 21.7869 24.1928L22.2852 24.1923C22.288 24.1923 22.2907 24.1911 22.2927 24.1891C22.2947 24.1871 22.2959 24.1844 22.2959 24.1816V21.9781C22.2959 21.9753 22.2947 21.9726 22.2927 21.9706C22.2907 21.9686 22.288 21.9675 22.2852 21.9675L21.7861 21.967C21.7832 21.967 21.7805 21.9659 21.7785 21.9639C21.7765 21.9619 21.7754 21.9592 21.7754 21.9564L21.7767 21.3007C21.7767 21.2979 21.7778 21.2952 21.7798 21.2932C21.7818 21.2912 21.7845 21.29 21.7873 21.29L23.531 21.2902C23.5338 21.2902 23.5365 21.2913 23.5386 21.2933C23.5406 21.2953 23.5417 21.298 23.5417 21.3009L23.542 21.9566C23.542 21.9595 23.5408 21.9622 23.5388 21.9642C23.5368 21.9662 23.5341 21.9673 23.5313 21.9673L23.0332 21.9669C23.0303 21.9669 23.0276 21.968 23.0256 21.97C23.0236 21.972 23.0225 21.9748 23.0225 21.9776L23.0229 24.1816C23.0229 24.1844 23.024 24.1871 23.026 24.1891C23.028 24.1911 23.0307 24.1923 23.0336 24.1923Z" fill="white"/>
<path d="M28.5532 21.3099C29.1245 21.4244 29.5368 21.9021 29.7025 22.4516C29.8906 23.0759 29.7955 23.7723 29.4019 24.2973C29.1823 24.5904 28.8581 24.8055 28.4949 24.857C28.4257 24.8668 28.3343 24.8715 28.2206 24.871C27.7275 24.8692 27.2384 24.8689 26.7535 24.8703C26.7497 24.8703 26.7461 24.8688 26.7434 24.8662C26.7408 24.8635 26.7393 24.8599 26.7393 24.8561L26.7395 21.3019C26.7395 21.2988 26.7408 21.2958 26.743 21.2936C26.7451 21.2914 26.7481 21.2901 26.7512 21.2901C27.2237 21.2904 27.7446 21.2902 28.3137 21.2896C28.4052 21.2895 28.485 21.2962 28.5532 21.3099ZM28.8221 23.8219C29.1117 23.3967 29.1213 22.8045 28.8412 22.3644C28.6966 22.1371 28.4727 21.964 28.1936 21.964C27.9428 21.9641 27.7041 21.964 27.4774 21.9637C27.4753 21.9637 27.4732 21.9646 27.4717 21.9661C27.4702 21.9676 27.4694 21.9696 27.4694 21.9718V24.1819C27.4694 24.1849 27.4705 24.1877 27.4726 24.1898C27.4747 24.1919 27.4775 24.193 27.4805 24.193C27.6948 24.1919 27.9167 24.1921 28.1461 24.1936C28.2235 24.1942 28.2857 24.1897 28.3327 24.1801C28.5353 24.1389 28.7086 23.9886 28.8221 23.8219Z" fill="white"/>
<path d="M17.4199 23.5076C17.6788 23.5076 17.8887 23.2977 17.8887 23.0388C17.8887 22.7799 17.6788 22.5701 17.4199 22.5701C17.161 22.5701 16.9512 22.7799 16.9512 23.0388C16.9512 23.2977 17.161 23.5076 17.4199 23.5076Z" fill="white"/>
<circle cx="20" cy="20" r="19.5" stroke="black" stroke-opacity="0.05"/>
</svg>
