<svg width="40" height="40" viewBox="0 0 40 40" fill="none" xmlns="http://www.w3.org/2000/svg">
<circle cx="20" cy="20" r="20" fill="#00A0FF"/>
<path d="M19.8064 30.003C21.7894 30.003 23.728 29.4165 25.3768 28.3175C27.0257 27.2185 28.3108 25.6565 29.0697 23.8289C29.8286 22.0014 30.0272 19.9904 29.6403 18.0503C29.2534 16.1102 28.2985 14.3281 26.8962 12.9294C25.494 11.5306 23.7074 10.5781 21.7625 10.1922C19.8175 9.80627 17.8015 10.0043 15.9694 10.7613C14.1372 11.5183 12.5713 12.8002 11.4696 14.445C10.3678 16.0897 9.77979 18.0234 9.77979 20.0015C9.77979 22.6541 10.8362 25.198 12.7165 27.0737C14.5969 28.9493 17.1472 30.003 19.8064 30.003Z" fill="#007BC6"/>
<path fill-rule="evenodd" clip-rule="evenodd" d="M12.0889 26.3863C14.0322 25.4271 16.8096 24.8215 19.8949 24.8215C22.917 24.8215 25.6401 25.3995 27.5768 26.3225C28.1902 25.5723 28.6945 24.7331 29.07 23.8289C29.5728 22.618 29.8296 21.3266 29.8332 20.0286C28.3021 16.1262 24.4287 13.3591 19.8949 13.3591C15.1854 13.3591 11.1904 16.3468 9.79199 20.4902C9.89809 22.6553 10.7066 24.7239 12.0889 26.3863Z" fill="#0083CA"/>
<path fill-rule="evenodd" clip-rule="evenodd" d="M12.093 26.3912C14.0314 25.4377 16.8076 24.8368 19.8918 24.8368C22.9152 24.8368 25.6381 25.4104 27.5715 26.3292C28.1873 25.5772 28.6934 24.7358 29.07 23.8289C29.5583 22.6531 29.8146 21.4014 29.8323 20.1415C28.3223 16.2293 24.4409 13.4412 19.8918 13.4412C15.1695 13.4412 11.1725 16.4418 9.79749 20.591C9.92351 22.7215 10.7297 24.7537 12.093 26.3912Z" fill="#0085CC"/>
<path fill-rule="evenodd" clip-rule="evenodd" d="M12.0976 26.3967C14.0325 25.4452 16.8066 24.8458 19.8917 24.8458C22.9159 24.8458 25.6378 25.423 27.5628 26.3397C28.1825 25.585 28.6916 24.74 29.0699 23.8289C29.5392 22.6988 29.7942 21.4986 29.8291 20.2883C28.3509 16.3553 24.4528 13.5383 19.8795 13.5383C15.1534 13.5383 11.1583 16.5488 9.80371 20.6892C9.94852 22.7863 10.7524 24.7835 12.0976 26.3967Z" fill="#0087CD"/>
<path fill-rule="evenodd" clip-rule="evenodd" d="M12.1035 26.4038C14.034 25.4555 16.8074 24.858 19.8886 24.858C22.9122 24.858 25.6323 25.4302 27.5607 26.3423C28.1814 25.5871 28.6912 24.7411 29.07 23.829C29.5333 22.7133 29.7877 21.5293 29.8277 20.3348C28.3533 16.4306 24.4646 13.6265 19.9008 13.6265C15.161 13.6265 11.1476 16.6529 9.81152 20.7937C9.97568 22.8557 10.7772 24.8161 12.1035 26.4038Z" fill="#0088CE"/>
<path fill-rule="evenodd" clip-rule="evenodd" d="M12.1074 26.4085C14.0335 25.4647 16.8055 24.8701 19.8885 24.8701C22.9116 24.8701 25.6336 25.4402 27.5542 26.3501C28.1779 25.5928 28.6899 24.7442 29.07 23.8289C29.5159 22.755 29.7684 21.6177 29.8222 20.4687C28.3771 16.5468 24.4746 13.7175 19.8885 13.7175C15.1436 13.7175 11.1345 16.7502 9.81909 20.8839C9.99936 22.9149 10.7982 24.8432 12.1074 26.4085Z" fill="#008ACF"/>
<path fill-rule="evenodd" clip-rule="evenodd" d="M12.1147 26.4171C14.0357 25.4716 16.8062 24.8793 19.8889 24.8793C22.9121 24.8793 25.6324 25.4482 27.5495 26.3558C28.1753 25.5971 28.6889 24.7465 29.07 23.8289C29.5018 22.789 29.7522 21.6898 29.8165 20.578C28.3938 16.6573 24.4848 13.8208 19.8889 13.8208C15.1388 13.8208 11.1246 16.863 9.82935 20.9927C10.0284 22.9874 10.8245 24.8782 12.1147 26.4171Z" fill="#008CD0"/>
<path fill-rule="evenodd" clip-rule="evenodd" d="M12.1176 26.4206C14.0304 25.4836 16.8023 24.8914 19.8857 24.8914C22.9109 24.8914 25.6316 25.4591 27.5443 26.3622C28.1724 25.6019 28.6879 24.749 29.07 23.8289C29.489 22.8198 29.7372 21.7548 29.8103 20.6767C28.408 16.7512 24.4936 13.8937 19.8857 13.8937C15.1272 13.8937 11.1124 16.9452 9.83728 21.0689C10.049 23.037 10.8422 24.9006 12.1176 26.4206Z" fill="#008ED2"/>
<path fill-rule="evenodd" clip-rule="evenodd" d="M12.1205 26.4241C14.0327 25.4919 16.8029 24.9036 19.8858 24.9036C22.9109 24.9036 25.6313 25.4685 27.5392 26.3683C28.1696 25.6064 28.6869 24.7515 29.07 23.8289C29.4764 22.8502 29.7221 21.8189 29.8032 20.7741C28.421 16.8515 24.5023 13.9818 19.8858 13.9818C15.1197 13.9818 11.1015 17.0426 9.84766 21.1615C10.0742 23.097 10.8634 24.9274 12.1205 26.4241Z" fill="#0090D3"/>
<path fill-rule="evenodd" clip-rule="evenodd" d="M12.1264 26.4312C14.0348 25.5005 16.8017 24.9127 19.8827 24.9127C22.9098 24.9127 25.6304 25.4777 27.5337 26.3748C28.1666 25.6113 28.6857 24.7542 29.0699 23.8289C29.4622 22.8842 29.7048 21.8905 29.7941 20.8828C28.4336 16.96 24.5095 14.0759 19.8827 14.0759C15.1129 14.0759 11.0941 17.139 9.85815 21.2485C10.0983 23.1549 10.8847 24.9556 12.1264 26.4312Z" fill="#0091D4"/>
<path fill-rule="evenodd" clip-rule="evenodd" d="M12.1268 26.4315C14.0311 25.5103 16.8004 24.9248 19.8828 24.9248C22.9104 24.9248 25.6297 25.4872 27.5284 26.3813C28.1638 25.6162 28.6847 24.7568 29.07 23.8289C29.4519 22.9092 29.6919 21.943 29.7868 20.9628C28.4474 17.0438 24.5187 14.1488 19.8828 14.1488C15.1049 14.1488 11.0824 17.2259 9.86865 21.3285C10.1205 23.2053 10.9023 24.9765 12.1268 26.4315Z" fill="#0093D5"/>
<path fill-rule="evenodd" clip-rule="evenodd" d="M12.1359 26.4424C14.0316 25.5188 16.7992 24.937 19.8797 24.937C22.9066 24.937 25.6266 25.4963 27.5224 26.3887C28.1605 25.6217 28.6835 24.7598 29.07 23.8289C29.4377 22.9436 29.6738 22.0152 29.7756 21.0727C28.454 17.1609 24.5231 14.2582 19.8797 14.2582C15.0912 14.2582 11.0732 17.3452 9.88464 21.4424C10.153 23.2816 10.9311 25.0147 12.1359 26.4424Z" fill="#0095D7"/>
<path fill-rule="evenodd" clip-rule="evenodd" d="M12.1364 26.4431C14.0351 25.5271 16.7996 24.9461 19.8797 24.9461C22.9074 24.9461 25.6279 25.5059 27.5189 26.3928C28.1585 25.6248 28.6828 24.7615 29.07 23.829C29.4259 22.9717 29.6586 22.0741 29.7654 21.1624C28.4663 17.2523 24.5287 14.3372 19.8675 14.3372C15.0837 14.3372 11.0749 17.4097 9.88953 21.4758C10.1625 23.3029 10.9386 25.0239 12.1364 26.4431Z" fill="#0097D8"/>
<path fill-rule="evenodd" clip-rule="evenodd" d="M12.1418 26.4494C14.0308 25.5365 16.7957 24.9583 19.8766 24.9583C22.8994 24.9583 25.6236 25.5157 27.5129 26.3999C28.1553 25.6301 28.6815 24.7643 29.0699 23.8289C29.4133 23.002 29.642 22.1374 29.7536 21.2589C28.473 17.3569 24.5352 14.4343 19.8766 14.4343C15.0879 14.4343 11.0673 17.5246 9.9071 21.5892C10.1952 23.3767 10.9657 25.0584 12.1418 26.4494Z" fill="#0099D9"/>
<path fill-rule="evenodd" clip-rule="evenodd" d="M12.1463 26.4548C14.0312 25.5456 16.7958 24.9704 19.8766 24.9704C22.9063 24.9704 25.6284 25.5243 27.5094 26.4041C28.1533 25.6333 28.6808 24.766 29.0699 23.8289C29.402 23.0292 29.6268 22.1944 29.7422 21.3458C28.4844 17.4487 24.5443 14.5133 19.8766 14.5133C15.0842 14.5133 11.0608 17.6078 9.91882 21.6605C10.2161 23.4237 10.9833 25.0813 12.1463 26.4548Z" fill="#009BDA"/>
<path fill-rule="evenodd" clip-rule="evenodd" d="M12.1491 26.4579C14.0334 25.5552 16.7963 24.9825 19.8767 24.9825C22.9164 24.9825 25.6324 25.5354 27.5028 26.4121C28.1497 25.6393 28.6795 24.7692 29.07 23.8289C29.3874 23.0645 29.6068 22.268 29.7263 21.458C28.4968 17.5573 24.5457 14.6044 19.8645 14.6044C15.0807 14.6044 11.0616 17.6903 9.92859 21.7168C10.2329 23.4604 10.997 25.0984 12.1491 26.4579Z" fill="#009DDC"/>
<path fill-rule="evenodd" clip-rule="evenodd" d="M12.1538 26.4635C14.0308 25.5631 16.7925 24.9917 19.8736 24.9917C22.9031 24.9917 25.623 25.5425 27.5007 26.4146C28.1487 25.6412 28.6792 24.7703 29.0701 23.8289C29.3834 23.0743 29.6012 22.2884 29.7218 21.4891C28.4944 17.625 24.5648 14.6925 19.8858 14.6925C15.0775 14.6925 11.0541 17.7914 9.9458 21.8124C10.2615 23.5226 11.0202 25.1277 12.1538 26.4635Z" fill="#009FDD"/>
<path fill-rule="evenodd" clip-rule="evenodd" d="M12.1589 26.4695C14.0303 25.5735 16.7929 25.0038 19.8736 25.0038C22.9052 25.0038 25.6249 25.5539 27.4935 26.4231C28.1447 25.6476 28.6777 24.7737 29.07 23.8289C29.368 23.1112 29.5796 22.3653 29.7033 21.6065C28.5046 17.7373 24.5583 14.7805 19.8736 14.7805C15.0715 14.7805 11.0476 17.8806 9.96191 21.8979C10.2873 23.5786 11.0414 25.1549 12.1589 26.4695Z" fill="#00A1DE"/>
<path fill-rule="evenodd" clip-rule="evenodd" d="M12.1632 26.4746C14.0295 25.5824 16.7901 25.016 19.8706 25.016C22.9047 25.016 25.6252 25.5631 27.4888 26.4289C28.1421 25.6519 28.6767 24.7761 29.07 23.8289C29.357 23.1378 29.5639 22.4204 29.6893 21.6905C28.5072 17.8305 24.5524 14.8687 19.8706 14.8687C15.0752 14.8687 11.047 17.9737 9.97656 21.972C10.31 23.6271 11.0598 25.1782 12.1632 26.4746Z" fill="#00A3DF"/>
<path fill-rule="evenodd" clip-rule="evenodd" d="M12.1664 26.4783C14.0284 25.5905 16.786 25.025 19.8705 25.025C22.9048 25.025 25.6251 25.5706 27.4847 26.4336C28.1399 25.6554 28.6759 24.778 29.07 23.8289C29.3466 23.1628 29.5488 22.4723 29.6753 21.7698C28.5131 17.9247 24.5631 14.9597 19.8705 14.9597C15.0651 14.9597 11.0428 18.0712 9.99255 22.0498C10.334 23.6773 11.0785 25.2015 12.1664 26.4783Z" fill="#00A5E1"/>
<path fill-rule="evenodd" clip-rule="evenodd" d="M12.1725 26.4855C14.0252 25.5994 16.7898 25.0372 19.8675 25.0372C22.9045 25.0372 25.6241 25.5814 27.4788 26.4407C28.1367 25.6607 28.6747 24.7809 29.07 23.829C29.3352 23.1904 29.5319 22.5295 29.6592 21.857C28.5174 18.023 24.5656 15.0479 19.8675 15.0479C15.062 15.0479 11.0417 18.1585 10.0077 22.1206C10.3563 23.7246 11.0971 25.2258 12.1725 26.4855Z" fill="#00A7E2"/>
<path fill-rule="evenodd" clip-rule="evenodd" d="M12.1748 26.4883C14.0259 25.6088 16.7857 25.0493 19.8675 25.0493C22.9053 25.0493 25.6252 25.5906 27.4747 26.4452C28.1344 25.6641 28.6738 24.7827 29.0699 23.8289C29.3249 23.2148 29.5166 22.58 29.6441 21.9341C28.5206 18.114 24.5686 15.1359 19.8675 15.1359C15.0593 15.1359 11.0393 18.2511 10.0243 22.1963C10.3799 23.7729 11.115 25.2478 12.1748 26.4883Z" fill="#00A9E3"/>
<path fill-rule="evenodd" clip-rule="evenodd" d="M12.1801 26.4944C14.021 25.617 16.7806 25.0585 19.8644 25.0585C22.9032 25.0585 25.6253 25.5984 27.4704 26.4506C28.1321 25.6682 28.673 24.7849 29.07 23.8289C29.3148 23.2395 29.5013 22.6309 29.6286 22.0119C28.5232 18.2046 24.5708 15.224 19.8644 15.224C15.0424 15.224 11.0303 18.355 10.0471 22.2946C10.4113 23.8368 11.1397 25.2785 12.1801 26.4944Z" fill="#00ABE5"/>
<path fill-rule="evenodd" clip-rule="evenodd" d="M12.1785 26.4924C14.0276 25.6255 16.7835 25.0706 19.8645 25.0706C22.9047 25.0706 25.626 25.6094 27.4673 26.4544C28.1304 25.671 28.6725 24.7864 29.0701 23.8289C29.3055 23.2621 29.4869 22.6777 29.6137 22.0832C28.5319 18.2858 24.5756 15.2938 19.8584 15.2938C15.055 15.2938 11.0405 18.3962 10.0466 22.2921C10.4105 23.8344 11.1384 25.2762 12.1785 26.4924Z" fill="#00ADE6"/>
<path fill-rule="evenodd" clip-rule="evenodd" d="M12.1839 26.4988C14.0229 25.6355 16.7865 25.0827 19.8644 25.0827C22.904 25.0827 25.6247 25.6179 27.4605 26.4623C28.1267 25.677 28.671 24.7896 29.07 23.8289C29.294 23.2893 29.4693 22.7338 29.595 22.1688C28.5277 18.3889 24.5751 15.391 19.8644 15.391C15.0531 15.391 11.0348 18.5093 10.0723 22.3986C10.4447 23.9035 11.1649 25.3093 12.1839 26.4988Z" fill="#00B0E7"/>
<path fill-rule="evenodd" clip-rule="evenodd" d="M12.1896 26.5054C14.0211 25.6439 16.7782 25.0918 19.8614 25.0918C22.9041 25.0918 25.6258 25.6272 27.4562 26.4673C28.1244 25.6808 28.6702 24.7917 29.07 23.8289C29.2844 23.3127 29.454 22.7819 29.5784 22.2422C28.5289 18.4816 24.5766 15.4912 19.8614 15.4912C15.0486 15.4912 11.0375 18.6089 10.0917 22.4755C10.4702 23.9541 11.185 25.3348 12.1896 26.5054Z" fill="#00B2E9"/>
<path fill-rule="evenodd" clip-rule="evenodd" d="M12.1936 26.5101C14.0173 25.6522 16.7704 25.104 19.8614 25.104C22.9048 25.104 25.6268 25.6362 27.4517 26.4726C28.1219 25.6848 28.6693 24.7939 29.07 23.8289C29.274 23.3378 29.4374 22.8333 29.56 22.3206C28.5308 18.5758 24.578 15.5793 19.8614 15.5793C15.0525 15.5793 11.04 18.6941 10.1086 22.5411C10.4918 23.9969 11.2017 25.3558 12.1936 26.5101Z" fill="#00B4EA"/>
<path fill-rule="evenodd" clip-rule="evenodd" d="M12.2008 26.5184C14.0154 25.6657 16.7735 25.1253 19.8584 25.1253C22.9018 25.1253 25.6207 25.6532 27.4417 26.4844C28.1165 25.6936 28.6673 24.7986 29.07 23.8289C29.2637 23.3624 29.4209 22.8839 29.5412 22.3977C28.5273 18.6728 24.5767 15.6765 19.8584 15.6765C15.0344 15.6765 11.0319 18.8013 10.1353 22.64C10.5252 24.0619 11.2277 25.3885 12.2008 26.5184Z" fill="#00B6EB"/>
<path fill-rule="evenodd" clip-rule="evenodd" d="M12.2006 26.5182C14.0213 25.669 16.776 25.1253 19.8584 25.1253C22.9034 25.1253 25.6227 25.6526 27.4446 26.481C28.1181 25.6911 28.6679 24.7973 29.0701 23.8289C29.2584 23.3753 29.4123 22.9104 29.5312 22.438C28.5272 18.7396 24.5828 15.7524 19.8706 15.7524C15.0669 15.7524 11.0494 18.8613 10.1403 22.658C10.5311 24.073 11.2318 25.393 12.2006 26.5182Z" fill="#00B9ED"/>
<path fill-rule="evenodd" clip-rule="evenodd" d="M12.2048 26.523C14.0147 25.6733 16.7698 25.1252 19.8554 25.1252C22.9057 25.1252 25.6379 25.6517 27.4469 26.4783C28.1193 25.6891 28.6684 24.7962 29.07 23.8289C29.2457 23.4058 29.3913 22.9729 29.5067 22.5334C28.5292 18.8445 24.5803 15.8466 19.8584 15.8466C15.0471 15.8466 11.0431 18.9591 10.1637 22.7416C10.5594 24.127 11.2529 25.419 12.2048 26.523Z" fill="#03BBEE"/>
<path fill-rule="evenodd" clip-rule="evenodd" d="M12.2083 26.5272C14.0144 25.6867 16.7705 25.1496 19.8554 25.1496C22.9055 25.1496 25.6289 25.6724 27.4341 26.4933C28.1123 25.7004 28.6658 24.8023 29.07 23.8289C29.2358 23.4297 29.3748 23.0218 29.4869 22.6077C28.5293 18.9374 24.5804 15.9347 19.8554 15.9347C15.0466 15.9347 11.0464 19.0448 10.1816 22.8037C10.5807 24.1674 11.2688 25.4387 12.2083 26.5272Z" fill="#12BDF0"/>
<path fill-rule="evenodd" clip-rule="evenodd" d="M12.2128 26.5323C14.0134 25.6968 16.7675 25.1617 19.8523 25.1617C22.9048 25.1617 25.6286 25.6825 27.4293 26.4988C28.1098 25.7045 28.6649 24.8045 29.0701 23.8288C29.2266 23.4518 29.3594 23.0669 29.468 22.6765C28.5273 19.0263 24.58 16.0227 19.8523 16.0227C15.0423 16.0227 11.0474 19.1221 10.199 22.8621C10.6011 24.2058 11.2845 25.4583 12.2128 26.5323Z" fill="#1BC0F1"/>
<path fill-rule="evenodd" clip-rule="evenodd" d="M12.2159 26.536C14.0104 25.7039 16.765 25.1708 19.8523 25.1708C22.9069 25.1708 25.6321 25.6869 27.427 26.5016C28.1084 25.7067 28.6644 24.8057 29.07 23.8289C29.2168 23.4755 29.3426 23.1151 29.4473 22.7498C28.5257 19.1185 24.5795 16.1139 19.8523 16.1139C15.0474 16.1139 11.0542 19.2276 10.2202 22.9324C10.6254 24.2511 11.3021 25.4799 12.2159 26.536Z" fill="#20C4F4"/>
<path fill-rule="evenodd" clip-rule="evenodd" d="M12.23 26.5522C14.0222 25.7269 16.7721 25.1981 19.8524 25.1981C22.8991 25.1981 25.6189 25.7131 27.4114 26.5198C28.1 25.7204 28.6614 24.8132 29.0701 23.8289C29.2116 23.4882 29.3336 23.1412 29.4359 22.7894C28.5165 19.18 24.575 16.1837 19.8524 16.1837C15.0511 16.1837 11.062 19.2735 10.2313 22.968C10.6398 24.2799 11.3174 25.502 12.23 26.5522Z" fill="#32C5F4"/>
<path fill-rule="evenodd" clip-rule="evenodd" d="M12.2426 26.5666C14.0328 25.7475 16.7774 25.2225 19.8523 25.2225C22.8927 25.2225 25.6065 25.7369 27.3971 26.5364C28.0922 25.733 28.6585 24.82 29.07 23.829C29.2052 23.5036 29.3225 23.1724 29.422 22.8368C28.5059 19.2481 24.5688 16.2749 19.8523 16.2749C15.0577 16.2749 11.0734 19.3473 10.2455 23.0133C10.6573 24.314 11.3341 25.5253 12.2426 26.5666Z" fill="#40C7F4"/>
<path fill-rule="evenodd" clip-rule="evenodd" d="M12.2595 26.5859C14.0365 25.7707 16.7799 25.2467 19.8523 25.2467C22.8854 25.2467 25.5942 25.7602 27.3824 26.5532C28.0842 25.7457 28.6556 24.8269 29.07 23.8289C29.1998 23.5164 29.3131 23.1986 29.41 22.8767C28.4951 19.3111 24.5652 16.3568 19.8675 16.3568C15.0727 16.3568 11.0778 19.4345 10.2722 23.0964C10.6889 24.3737 11.362 25.5624 12.2595 26.5859Z" fill="#4AC9F5"/>
<path fill-rule="evenodd" clip-rule="evenodd" d="M12.2698 26.5976C14.0546 25.7905 16.7888 25.2741 19.8524 25.2741C22.8807 25.2741 25.5864 25.7772 27.3722 26.565C28.0787 25.7547 28.6536 24.8318 29.0701 23.8289C29.1945 23.5293 29.3038 23.2249 29.398 22.9166C28.4839 19.3743 24.5581 16.4388 19.8554 16.4388C15.0755 16.4388 11.0982 19.4738 10.2703 23.0902C10.6884 24.3747 11.3657 25.5698 12.2698 26.5976Z" fill="#54CAF5"/>
<path fill-rule="evenodd" clip-rule="evenodd" d="M12.2858 26.6157C14.0697 25.8109 16.7947 25.2984 19.8523 25.2984C22.8768 25.2984 25.5756 25.7976 27.3587 26.5805C28.0714 25.7664 28.651 24.8381 29.0701 23.8289C29.1884 23.5441 29.293 23.2548 29.384 22.962C28.473 19.4416 24.55 16.5178 19.8401 16.5178C15.0562 16.5178 11.1081 19.5343 10.2849 23.1349C10.7066 24.4099 11.3842 25.5958 12.2858 26.6157Z" fill="#5DCCF5"/>
<path fill-rule="evenodd" clip-rule="evenodd" d="M12.2939 26.6249C14.0739 25.8343 16.8004 25.3257 19.8522 25.3257C22.871 25.3257 25.566 25.8211 27.3467 26.5941C28.0649 25.7768 28.6486 24.8438 29.07 23.8289C29.1836 23.5554 29.2846 23.2778 29.373 22.9969C28.4652 19.4979 24.5478 16.5907 19.8522 16.5907C15.0807 16.5907 11.1175 19.5928 10.2957 23.1674C10.7194 24.4339 11.3959 25.6116 12.2939 26.6249Z" fill="#65CDF6"/>
<path fill-rule="evenodd" clip-rule="evenodd" d="M12.3095 26.6426C14.0858 25.8534 16.8105 25.3501 19.8523 25.3501C22.8627 25.3501 25.5519 25.8408 27.3302 26.6129C28.0559 25.7912 28.6454 24.8516 29.0701 23.829C29.1775 23.5703 29.2736 23.308 29.3585 23.0427C28.4467 19.5691 24.5355 16.6788 19.8523 16.6788C15.0933 16.6788 11.1363 19.6586 10.3101 23.2101C10.7371 24.4677 11.4139 25.6366 12.3095 26.6426Z" fill="#6CCFF6"/>
<path fill-rule="evenodd" clip-rule="evenodd" d="M12.3237 26.6584C14.0995 25.8771 16.8147 25.3766 19.8524 25.3743C22.8571 25.3743 25.541 25.863 27.3173 26.6274C28.049 25.8022 28.6429 24.8576 29.0701 23.8289C29.1718 23.5839 29.2634 23.3357 29.3449 23.0848C28.4372 19.6333 24.5323 16.7638 19.8524 16.7638C15.0967 16.7638 11.1462 19.7269 10.324 23.2507C10.754 24.4995 11.4307 25.6597 12.3237 26.6584Z" fill="#73D1F6"/>
<path fill-rule="evenodd" clip-rule="evenodd" d="M12.3372 26.6736C14.1104 25.8976 16.8185 25.4016 19.8522 25.4016C22.8502 25.4016 25.5296 25.8845 27.3035 26.6429C28.0415 25.814 28.6401 24.864 29.07 23.8289C29.1665 23.5965 29.2539 23.3612 29.3322 23.1234C28.4242 19.6957 24.5233 16.8458 19.8522 16.8458C15.1055 16.8458 11.1589 19.7839 10.3363 23.2865C10.7691 24.528 11.4461 25.681 12.3372 26.6736Z" fill="#7AD2F7"/>
<path fill-rule="evenodd" clip-rule="evenodd" d="M12.3519 26.6898C14.1227 25.9206 16.8258 25.429 19.8522 25.429C22.8447 25.429 25.5174 25.9091 27.2882 26.6601C28.0332 25.8272 28.6372 24.8712 29.0701 23.8289C29.1606 23.6109 29.2431 23.3904 29.3176 23.1676C28.4118 19.7626 24.5183 16.9309 19.8522 16.9309C15.1139 16.9309 11.1747 19.8534 10.3499 23.3249C10.7856 24.5585 11.4627 25.7038 12.3519 26.6898Z" fill="#81D4F7"/>
<path fill-rule="evenodd" clip-rule="evenodd" d="M12.3645 26.7038C14.1329 25.9409 16.832 25.4533 19.8523 25.4533C22.8396 25.4533 25.5072 25.9281 27.276 26.6737C28.0266 25.8376 28.6349 24.8769 29.07 23.8289C29.1556 23.6229 29.234 23.4146 29.3053 23.2043C28.3993 19.8244 24.5096 17.0099 19.8523 17.0099C15.1211 17.0099 11.1868 19.9145 10.3644 23.3658C10.8027 24.5897 11.479 25.7256 12.3645 26.7038Z" fill="#88D6F8"/>
<path fill-rule="evenodd" clip-rule="evenodd" d="M12.383 26.7243C14.1491 25.9706 16.8415 25.4776 19.8523 25.4776C22.8329 25.4776 25.496 25.9501 27.2624 26.6888C28.0193 25.8492 28.6322 24.8833 29.07 23.8289C29.1505 23.6351 29.2247 23.4393 29.2925 23.2416C28.3863 19.8854 24.5029 17.0889 19.8523 17.0889C15.1281 17.0889 11.2004 19.9747 10.3772 23.4015C10.8189 24.6203 11.497 25.7509 12.383 26.7243Z" fill="#8ED8F8"/>
<path fill-rule="evenodd" clip-rule="evenodd" d="M12.3912 26.7333C14.1546 25.9826 16.8423 25.5042 19.8522 25.5019C22.8261 25.5019 25.4847 25.9703 27.2487 26.7039C28.0119 25.8608 28.6296 24.8896 29.07 23.8289C29.1448 23.6487 29.2142 23.4667 29.2781 23.2832C28.3743 19.9457 24.4959 17.1617 19.8522 17.1617C15.1354 17.1617 11.2129 20.0341 10.3917 23.4414C10.8351 24.6487 11.5109 25.7685 12.3912 26.7333Z" fill="#94DAF8"/>
<path fill-rule="evenodd" clip-rule="evenodd" d="M12.4069 26.7504C14.1667 26.0062 16.8495 25.5292 19.8523 25.5292C22.8188 25.5292 25.4723 25.9933 27.2339 26.7203C28.0039 25.8733 28.6267 24.8964 29.07 23.8289C29.1396 23.6613 29.2044 23.4922 29.2646 23.3218C28.359 20.0125 24.4877 17.2528 19.8523 17.2528C15.1391 17.2528 11.2257 20.1081 10.4087 23.4872C10.8549 24.6842 11.5301 25.794 12.4069 26.7504Z" fill="#9BDCF9"/>
<path fill-rule="evenodd" clip-rule="evenodd" d="M12.4175 26.7619C14.1801 26.026 16.8574 25.5535 19.8523 25.5535C22.8167 25.5535 25.4647 26.0143 27.2197 26.7359C27.9963 25.8853 28.624 24.903 29.07 23.8289C29.1323 23.679 29.1908 23.5278 29.2455 23.3755C28.3448 20.086 24.4766 17.3409 19.8432 17.3409C15.1477 17.3409 11.2453 20.1552 10.415 23.5041C10.8631 24.6994 11.5397 25.8074 12.4175 26.7619Z" fill="#A1DDF9"/>
<path fill-rule="evenodd" clip-rule="evenodd" d="M12.4334 26.7792C14.1897 26.0493 16.8632 25.5801 19.8523 25.5778C22.799 25.5778 25.4454 26.0356 27.206 26.7508C27.9888 25.8968 28.6214 24.9093 29.07 23.8289C29.1304 23.6835 29.1872 23.537 29.2404 23.3894C28.3367 20.1265 24.4769 17.4047 19.8553 17.4047C15.1565 17.4047 11.2498 20.2207 10.4332 23.5523C10.8841 24.7364 11.5597 25.8336 12.4334 26.7792Z" fill="#A7DFF9"/>
<path fill-rule="evenodd" clip-rule="evenodd" d="M12.4482 26.7951C14.2039 26.0695 16.8706 25.6052 19.8523 25.6052C22.7973 25.6052 25.4372 26.0574 27.1914 26.7668C27.9811 25.9092 28.6187 24.9161 29.0701 23.829C29.1241 23.6989 29.1753 23.5679 29.2236 23.4361C28.3175 20.2007 24.4652 17.4989 19.8523 17.4989C15.1676 17.4989 11.2722 20.2854 10.4468 23.5875C10.9001 24.7648 11.5761 25.8552 12.4482 26.7951Z" fill="#ADE1FA"/>
<path fill-rule="evenodd" clip-rule="evenodd" d="M12.4622 26.8101C14.2148 26.0906 16.8755 25.6317 19.8523 25.6294C22.7956 25.6294 25.4274 26.0778 27.1782 26.781C27.9739 25.9201 28.6161 24.922 29.0701 23.8288C29.1185 23.7121 29.1647 23.5946 29.2086 23.4765C28.3039 20.2633 24.4572 17.5778 19.8523 17.5778C15.1781 17.5778 11.2876 20.3447 10.4601 23.6218C10.9157 24.7923 11.5918 25.876 12.4622 26.8101Z" fill="#B3E3FA"/>
<path fill-rule="evenodd" clip-rule="evenodd" d="M12.4762 26.8252C14.2264 26.1128 16.8825 25.6568 19.8524 25.6568C22.7923 25.6568 25.4164 26.1008 27.1634 26.7972C27.966 25.9326 28.6133 24.9289 29.0701 23.829C29.1138 23.7236 29.1557 23.6176 29.1958 23.5111C28.2915 20.3216 24.4599 17.6508 19.8524 17.6508C15.1729 17.6508 11.2986 20.4009 10.4747 23.6593C10.9326 24.8216 11.6083 25.8976 12.4762 26.8252Z" fill="#B9E5FA"/>
<path fill-rule="evenodd" clip-rule="evenodd" d="M12.4901 26.84C14.2379 26.1329 16.8893 25.6811 19.8524 25.6811C22.7895 25.6811 25.4064 26.1209 27.1496 26.8119C27.9585 25.9441 28.6107 24.9351 29.07 23.8289C29.1087 23.7358 29.1459 23.6423 29.1816 23.5483C28.2741 20.3858 24.446 17.7418 19.8524 17.7418C15.1871 17.7418 11.3162 20.4689 10.4886 23.6945C10.9487 24.8496 11.6243 25.9185 12.4901 26.84Z" fill="#BEE7FB"/>
<path fill-rule="evenodd" clip-rule="evenodd" d="M12.5056 26.8565C14.2514 26.1558 16.8962 25.7077 19.8522 25.7054C22.7898 25.7054 25.3919 26.1437 27.1335 26.8291C27.9499 25.9574 28.6076 24.9424 29.07 23.8289C29.1031 23.7492 29.1352 23.6691 29.1661 23.5886C28.2586 20.4492 24.4324 17.8239 19.8522 17.8239C15.2031 17.8239 11.3332 20.5287 10.5022 23.7285C10.9647 24.8775 11.6409 25.9402 12.5056 26.8565Z" fill="#C4E9FB"/>
<path fill-rule="evenodd" clip-rule="evenodd" d="M12.5189 26.8705C14.2624 26.1762 16.9028 25.7326 19.8523 25.7326C22.7708 25.7326 25.378 26.1649 27.1196 26.8439C27.9424 25.9689 28.605 24.9487 29.0701 23.8288C29.0983 23.7607 29.1258 23.6924 29.1526 23.6238C28.2423 20.5096 24.4192 17.9058 19.8523 17.9058C15.215 17.9058 11.3493 20.5929 10.5179 23.7671C10.9824 24.9071 11.6576 25.9613 12.5189 26.8705Z" fill="#CAEBFC"/>
<path fill-rule="evenodd" clip-rule="evenodd" d="M12.5341 26.8865C14.2745 26.199 16.9084 25.7592 19.8523 25.757C22.7622 25.757 25.3684 26.1864 27.1064 26.8579C27.9353 25.9798 28.6025 24.9547 29.07 23.8289C29.0929 23.7739 29.1152 23.7187 29.137 23.6634C28.2264 20.5725 24.4054 17.9878 19.8523 17.9878C15.2319 17.9878 11.3678 20.6519 10.5321 23.8017C10.9989 24.9351 11.6743 25.9829 12.5341 26.8865Z" fill="#CFEDFC"/>
<path fill-rule="evenodd" clip-rule="evenodd" d="M12.5483 26.9015C14.2863 26.2193 16.9154 25.7843 19.8523 25.7843C22.7533 25.7843 25.3583 26.2075 27.0928 26.8722C27.928 25.9909 28.6 24.9608 29.07 23.8289C29.0881 23.7853 29.1058 23.7417 29.1233 23.698C28.2101 20.6302 24.3922 18.0668 19.8523 18.0668C15.2457 18.0668 11.3849 20.7108 10.5459 23.8351C11.0147 24.962 11.6902 26.0033 12.5483 26.9015Z" fill="#D5EFFC"/>
<path fill-rule="evenodd" clip-rule="evenodd" d="M12.5629 26.9167C14.299 26.2413 16.9219 25.8086 19.8523 25.8086C22.7505 25.8086 25.3428 26.2299 27.076 26.8899C27.919 26.0047 28.5968 24.9684 29.07 23.8289C29.0834 23.7967 29.0966 23.7644 29.1096 23.7321C28.1962 20.6916 24.3961 18.1396 19.8523 18.1396C15.2387 18.1396 11.3967 20.7658 10.5608 23.8707C11.0317 24.9902 11.7069 26.0245 12.5629 26.9167Z" fill="#DBF1FD"/>
<path fill-rule="evenodd" clip-rule="evenodd" d="M12.58 26.9345C14.3046 26.2637 16.9255 25.8352 19.8522 25.833C22.7439 25.833 25.3316 26.2504 27.0625 26.9042C27.9118 26.0159 28.5943 24.9746 29.07 23.8289C29.0779 23.8099 29.0858 23.7908 29.0936 23.7717C28.1796 20.7555 24.3879 18.2308 19.8644 18.2308C15.2585 18.2308 11.4111 20.8484 10.5881 23.9351C11.0608 25.0374 11.7323 26.0554 12.58 26.9345Z" fill="#E0F3FD"/>
<path fill-rule="evenodd" clip-rule="evenodd" d="M12.5886 26.9434C14.3224 26.2848 16.9358 25.8603 19.8523 25.8603C22.7381 25.8603 25.3203 26.274 27.0491 26.9182C27.9046 26.0268 28.5918 24.9806 29.0701 23.8289C29.0737 23.82 29.0774 23.8112 29.0811 23.8023C28.1671 20.8111 24.38 18.3037 19.8523 18.3037C15.2594 18.3037 11.4286 20.8838 10.5858 23.9296C11.0602 25.0377 11.7355 26.0608 12.5886 26.9434Z" fill="#E6F5FD"/>
<path fill-rule="evenodd" clip-rule="evenodd" d="M12.608 26.9633C14.3412 26.3082 16.9451 25.8868 19.8523 25.8845C22.729 25.8845 25.3048 26.2936 27.0311 26.9368C27.8919 26.0446 28.5835 24.9962 29.0649 23.8414C28.1445 20.8791 24.366 18.3978 19.8401 18.3978C15.2551 18.3978 11.4512 20.9467 10.5983 23.9585C11.0756 25.0638 11.7532 26.0839 12.608 26.9633Z" fill="#EBF7FE"/>
<path fill-rule="evenodd" clip-rule="evenodd" d="M12.6224 26.9782C14.3485 26.3277 16.9487 25.9111 19.8524 25.9088C22.7224 25.9088 25.2935 26.3157 27.0174 26.951C27.8755 26.0651 28.5663 25.0243 29.0496 23.8778C28.1299 20.9389 24.359 18.4768 19.8524 18.4768C15.2799 18.4768 11.4672 21.0137 10.6196 24.0078C11.0985 25.1003 11.7735 26.1084 12.6224 26.9782Z" fill="#F1FAFE"/>
<path fill-rule="evenodd" clip-rule="evenodd" d="M12.6361 26.9922C14.3598 26.3482 16.9554 25.9362 19.8523 25.9362C22.7169 25.9362 25.2817 26.3372 27.0025 26.9663C27.859 26.0858 28.5498 25.0515 29.0352 23.9117C28.1125 20.9998 24.3496 18.5558 19.8523 18.5558C15.2872 18.5558 11.4835 21.0741 10.6355 24.0438C11.1159 25.1284 11.7901 26.1288 12.6361 26.9922Z" fill="#F7FCFE"/>
<path fill-rule="evenodd" clip-rule="evenodd" d="M12.6488 27.0069C14.3701 26.3698 16.9616 25.9627 19.8523 25.9604C22.7089 25.9604 25.2665 26.3572 26.9852 26.9796C27.8405 26.1033 28.5314 25.0739 29.0183 23.9393C28.0937 21.0495 24.3385 18.6226 19.8523 18.6226C15.296 18.6226 11.4961 21.1235 10.6479 24.0742C11.1341 25.1625 11.8116 26.1558 12.6488 27.0069Z" fill="white"/>
<path d="M19.8064 22.5255C16.6844 22.4976 13.5823 23.0231 10.6445 24.0775C11.4342 25.8423 12.7193 27.3411 14.3446 28.393C15.97 29.4448 17.8659 30.0045 19.8033 30.0045C21.7408 30.0045 23.6367 29.4448 25.2621 28.393C26.8874 27.3411 28.1725 25.8423 28.9622 24.0775C26.0263 23.0241 22.9263 22.4987 19.8064 22.5255Z" fill="#007BC6"/>
<circle cx="20" cy="20" r="19.5" stroke="black" stroke-opacity="0.05"/>
</svg>
