<svg width="40" height="40" viewBox="0 0 40 40" fill="none" xmlns="http://www.w3.org/2000/svg">
<circle cx="20" cy="20" r="20" fill="#40A537"/>
<g clip-path="url(#clip0_18695_29139)">
<path d="M31.367 19.9889C31.367 26.2725 26.2725 31.3561 19.9998 31.3561C13.727 31.3561 8.62158 26.2725 8.62158 19.9889C8.62158 13.7052 13.7052 8.62158 19.9889 8.62158C26.2725 8.62158 31.3561 13.7161 31.3561 19.9889H31.367ZM31.127 19.9889C31.127 13.8361 26.1416 8.85067 19.9889 8.85067C13.8361 8.85067 8.85067 13.8361 8.85067 19.9889C8.85067 26.1416 13.8361 31.127 19.9889 31.127C26.1416 31.127 31.127 26.1416 31.127 19.9889Z" fill="white"/>
<path d="M31.1274 19.9893C31.1274 26.142 26.142 31.1274 19.9893 31.1274C13.8365 31.1274 8.85107 26.142 8.85107 19.9893C8.85107 13.8365 13.8365 8.85107 19.9893 8.85107C26.142 8.85107 31.1274 13.8365 31.1274 19.9893ZM19.5747 9.59289C19.5747 9.59289 19.6729 9.57107 19.7056 9.59289C19.7493 9.62562 19.7929 9.70198 19.8256 9.75653C19.8693 9.82198 19.902 9.81107 19.9238 9.74562C19.9456 9.68017 19.9238 9.61471 19.8802 9.56017C19.8474 9.52744 19.8147 9.51653 19.7711 9.50562C19.4983 9.4838 19.3456 9.56017 19.302 9.74562C19.2911 9.81107 19.3129 9.87653 19.3674 9.90926L19.7493 10.1383C19.7493 10.1383 19.8147 10.1929 19.8256 10.2474C19.8365 10.3129 19.8147 10.3783 19.7602 10.4329C19.7165 10.4765 19.6729 10.4765 19.6293 10.4656C19.542 10.4329 19.4656 10.3674 19.4002 10.2802C19.3456 10.2147 19.3238 10.2147 19.3129 10.302C19.3129 10.3456 19.3129 10.4002 19.3456 10.4438C19.3674 10.4874 19.4111 10.5202 19.4656 10.5311C19.7274 10.5856 19.9129 10.5311 20.0002 10.3565C20.0547 10.2583 20.022 10.1274 19.9238 10.0729C19.8147 10.0074 19.6947 9.94198 19.5856 9.87653C19.4874 9.82198 19.4765 9.74562 19.5202 9.64744C19.5311 9.62562 19.5529 9.6038 19.5856 9.59289H19.5747ZM23.2293 10.1383C23.1747 10.4547 23.0765 10.7056 22.9347 10.902C22.9129 10.9347 22.9129 10.9565 22.9565 10.9674L23.142 11.0547C23.2074 11.0874 23.2183 11.0656 23.1965 11.0002C23.1856 10.9565 23.1747 10.9238 23.1965 10.8802C23.262 10.6729 23.3383 10.4656 23.4147 10.2365C23.4256 10.2038 23.4474 10.182 23.4802 10.182C23.502 10.182 23.5238 10.182 23.5456 10.182C23.5893 10.2038 23.6111 10.2365 23.622 10.2911C23.622 10.3129 23.622 10.3456 23.6438 10.3674C23.6438 10.3893 23.6765 10.4002 23.6983 10.3893C23.6983 10.3893 23.7202 10.3783 23.7202 10.3674C23.7529 10.302 23.742 10.2365 23.6983 10.182C23.6656 10.1383 23.622 10.1165 23.5674 10.1056C23.4256 10.0729 23.2947 10.0402 23.1638 9.97471C23.0765 9.93107 23.0002 9.9638 22.9565 10.0511C22.9129 10.1493 22.9347 10.1711 23.022 10.1165L23.1529 10.0511C23.2293 10.0074 23.262 10.0293 23.2402 10.1165L23.2293 10.1383ZM15.9965 11.1747C15.8438 10.9565 15.7565 10.7165 15.7238 10.4765C15.7238 10.422 15.6911 10.4111 15.6583 10.4438C15.6147 10.4765 15.5711 10.4983 15.5165 10.5093C15.462 10.5202 15.4511 10.5529 15.4838 10.5965C15.6038 10.7493 15.702 10.9347 15.7674 11.1202C15.8329 11.2947 16.0183 11.382 16.1929 11.3274H16.2147L16.3129 11.2838C16.4983 11.1965 16.5529 11.0547 16.4765 10.8693L16.2256 10.2583C16.2256 10.2583 16.2038 10.2256 16.182 10.2365H16.0947C16.0947 10.2365 16.062 10.2693 16.0729 10.2911L16.3783 10.9456C16.3783 10.9456 16.4002 11.022 16.3783 11.0547C16.3347 11.1638 16.2693 11.2293 16.182 11.2511C16.1056 11.2729 16.0293 11.2511 15.9856 11.1856L15.9965 11.1747ZM28.9674 19.9893C28.9674 15.0365 24.9529 11.022 20.0002 11.022C15.0474 11.022 11.0329 15.0365 11.0329 19.9893C11.0329 24.942 15.0474 28.9565 20.0002 28.9565C24.9529 28.9565 28.9674 24.942 28.9674 19.9893ZM27.3529 12.6365C27.3529 12.6365 27.3965 12.7456 27.3965 12.8111C27.3965 12.9093 27.4293 12.9202 27.4947 12.8547C27.5274 12.822 27.5274 12.7783 27.4947 12.7238C27.4947 12.7238 27.4947 12.702 27.4729 12.6911L27.0583 12.2983C27.0583 12.2983 27.0038 12.2656 26.9711 12.2656C26.9165 12.2656 26.8729 12.2874 26.862 12.3311C26.8402 12.3856 26.862 12.4074 26.9165 12.3965H26.982C27.1238 12.3638 27.1565 12.4183 27.0693 12.5274C26.9056 12.7456 26.7202 12.9202 26.5129 13.0511C26.4693 13.0838 26.4693 13.1056 26.5129 13.1383C26.5565 13.1711 26.5893 13.2038 26.6111 13.2365C26.6438 13.2802 26.6656 13.2802 26.6983 13.2365C26.862 12.9856 27.0474 12.7674 27.2656 12.6147C27.2874 12.6038 27.3202 12.6038 27.3311 12.6147L27.3529 12.6365ZM12.7238 12.6038C12.8111 12.5711 12.8765 12.6038 12.9202 12.6693C12.9747 12.7565 12.9747 12.8329 12.9202 12.9093C12.8874 12.9529 12.8983 12.9747 12.9529 12.9965C13.1602 13.062 13.3565 13.0838 13.542 13.0729C13.5638 13.0729 13.5856 13.062 13.5965 13.0402L13.6183 12.9856C13.6183 12.9856 13.6183 12.942 13.5965 12.942L13.1493 12.9093C13.1493 12.9093 13.0947 12.8874 13.0947 12.8547C13.0947 12.8329 13.0947 12.8002 13.0947 12.7783C13.1383 12.6256 13.062 12.4947 12.9093 12.4729C12.7129 12.4402 12.5602 12.6583 12.4183 12.7783C12.3856 12.8111 12.3856 12.8438 12.4183 12.8656C12.6693 13.0293 12.8765 13.2365 13.0402 13.4874C13.0729 13.542 13.1056 13.542 13.1274 13.4874C13.1383 13.4547 13.1602 13.422 13.1929 13.4002C13.2474 13.3565 13.2474 13.3238 13.1929 13.2911C12.9856 13.1602 12.8002 12.9965 12.6474 12.8002C12.5929 12.7238 12.6038 12.6693 12.702 12.6365H12.7347L12.7238 12.6038ZM29.4147 15.5929C29.4147 15.6911 29.3929 15.7783 29.3165 15.8656C29.262 15.9202 29.2838 15.942 29.3493 15.9311C29.4038 15.9202 29.4583 15.8983 29.5238 15.8656C29.5565 15.8438 29.5674 15.822 29.5456 15.7783C29.4693 15.6256 29.502 15.4729 29.3383 15.3638C29.1856 15.2547 29.0111 15.3856 28.9893 15.5493C28.9674 15.6693 28.9565 15.8002 28.9456 15.9202C28.9456 16.0074 28.8583 16.062 28.7711 16.0511C28.7493 16.0511 28.7274 16.0511 28.7056 16.0293C28.5638 15.9311 28.5529 15.8002 28.6838 15.6256C28.7383 15.5602 28.7274 15.5383 28.6402 15.5711C28.5965 15.5929 28.5638 15.6038 28.5202 15.6256C28.4765 15.6474 28.4656 15.6693 28.4656 15.7129C28.4983 15.9311 28.5747 16.0838 28.7056 16.1711C28.8147 16.2474 28.9565 16.2147 29.0329 16.1056C29.0547 16.0729 29.0656 16.0511 29.0656 16.0183C29.0874 15.9093 29.0983 15.8002 29.0983 15.6802C29.0983 15.6256 29.1202 15.5711 29.1529 15.5383C29.1965 15.4838 29.2511 15.4729 29.3165 15.4947C29.3602 15.5056 29.3929 15.5383 29.3929 15.582L29.4147 15.5929ZM10.4547 15.8874C10.4547 15.8874 10.4983 15.8329 10.542 15.8438C10.542 15.8438 10.542 15.8438 10.5529 15.8438L11.2729 16.1929C11.2729 16.1929 11.3383 16.1929 11.3383 16.1493C11.3383 16.1165 11.3493 16.0729 11.3711 16.0402C11.3929 15.9965 11.382 15.9747 11.3383 15.9638C11.0983 15.9093 10.8583 15.8111 10.6074 15.6693C10.5638 15.6474 10.5529 15.5929 10.5747 15.5493C10.5747 15.5383 10.5965 15.5165 10.6183 15.5165L10.7493 15.462C10.8147 15.4293 10.8147 15.4074 10.7493 15.3856C10.6947 15.3747 10.6511 15.3856 10.6074 15.4074C10.5747 15.4293 10.5529 15.4511 10.542 15.4947C10.4656 15.6693 10.3893 15.8438 10.3129 16.0183C10.302 16.0511 10.3129 16.0947 10.3347 16.1165C10.3674 16.1383 10.4002 16.1493 10.4329 16.1383C10.4547 16.1383 10.4656 16.1165 10.4547 16.0947C10.4329 16.0293 10.4329 15.9529 10.4547 15.8874ZM10.1602 20.0547C10.1602 19.9565 10.0838 19.8802 9.98562 19.8802C9.88744 19.8802 9.81107 19.9565 9.81107 20.0547C9.81107 20.1529 9.88744 20.2293 9.98562 20.2293C10.0838 20.2293 10.1602 20.1529 10.1602 20.0547ZM30.2111 20.0547C30.2111 19.9565 30.1347 19.8802 30.0365 19.8802C29.9383 19.8802 29.862 19.9565 29.862 20.0547C29.862 20.1529 29.9383 20.2293 30.0365 20.2293C30.1347 20.2293 30.2111 20.1529 30.2111 20.0547ZM29.1202 24.1565C29.0547 24.2002 28.9565 24.1893 28.9129 24.1129C28.8802 24.0693 28.8802 24.0256 28.8911 23.982C28.9238 23.8838 29.0002 23.8402 29.0983 23.862C29.2293 23.8838 29.2511 23.8402 29.1529 23.7529C29.0765 23.6874 29.0111 23.6874 28.9456 23.7638C28.8583 23.862 28.8038 23.9711 28.782 24.0911C28.7602 24.2111 28.8474 24.3311 28.9674 24.3529C29.0111 24.3529 29.0656 24.3529 29.0983 24.3311C29.1965 24.2874 29.2947 24.2111 29.382 24.1347C29.4365 24.0911 29.4911 24.0693 29.5565 24.0693C29.6983 24.0802 29.7529 24.2656 29.6656 24.3638C29.6002 24.4402 29.5129 24.4729 29.4038 24.4838C29.3493 24.4838 29.3383 24.5056 29.3929 24.5383C29.4365 24.5711 29.4911 24.6038 29.5456 24.6256C29.5783 24.6474 29.6111 24.6256 29.622 24.5929C29.7093 24.3747 29.9493 24.2329 29.7311 23.982C29.6547 23.8947 29.5238 23.8729 29.4256 23.9383L29.0983 24.1565H29.1202ZM11.0547 24.0911C10.8038 24.2547 10.542 24.3638 10.2911 24.4183C10.2693 24.4183 10.2583 24.4293 10.2693 24.4511L10.3783 24.6365C10.3783 24.6365 10.4111 24.6583 10.422 24.6365C10.6293 24.462 10.8802 24.342 11.1638 24.2547C11.2074 24.2438 11.2511 24.2656 11.262 24.3093C11.262 24.3311 11.262 24.3529 11.262 24.3747L11.1965 24.4838C11.1529 24.5493 11.1747 24.582 11.2511 24.5602C11.3056 24.5383 11.3493 24.5056 11.3493 24.4511C11.3493 24.4074 11.3493 24.3747 11.3274 24.3311C11.2402 24.1783 11.1638 24.0256 11.0874 23.8729C11.0547 23.7965 11.0002 23.7747 10.9347 23.8074C10.8693 23.8402 10.8693 23.8838 10.9347 23.9165L11.0438 23.9711C11.1202 24.0038 11.1202 24.0474 11.0438 24.0911H11.0547ZM27.0693 26.742C27.0693 26.742 27.1674 26.7093 27.222 26.6983C27.3093 26.6983 27.3202 26.6547 27.2656 26.5893C27.2438 26.5565 27.2002 26.5456 27.1456 26.5674C27.1347 26.5674 27.1238 26.5783 27.1129 26.5893C26.9711 26.7311 26.8293 26.8729 26.6874 27.0038C26.6656 27.0256 26.6547 27.0583 26.6438 27.0911C26.6438 27.1238 26.6438 27.1565 26.6874 27.1783C26.7638 27.2329 26.7965 27.2111 26.7747 27.1238C26.7747 27.0583 26.7856 27.0147 26.8402 26.9711C26.8838 26.9493 26.9165 26.9493 26.9493 26.982L27.462 27.5274C27.462 27.5274 27.5274 27.5602 27.5602 27.5274L27.6256 27.462C27.6256 27.462 27.6583 27.3965 27.6256 27.3638C27.4293 27.222 27.2329 27.0474 27.0474 26.8293C27.0038 26.7856 27.0147 26.742 27.0693 26.7202V26.742ZM13.0511 27.462H13.1711C13.302 27.462 13.4111 27.342 13.4111 27.2111C13.4111 27.1456 13.3893 27.0911 13.3456 27.0474L13.062 26.7638C13.062 26.7638 12.9965 26.7311 12.9747 26.7638C12.8111 27.0365 12.6147 27.2438 12.3638 27.3856C12.3093 27.4183 12.3093 27.4402 12.3638 27.4729C12.4074 27.4947 12.4402 27.5274 12.462 27.5711C12.4947 27.6256 12.5165 27.6256 12.5493 27.5711C12.6693 27.3529 12.8438 27.1565 13.0511 26.982C13.0838 26.9493 13.1274 26.9493 13.1711 26.982C13.2038 27.0038 13.2256 27.0256 13.2365 27.0474C13.2583 27.0911 13.2583 27.1347 13.2365 27.1783C13.1602 27.3202 13.062 27.3529 12.942 27.2765C12.8983 27.2547 12.8765 27.2656 12.8547 27.3093C12.8111 27.4947 12.7783 27.6802 12.7783 27.8547C12.7783 27.8874 12.8002 27.9311 12.8329 27.942L12.8983 27.9638C12.8983 27.9638 12.9529 27.9638 12.942 27.9202C12.9202 27.7783 12.9311 27.6365 12.9638 27.5056C12.9747 27.4729 12.9965 27.4511 13.0402 27.4511L13.0511 27.462ZM16.0293 29.8183C15.942 29.8074 15.8656 29.7638 15.8111 29.6983C15.7893 29.6656 15.7783 29.6329 15.7893 29.5893C15.8547 29.3165 15.9638 29.0983 16.1056 28.9129C16.1165 28.8911 16.1165 28.8802 16.0947 28.8693L15.9093 28.7929C15.9093 28.7929 15.8656 28.7929 15.8656 28.8147C15.8438 29.0002 15.7783 29.1965 15.6693 29.3929C15.6256 29.4693 15.6256 29.5565 15.6474 29.6329C15.7565 29.9165 16.182 30.0693 16.3565 29.7202C16.422 29.5783 16.4874 29.4365 16.5529 29.2838C16.5747 29.2402 16.5965 29.2074 16.6511 29.1965C16.7056 29.1747 16.7056 29.1529 16.662 29.1202L16.5311 29.0329C16.5311 29.0329 16.4765 29.022 16.4656 29.0656C16.422 29.3383 16.3238 29.5783 16.1711 29.7747C16.1383 29.8183 16.0838 29.8402 16.0402 29.8293L16.0293 29.8183ZM23.0329 29.2729C23.0329 29.2729 23.0983 29.2729 23.1093 29.2947C23.2293 29.5238 23.3056 29.7747 23.3383 30.0474C23.3383 30.102 23.3711 30.1129 23.4147 30.102L23.5456 30.0693C23.5456 30.0693 23.6111 30.0256 23.5783 29.982C23.4474 29.7747 23.3602 29.5238 23.2947 29.2402C23.2947 29.2074 23.2947 29.1747 23.3383 29.1638C23.4038 29.142 23.4474 29.1529 23.502 29.1965C23.5238 29.2183 23.5565 29.2183 23.5783 29.1965C23.5893 29.1856 23.6002 29.1638 23.5893 29.1529C23.5893 29.1202 23.5783 29.0983 23.5565 29.0765C23.5347 29.0438 23.4911 29.022 23.4474 29.0438L22.8911 29.2402C22.8911 29.2402 22.8583 29.2511 22.8474 29.2729C22.8038 29.3383 22.7929 29.382 22.8147 29.4147C22.8474 29.4583 22.8802 29.4583 22.902 29.4038C22.9238 29.3493 22.9565 29.3056 23.0111 29.2838L23.0329 29.2729ZM19.6729 29.7311C19.6729 29.7311 19.782 29.7093 19.8147 29.7529L19.9674 29.9383C20.022 30.0038 20.0438 29.9929 20.0329 29.9056L20.0111 29.742C20.0111 29.742 19.9783 29.6765 19.9347 29.6874C19.7493 29.7202 19.5856 29.5456 19.422 29.7747C19.3565 29.862 19.3783 29.982 19.4547 30.0474C19.5529 30.1347 19.662 30.2002 19.782 30.2656C19.902 30.3202 19.9129 30.4729 19.8147 30.5602C19.7383 30.6256 19.6293 30.6256 19.5638 30.5602L19.4329 30.4183C19.4329 30.4183 19.3674 30.3856 19.3565 30.4402C19.3347 30.5274 19.3565 30.6038 19.4438 30.6365C19.6293 30.7238 19.8474 30.7565 20.0002 30.582C20.2402 30.3093 19.7383 30.102 19.5965 29.9929C19.5093 29.9274 19.5093 29.862 19.5965 29.7965L19.662 29.7529L19.6729 29.7311Z" fill="#40A537"/>
<path d="M19.5746 9.59285C19.5746 9.59285 19.531 9.62557 19.5092 9.64739C19.4547 9.74557 19.4765 9.82194 19.5746 9.87648C19.6837 9.94194 19.8037 10.0074 19.9128 10.0728C20.011 10.1274 20.0437 10.2583 19.9892 10.3565C19.9019 10.531 19.7165 10.5856 19.4546 10.531C19.4001 10.5201 19.3565 10.4874 19.3347 10.4438C19.3128 10.4001 19.3019 10.3565 19.3019 10.3019C19.3019 10.2147 19.3346 10.2038 19.3892 10.2801C19.4546 10.3674 19.531 10.4328 19.6183 10.4656C19.6728 10.4874 19.7165 10.4656 19.7492 10.4328C19.8037 10.3783 19.8256 10.3128 19.8146 10.2474C19.8146 10.2038 19.7819 10.171 19.7383 10.1383L19.3565 9.90921C19.3019 9.87648 19.2692 9.81103 19.291 9.74557C19.3347 9.56012 19.4874 9.48376 19.7601 9.50557C19.8037 9.50557 19.8365 9.52739 19.8692 9.56012C19.9237 9.61467 19.9346 9.68012 19.9128 9.74557C19.891 9.81103 19.8583 9.82194 19.8146 9.75648C19.7819 9.70194 19.7383 9.62557 19.6947 9.59285C19.6619 9.56012 19.6183 9.56012 19.5637 9.59285H19.5746Z" fill="white"/>
<path d="M23.1309 10.0834L22.9999 10.1489C22.9018 10.2034 22.8799 10.1707 22.9345 10.0834C22.9781 9.99613 23.0545 9.9634 23.1418 10.007C23.2727 10.0616 23.4036 10.1052 23.5454 10.1379C23.5999 10.1489 23.6436 10.1707 23.6763 10.2143C23.72 10.2689 23.7199 10.3234 23.6981 10.3998C23.6981 10.4216 23.6654 10.4325 23.6436 10.4216C23.6436 10.4216 23.6218 10.4107 23.6218 10.3998C23.6109 10.3779 23.5999 10.3452 23.5999 10.3234C23.5999 10.2798 23.5672 10.2361 23.5236 10.2143C23.5018 10.2143 23.4799 10.2034 23.4581 10.2143C23.4254 10.2143 23.4036 10.2361 23.3927 10.2689C23.3163 10.487 23.2399 10.7052 23.1745 10.9125C23.1636 10.9561 23.1636 10.9889 23.1745 11.0325C23.1963 11.0979 23.1745 11.1198 23.1199 11.087L22.9345 10.9998C22.9345 10.9998 22.8909 10.9561 22.9127 10.9343C23.0545 10.7379 23.1636 10.4761 23.2072 10.1707C23.2181 10.0834 23.1963 10.0616 23.1199 10.1052L23.1309 10.0834Z" fill="white"/>
<path d="M15.9963 11.1853C16.0399 11.2507 16.1163 11.2725 16.1927 11.2507C16.2908 11.218 16.3563 11.1525 16.389 11.0543C16.3999 11.0216 16.3999 10.978 16.389 10.9453L16.0836 10.2907C16.0836 10.2907 16.0836 10.2471 16.1054 10.2471H16.1927C16.1927 10.2471 16.2254 10.2471 16.2363 10.258L16.4872 10.8689C16.5636 11.0653 16.509 11.1962 16.3236 11.2834L16.2254 11.3271C16.0618 11.4034 15.8545 11.3271 15.7781 11.1634V11.1416C15.7127 10.9453 15.6145 10.7707 15.4945 10.618C15.4618 10.5743 15.4727 10.5416 15.5272 10.5307C15.5818 10.5198 15.6254 10.498 15.669 10.4653C15.7127 10.4325 15.7345 10.4434 15.7345 10.498C15.7563 10.7489 15.8545 10.978 16.0072 11.1962L15.9963 11.1853Z" fill="white"/>
<path d="M28.9565 19.9892C28.9565 24.942 24.942 28.9565 19.9892 28.9565C15.0365 28.9565 11.022 24.942 11.022 19.9892C11.022 15.0365 15.0365 11.022 19.9892 11.022C24.942 11.022 28.9565 15.0365 28.9565 19.9892ZM18.4511 26.6874C19.662 26.622 20.3711 27.1892 20.5892 28.3892C20.6111 28.4874 20.6329 28.4874 20.6547 28.3892C20.8511 27.6692 21.3092 27.342 22.0292 27.3747C22.0729 27.3747 22.0947 27.3965 22.0947 27.4402C22.0729 27.8547 21.9311 28.2147 21.6802 28.5202C21.6474 28.5529 21.6147 28.5856 21.5711 28.6074C21.5492 28.6183 21.5274 28.6292 21.5165 28.6511C21.4729 28.6947 21.4838 28.7165 21.5492 28.7056C24.1456 28.1492 26.1202 26.8183 27.4511 24.702C29.2292 21.8765 29.3056 18.2983 27.5274 15.3856C25.2802 11.7092 20.7311 10.1711 16.7274 11.7638C12.3202 13.5202 10.0511 18.4402 11.6547 22.9456C12.7347 25.9565 15.462 28.3129 18.7238 28.7274C18.9965 28.7602 19.2583 28.7929 19.5202 28.8365C19.6511 28.8583 19.662 28.8365 19.542 28.782C18.7783 28.4329 18.4183 27.5711 18.3856 26.7529C18.3856 26.7092 18.4074 26.6874 18.4511 26.6874ZM20.5783 28.662C20.262 28.1602 19.8474 27.7347 19.3565 27.4074C19.2256 27.3202 19.2256 27.3311 19.3347 27.4292C19.7711 27.8111 20.142 28.2474 20.4692 28.7383C20.5129 28.8147 20.6111 28.8365 20.6874 28.782C20.7092 28.7711 20.7202 28.7602 20.7311 28.7383C20.9383 28.4438 21.1892 28.1602 21.4838 27.8765C21.4838 27.8765 21.4838 27.8656 21.4838 27.8547C21.4838 27.8547 21.462 27.8438 21.4511 27.8547C21.1456 28.062 20.8838 28.3238 20.6547 28.662C20.6329 28.6838 20.6002 28.6947 20.5783 28.6729C20.5783 28.6729 20.5783 28.6729 20.5674 28.662H20.5783Z" fill="white"/>
<path d="M18.3964 26.7636C18.4291 27.5818 18.7891 28.4436 19.5528 28.7927C19.6728 28.8472 19.6728 28.8691 19.5309 28.8472C19.2691 28.8145 18.9964 28.7818 18.7346 28.7381C15.4728 28.3236 12.7346 25.9672 11.6655 22.9563C10.0618 18.4509 12.3309 13.5309 16.7382 11.7745C20.7419 10.1818 25.3018 11.72 27.5382 15.3963C29.3164 18.3091 29.24 21.8763 27.4618 24.7127C26.1309 26.8291 24.1673 28.16 21.56 28.7163C21.4946 28.7272 21.4837 28.7163 21.5273 28.6618C21.5491 28.64 21.56 28.629 21.5818 28.6181C21.6255 28.5963 21.6582 28.5745 21.6909 28.5309C21.9418 28.2363 22.0837 27.8763 22.1055 27.4509C22.1055 27.4072 22.0837 27.3854 22.04 27.3854C21.32 27.3418 20.8618 27.68 20.6655 28.4C20.6437 28.4981 20.6109 28.4981 20.6 28.4C20.3819 27.2 19.6728 26.6327 18.4619 26.6981C18.4182 26.6981 18.3964 26.72 18.3964 26.7636ZM25.6291 14.8291C25.6291 14.3381 25.2364 13.9454 24.7455 13.9454C24.2546 13.9454 23.8619 14.3381 23.8619 14.8291C23.8619 15.32 24.2546 15.7127 24.7455 15.7127C25.2364 15.7127 25.6291 15.32 25.6291 14.8291ZM18.7564 16.9345C18.7564 16.9345 18.7782 16.88 18.8109 16.88H21.32C21.32 16.88 21.3746 16.8581 21.3746 16.8254V14.6654C21.3746 14.6654 21.3528 14.6109 21.32 14.6109H13.6182C13.6182 14.6109 13.5637 14.6327 13.5637 14.6654V16.8254C13.5637 16.8254 13.5855 16.88 13.6182 16.88H16.1382C16.1382 16.88 16.1928 16.9018 16.1928 16.9345V23.48C16.1928 23.48 16.2146 23.5345 16.2473 23.5345H18.7019C18.7019 23.5345 18.7564 23.5127 18.7564 23.48V16.9345ZM24.5382 23.7854C24.3528 24.2872 23.5673 24.3745 23.0982 24.3418C22.3455 24.2981 21.7346 23.7418 21.7891 22.9563C21.7891 22.9018 21.7673 22.88 21.7128 22.88L19.3564 22.9672C19.3564 22.9672 19.28 23 19.28 23.0545C19.3673 25.4981 21.3964 26.3818 23.5891 26.2727C25.1928 26.1963 26.8509 25.6291 27.0473 23.7963C27.2982 21.3745 24.6364 21.0363 22.9673 20.5018C22.6837 20.4036 22.0728 20.1418 22.0728 19.7709C22.0728 19.3781 22.28 19.1381 22.7055 19.0727C23.5018 18.9418 24.3637 19.1163 24.4073 20.0981C24.4073 20.1418 24.4509 20.1854 24.4946 20.1854L26.8619 20.1091C26.8619 20.1091 26.9273 20.0872 26.9164 20.0436C26.7964 18.3309 25.7164 17.3927 24.1128 17.1745C22.1273 16.9018 19.2364 17.4145 19.5637 20.1527C19.76 21.7454 22.2473 22.3018 23.5128 22.6727C24.0146 22.8145 24.7673 23.1418 24.5273 23.7963L24.5382 23.7854Z" fill="#40A537"/>
<path d="M27.3529 12.6362C27.3529 12.6362 27.3092 12.6035 27.2874 12.6144C27.0692 12.778 26.8838 12.9853 26.7201 13.2362C26.6874 13.2798 26.6656 13.2798 26.6329 13.2362C26.611 13.1926 26.5783 13.1598 26.5347 13.138C26.491 13.1053 26.491 13.0835 26.5347 13.0508C26.742 12.9198 26.9274 12.7453 27.091 12.5271C27.1783 12.4071 27.1456 12.3635 27.0038 12.3853H26.9383C26.8838 12.3962 26.862 12.3853 26.8838 12.3198C26.8947 12.2762 26.9383 12.2653 26.9929 12.2544C27.0256 12.2544 27.0583 12.2653 27.0801 12.2871L27.4947 12.6798C27.4947 12.6798 27.5056 12.7017 27.5165 12.7126C27.5383 12.7671 27.5383 12.8108 27.5165 12.8435C27.451 12.9089 27.4183 12.898 27.4183 12.7998C27.4183 12.7344 27.3965 12.6798 27.3747 12.6253L27.3529 12.6362Z" fill="white"/>
<path d="M12.7236 12.6145H12.6909C12.6036 12.6582 12.5818 12.7127 12.6363 12.7891C12.7891 12.9854 12.9636 13.1491 13.1818 13.28C13.2363 13.3127 13.2363 13.3563 13.1818 13.3891C13.1491 13.4109 13.1272 13.4327 13.1163 13.4763C13.0945 13.5418 13.0618 13.5418 13.0291 13.4763C12.8763 13.2254 12.6691 13.0182 12.4072 12.8545C12.3636 12.8327 12.3636 12.8 12.4072 12.7673C12.5491 12.6473 12.7018 12.4291 12.8981 12.4618C13.0509 12.4836 13.1272 12.6254 13.0836 12.7673C13.0836 12.7891 13.0836 12.8218 13.0836 12.8436C13.0836 12.8763 13.1054 12.8982 13.1381 12.8982L13.5854 12.9309C13.5854 12.9309 13.6291 12.9527 13.6072 12.9745L13.5854 13.0291C13.5854 13.0291 13.5527 13.0618 13.5309 13.0618C13.3454 13.0727 13.1491 13.0509 12.9418 12.9854C12.8981 12.9745 12.8872 12.9418 12.9091 12.8982C12.9636 12.8218 12.9636 12.7454 12.9091 12.6582C12.8654 12.5818 12.8 12.56 12.7127 12.5927L12.7236 12.6145Z" fill="white"/>
<path d="M25.6291 14.8289C25.6291 15.3199 25.2364 15.7126 24.7455 15.7126C24.2545 15.7126 23.8618 15.3199 23.8618 14.8289C23.8618 14.338 24.2545 13.9453 24.7455 13.9453C25.2364 13.9453 25.6291 14.338 25.6291 14.8289ZM25.5418 14.8289C25.5418 14.3926 25.1927 14.0326 24.7455 14.0326C24.3091 14.0326 23.9491 14.3817 23.9491 14.8289C23.9491 15.2762 24.2982 15.6253 24.7455 15.6253C25.1818 15.6253 25.5418 15.2762 25.5418 14.8289Z" fill="white"/>
<path d="M25.5419 14.8291C25.5419 15.2654 25.1929 15.6254 24.7456 15.6254C24.3092 15.6254 23.9492 15.2764 23.9492 14.8291C23.9492 14.3927 24.2983 14.0327 24.7456 14.0327C25.1819 14.0327 25.5419 14.3818 25.5419 14.8291ZM24.9747 14.6327C25.0619 14.6327 25.1492 14.6327 25.2365 14.6109C25.2583 14.6109 25.2801 14.5782 25.2692 14.5564V14.5127C25.2365 14.4582 25.1819 14.4254 25.1274 14.4254H24.3092C24.3092 14.4254 24.2438 14.4691 24.2438 14.5018V14.5454C24.2438 14.5454 24.2765 14.6218 24.331 14.6327H24.5601C24.5601 14.6327 24.6474 14.6764 24.6474 14.7309V15.2982C24.6474 15.2982 24.6692 15.3745 24.7238 15.3636H24.7674C24.7674 15.3636 24.8547 15.32 24.8547 15.2654V14.7309C24.8656 14.6654 24.9092 14.6327 24.9747 14.6436V14.6327Z" fill="#40A537"/>
<path d="M24.8655 14.731V15.2656C24.8655 15.2656 24.8109 15.3529 24.7673 15.3638H24.7237C24.7237 15.3638 24.6473 15.3529 24.6473 15.2983V14.731C24.6473 14.731 24.6037 14.6438 24.56 14.6438H24.3309C24.2764 14.6438 24.2437 14.611 24.2437 14.5565V14.5129C24.2437 14.5129 24.2655 14.4474 24.3091 14.4474H25.1273C25.1818 14.4365 25.2364 14.4692 25.2582 14.5238V14.5674C25.2582 14.5674 25.2582 14.6219 25.2473 14.6219C25.16 14.6438 25.0727 14.6547 24.9855 14.6438C24.92 14.6438 24.8764 14.6656 24.8764 14.731H24.8655Z" fill="white"/>
<path d="M18.7562 16.9346V23.4801C18.7562 23.4801 18.7344 23.5346 18.7017 23.5346H16.2471C16.2471 23.5346 16.1926 23.5019 16.1926 23.4692V16.9237C16.1926 16.9237 16.1707 16.8692 16.138 16.8692H13.618C13.618 16.8692 13.5635 16.8474 13.5635 16.8146V14.6546C13.5635 14.6546 13.5853 14.6001 13.618 14.6001H21.3198C21.3198 14.6001 21.3744 14.6219 21.3744 14.6546V16.8146C21.3744 16.8146 21.3417 16.8692 21.3089 16.8692H18.7998C18.7998 16.8692 18.7453 16.891 18.7453 16.9237L18.7562 16.9346Z" fill="white"/>
<path d="M29.3382 15.5052C29.2728 15.4834 29.2182 15.5052 29.1746 15.5489C29.1418 15.5925 29.12 15.6361 29.12 15.6907C29.12 15.7998 29.1091 15.9198 29.0873 16.0289C29.0655 16.1598 28.9455 16.247 28.8146 16.2143C28.7818 16.2143 28.7491 16.1925 28.7273 16.1816C28.5964 16.0943 28.52 15.9416 28.4873 15.7234C28.4873 15.6798 28.4982 15.647 28.5418 15.6361C28.5855 15.6143 28.6182 15.6034 28.6618 15.5816C28.7382 15.5489 28.76 15.5707 28.7055 15.6361C28.5746 15.8107 28.5855 15.9416 28.7273 16.0398C28.8037 16.0834 28.8909 16.0616 28.9455 15.9961C28.9564 15.9743 28.9673 15.9525 28.9673 15.9307C28.9782 15.8107 29 15.6798 29.0109 15.5598C29.0328 15.3961 29.2073 15.2761 29.36 15.3743C29.5128 15.4834 29.4909 15.6361 29.5673 15.7889C29.5891 15.8216 29.5673 15.8543 29.5455 15.8761C29.4909 15.9089 29.4364 15.9307 29.3709 15.9416C29.2946 15.9634 29.2837 15.9416 29.3382 15.8761C29.4146 15.7889 29.4473 15.7016 29.4364 15.6034C29.4364 15.5598 29.4037 15.527 29.36 15.5161L29.3382 15.5052Z" fill="white"/>
<path d="M10.4544 15.898C10.4326 15.9634 10.4435 16.0289 10.4544 16.1053C10.4544 16.1271 10.4544 16.1489 10.4326 16.1489C10.3999 16.1489 10.3672 16.1489 10.3344 16.1271C10.3017 16.1053 10.2908 16.0616 10.3126 16.0289C10.389 15.8544 10.4653 15.6798 10.5417 15.5053C10.5526 15.4725 10.5853 15.4398 10.6072 15.418C10.6508 15.3853 10.6944 15.3853 10.749 15.3962C10.8144 15.418 10.8144 15.4398 10.749 15.4725L10.6181 15.5271C10.6181 15.5271 10.5526 15.6034 10.5744 15.6471C10.5744 15.6689 10.5963 15.6798 10.6072 15.6907C10.8472 15.8325 11.0981 15.9307 11.3381 15.9853C11.3817 15.9853 11.3926 16.018 11.3708 16.0616C11.349 16.0944 11.3381 16.1271 11.3381 16.1707C11.3381 16.2144 11.3053 16.2362 11.2726 16.2144L10.5526 15.8653C10.5526 15.8653 10.4763 15.8653 10.4653 15.898C10.4653 15.898 10.4653 15.898 10.4653 15.9089L10.4544 15.898Z" fill="white"/>
<path d="M24.5383 23.7857C24.7783 23.1311 24.0256 22.8038 23.5237 22.662C22.2583 22.302 19.7601 21.7348 19.5747 20.142C19.2365 17.4038 22.1274 16.902 24.1237 17.1638C25.7274 17.382 26.8074 18.3202 26.9274 20.0329C26.9274 20.0766 26.9056 20.0984 26.8728 20.0984L24.5056 20.1748C24.5056 20.1748 24.4183 20.142 24.4183 20.0875C24.3747 19.1057 23.5237 18.9311 22.7165 19.062C22.291 19.1275 22.0837 19.3675 22.0837 19.7602C22.0837 20.1311 22.6837 20.3929 22.9783 20.4911C24.6365 21.0366 27.3092 21.3638 27.0583 23.7857C26.8619 25.6293 25.2147 26.1857 23.6001 26.262C21.4074 26.3711 19.3783 25.4984 19.291 23.0438C19.291 22.9893 19.3128 22.9566 19.3674 22.9566L21.7237 22.8693C21.7237 22.8693 21.8001 22.8911 21.8001 22.9457C21.7456 23.7311 22.3565 24.2875 23.1092 24.3311C23.5674 24.3638 24.3637 24.2766 24.5492 23.7748L24.5383 23.7857Z" fill="white"/>
<path d="M9.97435 20.2402C10.0707 20.2402 10.1489 20.1621 10.1489 20.0657C10.1489 19.9693 10.0707 19.8911 9.97435 19.8911C9.87795 19.8911 9.7998 19.9693 9.7998 20.0657C9.7998 20.1621 9.87795 20.2402 9.97435 20.2402Z" fill="white"/>
<path d="M30.0364 20.2402C30.1328 20.2402 30.2109 20.1621 30.2109 20.0657C30.2109 19.9693 30.1328 19.8911 30.0364 19.8911C29.94 19.8911 29.8618 19.9693 29.8618 20.0657C29.8618 20.1621 29.94 20.2402 30.0364 20.2402Z" fill="white"/>
<path d="M29.1201 24.1673L29.4474 23.9491C29.5456 23.8836 29.6765 23.9054 29.7529 23.9927C29.971 24.2436 29.7201 24.3964 29.6438 24.6036C29.6329 24.6473 29.6001 24.6582 29.5674 24.6364C29.5129 24.6036 29.4692 24.5818 29.4147 24.5491C29.371 24.5164 29.371 24.4945 29.4256 24.4945C29.5347 24.4945 29.6219 24.4509 29.6874 24.3745C29.7747 24.2764 29.7201 24.0909 29.5783 24.08C29.5129 24.08 29.4474 24.0909 29.4038 24.1454C29.3165 24.2327 29.2183 24.2982 29.1201 24.3418C29.011 24.3964 28.8692 24.3418 28.8147 24.2327C28.7929 24.1891 28.7819 24.1454 28.7929 24.1018C28.8147 23.9709 28.8692 23.8618 28.9565 23.7745C29.0219 23.6982 29.0874 23.6982 29.1638 23.7636C29.2619 23.8509 29.251 23.8945 29.1092 23.8727C29.011 23.8618 28.9347 23.9054 28.9019 23.9927C28.8692 24.0691 28.9019 24.1564 28.9892 24.1891C29.0329 24.2109 29.0874 24.2 29.1201 24.1673Z" fill="white"/>
<path d="M11.0436 23.9816L10.9345 23.927C10.869 23.8943 10.869 23.8507 10.9345 23.818C11 23.7852 11.0436 23.807 11.0872 23.8834C11.1636 24.0361 11.24 24.1889 11.3272 24.3416C11.349 24.3743 11.36 24.418 11.349 24.4616C11.349 24.5161 11.3054 24.5598 11.2509 24.5707C11.1745 24.5925 11.1527 24.5707 11.1963 24.4943L11.2618 24.3852C11.2618 24.3852 11.2618 24.298 11.229 24.2761C11.2072 24.2761 11.1854 24.2652 11.1636 24.2761C10.88 24.3634 10.64 24.4834 10.4218 24.658C10.4 24.6689 10.389 24.6689 10.3781 24.658L10.269 24.4725C10.269 24.4725 10.269 24.4398 10.2909 24.4398C10.5418 24.3852 10.8036 24.2761 11.0545 24.1125C11.12 24.0689 11.12 24.0252 11.0545 23.9925L11.0436 23.9816Z" fill="white"/>
<path d="M27.0364 26.8618C27.2328 27.08 27.4292 27.2545 27.6146 27.3963C27.6583 27.4291 27.6583 27.4618 27.6146 27.4945L27.5492 27.56C27.5492 27.56 27.4837 27.5927 27.451 27.56L26.9383 27.0145C26.9383 27.0145 26.8728 26.9709 26.8292 27.0036C26.7746 27.0363 26.7528 27.0909 26.7637 27.1563C26.7746 27.2436 26.7419 27.2654 26.6764 27.2109C26.6437 27.1891 26.6328 27.1563 26.6328 27.1236C26.6328 27.0909 26.6546 27.0582 26.6764 27.0363C26.8074 26.9054 26.9492 26.7636 27.1019 26.6218C27.1019 26.6218 27.1237 26.6 27.1346 26.6C27.1892 26.5891 27.2219 26.6 27.2546 26.6218C27.3092 26.6873 27.2983 26.72 27.211 26.7309C27.1564 26.7309 27.1128 26.7527 27.0583 26.7745C27.0037 26.7963 26.9928 26.84 27.0364 26.8836V26.8618Z" fill="white"/>
<path d="M12.9637 27.5382C12.9309 27.6691 12.92 27.8109 12.9418 27.9528C12.9418 27.9964 12.9418 28.0073 12.8982 27.9964L12.8328 27.9746C12.8328 27.9746 12.7782 27.9309 12.7782 27.8873C12.7782 27.7128 12.8 27.5273 12.8546 27.3419C12.8655 27.2982 12.8982 27.2873 12.9418 27.3091C13.0618 27.3855 13.16 27.3528 13.2364 27.2109C13.2582 27.1673 13.2582 27.1237 13.2364 27.08C13.2255 27.0473 13.2037 27.0255 13.1709 27.0146C13.1273 26.9928 13.0946 26.9928 13.0509 27.0146C12.8437 27.1891 12.68 27.3855 12.5491 27.6037C12.5164 27.6582 12.4946 27.6582 12.4618 27.6037C12.44 27.56 12.4073 27.5273 12.3637 27.5055C12.3091 27.4837 12.3091 27.4509 12.3637 27.4182C12.6037 27.2764 12.8109 27.0691 12.9746 26.7964C12.9964 26.7528 13.0291 26.7528 13.0618 26.7964L13.3455 27.08C13.4437 27.1782 13.4437 27.3309 13.3455 27.4291C13.3018 27.4728 13.2473 27.4946 13.1818 27.4946H13.0618C13.0618 27.4946 12.9964 27.5164 12.9855 27.56L12.9637 27.5382Z" fill="white"/>
<path d="M20.5781 28.6726C20.5781 28.6726 20.6218 28.7053 20.6545 28.6835C20.6545 28.6835 20.6654 28.6835 20.6654 28.6726C20.8836 28.3453 21.1563 28.0726 21.4618 27.8653C21.4618 27.8653 21.4836 27.8653 21.4945 27.8653V27.8872C21.1999 28.1599 20.949 28.4544 20.7418 28.749C20.6872 28.8253 20.589 28.8362 20.5236 28.7926C20.5018 28.7817 20.4908 28.7708 20.4799 28.749C20.1527 28.2581 19.7818 27.8217 19.3454 27.4399C19.2363 27.3417 19.2363 27.3308 19.3672 27.4181C19.8581 27.7453 20.2618 28.1599 20.589 28.6726H20.5781Z" fill="#40A537"/>
<path d="M16.1599 29.7852C16.3126 29.5889 16.4108 29.3598 16.4544 29.0761C16.4544 29.0325 16.4871 29.0216 16.5199 29.0434L16.6508 29.1307C16.6508 29.1307 16.6944 29.1852 16.6399 29.207C16.5962 29.2179 16.5635 29.2507 16.5417 29.2943C16.4871 29.447 16.4217 29.5889 16.3453 29.7307C16.1708 30.0798 15.7344 29.927 15.6362 29.6434C15.6035 29.567 15.6144 29.4798 15.658 29.4034C15.7671 29.207 15.8326 29.0107 15.8544 28.8252C15.8544 28.7925 15.8762 28.7925 15.898 28.8034L16.0835 28.8798C16.0835 28.8798 16.1162 28.9016 16.0944 28.9234C15.9526 29.1089 15.8544 29.3379 15.778 29.5998C15.778 29.6434 15.778 29.6761 15.7999 29.7089C15.8544 29.7743 15.9199 29.8179 16.018 29.8289C16.0726 29.8289 16.1162 29.8179 16.1489 29.7743L16.1599 29.7852Z" fill="white"/>
<path d="M23.0219 29.2947C23.0219 29.2947 22.9346 29.3711 22.9128 29.4147C22.891 29.4692 22.8583 29.4692 22.8255 29.4256C22.7928 29.3929 22.8037 29.3383 22.8583 29.2838C22.8583 29.2729 22.8801 29.262 22.9019 29.2511L23.4583 29.0547C23.4583 29.0547 23.5346 29.0547 23.5674 29.0874C23.5783 29.1092 23.5892 29.1311 23.6001 29.1638C23.6001 29.1965 23.5783 29.2183 23.5564 29.2292C23.5346 29.2292 23.5237 29.2292 23.5128 29.2183C23.4692 29.1638 23.4146 29.1529 23.3492 29.1856C23.3164 29.1965 23.2946 29.2292 23.3055 29.262C23.371 29.5456 23.4583 29.7965 23.5892 30.0038C23.6219 30.0474 23.6001 30.0801 23.5564 30.0911L23.4255 30.1238C23.4255 30.1238 23.3492 30.1238 23.3492 30.0692C23.3164 29.7965 23.251 29.5456 23.1201 29.3165C23.1092 29.2838 23.0655 29.2838 23.0437 29.2947H23.0219Z" fill="white"/>
<path d="M19.6075 29.993C19.7602 30.1021 20.2511 30.3093 20.0111 30.5821C19.8584 30.7566 19.6402 30.7239 19.4547 30.6366C19.3784 30.593 19.3457 30.5275 19.3675 30.4402C19.3784 30.3857 19.4111 30.3748 19.4438 30.4184L19.5747 30.5602C19.6402 30.6366 19.7493 30.6366 19.8257 30.5821C19.9238 30.4948 19.902 30.3421 19.7929 30.2875C19.6729 30.2221 19.5638 30.1566 19.4657 30.0693C19.3893 30.0039 19.3675 29.8839 19.4329 29.7966C19.5966 29.5675 19.7602 29.7421 19.9457 29.7093C19.9893 29.7093 20.0111 29.7093 20.022 29.7639L20.0438 29.9275C20.0547 30.0148 20.0329 30.0257 19.9784 29.9602L19.8257 29.7748C19.8257 29.7748 19.7275 29.7202 19.6838 29.753L19.6184 29.7966C19.5311 29.8621 19.5311 29.9275 19.6184 29.993H19.6075Z" fill="white"/>
</g>
<circle cx="20" cy="20" r="19.5" stroke="black" stroke-opacity="0.05"/>
<defs>
<clipPath id="clip0_18695_29139">
<rect width="24" height="24" fill="white" transform="translate(8 8)"/>
</clipPath>
</defs>
</svg>
