<svg width="40" height="40" viewBox="0 0 40 40" fill="none" xmlns="http://www.w3.org/2000/svg">
<circle cx="20" cy="20" r="20" fill="#F6F8FA"/>
<g clip-path="url(#clip0_38801_75763)">
<path d="M10.0435 18.233C10.0435 18.6173 9.81885 18.8197 9.5679 19.072C9.07184 19.5677 8.55826 20.0811 8.02135 20.612C8.00967 20.6267 7.98633 20.6267 7.97466 20.612C7.41148 20.0488 6.83663 19.468 6.24427 18.8725C6.09545 18.7229 6.03125 18.4472 6.03125 18.233C6.03125 18.0189 6.09545 17.7431 6.24427 17.5935C6.83371 16.9951 7.41148 16.4172 7.97466 15.8511C7.98633 15.8364 8.00967 15.8364 8.02135 15.8511C8.55535 16.385 9.07184 16.8983 9.56498 17.3941C9.81593 17.6463 10.0406 17.8517 10.0406 18.233H10.0435Z" fill="#E70012"/>
<path d="M17.1992 19.5443C17.1992 18.72 18.0688 18.0511 19.1426 18.0511C20.2165 18.0511 21.086 18.72 21.086 19.5443C21.086 20.3685 20.2165 21.0374 19.1426 21.0374C18.0688 21.0374 17.1992 20.3685 17.1992 19.5443ZM20.1844 19.5355C20.1844 18.9869 19.7262 18.541 19.1601 18.541C18.594 18.541 18.1359 18.9869 18.1359 19.5355C18.1359 20.084 18.594 20.5299 19.1601 20.5299C19.7262 20.5299 20.1844 20.084 20.1844 19.5355Z" fill="#231816"/>
<path d="M29.7695 19.4885C29.7695 18.6936 30.607 18.0482 31.6429 18.0482C32.6759 18.0482 33.5163 18.6936 33.5163 19.4885C33.5163 20.2835 32.6788 20.9288 31.6429 20.9288C30.6099 20.9288 29.7695 20.2835 29.7695 19.4885ZM30.6945 19.4621C30.6829 19.9901 31.106 20.4301 31.64 20.4419C32.174 20.4536 32.6146 20.0341 32.6234 19.5032C32.635 18.9752 32.2119 18.5352 31.6779 18.5234C31.1439 18.5117 30.7033 18.9312 30.6945 19.4621Z" fill="#231816"/>
<path d="M10.8066 18.2506C10.8066 18.2506 10.8125 18.236 10.8212 18.236H14.3316C14.3316 18.236 14.352 18.2448 14.352 18.2565V20.6942C14.352 20.7088 14.3404 20.7235 14.3228 20.7235C13.3978 20.7264 12.3619 20.7294 11.2151 20.7264C11.0167 20.7264 10.8883 20.656 10.8329 20.5182C10.8125 20.4654 10.8008 20.3128 10.8008 20.0547C10.8008 19.2392 10.8008 18.6378 10.8008 18.2477L10.8066 18.2506ZM13.4591 20.2043V18.7522C13.4591 18.7522 13.4474 18.7288 13.4328 18.7288H11.7258C11.7258 18.7288 11.6995 18.7405 11.6995 18.7552C11.7025 19.1307 11.7025 19.5472 11.6995 20.0077C11.6995 20.1603 11.7696 20.2365 11.9126 20.2365C12.8872 20.2365 13.392 20.2365 13.427 20.2365C13.4445 20.2365 13.4562 20.2248 13.4562 20.2072L13.4591 20.2043Z" fill="#231816"/>
<path d="M15.4843 19.1805H14.7636C14.749 19.1805 14.7344 19.1688 14.7344 19.1541V18.6994C14.7344 18.6877 14.7431 18.6789 14.7548 18.6789H15.4872C15.5047 18.6789 15.5193 18.6672 15.5193 18.6496V18.2653C15.5193 18.2506 15.531 18.236 15.5485 18.236H16.4327C16.4327 18.236 16.4502 18.2418 16.4502 18.2506V20.8702C16.4502 20.8702 16.4443 20.8848 16.4356 20.8848H15.5427C15.5427 20.8848 15.5193 20.8731 15.5193 20.8614L15.5222 20.216C15.5222 20.1984 15.5077 20.1867 15.4931 20.1867H14.7665C14.749 20.1867 14.7373 20.172 14.7373 20.1573V19.7115C14.7373 19.6968 14.749 19.6821 14.7665 19.6821H15.496C15.5106 19.6821 15.5252 19.6704 15.5252 19.6528V19.2128C15.5252 19.1923 15.5077 19.1776 15.4872 19.1776L15.4843 19.1805Z" fill="#231816"/>
<path d="M22.7142 18.236C22.7288 18.236 22.7434 18.2477 22.7434 18.2653V23.4457C22.7434 23.4604 22.7317 23.475 22.7142 23.475C20.5082 23.475 19.02 23.475 18.2467 23.475C17.9141 23.475 17.8324 23.255 17.8499 22.9412C17.8499 22.9206 17.8499 22.507 17.8499 21.6974C17.8499 21.6857 17.8586 21.6739 17.8732 21.6739H18.7545C18.7691 21.6739 18.7836 21.6857 18.7836 21.7033C18.7778 22.0993 18.7778 22.4689 18.7836 22.8062C18.7836 22.9177 18.8449 22.9705 18.9616 22.9705C19.8867 22.9734 20.8292 22.9734 21.7892 22.9705C21.8038 22.9705 21.8184 22.9588 21.8184 22.9412V18.2624C21.8184 18.2448 21.833 18.233 21.8476 18.233H22.7172L22.7142 18.236Z" fill="#231816"/>
<path d="M23.4492 23.4369V23.0086C23.4492 22.991 23.4638 22.9793 23.4784 22.9793C23.8898 22.9646 24.2167 22.7915 24.4618 22.4601C24.6485 22.2078 24.6923 21.9643 24.6923 21.627C24.6923 20.9552 24.6923 19.9989 24.6923 18.761C24.6923 18.7464 24.6806 18.7376 24.669 18.7376H23.7439C23.7293 18.7376 23.7177 18.7258 23.7177 18.7112V18.2624C23.7177 18.2624 23.7264 18.2418 23.7381 18.2418H26.5336C26.5511 18.2418 26.5657 18.2565 26.5657 18.2741V18.72C26.5657 18.72 26.5569 18.7405 26.5423 18.7405H25.6348C25.6348 18.7405 25.6144 18.7493 25.6144 18.761C25.6144 20.2776 25.6144 21.2632 25.6144 21.7179C25.6144 22.5011 26.2184 23.0262 26.9917 22.9734C27.0092 22.9734 27.0238 22.9558 27.0238 22.9382V20.3949C27.0238 20.3744 27.0063 20.3568 26.9859 20.3568H26.2009C26.1863 20.3568 26.1717 20.3451 26.1717 20.3275V19.8317C26.1717 19.8317 26.1805 19.8141 26.1922 19.8141H26.9946C27.0121 19.8141 27.0238 19.7995 27.0238 19.7848V18.2624C27.0238 18.2624 27.0355 18.2389 27.0472 18.2389H27.8263C27.8263 18.2389 27.8496 18.2506 27.8496 18.2624V23.4516C27.8496 23.4516 27.8409 23.475 27.8263 23.475C27.5549 23.475 27.3244 23.475 27.1376 23.475C26.7553 23.475 26.5248 23.475 26.449 23.4662C25.9208 23.4105 25.4948 23.1582 25.1738 22.7035C25.165 22.6918 25.1504 22.6889 25.1388 22.6977C25.1388 22.6977 25.1358 22.7006 25.1329 22.7035C25.0804 22.7681 25.0308 22.8502 24.9549 22.9294C24.561 23.3372 24.0708 23.519 23.4842 23.4721C23.4667 23.4721 23.4551 23.4574 23.4551 23.4398L23.4492 23.4369Z" fill="#231816"/>
<path d="M28.8487 18.236H28.2826C28.2053 18.236 28.1426 18.299 28.1426 18.3768V23.3342C28.1426 23.412 28.2053 23.475 28.2826 23.475H28.8487C28.9261 23.475 28.9888 23.412 28.9888 23.3342V18.3768C28.9888 18.299 28.9261 18.236 28.8487 18.236Z" fill="#231816"/>
<path d="M35.2354 19.6851H35.9737C35.9737 19.6851 35.9971 19.6968 35.9971 19.7085V20.1661C35.9971 20.1661 35.9854 20.1896 35.9737 20.1896H35.2354C35.2354 20.1896 35.2121 20.2013 35.2121 20.2131V20.8672C35.2121 20.8672 35.2004 20.8907 35.1888 20.8907H34.3046C34.3046 20.8907 34.2812 20.879 34.2812 20.8672V18.2594C34.2812 18.2594 34.2929 18.236 34.3046 18.236H35.1888C35.1888 18.236 35.2121 18.2477 35.2121 18.2594V18.6584C35.2121 18.6584 35.2238 18.6818 35.2354 18.6818H35.9737C35.9737 18.6818 35.9971 18.6936 35.9971 18.7053V19.16C35.9971 19.16 35.9854 19.1835 35.9737 19.1835H35.2354C35.2354 19.1835 35.2121 19.1952 35.2121 19.2069V19.6645C35.2121 19.6645 35.2238 19.688 35.2354 19.688V19.6851Z" fill="#231816"/>
<path d="M5.37551 22.8297C5.15958 22.8297 4.8882 22.7652 4.73938 22.6126C4.14702 22.0172 3.57217 21.4363 3.00899 20.8702C2.9944 20.8585 2.9944 20.835 3.00899 20.8233C3.54007 20.2864 4.05073 19.7702 4.54387 19.2715C4.79482 19.0192 4.99909 18.7933 5.37843 18.7933C5.76069 18.7933 5.96204 19.0163 6.21299 19.2715C6.70613 19.7702 7.21679 20.2864 7.74495 20.8262C7.75954 20.8379 7.75954 20.8614 7.74495 20.8731C7.18469 21.4393 6.60692 22.0172 6.01164 22.6126C5.86282 22.7622 5.58853 22.8268 5.37551 22.8268V22.8297Z" fill="#E70012"/>
<path d="M16.3288 22.2841C16.3288 23.0291 15.2725 23.6334 13.971 23.6334C12.6696 23.6334 11.6133 23.0291 11.6133 22.2841C11.6133 21.539 12.6696 20.9347 13.971 20.9347C15.2725 20.9347 16.3288 21.539 16.3288 22.2841ZM12.5179 22.2694C12.5179 22.7417 13.1628 23.126 13.9594 23.126C14.756 23.126 15.4009 22.7417 15.4009 22.2694C15.4009 21.7971 14.756 21.4128 13.9594 21.4128C13.1628 21.4128 12.5179 21.7971 12.5179 22.2694Z" fill="#231816"/>
<path d="M6.02539 23.4515C6.02539 23.2345 6.08959 22.9616 6.23841 22.812C6.83077 22.2166 7.40854 21.6357 7.9688 21.0696C7.98047 21.0549 8.00382 21.0549 8.01549 21.0696C8.54949 21.6035 9.06598 22.1168 9.56204 22.6096C9.81591 22.8619 10.0377 23.0643 10.0377 23.4486C10.0377 23.8329 9.81591 24.0353 9.56204 24.2875C9.06598 24.7833 8.5524 25.2966 8.01841 25.8305C8.00673 25.8452 7.98339 25.8452 7.97172 25.8305C7.40854 25.2673 6.83077 24.6865 6.23841 24.091C6.08959 23.9414 6.02539 23.6657 6.02539 23.4515Z" fill="#E70012"/>
<path d="M30.2656 21.9379V21.4803C30.2656 21.4656 30.2773 21.4539 30.2919 21.4539C31.0301 21.4539 32.5359 21.4539 34.8061 21.4539C35.235 21.4539 35.2117 21.7472 35.2117 22.1139C35.2117 22.9704 35.2117 23.4134 35.2117 23.4427C35.2117 23.4574 35.2 23.472 35.1825 23.472H34.3042C34.3042 23.472 34.2808 23.4603 34.2808 23.4486C34.2808 23.4134 34.2808 23.0144 34.2808 22.2517C34.2808 21.976 34.2137 21.9555 33.9744 21.9555C32.7839 21.9555 31.5554 21.9555 30.2861 21.9555C30.2744 21.9555 30.2685 21.9467 30.2685 21.9349L30.2656 21.9379Z" fill="#231816"/>
</g>
<circle cx="20" cy="20" r="19.5" stroke="black" stroke-opacity="0.05"/>
<defs>
<clipPath id="clip0_38801_75763">
<rect width="34" height="11" fill="white" transform="translate(2 14.8423)"/>
</clipPath>
</defs>
</svg>
