<svg width="40" height="40" viewBox="0 0 40 40" fill="none" xmlns="http://www.w3.org/2000/svg">
<circle cx="20" cy="20" r="20" fill="#006A84"/>
<g clip-path="url(#clip0_18009_45007)">
<path d="M27.1202 13.8025H26.968C21.7544 13.7638 17.6052 16.2035 14.3554 18.9257C13.5848 18.177 12.4379 16.8847 11.7619 15.5484H9.19606C9.69747 16.4954 10.8469 18.2966 12.8293 20.2919C11.2246 21.7571 9.15334 24.0492 8.01172 25.8446H11.8999C11.9012 25.8424 11.9018 25.841 11.9032 25.8388C12.7658 24.1931 13.6218 22.9711 14.6339 21.8974C17.3966 24.0398 21.2153 25.9612 27.2582 26.2167V20.6832H25.1492V23.9927C21.4535 23.6888 18.5748 22.3007 16.0379 20.3767C18.8503 17.5742 23.0205 14.7938 26.9584 14.9068C28.9871 14.9435 30.033 15.8875 30.0641 16.8555C30.1345 17.7056 29.5969 18.9147 27.6535 18.9147H27.5807C26.4916 18.9147 25.6014 18.5959 25.6014 17.6478V17.5359C25.6014 17.288 25.837 16.6379 26.6832 16.6379H26.8241C27.2755 16.6379 27.5052 16.752 27.5052 16.974V17.0044C27.5052 17.1164 27.5076 17.235 27.2358 17.2834C26.9891 17.3268 26.823 17.4094 26.7379 17.5299C26.6951 17.5957 26.6507 17.744 26.7016 17.853C26.8242 18.1126 27.1092 18.1947 27.4922 18.1947C27.9388 18.1947 29.2704 18.0621 29.2704 17.031V16.9837C29.2704 15.792 27.5336 15.5623 26.804 15.5623H26.7112C24.0126 15.5623 23.7184 17.1774 23.7184 17.5799V17.6917C23.7184 19.1888 25.6608 20.0208 27.5186 19.9937H27.85C30.6833 20.0095 31.986 18.609 31.986 17.2246L31.9918 17.0567C31.9683 15.0824 29.7067 13.8025 27.1202 13.8025Z" fill="white"/>
<path d="M28.7559 20.6832H30.8494V26.2164H28.7559V20.6832Z" fill="white"/>
</g>
<circle cx="20" cy="20" r="19.5" stroke="black" stroke-opacity="0.05"/>
<defs>
<clipPath id="clip0_18009_45007">
<rect width="24" height="12.4502" fill="white" transform="translate(8 13.7749)"/>
</clipPath>
</defs>
</svg>
