<svg width="40" height="40" viewBox="0 0 40 40" fill="none" xmlns="http://www.w3.org/2000/svg">
<circle cx="20" cy="20" r="20" fill="#F6F8FA"/>
<path d="M9.51514 25.7533C9.75758 25.9952 10.0148 26.2135 10.2823 26.4098C11.2737 27.1375 12.4208 27.5538 13.5896 27.659C13.6186 27.6601 13.6474 27.6631 13.6748 27.6649C13.7412 27.6667 13.8067 27.6714 13.8747 27.6779C15.2507 27.8202 16.3291 28.9867 16.3291 30.4019H18.7749C18.7749 29.033 18.2432 27.7876 17.3746 26.8614C16.61 26.0435 15.5836 25.4742 14.4291 25.2858C14.1554 25.2421 13.9485 25.2259 13.6005 25.2069C12.7593 25.0842 12.1725 24.811 11.5798 24.3255C11.4643 24.2308 11.3532 24.1297 11.2462 24.0229L9.51514 25.7533Z" fill="#D1D3D4"/>
<path d="M23.0276 12.2473L24.7558 10.5184C22.7317 8.49387 19.4493 8.49387 17.4242 10.5184L19.1539 12.2473C20.2207 11.1792 21.9592 11.1792 23.0276 12.2473Z" fill="#D1D3D4"/>
<path d="M9.51826 25.7547C7.49391 23.7309 7.49391 20.448 9.51826 18.4242C11.5432 16.4004 14.8266 16.4004 16.8498 18.4242L16.8492 18.4204C17.0911 18.6625 17.3091 18.9197 17.5063 19.1872C18.2339 20.1785 18.6496 21.3264 18.7527 22.4975C18.7558 22.5111 18.7637 22.717 18.7731 22.8047C18.9283 24.1712 20.0885 25.2365 21.4961 25.2365V25.2401C23.0058 25.2401 24.2343 24.0115 24.2343 22.5012V22.4975C24.2343 21.0818 23.1573 19.9149 21.7776 19.7725C21.7121 19.7661 21.647 19.763 21.5792 19.7605C21.5524 19.758 21.5243 19.7556 21.4961 19.7539C20.3251 19.6493 19.1783 19.2334 18.189 18.5062C17.9199 18.309 17.6629 18.0915 17.421 17.8485L17.4239 17.8506C15.4004 15.8256 15.4004 12.5436 17.4239 10.5186L19.1535 12.2475C18.0851 13.3152 18.0851 15.0532 19.1535 16.1205L19.1513 16.1181C19.2582 16.2249 19.3717 16.3266 19.4856 16.421C20.0784 16.9067 20.772 17.1655 21.4961 17.286C21.8115 17.3238 21.9401 17.3254 22.3352 17.3822C23.4888 17.5698 24.5158 18.1391 25.2796 18.9569C26.1473 19.8835 26.6794 21.1281 26.6794 22.4975V22.5012C26.6794 25.365 24.3579 27.6856 21.4961 27.6856V27.6812C20.1267 27.6812 18.8813 27.1498 17.9558 26.2821C17.1401 25.5198 16.572 24.498 16.3828 23.3475C16.3526 23.1653 16.3294 22.9779 16.3194 22.7895C16.3136 22.6928 16.2378 22.1208 16.1851 21.9423C16.0313 21.421 15.7808 20.9245 15.4197 20.4847C15.3268 20.3711 15.2256 20.2585 15.1188 20.151L15.1217 20.1531C14.0533 19.0846 12.3156 19.0846 11.248 20.1531C10.1795 21.2211 10.1795 22.9585 11.248 24.0266" fill="#009194"/>
<path d="M28.0075 27.4668H25.8547V30.3785H28.0075V27.4668Z" fill="#58C5C7"/>
<path d="M24.2403 22.4979C24.2403 21.0185 25.4439 19.8154 26.923 19.8154C28.403 19.8154 29.6049 21.0186 29.6049 22.4979C29.6049 23.9762 28.403 25.1804 26.923 25.1804V27.574C29.7271 27.574 31.9996 25.3014 31.9996 22.498C31.9996 19.6947 29.7271 17.4219 26.923 17.4219C24.1208 17.4219 21.8467 19.6947 21.8467 22.498C21.8467 23.7104 22.2726 24.8241 22.9822 25.6977C23.1468 25.8997 23.3265 26.0895 23.52 26.2645C24.421 27.0789 25.6142 27.574 26.923 27.574V25.1804C26.3397 25.1804 25.7991 24.9933 25.3587 24.6757C25.1409 24.5191 24.9473 24.3298 24.7848 24.1161C24.4435 23.6656 24.2403 23.1049 24.2403 22.4979Z" fill="#58C5C7"/>
<path d="M21.4996 27.6854C24.3614 27.6854 26.6832 25.3648 26.6832 22.501H24.238C24.238 24.0112 23.0099 25.2399 21.4996 25.2399V27.6854Z" fill="#009194"/>
<circle cx="20" cy="20" r="19.5" stroke="black" stroke-opacity="0.05"/>
</svg>
