<svg width="40" height="40" viewBox="0 0 40 40" fill="none" xmlns="http://www.w3.org/2000/svg">
<circle cx="20" cy="20" r="20" fill="#193474"/>
<path d="M28.5547 15.7135C28.5509 15.3159 28.2261 14.997 27.8292 15L27.6852 15.0015C27.2875 15.0053 26.9687 15.3301 26.9717 15.727L26.9732 15.871C26.977 16.2687 27.3018 16.5875 27.6987 16.5845L27.8427 16.583C28.2403 16.5792 28.5592 16.2544 28.5562 15.8575L28.5547 15.7135Z" stroke="white" stroke-width="0.150045"/>
<path d="M14.2412 21.8518C13.5473 21.8518 12.9854 21.1721 12.9854 20.3341C12.9854 19.4961 13.5473 18.8164 14.2412 18.8164C14.9352 18.8164 15.4971 19.4961 15.4971 20.3341C15.4971 21.1721 14.9352 21.8518 14.2412 21.8518Z" fill="#193474"/>
<path d="M18.9581 20.2766C18.9581 20.2766 18.9551 20.2766 18.9544 20.2743L18.9529 20.2698C18.7968 19.6959 19.1787 19.0927 19.8059 18.9216H19.8066L19.8239 18.9171C20.4511 18.7468 21.0858 19.0739 21.2418 19.6479L21.2433 19.6524C21.2433 19.6539 21.2433 19.6554 21.2411 19.6561L18.9581 20.2766Z" fill="#193474"/>
<path d="M7.92349 21.4599L6.9497 22.9949C6.9452 23.0016 6.93695 23.0061 6.9287 23.0061H5.09365C5.08015 23.0069 5.06889 22.9956 5.06889 22.9821C5.06889 22.9768 5.07039 22.9723 5.07339 22.9678L6.9317 20.3151C6.9377 20.3068 6.9377 20.2948 6.9317 20.2865L5.00437 17.6435C4.99687 17.6322 4.99912 17.6172 5.01037 17.609C5.01487 17.606 5.01938 17.6045 5.02463 17.6045H6.86718C6.87543 17.6045 6.88368 17.609 6.88818 17.6157L7.92274 19.2077C7.93025 19.219 7.94525 19.2227 7.9565 19.216C7.95951 19.2137 7.96251 19.2115 7.96476 19.2077L8.99031 17.6157C8.99482 17.609 9.00307 17.6045 9.01132 17.6045H10.8531C10.8666 17.6045 10.8779 17.6157 10.8779 17.6292C10.8779 17.6345 10.8764 17.6398 10.8726 17.6443L8.9363 20.2843C8.9303 20.2925 8.9303 20.3045 8.9363 20.3128L10.8329 22.9671C10.8404 22.9783 10.8381 22.9934 10.8269 23.0016C10.8224 23.0046 10.8179 23.0061 10.8126 23.0061H8.99857C8.99031 23.0061 8.98206 23.0016 8.97756 22.9949L7.96476 21.4599C7.95725 21.4486 7.9415 21.4456 7.93025 21.4531C7.92725 21.4546 7.925 21.4576 7.92349 21.4599Z" fill="white"/>
<path d="M12.9755 22.4831V25.2379C12.9755 25.2627 12.9627 25.2755 12.9379 25.2755H11.4563C11.4458 25.2755 11.4375 25.2672 11.4375 25.2567V17.6419C11.4375 17.6172 11.4503 17.6044 11.475 17.6044H12.9379C12.9627 17.6044 12.9755 17.6172 12.9755 17.6419V18.1536C12.9755 18.1941 12.9905 18.2008 13.0205 18.1738C14.1286 17.1895 15.7505 17.5391 16.5473 18.717C16.9171 19.2647 17.0672 19.9144 16.9967 20.6668C16.8406 22.3278 15.3529 23.4254 13.7287 22.9498C13.4586 22.871 13.2223 22.7097 13.0205 22.4666C12.9905 22.4306 12.9755 22.4359 12.9755 22.4831ZM14.2411 21.8522C14.935 21.8522 15.497 21.1725 15.497 20.3345C15.497 19.4965 14.935 18.8168 14.2411 18.8168C13.5471 18.8168 12.9852 19.4965 12.9852 20.3345C12.9852 21.1725 13.5471 21.8522 14.2411 21.8522Z" fill="white"/>
<path d="M19.2244 21.3265C19.6723 21.8322 20.2042 21.9672 20.8194 21.7316C21.1472 21.6064 21.3813 21.4008 21.5216 21.115C21.5298 21.0985 21.5478 21.0879 21.5666 21.0894L22.8187 21.2072C22.8465 21.2102 22.8577 21.2252 22.8525 21.253C22.5741 22.6267 20.7458 23.3634 19.4945 23.0078C18.9926 22.866 18.5852 22.6019 18.2716 22.2155C17.5064 21.2748 17.2873 19.8163 17.9895 18.7713C18.3714 18.2033 18.9423 17.8372 19.7023 17.6722C20.7241 17.4509 21.5486 17.757 22.175 18.592C22.5569 19.0999 22.7347 19.6655 22.8922 20.2672C22.8997 20.2965 22.8892 20.3145 22.8607 20.322L19.2341 21.2928C19.2229 21.2958 19.2169 21.3078 19.2199 21.3183C19.2206 21.3213 19.2221 21.3243 19.2244 21.3265ZM18.9573 20.2762L21.2402 19.6558C21.2402 19.6558 21.2432 19.6535 21.2425 19.652L21.241 19.6475C21.0849 19.0736 20.4503 18.7465 19.8231 18.9168L19.8058 18.9213C19.1786 19.0916 18.796 19.6948 18.9521 20.2687C18.9521 20.2687 18.9521 20.2687 18.9521 20.2695L18.9536 20.274C18.9536 20.274 18.9558 20.277 18.9573 20.2762Z" fill="white"/>
<path d="M25.0077 18.3664C25.3243 17.9246 25.7789 17.668 26.3723 17.5982C26.4061 17.5945 26.4233 17.6095 26.4233 17.644V18.8834C26.4233 18.9186 26.4061 18.9359 26.3708 18.9359C25.7549 18.9426 25.2357 19.4048 25.0489 19.9749C24.9852 20.17 24.9544 20.4146 24.9567 20.7094C24.9619 21.4409 24.9627 22.1993 24.9604 22.9848C24.9604 23.0111 24.9477 23.0246 24.9214 23.0246H23.4975C23.4727 23.0246 23.46 23.0118 23.46 22.9871V17.623C23.46 17.6125 23.4682 17.6042 23.4787 17.6042H24.9221C24.9432 17.6042 24.9597 17.6207 24.9597 17.641L24.9612 18.3522C24.9612 18.4047 24.9769 18.4092 25.0077 18.3664Z" fill="white"/>
<path d="M28.5248 22.9836C28.5248 22.9964 28.5151 23.0061 28.5023 23.0061H27.0274C27.0146 23.0061 27.0049 22.9964 27.0049 22.9836V17.627C27.0049 17.6142 27.0146 17.6045 27.0274 17.6045H28.5023C28.5151 17.6045 28.5248 17.6142 28.5248 17.627V22.9836Z" fill="white"/>
<path d="M32.0462 21.4619L31.0731 22.9939C31.0686 23.0014 31.0604 23.0059 31.0514 23.0059H29.2216C29.2073 23.0059 29.1953 22.9939 29.1961 22.9789C29.1961 22.9736 29.1976 22.9684 29.2006 22.9646L31.0551 20.3141C31.0611 20.3051 31.0611 20.2931 31.0544 20.2841L29.1293 17.6455C29.1203 17.6343 29.1233 17.6178 29.1346 17.6088C29.1391 17.605 29.1443 17.6035 29.1503 17.6035H30.9891C30.9981 17.6043 31.0064 17.6088 31.0109 17.6163L32.0454 19.206C32.0537 19.218 32.0702 19.221 32.0822 19.2127C32.0852 19.2105 32.0874 19.2082 32.0889 19.206L33.113 17.617C33.1175 17.6095 33.1258 17.605 33.1348 17.605L34.9735 17.6035C34.9878 17.6035 34.9998 17.6155 34.9998 17.6298C34.9998 17.6358 34.9983 17.641 34.9946 17.6455L33.0597 20.2848C33.053 20.2938 33.053 20.3066 33.0597 20.3156L34.9548 22.9646C34.963 22.9766 34.96 22.9931 34.948 23.0014C34.9435 23.0044 34.939 23.0059 34.9338 23.0059H33.1235C33.1145 23.0059 33.1062 23.0014 33.1017 22.9939L32.0904 21.4612C32.0822 21.4492 32.0664 21.4454 32.0537 21.4537C32.0507 21.4559 32.0477 21.4589 32.0462 21.4619Z" fill="white"/>
<path d="M28.5562 15.8575C28.5599 16.2552 28.2403 16.58 27.8427 16.583L27.6987 16.5845C27.3011 16.5883 26.9762 16.2687 26.9732 15.871L26.9717 15.727C26.968 15.3294 27.2876 15.0045 27.6852 15.0015L27.8292 15C28.2268 14.9963 28.5517 15.3159 28.5547 15.7135L28.5562 15.8575Z" fill="white"/>
<circle cx="20" cy="20" r="19.5" stroke="black" stroke-opacity="0.05"/>
</svg>
