<svg width="40" height="40" viewBox="0 0 40 40" fill="none" xmlns="http://www.w3.org/2000/svg">
<circle cx="20" cy="20" r="20" fill="#02AEEA"/>
<path d="M33.9977 18.0369C33.9922 17.8325 33.9675 17.629 33.9241 17.4292C33.8278 16.9405 33.6514 16.471 33.402 16.0397C33.251 15.7849 33.0721 15.5477 32.8688 15.3323C32.2401 14.6771 31.389 14.2385 30.5014 14.0557C30.3155 14.0196 30.1263 14.0024 29.9369 14.0044C27.9536 14.0081 26.0094 14.0081 24.1045 14.0044C24.0435 14.002 23.9832 14.0173 23.9307 14.0485C23.46 14.3544 23.0029 14.7871 22.8408 15.3323C22.7466 15.6747 22.7864 15.9885 22.9602 16.2738C23.1069 16.5316 23.3471 16.7231 23.6312 16.8087C23.9049 16.8917 24.1906 16.9279 24.4764 16.9157C24.9642 16.8939 25.6844 16.825 26.2737 16.8575C27.4192 16.9203 28.3925 17.3451 29.1936 18.1319C29.5176 18.4755 29.783 18.8698 29.9793 19.2993C30.0911 19.5502 30.1791 19.8109 30.2421 20.0782C30.2506 20.1142 30.2421 20.121 30.2108 20.0983C29.4238 19.4992 28.4562 19.1919 27.4626 19.0824C26.6352 18.9884 25.7992 19.002 24.9753 19.123C23.9265 19.2797 22.9097 19.661 22.0816 20.3324C21.7023 20.6389 21.3763 21.0058 21.1166 21.4185C20.8604 21.8207 20.6799 22.2664 20.5842 22.7336L19.6496 26.2372C19.6494 26.2393 19.6494 26.2415 19.6496 26.2436C19.6495 26.2469 19.6501 26.2502 19.6514 26.2533C19.6526 26.2564 19.6545 26.2592 19.6568 26.2616C19.6592 26.2639 19.662 26.2658 19.6651 26.2671C19.6682 26.2683 19.6715 26.2689 19.6748 26.2689C20.3267 26.2649 20.9829 26.2649 21.6434 26.2689C22.3953 26.274 23.1377 25.9167 23.5152 25.2576C23.5822 25.1401 23.6618 24.894 23.754 24.5194C23.8966 23.9334 24.044 23.3486 24.1961 22.7648L24.2564 22.5029C24.2564 22.4867 24.2624 22.4785 24.2765 22.4781C25.4026 22.4741 27.3854 22.4741 30.2249 22.4781C30.3459 22.4864 30.4674 22.4772 30.5857 22.4507C31.3355 22.2796 32.0613 21.9432 32.6351 21.4237C33.0006 21.0987 33.3 20.7064 33.5171 20.2682L32.3099 21.4618L33.5167 20.2682C33.6662 19.9703 33.781 19.6563 33.8591 19.3323C33.9635 18.9087 34.0101 18.473 33.9977 18.0369Z" fill="white"/>
<path d="M19.034 20.7974C18.8537 20.5182 18.643 20.2599 18.4058 20.0271C18.0923 19.7406 17.7461 19.4919 17.3744 19.2864C16.658 18.8896 15.8906 18.5931 15.0935 18.4052C13.9011 18.1248 12.6879 17.9414 11.4658 17.857C11.8238 17.5481 12.2282 17.2974 12.664 17.1141C13.3244 16.8379 14.0196 16.654 14.7302 16.5676C15.0045 16.5349 15.2809 16.5239 15.557 16.5347C16.3148 16.5612 17.0821 16.5813 17.7968 16.8218C18.1175 16.9297 18.4116 17.0259 18.6792 17.1107C19.1752 17.2682 19.8514 17.2613 20.1552 16.7349C20.2465 16.5636 20.3243 16.3855 20.388 16.2022C20.5239 15.9268 20.6862 15.6652 20.8725 15.4212C21.5375 14.5991 22.5132 14.0659 23.5886 14.0325C23.5896 14.0326 23.5905 14.0325 23.5914 14.0322C23.5923 14.032 23.5931 14.0315 23.5938 14.0308C23.5944 14.0301 23.595 14.0293 23.5952 14.0284C23.5955 14.0275 23.5956 14.0266 23.5955 14.0256C23.5956 14.0247 23.5955 14.0238 23.5953 14.023C23.595 14.0221 23.5945 14.0213 23.5939 14.0207C23.5933 14.02 23.5925 14.0195 23.5917 14.0192C23.5909 14.0188 23.5899 14.0187 23.589 14.0188C23.0404 13.9918 22.4939 14.0021 21.9462 14.0025C18.8413 14.0071 15.7617 14.0071 12.7073 14.0025C12.422 13.9979 12.1368 14.0122 11.8535 14.0453C11.0478 14.1548 10.2842 14.4715 9.63762 14.9645C9.47244 15.0973 9.31765 15.2425 9.17458 15.3989C8.98215 15.6004 8.81185 15.8219 8.66661 16.0596C8.33624 16.5826 8.09702 17.1976 8.06449 17.8142C8.05335 17.9322 8.05335 18.051 8.06449 18.169C8.0981 18.6249 8.26012 19.062 8.53181 19.4297C8.69418 19.6575 8.88373 19.8645 9.09627 20.0464C9.60068 20.4607 10.1703 20.7885 10.7819 21.0165C11.0926 21.1329 11.4029 21.2506 11.7127 21.3696C12.4728 21.6723 13.2349 21.969 13.9992 22.2597C14.0694 22.2904 14.1361 22.3284 14.1982 22.3731C14.8757 22.825 14.428 23.6762 13.8182 23.8649C13.7007 23.9012 13.5048 23.9189 13.2306 23.918C11.8139 23.9126 10.4183 23.9126 9.04406 23.918C8.55146 23.9156 8.06143 23.9891 7.59119 24.1358C6.69635 24.4191 6.25685 25.3533 6.00009 26.24C5.99709 26.2516 6.00009 26.2571 6.01335 26.2571C9.0141 26.2531 12.016 26.2531 15.019 26.2571C15.2863 26.2609 15.5535 26.2466 15.8189 26.2143C17.7827 25.943 19.3708 24.6019 19.4992 22.5422C19.516 22.1527 19.4579 21.7637 19.328 21.3961C19.2525 21.1863 19.1539 20.9855 19.034 20.7974ZM20.7852 15.4443C20.7868 15.443 20.7878 15.4412 20.7881 15.4391C20.7876 15.4408 20.7866 15.4423 20.7852 15.4434V15.4443ZM8.13168 17.8587C8.13245 17.8599 8.13347 17.861 8.13468 17.8617C8.13324 17.8605 8.1322 17.8588 8.13168 17.857V17.8587ZM9.20967 20.0691C9.20967 20.0691 9.21224 20.0691 9.2131 20.0691C9.21395 20.0691 9.20967 20.0686 9.20967 20.0691ZM9.21695 20.0626C9.21695 20.0626 9.21695 20.0626 9.21695 20.0652C9.21695 20.0678 9.21695 20.0626 9.21695 20.0614V20.0626Z" fill="white"/>
<circle cx="20" cy="20" r="19.5" stroke="black" stroke-opacity="0.05"/>
</svg>
