<svg width="40" height="40" viewBox="0 0 40 40" fill="none" xmlns="http://www.w3.org/2000/svg">
<circle cx="20" cy="20" r="20" fill="#184A97"/>
<path d="M14.4084 21.2557C14.1579 21.2557 13.9181 21.2572 13.6784 21.2549C13.6044 21.2542 13.5648 21.303 13.5198 21.3464C13.3513 21.51 13.1839 21.6754 13.0139 21.8374C12.6834 22.1519 12.301 22.3296 11.8325 22.317C11.3629 22.304 10.8925 22.3147 10.4224 22.3136C10.1777 22.3128 10.0542 22.2247 9.99776 22.0151C9.9299 21.7631 9.997 21.5386 10.2147 21.4513C10.4674 21.3502 10.6378 21.1619 10.8235 20.9835C11.523 20.3103 12.2248 19.639 12.9228 18.9635C13.4931 18.4115 14.058 17.8542 14.6283 17.3025C14.6996 17.2335 14.7233 17.1798 14.6924 17.0742C14.6043 16.7742 14.7313 16.5901 15.0408 16.5241C15.1533 16.5001 15.265 16.4875 15.3801 16.4875C16.0342 16.489 16.6888 16.4875 17.3429 16.4875C17.7798 16.4875 17.8812 16.6156 17.7752 17.033C17.407 18.4812 17.0376 19.9291 16.6712 21.3777C16.6507 21.4589 16.6022 21.5412 16.6434 21.6285C16.9964 21.4063 17.2675 21.1272 17.4706 20.7514C18.0752 19.6333 18.7149 18.5339 19.3443 17.4291C19.4061 17.3205 19.4278 17.2454 19.3355 17.1299C19.1724 16.9255 19.2627 16.6655 19.5078 16.5565C19.6935 16.4738 19.8913 16.4707 20.0869 16.4704C21.338 16.4669 22.5896 16.4673 23.8407 16.4692C24.2627 16.47 24.3889 16.6876 24.1849 17.0567C23.9619 17.4604 23.7336 17.8614 23.5136 18.2666C23.416 18.4466 23.2944 18.5785 23.1027 18.5594C22.8629 19.1632 22.5511 19.7023 22.1794 20.2241C22.3208 20.3499 22.2762 20.4982 22.1881 20.6534C21.964 21.0491 21.7402 21.4452 21.5233 21.8451C21.3632 22.1401 21.1303 22.2873 20.7876 22.2857C19.5997 22.2796 18.4119 22.2812 17.224 22.2854C16.9896 22.2861 16.8016 22.2125 16.6697 22.017C16.5988 21.9122 16.5485 21.9114 16.4787 22.0227C16.3617 22.2103 16.1833 22.2873 15.9622 22.2854C15.5112 22.2812 15.0602 22.2857 14.6093 22.2835C14.2475 22.2815 14.1297 22.1123 14.2437 21.7742C14.2997 21.6076 14.3798 21.4482 14.4088 21.2557H14.4084ZM22.0368 20.4323H19.7934C19.8368 20.2348 19.9424 20.1853 20.1151 20.1891C20.6294 20.2001 21.1444 20.1875 21.6586 20.1952C21.8965 20.1986 22.0612 20.0926 22.1729 19.8982C22.3715 19.5521 22.5648 19.2021 22.7554 18.8514C22.8644 18.6509 22.832 18.5849 22.609 18.58C22.1329 18.5693 21.6567 18.5712 21.1802 18.5685C21.0758 18.5678 20.9713 18.5685 20.8611 18.5685C20.9054 18.3856 21.003 18.3448 21.1592 18.3471C21.8008 18.3562 22.4424 18.3513 23.084 18.3501C23.1496 18.3501 23.2208 18.3718 23.267 18.288C23.5239 17.8214 23.7866 17.3582 24.0431 16.8916C24.0999 16.7883 24.0561 16.7197 23.939 16.7063C23.8826 16.6998 23.8251 16.7006 23.7679 16.7006C22.5419 16.7006 21.3159 16.7002 20.0899 16.701C19.995 16.701 19.8997 16.7075 19.8052 16.7178C19.6813 16.7311 19.5582 16.765 19.5151 16.8962C19.4697 17.0338 19.6016 17.0731 19.679 17.1405C19.6923 17.1523 19.7023 17.1687 19.7198 17.1905C19.6908 17.2454 19.6638 17.301 19.6329 17.3551C18.8846 18.6581 18.1343 19.9603 17.3887 21.2652C17.3166 21.3914 17.2358 21.4837 17.0944 21.5382C16.9659 21.5877 16.8253 21.6735 16.8588 21.8424C16.8927 22.0128 17.0467 22.0471 17.1985 22.0597C17.2362 22.0627 17.2747 22.0608 17.3128 22.0608C18.4816 22.0608 19.6504 22.0566 20.8192 22.0639C21.0739 22.0654 21.2366 21.9598 21.354 21.7444C21.5603 21.3659 21.7745 20.9919 21.9838 20.6149C22.0105 20.5669 22.0551 20.5238 22.0379 20.4319L22.0368 20.4323ZM14.7107 21.0575C14.6211 21.3293 14.5387 21.5752 14.4595 21.8214C14.3908 22.0345 14.4366 22.0974 14.6657 22.0986C15.0785 22.1005 15.491 22.0993 15.9039 22.0989C16.2092 22.0989 16.2877 22.036 16.3636 21.7376C16.7624 20.1658 17.1615 18.5941 17.5606 17.0224C17.6208 16.7856 17.572 16.7132 17.3304 16.7132C16.6636 16.7136 15.9969 16.7189 15.3305 16.7258C15.2425 16.7265 15.1529 16.7399 15.0667 16.7593C14.891 16.7986 14.8411 16.9446 14.955 17.0856C14.9848 17.1222 15.0358 17.1417 15.0846 17.1741C14.5814 17.6552 14.1091 18.1065 13.6368 18.5583C12.619 19.5322 11.6011 20.5059 10.5837 21.4806C10.5414 21.521 10.4987 21.5466 10.4381 21.5588C10.2463 21.5965 10.1605 21.7044 10.1804 21.8695C10.2036 22.0623 10.3401 22.0879 10.4994 22.0871C10.9885 22.0848 11.4772 22.0822 11.9663 22.0879C12.277 22.0913 12.5317 21.9796 12.7501 21.7623C12.9663 21.5477 13.1915 21.3426 13.4096 21.1299C13.458 21.0826 13.5045 21.0552 13.5743 21.0559C13.9418 21.0586 14.3096 21.0571 14.7099 21.0571L14.7107 21.0575Z" fill="white"/>
<path d="M25.4315 21.283C25.2866 21.3733 25.1418 21.4637 24.9847 21.5616C24.8509 21.3478 24.8742 21.0733 24.7289 20.8678C24.618 20.8991 24.5959 20.9872 24.5578 21.0543C24.4449 21.2525 24.3424 21.4564 24.2314 21.6562C24.1571 21.79 24.0854 21.9143 24.1544 22.0816C24.1968 22.1849 24.1175 22.2757 24.0386 22.3439C23.1023 23.1536 22.1657 23.9629 21.2271 24.7699C21.0582 24.9152 20.8394 24.8961 20.6385 24.7314C20.4636 24.5881 20.4273 24.4329 20.5425 24.2267C21.0956 23.2378 21.6548 22.2524 22.2087 21.2635C23.0394 19.7799 23.8674 18.2943 24.6965 16.8095C24.7335 16.7431 24.7754 16.6791 24.8086 16.6109C24.9047 16.4134 25.0587 16.3356 25.2737 16.3749C25.4704 16.4111 25.603 16.5102 25.6637 16.7138C25.836 17.2902 26.0186 17.8635 26.1981 18.4376C26.2164 18.4963 26.2408 18.5535 26.2732 18.6393C26.5656 18.4304 26.8424 18.2329 27.1187 18.0347C28.0054 17.3977 28.8925 16.761 29.7777 16.1221C29.8963 16.0367 30.0209 15.9826 30.1669 16.0051C30.494 16.0558 30.6629 16.3962 30.4928 16.6844C30.2687 17.0645 30.0251 17.4331 29.7964 17.8105C29.3626 18.5268 28.9223 19.2393 28.5083 19.967C28.3592 20.2289 28.1919 20.4832 28.0561 20.7729C28.2105 20.8598 28.3604 20.9391 28.5048 21.0268C28.5849 21.0756 28.6775 21.1278 28.6695 21.241C28.6615 21.3501 28.5601 21.3699 28.4812 21.4053C27.638 21.785 26.7947 22.1643 25.9511 22.5433C25.6107 22.6961 25.2973 22.5562 25.2234 22.2242C25.1978 22.1102 25.2314 22.0119 25.2805 21.9139C25.3633 21.7496 25.4452 21.5853 25.5276 21.421C25.5836 21.3344 25.6396 21.2483 25.6781 21.0954C25.5687 21.1785 25.5001 21.2308 25.4319 21.2826L25.4315 21.283ZM25.1185 21.3142C25.5222 21.0356 25.9019 20.7737 26.282 20.5114C26.2938 20.5255 26.3052 20.5392 26.3171 20.5533C26.0567 21.0009 25.7975 21.4492 25.5348 21.8952C25.457 22.0271 25.3446 22.1624 25.4673 22.3092C25.5916 22.4579 25.759 22.3778 25.9107 22.3382C25.929 22.3336 25.9461 22.3244 25.9637 22.3168C26.7341 21.976 27.5049 21.636 28.2746 21.294C28.3287 21.27 28.4019 21.2643 28.4191 21.1656C28.2597 20.9772 27.999 20.9399 27.784 20.7977C27.9315 20.5484 28.0752 20.304 28.2204 20.0604C28.899 18.9221 29.5779 17.7838 30.2561 16.6455C30.3251 16.5293 30.4063 16.4039 30.2782 16.2849C30.1543 16.1702 30.0186 16.2209 29.8932 16.2994C29.8665 16.3162 29.8414 16.336 29.8158 16.3547C28.9276 17.0001 28.0398 17.6458 27.1515 18.2912C26.8138 18.5367 26.476 18.7815 26.1188 19.0407C26.0651 18.8699 26.0167 18.7212 25.9709 18.5714C25.7925 17.9836 25.613 17.3958 25.4384 16.8068C25.4025 16.6856 25.3389 16.5948 25.2115 16.5815C25.0926 16.5693 25.0106 16.6433 24.9531 16.7435C24.9375 16.771 24.9214 16.7984 24.9062 16.8262C23.615 19.1329 22.3242 21.4397 21.0335 23.7467C20.9313 23.9293 20.8268 24.1104 20.7308 24.2961C20.6816 24.3906 20.6747 24.4943 20.7533 24.5805C20.8371 24.6727 20.9477 24.6697 21.0529 24.6331C21.1105 24.6129 21.1627 24.5698 21.21 24.5286C22.0696 23.7761 22.9277 23.0217 23.7873 22.2696C23.8903 22.1796 23.9738 22.0938 23.8773 21.9482C23.8354 21.8853 23.8788 21.8273 23.9097 21.7717C24.1868 21.2658 24.4632 20.7596 24.7404 20.2537C24.7571 20.2236 24.764 20.1805 24.8143 20.1824C24.9131 20.5488 25.0118 20.9147 25.1193 21.3139L25.1185 21.3142Z" fill="white"/>
<path d="M32.8788 16.3658C33.9733 16.2705 34.8207 16.9525 34.9702 17.9936C35.0681 18.6748 34.9183 19.3091 34.6156 19.9046C34.0107 21.094 33.0939 21.9334 31.7867 22.2994C31.2999 22.4358 30.8108 22.4442 30.3312 22.2616C29.5749 21.9734 29.154 21.3238 29.1476 20.4451C29.1415 19.6084 29.4438 18.8772 29.9153 18.2051C30.4486 17.445 31.1302 16.8698 32.0104 16.548C32.3036 16.4409 32.6048 16.3692 32.8788 16.3658ZM29.395 20.2633C29.3961 20.715 29.4716 21.0776 29.6839 21.4012C30.067 21.9856 30.7997 22.2429 31.59 22.0741C33.1739 21.7355 34.5219 20.2641 34.7232 18.6542C34.8875 17.3413 33.9039 16.4173 32.6048 16.6654C31.5427 16.8682 30.7483 17.4774 30.1208 18.3264C29.6816 18.9207 29.4167 19.5844 29.395 20.2633Z" fill="white"/>
<path d="M6.75328 22.2842C6.34043 22.2842 5.92758 22.285 5.51472 22.2842C5.26808 22.2835 5.0607 22.1272 5.00809 21.9064C4.9673 21.7349 5.08319 21.523 5.29934 21.4208C5.41637 21.3655 5.48842 21.2858 5.55094 21.178C6.26762 19.9363 6.98734 18.6963 7.7086 17.4573C7.76959 17.3525 7.79818 17.2717 7.72346 17.1486C7.57708 16.9069 7.67924 16.6488 7.93847 16.539C8.03911 16.4963 8.14623 16.4788 8.25411 16.4791C9.07333 16.4807 9.89332 16.462 10.7114 16.494C11.6137 16.5291 12.1798 17.2595 12.03 18.1462C11.7986 19.5147 11.0484 20.565 10.0023 21.4322C9.47513 21.8695 8.88616 22.1958 8.1996 22.2633C7.72156 22.3102 7.23551 22.2724 6.75328 22.2724C6.75328 22.2766 6.75328 22.2812 6.75328 22.2854V22.2842ZM8.04254 17.2602C8.03606 17.2751 8.03034 17.2923 8.02157 17.3075C7.24161 18.6658 6.46127 20.0236 5.68246 21.3827C5.64167 21.454 5.58334 21.4902 5.51244 21.523C5.36262 21.5923 5.17278 21.667 5.21204 21.8626C5.25169 22.0608 5.45182 22.0803 5.62909 22.0864C5.66073 22.0875 5.69275 22.0864 5.72439 22.0864C6.45479 22.0864 7.18557 22.0864 7.91597 22.0864C8.22361 22.0864 8.52058 22.0288 8.80725 21.916C9.4839 21.6499 10.0374 21.2111 10.5208 20.6801C11.1666 19.9703 11.6633 19.177 11.8425 18.2156C11.9728 17.516 11.6549 16.964 11.0103 16.7727C10.8208 16.7163 10.6256 16.688 10.4282 16.6873C9.7294 16.6846 9.03064 16.6854 8.33188 16.6873C8.24343 16.6873 8.15423 16.6972 8.06732 16.714C7.86527 16.7529 7.79132 16.9267 7.90225 17.102C7.93847 17.1596 7.99298 17.2054 8.04216 17.2602H8.04254Z" fill="white"/>
<path d="M22.0367 20.4319C22.0539 20.5237 22.0093 20.5668 21.9826 20.6149C21.7733 20.9915 21.559 21.3658 21.3528 21.7444C21.2354 21.9598 21.0726 22.0654 20.818 22.0638C19.6492 22.0566 18.4804 22.0608 17.3116 22.0608C17.2735 22.0608 17.235 22.0631 17.1972 22.0596C17.0455 22.0471 16.8915 22.0128 16.8576 21.8424C16.824 21.6735 16.9647 21.5877 17.0932 21.5381C17.2346 21.4833 17.3154 21.391 17.3874 21.2652C18.1331 19.9603 18.8833 18.6581 19.6316 17.3551C19.6625 17.3014 19.69 17.2453 19.7186 17.1904C19.701 17.1687 19.6915 17.1523 19.6778 17.1405C19.6008 17.073 19.4685 17.0334 19.5138 16.8961C19.5573 16.765 19.6801 16.7311 19.8039 16.7177C19.8985 16.7078 19.9938 16.701 20.0887 16.701C21.3147 16.6998 22.5407 16.7002 23.7666 16.7006C23.8238 16.7006 23.8814 16.6998 23.9378 16.7063C24.0548 16.7196 24.0987 16.7883 24.0419 16.8916C23.7857 17.3582 23.5227 17.8213 23.2657 18.2879C23.2196 18.3718 23.1487 18.3501 23.0827 18.3501C22.4412 18.3516 21.7996 18.3562 21.158 18.347C21.0017 18.3447 20.9041 18.3855 20.8599 18.5685C20.9697 18.5685 21.0741 18.5681 21.179 18.5685C21.6551 18.5716 22.1316 18.5693 22.6078 18.5799C22.8311 18.5849 22.8632 18.6509 22.7541 18.8514C22.5635 19.2021 22.3706 19.552 22.1717 19.8982C22.06 20.0926 21.8953 20.1986 21.6574 20.1951C21.1431 20.1875 20.6281 20.2001 20.1139 20.189C19.9412 20.1852 19.8356 20.2352 19.7921 20.4323H22.0356L22.0367 20.4319ZM23.7579 16.9419H19.8829C20.1097 17.0311 20.0064 17.158 19.9347 17.2823C19.1788 18.5948 18.4243 19.9081 17.6661 21.2195C17.5403 21.4371 17.4591 21.6914 17.2056 21.8191C18.4598 21.8321 19.7033 21.8321 20.9468 21.8321C20.9971 21.8321 21.049 21.8378 21.0806 21.7829C21.2933 21.4108 21.5072 21.0391 21.7344 20.6427H19.348C19.4757 20.4422 19.5989 20.2596 19.7094 20.0697C19.7616 19.9794 19.8249 19.9546 19.9244 19.9561C20.4005 19.963 20.8801 19.9275 21.3517 19.9748C21.7702 20.0167 22.007 19.8764 22.1572 19.4937C22.2521 19.2513 22.405 19.0313 22.5456 18.7767H20.452C20.5565 18.5849 20.6548 18.4164 20.7402 18.2418C20.7879 18.1442 20.8458 18.1046 20.959 18.105C21.6128 18.1069 22.2666 18.1011 22.9204 18.0947C22.9848 18.0939 23.0622 18.1271 23.1094 18.0466C23.3229 17.6822 23.5368 17.3181 23.7579 16.9415V16.9419Z" fill="#184A97"/>
<path d="M14.7107 21.0573C14.3104 21.0573 13.9425 21.0588 13.5751 21.0561C13.5049 21.0558 13.4588 21.0832 13.4104 21.1301C13.1923 21.3428 12.9666 21.5479 12.7509 21.7625C12.5324 21.9794 12.2778 22.0915 11.9671 22.0881C11.4784 22.0824 10.9893 22.085 10.5002 22.0873C10.3405 22.0881 10.204 22.0625 10.1811 21.8696C10.1613 21.7046 10.2471 21.5967 10.4388 21.559C10.4994 21.5471 10.5421 21.5216 10.5845 21.4808C11.6015 20.5061 12.6197 19.5324 13.6376 18.5584C14.1095 18.1067 14.5822 17.6554 15.0854 17.1743C15.0366 17.1419 14.9855 17.1224 14.9558 17.0858C14.8418 16.9448 14.8918 16.7988 15.0675 16.7595C15.1537 16.7401 15.2432 16.7267 15.3313 16.726C15.998 16.7191 16.6644 16.7141 17.3311 16.7134C17.5728 16.7134 17.6216 16.7858 17.5614 17.0225C17.1623 18.5943 16.7631 20.166 16.3644 21.7377C16.2885 22.0362 16.21 22.0991 15.9046 22.0991C15.4918 22.0991 15.0789 22.1007 14.6665 22.0988C14.4374 22.0976 14.3916 22.0347 14.4602 21.8216C14.5399 21.5753 14.6219 21.3295 14.7115 21.0577L14.7107 21.0573ZM14.6951 21.8704C15.1319 21.8704 15.5314 21.8613 15.9306 21.875C16.088 21.8803 16.1334 21.814 16.165 21.6813C16.4189 20.6155 16.677 19.5504 16.9347 18.4852C17.0578 17.976 17.1821 17.467 17.306 16.9577H15.2196C15.305 17.0283 15.4091 17.029 15.4548 17.1377C13.8122 18.7064 12.1695 20.2747 10.5269 21.843C11.1155 21.843 11.7178 21.8418 12.3197 21.8441C12.4005 21.8441 12.4463 21.798 12.4959 21.7484C12.6842 21.5597 12.8919 21.3866 13.057 21.1793C13.2994 20.8754 13.5842 20.7531 13.9753 20.7946C14.3112 20.8305 14.6535 20.8019 15.0134 20.8019C14.9043 21.1675 14.8037 21.5052 14.6954 21.8693L14.6951 21.8704Z" fill="#184A97"/>
<path d="M25.1186 21.3144C25.0111 20.9153 24.9124 20.5493 24.8137 20.183C24.7634 20.1815 24.7561 20.2242 24.7397 20.2543C24.4626 20.7601 24.1862 21.2664 23.9091 21.7723C23.8786 21.8279 23.8351 21.8859 23.8767 21.9488C23.9731 22.094 23.89 22.1798 23.7867 22.2701C22.9271 23.0223 22.069 23.7767 21.2093 24.5292C21.1621 24.5703 21.1098 24.6134 21.0523 24.6336C20.9471 24.6702 20.8361 24.6733 20.7526 24.581C20.6745 24.4949 20.6813 24.3912 20.7301 24.2966C20.8262 24.111 20.931 23.9299 21.0328 23.7473C22.3236 21.4406 23.6148 19.1335 24.9056 16.8268C24.9212 16.799 24.9368 16.7715 24.9524 16.7441C25.01 16.6438 25.092 16.5699 25.2109 16.5821C25.3382 16.595 25.4015 16.6858 25.4377 16.8074C25.6123 17.3963 25.7919 17.9842 25.9703 18.572C26.0156 18.7218 26.0641 18.8705 26.1182 19.0413C26.4754 18.782 26.8131 18.5373 27.1509 18.2918C28.0391 17.6464 28.927 17.0006 29.8152 16.3552C29.8407 16.3366 29.8655 16.3167 29.8926 16.3C30.0184 16.2214 30.1537 16.1707 30.2776 16.2855C30.4061 16.4044 30.3249 16.5298 30.2555 16.6461C29.5773 17.7844 28.898 18.9227 28.2198 20.061C28.0746 20.3046 27.9308 20.549 27.7833 20.7983C27.9983 20.9401 28.2591 20.9774 28.4184 21.1661C28.4013 21.2649 28.3284 21.2706 28.2739 21.2946C27.5039 21.6365 26.7335 21.977 25.963 22.3174C25.9455 22.325 25.9283 22.3342 25.91 22.3387C25.7583 22.3784 25.591 22.4584 25.4667 22.3098C25.3439 22.163 25.4564 22.0281 25.5342 21.8958C25.7972 21.4498 26.056 21.0014 26.3164 20.5539C26.3046 20.5398 26.2932 20.5261 26.2813 20.512C25.9017 20.7739 25.522 21.0361 25.1179 21.3148L25.1186 21.3144ZM21.0607 24.3161C21.5772 23.8762 22.0945 23.4366 22.6107 22.9959C22.9614 22.6963 23.3106 22.394 23.6605 22.0932C23.619 22.0349 23.5492 22.0898 23.5202 22.0208C23.9643 21.2126 24.4119 20.3984 24.8777 19.5506C25.0146 20.061 25.1408 20.5314 25.2719 21.0217C25.8178 20.6359 26.3351 20.2703 26.8524 19.9047C26.8642 19.9177 26.876 19.9306 26.8878 19.9436C26.4521 20.7014 26.016 21.4593 25.5532 22.2644C26.4338 21.884 27.2618 21.5264 28.1199 21.1555C27.8859 21.0594 27.6888 20.9786 27.4825 20.8939C27.5142 20.836 27.5367 20.7914 27.5622 20.7483C27.9754 20.0427 28.3906 19.3378 28.8023 18.6315C29.1949 17.9582 29.5842 17.2835 29.9753 16.6095C30.0008 16.5927 30.0203 16.5725 29.997 16.542C29.9955 16.5401 29.9631 16.5626 29.9448 16.5737C29.9124 16.5935 29.8788 16.6114 29.8483 16.6335C28.7985 17.3906 27.7486 18.1477 26.6988 18.9048C26.4605 19.0767 26.2215 19.2483 25.9676 19.4312C25.7053 18.588 25.4514 17.7707 25.1953 16.9465C25.1206 16.9938 25.1034 17.0578 25.0729 17.1119C24.426 18.2537 23.7795 19.3954 23.1341 20.5375C22.4292 21.7848 21.7259 23.0325 21.0218 24.2799C21.0096 24.2982 20.9852 24.3309 20.9875 24.3332C21.0172 24.3592 21.0424 24.3489 21.0607 24.3161Z" fill="#184A97"/>
<path d="M29.395 20.2631C29.4171 19.5838 29.6817 18.9205 30.1208 18.3262C30.7483 17.4773 31.5424 16.8681 32.6048 16.6653C33.9036 16.4175 34.8875 17.3415 34.7232 18.6541C34.5219 20.2643 33.174 21.7354 31.59 22.0739C30.8002 22.2428 30.0675 21.9855 29.684 21.4011C29.4716 21.077 29.3962 20.7149 29.395 20.2631ZM34.4853 18.4528C34.4918 18.0567 34.3813 17.6835 34.1663 17.4193C33.7424 16.8982 33.1713 16.8124 32.5617 16.9298C31.6312 17.109 30.9256 17.6522 30.3633 18.391C29.9318 18.9583 29.6512 19.5899 29.6481 20.3173C29.6436 21.3565 30.4136 22.008 31.4372 21.8463C32.3719 21.6984 33.0863 21.1903 33.6718 20.4797C34.1556 19.8926 34.4587 19.2266 34.4857 18.4532L34.4853 18.4528Z" fill="#184A97"/>
<path d="M8.04238 17.26C7.9932 17.2051 7.93869 17.1594 7.90247 17.1018C7.79154 16.9265 7.86587 16.7526 8.06754 16.7138C8.15445 16.697 8.24365 16.6875 8.3321 16.6871C9.03086 16.6848 9.72962 16.684 10.4284 16.6871C10.6255 16.6878 10.821 16.7164 11.0105 16.7725C11.6551 16.9638 11.973 17.5162 11.8427 18.2153C11.6635 19.1768 11.1668 19.9701 10.521 20.6799C10.0376 21.2109 9.48412 21.6497 8.80747 21.9158C8.5208 22.0286 8.22421 22.0858 7.91619 22.0862C7.18579 22.0862 6.45501 22.0862 5.72461 22.0862C5.69297 22.0862 5.66095 22.0869 5.62931 22.0862C5.45204 22.0801 5.25191 22.0606 5.21226 21.8624C5.173 21.6668 5.36284 21.5917 5.51266 21.5227C5.58394 21.49 5.64189 21.4537 5.68268 21.3825C6.46111 20.0234 7.24183 18.6656 8.02179 17.3073C8.03056 17.2921 8.03628 17.2749 8.04276 17.26H8.04238ZM5.56145 21.8262C6.35285 21.8262 7.14424 21.8197 7.93564 21.8289C8.36069 21.8338 8.75333 21.7301 9.11625 21.522C10.1463 20.9303 10.8797 20.0696 11.3688 18.9953C11.5331 18.6343 11.6296 18.2561 11.596 17.8517C11.5552 17.3607 11.3688 17.1361 10.8904 17.0149C10.5347 16.9249 10.1726 16.9413 9.81158 16.9406C9.29389 16.9394 8.77621 16.9406 8.23794 16.9406C8.28749 17.0187 8.37365 17.0286 8.38966 17.1087C8.38508 17.1209 8.38051 17.1392 8.37136 17.1552C7.5266 18.621 6.68145 20.0863 5.83821 21.5529C5.7715 21.6687 5.68153 21.7488 5.56221 21.8266L5.56145 21.8262Z" fill="#184A97"/>
<path d="M23.758 16.9419C23.5368 17.3182 23.323 17.6826 23.1095 18.047C23.0622 18.1275 22.9849 18.0943 22.9204 18.0951C22.2667 18.1015 21.6129 18.1073 20.9591 18.1054C20.8463 18.1054 20.7879 18.1446 20.7403 18.2422C20.6549 18.4168 20.5565 18.5853 20.4521 18.777H22.5457C22.405 19.0317 22.2522 19.2517 22.1572 19.4941C22.0074 19.8768 21.7703 20.0171 21.3517 19.9752C20.8802 19.9279 20.4006 19.963 19.9245 19.9565C19.825 19.955 19.7617 19.9801 19.7095 20.0701C19.5993 20.26 19.4758 20.4426 19.3481 20.6431H21.7345C21.5069 21.0395 21.2934 21.4112 21.0807 21.7833C21.0491 21.8382 20.9972 21.8325 20.9469 21.8325C19.7034 21.8325 18.4599 21.8325 17.2057 21.8195C17.4592 21.6918 17.5404 21.4375 17.6662 21.2198C18.4244 19.9085 19.1788 18.5952 19.9348 17.2827C20.0064 17.1584 20.1098 17.0315 19.8829 16.9423H23.758V16.9419Z" fill="white"/>
<path d="M14.695 21.8705C14.8037 21.5065 14.9043 21.1687 15.013 20.8031C14.6535 20.8031 14.3108 20.8313 13.9749 20.7959C13.5838 20.7543 13.2987 20.8767 13.0566 21.1805C12.8915 21.3875 12.6838 21.5606 12.4954 21.7497C12.4459 21.7992 12.4001 21.8457 12.3193 21.8454C11.7174 21.8431 11.1151 21.8442 10.5265 21.8442C12.1691 20.2759 13.8118 18.7076 15.4544 17.1389C15.4087 17.0303 15.305 17.0291 15.2192 16.959H17.3056C17.1817 17.4679 17.0574 17.9772 16.9343 18.4865C16.677 19.5516 16.4185 20.6163 16.1646 21.6826C16.133 21.8152 16.0876 21.8816 15.9302 21.8762C15.531 21.8621 15.1315 21.8717 14.6947 21.8717L14.695 21.8705ZM15.5497 18.8113C15.2691 19.0789 14.9501 19.3835 14.6211 19.6976C14.8296 19.6976 15.0255 19.6953 15.2211 19.6988C15.3015 19.7003 15.3492 19.6797 15.3683 19.592C15.43 19.3095 15.4986 19.029 15.5497 18.8113Z" fill="white"/>
<path d="M29.9761 16.6096C29.5853 17.2835 29.1957 17.9587 28.8031 18.6315C28.391 19.3379 27.9762 20.0428 27.563 20.7484C27.5379 20.7915 27.515 20.8361 27.4833 20.894C27.6896 20.9786 27.8867 21.0594 28.1207 21.1555C27.2626 21.5264 26.4342 21.884 25.554 22.2645C26.0168 21.4597 26.4529 20.7015 26.8886 19.9436C26.8768 19.9307 26.865 19.9177 26.8532 19.9048C26.3359 20.2703 25.8182 20.6359 25.2727 21.0217C25.1412 20.5315 25.015 20.0611 24.8785 19.5506C24.4127 20.3984 23.9651 21.2127 23.521 22.0209C23.5496 22.0902 23.6194 22.035 23.6613 22.0933C23.3114 22.3944 22.9622 22.6964 22.6115 22.996C22.0957 23.4367 21.5784 23.8762 21.0615 24.3161C21.0485 24.3039 21.0359 24.2921 21.0229 24.2799C21.727 23.0326 22.4304 21.7845 23.1352 20.5376C23.7806 19.3951 24.4272 18.2533 25.0741 17.112C25.1046 17.0583 25.1217 16.9938 25.1965 16.9466C25.4526 17.7707 25.7065 18.5881 25.9688 19.4313C26.2231 19.2483 26.4617 19.0768 26.6999 18.9048C27.7498 18.1478 28.7997 17.3903 29.8495 16.6336C29.88 16.6115 29.9139 16.5936 29.946 16.5737C29.9563 16.5855 29.9662 16.5977 29.9765 16.6096H29.9761Z" fill="white"/>
<path d="M29.9454 16.5733C29.9637 16.5622 29.9961 16.5397 29.9977 16.5416C30.0213 16.5721 30.0019 16.5923 29.9759 16.6091C29.9656 16.5973 29.9557 16.5851 29.9454 16.5733Z" fill="white"/>
<path d="M34.4854 18.453C34.4584 19.2264 34.1549 19.8928 33.6715 20.4795C33.086 21.1901 32.3716 21.6986 31.4369 21.8461C30.4129 22.0081 29.6433 21.3566 29.6478 20.3171C29.6509 19.5897 29.9315 18.9577 30.363 18.3908C30.9253 17.652 31.6309 17.1088 32.5614 16.9296C33.171 16.8122 33.7421 16.898 34.166 17.4191C34.381 17.6833 34.4919 18.0565 34.4854 18.4526V18.453ZM31.4453 20.6121C31.4681 20.6091 31.5387 20.6068 31.6057 20.5908C32.3571 20.4116 33.1455 19.5554 33.264 18.7934C33.333 18.3497 33.041 18.0641 32.6003 18.1438C31.8028 18.2879 30.947 19.2074 30.862 20.0121C30.8235 20.3754 31.0362 20.6137 31.4453 20.6125V20.6121Z" fill="white"/>
<path d="M5.56155 21.8262C5.68049 21.7484 5.77084 21.668 5.83755 21.5524C6.68079 20.0859 7.52632 18.6205 8.3707 17.1548C8.37985 17.1392 8.38442 17.1209 8.389 17.1083C8.37337 17.0282 8.28683 17.0179 8.23728 16.9402C8.77555 16.9402 9.29323 16.9394 9.81092 16.9402C10.1719 16.9409 10.5341 16.9245 10.8897 17.0145C11.3685 17.1357 11.555 17.3603 11.5954 17.8513C11.6289 18.2557 11.5325 18.6335 11.3682 18.9949C10.8795 20.0692 10.1456 20.9299 9.11559 21.5216C8.75267 21.7301 8.35965 21.8334 7.93498 21.8284C7.14358 21.8193 6.35219 21.8258 5.56079 21.8258L5.56155 21.8262ZM7.62238 20.6646C7.77944 20.6646 7.93803 20.6524 8.09394 20.6669C8.52014 20.7065 8.86018 20.5373 9.15257 20.2483C9.6104 19.7962 9.94853 19.2663 10.1704 18.6625C10.1921 18.6034 10.2081 18.5409 10.2169 18.4787C10.2512 18.2424 10.1773 18.1471 9.93824 18.1307C9.74878 18.1177 9.55779 18.1227 9.36871 18.1055C9.22995 18.093 9.15218 18.144 9.08395 18.2649C8.69092 18.9591 8.28874 19.6479 7.89228 20.3402C7.82252 20.4622 7.75161 20.58 7.62238 20.6646Z" fill="white"/>
<path d="M15.5497 18.811C15.4986 19.0287 15.43 19.3093 15.3683 19.5918C15.3492 19.6794 15.3016 19.7 15.2211 19.6985C15.0252 19.6951 14.8296 19.6974 14.6211 19.6974C14.9501 19.3836 15.2692 19.0786 15.5497 18.811Z" fill="#184A97"/>
<path d="M31.4451 20.6119C31.0361 20.6131 30.8234 20.3752 30.8619 20.0115C30.9469 19.2068 31.8023 18.2873 32.6002 18.1432C33.0409 18.0635 33.3329 18.3494 33.2639 18.7928C33.1453 19.5548 32.357 20.411 31.6056 20.5902C31.5385 20.6062 31.468 20.6085 31.4451 20.6115V20.6119ZM31.4272 20.3386C31.606 20.3432 31.731 20.2974 31.8515 20.2402C32.1736 20.0877 32.4344 19.859 32.6494 19.5781C32.8163 19.36 32.957 19.1271 32.9944 18.8469C33.0371 18.5252 32.8644 18.3601 32.5491 18.4199C31.9643 18.5309 31.2492 19.2552 31.1463 19.8422C31.1363 19.8983 31.1299 19.9558 31.1322 20.0123C31.1405 20.2269 31.2557 20.3367 31.4276 20.3386H31.4272Z" fill="#184A97"/>
<path d="M7.62244 20.6644C7.75167 20.5794 7.82219 20.4616 7.89233 20.34C8.28918 19.6481 8.69097 18.9589 9.084 18.2647C9.15224 18.1439 9.23 18.0928 9.36877 18.1054C9.55785 18.1225 9.74883 18.1176 9.9383 18.1305C10.1769 18.1469 10.2513 18.2422 10.217 18.4786C10.2078 18.5407 10.1922 18.6032 10.1705 18.6623C9.94859 19.2662 9.61045 19.7964 9.15262 20.2482C8.86023 20.5367 8.52019 20.7064 8.094 20.6667C7.93808 20.6522 7.77988 20.6644 7.62244 20.6644ZM8.12144 20.409C8.36732 20.4468 8.56975 20.4033 8.74472 20.2726C9.32378 19.8399 9.67793 19.246 9.9341 18.5853C9.98633 18.4508 9.92877 18.36 9.77628 18.3539C9.64934 18.349 9.52201 18.3539 9.39507 18.349C9.3276 18.3463 9.29252 18.3779 9.26088 18.4328C8.88539 19.0858 8.50837 19.7381 8.12144 20.409Z" fill="#184A97"/>
<path d="M31.4271 20.339C31.2552 20.337 31.1401 20.2273 31.1317 20.0126C31.1294 19.9562 31.1362 19.8987 31.1458 19.8426C31.2487 19.2555 31.9639 18.5316 32.5486 18.4203C32.8639 18.3605 33.0366 18.5255 32.9939 18.8473C32.9569 19.1275 32.8159 19.36 32.6489 19.5784C32.4339 19.8594 32.1731 20.0877 31.851 20.2406C31.7302 20.2978 31.6051 20.3435 31.4267 20.339H31.4271ZM32.7827 18.8755C32.7892 18.6765 32.6672 18.5842 32.4735 18.6532C31.9558 18.8377 31.6139 19.214 31.3936 19.7058C31.3425 19.8194 31.2952 19.9555 31.4084 20.0603C31.519 20.1628 31.6528 20.1129 31.7652 20.0588C32.2158 19.8419 32.5353 19.4949 32.7369 19.039C32.7621 18.9818 32.7713 18.9178 32.7827 18.8759V18.8755Z" fill="white"/>
<path d="M8.12158 20.4093C8.50889 19.7384 8.88591 19.0865 9.26102 18.4331C9.29228 18.3782 9.32774 18.347 9.39521 18.3492C9.52215 18.3542 9.64948 18.3492 9.77642 18.3542C9.92929 18.3603 9.98647 18.451 9.93424 18.5856C9.67845 19.2462 9.32392 19.8402 8.74486 20.2728C8.56989 20.4036 8.36746 20.447 8.12158 20.4093ZM8.51499 20.1535C8.87562 20.0083 9.59039 19.0282 9.65329 18.6157C9.53397 18.5677 9.44591 18.581 9.37615 18.7091C9.2675 18.9089 9.14361 19.1002 9.02696 19.2954C8.86037 19.5741 8.69454 19.8527 8.51499 20.1535Z" fill="white"/>
<path d="M32.7829 18.8752C32.7714 18.9171 32.7623 18.9815 32.7371 19.0383C32.5359 19.4943 32.216 19.8412 31.7654 20.0581C31.653 20.1122 31.5192 20.1621 31.4086 20.0596C31.2954 19.9548 31.3427 19.8191 31.3938 19.7051C31.6145 19.2133 31.956 18.8371 32.4737 18.6525C32.6674 18.5835 32.7894 18.6762 32.7829 18.8748V18.8752Z" fill="#184A97"/>
<path d="M8.51489 20.1533C8.69444 19.8525 8.86027 19.5734 9.02686 19.2952C9.14351 19.1 9.2674 18.9082 9.37605 18.7089C9.44581 18.5808 9.53387 18.5674 9.65319 18.6155C9.59029 19.0279 8.87552 20.008 8.51489 20.1533Z" fill="#184A97"/>
<circle cx="20" cy="20" r="19.5" stroke="black" stroke-opacity="0.05"/>
</svg>
