<svg width="40" height="40" viewBox="0 0 40 40" fill="none" xmlns="http://www.w3.org/2000/svg">
<circle cx="20" cy="20" r="20" fill="#F6F8FA"/>
<g clip-path="url(#clip0_36945_75554)">
<path d="M9.28887 17C9.90293 17.0376 10.4514 17.2353 10.9389 17.5882C11.1686 17.7576 11.3561 17.9459 11.492 18.1482C11.5014 18.1671 11.5014 18.1859 11.4826 18.2L10.667 18.8729C10.667 18.8729 10.6154 18.8918 10.5967 18.8729C10.4326 18.7412 10.2732 18.5435 10.1045 18.4494C9.65918 18.1906 9.23262 18.0871 8.82012 18.1482C7.88262 18.2847 7.23105 18.7976 6.87012 19.6871C6.67793 20.1624 6.66855 20.6094 6.84668 21.0235C7.31543 22.12 8.64199 22.2188 9.52793 21.6306C9.62168 21.5694 9.68262 21.4753 9.70605 21.3671L9.83262 20.7741C9.83262 20.7741 9.82324 20.7365 9.80449 20.7365C9.80449 20.7365 9.80449 20.7365 9.7998 20.7365H8.84355C8.84355 20.7365 8.81074 20.7224 8.81074 20.7035C8.81074 20.7035 8.81074 20.7035 8.81074 20.6988L8.98887 19.8612C8.99355 19.8376 9.01699 19.8188 9.04043 19.8188H11.2389C11.2389 19.8188 11.2764 19.8376 11.2764 19.8565C11.2764 19.8565 11.2764 19.8612 11.2764 19.8659C11.2342 20.0682 11.1076 20.6847 10.8873 21.7247C10.8404 21.96 10.7842 22.0306 10.5967 22.1953C9.90293 22.8024 9.14824 23.1082 8.33262 23.1176C7.65293 23.1271 7.06699 22.9576 6.5748 22.6188C6.07793 22.2753 5.74043 21.7718 5.55762 21.1035C5.52949 20.9953 5.49668 20.8918 5.46387 20.7835V20.2988C5.62793 18.4871 7.0623 17.1694 8.83418 17H9.28887Z" fill="#E75100"/>
<path d="M27.0641 19.2399C27.0641 19.2399 27.0688 19.2635 27.0828 19.2682C27.0875 19.2682 27.0922 19.2682 27.0969 19.2682C27.3922 19.0611 27.8094 18.8023 28.1844 18.8023C29.1078 18.7976 29.7078 19.4093 29.5531 20.3788C29.5063 20.6752 29.3328 21.5082 29.0422 22.8682C29.0281 22.9435 28.9625 22.9952 28.8828 22.9952H27.9453C27.9453 22.9952 27.9078 22.9764 27.9078 22.9576C27.9078 22.9576 27.9078 22.9529 27.9078 22.9482C27.9453 22.7741 28.1047 22.0164 28.3859 20.6799C28.4141 20.5435 28.4 20.4023 28.3437 20.2517C28.2125 19.9035 27.8188 19.8423 27.5 19.9411C27.0969 20.0635 26.8438 20.3364 26.75 20.7599C26.6328 21.2776 26.4781 22.0023 26.2813 22.9341C26.2766 22.9623 26.2484 22.9811 26.2203 22.9811H25.175C25.175 22.9811 25.1562 22.9717 25.1562 22.9623L26.375 17.1741C26.375 17.1741 26.3984 17.1411 26.4172 17.1411H27.4531C27.4766 17.1411 27.5 17.1599 27.5 17.1882C27.5 17.1882 27.5 17.1929 27.5 17.1976L27.0688 19.2352L27.0641 19.2399Z" fill="#E75100"/>
<path d="M17.7504 22.6848C17.5535 22.7695 17.2676 22.9577 17.0004 23.0189C15.9926 23.2589 15.1582 22.6095 14.9801 21.6072C14.7504 20.2989 15.7207 19.0001 17.0238 18.8166C17.6098 18.7319 18.0691 18.906 18.4488 19.3672C18.4582 19.3813 18.4769 19.3813 18.491 19.3719C18.491 19.3719 18.5004 19.3625 18.5004 19.3577C18.566 19.1836 18.5473 18.8872 18.8566 18.8777C19.0348 18.8777 19.3207 18.8777 19.7098 18.8777C19.7238 18.8777 19.7379 18.8919 19.7379 18.906C19.7379 18.906 19.7379 18.906 19.7379 18.9107L18.8894 22.9389C18.8848 22.9625 18.8613 22.9813 18.8379 22.9813H17.8019C17.8019 22.9813 17.7598 22.9625 17.7598 22.9389C17.7598 22.9389 17.7598 22.9342 17.7598 22.9295L17.8019 22.7272C17.8019 22.7272 17.7926 22.6895 17.7738 22.6848C17.7644 22.6848 17.7598 22.6848 17.7504 22.6848ZM17.8113 19.9225C17.3613 19.6354 16.7098 19.8519 16.3582 20.4072C16.0066 20.9625 16.0863 21.6448 16.5363 21.9319C16.9863 22.2189 17.6379 22.0025 17.9894 21.4472C18.341 20.8919 18.2613 20.2095 17.8113 19.9225Z" fill="#E75100"/>
<path d="M21.9359 19.2541C21.9359 19.2541 22.0202 19.1976 22.1562 19.1035C22.6718 18.7364 23.2202 18.6988 23.8062 18.9858C24.4765 19.3152 24.7905 20.0494 24.739 20.7599C24.664 21.7482 24.064 22.5576 23.1452 22.9341C22.4234 23.2305 21.7484 23.1035 21.2468 22.5105C21.2327 22.4964 21.214 22.4917 21.1952 22.5105C21.1905 22.5152 21.1859 22.5246 21.1859 22.5294L20.7687 24.5011C20.7499 24.5952 20.6843 24.6752 20.5999 24.7129C20.5296 24.7458 20.4265 24.7599 20.2905 24.7599C19.8687 24.7599 19.6484 24.7599 19.6343 24.7599C19.6109 24.7599 19.5968 24.7317 19.6015 24.7129C20.103 22.3458 20.4921 20.5058 20.7687 19.1976C20.8062 19.0188 20.914 18.9199 21.0874 18.8917C21.1577 18.8823 21.4296 18.8776 21.8984 18.887C21.9265 18.887 21.9499 18.9105 21.9499 18.9388C21.9499 18.9388 21.9499 18.9435 21.9499 18.9482L21.8984 19.2211C21.8984 19.2211 21.9077 19.2541 21.9265 19.2588C21.9312 19.2588 21.9405 19.2588 21.9452 19.2588L21.9359 19.2541ZM23.1546 19.9505C22.7046 19.6635 22.0577 19.8752 21.7109 20.4258C21.3593 20.9764 21.439 21.6541 21.889 21.9411C22.339 22.2282 22.9859 22.0164 23.3327 21.4658C23.6843 20.9152 23.6046 20.2376 23.1546 19.9505Z" fill="#E75100"/>
<path d="M13.7002 19.2728C14.1221 19.0375 14.5346 18.8398 15.0268 18.8587C15.0502 18.8587 15.0643 18.8775 15.0643 18.901C15.0643 18.901 15.0643 18.901 15.0643 18.9057L14.8533 19.9081C14.8486 19.941 14.8158 19.9645 14.783 19.9598C13.6908 19.8281 13.3768 20.4634 13.1939 21.4422C13.1799 21.5175 13.0721 22.0163 12.8752 22.9481C12.8752 22.9669 12.8564 22.981 12.8377 22.981H11.7971C11.7971 22.981 11.7549 22.9622 11.7549 22.9387C11.7549 22.9387 11.7549 22.934 11.7549 22.9293L12.5799 19.014C12.5939 18.9387 12.6643 18.8822 12.7439 18.8822H13.6721C13.6955 18.8822 13.7189 18.901 13.7189 18.9245C13.7189 18.9245 13.7189 18.9293 13.7189 18.934L13.6533 19.2398C13.6533 19.2398 13.6627 19.2728 13.6768 19.2775C13.6861 19.2775 13.6908 19.2775 13.7002 19.2775V19.2728Z" fill="#E75100"/>
<path d="M30.5516 18.8963H31.5688C31.5969 18.8963 31.6157 18.9151 31.6204 18.9433L32.0094 21.5316C32.0094 21.5316 32.0141 21.541 32.0235 21.541C32.0235 21.541 32.0282 21.541 32.0329 21.5363L33.5 18.981C33.5375 18.9198 33.6032 18.8774 33.6735 18.8774H34.7047C34.7047 18.8774 34.7235 18.8869 34.7235 18.8963C34.7235 18.8963 34.7235 18.901 34.7235 18.9057C33.7016 20.6516 32.8579 22.0821 32.2016 23.2069C32.0329 23.4939 31.8219 23.7904 31.5641 24.0963C31.0625 24.6939 30.4344 24.8821 29.6704 24.661C29.6329 24.6516 29.6141 24.6139 29.6235 24.5763L29.811 23.6916C29.8157 23.6633 29.8485 23.6398 29.8766 23.6492C30.425 23.7669 30.8375 23.5833 31.1047 23.0986C31.175 22.9716 31.1938 22.8304 31.1657 22.6704C30.8938 21.1645 30.6735 19.9269 30.5 18.9527C30.4954 18.9245 30.5141 18.8963 30.5422 18.8916C30.5422 18.8916 30.5469 18.8916 30.5516 18.8916V18.8963Z" fill="#E75100"/>
</g>
<circle cx="20" cy="20" r="19.5" stroke="black" stroke-opacity="0.05"/>
<defs>
<clipPath id="clip0_36945_75554">
<rect width="30" height="8" fill="white" transform="translate(5 17)"/>
</clipPath>
</defs>
</svg>
