<svg width="40" height="40" viewBox="0 0 40 40" fill="none" xmlns="http://www.w3.org/2000/svg">
<circle cx="20" cy="20" r="20" fill="#F6F8FA"/>
<g clip-path="url(#clip0_29332_48205)">
<path d="M4.14352 23.2568H2.99134C2.97563 23.2568 2.96289 23.2452 2.96289 23.2308V18.2893C2.96289 18.275 2.97563 18.2633 2.99134 18.2633H4.14352C4.15923 18.2633 4.17197 18.275 4.17197 18.2893V23.2308C4.17197 23.2452 4.15923 23.2568 4.14352 23.2568Z" fill="#2E3031"/>
<path d="M9.60946 23.2598H10.7794C10.7794 23.2598 10.8079 23.2468 10.8079 23.2338V18.2955C10.8079 18.2955 10.7936 18.2695 10.7794 18.2695H9.60946C9.60946 18.2695 9.58101 18.2825 9.58101 18.2955V20.2188C9.58101 20.2188 9.56679 20.2448 9.55256 20.2448H4.21839C4.21839 20.2448 4.18994 20.2578 4.18994 20.2708C4.18994 20.2773 4.18994 20.2838 4.19705 20.2871L5.03985 21.265C5.03985 21.265 5.05408 21.2747 5.06475 21.2747H9.55256C9.55256 21.2747 9.58101 21.2877 9.58101 21.3007V23.2305C9.58101 23.2305 9.59523 23.2565 9.60946 23.2565V23.2598Z" fill="#2E3031"/>
<path d="M13.496 20.0142C13.496 20.0142 13.5031 19.9979 13.5137 19.9979C13.5173 19.9979 13.5209 19.9979 13.5244 20.0012C13.8018 20.2188 14.7762 20.9856 16.4582 22.3046C16.6574 22.4606 16.8636 22.506 17.077 22.4378C17.1659 22.4086 17.3188 22.3111 17.5393 22.1422C18.3643 21.5119 19.6552 20.5242 21.4083 19.1857C21.4617 19.1435 21.4866 19.1272 21.5612 19.1272C23.8763 19.1272 25.5192 19.1272 26.49 19.1272C26.6287 19.1272 26.7603 19.137 26.8883 19.1565C27.1834 19.1987 27.411 19.3839 27.4395 19.6698C27.4573 19.8225 27.4288 20.0174 27.3008 20.1149C27.1586 20.2253 26.9452 20.2546 26.7638 20.2546C26.0313 20.2546 24.4488 20.2546 22.02 20.2546C21.6928 20.2546 21.4225 20.3163 21.1843 20.5112C20.946 20.7029 20.8251 20.9531 20.8216 21.265C20.8216 21.2715 20.8287 21.278 20.8358 21.278C22.6458 21.278 24.623 21.278 26.7603 21.278C27.0341 21.278 27.2368 21.265 27.3613 21.239C27.564 21.1968 27.7524 21.122 27.9231 21.0148C28.5561 20.6152 28.7944 19.9654 28.6059 19.2929C28.4921 18.8836 28.2289 18.5912 27.82 18.419C27.5888 18.3215 27.3399 18.2728 27.0697 18.2695C26.5469 18.2695 24.463 18.2663 20.8251 18.2663C20.7824 18.2663 20.722 18.2825 20.6473 18.3118C20.5655 18.3443 20.4659 18.4092 20.3415 18.5099C19.8258 18.9193 18.6808 19.8225 16.9027 21.2195C16.8921 21.2292 16.8778 21.2292 16.8672 21.2195C14.6837 19.5009 13.5564 18.6172 13.4853 18.5619C13.2577 18.3832 13.0586 18.2728 12.7421 18.2695C12.518 18.2663 12.3722 18.3573 12.3011 18.5424C12.2691 18.6269 12.2549 18.7211 12.2549 18.8283C12.2549 21.5249 12.2549 22.9999 12.2549 23.2533C12.2549 23.263 12.262 23.2695 12.2727 23.2695H13.4604C13.4604 23.2695 13.4889 23.2565 13.4889 23.2435V20.0207L13.496 20.0142Z" fill="#024F7E"/>
<path d="M28.6383 23.2307L27.831 22.2918C27.8061 22.2625 27.7706 22.2463 27.7314 22.2463H20.8397C20.8397 22.2463 20.8184 22.2561 20.8184 22.2658C20.8184 22.2658 20.8184 22.269 20.8184 22.2723C20.9464 22.6817 21.2273 22.9708 21.654 23.1365C21.8532 23.2145 22.0843 23.2535 22.3439 23.2535C26.0672 23.2632 28.1368 23.2632 28.5529 23.2567C28.5778 23.2567 28.6062 23.2567 28.6311 23.2502C28.6383 23.2502 28.6454 23.2437 28.6418 23.234C28.6418 23.234 28.6418 23.2307 28.6418 23.2275L28.6383 23.2307Z" fill="#024F7E"/>
<path d="M30.0749 22.282C30.1745 22.3665 30.2598 22.4802 30.3736 22.5744C30.8181 22.961 31.348 23.1852 31.9668 23.2469C32.0663 23.2566 32.2655 23.2631 32.5677 23.2599C35.3949 23.2599 36.8529 23.2599 36.9418 23.2599C36.9524 23.2599 36.9595 23.2534 36.9595 23.2437V22.2657C36.9595 22.2657 36.9524 22.2463 36.9382 22.2463C32.4931 22.2463 30.2421 22.2463 30.1816 22.2463C30.1389 22.2463 30.1034 22.2527 30.0749 22.2592C30.0678 22.2592 30.0642 22.2657 30.0678 22.2722C30.0678 22.2722 30.0678 22.2722 30.0678 22.2755L30.0749 22.282Z" fill="#2E3031"/>
<path d="M30.9281 20.0501C31.2161 19.5953 31.746 19.3191 32.3185 19.3191C34.2068 19.3191 35.7537 19.3191 36.9521 19.3191C36.9592 19.3191 36.9628 19.3159 36.9628 19.3094V18.2925C36.9628 18.2925 36.9486 18.2665 36.9343 18.2665C35.1527 18.2665 33.6023 18.2665 32.2936 18.2665C31.7958 18.2665 31.337 18.3802 30.9209 18.6076C29.9039 19.1567 29.3883 20.2093 29.6123 21.2717C29.6123 21.2814 29.6194 21.2847 29.6301 21.2847H30.7858C30.7858 21.2847 30.8036 21.2782 30.8 21.2652C30.6578 20.8266 30.7005 20.4237 30.9316 20.0533L30.9281 20.0501Z" fill="#2E3031"/>
</g>
<circle cx="20" cy="20" r="19.5" stroke="black" stroke-opacity="0.05"/>
<defs>
<clipPath id="clip0_29332_48205">
<rect width="34" height="6" fill="white" transform="matrix(1 0 0 -1 2.96289 24.2632)"/>
</clipPath>
</defs>
</svg>
