<svg width="40" height="40" viewBox="0 0 40 40" fill="none" xmlns="http://www.w3.org/2000/svg">
<circle cx="20" cy="20" r="20" fill="#F6F8FA"/>
<path d="M28.1538 13.803C27.2415 13.5834 26.51 13.6028 25.9992 14.5309C24.7723 16.7494 23.4564 19.01 22.0515 21.3126C22.048 21.3184 22.0434 21.3234 22.038 21.3274C22.0325 21.3313 22.0264 21.3342 22.0198 21.3358C22.0133 21.3374 22.0065 21.3376 21.9999 21.3366C21.9932 21.3355 21.9868 21.3331 21.9811 21.3296C21.974 21.3251 21.9681 21.3188 21.9641 21.3114L15.0926 9.2159C15.0903 9.21194 15.0888 9.20755 15.0882 9.203C15.0876 9.19844 15.0879 9.19381 15.0892 9.18939C15.0904 9.18496 15.0925 9.18084 15.0954 9.17726C15.0983 9.17369 15.1019 9.17074 15.106 9.16858C16.307 8.70757 16.9355 9.24987 17.4717 10.2374C18.951 12.9606 20.4396 15.6244 21.9374 18.2287C21.9433 18.2386 21.9528 18.2459 21.9639 18.2488C21.9751 18.2518 21.9869 18.2502 21.9969 18.2445C22.0035 18.2408 22.009 18.2353 22.0127 18.2287C23.0641 16.472 24.0836 14.7169 25.0711 12.9634C25.3817 12.4094 25.8876 12.132 26.5888 12.1312C27.9751 12.1312 29.4236 12.1312 30.9345 12.1312C30.9963 12.1312 31.0109 12.1579 30.9806 12.2113L23.9344 24.3019C23.921 24.325 23.904 24.3274 23.8834 24.3104C23.0455 23.6359 22.9052 22.8392 23.4624 21.9204C25.2199 19.0241 26.7902 16.3333 28.1732 13.8479C28.1772 13.8409 28.1783 13.8327 28.1763 13.825C28.1742 13.8173 28.1692 13.8107 28.1623 13.8066L28.1538 13.803Z" fill="#7F5DA7"/>
<path d="M12.7145 13.7653C12.6881 13.7766 12.6642 13.7931 12.6442 13.8137C12.6242 13.8343 12.6084 13.8587 12.5978 13.8854C12.5872 13.9121 12.582 13.9406 12.5825 13.9693C12.5829 13.9981 12.589 14.0264 12.6005 14.0528C12.6038 14.0612 12.6078 14.0694 12.6126 14.0771L22.0088 30.1822C22.014 30.1922 22.0152 30.2039 22.012 30.2147C22.0089 30.2256 22.0016 30.2348 21.9918 30.2404C21.985 30.2422 21.9779 30.2422 21.9712 30.2404C20.4555 30.2291 18.8824 30.2291 17.2518 30.2404C16.9401 30.2404 16.7265 30.0427 16.5773 29.7842C14.0563 25.4168 11.5846 21.1872 9.16229 17.0955C8.72918 16.3676 9.26056 15.6724 9.61966 15.0585C9.62316 15.0526 9.62779 15.0475 9.63328 15.0434C9.63878 15.0393 9.64503 15.0363 9.65167 15.0346C9.65832 15.0329 9.66524 15.0325 9.67203 15.0335C9.67882 15.0345 9.68535 15.0368 9.69124 15.0403C9.69845 15.0451 9.70463 15.0513 9.70944 15.0585C12.2588 19.3128 14.7397 23.5683 17.1524 27.8249C17.5879 28.5917 18.2442 28.9605 19.1311 28.6232C19.1481 28.6169 19.1629 28.6057 19.1737 28.591C19.1845 28.5764 19.1908 28.5589 19.1917 28.5407C19.1969 28.4251 19.1674 28.3106 19.1068 28.212C15.9938 22.8739 12.8848 17.5456 9.7798 12.2269C9.77784 12.2238 9.77653 12.2202 9.77595 12.2166C9.77538 12.2129 9.77555 12.2091 9.77645 12.2055C9.77736 12.2019 9.77898 12.1985 9.78122 12.1955C9.78346 12.1925 9.78628 12.19 9.78951 12.1881C9.79428 12.1869 9.79929 12.1869 9.80407 12.1881H13.7979C14.3511 12.1881 14.8412 12.0037 15.1834 12.5945C17.5903 16.7582 20.0167 20.9069 22.4625 25.0407C22.6623 25.3787 22.7739 25.6311 22.7973 25.7977C22.8701 26.306 22.4237 26.8896 22.1835 27.3542C22.1801 27.3608 22.1755 27.3666 22.1699 27.3713C22.1643 27.3761 22.1578 27.3796 22.1508 27.3818C22.1437 27.3839 22.1364 27.3846 22.129 27.3838C22.1217 27.3831 22.1147 27.3808 22.1082 27.3773C22.099 27.3724 22.091 27.3653 22.0852 27.3567C19.5561 23.1372 17.0868 18.9003 14.6775 14.6461C14.4348 14.2081 14.0502 13.7447 13.5225 13.6755C13.25 13.6312 12.9706 13.6622 12.7145 13.7653Z" fill="#18B596"/>
<circle cx="20" cy="20" r="19.5" stroke="black" stroke-opacity="0.05"/>
</svg>
