<svg width="40" height="40" viewBox="0 0 40 40" fill="none" xmlns="http://www.w3.org/2000/svg">
<circle cx="20" cy="20" r="20" fill="#F6F8FA"/>
<g clip-path="url(#clip0_22307_36293)">
<path d="M25.8826 20.736L25.2974 23.7512C25.2974 23.7512 25.282 23.7768 25.2666 23.7768H23.8381C23.8381 23.7768 23.8188 23.7695 23.8188 23.7585L25.255 17.022C25.255 17.022 25.2666 17 25.282 17H25.3436C25.3436 17 25.3705 17.0037 25.3744 17.0146L27.9849 21.2995C27.9849 21.2995 27.9964 21.3068 28.0003 21.3032C28.0003 21.3032 28.0003 21.3032 28.0041 21.2995L30.4491 17.022C30.4491 17.022 30.4683 17.0037 30.4837 17.0037H30.5761C30.5761 17.0037 30.6069 17.011 30.6069 17.0293L32.0392 23.7622C32.0392 23.7622 32.0354 23.7804 32.0277 23.7804H30.5261C30.5261 23.7804 30.503 23.7731 30.4991 23.7585L29.8831 20.7982C29.8792 20.7799 29.8715 20.7799 29.8638 20.7982L28.0234 23.9671C28.0003 24.0037 27.9502 24.0183 27.9117 23.9963C27.9002 23.989 27.8886 23.978 27.8809 23.9671L25.9173 20.7397C25.9057 20.7177 25.8942 20.7177 25.8903 20.7433L25.8826 20.736Z" fill="#131210"/>
<path d="M15.8604 17.2048H14.3319C14.3255 17.2048 14.3203 17.2097 14.3203 17.2158V18.5148C14.3203 18.5209 14.3255 18.5258 14.3319 18.5258H15.8604C15.8668 18.5258 15.872 18.5209 15.872 18.5148V17.2158C15.872 17.2097 15.8668 17.2048 15.8604 17.2048Z" fill="#EC1F28"/>
<path d="M9.22994 18.5112H7.05837C7.05837 18.5112 7.04297 18.5039 7.04297 18.4965V17.2378C7.04297 17.2378 7.05067 17.2231 7.05837 17.2231H13.0879C13.0879 17.2231 13.1033 17.2305 13.1033 17.2378V18.4965C13.1033 18.4965 13.0956 18.5112 13.0879 18.5112H10.9087C10.9087 18.5112 10.8933 18.5148 10.8933 18.5258V23.7621C10.8933 23.7621 10.8894 23.7767 10.8817 23.7767H9.26074C9.26074 23.7767 9.24534 23.7694 9.24534 23.7621V18.5222C9.24534 18.5222 9.23764 18.5075 9.22994 18.5075V18.5112Z" fill="#131210"/>
<path d="M20.7232 22.5692C21.5125 22.3899 21.6973 21.6142 21.6973 20.9409C21.6973 19.7846 21.6973 18.5514 21.6973 17.2414C21.6973 17.2341 21.705 17.2268 21.7127 17.2268H23.1219C23.1219 17.2268 23.1335 17.2305 23.1335 17.2378C23.1335 18.5112 23.1335 19.7809 23.1335 21.0543C23.1335 21.4934 23.0603 21.9215 22.9178 22.335C22.5829 23.3047 21.7743 23.8463 20.7309 23.967C20.3266 24.0146 19.9339 24.0109 19.5527 23.956C18.5247 23.806 17.8354 23.2864 17.4889 22.4009C17.2964 21.9106 17.2464 21.3873 17.2502 20.8494C17.2502 19.5687 17.2502 18.3612 17.2502 17.2378C17.2502 17.2305 17.2541 17.2268 17.2618 17.2268H18.8904C18.8904 17.2268 18.902 17.2341 18.902 17.2378C18.902 18.5295 18.902 19.7955 18.902 21.036C18.902 21.2556 18.9328 21.4751 18.9982 21.6947C19.1561 22.2399 19.5142 22.5436 20.0802 22.6058C20.2996 22.6277 20.5114 22.6168 20.7193 22.5692H20.7232Z" fill="#131210"/>
<path d="M15.8566 19.2869H14.3396C14.3311 19.2869 14.3242 19.2934 14.3242 19.3015V23.773C14.3242 23.7811 14.3311 23.7876 14.3396 23.7876H15.8566C15.8651 23.7876 15.872 23.7811 15.872 23.773V19.3015C15.872 19.2934 15.8651 19.2869 15.8566 19.2869Z" fill="#131210"/>
</g>
<circle cx="20" cy="20" r="19.5" stroke="black" stroke-opacity="0.05"/>
<defs>
<clipPath id="clip0_22307_36293">
<rect width="25" height="8" fill="white" transform="translate(7.04297 17)"/>
</clipPath>
</defs>
</svg>
