<svg width="40" height="40" viewBox="0 0 40 40" fill="none" xmlns="http://www.w3.org/2000/svg">
<circle cx="20" cy="20" r="20" fill="#F6F8FA"/>
<g clip-path="url(#clip0_18005_40010)">
<path d="M8.68709 19.8845L5 26.2709H12.3723L8.68709 19.8845Z" fill="#127E3B"/>
<path d="M5 13.5H12.3723L16.0594 19.8845L5 13.5Z" fill="#5BB531"/>
<path d="M5 13.5L16.0594 19.8845L12.3723 26.271L5 13.5Z" fill="#22A439"/>
<path d="M30.8243 22.6235H29.7668V17.1475H30.8243C32.4398 17.1475 33.1919 18.041 33.1919 19.8205C33.1919 21.6489 32.4379 22.6235 30.8243 22.6235ZM30.8752 15.7356H27.9082V24.0297H30.8752C33.5972 24.0297 34.9996 22.6084 34.9996 19.8148C34.9996 17.0514 33.5972 15.73 30.8752 15.73" fill="#123479"/>
<path d="M24.4857 15.7356V20.4444L23.6262 18.9552H21.0908V15.7356H19.2529V24.0353H21.0908V20.5612H24.4857V24.0353H26.3349V15.7356H24.4857Z" fill="#123479"/>
</g>
<circle cx="20" cy="20" r="19.5" stroke="black" stroke-opacity="0.05"/>
<defs>
<clipPath id="clip0_18005_40010">
<rect width="30" height="12.771" fill="white" transform="translate(5 13.5)"/>
</clipPath>
</defs>
</svg>
