<svg width="40" height="40" viewBox="0 0 40 40" fill="none" xmlns="http://www.w3.org/2000/svg">
<circle cx="20" cy="20" r="20" fill="#062242"/>
<path d="M11.6997 30.6068C11.8104 30.6068 12.0229 30.5961 12.1285 30.5636C12.5431 30.4367 12.817 30.0622 12.8594 29.5913C12.8848 29.3036 12.8693 29.017 12.8696 28.7298C12.8716 26.7719 12.8754 24.8139 12.881 22.856C12.881 22.6877 12.881 22.6872 13.0483 22.6869C13.4038 22.6869 13.7592 22.6905 14.1146 22.6846C14.2256 22.6829 14.2614 22.7204 14.2614 22.8301C14.2591 25.012 14.2614 27.1936 14.2576 29.3755C14.2608 29.6847 14.218 29.9928 14.1306 30.2894C14.1291 30.2948 14.1273 30.3001 14.1258 30.3054C13.8922 31.0478 13.19 31.5809 12.4174 31.6571C12.4174 31.6571 11.9698 31.6795 11.7124 31.6604L11.6997 30.6068Z" fill="white"/>
<path d="M7.00056 11.4055C7.15568 11.4482 7.27983 11.5535 7.41464 11.6388C8.00517 12.0126 8.60332 12.3698 9.25707 12.6257C9.998 12.9147 10.7732 13.1068 11.5633 13.1972C12.1711 13.2683 12.7794 13.2629 13.3872 13.236C13.6734 13.2233 13.96 13.1852 14.2466 13.1791C15.6476 13.1459 16.8672 13.5392 17.7517 14.7012C18.1646 15.2432 18.5817 15.782 19.0829 16.2481C19.4773 16.6196 19.9076 16.9513 20.3673 17.2382C20.3926 17.2535 20.4198 17.2654 20.4307 17.2941C20.4112 17.3301 20.385 17.3152 20.3642 17.3058C19.9935 17.1402 19.6117 16.9998 19.2555 16.8026C18.7223 16.507 18.2958 16.0838 17.8825 15.6469C17.621 15.3704 17.379 15.0751 17.1137 14.8025C16.5407 14.2135 15.8342 13.9098 15.0182 13.8377C14.4883 13.7908 13.9636 13.8395 13.4365 13.8768C12.9007 13.916 12.3627 13.9148 11.8271 13.8733C11.1102 13.8168 10.4022 13.6778 9.71711 13.4589C9.35913 13.3426 9.00877 13.2041 8.66806 13.0441C8.62287 13.0233 8.58047 12.9933 8.49923 12.9915C9.09255 13.9616 9.80216 14.7941 10.7702 15.3831C11.7436 15.9757 12.8086 16.1902 13.9519 16.1277C13.8742 16.2072 13.7584 16.2433 13.5472 16.277C12.3676 16.4654 11.2899 16.1767 10.2848 15.5705C9.26773 14.9568 8.52436 14.0769 7.90235 13.0824C7.60353 12.6046 7.35828 12.0979 7.09551 11.6005C7.07012 11.5523 7.04042 11.5061 7.00614 11.4532C7.00085 11.4379 6.99894 11.4216 7.00056 11.4055Z" fill="white"/>
<path d="M32.9982 8.05878C32.7471 8.3411 32.5285 8.63713 32.2987 8.92402C31.4372 9.99997 30.5775 11.0772 29.7195 12.1557C29.3085 12.6713 28.899 13.1882 28.4846 13.7013C28.4191 13.7826 28.4174 13.8384 28.4862 13.9174C28.6366 14.0851 28.7531 14.2802 28.8294 14.4922C28.9416 14.8184 29.1559 15.0609 29.4134 15.2726C29.6637 15.4811 29.9001 15.7056 30.1212 15.9449C30.1841 16.0135 30.2403 16.0879 30.2893 16.1671C30.3944 16.3331 30.4324 16.5027 30.3299 16.6921C30.2177 16.9003 30.1301 17.1237 29.9841 17.311C29.7899 17.5619 29.654 17.6091 29.3385 17.5274C29.0054 17.4408 28.75 17.191 28.4402 17.0196C28.5039 16.9602 28.5522 16.9942 28.5979 16.996C28.8213 17.0061 29.0295 17.0721 29.2298 17.1666C29.2606 17.1806 29.2923 17.1928 29.3245 17.2031C29.5174 17.2699 29.5796 17.2496 29.6728 17.0678C29.7459 16.9249 29.7998 16.7726 29.8759 16.6311C29.9366 16.5182 29.8985 16.44 29.8201 16.3623C29.6218 16.1718 29.4128 15.9927 29.1943 15.8258C29.0813 15.737 28.9658 15.6509 28.8538 15.5608C28.6301 15.3808 28.4407 15.1706 28.3295 14.9027C28.1747 14.5247 27.915 14.1987 27.5811 13.9633C27.4869 13.8961 27.4902 13.8473 27.5643 13.764C28.0815 13.1827 28.5943 12.5962 29.1084 12.0123C29.1158 12.0039 29.1219 11.9945 29.1387 11.9719C28.4712 12.4327 27.8715 12.958 27.2114 13.3997L27.186 13.3685C29.1117 11.5817 31.0387 9.79272 32.9672 8.00166C33.0236 7.9915 32.9878 8.0301 32.9982 8.05878Z" fill="#FB1428"/>
<path d="M23.9455 24.7263V25.7948C24.0356 25.7966 24.0546 25.7484 24.0821 25.7141C24.8584 24.7372 25.6343 23.7599 26.4097 22.7823C26.4533 22.7269 26.4955 22.6853 26.5749 22.6858C27.0319 22.6888 27.4889 22.6873 27.9459 22.6876C27.9619 22.6853 27.9782 22.6872 27.9933 22.6929C28.0084 22.6986 28.0218 22.708 28.0322 22.7203C27.938 22.8422 27.8428 22.9681 27.7448 23.092C27.0179 24.0109 26.2901 24.9291 25.5614 25.8466C25.4937 25.9314 25.4937 25.9878 25.5698 26.0711C26.5481 27.1374 27.5241 28.205 28.4979 29.2741C28.5971 29.3827 28.6951 29.4927 28.7903 29.5983C28.7743 29.649 28.7396 29.6361 28.7142 29.6364C28.198 29.6364 27.6819 29.6343 27.1655 29.6364C27.0804 29.6364 27.0253 29.6033 26.97 29.5432C26.0127 28.5048 25.0544 27.4668 24.095 26.4293C24.0582 26.3897 24.0249 26.3465 23.9775 26.2902C23.9501 26.3572 23.9388 26.4297 23.9447 26.5019C23.9508 27.1955 23.9371 27.8894 23.9546 28.5838C23.9622 28.8965 23.947 29.2098 23.9457 29.5231C23.9457 29.6018 23.9203 29.6384 23.8368 29.6379C23.456 29.6353 23.0752 29.6338 22.6943 29.6379C22.5773 29.6379 22.5798 29.5716 22.5798 29.4901C22.5809 28.5761 22.5809 27.6622 22.5798 26.7482C22.5798 25.4535 22.5798 24.1587 22.5798 22.8638C22.5798 22.6873 22.5798 22.686 22.7512 22.686C23.111 22.686 23.4705 22.686 23.8302 22.686C23.8998 22.686 23.9516 22.6881 23.9508 22.7846C23.947 23.4279 23.947 24.0707 23.9455 24.7263Z" fill="white"/>
<path d="M19.4664 29.6356H16.2294C16.0552 29.6356 16.0547 29.6356 16.0547 29.4614C16.0547 27.2611 16.0547 25.0608 16.0547 22.8605C16.0547 22.6878 16.0547 22.6873 16.2301 22.687C16.5729 22.687 16.9156 22.6926 17.2581 22.6843C17.3886 22.681 17.4216 22.7244 17.4213 22.8505C17.4178 24.687 17.417 26.5234 17.4191 28.3598C17.4191 28.5548 17.4191 28.555 17.61 28.555H20.6058C20.7858 28.555 20.7896 28.5589 20.7899 28.7404C20.7899 28.9859 20.785 29.2314 20.7919 29.4766C20.7952 29.5957 20.7597 29.6404 20.6345 29.6381C20.2493 29.6313 19.8642 29.6356 19.4664 29.6356Z" fill="white"/>
<path d="M27.0866 20.2126C26.5694 20.5863 26.0129 20.664 25.396 20.4863C25.4767 20.4375 25.557 20.4385 25.6245 20.4408C26.232 20.4606 26.672 20.1438 27.0742 19.7406C27.3308 19.4834 27.5786 19.2161 27.8749 19.0008C28.1161 18.8256 28.3733 18.6829 28.6619 18.5996C29.0743 18.4806 29.3837 18.5743 29.6541 18.9101C29.9141 19.2331 30.1733 19.5568 30.4272 19.8845C30.7225 20.2654 31.0091 20.6533 31.3044 21.0346C31.4945 21.2801 31.5329 21.5424 31.4313 21.8336C31.2584 22.3236 31.1365 22.8304 30.9548 23.3178C30.9393 23.36 30.9355 23.4097 30.8766 23.4465C30.7478 23.3349 30.6289 23.2124 30.5211 23.0804C30.2976 22.8086 30.1345 22.4922 30.0426 22.1525C29.9791 21.924 30.0865 21.7552 30.2106 21.5711C30.0837 22.0596 30.4031 22.35 30.6697 22.6922C30.742 22.4993 30.7539 22.3211 30.8017 22.1517C30.8476 21.9892 30.8796 21.8229 30.9286 21.6615C30.9611 21.5543 30.9484 21.4698 30.8778 21.3804C30.51 20.9163 30.1469 20.4487 29.7821 19.9823C29.6023 19.7523 29.4266 19.5184 29.2418 19.2935C29.057 19.0686 28.9151 19.0366 28.6421 19.1546C28.4122 19.2524 28.1945 19.3768 27.9935 19.5253C27.6921 19.75 27.3935 19.9798 27.0866 20.2126Z" fill="white"/>
<path d="M20.3106 18.1068C19.9993 18.3282 19.765 18.5953 19.6365 18.9525C19.294 19.9036 18.5413 20.3359 17.6121 20.5446C17.2515 20.6256 16.8834 20.6345 16.5181 20.6716C15.9458 20.73 15.401 20.8599 14.9608 21.2674C14.7472 21.4657 14.5903 21.7056 14.4438 21.9529C14.4083 22.0136 14.3791 22.0799 14.3103 22.1238C14.326 21.9336 14.3474 21.7455 14.4047 21.5635C14.6332 20.8391 15.1491 20.4146 15.8498 20.1874C16.2672 20.0546 16.7032 20.0292 17.1335 19.9698C17.6534 19.8977 18.149 19.7558 18.5829 19.4412C18.8063 19.2784 18.9853 19.0622 19.1036 18.8124C19.5152 17.9657 20.225 17.5615 21.1258 17.4285C21.547 17.3663 21.9593 17.4414 22.3744 17.4848C22.3919 17.4908 22.4084 17.4993 22.4234 17.5102C22.3769 17.561 22.3234 17.5437 22.2769 17.5463C21.73 17.5765 21.19 17.6372 20.6899 17.8852C20.5574 17.9482 20.4305 18.0223 20.3106 18.1068Z" fill="white"/>
<path d="M26.3974 12.9659C26.3294 13.2406 26.4863 13.4328 26.631 13.6397C26.383 13.6062 26.2812 13.4731 26.1047 12.976C26.0255 13.0321 25.9986 13.1154 25.9778 13.1984C25.9364 13.3652 25.9247 13.5338 25.9922 13.6968C26.0341 13.7984 25.9953 13.8362 25.8998 13.8677C25.3377 14.0535 24.7766 14.2432 24.2496 14.5171C23.2922 15.0152 22.4856 15.6893 21.857 16.572C21.7293 16.7508 21.6175 16.9404 21.5229 17.1387C21.4878 17.2128 21.4612 17.2943 21.3812 17.3629C21.3424 17.2106 21.3698 17.0745 21.4122 16.946C21.6445 16.2415 22.0004 15.6093 22.5211 15.0751C23.2828 14.2945 24.2021 13.7913 25.2542 13.5234C25.3519 13.498 25.4027 13.4571 25.4174 13.3515C25.4916 12.8219 25.8237 12.5163 26.3078 12.3492C26.4162 12.3116 26.5193 12.2522 26.6617 12.239C26.5559 12.4888 26.4071 12.6975 26.3974 12.9659Z" fill="white"/>
<path d="M15.424 18.3283C14.8798 18.4871 14.3117 18.5484 13.7461 18.5093C12.8433 18.4506 11.9958 18.2237 11.2923 17.6116C10.9389 17.3038 10.731 16.9085 10.602 16.4658C10.5998 16.4471 10.5998 16.4283 10.602 16.4097C10.6591 16.4153 10.6812 16.4604 10.7056 16.4932C11.2558 17.2482 12.0324 17.6065 12.9245 17.7626C13.8342 17.9208 14.7421 17.9231 15.6378 17.6806C16.0186 17.5773 16.3994 17.4889 16.7968 17.509C17.1395 17.526 17.4414 17.6537 17.7488 17.8423C17.6219 17.8814 17.5231 17.839 17.4246 17.8268C16.9557 17.7692 16.5195 17.8888 16.0938 18.0645C15.8747 18.1541 15.6629 18.2615 15.424 18.3283Z" fill="white"/>
<path d="M10.0277 22.0206C9.4466 22.1539 8.94518 21.9772 8.48921 21.654C7.95453 21.2757 7.69354 20.7482 7.70547 20.0901C7.70707 20.0702 7.71013 20.0504 7.71461 20.0309C7.76386 20.0264 7.76361 20.0601 7.77097 20.0881C7.98271 20.9101 8.525 21.3719 9.34505 21.5291C9.56136 21.5705 9.77335 21.5418 9.98306 21.4804C10.3839 21.3631 10.7508 21.1724 11.1093 20.9632C11.4959 20.738 11.9108 20.6027 12.3599 20.5958C13.1843 20.5831 13.9106 21.0663 14.1201 21.8343C14.1455 21.928 14.198 22.0171 14.1866 22.1234C14.1358 22.1151 14.1295 22.078 14.117 22.0491C13.7283 21.162 12.727 20.7926 11.7227 21.242C11.502 21.3407 11.2992 21.4717 11.0918 21.5938C10.7622 21.792 10.4029 21.9361 10.0277 22.0206Z" fill="white"/>
<path d="M28.2193 20.8612C27.8026 21.2322 27.4231 21.6323 26.9592 21.9347C26.4832 22.2452 26.1486 22.2419 25.6274 21.9237C25.0571 21.5754 24.5532 21.1291 23.9728 20.795C23.922 20.7653 23.8558 20.7495 23.8162 20.6757C23.9055 20.6701 23.9637 20.7168 24.0279 20.7412C24.6676 20.9852 25.2897 21.2733 25.8896 21.6033C26.1961 21.7717 26.4362 21.7557 26.7043 21.5272C27.1827 21.1235 27.647 20.7049 28.1078 20.2832C28.2137 20.1859 28.3167 20.0851 28.4277 19.9942C28.6562 19.8066 28.8953 19.7987 29.1386 19.9676C29.4918 20.2089 29.8043 20.5052 30.064 20.8453C30.1533 20.9638 30.2247 21.0935 30.2518 21.2431C30.26 21.2883 30.275 21.334 30.2287 21.3797C30.161 21.3484 30.1373 21.2753 30.0916 21.2251C29.8738 20.9849 29.6093 20.8023 29.3554 20.6048C29.2422 20.5165 29.1218 20.4362 29.0142 20.3415C28.9065 20.2468 28.8258 20.2608 28.7321 20.3568C28.5666 20.5261 28.3947 20.6894 28.2193 20.8612Z" fill="white"/>
<path d="M25.021 18.3927C25.022 17.9994 25.0996 17.6101 25.2495 17.2464C25.3338 17.0408 25.4879 16.8895 25.6722 16.7689C25.7634 16.7092 25.855 16.6506 25.9563 16.5848C25.708 16.2588 25.6311 15.9011 25.6788 15.5068C25.757 15.5152 25.7804 15.5652 25.8098 15.6036C25.9299 15.7617 26.0426 15.9255 26.1652 16.0814C26.377 16.3495 26.6377 16.4749 26.9883 16.3759C27.3946 16.2619 27.7124 16.4373 27.9952 16.7082C27.9993 16.712 27.9952 16.7237 27.9952 16.7453C27.8551 16.7379 27.7264 16.6838 27.5938 16.6521C27.4733 16.6232 27.3577 16.6204 27.2506 16.6861C26.819 16.9504 26.4006 16.9677 25.986 16.6135C25.8291 16.877 25.5887 17.0791 25.529 17.3848C25.4902 17.5798 25.5351 17.7824 25.5217 17.9789C25.5019 18.2648 25.6384 18.4379 25.8517 18.5976C26.069 18.7601 26.2414 18.9716 26.38 19.2069C26.5088 19.426 26.5192 19.6484 26.3925 19.8693C26.2879 20.0513 26.1675 20.223 26.002 20.371C25.9621 20.3156 25.986 20.272 25.9959 20.2303C26.0359 20.0705 26.0593 19.907 26.0657 19.7424C26.0677 19.6877 26.0585 19.6333 26.0388 19.5823C26.0191 19.5313 25.9892 19.4849 25.951 19.4458C25.7656 19.2404 25.5468 19.0739 25.3376 18.8957C25.1817 18.7644 25.0629 18.609 25.021 18.3927Z" fill="white"/>
<circle cx="20" cy="20" r="19.5" stroke="black" stroke-opacity="0.05"/>
</svg>
