<svg width="40" height="40" viewBox="0 0 40 40" fill="none" xmlns="http://www.w3.org/2000/svg">
<circle cx="20" cy="20" r="20" fill="#08005A"/>
<path d="M26.6018 20.1332C25.3036 20.1251 24.0096 20.1189 22.7195 20.1145C21.9666 20.1145 21.4404 20.0715 21.1407 19.9855C20.528 19.813 19.9774 19.4691 19.5537 18.9941C18.2892 17.6143 17.0227 16.251 15.7543 14.9042C15.5208 14.6595 15.252 14.4511 14.9568 14.286C14.4383 13.9914 13.8331 14.1026 13.571 14.6827C13.4962 14.8398 13.4537 15.0103 13.4461 15.1841C13.4217 16.3643 13.4109 18.007 13.4136 20.1121H9.03245C9.02385 20.1121 9.01559 20.1087 9.00951 20.1026C9.00342 20.0965 9 20.0883 9 20.0796C9 19.3386 9.00892 17.7465 9.02677 15.3034C9.02764 14.2359 9.30432 13.1867 9.82999 12.2576C10.5415 11.0041 11.6498 10.3518 13.0534 10.1084C14.867 9.79472 16.5334 10.1617 18.0528 11.2094C18.6026 11.5956 19.1087 12.0407 19.5619 12.5367C21.9034 15.0643 24.25 17.5964 26.6018 20.1332Z" fill="#0F8FFC"/>
<path d="M13.416 20.1121C14.9813 20.1229 16.5394 20.1305 18.0901 20.1348C19.0204 20.138 19.8504 20.5396 20.58 21.3396C21.6045 22.463 22.8025 23.7509 24.1742 25.2031C24.4496 25.498 24.7663 25.7514 25.1145 25.9552C25.3991 26.1208 25.6765 26.1424 25.947 26.0201C26.476 25.7816 26.5822 25.2705 26.5839 24.7383C26.5882 23.2238 26.5971 21.7117 26.6106 20.2021C26.6107 20.1862 26.6074 20.1704 26.6009 20.1559C26.5968 20.1453 26.5968 20.138 26.6009 20.1332H30.948C30.9539 20.1322 30.9599 20.1327 30.9656 20.1345C30.9713 20.1363 30.9765 20.1394 30.9808 20.1436C30.985 20.1478 30.9882 20.1529 30.9902 20.1586C30.9921 20.1642 30.9926 20.1702 30.9918 20.1762C31.0069 21.8323 30.9986 23.4729 30.9667 25.0977C30.9513 26.1151 30.6687 27.1106 30.1472 27.9844C29.6092 28.915 28.7349 29.6041 27.7043 29.9097C27.1286 30.0877 26.5321 30.19 25.9299 30.2139H25.2703C23.9239 30.0885 22.6445 29.5683 21.5926 28.7186C21.1268 28.3497 20.6926 27.9427 20.2944 27.5016C18.2613 25.29 16.2216 23.084 14.1754 20.8836C14.0764 20.7728 13.8233 20.5156 13.416 20.1121Z" fill="#0F8FFC"/>
<circle cx="20" cy="20" r="19.5" stroke="black" stroke-opacity="0.05"/>
</svg>
