<svg width="40" height="40" viewBox="0 0 40 40" fill="none" xmlns="http://www.w3.org/2000/svg">
<circle cx="20" cy="20" r="20" fill="#F6F8FA"/>
<circle cx="20" cy="20" r="19.5" stroke="black" stroke-opacity="0.05"/>
<g clip-path="url(#clip0_14382_18629)">
<path d="M8.68709 19.8846L5 26.271H12.3723L8.68709 19.8846Z" fill="#127E3B"/>
<path d="M5 13.5H12.3723L16.0594 19.8845L5 13.5Z" fill="#5BB531"/>
<path d="M5 13.5L16.0594 19.8845L12.3723 26.271L5 13.5Z" fill="#22A439"/>
<path d="M30.8247 22.6235H29.7672V17.1475H30.8247C32.4401 17.1475 33.1923 18.041 33.1923 19.8205C33.1923 21.6489 32.4383 22.6235 30.8247 22.6235ZM30.8756 15.7356H27.9086V24.0297H30.8756C33.5975 24.0297 35 22.6084 35 19.8148C35 17.0514 33.5975 15.73 30.8756 15.73" fill="#123479"/>
<path d="M24.4854 15.7356V20.4444L23.6258 18.9552H21.0905V15.7356H19.2526V24.0353H21.0905V20.5613H24.4854V24.0353H26.3346V15.7356H24.4854Z" fill="#123479"/>
</g>
<defs>
<clipPath id="clip0_14382_18629">
<rect width="30" height="12.771" fill="white" transform="translate(5 13.5)"/>
</clipPath>
</defs>
</svg>
