<svg width="40" height="40" viewBox="0 0 40 40" fill="none" xmlns="http://www.w3.org/2000/svg">
<circle cx="20" cy="20" r="20" fill="#060709"/>
<path d="M3.76366 21.9814C14.8023 21.9814 25.8332 21.9814 36.8641 21.9814C36.8849 21.9814 36.906 21.9837 36.9264 21.9809C36.9812 21.9734 36.9959 21.9957 36.9958 22.05C36.9951 22.4834 36.9967 22.9167 37 23.35C37.0004 23.4066 36.9897 23.4263 36.9265 23.4193C36.1193 23.3298 35.3105 23.2584 34.5001 23.2043C33.6873 23.1502 32.8744 23.0971 32.0607 23.056C31.0189 23.0033 29.9765 22.9648 28.9341 22.9288C27.8294 22.8906 26.7245 22.8611 25.6192 22.8413C22.9053 22.7926 20.1911 22.7785 17.4768 22.799C15.6839 22.8126 13.8912 22.8477 12.0988 22.8986C10.9005 22.9325 9.70243 22.9742 8.50496 23.0293C7.42936 23.0789 6.35461 23.1444 5.28071 23.224C4.54841 23.2782 3.81703 23.3417 3.0869 23.4193C3.01258 23.4272 2.99979 23.4028 3.00015 23.3366C3.00242 22.911 3.00248 22.4855 3.00001 22.0599C2.99965 21.9988 3.01618 21.9791 3.07853 21.98C3.30427 21.9834 3.53009 21.9814 3.76366 21.9814Z" fill="white"/>
<path d="M15.2503 18.9078C15.2301 18.4465 15.2405 17.9925 15.2419 17.5385C15.2421 17.486 15.2604 17.4734 15.31 17.4739C15.5357 17.4762 15.7614 17.4762 15.9871 17.474C16.0347 17.4735 16.0489 17.4875 16.0489 17.5354C16.0476 18.5291 16.0476 19.5228 16.049 20.5165C16.0491 20.5654 16.0346 20.5773 15.9877 20.5768C15.7645 20.5746 15.5414 20.5743 15.3183 20.5767C15.2543 20.5774 15.2118 20.5528 15.1756 20.5019C14.7564 19.9128 14.3153 19.3393 13.9204 18.733C13.9097 18.7167 13.8965 18.7019 13.8824 18.6836C13.8604 18.7146 13.8707 18.7435 13.8716 18.7699C13.8909 19.3432 13.8821 19.9166 13.8849 20.49C13.8852 20.5589 13.8657 20.5786 13.7973 20.5773C13.5821 20.5732 13.3667 20.5742 13.1513 20.577C13.1 20.5776 13.0865 20.5626 13.0864 20.5118C13.0837 19.5233 13.0796 18.5347 13.0742 17.5462C13.074 17.4953 13.083 17.473 13.1412 17.4736C13.398 17.4767 13.6549 17.4755 13.9117 17.4745C13.9571 17.4743 13.9904 17.489 14.0173 17.5267C14.3804 18.0353 14.7582 18.5334 15.1062 19.0528C15.1537 19.1237 15.1926 19.2003 15.2352 19.2745C15.2419 19.2862 15.2482 19.2969 15.2681 19.2929C15.2489 19.1681 15.2583 19.0414 15.2503 18.9078Z" fill="white"/>
<path d="M5.69529 17.0521C5.60607 17.2078 5.5166 17.357 5.43482 17.5102C5.40336 17.5691 5.37605 17.5711 5.32169 17.5416C5.11649 17.4305 4.89921 17.3578 4.66342 17.3478C4.5875 17.3446 4.51321 17.35 4.43976 17.3683C4.28852 17.4061 4.20683 17.5083 4.18282 17.6571C4.1596 17.801 4.23062 17.9048 4.34667 17.9752C4.47744 18.0546 4.61952 18.1132 4.75963 18.1747C4.97321 18.2684 5.18995 18.3551 5.38271 18.4909C5.92575 18.8734 6.04287 19.657 5.63065 20.1777C5.44083 20.4175 5.17664 20.5354 4.88798 20.598C4.47441 20.6877 4.06423 20.6673 3.66303 20.5246C3.50844 20.4696 3.36684 20.3888 3.22689 20.3047C3.18786 20.2812 3.18165 20.254 3.20519 20.2144C3.31781 20.0251 3.4307 19.8358 3.53969 19.6444C3.57051 19.5903 3.59577 19.619 3.62484 19.6389C3.84914 19.792 4.09885 19.8684 4.36835 19.883C4.51322 19.8909 4.65168 19.8649 4.78164 19.7974C4.99665 19.6859 5.00982 19.3723 4.83002 19.2588C4.7422 19.2034 4.65661 19.1463 4.56096 19.1054C4.29627 18.9922 4.03388 18.8744 3.79143 18.7172C3.38745 18.4554 3.19658 17.9761 3.29586 17.4747C3.38043 17.0475 3.74352 16.7121 4.2061 16.6243C4.65471 16.5392 5.08856 16.5714 5.50441 16.769C5.5698 16.8001 5.6298 16.8425 5.69529 16.8734C5.76287 16.9052 5.76757 16.945 5.72561 17.0002C5.71471 17.0145 5.70718 17.0314 5.69529 17.0521Z" fill="white"/>
<path d="M32.4381 18.3087C32.1568 18.5164 32.1072 18.8084 32.1246 19.1238C32.1332 19.2805 32.1677 19.4332 32.2461 19.5707C32.3728 19.793 32.5798 19.8873 32.8233 19.9154C32.9871 19.9344 33.1489 19.9204 33.3086 19.8767C33.3459 19.8665 33.3597 19.8528 33.3591 19.8146C33.3571 19.7005 33.3566 19.5862 33.3591 19.4721C33.3601 19.4261 33.3415 19.4151 33.2992 19.4157C33.1669 19.4177 33.0345 19.4151 32.9022 19.4172C32.856 19.4179 32.8374 19.4032 32.838 19.3548C32.8401 19.1862 32.8398 19.0175 32.8382 18.8489C32.8378 18.8058 32.852 18.7894 32.8963 18.7895C33.3141 18.7906 33.7318 18.7907 34.1495 18.7895C34.2037 18.7894 34.2218 18.8109 34.2216 18.8639C34.2204 19.3361 34.2202 19.8083 34.2219 20.2805C34.2221 20.3306 34.2007 20.3529 34.1592 20.3742C33.8692 20.5231 33.5611 20.607 33.2368 20.6255C32.8698 20.6464 32.506 20.6289 32.1575 20.4936C31.4969 20.2372 31.1069 19.6078 31.1709 18.902C31.2304 18.2455 31.6487 17.7304 32.3003 17.5293C32.7884 17.3787 33.2811 17.37 33.7704 17.5294C33.8806 17.5653 33.9854 17.6177 34.093 17.6619C34.1221 17.6739 34.1149 17.6942 34.1046 17.7125C33.9932 17.9117 33.8812 18.1106 33.7689 18.3094C33.7497 18.3434 33.7226 18.3348 33.6953 18.32C33.4176 18.1702 33.1206 18.1379 32.8123 18.1755C32.6797 18.1917 32.5529 18.2253 32.4381 18.3087Z" fill="white"/>
<path d="M36.9763 20.4446C36.9763 20.5743 36.9763 20.5743 36.852 20.5743C36.2112 20.5743 35.5703 20.5731 34.9295 20.5759C34.8574 20.5763 34.8397 20.5565 34.8399 20.4853C34.8423 19.5124 34.8423 18.5395 34.8398 17.5666C34.8397 17.4913 34.861 17.4714 34.9353 17.4717C35.5736 17.4745 36.2118 17.4743 36.85 17.4718C36.9178 17.4716 36.9403 17.4889 36.9384 17.5586C36.9336 17.7349 36.9335 17.9115 36.9381 18.0878C36.9398 18.155 36.9163 18.1692 36.8538 18.169C36.5036 18.1676 36.1533 18.1724 35.8031 18.1702C35.7337 18.1697 35.7133 18.1888 35.7173 18.2576C35.7241 18.374 35.7246 18.4911 35.7211 18.6077C35.7193 18.6685 35.7366 18.6873 35.7991 18.6866C36.1104 18.6835 36.4218 18.6872 36.7331 18.6836C36.7999 18.6829 36.8162 18.7045 36.8146 18.7675C36.8107 18.9257 36.8102 19.0841 36.8149 19.2423C36.8169 19.3093 36.7932 19.324 36.7303 19.3234C36.4216 19.3204 36.1129 19.3238 35.8041 19.3205C35.739 19.3199 35.7195 19.339 35.7211 19.4034C35.7245 19.5382 35.7237 19.6734 35.7171 19.808C35.7139 19.8757 35.738 19.8893 35.8007 19.8889C36.1639 19.8861 36.5272 19.8892 36.8903 19.886C36.9565 19.8854 36.9809 19.8981 36.9781 19.97C36.9721 20.1255 36.9763 20.2813 36.9763 20.4446Z" fill="white"/>
<path d="M16.8239 20.1027C16.8239 19.2492 16.8247 18.4035 16.8223 17.5578C16.8221 17.4891 16.8395 17.4714 16.9083 17.4717C17.5517 17.4745 18.1951 17.474 18.8384 17.4722C18.896 17.472 18.9209 17.4816 18.9193 17.5474C18.9145 17.7315 18.9152 17.9158 18.919 18.0999C18.9201 18.1589 18.9025 18.1738 18.8446 18.1733C18.4918 18.1707 18.1389 18.1742 17.7862 18.1702C17.7148 18.1694 17.6987 18.1912 17.7018 18.2579C17.7073 18.3744 17.7066 18.4914 17.702 18.608C17.6997 18.668 17.715 18.6875 17.7784 18.6868C18.0923 18.6834 18.4062 18.6867 18.7201 18.6839C18.7795 18.6834 18.8022 18.6967 18.8005 18.7606C18.7963 18.9239 18.7964 19.0875 18.8006 19.2508C18.8021 19.3116 18.7811 19.3236 18.7248 19.3232C18.4083 19.3206 18.0918 19.3235 17.7753 19.3205C17.7161 19.32 17.7003 19.3368 17.702 19.3948C17.7061 19.5348 17.7061 19.675 17.702 19.815C17.7003 19.8734 17.7174 19.8893 17.776 19.8889C18.1444 19.8862 18.5128 19.8893 18.8811 19.8859C18.9472 19.8853 18.9627 19.9047 18.9612 19.968C18.9569 20.1495 18.9582 20.3312 18.9607 20.5127C18.9614 20.5592 18.9506 20.5754 18.901 20.5753C18.2291 20.5737 17.5572 20.5735 16.8853 20.5754C16.8302 20.5756 16.8221 20.5544 16.823 20.5074C16.8255 20.3751 16.8239 20.2428 16.8239 20.1027Z" fill="white"/>
<path d="M6.5357 17.475C7.25965 17.475 7.97582 17.4758 8.69199 17.4736C8.75562 17.4734 8.77706 17.4891 8.77552 17.5552C8.7711 17.7445 8.77194 17.934 8.77471 18.1234C8.77551 18.1781 8.75819 18.1938 8.70403 18.1932C8.45236 18.1906 8.20061 18.1945 7.94898 18.1904C7.88178 18.1894 7.86185 18.2047 7.86212 18.2752C7.86492 19.0173 7.86258 19.7594 7.86567 20.5015C7.86598 20.5758 7.84319 20.59 7.77489 20.5888C7.53105 20.5844 7.28705 20.5839 7.0432 20.5876C6.97438 20.5886 6.95169 20.5737 6.952 20.4994C6.95507 19.7625 6.95259 19.0256 6.95573 18.2887C6.95606 18.2109 6.93904 18.188 6.85839 18.1899C6.60943 18.1958 6.36023 18.1908 6.11115 18.1931C6.06103 18.1936 6.04418 18.1805 6.04495 18.1283C6.04785 17.9312 6.04728 17.7339 6.04527 17.5368C6.04479 17.4896 6.05973 17.4732 6.10758 17.4741C6.24765 17.4766 6.3878 17.475 6.5357 17.475Z" fill="white"/>
<path d="M26.9305 17.5535C26.9305 18.5386 26.9297 19.5163 26.932 20.4939C26.9322 20.5644 26.9156 20.5859 26.8428 20.5845C26.5965 20.5798 26.3501 20.5812 26.1038 20.5838C26.0487 20.5844 26.0272 20.5733 26.0273 20.5119C26.0293 19.5239 26.0292 18.5359 26.0274 17.5479C26.0273 17.4893 26.044 17.4731 26.1019 17.4737C26.3534 17.4766 26.605 17.4765 26.8565 17.4737C26.9127 17.473 26.9411 17.4857 26.9305 17.5535Z" fill="white"/>
<path fill-rule="evenodd" clip-rule="evenodd" d="M12.0513 20.1474C12.6946 19.4732 12.6085 18.3296 11.913 17.7773C11.7901 17.6891 11.6656 17.6153 11.5293 17.5624C11.1072 17.3986 10.6774 17.3792 10.2381 17.4832C9.8509 17.5748 9.5325 17.7733 9.30515 18.0983C9.10394 18.3859 9.01209 18.7121 9.01756 19.0664C9.02762 19.7172 9.40525 20.2716 10.0124 20.5035C10.3974 20.6507 10.796 20.666 11.198 20.5918C11.5265 20.5311 11.8172 20.3928 12.0513 20.1474ZM9.98129 19.1847C10.0405 19.7135 10.4357 20.0071 10.9524 19.9011C11.2375 19.832 11.4042 19.6486 11.4854 19.3816C11.543 19.1923 11.5476 18.9972 11.5131 18.8044C11.4807 18.6231 11.4317 18.4471 11.2843 18.3146C11.109 18.1568 10.9025 18.1161 10.6777 18.132C10.3434 18.1558 10.1066 18.3522 10.0191 18.6758C9.97386 18.843 9.96204 19.0129 9.98129 19.1847Z" fill="white"/>
<path fill-rule="evenodd" clip-rule="evenodd" d="M28.0345 17.4753C27.9551 17.4763 27.8756 17.4772 27.7959 17.4779C27.7335 17.475 27.7367 17.5098 27.7395 17.5411C27.7401 17.5474 27.7407 17.5537 27.7407 17.5594C27.7404 17.887 27.7403 18.2146 27.7403 18.5422C27.7401 19.1951 27.74 19.8481 27.7384 20.501C27.7382 20.5659 27.7597 20.5759 27.8171 20.5755C28.1621 20.5731 28.5071 20.5734 28.8521 20.5746C29.0941 20.5754 29.3327 20.552 29.5675 20.4909C29.9356 20.3951 30.2519 20.2165 30.4696 19.8979C30.7551 19.4802 30.8064 19.0195 30.6836 18.5359C30.5987 18.2015 30.4081 17.9401 30.1127 17.7608C29.8506 17.6017 29.5606 17.5198 29.2577 17.4966C28.852 17.4655 28.4453 17.4704 28.0345 17.4753ZM29.5856 19.6507C29.7357 19.4939 29.7891 19.3 29.8033 19.0836C29.8075 18.9648 29.7968 18.8541 29.7763 18.7442C29.725 18.4692 29.5624 18.2969 29.2945 18.2219C29.1001 18.1675 28.901 18.1625 28.7009 18.1643C28.6477 18.1648 28.637 18.189 28.6371 18.2362C28.6383 18.7623 28.6386 19.2885 28.6367 19.8147C28.6365 19.8716 28.6591 19.8847 28.7101 19.885C28.8296 19.8858 28.9487 19.8815 29.0672 19.8682C29.2609 19.8466 29.4441 19.7983 29.5856 19.6507Z" fill="white"/>
<path fill-rule="evenodd" clip-rule="evenodd" d="M21.4925 17.5541C21.6959 17.6206 21.8697 17.7178 21.972 17.9094C22.161 18.2634 22.0713 18.8113 21.5644 18.9532C21.5549 18.9559 21.5457 18.9597 21.5335 18.9648C21.5267 18.9677 21.5189 18.9709 21.5097 18.9746C21.5187 18.9779 21.5266 18.9813 21.5337 18.9844L21.5337 18.9844C21.5472 18.9902 21.558 18.9949 21.5693 18.9963C21.9884 19.0491 22.3188 19.5103 22.1381 20.0063C22.0493 20.2497 21.8596 20.3855 21.6284 20.4737C21.4772 20.5314 21.3186 20.5578 21.1579 20.5668C20.7939 20.5872 20.4296 20.5862 20.0653 20.5852C19.9471 20.5848 19.8289 20.5845 19.7106 20.5849C19.6607 20.585 19.6503 20.5669 19.6504 20.5215C19.6514 19.5278 19.6512 18.5341 19.6508 17.5404C19.6508 17.5025 19.654 17.4765 19.7037 17.4765C19.8281 17.4764 19.9524 17.4753 20.0768 17.4741C20.453 17.4705 20.8292 17.467 21.2051 17.4944C21.3011 17.5015 21.3947 17.5235 21.4925 17.5541ZM20.8885 19.9434L20.8006 19.9431C20.7325 19.9428 20.667 19.9425 20.6015 19.944C20.5544 19.9452 20.5311 19.9344 20.5319 19.8798C20.5345 19.6987 20.5334 19.5174 20.5313 19.3362C20.5308 19.2931 20.5429 19.2772 20.5881 19.2783C20.6483 19.2797 20.7084 19.2794 20.7686 19.2792C20.8353 19.2789 20.902 19.2786 20.9686 19.2805C21.1838 19.2869 21.3314 19.4491 21.3119 19.6533C21.2993 19.7844 21.1779 19.9044 21.0272 19.9313C20.9964 19.9368 20.9649 19.9387 20.9307 19.9407C20.9171 19.9415 20.9031 19.9423 20.8885 19.9434ZM20.7022 18.7249C20.782 18.7254 20.8628 18.7259 20.9461 18.7133C21.0815 18.6732 21.186 18.6086 21.2024 18.4602C21.2247 18.2592 21.1033 18.112 20.9004 18.0977C20.8378 18.0933 20.775 18.0936 20.7121 18.0938C20.6688 18.094 20.6255 18.0941 20.5823 18.0928C20.5379 18.0914 20.5322 18.113 20.5324 18.1496C20.5333 18.323 20.5339 18.4964 20.5313 18.6697C20.5306 18.7166 20.55 18.7268 20.5911 18.7256C20.628 18.7245 20.665 18.7247 20.7022 18.7249Z" fill="white"/>
<path fill-rule="evenodd" clip-rule="evenodd" d="M23.6651 19.9155C23.6653 19.8433 23.6654 19.7708 23.6654 19.6976V19.5575C23.6654 19.403 23.695 19.3857 23.8344 19.461C23.8568 19.4731 23.8777 19.4894 23.8964 19.5068C23.9499 19.5566 23.9934 19.6153 24.0316 19.6769C24.1996 19.9477 24.3676 20.2185 24.5313 20.4919C24.568 20.5532 24.6103 20.5763 24.6809 20.5753C24.8469 20.573 25.0129 20.5732 25.1788 20.5734C25.2697 20.5736 25.3606 20.5737 25.4515 20.5734C25.4567 20.5734 25.462 20.5738 25.4674 20.5743C25.4872 20.5759 25.5082 20.5777 25.528 20.5576C25.4793 20.479 25.4305 20.4005 25.3817 20.322C25.2664 20.1366 25.1512 19.9513 25.0377 19.7649C24.9342 19.595 24.8117 19.4424 24.6577 19.3157C24.6546 19.3132 24.6512 19.3108 24.6477 19.3083C24.6336 19.2984 24.6188 19.288 24.6245 19.2683C24.6295 19.2508 24.6462 19.2477 24.6623 19.2447C24.6675 19.2437 24.6725 19.2428 24.6772 19.2414C24.8001 19.2043 24.9123 19.1483 25.0112 19.0648C25.4388 18.7039 25.3917 17.8778 24.7809 17.6185C24.5571 17.5234 24.3243 17.482 24.0837 17.4796C23.8868 17.4776 23.6898 17.4768 23.4929 17.4759C23.2773 17.475 23.0617 17.4741 22.8461 17.4717C22.7805 17.471 22.7619 17.4926 22.762 17.5564C22.7636 18.5372 22.7638 19.518 22.7617 20.4988C22.7616 20.5647 22.7869 20.5754 22.8439 20.5749C23.0904 20.5726 23.3369 20.5718 23.5834 20.5753C23.6485 20.5762 23.6675 20.556 23.6667 20.4916C23.6644 20.3006 23.6648 20.1095 23.6651 19.9155ZM24.1921 18.1576C24.1189 18.1259 24.0408 18.1251 23.9552 18.1256C23.9297 18.1256 23.9048 18.1257 23.8804 18.1258C23.8232 18.1262 23.7687 18.1265 23.7142 18.125C23.6736 18.1239 23.6598 18.139 23.6602 18.1794C23.6619 18.379 23.6619 18.5787 23.6613 18.7783C23.6613 18.8137 23.6724 18.8302 23.7105 18.8294C23.7565 18.8285 23.8025 18.8286 23.8485 18.8288C23.9271 18.8291 24.0056 18.8294 24.0838 18.8243C24.2405 18.814 24.3699 18.6948 24.3927 18.5526C24.4225 18.3678 24.3511 18.2265 24.1921 18.1576Z" fill="white"/>
<circle cx="20" cy="20" r="19.5" stroke="black" stroke-opacity="0.05"/>
</svg>
