<svg width="40" height="40" viewBox="0 0 40 40" fill="none" xmlns="http://www.w3.org/2000/svg">
<circle cx="20" cy="20" r="20" fill="#1E1E23"/>
<g clip-path="url(#clip0_36410_73969)">
<path d="M8.13758 22.2963L7.87803 21.6695H6.58796L6.34368 22.2963H5.46582L6.8704 19.0884H7.64903L9.03071 22.3037H8.13758V22.2963ZM7.24445 19.9438L6.8246 21.05H7.65666L7.24445 19.9438Z" fill="white"/>
<path d="M11.9465 21.6179C11.8778 21.7727 11.7862 21.9129 11.6564 22.0235C11.5343 22.1341 11.3816 22.2226 11.2061 22.289C11.0305 22.3553 10.832 22.3848 10.6183 22.3848C10.4045 22.3848 10.1984 22.3553 10.0305 22.289C9.85491 22.2226 9.70987 22.1341 9.58773 22.0235C9.4656 21.9129 9.37399 21.7727 9.30529 21.6179C9.23659 21.4556 9.20605 21.286 9.20605 21.0869V19.0884H10.0076V21.0279C10.0076 21.1164 10.0152 21.1975 10.0457 21.2786C10.0687 21.3598 10.1068 21.4261 10.1526 21.4925C10.1984 21.5515 10.2671 21.6031 10.3435 21.64C10.4198 21.6769 10.519 21.6916 10.6335 21.6916C10.748 21.6916 10.8396 21.6769 10.9236 21.64C10.9999 21.6031 11.0687 21.5515 11.1221 21.4925C11.1755 21.4335 11.2061 21.3598 11.229 21.2786C11.2519 21.1975 11.2595 21.1164 11.2595 21.0279V19.0884H12.061V21.0869C12.061 21.2786 12.0228 21.4556 11.9618 21.6179" fill="white"/>
<path d="M14.26 19.7447V22.2963H13.4585V19.7447H12.5195V19.0884H15.1989V19.7447H14.26Z" fill="white"/>
<path d="M19.0381 20.6814C19.0381 20.9322 18.9923 21.1681 18.9007 21.3746C18.8091 21.5885 18.6869 21.7655 18.519 21.913C18.3587 22.0605 18.1678 22.1785 17.9465 22.2596C17.7251 22.3407 17.4808 22.385 17.2213 22.385C16.9617 22.385 16.7175 22.3407 16.5037 22.2596C16.2823 22.1785 16.0915 22.0605 15.9312 21.913C15.7709 21.7655 15.6411 21.5811 15.5495 21.3746C15.4579 21.1681 15.4121 20.9322 15.4121 20.6814C15.4121 20.4307 15.4579 20.1947 15.5495 19.9882C15.6411 19.7817 15.7633 19.6047 15.9312 19.4572C16.0991 19.3097 16.2823 19.1991 16.5037 19.1254C16.7251 19.0369 16.9617 19 17.2213 19C17.4808 19 17.7251 19.0369 17.9465 19.118C18.1678 19.1991 18.3587 19.3097 18.519 19.4499C18.6793 19.5973 18.8091 19.7743 18.9007 19.9808C18.9923 20.1873 19.0381 20.4233 19.0381 20.674M18.1755 20.6814C18.1755 20.5413 18.1526 20.4159 18.1068 20.2906C18.061 20.1726 17.9923 20.0693 17.9159 19.9808C17.832 19.8923 17.7327 19.826 17.6182 19.7743C17.5037 19.7227 17.3739 19.7006 17.2289 19.7006C17.0839 19.7006 16.9617 19.7227 16.8472 19.7743C16.7327 19.826 16.6335 19.8923 16.5495 19.9808C16.4655 20.0693 16.3968 20.1726 16.351 20.2906C16.3052 20.4086 16.2823 20.5413 16.2823 20.6814C16.2823 20.8289 16.3052 20.9617 16.351 21.0796C16.3968 21.205 16.4655 21.3083 16.5495 21.3968C16.6335 21.4853 16.7327 21.5516 16.8472 21.6032C16.9617 21.6549 17.0915 21.677 17.2289 21.677C17.3663 21.677 17.4961 21.6549 17.6106 21.6032C17.7251 21.5516 17.8243 21.4853 17.9083 21.3968C17.9923 21.3083 18.061 21.205 18.1068 21.0796C18.1526 20.9543 18.1755 20.8215 18.1755 20.6814Z" fill="white"/>
<path d="M21.9543 22.2449C21.7405 22.3408 21.4886 22.385 21.2062 22.385C20.9466 22.385 20.71 22.3481 20.4963 22.2596C20.2749 22.1785 20.0917 22.0605 19.9314 21.913C19.7711 21.7655 19.6489 21.5812 19.5573 21.3747C19.4657 21.1682 19.4199 20.9396 19.4199 20.6815C19.4199 20.4234 19.4657 20.1947 19.5573 19.9809C19.6489 19.767 19.7787 19.5974 19.939 19.4499C20.0993 19.3024 20.2901 19.1918 20.5115 19.1107C20.7329 19.0295 20.9695 18.9927 21.2214 18.9927C21.4581 18.9927 21.6871 19.0295 21.9161 19.1107C22.1451 19.1918 22.3283 19.3098 22.4657 19.4647L21.9237 19.9883C21.8474 19.885 21.7482 19.8113 21.626 19.767C21.5039 19.7154 21.3818 19.6933 21.252 19.6933C21.1146 19.6933 20.9848 19.7154 20.8627 19.767C20.7405 19.8186 20.6413 19.885 20.5573 19.9735C20.4734 20.062 20.4047 20.1652 20.3589 20.2832C20.3131 20.4012 20.2902 20.534 20.2902 20.6741C20.2902 20.8142 20.3131 20.9543 20.3589 21.0723C20.4047 21.1903 20.4734 21.2936 20.5573 21.3821C20.6413 21.4706 20.7405 21.5369 20.855 21.5812C20.9695 21.6328 21.0993 21.6549 21.2367 21.6549C21.397 21.6549 21.5344 21.6254 21.6566 21.5664C21.7787 21.5074 21.8703 21.4263 21.939 21.3304L22.4963 21.8393C22.3512 22.0015 22.168 22.1343 21.9543 22.2301" fill="white"/>
<path d="M24.7638 22.2963L24.0386 21.0205H23.7638V22.2963H22.9775V19.0884H24.2447C24.405 19.0884 24.5577 19.1031 24.7104 19.1326C24.863 19.1621 25.0004 19.2211 25.1226 19.2949C25.2447 19.3686 25.3363 19.4719 25.4127 19.5972C25.4814 19.7226 25.5195 19.8775 25.5195 20.0618C25.5195 20.2831 25.4585 20.4601 25.3363 20.6076C25.2142 20.755 25.0462 20.8583 24.8325 20.9247L25.7027 22.2963H24.7638ZM24.7333 20.0692C24.7333 19.9955 24.718 19.9291 24.6875 19.8848C24.6569 19.8406 24.6111 19.8037 24.5577 19.7742C24.5043 19.7521 24.4508 19.73 24.3821 19.7226C24.3211 19.7152 24.2523 19.7078 24.1989 19.7078H23.7714V20.4527H24.1531C24.2218 20.4527 24.2829 20.4527 24.3592 20.4379C24.4279 20.4306 24.489 20.4084 24.5501 20.3789C24.6035 20.3494 24.6569 20.3126 24.6875 20.2609C24.7256 20.2093 24.7409 20.143 24.7409 20.0618" fill="white"/>
<path d="M27.6716 20.9394V22.2963H26.8701V20.9394L25.6182 19.0884H26.5953L27.2976 20.2757L28.0075 19.0884H28.9464L27.6716 20.9394Z" fill="white"/>
<path d="M31.863 20.0766C31.863 20.2609 31.8248 20.4232 31.7561 20.5486C31.6874 20.6739 31.5882 20.7772 31.4661 20.8583C31.3439 20.9394 31.2065 20.991 31.0462 21.0279C30.8859 21.0648 30.718 21.0795 30.55 21.0795H30.1531V22.289H29.3516V19.0884H30.5729C30.7561 19.0884 30.9241 19.1031 31.0844 19.14C31.2447 19.1769 31.3821 19.2285 31.4966 19.3096C31.6111 19.3834 31.7027 19.4866 31.7714 19.612C31.8401 19.7373 31.8706 19.8922 31.8706 20.0766M31.0615 20.0766C31.0615 20.0028 31.0462 19.9365 31.0157 19.8922C30.9852 19.8406 30.9394 19.8037 30.8859 19.7816C30.8325 19.7521 30.7714 19.7373 30.7027 19.73C30.634 19.7226 30.5653 19.7152 30.4966 19.7152H30.1455V20.4748H30.4813C30.5577 20.4748 30.6264 20.4748 30.6951 20.4601C30.7638 20.4453 30.8248 20.4232 30.8783 20.3937C30.9317 20.3642 30.9775 20.3199 31.0081 20.2757C31.0386 20.2241 31.0539 20.1651 31.0539 20.084" fill="white"/>
<path d="M33.886 19.7447V22.2963H33.0844V19.7447H32.1455V19.0884H34.8249V19.7447H33.886Z" fill="white"/>
<path d="M35.3282 22.0088V23.351H4.67176V22.0088H4V23.9999H36V22.0088H35.3282Z" fill="white"/>
</g>
<circle cx="20" cy="20" r="19.5" stroke="black" stroke-opacity="0.05"/>
<defs>
<clipPath id="clip0_36410_73969">
<rect width="32" height="5" fill="white" transform="translate(4 19)"/>
</clipPath>
</defs>
</svg>
