<svg width="40" height="40" viewBox="0 0 40 40" fill="none" xmlns="http://www.w3.org/2000/svg">
<circle cx="20" cy="20" r="20" fill="#619F7E"/>
<g clip-path="url(#clip0_18553_55644)">
<path d="M16.9301 19.5698C16.6201 20.0798 16.9401 20.7798 17.4801 20.9198C17.6601 20.9698 17.8801 20.9898 18.1401 20.9898C19.2501 20.9898 20.2901 20.9898 21.2601 20.9898C22.6801 20.9898 22.7101 23.0398 21.2001 23.0398C20.6501 23.0398 20.1001 23.0398 19.5801 23.0398C18.7901 23.0398 18.0301 23.7598 18.2801 24.6198C18.5501 25.5698 18.5001 26.5198 18.0501 27.3798C17.9101 27.6498 17.7301 27.8798 17.5301 28.0698C17.4901 28.0998 17.4401 28.0998 17.4101 28.0698C17.4101 28.0698 17.4001 28.0598 17.4001 28.0498C17.0401 27.1798 16.5401 26.4698 15.8901 25.7598C15.2101 24.9998 14.4001 24.2098 13.9001 23.3798C12.7601 21.5098 12.7201 18.9298 13.8201 17.0198C14.0401 16.6398 14.3901 16.1898 14.8601 15.6598C15.3301 15.1298 15.8001 14.6098 16.2701 14.0998C16.6801 13.6498 17.0301 13.2098 17.3301 12.7898C17.9401 11.9098 18.4801 11.0398 18.9601 10.1798C19.3101 9.54979 19.6601 8.80979 19.7701 8.07979C19.7701 8.04979 19.8101 8.01979 19.8401 8.02979C19.8501 8.02979 19.8701 8.02979 19.8801 8.04979C20.5401 8.76979 20.9701 9.57979 21.1701 10.4698C21.4701 11.8298 21.0201 13.2398 20.1201 14.2998C19.7901 14.6898 19.4301 15.0898 19.0401 15.4898C18.8101 15.7298 18.7201 16.0598 18.8401 16.3798C19.3401 17.7898 21.1401 16.3398 21.5801 17.7598C21.6901 18.1098 21.6401 18.4298 21.4301 18.7098C21.1701 19.0598 20.7901 19.1298 20.3601 19.1298C19.6501 19.1298 18.9501 19.1298 18.2501 19.1298C17.7101 19.1298 17.2901 19.0598 16.9501 19.6098L16.9301 19.5698Z" fill="white"/>
<path d="M26.7202 23.4099C26.4602 24.1099 26.0702 24.6499 25.5702 25.2199C25.0002 25.8499 24.4602 26.4499 23.9502 27.0299C23.1802 27.8799 22.5502 28.7599 21.9302 29.6599C21.4102 30.4299 20.9702 31.1899 20.6102 31.9399C20.4702 32.2499 20.3502 32.5799 20.2702 32.9299C20.2702 32.9599 20.2502 32.9899 20.2302 33.0099C20.2102 33.0299 20.1902 33.0299 20.1702 33.0099C19.9302 32.7399 19.7302 32.4899 19.5702 32.2699C18.7602 31.1499 18.3202 29.7399 18.6402 28.4099C18.8502 27.5699 19.2602 26.8199 19.8902 26.1599C20.5902 25.4299 21.3102 24.6699 22.0402 23.8899C22.5202 23.3799 22.9302 22.8299 23.2602 22.2599C23.9402 21.0699 23.6602 19.9999 22.9902 18.8899C22.6502 18.3199 22.2302 17.8199 21.8902 17.2299C21.0602 15.7999 20.9402 13.9699 22.1302 12.7299C22.1802 12.6799 22.2602 12.6799 22.3202 12.7299C22.3202 12.7299 22.3402 12.7499 22.3402 12.7599C23.0202 13.9699 24.0002 14.9599 24.9502 16.0099C25.4902 16.6099 25.8802 17.0999 26.1202 17.4999C26.6902 18.4399 27.0202 19.4699 27.0902 20.5899C27.1602 21.5499 27.0702 22.4899 26.7202 23.4299V23.4099Z" fill="white"/>
</g>
<circle cx="20" cy="20" r="19.5" stroke="black" stroke-opacity="0.05"/>
<defs>
<clipPath id="clip0_18553_55644">
<rect width="14.11" height="25.02" fill="white" transform="translate(13 8)"/>
</clipPath>
</defs>
</svg>
