<svg width="40" height="40" viewBox="0 0 40 40" fill="none" xmlns="http://www.w3.org/2000/svg">
<circle cx="20" cy="20" r="20" fill="#C20009"/>
<path d="M20.2567 14.1758C19.8669 14.1401 19.2923 14.1849 18.5331 14.3104C17.849 14.4104 17.1829 14.608 16.555 14.8972C16.3835 14.9803 16.1932 15.0844 15.986 15.2127C15.7192 15.3572 15.4598 15.5152 15.2089 15.6859C12.0172 18.0289 10.9541 22.2112 12.7786 25.7762C13.493 27.1692 14.5671 28.2661 16.0008 29.0667C16.128 29.1372 16.1953 29.1719 16.2027 29.1719C16.4726 29.2483 16.4673 29.2865 16.1869 29.2865C14.4041 29.2865 12.5616 29.2865 10.6596 29.2865C10.6426 29.2867 10.6257 29.2832 10.6103 29.2761C10.5948 29.269 10.5811 29.2585 10.5702 29.2455C10.4532 29.1133 10.3434 28.975 10.2411 28.8311C8.73935 26.7244 7.99235 24.4045 8.00006 21.8715C8.02004 15.8479 12.4253 10.9926 18.2807 10.1113C18.9538 10.0198 19.6334 9.98458 20.3124 10.0062C27.4707 10.1492 32.9265 16.5525 31.8686 23.6593C31.5679 25.7072 30.7257 27.6375 29.4289 29.2507C29.42 29.262 29.4086 29.2711 29.3957 29.2773C29.3827 29.2835 29.3685 29.2867 29.3542 29.2865H23.4651C23.458 29.2863 23.4512 29.2835 23.446 29.2787C23.4408 29.2738 23.4375 29.2673 23.4367 29.2602L23.4315 29.2287C23.4312 29.2271 23.4312 29.2254 23.4316 29.2238C23.432 29.2222 23.4327 29.2208 23.4337 29.2195C23.4347 29.2182 23.4359 29.2171 23.4374 29.2163C23.4388 29.2156 23.4404 29.2151 23.442 29.215C23.5766 29.1922 23.706 29.1452 23.8237 29.0762C24.0414 28.9489 24.2686 28.8101 24.5031 28.6555C24.727 28.5122 24.9403 28.353 25.1414 28.1791C26.7209 26.8036 27.638 25.086 27.8924 23.0262C28.4256 18.7041 25.2056 14.7279 20.9423 14.2421C20.7046 14.2175 20.4761 14.1954 20.2567 14.1758Z" fill="white"/>
<circle cx="20" cy="20" r="19.5" stroke="black" stroke-opacity="0.05"/>
</svg>
