<svg width="40" height="40" viewBox="0 0 40 40" fill="none" xmlns="http://www.w3.org/2000/svg">
<circle cx="20" cy="20" r="20" fill="#21315C"/>
<path d="M9.78148 16.5087H7.1149C7.07086 16.5087 7.03516 16.5444 7.03516 16.5884V22.6991C7.03516 22.7432 7.07086 22.7789 7.1149 22.7789H9.78148C9.82553 22.7789 9.86123 22.7432 9.86123 22.6991V16.5884C9.86123 16.5444 9.82553 16.5087 9.78148 16.5087Z" fill="white"/>
<path d="M17.3153 20.1646L15.9446 20.1596C15.9287 20.1596 15.9135 20.1533 15.9023 20.1421C15.8911 20.1309 15.8848 20.1157 15.8848 20.0998L15.8798 19.1653C15.8798 19.1487 15.8866 19.1329 15.8988 19.1212C15.9109 19.1095 15.9274 19.1029 15.9446 19.1029H19.932C20.0167 19.1029 20.0583 19.1445 20.0566 19.2276V21.782C20.0559 22.0455 19.951 22.298 19.7646 22.4844C19.5783 22.6707 19.3258 22.7757 19.0622 22.7763C16.8027 22.7813 14.4834 22.7805 12.1042 22.7739C11.2768 22.7739 10.8457 22.1907 10.8382 21.4132C10.8266 20.1854 10.8274 18.985 10.8407 17.812C10.8507 16.8102 11.5734 16.4663 12.4731 16.4738C15.0084 16.4954 17.5121 16.4962 19.9843 16.4762C19.9942 16.4762 20.0039 16.4781 20.0129 16.4817C20.022 16.4854 20.0303 16.4907 20.0372 16.4974C20.0441 16.5041 20.0497 16.5121 20.0534 16.5209C20.0572 16.5296 20.0591 16.539 20.0591 16.5485L20.0566 17.4831C20.0566 17.5246 20.0358 17.5454 19.9943 17.5454H13.5771C13.5605 17.5454 13.5447 17.5519 13.533 17.5636C13.5213 17.5753 13.5148 17.5911 13.5148 17.6077V21.5951C13.5148 21.6781 13.5563 21.7197 13.6394 21.7197H17.3153C17.3568 21.7197 17.3776 21.6989 17.3776 21.6574V20.2244C17.3776 20.1845 17.3568 20.1646 17.3153 20.1646Z" fill="white"/>
<path d="M23.7824 16.5087H21.1208C21.0767 16.5087 21.041 16.5444 21.041 16.5884V22.6991C21.041 22.7432 21.0767 22.7789 21.1208 22.7789H23.7824C23.8264 22.7789 23.8621 22.7432 23.8621 22.6991V16.5884C23.8621 16.5444 23.8264 16.5087 23.7824 16.5087Z" fill="white"/>
<path d="M30.1491 21.7198C30.1907 21.7198 30.2114 21.6991 30.2114 21.6575L30.2089 20.232C30.2089 20.1872 30.1865 20.1648 30.1417 20.1648C28.9006 20.1598 27.5656 20.1606 26.1368 20.1672C25.272 20.1697 24.7736 19.5093 24.8434 18.6794C24.8858 18.186 24.7288 17.5705 25.0129 17.1443C25.3003 16.7156 25.6915 16.4997 26.1866 16.4963C28.4561 16.4847 30.7115 16.4814 32.9528 16.4864C32.97 16.4864 32.9864 16.4932 32.9986 16.5054C33.0107 16.5175 33.0176 16.534 33.0176 16.5512L33.0151 17.4832C33.0151 17.4997 33.0085 17.5156 32.9968 17.5273C32.9852 17.539 32.9693 17.5455 32.9528 17.5455H27.7816C27.7417 17.5455 27.7218 17.5663 27.7218 17.6078L27.7193 18.9935C27.7193 19.0649 27.755 19.1006 27.8265 19.1006C29.0842 19.1056 30.3552 19.1048 31.6394 19.0981C32.5615 19.0956 33.0649 19.7087 33.0325 20.6133C33.0076 21.3311 33.1771 22.0189 32.5092 22.5497C32.3015 22.7159 32.0631 22.7964 31.7939 22.7915C29.4779 22.7516 27.1901 22.7715 24.9306 22.8513C24.8791 22.8529 24.8534 22.828 24.8534 22.7765V21.7821C24.8534 21.7406 24.8741 21.7198 24.9157 21.7198H30.1491Z" fill="white"/>
<circle cx="20" cy="20" r="19.5" stroke="black" stroke-opacity="0.05"/>
</svg>
