<svg width="40" height="40" viewBox="0 0 40 40" fill="none" xmlns="http://www.w3.org/2000/svg">
<circle cx="20" cy="20" r="20" fill="#005EB8"/>
<g clip-path="url(#clip0_14382_19420)">
<path d="M4.09794 18.0894H6.93986C9.20447 18.0928 8.93643 19.165 8.52062 20.3402C8.09794 21.5258 7.60309 22.5979 5.34536 22.5979H2.5L4.09794 18.0894ZM4.75773 21.7526H5.14948C5.9055 21.7526 6.07388 21.5636 6.49656 20.3402C6.92955 19.1272 6.9055 18.9347 6.14605 18.9347H5.7543L4.75773 21.7526Z" fill="white"/>
<path d="M12.3144 18C14.311 18 14.7646 18.6564 14.1701 20.3402C13.5721 22.0309 12.6546 22.6873 10.6546 22.6873C8.65459 22.6873 8.20786 22.0275 8.80236 20.3402C9.39343 18.6598 10.3144 18 12.3144 18ZM10.9364 21.8935C11.5378 21.8935 11.713 21.5636 12.146 20.3402C12.5756 19.1271 12.6305 18.7938 12.0326 18.7973C11.4312 18.7973 11.2491 19.1271 10.823 20.3402C10.3831 21.5636 10.3316 21.89 10.9329 21.8935" fill="white"/>
<path d="M17.9708 18C19.9708 18 20.4244 18.6564 19.8265 20.3402C19.2251 22.0309 18.3145 22.6873 16.311 22.6838C14.3076 22.6838 13.8609 22.0309 14.4554 20.3402C15.0567 18.6598 15.9708 18.0034 17.9708 18ZM16.5928 21.89C17.1908 21.8935 17.3729 21.5636 17.8024 20.3402C18.232 19.1271 18.287 18.7973 17.6822 18.7938C17.0877 18.7938 16.9124 19.1237 16.476 20.3436C16.0499 21.567 15.9949 21.89 16.5928 21.89Z" fill="white"/>
<path d="M23.4623 19.3918L23.5035 19.2852C23.5929 19.0172 23.4932 18.7973 23.1152 18.7973C22.6959 18.7973 22.4382 18.9931 22.3592 19.1924C22.0499 20.0859 25.397 19.6529 24.8162 21.299C24.4795 22.2577 23.3901 22.6873 21.665 22.6873C20.043 22.6873 19.2561 22.354 19.586 21.4158L19.641 21.2612H21.531L21.4966 21.3677C21.3592 21.7526 21.5722 21.89 21.9571 21.8866C22.3523 21.8935 22.6478 21.6976 22.7372 21.4502C23.0568 20.5601 19.8231 21.0034 20.3901 19.4021C20.7131 18.5052 21.6994 18 23.3523 18C25.0602 18 25.6341 18.4227 25.2904 19.3918H23.4623Z" fill="white"/>
<path d="M27.6649 18.0928H30.122L30.3522 22.5979H28.2697L28.3522 21.8075H26.7921L26.3178 22.5945H24.2319L27.6649 18.0928ZM28.579 19.0137H28.5584L27.3419 20.9313H28.4381L28.579 19.0137Z" fill="white"/>
<path d="M32.201 18.0928L34.3831 18.0962L34.6614 20.8728H34.6855L35.6718 18.0928H37.4999L35.9054 22.6014L33.7577 22.5979L33.4381 19.8179L33.4175 19.8144L32.4278 22.6014L30.603 22.5979L32.201 18.0928Z" fill="white"/>
</g>
<circle cx="20" cy="20" r="19.5" stroke="black" stroke-opacity="0.05"/>
<defs>
<clipPath id="clip0_14382_19420">
<rect width="35" height="4.68729" fill="white" transform="translate(2.5 18)"/>
</clipPath>
</defs>
</svg>
