<svg width="40" height="40" viewBox="0 0 40 40" fill="none" xmlns="http://www.w3.org/2000/svg">
<circle cx="20" cy="20" r="20" fill="#F6F8FA"/>
<g clip-path="url(#clip0_29125_48239)">
<path d="M26.0572 20.3837C25.0928 19.5415 24.5204 19.0378 24.3244 18.8724C24.0656 18.6543 23.8226 18.4814 23.4854 18.4137C23.1247 18.3461 22.7954 18.3686 22.4975 18.4889C22.3642 18.5416 22.1133 18.722 21.7447 19.0303C20.4431 20.113 19.2278 21.1205 18.0908 22.0453C17.9183 22.1882 17.7145 22.2859 17.4949 22.3385C16.7971 22.504 16.2169 22.4588 15.6288 22.0603C15.3857 21.8949 15.0564 21.6468 14.7898 21.4288C14.2096 20.9626 13.5117 20.3987 12.7041 19.7446C12.6571 19.707 12.6571 19.6619 12.7041 19.6243C13.4098 19.0077 14.3742 18.1581 15.5974 17.0829C15.8562 16.8573 16.1071 16.6393 16.3502 16.4288C18.083 14.9325 19.2984 13.8874 19.9962 13.2784C20.153 13.1431 20.3726 12.9776 20.647 12.7897C21.0704 12.4964 21.533 12.2859 22.027 12.1506C22.9366 11.91 23.8069 11.9325 24.638 12.2107C24.9909 12.331 25.3516 12.534 25.7122 12.8197C26.1905 13.1957 26.7943 13.6919 27.2883 14.113C29.4445 15.9852 31.6714 17.9175 33.9609 19.9025C33.9844 19.9175 33.9923 19.94 34.0001 19.9551C34.0001 19.9701 34.0001 19.9852 33.9766 19.9852C33.4356 19.9852 33.0827 19.9852 32.9181 19.9852C32.8475 19.9852 32.7848 19.9626 32.7299 19.9175C30.3933 17.8949 28.7075 16.4363 27.6646 15.5415C27.3588 15.2784 26.5277 14.5716 25.1712 13.4212C24.8262 13.128 24.3871 12.91 23.9167 12.8122C23.5403 12.737 23.211 12.707 22.9366 12.7145C22.4269 12.737 21.9251 12.8874 21.4311 13.1581C21.2743 13.2483 21.0234 13.4363 20.6705 13.722C20.5921 13.7897 19.5101 14.6919 17.4479 16.4288C17.197 16.6393 16.9461 16.8573 16.6873 17.0754C15.6602 17.9701 14.7036 18.7972 13.8097 19.5641C13.7862 19.5791 13.7862 19.6092 13.8097 19.6318C14.0841 19.8573 14.7741 20.4288 15.8954 21.3536C16.2796 21.6694 16.9069 21.7596 17.3852 21.5791C17.5812 21.504 17.8556 21.331 18.0516 21.1731C18.0987 21.1355 18.7338 20.6092 19.9492 19.5942C20.5294 19.113 21.0626 18.6243 21.6036 18.1882C22.1681 17.737 22.8268 17.5641 23.5873 17.6919C23.9716 17.7521 24.2852 17.8799 24.5204 18.0754C25.4849 18.8573 26.3944 19.6167 27.2412 20.3461C27.2726 20.3686 27.2726 20.4137 27.2412 20.4438C26.0416 21.4588 24.9674 22.3686 24.0186 23.1581C22.7876 24.1882 21.4938 25.3235 19.7845 26.8122C19.5728 26.9927 19.3297 27.1731 19.0474 27.3536C18.8044 27.504 18.5299 27.6318 18.2163 27.7295C17.393 27.9852 16.5697 28.0228 15.7464 27.8423C15.4798 27.7822 15.2524 27.6994 15.0564 27.5867C14.7741 27.4288 14.5703 27.2934 14.4213 27.1731C13.5901 26.4889 13.1197 26.1055 13.0021 26.0077C9.81866 23.2784 7.4899 21.2634 6.03148 19.9927C5.9766 19.9476 5.98444 19.925 6.06285 19.925C6.37648 19.925 6.69796 19.925 7.03512 19.925C7.16058 19.925 7.22331 19.94 7.32524 20.0303C8.47001 21.0303 9.999 22.3461 11.8965 23.9852C12.7904 24.7521 13.7862 25.6017 14.8996 26.534C15.2681 26.8423 15.7307 27.0453 16.2796 27.1431C16.5854 27.1957 17.0166 27.2258 17.3538 27.1731C17.8478 27.1055 18.2947 26.94 18.7103 26.6769C18.7652 26.6393 18.8828 26.5566 19.0553 26.4212C19.1651 26.3385 19.2748 26.2483 19.3846 26.1506C21.5487 24.2934 23.7677 22.3761 26.0416 20.4212C26.0572 20.4137 26.0572 20.3987 26.0416 20.3912L26.0572 20.3837Z" fill="#1E3D82"/>
<path d="M24.7557 16.9626C24.4499 16.7069 24.1206 16.5566 23.7756 16.4964C23.3287 16.4212 22.7249 16.4513 22.2545 16.5866C22.1447 16.6167 22.0271 16.6693 21.8938 16.752C21.6429 16.9024 21.3606 17.1129 21.0391 17.3836C19.4317 18.7821 18.334 19.7295 17.7538 20.2107C17.4009 20.5114 16.907 20.549 16.4522 20.4663C16.0131 20.3911 15.5975 20.1129 15.2525 19.8498C15.229 19.8272 15.2211 19.7896 15.2447 19.7671C17.6283 17.6618 19.6513 15.9024 21.3136 14.4663C21.5331 14.2784 21.8154 14.128 22.1682 14.0152C22.6936 13.8423 23.3522 13.752 23.8854 13.9024C24.2931 14.0152 24.6616 14.2107 24.9831 14.4889C25.3752 14.8197 27.5079 16.6618 31.3813 20.0152C31.397 20.0227 31.397 20.0453 31.3813 20.0528C31.3813 20.0528 31.3735 20.0528 31.3656 20.0603C31.3264 20.0678 31.2716 20.0754 31.2167 20.0754C30.6129 20.0754 29.7426 20.0754 28.6056 20.0754C28.4488 20.0754 28.3782 20.0603 28.2528 19.9551C27.0923 18.9551 25.9319 17.9551 24.7401 16.9626H24.7557Z" fill="#D11B47"/>
<path d="M11.7477 20.045C12.9081 21.0525 14.0686 22.045 15.2683 23.0375C15.5741 23.2931 15.9034 23.4435 16.2484 23.5036C16.6953 23.5788 17.2991 23.5488 17.7695 23.4134C17.8793 23.3833 17.9969 23.3307 18.1302 23.248C18.3811 23.0976 18.6634 22.8871 18.9849 22.6164C20.6001 21.2179 21.6978 20.2706 22.2781 19.7818C22.6309 19.4811 23.1249 19.4435 23.5797 19.5187C24.0188 19.5939 24.4343 19.8721 24.7793 20.1352C24.8029 20.1578 24.8107 20.1954 24.7872 20.2179C22.4035 22.3232 20.3806 24.0901 18.7104 25.5187C18.4909 25.7067 18.2086 25.857 17.8479 25.9698C17.3226 26.1427 16.664 26.233 16.1308 26.0826C15.723 25.9698 15.3545 25.7743 15.033 25.4961C14.641 25.1653 12.5083 23.3157 8.627 19.9623C8.61131 19.9548 8.61131 19.9322 8.627 19.9247C8.627 19.9247 8.63484 19.9247 8.64268 19.9172C8.68188 19.9097 8.73677 19.9021 8.79166 19.9021C9.39541 19.9021 10.2658 19.9021 11.4105 19.9021C11.5673 19.9021 11.6379 19.9172 11.7634 20.03L11.7477 20.045Z" fill="#D11B47"/>
</g>
<circle cx="20" cy="20" r="19.5" stroke="black" stroke-opacity="0.05"/>
<defs>
<clipPath id="clip0_29125_48239">
<rect width="28" height="16" fill="white" transform="translate(6 12)"/>
</clipPath>
</defs>
</svg>
