<svg width="40" height="40" viewBox="0 0 40 40" fill="none" xmlns="http://www.w3.org/2000/svg">
<circle cx="20" cy="20" r="20" fill="#005BAC"/>
<circle cx="20" cy="20" r="19.5" stroke="black" stroke-opacity="0.05"/>
<path fill-rule="evenodd" clip-rule="evenodd" d="M16.3286 10.4762L20.0727 12.3635L23.8231 10.4762L20.0727 17.6169L16.3286 10.4762ZM25.075 15.9444L25.1326 15.9948C26.8066 17.4662 27.7667 19.5845 27.7667 21.8093C27.7667 26.0637 24.3155 29.5238 20.0733 29.5238C15.8327 29.5238 12.3809 26.0637 12.3809 21.8093C12.3809 19.5824 13.3425 17.4641 15.0182 15.9948L15.0758 15.9444L12.4044 14.8178V11.0516L17.0447 13.0355L19.615 17.9224C17.6445 18.1592 16.1658 19.816 16.1658 21.8093C16.1658 23.9707 17.9168 25.7304 20.0733 25.7304C22.2282 25.7304 23.9802 23.9707 23.9802 21.8093C23.9802 19.816 22.5011 18.1592 20.5295 17.9224C20.5861 17.8127 23.1029 13.0355 23.1029 13.0355L27.7489 11.0516V14.8178L25.075 15.9444Z" fill="#FCB813"/>
</svg>
