<svg width="40" height="40" viewBox="0 0 40 40" fill="none" xmlns="http://www.w3.org/2000/svg">
<circle cx="20" cy="20" r="20" fill="#102135"/>
<path d="M34.4673 18.6842L32.7716 17.0003C32.6296 17.1811 32.0589 18.0501 32.6453 18.6525L33.5212 19.5372C33.822 19.8458 33.7566 20.2322 33.456 20.5411L32.346 21.6494C32.2901 21.7088 32.2227 21.7561 32.1479 21.7884C32.073 21.8208 31.9924 21.8375 31.9109 21.8375C31.8293 21.8375 31.7487 21.8208 31.6739 21.7884C31.599 21.7561 31.5316 21.7088 31.4757 21.6494L30.3699 20.5052C30.3008 20.4406 30.2462 20.3621 30.2098 20.2748C30.1734 20.1876 30.156 20.0935 30.1587 19.999C30.1614 19.9045 30.1842 19.8117 30.2255 19.7266C30.2668 19.6416 30.3257 19.5663 30.3984 19.5057L31.1091 18.7992C31.7788 18.1804 31.2565 17.1804 31.1152 16.9998L29.3647 18.7291C29.0258 19.0759 28.8372 19.5424 28.8399 20.0273C28.8425 20.5122 29.0361 20.9765 29.3787 21.3196L30.638 22.6116C30.8047 22.7841 31.0044 22.9212 31.2252 23.0149C31.446 23.1086 31.6834 23.1569 31.9233 23.1569C32.1631 23.1569 32.4005 23.1086 32.6214 23.0149C32.8422 22.9212 33.0419 22.7841 33.2086 22.6116L34.4683 21.3196C34.8093 20.9656 34.9999 20.4932 34.9999 20.0017C34.9999 19.5101 34.8093 19.0377 34.4683 18.6837" fill="#F2F2F1"/>
<path d="M17.8055 20.9745C17.8055 21.6767 17.3804 21.8814 16.8979 21.8814H14.9771C14.8636 21.8739 14.7526 21.8441 14.6505 21.7938C14.5485 21.7434 14.4573 21.6734 14.3823 21.5878C14.3073 21.5022 14.25 21.4026 14.2134 21.2949C14.1769 21.1871 14.162 21.0731 14.1696 20.9596V18.3524C14.1694 18.0117 14.0407 17.6837 13.8091 17.4339C13.5775 17.1841 13.2601 17.031 12.9204 17.0051H12.8845V21.1203C12.8951 21.6666 13.121 22.1866 13.5131 22.5672C13.9052 22.9477 14.4317 23.158 14.9781 23.1522H16.9994C17.5456 23.1579 18.072 22.9476 18.4638 22.567C18.8556 22.1864 19.0811 21.6664 19.0913 21.1203V18.3187L17.8055 17.0354V20.9745Z" fill="#F2F2F1"/>
<path d="M22.1364 19.1831C22.1364 18.4815 22.5615 18.2763 23.0439 18.2763H24.9648C25.0783 18.2837 25.1893 18.3135 25.2914 18.3638C25.3935 18.4142 25.4846 18.4842 25.5596 18.5698C25.6346 18.6554 25.692 18.755 25.7285 18.8628C25.765 18.9706 25.7799 19.0845 25.7723 19.1981V21.8048C25.7725 22.1455 25.9012 22.4736 26.1329 22.7234C26.3646 22.9732 26.682 23.1263 27.0217 23.1521H27.0574V19.0372C27.047 18.4908 26.8211 17.9706 26.429 17.5899C26.0369 17.2093 25.5102 16.999 24.9638 17.0048H22.9424C22.3962 16.9991 21.8698 17.2095 21.478 17.5902C21.0862 17.9709 20.8607 18.491 20.8506 19.0372V21.8387L22.1364 23.1221V19.1831Z" fill="#F2F2F1"/>
<path d="M11.0443 17.0264H9.66189L8.50464 20.1814L9.21733 22.1528L11.0443 17.0264Z" fill="#F2F2F1"/>
<path d="M6.8756 18.1722C6.53154 17.3964 6.05945 16.9926 5 17.0172L7.40569 23.134L8.77405 23.1411L6.8756 18.1722Z" fill="#F2F2F1"/>
<circle cx="20" cy="20" r="19.5" stroke="black" stroke-opacity="0.05"/>
</svg>
