<svg width="40" height="40" viewBox="0 0 40 40" fill="none" xmlns="http://www.w3.org/2000/svg">
<circle cx="20" cy="20" r="20" fill="#94B266"/>
<g clip-path="url(#clip0_18553_55602)">
<path d="M21.112 17.3823C22.6138 14.8417 24.091 12.3265 25.5435 9.83681C25.6358 9.68399 25.8267 9.63305 25.9744 9.72857C26.3683 9.98327 26.756 10.2125 27.1253 10.429C27.39 10.5818 27.5746 10.7983 27.39 11.1039C25.802 13.7847 24.3864 16.1852 23.1493 18.2992C23.0939 18.3947 23.0631 18.503 23.0631 18.624C23.0877 22.228 23.0877 26.0548 23.0631 30.1173C23.0631 30.3847 22.977 30.6776 22.6631 30.6776C22.1953 30.6776 21.7152 30.6776 21.2105 30.6776C20.8966 30.6776 20.8474 30.3402 20.8474 30.06C20.8289 26.1058 20.8228 22.1261 20.8412 18.1082C20.8412 17.8217 20.952 17.6306 21.0936 17.3887L21.112 17.3823Z" fill="white"/>
<path d="M19.6477 17.1784C19.857 17.5286 20.0724 17.7387 20.0785 18.1845C20.1093 22.3743 20.1032 26.3285 20.0785 30.0598C20.0785 30.2954 20.0416 30.6775 19.7339 30.6839C19.2107 30.6902 18.6937 30.6902 18.1767 30.6839C17.8566 30.6839 17.8259 30.2572 17.8259 30.0089C17.8074 26.2011 17.8074 22.4316 17.8259 18.6811C17.8259 18.541 17.7889 18.4073 17.7151 18.2927C15.8255 15.1854 14.4222 12.874 13.5113 11.3394C13.3759 11.1165 13.4436 10.8555 13.659 10.7154C14.096 10.4352 14.4715 10.1933 14.7915 9.99587C15.05 9.83668 15.2593 9.88762 15.4193 10.1551C16.8042 12.4665 18.2321 14.797 19.6477 17.172V17.1784Z" fill="white"/>
<path d="M23.9621 18.2736L28.0612 11.3712C28.172 11.1802 28.4121 11.1229 28.5967 11.2375L29.8154 12.0271C29.9939 12.1417 30.0493 12.39 29.9385 12.5747L25.8455 19.4516C25.7347 19.6362 25.4947 19.6999 25.3162 19.5853L24.0914 18.8148C23.9067 18.7002 23.8513 18.4519 23.9621 18.2672V18.2736Z" fill="white"/>
<path d="M12.4154 11.4883L11.1693 12.297C10.9965 12.4091 10.9443 12.6449 11.0527 12.8236L15.2228 19.701C15.3312 19.8798 15.5591 19.9338 15.7319 19.8217L16.978 19.013C17.1508 18.9008 17.203 18.6651 17.0946 18.4863L12.9245 11.6089C12.8161 11.4302 12.5882 11.3762 12.4154 11.4883Z" fill="white"/>
</g>
<circle cx="20" cy="20" r="19.5" stroke="black" stroke-opacity="0.05"/>
<defs>
<clipPath id="clip0_18553_55602">
<rect width="19" height="21" fill="white" transform="translate(11 9.68408)"/>
</clipPath>
</defs>
</svg>
