<svg width="40" height="40" viewBox="0 0 40 40" fill="none" xmlns="http://www.w3.org/2000/svg">
<circle cx="20" cy="20" r="20" fill="#231F20"/>
<circle cx="20" cy="20" r="19.5" stroke="black" stroke-opacity="0.05"/>
<g clip-path="url(#clip0_18009_45027)">
<path d="M11.5069 17.764L11.2288 18.2633C11.0355 18.6057 10.846 18.9577 10.6603 19.3193C10.6495 19.3404 10.6194 19.341 10.6081 19.3201C10.5025 19.1257 10.3049 18.7756 10.0153 18.2697L9.72455 17.764H7.08115L5.48923 19.4906C5.47095 19.5104 5.43783 19.4975 5.43783 19.4705V17.764H4.00586V17.8648C4.17373 17.9163 4.17373 18.2216 4.17373 18.4355V22.2642H5.43783V20.9748L5.92389 20.4827C5.92701 20.4796 5.93079 20.4772 5.93497 20.4757C5.93914 20.4742 5.9436 20.4736 5.94801 20.4741C5.95242 20.4745 5.95667 20.476 5.96045 20.4783C5.96424 20.4806 5.96745 20.4837 5.96987 20.4875L7.11904 22.2642H8.61068L6.86729 19.6429C6.85981 19.6317 6.85639 19.6182 6.85759 19.6048C6.8588 19.5913 6.86455 19.5787 6.8739 19.569L8.42143 17.9607L9.97737 20.5324V22.2642H11.2414V20.5324L12.8911 17.764H11.5069ZM14.7649 17.6629C14.0613 17.6629 13.4903 17.8757 13.0521 18.3013C12.6181 18.7311 12.4012 19.302 12.4012 20.0141C12.4012 20.7304 12.6181 21.2992 13.0521 21.7206C13.4862 22.1504 14.0571 22.3652 14.7649 22.3652C15.4729 22.3652 16.0439 22.1504 16.4778 21.7206C16.9117 21.2992 17.1288 20.7304 17.1288 20.0141C17.1288 19.302 16.9117 18.7311 16.4778 18.3013C16.0396 17.8757 15.4686 17.6629 14.7649 17.6629ZM15.5297 20.9369C15.3401 21.1602 15.0852 21.2718 14.7649 21.2718C14.4447 21.2718 14.1898 21.1602 14.0002 20.9369C13.8106 20.7177 13.7158 20.4101 13.7158 20.0141C13.7158 19.6264 13.8106 19.3199 14.0002 19.0945C14.1898 18.869 14.4447 18.7563 14.7649 18.7563C15.0852 18.7563 15.3401 18.869 15.5297 19.0945C15.7194 19.3199 15.8142 19.6264 15.8142 20.0141C15.8142 20.4101 15.7194 20.7177 15.5297 20.9369ZM25.0291 19.3678C25.0291 19.3783 25.0249 19.3883 25.0175 19.3957C25.0101 19.4032 25 19.4073 24.9896 19.4073H23.5201C23.5149 19.4073 23.5097 19.4063 23.5049 19.4043C23.5002 19.4023 23.4958 19.3994 23.4921 19.3957C23.4885 19.3921 23.4856 19.3877 23.4836 19.3829C23.4816 19.3781 23.4806 19.373 23.4806 19.3678V17.764H22.0486V17.8648C22.2164 17.9163 22.2164 18.2216 22.2164 18.4355V22.2642H23.4806V20.5719C23.4806 20.5501 23.4982 20.5324 23.5201 20.5324H24.9896C25.0114 20.5324 25.0291 20.5501 25.0291 20.5719V22.2642H26.2931V17.764H25.0291V19.3678ZM29.0992 17.6629C28.3955 17.6629 27.8247 17.8757 27.3865 18.3013C26.9524 18.7311 26.7355 19.302 26.7355 20.0141C26.7355 20.7304 26.9524 21.2992 27.3865 21.7206C27.8205 22.1504 28.3913 22.3652 29.0992 22.3652C29.8071 22.3652 30.3781 22.1504 30.812 21.7206C31.246 21.2992 31.463 20.7304 31.463 20.0141C31.463 19.302 31.246 18.7311 30.812 18.3013C30.3739 17.8757 29.8029 17.6629 29.0992 17.6629ZM29.864 20.9369C29.6744 21.1602 29.4194 21.2718 29.0992 21.2718C28.779 21.2718 28.5241 21.1602 28.3345 20.9369C28.1449 20.7177 28.0501 20.4101 28.0501 20.0141C28.0501 19.6264 28.1449 19.3199 28.3345 19.0945C28.5241 18.869 28.779 18.7563 29.0992 18.7563C29.4194 18.7563 29.6744 18.869 29.864 19.0945C30.0537 19.3199 30.1484 19.6264 30.1484 20.0141C30.1484 20.4101 30.0537 20.7177 29.864 20.9369ZM34.7811 18.4972C34.7811 19.1684 34.7907 19.8013 34.8099 20.3958C34.8105 20.4168 34.7828 20.4241 34.773 20.4055C34.598 20.0707 34.4048 19.7233 34.1933 19.3631L33.2388 17.764H31.7374V17.8648C31.9054 17.9163 31.9054 18.2216 31.9054 18.4355V22.2642H33.1063V21.531C33.1063 20.8644 33.0966 20.2342 33.0775 19.6403C33.0768 19.6193 33.1049 19.6122 33.1146 19.6308C33.2652 19.9225 33.4584 20.2672 33.694 20.6651L34.6483 22.2642H35.982V17.764H34.7811V18.4972ZM20.3567 21.0791C20.1903 21.216 19.9807 21.2845 19.7278 21.2845C19.4034 21.2845 19.157 21.1749 18.9884 20.9558C18.8198 20.7367 18.7356 20.4228 18.7356 20.0141C18.7356 19.6054 18.8198 19.2915 18.9884 19.0724C19.157 18.8533 19.4034 18.7437 19.7278 18.7437C19.9596 18.7437 20.1577 18.8037 20.322 18.9238C20.4863 19.0439 20.5979 19.2156 20.6569 19.4389H20.6601L21.9145 19.3288C21.8161 18.8249 21.5803 18.4254 21.2068 18.1306C20.7981 17.8188 20.3052 17.6629 19.7278 17.6629C19.0115 17.6629 18.4491 17.8736 18.0403 18.295C17.6274 18.7205 17.4209 19.2936 17.4209 20.0141C17.4209 20.7346 17.6316 21.3055 18.053 21.7269C18.4701 22.1525 19.0284 22.3652 19.7278 22.3652C20.3262 22.3652 20.8276 22.2009 21.2321 21.8723C21.6071 21.5683 21.838 21.1478 21.9245 20.6109L20.6758 20.5012C20.6294 20.7496 20.5231 20.9422 20.3567 21.0791Z" fill="white"/>
</g>
<defs>
<clipPath id="clip0_18009_45027">
<rect width="32" height="4.78981" fill="white" transform="translate(4 17.6051)"/>
</clipPath>
</defs>
</svg>
