<svg width="40" height="40" viewBox="0 0 40 40" fill="none" xmlns="http://www.w3.org/2000/svg">
<circle cx="20" cy="20" r="20" fill="#22316A"/>
<path d="M14.3764 19.6424L13.3203 17.0292C13.3166 17.0197 13.3164 17.0091 13.3198 16.9995C13.3232 16.9898 13.3299 16.9817 13.3388 16.9766L16.1005 15.4785C16.1054 15.4759 16.1108 15.4743 16.1163 15.4738C16.1218 15.4733 16.1274 15.4739 16.1327 15.4755C16.1379 15.4772 16.1428 15.4799 16.1471 15.4834C16.1513 15.487 16.1548 15.4914 16.1574 15.4963C16.16 15.5018 16.1614 15.5079 16.1614 15.514C16.1614 15.5202 16.16 15.5263 16.1574 15.5318L14.4517 19.6431C14.4497 19.6482 14.4466 19.6528 14.4427 19.6567C14.4388 19.6605 14.4341 19.6636 14.429 19.6656C14.4239 19.6677 14.4185 19.6687 14.413 19.6686C14.4075 19.6685 14.4021 19.6673 14.397 19.6651C14.3875 19.6604 14.3802 19.6523 14.3764 19.6424Z" fill="white"/>
<path d="M5 18.2537C5 18.2411 5.00502 18.229 5.01395 18.2201C5.02288 18.2111 5.03499 18.2061 5.04762 18.2061H6.63101C7.15696 18.2023 7.66287 18.4076 8.0375 18.7767C8.41213 19.1459 8.6248 19.6488 8.62874 20.1747C8.6248 20.7006 8.41213 21.2035 8.0375 21.5726C7.66287 21.9418 7.15696 22.1471 6.63101 22.1433H5.04762C5.03499 22.1433 5.02288 22.1383 5.01395 22.1293C5.00502 22.1204 5 22.1083 5 22.0957V18.2537ZM5.91038 19.1527V21.1981C5.91038 21.2073 5.91405 21.2162 5.92058 21.2227C5.92711 21.2292 5.93597 21.2329 5.94521 21.2329H6.64736C6.92827 21.2356 7.19874 21.1265 7.39931 20.9298C7.59987 20.7331 7.71412 20.4648 7.71694 20.1839V20.1669C7.71412 19.886 7.59987 19.6177 7.39931 19.421C7.19874 19.2243 6.92827 19.1153 6.64736 19.1179H5.94521C5.94063 19.1179 5.93611 19.1188 5.93188 19.1206C5.92766 19.1223 5.92382 19.1249 5.92058 19.1281C5.91735 19.1313 5.91478 19.1352 5.91303 19.1394C5.91128 19.1436 5.91038 19.1482 5.91038 19.1527Z" fill="white"/>
<path d="M10.1189 21.4545L9.84675 22.119C9.84404 22.1256 9.8394 22.1313 9.83344 22.1352C9.82748 22.1391 9.82048 22.1412 9.81335 22.1411H8.98043C8.971 22.1411 8.96196 22.1373 8.9553 22.1307C8.94864 22.124 8.94489 22.1149 8.94489 22.1055C8.94415 22.1011 8.94415 22.0965 8.94489 22.092L10.5311 18.2316C10.5338 18.2251 10.5383 18.2196 10.5441 18.2156C10.55 18.2117 10.5568 18.2096 10.5638 18.2096L11.4216 18.2046C11.4288 18.2045 11.4358 18.2065 11.4417 18.2105C11.4477 18.2144 11.4523 18.22 11.455 18.2266L13.042 22.0913C13.0455 22.1 13.0455 22.1097 13.0419 22.1184C13.0383 22.127 13.0314 22.1339 13.0228 22.1375C13.0181 22.1385 13.0133 22.1385 13.0086 22.1375H12.1757C12.1685 22.1376 12.1615 22.1356 12.1556 22.1316C12.1496 22.1277 12.145 22.1221 12.1422 22.1155L11.8708 21.451C11.8681 21.4444 11.8634 21.4388 11.8575 21.4348C11.8515 21.4309 11.8445 21.4288 11.8374 21.429H10.1523C10.1448 21.4291 10.1375 21.4317 10.1314 21.4363C10.1254 21.4409 10.1211 21.4473 10.1189 21.4545ZM10.4743 20.5925C10.4719 20.5981 10.4718 20.6045 10.4741 20.6102C10.4763 20.6159 10.4807 20.6205 10.4864 20.623C10.4896 20.6237 10.493 20.6237 10.4963 20.623H11.4913C11.4974 20.6231 11.5034 20.6207 11.5079 20.6165C11.5124 20.6122 11.5151 20.6065 11.5154 20.6003C11.5162 20.597 11.5162 20.5936 11.5154 20.5904L11.018 19.3822C11.0156 19.3764 11.011 19.3719 11.0053 19.3695C10.9996 19.3671 10.9931 19.3671 10.9874 19.3694C10.9845 19.3705 10.9819 19.3723 10.9797 19.3745C10.9775 19.3767 10.9757 19.3793 10.9746 19.3822L10.4743 20.5925Z" fill="white"/>
<path d="M14.4441 20.9529L15.5698 18.2246C15.5719 18.2197 15.5754 18.2156 15.5798 18.2127C15.5842 18.2098 15.5894 18.2082 15.5947 18.2082H16.4475C16.4547 18.2082 16.4615 18.2111 16.4666 18.2161C16.4717 18.2212 16.4745 18.2281 16.4745 18.2352C16.4752 18.2385 16.4752 18.2419 16.4745 18.2452L14.8847 22.1262C14.8827 22.1313 14.8792 22.1357 14.8746 22.1387C14.87 22.1418 14.8646 22.1434 14.8591 22.1433H13.9878C13.9825 22.1431 13.9773 22.1415 13.9729 22.1384C13.9685 22.1354 13.965 22.1312 13.963 22.1262L12.3654 18.2423C12.364 18.2391 12.3633 18.2356 12.3633 18.232C12.3633 18.2285 12.364 18.225 12.3654 18.2218C12.3668 18.2185 12.3688 18.2156 12.3714 18.2131C12.3739 18.2107 12.377 18.2088 12.3803 18.2075H12.3909H13.2438C13.2491 18.2077 13.2543 18.2093 13.2587 18.2124C13.2631 18.2154 13.2666 18.2196 13.2686 18.2246L14.3943 20.9564C14.3957 20.9597 14.3978 20.9627 14.4003 20.9652C14.4029 20.9676 14.4059 20.9696 14.4092 20.9709C14.4125 20.9722 14.416 20.9729 14.4195 20.9729C14.4231 20.9728 14.4266 20.9721 14.4299 20.9706C14.4334 20.9689 14.4364 20.9664 14.4389 20.9633C14.4413 20.9602 14.4431 20.9567 14.4441 20.9529Z" fill="white"/>
<path d="M24.2881 21.2647V22.1069C24.2881 22.1153 24.2848 22.1235 24.2788 22.1295C24.2728 22.1355 24.2646 22.1388 24.2562 22.1388H21.449C21.4405 22.1388 21.4324 22.1355 21.4264 22.1295C21.4204 22.1235 21.417 22.1153 21.417 22.1069V18.2415C21.417 18.2373 21.4178 18.2331 21.4194 18.2292C21.421 18.2253 21.4234 18.2218 21.4264 18.2188C21.4293 18.2159 21.4329 18.2135 21.4367 18.2119C21.4406 18.2103 21.4448 18.2095 21.449 18.2095H22.2961C22.3003 18.2095 22.3045 18.2103 22.3083 18.2119C22.3122 18.2135 22.3157 18.2159 22.3187 18.2188C22.3217 18.2218 22.324 18.2253 22.3257 18.2292C22.3273 18.2331 22.3281 18.2373 22.3281 18.2415V21.2029C22.3281 21.2113 22.3315 21.2195 22.3375 21.2255C22.3435 21.2315 22.3516 21.2348 22.3601 21.2348H24.2569C24.2654 21.2348 24.2735 21.2382 24.2795 21.2442C24.2855 21.2502 24.2889 21.2583 24.2889 21.2668L24.2881 21.2647Z" fill="white"/>
<path d="M26.0997 22.1392C26.0997 22.1498 26.0955 22.1599 26.088 22.1674C26.0805 22.1748 26.0704 22.179 26.0599 22.179H25.2156C25.205 22.179 25.1949 22.1748 25.1874 22.1674C25.18 22.1599 25.1758 22.1498 25.1758 22.1392V18.239C25.1758 18.2285 25.18 18.2183 25.1874 18.2109C25.1949 18.2034 25.205 18.1992 25.2156 18.1992H26.0599C26.0704 18.1992 26.0805 18.2034 26.088 18.2109C26.0955 18.2183 26.0997 18.2285 26.0997 18.239V22.1392Z" fill="white"/>
<path d="M27.8942 22.141H27.0279C27.022 22.141 27.0164 22.1386 27.0123 22.1345C27.0082 22.1304 27.0059 22.1248 27.0059 22.1189V18.2315C27.0059 18.2257 27.0082 18.2201 27.0123 18.2159C27.0164 18.2118 27.022 18.2095 27.0279 18.2095H27.9027C27.9062 18.2095 27.9096 18.2104 27.9127 18.212C27.9158 18.2136 27.9185 18.2159 27.9205 18.2187L29.5373 20.5718C29.5406 20.5765 29.5456 20.5799 29.5513 20.581C29.557 20.5822 29.5629 20.5812 29.5679 20.5782C29.571 20.5761 29.5735 20.5732 29.5753 20.5698C29.577 20.5665 29.5779 20.5628 29.5778 20.559V18.2322C29.5778 18.2264 29.5801 18.2208 29.5843 18.2166C29.5884 18.2125 29.594 18.2102 29.5998 18.2102H30.4647C30.4706 18.2102 30.4762 18.2125 30.4803 18.2166C30.4845 18.2208 30.4868 18.2264 30.4868 18.2322V22.1225C30.4868 22.1283 30.4845 22.1339 30.4803 22.1381C30.4762 22.1422 30.4706 22.1445 30.4647 22.1445H29.5878C29.5841 22.1445 29.5805 22.1436 29.5773 22.1419C29.574 22.1401 29.5713 22.1376 29.5693 22.1346L27.9525 19.7182C27.9492 19.7135 27.9442 19.7102 27.9385 19.709C27.9328 19.7078 27.9269 19.7088 27.9219 19.7119C27.9188 19.7138 27.9163 19.7165 27.9145 19.7198C27.9128 19.723 27.9119 19.7267 27.912 19.7303L27.9162 22.1253C27.9162 22.1312 27.9139 22.1368 27.9098 22.1409C27.9057 22.145 27.9001 22.1474 27.8942 22.1474V22.141Z" fill="white"/>
<path d="M32.3397 19.924L33.9181 18.2184C33.9203 18.2159 33.923 18.2139 33.9261 18.2126C33.9292 18.2112 33.9325 18.2105 33.9358 18.2106H34.9656C34.972 18.2106 34.9782 18.2131 34.9827 18.2177C34.9872 18.2222 34.9898 18.2283 34.9898 18.2347C34.9899 18.2378 34.9893 18.2408 34.9882 18.2436C34.9871 18.2464 34.9855 18.2489 34.9834 18.2511L33.4988 19.8594C33.4953 19.8636 33.4934 19.8688 33.4934 19.8743C33.4934 19.8797 33.4953 19.885 33.4988 19.8892L34.9962 22.1073C34.9996 22.1126 35.0008 22.119 34.9996 22.1252C34.9984 22.1314 34.9949 22.1369 34.9898 22.1407C34.9858 22.1434 34.9811 22.1449 34.9763 22.1449H34.0595C34.0556 22.1448 34.0517 22.1438 34.0483 22.142C34.0448 22.1401 34.0418 22.1375 34.0396 22.1343L32.948 20.5018C32.9463 20.4991 32.944 20.4968 32.9414 20.4951C32.9388 20.4933 32.9358 20.4921 32.9327 20.4915C32.9295 20.4909 32.9263 20.4909 32.9232 20.4916C32.9201 20.4923 32.9172 20.4936 32.9146 20.4954L32.9103 20.499L32.3041 21.1528C32.302 21.155 32.3004 21.1575 32.2993 21.1603C32.2982 21.1631 32.2977 21.1661 32.2977 21.1692V22.1172C32.2977 22.1236 32.2952 22.1298 32.2906 22.1343C32.2861 22.1388 32.28 22.1414 32.2736 22.1414H31.4158C31.4094 22.1414 31.4032 22.1388 31.3987 22.1343C31.3941 22.1298 31.3916 22.1236 31.3916 22.1172V18.2362C31.3916 18.2298 31.3941 18.2236 31.3987 18.2191C31.4032 18.2146 31.4094 18.212 31.4158 18.212L32.2743 18.207C32.2774 18.207 32.2806 18.2077 32.2835 18.2089C32.2864 18.2101 32.2891 18.2119 32.2914 18.2141C32.2936 18.2164 32.2954 18.219 32.2966 18.2219C32.2978 18.2249 32.2984 18.228 32.2984 18.2312V19.9077C32.2984 19.9141 32.301 19.9202 32.3055 19.9248C32.31 19.9293 32.3162 19.9319 32.3226 19.9319C32.3258 19.9318 32.329 19.9311 32.3319 19.9297C32.3349 19.9284 32.3375 19.9264 32.3397 19.924Z" fill="white"/>
<path d="M20.5103 20.1741C20.5103 20.5622 20.3952 20.9416 20.1796 21.2642C19.964 21.5869 19.6576 21.8384 19.299 21.9869C18.9405 22.1354 18.546 22.1743 18.1653 22.0986C17.7847 22.0229 17.4351 21.836 17.1607 21.5616C16.8862 21.2872 16.6994 20.9375 16.6236 20.5569C16.5479 20.1763 16.5868 19.7818 16.7353 19.4232C16.8838 19.0647 17.1353 18.7582 17.458 18.5426C17.7807 18.327 18.16 18.2119 18.5481 18.2119C18.8058 18.2119 19.061 18.2627 19.299 18.3613C19.5371 18.4599 19.7534 18.6044 19.9356 18.7866C20.1178 18.9688 20.2623 19.1851 20.361 19.4232C20.4596 19.6613 20.5103 19.9164 20.5103 20.1741ZM19.6014 20.1741C19.6008 19.895 19.4895 19.6274 19.2919 19.4302C19.0943 19.233 18.8266 19.1223 18.5474 19.1223C18.2683 19.1223 18.0005 19.233 17.8029 19.4302C17.6053 19.6274 17.494 19.895 17.4935 20.1741C17.4935 20.4536 17.6045 20.7217 17.8022 20.9194C17.9998 21.117 18.2679 21.228 18.5474 21.228C18.8269 21.228 19.095 21.117 19.2927 20.9194C19.4903 20.7217 19.6014 20.4536 19.6014 20.1741Z" fill="white"/>
<circle cx="20" cy="20" r="19.5" stroke="black" stroke-opacity="0.05"/>
</svg>
