<svg width="40" height="40" viewBox="0 0 40 40" fill="none" xmlns="http://www.w3.org/2000/svg">
<circle cx="20" cy="20" r="20" fill="#F6F8FA"/>
<g clip-path="url(#clip0_36332_73904)">
<path d="M19.7312 9H19.7219H19.6985H19.6845H19.6611H19.6471L19.6237 9.00472H19.605H19.5863H19.5723L19.5536 9.00945H19.5396H19.5162H19.5022H19.4835H19.4461H19.4367L19.4134 9.01419L19.3994 9.01892H19.376H19.362L19.3433 9.02364L19.3292 9.02837H19.3059L19.2965 9.0331L19.2732 9.03782H19.2638L19.2404 9.04256H19.2311L19.0768 9.07566L19.0441 9.08511L19.0114 9.09456C18.8338 9.14185 18.6562 9.20806 18.4926 9.28372L18.4879 9.28844L18.4598 9.2979L18.4552 9.30262L18.4318 9.31681H18.4271L18.4038 9.33099L18.3944 9.33572L18.3757 9.34991L18.3664 9.35464L18.3383 9.36883L18.3149 9.37828H18.3103L18.2822 9.39247L18.2775 9.3972C18.0485 9.5296 17.8382 9.6951 17.6512 9.88424L17.3941 10.1774L17.3848 10.1916L17.3708 10.2058C17.1043 10.5652 16.9174 10.9813 16.8286 11.4352L16.8239 11.4778L15.861 15.8233C15.7862 16.178 15.7441 16.4995 15.7441 16.8021C15.7441 18.6794 17.2399 19.5494 19.7686 19.7764C22.2974 20.0034 23.7931 20.8734 23.7931 22.7507C23.7931 23.0486 23.7557 23.3749 23.6762 23.7248L23.6716 23.7342L26.8313 23.0344L28.07 22.7554L28.1775 22.7318L28.2055 22.727L28.2195 22.7223L28.2336 22.7176C28.6075 22.6277 28.9487 22.467 29.2525 22.2542L29.2572 22.2495L29.2759 22.24L29.2853 22.2305L29.2993 22.2211L29.3133 22.2116L29.3227 22.2022L29.3414 22.188L29.3507 22.1833L29.3694 22.1643L29.3741 22.1596L29.561 21.9988L29.5844 21.9752L29.6078 21.9516L29.6312 21.9279H29.6358L29.6592 21.9043L29.6826 21.8806L29.7013 21.8664L29.7059 21.8617L29.7246 21.8381V21.8333C30.1219 21.3983 30.393 20.8403 30.4819 20.2304L30.4865 20.202V20.1925L30.4912 20.1689V20.1642V20.1358V20.1311L30.4959 20.1027V20.098L30.5006 20.0649V20.0601L30.5052 19.9987V19.9845V19.9656V19.9514V19.9325V19.9183V19.8946V19.8852V19.8615V19.8521V19.8284V19.8142V19.7811C30.5052 18.2916 29.4442 17.0528 28.0419 16.7974L23.6762 15.8328L22.7134 11.4872C22.461 10.0734 21.241 9 19.7686 9H19.7312Z" fill="url(#paint0_linear_36332_73904)"/>
<path d="M19.7312 9H19.7219H19.6985H19.6845H19.6611H19.6471L19.6237 9.00472H19.605H19.5863H19.5723L19.5536 9.00945H19.5396H19.5162H19.5022H19.4835H19.4461H19.4367L19.4134 9.01419L19.3994 9.01892H19.376H19.362L19.3433 9.02364L19.3292 9.02837H19.3059L19.2965 9.0331L19.2732 9.03782H19.2638L19.2404 9.04256H19.2311L19.0768 9.07566L19.0441 9.08511L19.0114 9.09456C18.8338 9.14185 18.6562 9.20806 18.4926 9.28372L18.4879 9.28844L18.4598 9.2979L18.4552 9.30262L18.4318 9.31681H18.4271L18.4038 9.33099L18.3944 9.33572L18.3757 9.34991L18.3664 9.35464L18.3383 9.36883L18.3149 9.37828H18.3103L18.2822 9.39247L18.2775 9.3972C18.0485 9.5296 17.8382 9.6951 17.6512 9.88424L17.3941 10.1774L17.3848 10.1916L17.3708 10.2058C17.1043 10.5652 16.9174 10.9813 16.8286 11.4352L16.8239 11.4778L15.861 15.8233C15.7862 16.178 15.7441 16.4995 15.7441 16.8021C15.7441 18.6794 17.2399 19.5494 19.7686 19.7764C22.2974 20.0034 23.7931 20.8734 23.7931 22.7507C23.7931 23.0486 23.7557 23.3749 23.6762 23.7248L23.6716 23.7342L26.8313 23.0344L28.07 22.7554L28.1775 22.7318L28.2055 22.727L28.2195 22.7223L28.2336 22.7176C28.6075 22.6277 28.9487 22.467 29.2525 22.2542L29.2572 22.2495L29.2759 22.24L29.2853 22.2305L29.2993 22.2211L29.3133 22.2116L29.3227 22.2022L29.3414 22.188L29.3507 22.1833L29.3694 22.1643L29.3741 22.1596L29.561 21.9988L29.5844 21.9752L29.6078 21.9516L29.6312 21.9279H29.6358L29.6592 21.9043L29.6826 21.8806L29.7013 21.8664L29.7059 21.8617L29.7246 21.8381V21.8333C30.1219 21.3983 30.393 20.8403 30.4819 20.2304L30.4865 20.202V20.1925L30.4912 20.1689V20.1642V20.1358V20.1311L30.4959 20.1027V20.098L30.5006 20.0649V20.0601L30.5052 19.9987V19.9845V19.9656V19.9514V19.9325V19.9183V19.8946V19.8852V19.8615V19.8521V19.8284V19.8142V19.7811C30.5052 18.2916 29.4442 17.0528 28.0419 16.7974L23.6762 15.8328L22.7134 11.4872C22.461 10.0734 21.241 9 19.7686 9H19.7312Z" fill="url(#paint1_linear_36332_73904)"/>
<path d="M19.7312 9H19.7219H19.6985H19.6845H19.6611H19.6471L19.6237 9.00472H19.605H19.5863H19.5723L19.5536 9.00945H19.5396H19.5162H19.5022H19.4835H19.4461H19.4367L19.4134 9.01419L19.3994 9.01892H19.376H19.362L19.3433 9.02364L19.3292 9.02837H19.3059L19.2965 9.0331L19.2732 9.03782H19.2638L19.2404 9.04256H19.2311L19.0768 9.07566L19.0441 9.08511L19.0114 9.09456C18.8338 9.14185 18.6562 9.20806 18.4926 9.28372L18.4879 9.28844L18.4598 9.2979L18.4552 9.30262L18.4318 9.31681H18.4271L18.4038 9.33099L18.3944 9.33572L18.3757 9.34991L18.3664 9.35464L18.3383 9.36883L18.3149 9.37828H18.3103L18.2822 9.39247L18.2775 9.3972C18.0485 9.5296 17.8382 9.6951 17.6512 9.88424L17.3941 10.1774L17.3848 10.1916L17.3708 10.2058C17.1043 10.5652 16.9174 10.9813 16.8286 11.4352L16.8239 11.4778L15.861 15.8233C15.7862 16.178 15.7441 16.4995 15.7441 16.8021C15.7441 18.6794 17.2399 19.5494 19.7686 19.7764C22.2974 20.0034 23.7931 20.8734 23.7931 22.7507C23.7931 23.0486 23.7557 23.3749 23.6762 23.7248L23.6716 23.7342L26.8313 23.0344L28.07 22.7554L28.1775 22.7318L28.2055 22.727L28.2195 22.7223L28.2336 22.7176C28.6075 22.6277 28.9487 22.467 29.2525 22.2542L29.2572 22.2495L29.2759 22.24L29.2853 22.2305L29.2993 22.2211L29.3133 22.2116L29.3227 22.2022L29.3414 22.188L29.3507 22.1833L29.3694 22.1643L29.3741 22.1596L29.561 21.9988L29.5844 21.9752L29.6078 21.9516L29.6312 21.9279H29.6358L29.6592 21.9043L29.6826 21.8806L29.7013 21.8664L29.7059 21.8617L29.7246 21.8381V21.8333C30.1219 21.3983 30.393 20.8403 30.4819 20.2304L30.4865 20.202V20.1925L30.4912 20.1689V20.1642V20.1358V20.1311L30.4959 20.1027V20.098L30.5006 20.0649V20.0601L30.5052 19.9987V19.9845V19.9656V19.9514V19.9325V19.9183V19.8946V19.8852V19.8615V19.8521V19.8284V19.8142V19.7811C30.5052 18.2916 29.4442 17.0528 28.0419 16.7974L23.6762 15.8328L22.7134 11.4872C22.461 10.0734 21.241 9 19.7686 9H19.7312Z" fill="url(#paint2_linear_36332_73904)"/>
<path d="M11.4633 16.8022C10.0657 17.0576 9 18.2964 9 19.7859C9 21.2754 10.061 22.5096 11.4633 22.7649L15.8617 23.7343L16.8246 28.0751C17.077 29.4937 18.297 30.5624 19.774 30.5624C21.2464 30.5624 22.471 29.489 22.7187 28.0751L23.6816 23.7296C24.0976 21.8334 23.3591 20.7222 21.7512 20.1642H21.7465L21.7044 20.1548L21.6951 20.15L21.6577 20.1358L21.5595 20.1027H21.5549C21.0547 19.9514 20.4751 19.8474 19.8254 19.7859L19.7693 19.7812L19.7086 19.7765C17.2172 19.5448 15.7448 18.6653 15.7448 16.8069V16.7549V16.7502V16.7029V16.6934V16.6462V16.632V16.5894V16.5752L15.7495 16.5327V16.5185L15.7542 16.4807L15.7682 16.3672V16.353L15.7729 16.3104V16.2962L15.7776 16.2537V16.2348L15.7822 16.1922V16.1733L15.7869 16.1307L15.7916 16.1118L15.7963 16.0693L15.8009 16.0504L15.8056 16.0125L15.815 15.9889L15.8196 15.9511L15.8243 15.9227L15.8337 15.8896L15.8477 15.8281L11.4633 16.8022Z" fill="url(#paint3_linear_36332_73904)"/>
<path d="M11.4633 16.8022C10.0657 17.0576 9 18.2964 9 19.7859C9 21.2754 10.061 22.5096 11.4633 22.7649L15.8617 23.7343L16.8246 28.0751C17.077 29.4937 18.297 30.5624 19.774 30.5624C21.2464 30.5624 22.471 29.489 22.7187 28.0751L23.6816 23.7296C24.0976 21.8334 23.3591 20.7222 21.7512 20.1642H21.7465L21.7044 20.1548L21.6951 20.15L21.6577 20.1358L21.5595 20.1027H21.5549C21.0547 19.9514 20.4751 19.8474 19.8254 19.7859L19.7693 19.7812L19.7086 19.7765C17.2172 19.5448 15.7448 18.6653 15.7448 16.8069V16.7549V16.7502V16.7029V16.6934V16.6462V16.632V16.5894V16.5752L15.7495 16.5327V16.5185L15.7542 16.4807L15.7682 16.3672V16.353L15.7729 16.3104V16.2962L15.7776 16.2537V16.2348L15.7822 16.1922V16.1733L15.7869 16.1307L15.7916 16.1118L15.7963 16.0693L15.8009 16.0504L15.8056 16.0125L15.815 15.9889L15.8196 15.9511L15.8243 15.9227L15.8337 15.8896L15.8477 15.8281L11.4633 16.8022Z" fill="url(#paint4_linear_36332_73904)"/>
<path d="M11.4633 16.8022C10.0657 17.0576 9 18.2964 9 19.7859C9 21.2754 10.061 22.5096 11.4633 22.7649L15.8617 23.7343L16.8246 28.0751C17.077 29.4937 18.297 30.5624 19.774 30.5624C21.2464 30.5624 22.471 29.489 22.7187 28.0751L23.6816 23.7296C24.0976 21.8334 23.3591 20.7222 21.7512 20.1642H21.7465L21.7044 20.1548L21.6951 20.15L21.6577 20.1358L21.5595 20.1027H21.5549C21.0547 19.9514 20.4751 19.8474 19.8254 19.7859L19.7693 19.7812L19.7086 19.7765C17.2172 19.5448 15.7448 18.6653 15.7448 16.8069V16.7549V16.7502V16.7029V16.6934V16.6462V16.632V16.5894V16.5752L15.7495 16.5327V16.5185L15.7542 16.4807L15.7682 16.3672V16.353L15.7729 16.3104V16.2962L15.7776 16.2537V16.2348L15.7822 16.1922V16.1733L15.7869 16.1307L15.7916 16.1118L15.7963 16.0693L15.8009 16.0504L15.8056 16.0125L15.815 15.9889L15.8196 15.9511L15.8243 15.9227L15.8337 15.8896L15.8477 15.8281L11.4633 16.8022Z" fill="url(#paint5_linear_36332_73904)"/>
</g>
<circle cx="20" cy="20" r="19.5" stroke="black" stroke-opacity="0.05"/>
<defs>
<linearGradient id="paint0_linear_36332_73904" x1="19.499" y1="9" x2="19.499" y2="19.5" gradientUnits="userSpaceOnUse">
<stop stop-color="#E41322"/>
<stop offset="1" stop-color="#FBD24D"/>
</linearGradient>
<linearGradient id="paint1_linear_36332_73904" x1="29.499" y1="18" x2="21.499" y2="19.5" gradientUnits="userSpaceOnUse">
<stop stop-color="#E41322"/>
<stop offset="1" stop-color="#FBD24D" stop-opacity="0"/>
</linearGradient>
<linearGradient id="paint2_linear_36332_73904" x1="23.999" y1="24.5" x2="21.499" y2="20" gradientUnits="userSpaceOnUse">
<stop stop-color="#E41322"/>
<stop offset="1" stop-color="#F7C448" stop-opacity="0"/>
</linearGradient>
<linearGradient id="paint3_linear_36332_73904" x1="15.5" y1="15.5" x2="16.5" y2="22" gradientUnits="userSpaceOnUse">
<stop stop-color="#007F3E"/>
<stop offset="0.355727" stop-color="#61AB1C"/>
<stop offset="1" stop-color="#B0CF00"/>
</linearGradient>
<linearGradient id="paint4_linear_36332_73904" x1="16.5" y1="30" x2="16.5" y2="21" gradientUnits="userSpaceOnUse">
<stop stop-color="#007F3E"/>
<stop offset="1" stop-color="#B0CF00" stop-opacity="0"/>
</linearGradient>
<linearGradient id="paint5_linear_36332_73904" x1="8.5" y1="25" x2="15" y2="21" gradientUnits="userSpaceOnUse">
<stop stop-color="#007F3E"/>
<stop offset="1" stop-color="#B0CF00" stop-opacity="0"/>
</linearGradient>
<clipPath id="clip0_36332_73904">
<rect width="22" height="22" fill="white" transform="translate(9 9)"/>
</clipPath>
</defs>
</svg>
