<svg width="40" height="40" viewBox="0 0 40 40" fill="none" xmlns="http://www.w3.org/2000/svg">
<circle cx="20" cy="20" r="20" fill="#32974F"/>
<circle cx="20" cy="20" r="19.5" stroke="black" stroke-opacity="0.05"/>
<g clip-path="url(#clip0_18695_29054)">
<path d="M15.2744 16.7245C15.3358 16.6906 15.3581 16.617 15.3246 16.5548C15.3246 16.5435 15.3135 16.5378 15.3079 16.5321C15.1015 16.3001 14.9007 16.1247 14.7836 15.8192C14.5828 15.2703 14.4823 14.9138 14.4823 14.744C14.4545 13.3577 15.029 12.3618 16.2115 11.7619C16.7749 11.4734 17.3215 11.3998 17.857 11.5469C19.1455 11.8921 20.1272 12.888 20.3336 14.2574C20.4228 14.8572 20.289 15.4514 20.1718 16.0342C20.1551 16.1077 20.0938 16.1643 20.0157 16.17C19.9208 16.17 19.8762 16.1077 19.8706 15.9719C19.8595 15.2137 19.8818 14.4781 19.6754 13.7425C19.6029 13.4878 19.4802 13.2784 19.3073 13.1313C18.7829 12.673 18.1861 12.5145 17.5223 12.6617C17.1932 12.7296 16.9255 12.888 16.7079 13.1257C15.9995 13.9179 15.9717 15.0213 16.6912 15.8192C17.0872 16.2605 17.6171 16.2832 18.1638 16.3115C18.2251 16.3115 18.2586 16.3454 18.2698 16.4077C18.2753 16.4416 18.2698 16.4756 18.2475 16.5038C18.2196 16.5321 18.1917 16.5548 18.1526 16.5548C16.4458 16.7811 15.0457 17.5677 13.958 18.9144C13.6624 19.2822 13.3891 19.7745 13.1492 20.3856C12.9373 20.9232 12.8871 21.4778 12.8815 22.0606C12.8703 23.4696 13.244 24.7201 14.0026 25.8066C14.8895 27.0741 16.0999 27.9003 17.6283 28.2964C18.8276 28.6076 19.9431 28.5397 21.148 28.3247C23.0333 27.9908 24.6844 26.6667 25.231 24.8333C25.6048 23.5828 25.7275 21.9757 25.0916 20.7817C23.8031 18.3768 20.8245 17.7487 18.8164 19.701C18.2196 20.2838 17.7343 20.7931 17.6395 21.6645C17.4833 23.1074 17.6673 24.4768 19.0451 25.2124C19.3352 25.3652 19.5862 25.3992 19.9153 25.4218C20.6962 25.4784 21.3376 25.4161 21.8396 25.2351C22.1632 25.1219 22.1966 25.1785 21.9345 25.4048C21.4436 25.8405 20.395 26.0612 19.8037 26.1065C18.6323 26.1914 17.5056 25.5916 16.853 24.5504C16.0107 23.198 16.3286 21.4042 17.3104 20.1706C18.8331 18.258 20.7798 17.2451 23.1058 16.4133C24.4836 15.921 25.839 15.3948 27.1777 14.8289C27.5124 14.6874 27.9642 14.4554 27.9921 14.0424C28.02 13.5953 27.9419 13.1992 27.7523 12.8654C27.6909 12.7579 27.7188 12.6843 27.8303 12.6447C27.8917 12.6221 27.9586 12.6221 28.0256 12.639C28.0981 12.656 28.1594 12.6843 28.2264 12.7239C28.918 13.1709 29.1635 13.8047 28.9627 14.6195C28.7619 15.4287 27.7355 15.904 26.9602 16.1474C25.5824 16.5887 24.2549 16.9848 22.9887 17.3357C22.47 17.4771 22.4588 17.6582 22.9552 17.8619C24.0764 18.3259 25.0023 18.9936 25.7386 19.8481C26.2239 20.4083 26.5586 21.1156 26.7594 21.9644C26.8933 22.5416 26.8709 23.1923 26.698 23.9223C26.3912 25.2181 25.7609 26.3045 24.8127 27.1816C24.0206 27.9116 23.1951 28.4435 22.3472 28.7773C19.5081 29.8864 16.8195 29.6657 14.2815 28.121C10.7061 25.9424 9.81362 21.3929 12.9763 18.3599C13.6345 17.7318 14.3987 17.1885 15.2744 16.7302V16.7245Z" fill="white"/>
<path d="M22.399 23.9024C23.6495 23.0786 24.077 21.495 23.3538 20.3653C22.6307 19.2357 21.0308 18.9878 19.7803 19.8116C18.5298 20.6354 18.1023 22.219 18.8255 23.3486C19.5486 24.4783 21.1485 24.7262 22.399 23.9024Z" fill="white"/>
</g>
<defs>
<clipPath id="clip0_18695_29054">
<rect width="18" height="18" fill="white" transform="translate(11.0352 11.4736)"/>
</clipPath>
</defs>
</svg>
