<svg width="40" height="40" viewBox="0 0 40 40" fill="none" xmlns="http://www.w3.org/2000/svg">
<circle cx="20" cy="20" r="20" fill="#004098"/>
<g clip-path="url(#clip0_14382_20091)">
<path d="M29.1752 26.2286C29.6078 26.2286 30.0308 25.8781 30.1185 25.4442L31.9695 15.4572C32.0579 15.0244 31.7785 14.6732 31.3832 14.6732H11.0333C10.5629 14.6732 10.1401 15.0244 10.0508 15.4572L8.0159 25.444C7.92887 25.8778 8.20777 26.2286 8.64096 26.2286H29.1752Z" fill="white"/>
<path d="M17.5014 18.7754L16.708 22.6404C16.708 22.6404 16.1691 24.8664 19.0961 24.8664C19.0961 24.8664 21.6724 24.9543 22.3858 22.9037L22.6192 21.7624H20.6126L20.4251 22.6692C20.4251 22.6692 20.2273 23.4314 19.4029 23.3725C19.4029 23.3725 18.5486 23.4613 18.733 22.7578L19.55 18.7754C19.55 18.7754 19.5741 18.1165 20.495 18.0435C20.495 18.0435 21.3322 18.0435 21.2425 18.6875L21.0381 19.6822H23.0462L23.2497 18.6875C23.2497 18.6875 23.6458 16.5501 20.7895 16.6083C20.7895 16.6083 18.0462 16.7253 17.5016 18.7754M23.6152 18.7754L22.824 22.6404C22.824 22.6404 22.2845 24.8664 25.2128 24.8664C25.2128 24.8664 27.7886 24.9543 28.5007 22.9037L28.7352 21.7624H26.7275L26.5407 22.6692C26.5407 22.6692 26.3429 23.4314 25.519 23.3725C25.519 23.3725 24.6642 23.4613 24.8504 22.7578L25.6658 18.7754C25.6658 18.7754 25.6882 18.1165 26.6108 18.0435C26.6108 18.0435 27.4478 18.0435 27.3572 18.6875L27.1537 19.6822H29.1614L29.3649 18.6875C29.3649 18.6875 29.7612 16.5501 26.9045 16.6083C26.9045 16.6083 24.1607 16.7253 23.6152 18.7754Z" fill="#004098"/>
<path d="M20.2753 14.6743L17.9518 14.673L13.8459 19.1477L14.5 16.2323L12.3793 16.2299L10.5635 24.6596H12.6852L13.1747 22.3066L13.7235 21.6747L14.4531 24.6613H16.5556L15.3336 20.0712L20.2753 14.6743Z" fill="#004098"/>
<path d="M21.8097 13.0007L19.4789 13L17.9517 14.6732L20.2745 14.6719L21.8097 13.0007Z" fill="#E70012"/>
</g>
<circle cx="20" cy="20" r="19.5" stroke="black" stroke-opacity="0.05"/>
<defs>
<clipPath id="clip0_14382_20091">
<rect width="24" height="13.2308" fill="white" transform="translate(8 13)"/>
</clipPath>
</defs>
</svg>
