<svg width="40" height="40" viewBox="0 0 40 40" fill="none" xmlns="http://www.w3.org/2000/svg">
<circle cx="20" cy="20" r="20" fill="#F6F8FA"/>
<path d="M34.9804 12.5H34.9998V27.4744H34.9784L29.7654 25.2375C29.7603 25.2353 29.7559 25.2317 29.7528 25.2271C29.7497 25.2224 29.748 25.217 29.748 25.2114V22.4659C29.748 22.4429 29.7583 22.4363 29.7792 22.446C31.0656 23.0496 33.0572 22.632 32.7736 20.7916C32.6438 19.9499 31.8026 19.6903 31.1106 19.4557C30.8325 19.3612 30.4334 19.1971 30.4109 18.8552C30.3848 18.4566 30.8198 18.3308 31.1264 18.3329C31.4887 18.3344 31.8418 18.4468 32.1383 18.6549C32.1418 18.6578 32.1458 18.66 32.1502 18.6612C32.1546 18.6624 32.1592 18.6626 32.1637 18.6618C32.1682 18.6609 32.1724 18.6591 32.1761 18.6564C32.1797 18.6537 32.1827 18.6502 32.1848 18.6462L32.7726 17.8024C32.7746 17.7995 32.7761 17.7962 32.7769 17.7927C32.7777 17.7892 32.7777 17.7856 32.7771 17.7821C32.7765 17.7786 32.7752 17.7752 32.7733 17.7722C32.7714 17.7692 32.7689 17.7666 32.7659 17.7646C31.8848 17.233 30.6399 17.0348 29.7649 17.6721C29.7631 17.6737 29.7607 17.6747 29.7583 17.6747C29.7558 17.6747 29.7534 17.6737 29.7516 17.6721C29.751 17.6701 29.751 17.6679 29.7516 17.6659V14.763C29.7516 14.7575 29.7533 14.752 29.7563 14.7474C29.7594 14.7427 29.7638 14.7391 29.769 14.737L34.9804 12.5Z" fill="#01B6ED"/>
<path d="M22.1324 22.5757V18.6915C22.1324 18.6016 22.1447 18.6001 22.1692 18.6864L23.2736 22.5788C23.2751 22.587 23.2796 22.5943 23.2862 22.5994C23.2928 22.6045 23.3011 22.607 23.3094 22.6064H24.1384C24.1465 22.607 24.1546 22.6047 24.1611 22.5998C24.1676 22.5949 24.172 22.5878 24.1736 22.5798L25.3287 18.6854C25.3537 18.6001 25.3665 18.6021 25.3665 18.691V22.5793C25.366 22.5829 25.3663 22.5866 25.3675 22.59C25.3686 22.5935 25.3706 22.5966 25.3731 22.5992C25.3757 22.6018 25.3788 22.6037 25.3823 22.6049C25.3858 22.606 25.3894 22.6064 25.3931 22.6059H26.5016C26.505 22.6063 26.5085 22.6061 26.5118 22.605C26.5151 22.6039 26.5181 22.6021 26.5205 22.5997C26.523 22.5972 26.5249 22.5943 26.526 22.591C26.5272 22.5877 26.5276 22.5842 26.5271 22.5808V17.3934C26.527 17.3872 26.5245 17.3813 26.5201 17.3769C26.5157 17.3726 26.5098 17.37 26.5036 17.3699H24.8053C24.7987 17.3699 24.7922 17.3721 24.7869 17.376C24.7816 17.38 24.7776 17.3855 24.7757 17.3919L23.7745 20.7251C23.7574 20.7813 23.7404 20.7813 23.7234 20.7251L22.7278 17.3847C22.7268 17.3802 22.7243 17.3762 22.7207 17.3734C22.717 17.3706 22.7125 17.3692 22.7079 17.3694H21.468C21.4604 17.3694 21.453 17.3664 21.4476 17.361C21.4421 17.3557 21.439 17.3484 21.4389 17.3408L21.4189 14.4016C21.4189 14.395 21.421 14.3887 21.425 14.3835C21.429 14.3783 21.4346 14.3746 21.4409 14.373L27.4021 12.8863C27.4042 12.8857 27.4063 12.8856 27.4085 12.8859C27.4106 12.8862 27.4126 12.8869 27.4145 12.888C27.4163 12.8891 27.418 12.8905 27.4192 12.8923C27.4205 12.894 27.4215 12.8959 27.422 12.898C27.4223 12.8994 27.4223 12.9008 27.422 12.9021L27.5017 27.0655C27.5017 27.0683 27.5012 27.0712 27.5001 27.0738C27.4989 27.0764 27.4973 27.0788 27.4953 27.0808C27.4932 27.0828 27.4908 27.0844 27.4881 27.0855C27.4855 27.0865 27.4826 27.087 27.4798 27.0869H27.4747L21.5227 25.6007C21.5152 25.5996 21.5084 25.5956 21.5038 25.5896C21.4991 25.5836 21.4969 25.5761 21.4977 25.5685L21.4777 22.6416C21.477 22.6371 21.4773 22.6325 21.4786 22.6281C21.48 22.6237 21.4823 22.6198 21.4855 22.6165C21.4887 22.6132 21.4926 22.6107 21.497 22.6092C21.5013 22.6077 21.5059 22.6073 21.5104 22.6079H22.1002C22.1046 22.6085 22.109 22.6081 22.1132 22.6067C22.1174 22.6052 22.1212 22.6029 22.1243 22.5998C22.1274 22.5967 22.1298 22.5929 22.1312 22.5887C22.1326 22.5845 22.133 22.5801 22.1324 22.5757Z" fill="#0188CC"/>
<path d="M20.0004 13.2696V26.7047C20.0004 26.7101 19.9982 26.7153 19.9944 26.7191C19.9905 26.723 19.9853 26.7251 19.9799 26.7251L13.2665 25.981C13.2613 25.9806 13.2566 25.9783 13.2532 25.9744C13.2497 25.9706 13.2479 25.9657 13.2481 25.9605V14.0137C13.2479 14.0086 13.2497 14.0036 13.2532 13.9998C13.2566 13.996 13.2613 13.9936 13.2665 13.9933L19.9779 13.2491C19.9806 13.2489 19.9833 13.2491 19.9859 13.2499C19.9884 13.2507 19.9909 13.2519 19.9929 13.2536C19.995 13.2554 19.9968 13.2575 19.998 13.2598C19.9993 13.2622 20.0001 13.2648 20.0004 13.2675V13.2696ZM17.2043 17.3858C17.2043 17.3831 17.2039 17.3805 17.2029 17.3781C17.2019 17.3756 17.2005 17.3734 17.1986 17.3715C17.1967 17.3696 17.1945 17.3682 17.192 17.3672C17.1896 17.3662 17.187 17.3658 17.1843 17.3658H16.0661C16.0635 17.3658 16.0609 17.3662 16.0584 17.3672C16.056 17.3682 16.0537 17.3696 16.0519 17.3715C16.05 17.3734 16.0485 17.3756 16.0476 17.3781C16.0466 17.3805 16.0461 17.3831 16.0462 17.3858V22.5885C16.0461 22.5911 16.0466 22.5937 16.0476 22.5962C16.0485 22.5986 16.05 22.6009 16.0519 22.6027C16.0537 22.6046 16.056 22.6061 16.0584 22.607C16.0609 22.608 16.0635 22.6085 16.0661 22.6084H17.1843C17.187 22.6085 17.1896 22.608 17.192 22.607C17.1945 22.6061 17.1967 22.6046 17.1986 22.6027C17.2005 22.6009 17.2019 22.5986 17.2029 22.5962C17.2039 22.5937 17.2043 22.5911 17.2043 22.5885V17.3858Z" fill="#1B569A"/>
<path d="M5 13.6243H12.4744C12.4779 13.6238 12.4815 13.6241 12.4848 13.6252C12.4881 13.6263 12.4912 13.6281 12.4937 13.6306C12.4961 13.6331 12.498 13.6361 12.4991 13.6395C12.5002 13.6428 12.5005 13.6463 12.5 13.6498V26.3224C12.5005 26.3259 12.5002 26.3294 12.4991 26.3328C12.498 26.3362 12.4961 26.3392 12.4936 26.3417C12.4912 26.3442 12.4882 26.3462 12.4848 26.3473C12.4815 26.3485 12.4779 26.3489 12.4744 26.3485L5 26.35V13.6243ZM8.1385 21.0461C8.43765 21.0532 8.74429 21.0532 9.05843 21.0461C9.90835 21.0236 10.6504 20.672 10.8298 19.7684C11.0179 18.8224 10.7884 17.7522 9.72794 17.4686C9.53112 17.4136 9.32855 17.3819 9.12436 17.374C8.66303 17.3614 7.94378 17.3595 6.96661 17.3684C6.96302 17.368 6.95939 17.3684 6.95598 17.3696C6.95257 17.3708 6.94947 17.3727 6.94692 17.3753C6.94436 17.3778 6.94242 17.3809 6.94122 17.3843C6.94003 17.3877 6.93963 17.3914 6.94003 17.395V22.5808C6.93953 22.5846 6.93989 22.5884 6.9411 22.592C6.94231 22.5955 6.94433 22.5988 6.947 22.6015C6.94967 22.6041 6.95292 22.6061 6.9565 22.6074C6.96008 22.6086 6.96389 22.6089 6.96763 22.6084H8.06899C8.07316 22.609 8.07741 22.6086 8.0814 22.6073C8.0854 22.606 8.08902 22.6037 8.092 22.6008C8.09498 22.5978 8.09722 22.5942 8.09855 22.5902C8.09988 22.5862 8.10026 22.5819 8.09966 22.5778V21.0859C8.0987 21.0806 8.09904 21.0751 8.10064 21.0699C8.10223 21.0647 8.10505 21.0599 8.10884 21.056C8.11264 21.0521 8.11731 21.0492 8.12247 21.0475C8.12762 21.0457 8.13312 21.0453 8.1385 21.0461Z" fill="#0F325C"/>
<path d="M8.10179 18.36C8.10192 18.3563 8.10347 18.3527 8.10612 18.35C8.10878 18.3474 8.11235 18.3458 8.1161 18.3457L8.87607 18.3483C9.32121 18.3483 9.68101 18.6922 9.67947 19.1149V19.3132C9.67947 19.7338 9.3161 20.0742 8.87096 20.0726H8.11099C8.10724 20.0725 8.10367 20.0709 8.10101 20.0683C8.09836 20.0656 8.09681 20.0621 8.09668 20.0583L8.10179 18.36Z" fill="#0F325C"/>
<path d="M29.7828 19.9587C30.2836 20.3364 30.9429 20.3834 31.4407 20.7457C31.7652 20.9818 31.7116 21.4326 31.3313 21.5737C30.8177 21.7648 30.1978 21.5522 29.7715 21.2323C29.7646 21.2271 29.7589 21.2204 29.755 21.2127C29.7511 21.205 29.749 21.1965 29.749 21.1878V19.9761C29.7485 19.9474 29.7598 19.9418 29.7828 19.9587Z" fill="#01B6ED"/>
<circle cx="20" cy="20" r="19.5" stroke="black" stroke-opacity="0.05"/>
</svg>
