<svg width="40" height="40" viewBox="0 0 40 40" fill="none" xmlns="http://www.w3.org/2000/svg">
<circle cx="20" cy="20" r="20" fill="#F6F8FA"/>
<g clip-path="url(#clip0_22954_39984)">
<path d="M22.4946 19.6708C20.8477 20.3213 19.4251 21.2999 18.3508 22.7063C16.7216 23.4564 15.0098 23.9076 13.233 24.06C12.7018 24.1069 12.2118 24.1127 11.7691 24.0834C11.1965 24.0483 11.1021 23.6205 11.0962 23.1576C11.0844 22.595 11.2438 22.0266 11.5625 21.4523C12.9674 18.9325 14.7205 16.6705 16.6449 14.4437C16.698 14.3792 16.6862 14.3558 16.6036 14.3675C15.1751 14.5667 13.7407 14.93 12.3063 15.4457C12.0465 15.5395 11.7986 15.6508 11.5507 15.7798C11.5212 15.7973 11.5094 15.8325 11.5153 15.8618C11.5271 15.9087 11.5566 15.9263 11.592 15.9263C12.1469 15.8618 12.6604 15.7973 13.1445 15.727C13.298 15.7036 13.4396 15.6977 13.5813 15.7094C13.7761 15.7212 13.7761 15.7446 13.5813 15.7798C13.357 15.8208 13.1445 15.8794 12.9379 15.9438C12.3594 16.1314 11.7278 16.3599 11.0431 16.6236C10.6417 16.7818 10.0042 16.8814 9.95693 16.2544C9.8979 15.434 10.134 14.473 10.8365 14.0042C11.1375 13.8049 11.4858 13.6233 11.8754 13.4533C13.3275 12.8556 14.815 12.4219 16.3615 12.1758C16.9459 12.0762 17.548 12.0235 18.1737 12C20.6943 11.9297 23.4745 12.8556 23.7933 15.7446C23.9644 17.2741 23.4155 18.4578 22.5005 19.6708H22.4946ZM22.6776 16.5767C22.5478 14.9886 20.9009 14.4261 19.5609 14.3089C18.8053 14.2444 17.9848 14.2444 17.1053 14.3089C17.064 14.3089 17.0463 14.3323 17.0522 14.3733C17.0699 14.4671 17.0876 14.5667 17.0994 14.6663C17.1407 15.0062 16.9695 15.2406 16.8043 15.5043C16.7275 15.6274 16.639 15.7505 16.5504 15.8677C15.4761 17.2799 14.756 18.2644 14.3841 18.827C13.8941 19.5712 13.3865 20.3682 12.8552 21.2296C12.7195 21.4464 12.6309 21.6632 12.5837 21.8801C12.4597 22.4309 13.8705 22.3606 14.1598 22.3371C16.3025 22.1848 18.3036 21.5226 20.163 20.3564C20.954 19.8583 21.7155 19.1844 22.2172 18.4051C22.5832 17.8308 22.7425 17.2155 22.6894 16.565L22.6776 16.5767Z" fill="#19AD4B"/>
<path d="M18.3568 22.7063C19.4311 21.2999 20.8478 20.3271 22.5006 19.6708C24.1829 19.0144 25.9243 18.6863 27.7306 18.6746C28.6514 18.6746 29.5723 18.6687 30.499 18.6687C30.5462 18.6687 30.5876 18.6746 30.623 18.6921C30.6466 18.7039 30.6643 18.7332 30.6525 18.7566L27.6361 26.1344C27.6184 26.1754 27.5889 26.193 27.5476 26.193H24.5961C24.5961 26.193 24.5548 26.1754 24.5548 26.152V26.1403L27.1108 19.9286C27.1108 19.9286 27.1108 19.8759 27.0813 19.8642C27.0754 19.8642 27.0694 19.8642 27.0635 19.8642C25.4462 19.911 23.876 20.5439 22.6246 21.5636C21.9694 22.1027 21.4381 22.8235 21.0426 23.7201C20.8478 24.1596 20.7593 24.5873 20.7711 24.9976C20.8301 26.6677 22.111 27.1189 23.569 27.1248C26.3139 27.1365 29.0941 27.1365 31.9098 27.1248C31.9452 27.1248 31.9688 27.1482 31.9688 27.1834C31.9688 27.1951 31.9688 27.2068 31.957 27.2185L30.7705 28.8945C30.7292 28.9589 30.6525 28.9941 30.5758 28.9941C28.0788 28.9941 25.5406 28.9941 22.9551 28.9941C22.2173 28.9941 21.5916 28.9589 21.0839 28.8945C20.0273 28.748 18.8349 28.3261 18.0794 27.576C17.2058 26.7028 17.0818 25.4839 17.5009 24.2943C17.7016 23.7142 17.979 23.2747 18.3568 22.7121V22.7063Z" fill="#115FA1"/>
</g>
<circle cx="20" cy="20" r="19.5" stroke="black" stroke-opacity="0.05"/>
<defs>
<clipPath id="clip0_22954_39984">
<rect width="22" height="17" fill="white" transform="translate(9.96289 12)"/>
</clipPath>
</defs>
</svg>
