<svg width="40" height="40" viewBox="0 0 40 40" fill="none" xmlns="http://www.w3.org/2000/svg">
<circle cx="20" cy="20" r="20" fill="#EB9823"/>
<path d="M31.9078 14.0322C31.9909 14.0852 31.9553 14.1572 31.9553 14.2179C31.9575 18.143 31.9564 22.0681 31.9608 25.9933C31.9609 26.1451 31.926 26.1874 31.7695 26.1872C27.9791 26.1824 24.1887 26.1835 20.3827 26.1831C20.3565 26.1806 20.3458 26.1785 20.3279 26.1619C20.3845 25.979 20.3477 25.8051 20.3478 25.6335C20.3486 23.5528 20.3461 21.4721 20.3511 19.3914C20.3517 19.1274 20.3137 18.8666 20.3167 18.6033C20.318 18.4909 20.3194 18.379 20.3513 18.2702C20.4081 18.0769 20.3313 17.8932 20.307 17.6936C20.1918 17.6699 20.221 17.77 20.2063 17.8174C20.0788 18.2293 19.9575 18.6431 19.834 19.0561C19.5917 19.8659 19.3554 20.6773 19.1135 21.4871C18.8715 22.2971 18.6328 23.108 18.3903 23.9178C18.3597 24.02 18.3446 24.1254 18.3144 24.2412C18.3082 24.2626 18.3053 24.271 18.2966 24.2916C18.1589 24.6672 18.0618 25.0414 17.9517 25.4116C17.8783 25.6587 17.8108 25.9077 17.7115 26.1587C17.6367 26.1951 17.5685 26.1829 17.5018 26.183C16.4467 26.184 15.3916 26.184 14.3212 26.1835C14.2401 26.1526 14.2162 26.0914 14.1887 26.0162C13.3734 23.2314 12.5446 20.4656 11.7199 17.6622C11.7176 20.4791 11.7213 23.2638 11.7164 26.0634C11.7117 26.1085 11.704 26.1373 11.6734 26.1712C10.4715 26.1814 9.28173 26.1802 8.09204 26.1875C7.94534 26.1883 7.9636 26.109 7.96363 26.0185C7.96421 24.1552 7.96408 22.292 7.96423 20.4287C7.96441 18.3634 7.96472 16.2981 7.9683 14.2173C7.99979 14.0575 8.09416 14.0314 8.22885 14.0317C10.08 14.0357 11.9313 14.0331 13.7975 14.0356C13.9293 14.0568 13.9532 14.1559 13.9822 14.2451C14.0969 14.5972 14.1953 14.9543 14.3018 15.3089C14.6616 16.5072 15.0164 17.7069 15.378 18.9047C15.5304 19.4095 15.6885 19.9129 15.8235 20.4229C15.8524 20.5324 15.9158 20.6276 15.9412 20.7505C15.9446 20.83 15.9564 20.8941 15.9975 20.9504C16.0427 20.939 16.0301 20.8973 16.0451 20.858C16.0492 20.8385 16.051 20.8307 16.0559 20.8111C16.0633 20.7833 16.0674 20.7672 16.074 20.7384C16.2493 20.1223 16.4351 19.5226 16.6099 18.9198C16.8238 18.1825 17.0599 17.4516 17.2542 16.7086C17.2599 16.6867 17.2674 16.6658 17.2876 16.636C17.462 16.2035 17.563 15.761 17.6978 15.3289C17.8245 14.9226 17.942 14.5134 18.0634 14.1054C18.0728 14.0739 18.0717 14.0376 18.1189 14.0171C18.2084 14.0441 18.2878 14.0336 18.366 14.0336C20.1463 14.0342 21.9266 14.034 23.7069 14.0343C23.7854 14.0344 23.8642 14.0287 23.9574 14.0489C24.0277 14.1167 24.0174 14.1926 24.0174 14.2644C24.0183 16.4658 24.0186 18.6672 24.0176 20.8685C24.0176 21.0405 23.9507 21.2128 24.0233 21.3975C24.0367 21.4351 24.0487 21.4587 24.0604 21.4822C24.0701 21.502 24.0904 21.5016 24.0719 21.4889C24.0534 21.4761 24.0967 21.4743 24.0758 21.465C24.0952 21.3858 24.1071 21.3147 24.1511 21.2414C24.2783 21.0697 24.3612 20.884 24.502 20.7353C25.0201 20.1882 25.6699 20.0363 26.3895 20.1061C26.876 20.1533 27.3173 20.3145 27.6631 20.6809C27.7597 20.7831 27.8456 20.8928 27.9145 21.016C27.9327 21.0485 27.933 21.1129 28.0097 21.0758C28.0614 21.014 28.0766 20.9527 28.0603 20.8912C28.0236 20.7526 28.0352 20.6122 28.0351 20.4724C28.0342 18.6422 28.0347 16.812 28.0344 14.9818C28.0343 14.6846 28.0384 14.3873 28.0359 14.0753C28.116 14.016 28.1966 14.0352 28.2736 14.035C29.4795 14.0314 30.6854 14.0387 31.9078 14.0322Z" fill="#241816"/>
<path d="M11.6931 26.1088C11.683 26.0487 11.6765 25.9984 11.6764 25.9482C11.6759 23.185 11.6759 20.4218 11.6758 17.6586C11.6758 17.6208 11.6758 17.583 11.6758 17.5452C11.6923 17.5414 11.7088 17.5375 11.7253 17.5337C12.56 20.3579 13.3947 23.1821 14.2292 26.0196C14.2165 26.084 14.2072 26.1371 14.1423 26.1678C14.1048 26.178 14.078 26.1905 14.0512 26.1904C13.3116 26.1895 12.572 26.1873 11.8179 26.1785C11.7634 26.1649 11.7257 26.1533 11.6931 26.1088Z" fill="#C0904D"/>
<path d="M17.2859 16.6213C17.3037 16.8446 17.2029 17.0379 17.1441 17.2395C16.8015 18.4152 16.4498 19.5882 16.0938 20.7741C16.0842 20.7954 16.0819 20.8048 16.0736 20.8275C16.0178 20.885 15.9718 20.876 15.9213 20.8194C15.6572 19.962 15.3984 19.1163 15.1438 18.2694C14.7249 16.8759 14.3087 15.4815 13.883 14.0792C13.8546 14.0664 13.8453 14.054 13.8534 14.0219C14.6901 14.0077 15.5204 14.0073 16.3505 14C16.4713 13.999 16.4977 14.0629 16.5257 14.1569C16.7542 14.9249 16.9864 15.6917 17.2182 16.4588C17.2343 16.5122 17.2556 16.5641 17.2859 16.6213Z" fill="#CE9749"/>
<path d="M28.0224 21.1274C27.988 21.2171 27.9543 21.1995 27.9311 21.1433C27.5916 20.3201 26.6022 20.0628 25.8358 20.1415C25.0943 20.2178 24.5419 20.5731 24.1965 21.2535C24.1428 21.2585 24.0985 21.2575 24.0466 21.2294C24.0245 21.2067 24.0188 21.1898 24.0209 21.1576C24.0466 21.1036 24.0704 21.0636 24.1122 21.0189C24.2877 20.8499 24.4095 20.6531 24.5866 20.5026C24.9644 20.1815 25.3977 20.0167 25.8897 19.9825C26.3711 19.949 26.8275 20.0373 27.2679 20.2273C27.4431 20.3029 27.5623 20.4491 27.7066 20.5638C27.7487 20.5973 27.7765 20.6518 27.8394 20.6613C27.8811 20.605 27.8625 20.5416 27.8626 20.4829C27.8637 18.4679 27.8637 16.453 27.8633 14.438C27.8633 14.163 27.8524 14.152 27.5808 14.1519C26.6154 14.1514 25.65 14.1498 24.6847 14.1537C24.5233 14.1543 24.3607 14.1024 24.1858 14.1627C24.1426 14.1664 24.115 14.1613 24.0762 14.1446C24.057 14.1333 24.0499 14.128 24.0346 14.1125C24.02 14.0856 24.0192 14.0687 24.033 14.0424C24.1073 13.9853 24.183 14.005 24.2539 14.0049C25.4554 14.0036 26.6569 14.0042 27.8584 14.004C27.9201 14.004 27.9818 14.0007 28.0581 14.0031C28.0897 14.0527 28.0172 14.0614 28.0349 14.1214C28.0558 14.2143 28.0482 14.2931 28.0482 14.3714C28.0486 16.4689 28.0492 18.5664 28.0472 20.664C28.047 20.8133 28.098 20.9656 28.0224 21.1274Z" fill="#C18C41"/>
<path d="M20.3318 26.1393C20.3409 26.162 20.35 26.1666 20.3636 26.1762C19.9328 26.1863 19.4982 26.1923 19.0636 26.1925C18.617 26.1928 18.1704 26.1874 17.7129 26.1761C17.8169 25.6726 17.9852 25.1926 18.1213 24.7034C18.1602 24.5638 18.2068 24.4263 18.2591 24.2804C18.3092 24.3048 18.3177 24.35 18.32 24.4113C18.3055 24.5807 18.2545 24.726 18.1875 24.879C18.1716 24.9177 18.1597 24.9453 18.1641 24.9873C18.1655 25.0131 18.164 25.0277 18.1565 25.0523C18.1101 25.1146 18.0888 25.1763 18.0678 25.2504C18.0548 25.2904 18.0447 25.3196 18.034 25.3613C18.002 25.5042 17.9539 25.6296 17.9144 25.7715C17.9101 25.8034 17.9061 25.8216 17.8964 25.8535C17.8514 26.0567 17.8704 26.0834 18.0667 26.0841C18.6948 26.0863 19.3229 26.0856 19.951 26.0845C20.1638 26.0841 20.1822 26.066 20.1825 25.854C20.1837 24.7548 20.1842 23.6556 20.1827 22.5565C20.1808 21.1713 20.1897 19.7861 20.1774 18.401C20.1771 18.3642 20.1894 18.3246 20.1543 18.2758C20.1127 18.376 20.0922 18.4729 20.0532 18.5784C20.0144 18.7644 19.9626 18.9316 19.901 19.1098C19.8381 19.2578 19.8039 19.4004 19.77 19.5564C19.6638 19.9031 19.5762 20.242 19.4595 20.5857C19.4325 20.6622 19.404 20.7248 19.3962 20.8067C19.337 21.0451 19.2723 21.2686 19.189 21.4998C19.1257 21.6685 19.101 21.836 19.0319 22.0024C19.0266 22.0306 19.0227 22.0465 19.0142 22.0735C18.9897 22.135 18.9598 22.1818 18.9561 22.2499C18.953 22.2774 18.9503 22.2931 18.9439 22.3203C18.913 22.4157 18.8803 22.4979 18.8581 22.5963C18.8417 22.6642 18.8262 22.7197 18.8102 22.788C18.7219 22.9827 18.6794 23.1785 18.6269 23.384C18.6165 23.4356 18.6015 23.4728 18.5821 23.5207C18.5691 23.5525 18.5602 23.5735 18.5541 23.6071C18.5469 23.6558 18.5375 23.6921 18.5153 23.7362C18.4966 23.7726 18.486 23.7999 18.4827 23.8413C18.4795 23.8682 18.4767 23.8835 18.4704 23.9103C18.4336 24.0225 18.3933 24.1212 18.375 24.2397C18.3668 24.2596 18.3626 24.2671 18.3482 24.2832C18.3208 24.2977 18.3035 24.2978 18.2779 24.2816C18.3321 23.9 18.4638 23.5476 18.5692 23.1886C19.104 21.3681 19.648 19.5502 20.189 17.7315C20.2049 17.6779 20.2174 17.622 20.2423 17.5727C20.2629 17.5318 20.2846 17.5568 20.3009 17.597C20.3486 17.7828 20.3646 17.9629 20.3494 18.1403C20.3181 18.5052 20.3465 18.869 20.3472 19.2332C20.3512 21.4628 20.3431 23.6925 20.3523 25.9221C20.3526 25.9903 20.3341 26.0554 20.3318 26.1393Z" fill="#B38E5C"/>
<path d="M13.8438 14.0092C13.8641 14.0234 13.8686 14.0365 13.8737 14.0602C11.9735 14.0697 10.0727 14.0702 8.17181 14.0637C8.0606 14.0633 8.03516 14.126 7.98366 14.1983C7.93525 14.054 7.97739 14.0036 8.14351 14.0042C10.0383 14.0106 11.9331 14.0081 13.8438 14.0092Z" fill="#0C0B0B"/>
<path d="M23.9792 14.0748C22.1004 14.0679 20.231 14.068 18.3617 14.0665C18.2909 14.0665 18.2154 14.0887 18.1406 14.0287C18.1596 14.0136 18.1874 14.0088 18.2151 14.0088C20.1389 14.0091 22.0627 14.0097 23.9956 14.0215C24.0094 14.0388 24.0142 14.045 24.0145 14.0619C24.003 14.0757 23.9958 14.0786 23.9792 14.0748Z" fill="#0C0B0B"/>
<path d="M28.0229 14.0766C28.0104 14.0343 28.0349 14.0268 28.0659 14.0133C29.3506 14.0083 30.6288 14.0094 31.9157 14.0221C31.853 14.0783 31.7732 14.0674 31.6954 14.0674C30.4905 14.0677 29.2856 14.0677 28.0649 14.0678C28.0434 14.0737 28.0375 14.0795 28.0229 14.0766Z" fill="#101010"/>
<path d="M14.1445 26.1782C14.1582 26.129 14.1853 26.0866 14.2205 26.0386C14.2518 26.0764 14.2749 26.1198 14.3018 26.173C14.2564 26.1835 14.2071 26.1843 14.1445 26.1782Z" fill="#B38E5C"/>
<path d="M11.682 26.1089C11.7229 26.1181 11.7598 26.1372 11.7998 26.1641C11.765 26.1775 11.727 26.183 11.6749 26.1843C11.6666 26.1597 11.6723 26.1392 11.682 26.1089Z" fill="#B38E5C"/>
<path d="M23.999 14.0776C24.0039 14.0611 24.0042 14.0554 24.005 14.0412C24.0115 14.0327 24.0175 14.0328 24.0328 14.033C24.0416 14.0489 24.0413 14.0645 24.0375 14.0914C24.0177 14.1066 24.0047 14.1014 23.999 14.0776Z" fill="#4F2D06"/>
<path d="M20.3377 26.146C20.269 26.1255 20.2948 26.0676 20.2948 26.0219C20.2947 23.2273 20.296 20.4327 20.3006 17.6228C20.3935 17.8135 20.4702 18.0268 20.4088 18.2515C20.3466 18.4795 20.3577 18.7042 20.3848 18.9325C20.3927 18.9989 20.3974 19.0661 20.3974 19.133C20.3981 21.299 20.3978 23.465 20.3985 25.631C20.3985 25.7311 20.3855 25.8324 20.4252 25.9302C20.4624 26.0221 20.3803 26.0712 20.3377 26.146Z" fill="#341C06"/>
<path d="M28.0172 25.1386C28.0052 25.1503 27.9912 25.1575 27.9859 25.1634C27.9459 25.188 27.9109 25.2036 27.8695 25.202C27.0968 25.1715 26.3238 25.1972 25.551 25.1881C25.5229 25.1878 25.495 25.1865 25.4531 25.1723C25.5691 24.9328 25.7941 24.796 25.9872 24.6298C26.4551 24.2275 26.9493 23.8558 27.3843 23.4153C27.6025 23.1945 27.8035 22.9623 27.9243 22.671C27.9524 22.6034 27.9858 22.5515 28.0115 22.6856C28.04 22.7274 28.0556 22.7613 28.0547 22.8031C28.04 23.5508 28.0541 24.2985 28.0474 25.0462C28.0471 25.0744 28.0428 25.1017 28.0172 25.1386Z" fill="#BF8C47"/>
<path d="M23.9944 14.0671C24.006 14.0773 24.0117 14.0864 24.0264 14.0984C24.0332 14.1026 24.0437 14.1037 24.0485 14.1015C24.088 14.1731 24.0852 14.252 24.0852 14.3306C24.0853 16.5066 24.0851 18.6825 24.0857 20.8585C24.0857 20.9431 24.0775 21.0264 24.0592 21.1254C24.0505 21.1576 24.0474 21.1741 24.049 21.2024C24.0909 21.2779 24.0853 21.346 24.0705 21.4287C24.0606 21.4511 24.0553 21.4594 24.0367 21.4742C23.9278 21.3593 23.9197 21.2166 23.9465 21.0763C23.9625 20.9926 23.9698 20.9109 23.9698 20.8272C23.97 18.5847 23.97 16.3421 23.9698 14.0837C23.9696 14.068 23.9861 14.0674 23.9944 14.0671Z" fill="#2B1405"/>
<path d="M28.0116 14.0837C28.0197 14.068 28.0256 14.0679 28.0402 14.0679C28.0769 14.1599 28.0829 14.2537 28.0828 14.3497C28.0815 16.3997 28.0816 18.4497 28.0823 20.4997C28.0824 20.6336 28.0702 20.7679 28.112 20.9002C28.1406 20.9905 28.0855 21.0613 28.0244 21.1357C28.0124 20.9855 28.0088 20.8287 28.0088 20.672C28.0087 18.4811 28.0091 16.2902 28.0116 14.0837Z" fill="#2B1405"/>
<path d="M26.7653 21.2994C26.8625 21.2769 26.9143 21.3227 26.9406 21.4098C27.0622 21.8125 27.0532 22.2181 26.8446 22.5777C26.7096 22.8105 26.4974 23.0066 26.2932 23.1894C26.0132 23.4402 25.7085 23.6634 25.4135 23.8974C25.2079 24.0605 24.9955 24.2143 24.8074 24.3998C24.5832 24.6208 24.3652 24.8447 24.2066 25.1198C24.1863 25.1549 24.1719 25.2058 24.107 25.1851C24.0911 25.1651 24.0834 25.1517 24.0772 25.1248C24.0764 25.0549 24.1141 25.0123 24.1441 24.9537C24.1609 24.9224 24.1737 24.9024 24.1945 24.8732C24.7025 24.2234 25.385 23.7883 25.9947 23.2709C26.1862 23.1084 26.3789 22.9482 26.5442 22.7536C26.9159 22.3161 27.0099 21.848 26.7653 21.2994Z" fill="#3A1F07"/>
<path d="M24.2213 24.8893C24.2111 24.9193 24.205 24.9343 24.1923 24.9539C24.1275 24.9866 24.0773 24.9713 24.0223 24.9169C23.9847 24.8204 24.0061 24.7361 24.0059 24.653C24.0038 23.8854 24.0044 23.1178 24.0051 22.3503C24.0051 22.2835 23.996 22.2156 24.0285 22.1364C24.0376 22.1225 24.0507 22.1201 24.0566 22.1169C24.0804 22.1049 24.0948 22.0921 24.1187 22.0686C24.3552 22.0462 24.5789 22.0585 24.8165 22.0554C24.8668 22.0545 24.9025 22.0671 24.9526 22.0581C25.0131 22.0474 25.0595 22.0482 25.1176 22.0722C25.145 22.0936 25.155 22.1105 25.1571 22.145C25.105 22.2404 25.0231 22.2375 24.9454 22.2395C24.7607 22.2441 24.5758 22.2364 24.3913 22.2431C24.2119 22.2496 24.1609 22.2969 24.1596 22.4783C24.1547 23.1892 24.1563 23.9001 24.1591 24.611C24.1593 24.6718 24.161 24.7351 24.2127 24.7992C24.2281 24.8326 24.2296 24.8532 24.2213 24.8893Z" fill="#DEA043"/>
<path d="M25.1277 22.0848C25.0701 22.0895 25.0236 22.09 24.9632 22.0912C24.9344 22.1007 24.9184 22.1043 24.8899 22.0975C24.6317 22.0916 24.385 22.091 24.1226 22.091C24.0988 22.0937 24.0906 22.0959 24.0762 22.087C24.094 21.9993 24.159 22.0223 24.2108 22.0218C24.4177 22.0197 24.6251 22.0128 24.8315 22.0235C24.9902 22.0318 25.0807 21.9591 25.1086 21.8172C25.1419 21.6486 25.2197 21.5011 25.2999 21.3551C25.3753 21.2179 25.4695 21.096 25.6422 21.0625C25.7113 21.0491 25.7748 21.0064 25.8405 20.9764C26.0107 20.8988 26.1786 20.8758 26.3507 20.9772C26.4067 21.0102 26.4743 21.0248 26.5379 21.0434C26.5976 21.0609 26.6611 21.0701 26.6574 21.1716C26.6013 21.2062 26.5611 21.1845 26.5197 21.1682C25.8987 20.9237 25.3828 21.1908 25.2294 21.8254C25.2256 21.8538 25.2225 21.8698 25.2156 21.8973C25.2032 21.939 25.1926 21.9688 25.1826 22.0112C25.1712 22.0456 25.1582 22.0652 25.1277 22.0848Z" fill="#3A1F07"/>
<path d="M24.0242 22.1252C24.0394 22.9489 24.0411 23.7755 24.0431 24.602C24.0433 24.6969 24.0448 24.7919 24.0493 24.9021C24.0785 24.9653 24.0832 25.0156 24.0664 25.0804C24.058 25.1 24.0531 25.1071 24.0355 25.1169C23.9405 25.0677 23.9259 24.9799 23.9403 24.9011C24.0006 24.5723 23.9643 24.2416 23.9687 23.9121C23.9758 23.3738 23.9697 22.8352 23.9721 22.2967C23.9723 22.2399 23.9424 22.1712 24.0242 22.1252Z" fill="#2B1405"/>
<path d="M25.4346 25.1743C26.2774 25.1648 27.1161 25.1651 27.9677 25.1673C27.9703 25.2281 27.9378 25.2577 27.8756 25.2496C27.4189 25.1897 26.9601 25.2347 26.5024 25.224C26.1947 25.2168 25.8866 25.2243 25.5787 25.2208C25.5292 25.2203 25.4646 25.2556 25.4346 25.1743Z" fill="#2B1405"/>
<path d="M28.0186 25.1493C28.0055 24.3427 28.0066 23.5352 28.0101 22.7123C28.0802 22.7003 28.1168 22.7306 28.1072 22.8035C28.0484 23.2497 28.0935 23.698 28.0825 24.1453C28.0756 24.4255 28.0831 24.706 28.0797 24.9863C28.0791 25.0419 28.1121 25.1133 28.0186 25.1493Z" fill="#3A1F07"/>
<path d="M15.9111 20.8174C15.9559 20.8261 15.9969 20.8479 16.0563 20.8406C16.083 20.9176 16.037 20.9753 16.016 21.0568C15.927 20.9887 15.9424 20.8962 15.9111 20.8174Z" fill="#B38E5C"/>
<path d="M24.0524 21.4582C24.0483 21.3786 24.0477 21.3106 24.0508 21.2285C24.0953 21.2135 24.138 21.2046 24.1791 21.2496C24.1607 21.3253 24.1345 21.3909 24.1038 21.4679C24.083 21.4849 24.0685 21.4822 24.0524 21.4582Z" fill="#D9A75C"/>
<path d="M24.042 21.4548C24.061 21.4554 24.0733 21.464 24.0924 21.476C24.1016 21.5204 24.1254 21.5815 24.074 21.5916C24.0214 21.6019 24.0416 21.5374 24.0273 21.493C24.0278 21.4748 24.0315 21.4689 24.042 21.4548Z" fill="#9C6D34"/>
<path d="M26.6652 21.1796C26.7198 21.1772 26.7676 21.1833 26.7693 21.2641C26.7707 21.2761 26.7651 21.2816 26.7623 21.2843C26.7056 21.2892 26.6777 21.2562 26.6573 21.2008C26.6565 21.1895 26.6623 21.1829 26.6652 21.1796Z" fill="#3A1F07"/>
<path d="M24.0935 25.115C24.1026 25.135 24.1024 25.1469 24.1021 25.1678C24.0657 25.1901 24.0447 25.1738 24.0276 25.1303C24.0231 25.1198 24.0319 25.1186 24.0362 25.12C24.0528 25.1096 24.0674 25.1048 24.0935 25.115Z" fill="#9C6D34"/>
<path d="M16.0881 20.7881C16.0861 20.7859 16.0879 20.7867 16.087 20.7872C16.0862 20.7877 16.0901 20.7904 16.0881 20.7881Z" fill="#B38E5C"/>
<path d="M24.067 22.0854C24.0763 22.0784 24.0827 22.0805 24.098 22.0872C24.098 22.0992 24.0891 22.1067 24.0711 22.114C24.0627 22.1073 24.0634 22.1009 24.067 22.0854Z" fill="#9C6D34"/>
<path d="M13.3462 23.3281C13.3545 23.3814 13.3559 23.427 13.3575 23.4862C13.3991 23.5446 13.4015 23.6099 13.4473 23.6645C13.4665 23.7202 13.4782 23.7678 13.49 23.8278C13.4901 23.8604 13.4957 23.8786 13.5156 23.9014C13.523 23.9232 13.5236 23.938 13.5243 23.9638C13.5161 24.0346 13.5363 24.085 13.5826 24.1367C13.5904 24.1591 13.5909 24.1738 13.5916 24.1997C13.5914 24.2311 13.5972 24.2493 13.6178 24.2716C13.6552 24.2963 13.6581 24.326 13.6585 24.3682C13.6585 24.4092 13.6569 24.4391 13.6831 24.4732C13.6912 24.4962 13.6918 24.511 13.6927 24.5367C13.7181 24.6598 13.7176 24.781 13.8172 24.8775C13.8258 24.9109 13.8265 24.936 13.8271 24.9735C13.8578 25.1551 13.9016 25.3201 13.9865 25.4835C13.9948 25.507 13.9953 25.5219 13.9959 25.5478C13.9956 25.5887 13.994 25.6187 14.021 25.6525C14.0396 25.6869 14.0505 25.7132 14.0624 25.7503C14.0631 25.7812 14.0685 25.7995 14.0882 25.8224C14.0955 25.8442 14.096 25.859 14.0969 25.8848C14.093 25.9563 14.1041 26.0185 14.0694 26.0873C13.3315 26.0983 12.6008 26.0984 11.8544 26.0982C11.79 26.0455 11.8197 25.9712 11.7795 25.905C11.7712 23.9702 11.7713 22.0446 11.7695 20.1191C11.7694 19.9758 11.8467 19.8334 11.7731 19.6759C11.8078 19.6263 11.8124 19.5864 11.7791 19.5346C11.7712 19.4135 11.7709 19.3004 11.7707 19.1719C11.8293 19.0413 11.8081 18.9225 11.7794 18.7944C11.7712 18.7386 11.771 18.692 11.771 18.6314C11.8513 18.5614 11.9037 18.6104 11.964 18.6749C12.0223 18.7228 12.002 18.7777 12.0073 18.8396C12.0476 18.9447 12.0264 19.0549 12.1003 19.1477C12.1386 19.174 12.1413 19.2037 12.1423 19.2456C12.1422 19.2771 12.1477 19.2954 12.1674 19.3182C12.2288 19.6734 12.3545 20.0024 12.4503 20.3392C12.6314 20.9758 12.8273 21.6082 13.0159 22.2428C13.0236 22.2688 13.019 22.2986 13.0204 22.3404C13.0608 22.4117 13.0679 22.4836 13.1109 22.5518C13.1296 22.5972 13.1404 22.6342 13.1522 22.6829C13.15 22.8469 13.24 22.9732 13.279 23.1246C13.2877 23.1576 13.2885 23.182 13.2895 23.2186C13.3154 23.2557 13.3192 23.2926 13.3462 23.3281Z" fill="#EA9823"/>
<path d="M11.974 18.6712C11.9045 18.6898 11.8682 18.6062 11.7841 18.6175C11.7717 18.5113 11.7707 18.4052 11.7718 18.2992C11.7721 18.2729 11.7675 18.2375 11.804 18.2312C11.8463 18.2239 11.8596 18.2577 11.8691 18.2908C11.9041 18.4132 11.9389 18.5356 11.974 18.6712Z" fill="#E19931"/>
<path d="M13.9947 25.4788C13.8237 25.3696 13.8513 25.1724 13.8184 24.9937C13.9085 25.1369 13.9474 25.3027 13.9947 25.4788Z" fill="#E19931"/>
<path d="M13.2878 23.1195C13.166 23.0175 13.1446 22.8659 13.1445 22.7021C13.2043 22.8297 13.2796 22.9569 13.2878 23.1195Z" fill="#E19931"/>
<path d="M13.8251 24.8733C13.6347 24.8439 13.7111 24.6775 13.6846 24.5554C13.7557 24.6443 13.7885 24.7532 13.8251 24.8733Z" fill="#E19931"/>
<path d="M11.7716 18.8008C11.8951 18.899 11.8481 19.0247 11.7848 19.1536C11.7714 19.0432 11.7712 18.9297 11.7716 18.8008Z" fill="#E19931"/>
<path d="M12.1088 19.1428C11.9623 19.1042 12.0213 18.9675 11.999 18.8604C12.1152 18.9181 12.0635 19.0414 12.1088 19.1428Z" fill="#E19931"/>
<path d="M13.1196 22.5474C13.0227 22.5357 13.0386 22.4485 13.0205 22.3674C13.1126 22.3825 13.0998 22.4675 13.1196 22.5474Z" fill="#E19931"/>
<path d="M14.0736 26.0929C14.0678 26.0365 14.0729 25.9749 14.0879 25.9045C14.1532 25.9638 14.1457 26.0275 14.0736 26.0929Z" fill="#E19931"/>
<path d="M11.7714 25.9089C11.8804 25.9209 11.8231 26.0097 11.8389 26.0842C11.7549 26.0631 11.7724 25.9889 11.7714 25.9089Z" fill="#E19931"/>
<path d="M13.59 24.1325C13.5084 24.1218 13.4805 24.07 13.5162 23.9819C13.5695 24.0135 13.5675 24.0723 13.59 24.1325Z" fill="#E19931"/>
<path d="M13.4548 23.6605C13.3677 23.6598 13.3863 23.5771 13.3584 23.5125C13.442 23.516 13.4263 23.5962 13.4548 23.6605Z" fill="#E19931"/>
<path d="M11.7715 19.54C11.8642 19.5553 11.8606 19.6011 11.7838 19.66C11.7718 19.626 11.7714 19.5898 11.7715 19.54Z" fill="#E19931"/>
<path d="M14.0297 25.649C13.973 25.6536 13.9488 25.6284 13.9879 25.5654C14.0269 25.577 14.0298 25.6067 14.0297 25.649Z" fill="#E19931"/>
<path d="M13.691 24.4701C13.6348 24.4738 13.6112 24.4482 13.6498 24.3862C13.689 24.3978 13.6918 24.4276 13.691 24.4701Z" fill="#E19931"/>
<path d="M13.354 23.3239C13.3032 23.332 13.2862 23.3015 13.2895 23.243C13.3383 23.2367 13.3569 23.266 13.354 23.3239Z" fill="#E19931"/>
<path d="M12.1743 19.3153C12.1437 19.3188 12.1047 19.3191 12.135 19.2627C12.1533 19.2731 12.1638 19.2891 12.1743 19.3153Z" fill="#E19931"/>
<path d="M14.0952 25.8193C14.0646 25.8227 14.0256 25.8229 14.0559 25.7666C14.0742 25.777 14.0847 25.7931 14.0952 25.8193Z" fill="#E19931"/>
<path d="M13.6243 24.2684C13.5938 24.2726 13.5538 24.2746 13.5839 24.2166C13.6025 24.2267 13.613 24.2426 13.6243 24.2684Z" fill="#E19931"/>
<path d="M13.5232 23.8984C13.4927 23.902 13.4535 23.9026 13.4833 23.8459C13.5017 23.8562 13.5123 23.8722 13.5232 23.8984Z" fill="#E19931"/>
<path d="M16.7295 18.2551C16.5356 18.9187 16.3442 19.569 16.1526 20.2192C16.121 20.3264 16.0882 20.4333 16.0565 20.5405C16.046 20.5759 16.0574 20.6299 16.0028 20.6313C15.9464 20.6328 15.9346 20.5789 15.9222 20.5374C15.8774 20.3875 15.8375 20.2361 15.7928 20.0862C15.6558 19.6276 15.5109 19.1712 15.3816 18.7105C15.2586 18.2726 15.1302 17.8356 14.9969 17.4015C14.8878 17.0464 14.8075 16.6809 14.6616 16.3362C14.5858 16.157 14.5726 15.9591 14.5094 15.7726C14.3414 15.2771 14.2009 14.7723 14.0472 14.2719C14.0194 14.1813 14.0309 14.1338 14.1334 14.096C14.2718 14.0451 14.3987 14.1031 14.5306 14.1022C15.0415 14.0989 15.5526 14.0963 16.0633 14.1047C16.1624 14.1063 16.2832 14.0235 16.3505 14.0995C16.432 14.1915 16.4802 14.3216 16.5167 14.4431C16.6816 14.993 16.8335 15.5469 16.9986 16.0968C17.0575 16.2932 17.1406 16.4832 17.163 16.6888C17.1886 16.9238 17.0879 17.1411 17.0162 17.3503C16.9148 17.6457 16.8643 17.9571 16.7295 18.2551Z" fill="#EA9823"/>
<path d="M24.0962 14.1478C24.2627 14.0412 24.4289 14.0992 24.5919 14.0995C25.6251 14.1013 26.6582 14.1003 27.6914 14.1005C27.8992 14.1006 27.9139 14.1134 27.9139 14.3189C27.9145 16.4301 27.9146 18.5413 27.9134 20.6525C27.9133 20.699 27.9413 20.7682 27.882 20.7873C27.8264 20.8053 27.8054 20.7385 27.7743 20.7005C27.4838 20.347 27.0888 20.1672 26.6576 20.0761C26.2554 19.991 25.8397 19.9924 25.4436 20.1032C24.9441 20.243 24.519 20.509 24.2563 20.9803C24.2266 21.0337 24.1864 21.0478 24.1193 21.0451C24.0578 20.9938 24.0729 20.929 24.0729 20.8691C24.072 18.683 24.0721 16.4969 24.0724 14.3108C24.0725 14.2606 24.0682 14.2097 24.0962 14.1478Z" fill="#EB9823"/>
<path d="M24.1024 14.1274C24.1063 16.4275 24.106 18.7203 24.1059 21.0292C24.1021 21.0779 24.1159 21.1169 24.064 21.1386C24.0509 21.1134 24.0449 21.0856 24.0449 21.0579C24.0452 18.7488 24.046 16.4396 24.0503 14.1149C24.0687 14.1062 24.0834 14.1132 24.1024 14.1274Z" fill="#D9A75C"/>
<path d="M18.4766 23.75C18.4879 23.7022 18.4997 23.6656 18.5122 23.6172C18.5268 23.5915 18.539 23.5764 18.545 23.547C18.5562 23.5003 18.5666 23.4633 18.5785 23.4148C18.6862 23.2222 18.7034 23.0108 18.7799 22.8075C18.7747 22.7339 18.7903 22.6761 18.8125 22.6063C18.8877 22.5276 18.8908 22.4328 18.9146 22.3352C18.9149 22.3091 18.9154 22.2943 18.9166 22.2686C18.9538 22.2152 18.9649 22.1618 18.9818 22.0992C18.9823 22.0729 18.9828 22.0582 18.9838 22.0325C19.0925 21.8787 19.1196 21.7078 19.1505 21.5267C19.2165 21.2875 19.2831 21.0602 19.3512 20.82C19.401 20.7566 19.4041 20.6892 19.42 20.6156C19.5126 20.2628 19.6044 19.9205 19.7231 19.5732C19.7962 19.4309 19.8333 19.2901 19.8575 19.1337C19.9013 18.9626 19.9459 18.8031 19.9925 18.6306C20.0228 18.59 20.039 18.5517 20.0705 18.5279C20.1335 18.4804 20.1744 18.5014 20.1909 18.5743C20.2008 18.6183 20.1964 18.6638 20.1964 18.7086C20.1966 21.088 20.1967 23.4673 20.1963 25.8467C20.1963 26.0824 20.1811 26.0979 19.95 26.0981C19.3215 26.0988 18.693 26.0992 18.0645 26.0979C17.8514 26.0975 17.8265 26.0654 17.8689 25.8447C17.8701 25.8135 17.8705 25.7988 17.8715 25.7732C17.958 25.6491 18.0007 25.5208 18.0046 25.3678C18.0096 25.3273 18.0152 25.2983 18.0292 25.262C18.0898 25.2034 18.0929 25.1294 18.1306 25.0587C18.1369 25.0353 18.1368 25.0216 18.1367 24.9977C18.1386 24.9722 18.1396 24.9568 18.1389 24.9299C18.1837 24.7703 18.2293 24.6222 18.2756 24.461C18.3258 24.4075 18.2966 24.3413 18.3341 24.2853C18.3413 24.2759 18.342 24.2606 18.3426 24.2529C18.3938 24.1456 18.4213 24.0386 18.443 23.9186C18.4432 23.8929 18.444 23.8783 18.4455 23.8529C18.4692 23.8199 18.4781 23.7924 18.4766 23.75Z" fill="#EA9823"/>
<path d="M17.8603 25.836C17.897 25.847 17.8975 25.8705 17.8872 25.9007C17.8455 26.022 17.9006 26.0656 18.0177 26.0654C18.6851 26.0643 19.3525 26.064 20.02 26.0656C20.118 26.0658 20.1681 26.0288 20.1628 25.9271C20.1607 25.888 20.1628 25.8486 20.1628 25.8094C20.1628 23.4425 20.1628 21.0756 20.1627 18.7087C20.1627 18.6975 20.1644 18.686 20.1625 18.6751C20.154 18.6282 20.1894 18.5623 20.1333 18.5377C20.0738 18.5116 20.0694 18.6063 20.006 18.6156C20.0331 18.4834 20.0692 18.3486 20.1119 18.2159C20.1245 18.1769 20.1401 18.1183 20.1974 18.1302C20.2479 18.1408 20.2267 18.1948 20.2305 18.2311C20.2335 18.2589 20.2312 18.2872 20.2312 18.3152C20.2312 20.8286 20.2313 23.342 20.2311 25.8554C20.2311 26.1216 20.2195 26.1329 19.9577 26.1329C19.3237 26.133 18.6898 26.1332 18.0558 26.1331C17.8004 26.1331 17.7665 26.0849 17.8603 25.836Z" fill="#DD9A3A"/>
<path d="M18.7705 22.8025C18.7862 23.0154 18.7019 23.209 18.5918 23.4009C18.6305 23.2024 18.6631 22.9961 18.7705 22.8025Z" fill="#DD9A3A"/>
<path d="M19.1402 21.5232C19.1988 21.7097 19.1102 21.8658 18.9961 22.0199C19.0328 21.8582 19.0819 21.6948 19.1402 21.5232Z" fill="#DD9A3A"/>
<path d="M19.8474 19.1304C19.9065 19.2884 19.8144 19.4192 19.7354 19.5582C19.7615 19.4196 19.7999 19.2792 19.8474 19.1304Z" fill="#DD9A3A"/>
<path d="M17.9947 25.3647C18.0553 25.5139 18.0031 25.6435 17.8838 25.7602C17.9098 25.6326 17.9477 25.5029 17.9947 25.3647Z" fill="#DD9A3A"/>
<path d="M18.4327 23.9153C18.5013 24.0375 18.4126 24.1343 18.3548 24.243C18.3318 24.1284 18.3901 24.0289 18.4327 23.9153Z" fill="#DD9A3A"/>
<path d="M18.9054 22.3313C18.9391 22.4268 18.9289 22.5198 18.8262 22.5917C18.8415 22.5086 18.8689 22.4238 18.9054 22.3313Z" fill="#DD9A3A"/>
<path d="M18.1254 25.0522C18.1396 25.1268 18.1325 25.201 18.05 25.2533C18.0427 25.1805 18.0509 25.1075 18.1254 25.0522Z" fill="#DD9A3A"/>
<path d="M19.4107 20.6123C19.4567 20.6821 19.4311 20.7459 19.3647 20.8053C19.3488 20.7395 19.3794 20.6808 19.4107 20.6123Z" fill="#DD9A3A"/>
<path d="M18.9722 22.0945C19.0355 22.1601 18.9861 22.2065 18.9282 22.2556C18.9086 22.1985 18.9301 22.1483 18.9722 22.0945Z" fill="#DD9A3A"/>
<path d="M18.3285 24.2759C18.3323 24.3326 18.3717 24.4008 18.288 24.4451C18.2746 24.3989 18.2737 24.3502 18.2702 24.2871C18.2676 24.2726 18.274 24.2767 18.2714 24.2738C18.2847 24.2727 18.3006 24.2744 18.3285 24.2759Z" fill="#DD9A3A"/>
<path d="M18.4667 23.7461C18.5196 23.7758 18.524 23.8095 18.4562 23.84C18.4496 23.8124 18.4538 23.7829 18.4667 23.7461Z" fill="#DD9A3A"/>
<path d="M18.1309 24.9236C18.1641 24.9329 18.1759 24.9511 18.145 24.9828C18.1142 24.9718 18.106 24.9531 18.1309 24.9236Z" fill="#DD9A3A"/>
<path d="M18.5367 23.5427C18.5825 23.5677 18.5732 23.5887 18.5221 23.6044C18.5176 23.5864 18.5228 23.5673 18.5367 23.5427Z" fill="#DD9A3A"/>
<path d="M26.499 25.0873C26.2652 25.0874 26.0481 25.0879 25.8309 25.0875C25.781 25.0874 25.7216 25.0945 25.7047 25.0317C25.6889 24.9732 25.7512 24.9655 25.7821 24.9367C26.342 24.4158 26.9826 23.987 27.5062 23.4243C27.6058 23.3174 27.7001 23.208 27.7842 23.089C27.8091 23.0538 27.8318 23.0013 27.8846 23.0178C27.9323 23.0327 27.9135 23.0854 27.9135 23.1217C27.9146 23.7169 27.9133 24.3121 27.915 24.9073C27.9153 25.0491 27.84 25.0895 27.7117 25.0885C27.3131 25.0854 26.9144 25.0873 26.499 25.0873Z" fill="#EA9823"/>
<path d="M26.6453 21.1856C26.685 21.2186 26.7135 21.2477 26.7507 21.2819C27.0359 21.6227 27.003 22.2568 26.6507 22.6898C26.3252 23.0898 25.9125 23.3901 25.515 23.708C25.0599 24.072 24.5972 24.4269 24.2265 24.8983C24.2136 24.8849 24.2106 24.8656 24.2071 24.8316C24.2036 24.6322 24.3624 24.5491 24.4644 24.4425C24.7741 24.119 25.1264 23.8398 25.4761 23.561C25.7819 23.3172 26.0953 23.083 26.3743 22.8085C26.5219 22.6632 26.642 22.4935 26.7409 22.2962C26.7642 22.2601 26.7868 22.2368 26.788 22.1906C26.807 22.0346 26.8314 21.8913 26.8226 21.7333C26.8213 21.5577 26.7534 21.4281 26.6137 21.3254C26.5961 21.3183 26.5892 21.3153 26.5722 21.307C26.5558 21.298 26.5494 21.2941 26.5245 21.2779C26.4998 21.2619 26.4935 21.2582 26.4776 21.2495C26.4284 21.2247 26.3847 21.2177 26.3335 21.1982C26.2933 21.172 26.2621 21.1531 26.2113 21.1555C26.103 21.1546 26.0062 21.1533 25.8997 21.1785C25.8374 21.1902 25.7817 21.1792 25.73 21.2249C25.6949 21.2584 25.6612 21.274 25.62 21.2979C25.5991 21.3124 25.5877 21.3215 25.5687 21.3387C25.4518 21.4644 25.3747 21.6017 25.3116 21.7612C25.2842 21.8151 25.2707 21.868 25.196 21.8603C25.2879 21.1436 25.9646 20.8297 26.6453 21.1856Z" fill="#BF8C47"/>
<path d="M24.1054 25.1118C24.0881 25.1227 24.0742 25.1224 24.05 25.1217C24.0406 25.0626 24.0415 25.0039 24.0474 24.9313C24.0887 24.9297 24.1252 24.942 24.1733 24.9565C24.1596 25.0059 24.1342 25.0532 24.1054 25.1118Z" fill="#B38E5C"/>
<path d="M26.7755 22.2848C26.6632 22.6065 26.4327 22.8288 26.1956 23.0403C26.017 23.1995 25.8373 23.365 25.644 23.4992C25.3724 23.6879 25.1302 23.9086 24.8784 24.1177C24.6358 24.3191 24.3875 24.5223 24.2159 24.8099C24.1216 24.8251 24.1053 24.7769 24.1055 24.7034C24.1068 23.9362 24.1058 23.1689 24.1066 22.4017C24.1068 22.257 24.1846 22.1886 24.3279 22.1891C24.5407 22.1899 24.7535 22.19 24.9664 22.189C25.0264 22.1887 25.0916 22.2038 25.1448 22.1345C25.2282 22.0185 25.2505 21.8935 25.285 21.7618C25.3234 21.5822 25.4135 21.444 25.5443 21.3184C25.5619 21.3054 25.5694 21.2978 25.5827 21.2846C25.6178 21.2622 25.6472 21.2455 25.6829 21.2204C25.7321 21.1717 25.7946 21.1892 25.8499 21.1527C25.9686 21.1042 26.0832 21.1095 26.2124 21.1117C26.2503 21.1401 26.2878 21.1433 26.3237 21.1697C26.3809 21.1781 26.4313 21.173 26.4873 21.2062C26.5048 21.2199 26.5121 21.2276 26.5265 21.2394C26.5327 21.2445 26.532 21.2455 26.5324 21.2452C26.5391 21.2535 26.5464 21.2612 26.561 21.2728C26.5671 21.2778 26.5832 21.2781 26.5912 21.2784C26.7238 21.382 26.7951 21.52 26.8592 21.6764C26.8782 21.856 26.8623 22.0247 26.8341 22.2072C26.8168 22.2407 26.7988 22.2587 26.7755 22.2848Z" fill="#EA9823"/>
<path d="M25.2769 21.7576C25.2957 21.8875 25.2995 22.0223 25.1644 22.1214C25.1431 22.1169 25.134 22.1106 25.1211 22.0968C25.1277 22.0731 25.138 22.0569 25.152 22.0316C25.1735 21.9949 25.1653 21.963 25.1714 21.922C25.1745 21.8976 25.1764 21.8846 25.1823 21.8627C25.2473 21.8547 25.2459 21.7987 25.2769 21.7576Z" fill="#DD9A3A"/>
<path d="M24.8848 22.0991C24.8951 22.09 24.9109 22.0878 24.9384 22.0889C24.9343 22.1145 24.9147 22.1208 24.8848 22.0991Z" fill="#9C6D34"/>
<path d="M25.1649 21.9202C25.1837 21.942 25.1856 21.9734 25.1628 22.0135C25.1559 21.9915 25.157 21.9606 25.1649 21.9202Z" fill="#9C6D34"/>
<path d="M26.8676 21.6728C26.7494 21.5781 26.7129 21.4145 26.6006 21.2908C26.7849 21.3383 26.816 21.5066 26.8676 21.6728Z" fill="#DD9A3A"/>
<path d="M25.8454 21.1446C25.8439 21.2381 25.7698 21.2042 25.7021 21.2123C25.7161 21.1458 25.773 21.1419 25.8454 21.1446Z" fill="#DD9A3A"/>
<path d="M26.3292 21.165C26.2926 21.1765 26.2497 21.186 26.2295 21.1236C26.2661 21.1123 26.3087 21.1034 26.3292 21.165Z" fill="#DD9A3A"/>
<path d="M26.7794 22.2902C26.7692 22.261 26.7767 22.2343 26.8224 22.2236C26.8326 22.2529 26.8251 22.2795 26.7794 22.2902Z" fill="#DD9A3A"/>
<path d="M26.5288 21.2373C26.5212 21.242 26.5122 21.2359 26.502 21.2189C26.5094 21.2145 26.5183 21.2207 26.5288 21.2373Z" fill="#DD9A3A"/>
<path d="M26.5631 21.2707C26.5555 21.2756 26.5463 21.2696 26.5361 21.2525C26.5435 21.2483 26.5524 21.2545 26.5631 21.2707Z" fill="#DD9A3A"/>
<path d="M25.5807 21.2827C25.5851 21.2903 25.5789 21.2993 25.5619 21.3097C25.5575 21.3021 25.5638 21.2931 25.5807 21.2827Z" fill="#DD9A3A"/>
<circle cx="20" cy="20" r="19.5" stroke="black" stroke-opacity="0.05"/>
</svg>
