<svg width="40" height="40" viewBox="0 0 40 40" fill="none" xmlns="http://www.w3.org/2000/svg">
<circle cx="20" cy="20" r="20" fill="#F6F8FA"/>
<path d="M19.1991 14H20.8994C21.3945 14.0336 21.8896 14.0649 22.3847 14.0939C23.554 14.1635 24.6857 14.2956 25.7815 14.492C27.6437 14.8244 29.4637 15.3304 31.1359 16.1751C32.4334 16.8305 33.7528 17.816 34 19.3396V19.654C33.982 19.7713 33.957 19.8863 33.9249 19.9989C33.7568 20.5878 33.4619 21.0868 33.0403 21.4959C32.0791 22.4297 30.8621 23.0374 29.5654 23.5177C29.5349 23.5294 29.5012 23.5317 29.4699 23.5239C28.1505 23.2181 26.6238 22.9569 24.8914 22.7387C21.4383 22.3038 17.9907 21.9878 14.5447 21.7274C13.8838 21.6773 13.2425 21.5428 12.6207 21.3238C12.6128 21.3207 12.6082 21.3121 12.6113 21.3035C12.6128 21.3003 12.6152 21.2972 12.6183 21.2956C13.3097 20.9257 13.7008 20.3242 13.7915 19.4913C13.9339 18.1804 13.3707 17.0253 12.0075 16.7632C11.5257 16.6709 11.0509 16.7022 10.584 16.8563C9.1019 17.3467 8.78358 19.3012 9.49922 20.526C9.94581 21.2917 10.8617 21.5999 11.7283 21.5185C11.7541 21.5162 11.7799 21.5217 11.8026 21.535C12.4298 21.9096 13.0892 22.1732 13.7813 22.3249C16.604 22.9451 18.9355 23.4582 21.4485 24.2036C21.9506 24.3522 22.4066 24.5117 22.8164 24.6815C22.9087 24.7198 22.9955 24.7667 23.0769 24.823C23.1308 24.8598 23.1254 24.8793 23.0604 24.8832L20.3308 25.0279H19.5808C18.8268 24.9904 18.0736 24.9505 17.3212 24.909C16.6486 24.8723 15.7492 24.7644 14.6237 24.5868C13.2464 24.3694 11.923 24.0409 10.6528 23.6021C9.61341 23.2431 8.69832 22.8028 7.9076 22.2811C6.96201 21.657 6.16346 20.8436 6 19.7009V19.2981C6.08994 18.7037 6.33709 18.182 6.73989 17.7323C7.67922 16.685 9.03151 15.9968 10.3987 15.497C11.5038 15.0926 12.6965 14.7712 13.9761 14.5326C15.1524 14.3128 16.3592 14.1658 17.5958 14.0915C18.1299 14.0594 18.6641 14.0289 19.1991 14ZM27.4106 16.7085C27.4106 16.6874 27.3934 16.6702 27.3723 16.6702L26.5276 16.6733C26.5065 16.6733 26.4893 16.6905 26.4893 16.7116L26.4916 17.4046C26.4916 17.4257 26.5088 17.4429 26.5299 17.4429L27.3746 17.4398C27.3958 17.4398 27.413 17.4226 27.413 17.4015L27.4106 16.7085ZM25.1917 17.9654L25.1941 17.3803C25.1941 17.3483 25.1784 17.335 25.1472 17.3389L24.3111 17.4374C24.2798 17.4413 24.2641 17.4585 24.2641 17.4906V17.9685C24.2641 17.9912 24.2469 18.0092 24.2242 18.0092L23.9497 18.0076C23.9098 18.0076 23.8895 18.0272 23.8895 18.067V18.5347C23.8895 18.5746 23.9083 18.5942 23.9482 18.5934H24.225C24.2524 18.5918 24.2665 18.6059 24.2665 18.6341C24.2626 19.2121 24.2626 19.812 24.2665 20.4353C24.2704 21.0594 24.577 21.4083 25.1878 21.4826C25.4467 21.5131 25.7072 21.4865 25.9699 21.4028C25.9832 21.3989 25.9926 21.3856 25.9926 21.3715V20.8647C25.9926 20.8514 25.9864 20.8459 25.9731 20.8491C25.4561 20.9523 25.1964 20.7865 25.1956 20.3508C25.1941 19.7314 25.1925 19.162 25.191 18.6435C25.191 18.6106 25.2074 18.5942 25.241 18.5934H25.8972C25.9128 18.5934 25.9254 18.5793 25.9254 18.5637L25.9238 18.0272C25.9238 18.0146 25.9175 18.0084 25.9042 18.0084H25.2363C25.2066 18.0084 25.1917 17.9943 25.1917 17.9654ZM19.2054 18.5543C19.1608 18.6302 19.1389 18.6239 19.1389 18.5363V18.0475C19.1389 18.0217 19.1264 18.0084 19.1006 18.0084H18.2793C18.241 18.0084 18.2215 18.0287 18.2215 18.067V21.3707C18.2215 21.4028 18.2371 21.4192 18.2692 21.4192H19.0857C19.1225 21.4192 19.1404 21.4012 19.1404 21.3645C19.1397 20.727 19.1389 20.0654 19.1381 19.3802C19.1381 19.2934 19.1631 19.2168 19.214 19.1487C19.5112 18.7506 19.8968 18.6208 20.3699 18.76C20.3973 18.7678 20.4106 18.7577 20.4106 18.7295V18.0084C20.4106 17.9654 20.3754 17.9309 20.3324 17.9302C19.8264 17.9263 19.4502 18.1343 19.2054 18.5543ZM22.4082 19.3411C21.6964 19.2973 20.6366 19.442 20.492 20.336C20.4067 20.8623 20.718 21.3645 21.2326 21.4685C21.6917 21.5616 22.0992 21.4255 22.4559 21.061C22.4715 21.0454 22.4973 21.0446 22.5137 21.061C22.5184 21.0649 22.5216 21.0704 22.5231 21.0766C22.7015 21.571 23.3037 21.5475 23.7088 21.4223C23.7432 21.4122 23.7597 21.3887 23.7573 21.3535L23.7346 20.9413C23.7331 20.9116 23.7174 20.8983 23.6885 20.9015C23.4718 20.9257 23.3623 20.8256 23.3592 20.5996C23.353 20.1209 23.353 19.5914 23.3592 19.0111C23.3741 17.6361 21.6159 17.8637 20.7993 18.1656C20.7884 18.1695 20.7829 18.1773 20.7829 18.1891V18.7725C20.7821 18.7796 20.7876 18.7858 20.7946 18.7866C20.797 18.7866 20.7985 18.7866 20.8009 18.785C21.0958 18.6466 21.3844 18.5324 21.716 18.5082C22.0257 18.4863 22.4277 18.5207 22.4629 18.9109C22.4731 19.0267 22.477 19.1503 22.4746 19.2809C22.4739 19.3239 22.452 19.3442 22.4089 19.3419L22.4082 19.3411ZM29.4003 19.216C29.186 19.1385 28.953 18.9235 29.1336 18.6912C29.3917 18.3596 30.1426 18.5496 30.536 18.6935C30.5469 18.6982 30.5602 18.692 30.5641 18.6802C30.5649 18.6779 30.5657 18.6747 30.5657 18.6716L30.5579 18.085C30.5579 18.0686 30.5501 18.0584 30.5336 18.0545C29.9478 17.9145 29.1321 17.8293 28.6127 18.1546C28.224 18.3987 28.0629 18.8781 28.2326 19.3036C28.4196 19.7721 29.1485 19.9973 29.5716 20.1663C29.6561 20.1999 29.732 20.2515 29.8 20.3196C29.9775 20.4987 29.8704 20.7724 29.6537 20.8553C29.3229 20.9828 28.8294 20.9108 28.1732 20.641C28.1654 20.6379 28.156 20.641 28.1529 20.6488C28.1521 20.6512 28.1513 20.6535 28.1513 20.6559L28.1497 21.2894C28.1497 21.3019 28.156 21.3097 28.1677 21.3136C28.7465 21.481 29.477 21.5827 30.0503 21.3997C30.8778 21.1361 31.1969 20.056 30.3107 19.6047C30.0425 19.4678 29.739 19.3388 29.4003 19.216ZM16.4093 20.8592C16.457 20.7865 16.4804 20.7927 16.4797 20.8796L16.4765 21.3723C16.4765 21.402 16.4914 21.4169 16.5211 21.4169L17.3439 21.4192C17.3775 21.4192 17.394 21.4028 17.394 21.3692V18.0358C17.394 18.0209 17.3807 18.0084 17.3658 18.0084H16.5188C16.4922 18.0084 16.4789 18.0225 16.4789 18.0498C16.4773 18.6106 16.4781 19.2574 16.4804 19.9918C16.4804 20.2898 16.1473 20.5941 15.9064 20.7059C15.5849 20.8561 15.2478 20.7435 15.2463 20.343C15.2439 19.6149 15.2439 18.8499 15.247 18.0491C15.247 18.0217 15.2337 18.0084 15.2064 18.0084H14.3632C14.3351 18.0084 14.3116 18.0326 14.3116 18.0608C14.3116 18.0608 14.3116 18.0608 14.3116 18.0616C14.3202 18.7146 14.3194 19.4373 14.3101 20.2312C14.3022 20.8318 14.4391 21.3183 15.0726 21.4685C15.5943 21.5921 16.1183 21.3074 16.4093 20.8592ZM27.4114 18.035C27.4114 18.0209 27.3997 18.0092 27.3856 18.0092H26.5174C26.5034 18.0092 26.4916 18.0209 26.4916 18.035V21.3918C26.4916 21.4059 26.5034 21.4177 26.5174 21.4177H27.3856C27.3997 21.4177 27.4114 21.4059 27.4114 21.3918V18.035Z" fill="#005BA1"/>
<path d="M10.3257 18.2179C10.5643 17.5601 11.0155 17.2746 11.678 17.3606C12.0659 17.4107 12.3506 17.6227 12.5313 17.9957C12.8637 18.6817 12.8864 19.3832 12.6009 20.1012C12.3655 20.6948 11.9345 20.9568 11.3081 20.8888C10.9006 20.8442 10.6034 20.6276 10.4172 20.2389C10.1044 19.5858 10.0739 18.9116 10.3257 18.2179Z" fill="#005BA1"/>
<path d="M22.4428 20.5799C22.2246 20.7926 21.8609 20.9616 21.5817 20.8052C21.4291 20.7191 21.358 20.5885 21.3681 20.4125C21.3971 19.9026 22.0267 19.8361 22.431 19.8658C22.4576 19.8682 22.4709 19.8822 22.4709 19.9088L22.4725 20.5111C22.4725 20.5384 22.4623 20.5611 22.4428 20.5799Z" fill="#005BA1"/>
<path d="M21.876 22.9453L26.0533 23.5507L26.04 25.0281H25.1703C24.7878 24.7739 24.3803 24.5612 23.9478 24.3907C23.3276 24.1459 22.6964 23.9277 22.0527 23.7353C22.0473 23.7094 22.0801 23.6899 22.1513 23.6766C22.1951 23.668 22.2013 23.6477 22.1708 23.6156C22.163 23.607 22.1552 23.5984 22.1482 23.589C22.1388 23.5773 22.1341 23.5632 22.1333 23.5483L22.1278 23.144C22.1278 23.1197 22.1153 23.1033 22.0918 23.0955C21.9612 23.054 21.8893 23.004 21.876 22.9453Z" fill="#2DBFC3"/>
<path d="M26.0533 23.5503C26.9528 23.7052 27.8546 23.8866 28.7579 24.0939C29.0348 24.1572 29.4978 24.2847 30.147 24.4763C30.599 24.6101 30.9964 24.7939 31.3397 25.0277H26.04L26.0533 23.5503Z" fill="#1EBED6"/>
<path d="M21.876 22.9449C21.8893 23.0036 21.9613 23.0536 22.0919 23.0951C22.1154 23.1029 22.1271 23.1193 22.1279 23.1436L22.1333 23.5479C22.1333 23.5628 22.1388 23.5769 22.1482 23.5886C22.1552 23.598 22.1631 23.6066 22.1709 23.6152C22.2014 23.6473 22.1951 23.6676 22.1513 23.6762C22.0802 23.6895 22.0473 23.709 22.0528 23.7349C20.1757 23.1999 18.2806 22.7439 16.3668 22.3661C16.3582 22.3638 16.3542 22.3591 16.3558 22.3505C16.3566 22.3411 16.3621 22.3372 16.3707 22.338C18.2087 22.5116 20.0435 22.7142 21.876 22.9449Z" fill="#3CC0B2"/>
<circle cx="20" cy="20" r="19.5" stroke="black" stroke-opacity="0.05"/>
</svg>
