<svg width="40" height="40" viewBox="0 0 40 40" fill="none" xmlns="http://www.w3.org/2000/svg">
<circle cx="20" cy="20" r="20" fill="#91C221"/>
<path d="M15.0561 20.2463C15.1101 21.204 14.3539 22.0288 13.3681 22.0828C12.3823 22.1368 11.5354 21.4103 11.4803 20.4526C11.4262 19.4949 12.1825 18.6701 13.1682 18.6161C14.154 18.5621 15.001 19.2897 15.0561 20.2474V20.2463ZM13.3276 21.4022C13.8866 21.3719 14.315 20.8756 14.2831 20.2933C14.2512 19.711 13.7727 19.2643 13.2131 19.2945C12.6535 19.3248 12.2257 19.8212 12.2575 20.4035C12.2894 20.9857 12.7658 21.4324 13.3254 21.4022H13.3276Z" fill="white"/>
<path d="M24.2003 20.233C24.2624 21.1907 23.5127 22.0182 22.5258 22.0819C21.539 22.1457 20.6893 21.4213 20.6266 20.4642C20.5645 19.5065 21.3143 18.679 22.3011 18.6152C23.288 18.5515 24.1376 19.2758 24.2003 20.2357V20.233ZM22.5139 21.4013C23.0719 21.3473 23.4786 20.8325 23.4225 20.2513C23.3663 19.6701 22.8688 19.2423 22.3108 19.2958C21.7529 19.3498 21.3461 19.8646 21.4023 20.4458C21.4585 21.027 21.956 21.4548 22.5139 21.4013Z" fill="white"/>
<path d="M36.5836 20.8425C35.9624 20.5725 34.941 20.5757 34.9631 19.6407C34.9729 19.232 35.1603 18.941 35.5254 18.7678C36.1142 18.4896 36.8504 18.6463 37.3711 19.0379C37.3762 19.0418 37.3797 19.0475 37.3807 19.0538C37.3817 19.0602 37.3802 19.0667 37.3765 19.0719L37.0357 19.5699C37.0276 19.5809 37.0156 19.5884 37.0022 19.5909C36.9887 19.5934 36.9748 19.5908 36.9633 19.5834C36.685 19.376 36.3947 19.2725 36.0926 19.2729C35.7145 19.2729 35.5389 19.7082 35.9397 19.8762C36.0641 19.9259 36.1934 19.9621 36.3254 19.9842C36.5449 20.0291 36.7578 20.1017 36.959 20.2003C37.3569 20.3875 37.5352 20.7044 37.4937 21.151C37.4682 21.4146 37.369 21.6176 37.1961 21.7602C36.7418 22.1384 36.0958 22.1313 35.553 21.9423C35.2964 21.8532 35.0625 21.7592 34.8697 21.5582C34.863 21.5508 34.8594 21.5412 34.8594 21.5312C34.8594 21.5213 34.863 21.5116 34.8697 21.5042L35.237 21.0429C35.244 21.0341 35.2541 21.0284 35.2653 21.0268C35.2764 21.0251 35.2877 21.0278 35.297 21.0343C35.6367 21.2703 35.9338 21.4443 36.3546 21.4227C36.5193 21.414 36.7235 21.3405 36.7645 21.1601C36.7977 21.0147 36.7374 20.9088 36.5836 20.8425Z" fill="white"/>
<path d="M28.5716 21.2848L28.3118 21.994C28.31 21.9986 28.3068 22.0025 28.3028 22.0053C28.2988 22.0081 28.294 22.0096 28.2891 22.0097L27.5696 22.0178C27.5632 22.0178 27.557 22.0153 27.5524 22.0107C27.5479 22.0061 27.5453 22 27.5453 21.9935C27.5448 21.9905 27.5448 21.9874 27.5453 21.9843L28.96 18.6689C28.9619 18.6645 28.9651 18.6608 28.9691 18.6582C28.9731 18.6556 28.9778 18.6542 28.9826 18.6543H29.6368C29.6416 18.6542 29.6463 18.6556 29.6503 18.6582C29.6544 18.6608 29.6575 18.6645 29.6595 18.6689L31.0741 21.9832C31.0754 21.9861 31.0762 21.9893 31.0763 21.9925C31.0764 21.9957 31.0758 21.9988 31.0747 22.0018C31.0735 22.0048 31.0718 22.0075 31.0695 22.0098C31.0673 22.0121 31.0646 22.0139 31.0617 22.0151C31.0583 22.0159 31.0548 22.0159 31.0514 22.0151L30.333 22.0103C30.3282 22.0103 30.3236 22.0088 30.3196 22.0061C30.3157 22.0034 30.3126 21.9996 30.3109 21.9951L30.0214 21.2816C30.0196 21.2771 30.0166 21.2733 30.0126 21.2706C30.0087 21.2679 30.004 21.2665 29.9992 21.2665H28.5948C28.5895 21.2666 28.5844 21.2685 28.5802 21.2718C28.576 21.2751 28.573 21.2797 28.5716 21.2848ZM28.86 20.6032C28.8592 20.6053 28.8587 20.6076 28.8587 20.6099C28.8587 20.6122 28.8592 20.6144 28.8601 20.6165C28.861 20.6187 28.8624 20.6206 28.864 20.6222C28.8657 20.6238 28.8676 20.625 28.8698 20.6258H28.8762H29.7243C29.7288 20.6259 29.7332 20.6241 29.7365 20.621C29.7398 20.6179 29.7418 20.6136 29.7421 20.6091C29.7427 20.6066 29.7427 20.604 29.7421 20.6015L29.3159 19.5947C29.315 19.5926 29.3137 19.5907 29.3121 19.5891C29.3105 19.5875 29.3086 19.5863 29.3065 19.5854C29.3044 19.5846 29.3021 19.5841 29.2998 19.5841C29.2976 19.5842 29.2953 19.5846 29.2932 19.5855C29.2911 19.5863 29.2892 19.5875 29.2876 19.5891C29.2861 19.5907 29.2848 19.5926 29.284 19.5947L28.86 20.6032Z" fill="white"/>
<path d="M25.6329 21.3272C25.6945 21.3538 25.7613 21.3666 25.8284 21.3644C26.2775 21.3554 26.7465 21.3522 27.2355 21.3547C27.2459 21.3549 27.2558 21.3591 27.2631 21.3665C27.2703 21.3738 27.2744 21.3838 27.2744 21.3942L27.2701 21.9435C27.27 21.9629 27.2622 21.9814 27.2484 21.9951C27.2346 22.0087 27.216 22.0164 27.1966 22.0164L24.9053 22.0126C24.889 22.0126 24.8733 22.0061 24.8618 21.9946C24.8502 21.983 24.8438 21.9674 24.8438 21.951V18.7069C24.8438 18.7002 24.8464 18.6937 24.8512 18.689C24.8559 18.6842 24.8624 18.6815 24.8691 18.6815L25.5476 18.6777C25.5539 18.6777 25.5601 18.6788 25.566 18.6812C25.5719 18.6835 25.5772 18.687 25.5817 18.6914C25.5862 18.6958 25.5898 18.7011 25.5923 18.7069C25.5948 18.7127 25.5961 18.719 25.5962 18.7253L25.601 21.2796C25.6007 21.2899 25.6036 21.3 25.6093 21.3085C25.6151 21.317 25.6233 21.3236 25.6329 21.3272Z" fill="white"/>
<path d="M9.12665 20.0817C9.12665 20.0863 9.12847 20.0907 9.13171 20.0939C9.13495 20.0972 9.13935 20.099 9.14393 20.099C9.14613 20.099 9.14832 20.0986 9.15036 20.0977C9.1524 20.0969 9.15425 20.0957 9.15581 20.0941C9.42265 19.8363 9.68498 19.5595 9.94281 19.2639C10.0984 19.0851 10.275 18.916 10.4327 18.7459C10.4552 18.7219 10.4827 18.703 10.5132 18.6906C10.5437 18.6782 10.5765 18.6726 10.6094 18.6741C10.8546 18.6741 11.0913 18.6757 11.3197 18.6789C11.3278 18.6789 11.3356 18.6822 11.3414 18.6879C11.3472 18.6937 11.3504 18.7015 11.3504 18.7097C11.3506 18.7136 11.3499 18.7175 11.3486 18.7211C11.3472 18.7247 11.345 18.728 11.3423 18.7308C11.1906 18.8928 11.0182 19.0473 10.8719 19.2093C10.6094 19.4996 10.3368 19.7792 10.0541 20.0482C10.0479 20.0527 10.0428 20.0585 10.039 20.0651C10.0352 20.0718 10.0329 20.0791 10.0322 20.0867C10.0315 20.0943 10.0324 20.102 10.0349 20.1092C10.0373 20.1165 10.0413 20.1231 10.0465 20.1287C10.3582 20.5608 10.6947 20.9665 10.9853 21.3986C11.1204 21.5986 11.2674 21.7903 11.4255 21.9728C11.4291 21.9768 11.4314 21.9817 11.4322 21.987C11.433 21.9923 11.4323 21.9977 11.43 22.0026C11.4278 22.0075 11.4242 22.0116 11.4196 22.0145C11.4151 22.0173 11.4098 22.0188 11.4045 22.0187H10.632C10.6141 22.0186 10.5965 22.0146 10.5803 22.0071C10.564 21.9995 10.5496 21.9885 10.5381 21.9749C10.3918 21.8019 10.2545 21.6216 10.1265 21.4348C9.92553 21.142 9.73053 20.8755 9.54148 20.6353C9.53661 20.6294 9.5296 20.6255 9.52194 20.6246C9.51428 20.6237 9.50656 20.6258 9.50043 20.6305L9.49719 20.6337C9.4059 20.7315 9.30868 20.8266 9.20443 20.9184C9.1791 20.9406 9.159 20.9682 9.14556 20.9991C9.13211 21.03 9.12566 21.0635 9.12665 21.0972C9.12665 21.4 9.12845 21.6895 9.13205 21.9657C9.13219 21.9723 9.13105 21.9788 9.12868 21.9848C9.12631 21.9909 9.12277 21.9965 9.11826 22.0012C9.11374 22.0059 9.10835 22.0097 9.10237 22.0123C9.09639 22.0149 9.08996 22.0164 9.08343 22.0165L8.4466 22.0257C8.43282 22.0257 8.41955 22.0205 8.4095 22.011C8.39946 22.0016 8.39341 21.9887 8.39258 21.9749V18.7205C8.39251 18.7149 8.39355 18.7094 8.39563 18.7042C8.39772 18.6991 8.40081 18.6943 8.40473 18.6904C8.40865 18.6864 8.41332 18.6833 8.41846 18.6811C8.42361 18.6789 8.42913 18.6778 8.43471 18.6778H9.08289C9.08927 18.6769 9.09578 18.6775 9.10189 18.6796C9.108 18.6816 9.11355 18.6851 9.11811 18.6896C9.12267 18.6942 9.1261 18.6997 9.12815 18.7058C9.13019 18.712 9.13079 18.7185 9.12989 18.7248L9.12665 20.0817Z" fill="white"/>
<path d="M17.9851 20.2866C18.3913 20.4609 18.5807 20.7573 18.5534 21.1757C18.5134 21.7947 17.9452 22.0021 17.4142 22.0059L15.7532 22.0173C15.7389 22.0173 15.7252 22.0116 15.715 22.0015C15.7049 21.9913 15.6992 21.9776 15.6992 21.9633V18.7094C15.6994 18.7015 15.7026 18.6939 15.7083 18.6884C15.7139 18.6828 15.7215 18.6797 15.7295 18.6797C16.2869 18.6797 16.8171 18.6797 17.3202 18.6797C17.6637 18.6797 18.1223 18.825 18.2784 19.1577C18.4588 19.5418 18.3611 20.022 17.9808 20.238C17.9745 20.2417 17.9699 20.2478 17.968 20.2548C17.9661 20.2619 17.967 20.2694 17.9705 20.2758C17.9741 20.2809 17.9792 20.2847 17.9851 20.2866ZM16.4117 19.3425V19.995C16.4117 20.0021 16.4145 20.009 16.4196 20.014C16.4247 20.0191 16.4315 20.022 16.4387 20.022H17.1987C17.4401 20.022 17.6357 19.881 17.6357 19.7071V19.6304C17.6357 19.4564 17.4401 19.3154 17.1987 19.3154H16.4387C16.4315 19.3154 16.4247 19.3183 16.4196 19.3234C16.4145 19.3284 16.4117 19.3353 16.4117 19.3425ZM16.4149 20.6782L16.4106 21.334C16.4106 21.3435 16.4143 21.3526 16.421 21.3594C16.4277 21.3662 16.4367 21.37 16.4462 21.3702L17.3829 21.3767C17.6232 21.3767 17.8188 21.2303 17.8204 21.0461V20.9856C17.8204 20.8014 17.6286 20.6502 17.3883 20.6485L16.4516 20.6421C16.4469 20.642 16.4422 20.6428 16.4378 20.6446C16.4333 20.6464 16.4293 20.649 16.4259 20.6523C16.4225 20.6556 16.4198 20.6595 16.4179 20.6639C16.416 20.6683 16.415 20.6729 16.4149 20.6777V20.6782Z" fill="white"/>
<path d="M19.9087 18.6797H19.2336C19.213 18.6797 19.1963 18.6964 19.1963 18.717V21.9805C19.1963 22.0011 19.213 22.0178 19.2336 22.0178H19.9087C19.9293 22.0178 19.946 22.0011 19.946 21.9805V18.717C19.946 18.6964 19.9293 18.6797 19.9087 18.6797Z" fill="white"/>
<path d="M33.8719 20.2753C34.2408 20.4746 34.472 20.6674 34.4601 21.1395C34.4605 21.3038 34.4102 21.4642 34.3162 21.5989C34.2221 21.7336 34.0889 21.8361 33.9346 21.8925C33.7606 21.9634 33.5757 22.0036 33.3879 22.0113C32.7898 22.0214 32.2002 22.0225 31.619 22.0146C31.6159 22.0144 31.613 22.0131 31.6109 22.0109C31.6088 22.0087 31.6076 22.0057 31.6076 22.0027V18.7078C31.6072 18.7046 31.6075 18.7014 31.6085 18.6983C31.6095 18.6953 31.6112 18.6925 31.6134 18.6902C31.6157 18.6879 31.6184 18.6862 31.6214 18.6851C31.6244 18.684 31.6277 18.6837 31.6308 18.684C32.176 18.6782 32.7201 18.6782 33.2632 18.684C33.8687 18.6921 34.3829 19.0864 34.2533 19.7476C34.2173 19.933 34.0903 20.1006 33.8725 20.2504C33.8691 20.2529 33.8668 20.2566 33.8661 20.2608C33.8654 20.2649 33.8663 20.2691 33.8687 20.2726C33.8696 20.2736 33.8707 20.2745 33.8719 20.2753ZM32.319 19.3522L32.3222 19.9928C32.3222 20.0011 32.3255 20.0091 32.3314 20.0149C32.3373 20.0208 32.3453 20.0241 32.3536 20.0241L33.1152 20.0198C33.3491 20.0198 33.5381 19.8788 33.537 19.7076V19.6244C33.537 19.4532 33.3458 19.3154 33.1119 19.3165L32.3503 19.3208C32.3462 19.3208 32.3421 19.3217 32.3383 19.3232C32.3345 19.3248 32.3311 19.3271 32.3282 19.33C32.3253 19.3329 32.3229 19.3364 32.3214 19.3402C32.3198 19.344 32.319 19.3481 32.319 19.3522ZM32.319 20.6853V21.3421C32.319 21.3517 32.3228 21.3609 32.3296 21.3677C32.3364 21.3745 32.3456 21.3783 32.3552 21.3783H33.268C33.5235 21.3783 33.7304 21.2222 33.7304 21.0299V20.9964C33.7304 20.8041 33.523 20.6485 33.2675 20.6491H32.3546C32.3453 20.6495 32.3365 20.6535 32.3301 20.6602C32.3236 20.667 32.3201 20.6759 32.3201 20.6853H32.319Z" fill="white"/>
<path d="M3.74609 20.8543C3.74881 20.8694 3.75005 20.8773 3.75005 20.8791C3.75228 20.9085 3.76019 20.9102 3.77478 20.884C3.78722 20.8603 3.79423 20.8341 3.7953 20.8074C3.7953 20.8032 3.79728 20.8022 3.80074 20.8041C3.80186 20.8049 3.8032 20.8054 3.80457 20.8054C3.80595 20.8054 3.80728 20.8049 3.80841 20.8041C3.82519 20.79 3.83963 20.7733 3.85118 20.7547C3.88107 20.7055 3.91411 20.6582 3.95009 20.6133C3.97309 20.5843 3.98075 20.5547 4.004 20.5265C4.01923 20.5076 4.03226 20.487 4.04282 20.4651C4.05962 20.4336 4.08545 20.4078 4.117 20.391C4.12454 20.3866 4.13091 20.3805 4.13555 20.3732C4.14373 20.3599 4.1557 20.3494 4.16992 20.343C4.17685 20.3398 4.18227 20.334 4.185 20.3269C4.1996 20.2902 4.22386 20.258 4.25523 20.2339C4.25805 20.2319 4.26027 20.2292 4.26166 20.226C4.26306 20.2228 4.26357 20.2193 4.26314 20.2159C4.26297 20.2147 4.26308 20.2134 4.26347 20.2123C4.26386 20.2111 4.2645 20.2101 4.26537 20.2092C4.32055 20.15 4.37129 20.0867 4.41719 20.02C4.43648 19.9914 4.46442 19.9706 4.48346 19.9414C4.49341 19.9253 4.50501 19.9102 4.51808 19.8964C4.53937 19.8732 4.55887 19.8484 4.57643 19.8222C4.61155 19.7728 4.64691 19.7233 4.68251 19.6739C4.6963 19.6548 4.71214 19.6373 4.72974 19.6217C4.74748 19.6056 4.76258 19.5868 4.7745 19.5661C4.77579 19.5639 4.7764 19.5614 4.77623 19.5589C4.77623 19.5537 4.7745 19.552 4.77178 19.5534C4.75719 19.5614 4.75521 19.5589 4.76535 19.5458C4.84415 19.4459 4.92476 19.3485 5.00718 19.2535C5.04228 19.2119 5.07372 19.1673 5.10114 19.1202C5.10532 19.1135 5.11144 19.1083 5.1187 19.1051C5.129 19.1009 5.13821 19.0944 5.14565 19.0861C5.15678 19.0742 5.15431 19.0693 5.13824 19.071C5.13502 19.071 5.1328 19.0695 5.13181 19.0653C5.1309 19.0623 5.13094 19.0591 5.13191 19.0561C5.13288 19.0531 5.13474 19.0504 5.13725 19.0485L5.1867 19.0057C5.18776 19.0048 5.18851 19.0035 5.18888 19.0021C5.18924 19.0008 5.1892 18.9993 5.18875 18.998C5.18831 18.9966 5.18748 18.9954 5.18637 18.9945C5.18526 18.9936 5.18392 18.993 5.1825 18.9929L5.1595 18.9907C5.15647 18.9902 5.15337 18.9906 5.15049 18.9916C5.14761 18.9926 5.14501 18.9943 5.14293 18.9966C5.12838 19.0103 5.11116 19.0208 5.09235 19.0274C5.07354 19.0341 5.05355 19.0368 5.03364 19.0354" stroke="#218E3E" stroke-width="2"/>
<path d="M5.03516 19.0337L5.4162 18.8379" stroke="#94CB9D" stroke-width="2"/>
<path d="M5.7743 18.5818C5.66652 18.6817 5.54645 18.7676 5.41699 18.8372" stroke="#8BC294" stroke-width="2"/>
<path d="M5.41574 18.8382C5.4459 18.7913 5.4065 18.7816 5.29754 18.8093C5.29389 18.8104 5.29002 18.8104 5.28636 18.8094C5.2827 18.8084 5.27938 18.8064 5.27677 18.8036C5.27072 18.7968 5.2627 18.7921 5.25383 18.7901C5.24496 18.7881 5.23569 18.789 5.22731 18.7925C5.20024 18.8022 5.17267 18.8105 5.14473 18.8172C5.13638 18.8193 5.12772 18.8196 5.11924 18.8183C5.11075 18.817 5.10261 18.814 5.09527 18.8096C5.09324 18.8083 5.09095 18.8074 5.08856 18.8071C5.08617 18.8067 5.08374 18.8069 5.08142 18.8076C5.06898 18.8111 5.05731 18.817 5.04705 18.8249C5.04436 18.827 5.04117 18.8284 5.0378 18.8289C5.03442 18.8294 5.03097 18.8291 5.02777 18.8279C5.01983 18.8247 5.01114 18.824 5.00279 18.8257C4.99443 18.8275 4.98678 18.8317 4.98078 18.8378C4.97782 18.8403 4.97425 18.8421 4.9704 18.8429C4.96794 18.8435 4.96536 18.8432 4.96308 18.8421C4.9608 18.8411 4.95893 18.8393 4.95779 18.837C4.95651 18.8348 4.95466 18.8331 4.95243 18.8319C4.9502 18.8307 4.94769 18.8302 4.94518 18.8303C4.9024 18.8336 4.85715 18.8348 4.80967 18.834C4.76685 18.8333 4.72406 18.8366 4.68183 18.8437L4.54361 18.8684C4.4926 18.8774 4.44281 18.8922 4.39524 18.9127C4.29221 18.9559 4.19124 18.9977 4.09234 19.0383C4.08531 19.0412 4.07911 19.0458 4.07429 19.0516C4.05169 19.0801 4.0203 19.1003 3.98502 19.109C3.97914 19.1103 3.9739 19.1137 3.97018 19.1184C3.95762 19.1346 3.93945 19.1456 3.91925 19.1491C3.9138 19.1501 3.90879 19.1528 3.9049 19.1567C3.89144 19.1712 3.87437 19.1818 3.85545 19.1874C3.84789 19.1898 3.84114 19.1943 3.83591 19.2003C3.81741 19.2184 3.80084 19.2383 3.78646 19.2598C3.7607 19.3058 3.72724 19.3471 3.68755 19.3818C3.67049 19.3968 3.66703 19.4159 3.64997 19.4312C3.6378 19.4421 3.62737 19.4548 3.61906 19.4688C3.5762 19.5397 3.53218 19.6098 3.48701 19.6792C3.47566 19.6964 3.46932 19.7165 3.46872 19.7371C3.46668 19.752 3.46234 19.7665 3.45586 19.7801C3.44279 19.8083 3.43116 19.8371 3.42099 19.8664C3.41726 19.8775 3.41175 19.888 3.40467 19.8973C3.40074 19.902 3.39799 19.9076 3.39666 19.9136C3.39532 19.9195 3.39544 19.9258 3.39701 19.9317C3.39789 19.9348 3.39771 19.9381 3.3965 19.9411C3.39529 19.9441 3.39312 19.9466 3.39033 19.9483C3.38753 19.9501 3.3851 19.9524 3.38316 19.9552C3.3799 19.9598 3.37802 19.9653 3.37772 19.971C3.37113 20.0498 3.36239 20.124 3.35151 20.1935C3.3406 20.274 3.33803 20.3554 3.34384 20.4364C3.34639 20.4867 3.35192 20.5368 3.36041 20.5865C3.36915 20.6359 3.37698 20.6849 3.3839 20.7333C3.39489 20.7935 3.41831 20.8507 3.45264 20.9012C3.48578 20.9537 3.48355 21.0093 3.53177 21.0545C3.53483 21.0575 3.53709 21.0611 3.53835 21.0651C3.5396 21.0691 3.53981 21.0734 3.53894 21.0775C3.53832 21.0809 3.53832 21.0843 3.53894 21.0877C3.54265 21.1124 3.5654 21.1312 3.5701 21.1619C3.57136 21.1705 3.57505 21.1785 3.58073 21.1851C3.58585 21.1908 3.58977 21.1974 3.59224 21.2046C3.5947 21.2119 3.59567 21.2195 3.59507 21.2271C3.59466 21.2319 3.59523 21.2367 3.59677 21.2412C3.5983 21.2457 3.60075 21.2498 3.60397 21.2534C3.62375 21.2758 3.63813 21.3024 3.64601 21.3312C3.64829 21.3397 3.65323 21.3471 3.66009 21.3525C3.66695 21.3579 3.67537 21.3609 3.68409 21.3612C3.69336 21.3615 3.70217 21.3653 3.70882 21.3718C3.71994 21.3827 3.72637 21.3805 3.72835 21.3651L3.74047 21.2662C3.74089 21.2629 3.74062 21.2595 3.73969 21.2563C3.73875 21.253 3.73717 21.25 3.73503 21.2474C3.73123 21.2428 3.72894 21.2371 3.72846 21.2312C3.72797 21.2252 3.72931 21.2192 3.73231 21.214C3.73446 21.2094 3.73555 21.2043 3.73552 21.1992V20.9025C3.73531 20.9018 3.73531 20.901 3.73552 20.9003L3.74072 20.8946" stroke="#91C221" stroke-width="2"/>
<path d="M4.87891 20.8631C5.16429 20.5064 5.40341 20.115 5.59056 19.6982C5.63564 19.5985 5.67373 19.4957 5.70455 19.3906" stroke="#A2D29B" stroke-width="2"/>
<path d="M4.76752 22.6725C4.14805 22.6541 3.56124 22.3904 3.13619 21.9394C2.71114 21.4884 2.48266 20.887 2.50103 20.2675C2.51939 19.648 2.78309 19.0612 3.2341 18.6362C3.68512 18.2111 4.28652 17.9827 4.906 18.001C5.52547 18.0194 6.11228 18.2831 6.53733 18.7341C6.96238 19.1851 7.19085 19.7865 7.17249 20.406C7.15413 21.0255 6.89043 21.6123 6.43941 22.0373C5.9884 22.4624 5.387 22.6909 4.76752 22.6725ZM5.93935 18.4122C5.93935 18.3836 5.92748 18.389 5.90052 18.4286C5.82986 18.3519 5.73702 18.2991 5.63495 18.2777C5.59951 18.2693 5.56415 18.2604 5.52887 18.251C5.52496 18.25 5.52129 18.2483 5.5181 18.2458C5.51491 18.2433 5.51226 18.2402 5.51033 18.2367C5.50866 18.2335 5.50607 18.2309 5.50291 18.2293C5.49473 18.2245 5.48541 18.2221 5.47596 18.2223C5.45123 18.2223 5.43516 18.2053 5.41216 18.1991C5.38427 18.1915 5.35595 18.1855 5.32735 18.1813C5.29464 18.1747 5.26511 18.1573 5.24352 18.1318C5.23961 18.128 5.23456 18.1256 5.22915 18.125C5.22374 18.1244 5.21827 18.1256 5.2136 18.1284C5.20665 18.1329 5.19894 18.136 5.19085 18.1378C5.18555 18.1389 5.18006 18.1389 5.17476 18.1377C5.16947 18.1365 5.1645 18.1341 5.16019 18.1308C5.14519 18.1194 5.12686 18.1133 5.10802 18.1133C5.03285 18.1133 4.958 18.1133 4.88349 18.1133C4.87662 18.1132 4.86987 18.1114 4.86396 18.1078C4.85261 18.1005 4.83974 18.0959 4.82632 18.0943C4.81291 18.0927 4.79931 18.0942 4.78656 18.0987C4.74282 18.1168 4.69382 18.1175 4.64957 18.1007C4.64472 18.0985 4.63945 18.0973 4.63412 18.0973C4.62879 18.0973 4.62352 18.0985 4.61867 18.1007L4.53608 18.1353C4.52892 18.1388 4.52103 18.1405 4.51308 18.1402L4.4431 18.1333C4.43541 18.1325 4.42765 18.1341 4.42085 18.1378C4.37741 18.1614 4.32947 18.1757 4.28015 18.1796C4.24415 18.1825 4.20881 18.1908 4.17531 18.2043L4.08827 18.2369C4.00376 18.2639 3.92237 18.2998 3.84545 18.344C3.81986 18.359 3.79265 18.371 3.76434 18.3798C3.73381 18.3888 3.70556 18.4043 3.6815 18.4251C3.65369 18.4493 3.62383 18.4711 3.59224 18.4901C3.55435 18.5135 3.5194 18.5413 3.48814 18.573C3.48116 18.58 3.47272 18.5854 3.46341 18.5888C3.4541 18.5921 3.44565 18.5974 3.43868 18.6044C3.38277 18.6614 3.3225 18.714 3.25842 18.7616C3.25229 18.7663 3.24765 18.7727 3.24507 18.7799C3.23295 18.8146 3.19413 18.8329 3.17237 18.8633C3.13839 18.9106 3.10086 18.9552 3.06011 18.9968C3.01922 19.0401 2.9864 19.0903 2.96318 19.1452C2.94124 19.1953 2.91423 19.2431 2.88257 19.2878C2.81918 19.3746 2.77209 19.4723 2.7436 19.5759C2.7376 19.5987 2.73008 19.6211 2.7211 19.6429C2.71245 19.6627 2.7055 19.6832 2.70033 19.7042C2.68895 19.7496 2.67634 19.7947 2.6625 19.8395C2.64321 19.8993 2.64914 19.9631 2.63999 20.0252C2.6353 20.0581 2.64148 20.0912 2.6301 20.1221C2.61205 20.1716 2.61996 20.225 2.61205 20.2754C2.6081 20.3023 2.6081 20.3297 2.61205 20.3565C2.62288 20.4358 2.62743 20.5159 2.62565 20.5959C2.62565 20.6454 2.64494 20.6876 2.64346 20.7383C2.64268 20.7738 2.64778 20.8091 2.65854 20.8429C2.67585 20.8991 2.69019 20.9559 2.70181 21.013C2.70799 21.044 2.72654 21.0697 2.73495 21.1003C2.73743 21.1079 2.74138 21.115 2.74657 21.1211C2.76127 21.1379 2.76905 21.1596 2.76833 21.1819C2.76809 21.1899 2.77006 21.1978 2.77402 21.2047C2.78812 21.2297 2.79916 21.2564 2.8069 21.2841C2.81223 21.3024 2.8197 21.3201 2.82916 21.3367C2.83943 21.3549 2.84844 21.3737 2.85611 21.3931C2.86691 21.4194 2.88241 21.4434 2.90186 21.4641C2.94538 21.5118 2.96441 21.5773 2.99087 21.6352C2.99764 21.6502 3.0079 21.6633 3.02079 21.6735C3.03397 21.6844 3.04525 21.6975 3.05417 21.7121C3.06865 21.7329 3.08522 21.7522 3.10363 21.7697C3.13231 21.7979 3.16017 21.827 3.18721 21.857C3.21317 21.8859 3.24087 21.9148 3.2698 21.9443C3.31307 21.9875 3.35535 22.0333 3.39714 22.0815C3.43893 22.1297 3.5141 22.1804 3.62191 22.2319C3.62658 22.2341 3.63028 22.238 3.6323 22.2427C3.63373 22.2462 3.63585 22.2493 3.63853 22.2519C3.64121 22.2545 3.64439 22.2565 3.64787 22.2578C3.69371 22.2788 3.73314 22.3115 3.76211 22.3528C3.76637 22.3585 3.77263 22.3625 3.77967 22.3639L3.78783 22.3656C3.79239 22.3665 3.79668 22.3685 3.80033 22.3714C3.80399 22.3743 3.8069 22.378 3.80885 22.3822C3.81385 22.3934 3.82128 22.4034 3.83061 22.4114C3.83862 22.4181 3.84841 22.4224 3.8588 22.4237C3.89515 22.4287 3.93298 22.4349 3.97007 22.4425C3.97942 22.4442 3.98775 22.4494 3.99331 22.4571C4.00044 22.4679 4.01047 22.4764 4.02224 22.4817C4.03401 22.487 4.04705 22.4889 4.05983 22.487C4.07942 22.4841 4.09934 22.4841 4.11893 22.487C4.16064 22.494 4.20192 22.5033 4.24256 22.515C4.26741 22.5222 4.2931 22.5262 4.31897 22.5268C4.34686 22.5268 4.37446 22.5324 4.40008 22.5434C4.42396 22.5539 4.44994 22.5587 4.47599 22.5575C4.50385 22.5563 4.53152 22.5524 4.55858 22.5456C4.56243 22.5447 4.56646 22.5448 4.57028 22.5458C4.5741 22.5469 4.57757 22.549 4.58034 22.5518C4.58682 22.5581 4.59462 22.5629 4.60316 22.5659C4.61171 22.5688 4.6208 22.5698 4.62979 22.5689C4.6919 22.5648 4.75425 22.5667 4.81599 22.5746C4.86328 22.5805 4.91113 22.5805 4.95842 22.5746C5.01255 22.5679 5.06711 22.5654 5.12162 22.5672C5.15722 22.5672 5.18467 22.5538 5.22053 22.5607C5.22869 22.5624 5.23709 22.5624 5.24525 22.5607L5.31943 22.5469C5.32124 22.5465 5.32295 22.5458 5.32448 22.5448C5.32601 22.5438 5.32732 22.5425 5.32834 22.5409C5.32958 22.539 5.33153 22.5376 5.33378 22.537C5.36481 22.5288 5.39666 22.5241 5.42873 22.5229C5.43887 22.5226 5.44852 22.5185 5.45568 22.5113L5.46458 22.5026C5.47171 22.4953 5.48114 22.4907 5.49129 22.4895C5.52367 22.4854 5.55567 22.4787 5.58698 22.4695C5.59243 22.4675 5.59834 22.4673 5.60394 22.4687C5.60953 22.4702 5.61457 22.4733 5.61839 22.4776C5.61972 22.479 5.62132 22.4801 5.62308 22.4808C5.62484 22.4816 5.62674 22.482 5.62865 22.482C5.63056 22.482 5.63245 22.4816 5.63422 22.4808C5.63598 22.4801 5.63757 22.479 5.63891 22.4776C5.64001 22.4768 5.64094 22.4757 5.64163 22.4744C5.64508 22.4666 5.65088 22.46 5.65823 22.4555C5.66558 22.4511 5.67412 22.4491 5.68268 22.4497C5.68631 22.45 5.68996 22.4495 5.6933 22.448C5.69663 22.4465 5.69953 22.4442 5.70172 22.4413C5.70862 22.4319 5.71758 22.4243 5.72791 22.4189C5.73824 22.4135 5.74967 22.4106 5.76131 22.4104C5.77398 22.41 5.78616 22.4054 5.79593 22.3973C5.81879 22.378 5.84666 22.3657 5.87629 22.3617C5.88027 22.3611 5.88408 22.3597 5.88742 22.3575C5.89076 22.3552 5.89355 22.3523 5.89558 22.3488C5.90485 22.3331 5.91913 22.3209 5.93613 22.3142C5.94287 22.3116 5.9486 22.3069 5.95245 22.3008C5.96266 22.2841 5.97649 22.2699 5.99292 22.2593C6.00936 22.2486 6.02798 22.2418 6.0474 22.2393C6.04998 22.239 6.05243 22.238 6.05445 22.2364C6.05647 22.2348 6.05797 22.2326 6.05878 22.2301C6.05981 22.2277 6.06123 22.2254 6.06298 22.2234C6.06716 22.2191 6.07233 22.2158 6.07807 22.2138C6.10984 22.204 6.13964 22.1887 6.16609 22.1686C6.19171 22.1482 6.21855 22.1295 6.24646 22.1124C6.28079 22.0922 6.31209 22.0672 6.33943 22.0382C6.39453 21.9796 6.45352 21.9248 6.51598 21.874C6.52805 21.8645 6.53864 21.8531 6.54739 21.8404C6.55542 21.829 6.56471 21.8184 6.57508 21.809C6.5813 21.8036 6.58605 21.7967 6.58893 21.789C6.59882 21.7622 6.61594 21.7387 6.63838 21.721C6.64541 21.7156 6.65101 21.7085 6.6547 21.7005C6.6735 21.6604 6.7007 21.6297 6.71825 21.5887C6.74314 21.531 6.76894 21.478 6.79565 21.4297C6.80505 21.4129 6.82285 21.4074 6.83002 21.3867C6.85054 21.3276 6.87181 21.2687 6.89382 21.2096C6.91622 21.1506 6.93351 21.0898 6.9455 21.0279C6.96208 20.9408 6.98463 20.855 7.013 20.771C7.02176 20.7456 7.02652 20.719 7.0271 20.6921C7.02771 20.6643 7.0342 20.637 7.04614 20.612C7.04795 20.6084 7.04902 20.6045 7.04927 20.6005C7.04953 20.5965 7.04897 20.5925 7.04762 20.5887C7.04616 20.5846 7.04571 20.5802 7.04631 20.5759C7.04692 20.5716 7.04855 20.5675 7.05108 20.564C7.0536 20.5605 7.05534 20.5564 7.05619 20.5522C7.05704 20.5479 7.05699 20.5435 7.05603 20.5393C7.04243 20.472 7.05875 20.4085 7.05232 20.339C7.04341 20.2388 7.0406 20.1381 7.04391 20.0376C7.04738 19.9825 7.03584 19.9276 7.01053 19.8786C7.00076 19.8609 6.99368 19.8419 6.98951 19.8222L6.9769 19.7614C6.96478 19.7037 6.94352 19.6508 6.92744 19.5932C6.9193 19.5659 6.90896 19.5393 6.89654 19.5136C6.8802 19.4805 6.86703 19.4458 6.85722 19.4102C6.84803 19.3753 6.83501 19.3414 6.8184 19.3093C6.78477 19.2463 6.75238 19.1835 6.72147 19.1204C6.70575 19.0947 6.68652 19.0713 6.66435 19.0509C6.65021 19.0354 6.63723 19.0189 6.62553 19.0015C6.60155 18.9653 6.57396 18.9317 6.54318 18.9011C6.46241 18.8195 6.37998 18.7414 6.29591 18.6667C6.26693 18.6405 6.23478 18.6179 6.20022 18.5997C6.17161 18.5847 6.1457 18.5651 6.12356 18.5416C6.08603 18.5022 6.04084 18.4709 5.99078 18.4496C5.98928 18.4489 5.98797 18.4479 5.98698 18.4466C5.98598 18.4453 5.98533 18.4438 5.98509 18.4422C5.98496 18.4407 5.98446 18.4394 5.98364 18.4382C5.98281 18.437 5.98169 18.4361 5.98039 18.4355C5.97825 18.4346 5.97586 18.4346 5.97372 18.4355C5.96992 18.4371 5.96578 18.4377 5.96168 18.4373C5.95757 18.4369 5.95363 18.4355 5.95022 18.4332C5.9468 18.4309 5.94402 18.4278 5.94212 18.4241C5.94022 18.4204 5.93927 18.4164 5.93935 18.4122Z" fill="#BDBCBD"/>
<path d="M5.90083 18.4291C5.89158 18.4514 5.87805 18.4716 5.86102 18.4887C5.84701 18.4585 5.80778 18.4319 5.74332 18.4088L5.65233 18.3762C5.63174 18.3672 5.61175 18.3569 5.59249 18.3453C5.5724 18.3339 5.55073 18.3256 5.5282 18.3206C5.43555 18.2998 5.34719 18.2788 5.26312 18.2575C5.26226 18.2573 5.26149 18.2568 5.26088 18.2561C5.26027 18.2555 5.25985 18.2547 5.25966 18.2538C5.25944 18.2522 5.25865 18.2507 5.25743 18.2496C5.25635 18.2486 5.25496 18.248 5.25348 18.2479C5.18202 18.2405 5.1066 18.232 5.02673 18.2231C4.9659 18.216 4.8937 18.2209 4.82767 18.2105C4.77948 18.2054 4.73099 18.2034 4.68253 18.2046C4.67856 18.2044 4.67461 18.2051 4.67099 18.2068C4.66738 18.2084 4.66421 18.2109 4.66175 18.214C4.65775 18.2191 4.6522 18.2227 4.64593 18.2244C4.61026 18.2334 4.57398 18.2397 4.53738 18.2434C4.50142 18.247 4.46585 18.2537 4.43105 18.2634C4.38613 18.276 4.34056 18.286 4.29456 18.2936C4.2505 18.3013 4.20715 18.3126 4.16499 18.3275C4.11157 18.3465 4.05709 18.3676 4.00154 18.391C3.86124 18.4479 3.72891 18.5227 3.60788 18.6136C3.46114 18.728 3.32447 18.8549 3.19939 18.9927C3.1311 19.0635 3.07233 19.143 3.02457 19.229C2.96489 19.3458 2.90719 19.4622 2.85148 19.5784C2.83283 19.6204 2.81938 19.6645 2.81142 19.7097C2.77521 19.881 2.75043 20.0545 2.73724 20.229C2.72079 20.4479 2.74076 20.668 2.79633 20.8803C2.80638 20.9194 2.81381 20.9592 2.81859 20.9993C2.8226 21.0397 2.83364 21.0791 2.85123 21.1157C2.91717 21.2412 2.95838 21.3228 2.97486 21.3605C3.00726 21.4355 3.04879 21.5062 3.0985 21.571C3.15661 21.6469 3.20977 21.7277 3.27975 21.7935C3.32599 21.8373 3.37099 21.8805 3.41427 21.9236C3.45847 21.9675 3.50592 22.008 3.5562 22.0447C3.62428 22.0942 3.69418 22.1487 3.76589 22.2082C3.81314 22.2438 3.87185 22.2608 3.93082 22.2559C3.93529 22.264 3.9416 22.271 3.94924 22.2762C3.95689 22.2815 3.96565 22.2848 3.97483 22.2861C3.97877 22.2866 3.98279 22.286 3.98633 22.2841C3.98987 22.2823 3.99277 22.2795 3.99461 22.2759C4.00036 22.2663 4.00375 22.2555 4.00451 22.2443C4.00451 22.2584 4.01563 22.269 4.03715 22.2745C4.04034 22.2752 4.04319 22.277 4.04528 22.2796C4.04738 22.2821 4.0486 22.2853 4.04877 22.2885C4.04893 22.2917 4.04984 22.2948 4.05143 22.2976C4.05302 22.3003 4.05525 22.3026 4.05792 22.3044C4.08036 22.3223 4.10684 22.3345 4.13507 22.34C4.14621 22.341 4.15723 22.3432 4.16795 22.3464C4.31055 22.3973 4.45873 22.431 4.60933 22.4468C4.69418 22.4555 4.77951 22.4586 4.86476 22.4559C4.95428 22.454 5.0395 22.4503 5.12044 22.4448C5.22189 22.4369 5.32224 22.4185 5.41989 22.3899C5.43473 22.3856 5.44907 22.3797 5.46267 22.3724C5.47946 22.3635 5.49807 22.3586 5.51707 22.358C5.5296 22.3576 5.54176 22.3536 5.55218 22.3467C5.56025 22.3413 5.57 22.339 5.57963 22.3402C5.60077 22.3426 5.62204 22.3369 5.63922 22.3244C5.65416 22.3137 5.67015 22.3045 5.68694 22.297C5.75964 22.264 5.82937 22.2322 5.89614 22.2018C5.91719 22.1918 5.93495 22.176 5.94732 22.1563C5.94968 22.1524 5.95293 22.1491 5.9568 22.1468C5.96067 22.1444 5.96505 22.143 5.96958 22.1427L5.98985 22.1404C5.99854 22.1397 6.00661 22.1356 6.01235 22.1291C6.0403 22.0977 6.06799 22.063 6.10953 22.0517C6.11781 22.0495 6.1254 22.0452 6.13154 22.0393C6.1894 21.9844 6.24833 21.9308 6.30834 21.8786C6.33361 21.8566 6.35619 21.8317 6.3756 21.8044C6.39452 21.7783 6.41517 21.7535 6.43742 21.7302C6.48057 21.6838 6.51786 21.6324 6.54844 21.5769C6.55588 21.5637 6.5653 21.5517 6.57638 21.5413C6.58846 21.53 6.59901 21.5172 6.60779 21.5032C6.66142 21.4168 6.70957 21.3271 6.75195 21.2347C6.75372 21.2305 6.7544 21.226 6.75392 21.2216C6.75322 21.2174 6.75346 21.2131 6.75461 21.2091C6.75577 21.205 6.75781 21.2012 6.7606 21.1981C6.7669 21.1907 6.77199 21.1823 6.77568 21.1733C6.82872 21.0563 6.87157 20.9348 6.90377 20.8104C6.91201 20.7779 6.91788 20.7448 6.92133 20.7114C6.92454 20.6788 6.92899 20.6447 6.93468 20.6088C6.94258 20.559 6.94646 20.5087 6.9463 20.4582C6.9463 20.3403 6.95248 20.2209 6.93221 20.1024C6.92363 20.0516 6.91729 20.0007 6.91317 19.9496C6.90958 19.9081 6.90034 19.8672 6.88572 19.8282C6.87484 19.7983 6.87558 19.7683 6.85926 19.7389C6.84917 19.7198 6.84089 19.6998 6.83453 19.6791C6.82019 19.6351 6.80321 19.5897 6.7836 19.5431C6.73072 19.417 6.66848 19.2951 6.5974 19.1784C6.52718 19.0647 6.44239 18.9607 6.34518 18.869C6.24443 18.7725 6.13835 18.6817 6.02744 18.597C6.0112 18.585 5.99841 18.5688 5.99035 18.5503C5.98998 18.5489 5.9893 18.5476 5.98837 18.5464C5.98743 18.5453 5.98626 18.5444 5.98494 18.5438C5.98362 18.5432 5.98217 18.5429 5.98071 18.5429C5.97925 18.5429 5.97782 18.5432 5.9765 18.5439C5.9712 18.5458 5.96551 18.5464 5.95991 18.5457C5.95431 18.545 5.94897 18.5429 5.94435 18.5397C5.93619 18.534 5.93001 18.5357 5.9263 18.5448C5.92259 18.554 5.91666 18.5607 5.91097 18.5587L5.93966 18.4118C5.93992 18.4158 5.94116 18.4197 5.94327 18.4231C5.94537 18.4265 5.94828 18.4294 5.95174 18.4315C5.9552 18.4335 5.9591 18.4347 5.96311 18.4349C5.96713 18.4351 5.97113 18.4343 5.97477 18.4326C5.97691 18.4317 5.9793 18.4317 5.98145 18.4326C5.98275 18.4332 5.98386 18.4341 5.98469 18.4353C5.98551 18.4365 5.98602 18.4378 5.98614 18.4393C5.98638 18.4409 5.98703 18.4424 5.98803 18.4437C5.98902 18.445 5.99033 18.446 5.99183 18.4467C6.04189 18.468 6.08708 18.4993 6.12462 18.5387C6.14676 18.5622 6.17266 18.5818 6.20127 18.5968C6.23583 18.615 6.26798 18.6376 6.29696 18.6638C6.38038 18.7385 6.4628 18.8166 6.54424 18.8982C6.57501 18.9288 6.6026 18.9624 6.62658 18.9986C6.63829 19.016 6.65126 19.0325 6.6654 19.048C6.68696 19.0686 6.7056 19.0919 6.72079 19.1175C6.7517 19.1806 6.78409 19.2434 6.81772 19.3064C6.83434 19.3385 6.84735 19.3724 6.85654 19.4073C6.86636 19.4429 6.87952 19.4776 6.89586 19.5107C6.90829 19.5364 6.91862 19.563 6.92677 19.5903C6.94383 19.6479 6.96509 19.7008 6.97622 19.7585L6.98883 19.8193C6.99307 19.8399 7.0005 19.8598 7.01084 19.8781C7.03654 19.9268 7.04858 19.9815 7.0457 20.0364C7.04239 20.1369 7.0452 20.2376 7.05411 20.3378C7.06054 20.4073 7.04422 20.4708 7.05782 20.5381C7.05878 20.5423 7.05884 20.5467 7.05798 20.551C7.05713 20.5553 7.05539 20.5593 7.05288 20.5628C7.05035 20.5664 7.04871 20.5705 7.04811 20.5748C7.04751 20.5791 7.04795 20.5835 7.04941 20.5876C7.05076 20.5913 7.05132 20.5953 7.05107 20.5993C7.05081 20.6033 7.04975 20.6072 7.04793 20.6108C7.03599 20.6359 7.0295 20.6632 7.02889 20.6909C7.02831 20.7178 7.02356 20.7444 7.0148 20.7698C6.98643 20.8538 6.96387 20.9396 6.94729 21.0267C6.93531 21.0887 6.91802 21.1495 6.89561 21.2085C6.8736 21.2676 6.85234 21.3264 6.83181 21.3855C6.82464 21.4063 6.80709 21.4117 6.79744 21.4285C6.77074 21.477 6.74494 21.53 6.72005 21.5875C6.70249 21.6286 6.67529 21.6592 6.6565 21.6993C6.6528 21.7074 6.6472 21.7144 6.64018 21.7198C6.61773 21.7375 6.60062 21.761 6.59072 21.7878C6.58785 21.7955 6.58309 21.8024 6.57688 21.8078C6.5665 21.8173 6.55722 21.8278 6.54918 21.8393C6.54004 21.8523 6.52895 21.8639 6.51629 21.8736C6.45216 21.9255 6.39168 21.9818 6.33529 22.042C6.30795 22.071 6.27665 22.096 6.24232 22.1162C6.21441 22.1333 6.18757 22.152 6.16195 22.1723C6.1355 22.1925 6.1057 22.2078 6.07393 22.2176C6.06819 22.2195 6.06302 22.2228 6.05884 22.2272C6.05709 22.2292 6.05567 22.2315 6.05464 22.2339C6.05383 22.2364 6.05233 22.2385 6.05031 22.2402C6.04829 22.2418 6.04584 22.2428 6.04326 22.243C6.02384 22.2455 6.00522 22.2524 5.98878 22.263C5.97235 22.2737 5.95852 22.2879 5.94831 22.3046C5.94446 22.3107 5.93873 22.3154 5.93199 22.318C5.91499 22.3247 5.90071 22.3368 5.89144 22.3526C5.88941 22.3561 5.88662 22.359 5.88328 22.3612C5.87994 22.3635 5.87613 22.3649 5.87215 22.3654C5.84252 22.3694 5.81465 22.3818 5.79179 22.4011C5.78202 22.4091 5.76984 22.4138 5.75717 22.4142C5.74553 22.4144 5.7341 22.4173 5.72377 22.4227C5.71344 22.428 5.70448 22.4357 5.69758 22.4451C5.69539 22.448 5.69249 22.4503 5.68916 22.4518C5.68582 22.4532 5.68217 22.4538 5.67854 22.4535C5.66998 22.4529 5.66144 22.4549 5.65409 22.4593C5.64674 22.4638 5.64094 22.4703 5.63749 22.4782C5.63553 22.4815 5.63233 22.484 5.62859 22.485C5.62484 22.486 5.62085 22.4855 5.61746 22.4836C5.61628 22.4829 5.6152 22.482 5.61425 22.4809C5.61043 22.4766 5.60539 22.4735 5.5998 22.472C5.5942 22.4706 5.58829 22.4708 5.58284 22.4728C5.55153 22.482 5.51953 22.4887 5.48715 22.4928C5.477 22.4939 5.46757 22.4986 5.46044 22.5059L5.45154 22.5146C5.44438 22.5217 5.43473 22.5259 5.42459 22.5262C5.39252 22.5274 5.36067 22.5321 5.32964 22.5403C5.32739 22.5408 5.32544 22.5423 5.3242 22.5442C5.32318 22.5458 5.32187 22.5471 5.32034 22.5481C5.31881 22.5491 5.3171 22.5498 5.31529 22.5502L5.24111 22.564C5.23295 22.5657 5.22455 22.5657 5.21639 22.564C5.18028 22.5571 5.15284 22.5714 5.11748 22.5704C5.06297 22.5687 5.00841 22.5712 4.95428 22.5779C4.90699 22.5838 4.85914 22.5838 4.81185 22.5779C4.75011 22.5699 4.68776 22.568 4.62565 22.5722C4.61666 22.5731 4.60757 22.5721 4.59902 22.5691C4.59048 22.5662 4.58268 22.5614 4.5762 22.5551C4.57343 22.5523 4.56996 22.5502 4.56614 22.5491C4.56232 22.548 4.55829 22.548 4.55444 22.5489C4.52738 22.5556 4.49971 22.5596 4.47185 22.5608C4.4458 22.562 4.41982 22.5572 4.39594 22.5467C4.37032 22.5357 4.34272 22.53 4.31483 22.5301C4.28896 22.5295 4.26327 22.5255 4.23842 22.5183C4.19778 22.5066 4.1565 22.4972 4.11479 22.4903C4.0952 22.4874 4.07528 22.4874 4.05569 22.4903C4.04291 22.4921 4.02987 22.4903 4.0181 22.485C4.00633 22.4797 3.9963 22.4712 3.98917 22.4604C3.9851 22.4521 3.97803 22.4456 3.96939 22.4423C3.93156 22.4347 3.89521 22.4285 3.85812 22.4236C3.84773 22.4222 3.83794 22.4179 3.82993 22.4112C3.8206 22.4032 3.81317 22.3932 3.80817 22.382C3.80623 22.3778 3.80331 22.3741 3.79965 22.3712C3.796 22.3683 3.79172 22.3663 3.78715 22.3654L3.77899 22.3637C3.77196 22.3623 3.76569 22.3584 3.76144 22.3526C3.7327 22.3114 3.69353 22.2785 3.64794 22.2574C3.64445 22.2561 3.64128 22.254 3.6386 22.2515C3.63592 22.2489 3.6338 22.2457 3.63236 22.2423C3.63034 22.2375 3.62665 22.2337 3.62198 22.2314C3.51417 22.1797 3.43924 22.1295 3.39721 22.0811C3.35542 22.0329 3.31313 21.9871 3.26986 21.9438C3.24093 21.9144 3.21323 21.8855 3.18727 21.8566C3.16131 21.8276 3.13238 21.7975 3.10369 21.7693C3.08537 21.7518 3.06888 21.7325 3.05449 21.7117C3.04489 21.6969 3.03285 21.6838 3.01888 21.6731C3.00599 21.6629 2.99573 21.6497 2.98896 21.6348C2.9625 21.5769 2.94346 21.5111 2.89994 21.4636C2.8805 21.443 2.86499 21.4189 2.8542 21.3927C2.84652 21.3733 2.83752 21.3544 2.82724 21.3363C2.81778 21.3197 2.81032 21.302 2.80499 21.2836C2.79725 21.256 2.78621 21.2293 2.7721 21.2043C2.76815 21.1973 2.76618 21.1895 2.76641 21.1815C2.76713 21.1592 2.75935 21.1375 2.74465 21.1207C2.73947 21.1146 2.73552 21.1075 2.73303 21.0999C2.72364 21.0692 2.70608 21.0435 2.6999 21.0126C2.68828 20.9555 2.67517 20.8986 2.65663 20.8425C2.64595 20.8087 2.64093 20.7733 2.64179 20.7379C2.64327 20.6884 2.62275 20.6454 2.62399 20.5955C2.62577 20.5155 2.62122 20.4354 2.61039 20.3561C2.60643 20.3292 2.60643 20.3019 2.61039 20.275C2.6183 20.2256 2.61039 20.1707 2.62844 20.1217C2.63981 20.0908 2.63363 20.0577 2.63833 20.0248C2.64748 19.9622 2.64154 19.8989 2.66083 19.8391C2.676 19.7942 2.68927 19.7494 2.70064 19.7046C2.70581 19.6836 2.71276 19.663 2.72141 19.6432C2.73039 19.6214 2.73791 19.599 2.74391 19.5762C2.77241 19.4726 2.81949 19.375 2.88288 19.2881C2.91454 19.2435 2.94155 19.1956 2.96349 19.1455C2.98671 19.0906 3.01953 19.0404 3.06042 18.9971C3.10117 18.9555 3.1387 18.9109 3.17268 18.8636C3.19444 18.8332 3.23326 18.8141 3.24538 18.7802C3.24797 18.773 3.2526 18.7666 3.25873 18.762C3.32281 18.7143 3.38308 18.6617 3.43899 18.6047C3.44596 18.5977 3.45442 18.5924 3.46372 18.5891C3.47303 18.5857 3.48147 18.5803 3.48845 18.5733C3.51971 18.5416 3.55466 18.5138 3.59255 18.4904C3.62414 18.4714 3.65401 18.4496 3.68182 18.4254C3.70587 18.4046 3.73412 18.3891 3.76465 18.3802C3.79299 18.3711 3.8202 18.3588 3.84576 18.3436C3.92252 18.2994 4.00375 18.2635 4.08808 18.2365L4.17438 18.2026C4.20788 18.1891 4.24323 18.1808 4.27922 18.1779C4.32854 18.174 4.37648 18.1598 4.41992 18.1361C4.42673 18.1324 4.43448 18.1309 4.44218 18.1317L4.51339 18.1398C4.52182 18.1407 4.53033 18.1394 4.53812 18.1361L4.62071 18.1005C4.62556 18.0983 4.63083 18.0971 4.63616 18.0971C4.64149 18.0971 4.64676 18.0983 4.65162 18.1005C4.69587 18.1173 4.74486 18.1166 4.78861 18.0985C4.80135 18.094 4.81495 18.0925 4.82836 18.0941C4.84178 18.0957 4.85465 18.1003 4.866 18.1077C4.87192 18.1112 4.87866 18.1131 4.88554 18.1131C4.95988 18.1131 5.03472 18.1131 5.11006 18.1131C5.1289 18.1131 5.14723 18.1193 5.16223 18.1307C5.16654 18.134 5.17151 18.1363 5.17681 18.1375C5.1821 18.1387 5.18759 18.1387 5.1929 18.1376C5.20098 18.1359 5.20869 18.1327 5.21564 18.1282C5.22032 18.1254 5.22578 18.1242 5.23119 18.1248C5.2366 18.1255 5.24165 18.1279 5.24556 18.1317C5.26696 18.1576 5.29651 18.1754 5.32939 18.1823C5.35799 18.1866 5.38631 18.1925 5.4142 18.2001C5.4372 18.2063 5.45401 18.2249 5.478 18.2234C5.48745 18.2232 5.49677 18.2256 5.50495 18.2303C5.50811 18.232 5.5107 18.2346 5.51237 18.2377C5.5143 18.2413 5.51695 18.2444 5.52014 18.2468C5.52333 18.2493 5.527 18.2511 5.53092 18.2521C5.56636 18.2615 5.60172 18.2704 5.637 18.2788C5.73838 18.3004 5.83056 18.3529 5.90083 18.4291Z" fill="#C9C9C9"/>
<path d="M5.86026 18.4895L5.77372 18.5835C5.76349 18.5711 5.75061 18.5611 5.73602 18.5543C5.72143 18.5475 5.7055 18.544 5.6894 18.5442C5.65994 18.5431 5.6308 18.5377 5.60285 18.5284C5.55604 18.5099 5.50963 18.4921 5.46364 18.475C5.39959 18.4502 5.33333 18.4418 5.26953 18.4193C5.22113 18.4019 5.17034 18.3921 5.11894 18.3901C5.02877 18.3872 4.9381 18.3839 4.84694 18.3803C4.74277 18.3762 4.63843 18.3803 4.53488 18.3924C4.5081 18.3955 4.4823 18.4044 4.45922 18.4183C4.429 18.4364 4.39528 18.4478 4.36031 18.4517C4.31814 18.4565 4.27665 18.4661 4.23667 18.4804C4.20379 18.4923 4.16991 18.5031 4.13554 18.5128C4.10235 18.522 4.06974 18.5331 4.03787 18.5462C3.99067 18.5664 3.94483 18.5897 3.90063 18.6159C3.85118 18.6449 3.77403 18.6971 3.66918 18.7724C3.63799 18.7949 3.60795 18.8189 3.57918 18.8444C3.55363 18.8668 3.5242 18.8909 3.4909 18.9166C3.42245 18.9698 3.36451 19.0353 3.32004 19.1097C3.31717 19.1146 3.31272 19.1183 3.30743 19.1203C3.30304 19.122 3.29937 19.1252 3.29704 19.1292C3.25022 19.2024 3.20266 19.2751 3.15436 19.3473C3.10615 19.4179 3.06593 19.4936 3.03444 19.5731C2.99573 19.6735 2.96901 19.7782 2.95482 19.8849C2.95014 19.9222 2.93963 19.9586 2.92366 19.9927C2.89749 20.0509 2.884 20.1139 2.8841 20.1777C2.88179 20.3486 2.88426 20.5021 2.89151 20.6381C2.89278 20.6577 2.89729 20.6769 2.90487 20.695C2.91154 20.711 2.91847 20.7276 2.92514 20.7444C2.93409 20.7671 2.94088 20.7907 2.94542 20.8146C2.97554 20.9621 3.02729 21.1042 3.09897 21.2365C3.15024 21.3354 3.20242 21.429 3.2555 21.5171C3.25748 21.5204 3.25945 21.5204 3.26119 21.5171V21.5149C3.26267 21.5073 3.26539 21.5068 3.26959 21.5134C3.28249 21.5355 3.29924 21.5551 3.31905 21.5713C3.32052 21.5724 3.32162 21.574 3.3222 21.5757C3.32277 21.5775 3.32279 21.5794 3.32226 21.5812C3.32177 21.5835 3.32177 21.5858 3.32226 21.5881C3.32244 21.5923 3.32411 21.5962 3.32696 21.5992C3.37971 21.6576 3.4309 21.712 3.48052 21.7624C3.52914 21.8099 3.58067 21.8542 3.63481 21.8952C3.68773 21.9365 3.73916 21.98 3.78936 22.0253C3.79577 22.0309 3.80338 22.035 3.81161 22.0372L3.83906 22.0436C3.84371 22.0445 3.84798 22.0468 3.85125 22.0502C3.85453 22.0536 3.85667 22.0579 3.85736 22.0626C3.85796 22.0675 3.86024 22.0721 3.86379 22.0755C3.86735 22.0789 3.87198 22.081 3.87689 22.0814C3.88744 22.0839 3.89854 22.0825 3.90814 22.0775C3.91773 22.0725 3.92517 22.0641 3.92907 22.054C3.94294 22.1208 3.94294 22.1899 3.92907 22.2567C3.87009 22.2616 3.81138 22.2446 3.76414 22.209C3.69243 22.1503 3.62253 22.0958 3.55445 22.0456C3.50407 22.0086 3.45654 21.968 3.41227 21.9239C3.369 21.8809 3.32399 21.8376 3.27775 21.7938C3.20777 21.7281 3.15412 21.6472 3.0965 21.5713C3.04679 21.5065 3.00526 21.4358 2.97287 21.3609C2.95638 21.323 2.91517 21.2414 2.84923 21.1161C2.83164 21.0794 2.8206 21.04 2.81659 20.9996C2.81181 20.9595 2.80438 20.9198 2.79434 20.8807C2.73918 20.6685 2.71954 20.4487 2.73623 20.2301C2.74942 20.0556 2.7742 19.8821 2.81041 19.7108C2.81837 19.6656 2.83182 19.6215 2.85047 19.5795C2.90684 19.4633 2.96454 19.3468 3.02356 19.2301C3.07132 19.1441 3.13009 19.0646 3.19838 18.9937C3.32368 18.8551 3.46068 18.7276 3.60786 18.6124C3.72896 18.522 3.86128 18.4476 4.00152 18.3911C4.05724 18.3679 4.11172 18.3467 4.16497 18.3276C4.20713 18.3127 4.25048 18.3014 4.29454 18.2937C4.34053 18.2864 4.38609 18.2765 4.43103 18.2643C4.46583 18.2545 4.5014 18.2478 4.53736 18.2443C4.57396 18.2406 4.61024 18.2342 4.64591 18.2252C4.65191 18.2234 4.65719 18.2198 4.66099 18.2148C4.66337 18.2118 4.66642 18.2094 4.6699 18.2078C4.67337 18.2061 4.67718 18.2053 4.68102 18.2054C4.72948 18.2042 4.77797 18.2062 4.82617 18.2114C4.89219 18.2218 4.9644 18.2168 5.02522 18.224C5.10509 18.2334 5.18051 18.2418 5.25197 18.2487C5.25345 18.2488 5.25485 18.2494 5.25593 18.2504C5.25714 18.2515 5.25793 18.253 5.25815 18.2546C5.25834 18.2555 5.25876 18.2563 5.25937 18.257C5.25998 18.2576 5.26076 18.2581 5.26162 18.2583C5.34618 18.2788 5.43446 18.2997 5.52644 18.3212C5.54898 18.3262 5.57065 18.3345 5.59074 18.3459C5.61 18.3575 5.62999 18.3678 5.65058 18.3768L5.74157 18.4094C5.80652 18.4325 5.84609 18.4592 5.86026 18.4895Z" fill="#D7D6D6"/>
<path d="M5.77413 18.5832C5.66635 18.6831 5.54628 18.769 5.41682 18.8386C5.44699 18.7916 5.40759 18.782 5.29863 18.8097C5.29498 18.8107 5.29111 18.8107 5.28745 18.8097C5.28379 18.8087 5.28047 18.8068 5.27786 18.804C5.27181 18.7972 5.26379 18.7925 5.25492 18.7905C5.24605 18.7885 5.23677 18.7893 5.2284 18.7929C5.20133 18.8026 5.17376 18.8108 5.14581 18.8176C5.13747 18.8196 5.12881 18.82 5.12032 18.8187C5.11184 18.8174 5.10369 18.8144 5.09636 18.8099C5.09424 18.8085 5.09182 18.8076 5.08929 18.8073C5.08677 18.8069 5.08419 18.8072 5.08177 18.808C5.06932 18.8115 5.05766 18.8174 5.0474 18.8253C5.0447 18.8274 5.04152 18.8287 5.03814 18.8293C5.03477 18.8298 5.03131 18.8294 5.02811 18.8282C5.02017 18.8251 5.01149 18.8244 5.00313 18.8261C4.99478 18.8279 4.98713 18.832 4.98113 18.8381C4.97817 18.8407 4.97459 18.8425 4.97074 18.8433C4.96828 18.8439 4.96571 18.8436 4.96342 18.8425C4.96114 18.8414 4.95928 18.8396 4.95813 18.8374C4.95686 18.8352 4.955 18.8334 4.95277 18.8323C4.95055 18.8311 4.94804 18.8305 4.94552 18.8307C4.90275 18.8339 4.85749 18.8352 4.81002 18.8344C4.7672 18.8337 4.72441 18.8369 4.68218 18.8441L4.54395 18.8688C4.49295 18.8777 4.44316 18.8926 4.39559 18.913C4.29256 18.9562 4.19159 18.9981 4.09268 19.0387C4.08565 19.0415 4.07945 19.0461 4.07463 19.052C4.05203 19.0805 4.02064 19.1006 3.98537 19.1094C3.97949 19.1107 3.97425 19.114 3.97053 19.1188C3.95796 19.135 3.9398 19.1459 3.91959 19.1494C3.91414 19.1505 3.90914 19.1531 3.90525 19.1571C3.89178 19.1715 3.87471 19.1821 3.85579 19.1878C3.84824 19.1902 3.84149 19.1946 3.83626 19.2006C3.81775 19.2187 3.80118 19.2387 3.78681 19.2602C3.76104 19.3062 3.72759 19.3474 3.6879 19.3821C3.67084 19.3972 3.66737 19.4162 3.65031 19.4316C3.63814 19.4424 3.62772 19.4551 3.6194 19.4692C3.57654 19.54 3.53253 19.6102 3.48736 19.6796C3.47601 19.6968 3.46967 19.7168 3.46906 19.7374C3.46703 19.7524 3.46269 19.7669 3.4562 19.7805C3.44314 19.8086 3.4315 19.8374 3.42134 19.8668C3.4176 19.8779 3.41209 19.8883 3.40502 19.8977C3.40109 19.9024 3.39834 19.908 3.397 19.9139C3.39567 19.9199 3.39579 19.9261 3.39735 19.9321C3.39823 19.9352 3.39805 19.9385 3.39685 19.9415C3.39564 19.9445 3.39347 19.947 3.39068 19.9486C3.38788 19.9505 3.38545 19.9528 3.38351 19.9555C3.38025 19.9602 3.37836 19.9657 3.37807 19.9714C3.37147 20.0502 3.36273 20.1243 3.35185 20.1939C3.34095 20.2744 3.33838 20.3557 3.34419 20.4367C3.34673 20.487 3.35227 20.5372 3.36076 20.5868C3.36949 20.6363 3.37732 20.6852 3.38425 20.7337C3.39524 20.7938 3.41865 20.851 3.45299 20.9016C3.48612 20.954 3.4839 21.0097 3.53212 21.0549C3.53517 21.0578 3.53744 21.0615 3.53869 21.0655C3.53995 21.0695 3.54015 21.0738 3.53929 21.0779C3.53866 21.0813 3.53866 21.0847 3.53929 21.088C3.543 21.1128 3.56574 21.1316 3.57044 21.1622C3.57171 21.1708 3.57539 21.1789 3.58108 21.1855C3.5862 21.1911 3.59012 21.1978 3.59258 21.205C3.59505 21.2122 3.59601 21.2199 3.59542 21.2275C3.595 21.2323 3.59558 21.237 3.59711 21.2416C3.59865 21.2461 3.6011 21.2502 3.60432 21.2537C3.62409 21.2761 3.63847 21.3028 3.64636 21.3316C3.64864 21.34 3.65358 21.3475 3.66044 21.3529C3.6673 21.3583 3.67571 21.3613 3.68444 21.3615C3.69371 21.3619 3.70252 21.3657 3.70916 21.3722C3.72029 21.383 3.72672 21.3808 3.7287 21.3655L3.74081 21.2666C3.74123 21.2632 3.74097 21.2599 3.74003 21.2566C3.7391 21.2534 3.73751 21.2504 3.73537 21.2478C3.73158 21.2432 3.72929 21.2375 3.7288 21.2315C3.72831 21.2256 3.72966 21.2196 3.73265 21.2144C3.7348 21.2098 3.7359 21.2047 3.73587 21.1996V20.9028C3.73566 20.9021 3.73566 20.9013 3.73587 20.9006L3.74106 20.8949C3.71825 21.2302 3.76333 21.5666 3.8736 21.884C3.90451 21.9718 3.92305 22.0277 3.9275 22.0514C3.92361 22.0615 3.91617 22.0699 3.90657 22.0749C3.89698 22.08 3.88588 22.0814 3.87533 22.0789C3.87041 22.0785 3.86579 22.0764 3.86223 22.0729C3.85867 22.0695 3.8564 22.065 3.85579 22.0601C3.8551 22.0554 3.85297 22.051 3.84969 22.0476C3.84641 22.0442 3.84215 22.0419 3.8375 22.041L3.81005 22.0346C3.80182 22.0324 3.79421 22.0283 3.7878 22.0227C3.73834 21.9775 3.68617 21.934 3.63325 21.8927C3.57911 21.8517 3.52758 21.8073 3.47895 21.7599C3.4295 21.7094 3.37831 21.655 3.3254 21.5967C3.32255 21.5937 3.32088 21.5897 3.3207 21.5856C3.32021 21.5833 3.32021 21.5809 3.3207 21.5786C3.32123 21.5769 3.32121 21.575 3.32063 21.5732C3.32006 21.5714 3.31896 21.5699 3.31748 21.5687C3.29768 21.5526 3.28093 21.533 3.26803 21.5109C3.26383 21.5042 3.26111 21.5047 3.25962 21.5124V21.5146C3.25789 21.5181 3.25591 21.5181 3.25393 21.5146C3.20085 21.4259 3.14868 21.3324 3.09741 21.2339C3.02573 21.1017 2.97398 20.9595 2.94386 20.8121C2.93932 20.7881 2.93253 20.7646 2.92358 20.7419C2.9169 20.7246 2.90998 20.708 2.9033 20.6924C2.89572 20.6743 2.89121 20.6551 2.88995 20.6355C2.88171 20.4995 2.87907 20.3461 2.88204 20.1751C2.88194 20.1114 2.89543 20.0483 2.9216 19.9902C2.9382 19.9569 2.94955 19.9213 2.95523 19.8846C2.96958 19.7778 2.99647 19.6732 3.03535 19.5728C3.06684 19.4933 3.10706 19.4176 3.15527 19.347C3.20324 19.2748 3.25014 19.2023 3.29597 19.1294C3.2983 19.1253 3.30197 19.1222 3.30636 19.1205C3.31165 19.1185 3.3161 19.1148 3.31897 19.1099C3.36344 19.0354 3.42138 18.97 3.48983 18.9168C3.5228 18.891 3.55223 18.867 3.57811 18.8445C3.60689 18.8191 3.63693 18.7951 3.66812 18.7726C3.77279 18.6973 3.84994 18.6451 3.89956 18.6161C3.94376 18.5899 3.9896 18.5666 4.0368 18.5463C4.06867 18.5333 4.10128 18.5221 4.13447 18.513C4.16884 18.5033 4.20272 18.4924 4.2356 18.4806C4.27558 18.4663 4.31707 18.4567 4.35924 18.4519C4.39421 18.4479 4.42793 18.4365 4.45815 18.4185C4.48123 18.4045 4.50703 18.3957 4.53381 18.3925C4.63736 18.3804 4.7417 18.3764 4.84587 18.3804C4.93753 18.384 5.02819 18.3873 5.11787 18.3903C5.16927 18.3922 5.22006 18.4021 5.26846 18.4195C5.33226 18.442 5.39853 18.4514 5.46257 18.4751C5.50856 18.4916 5.55497 18.5094 5.60178 18.5285C5.62973 18.5379 5.65887 18.5432 5.68833 18.5444C5.70464 18.5439 5.72083 18.5472 5.73569 18.5539C5.75056 18.5606 5.7637 18.5706 5.77413 18.5832Z" fill="#ECECEC"/>
<path d="M5.93958 18.4118L5.9109 18.5602L5.89038 18.6524L5.75883 19.2249L5.70517 19.3913C5.72176 19.3126 5.72435 19.2317 5.71284 19.1522C5.71278 19.1514 5.71245 19.1507 5.7119 19.1501C5.71136 19.1496 5.71064 19.1492 5.70987 19.1492C5.7088 19.1489 5.70765 19.1489 5.70659 19.1492C5.70553 19.1496 5.7046 19.1503 5.70393 19.1512C5.69602 19.1609 5.69429 19.1599 5.69874 19.1482C5.70327 19.1369 5.70594 19.125 5.70665 19.1128C5.70789 19.0916 5.70393 19.0906 5.69478 19.1096C5.61236 19.2835 5.52911 19.4417 5.44504 19.5841C5.4076 19.6469 5.37455 19.7122 5.34613 19.7795C5.31895 19.8465 5.28646 19.9113 5.24895 19.9731C5.21186 20.0333 5.17551 20.0974 5.13991 20.1655C5.12593 20.1932 5.11752 20.2235 5.11518 20.2545C5.11014 20.3036 5.08789 20.3493 5.05237 20.3836C5.03667 20.3994 5.02335 20.4174 5.01281 20.437C5.0029 20.4551 4.99175 20.4726 4.97943 20.4892C4.96654 20.506 4.96038 20.5271 4.96212 20.5483C4.96275 20.5528 4.96228 20.5574 4.96072 20.5617C4.95917 20.566 4.9566 20.5699 4.95322 20.573C4.94268 20.5829 4.93529 20.5957 4.93195 20.6098C4.93019 20.6171 4.92681 20.6238 4.92206 20.6296C4.89944 20.6568 4.88262 20.6884 4.8726 20.7223C4.87073 20.7293 4.86686 20.7356 4.86148 20.7404C4.85851 20.7427 4.85659 20.7461 4.85612 20.7499C4.85566 20.7536 4.8567 20.7574 4.85901 20.7604C4.86261 20.7658 4.86427 20.7723 4.8637 20.7787C4.86369 20.7808 4.86299 20.7829 4.86172 20.7846C4.85748 20.7905 4.85562 20.7977 4.85653 20.8049C4.85663 20.8076 4.85769 20.8101 4.8595 20.8121C4.86132 20.814 4.86377 20.8153 4.86642 20.8156C4.86859 20.8156 4.87073 20.8161 4.87266 20.8171C4.87459 20.8181 4.87626 20.8195 4.87754 20.8213C4.87882 20.823 4.87966 20.8251 4.88001 20.8272C4.88035 20.8293 4.88019 20.8315 4.87953 20.8336C4.8778 20.8439 4.8778 20.8544 4.87953 20.8648L4.51826 21.2483C4.50733 21.2255 4.50212 21.2005 4.50307 21.1753C4.50401 21.1501 4.5111 21.1255 4.5237 21.1036L4.56277 21.0329C4.58033 20.9979 4.60572 20.9675 4.63695 20.9439C4.65434 20.9321 4.66779 20.9154 4.67553 20.8959C4.67651 20.8929 4.67651 20.8896 4.67553 20.8865C4.6749 20.8851 4.67459 20.8836 4.67461 20.882C4.67462 20.8805 4.67497 20.8789 4.67563 20.8775C4.67628 20.8761 4.67723 20.8749 4.67841 20.8739C4.67958 20.8729 4.68096 20.8721 4.68245 20.8717C4.68551 20.8707 4.68827 20.869 4.69047 20.8666C4.69268 20.8643 4.69426 20.8614 4.69506 20.8583L4.74229 20.6956C4.74464 20.6871 4.74925 20.6793 4.75565 20.6731C4.77666 20.6524 4.78532 20.6185 4.79941 20.5913C4.83073 20.5314 4.86222 20.4697 4.89387 20.4061C4.90904 20.3745 4.92073 20.3413 4.92874 20.3072C4.92901 20.3065 4.92912 20.3058 4.92907 20.3051C4.92902 20.3044 4.92881 20.3037 4.92846 20.303C4.9281 20.3024 4.9276 20.3019 4.92701 20.3015C4.92641 20.3011 4.92574 20.3008 4.92503 20.3007C4.9244 20.3005 4.92371 20.3003 4.92303 20.3004C4.92234 20.3004 4.92168 20.3006 4.92108 20.3009C4.92048 20.3013 4.91997 20.3017 4.91958 20.3023C4.91919 20.3029 4.91894 20.3035 4.91884 20.3042C4.91804 20.31 4.91502 20.3153 4.91041 20.3189C4.9058 20.3226 4.89996 20.3243 4.89412 20.3237C4.89007 20.3236 4.88606 20.3245 4.88244 20.3263C4.87882 20.3281 4.87569 20.3308 4.87335 20.3341C4.82158 20.4033 4.76537 20.4851 4.70471 20.5794C4.663 20.6445 4.62179 20.7096 4.58107 20.7745C4.50013 20.9064 4.40518 21.0864 4.29621 21.3145C4.26135 21.387 4.23637 21.4592 4.20769 21.5326C4.18739 21.5875 4.17063 21.6436 4.15749 21.7005C4.13597 21.792 4.10922 21.8822 4.07738 21.9706C4.0656 21.9956 4.06272 22.0238 4.06922 22.0507L4.06007 22.0853L4.0032 22.2445C4.00245 22.2557 3.99906 22.2666 3.99331 22.2762C3.99146 22.2797 3.98856 22.2826 3.98502 22.2844C3.98148 22.2862 3.97746 22.2869 3.97352 22.2863C3.96434 22.2851 3.95558 22.2817 3.94793 22.2765C3.94029 22.2712 3.93398 22.2643 3.92951 22.2562C3.94338 22.1893 3.94338 22.1203 3.92951 22.0534C3.92432 22.0287 3.90651 21.9738 3.8756 21.886C3.76533 21.5686 3.72025 21.2322 3.74307 20.8969C3.74905 20.8834 3.75043 20.8683 3.74702 20.8539C3.74974 20.869 3.75098 20.8769 3.75098 20.8786C3.7532 20.908 3.76112 20.9098 3.77571 20.8836C3.78815 20.8598 3.79516 20.8337 3.79623 20.8069C3.79623 20.8027 3.79821 20.8017 3.80167 20.8037C3.80279 20.8045 3.80413 20.8049 3.8055 20.8049C3.80687 20.8049 3.80821 20.8045 3.80933 20.8037C3.82612 20.7896 3.84056 20.7729 3.85211 20.7542C3.882 20.705 3.91504 20.6578 3.95102 20.6128C3.97402 20.5839 3.98168 20.5542 4.00493 20.526C4.02011 20.5069 4.03305 20.4862 4.0435 20.4642C4.0603 20.4326 4.08613 20.4068 4.11768 20.39C4.12522 20.3857 4.13159 20.3795 4.13623 20.3722C4.14441 20.3589 4.15638 20.3484 4.1706 20.342C4.17754 20.3388 4.18295 20.3331 4.18568 20.326C4.20028 20.2892 4.22455 20.2571 4.25591 20.233C4.25873 20.231 4.26095 20.2282 4.26234 20.225C4.26374 20.2219 4.26425 20.2184 4.26382 20.2149C4.26365 20.2137 4.26376 20.2125 4.26415 20.2113C4.26454 20.2102 4.26519 20.2091 4.26605 20.2083C4.32123 20.149 4.37198 20.0858 4.41787 20.0191C4.43716 19.9904 4.4651 19.9696 4.48414 19.9405C4.49409 19.9243 4.50569 19.9092 4.51876 19.8955C4.54005 19.8722 4.55956 19.8474 4.57711 19.8213C4.61223 19.7718 4.64759 19.7224 4.68319 19.6729C4.69698 19.6538 4.71282 19.6363 4.73042 19.6207C4.74816 19.6046 4.76326 19.5859 4.77518 19.5651C4.77647 19.5629 4.77708 19.5604 4.77691 19.5579C4.77691 19.5527 4.77518 19.551 4.77246 19.5525C4.75787 19.5604 4.75589 19.5579 4.76603 19.5448C4.84483 19.4449 4.92544 19.3475 5.00786 19.2525C5.04296 19.2109 5.0744 19.1663 5.10183 19.1193C5.106 19.1126 5.11212 19.1073 5.11938 19.1042C5.12968 19.0999 5.13889 19.0934 5.14634 19.0851C5.15746 19.0733 5.15499 19.0683 5.13892 19.0701C5.1357 19.0701 5.13348 19.0686 5.13249 19.0644C5.13158 19.0613 5.13162 19.0581 5.13259 19.0551C5.13356 19.0521 5.13542 19.0495 5.13793 19.0476L5.18738 19.0048C5.18844 19.0038 5.18919 19.0026 5.18956 19.0012C5.18992 18.9998 5.18988 18.9983 5.18944 18.997C5.18899 18.9956 5.18817 18.9944 5.18706 18.9935C5.18595 18.9926 5.1846 18.9921 5.18318 18.9919L5.16018 18.9897C5.15715 18.9893 5.15406 18.9896 5.15117 18.9906C5.14829 18.9917 5.1457 18.9934 5.14362 18.9956C5.12906 19.0093 5.11184 19.0198 5.09303 19.0265C5.07422 19.0332 5.05423 19.0359 5.03432 19.0345L5.41537 18.8386C5.54546 18.7689 5.66612 18.6829 5.77441 18.5827L5.86169 18.4887C5.87872 18.4716 5.89225 18.4514 5.9015 18.4291C5.92772 18.3896 5.94057 18.3841 5.93958 18.4118Z" fill="#29983C"/>
<path d="M4.00293 22.2468L4.0598 22.0863C4.06778 22.1201 4.06641 22.1554 4.05585 22.1885C4.05313 22.1966 4.05585 22.2016 4.06475 22.2031C4.14882 22.2174 4.23184 22.2373 4.31326 22.2626C4.32436 22.266 4.33493 22.2709 4.34466 22.2772C4.35457 22.2832 4.36532 22.2877 4.37656 22.2906C4.46924 22.3156 4.564 22.3322 4.65968 22.34C4.83005 22.3508 5.00102 22.3472 5.1708 22.3294C5.22415 22.3244 5.27656 22.3121 5.32658 22.2928C5.37653 22.2731 5.42817 22.2579 5.48087 22.2476C5.53132 22.2381 5.58035 22.2222 5.62677 22.2003C5.67029 22.1791 5.71455 22.1553 5.75955 22.1291C5.77587 22.1195 5.79862 22.1074 5.82755 22.0928C5.88937 22.0615 5.94879 22.0257 6.00534 21.9857C6.06144 21.9458 6.11398 21.9011 6.16236 21.8522C6.22401 21.7899 6.27932 21.7312 6.32828 21.6761C6.35127 21.6514 6.37328 21.6267 6.39479 21.6019C6.43125 21.5604 6.46433 21.516 6.4937 21.4692C6.53788 21.3981 6.58379 21.3145 6.63143 21.2184C6.63233 21.2166 6.6337 21.2151 6.63539 21.214C6.63639 21.2134 6.63755 21.213 6.63873 21.213C6.6399 21.213 6.64106 21.2134 6.64206 21.214C6.64266 21.2143 6.64332 21.2145 6.644 21.2146C6.64468 21.2147 6.64536 21.2146 6.64601 21.2144C6.64666 21.2142 6.64726 21.2138 6.64778 21.2134C6.64829 21.2129 6.6487 21.2124 6.64899 21.2117C6.69421 21.1314 6.72524 21.0438 6.74073 20.9528C6.75369 20.8861 6.7702 20.82 6.79018 20.755C6.81124 20.6898 6.82452 20.6223 6.82974 20.554C6.83296 20.4929 6.83617 20.4286 6.83914 20.3616C6.84639 20.2478 6.83966 20.1335 6.81911 20.0214C6.8112 19.9821 6.78746 19.9531 6.77881 19.9113C6.74221 19.735 6.71485 19.629 6.69671 19.5933C6.62649 19.456 6.55445 19.3263 6.4806 19.2041C6.45103 19.1596 6.41551 19.1193 6.37501 19.0845C6.35916 19.0698 6.34528 19.0532 6.33372 19.035C6.32259 19.0179 6.31121 19.0011 6.29984 18.9856C6.28207 18.9602 6.26094 18.9373 6.23703 18.9176C6.15675 18.8506 6.07556 18.7771 5.99347 18.697C5.96874 18.6723 5.95564 18.6517 5.91929 18.6394C5.91811 18.639 5.91682 18.6391 5.91571 18.6396C5.9146 18.6402 5.91375 18.6412 5.91335 18.6423C5.91162 18.6549 5.90371 18.6582 5.88863 18.6522L5.90915 18.56C5.91484 18.562 5.92003 18.5573 5.92448 18.5462C5.92893 18.535 5.93437 18.5353 5.94253 18.541C5.94715 18.5442 5.95249 18.5463 5.95809 18.547C5.96369 18.5478 5.96938 18.5471 5.97468 18.5452C5.97599 18.5445 5.97743 18.5442 5.97889 18.5442C5.98035 18.5442 5.98179 18.5445 5.98312 18.5451C5.98444 18.5457 5.98561 18.5466 5.98655 18.5477C5.98748 18.5489 5.98816 18.5502 5.98852 18.5516C5.99659 18.5701 6.00938 18.5863 6.02562 18.5983C6.13653 18.683 6.24261 18.7738 6.34336 18.8703C6.44116 18.9622 6.52646 19.0665 6.59706 19.1807C6.6679 19.2975 6.72989 19.4195 6.78252 19.5456C6.80197 19.5924 6.81895 19.6378 6.83345 19.6816C6.83981 19.7023 6.84809 19.7223 6.85818 19.7415C6.8745 19.7709 6.87376 19.8008 6.88464 19.8307C6.89926 19.8698 6.9085 19.9106 6.91209 19.9521C6.91604 20.0034 6.92239 20.0543 6.93113 20.105C6.9514 20.2234 6.94423 20.3428 6.94522 20.4608C6.94538 20.5112 6.9415 20.5616 6.9336 20.6114C6.92791 20.6472 6.92346 20.6813 6.92025 20.714C6.9168 20.7473 6.91093 20.7804 6.90269 20.8129C6.87055 20.9377 6.82769 21.0595 6.7746 21.1769C6.77091 21.1859 6.76582 21.1942 6.75952 21.2016C6.75673 21.2048 6.75469 21.2085 6.75353 21.2126C6.75238 21.2167 6.75214 21.2209 6.75284 21.2251C6.75332 21.2296 6.75264 21.2341 6.75086 21.2382C6.70849 21.3306 6.66034 21.4203 6.6067 21.5067C6.59793 21.5207 6.58737 21.5335 6.5753 21.5448C6.56458 21.5549 6.55542 21.5664 6.5481 21.5792C6.51712 21.6346 6.47941 21.686 6.43584 21.7323C6.4136 21.7556 6.39295 21.7804 6.37402 21.8064C6.35461 21.8337 6.33203 21.8586 6.30676 21.8806C6.24676 21.9327 6.18783 21.9863 6.12996 22.0413C6.12382 22.0473 6.11624 22.0516 6.10796 22.0537C6.06642 22.0651 6.03872 22.0997 6.01078 22.1311C6.00504 22.1377 5.99697 22.1417 5.98828 22.1425L5.968 22.1447C5.96348 22.145 5.95909 22.1464 5.95522 22.1488C5.95135 22.1512 5.9481 22.1544 5.94575 22.1583C5.93337 22.178 5.91561 22.1938 5.89456 22.2038C5.8278 22.235 5.75807 22.2667 5.68537 22.299C5.66857 22.3065 5.65258 22.3157 5.63765 22.3264C5.62046 22.339 5.5992 22.3446 5.57805 22.3423C5.56843 22.341 5.55867 22.3433 5.55061 22.3487C5.54018 22.3557 5.52802 22.3596 5.51549 22.3601C5.4965 22.3606 5.47788 22.3655 5.46109 22.3744C5.44749 22.3818 5.43315 22.3876 5.41832 22.392C5.32066 22.4206 5.22031 22.439 5.11887 22.4469C5.03793 22.4523 4.9527 22.456 4.86319 22.458C4.77794 22.4606 4.69261 22.4575 4.60776 22.4488C4.45734 22.4332 4.30934 22.3997 4.16687 22.3489C4.15615 22.3457 4.14513 22.3436 4.13398 22.3425C4.10576 22.3371 4.07928 22.3249 4.05684 22.3069C4.05416 22.3052 4.05194 22.3029 4.05035 22.3001C4.04876 22.2974 4.04785 22.2943 4.04769 22.2911C4.04752 22.2878 4.0463 22.2847 4.0442 22.2821C4.04211 22.2796 4.03926 22.2778 4.03606 22.277C4.01406 22.2716 4.00318 22.2609 4.00293 22.2468Z" fill="#D7D6D6"/>
<path d="M4.0594 22.0832L4.06855 22.0486L4.18007 21.7922C4.22798 21.8022 4.27509 21.8158 4.32101 21.8327C4.41481 21.8743 4.48281 21.8967 4.52501 21.9C4.60084 21.9063 4.75662 21.9055 4.99235 21.8978C5.02326 21.8967 5.05395 21.8921 5.08385 21.8842C5.11467 21.8763 5.14626 21.8718 5.17806 21.8708C5.22241 21.8685 5.26632 21.8608 5.30886 21.8481C5.35139 21.8357 5.39458 21.8225 5.43843 21.8085C5.48119 21.7946 5.52219 21.7758 5.56059 21.7524C5.64548 21.7013 5.72956 21.6518 5.8128 21.604C5.82781 21.5957 5.84169 21.5855 5.8541 21.5736C5.86664 21.5618 5.88134 21.5526 5.89737 21.5464C5.90616 21.5428 5.91366 21.5366 5.91888 21.5286C5.94549 21.4884 5.97651 21.4513 6.01136 21.4181C6.04626 21.3841 6.07773 21.3467 6.10533 21.3066C6.16418 21.2213 6.22039 21.134 6.27397 21.0447C6.29231 21.0141 6.30551 20.9807 6.31303 20.9458C6.32392 20.8975 6.33805 20.85 6.35532 20.8036C6.37605 20.7447 6.38739 20.683 6.38895 20.6206C6.38896 20.6184 6.38969 20.6162 6.39102 20.6144C6.39236 20.6127 6.39423 20.6114 6.39637 20.6107C6.39826 20.6102 6.39996 20.6091 6.40123 20.6076C6.40251 20.6061 6.40331 20.6043 6.40354 20.6023C6.40972 20.56 6.41392 20.5173 6.41615 20.4737C6.41837 20.4302 6.41911 20.3793 6.41837 20.3301C6.41766 20.2826 6.41427 20.2352 6.40823 20.1881C6.39958 20.1204 6.39216 20.0546 6.38549 19.9903C6.38478 19.9821 6.38149 19.9743 6.37609 19.9681C6.35136 19.9389 6.35557 19.904 6.33554 19.8744C6.31175 19.8398 6.29666 19.8 6.29152 19.7584C6.28747 19.7207 6.27357 19.6848 6.25122 19.6543C6.19794 19.5817 6.15055 19.505 6.10953 19.4248C6.09484 19.3954 6.0772 19.3676 6.05686 19.3417C6.04875 19.3318 6.04148 19.3212 6.0351 19.3101C5.99414 19.2389 5.94811 19.1708 5.89737 19.1063C5.88041 19.0843 5.86155 19.0639 5.84099 19.0452C5.82195 19.0279 5.81181 19.0321 5.81083 19.0579C5.81031 19.0789 5.80398 19.0995 5.79253 19.1172C5.78796 19.1237 5.78593 19.1316 5.78684 19.1395C5.7892 19.1546 5.78785 19.1702 5.7829 19.1847C5.77794 19.1993 5.76954 19.2124 5.7584 19.223L5.88995 18.6506C5.90405 18.6565 5.91196 18.6533 5.91468 18.6407C5.91492 18.6395 5.91561 18.6384 5.91662 18.6377C5.91763 18.6369 5.91888 18.6366 5.92012 18.6368C5.95573 18.6491 5.96957 18.6704 5.9943 18.6944C6.07673 18.7745 6.15791 18.848 6.23786 18.9149C6.26177 18.9347 6.2829 18.9575 6.30067 18.9829C6.31205 18.9993 6.32342 19.0161 6.33455 19.0324C6.34611 19.0506 6.35999 19.0672 6.37584 19.0818C6.41595 19.117 6.45106 19.1576 6.48019 19.2023C6.55421 19.3244 6.62625 19.4542 6.69631 19.5915C6.71427 19.6271 6.74164 19.7331 6.7784 19.9095C6.78706 19.9513 6.81079 19.9802 6.81871 20.0195C6.83846 20.1309 6.8446 20.2442 6.837 20.357C6.83404 20.424 6.83082 20.4883 6.82761 20.5494C6.82238 20.6177 6.8091 20.6852 6.78804 20.7504C6.76806 20.8155 6.75155 20.8815 6.73859 20.9483C6.72311 21.0392 6.69208 21.1268 6.64685 21.2071C6.64656 21.2078 6.64615 21.2083 6.64564 21.2088C6.64513 21.2092 6.64453 21.2096 6.64388 21.2098C6.64323 21.21 6.64254 21.2101 6.64186 21.21C6.64118 21.2099 6.64052 21.2097 6.63993 21.2094C6.63892 21.2088 6.63777 21.2084 6.63659 21.2084C6.63541 21.2084 6.63426 21.2088 6.63325 21.2094C6.63156 21.2105 6.6302 21.212 6.6293 21.2138C6.58149 21.3099 6.53558 21.3935 6.49157 21.4646C6.46219 21.5114 6.42911 21.5558 6.39266 21.5973C6.37114 21.6221 6.34914 21.6468 6.32614 21.6715C6.27669 21.7267 6.22138 21.7854 6.16022 21.8476C6.11184 21.8966 6.05931 21.9412 6.0032 21.9811C5.94666 22.0211 5.88723 22.0569 5.82541 22.0882C5.79648 22.1028 5.77373 22.1149 5.75741 22.1245C5.71241 22.1507 5.66815 22.1745 5.62463 22.1957C5.57821 22.2176 5.52918 22.2335 5.47874 22.243C5.42604 22.2533 5.37439 22.2685 5.32444 22.2882C5.27443 22.3075 5.22201 22.3198 5.16866 22.3248C4.99889 22.3426 4.82792 22.3462 4.65755 22.3354C4.56187 22.3276 4.4671 22.311 4.37442 22.286C4.36319 22.2832 4.35243 22.2787 4.34252 22.2726C4.33279 22.2663 4.32222 22.2614 4.31112 22.2581C4.2297 22.2327 4.14668 22.2128 4.06261 22.1985C4.05396 22.197 4.05099 22.192 4.05371 22.1839C4.06458 22.1514 4.06654 22.1167 4.0594 22.0832Z" fill="#ECECEC"/>
<path d="M5.41622 18.8382L5.03517 19.0341C4.37446 19.4193 3.83195 20.0828 3.74664 20.8535C3.75005 20.8679 3.74866 20.883 3.74268 20.8965L3.73749 20.9022C3.73728 20.903 3.73728 20.9037 3.73749 20.9045V21.2012C3.73752 21.2063 3.73642 21.2114 3.73427 21.216C3.73128 21.2212 3.72993 21.2272 3.73042 21.2331C3.73091 21.2391 3.7332 21.2448 3.73699 21.2494C3.73913 21.252 3.74072 21.255 3.74165 21.2582C3.74259 21.2615 3.74285 21.2649 3.74243 21.2682L3.73032 21.3671C3.72834 21.3824 3.72191 21.3847 3.71078 21.3738C3.70414 21.3673 3.69533 21.3635 3.68606 21.3631C3.67723 21.3629 3.66871 21.3599 3.66179 21.3544C3.65487 21.3489 3.64993 21.3413 3.64773 21.3327C3.63984 21.3039 3.62546 21.2773 3.60569 21.2548C3.60247 21.2513 3.60002 21.2472 3.59849 21.2427C3.59695 21.2382 3.59638 21.2334 3.59679 21.2286C3.59739 21.221 3.59642 21.2134 3.59395 21.2061C3.59149 21.1989 3.58757 21.1923 3.58245 21.1866C3.57677 21.18 3.57308 21.1719 3.57182 21.1633C3.56712 21.1317 3.54437 21.1139 3.54066 21.0892C3.54004 21.0858 3.54004 21.0824 3.54066 21.079C3.54152 21.0749 3.54132 21.0706 3.54006 21.0666C3.53881 21.0626 3.53655 21.0589 3.53349 21.056C3.48403 21.0108 3.4875 20.9551 3.45436 20.9027C3.42002 20.8521 3.39661 20.795 3.38562 20.7348C3.37903 20.6864 3.37095 20.6374 3.36139 20.5879C3.3529 20.5383 3.34736 20.4882 3.34482 20.4379C3.33901 20.3569 3.34158 20.2755 3.35249 20.195C3.36337 20.1253 3.3721 20.0511 3.3787 19.9725C3.37899 19.9668 3.38088 19.9613 3.38414 19.9567C3.38608 19.9539 3.38851 19.9516 3.39131 19.9497C3.3941 19.9481 3.39627 19.9456 3.39748 19.9426C3.39869 19.9396 3.39886 19.9363 3.39798 19.9332C3.39642 19.9272 3.3963 19.921 3.39763 19.9151C3.39897 19.9091 3.40172 19.9035 3.40565 19.8988C3.41272 19.8894 3.41823 19.879 3.42197 19.8679C3.43213 19.8386 3.44377 19.8098 3.45683 19.7816C3.46332 19.768 3.46766 19.7535 3.46969 19.7386C3.4703 19.718 3.47664 19.6979 3.48799 19.6807C3.53316 19.6115 3.57717 19.5413 3.62003 19.4703C3.62835 19.4562 3.63877 19.4436 3.65094 19.4327C3.668 19.4171 3.67147 19.3981 3.68853 19.3832C3.72822 19.3485 3.76167 19.3073 3.78744 19.2613C3.80181 19.2398 3.81839 19.2198 3.83689 19.2017C3.84212 19.1958 3.84887 19.1913 3.85643 19.1889C3.87534 19.1832 3.89241 19.1727 3.90588 19.1582C3.90977 19.1543 3.91477 19.1516 3.92022 19.1506C3.94034 19.147 3.95841 19.136 3.97091 19.1199C3.97463 19.1151 3.97987 19.1118 3.98575 19.1105C4.02103 19.1018 4.05242 19.0816 4.07501 19.0531C4.07984 19.0473 4.08604 19.0427 4.09307 19.0398C4.19197 18.9992 4.29311 18.9569 4.39647 18.9129C4.44404 18.8925 4.49383 18.8776 4.54483 18.8687L4.68306 18.8439C4.72495 18.8367 4.7674 18.8333 4.80991 18.8338C4.85738 18.8338 4.90263 18.8338 4.94541 18.8301C4.94793 18.8299 4.95044 18.8305 4.95266 18.8316C4.95489 18.8328 4.95675 18.8346 4.95802 18.8368C4.95917 18.839 4.96103 18.8408 4.96331 18.8419C4.9656 18.843 4.96817 18.8432 4.97063 18.8427C4.97448 18.8419 4.97806 18.8401 4.98102 18.8375C4.98702 18.8314 4.99467 18.8273 5.00302 18.8255C5.01138 18.8237 5.02006 18.8245 5.028 18.8276C5.0312 18.8288 5.03465 18.8292 5.03803 18.8286C5.04141 18.8281 5.04459 18.8267 5.04729 18.8246C5.05764 18.8168 5.06939 18.811 5.08191 18.8076C5.08415 18.807 5.08649 18.8068 5.08879 18.8072C5.09109 18.8075 5.09329 18.8083 5.09526 18.8096C5.10259 18.814 5.11074 18.817 5.11922 18.8183C5.12771 18.8196 5.13637 18.8193 5.14471 18.8172C5.17266 18.8105 5.20023 18.8022 5.2273 18.7925C5.23567 18.789 5.24495 18.7881 5.25382 18.7901C5.26269 18.7921 5.27071 18.7968 5.27676 18.8036C5.27937 18.8064 5.28269 18.8084 5.28635 18.8094C5.29001 18.8104 5.29388 18.8104 5.29753 18.8093C5.40699 18.7816 5.44655 18.7913 5.41622 18.8382Z" fill="#FEFEFE"/>
<path d="M3.74609 20.8548C3.83116 20.0841 4.37367 19.4207 5.03438 19.0354C5.05429 19.0368 5.07428 19.0341 5.09309 19.0274C5.1119 19.0208 5.12912 19.0103 5.14368 18.9966C5.14576 18.9943 5.14835 18.9926 5.15123 18.9916C5.15412 18.9906 5.15721 18.9902 5.16024 18.9907L5.18324 18.9929C5.18516 18.9932 5.1869 18.9942 5.18813 18.9957C5.18937 18.9972 5.19 18.9991 5.18992 19.001C5.1896 19.0028 5.18874 19.0045 5.18744 19.0057L5.13799 19.0485C5.13549 19.0504 5.13362 19.0531 5.13265 19.0561C5.13168 19.0591 5.13165 19.0623 5.13255 19.0653C5.13255 19.0695 5.13576 19.0713 5.13898 19.071C5.15505 19.0693 5.15752 19.0742 5.1464 19.0861C5.13895 19.0944 5.12974 19.1009 5.11944 19.1051C5.11218 19.1083 5.10606 19.1135 5.10189 19.1202C5.07425 19.1675 5.04256 19.2122 5.00718 19.254C4.92476 19.3491 4.84382 19.4467 4.76436 19.5468C4.75422 19.5599 4.7562 19.5623 4.77079 19.5544C4.77351 19.553 4.77499 19.5544 4.77524 19.5599C4.77541 19.5624 4.7748 19.5649 4.77351 19.567C4.76159 19.5878 4.74649 19.6066 4.72875 19.6227C4.71152 19.6382 4.69602 19.6555 4.68251 19.6744C4.64691 19.7238 4.61155 19.7733 4.57643 19.8227C4.55887 19.8489 4.53937 19.8737 4.51808 19.8969C4.505 19.9107 4.49339 19.9259 4.48346 19.9422C4.46442 19.9726 4.43648 19.9916 4.41719 20.0208C4.3713 20.0876 4.32056 20.1509 4.26537 20.2102C4.2645 20.2111 4.26386 20.2121 4.26347 20.2133C4.26308 20.2144 4.26297 20.2157 4.26314 20.2169C4.26357 20.2203 4.26306 20.2238 4.26166 20.227C4.26027 20.2302 4.25805 20.2329 4.25523 20.2349C4.22386 20.259 4.1996 20.2911 4.185 20.3279C4.18227 20.335 4.17685 20.3408 4.16992 20.344C4.1557 20.3504 4.14373 20.3609 4.13555 20.3741C4.13085 20.3813 4.12448 20.3873 4.117 20.3915C4.08545 20.4083 4.05962 20.4341 4.04282 20.4656C4.03185 20.487 4.01849 20.5071 4.00301 20.5255C3.97977 20.5537 3.9721 20.5833 3.9491 20.6123C3.91312 20.6572 3.88008 20.7045 3.8502 20.7537C3.83864 20.7723 3.8242 20.789 3.80742 20.8032C3.80629 20.8039 3.80496 20.8044 3.80358 20.8044C3.80221 20.8044 3.80087 20.8039 3.79975 20.8032C3.79629 20.8012 3.79456 20.8032 3.79431 20.8064C3.79324 20.8331 3.78623 20.8593 3.77379 20.883C3.75994 20.9092 3.75203 20.9078 3.74906 20.8781C3.7503 20.8778 3.74906 20.8699 3.74609 20.8548Z" fill="#19843F"/>
<path d="M4.18066 21.7925C4.27068 21.5982 4.38402 21.4155 4.51819 21.2485L4.87945 20.8628C5.16489 20.5058 5.40401 20.1141 5.5911 19.6971C5.63619 19.5974 5.67428 19.4946 5.7051 19.3895L5.75875 19.2231C5.76989 19.2125 5.77829 19.1994 5.78325 19.1848C5.7882 19.1703 5.78955 19.1547 5.78719 19.1395C5.78628 19.1317 5.78831 19.1237 5.79288 19.1173C5.80433 19.0996 5.81066 19.079 5.81118 19.0579C5.81118 19.0332 5.8223 19.028 5.84134 19.0453C5.86199 19.064 5.88094 19.0846 5.89797 19.1066C5.94874 19.1708 5.99485 19.2384 6.03595 19.3092C6.04232 19.3203 6.0496 19.3309 6.05771 19.3408C6.07803 19.367 6.09559 19.3953 6.11013 19.4251C6.15094 19.5057 6.19815 19.5828 6.25132 19.6558C6.27367 19.6864 6.28757 19.7223 6.29163 19.7599C6.29676 19.8016 6.31186 19.8413 6.33564 19.8759C6.35567 19.9056 6.35122 19.9404 6.37619 19.9696C6.3816 19.9759 6.38489 19.9837 6.38559 19.9919C6.39227 20.0554 6.39968 20.1212 6.40834 20.1897C6.41438 20.2368 6.41776 20.2842 6.41848 20.3316C6.41848 20.3811 6.41848 20.4286 6.41625 20.4753C6.41403 20.522 6.40982 20.5616 6.40364 20.6039C6.40342 20.6058 6.40262 20.6077 6.40134 20.6092C6.40006 20.6107 6.39837 20.6118 6.39647 20.6123C6.39434 20.6129 6.39246 20.6142 6.39113 20.616C6.38979 20.6178 6.38906 20.6199 6.38905 20.6222C6.3875 20.6846 6.37615 20.7463 6.35542 20.8052C6.33815 20.8515 6.32403 20.899 6.31314 20.9473C6.30561 20.9822 6.29241 21.0156 6.27407 21.0462C6.22033 21.1356 6.16412 21.2229 6.10543 21.3081C6.07784 21.3483 6.04636 21.3856 6.01147 21.4196C5.97661 21.4529 5.94559 21.49 5.91899 21.5302C5.91376 21.5381 5.90627 21.5443 5.89747 21.548C5.88153 21.5545 5.86701 21.5641 5.8547 21.5761C5.84229 21.588 5.82841 21.5982 5.8134 21.6066C5.72999 21.6535 5.64592 21.703 5.56118 21.7549C5.52279 21.7783 5.48179 21.7972 5.43903 21.8111C5.39518 21.8251 5.35199 21.8383 5.30946 21.8506C5.26692 21.8634 5.22301 21.871 5.17865 21.8734C5.14686 21.8744 5.11527 21.8789 5.08444 21.8867C5.05455 21.8947 5.02386 21.8992 4.99295 21.9003C4.75722 21.9081 4.60144 21.9088 4.52561 21.9025C4.48341 21.8994 4.41541 21.877 4.32161 21.8353C4.27574 21.8176 4.22863 21.8033 4.18066 21.7925Z" fill="#FEFEFE"/>
<path d="M5.70462 19.3904C5.6738 19.4954 5.63571 19.5981 5.59063 19.6978C5.40347 20.1145 5.16435 20.5058 4.87898 20.8624C4.87725 20.8521 4.87725 20.8416 4.87898 20.8313C4.87964 20.8292 4.87981 20.827 4.87946 20.8249C4.87911 20.8227 4.87827 20.8207 4.87699 20.8189C4.87572 20.8172 4.87405 20.8158 4.87212 20.8148C4.87019 20.8138 4.86805 20.8132 4.86588 20.8132C4.86323 20.8129 4.86077 20.8117 4.85896 20.8097C4.85714 20.8078 4.85609 20.8053 4.85599 20.8026C4.85508 20.7954 4.85693 20.7882 4.86118 20.7823C4.86245 20.7806 4.86314 20.7785 4.86316 20.7764C4.86372 20.7699 4.86207 20.7635 4.85846 20.7581C4.85615 20.7551 4.85511 20.7513 4.85558 20.7476C4.85604 20.7438 4.85796 20.7404 4.86093 20.7381C4.86632 20.7333 4.87019 20.727 4.87206 20.72C4.88207 20.6861 4.8989 20.6545 4.92151 20.6273C4.92626 20.6215 4.92964 20.6148 4.9314 20.6075C4.93474 20.5934 4.94214 20.5806 4.95267 20.5707C4.95605 20.5676 4.95863 20.5637 4.96018 20.5594C4.96173 20.5551 4.96221 20.5505 4.96157 20.5459C4.95983 20.5248 4.966 20.5037 4.97888 20.4868C4.9912 20.4702 5.00236 20.4528 5.01226 20.4347C5.0228 20.415 5.03613 20.397 5.05183 20.3812C5.08735 20.347 5.1096 20.3013 5.11463 20.2522C5.11698 20.2212 5.12538 20.1909 5.13936 20.1632C5.17497 20.0952 5.21132 20.0311 5.24841 19.9708C5.28591 19.9089 5.31841 19.8442 5.34559 19.7772C5.37401 19.7098 5.40705 19.6446 5.44449 19.5818C5.52807 19.4394 5.61132 19.2812 5.69424 19.1073C5.70339 19.0883 5.70734 19.0892 5.70611 19.1105C5.7054 19.1226 5.70273 19.1346 5.6982 19.1459C5.69374 19.1574 5.69548 19.1584 5.70339 19.1488C5.70405 19.1479 5.70498 19.1473 5.70604 19.1469C5.7071 19.1466 5.70825 19.1465 5.70932 19.1469C5.71009 19.1469 5.71081 19.1472 5.71136 19.1478C5.7119 19.1483 5.71223 19.1491 5.71229 19.1498C5.72398 19.2298 5.72139 19.3113 5.70462 19.3904Z" fill="#46A538"/>
<path d="M4.51788 21.2492C4.38372 21.4161 4.27037 21.5988 4.18036 21.7932L4.06785 22.0503C4.06135 22.0235 4.06423 21.9952 4.07601 21.9702C4.10814 21.8822 4.13522 21.7925 4.15711 21.7014C4.17119 21.6448 4.18886 21.5891 4.21003 21.5348C4.23871 21.4606 4.26369 21.3891 4.29855 21.3167C4.40752 21.089 4.50247 20.909 4.58341 20.7766C4.62314 20.7117 4.66435 20.6466 4.70705 20.5815C4.76787 20.4872 4.82409 20.4055 4.87569 20.3362C4.87803 20.3329 4.88115 20.3303 4.88478 20.3285C4.8884 20.3266 4.89241 20.3258 4.89646 20.3259C4.9023 20.3264 4.90814 20.3247 4.91275 20.3211C4.91736 20.3174 4.92038 20.3121 4.92118 20.3063C4.92128 20.3056 4.92153 20.305 4.92192 20.3044C4.9223 20.3039 4.92282 20.3034 4.92342 20.3031C4.92401 20.3027 4.92468 20.3025 4.92537 20.3025C4.92605 20.3025 4.92674 20.3026 4.92737 20.3029C4.92807 20.303 4.92875 20.3032 4.92935 20.3036C4.92994 20.304 4.93044 20.3045 4.93079 20.3052C4.93115 20.3058 4.93136 20.3065 4.93141 20.3072C4.93146 20.3079 4.93135 20.3086 4.93107 20.3093C4.92307 20.3434 4.91138 20.3766 4.89621 20.4082C4.86456 20.4718 4.83307 20.5336 4.80175 20.5934C4.78766 20.6206 4.779 20.6545 4.75798 20.6753C4.75159 20.6814 4.74698 20.6892 4.74463 20.6978L4.69641 20.8607C4.69561 20.8638 4.69403 20.8667 4.69182 20.869C4.68962 20.8713 4.68686 20.8731 4.6838 20.8741C4.68231 20.8745 4.68093 20.8752 4.67976 20.8762C4.67858 20.8773 4.67763 20.8785 4.67698 20.8799C4.67632 20.8813 4.67597 20.8828 4.67596 20.8844C4.67594 20.8859 4.67625 20.8875 4.67688 20.8889C4.67786 20.8919 4.67786 20.8952 4.67688 20.8983C4.66914 20.9178 4.65569 20.9345 4.6383 20.9463C4.60707 20.9698 4.58168 21.0003 4.56412 21.0353L4.52406 21.105C4.51142 21.1267 4.50426 21.1512 4.50318 21.1763C4.5021 21.2014 4.50715 21.2264 4.51788 21.2492Z" fill="#19843F"/>
<circle cx="20" cy="20" r="19.5" stroke="black" stroke-opacity="0.05"/>
</svg>
