<svg width="40" height="40" viewBox="0 0 40 40" fill="none" xmlns="http://www.w3.org/2000/svg">
<circle cx="20" cy="20" r="20" fill="#002A65"/>
<path d="M10.0269 21.6573L6.1476 16H5V23.2088H5.9697V17.3255L9.88156 23.2088H10.9966V16H10.0269V21.6573Z" fill="white"/>
<path d="M13.2757 20.7843H15.7814V20.235H13.2757V18.683H15.9749V18.0686H12.3867V23.1767H16.0721V22.6595H13.2757V20.7843Z" fill="white"/>
<path d="M20.8083 18.0852L19.1756 20.1539L17.6075 18.0852H16.6699L18.6259 20.5743L16.6699 23.1767H17.6562L19.1756 21.0755L20.7597 23.1767H21.762L19.6767 20.5743L21.762 18.0852H20.8083Z" fill="white"/>
<path d="M28.6723 16.0142H27.8115V23.1768H28.6723V16.0142Z" fill="white"/>
<path d="M22.0688 18.667H24.0617V23.1767H24.9225V18.667H26.9665V18.0852H22.0688V18.667Z" fill="white"/>
<path d="M34.2564 18.1172V22.2876L31.0236 18.1172H30.0859V23.1766H30.8461V18.9576L34.1592 23.1766H35.0001V18.1172H34.2564Z" fill="white"/>
<circle cx="20" cy="20" r="19.5" stroke="black" stroke-opacity="0.05"/>
</svg>
