<svg width="40" height="40" viewBox="0 0 40 40" fill="none" xmlns="http://www.w3.org/2000/svg">
<circle cx="20" cy="20" r="20" fill="#F05123"/>
<path d="M17.0313 24.022C17.0324 24.024 17.0341 24.0257 17.0361 24.0268C17.0377 24.0278 17.0394 24.0284 17.0412 24.0287C17.043 24.029 17.0448 24.0289 17.0466 24.0284C17.0483 24.028 17.05 24.0272 17.0514 24.0261C17.0529 24.025 17.0541 24.0236 17.0549 24.022L18.7917 21.0296C18.7958 21.0227 18.798 21.0147 18.798 21.0065C18.798 20.9984 18.7958 20.9904 18.7917 20.9834L15.6897 15.7246C15.6889 15.7233 15.6884 15.7218 15.6884 15.7203C15.6885 15.718 15.6894 15.7158 15.6911 15.7141C15.6927 15.7125 15.6949 15.7115 15.6973 15.7114H18.5582H20.9491H22.677H24.2463C24.2574 15.7114 24.2598 15.7163 24.2541 15.7254L23.5377 16.9109L22.1856 19.1516L21.0958 20.9563C21.0915 20.9637 21.0892 20.9722 21.0892 20.9808C21.0892 20.9893 21.0915 20.9978 21.0958 21.0052L22.8287 24.0241C22.8297 24.0258 22.8311 24.0272 22.8328 24.0282C22.834 24.0289 22.8354 24.0294 22.8368 24.0296C22.8383 24.0298 22.8398 24.0298 22.8412 24.0294C22.8426 24.029 22.8439 24.0283 22.845 24.0274C22.8462 24.0265 22.8471 24.0254 22.8478 24.0241L24.5037 21.194L25.8737 18.8518L26.7855 17.2937L27.2852 16.4392L28.3479 14.6219C28.3502 14.6175 28.351 14.6125 28.3502 14.6077C28.3495 14.6029 28.3471 14.5984 28.3436 14.595C26.9252 13.2981 25.5995 11.9034 24.3761 10.4212C24.2661 10.2857 24.1479 10.1571 24.022 10.0362C23.871 9.89456 23.7114 9.76232 23.5441 9.64025C23.2153 9.39456 22.8613 9.18447 22.4881 9.01352C22.0231 8.80078 21.5327 8.64865 21.0289 8.56087C20.567 8.48308 20.0979 8.45749 19.6304 8.48458C18.8857 8.52619 18.1557 8.70849 17.4788 9.02185C16.9274 9.27544 16.4193 9.61401 15.9729 10.0252C15.8472 10.1432 15.7296 10.2694 15.621 10.4032C14.3902 11.8927 13.0572 13.2947 11.6317 14.599C11.6252 14.605 11.621 14.6129 11.6196 14.6216C11.6182 14.6303 11.6199 14.6392 11.6242 14.6468L17.0313 24.022ZM19.8788 13.6059C19.8786 13.6068 19.8786 13.6079 19.8788 13.6088C19.8784 13.6079 19.8782 13.6069 19.8783 13.6059H19.8788ZM19.8794 13.6115C19.8793 13.6123 19.8793 13.6131 19.8794 13.6139C19.8791 13.6131 19.8789 13.6122 19.8788 13.6112L19.8794 13.6115ZM19.8883 13.6209H19.8858H19.8885H19.8883ZM20.9432 15.6779C20.9424 15.6762 20.9415 15.6746 20.9405 15.673C20.9413 15.6746 20.942 15.6762 20.9427 15.6779H20.9432ZM20.9373 15.669L20.933 15.6658C20.9343 15.6667 20.9356 15.6678 20.9367 15.669H20.9373ZM20.9284 15.6634C20.9268 15.6625 20.9251 15.662 20.9233 15.6617C20.9249 15.662 20.9264 15.6626 20.9279 15.6634H20.9284ZM20.915 15.6609H20.9179C20.9152 15.6605 20.9124 15.6605 20.9096 15.6609H20.915ZM22.2206 15.4111C22.2204 15.4118 22.2204 15.4125 22.2206 15.4133C22.2202 15.4126 22.22 15.4119 22.22 15.4111H22.2206ZM22.2222 15.4162C22.2222 15.4162 22.2238 15.4181 22.2249 15.4184C22.2242 15.4183 22.2235 15.4181 22.2229 15.4177C22.2224 15.4174 22.2219 15.4168 22.2216 15.4162H22.2222ZM22.8379 12.7836C22.8381 12.7828 22.8381 12.7819 22.8379 12.7812C22.8379 12.7819 22.8377 12.7826 22.8373 12.7833L22.8379 12.7836ZM23.6317 11.0358C23.6328 11.0374 23.6341 11.0388 23.6355 11.0401C23.6339 11.0388 23.6324 11.0372 23.6312 11.0356L23.6317 11.0358ZM23.6269 11.0253C23.6273 11.0273 23.628 11.0292 23.629 11.031C23.6279 11.0291 23.627 11.0272 23.6263 11.0251L23.6269 11.0253ZM23.5148 10.2095C23.5151 10.2083 23.5151 10.207 23.5148 10.2057C23.5151 10.2067 23.5151 10.2077 23.5148 10.2087C23.5148 10.2087 23.5143 10.209 23.5143 10.2092L23.5148 10.2095ZM23.5148 10.2119C23.5148 10.2119 23.5148 10.2133 23.5132 10.2135C23.5116 10.2138 23.513 10.2122 23.5135 10.2116L23.5148 10.2119ZM23.5041 10.1542C23.5043 10.1537 23.5044 10.1532 23.5044 10.1527C23.5044 10.1522 23.5043 10.1517 23.5041 10.1512C23.5041 10.1517 23.5039 10.1522 23.5037 10.1527C23.5035 10.1531 23.5032 10.1536 23.5028 10.1539L23.5041 10.1542ZM25.5938 16.4985C25.5938 16.4985 25.5938 16.4969 25.5938 16.4964C25.5938 16.4959 25.5933 16.4961 25.5936 16.4969L25.5938 16.4985ZM25.5938 16.4945C25.5934 16.4931 25.5934 16.4916 25.5938 16.4902C25.5933 16.491 25.5929 16.492 25.5928 16.4929L25.5938 16.4945ZM27.239 16.4284C27.237 16.4261 27.2357 16.4233 27.2352 16.4204C27.2355 16.4239 27.2368 16.4272 27.239 16.43V16.4284ZM23.6529 11.0476H23.65C23.6527 11.048 23.6555 11.048 23.6583 11.0476C23.6565 11.0479 23.6547 11.0479 23.6529 11.0476ZM23.6395 11.0431C23.641 11.0441 23.6426 11.045 23.6443 11.0455C23.6426 11.045 23.6409 11.0442 23.6395 11.0431ZM22.8376 12.7766C22.8376 12.7766 22.8376 12.7766 22.8376 12.7785C22.8379 12.7775 22.8379 12.7765 22.8376 12.7755V12.7766ZM18.529 15.6292V15.6279C18.529 15.6279 18.529 15.6287 18.529 15.6292Z" fill="white"/>
<path d="M18.9655 17.3027C18.9629 17.3027 18.9604 17.3035 18.9583 17.3049C18.9566 17.3058 18.9552 17.307 18.9541 17.3085C18.9529 17.31 18.9521 17.3117 18.9516 17.3135C18.9512 17.3153 18.951 17.3172 18.9513 17.319C18.9516 17.3209 18.9522 17.3226 18.9532 17.3242L19.9407 19.0199C19.9418 19.0219 19.9435 19.0237 19.9455 19.025C19.9471 19.0259 19.9489 19.0266 19.9507 19.0269C19.9526 19.0272 19.9545 19.0271 19.9563 19.0266C19.9581 19.0262 19.9599 19.0254 19.9614 19.0243C19.9629 19.0231 19.9641 19.0217 19.9651 19.0201L20.9752 17.325C20.9765 17.3229 20.9771 17.3205 20.9771 17.318C20.9771 17.3162 20.9768 17.3143 20.9761 17.3126C20.9754 17.3108 20.9744 17.3092 20.9731 17.3079C20.9718 17.3066 20.9702 17.3055 20.9685 17.3047C20.9668 17.304 20.965 17.3036 20.9631 17.3035L18.9655 17.3027Z" fill="white"/>
<path d="M31.9162 19.4649C31.7088 18.2861 31.2004 17.2653 30.3909 16.4024C30.2356 16.2372 30.0559 16.0983 29.8805 15.9516L29.878 15.95C29.8736 15.9474 29.8683 15.9466 29.8633 15.9478C29.8583 15.949 29.8539 15.9521 29.8512 15.9565L28.0712 18.9351L26.5179 21.5358L25.8764 22.6103L22.7844 27.7883C22.783 27.7908 22.781 27.7928 22.7785 27.7942C22.7766 27.7953 22.7745 27.796 22.7723 27.7963C22.7701 27.7966 22.7679 27.7965 22.7658 27.7959C22.7637 27.7953 22.7617 27.7943 22.76 27.793C22.7582 27.7916 22.7568 27.7899 22.7557 27.788L19.9197 22.9182C19.9185 22.9162 19.9168 22.9145 19.9148 22.9134C19.9117 22.9115 19.908 22.9109 19.9045 22.9117C19.901 22.9126 19.8979 22.9148 19.896 22.9179L18.3269 25.5455L16.9889 27.791C16.9875 27.7934 16.9855 27.7954 16.9832 27.7969C16.9795 27.799 16.9752 27.7995 16.9711 27.7984C16.9671 27.7973 16.9636 27.7946 16.9615 27.791L10.0852 15.9903L10.0838 15.9884C10.0824 15.9867 10.0807 15.9852 10.0788 15.9841C10.0768 15.983 10.0746 15.9824 10.0724 15.9821C10.0702 15.9819 10.0679 15.982 10.0658 15.9827C10.0637 15.9833 10.0616 15.9843 10.0599 15.9857C9.88341 16.1324 9.70772 16.2694 9.5495 16.4424C8.63918 17.4412 8.12268 18.6232 8 19.9884V20.9432C8.10745 22.2667 8.64124 23.5143 9.54224 24.4892C9.66496 24.619 9.79588 24.7409 9.93418 24.854C10.6052 25.4142 11.2785 26.01 11.9541 26.6415C13.3257 27.924 14.5547 29.2313 15.6411 30.5636C15.7423 30.6894 15.8526 30.8076 15.971 30.9174C16.8389 31.7116 17.9238 32.229 19.0872 32.4035C19.2622 32.4289 19.4387 32.4429 19.6156 32.4454C19.8636 32.4504 20.1149 32.4504 20.3694 32.4454C20.5471 32.4426 20.7244 32.4281 20.9002 32.4021C22.0629 32.2227 23.1769 31.7037 24.0317 30.8978C24.1601 30.7723 24.2806 30.639 24.3925 30.4986C24.6699 30.1583 24.9545 29.8243 25.2462 29.4966C26.5359 28.0368 27.9328 26.6788 29.4068 25.3999C29.6282 25.2079 29.8521 25.0179 30.0784 24.8301C30.2163 24.7161 30.3462 24.5928 30.4672 24.461C30.717 24.187 30.94 23.8896 31.1328 23.5729C31.1543 23.5395 31.1749 23.506 31.1946 23.4721C31.4387 23.0522 31.6306 22.6041 31.7663 22.1378C32.0155 21.2692 32.0668 20.3558 31.9162 19.4649ZM24.8228 29.6193C24.8205 29.6197 24.8183 29.6206 24.8164 29.622C24.8182 29.6203 24.8204 29.6191 24.8228 29.6185V29.6193ZM23.4625 29.0657C23.4625 29.0614 23.4635 29.0572 23.4654 29.0533C23.4636 29.0569 23.4626 29.0608 23.4625 29.0649V29.0657ZM23.4643 29.077C23.4641 29.0748 23.4641 29.0726 23.4643 29.0705C23.4641 29.0724 23.4641 29.0743 23.4643 29.0761V29.077ZM22.1859 28.6031C22.1859 28.6017 22.1859 28.6004 22.1859 28.599C22.1861 28.6004 22.1862 28.6017 22.1862 28.6031H22.1859ZM22.1829 28.5918C22.1836 28.5929 22.1842 28.5941 22.1846 28.5953C22.1845 28.5941 22.1843 28.5929 22.184 28.5918H22.1829ZM22.1792 28.587C22.1792 28.587 22.1792 28.587 22.1792 28.5886C22.1778 28.5869 22.1761 28.5855 22.1743 28.5843L22.1792 28.587ZM20.8897 27.8477C20.8909 27.8535 20.8909 27.8596 20.8897 27.8654C20.8901 27.8625 20.8901 27.8595 20.8897 27.8565C20.89 27.854 20.8901 27.8513 20.89 27.8487L20.8897 27.8477ZM20.8876 27.8393C20.8877 27.8408 20.8877 27.8422 20.8876 27.8436C20.8878 27.8422 20.8879 27.8408 20.8878 27.8393H20.8876ZM20.8854 27.8353C20.885 27.834 20.8843 27.8327 20.8835 27.8316C20.8844 27.8327 20.8851 27.834 20.8857 27.8353H20.8854ZM18.0618 26.0784C18.0617 26.079 18.0617 26.0795 18.0618 26.08C18.0618 26.0803 18.0618 26.0806 18.0618 26.0808V26.0784ZM18.0596 26.0827C18.0595 26.0838 18.0595 26.0849 18.0596 26.0859C18.0596 26.0857 18.0596 26.0854 18.0596 26.0851V26.0827ZM20.8559 27.8095C20.8529 27.8093 20.85 27.8093 20.847 27.8095C20.85 27.8101 20.853 27.8109 20.8559 27.8119V27.8095ZM23.467 29.0786C23.4679 29.0803 23.469 29.0819 23.4702 29.0834C23.4691 29.0827 23.468 29.0819 23.467 29.081V29.0786ZM23.4754 29.0874L23.4794 29.0904C23.478 29.0904 23.4767 29.0902 23.4754 29.0898V29.0874ZM24.8086 29.6303C24.8081 29.6326 24.8081 29.635 24.8086 29.6373C24.8084 29.6358 24.8084 29.6343 24.8086 29.6328V29.6303ZM31.9006 19.5062C31.9007 19.5053 31.9007 19.5043 31.9006 19.5033C31.9013 19.505 31.9018 19.5068 31.9019 19.5087L31.9006 19.5062ZM28.0446 19.0302C28.0454 19.0304 28.0462 19.0304 28.047 19.0302C28.047 19.0313 28.0467 19.0323 28.0459 19.0332L28.0446 19.0302ZM29.5527 19.5943C29.5526 19.5952 29.5526 19.5961 29.5527 19.597C29.5531 19.5966 29.5536 19.5963 29.5541 19.596L29.5527 19.5943ZM29.5551 19.6032C29.5557 19.6039 29.5563 19.6045 29.557 19.6051C29.5571 19.605 29.5572 19.6049 29.5573 19.6048L29.5551 19.6032ZM29.5616 19.607C29.5608 19.6072 29.56 19.6072 29.5592 19.607C29.56 19.6072 29.5608 19.6072 29.5616 19.607ZM28.0492 19.0267C28.0495 19.0255 28.0495 19.0242 28.0492 19.023C28.0499 19.0237 28.0504 19.0245 28.0508 19.0254C28.0511 19.0263 28.0513 19.0273 28.0513 19.0283L28.0492 19.0267ZM26.9926 21.7281C26.9926 21.7281 26.9926 21.7281 26.991 21.7297C26.9894 21.7313 26.9926 21.7287 26.9926 21.7281ZM26.9612 21.7343H26.9593H26.9625H26.9612ZM31.9017 19.5156C31.9017 19.5156 31.9017 19.5156 31.9017 19.5178C31.9017 19.5199 31.9014 19.5162 31.9017 19.5154V19.5156ZM31.9017 19.5135C31.9018 19.5127 31.9018 19.5119 31.9017 19.5111C31.9019 19.5118 31.902 19.5125 31.9019 19.5132L31.9017 19.5135Z" fill="white"/>
<circle cx="20" cy="20" r="19.5" stroke="black" stroke-opacity="0.05"/>
</svg>
