<svg width="40" height="40" viewBox="0 0 40 40" fill="none" xmlns="http://www.w3.org/2000/svg">
<circle cx="20" cy="20" r="20" fill="#F6F8FA"/>
<path d="M24.1344 17.1326V20.2366C24.1335 21.0178 23.4967 21.6518 22.7174 21.6518H18.894L27.5434 30.0002H28.2692V16.6646H24.573C24.313 16.6646 24.1348 16.8838 24.1348 17.133L24.1344 17.1326Z" fill="#0072CE"/>
<path d="M11.7302 10V30H21.7974C21.7974 30 14.2844 21.3388 14.2864 21.3412C14.288 21.3436 14.128 21.1588 14.0699 21.0524C14.0139 20.9496 13.9725 20.8384 13.9461 20.7236C13.9266 20.6364 13.9164 20.5464 13.9156 20.4568C13.9144 20.3684 13.9233 20.2792 13.9404 20.1912C13.9518 20.1336 13.9676 20.0772 13.9863 20.022C14.0054 19.9668 14.0281 19.9128 14.0553 19.8612C14.0927 19.7888 14.137 19.72 14.1873 19.6556C14.2235 19.6112 14.262 19.568 14.3031 19.5284C14.3445 19.4876 14.3888 19.4508 14.4351 19.4168C14.4769 19.386 14.5212 19.3588 14.5662 19.3316C14.6113 19.3064 14.6588 19.2852 14.7068 19.2652C14.7977 19.2284 14.8928 19.2024 14.9902 19.1872C15.0199 19.1828 15.0495 19.1788 15.0792 19.1764C15.1096 19.1732 15.1397 19.172 15.1697 19.172H20.7723C20.8901 19.172 21.0034 19.1444 21.1098 19.0996C21.2126 19.056 21.308 18.9936 21.3892 18.9172C21.4701 18.8396 21.5371 18.7484 21.5858 18.648C21.637 18.544 21.6678 18.4304 21.676 18.3152V15.1204C21.676 14.9936 21.7028 14.866 21.7519 14.7488C21.8002 14.6364 21.8697 14.5316 21.9566 14.4456C22.0431 14.358 22.1471 14.288 22.26 14.2408C22.3765 14.1908 22.5028 14.1664 22.6292 14.1664H28.2699V10H11.7302Z" fill="#0072CE"/>
<circle cx="20" cy="20" r="19.5" stroke="black" stroke-opacity="0.05"/>
</svg>
