<svg width="40" height="40" viewBox="0 0 40 40" fill="none" xmlns="http://www.w3.org/2000/svg">
<circle cx="20" cy="20" r="20" fill="#F6F8FA"/>
<path d="M18.4149 14H22.0883L21.4269 17.9238L20.7184 22.1094C20.7167 22.1202 20.7075 22.1281 20.6963 22.1281L19.3043 22.1269L18.1428 22.1227C18.129 22.1227 18.1236 22.1161 18.1269 22.1023L18.3099 21.3609L18.4753 20.6966C18.4799 20.6778 18.4724 20.6682 18.4528 20.6682H17.6089C17.601 20.6682 17.5935 20.6728 17.5901 20.6803L17.3555 21.1963L16.945 22.1061C16.9396 22.119 16.9296 22.1252 16.9158 22.1252C16.3323 22.1277 15.7501 22.1273 15.1696 22.1236C15.1312 22.1236 15.1054 22.1286 15.0921 22.139L14.3256 22.1231C14.3115 22.1231 14.3077 22.1165 14.314 22.104L15.4921 19.7688L16.3273 18.1164L18.4149 14ZM18.0752 19.1875C18.0652 19.2091 18.0719 19.22 18.0957 19.22H18.9C18.9121 19.22 18.9221 19.2116 18.9246 19.2C19.1567 18.1114 19.4114 17.0265 19.6877 15.945C19.699 15.8996 19.694 15.8979 19.6723 15.9392C19.1142 17.0082 18.5816 18.091 18.0752 19.1875Z" fill="black"/>
<path d="M16.3271 18.1163C16.3046 18.138 16.2883 18.1572 16.255 18.1572H13.9661C13.9569 18.1572 13.9499 18.1501 13.9499 18.1409C13.9499 18.1388 13.9499 18.1372 13.9507 18.1355C14.0511 17.8513 14.1549 17.5512 14.2629 17.2353C14.2999 17.1257 14.3233 17.0202 14.332 16.9198C14.3425 16.801 14.2833 16.7331 14.1537 16.7152C13.5973 16.6381 13.361 17.2699 13.2976 17.7025C13.261 17.9546 13.381 18.1209 13.596 18.2618C13.8207 18.4089 14.0511 18.5569 14.2883 18.7056C14.7263 18.9811 15.2135 19.322 15.4919 19.7688L14.3137 22.1039C14.3074 22.1164 14.3112 22.1227 14.3254 22.1231L15.0918 22.1389C14.9038 22.597 14.6092 22.9429 14.2087 23.1775C13.2439 23.7431 11.9836 23.8968 10.8904 23.7176C10.3236 23.6247 9.46424 23.2763 9.45882 22.5757C9.45632 22.2502 9.51383 21.906 9.63136 21.5421C9.75055 21.1733 9.87016 20.8074 9.98978 20.4435C9.99269 20.4344 10.0014 20.4281 10.011 20.4281H12.3328C12.3441 20.4281 12.3532 20.4373 12.3537 20.4485C12.3537 20.451 12.3537 20.4531 12.3524 20.4556C12.1878 20.9441 12.0286 21.4192 11.874 21.8805C11.8427 21.9743 11.7939 22.1789 11.8302 22.2677C11.859 22.3373 11.9131 22.3786 11.9936 22.3911C12.307 22.4398 12.545 22.3277 12.7071 22.0547C12.8684 21.7834 12.9667 21.4663 13.0026 21.1024C13.0159 20.9703 12.9942 20.872 12.9371 20.8065C12.7992 20.6482 12.6054 20.4873 12.3553 20.3235C11.8981 20.0155 11.4964 19.723 11.1505 19.4462C10.3686 18.8207 10.8662 17.5791 11.228 16.8615C11.4976 16.3263 11.9286 15.9342 12.5208 15.6849C12.9084 15.522 13.3085 15.4161 13.7211 15.3674C14.3558 15.2928 14.9476 15.3098 15.4961 15.4178C15.9683 15.5107 16.6859 15.782 16.7463 16.3163C16.7639 16.4709 16.7551 16.6368 16.7201 16.8139C16.6634 17.0998 16.5784 17.397 16.4646 17.7058C16.415 17.8404 16.3692 17.9771 16.3271 18.1163Z" fill="#4D4E50"/>
<path d="M29.7857 23.3478C29.3085 23.5941 28.7875 23.7508 28.2236 23.8179C27.701 23.8804 27.1801 23.87 26.6612 23.7871C26.3165 23.7321 26.0073 23.6162 25.7343 23.4395C25.4138 23.2324 25.2463 22.9348 25.2317 22.5464C25.2404 22.0129 25.3917 21.4686 25.5655 20.9643C25.8777 20.0583 26.1923 19.1518 26.5095 18.2445C26.6149 17.9432 26.7304 17.6477 26.8558 17.3585C26.9613 17.1159 27.0775 16.9159 27.2042 16.7583C28.149 15.5822 29.7961 15.2547 31.2185 15.4435C31.9758 15.5439 32.9043 15.9619 32.8276 16.8692C32.798 17.2172 32.7243 17.5744 32.6055 17.9407C32.4725 18.3516 32.3404 18.7334 32.2096 19.0864C32.205 19.0989 32.1958 19.1051 32.1821 19.1051H29.6848C29.6698 19.1051 29.6648 19.0981 29.6694 19.0839C29.8303 18.6125 29.9899 18.1533 30.1478 17.7065C30.2337 17.4635 30.2962 17.2418 30.3358 17.0409C30.3646 16.8963 30.307 16.8125 30.1633 16.7896C29.9249 16.7508 29.6694 16.8079 29.5406 17.0234C29.4443 17.1839 29.3589 17.371 29.2847 17.5844C28.7842 19.0201 28.2995 20.4167 27.8306 21.7741C27.7773 21.9287 27.7427 22.0746 27.7269 22.2125C27.7098 22.3592 27.7785 22.4434 27.9332 22.4651C28.2286 22.5068 28.4391 22.3992 28.5654 22.1429C28.6596 21.9508 28.7425 21.7516 28.8142 21.5445C28.9392 21.1831 29.0663 20.818 29.1951 20.4492C29.1997 20.4355 29.2097 20.4284 29.2243 20.4284H31.7332C31.7382 20.4284 31.7424 20.4325 31.7424 20.4375C31.7424 20.4384 31.7424 20.4396 31.742 20.4405C31.5448 21.0418 31.3219 21.6516 31.018 22.205C30.7205 22.746 30.3091 23.0498 29.7857 23.3478Z" fill="#4D4E50"/>
<path d="M25.156 22.5342L24.9818 23.5724C24.9797 23.5861 24.9676 23.5961 24.9535 23.5961H22.3983C22.3883 23.5961 22.3804 23.5882 22.3804 23.5782C22.3804 23.5765 22.3804 23.5749 22.3808 23.5736L22.7392 22.1612C22.7429 22.145 22.7367 22.137 22.7204 22.137H21.8777C21.8611 22.137 21.8494 22.145 21.8423 22.1604L21.2076 23.567C21.1988 23.5865 21.1838 23.5961 21.1626 23.5961H18.5791C18.5728 23.5961 18.5674 23.5911 18.5674 23.5845C18.5674 23.5824 18.5678 23.5807 18.5686 23.579L19.3042 22.127L20.6962 22.1283C20.7075 22.1283 20.7166 22.1204 20.7183 22.1095L21.4268 17.924L22.6642 15.4913C22.6713 15.4776 22.685 15.4692 22.7 15.4692H26.3359C26.3413 15.4692 26.3454 15.4734 26.3454 15.4788C26.3454 15.4797 26.3454 15.4801 26.3454 15.4809L25.156 22.5342ZM22.4462 20.4146C22.4079 20.4967 22.3712 20.5813 22.3362 20.6692C22.3308 20.6825 22.3349 20.6892 22.3495 20.6892H23.1693C23.1755 20.6892 23.181 20.6846 23.1826 20.6784C23.4173 19.5789 23.6707 18.4954 23.9428 17.4272C23.9566 17.3747 23.9507 17.3726 23.9257 17.4205C23.4073 18.4153 22.9142 19.4131 22.4462 20.4146Z" fill="#4D4E50"/>
<path d="M9.64617 19.8591L8.35128 23.5912C8.34628 23.6066 8.3317 23.6166 8.31544 23.6166H5.81528C5.80152 23.6166 5.79694 23.6104 5.80152 23.5975L7.24394 19.4428L8.61093 15.5093C8.61551 15.4964 8.62468 15.4897 8.63843 15.4897H11.139C11.149 15.4897 11.1569 15.4977 11.1569 15.5077C11.1569 15.5098 11.1569 15.5118 11.1561 15.5135L9.64617 19.8591Z" fill="#4D4E50"/>
<path d="M7.24386 19.4431L5.80144 23.5978C5.79685 23.6107 5.80144 23.617 5.81519 23.617H8.31536C8.33161 23.617 8.3462 23.607 8.3512 23.5916L9.64608 19.8594L12.3555 20.3237C12.6055 20.4875 12.7993 20.6484 12.9373 20.8068C12.9944 20.8722 13.016 20.9705 13.0027 21.1027C12.9669 21.4665 12.8685 21.7836 12.7072 22.055C12.5451 22.3279 12.3071 22.44 11.9937 22.3913C11.9133 22.3788 11.8591 22.3375 11.8303 22.2679C11.7941 22.1792 11.8428 21.9745 11.8741 21.8808C12.0287 21.4194 12.1879 20.9443 12.3525 20.4558C12.3563 20.445 12.3505 20.4337 12.34 20.43C12.338 20.4292 12.3355 20.4287 12.333 20.4287H10.0112C10.0016 20.4287 9.99283 20.4346 9.98991 20.4438C9.8703 20.8076 9.75069 21.1735 9.6315 21.5423C9.51397 21.9062 9.45645 22.2504 9.45896 22.5759C9.46437 23.2765 10.3237 23.6249 10.8905 23.7178C11.9837 23.8971 13.244 23.7433 14.2088 23.1777C14.6093 22.9431 14.904 22.5972 15.0919 22.1391C15.1053 22.1287 15.1311 22.1233 15.1695 22.1237C15.75 22.1275 16.3322 22.1279 16.9157 22.1254C16.9294 22.1254 16.9394 22.1191 16.9449 22.1062L17.3554 21.1964L18.3098 21.361L18.1268 22.1025C18.1235 22.1162 18.1289 22.1229 18.1426 22.1229L19.3042 22.1271L18.5686 23.5791C18.5657 23.5849 18.5677 23.592 18.5736 23.5949C18.5752 23.5957 18.5773 23.5962 18.579 23.5962H21.1625C21.1838 23.5962 21.1988 23.5866 21.2075 23.567L21.8423 22.1604C21.8493 22.145 21.861 22.1375 21.8777 22.1375H22.7204C22.7366 22.1375 22.7429 22.145 22.7391 22.1612L22.3807 23.5736C22.3782 23.5832 22.3841 23.5928 22.3936 23.5957C22.3953 23.5957 22.397 23.5962 22.3982 23.5962H24.9534C24.9676 23.5962 24.9797 23.5861 24.9817 23.5724L25.1559 22.5342C25.1797 22.5497 25.2051 22.5538 25.2318 22.5467C25.2464 22.9352 25.4139 23.2327 25.7344 23.4399C26.0074 23.6166 26.3166 23.7324 26.6613 23.7874C27.1802 23.8704 27.7011 23.8808 28.2237 23.8183C28.7876 23.7512 29.3086 23.5945 29.7858 23.3482L36.9925 24.5972C36.9979 24.5985 37.0004 24.6018 37 24.6072L36.9987 24.6193C36.9987 24.6193 36.9983 24.6206 36.9975 24.6206L5 24.5956V22.9477L5.00708 19.1001C5.00708 19.0701 5.02209 19.0576 5.05168 19.0626L7.24386 19.4431Z" fill="#FDC526"/>
<circle cx="20" cy="20" r="19.5" stroke="black" stroke-opacity="0.05"/>
</svg>
