<svg width="40" height="40" viewBox="0 0 40 40" fill="none" xmlns="http://www.w3.org/2000/svg">
<circle cx="20" cy="20" r="20" fill="#2A3C96"/>
<path d="M14.9318 20.0391C14.903 20.0978 14.873 20.1301 14.8408 20.137C14.2626 20.2546 13.6934 20.4128 13.1375 20.6103C12.6768 20.7739 12.223 20.9539 11.7762 21.1505C11.2756 21.0629 10.7765 20.9628 10.279 20.8499C8.68624 20.486 6.68808 20.1946 6.51648 18.1354C6.3944 16.6359 7.01669 15.5775 8.38335 14.9602C8.88043 14.7462 9.40758 14.6102 9.94617 14.5571C11.8775 14.3326 14.4285 14.7057 15.1644 16.8421C15.3273 17.2993 15.4242 17.7775 15.4523 18.2621C15.4533 18.2819 15.4465 18.3012 15.4334 18.3161C15.4202 18.3309 15.4018 18.3401 15.3821 18.3415H13.058C13.0377 18.3417 13.018 18.3344 13.0027 18.321C12.9875 18.3076 12.9776 18.2891 12.9751 18.269C12.9395 17.9816 12.8818 17.6975 12.8023 17.419C12.504 16.3756 10.8744 16.4171 10.0602 16.5346C9.43944 16.6244 8.77607 17.0332 8.92579 17.7473C9.00257 18.1043 9.28434 18.3427 9.77112 18.4625C10.6925 18.6882 11.6871 18.9105 12.7551 19.1293C13.5429 19.2951 14.3041 19.545 14.9318 20.0391Z" fill="white"/>
<path d="M24.7775 19.8247C23.7648 19.6208 22.7386 19.4915 21.7071 19.4377L21.0576 17.7563C21.0253 17.6722 20.9919 17.6722 20.9585 17.7563L20.2905 19.3916L17.3987 19.5621L19.2287 15.1754C19.2359 15.1549 19.2496 15.1373 19.2676 15.1252C19.2857 15.1132 19.3072 15.1073 19.3289 15.1086H22.7839C22.8041 15.1084 22.8238 15.1143 22.8405 15.1257C22.8571 15.137 22.8699 15.1531 22.8772 15.1719L24.7775 19.8247Z" fill="white"/>
<path d="M31.5125 22.3953C31.125 22.1431 30.724 21.9125 30.3113 21.7043C29.6883 21.3886 29.0477 21.109 28.3926 20.867C28.3926 20.867 28.3868 20.867 28.3926 20.8589C28.396 20.8548 28.3984 20.85 28.3998 20.8448C28.4012 20.8397 28.4015 20.8343 28.4007 20.829V17.4431C28.4022 17.4339 28.4016 17.4245 28.3988 17.4156C28.396 17.4067 28.3912 17.3986 28.3846 17.392C28.3781 17.3854 28.3701 17.3804 28.3613 17.3774C28.3525 17.3745 28.3431 17.3737 28.3339 17.3751H25.1092C25.0967 17.3768 25.0839 17.3756 25.072 17.3716C25.06 17.3676 25.0491 17.3609 25.0402 17.3519C25.0313 17.343 25.0246 17.3321 25.0205 17.3202C25.0165 17.3082 25.0153 17.2955 25.017 17.283L24.9998 15.2019C24.9998 15.194 25.0029 15.1864 25.0085 15.1807C25.0141 15.1751 25.0218 15.172 25.0297 15.172H34.7222C34.7297 15.1708 34.7374 15.1714 34.7447 15.1738C34.7519 15.1761 34.7585 15.1802 34.7639 15.1856C34.7693 15.1909 34.7733 15.1975 34.7757 15.2048C34.7781 15.212 34.7787 15.2197 34.7775 15.2273V17.3003C34.7772 17.3196 34.7693 17.3381 34.7555 17.3516C34.7417 17.3652 34.7231 17.3728 34.7038 17.3728L31.5643 17.3694C31.5552 17.368 31.5459 17.3688 31.5372 17.3717C31.5285 17.3745 31.5206 17.3794 31.5141 17.3859C31.5076 17.3924 31.5027 17.4003 31.4998 17.4091C31.4969 17.4178 31.4962 17.4271 31.4975 17.4362L31.5125 22.3953Z" fill="white"/>
<path d="M20.2905 19.3906L21.7071 19.4378C22.7386 19.4916 23.7648 19.621 24.7774 19.8248C25.979 20.0692 27.1603 20.4049 28.3108 20.8291C28.3388 20.8406 28.3703 20.8406 28.3983 20.8291C28.3991 20.8343 28.3989 20.8397 28.3975 20.8449C28.3961 20.8501 28.3936 20.8549 28.3902 20.859C28.3902 20.859 28.3902 20.8648 28.3902 20.8671C29.0454 21.1091 29.686 21.3886 30.3089 21.7043C30.7217 21.9125 31.1227 22.1432 31.5101 22.3953C32.477 22.9655 33.3868 23.6273 34.2269 24.3716C34.4796 24.5927 34.7145 24.8334 34.9295 25.0914C35.0339 25.2181 35.0224 25.2296 34.8949 25.126C33.8409 24.2765 32.6966 23.5458 31.4825 22.947C30.4774 22.4713 29.4461 22.053 28.3937 21.694C27.3572 21.3659 26.3004 21.1058 25.23 20.9154C24.2325 20.7315 23.2243 20.6115 22.2115 20.5561C21.4615 20.4875 20.7082 20.4636 19.9554 20.4847C19.8933 20.4907 19.836 20.5204 19.7953 20.5676C19.7015 20.5383 19.603 20.5274 19.5051 20.5354C18.5261 20.5868 17.6585 20.6598 16.9023 20.7542L15.6469 20.9696C14.8239 21.1431 14.0177 21.3442 13.2284 21.573C13.1904 21.5856 13.1562 21.6078 13.1294 21.6375C13.0705 21.6217 13.0086 21.6217 12.9497 21.6375C11.7656 22.0263 10.6109 22.4997 9.49469 23.0541C9.48408 23.0596 9.47533 23.0681 9.46959 23.0785C9.46384 23.089 9.46135 23.101 9.46245 23.1128C9.4372 23.1059 9.41053 23.1059 9.38528 23.1128C8.73804 23.4629 8.10462 23.8372 7.48502 24.2357C7.4686 24.2473 7.455 24.2624 7.44523 24.28C7.43546 24.2975 7.42977 24.317 7.42859 24.3371C7.41363 24.3291 7.39671 24.3255 7.37979 24.3267C7.36288 24.3279 7.34665 24.3339 7.333 24.344C6.50523 24.8966 5.73375 25.5293 5.02964 26.2327C5.02813 26.2345 5.02627 26.2358 5.02419 26.2368C5.0221 26.2377 5.01984 26.2382 5.01755 26.2382C5.01526 26.2382 5.013 26.2377 5.01092 26.2368C5.00883 26.2358 5.00697 26.2345 5.00546 26.2327C5.00374 26.2312 5.00237 26.2294 5.00143 26.2273C5.00049 26.2252 5 26.2229 5 26.2206C5 26.2184 5.00049 26.2161 5.00143 26.214C5.00237 26.2119 5.00374 26.2101 5.00546 26.2085C5.6432 25.4161 6.35214 24.6836 7.12339 24.0204L8.99256 22.6384C9.88552 22.0738 10.8186 21.5754 11.7842 21.1469C12.228 20.9511 12.6818 20.7711 13.1455 20.6068C13.7022 20.4091 14.2722 20.2509 14.8511 20.1335C14.8834 20.1265 14.9133 20.0943 14.9421 20.0356C14.9568 20.0476 14.9737 20.0566 14.9919 20.062C15.0101 20.0673 15.0292 20.0689 15.0481 20.0667C15.7928 19.9016 16.5414 19.7584 17.2938 19.6371C17.3246 19.6313 17.3532 19.6174 17.3768 19.5968C17.4148 19.5622 17.4228 19.5496 17.4033 19.5588L20.2905 19.3906Z" fill="#E70219"/>
<path d="M19.7907 20.5675C19.7652 20.689 19.7317 20.8086 19.6905 20.9257C19.1477 22.2685 18.6037 23.5822 18.0586 24.8667C18.0498 24.8873 18.0353 24.905 18.0167 24.9175C17.998 24.9299 17.9762 24.9367 17.9538 24.937L15.2439 24.9427C15.1782 24.9427 15.1575 24.9116 15.1828 24.8517L16.8977 20.7541C17.654 20.6596 18.5215 20.5867 19.5005 20.5353C19.5984 20.5273 19.6969 20.5382 19.7907 20.5675Z" fill="white"/>
<path d="M22.2068 20.5562C23.2211 20.6113 24.2309 20.7314 25.2299 20.9155L26.8561 24.8427C26.863 24.8595 26.863 24.8784 26.8561 24.8952C26.8492 24.912 26.836 24.9254 26.8193 24.9325C26.8105 24.9341 26.8015 24.9341 26.7928 24.9325H24.0287C24.0025 24.9328 23.9768 24.9251 23.9551 24.9105C23.9333 24.8959 23.9164 24.8751 23.9067 24.8508C23.3577 23.4918 22.8076 22.1328 22.2563 20.7738C22.2279 20.7045 22.2111 20.6309 22.2068 20.5562Z" fill="white"/>
<path d="M15.6469 20.9697C16.0999 22.7648 15.5551 24.0551 14.0126 24.8405C13.5607 25.0547 13.0794 25.2007 12.5846 25.2735C11.1297 25.5331 9.63189 25.3991 8.24619 24.8854C8.06807 24.8179 7.79435 24.6367 7.42505 24.3418C7.42623 24.3218 7.43192 24.3023 7.44169 24.2847C7.45146 24.2672 7.46506 24.2521 7.48148 24.2405C8.10108 23.842 8.7345 23.4677 9.38175 23.1176C9.407 23.1106 9.43366 23.1106 9.45891 23.1176C10.5069 23.5414 11.5323 23.5779 12.535 23.227C13.3389 22.946 13.5362 22.4189 13.127 21.6458C13.1538 21.616 13.188 21.5938 13.226 21.5813C14.0169 21.3479 14.8238 21.144 15.6469 20.9697Z" fill="white"/>
<path d="M8.98223 22.6417L7.11306 24.0237C6.83119 23.6531 6.62746 23.2292 6.51419 22.7776C6.39956 22.3463 6.33275 21.9037 6.31495 21.4578C6.31256 21.4459 6.31308 21.4337 6.31647 21.4221C6.31985 21.4105 6.32599 21.3999 6.33436 21.3912C6.34274 21.3824 6.3531 21.3759 6.36456 21.372C6.37602 21.3682 6.38824 21.3672 6.40017 21.3691H8.70352C8.71996 21.3691 8.73587 21.3749 8.7485 21.3854C8.76112 21.3959 8.76966 21.4105 8.77262 21.4267L8.98223 22.6417Z" fill="white"/>
<path d="M31.4849 22.9469V24.9289C31.4862 24.9385 31.4853 24.9482 31.4822 24.9574C31.4792 24.9666 31.4741 24.9749 31.4673 24.9818C31.4605 24.9887 31.4522 24.994 31.4431 24.9972C31.434 25.0004 31.4242 25.0015 31.4146 25.0003L28.4756 25.013C28.4543 25.013 28.4338 25.0047 28.4185 24.9898C28.4033 24.975 28.3944 24.9548 28.3938 24.9335V21.6938C29.447 22.0527 30.4791 22.4711 31.4849 22.9469Z" fill="white"/>
<circle cx="20" cy="20" r="19.5" stroke="black" stroke-opacity="0.05"/>
</svg>
