<svg width="40" height="40" viewBox="0 0 40 40" fill="none" xmlns="http://www.w3.org/2000/svg">
<circle cx="20" cy="20" r="20" fill="#542D6E"/>
<path d="M28.5538 23.7059C28.6411 23.5794 28.7218 23.4485 28.7955 23.3137C28.8739 23.1781 28.9433 23.0376 29.0032 22.8929L29.7195 21.191L28.266 20.5538L27.5606 22.1612L25.3995 18.8585C25.8071 18.6025 26.1455 18.3718 26.4092 18.1729C26.6197 18.0186 26.8201 17.8509 27.0091 17.6708C27.4828 17.1656 27.7406 16.4955 27.7276 15.803C27.7328 15.4311 27.6586 15.0624 27.5101 14.7214C27.3615 14.3804 27.1421 14.0749 26.8662 13.8254C26.34 13.287 25.6632 13.0145 24.8523 13.0145C24.4837 13.0122 24.118 13.0796 23.7745 13.2134C23.4293 13.3516 23.1165 13.56 22.856 13.8254C22.5974 14.0853 22.3928 14.3939 22.254 14.7334C22.1152 15.0728 22.045 15.4363 22.0474 15.803C22.0604 16.2859 22.1896 16.7585 22.4242 17.1808C22.4605 17.2533 22.5429 17.3906 22.667 17.5917C22.7912 17.7928 22.9681 18.0608 23.1988 18.3948C22.2946 18.9717 21.6277 19.51 21.2146 19.9934C21.1278 20.0923 21.0476 20.1945 20.9728 20.2989L20.9597 20.3143C19.9917 21.2569 18.9271 21.5371 17.5713 21.5371C16.2545 21.5296 14.9936 21.0034 14.0622 20.0726C13.1307 19.1417 12.6037 17.8812 12.5953 16.5644C12.6028 15.2476 13.1292 13.9868 14.0604 13.0557C14.9915 12.1246 16.2523 11.5981 17.5691 11.5906C18.2196 11.5797 18.8655 11.7017 19.4673 11.9492C20.069 12.1967 20.6138 12.5645 21.0684 13.0299L21.0838 13.0442L22.2232 11.9455L22.2374 11.9301L22.2232 11.9147C20.9852 10.6853 19.3102 9.99672 17.5655 10C15.8207 10.0033 14.1484 10.6982 12.915 11.9323C11.6449 13.2277 11 14.7889 11 16.5688C11 18.3487 11.6449 19.9165 12.915 21.224C13.7876 22.1099 14.8974 22.7249 16.1111 22.9951C16.0463 23.0522 15.9826 23.1115 15.92 23.1742C15.5488 23.5458 15.2544 23.9868 15.0537 24.4722C14.853 24.9575 14.7499 25.4777 14.7502 26.0029C14.7508 27.0636 15.1728 28.0806 15.9232 28.8302C16.6737 29.5798 17.6912 30.0006 18.752 30C19.8127 29.9994 20.8297 29.5774 21.5793 28.8269L21.7024 28.7039L20.8003 27.8381L20.6828 27.948C20.4297 28.2027 20.128 28.4041 19.7957 28.5402C19.4633 28.6763 19.1071 28.7442 18.748 28.7401C18.2042 28.7415 17.6722 28.581 17.22 28.2791C16.7677 27.9771 16.4155 27.5473 16.2084 27.0445C16.0012 26.5417 15.9484 25.9886 16.0567 25.4557C16.165 24.9227 16.4295 24.4341 16.8165 24.052C17.0654 23.7917 17.3655 23.5857 17.6979 23.4471C18.0304 23.3085 18.3879 23.2403 18.748 23.2467C19.4101 23.2449 20.0503 23.4835 20.5498 23.918C20.5762 23.9465 20.7245 24.1026 20.7828 24.1784C20.9593 24.493 21.1765 24.783 21.4288 25.0408C21.7771 25.4023 22.1954 25.6891 22.6582 25.8834C23.121 26.0778 23.6186 26.1758 24.1206 26.1714C25.341 26.1747 26.5225 25.7418 27.4518 24.9507L28.01 25.8396L28.0166 25.8506H29.9404L28.5538 23.7059ZM23.9844 14.9416C24.0941 14.8278 24.2262 14.738 24.3724 14.6779C24.5186 14.6177 24.6756 14.5886 24.8337 14.5923C25.1678 14.5909 25.4894 14.7198 25.7302 14.9515C25.8524 15.0603 25.9499 15.1939 26.0162 15.3434C26.0826 15.4929 26.1161 15.6548 26.1147 15.8184C26.1147 16.2733 25.8851 16.6446 25.4302 16.9248L24.537 17.5027L23.8701 16.4853C23.7247 16.2798 23.6454 16.0349 23.6427 15.7832C23.6406 15.6273 23.6698 15.4724 23.7284 15.3279C23.7871 15.1834 23.8741 15.052 23.9844 14.9416ZM24.1206 24.575C23.8284 24.5817 23.5382 24.5251 23.2699 24.4093C23.0016 24.2934 22.7615 24.1209 22.566 23.9037C22.3544 23.697 22.1873 23.4493 22.0749 23.1757C21.9625 22.9021 21.9071 22.6085 21.9122 22.3128C21.9122 21.7503 22.1495 21.2339 22.6198 20.7746C22.7933 20.6088 22.9804 20.4577 23.179 20.323C23.4152 20.1549 23.7108 19.9528 24.058 19.7188L26.5707 23.5939C25.9124 24.2267 25.0337 24.5785 24.1206 24.575Z" fill="white"/>
<circle cx="20" cy="20" r="19.5" stroke="black" stroke-opacity="0.05"/>
</svg>
