<svg width="40" height="40" viewBox="0 0 40 40" fill="none" xmlns="http://www.w3.org/2000/svg">
<circle cx="20" cy="20" r="20" fill="#F6F8FA"/>
<path d="M19.7363 14.8114C19.7151 14.7832 19.6841 14.7647 19.6499 14.76C19.6156 14.7553 19.581 14.7646 19.5534 14.786L14.3032 18.9161C13.5904 19.4637 12.8795 20.0275 12.1706 20.6073C12.1101 20.6618 12.0628 20.7301 12.0322 20.8066L15.5296 23.5512L18.708 21.0144C18.9625 20.832 19.2075 20.6411 19.4455 20.4418C19.6835 20.2425 19.7574 20.0975 19.7574 19.7883C19.7574 18.1583 19.7574 16.5271 19.7574 14.8947C19.7593 14.8653 19.7519 14.836 19.7363 14.8114Z" fill="url(#paint0_linear_17752_43753)"/>
<path d="M12.0317 20.8054C12.0156 20.8887 12.005 20.9731 12 21.0579C12 22.6734 12 24.2893 12 25.9055C12 26.1471 12.1219 26.3658 12.3658 26.5615C13.5038 27.4683 14.6337 28.3574 15.7553 29.2287C17.0262 30.2313 18.2838 31.2203 19.5282 32.1955C19.6161 32.2644 19.6853 32.262 19.738 32.1955C19.7484 32.1817 19.7542 32.1647 19.7545 32.1472V27.0676C19.7544 26.9888 19.7367 26.9111 19.7028 26.8405C19.6688 26.7699 19.6195 26.7083 19.5587 26.6605L12.0317 20.8054Z" fill="url(#paint1_linear_17752_43753)"/>
<path d="M26.05 15.5556L24.0569 17.1405L20.6123 14.4153C20.645 14.2362 20.7375 14.0747 20.8738 13.9586C21.1942 13.6687 21.5327 13.3832 21.8891 13.1022L28.2906 8.06246C28.4301 7.95253 28.5004 7.98756 28.5004 8.16876V12.3448C28.5016 12.8835 28.4324 13.5769 28.0103 13.9236C27.353 14.4656 26.6996 15.0096 26.05 15.5556Z" fill="url(#paint2_linear_17752_43753)"/>
<path d="M22.9775 24.8934L21.7559 25.8598C21.4432 26.0965 21.1306 26.3409 20.8179 26.593C20.742 26.6516 20.681 26.7282 20.6402 26.8163C20.5993 26.9045 20.5799 27.0015 20.5834 27.0992C20.603 28.7799 20.603 30.4509 20.5834 32.1123C20.5831 32.1386 20.5901 32.1645 20.6034 32.187C20.6168 32.2094 20.636 32.2276 20.6589 32.2393C20.6817 32.251 20.7074 32.2559 20.7328 32.2533C20.7582 32.2507 20.7825 32.2408 20.8027 32.2246L25.4185 28.6224L26.5781 27.714L28.4422 26.2089L24.8534 23.4148L22.9775 24.8934Z" fill="url(#paint3_linear_17752_43753)"/>
<path d="M28.0557 20.3103L20.6119 14.4153C20.6034 14.4631 20.5991 14.5116 20.599 14.5602C20.6084 16.3392 20.6084 18.0662 20.599 19.7413C20.5958 19.8328 20.6128 19.9238 20.6488 20.0075C20.6847 20.0912 20.7387 20.1654 20.8065 20.2245L24.8549 23.4136L28.4437 26.2077C28.45 24.5761 28.45 22.9787 28.4437 21.4156C28.4414 20.8321 28.4801 20.6509 28.0557 20.3103Z" fill="url(#paint4_linear_17752_43753)"/>
<circle cx="20" cy="20" r="19.5" stroke="black" stroke-opacity="0.05"/>
<defs>
<linearGradient id="paint0_linear_17752_43753" x1="12.4853" y1="21.4999" x2="16.9322" y2="18.6225" gradientUnits="userSpaceOnUse">
<stop stop-color="#0730A4"/>
<stop offset="1" stop-color="#06A6BC"/>
</linearGradient>
<linearGradient id="paint1_linear_17752_43753" x1="18.3087" y1="28.9999" x2="13.3853" y2="22.4575" gradientUnits="userSpaceOnUse">
<stop stop-color="#0730A4"/>
<stop offset="1" stop-color="#06A6BC"/>
</linearGradient>
<linearGradient id="paint2_linear_17752_43753" x1="27.5295" y1="14.5" x2="24.031" y2="17.8955" gradientUnits="userSpaceOnUse">
<stop stop-color="#99F92F"/>
<stop offset="1" stop-color="#5D821B"/>
</linearGradient>
<linearGradient id="paint3_linear_17752_43753" x1="29.4697" y1="27" x2="24.6221" y2="30.5072" gradientUnits="userSpaceOnUse">
<stop stop-color="#5D821B"/>
<stop offset="1" stop-color="#99F92F"/>
</linearGradient>
<linearGradient id="paint4_linear_17752_43753" x1="27.0438" y1="21" x2="19.06" y2="21.7934" gradientUnits="userSpaceOnUse">
<stop stop-color="#99F92F"/>
<stop offset="1" stop-color="#5D821B"/>
</linearGradient>
</defs>
</svg>
