<svg width="40" height="40" viewBox="0 0 40 40" fill="none" xmlns="http://www.w3.org/2000/svg">
<circle cx="20" cy="20" r="20" fill="#F6F8FA"/>
<path d="M9.91948 16.8645C10.0572 16.4093 10.3399 16.0696 10.7598 15.8489C10.9378 15.7556 11.1189 15.6491 11.3366 15.6796C11.2356 15.7933 11.2398 15.7891 11.3631 15.9123C11.6103 16.1587 11.8738 16.3878 12.121 16.6336C12.7285 17.2377 13.3559 17.8221 13.9694 18.4202C14.601 19.0357 15.2398 19.644 15.8708 20.2594C16.4699 20.8438 17.0816 21.415 17.6771 22.003C17.9105 22.2332 18.1523 22.4575 18.3863 22.6878C18.432 22.7327 18.4795 22.7584 18.5439 22.7518C18.5535 22.7656 18.5577 22.7805 18.5559 22.7973C18.539 23.2363 18.6437 23.6645 18.6618 24.1006C18.7369 24.1831 18.8506 24.0874 18.9288 24.158C18.8344 24.2417 18.7015 24.1658 18.6034 24.2357C18.5836 24.2477 18.5625 24.2567 18.539 24.2591C18.1661 24.2351 17.7938 24.2112 17.4209 24.1861C17.4028 24.1849 17.3848 24.1711 17.3673 24.1634C17.4347 24.0916 17.5321 24.1502 17.6091 24.1095C17.6103 24.0503 17.5586 24.027 17.5261 23.9941C16.6233 23.0838 15.6771 22.2177 14.7652 21.3157C14.2371 20.7936 13.6975 20.2822 13.1568 19.7726C12.746 19.3856 12.3598 18.9747 11.9448 18.5937C11.3306 18.0297 10.7357 17.4471 10.1456 16.8591C10.1035 16.8173 10.0578 16.7778 10.026 16.7228C10.0284 16.7066 10.0025 16.7317 10.0211 16.724C10.0284 16.721 10.0308 16.7252 10.0278 16.7377C9.99227 16.8866 9.98986 16.8902 9.91527 16.9279C9.90986 16.9064 9.91227 16.8849 9.92009 16.8645H9.91948Z" fill="#767DB1"/>
<path d="M19.9501 32.7044C19.3859 32.5794 18.8067 32.0046 18.7164 31.4795C18.8891 31.3898 19.0046 31.2348 19.1375 31.1021C20.7429 29.5063 22.3495 27.9123 23.9634 26.3249C24.5961 25.7028 25.2229 25.0754 25.8605 24.4581C25.9068 24.4133 25.9459 24.3601 26.0079 24.3337C26.0217 24.3278 26.0349 24.3289 26.0476 24.3385C26.5859 24.5347 26.9366 24.9121 27.1279 25.4438C27.1459 25.4815 27.182 25.5138 27.1646 25.5623C27.1459 25.5754 27.1195 25.576 27.111 25.5593C27.0268 25.3864 26.957 25.4995 26.8867 25.5694C24.6948 27.7502 22.5023 29.9303 20.3116 32.1123C20.1841 32.2391 20.0367 32.3432 19.9146 32.4759C19.8888 32.504 19.8412 32.528 19.8533 32.5716C19.8671 32.6225 19.9237 32.6201 19.9658 32.6291C20.0391 32.644 20.1155 32.6458 20.1841 32.6787C20.2124 32.6925 20.2575 32.711 20.1985 32.7469C20.1119 32.7547 20.0295 32.7343 19.9495 32.7044H19.9501Z" fill="#76C1BD"/>
<path d="M18.7137 8.26397C18.8497 7.80701 19.1444 7.48043 19.5595 7.25734C19.6623 7.20171 19.7628 7.12874 19.8903 7.13352C19.8987 7.14608 19.8993 7.15924 19.8927 7.173C19.8241 7.22563 19.8518 7.27109 19.9005 7.31954C20.1381 7.554 20.3661 7.79923 20.6133 8.02353C21.0777 8.4464 21.518 8.89379 21.9775 9.32085C22.591 9.89086 23.1685 10.4968 23.7892 11.0584C24.155 11.3891 24.5008 11.742 24.8491 12.0913C25.2467 12.4897 25.6725 12.8587 26.0725 13.2547C26.3841 13.5633 26.6993 13.8672 27.0217 14.165C27.0584 14.1985 27.0945 14.2338 27.1071 14.2852C27.0783 14.4952 26.9664 14.6668 26.8539 14.8391C26.6374 15.1705 26.33 15.3816 25.9571 15.5048C25.9474 15.4928 25.9456 15.4797 25.9492 15.4653C26.0467 15.4103 26.0497 15.3553 25.9649 15.2781C25.6046 14.9492 25.2707 14.5921 24.9014 14.2721C24.8485 14.226 24.7992 14.177 24.7504 14.1273C23.8662 13.229 22.9315 12.3814 22.0346 11.495C21.518 10.9842 20.9946 10.4782 20.4605 9.98536C20.0683 9.6235 19.7026 9.23472 19.3134 8.87106C19.1101 8.68086 18.8936 8.50441 18.7192 8.2855C18.7173 8.27892 18.7149 8.27175 18.7131 8.26517L18.7137 8.26397Z" fill="#E17374"/>
<path d="M9.9233 16.9307C9.98746 16.7704 10.0829 16.752 10.2096 16.8757C10.7341 17.3864 11.2508 17.9062 11.7868 18.405C12.185 18.7753 12.5567 19.1718 12.9555 19.5409C13.5185 20.0618 14.0605 20.6043 14.6132 21.1361C15.2707 21.7677 15.9191 22.4083 16.5856 23.0303C16.9284 23.3503 17.2544 23.6864 17.5931 24.0094C17.6304 24.0453 17.6833 24.0734 17.6899 24.1488C17.5805 24.1536 17.474 24.1584 17.3669 24.1637C17.2478 24.1625 17.1287 24.1613 17.0102 24.1601C16.8424 24.1261 16.6728 24.1488 16.5044 24.1464C16.1994 24.1422 15.8938 24.1422 15.5889 24.1464C15.4758 24.1482 15.3886 24.1111 15.3086 24.0322C14.6728 23.4053 14.0262 22.7899 13.3868 22.1672C12.422 21.2276 11.4559 20.2897 10.4851 19.3561C10.3095 19.1868 10.1344 19.0163 9.95578 18.85C9.89864 18.7968 9.85052 18.7376 9.85172 18.6592C9.86255 18.1329 9.81924 17.6054 9.87819 17.0796C9.88601 17.0276 9.86195 16.9666 9.9233 16.9307Z" fill="#2E3889"/>
<path d="M18.5053 22.7571C18.4873 22.8516 18.4476 22.7959 18.4181 22.7678C18.3315 22.6847 18.2485 22.5986 18.1625 22.5154C17.5171 21.8934 16.8759 21.2665 16.2244 20.6511C15.8076 20.2575 15.4088 19.8466 14.9913 19.4542C14.3237 18.8262 13.671 18.1826 13.0124 17.5456C12.4223 16.9744 11.825 16.4104 11.2307 15.8434C11.2031 15.8171 11.1531 15.7997 11.1664 15.7525C11.179 15.7064 11.2271 15.71 11.2668 15.704C11.2903 15.7004 11.3119 15.6879 11.3342 15.6789C11.342 15.6765 11.3504 15.6747 11.3589 15.6729C11.4148 15.6442 11.4749 15.6478 11.5351 15.6478C12.1204 15.6478 12.705 15.6502 13.2897 15.646C13.4202 15.6448 13.5207 15.6879 13.6091 15.7788C14.0584 16.2388 14.545 16.6604 15.01 17.1048C15.6981 17.7628 16.3941 18.4117 17.0918 19.0595C17.508 19.4459 17.905 19.8532 18.3387 20.2216C18.468 20.3317 18.5246 20.4645 18.5222 20.6403C18.5138 21.2917 18.5186 21.9436 18.5186 22.595C18.5186 22.6494 18.5228 22.7044 18.5053 22.7577V22.7571Z" fill="#2E3889"/>
<path d="M27.0981 14.277C26.813 14.0132 26.5182 13.7596 26.2458 13.4838C25.7946 13.0269 25.3152 12.5992 24.8569 12.1506C24.3865 11.6907 23.9227 11.2236 23.4397 10.7774C23.0439 10.4119 22.677 10.0171 22.2812 9.65229C21.7645 9.17679 21.2755 8.67257 20.7582 8.19827C20.4454 7.91177 20.1519 7.60673 19.8445 7.31544C19.7555 7.23111 19.7447 7.17548 19.8902 7.16352C19.9221 7.12703 19.9775 7.13959 20.0112 7.1055C20.019 7.10131 20.028 7.09952 20.037 7.10131C20.3847 7.04928 20.7348 7.08337 21.0836 7.07619C21.3387 7.07081 21.5937 7.07679 21.8487 7.0744C21.9294 7.0738 21.9925 7.09832 22.0515 7.15216C22.3787 7.45181 22.6866 7.77181 23.0163 8.06847C23.4608 8.46921 23.8788 8.89687 24.3215 9.29821C24.5946 9.54583 24.8533 9.8096 25.1215 10.0626C25.7555 10.6619 26.3781 11.2726 27.0253 11.8576C27.1456 11.9664 27.1943 12.0848 27.1907 12.2487C27.1805 12.7655 27.1865 13.2829 27.1871 13.8003C27.1871 13.9187 27.1793 14.0365 27.1576 14.1531C27.1354 14.1854 27.133 14.2267 27.1107 14.259C27.1071 14.2644 27.1029 14.2698 27.0993 14.2752L27.0981 14.277Z" fill="#D83831"/>
<path d="M26.0105 24.3457C25.9641 24.3971 25.9196 24.4509 25.8709 24.5C25.3302 25.0389 24.7984 25.5862 24.2462 26.1131C23.0156 27.2872 21.836 28.5116 20.615 29.6952C20.0261 30.2658 19.4559 30.855 18.8664 31.4256C18.8261 31.4645 18.7918 31.5273 18.7178 31.4812C18.6847 31.3742 18.6504 31.2677 18.6595 31.1535C18.6384 31.1218 18.6474 31.0859 18.6474 31.0518C18.6474 30.5147 18.6486 29.977 18.6456 29.4398C18.6456 29.3483 18.6721 29.279 18.7371 29.2144C19.5196 28.438 20.2889 27.6479 21.0859 26.8871C21.6598 26.3392 22.2095 25.768 22.7846 25.2219C23.0883 24.9336 23.3753 24.6286 23.6808 24.3421C23.7452 24.2817 23.8156 24.2404 23.9058 24.2374C24.4044 24.2374 24.9031 24.2326 25.4017 24.2398C25.6086 24.2428 25.8192 24.2458 26.0111 24.3463L26.0105 24.3457Z" fill="#4AA29A"/>
<path d="M9.8918 17.0808C9.84368 17.5665 9.87616 18.054 9.86353 18.5408C9.85992 18.6671 9.90804 18.7526 9.99827 18.8381C10.4428 19.2586 10.8831 19.6839 11.3222 20.1103C12.1336 20.8986 12.942 21.6894 13.7529 22.4783C14.0067 22.7253 14.2611 22.9711 14.5162 23.2163C14.8031 23.4927 15.0924 23.7672 15.3775 24.0459C15.4443 24.1111 15.5195 24.1285 15.6085 24.1285C16.0187 24.1261 16.429 24.1267 16.8392 24.1285C16.8969 24.1285 16.9607 24.1093 17.0094 24.1602C16.4302 24.1602 15.8509 24.159 15.2717 24.1602C14.0127 24.162 12.7538 24.1662 11.4948 24.1644C11.2332 24.1644 10.9835 24.104 10.7628 23.9532C10.8163 23.9114 10.8692 23.9401 10.9186 23.9598C11.173 24.0633 11.4389 24.0932 11.7114 24.092C12.1565 24.0896 12.6016 24.092 13.0467 24.0908C13.1002 24.0908 13.1562 24.1034 13.235 24.0615C12.1336 22.9992 11.0545 21.9286 9.94413 20.8885C9.88639 20.9303 9.90564 20.9842 9.90564 21.029C9.90383 21.4764 9.90504 21.9244 9.90443 22.3718C9.90443 22.4472 9.92007 22.5201 9.92669 22.5943C9.93331 22.6715 9.95616 22.7534 9.8912 22.8204C9.84007 22.7253 9.83286 22.6218 9.83286 22.5171C9.83286 20.7515 9.83286 18.9864 9.83406 17.2208C9.83406 17.1724 9.82022 17.1209 9.85451 17.0767C9.86895 17.0641 9.88098 17.0659 9.8918 17.0814V17.0808Z" fill="#767DB1"/>
<path d="M27.2171 31.2094C27.1978 31.2794 27.1786 31.35 27.1593 31.42C27.1034 31.3613 27.1208 31.2902 27.1268 31.222C27.1756 30.6765 27.1413 30.1304 27.1461 29.5849C27.1461 29.5742 27.1401 29.5658 27.1238 29.5526C27.0294 29.6178 26.947 29.701 26.8628 29.7811C25.9816 30.6179 25.1262 31.481 24.2637 32.3363C24.1398 32.4589 23.9972 32.5606 23.8775 32.6886C23.8426 32.7263 23.7987 32.7496 23.7446 32.7478C23.0895 32.7478 22.4351 32.7478 21.7807 32.7478C21.6351 32.7137 21.7488 32.6497 21.7753 32.621C21.9136 32.4709 22.061 32.3285 22.2083 32.1867C22.6565 31.7537 23.1028 31.3189 23.5455 30.8805C23.8859 30.5437 24.2306 30.2124 24.5765 29.881C25.1491 29.3325 25.7019 28.7625 26.2673 28.2069C26.4947 27.9832 26.7238 27.7613 26.9572 27.5441C27.0883 27.4221 27.1611 27.2905 27.1539 27.1009C27.1401 26.7385 27.1455 26.3748 27.1521 26.0112C27.1545 25.8838 27.0823 25.7576 27.1461 25.6296C27.1581 25.6164 27.1714 25.6158 27.1852 25.6272C27.1852 25.6361 27.187 25.6451 27.1888 25.6541C27.2297 25.7629 27.2327 25.8754 27.2327 25.9902C27.2315 27.6763 27.2321 29.363 27.2309 31.0491C27.2309 31.1024 27.2459 31.1586 27.2159 31.2094H27.2171Z" fill="#76C1BD"/>
<path d="M18.533 15.2334C18.5661 14.8524 18.6058 14.4731 18.6052 14.0892C18.601 12.3343 18.6034 10.5794 18.6034 8.82451C18.6034 8.70548 18.5962 8.58526 18.6545 8.47461C18.6606 8.4788 18.6672 8.48358 18.6732 8.48777C18.7087 8.54698 18.6979 8.61337 18.6985 8.67737C18.6997 9.17441 18.7009 9.67145 18.6973 10.1691C18.6966 10.2821 18.7327 10.3665 18.8121 10.4466C19.2049 10.8432 19.6254 11.2116 20.02 11.6058C20.3478 11.9329 20.6798 12.2565 21.0167 12.5741C21.5827 13.1076 22.1192 13.6711 22.687 14.201C23.0949 14.582 23.475 14.9911 23.8979 15.3566C23.9466 15.399 23.9959 15.4427 24.0272 15.5001C24.0531 15.5468 24.044 15.5767 23.9827 15.5737C23.315 15.5737 22.6473 15.5737 21.9803 15.5737C21.9021 15.5737 21.8546 15.5205 21.8046 15.472C21.0167 14.7016 20.2112 13.9504 19.4287 13.1746C19.1995 12.9473 18.9595 12.7296 18.7243 12.4976C18.6876 12.5442 18.7015 12.5891 18.7015 12.6297C18.7003 12.9731 18.7003 13.3164 18.7015 13.6591C18.7027 14.1466 18.6852 14.6322 18.6166 15.1155C18.6028 15.2142 18.6136 15.3141 18.6106 15.4134C18.6088 15.4726 18.6179 15.5336 18.58 15.5868C18.5655 15.5976 18.5505 15.5994 18.5342 15.5922C18.4783 15.5276 18.4891 15.4565 18.512 15.3835L18.5144 15.3781C18.5421 15.3326 18.515 15.2806 18.5336 15.234L18.533 15.2334Z" fill="#E17374"/>
<path d="M27.1581 14.1552C27.1581 13.4991 27.1563 12.8424 27.1605 12.1862C27.1611 12.0881 27.1316 12.0182 27.0606 11.9518C26.5945 11.5104 26.1247 11.0731 25.6609 10.6287C25.2231 10.2083 24.7894 9.78299 24.3406 9.37388C23.8961 8.96835 23.4775 8.53711 23.0264 8.13756C22.6955 7.84449 22.3906 7.5221 22.067 7.21945C21.9858 7.14349 21.9076 7.10342 21.7915 7.10401C21.2068 7.1088 20.6221 7.10401 20.0375 7.10282C20.1193 7.05736 20.2077 7.05078 20.2979 7.05078C22.0297 7.05078 23.7614 7.05078 25.4931 7.05198C25.5671 7.05198 25.6411 7.06872 25.7151 7.0771C25.7259 7.09205 25.7247 7.10581 25.7109 7.11777C25.6513 7.15426 25.5852 7.14469 25.5208 7.14469C25.131 7.14588 24.7412 7.14469 24.3515 7.14528C24.3033 7.14528 24.2546 7.1393 24.1812 7.15545C25.1575 8.0939 26.1337 9.00185 27.1172 9.94867C27.119 9.79316 27.1178 9.66696 27.1184 9.54015C27.1184 9.24708 27.1172 8.9534 27.119 8.66032C27.119 8.59752 27.1046 8.52933 27.1593 8.4773C27.1966 8.58017 27.2146 8.68664 27.2146 8.79609C27.2146 10.4762 27.2146 12.1557 27.2146 13.8358C27.2146 13.9453 27.1996 14.0524 27.1581 14.154V14.1552Z" fill="#E17374"/>
<path d="M23.8559 24.2511C23.5629 24.4604 23.338 24.741 23.0829 24.9898C22.541 25.5191 22.0116 26.061 21.4613 26.5814C20.5494 27.4451 19.6748 28.3458 18.7762 29.2227C18.6949 29.3016 18.6601 29.3812 18.6607 29.496C18.6649 30.0475 18.6595 30.5995 18.6577 31.151C18.6137 31.099 18.633 31.0362 18.633 30.9787C18.6318 29.4769 18.624 27.9756 18.6354 26.4737C18.6408 25.7326 18.5933 24.9958 18.5374 24.2583C18.5482 24.2457 18.559 24.2338 18.5698 24.2212C18.63 24.4359 18.6504 24.6566 18.6685 24.8779C18.7274 25.5921 18.6877 26.308 18.6992 27.0234C18.6992 27.0575 18.6962 27.0928 18.7106 27.1227C18.7515 27.1454 18.7695 27.1131 18.7888 27.0952C19.7307 26.2052 20.6396 25.2817 21.5611 24.3707C21.608 24.3241 21.6213 24.2397 21.7079 24.2349C22.4098 24.2589 23.1118 24.2583 23.8138 24.2361C23.83 24.2361 23.842 24.2439 23.8553 24.2511H23.8559Z" fill="#76C1BD"/>
<path d="M18.5066 22.757C18.4681 22.7085 18.4843 22.6517 18.4843 22.5985C18.4831 21.9417 18.4771 21.2844 18.4879 20.6277C18.4903 20.4638 18.4296 20.3531 18.3171 20.2538C17.9514 19.9302 17.6049 19.5857 17.2482 19.2526C16.5457 18.5976 15.8455 17.9403 15.149 17.2788C14.6257 16.7817 14.0958 16.2913 13.5724 15.7948C13.4876 15.7141 13.401 15.6734 13.2807 15.674C12.6407 15.6776 12.0001 15.674 11.3601 15.6728C11.407 15.5933 11.4852 15.6256 11.5496 15.6256C12.7995 15.6286 14.05 15.6483 15.3 15.6352C16.02 15.6274 16.74 15.6399 17.4594 15.6154C17.6218 15.5951 17.783 15.5598 17.9484 15.5741C18.0152 15.628 17.9442 15.6375 17.9195 15.6471C17.8251 15.683 17.7246 15.6854 17.6242 15.689C17.0149 15.7111 16.4061 15.7267 15.7962 15.7183C15.7715 15.7183 15.7463 15.7153 15.706 15.7422C16.607 16.5957 17.5075 17.4439 18.4332 18.3034C18.4452 18.1562 18.4362 18.0336 18.4404 17.911C18.4494 17.6131 18.4176 17.3141 18.4615 17.0174C18.4681 16.9737 18.4693 16.9253 18.5012 16.8912C18.5349 16.8541 18.5493 16.8804 18.5559 16.9157C18.5559 17.1095 18.5541 17.3033 18.5553 17.4971C18.5595 18.3572 18.5234 19.2173 18.5427 20.0774C18.5613 20.9177 18.5511 21.7581 18.5547 22.5979C18.5547 22.6505 18.574 22.7073 18.5361 22.7564C18.5264 22.7564 18.5168 22.7564 18.5072 22.757H18.5066Z" fill="#767DB1"/>
<path d="M18.5675 15.5852C18.6391 14.5409 18.6824 13.496 18.6601 12.4493C18.6601 12.4403 18.6656 12.4313 18.6686 12.4212C18.7131 12.4092 18.7293 12.4481 18.7522 12.4702C19.2129 12.9164 19.6719 13.365 20.1332 13.8106C20.6734 14.3316 21.2165 14.8495 21.7567 15.3705C21.8168 15.4285 21.8866 15.48 21.9275 15.5559C21.877 15.59 21.8205 15.5727 21.7675 15.5727C21.1726 15.5739 20.5783 15.5649 19.9841 15.5769C19.6015 15.5846 19.2207 15.6307 18.8406 15.6791C18.7708 15.6791 18.701 15.6791 18.6313 15.6791C18.5627 15.6803 18.5561 15.6397 18.5669 15.5858L18.5675 15.5852Z" fill="#D83831"/>
<path d="M9.88993 22.8203C9.85023 22.221 9.86647 21.6205 9.86587 21.0199C9.86587 20.9488 9.82617 20.8423 9.89835 20.8136C9.96753 20.7861 10.012 20.8914 10.0632 20.9404C10.4505 21.3124 10.8271 21.6964 11.2235 22.0583C11.6872 22.4823 12.1173 22.9387 12.5702 23.3724C12.7928 23.5859 13.0178 23.797 13.2397 24.0105C13.2662 24.0363 13.3179 24.0584 13.2981 24.1033C13.2788 24.1463 13.2265 24.126 13.1892 24.126C12.6298 24.1272 12.0704 24.126 11.5104 24.1272C11.2469 24.1272 11.0081 24.0261 10.7621 23.9525C10.3038 23.7025 10.0144 23.3239 9.88993 22.8197V22.8203Z" fill="#2E3889"/>
<path d="M23.7959 32.7317C23.9114 32.5732 24.0762 32.4655 24.2133 32.3297C24.8401 31.7095 25.4567 31.0785 26.093 30.4684C26.4269 30.1484 26.7541 29.8224 27.0897 29.5042C27.1066 29.4881 27.1336 29.4665 27.1499 29.4701C27.1824 29.4785 27.1854 29.5144 27.1848 29.5449C27.1697 30.1053 27.2167 30.6664 27.1601 31.2262C27.1535 31.2902 27.1583 31.3554 27.1583 31.4194C26.9712 32.0899 26.54 32.5169 25.8663 32.703C25.7911 32.7323 25.7135 32.7472 25.6329 32.7472C25.044 32.7472 24.4557 32.7472 23.8669 32.7472C23.8416 32.7472 23.817 32.7478 23.7959 32.7311V32.7317Z" fill="#4AA29A"/>
<path d="M21.6604 24.2513C21.7043 24.3142 21.6459 24.3405 21.6141 24.3722C20.8682 25.115 20.1265 25.8621 19.3722 26.5954C19.1798 26.7826 18.9843 26.9674 18.7894 27.1528C18.7617 27.1785 18.7383 27.2318 18.6962 27.2138C18.6474 27.1929 18.6649 27.1355 18.6649 27.0924C18.6637 26.5404 18.6613 25.9877 18.6631 25.4356C18.6643 25.0283 18.5825 24.6282 18.571 24.222C18.6715 24.0988 18.811 24.1903 18.9277 24.158C19.2507 24.1479 19.5683 24.2298 19.8913 24.222C19.9587 24.2508 20.0291 24.2352 20.0977 24.2352C20.5704 24.237 21.0426 24.2352 21.5154 24.237C21.5641 24.237 21.6153 24.2226 21.661 24.2519L21.6604 24.2513Z" fill="#4AA29A"/>
<path d="M18.5666 15.5855C18.5882 15.6167 18.6093 15.6478 18.6309 15.6789C18.6394 15.8888 18.6207 16.0969 18.5985 16.3051C18.5588 16.4851 18.5521 16.6681 18.5527 16.8518C18.5485 16.8589 18.5449 16.8667 18.5407 16.8739C18.4956 16.9798 18.4824 17.0904 18.4824 17.2041C18.4824 17.5916 18.4824 17.9792 18.4824 18.4117C17.5061 17.4941 16.5569 16.6029 15.6066 15.7106C15.6505 15.6633 15.6878 15.6777 15.7197 15.6777C16.3639 15.6866 17.0081 15.6687 17.6523 15.6472C17.7612 15.6436 17.87 15.6406 17.9711 15.5915C18.1575 15.5682 18.3428 15.5036 18.5323 15.5754C18.5437 15.5784 18.5551 15.582 18.566 15.5849L18.5666 15.5855Z" fill="#2E388A"/>
<path d="M27.1591 8.479V10.0413C26.1245 9.05857 25.1164 8.10158 24.1083 7.14459C24.1113 7.13083 24.1149 7.11708 24.1179 7.10392H25.7203C25.9146 7.0764 26.0752 7.1727 26.2358 7.25345C26.5576 7.41494 26.815 7.64761 26.9769 7.97538C27.0599 8.13567 27.1212 8.30315 27.1597 8.47959L27.1591 8.479Z" fill="#D83831"/>
<path d="M18.5338 22.757C18.5344 22.0064 18.5555 21.2552 18.5302 20.5051C18.5092 19.8789 18.4995 19.2526 18.52 18.6282C18.5398 18.0433 18.5146 17.4583 18.5398 16.8739C18.5452 16.8632 18.5531 16.8602 18.5633 16.8668C18.5651 17.3781 18.5681 17.8901 18.5687 18.4015C18.5693 19.9273 18.5657 21.4525 18.5729 22.9783C18.5741 23.2283 18.6264 23.4784 18.6487 23.7284C18.6595 23.8516 18.6559 23.976 18.6589 24.0998C18.6174 23.9533 18.618 23.8013 18.5976 23.6524C18.5567 23.3552 18.529 23.0567 18.5338 22.7564V22.757Z" fill="#D4D6E6"/>
<path d="M21.66 24.251C21.1217 24.251 20.5833 24.2516 20.045 24.251C19.9926 24.251 19.9343 24.2713 19.8904 24.2217C19.9403 24.2199 19.9902 24.2163 20.0402 24.2163C21.835 24.2163 23.6299 24.2163 25.4242 24.2163C25.6402 24.2163 25.8513 24.2402 26.048 24.3383C26.0354 24.3401 26.0221 24.3425 26.0095 24.3443C25.2979 24.1738 24.5737 24.2827 23.8555 24.251C23.3785 24.312 22.8991 24.2665 22.4203 24.2791C22.1665 24.2857 21.9126 24.2857 21.66 24.2516V24.251Z" fill="#86C1BC"/>
<path d="M18.8414 15.679C18.9088 15.6276 18.9924 15.6282 19.0682 15.624C19.5163 15.5965 19.962 15.5456 20.4132 15.5564C20.9178 15.5684 21.4237 15.5576 21.9284 15.5564C22.6321 15.5564 23.3359 15.5564 24.0396 15.5564C24.1076 15.4984 24.1906 15.5139 24.2694 15.5127C24.7687 15.5044 25.2685 15.5283 25.7678 15.4966C25.7984 15.4996 25.8261 15.5091 25.8448 15.5349C25.7581 15.603 25.6547 15.5881 25.556 15.5887C24.996 15.5887 24.4354 15.5839 23.8754 15.5851C22.5702 15.5881 21.2643 15.5887 19.959 15.6013C19.6709 15.6036 19.3834 15.6509 19.0953 15.6748C19.0111 15.682 18.9262 15.6784 18.8414 15.6796V15.679Z" fill="#E6827E"/>
<path d="M23.796 32.7305C24.3927 32.7317 24.99 32.7323 25.5867 32.7353C25.6817 32.7353 25.7701 32.6851 25.8664 32.703C25.8207 32.7616 25.7557 32.7628 25.6901 32.7628C23.8369 32.7628 21.9831 32.7628 20.1298 32.7628C20.0637 32.7628 19.9999 32.7574 19.9512 32.7042C20.0438 32.6904 20.1292 32.752 20.2225 32.7311C20.2742 32.6797 20.3409 32.685 20.4047 32.6845C20.7831 32.6827 21.1614 32.6827 21.5397 32.6845C21.6035 32.6845 21.6709 32.6797 21.7226 32.7305C22.4137 32.7305 23.1049 32.7305 23.7966 32.7305H23.796Z" fill="#C5E1DF"/>
<path d="M27.2165 31.2091C27.2165 29.6445 27.2165 28.0792 27.2153 26.5145C27.2153 26.2274 27.234 25.9397 27.1895 25.6538C27.243 25.7196 27.2478 25.798 27.2478 25.8781C27.2478 27.6085 27.2478 29.3394 27.2472 31.0698C27.2472 31.117 27.2646 31.1709 27.2171 31.2091H27.2165Z" fill="#CAE4E2"/>
<path d="M26.9761 7.97433C26.7631 7.65553 26.5069 7.38458 26.1466 7.22847C26.0095 7.16926 25.8699 7.11782 25.7195 7.10287C25.7171 7.09449 25.7153 7.08612 25.7147 7.07715C26.0654 7.08791 26.3469 7.25898 26.6049 7.47191C26.7343 7.57897 26.8534 7.70099 26.9364 7.85231C26.9586 7.89239 26.9857 7.92648 26.9755 7.97493L26.9761 7.97433Z" fill="#F6D5D5"/>
<path d="M18.5329 15.575C18.3458 15.5804 18.1588 15.5858 17.9717 15.5912C17.7991 15.5643 17.6306 15.6342 17.458 15.6151C17.5368 15.5673 17.6318 15.5607 17.713 15.5643C17.9506 15.5756 18.181 15.5068 18.4168 15.52C18.5257 15.526 18.4469 15.407 18.5094 15.3818C18.5173 15.4458 18.5245 15.5104 18.5323 15.5744L18.5329 15.575Z" fill="#CCCDE1"/>
<path d="M26.8537 14.8384C26.9313 14.6494 27.0649 14.4843 27.098 14.2762C27.1076 14.2582 27.1178 14.2582 27.1274 14.2762C27.0853 14.4879 27.0156 14.6859 26.8531 14.8396L26.8537 14.8384Z" fill="#ECA7A7"/>
<path d="M18.5656 16.8673C18.5578 16.8709 18.55 16.8733 18.5421 16.8745C18.5476 16.6837 18.5054 16.4875 18.5999 16.3057C18.6257 16.4953 18.55 16.6789 18.5656 16.8673Z" fill="#767DB1"/>
<path d="M18.6547 8.47519C18.6493 8.39803 18.6691 8.32745 18.7148 8.26465C18.7202 8.27063 18.7257 8.27661 18.7305 8.28259C18.7611 8.36513 18.7557 8.4375 18.6703 8.48655C18.6649 8.48296 18.6601 8.47878 18.6547 8.47519Z" fill="#E17374"/>
<path d="M9.89044 17.0814C9.87781 17.0796 9.86578 17.0784 9.85315 17.0766C9.8748 17.006 9.85796 16.9235 9.91751 16.8643C9.91871 16.8864 9.92052 16.9085 9.92172 16.9306C9.9115 16.9809 9.90067 17.0311 9.89044 17.0814Z" fill="#8D93BF"/>
<path d="M20.0112 7.10584C19.9882 7.16109 19.9417 7.1671 19.8904 7.1641C19.8904 7.15389 19.8904 7.14368 19.8904 7.13347C19.9248 7.09804 19.9671 7.09563 20.0118 7.10584H20.0112Z" fill="#E26A65"/>
<path d="M25.8454 15.534C25.8213 15.531 25.7979 15.528 25.7738 15.5256C25.8135 15.4377 25.8851 15.4533 25.9573 15.47C25.9573 15.4814 25.9585 15.4933 25.9591 15.5047C25.9266 15.5364 25.8851 15.5316 25.8454 15.534Z" fill="#E26A66"/>
<path d="M27.1851 25.6258C27.1767 25.624 27.1682 25.6228 27.1598 25.6204C27.1418 25.6043 27.1388 25.5857 27.152 25.5648C27.1442 25.5241 27.1364 25.4834 27.1285 25.4434C27.2067 25.4858 27.1851 25.5594 27.1845 25.6258H27.1851Z" fill="#CAE4E2"/>
<path d="M18.5308 15.2344C18.5356 15.284 18.5549 15.3355 18.5115 15.3785C18.5115 15.3295 18.4929 15.278 18.5308 15.2344Z" fill="#CCCDE1"/>
<path d="M27.1283 14.2767H27.1132H27.0981C27.0987 14.2275 27.112 14.1836 27.1561 14.1548C27.1736 14.2016 27.144 14.2371 27.1277 14.2761L27.1283 14.2767Z" fill="#E17374"/>
<path d="M27.1521 25.5656C27.1545 25.5841 27.157 25.6027 27.16 25.6212C27.2015 26.1224 27.172 26.6249 27.1894 27.1261C27.1961 27.3043 27.1323 27.4305 27.0114 27.5442C26.1663 28.3415 25.3627 29.18 24.5236 29.9827C24.0231 30.4612 23.5359 30.9522 23.0403 31.4349C22.5988 31.8644 22.1446 32.2819 21.7224 32.7311C21.2225 32.7311 20.7221 32.7311 20.2222 32.7311C20.1284 32.6623 20.0111 32.6868 19.9088 32.6521C19.7512 32.5989 19.7428 32.5875 19.8631 32.4792C20.3407 32.048 20.7876 31.5851 21.2436 31.1323C23.1335 29.2548 25.0216 27.3761 26.9103 25.4974C26.9278 25.48 26.9458 25.4627 26.9633 25.4448C27.0312 25.3748 27.0824 25.367 27.098 25.4818C27.1034 25.5195 27.1203 25.547 27.1533 25.5656H27.1521Z" fill="#4AA29A"/>
<path d="M25.956 15.4692C25.8947 15.4878 25.8339 15.5063 25.7726 15.5249C25.71 15.541 25.6487 15.5584 25.5825 15.5584C25.0682 15.556 24.5533 15.556 24.039 15.5554C23.4664 15.0027 22.8926 14.4512 22.3211 13.8974C22.0493 13.6336 21.7858 13.3609 21.5127 13.0977C21.0586 12.6593 20.599 12.2268 20.1449 11.7896C19.6751 11.3374 19.209 10.8811 18.7404 10.4277C18.6929 10.3816 18.6562 10.3356 18.6574 10.2614C18.6634 9.66986 18.6658 9.07773 18.6694 8.48619C18.6893 8.418 18.7097 8.34981 18.7296 8.28223C19.1951 8.7033 19.6396 9.14531 20.0884 9.58373C20.6826 10.1645 21.2848 10.7369 21.8832 11.3129C22.4896 11.8961 23.0893 12.487 23.7058 13.06C24.1076 13.4338 24.4811 13.8358 24.886 14.2048C25.3046 14.5864 25.701 14.9907 26.1269 15.3855C26.0727 15.4304 26.0192 15.4585 25.956 15.4692Z" fill="#D83831"/>
<circle cx="20" cy="20" r="19.5" stroke="black" stroke-opacity="0.05"/>
</svg>
