<svg width="40" height="40" viewBox="0 0 40 40" fill="none" xmlns="http://www.w3.org/2000/svg">
<circle cx="20" cy="20" r="20" fill="black"/>
<path fill-rule="evenodd" clip-rule="evenodd" d="M9.56318 19.2933V17H10.7566V22.78H9.56318V20.4165H6.19345V22.78H5V17H6.19345V19.2933H9.56318ZM18.0109 17H19.3682L16.7005 20.6271V22.8034H15.5304V20.6271L12.8627 17H14.2902L16.1622 19.5273L18.0109 17ZM26.131 17C26.6693 17 26.9735 17.2808 26.9735 17.8424V19.2933C26.9735 19.5975 26.7161 19.8783 26.3885 19.8783C26.7161 19.8783 26.9735 20.1357 26.9735 20.4633V21.9844C26.9735 22.5226 26.6927 22.8268 26.131 22.8268H21.17V17H26.131ZM22.3635 19.3401H25.78V18.053H22.3635V19.3401ZM22.3635 21.727H25.78V20.3697H22.3635V21.727ZM35 18.053H30.4836V19.3167H34.883V20.3697H30.4836V21.727H35V22.78H29.2902V17H35V18.053Z" fill="white"/>
<circle cx="20" cy="20" r="19.5" stroke="black" stroke-opacity="0.05"/>
</svg>
