<svg width="40" height="40" viewBox="0 0 40 40" fill="none" xmlns="http://www.w3.org/2000/svg">
<circle cx="20" cy="20" r="20" fill="#9BBF44"/>
<g clip-path="url(#clip0_24563_42803)">
<path d="M32.5995 17.3206C32.302 17.4548 32.0045 17.5353 31.707 17.5487C31.6423 17.5487 31.6035 17.5218 31.6035 17.4548C31.6035 17.3743 31.6035 17.2938 31.6164 17.2133C31.7717 16.3817 32.1856 15.7513 32.8711 15.3355C33.1945 15.1344 33.5437 15.0271 33.9189 14.9868C33.9965 14.9868 34.0353 15.0136 34.0353 15.0941C34.0611 16.0464 33.3885 16.9317 32.5995 17.3072V17.3206Z" fill="white"/>
<path d="M31.5256 22.7124C31.6549 22.2698 31.6032 21.9076 31.3833 21.6394C31.1634 21.3711 30.84 21.3309 30.5167 21.3577C30.4649 21.3577 30.4002 21.3845 30.3226 21.4248C30.258 21.4516 30.1933 21.4784 30.1286 21.5053C30.4779 21.0626 30.5943 20.5664 30.4779 20.0433C30.2838 19.1044 29.4689 18.5679 28.5506 18.6886C28.5506 18.6349 28.3695 18.6552 28.3565 18.6016C28.3565 18.6016 28.2064 18.5891 28.3358 18.5234C28.3358 18.5234 28.2142 18.5637 28.3564 18.5234C28.3564 18.5234 28.3048 18.4111 28.4341 18.4414C28.4341 18.3207 28.4471 18.2574 28.4341 18.1367C28.4341 18.0294 28.4341 17.9355 28.4083 17.8282C28.3695 17.6002 28.46 17.3473 28.4341 17.1059C28.4341 17.0656 28.4212 17.0254 28.3953 16.9717C28.3824 16.9315 28.3695 16.8778 28.3565 16.8376C28.5376 16.8108 28.7316 16.7974 28.9127 16.7974C30.1545 16.8242 31.2928 17.5351 31.8878 18.6617C32.1077 19.0775 32.2499 19.547 32.3017 20.0299C32.3405 20.392 32.3275 20.7541 32.2499 21.1163C32.1335 21.7065 31.8748 22.2564 31.5126 22.7124H31.5256Z" fill="url(#paint0_linear_24563_42803)"/>
<path d="M6.76843 19.614C6.76843 19.614 6.7943 19.6677 6.82017 19.6677H8.79921C8.79921 19.6677 8.81214 19.6677 8.81214 19.6811V20.9955C8.81214 20.9955 8.79921 21.0223 8.78627 21.0223H6.8331C6.8331 21.0223 6.7555 21.0626 6.7555 21.1028V22.4039C6.7555 22.4039 6.78137 22.4843 6.82017 22.4843H9.39421C9.39421 22.4843 9.44595 22.4978 9.44595 22.538V23.7854C9.44595 23.8525 9.42008 23.8927 9.35541 23.8927H5.09983C5.09983 23.8927 5.03516 23.8659 5.03516 23.8256C5.03516 23.7586 5.03516 23.6915 5.03516 23.6244C5.03516 21.5723 5.03516 19.3726 5.03516 17.0253C5.03516 16.9851 5.04809 16.9717 5.0869 16.9717H9.32954C9.32954 16.9717 9.38128 16.9985 9.38128 17.0253V18.3264C9.38128 18.3264 9.35541 18.38 9.32954 18.38H6.80723C6.80723 18.38 6.7555 18.4069 6.7555 18.4337V19.6408L6.76843 19.614Z" fill="white"/>
<path d="M14.3614 20.7275C14.3614 20.5397 14.3355 20.3251 14.3355 20.1239C14.3355 19.0911 14.3355 18.0449 14.3355 16.9987C14.3355 16.9719 14.3614 16.9585 14.3743 16.9585H15.7971C15.7971 16.9585 15.8489 16.9853 15.8489 17.0121V23.799C15.8489 23.799 15.836 23.8661 15.7971 23.8661H14.2062C14.2062 23.8661 14.1544 23.8527 14.1415 23.8259C13.4171 22.4443 12.6798 21.0494 11.9555 19.6545C11.9555 19.6276 11.9296 19.6142 11.9167 19.6142C11.9037 19.6142 11.8779 19.6142 11.8779 19.6276C11.8779 19.6276 11.8779 19.6276 11.8779 19.6411C11.9167 21.036 11.9037 22.4309 11.8779 23.8259C11.8779 23.8527 11.852 23.8795 11.8261 23.8795H10.4033C10.4033 23.8795 10.3516 23.8661 10.3516 23.8259V17.0121C10.3516 17.0121 10.3774 16.9585 10.4033 16.9585H12.2142C12.2142 16.9585 12.2918 16.9719 12.3047 17.0121C12.9644 18.2595 13.5853 19.4533 14.1932 20.58C14.2191 20.6336 14.2579 20.7007 14.2967 20.7543C14.3355 20.7946 14.3484 20.7946 14.3484 20.7275H14.3614Z" fill="white"/>
<path d="M20.8416 20.2983C21.76 20.4861 22.1739 21.1165 22.0704 22.1895C21.9928 23.0479 21.3849 23.6113 20.5829 23.7722C20.3113 23.8259 20.0914 23.8527 19.9232 23.8527C18.8885 23.8527 17.8925 23.8527 16.9224 23.8527C16.9094 23.8527 16.8965 23.8527 16.8965 23.8259V17.0121C16.8965 17.0121 16.9224 16.9585 16.9612 16.9585C17.8149 16.9585 18.7203 16.9585 19.6904 16.9585C20.6347 16.9585 21.6306 17.267 21.7859 18.3803C21.8764 18.9972 21.7471 19.6947 21.2167 20.03C21.1003 20.1105 20.971 20.1776 20.8416 20.2312C20.764 20.258 20.764 20.2849 20.8416 20.2983ZM18.6427 18.2193V19.8154C18.6427 19.8154 18.6427 19.8288 18.6686 19.8288H19.38C19.781 19.8288 20.1173 19.5069 20.1173 19.118V18.9034C20.1173 18.5144 19.781 18.1925 19.38 18.1925H18.6686C18.6686 18.1925 18.6556 18.1925 18.6556 18.2193H18.6427ZM18.6427 20.9153V22.5785C18.6427 22.5785 18.6427 22.6053 18.6556 22.6053H19.4705C19.8974 22.6053 20.2466 22.2834 20.2466 21.881V21.6262C20.2466 21.2238 19.9103 20.8885 19.4835 20.8885H18.6686C18.6686 20.8885 18.6427 20.8885 18.6427 20.9153Z" fill="white"/>
<path d="M24.6315 16.9585H22.9629C22.9343 16.9585 22.9111 16.9825 22.9111 17.0121V23.8124C22.9111 23.8421 22.9343 23.8661 22.9629 23.8661H24.6315C24.66 23.8661 24.6832 23.8421 24.6832 23.8124V17.0121C24.6832 16.9825 24.66 16.9585 24.6315 16.9585Z" fill="white"/>
<path d="M31.3837 21.6395C31.1638 21.3712 30.8405 21.331 30.5171 21.3578C30.4654 21.3578 30.4007 21.3846 30.3231 21.4249C30.2584 21.4517 30.1937 21.4785 30.1291 21.5053C30.0644 21.559 29.9868 21.626 29.9092 21.7065C29.8316 21.787 29.7539 21.8541 29.6763 21.8943C28.4346 22.6186 27.0376 21.5724 27.1799 20.1238C27.3481 19.3459 27.8333 18.863 28.5706 18.6886C28.5706 18.635 28.5835 18.5987 28.5706 18.545C28.5706 18.545 28.5354 18.5 28.5251 18.5009C28.5251 18.5009 28.5251 18.5009 28.5381 18.5009C28.5381 18.5009 28.551 18.5009 28.551 18.4875C28.551 18.3667 28.551 18.246 28.5381 18.1253C28.5354 18 28.5613 18.1073 28.5354 18C28.4966 17.772 28.5613 17.2414 28.5354 17C28.5354 16.9598 28.5613 17.0537 28.5354 17C28.5225 16.9598 28.3958 16.8698 28.3828 16.8296C28.2276 16.8564 28.0336 16.8913 27.8913 16.9316C26.9859 17.1998 26.2357 17.8302 25.7829 18.6886C25.5889 19.0776 25.4466 19.4934 25.3949 19.9226C25.3173 20.4725 25.382 21.0359 25.5501 21.559C25.8993 22.6052 26.6884 23.4368 27.6973 23.7989C27.9431 23.8928 28.1888 23.9465 28.4475 23.9733C28.7321 24.0001 29.0037 24.0001 29.2883 23.9733C30.1549 23.8526 30.9792 23.3975 31.5354 22.7C31.6647 22.2574 31.6036 21.9077 31.3837 21.6395Z" fill="white"/>
</g>
<circle cx="20" cy="20" r="19.5" stroke="black" stroke-opacity="0.05"/>
<defs>
<linearGradient id="paint0_linear_24563_42803" x1="29.9086" y1="17.9911" x2="31.3067" y2="20.7273" gradientUnits="userSpaceOnUse">
<stop stop-color="white"/>
<stop offset="0.145833" stop-color="#F5F9EF"/>
<stop offset="0.322917" stop-color="#ECF5E0"/>
<stop offset="0.76" stop-color="#D5FF9C"/>
<stop offset="1" stop-color="#B6E446"/>
</linearGradient>
<clipPath id="clip0_24563_42803">
<rect width="29" height="9" fill="white" transform="translate(5.03516 15)"/>
</clipPath>
</defs>
</svg>
