<svg width="40" height="40" viewBox="0 0 40 40" fill="none" xmlns="http://www.w3.org/2000/svg">
<circle cx="20" cy="20" r="20" fill="#F6F8FA"/>
<g clip-path="url(#clip0_18553_60636)">
<path d="M30.3651 22.1414C30.3889 22.5923 30.298 23.0316 30.228 23.4716C30.1558 23.9474 30.049 24.4187 29.953 24.8908C29.9429 24.9403 29.953 25.003 29.896 25.0365C29.8238 24.9724 29.8188 25.051 29.8007 25.0838C29.6022 25.4274 29.353 25.7384 29.0616 26.0061C28.8964 26.1627 28.7166 26.3026 28.5413 26.4432C28.4547 26.4913 28.3726 26.5472 28.2959 26.61C28.1681 26.6909 28.0396 26.7696 27.9133 26.8519C27.7596 26.9291 27.6102 27.0151 27.4507 27.0799C27.2756 27.1359 27.1064 27.2091 26.9455 27.2985C26.7427 27.2985 26.6005 27.4529 26.4229 27.517C26.2281 27.5717 26.0224 27.5724 25.8304 27.6409C25.5871 27.7378 25.3251 27.6955 25.0754 27.748C25.0225 27.755 24.97 27.765 24.9181 27.7778C24.8309 27.7998 24.7421 27.8141 24.6525 27.8208C24.4944 27.8252 24.4446 27.7713 24.467 27.6132C24.5283 27.1761 24.6113 26.7455 24.6777 26.3099C24.7723 25.6542 24.8856 24.9986 24.952 24.3429C24.9874 23.9889 25.0473 23.6377 25.0603 23.2822C25.0582 23.2581 25.0621 23.2337 25.0717 23.2115C25.0812 23.1892 25.0962 23.1697 25.1151 23.1548C25.2082 23.1846 25.183 23.2669 25.1873 23.3332C25.1916 23.3995 25.1873 23.4666 25.1931 23.5343C25.24 23.5132 25.24 23.4615 25.2595 23.4272C25.3547 23.2509 25.3995 23.2444 25.5142 23.4054C25.5561 23.4644 25.6009 23.4906 25.6644 23.4578C25.7634 23.4122 25.875 23.4022 25.9805 23.4294C26.0398 23.4409 26.1012 23.4361 26.158 23.4156C26.5817 23.2509 27.0241 23.2699 27.4514 23.3427C27.6614 23.3799 27.87 23.433 28.0837 23.4578C28.2367 23.4753 28.381 23.476 28.5167 23.385C28.5745 23.352 28.6382 23.3308 28.704 23.3227C28.7699 23.3146 28.8367 23.3197 28.9007 23.3376C29.045 23.3653 29.1894 23.3507 29.3337 23.3748C29.3605 23.3792 29.388 23.3779 29.4142 23.3709C29.4405 23.3638 29.4649 23.3512 29.486 23.334C29.6008 23.2436 29.6881 23.2808 29.7509 23.3959C29.8281 23.5379 29.8743 23.4891 29.9162 23.3755C29.9225 23.3585 29.9305 23.3421 29.94 23.3267C29.9595 23.2946 29.9826 23.2611 30.0223 23.2669C30.062 23.2728 30.0678 23.3172 30.0699 23.3529C30.0639 23.427 30.0797 23.5013 30.1154 23.5664C30.1515 23.1358 30.2532 22.7497 30.2785 22.3505C30.2857 22.2813 30.2727 22.2084 30.3139 22.145C30.317 22.1414 30.3208 22.1384 30.3251 22.1362C30.3293 22.134 30.334 22.1328 30.3387 22.1324C30.3435 22.1321 30.3483 22.1327 30.3528 22.1342C30.3574 22.1358 30.3615 22.1382 30.3651 22.1414Z" fill="#54A7DD"/>
<path d="M13.8627 29.57C13.6844 29.4593 13.5197 29.3277 13.3719 29.1781C12.7906 28.6457 12.2591 28.0604 11.7841 27.4297C11.7336 27.3626 11.7119 27.2752 11.6397 27.2264C11.0192 26.3394 10.5189 25.3726 10.1522 24.3517C9.91165 23.6842 9.72672 22.9975 9.59935 22.2988C9.58059 22.1917 9.58203 22.0803 9.56543 21.9754C9.67225 21.9069 9.68452 22.0198 9.70978 22.0657C9.91959 22.425 10.1538 22.7691 10.4106 23.0958C10.7931 23.581 11.2579 23.9809 11.7213 24.3823C11.7629 24.417 11.81 24.4444 11.8606 24.4632C11.8764 24.4711 11.8911 24.4809 11.9046 24.4923C12.2345 24.7947 12.6192 25.0161 12.9923 25.2544C13.1641 25.3644 13.3532 25.4423 13.5134 25.572C13.7299 25.69 13.8865 25.8867 14.1226 25.9785C14.2871 26.0426 14.3268 26.2087 14.3059 26.377C14.2822 26.5079 14.2805 26.6418 14.3008 26.7733C14.3084 26.8062 14.3085 26.8403 14.3011 26.8733C14.2938 26.9062 14.2791 26.937 14.2582 26.9634C14.1428 27.1018 14.1319 27.2716 14.1031 27.4377C14.0518 27.7342 13.9385 28.0205 13.9342 28.3243C13.93 28.3761 13.9155 28.4266 13.8916 28.4726C13.8677 28.5187 13.8348 28.5594 13.7949 28.5923C13.6989 28.6776 13.7039 28.7504 13.7905 28.832C13.8031 28.8451 13.8136 28.8601 13.8216 28.8765C13.8743 28.9704 13.9154 29.0775 13.8259 29.1591C13.7364 29.2407 13.6577 29.17 13.5798 29.1212C13.5372 29.0943 13.5076 29.0396 13.4239 29.0622C13.5281 29.1771 13.6413 29.2834 13.7624 29.3799C13.8144 29.4338 13.8981 29.4695 13.8627 29.57Z" fill="#54A7DD"/>
<path d="M29.7484 14.5672C29.7628 14.6401 29.8046 14.7085 29.7938 14.7858C29.9014 15.2899 30.0103 15.7933 30.0977 16.3025C30.1273 16.4773 30.1035 16.6668 30.193 16.8285C30.1691 16.9203 30.2875 17.0244 30.1699 17.1082C30.0703 17.1082 30.0464 17.0288 30.0168 16.956C29.9693 16.8126 29.9296 16.6666 29.8978 16.5189C29.8812 16.4628 29.8696 16.3797 29.7895 16.403C29.5686 16.4657 29.3492 16.403 29.1298 16.403C28.2368 16.4152 27.344 16.4152 26.4514 16.403C26.1706 16.3994 25.892 16.379 25.6135 16.4402C25.5081 16.4635 25.4525 16.5058 25.4482 16.615C25.4484 16.6641 25.4426 16.7131 25.4308 16.7607C25.4114 16.8336 25.3912 16.9203 25.3154 16.9305C25.2396 16.9407 25.2504 16.8321 25.2078 16.7848C25.1357 16.5662 25.1624 16.3353 25.1162 16.1131C25.114 16.0927 25.114 16.0722 25.1162 16.0519C25.1029 15.7174 25.0689 15.3841 25.0144 15.0538C24.9978 14.9963 24.9978 14.9351 25.0144 14.8776C25.1306 14.7544 25.2511 14.6371 25.1941 14.4368C25.1881 14.4206 25.1866 14.4031 25.1897 14.3861C25.1927 14.3691 25.2002 14.3532 25.2115 14.3402C25.2227 14.3271 25.2372 14.3174 25.2534 14.312C25.2697 14.3065 25.2871 14.3056 25.3038 14.3093C25.752 14.3494 26.2031 14.3202 26.6506 14.3574C26.8491 14.3742 27.0447 14.3946 27.2374 14.3246C27.3132 14.3049 27.3917 14.2976 27.4698 14.3028C27.8227 14.2926 28.1771 14.3283 28.53 14.2758C28.5686 14.2714 28.6076 14.2748 28.6448 14.286C28.682 14.2971 28.7166 14.3157 28.7466 14.3406C28.8721 14.4361 29.0237 14.4492 29.1717 14.4747C29.1889 14.4803 29.2073 14.4808 29.2247 14.4763C29.2422 14.4718 29.2581 14.4624 29.2706 14.4492C29.3016 14.4062 29.2706 14.3683 29.2496 14.3326C29.211 14.2784 29.1673 14.2282 29.119 14.1826C29.0409 14.115 28.9846 14.0255 28.9573 13.9254C28.9462 13.8689 28.9229 13.8155 28.8891 13.7691C28.8553 13.7226 28.8118 13.6842 28.7617 13.6566C28.1764 13.2719 27.5651 12.9441 26.8852 12.7605C26.8224 12.7438 26.7538 12.7336 26.7206 12.6636C26.7733 12.5718 26.8541 12.6024 26.9256 12.6228C27.8797 12.8902 28.7502 13.3076 29.4517 14.0339C29.5909 14.1856 29.6925 14.3683 29.7484 14.5672Z" fill="#223A69"/>
<path d="M20.3135 7.70244C20.6295 7.59469 20.9601 7.53694 21.2936 7.53125C21.6494 7.51886 22.0045 7.48389 22.3661 7.50866C22.8067 7.53348 23.2445 7.59587 23.6747 7.69516C24.1847 7.81853 24.6836 7.98522 25.1658 8.19345C25.2344 8.22932 25.2998 8.271 25.3614 8.31803L25.3397 8.33915C25.2344 8.37849 25.1413 8.31147 25.0409 8.30419C24.8663 8.29253 24.8064 8.3479 24.8157 8.52274C24.8141 8.52869 24.8141 8.53499 24.8157 8.54095C24.9962 8.99699 24.9601 9.49747 25.1044 9.9608C25.1206 9.99982 25.132 10.0407 25.1384 10.0825C25.1809 10.7549 25.4047 11.3938 25.4805 12.0603C25.505 12.2789 25.4581 12.3284 25.2387 12.3372C25.0763 12.343 24.919 12.292 24.7558 12.2964C24.6627 12.2964 24.579 12.3007 24.5104 12.3692C23.9008 12.3284 23.2893 12.3255 22.6794 12.3605C22.2781 12.378 21.8811 12.4428 21.482 12.48C21.4224 12.489 21.3615 12.4804 21.3066 12.4552C21.2968 12.4503 21.2887 12.4426 21.2834 12.4329C21.2781 12.4233 21.2759 12.4122 21.277 12.4013C21.3003 12.3738 21.3296 12.3522 21.3625 12.3379C21.3954 12.3236 21.4311 12.3171 21.4668 12.319C21.6263 12.3102 21.783 12.2731 21.9425 12.2694C21.9831 12.2666 22.0233 12.259 22.0623 12.2468C22.2348 12.2374 22.4058 12.2082 22.5776 12.1958C22.8536 12.2089 23.1301 12.1945 23.4033 12.1529C23.692 12.107 23.731 12.0399 23.6797 11.7544C23.6111 11.3683 23.4755 10.9931 23.4993 10.5888C23.5079 10.4482 23.4141 10.328 23.3917 10.1881C23.3282 9.78814 23.2929 9.38674 23.2474 8.98388C23.2488 8.94112 23.2385 8.8988 23.2178 8.86149C23.0734 8.67354 23.098 8.43605 23.028 8.22624C23.0071 8.16862 23.0071 8.10537 23.028 8.04775C23.085 7.90205 23.0085 7.82046 22.8908 7.75635C22.7082 7.65873 22.5228 7.58443 22.3084 7.60337C22.1474 7.61721 21.9843 7.60337 21.8219 7.60701C21.6092 7.60138 21.3964 7.61921 21.1875 7.66019C21.129 7.67157 21.0696 7.67791 21.01 7.67913C20.8187 7.70609 20.6289 7.73814 20.4376 7.76364C20.3899 7.76059 20.3452 7.73859 20.3135 7.70244Z" fill="#A7D9F6"/>
<path d="M11.1982 13.7018C11.3332 13.3886 11.5591 13.1351 11.7634 12.8721C12.6374 11.7494 13.7265 10.865 14.8806 10.0586C15.4248 9.67831 16.0015 9.34757 16.5782 9.01901C16.6159 8.98912 16.663 8.97387 16.711 8.97603C16.7184 8.98474 16.7225 8.99586 16.7225 9.00736C16.7225 9.01902 16.7225 9.02411 16.7225 9.02484C16.6822 9.07801 16.628 9.11866 16.5659 9.14213C16.2974 9.28783 16.1328 9.52824 15.9531 9.76209C15.8242 9.91998 15.7117 10.0909 15.6175 10.272C15.3301 10.7962 15.0947 11.3477 14.9145 11.9185C14.8748 12.0459 14.7954 12.1559 14.7702 12.2878C14.6092 12.6171 14.5861 12.9821 14.5039 13.3317C14.4591 13.5241 14.3508 13.6851 14.283 13.865C14.2498 13.9517 14.1798 13.9473 14.1033 13.9065C13.8158 13.7394 13.4834 13.668 13.1535 13.7026C13.032 13.7152 12.9103 13.6817 12.8121 13.6086C12.6165 13.4629 12.3841 13.425 12.1625 13.358C12.1196 13.3437 12.0736 13.3416 12.0296 13.3518C11.9855 13.3621 11.9451 13.3844 11.9128 13.4163C11.7886 13.5255 11.7424 13.5073 11.7006 13.3434C11.697 13.2965 11.6845 13.2507 11.6638 13.2086C11.5288 13.3252 11.4545 13.4833 11.3549 13.621C11.3303 13.6593 11.2959 13.6903 11.2553 13.7106C11.246 13.715 11.2356 13.7165 11.2254 13.7149C11.2153 13.7134 11.2058 13.7088 11.1982 13.7018Z" fill="#54A7DB"/>
<path d="M9.53488 21.7037C9.5488 21.6419 9.54325 21.5772 9.519 21.5187C9.55292 21.2739 9.49735 21.0298 9.50962 20.7851C9.50962 20.6823 9.50962 20.5796 9.50962 20.4769C9.50962 20.4463 9.51828 20.4106 9.55003 20.4041C9.59262 20.3917 9.61571 20.4288 9.6287 20.4601C9.6763 20.5772 9.71045 20.6995 9.73047 20.8244C9.77161 21.0626 9.95927 21.1493 10.1368 21.2491C10.1554 21.2595 10.1762 21.265 10.1974 21.265C10.2187 21.265 10.2395 21.2595 10.2581 21.2491C10.2832 21.2295 10.3123 21.2158 10.3433 21.2088C10.3743 21.2018 10.4064 21.2018 10.4374 21.2088C10.4684 21.2157 10.4975 21.2295 10.5226 21.249C10.5477 21.2686 10.5683 21.2935 10.5829 21.322C10.655 21.4225 10.7633 21.4123 10.8629 21.3985C10.9798 21.3764 11.1 21.3789 11.2159 21.406C11.3318 21.4331 11.4409 21.4841 11.5363 21.5558C11.7052 21.6818 11.9462 21.668 12.1462 21.6418C12.4081 21.6193 12.6718 21.6291 12.9314 21.6709C13.0262 21.6841 13.1227 21.673 13.2122 21.6389C13.4099 21.5616 13.4937 21.6054 13.5731 21.8071C13.5954 21.8647 13.5911 21.9412 13.6929 21.9769C13.7037 21.786 13.765 21.6126 13.7528 21.424C13.7423 21.34 13.7423 21.2551 13.7528 21.1712C13.7658 21.1085 13.7802 21.0349 13.8755 21.0648C13.9476 21.1777 13.8877 21.3147 13.9412 21.4291C14.0177 21.8042 13.9722 22.1882 14.0213 22.5655C14.022 22.6438 14.0314 22.7218 14.0494 22.7979C14.1288 23.2139 14.1295 23.6371 14.1678 24.0568C14.2039 24.4584 14.2373 24.8603 14.2681 25.2624C14.2872 25.406 14.285 25.5516 14.2616 25.6944C14.2545 25.7138 14.2435 25.7314 14.2291 25.7462C14.1519 25.7462 14.1497 25.6799 14.1454 25.6289C14.105 25.0861 14.048 24.5449 13.9924 24.0036C13.9628 23.7166 13.9354 23.4303 13.9202 23.1418C13.9082 23.263 13.9107 23.3853 13.9274 23.506C13.9402 23.5843 13.9249 23.6647 13.8841 23.7326C13.8076 23.8644 13.7088 23.887 13.6099 23.7763C13.524 23.6794 13.4374 23.6124 13.3024 23.6306C13.2873 23.6324 13.272 23.6307 13.2576 23.6257C13.2432 23.6206 13.2301 23.6123 13.2194 23.6014C13.0751 23.4477 12.8823 23.4652 12.6969 23.4703C12.553 23.4799 12.4102 23.4404 12.2912 23.3581C12.1245 23.243 11.9116 23.2489 11.7203 23.227C11.4648 23.1979 11.236 23.0951 10.9935 23.0318C10.9538 23.0216 10.9214 22.9953 10.8773 22.9859C10.8333 22.9764 10.7734 22.9487 10.7416 22.9917C10.7099 23.0347 10.7683 23.0747 10.7849 23.1163C10.8665 23.3268 11.0152 23.5038 11.0773 23.7231C11 23.8193 10.9531 23.734 10.9091 23.6889C10.5838 23.3544 10.2887 22.9914 10.0271 22.6041C9.85317 22.3462 9.7247 22.0607 9.52982 21.8173C9.52212 21.7796 9.52386 21.7406 9.53488 21.7037Z" fill="#224171"/>
<path d="M13.8634 29.5699C13.7602 29.4023 13.5877 29.3098 13.4498 29.1801C13.4029 29.1357 13.2975 29.0985 13.3582 29.0155C13.4188 28.9324 13.4953 28.9842 13.5574 29.0439C13.6194 29.1036 13.7219 29.2115 13.8006 29.1342C13.9002 29.0366 13.8165 28.8989 13.7284 28.8363C13.5783 28.7277 13.6375 28.6695 13.74 28.5828C13.7908 28.5403 13.8316 28.4869 13.8594 28.4266C13.8872 28.3662 13.9014 28.3004 13.9009 28.2338C13.8914 28.0285 13.9333 27.824 14.0229 27.6393C14.0633 27.5665 14.0373 27.4842 14.0525 27.407C14.0871 27.2379 14.1701 27.0791 14.2113 26.924C14.2825 26.6725 14.2884 26.4069 14.2286 26.1525C14.2197 26.117 14.2016 26.0845 14.1763 26.0583C14.1509 26.032 14.1192 26.013 14.0842 26.0031C13.828 25.9441 13.6858 25.7161 13.4736 25.5937C13.535 25.5478 13.5913 25.5864 13.6497 25.6032C13.7804 25.676 13.9233 25.7227 14.0482 25.8043C14.1463 25.8676 14.1846 25.8159 14.2206 25.738C14.2243 25.7367 14.2283 25.7367 14.232 25.7381C14.2357 25.7394 14.2388 25.7419 14.2409 25.7452C14.2741 25.7452 14.2863 25.7671 14.2972 25.7926C14.2885 25.9587 14.3939 26.0199 14.5288 26.0672C14.697 26.1263 14.8746 26.1714 15.0074 26.3047C15.2087 26.4155 15.3754 26.5925 15.5977 26.6551C15.74 26.7012 15.8768 26.763 16.0055 26.8395C16.1239 26.9036 16.1282 27.0056 16.0099 27.0769C15.8915 27.1483 15.8814 27.2416 15.8901 27.3785C15.903 27.5971 15.8951 27.8258 15.7508 28.0153C15.6223 28.185 15.4888 28.3511 15.5963 28.5879C15.6063 28.6104 15.6102 28.6353 15.6075 28.6599C15.6049 28.6845 15.5958 28.7079 15.5811 28.7277C15.4151 28.9164 15.4447 29.1714 15.3531 29.3834C15.2809 29.559 15.3285 29.7549 15.3213 29.9414C15.3119 30.1818 15.1972 30.2853 14.9677 30.2532C14.9056 30.2445 14.8464 30.2292 14.8233 30.1614C14.8157 30.1318 14.8179 30.1005 14.8296 30.0724C14.8414 30.0442 14.862 30.0207 14.8883 30.0055C14.9078 29.9902 14.9294 29.98 14.9489 29.9662C14.9857 29.94 15.0211 29.9064 14.9785 29.8635C14.9359 29.8205 14.8962 29.8438 14.8702 29.8795C14.83 29.9396 14.7715 29.9849 14.7036 30.0087C14.6357 30.0325 14.562 30.0334 14.4935 30.0114C14.2769 29.9028 14.1088 29.72 13.898 29.5997L13.8634 29.5699Z" fill="#4A9AD3"/>
<path d="M14.4814 29.9918C14.6525 29.9977 14.7911 29.9532 14.89 29.7908C14.9369 29.7136 15.0076 29.782 15.0473 29.8352C15.087 29.8884 15.1043 29.9547 15.0177 29.9969C14.9455 30.0312 14.8207 30.0458 14.8618 30.1536C14.9029 30.2614 15.0314 30.214 15.1195 30.2053C15.1422 30.2055 15.1648 30.2007 15.1855 30.1912C15.2062 30.1816 15.2246 30.1676 15.2393 30.1501C15.2541 30.1325 15.2648 30.112 15.2708 30.0898C15.2768 30.0676 15.2778 30.0444 15.2739 30.0217C15.2783 29.9489 15.2783 29.8759 15.2739 29.8032C15.2119 29.5059 15.4002 29.2473 15.3981 28.9596C15.4081 28.912 15.4335 28.8692 15.4702 28.8379C15.5167 28.7944 15.5477 28.7366 15.5584 28.6735C15.569 28.6105 15.5589 28.5456 15.5294 28.4889C15.5003 28.4387 15.4898 28.3797 15.4997 28.3223C15.5096 28.265 15.5393 28.213 15.5836 28.1757C15.7871 27.9826 15.8138 27.716 15.8723 27.4647C15.8724 27.4288 15.8629 27.3936 15.8448 27.3627C15.7842 27.217 15.8095 27.1019 15.9733 27.0494C16.0231 27.0334 16.065 27.0108 16.0606 26.9518C16.0563 26.8928 16 26.8913 15.9639 26.8637C15.7474 26.6968 15.4277 26.7413 15.2501 26.4958C15.2147 26.4477 15.1361 26.4382 15.0704 26.4229C15.0293 26.4134 14.9325 26.4229 14.9859 26.3195C14.9994 26.3064 15.0161 26.2973 15.0342 26.2929C15.0524 26.2885 15.0713 26.2892 15.0892 26.2947C15.3497 26.4025 15.6211 26.4797 15.8831 26.5715C15.8996 26.576 15.9157 26.5816 15.9314 26.5883C16.0614 26.6895 16.2468 26.6611 16.3724 26.7741C16.4239 26.8265 16.4922 26.8588 16.5651 26.8651C16.7636 26.8811 16.9065 27.0108 17.0574 27.1113C17.3107 27.2855 17.3843 27.7102 17.219 27.9666C17.1987 27.9889 17.1837 28.0156 17.175 28.0446C17.1346 28.4343 16.8957 28.7731 16.8971 29.1752C16.8951 29.2239 16.8832 29.2717 16.8621 29.3156C16.8409 29.3594 16.8111 29.3984 16.7744 29.4302C16.7202 29.4792 16.682 29.5437 16.6647 29.615C16.6475 29.6864 16.652 29.7614 16.6777 29.8301C16.7027 29.8956 16.7092 29.9667 16.6964 30.0357C16.6837 30.1046 16.6522 30.1686 16.6056 30.2206C16.5747 30.2503 16.5559 30.2905 16.5527 30.3334C16.5495 30.3763 16.5622 30.4189 16.5882 30.453C16.6929 30.614 16.5882 30.7444 16.5161 30.8726C16.4894 30.9265 16.4352 30.9141 16.3876 30.9061C16.3106 30.8859 16.2309 30.8783 16.1516 30.8835C16.3594 30.9979 16.5377 31.0948 16.7225 31.18C16.7723 31.2055 16.8293 31.2252 16.817 31.3002C16.2644 31.0908 15.7327 30.8288 15.2292 30.5178C15.1685 30.4821 15.1101 30.445 15.0516 30.4049C14.9033 30.2962 14.7493 30.1955 14.5904 30.1033L14.5507 30.0654C14.5262 30.0436 14.4887 30.0319 14.4814 29.9918Z" fill="#428DC8"/>
<path d="M10.2965 15.5901C10.3899 15.2607 10.5235 14.9443 10.6942 14.6481C10.7231 14.6171 10.7437 14.5793 10.7541 14.5381C10.7657 14.4864 10.7946 14.4441 10.8523 14.4572C10.91 14.4704 10.9187 14.5301 10.91 14.5753C10.8754 14.7523 10.9274 14.9242 10.9302 15.0991C10.9331 15.2739 10.9966 15.3249 11.1533 15.2448C11.2846 15.1763 11.3857 15.1675 11.4802 15.2994C11.5131 15.3395 11.556 15.3699 11.6045 15.3876C11.653 15.4053 11.7053 15.4095 11.7559 15.3999C12.2164 15.3657 12.6559 15.5107 13.1056 15.566C13.2499 15.5835 13.3943 15.6498 13.5487 15.6432C13.6628 15.6374 13.7191 15.7401 13.74 15.8509C13.7458 15.8807 13.7544 15.915 13.7862 15.9237C13.818 15.9325 13.8519 15.8997 13.8699 15.8684C13.9344 15.7452 13.9829 15.6142 14.0143 15.4786C14.024 15.4313 14.0385 15.3852 14.0576 15.3409C14.0814 15.2921 14.1095 15.228 14.1694 15.2418C14.2294 15.2557 14.2135 15.3263 14.2099 15.3795C14.1846 15.7438 14.1738 16.1153 14.072 16.4723C13.9479 16.6333 13.9948 16.8365 13.9558 17.0136C13.932 17.125 13.9493 17.2787 13.8014 17.2787C13.6534 17.2787 13.6491 17.1221 13.6354 17.0034C13.6354 16.991 13.6354 16.9793 13.6354 16.9378C13.614 17.0354 13.5855 17.1314 13.5502 17.2248C13.4896 17.3487 13.4058 17.364 13.3394 17.246C13.2434 17.0755 13.1063 17.0434 12.9266 17.0179C12.7166 16.9873 12.5 16.9691 12.2965 16.8861C12.1298 16.8183 11.9443 16.8227 11.7682 16.7921C11.457 16.7298 11.1417 16.6904 10.8249 16.6741C10.6502 16.669 10.4936 16.5779 10.3131 16.6012C10.2164 16.6136 10.2034 16.5167 10.2107 16.4278C10.2248 16.2105 10.2535 15.9944 10.2965 15.7809C10.317 15.7302 10.3201 15.6741 10.3052 15.6214L10.2965 15.5901Z" fill="#3A83BC"/>
<path d="M25.1387 23.1563C25.1048 23.4419 25.0665 23.7282 25.037 24.0145C24.9648 24.6796 24.8702 25.3411 24.7692 26.0026C24.684 26.5563 24.5902 27.1085 24.5007 27.6614C24.4855 27.7554 24.5231 27.7852 24.6068 27.7765C24.7136 27.7656 24.8233 27.7525 24.9272 27.7401C25.0427 27.7073 25.1654 27.7328 25.2809 27.7015C25.3964 27.6701 25.4318 27.7204 25.4152 27.8333C25.3899 28.006 25.343 28.1765 25.3184 28.3433C25.2831 28.5895 25.2333 28.8321 25.182 29.0718C25.0665 29.616 24.9525 30.1602 24.8212 30.7C24.7396 31.0351 24.7179 31.3819 24.6046 31.7111C24.5664 31.8262 24.6227 31.8663 24.7418 31.8313C24.8255 31.8073 24.9042 31.7396 24.9951 31.808C24.6985 31.996 24.3628 32.0841 24.0337 32.1861C23.356 32.408 22.6456 32.511 21.9334 32.4906C21.6332 32.479 21.3243 32.4987 21.0312 32.393C21.0452 32.3771 21.0623 32.3644 21.0815 32.3556C21.1006 32.3468 21.1214 32.3422 21.1424 32.342C21.2045 32.3375 21.267 32.34 21.3286 32.3493C21.473 32.4003 21.6317 32.3551 21.7804 32.3886C21.9038 32.424 22.0345 32.424 22.1579 32.3886C22.2293 32.3758 22.302 32.3712 22.3744 32.3748C22.4762 32.3704 22.5787 32.3748 22.6804 32.3704C22.8602 32.3551 23.0355 32.3143 23.2124 32.2859C23.3502 32.2641 23.4007 32.1672 23.4412 32.0404C23.5812 31.6033 23.6021 31.148 23.688 30.7036C23.8555 29.8418 24.0633 28.9895 24.2531 28.1327C24.308 27.888 24.2784 27.8588 24.0308 27.8574C23.9154 27.8574 23.8042 27.8865 23.6909 27.8938C23.5226 27.9025 23.354 27.9025 23.1857 27.8938C23.1648 27.8921 23.144 27.889 23.1236 27.8843C22.9706 27.8406 22.8147 27.8661 22.6602 27.8632C22.5541 27.8632 22.4488 27.8632 22.3427 27.8596C22.2982 27.8601 22.2552 27.8437 22.2221 27.8137C22.2183 27.8032 22.2181 27.7918 22.2215 27.7812C22.2249 27.7707 22.2317 27.7616 22.2409 27.7554C22.3243 27.7201 22.4154 27.7078 22.5051 27.7197C23.0507 27.7197 23.5963 27.7197 24.1413 27.7197C24.3578 27.7197 24.3867 27.6971 24.4227 27.48C24.5765 26.549 24.7114 25.6158 24.8457 24.6826C24.9684 23.82 25.0261 22.9509 25.1156 22.0854C25.1575 21.6775 25.1539 21.2644 25.1993 20.8557C25.2066 20.788 25.1929 20.7042 25.2874 20.6787C25.3711 20.7749 25.3271 20.8922 25.3394 21C25.3567 21.1734 25.2982 21.3409 25.304 21.5136C25.3065 21.5463 25.3065 21.5792 25.304 21.6119C25.304 22.0862 25.2109 22.5531 25.1943 23.0259C25.1954 23.0505 25.191 23.075 25.1814 23.0976C25.1717 23.1202 25.1572 23.1403 25.1387 23.1563Z" fill="#A6D3F1"/>
<path d="M14.0457 16.4693C14.1178 16.0694 14.146 15.668 14.1814 15.2309C14.0421 15.3963 14.0717 15.5951 13.9793 15.7481C13.9612 15.7787 13.9555 15.8159 13.9403 15.8487C13.9042 15.9215 13.8724 16.0235 13.77 16.0046C13.6855 15.9893 13.6978 15.8975 13.6848 15.8246C13.6624 15.6724 13.5563 15.6512 13.4315 15.6898C13.3384 15.719 13.2503 15.7627 13.1926 15.6345C13.1833 15.6229 13.1715 15.6137 13.1581 15.6075C13.1447 15.6013 13.1301 15.5983 13.1153 15.5988C12.9335 15.6134 12.7624 15.5543 12.5863 15.5259C12.2775 15.4637 11.9627 15.4381 11.648 15.4494C11.6055 15.453 11.5628 15.4437 11.5254 15.4229C11.4881 15.402 11.4576 15.3704 11.438 15.3322C11.3658 15.1915 11.2936 15.2025 11.1875 15.2921C11.1543 15.318 11.1146 15.3341 11.0728 15.3387C10.9566 15.3562 10.8563 15.3314 10.8808 15.1828C10.9104 14.973 10.7899 14.7668 10.8743 14.557C10.8844 14.5308 10.8786 14.4907 10.8389 14.4885C10.8278 14.4901 10.8171 14.4943 10.8079 14.5007C10.7986 14.5072 10.7909 14.5157 10.7855 14.5257C10.7632 14.5738 10.7588 14.6328 10.6953 14.6503C10.7058 14.5676 10.7431 14.4907 10.8014 14.4317C10.9515 14.1928 11.0504 13.9218 11.2345 13.7032L11.3066 13.6304C11.4156 13.6639 11.3637 13.7426 11.3485 13.8038C11.3225 13.9079 11.3579 13.956 11.4611 13.9852C11.8609 14.101 12.2738 14.1673 12.6664 14.3122C12.7756 14.3453 12.8901 14.3565 13.0035 14.345C13.1774 14.335 13.3491 14.388 13.4878 14.4944C13.7765 14.7078 14.0572 14.6204 14.1879 14.2904C14.1956 14.2645 14.2085 14.2405 14.2257 14.2198C14.243 14.1992 14.2642 14.1823 14.2882 14.1702C14.3387 14.1556 14.3885 14.1942 14.4397 14.1702C14.5155 14.1702 14.6007 14.0973 14.6628 14.1993C14.6577 14.2103 14.6534 14.227 14.6447 14.2299C14.3827 14.3195 14.3762 14.5454 14.3459 14.7705C14.2377 15.5667 14.1785 16.3681 14.0976 17.1665C14.0911 17.2335 14.1049 17.318 14.0103 17.3443C13.9555 17.2955 13.9627 17.2284 13.9583 17.1651C13.9879 16.9356 13.9446 16.693 14.0457 16.4693Z" fill="#4191CB"/>
<path d="M29.7478 14.5671C29.4281 13.9202 28.8622 13.5472 28.2661 13.2085C27.8344 12.9753 27.377 12.7944 26.9034 12.6694C26.8453 12.6564 26.7865 12.6471 26.7273 12.6417C26.6681 12.6475 26.6075 12.6562 26.6277 12.5615C26.7345 12.5025 26.8356 12.5462 26.9373 12.5761C27.1351 12.6592 27.348 12.6584 27.5544 12.6745C27.7933 12.6919 27.8785 12.5594 27.7962 12.3357C27.7053 12.0871 27.6407 11.8295 27.6035 11.5671C27.5652 11.2969 27.6143 11.0142 27.4794 10.7541C27.4645 10.7012 27.4663 10.645 27.4844 10.5931C27.5075 10.4751 27.4844 10.3746 27.3682 10.3199C27.339 10.3047 27.3137 10.2827 27.2945 10.2557C27.2754 10.2288 27.2628 10.1976 27.2578 10.1648C27.2101 9.96881 27.0896 9.82966 26.9402 9.6978C26.767 9.54555 26.6392 9.34448 26.4559 9.19805C26.443 9.185 26.4337 9.16884 26.4288 9.15112C26.4238 9.13339 26.4235 9.11469 26.4278 9.09679C26.4348 9.08529 26.4449 9.07599 26.4569 9.06995C26.4689 9.0639 26.4823 9.06134 26.4956 9.06255C26.7944 9.20461 27.0153 9.44938 27.2347 9.68323C27.5367 9.9938 27.8133 10.3285 28.0618 10.6842C28.6189 11.5028 29.0677 12.3913 29.397 13.3272C29.5327 13.6995 29.6136 14.0863 29.7428 14.4615C29.7489 14.4963 29.7506 14.5318 29.7478 14.5671Z" fill="#56AEE2"/>
<path d="M24.9958 31.813C24.9122 31.8134 24.8306 31.8388 24.7612 31.8858C24.7353 31.9068 24.7037 31.9193 24.6705 31.9217C24.6374 31.924 24.6043 31.9161 24.5757 31.8989C24.5093 31.8552 24.523 31.7831 24.5418 31.7176C24.7114 31.1187 24.8024 30.501 24.9496 29.8963C25.0528 29.4723 25.1502 29.0461 25.2239 28.6163C25.2715 28.3395 25.3285 28.0648 25.3834 27.7895C25.3935 27.737 25.3834 27.705 25.3191 27.7217C25.1892 27.7552 25.0571 27.7319 24.9265 27.7377C25.1726 27.6394 25.4397 27.6911 25.6908 27.6285L25.8272 27.5928C26.0394 27.5658 26.0943 27.6263 26.0171 27.8113C25.9292 28.0431 25.8738 28.2861 25.8525 28.5333C25.7803 29.111 25.6129 29.6661 25.4988 30.2336C25.4173 30.6416 25.3466 31.0517 25.278 31.4618C25.274 31.4916 25.2759 31.5219 25.2836 31.5509C25.2912 31.5799 25.3046 31.6071 25.3227 31.6309C25.3149 31.6428 25.3041 31.6524 25.2915 31.6588C25.2788 31.6652 25.2647 31.6681 25.2506 31.6673C25.1719 31.7234 25.0766 31.7511 24.9994 31.813H24.9958Z" fill="#91BBDB"/>
<path d="M29.7941 25.2739C29.6006 26.0556 29.2766 26.7855 28.928 27.5038C28.7163 27.9568 28.4651 28.3897 28.1773 28.7976C28.0951 28.9135 28.0128 29.0286 27.9269 29.1408C27.9038 29.1823 27.8807 29.2238 27.8222 29.2056C27.7407 29.1328 27.7804 29.049 27.8056 28.971C28.01 28.3355 28.155 27.6821 28.2387 27.0194C28.2806 26.7068 28.4935 26.5094 28.7107 26.3207C29.017 26.0624 29.2985 25.7756 29.5516 25.464C29.6107 25.3912 29.649 25.2987 29.7132 25.2265C29.7334 25.2039 29.7558 25.1792 29.7854 25.1959C29.815 25.2127 29.8042 25.2455 29.7941 25.2739Z" fill="#1B214D"/>
<path d="M17.1068 8.79175C17.2655 8.69785 17.4352 8.62443 17.6121 8.5732C17.6942 8.54047 17.7814 8.52223 17.8697 8.51929C17.9801 8.60015 17.921 8.67373 17.856 8.74221C17.8138 8.77536 17.7643 8.79761 17.7117 8.80705C17.5449 8.86241 17.5392 8.8799 17.6294 9.0256C17.6481 9.05692 17.6756 9.08752 17.6683 9.12467C17.6135 9.40515 17.76 9.65939 17.7672 9.93549C17.7758 10.2074 17.7999 10.4786 17.8394 10.7478C17.8611 10.8993 17.8777 11.0479 18.0004 11.1594C18.0228 11.1842 18.0394 11.2138 18.0492 11.2459C18.0589 11.278 18.0614 11.3119 18.0566 11.3451C18.0507 11.5327 18.0671 11.7203 18.1057 11.9039C18.1562 12.1385 18.2068 12.3731 18.2501 12.6084C18.2667 12.6943 18.3439 12.7286 18.4125 12.7679C18.4984 12.8167 18.5648 12.875 18.4846 12.9828C18.3826 13.0424 18.2661 13.0719 18.1483 13.0681C17.7997 13.0047 17.7088 12.7417 17.6611 12.4386C17.607 12.0926 17.5023 11.7567 17.4446 11.4107C17.4035 11.1543 17.3349 10.9008 17.3385 10.6407C17.3357 10.55 17.3189 10.4603 17.2887 10.3748C17.2362 10.1764 17.2047 9.97301 17.1949 9.76794C17.179 9.5676 17.2035 9.35998 17.065 9.17931C16.9863 9.07586 17.0743 8.98334 17.1509 8.91486C17.2274 8.84638 17.1848 8.82817 17.1184 8.81142L17.1068 8.79175Z" fill="#3D88C2"/>
<path d="M25.3234 31.6325C25.2454 31.6288 25.174 31.6485 25.2079 31.5079C25.2844 31.1881 25.3306 30.861 25.3934 30.5383C25.4655 30.174 25.5197 29.8032 25.6222 29.4455C25.7571 28.9764 25.7817 28.4883 25.8986 28.0169C25.9115 27.9464 25.932 27.8775 25.9599 27.8115C26.0473 27.633 26.0364 27.6104 25.8279 27.5929C26.0259 27.5306 26.2312 27.4944 26.4385 27.4851C26.4753 27.5281 26.4594 27.5762 26.4493 27.6228C26.2681 28.4292 26.1065 29.2393 25.9441 30.0494C25.8769 30.3802 25.7831 30.7051 25.7362 31.0402C25.7175 31.1226 25.6912 31.2031 25.6575 31.2806C25.825 31.2697 25.9058 31.0621 26.0841 31.1225C25.8618 31.344 25.5875 31.4817 25.3234 31.6325Z" fill="#7DA3C7"/>
<path d="M26.081 31.1247C25.9323 31.1735 25.8146 31.2784 25.6833 31.3578C25.6544 31.3753 25.6306 31.419 25.593 31.3876C25.5555 31.3563 25.5728 31.3199 25.5858 31.2856C25.7937 30.7466 25.8363 30.1689 25.9741 29.6145C26.1502 28.9093 26.239 28.1859 26.4382 27.4872C26.5934 27.3852 26.7327 27.2454 26.9434 27.2687C26.9488 27.2891 26.9492 27.3106 26.9446 27.3312C26.9401 27.3519 26.9308 27.3711 26.9175 27.3874C26.8065 27.6029 26.7351 27.8369 26.7067 28.0781C26.6215 28.7148 26.431 29.3282 26.3105 29.9569C26.2688 30.1268 26.2446 30.3006 26.2383 30.4756C26.2383 30.6409 26.117 30.7779 26.1315 30.9454C26.2664 30.9454 26.3184 30.7327 26.4837 30.7997C26.3716 30.9334 26.2348 31.0437 26.081 31.1247Z" fill="#6C8FB7"/>
<path d="M26.4787 30.7975C26.3495 30.815 26.294 30.9432 26.1843 30.992C26.1503 31.0073 26.1121 31.024 26.0825 31.0036C26.0529 30.9832 26.0825 30.9505 26.0825 30.9235C26.1655 30.4733 26.2268 30.018 26.3365 29.5758C26.4881 28.9675 26.5956 28.3519 26.7256 27.7407C26.7573 27.5677 26.8317 27.4055 26.9421 27.2693C27.0917 27.1584 27.2645 27.0836 27.4473 27.0508C27.4526 27.0684 27.4518 27.0874 27.4451 27.1046C27.4385 27.1217 27.4263 27.1361 27.4105 27.1455C27.2012 27.2977 27.1637 27.536 27.1066 27.7625C26.9053 28.5588 26.7559 29.3652 26.613 30.1746C26.5863 30.3203 26.5141 30.4602 26.5069 30.6248C26.639 30.5357 26.7601 30.431 26.8678 30.313C26.991 30.2028 27.1054 30.083 27.2099 29.9546C27.223 29.9313 27.2411 29.9112 27.2628 29.8957C27.2845 29.8802 27.3093 29.8698 27.3354 29.865C27.3531 29.8665 27.3695 29.8746 27.3816 29.8876C27.122 30.23 26.8184 30.536 26.4787 30.7975Z" fill="#5A7BA5"/>
<path d="M9.53527 21.7036L9.55187 21.8136C9.57713 21.8602 9.61177 21.9047 9.58867 21.9637C9.64858 22.6339 9.83119 23.275 10.0297 23.9146C10.3815 25.031 10.8944 26.089 11.5518 27.0545C11.5961 27.1038 11.6259 27.1646 11.6377 27.23C11.4096 27.0341 11.2877 26.7616 11.1325 26.5125C10.7074 25.8096 10.3551 25.0646 10.0809 24.2891C9.93316 23.8766 9.81119 23.4552 9.7157 23.0273C9.63703 22.6813 9.57135 22.3345 9.52083 21.9834C9.51361 21.8894 9.48186 21.7947 9.53527 21.7036Z" fill="#B4DFEE"/>
<path d="M28.0621 10.6843C27.873 10.4708 27.6673 10.2698 27.4977 10.041C27.2198 9.66584 26.8655 9.37663 26.5096 9.08596C26.2931 8.98542 26.1192 8.82442 25.9135 8.71151C25.7691 8.62263 25.6248 8.53958 25.4804 8.45872C25.427 8.42885 25.3498 8.41501 25.3592 8.32467L25.3642 8.31812C25.6024 8.3662 25.7973 8.50607 25.9958 8.6321C26.4565 8.91164 26.8796 9.25003 27.2545 9.63889C27.5119 9.91516 27.7541 10.2055 27.9798 10.5087C28.0261 10.5562 28.0551 10.6181 28.0621 10.6843Z" fill="#A7D9F6"/>
<path d="M30.3653 22.1414H30.3313C30.3137 22.1249 30.3004 22.1042 30.2927 22.0812C30.285 22.0581 30.2832 22.0335 30.2873 22.0096C30.3443 21.3823 30.3494 20.7536 30.3443 20.1249C30.3761 19.9064 30.3017 19.6878 30.3443 19.4693C30.3761 19.3076 30.2981 19.1327 30.4028 18.9797C30.4649 19.3141 30.4461 19.6536 30.4569 19.9909C30.4729 20.6442 30.4546 21.2978 30.4021 21.9491C30.3936 22.0139 30.3813 22.0781 30.3653 22.1414Z" fill="#4395CE"/>
<path d="M29.7945 25.274C29.7685 25.1727 29.7432 25.2318 29.7151 25.274C29.5806 25.4639 29.436 25.6463 29.282 25.8204C29.1211 26.0105 28.9212 26.1548 28.7487 26.3245C28.6765 26.3536 28.6462 26.4374 28.5668 26.452C28.5585 26.4508 28.5505 26.4478 28.5436 26.4431C28.5366 26.4385 28.5307 26.4323 28.5264 26.425C28.7133 26.2597 28.9031 26.0965 29.0864 25.9267C29.3708 25.6624 29.61 25.3525 29.7945 25.0096C29.8134 24.9796 29.8354 24.9518 29.8602 24.9265C29.9186 24.9535 29.8789 25.0045 29.8977 25.0372C29.8616 25.1159 29.8277 25.1953 29.7945 25.274Z" fill="#326092"/>
<path d="M30.403 18.9753L30.3944 19.4853C30.3049 19.4656 30.3128 19.3869 30.3135 19.3265C30.3135 19.0489 30.2948 18.7728 30.2753 18.4967C30.2781 18.2455 30.2619 17.9944 30.2269 17.7456C30.2024 17.5897 30.1959 17.4302 30.1605 17.275C30.1485 17.2442 30.1441 17.2109 30.1477 17.178C30.1514 17.1451 30.163 17.1136 30.1815 17.0863C30.1815 17.0003 30.1764 16.9151 30.1735 16.8291C30.1718 16.8258 30.1708 16.8221 30.1706 16.8183C30.1704 16.8146 30.1711 16.8108 30.1725 16.8073C30.174 16.8038 30.1762 16.8007 30.179 16.7982C30.1818 16.7957 30.1851 16.7938 30.1887 16.7927C30.2724 17.0652 30.2782 17.3486 30.3078 17.6283C30.3561 18.0771 30.3944 18.5258 30.403 18.9753Z" fill="#3578B2"/>
<path d="M9.50623 21.1251C9.45643 21.029 9.47736 20.9241 9.47447 20.8235C9.44679 20.0104 9.47332 19.1963 9.55387 18.3867C9.55996 18.3515 9.56914 18.3168 9.5813 18.2832C9.58571 18.2808 9.59059 18.2792 9.59562 18.2787C9.60065 18.2782 9.60572 18.2788 9.61053 18.2804C9.61534 18.2819 9.61977 18.2845 9.62356 18.2879C9.62735 18.2913 9.6304 18.2954 9.63254 18.3C9.65419 18.4246 9.62171 18.5484 9.63254 18.6723C9.59068 19.0751 9.59934 19.4809 9.56036 19.8838C9.56036 20.0069 9.56036 20.1293 9.56036 20.2524C9.52636 20.4181 9.51422 20.5876 9.52428 20.7565C9.51273 20.8789 9.55026 21.0042 9.50623 21.1251Z" fill="#2E6BA1"/>
<path d="M19.9528 32.216C19.5792 32.1651 19.2095 32.0884 18.8463 31.9865C18.4618 31.8986 18.0842 31.782 17.7168 31.6375C17.724 31.6302 17.7305 31.6222 17.737 31.6149C17.7672 31.6015 17.7999 31.5945 17.833 31.5945C17.8661 31.5945 17.8988 31.6015 17.929 31.6149C18.5756 31.8186 19.2336 31.9838 19.8994 32.1096C19.9643 32.1212 20.0502 32.114 20.069 32.2109C20.0519 32.2224 20.0321 32.2289 20.0116 32.2298C19.9911 32.2307 19.9707 32.2259 19.9528 32.216Z" fill="#3B81C1"/>
<path d="M30.1889 16.7897L30.1738 16.8262C30.1559 16.8152 30.1409 16.8 30.1302 16.7818C30.1195 16.7636 30.1134 16.7431 30.1124 16.722C30.0756 16.2528 29.976 15.7939 29.8959 15.332C29.8627 15.1499 29.779 14.9765 29.7963 14.7842C29.9406 15.1863 29.9991 15.6088 30.0792 16.0226C30.124 16.2798 30.155 16.5377 30.1889 16.7897Z" fill="#215285"/>
<path d="M9.61474 18.2855C9.60372 18.287 9.59256 18.287 9.58154 18.2855C9.5736 17.9752 9.66454 17.6801 9.73167 17.3829C9.82405 16.9742 9.91354 16.5626 10.0817 16.1758L10.1034 16.1947C10.1683 16.3987 10.0131 16.559 9.99582 16.7462C9.99149 16.7921 9.95901 16.8336 9.95324 16.8824C9.92437 17.0281 9.87385 17.1738 9.84209 17.3232C9.79013 17.592 9.71506 17.8557 9.68836 18.1296C9.67031 18.1828 9.66598 18.2469 9.61474 18.2855Z" fill="#3A83BC"/>
<path d="M20.3133 7.70264C20.3516 7.70774 20.3963 7.69681 20.4237 7.73833C20.4149 7.75797 20.4013 7.77499 20.3841 7.78775C20.3669 7.80051 20.3468 7.80858 20.3256 7.81118C19.9647 7.84542 19.6327 7.99185 19.2769 8.0341C19.2613 8.03396 19.246 8.03043 19.2319 8.02377C19.2179 8.01711 19.2054 8.00746 19.1953 7.99549C19.5554 7.85413 19.9306 7.75584 20.3133 7.70264Z" fill="#8ACEF1"/>
<path d="M19.1953 7.99316L19.2718 7.99899C19.261 8.08641 19.183 8.08058 19.1275 8.10462C18.8496 8.17782 18.5769 8.26957 18.3112 8.37927C18.2762 8.39367 18.2377 8.39697 18.2007 8.38874C18.1825 8.38333 18.1666 8.37207 18.1553 8.35669C18.2491 8.25251 18.387 8.24596 18.506 8.2037C18.7319 8.12065 18.9543 8.02522 19.1953 7.99316Z" fill="#77C7EF"/>
<path d="M16.8208 31.3017C16.8116 31.2805 16.7967 31.2625 16.7778 31.2496C16.7589 31.2367 16.7368 31.2295 16.7139 31.2288C16.6714 31.1319 16.7435 31.1035 16.8085 31.0831C16.8294 31.0724 16.8522 31.0661 16.8756 31.0646C16.899 31.063 16.9224 31.0663 16.9445 31.0741C16.9667 31.0819 16.987 31.0942 17.0043 31.1101C17.0216 31.1261 17.0355 31.1454 17.0452 31.1669C16.9629 31.2776 17.0893 31.3221 17.1174 31.3985L17.108 31.4204C17.0055 31.4 16.908 31.3597 16.8208 31.3017Z" fill="#3B81C1"/>
<path d="M27.3792 29.889L27.3367 29.8825C27.3253 29.8691 27.3192 29.852 27.3193 29.8344C27.4435 29.6406 27.5691 29.4476 27.7683 29.3201C27.7856 29.3224 27.8015 29.3309 27.813 29.3441C27.6912 29.5431 27.5455 29.7261 27.3792 29.889Z" fill="#486691"/>
<path d="M11.2368 13.7046C11.0924 13.9479 10.9841 14.2145 10.8037 14.4331C10.9003 14.1721 11.0341 13.9267 11.2007 13.7046H11.2368Z" fill="#4C9FD5"/>
<path d="M14.4806 29.9918C14.5045 30.0165 14.5275 30.0413 14.5528 30.0646C14.2988 29.9597 14.1017 29.7732 13.8975 29.5977C14.132 29.6705 14.2764 29.8738 14.4806 29.9918Z" fill="#54A7DD"/>
<path d="M19.9521 32.2159L20.0597 32.2057C20.0855 32.1875 20.1151 32.1754 20.1463 32.1705C20.1774 32.1656 20.2093 32.1679 20.2394 32.1773C20.3145 32.1937 20.3908 32.2039 20.4675 32.2079C20.5397 32.2232 20.6263 32.2225 20.645 32.3238C20.6272 32.3347 20.6067 32.3405 20.5858 32.3405C20.565 32.3405 20.5445 32.3347 20.5267 32.3238C20.3304 32.3216 20.136 32.2851 19.9521 32.2159Z" fill="#6BA7D8"/>
<path d="M18.1543 8.35669C18.1648 8.36095 18.1757 8.36389 18.1868 8.36543C18.124 8.5053 17.9826 8.50021 17.8656 8.53954C17.7862 8.58981 17.6989 8.57597 17.6123 8.57524C17.7807 8.47444 17.9635 8.40071 18.1543 8.35669Z" fill="#499DD4"/>
<path d="M17.7168 31.6374C17.5051 31.5928 17.3004 31.5193 17.1084 31.4189L17.1127 31.4123C17.2989 31.3569 17.6266 31.475 17.7241 31.6309L17.7168 31.6374Z" fill="#3B81C1"/>
<path d="M10.082 16.1736C10.1217 15.9686 10.1948 15.7716 10.2986 15.5908L10.3101 15.6032C10.3101 15.8218 10.2877 16.0352 10.0936 16.1816L10.082 16.1736Z" fill="#3A83BC"/>
<path d="M14.5908 30.1047C14.7701 30.1585 14.9302 30.2632 15.052 30.4063C14.8814 30.335 14.7251 30.2328 14.5908 30.1047Z" fill="#54A7DD"/>
<path d="M9.50684 21.1251L9.51622 20.7565C9.52705 20.7426 9.53643 20.7426 9.54437 20.7565C9.53138 21.01 9.57829 21.2664 9.51911 21.5163C9.51333 21.3874 9.51333 21.2562 9.50684 21.1251Z" fill="#295F96"/>
<path d="M20.5273 32.3246L20.6435 32.3158C20.7345 32.2466 20.8298 32.2918 20.9229 32.3056L20.9806 32.3093C21.0427 32.3224 21.125 32.2961 21.1452 32.3916L21.0326 32.3981C20.8616 32.397 20.6916 32.3723 20.5273 32.3246Z" fill="#7FB4E0"/>
<path d="M16.7129 9.0103C16.7147 8.99896 16.7147 8.9874 16.7129 8.97606C16.834 8.89298 16.9679 8.8307 17.1091 8.79175L17.1149 8.79976C17.0803 8.94546 16.9359 8.94109 16.8392 9.00156C16.7959 9.01467 16.7555 9.03798 16.7129 9.0103Z" fill="#3D88C2"/>
<path d="M27.9131 29.1169C28.004 29.0142 28.0509 28.8743 28.1736 28.7979C28.1247 28.9215 28.051 29.0336 27.9571 29.1271C27.9537 29.1299 27.9498 29.1318 27.9455 29.1328C27.9413 29.1337 27.9369 29.1337 27.9327 29.1327C27.9284 29.1318 27.9245 29.1298 27.9211 29.1271C27.9177 29.1244 27.915 29.1209 27.9131 29.1169Z" fill="#243967"/>
<path d="M27.9123 29.1169L27.9578 29.1271C27.9368 29.2182 27.8632 29.2728 27.8134 29.3457L27.7701 29.3384C27.7656 29.3245 27.7638 29.3099 27.765 29.2953C27.7662 29.2808 27.7703 29.2666 27.777 29.2537C27.7838 29.2408 27.793 29.2294 27.8042 29.2201C27.8154 29.2109 27.8284 29.2041 27.8423 29.2L27.9123 29.1169Z" fill="#344F7D"/>
<path d="M24.998 31.8122C25.0599 31.7326 25.1499 31.6803 25.2492 31.6665C25.1872 31.7459 25.0972 31.7981 24.998 31.8122Z" fill="#A6D3F1"/>
<path d="M30.3971 20.1016C30.4173 20.6844 30.3885 21.2672 30.3632 21.8551C30.3589 21.9505 30.3091 22.0416 30.3315 22.1399L30.325 22.3585C30.2001 22.3359 30.2145 22.231 30.2088 22.1457C30.1777 21.7218 30.1792 21.7276 29.7613 21.7196C29.4148 21.713 29.0677 21.7101 28.722 21.7079C28.4029 21.7079 28.0796 21.7079 27.7591 21.6773C27.5931 21.6628 27.4279 21.7196 27.2611 21.7341C27.0121 21.766 26.7594 21.7515 26.5156 21.6912C26.3272 21.638 26.1136 21.6642 25.9107 21.6577C25.8306 21.6577 25.7873 21.7218 25.7418 21.78C25.6964 21.8383 25.6459 21.8842 25.5737 21.842C25.4755 21.7837 25.42 21.8179 25.3781 21.9148C25.3725 21.9292 25.3624 21.9414 25.3494 21.9497C25.3365 21.9579 25.3212 21.9618 25.3059 21.9607C25.2547 21.952 25.2698 21.9068 25.2677 21.874C25.2716 21.7835 25.268 21.6929 25.2568 21.603V21.5302C25.3139 21.3568 25.3023 21.1768 25.3038 20.9976C25.3038 20.6756 25.2482 20.3551 25.2705 20.0324C25.2636 19.9547 25.2732 19.8765 25.2987 19.8029C25.3038 19.7931 25.3119 19.7853 25.3218 19.7805C25.3317 19.7758 25.3428 19.7744 25.3535 19.7767C25.4625 19.9173 25.3853 20.0724 25.3918 20.1992C25.402 20.0262 25.4326 19.855 25.4827 19.6892C25.539 19.5326 25.6076 19.5137 25.7281 19.6288C25.7532 19.6537 25.7832 19.6731 25.8161 19.6856C25.8491 19.6981 25.8843 19.7036 25.9194 19.7016C26.4333 19.7016 26.9457 19.6565 27.4618 19.6871C27.8746 19.7117 28.2887 19.7039 28.7003 19.6637C29.1543 19.6186 29.609 19.7038 30.0644 19.7002C30.1315 19.6983 30.1969 19.7213 30.2483 19.7648C30.2998 19.8083 30.3337 19.8692 30.3437 19.9362C30.3537 19.9936 30.3717 20.0493 30.3971 20.1016Z" fill="#3578B2"/>
<path d="M25.2585 21.598C25.3307 21.6993 25.2535 21.8217 25.3025 21.9281C25.3646 21.9179 25.3509 21.8669 25.361 21.8297C25.3942 21.6971 25.457 21.6643 25.5544 21.7758C25.6151 21.8487 25.6786 21.8428 25.6988 21.7605C25.7616 21.5347 25.9341 21.5864 26.0791 21.6068C26.1889 21.6337 26.3035 21.6337 26.4133 21.6068C26.4327 21.598 26.4538 21.5939 26.475 21.5949C26.4962 21.5959 26.5169 21.602 26.5353 21.6126C26.7518 21.7649 26.9806 21.6855 27.2094 21.6855C27.4606 21.6855 27.7081 21.5441 27.9615 21.6629C28.3274 21.5325 28.6962 21.719 29.073 21.6447C29.3898 21.5813 29.7225 21.6847 30.0545 21.6731C30.2162 21.6673 30.2429 21.8071 30.2552 21.9419C30.2675 22.0767 30.2047 22.2333 30.3223 22.3571C30.2898 22.7942 30.1974 23.2146 30.1375 23.6743C29.9852 23.549 30.0033 23.4222 30.0062 23.2904C29.9701 23.369 29.934 23.447 29.8986 23.5264C29.8849 23.5599 29.8813 23.608 29.8409 23.6087C29.8005 23.6094 29.7738 23.565 29.7543 23.5264C29.7348 23.4878 29.7095 23.4419 29.6901 23.3989C29.6431 23.2962 29.5854 23.294 29.5161 23.3763C29.4598 23.4441 29.3963 23.4492 29.3082 23.4339C29.1155 23.4025 28.9178 23.3953 28.7222 23.3778C28.6893 23.373 28.6558 23.3753 28.6238 23.3844C28.5919 23.3936 28.5622 23.4095 28.5367 23.431C28.4869 23.4758 28.4268 23.5072 28.3619 23.5225C28.297 23.5378 28.2293 23.5364 28.165 23.5184C27.9485 23.4659 27.7233 23.479 27.5003 23.4084C27.237 23.3263 26.9582 23.3088 26.6869 23.3574C26.5006 23.3909 26.3087 23.3821 26.1326 23.4783C26.064 23.5024 25.9891 23.5006 25.9218 23.4732C25.883 23.4573 25.8406 23.4519 25.7991 23.4577C25.7576 23.4634 25.7182 23.4801 25.6851 23.506C25.5624 23.6014 25.5003 23.5439 25.4685 23.4215C25.4563 23.38 25.4563 23.3304 25.4072 23.3224C25.3581 23.3144 25.3487 23.3734 25.3264 23.4055C25.2643 23.4914 25.2643 23.6109 25.1669 23.7078C25.1185 23.5118 25.1568 23.3319 25.1387 23.157C25.1365 22.6332 25.2361 22.1189 25.2585 21.598Z" fill="#4395CE"/>
<path d="M26.9072 30.3239C26.7809 30.5024 26.5968 30.6153 26.4258 30.7472C26.5499 30.2671 26.6492 29.7808 26.7231 29.2902C26.8126 28.7518 26.9599 28.2273 27.071 27.694C27.1244 27.4369 27.2154 27.2001 27.4456 27.0493C27.5931 26.9594 27.7488 26.8838 27.9104 26.8235C27.914 26.8322 27.9169 26.8417 27.9205 26.8504C27.9109 26.8761 27.8963 26.8995 27.8776 26.9194C27.8588 26.9393 27.8364 26.9552 27.8115 26.9663C27.595 27.0872 27.5041 27.2912 27.4687 27.5163C27.3561 28.2331 27.18 28.9376 27.0566 29.6523C27.0191 29.8796 26.9137 30.0908 26.9072 30.3239Z" fill="#486691"/>
<path d="M27.9111 26.8263C28.0129 26.7149 28.1529 26.6617 28.2763 26.583C28.2819 26.5893 28.2862 26.5967 28.2889 26.6047C28.2916 26.6127 28.2928 26.6212 28.2922 26.6296C28.2511 26.7375 28.1363 26.7542 28.062 26.8205C28.0151 26.8416 27.9689 26.8744 27.9176 26.8336L27.9111 26.8263Z" fill="#486691"/>
<path d="M28.2783 26.6188C28.2783 26.6064 28.2783 26.5948 28.2783 26.5831C28.3548 26.5227 28.4227 26.4469 28.5237 26.425L28.5338 26.4374C28.4985 26.5715 28.4183 26.6392 28.2783 26.6188Z" fill="#326092"/>
<path d="M14.22 25.738C14.2294 25.7962 14.2561 25.8647 14.1969 25.9033C14.1378 25.9419 14.0995 25.8764 14.0526 25.8538C13.9162 25.7846 13.7812 25.7117 13.6455 25.6411C13.024 25.3192 12.4327 24.9413 11.8787 24.5119C11.8693 24.5134 11.8597 24.5118 11.8513 24.5075C11.7192 24.3975 11.5842 24.289 11.4608 24.1724C11.3583 24.0486 11.2601 23.9211 11.1136 23.8453C11.0775 23.8213 11.0415 23.7987 11.0581 23.7448C11.0613 23.7115 11.0557 23.6779 11.0417 23.6475C11.0277 23.6171 11.006 23.5911 10.9787 23.5721C10.9011 23.5043 10.8499 23.4108 10.8343 23.3084C10.8329 23.2689 10.8218 23.2305 10.8019 23.1965C10.7819 23.1625 10.7539 23.1341 10.7203 23.1139C10.6891 23.0939 10.6667 23.0626 10.6577 23.0264C10.6487 22.9902 10.6538 22.9519 10.6719 22.9194C10.7044 22.8356 10.7636 22.9106 10.8062 22.9194C11.0025 22.9777 11.1959 23.0418 11.3908 23.1037C11.4496 23.1329 11.5137 23.15 11.5792 23.154C11.7957 23.127 11.9841 23.2669 12.197 23.2356C12.209 23.2346 12.2211 23.2362 12.2324 23.2404C12.2437 23.2445 12.254 23.2511 12.2626 23.2596C12.4561 23.4781 12.713 23.4053 12.9512 23.4104C12.9957 23.4063 13.0406 23.413 13.082 23.43C13.1235 23.447 13.1603 23.4737 13.1894 23.508C13.2087 23.5426 13.2405 23.5682 13.2782 23.5797C13.3159 23.5911 13.3565 23.5873 13.3915 23.5692C13.4889 23.527 13.5459 23.6078 13.5986 23.6741C13.6513 23.7404 13.6823 23.8562 13.7827 23.7899C13.8252 23.7612 13.8581 23.7201 13.877 23.6721C13.8959 23.6242 13.9 23.5715 13.8887 23.5211C13.8489 23.3563 13.8536 23.1837 13.9025 23.0214C13.9144 22.9972 13.935 22.9787 13.9602 22.9696C13.9414 23.1838 13.9869 23.3907 13.997 23.6005C14.0071 23.8103 14.0345 24.0478 14.0641 24.2708C14.1038 24.5753 14.1464 24.8783 14.1565 25.1858C14.1618 25.3713 14.183 25.5561 14.22 25.738Z" fill="#223161"/>
<path d="M11.4899 24.141C11.5888 24.2867 11.7729 24.3392 11.8508 24.5053C11.6639 24.4514 11.5462 24.2977 11.4077 24.1789C10.7969 23.6618 10.2672 23.0544 9.8364 22.3773C9.75051 22.2418 9.67112 22.1027 9.58812 21.965C9.5723 21.9438 9.56088 21.9196 9.55456 21.8938C9.54823 21.868 9.54713 21.8412 9.55132 21.8149C9.72093 21.8878 9.73825 22.0699 9.82197 22.2018C10.0724 22.5959 10.3171 22.9929 10.6368 23.3368C10.7696 23.4825 10.8685 23.6588 11.0576 23.7426C11.0814 23.7666 11.106 23.7906 11.1298 23.8154C11.2655 23.905 11.3542 24.0493 11.4899 24.141Z" fill="#214F83"/>
<path d="M11.8779 24.512C12.0078 24.5506 12.1017 24.6467 12.2063 24.7247C12.6442 25.0342 13.0995 25.3181 13.5697 25.5748C13.6 25.5923 13.6376 25.6025 13.6462 25.6477L13.4723 25.6003C13.1042 25.3716 12.718 25.1734 12.3694 24.9148C12.2006 24.783 11.997 24.697 11.8779 24.512Z" fill="#214F83"/>
<path d="M25.2889 18.1091V17.9925C25.2983 17.6152 25.2319 17.2415 25.2305 16.8648C25.2305 16.8291 25.2203 16.792 25.2463 16.7614C25.3091 16.7927 25.2658 16.8641 25.3019 16.9071C25.3986 16.8131 25.3957 16.6936 25.3936 16.5734C25.3914 16.4532 25.4398 16.3767 25.5754 16.3913C25.6532 16.3991 25.7317 16.3879 25.8042 16.3585C25.9746 16.2922 26.1456 16.3505 26.316 16.352C27.299 16.3592 28.282 16.3563 29.265 16.352C29.3697 16.352 29.4736 16.3192 29.5761 16.3818C29.6011 16.3933 29.6289 16.3971 29.6559 16.3927C29.683 16.3883 29.7082 16.3759 29.7284 16.3571C29.8648 16.2485 29.9052 16.3206 29.9391 16.4576C29.9722 16.6285 30.0161 16.7972 30.0705 16.9624C30.0943 17.0236 30.1073 17.0754 30.1809 17.0812C30.2372 17.5409 30.3087 17.9984 30.3253 18.4653C30.2531 18.5091 30.2141 18.4537 30.1737 18.4114C30.1333 18.3692 30.0842 18.2978 30.0387 18.2424C29.854 18.0173 29.8453 18.0151 29.5768 18.1164C29.515 18.1403 29.4488 18.1508 29.3827 18.147C28.282 18.0858 27.1799 18.1339 26.0785 18.12C25.9342 18.12 25.8006 18.1892 25.6519 18.1623C25.5906 18.1514 25.5682 18.2198 25.5509 18.2723C25.5264 18.3451 25.5141 18.4246 25.491 18.4996C25.4679 18.5746 25.4564 18.6453 25.3647 18.6562C25.2803 18.5724 25.3452 18.4595 25.3106 18.3648C25.2889 18.2832 25.3257 18.1929 25.2889 18.1091Z" fill="#215285"/>
<path d="M24.6332 12.6877C24.6253 12.5733 24.5235 12.4801 24.561 12.3562C24.5394 12.2593 24.6007 12.2666 24.6657 12.2659C24.8208 12.2659 24.9731 12.3016 25.1269 12.3038C25.4656 12.3082 25.803 12.3494 26.133 12.4269C26.2867 12.5034 26.4816 12.4473 26.618 12.5799C26.6548 12.601 26.6902 12.6214 26.7299 12.6418C26.7934 12.7205 26.8908 12.7103 26.9731 12.7372C27.4571 12.8847 27.9222 13.0891 28.3589 13.3462C28.4895 13.4264 28.6079 13.5218 28.7464 13.5932C28.8742 13.6588 29.0063 13.7425 29.0113 13.9451C29.0113 14.0908 29.1932 14.1702 29.2791 14.2904C29.3267 14.3559 29.3917 14.4186 29.3448 14.498C29.2979 14.5774 29.2004 14.5475 29.1282 14.5286C28.9709 14.4856 28.7912 14.5002 28.6728 14.3501C28.6548 14.3333 28.6324 14.322 28.6083 14.3174C28.5841 14.3129 28.5592 14.3154 28.5364 14.3246C28.3199 14.3836 28.0961 14.3465 27.876 14.3589C27.6155 14.3742 27.3571 14.3326 27.0951 14.4193C26.9255 14.4754 26.7291 14.4106 26.5451 14.4011C26.1597 14.38 25.7678 14.4281 25.3903 14.3778C25.124 14.3428 25.2286 14.4353 25.2719 14.557C25.303 14.643 25.1362 14.855 25.0395 14.8659C24.963 14.761 24.9948 14.632 24.9638 14.5177C24.9672 14.4003 24.9495 14.2834 24.9118 14.1724C24.8846 14.0776 24.8702 13.9796 24.8692 13.881C24.7855 13.4847 24.7422 13.0796 24.6332 12.6877Z" fill="#1E2A58"/>
<path d="M24.8866 13.886C24.9011 13.9829 24.9162 14.0805 24.9307 14.1774C24.9605 14.2843 24.9822 14.3934 24.9956 14.5037C24.9797 14.6276 25.0317 14.7441 25.0375 14.868C25.0779 15.206 25.1161 15.5448 25.1587 15.8828C25.1667 15.9476 25.1999 16.011 25.1428 16.0686C25.0596 15.4678 24.9768 14.8668 24.8946 14.2655C24.878 14.1417 24.8318 14.0207 24.8498 13.8918C24.8514 13.8884 24.8537 13.8855 24.8566 13.8832C24.8596 13.881 24.863 13.8795 24.8667 13.8789C24.8703 13.8784 24.874 13.8787 24.8775 13.8799C24.881 13.8812 24.8841 13.8832 24.8866 13.886Z" fill="#215285"/>
<path d="M25.247 16.7614C25.2535 17.0746 25.2781 17.385 25.3149 17.6961C25.3264 17.7915 25.356 17.8993 25.2896 17.9926C25.2275 17.7507 25.2586 17.5023 25.2333 17.2575C25.1936 16.8758 25.1727 16.4918 25.1445 16.1094C25.188 16.2544 25.2123 16.4045 25.2167 16.5559C25.2203 16.6252 25.1958 16.6995 25.247 16.7614Z" fill="#3578B2"/>
<path d="M19.1258 8.06969L19.2702 7.99684C19.6504 7.88986 20.0358 7.80281 20.425 7.73604L21.0024 7.63696C21.0572 7.66173 21.1215 7.63259 21.1864 7.66829C21.1576 7.76154 21.081 7.77829 21.006 7.78704C20.7869 7.81518 20.5708 7.86396 20.3607 7.93274C20.2496 7.96698 20.1955 8.01214 20.2929 8.1185C20.3243 8.152 20.3434 8.19526 20.3472 8.2412C20.351 8.28713 20.3393 8.33301 20.3138 8.37129C20.252 8.49764 20.2377 8.64231 20.2734 8.77853C20.3365 9.0305 20.3807 9.28694 20.4055 9.54564C20.4058 9.58533 20.4159 9.62431 20.435 9.65904C20.454 9.69378 20.4813 9.72316 20.5145 9.74452C20.6862 9.85088 20.7158 10.0126 20.6725 10.1882C20.6303 10.3654 20.6411 10.5512 20.7036 10.7222C20.7649 10.8945 20.7774 11.0807 20.7397 11.2598C20.7194 11.343 20.726 11.4305 20.7584 11.5097C20.8351 11.6608 20.8714 11.8296 20.8638 11.9992C20.853 12.1063 20.9901 12.2054 21.1474 12.1857C21.369 12.1588 21.5899 12.2032 21.8107 12.1704C21.8973 12.158 22.0208 12.1435 21.9717 12.3103L21.2889 12.3919C21.0434 12.4515 20.794 12.4931 20.5426 12.5165C20.2539 12.5813 19.9652 12.6432 19.6722 12.6935C19.4636 12.625 19.2644 12.5689 19.3055 12.2608C19.3193 12.1595 19.2731 12.0276 19.2543 11.9096C19.2067 11.6146 19.1251 11.3268 19.1684 11.0194C19.1807 10.9283 19.1143 10.8365 19.0782 10.7469C19.0081 10.5925 18.9785 10.4224 18.9923 10.253C18.9945 10.1437 18.9746 10.0352 18.9338 9.93393C18.8572 9.71269 18.8136 9.48115 18.8047 9.24695C18.8047 9.05099 18.7195 8.84919 18.6545 8.65395C18.5824 8.42666 18.6119 8.3509 18.8241 8.25765C18.9293 8.20293 19.0302 8.14009 19.1258 8.06969Z" fill="#54A9DF"/>
<path d="M21.971 12.3154C21.9754 12.1828 21.8779 12.2018 21.8086 12.2185C21.5741 12.2753 21.3381 12.2185 21.1013 12.2426C20.9072 12.2637 20.7975 12.1129 20.8177 11.9249C20.8177 11.8892 20.8328 11.8426 20.8177 11.8178C20.6077 11.5068 20.7672 11.1425 20.6733 10.8198C20.5936 10.5883 20.5806 10.3387 20.6358 10.1C20.6676 9.97692 20.6416 9.84652 20.4799 9.79771C20.4449 9.78562 20.4146 9.76258 20.3934 9.73192C20.3723 9.70126 20.3614 9.66459 20.3623 9.62724C20.3803 9.4167 20.2807 9.22583 20.2822 9.0204C20.2822 8.89728 20.1919 8.80184 20.2056 8.66999C20.2194 8.53813 20.2056 8.43031 20.2886 8.32686C20.3002 8.31453 20.3088 8.29973 20.3139 8.28356C20.319 8.26739 20.3205 8.25028 20.3181 8.23348C20.3157 8.21668 20.3097 8.20063 20.3003 8.18653C20.291 8.17243 20.2786 8.16063 20.2641 8.15202C20.2158 8.11414 20.132 8.09811 20.1696 8.00632C20.2071 7.91453 20.2843 7.90943 20.3673 7.88029C20.6228 7.79068 20.892 7.76664 21.1677 7.70691C21.1107 7.64498 21.0407 7.69088 21.0039 7.63988L21.1814 7.63114C21.4102 7.59763 21.4824 7.64717 21.5207 7.86062C21.652 8.59349 21.7682 9.32855 21.8924 10.0622C21.9927 10.6588 22.1089 11.2518 22.2237 11.8463C22.233 11.8994 22.2359 11.9541 22.2446 12.008C22.2691 12.1675 22.2078 12.2622 22.0475 12.2885C22.0396 12.3009 22.0278 12.3104 22.0139 12.3153C22 12.3201 21.9849 12.3202 21.971 12.3154Z" fill="#59BDEB"/>
<path d="M21.8281 7.5598C22.0021 7.5598 22.1767 7.57292 22.3492 7.55616C22.6127 7.52994 22.8184 7.65888 23.0284 7.78345C23.1186 7.83663 23.1554 7.91386 23.1006 8.01148C23.0457 8.10909 23.1006 8.19506 23.1006 8.28248C23.0934 8.61322 23.3128 8.87402 23.3286 9.20913C23.3445 9.56173 23.364 9.93035 23.4622 10.2764C23.6123 10.8075 23.5986 11.3691 23.7704 11.8951C23.8108 12.0197 23.7566 12.1093 23.6173 12.153C23.2803 12.2601 22.9346 12.2484 22.5888 12.2484C22.5831 12.1756 22.6408 12.1559 22.6877 12.137C22.8133 12.086 22.8321 11.9913 22.8133 11.8711C22.7628 11.501 22.7043 11.1331 22.6329 10.7652C22.5152 10.1613 22.4358 9.54934 22.3521 8.93886C22.3211 8.70865 22.3153 8.46752 22.2078 8.25261C22.1734 8.18059 22.167 8.09823 22.1897 8.02168C22.2265 7.87233 22.163 7.78054 22.0302 7.71862C21.9472 7.68365 21.8411 7.67855 21.8281 7.5598Z" fill="#8ACEF1"/>
<path d="M21.8276 7.5597C21.8972 7.61707 21.9778 7.65924 22.0643 7.68355C22.226 7.74839 22.2751 7.85621 22.2311 8.02595C22.209 8.07571 22.2054 8.13182 22.221 8.18403C22.4375 8.6561 22.4129 9.17625 22.5024 9.67309C22.5616 9.99873 22.6237 10.3287 22.6576 10.6595C22.6807 10.8904 22.7594 11.1112 22.7926 11.3428C22.8215 11.5439 22.8222 11.7493 22.8698 11.9489C22.8987 12.0669 22.8431 12.1464 22.7255 12.1762C22.6721 12.1836 22.6229 12.2094 22.5862 12.2491C22.4064 12.2585 22.2296 12.3052 22.0477 12.2884C22.2643 12.2097 22.208 12.032 22.1805 11.8826C22.086 11.3727 21.9474 10.8758 21.8817 10.3659C21.798 9.7168 21.632 9.083 21.5714 8.43026C21.5519 8.21754 21.4905 8.00701 21.4617 7.79283C21.4415 7.64713 21.313 7.61944 21.1816 7.6311C21.391 7.56843 21.6098 7.54425 21.8276 7.5597Z" fill="#77C7EF"/>
<path d="M26.1477 12.4692C25.7147 12.4131 25.2816 12.3534 24.8486 12.3046C24.7526 12.2944 24.632 12.2317 24.5599 12.3563L24.5447 12.3599H24.5303C24.5303 12.2682 24.5469 12.2193 24.6674 12.2383C24.874 12.2658 25.0819 12.2816 25.2903 12.2856C25.3993 12.2907 25.4657 12.2645 25.4346 12.1174C25.3487 11.6897 25.3379 11.2468 25.1733 10.8345C25.0896 10.6232 25.1856 10.3879 25.1055 10.1737C24.9114 9.65866 24.9698 9.0897 24.7663 8.57101C24.684 8.36411 24.7915 8.24828 25.0066 8.24683C25.1308 8.24683 25.234 8.31968 25.3552 8.32405C25.5313 8.46975 25.7616 8.53021 25.9326 8.68393C25.9172 8.70274 25.8958 8.7156 25.872 8.72035C25.6685 8.76115 25.6071 8.85439 25.6843 9.05546C25.8381 9.45905 25.8662 9.88814 25.9492 10.3056C26.0113 10.6137 26.0633 10.9226 26.1268 11.23C26.1831 11.5143 26.2184 11.8023 26.2322 12.0919C26.235 12.1581 26.2557 12.2224 26.2921 12.2776C26.3274 12.3323 26.3801 12.3971 26.3289 12.4576C26.2776 12.518 26.2105 12.4918 26.1477 12.4692Z" fill="#92D0F2"/>
<path d="M20.5317 12.5077L21.2889 12.397C21.2889 12.4079 21.2889 12.4196 21.2889 12.4305C21.0398 12.4865 20.787 12.5238 20.5325 12.5419C20.5202 12.5347 20.5159 12.5274 20.5202 12.5194C20.5245 12.5113 20.5274 12.5077 20.5317 12.5077Z" fill="#8ACEF1"/>
<path d="M14.3352 14.1768C14.3106 14.1881 14.2887 14.2045 14.2707 14.225C14.2528 14.2455 14.2394 14.2695 14.2313 14.2955C14.1216 14.6685 13.7398 14.7844 13.4439 14.5257C13.3965 14.4793 13.3397 14.4436 13.2774 14.4212C13.2152 14.3989 13.1488 14.3903 13.083 14.3961C12.7221 14.4281 12.4009 14.2635 12.0624 14.1775C11.8575 14.1273 11.6496 14.0865 11.4439 14.0318C11.2887 13.9925 11.2433 13.9451 11.2996 13.7878C11.319 13.7346 11.3753 13.6829 11.3068 13.626C11.3789 13.4425 11.5074 13.3019 11.6215 13.1489C11.6366 13.1278 11.672 13.1037 11.6936 13.1081C11.7377 13.1183 11.7362 13.1591 11.7203 13.1955C11.7045 13.2319 11.7254 13.2684 11.7348 13.2997C11.7485 13.3499 11.7182 13.4243 11.7759 13.4454C11.8481 13.4752 11.8481 13.3849 11.8827 13.3521C11.9121 13.322 11.9492 13.3007 11.9898 13.2905C12.0304 13.2804 12.0731 13.2818 12.113 13.2946C12.3627 13.3674 12.6232 13.4039 12.8398 13.5736C12.9328 13.6425 13.049 13.6716 13.1631 13.6545C13.5006 13.608 13.8433 13.6856 14.1288 13.873C14.201 13.9196 14.2248 13.8839 14.2472 13.8286C14.3915 13.4694 14.5359 13.1139 14.5575 12.7154C14.5662 12.5661 14.6701 12.424 14.73 12.2783C14.8022 12.3636 14.7372 12.4539 14.7394 12.5428C14.6066 13.0163 14.5229 13.5022 14.4211 13.9823C14.4089 14.0602 14.4067 14.1345 14.3352 14.1768Z" fill="#4C9FD5"/>
<path d="M16.7132 9.01007L16.8214 8.97583C16.8936 8.97583 16.877 9.02464 16.8604 9.06325C16.8322 9.1168 16.7948 9.16489 16.75 9.20531C16.6367 9.32187 16.6222 9.43989 16.6735 9.60089C16.775 9.9118 16.8406 10.2335 16.8691 10.5596C16.8696 10.699 16.8941 10.8373 16.9413 10.9683C17.0288 11.1685 17.0662 11.3874 17.0502 11.6057C17.0455 11.6548 17.0506 11.7044 17.0654 11.7514C17.1982 12.1259 17.2018 12.5222 17.2668 12.9083C17.2708 12.9444 17.2856 12.9784 17.3092 13.0058C17.3328 13.0332 17.364 13.0528 17.3988 13.062C17.471 13.086 17.5547 13.0955 17.5887 13.1822C17.5887 13.2347 17.5605 13.2507 17.5165 13.2507C17.3418 13.2951 17.1722 13.3578 16.9968 13.3964C16.9427 13.3964 16.8886 13.3964 16.8352 13.3891C16.6129 13.3716 16.5522 13.2944 16.5905 13.0737C16.599 13.0255 16.599 12.9761 16.5905 12.928C16.4353 12.0115 16.252 11.1001 16.1076 10.1822C16.1035 10.146 16.0955 10.1104 16.0838 10.0759C16.0593 10.0118 16.0838 9.90686 16.0001 9.89229C15.9164 9.87772 15.8637 9.97096 15.8103 10.038C15.746 10.1167 15.7323 10.2493 15.5938 10.2507C15.6537 10.0081 15.8348 9.83838 15.9712 9.64751C16.1647 9.37796 16.3949 9.1361 16.7132 9.01007Z" fill="#2F6DA4"/>
<path d="M15.5964 10.2493C15.6786 10.2005 15.7111 10.1131 15.7551 10.0358C15.7853 9.9767 15.8262 9.92382 15.8757 9.87994C16.0265 9.759 16.0734 9.7743 16.1074 9.9608C16.2142 10.5509 16.3051 11.1446 16.4293 11.7303C16.5014 12.0771 16.5447 12.4282 16.6075 12.7757C16.6306 12.9083 16.6855 13.0256 16.6169 13.1713C16.5664 13.2791 16.6891 13.317 16.7771 13.3381C16.8493 13.3563 16.9338 13.3112 17.0002 13.3738C16.862 13.444 16.7168 13.4992 16.5671 13.5385C16.5494 13.5368 16.5323 13.5308 16.5173 13.521C16.2604 13.4999 16.1398 13.3585 16.0843 13.1021C16.0121 12.7531 15.9081 12.4108 15.8677 12.0545C15.8622 11.9819 15.8482 11.9103 15.8259 11.8411C15.7068 11.5132 15.6916 11.1694 15.6555 10.8284C15.6505 10.7811 15.6613 10.7235 15.6086 10.7002C15.5559 10.6769 15.5184 10.7184 15.4787 10.7447C15.4343 10.7764 15.4 10.8204 15.3798 10.8714C15.2097 11.2322 15.065 11.6047 14.9468 11.986C14.8746 12.1667 14.8674 12.3721 14.7505 12.5368C14.7438 12.5434 14.735 12.5475 14.7256 12.5483C14.7163 12.5491 14.7069 12.5465 14.6992 12.5412C14.71 12.4559 14.7216 12.3707 14.7331 12.2862C14.8724 11.8724 15.0074 11.4571 15.1821 11.0572C15.2752 10.8437 15.3762 10.6339 15.4773 10.4249C15.5076 10.3607 15.5249 10.2857 15.5964 10.2493Z" fill="#275C92"/>
<path d="M9.54377 20.7588C9.53441 20.7595 9.52499 20.7595 9.51562 20.7588V20.2488C9.54666 20.1308 9.52212 20.0113 9.53006 19.8926C9.54017 19.8423 9.50047 19.768 9.56037 19.7469C9.62028 19.7258 9.65059 19.7935 9.67369 19.8401C9.69492 19.8874 9.73048 19.9266 9.77523 19.9522C9.81999 19.9777 9.87163 19.9882 9.92269 19.9822C10.0129 19.9822 10.1031 19.9858 10.1933 19.9822C10.3594 19.9735 10.5037 20.0026 10.5932 20.1651C10.6036 20.1873 10.6191 20.2068 10.6384 20.2219C10.6578 20.237 10.6804 20.2472 10.7043 20.2517C10.8602 20.2707 11.0024 20.3574 11.1533 20.3712C11.6174 20.4142 12.067 20.5737 12.5412 20.5344C12.6314 20.5271 12.7577 20.5235 12.7621 20.6801C12.7621 20.7209 12.783 20.6801 12.7909 20.6757C12.9533 20.6131 13.1078 20.6153 13.2463 20.734C13.3366 20.8112 13.452 20.7879 13.5545 20.8163C13.6267 20.8353 13.644 20.7719 13.6592 20.7187C13.678 20.6546 13.6693 20.5847 13.6902 20.522C13.7213 20.4324 13.7624 20.3479 13.8822 20.3982C13.9052 20.4559 13.9131 20.5186 13.9053 20.5803C13.8974 20.7296 13.9226 20.8804 13.8901 21.0283L13.8685 21.0524C13.7314 21.1616 13.8006 21.3124 13.8064 21.4414C13.8144 21.6293 13.7306 21.8056 13.7545 21.9921C13.7545 22.0264 13.7234 22.057 13.6823 22.065C13.6612 22.0685 13.6395 22.0641 13.6214 22.0525C13.6033 22.041 13.59 22.0231 13.5841 22.0023C13.5553 21.9237 13.535 21.8413 13.5076 21.7619C13.4694 21.6512 13.3856 21.5907 13.2868 21.6629C13.0977 21.8005 12.9028 21.7109 12.7137 21.6964C12.5419 21.6833 12.3723 21.6964 12.2049 21.6913C11.9284 21.6862 11.6202 21.7641 11.3828 21.5033C11.3005 21.4115 11.136 21.4173 11.0089 21.4305C10.9194 21.4421 10.8307 21.4436 10.7419 21.4516C10.6972 21.4625 10.65 21.4559 10.6099 21.4332C10.5697 21.4105 10.5395 21.3734 10.5254 21.3292C10.4806 21.2207 10.3976 21.1944 10.3139 21.2782C10.2302 21.362 10.1695 21.3277 10.0887 21.2928C9.7769 21.1595 9.66358 20.8957 9.61595 20.5854C9.60968 20.5439 9.60125 20.5028 9.59069 20.4623C9.59069 20.4528 9.57626 20.4448 9.54161 20.4055L9.54377 20.7588Z" fill="#214F83"/>
<path d="M13.9402 21.3022C13.9902 21.7967 14.0143 22.2935 14.0123 22.7905C13.9402 22.6011 13.9748 22.4001 13.9495 22.2077C13.9156 21.9462 13.9495 21.6774 13.9026 21.4144C13.8939 21.3987 13.8887 21.3812 13.8872 21.3633C13.8857 21.3453 13.888 21.3272 13.894 21.3102C13.8994 21.3034 13.907 21.2989 13.9156 21.2974C13.9241 21.2959 13.9328 21.2976 13.9402 21.3022Z" fill="#3172AB"/>
<path d="M13.9084 21.3066C13.9084 21.3423 13.9034 21.3794 13.9012 21.4144C13.8327 21.2993 13.8839 21.1733 13.8666 21.0502C13.8706 21.0473 13.8752 21.0454 13.88 21.0446C13.8849 21.0438 13.8899 21.0442 13.8945 21.0457C13.8992 21.0471 13.9035 21.0497 13.907 21.0531C13.9106 21.0566 13.9133 21.0608 13.9149 21.0655C13.9255 21.1457 13.9233 21.2271 13.9084 21.3066Z" fill="#23568A"/>
<path d="M14.2682 25.7832C14.2826 26.0331 14.5056 26.0302 14.6594 26.1074C14.8131 26.1846 14.9726 26.2494 15.1299 26.3201C15.1287 26.3236 15.1266 26.3268 15.1239 26.3293C15.1211 26.3318 15.1178 26.3335 15.1141 26.3343C15.1105 26.3351 15.1067 26.335 15.1032 26.3339C15.0996 26.3328 15.0964 26.3308 15.0939 26.3281L14.9842 26.3216C14.8238 26.2238 14.6512 26.1481 14.471 26.0965C14.3187 26.0491 14.2227 25.9624 14.2682 25.7832Z" fill="#54A7DD"/>
<path d="M16.6127 26.8272L17.7589 27.1186C17.7812 27.1513 17.87 27.136 17.831 27.2154C17.7459 27.3065 17.6715 27.2256 17.5856 27.1943C17.6265 27.2345 17.6759 27.2649 17.73 27.2832C18.0187 27.4136 18.1147 27.587 17.9552 27.8551C17.7387 28.2193 17.8217 28.5916 17.8346 28.9646C17.8426 29.1911 17.8469 29.2217 17.6383 29.3288C17.5395 29.3791 17.5272 29.4636 17.5265 29.5569C17.5265 29.8228 17.5265 30.0894 17.5265 30.3582C17.536 30.4368 17.5255 30.5165 17.4961 30.5899C17.4049 30.7407 17.3705 30.9197 17.3994 31.094C17.4153 31.196 17.3641 31.2776 17.2378 31.2317C17.1909 31.2182 17.1419 31.214 17.0934 31.2193C17.0741 31.2174 17.0558 31.2092 17.0414 31.196C16.8971 31.0568 16.8112 31.0649 16.7181 31.2273L16.0469 30.8849C16.1378 30.7982 16.2345 30.8376 16.3233 30.8397C16.381 30.8397 16.4677 30.9206 16.4907 30.847C16.5276 30.729 16.6885 30.6183 16.5528 30.4726C16.4576 30.3684 16.477 30.2817 16.5738 30.1943C16.6174 30.1571 16.648 30.1066 16.661 30.0505C16.674 29.9943 16.6687 29.9354 16.6459 29.8825C16.5781 29.6858 16.6019 29.5182 16.7701 29.3776C16.8047 29.3492 16.848 29.2968 16.8422 29.2589C16.822 29.025 16.9469 28.8218 16.9671 28.5974C16.9681 28.5315 16.9915 28.468 17.0335 28.4175C17.073 28.3802 17.0985 28.3303 17.1057 28.2761C17.0974 28.1961 17.1072 28.1152 17.1343 28.0395C17.1614 27.9638 17.2052 27.8952 17.2623 27.839C17.2709 27.8305 17.2775 27.8203 17.2819 27.809C17.2862 27.7977 17.2882 27.7856 17.2876 27.7735C17.2255 27.5608 17.271 27.2949 17.0472 27.1601C16.9029 27.0712 16.7737 26.9357 16.581 26.9233C16.5354 26.9267 16.4898 26.9166 16.4498 26.894C16.4099 26.8715 16.3775 26.8376 16.3565 26.7966C16.4474 26.7441 16.5232 26.8359 16.6127 26.8272Z" fill="#3C82C1"/>
<path d="M15.0938 26.3281L15.1298 26.3201C15.4021 26.3947 15.6676 26.4921 15.9238 26.6115C15.6348 26.5585 15.3552 26.463 15.0938 26.3281Z" fill="#4A9AD3"/>
<path d="M16.6128 26.8272C16.5211 26.8542 16.441 26.7908 16.353 26.793C16.2223 26.7019 16.0332 26.7493 15.9199 26.6101C16.158 26.6569 16.3903 26.7297 16.6128 26.8272Z" fill="#4A9AD3"/>
<path d="M10.0908 16.1807C10.2121 16.0066 10.2546 15.8019 10.3073 15.6023C10.3795 15.6023 10.3795 15.6591 10.3651 15.7057C10.2828 15.9512 10.3023 16.2157 10.2481 16.4627C10.2294 16.5493 10.285 16.5996 10.3391 16.5639C10.4647 16.4823 10.5426 16.5836 10.6444 16.6047C10.8061 16.6382 10.9764 16.6295 11.1424 16.6506C11.4066 16.6856 11.67 16.7402 11.9327 16.7679C12.1716 16.7927 12.3889 16.8896 12.627 16.91C12.8082 16.9253 12.9879 16.9828 13.172 16.9864C13.2809 16.9901 13.3076 17.127 13.3675 17.205C13.3914 17.2363 13.395 17.2961 13.4505 17.2844C13.5061 17.2727 13.5025 17.2239 13.5141 17.1831C13.5465 17.0629 13.5797 16.9427 13.6165 16.8094C13.7161 16.899 13.6714 17.0017 13.6887 17.0899C13.7024 17.1584 13.7125 17.2545 13.8028 17.2465C13.893 17.2385 13.9052 17.1576 13.9016 17.0782C13.8951 16.9325 13.9522 16.7941 13.9421 16.6462C13.9395 16.6096 13.9479 16.5729 13.966 16.541C13.9841 16.5091 14.0112 16.4834 14.0438 16.467L14.0048 17.1576C13.9644 17.3718 14.0229 17.5947 13.9688 17.8046C13.9378 17.8698 13.9158 17.9389 13.9031 18.01C13.8836 18.0996 13.8309 18.1768 13.7277 18.1477C13.6245 18.1185 13.6014 18.1739 13.5704 18.2453C13.5393 18.3167 13.5097 18.3728 13.4318 18.3691C13.3408 18.364 13.3192 18.2839 13.3055 18.2132C13.278 18.0799 13.2138 18.0508 13.076 18.0675C12.8198 18.1033 12.5594 18.092 12.3073 18.034C12.1225 17.9845 11.9262 17.9962 11.7357 17.9779C11.6667 17.9769 11.5991 17.9585 11.539 17.9244C11.4789 17.8903 11.4282 17.8416 11.3914 17.7827C11.3634 17.7403 11.3257 17.7052 11.2815 17.6806C11.2373 17.656 11.1878 17.6426 11.1373 17.6414C10.8862 17.6035 10.617 17.6494 10.3947 17.4724C10.3225 17.4155 10.2619 17.4826 10.2027 17.5234C10.0417 17.6348 9.94574 17.5889 9.92986 17.3922C9.92471 17.2894 9.93076 17.1863 9.9479 17.0848C9.95729 17.0119 9.98904 16.9274 9.9082 16.8662C9.95584 16.6339 10.0793 16.4255 10.0908 16.1807Z" fill="#3172AB"/>
<path d="M22.6921 32.428H22.368C22.3374 32.4018 22.3154 32.367 22.3049 32.328C22.2943 32.289 22.2957 32.2476 22.3088 32.2094C22.3911 31.9603 22.3889 31.6995 22.4438 31.4423C22.6055 30.6934 22.7325 29.9358 22.9245 29.1934C23.0198 28.8292 23.0573 28.4562 23.1547 28.0949C23.1771 28.0104 23.1114 27.928 23.1612 27.8472H23.7011C23.8223 27.9288 23.8195 28.0439 23.7942 28.1706C23.6816 28.7272 23.5957 29.2903 23.4485 29.8396C23.3763 30.1041 23.3842 30.3787 23.3316 30.6468C23.2594 31.0322 23.0862 31.3935 23.0616 31.7905C23.0499 31.8436 23.0419 31.8974 23.0378 31.9515C23.0609 32.2175 22.9288 32.361 22.6921 32.428Z" fill="#7FB4E0"/>
<path d="M22.6914 32.4278C22.8949 32.3164 22.9801 32.1648 22.9974 31.9113C23.0196 31.6056 23.0837 31.3046 23.188 31.0167C23.281 30.7499 23.3336 30.4704 23.3439 30.1877C23.3576 29.8919 23.4536 29.61 23.5178 29.3222C23.6116 28.9004 23.686 28.4742 23.7704 28.0503C23.787 27.9679 23.6982 27.9264 23.6982 27.8499C23.8443 27.8171 23.9942 27.8048 24.1436 27.8135C24.3189 27.8135 24.3601 27.8703 24.3226 28.0488C24.2244 28.5376 24.0764 29.0155 23.9848 29.5058C23.8592 30.1702 23.673 30.8244 23.6239 31.5041C23.6066 31.7292 23.499 31.9412 23.4622 32.1678C23.4464 32.269 23.3518 32.328 23.237 32.3419C23.0544 32.363 22.8733 32.398 22.6914 32.4278Z" fill="#93C4E8"/>
<path d="M23.1609 27.8508C23.1886 27.8991 23.2058 27.9527 23.2114 28.0083C23.217 28.0638 23.2108 28.1198 23.1934 28.1728C23.0628 28.6346 23.0029 29.1125 22.8816 29.578C22.7373 30.1222 22.6413 30.6781 22.533 31.2303C22.4803 31.5006 22.45 31.7752 22.4031 32.0469C22.3815 32.1737 22.3086 32.2946 22.3677 32.4287L22.1512 32.433C22.0599 32.4529 21.9659 32.4569 21.8733 32.4447C21.8502 32.4167 21.8346 32.3832 21.8279 32.3474C21.8212 32.3115 21.8237 32.2746 21.8351 32.24C21.9354 31.6994 22.0357 31.1582 22.1649 30.6249C22.3367 29.919 22.437 29.1992 22.598 28.4918C22.6406 28.3061 22.7257 28.1276 22.6882 27.9265C22.6863 27.9082 22.6899 27.8897 22.6985 27.8735C22.7071 27.8572 22.7204 27.844 22.7366 27.8355C22.8653 27.8238 22.995 27.8282 23.1227 27.8486L23.1609 27.8508Z" fill="#6BA7D8"/>
<path d="M21.1453 32.3916C21.094 32.3377 21.0247 32.3675 20.9648 32.3529C21.1157 31.9158 21.2658 31.486 21.281 31.0198C21.2882 30.8012 21.3907 30.6126 21.4455 30.4086C21.5321 30.0859 21.5444 29.7529 21.6144 29.428C21.7169 28.9494 21.8714 28.481 21.9349 27.9943C21.9344 27.9578 21.9413 27.9216 21.9552 27.8879C21.9691 27.8542 21.9897 27.8237 22.0157 27.7984C22.0868 27.7884 22.1591 27.7923 22.2286 27.81H22.3326C22.4769 27.8705 22.5101 27.9885 22.4661 28.1233C22.3116 28.5961 22.2496 29.0893 22.1362 29.5715C22.002 30.1602 21.8909 30.7546 21.7754 31.3462C21.7155 31.6419 21.6159 31.929 21.6043 32.2349C21.5985 32.3967 21.4549 32.3967 21.3293 32.3857L21.1453 32.3916Z" fill="#5398D0"/>
<path d="M21.3252 32.3892C21.5179 32.3681 21.5468 32.2646 21.5691 32.0716C21.6182 31.6571 21.7424 31.2513 21.8275 30.8404C21.9863 30.0784 22.1379 29.3105 22.2959 28.5522C22.3229 28.4229 22.36 28.2959 22.4071 28.1726C22.4366 28.1132 22.4455 28.0456 22.4324 27.9805C22.4193 27.9154 22.385 27.8566 22.3349 27.8135L22.659 27.8171C22.6785 27.8375 22.7146 27.8229 22.7312 27.8514C22.8033 28.2506 22.6171 28.6105 22.5493 28.9871C22.3999 29.819 22.2281 30.6473 22.0441 31.472C21.9719 31.7896 21.9344 32.1109 21.8665 32.4278C21.8625 32.4335 21.8574 32.4382 21.8514 32.4417C21.8454 32.4451 21.8388 32.4473 21.8319 32.4479C21.8251 32.4485 21.8181 32.4476 21.8117 32.4453C21.8052 32.443 21.7993 32.4392 21.7943 32.4344C21.6384 32.4111 21.4746 32.4722 21.3252 32.3892Z" fill="#5E9FD3"/>
<path d="M22.2283 27.8098L22.0067 27.8156C21.9765 27.837 21.942 27.8517 21.9057 27.8586C21.8693 27.8655 21.8319 27.8645 21.796 27.8557C21.6382 27.819 21.4772 27.7977 21.3153 27.7923C20.9544 27.769 20.5885 27.7194 20.2276 27.667C19.5124 27.5592 18.7899 27.4863 18.0891 27.294C18.0364 27.2794 17.9808 27.2853 17.9289 27.2692C17.9084 27.2645 17.889 27.2555 17.872 27.243C17.8551 27.2305 17.8407 27.2146 17.83 27.1964L17.7578 27.1235C18.1562 27.2008 18.5517 27.2809 18.9538 27.3537C19.7948 27.5082 20.6412 27.6257 21.4929 27.7063C21.7368 27.7289 21.98 27.7559 22.224 27.7792C22.2239 27.7896 22.2253 27.7999 22.2283 27.8098Z" fill="#5E9FD3"/>
<path d="M25.2887 18.1091C25.3566 18.182 25.3039 18.2789 25.3277 18.3605C25.3663 18.6951 25.3815 19.032 25.3732 19.3687C25.3587 19.5049 25.4049 19.6477 25.332 19.7781L25.3198 21.0151H25.296C25.296 20.9058 25.2909 20.7966 25.2887 20.6888V18.3466C25.2837 18.2658 25.2873 18.1878 25.2887 18.1091Z" fill="#54A7DD"/>
<path d="M25.2932 21.0151H25.317C25.317 21.1426 25.3213 21.2694 25.3213 21.3961C25.3213 21.4486 25.3336 21.5098 25.2578 21.5251C25.2347 21.3502 25.3018 21.1841 25.2932 21.0151Z" fill="#4395CE"/>
<path d="M22.7274 27.8513L22.6553 27.8171C22.8112 27.828 22.9714 27.777 23.1237 27.8484L22.7274 27.8513Z" fill="#7FB4E0"/>
<path d="M21.792 32.4345L21.8642 32.428L22.1529 32.4331C22.0962 32.4589 22.0348 32.4724 21.9726 32.4726C21.9104 32.4729 21.8489 32.4599 21.792 32.4345Z" fill="#93C4E8"/>
<path d="M14.733 12.5404C14.7943 12.359 14.8254 12.1674 14.912 11.994C14.9502 11.9212 14.9618 11.8345 15.0015 11.7587C15.0347 11.6961 15.0679 11.64 15.1458 11.6422C15.1828 11.6423 15.2184 11.6562 15.2458 11.6812C15.2733 11.7062 15.2906 11.7406 15.2945 11.7777C15.3277 12.0115 15.4237 12.2315 15.4316 12.4705C15.4276 12.6526 15.4618 12.8336 15.532 13.0015C15.5587 13.0693 15.5667 13.143 15.5551 13.215C15.5377 13.4233 15.5969 13.4984 15.8019 13.5406C15.8914 13.5588 16.0062 13.5406 16.009 13.6863C15.9636 13.7439 15.8957 13.7432 15.8329 13.7592C15.7283 13.8277 15.5926 13.8153 15.4901 13.891C15.2187 14.012 14.9322 14.0892 14.6522 14.1861L14.4111 14.2196C14.3714 14.2269 14.3512 14.2014 14.3591 14.1693C14.4991 13.6288 14.5504 13.0693 14.733 12.5404Z" fill="#233B6B"/>
<path d="M13.9386 17.8141C13.9935 17.6626 13.9704 17.5052 13.9769 17.3493C13.9769 17.2859 13.9552 17.216 14.0072 17.1599L14.0158 17.3442C14.0065 18.1128 13.9343 18.8799 13.9393 19.6492C13.9393 20.2 13.9393 20.7514 13.9393 21.3022C13.929 21.3029 13.9186 21.3029 13.9083 21.3022C13.9083 21.2177 13.9011 21.1332 13.8982 21.0494C13.8844 20.8898 13.8803 20.7294 13.8859 20.5693C13.8528 20.19 13.8418 19.8091 13.8527 19.4285C13.8441 19.1079 13.8527 18.7881 13.8527 18.4676C13.883 18.2512 13.8823 18.0283 13.9386 17.8141Z" fill="#3A83BC"/>
<path d="M14.7326 12.5405C14.6273 13.0323 14.5161 13.5233 14.4208 14.0165C14.4079 14.0791 14.3436 14.1483 14.4107 14.2183C14.353 14.2663 14.3451 14.2183 14.335 14.1767C14.4605 13.6326 14.5392 13.0774 14.6958 12.5413L14.7326 12.5405Z" fill="#204B7E"/>
<path d="M26.4386 9.08813C26.4706 9.15181 26.5165 9.20735 26.5728 9.25059C26.8033 9.45694 27.016 9.68261 27.2087 9.92518C27.2414 9.95647 27.267 9.99457 27.2837 10.0368C27.3004 10.0791 27.3078 10.1245 27.3054 10.17C27.3035 10.1836 27.3044 10.1975 27.308 10.2108C27.3117 10.2241 27.318 10.2365 27.3266 10.2473C27.3352 10.258 27.3459 10.2668 27.358 10.2732C27.3701 10.2796 27.3834 10.2834 27.3971 10.2843C27.5609 10.3157 27.5631 10.4453 27.5414 10.5634C27.5075 10.7287 27.5198 10.873 27.6338 11.0005C27.6656 11.0361 27.706 11.0871 27.6879 11.1287C27.5508 11.431 27.7017 11.7027 27.7601 11.9854C27.7811 12.1094 27.813 12.2313 27.8554 12.3496C27.9478 12.574 27.8691 12.7299 27.6208 12.7241C27.3964 12.719 27.156 12.7292 26.9438 12.6119C26.837 11.9759 26.741 11.3385 26.6017 10.7098C26.4992 10.2501 26.474 9.77803 26.3506 9.32563C26.326 9.23821 26.2719 9.11363 26.4386 9.08813Z" fill="#58B8EA"/>
<path d="M26.4379 9.08817C26.3607 9.12314 26.36 9.18433 26.3788 9.25572C26.5419 9.88369 26.6076 10.5306 26.7469 11.1644C26.8342 11.5607 26.8825 11.9658 26.972 12.3672C26.9945 12.4502 26.9839 12.5388 26.9424 12.6141C26.8335 12.6046 26.7259 12.5529 26.6148 12.5799C26.4603 12.5376 26.2958 12.5398 26.1478 12.4691C26.2027 12.4531 26.2835 12.4997 26.3095 12.432C26.3355 12.3642 26.2734 12.3234 26.233 12.2783C26.2144 12.264 26.1994 12.2456 26.1891 12.2245C26.1789 12.2034 26.1736 12.1801 26.1738 12.1566C26.1814 11.8255 26.1445 11.4949 26.0641 11.1739C25.9508 10.6581 25.8901 10.1321 25.7667 9.61706C25.7227 9.43275 25.7393 9.23533 25.6224 9.06704C25.6069 9.02774 25.6019 8.98504 25.6079 8.9432C25.6029 8.69259 25.6281 8.6671 25.8598 8.68531C25.8839 8.68677 25.908 8.68677 25.932 8.68531C26.1355 8.80187 26.3412 8.91406 26.5051 9.08671L26.4379 9.08817Z" fill="#77C7F0"/>
<path d="M28.2782 26.6189C28.3825 26.5925 28.4733 26.5278 28.533 26.4375C28.621 26.4317 28.652 26.3195 28.7451 26.3239C28.6728 26.4118 28.5944 26.4946 28.5106 26.5715C28.4423 26.63 28.3868 26.702 28.3474 26.7831C28.308 26.8642 28.2857 26.9527 28.2818 27.0429C28.2464 27.4217 28.1374 27.7823 28.0689 28.1524C28.0173 28.4648 27.9339 28.7709 27.8199 29.0659C27.8079 29.0873 27.8038 29.1123 27.8083 29.1364C27.8128 29.1605 27.8256 29.1823 27.8444 29.1978L27.7722 29.3362L27.3392 29.8462C27.267 29.8462 27.267 29.7864 27.2749 29.7434C27.2828 29.6417 27.2968 29.5405 27.3168 29.4404C27.4814 28.9028 27.5138 28.3374 27.6705 27.7991C27.7246 27.6133 27.7181 27.4166 27.7679 27.2287C27.8177 27.0407 27.8913 26.8892 28.0566 26.7916C28.1042 26.7019 28.2277 26.7078 28.2782 26.6189Z" fill="#243967"/>
<path d="M17.5793 13.1968C17.5793 13.1917 17.5728 13.183 17.5685 13.183C17.1022 13.1167 17.2076 12.7167 17.152 12.4261C17.121 12.2694 17.1463 12.1055 17.0597 11.9547C17.0177 11.8807 16.9993 11.7955 17.007 11.7107C17.0495 11.3807 16.9009 11.0878 16.8525 10.7767C16.8005 10.4387 16.7442 10.1021 16.6771 9.76702C16.6714 9.73788 16.6771 9.70145 16.6612 9.6796C16.4743 9.42098 16.6151 9.2425 16.8056 9.0764C16.8388 9.04653 16.8778 9.01958 16.8229 8.97587C16.9088 8.89864 17.0394 8.89428 17.1116 8.79957L17.3787 8.75586L17.134 9.00501C17.09 9.05018 17.038 9.11283 17.1008 9.15872C17.2913 9.29859 17.2293 9.5084 17.2451 9.68616C17.2682 9.93239 17.3072 10.1728 17.3512 10.4147C17.4234 10.8095 17.4465 11.216 17.5389 11.6058C17.6313 11.9955 17.7085 12.3802 17.8016 12.7655C17.8146 12.8258 17.8479 12.8796 17.8958 12.9178C17.9437 12.9561 18.0033 12.9764 18.0643 12.9753C18.1112 12.9753 18.1466 12.9899 18.1517 13.0438C17.9813 13.1538 17.7812 13.2073 17.5793 13.1968Z" fill="#377DB4"/>
<path d="M17.8659 8.53954C17.9474 8.43391 18.0939 8.44921 18.187 8.36543L18.2975 8.35669C18.3964 8.40186 18.3336 8.4463 18.2924 8.48054C18.227 8.53352 18.1756 8.60212 18.143 8.68014C18.0788 8.83532 18.0304 8.97737 18.1762 9.12526C18.2607 9.20977 18.2484 9.34017 18.2195 9.45454C18.2011 9.51556 18.1986 9.58034 18.2123 9.64262C18.2259 9.7049 18.2553 9.76256 18.2975 9.81005C18.3279 9.84413 18.3508 9.88437 18.3646 9.92809C18.3784 9.97181 18.3829 10.018 18.3776 10.0636C18.3379 10.414 18.4353 10.7447 18.5219 11.0776C18.5465 11.133 18.5584 11.1933 18.5566 11.2539C18.4844 11.5942 18.6656 11.8761 18.7601 12.177C18.7776 12.2178 18.7856 12.2622 18.7835 12.3066C18.7813 12.3511 18.7692 12.3944 18.7478 12.4334C18.6526 12.6046 18.711 12.6884 18.9117 12.684C18.9839 12.684 19.056 12.6483 19.1217 12.6949C19.1409 12.704 19.1561 12.7198 19.1646 12.7393C19.1731 12.7589 19.1743 12.7809 19.1679 12.8013C18.9443 12.8802 18.7137 12.9373 18.4794 12.9717C18.4923 12.9127 18.5183 12.8435 18.431 12.826C18.1878 12.7787 18.1704 12.5776 18.1625 12.3962C18.151 12.1398 18.003 11.9132 18.029 11.6473C18.0369 11.5592 18.0117 11.4572 18.0138 11.361C18.016 11.2649 18.0081 11.1825 17.907 11.1345C17.884 11.1202 17.865 11.1003 17.8516 11.0766C17.8382 11.0529 17.831 11.0262 17.8305 10.999C17.7583 10.548 17.723 10.0927 17.6862 9.6374C17.6811 9.57037 17.6912 9.4968 17.645 9.44653C17.5577 9.34964 17.5223 9.26149 17.627 9.15513C17.6645 9.11579 17.6198 9.07791 17.5902 9.04877C17.5425 9.00287 17.4393 8.98757 17.4833 8.88922C17.5022 8.85076 17.5315 8.81846 17.5677 8.79604C17.604 8.77362 17.6458 8.76198 17.6883 8.76247C17.7335 8.7662 17.7787 8.75413 17.8161 8.72826C17.8536 8.7024 17.8811 8.66431 17.894 8.62041C17.8991 8.60571 17.8991 8.58968 17.894 8.57498C17.8889 8.56028 17.879 8.54778 17.8659 8.53954Z" fill="#4293CC"/>
<path d="M18.477 12.9718L19.1598 12.7911C19.2006 12.7515 19.251 12.7232 19.3059 12.7091C19.3607 12.6949 19.4183 12.6953 19.473 12.7102C19.4771 12.7126 19.4807 12.7158 19.4835 12.7197C19.4863 12.7235 19.4883 12.7279 19.4893 12.7326C19.4903 12.7373 19.4904 12.7421 19.4894 12.7468C19.4885 12.7515 19.4866 12.7559 19.4838 12.7598C18.866 12.9268 18.2477 13.0929 17.629 13.2581C17.5885 13.2658 17.5474 13.2702 17.5063 13.2712C17.4918 13.2654 17.4868 13.2581 17.4904 13.2501C17.494 13.242 17.4976 13.2369 17.5019 13.2369C17.516 13.2372 17.5299 13.2341 17.5425 13.2277C17.555 13.2214 17.5659 13.2121 17.5741 13.2005C17.7712 13.1695 17.9646 13.1185 18.1515 13.0483C18.2641 13.0352 18.3623 12.9652 18.477 12.9718Z" fill="#54A9DF"/>
<path d="M28.0572 26.7937C27.8111 27.0356 27.7952 27.3597 27.7382 27.673C27.6747 28.022 27.5939 28.3665 27.5217 28.714C27.4914 28.867 27.4777 29.0229 27.4495 29.1759C27.4149 29.3515 27.3708 29.5256 27.3268 29.699C27.3131 29.7521 27.2886 29.8024 27.3405 29.8447C27.342 29.8563 27.342 29.868 27.3405 29.8796C27.1962 30.0253 27.0807 30.1994 26.9118 30.3211C26.8584 30.2927 26.8259 30.2541 26.8519 30.19C27.0006 29.8257 27.0562 29.4301 27.1291 29.0448C27.2243 28.5392 27.3528 28.0402 27.4178 27.5288C27.4574 27.206 27.6458 26.9846 27.923 26.8309L28.0572 26.7937Z" fill="#344F7D"/>
<path d="M25.3595 18.6491C25.4757 18.5493 25.4512 18.3963 25.4959 18.2703C25.5407 18.1443 25.5465 17.9949 25.7356 18.1246C25.7458 18.1305 25.7572 18.134 25.769 18.1347C25.7807 18.1355 25.7925 18.1335 25.8034 18.129C26.0012 18.0168 26.2148 18.0714 26.4205 18.07C27.2945 18.0634 28.1693 18.07 29.0433 18.07C29.1508 18.0634 29.2586 18.0732 29.3631 18.0991C29.4822 18.1362 29.5883 18.0765 29.6799 18.008C29.7716 17.9396 29.838 17.9585 29.9152 18.0321C30.0262 18.1416 30.1265 18.2616 30.2147 18.3905C30.2443 18.4327 30.2703 18.4692 30.3259 18.4692C30.3916 18.8057 30.3259 19.1511 30.3981 19.4891C30.354 19.6945 30.432 19.9 30.3981 20.1054C30.373 20.0943 30.3514 20.0768 30.3353 20.0545C30.3192 20.0322 30.3092 20.0061 30.3064 19.9786C30.279 19.7732 30.1505 19.7331 29.973 19.7426C29.5717 19.7652 29.1725 19.6697 28.7727 19.7105C28.2905 19.7608 27.8048 19.7688 27.3213 19.7346C26.8831 19.7025 26.4515 19.7717 26.0171 19.7477C25.8727 19.7404 25.7284 19.8118 25.6562 19.602C25.6259 19.5204 25.5587 19.5882 25.5421 19.6559C25.4881 19.8529 25.4511 20.0542 25.4317 20.2576C25.4317 20.3072 25.4519 20.3684 25.3595 20.4143V19.7768C25.3292 19.6428 25.3523 19.5066 25.3451 19.3711C25.3516 19.1299 25.3191 18.8888 25.3595 18.6491Z" fill="#296198"/>
<path d="M13.8653 20.3951C13.7534 20.4126 13.721 20.4876 13.721 20.5911C13.7239 20.6634 13.7129 20.7357 13.6885 20.8038C13.6589 20.8898 13.6163 20.8766 13.5297 20.8817C13.2966 20.8883 13.1544 20.6421 12.9184 20.685C12.8729 20.6931 12.8217 20.677 12.787 20.7244C12.7437 20.7827 12.6723 20.8351 12.6261 20.7659C12.5604 20.6683 12.7221 20.7142 12.7286 20.6428C12.6824 20.5699 12.6087 20.5743 12.538 20.5772C12.1548 20.5925 11.7852 20.5124 11.4092 20.4526C11.1818 20.417 10.9682 20.3208 10.7358 20.3193C10.6931 20.3214 10.651 20.3095 10.6155 20.2855C10.58 20.2615 10.5531 20.2266 10.5388 20.186C10.5214 20.1304 10.4838 20.0835 10.4337 20.0546C10.3835 20.0257 10.3244 20.017 10.2681 20.0301C10.2083 20.0334 10.1483 20.0334 10.0884 20.0301C9.73618 20.0301 9.73619 20.0301 9.56441 19.7671C9.52688 19.8006 9.54925 19.8458 9.54204 19.8851C9.53121 19.9019 9.5211 19.9012 9.51172 19.8851L9.58389 18.6533C9.59552 18.651 9.60755 18.6529 9.61795 18.6586C9.62834 18.6643 9.63646 18.6735 9.64091 18.6846C9.65516 18.7181 9.66347 18.7538 9.66545 18.7902C9.72608 19.2397 9.75495 19.287 10.193 19.3482C10.4673 19.3869 10.7105 19.5238 10.987 19.5479C11.197 19.5668 11.4128 19.5967 11.5918 19.7416C11.6452 19.7853 11.7318 19.7649 11.8033 19.762C12.333 19.7424 12.8484 19.8684 13.3716 19.9143C13.3989 19.9149 13.4257 19.9212 13.4505 19.9325C13.4753 19.9439 13.4976 19.9603 13.516 19.9806C13.6264 20.1161 13.6603 20.0316 13.6986 19.923C13.7143 19.846 13.7398 19.7713 13.7744 19.7008C13.7946 19.6688 13.8112 19.577 13.8826 19.6593C13.8732 19.9041 13.9101 20.1503 13.8653 20.3951Z" fill="#23568A"/>
<path d="M13.8656 19.6309C13.7675 19.7467 13.7783 19.9034 13.7213 20.033C13.6989 20.0811 13.6895 20.1481 13.6303 20.1598C13.5711 20.1715 13.548 20.103 13.5242 20.0578C13.514 20.0296 13.4957 20.005 13.4717 19.9871C13.4477 19.9692 13.419 19.9589 13.3893 19.9573C12.8119 19.9238 12.2467 19.7737 11.665 19.8116C11.6347 19.8116 11.5928 19.8225 11.5769 19.8065C11.421 19.6375 11.2103 19.62 11.0053 19.6047C10.7253 19.5843 10.4828 19.424 10.2013 19.4073C10.0775 19.3977 9.95589 19.3694 9.84042 19.3235C9.65421 19.2506 9.6571 19.0321 9.62389 18.8594C9.60946 18.7909 9.64988 18.7137 9.58997 18.6518C9.57939 18.5295 9.58965 18.4063 9.62029 18.2875C9.62967 18.238 9.60874 18.1805 9.6571 18.1418C9.7834 18.1418 9.76897 18.2453 9.77907 18.3232C9.81083 18.5928 9.81877 18.6008 10.0887 18.6023C10.3052 18.6023 10.5066 18.5921 10.7022 18.7414C10.8271 18.8376 11.0212 18.8492 11.1865 18.8485C11.4211 18.8485 11.634 18.9359 11.8454 19.0022C12.1249 19.0877 12.414 19.1367 12.7058 19.1479C12.8732 19.1552 13.0421 19.1348 13.2067 19.1814C13.2269 19.1877 13.2481 19.1899 13.2692 19.1879C13.2902 19.1859 13.3107 19.1797 13.3294 19.1698C13.3802 19.1358 13.4421 19.1234 13.5019 19.1351C13.5617 19.1468 13.6146 19.1818 13.6491 19.2324C13.6594 19.2476 13.674 19.2593 13.691 19.266C13.708 19.2728 13.7265 19.2743 13.7444 19.2703C13.9031 19.2178 13.8959 19.322 13.8887 19.4247C13.8764 19.4903 13.9046 19.5646 13.8656 19.6309Z" fill="#295F96"/>
<path d="M9.51342 19.8845H9.54373C9.53074 20.0055 9.57621 20.1308 9.5127 20.2488C9.51342 20.1271 9.51342 20.0062 9.51342 19.8845Z" fill="#295F96"/>
<path d="M17.9024 27.2322C18.1463 27.2148 18.3708 27.3153 18.6039 27.3583C19.2058 27.4705 19.8114 27.5564 20.4184 27.6329L21.322 27.7451C21.322 27.8646 21.2426 27.885 21.1531 27.8777C20.9777 27.8646 20.8096 27.9112 20.6392 27.9221C20.6197 27.9811 20.6652 28.0045 20.6883 28.0358C20.7605 28.1327 20.7367 28.2077 20.6342 28.2543C20.5187 28.3068 20.5014 28.3927 20.4898 28.513C20.4581 28.7759 20.4068 29.0382 20.3772 29.3005C20.3448 29.5962 20.2264 29.8651 20.1658 30.1514C20.1217 30.359 20.0972 30.579 20.007 30.7779C19.95 30.9032 19.9832 31.0416 19.9579 31.1713C19.9233 31.3541 19.9427 31.5457 19.859 31.7213C19.8446 31.7553 19.8435 31.7935 19.856 31.8283C19.8684 31.863 19.8935 31.8917 19.9261 31.9085C20.0387 31.9864 20.1362 32.0884 20.2812 32.1118C20.3209 32.1183 20.3671 32.1511 20.3534 32.1999C20.3397 32.2487 20.2877 32.2334 20.2488 32.2152L20.0662 32.2057C19.8136 32.1496 19.5609 32.0906 19.3076 32.0374C18.8565 31.942 18.4126 31.8189 17.9724 31.6827C17.8956 31.6493 17.8134 31.6308 17.7299 31.628C17.5445 31.5106 17.3358 31.436 17.1185 31.4095C17.094 31.3643 17.042 31.3578 17.0067 31.3308C16.9287 31.2696 16.9287 31.2121 17.0435 31.196H17.0796C17.1711 31.2149 17.2599 31.2455 17.3437 31.2871C17.4821 31.3391 17.6323 31.3504 17.7768 31.3199C17.7622 31.3007 17.7521 31.2784 17.7474 31.2547C17.7427 31.231 17.7433 31.2065 17.7494 31.1831C17.7555 31.1597 17.7667 31.138 17.7824 31.1196C17.798 31.1013 17.8175 31.0868 17.8396 31.0773C17.9211 31.0263 17.9291 30.9381 17.9262 30.8514C17.9137 30.5487 17.9379 30.2456 17.9984 29.9488C18.0164 29.8614 18.0337 29.7827 18.1153 29.7361C18.1598 29.7106 18.1963 29.6729 18.2207 29.6275C18.2451 29.582 18.2563 29.5305 18.2531 29.4789C18.2582 29.3099 18.2979 29.1431 18.2907 28.969C18.2864 28.9203 18.2998 28.8716 18.3282 28.832C18.5223 28.5727 18.6133 28.2915 18.4992 27.9702C18.4892 27.9353 18.4877 27.8984 18.4949 27.8628C18.502 27.8271 18.5177 27.7937 18.5404 27.7655C18.6126 27.6497 18.575 27.5593 18.4559 27.5229C18.3116 27.4799 18.186 27.3918 18.0323 27.3772C17.9579 27.3685 17.8634 27.3532 17.9024 27.2322Z" fill="#3677B9"/>
<path d="M13.9386 17.8141C13.9512 18.0335 13.9371 18.2537 13.8967 18.4697C13.8614 18.5972 13.8246 18.7254 13.7834 18.8507C13.7286 19.0008 13.6867 19.0139 13.5496 18.9309C13.5236 18.9156 13.4933 18.8813 13.4709 18.8952C13.24 19.0409 13.0783 18.8223 12.8935 18.7713C12.5619 18.6683 12.2162 18.6191 11.8694 18.6256C11.6803 18.6322 11.4977 18.6329 11.3641 18.4632C11.3393 18.4408 11.3098 18.4242 11.2779 18.4148C11.2459 18.4053 11.2122 18.4032 11.1794 18.4085C10.9997 18.3997 10.8196 18.4021 10.6402 18.4158C10.485 18.4348 10.3854 18.3874 10.3356 18.2337C10.3162 18.1718 10.2909 18.1011 10.2079 18.1026C10.1249 18.104 10.1162 18.1696 10.0946 18.2264C10.0671 18.2993 10.0275 18.3634 9.93868 18.3423C9.8499 18.3211 9.84846 18.2373 9.83619 18.1558C9.7936 17.8724 9.83619 17.5868 9.80371 17.3041L9.9127 16.867C10.0217 16.808 10.0159 16.886 10.0166 16.9559C10.0166 17.1067 9.96033 17.2517 9.9791 17.4047C9.98559 17.4586 9.9791 17.5183 10.0376 17.5453C10.096 17.5722 10.1415 17.5292 10.1747 17.4877C10.2801 17.3566 10.3797 17.342 10.498 17.4761C10.5616 17.5325 10.6444 17.562 10.729 17.5584C10.895 17.5708 11.061 17.5846 11.227 17.5948C11.2689 17.5965 11.3094 17.6104 11.3436 17.6348C11.3778 17.6592 11.4042 17.6932 11.4197 17.7325C11.4496 17.7946 11.4971 17.8463 11.5563 17.8809C11.6154 17.9156 11.6835 17.9316 11.7517 17.927C12.1609 17.9336 12.5615 18.0618 12.9751 18.0312C13.0227 18.0312 13.0812 18.0428 13.1194 18.0203C13.2746 17.9204 13.3201 18.002 13.3403 18.1419C13.3453 18.1776 13.3627 18.2111 13.3684 18.2461C13.3742 18.2811 13.3829 18.3357 13.4327 18.343C13.4947 18.3517 13.5092 18.2949 13.5279 18.2526C13.5467 18.2104 13.5655 18.1507 13.5828 18.0997C13.6066 18.0268 13.6405 18.0137 13.6954 18.0742C13.8137 18.2024 13.8455 18.0851 13.87 18.0013C13.883 17.935 13.8527 17.8527 13.9386 17.8141Z" fill="#2E6BA1"/>
<path d="M9.80173 17.3049C9.93814 17.4346 9.86307 17.5898 9.84647 17.7347C9.84142 17.7734 9.81255 17.804 9.84647 17.8469C9.8795 17.8905 9.90046 17.9421 9.90718 17.9965C9.9139 18.0509 9.90615 18.1062 9.88473 18.1565C9.86091 18.2236 9.86235 18.2979 9.95113 18.3132C10.0399 18.3285 10.0486 18.2629 10.0515 18.1959C10.05 18.1746 10.053 18.1533 10.0602 18.1332C10.0674 18.1132 10.0787 18.0949 10.0933 18.0795C10.1079 18.064 10.1255 18.0519 10.145 18.0437C10.1645 18.0355 10.1855 18.0315 10.2066 18.032C10.2263 18.0298 10.2462 18.0316 10.2651 18.0375C10.284 18.0434 10.3015 18.0531 10.3165 18.0661C10.3315 18.0791 10.3438 18.095 10.3524 18.113C10.3611 18.1309 10.366 18.1505 10.3669 18.1704C10.4008 18.3489 10.4838 18.397 10.6678 18.3656C10.8519 18.3343 11.0504 18.3591 11.2452 18.3583C11.2811 18.3545 11.3174 18.3608 11.35 18.3764C11.3827 18.3921 11.4103 18.4166 11.43 18.4472C11.4594 18.4959 11.5028 18.5344 11.5543 18.5576C11.6058 18.5809 11.6632 18.5879 11.7187 18.5776C12.0524 18.5471 12.3888 18.5762 12.7125 18.6636C12.8764 18.708 13.0828 18.7102 13.2077 18.8727C13.2162 18.8873 13.2284 18.8995 13.243 18.9079C13.2576 18.9164 13.2742 18.9208 13.291 18.9208C13.3079 18.9208 13.3244 18.9164 13.339 18.9079C13.3537 18.8995 13.3658 18.8873 13.3744 18.8727C13.4646 18.7656 13.5288 18.8158 13.5873 18.8982C13.6696 19.014 13.6992 18.9615 13.7316 18.8632C13.7771 18.7299 13.7851 18.5784 13.8969 18.4734C13.8969 18.7867 13.8969 19.1 13.8969 19.4132C13.8892 19.4307 13.8798 19.4307 13.8688 19.4132C13.8536 19.3477 13.9049 19.1881 13.7482 19.3404C13.6818 19.4052 13.6292 19.3054 13.6039 19.2588C13.5317 19.1415 13.4595 19.1284 13.3563 19.2114C13.321 19.2398 13.2748 19.2748 13.225 19.2464C13.0619 19.1531 12.8843 19.1896 12.7154 19.1969C12.4726 19.2074 12.2297 19.1748 11.998 19.1007C11.819 19.0431 11.6278 19.0118 11.448 18.9368C11.2539 18.8559 11.015 18.8836 10.8035 18.8297C10.7638 18.8202 10.701 18.8355 10.683 18.8129C10.4924 18.5682 10.2261 18.6599 9.98577 18.649C9.77863 18.6395 9.74327 18.6097 9.72667 18.3955C9.72017 18.3052 9.76781 18.1966 9.65449 18.1362C9.64944 17.8513 9.74399 17.5818 9.80173 17.3049Z" fill="#2C649A"/>
<path d="M19.4825 12.7218L19.1599 12.791C19.1253 12.7065 19.0625 12.6956 18.9845 12.7218C18.9114 12.7478 18.8313 12.746 18.7594 12.7167C18.6049 12.6548 18.5753 12.5644 18.6915 12.4253C18.7637 12.3393 18.737 12.2869 18.7117 12.1907C18.6338 11.8957 18.4136 11.6312 18.5111 11.2954C18.5356 11.2109 18.4793 11.1322 18.4613 11.0499C18.3891 10.7308 18.2801 10.4161 18.3328 10.0795C18.3429 10.0346 18.341 9.98785 18.3273 9.94395C18.3136 9.90005 18.2886 9.8606 18.2548 9.82964C18.1329 9.72692 18.1336 9.59725 18.169 9.46539C18.2108 9.30439 18.1949 9.16743 18.0679 9.05233C17.9907 8.97948 17.9842 8.91464 18.0383 8.81411C18.1177 8.66404 18.1365 8.47754 18.3198 8.40105L18.2974 8.35661C18.3458 8.25753 18.4533 8.27575 18.532 8.24806C18.7269 8.17886 18.9167 8.08925 19.126 8.06958C19.0986 8.13296 19.0563 8.18861 19.0027 8.23166C18.9491 8.27471 18.8859 8.30386 18.8185 8.31654C18.659 8.35807 18.6237 8.45204 18.6828 8.58463C18.7687 8.77841 18.7868 8.99041 18.8575 9.19002C18.9124 9.34446 18.8207 9.53023 18.9066 9.69997C18.9479 9.79323 18.9785 9.89102 18.9975 9.99137C19.0394 10.1101 19.0518 10.2375 19.0336 10.3622C19.0249 10.4706 19.0477 10.5792 19.0993 10.6747C19.1888 10.878 19.2898 11.0834 19.1996 11.3165C19.1978 11.3224 19.1978 11.3288 19.1996 11.3347C19.2718 11.6458 19.2783 11.9707 19.3866 12.2745C19.401 12.3167 19.4226 12.3524 19.3945 12.3918C19.2956 12.5324 19.3613 12.5732 19.4991 12.5783C19.5713 12.5783 19.6435 12.5885 19.6666 12.681C19.6175 12.7349 19.5453 12.7174 19.4825 12.7218Z" fill="#499DD4"/>
<path d="M20.2423 32.2152C20.2662 32.2116 20.3008 32.2152 20.3145 32.2036C20.3441 32.1642 20.2994 32.1431 20.2791 32.1475C20.0828 32.1912 20.0128 31.9857 19.862 31.934C19.7847 31.9078 19.7631 31.808 19.8057 31.7155C19.9161 31.4736 19.8822 31.2055 19.9269 30.9549C19.9616 30.7148 20.0199 30.4789 20.1009 30.2504C20.1213 30.207 20.1333 30.16 20.1362 30.112C20.1362 29.9773 20.1362 29.8483 20.2416 29.7478C20.267 29.7138 20.2806 29.6723 20.2806 29.6298C20.308 29.2772 20.3881 28.9326 20.4451 28.5844C20.4556 28.5499 20.4556 28.5131 20.4451 28.4787C20.391 28.3505 20.461 28.2747 20.5671 28.242C20.7209 28.1939 20.7411 28.1371 20.6169 28.0271C20.5772 27.9914 20.4957 27.96 20.5303 27.8886C20.565 27.8173 20.627 27.8821 20.6747 27.8784C20.8501 27.8668 21.0204 27.7939 21.2023 27.8464C21.2557 27.861 21.2932 27.7983 21.3213 27.7502C21.481 27.7441 21.6405 27.7673 21.7919 27.8187C21.7984 27.9353 21.714 27.9549 21.6303 27.971C21.5653 27.9833 21.4989 27.9753 21.4332 27.9812C21.3675 27.987 21.3105 28.0241 21.3459 28.0985C21.4181 28.2485 21.3394 28.3695 21.3062 28.5101C21.203 28.9472 21.0103 29.3668 21.0478 29.8323C21.0688 30.0123 21.0233 30.1939 20.9201 30.3422C20.8255 30.4792 20.7923 30.6672 20.7555 30.834C20.6869 31.1458 20.6112 31.4561 20.5556 31.7701C20.5217 31.9639 20.5967 32.0775 20.7844 32.1344C20.8912 32.1679 21.0045 32.197 20.9287 32.3529L20.6451 32.3179C20.5253 32.2189 20.3665 32.2859 20.2423 32.2152Z" fill="#3B81C1"/>
<path d="M20.9274 32.3506C20.9419 32.245 20.8921 32.1947 20.7925 32.1772C20.5499 32.135 20.4518 31.9718 20.5038 31.7241C20.5651 31.4443 20.612 31.1566 20.6907 30.8848C20.7585 30.6488 20.7629 30.3705 20.9678 30.1826C21.0212 30.1338 20.9989 30.0558 20.9967 29.9902C20.9866 29.5772 21.0249 29.1772 21.188 28.7875C21.2515 28.6345 21.2378 28.448 21.3453 28.3001C21.3807 28.2513 21.3302 28.1967 21.3078 28.1486C21.219 27.9526 21.2356 27.93 21.4572 27.9213C21.577 27.9213 21.717 27.9672 21.7906 27.8135H22.0072C21.9563 28.2077 21.8755 28.5974 21.7654 28.9791C21.621 29.4737 21.6297 30.0055 21.463 30.4929C21.2796 31.0291 21.3446 31.6199 21.0812 32.1371C21.0443 32.21 21.0941 32.3273 20.9649 32.3557L20.9274 32.3506Z" fill="#408CC9"/>
<path d="M25.3542 19.3774C25.3542 19.51 25.3542 19.6433 25.3542 19.7759H25.3311C25.3311 19.6419 25.3311 19.5071 25.3311 19.3723L25.3542 19.3774Z" fill="#4395CE"/>
<path d="M11.4898 24.1411C11.3267 24.0799 11.2393 23.9342 11.1289 23.814C11.2949 23.8722 11.3808 24.0194 11.4898 24.1411Z" fill="#224171"/>
<path d="M24.8861 13.8861L24.8493 13.8898C24.7656 13.4913 24.6819 13.0928 24.6328 12.6877C24.7382 12.7562 24.705 12.8728 24.7223 12.9682C24.7822 13.2735 24.8327 13.5802 24.8861 13.8861Z" fill="#223A69"/>
<path d="M19.4824 12.722C19.5337 12.663 19.6051 12.6972 19.6657 12.6805L20.5318 12.5078V12.5421C20.1876 12.6316 19.839 12.7031 19.4875 12.7562C19.4865 12.7447 19.4848 12.7333 19.4824 12.722Z" fill="#77C7EF"/>
<path d="M17.5053 13.2334C17.5046 13.245 17.5061 13.2566 17.5096 13.2676C17.1909 13.3852 16.8653 13.4825 16.5345 13.559C16.5259 13.551 16.5237 13.5437 16.5266 13.5372C16.5295 13.5306 16.5324 13.5263 16.5353 13.5263L17.0001 13.3762L17.5053 13.2334Z" fill="#377DB4"/>
<path d="M16.5347 13.524C16.5336 13.5349 16.5336 13.5459 16.5347 13.5568C16.4252 13.6237 16.3015 13.6632 16.1738 13.6719C16.1676 13.6646 16.1636 13.6556 16.1625 13.646C16.1613 13.6364 16.163 13.6266 16.1673 13.618C16.2763 13.5401 16.3839 13.4672 16.5282 13.5182L16.5347 13.524Z" fill="#2F6DA4"/>
<path d="M15.4902 13.8896C15.5624 13.7658 15.7161 13.8167 15.8129 13.7439C15.8258 13.7519 15.8302 13.7599 15.8273 13.7694C15.8244 13.7789 15.8201 13.7832 15.8165 13.7832C15.7175 13.844 15.6057 13.8804 15.4902 13.8896Z" fill="#204B7E"/>
<path d="M15.8161 13.7819L15.8125 13.7426L15.99 13.696C16.0391 13.6391 16.0933 13.5991 16.1727 13.6326C16.1727 13.6457 16.1727 13.6588 16.1727 13.6719C16.0627 13.7333 15.9413 13.7707 15.8161 13.7819Z" fill="#275C92"/>
<path d="M25.3539 19.3776H25.3322C25.3322 19.0376 25.3305 18.6996 25.3271 18.3635C25.3892 18.4539 25.3416 18.5573 25.3596 18.6549C25.3582 18.8944 25.3563 19.1353 25.3539 19.3776Z" fill="#3578B2"/>
<path d="M24.997 14.5039C24.9507 14.4016 24.9284 14.2899 24.932 14.1775C25.0251 14.2715 24.9926 14.3917 24.997 14.5039Z" fill="#223A69"/>
<path d="M16.173 13.6325L15.9911 13.6958C15.9817 13.5924 15.9052 13.5989 15.8316 13.5938C15.5501 13.5742 15.4606 13.4576 15.5133 13.1808C15.522 13.1378 15.535 13.0897 15.5076 13.0577C15.4246 12.9453 15.3857 12.806 15.3986 12.6665C15.3986 12.3896 15.2997 12.1339 15.2723 11.8651C15.2636 11.7857 15.2499 11.6954 15.1611 11.6779C15.0723 11.6604 15.0341 11.7507 15.0009 11.8236C14.9727 11.8826 14.972 11.9554 14.9121 11.997C14.9265 11.758 15.0427 11.5497 15.1286 11.3362C15.1749 11.201 15.2291 11.0686 15.291 10.9399C15.3531 10.8263 15.4007 10.717 15.5328 10.6485C15.6649 10.58 15.706 10.6303 15.6966 10.7214C15.6692 10.9851 15.7999 11.2313 15.7739 11.4877C15.7602 11.6262 15.867 11.7223 15.8814 11.8469C15.937 12.3306 16.0604 12.7991 16.1744 13.2704C16.212 13.4256 16.3239 13.4314 16.4386 13.4569C16.474 13.4642 16.5692 13.4081 16.531 13.5239L16.173 13.6325Z" fill="#204B7E"/>
<path d="M13.8694 19.4124H13.8975C13.8975 19.8009 13.8975 20.1894 13.8975 20.578C13.8874 20.5918 13.8787 20.5918 13.8722 20.578C13.8722 20.5175 13.8722 20.4578 13.8672 20.3973C13.8672 20.143 13.8672 19.8873 13.8672 19.6338C13.8672 19.5581 13.8686 19.4852 13.8694 19.4124Z" fill="#3172AB"/>
<path d="M13.8708 20.5781H13.8961C13.8961 20.7355 13.8961 20.8931 13.8961 21.0509H13.8672C13.8691 20.8916 13.8703 20.734 13.8708 20.5781Z" fill="#2C649A"/>
<path d="M17.9019 27.2321C17.9007 27.2539 17.9081 27.2753 17.9224 27.2917C17.9367 27.308 17.9569 27.318 17.9784 27.3195C18.1394 27.313 18.2671 27.4186 18.4115 27.4507C18.6381 27.4995 18.6922 27.627 18.5558 27.8193C18.5348 27.8404 18.5223 27.8687 18.5208 27.8986C18.5194 27.9285 18.529 27.9579 18.5479 27.981C18.5899 28.0406 18.6138 28.1114 18.6164 28.1845C18.6191 28.2577 18.6006 28.33 18.5631 28.3926C18.5224 28.4737 18.504 28.5642 18.5096 28.6549C18.514 28.7365 18.5096 28.8188 18.4043 28.8319C18.3408 28.8399 18.3263 28.8836 18.3321 28.9361C18.3509 29.1248 18.2924 29.3083 18.2975 29.4948C18.2975 29.6318 18.2635 29.7331 18.1278 29.7775C18.0665 29.7979 18.0506 29.8409 18.042 29.9006C17.9965 30.235 17.9445 30.5686 17.9698 30.9089C17.9785 30.9539 17.971 31.0005 17.9488 31.0406C17.9266 31.0806 17.8911 31.1114 17.8485 31.1274C17.7561 31.166 17.7417 31.2126 17.8211 31.2833C17.8478 31.3081 17.9019 31.3343 17.8622 31.3846C17.8225 31.4348 17.7901 31.394 17.7475 31.394C17.5883 31.4061 17.4286 31.3791 17.282 31.3154C17.2038 31.2873 17.1307 31.2467 17.0654 31.1952C17.1326 31.1813 17.1888 31.0728 17.2711 31.2017C17.305 31.2542 17.3635 31.1609 17.3476 31.1136C17.2812 30.9118 17.3325 30.7406 17.4407 30.5665C17.4978 30.4754 17.4595 30.353 17.4609 30.2445C17.4609 30.0026 17.4609 29.76 17.4609 29.516C17.4609 29.3768 17.4999 29.2785 17.6551 29.2654C17.7951 29.2537 17.7994 29.1422 17.7807 29.0468C17.7201 28.7554 17.7655 28.456 17.7496 28.1609C17.7438 28.1311 17.7453 28.1002 17.7541 28.0711C17.7629 28.042 17.7788 28.0156 17.8002 27.9941C17.9135 27.8994 17.9142 27.7705 17.9373 27.6372C17.9691 27.455 17.8572 27.4033 17.7439 27.3392C17.6818 27.3042 17.6111 27.2838 17.5483 27.2496C17.5057 27.2263 17.4176 27.2095 17.4516 27.1476C17.4618 27.1345 17.4748 27.1239 17.4895 27.1165C17.5043 27.1091 17.5205 27.1051 17.537 27.1048C17.5534 27.1044 17.5698 27.1077 17.5849 27.1145C17.5999 27.1213 17.6133 27.1313 17.6241 27.144C17.6869 27.2168 17.7403 27.243 17.8218 27.1884C17.8381 27.1853 17.855 27.1879 17.8696 27.1959C17.8842 27.2038 17.8956 27.2166 17.9019 27.2321Z" fill="#3B81C1"/>
</g>
<circle cx="20" cy="20" r="19.5" stroke="black" stroke-opacity="0.05"/>
<defs>
<clipPath id="clip0_18553_60636">
<rect width="21" height="25" fill="white" transform="translate(9.46484 7.5)"/>
</clipPath>
</defs>
</svg>
