<svg width="40" height="40" viewBox="0 0 40 40" fill="none" xmlns="http://www.w3.org/2000/svg">
<circle cx="20" cy="20" r="20" fill="#01007D"/>
<path d="M25.8179 26.7276H20.8536V24.1371C23.3042 23.4358 25.1102 20.9276 25.1102 17.9772C25.1102 17.7105 25.0945 17.4374 25.0711 17.1816H25.8179C28.1717 17.1816 30.0824 19.3244 30.0824 21.9546C30.0824 24.5848 28.1711 26.7281 25.8179 26.7281M18.0194 17.1817H19.4364V26.7276H18.0194V17.1817ZM23.6899 17.9773C23.6899 20.0559 22.5132 21.8192 20.854 22.477V17.1817H23.6308C23.6739 17.4446 23.6936 17.7109 23.6899 17.9773ZM14.4743 22.7489V13.1911H19.4377C21.0127 13.1911 22.3804 14.1611 23.127 15.5882H15.8906V22.7489H14.4743ZM13.0558 22.7489H11.638V13.1911H13.0546L13.0558 22.7489ZM25.8191 15.5882H24.6995C23.858 13.261 21.8141 11.6001 19.436 11.6001H9.5V24.3389H15.8906V28.3178H25.8175C28.9532 28.3178 31.5 25.4599 31.5 21.9546C31.5 18.4349 28.9532 15.5881 25.8175 15.5881" fill="white"/>
<circle cx="20" cy="20" r="19.5" stroke="black" stroke-opacity="0.05"/>
</svg>
