<svg width="40" height="40" viewBox="0 0 40 40" fill="none" xmlns="http://www.w3.org/2000/svg">
<circle cx="20" cy="20" r="20" fill="#F6F8FA"/>
<path d="M20.0011 8.60348C17.3874 8.60306 14.8451 9.45603 12.7606 11.0327C10.6761 12.6095 9.16335 14.8237 8.45242 17.3388C7.74149 19.854 7.87122 22.5324 8.82188 24.9671C9.77255 27.4017 11.4922 29.4594 13.7193 30.8273L16.0008 28.5238C13.9384 27.6102 12.2538 26.014 11.2305 24.0038C10.2071 21.9936 9.90765 19.6922 10.3824 17.4871C10.8572 15.2819 12.0772 13.3077 13.8371 11.8967C15.597 10.4857 17.7892 9.72418 20.0449 9.74027C22.3005 9.75635 24.4817 10.5491 26.2212 11.985C27.9608 13.421 29.1526 15.4124 29.5958 17.6241C30.0391 19.8358 29.7068 22.1327 28.6549 24.128C27.603 26.1234 25.8958 27.6955 23.8206 28.5795L26.1443 30.9084C28.4023 29.5635 30.1564 27.5145 31.1369 25.0761C32.1175 22.6377 32.2703 19.9448 31.572 17.4111C30.8737 14.8774 29.3629 12.643 27.2716 11.0512C25.1803 9.45945 22.6242 8.59832 19.996 8.6001L20.0011 8.60348Z" fill="#FF0000"/>
<path d="M29.8438 19.5787C29.8438 17.8287 29.3771 16.1103 28.492 14.6007C27.6069 13.0911 26.3353 11.8447 24.8082 10.99C23.2811 10.1353 21.5537 9.70327 19.8041 9.7383C18.0544 9.77334 16.3458 10.2742 14.8541 11.1893C13.3625 12.1045 12.1418 13.4007 11.3178 14.9446C10.4938 16.4885 10.0963 18.2241 10.1663 19.9727C10.2363 21.7213 10.7712 23.4196 11.716 24.8927C12.6607 26.3657 13.9811 27.5603 15.5412 28.3533L15.9603 28.5747L19.8642 24.6268L23.8882 28.6575L24.3344 28.4141C25.9871 27.604 27.3795 26.3466 28.3534 24.7847C29.3273 23.2229 29.8436 21.4192 29.8438 19.5787ZM19.8626 23.9068L16.8307 26.9489C15.8082 26.2646 15.0348 25.2678 14.6259 24.1074C14.2171 22.9471 14.1949 21.6855 14.5626 20.5115C14.9303 19.3375 15.6681 18.314 16.6658 17.5942C17.6635 16.8743 18.8674 16.4968 20.0975 16.518C21.3276 16.5392 22.5177 16.9581 23.49 17.7119C24.4623 18.4657 25.1644 19.514 25.4914 20.7C25.8184 21.8861 25.7526 23.1461 25.304 24.2916C24.8554 25.4372 24.048 26.4068 23.0026 27.0553L19.8626 23.9068ZM24.4814 28.1234C25.6187 27.1985 26.4418 25.9441 26.8375 24.5325C27.2331 23.121 27.1821 21.6215 26.6913 20.2401C26.2005 18.8588 25.294 17.6633 24.0964 16.8178C22.8988 15.9724 21.4688 15.5185 20.0028 15.5185C18.5369 15.5185 17.1069 15.9724 15.9092 16.8178C14.7116 17.6633 13.8052 18.8588 13.3144 20.2401C12.8236 21.6215 12.7725 23.121 13.1682 24.5325C13.5639 25.9441 14.3869 27.1985 15.5243 28.1234C13.6779 27.1266 12.217 25.5423 11.3727 23.6214C10.5284 21.7005 10.3491 19.5529 10.8632 17.5186C11.3773 15.4843 12.5554 13.6797 14.2108 12.3905C15.8663 11.1013 17.9046 10.4013 20.0028 10.4013C22.1011 10.4013 24.1393 11.1013 25.7948 12.3905C27.4503 13.6797 28.6284 15.4843 29.1424 17.5186C29.6565 19.5529 29.4772 21.7005 28.633 23.6214C27.7887 25.5423 26.3277 27.1266 24.4814 28.1234Z" fill="#0A104C"/>
<circle cx="20" cy="20" r="19.5" stroke="black" stroke-opacity="0.05"/>
</svg>
