<svg width="40" height="40" viewBox="0 0 40 40" fill="none" xmlns="http://www.w3.org/2000/svg">
<circle cx="20" cy="20" r="20" fill="#F6F8FA"/>
<g clip-path="url(#clip0_17752_43608)">
<path d="M20.5725 15.0364L18.4727 16.3306" stroke="#E1E3E7" stroke-width="0.262457"/>
<path d="M18.4731 16.3304C17.1462 14.8307 14.8218 16.2269 15.5608 18.06C15.6942 18.3903 15.9155 18.647 16.2249 18.8303C16.8808 19.2177 17.515 19.1946 18.1274 18.7609C18.337 18.6126 18.4581 18.4207 18.6391 18.2492" stroke="#99DDE9" stroke-width="0.262457"/>
<path d="M18.6387 18.2493C18.6514 18.2729 18.6636 18.2928 18.6754 18.3091C18.6872 18.3264 18.7044 18.3404 18.7271 18.3513C19.4765 18.6925 20.1955 19.0599 20.8841 19.4537" stroke="#E1E3E7" stroke-width="0.262457"/>
<path d="M20.8844 19.4536C20.4993 20.7682 21.2219 22.0937 22.5637 22.3319C24.9779 22.7592 26.2082 19.5897 24.1464 18.2751C23.7146 17.9993 23.2301 17.8899 22.693 17.9471" stroke="#CD82C1" stroke-width="0.262457"/>
<path d="M22.693 17.9473C22.6776 17.2496 22.5696 16.5369 22.3691 15.8093" stroke="#E1E3E7" stroke-width="0.262457"/>
<path d="M22.369 15.8093C23.7925 15.2731 23.6564 13.2794 22.1499 12.9949C21.836 12.9351 21.5176 12.9986 21.1946 13.1855C20.5441 13.562 20.3368 14.1789 20.5727 15.0363" stroke="#FEE880" stroke-width="0.262457"/>
<path d="M22.3691 15.8093L22.0234 15.8978" stroke="#E0CC67" stroke-width="0.262457"/>
<path d="M22.0233 15.8976C21.4989 15.8867 21.0784 15.6966 20.7617 15.3274" stroke="#FEE880" stroke-width="0.262457"/>
<path d="M20.7614 15.3276L20.5723 15.0364" stroke="#E0CC67" stroke-width="0.262457"/>
<path d="M22.0234 15.8977L22.4235 17.9989" stroke="#E1E3E7" stroke-width="0.262457"/>
<path d="M22.4231 17.999C21.7871 18.2022 21.3235 18.5697 21.0322 19.1013" stroke="#CD82C1" stroke-width="0.262457"/>
<path d="M21.0324 19.1013C20.3075 18.7121 19.5776 18.3501 18.8427 18.0154C18.8046 17.9981 18.7597 17.9949 18.708 18.0058" stroke="#E1E3E7" stroke-width="0.262457"/>
<path d="M18.7083 18.0058C18.8734 17.5195 18.8512 17.0631 18.6416 16.6367" stroke="#99DDE9" stroke-width="0.262457"/>
<path d="M20.7619 15.3274L18.6416 16.6366" stroke="#E1E3E7" stroke-width="0.262457"/>
<path d="M18.6414 16.6368L18.4727 16.3306" stroke="#7BC1D0" stroke-width="0.262457"/>
<path d="M22.6933 17.9473L22.4238 17.999" stroke="#AF66A9" stroke-width="0.262457"/>
<path d="M20.8848 19.4538L21.0331 19.1013" stroke="#AF66A9" stroke-width="0.262457"/>
<path d="M18.7081 18.0056C18.6555 18.0773 18.6324 18.1585 18.6387 18.2492" stroke="#7BC1D0" stroke-width="0.262457"/>
<path d="M19.4647 24.3324C18.934 23.7595 18.0317 24.0221 17.8276 24.757C17.6439 25.4198 17.7242 26.3465 18.5135 26.552C19.3599 26.7739 20.1914 26.4867 20.1778 25.462C20.1697 24.8414 20.1678 24.2381 20.1724 23.652C20.1732 23.5751 20.1443 23.501 20.0917 23.4451C20.0392 23.3893 19.9671 23.3561 19.8907 23.3526L19.7219 23.3444C19.5886 23.3381 19.5232 23.4016 19.526 23.535L19.5409 24.3025C19.5427 24.3796 19.5173 24.3896 19.4647 24.3324Z" stroke="#9394B2" stroke-width="0.262457"/>
<path d="M28.9314 24.4155L28.9287 26.5181C28.9287 26.548 28.9437 26.563 28.9736 26.563L29.5289 26.5644C29.5515 26.5644 29.5624 26.553 29.5615 26.5303L29.5452 25.6077" stroke="#9394B2" stroke-width="0.262457"/>
<path d="M29.5449 25.6076C29.6665 25.4951 29.7695 25.5001 29.8538 25.6226C29.9573 25.7732 30.1287 26.0807 30.3683 26.5452C30.3728 26.5542 30.3796 26.5618 30.388 26.567C30.3964 26.5723 30.4061 26.5751 30.4159 26.5752L31.1494 26.5765C31.1524 26.5766 31.1554 26.5758 31.158 26.5743C31.1607 26.5727 31.1628 26.5705 31.1642 26.5678C31.1656 26.5651 31.1663 26.5621 31.166 26.5591C31.1658 26.5561 31.1648 26.5531 31.163 26.5507L30.307 25.1585C30.2946 25.138 30.2893 25.114 30.2921 25.0903C30.2948 25.0666 30.3053 25.0447 30.322 25.0278L31.1004 24.2222C31.1494 24.1714 31.1385 24.146 31.0678 24.146L30.4785 24.1474C30.4195 24.1474 30.3723 24.1709 30.337 24.2181C30.1111 24.5221 29.847 24.7797 29.5449 24.9911" stroke="#9394B2" stroke-width="0.262457"/>
<path d="M29.5449 24.9912V23.7964" stroke="#9394B2" stroke-width="0.262457"/>
<path d="M29.5448 23.7964C29.6083 23.5741 29.5366 23.4258 29.3298 23.3514C29.2717 23.3305 29.1587 23.3319 28.9909 23.3554C28.9455 23.3618 28.9229 23.3881 28.9229 23.4344L28.931 24.4156" stroke="#9394B2" stroke-width="0.262457"/>
<path d="M8.54222 24.6862C8.58486 24.7262 8.6275 24.7661 8.67014 24.806C8.7146 24.8468 8.76631 24.8627 8.82528 24.8536C8.92599 24.8373 9.02397 24.8368 9.11923 24.8523C9.36873 24.8913 9.42952 24.8015 9.30159 24.5828C8.79534 23.7173 7.33239 23.8506 7.11873 24.889C6.97856 25.564 7.12281 26.4445 7.90668 26.5969C8.63158 26.7375 9.11288 26.518 9.35058 25.9382C9.38778 25.8484 9.35784 25.804 9.26077 25.8049L8.84978 25.809C8.82444 25.809 8.79941 25.8142 8.77623 25.8243C8.75306 25.8343 8.73223 25.849 8.71505 25.8675C8.44696 26.1533 7.96656 26.1927 7.80326 25.7763C7.71162 25.544 7.7021 25.2642 7.77468 24.9366C7.84681 24.6114 8.29454 24.4535 8.54222 24.6862Z" stroke="#9394B2" stroke-width="0.262457"/>
<path d="M10.3892 25.277C10.3938 24.8424 10.631 24.6587 11.101 24.7258C11.1075 24.7266 11.1141 24.726 11.1204 24.724C11.1266 24.722 11.1324 24.7187 11.1373 24.7143C11.1422 24.71 11.1461 24.7046 11.1487 24.6986C11.1514 24.6926 11.1527 24.6861 11.1527 24.6795L11.1554 24.0998C11.1554 24.0744 11.1427 24.0617 11.1173 24.0617C9.42437 24.044 9.76051 25.4062 9.72104 26.529C9.72086 26.5345 9.72182 26.54 9.72384 26.5452C9.72587 26.5504 9.72892 26.5552 9.73284 26.5592C9.73676 26.5632 9.74146 26.5665 9.74667 26.5688C9.75189 26.5711 9.75751 26.5723 9.76323 26.5725L10.3647 26.578C10.382 26.578 10.3901 26.5698 10.3892 26.5535C10.3856 26.0935 10.3856 25.668 10.3892 25.277Z" stroke="#9394B2" stroke-width="0.262457"/>
<path d="M13.7816 25.0687C13.7816 24.9326 13.7548 24.7977 13.7027 24.6719C13.6506 24.5461 13.5742 24.4318 13.4779 24.3355C13.3816 24.2392 13.2673 24.1628 13.1415 24.1107C13.0157 24.0586 12.8808 24.0317 12.7446 24.0317H12.497C12.2219 24.0317 11.9582 24.141 11.7637 24.3355C11.5692 24.5299 11.46 24.7937 11.46 25.0687V25.5995C11.46 25.7357 11.4868 25.8705 11.5389 25.9963C11.591 26.1221 11.6674 26.2364 11.7637 26.3327C11.86 26.429 11.9743 26.5054 12.1001 26.5575C12.2259 26.6096 12.3608 26.6365 12.497 26.6365H12.7446C12.8808 26.6365 13.0157 26.6096 13.1415 26.5575C13.2673 26.5054 13.3816 26.429 13.4779 26.3327C13.5742 26.2364 13.6506 26.1221 13.7027 25.9963C13.7548 25.8705 13.7816 25.7357 13.7816 25.5995V25.0687Z" stroke="#9394B2" stroke-width="0.262457"/>
<path d="M16.414 25.635L16.1323 24.1693C16.1205 24.1058 16.0819 24.0731 16.0166 24.0713L15.5117 24.0631C15.488 24.0627 15.4649 24.0705 15.4463 24.0854C15.4276 24.1003 15.4147 24.1213 15.4096 24.1448L15.1034 25.6009C15.0681 25.7706 15.0313 25.771 14.9932 25.6023L14.6489 24.1012C14.6444 24.0813 14.6321 24.0713 14.6122 24.0713L14.0161 24.0631C13.988 24.0622 13.978 24.0754 13.9862 24.1026L14.6543 26.4719C14.6725 26.5363 14.7151 26.5685 14.7823 26.5685L15.2804 26.5672C15.3402 26.5672 15.3765 26.5381 15.3892 26.4801L15.724 24.964C15.7576 24.8125 15.7925 24.8121 15.8288 24.9627C15.9449 25.4444 16.0511 25.9552 16.1472 26.495C16.1554 26.5431 16.1835 26.5667 16.2316 26.5658L16.7664 26.5644C16.8191 26.5644 16.8531 26.539 16.8685 26.4882L17.5299 24.2006C17.5571 24.1044 17.5208 24.0577 17.421 24.0604L17.0618 24.0713C16.9393 24.0749 16.864 24.1366 16.8358 24.2564L16.5174 25.6363C16.4802 25.8005 16.4457 25.8001 16.414 25.635Z" stroke="#9394B2" stroke-width="0.262457"/>
<path d="M22.293 25.7778L22.4998 24.9177C22.5143 24.8542 22.5298 24.8542 22.5461 24.9177L22.7421 25.6921" stroke="#9394B2" stroke-width="0.262457"/>
<path d="M22.7422 25.6921L22.9232 26.5032C22.935 26.5549 22.9676 26.5803 23.0212 26.5794L23.5138 26.5685C23.5402 26.568 23.5658 26.5591 23.5869 26.5429C23.6079 26.5268 23.6233 26.5043 23.6308 26.4787L24.2854 24.1679C24.3108 24.0799 24.2777 24.0409 24.1861 24.0508C24.0518 24.0654 23.9175 24.0803 23.7833 24.0957C23.6753 24.1075 23.6091 24.1665 23.5846 24.2727L23.2893 25.5669C23.2466 25.7538 23.2044 25.7538 23.1627 25.5669L23.0538 25.0878" stroke="#9394B2" stroke-width="0.262457"/>
<path d="M23.0538 25.0877L22.8646 24.15C22.8538 24.0956 22.8202 24.0684 22.7639 24.0684L22.2713 24.0724C22.2069 24.0724 22.1683 24.1042 22.1556 24.1677L21.9365 25.2469" stroke="#9394B2" stroke-width="0.262457"/>
<path d="M21.9365 25.2469L21.8494 25.6347C21.8158 25.7826 21.7818 25.7826 21.7473 25.6347L21.3962 24.1146C21.389 24.0838 21.3699 24.0684 21.3391 24.0684L20.773 24.0588C20.7678 24.0588 20.7628 24.06 20.7582 24.0623C20.7537 24.0646 20.7497 24.0679 20.7467 24.072C20.7436 24.0761 20.7416 24.0809 20.7407 24.0859C20.7398 24.091 20.7402 24.0961 20.7417 24.101L21.4194 26.5044C21.433 26.5515 21.4647 26.5747 21.5146 26.5738L22.0467 26.5601C22.0939 26.5592 22.1225 26.5357 22.1325 26.4894L22.2931 25.7776" stroke="#9394B2" stroke-width="0.262457"/>
<path d="M26.8566 25.0675C26.8547 24.7914 26.7431 24.5274 26.5465 24.3335C26.3499 24.1396 26.0844 24.0318 25.8083 24.0337L25.5661 24.0354C25.4293 24.0364 25.2941 24.0642 25.1682 24.1174C25.0423 24.1706 24.928 24.2481 24.832 24.3455C24.736 24.4428 24.6602 24.5581 24.6087 24.6848C24.5573 24.8115 24.5313 24.947 24.5323 25.0837L24.5359 25.6009C24.5378 25.877 24.6493 26.141 24.8459 26.3349C25.0425 26.5287 25.3081 26.6366 25.5842 26.6346L25.8264 26.633C25.9631 26.632 26.0983 26.6041 26.2243 26.5509C26.3502 26.4977 26.4644 26.4202 26.5604 26.3229C26.6564 26.2256 26.7323 26.1102 26.7837 25.9836C26.8352 25.8569 26.8612 25.7213 26.8602 25.5846L26.8566 25.0675Z" stroke="#9394B2" stroke-width="0.262457"/>
<path d="M32.7961 26.0526C32.5893 26.2241 31.9864 26.1642 31.936 25.8199C31.9315 25.7863 31.9124 25.7695 31.8789 25.7695L31.2978 25.7627C31.266 25.7627 31.2515 25.7786 31.2542 25.8104C31.3114 26.6214 32.1783 26.7085 32.8315 26.5847C33.0574 26.5421 33.2361 26.4468 33.3677 26.2989C33.629 26.0022 33.6317 25.4075 33.203 25.2347C32.9136 25.1177 32.5915 25.0233 32.2368 24.9516C32.1016 24.9244 32.0177 24.8487 31.985 24.7244C31.9782 24.6975 31.9812 24.669 31.9934 24.6441C32.0056 24.6191 32.0263 24.5994 32.0517 24.5883C32.2277 24.5103 32.4096 24.5012 32.5974 24.5611C32.6419 24.5756 32.6777 24.6014 32.7049 24.6386C32.8601 24.8464 33.0955 24.9131 33.4112 24.8387C33.4215 24.8361 33.4311 24.8316 33.4396 24.8253C33.448 24.819 33.4551 24.8111 33.4604 24.8021C33.4658 24.7931 33.4692 24.7831 33.4706 24.7728C33.472 24.7625 33.4712 24.752 33.4684 24.7421C33.3514 24.3238 33.0583 24.0888 32.5893 24.0371C32.0912 23.9827 31.4148 24.1242 31.344 24.7108C31.296 25.1045 31.4702 25.3594 31.8666 25.4756C32.1452 25.5572 32.4282 25.633 32.7158 25.7028C32.7519 25.7114 32.7849 25.73 32.811 25.7563C32.8371 25.7827 32.8554 25.8159 32.8637 25.8522C32.8721 25.8885 32.8701 25.9265 32.8582 25.9618C32.8463 25.9972 32.8248 26.0287 32.7961 26.0526Z" stroke="#9394B2" stroke-width="0.262457"/>
<path d="M27.868 25.1109C27.8911 24.753 28.2681 24.6795 28.5579 24.7231C28.5924 24.7285 28.6097 24.7136 28.6097 24.6782L28.6165 24.127C28.6165 24.0817 28.5942 24.0594 28.5498 24.0603C27.8829 24.0658 27.2488 24.3516 27.2188 25.0606C27.1989 25.5287 27.1916 26.0159 27.1971 26.5222C27.1971 26.5293 27.1985 26.5363 27.2012 26.5428C27.204 26.5493 27.208 26.5552 27.2131 26.5602C27.2182 26.5651 27.2242 26.569 27.2308 26.5716C27.2374 26.5742 27.2444 26.5754 27.2515 26.5752L27.7986 26.563C27.8412 26.5621 27.8616 26.5403 27.8598 26.4977C27.8344 26.0359 27.8371 25.5736 27.868 25.1109Z" stroke="#9394B2" stroke-width="0.262457"/>
<path d="M18.9605 26.1081C19.1124 26.1118 19.26 26.0341 19.371 25.8921C19.4819 25.75 19.5471 25.5553 19.5521 25.3507C19.5545 25.2494 19.5422 25.1487 19.5157 25.0544C19.4892 24.9601 19.4491 24.8741 19.3976 24.8011C19.3462 24.7282 19.2845 24.6699 19.2159 24.6294C19.1474 24.5889 19.0734 24.5672 18.9982 24.5653C18.8463 24.5616 18.6986 24.6393 18.5876 24.7814C18.4767 24.9234 18.4116 25.1181 18.4066 25.3227C18.4041 25.424 18.4164 25.5247 18.4429 25.619C18.4694 25.7133 18.5096 25.7993 18.561 25.8723C18.6124 25.9452 18.6742 26.0036 18.7427 26.044C18.8113 26.0845 18.8853 26.1063 18.9605 26.1081Z" stroke="#9394B2" stroke-width="0.262457"/>
<path d="M12.6051 26.0893C12.7455 26.091 12.8811 26.0123 12.9821 25.8703C13.0831 25.7284 13.1413 25.5349 13.1437 25.3324C13.145 25.2321 13.1325 25.1327 13.107 25.0398C13.0815 24.9468 13.0436 24.8622 12.9953 24.7907C12.947 24.7192 12.8893 24.6623 12.8256 24.6231C12.7618 24.584 12.6932 24.5634 12.6237 24.5625C12.4833 24.5608 12.3477 24.6396 12.2467 24.7816C12.1457 24.9235 12.0875 25.117 12.085 25.3195C12.0838 25.4197 12.0963 25.5192 12.1218 25.6121C12.1472 25.705 12.1852 25.7897 12.2335 25.8612C12.2818 25.9327 12.3394 25.9896 12.4032 26.0287C12.467 26.0679 12.5355 26.0885 12.6051 26.0893Z" stroke="#9394B2" stroke-width="0.262457"/>
<path d="M25.6765 26.0879C25.7466 26.0888 25.8162 26.0698 25.8813 26.0322C25.9465 25.9945 26.006 25.9389 26.0564 25.8685C26.1068 25.7981 26.1472 25.7143 26.1751 25.6218C26.203 25.5294 26.2181 25.4301 26.2193 25.3297C26.2218 25.1268 26.1679 24.9316 26.0697 24.787C25.9714 24.6423 25.8367 24.5601 25.6952 24.5584C25.6252 24.5575 25.5555 24.5765 25.4904 24.6141C25.4252 24.6517 25.3657 24.7074 25.3153 24.7778C25.2649 24.8482 25.2245 24.932 25.1966 25.0245C25.1687 25.1169 25.1537 25.2162 25.1524 25.3166C25.1499 25.5194 25.2038 25.7147 25.3021 25.8593C25.4003 26.0039 25.535 26.0862 25.6765 26.0879Z" stroke="#9394B2" stroke-width="0.262457"/>
<path d="M22.3681 15.8093L22.0224 15.8977C21.498 15.8868 21.0775 15.6968 20.7609 15.3275L20.5717 15.0363C20.3358 14.1789 20.5431 13.562 21.1936 13.1855C21.5166 12.9986 21.8351 12.9351 22.149 12.9949C23.6555 13.2794 23.7916 15.2731 22.3681 15.8093Z" fill="#FDD000"/>
<path d="M20.5725 15.0364L20.7617 15.3276L18.6414 16.6368L18.4727 16.3306L20.5725 15.0364Z" fill="#C2C7CE"/>
<path d="M18.4721 16.3306L18.6409 16.6368C18.8504 17.0632 18.8727 17.5196 18.7075 18.0058C18.6549 18.0775 18.6318 18.1587 18.6381 18.2494C18.4571 18.4209 18.336 18.6128 18.1264 18.7611C17.514 19.1948 16.8799 19.2179 16.2239 18.8305C15.9145 18.6473 15.6932 18.3905 15.5598 18.0603C14.8208 16.2272 17.1452 14.8309 18.4721 16.3306Z" fill="#33BBD2"/>
<path d="M22.3681 15.8093C22.5686 16.5369 22.6766 17.2496 22.692 17.9473L22.4226 17.999L22.0225 15.8978L22.3681 15.8093Z" fill="#C2C7CE"/>
<path d="M22.692 17.9473C23.2291 17.8902 23.7136 17.9995 24.1455 18.2753C26.2072 19.5899 24.977 22.7594 22.5628 22.3321C21.2209 22.094 20.4983 20.7685 20.8834 19.4538L21.0318 19.1014C21.323 18.5697 21.7866 18.2023 22.4226 17.999L22.692 17.9473Z" fill="#9B0583"/>
<path d="M18.7071 18.0058C18.7589 17.9949 18.8038 17.9981 18.8419 18.0154C19.5768 18.3501 20.3066 18.7121 21.0315 19.1013L20.8832 19.4538C20.1946 19.0601 19.4756 18.6926 18.7262 18.3515C18.7035 18.3406 18.6863 18.3265 18.6745 18.3093C18.6627 18.293 18.6504 18.273 18.6377 18.2494C18.6314 18.1587 18.6545 18.0775 18.7071 18.0058Z" fill="#C2C7CE"/>
<path d="M19.5409 24.3027L19.526 23.5352C19.5232 23.4018 19.5886 23.3383 19.7219 23.3447L19.8907 23.3528C19.9671 23.3564 20.0392 23.3895 20.0917 23.4454C20.1443 23.5012 20.1732 23.5754 20.1724 23.6522C20.1678 24.2383 20.1697 24.8416 20.1778 25.4622C20.1914 26.487 19.3599 26.7741 18.5135 26.5523C17.7242 26.3468 17.6439 25.42 17.8276 24.7573C18.0317 24.0224 18.934 23.7597 19.4647 24.3327C19.5173 24.3898 19.5427 24.3799 19.5409 24.3027ZM18.96 26.1084C19.1119 26.1121 19.2596 26.0344 19.3706 25.8924C19.4815 25.7503 19.5466 25.5556 19.5516 25.351C19.5541 25.2497 19.5418 25.149 19.5153 25.0547C19.4888 24.9605 19.4487 24.8744 19.3972 24.8015C19.3458 24.7285 19.284 24.6702 19.2155 24.6297C19.1469 24.5892 19.073 24.5675 18.9977 24.5656C18.8458 24.5619 18.6982 24.6396 18.5872 24.7817C18.4763 24.9237 18.4111 25.1184 18.4061 25.323C18.4037 25.4243 18.416 25.525 18.4425 25.6193C18.469 25.7136 18.5091 25.7996 18.5606 25.8726C18.612 25.9455 18.6737 26.0039 18.7423 26.0443C18.8108 26.0848 18.8848 26.1066 18.96 26.1084Z" fill="#272865"/>
<path d="M29.5448 23.7964C29.3815 23.9034 29.2762 24.0994 29.2291 24.3843C29.2145 24.4705 29.1882 24.4741 29.1501 24.3952C29.1383 24.3698 29.1329 24.3434 29.1338 24.3162C29.1347 24.25 29.1079 24.2355 29.0535 24.2727C28.9945 24.3135 28.9537 24.3611 28.931 24.4156L28.9229 23.4344C28.9229 23.3881 28.9455 23.3618 28.9909 23.3554C29.1587 23.3319 29.2717 23.3305 29.3298 23.3514C29.5366 23.4258 29.6083 23.5741 29.5448 23.7964Z" fill="#272865"/>
<path d="M29.5442 23.7964V24.9912C29.4635 25.2181 29.4635 25.4236 29.5442 25.6077L29.5605 26.5304C29.5615 26.5531 29.5506 26.5644 29.5279 26.5644L28.9726 26.5631C28.9427 26.5631 28.9277 26.5481 28.9277 26.5182L28.9305 24.4156C28.9531 24.3612 28.994 24.3135 29.0529 24.2727C29.1074 24.2355 29.1341 24.25 29.1332 24.3162C29.1323 24.3435 29.1378 24.3698 29.1496 24.3952C29.1877 24.4741 29.214 24.4705 29.2285 24.3843C29.2757 24.0994 29.3809 23.9034 29.5442 23.7964Z" fill="#272865"/>
<path d="M8.54222 24.6865C8.29454 24.4538 7.84681 24.6116 7.77468 24.9369C7.7021 25.2644 7.71162 25.5443 7.80326 25.7765C7.96656 26.193 8.44696 26.1535 8.71505 25.8677C8.73223 25.8493 8.75306 25.8346 8.77623 25.8245C8.79941 25.8145 8.82444 25.8092 8.84978 25.8092L9.26077 25.8051C9.35784 25.8042 9.38778 25.8487 9.35058 25.9385C9.11288 26.5182 8.63158 26.7378 7.90668 26.5972C7.12281 26.4447 6.97856 25.5642 7.11873 24.8892C7.33239 23.8509 8.79534 23.7175 9.30159 24.583C9.42952 24.8017 9.36873 24.8915 9.11923 24.8525C9.02397 24.8371 8.92599 24.8375 8.82528 24.8539C8.76631 24.8629 8.7146 24.8471 8.67014 24.8062C8.6275 24.7663 8.58486 24.7264 8.54222 24.6865Z" fill="#272865"/>
<path d="M10.3883 25.277C10.3846 25.668 10.3846 26.0935 10.3883 26.5535C10.3892 26.5698 10.381 26.578 10.3638 26.578L9.76225 26.5725C9.75653 26.5723 9.75091 26.5711 9.7457 26.5688C9.74048 26.5665 9.73578 26.5632 9.73186 26.5592C9.72795 26.5552 9.72489 26.5504 9.72286 26.5452C9.72084 26.54 9.71989 26.5345 9.72006 26.529C9.75953 25.4062 9.42339 24.044 11.1163 24.0617C11.1417 24.0617 11.1544 24.0744 11.1544 24.0998L11.1517 24.6795C11.1518 24.6861 11.1504 24.6926 11.1478 24.6986C11.1451 24.7046 11.1412 24.71 11.1363 24.7143C11.1314 24.7187 11.1256 24.722 11.1194 24.724C11.1131 24.726 11.1065 24.7266 11.1 24.7258C10.63 24.6587 10.3928 24.8424 10.3883 25.277Z" fill="#272865"/>
<path d="M13.7816 25.5995C13.7816 25.7357 13.7548 25.8705 13.7027 25.9963C13.6506 26.1221 13.5742 26.2364 13.4779 26.3327C13.3816 26.429 13.2673 26.5054 13.1415 26.5575C13.0157 26.6096 12.8808 26.6365 12.7446 26.6365H12.497C12.3608 26.6365 12.2259 26.6096 12.1001 26.5575C11.9743 26.5054 11.86 26.429 11.7637 26.3327C11.6674 26.2364 11.591 26.1221 11.5389 25.9963C11.4868 25.8705 11.46 25.7357 11.46 25.5995V25.0687C11.46 24.7937 11.5692 24.5299 11.7637 24.3355C11.9582 24.141 12.2219 24.0317 12.497 24.0317H12.7446C12.8808 24.0317 13.0157 24.0586 13.1415 24.1107C13.2673 24.1628 13.3816 24.2392 13.4779 24.3355C13.5742 24.4318 13.6506 24.5461 13.7027 24.6719C13.7548 24.7977 13.7816 24.9326 13.7816 25.0687V25.5995ZM12.6047 26.0893C12.7451 26.0911 12.8807 26.0123 12.9817 25.8703C13.0827 25.7284 13.1409 25.5349 13.1433 25.3324C13.1446 25.2322 13.1321 25.1327 13.1066 25.0398C13.0811 24.9468 13.0432 24.8622 12.9949 24.7907C12.9466 24.7192 12.8889 24.6623 12.8252 24.6231C12.7614 24.584 12.6928 24.5634 12.6233 24.5625C12.4829 24.5608 12.3473 24.6396 12.2463 24.7816C12.1453 24.9235 12.0871 25.117 12.0846 25.3195C12.0834 25.4197 12.0959 25.5192 12.1214 25.6121C12.1468 25.7051 12.1848 25.7897 12.2331 25.8612C12.2814 25.9327 12.3391 25.9896 12.4028 26.0288C12.4666 26.0679 12.5352 26.0885 12.6047 26.0893Z" fill="#272865"/>
<path d="M16.413 25.635C16.4448 25.8001 16.4792 25.8005 16.5164 25.6363L16.8349 24.2564C16.863 24.1366 16.9383 24.0749 17.0608 24.0713L17.4201 24.0604C17.5199 24.0577 17.5561 24.1044 17.5289 24.2006L16.8675 26.4882C16.8521 26.539 16.8181 26.5644 16.7655 26.5644L16.2306 26.5658C16.1826 26.5667 16.1544 26.5431 16.1463 26.495C16.0501 25.9552 15.9439 25.4444 15.8278 24.9627C15.7915 24.8121 15.7566 24.8125 15.723 24.964L15.3883 26.4801C15.3755 26.5381 15.3393 26.5672 15.2794 26.5672L14.7813 26.5685C14.7142 26.5685 14.6715 26.5363 14.6534 26.4719L13.9852 24.1026C13.977 24.0754 13.987 24.0622 14.0151 24.0631L14.6112 24.0713C14.6311 24.0713 14.6434 24.0813 14.6479 24.1012L14.9922 25.6023C15.0303 25.771 15.0671 25.7706 15.1025 25.6009L15.4087 24.1448C15.4137 24.1213 15.4267 24.1003 15.4453 24.0854C15.4639 24.0705 15.487 24.0627 15.5107 24.0631L16.0156 24.0713C16.0809 24.0731 16.1195 24.1058 16.1313 24.1693L16.413 25.635Z" fill="#272865"/>
<path d="M21.9355 25.2471C22.0943 25.3152 22.1782 25.2866 22.1873 25.1614C22.1955 25.0462 22.215 24.93 22.2458 24.813C22.2603 24.7559 22.2753 24.7559 22.2907 24.813C22.3062 24.8702 22.3075 24.9278 22.2948 24.9858C22.2413 25.239 22.1887 25.4944 22.1369 25.752C22.1342 25.7665 22.1356 25.7801 22.141 25.7928C22.1474 25.8083 22.1574 25.8214 22.171 25.8323C22.1937 25.8496 22.2141 25.8468 22.2322 25.8242C22.2485 25.8024 22.2685 25.787 22.2921 25.7779L22.1315 26.4896C22.1215 26.5359 22.0929 26.5595 22.0458 26.5604L21.5137 26.574C21.4638 26.5749 21.432 26.5518 21.4184 26.5046L20.7407 24.1013C20.7392 24.0964 20.7389 24.0912 20.7397 24.0862C20.7406 24.0811 20.7426 24.0764 20.7457 24.0723C20.7487 24.0682 20.7527 24.0648 20.7573 24.0626C20.7618 24.0603 20.7669 24.0591 20.772 24.0591L21.3381 24.0686C21.369 24.0686 21.388 24.084 21.3953 24.1149L21.7464 25.635C21.7808 25.7829 21.8149 25.7829 21.8484 25.635L21.9355 25.2471Z" fill="#272865"/>
<path d="M26.8602 25.5846C26.8612 25.7213 26.8352 25.8569 26.7837 25.9836C26.7323 26.1102 26.6564 26.2256 26.5604 26.3229C26.4644 26.4202 26.3502 26.4977 26.2243 26.5509C26.0983 26.6041 25.9631 26.632 25.8264 26.633L25.5842 26.6346C25.3081 26.6366 25.0425 26.5287 24.8459 26.3349C24.6493 26.141 24.5378 25.877 24.5359 25.6009L24.5323 25.0837C24.5313 24.947 24.5573 24.8115 24.6087 24.6848C24.6602 24.5581 24.736 24.4428 24.832 24.3455C24.928 24.2481 25.0423 24.1706 25.1682 24.1174C25.2941 24.0642 25.4293 24.0364 25.5661 24.0354L25.8083 24.0337C26.0844 24.0318 26.3499 24.1396 26.5465 24.3335C26.7431 24.5274 26.8547 24.7914 26.8566 25.0675L26.8602 25.5846ZM25.676 26.0881C25.746 26.0889 25.8157 26.07 25.8808 26.0323C25.946 25.9947 26.0055 25.9391 26.0559 25.8687C26.1063 25.7983 26.1467 25.7144 26.1746 25.622C26.2025 25.5295 26.2175 25.4302 26.2188 25.3298C26.2213 25.127 26.1674 24.9318 26.0691 24.7871C25.9709 24.6425 25.8362 24.5603 25.6947 24.5585C25.6246 24.5577 25.555 24.5766 25.4898 24.6142C25.4247 24.6519 25.3652 24.7075 25.3148 24.7779C25.2644 24.8483 25.224 24.9321 25.1961 25.0246C25.1682 25.1171 25.1531 25.2163 25.1519 25.3168C25.1494 25.5196 25.2033 25.7148 25.3015 25.8595C25.3998 26.0041 25.5345 26.0863 25.676 26.0881Z" fill="#272865"/>
<path d="M32.7951 26.0528C32.8238 26.0289 32.8453 25.9975 32.8572 25.9621C32.8692 25.9267 32.8711 25.8887 32.8627 25.8524C32.8544 25.8162 32.8362 25.783 32.8101 25.7566C32.7839 25.7302 32.751 25.7117 32.7148 25.7031C32.4272 25.6332 32.1442 25.5575 31.8657 25.4758C31.4692 25.3597 31.295 25.1047 31.3431 24.711C31.4138 24.1245 32.0902 23.9829 32.5883 24.0374C33.0573 24.0891 33.3504 24.3241 33.4674 24.7423C33.4702 24.7523 33.471 24.7627 33.4696 24.7731C33.4683 24.7834 33.4648 24.7933 33.4595 24.8023C33.4541 24.8113 33.447 24.8192 33.4386 24.8255C33.4301 24.8318 33.4205 24.8364 33.4103 24.8389C33.0945 24.9133 32.8591 24.8466 32.704 24.6389C32.6767 24.6017 32.6409 24.5758 32.5964 24.5613C32.4086 24.5014 32.2267 24.5105 32.0507 24.5885C32.0253 24.5996 32.0046 24.6194 31.9924 24.6443C31.9802 24.6692 31.9772 24.6977 31.984 24.7246C32.0167 24.8489 32.1006 24.9247 32.2358 24.9519C32.5905 25.0235 32.9126 25.1179 33.202 25.2349C33.6307 25.4078 33.628 26.0025 33.3667 26.2992C33.2352 26.447 33.0564 26.5423 32.8305 26.5849C32.1773 26.7088 31.3104 26.6217 31.2533 25.8106C31.2505 25.7788 31.265 25.763 31.2968 25.763L31.8779 25.7698C31.9115 25.7698 31.9305 25.7866 31.9351 25.8201C31.9854 26.1644 32.5883 26.2243 32.7951 26.0528Z" fill="#272865"/>
<path d="M23.0528 25.0879C23.0211 25.1287 22.9757 25.1578 22.9167 25.175C22.875 25.1877 22.8555 25.2163 22.8582 25.2607C22.87 25.4649 22.831 25.6087 22.7412 25.6921L22.5452 24.9178C22.5289 24.8543 22.5135 24.8543 22.499 24.9178L22.2921 25.7779C22.2685 25.7869 22.2486 25.8024 22.2322 25.8241C22.2141 25.8468 22.1937 25.8496 22.171 25.8323C22.1574 25.8214 22.1474 25.8083 22.141 25.7928C22.1356 25.7801 22.1342 25.7665 22.137 25.752C22.1887 25.4944 22.2413 25.239 22.2948 24.9858C22.3075 24.9278 22.3062 24.8702 22.2907 24.813C22.2753 24.7559 22.2603 24.7559 22.2458 24.813C22.215 24.93 22.1955 25.0462 22.1873 25.1614C22.1782 25.2866 22.0943 25.3152 21.9355 25.2471L22.1546 24.1679C22.1674 24.1044 22.2059 24.0727 22.2703 24.0727L22.763 24.0686C22.8192 24.0686 22.8528 24.0958 22.8637 24.1503L23.0528 25.0879Z" fill="#272865"/>
<path d="M22.7412 25.6921C22.831 25.6086 22.87 25.4648 22.8582 25.2607C22.8555 25.2162 22.875 25.1876 22.9168 25.1749C22.9757 25.1577 23.0211 25.1287 23.0529 25.0878L23.1617 25.5669C23.2035 25.7538 23.2456 25.7538 23.2883 25.5669L23.5836 24.2727C23.6081 24.1665 23.6743 24.1075 23.7823 24.0957C23.9166 24.0803 24.0508 24.0654 24.1851 24.0508C24.2767 24.0409 24.3099 24.0799 24.2845 24.1679L23.6299 26.4787C23.6223 26.5043 23.6069 26.5268 23.5859 26.5429C23.5648 26.5591 23.5392 26.568 23.5128 26.5685L23.0202 26.5794C22.9667 26.5803 22.934 26.5549 22.9222 26.5032L22.7412 25.6921Z" fill="#272865"/>
<path d="M28.5579 24.7231C28.2681 24.6795 27.8911 24.753 27.868 25.1109C27.8371 25.5736 27.8344 26.0359 27.8598 26.4977C27.8616 26.5403 27.8412 26.5621 27.7986 26.563L27.2515 26.5752C27.2444 26.5754 27.2374 26.5742 27.2308 26.5716C27.2242 26.569 27.2182 26.5651 27.2131 26.5602C27.208 26.5552 27.204 26.5493 27.2012 26.5428C27.1985 26.5363 27.1971 26.5293 27.1971 26.5222C27.1916 26.0159 27.1989 25.5287 27.2188 25.0606C27.2488 24.3516 27.8829 24.0658 28.5498 24.0603C28.5942 24.0594 28.6165 24.0817 28.6165 24.127L28.6097 24.6782C28.6097 24.7136 28.5924 24.7285 28.5579 24.7231Z" fill="#272865"/>
<path d="M29.544 25.6078C29.4632 25.4237 29.4632 25.2182 29.544 24.9913C29.8461 24.78 30.1101 24.5223 30.336 24.2184C30.3714 24.1712 30.4186 24.1476 30.4775 24.1476L31.0668 24.1462C31.1376 24.1462 31.1484 24.1716 31.0995 24.2224L30.321 25.0281C30.3043 25.0449 30.2938 25.0669 30.2911 25.0906C30.2884 25.1142 30.2936 25.1382 30.3061 25.1587L31.1621 26.5509C31.1638 26.5534 31.1649 26.5563 31.1651 26.5593C31.1653 26.5624 31.1647 26.5654 31.1632 26.5681C31.1618 26.5707 31.1597 26.573 31.1571 26.5745C31.1545 26.5761 31.1515 26.5768 31.1484 26.5768L30.4149 26.5754C30.4051 26.5754 30.3955 26.5726 30.3871 26.5673C30.3786 26.562 30.3718 26.5545 30.3673 26.5455C30.1278 26.081 29.9563 25.7734 29.8529 25.6228C29.7685 25.5003 29.6655 25.4953 29.544 25.6078Z" fill="#272865"/>
</g>
<circle cx="20" cy="20" r="19.5" stroke="black" stroke-opacity="0.05"/>
<defs>
<clipPath id="clip0_17752_43608">
<rect width="28" height="14.5185" fill="white" transform="translate(6.03516 12.7368)"/>
</clipPath>
</defs>
</svg>
