<svg width="40" height="40" viewBox="0 0 40 40" fill="none" xmlns="http://www.w3.org/2000/svg">
<circle cx="20" cy="20" r="20" fill="#F46337"/>
<path d="M31.4983 20.7527H35.9298C35.9432 20.7527 35.9565 20.7527 35.9696 20.7527C35.9752 20.7533 35.9808 20.7527 35.986 20.7508C35.9913 20.7489 35.996 20.7457 35.9999 20.7417C35.9999 20.5044 35.9999 20.2697 35.9977 20.0333C35.9796 20.026 35.9598 20.0236 35.9403 20.0263H31.4716C31.4409 20.0263 31.4381 20.0232 31.4379 19.9925C31.4379 19.9194 31.4379 19.8465 31.4379 19.7737C31.4379 19.7091 31.4318 19.713 31.4983 19.713H35.9696C35.9752 19.7137 35.9808 19.713 35.9861 19.711C35.9913 19.7091 35.996 19.7059 35.9999 19.7018C35.9999 19.4771 35.9999 19.2548 35.9973 19.0321H35.9654H31.3828C31.3366 19.0309 31.2905 19.033 31.2446 19.0384C31.0914 19.0597 30.9754 19.1321 30.9101 19.2773C30.8685 19.3747 30.8482 19.4799 30.8506 19.5858C30.8496 19.9386 30.8496 20.2914 30.8506 20.6442C30.8506 20.8316 30.8454 21.0174 30.8546 21.2039C30.8578 21.2962 30.8736 21.3876 30.9014 21.4756C30.9499 21.6234 31.0457 21.7167 31.2036 21.7403C31.2301 21.7402 31.2565 21.7445 31.2816 21.753C31.2854 21.7532 31.2892 21.7527 31.2929 21.7516C31.3051 21.7502 31.3175 21.7498 31.3299 21.7502H35.9642C36.0008 21.7502 35.997 21.7544 35.997 21.7176C35.997 21.5166 35.997 21.3157 35.997 21.1149C35.9954 21.1048 35.9963 21.0945 35.9996 21.0849C35.9998 21.0827 35.9992 21.0806 35.998 21.0788C35.9788 21.0615 35.9574 21.0671 35.9375 21.0671H31.4716C31.4409 21.0671 31.4381 21.064 31.4379 21.0333C31.4379 20.9603 31.4379 20.8873 31.4379 20.8145C31.4381 20.7487 31.432 20.7527 31.4983 20.7527Z" fill="white"/>
<path d="M30.5094 19.0449C30.5094 19.0214 30.5047 19.0144 30.4797 19.0144C28.8195 19.0144 27.1593 19.0144 25.4988 19.0144C25.474 19.0144 25.4707 19.0219 25.4707 19.0439C25.4716 19.2749 25.4716 19.506 25.4707 19.7371C25.4707 19.7638 25.478 19.7683 25.5028 19.7683C26.1961 19.7673 26.8893 19.7673 27.5826 19.7683C27.6039 19.7683 27.6125 19.7704 27.6125 19.7961C27.6116 20.4396 27.6116 21.0831 27.6125 21.7267C27.612 21.7355 27.612 21.7443 27.6125 21.7531C27.6163 21.7533 27.6202 21.7529 27.6238 21.7517C27.8581 21.7499 28.0893 21.7506 28.3207 21.7503C28.3266 21.7495 28.3327 21.7505 28.3381 21.7531C28.342 21.7531 28.3444 21.7531 28.3463 21.7506C28.3463 21.0993 28.3463 20.4497 28.3463 19.8018C28.3463 19.7762 28.3502 19.768 28.3786 19.768C29.0781 19.769 29.7776 19.7693 30.4771 19.7692C30.5026 19.7692 30.5113 19.7652 30.5111 19.7366C30.5087 19.5058 30.5082 19.2752 30.5094 19.0449Z" fill="white"/>
<path d="M14.3034 21.4392L13.9117 21.0267C13.7536 20.8597 13.5956 20.6926 13.4376 20.5251C13.4327 20.5197 13.4266 20.5154 13.4199 20.5126C13.4131 20.5099 13.4057 20.5088 13.3984 20.5094C13.2368 20.5094 13.075 20.5094 12.913 20.5094C12.7362 20.5094 12.5593 20.5094 12.3824 20.5094C12.359 20.5094 12.3536 20.5165 12.356 20.5378C12.3599 20.5689 12.3615 20.6002 12.3607 20.6315C12.358 20.6487 12.3605 20.6664 12.3679 20.6822C12.3754 20.6979 12.3874 20.7111 12.4024 20.72C12.419 20.7328 12.4346 20.7467 12.4492 20.7617C12.6132 20.9062 12.7772 21.0507 12.9412 21.1954C13.0491 21.2908 13.1569 21.3863 13.2647 21.4819L13.5559 21.7379C13.5608 21.7421 13.5692 21.7447 13.5683 21.7543C13.5721 21.7545 13.5759 21.754 13.5795 21.7529C13.9094 21.751 14.2368 21.7517 14.5634 21.7515C14.5693 21.7507 14.5752 21.7516 14.5805 21.7543C14.5837 21.7548 14.5869 21.7541 14.5896 21.7524C14.5872 21.7462 14.5837 21.7405 14.5793 21.7356C14.4878 21.6361 14.3958 21.5373 14.3034 21.4392Z" fill="white"/>
<path d="M13.5885 19.0027C13.5826 19.0034 13.5766 19.0025 13.5712 18.9999C13.5672 18.9999 13.5649 18.9999 13.563 19.0018C13.5357 19.0306 13.5055 19.0567 13.473 19.0796C13.3489 19.1817 13.2233 19.2817 13.0982 19.3827L12.6386 19.7526L12.3458 19.9869C12.3417 19.9902 12.3385 19.9946 12.3366 19.9995C12.3347 20.0044 12.334 20.0097 12.3348 20.015C12.3362 20.0532 12.338 20.0913 12.338 20.1295C12.338 20.1501 12.3444 20.1569 12.3657 20.1567C12.7115 20.1567 13.0571 20.1567 13.4028 20.1567C13.4088 20.1569 13.4148 20.1558 13.4204 20.1535C13.426 20.1511 13.431 20.1476 13.4351 20.1431C13.4918 20.0864 13.5492 20.03 13.6066 19.974C13.7891 19.7963 13.9716 19.6185 14.154 19.4408C14.2916 19.3067 14.4288 19.172 14.5656 19.0369C14.5771 19.0257 14.593 19.0175 14.5954 18.9999C14.5916 18.9994 14.5879 18.9994 14.5841 18.9999C14.2505 19.0032 13.9195 19.0025 13.5885 19.0027Z" fill="white"/>
<path d="M11.6402 19.9807C11.33 19.7308 11.0202 19.4809 10.7107 19.231C10.617 19.1554 10.5221 19.0802 10.4251 19.0038C10.0932 19.0026 9.76355 19.0038 9.43371 19.0026C9.42265 19.0044 9.41133 19.0035 9.40068 19.0001C9.39711 18.9998 9.39352 19.0003 9.39014 19.0015C9.45386 19.0717 9.52367 19.1364 9.59184 19.2025C9.91371 19.5148 10.2354 19.8275 10.557 20.1407C10.5611 20.1452 10.5662 20.1487 10.5718 20.1511C10.5774 20.1535 10.5835 20.1546 10.5896 20.1545C10.9381 20.1545 11.2866 20.1545 11.6351 20.1545C11.6517 20.1545 11.6557 20.1496 11.6559 20.1334C11.6559 20.098 11.6571 20.0631 11.6608 20.0271C11.6622 20.0182 11.661 20.0091 11.6573 20.0008C11.6537 19.9926 11.6477 19.9856 11.6402 19.9807Z" fill="white"/>
<path d="M15.5627 19.7573C16.9564 19.7573 18.3501 19.7573 19.7436 19.7573C19.7694 19.7573 19.7752 19.7512 19.7752 19.7254C19.7752 19.4945 19.7752 19.2635 19.7752 19.0323C19.7752 19.0231 19.779 19.0128 19.7694 19.0044H15.2331H15.1697C14.9928 19.0152 14.8665 19.0965 14.7967 19.259C14.7678 19.3298 14.7496 19.4045 14.7426 19.4806C14.7373 19.5301 14.7347 19.5797 14.7349 19.6294C14.7349 20.1235 14.7349 20.6177 14.7367 21.1118C14.7352 21.2383 14.7585 21.3638 14.8054 21.4812C14.8675 21.6312 14.9738 21.7267 15.142 21.7466C15.1528 21.7466 15.1608 21.7466 15.1687 21.7466H19.3468C19.5342 21.7221 19.6513 21.6141 19.7143 21.4421C19.7637 21.3076 19.7733 21.1671 19.774 21.0265C19.7755 20.6922 19.774 20.358 19.774 20.0239C19.774 20.0005 19.7677 19.9967 19.7462 19.9967C18.6865 19.9967 17.627 19.9967 16.5677 19.9967C16.5478 19.9967 16.5413 20.0007 16.5415 20.0223C16.5424 20.2392 16.5424 20.456 16.5415 20.6728C16.5415 20.6979 16.5464 20.7047 16.5726 20.7047C17.3847 20.7047 18.1968 20.7047 19.009 20.7047C19.0143 20.705 19.0196 20.705 19.0249 20.7047C19.0406 20.7026 19.0441 20.71 19.0439 20.7246C19.0439 20.7653 19.0439 20.8063 19.0439 20.8471C19.044 20.8528 19.0429 20.8584 19.0406 20.8636C19.0383 20.8688 19.0348 20.8734 19.0305 20.8771C19.005 20.9019 18.9792 20.9265 18.9553 20.9525C18.9495 20.9591 18.9423 20.9643 18.9341 20.9676C18.926 20.971 18.9172 20.9724 18.9085 20.9717C17.7973 20.9717 16.6863 20.9717 15.5754 20.9717H15.5433C15.5393 20.9722 15.5353 20.9716 15.5315 20.9702C15.5278 20.9688 15.5244 20.9665 15.5217 20.9635C15.4955 20.9378 15.4797 20.9034 15.4772 20.8668C15.4772 20.5423 15.4772 20.2179 15.4772 19.8934C15.4764 19.8658 15.4804 19.8383 15.489 19.8121C15.492 19.7954 15.5014 19.7804 15.5151 19.7702C15.5288 19.76 15.5458 19.7554 15.5627 19.7573Z" fill="white"/>
<path d="M11.6152 20.5084C11.274 20.5084 10.9328 20.5084 10.5915 20.5084C10.5854 20.508 10.5793 20.5091 10.5737 20.5115C10.568 20.5139 10.563 20.5175 10.559 20.5222C10.4726 20.614 10.3859 20.7056 10.2989 20.797C10.0417 21.0682 9.7845 21.3397 9.52728 21.6113C9.48329 21.6539 9.4422 21.6995 9.4043 21.7476H10.4236C10.4913 21.689 10.5573 21.6305 10.6232 21.5728L11.6188 20.6951C11.6229 20.6919 11.6263 20.6879 11.6286 20.6832C11.6309 20.6785 11.6321 20.6733 11.6321 20.6681C11.6321 20.6229 11.6345 20.5777 11.6382 20.5325C11.6401 20.5112 11.6333 20.5084 11.6152 20.5084Z" fill="white"/>
<path d="M25.1462 19.6033C25.1461 19.5393 25.1388 19.4756 25.1246 19.4133C25.089 19.2552 25.0117 19.1287 24.8566 19.0619C24.7766 19.0291 24.6908 19.0132 24.6043 19.015H20.7034C20.6297 19.0146 20.5562 19.0235 20.4846 19.0415C20.2972 19.0898 20.178 19.2055 20.1286 19.3929C20.1097 19.4695 20.1008 19.5483 20.1021 19.6272C20.1021 20.3257 20.1021 21.0243 20.1021 21.7229C20.1014 21.7326 20.1014 21.7424 20.1021 21.7521C20.1059 21.7523 20.1097 21.7519 20.1133 21.7507C20.3415 21.7489 20.5671 21.7496 20.7927 21.7491C20.803 21.7509 20.8136 21.7493 20.8229 21.7446C20.8285 21.7287 20.8304 21.7117 20.8285 21.695C20.8285 21.39 20.8285 21.0854 20.8285 20.7814C20.8285 20.7242 20.825 20.727 20.8817 20.727H24.3281C24.3809 20.727 24.3809 20.727 24.3809 20.779C24.3809 21.0875 24.3809 21.3959 24.3809 21.7043C24.3791 21.7128 24.3792 21.7215 24.3811 21.7299C24.383 21.7383 24.3867 21.7462 24.3919 21.7531C24.6453 21.7531 24.896 21.7531 25.1467 21.7505L25.1462 19.6033ZM24.3942 19.9725C24.3942 19.9825 24.3888 19.9844 24.3809 19.9842H21.4292C21.2336 19.9842 21.0408 19.9842 20.848 19.9842C20.8264 19.9842 20.8206 19.9781 20.822 19.9575C20.8238 19.9319 20.822 19.9059 20.822 19.8802C20.8223 19.8697 20.8246 19.8594 20.8288 19.8497C20.8445 19.805 20.8714 19.7895 20.9225 19.7897C22.0524 19.7916 23.1821 19.7916 24.3118 19.7897C24.3203 19.7898 24.3287 19.7917 24.3364 19.7954C24.344 19.7992 24.3508 19.8046 24.356 19.8113C24.4022 19.8586 24.3942 19.9158 24.3942 19.9725Z" fill="white"/>
<path d="M9.04438 19.6063C9.04454 19.5334 9.03549 19.4608 9.01744 19.3901C8.98417 19.2629 8.92373 19.1558 8.8052 19.0867C8.71199 19.0359 8.60677 19.0111 8.50066 19.0151H4.61919C4.59881 19.0151 4.5782 19.0151 4.55782 19.0151C4.43764 19.0214 4.32121 19.0425 4.21861 19.1102C4.07524 19.2039 4.02042 19.3477 4.00379 19.5133C4.00274 19.5248 4.00235 19.5363 4.00262 19.5478C4.00262 20.2684 4.00262 20.9889 4.00262 21.7093C4.00437 21.7203 4.00348 21.7315 4.00004 21.7421C3.99992 21.7431 4.00007 21.7441 4.00048 21.745C4.0009 21.7459 4.00156 21.7467 4.00239 21.7472C4.23009 21.7491 4.45545 21.7472 4.68174 21.7486C4.69197 21.7469 4.70246 21.7479 4.7122 21.7515C4.71584 21.7518 4.71951 21.7511 4.72274 21.7493C4.72953 21.7339 4.73196 21.7169 4.72976 21.7002V20.7758C4.72976 20.7261 4.72976 20.7261 4.77943 20.7261H8.2514C8.25429 20.7258 8.25722 20.726 8.25998 20.7269C8.26274 20.7279 8.26527 20.7293 8.26739 20.7313C8.26951 20.7333 8.27117 20.7357 8.27225 20.7384C8.27334 20.7411 8.27382 20.744 8.27366 20.7469C8.276 20.7725 8.27928 20.798 8.27928 20.824C8.27928 21.1154 8.27928 21.4069 8.27928 21.6983C8.27752 21.7068 8.27753 21.7156 8.2793 21.7242C8.28107 21.7327 8.28458 21.7408 8.28959 21.7479C8.52994 21.7493 8.76795 21.7479 9.00572 21.7491C9.01595 21.7474 9.02644 21.7484 9.03618 21.7519C9.04039 21.7519 9.04274 21.7519 9.04485 21.7493C9.04469 21.0333 9.04453 20.319 9.04438 19.6063ZM8.29146 19.9725C8.29146 19.9819 8.28748 19.9851 8.27881 19.9849H5.5464C5.27817 19.9849 5.01228 19.9849 4.74663 19.9849C4.72555 19.9849 4.71641 19.9814 4.71875 19.958C4.7211 19.9345 4.71875 19.9064 4.71875 19.8807C4.71901 19.8719 4.72067 19.8633 4.72367 19.8551C4.74007 19.8083 4.76772 19.7905 4.82183 19.7905C5.95128 19.7925 7.08065 19.7929 8.20994 19.7916C8.21762 19.7916 8.22521 19.7933 8.23218 19.7965C8.23914 19.7997 8.24531 19.8045 8.25023 19.8104C8.29826 19.8554 8.2924 19.9137 8.29146 19.9725Z" fill="white"/>
<circle cx="20" cy="20" r="19.5" stroke="black" stroke-opacity="0.05"/>
</svg>
