<svg width="40" height="40" viewBox="0 0 40 40" fill="none" xmlns="http://www.w3.org/2000/svg">
<circle cx="20" cy="20" r="20" fill="#3458B5"/>
<g clip-path="url(#clip0_19631_63549)">
<path d="M11 11H29.0725L29.0546 12.6013C29.0564 12.6217 29.0539 12.6423 29.0472 12.6617C29.0405 12.6811 29.0298 12.6989 29.0158 12.7139C29.0018 12.7289 28.9847 12.7407 28.9658 12.7487C28.9469 12.7567 28.9265 12.7606 28.906 12.7601C28.4754 12.7905 28.0627 12.9448 27.7177 13.2044C27.3727 13.4639 27.11 13.8177 26.9614 14.223C26.9475 14.2637 26.9208 14.2987 26.8852 14.3228C26.8495 14.3468 26.8071 14.3586 26.7642 14.3563C22.8255 14.3563 18.8116 14.3563 14.7226 14.3563C13.7627 14.3563 13.0163 14.6628 12.4834 15.276C11.0974 16.867 12.1068 19.5674 14.3025 19.5905C15.8226 19.6059 17.3239 19.6059 18.8065 19.5905C18.825 19.588 18.8439 19.5898 18.8616 19.5957C18.8793 19.6017 18.8955 19.6115 18.9088 19.6246C18.9221 19.6377 18.9323 19.6537 18.9386 19.6713C18.9448 19.6889 18.947 19.7077 18.9448 19.7263V28.9316H11V11Z" fill="white"/>
<path d="M29.065 15.9396C29.5815 15.9396 30.0002 15.5209 30.0002 15.0045C30.0002 14.488 29.5815 14.0693 29.065 14.0693C28.5486 14.0693 28.1299 14.488 28.1299 15.0045C28.1299 15.5209 28.5486 15.9396 29.065 15.9396Z" fill="#E60023"/>
<path d="M29.0542 28.9342H20.2844V18.4453C20.2874 18.427 20.286 18.4083 20.2804 18.3906C20.2749 18.3729 20.2652 18.3568 20.2522 18.3436C20.2392 18.3304 20.2233 18.3204 20.2058 18.3145C20.1882 18.3085 20.1695 18.3069 20.1511 18.3095C18.4243 18.3095 16.6224 18.3095 14.7453 18.3095C14.4185 18.3255 14.093 18.2576 13.7999 18.1122C13.6094 18.0035 13.4496 17.8485 13.3351 17.6615C13.2206 17.4745 13.1552 17.2616 13.145 17.0426C13.1347 16.8236 13.18 16.6055 13.2766 16.4086C13.3732 16.2118 13.5179 16.0425 13.6974 15.9166C14 15.7283 14.3537 15.6388 14.7094 15.6604C18.7249 15.6792 22.7525 15.6792 26.7919 15.6604C26.8359 15.6576 26.8795 15.6691 26.9164 15.6931C26.9533 15.7171 26.9816 15.7523 26.9969 15.7936C27.1531 16.1856 27.4168 16.5256 27.7576 16.7744C28.0984 17.0232 28.5026 17.1708 28.9235 17.2002C28.9426 17.2004 28.9614 17.2046 28.9788 17.2125C28.9962 17.2204 29.0117 17.2318 29.0245 17.246C29.0372 17.2602 29.0469 17.2769 29.0529 17.295C29.0589 17.3132 29.0611 17.3323 29.0593 17.3513L29.0542 28.9342Z" fill="white"/>
</g>
<circle cx="20" cy="20" r="19.5" stroke="black" stroke-opacity="0.05"/>
<defs>
<clipPath id="clip0_19631_63549">
<rect width="19" height="17.9342" fill="white" transform="translate(11 11)"/>
</clipPath>
</defs>
</svg>
