<svg width="40" height="40" viewBox="0 0 40 40" fill="none" xmlns="http://www.w3.org/2000/svg">
<circle cx="20" cy="20" r="20" fill="#6C6D70"/>
<path d="M10.4745 18.7817C10.4745 19.7636 9.67815 20.5599 8.69622 20.5599C7.71429 20.5599 6.91797 19.7636 6.91797 18.7817C6.91797 17.799 7.71429 17.0034 8.69622 17.0034C9.67815 17.0034 10.4745 17.7997 10.4745 18.7817ZM9.61723 18.7817C9.61723 18.273 9.2049 17.8607 8.69622 17.8607C8.18754 17.8607 7.77521 18.273 7.77521 18.7817C7.77521 19.2903 8.18754 19.7027 8.69622 19.7027C9.2049 19.7027 9.61723 19.2903 9.61723 18.7817Z" fill="white"/>
<path d="M22.6958 18.9159C22.819 19.6187 23.6394 19.9715 24.2105 19.4629C24.231 19.4452 24.2622 19.4466 24.2799 19.4664C24.2849 19.4721 24.2884 19.4785 24.2905 19.4855C24.3592 19.7236 24.474 19.9439 24.6348 20.1458C24.6618 20.1798 24.6568 20.2294 24.6228 20.2556C24.62 20.2578 24.6171 20.2599 24.6143 20.262C23.8931 20.6892 23.1988 20.6687 22.5314 20.2004C21.7861 19.6761 21.6196 18.5907 22.095 17.8454C22.2884 17.5429 22.5371 17.3198 22.841 17.1767C23.4149 16.906 24.0078 16.9471 24.6207 17.3006C24.654 17.3198 24.666 17.363 24.6469 17.3963C24.6448 17.3998 24.6426 17.4027 24.6405 17.4055C24.4768 17.6074 24.36 17.8313 24.2891 18.0764C24.282 18.1019 24.2551 18.1161 24.2303 18.1083C24.2232 18.1062 24.2176 18.1026 24.2119 18.0984C23.9363 17.8561 23.6239 17.7966 23.2753 17.9198C22.8778 18.0608 22.6235 18.5064 22.6958 18.9159Z" fill="white"/>
<path d="M28.259 18.7838C28.259 19.7671 27.462 20.5642 26.4786 20.5642C25.4953 20.5642 24.6982 19.7671 24.6982 18.7838C24.6982 17.8004 25.4953 17.0034 26.4786 17.0034C27.462 17.0034 28.259 17.8004 28.259 18.7838ZM27.4032 18.7767C27.4032 18.2673 26.9901 17.8543 26.4807 17.8543C25.9714 17.8543 25.5583 18.2673 25.5583 18.7767C25.5583 19.2861 25.9714 19.6991 26.4807 19.6991C26.9901 19.6991 27.4032 19.2861 27.4032 18.7767Z" fill="white"/>
<path d="M4.95714 18.4263C4.97272 18.4186 4.98548 18.4072 4.9961 18.3938C5.32837 17.9687 5.65498 17.5408 5.97591 17.11C5.99858 17.0795 6.03542 17.0625 6.07368 17.0647C6.36769 17.0795 6.65321 17.0753 6.93163 17.0519C6.95855 17.0498 6.98264 17.0689 6.98477 17.0958C6.98619 17.1086 6.98193 17.1213 6.97414 17.1313L5.73433 18.7034C5.72441 18.7154 5.72441 18.7324 5.73433 18.7452C6.17782 19.3226 6.60857 19.8723 7.02657 20.393C7.04286 20.4136 7.0542 20.4363 7.06128 20.4611C7.06624 20.4774 7.05703 20.4951 7.04003 20.5C7.03719 20.5007 7.03365 20.5014 7.03082 20.5014L6.15019 20.4958C6.11406 20.4958 6.07935 20.4781 6.05739 20.449L5.01027 19.0824C4.9543 19.0094 4.92667 19.0186 4.92738 19.1114L4.94155 20.4589C4.94155 20.4795 4.92526 20.4965 4.904 20.4972L4.03826 20.4986C4.01984 20.4986 4.00496 20.4837 4.00496 20.4653L4 17.1136C4 17.0852 4.02267 17.0625 4.05101 17.0625C4.05101 17.0625 4.05101 17.0625 4.05172 17.0625L4.88983 17.0682C4.91817 17.0682 4.94084 17.0909 4.94084 17.1192L4.93092 18.41C4.93092 18.42 4.93943 18.4285 4.94934 18.4285C4.95218 18.4285 4.95501 18.4278 4.95714 18.4263Z" fill="white"/>
<path d="M13.229 19.2213C13.2141 19.2269 13.2063 19.2439 13.212 19.2588C13.212 19.2602 13.2134 19.2617 13.2141 19.2631C13.4394 19.6549 13.6654 20.0488 13.8928 20.4448C13.8985 20.454 13.8999 20.4625 13.8971 20.4689C13.8878 20.488 13.8687 20.5001 13.8475 20.5001C13.5464 20.4958 13.2587 20.4937 12.9838 20.493C12.9463 20.493 12.9116 20.4717 12.8953 20.4384L12.0472 18.7246C12.0373 18.7041 12.0458 18.6793 12.0664 18.6701C12.072 18.6673 12.0784 18.6658 12.0855 18.6658C12.3228 18.6765 12.5361 18.6772 12.7245 18.6694C13.1772 18.651 13.1787 17.7994 12.6735 17.7937C12.4135 17.7909 12.1613 17.7888 11.9162 17.7873C11.8772 17.7873 11.846 17.8185 11.846 17.8575L11.856 20.4554C11.856 20.4788 11.8375 20.4972 11.8149 20.4972L11.0171 20.4986C10.9803 20.4986 10.9498 20.4682 10.9498 20.4306L10.9463 17.127C10.9463 17.0888 10.9768 17.0576 11.015 17.0576C11.6604 17.0626 12.2527 17.0661 12.7918 17.0697C13.2446 17.0725 13.5683 17.2638 13.7646 17.6442C14.0699 18.2358 13.9041 18.9655 13.2283 19.2213H13.229Z" fill="white"/>
<path d="M16.3698 19.8571L15.2568 19.8599C15.2363 19.8599 15.2186 19.8726 15.2115 19.8918L15.0074 20.4607C15.0004 20.4798 14.9826 20.4925 14.9628 20.4925L14.1204 20.4989C14.0935 20.4989 14.0723 20.4777 14.0723 20.4507C14.0723 20.4451 14.073 20.4387 14.0751 20.4337L15.3574 17.099C15.3645 17.0806 15.3829 17.0685 15.4028 17.0685L16.2175 17.0664C16.2373 17.0664 16.2558 17.0785 16.2628 17.0976L17.5459 20.4316C17.5558 20.4564 17.5438 20.484 17.519 20.494C17.5133 20.4961 17.5076 20.4975 17.5012 20.4975L16.6674 20.4961C16.6468 20.4961 16.6291 20.4833 16.622 20.4642L16.4152 19.8889C16.4081 19.8698 16.3904 19.8571 16.3698 19.8571ZM15.4913 19.1302C15.4864 19.1429 15.4927 19.1564 15.5055 19.1613C15.5083 19.162 15.5105 19.1628 15.5133 19.1628L16.1105 19.1649C16.124 19.1649 16.1346 19.1543 16.1346 19.1408C16.1346 19.138 16.1346 19.1351 16.1332 19.1323L15.8378 18.3211C15.8335 18.3083 15.8193 18.302 15.8073 18.3062C15.8002 18.3083 15.7953 18.314 15.7924 18.3211L15.4913 19.1302Z" fill="white"/>
<path d="M20.5151 18.849C20.5059 18.8554 20.4988 18.8632 20.4946 18.8738C20.282 19.4059 20.0716 19.9287 19.8633 20.4438C19.8485 20.4813 19.8201 20.4998 19.7797 20.4998L19.3908 20.4983C19.3618 20.4983 19.3355 20.4806 19.3249 20.4537L18.7291 18.9574C18.6745 18.8221 18.6434 18.8271 18.6356 18.9723L18.5506 20.4395C18.5484 20.4771 18.5279 20.4962 18.4903 20.4962L17.7429 20.4976C17.7146 20.4976 17.6919 20.475 17.6919 20.4466C17.6919 20.4452 17.6919 20.4445 17.6919 20.4431L17.9165 17.1119C17.9179 17.0906 17.9356 17.0736 17.9569 17.0736H18.7426C18.7758 17.0736 18.8056 17.0949 18.8176 17.1253C19.0479 17.6992 19.2909 18.3014 19.5481 18.9326C19.5552 18.9503 19.5679 18.9631 19.5856 18.9709C19.6012 18.978 19.6189 18.9709 19.626 18.9553L20.3763 17.1069C20.3869 17.0807 20.4131 17.0644 20.4415 17.0658C20.6915 17.0793 20.9501 17.0772 21.2158 17.0587C21.242 17.0566 21.2654 17.0793 21.2682 17.1097L21.5034 20.4615C21.5049 20.4849 21.4879 20.5047 21.4645 20.5061C21.4638 20.5061 21.4624 20.5061 21.4616 20.5061L20.7128 20.5075C20.654 20.5075 20.6235 20.4785 20.6207 20.4197L20.5456 18.8646C20.5456 18.854 20.5357 18.8455 20.5243 18.8462C20.5208 18.8462 20.518 18.8476 20.5151 18.849Z" fill="white"/>
<path d="M27.7013 21.3282L27.1919 21.5223C27.1452 21.54 27.1154 21.5251 27.102 21.477L26.9978 21.0979C26.9865 21.0561 27.0014 21.0292 27.0432 21.0179C27.4796 20.896 27.8444 20.6814 28.1384 20.3746C28.1632 20.3484 28.193 20.3356 28.2291 20.3356L28.6188 20.3335C28.6542 20.3335 28.6677 20.3505 28.6585 20.3845L27.7849 23.6682C27.77 23.7249 27.7183 23.7639 27.6595 23.7632L27.1799 23.7547C27.1296 23.754 27.1105 23.7292 27.1232 23.6803L27.7403 21.3629C27.7502 21.3261 27.7375 21.3147 27.7013 21.3282Z" fill="#DA0614"/>
<path d="M20.3551 23.1368C20.3509 23.1509 20.3594 23.1658 20.3743 23.1701C20.3764 23.1701 20.3792 23.1708 20.3813 23.1708L21.043 23.1637C21.1982 23.1623 21.2591 23.2374 21.2251 23.389L21.1932 23.5321C21.1607 23.6773 21.07 23.7496 20.9205 23.7489L19.7997 23.7411C19.7133 23.7411 19.6438 23.6695 19.6445 23.5831C19.6445 23.5703 19.6467 23.5569 19.6495 23.5448L20.1298 21.7035C20.1646 21.5703 20.2503 21.5059 20.3884 21.5094L20.5769 21.5158C20.7249 21.52 20.7795 21.5937 20.7405 21.7368L20.3551 23.1368Z" fill="white"/>
<path d="M21.4176 23.5436L21.9234 21.6456C21.9433 21.5712 22.0106 21.5195 22.0871 21.5195H22.3428C22.4364 21.5195 22.5122 21.596 22.5122 21.6896C22.5122 21.7044 22.51 21.7193 22.5065 21.7335L21.9999 23.6116C21.9815 23.6811 21.9213 23.7307 21.8498 23.7363L21.594 23.7562C21.5005 23.7632 21.4197 23.6931 21.4126 23.6003C21.4112 23.5812 21.4126 23.562 21.4176 23.5436Z" fill="white"/>
<path d="M23.3264 22.1448L23.2796 22.3006C23.2683 22.3368 23.2817 22.3545 23.3207 22.3538L23.8372 22.3389C24.0143 22.3339 24.0809 22.4168 24.0377 22.5883L24.0044 22.72C23.9682 22.8639 23.8754 22.934 23.7273 22.9319L23.1641 22.9219C23.1393 22.9219 23.1174 22.9382 23.1103 22.9623C23.0543 23.1713 22.9983 23.3817 22.9431 23.5922C22.8928 23.7849 22.5364 23.7962 22.4039 23.7112C22.2977 23.6425 22.3671 23.4668 22.3926 23.3732C22.5492 22.7916 22.7029 22.2199 22.8531 21.6588C22.8729 21.5837 22.9409 21.5319 23.0189 21.5312L24.2268 21.5234C24.3465 21.5234 24.4004 21.5822 24.3898 21.7013C24.3834 21.77 24.3692 21.843 24.3465 21.9188C24.3104 22.042 24.2275 22.103 24.0993 22.1023L23.3915 22.0966C23.3575 22.0966 23.3356 22.1122 23.3264 22.1448Z" fill="white"/>
<path d="M25.0947 22.3388L25.614 22.3353C25.7805 22.3339 25.8428 22.4139 25.7996 22.5755L25.7585 22.7292C25.7245 22.8553 25.6423 22.9169 25.5113 22.9148L24.9367 22.9042C24.9006 22.9035 24.8779 22.9205 24.8687 22.9552L24.8233 23.1181C24.8177 23.1408 24.8311 23.1642 24.8538 23.1699C24.8573 23.1706 24.8609 23.1713 24.8644 23.1713L25.5233 23.1649C25.6912 23.1635 25.7528 23.2435 25.7082 23.4051L25.6692 23.5454C25.6324 23.6793 25.5446 23.7466 25.405 23.7458L24.2814 23.743C24.1871 23.743 24.1106 23.6658 24.1113 23.5709C24.1113 23.556 24.1135 23.5418 24.117 23.5276L24.6143 21.6644C24.6363 21.5829 24.7093 21.5262 24.7936 21.5262L25.9888 21.522C26.1453 21.522 26.2013 21.5964 26.1581 21.7466L26.1092 21.9166C26.0717 22.0455 25.9859 22.1093 25.852 22.1072L25.1776 22.0972C25.1315 22.0965 25.1004 22.1178 25.0848 22.161L25.0451 22.2687C25.0281 22.3155 25.0451 22.3388 25.0947 22.3388Z" fill="white"/>
<path d="M31.3264 22.3643L31.8634 22.3522C32.0313 22.3487 32.093 22.4281 32.0491 22.5903L32.0143 22.7206C31.9768 22.8595 31.8861 22.9275 31.7423 22.9247L31.1599 22.9134C31.133 22.9134 31.116 22.9261 31.1089 22.9523L30.9545 23.5467C30.9205 23.6764 30.8362 23.7408 30.7023 23.7415H30.5386C30.3941 23.743 30.3402 23.6728 30.3778 23.5333L30.8815 21.6417C30.8971 21.5814 30.9516 21.5389 31.014 21.5382L32.2311 21.5191C32.382 21.517 32.4394 21.5892 32.4033 21.7359L32.3622 21.9002C32.3303 22.0306 32.2467 22.0944 32.1128 22.0922L31.4093 22.0823C31.3746 22.0823 31.3441 22.1036 31.3342 22.1362L31.2811 22.3027C31.2676 22.3445 31.2832 22.365 31.3264 22.3643Z" fill="white"/>
<path d="M29.1525 22.6692C29.139 22.6713 29.1312 22.6784 29.1284 22.689C29.0441 22.9986 28.9626 23.3061 28.8847 23.61C28.8684 23.6745 28.8273 23.7064 28.7614 23.7057L28.4476 23.7036C28.3661 23.7036 28.3363 23.6639 28.3569 23.5852L28.8783 21.6171C28.8882 21.5803 28.9187 21.5526 28.9562 21.5463C29.0823 21.5236 29.2814 21.5009 29.3367 21.6497C29.4557 21.9671 29.5698 22.2852 29.6789 22.6033C29.7164 22.7131 29.7497 22.7117 29.7781 22.5991L30.0083 21.6703C30.0267 21.5952 30.0749 21.5576 30.1521 21.5576H30.4447C30.5205 21.5576 30.5489 21.5937 30.5297 21.6674L29.9977 23.6384C29.9878 23.6752 29.9538 23.7007 29.9155 23.7007L29.6109 23.6993C29.5506 23.6993 29.5103 23.6703 29.4911 23.6136L29.1787 22.6848C29.1751 22.6742 29.1638 22.6671 29.1525 22.6692Z" fill="white"/>
<path d="M34.3917 23.7587L34.0382 23.7268C33.9766 23.7212 33.9312 23.6666 33.9376 23.605C33.939 23.588 33.9447 23.571 33.9539 23.5561L35.176 21.6043C35.1966 21.5717 35.2313 21.5525 35.2695 21.5518L35.6776 21.5469C35.735 21.5469 35.7839 21.5894 35.7902 21.6468L35.9992 23.6312C36.0056 23.6928 35.9617 23.7481 35.9001 23.7545C35.8958 23.7545 35.8916 23.7545 35.8873 23.7545L35.5076 23.753C35.4488 23.753 35.3999 23.7063 35.3963 23.6475L35.3843 23.4229C35.3815 23.3641 35.3326 23.3173 35.2738 23.3166L34.7941 23.3102C34.7538 23.3102 34.7169 23.3308 34.6964 23.3655L34.4987 23.7027C34.4768 23.7403 34.435 23.7622 34.3917 23.758V23.7587ZM34.9309 22.8058C34.9132 22.8349 34.9224 22.8738 34.9514 22.8915C34.9613 22.8972 34.9727 22.9008 34.984 22.9008H35.3921C35.4268 22.9008 35.4544 22.8731 35.4544 22.8384C35.4544 22.8349 35.4544 22.832 35.4537 22.8285L35.3708 22.3C35.3652 22.266 35.3333 22.2426 35.2993 22.2483C35.2816 22.2511 35.2653 22.2617 35.2561 22.2773L34.9309 22.8058Z" fill="white"/>
<path d="M33.1293 22.0168C33.1038 22.0168 33.0825 22.0331 33.0762 22.0572L32.661 23.6378C32.6433 23.7065 32.5987 23.742 32.5271 23.7434L32.2713 23.7476C32.1431 23.7497 32.0957 23.6888 32.1289 23.5655L32.6475 21.6371C32.6596 21.591 32.7007 21.5585 32.7489 21.557C33.0925 21.5478 33.3971 21.5507 33.6635 21.5655C33.9915 21.584 34.2118 21.8404 34.1537 22.1734C34.0907 22.5397 33.9157 22.7855 33.6302 22.9123C33.604 22.9244 33.5912 22.9548 33.6018 22.9811C33.6762 23.1794 33.7393 23.3771 33.791 23.574C33.8201 23.6853 33.7768 23.7412 33.6628 23.7427L33.4318 23.7462C33.3376 23.7476 33.2781 23.7023 33.2533 23.6109L33.0082 22.6892C32.9883 22.6148 33.033 22.5383 33.1073 22.5184C33.1173 22.5156 33.1272 22.5142 33.1371 22.5142C33.2497 22.5092 33.3879 22.5418 33.4814 22.4653C33.5863 22.3796 33.6373 22.2669 33.6344 22.1281C33.633 22.0664 33.5827 22.0175 33.5211 22.0175H33.1293V22.0168Z" fill="white"/>
<circle cx="20" cy="20" r="19.5" stroke="black" stroke-opacity="0.05"/>
</svg>
