<svg width="40" height="40" viewBox="0 0 40 40" fill="none" xmlns="http://www.w3.org/2000/svg">
<circle cx="20" cy="20" r="20" fill="#F6F8FA"/>
<path d="M7.69855 17.7915H9.47751L12.1752 25.3092H10.5598L10.051 23.7624H7.14931L6.65661 25.3092H5.03516L7.69855 17.7915ZM8.59308 19.2979L7.5572 22.4984H9.63501L8.59308 19.2979Z" fill="#111B3D"/>
<path d="M12.9464 25.3092V17.7915H15.2221L16.7102 23.512L18.1782 17.7915H20.464V25.3092H19.0203V19.2454L17.5018 25.3092H15.9268L14.3881 19.2454V25.3092H12.9443H12.9464Z" fill="#111B3D"/>
<path d="M21.6982 21.5594C21.6982 20.3438 22.0274 19.3807 22.6857 18.6679C23.3439 17.9551 24.2324 17.5977 25.3511 17.5977C26.4697 17.5977 27.3582 17.9551 28.0205 18.6699C28.6828 19.3847 29.014 20.3479 29.014 21.5594C29.014 22.771 28.6828 23.7342 28.0205 24.447C27.3582 25.1597 26.4677 25.5192 25.3511 25.5192C24.2344 25.5192 23.3439 25.1618 22.6857 24.447C22.0274 23.7321 21.6982 22.769 21.6982 21.5594ZM23.2692 21.5594C23.2692 22.3853 23.453 23.0274 23.8185 23.4858C24.1839 23.9442 24.6948 24.1723 25.3531 24.1723C26.0114 24.1723 26.5343 23.9442 26.9039 23.4858C27.2734 23.0274 27.4571 22.3853 27.4571 21.5594C27.4571 20.7336 27.2734 20.0894 26.9039 19.6331C26.5343 19.1747 26.0174 18.9465 25.3531 18.9465C24.6888 18.9465 24.1839 19.1747 23.8185 19.631C23.453 20.0874 23.2692 20.7295 23.2692 21.5594Z" fill="#111B3D"/>
<path d="M33.261 13.2545C32.5885 13.2545 32.0454 13.7997 32.0454 14.4741C32.0454 14.5064 32.0454 14.5387 32.0494 14.571C32.0494 14.571 32.0494 14.571 32.0494 14.5771C32.0494 14.5912 32.0514 14.6033 32.0534 14.6175C32.0696 14.8315 32.0656 15.6937 30.9206 15.5059C30.852 15.4938 30.7833 15.4878 30.7127 15.4878C30.0402 15.4878 29.4971 16.0329 29.4971 16.7074C29.4971 17.1355 29.7172 17.511 30.0503 17.7291C30.0746 17.7453 30.1008 17.7594 30.1251 17.7735C31.1347 18.4035 30.5935 19.2133 30.4481 19.399C30.438 19.4112 30.43 19.4213 30.4199 19.4334C30.4178 19.4354 30.4158 19.4374 30.4158 19.4374C30.2543 19.6434 30.1574 19.9039 30.1574 20.1865C30.1574 20.859 30.7026 21.4062 31.373 21.4062C32.0433 21.4062 32.5885 20.861 32.5885 20.1865C32.5885 19.714 32.32 19.3041 31.9262 19.1022C31.9262 19.1022 31.9182 19.0982 31.9141 19.0962C31.904 19.0901 31.8919 19.0861 31.8818 19.08C30.8257 18.559 31.482 17.6827 31.6254 17.509C31.6334 17.4989 31.6435 17.4888 31.6516 17.4787C31.8253 17.2687 31.9282 16.9982 31.9282 16.7054C31.9282 16.6529 31.9242 16.6004 31.9182 16.5479C31.9182 16.5479 31.9182 16.5479 31.9182 16.5418C31.9161 16.5256 31.9141 16.5115 31.9121 16.4954C31.8838 16.2712 31.8414 15.405 32.9884 15.6594C33.0772 15.6796 33.1681 15.6917 33.263 15.6917C33.9354 15.6917 34.4786 15.1465 34.4786 14.4721C34.4786 13.7976 33.9334 13.2524 33.263 13.2524L33.261 13.2545Z" fill="url(#paint0_linear_17752_43669)"/>
<path d="M27.2957 16.8387C27.967 16.8387 28.5113 16.2926 28.5113 15.619C28.5113 14.9455 27.967 14.3994 27.2957 14.3994C26.6243 14.3994 26.0801 14.9455 26.0801 15.619C26.0801 16.2926 26.6243 16.8387 27.2957 16.8387Z" fill="url(#paint1_linear_17752_43669)"/>
<path d="M35.0357 17.9633C35.0357 18.6357 34.4905 19.1829 33.8201 19.1829C33.1497 19.1829 32.6045 18.6377 32.6045 17.9633C32.6045 17.2888 33.1497 16.7437 33.8201 16.7437C34.4905 16.7437 35.0357 17.2888 35.0357 17.9633Z" fill="url(#paint2_linear_17752_43669)"/>
<path d="M31.2896 13.4301C31.2896 14.1025 30.7444 14.6497 30.074 14.6497C29.4036 14.6497 28.8584 14.1045 28.8584 13.4301C28.8584 12.7556 29.4036 12.2104 30.074 12.2104C30.7444 12.2104 31.2896 12.7556 31.2896 13.4301Z" fill="url(#paint3_linear_17752_43669)"/>
<circle cx="20" cy="20" r="19.5" stroke="black" stroke-opacity="0.05"/>
<defs>
<linearGradient id="paint0_linear_17752_43669" x1="30.3411" y1="15.3545" x2="34.1333" y2="19.1466" gradientUnits="userSpaceOnUse">
<stop stop-color="#2DBCED"/>
<stop offset="0.31" stop-color="#2AB3E2"/>
<stop offset="0.35" stop-color="#2AB2E1"/>
<stop offset="0.48" stop-color="#24A3D4"/>
<stop offset="0.72" stop-color="#147DB4"/>
<stop offset="1" stop-color="#004989"/>
</linearGradient>
<linearGradient id="paint1_linear_17752_43669" x1="26.4334" y1="14.7568" x2="28.1559" y2="16.4792" gradientUnits="userSpaceOnUse">
<stop stop-color="#F2E633"/>
<stop offset="0.09" stop-color="#E8E345"/>
<stop offset="0.37" stop-color="#CCDC7F"/>
<stop offset="0.44" stop-color="#B1D691"/>
<stop offset="0.57" stop-color="#82CDB1"/>
<stop offset="0.7" stop-color="#5DC5CB"/>
<stop offset="0.81" stop-color="#42C0DD"/>
<stop offset="0.92" stop-color="#32BDE9"/>
<stop offset="1" stop-color="#2DBCED"/>
</linearGradient>
<linearGradient id="paint2_linear_17752_43669" x1="32.9579" y1="17.1031" x2="34.6803" y2="18.8235" gradientUnits="userSpaceOnUse">
<stop stop-color="#2DBCED"/>
<stop offset="0.31" stop-color="#2AB3E2"/>
<stop offset="0.35" stop-color="#2AB2E1"/>
<stop offset="0.48" stop-color="#24A3D4"/>
<stop offset="0.72" stop-color="#147DB4"/>
<stop offset="1" stop-color="#004989"/>
</linearGradient>
<linearGradient id="paint3_linear_17752_43669" x1="29.2118" y1="12.5679" x2="30.9342" y2="14.2903" gradientUnits="userSpaceOnUse">
<stop stop-color="#F2E633"/>
<stop offset="0.09" stop-color="#E8E345"/>
<stop offset="0.37" stop-color="#CCDC7F"/>
<stop offset="0.44" stop-color="#B1D691"/>
<stop offset="0.57" stop-color="#82CDB1"/>
<stop offset="0.7" stop-color="#5DC5CB"/>
<stop offset="0.81" stop-color="#42C0DD"/>
<stop offset="0.92" stop-color="#32BDE9"/>
<stop offset="1" stop-color="#2DBCED"/>
</linearGradient>
</defs>
</svg>
