<svg width="40" height="40" viewBox="0 0 40 40" fill="none" xmlns="http://www.w3.org/2000/svg">
<circle cx="20" cy="20" r="20" fill="#F6F8FA"/>
<circle cx="20" cy="20" r="19.5" stroke="black" stroke-opacity="0.05"/>
<g clip-path="url(#clip0_14382_20513)">
<path d="M6.48787 18.4463C5.93386 18.4463 5.46461 18.5279 5.08632 18.7388C4.80415 18.8876 4.50647 19.1884 4.43826 19.5285C4.31836 20.1156 5.03051 20.438 5.29924 20.4928L5.85324 20.6437C6.15092 20.7192 6.35247 20.7864 6.29666 21.0231C6.26255 21.1719 6.10131 21.3889 5.77883 21.3889C5.53903 21.3889 5.39226 21.267 5.36642 21.1585C5.33438 21.0427 5.36436 20.9135 5.37883 20.8535H4.04343C3.77056 21.9502 4.83722 22.0722 5.60208 22.0722C5.93076 22.0722 7.4181 22.0515 7.68787 20.9011C7.80777 20.3926 7.23412 20.0566 6.89511 19.9677L6.0796 19.7176C5.86771 19.6639 5.72818 19.5894 5.77469 19.3931C5.8243 19.1832 6.0641 19.0768 6.28219 19.0768C6.50027 19.0768 6.63671 19.1708 6.67082 19.2783C6.69976 19.3796 6.66875 19.5088 6.64498 19.6101H7.91939C8.0827 18.6633 7.29924 18.4473 6.48994 18.4473L6.48787 18.4463Z" fill="#0095D5"/>
<path d="M10.6367 18.6104C9.2279 18.6104 8.47132 19.3401 8.23876 20.3438C8.14677 20.7417 8.13333 21.2295 8.46098 21.5882C8.73695 21.8942 9.12248 22.0699 9.90801 22.0699C10.6367 22.0699 11.0718 21.8683 11.4326 21.6006C11.8791 21.2616 12.1385 20.7799 12.2491 20.3034C12.5168 19.1437 11.7922 18.6094 10.6367 18.6094V18.6104ZM10.9147 20.35C10.8093 20.8068 10.5623 21.3856 9.98036 21.3856C9.86046 21.3856 9.62274 21.3732 9.52351 21.1252C9.43152 20.8843 9.48424 20.5649 9.53281 20.35C9.64651 19.8611 9.88734 19.3081 10.4755 19.3081C11.0067 19.3081 11.045 19.7835 10.9147 20.35Z" fill="#0095D5"/>
<path d="M24.1984 19.3991L24.1767 18.7221H22.8806L22.9168 19.4187V21.9924H24.2408V20.6043C24.2408 20.2518 24.3545 19.7236 25.169 19.7236C25.261 19.7236 25.2961 19.7309 25.4522 19.7433V18.6942C25.1483 18.6869 24.5034 18.6683 24.1984 19.3981V19.3991Z" fill="#808284"/>
<path d="M29.3623 19.8417C29.3623 19.4903 29.2775 19.1843 29.0502 18.9828C28.675 18.6427 27.9949 18.6045 27.6755 18.6045C27.0326 18.6045 26.4796 18.7544 26.2026 19.0148C25.9339 19.2681 25.9339 19.5492 25.9266 19.6991H27.2011C27.1949 19.327 27.4285 19.2029 27.6755 19.2029C28.0796 19.2029 28.1292 19.5296 28.123 19.88C26.5933 19.8221 25.6931 20.1466 25.6931 21.0397C25.6931 21.6195 26.0755 22.0557 26.9468 22.0557C27.6755 22.0557 27.9515 21.7435 28.1158 21.5223C28.1158 21.7311 28.1303 21.8738 28.1582 21.9916H29.4326C29.3695 21.666 29.3613 21.6009 29.3613 21.3663V19.8417H29.3623ZM28.0166 21.0603C27.8822 21.3218 27.6341 21.3735 27.4936 21.3735C27.1742 21.3735 27.0036 21.172 27.0036 20.9301C27.0036 20.4619 27.5494 20.4557 28.1158 20.4484C28.123 20.5849 28.123 20.8526 28.0166 21.0603Z" fill="#808284"/>
<path d="M31.4501 18.7222H30.1188V21.9925H31.4501V18.7222Z" fill="#808284"/>
<path d="M31.4646 17.2998H30.1054V18.1742H31.4646V17.2998Z" fill="#808284"/>
<path d="M34.6967 18.6489C33.9608 18.6489 33.6765 18.9745 33.5143 19.2226L33.5008 18.7213H32.1685L32.2037 19.4179V21.9916H33.5277V20.1156C33.5277 19.9988 33.5277 19.4252 34.122 19.4252C34.6677 19.4252 34.6677 19.8882 34.6677 20.1156V21.9916H35.999V20.0112C35.999 19.5616 35.999 18.6489 34.6957 18.6489H34.6967Z" fill="#808284"/>
<path d="M15.1669 20.6168C15.1245 20.7998 15.0171 21.268 14.4568 21.268C13.9266 21.268 14.031 20.8122 14.0734 20.6292L14.5147 18.7212H13.1907L12.7649 20.5641C12.6202 21.1894 12.4992 22.0494 13.7323 22.0494C14.0434 22.0494 14.4992 22.0111 14.9819 21.483L14.893 21.9915H16.2036C16.2553 21.7372 16.2625 21.7042 16.3132 21.4251L16.9385 18.7222H15.6072L15.168 20.6168H15.1669Z" fill="#0095D5"/>
<path d="M22.1116 19.3203C21.8853 18.9678 21.4739 18.6361 20.7938 18.6361C20.6667 18.6361 20.0372 18.6423 19.6672 19.066V16.0024L18.2874 21.9911H19.5349L19.5762 21.5095C20.0166 22.0428 20.5251 22.0624 20.7597 22.0624C21.0295 22.0624 21.4822 22.0232 21.8781 21.6252C22.1768 21.3317 22.338 20.9741 22.338 20.3363C22.338 19.9839 22.3029 19.6262 22.1116 19.3203ZM20.2987 21.3265C19.6672 21.3265 19.6259 20.5513 19.6259 20.3374C19.6259 20.0965 19.6672 19.3472 20.3266 19.3472C20.922 19.3472 20.9644 19.9994 20.9644 20.3312C20.9644 20.5461 20.9644 21.3275 20.2998 21.3275L20.2987 21.3265Z" fill="#808284"/>
<path d="M18.2874 16.001L16.9055 21.9917H18.2874V16.001Z" fill="#0095D5"/>
<path d="M19.6672 16.001H18.2874V21.9917L19.6672 16.003V16.001Z" fill="#472F92"/>
</g>
<defs>
<clipPath id="clip0_14382_20513">
<rect width="32" height="6.0724" fill="white" transform="translate(4 16)"/>
</clipPath>
</defs>
</svg>
