<svg width="40" height="40" viewBox="0 0 40 40" fill="none" xmlns="http://www.w3.org/2000/svg">
<circle cx="20" cy="20" r="20" fill="#17326A"/>
<path d="M28.6733 15.1865C28.6733 15.1865 28.8261 18.6427 27.1447 20.6254L28.34 20.4985C28.34 20.4985 25.8239 29.5724 16.75 28.987C16.75 28.987 22.7728 31.4786 27.3984 26.7261C27.3984 26.7261 29.6363 24.4118 29.8442 20.6254L30.9616 21.6159C30.9616 21.6159 31.4936 18.7161 28.6733 15.1865Z" fill="white"/>
<path d="M23.3353 10.506C23.3353 10.506 15.4308 9.36263 11.7713 19.022L13.147 18.7667C13.147 18.7667 11.2408 20.2663 11.4182 24.3585C9.85933 22.5693 9.00133 20.2761 9.00293 17.9031L10.2488 18.9196C10.2488 18.9196 9.97055 15.8226 12.664 12.9473C15.2779 10.1514 18.0738 9.36263 23.3353 10.506Z" fill="white"/>
<path d="M15.6264 13.7604H22.6749L23.3858 18.8171L23.9712 13.7604H25.0199C25.4151 13.7572 25.8079 13.8213 26.1816 13.9499C26.576 14.0905 26.9704 14.3198 26.9704 14.6745V22.7579C26.3845 23.6939 25.7197 24.5781 24.9832 25.4009V17.8265L23.9911 25.4009H22.6948L21.6248 17.8265V25.5277H19.5917V16.2031H17.4822V25.4803H15.0242V16.1557H13.7019C13.7019 16.1557 14.7001 14.3779 15.6264 13.7604Z" fill="white"/>
<circle cx="20" cy="20" r="19.5" stroke="black" stroke-opacity="0.05"/>
</svg>
