<svg width="40" height="40" viewBox="0 0 40 40" fill="none" xmlns="http://www.w3.org/2000/svg">
<circle cx="20" cy="20" r="20" fill="#1F252B"/>
<g clip-path="url(#clip0_20329_63502)">
<path d="M17.2545 15.7632C17.2817 15.8761 17.3293 15.9625 17.3972 16.0289C17.4312 16.0621 17.4516 16.0555 17.4584 16.009C17.472 15.9425 17.404 15.8761 17.3972 15.8097C17.3972 15.7964 17.404 15.7831 17.4244 15.7765C17.4312 15.7765 17.438 15.7765 17.4448 15.7765C17.5264 15.8429 17.6147 15.916 17.6827 16.0023C17.8934 16.268 18.0905 16.5337 18.2672 16.7928C18.3352 16.8925 18.4439 16.9522 18.5255 17.0452C18.7701 17.3242 18.974 17.6032 19.1236 17.8889C19.2595 18.1413 19.4294 18.3472 19.5925 18.5664C19.6061 18.5864 19.6333 18.5864 19.6537 18.5731C19.6537 18.5731 19.6537 18.5731 19.6605 18.5664C19.8372 18.3472 20.0139 18.1081 20.1974 17.8623C20.3197 17.6962 20.4285 17.5235 20.5644 17.3641C20.7819 17.1183 20.945 16.846 21.1625 16.6002C21.2917 16.4474 21.4208 16.3012 21.5499 16.1617C21.6587 16.0355 21.7674 15.9027 21.8626 15.7765C21.9849 15.6104 22.1276 15.4443 22.284 15.2849C22.4267 15.1387 22.5422 14.9926 22.7121 14.8664C22.7461 14.8398 22.7597 14.8465 22.7529 14.893C22.7189 15.0391 22.6578 15.152 22.5626 15.2251C22.515 15.265 22.4811 15.3048 22.4471 15.3513C22.3723 15.4642 22.2907 15.5838 22.2024 15.6967C22.0597 15.8894 21.9509 16.0953 21.7878 16.268C21.6587 16.4142 21.5431 16.5935 21.448 16.7596C21.346 16.939 21.2101 17.0718 21.0878 17.2312C20.9382 17.4372 20.8159 17.6697 20.7343 17.9287C20.7004 18.0217 20.646 18.1081 20.5916 18.1944C20.5712 18.2277 20.5644 18.2476 20.5712 18.2675C20.5848 18.3207 20.5984 18.3273 20.6256 18.2742C20.6392 18.2476 20.6596 18.2144 20.68 18.1878C20.979 17.7892 21.2985 17.3574 21.6383 16.8792C21.8626 16.5736 22.114 16.2614 22.3111 15.9292C22.4063 15.7632 22.4946 15.6237 22.6374 15.4842C22.9432 15.1653 23.2423 14.8398 23.5141 14.4811C23.6908 14.2486 23.9015 14.0427 24.153 13.8567C24.2482 13.7903 24.3297 13.7371 24.4113 13.7172C24.52 13.684 24.6899 13.6574 24.7987 13.6973C24.8327 13.7105 24.8531 13.7504 24.8395 13.7836C24.8123 13.85 24.7851 13.9165 24.7579 13.9895C24.7103 14.1224 24.6084 14.222 24.5404 14.3416C24.3909 14.6007 24.2414 14.873 24.0918 15.152C24.0511 15.2251 24.0103 15.2915 23.9627 15.358C23.9015 15.451 23.8404 15.5506 23.7656 15.6303C23.6772 15.7233 23.6161 15.8163 23.5685 15.896C23.5209 15.9824 23.4666 16.082 23.419 16.1883C23.3442 16.3477 23.1743 16.4673 23.0792 16.64C22.9976 16.7729 22.916 16.9057 22.8209 17.032C22.7665 17.105 22.7189 17.1781 22.6782 17.2644C22.5762 17.4637 22.4267 17.6497 22.2908 17.8291C22.1684 17.9885 22.0936 18.1612 21.9985 18.3273C21.9373 18.4402 21.8694 18.5465 21.7946 18.6462C21.6655 18.8122 21.6043 18.8986 21.5975 18.8986C21.4412 19.1244 21.2645 19.3835 21.081 19.6758C21.013 19.7887 20.9586 19.8884 20.9246 19.9814C20.9043 20.0411 20.911 20.1142 20.945 20.2006C21.0198 20.3534 21.0878 20.4862 21.1557 20.5991C21.3052 20.8516 21.414 21.1239 21.5431 21.3896C21.6179 21.5557 21.747 21.6886 21.849 21.8281C21.9645 21.9875 22.0461 22.1868 22.1276 22.3661C22.1888 22.499 22.2636 22.6186 22.3451 22.7448C22.3995 22.8311 22.4403 22.9308 22.4743 23.0371C22.5286 23.2297 22.5898 23.4024 22.6917 23.5818C22.7937 23.7611 22.8481 23.9604 22.8685 24.173C22.8821 24.3258 22.9228 24.5051 22.9092 24.6513C22.8956 24.8107 22.8821 24.9701 22.8753 25.1295C22.8753 25.1495 22.8617 25.1694 22.8413 25.1827C22.6714 25.2558 22.4063 25.083 22.284 24.9701C22.2364 24.9303 22.1888 24.8971 22.1412 24.8705C22.0461 24.8173 21.9441 24.7775 21.8898 24.6712C21.8422 24.5782 21.781 24.4985 21.7062 24.4387C21.6587 24.3988 21.6111 24.3523 21.5771 24.3058C21.448 24.1198 21.2985 23.9471 21.2033 23.7412C21.1353 23.6017 21.0742 23.4622 20.9858 23.3293C20.8023 23.0503 20.612 22.7647 20.4285 22.4857C20.3809 22.4126 20.3265 22.3396 20.2586 22.2798C20.1906 22.2134 20.1294 22.1469 20.0819 22.0739C19.9391 21.8613 19.81 21.6487 19.7013 21.4361C19.6877 21.4162 19.6673 21.4096 19.6469 21.4162C19.6265 21.4295 19.6061 21.4494 19.5857 21.4694C19.4498 21.6155 19.3071 21.7749 19.1575 21.9476C19.0352 22.0871 18.9536 22.2399 18.8585 22.3927C18.7429 22.5721 18.5798 22.7381 18.4779 22.9042C18.3012 23.1898 18.0769 23.4091 17.9138 23.6947C17.7507 23.9803 17.5128 24.1863 17.3429 24.4453C17.3021 24.4985 17.2681 24.5583 17.2205 24.6181C17.0234 24.8904 16.8331 25.1628 16.636 25.4351C16.5613 25.5414 16.4661 25.641 16.3777 25.7407C16.269 25.8735 16.1331 25.9865 16.0243 26.1193C16.0107 26.1393 15.9835 26.1525 15.9632 26.1592C15.9496 26.1592 15.936 26.1592 15.9292 26.1393C15.9292 26.1393 15.9292 26.1326 15.9292 26.126C15.9496 26.013 16.0447 25.8868 16.1195 25.7938C16.2418 25.641 16.3302 25.4816 16.4253 25.3222C16.4933 25.2093 16.5477 25.0897 16.6088 24.9768C16.6156 24.9635 16.6088 24.9436 16.5952 24.9369C16.5952 24.9369 16.5884 24.9369 16.5816 24.9369C16.5613 24.9369 16.5477 24.9436 16.5409 24.9635C16.4593 25.0963 16.3777 25.2292 16.2894 25.3753C16.235 25.4683 16.1738 25.5613 16.1127 25.6477C16.0447 25.7407 15.9835 25.827 15.9156 25.9134C15.8748 25.9599 15.8476 26.013 15.8272 26.0728C15.8 26.1525 15.7593 26.219 15.6981 26.2854C15.6097 26.3784 15.5486 26.4714 15.501 26.5578C15.4602 26.6375 15.3854 26.7039 15.2971 26.6441C15.2631 26.6242 15.2563 26.5976 15.2631 26.5578C15.2903 26.4382 15.3243 26.3253 15.3787 26.2123C15.4466 26.0595 15.5146 25.9134 15.5825 25.7739C15.6505 25.6278 15.6709 25.4484 15.7321 25.2956C15.8748 24.9568 16.0175 24.6513 16.1671 24.3856C16.2486 24.2394 16.3777 24.1132 16.4593 23.9538C16.5545 23.7678 16.6292 23.615 16.6972 23.4954C16.8399 23.243 16.9758 22.9906 17.105 22.7315C17.139 22.6584 17.1797 22.592 17.2205 22.5322C17.3225 22.3927 17.4108 22.2399 17.4992 22.0938C17.6895 21.7616 17.9613 21.4893 18.1041 21.1306C18.1652 20.9778 18.2196 20.8383 18.3216 20.7121C18.4303 20.5726 18.5391 20.4397 18.641 20.3135C18.7701 20.1541 18.7973 20.0013 18.6682 19.8219C18.573 19.6891 18.4983 19.5496 18.4371 19.4034C18.3691 19.2241 18.24 19.0846 18.1381 18.9185C18.0565 18.7923 17.9817 18.6528 17.9002 18.5C17.839 18.3871 17.7778 18.2808 17.7031 18.1812C17.4448 17.8224 17.2205 17.4438 17.003 17.0519C16.8875 16.846 16.7991 16.6135 16.67 16.4075C16.5477 16.2082 16.3777 15.8761 16.4865 15.6436C16.5137 15.5838 16.5613 15.5506 16.636 15.5572C16.8671 15.5572 17.0166 15.6901 17.2341 15.7366C17.2409 15.7366 17.2477 15.7432 17.2545 15.7565V15.7632Z" fill="#89D060"/>
<path d="M10.94 22.5457C10.4235 23.0373 9.77104 23.3628 9.0574 23.4757C8.89429 23.5023 8.77874 23.5156 8.71078 23.5222C8.43212 23.5422 8.20104 23.5222 7.90879 23.4691C7.18835 23.3562 6.4883 23.0041 5.99216 22.4793C5.76107 22.2335 5.58436 22.001 5.45523 21.7818C5.25133 21.4231 5.1154 21.0644 5.05423 20.7057C5.02025 20.4931 4.98627 20.2407 4.99306 20.0281C5.00666 19.7159 5.06103 19.3904 5.16977 19.0583C5.32609 18.5667 5.62514 18.1349 5.97856 17.7563C6.67861 17.0123 7.76606 16.6137 8.79913 16.7133C9.37684 16.7665 9.90697 16.9458 10.3895 17.2514C10.4439 17.2846 10.4439 17.3245 10.4031 17.3643C10.1924 17.5769 10.0021 17.8293 9.83221 18.115C9.81182 18.1548 9.77784 18.1548 9.74385 18.1283C9.6487 18.0552 9.54676 18.0153 9.43801 17.9688C9.10498 17.8293 8.77195 17.7629 8.44571 17.7696C7.90199 17.7828 7.34467 17.9954 6.92328 18.3475C6.4951 18.7128 6.23004 19.1778 6.12809 19.7292C5.99216 20.4732 6.27081 21.2504 6.82134 21.7685C7.31748 22.2468 8.00394 22.4926 8.70398 22.4262C9.32247 22.3664 9.8458 22.1073 10.274 21.649C10.2876 21.6357 10.2876 21.6224 10.274 21.6091C9.77104 20.5795 9.79823 19.304 10.4439 18.3408C10.675 17.9954 10.9876 17.6301 11.3342 17.3843C11.81 17.0521 12.3197 16.8396 12.8567 16.7598C13.0742 16.7266 13.3392 16.7133 13.6451 16.7333C14.1548 16.7598 14.6306 16.906 15.0859 17.1451C15.4801 17.3511 15.7792 17.6168 16.0647 17.9423C16.5336 18.4803 16.8055 19.1114 16.8802 19.8355C16.9142 20.1875 16.887 20.5463 16.7919 20.905C16.7103 21.2172 16.6084 21.4895 16.4792 21.7087C16.085 22.393 15.5073 22.9377 14.7733 23.2432C14.2704 23.4492 13.7538 23.5422 13.2169 23.5222C13.0946 23.5222 12.9178 23.489 12.6868 23.4425C12.0275 23.3097 11.443 22.9975 10.9672 22.5391C10.9536 22.5258 10.94 22.5258 10.9265 22.5391L10.94 22.5457ZM15.8132 20.1211C15.8132 18.8324 14.7393 17.7828 13.4208 17.7828C12.1023 17.7828 11.0284 18.8324 11.0284 20.1211C11.0284 21.4098 12.1023 22.4594 13.4208 22.4594C14.7393 22.4594 15.8132 21.4098 15.8132 20.1211Z" fill="white"/>
<path d="M24.9816 20.7388C24.9816 20.7919 24.9816 20.8517 24.9816 20.9048C24.9816 21.3499 24.9816 21.8216 24.9816 22.3198C24.9816 22.3463 25.0019 22.3663 25.0291 22.3663H28.7672C28.7672 22.3663 28.8148 22.3796 28.8148 22.4061V23.3627C28.8148 23.3627 28.8012 23.3959 28.7808 23.3959H23.9825C23.9417 23.3959 23.9145 23.3627 23.9145 23.3228C23.9145 22.4792 23.9145 21.6422 23.9145 20.8118C23.9145 20.6923 23.8465 20.6126 23.7718 20.5196C23.6087 20.3136 23.4455 20.1077 23.2824 19.9018C23.228 19.8354 23.1805 19.7623 23.1465 19.6892C23.1465 19.6759 23.1465 19.656 23.1601 19.6494H23.1737C23.2144 19.656 23.262 19.6693 23.3028 19.6693C23.4863 19.6693 23.6766 19.6693 23.8805 19.6759C23.9009 19.6759 23.9145 19.6626 23.9145 19.6427V17.2114C23.9145 17.2114 23.9281 17.1782 23.9485 17.1782H28.7808C28.7808 17.1782 28.8148 17.1915 28.8148 17.2114V18.1946C28.8148 18.2145 28.8012 18.2278 28.7808 18.2278C27.4895 18.2278 26.3069 18.2278 25.2398 18.2278C25.1651 18.2278 25.0971 18.2278 25.0223 18.2344C24.9951 18.2344 24.9816 18.2544 24.9816 18.2809V19.5896C24.9816 19.6294 25.0155 19.656 25.0563 19.656C26.0486 19.656 27.0409 19.656 28.0332 19.656C28.074 19.656 28.1216 19.6427 28.1691 19.6427C28.1895 19.6427 28.2031 19.6626 28.2031 19.6759C28.2031 19.6826 28.2031 19.6892 28.2031 19.6959C28.1284 19.8021 28.0468 19.9084 27.9584 20.0081C27.7749 20.2206 27.605 20.4531 27.4147 20.6591C27.3943 20.679 27.3671 20.6923 27.34 20.6923H25.0223C25.0223 20.6923 24.9951 20.6989 24.9951 20.7188L24.9816 20.7388Z" fill="white"/>
<path d="M32.2811 19.9285L34.9318 17.2847C34.9726 17.2382 34.9997 17.2514 34.9997 17.3112V23.3761C34.9997 23.3761 34.9929 23.3961 34.9793 23.3961H34.0074C34.0074 23.3961 33.9667 23.3828 33.9599 23.3562C33.9531 23.3097 33.9463 23.2632 33.9463 23.2167C33.9463 22.2402 33.9463 21.2836 33.9463 20.3603C33.9463 20.1942 33.9463 20.0016 33.9463 19.7757C33.9463 19.7093 33.9191 19.696 33.8715 19.7491L32.2811 21.4099C32.2811 21.4099 32.2607 21.4165 32.2539 21.4099L30.514 19.6495C30.514 19.6495 30.4936 19.6429 30.4868 19.6495C30.4732 19.6628 30.4596 19.6827 30.4596 19.7026C30.4596 19.8687 30.4596 20.0547 30.4596 20.254C30.4596 21.1707 30.4596 22.207 30.4596 23.3562C30.4596 23.3761 30.446 23.3894 30.4257 23.3894H29.447C29.447 23.3894 29.3926 23.3695 29.3926 23.3429C29.3926 21.3235 29.3926 19.2974 29.3926 17.2714C29.3926 17.2514 29.3926 17.2382 29.4062 17.2249C29.413 17.2116 29.4402 17.2049 29.4537 17.2116C29.4537 17.2116 29.4605 17.2116 29.4673 17.2182C29.4945 17.2514 29.5217 17.2847 29.5489 17.3179C30.0179 17.7962 30.48 18.208 30.949 18.6664C31.1053 18.8192 31.2616 18.9653 31.418 19.1114C31.683 19.3572 31.9549 19.6429 32.2607 19.9152C32.2675 19.9219 32.2743 19.9219 32.2811 19.9152V19.9285Z" fill="white"/>
</g>
<circle cx="20" cy="20" r="19.5" stroke="black" stroke-opacity="0.05"/>
<defs>
<clipPath id="clip0_20329_63502">
<rect width="30" height="13" fill="white" transform="translate(5 13.6841)"/>
</clipPath>
</defs>
</svg>
