<svg width="40" height="40" viewBox="0 0 40 40" fill="none" xmlns="http://www.w3.org/2000/svg">
<circle cx="20" cy="20" r="20" fill="#EA002C"/>
<path d="M14.655 22.1057C14.0432 21.8211 13.5452 21.5899 13.5452 21.1239C13.5452 20.7682 13.8298 20.5085 14.3918 20.5085C14.577 20.51 14.7616 20.529 14.9431 20.5655C15.0322 20.5834 15.1227 20.5929 15.2135 20.5939C15.7044 20.5939 15.9818 20.3022 16.1668 19.7473L16.2415 19.5197C15.6295 19.2688 14.9749 19.1383 14.3135 19.1355C12.6488 19.1355 11.7702 20.2026 11.7702 21.3125C11.7536 21.7815 11.9135 22.2397 12.2184 22.5966C12.5951 22.9861 13.0463 23.2958 13.5452 23.5072C14.2317 23.8416 14.8507 24.0906 14.8507 24.5921C14.8507 25.0332 14.3953 25.2858 13.7835 25.2858C13.1891 25.2523 12.6144 25.0607 12.1188 24.7308L11.4287 26.0327C12.1785 26.465 13.0321 26.6839 13.8973 26.6659C15.4518 26.6659 16.6292 25.7731 16.6292 24.4036C16.6292 23.0341 15.5265 22.5325 14.655 22.1057Z" fill="white"/>
<path d="M20.7302 22.7424L23.551 19.2849H21.5412L19.2931 22.2693H19.2611V19.2849H17.6035V26.609H17.7031C18.4145 26.609 19.2718 26.2781 19.2718 25.0794V23.4004H19.3038L21.5982 26.5094H23.7075L20.7302 22.7424Z" fill="white"/>
<path d="M23.6439 11.4412C23.064 11.5515 22.1997 12.0815 22.1997 13.017C22.1997 13.8672 22.9111 14.383 22.9111 15.507C22.9106 15.852 22.8197 16.1909 22.6474 16.4899C22.4752 16.7888 22.2276 17.0374 21.9293 17.2109C22.1285 17.1931 22.3526 17.1789 22.5945 17.1789C22.874 17.1752 23.1534 17.1918 23.4304 17.2287L26.0449 14.0272C25.3909 13.0401 24.5798 12.1666 23.6439 11.4412Z" fill="white"/>
<path d="M25.8421 20.1064C26.1729 19.5942 26.1978 18.7796 26.2405 17.9473C26.2725 17.1718 26.4326 16.5884 27.4712 16.5849C27.7025 16.5849 27.9194 16.6133 28.3178 16.6133C29.4212 16.6099 30.5029 16.3075 31.4481 15.7383C29.835 14.6998 27.9756 14.107 26.0591 14.0202C25.9097 14.4399 24.7536 17.6591 24.6647 17.933C24.8404 18.1423 24.9964 18.3673 25.1307 18.6053C25.4213 19.0786 25.6598 19.5819 25.8421 20.1064Z" fill="white"/>
<path d="M20.3179 17.4777C20.1863 17.4777 20.1223 17.3923 20.1045 17.2394C20.0867 17.0864 19.4393 11.1033 19.3361 10.1998C19.3361 10.0647 19.2863 9.82277 19.2863 9.7374C19.2838 9.70995 19.2871 9.68228 19.2961 9.6562C19.305 9.63013 19.3193 9.60623 19.3381 9.58608C19.3569 9.56593 19.3798 9.54998 19.4052 9.53928C19.4306 9.52857 19.458 9.52336 19.4855 9.52397C19.795 9.52397 21.4846 9.91881 23.2739 11.1745C22.8735 11.2755 22.5165 11.5032 22.2562 11.8238C21.9959 12.1443 21.8463 12.5405 21.8297 12.953C21.8297 13.9348 22.5411 14.479 22.5411 15.4644C22.5482 17.09 20.7021 17.4777 20.3179 17.4777Z" fill="white"/>
<path d="M25.9912 20.5333C26.0139 20.5957 26.0412 20.6564 26.073 20.7147C26.0875 20.745 26.1102 20.7707 26.1384 20.7889C26.1667 20.8072 26.1995 20.8172 26.2331 20.8178C26.285 20.8149 26.3358 20.8016 26.3825 20.7787L32.8066 17.7907C32.924 17.7338 33.1624 17.6342 33.2264 17.5915C33.2589 17.5753 33.2864 17.5505 33.3058 17.5198C33.3253 17.489 33.3359 17.4536 33.3367 17.4172C33.3365 17.3798 33.3267 17.343 33.3082 17.3105C32.8739 16.7894 32.3629 16.3372 31.7929 15.9695C30.7601 16.5998 29.5771 16.9413 28.3674 16.9584C27.969 16.9584 27.8765 16.9335 27.6061 16.9335C26.8093 16.9335 26.6102 17.2892 26.5817 17.9721C26.5817 18.1038 26.5817 18.2816 26.5817 18.4772C26.5532 19.0997 26.4679 19.9606 25.9912 20.5333Z" fill="white"/>
<circle cx="20" cy="20" r="19.5" stroke="black" stroke-opacity="0.05"/>
</svg>
