<svg width="40" height="40" viewBox="0 0 40 40" fill="none" xmlns="http://www.w3.org/2000/svg">
<circle cx="20" cy="20" r="20" fill="#0A2C74"/>
<path d="M22.8716 14.4675C22.8814 14.4659 22.8908 14.4624 22.8993 14.4573C22.9077 14.4521 22.915 14.4452 22.9207 14.4372C22.9265 14.4292 22.9305 14.4202 22.9327 14.4106C22.9348 14.4011 22.935 14.3912 22.9331 14.3816C22.8981 14.18 22.8323 13.9822 22.7358 13.7882C21.945 12.1913 20.02 11.5325 18.4307 12.3553C17.5207 12.827 16.9525 13.6126 16.7261 14.7123C16.7048 14.8157 16.7466 14.8674 16.8517 14.8674L17.34 14.8661C17.4408 14.8661 17.5019 14.817 17.5233 14.7187C18.0424 12.3297 21.2478 12.0567 22.1052 14.3573C22.1248 14.4086 22.1616 14.4402 22.2154 14.4521C22.4171 14.4966 22.6358 14.5017 22.8716 14.4675Z" stroke="#46628A" stroke-width="0.25633"/>
<path d="M18.0515 15.9222C18.6257 17.2526 20.2739 17.5012 21.2915 16.5502C21.453 16.3998 21.5795 16.2166 21.6709 16.0004C21.6762 15.9881 21.6784 15.9747 21.6772 15.9613C21.6761 15.948 21.6716 15.9351 21.6642 15.9239C21.6568 15.9127 21.6468 15.9035 21.635 15.8972C21.6232 15.8909 21.61 15.8876 21.5966 15.8876L21.0583 15.8914C21.0062 15.8914 20.96 15.9077 20.9199 15.9401C20.7955 16.0414 20.6969 16.1785 20.5572 16.258C18.9654 17.159 17.7119 14.8085 19.2909 13.9972C19.7267 13.7742 20.3149 13.819 20.6994 14.174C20.7849 14.2526 20.8686 14.3291 20.9506 14.4035C20.9925 14.441 21.0412 14.4603 21.0967 14.4611L21.5979 14.4637C21.6927 14.4637 21.7196 14.421 21.6786 14.3355C20.9071 12.713 18.718 12.8757 18.0323 14.4496C17.8388 14.8956 17.8554 15.4672 18.0515 15.9222Z" stroke="#46628A" stroke-width="0.25633"/>
<path d="M22.2106 15.6248C22.0914 16.3964 21.4109 17.1077 20.7277 17.3768C20.2518 17.564 19.7733 17.5951 19.2923 17.4704C18.3781 17.2337 17.7787 16.5933 17.4941 15.5492C17.4882 15.5278 17.4745 15.5167 17.4531 15.5159C17.1302 15.4996 16.8837 15.5099 16.7136 15.5466C16.7085 15.5475 16.7064 15.5505 16.7072 15.5556C16.9661 16.8227 17.6497 17.6742 18.7579 18.1099C19.7101 18.4842 20.9379 18.3406 21.7569 17.7113C22.6515 17.0235 23.0847 16.1003 23.0565 14.9417C23.0558 14.9112 23.0433 14.8822 23.0215 14.8609C22.9997 14.8396 22.9704 14.8276 22.9399 14.8276L20.6688 14.8302C20.568 14.8302 20.5419 14.8742 20.5906 14.9622L20.8418 15.4185C20.8862 15.4979 20.9542 15.5377 21.0456 15.5377L22.135 15.5364C22.146 15.5364 22.1569 15.5389 22.167 15.5435C22.177 15.5482 22.1859 15.5549 22.193 15.5633C22.2002 15.5717 22.2055 15.5815 22.2085 15.5922C22.2116 15.6028 22.2123 15.6139 22.2106 15.6248Z" stroke="#46628A" stroke-width="0.25633"/>
<path d="M7.29486 22.9212C7.20259 22.9238 7.13081 22.9631 7.07955 23.0391C6.51434 23.8773 5.35188 23.9901 4.75976 23.1404C4.21762 22.3598 4.61237 21.2448 5.54798 21.0423C6.18966 20.9039 6.70915 21.1205 7.10646 21.6921C7.13466 21.7323 7.17353 21.7528 7.22309 21.7536L7.61656 21.7549C7.6815 21.7557 7.70072 21.7263 7.67423 21.6665C7.4555 21.1726 7.12184 20.8364 6.67326 20.6578C5.67742 20.2618 4.35989 20.6757 4.0728 21.8254C3.47939 24.208 6.67967 25.1141 7.66142 23.0647C7.71097 22.9614 7.6785 22.9114 7.56401 22.9148L7.29486 22.9212Z" stroke="#8495BA" stroke-width="0.25633"/>
<path d="M17.0764 21.0374C17.7019 20.9438 18.2607 21.2206 18.2696 21.873C18.2782 22.5497 18.2782 23.2666 18.2696 24.0236C18.2688 24.1108 18.3115 24.1539 18.3978 24.1531L18.7092 24.1479C18.7836 24.1471 18.8199 24.1095 18.8182 24.0351C18.8096 23.4225 18.8092 22.783 18.8169 22.1165C18.831 20.9489 18.0351 20.3414 16.8919 20.5542C15.9524 20.7298 15.7345 21.4936 15.7563 22.3395C15.7717 22.9146 15.7717 23.4874 15.7563 24.0582C15.7555 24.1146 15.7828 24.1432 15.8384 24.1441L16.2075 24.1492C16.2183 24.1494 16.2292 24.1474 16.2393 24.1433C16.2494 24.1393 16.2585 24.1333 16.2663 24.1256C16.2741 24.118 16.2802 24.1089 16.2844 24.0989C16.2886 24.0888 16.2908 24.0781 16.2908 24.0672C16.2874 23.4238 16.2895 22.7291 16.2972 21.9832C16.3023 21.4304 16.5621 21.1151 17.0764 21.0374Z" stroke="#8495BA" stroke-width="0.25633"/>
<path d="M22.6081 22.8803C22.1993 23.8441 20.7664 23.9812 20.1807 23.1161C19.6616 22.3484 20.0564 21.2 21.024 21.0475C21.6853 20.9424 22.1818 21.1513 22.5133 21.6742C22.5293 21.6996 22.5515 21.7205 22.5777 21.7349C22.604 21.7492 22.6334 21.7566 22.6632 21.7563L23.058 21.7524C23.0675 21.7524 23.0769 21.7499 23.0853 21.7454C23.0937 21.7408 23.1008 21.7342 23.106 21.7262C23.1112 21.7182 23.1144 21.709 23.1152 21.6995C23.1159 21.69 23.1144 21.6804 23.1105 21.6717C22.239 19.6915 19.1156 20.3823 19.4566 22.656C19.7936 24.895 23.2848 24.6272 23.2028 22.3189C23.2022 22.303 23.1955 22.2881 23.1843 22.2771C23.1731 22.2661 23.1581 22.26 23.1426 22.26L21.6636 22.2574C21.5448 22.2574 21.5157 22.3082 21.5764 22.4099L21.6982 22.6124C21.7639 22.7226 21.8609 22.7765 21.9891 22.7739L22.5312 22.7662C22.5449 22.766 22.5584 22.7692 22.5705 22.7755C22.5826 22.7818 22.593 22.791 22.6006 22.8024C22.6083 22.8137 22.613 22.8268 22.6143 22.8404C22.6156 22.854 22.6135 22.8677 22.6081 22.8803Z" stroke="#8495BA" stroke-width="0.25633"/>
<path d="M30.1483 22.4715L28.9 22.4612C28.7974 22.4604 28.7722 22.5044 28.8243 22.5932L28.9884 22.8713C29.0294 22.9414 29.0901 22.976 29.1704 22.9752H30.1842C30.2005 22.9752 30.2161 22.9818 30.2277 22.9936C30.2392 23.0053 30.2457 23.0213 30.2457 23.038L30.2393 24.0748C30.2393 24.1107 30.2568 24.1291 30.2918 24.1299L30.6635 24.1453C30.6774 24.146 30.6913 24.1438 30.7043 24.1389C30.7173 24.134 30.7291 24.1264 30.739 24.1166C30.7489 24.1068 30.7566 24.0951 30.7617 24.0822C30.7668 24.0692 30.7692 24.0554 30.7686 24.0415C30.7541 23.522 30.7541 22.9414 30.7686 22.2997C30.7942 21.2308 30.3444 20.4977 29.1486 20.5195C28.5146 20.5315 28.0665 20.7835 27.8042 21.2757C27.6803 21.5072 27.6281 21.946 27.6478 22.5919C27.6623 23.0875 27.6593 23.5737 27.6388 24.0505C27.6363 24.1145 27.6674 24.1466 27.7324 24.1466L28.0707 24.144C28.098 24.1437 28.1241 24.1326 28.1433 24.1132C28.1625 24.0937 28.1733 24.0675 28.1733 24.0402C28.1664 23.4447 28.1656 22.7765 28.1707 22.0357C28.1758 21.1283 28.882 20.8579 29.66 21.0886C30.2047 21.2488 30.2893 21.8922 30.2406 22.3894C30.2354 22.445 30.2047 22.4723 30.1483 22.4715Z" stroke="#8495BA" stroke-width="0.25633"/>
<path d="M33.6081 20.9026C33.6008 20.9095 33.5921 20.9148 33.5826 20.9182C33.5731 20.9217 33.563 20.9231 33.5529 20.9225C33.5429 20.9219 33.533 20.9193 33.524 20.9148C33.515 20.9102 33.507 20.9039 33.5005 20.8962C33.3168 20.6775 33.0775 20.554 32.7828 20.5258C31.8074 20.4348 31.3563 21.0385 31.3678 21.9459C31.3772 22.6961 31.3764 23.392 31.3652 24.0337C31.3644 24.1046 31.399 24.1396 31.4691 24.1388L31.8113 24.1375C31.8677 24.1375 31.8959 24.1097 31.8959 24.0542C31.901 23.3185 31.9027 22.5589 31.901 21.7754C31.8997 20.7475 33.3005 20.7334 33.3057 21.8382C33.3082 22.6072 33.3095 23.3459 33.3095 24.0542C33.3095 24.1063 33.3356 24.1332 33.3877 24.1349L33.7337 24.1439C33.7472 24.1444 33.7606 24.1422 33.7732 24.1373C33.7857 24.1325 33.7972 24.1251 33.8069 24.1156C33.8166 24.1062 33.8243 24.0948 33.8296 24.0823C33.8348 24.0698 33.8376 24.0563 33.8376 24.0426C33.8324 23.2258 33.8329 22.4543 33.8388 21.728C33.8465 20.7757 35.2397 20.7398 35.2422 21.8023C35.244 22.5688 35.2448 23.3258 35.2448 24.0734C35.2448 24.123 35.2692 24.1469 35.3179 24.1452L35.71 24.1375C35.7408 24.1366 35.7562 24.1204 35.7562 24.0888C35.7562 23.3582 35.7592 22.5995 35.7652 21.8126C35.7754 20.5502 34.4438 20.1003 33.6081 20.9026Z" stroke="#8495BA" stroke-width="0.25633"/>
<path d="M8.9164 22.0779C8.89465 22.0779 8.87378 22.0693 8.8584 22.0539C8.84302 22.0385 8.83438 22.0176 8.83438 21.9959L8.84335 20.6463C8.84352 20.6353 8.84148 20.6244 8.83736 20.6142C8.83323 20.604 8.8271 20.5948 8.81933 20.587C8.81156 20.5792 8.80231 20.5731 8.79212 20.569C8.78194 20.5649 8.77103 20.5628 8.76004 20.563L8.38964 20.5656C8.36789 20.5656 8.34702 20.5742 8.33164 20.5896C8.31626 20.605 8.30762 20.6258 8.30762 20.6476V24.0619C8.30762 24.0837 8.31626 24.1045 8.33164 24.1199C8.34702 24.1353 8.36789 24.1439 8.38964 24.1439L8.75748 24.1465C8.76846 24.1467 8.77937 24.1446 8.78956 24.1405C8.79975 24.1364 8.809 24.1302 8.81677 24.1225C8.82454 24.1147 8.83067 24.1055 8.83479 24.0953C8.83892 24.0851 8.84096 24.0742 8.84078 24.0632L8.83438 22.6636C8.83438 22.6419 8.84302 22.621 8.8584 22.6056C8.87378 22.5902 8.89465 22.5816 8.9164 22.5816L10.8581 22.5854C10.8799 22.5854 10.9007 22.5941 10.9161 22.6095C10.9315 22.6248 10.9401 22.6457 10.9401 22.6675L10.9299 24.0593C10.9297 24.0702 10.9317 24.081 10.9357 24.0911C10.9398 24.1012 10.9458 24.1104 10.9534 24.1182C10.9611 24.1259 10.9702 24.1321 10.9802 24.1363C10.9902 24.1405 11.001 24.1426 11.0119 24.1426L11.3861 24.1478C11.397 24.1479 11.4078 24.1459 11.4179 24.1419C11.428 24.1379 11.4372 24.1318 11.445 24.1242C11.4527 24.1166 11.4589 24.1075 11.4631 24.0974C11.4673 24.0874 11.4694 24.0766 11.4694 24.0657L11.4682 20.6476C11.4682 20.6258 11.4595 20.605 11.4441 20.5896C11.4288 20.5742 11.4079 20.5656 11.3861 20.5656L11.0119 20.5681C10.9904 20.5685 10.9698 20.5773 10.9547 20.5926C10.9396 20.6079 10.9312 20.6286 10.9312 20.6502L10.9427 21.9946C10.9429 22.0055 10.9409 22.0163 10.9368 22.0264C10.9328 22.0365 10.9268 22.0457 10.9191 22.0534C10.9115 22.0612 10.9024 22.0673 10.8924 22.0715C10.8823 22.0757 10.8715 22.0779 10.8607 22.0779H8.9164Z" stroke="#8495BA" stroke-width="0.25633"/>
<path d="M12.6641 23.0225C12.641 22.8815 12.629 22.7409 12.6282 22.6008C12.6265 21.9514 12.6265 21.2982 12.6282 20.6412C12.6285 20.6218 12.621 20.6031 12.6073 20.5891C12.5936 20.5752 12.5748 20.5672 12.5551 20.5668L12.1783 20.563C12.1271 20.563 12.1018 20.5882 12.1027 20.6386C12.1104 21.2589 12.1104 21.9177 12.1027 22.6149C12.0963 23.2109 12.2796 23.7453 12.7974 24.0093C13.4984 24.3669 14.6006 24.2516 14.9698 23.439C15.0868 23.1818 15.1415 22.87 15.1338 22.5034C15.121 21.8446 15.1206 21.232 15.1325 20.6655C15.1334 20.5997 15.1009 20.5668 15.0351 20.5668L14.6724 20.5643C14.6297 20.5643 14.6083 20.5856 14.6083 20.6284C14.616 21.3828 14.6147 22.0817 14.6045 22.7251C14.5968 23.2292 14.3755 23.5351 13.9406 23.6428C13.4266 23.771 12.7627 23.6069 12.6641 23.0225Z" stroke="#8495BA" stroke-width="0.25633"/>
<path d="M23.9004 20.6502L23.9183 24.0696C23.9187 24.0891 23.9267 24.1077 23.9406 24.1213C23.9545 24.135 23.9732 24.1427 23.9927 24.1427L25.4012 24.135C25.8604 24.1325 26.2998 23.9552 26.6228 23.642C26.9459 23.3288 27.126 22.9054 27.1238 22.465L27.1225 22.2189C27.1198 21.7787 26.9352 21.3577 26.6091 21.0481C26.283 20.7386 25.8421 20.566 25.3833 20.5681L23.9747 20.5745C23.9649 20.5745 23.9551 20.5765 23.946 20.5803C23.9369 20.5841 23.9286 20.5897 23.9217 20.5968C23.9148 20.6038 23.9093 20.6122 23.9057 20.6213C23.902 20.6305 23.9002 20.6403 23.9004 20.6502Z" stroke="#8495BA" stroke-width="0.25633"/>
<path d="M26.2711 25.691C26.2711 25.6618 26.2595 25.6338 26.2388 25.6131C26.2181 25.5924 26.1901 25.5808 26.1609 25.5808H13.5956C13.5663 25.5808 13.5383 25.5924 13.5176 25.6131C13.497 25.6338 13.4854 25.6618 13.4854 25.691V27.4571C13.4854 27.4864 13.497 27.5144 13.5176 27.5351C13.5383 27.5558 13.5663 27.5674 13.5956 27.5674H26.1609C26.1901 27.5674 26.2181 27.5558 26.2388 27.5351C26.2595 27.5144 26.2711 27.4864 26.2711 27.4571V25.691Z" stroke="#46628A" stroke-width="0.25633"/>
<path d="M24.4277 21.1565L24.4405 23.5558C24.4405 23.5652 24.4424 23.5745 24.446 23.5832C24.4496 23.5919 24.4549 23.5998 24.4616 23.6065C24.4682 23.6132 24.4761 23.6185 24.4849 23.6221C24.4936 23.6257 24.5029 23.6275 24.5123 23.6275L25.4133 23.6224C25.7288 23.6207 26.0308 23.4978 26.2528 23.2808C26.4749 23.0638 26.5989 22.7704 26.5976 22.4651V22.2267C26.5969 22.0753 26.5654 21.9254 26.5049 21.7858C26.4444 21.6462 26.356 21.5195 26.2448 21.4129C26.1337 21.3064 26.0019 21.2221 25.857 21.1649C25.7121 21.1077 25.557 21.0787 25.4005 21.0796L24.4995 21.0847C24.4805 21.0847 24.4622 21.0923 24.4488 21.1058C24.4353 21.1192 24.4277 21.1375 24.4277 21.1565Z" stroke="#8495BA" stroke-width="0.25633"/>
<path d="M21.3087 26.4227C21.4613 26.2612 21.3792 25.9971 21.1819 25.9215C21.0093 25.8566 20.8298 25.8451 20.6436 25.8869C20.5872 25.8989 20.5585 25.9339 20.5577 25.992L20.541 27.1276C20.5402 27.1908 20.5709 27.228 20.6333 27.2391C20.8016 27.269 20.9764 27.2647 21.1575 27.2262C21.4843 27.1583 21.6138 26.8007 21.3203 26.5713C21.3093 26.5627 21.3001 26.5518 21.2935 26.5395C21.2869 26.5271 21.2829 26.5135 21.2819 26.4995C21.2808 26.4855 21.2826 26.4715 21.2872 26.4583C21.2919 26.445 21.2992 26.4329 21.3087 26.4227Z" stroke="#46628A" stroke-width="0.25633"/>
<path d="M23.1714 26.938C23.2149 26.997 23.2449 27.0653 23.2611 27.1431C23.2675 27.1746 23.2846 27.2029 23.3096 27.2234C23.3345 27.244 23.3658 27.2554 23.3982 27.2559H23.4418C23.4505 27.2559 23.459 27.2539 23.4667 27.25C23.4744 27.2461 23.4811 27.2404 23.4861 27.2333C23.4911 27.2263 23.4944 27.2181 23.4956 27.2096C23.4968 27.201 23.4959 27.1922 23.4931 27.1841C23.3512 26.7953 23.2017 26.3937 23.0445 25.9793C23.0154 25.9033 22.9616 25.8674 22.883 25.8717C22.8548 25.8728 22.8276 25.8822 22.8048 25.8986C22.782 25.915 22.7646 25.9378 22.7548 25.964L22.3127 27.1418C22.293 27.1948 22.3097 27.2298 22.3626 27.2469L22.4049 27.2597C22.4178 27.2639 22.4316 27.2633 22.4439 27.2582C22.4562 27.253 22.4661 27.2435 22.4716 27.2315L22.5972 26.9726C22.6073 26.9513 22.6229 26.9333 22.6423 26.9204C22.6618 26.9075 22.6843 26.9003 22.7074 26.8996L23.0624 26.8855C23.1086 26.8829 23.1449 26.9004 23.1714 26.938Z" stroke="#46628A" stroke-width="0.25633"/>
<path d="M24.4879 25.928L24.4814 27.143C24.4814 27.1578 24.4844 27.1724 24.4901 27.186C24.4957 27.1996 24.5041 27.2119 24.5146 27.2223C24.525 27.2327 24.5375 27.2409 24.5512 27.2464C24.5648 27.2519 24.5795 27.2547 24.5942 27.2545L25.1159 27.2481C25.15 27.2481 25.1693 27.231 25.1735 27.1968C25.1752 27.1823 25.1723 27.1691 25.1646 27.1571C25.1441 27.1246 25.115 27.1071 25.0774 27.1046L24.7814 27.0841C24.7232 27.0798 24.6942 27.049 24.6942 26.9918L24.6801 25.9613C24.6801 25.9512 24.6774 25.9411 24.6722 25.9321C24.6671 25.9231 24.6596 25.9155 24.6506 25.9101L24.5853 25.8729C24.5753 25.8673 24.5641 25.8643 24.5526 25.8643C24.5412 25.8642 24.53 25.8672 24.5201 25.8727C24.5103 25.8783 24.5021 25.8864 24.4964 25.8961C24.4908 25.9058 24.4878 25.9168 24.4879 25.928Z" stroke="#46628A" stroke-width="0.25633"/>
<path d="M15.3 27.1199C14.4592 26.9904 14.7527 25.6934 15.6384 26.1125C15.6871 26.1356 15.7174 26.1211 15.7294 26.0689C15.7319 26.0561 15.7319 26.0433 15.7294 26.0305C15.7234 26.0049 15.7093 25.9844 15.6871 25.969C15.5623 25.881 15.4034 25.8494 15.2103 25.8741C14.3131 25.9908 14.3952 27.4057 15.5076 27.2493C15.6708 27.2263 15.7494 27.1323 15.7435 26.9674L15.7281 26.5931C15.7255 26.5342 15.6948 26.5034 15.6358 26.5009L15.2769 26.4842C15.2462 26.4833 15.2218 26.4957 15.2039 26.5214C15.1953 26.5333 15.1906 26.5449 15.1898 26.556C15.1872 26.6183 15.2171 26.6508 15.2795 26.6534L15.4423 26.6598C15.4628 26.6605 15.4827 26.6672 15.4996 26.6791C15.5164 26.6909 15.5294 26.7073 15.5371 26.7264C15.5679 26.805 15.5704 26.8849 15.5448 26.9661C15.5291 27.017 15.4957 27.0605 15.4508 27.0887C15.4058 27.117 15.3523 27.128 15.3 27.1199Z" stroke="#46628A" stroke-width="0.25633"/>
<path d="M17.052 27.1034C17.0432 27.1034 17.0347 27.0999 17.0284 27.0936C17.0222 27.0874 17.0187 27.0789 17.0187 27.0701V25.9358C17.0188 25.9287 17.0166 25.9218 17.0124 25.916C17.0083 25.9103 17.0024 25.906 16.9956 25.9038L16.8867 25.8717C16.8818 25.8701 16.8765 25.8697 16.8714 25.8705C16.8663 25.8713 16.8614 25.8732 16.8572 25.8762C16.853 25.8792 16.8495 25.8831 16.847 25.8877C16.8446 25.8923 16.8432 25.8973 16.8431 25.9025L16.8213 27.2123C16.8211 27.2169 16.8219 27.2215 16.8236 27.2258C16.8253 27.2301 16.8278 27.234 16.831 27.2372C16.8343 27.2405 16.8382 27.243 16.8425 27.2447C16.8467 27.2464 16.8513 27.2471 16.8559 27.2469L17.5172 27.238C17.5221 27.2377 17.5269 27.2364 17.5312 27.2341C17.5356 27.2318 17.5393 27.2286 17.5423 27.2247C17.5452 27.2208 17.5472 27.2163 17.5482 27.2115C17.5492 27.2067 17.5491 27.2017 17.548 27.197L17.5301 27.129C17.5281 27.122 17.5239 27.1159 17.5181 27.1115C17.5124 27.1071 17.5053 27.1047 17.498 27.1047L17.052 27.1034Z" stroke="#46628A" stroke-width="0.25633"/>
<path d="M19.5949 26.4447C19.5962 26.2955 19.5382 26.1519 19.4336 26.0454C19.329 25.939 19.1864 25.8785 19.0372 25.8772L18.9321 25.8762C18.8582 25.8756 18.785 25.8895 18.7165 25.9172C18.6479 25.9449 18.5856 25.9858 18.5329 26.0376C18.4802 26.0894 18.4382 26.151 18.4093 26.219C18.3804 26.287 18.3652 26.3601 18.3646 26.434L18.3623 26.6954C18.361 26.8446 18.4191 26.9882 18.5236 27.0947C18.6282 27.2011 18.7708 27.2616 18.92 27.2629L19.0251 27.2639C19.099 27.2645 19.1723 27.2506 19.2408 27.2229C19.3093 27.1952 19.3717 27.1543 19.4244 27.1025C19.4771 27.0507 19.5191 26.9891 19.548 26.9211C19.5768 26.8531 19.592 26.78 19.5927 26.7061L19.5949 26.4447Z" stroke="#46628A" stroke-width="0.25633"/>
<path d="M20.7418 26.1177L20.7393 26.3741C20.7393 26.3863 20.7417 26.3985 20.7464 26.4099C20.7511 26.4212 20.758 26.4315 20.7667 26.4402C20.7753 26.4489 20.7857 26.4558 20.797 26.4605C20.8084 26.4652 20.8205 26.4676 20.8328 26.4676L20.9238 26.4689C20.9585 26.4691 20.9929 26.4639 21.0251 26.4536C21.0572 26.4433 21.0864 26.4281 21.1111 26.4088C21.1357 26.3895 21.1553 26.3665 21.1687 26.3412C21.1821 26.3159 21.189 26.2887 21.1891 26.2613V26.2356C21.1893 26.1803 21.1618 26.1271 21.1125 26.0877C21.0632 26.0483 20.9963 26.0259 20.9264 26.0255L20.8354 26.0242C20.8106 26.0242 20.7868 26.034 20.7692 26.0516C20.7517 26.0691 20.7418 26.0929 20.7418 26.1177Z" stroke="#46628A" stroke-width="0.25633"/>
<path d="M20.7444 26.7214L20.7393 27.0008C20.739 27.0138 20.7412 27.0268 20.7459 27.039C20.7507 27.0512 20.7578 27.0623 20.7668 27.0718C20.7759 27.0812 20.7867 27.0887 20.7987 27.0939C20.8107 27.0991 20.8236 27.1019 20.8367 27.102L20.9162 27.1033C21.0109 27.105 21.1022 27.0827 21.17 27.0413C21.2378 27 21.2765 26.943 21.2776 26.8829V26.8598C21.2781 26.83 21.2694 26.8003 21.252 26.7724C21.2345 26.7446 21.2086 26.7191 21.1757 26.6974C21.1429 26.6758 21.1037 26.6583 21.0605 26.6462C21.0173 26.634 20.9708 26.6273 20.9238 26.6265L20.8444 26.6253C20.8184 26.6249 20.7934 26.6348 20.7747 26.6528C20.756 26.6708 20.7451 26.6954 20.7444 26.7214Z" stroke="#46628A" stroke-width="0.25633"/>
<path d="M22.7696 26.7431L23.0208 26.7405C23.0316 26.7405 23.0421 26.7362 23.0498 26.7285C23.0575 26.7208 23.0618 26.7104 23.0618 26.6995V26.6751C23.0609 26.5561 23.0428 26.4421 23.0113 26.358C22.9799 26.2739 22.9376 26.2267 22.8939 26.2266H22.8913C22.8696 26.2265 22.8481 26.2381 22.8281 26.2608C22.8081 26.2835 22.7901 26.3167 22.7749 26.3586C22.7598 26.4005 22.7479 26.4503 22.74 26.5051C22.732 26.5598 22.7281 26.6185 22.7285 26.6777V26.7021C22.7285 26.7129 22.7329 26.7234 22.7406 26.7311C22.7483 26.7387 22.7587 26.7431 22.7696 26.7431Z" stroke="#46628A" stroke-width="0.25633"/>
<path d="M19.3836 26.4091C19.3841 26.3594 19.3749 26.3101 19.3563 26.2641C19.3378 26.218 19.3104 26.176 19.2757 26.1406C19.2409 26.1051 19.1995 26.0768 19.1539 26.0573C19.1082 26.0378 19.0591 26.0276 19.0095 26.027L18.948 26.0264C18.8983 26.0259 18.8491 26.0351 18.803 26.0537C18.7569 26.0722 18.715 26.0996 18.6795 26.1343C18.644 26.1691 18.6157 26.2105 18.5962 26.2561C18.5768 26.3018 18.5665 26.3509 18.566 26.4005L18.5625 26.7286C18.562 26.7782 18.5713 26.8275 18.5898 26.8736C18.6083 26.9196 18.6357 26.9616 18.6704 26.9971C18.7052 27.0325 18.7466 27.0608 18.7922 27.0803C18.8379 27.0998 18.887 27.1101 18.9366 27.1106L18.9981 27.1113C19.0478 27.1118 19.0971 27.1025 19.1431 27.084C19.1892 27.0655 19.2312 27.0381 19.2666 27.0033C19.3021 26.9686 19.3304 26.9272 19.3499 26.8815C19.3693 26.8358 19.3796 26.7868 19.3802 26.7371L19.3836 26.4091Z" stroke="#46628A" stroke-width="0.25633"/>
<path d="M22.8716 14.4675C22.6358 14.5017 22.4171 14.4966 22.2154 14.4521C22.1616 14.4402 22.1248 14.4086 22.1052 14.3573C21.2478 12.0567 18.0424 12.3297 17.5233 14.7187C17.5019 14.817 17.4408 14.8661 17.34 14.8661L16.8517 14.8674C16.7466 14.8674 16.7048 14.8157 16.7261 14.7123C16.9525 13.6126 17.5207 12.827 18.4307 12.3553C20.02 11.5325 21.945 12.1913 22.7358 13.7882C22.8323 13.9822 22.8981 14.18 22.9331 14.3816C22.935 14.3912 22.9348 14.4011 22.9327 14.4106C22.9305 14.4202 22.9265 14.4292 22.9207 14.4372C22.915 14.4453 22.9077 14.4521 22.8993 14.4573C22.8908 14.4624 22.8814 14.4659 22.8716 14.4675Z" fill="#8197A0"/>
<path d="M18.0515 15.9222C17.8554 15.4672 17.8388 14.8956 18.0323 14.4496C18.718 12.8757 20.9071 12.713 21.6786 14.3355C21.7196 14.421 21.6927 14.4637 21.5979 14.4637L21.0967 14.4611C21.0412 14.4603 20.9925 14.441 20.9506 14.4035C20.8686 14.3291 20.7849 14.2526 20.6994 14.174C20.3149 13.819 19.7267 13.7742 19.2909 13.9972C17.7119 14.8085 18.9654 17.159 20.5572 16.258C20.6969 16.1785 20.7955 16.0414 20.9199 15.9401C20.96 15.9077 21.0062 15.8914 21.0583 15.8914L21.5966 15.8876C21.61 15.8876 21.6232 15.8909 21.635 15.8972C21.6468 15.9035 21.6568 15.9127 21.6642 15.9239C21.6716 15.9351 21.6761 15.948 21.6772 15.9613C21.6784 15.9747 21.6762 15.9881 21.6709 16.0004C21.5795 16.2166 21.453 16.3998 21.2915 16.5502C20.2739 17.5012 18.6257 17.2526 18.0515 15.9222Z" fill="#8197A0"/>
<path d="M22.2106 15.6248C22.2123 15.6139 22.2116 15.6028 22.2085 15.5922C22.2055 15.5815 22.2002 15.5717 22.193 15.5633C22.1859 15.5549 22.177 15.5482 22.167 15.5435C22.1569 15.5389 22.146 15.5364 22.135 15.5364L21.0456 15.5377C20.9542 15.5377 20.8862 15.4979 20.8418 15.4185L20.5906 14.9622C20.5419 14.8742 20.568 14.8302 20.6688 14.8302L22.9399 14.8276C22.9704 14.8276 22.9997 14.8396 23.0215 14.8609C23.0433 14.8822 23.0558 14.9112 23.0565 14.9417C23.0847 16.1003 22.6515 17.0235 21.7569 17.7113C20.9379 18.3406 19.7101 18.4842 18.7579 18.1099C17.6497 17.6742 16.9661 16.8227 16.7072 15.5556C16.7064 15.5505 16.7085 15.5475 16.7136 15.5466C16.8837 15.5099 17.1302 15.4996 17.4531 15.5159C17.4745 15.5167 17.4882 15.5278 17.4941 15.5492C17.7787 16.5933 18.3781 17.2337 19.2923 17.4704C19.7733 17.5951 20.2518 17.564 20.7277 17.3768C21.4109 17.1077 22.0914 16.3964 22.2106 15.6248Z" fill="#8197A0"/>
<path d="M7.29486 22.9212L7.56401 22.9148C7.6785 22.9114 7.71097 22.9614 7.66142 23.0647C6.67967 25.1141 3.47939 24.208 4.0728 21.8254C4.35989 20.6757 5.67742 20.2618 6.67326 20.6578C7.12184 20.8364 7.4555 21.1726 7.67423 21.6665C7.70072 21.7263 7.6815 21.7557 7.61656 21.7549L7.22309 21.7536C7.17353 21.7528 7.13466 21.7323 7.10646 21.6921C6.70915 21.1205 6.18966 20.9039 5.54798 21.0423C4.61237 21.2448 4.21762 22.3598 4.75976 23.1404C5.35188 23.9901 6.51434 23.8773 7.07955 23.0391C7.13081 22.9631 7.20259 22.9238 7.29486 22.9212Z" fill="#FDFEFF"/>
<path d="M18.2696 21.8728C18.2607 21.2204 17.7019 20.9436 17.0764 21.0371C16.5621 21.1149 16.3023 21.4302 16.2972 21.983C16.2895 22.7289 16.2874 23.4235 16.2908 24.0669C16.2908 24.0778 16.2886 24.0886 16.2844 24.0986C16.2802 24.1087 16.2741 24.1178 16.2663 24.1254C16.2585 24.133 16.2494 24.139 16.2393 24.1431C16.2292 24.1471 16.2183 24.1491 16.2075 24.149L15.8384 24.1438C15.7828 24.143 15.7555 24.1144 15.7563 24.058C15.7717 23.4872 15.7717 22.9143 15.7563 22.3393C15.7345 21.4934 15.9524 20.7295 16.8919 20.5539C18.0351 20.3412 18.831 20.9487 18.8169 22.1163C18.8092 22.7827 18.8096 23.4223 18.8182 24.0349C18.8199 24.1092 18.7836 24.1468 18.7092 24.1477L18.3978 24.1528C18.3115 24.1537 18.2688 24.1105 18.2696 24.0234C18.2782 23.2663 18.2782 22.5495 18.2696 21.8728Z" fill="#FDFEFF"/>
<path d="M22.5312 22.7662L21.9891 22.7739C21.8609 22.7765 21.7639 22.7226 21.6982 22.6124L21.5764 22.4099C21.5157 22.3082 21.5448 22.2574 21.6636 22.2574L23.1426 22.26C23.1581 22.26 23.1731 22.2661 23.1843 22.2771C23.1955 22.2881 23.2022 22.303 23.2028 22.3189C23.2848 24.6272 19.7936 24.895 19.4566 22.656C19.1156 20.3823 22.239 19.6915 23.1105 21.6717C23.1144 21.6804 23.1159 21.69 23.1152 21.6995C23.1144 21.709 23.1112 21.7182 23.106 21.7262C23.1008 21.7342 23.0937 21.7408 23.0853 21.7454C23.0769 21.7499 23.0675 21.7524 23.058 21.7524L22.6632 21.7563C22.6334 21.7566 22.604 21.7492 22.5777 21.7349C22.5515 21.7205 22.5293 21.6996 22.5133 21.6742C22.1818 21.1513 21.6853 20.9424 21.024 21.0475C20.0564 21.2 19.6616 22.3484 20.1807 23.1161C20.7664 23.9812 22.1993 23.8441 22.6081 22.8803C22.6135 22.8677 22.6156 22.854 22.6143 22.8404C22.613 22.8268 22.6083 22.8137 22.6006 22.8024C22.593 22.791 22.5826 22.7818 22.5705 22.7755C22.5584 22.7692 22.5449 22.766 22.5312 22.7662Z" fill="#FDFEFF"/>
<path d="M30.2406 22.3894C30.2893 21.8922 30.2047 21.2488 29.66 21.0886C28.882 20.8579 28.1758 21.1283 28.1707 22.0357C28.1656 22.7765 28.1664 23.4447 28.1733 24.0402C28.1733 24.0675 28.1625 24.0937 28.1433 24.1132C28.1241 24.1326 28.098 24.1437 28.0707 24.144L27.7324 24.1466C27.6674 24.1466 27.6363 24.1145 27.6388 24.0505C27.6593 23.5737 27.6623 23.0875 27.6478 22.5919C27.6281 21.946 27.6803 21.5072 27.8042 21.2757C28.0665 20.7835 28.5146 20.5315 29.1486 20.5195C30.3444 20.4977 30.7942 21.2308 30.7686 22.2997C30.7541 22.9414 30.7541 23.522 30.7686 24.0415C30.7692 24.0554 30.7668 24.0692 30.7617 24.0822C30.7566 24.0951 30.7489 24.1068 30.739 24.1166C30.7291 24.1264 30.7173 24.134 30.7043 24.1389C30.6913 24.1438 30.6774 24.146 30.6635 24.1453L30.2918 24.1299C30.2568 24.1291 30.2393 24.1107 30.2393 24.0748L30.2457 23.038C30.2457 23.0213 30.2392 23.0053 30.2277 22.9936C30.2161 22.9818 30.2005 22.9752 30.1842 22.9752H29.1704C29.0901 22.976 29.0294 22.9414 28.9884 22.8713L28.8243 22.5932C28.7722 22.5044 28.7974 22.4604 28.9 22.4612L30.1483 22.4715C30.2047 22.4723 30.2354 22.445 30.2406 22.3894Z" fill="#FDFEFF"/>
<path d="M33.6081 20.9026C34.4438 20.1003 35.7754 20.5502 35.7652 21.8126C35.7592 22.5995 35.7562 23.3582 35.7562 24.0888C35.7562 24.1204 35.7408 24.1366 35.71 24.1375L35.3179 24.1452C35.2692 24.1469 35.2448 24.123 35.2448 24.0734C35.2448 23.3258 35.244 22.5688 35.2422 21.8023C35.2397 20.7398 33.8465 20.7757 33.8388 21.728C33.8329 22.4543 33.8324 23.2258 33.8376 24.0426C33.8376 24.0563 33.8348 24.0698 33.8296 24.0823C33.8243 24.0948 33.8166 24.1062 33.8069 24.1156C33.7972 24.1251 33.7857 24.1325 33.7732 24.1373C33.7606 24.1422 33.7472 24.1444 33.7337 24.1439L33.3877 24.1349C33.3356 24.1332 33.3095 24.1063 33.3095 24.0542C33.3095 23.3459 33.3082 22.6072 33.3057 21.8382C33.3005 20.7334 31.8997 20.7475 31.901 21.7754C31.9027 22.5589 31.901 23.3185 31.8959 24.0542C31.8959 24.1097 31.8677 24.1375 31.8113 24.1375L31.4691 24.1388C31.399 24.1396 31.3644 24.1046 31.3652 24.0337C31.3764 23.392 31.3772 22.6961 31.3678 21.9459C31.3563 21.0385 31.8074 20.4348 32.7828 20.5258C33.0775 20.554 33.3168 20.6775 33.5005 20.8962C33.507 20.9039 33.515 20.9102 33.524 20.9148C33.533 20.9193 33.5429 20.9219 33.5529 20.9225C33.563 20.9231 33.5731 20.9217 33.5826 20.9182C33.5921 20.9148 33.6008 20.9095 33.6081 20.9026Z" fill="#FDFEFF"/>
<path d="M8.9164 22.0779H10.8607C10.8715 22.0779 10.8823 22.0757 10.8924 22.0715C10.9024 22.0673 10.9115 22.0612 10.9191 22.0534C10.9268 22.0457 10.9328 22.0365 10.9368 22.0264C10.9409 22.0163 10.9429 22.0055 10.9427 21.9946L10.9312 20.6502C10.9312 20.6286 10.9396 20.6079 10.9547 20.5926C10.9698 20.5773 10.9904 20.5685 11.0119 20.5681L11.3861 20.5656C11.4079 20.5656 11.4288 20.5742 11.4441 20.5896C11.4595 20.605 11.4682 20.6258 11.4682 20.6476L11.4694 24.0657C11.4694 24.0766 11.4673 24.0874 11.4631 24.0974C11.4589 24.1075 11.4527 24.1166 11.445 24.1242C11.4372 24.1318 11.428 24.1379 11.4179 24.1419C11.4078 24.1459 11.397 24.1479 11.3861 24.1478L11.0119 24.1426C11.001 24.1426 10.9902 24.1405 10.9802 24.1363C10.9702 24.1321 10.9611 24.1259 10.9534 24.1182C10.9458 24.1104 10.9398 24.1012 10.9357 24.0911C10.9317 24.081 10.9297 24.0702 10.9299 24.0593L10.9401 22.6675C10.9401 22.6457 10.9315 22.6248 10.9161 22.6095C10.9007 22.5941 10.8799 22.5854 10.8581 22.5854L8.9164 22.5816C8.89465 22.5816 8.87378 22.5902 8.8584 22.6056C8.84302 22.621 8.83438 22.6419 8.83438 22.6636L8.84078 24.0632C8.84096 24.0742 8.83892 24.0851 8.83479 24.0953C8.83067 24.1055 8.82454 24.1147 8.81677 24.1225C8.809 24.1302 8.79975 24.1364 8.78956 24.1405C8.77937 24.1446 8.76846 24.1467 8.75748 24.1465L8.38964 24.1439C8.36789 24.1439 8.34702 24.1353 8.33164 24.1199C8.31626 24.1045 8.30762 24.0837 8.30762 24.0619V20.6476C8.30762 20.6258 8.31626 20.605 8.33164 20.5896C8.34702 20.5742 8.36789 20.5656 8.38964 20.5656L8.76004 20.563C8.77103 20.5628 8.78194 20.5649 8.79212 20.569C8.80231 20.5731 8.81156 20.5792 8.81933 20.587C8.8271 20.5948 8.83323 20.604 8.83736 20.6142C8.84148 20.6244 8.84352 20.6353 8.84335 20.6463L8.83438 21.9959C8.83438 22.0176 8.84302 22.0385 8.8584 22.0539C8.87378 22.0693 8.89465 22.0779 8.9164 22.0779Z" fill="#FDFEFF"/>
<path d="M12.6641 23.0225C12.7627 23.6069 13.4266 23.771 13.9406 23.6428C14.3755 23.5351 14.5968 23.2292 14.6045 22.7251C14.6147 22.0817 14.616 21.3828 14.6083 20.6284C14.6083 20.5856 14.6297 20.5643 14.6724 20.5643L15.0351 20.5668C15.1009 20.5668 15.1334 20.5997 15.1325 20.6655C15.1206 21.232 15.121 21.8446 15.1338 22.5034C15.1415 22.87 15.0868 23.1818 14.9698 23.439C14.6006 24.2516 13.4984 24.3669 12.7974 24.0093C12.2796 23.7453 12.0963 23.2109 12.1027 22.6149C12.1104 21.9177 12.1104 21.2589 12.1027 20.6386C12.1018 20.5882 12.1271 20.563 12.1783 20.563L12.5551 20.5668C12.5748 20.5672 12.5936 20.5752 12.6073 20.5891C12.621 20.6031 12.6285 20.6218 12.6282 20.6412C12.6265 21.2982 12.6265 21.9514 12.6282 22.6008C12.629 22.7409 12.641 22.8815 12.6641 23.0225Z" fill="#FDFEFF"/>
<path d="M23.9004 20.6502C23.9002 20.6403 23.902 20.6305 23.9057 20.6213C23.9093 20.6122 23.9148 20.6038 23.9217 20.5968C23.9286 20.5897 23.9369 20.5841 23.946 20.5803C23.9551 20.5765 23.9649 20.5745 23.9747 20.5745L25.3833 20.5681C25.8421 20.566 26.283 20.7386 26.6091 21.0481C26.9352 21.3577 27.1198 21.7787 27.1225 22.2189L27.1238 22.465C27.126 22.9054 26.9459 23.3288 26.6228 23.642C26.2998 23.9552 25.8604 24.1325 25.4012 24.135L23.9927 24.1427C23.9732 24.1427 23.9545 24.135 23.9406 24.1213C23.9267 24.1077 23.9187 24.0891 23.9183 24.0696L23.9004 20.6502ZM24.4284 21.1564L24.4413 23.5557C24.4413 23.5651 24.4431 23.5744 24.4467 23.5831C24.4503 23.5918 24.4556 23.5997 24.4623 23.6064C24.4689 23.6131 24.4769 23.6184 24.4856 23.622C24.4943 23.6256 24.5036 23.6274 24.513 23.6274L25.414 23.6223C25.7295 23.6206 26.0315 23.4977 26.2535 23.2807C26.4756 23.0637 26.5996 22.7703 26.5983 22.465V22.2266C26.5976 22.0752 26.5662 21.9253 26.5056 21.7857C26.4451 21.6461 26.3567 21.5194 26.2456 21.4128C26.1344 21.3063 26.0026 21.222 25.8577 21.1648C25.7128 21.1076 25.5577 21.0786 25.4012 21.0795L24.5002 21.0846C24.4812 21.0846 24.4629 21.0922 24.4495 21.1057C24.436 21.1191 24.4284 21.1374 24.4284 21.1564Z" fill="#FDFEFF"/>
<path d="M24.4277 21.1565C24.4277 21.1375 24.4353 21.1192 24.4488 21.1058C24.4622 21.0923 24.4805 21.0847 24.4995 21.0847L25.4005 21.0796C25.557 21.0787 25.7121 21.1077 25.857 21.1649C26.0019 21.2221 26.1337 21.3064 26.2448 21.4129C26.356 21.5195 26.4444 21.6462 26.5049 21.7858C26.5654 21.9254 26.5969 22.0753 26.5976 22.2267V22.4651C26.5989 22.7704 26.4749 23.0638 26.2528 23.2808C26.0308 23.4978 25.7288 23.6207 25.4133 23.6224L24.5123 23.6275C24.5029 23.6275 24.4936 23.6257 24.4849 23.6221C24.4761 23.6185 24.4682 23.6132 24.4616 23.6065C24.4549 23.5998 24.4496 23.5919 24.446 23.5832C24.4424 23.5745 24.4405 23.5652 24.4405 23.5558L24.4277 21.1565Z" fill="#0A2C74"/>
<path d="M26.2711 27.4571C26.2711 27.4864 26.2595 27.5144 26.2388 27.5351C26.2181 27.5558 26.1901 27.5674 26.1609 27.5674H13.5956C13.5663 27.5674 13.5383 27.5558 13.5176 27.5351C13.497 27.5144 13.4854 27.4864 13.4854 27.4571V25.691C13.4854 25.6618 13.497 25.6338 13.5176 25.6131C13.5383 25.5924 13.5663 25.5808 13.5956 25.5808H26.1609C26.1901 25.5808 26.2181 25.5924 26.2388 25.6131C26.2595 25.6338 26.2711 25.6618 26.2711 25.691V27.4571ZM21.3085 26.4229C21.4611 26.2614 21.379 25.9973 21.1817 25.9217C21.0091 25.8568 20.8296 25.8453 20.6434 25.8871C20.587 25.8991 20.5583 25.9341 20.5575 25.9922L20.5408 27.1278C20.54 27.191 20.5707 27.2282 20.6331 27.2393C20.8014 27.2692 20.9762 27.2649 21.1573 27.2264C21.4841 27.1585 21.6136 26.8009 21.3201 26.5715C21.3091 26.5629 21.2999 26.552 21.2933 26.5397C21.2867 26.5273 21.2827 26.5137 21.2817 26.4997C21.2806 26.4857 21.2824 26.4717 21.287 26.4585C21.2917 26.4452 21.299 26.4331 21.3085 26.4229ZM23.1708 26.9381C23.2144 26.997 23.2443 27.0654 23.2605 27.1431C23.2669 27.1746 23.284 27.203 23.309 27.2235C23.3339 27.244 23.3652 27.2555 23.3976 27.2559H23.4412C23.4499 27.256 23.4584 27.254 23.4661 27.2501C23.4738 27.2462 23.4805 27.2404 23.4855 27.2334C23.4906 27.2263 23.4938 27.2182 23.495 27.2096C23.4962 27.201 23.4954 27.1923 23.4925 27.1842C23.3506 26.7954 23.2011 26.3938 23.0439 25.9794C23.0148 25.9034 22.961 25.8675 22.8824 25.8717C22.8542 25.8729 22.827 25.8823 22.8042 25.8987C22.7814 25.9151 22.7641 25.9378 22.7542 25.964L22.3121 27.1419C22.2924 27.1948 22.3091 27.2299 22.3621 27.247L22.4043 27.2598C22.4172 27.264 22.431 27.2634 22.4433 27.2582C22.4556 27.253 22.4655 27.2435 22.471 27.2316L22.5966 26.9727C22.6067 26.9514 22.6223 26.9333 22.6418 26.9205C22.6612 26.9076 22.6837 26.9004 22.7068 26.8996L23.0618 26.8855C23.108 26.883 23.1443 26.9005 23.1708 26.9381ZM24.4883 25.9281L24.4819 27.1431C24.4819 27.1579 24.4848 27.1725 24.4905 27.1861C24.4962 27.1997 24.5045 27.2121 24.515 27.2224C24.5255 27.2328 24.5379 27.241 24.5516 27.2465C24.5653 27.2521 24.5799 27.2548 24.5947 27.2546L25.1163 27.2482C25.1505 27.2482 25.1697 27.2311 25.174 27.197C25.1757 27.1824 25.1727 27.1692 25.165 27.1572C25.1445 27.1248 25.1155 27.1073 25.0779 27.1047L24.7818 27.0842C24.7237 27.0799 24.6947 27.0492 24.6947 26.9919L24.6806 25.9615C24.6806 25.9513 24.6779 25.9412 24.6727 25.9323C24.6675 25.9233 24.6601 25.9157 24.6511 25.9102L24.5857 25.873C24.5758 25.8674 24.5645 25.8644 24.5531 25.8644C24.5417 25.8644 24.5305 25.8673 24.5206 25.8729C24.5107 25.8784 24.5026 25.8865 24.4969 25.8962C24.4912 25.9059 24.4883 25.9169 24.4883 25.9281ZM15.3002 27.1201C14.4594 26.9906 14.7529 25.6936 15.6385 26.1127C15.6872 26.1358 15.7176 26.1212 15.7295 26.0691C15.7321 26.0563 15.7321 26.0435 15.7295 26.0307C15.7235 26.005 15.7094 25.9845 15.6872 25.9692C15.5625 25.8811 15.4036 25.8495 15.2105 25.8743C14.3133 25.9909 14.3953 27.4059 15.5078 27.2495C15.671 27.2264 15.7496 27.1325 15.7436 26.9676L15.7282 26.5933C15.7257 26.5344 15.6949 26.5036 15.636 26.501L15.2771 26.4844C15.2463 26.4835 15.222 26.4959 15.204 26.5215C15.1955 26.5335 15.1908 26.545 15.1899 26.5561C15.1874 26.6185 15.2173 26.651 15.2797 26.6536L15.4424 26.66C15.463 26.6607 15.4829 26.6674 15.4997 26.6792C15.5166 26.6911 15.5296 26.7075 15.5373 26.7266C15.568 26.8052 15.5706 26.8851 15.545 26.9663C15.5292 27.0171 15.4959 27.0607 15.4509 27.0889C15.406 27.1171 15.3525 27.1282 15.3002 27.1201ZM17.0522 27.1034C17.0433 27.1034 17.0349 27.0999 17.0286 27.0937C17.0224 27.0874 17.0189 27.0789 17.0189 27.0701V25.9358C17.0189 25.9287 17.0167 25.9218 17.0126 25.916C17.0084 25.9103 17.0025 25.906 16.9958 25.9038L16.8868 25.8717C16.8819 25.8701 16.8767 25.8697 16.8716 25.8705C16.8665 25.8713 16.8616 25.8732 16.8574 25.8762C16.8531 25.8792 16.8497 25.8831 16.8472 25.8877C16.8448 25.8923 16.8434 25.8973 16.8433 25.9025L16.8215 27.2124C16.8213 27.2169 16.8221 27.2215 16.8238 27.2258C16.8254 27.2301 16.828 27.234 16.8312 27.2372C16.8345 27.2405 16.8384 27.243 16.8426 27.2447C16.8469 27.2464 16.8515 27.2471 16.8561 27.247L17.5174 27.238C17.5223 27.2377 17.5271 27.2364 17.5314 27.2341C17.5357 27.2318 17.5395 27.2286 17.5424 27.2247C17.5454 27.2208 17.5474 27.2163 17.5484 27.2115C17.5494 27.2067 17.5493 27.2017 17.5482 27.197L17.5302 27.129C17.5283 27.122 17.5241 27.1159 17.5183 27.1115C17.5125 27.1071 17.5055 27.1047 17.4982 27.1047L17.0522 27.1034ZM19.5948 26.4449C19.5961 26.2957 19.5381 26.152 19.4335 26.0456C19.3289 25.9392 19.1863 25.8787 19.0371 25.8774L18.932 25.8764C18.8581 25.8758 18.7848 25.8897 18.7163 25.9174C18.6478 25.9451 18.5854 25.986 18.5327 26.0378C18.48 26.0895 18.438 26.1512 18.4092 26.2192C18.3803 26.2872 18.3651 26.3603 18.3645 26.4342L18.3622 26.6956C18.3609 26.8448 18.4189 26.9884 18.5235 27.0949C18.6281 27.2013 18.7707 27.2618 18.9199 27.2631L19.025 27.2641C19.0989 27.2647 19.1722 27.2508 19.2407 27.2231C19.3092 27.1954 19.3716 27.1545 19.4243 27.1027C19.477 27.0509 19.519 26.9893 19.5478 26.9213C19.5767 26.8532 19.5919 26.7802 19.5925 26.7063L19.5948 26.4449Z" fill="#8197A0"/>
<path d="M21.3087 26.4227C21.2992 26.4329 21.2919 26.445 21.2872 26.4583C21.2826 26.4715 21.2808 26.4855 21.2819 26.4995C21.2829 26.5135 21.2869 26.5271 21.2935 26.5395C21.3001 26.5518 21.3093 26.5627 21.3203 26.5713C21.6138 26.8007 21.4843 27.1583 21.1575 27.2262C20.9764 27.2647 20.8016 27.269 20.6333 27.2391C20.5709 27.228 20.5402 27.1908 20.541 27.1276L20.5577 25.992C20.5585 25.9339 20.5872 25.8989 20.6436 25.8869C20.8298 25.8451 21.0093 25.8566 21.1819 25.9215C21.3792 25.9971 21.4613 26.2612 21.3087 26.4227ZM20.7423 26.1176L20.7397 26.3739C20.7397 26.3862 20.7421 26.3984 20.7468 26.4098C20.7515 26.4211 20.7584 26.4314 20.7671 26.4401C20.7758 26.4488 20.7861 26.4557 20.7974 26.4604C20.8088 26.4651 20.821 26.4675 20.8332 26.4675L20.9242 26.4688C20.959 26.469 20.9934 26.4638 21.0255 26.4535C21.0576 26.4432 21.0869 26.4279 21.1115 26.4087C21.1361 26.3894 21.1557 26.3664 21.1691 26.3411C21.1825 26.3158 21.1894 26.2886 21.1895 26.2612V26.2355C21.1897 26.1802 21.1622 26.127 21.1129 26.0876C21.0637 26.0482 20.9967 26.0258 20.9268 26.0253L20.8358 26.0241C20.811 26.0241 20.7872 26.0339 20.7697 26.0515C20.7521 26.069 20.7423 26.0928 20.7423 26.1176ZM20.7448 26.7213L20.7397 27.0007C20.7393 27.0137 20.7416 27.0267 20.7463 27.0389C20.7511 27.0511 20.7582 27.0622 20.7672 27.0717C20.7763 27.0811 20.7871 27.0886 20.7991 27.0938C20.8111 27.099 20.824 27.1018 20.8371 27.1019L20.9166 27.1032C21.0113 27.1049 21.1026 27.0826 21.1704 27.0412C21.2382 26.9999 21.2769 26.9429 21.278 26.8828V26.8597C21.2785 26.8299 21.2698 26.8002 21.2524 26.7723C21.2349 26.7445 21.209 26.719 21.1761 26.6973C21.1433 26.6757 21.1041 26.6582 21.0609 26.6461C21.0177 26.6339 20.9712 26.6272 20.9242 26.6264L20.8448 26.6252C20.8188 26.6248 20.7938 26.6347 20.7751 26.6527C20.7564 26.6707 20.7455 26.6953 20.7448 26.7213Z" fill="#0A2C74"/>
<path d="M23.0624 26.8855L22.7074 26.8996C22.6843 26.9003 22.6618 26.9075 22.6423 26.9204C22.6229 26.9333 22.6073 26.9513 22.5972 26.9726L22.4716 27.2315C22.4661 27.2435 22.4562 27.253 22.4439 27.2582C22.4316 27.2633 22.4178 27.2639 22.4049 27.2597L22.3626 27.2469C22.3097 27.2298 22.293 27.1948 22.3127 27.1418L22.7548 25.964C22.7646 25.9378 22.782 25.915 22.8048 25.8986C22.8276 25.8822 22.8548 25.8728 22.883 25.8717C22.9616 25.8674 23.0154 25.9033 23.0445 25.9793C23.2017 26.3937 23.3512 26.7953 23.4931 27.1841C23.4959 27.1922 23.4968 27.201 23.4956 27.2096C23.4944 27.2181 23.4911 27.2263 23.4861 27.2333C23.4811 27.2404 23.4744 27.2461 23.4667 27.25C23.459 27.2539 23.4505 27.2559 23.4418 27.2559H23.3982C23.3658 27.2554 23.3345 27.244 23.3096 27.2234C23.2846 27.2029 23.2675 27.1746 23.2611 27.1431C23.2449 27.0653 23.2149 26.997 23.1714 26.938C23.1449 26.9004 23.1086 26.8829 23.0624 26.8855ZM22.7702 26.7432L23.0214 26.7406C23.0323 26.7406 23.0427 26.7363 23.0504 26.7286C23.0581 26.7209 23.0624 26.7105 23.0624 26.6996V26.6753C23.0616 26.5563 23.0434 26.4422 23.012 26.3581C22.9805 26.2741 22.9383 26.2268 22.8945 26.2267H22.892C22.8702 26.2266 22.8487 26.2383 22.8287 26.2609C22.8088 26.2836 22.7907 26.3168 22.7756 26.3588C22.7605 26.4007 22.7486 26.4504 22.7406 26.5052C22.7327 26.5599 22.7288 26.6186 22.7292 26.6778V26.7022C22.7292 26.7131 22.7335 26.7235 22.7412 26.7312C22.7489 26.7389 22.7593 26.7432 22.7702 26.7432Z" fill="#0A2C74"/>
<path d="M24.4879 25.928C24.4878 25.9168 24.4908 25.9058 24.4964 25.8961C24.5021 25.8864 24.5103 25.8783 24.5201 25.8727C24.53 25.8672 24.5412 25.8642 24.5526 25.8643C24.5641 25.8643 24.5753 25.8673 24.5853 25.8729L24.6506 25.9101C24.6596 25.9155 24.6671 25.9231 24.6722 25.9321C24.6774 25.9411 24.6801 25.9512 24.6801 25.9613L24.6942 26.9918C24.6942 27.049 24.7232 27.0798 24.7814 27.0841L25.0774 27.1046C25.115 27.1071 25.1441 27.1246 25.1646 27.1571C25.1723 27.1691 25.1752 27.1823 25.1735 27.1968C25.1693 27.231 25.15 27.2481 25.1159 27.2481L24.5942 27.2545C24.5795 27.2547 24.5648 27.2519 24.5512 27.2464C24.5375 27.2409 24.525 27.2327 24.5146 27.2223C24.5041 27.2119 24.4957 27.1996 24.4901 27.186C24.4844 27.1724 24.4814 27.1578 24.4814 27.143L24.4879 25.928Z" fill="#0A2C74"/>
<path d="M15.6384 26.1125C14.7527 25.6934 14.4592 26.9904 15.3 27.1199C15.3523 27.128 15.4058 27.117 15.4508 27.0887C15.4957 27.0605 15.5291 27.017 15.5448 26.9661C15.5704 26.8849 15.5679 26.805 15.5371 26.7264C15.5294 26.7073 15.5164 26.6909 15.4996 26.6791C15.4827 26.6672 15.4628 26.6605 15.4423 26.6598L15.2795 26.6534C15.2171 26.6508 15.1872 26.6183 15.1898 26.556C15.1906 26.5449 15.1953 26.5333 15.2039 26.5214C15.2218 26.4957 15.2462 26.4833 15.2769 26.4842L15.6358 26.5009C15.6948 26.5034 15.7255 26.5342 15.7281 26.5931L15.7435 26.9674C15.7494 27.1323 15.6708 27.2263 15.5076 27.2493C14.3952 27.4057 14.3131 25.9908 15.2103 25.8741C15.4034 25.8494 15.5623 25.881 15.6871 25.969C15.7093 25.9844 15.7234 26.0049 15.7294 26.0305C15.7319 26.0433 15.7319 26.0561 15.7294 26.0689C15.7174 26.1211 15.6871 26.1356 15.6384 26.1125Z" fill="#0A2C74"/>
<path d="M17.052 27.1034L17.498 27.1047C17.5053 27.1047 17.5124 27.1071 17.5181 27.1115C17.5239 27.1159 17.5281 27.122 17.5301 27.129L17.548 27.197C17.5491 27.2017 17.5492 27.2067 17.5482 27.2115C17.5472 27.2163 17.5452 27.2208 17.5423 27.2247C17.5393 27.2286 17.5356 27.2318 17.5312 27.2341C17.5269 27.2364 17.5221 27.2377 17.5172 27.238L16.8559 27.2469C16.8513 27.2471 16.8467 27.2464 16.8425 27.2447C16.8382 27.243 16.8343 27.2405 16.831 27.2372C16.8278 27.234 16.8253 27.2301 16.8236 27.2258C16.8219 27.2215 16.8211 27.2169 16.8213 27.2123L16.8431 25.9025C16.8432 25.8973 16.8446 25.8923 16.847 25.8877C16.8495 25.8831 16.853 25.8792 16.8572 25.8762C16.8614 25.8732 16.8663 25.8713 16.8714 25.8705C16.8765 25.8697 16.8818 25.8701 16.8867 25.8717L16.9956 25.9038C17.0024 25.906 17.0083 25.9103 17.0124 25.916C17.0166 25.9218 17.0188 25.9287 17.0187 25.9358V27.0701C17.0187 27.0789 17.0222 27.0874 17.0284 27.0936C17.0347 27.0999 17.0432 27.1034 17.052 27.1034Z" fill="#0A2C74"/>
<path d="M19.5927 26.7061C19.592 26.78 19.5768 26.8531 19.548 26.9211C19.5191 26.9891 19.4771 27.0507 19.4244 27.1025C19.3717 27.1543 19.3093 27.1952 19.2408 27.2229C19.1723 27.2506 19.099 27.2645 19.0251 27.2639L18.92 27.2629C18.7708 27.2616 18.6282 27.2011 18.5236 27.0947C18.4191 26.9882 18.361 26.8446 18.3623 26.6954L18.3646 26.434C18.3652 26.3601 18.3804 26.287 18.4093 26.219C18.4382 26.151 18.4802 26.0894 18.5329 26.0376C18.5856 25.9858 18.6479 25.9449 18.7165 25.9172C18.785 25.8895 18.8582 25.8756 18.9321 25.8762L19.0372 25.8772C19.1864 25.8785 19.329 25.939 19.4336 26.0454C19.5382 26.1519 19.5962 26.2955 19.5949 26.4447L19.5927 26.7061ZM19.384 26.409C19.3846 26.3594 19.3753 26.3101 19.3568 26.264C19.3383 26.218 19.3109 26.176 19.2761 26.1405C19.2414 26.105 19.2 26.0768 19.1543 26.0573C19.1087 26.0378 19.0596 26.0275 19.0099 26.027L18.9484 26.0263C18.8988 26.0258 18.8495 26.0351 18.8034 26.0536C18.7574 26.0721 18.7154 26.0995 18.6799 26.1343C18.6445 26.169 18.6162 26.2104 18.5967 26.2561C18.5772 26.3017 18.5669 26.3508 18.5664 26.4004L18.563 26.7285C18.5624 26.7782 18.5717 26.8274 18.5902 26.8735C18.6087 26.9196 18.6362 26.9615 18.6709 26.997C18.7056 27.0325 18.747 27.0608 18.7927 27.0803C18.8384 27.0997 18.8874 27.11 18.9371 27.1106L18.9986 27.1112C19.0482 27.1117 19.0975 27.1025 19.1436 27.0839C19.1896 27.0654 19.2316 27.038 19.2671 27.0033C19.3026 26.9685 19.3308 26.9271 19.3503 26.8815C19.3698 26.8358 19.3801 26.7867 19.3806 26.7371L19.384 26.409Z" fill="#0A2C74"/>
<path d="M19.0099 26.0271L18.9484 26.0264C18.7396 26.0242 18.5685 26.1917 18.5664 26.4005L18.5629 26.7286C18.5607 26.9374 18.7282 27.1084 18.937 27.1106L18.9985 27.1113C19.2073 27.1135 19.3784 26.946 19.3806 26.7372L19.384 26.4091C19.3862 26.2003 19.2187 26.0293 19.0099 26.0271Z" fill="#8197A0"/>
<path d="M20.7418 26.1177C20.7418 26.0929 20.7517 26.0691 20.7692 26.0516C20.7868 26.034 20.8106 26.0242 20.8354 26.0242L20.9264 26.0255C20.9963 26.0259 21.0632 26.0483 21.1125 26.0877C21.1618 26.1271 21.1893 26.1803 21.1891 26.2356V26.2613C21.189 26.2887 21.1821 26.3159 21.1687 26.3412C21.1553 26.3665 21.1357 26.3895 21.1111 26.4088C21.0864 26.4281 21.0572 26.4433 21.0251 26.4536C20.9929 26.4639 20.9585 26.4691 20.9238 26.4689L20.8328 26.4676C20.8205 26.4676 20.8084 26.4652 20.797 26.4605C20.7857 26.4558 20.7753 26.4489 20.7667 26.4402C20.758 26.4315 20.7511 26.4212 20.7464 26.4099C20.7417 26.3985 20.7393 26.3863 20.7393 26.3741L20.7418 26.1177Z" fill="#8197A0"/>
<path d="M22.7696 26.7431C22.7587 26.7431 22.7483 26.7387 22.7406 26.7311C22.7329 26.7234 22.7285 26.7129 22.7285 26.7021V26.6777C22.7281 26.6185 22.732 26.5598 22.74 26.5051C22.7479 26.4503 22.7598 26.4005 22.7749 26.3586C22.7901 26.3167 22.8081 26.2835 22.8281 26.2608C22.8481 26.2381 22.8696 26.2265 22.8913 26.2266H22.8939C22.9376 26.2267 22.9799 26.2739 23.0113 26.358C23.0428 26.4421 23.0609 26.5561 23.0618 26.6751V26.6995C23.0618 26.7104 23.0575 26.7208 23.0498 26.7285C23.0421 26.7362 23.0316 26.7405 23.0208 26.7405L22.7696 26.7431Z" fill="#8197A0"/>
<path d="M20.7444 26.7214C20.7451 26.6954 20.756 26.6708 20.7747 26.6528C20.7934 26.6348 20.8184 26.6249 20.8444 26.6253L20.9238 26.6265C20.9708 26.6273 21.0173 26.634 21.0605 26.6462C21.1037 26.6583 21.1429 26.6758 21.1757 26.6974C21.2086 26.7191 21.2345 26.7446 21.252 26.7724C21.2694 26.8003 21.2781 26.83 21.2776 26.8598V26.8829C21.2765 26.943 21.2378 27 21.17 27.0413C21.1022 27.0827 21.0109 27.105 20.9162 27.1033L20.8367 27.102C20.8236 27.1019 20.8107 27.0991 20.7987 27.0939C20.7867 27.0887 20.7759 27.0812 20.7668 27.0718C20.7578 27.0623 20.7507 27.0512 20.7459 27.039C20.7412 27.0268 20.739 27.0138 20.7393 27.0008L20.7444 26.7214Z" fill="#8197A0"/>
<circle cx="20" cy="20" r="19.5" stroke="black" stroke-opacity="0.05"/>
</svg>
