<svg width="40" height="40" viewBox="0 0 40 40" fill="none" xmlns="http://www.w3.org/2000/svg">
<circle cx="20" cy="20" r="20" fill="#F6F8FA"/>
<g clip-path="url(#clip0_18005_40019)">
<path d="M32.9369 23.5293C34.0632 23.4603 34.9641 22.5604 35.0352 21.4352V17H7.14863C6.01826 17.062 5.11336 17.9597 5.03516 19.085V23.5293H32.9369Z" fill="#A32B58"/>
<path d="M31.6157 20.0418C31.5975 20.0418 30.526 20.0429 30.5199 20.0429C30.4234 20.0429 30.4082 20.1007 30.4082 20.1708C30.4082 20.3008 30.7576 20.4623 30.9008 20.4623H31.1628C31.2318 20.4714 31.244 20.5232 31.244 20.5527V20.964C31.244 20.9965 31.2298 21.0564 31.1414 21.0564H30.1888C30.1157 21.0524 30.0141 21.0006 30.009 20.9417C30.009 20.7853 30.009 19.8539 30.009 19.5269C30.0151 19.465 30.1258 19.4111 30.2 19.4111C30.524 19.4111 31.3761 19.4111 31.3761 19.4111C31.5203 19.4111 31.8686 19.2486 31.8686 19.1197C31.8686 19.0496 31.8534 18.9917 31.7569 18.9917H29.8811C29.8811 18.9917 29.873 18.9917 29.8699 18.9917C29.679 18.9968 29.3418 19.1684 29.3418 19.3319V21.1367C29.3418 21.3002 29.679 21.4718 29.8699 21.4769C29.874 21.4769 31.5446 21.4759 31.6168 21.4759C31.7975 21.4759 31.9123 21.3377 31.9123 21.1712V20.3455C31.9123 20.1789 31.7975 20.0408 31.6168 20.0408L31.6157 20.0418Z" fill="white"/>
<path d="M12.7892 19.076C12.7749 19.0425 12.7272 18.9846 12.6389 18.9846H12.0417C11.9543 18.9846 11.9066 19.0425 11.8914 19.076C11.5979 19.727 10.8656 21.3835 10.8656 21.3835C10.829 21.4505 10.8321 21.4982 10.9438 21.4952C11.0819 21.4922 11.5156 21.3571 11.6009 21.156C11.6161 21.1204 11.6476 21.0473 11.6913 20.9488H12.9892C13.0329 21.0473 13.0644 21.1204 13.0796 21.156C13.1659 21.3571 13.5986 21.4922 13.7377 21.4952C13.8495 21.4982 13.8525 21.4515 13.8149 21.3835C13.8149 21.3835 13.0817 19.727 12.7892 19.076ZM11.8741 20.5365C12.0173 20.2145 12.191 19.8235 12.3403 19.4884C12.4896 19.8235 12.6642 20.2145 12.8074 20.5365H11.8741Z" fill="white"/>
<path d="M16.8286 18.9531C16.9617 18.9124 17.5609 19.0617 17.7061 19.2242C17.8097 19.341 17.9935 19.5442 18.2454 19.8184C18.4963 19.5442 18.6801 19.34 18.7847 19.2242C18.9289 19.0617 19.5291 18.9114 19.6622 18.9531C19.7688 18.9856 19.7566 19.0313 19.6998 19.0841C19.6998 19.0841 19.066 19.7838 18.5826 20.3079V21.2382C18.5826 21.4047 18.1906 21.5774 18.0433 21.5774C17.9326 21.5774 17.9143 21.5266 17.9143 21.4657V20.313C17.9143 20.313 17.9113 20.3109 17.9103 20.3089C17.4268 19.7849 16.7911 19.0831 16.7911 19.0831C16.7352 19.0313 16.723 18.9856 16.8297 18.9521L16.8286 18.9531Z" fill="white"/>
<path d="M16.1396 21.0584C16.1396 21.0584 15.1413 21.0584 14.9676 21.0584C14.8935 21.0584 14.7828 21.0045 14.7767 20.9426V20.4175H15.7892C15.9324 20.4175 16.2818 20.256 16.2818 20.125C16.2818 20.055 16.2666 19.9971 16.1701 19.9971H14.7757V19.8082V19.5238C14.7817 19.4618 14.8924 19.408 14.9666 19.408C15.2906 19.408 15.9527 19.408 15.9527 19.408C16.097 19.408 16.4463 19.2455 16.4463 19.1165C16.4463 19.0465 16.4321 18.9875 16.3346 18.9875C16.2716 18.9875 14.6416 18.9875 14.6375 18.9875C14.4466 18.9926 14.1084 19.1643 14.1084 19.3278V21.1366C14.1084 21.3001 14.4466 21.4717 14.6375 21.4768C14.7889 21.4778 16.423 21.4778 16.5205 21.4778C16.618 21.4778 16.6322 21.4199 16.6322 21.3498C16.6322 21.2199 16.2818 21.0574 16.1386 21.0574L16.1396 21.0584Z" fill="white"/>
<path d="M8.16016 19.1165C8.16016 19.0464 8.17641 18.9885 8.27187 18.9885H11.1206C11.2171 18.9885 11.2334 19.0464 11.2334 19.1165C11.2334 19.2465 10.883 19.408 10.7398 19.408H10.0309V21.2381C10.0309 21.4047 9.63786 21.5773 9.49162 21.5773C9.38092 21.5773 9.36365 21.5265 9.36365 21.4656V19.408H8.65476C8.51156 19.408 8.16117 19.2455 8.16117 19.1165H8.16016Z" fill="white"/>
<path d="M25.5931 18.9885C25.4458 18.9885 25.0538 19.1612 25.0538 19.3277V20.9446C25.0477 21.0065 24.937 21.0604 24.8629 21.0604C24.5399 21.0604 24.2088 21.0583 24.2088 21.0583C23.9905 21.0583 23.8148 20.8816 23.8148 20.6643V19.1002C23.8148 19.0393 23.7965 18.9885 23.6858 18.9885C23.5385 18.9885 23.1465 19.1612 23.1465 19.3277C23.1465 19.3277 23.1465 20.6541 23.1465 20.6622C23.1465 20.6663 23.1465 20.6683 23.1465 20.6694H23.1485C23.1638 21.1111 23.5212 21.4666 23.9651 21.4788C23.9701 21.4788 25.1777 21.4818 25.1828 21.4818C25.1858 21.4818 25.1899 21.4818 25.1929 21.4818C25.3859 21.4768 25.7221 21.3051 25.7221 21.1416V19.1033C25.7221 19.0424 25.7048 18.9916 25.5941 18.9916L25.5931 18.9885Z" fill="white"/>
<path d="M28.8186 19.7574C28.7821 19.336 28.4327 19.0028 28.0031 18.9927C27.998 18.9927 26.7793 18.9927 26.7752 18.9927C26.5843 18.9978 26.2461 19.1694 26.2461 19.3329V21.3712C26.2461 21.4322 26.2644 21.4829 26.3751 21.4829C26.5213 21.4829 26.9144 21.3103 26.9144 21.1437V19.5279C26.9215 19.4659 27.0312 19.4121 27.1053 19.4121C27.4283 19.4121 27.7593 19.4121 27.7593 19.4121C27.9767 19.4121 28.1534 19.5888 28.1534 19.8052V21.3702C28.1534 21.4311 28.1707 21.4819 28.2824 21.4819C28.4296 21.4819 28.8217 21.3093 28.8217 21.1427C28.8217 21.1427 28.8217 19.7564 28.8217 19.7554H28.8186V19.7574Z" fill="white"/>
<path d="M21.8088 18.9906C21.8037 18.9906 20.585 18.9885 20.5799 18.9885C20.389 18.9936 20.0508 19.1663 20.0508 19.3298C20.0508 19.3298 20.0528 20.7019 20.0548 20.714C20.0924 21.1355 20.4408 21.4676 20.8704 21.4788C20.8755 21.4788 22.0942 21.4808 22.0982 21.4808C22.2892 21.4757 22.6274 21.3041 22.6274 21.1406V20.4358C22.6274 20.4358 22.6264 19.7685 22.6233 19.7573C22.5857 19.3359 22.2364 19.0038 21.8078 18.9926L21.8088 18.9906ZM21.7692 21.0604C21.4462 21.0604 21.1141 21.0583 21.1141 21.0583C20.8968 21.0583 20.7201 20.8816 20.7201 20.6643C20.7201 20.6643 20.7201 19.8975 20.7201 19.7289V19.5238C20.7262 19.4618 20.8369 19.408 20.911 19.408C21.234 19.408 21.565 19.41 21.565 19.41C21.7824 19.41 21.9591 19.5867 21.9591 19.8041V20.7394V20.9446C21.953 21.0065 21.8423 21.0604 21.7682 21.0604H21.7692Z" fill="white"/>
</g>
<circle cx="20" cy="20" r="19.5" stroke="black" stroke-opacity="0.05"/>
<defs>
<clipPath id="clip0_18005_40019">
<rect width="30" height="6.52933" fill="white" transform="translate(5.03516 17)"/>
</clipPath>
</defs>
</svg>
