<svg width="40" height="40" viewBox="0 0 40 40" fill="none" xmlns="http://www.w3.org/2000/svg">
<circle cx="20" cy="20" r="20" fill="#5595FF"/>
<path d="M19.8382 8H20.1438C21.3184 8.15455 22.0736 8.77768 22.4094 9.86939C22.597 10.4764 22.4926 11.2498 22.1438 11.8052C21.6724 12.5569 21.0159 12.971 20.1743 13.0476C17.7064 13.2731 16.483 10.1265 18.3755 8.58484C18.7844 8.25185 19.2719 8.0569 19.8382 8Z" fill="white"/>
<path d="M13.0322 13.6978C13.5707 12.702 14.6497 12.2046 15.771 12.4111C16.0506 12.4624 16.3821 12.6113 16.7657 12.8579C17.8518 13.5555 18.9087 14.225 19.9365 14.8664C19.9441 14.8713 19.9504 14.878 19.9547 14.8859C19.9591 14.8938 19.9614 14.9027 19.9614 14.9117C19.9614 14.9207 19.9591 14.9296 19.9547 14.9376C19.9504 14.9455 19.9441 14.9522 19.9365 14.957C18.8863 15.6202 17.8205 16.2946 16.7394 16.9803C15.8121 17.5683 14.7393 17.6199 13.8141 16.9919C12.7877 16.2953 12.4368 14.799 13.0322 13.6978Z" fill="white"/>
<path d="M27.2556 14.7854C27.3304 15.8265 26.6982 16.7991 25.7498 17.227C24.8499 17.6327 23.9847 17.4388 23.1765 16.9203C22.1599 16.2684 21.1206 15.6115 20.0584 14.9498C20.0183 14.9245 20.0183 14.8995 20.0584 14.8749C21.1894 14.1731 22.3075 13.4646 23.4125 12.7495C24.1649 12.2626 25.1491 12.2363 25.91 12.6578C26.7389 13.1172 27.1875 13.8264 27.2556 14.7854Z" fill="white"/>
<path d="M8 19.9803V19.4566C8.17633 18.4787 8.7127 17.8085 9.60911 17.446C10.1585 17.224 10.6938 17.1927 11.2151 17.3522C11.5073 17.4421 11.8329 17.603 12.1919 17.8348C13.1944 18.4818 14.1909 19.1127 15.1815 19.7274C15.1908 19.7333 15.1985 19.7414 15.2039 19.7511C15.2092 19.7608 15.212 19.7717 15.212 19.7827C15.212 19.7938 15.2092 19.8047 15.2039 19.8143C15.1985 19.824 15.1908 19.8322 15.1815 19.838C14.2232 20.4352 13.2028 21.0819 12.1203 21.778C11.7437 22.0204 11.3942 22.175 11.0717 22.2417C9.50584 22.5663 8.18441 21.5673 8 19.9803Z" fill="white"/>
<path d="M20.653 17.3259C20.9217 17.3944 21.2073 17.5398 21.4391 17.6873C22.4514 18.3329 23.5319 19.0172 24.6805 19.7401C24.6879 19.7447 24.694 19.7512 24.6983 19.7588C24.7025 19.7665 24.7047 19.7751 24.7047 19.7838C24.7047 19.7925 24.7025 19.8011 24.6983 19.8088C24.694 19.8164 24.6879 19.8229 24.6805 19.8275C23.6977 20.4394 22.677 21.0882 21.6183 21.7739C21.2213 22.0317 20.8687 22.195 20.5603 22.2639C19.869 22.4191 19.2114 22.2958 18.5876 21.894C17.5514 21.2266 16.4597 20.5332 15.3125 19.8138C15.3068 19.8103 15.3021 19.8055 15.2989 19.7997C15.2956 19.7938 15.2939 19.7873 15.2939 19.7806C15.2939 19.774 15.2956 19.7674 15.2989 19.7616C15.3021 19.7558 15.3068 19.7509 15.3125 19.7475C16.2637 19.163 17.2943 18.5093 18.4043 17.7864C18.8012 17.5272 19.1331 17.3687 19.4001 17.3111C19.8286 17.2191 20.2462 17.224 20.653 17.3259Z" fill="white"/>
<path d="M30.7964 17.6367C31.5826 18.1334 31.9837 18.8657 31.9999 19.8338C32.0146 20.6789 31.4814 21.5588 30.7374 21.9708C29.834 22.4703 28.9278 22.431 28.0187 21.8528C26.9867 21.196 25.914 20.517 24.8005 19.8159C24.7955 19.8126 24.7914 19.8082 24.7885 19.8029C24.7857 19.7977 24.7842 19.7918 24.7842 19.7858C24.7842 19.7799 24.7857 19.774 24.7885 19.7688C24.7914 19.7635 24.7955 19.7591 24.8005 19.7558C25.9695 19.009 27.1082 18.2897 28.2168 17.5977C28.9734 17.1256 30.0261 17.1509 30.7964 17.6367Z" fill="white"/>
<path d="M12.8472 25.3389C12.4446 23.9037 13.2539 22.4716 14.7102 22.1491C15.4595 21.9826 16.1076 22.1512 16.7556 22.5685C17.8677 23.2844 18.9148 23.9479 19.8969 24.5591C19.9087 24.5665 19.9184 24.5768 19.9251 24.5889C19.9318 24.6011 19.9353 24.6148 19.9353 24.6287C19.9353 24.6426 19.9318 24.6562 19.9251 24.6684C19.9184 24.6805 19.9087 24.6908 19.8969 24.6982C18.8727 25.3487 17.8115 26.02 16.7135 26.712C15.2519 27.633 13.3309 27.0618 12.8472 25.3389Z" fill="white"/>
<path d="M26.2822 26.6171C25.3949 27.3242 24.2442 27.3189 23.279 26.7035C22.1964 26.0136 21.137 25.3431 20.1008 24.6919C20.0906 24.6854 20.0821 24.6765 20.0763 24.6659C20.0704 24.6553 20.0674 24.6434 20.0674 24.6313C20.0674 24.6192 20.0704 24.6073 20.0763 24.5967C20.0821 24.5861 20.0906 24.5771 20.1008 24.5707C21.1166 23.9356 22.1567 23.2756 23.221 22.5906C23.6158 22.337 23.9442 22.1853 24.2063 22.1354C24.7543 22.0321 25.3697 22.0912 25.8639 22.3546C27.5088 23.2303 27.7817 25.4242 26.2822 26.6171Z" fill="white"/>
<path d="M19.9786 31.2136C21.3707 31.2136 22.4993 30.0851 22.4993 28.693C22.4993 27.3009 21.3707 26.1724 19.9786 26.1724C18.5865 26.1724 17.458 27.3009 17.458 28.693C17.458 30.0851 18.5865 31.2136 19.9786 31.2136Z" fill="white"/>
<circle cx="20" cy="20" r="19.5" stroke="black" stroke-opacity="0.05"/>
</svg>
