<svg width="40" height="40" viewBox="0 0 40 40" fill="none" xmlns="http://www.w3.org/2000/svg">
<circle cx="20" cy="20" r="20" fill="#F6F8FA"/>
<g clip-path="url(#clip0_16525_14414)">
<path d="M12.9368 20.2785C12.1307 19.8784 11.4345 19.5341 11.4345 18.9066C11.4345 18.1867 12.125 18.0792 12.5376 18.0792C13.2176 18.0792 13.932 18.2688 14.6598 18.6415L14.8852 18.7575V16.8941L14.8002 16.8516C14.1937 16.5516 13.3485 16.3799 12.4822 16.3799C10.3218 16.3799 9.3381 17.7612 9.3381 19.0444C9.3381 20.6776 10.615 21.3201 11.7411 21.8862C12.5873 22.3118 13.3188 22.6797 13.3188 23.3779C13.3188 24.2346 12.2606 24.3016 11.9369 24.3016C11.2301 24.3016 10.5596 24.0875 9.94361 23.6666L9.79844 23.5676L9 25.1102L9.10983 25.1867C9.85766 25.7037 10.9035 26.0009 11.9779 26.0009C14.0342 26.0009 15.4152 24.8913 15.4152 23.2402C15.4152 21.5079 14.0409 20.8267 12.9368 20.2794V20.2785Z" fill="#083B1E"/>
<path d="M22.1027 16.4629L20.0445 20.3304L17.9729 16.4629H15.7715L19.0245 22.1485V25.8622H21.0234V22.1617L24.2764 16.4629H22.1027Z" fill="#083B1E"/>
<path d="M30.3142 17.8529C30.3333 17.9199 30.2655 17.9774 30.2015 17.95H30.1996C29.9972 17.8604 29.7928 17.7774 29.5836 17.7047C29.1624 17.5585 28.7231 17.4566 28.2752 17.4462C27.8034 17.4339 27.3229 17.5651 26.854 17.4821C26.3688 17.3953 25.9639 17.0811 25.6707 16.7008C25.4902 16.4659 25.3459 16.2074 25.2199 15.9404C25.1568 15.8064 25.0986 15.6705 25.0422 15.5337C25.0117 15.4582 24.9811 15.3827 24.9515 15.3073C24.9419 15.2837 24.9582 15.2573 24.984 15.2554C25.4252 15.2289 25.8655 15.2657 26.2915 15.3648C26.7824 15.479 27.2542 15.6743 27.6954 15.9338C27.916 16.063 28.129 16.2074 28.3382 16.3602C28.4442 16.4385 28.5474 16.5197 28.6495 16.6027C28.6935 16.6376 28.7508 16.5801 28.7135 16.5376L28.7107 16.5348L28.6467 16.4583C28.6257 16.4329 28.6037 16.4083 28.5808 16.3838L28.4452 16.2385C28.2589 16.0498 28.0555 15.8743 27.8377 15.7167C27.4022 15.4026 26.8989 15.1667 26.366 15.044C26.2819 15.0242 26.196 15.0072 26.111 14.994C26.0661 14.9865 26.0708 14.9214 26.1157 14.9204C26.1176 14.9204 26.1186 14.9204 26.1205 14.9204C26.5388 14.9119 26.9591 14.9582 27.364 15.0619C28.2341 15.2856 29.0077 15.8045 29.5664 16.498C29.8825 16.8895 30.127 17.332 30.297 17.8038C30.2999 17.8114 30.3047 17.8293 30.3123 17.8548L30.3142 17.8529Z" fill="#F0831F"/>
<path d="M24.305 14.2713C24.4692 14.528 24.58 14.8204 24.7481 15.0724C24.7796 15.1205 24.7386 15.1828 24.6813 15.1733C24.4549 15.1356 24.2314 15.0846 24.0156 15.0073C23.5629 14.8469 23.1398 14.561 22.9125 14.1317C22.6918 13.7175 22.6747 13.2287 22.5218 12.79C22.3776 12.3739 22.1484 11.9927 21.8819 11.6417C21.7501 11.4672 21.6078 11.3011 21.4627 11.1379C21.4235 11.0936 21.3834 11.0502 21.3442 11.0068C21.4397 11.0049 21.5534 11.0002 21.5744 11.0011C22.0777 11.02 22.5763 11.1172 23.0462 11.2955C23.879 11.6116 24.6087 12.1824 25.0834 12.9306C25.1932 13.1051 25.2916 13.2872 25.3766 13.475C25.3928 13.5108 25.3536 13.5458 25.3193 13.5269C24.8646 13.2759 24.2706 13.1259 23.8456 13.2108C23.5906 13.2618 23.305 13.4486 23.3098 13.6854C23.3098 13.726 23.3499 13.7543 23.39 13.7467C23.7491 13.6826 24.1054 13.96 24.3069 14.2723L24.305 14.2713Z" fill="#4A8638"/>
<path d="M34.9513 13.956C35.041 14.0324 35 14.1768 34.8834 14.1966H34.8806C34.5119 14.2589 34.1442 14.3306 33.7813 14.4212C33.0497 14.6042 32.3344 14.8665 31.6935 15.2647C31.0173 15.6836 30.4653 16.311 29.726 16.6271C28.961 16.9536 28.0919 16.8847 27.3202 16.6205C26.8436 16.4573 26.3947 16.2252 25.965 15.9657C25.7491 15.8355 25.538 15.6978 25.3289 15.5562C25.2143 15.4779 25.1006 15.3996 24.987 15.3203C24.9516 15.2958 24.9488 15.2439 24.9841 15.2175C25.5801 14.7731 26.2362 14.4183 26.9296 14.1636C27.729 13.8711 28.579 13.7107 29.4453 13.6682C29.8779 13.6465 30.3144 13.6522 30.7547 13.6758C30.9772 13.6881 31.1997 13.7079 31.4232 13.7296C31.5178 13.739 31.5436 13.6041 31.4519 13.5786L31.4452 13.5767L31.2838 13.5286C31.2303 13.5126 31.1758 13.4975 31.1214 13.4843L30.7929 13.406C30.3516 13.3125 29.8999 13.2531 29.4443 13.2323C28.5332 13.1927 27.602 13.3248 26.7348 13.6437C26.5972 13.6937 26.4616 13.7494 26.3279 13.8088C26.2572 13.84 26.2018 13.7437 26.2649 13.7003C26.2668 13.6994 26.2687 13.6975 26.2706 13.6966C26.8513 13.2984 27.4883 12.9757 28.1569 12.7483C29.5933 12.2605 31.1758 12.2756 32.6171 12.737C33.4327 12.9974 34.1958 13.3937 34.8825 13.9004C34.893 13.9079 34.9178 13.9296 34.9522 13.9579L34.9513 13.956Z" fill="url(#paint0_linear_16525_14414)"/>
</g>
<circle cx="20" cy="20" r="19.5" stroke="black" stroke-opacity="0.05"/>
<defs>
<linearGradient id="paint0_linear_16525_14414" x1="34.1059" y1="13.6075" x2="25.8967" y2="15.3703" gradientUnits="userSpaceOnUse">
<stop stop-color="#9DC815"/>
<stop offset="0.16" stop-color="#93C118"/>
<stop offset="0.42" stop-color="#7AAF20"/>
<stop offset="0.75" stop-color="#52932E"/>
<stop offset="1" stop-color="#2F7A3A"/>
</linearGradient>
<clipPath id="clip0_16525_14414">
<rect width="26" height="15" fill="white" transform="translate(9 11)"/>
</clipPath>
</defs>
</svg>
