<svg width="40" height="40" viewBox="0 0 40 40" fill="none" xmlns="http://www.w3.org/2000/svg">
<circle cx="20" cy="20" r="20" fill="#004889"/>
<circle cx="20" cy="20" r="19.5" stroke="black" stroke-opacity="0.05"/>
<path d="M10 25.6107L19.6018 31.2302V25.3452L15 22.6461V17.2921L10 14.416V25.6107Z" fill="white"/>
<path d="M25.0002 17.2922V22.6462L20.3984 25.3453V31.2302L30.0002 25.5665V14.3718L25.0002 17.2922Z" fill="white"/>
<path d="M10.354 13.6637L15.354 16.5841L20 13.885L24.6018 16.5841L29.646 13.6637L20 8L10.354 13.6637Z" fill="white"/>
<path d="M10 13.885V14.0178L19.9115 19.77V31.3186H20.0885V19.77L30 14.0178V13.9293L29.9115 13.885L20 19.593L10.0442 13.885H10Z" fill="white"/>
</svg>
