<svg width="40" height="40" viewBox="0 0 40 40" fill="none" xmlns="http://www.w3.org/2000/svg">
<circle cx="20" cy="20" r="20" fill="#F6F8FA"/>
<g clip-path="url(#clip0_46604_83235)">
<path d="M26.5431 13.0127C26.3777 13.0127 26.2281 13.0049 26.0785 12.9972C25.984 12.9972 25.9132 12.9505 25.8659 12.8728C25.8029 12.7562 25.7242 12.6241 25.6376 12.4687L24.551 10.5956C24.5195 10.5412 24.5195 10.4713 24.551 10.4169C24.9683 9.70182 25.4014 8.95571 25.8581 8.16296C25.921 8.04638 26.0155 7.99198 26.1336 7.99975C26.3226 8.00752 27.173 8.0153 28.6612 7.99975C28.8029 7.99975 28.8974 8.03861 28.9447 8.1241C29.3777 8.87799 29.8187 9.64742 30.2832 10.4324C30.3069 10.4713 30.3069 10.5257 30.2832 10.5645C29.6612 11.6293 29.2203 12.3754 28.9762 12.8029C28.9053 12.935 28.8581 12.9972 28.6927 12.9972C27.9683 12.9972 27.2518 12.9972 26.5431 12.9972V13.0127ZM25.7478 10.5101V10.549C26.2045 11.3417 26.4644 11.7847 26.5116 11.878C26.5431 11.9324 26.6061 11.9713 26.6691 11.9713H27.4014C27.8817 11.9713 28.1258 11.9713 28.1336 11.9713C28.1966 11.9713 28.2596 11.9324 28.2911 11.878C28.3462 11.7847 28.5982 11.3417 29.0549 10.549C29.0549 10.549 29.0549 10.5257 29.0549 10.5023C29.0549 10.479 29.0549 10.4713 29.0549 10.4635C28.5982 9.67074 28.3384 9.22773 28.2911 9.13447C28.2596 9.08006 28.1966 9.0412 28.1336 9.0412H26.6691C26.6061 9.0412 26.5431 9.08006 26.5116 9.13447C26.4565 9.22773 26.2045 9.67074 25.7478 10.4635C25.7478 10.4635 25.7478 10.4868 25.7478 10.5023V10.5101Z" fill="#70C4EB"/>
<path d="M25.6304 12.4685C25.717 12.6239 25.7958 12.7638 25.8588 12.8726C25.906 12.9503 25.9769 12.997 26.0714 12.997C26.221 12.997 26.3784 12.997 26.5359 13.0125L25.2052 15.2742C25.1737 15.3208 25.1737 15.3752 25.2052 15.4296L27.3784 19.1524C27.4178 19.2146 27.4887 19.2612 27.5595 19.2612L28.654 19.2768C28.6147 19.4089 28.5438 19.5332 28.4414 19.6576C28.3863 19.7198 28.3863 19.813 28.4414 19.883C28.528 19.9995 28.5753 20.1317 28.591 20.2871C28.1265 20.3104 27.8115 20.3104 27.6383 20.2949C27.4808 20.2793 27.4257 20.3337 27.3469 20.4736C26.5517 21.8337 25.843 23.054 25.2131 24.1265C25.1895 24.1654 25.1895 24.2198 25.2131 24.2586L27.5674 28.2768C27.591 28.3156 27.6383 28.3467 27.6855 28.3467H29.0477C29.1107 28.3467 29.1737 28.3778 29.2052 28.4322L30.1658 30.0799C30.1973 30.1343 30.1973 30.2042 30.1658 30.2586L29.2131 31.8907C29.1737 31.9607 29.1028 31.9995 29.0241 31.9995H27.0714C27.0241 31.9995 26.9769 31.9762 26.9532 31.9374L25.969 30.2508C25.9454 30.2042 25.9454 30.1498 25.969 30.1032L26.6462 28.9451C26.6698 28.8985 26.6698 28.8519 26.6462 28.8053L24.3154 24.826C24.2918 24.7871 24.2446 24.756 24.1973 24.756H19.7328C19.6698 24.756 19.6068 24.7949 19.5753 24.8493L18.6147 26.4892C18.6147 26.4892 18.591 26.5669 18.6147 26.598L19.9375 28.8597C19.969 28.9141 19.969 28.984 19.9375 29.0384L18.3548 31.7431C18.3154 31.8052 18.2525 31.8441 18.1737 31.8441H14.9926C14.8981 31.8441 14.8115 31.7975 14.7643 31.712C14.1737 30.6861 13.6619 29.8078 13.221 29.0773C13.1737 28.9918 13.1658 28.9063 13.221 28.8208C13.7879 27.8415 14.3154 26.94 14.7958 26.1161C14.8351 26.054 14.8981 26.0151 14.969 26.0151H17.5595C17.6147 26.0151 17.6619 25.984 17.6934 25.9374L18.7013 24.212C18.7013 24.212 18.7091 24.1809 18.7013 24.1654L16.4887 20.3882C16.4572 20.326 16.3942 20.2949 16.3233 20.2949L13.0871 20.2793V20.256C13.0871 20.256 13.0871 20.2249 13.0871 20.2094L13.2839 19.8752C13.3233 19.813 13.3233 19.7353 13.2839 19.6731L13.0635 19.2612C14.1343 19.2612 15.1816 19.2612 16.221 19.2534C16.4021 19.2534 16.4414 19.2379 16.5359 19.0747C17.3627 17.6524 18.0792 16.4244 18.6777 15.3985C18.7013 15.3674 18.7013 15.3208 18.6777 15.2897L17.5517 13.37C17.5202 13.3156 17.4651 13.2845 17.4021 13.2845C16.9296 13.2845 16.4729 13.2845 16.0399 13.2845C15.969 13.2845 15.8981 13.2301 15.843 13.1135C15.7643 12.9659 15.4651 12.4529 14.9454 11.5669C14.8981 11.4892 14.8981 11.3959 14.9454 11.326L15.8902 9.70939C15.9296 9.63945 16.0005 9.60059 16.0792 9.60059H18.0399C18.0792 9.60059 18.1186 9.6239 18.1422 9.65499L19.1265 11.3648C19.1265 11.3648 19.1422 11.4037 19.1422 11.4192C19.1422 11.4814 19.1186 11.5514 19.0714 11.6291C18.9375 11.8467 18.7328 12.1887 18.4729 12.6472C18.4178 12.7483 18.4729 12.8337 18.528 12.927C18.9139 13.5876 19.2603 14.1705 19.5674 14.699C19.6068 14.769 19.6776 14.8078 19.7564 14.8078H24.1343C24.1895 14.8078 24.2367 14.7768 24.2603 14.7379L25.6068 12.4529L25.6304 12.4685ZM16.6068 10.6964C16.6068 10.6964 16.4887 10.8363 16.3548 11.0617C16.221 11.2871 16.158 11.4192 16.158 11.4581C16.158 11.497 16.221 11.6291 16.3548 11.8545C16.4887 12.0799 16.5674 12.2042 16.5989 12.2198C16.6304 12.2431 16.78 12.2508 17.0399 12.2508C17.2997 12.2508 17.4493 12.2431 17.4887 12.2198C17.5202 12.1964 17.6068 12.0799 17.7406 11.8545C17.8745 11.6291 17.9375 11.497 17.9375 11.4581C17.9375 11.4192 17.8745 11.2871 17.7406 11.0617C17.6147 10.8363 17.528 10.712 17.4965 10.6964C17.4651 10.6731 17.3154 10.6654 17.0556 10.6654C16.7958 10.6654 16.6462 10.6731 16.6068 10.6964ZM19.6698 15.8726C19.6698 15.8726 19.6147 15.9192 19.591 15.9503C19.2288 16.5721 18.8745 17.1938 18.5123 17.8078C18.1501 18.4296 17.7879 19.0436 17.4178 19.6654C17.3942 19.7042 17.3863 19.7353 17.3863 19.7742C17.3863 19.813 17.3942 19.8441 17.4178 19.883C17.78 20.497 18.1422 21.1187 18.5044 21.7405C18.8666 22.3622 19.2288 22.9762 19.5832 23.598C19.6068 23.6369 19.6304 23.6602 19.6619 23.6757C19.6934 23.6913 19.7328 23.699 19.7721 23.699C20.4965 23.699 21.221 23.699 21.9454 23.699C22.6698 23.699 23.3942 23.699 24.1186 23.699C24.158 23.699 24.1973 23.6913 24.2288 23.6757C24.2603 23.6602 24.2839 23.6291 24.3076 23.598C24.6698 22.9762 25.0241 22.3545 25.3863 21.7405C25.7485 21.1187 26.1107 20.5047 26.4808 19.883C26.5044 19.8441 26.5123 19.813 26.5123 19.7742C26.5123 19.7353 26.5044 19.7042 26.4808 19.6654C26.1186 19.0514 25.7485 18.4296 25.3942 17.8078C25.032 17.1861 24.6698 16.5721 24.3154 15.9503C24.2918 15.9115 24.2682 15.8882 24.2367 15.8726C24.2052 15.8571 24.1658 15.8493 24.1265 15.8493C23.4021 15.8493 22.6777 15.8493 21.9532 15.8493C21.2288 15.8493 20.5044 15.8493 19.78 15.8493C19.7406 15.8493 19.7013 15.8571 19.6698 15.8726ZM15.4965 27.0954C15.4965 27.0954 15.4257 27.1498 15.4021 27.1964C15.2525 27.4685 15.095 27.7405 14.9375 28.0125C14.78 28.2845 14.6225 28.5488 14.4572 28.8208C14.4336 28.8597 14.4178 28.9063 14.4178 28.9529C14.4178 28.9995 14.4336 29.0384 14.4572 29.085C14.6225 29.3493 14.78 29.6213 14.9375 29.8933C15.095 30.1654 15.2525 30.4374 15.4021 30.7094C15.4257 30.756 15.4572 30.7871 15.4965 30.8104C15.5359 30.8337 15.5753 30.8415 15.6304 30.8415C15.9454 30.8415 16.2603 30.8337 16.5753 30.8337C16.8902 30.8337 17.2052 30.8337 17.528 30.8415C17.5753 30.8415 17.6225 30.8337 17.6619 30.8104C17.7013 30.7871 17.7328 30.756 17.7564 30.7094C17.906 30.4374 18.0635 30.1654 18.221 29.8933C18.3784 29.6213 18.5359 29.3571 18.7013 29.085C18.7249 29.0384 18.7406 28.9995 18.7406 28.9529C18.7406 28.9063 18.7249 28.8674 18.7013 28.8208C18.5359 28.5565 18.3784 28.2845 18.221 28.0125C18.0635 27.7405 17.906 27.4685 17.7564 27.1964C17.7328 27.1498 17.7013 27.1187 17.6619 27.0954C17.6225 27.0721 17.5832 27.0643 17.528 27.0643C17.2131 27.0643 16.8981 27.0721 16.5832 27.0721C16.2682 27.0721 15.9532 27.0721 15.6304 27.0643C15.5832 27.0643 15.5359 27.0721 15.4965 27.0954ZM27.6225 29.4037C27.6225 29.4037 27.5202 29.5436 27.3863 29.7768C27.2525 30.0099 27.1816 30.142 27.1816 30.1731C27.1816 30.2042 27.2525 30.3286 27.3942 30.5617C27.5359 30.7949 27.6147 30.9192 27.6383 30.9348C27.6619 30.9503 27.8115 30.9581 28.0871 30.9503C28.3627 30.9503 28.5123 30.9426 28.5359 30.927C28.5595 30.9115 28.6383 30.7871 28.7721 30.554C28.906 30.3208 28.9769 30.1887 28.9769 30.1576C28.9769 30.1265 28.906 30.0021 28.7643 29.769C28.6225 29.5358 28.5438 29.4115 28.5202 29.3959C28.4965 29.3804 28.3469 29.3726 28.0714 29.3804C27.7958 29.3804 27.6462 29.3882 27.6225 29.4037Z" fill="#A0C052"/>
<path d="M13.0787 19.2613L13.2992 19.6732C13.3307 19.7354 13.3307 19.8131 13.2992 19.8753L13.1024 20.2095C13.1024 20.2095 13.0866 20.2405 13.0945 20.2561V20.2794C13.0945 20.2794 13.0394 20.3105 13.0236 20.3338C12.5039 21.2198 11.937 22.2069 11.3071 23.2716C11.2756 23.326 11.2205 23.3571 11.1575 23.3571H7.16535C7.10236 23.3571 7.04724 23.326 7.02362 23.2716L5.02362 19.8597C4.99213 19.8053 4.99213 19.7276 5.02362 19.6732L7.03937 16.2302C7.03937 16.2302 7.09449 16.1758 7.13386 16.1758H11.1654C11.2283 16.1758 11.2835 16.2069 11.315 16.2613L13.0394 19.2069C13.0394 19.2069 13.0394 19.2146 13.0472 19.2224C13.0709 19.238 13.0787 19.2535 13.0866 19.2613H13.0787ZM9.16535 22.3157C10.0472 22.3157 10.5118 22.3157 10.5591 22.3157C10.6063 22.3157 10.6535 22.2846 10.6772 22.2457L12.0866 19.8364C12.1102 19.7898 12.1102 19.7354 12.0866 19.6887L10.6693 17.2639C10.6693 17.2639 10.6142 17.2095 10.5748 17.2095C10.3543 17.2095 9.88976 17.2095 9.17323 17.2095C8.45669 17.2095 7.99213 17.2095 7.77165 17.2095C7.73228 17.2095 7.69291 17.2328 7.66929 17.2639L6.25197 19.6887C6.22835 19.7354 6.22835 19.7898 6.25197 19.8364L7.66142 22.2457C7.68504 22.2846 7.73228 22.3157 7.77953 22.3157C7.82677 22.3157 8.29134 22.3157 9.17323 22.3157H9.16535Z" fill="#70C4EB"/>
<path d="M28.5981 20.2875C28.5824 20.1321 28.5351 19.9999 28.4485 19.8834C28.4013 19.8134 28.4013 19.7202 28.4485 19.658C28.5509 19.5336 28.6217 19.4093 28.6611 19.2772L29.732 17.4663C29.7714 17.4041 29.8343 17.3652 29.9052 17.3652H32.5036C32.5745 17.3652 32.6375 17.4041 32.669 17.4585C33.1099 18.2202 33.5351 18.943 33.9288 19.6191C33.984 19.7124 33.9997 19.7901 33.984 19.8601C33.984 19.8601 33.984 19.8678 33.984 19.8756L32.6769 22.1139C32.6454 22.1683 32.5824 22.2072 32.5115 22.2072H29.8816C29.8343 22.2072 29.7871 22.1839 29.7635 22.145C29.3383 21.5155 28.9525 20.7772 28.7241 20.3886C28.6847 20.3186 28.6375 20.2875 28.5981 20.2875ZM30.4249 18.43C30.4249 18.43 30.2674 18.6632 30.0154 19.0984C29.7635 19.5259 29.6375 19.759 29.6375 19.7823C29.6375 19.8056 29.7635 20.0388 30.0154 20.4663C30.2674 20.8937 30.4013 21.1191 30.4249 21.1347C30.4485 21.1502 30.7084 21.1502 31.2123 21.158C31.7162 21.1658 31.9761 21.158 31.9997 21.1424C32.0233 21.1269 32.1572 20.9093 32.4091 20.4818C32.6611 20.0544 32.7871 19.8212 32.7871 19.7979C32.7871 19.7746 32.6611 19.5414 32.4091 19.1139C32.1572 18.6865 32.0233 18.4611 31.9997 18.4455C31.9761 18.43 31.7162 18.43 31.2123 18.4222C30.7084 18.4222 30.4485 18.4222 30.4249 18.4378V18.43Z" fill="#E8943D"/>
</g>
<circle cx="20" cy="20" r="19.5" stroke="black" stroke-opacity="0.05"/>
<defs>
<clipPath id="clip0_46604_83235">
<rect width="29" height="24.0008" fill="white" transform="translate(5 7.99902)"/>
</clipPath>
</defs>
</svg>
