<svg width="40" height="40" viewBox="0 0 40 40" fill="none" xmlns="http://www.w3.org/2000/svg">
<circle cx="20" cy="20" r="20" fill="#00ADEF"/>
<path d="M19.098 23.7312L19.0967 30.1472C19.0967 30.1666 19.089 30.1851 19.0753 30.1988C19.0616 30.2125 19.0431 30.2201 19.0238 30.2201L14.8078 30.2188C14.7898 30.2188 14.7727 30.2118 14.76 30.1994C14.7473 30.187 14.7402 30.1701 14.7402 30.1526V19.9817C14.7402 19.9701 14.7448 19.959 14.753 19.9508C14.7612 19.9426 14.7723 19.938 14.7839 19.938C17.2747 19.938 19.7664 19.9384 22.259 19.9393C23.2437 19.9393 24.2669 19.5987 24.5784 18.5728C24.7895 17.8792 24.7984 17.1759 24.6049 16.4629C24.304 15.3549 23.1483 15.1097 22.137 15.1097C18.1813 15.1079 14.4813 15.1079 11.0371 15.1097C11.0273 15.1097 11.0178 15.1058 11.0109 15.0988C11.0039 15.0918 11 15.0824 11 15.0726V11.4397C11 11.392 11.0239 11.3682 11.0716 11.3682C15.0256 11.369 18.9363 11.3704 22.8037 11.3721C26.2245 11.3735 28.7758 13.0103 29.0554 16.5928C29.2065 18.5357 28.9587 20.8114 27.5154 22.1341C26.2655 23.2779 24.4047 23.6477 22.6937 23.6516C21.447 23.6543 20.2745 23.6543 19.1762 23.6516C19.124 23.6516 19.098 23.6781 19.098 23.7312Z" fill="white"/>
<circle cx="20" cy="20" r="19.5" stroke="black" stroke-opacity="0.05"/>
</svg>
