<svg width="40" height="40" viewBox="0 0 40 40" fill="none" xmlns="http://www.w3.org/2000/svg">
<circle cx="20" cy="20" r="20" fill="#013275"/>
<path d="M16.997 22.65C18.1035 22.7712 18.6383 21.9861 18.7674 21.0245C18.7676 20.9997 18.773 20.9752 18.7833 20.9526C18.7937 20.93 18.8086 20.9098 18.8273 20.8934C18.8459 20.877 18.8678 20.8647 18.8916 20.8573C18.9153 20.85 18.9403 20.8477 18.965 20.8507H21.6495C21.7681 20.8507 21.8234 20.9113 21.8102 21.0324C21.4519 24.4098 18.5988 26.2065 15.4532 25.0474C12.1127 23.8144 11.6385 19.2515 13.0295 16.459C13.9964 14.5306 16.1435 13.6665 18.2458 14.03C20.3481 14.3936 21.5705 16.0138 21.7285 18.1214C21.7285 18.2215 21.6917 18.2715 21.5889 18.2715H18.9571C18.9154 18.2745 18.8741 18.2615 18.8418 18.235C18.8095 18.2086 18.7885 18.1707 18.7832 18.1293C18.3485 16.1139 16.0829 16.2351 15.5586 18.0871C15.195 19.349 15.1055 22.4445 16.997 22.65Z" fill="white"/>
<path d="M11.0138 25.0317C11.0138 25.0547 11.0047 25.0769 10.9884 25.0932C10.9721 25.1095 10.95 25.1186 10.9269 25.1186H8.08694C8.06388 25.1186 8.04177 25.1095 8.02546 25.0932C8.00916 25.0769 8 25.0547 8 25.0317V14.2989C8 14.2758 8.00916 14.2537 8.02546 14.2374C8.04177 14.2211 8.06388 14.2119 8.08694 14.2119H10.9269C10.95 14.2119 10.9721 14.2211 10.9884 14.2374C11.0047 14.2537 11.0138 14.2758 11.0138 14.2989V25.0317Z" fill="white"/>
<path d="M28.9681 17.9292V14.3068C28.9681 14.2844 28.977 14.263 28.9928 14.2471C29.0086 14.2313 29.0301 14.2225 29.0524 14.2225H31.9161C31.9385 14.2225 31.9599 14.2313 31.9757 14.2471C31.9915 14.263 32.0004 14.2844 32.0004 14.3068V25.0317C32.0004 25.0541 31.9915 25.0755 31.9757 25.0913C31.9599 25.1071 31.9385 25.116 31.9161 25.116H29.0498C29.0275 25.116 29.006 25.1071 28.9902 25.0913C28.9744 25.0755 28.9655 25.0541 28.9655 25.0317V20.8798C28.9655 20.8574 28.9566 20.836 28.9408 20.8202C28.925 20.8043 28.9036 20.7955 28.8812 20.7955H26.2072C26.1849 20.7955 26.1634 20.8043 26.1476 20.8202C26.1318 20.836 26.1229 20.8574 26.1229 20.8798V25.0291C26.1229 25.0514 26.114 25.0729 26.0982 25.0887C26.0824 25.1045 26.061 25.1134 26.0386 25.1134H23.1907C23.1684 25.1134 23.1469 25.1045 23.1311 25.0887C23.1153 25.0729 23.1064 25.0514 23.1064 25.0291V14.2962C23.1064 14.2739 23.1153 14.2524 23.1311 14.2366C23.1469 14.2208 23.1684 14.2119 23.1907 14.2119H26.0439C26.0662 14.2119 26.0877 14.2208 26.1035 14.2366C26.1193 14.2524 26.1282 14.2739 26.1282 14.2962V17.9265C26.1282 17.9489 26.1371 17.9703 26.1529 17.9861C26.1687 18.0019 26.1901 18.0108 26.2125 18.0108H28.8891C28.9101 18.0095 28.9298 18.0004 28.9445 17.9853C28.9591 17.9702 28.9675 17.9502 28.9681 17.9292Z" fill="white"/>
<circle cx="20" cy="20" r="19.5" stroke="black" stroke-opacity="0.05"/>
</svg>
