<svg width="40" height="40" viewBox="0 0 40 40" fill="none" xmlns="http://www.w3.org/2000/svg">
<circle cx="20" cy="20" r="20" fill="#1E625B"/>
<g clip-path="url(#clip0_18553_55911)">
<path d="M11.0739 12.2131C11.1901 10.716 12.4454 9.48956 13.9177 9.48956C15.111 9.48956 16.5755 9.48956 18.2958 9.47363C19.2024 9.47363 19.83 9.52938 20.1787 9.64883C21.4108 10.0948 22.1392 11.2495 22.1392 12.6033C22.1469 14.9446 22.1469 17.5408 22.1392 20.4076C22.1392 20.4634 22.1082 20.4952 22.0539 20.4952C19.2024 20.4793 16.4903 20.4793 13.9177 20.4873C13.3598 20.4873 12.8329 20.32 12.3447 19.9856C11.4923 19.3883 11.0584 18.5203 11.0507 17.3894C11.0352 16.1631 11.0352 14.7216 11.0352 13.0652C11.0352 12.7865 11.0507 12.4998 11.0739 12.2131Z" fill="#94CFCB"/>
<path d="M22.5888 20.4393C22.5888 18.9262 22.5966 17.3335 22.5966 15.6611C22.5966 14.7852 22.984 14.1879 23.7434 13.8614C23.8751 13.8056 24.1231 13.7817 24.495 13.7817C25.5101 13.7817 26.4167 13.7817 27.2226 13.7817C28.1447 13.7817 28.9041 14.5144 28.9118 15.4621C28.9273 16.4097 28.9273 17.5007 28.9118 18.751C28.9118 19.7067 28.1989 20.4632 27.2303 20.4712C25.8278 20.4791 24.2858 20.4871 22.6198 20.4712C22.5966 20.4712 22.5811 20.4473 22.5811 20.4234L22.5888 20.4393Z" fill="#C3D600"/>
<path d="M22.1391 27.9171C22.1391 28.9843 21.4804 29.9399 20.5196 30.3062C20.2096 30.4257 19.6905 30.4814 18.9466 30.4735C17.7068 30.4655 16.4902 30.4575 15.2814 30.4735C14.8087 30.4735 14.3826 30.362 14.0029 30.131C13.1737 29.6214 12.7553 28.833 12.7631 27.7738C12.7631 26.7226 12.7631 25.5918 12.7476 24.3893C12.7476 23.7602 12.7863 23.2983 12.8715 23.0036C13.1272 22.1595 13.7936 21.4985 14.6305 21.2914C14.8785 21.2277 15.2427 21.1959 15.7153 21.2038C17.947 21.2198 20.0624 21.2198 22.0771 21.2038C22.1158 21.2038 22.1468 21.2357 22.1468 21.2755C22.1468 23.5053 22.1468 25.7272 22.1468 27.9251L22.1391 27.9171Z" fill="#48BAB2"/>
<path d="M29.8645 28.1485C29.539 29.0006 28.7874 29.4306 27.9118 29.4386C26.9587 29.4386 25.9978 29.4386 25.0292 29.4545C24.1536 29.4545 23.5105 29.3112 22.9836 28.5785C22.7201 28.2122 22.5884 27.7901 22.5884 27.2964C22.5884 25.2816 22.5884 23.2987 22.5884 21.3556C22.5884 21.252 22.6426 21.1963 22.7434 21.1963C24.3086 21.2122 25.8584 21.2122 27.4081 21.1963C28.0435 21.1963 28.5084 21.252 28.7874 21.3715C29.6243 21.7378 30.0272 22.5501 30.0272 23.4739C30.0272 24.5569 30.0272 25.6957 30.0272 26.9062C30.0272 27.4318 29.973 27.8459 29.8567 28.1485H29.8645Z" fill="#BAD4EF"/>
</g>
<circle cx="20" cy="20" r="19.5" stroke="black" stroke-opacity="0.05"/>
<defs>
<clipPath id="clip0_18553_55911">
<rect width="19" height="21" fill="white" transform="translate(11.0352 9.47363)"/>
</clipPath>
</defs>
</svg>
