<svg width="40" height="40" viewBox="0 0 40 40" fill="none" xmlns="http://www.w3.org/2000/svg">
<circle cx="20" cy="20" r="20" fill="#F6F8FA"/>
<g clip-path="url(#clip0_17752_43635)">
<path d="M18.6187 24.8103L25.3061 15.1873C25.3123 15.1784 25.3206 15.1712 25.3302 15.1661C25.3398 15.1611 25.3505 15.1585 25.3613 15.1584L33.8969 15.1333C33.9149 15.1333 33.9322 15.1404 33.9449 15.1532C33.9576 15.1659 33.9647 15.1831 33.9647 15.2011L33.9622 24.8354C33.9622 24.8443 33.9605 24.8531 33.9571 24.8613C33.9537 24.8695 33.9487 24.877 33.9424 24.8833C33.9361 24.8896 33.9286 24.8946 33.9204 24.898C33.9121 24.9014 33.9033 24.9032 33.8944 24.9032L18.674 24.917C18.6616 24.9169 18.6495 24.9135 18.6389 24.907C18.6283 24.9006 18.6197 24.8913 18.614 24.8803C18.6083 24.8693 18.6058 24.857 18.6066 24.8446C18.6074 24.8323 18.6116 24.8204 18.6187 24.8103ZM20.0639 23.4442C20.0583 23.4523 20.0553 23.462 20.0551 23.4718C20.055 23.4817 20.0578 23.4915 20.0632 23.4998C20.0685 23.5081 20.0762 23.5146 20.0853 23.5186C20.0944 23.5226 20.1044 23.5237 20.1142 23.522L20.3929 23.4693C20.4056 23.4668 20.4168 23.4597 20.4243 23.4492L25.4969 16.1277C25.5018 16.1203 25.5047 16.1117 25.5052 16.1028C25.5056 16.0939 25.5037 16.085 25.4996 16.0771C25.4956 16.0691 25.4894 16.0624 25.4819 16.0577C25.4743 16.0529 25.4657 16.0502 25.4568 16.0499L25.2508 16.0449C25.2426 16.045 25.2345 16.0471 25.2273 16.051C25.2201 16.0549 25.2139 16.0606 25.2094 16.0675L20.0639 23.4442ZM26.4537 20.054C26.5533 19.4388 26.6684 18.8064 26.799 18.1568C26.8116 18.0932 26.7852 18.061 26.7199 18.0601L26.3445 18.0551C26.2951 18.0543 26.2599 18.076 26.239 18.1204C25.941 18.7465 25.6225 19.4107 25.2835 20.113C25.2768 20.1264 25.2655 20.1331 25.2496 20.1331C25.2437 20.1323 25.2391 20.1294 25.2358 20.1243C25.2291 20.1135 25.227 20.1009 25.2295 20.0867C25.3383 19.4714 25.445 18.8319 25.5497 18.1681C25.5564 18.1246 25.5413 18.0911 25.5045 18.0677C25.4777 18.0509 25.4471 18.0434 25.4128 18.045C25.4028 18.0456 25.3928 18.0433 25.384 18.0385C25.3751 18.0337 25.3678 18.0265 25.3629 18.0178C25.3579 18.009 25.3555 17.9991 25.3559 17.989C25.3563 17.979 25.3595 17.9693 25.3651 17.9609L25.7091 17.4524C25.7502 17.3905 25.7342 17.3524 25.6614 17.3381C25.5769 17.3222 25.4881 17.3733 25.3952 17.4913C25.3927 17.4947 25.3906 17.4976 25.389 17.5001L22.2487 21.842C22.2068 21.8998 22.2206 21.9353 22.2901 21.9487L22.4119 21.9713C22.4939 21.9872 22.5588 21.9613 22.6065 21.8935L24.8566 18.6842C24.8609 18.678 24.8671 18.6735 24.8742 18.6712C24.8813 18.669 24.889 18.6692 24.896 18.6718C24.9031 18.6744 24.909 18.6792 24.913 18.6855C24.917 18.6918 24.9188 18.6993 24.9181 18.7068L24.6833 21.0711C24.6821 21.0836 24.6835 21.0962 24.6875 21.1082C24.6915 21.1201 24.698 21.1311 24.7065 21.1403C24.7151 21.1496 24.7255 21.1569 24.737 21.1619C24.7486 21.1668 24.7611 21.1692 24.7737 21.169L25.0361 21.1665C25.0864 21.1656 25.1232 21.1435 25.1466 21.0999C25.5526 20.3575 25.9197 19.6309 26.2478 18.9202C26.2863 18.8365 26.3051 18.8407 26.3043 18.9328C26.3043 19.019 26.2955 19.1035 26.2779 19.1864C26.1448 19.8376 26.0113 20.4792 25.8774 21.1112C25.8762 21.1173 25.8762 21.1235 25.8775 21.1295C25.8788 21.1355 25.8814 21.1412 25.885 21.1463C25.8887 21.1513 25.8933 21.1556 25.8987 21.1589C25.9041 21.1621 25.9101 21.1643 25.9163 21.1652C26.0293 21.182 26.1469 21.1811 26.2691 21.1627C26.3194 21.1543 26.3562 21.1284 26.3796 21.0849L27.9855 18.1342C28.0148 18.0798 27.9985 18.053 27.9366 18.0538L27.6227 18.0563C27.5632 18.0563 27.5206 18.0836 27.4946 18.138C27.2083 18.7365 26.881 19.3819 26.5127 20.0741C26.4533 20.1846 26.4336 20.1779 26.4537 20.054ZM27.9803 21.1763C28.1017 21.2447 28.2454 21.2709 28.403 21.2533C28.5607 21.2357 28.7293 21.1748 28.8992 21.0739C29.0691 20.9731 29.237 20.8343 29.3933 20.6655C29.5496 20.4967 29.6913 20.3012 29.8102 20.0902C30.0503 19.664 30.1832 19.2004 30.1797 18.8014C30.1761 18.4023 30.0364 18.1006 29.7913 17.9624C29.6699 17.894 29.5263 17.8679 29.3686 17.8854C29.211 17.903 29.0424 17.9639 28.8725 18.0648C28.7025 18.1656 28.5346 18.3044 28.3783 18.4732C28.222 18.642 28.0804 18.8375 27.9615 19.0485C27.7213 19.4747 27.5884 19.9383 27.5919 20.3373C27.5955 20.7364 27.7352 21.0382 27.9803 21.1763ZM31.6419 20.0678L31.4711 18.1455C31.4661 18.0961 31.4393 18.0706 31.3907 18.0689L31.0392 18.0551C30.9848 18.0526 30.9488 18.0773 30.9312 18.1292L29.9368 21.0673C29.9116 21.141 29.938 21.1765 30.0159 21.174L30.2645 21.164C30.3231 21.1623 30.3616 21.1334 30.38 21.0773L31.0003 19.1889C31.0471 19.0474 31.0815 19.0504 31.1032 19.1977C31.1878 19.7694 31.2547 20.3851 31.3041 21.0447C31.306 21.072 31.3165 21.0981 31.3341 21.119C31.3517 21.14 31.3755 21.1549 31.402 21.1615C31.51 21.1882 31.6348 21.1849 31.7762 21.1514C31.8197 21.1414 31.8482 21.1154 31.8616 21.0736L32.8435 18.1543C32.8652 18.0915 32.8426 18.0597 32.7757 18.0589L32.4932 18.0563C32.4421 18.0555 32.409 18.0798 32.394 18.1292C32.2098 18.7285 31.988 19.3785 31.7285 20.0791C31.6825 20.203 31.6536 20.1993 31.6419 20.0678Z" fill="#25BADB"/>
<path d="M18.0687 24.9308L6.07017 24.9295C6.06506 24.9295 6.06 24.9285 6.05528 24.9265C6.05056 24.9246 6.04626 24.9217 6.04265 24.9181C6.03535 24.9108 6.03125 24.9009 6.03125 24.8906V15.1998C6.03125 15.1895 6.03535 15.1796 6.04265 15.1723C6.04995 15.165 6.05985 15.1609 6.07017 15.1609L24.8817 15.1634C24.8889 15.1632 24.896 15.1651 24.9023 15.1687C24.9085 15.1724 24.9136 15.1777 24.917 15.1841C24.9204 15.1905 24.9219 15.1977 24.9215 15.2049C24.921 15.2121 24.9185 15.219 24.9143 15.2249L18.1001 24.9144C18.0966 24.9194 18.0919 24.9235 18.0864 24.9264C18.0809 24.9292 18.0749 24.9307 18.0687 24.9308ZM18.3148 23.4278L18.5007 23.5559C18.5061 23.5593 18.5126 23.5606 18.5189 23.5595C18.5252 23.5583 18.5308 23.5548 18.5346 23.5496L18.5484 23.5308C19.9116 21.562 21.2144 19.6701 22.171 18.2701C23.1276 16.8701 23.6599 16.0761 23.6512 16.0624L23.5168 15.9695C23.5191 15.953 23.3861 16.1321 23.1255 16.4963C22.8648 16.8605 22.4817 17.4027 21.9984 18.0914C21.5151 18.78 20.9412 19.6014 20.3099 20.508C19.6787 21.4146 19.0027 22.3883 18.3211 23.3725L18.3086 23.3926C18.3066 23.3954 18.3053 23.3984 18.3046 23.4017C18.3038 23.4049 18.3038 23.4083 18.3044 23.4115C18.3049 23.4148 18.3062 23.4179 18.308 23.4207C18.3098 23.4235 18.3121 23.4259 18.3148 23.4278ZM19.3771 20.1494C19.4348 19.9535 19.498 19.7677 19.5667 19.5919C19.5951 19.5191 19.57 19.4848 19.4913 19.489L18.6626 19.5329C18.6308 19.5346 18.6107 19.5513 18.6024 19.5831L18.4931 19.995C18.4922 19.9991 18.4922 20.0035 18.4932 20.0076C18.4941 20.0118 18.496 20.0157 18.4986 20.0191C18.5013 20.0225 18.5046 20.0252 18.5084 20.0271C18.5123 20.029 18.5165 20.03 18.5208 20.0301L18.9012 20.0289C18.9129 20.0288 18.9244 20.0318 18.9345 20.0375C18.9447 20.0432 18.9533 20.0515 18.9593 20.0615C18.9654 20.0714 18.9688 20.0828 18.9691 20.0945C18.9695 20.1061 18.9669 20.1177 18.9615 20.1281C18.7966 20.4554 18.54 20.6504 18.1918 20.7132C18.0198 20.7446 17.839 20.6454 17.7862 20.4759C17.6356 19.995 17.9758 19.2743 18.2332 18.9001C18.4956 18.5196 19.3432 18.1379 19.3143 18.9717C19.3143 18.985 19.3206 18.9917 19.3331 18.9917L19.7399 18.9955C19.7575 18.9955 19.7676 18.9871 19.7701 18.9704C19.8467 18.3941 19.6182 17.819 18.9125 17.991C17.9695 18.2195 17.461 19.1035 17.2451 20.0326C17.1496 20.4432 17.1961 21.1313 17.7209 21.233C18.0863 21.3033 18.4291 21.1313 18.6777 20.8714C18.7614 20.7843 18.7987 20.8006 18.7895 20.9204C18.7631 21.2769 18.4366 21.616 18.2244 21.8934C18.2183 21.9015 18.2146 21.9111 18.2137 21.9212C18.2127 21.9313 18.2147 21.9415 18.2193 21.9505C18.2239 21.9596 18.2309 21.9671 18.2396 21.9724C18.2483 21.9776 18.2582 21.9803 18.2684 21.9801L18.4216 21.9751C18.4718 21.9734 18.5111 21.9525 18.5396 21.9123L21.7062 17.4373C21.7422 17.3862 21.7288 17.3603 21.666 17.3595H21.6008C21.5674 17.3594 21.5344 17.3674 21.5047 17.3827C21.475 17.398 21.4494 17.4202 21.43 17.4473L19.4625 20.1921C19.3511 20.3461 19.3227 20.3319 19.3771 20.1494ZM10.0949 21.2177C10.3378 21.3557 10.6665 21.3195 11.0087 21.1172C11.3508 20.9148 11.6785 20.5628 11.9194 20.1386C12.0387 19.9286 12.1332 19.7072 12.1974 19.487C12.2616 19.2668 12.2943 19.0521 12.2936 18.8553C12.2929 18.6584 12.2589 18.4833 12.1934 18.3398C12.1279 18.1962 12.0323 18.0872 11.912 18.0189C11.6691 17.8809 11.3404 17.917 10.9982 18.1194C10.656 18.3218 10.3284 18.6738 10.0875 19.0979C9.96815 19.308 9.8737 19.5294 9.80949 19.7496C9.74529 19.9698 9.7126 20.1845 9.71329 20.3813C9.71397 20.5781 9.74802 20.7533 9.8135 20.8968C9.87897 21.0403 9.97458 21.1494 10.0949 21.2177ZM12.6669 21.2199C12.9106 21.3572 13.2393 21.3203 13.5808 21.1173C13.9222 20.9143 14.2484 20.5618 14.4875 20.1373C14.6059 19.9271 14.6994 19.7056 14.7627 19.4855C14.8259 19.2653 14.8576 19.0507 14.856 18.854C14.8545 18.6573 14.8196 18.4824 14.7534 18.3391C14.6872 18.1959 14.5911 18.0872 14.4704 18.0192C14.2267 17.8818 13.898 17.9188 13.5565 18.1218C13.2151 18.3248 12.8889 18.6773 12.6498 19.1018C12.5313 19.3119 12.4379 19.5334 12.3746 19.7536C12.3114 19.9738 12.2797 20.1884 12.2813 20.3851C12.2828 20.5818 12.3177 20.7567 12.3839 20.9C12.4501 21.0432 12.5462 21.1519 12.6669 21.2199ZM8.16955 20.0301C8.87143 20.0188 9.31717 20.0251 9.65995 19.2881C9.84703 18.8838 10.0454 18.0977 9.38999 18.0664C9.09116 18.0513 8.74252 18.0475 8.34408 18.0551C8.29887 18.0559 8.26916 18.0777 8.25493 18.1204L7.25547 21.12C7.23872 21.1694 7.2563 21.1941 7.3082 21.1941L7.63215 21.1928C7.68739 21.192 7.72339 21.1656 7.74013 21.1137L8.06282 20.1105C8.07956 20.0586 8.11514 20.0318 8.16955 20.0301ZM15.6919 19.0708C15.695 19.0613 15.7013 19.0532 15.7097 19.0478C15.7181 19.0423 15.7281 19.0399 15.7381 19.0409C15.7481 19.042 15.7574 19.0464 15.7645 19.0534C15.7716 19.0604 15.7761 19.0697 15.7773 19.0796L15.9995 21.125C16.0007 21.1358 16.0059 21.1457 16.014 21.1529C16.0221 21.1601 16.0326 21.164 16.0434 21.1639L16.4666 21.1602C16.4758 21.1601 16.4847 21.1572 16.4921 21.1518C16.4996 21.1464 16.5051 21.1388 16.508 21.13L17.5025 18.1128C17.5046 18.1062 17.5052 18.0992 17.5042 18.0924C17.5031 18.0855 17.5005 18.079 17.4964 18.0734C17.4924 18.0678 17.4871 18.0632 17.4809 18.06C17.4748 18.0568 17.468 18.0551 17.461 18.0551L17.1346 18.0538C17.1254 18.0539 17.1164 18.0568 17.109 18.0622C17.1016 18.0676 17.096 18.0752 17.0931 18.0839L16.3975 20.103C16.3943 20.1125 16.3879 20.1206 16.3794 20.126C16.3709 20.1314 16.3608 20.1337 16.3508 20.1325C16.3408 20.1313 16.3315 20.1267 16.3244 20.1195C16.3174 20.1123 16.3131 20.1029 16.3121 20.0929L16.1175 18.0977C16.1163 18.0872 16.1113 18.0774 16.1035 18.0703C16.0956 18.0631 16.0855 18.0591 16.0748 18.0588L15.6605 18.0513C15.6511 18.0511 15.6419 18.0539 15.6342 18.0593C15.6265 18.0647 15.6208 18.0725 15.6178 18.0814L14.5932 21.1049C14.591 21.1115 14.5905 21.1185 14.5915 21.1254C14.5925 21.1322 14.5952 21.1387 14.5992 21.1444C14.6033 21.15 14.6086 21.1546 14.6147 21.1578C14.6209 21.161 14.6277 21.1626 14.6347 21.1627L14.9887 21.1614C14.9979 21.1614 15.0069 21.1584 15.0143 21.153C15.0217 21.1476 15.0273 21.14 15.0302 21.1313L15.6919 19.0708Z" fill="#033A8A"/>
<path d="M18.3146 23.4278C18.3118 23.426 18.3095 23.4236 18.3077 23.4208C18.3059 23.418 18.3047 23.4148 18.3041 23.4116C18.3035 23.4083 18.3036 23.405 18.3043 23.4017C18.305 23.3985 18.3064 23.3954 18.3083 23.3927L18.3209 23.3726C19.0024 22.3883 19.6784 21.4146 20.3097 20.5081C20.9409 19.6015 21.5148 18.7801 21.9982 18.0914C22.4815 17.4028 22.8646 16.8606 23.1252 16.4963C23.3859 16.1321 23.5189 15.953 23.5166 15.9696L23.6509 16.0625C23.6596 16.0762 23.1273 16.8701 22.1707 18.2702C21.2141 19.6702 19.9114 21.562 18.5481 23.5308L18.5343 23.5496C18.5305 23.5548 18.5249 23.5584 18.5186 23.5595C18.5123 23.5607 18.5058 23.5594 18.5004 23.5559L18.3146 23.4278Z" fill="white"/>
<path d="M20.0635 23.444L25.209 16.0673C25.2135 16.0604 25.2196 16.0547 25.2269 16.0508C25.2341 16.0469 25.2422 16.0448 25.2504 16.0447L25.4563 16.0497C25.4652 16.05 25.4739 16.0527 25.4814 16.0575C25.489 16.0622 25.4951 16.0689 25.4992 16.0769C25.5033 16.0848 25.5052 16.0937 25.5047 16.1026C25.5042 16.1115 25.5014 16.1201 25.4965 16.1275L20.4238 23.449C20.4163 23.4595 20.4051 23.4667 20.3925 23.4691L20.1137 23.5218C20.104 23.5235 20.0939 23.5224 20.0849 23.5184C20.0758 23.5145 20.0681 23.5079 20.0627 23.4996C20.0573 23.4913 20.0546 23.4816 20.0547 23.4717C20.0548 23.4618 20.0579 23.4521 20.0635 23.444Z" fill="white"/>
<path d="M26.4532 20.0539C26.4331 20.1778 26.4528 20.1845 26.5122 20.074C26.8806 19.3817 27.2079 18.7364 27.4941 18.1379C27.5201 18.0834 27.5628 18.0562 27.6222 18.0562L27.9361 18.0537C27.998 18.0529 28.0144 18.0797 27.9851 18.1341L26.3792 21.0848C26.3557 21.1283 26.3189 21.1542 26.2687 21.1626C26.1464 21.181 26.0288 21.1819 25.9158 21.1651C25.9096 21.1642 25.9036 21.162 25.8982 21.1588C25.8928 21.1555 25.8882 21.1512 25.8845 21.1462C25.8809 21.1411 25.8783 21.1354 25.877 21.1294C25.8757 21.1234 25.8757 21.1171 25.8769 21.1111C26.0108 20.4791 26.1444 19.8375 26.2774 19.1863C26.295 19.1034 26.3038 19.0189 26.3038 18.9327C26.3047 18.8406 26.2858 18.8364 26.2473 18.9201C25.9192 19.6308 25.5521 20.3574 25.1461 21.0998C25.1227 21.1434 25.0859 21.1655 25.0357 21.1664L24.7732 21.1689C24.7606 21.1691 24.7481 21.1667 24.7366 21.1618C24.725 21.1568 24.7146 21.1495 24.706 21.1402C24.6975 21.131 24.691 21.12 24.687 21.1081C24.683 21.0961 24.6816 21.0835 24.6828 21.071L24.9176 18.7066C24.9183 18.6992 24.9165 18.6917 24.9125 18.6854C24.9086 18.6791 24.9026 18.6742 24.8956 18.6717C24.8885 18.6691 24.8809 18.6689 24.8737 18.6711C24.8666 18.6734 24.8604 18.6779 24.8561 18.684L22.6061 21.8934C22.5583 21.9612 22.4935 21.9871 22.4114 21.9712L22.2896 21.9486C22.2202 21.9352 22.2064 21.8997 22.2482 21.8419L25.3885 17.5C25.3901 17.4975 25.3922 17.4946 25.3948 17.4912C25.4877 17.3732 25.5764 17.3221 25.6609 17.338C25.7338 17.3523 25.7497 17.3904 25.7087 17.4523L25.3646 17.9608C25.359 17.9691 25.3558 17.9789 25.3554 17.9889C25.355 17.999 25.3574 18.0089 25.3624 18.0177C25.3674 18.0264 25.3747 18.0336 25.3835 18.0384C25.3923 18.0432 25.4023 18.0455 25.4123 18.0449C25.4467 18.0433 25.4772 18.0508 25.504 18.0675C25.5408 18.091 25.5559 18.1245 25.5492 18.168C25.4446 18.8318 25.3378 19.4713 25.229 20.0866C25.2265 20.1008 25.2286 20.1133 25.2353 20.1242C25.2386 20.1292 25.2432 20.1322 25.2491 20.133C25.265 20.133 25.2763 20.1263 25.283 20.1129C25.622 19.4106 25.9405 18.7464 26.2385 18.1203C26.2595 18.0759 26.2946 18.0542 26.344 18.055L26.7194 18.06C26.7847 18.0608 26.8111 18.0931 26.7985 18.1567C26.6679 18.8063 26.5528 19.4387 26.4532 20.0539Z" fill="white"/>
<path d="M19.3768 20.1493C19.3224 20.3318 19.3509 20.346 19.4622 20.192L21.4298 17.4473C21.4492 17.4201 21.4748 17.3979 21.5045 17.3826C21.5342 17.3673 21.5671 17.3594 21.6005 17.3594H21.6658C21.7286 17.3602 21.742 17.3862 21.706 17.4372L18.5394 21.9122C18.5109 21.9524 18.4716 21.9733 18.4213 21.975L18.2681 21.98C18.258 21.9802 18.248 21.9775 18.2393 21.9723C18.2307 21.967 18.2236 21.9595 18.219 21.9504C18.2145 21.9414 18.2125 21.9313 18.2134 21.9212C18.2143 21.9111 18.2181 21.9014 18.2242 21.8934C18.4364 21.6159 18.7629 21.2769 18.7892 20.9203C18.7984 20.8006 18.7612 20.7842 18.6775 20.8713C18.4289 21.1312 18.0861 21.3032 17.7207 21.2329C17.1959 21.1312 17.1494 20.4431 17.2448 20.0326C17.4608 19.1034 17.9693 18.2195 18.9123 17.9909C19.6179 17.8189 19.8464 18.394 19.7698 18.9703C19.7673 18.9871 19.7573 18.9954 19.7397 18.9954L19.3329 18.9917C19.3203 18.9917 19.3141 18.985 19.3141 18.9716C19.3429 18.1378 18.4954 18.5196 18.233 18.9C17.9756 19.2742 17.6353 19.9949 17.786 20.4758C17.8387 20.6453 18.0195 20.7445 18.1916 20.7131C18.5398 20.6503 18.7963 20.4553 18.9612 20.128C18.9666 20.1176 18.9693 20.1061 18.9689 20.0944C18.9685 20.0827 18.9651 20.0714 18.9591 20.0614C18.953 20.0514 18.9445 20.0432 18.9343 20.0375C18.9241 20.0317 18.9126 20.0288 18.901 20.0288L18.5205 20.03C18.5162 20.03 18.512 20.0289 18.5082 20.027C18.5044 20.0251 18.501 20.0224 18.4984 20.019C18.4957 20.0157 18.4939 20.0117 18.4929 20.0076C18.492 20.0034 18.492 19.9991 18.4929 19.9949L18.6021 19.5831C18.6105 19.5512 18.6306 19.5345 18.6624 19.5328L19.4911 19.4889C19.5698 19.4847 19.5949 19.519 19.5664 19.5918C19.4978 19.7676 19.4346 19.9535 19.3768 20.1493Z" fill="white"/>
<path d="M27.9803 21.1763C27.7351 21.0382 27.5954 20.7364 27.5919 20.3374C27.5883 19.9383 27.7212 19.4747 27.9614 19.0485C28.0803 18.8375 28.2219 18.642 28.3783 18.4732C28.5346 18.3044 28.7025 18.1657 28.8724 18.0648C29.0423 17.9639 29.2109 17.903 29.3685 17.8854C29.5262 17.8679 29.6698 17.894 29.7912 17.9624C30.0364 18.1006 30.1761 18.4023 30.1796 18.8014C30.1832 19.2004 30.0502 19.664 29.8101 20.0902C29.6912 20.3012 29.5495 20.4967 29.3932 20.6655C29.2369 20.8343 29.069 20.9731 28.8991 21.0739C28.7292 21.1748 28.5606 21.2357 28.4029 21.2533C28.2453 21.2709 28.1017 21.2447 27.9803 21.1763ZM28.3674 20.6358C28.4403 20.671 28.526 20.6778 28.6197 20.6558C28.7134 20.6339 28.8133 20.5835 28.9135 20.5076C29.0138 20.4318 29.1125 20.3319 29.2041 20.2137C29.2956 20.0955 29.3782 19.9614 29.4471 19.8189C29.516 19.6763 29.5698 19.5283 29.6056 19.3831C29.6413 19.238 29.6583 19.0986 29.6555 18.9729C29.6526 18.8472 29.6301 18.7377 29.5891 18.6506C29.5481 18.5635 29.4895 18.5005 29.4166 18.4653C29.3437 18.4301 29.258 18.4232 29.1643 18.4452C29.0706 18.4672 28.9708 18.5176 28.8705 18.5934C28.7702 18.6693 28.6715 18.7692 28.58 18.8873C28.4884 19.0055 28.4059 19.1397 28.337 19.2822C28.2681 19.4247 28.2142 19.5728 28.1784 19.7179C28.1427 19.8631 28.1257 20.0025 28.1286 20.1282C28.1314 20.2539 28.1539 20.3634 28.1949 20.4505C28.2359 20.5376 28.2945 20.6005 28.3674 20.6358Z" fill="white"/>
<path d="M10.0945 21.2176C9.97419 21.1493 9.87858 21.0402 9.81311 20.8967C9.74764 20.7532 9.71359 20.578 9.7129 20.3812C9.71221 20.1844 9.74491 19.9697 9.80911 19.7495C9.87331 19.5293 9.96777 19.3079 10.0871 19.0979C10.3281 18.6737 10.6557 18.3217 10.9978 18.1193C11.34 17.9169 11.6687 17.8808 11.9116 18.0188C12.0319 18.0871 12.1275 18.1962 12.193 18.3397C12.2585 18.4832 12.2925 18.6583 12.2932 18.8552C12.2939 19.052 12.2612 19.2667 12.197 19.4869C12.1328 19.7071 12.0384 19.9285 11.919 20.1385C11.6781 20.5627 11.3505 20.9147 11.0083 21.1171C10.6661 21.3195 10.3374 21.3556 10.0945 21.2176ZM10.4691 20.7026C10.6186 20.7752 10.8179 20.7295 11.0233 20.5756C11.2287 20.4216 11.4232 20.1721 11.5642 19.8818C11.7051 19.5916 11.7809 19.2843 11.7749 19.0278C11.7688 18.7712 11.6815 18.5863 11.532 18.5137C11.3825 18.4411 11.1832 18.4868 10.9778 18.6407C10.7724 18.7947 10.5779 19.0442 10.4369 19.3345C10.296 19.6248 10.2202 19.932 10.2262 20.1885C10.2323 20.4451 10.3196 20.63 10.4691 20.7026Z" fill="white"/>
<path d="M12.6669 21.2199C12.5463 21.1519 12.4501 21.0432 12.3839 20.9C12.3178 20.7567 12.2829 20.5818 12.2813 20.3851C12.2797 20.1884 12.3114 19.9738 12.3747 19.7536C12.4379 19.5335 12.5314 19.312 12.6498 19.1018C12.889 18.6773 13.2152 18.3248 13.5566 18.1218C13.898 17.9188 14.2268 17.8819 14.4705 18.0192C14.5911 18.0872 14.6873 18.1959 14.7535 18.3391C14.8196 18.4824 14.8545 18.6573 14.8561 18.854C14.8577 19.0507 14.826 19.2653 14.7627 19.4855C14.6995 19.7056 14.606 19.9271 14.4876 20.1373C14.2484 20.5618 13.9222 20.9143 13.5808 21.1173C13.2394 21.3203 12.9106 21.3573 12.6669 21.2199ZM13.0412 20.7012C13.1901 20.7735 13.389 20.7273 13.5941 20.5727C13.7992 20.4182 13.9938 20.1679 14.1351 19.8771C14.205 19.733 14.2597 19.5834 14.2961 19.4366C14.3325 19.2899 14.3499 19.1489 14.3472 19.0217C14.3445 18.8946 14.3219 18.7837 14.2805 18.6955C14.2392 18.6074 14.18 18.5435 14.1063 18.5078C13.9574 18.4355 13.7585 18.4817 13.5533 18.6362C13.3482 18.7908 13.1536 19.041 13.0124 19.3319C12.9424 19.4759 12.8877 19.6256 12.8513 19.7724C12.8149 19.9191 12.7975 20.0601 12.8002 20.1873C12.8029 20.3144 12.8255 20.4252 12.8669 20.5134C12.9082 20.6016 12.9675 20.6654 13.0412 20.7012Z" fill="white"/>
<path d="M8.0625 20.1105L7.73981 21.1137C7.72307 21.1656 7.68708 21.192 7.63183 21.1928L7.30788 21.194C7.25599 21.194 7.23841 21.1694 7.25515 21.12L8.25461 18.1203C8.26884 18.0776 8.29856 18.0559 8.34376 18.055C8.7422 18.0475 9.09084 18.0513 9.38968 18.0663C10.0451 18.0977 9.84672 18.8837 9.65963 19.288C9.31685 20.0251 8.87111 20.0188 8.16923 20.0301C8.11482 20.0318 8.07924 20.0586 8.0625 20.1105ZM8.3312 19.5015C8.93557 19.6229 9.26788 19.3864 9.32815 18.7921C9.34155 18.6607 9.28253 18.5941 9.15111 18.5924L8.71542 18.5849C8.62585 18.5832 8.56642 18.6251 8.53712 18.7105L8.29353 19.4375C8.29143 19.4443 8.29075 19.4514 8.29155 19.4585C8.29234 19.4655 8.2946 19.4723 8.29816 19.4783C8.30172 19.4844 8.30651 19.4896 8.3122 19.4936C8.3179 19.4976 8.32438 19.5003 8.3312 19.5015Z" fill="white"/>
<path d="M15.6917 19.0708L15.03 21.1313C15.0271 21.14 15.0216 21.1476 15.0141 21.153C15.0067 21.1584 14.9978 21.1614 14.9886 21.1614L14.6345 21.1627C14.6276 21.1626 14.6207 21.1609 14.6146 21.1578C14.6084 21.1546 14.6031 21.15 14.5991 21.1443C14.595 21.1387 14.5924 21.1322 14.5913 21.1253C14.5903 21.1185 14.5909 21.1115 14.593 21.1049L15.6176 18.0814C15.6206 18.0725 15.6263 18.0647 15.634 18.0593C15.6417 18.0539 15.6509 18.0511 15.6603 18.0513L16.0747 18.0588C16.0853 18.059 16.0955 18.0631 16.1033 18.0703C16.1111 18.0774 16.1161 18.0872 16.1174 18.0977L16.312 20.0929C16.3129 20.1029 16.3172 20.1123 16.3243 20.1195C16.3313 20.1267 16.3406 20.1313 16.3506 20.1325C16.3606 20.1337 16.3707 20.1314 16.3792 20.126C16.3877 20.1206 16.3941 20.1125 16.3974 20.1029L17.093 18.0839C17.0958 18.0752 17.1014 18.0676 17.1088 18.0622C17.1163 18.0568 17.1252 18.0539 17.1344 18.0538L17.4608 18.055C17.4678 18.0551 17.4746 18.0568 17.4808 18.06C17.4869 18.0631 17.4922 18.0677 17.4963 18.0734C17.5003 18.079 17.503 18.0855 17.504 18.0924C17.5051 18.0992 17.5045 18.1062 17.5023 18.1128L16.5078 21.13C16.505 21.1387 16.4994 21.1463 16.492 21.1518C16.4845 21.1572 16.4756 21.1601 16.4664 21.1602L16.0433 21.1639C16.0324 21.164 16.022 21.1601 16.0138 21.1529C16.0057 21.1457 16.0006 21.1358 15.9993 21.125L15.7771 19.0796C15.7759 19.0697 15.7714 19.0604 15.7643 19.0534C15.7572 19.0463 15.7479 19.0419 15.7379 19.0409C15.728 19.0399 15.718 19.0423 15.7095 19.0477C15.7011 19.0532 15.6948 19.0613 15.6917 19.0708Z" fill="white"/>
<path d="M31.642 20.0678C31.6538 20.1993 31.6826 20.203 31.7287 20.0791C31.9882 19.3785 32.21 18.7285 32.3941 18.1292C32.4092 18.0798 32.4423 18.0555 32.4933 18.0564L32.7758 18.0589C32.8428 18.0597 32.8654 18.0915 32.8436 18.1543L31.8618 21.0736C31.8484 21.1154 31.8199 21.1414 31.7764 21.1514C31.6349 21.1849 31.5102 21.1883 31.4022 21.1615C31.3756 21.1549 31.3518 21.14 31.3342 21.119C31.3166 21.0981 31.3061 21.072 31.3043 21.0447C31.2549 20.3851 31.1879 19.7694 31.1034 19.1977C31.0816 19.0504 31.0473 19.0475 31.0004 19.1889L30.3802 21.0773C30.3617 21.1334 30.3232 21.1623 30.2646 21.164L30.016 21.174C29.9382 21.1765 29.9118 21.141 29.9369 21.0673L30.9314 18.1292C30.9489 18.0773 30.9849 18.0526 31.0393 18.0551L31.3909 18.0689C31.4395 18.0706 31.4662 18.0961 31.4713 18.1455L31.642 20.0678Z" fill="white"/>
<path d="M28.337 19.282C28.0472 19.8813 28.0608 20.4873 28.3674 20.6355C28.6739 20.7837 29.1573 20.418 29.4471 19.8186C29.7368 19.2193 29.7232 18.6133 29.4166 18.4651C29.1101 18.3169 28.6267 18.6826 28.337 19.282Z" fill="#25BADB"/>
<path d="M10.437 19.3345C10.1435 19.9389 10.1579 20.5515 10.4692 20.7026C10.7805 20.8538 11.2707 20.4863 11.5643 19.8818C11.8578 19.2774 11.8434 18.6648 11.5321 18.5137C11.2208 18.3625 10.7305 18.73 10.437 19.3345Z" fill="#033A8A"/>
<path d="M13.0127 19.3318C12.7186 19.9376 12.7315 20.5506 13.0415 20.7012C13.3515 20.8517 13.8413 20.4827 14.1354 19.877C14.4295 19.2713 14.4166 18.6582 14.1066 18.5077C13.7966 18.3572 13.3068 18.7261 13.0127 19.3318Z" fill="#033A8A"/>
<path d="M8.331 19.5014C8.32417 19.5001 8.31769 19.4974 8.312 19.4934C8.3063 19.4894 8.30151 19.4842 8.29795 19.4782C8.29439 19.4721 8.29214 19.4654 8.29134 19.4583C8.29054 19.4513 8.29122 19.4441 8.29333 19.4373L8.53692 18.7103C8.56621 18.6249 8.62565 18.5831 8.71521 18.5848L9.15091 18.5923C9.28233 18.594 9.34134 18.6605 9.32795 18.7919C9.26768 19.3863 8.93536 19.6227 8.331 19.5014Z" fill="#033A8A"/>
</g>
<circle cx="20" cy="20" r="19.5" stroke="black" stroke-opacity="0.05"/>
<defs>
<clipPath id="clip0_17752_43635">
<rect width="28" height="9.91928" fill="white" transform="translate(6 15.0403)"/>
</clipPath>
</defs>
</svg>
