<svg width="40" height="40" viewBox="0 0 40 40" fill="none" xmlns="http://www.w3.org/2000/svg">
<circle cx="20" cy="20" r="20" fill="#1E1E23"/>
<g clip-path="url(#clip0_30798_48516)">
<path d="M18.2402 19.2626H17.7045C17.692 19.2626 17.686 19.2565 17.6864 19.2442C17.6927 19.1238 17.6931 18.9298 17.6877 18.6623C17.6828 18.4031 17.5894 18.224 17.4075 18.125C17.2474 18.0379 17.07 18.0241 16.8751 18.0836C16.7164 18.1318 16.6073 18.2387 16.5479 18.4042C16.5175 18.4878 16.5023 18.6297 16.5023 18.8298C16.5014 19.678 16.5007 20.5261 16.5003 21.3743C16.4998 21.6615 16.5211 21.852 16.564 21.9457C16.6659 22.1673 16.8633 22.2693 17.156 22.2518C17.3027 22.243 17.4195 22.1955 17.5067 22.1093C17.6126 22.0042 17.6712 21.8829 17.6824 21.7454C17.6918 21.6307 17.694 21.3517 17.6891 20.9086C17.6891 20.902 17.6918 20.8956 17.6965 20.891C17.7013 20.8863 17.7078 20.8836 17.7146 20.8836H18.2449C18.2503 20.8836 18.2554 20.8857 18.2592 20.8894C18.2629 20.8931 18.265 20.8981 18.265 20.9034C18.265 21.1799 18.2878 21.5805 18.2382 21.8511C18.1394 22.3919 17.8279 22.6982 17.3035 22.77C16.9513 22.8186 16.6494 22.7654 16.3977 22.6104C16.1916 22.4834 16.0495 22.2991 15.9713 22.0574C15.9288 21.9251 15.9071 21.7042 15.9062 21.3947C15.9031 20.1936 15.9038 19.2775 15.9082 18.6465C15.9123 18.0821 16.1789 17.7211 16.7081 17.5635C16.7935 17.5381 16.8881 17.5254 16.9918 17.5254C17.1071 17.5247 17.2573 17.5175 17.378 17.5431C18.2583 17.7303 18.2999 18.4994 18.259 19.2456C18.2586 19.2569 18.2523 19.2626 18.2402 19.2626Z" fill="white"/>
<path d="M20.1551 17.5249C20.2713 17.5249 20.3328 17.5249 20.3395 17.5249C20.4012 17.528 20.4624 17.538 20.5232 17.5551C21.0587 17.7018 21.3387 18.0696 21.3633 18.6586C21.3669 18.7431 21.3687 19.2407 21.3687 20.1515C21.3687 21.0627 21.3669 21.5606 21.3633 21.6451C21.3387 22.234 21.0587 22.6019 20.5232 22.7485C20.4624 22.7656 20.4014 22.7757 20.3401 22.7788C20.3334 22.7792 20.2717 22.7794 20.1551 22.7794C20.0384 22.7794 19.9767 22.7792 19.97 22.7788C19.9088 22.7757 19.8478 22.7656 19.787 22.7485C19.2515 22.6019 18.9714 22.234 18.9468 21.6451C18.9433 21.5606 18.9415 21.0629 18.9415 20.1522C18.941 19.2409 18.9426 18.7431 18.9462 18.6586C18.9712 18.0696 19.2515 17.7018 19.787 17.5551C19.8478 17.538 19.9088 17.528 19.97 17.5249C19.9767 17.5249 20.0384 17.5249 20.1551 17.5249ZM20.772 18.6242C20.7723 18.4723 20.7109 18.3265 20.6015 18.2189C20.492 18.1113 20.3434 18.0507 20.1883 18.0504L20.1199 18.0503C19.9649 18.05 19.8161 18.1101 19.7062 18.2173C19.5964 18.3246 19.5345 18.4701 19.5342 18.622L19.5288 21.6815C19.5285 21.8334 19.5899 21.9792 19.6993 22.0868C19.8088 22.1944 19.9574 22.255 20.1124 22.2552L20.1808 22.2553C20.3359 22.2556 20.4847 22.1955 20.5946 22.0883C20.7044 21.9811 20.7663 21.8355 20.7665 21.6836L20.772 18.6242Z" fill="white"/>
<path d="M6.46839 22.7221H5.98228C5.97755 22.722 5.97288 22.721 5.96861 22.719C5.96433 22.717 5.96056 22.7142 5.95755 22.7106C5.95454 22.707 5.95237 22.7028 5.9512 22.6983C5.95003 22.6939 5.94988 22.6892 5.95077 22.6846L6.92165 17.612C6.92305 17.6049 6.92696 17.5984 6.93271 17.5937C6.93846 17.589 6.94569 17.5864 6.95316 17.5864H7.69473C7.7022 17.5864 7.70943 17.589 7.71518 17.5937C7.72093 17.5984 7.72484 17.6049 7.72624 17.612L8.70584 22.6846C8.70673 22.6892 8.70658 22.6939 8.70541 22.6983C8.70424 22.7028 8.70207 22.707 8.69906 22.7106C8.69605 22.7142 8.69228 22.717 8.688 22.719C8.68373 22.721 8.67906 22.722 8.67433 22.7221H8.14531C8.13783 22.722 8.1306 22.7195 8.12485 22.7148C8.1191 22.7101 8.11519 22.7036 8.11379 22.6964L7.90996 21.6429C7.90856 21.6357 7.90465 21.6292 7.8989 21.6246C7.89315 21.6199 7.88592 21.6173 7.87845 21.6173H6.73324C6.72577 21.6173 6.71854 21.6199 6.71279 21.6246C6.70704 21.6292 6.70312 21.6357 6.70172 21.6429L6.4999 22.6964C6.4985 22.7036 6.49459 22.7101 6.48884 22.7148C6.48309 22.7195 6.47586 22.722 6.46839 22.7221ZM7.30316 21.1135C7.54678 21.1135 7.70591 21.1131 7.78056 21.1122C7.7852 21.1121 7.78981 21.1112 7.79405 21.1097C7.7983 21.1081 7.80208 21.1059 7.80514 21.1031C7.8082 21.1004 7.81046 21.0972 7.81177 21.0937C7.81309 21.0903 7.81342 21.0868 7.81274 21.0833L7.31188 18.3444C7.31098 18.3391 7.30808 18.3361 7.30316 18.3352C7.30227 18.3348 7.30115 18.3345 7.29981 18.3345C7.29757 18.3345 7.29579 18.3348 7.29444 18.3352C7.28997 18.3361 7.28729 18.3391 7.2864 18.3444L6.79291 21.0846C6.79223 21.0881 6.79255 21.0917 6.79385 21.0951C6.79516 21.0985 6.79742 21.1017 6.80048 21.1044C6.80354 21.1072 6.80733 21.1094 6.81158 21.111C6.81583 21.1126 6.82044 21.1134 6.8251 21.1135C6.89974 21.114 7.0591 21.114 7.30316 21.1135Z" fill="white"/>
<path d="M10.0542 19.6352C10.0734 19.689 10.0924 19.6888 10.1112 19.6345L10.828 17.6037C10.8315 17.5936 10.8387 17.5885 10.8494 17.5885L11.4066 17.5879C11.4082 17.5879 11.4098 17.5883 11.4112 17.589C11.4126 17.5898 11.4138 17.5908 11.4148 17.5921C11.4157 17.5934 11.4163 17.5949 11.4165 17.5964C11.4167 17.598 11.4165 17.5995 11.416 17.601C11.1496 18.3266 10.8371 19.1734 10.4786 20.1416C10.4042 20.3419 10.3539 20.445 10.3539 20.6303C10.3553 21.7355 10.3555 22.4214 10.3546 22.6881C10.3546 22.7086 10.3441 22.7189 10.3231 22.7189L9.79809 22.7196C9.78849 22.7196 9.77928 22.7158 9.77249 22.7092C9.7657 22.7025 9.76188 22.6935 9.76188 22.6841C9.76099 22.4844 9.76032 21.8219 9.75987 20.6966C9.76032 20.5499 9.7373 20.4115 9.69081 20.2815C9.65728 20.1878 9.60811 20.0542 9.5433 19.8808C9.23398 19.0454 8.95348 18.287 8.70182 17.6056C8.70119 17.6038 8.70101 17.6018 8.70132 17.5998C8.70162 17.5978 8.70239 17.596 8.70357 17.5944C8.70475 17.5928 8.7063 17.5915 8.7081 17.5906C8.70989 17.5897 8.71188 17.5892 8.71389 17.5892H9.30929C9.32315 17.5892 9.33232 17.5956 9.33679 17.6083L10.0542 19.6352Z" fill="white"/>
<path d="M36.6264 19.6334C36.6456 19.6872 36.6646 19.6872 36.6834 19.6334L37.4015 17.6032C37.4051 17.5931 37.4123 17.5881 37.423 17.5881H37.9802C37.9818 17.5881 37.9833 17.5885 37.9848 17.5892C37.9862 17.5899 37.9874 17.591 37.9883 17.5923C37.9892 17.5935 37.9898 17.595 37.99 17.5966C37.9902 17.5981 37.9901 17.5997 37.9896 17.6012C37.7227 18.3263 37.4096 19.1727 37.0502 20.1404C36.9758 20.3408 36.9255 20.4439 36.9255 20.6285C36.9259 21.7337 36.9255 22.4196 36.9241 22.6863C36.9241 22.7068 36.9136 22.7171 36.8926 22.7171H36.3676C36.358 22.7171 36.3488 22.7134 36.342 22.7067C36.3352 22.7001 36.3314 22.6911 36.3314 22.6817C36.331 22.482 36.331 21.8197 36.3314 20.6948C36.3319 20.5481 36.3088 20.4097 36.2623 20.2797C36.2288 20.186 36.1799 20.0524 36.1155 19.879C35.8066 19.0436 35.5268 18.2852 35.276 17.6038C35.2754 17.6019 35.2752 17.6 35.2755 17.598C35.2758 17.596 35.2766 17.5942 35.2778 17.5926C35.279 17.591 35.2805 17.5897 35.2823 17.5888C35.2841 17.5879 35.2861 17.5874 35.2881 17.5874H35.8828C35.8967 17.5874 35.9059 17.5938 35.9103 17.6064L36.6264 19.6334Z" fill="white"/>
<path d="M3 22.715V17.5912C3.41258 17.5859 3.82538 17.5862 4.23841 17.5918C4.35306 17.5932 4.47711 17.6194 4.57634 17.6365C4.92947 17.6965 5.16973 17.8898 5.29713 18.2165C5.35479 18.3636 5.38384 18.5276 5.38429 18.7084C5.38697 19.7182 5.38608 20.7032 5.38161 21.6634C5.3796 22.0529 5.18716 22.4529 4.81236 22.6027C4.65367 22.6657 4.46303 22.7001 4.24042 22.7058C3.82695 22.7159 3.41347 22.7189 3 22.715ZM3.59674 18.1331L3.59004 22.1764C3.59004 22.1822 3.59237 22.1877 3.59652 22.1917C3.60067 22.1958 3.6063 22.1981 3.61216 22.1981L4.19282 22.1994C4.35363 22.1996 4.50794 22.1354 4.62184 22.021C4.73574 21.9066 4.79993 21.7513 4.80029 21.5892L4.80565 18.7255C4.80583 18.6451 4.79029 18.5655 4.75992 18.4912C4.72954 18.4169 4.68494 18.3494 4.62864 18.2925C4.57235 18.2356 4.50547 18.1904 4.43184 18.1595C4.35821 18.1287 4.27927 18.1128 4.19952 18.1127L3.61887 18.1114C3.613 18.1114 3.60737 18.1137 3.60322 18.1177C3.59907 18.1218 3.59674 18.1273 3.59674 18.1331Z" fill="white"/>
<path d="M12.1689 18.8081V18.2826C12.1689 18.2785 12.1699 18.2744 12.1719 18.2707C12.1739 18.2671 12.1768 18.2639 12.1803 18.2616L13.237 17.5904C13.2411 17.5879 13.2457 17.5865 13.2505 17.5864H13.6414C13.6447 17.5864 13.648 17.5871 13.6511 17.5883C13.6542 17.5896 13.657 17.5914 13.6594 17.5937C13.6617 17.5961 13.6636 17.5988 13.6649 17.6018C13.6662 17.6049 13.6668 17.6081 13.6668 17.6114V22.6932C13.6668 22.6998 13.6642 22.7061 13.6594 22.7108C13.6546 22.7155 13.6481 22.7181 13.6414 22.7181H13.0969C13.0902 22.7181 13.0837 22.7155 13.0789 22.7108C13.0741 22.7061 13.0714 22.6998 13.0714 22.6932V18.326C13.0715 18.3215 13.0703 18.317 13.0679 18.3131C13.0656 18.3092 13.0622 18.306 13.0581 18.3038C13.054 18.3017 13.0495 18.3006 13.0448 18.3008C13.0402 18.301 13.0357 18.3025 13.0319 18.305L12.2085 18.8291C12.2047 18.8316 12.2002 18.8331 12.1956 18.8333C12.1909 18.8335 12.1863 18.8324 12.1823 18.8303C12.1782 18.8281 12.1748 18.8249 12.1725 18.821C12.1701 18.8171 12.1689 18.8126 12.1689 18.8081Z" fill="white"/>
<path d="M23.7749 21.5335C23.7865 21.5931 23.7979 21.5931 23.8091 21.5335L24.5574 17.6248C24.5618 17.6003 24.5768 17.5881 24.6023 17.5881H25.3801C25.4065 17.5881 25.4196 17.601 25.4196 17.6268V22.7046C25.4196 22.713 25.4154 22.7171 25.4069 22.7171H24.8618C24.8515 22.7171 24.8464 22.7123 24.8464 22.7027V18.7381C24.8464 18.7281 24.8417 18.7215 24.8323 18.7184L24.8068 18.7099C24.8005 18.7077 24.7967 18.7099 24.7954 18.7165L24.0364 22.681C24.0345 22.6911 24.029 22.7003 24.021 22.7069C24.0129 22.7135 24.0027 22.7171 23.9921 22.7171H23.551C23.5255 22.7171 23.5105 22.7049 23.506 22.6803L22.7236 18.6317C22.7213 18.6204 22.7144 18.6138 22.7028 18.612C22.6912 18.6098 22.6853 18.6149 22.6853 18.6271C22.6912 19.911 22.6914 21.2684 22.686 22.6994C22.6856 22.7121 22.6789 22.7184 22.6659 22.7184H22.1805C22.1702 22.7184 22.165 22.7134 22.165 22.7033V17.6275C22.165 17.6008 22.1787 17.5874 22.2059 17.5874H22.979C23.0014 17.5874 23.0148 17.5983 23.0193 17.6202L23.7749 21.5335Z" fill="white"/>
<path d="M26.8816 20.5601V22.6849C26.8816 22.6936 26.878 22.702 26.8717 22.7082C26.8655 22.7143 26.8569 22.7178 26.848 22.7178H26.3297C26.315 22.7178 26.3076 22.7106 26.3076 22.6961V17.6058C26.3076 17.6009 26.3095 17.5962 26.3129 17.5928C26.3163 17.5893 26.3209 17.5874 26.3257 17.5874C26.6954 17.5892 27.0668 17.5907 27.4401 17.592C27.6131 17.5927 27.8042 17.6445 27.9497 17.6748C28.0198 17.6892 28.084 17.7142 28.1421 17.7496C28.4036 17.9099 28.5015 18.1023 28.5779 18.3894C28.6016 18.4778 28.6144 18.5739 28.6161 18.6777C28.6251 19.1931 28.6226 19.4974 28.6088 19.5907C28.5189 20.1915 28.164 20.4962 27.544 20.505C27.2924 20.5085 27.0856 20.5129 26.9238 20.5181C26.8956 20.519 26.8816 20.533 26.8816 20.5601ZM26.8856 18.1385L26.8762 19.9762C26.8761 19.9788 26.8765 19.9813 26.8775 19.9837C26.8784 19.9861 26.8798 19.9883 26.8817 19.9901C26.8835 19.992 26.8856 19.9934 26.888 19.9944C26.8904 19.9954 26.893 19.9959 26.8956 19.9959L27.4783 19.9986C27.6265 19.9992 27.7689 19.941 27.8742 19.8365C27.9796 19.7321 28.0393 19.5901 28.0402 19.4416L28.0442 18.6863C28.0447 18.6126 28.0306 18.5396 28.0029 18.4714C27.9751 18.4032 27.9343 18.3412 27.8826 18.2889C27.8309 18.2365 27.7694 18.1949 27.7017 18.1664C27.6339 18.1379 27.5612 18.123 27.4877 18.1227L26.905 18.1201C26.9 18.1201 26.8951 18.122 26.8915 18.1254C26.8879 18.1289 26.8858 18.1335 26.8856 18.1385Z" fill="white"/>
<path d="M29.5714 21.6109C29.5478 21.6109 29.5339 21.6223 29.5299 21.645L29.3374 22.6723C29.3325 22.6995 29.3158 22.713 29.2872 22.713L28.8326 22.715C28.8257 22.7151 28.819 22.7136 28.8128 22.7107C28.8066 22.7078 28.8011 22.7036 28.7968 22.6983C28.7924 22.693 28.7893 22.6869 28.7876 22.6802C28.7859 22.6735 28.7857 22.6666 28.787 22.6598L29.7511 17.6267C29.7561 17.6004 29.7719 17.5875 29.7987 17.5879L30.5195 17.5912C30.5414 17.5916 30.5544 17.6021 30.5584 17.6227L31.5373 22.6992C31.5391 22.7089 31.5351 22.7137 31.5253 22.7137L30.952 22.7143C30.9408 22.7143 30.9343 22.7089 30.9326 22.6979L30.7515 21.6391C30.7484 21.6207 30.7372 21.6115 30.718 21.6115L29.5714 21.6109ZM30.1353 21.1124C30.3789 21.1119 30.5379 21.1115 30.6121 21.1111C30.6167 21.111 30.6213 21.1101 30.6256 21.1085C30.6298 21.1069 30.6336 21.1047 30.6367 21.102C30.6397 21.0992 30.642 21.096 30.6433 21.0926C30.6446 21.0892 30.6449 21.0856 30.6442 21.0822L30.1454 18.3478C30.1445 18.3426 30.1416 18.3393 30.1367 18.338C30.1353 18.338 30.1338 18.338 30.132 18.338C30.1306 18.338 30.1293 18.338 30.128 18.338C30.123 18.3393 30.1201 18.3426 30.1192 18.3478L29.6258 21.0828C29.6251 21.0863 29.6254 21.0899 29.6267 21.0934C29.6281 21.0968 29.6304 21.1001 29.6336 21.1028C29.6367 21.1056 29.6406 21.1078 29.6449 21.1093C29.6492 21.1109 29.6539 21.1117 29.6586 21.1117C29.7328 21.1121 29.8917 21.1124 30.1353 21.1124Z" fill="white"/>
<path d="M34.1108 21.1329V17.6091C34.1108 17.5955 34.1178 17.5887 34.1316 17.5887H34.6325C34.6463 17.5887 34.6533 17.5955 34.6533 17.6091V22.681C34.6533 22.6911 34.6492 22.7008 34.6421 22.7079C34.6349 22.7151 34.6252 22.7191 34.6151 22.7191H34.074C34.0512 22.7191 34.0364 22.7086 34.0297 22.6876L32.7631 18.7237C32.7511 18.6856 32.7406 18.686 32.7316 18.725C32.7079 18.827 32.6959 18.9308 32.6954 19.0363C32.6918 19.7282 32.7006 20.9481 32.7216 22.6961C32.722 22.7101 32.7151 22.7171 32.7008 22.7171H32.2147C32.2039 22.7171 32.1986 22.7119 32.1986 22.7014C32.1972 21.8957 32.2008 20.5516 32.2093 18.6692C32.2113 18.3677 32.1664 17.9808 32.1805 17.6367C32.181 17.6234 32.1867 17.6109 32.1965 17.6017C32.2062 17.5925 32.2192 17.5874 32.2328 17.5874H32.8899C32.9131 17.5874 32.9283 17.5981 32.9355 17.6196C33.1004 18.1004 33.2352 18.5004 33.3398 18.8196C33.4962 19.2973 33.6491 19.7746 33.7984 20.2514C33.8011 20.2611 33.802 20.2786 33.8011 20.304C33.8006 20.3254 33.8026 20.3425 33.8071 20.3552C33.9448 20.7226 34.0422 20.9825 34.0994 21.1349C34.107 21.1541 34.1108 21.1535 34.1108 21.1329Z" fill="white"/>
</g>
<circle cx="20" cy="20" r="19.5" stroke="black" stroke-opacity="0.05"/>
<defs>
<clipPath id="clip0_30798_48516">
<rect width="35" height="6" fill="white" transform="translate(3 17)"/>
</clipPath>
</defs>
</svg>
