<svg width="40" height="40" viewBox="0 0 40 40" fill="none" xmlns="http://www.w3.org/2000/svg">
<circle cx="20" cy="20" r="20" fill="#0C2340"/>
<g clip-path="url(#clip0_14382_19589)">
<path d="M8.79965 16.0962H6V24.2677H8.79965V16.0962Z" fill="white"/>
<path d="M10.3876 16.0962H9.61768V24.2677H10.3876C11.4712 24.2677 12.5104 23.8372 13.2766 23.071C14.0429 22.3048 14.4733 21.2655 14.4733 20.1819C14.4733 19.0983 14.0429 18.0591 13.2766 17.2929C12.5104 16.5267 11.4712 16.0962 10.3876 16.0962Z" fill="white"/>
<path d="M18.1346 16.0962H15.335V24.2677H18.1346V16.0962Z" fill="white"/>
<path d="M23.8608 21.468H18.957V24.2677H23.8608V21.468Z" fill="white"/>
<path d="M25.4927 16.1006H27.9905V16.7086H26.2932V17.5966H27.8811V18.2047H26.2932V19.2108H28.0474V19.832H25.4927V16.1006Z" fill="white"/>
<path d="M32.1986 17.5136C32.2241 18.059 32.0788 18.5988 31.7831 19.0577L32.5399 19.8408H31.5731L31.2844 19.4952C30.9485 19.7829 30.5193 19.9384 30.077 19.9326C29.2678 19.9326 28.6685 19.5258 28.6685 18.8084C28.6685 18.5397 28.763 18.2796 28.9353 18.0735C29.0795 17.8994 29.2527 17.7514 29.4471 17.636C29.3206 17.5453 29.2157 17.4276 29.1401 17.2914C29.0644 17.1553 29.0199 17.0041 29.0097 16.8486C29.0097 16.6255 29.1365 16 30.1514 16C31.1663 16 31.2669 16.5468 31.2669 16.8311C31.2461 17.0422 31.1679 17.2436 31.0406 17.4133C30.9133 17.583 30.7419 17.7145 30.5451 17.7935L31.2975 18.5547C31.4187 18.2262 31.4708 17.8762 31.4506 17.5267L32.1986 17.5136ZM29.8758 18.126C29.7609 18.185 29.6634 18.2729 29.5929 18.3811C29.5223 18.4892 29.4811 18.6139 29.4734 18.7428C29.4732 18.8274 29.4904 18.9111 29.5238 18.9889C29.5571 19.0666 29.606 19.1367 29.6675 19.1949C29.7289 19.253 29.8016 19.298 29.8811 19.3271C29.9605 19.3562 30.0451 19.3687 30.1295 19.364C30.3822 19.3453 30.6226 19.2473 30.8163 19.084L29.8758 18.126ZM30.5101 16.8355C30.5001 16.7433 30.4564 16.658 30.3874 16.5961C30.3183 16.5341 30.2289 16.4998 30.1361 16.4998C30.0433 16.4998 29.9538 16.5341 29.8848 16.5961C29.8158 16.658 29.7721 16.7433 29.7621 16.8355C29.7621 17.0674 30.0814 17.3473 30.1339 17.3867C30.2433 17.3123 30.5101 17.0936 30.5101 16.8443" fill="white"/>
<path d="M35.1514 17.3167C35.1514 17.1898 35.0902 16.6605 34.5477 16.6605C34.0053 16.6605 33.7078 17.2817 33.7078 18.0516C33.7078 18.2703 33.7078 19.3289 34.4865 19.3289C34.5783 19.3316 34.6697 19.315 34.7547 19.2802C34.8397 19.2453 34.9164 19.193 34.9799 19.1266C35.0434 19.0602 35.0923 18.9812 35.1233 18.8948C35.1544 18.8083 35.1669 18.7163 35.1601 18.6247H36C36.0032 18.9485 35.8827 19.2614 35.6632 19.4995C35.5218 19.6438 35.3519 19.7572 35.1645 19.8325C34.977 19.9078 34.7759 19.9433 34.574 19.937C33.2879 19.937 32.8723 18.9877 32.8723 18.0647C32.8723 16.8792 33.5329 16.0962 34.5783 16.0962C34.7528 16.0773 34.9292 16.0951 35.0964 16.1485C35.2635 16.2019 35.4176 16.2898 35.5486 16.4065C35.6797 16.5231 35.7849 16.6659 35.8573 16.8257C35.9298 16.9855 35.968 17.1587 35.9694 17.3342L35.1514 17.3167Z" fill="white"/>
</g>
<circle cx="20" cy="20" r="19.5" stroke="black" stroke-opacity="0.05"/>
<defs>
<clipPath id="clip0_14382_19589">
<rect width="30" height="8.26772" fill="white" transform="translate(6 16)"/>
</clipPath>
</defs>
</svg>
