<svg width="40" height="40" viewBox="0 0 40 40" fill="none" xmlns="http://www.w3.org/2000/svg">
<circle cx="20" cy="20" r="20" fill="#0C2340"/>
<g clip-path="url(#clip0_17713_28063)">
<path d="M8.79965 16.0963H6V24.2677H8.79965V16.0963Z" fill="white"/>
<path d="M10.3881 16.0963H9.61816V24.2677H10.3881C11.4717 24.2677 12.5109 23.8373 13.2771 23.071C14.0433 22.3048 14.4738 21.2656 14.4738 20.182C14.4738 19.0984 14.0433 18.0592 13.2771 17.2929C12.5109 16.5267 11.4717 16.0963 10.3881 16.0963Z" fill="white"/>
<path d="M18.1346 16.0963H15.335V24.2677H18.1346V16.0963Z" fill="white"/>
<path d="M23.8608 21.4681H18.957V24.2677H23.8608V21.4681Z" fill="white"/>
<path d="M25.4922 16.1006H27.99V16.7086H26.2927V17.5966H27.8806V18.2047H26.2927V19.2108H28.0469V19.832H25.4922V16.1006Z" fill="white"/>
<path d="M32.1982 17.5136C32.2236 18.059 32.0783 18.5988 31.7826 19.0577L32.5394 19.8408H31.5726L31.2839 19.4952C30.948 19.7829 30.5188 19.9384 30.0765 19.9326C29.2673 19.9326 28.668 19.5258 28.668 18.8084C28.668 18.5397 28.7625 18.2796 28.9348 18.0735C29.079 17.8994 29.2522 17.7514 29.4466 17.636C29.3201 17.5453 29.2152 17.4276 29.1396 17.2914C29.0639 17.1553 29.0194 17.0041 29.0092 16.8486C29.0092 16.6255 29.136 16 30.1509 16C31.1658 16 31.2664 16.5468 31.2664 16.8311C31.2456 17.0422 31.1674 17.2436 31.0401 17.4133C30.9128 17.583 30.7415 17.7145 30.5446 17.7935L31.297 18.5547C31.4182 18.2262 31.4703 17.8762 31.4501 17.5267L32.1982 17.5136ZM29.8753 18.126C29.7605 18.185 29.6629 18.2729 29.5924 18.3811C29.5218 18.4892 29.4806 18.6139 29.4729 18.7428C29.4727 18.8274 29.4899 18.9111 29.5233 18.9889C29.5566 19.0666 29.6056 19.1367 29.667 19.1949C29.7284 19.253 29.8011 19.298 29.8806 19.3271C29.96 19.3562 30.0446 19.3687 30.129 19.364C30.3817 19.3453 30.6221 19.2473 30.8158 19.084L29.8753 18.126ZM30.5096 16.8355C30.4996 16.7433 30.4559 16.658 30.3869 16.5961C30.3179 16.5341 30.2284 16.4998 30.1356 16.4998C30.0428 16.4998 29.9533 16.5341 29.8843 16.5961C29.8153 16.658 29.7716 16.7433 29.7616 16.8355C29.7616 17.0674 30.0809 17.3473 30.1334 17.3867C30.2428 17.3123 30.5096 17.0936 30.5096 16.8443" fill="white"/>
<path d="M35.1512 17.3167C35.1512 17.1898 35.0899 16.6605 34.5475 16.6605C34.005 16.6605 33.7076 17.2817 33.7076 18.0516C33.7076 18.2703 33.7076 19.3289 34.4862 19.3289C34.5781 19.3316 34.6695 19.315 34.7545 19.2802C34.8395 19.2453 34.9162 19.193 34.9797 19.1266C35.0432 19.0602 35.0921 18.9812 35.1231 18.8948C35.1541 18.8083 35.1667 18.7163 35.1599 18.6247H35.9998C36.0029 18.9485 35.8824 19.2614 35.663 19.4995C35.5215 19.6438 35.3517 19.7572 35.1642 19.8325C34.9767 19.9078 34.7757 19.9433 34.5737 19.937C33.2876 19.937 32.8721 18.9877 32.8721 18.0647C32.8721 16.8792 33.5326 16.0962 34.5781 16.0962C34.7525 16.0773 34.929 16.0951 35.0961 16.1485C35.2633 16.2019 35.4173 16.2898 35.5484 16.4065C35.6795 16.5231 35.7846 16.6659 35.8571 16.8257C35.9296 16.9855 35.9678 17.1587 35.9692 17.3342L35.1512 17.3167Z" fill="white"/>
</g>
<circle cx="20" cy="20" r="19.5" stroke="black" stroke-opacity="0.05"/>
<defs>
<clipPath id="clip0_17713_28063">
<rect width="30" height="8.26772" fill="white" transform="translate(6 16)"/>
</clipPath>
</defs>
</svg>
