<svg width="40" height="40" viewBox="0 0 40 40" fill="none" xmlns="http://www.w3.org/2000/svg">
<circle cx="20" cy="20" r="20" fill="#02205B"/>
<path d="M3.74894 20.7081C3.95535 20.7568 4.26624 20.7625 4.46506 20.6834C4.78418 20.5568 4.98363 20.3073 5.06404 19.9344C5.06531 19.928 5.06594 19.9217 5.06594 19.9154C5.06594 19.8653 5.02542 19.8248 4.97539 19.8248L4.60942 19.8261C4.57966 19.8261 4.5556 19.8381 4.53724 19.8622C4.47456 19.9445 4.46442 20.0445 4.39414 20.123C4.28207 20.249 4.14277 20.2915 3.97688 20.2503C3.79389 20.2054 3.67612 20.0724 3.62231 19.8514C3.53239 19.4835 3.56405 18.9194 4.00474 18.7959C4.07122 18.7775 4.14151 18.7801 4.21622 18.8048C4.38654 18.8605 4.45303 18.9719 4.50875 19.1277C4.52141 19.1625 4.55434 19.1859 4.59106 19.1853H5.01022C5.03618 19.1853 5.05771 19.1644 5.06024 19.1385C5.08303 18.8276 4.82343 18.5331 4.56067 18.4141C4.25421 18.2748 3.94776 18.2691 3.6413 18.397C2.75043 18.7687 2.78905 20.4801 3.74894 20.7081Z" fill="white"/>
<path d="M19.1159 20.7345C19.7453 20.7934 20.1296 20.5243 20.2696 19.9272C20.2708 19.9209 20.2721 19.9139 20.2715 19.9069C20.2715 19.8607 20.2328 19.8233 20.1873 19.824L19.8029 19.8271C19.7801 19.8271 19.7592 19.8385 19.7459 19.8569C19.6839 19.9455 19.6738 20.0545 19.5965 20.1317C19.392 20.3362 19.0355 20.2995 18.9 20.0361C18.7658 19.7746 18.7443 19.4884 18.8354 19.1775C18.9342 18.8413 19.2882 18.6507 19.5845 18.897C19.6598 18.9597 19.6795 19.0572 19.7276 19.1389C19.7453 19.168 19.777 19.1864 19.8112 19.1864H20.1879C20.2569 19.1851 20.286 19.1509 20.2746 19.0832C20.1353 18.2252 18.9329 18.0454 18.4568 18.7039C17.9958 19.3402 18.1592 20.6439 19.1159 20.7345Z" fill="white"/>
<path d="M6.22586 20.7326C6.85777 20.801 7.34658 20.5794 7.34278 19.876C7.33961 19.3694 7.33961 18.8863 7.34215 18.4273C7.34215 18.381 7.31872 18.3576 7.2725 18.357L6.87676 18.3532C6.82041 18.3532 6.77482 18.3981 6.77419 18.4545C6.77229 18.911 6.77229 19.3891 6.77356 19.8886C6.77419 20.2242 6.59184 20.2831 6.28728 20.2508C6.10999 20.2324 6.05617 19.9538 6.05617 19.8076C6.05744 19.3359 6.05744 18.8736 6.05617 18.4209C6.05617 18.3848 6.02705 18.3563 5.99096 18.3557L5.58446 18.3525C5.51798 18.3519 5.48442 18.3848 5.48505 18.452C5.49012 18.8971 5.48885 19.3492 5.48188 19.8082C5.47429 20.3185 5.6883 20.6738 6.22586 20.7326Z" fill="white"/>
<path d="M9.70704 18.7776L10.3123 18.7763C10.3332 18.7763 10.3497 18.7928 10.3497 18.8137V20.6056C10.3503 20.6265 10.3668 20.6429 10.3877 20.6429H10.8809C10.9018 20.6436 10.9183 20.6271 10.9183 20.6062L10.917 18.8124C10.917 18.7915 10.9335 18.7751 10.9544 18.7751L11.5622 18.7782C11.5831 18.7782 11.5996 18.7618 11.5996 18.7409V18.3914C11.6002 18.3705 11.5838 18.354 11.5629 18.354L9.70893 18.3565C9.68804 18.3565 9.67158 18.373 9.67158 18.3939L9.66968 18.7402C9.66968 18.7611 9.68614 18.7776 9.70704 18.7776Z" fill="white"/>
<path d="M15.5493 20.6886L15.9659 20.6911C15.9931 20.6911 16.0147 20.6696 16.0147 20.6424L16.0178 19.7458C16.0178 19.616 16.0653 19.5065 16.1584 19.4172C16.2015 19.376 16.2439 19.3545 16.285 19.3526C16.4554 19.3438 16.5427 19.4349 16.5472 19.6255C16.5541 19.9313 16.5548 20.2688 16.5503 20.6392C16.5503 20.6392 16.5503 20.6392 16.5503 20.6399C16.5503 20.6671 16.5725 20.6892 16.5997 20.6892H17.0265C17.0524 20.6892 17.0651 20.6772 17.0651 20.6513C17.0626 20.3454 17.0651 20.0219 17.0727 19.6806C17.0778 19.4748 17.0581 19.3222 17.0132 19.2222C16.8555 18.8682 16.3439 18.8391 16.0571 19.031C16.0299 19.0493 16.0159 19.0424 16.0159 19.0088V18.4288C16.0153 18.3769 15.9893 18.3509 15.9368 18.3516L15.5879 18.3535C15.5303 18.3535 15.5018 18.3826 15.5012 18.4402L15.4993 20.6373C15.4993 20.6709 15.5157 20.688 15.5493 20.6886Z" fill="white"/>
<path d="M32.9129 18.3528L32.462 18.3543C32.4376 18.3544 32.4178 18.3743 32.4179 18.3988L32.4192 18.785C32.4193 18.8095 32.4392 18.8293 32.4637 18.8292L32.9145 18.8276C32.939 18.8276 32.9588 18.8076 32.9587 18.7832L32.9573 18.3969C32.9573 18.3725 32.9373 18.3527 32.9129 18.3528Z" fill="white"/>
<path d="M31.1076 19.3229C31.1583 19.3127 31.1836 19.3336 31.1836 19.3849C31.1836 19.7053 31.1823 20.0289 31.1798 20.3549C31.1754 20.8096 31.6122 20.7576 31.9206 20.7298C31.9662 20.7253 31.989 20.7007 31.9883 20.6551L31.9864 20.4309C31.9864 20.3923 31.9554 20.36 31.9162 20.3575L31.7528 20.348C31.7268 20.3467 31.7066 20.3258 31.7066 20.2999L31.699 19.3577C31.699 19.333 31.7104 19.3216 31.7351 19.3222L31.882 19.3267C31.882 19.3267 31.8826 19.3267 31.8832 19.3267C31.9396 19.3273 31.9864 19.2823 31.9871 19.226L31.9902 19.0044C31.9902 18.9791 31.9738 18.9563 31.9497 18.9487C31.8845 18.929 31.8142 18.9202 31.7382 18.9233C31.7382 18.9233 31.7376 18.9233 31.737 18.9233C31.7167 18.9233 31.7003 18.9069 31.7003 18.8866V18.5536C31.7009 18.5111 31.68 18.4896 31.6376 18.4902L31.2406 18.4921C31.2 18.4921 31.1798 18.513 31.1804 18.5536L31.1848 18.8879C31.1848 18.8879 31.1848 18.891 31.1848 18.8923C31.1829 18.9113 31.1659 18.9246 31.1469 18.9227C30.9309 18.9005 30.9221 19.0747 30.948 19.2273C30.9626 19.3102 31.0158 19.3419 31.1076 19.3229Z" fill="white"/>
<path d="M12.8299 20.727C13.1022 20.6846 13.2934 20.5092 13.4029 20.1996C13.4036 20.1977 13.4042 20.1958 13.4042 20.1932C13.4067 20.1755 13.3947 20.1584 13.377 20.1559C13.2345 20.135 13.0927 20.1324 12.9508 20.1495C12.84 20.1622 12.8191 20.2863 12.7058 20.3047C12.4848 20.3407 12.3639 20.2483 12.3424 20.0261C12.3392 19.9912 12.3544 19.9741 12.3892 19.9741H13.3618C13.3681 19.9741 13.3744 19.9735 13.3808 19.9722C13.4264 19.9615 13.4549 19.9165 13.4447 19.8703C13.4105 19.7253 13.4143 19.5727 13.3656 19.4359C13.2389 19.082 12.9819 18.9091 12.5937 18.9167C11.8637 18.9307 11.675 19.6075 11.8472 20.2084C11.9796 20.6719 12.3981 20.7941 12.8299 20.727ZM12.3525 19.612C12.3525 19.4689 12.469 19.353 12.6134 19.353C12.7577 19.353 12.8742 19.4689 12.8742 19.612V19.624C12.8742 19.6335 12.866 19.6417 12.8565 19.6417H12.3702C12.3607 19.6417 12.3525 19.6335 12.3525 19.624V19.612Z" fill="white"/>
<path d="M14.1032 20.6972C14.2843 20.7579 14.5661 20.7592 14.7421 20.6997C15.0049 20.6117 15.165 20.4053 15.2227 20.0804C15.2227 20.0779 15.2233 20.0747 15.2233 20.0722C15.2233 20.045 15.2011 20.0228 15.1745 20.0228L14.7649 20.0216C14.744 20.0216 14.725 20.0323 14.7149 20.0507C14.6731 20.1267 14.6522 20.2197 14.5768 20.2704C14.4401 20.3616 14.2647 20.3058 14.2128 20.1444C14.1304 19.8911 14.1437 19.6701 14.252 19.4815C14.3122 19.3764 14.4002 19.3333 14.5154 19.3529C14.6294 19.3719 14.6636 19.5157 14.7218 19.6011C14.7402 19.6277 14.7699 19.6436 14.8016 19.6429H15.1283C15.2037 19.6423 15.2347 19.6049 15.2214 19.5308C15.1562 19.168 14.9428 18.9661 14.5825 18.9255C14.0139 18.8616 13.66 19.1832 13.6309 19.7227C13.6214 19.9025 13.6302 20.0532 13.6581 20.1748C13.7208 20.4445 13.8689 20.6186 14.1032 20.6972Z" fill="white"/>
<path d="M20.5945 19.9668C20.6014 20.398 20.9567 20.7424 21.3878 20.7354L21.5373 20.7329C21.9685 20.7259 22.3129 20.3707 22.3059 19.9395L22.3021 19.6926C22.2952 19.2614 21.94 18.917 21.5088 18.9239L21.3594 18.9265C20.9282 18.9334 20.5837 19.2886 20.5907 19.7198L20.5945 19.9668ZM21.1143 19.8275C21.1168 19.5577 21.2675 19.3399 21.4512 19.3418C21.6348 19.3437 21.7817 19.5634 21.7791 19.8338C21.7766 20.1035 21.6259 20.3213 21.4423 20.3194C21.2587 20.3175 21.1118 20.0978 21.1143 19.8275Z" fill="white"/>
<path d="M22.7529 20.691L23.1752 20.6885C23.2138 20.6885 23.2322 20.6689 23.2316 20.6302C23.2271 20.3573 23.2278 20.0952 23.2341 19.8438C23.236 19.7653 23.2499 19.6874 23.2746 19.6096C23.3341 19.4221 23.4937 19.45 23.6469 19.4494C23.7419 19.4494 23.7894 19.4019 23.7888 19.3075V19.0435C23.7875 18.9663 23.7489 18.9251 23.6723 18.9194C23.4969 18.9067 23.362 18.9568 23.2683 19.0701C23.2417 19.1018 23.2265 19.0973 23.2221 19.0562C23.2195 19.0365 23.2138 19.0175 23.2056 18.9992C23.1955 18.977 23.1778 18.9656 23.1531 18.9656L22.7269 18.9669C22.7117 18.9669 22.6997 18.9795 22.6997 18.9947V20.6385C22.6997 20.6676 22.7238 20.691 22.7529 20.691Z" fill="white"/>
<path d="M24.1321 21.1153H24.4987C24.5614 21.1159 24.5937 21.0842 24.5943 21.0215L24.5975 20.6853C24.5975 20.6594 24.6095 20.6511 24.6342 20.6606C25.142 20.8538 25.4845 20.7151 25.6618 20.244C25.8049 19.8654 25.7555 19.2746 25.4003 19.0353C25.1534 18.8688 24.8843 18.8713 24.593 19.0416C24.593 19.0416 24.5918 19.0416 24.5911 19.0422C24.5797 19.0473 24.5664 19.0429 24.5614 19.0321C24.5386 18.9815 24.4993 18.9593 24.4442 18.965C24.3303 18.9777 24.2087 18.9656 24.0928 18.972C24.0618 18.9739 24.0371 18.9998 24.0371 19.0309V21.0203C24.0377 21.0836 24.0694 21.1153 24.1321 21.1153ZM24.871 19.355C25.0483 19.355 25.1926 19.5703 25.1939 19.8375C25.1945 20.1047 25.0521 20.3219 24.8748 20.3225C24.6975 20.3225 24.5531 20.1072 24.5519 19.84C24.5506 19.5728 24.6937 19.3557 24.871 19.355Z" fill="white"/>
<path d="M25.9328 19.9673C25.9404 20.3997 26.2969 20.7435 26.7287 20.7359L26.8768 20.7334C27.3093 20.7258 27.6531 20.3693 27.6455 19.9375L27.6411 19.6931C27.6335 19.2607 27.277 18.9168 26.8452 18.9244L26.697 18.927C26.2646 18.9346 25.9207 19.291 25.9283 19.7229L25.9328 19.9673ZM26.7895 19.3423C26.9737 19.3442 27.1212 19.5639 27.1187 19.8337C27.1162 20.1034 26.9648 20.3206 26.7806 20.3187C26.5963 20.3168 26.4488 20.0971 26.4513 19.8273C26.4539 19.5576 26.6052 19.3404 26.7895 19.3423Z" fill="white"/>
<path d="M28.0412 20.6889L28.4737 20.6902C28.4737 20.6902 28.4737 20.6902 28.4743 20.6902C28.5015 20.6902 28.523 20.6674 28.5224 20.6402C28.5192 20.3824 28.5211 20.1108 28.5281 19.8265C28.5306 19.717 28.5534 19.6252 28.5971 19.5498C28.6839 19.3998 28.8624 19.4732 29.0043 19.4352C29.0321 19.4276 29.0498 19.4099 29.0574 19.382C29.0935 19.2541 29.0973 19.1243 29.0676 18.9926C29.0574 18.9489 29.0302 18.9249 28.9853 18.9211C28.7921 18.9059 28.6478 18.9565 28.5534 19.073C28.5262 19.106 28.511 19.1009 28.5072 19.0585L28.5015 18.9952C28.4996 18.9762 28.4895 18.9667 28.4705 18.9667L28.0241 18.9679C28.0032 18.9679 27.9924 18.9787 27.9924 18.9996V20.6395C27.9918 20.6667 28.014 20.6889 28.0412 20.6889Z" fill="white"/>
<path d="M30.1503 19.5772C29.6969 19.6773 29.1771 19.6412 29.217 20.2902C29.2297 20.4972 29.3272 20.6334 29.5102 20.698C29.7596 20.786 29.9888 20.7556 30.1972 20.608C30.2238 20.5891 30.2459 20.5935 30.263 20.6207L30.2845 20.6562C30.2978 20.6764 30.32 20.6891 30.3447 20.6891L30.8132 20.691C30.8196 20.691 30.8253 20.6897 30.831 20.6866C30.8487 20.6771 30.8557 20.6543 30.8462 20.6365C30.7974 20.5447 30.7505 20.4669 30.7499 20.3586C30.7486 20.0743 30.7493 19.7596 30.7518 19.4139C30.755 18.9263 30.1706 18.8884 29.8217 18.9301C29.5171 18.9669 29.3354 19.1385 29.2759 19.4455C29.2588 19.531 29.2943 19.5722 29.3816 19.569L29.702 19.5582C29.7356 19.557 29.7596 19.5418 29.7742 19.512L29.8274 19.405C29.8394 19.381 29.8584 19.3664 29.8844 19.3607C29.9819 19.3404 30.1604 19.3189 30.2149 19.4278C30.2351 19.469 30.2326 19.5063 30.2067 19.5412C30.1921 19.5601 30.1737 19.5722 30.1503 19.5772ZM30.2332 19.9685C30.2396 20.2104 30.0547 20.4403 29.8052 20.3333C29.7843 20.3244 29.7685 20.3067 29.7609 20.2845C29.7128 20.1344 29.7628 20.0388 29.9116 19.9989C30.0021 19.9742 30.0984 19.9552 30.2003 19.9407C30.2218 19.9375 30.2326 19.947 30.2332 19.9685Z" fill="white"/>
<path d="M34.1584 20.7357L34.3078 20.7345C34.7403 20.73 35.0866 20.3761 35.0822 19.9436L35.0797 19.6992C35.0752 19.2668 34.7213 18.9204 34.2888 18.9248L34.1394 18.9261C33.7069 18.9305 33.3606 19.2845 33.365 19.7169L33.3676 19.9614C33.372 20.3938 33.7259 20.7402 34.1584 20.7357ZM33.8918 19.8278C33.8937 19.558 34.0432 19.3402 34.2255 19.3415C34.4079 19.3427 34.5548 19.5625 34.5529 19.8328C34.551 20.1025 34.4015 20.3204 34.2192 20.3191C34.0368 20.3178 33.8899 20.0981 33.8918 19.8278Z" fill="white"/>
<path d="M35.4132 20.6905H35.8526C35.8836 20.6898 35.8988 20.674 35.8982 20.6424C35.8893 20.253 35.8919 19.9237 35.9058 19.6546C35.9235 19.3095 36.4256 19.1949 36.4282 19.6419C36.4294 19.9845 36.4301 20.3182 36.4294 20.643C36.4294 20.674 36.4446 20.6892 36.4756 20.6898H36.9087C36.9353 20.6911 36.9486 20.6778 36.9486 20.6512C36.9486 20.3258 36.9505 19.949 36.9537 19.521C36.9562 19.2057 36.7891 18.9638 36.4604 18.9233C36.2667 18.8986 36.1014 18.9328 35.964 19.0259C35.9419 19.0411 35.9204 19.0398 35.8995 19.0214C35.8045 18.9366 35.5385 18.967 35.41 18.9645C35.41 18.9645 35.4094 18.9645 35.4087 18.9645C35.3891 18.9645 35.3733 18.9803 35.3733 18.9993V20.6512C35.3739 20.6727 35.3917 20.6905 35.4132 20.6905Z" fill="white"/>
<path d="M32.9089 18.9728L32.4669 18.9735C32.4407 18.9736 32.4195 18.9949 32.4195 19.0211L32.4223 20.642C32.4224 20.6683 32.4437 20.6895 32.4699 20.6894L32.9119 20.6887C32.9381 20.6886 32.9593 20.6673 32.9593 20.6411L32.9564 19.0202C32.9564 18.994 32.9351 18.9727 32.9089 18.9728Z" fill="white"/>
<path d="M9.27783 19.3096H7.94817C7.91005 19.3096 7.87915 19.3405 7.87915 19.3786V19.6217C7.87915 19.6598 7.91005 19.6907 7.94817 19.6907H9.27783C9.31595 19.6907 9.34684 19.6598 9.34684 19.6217V19.3786C9.34684 19.3405 9.31595 19.3096 9.27783 19.3096Z" fill="white"/>
<path d="M36.9995 21.2265C36.9995 21.217 36.9938 21.2119 36.9843 21.2119L24.9876 21.2138H22.2567L17.9327 21.2157L13.7095 21.2119H3.21275C3.20325 21.2119 3.19819 21.217 3.19819 21.2265L3.19629 21.7647C3.19629 21.7761 3.20199 21.7818 3.21275 21.7818H13.6835L17.7991 21.7767L22.4105 21.7811L25.1313 21.7799L36.9881 21.7811C36.9963 21.7811 37.0001 21.7773 37.0001 21.7691V21.2265H36.9995Z" fill="white"/>
<circle cx="20" cy="20" r="19.5" stroke="black" stroke-opacity="0.05"/>
</svg>
