<svg width="40" height="40" viewBox="0 0 40 40" fill="none" xmlns="http://www.w3.org/2000/svg">
<circle cx="20" cy="20" r="20" fill="#1E1E23"/>
<path d="M5.34998 16.5748C5.34998 16.8248 5.36498 16.8998 5.41998 16.8998C5.45998 16.8998 5.52998 16.9348 5.56998 16.9798C5.63998 17.0498 5.64998 17.4098 5.64998 20.1798V23.2998H7.61998C8.88498 23.2998 9.60498 23.2798 9.62498 23.2498C9.63998 23.2248 9.69498 23.1998 9.73998 23.1998C9.78998 23.1998 9.98998 23.1198 10.195 23.0248C10.67 22.7948 11.03 22.4298 11.285 21.9148L11.475 21.5298L11.49 19.9048C11.505 18.4998 11.495 18.2298 11.42 17.9598C11.205 17.1498 10.47 16.4748 9.60498 16.2948C9.06998 16.1798 7.63498 16.4098 6.93998 16.7198C6.86498 16.7548 6.84998 16.7348 6.84998 16.5848C6.84998 16.2948 6.73498 16.2498 5.98998 16.2498H5.34998V16.5748ZM9.73498 17.3798C9.97998 17.5798 10.135 17.8048 10.225 18.1148C10.315 18.4248 10.335 20.9398 10.245 21.3448C10.175 21.6748 9.94998 22.0148 9.69498 22.1848L9.48498 22.3248L8.16498 22.3398L6.84998 22.3548V20.0248V17.6948L7.12998 17.5698C7.58998 17.3648 8.55998 17.1998 9.18498 17.2148C9.49998 17.2248 9.56498 17.2448 9.73498 17.3798Z" fill="white"/>
<path d="M28.0499 16.5748C28.0499 16.8248 28.0649 16.8998 28.1199 16.8998C28.1599 16.8998 28.2299 16.9348 28.2699 16.9798C28.3399 17.0448 28.3499 17.3098 28.3499 19.0998C28.3499 21.2748 28.3649 21.4698 28.5899 21.9448C28.9599 22.7248 29.9549 23.3498 30.7299 23.2848C31.5949 23.2198 32.7499 22.9598 32.9249 22.7948C32.9999 22.7198 33.0499 22.7448 33.0499 22.8498C33.0499 22.8998 33.1299 23.0248 33.2349 23.1248C33.3749 23.2598 33.4549 23.2998 33.5999 23.2998C33.6999 23.2998 33.7999 23.2848 33.8199 23.2648C33.8399 23.2398 34.0649 23.1798 34.3149 23.1248L34.7749 23.0248L34.7899 22.8398C34.8049 22.6748 34.7949 22.6548 34.6549 22.6248C34.5699 22.6098 34.4449 22.5248 34.3749 22.4398L34.2499 22.2898V19.2698V16.2498H33.6249H32.9999V19.0398V21.8298L32.7799 21.9398C32.4649 22.0898 32.0749 22.1798 31.3049 22.2748C30.5199 22.3748 30.3599 22.3448 30.0449 22.0648C29.5749 21.6398 29.5499 21.4698 29.5499 18.5898V16.2498H28.7999H28.0499V16.5748Z" fill="white"/>
<path d="M15.03 18.1298C13.8 18.2898 13.46 18.4198 13.05 18.8848C12.64 19.3498 12.64 19.3448 12.66 20.7648L12.675 22.0248L12.815 22.2898C13.015 22.6648 13.305 22.9348 13.73 23.1298L14.095 23.2998H15.01C15.515 23.2998 15.95 23.2798 15.98 23.2598C16.005 23.2348 16.13 23.1798 16.26 23.1298C16.56 23.0198 16.92 22.7048 17.1 22.3798C17.185 22.2398 17.25 22.0998 17.25 22.0698C17.25 22.0448 17.14 21.9898 17.01 21.9548C16.775 21.8948 16.76 21.8998 16.48 22.0698C16.075 22.3148 15.8 22.3598 14.915 22.3398C14.16 22.3248 14.15 22.3248 14.015 22.1848C13.89 22.0648 13.875 22.0048 13.86 21.6498L13.84 21.2498H14.81C15.55 21.2498 15.845 21.2298 16.05 21.1698C16.785 20.9498 17.29 20.3098 17.34 19.5198C17.375 18.9698 17.285 18.6848 16.98 18.3698C16.575 17.9548 16.455 17.9398 15.03 18.1298ZM16.02 18.9798C16.085 19.0048 16.1 19.0998 16.1 19.5098C16.1 19.9948 16.095 20.0098 15.955 20.1548L15.81 20.2998H14.83H13.85V19.9048C13.85 19.5548 13.865 19.4898 13.975 19.3598C14.125 19.1848 14.19 19.1648 15 19.0498C15.71 18.9498 15.91 18.9348 16.02 18.9798Z" fill="white"/>
<path d="M19.0549 18.0999C18.9099 18.1499 18.7549 18.2249 18.7049 18.2599C18.5499 18.3749 18.2499 18.6699 18.2499 18.7049C18.2499 18.7249 18.4249 18.7999 18.6449 18.8749C18.9999 18.9899 19.0649 18.9999 19.3549 18.9499C19.5299 18.9249 19.9999 18.8999 20.3999 18.8999C21.3249 18.8999 21.3499 18.9149 21.3499 19.3999V19.7449L20.2649 19.7599C19.1899 19.7749 19.1699 19.7749 18.8899 19.9149C18.5199 20.0999 18.2199 20.4049 18.0399 20.7849C17.7699 21.3599 17.7899 22.3099 18.0849 22.7549C18.3249 23.1199 19.0349 23.4299 19.2299 23.2549C19.2549 23.2299 19.6599 23.0849 20.1349 22.9299C20.6099 22.7699 21.0749 22.5899 21.1749 22.5249L21.3499 22.4049V22.5749C21.3499 22.8149 21.4249 22.9849 21.6099 23.1549C21.7699 23.2999 22.0249 23.3499 22.1299 23.2549C22.1549 23.2299 22.3949 23.1399 22.6649 23.0499L23.1499 22.8899V22.6749C23.1499 22.4749 23.1399 22.4549 23.0049 22.4249C22.9249 22.4099 22.8099 22.3399 22.7449 22.2699C22.6249 22.1449 22.6249 22.1299 22.5999 20.7599L22.5749 19.3749L22.4299 19.0649C22.2649 18.6999 21.8699 18.2999 21.5149 18.1349C21.2949 18.0349 21.1849 18.0249 20.2999 18.0099C19.4349 17.9999 19.2949 18.0099 19.0549 18.0999ZM21.2399 20.7299C21.3349 20.7949 21.3499 20.8499 21.3499 21.1299C21.3499 21.4099 21.3349 21.4699 21.2299 21.5649C21.1199 21.6649 19.6099 22.1999 19.4349 22.1999C19.3949 22.1999 19.3049 22.1549 19.2299 22.0949C19.1049 21.9949 19.0999 21.9699 19.0999 21.5049C19.0999 20.7199 19.1949 20.6549 20.3499 20.6499C20.9749 20.6499 21.1499 20.6649 21.2399 20.7299Z" fill="white"/>
<path d="M23.7 18.3198C23.7 18.6148 23.71 18.6398 23.82 18.6698C23.885 18.6848 23.95 18.7498 23.97 18.8098C23.985 18.8748 24 19.9098 24 21.1098V23.2998H24.6H25.2V21.2598V19.2248L25.43 19.0848C25.725 18.9098 25.975 18.8548 26.515 18.8498H26.95V18.4198V17.9898L26.365 18.0048C25.805 18.0248 25.76 18.0348 25.49 18.1898C25.27 18.3098 25.2 18.3348 25.2 18.2748C25.2 18.2348 25.155 18.1548 25.1 18.0998C25.01 18.0098 24.935 17.9998 24.35 17.9998H23.7V18.3198Z" fill="white"/>
<circle cx="20" cy="20" r="19.5" stroke="black" stroke-opacity="0.05"/>
</svg>
