<svg width="40" height="40" viewBox="0 0 40 40" fill="none" xmlns="http://www.w3.org/2000/svg">
<circle cx="20" cy="20" r="20" fill="#F6F8FA"/>
<path d="M15.5288 24.2107C15.5253 24.2051 15.5281 24.2037 15.5373 24.2065C15.5401 24.2075 15.5425 24.209 15.5443 24.2111C16.7518 25.501 18.4076 26.1957 20.1792 26.1507C21.8202 26.1088 23.3263 25.4034 24.4535 24.2146" stroke="#A1C5FF" stroke-width="0.0704283"/>
<path d="M24.4532 24.2149C24.456 24.2121 24.461 24.2118 24.4684 24.2142C24.4726 24.2156 24.4761 24.2181 24.4793 24.2213C26.4136 26.2732 29.4276 26.737 31.888 25.383C32.899 24.8263 33.7385 23.9561 34.2769 22.9581C35.2819 21.095 35.2383 18.8029 34.1473 16.97C33.6667 16.1618 33.0321 15.5008 32.2444 14.9867C31.1429 14.2676 29.9142 13.9423 28.5588 14.0109C26.995 14.0898 25.5501 14.8008 24.4719 15.9364C24.4627 15.9459 24.4532 15.9449 24.4434 15.9329" stroke="#96ADF9" stroke-width="0.0704283"/>
<path d="M24.4433 15.9326C22.0315 13.3482 17.9371 13.3609 15.5391 15.9481" stroke="#A1C5FF" stroke-width="0.0704283"/>
<path d="M15.5393 15.9482L15.5273 15.9489" stroke="#9DB4FC" stroke-width="0.0704283"/>
<path d="M15.5277 15.949C15.4939 15.9057 15.4692 15.8764 15.4541 15.8609C13.4972 13.8414 10.4424 13.4188 8.01546 14.8232C6.2375 15.8518 5.10748 17.7326 5.00782 19.7676C4.94901 20.9695 5.22192 22.0946 5.82655 23.1422C6.38047 24.1021 7.22878 24.9103 8.17463 25.4188C9.05569 25.8928 9.97935 26.1375 10.9453 26.1526C12.6972 26.1805 14.3181 25.4962 15.5291 24.2109" stroke="#92F0D3" stroke-width="0.0704283"/>
<path d="M15.5278 15.9492C15.5261 15.9591 15.5229 15.9665 15.5187 15.9711C14.6675 16.9088 14.1552 18.0082 13.9823 19.2692C13.9252 19.6851 13.9087 20.0746 13.9323 20.4373C14.0256 21.8673 14.5552 23.1171 15.5211 24.1865" stroke="#2FA4D0" stroke-width="0.0704283"/>
<path d="M15.5215 24.1863C15.5257 24.1807 15.5285 24.1888 15.5296 24.211" stroke="#34B6D3" stroke-width="0.0704283"/>
<path d="M24.4434 15.9326C24.4444 15.9407 24.4476 15.9495 24.4525 15.9587" stroke="#3873F9" stroke-width="0.0704283"/>
<path d="M24.453 15.959C23.6924 16.7918 23.199 17.7616 22.9729 18.8687C22.85 19.4705 22.8169 20.0614 22.8733 20.6414C23.0046 21.9929 23.5293 23.1744 24.4467 24.1857" stroke="#226AED" stroke-width="0.0704283"/>
<path d="M24.4473 24.1855L24.4543 24.2148" stroke="#3873F9" stroke-width="0.0704283"/>
<path d="M15.5215 24.1862L15.5405 24.1845C15.5525 24.1834 15.5637 24.1781 15.5715 24.169C16.4783 23.1446 16.9941 21.9804 17.1195 20.6761C17.2505 19.3154 16.9586 18.0484 16.2437 16.8747C16.0589 16.5705 15.8243 16.2616 15.5401 15.9482" stroke="#3F7AFC" stroke-width="0.0704283"/>
<path d="M24.4473 24.1852C24.4568 24.1852 24.4656 24.1852 24.473 24.1834C24.4804 24.182 24.4871 24.1778 24.4934 24.1707C25.4523 23.097 25.977 21.8469 26.0671 20.4208C26.0819 20.1866 26.0816 19.9517 26.0664 19.7168C25.9727 18.2815 25.4428 17.0293 24.4761 15.9602C24.4666 15.95 24.4592 15.9496 24.4536 15.9584" stroke="#1652E7" stroke-width="0.0704283"/>
<path d="M24.4532 24.2149L24.4462 24.1857C24.4557 24.1857 24.4645 24.1857 24.4719 24.1839C24.4793 24.1825 24.486 24.1783 24.4923 24.1713C25.4512 23.0976 25.9759 21.8475 26.066 20.4213C26.0808 20.1871 26.0805 19.9523 26.0653 19.7174C25.9717 18.2821 25.4417 17.0298 24.4751 15.9607C24.4655 15.9505 24.4581 15.9502 24.4525 15.959C24.4476 15.9498 24.4444 15.941 24.4434 15.9329C24.4532 15.9449 24.4627 15.9459 24.4719 15.9364C25.5501 14.8008 26.995 14.0898 28.5588 14.0109C29.9142 13.9423 31.1429 14.2676 32.2444 14.9867C33.0321 15.5008 33.6667 16.1618 34.1473 16.97C35.2383 18.8029 35.2819 21.095 34.2769 22.9581C33.7385 23.9561 32.899 24.8263 31.888 25.383C29.4276 26.737 26.4136 26.2732 24.4793 24.2213C24.4761 24.2181 24.4726 24.2156 24.4684 24.2142C24.461 24.2118 24.456 24.2121 24.4532 24.2149Z" fill="#2C5BF2"/>
<path d="M15.5277 15.949C15.5259 15.9588 15.5228 15.9662 15.5185 15.9708C14.6674 16.9086 14.155 18.008 13.9821 19.269C13.9251 19.6849 13.9085 20.0743 13.9321 20.437C14.0255 21.8671 14.5551 23.1168 15.521 24.1863C15.5252 24.1806 15.528 24.1887 15.5291 24.2109C14.3181 25.4962 12.6972 26.1805 10.9453 26.1526C9.97935 26.1375 9.05569 25.8928 8.17463 25.4188C7.22878 24.9103 6.38047 24.1021 5.82655 23.1422C5.22192 22.0942 4.94901 20.9695 5.00782 19.7676C5.10748 17.7326 6.2375 15.8518 8.01546 14.8232C10.4424 13.4188 13.4972 13.8414 15.4541 15.8609C15.4692 15.8764 15.4939 15.9057 15.5277 15.949Z" fill="#24E0A6"/>
<path d="M24.4444 15.9326C24.4455 15.9407 24.4486 15.9495 24.4536 15.9586C23.6929 16.7914 23.1996 17.7612 22.9735 18.8684C22.8506 19.4702 22.8175 20.0611 22.8738 20.6411C23.0052 21.9926 23.5299 23.174 24.4472 24.1854L24.4543 24.2146C23.3271 25.4034 21.8209 26.1088 20.18 26.1507C18.4083 26.1957 16.7526 25.501 15.5451 24.2111C15.5433 24.209 15.5409 24.2076 15.538 24.2065C15.5289 24.2037 15.5261 24.2051 15.5296 24.2107C15.5285 24.1885 15.5257 24.1804 15.5215 24.1861L15.5405 24.1843C15.5525 24.1833 15.5637 24.178 15.5715 24.1688C16.4783 23.1444 16.9941 21.9803 17.1195 20.6759C17.2505 19.3152 16.9586 18.0482 16.2437 16.8746C16.0589 16.5703 15.8243 16.2615 15.5401 15.9481C17.9382 13.3609 22.0326 13.3482 24.4444 15.9326Z" fill="#438BFF"/>
<path d="M24.453 15.9584C24.4586 15.9496 24.466 15.95 24.4755 15.9602C25.4422 17.0293 25.9721 18.2815 26.0658 19.7168C26.0809 19.9517 26.0813 20.1866 26.0665 20.4208C25.9764 21.8469 25.4517 23.097 24.4928 24.1707C24.4864 24.1778 24.4798 24.182 24.4724 24.1834C24.465 24.1848 24.4562 24.1855 24.4467 24.1852C23.5293 23.1738 23.0046 21.9924 22.8733 20.6408C22.8169 20.0609 22.85 19.47 22.9729 18.8682C23.199 17.761 23.6924 16.7912 24.453 15.9584Z" fill="#0049DB"/>
<path d="M15.5278 15.9489L15.5398 15.9482C15.824 16.2616 16.0585 16.5705 16.2434 16.8747C16.9582 18.0484 17.2501 19.3154 17.1191 20.6761C16.9938 21.9804 16.4779 23.1446 15.5711 24.169C15.5634 24.1781 15.5521 24.1834 15.5401 24.1845L15.5211 24.1862C14.5552 23.1168 14.0256 21.867 13.9323 20.437C13.9087 20.0743 13.9252 19.6848 13.9823 19.2689C14.1552 18.0079 14.6675 16.9085 15.5187 15.9708C15.5229 15.9662 15.5261 15.9588 15.5278 15.9489Z" fill="#3A68F9"/>
<circle cx="20" cy="20" r="19.5" stroke="black" stroke-opacity="0.05"/>
</svg>
