<svg width="40" height="40" viewBox="0 0 40 40" fill="none" xmlns="http://www.w3.org/2000/svg">
<circle cx="20" cy="20" r="20" fill="#79C1D5"/>
<path d="M11.0355 28.5286C11.0352 22.6941 11.0352 16.9047 11.0352 11.1153C11.097 11.0937 11.1589 11.0721 11.2208 11.0505C11.9686 11.6273 12.7217 12.1974 13.463 12.7825C14.8763 13.8982 16.2821 15.0233 17.6925 16.1427C18.3298 16.6485 18.9743 17.1452 19.6082 17.6552C19.9068 17.8955 20.1484 17.9175 20.4779 17.6547C23.091 15.5703 25.7193 13.505 28.3449 11.4364C28.5169 11.3009 28.7053 11.1863 28.9762 11C29.0036 11.243 29.0336 11.3853 29.0336 11.5276C29.0359 17.1597 29.0365 22.7918 29.0293 28.4238C29.0291 28.5761 28.9398 28.7282 28.8921 28.8804C28.771 28.8274 28.6317 28.7974 28.5315 28.718C27.1197 27.5996 25.7144 26.4729 24.305 25.3514C22.6245 24.0141 20.9421 22.6793 19.259 21.3454C19.087 21.2091 18.9042 21.0865 18.7264 20.9576C18.6801 20.9943 18.6338 21.0309 18.5875 21.0676C18.7645 21.3331 18.9114 21.6268 19.1258 21.8575C19.4333 22.1885 19.4865 22.4358 19.0898 22.7444C17.6954 23.8296 16.317 24.9354 14.9323 26.0329C13.8056 26.9258 12.6764 27.8155 11.5533 28.7129C11.3003 28.915 11.0989 29.0285 11.0355 28.5286ZM25.4032 22.2934C25.5669 22.3887 25.7306 22.484 25.9738 22.6256C25.9738 20.7961 25.9738 19.095 25.9738 17.3767C25.8783 17.3937 25.8167 17.3864 25.7816 17.4135C24.7536 18.2064 23.7237 18.997 22.7142 19.8128C22.6546 19.8609 22.7057 20.1866 22.8016 20.2644C23.6352 20.941 24.4908 21.5904 25.4032 22.2934ZM16.4835 19.1018C15.77 18.5399 15.0566 17.9781 14.3143 17.3934C14.2354 17.5299 14.1596 17.6001 14.1592 17.6708C14.1508 19.1955 14.1414 20.7203 14.1568 22.2448C14.1602 22.5767 14.3632 22.6089 14.6109 22.4109C15.4741 21.721 16.3392 21.0337 17.2023 20.3437C17.4893 20.1142 17.5753 19.9047 17.1827 19.6724C16.9477 19.5333 16.7528 19.3263 16.4835 19.1018Z" fill="white"/>
<circle cx="20" cy="20" r="19.5" stroke="black" stroke-opacity="0.05"/>
</svg>
