<svg width="40" height="40" viewBox="0 0 40 40" fill="none" xmlns="http://www.w3.org/2000/svg">
<circle cx="20" cy="20" r="20" fill="#F6F8FA"/>
<path d="M28.8455 12.0555C26.8517 10.3037 24.0127 9.28677 21.3607 9.75578C19.0906 10.1564 17.2102 11.1916 15.7196 12.8617C14.2649 14.4908 13.4239 16.5762 13.3414 18.7587C13.259 20.9412 13.9402 23.0841 15.2679 24.8183C16.5539 26.4911 18.3514 27.6976 20.3866 28.2542C22.4218 28.8108 24.5832 28.687 26.5415 27.9015C28.4298 27.14 29.9464 25.8792 31.0912 24.1191C31.4402 23.5788 32.2119 23.9721 31.9449 24.6022C31.3611 26.0059 30.5265 27.2917 29.4821 28.3964C24.1781 33.9479 15.1566 33.4756 10.4967 27.3741C5.28347 20.5442 8.64546 10.7511 16.77 8.28389C21.2667 6.919 26.0358 8.15097 29.3707 11.5C29.4103 11.5327 29.4429 11.5731 29.4664 11.6188C29.4899 11.6644 29.5039 11.7144 29.5076 11.7656C29.5112 11.8168 29.5044 11.8683 29.4876 11.9168C29.4708 11.9653 29.4442 12.0099 29.4096 12.0479C29.3426 12.1376 29.2249 12.1711 29.0552 12.1484C28.9777 12.1385 28.9049 12.1062 28.8455 12.0555Z" fill="#102C49"/>
<path d="M27.507 22.6364C29.1162 19.0216 27.2239 14.7399 23.5215 13.4042C20.2514 12.223 16.8148 13.4669 14.9841 16.4096C14.9665 16.4394 14.9424 16.4649 14.9137 16.4842C14.885 16.5036 14.8523 16.5163 14.8181 16.5215C14.7839 16.5267 14.7489 16.5242 14.7157 16.5141C14.6826 16.5041 14.6521 16.4869 14.6264 16.4636C14.5894 16.4358 14.5623 16.3969 14.5491 16.3525C14.5358 16.3082 14.5372 16.2607 14.5529 16.2172C16.6408 10.5523 23.5809 8.75294 28.2484 12.4078C29.8368 13.6606 30.9305 15.4351 31.3357 17.4171C31.741 19.399 31.4318 21.4605 30.4627 23.2362C28.3413 27.1137 23.7463 28.7131 19.604 27.1883C19.5687 27.1785 19.5361 27.161 19.5084 27.137C19.4807 27.1131 19.4587 27.0832 19.444 27.0497C19.4293 27.0162 19.4223 26.9798 19.4234 26.9432C19.4246 26.9066 19.4338 26.8707 19.4506 26.8381C19.4733 26.7927 19.5101 26.7559 19.5555 26.7331C19.6009 26.7103 19.6524 26.7028 19.7024 26.7117C23.0147 27.2855 26.1486 25.6829 27.507 22.6364Z" fill="#75777A"/>
<path d="M25.3118 24.4682C21.5164 27.4552 15.9401 25.8461 14.4336 21.238C14.3961 21.1494 14.3892 21.0508 14.4141 20.9578C14.4389 20.8648 14.4941 20.7828 14.5709 20.7247C14.6678 20.6441 14.7869 20.5947 14.9124 20.5832C18.8598 20.1732 22.3331 21.215 25.3323 23.7085C25.389 23.755 25.4344 23.8138 25.4648 23.8806C25.4953 23.9473 25.5101 24.0201 25.5081 24.0934C25.5062 24.1667 25.4874 24.2386 25.4534 24.3035C25.4194 24.3685 25.3709 24.4248 25.3118 24.4682Z" fill="#5FA033"/>
<circle cx="20" cy="20" r="19.5" stroke="black" stroke-opacity="0.05"/>
</svg>
