<svg width="40" height="40" viewBox="0 0 40 40" fill="none" xmlns="http://www.w3.org/2000/svg">
<circle cx="20" cy="20" r="20" fill="white"/>
<circle cx="20" cy="20" r="20" fill="#FFCD00"/>
<circle cx="20" cy="20" r="19.5" stroke="black" stroke-opacity="0.05"/>
<path fill-rule="evenodd" clip-rule="evenodd" d="M9.58348 16C7.0515 16 5 17.632 5 19.6446C5 20.938 5.85026 22.0737 7.1267 22.7214L6.69426 24.345C6.68633 24.369 6.68527 24.3947 6.69118 24.4192C6.69709 24.4438 6.70974 24.4662 6.72768 24.4838C6.73995 24.4963 6.75462 24.506 6.77079 24.5125C6.78696 24.519 6.80429 24.5222 6.82169 24.5217C6.85062 24.5208 6.87848 24.5104 6.90108 24.4922L8.75829 23.2304C9.03495 23.2715 9.31426 23.2919 9.59393 23.2914C12.1238 23.2914 14.1753 21.6615 14.1753 19.6467C14.1753 17.632 12.1134 16 9.58348 16Z" fill="#1E1E1E"/>
<path d="M18.0274 22.6708V25.0242H16.3561V16.3469H17.5302L17.7391 16.8979C17.9656 16.66 18.2387 16.4719 18.5411 16.3456C18.8435 16.2193 19.1687 16.1574 19.496 16.1639C21.1276 16.1639 21.9026 17.3921 21.8901 19.3774C21.8901 21.4553 20.6931 22.7865 18.9821 22.7865C18.6601 22.7909 18.3391 22.752 18.0274 22.6708ZM18.0274 17.7475V21.5057C18.2049 21.5263 18.3834 21.5375 18.5622 21.5394C19.7488 21.5394 20.2042 20.6981 20.2042 19.3816C20.2042 18.2228 19.8971 17.5225 18.9507 17.5225C18.6301 17.5273 18.3147 17.6042 18.0274 17.7475Z" fill="#1E1E1E"/>
<path d="M25.5194 18.793H26.4658V18.5827C26.4658 17.895 26.0772 17.5732 25.4045 17.5732C24.8109 17.5889 24.2275 17.7323 23.6935 17.9938L23.2381 16.8687C23.9284 16.4197 24.731 16.1768 25.5528 16.1683C27.1489 16.1683 28.0159 17.0096 28.0159 18.6352V22.6185H26.8501L26.6788 22.0906C26.0061 22.5848 25.3899 22.7909 24.8321 22.7909C23.612 22.7909 22.9268 22.057 22.9268 20.8161C22.9185 19.4933 23.8314 18.793 25.5194 18.793ZM26.4658 21.0075V19.8592H25.7011C24.8467 19.8592 24.4122 20.1705 24.4122 20.7888C24.4122 21.2599 24.6524 21.4891 25.1413 21.4891C25.6219 21.4721 26.0852 21.3036 26.4658 21.0075Z" fill="#1E1E1E"/>
<path d="M33.0552 21.9731C32.4745 23.5335 31.7788 24.6692 30.7572 25.3001L29.7315 24.3474C30.2951 23.8761 30.7632 23.2998 31.1103 22.6502L28.9 16.5766L30.5525 16.1286L31.9668 21.054L33.3686 16.1055L35.0002 16.566L33.0552 21.9731Z" fill="#1E1E1E"/>
<circle cx="20" cy="20" r="19.5" stroke="black" stroke-opacity="0.05"/>
</svg>
