<svg width="40" height="40" viewBox="0 0 40 40" fill="none" xmlns="http://www.w3.org/2000/svg">
<circle cx="20" cy="20" r="20" fill="#52AAC0"/>
<ellipse cx="20" cy="20.2107" rx="11" ry="11.0002" fill="#FCFCFC"/>
<path fill-rule="evenodd" clip-rule="evenodd" d="M29.9916 24.8562C28.7515 25.7098 27.169 26.603 25.4816 27.2007C23.0901 28.0477 20.3701 28.3397 18.1366 26.9102C17.3713 26.4204 16.9888 25.7505 16.9473 24.9706C16.9079 24.2309 17.178 23.4484 17.5746 22.69C18.3319 21.2419 19.6789 19.6513 20.883 18.2295L21.0522 18.0295C21.6845 17.2823 22.2692 16.5848 22.7242 15.9618C23.1894 15.3247 23.4725 14.8259 23.5595 14.4716C23.6009 14.3031 23.585 14.2169 23.5696 14.1783C23.5588 14.1512 23.5299 14.0979 23.4045 14.0388C23.1102 13.9002 22.4826 13.8237 21.3176 13.9503C19.4257 14.156 18.1045 14.0869 17.2448 13.7805C16.8065 13.6242 16.4541 13.3942 16.221 13.0742C15.9832 12.7475 15.9047 12.375 15.9321 12.0059C15.9838 11.3067 16.4162 10.5786 16.9161 9.9479C17.0321 9.80167 17.155 9.65656 17.2829 9.51368C17.8516 9.36695 18.4382 9.26457 19.0387 9.21045C18.5631 9.62939 18.0917 10.1046 17.7143 10.5806C17.2403 11.1786 16.9758 11.7024 16.9478 12.0811C16.9352 12.251 16.9712 12.374 17.0444 12.4746C17.1225 12.5819 17.278 12.711 17.5868 12.8211C18.2213 13.0473 19.3514 13.1395 21.2076 12.9377C22.3852 12.8097 23.2663 12.8478 23.8386 13.1174C24.1464 13.2624 24.3903 13.4866 24.5157 13.801C24.6364 14.1038 24.6202 14.4231 24.5486 14.7145C24.4097 15.2801 24.0164 15.9192 23.5467 16.5624C23.0667 17.2198 22.458 17.945 21.8298 18.6874L21.6972 18.844L21.6972 18.8441C20.4616 20.3038 19.1804 21.8173 18.4772 23.162C18.1131 23.8581 17.9393 24.4459 17.9643 24.9165C17.9873 25.3469 18.1778 25.7273 18.6856 26.0524C20.5262 27.2304 22.8648 27.047 25.1415 26.2406C27.364 25.4534 29.4156 24.1091 30.6453 23.0922C30.4771 23.7032 30.2576 24.2928 29.9916 24.8562Z" fill="#51A7BD"/>
<circle cx="20" cy="20" r="19.5" stroke="#52AAC0"/>
</svg>
