<svg width="40" height="40" viewBox="0 0 40 40" fill="none" xmlns="http://www.w3.org/2000/svg">
<circle cx="20" cy="20" r="20" fill="#F6F8FA"/>
<path d="M28.6186 12.0444C28.5452 11.9195 28.4406 11.8134 28.3139 11.7353L22.7093 8.18161C22.1335 7.96722 21.4981 7.94188 20.9052 8.10966L17.2969 9.84972L17.5272 16.5205L19.9061 14.491C20.1219 14.3759 20.3642 14.3123 20.6119 14.3057C20.8597 14.2992 21.1053 14.3499 21.3276 14.4534L24.0979 16.5205L27.7823 13.8744C28.5996 13.2072 28.7311 12.5612 28.6186 12.0444Z" fill="url(#paint0_linear_14382_20958)"/>
<path d="M20.9052 8.10962L13.2663 11.5178C12.8763 11.7115 12.5513 12.004 12.3277 12.3625C12.1041 12.721 11.9909 13.1313 12.0006 13.5473L12.0768 26.4179C12.0768 26.4179 12.0006 27.8685 12.9979 28.4851L18.3912 31.7477V11.0092C18.3912 11.0092 18.1021 9.34271 20.9052 8.10962Z" fill="url(#paint1_linear_14382_20958)"/>
<path d="M29.9655 17.971C29.9655 17.971 28.8903 13.7288 28.8522 12.8587C28.8498 12.5719 28.7699 12.2905 28.6202 12.041C28.7328 12.5578 28.6012 13.2038 27.777 13.871L24.0926 16.5171L15.5325 22.2819L19.8316 24.82C21.866 25.5805 23.1715 24.493 23.1715 24.493C23.1715 24.493 27.8151 21.4478 29.0444 20.5418C30.2737 19.6358 29.9655 17.971 29.9655 17.971Z" fill="url(#paint2_linear_14382_20958)"/>
<circle cx="20" cy="20" r="19.5" stroke="black" stroke-opacity="0.05"/>
<defs>
<linearGradient id="paint0_linear_14382_20958" x1="18.8816" y1="12" x2="28.926" y2="13.1194" gradientUnits="userSpaceOnUse">
<stop stop-color="#1F3E9B"/>
<stop offset="0.473422" stop-color="#6C94C5"/>
<stop offset="1" stop-color="#B9E0F7"/>
</linearGradient>
<linearGradient id="paint1_linear_14382_20958" x1="17.2935" y1="9.5" x2="7.43423" y2="17.4963" gradientUnits="userSpaceOnUse">
<stop offset="0.0469177" stop-color="#B9E0F7"/>
<stop offset="1" stop-color="#1F3E9B"/>
</linearGradient>
<linearGradient id="paint2_linear_14382_20958" x1="18.3522" y1="24" x2="27.8949" y2="13.0868" gradientUnits="userSpaceOnUse">
<stop offset="0.0469177" stop-color="#B9E0F7"/>
<stop offset="1" stop-color="#1F3E9B"/>
</linearGradient>
</defs>
</svg>
