<svg width="40" height="40" viewBox="0 0 40 40" fill="none" xmlns="http://www.w3.org/2000/svg">
<circle cx="20" cy="20" r="20" fill="#F6F8FA"/>
<g clip-path="url(#clip0_29142_48198)">
<path d="M32.9001 24.9999C31.3943 24.9999 23.2441 24.9999 7.25434 24.9999C7.08703 24.9999 6.97948 24.9999 6.94363 24.9999C6.78827 24.9765 6.64486 24.9298 6.50146 24.8364C6.37 24.7547 6.2505 24.638 6.16684 24.5096C6.08319 24.3812 6.03539 24.2528 6.02344 24.1244C6.02344 24.0894 6.02344 23.9843 6.02344 23.8209V17.1322C6.02344 16.9921 6.02344 16.922 6.02344 16.9104C6.02344 16.8053 6.05929 16.7119 6.10709 16.6069C6.2505 16.2684 6.56121 16.0349 6.93167 15.9765C6.97948 15.9765 7.08703 15.9649 7.24239 15.9649H22.7183C22.6824 15.5563 22.7541 15.1594 22.9334 14.7859C22.9692 14.7042 23.029 14.6108 23.0887 14.5174C23.4473 13.9687 24.0328 13.5952 24.6901 13.4901C24.7738 13.4785 24.8694 13.4668 24.965 13.4668C25.1203 13.4668 25.3115 13.4668 25.5027 13.5018C26.0644 13.6185 26.5305 13.887 26.889 14.3306C27.1161 14.6108 27.2714 14.9259 27.3431 15.2761C27.3909 15.5096 27.4029 15.7314 27.379 15.9649H32.8523C32.9957 15.9649 33.1032 15.9649 33.1869 15.9882C33.6171 16.0933 33.9517 16.4435 34.0115 16.8754C34.0115 16.9104 34.0115 17.0154 34.0115 17.1789V23.9493C34.0115 24.2061 33.9278 24.4279 33.7605 24.6263C33.5454 24.8715 33.2586 24.9999 32.912 24.9999H32.9001ZM20.2804 24.2645C27.7853 24.2645 31.8723 24.2645 32.8881 24.2645C33.0076 24.2645 33.0913 24.2294 33.163 24.1477C33.2228 24.0894 33.2467 24.0193 33.2467 23.9493V17.1789C33.2467 17.0738 33.2467 17.0038 33.2467 16.9687C33.2347 16.8403 33.1271 16.7353 32.9957 16.7119C32.9957 16.7119 32.9479 16.7119 32.8284 16.7119H26.5305V16.2567L26.5544 16.21C26.6261 15.9532 26.638 15.6964 26.5783 15.4396C26.5305 15.1944 26.4229 14.9843 26.2676 14.7975C26.0166 14.494 25.7059 14.3073 25.3235 14.2372C25.2159 14.2139 25.1084 14.2139 24.9411 14.2139C24.8813 14.2139 24.8335 14.2139 24.7738 14.2256C24.3196 14.2956 23.9253 14.5407 23.6743 14.9259C23.6385 14.9843 23.6026 15.0427 23.5787 15.101C23.4114 15.4629 23.3755 15.8364 23.4951 16.2333L23.6026 16.5835L23.1365 16.7003H7.23044C7.12288 16.7003 7.06313 16.7003 7.02728 16.7003C6.91972 16.7119 6.82412 16.7936 6.77632 16.8987C6.76437 16.922 6.75242 16.9571 6.75242 16.9804C6.75242 16.9804 6.75242 17.0388 6.75242 17.1438V23.8209C6.75242 23.9259 6.75242 23.996 6.75242 24.031C6.75242 24.066 6.77632 24.101 6.80022 24.1361C6.82412 24.1828 6.85997 24.2178 6.90777 24.2411C6.95558 24.2645 6.99143 24.2878 7.05118 24.2878C7.07508 24.2878 7.14678 24.2878 7.26629 24.2878C12.405 24.2878 16.743 24.2878 20.3043 24.2878L20.2804 24.2645Z" fill="#809CC9"/>
<path d="M9.01078 22.6651L12.1299 18.1826C12.1299 18.1826 12.1299 18.1826 12.1299 18.171V18.0659H7.82768L7.66037 19.5367H7.87548C7.92328 19.4317 7.95913 19.3616 7.98303 19.3033C8.03084 19.1982 8.09059 19.0932 8.16229 18.9764C8.29375 18.7546 8.47301 18.5912 8.71201 18.4862C8.81957 18.4395 8.95102 18.3928 9.08248 18.3694C9.27369 18.3344 9.45295 18.3111 9.6322 18.3111C9.95487 18.3111 10.2656 18.3111 10.5404 18.3111C9.42904 19.8986 8.38935 21.3928 7.42136 22.7819C7.40941 22.8052 7.39746 22.8169 7.39746 22.8286C7.39746 22.8636 7.39746 22.8869 7.39746 22.9219H12.1418L12.3569 21.1943H12.1657C12.1657 21.1943 12.1538 21.1943 12.1538 21.206C12.094 21.3928 12.0343 21.5679 11.9506 21.7313C11.8789 21.8714 11.7952 22.0114 11.6996 22.1282C11.5921 22.2566 11.4726 22.35 11.3411 22.42C11.2933 22.4433 11.2455 22.4667 11.1738 22.49C10.9707 22.5484 10.7555 22.5951 10.5404 22.6184C10.0505 22.6768 9.52465 22.6885 9.01078 22.6885" stroke="#809CC9" stroke-width="2"/>
<path d="M14.5677 20.5523C14.747 20.5523 14.9143 20.5639 15.0696 20.5989C15.2489 20.634 15.4282 20.704 15.5596 20.8441C15.6194 20.9141 15.6672 20.9842 15.703 21.0659C15.7867 21.2526 15.8464 21.4628 15.8703 21.6612H16.0615V19.2332H15.8703C15.8345 19.4083 15.7867 19.56 15.7269 19.7118C15.6791 19.8402 15.6074 19.9452 15.5357 20.027C15.3923 20.1904 15.1533 20.2604 14.9262 20.2838C14.8067 20.2954 14.6872 20.2954 14.5677 20.2954C14.5677 20.0386 14.5677 19.49 14.5677 18.6379C14.5677 18.5795 14.5677 18.5211 14.5916 18.4628C14.6275 18.346 14.7231 18.3227 14.8426 18.311C14.9023 18.311 14.9621 18.2993 15.0218 18.2993C15.2847 18.2993 15.5477 18.2993 15.8106 18.3344C15.9779 18.3577 16.1332 18.3927 16.2766 18.4511C16.3842 18.4861 16.4678 18.5445 16.5395 18.6028C16.6352 18.6845 16.7069 18.7779 16.7786 18.8947C16.8861 19.0814 16.9578 19.2916 17.0056 19.5017H17.1968V18.0542H12.5481V18.2293C12.6556 18.2293 12.7632 18.241 12.8707 18.2643C13.0261 18.2877 13.1576 18.3577 13.2173 18.5095C13.2412 18.5795 13.2532 18.6495 13.2532 18.7312C13.2532 19.6067 13.2532 20.704 13.2532 22.0231C13.2532 22.1398 13.2532 22.2215 13.2532 22.2682C13.2532 22.4316 13.1815 22.5484 13.05 22.6184C12.9903 22.6534 12.9066 22.6768 12.799 22.6884C12.7154 22.7001 12.6317 22.7118 12.5361 22.7118V22.8869H17.2566L17.5792 21.3927H17.3641C17.2327 21.6612 17.0534 21.918 16.8383 22.1398C16.6471 22.3266 16.4081 22.4667 16.1332 22.5484C15.9659 22.5951 15.7867 22.6301 15.6074 22.6534C15.4043 22.6768 15.2011 22.6768 14.9979 22.6534C14.9262 22.6534 14.8545 22.6417 14.7828 22.6184C14.735 22.6067 14.6992 22.5834 14.6753 22.5717C14.6394 22.5367 14.6036 22.5017 14.5916 22.4783C14.5677 22.42 14.5558 22.3616 14.5558 22.3149C14.5558 21.4628 14.5558 20.8791 14.5558 20.5406" stroke="#809CC9" stroke-width="2"/>
<path d="M22.3244 21.0542C22.3244 21.0542 22.3005 21.0542 22.2885 21.0542C21.8703 20.6106 20.9501 19.6067 19.528 18.0542C19.528 18.0542 19.516 18.0542 19.5041 18.0542H17.8071V18.2293C17.8788 18.2293 17.9505 18.2643 18.0222 18.2993C18.0581 18.3227 18.1059 18.3694 18.1895 18.4511C18.2851 18.5445 18.3927 18.6495 18.4883 18.7429C18.4883 18.7429 18.4883 18.7546 18.4883 18.7663C18.4883 19.8869 18.4883 21.0192 18.4883 22.1515C18.4883 22.2332 18.4883 22.3032 18.4644 22.3733C18.4405 22.4667 18.3927 22.5717 18.309 22.6184C18.2732 22.6417 18.2254 22.6651 18.1776 22.6768C18.0461 22.7118 17.9147 22.7235 17.7832 22.7351V22.9102H19.6116V22.7351C19.3487 22.7351 18.9902 22.6651 18.8946 22.3849C18.8587 22.2799 18.8468 22.1398 18.8468 22.0114C18.8468 21.381 18.8468 20.4589 18.8468 19.2098C18.8468 19.2098 18.8468 19.1982 18.8587 19.2098C18.8587 19.2098 18.8826 19.2098 18.8946 19.2098C18.8946 19.2098 18.9066 19.2098 18.9185 19.2332C20.8306 21.2993 22.0137 22.5834 22.4558 23.062C22.4558 23.062 22.4678 23.062 22.4797 23.062H22.6829C22.6829 20.7507 22.6829 19.3149 22.6829 18.7663C22.6829 18.6612 22.6949 18.5795 22.7307 18.5095C22.7546 18.4511 22.8024 18.4044 22.8502 18.381C22.9817 18.311 23.149 18.2877 23.3043 18.2643V18.0892H21.5835V18.2643C21.7149 18.2643 21.8344 18.2877 21.9539 18.3227C22.0495 18.3577 22.1451 18.4044 22.2049 18.4861C22.3005 18.6262 22.3124 18.8013 22.3244 18.9764C22.3244 18.9764 22.3244 19.6768 22.3244 21.0775" stroke="#809CC9" stroke-width="2"/>
<path d="M24.3552 20.4822C24.3552 21.5095 24.3552 22.0931 24.3552 22.2215C24.3552 22.4316 24.2715 22.6067 24.0564 22.6768C24.0086 22.6884 23.9489 22.7001 23.8891 22.7118C23.8055 22.7118 23.7099 22.7351 23.6143 22.7351V22.9102H26.4346V22.7351C26.2553 22.7351 26.1119 22.7118 25.9924 22.6768C25.837 22.6301 25.7414 22.5367 25.7056 22.3849C25.7056 22.3382 25.6936 22.2916 25.6936 22.2565C25.6936 22.1865 25.6936 21.5912 25.6936 20.4822C25.6936 19.3616 25.6936 18.7779 25.6936 18.7079C25.6936 18.6729 25.6936 18.6262 25.7056 18.5795C25.7414 18.4277 25.837 18.3344 25.9924 18.2877C26.1119 18.2526 26.2673 18.241 26.4346 18.2293V18.0542H23.6143V18.2293C23.7099 18.2293 23.7935 18.2293 23.8891 18.2526C23.9489 18.2526 24.0086 18.276 24.0564 18.2877C24.2715 18.3577 24.3552 18.5328 24.3552 18.7429C24.3552 18.8713 24.3552 19.455 24.3552 20.4822Z" stroke="#809CC9" stroke-width="2"/>
<path d="M30.1998 20.0504C30.5941 19.5951 30.9287 19.2099 31.2275 18.8947C31.2992 18.8247 31.3709 18.743 31.4546 18.6612C31.5263 18.5912 31.586 18.5328 31.6338 18.4978C31.837 18.3344 32.0999 18.2527 32.3628 18.2293V18.0659H30.3551V18.241C30.4268 18.241 30.4985 18.241 30.5702 18.2527C30.7136 18.2644 30.9407 18.3111 30.9287 18.4978C30.9287 18.6146 30.8451 18.743 30.7734 18.8363C30.6897 18.9414 30.5941 19.0698 30.4627 19.2099C30.3312 19.3616 30.1758 19.5484 29.9846 19.7702C29.7815 19.49 29.5305 19.1515 29.2437 18.778C29.184 18.6963 29.1481 18.6379 29.1242 18.5912C29.1003 18.5328 29.0884 18.4745 29.1003 18.4278C29.1123 18.3344 29.1959 18.2877 29.2915 18.276C29.4349 18.2527 29.5783 18.241 29.7337 18.241V18.0659H26.9492V18.241C27.0926 18.241 27.2241 18.2877 27.3316 18.3811C27.4511 18.4745 27.5348 18.5912 27.6304 18.7196C27.9531 19.1632 28.4669 19.8402 29.1481 20.7624C28.4072 21.6146 27.9531 22.1515 27.7738 22.35C27.6901 22.455 27.5826 22.5367 27.475 22.5951C27.4153 22.6301 27.3316 22.6651 27.236 22.6885C27.1643 22.7002 27.0687 22.7235 26.9492 22.7469V22.9219H28.9569V22.7469C28.8135 22.7469 28.682 22.7352 28.5625 22.7002C28.4072 22.6535 28.2757 22.5601 28.3235 22.385C28.3355 22.3383 28.3594 22.2799 28.3952 22.2332C28.4311 22.1749 28.4669 22.1165 28.5147 22.0581C28.5506 21.9998 28.6342 21.8947 28.7657 21.743C28.9808 21.4978 29.184 21.2644 29.3632 21.0659C29.7098 21.5328 29.9846 21.8947 30.1878 22.1749C30.2595 22.2799 30.3193 22.3733 30.3432 22.4784C30.3671 22.5834 30.3193 22.6535 30.2237 22.7002C30.1998 22.7002 30.1758 22.7118 30.1639 22.7235C30.0085 22.7469 29.8173 22.7585 29.7098 22.7585V22.9336H32.4464V22.7585C32.3269 22.7352 32.2194 22.7118 32.1238 22.6418C32.064 22.6068 32.0162 22.5484 31.9804 22.5017C31.9206 22.4317 31.8489 22.3383 31.7772 22.2099C31.7294 22.1398 31.6816 22.0698 31.6338 21.9998C30.8331 20.9258 30.3671 20.2955 30.2117 20.097C30.2117 20.097 30.2117 20.097 30.2117 20.0854" stroke="#809CC9" stroke-width="2"/>
<path d="M23.1608 16.3384C23.0174 15.8598 23.0532 15.3929 23.2564 14.9493C23.2922 14.8793 23.3281 14.7976 23.3759 14.7275C23.6866 14.2606 24.1646 13.9571 24.7263 13.8637C24.798 13.8637 24.8697 13.8521 24.9414 13.8521C25.1087 13.8521 25.2521 13.8521 25.4075 13.8754C25.8855 13.9688 26.2679 14.2022 26.5667 14.5758C26.7579 14.8092 26.8893 15.0777 26.9491 15.3696C27.0208 15.6964 27.0088 16.0233 26.9013 16.3384C28.8731 16.3384 30.845 16.3384 32.8168 16.3384C32.9363 16.3384 33.0199 16.3384 33.0677 16.3618C33.3546 16.4318 33.5697 16.6653 33.6055 16.9338C33.6055 16.9688 33.6055 17.0505 33.6055 17.1906C33.6055 21.6964 33.6055 23.9493 33.6055 23.961C33.6055 24.1244 33.5458 24.2762 33.4382 24.4046C33.2948 24.568 33.1036 24.6497 32.8765 24.6497C31.3469 24.6497 22.8023 24.6497 7.21883 24.6497C7.07543 24.6497 6.99177 24.6497 6.95592 24.6497C6.84837 24.638 6.75276 24.603 6.66911 24.5447C6.58546 24.4863 6.5018 24.4163 6.454 24.3229C6.4062 24.2412 6.37035 24.1594 6.3584 24.0777C6.3584 24.0427 6.3584 23.961 6.3584 23.8209C6.3584 21.5914 6.3584 19.3735 6.3584 17.1439C6.3584 17.0271 6.3584 16.9688 6.3584 16.9571C6.3584 16.8987 6.3823 16.8287 6.4062 16.7703C6.5018 16.5485 6.70496 16.3968 6.94397 16.3618C6.97982 16.3618 7.06348 16.3618 7.20688 16.3618C12.5129 16.3618 17.8309 16.3618 23.1369 16.3618L23.1608 16.3384ZM24.3678 14.3073C24.2483 14.3657 24.1288 14.4357 24.0212 14.5174C23.7703 14.7159 23.591 14.9727 23.4954 15.2645C23.4476 15.4046 23.4237 15.5563 23.4117 15.6964C23.4117 15.7781 23.4117 15.8482 23.4117 15.9299C23.4476 16.2217 23.5552 16.5019 23.7464 16.7353C23.9495 16.9805 24.2124 17.1672 24.5231 17.2723C24.7861 17.354 25.0729 17.3657 25.3477 17.319C25.6704 17.2606 25.9572 17.0972 26.1843 16.8754C26.4113 16.6536 26.5547 16.3618 26.6145 16.0583C26.6742 15.7314 26.6384 15.4046 26.495 15.1011C26.3516 14.8092 26.1245 14.5641 25.8496 14.4007C25.7301 14.3307 25.5987 14.2723 25.4553 14.2373C25.0968 14.1439 24.7024 14.1672 24.3558 14.319L24.3678 14.3073ZM9.01141 22.6653L12.1305 18.1828C12.1305 18.1828 12.1305 18.1828 12.1305 18.1711V18.0661H7.82831L7.661 19.5369H7.87611C7.92391 19.4318 7.95976 19.3618 7.98366 19.3034C8.03147 19.1984 8.09122 19.0933 8.16292 18.9766C8.29438 18.7548 8.47364 18.5914 8.71265 18.4863C8.8202 18.4396 8.95165 18.3929 9.08311 18.3696C9.27432 18.3345 9.45358 18.3112 9.63283 18.3112C9.9555 18.3112 10.2662 18.3112 10.5411 18.3112C9.42967 19.8987 8.38998 21.3929 7.42199 22.782C7.41004 22.8054 7.39809 22.817 7.39809 22.8287C7.39809 22.8637 7.39809 22.8871 7.39809 22.9221H12.1424L12.3575 21.1945H12.1663C12.1663 21.1945 12.1544 21.1945 12.1544 21.2061C12.0946 21.3929 12.0349 21.568 11.9512 21.7314C11.8795 21.8715 11.7959 22.0116 11.7003 22.1283C11.5927 22.2567 11.4732 22.3501 11.3418 22.4201C11.294 22.4435 11.2461 22.4668 11.1744 22.4902C10.9713 22.5485 10.7562 22.5952 10.5411 22.6186C10.0511 22.677 9.52528 22.6886 9.01141 22.6886V22.6653ZM14.5684 20.5524C14.7476 20.5524 14.9149 20.5641 15.0703 20.5991C15.2496 20.6342 15.4288 20.7042 15.5603 20.8443C15.62 20.9143 15.6678 20.9843 15.7037 21.0661C15.7873 21.2528 15.8471 21.4629 15.871 21.6614H16.0622V19.2334H15.871C15.8351 19.4085 15.7873 19.5602 15.7276 19.712C15.6798 19.8404 15.6081 19.9454 15.5364 20.0271C15.393 20.1906 15.154 20.2606 14.9269 20.284C14.8074 20.2956 14.6879 20.2956 14.5684 20.2956C14.5684 20.0388 14.5684 19.4902 14.5684 18.638C14.5684 18.5797 14.5684 18.5213 14.5923 18.4629C14.6281 18.3462 14.7237 18.3229 14.8432 18.3112C14.903 18.3112 14.9628 18.2995 15.0225 18.2995C15.2854 18.2995 15.5483 18.2995 15.8112 18.3345C15.9785 18.3579 16.1339 18.3929 16.2773 18.4513C16.3849 18.4863 16.4685 18.5447 16.5402 18.603C16.6358 18.6847 16.7075 18.7781 16.7792 18.8949C16.8868 19.0816 16.9585 19.2917 17.0063 19.5019H17.1975V18.0544H12.5488V18.2295C12.6563 18.2295 12.7639 18.2412 12.8714 18.2645C13.0268 18.2878 13.1582 18.3579 13.218 18.5096C13.2419 18.5797 13.2538 18.6497 13.2538 18.7314C13.2538 19.6069 13.2538 20.7042 13.2538 22.0233C13.2538 22.14 13.2538 22.2217 13.2538 22.2684C13.2538 22.4318 13.1821 22.5485 13.0507 22.6186C12.9909 22.6536 12.9073 22.677 12.7997 22.6886C12.7161 22.7003 12.6324 22.712 12.5368 22.712V22.8871H17.2572L17.5799 21.3929H17.3648C17.2333 21.6614 17.0541 21.9182 16.839 22.14C16.6478 22.3268 16.4088 22.4668 16.1339 22.5485C15.9666 22.5952 15.7873 22.6303 15.6081 22.6536C15.4049 22.677 15.2018 22.677 14.9986 22.6536C14.9269 22.6536 14.8552 22.6419 14.7835 22.6186C14.7357 22.6069 14.6998 22.5836 14.6759 22.5719C14.6401 22.5369 14.6042 22.5019 14.5923 22.4785C14.5684 22.4201 14.5564 22.3618 14.5564 22.3151C14.5564 21.4629 14.5564 20.8793 14.5564 20.5408L14.5684 20.5524ZM22.3243 21.0544C22.3243 21.0544 22.3004 21.0544 22.2884 21.0544C21.8701 20.6108 20.9499 19.6069 19.5278 18.0544C19.5278 18.0544 19.5159 18.0544 19.5039 18.0544H17.807V18.2295C17.8787 18.2295 17.9504 18.2645 18.0221 18.2995C18.0579 18.3229 18.1057 18.3696 18.1894 18.4513C18.285 18.5447 18.3925 18.6497 18.4881 18.7431C18.4881 18.7431 18.4881 18.7548 18.4881 18.7664C18.4881 19.8871 18.4881 21.0194 18.4881 22.1517C18.4881 22.2334 18.4881 22.3034 18.4642 22.3735C18.4403 22.4668 18.3925 22.5719 18.3089 22.6186C18.273 22.6419 18.2252 22.6653 18.1774 22.677C18.046 22.712 17.9145 22.7236 17.7831 22.7353V22.9104H19.6115V22.7353C19.3486 22.7353 18.9901 22.6653 18.8945 22.3851C18.8586 22.2801 18.8467 22.14 18.8467 22.0116C18.8467 21.3812 18.8467 20.4591 18.8467 19.21C18.8467 19.21 18.8467 19.1984 18.8586 19.21C18.8586 19.21 18.8825 19.21 18.8945 19.21C18.8945 19.21 18.9064 19.21 18.9184 19.2334C20.8304 21.2995 22.0135 22.5836 22.4557 23.0622C22.4557 23.0622 22.4677 23.0622 22.4796 23.0622H22.6828C22.6828 20.7509 22.6828 19.3151 22.6828 18.7664C22.6828 18.6614 22.6947 18.5797 22.7306 18.5096C22.7545 18.4513 22.8023 18.4046 22.8501 18.3812C22.9815 18.3112 23.1488 18.2878 23.3042 18.2645V18.0894H21.5833V18.2645C21.7148 18.2645 21.8343 18.2878 21.9538 18.3229C22.0494 18.3579 22.145 18.4046 22.2047 18.4863C22.3004 18.6264 22.3123 18.8015 22.3243 18.9766C22.3243 18.9766 22.3243 19.677 22.3243 21.0777V21.0544ZM24.3558 20.4824C24.3558 21.5096 24.3558 22.0933 24.3558 22.2217C24.3558 22.4318 24.2722 22.6069 24.0571 22.677C24.0093 22.6886 23.9495 22.7003 23.8898 22.712C23.8061 22.712 23.7105 22.7353 23.6149 22.7353V22.9104H26.4352V22.7353C26.256 22.7353 26.1126 22.712 25.9931 22.677C25.8377 22.6303 25.7421 22.5369 25.7062 22.3851C25.7062 22.3384 25.6943 22.2917 25.6943 22.2567C25.6943 22.1867 25.6943 21.5914 25.6943 20.4824C25.6943 19.3618 25.6943 18.7781 25.6943 18.7081C25.6943 18.6731 25.6943 18.6264 25.7062 18.5797C25.7421 18.4279 25.8377 18.3345 25.9931 18.2878C26.1126 18.2528 26.2679 18.2412 26.4352 18.2295V18.0544H23.6149V18.2295C23.7105 18.2295 23.7942 18.2295 23.8898 18.2528C23.9495 18.2528 24.0093 18.2762 24.0571 18.2878C24.2722 18.3579 24.3558 18.533 24.3558 18.7431C24.3558 18.8715 24.3558 19.4552 24.3558 20.4824ZM30.1996 20.0505C30.594 19.5952 30.9286 19.21 31.2274 18.8949C31.2991 18.8248 31.3708 18.7431 31.4544 18.6614C31.5261 18.5914 31.5859 18.533 31.6337 18.498C31.8368 18.3345 32.0998 18.2528 32.3627 18.2295V18.0661H30.355V18.2412C30.4267 18.2412 30.4984 18.2412 30.5701 18.2528C30.7135 18.2645 30.9406 18.3112 30.9286 18.498C30.9286 18.6147 30.845 18.7431 30.7733 18.8365C30.6896 18.9415 30.594 19.07 30.4625 19.21C30.3311 19.3618 30.1757 19.5485 29.9845 19.7703C29.7814 19.4902 29.5304 19.1517 29.2436 18.7781C29.1838 18.6964 29.148 18.638 29.1241 18.5914C29.1002 18.533 29.0882 18.4746 29.1002 18.4279C29.1121 18.3345 29.1958 18.2878 29.2914 18.2762C29.4348 18.2528 29.5782 18.2412 29.7336 18.2412V18.0661H26.9491V18.2412C27.0925 18.2412 27.224 18.2878 27.3315 18.3812C27.451 18.4746 27.5347 18.5914 27.6303 18.7198C27.9529 19.1633 28.4668 19.8404 29.148 20.7626C28.4071 21.6147 27.9529 22.1517 27.7737 22.3501C27.69 22.4552 27.5825 22.5369 27.4749 22.5952C27.4152 22.6303 27.3315 22.6653 27.2359 22.6886C27.1642 22.7003 27.0686 22.7236 26.9491 22.747V22.9221H28.9568V22.747C28.8134 22.747 28.6819 22.7353 28.5624 22.7003C28.4071 22.6536 28.2756 22.5602 28.3234 22.3851C28.3354 22.3384 28.3593 22.2801 28.3951 22.2334C28.431 22.175 28.4668 22.1166 28.5146 22.0583C28.5505 21.9999 28.6341 21.8949 28.7656 21.7431C28.9807 21.498 29.1838 21.2645 29.3631 21.0661C29.7097 21.533 29.9845 21.8949 30.1877 22.175C30.2594 22.2801 30.3191 22.3735 30.343 22.4785C30.3669 22.5836 30.3191 22.6536 30.2235 22.7003C30.1996 22.7003 30.1757 22.712 30.1638 22.7236C30.0084 22.747 29.8172 22.7587 29.7097 22.7587V22.9338H32.4463V22.7587C32.3268 22.7353 32.2193 22.712 32.1237 22.6419C32.0639 22.6069 32.0161 22.5485 31.9803 22.5019C31.9205 22.4318 31.8488 22.3384 31.7771 22.21C31.7293 22.14 31.6815 22.07 31.6337 21.9999C30.833 20.926 30.3669 20.2956 30.2116 20.0972C30.2116 20.0972 30.2116 20.0972 30.2116 20.0855L30.1996 20.0505Z" fill="#013893"/>
<path d="M26.6386 16.0467C26.5311 16.1167 26.4115 16.1868 26.292 16.2451C25.8379 16.4786 25.3002 16.4903 24.858 16.2218C24.4875 16 24.2485 15.6031 24.2246 15.1829C24.2246 15.0545 24.2246 14.9144 24.2605 14.786C24.2963 14.6226 24.3441 14.4591 24.38 14.2957C24.7265 14.144 25.1089 14.1206 25.4794 14.214C25.6109 14.249 25.7423 14.3074 25.8738 14.3774C26.1606 14.5408 26.3876 14.786 26.5191 15.0778C26.6625 15.3813 26.6984 15.7082 26.6386 16.035V16.0467Z" fill="#CCDE6E"/>
<path d="M24.3679 14.3076C24.3321 14.471 24.2843 14.6345 24.2484 14.7979C24.2245 14.9263 24.2126 15.0664 24.2126 15.1948C24.2365 15.615 24.4755 16.0119 24.8459 16.2337C25.2881 16.4905 25.8259 16.4905 26.28 16.257C26.3995 16.1987 26.519 16.1286 26.6266 16.0586C26.5668 16.3621 26.4234 16.6539 26.1963 16.8757C25.9693 17.1092 25.6705 17.2609 25.3598 17.3193C25.0849 17.3777 24.8101 17.3543 24.5352 17.2726C24.2245 17.1792 23.9616 16.9924 23.7584 16.7356C23.5672 16.5022 23.4597 16.222 23.4238 15.9302C23.4238 15.8485 23.4238 15.7784 23.4238 15.6967C23.4238 15.545 23.4597 15.4049 23.5075 15.2648C23.6031 14.973 23.7943 14.7162 24.0333 14.5177C24.1409 14.436 24.2604 14.366 24.3799 14.3076H24.3679Z" fill="#9ECB3E"/>
<path d="M9.01152 22.6655C9.52539 22.6655 10.0512 22.6539 10.5412 22.5955C10.7563 22.5722 10.9714 22.5371 11.1746 22.4671C11.2343 22.4437 11.2941 22.4204 11.3419 22.3971C11.4733 22.327 11.5928 22.2336 11.7004 22.1052C11.796 21.9885 11.8796 21.8601 11.9513 21.7083C12.035 21.5449 12.0947 21.3698 12.1545 21.183C12.1545 21.183 12.1545 21.1714 12.1665 21.1714H12.3577L12.1426 22.899H7.41016C7.41016 22.864 7.41016 22.8406 7.41016 22.8056C7.41016 22.7939 7.41016 22.7706 7.43406 22.7589C8.40205 21.3698 9.45369 19.8757 10.5531 18.2881C10.2663 18.2881 9.96756 18.2881 9.6449 18.2881C9.46564 18.2881 9.28638 18.3115 9.09518 18.3465C8.96372 18.3698 8.84422 18.4048 8.72471 18.4632C8.4857 18.5683 8.30644 18.7317 8.17499 18.9535C8.10328 19.0702 8.04353 19.1753 7.99573 19.2803C7.97183 19.3387 7.93598 19.4087 7.88818 19.5138H7.67307L7.84037 18.043H12.1306V18.148C12.1306 18.148 12.1306 18.148 12.1306 18.1597L9.01152 22.6422V22.6655Z" fill="white"/>
<path d="M14.5685 20.5523C14.5685 20.8908 14.5685 21.4745 14.5685 22.3266C14.5685 22.3733 14.5804 22.4317 14.6043 22.49C14.6163 22.5251 14.6402 22.5601 14.688 22.5834C14.7119 22.6068 14.7477 22.6184 14.7955 22.6301C14.8672 22.6535 14.9389 22.6651 15.0106 22.6651C15.2138 22.6768 15.4169 22.6651 15.6201 22.6651C15.7994 22.6535 15.9786 22.6184 16.1459 22.5601C16.4208 22.4784 16.6598 22.3383 16.851 22.1515C17.0661 21.9414 17.2454 21.6729 17.3768 21.4044H17.5919L17.2693 22.8986H12.5488V22.7235C12.6444 22.7235 12.7281 22.7235 12.8117 22.7002C12.9193 22.6885 13.0029 22.6651 13.0627 22.6301C13.1942 22.5601 13.2539 22.4433 13.2659 22.2799C13.2659 22.2332 13.2659 22.1515 13.2659 22.0348C13.2659 20.7157 13.2659 19.6184 13.2659 18.743C13.2659 18.6612 13.2539 18.5795 13.23 18.5212C13.1703 18.3694 13.0388 18.2994 12.8834 18.276C12.7759 18.2527 12.6683 18.241 12.5608 18.241V18.0659H17.2095V19.5134H17.0183C16.9705 19.3033 16.8988 19.0932 16.7913 18.9064C16.7195 18.7897 16.6478 18.6963 16.5522 18.6146C16.4805 18.5562 16.3969 18.4978 16.2893 18.4628C16.1459 18.4044 15.9906 18.3694 15.8233 18.3461C15.5604 18.3111 15.2974 18.2994 15.0345 18.3111C14.9748 18.3111 14.915 18.3111 14.8553 18.3227C14.7358 18.3344 14.6402 18.3577 14.6043 18.4745C14.5804 18.5328 14.5804 18.5795 14.5804 18.6496C14.5804 19.5017 14.5804 20.0504 14.5804 20.3072C14.6999 20.3072 14.8194 20.3072 14.9389 20.2955C15.166 20.2721 15.405 20.2138 15.5484 20.0387C15.6201 19.957 15.6799 19.8519 15.7396 19.7235C15.7994 19.5718 15.8472 19.4083 15.883 19.2449H16.0742V21.6729H15.883C15.8472 21.4628 15.7994 21.2527 15.7157 21.0776C15.6799 20.9959 15.6321 20.9258 15.5723 20.8558C15.4528 20.7157 15.2616 20.6457 15.0823 20.6107C14.927 20.5756 14.7597 20.564 14.5804 20.564L14.5685 20.5523Z" fill="white"/>
<path d="M22.3244 21.0429C22.3244 19.6421 22.3244 18.9417 22.3244 18.9417C22.3244 18.7666 22.3005 18.5915 22.2049 18.4514C22.1451 18.3697 22.0495 18.323 21.9539 18.288C21.8344 18.253 21.7149 18.2296 21.5835 18.2296V18.0546H23.3043V18.2296C23.149 18.253 22.9817 18.2763 22.8502 18.3464C22.7905 18.3697 22.7546 18.4164 22.7307 18.4748C22.6949 18.5448 22.6829 18.6382 22.6829 18.7316C22.6829 19.2919 22.6829 20.716 22.6829 23.0273H22.4797C22.4797 23.0273 22.4678 23.0273 22.4558 23.0273C22.0137 22.5487 20.8306 21.2647 18.9185 19.1985C18.9185 19.1868 18.8946 19.1752 18.8946 19.1752C18.8946 19.1752 18.8707 19.1752 18.8587 19.1752H18.8468C18.8468 20.4125 18.8468 21.3464 18.8468 21.9767C18.8468 22.1051 18.8468 22.2452 18.8946 22.3503C18.9902 22.6304 19.3487 22.6888 19.6116 22.7005V22.8756H17.7832V22.7005C17.9147 22.7005 18.0581 22.6888 18.1776 22.6421C18.2254 22.6304 18.2732 22.6071 18.309 22.5837C18.3927 22.5254 18.4405 22.432 18.4644 22.3386C18.4763 22.2686 18.4883 22.1985 18.4883 22.1168C18.4883 20.9845 18.4883 19.8639 18.4883 18.7316C18.4883 18.7316 18.4883 18.7199 18.4883 18.7082C18.3927 18.6149 18.2971 18.5098 18.1895 18.4164C18.1059 18.3347 18.0461 18.288 18.0222 18.2647C17.9505 18.2296 17.8788 18.2063 17.8071 18.1946V18.0195H19.5041C19.5041 18.0195 19.516 18.0195 19.528 18.0195C20.962 19.5721 21.8822 20.5643 22.2885 21.0195C22.2885 21.0195 22.3124 21.0312 22.3244 21.0195V21.0429Z" fill="white"/>
<path d="M25.6946 20.4827C25.6946 21.6033 25.6946 22.187 25.6946 22.257C25.6946 22.292 25.6946 22.3387 25.7066 22.3854C25.7424 22.5372 25.838 22.6306 25.9934 22.6773C26.1129 22.7123 26.2682 22.7239 26.4356 22.7356V22.9107H23.6152V22.7356C23.7108 22.7356 23.7945 22.7356 23.8901 22.7123C23.9498 22.7123 24.0096 22.6889 24.0574 22.6773C24.2725 22.6072 24.3562 22.4321 24.3562 22.222C24.3562 22.0936 24.3562 21.5099 24.3562 20.4827C24.3562 19.4555 24.3562 18.8718 24.3562 18.7434C24.3562 18.5333 24.2725 18.3582 24.0574 18.2882C24.0096 18.2765 23.9498 18.2648 23.8901 18.2531C23.8064 18.2531 23.7108 18.2298 23.6152 18.2298V18.0547H26.4356V18.2298C26.2563 18.2298 26.1129 18.2531 25.9934 18.2882C25.838 18.3348 25.7424 18.4282 25.7066 18.58C25.7066 18.6267 25.6946 18.6734 25.6946 18.7084C25.6946 18.7784 25.6946 19.3738 25.6946 20.4827Z" fill="white"/>
<path d="M30.2 20.0507C30.2 20.0507 30.2 20.0507 30.2 20.0624C30.3553 20.2608 30.8214 20.9028 31.6221 21.9651C31.6699 22.0351 31.7177 22.1052 31.7655 22.1752C31.8492 22.292 31.9209 22.397 31.9687 22.467C32.0045 22.5137 32.0523 22.5721 32.1121 22.6071C32.2077 22.6772 32.3152 22.7005 32.4347 22.7239V22.899H29.6981V22.7239C29.8056 22.7239 29.9968 22.7122 30.1522 22.6888C30.1641 22.6888 30.188 22.6888 30.2119 22.6655C30.3075 22.6305 30.3553 22.5488 30.3314 22.4437C30.3075 22.3386 30.2597 22.2453 30.1761 22.1402C29.9729 21.86 29.6981 21.4865 29.3515 21.0313C29.1722 21.2297 28.9691 21.4632 28.754 21.7083C28.6225 21.86 28.5389 21.9651 28.503 22.0235C28.4552 22.0818 28.4194 22.1402 28.3835 22.1986C28.3477 22.2569 28.3238 22.3036 28.3118 22.3503C28.264 22.5254 28.3955 22.6188 28.5508 22.6655C28.6823 22.7005 28.8137 22.7122 28.9452 22.7122V22.8873H26.9375V22.7122C27.057 22.6888 27.1526 22.6772 27.2243 22.6538C27.3199 22.6305 27.4036 22.5955 27.4633 22.5604C27.5709 22.5021 27.6784 22.4204 27.7621 22.3153C27.9413 22.1052 28.3955 21.5799 29.1364 20.7277C28.4552 19.8056 27.9533 19.1285 27.6187 18.6849C27.5231 18.5565 27.4275 18.4515 27.3199 18.3464C27.2124 18.253 27.0809 18.218 26.9375 18.2063V18.0312H29.722V18.2063C29.5666 18.2063 29.4113 18.218 29.2798 18.2414C29.1842 18.253 29.1005 18.2881 29.0886 18.3931C29.0886 18.4515 29.0886 18.4982 29.1125 18.5565C29.1364 18.5916 29.1722 18.6616 29.232 18.7433C29.5188 19.1285 29.7578 19.4554 29.9729 19.7355C30.1641 19.5137 30.3195 19.327 30.4509 19.1752C30.5704 19.0235 30.678 18.9067 30.7617 18.8017C30.8334 18.7083 30.917 18.5799 30.917 18.4632C30.917 18.2764 30.7019 18.2414 30.5585 18.218C30.4868 18.218 30.4151 18.218 30.3434 18.2063V18.0312H32.3511V18.1947C32.0882 18.218 31.8253 18.2997 31.6221 18.4632C31.5743 18.4982 31.5265 18.5449 31.4428 18.6266C31.3592 18.7083 31.2875 18.79 31.2158 18.86C30.929 19.1752 30.5824 19.5604 30.188 20.0157L30.2 20.0507Z" fill="white"/>
</g>
<circle cx="20" cy="20" r="19.5" stroke="black" stroke-opacity="0.05"/>
<defs>
<clipPath id="clip0_29142_48198">
<rect width="28" height="12" fill="white" transform="translate(6 13)"/>
</clipPath>
</defs>
</svg>
