<svg width="40" height="40" viewBox="0 0 40 40" fill="none" xmlns="http://www.w3.org/2000/svg">
<circle cx="20" cy="20" r="20" fill="#001625"/>
<g clip-path="url(#clip0_31166_48469)">
<path d="M26.9998 20.3139V20.8846H23.9284C23.8808 20.8846 23.8094 20.9342 23.7856 20.9838C23.6903 21.2567 23.7141 21.5049 23.5951 21.7282C23.357 22.2492 23.2141 22.6214 22.9284 22.9439C22.4046 23.5146 21.7618 23.8619 20.976 23.986C20.8808 23.986 20.8332 24.0852 20.8332 24.1597V25.1521C20.8332 25.1521 20.8808 25.2762 20.9522 25.301C21.9998 25.4995 22.9284 26.0453 23.4284 27.0874C24.2618 28.7994 23.5951 30.8587 21.9522 31.6775C19.9284 32.6699 17.5951 31.3053 17.3808 28.9482C17.2141 27.137 18.4284 25.5739 20.1665 25.301C20.2379 25.301 20.3094 25.2265 20.3094 25.1521V24.1597C20.3094 24.1597 20.2618 24.0108 20.1665 23.986C18.5475 23.6386 17.6189 22.6462 17.3808 20.9838C17.3808 20.9094 17.3332 20.8846 17.2618 20.8846H16.5713C16.5713 20.8846 16.4522 20.9094 16.4522 20.9838C16.2379 21.9515 15.857 22.671 15.2618 23.1424C13.4998 24.5318 11.2618 23.9364 10.2856 21.877C9.83318 20.8846 9.95223 19.6192 10.5475 18.6764C11.5475 17.1133 13.4998 16.7411 15.0237 17.7584C15.8332 18.3042 16.2856 19.0982 16.4284 20.1899C16.4284 20.2643 16.476 20.3139 16.5713 20.3139H17.2141C17.3332 20.3139 17.4522 20.2147 17.4522 20.0906C17.5951 18.6764 18.8808 17.4606 20.2141 17.3118C20.2856 17.3118 20.3332 17.2621 20.3332 17.1877V15.8479C20.3332 15.8479 20.3094 15.7238 20.2379 15.699C19.4522 15.5005 18.9284 15.2772 18.6427 15.0291C17.6427 14.1111 17.2618 13.0194 17.4522 11.8037C17.6665 10.1165 19.0237 9 20.6189 9C23.1665 9 24.6665 12.0518 23.2141 14.2352C22.6903 15.0291 21.9284 15.5254 20.9522 15.699C20.8808 15.699 20.8332 15.7487 20.8332 15.8479V17.1877C20.8332 17.1877 20.857 17.3118 20.9284 17.3118C21.4046 17.3862 21.7141 17.4854 21.857 17.5599C22.9046 18.1305 23.5237 18.9989 23.7379 20.1899C23.7379 20.2643 23.7856 20.2891 23.857 20.2891H26.9998V20.3139ZM19.6903 11.5804L21.4284 14.5825C21.4284 14.5825 21.5237 14.6818 21.5951 14.6818H22.0237C22.0237 14.6818 22.1665 14.6073 22.1665 14.5329V10.4142C22.1665 10.4142 22.1189 10.2654 22.0237 10.2654H21.6665C21.6665 10.2654 21.5237 10.315 21.5237 10.4142V13.1187C21.5237 13.3916 21.4522 13.4164 21.3332 13.1683C21.0237 12.6224 20.5237 11.754 19.8094 10.5135C19.6665 10.2654 19.4046 10.2157 19.0475 10.315C18.9998 10.315 18.976 10.3646 18.976 10.4142V14.5825C18.976 14.5825 18.9998 14.6818 19.0713 14.6818H19.476C19.476 14.6818 19.6189 14.6073 19.6189 14.5329V11.6052C19.6189 11.6052 19.6427 11.4811 19.7141 11.5804H19.6903ZM13.2141 22.8943C14.3094 22.8943 15.1903 21.877 15.1903 20.5868C15.1903 19.3215 14.3094 18.2794 13.2379 18.2794C12.1427 18.2794 11.2618 19.2967 11.2618 20.5868C11.2618 21.8522 12.1427 22.8943 13.2141 22.8943ZM18.5475 20.562C18.5475 22.4477 20.0951 23.1176 21.6903 22.7206C21.7379 22.7206 21.7618 22.671 21.7618 22.6214V22.1996C21.7618 22.1996 21.7141 22.1003 21.6665 22.1003C20.476 22.4477 19.2379 22.0507 19.2379 20.562C19.2379 19.0734 20.4999 18.7012 21.6665 19.0485C21.7141 19.0485 21.7618 19.0485 21.7618 18.9989C21.7618 18.9989 21.7618 18.9989 21.7618 18.9741V18.5523C21.7618 18.5523 21.7618 18.4779 21.6903 18.4531C20.0951 18.0313 18.5237 18.6764 18.5237 20.562H18.5475ZM20.5713 31.0076C21.6665 31.0076 22.5475 29.9903 22.5475 28.7001C22.5475 27.4347 21.6665 26.3927 20.5951 26.3679C19.4998 26.3679 18.6189 27.3851 18.6189 28.6753C18.6189 29.9407 19.4998 30.9827 20.5713 31.0076Z" fill="#B3BABE"/>
<path d="M13.2144 22.249C13.9245 22.249 14.5001 21.5048 14.5001 20.5867C14.5001 19.6686 13.9245 18.9243 13.2144 18.9243C12.5043 18.9243 11.9287 19.6686 11.9287 20.5867C11.9287 21.5048 12.5043 22.249 13.2144 22.249Z" fill="#B3BABE"/>
<path d="M20.5944 30.3452C21.3045 30.3374 21.8726 29.5869 21.8634 28.6689C21.8542 27.7508 21.2711 27.0129 20.561 27.0206C19.851 27.0284 19.2829 27.7789 19.2921 28.6969C19.3013 29.615 19.8844 30.3529 20.5944 30.3452Z" fill="#B3BABE"/>
</g>
<circle cx="20" cy="20" r="19.5" stroke="black" stroke-opacity="0.05"/>
<defs>
<clipPath id="clip0_31166_48469">
<rect width="17" height="23" fill="white" transform="translate(10 9)"/>
</clipPath>
</defs>
</svg>
