<svg width="40" height="40" viewBox="0 0 40 40" fill="none" xmlns="http://www.w3.org/2000/svg">
<circle cx="20" cy="20" r="20" fill="#319C61"/>
<path d="M23.5508 12.462C21.0829 15.0717 19.9813 18.0374 21.0903 19.0861C22.1992 20.1348 25.0988 18.8694 27.5667 16.2597C30.0346 13.65 31.1362 10.6843 30.0272 9.63559C28.9182 8.58689 26.0186 9.85233 23.5508 12.462Z" fill="#ABCD04"/>
<path d="M22.2647 12.3609C18.3711 11.7152 14.2494 13.2732 12.7401 17.1527C12.2549 18.4023 12.041 19.716 12.0982 21.0938C12.1281 21.8095 12.3502 22.4895 12.7644 23.1335C15.2282 26.9592 21.5831 25.6754 21.9457 20.9426C21.9499 20.8888 21.9794 20.8619 22.0341 20.8619L28.3966 20.8644C28.4119 20.8644 28.427 20.8674 28.4411 20.8732C28.4551 20.879 28.4679 20.8876 28.4786 20.8983C28.4894 20.909 28.4978 20.9217 28.5035 20.9357C28.5093 20.9497 28.5121 20.9647 28.5119 20.9797C28.4351 26.9707 22.7503 31.2833 16.9861 29.8074C14.3967 29.1437 12.1981 27.3538 11.0232 24.9951C9.08986 21.113 10.0546 16.5198 13.3845 13.7408C15.2303 12.1999 17.3884 11.4893 19.8586 11.6089C20.8699 11.6576 21.9247 11.9206 23.0232 12.3981C23.048 12.4092 23.0616 12.4284 23.0642 12.4558C23.0693 12.5096 23.0454 12.5296 22.9924 12.516C22.749 12.4528 22.5064 12.4011 22.2647 12.3609Z" fill="white"/>
<circle cx="20" cy="20" r="19.5" stroke="black" stroke-opacity="0.05"/>
</svg>
