<svg width="40" height="40" viewBox="0 0 40 40" fill="none" xmlns="http://www.w3.org/2000/svg">
<circle cx="20" cy="20" r="20" fill="#F6F8FA"/>
<g clip-path="url(#clip0_14382_20599)">
<path d="M12.4277 23.0836C12.4051 23.0836 12.3821 23.0836 12.3595 23.0822C11.7321 23.0647 11.1488 22.8164 10.789 22.3626C10.4168 21.8927 10.2256 21.2395 10.3592 20.5876C10.6255 19.2871 11.9518 18.292 13.2528 18.292C13.2754 18.292 13.2984 18.292 13.3214 18.2929C14.0714 18.3141 14.6943 18.6804 15.0292 19.2977L15.0518 19.3396L14.3893 19.7579C14.323 19.7998 14.2511 19.8206 14.1751 19.8206C14.0166 19.8206 13.8881 19.7289 13.8369 19.6745C13.6522 19.4783 13.4016 19.37 13.1118 19.3622C13.0985 19.3622 13.0851 19.3617 13.0717 19.3617C12.3471 19.3617 11.7063 19.9076 11.5482 20.6595C11.4709 21.0289 11.5478 21.3943 11.7597 21.6628C11.9486 21.9029 12.2268 22.0397 12.5424 22.0484C12.5549 22.0489 12.5664 22.0494 12.5779 22.0494C12.9451 22.0494 13.3187 21.8798 13.6296 21.5716C13.7328 21.4689 13.866 21.4104 13.9945 21.4104C14.0608 21.4104 14.1263 21.4261 14.1852 21.456C14.3396 21.5348 14.733 21.7458 14.7371 21.7476L14.7878 21.7748L14.7551 21.8213C14.2004 22.5994 13.309 23.0831 12.4291 23.0831L12.4277 23.0836Z" fill="#008CD6"/>
<path d="M22.8116 18.1038C22.5605 18.1038 22.4113 18.2521 22.3647 18.5166L22.3274 18.7027C22.2869 18.9252 22.2003 19.3937 22.1095 19.9079L22.08 20.076L22.1966 19.9512C22.3758 19.7586 22.6559 19.7153 22.7397 19.7153H23.8693C24.3107 19.7153 24.7327 19.3564 24.8105 18.9165C24.8488 18.6981 24.799 18.4931 24.67 18.3392C24.5424 18.1867 24.3526 18.1033 24.1356 18.1033H22.8116V18.1038ZM20.3188 23.024L21.2683 17.726C21.371 17.1414 21.7069 17 22.1542 17H24.4572C24.9718 17 25.4431 17.2096 25.7499 17.5754C26.0516 17.9347 26.17 18.4051 26.0825 18.8994C25.8996 19.9383 24.8386 20.8159 23.7661 20.8159H22.5439C22.2592 20.8159 21.9492 20.85 21.8787 21.2526L21.6359 22.6209C21.5866 22.8977 21.3434 23.024 21.1375 23.024H20.3184H20.3188Z" fill="#004098"/>
<path d="M17.9587 19.3354C17.2571 19.3354 16.5546 19.9587 16.4246 20.6972C16.3588 21.0675 16.45 21.432 16.6725 21.6978C16.8692 21.9318 17.1493 22.0612 17.4603 22.0612C18.1495 22.0612 18.8681 21.4158 18.998 20.6792C19.0621 20.3162 18.9736 19.9587 18.7562 19.6998C18.559 19.4648 18.2757 19.3354 17.9587 19.3354ZM17.2893 23.0941C16.6421 23.0941 16.075 22.8472 15.6931 22.3989C15.3029 21.941 15.1522 21.3301 15.2688 20.6792C15.5056 19.3575 16.7904 18.2822 18.1329 18.2822C18.7801 18.2822 19.3472 18.5287 19.7287 18.9774C20.1189 19.4353 20.2695 20.0457 20.1534 20.6972C19.9171 22.0189 18.6318 23.0946 17.2893 23.0946" fill="#008CD6"/>
<path d="M32.767 19.3354C32.0654 19.3354 31.3628 19.9587 31.2329 20.6972C31.168 21.0675 31.2582 21.432 31.4812 21.6978C31.6779 21.9318 31.9576 22.0612 32.269 22.0612C32.9582 22.0612 33.6764 21.4158 33.8068 20.6792C33.8708 20.3162 33.7828 19.9587 33.5649 19.6998C33.3677 19.4648 33.0849 19.3354 32.7675 19.3354M32.0981 23.0941C31.4508 23.0941 30.8842 22.8472 30.5023 22.3989C30.1121 21.941 29.9614 21.3301 30.078 20.6792C30.3143 19.3575 31.5996 18.2822 32.9416 18.2822C33.5893 18.2822 34.156 18.5287 34.5379 18.9774C34.9281 19.4353 35.0787 20.0457 34.9622 20.6972C34.7254 22.0189 33.441 23.0946 32.0981 23.0946M29.1902 18.4656C28.5641 18.4656 28.0431 18.7724 27.8455 19.1078C27.9044 18.7738 27.98 18.4269 27.98 18.4269H27.2097C26.9223 18.4269 26.7182 18.5803 26.6739 18.8295L25.9299 23.0245H26.6947C26.9407 23.0245 27.1918 22.8721 27.2429 22.5791C27.2595 22.4878 27.4631 21.2108 27.5529 20.74C27.6428 20.2692 28.0399 19.5496 28.9175 19.5496H29.7523C30.0632 19.5496 30.2065 19.3874 30.3258 19.1345C30.4299 18.912 30.5331 18.689 30.6349 18.4656H29.1907H29.1902Z" fill="#004098"/>
<path d="M5.85458 23.024C5.57448 23.024 5.33539 22.9226 5.18152 22.7383C5.02534 22.5513 4.9673 22.2915 5.01797 22.0072L5.78548 17.7532C5.87808 17.2391 6.28671 17 6.72989 17H10.8291C10.8291 17 10.6075 17.486 10.5075 17.7072C10.4182 17.9048 10.3168 18.1287 9.92983 18.1287H7.32971C7.06619 18.1287 6.9478 18.2374 6.90265 18.4876C6.89389 18.5369 6.8036 19.0118 6.8036 19.0118C6.78794 19.0966 6.68566 19.6748 6.68566 19.6748L6.65848 19.8272L6.77043 19.7199C6.77366 19.7171 7.08508 19.4228 7.52135 19.4228H9.83493C9.83493 19.4228 9.63176 19.883 9.54009 20.0921C9.41847 20.3676 9.27565 20.5068 8.96515 20.5068H7.00354C6.74049 20.5068 6.49909 20.7025 6.45394 20.9527L6.36733 21.4318C6.34568 21.553 6.37332 21.6677 6.44565 21.7543C6.52166 21.8451 6.63729 21.8957 6.77135 21.8957H9.38161C9.83493 21.8957 9.9782 22.1606 9.91739 22.4965L9.82295 23.0235H5.85458V23.024Z" fill="#008CD6"/>
</g>
<circle cx="20" cy="20" r="19.5" stroke="black" stroke-opacity="0.05"/>
<defs>
<clipPath id="clip0_14382_20599">
<rect width="30" height="6.09398" fill="white" transform="translate(5 17)"/>
</clipPath>
</defs>
</svg>
