<svg width="40" height="40" viewBox="0 0 40 40" fill="none" xmlns="http://www.w3.org/2000/svg">
<circle cx="20" cy="20" r="20" fill="#3EBD9C"/>
<path d="M17.8685 23.1426C17.7694 23.1212 17.6785 23.0957 17.586 23.0793C17.2545 23.0189 16.9554 22.883 16.6804 22.6923C16.4206 22.5093 16.2046 22.2711 16.0479 21.9947C15.894 21.733 15.7959 21.4423 15.7597 21.1408C15.7211 20.8129 15.7244 20.4849 15.7989 20.157C15.868 19.8376 16.0037 19.5363 16.1971 19.2729C16.5171 18.8416 16.9467 18.5654 17.4684 18.4317C17.7418 18.3597 18.0253 18.3335 18.3073 18.3539C18.7474 18.3878 19.1518 18.527 19.5081 18.799C19.7983 19.0206 20.0304 19.3095 20.1844 19.6407C20.3025 19.8805 20.3763 20.1398 20.4022 20.406C20.4123 20.5215 20.4325 20.6365 20.432 20.7517C20.4287 20.8781 20.4179 21.0042 20.3994 21.1294C20.3943 21.1421 20.3861 21.1533 20.3756 21.1621C20.3651 21.171 20.3526 21.1771 20.3392 21.18C20.2804 21.1844 20.2215 21.1852 20.1626 21.1823H16.7809C16.8211 21.3692 16.9017 21.5451 17.017 21.6977C17.2334 21.9816 17.5244 22.1348 17.872 22.1969C18.2494 22.2646 18.6104 22.2325 18.9538 22.0516C19.1321 21.9535 19.2843 21.8142 19.398 21.6454L20.182 22.1924C20.1481 22.2393 20.1157 22.2875 20.0785 22.333C19.7545 22.7195 19.3427 22.9626 18.854 23.0788C18.7716 23.0983 18.6879 23.114 18.6031 23.1374C18.3598 23.1437 18.1182 23.1437 17.869 23.1437M18.9295 20.3605H19.4184C19.26 19.5556 18.6997 19.2539 18.1182 19.256C17.4965 19.2581 16.9444 19.5744 16.768 20.3605H18.9295Z" fill="white"/>
<path d="M33.434 23.1427C33.3403 23.1214 33.2548 23.0959 33.1677 23.0795C32.8386 23.0176 32.5273 22.8838 32.2559 22.6875C31.9011 22.4382 31.6305 22.0869 31.4798 21.6802C31.3804 21.4138 31.325 21.1329 31.3159 20.8486C31.2969 20.4235 31.3712 20.0184 31.5557 19.6387C31.6387 19.4679 31.756 19.3107 31.872 19.1594C32.076 18.8916 32.3501 18.7096 32.6523 18.5695C32.8532 18.4731 33.0686 18.4105 33.2899 18.3845C33.4713 18.3653 33.6547 18.3465 33.8362 18.3536C34.2619 18.3665 34.6744 18.5041 35.0225 18.7495C35.3022 18.9455 35.5159 19.1985 35.6866 19.4928C35.8422 19.761 35.9209 20.0533 35.9816 20.3532C35.9837 20.376 35.9831 20.3991 35.9797 20.4218C35.9682 20.4558 35.9516 20.4771 35.9511 20.4984C35.949 20.6577 35.9483 20.817 35.9511 20.9761C35.9511 20.9964 35.9811 21.0159 35.998 21.0358C35.9978 21.0409 35.9958 21.0457 35.9923 21.0494C35.9912 21.0665 35.9931 21.0837 35.998 21.1002C35.9982 21.1101 35.9962 21.1199 35.9919 21.1288C35.9698 21.1848 35.9307 21.181 35.8904 21.181C34.7438 21.181 33.5971 21.181 32.4504 21.181H32.3592C32.4546 21.5854 32.6774 21.8815 33.0386 22.0635C33.3666 22.2293 33.7222 22.2664 34.0801 22.2066C34.4502 22.145 34.7613 21.97 34.978 21.6444L35.6937 22.145C35.7 22.1495 35.7117 22.152 35.7126 22.157C35.7183 22.1862 35.7361 22.2272 35.7229 22.2436C35.6531 22.3396 35.5755 22.4296 35.4908 22.5128C35.2987 22.6892 35.0881 22.8396 34.844 22.9405C34.6489 23.0244 34.4434 23.0815 34.2331 23.1104C34.1729 23.1179 34.1134 23.1312 34.0534 23.142H33.4338M32.7755 19.5879C32.5441 19.794 32.4113 20.0538 32.3494 20.3581H34.9965C34.9675 20.1813 34.9061 20.0113 34.8154 19.8568C34.697 19.6494 34.5168 19.4842 34.3001 19.3841C34.0234 19.2561 33.7129 19.2204 33.4143 19.2822C33.1782 19.3292 32.9653 19.4201 32.7758 19.5886L32.7755 19.5879Z" fill="white"/>
<path d="M10.1503 23.1427C10.0674 23.1213 9.99264 23.097 9.91604 23.0792C9.55126 22.9942 9.21208 22.8233 8.92677 22.5807C8.67243 22.3684 8.46556 22.105 8.31958 21.8076C8.20151 21.5765 8.12717 21.3255 8.10032 21.0674C8.09048 20.9631 8.06447 20.8565 8.0715 20.7546C8.08626 20.5389 8.10149 20.3234 8.15865 20.1114C8.24348 19.8014 8.38939 19.5115 8.5878 19.2587C8.761 19.0357 8.97412 18.8469 9.21631 18.7018C9.41836 18.576 9.63867 18.4822 9.86942 18.4238C10.1458 18.356 10.4316 18.3351 10.7149 18.3619C11.0461 18.3932 11.3671 18.4939 11.6568 18.6576C11.9047 18.7967 12.1249 18.9803 12.3064 19.1992C12.445 19.362 12.561 19.5426 12.6515 19.7363C12.7505 19.9511 12.8239 20.1744 12.8447 20.4119C12.856 20.5405 12.8796 20.6696 12.8747 20.7977C12.855 21.3084 12.7053 21.776 12.3938 22.1878C12.1768 22.4797 11.8958 22.7178 11.5722 22.8838C11.3524 23.0003 11.1138 23.077 10.8674 23.1106C10.814 23.1162 10.761 23.1247 10.7085 23.1361C10.5235 23.1427 10.341 23.1427 10.151 23.1427M9.27441 21.5115C9.43594 21.7713 9.67845 21.9706 9.96453 22.0789C10.2016 22.1712 10.4516 22.2084 10.7045 22.1599C11.0714 22.0897 11.3764 21.9116 11.6039 21.6099C11.9021 21.2143 11.9787 20.776 11.8292 20.3081C11.6931 19.8818 11.4015 19.5852 10.988 19.418C10.7277 19.3092 10.4395 19.2867 10.1655 19.3538C9.83124 19.436 9.55177 19.6094 9.3407 19.8858C9.17291 20.1019 9.07231 20.3626 9.0514 20.6354C9.0261 20.947 9.10036 21.2367 9.27371 21.5115H9.27441Z" fill="white"/>
<path d="M4 20.384C4.01593 20.3327 4.03795 20.2903 4.04685 20.2435C4.11258 19.9097 4.25235 19.595 4.45586 19.3224C4.72544 18.9521 5.09764 18.669 5.52642 18.5081C5.85063 18.3847 6.19723 18.3312 6.54356 18.3509C6.79025 18.3611 7.03237 18.4208 7.25547 18.5266C7.46161 18.6264 7.66425 18.7346 7.86149 18.8513C7.94629 18.9014 8.01329 18.9815 8.07232 19.0338C7.84322 19.268 7.61856 19.499 7.38782 19.7366C7.06431 19.432 6.67381 19.2915 6.23036 19.3343C5.93515 19.3595 5.65699 19.4833 5.44068 19.6857C5.18721 19.923 5.00777 20.2032 4.97919 20.5616C4.93914 21.0685 5.0914 21.5047 5.48308 21.8327C6.03124 22.2923 6.82842 22.2935 7.39298 21.7521L8.08544 22.4448C7.68345 22.847 7.19761 23.0789 6.62297 23.1361C6.42713 23.1426 6.23387 23.1426 6.03288 23.1361C6.01859 23.1232 6.0125 23.1127 6.00477 23.1115C5.90662 23.0892 5.80635 23.0742 5.71007 23.0461C5.25863 22.9184 4.85668 22.6565 4.55753 22.2951C4.3017 21.9944 4.12603 21.6338 4.04685 21.247C4.03449 21.2021 4.01883 21.1581 4 21.1154V20.384Z" fill="white"/>
<path d="M24.3982 17C24.4057 19.0062 24.4082 21.0142 24.4057 23.0241H23.4087V17.0073C23.7359 17 24.0632 17 24.3982 17Z" fill="white"/>
<path d="M21.5999 23.1427C21.5842 23.1322 21.5765 23.1148 21.5671 23.1118C21.1923 23.0036 20.958 22.7527 20.8756 22.3776C20.8334 22.1827 20.8534 21.9795 20.9326 21.7965C21.0117 21.6135 21.1462 21.4599 21.3171 21.3572C21.4746 21.2594 21.6573 21.2102 21.8426 21.2155C22.063 21.2193 22.2753 21.2995 22.4432 21.4425C22.7103 21.6683 22.815 21.9604 22.7789 22.2956C22.7321 22.7262 22.4181 23.0591 21.9824 23.1371C21.8538 23.1427 21.7301 23.1427 21.5999 23.1427Z" fill="white"/>
<path d="M26.0381 17C26.0456 17.328 26.0456 17.6573 26.0456 17.9916H25.0488V17.0077C25.3761 17 25.7033 17 26.0381 17Z" fill="white"/>
<path d="M35.9996 21.0284C35.9834 21.016 35.9527 20.9965 35.9527 20.9761C35.949 20.8171 35.9497 20.6578 35.9527 20.4985C35.9527 20.4772 35.9699 20.4558 35.9816 20.4282C35.9844 20.4226 35.9921 20.424 35.9959 20.424C35.9996 20.6236 35.9996 20.8222 35.9996 21.0284Z" fill="white"/>
<path d="M35.9997 21.0945C35.9946 21.0815 35.9927 21.0676 35.9941 21.0537C35.9992 21.0666 36.0011 21.0806 35.9997 21.0945Z" fill="white"/>
<path d="M27.6857 21.7597V23.0247H26.6934V18.4681H27.6822V18.9048L27.7056 18.9233C27.7576 18.864 27.8056 18.8006 27.8625 18.7464C28.0687 18.5506 28.3243 18.4574 28.5969 18.399C28.8014 18.3552 29.0109 18.3394 29.2196 18.3522C29.563 18.373 29.8839 18.4693 30.1604 18.6801C30.5117 18.9493 30.7165 19.3105 30.787 19.7458C30.8148 19.9009 30.8305 20.0579 30.8338 20.2155C30.8383 21.1211 30.836 22.0267 30.836 22.9328V23.0247H29.839V22.9403C29.839 22.0481 29.8422 21.1558 29.8371 20.2635C29.8354 19.9999 29.7591 19.7509 29.5714 19.5581C29.4234 19.4063 29.2334 19.3251 29.0191 19.2969C28.8032 19.2663 28.5831 19.2884 28.3777 19.3614C28.094 19.4626 27.9092 19.6607 27.7972 19.9334C27.71 20.1443 27.6824 20.3661 27.6836 20.5933C27.6873 20.9801 27.6857 21.3659 27.6857 21.7597Z" fill="white"/>
<path d="M15.4053 18.367L15.7333 18.3447V19.4832C15.392 19.4692 15.0741 19.5287 14.7963 19.7357C14.5463 19.9217 14.4137 20.1768 14.3727 20.4811C14.3538 20.6089 14.3432 20.7377 14.3409 20.8667C14.3378 21.5555 14.3395 22.2439 14.3395 22.9326V23.0249H13.3472V18.4682H14.3353V18.9346C14.3543 18.9203 14.3723 18.9046 14.3891 18.8877C14.5716 18.6591 14.8178 18.5317 15.0907 18.448C15.1919 18.4166 15.2957 18.3937 15.4053 18.367Z" fill="white"/>
<path d="M25.0488 18.9459V18.468H26.0411V23.0257H25.0488V18.9459Z" fill="white"/>
<path d="M20.8721 19.1154C20.9669 18.7125 21.2738 18.4079 21.695 18.3552C22.1359 18.3002 22.5618 18.5291 22.7201 18.9692C22.8372 19.2925 22.8005 19.5975 22.603 19.8788C22.4486 20.1 22.2308 20.2209 21.9663 20.2654C21.84 20.2883 21.7104 20.2844 21.5857 20.2539C21.4611 20.2234 21.3443 20.1669 21.2429 20.0883C21.0278 19.928 20.8945 19.7149 20.8681 19.4448C20.8599 19.3377 20.869 19.229 20.8721 19.1154Z" fill="white"/>
<circle cx="20" cy="20" r="19.5" stroke="black" stroke-opacity="0.05"/>
</svg>
