<svg width="40" height="40" viewBox="0 0 40 40" fill="none" xmlns="http://www.w3.org/2000/svg">
<circle cx="20" cy="20" r="20" fill="#F6F8FA"/>
<g clip-path="url(#clip0_40531_76184)">
<path d="M18.5806 19.6876V19.6753H18.5669L16.3194 23.8333C16.3194 23.8333 16.3057 23.8456 16.2989 23.8456H14.5927C14.5927 23.8456 14.5585 23.8333 14.5585 23.8147L14.1885 20.8182C14.1885 20.8182 14.1953 20.7874 14.209 20.7812L15.7713 20.1942C15.7713 20.1942 15.8055 20.1942 15.8124 20.2066C15.8124 20.2066 15.8124 20.2066 15.8124 20.2128L15.9494 21.3063C15.9494 21.3063 15.9494 21.3187 15.9631 21.3187C15.9631 21.3187 15.97 21.3187 15.9768 21.3125L16.7237 19.9348C16.7443 19.8915 16.7854 19.8606 16.8333 19.8483C18.471 19.3107 20.136 18.8659 21.8216 18.5076C24.6309 17.9083 27.4814 17.4881 30.3729 17.2472C30.4894 17.2348 30.5716 17.2348 30.6264 17.241C30.6401 17.241 30.6538 17.2534 30.6607 17.2657L31.4761 18.73C31.4761 18.73 31.4966 18.7485 31.5103 18.7423C31.5103 18.7423 31.5103 18.7423 31.5172 18.7423L33.1822 17.1236C33.1822 17.1236 33.2028 17.1051 33.2096 17.0989C33.2439 17.0804 33.3193 17.068 33.4289 17.0618C34.9569 17.0001 36.5465 16.9877 38.2047 17.0124C38.4651 17.0124 38.7186 17.0248 38.979 17.0433C38.9859 17.0433 38.9927 17.0433 38.9927 17.0557C38.9927 17.068 38.9927 17.068 38.979 17.068C38.1294 17.2225 37.3414 17.3769 36.4712 17.6735C35.2789 18.0874 34.2648 18.6991 33.4289 19.5084C33.1205 19.8112 32.7985 20.1325 32.4559 20.4723C32.4422 20.4846 32.4422 20.5032 32.449 20.5217L34.2717 23.8024C34.2717 23.8024 34.2717 23.8271 34.258 23.8333C34.258 23.8333 34.258 23.8333 34.2511 23.8333H31.7844C31.7844 23.8333 31.7501 23.8271 31.7433 23.8147L30.8251 22.1589C30.8251 22.1589 30.8046 22.1466 30.7909 22.1466C30.7909 22.1466 30.7909 22.1466 30.784 22.1466L29.1601 23.7715C29.1258 23.8024 29.0779 23.8271 29.0299 23.8271H26.2823C26.2823 23.8271 26.2548 23.8147 26.2548 23.8024C26.2548 23.8024 26.2548 23.79 26.2548 23.7838L29.7699 20.3672C29.7699 20.3672 29.7973 20.3054 29.7836 20.2807L28.4269 17.8341C28.4269 17.8341 28.4132 17.8218 28.3995 17.828C28.3995 17.828 28.3927 17.8341 28.3858 17.8403L28.1528 18.9648C28.1528 18.9648 28.1391 18.9833 28.1323 18.9833H25.9122C25.9122 18.9833 25.878 18.9957 25.878 19.008L24.8844 23.8024C24.8844 23.8024 24.8707 23.8271 24.8502 23.8271H22.3835C22.3835 23.8271 22.3492 23.8147 22.3492 23.7962L23.3427 19.0204C23.3427 19.0204 23.3427 18.9957 23.3222 18.9895H20.8692C20.8692 18.9895 20.8144 19.008 20.8075 19.0389L19.8208 23.8024C19.8208 23.8024 19.8003 23.8333 19.7797 23.8333H17.5871C17.5871 23.8333 17.5528 23.8209 17.5528 23.8024C17.5528 23.8024 17.5528 23.8024 17.5528 23.7962L18.5669 19.6691L18.5806 19.6876Z" fill="#1F528D"/>
<path d="M24.179 17.2964C24.179 17.2964 24.1859 17.3025 24.179 17.3087C21.7192 17.9018 19.3278 18.6371 16.9913 19.4958C16.9776 19.4958 16.9639 19.4958 16.957 19.4835C16.957 19.4773 16.957 19.4711 16.957 19.4649L18.1219 17.3149C18.1219 17.3149 18.163 17.2778 18.1904 17.2778C21.7534 17.2778 23.72 17.2778 24.1037 17.2778C24.1242 17.2778 24.1516 17.2778 24.179 17.2964Z" fill="#009ADC"/>
<path d="M13.2435 23.8579H11.0782C11.0782 23.8579 11.0303 23.8394 11.0303 23.8146C11.0303 23.8146 11.0303 23.8146 11.0303 23.8085L11.3934 22.06C11.3934 22.06 11.4071 22.0353 11.4208 22.0291L13.8053 20.9541C13.8053 20.9541 13.8601 20.9541 13.8739 20.9726C13.8739 20.9788 13.8739 20.9912 13.8739 21.0035L13.2846 23.8332C13.2846 23.8332 13.2572 23.8703 13.2366 23.8703L13.2435 23.8579Z" fill="#1F528D"/>
<path d="M15.4434 17.3025C15.4434 17.3025 15.4229 17.2716 15.4092 17.2716H12.4148C12.4148 17.2716 12.3737 17.284 12.3737 17.3025L11.9489 19.3537C11.9078 18.9521 11.8256 18.637 11.6954 18.4084C11.298 17.7041 10.5648 17.3272 9.72201 17.1913C8.77643 17.043 7.74178 17.0678 6.85788 17.4076C6.67972 17.4632 6.50842 17.5373 6.34398 17.6176C5.02154 18.2911 4.15134 19.502 4.0143 20.8674C3.99374 21.0589 4.0143 21.337 4.00745 21.5223C3.96633 22.3255 4.42542 23.0792 5.13117 23.4994C5.67248 23.8206 6.30286 23.9874 7.02232 24.006H7.89938C7.93364 24.006 7.9679 23.9936 7.99531 23.9751C9.02996 23.2955 10.0989 22.6591 11.2089 22.0722C12.6547 21.3122 14.1553 20.6203 15.7175 20.0024C15.7518 19.9901 15.7655 19.9592 15.7655 19.9283L15.4434 17.3087V17.3025ZM11.5652 21.2566C11.5652 21.2566 11.5378 21.2937 11.5172 21.2937H11.3254H9.25607C9.23552 21.2937 9.22181 21.3061 9.21496 21.3246C9.06422 21.8127 8.63254 22.2884 8.05697 22.3811C7.72123 22.4367 7.38548 22.412 7.04973 22.3069C6.43305 22.0042 6.46046 21.337 6.54268 20.7994C6.61806 20.3052 6.78936 19.7491 7.11825 19.3414C7.50196 18.878 7.98845 18.6741 8.59143 18.7359C9.24237 18.8039 9.57812 19.1746 9.53015 19.7615C9.53015 19.78 9.55071 19.7986 9.57127 19.7986C10.1331 19.7986 10.8731 19.7986 11.7913 19.7986C11.8187 19.7986 11.8393 19.8047 11.8461 19.8233C11.853 19.8356 11.853 19.8603 11.8461 19.8851L11.572 21.2628L11.5652 21.2566Z" fill="#009ADC"/>
</g>
<circle cx="20" cy="20" r="19.5" stroke="black" stroke-opacity="0.05"/>
<defs>
<clipPath id="clip0_40531_76184">
<rect width="35" height="7" fill="white" transform="translate(4 17)"/>
</clipPath>
</defs>
</svg>
