<svg width="40" height="40" viewBox="0 0 40 40" fill="none" xmlns="http://www.w3.org/2000/svg">
<circle cx="20" cy="20" r="20" fill="#00AF9A"/>
<g clip-path="url(#clip0_36410_73966)">
<path d="M12.593 21.4803C12.593 21.4803 8.18239 19.8902 7.97656 26.0001C7.97656 26.0001 11.6742 25.978 12.593 22.4151C12.593 22.4151 11.6962 24.9401 9.29241 25.2051C9.29241 25.2051 9.09393 21.8925 12.593 21.4803Z" fill="white"/>
<path d="M21.4952 13.7509C21.4952 13.7509 16.9596 11.5793 14.644 14.6269C13.1223 16.6291 12.9606 19.1393 15.2101 26.0074C15.2101 26.0074 14.3941 23.0408 14.5632 20.0374C14.8057 20.111 16.5774 20.6337 17.9961 20.0227C19.8706 19.2056 20.2602 17.1886 20.2602 17.1886C18.349 19.8239 14.916 20.0227 14.5705 20.0374C14.6734 18.2854 15.1145 16.5187 16.2539 15.3188C18.496 12.9559 21.5026 13.7656 21.5026 13.7656L21.4952 13.7509Z" fill="white"/>
<path d="M10.1085 18.9552C10.1085 18.9552 11.3803 19.2202 12.3286 20.2729C11.1377 20.5673 7.38129 21.1489 6.1169 17.137C6.1169 17.137 9.55721 15.5249 12.8578 18.9405C12.8578 18.9405 11.248 13.5005 4.99219 16.3493C4.99219 16.3493 5.45531 22.334 12.3286 20.2802C12.9093 20.928 13.3651 21.8703 13.343 23.2247C13.343 23.2247 14.997 19.5073 10.1012 18.9552H10.1085Z" fill="white"/>
<path d="M33.1914 24.0932C32.8386 24.4907 32.3314 24.7337 31.7653 24.7337C30.7068 24.7337 29.854 23.8724 29.854 22.8197C29.854 21.7671 30.7141 20.9058 31.7653 20.9058C32.2505 20.9058 32.6842 21.0825 33.0224 21.3769L33.6766 20.523C33.1547 20.0887 32.4931 19.8311 31.7653 19.8311C30.1113 19.8311 28.7734 21.1708 28.7734 22.8271C28.7734 24.4834 30.1113 25.8231 31.7653 25.8231C32.6548 25.8231 33.4561 25.433 34.0074 24.8146L33.1988 24.108L33.1914 24.0932Z" fill="white"/>
<path d="M23.3332 22.3044H20.7898V23.4086H22.282V24.1594C21.9365 24.5128 21.4514 24.741 20.9147 24.741C19.8562 24.741 19.0035 23.8797 19.0035 22.8271C19.0035 21.7744 19.8635 20.9131 20.9147 20.9131C21.3999 20.9131 21.8336 21.0898 22.1718 21.3842L22.826 20.5303C22.3041 20.096 21.6425 19.8384 20.9147 19.8384C19.2607 19.8384 17.9229 21.1781 17.9229 22.8344C17.9229 24.4907 19.2607 25.8305 20.9147 25.8305C21.9071 25.8305 22.7893 25.3446 23.3332 24.5938V22.3191V22.3044Z" fill="white"/>
<path d="M26.8248 20.8985H28.023L28.8463 19.8237H26.8174C25.1635 19.8237 24.127 20.8617 24.127 22.518V25.8084H25.2002V23.4013H27.9863V22.2971H25.2149C25.2884 21.377 25.8398 20.8985 26.8174 20.8985H26.8248Z" fill="white"/>
</g>
<circle cx="20" cy="20" r="19.5" stroke="black" stroke-opacity="0.05"/>
<defs>
<clipPath id="clip0_36410_73966">
<rect width="29" height="13" fill="white" transform="translate(5 13)"/>
</clipPath>
</defs>
</svg>
