<svg width="40" height="40" viewBox="0 0 40 40" fill="none" xmlns="http://www.w3.org/2000/svg">
<circle cx="20" cy="20" r="20" fill="#F6F8FA"/>
<path d="M20.031 17.2896C21.5031 16.3144 22.939 15.3448 24.3696 14.3676C25.8156 13.38 27.2561 12.3843 28.7004 11.3943C28.7944 11.3298 28.9008 11.2835 29.0351 11.2104C29.0351 17.3363 29.0351 23.4145 29.0351 29.5958C26.0447 27.5469 23.0962 25.5267 20.1228 23.4816C19.8513 23.5134 19.6587 23.3929 19.4709 23.2618C18.3577 22.4848 17.2201 21.7432 16.1202 20.9471C15.5116 20.5066 15.5141 20.2308 16.1044 19.7876C17.177 18.9823 18.3357 18.3026 19.4128 17.5038C19.5852 17.3759 19.7792 17.3074 20.031 17.2896Z" fill="#FCC800"/>
<path d="M20.0459 17.2598C18.9722 18.1682 17.762 18.8866 16.618 19.7004C16.323 19.9103 16.0211 20.1105 15.6638 20.3553C17.1608 21.3901 18.6094 22.3914 20.0779 23.4247C19.0006 24.2197 17.9071 24.9883 16.8052 25.7446C15.0574 26.9443 13.3038 28.1356 11.553 29.3309C11.4258 29.4177 11.294 29.5683 11.1411 29.4909C10.9782 29.4084 11.0526 29.2075 11.0525 29.0594C11.049 23.2741 11.049 17.4887 11.0524 11.7034C11.0525 11.5549 10.9776 11.3485 11.1394 11.2717C11.3147 11.1886 11.453 11.364 11.593 11.4599C14.4028 13.3839 17.2125 15.3081 20.0459 17.2598Z" fill="#030E5F"/>
<circle cx="20" cy="20" r="19.5" stroke="black" stroke-opacity="0.05"/>
</svg>
