<svg width="40" height="40" viewBox="0 0 40 40" fill="none" xmlns="http://www.w3.org/2000/svg">
<circle cx="20" cy="20" r="20" fill="#00A1D9"/>
<path d="M22.7121 15.9851C23.6143 13.9689 22.6101 12.3568 21.3039 10.8466C21.1401 10.6547 21.025 10.4262 20.9683 10.1804C20.9117 9.93455 20.9151 9.67869 20.9783 9.43448C21.8138 6.90836 25.4147 8.00275 24.3635 10.7211C24.0984 11.347 24.0251 12.0375 24.1529 12.7051C24.2807 13.3727 24.6038 13.9873 25.0813 14.471C26.3575 15.9145 27.8206 16.3068 29.4707 15.6478C29.8851 15.4711 30.35 15.453 30.7769 15.5968C32.9421 16.3264 32.0007 19.5547 29.7609 19.0251C28.9333 18.8251 28.4273 18.0366 27.6898 17.6287C25.6318 16.4885 23.851 16.8873 22.3473 18.8251C21.4726 19.9469 21.9825 21.1786 22.9357 22.0337C24.3321 23.3098 25.8711 23.4942 27.5525 22.5868C28.388 22.1318 29.051 21.2178 29.9963 21.0766C32.1184 20.7589 32.8558 23.9165 30.6474 24.6069C29.757 24.8854 28.945 24.1754 28.0311 24.1754C27.1441 24.1824 26.2907 24.5162 25.6344 25.1129C24.1909 26.3577 23.7712 27.7959 24.3753 29.4277C24.7087 30.3299 24.5714 31.4361 23.6339 31.8911C21.7472 32.8089 19.9781 30.5182 21.4961 29.0119C23.0926 27.4429 23.6496 25.2188 22.2218 23.3321C21.5314 22.4181 20.4566 21.9945 19.3662 21.7356C18.6601 21.5669 18.3267 20.9511 18.1894 20.3156C17.5853 17.4522 14.6827 16.0008 12.1801 17.6954C11.3956 18.221 10.6542 19.1781 9.62257 19.0722C6.90424 18.7858 7.90841 14.6436 10.3757 15.589C12.5096 16.4101 14.2093 15.7563 15.475 13.6277C15.8508 13.0186 15.9903 12.293 15.8673 11.588C15.7221 10.7368 15.1808 9.88949 15.5966 9.0383C16.7734 6.59847 20.4841 8.93239 18.4679 11.1761C17.972 11.6728 17.5635 12.2497 17.2598 12.8824C16.5014 14.943 17.0911 16.6049 19.0288 17.868C19.2591 18.0405 19.5324 18.1464 19.8188 18.1741C20.1052 18.2017 20.3937 18.1501 20.6528 18.0249C21.5539 17.6028 22.2814 16.8822 22.7121 15.9851Z" fill="white"/>
<path d="M14.0319 11.9998C14.0319 12.2723 13.9782 12.5422 13.8739 12.7939C13.7697 13.0457 13.6168 13.2744 13.4241 13.4671C13.2315 13.6598 13.0027 13.8126 12.751 13.9169C12.4992 14.0212 12.2294 14.0749 11.9569 14.0749C11.5465 14.0749 11.1453 13.9532 10.804 13.7252C10.4628 13.4972 10.1968 13.1731 10.0398 12.7939C9.88273 12.4147 9.84164 11.9975 9.92171 11.595C10.0018 11.1925 10.1994 10.8228 10.4896 10.5326C10.7798 10.2424 11.1495 10.0447 11.5521 9.96468C11.9546 9.88461 12.3718 9.9257 12.751 10.0828C13.1301 10.2398 13.4542 10.5058 13.6822 10.847C13.9102 11.1882 14.0319 11.5894 14.0319 11.9998Z" fill="white"/>
<path d="M30.1061 11.992C30.1061 12.5434 29.8871 13.0722 29.4972 13.4621C29.1074 13.852 28.5786 14.071 28.0272 14.071C27.616 14.071 27.2141 13.9491 26.8722 13.7206C26.5303 13.4922 26.2638 13.1675 26.1065 12.7876C25.9491 12.4077 25.908 11.9897 25.9882 11.5865C26.0684 11.1832 26.2664 10.8127 26.5572 10.522C26.8479 10.2313 27.2183 10.0333 27.6216 9.95303C28.0249 9.87282 28.4429 9.91399 28.8228 10.0713C29.2027 10.2287 29.5273 10.4952 29.7558 10.837C29.9842 11.1789 30.1061 11.5809 30.1061 11.992Z" fill="white"/>
<path d="M30.1101 28.1253C30.1101 28.6767 29.891 29.2055 29.5011 29.5954C29.1113 29.9853 28.5825 30.2043 28.0311 30.2043C27.4797 30.2043 26.9509 29.9853 26.5611 29.5954C26.1712 29.2055 25.9521 28.6767 25.9521 28.1253C25.9521 27.574 26.1712 27.0452 26.5611 26.6553C26.9509 26.2654 27.4797 26.0464 28.0311 26.0464C28.5825 26.0464 29.1113 26.2654 29.5011 26.6553C29.891 27.0452 30.1101 27.574 30.1101 28.1253Z" fill="white"/>
<circle cx="20" cy="20" r="19.5" stroke="black" stroke-opacity="0.05"/>
</svg>
