<svg width="40" height="40" viewBox="0 0 40 40" fill="none" xmlns="http://www.w3.org/2000/svg">
<circle cx="20" cy="20" r="20" fill="#F6F8FA"/>
<path d="M26.8238 17.632V18.7064C26.8238 18.7101 26.8223 18.7137 26.8197 18.7163C26.8171 18.7189 26.8135 18.7204 26.8098 18.7204H8.27181C8.2681 18.7204 8.26454 18.7189 8.26191 18.7163C8.25929 18.7137 8.25781 18.7101 8.25781 18.7064C8.25791 18.7026 8.25949 18.699 8.26221 18.6964L17.9258 9.004C17.9284 9.00144 17.9319 9 17.9356 9C17.9393 9 17.9428 9.00144 17.9454 9.004C17.9468 9.00535 17.9479 9.00697 17.9487 9.00875C17.9494 9.01054 17.9498 9.01246 17.9498 9.0144V16.1664C17.9498 16.1701 17.9483 16.1737 17.9457 16.1763C17.9431 16.1789 17.9395 16.1804 17.9358 16.1804H16.8622C16.8585 16.1804 16.8549 16.1789 16.8523 16.1763C16.8497 16.1737 16.8482 16.1701 16.8482 16.1664V11.6828C16.8483 11.68 16.8475 11.6773 16.8459 11.6749C16.8444 11.6726 16.8422 11.6708 16.8396 11.6697C16.837 11.6686 16.8342 11.6683 16.8314 11.6689C16.8287 11.6694 16.8262 11.6708 16.8242 11.6728L10.9198 17.594C10.9172 17.5966 10.9158 17.6001 10.9158 17.6038C10.9158 17.6075 10.9172 17.611 10.9198 17.6136C10.9224 17.6163 10.926 17.6179 10.9298 17.618H26.8098C26.8135 17.618 26.8171 17.6195 26.8197 17.6221C26.8223 17.6247 26.8238 17.6283 26.8238 17.632Z" fill="#EF3F22"/>
<path d="M23.8403 16.0342V16.1314C23.8403 16.1458 23.8331 16.153 23.8187 16.153H23.0271C23.0228 16.153 23.0186 16.1512 23.0155 16.1482C23.0125 16.1451 23.0107 16.1409 23.0107 16.1366V11.687C23.0107 11.6842 23.0112 11.6815 23.0122 11.6789C23.0132 11.6763 23.0148 11.674 23.0167 11.672C23.0186 11.67 23.0209 11.6685 23.0235 11.6674C23.026 11.6663 23.0288 11.6658 23.0315 11.6658H23.8115C23.8153 11.6652 23.819 11.6656 23.8226 11.6668C23.8262 11.6679 23.8294 11.6699 23.8321 11.6725C23.8347 11.6752 23.8368 11.6784 23.838 11.6819C23.8392 11.6855 23.8396 11.6892 23.8391 11.693V13.453C23.8391 13.4762 23.8487 13.4814 23.8675 13.4682C23.9171 13.4295 23.9693 13.3945 24.0239 13.3634C24.5235 13.1198 25.1343 13.2002 25.5107 13.6326C25.8279 13.9962 25.9107 14.477 25.8707 14.9602C25.8123 15.6458 25.4387 16.1854 24.7087 16.2562C24.4075 16.2902 24.1046 16.2073 23.8627 16.0246C23.8467 16.0102 23.8403 16.0142 23.8403 16.0342ZM23.8867 14.3442C23.7511 14.7094 23.8171 15.4338 24.3483 15.489C24.695 15.525 24.9101 15.3752 24.9935 15.0398C25.0571 14.7814 25.0411 14.4186 24.8683 14.1962C24.6195 13.877 24.0403 13.9302 23.8855 14.3442H23.8867Z" fill="#373637"/>
<path d="M22.5062 14.6641V15.3257C22.5062 15.33 22.5045 15.3341 22.5015 15.3371C22.4985 15.3401 22.4944 15.3417 22.4902 15.3417L22.0362 15.3373C22.0319 15.3373 22.0278 15.339 22.0248 15.342C22.0218 15.345 22.0202 15.3491 22.0202 15.3533V16.1389C22.0202 16.1432 22.0185 16.1473 22.0155 16.1503C22.0125 16.1533 22.0084 16.1549 22.0042 16.1549H21.2082C21.2039 16.1549 21.1998 16.1533 21.1968 16.1503C21.1938 16.1473 21.1922 16.1432 21.1922 16.1389V15.3553C21.1922 15.3511 21.1905 15.347 21.1875 15.344C21.1845 15.341 21.1804 15.3393 21.1762 15.3393H19.1762C19.1719 15.3393 19.1678 15.3377 19.1648 15.3347C19.1618 15.3317 19.1602 15.3276 19.1602 15.3233C19.1601 15.3197 19.1614 15.3161 19.1638 15.3133L21.9918 11.7085C21.9944 11.7053 21.9983 11.7032 22.0025 11.7027C22.0067 11.7023 22.0109 11.7035 22.0142 11.7061C22.016 11.7076 22.0176 11.7095 22.0186 11.7116C22.0196 11.7138 22.0202 11.7161 22.0202 11.7185V14.6341C22.0202 14.6384 22.0218 14.6425 22.0248 14.6455C22.0278 14.6485 22.0319 14.6501 22.0362 14.6501L22.4914 14.6469C22.4935 14.6471 22.4955 14.6477 22.4974 14.6486C22.4993 14.6496 22.501 14.6509 22.5023 14.6525C22.5037 14.6541 22.5048 14.6559 22.5054 14.6579C22.5061 14.6599 22.5063 14.662 22.5062 14.6641ZM21.1898 13.8393C21.1899 13.8377 21.1896 13.8362 21.1891 13.8347C21.1886 13.8332 21.1877 13.8318 21.1867 13.8306C21.1856 13.8295 21.1843 13.8285 21.1828 13.8279C21.1813 13.8273 21.1798 13.8269 21.1782 13.8269C21.1762 13.8269 21.1743 13.8273 21.1726 13.8281C21.1708 13.8289 21.1693 13.8302 21.1682 13.8317L20.5414 14.6317C20.5392 14.634 20.5379 14.637 20.5379 14.6401C20.5379 14.6433 20.5392 14.6463 20.5414 14.6485C20.5436 14.6504 20.5464 14.6514 20.5494 14.6513H21.1758C21.1773 14.6514 21.1789 14.6511 21.1804 14.6505C21.1819 14.65 21.1832 14.6491 21.1844 14.6479C21.1855 14.6468 21.1864 14.6455 21.187 14.644C21.1875 14.6425 21.1878 14.6409 21.1878 14.6393L21.1898 13.8393Z" fill="#373637"/>
<path d="M31.9997 14.6507V15.3235L31.5345 15.3479C31.5315 15.3477 31.5285 15.3481 31.5257 15.3492C31.5228 15.3504 31.5203 15.3521 31.5182 15.3543C31.5161 15.3565 31.5146 15.3592 31.5137 15.3621C31.5128 15.365 31.5125 15.3681 31.5129 15.3711L31.5105 16.1307C31.511 16.1336 31.5108 16.1367 31.5099 16.1396C31.509 16.1425 31.5073 16.1451 31.5052 16.1472C31.503 16.1493 31.5004 16.1509 31.4975 16.1518C31.4946 16.1526 31.4915 16.1528 31.4885 16.1523H30.7037C30.6988 16.1522 30.6941 16.1501 30.6906 16.1466C30.6871 16.1431 30.685 16.1384 30.6849 16.1335V15.3615C30.6854 15.3584 30.6851 15.3553 30.6842 15.3523C30.6832 15.3494 30.6816 15.3467 30.6794 15.3445C30.6773 15.3423 30.6746 15.3406 30.6717 15.3396C30.6687 15.3386 30.6656 15.3383 30.6625 15.3387H28.6889C28.6836 15.3387 28.6786 15.3366 28.6748 15.3328C28.6711 15.3291 28.6689 15.324 28.6689 15.3187C28.6691 15.3147 28.6704 15.3108 28.6725 15.3075C28.7301 15.2247 28.7925 15.1423 28.8549 15.0611C29.7424 13.9341 30.6192 12.8173 31.4853 11.7107C31.4875 11.708 31.4903 11.7059 31.4934 11.7045C31.4965 11.7031 31.4999 11.7025 31.5033 11.7027C31.5046 11.7026 31.5058 11.7028 31.507 11.7033C31.5081 11.7037 31.5092 11.7045 31.51 11.7054C31.5109 11.7063 31.5115 11.7074 31.5119 11.7086C31.5122 11.7098 31.5123 11.711 31.5121 11.7123C31.5121 12.6925 31.5121 13.664 31.5121 14.6267C31.5121 14.6322 31.5143 14.6375 31.5182 14.6415C31.5221 14.6455 31.5274 14.6478 31.5329 14.6479L31.9997 14.6507ZM30.6837 13.8455C30.6837 13.8422 30.6824 13.839 30.6801 13.8367C30.6778 13.8344 30.6746 13.8331 30.6713 13.8331C30.6695 13.8331 30.6677 13.8335 30.6661 13.8342C30.6644 13.835 30.6629 13.8361 30.6617 13.8375L30.0369 14.6319C30.035 14.6344 30.0341 14.6377 30.0344 14.6409C30.0348 14.6441 30.0364 14.647 30.0389 14.6491C30.041 14.6509 30.0438 14.6519 30.0465 14.6519H30.6713C30.6746 14.6519 30.6778 14.6506 30.6801 14.6482C30.6824 14.6459 30.6837 14.6427 30.6837 14.6395V13.8455Z" fill="#373637"/>
<path d="M28.1933 13.3192H29.0733C29.0765 13.3192 29.0797 13.3206 29.082 13.3229C29.0843 13.3252 29.0857 13.3284 29.0857 13.3316C29.0861 13.3335 29.0861 13.3354 29.0857 13.3372L27.4057 16.768C27.4046 16.7701 27.4031 16.7717 27.4012 16.7729C27.3993 16.7741 27.3971 16.7748 27.3949 16.7748L26.5493 16.7772C26.546 16.7772 26.5428 16.7759 26.5405 16.7736C26.5382 16.7713 26.5369 16.7681 26.5369 16.7648C26.5364 16.763 26.5364 16.7611 26.5369 16.7592L27.0033 15.8104C27.0039 15.8089 27.0043 15.8072 27.0043 15.8054C27.0043 15.8037 27.0039 15.802 27.0033 15.8004L26.0157 13.3352C26.015 13.3337 26.0147 13.3321 26.0146 13.3304C26.0146 13.3288 26.015 13.3271 26.0156 13.3256C26.0162 13.3241 26.0172 13.3227 26.0183 13.3215C26.0195 13.3204 26.0209 13.3195 26.0225 13.3188H26.0273H26.9117C26.9142 13.3189 26.9167 13.3197 26.9188 13.3212C26.9209 13.3227 26.9224 13.3248 26.9233 13.3272L27.4609 14.8448C27.4617 14.8472 27.4633 14.8492 27.4654 14.8507C27.4675 14.8521 27.4699 14.8529 27.4725 14.8529C27.475 14.8529 27.4774 14.8521 27.4795 14.8507C27.4816 14.8492 27.4832 14.8472 27.4841 14.8448L28.1817 13.3248C28.1829 13.3229 28.1846 13.3214 28.1867 13.3204C28.1887 13.3194 28.191 13.319 28.1933 13.3192Z" fill="#373637"/>
<path d="M8 20.3799H26.5344C26.537 20.3799 26.5396 20.3809 26.5415 20.3826C26.5434 20.3844 26.5446 20.3869 26.5448 20.3895C26.5448 20.3923 26.5436 20.3951 26.5416 20.3971L16.9016 30.0631C16.8652 30.0995 16.8472 30.0923 16.8472 30.0407V22.9411C16.8468 22.9383 16.847 22.9355 16.8479 22.9328C16.8488 22.9302 16.8503 22.9277 16.8523 22.9258C16.8543 22.9238 16.8567 22.9223 16.8593 22.9214C16.862 22.9205 16.8648 22.9203 16.8676 22.9207H17.92C17.9241 22.92 17.9282 22.9203 17.9321 22.9215C17.9361 22.9228 17.9396 22.9249 17.9426 22.9278C17.9455 22.9307 17.9477 22.9342 17.949 22.9382C17.9503 22.9421 17.9506 22.9462 17.95 22.9503V27.4123C17.95 27.4367 17.9588 27.4403 17.976 27.4231L23.872 21.5107C23.8735 21.5092 23.8747 21.5074 23.8756 21.5054C23.8764 21.5034 23.8768 21.5012 23.8768 21.4991C23.8768 21.4969 23.8764 21.4948 23.8756 21.4928C23.8747 21.4908 23.8735 21.489 23.872 21.4875C23.869 21.4845 23.865 21.4827 23.8608 21.4827H8V20.3799Z" fill="#373637"/>
<circle cx="20" cy="20" r="19.5" stroke="black" stroke-opacity="0.05"/>
</svg>
