<svg width="40" height="40" viewBox="0 0 40 40" fill="none" xmlns="http://www.w3.org/2000/svg">
<circle cx="20" cy="20" r="20" fill="#F6F8FA"/>
<g clip-path="url(#clip0_14382_21621)">
<path d="M7.71341 19.9847C8.62864 20.069 9.14006 20.4848 9.24766 21.232C9.28616 21.4438 9.27167 21.6618 9.20549 21.8666C9.13931 22.0714 9.02349 22.2566 8.86836 22.4058C8.54854 22.725 8.11393 22.9241 7.56456 23.003C6.83225 23.1088 6.23445 22.9534 5.77116 22.5367C5.35724 22.1795 5.09311 21.6794 5.03138 21.1361C4.92019 20.3631 5.12942 19.5982 5.65907 18.8414C6.18872 18.0846 7.00263 17.4043 8.10078 16.8005L9.38486 17.9322C8.25741 18.6657 7.70026 19.3499 7.71341 19.9847Z" fill="#00AE4D"/>
<path d="M32.2855 20.8707C31.3709 20.7858 30.8595 20.3697 30.7513 19.6225C30.7134 19.4111 30.7282 19.1936 30.7946 18.9893C30.8609 18.785 30.9766 18.6002 31.1315 18.4514C31.4516 18.1313 31.8865 17.9331 32.4353 17.8533C33.1676 17.7487 33.7654 17.9044 34.2287 18.3205C34.6376 18.6678 34.8842 19.1347 34.9685 19.7211C35.0791 20.4935 34.8698 21.2581 34.3408 22.0149C33.8117 22.7717 32.9984 23.4514 31.9009 24.054L30.6177 22.9232C31.7421 22.1891 32.2975 21.505 32.2837 20.8707" fill="#ED6F20"/>
<path d="M14.7123 16.1515C14.5034 16.0842 14.4433 16.0439 14.4433 15.9721C14.4433 15.9004 14.533 15.8385 14.6648 15.8385C14.771 15.8387 14.8757 15.8636 14.9706 15.9112L15.0064 15.9291L15.1051 15.6888L15.0728 15.6708C14.9468 15.6136 14.8095 15.5854 14.6711 15.5883C14.3348 15.5883 14.09 15.7623 14.09 16.0008C14.09 16.1802 14.2407 16.312 14.5384 16.399C14.7581 16.4662 14.8002 16.5182 14.8002 16.5918C14.8002 16.6814 14.7016 16.7415 14.5357 16.7415C14.4092 16.7369 14.285 16.7063 14.1707 16.6518L14.1348 16.6348L14.0371 16.8814L14.0712 16.8984C14.2159 16.9603 14.372 16.9908 14.5294 16.9881C14.9087 16.9881 15.1571 16.8222 15.1571 16.5649C15.1571 16.3075 14.9213 16.2062 14.7168 16.1461" fill="#006393"/>
<path d="M19.4835 15.7542C19.3992 15.6744 19.253 15.6152 19.001 15.6152C18.6226 15.6152 18.2379 15.8223 18.2155 16.2635V16.1738C18.2155 15.7443 17.8793 15.6188 17.5932 15.6188C17.352 15.6188 17.178 15.6789 17.0758 15.7766V15.6179H16.7351V16.2761C16.7351 15.8717 16.406 15.5901 15.9388 15.5901C15.4564 15.5901 15.1201 15.8833 15.1201 16.3021C15.1201 16.7208 15.4465 16.9961 15.9128 16.9961C16.3073 16.9961 16.7324 16.7737 16.7351 16.2859V16.9728H17.1144V16.1658C17.1142 16.1351 17.12 16.1046 17.1314 16.0761C17.1656 16.0095 17.2181 15.9541 17.2828 15.9165C17.3475 15.8788 17.4216 15.8605 17.4964 15.8636C17.7779 15.8636 17.8371 16.0429 17.8371 16.2007V16.9755H18.2164V16.3478C18.2388 16.7065 18.5482 16.9692 18.9553 16.9692C19.1326 16.9759 19.3064 16.9194 19.4458 16.8096V16.8553C19.4458 17.1243 19.2808 17.2633 18.9553 17.2633C18.7946 17.2667 18.6354 17.233 18.4899 17.1647L18.4523 17.1459L18.3464 17.3987L18.3787 17.4149C18.557 17.4925 18.7501 17.5302 18.9445 17.5252C19.1648 17.5329 19.3827 17.4772 19.5722 17.3647C19.7435 17.24 19.8233 17.0445 19.8233 16.7477V15.6161H19.4862L19.4835 15.7542ZM15.9254 16.7406C15.8667 16.7417 15.8083 16.7308 15.754 16.7086C15.6997 16.6863 15.6505 16.6531 15.6095 16.6111C15.5685 16.5691 15.5365 16.5191 15.5156 16.4643C15.4946 16.4094 15.4852 16.3509 15.4878 16.2922C15.4874 16.2346 15.4983 16.1775 15.5199 16.1242C15.5416 16.0708 15.5735 16.0222 15.614 15.9812C15.6544 15.9402 15.7025 15.9076 15.7555 15.8852C15.8086 15.8627 15.8655 15.851 15.9231 15.8506C15.9807 15.8502 16.0378 15.8611 16.0912 15.8828C16.1445 15.9044 16.1931 15.9364 16.2341 15.9768C16.2751 16.0172 16.3077 16.0653 16.3302 16.1184C16.3526 16.1714 16.3643 16.2283 16.3647 16.2859C16.3678 16.3452 16.3587 16.4044 16.3379 16.4599C16.3171 16.5155 16.2851 16.5661 16.2439 16.6088C16.2027 16.6514 16.1531 16.6851 16.0983 16.7078C16.0435 16.7305 15.9847 16.7416 15.9254 16.7406ZM19.4413 16.3873C19.4417 16.4244 19.4347 16.4613 19.4207 16.4958C19.3853 16.5643 19.3306 16.6209 19.2633 16.6587C19.1961 16.6965 19.1192 16.7137 19.0423 16.7083C18.7733 16.7083 18.5939 16.5442 18.5939 16.2895C18.591 16.2302 18.6007 16.1709 18.6223 16.1156C18.6439 16.0603 18.6769 16.0101 18.7193 15.9685C18.7616 15.9268 18.8123 15.8946 18.8679 15.8739C18.9236 15.8532 18.983 15.8445 19.0423 15.8483C19.1213 15.8417 19.2005 15.8596 19.2689 15.8998C19.3373 15.9399 19.3916 16.0003 19.4243 16.0725C19.4353 16.0995 19.4399 16.1286 19.4377 16.1577L19.4413 16.3873Z" fill="#006393"/>
<path d="M24.6638 15.6161C24.4917 15.6104 24.3234 15.6668 24.1894 15.7749V15.6161H23.8262V16.4232C23.8266 16.4564 23.8193 16.4892 23.8047 16.5191C23.7683 16.5768 23.7173 16.6238 23.6568 16.6553C23.5963 16.6868 23.5285 16.7017 23.4604 16.6985C23.2497 16.6985 23.1474 16.5828 23.1474 16.3461V15.6099H22.4301L22.0893 16.3792C22.0642 16.4366 22.0409 16.4967 22.0203 16.5505C21.997 16.4922 21.971 16.433 21.9477 16.3837L21.589 15.6161H21.1899L21.8087 16.8231C21.8164 16.8343 21.8221 16.8467 21.8257 16.8599C21.8215 16.8719 21.8158 16.8833 21.8087 16.8939C21.7516 16.9888 21.6733 17.0693 21.58 17.1289C21.5063 17.1761 21.4254 17.2112 21.3406 17.2329L21.2984 17.2428L21.3971 17.4956L21.4267 17.4911C21.5583 17.4691 21.6837 17.4189 21.7943 17.3441C21.988 17.2123 22.127 17.015 22.3476 16.5657L22.787 15.6807V16.3927C22.787 16.9092 23.1941 16.9648 23.3689 16.9648C23.5418 16.9713 23.711 16.9138 23.8442 16.8034V16.9648H24.2091V16.1658C24.2081 16.1351 24.2136 16.1046 24.2253 16.0761C24.258 16.0125 24.3082 15.9596 24.37 15.9235C24.4318 15.8875 24.5026 15.8698 24.5741 15.8726C24.8431 15.8726 24.9005 16.0475 24.9005 16.1945V16.9639H25.2636V16.1721C25.2636 15.7614 24.9426 15.6152 24.6682 15.6152" fill="#006393"/>
<path d="M21.3529 16.9638V16.172C21.3529 15.7604 21.0355 15.6142 20.7638 15.6142C20.658 15.6139 20.5532 15.6356 20.4562 15.6779C20.3987 15.7021 20.3457 15.7357 20.2993 15.7774V15H19.9316V16.9656H20.2984V16.163C20.2965 16.1323 20.302 16.1015 20.3145 16.0734C20.3485 16.0113 20.3992 15.9599 20.4608 15.925C20.5225 15.8902 20.5926 15.8732 20.6633 15.8761C20.9324 15.8761 20.9897 16.0554 20.9897 16.198V16.9656L21.3529 16.9638Z" fill="#006393"/>
<path d="M10.5632 23.213C11.3068 23.4803 12.091 23.6171 12.8812 23.6174C14.0048 23.6174 14.6307 23.2694 14.6307 22.752C14.6307 22.2723 14.1473 21.9899 12.9269 21.6984C11.3478 21.3218 10.3382 20.7677 10.3382 19.8548C10.3382 18.82 11.6464 18.03 13.7232 18.03C14.7616 18.03 15.5292 18.1807 16.0268 18.3501L15.6009 19.2809C14.9868 19.0744 14.3424 18.9726 13.6945 18.9796C12.5853 18.9796 12.102 19.3751 12.102 19.7418C12.102 20.2314 12.657 20.4592 13.9366 20.7865C15.6009 21.1999 16.4115 21.7549 16.4115 22.6696C16.4115 23.6846 15.2458 24.5688 12.77 24.5688C11.7603 24.5688 10.7076 24.3814 10.1821 24.1742L10.5632 23.213Z" fill="#006393"/>
<path d="M16.6455 18.2926C17.4579 18.2005 18.275 18.1571 19.0926 18.1626C20.3372 18.1626 21.103 18.2648 21.7325 18.5625C22.3064 18.7947 22.6893 19.2027 22.6893 19.7327C22.6893 20.3084 22.1557 20.8374 21.1577 21.0885V21.1073C22.1288 21.2741 23.0175 21.7942 23.0175 22.6586C23.0175 23.2155 22.6588 23.6522 22.1288 23.949C21.4724 24.339 20.3919 24.5345 18.7097 24.5345C17.7798 24.5345 17.0687 24.4879 16.6473 24.4511L16.6455 18.2926ZM18.3134 20.7639H19.1751C20.3408 20.7639 20.9936 20.3918 20.9936 19.8627C20.9936 19.2772 20.3372 19.0082 19.271 19.0082C18.9511 19.0003 18.631 19.0159 18.3134 19.0548V20.7639ZM18.3134 23.6432C18.5322 23.6611 18.8191 23.671 19.202 23.671C20.2825 23.671 21.2402 23.3921 21.2402 22.621C21.2402 21.8964 20.3103 21.5996 19.1473 21.5996H18.3134V23.6432Z" fill="#006393"/>
<path d="M23.1724 18.2926C23.985 18.2005 24.8025 18.1571 25.6204 18.1626C26.8641 18.1626 27.6299 18.2648 28.2593 18.5625C28.8332 18.7947 29.2161 19.2027 29.2161 19.7327C29.2161 20.3084 28.6781 20.8374 27.6846 21.0885V21.1073C28.6557 21.2741 29.5443 21.7942 29.5443 22.6586C29.5443 23.2155 29.1856 23.6522 28.6557 23.949C27.9993 24.339 26.9188 24.5345 25.2375 24.5345C24.3076 24.5345 23.5965 24.4879 23.1751 24.4511L23.1724 18.2926ZM24.8402 20.7639H25.702C26.8677 20.7639 27.5205 20.3918 27.5205 19.8627C27.5205 19.2772 26.8641 19.0082 25.7979 19.0082C25.478 19.0003 25.1579 19.0159 24.8402 19.0548V20.7639ZM24.8402 23.6432C25.059 23.6611 25.3469 23.671 25.7289 23.671C26.8094 23.671 27.7671 23.3921 27.7671 22.621C27.7671 21.8964 26.8417 21.5987 25.676 21.5987H24.8411L24.8402 23.6432Z" fill="#006393"/>
</g>
<circle cx="20" cy="20" r="19.5" stroke="black" stroke-opacity="0.05"/>
<defs>
<clipPath id="clip0_14382_21621">
<rect width="30" height="9.56331" fill="white" transform="translate(5 15)"/>
</clipPath>
</defs>
</svg>
