<svg width="40" height="40" viewBox="0 0 40 40" fill="none" xmlns="http://www.w3.org/2000/svg">
<circle cx="20" cy="20" r="20" fill="#F6F8FA"/>
<circle cx="20" cy="20" r="19.5" stroke="black" stroke-opacity="0.05"/>
<g clip-path="url(#clip0_14382_20475)">
<path d="M17.5521 28.8501H13V30.0058H17.5521V28.8501Z" fill="#263B8C"/>
<path d="M26.6103 28.8501H22.0582V30.0058H26.6103V28.8501Z" fill="#D71E25"/>
<path d="M26.6042 7H13V28.8501H26.6042V7Z" fill="#221D1E"/>
<path d="M22.1042 28.8501H17.5521V30.0058H22.1042V28.8501Z" fill="#FEC40B"/>
<path d="M14.0514 16.1594C14.0514 16.6009 14.3855 16.9595 14.8024 16.9595C15.2193 16.9595 15.5534 16.6009 15.5534 16.1594C15.5534 15.718 15.2162 15.3594 14.8024 15.3594C14.3886 15.3594 14.0514 15.718 14.0514 16.1594Z" fill="white"/>
<path d="M15.532 16.1594C15.532 16.6009 15.8692 16.9595 16.2831 16.9595C16.6969 16.9595 17.031 16.6009 17.031 16.1594C17.031 15.718 16.6969 15.3594 16.2831 15.3594C15.8692 15.3594 15.532 15.718 15.532 16.1594Z" fill="white"/>
<path d="M14.0668 19.2249C14.0668 19.6663 14.404 20.0249 14.8178 20.0249C15.2316 20.0249 15.5688 19.6663 15.5688 19.2249C15.5688 18.7835 15.2347 18.4248 14.8178 18.4248C14.4009 18.4248 14.0668 18.7835 14.0668 19.2249Z" fill="white"/>
<path d="M15.5474 19.2249C15.5474 19.6663 15.8815 20.0249 16.2984 20.0249C16.7153 20.0249 17.0494 19.6663 17.0494 19.2249C17.0494 18.7835 16.7122 18.4248 16.2984 18.4248C15.8846 18.4248 15.5474 18.7835 15.5474 19.2249Z" fill="white"/>
<path d="M14.0668 20.7698C14.0668 21.2112 14.404 21.5699 14.8178 21.5699C15.2316 21.5699 15.5688 21.2112 15.5688 20.7698C15.5688 20.3284 15.2347 19.9697 14.8178 19.9697C14.4009 19.9697 14.0668 20.3284 14.0668 20.7698Z" fill="white"/>
<path d="M15.5474 20.7698C15.5474 21.2112 15.8815 21.5699 16.2984 21.5699C16.7153 21.5699 17.0494 21.2112 17.0494 20.7698C17.0494 20.3284 16.7122 19.9697 16.2984 19.9697C15.8846 19.9697 15.5474 20.3284 15.5474 20.7698Z" fill="white"/>
<path d="M14.0668 22.2625C14.0668 22.7039 14.404 23.0625 14.8178 23.0625C15.2316 23.0625 15.5688 22.7039 15.5688 22.2625C15.5688 21.8211 15.2347 21.4624 14.8178 21.4624C14.4009 21.4624 14.0668 21.8211 14.0668 22.2625Z" fill="white"/>
<path d="M15.5474 22.2625C15.5474 22.7039 15.8815 23.0625 16.2984 23.0625C16.7153 23.0625 17.0494 22.7039 17.0494 22.2625C17.0494 21.8211 16.7122 21.4624 16.2984 21.4624C15.8846 21.4624 15.5474 21.8211 15.5474 22.2625Z" fill="white"/>
<path d="M14.0668 23.8074C14.0668 24.2488 14.404 24.6075 14.8178 24.6075C15.2316 24.6075 15.5688 24.2488 15.5688 23.8074C15.5688 23.366 15.2347 23.0073 14.8178 23.0073C14.4009 23.0073 14.0668 23.366 14.0668 23.8074Z" fill="white"/>
<path d="M15.5474 23.8074C15.5474 24.2488 15.8815 24.6075 16.2984 24.6075C16.7153 24.6075 17.0494 24.2488 17.0494 23.8074C17.0494 23.366 16.7122 23.0073 16.2984 23.0073C15.8846 23.0073 15.5474 23.366 15.5474 23.8074Z" fill="white"/>
<path d="M14.0668 25.2971C14.0668 25.7386 14.404 26.0972 14.8178 26.0972C15.2316 26.0972 15.5688 25.7416 15.5688 25.2971C15.5688 24.8527 15.2347 24.4971 14.8178 24.4971C14.4009 24.4971 14.0668 24.8557 14.0668 25.2971Z" fill="white"/>
<path d="M15.5474 25.2971C15.5474 25.7386 15.8815 26.0972 16.2984 26.0972C16.7153 26.0972 17.0494 25.7416 17.0494 25.2971C17.0494 24.8527 16.7122 24.4971 16.2984 24.4971C15.8846 24.4971 15.5474 24.8557 15.5474 25.2971Z" fill="white"/>
<path d="M16.9145 25.2971C16.9145 25.7386 17.2486 26.0972 17.6624 26.0972C18.0763 26.0972 18.4135 25.7416 18.4135 25.2971C18.4135 24.8527 18.0763 24.4971 17.6624 24.4971C17.2486 24.4971 16.9145 24.8557 16.9145 25.2971Z" fill="white"/>
<path d="M18.3951 25.2971C18.3951 25.7386 18.7323 26.0972 19.1461 26.0972C19.5599 26.0972 19.8971 25.7416 19.8971 25.2971C19.8971 24.8527 19.563 24.4971 19.1461 24.4971C18.7292 24.4971 18.3951 24.8557 18.3951 25.2971Z" fill="white"/>
<path d="M19.7806 25.2971C19.7806 25.7386 20.1148 26.0972 20.5317 26.0972C20.9486 26.0972 21.2827 25.7416 21.2827 25.2971C21.2827 24.8527 20.9455 24.4971 20.5317 24.4971C20.1178 24.4971 19.7806 24.8557 19.7806 25.2971Z" fill="white"/>
<path d="M21.2612 25.2971C21.2612 25.7386 21.5954 26.0972 22.0123 26.0972C22.4291 26.0972 22.7633 25.7416 22.7633 25.2971C22.7633 24.8527 22.4261 24.4971 22.0123 24.4971C21.5984 24.4971 21.2612 24.8557 21.2612 25.2971Z" fill="white"/>
<path d="M22.6284 25.2971C22.6284 25.7386 22.9625 26.0972 23.3794 26.0972C23.7963 26.0972 24.1305 25.7416 24.1305 25.2971C24.1305 24.8527 23.7933 24.4971 23.3794 24.4971C22.9656 24.4971 22.6284 24.8557 22.6284 25.2971Z" fill="white"/>
<path d="M15.5474 26.8362C15.5474 27.2776 15.8815 27.6363 16.2984 27.6363C16.7153 27.6363 17.0494 27.2776 17.0494 26.8362C17.0494 26.3948 16.7122 26.0361 16.2984 26.0361C15.8846 26.0361 15.5474 26.3948 15.5474 26.8362Z" fill="white"/>
<path d="M16.9145 26.8362C16.9145 27.2776 17.2486 27.6363 17.6624 27.6363C18.0763 27.6363 18.4135 27.2776 18.4135 26.8362C18.4135 26.3948 18.0763 26.0361 17.6624 26.0361C17.2486 26.0361 16.9145 26.3948 16.9145 26.8362Z" fill="white"/>
<path d="M18.3951 26.8362C18.3951 27.2776 18.7323 27.6363 19.1462 27.6363C19.56 27.6363 19.8972 27.2776 19.8972 26.8362C19.8972 26.3948 19.5631 26.0361 19.1462 26.0361C18.7293 26.0361 18.3951 26.3948 18.3951 26.8362Z" fill="white"/>
<path d="M19.7807 26.8362C19.7807 27.2776 20.1148 27.6363 20.5317 27.6363C20.9486 27.6363 21.2827 27.2776 21.2827 26.8362C21.2827 26.3948 20.9455 26.0361 20.5317 26.0361C20.1179 26.0361 19.7807 26.3948 19.7807 26.8362Z" fill="white"/>
<path d="M21.2612 26.8362C21.2612 27.2776 21.5954 27.6363 22.0123 27.6363C22.4291 27.6363 22.7633 27.2776 22.7633 26.8362C22.7633 26.3948 22.4261 26.0361 22.0123 26.0361C21.5984 26.0361 21.2612 26.3948 21.2612 26.8362Z" fill="white"/>
<path d="M22.6284 26.8362C22.6284 27.2776 22.9625 27.6363 23.3794 27.6363C23.7963 27.6363 24.1304 27.2776 24.1304 26.8362C24.1304 26.3948 23.7932 26.0361 23.3794 26.0361C22.9656 26.0361 22.6284 26.3948 22.6284 26.8362Z" fill="white"/>
<path d="M24.109 25.2971C24.109 25.7386 24.4462 26.0972 24.86 26.0972C25.2739 26.0972 25.6111 25.7416 25.6111 25.2971C25.6111 24.8527 25.2739 24.4971 24.86 24.4971C24.4462 24.4971 24.109 24.8557 24.109 25.2971Z" fill="white"/>
<path d="M14.0514 17.7288C14.0514 18.1702 14.3855 18.5288 14.8024 18.5288C15.2193 18.5288 15.5534 18.1702 15.5534 17.7288C15.5534 17.2874 15.2162 16.9287 14.8024 16.9287C14.3886 16.9287 14.0514 17.2874 14.0514 17.7288Z" fill="white"/>
<path d="M15.532 17.7288C15.532 18.1702 15.8692 18.5288 16.2831 18.5288C16.6969 18.5288 17.031 18.1702 17.031 17.7288C17.031 17.2874 16.6969 16.9287 16.2831 16.9287C15.8692 16.9287 15.532 17.2874 15.532 17.7288Z" fill="white"/>
<path d="M18.3215 16.1594C18.3215 16.6009 18.6587 16.9595 19.0726 16.9595C19.4864 16.9595 19.8236 16.6009 19.8236 16.1594C19.8236 15.718 19.4864 15.3594 19.0726 15.3594C18.6587 15.3594 18.3215 15.718 18.3215 16.1594Z" fill="white"/>
<path d="M19.8021 16.1594C19.8021 16.6009 20.1393 16.9595 20.5531 16.9595C20.9669 16.9595 21.3041 16.6009 21.3041 16.1594C21.3041 15.718 20.9669 15.3594 20.5531 15.3594C20.1393 15.3594 19.8021 15.718 19.8021 16.1594Z" fill="white"/>
<path d="M18.3368 19.2249C18.3368 19.6663 18.6709 20.0249 19.0878 20.0249C19.5047 20.0249 19.8388 19.6663 19.8388 19.2249C19.8388 18.7835 19.5047 18.4248 19.0878 18.4248C18.6709 18.4248 18.3368 18.7835 18.3368 19.2249Z" fill="white"/>
<path d="M19.8174 19.2249C19.8174 19.6663 20.1516 20.0249 20.5685 20.0249C20.9854 20.0249 21.3195 19.6663 21.3195 19.2249C21.3195 18.7835 20.9823 18.4248 20.5685 18.4248C20.1546 18.4248 19.8174 18.7835 19.8174 19.2249Z" fill="white"/>
<path d="M18.3368 20.7698C18.3368 21.2112 18.6709 21.5699 19.0878 21.5699C19.5047 21.5699 19.8388 21.2112 19.8388 20.7698C19.8388 20.3284 19.5047 19.9697 19.0878 19.9697C18.6709 19.9697 18.3368 20.3284 18.3368 20.7698Z" fill="white"/>
<path d="M19.8174 20.7698C19.8174 21.2112 20.1516 21.5699 20.5685 21.5699C20.9854 21.5699 21.3195 21.2112 21.3195 20.7698C21.3195 20.3284 20.9823 19.9697 20.5685 19.9697C20.1546 19.9697 19.8174 20.3284 19.8174 20.7698Z" fill="white"/>
<path d="M18.3368 22.2625C18.3368 22.7039 18.6709 23.0625 19.0878 23.0625C19.5047 23.0625 19.8388 22.7039 19.8388 22.2625C19.8388 21.8211 19.5047 21.4624 19.0878 21.4624C18.6709 21.4624 18.3368 21.8211 18.3368 22.2625Z" fill="white"/>
<path d="M19.8174 22.2625C19.8174 22.7039 20.1516 23.0625 20.5685 23.0625C20.9854 23.0625 21.3195 22.7039 21.3195 22.2625C21.3195 21.8211 20.9823 21.4624 20.5685 21.4624C20.1546 21.4624 19.8174 21.8211 19.8174 22.2625Z" fill="white"/>
<path d="M18.3368 23.8074C18.3368 24.2488 18.6709 24.6075 19.0878 24.6075C19.5047 24.6075 19.8388 24.2488 19.8388 23.8074C19.8388 23.366 19.5047 23.0073 19.0878 23.0073C18.6709 23.0073 18.3368 23.366 18.3368 23.8074Z" fill="white"/>
<path d="M19.8174 23.8074C19.8174 24.2488 20.1516 24.6075 20.5685 24.6075C20.9854 24.6075 21.3195 24.2488 21.3195 23.8074C21.3195 23.366 20.9823 23.0073 20.5685 23.0073C20.1546 23.0073 19.8174 23.366 19.8174 23.8074Z" fill="white"/>
<path d="M18.3215 17.7288C18.3215 18.1702 18.6587 18.5288 19.0726 18.5288C19.4864 18.5288 19.8236 18.1702 19.8236 17.7288C19.8236 17.2874 19.4864 16.9287 19.0726 16.9287C18.6587 16.9287 18.3215 17.2874 18.3215 17.7288Z" fill="white"/>
<path d="M19.8021 17.7288C19.8021 18.1702 20.1393 18.5288 20.5531 18.5288C20.9669 18.5288 21.3041 18.1702 21.3041 17.7288C21.3041 17.2874 20.9669 16.9287 20.5531 16.9287C20.1393 16.9287 19.8021 17.2874 19.8021 17.7288Z" fill="white"/>
<path d="M22.5947 16.1594C22.5947 16.6009 22.9288 16.9595 23.3426 16.9595C23.7565 16.9595 24.0936 16.6009 24.0936 16.1594C24.0936 15.718 23.7595 15.3594 23.3426 15.3594C22.9257 15.3594 22.5947 15.718 22.5947 16.1594Z" fill="white"/>
<path d="M24.0753 16.1594C24.0753 16.6009 24.4094 16.9595 24.8263 16.9595C25.2432 16.9595 25.5773 16.6009 25.5773 16.1594C25.5773 15.718 25.2401 15.3594 24.8263 15.3594C24.4124 15.3594 24.0753 15.718 24.0753 16.1594Z" fill="white"/>
<path d="M22.61 19.2249C22.61 19.6663 22.9442 20.0249 23.3611 20.0249C23.778 20.0249 24.1121 19.6663 24.1121 19.2249C24.1121 18.7835 23.7749 18.4248 23.3611 18.4248C22.9472 18.4248 22.61 18.7835 22.61 19.2249Z" fill="white"/>
<path d="M24.0906 19.2249C24.0906 19.6663 24.4278 20.0249 24.8416 20.0249C25.2554 20.0249 25.5926 19.6663 25.5926 19.2249C25.5926 18.7835 25.2585 18.4248 24.8416 18.4248C24.4247 18.4248 24.0906 18.7835 24.0906 19.2249Z" fill="white"/>
<path d="M22.61 20.7698C22.61 21.2112 22.9442 21.5699 23.3611 21.5699C23.778 21.5699 24.1121 21.2112 24.1121 20.7698C24.1121 20.3284 23.7749 19.9697 23.3611 19.9697C22.9472 19.9697 22.61 20.3284 22.61 20.7698Z" fill="white"/>
<path d="M24.0906 20.7698C24.0906 21.2112 24.4278 21.5699 24.8416 21.5699C25.2554 21.5699 25.5926 21.2112 25.5926 20.7698C25.5926 20.3284 25.2585 19.9697 24.8416 19.9697C24.4247 19.9697 24.0906 20.3284 24.0906 20.7698Z" fill="white"/>
<path d="M22.61 22.2625C22.61 22.7039 22.9442 23.0625 23.3611 23.0625C23.778 23.0625 24.1121 22.7039 24.1121 22.2625C24.1121 21.8211 23.7749 21.4624 23.3611 21.4624C22.9472 21.4624 22.61 21.8211 22.61 22.2625Z" fill="white"/>
<path d="M24.0906 22.2625C24.0906 22.7039 24.4278 23.0625 24.8416 23.0625C25.2554 23.0625 25.5926 22.7039 25.5926 22.2625C25.5926 21.8211 25.2585 21.4624 24.8416 21.4624C24.4247 21.4624 24.0906 21.8211 24.0906 22.2625Z" fill="white"/>
<path d="M22.61 23.8074C22.61 24.2488 22.9442 24.6075 23.3611 24.6075C23.778 24.6075 24.1121 24.2488 24.1121 23.8074C24.1121 23.366 23.7749 23.0073 23.3611 23.0073C22.9472 23.0073 22.61 23.366 22.61 23.8074Z" fill="white"/>
<path d="M24.0906 23.8074C24.0906 24.2488 24.4278 24.6075 24.8416 24.6075C25.2554 24.6075 25.5926 24.2488 25.5926 23.8074C25.5926 23.366 25.2585 23.0073 24.8416 23.0073C24.4247 23.0073 24.0906 23.366 24.0906 23.8074Z" fill="white"/>
<path d="M22.5947 17.7288C22.5947 18.1702 22.9288 18.5288 23.3426 18.5288C23.7565 18.5288 24.0936 18.1702 24.0936 17.7288C24.0936 17.2874 23.7595 16.9287 23.3426 16.9287C22.9257 16.9287 22.5947 17.2874 22.5947 17.7288Z" fill="white"/>
<path d="M24.0753 17.7288C24.0753 18.1702 24.4094 18.5288 24.8263 18.5288C25.2432 18.5288 25.5773 18.1702 25.5773 17.7288C25.5773 17.2874 25.2401 16.9287 24.8263 16.9287C24.4124 16.9287 24.0753 17.2874 24.0753 17.7288Z" fill="white"/>
<path d="M13.4414 32.936C13.4475 33.1107 13.4905 33.2456 13.5732 33.3437C13.656 33.4418 13.7663 33.4908 13.9043 33.4908C14.0545 33.4908 14.171 33.4418 14.2599 33.3437C14.3488 33.2456 14.3917 33.1168 14.3917 32.9574C14.3917 32.7888 14.3457 32.6662 14.2599 32.5865C14.1955 32.5314 14.0698 32.47 13.8767 32.4057C13.7541 32.372 13.6437 32.3229 13.5395 32.2647C13.423 32.1942 13.328 32.1114 13.2483 32.0164C13.1931 31.9489 13.1533 31.8692 13.1226 31.7773C13.0981 31.6914 13.0858 31.5995 13.0858 31.4983C13.0858 31.2102 13.1655 30.9772 13.328 30.7994C13.4874 30.6216 13.6958 30.5327 13.9533 30.5327C14.1955 30.5327 14.3886 30.6124 14.5358 30.7718C14.6829 30.9343 14.7626 31.1611 14.781 31.4523H14.3334C14.3242 31.3144 14.2844 31.2071 14.2139 31.1305C14.1434 31.0538 14.0576 31.014 13.9472 31.014C13.8246 31.014 13.7265 31.0538 13.6529 31.1366C13.5855 31.2194 13.5487 31.3297 13.5487 31.4677C13.5487 31.5198 13.5518 31.5658 13.561 31.5995C13.5732 31.6424 13.5916 31.6792 13.6223 31.7098C13.6621 31.7497 13.7173 31.7865 13.7878 31.8141C13.8307 31.8355 13.9012 31.8631 14.0024 31.8938L14.2231 31.9673C14.4254 32.047 14.5787 32.1666 14.6829 32.326C14.7933 32.4854 14.8484 32.6754 14.8484 32.9023C14.8484 33.2211 14.7626 33.4816 14.5909 33.6809C14.4162 33.8801 14.1894 33.9813 13.9074 33.9813C13.6407 33.9813 13.423 33.8863 13.2575 33.6931C13.0858 33.497 13 33.2425 13 32.9268H13.4353L13.4414 32.936Z" fill="#000101"/>
<path d="M17.6747 33.7548C17.4356 33.9173 17.1628 33.997 16.8501 33.997C16.6202 33.997 16.4056 33.9479 16.2064 33.8468C16.0071 33.7487 15.8293 33.6077 15.6699 33.4207C15.5381 33.2613 15.44 33.0835 15.3695 32.8842C15.3021 32.6819 15.2714 32.4673 15.2714 32.2436C15.2714 32.0198 15.3113 31.7899 15.391 31.5845C15.4707 31.3761 15.5902 31.186 15.7527 31.0174C15.906 30.858 16.0715 30.7384 16.2554 30.6557C16.4424 30.576 16.6447 30.5361 16.8562 30.5361C17.175 30.5361 17.454 30.6158 17.6931 30.7783C17.9353 30.9438 18.1222 31.1829 18.2541 31.4956H17.6931C17.5919 31.3485 17.4662 31.2381 17.3222 31.1645C17.1812 31.0971 17.0218 31.0634 16.844 31.0634C16.6999 31.0634 16.565 31.091 16.4363 31.1431C16.3014 31.2013 16.191 31.2872 16.096 31.3944C15.9887 31.5048 15.906 31.6397 15.8477 31.7929C15.7925 31.9401 15.765 32.0934 15.765 32.2497C15.765 32.4183 15.7925 32.5777 15.8447 32.7218C15.8968 32.872 15.9734 33.0007 16.0715 33.1111C16.1726 33.2245 16.2922 33.3103 16.4271 33.3778C16.562 33.4421 16.6999 33.4758 16.8409 33.4758C17.0126 33.4758 17.1689 33.4391 17.3099 33.3686C17.4479 33.2981 17.5674 33.1969 17.6624 33.062H18.2418C18.0977 33.3624 17.9046 33.5923 17.6655 33.7517L17.6747 33.7548Z" fill="#000101"/>
<path d="M18.8764 31.5813C18.9591 31.3729 19.0818 31.1859 19.2412 31.0203C19.3914 30.8609 19.5569 30.7414 19.7377 30.6586C19.9247 30.5789 20.1209 30.5391 20.3355 30.5391C20.5501 30.5391 20.7524 30.5789 20.9424 30.6586C21.1294 30.7414 21.298 30.864 21.4513 31.0265C21.6107 31.192 21.7272 31.379 21.81 31.5844C21.8927 31.7897 21.9356 32.0135 21.9356 32.2496C21.9356 32.4856 21.8988 32.7032 21.8283 32.9055C21.7578 33.1017 21.6567 33.2826 21.5218 33.4389C21.3593 33.6228 21.1785 33.7608 20.9823 33.8558C20.78 33.9539 20.5654 34.003 20.3355 34.003C20.1056 34.003 19.888 33.9539 19.6887 33.8528C19.4925 33.7547 19.3147 33.6137 19.1584 33.4267C19.0296 33.2673 18.9285 33.0895 18.858 32.8902C18.7905 32.6879 18.7599 32.4733 18.7599 32.2496C18.7599 32.0258 18.7997 31.7959 18.8794 31.5844L18.8764 31.5813ZM19.3301 32.7216C19.3822 32.8718 19.4588 33.0006 19.56 33.1109C19.6642 33.2243 19.7837 33.3102 19.9217 33.3776C20.0565 33.442 20.1945 33.4757 20.3355 33.4757C20.6482 33.4757 20.9118 33.3592 21.1233 33.1232C21.3379 32.8872 21.4421 32.5929 21.4421 32.2434C21.4421 32.0963 21.4176 31.9553 21.3624 31.8173C21.3103 31.6794 21.2337 31.5537 21.1356 31.4464C21.0221 31.3146 20.8995 31.2165 20.7708 31.1552C20.642 31.097 20.4949 31.0663 20.3355 31.0663C20.1914 31.0663 20.0565 31.0939 19.9278 31.146C19.7991 31.2012 19.6826 31.287 19.5845 31.3974C19.4772 31.5077 19.3944 31.6426 19.3392 31.7959C19.2841 31.943 19.2565 32.0963 19.2565 32.2526C19.2565 32.4212 19.281 32.5806 19.3331 32.7247L19.3301 32.7216Z" fill="#000101"/>
<path d="M22.5089 33.9324V30.6064H23.2445C23.4254 30.6064 23.5603 30.6126 23.6522 30.6248C23.781 30.6463 23.8913 30.6861 23.9833 30.7444C24.1121 30.821 24.2193 30.9375 24.299 31.0938C24.3757 31.244 24.4155 31.4096 24.4155 31.5904C24.4155 31.8939 24.3174 32.1422 24.1243 32.3292C23.9281 32.5193 23.6614 32.6173 23.3273 32.6173H22.9871V33.9355H22.5089V33.9324ZM23.2967 32.1269C23.5143 32.1269 23.6737 32.087 23.7749 32.0073C23.8791 31.9276 23.9343 31.7989 23.9343 31.618C23.9343 31.4372 23.8821 31.2962 23.7749 31.2103C23.6768 31.1276 23.5204 31.0877 23.3089 31.0877H22.9871V32.1269H23.2997H23.2967Z" fill="#000101"/>
<path d="M24.9979 33.9264V30.6035H26.644V31.0848H25.4823V32.0197H26.644V32.4979H25.4823V33.4267H26.644V33.9264H24.9979Z" fill="#000101"/>
</g>
<defs>
<clipPath id="clip0_14382_20475">
<rect width="13.6441" height="27" fill="white" transform="translate(13 7)"/>
</clipPath>
</defs>
</svg>
