<svg width="40" height="40" viewBox="0 0 40 40" fill="none" xmlns="http://www.w3.org/2000/svg">
<circle cx="20" cy="20" r="20" fill="#4B7DC6"/>
<path d="M6.88526 21.6231C6.88526 22.2766 6.3553 22.8066 5.70176 22.8066H5.1835C4.52996 22.8066 4 22.2766 4 21.6231V19.1835C4 18.53 4.52996 18 5.1835 18H5.70176C6.3553 18 6.88526 18.53 6.88526 19.1835V21.6231ZM6.40448 19.2045C6.40508 18.8062 6.08297 18.4829 5.68467 18.4823L5.20839 18.4814C4.81009 18.4808 4.48678 18.8029 4.48618 19.2012L4.48198 21.6036C4.48138 22.0019 4.80349 22.3252 5.20179 22.3258L5.67807 22.3267C6.07637 22.3273 6.39969 22.0052 6.40029 21.6069L6.40448 19.2045Z" fill="white"/>
<path d="M8.3718 18.5085C8.3679 18.6314 8.3661 18.7511 8.3661 18.8675C8.3655 20.0711 8.367 21.3085 8.3703 22.5802C8.3703 22.6186 8.36011 22.66 8.33941 22.7047C8.30012 22.7896 8.21164 22.8237 8.07338 22.807C7.89942 22.7857 7.88203 22.6543 7.88233 22.5142C7.88503 20.9903 7.88503 19.5699 7.88233 18.2529C7.88173 18.0529 8.01939 18.0088 8.19065 18.0082C8.62764 18.007 9.06672 18.0076 9.50791 18.0097C9.69536 18.0106 9.87922 18.0463 10.0595 18.1162C10.3009 18.2103 10.4641 18.3852 10.6008 18.6059C10.7202 18.7982 10.758 18.9943 10.7601 19.2217C10.7628 19.5219 10.7601 19.7303 10.7508 19.847C10.7208 20.2366 10.4785 20.538 10.1419 20.7405C9.99229 20.8308 9.82283 20.8769 9.63328 20.8793C9.38884 20.8823 9.13781 20.8826 8.88077 20.8802C8.762 20.8793 8.69272 20.8182 8.67323 20.6973C8.65373 20.577 8.70202 20.4061 8.85318 20.4079C9.07842 20.4112 9.30066 20.4097 9.51991 20.404C9.71636 20.3986 9.9437 20.338 10.0775 20.1838C10.2451 19.9901 10.2853 19.8203 10.2766 19.566C10.2727 19.4499 10.2724 19.3359 10.2751 19.2241C10.2823 18.9394 10.1569 18.7268 9.89871 18.5864C9.78594 18.5252 9.68787 18.4965 9.558 18.4935C9.28237 18.4875 9.05383 18.4872 8.87267 18.4923C8.70412 18.4974 8.54246 18.4977 8.388 18.4932C8.3775 18.4929 8.3721 18.498 8.3718 18.5085Z" fill="white"/>
<path d="M12.1285 18.5111L12.1291 22.3073C12.1291 22.3172 12.1372 22.325 12.1471 22.325C12.7058 22.3256 13.2388 22.3256 13.7466 22.3247C13.901 22.3247 14.0348 22.354 14.0441 22.5382C14.0507 22.6756 13.9997 22.8081 13.8375 22.8084C13.1827 22.8099 12.5295 22.8096 11.8784 22.8084C11.6363 22.8078 11.6432 22.6504 11.6429 22.4515C11.6405 21.0458 11.6405 19.6505 11.6429 18.2658C11.6432 18.028 11.8256 18.0037 12.0226 18.0055C12.6213 18.0106 13.1908 18.0106 13.7313 18.0061C13.8105 18.0055 13.88 18.019 13.9397 18.0468C14.0711 18.1077 14.0573 18.3135 13.9979 18.414C13.9457 18.5021 13.8518 18.4913 13.7655 18.491C13.2778 18.491 12.7391 18.4907 12.1492 18.4907C12.1351 18.4907 12.1282 18.4976 12.1282 18.5114L12.1285 18.5111Z" fill="white"/>
<path d="M15.4358 19.2237C15.4391 20.3049 15.44 21.3999 15.4388 22.509C15.4388 22.6473 15.4217 22.7831 15.2597 22.8056C15.1034 22.8272 14.9544 22.7783 14.9544 22.5948C14.9529 21.1429 14.9532 19.6918 14.9544 18.2417C14.9547 18.0345 15.1679 17.937 15.3254 18.0531C15.4469 18.1424 15.5014 18.3038 15.5731 18.4313C16.008 19.2051 16.4378 19.9804 16.8628 20.7569C17.0149 21.0349 17.1837 21.312 17.3298 21.6014C17.346 21.6329 17.3541 21.6311 17.3541 21.5957C17.3541 20.5136 17.3541 19.424 17.3532 18.3266C17.3532 18.1595 17.3775 18.0069 17.5862 18.006C17.7554 18.0051 17.8399 18.0956 17.8399 18.2774C17.8405 19.717 17.8405 21.1495 17.8399 22.5744C17.8399 22.6827 17.7929 22.7855 17.6741 22.8047C17.4165 22.8467 17.3769 22.6686 17.2797 22.4955C16.6537 21.3777 16.0476 20.2848 15.4613 19.2168C15.4439 19.185 15.4352 19.1874 15.4352 19.2237H15.4358Z" fill="white"/>
<path d="M19.3512 18.4924C19.3428 18.4924 19.3386 18.4969 19.3386 18.5053L19.338 22.3053C19.338 22.3149 19.3455 22.3224 19.3551 22.3227C19.8979 22.3278 20.4339 22.3278 20.9627 22.3227C21.088 22.3215 21.2203 22.3473 21.2476 22.4925C21.2746 22.6382 21.2263 22.808 21.049 22.8083C20.3721 22.8092 19.7216 22.8092 19.0968 22.8083C18.9334 22.8083 18.8515 22.7333 18.8518 22.5843C18.8527 21.1734 18.853 19.7239 18.8527 18.2354C18.8527 18.1085 18.9514 18.0239 19.0773 18.0146C19.1766 18.0074 19.287 18.0044 19.4085 18.0056C19.9591 18.0107 20.4693 18.0107 20.939 18.0056C21.0331 18.0044 21.1687 18.0227 21.2182 18.1121C21.2821 18.227 21.262 18.4444 21.1078 18.4849C21.0931 18.4888 21.0343 18.4906 20.9315 18.4903C20.4351 18.4894 19.9084 18.4903 19.3512 18.4924Z" fill="white"/>
<path d="M22.1567 18.2619C22.1567 18.1201 22.2713 18.0049 22.4132 18.0046L23.8066 18.0022C24.4943 18.001 25.0525 18.5577 25.0537 19.2454L25.0579 21.5662C25.0591 22.2539 24.5027 22.8124 23.815 22.8136L22.4216 22.816C22.2797 22.816 22.1645 22.7011 22.1642 22.5592L22.1567 18.2619ZM22.6606 18.5148V22.3028C22.6606 22.3172 22.6723 22.3289 22.6867 22.3289H23.8261C24.2358 22.3289 24.5681 21.9924 24.5681 21.5773V19.2403C24.5681 18.8252 24.2358 18.4887 23.8261 18.4887H22.6867C22.6723 18.4887 22.6606 18.5004 22.6606 18.5148Z" fill="white"/>
<path d="M28.3513 20.4556C28.3513 20.4391 28.3441 20.4349 28.3297 20.443C28.1305 20.5525 27.9317 20.6649 27.7334 20.7804C27.5724 20.8743 27.4443 20.7651 27.3972 20.6127C27.3687 20.5207 27.3852 20.4361 27.468 20.3875C27.7955 20.1952 28.1401 19.9937 28.5016 19.7832C28.6947 19.6707 28.8333 19.8506 28.8336 20.0255C28.8351 20.8212 28.8357 21.6688 28.8348 22.5685C28.8345 22.6939 28.7676 22.8049 28.6314 22.8052C28.1425 22.8052 27.6561 22.8058 27.1717 22.8064C26.6258 22.8073 26.1355 22.4741 26.0011 21.9453C25.9636 21.7962 25.9513 21.6157 25.9513 21.4579C25.9501 20.7306 25.9501 20.0378 25.9516 19.3792C25.9522 19.0975 25.9888 18.7613 26.1631 18.5277C26.3721 18.2478 26.6375 18.0808 26.9596 18.0265C27.0637 18.0091 27.2647 18.0022 27.5625 18.0058C27.8867 18.0097 28.2037 18.01 28.5135 18.0067C28.7079 18.0046 28.8651 18.07 28.8315 18.3027C28.8135 18.4251 28.7412 18.4923 28.6227 18.4917C28.1614 18.4893 27.7029 18.4896 27.247 18.4923C27.043 18.4938 26.8259 18.5304 26.672 18.683C26.5212 18.8327 26.4453 18.9854 26.4462 19.1983C26.4489 20.0654 26.4486 20.8713 26.4453 21.6157C26.4441 21.8772 26.5413 22.0497 26.7569 22.2014C26.8652 22.2779 26.9848 22.3169 27.1159 22.3187C27.4734 22.3235 27.8795 22.3247 28.3345 22.3223C28.3435 22.3223 28.351 22.3148 28.351 22.3058V20.4556H28.3513Z" fill="white"/>
<path d="M30.3105 18.4909C30.2958 18.4909 30.2883 18.4984 30.2883 18.5131V22.2999C30.2883 22.3158 30.2964 22.3239 30.3123 22.3242C30.8159 22.3263 31.3401 22.3266 31.8854 22.3248C32.0855 22.3239 32.2336 22.3623 32.2003 22.6203C32.185 22.7405 32.1106 22.8092 31.994 22.8092C31.3176 22.8092 30.6668 22.8089 30.0418 22.8086C29.8822 22.8086 29.8024 22.7288 29.8027 22.5693C29.8042 21.1278 29.8045 19.7008 29.803 18.2879C29.8024 17.9924 30.0193 18.0059 30.2352 18.0071C30.7892 18.0104 31.3263 18.0101 31.8473 18.0059C32.0612 18.0041 32.2303 18.0287 32.2003 18.2987C32.1775 18.5068 32.0429 18.4903 31.8608 18.4903C31.3593 18.4903 30.8426 18.4903 30.3105 18.4909Z" fill="white"/>
<path d="M33.6664 18.9127C33.5011 19.2651 33.6478 19.6889 34.0029 19.8577C34.4833 20.0857 34.9584 20.3379 35.4758 20.6207C35.5061 20.6372 35.5343 20.6564 35.5607 20.678C35.8873 20.9461 36.0318 21.2955 35.9941 21.7265C35.9557 22.1644 35.6857 22.4952 35.3072 22.6953C35.1627 22.7718 34.9899 22.8099 34.7887 22.8096C34.2674 22.8087 33.7878 22.8087 33.3499 22.8096C33.2606 22.8096 33.1829 22.7823 33.149 22.6923C33.0995 22.5603 33.1268 22.3966 33.2789 22.3489C33.3313 22.3324 33.3916 22.324 33.4594 22.3243C33.972 22.327 34.4417 22.3255 34.8687 22.3198C35.2056 22.3156 35.4854 21.9842 35.51 21.6621C35.5283 21.417 35.4425 21.217 35.2523 21.0619C35.1204 20.9542 34.9599 20.8946 34.8052 20.816C34.4057 20.6129 34.0176 20.409 33.6409 20.2035C33.5785 20.1696 33.5158 20.1288 33.4669 20.0791C33.1589 19.7668 33.0518 19.3823 33.1457 18.9256C33.2249 18.5402 33.5554 18.2177 33.9132 18.0795C34.0521 18.0258 34.2269 18.0093 34.3772 18.0081C34.7272 18.0054 35.0931 18.0054 35.4749 18.0084C35.6917 18.0102 35.7868 18.1101 35.7601 18.3083C35.7421 18.4427 35.6548 18.4934 35.5316 18.4922C35.1846 18.4892 34.8379 18.4889 34.4917 18.4916C34.1324 18.4943 33.8325 18.5591 33.6664 18.9127Z" fill="white"/>
<path d="M12.4326 20.1241L12.4323 20.2165C12.4319 20.3232 12.5181 20.41 12.6248 20.4103L13.8365 20.4146C13.9431 20.4149 14.0299 20.3288 14.0303 20.2221L14.0306 20.1297C14.031 20.023 13.9448 19.9363 13.8381 19.9359L12.6265 19.9317C12.5198 19.9313 12.433 20.0175 12.4326 20.1241Z" fill="white"/>
<path d="M19.6411 20.1245L19.6408 20.2157C19.6404 20.3227 19.7269 20.4097 19.8339 20.4101L21.0456 20.4143C21.1526 20.4147 21.2396 20.3283 21.24 20.2213L21.2403 20.1301C21.2407 20.0231 21.1542 19.936 21.0472 19.9357L19.8356 19.9314C19.7286 19.9311 19.6415 20.0175 19.6411 20.1245Z" fill="white"/>
<circle cx="20" cy="20" r="19.5" stroke="black" stroke-opacity="0.05"/>
</svg>
