<svg width="40" height="40" viewBox="0 0 40 40" fill="none" xmlns="http://www.w3.org/2000/svg">
<circle cx="20" cy="20" r="20" fill="#F6F8FA"/>
<g clip-path="url(#clip0_43895_83155)">
<path d="M21.3006 17.6376C22.5273 18.3912 22.9255 20.0165 22.1869 21.2682C21.4483 22.5199 19.8554 22.9263 18.6287 22.1726C17.4019 21.419 17.0037 19.7937 17.7424 18.542C18.481 17.2903 20.0738 16.884 21.3006 17.6376Z" fill="#7EBFD8"/>
<path d="M17.7551 12.7552C18.7442 13.2271 19.1681 14.4329 18.6992 15.4356C18.2304 16.4448 17.055 16.8774 16.0659 16.399C15.0768 15.9271 14.6529 14.7213 15.1217 13.712C15.5842 12.7028 16.766 12.2703 17.7487 12.7487L17.7551 12.7552Z" fill="#B4D9E7"/>
<path d="M12.7585 18.2209C13.6577 17.5852 14.8845 17.8146 15.5075 18.7255C16.1305 19.643 15.9057 20.8947 15.0129 21.5304C14.1137 22.1661 12.887 21.9367 12.264 21.0258C11.641 20.1083 11.8658 18.8566 12.7585 18.2209Z" fill="#B4D9E7"/>
<path d="M14.8974 25.3644C14.8075 24.2568 15.6168 23.2804 16.7023 23.1886C17.7877 23.0969 18.7447 23.9226 18.8346 25.0301C18.9245 26.1377 18.1153 27.1141 17.0298 27.2059C15.9444 27.2976 14.9874 26.4719 14.8974 25.3644Z" fill="#7EBFD8"/>
<path d="M18.5773 29.5585C18.5902 28.7786 19.226 28.156 19.9904 28.1691C20.7547 28.1823 21.3648 28.831 21.352 29.6109C21.3391 30.3908 20.7033 31.0134 19.939 31.0002C19.1747 30.9871 18.5645 30.3449 18.5773 29.5585Z" fill="#2DA5CA"/>
<path d="M10.6769 24.5648C10.6063 23.7849 11.1651 23.0968 11.9294 23.0247C12.6937 22.9526 13.3681 23.5228 13.4387 24.3026C13.5094 25.0825 12.9506 25.7706 12.1863 25.8427C11.422 25.9148 10.7476 25.3446 10.6769 24.5648Z" fill="#B4D9E7"/>
<path d="M18.5838 10.3895C18.5966 9.60968 19.226 8.9871 19.9904 9.0002C20.7547 9.01331 21.3648 9.6621 21.352 10.442C21.3391 11.2218 20.7033 11.8444 19.939 11.8313C19.1747 11.8182 18.5645 11.1694 18.5773 10.3895H18.5838Z" fill="#B4D9E7"/>
<path d="M14.891 10.4026C14.8974 9.95045 15.2635 9.59656 15.7067 9.60312C16.1498 9.60967 16.4967 9.98322 16.4902 10.4354C16.4838 10.8876 16.1177 11.248 15.6745 11.2349C15.2314 11.2284 14.8781 10.8548 14.891 10.4026Z" fill="#B4D9E7"/>
<path d="M23.722 10.7174C23.7284 10.2652 24.0945 9.90472 24.5377 9.91783C24.9809 9.92438 25.3341 10.2979 25.3213 10.7501C25.3149 11.2023 24.9488 11.5627 24.5056 11.5496C24.0624 11.5431 23.7092 11.1695 23.722 10.7174Z" fill="#7EBFD8"/>
<path d="M14.3962 29.5714C14.4026 29.1192 14.7687 28.7587 15.2119 28.7718C15.655 28.7784 16.0083 29.1519 15.9954 29.6041C15.989 30.0563 15.6229 30.4168 15.1797 30.4036C14.7366 30.3971 14.3833 30.0235 14.3897 29.5714H14.3962Z" fill="#7EBFD8"/>
<path d="M8.50018 19.9314C8.46807 19.4792 8.80205 19.0926 9.24523 19.0598C9.68197 19.027 10.0673 19.3678 10.0995 19.82C10.1316 20.2722 9.79758 20.6588 9.35441 20.6916C8.91124 20.7244 8.5323 20.3836 8.50018 19.9314Z" fill="#B4D9E7"/>
<path d="M29.9006 19.9378C29.8685 19.4856 30.2024 19.0989 30.6456 19.0661C31.0888 19.0334 31.4677 19.3742 31.4998 19.8263C31.532 20.2785 31.198 20.6652 30.7548 20.698C30.3116 20.7307 29.9327 20.3899 29.9006 19.9378Z" fill="#2DA5CA"/>
<path d="M23.7218 29.5714C23.7282 29.1192 24.0943 28.7587 24.5375 28.7718C24.9806 28.7784 25.3339 29.1519 25.321 29.6041C25.3146 30.0563 24.9485 30.4168 24.5053 30.4036C24.0622 30.3971 23.7153 30.0235 23.7218 29.5714Z" fill="#2DA5CA"/>
<path d="M26.7989 15.6912C26.7283 14.9113 27.2935 14.2232 28.0514 14.1511C28.8157 14.079 29.4901 14.6557 29.5607 15.429C29.6314 16.2089 29.0662 16.897 28.3083 16.9691C27.544 17.0412 26.8696 16.4645 26.7989 15.6912Z" fill="#2DA5CA"/>
<path d="M10.6769 15.698C10.6062 14.9181 11.1714 14.23 11.9293 14.1579C12.6936 14.0859 13.368 14.6626 13.4387 15.4359C13.5093 16.2157 12.9441 16.9038 12.1862 16.9759C11.4219 17.048 10.7475 16.4713 10.6769 15.698Z" fill="#B4D9E7"/>
<path d="M26.7531 24.5648C26.6824 23.7849 27.2412 23.0968 28.0055 23.0247C28.7699 22.9526 29.4442 23.5228 29.5149 24.3026C29.5855 25.0825 29.0268 25.7706 28.2625 25.8427C27.4981 25.9148 26.8237 25.3446 26.7531 24.5648Z" fill="#2DA5CA"/>
<path d="M22.0327 27.0552C21.0436 26.5834 20.6197 25.3775 21.0885 24.3683C21.551 23.3591 22.7328 22.9265 23.7219 23.4049C24.711 23.8768 25.1349 25.0826 24.666 26.0853C24.2036 27.0945 23.0218 27.5271 22.0391 27.0487L22.0327 27.0552Z" fill="#2DA5CA"/>
<path d="M27.0295 21.5895C26.1368 22.2251 24.9036 21.9958 24.2806 21.0848C23.6576 20.1674 23.8824 18.9156 24.7751 18.28C25.6743 17.6443 26.9011 17.8736 27.5241 18.7846C28.1471 19.7021 27.9223 20.9538 27.0231 21.5895H27.0295Z" fill="#2DA5CA"/>
<path d="M24.8971 14.4398C24.987 15.5473 24.1778 16.5238 23.0923 16.6155C22.0069 16.7073 21.0499 15.8816 20.9599 14.774C20.87 13.6665 21.6793 12.69 22.7648 12.5983C23.8502 12.5065 24.8072 13.3323 24.8971 14.4398Z" fill="#7EBFD8"/>
</g>
<circle cx="20" cy="20" r="19.5" stroke="black" stroke-opacity="0.05"/>
<defs>
<clipPath id="clip0_43895_83155">
<rect width="25" height="22.0005" fill="white" transform="translate(7.5 9)"/>
</clipPath>
</defs>
</svg>
