<svg width="40" height="40" viewBox="0 0 40 40" fill="none" xmlns="http://www.w3.org/2000/svg">
<circle cx="20" cy="20" r="20" fill="#EA002C"/>
<path d="M14.655 22.1057C14.0432 21.8211 13.5452 21.5899 13.5452 21.1239C13.5452 20.7682 13.8298 20.5085 14.3918 20.5085C14.577 20.51 14.7616 20.529 14.9431 20.5655C15.0322 20.5834 15.1227 20.5929 15.2135 20.5939C15.7044 20.5939 15.9818 20.3022 16.1668 19.7473L16.2415 19.5197C15.6295 19.2688 14.9749 19.1383 14.3135 19.1355C12.6488 19.1355 11.7702 20.2026 11.7702 21.3125C11.7536 21.7815 11.9135 22.2397 12.2184 22.5966C12.5951 22.9861 13.0463 23.2958 13.5452 23.5072C14.2317 23.8416 14.8507 24.0906 14.8507 24.5921C14.8507 25.0332 14.3953 25.2858 13.7835 25.2858C13.1891 25.2523 12.6144 25.0607 12.1188 24.7308L11.4287 26.0327C12.1785 26.465 13.0321 26.6839 13.8973 26.6659C15.4518 26.6659 16.6292 25.7731 16.6292 24.4036C16.6292 23.0341 15.5265 22.5325 14.655 22.1057Z" fill="white"/>
<path d="M20.7302 22.7424L23.551 19.2849H21.5412L19.2931 22.2693H19.2611V19.2849H17.6035V26.609H17.7031C18.4145 26.609 19.2718 26.2782 19.2718 25.0795V23.4005H19.3038L21.5982 26.5094H23.7075L20.7302 22.7424Z" fill="white"/>
<path d="M23.6437 11.4412C23.0639 11.5514 22.1995 12.0814 22.1995 13.017C22.1995 13.8671 22.911 14.3829 22.911 15.5069C22.9105 15.852 22.8196 16.1909 22.6473 16.4898C22.4751 16.7888 22.2275 17.0374 21.9292 17.2108C22.1284 17.193 22.3525 17.1788 22.5944 17.1788C22.8739 17.1751 23.1532 17.1918 23.4303 17.2286L26.0448 14.0272C25.3908 13.04 24.5797 12.1665 23.6437 11.4412Z" fill="white"/>
<path d="M25.842 20.1065C26.1728 19.5943 26.1977 18.7797 26.2404 17.9473C26.2724 17.1719 26.4324 16.5885 27.4711 16.5849C27.7023 16.5849 27.9193 16.6134 28.3177 16.6134C29.421 16.61 30.5028 16.3076 31.448 15.7384C29.8349 14.6998 27.9755 14.1071 26.0589 14.0203C25.9095 14.44 24.7535 17.6592 24.6646 17.9331C24.8403 18.1423 24.9963 18.3674 25.1305 18.6054C25.4211 19.0786 25.6597 19.5819 25.842 20.1065Z" fill="white"/>
<path d="M20.318 17.4777C20.1864 17.4777 20.1224 17.3923 20.1046 17.2394C20.0868 17.0864 19.4394 11.1033 19.3363 10.1998C19.3363 10.0647 19.2865 9.82277 19.2865 9.7374C19.2839 9.70995 19.2873 9.68228 19.2962 9.6562C19.3051 9.63013 19.3195 9.60623 19.3383 9.58608C19.3571 9.56593 19.3799 9.54998 19.4053 9.53928C19.4307 9.52857 19.4581 9.52336 19.4857 9.52397C19.7951 9.52397 21.4848 9.91881 23.274 11.1745C22.8736 11.2755 22.5166 11.5032 22.2563 11.8238C21.9961 12.1443 21.8464 12.5405 21.8298 12.953C21.8298 13.9348 22.5412 14.479 22.5412 15.4644C22.5483 17.09 20.7022 17.4777 20.318 17.4777Z" fill="white"/>
<path d="M25.9912 20.5333C26.0139 20.5957 26.0412 20.6564 26.073 20.7147C26.0875 20.745 26.1102 20.7707 26.1384 20.7889C26.1667 20.8072 26.1995 20.8172 26.2331 20.8178C26.285 20.8149 26.3358 20.8016 26.3825 20.7787L32.8066 17.7907C32.924 17.7338 33.1624 17.6342 33.2264 17.5915C33.2589 17.5753 33.2864 17.5505 33.3058 17.5198C33.3253 17.489 33.3359 17.4536 33.3367 17.4172C33.3365 17.3798 33.3267 17.343 33.3082 17.3105C32.8739 16.7894 32.3629 16.3372 31.7929 15.9695C30.7601 16.5998 29.5771 16.9413 28.3674 16.9584C27.969 16.9584 27.8765 16.9335 27.6061 16.9335C26.8093 16.9335 26.6102 17.2892 26.5817 17.9721C26.5817 18.1038 26.5817 18.2816 26.5817 18.4772C26.5532 19.0997 26.4679 19.9606 25.9912 20.5333Z" fill="white"/>
<circle cx="20" cy="20" r="19.5" stroke="black" stroke-opacity="0.05"/>
</svg>
