<svg width="40" height="40" viewBox="0 0 40 40" fill="none" xmlns="http://www.w3.org/2000/svg">
<circle cx="20" cy="20" r="20" fill="#005476"/>
<path d="M30.7881 17.2978H29.7891C29.7726 17.2978 29.7588 17.2839 29.7588 17.2675V16.4494C29.7588 16.4373 29.7657 16.426 29.777 16.4217L30.7777 16.0027C30.7933 15.9958 30.8106 16.0027 30.8175 16.0183C30.8193 16.0226 30.8201 16.0269 30.8201 16.0313L30.8184 17.2675C30.8184 17.2839 30.8046 17.2978 30.7881 17.2978Z" fill="white"/>
<path d="M26.4531 17.7756C27.1067 17.7773 27.814 17.7133 28.4087 17.9583C28.9325 18.1747 29.1991 18.5686 29.2078 19.1408C29.2207 19.9779 29.2233 20.8428 29.2155 21.7336C29.2155 21.7639 29.2 21.7786 29.1697 21.7786H28.1776C28.1542 21.7786 28.1351 21.7596 28.1351 21.7362C28.1351 21.0142 28.1351 20.2922 28.136 19.5693C28.136 19.0724 27.9083 18.8058 27.4504 18.7686C27.1837 18.7469 26.9353 18.7547 26.705 18.7919C26.5076 18.8231 26.4081 18.9478 26.4072 19.1668C26.402 20.042 26.4011 20.8965 26.4055 21.7319C26.4055 21.7578 26.3847 21.7786 26.3587 21.7786H25.4091C25.3649 21.7786 25.3433 21.757 25.3433 21.7128L25.345 16.1178C25.345 16.0823 25.3623 16.065 25.3978 16.065H26.3605C26.389 16.0641 26.4037 16.0788 26.4037 16.1074V17.7263C26.4037 17.7592 26.4202 17.7756 26.4531 17.7756Z" fill="white"/>
<path d="M18.5463 18.5521H18.0711C18.0131 18.5529 17.9845 18.5244 17.9854 18.4664L17.9871 17.8959C17.9871 17.8136 18.0278 17.7773 18.11 17.7877C18.2589 17.8058 18.4087 17.8076 18.5593 17.792C18.5948 17.7885 18.6121 17.7695 18.6121 17.734V16.6683C18.6121 16.625 18.632 16.5939 18.671 16.5757L19.6302 16.1117C19.6735 16.0909 19.6951 16.1047 19.6951 16.1524V17.7444C19.6951 17.7755 19.7202 17.8007 19.7505 17.8007L20.5158 17.7946C20.5409 17.7946 20.5608 17.8145 20.5608 17.8396L20.5574 18.5192C20.5574 18.5443 20.5444 18.5564 20.5193 18.5555L19.7384 18.5512C19.709 18.5512 19.6943 18.5659 19.6943 18.5945V20.7795C19.6943 20.8834 19.7722 20.9708 19.8752 20.9838C20.0717 21.0081 20.2561 21.0046 20.4284 20.9726C20.502 20.9587 20.5383 20.989 20.5375 21.0635L20.5349 21.7032C20.5349 21.7682 20.5028 21.8054 20.4388 21.8166C20.0613 21.879 19.7021 21.8738 19.361 21.8002C18.71 21.6617 18.6243 21.2314 18.6225 20.6531C18.6199 19.9753 18.6121 19.2931 18.5992 18.6049C18.5992 18.5694 18.581 18.5521 18.5455 18.5521H18.5463Z" fill="white"/>
<path d="M10.348 19.9813C10.3247 19.9813 10.3056 20.0003 10.3056 20.0237C10.3056 20.0263 10.3056 20.0298 10.3065 20.0324C10.4389 20.6912 10.8337 21.0323 11.4899 21.0548C11.9981 21.0721 12.3677 20.7985 12.559 20.3241C12.5703 20.2973 12.5902 20.2834 12.6196 20.2834H13.436C13.4689 20.2834 13.4957 20.3111 13.4949 20.344C13.4949 20.3492 13.4949 20.3544 13.4931 20.3587C13.1893 21.44 12.3383 21.8469 11.283 21.7759C10.4762 21.7222 9.74724 21.3387 9.48406 20.57C9.24686 19.8731 9.30746 18.952 9.79485 18.3789C10.1255 17.9902 10.5593 17.7651 11.0951 17.7019C12.5547 17.5305 13.6083 18.3581 13.5018 19.9259C13.4992 19.9631 13.4793 19.9813 13.4429 19.9813H10.348ZM10.3956 19.2723L12.5062 19.2619C12.5123 19.2619 12.5166 19.2576 12.5166 19.2515V19.2481C12.5132 18.7814 12.0405 18.4057 11.4587 18.4083H11.4328C10.8519 18.4118 10.3827 18.7918 10.3853 19.2584V19.2619C10.3853 19.268 10.3896 19.2723 10.3956 19.2723Z" fill="white"/>
<path d="M23.2051 18.444C22.6354 18.3436 22.0199 18.5652 21.8442 19.1495C21.7109 19.591 21.7186 20.0282 21.8684 20.4611C22.0476 20.9822 22.6484 21.1744 23.1548 21.0861C23.6353 21.0021 23.8916 20.6732 23.9478 20.204C23.9522 20.1719 23.979 20.1486 24.011 20.1494L24.8637 20.1702C24.901 20.1711 24.9183 20.1901 24.9139 20.2273C24.8352 21.0376 24.2863 21.622 23.4942 21.7839C22.3108 22.0245 20.9958 21.5631 20.8071 20.236C20.5794 18.6318 21.4572 17.6129 23.0769 17.6839C23.9634 17.7229 24.7425 18.1626 24.8395 19.1236C24.8421 19.1539 24.8205 19.1798 24.7902 19.1833C24.7884 19.1833 24.7867 19.1833 24.7858 19.1833L23.9695 19.185C23.9357 19.185 23.9123 19.1686 23.8993 19.1366C23.7686 18.7929 23.5998 18.5132 23.2051 18.444Z" fill="white"/>
<path d="M6.38945 18.772C6.16783 18.7824 6.00075 18.9174 5.99902 19.1555C5.99382 19.9952 5.99209 20.8583 5.99382 21.7439C5.99382 21.7664 5.97564 21.7846 5.95227 21.7846L5.04242 21.7768C5.01905 21.7768 5 21.7578 5 21.7344L5.00087 17.8197C5.00087 17.7937 5.02164 17.7729 5.04761 17.7729C5.69429 17.7738 6.37127 17.7755 7.07682 17.7764C7.98061 17.7781 8.87488 18.1088 8.887 19.1754C8.89739 20.0809 8.89912 20.9414 8.89219 21.756C8.89219 21.7708 8.8844 21.7785 8.86968 21.7785L7.8975 21.7811C7.86374 21.7811 7.8369 21.7543 7.83604 21.7205C7.83171 21.0592 7.83257 20.3328 7.83604 19.5416C7.84123 18.643 7.00669 18.7408 6.38858 18.772H6.38945Z" fill="white"/>
<path d="M15.4431 20.4834L14.3765 21.7413C14.3679 21.7508 14.3566 21.756 14.3436 21.756H13.2831C13.2598 21.7569 13.2407 21.7378 13.2407 21.7144C13.2407 21.7049 13.2442 21.6954 13.2502 21.6876L14.8587 19.7354C14.8717 19.7199 14.8717 19.6974 14.8587 19.6818L13.3645 17.8673C13.3498 17.8491 13.3524 17.8222 13.3706 17.8075C13.3784 17.8015 13.3879 17.798 13.3974 17.798L14.4709 17.7954C14.4839 17.7954 14.496 17.8006 14.5046 17.811L15.4067 18.9347C15.4214 18.9529 15.4483 18.9554 15.4664 18.9407C15.4682 18.939 15.4699 18.9373 15.4716 18.9355L16.4352 17.811C16.4438 17.8015 16.4551 17.7963 16.4681 17.7963H17.5104C17.5337 17.7954 17.5528 17.8145 17.5528 17.8378C17.5528 17.8474 17.5493 17.8569 17.5433 17.8647L16.062 19.6757C16.0491 19.6913 16.0491 19.7138 16.062 19.7294L17.6627 21.6919C17.6774 21.7101 17.6748 21.7369 17.6567 21.7517C17.6489 21.7577 17.6393 21.7612 17.6298 21.7612L16.5676 21.7525C16.5546 21.7525 16.5425 21.7465 16.5347 21.7369L15.508 20.4834C15.4933 20.4652 15.4664 20.4635 15.4483 20.4782C15.4465 20.4799 15.4448 20.4817 15.4431 20.4834Z" fill="white"/>
<path d="M30.7812 17.8352H29.796C29.7755 17.8352 29.7588 17.8519 29.7588 17.8724V21.7421C29.7588 21.7627 29.7755 21.7793 29.796 21.7793H30.7812C30.8017 21.7793 30.8184 21.7627 30.8184 21.7421V17.8724C30.8184 17.8519 30.8017 17.8352 30.7812 17.8352Z" fill="white"/>
<path d="M32.376 21.6652L32.3778 23.033C32.3778 23.0633 32.3631 23.078 32.3336 23.078L31.4359 23.0762C31.4056 23.0762 31.3813 23.052 31.3813 23.0226V17.882C31.3813 17.8526 31.4056 17.8284 31.435 17.8284C31.4359 17.8284 31.4376 17.8284 31.4385 17.8284C31.9189 17.8621 32.3743 17.8708 32.8046 17.8561C33.1318 17.8448 33.4313 17.8725 33.7023 17.9409C34.3637 18.1063 34.916 18.6378 34.9792 19.3312C34.9982 19.5433 35.0043 19.7615 34.9974 19.9857C34.9714 20.8713 34.2486 21.5388 33.3906 21.5933C33.0816 21.6123 32.7665 21.6141 32.4453 21.5985C32.3994 21.5968 32.376 21.6193 32.376 21.6652ZM32.3795 18.7711L32.3726 20.667C32.3726 20.7328 32.4254 20.7856 32.4912 20.7856L33.0418 20.7873C33.6045 20.7891 34.0624 20.3554 34.0642 19.8169V19.6316C34.0659 19.094 33.6114 18.656 33.0487 18.6542L32.4981 18.6525C32.4323 18.6525 32.3795 18.7053 32.3795 18.7711Z" fill="white"/>
<circle cx="20" cy="20" r="19.5" stroke="black" stroke-opacity="0.05"/>
</svg>
