<svg width="40" height="40" viewBox="0 0 40 40" fill="none" xmlns="http://www.w3.org/2000/svg">
<circle cx="20" cy="20" r="20" fill="#00A494"/>
<path d="M19.6435 16H19.8271C20.219 16.0191 20.5049 16.0289 20.6843 16.0289C25.4559 16.0367 30.2275 16.0381 34.9997 16.0332V16.5119C34.9779 16.6524 34.9567 16.7929 34.9355 16.9348C34.8741 17.3493 34.6291 17.5576 34.2012 17.5597C33.2529 17.5646 32.3252 17.5653 31.4193 17.5632C31.391 17.5632 31.3762 17.5773 31.3741 17.6049C31.2611 19.1554 31.1383 20.7426 31.0048 22.3659C30.9829 22.6307 30.9505 22.8326 30.906 22.9717C30.7153 23.5761 30.2995 24.107 29.6216 24.1678C29.1203 24.2129 28.631 24.1671 28.1368 24.1819C28.0944 24.1833 28.0754 24.1628 28.0789 24.1205C28.2589 22.1357 28.4397 20.2173 28.6212 18.3653C28.6374 18.2022 28.6445 18.037 28.6423 17.8697C28.6402 17.6656 28.523 17.5646 28.2921 17.5668C27.514 17.5724 26.7345 17.5724 25.9529 17.5675C25.5491 17.5646 25.3358 17.3133 25.0569 17.0775C24.8458 16.8988 24.538 16.7421 24.1348 16.6079C24.1306 16.6065 24.1263 16.6072 24.1235 16.6093L24.0917 16.6305C24.0854 16.6348 24.0854 16.6383 24.0932 16.6418C24.7851 16.9518 25.2405 17.4962 25.3422 18.2615C25.3853 18.5884 25.3987 18.933 25.3817 19.2952C25.2723 21.58 24.6728 23.8451 21.9891 24.1812C21.7582 24.2101 21.5259 24.2362 21.2929 24.261H20.1844C19.705 24.2468 19.2545 24.1805 18.833 24.0626C17.567 23.7088 17.0057 22.7055 16.9951 21.4268C16.9866 20.3557 17.1476 19.3679 17.4773 18.4628C17.7576 17.6924 18.2582 17.1078 18.9791 16.7089C18.9791 16.7089 18.9791 16.7075 18.9791 16.7054L18.9749 16.6856C18.9728 16.6785 18.9685 16.6764 18.9615 16.6785C17.5373 17.2024 16.7557 18.6273 16.2565 19.9794C16.0087 20.6516 15.7369 21.3866 15.441 22.1837C15.3034 22.5537 15.1565 22.8495 14.999 23.0712C14.5006 23.7738 13.786 24.1699 12.8561 24.261H11.5146L10.9109 20.0048C10.8975 19.9109 10.8735 19.9081 10.8403 19.997C10.5883 20.6685 10.3199 21.4007 10.0361 22.1936C9.81511 22.8114 9.64001 23.2146 9.50938 23.4045C9.17895 23.8839 8.66775 24.1607 8.06124 24.225C7.96381 24.2348 7.86708 24.2468 7.77176 24.261H6.09132L5.00116 16.3989C4.9948 16.353 5.01457 16.3297 5.06117 16.3304C5.57166 16.3382 6.07791 16.3396 6.57992 16.3354C7.09182 16.3311 7.45897 16.4611 7.5324 17.0252C7.7188 18.4628 7.91226 19.9413 8.11349 21.46C8.12267 21.5299 8.13962 21.532 8.16504 21.4664C8.6261 20.2724 9.07657 19.0996 9.51574 17.9466C9.67884 17.5173 9.83276 17.2166 9.97609 17.045C10.6144 16.2796 11.4666 16.3078 12.4261 16.3368C12.4459 16.3375 12.4629 16.3523 12.465 16.3721L13.1407 21.4621C13.1513 21.5391 13.171 21.5419 13.2 21.4692C13.6229 20.415 14.0571 19.334 14.5041 18.2269C14.8381 17.398 15.429 16.819 16.2784 16.49C16.9287 16.2379 17.603 16.0925 18.3013 16.053C18.7482 16.0282 19.1952 16.0106 19.6435 16ZM20.5035 17.8457C19.993 18.2015 19.753 18.9309 19.652 19.5564C19.563 20.1065 19.515 20.6664 19.5073 21.2355C19.4988 21.8067 19.6238 22.4577 20.2437 22.6257C20.6172 22.7267 21.0112 22.7295 21.4249 22.6349C21.7575 22.5586 22.0152 22.38 22.1988 22.0983C22.4784 21.669 22.6175 21.1769 22.7142 20.6812C22.8597 19.9335 23.2572 18.133 22.311 17.7249C22.1592 17.66 22.0103 17.6218 21.8641 17.6098C21.4242 17.5745 20.8806 17.583 20.5035 17.8457Z" fill="white"/>
<circle cx="20" cy="20" r="19.5" stroke="black" stroke-opacity="0.05"/>
</svg>
