<svg width="40" height="40" viewBox="0 0 40 40" fill="none" xmlns="http://www.w3.org/2000/svg">
<circle cx="20" cy="20" r="20" fill="#760000"/>
<g clip-path="url(#clip0_33363_65673)">
<path d="M12.2963 14C14.7944 14.3721 14.4699 16.2356 14.4056 18.1347C14.3718 19.1506 13.4017 19.3479 12.6344 19.7006C12.5127 19.7545 12.4834 19.8386 12.5465 19.9529L15.1899 24.7929C15.2146 24.8382 15.2011 24.8609 15.1493 24.8609H12.8879C12.8338 24.8609 12.7944 24.8382 12.7696 24.7929L10.569 20.7682C10.5572 20.7465 10.5503 20.7228 10.5485 20.6983C10.5467 20.6739 10.5502 20.6493 10.5588 20.626C10.5673 20.6027 10.5807 20.5812 10.5981 20.5629C10.6156 20.5445 10.6367 20.5296 10.6603 20.5191L12.0124 19.9368C12.1341 19.8828 12.1949 19.7923 12.1949 19.665V15.43C12.1949 15.0914 12.0192 14.9221 11.6676 14.9221H10.5454C10.329 14.9221 10.2208 15.0267 10.2208 15.2359V24.6732C10.2208 24.7789 10.1645 24.8328 10.0518 24.835L8 24.8544V14H12.2963Z" fill="white"/>
<path d="M29.7927 25.0009H28.3121C25.9493 24.6677 26.1149 23.2344 26.1082 21.2027C26.1037 19.8697 26.1048 18.5379 26.1116 17.2071C26.1183 15.8062 26.3448 14.8712 27.8659 14.5671C29.4242 14.2532 31.5978 14.5315 31.7127 16.4468C31.7307 16.7164 31.7307 17.5274 31.7127 18.8797C31.7104 18.9962 31.653 19.0792 31.5403 19.1288L28.4406 20.4682C28.3952 20.4876 28.3566 20.5191 28.3296 20.5587C28.3026 20.5983 28.2883 20.6445 28.2885 20.6915V23.1277C28.2885 23.7488 28.6141 24.0594 29.2654 24.0594H29.4276C30.0496 24.0594 30.3606 23.7747 30.3606 23.2053V21.8432C30.3606 21.8115 30.3737 21.781 30.3972 21.7586C30.4207 21.7362 30.4525 21.7235 30.4856 21.7235H31.5876C31.6507 21.7235 31.6868 21.7548 31.6958 21.8174C31.9189 23.3832 31.5504 24.6579 29.7927 25.0009ZM29.3803 19.0091C29.4885 18.9617 29.5425 18.8797 29.5425 18.7632V15.9841C29.5425 15.6606 29.3747 15.4794 29.0389 15.4406L28.9172 15.4277C28.8383 15.4185 28.7584 15.4256 28.6826 15.4484C28.6067 15.4712 28.5368 15.5092 28.4774 15.56C28.4179 15.6108 28.3704 15.6731 28.3378 15.7429C28.3052 15.8126 28.2884 15.8882 28.2885 15.9647V19.2582C28.2885 19.4071 28.3583 19.4513 28.498 19.3909L29.3803 19.0091Z" fill="white"/>
<path d="M23.0557 24.9992H21.5752C19.6552 24.6853 19.4557 23.6403 19.476 22.013C19.4783 21.8146 19.5831 21.7153 19.7904 21.7153H21.4433C21.6304 21.7153 21.7239 21.8049 21.7239 21.9839V23.5109C21.7239 23.8733 21.9132 24.0545 22.2918 24.0545H22.4371C22.5456 24.0545 22.6497 24.0132 22.7264 23.9398C22.8031 23.8664 22.8462 23.7668 22.8462 23.663V22.1456C22.8461 22.0137 22.8099 21.884 22.7411 21.7694C22.6723 21.6547 22.5734 21.5592 22.454 21.4921C21.1932 20.7901 19.8073 20.2789 19.5876 19.0948C19.3205 17.6551 19.6146 16.4159 21.2236 15.9759C22.7819 15.5489 24.854 15.9306 25.0501 17.8556C25.0636 17.97 25.0152 18.0508 24.9047 18.0983L23.0456 18.9006C22.9126 18.9589 22.8462 18.9179 22.8462 18.7777V17.283C22.8459 17.1615 22.7983 17.0444 22.7126 16.9547C22.627 16.8649 22.5095 16.809 22.3831 16.7977C22.018 16.7632 21.8107 16.9336 21.7611 17.3089C21.6777 17.9365 21.7149 18.465 21.8726 18.8942C21.9096 18.9942 21.9814 19.0779 22.0755 19.1303C23.2416 19.7839 24.9487 20.3759 25.1076 21.8415C25.2867 23.4786 24.9216 24.708 23.0557 24.9992Z" fill="white"/>
<path d="M18.1138 24.8608H16.1634C16.1275 24.8608 16.0931 24.8472 16.0677 24.8229C16.0424 24.7986 16.0281 24.7657 16.0281 24.7314V18.2705C16.0279 18.2452 16.0355 18.2203 16.0499 18.199C16.0643 18.1777 16.085 18.161 16.1093 18.1508L18.0597 17.3096C18.0801 17.3011 18.1024 17.2975 18.1246 17.2992C18.1468 17.3009 18.1682 17.3079 18.1869 17.3194C18.2056 17.3309 18.2211 17.3467 18.2319 17.3653C18.2428 17.3839 18.2486 17.4048 18.249 17.4261V24.7314C18.249 24.7657 18.2347 24.7986 18.2094 24.8229C18.184 24.8472 18.1496 24.8608 18.1138 24.8608Z" fill="white"/>
</g>
<circle cx="20" cy="20" r="19.5" stroke="black" stroke-opacity="0.05"/>
<defs>
<clipPath id="clip0_33363_65673">
<rect width="24" height="11" fill="white" transform="translate(8 14)"/>
</clipPath>
</defs>
</svg>
