<svg width="40" height="40" viewBox="0 0 40 40" fill="none" xmlns="http://www.w3.org/2000/svg">
<circle cx="20" cy="20" r="20" fill="#F2F7FA"/>
<g clip-path="url(#clip0_14382_21129)">
<path d="M8.44443 12.3137V12.382C8.46712 12.3931 8.4917 12.4041 8.51438 12.4171C8.53707 12.4854 8.56165 12.5555 8.58433 12.6239C8.60702 12.6349 8.63159 12.646 8.65428 12.6589C8.66562 12.7051 8.67696 12.7513 8.6902 12.7974C8.71288 12.8085 8.73746 12.8196 8.76015 12.8325C8.77149 12.8787 8.78283 12.9248 8.79607 12.971C8.81875 12.9821 8.84333 12.9931 8.86601 13.0061V13.0744H8.90193C8.91328 13.1205 8.92462 13.1667 8.93785 13.2129C8.96054 13.2239 8.98511 13.235 9.0078 13.2479V13.3163H9.04372V13.3846H9.07964V13.4529C9.10232 13.464 9.1269 13.475 9.14959 13.488C9.17227 13.5563 9.19685 13.6264 9.21953 13.6948C9.24222 13.7058 9.2668 13.7169 9.28948 13.7298C9.30083 13.776 9.31217 13.8222 9.3254 13.8683C9.34809 13.8794 9.37266 13.8905 9.39535 13.9034C9.40669 13.9496 9.41804 13.9957 9.43127 14.0419C9.45395 14.053 9.47853 14.064 9.50122 14.077V14.1453H9.53714V14.2136H9.57306V14.2819H9.60897V14.3502H9.64489V14.4185C9.66758 14.4296 9.69216 14.4407 9.71484 14.4536V14.5219H9.75076V14.5903C9.77345 14.6013 9.79802 14.6124 9.82071 14.6253C9.83205 14.6715 9.84339 14.7177 9.85663 14.7638C9.87931 14.7749 9.90389 14.786 9.92658 14.7989V14.8672H9.9625V14.9355C9.98518 14.9466 10.0098 14.9577 10.0324 14.9706C10.0551 15.0389 10.0797 15.1091 10.1024 15.1774C10.1251 15.1885 10.1497 15.1996 10.1723 15.2125C10.195 15.2808 10.2196 15.351 10.2423 15.4193C10.265 15.4304 10.2895 15.4414 10.3122 15.4544V15.5227H10.3482C10.3595 15.5688 10.3708 15.615 10.3841 15.6612C10.4068 15.6722 10.4313 15.6833 10.454 15.6962C10.4654 15.7424 10.4767 15.7886 10.4899 15.8347C10.5126 15.8458 10.5372 15.8569 10.5599 15.8698C10.5712 15.916 10.5826 15.9621 10.5958 16.0083C10.6185 16.0194 10.6431 16.0304 10.6658 16.0434V16.1117H10.7017V16.18H10.7376V16.2483H10.7735V16.3166H10.8094V16.3849C10.8321 16.396 10.8567 16.4071 10.8794 16.42C10.8907 16.4662 10.9021 16.5123 10.9153 16.5585C10.938 16.5696 10.9626 16.5807 10.9852 16.5936C10.9966 16.6397 11.0079 16.6859 11.0212 16.7321C11.0439 16.7431 11.0684 16.7542 11.0911 16.7671C11.1025 16.8133 11.1138 16.8595 11.127 16.9056C11.1497 16.9167 11.1743 16.9278 11.197 16.9407V17.009H11.2329V17.0773H11.2688V17.1456H11.3047V17.214C11.3274 17.225 11.352 17.2361 11.3747 17.249C11.3974 17.3174 11.422 17.3875 11.4446 17.4558C11.4673 17.4669 11.4919 17.478 11.5146 17.4909C11.5259 17.5371 11.5373 17.5832 11.5505 17.6294C11.5732 17.6405 11.5978 17.6516 11.6205 17.6645C11.6318 17.7106 11.6431 17.7568 11.6564 17.803C11.6791 17.814 11.7036 17.8251 11.7263 17.838C11.749 17.9064 11.7736 17.9765 11.7963 18.0448C11.819 18.0559 11.8435 18.067 11.8662 18.0799V18.1482H11.9021V18.2165H11.9381V18.2849H11.974V18.3532C11.9967 18.3643 12.0212 18.3753 12.0439 18.3883C12.0553 18.4344 12.0666 18.4806 12.0798 18.5267C12.1025 18.5378 12.1271 18.5489 12.1498 18.5618C12.1725 18.6301 12.1971 18.7003 12.2197 18.7686C12.2424 18.7797 12.267 18.7908 12.2897 18.8037C12.3124 18.872 12.3369 18.9422 12.3596 19.0105C12.3823 19.0216 12.4069 19.0326 12.4296 19.0456C12.4409 19.0917 12.4523 19.1379 12.4655 19.1841C12.4882 19.1951 12.5128 19.2062 12.5354 19.2191C12.5581 19.2874 12.5827 19.3576 12.6054 19.4259C12.6281 19.437 12.6527 19.4481 12.6753 19.461C12.6867 19.5072 12.698 19.5533 12.7113 19.5995C12.7339 19.6106 12.7585 19.6216 12.7812 19.6346V19.7029H12.8171C12.8285 19.749 12.8398 19.7952 12.8531 19.8414C12.8757 19.8524 12.9003 19.8635 12.923 19.8764C12.9457 19.9448 12.9703 20.0149 12.9929 20.0832C13.0156 20.0943 13.0402 20.1054 13.0629 20.1183C13.0856 20.1866 13.1102 20.2568 13.1328 20.3251C13.1555 20.3362 13.1801 20.3473 13.2028 20.3602C13.2141 20.4064 13.2255 20.4525 13.2387 20.4987C13.2614 20.5098 13.286 20.5208 13.3087 20.5338C13.3313 20.6021 13.3559 20.6722 13.3786 20.7406C13.4013 20.7516 13.4259 20.7627 13.4486 20.7756C13.4712 20.8439 13.4958 20.9141 13.5185 20.9824C13.5412 20.9935 13.5658 21.0046 13.5884 21.0175C13.6111 21.0858 13.6357 21.156 13.6584 21.2243C13.6811 21.2354 13.7057 21.2465 13.7283 21.2594C13.7397 21.3055 13.751 21.3517 13.7643 21.3979C13.787 21.4089 13.8115 21.42 13.8342 21.4329C13.8456 21.4791 13.8569 21.5253 13.8701 21.5714C13.8928 21.5825 13.9174 21.5936 13.9401 21.6065C13.9628 21.6748 13.9873 21.745 14.01 21.8133C14.0327 21.8244 14.0573 21.8355 14.08 21.8484V21.9167H14.1159V21.985H14.1518V22.0533H14.1877V22.1216C14.2104 22.1327 14.235 22.1438 14.2577 22.1567V22.225H14.2936V22.2934C14.3163 22.3044 14.3409 22.3155 14.3635 22.3284C14.3749 22.3746 14.3862 22.4208 14.3995 22.4669C14.4222 22.478 14.4467 22.4891 14.4694 22.502C14.4808 22.5482 14.4921 22.5943 14.5053 22.6405C14.528 22.6516 14.5526 22.6626 14.5753 22.6756V22.7439H14.6112V22.8122H14.6471V22.8805H14.683V22.9488H14.719V23.0171C14.7416 23.0282 14.7662 23.0393 14.7889 23.0522C14.8003 23.0984 14.8116 23.1445 14.8248 23.1907C14.8475 23.2018 14.8721 23.2129 14.8948 23.2258C14.9061 23.2719 14.9175 23.3181 14.9307 23.3643C14.9534 23.3753 14.978 23.3864 15.0006 23.3993C15.012 23.4455 15.0233 23.4917 15.0366 23.5378C15.0592 23.5489 15.0838 23.56 15.1065 23.5729V23.6412H15.1424V23.7095H15.1783V23.7778H15.2143V23.8462C15.237 23.8572 15.2615 23.8683 15.2842 23.8812C15.3069 23.9496 15.3315 24.0197 15.3542 24.088C15.3768 24.0991 15.4014 24.1102 15.4241 24.1231C15.4355 24.1693 15.4468 24.2154 15.46 24.2616C15.4827 24.2727 15.5073 24.2838 15.53 24.2967C15.5527 24.365 15.5772 24.4352 15.5999 24.5035C15.6226 24.5146 15.6472 24.5256 15.6699 24.5386C15.6926 24.6069 15.7171 24.677 15.7398 24.7454C15.7625 24.7564 15.7871 24.7675 15.8098 24.7804V24.8487H15.8457C15.857 24.8949 15.8684 24.9411 15.8816 24.9872C15.9043 24.9983 15.9289 25.0094 15.9516 25.0223C15.9629 25.0685 15.9742 25.1146 15.9875 25.1608C16.0102 25.1719 16.0347 25.1829 16.0574 25.1959C16.0688 25.242 16.0801 25.2882 16.0933 25.3343C16.116 25.3454 16.1406 25.3565 16.1633 25.3694V25.4377H16.1992V25.5061H16.2351V25.5744H16.2711V25.6427C16.2937 25.6538 16.3183 25.6649 16.341 25.6778V25.7461H16.3769V25.8144C16.3996 25.8255 16.4242 25.8366 16.4469 25.8495C16.4696 25.9178 16.4941 25.988 16.5168 26.0563C16.5395 26.0674 16.5641 26.0784 16.5868 26.0914C16.5981 26.1375 16.6094 26.1837 16.6227 26.2298C16.6454 26.2409 16.6699 26.252 16.6926 26.2649V26.3332H16.7285V26.4016H16.7645V26.4699C16.8042 26.5271 16.8949 26.5585 16.9403 26.6416H32.8941C33.1342 26.6416 33.862 26.6951 33.9528 26.5733C33.9925 26.5345 33.9679 26.5733 33.9887 26.505C33.915 26.444 33.8979 26.3517 33.8469 26.2631H33.811V26.1948H33.7751V26.1264C33.7524 26.1154 33.7278 26.1043 33.7051 26.0914V26.023H33.6692C33.6579 25.9769 33.6465 25.9307 33.6333 25.8846C33.6106 25.8735 33.586 25.8624 33.5633 25.8495C33.5406 25.7812 33.5161 25.711 33.4934 25.6427C33.4707 25.6316 33.4461 25.6205 33.4234 25.6076C33.4121 25.5615 33.4007 25.5153 33.3875 25.4691C33.3648 25.4581 33.3403 25.447 33.3176 25.4341V25.3657H33.2817V25.2974H33.2457V25.2291H33.2098V25.1608C33.1871 25.1497 33.1625 25.1386 33.1399 25.1257C33.1285 25.0906 33.1172 25.0574 33.1039 25.0223H33.068C33.0453 24.954 33.0208 24.8838 32.9981 24.8155C32.9754 24.8044 32.9508 24.7934 32.9281 24.7804C32.9054 24.7121 32.8809 24.642 32.8582 24.5736C32.8355 24.5626 32.8109 24.5515 32.7882 24.5386V24.4702H32.7523V24.4019C32.7296 24.3908 32.7051 24.3798 32.6824 24.3668V24.2985H32.6464V24.2302H32.6105V24.1619H32.5746V24.0936C32.5519 24.0825 32.5273 24.0714 32.5047 24.0585V23.9902H32.4687V23.9219C32.4461 23.9108 32.4215 23.8997 32.3988 23.8868C32.3761 23.8185 32.3515 23.7483 32.3288 23.68C32.3062 23.6689 32.2816 23.6578 32.2589 23.6449C32.2362 23.5766 32.2116 23.5064 32.1889 23.4381C32.1663 23.427 32.1417 23.416 32.119 23.403C32.0963 23.3347 32.0717 23.2646 32.0491 23.1962C32.0264 23.1852 32.0018 23.1741 31.9791 23.1612C31.9564 23.0928 31.9318 23.0227 31.9092 22.9544C31.8865 22.9433 31.8619 22.9322 31.8392 22.9193C31.8279 22.8731 31.8165 22.827 31.8033 22.7808C31.7806 22.7697 31.756 22.7586 31.7333 22.7457C31.722 22.6996 31.7107 22.6534 31.6974 22.6072C31.6747 22.5962 31.6502 22.5851 31.6275 22.5722V22.5038H31.5916V22.4355C31.5689 22.4244 31.5443 22.4134 31.5216 22.4004V22.3321H31.4857V22.2638H31.4498V22.1955H31.4138V22.1272C31.3912 22.1161 31.3666 22.105 31.3439 22.0921C31.3212 22.0238 31.2966 21.9536 31.274 21.8853C31.2513 21.8742 31.2267 21.8631 31.204 21.8502C31.1927 21.8041 31.1813 21.7579 31.1681 21.7117C31.1454 21.7007 31.1208 21.6896 31.0981 21.6767C31.0755 21.6083 31.0509 21.5382 31.0282 21.4699C31.0055 21.4588 30.9809 21.4477 30.9582 21.4348C30.9356 21.3665 30.911 21.2963 30.8883 21.228C30.8656 21.2169 30.841 21.2058 30.8183 21.1929C30.7957 21.1246 30.7711 21.0544 30.7484 20.9861C30.7257 20.975 30.7011 20.964 30.6784 20.951C30.6558 20.8827 30.6312 20.8126 30.6085 20.7442C30.5858 20.7332 30.5612 20.7221 30.5386 20.7092C30.5159 20.6408 30.4913 20.5707 30.4686 20.5024C30.4459 20.4913 30.4213 20.4802 30.3987 20.4673C30.3873 20.4211 30.376 20.375 30.3627 20.3288C30.3401 20.3177 30.3155 20.3067 30.2928 20.2937C30.2701 20.2254 30.2455 20.1552 30.2228 20.0869C30.2002 20.0759 30.1756 20.0648 30.1529 20.0518V19.9835H30.117V19.9152C30.0943 19.9041 30.0697 19.8931 30.047 19.8801C30.0243 19.8118 29.9998 19.7417 29.9771 19.6733C29.9544 19.6623 29.9298 19.6512 29.9071 19.6383C29.8844 19.5699 29.8599 19.4998 29.8372 19.4315C29.8145 19.4204 29.7899 19.4093 29.7672 19.3964V19.3281H29.7313V19.2598H29.6954V19.1914C29.6727 19.1804 29.6481 19.1693 29.6254 19.1564C29.6141 19.1102 29.6028 19.064 29.5895 19.0179C29.5498 18.9606 29.461 18.9293 29.4137 18.8462H21.7194C21.7081 18.824 21.6967 18.8 21.6835 18.7778C21.6363 18.7428 21.589 18.7095 21.5417 18.6744C21.5304 18.6283 21.519 18.5821 21.5058 18.536C21.4831 18.5249 21.4585 18.5138 21.4359 18.5009C21.4245 18.4547 21.4132 18.4086 21.3999 18.3624H21.364C21.3527 18.3163 21.3413 18.2701 21.3281 18.2239C21.3054 18.2129 21.2808 18.2018 21.2582 18.1889C21.2468 18.1427 21.2355 18.0965 21.2222 18.0504C21.1995 18.0393 21.175 18.0282 21.1523 18.0153C21.1409 17.9691 21.1296 17.923 21.1164 17.8768C21.0937 17.8657 21.0691 17.8547 21.0464 17.8417C21.0351 17.7956 21.0237 17.7494 21.0105 17.7033C20.9878 17.6922 20.9632 17.6811 20.9406 17.6682C20.9179 17.5999 20.8933 17.5297 20.8706 17.4614C20.8479 17.4503 20.8233 17.4392 20.8007 17.4263V17.358H20.7647V17.2897H20.7288V17.2213H20.6929V17.153C20.6702 17.142 20.6456 17.1309 20.623 17.118V17.0496H20.587V16.9813H20.5511V16.913C20.5284 16.9019 20.5038 16.8908 20.4812 16.8779C20.4698 16.8318 20.4585 16.7856 20.4452 16.7394C20.4226 16.7284 20.398 16.7173 20.3753 16.7044C20.364 16.6582 20.3526 16.612 20.3394 16.5659C20.3167 16.5548 20.2921 16.5437 20.2694 16.5308V16.4625H20.2335V16.3942H20.1976V16.3259H20.1617V16.2575C20.139 16.2465 20.1144 16.2354 20.0917 16.2225C20.0804 16.1763 20.069 16.1301 20.0558 16.084C20.0331 16.0729 20.0085 16.0618 19.9859 16.0489C19.9745 16.0027 19.9632 15.9566 19.9499 15.9104C19.9273 15.8993 19.9027 15.8883 19.88 15.8753C19.8573 15.807 19.8327 15.7369 19.81 15.6685C19.7874 15.6575 19.7628 15.6464 19.7401 15.6335V15.5651H19.7042V15.4968H19.6683V15.4285H19.6323V15.3602C19.6096 15.3491 19.5851 15.338 19.5624 15.3251V15.2568H19.5265V15.1885C19.5038 15.1774 19.4792 15.1663 19.4565 15.1534C19.4338 15.0851 19.4093 15.0149 19.3866 14.9466C19.3639 14.9355 19.3393 14.9244 19.3166 14.9115C19.3053 14.8654 19.2939 14.8192 19.2807 14.773C19.258 14.762 19.2334 14.7509 19.2108 14.738C19.1994 14.6918 19.1881 14.6456 19.1748 14.5995C19.1522 14.5884 19.1276 14.5773 19.1049 14.5644V14.4961H19.069V14.4278H19.0331V14.3595H18.9971V14.2911H18.9612V14.2228C18.9385 14.2117 18.914 14.2007 18.8913 14.1877C18.8799 14.1416 18.8686 14.0954 18.8553 14.0493C18.8327 14.0382 18.8081 14.0271 18.7854 14.0142C18.7741 13.968 18.7627 13.9219 18.7495 13.8757C18.7268 13.8646 18.7022 13.8535 18.6795 13.8406C18.6682 13.7945 18.6568 13.7483 18.6436 13.7021C18.6209 13.6911 18.5963 13.68 18.5737 13.6671C18.551 13.5987 18.5264 13.5286 18.5037 13.4603C18.481 13.4492 18.4565 13.4381 18.4338 13.4252C18.4111 13.3569 18.3865 13.2867 18.3638 13.2184C18.3411 13.2073 18.3166 13.1962 18.2939 13.1833C18.2712 13.115 18.2466 13.0448 18.2239 12.9765C18.2012 12.9654 18.1767 12.9544 18.154 12.9414C18.1313 12.8731 18.1067 12.803 18.084 12.7346C18.0613 12.7236 18.0368 12.7125 18.0141 12.6996C17.9914 12.6312 17.9668 12.5611 17.9441 12.4928C17.9214 12.4817 17.8969 12.4706 17.8742 12.4577V12.3894H17.8383V12.3211C17.8156 12.31 17.791 12.2989 17.7683 12.286V12.2177C17.7267 12.166 17.6738 12.19 17.6265 12.1143H8.48035C8.452 12.1678 8.3726 12.2084 8.41041 12.3211H8.44633L8.44443 12.3137Z" fill="#0F367B"/>
<path d="M28.1413 14.1064H28.1772C28.1886 14.1415 28.1999 14.1748 28.2132 14.2098H28.2491V14.2782C28.2718 14.2892 28.2963 14.3003 28.319 14.3132V14.3816H28.355V14.4499H28.3909V14.5182H28.4268V14.5865C28.4495 14.5976 28.4741 14.6087 28.4967 14.6216C28.5081 14.6677 28.5194 14.7139 28.5327 14.7601C28.5553 14.7711 28.5799 14.7822 28.6026 14.7951C28.6253 14.8635 28.6499 14.9336 28.6726 15.0019C28.6952 15.013 28.7198 15.0241 28.7425 15.037C28.7652 15.1053 28.7898 15.1755 28.8124 15.2438C28.8351 15.2549 28.8597 15.266 28.8824 15.2789V15.3472H28.9183C28.941 15.4155 28.9656 15.4857 28.9883 15.554C29.0109 15.5651 29.0355 15.5762 29.0582 15.5891C29.0696 15.6242 29.0809 15.6574 29.0941 15.6925H29.1301V15.7608H29.166V15.8291H29.2019V15.8974H29.2378V15.9657C29.2605 15.9768 29.2851 15.9879 29.3078 16.0008C29.3304 16.0691 29.355 16.1393 29.3777 16.2076C29.4004 16.2187 29.425 16.2298 29.4477 16.2427V16.311H29.4836V16.3793C29.5063 16.3904 29.5308 16.4015 29.5535 16.4144C29.5762 16.4827 29.6008 16.5529 29.6235 16.6212C29.6462 16.6323 29.6707 16.6434 29.6934 16.6563C29.7048 16.7025 29.7161 16.7486 29.7293 16.7948C29.752 16.8058 29.7766 16.8169 29.7993 16.8299C29.822 16.8982 29.8465 16.9683 29.8692 17.0366C29.8919 17.0477 29.9165 17.0588 29.9392 17.0717V17.14C29.9543 17.1622 29.9864 17.1659 30.0091 17.2084C30.0791 17.2287 30.0394 17.2028 30.0791 17.2434H32.5859C32.9186 17.2434 33.4914 17.3007 33.7504 17.2084C33.7334 16.9868 33.654 16.9739 33.5746 16.8299C33.5632 16.7837 33.5519 16.7375 33.5387 16.6914C33.516 16.6803 33.4914 16.6692 33.4687 16.6563C33.446 16.588 33.4215 16.5178 33.3988 16.4495C33.3761 16.4384 33.3515 16.4273 33.3288 16.4144V16.3461H33.2929V16.2778C33.2702 16.2667 33.2456 16.2556 33.223 16.2427V16.1744H33.187V16.1061C33.1643 16.095 33.1398 16.0839 33.1171 16.071V16.0027H33.0812V15.9344H33.0452V15.866H33.0093V15.7977C32.9866 15.7866 32.9621 15.7756 32.9394 15.7626C32.928 15.7165 32.9167 15.6703 32.9035 15.6242C32.8808 15.6131 32.8562 15.602 32.8335 15.5891C32.8108 15.5208 32.7863 15.4506 32.7636 15.3823C32.7409 15.3712 32.7163 15.3601 32.6936 15.3472C32.6709 15.2789 32.6464 15.2087 32.6237 15.1404C32.601 15.1293 32.5764 15.1183 32.5537 15.1053C32.531 15.037 32.5065 14.9669 32.4838 14.8985C32.4611 14.8875 32.4365 14.8764 32.4138 14.8635C32.4025 14.8284 32.3911 14.7951 32.3779 14.7601H32.342V14.6917H32.3061V14.6234H32.2702V14.5551H32.2342V14.4868H32.1983V14.4185C32.1756 14.4074 32.1511 14.3963 32.1284 14.3834C32.117 14.3372 32.1057 14.2911 32.0924 14.2449C32.0698 14.2338 32.0452 14.2228 32.0225 14.2098V14.1415H31.9866V14.0732C31.9733 14.0529 31.9393 14.0474 31.9166 14.0049C31.5366 13.9384 31.013 13.9698 30.5763 13.9698H28.2113C28.1867 14.0178 28.1243 14.0307 28.1413 14.1083V14.1064Z" fill="#3698D9"/>
<path d="M27.011 10.4171C27.0223 10.4632 27.0336 10.5094 27.0469 10.5555C27.0696 10.5666 27.0941 10.5777 27.1168 10.5906C27.1395 10.6589 27.1641 10.7291 27.1868 10.7974C27.2095 10.8085 27.234 10.8196 27.2567 10.8325C27.2794 10.9008 27.304 10.971 27.3267 11.0393C27.3494 11.0504 27.3739 11.0614 27.3966 11.0744C27.4193 11.1427 27.4439 11.2128 27.4666 11.2812C27.4893 11.2922 27.5138 11.3033 27.5365 11.3162C27.5592 11.3846 27.5838 11.4547 27.6065 11.523C27.6291 11.5341 27.6537 11.5452 27.6764 11.5581C27.6878 11.6043 27.6991 11.6504 27.7123 11.6966C27.735 11.7077 27.7596 11.7187 27.7823 11.7317C27.7936 11.7778 27.805 11.824 27.8182 11.8702C27.8409 11.8812 27.8655 11.8923 27.8881 11.9052V11.9735H27.9241C27.9354 12.0086 27.9467 12.0419 27.96 12.0769C28.0432 12.0991 28.0261 12.0862 28.0659 12.1453H29.6198C29.9091 12.1453 30.2078 12.1711 30.3968 12.0769C30.3704 11.8628 30.2418 11.7704 30.1492 11.6283C30.1265 11.56 30.1019 11.4898 30.0792 11.4215C30.0565 11.4104 30.032 11.3993 30.0093 11.3864C29.9979 11.3402 29.9866 11.2941 29.9734 11.2479C29.9507 11.2368 29.9261 11.2258 29.9034 11.2128C29.8807 11.1445 29.8561 11.0744 29.8335 11.006C29.8108 10.995 29.7862 10.9839 29.7635 10.971V10.9026H29.7276V10.8343H29.6917V10.766H29.6557V10.6977C29.6331 10.6866 29.6085 10.6755 29.5858 10.6626C29.5745 10.6165 29.5631 10.5703 29.5499 10.5241C29.5272 10.5131 29.5026 10.502 29.4799 10.4891C29.4572 10.4207 29.4327 10.3506 29.41 10.2823C29.3873 10.2712 29.3627 10.2601 29.34 10.2472V10.1789C29.2966 10.1198 29.2115 10.0902 29.1642 10.0072H27.6102C27.321 10.0072 27.0223 9.9813 26.8333 10.0755C26.8522 10.2269 26.9089 10.3081 26.975 10.4207H27.011V10.4171Z" fill="#3698D9"/>
<path d="M19.7401 12.4853C19.7628 12.4963 19.7874 12.5074 19.8101 12.5203V12.5887H19.846C19.8574 12.6348 19.8687 12.681 19.8819 12.7271C19.9046 12.7382 19.9292 12.7493 19.9519 12.7622V12.8305H19.9878V12.8988H20.0237V12.9672C20.0464 12.9782 20.071 12.9893 20.0937 13.0022C20.105 13.0484 20.1164 13.0946 20.1296 13.1407C20.1523 13.1518 20.1768 13.1629 20.1995 13.1758C20.2222 13.2441 20.2468 13.3143 20.2695 13.3826C20.2922 13.3937 20.3167 13.4048 20.3394 13.4177C20.3621 13.486 20.3867 13.5562 20.4094 13.6245C20.4321 13.6355 20.4566 13.6466 20.4793 13.6596C20.4907 13.7057 20.502 13.7519 20.5152 13.798C20.5379 13.8091 20.5625 13.8202 20.5852 13.8331C20.5965 13.8793 20.6079 13.9254 20.6211 13.9716C20.6438 13.9827 20.6684 13.9937 20.6911 14.0067V14.075H20.727V14.1433H20.7629V14.2116H20.7988V14.2799C20.8215 14.291 20.8461 14.3021 20.8688 14.315C20.8915 14.3833 20.916 14.4535 20.9387 14.5218C20.9614 14.5329 20.986 14.544 21.0087 14.5569C21.02 14.6031 21.0313 14.6492 21.0446 14.6954C21.0673 14.7065 21.0918 14.7175 21.1145 14.7305C21.1372 14.7988 21.1618 14.8689 21.1845 14.9372C21.2072 14.9483 21.2317 14.9594 21.2544 14.9723V15.0406H21.2903V15.109H21.3263V15.1773H21.3622V15.2456C21.3849 15.2567 21.4094 15.2678 21.4321 15.2807C21.4435 15.3158 21.4548 15.349 21.468 15.3841H21.504C21.5267 15.4524 21.5512 15.5226 21.5739 15.5909C21.5966 15.6019 21.6212 15.613 21.6439 15.6259V15.6943H21.6798V15.7626C21.7025 15.7737 21.727 15.7847 21.7497 15.7977C21.7724 15.866 21.797 15.9361 21.8197 16.0045C21.8424 16.0155 21.8669 16.0266 21.8896 16.0395V16.1079H21.9255V16.1762H21.9615V16.2445H21.9974V16.3128C22.0201 16.3239 22.0446 16.335 22.0673 16.3479C22.0787 16.394 22.09 16.4402 22.1033 16.4864C22.1259 16.4974 22.1505 16.5085 22.1732 16.5214C22.1959 16.5898 22.2205 16.6599 22.2431 16.7282C22.2658 16.7393 22.2904 16.7504 22.3131 16.7633C22.3244 16.8095 22.3358 16.8556 22.349 16.9018C22.3717 16.9129 22.3963 16.924 22.419 16.9369V17.0052H22.4549V17.0735H22.4908C22.5021 17.1086 22.5135 17.1418 22.5267 17.1769C22.6099 17.1991 22.5929 17.1861 22.6326 17.2452H27.7861C27.9846 17.2452 28.2417 17.2618 28.3853 17.2101C28.3967 17.1751 28.408 17.1418 28.4213 17.1067C28.2833 16.996 28.2379 16.7762 28.1396 16.6248C28.1169 16.6138 28.0923 16.6027 28.0696 16.5898C28.0469 16.5214 28.0224 16.4513 27.9997 16.383C27.977 16.3719 27.9524 16.3608 27.9297 16.3479C27.9184 16.3017 27.907 16.2556 27.8938 16.2094C27.8711 16.1983 27.8466 16.1872 27.8239 16.1743C27.8012 16.106 27.7766 16.0358 27.7539 15.9675C27.7312 15.9565 27.7067 15.9454 27.684 15.9324C27.6613 15.8641 27.6367 15.794 27.614 15.7257C27.5913 15.7146 27.5668 15.7035 27.5441 15.6906V15.6223H27.5082V15.5539H27.4722V15.4856H27.4363V15.4173C27.4136 15.4062 27.3891 15.3952 27.3664 15.3822C27.355 15.3361 27.3437 15.2899 27.3304 15.2437C27.3078 15.2327 27.2832 15.2216 27.2605 15.2087C27.2492 15.1625 27.2378 15.1163 27.2246 15.0702C27.2019 15.0591 27.1773 15.048 27.1546 15.0351V14.9668H27.1187V14.8985H27.0828V14.8302H27.0469V14.7618C27.0242 14.7508 26.9996 14.7397 26.9769 14.7268V14.6584H26.941V14.5901C26.9183 14.5791 26.8937 14.568 26.8711 14.555C26.8484 14.4867 26.8238 14.4166 26.8011 14.3483C26.7784 14.3372 26.7539 14.3261 26.7312 14.3132V14.2449H26.6952V14.1765C26.6726 14.1655 26.648 14.1544 26.6253 14.1415V14.0731H26.5894V14.0048H26.5535V13.9365H26.5175V13.8682C26.4949 13.8571 26.4703 13.846 26.4476 13.8331C26.4362 13.787 26.4249 13.7408 26.4117 13.6946C26.389 13.6836 26.3644 13.6725 26.3417 13.6596C26.3304 13.6134 26.319 13.5672 26.3058 13.5211C26.2831 13.51 26.2585 13.4989 26.2359 13.486V13.4177H26.1999V13.3494H26.164V13.281H26.1281V13.2127C26.1054 13.2017 26.0808 13.1906 26.0582 13.1776V13.1093H26.0222V13.041H25.9863V12.9727C25.9636 12.9616 25.939 12.9505 25.9164 12.9376C25.905 12.8915 25.8937 12.8453 25.8804 12.7991C25.8578 12.7881 25.8332 12.777 25.8105 12.7641C25.7992 12.7179 25.7878 12.6717 25.7746 12.6256C25.7519 12.6145 25.7273 12.6034 25.7046 12.5905C25.6819 12.5222 25.6574 12.452 25.6347 12.3837C25.612 12.3726 25.5874 12.3615 25.5647 12.3486V12.2803H25.5288C25.5061 12.2452 25.4816 12.212 25.4589 12.1769C25.4003 12.1658 25.3417 12.1548 25.2831 12.1418V12.1769H25.1413C24.8823 12.1141 24.4701 12.1418 24.1525 12.1418H20.6589C20.3319 12.1418 19.9424 12.1289 19.6702 12.1769C19.6589 12.212 19.6475 12.2452 19.6343 12.2803H19.6702C19.6929 12.3486 19.7175 12.4188 19.7401 12.4871V12.4853Z" fill="#3698D9"/>
<path d="M8.12687 19.2078C8.13822 19.2539 8.14956 19.3001 8.16279 19.3462C8.18548 19.3573 8.21005 19.3684 8.23274 19.3813C8.24408 19.4275 8.25543 19.4736 8.26866 19.5198C8.29134 19.5309 8.31592 19.5419 8.33861 19.5549C8.36129 19.6232 8.38587 19.6934 8.40855 19.7617C8.43124 19.7727 8.45582 19.7838 8.4785 19.7967C8.50119 19.8651 8.52576 19.9352 8.54845 20.0035C8.57114 20.0146 8.59571 20.0257 8.6184 20.0386V20.1069H8.65432V20.1753C8.677 20.1863 8.70158 20.1974 8.72427 20.2103C8.74695 20.2787 8.77153 20.3488 8.79421 20.4171C9.64115 21.7262 10.3841 23.1405 11.2292 24.4515C11.2518 24.5198 11.2764 24.59 11.2991 24.6583C11.3218 24.6693 11.3464 24.6804 11.3691 24.6934V24.7617H11.405V24.83H11.4409V24.8983C11.4636 24.9094 11.4882 24.9205 11.5108 24.9334C11.5222 24.9795 11.5335 25.0257 11.5468 25.0719C11.5694 25.0829 11.594 25.094 11.6167 25.1069C11.6394 25.1753 11.664 25.2454 11.6867 25.3137C11.7093 25.3248 11.7339 25.3359 11.7566 25.3488V25.4171H11.7925V25.4855C11.8152 25.4965 11.8398 25.5076 11.8625 25.5205V25.5888H11.8984V25.6572H11.9343V25.7255H11.9702V25.7938C11.9929 25.8049 12.0175 25.816 12.0402 25.8289C12.0515 25.875 12.0629 25.9212 12.0761 25.9674C12.0988 25.9784 12.1234 25.9895 12.146 26.0024C12.1574 26.0486 12.1687 26.0948 12.182 26.1409C12.2047 26.152 12.2292 26.1631 12.2519 26.176V26.2443H12.2878V26.3126H12.3238V26.3809H12.3597V26.4493C12.3824 26.4603 12.4069 26.4714 12.4296 26.4843V26.5527H12.4655V26.621C12.4882 26.6321 12.5128 26.6431 12.5355 26.6561C12.5582 26.7244 12.5827 26.7945 12.6054 26.8629C12.6281 26.8739 12.6527 26.885 12.6754 26.8979V26.9662H12.7113V27.0346C12.734 27.0456 12.7586 27.0567 12.7813 27.0696C12.8039 27.138 12.8285 27.2081 12.8512 27.2764C12.8739 27.2875 12.8985 27.2986 12.9211 27.3115V27.3798H12.9571V27.4482H12.993V27.5165H13.0289V27.5848C13.0516 27.5959 13.0762 27.6069 13.0989 27.6199C13.1102 27.666 13.1215 27.7122 13.1348 27.7583C13.1575 27.7694 13.182 27.7805 13.2047 27.7934C13.2161 27.8396 13.2274 27.8857 13.2406 27.9319C13.2633 27.943 13.2879 27.9541 13.3106 27.967C13.3333 28.0353 13.3578 28.1055 13.3805 28.1738C13.4032 28.1849 13.4278 28.1959 13.4505 28.2089V28.2772H13.4864V28.3455H13.5223V28.4138H13.5582V28.4821C13.5809 28.4932 13.6055 28.5043 13.6282 28.5172C13.6395 28.5634 13.6509 28.6095 13.6641 28.6557C13.6868 28.6668 13.7114 28.6778 13.7341 28.6908C13.7454 28.7369 13.7567 28.7831 13.77 28.8292C13.7927 28.8403 13.8172 28.8514 13.8399 28.8643C13.8513 28.9105 13.8626 28.9566 13.8758 29.0028C13.8985 29.0139 13.9231 29.025 13.9458 29.0379V29.1062H13.9817V29.1745H14.0176V29.2428H14.0535V29.3112H14.0895V29.3795C14.1122 29.3905 14.1367 29.4016 14.1594 29.4145V29.4829H14.1953V29.5512C14.2823 29.6841 14.409 29.8097 14.477 29.9648C14.547 29.9851 14.5073 29.9592 14.547 29.9999H30.9961C31.1851 29.9999 31.4252 30.0146 31.5613 29.9648C31.5727 29.9297 31.584 29.8965 31.5973 29.8614C31.5235 29.8004 31.5065 29.7063 31.4555 29.6195H31.4196V29.5512H31.3836V29.4829C31.361 29.4718 31.3364 29.4607 31.3137 29.4478V29.3795H31.2778V29.3112C31.2551 29.3001 31.2305 29.289 31.2078 29.2761C31.1851 29.2078 31.1606 29.1376 31.1379 29.0693C31.1152 29.0582 31.0906 29.0471 31.0679 29.0342C31.0566 28.988 31.0452 28.9419 31.032 28.8957C31.0093 28.8846 30.9847 28.8736 30.9621 28.8606C30.9394 28.7923 30.9148 28.7222 30.8921 28.6538C30.8694 28.6428 30.8449 28.6317 30.8222 28.6188C30.7995 28.5504 30.7749 28.4803 30.7522 28.412C30.7295 28.4009 30.705 28.3898 30.6823 28.3769C30.6709 28.3307 30.6596 28.2846 30.6463 28.2384C30.6237 28.2273 30.5991 28.2162 30.5764 28.2033V28.135H30.5405V28.0667C30.5272 28.0464 30.4932 28.0408 30.4705 27.9984C30.1019 27.9338 29.5915 27.9633 29.1642 27.9633H16.8817C16.687 27.9633 15.9875 28.0076 15.893 27.9282C15.721 27.8839 15.7928 27.8377 15.7172 27.7214C15.6945 27.7103 15.6699 27.6993 15.6472 27.6863V27.618H15.6113V27.5497H15.5754V27.4814C15.5527 27.4703 15.5281 27.4592 15.5054 27.4463V27.378H15.4695V27.3097C15.4468 27.2986 15.4223 27.2875 15.3996 27.2746C15.3882 27.2284 15.3769 27.1823 15.3637 27.1361C15.341 27.125 15.3164 27.114 15.2937 27.101C15.2824 27.0549 15.271 27.0087 15.2578 26.9626C15.2351 26.9515 15.2105 26.9404 15.1878 26.9275V26.8592H15.1519V26.7908H15.116V26.7225H15.0801V26.6542H15.0442V26.5859C15.0215 26.5748 14.9969 26.5637 14.9742 26.5508V26.4825H14.9383V26.4142C14.9156 26.4031 14.891 26.392 14.8683 26.3791C14.857 26.3329 14.8457 26.2868 14.8324 26.2406C14.8097 26.2295 14.7852 26.2185 14.7625 26.2055V26.1372H14.7266V26.0689H14.6906V26.0006H14.6547V25.9323C14.632 25.9212 14.6075 25.9101 14.5848 25.8972V25.8289H14.5489V25.7606C14.5262 25.7495 14.5016 25.7384 14.4789 25.7255C14.4562 25.6572 14.4316 25.587 14.409 25.5187C14.3863 25.5076 14.3617 25.4965 14.339 25.4836C14.3277 25.4374 14.3163 25.3913 14.3031 25.3451C14.2804 25.334 14.2558 25.323 14.2331 25.31C14.2218 25.2639 14.2105 25.2177 14.1972 25.1716C14.1745 25.1605 14.15 25.1494 14.1273 25.1365V25.0682H14.0914V24.9999H14.0554V24.9315H14.0195V24.8632H13.9836V24.7949C13.9609 24.7838 13.9363 24.7727 13.9137 24.7598C13.9023 24.7137 13.891 24.6675 13.8777 24.6213C13.855 24.6103 13.8305 24.5992 13.8078 24.5863C13.7964 24.5401 13.7851 24.4939 13.7719 24.4478C13.7492 24.4367 13.7246 24.4256 13.7019 24.4127V24.3444H13.666V24.2761H13.6301V24.2078H13.5942V24.1394C13.5715 24.1284 13.5469 24.1173 13.5242 24.1044C13.5015 24.036 13.477 23.9659 13.4543 23.8976C13.4316 23.8865 13.407 23.8754 13.3843 23.8625C13.373 23.8163 13.3616 23.7702 13.3484 23.724C13.3257 23.7129 13.3011 23.7018 13.2784 23.6889C13.2671 23.6428 13.2558 23.5966 13.2425 23.5504C13.2198 23.5394 13.1953 23.5283 13.1726 23.5154C13.1612 23.4692 13.1499 23.423 13.1367 23.3769C13.114 23.3658 13.0894 23.3547 13.0667 23.3418V23.2735H13.0308V23.2052H12.9949V23.1369H12.959V23.0685C12.9363 23.0575 12.9117 23.0464 12.889 23.0335C12.8663 22.9651 12.8417 22.895 12.8191 22.8267C12.7964 22.8156 12.7718 22.8045 12.7491 22.7916C12.7378 22.7454 12.7264 22.6993 12.7132 22.6531C12.6905 22.642 12.6659 22.6309 12.6432 22.618C12.6206 22.5497 12.596 22.4795 12.5733 22.4112C12.5506 22.4001 12.526 22.3891 12.5033 22.3761C12.4807 22.3078 12.4561 22.2377 12.4334 22.1694C12.4107 22.1583 12.3861 22.1472 12.3635 22.1343C12.3408 22.066 12.3162 21.9958 12.2935 21.9275C12.2708 21.9164 12.2462 21.9053 12.2236 21.8924C12.2122 21.8462 12.2009 21.8001 12.1876 21.7539C12.165 21.7428 12.1404 21.7318 12.1177 21.7188C12.1063 21.6727 12.095 21.6265 12.0818 21.5804C12.0591 21.5693 12.0345 21.5582 12.0118 21.5453V21.477H11.9759V21.4086H11.94V21.3403H11.9041V21.272C11.8814 21.2609 11.8568 21.2499 11.8341 21.2369C11.8114 21.1686 11.7869 21.0984 11.7642 21.0301C11.7415 21.0191 11.7169 21.008 11.6942 20.9951C11.6829 20.9489 11.6715 20.9027 11.6583 20.8566C11.6356 20.8455 11.611 20.8344 11.5884 20.8215C11.577 20.7753 11.5657 20.7292 11.5524 20.683C11.5297 20.6719 11.5052 20.6609 11.4825 20.6479C11.4598 20.5796 11.4352 20.5095 11.4125 20.4411C11.3899 20.4301 11.3653 20.419 11.3426 20.4061V20.3377H11.3067V20.2694H11.2708V20.2011H11.2348V20.1328C11.2121 20.1217 11.1876 20.1106 11.1649 20.0977C11.1535 20.0515 11.1422 20.0054 11.129 19.9592C11.1063 19.9482 11.0817 19.9371 11.059 19.9241C11.0477 19.878 11.0363 19.8318 11.0231 19.7857C11.0004 19.7746 10.9758 19.7635 10.9532 19.7506C10.9418 19.7044 10.9305 19.6583 10.9172 19.6121C10.8945 19.601 10.87 19.59 10.8473 19.577C10.8246 19.5087 10.8 19.4386 10.7773 19.3702C10.7546 19.3592 10.7301 19.3481 10.7074 19.3352V19.2668H10.6715V19.1985H10.6355V19.1302H10.5996V19.0619C10.5769 19.0508 10.5524 19.0397 10.5297 19.0268C10.5183 18.9806 10.507 18.9345 10.4938 18.8883C10.4711 18.8773 10.4465 18.8662 10.4238 18.8532V18.7849H10.3879C10.3766 18.7388 10.3652 18.6926 10.352 18.6465C10.3293 18.6354 10.3047 18.6243 10.282 18.6114C10.2593 18.5431 10.2348 18.4729 10.2121 18.4046C10.1894 18.3935 10.1648 18.3824 10.1421 18.3695C10.1194 18.3012 10.0949 18.231 10.0722 18.1627C10.0495 18.1516 10.0249 18.1405 10.0022 18.1276C9.99089 18.0815 9.97955 18.0353 9.96632 17.9891C9.94363 17.9781 9.91905 17.967 9.89637 17.9541C9.87368 17.8857 9.84911 17.8156 9.82642 17.7473C9.80373 17.7362 9.77916 17.7251 9.75647 17.7122V17.6439H9.72055V17.5756H9.68463V17.5072H9.64871V17.4389C9.62603 17.4278 9.60145 17.4168 9.57877 17.4038C9.56742 17.3577 9.55608 17.3115 9.54285 17.2654C9.52016 17.2543 9.49559 17.2432 9.4729 17.2303C9.46156 17.1841 9.45021 17.138 9.43698 17.0918C9.41429 17.0807 9.38972 17.0696 9.36703 17.0567C9.35569 17.0106 9.34435 16.9644 9.33111 16.9182C9.30843 16.9072 9.28385 16.8961 9.26116 16.8832C9.23848 16.8148 9.2139 16.7447 9.19122 16.6764C9.16853 16.6653 9.14395 16.6542 9.12127 16.6413V16.573H9.08535V16.5047H9.04943V16.4363H9.01351V16.368C8.99082 16.3569 8.96625 16.3459 8.94356 16.3329C8.93222 16.2868 8.92088 16.2406 8.90764 16.1945C8.88496 16.1834 8.86038 16.1723 8.8377 16.1594C8.82635 16.1132 8.81501 16.0671 8.80178 16.0209C8.77909 16.0098 8.75451 15.9987 8.73183 15.9858C8.70914 15.9175 8.68457 15.8473 8.66188 15.779C8.63919 15.7679 8.61462 15.7569 8.59193 15.7439C8.58059 15.6978 8.56925 15.6516 8.55601 15.6055H8.52009C8.49741 15.5704 8.47283 15.5371 8.45015 15.5021C8.18926 15.4559 7.81305 15.467 7.49734 15.467H6.07948C6.05112 15.5205 5.97172 15.5612 6.00953 15.6738H6.04545V15.7421C6.06813 15.7532 6.09271 15.7643 6.11539 15.7772C6.13808 15.8455 6.16266 15.9157 6.18534 15.984C6.20803 15.9951 6.2326 16.0061 6.25529 16.0191C6.27798 16.0874 6.30255 16.1575 6.32524 16.2258C6.34792 16.2369 6.3725 16.248 6.39519 16.2609C6.40653 16.3071 6.41787 16.3532 6.43111 16.3994C6.45379 16.4105 6.47837 16.4216 6.50105 16.4345C6.52374 16.5028 6.54832 16.573 6.571 16.6413C6.59369 16.6524 6.61826 16.6634 6.64095 16.6764C6.65229 16.7225 6.66364 16.7687 6.67687 16.8148C6.69955 16.8259 6.72413 16.837 6.74682 16.8499V16.9182H6.78274V16.9866H6.81866C6.83 17.0327 6.84134 17.0789 6.85457 17.125C6.87726 17.1361 6.90184 17.1472 6.92452 17.1601C6.93587 17.2063 6.94721 17.2524 6.96044 17.2986C6.98313 17.3097 7.0077 17.3208 7.03039 17.3337C7.04173 17.3798 7.05308 17.426 7.06631 17.4722C7.089 17.4832 7.11357 17.4943 7.13626 17.5072V17.5756H7.17218V17.6439H7.2081V17.7122H7.24402V17.7805C7.2667 17.7916 7.29128 17.8027 7.31396 17.8156C7.33665 17.8839 7.36123 17.9541 7.38391 18.0224C7.4066 18.0335 7.43117 18.0445 7.45386 18.0575V18.1258H7.48978V18.1941H7.5257V18.2624C7.54838 18.2735 7.57296 18.2846 7.59565 18.2975C7.60699 18.3436 7.61833 18.3898 7.63156 18.436C7.65425 18.447 7.67883 18.4581 7.70151 18.471C7.71286 18.5172 7.7242 18.5634 7.73743 18.6095C7.76012 18.6206 7.78469 18.6317 7.80738 18.6446C7.83007 18.7129 7.85464 18.7831 7.87733 18.8514C7.90001 18.8625 7.92459 18.8736 7.94728 18.8865V18.9548H7.9832V19.0231H8.01911V19.0914H8.05503V19.1597C8.07772 19.1708 8.1023 19.1819 8.12498 19.1948L8.12687 19.2078Z" fill="#202A55"/>
</g>
<circle cx="20" cy="20" r="19.5" stroke="black" stroke-opacity="0.05"/>
<defs>
<clipPath id="clip0_14382_21129">
<rect width="28" height="20" fill="white" transform="translate(6 10)"/>
</clipPath>
</defs>
</svg>
