<svg width="40" height="40" viewBox="0 0 40 40" fill="none" xmlns="http://www.w3.org/2000/svg">
<circle cx="20" cy="20" r="20" fill="#005BAC"/>
<circle cx="20" cy="20" r="19.5" stroke="black" stroke-opacity="0.05"/>
<path d="M27.749 14.818L25.0752 15.944L25.1328 15.9948C26.8067 17.4662 27.7666 19.5845 27.7666 21.8092C27.7666 26.0636 24.3154 29.524 20.0732 29.524C15.8326 29.524 12.3809 26.0636 12.3809 21.8092C12.3809 19.5823 13.343 17.4641 15.0186 15.9948L15.0762 15.944L12.4043 14.818V11.0514L17.0449 13.0358C17.0681 13.0799 19.5579 17.8133 19.6152 17.9225C17.6448 18.1592 16.1661 19.8159 16.166 21.8092C16.166 23.9705 17.9168 25.7301 20.0732 25.7301C22.2281 25.7301 23.9805 23.9705 23.9805 21.8092C23.9804 19.8159 22.5008 18.1592 20.5293 17.9225C20.5856 17.8133 23.0773 13.0837 23.1025 13.0358L27.749 11.0514V14.818ZM20.0723 17.6168L16.3291 10.4762L20.0723 12.3639L23.8232 10.4762L20.0723 17.6168Z" fill="#FCB813"/>
</svg>
