<svg width="40" height="40" viewBox="0 0 40 40" fill="none" xmlns="http://www.w3.org/2000/svg">
<circle cx="20" cy="20" r="20" fill="#FF6600"/>
<path d="M23.004 20.4967V22.4434H37.0001V16H12.1917V20.4967H23.004Z" fill="white"/>
<path d="M3.80879 23.9204C3.80879 24.08 3.80629 24.1884 3.94379 24.2761V24.2847H3.43027V24.2761C3.56024 24.2231 3.54466 24.0186 3.54466 23.8926V22.6443H3.31638C3.26015 22.6418 3.20396 22.6503 3.15105 22.6695C3.09814 22.6887 3.04954 22.7182 3.00803 22.7562H3L3.09028 22.4241H3.09831C3.13009 22.4348 3.16314 22.4414 3.19662 22.4435H4.22869C4.26939 22.446 4.31014 22.4394 4.34794 22.4241H4.35547L4.27173 22.7562H4.26403C4.23053 22.6582 4.12702 22.6443 4.04127 22.6443H3.80879V23.9204Z" fill="white"/>
<path d="M5.06242 24.0493L5.39204 24.0828C5.47912 24.0909 5.56692 24.0804 5.6496 24.0519C5.73229 24.0234 5.80795 23.9777 5.87156 23.9176H5.8796L5.76236 24.2848H4.6814V24.2762C4.81321 24.226 4.79863 24.0186 4.79863 23.8927V22.8375C4.79863 22.7084 4.81388 22.5049 4.6814 22.4523V22.4439H5.51063C5.55183 22.4496 5.5938 22.4449 5.63273 22.4302H5.64042V22.7566H5.63273C5.59476 22.7145 5.54706 22.6822 5.49378 22.6627C5.4405 22.6432 5.38327 22.637 5.32706 22.6447C5.23836 22.6426 5.14967 22.6492 5.06226 22.6643V23.1854H5.37127C5.40991 23.1888 5.44884 23.1831 5.48483 23.1686H5.49237V23.4653H5.48483C5.44313 23.3844 5.33409 23.387 5.2542 23.387H5.06226L5.06242 24.0493Z" fill="white"/>
<path d="M7.48504 22.7899C7.34499 22.6896 7.17792 22.6339 7.0057 22.6302C6.64727 22.6302 6.39855 22.9132 6.39855 23.3194C6.39855 23.7312 6.65765 24.0968 7.05728 24.0968C7.25413 24.0895 7.44523 24.0285 7.60999 23.9205H7.61753L7.48538 24.2456C7.36336 24.3039 7.22932 24.3325 7.09413 24.3293C6.48213 24.3293 6.10327 23.9597 6.10327 23.3612C6.10327 22.7814 6.48213 22.3987 7.0139 22.3987C7.17335 22.4025 7.33171 22.426 7.48538 22.4687L7.48504 22.7899Z" fill="white"/>
<path d="M8.25183 23.3863V23.8925C8.25183 24.0184 8.23625 24.2228 8.36555 24.276V24.2845H7.8728V24.276C8.00277 24.2229 7.98703 24.0184 7.98703 23.8925V22.8344C7.98703 22.7083 8.00512 22.5048 7.8728 22.4517V22.4434H8.36555V22.4517C8.23625 22.5048 8.25183 22.7085 8.25183 22.837V23.1843H9.18741V22.837C9.18741 22.7078 9.20568 22.5043 9.0732 22.4517V22.4434H9.56845V22.4517C9.43647 22.5048 9.45221 22.7085 9.45221 22.8344V23.8925C9.45221 24.0184 9.43647 24.2228 9.56845 24.276V24.2845H9.0732V24.276C9.20585 24.2229 9.18741 24.0184 9.18741 23.8925V23.3863H8.25183Z" fill="white"/>
<path d="M10.2712 23.9202C10.2712 24.0771 10.2685 24.1882 10.4062 24.2759V24.2845H9.94727V24.2759C10.0844 24.189 10.0844 24.0773 10.0844 23.9202V22.8037C10.0844 22.6468 10.0844 22.5357 9.95044 22.452V22.4436H10.3286V22.4466C10.3362 22.4726 10.3496 22.4965 10.3678 22.5166L10.4038 22.5727L11.3527 23.8644V22.804C11.3527 22.6471 11.3553 22.5361 11.2187 22.4523V22.4439H11.6747V22.4523C11.5407 22.5361 11.5407 22.6474 11.5407 22.804V24.3746C11.381 24.3158 11.247 24.2026 11.1622 24.055L10.2729 22.8379L10.2712 23.9202Z" fill="white"/>
<path d="M12.9225 22.5957C13.332 22.5957 13.5734 22.991 13.5734 23.3996C13.5734 23.8158 13.3221 24.1269 12.9277 24.1269C12.5204 24.1269 12.2639 23.7249 12.2639 23.3326C12.2639 22.9097 12.5204 22.5957 12.9225 22.5957ZM12.9406 22.3947C12.8131 22.3923 12.6864 22.4155 12.5679 22.4629C12.4495 22.5103 12.3418 22.5809 12.2511 22.6706C12.1605 22.7603 12.0887 22.8673 12.0401 22.9852C11.9914 23.1031 11.9669 23.2296 11.968 23.3571C11.964 23.4836 11.9856 23.6097 12.0315 23.7277C12.0773 23.8457 12.1465 23.9533 12.2349 24.044C12.3232 24.1347 12.429 24.2066 12.5458 24.2555C12.6626 24.3044 12.788 24.3292 12.9146 24.3285C13.0424 24.3278 13.1687 24.3016 13.2861 24.2515C13.4036 24.2014 13.5099 24.1283 13.5988 24.0366C13.6877 23.9449 13.7574 23.8364 13.8039 23.7174C13.8503 23.5984 13.8726 23.4714 13.8693 23.3437C13.8719 23.2201 13.8498 23.0973 13.8043 22.9824C13.7588 22.8675 13.6908 22.7628 13.6043 22.6745C13.5178 22.5862 13.4146 22.5161 13.3006 22.4682C13.1867 22.4203 13.0643 22.3957 12.9408 22.3957L12.9406 22.3947Z" fill="white"/>
<path d="M14.882 24.0826C14.9662 24.0876 15.0506 24.0749 15.1297 24.0455C15.2088 24.0161 15.2809 23.9706 15.3414 23.9118H15.349L15.215 24.2845H14.1494V24.2759C14.2812 24.2257 14.2667 24.0183 14.2667 23.8924V22.8372C14.2667 22.7081 14.2821 22.5046 14.1494 22.452V22.4436H14.6447V22.452C14.5122 22.5051 14.5306 22.7114 14.5306 22.8372V24.0573L14.882 24.0826Z" fill="white"/>
<path d="M16.4013 22.5957C16.8109 22.5957 17.0524 22.991 17.0524 23.3996C17.0524 23.8159 16.8011 24.1269 16.4067 24.1269C15.9994 24.1269 15.743 23.7249 15.743 23.3327C15.7423 22.9098 15.9994 22.5957 16.4013 22.5957ZM16.4196 22.3947C16.292 22.3922 16.1653 22.4153 16.0468 22.4626C15.9283 22.5099 15.8205 22.5806 15.7299 22.6703C15.6392 22.76 15.5674 22.8671 15.5188 22.985C15.4702 23.103 15.4458 23.2295 15.447 23.3571C15.443 23.4837 15.4646 23.6098 15.5105 23.7278C15.5563 23.8458 15.6255 23.9534 15.7139 24.0441C15.8023 24.1348 15.908 24.2067 16.0249 24.2556C16.1417 24.3045 16.2672 24.3293 16.3938 24.3285C16.5215 24.3278 16.6477 24.3015 16.7651 24.2514C16.8825 24.2012 16.9887 24.1281 17.0775 24.0364C17.1664 23.9447 17.236 23.8362 17.2824 23.7173C17.3288 23.5983 17.351 23.4713 17.3477 23.3437C17.3503 23.2202 17.3282 23.0974 17.2827 22.9825C17.2373 22.8676 17.1693 22.7629 17.0829 22.6747C16.9964 22.5864 16.8933 22.5162 16.7794 22.4683C16.6655 22.4204 16.5432 22.3957 16.4196 22.3957V22.3947Z" fill="white"/>
<path d="M19.0976 22.7673H19.0897C19.0289 22.7086 18.9564 22.6634 18.877 22.6346C18.7976 22.6057 18.7129 22.5939 18.6286 22.5998C18.5321 22.5968 18.436 22.6139 18.3465 22.6502C18.257 22.6865 18.1761 22.7411 18.1089 22.8105C18.0418 22.8799 17.9898 22.9625 17.9565 23.0532C17.9232 23.1438 17.9091 23.2404 17.9153 23.3368C17.9111 23.4377 17.927 23.5384 17.9622 23.633C17.9973 23.7277 18.051 23.8144 18.12 23.8881C18.189 23.9618 18.2721 24.021 18.3642 24.0622C18.4564 24.1035 18.5558 24.1259 18.6568 24.1283C18.7789 24.1287 18.9003 24.1107 19.0171 24.0749V23.6729C19.0171 23.5438 19.0145 23.4068 18.8976 23.3565V23.348H19.2947V23.3565C19.2836 23.3956 19.2793 23.4363 19.2818 23.4768V24.1201C19.2783 24.1626 19.2827 24.2054 19.2947 24.2462C19.0915 24.2949 18.8839 24.3229 18.675 24.33C18.0111 24.33 17.6199 23.9379 17.6199 23.3753C17.6199 22.7723 18.063 22.3987 18.6904 22.3987C18.8274 22.3991 18.9639 22.4151 19.0973 22.4462L19.0976 22.7673Z" fill="white"/>
<path d="M20.3173 23.9204C20.3173 24.0878 20.3173 24.1716 20.4498 24.2761V24.2846H19.9445V24.2761C20.0708 24.2063 20.0529 24.0249 20.0529 23.8926V23.4789L19.6228 22.7307C19.5704 22.6131 19.4849 22.5133 19.3767 22.4434H19.6114C19.6479 22.4387 19.685 22.4434 19.7191 22.4572C19.7532 22.471 19.7832 22.4934 19.8062 22.5222L20.2207 23.2523L20.5426 22.7309C20.5868 22.661 20.6456 22.5279 20.5009 22.452V22.4436H20.9546L20.3166 23.479L20.3173 23.9204Z" fill="white"/>
<path d="M17.5475 20.2736C17.6205 20.4013 17.7237 20.5093 17.8479 20.5881V20.6022C16.9961 20.6022 16.8274 20.6022 16.4988 20.0686L15.9516 19.1365V19.933C15.9516 20.1772 15.9208 20.4436 16.1379 20.5889V20.603H14.9487V20.5889C15.1665 20.4436 15.1346 20.1774 15.1346 19.933V18.188C15.1346 17.9396 15.1658 17.678 14.9487 17.5328V17.5186H16.1379V17.5328C15.9202 17.6778 15.9516 17.9445 15.9516 18.188V18.9058L16.5502 18.1599C16.6498 18.0553 16.72 17.9264 16.7537 17.786C16.7535 17.734 16.7391 17.683 16.7122 17.6384C16.6853 17.5939 16.6469 17.5575 16.601 17.533V17.5187H17.5927V17.533L16.5921 18.7697L17.5475 20.2736Z" fill="#FF6600"/>
<path d="M18.6669 18.9192C18.6669 18.4167 18.8961 17.8655 19.4182 17.8655C20.0242 17.8655 20.2233 18.6604 20.2233 19.2161C20.2377 19.4554 20.1807 19.6935 20.0597 19.9003C19.9999 20.01 19.9099 20.1002 19.8004 20.1604C19.6909 20.2206 19.5665 20.2482 19.4419 20.2399C19.3172 20.2316 19.1975 20.1878 19.097 20.1137C18.9964 20.0396 18.9192 19.9382 18.8744 19.8216C18.7431 19.5385 18.6724 19.2311 18.6669 18.9192ZM17.8078 19.051C17.7979 19.2652 17.8327 19.4791 17.9101 19.6791C17.9875 19.8791 18.1057 20.0607 18.2573 20.2124C18.4089 20.3641 18.5904 20.4825 18.7903 20.5601C18.9903 20.6377 19.2042 20.6727 19.4184 20.6629C20.3164 20.6629 21.0824 20.0685 21.0824 19.0465C21.0824 18.0146 20.4007 17.4436 19.4715 17.4436C18.5737 17.4436 17.8078 18.0523 17.8078 19.0512V19.051Z" fill="#FF6600"/>
<path d="M24.2615 20.7004C24.0737 20.6734 23.8931 20.6097 23.73 20.5128C23.4029 20.3391 23.3188 20.181 23.1019 19.88L22.2528 18.6808L22.1942 18.5971V19.9189C22.1942 20.1912 22.1988 20.3964 22.3883 20.5888V20.6029H21.5808V20.5888C21.7754 20.3966 21.7795 20.1914 21.7795 19.9189V18.3016C21.7795 17.9403 21.7627 17.8149 21.5227 17.5335V17.5193H22.4419V17.5335L23.8458 19.4764V18.2035C23.8458 17.9316 23.8412 17.7263 23.6508 17.5335V17.5193H24.4556V17.5335C24.2651 17.7256 24.261 17.931 24.261 18.2035L24.2615 20.7004Z" fill="#FF6600"/>
<path d="M30.568 20.7004C30.3802 20.6733 30.1995 20.6096 30.0362 20.5128C29.7093 20.3391 29.6254 20.181 29.4088 19.88L28.5593 18.6808L28.5005 18.5971V19.9189C28.5005 20.1912 28.5052 20.3964 28.6953 20.5888V20.6029H27.8869V20.5888C28.0815 20.3966 28.086 20.1914 28.086 19.9189V18.3016C28.086 17.9403 28.0681 17.8149 27.8296 17.5335V17.5193H28.7496V17.5335L30.1525 19.4764V18.2035C30.1525 17.9316 30.1481 17.7263 29.9584 17.5335V17.5193H30.7623V17.5335C30.5722 17.7256 30.5678 17.931 30.5678 18.2035L30.568 20.7004Z" fill="#FF6600"/>
<path d="M26.2694 19.2331H25.6224L25.9364 18.2281H25.9409L26.2694 19.2331ZM26.4156 19.6685L26.5611 20.1239C26.5857 20.1797 26.5978 20.2402 26.5965 20.3011C26.5959 20.3609 26.5786 20.4194 26.5467 20.4699C26.5147 20.5205 26.4693 20.5612 26.4156 20.5874V20.6014H27.7511V20.5874C27.5613 20.412 27.4287 20.1834 27.3708 19.9315L26.5333 17.5178H25.4497V17.5321C25.4985 17.5594 25.5395 17.5986 25.569 17.6461C25.5984 17.6937 25.6154 17.7479 25.6182 17.8037C25.5987 17.9315 25.5659 18.0569 25.5204 18.1779L24.9112 20.0502C24.8608 20.2542 24.7553 20.4404 24.6062 20.5885V20.6026H25.4673V20.5885C25.4217 20.5607 25.3834 20.5223 25.3558 20.4766C25.3281 20.4309 25.3118 20.3792 25.3083 20.3259C25.3197 20.2107 25.3464 20.0975 25.3877 19.9893L25.4939 19.6697L26.4156 19.6685Z" fill="#FF6600"/>
<circle cx="20" cy="20" r="19.5" stroke="black" stroke-opacity="0.05"/>
</svg>
