<svg width="40" height="40" viewBox="0 0 40 40" fill="none" xmlns="http://www.w3.org/2000/svg">
<circle cx="20" cy="20" r="20" fill="#F6F8FA"/>
<g clip-path="url(#clip0_16604_11831)">
<path d="M20.4106 29.7521C22.5598 29.6539 24.6027 28.789 26.1692 27.3144C27.7357 25.8397 28.7222 23.8527 28.9499 21.7134C27.7096 22.0971 22.8801 23.8992 20.4106 29.7521Z" fill="#089444"/>
<path d="M11.0503 21.7134C11.2777 23.8529 12.264 25.84 13.8306 27.3148C15.3972 28.7895 17.4403 29.6542 19.5896 29.7521C17.1201 23.8992 12.2906 22.0971 11.0503 21.7134Z" fill="#089444"/>
<path d="M11.9624 21.231C13.7199 21.8855 17.2851 23.6931 19.6285 28.1036V22.7401C18.9054 22.1543 15.8798 19.987 11.9624 21.231Z" fill="#089444"/>
<path d="M28.0376 21.2311C24.1202 19.9871 21.0945 22.1581 20.3696 22.7402V28.1037C22.713 23.6932 26.28 21.8855 28.0376 21.2311Z" fill="#089444"/>
<path d="M15.2861 17.0767C15.2861 17.2966 15.3734 17.5076 15.5287 17.6633C15.6841 17.819 15.8949 17.9068 16.1148 17.9072C16.335 17.9068 16.546 17.8191 16.7016 17.6634C16.8573 17.5078 16.9449 17.2968 16.9454 17.0767C16.9449 16.8566 16.8573 16.6456 16.7016 16.4899C16.546 16.3343 16.335 16.2466 16.1148 16.2461C15.8949 16.2466 15.6841 16.3343 15.5287 16.49C15.3734 16.6457 15.2861 16.8567 15.2861 17.0767Z" fill="#8CC63F"/>
<path d="M24.7286 17.0767C24.7286 16.8567 24.6414 16.6457 24.486 16.49C24.3306 16.3343 24.1199 16.2466 23.8999 16.2461C23.6798 16.2466 23.4688 16.3343 23.3131 16.4899C23.1575 16.6456 23.0698 16.8566 23.0693 17.0767C23.0698 17.2968 23.1575 17.5078 23.3131 17.6634C23.4688 17.8191 23.6798 17.9068 23.8999 17.9072C24.1199 17.9068 24.3306 17.819 24.486 17.6633C24.6414 17.5076 24.7286 17.2966 24.7286 17.0767Z" fill="#8CC63F"/>
<path d="M28.3491 14.6053L20.6459 10.1743C20.4486 10.0604 20.2248 10.0005 19.997 10.0005C19.7692 10.0005 19.5454 10.0604 19.3481 10.1743L11.6468 14.6053C11.449 14.7191 11.2846 14.883 11.1704 15.0806C11.0561 15.2782 10.996 15.5024 10.9961 15.7306V20.7641C10.9961 20.7641 10.9961 20.7845 10.9961 20.7938C14.9617 19.1679 18.2673 20.9032 19.6225 21.8283V19.2328L17.4145 17.9461C17.2719 18.1598 17.0789 18.3352 16.8526 18.4567C16.6263 18.5783 16.3736 18.6423 16.1167 18.6432C15.7001 18.6427 15.3007 18.4768 15.0062 18.1821C14.7118 17.8873 14.5464 17.4877 14.5464 17.071C14.5464 16.6544 14.7118 16.2548 15.0062 15.96C15.3007 15.6652 15.7001 15.4994 16.1167 15.4989C16.3232 15.4989 16.5276 15.5396 16.7183 15.6186C16.9091 15.6976 17.0824 15.8134 17.2284 15.9594C17.3744 16.1053 17.4902 16.2787 17.5692 16.4694C17.6482 16.6602 17.6889 16.8646 17.6889 17.071C17.6886 17.1268 17.6855 17.1825 17.6796 17.2379L19.6299 18.3744V15.853C19.2879 15.7699 18.9838 15.5743 18.7662 15.2976C18.5487 15.0209 18.4305 14.6792 18.4304 14.3272C18.4304 13.9106 18.5958 13.511 18.8903 13.2162C19.1847 12.9214 19.5841 12.7555 20.0007 12.755C20.2072 12.755 20.4116 12.7957 20.6024 12.8747C20.7931 12.9537 20.9664 13.0695 21.1124 13.2155C21.2584 13.3615 21.3742 13.5348 21.4532 13.7256C21.5322 13.9163 21.5729 14.1207 21.5729 14.3272C21.5728 14.6794 21.4542 15.0213 21.2363 15.2981C21.0185 15.5748 20.7139 15.7702 20.3715 15.853V18.3595L22.3367 17.2157C22.3367 17.1675 22.3367 17.1193 22.3367 17.071C22.3367 16.6541 22.5023 16.2542 22.7972 15.9594C23.092 15.6645 23.4919 15.4989 23.9089 15.4989C24.3255 15.4994 24.7249 15.6652 25.0193 15.96C25.3138 16.2548 25.4792 16.6544 25.4792 17.071C25.4792 17.4877 25.3138 17.8873 25.0193 18.1821C24.7249 18.4768 24.3255 18.6427 23.9089 18.6432C23.6474 18.6432 23.39 18.578 23.1601 18.4533C22.9303 18.3287 22.7352 18.1486 22.5926 17.9294L20.3789 19.2272V21.8227C21.736 20.8957 25.0416 19.1623 29.0072 20.7882C29.0072 20.7882 29.0072 20.7678 29.0072 20.7586V15.7251C29.0056 15.4971 28.9439 15.2735 28.8283 15.0769C28.7128 14.8803 28.5475 14.7177 28.3491 14.6053Z" fill="#8CC63F"/>
<path d="M20.8297 14.3325C20.8292 14.1124 20.7415 13.9014 20.5859 13.7458C20.4302 13.5901 20.2193 13.5024 19.9991 13.502C19.7792 13.5024 19.5684 13.5902 19.413 13.7459C19.2577 13.9016 19.1704 14.1126 19.1704 14.3325C19.1704 14.5525 19.2577 14.7635 19.413 14.9192C19.5684 15.0749 19.7792 15.1626 19.9991 15.1631C20.2193 15.1626 20.4302 15.0749 20.5859 14.9193C20.7415 14.7636 20.8292 14.5526 20.8297 14.3325Z" fill="#8CC63F"/>
</g>
<circle cx="20" cy="20" r="19.5" stroke="black" stroke-opacity="0.05"/>
<defs>
<clipPath id="clip0_16604_11831">
<rect width="18" height="19.752" fill="white" transform="translate(11 10)"/>
</clipPath>
</defs>
</svg>
