<svg width="40" height="40" viewBox="0 0 40 40" fill="none" xmlns="http://www.w3.org/2000/svg">
<circle cx="20" cy="20" r="20" fill="#00B8FF"/>
<g clip-path="url(#clip0_16604_10955)">
<path d="M13.4705 17C12.8917 17 12.3259 17.1716 11.8446 17.4932C11.3633 17.8148 10.9882 18.2719 10.7667 18.8066C10.5452 19.3414 10.4873 19.9298 10.6002 20.4975C10.7131 21.0652 10.9918 21.5867 11.4011 21.996C11.8104 22.4053 12.3319 22.684 12.8996 22.7969C13.4673 22.9099 14.0557 22.8519 14.5905 22.6304C15.1252 22.4089 15.5823 22.0338 15.9039 21.5525C16.2255 21.0712 16.3971 20.5054 16.3971 19.9266C16.3972 19.5422 16.3215 19.1617 16.1745 18.8066C16.0274 18.4515 15.8118 18.1288 15.5401 17.857C15.2683 17.5853 14.9457 17.3697 14.5906 17.2226C14.2355 17.0756 13.8549 16.9999 13.4705 17ZM13.4705 21.6179C13.136 21.6179 12.809 21.5187 12.5309 21.3329C12.2527 21.147 12.0359 20.8829 11.9079 20.5738C11.7799 20.2648 11.7464 19.9247 11.8117 19.5966C11.8769 19.2685 12.038 18.9672 12.2746 18.7306C12.5111 18.4941 12.8125 18.333 13.1406 18.2677C13.4687 18.2025 13.8087 18.236 14.1178 18.364C14.4268 18.492 14.691 18.7088 14.8768 18.9869C15.0627 19.2651 15.1619 19.5921 15.1619 19.9266C15.1619 20.3752 14.9837 20.8054 14.6665 21.1225C14.3493 21.4397 13.9191 21.6179 13.4705 21.6179Z" fill="white"/>
<path d="M6.42153 18.6326C6.42153 17.9553 8.1996 17.9471 8.58366 18.8162L9.58351 18.2394C9.3082 17.5814 8.3111 16.9973 7.32411 16.9973C6.15723 16.9973 5.16243 17.6075 5.16243 18.6721C5.16243 19.8876 6.56378 20.2028 7.14745 20.3446C7.73111 20.4864 8.50749 20.6089 8.50749 21.0912C8.50749 21.5372 8.00275 21.7051 7.4457 21.7051C6.74136 21.7051 6.19394 21.4688 5.95488 20.9214L5 21.472C5.29504 22.3223 6.26231 22.8486 7.41817 22.8486C8.92276 22.8486 9.76063 22.1539 9.76063 21.0389C9.76063 20.1556 8.99067 19.5925 8.05414 19.365C7.21949 19.1667 6.42153 19.0497 6.42153 18.6326Z" fill="white"/>
<path d="M21.7162 20.5648C21.4693 21.1953 20.9215 21.6202 20.202 21.6202C19.2659 21.6202 18.5391 20.8617 18.5391 19.9261C18.5391 18.9905 19.2659 18.232 20.202 18.232C20.5209 18.2271 20.8343 18.3157 21.1034 18.487C21.3725 18.6582 21.5856 18.9046 21.7162 19.1956L22.8175 18.561C22.3503 17.6245 21.3285 16.9986 20.202 16.9986C19.4258 16.9986 18.6814 17.3069 18.1326 17.8558C17.5837 18.4046 17.2754 19.149 17.2754 19.9252C17.2754 20.7014 17.5837 21.4457 18.1326 21.9946C18.6814 22.5434 19.4258 22.8518 20.202 22.8518C20.7495 22.8518 21.2858 22.6966 21.7487 22.4043C22.2116 22.1119 22.5822 21.6943 22.8175 21.1999L21.7162 20.5648Z" fill="white"/>
<path d="M26.8991 17.1469H25.5097L23.2549 22.6999H24.6815L26.2062 18.723L27.7751 22.6999H29.2017L26.8991 17.1469Z" fill="white"/>
<path d="M33.827 20.6717L33.9334 20.6075C34.1992 20.4512 34.4188 20.2272 34.5697 19.9584C34.7207 19.6896 34.7977 19.3855 34.7929 19.0772C34.7929 17.9425 33.9573 17.15 32.7611 17.15H30.0781V22.7022H31.3409V20.9269H32.5619L33.5888 22.7054H34.9998L33.827 20.6717ZM32.6863 19.8348H31.3409V18.3141H32.6863C33.1855 18.3141 33.5209 18.6188 33.5209 19.0726C33.5209 19.5264 33.1846 19.8348 32.6863 19.8348Z" fill="white"/>
</g>
<circle cx="20" cy="20" r="19.5" stroke="black" stroke-opacity="0.05"/>
<defs>
<clipPath id="clip0_16604_10955">
<rect width="30" height="5.85317" fill="white" transform="translate(5 17)"/>
</clipPath>
</defs>
</svg>
