<svg width="40" height="40" viewBox="0 0 40 40" fill="none" xmlns="http://www.w3.org/2000/svg">
<circle cx="20" cy="20" r="20" fill="#F6F8FA"/>
<g clip-path="url(#clip0_40023_77801)">
<path d="M24.4603 22.0809C25.5448 22.0809 26.4344 21.2339 26.4344 20.1833C26.4344 19.1326 25.5533 18.2856 24.4603 18.2856C23.3674 18.2856 22.4863 19.1326 22.4863 20.1833C22.4863 21.2339 23.3674 22.0809 24.4603 22.0809ZM24.4603 19.3607C24.9348 19.3607 25.316 19.7272 25.316 20.1833C25.316 20.6393 24.9348 21.0058 24.4603 21.0058C23.9859 21.0058 23.6047 20.6393 23.6047 20.1833C23.6047 19.7272 23.9859 19.3607 24.4603 19.3607Z" fill="black"/>
<path d="M20.0124 21.9341H20.6563C20.8935 21.9341 21.0883 21.7468 21.0883 21.5188V20.0854H21.7237C21.961 20.0854 22.1558 19.8981 22.1558 19.67V19.0592H21.0883V18.4647C21.0883 18.3425 21.19 18.2448 21.3171 18.2448H22.1558V17.2104H21.3171C20.5969 17.2104 20.0208 17.7643 20.0124 18.4565V19.0592H19.377V20.0935H20.0124V21.9423V21.9341Z" fill="black"/>
<path d="M17.7168 20.1833L18.6827 19.2304C18.8521 19.0675 18.8436 18.7987 18.6827 18.644L18.2252 18.2124L16.8357 19.5806V17.6341C16.8357 17.4061 16.6409 17.2188 16.4037 17.2188H15.7598V21.9424H16.8357V21.0628L16.9713 20.9325C17.0306 21.0058 17.0984 21.0791 17.1661 21.1443C17.683 21.6411 18.3692 21.9261 19.0978 21.9424C19.1402 21.9424 19.1825 21.9098 19.1825 21.861V20.9081C18.7081 20.9081 18.2591 20.7289 17.9286 20.4113C17.8524 20.338 17.7931 20.2647 17.7338 20.1833H17.7168Z" fill="black"/>
<path d="M9.47266 18.8151V21.9343H10.1589C10.3622 21.9099 10.5232 21.747 10.5402 21.5516V18.416H9.90474C9.67599 18.416 9.48113 18.5952 9.47266 18.8151Z" fill="black"/>
<path d="M10.0069 18.0169C10.3671 18.0169 10.6592 17.7361 10.6592 17.3898C10.6592 17.0435 10.3671 16.7627 10.0069 16.7627C9.64656 16.7627 9.35449 17.0435 9.35449 17.3898C9.35449 17.7361 9.64656 18.0169 10.0069 18.0169Z" fill="black"/>
<path d="M34.3646 18.416C34.2206 18.416 34.085 18.4893 34.0088 18.5951C33.7377 18.3997 33.4242 18.2856 33.0768 18.2856C31.9924 18.2856 31.1028 19.1326 31.1028 20.1833C31.1028 21.2257 31.9839 22.0809 33.0768 22.0809C33.3903 22.0809 33.6783 21.9831 33.924 21.8203C33.9071 22.1623 33.8139 22.708 33.1192 22.9279C32.2042 23.2211 31.7213 22.6836 30.4674 22.708C29.671 22.7243 29.078 23.0419 28.7391 23.2781C28.5527 23.4084 28.4849 23.6527 28.595 23.8563C29.1711 24.9069 30.3318 25.6155 31.6535 25.5992C33.5258 25.5748 35 24.0518 35 22.2519V18.4241H34.3646V18.416ZM31.0943 24.6708L30.747 25.0291C30.0861 24.8336 29.51 24.4183 29.1118 23.8156C29.0441 23.7179 29.0695 23.5794 29.1796 23.5224C29.4677 23.3432 29.9506 23.1559 30.4759 23.1478H30.5436C30.7809 23.1478 30.9757 23.1641 31.1536 23.1966L31.34 23.6609L30.8063 24.0518L31.1028 24.6789L31.0943 24.6708ZM33.924 20.1833C33.924 20.6393 33.5428 21.0058 33.0684 21.0058C32.5939 21.0058 32.2127 20.6393 32.2127 20.1833C32.2127 19.7272 32.5939 19.3607 33.0684 19.3607C33.5428 19.3607 33.924 19.7272 33.924 20.1833Z" fill="black"/>
<path d="M14.3791 21.9343H15.0145V20.0774C15.0145 19.0756 14.2774 18.2856 13.2269 18.2856C12.888 18.2856 12.5576 18.3997 12.295 18.5951C12.2187 18.4893 12.0832 18.416 11.9391 18.416H11.3037V21.5515C11.3207 21.7551 11.4816 21.9098 11.685 21.9343H12.3712V20.11C12.3712 19.6702 12.6762 19.32 13.1337 19.32C13.5912 19.32 13.9386 19.6783 13.9386 20.11V21.5189C13.9386 21.747 14.1334 21.9343 14.3706 21.9343H14.3791Z" fill="black"/>
<path d="M30.01 21.9343H30.6454V20.0774C30.6454 19.0756 29.9083 18.2856 28.8578 18.2856C28.5189 18.2856 28.1885 18.3997 27.9258 18.5951C27.8496 18.4893 27.714 18.416 27.57 18.416H26.9346V21.5515C26.9515 21.7551 27.1125 21.9098 27.3158 21.9343H28.0021V20.11C28.0021 19.6702 28.3071 19.32 28.7646 19.32C29.2221 19.32 29.5694 19.6783 29.5694 20.11V21.5189C29.5694 21.747 29.7643 21.9343 30.0015 21.9343H30.01Z" fill="black"/>
<path d="M6.92319 18.2856C6.57583 18.2856 6.25388 18.3997 5.99125 18.6033C5.915 18.4893 5.77944 18.416 5.63541 18.416H5V23.5876H5.68625C5.88958 23.5631 6.05055 23.4002 6.0675 23.2048V21.804C6.32166 21.975 6.60971 22.0727 6.92319 22.0727C8.00763 22.0727 8.88873 21.2257 8.88873 20.1833C8.88873 19.1408 8.00763 18.2938 6.92319 18.2938V18.2856ZM6.92319 20.9977C6.44874 20.9977 6.0675 20.6312 6.0675 20.1751C6.0675 19.719 6.44874 19.3525 6.92319 19.3525C7.39763 19.3525 7.77888 19.719 7.77888 20.1751C7.77888 20.6312 7.39763 20.9977 6.92319 20.9977Z" fill="black"/>
<path d="M17.37 24.5892V24.6055L17.3361 24.5892C17.1667 24.4019 17.0057 24.3286 16.777 24.3286C16.6075 24.3286 16.4212 24.4101 16.3534 24.4834L16.3364 24.4996L16.3195 24.4834C16.2856 24.4345 16.2178 24.4019 16.1585 24.4019H15.8535V25.9819C15.8535 26.0715 15.9382 26.1448 16.0314 26.1611H16.3618V25.2489C16.3618 24.9883 16.4974 24.8254 16.7262 24.8254C16.938 24.8254 17.0566 24.972 17.0566 25.2326V25.2489V26.1611H17.5649V25.2408C17.5649 24.972 17.692 24.8254 17.9038 24.8254C18.1156 24.8254 18.2342 24.972 18.2427 25.2326V25.2489V25.9656C18.2427 26.0715 18.3359 26.1611 18.446 26.1611H18.751V25.2489C18.751 24.7114 18.4121 24.3368 17.9207 24.3368C17.6242 24.3368 17.4548 24.4752 17.3616 24.5974L17.37 24.5892Z" fill="black"/>
<path d="M20.0722 24.3286C19.9113 24.3286 19.7588 24.3856 19.6232 24.4834L19.6063 24.4996V24.4834C19.5554 24.4345 19.4961 24.4019 19.4284 24.4019H19.1318V27.0081H19.4538C19.547 26.9999 19.6232 26.9185 19.6317 26.8289V26.0145L19.6656 26.0389C19.7927 26.1204 19.9282 26.1692 20.0722 26.1692C20.5975 26.1692 21.0042 25.762 21.0042 25.2571C21.0042 24.7521 20.5975 24.3449 20.0722 24.3449V24.3286ZM20.0722 25.6643C19.8266 25.6643 19.6317 25.477 19.6317 25.2408C19.6317 25.0046 19.8266 24.8173 20.0722 24.8173C20.3179 24.8173 20.5128 25.0046 20.5128 25.2408C20.5128 25.477 20.3179 25.6643 20.0722 25.6643Z" fill="black"/>
<path d="M22.0803 24.3286C21.7075 24.3286 21.394 24.4671 21.3347 24.4996L21.4787 24.8743C21.5211 24.858 21.7922 24.7277 22.0125 24.7277C22.1735 24.7277 22.326 24.7765 22.4022 24.8661C22.4446 24.915 22.4785 24.9802 22.4954 25.0453V25.0779H22.47C22.3514 25.0453 22.1481 25.029 22.021 25.029C21.5296 25.029 21.25 25.2408 21.25 25.6073C21.25 25.9738 21.4957 26.1937 21.9024 26.1937C22.0633 26.1937 22.2836 26.1692 22.4276 26.0552L22.4615 26.0308L22.5208 26.1692H22.9699V25.3222C22.9699 25.3222 22.9699 25.2815 22.9699 25.2652C22.9699 25.0942 22.9699 24.8336 22.8343 24.6381C22.6818 24.4426 22.4276 24.3368 22.0887 24.3368L22.0803 24.3286ZM22.4531 25.477C22.4531 25.5747 22.3853 25.7701 22.1396 25.819C22.0887 25.8272 22.0464 25.8353 22.004 25.8353C21.9362 25.8353 21.8769 25.819 21.8346 25.7946C21.7922 25.762 21.7668 25.7213 21.7583 25.6643C21.7499 25.591 21.7583 25.534 21.8007 25.4851C21.8515 25.4281 21.9362 25.4037 22.0549 25.3955C22.2158 25.3955 22.3853 25.4199 22.4361 25.4525H22.4446V25.4688L22.4531 25.477Z" fill="black"/>
<path d="M14.5821 24.3286C14.0398 24.3286 13.5908 24.7521 13.5908 25.2815C13.5908 25.8109 14.0314 26.2344 14.5821 26.2344C15.1328 26.2344 15.5733 25.8109 15.5733 25.2815C15.5733 24.7521 15.1328 24.3286 14.5821 24.3286ZM14.5821 25.7213C14.3279 25.7213 14.1246 25.5258 14.1246 25.2815C14.1246 25.0372 14.3279 24.8417 14.5821 24.8417C14.8362 24.8417 15.0396 25.0372 15.0396 25.2815C15.0396 25.5258 14.8362 25.7213 14.5821 25.7213Z" fill="black"/>
<path d="M26.8251 24.3939L26.3422 25.5178L25.8678 24.3939H25.4696C25.4187 24.3939 25.3764 24.4183 25.351 24.459C25.3256 24.4998 25.3171 24.5486 25.3425 24.5893L26.088 26.1205C26.0287 26.2834 25.944 26.4462 25.8508 26.4951C25.7661 26.5358 25.6305 26.5521 25.5035 26.5195L25.4442 26.9593C25.495 26.9675 25.639 27.0001 25.7661 27.0001C26.1728 27.0001 26.41 26.6987 26.5455 26.3648C26.554 26.3404 26.6133 26.2101 26.6303 26.1612L27.325 24.5731C27.3419 24.5323 27.3419 24.4835 27.308 24.4428C27.2826 24.402 27.2403 24.3857 27.1894 24.3857H26.8336L26.8251 24.3939Z" fill="black"/>
<path d="M24.8765 26.1529H25.1561V25.2245C25.1561 24.7195 24.8257 24.3286 24.3004 24.3286C24.131 24.3286 23.9615 24.3856 23.8345 24.4834C23.7921 24.4263 23.7328 24.3938 23.6565 24.3938H23.377V25.9656C23.3854 26.0633 23.4701 26.1448 23.5718 26.1611H23.8768V25.2489C23.8768 25.029 24.0293 24.8498 24.2581 24.8498C24.4868 24.8498 24.6563 25.029 24.6563 25.2489V25.9493C24.6563 26.0633 24.7494 26.1611 24.8765 26.1611V26.1529Z" fill="black"/>
<path d="M13.2353 24.3613L13.5064 23.9785C13.5064 23.9785 13.1845 23.7261 12.6677 23.7261C12.0069 23.7261 11.3545 24.1903 11.3545 24.9884C11.3545 25.8354 12.0662 26.2264 12.6677 26.2264C13.1506 26.2264 13.4132 26.0309 13.498 25.9576L13.2268 25.583C13.2268 25.583 12.9727 25.7296 12.7185 25.7296C12.2271 25.7296 11.9306 25.3875 11.9306 24.9884C11.9306 24.5894 12.2017 24.2066 12.71 24.2066C12.9727 24.2066 13.1337 24.3043 13.2353 24.3532V24.3613Z" fill="black"/>
<path d="M16.9878 13.4803H17.5131V15.2069C17.5131 15.3047 17.5978 15.378 17.691 15.378H18.0214V13.4803H18.6822V13.1546C18.6822 13.0813 18.6229 13.0161 18.5382 13.0161H16.8438V13.3419C16.8438 13.4152 16.9031 13.4803 16.9878 13.4803Z" fill="black"/>
<path d="M20.1732 14.4823V14.5067V15.2234C20.1732 15.3211 20.2579 15.3863 20.3511 15.3863H20.6646V14.4985C20.6646 13.9692 20.368 13.5782 19.8682 13.5782C19.6648 13.5782 19.4785 13.6923 19.4107 13.8063V13.1955C19.4107 13.0896 19.3175 13 19.2073 13H18.9023V15.2071C18.9023 15.3048 18.9871 15.3781 19.0803 15.3781H19.4022V14.4823C19.4022 14.2216 19.5547 14.0669 19.7919 14.0669C20.0291 14.0669 20.1732 14.1891 20.1732 14.4741V14.4823Z" fill="black"/>
<path d="M21.9522 15.4595C22.2826 15.4595 22.5283 15.3536 22.7232 15.1418L22.5537 14.9708C22.4944 14.9057 22.4012 14.8975 22.325 14.9464C22.1979 15.0278 22.0708 15.036 21.9353 15.036C21.6048 15.036 21.4778 14.7835 21.4778 14.6613H22.7825C22.7825 14.6125 22.791 14.5473 22.791 14.4659C22.791 13.9365 22.3843 13.5537 21.8844 13.5537C21.3592 13.5537 20.9355 13.9691 20.9355 14.5229C20.9355 15.036 21.3422 15.4595 21.9353 15.4595H21.9522ZM21.9014 13.9772C22.1555 13.9772 22.3165 14.1808 22.3165 14.3274H21.4862C21.4862 14.1808 21.6387 13.9772 21.9014 13.9772Z" fill="black"/>
</g>
<circle cx="20" cy="20" r="19.5" stroke="black" stroke-opacity="0.05"/>
<defs>
<clipPath id="clip0_40023_77801">
<rect width="30" height="15" fill="white" transform="translate(5 13)"/>
</clipPath>
</defs>
</svg>
