<svg width="40" height="40" viewBox="0 0 40 40" fill="none" xmlns="http://www.w3.org/2000/svg">
<circle cx="20" cy="20" r="20" fill="white"/>
<circle cx="20" cy="20" r="20" fill="#0646FF"/>
<circle cx="20" cy="20" r="19.5" stroke="black" stroke-opacity="0.05"/>
<path d="M19.9996 9.5238C17.9276 9.5238 15.9022 10.1382 14.1794 11.2894C12.4566 12.4405 11.1138 14.0767 10.3209 15.9909C9.52798 17.9052 9.32051 20.0116 9.72474 22.0438C10.129 24.076 11.1267 25.9427 12.5918 27.4078C14.057 28.8729 15.9236 29.8707 17.9558 30.2749C19.988 30.6791 22.0944 30.4716 24.0087 29.6787C25.923 28.8858 27.5591 27.5431 28.7103 25.8203C29.8614 24.0975 30.4758 22.072 30.4758 20C30.476 18.6242 30.2052 17.2618 29.6788 15.9907C29.1524 14.7196 28.3807 13.5646 27.4079 12.5917C26.435 11.6189 25.2801 10.8472 24.0089 10.3208C22.7378 9.79443 21.3754 9.5236 19.9996 9.5238ZM20.2183 28.5571C18.9599 28.7333 16.926 28.4155 15.5433 27.5425C14.5009 26.8948 13.6679 25.9596 13.1445 24.8496C12.6726 23.857 12.4414 22.6474 12.9494 22.7134C13.1885 22.7402 13.3946 23.1932 13.8539 23.7815C14.1685 24.1826 14.4579 24.5208 14.6766 24.568C14.7741 24.5884 14.8559 24.5444 14.9251 24.4107C15.0557 24.1606 15.2303 23.6871 15.5449 23.3096C15.7981 23.0154 16.1049 22.8786 16.2826 23.5959C16.3665 23.9396 16.4311 24.2878 16.4761 24.6388C16.5327 25.0918 16.5611 25.3639 16.7184 25.4394C16.8757 25.5149 17.1242 25.419 17.5379 25.2648C17.8336 25.1547 18.2127 25.0147 18.694 24.8763C19.1376 24.7489 19.4192 24.815 19.1345 25.5055C18.9374 25.9637 18.6854 26.3963 18.3842 26.7938C18.3439 26.8449 18.3253 26.9098 18.3323 26.9745C18.3394 27.0392 18.3716 27.0986 18.4219 27.1398C18.7015 27.3617 19.0134 27.5394 19.3468 27.6668C19.6571 27.7959 19.9749 27.9062 20.2985 27.9971C20.6933 28.1025 20.6162 28.5005 20.2183 28.5555V28.5571ZM25.5948 26.303C25.2063 26.9322 24.3883 27.6243 23.3926 28.0805C23.2353 28.1481 23.078 28.1261 23.0418 28.005C23.0056 27.8839 23.0906 27.7769 23.1881 27.6605C24.4811 25.9837 23.5216 24.4484 21.4358 23.2561C19.8958 22.3752 18.919 21.8687 17.7786 21.2002C14.4485 19.2387 13.8052 17.5304 13.6746 16.5189C13.3458 13.966 15.4568 12.0532 17.6275 11.5923C17.6952 11.5797 17.8682 11.5514 17.9248 11.6945C17.9815 11.8377 17.8525 11.9447 17.777 11.9903C16.8049 12.5235 15.8516 13.6592 15.9554 14.9192C16.0136 15.6239 16.3157 16.6369 18.2206 17.996C19.3704 18.8155 20.7798 19.4888 23.6207 21.1923C26.622 22.9918 26.2806 25.1799 25.5948 26.303ZM26.0667 16.7219C25.3809 17.5618 24.6966 17.2488 24.1697 16.0691C23.8409 15.3313 23.4067 15.1551 23.1016 15.3471C22.7697 15.5578 22.9018 16.0628 23.2746 16.6448C23.3801 16.8137 23.4257 17.0133 23.4041 17.2113C23.3824 17.4094 23.2947 17.5943 23.1551 17.7364C22.8892 18.0149 22.4535 18.125 21.9785 18.0196C21.1322 17.834 20.3032 16.703 20.9088 14.2334C21.1542 13.2361 20.676 12.8177 20.3724 12.426C20.2151 12.2341 20.2025 12.1193 20.2576 12.0406C20.3127 11.962 20.4574 11.9509 20.7059 12.0029C21.0315 12.0721 21.5144 12.2388 21.9061 12.2986C22.1931 12.3393 22.4833 12.353 22.7728 12.3395C23.4956 12.2882 24.219 12.431 24.8681 12.7532C25.9471 13.2864 26.0573 14.2051 25.4564 14.1327C25.2123 14.0691 24.9782 13.9717 24.7611 13.8433C24.6132 13.7725 24.4858 13.7489 24.3914 13.8165C24.3442 13.8557 24.3122 13.9101 24.3007 13.9704C24.2892 14.0307 24.299 14.0931 24.3285 14.1469C24.4622 14.4284 24.9153 14.5747 25.5287 14.7446C26.6031 15.0387 26.6251 16.0345 26.0667 16.7219Z" fill="white"/>
</svg>
