<svg width="40" height="40" viewBox="0 0 40 40" fill="none" xmlns="http://www.w3.org/2000/svg">
<circle cx="20" cy="20" r="20" fill="#02ADA4"/>
<path d="M20.2059 19.6166C20.6656 19.2138 21.4237 19.2163 21.8928 19.6084C21.9547 19.6597 21.9835 19.6597 22.0479 19.6128C22.5921 19.2194 23.1738 19.2194 23.7611 19.4902C24.1089 19.6504 24.2521 19.9693 24.2571 20.334C24.269 21.2309 24.2615 22.1279 24.2653 23.0248C24.2653 23.1093 24.2309 23.1224 24.1589 23.1211C23.9744 23.1174 23.7886 23.1143 23.6041 23.1224C23.5022 23.1268 23.4809 23.0905 23.4815 22.9961C23.4853 22.2336 23.4834 21.4711 23.4834 20.7087C23.4834 20.5592 23.4753 20.4103 23.4259 20.2671C23.3696 20.1044 23.2557 20.0175 23.0844 19.9975C22.5833 19.9387 22.2912 20.1607 22.2475 20.6561C22.2006 21.1878 22.2368 21.7219 22.2287 22.2549C22.2249 22.5038 22.2249 22.7534 22.2299 23.0023C22.2318 23.0899 22.2124 23.1268 22.1155 23.1224C21.936 23.1149 21.7552 23.1136 21.5763 23.1224C21.4656 23.128 21.4462 23.0849 21.4468 22.9848C21.4506 22.2624 21.45 21.5393 21.4481 20.8169C21.4481 20.653 21.4525 20.4879 21.4118 20.3265C21.3593 20.1182 21.2379 20.0131 21.024 19.9937C20.5243 19.9481 20.2272 20.182 20.214 20.6818C20.194 21.4336 20.199 22.1867 20.2059 22.9385C20.2071 23.0961 20.1609 23.1343 20.0139 23.1218C19.86 23.1093 19.7036 23.1118 19.5498 23.1218C19.4391 23.1287 19.4053 23.0974 19.4065 22.9823C19.4128 22.4244 19.4097 21.8658 19.4097 21.3079C19.4097 20.755 19.4128 20.2014 19.4072 19.6485C19.4059 19.5359 19.4372 19.5002 19.5491 19.5059C19.7287 19.5146 19.9088 19.509 20.0889 19.5077C20.1534 19.5077 20.2146 19.5059 20.2059 19.6166Z" fill="white"/>
<path d="M16.326 21.8937C16.336 21.8937 16.346 21.8937 16.356 21.8937C16.4611 21.8937 16.5768 21.8668 16.6681 21.9025C16.7726 21.9438 16.7344 22.0857 16.7757 22.1783C16.8702 22.3891 17.0184 22.5273 17.2442 22.5793C17.4712 22.6312 17.6989 22.6412 17.926 22.5818C18.0342 22.5536 18.1299 22.5029 18.2074 22.4198C18.4195 22.1927 18.3576 21.9081 18.0692 21.7993C17.7965 21.6961 17.5069 21.6635 17.2217 21.6204C16.9327 21.5766 16.6738 21.4715 16.4573 21.2739C15.8569 20.7266 15.982 19.8146 16.7219 19.4781C17.2454 19.2398 17.7909 19.2461 18.3169 19.4906C18.7135 19.6751 18.8848 20.0329 18.9812 20.4332C19.0562 20.7453 19.0512 20.7466 18.736 20.7466C18.716 20.7466 18.6953 20.7441 18.6759 20.7466C18.4063 20.7879 18.2131 20.7466 18.1536 20.4176C18.1142 20.1974 17.9235 20.0798 17.6945 20.0467C17.4819 20.016 17.2748 20.0279 17.0803 20.1242C16.8089 20.2587 16.7801 20.5558 17.0171 20.7422C17.2017 20.8873 17.4268 20.9173 17.647 20.958C17.8772 20.9999 18.1099 21.0306 18.3344 21.1012C18.7504 21.232 19.0137 21.5072 19.07 21.9369C19.1313 22.4054 18.9774 22.8082 18.5771 23.0815C18.2093 23.3323 17.7846 23.3599 17.3537 23.333C16.4254 23.2742 16.0833 22.643 15.9344 21.9763C15.9182 21.9031 15.9494 21.89 16.0114 21.8918C16.1165 21.8943 16.2215 21.8925 16.326 21.8918V21.8937Z" fill="white"/>
<path d="M10.8576 20.2761C10.8576 19.5286 10.8595 18.7818 10.8551 18.0343C10.8545 17.9268 10.8745 17.883 10.9927 17.8905C11.1616 17.9011 11.333 17.9011 11.5019 17.8905C11.6195 17.883 11.6401 17.9261 11.6395 18.0337C11.6357 19.4235 11.637 20.8134 11.637 22.2032C11.637 22.4165 11.6376 22.4221 11.8496 22.4065C11.9403 22.3996 11.9766 22.414 11.9729 22.5122C11.9666 22.681 11.9672 22.8512 11.9729 23.0201C11.9754 23.0995 11.9478 23.1245 11.8703 23.1214C11.7408 23.1164 11.6107 23.1201 11.4806 23.1201C11.0872 23.1201 10.8589 22.8968 10.8576 22.5028C10.8551 21.7603 10.857 21.0185 10.857 20.2761H10.8576Z" fill="white"/>
<path d="M4.92095 17.844C4.6276 17.6752 4.35489 17.5132 4.07718 17.3606C3.98961 17.313 3.98398 17.2686 4.02339 17.186C4.17163 16.8733 4.17913 16.8689 4.47686 17.0391C4.69641 17.1648 4.91595 17.2905 5.15926 17.4294C5.15926 17.1466 5.16677 16.8858 5.15614 16.6256C5.15051 16.498 5.20242 16.4761 5.31125 16.4818C5.634 16.4986 5.634 16.4961 5.634 16.8183C5.634 17.1566 5.63088 17.4957 5.63588 17.834C5.63776 17.9347 5.61149 17.9942 5.51766 18.0461C5.16865 18.2381 4.82275 18.4364 4.48249 18.6428C4.38679 18.701 4.33863 18.6816 4.27421 18.6046C4.06342 18.3532 4.06279 18.3413 4.33863 18.1806C4.5269 18.0711 4.7158 17.9629 4.92158 17.8447L4.92095 17.844Z" fill="white"/>
<path d="M5.81337 18.3674C5.81337 18.6539 5.80586 18.911 5.8165 19.1674C5.8215 19.2913 5.77772 19.3156 5.6645 19.3131C5.33863 19.305 5.338 19.3094 5.33863 18.9823C5.33863 18.8084 5.28421 18.6013 5.36052 18.4694C5.4362 18.338 5.64074 18.2761 5.7946 18.196C5.88405 18.1498 5.90657 18.0897 5.90657 17.9946C5.90657 17.827 5.84152 17.63 5.93221 17.4999C6.0179 17.3773 6.20179 17.3229 6.34378 17.2403C6.64401 17.0652 6.64401 17.0683 6.82102 17.3666C6.87106 17.4511 6.85917 17.4899 6.77473 17.5362C6.53517 17.6675 6.30062 17.8076 6.05168 17.9515C6.26434 18.0741 6.45949 18.1935 6.66152 18.2999C6.75097 18.3474 6.75409 18.3924 6.71469 18.475C6.56707 18.7896 6.55707 18.7946 6.25871 18.622C6.1186 18.5407 5.97787 18.46 5.81399 18.3662L5.81337 18.3674Z" fill="white"/>
<path fill-rule="evenodd" clip-rule="evenodd" d="M33.1475 19.7397C33.3948 19.5382 33.6415 19.396 33.9331 19.3461C34.7594 19.2041 35.52 19.6157 35.8202 20.3969C36.0935 21.1074 36.0591 21.818 35.6882 22.4866C35.2291 23.3141 34.2434 23.5599 33.429 23.0739C33.3703 23.039 33.313 23.0012 33.2489 22.9591C33.2168 22.9379 33.1829 22.9156 33.1463 22.8919V23.6694C33.1463 23.7364 33.1456 23.8034 33.145 23.8705C33.1434 24.0326 33.1419 24.1949 33.1494 24.3568C33.1544 24.4744 33.1137 24.4988 33.0062 24.4932C32.8367 24.4844 32.6665 24.4844 32.497 24.4932C32.3913 24.4988 32.3638 24.4644 32.3644 24.3606C32.3674 23.5714 32.3672 22.7822 32.367 21.9931C32.367 21.7959 32.3669 21.5986 32.3669 21.4014C32.3669 21.244 32.3671 21.0867 32.3674 20.9294C32.368 20.489 32.3686 20.0487 32.3644 19.6082C32.3632 19.4949 32.3951 19.4612 32.507 19.4674C32.6665 19.4768 32.8273 19.4799 32.9861 19.4674C33.1206 19.4568 33.17 19.5006 33.1475 19.6313C33.1449 19.6461 33.1454 19.6611 33.1463 19.6839C33.1468 19.6986 33.1475 19.7165 33.1475 19.7397ZM33.3031 22.0202C33.4639 22.3768 33.7503 22.5544 34.1444 22.5569H34.145C34.6473 22.5594 34.9913 22.313 35.1345 21.8345C35.2396 21.4823 35.2365 21.1252 35.1101 20.7793C34.915 20.2445 34.5184 20.0944 34.1244 20.1038C33.6421 20.115 33.2875 20.4221 33.1868 20.8969C33.1055 21.2809 33.1411 21.6606 33.3031 22.0202Z" fill="white"/>
<path fill-rule="evenodd" clip-rule="evenodd" d="M29.1537 19.7422C29.4905 19.4502 29.8535 19.308 30.2696 19.3173C31.0633 19.3355 31.6851 19.8221 31.9002 20.614C32.0622 21.2094 32.0228 21.7992 31.7607 22.3634C31.3367 23.2754 30.2902 23.5894 29.4252 23.0696C29.3671 23.0347 29.3107 22.9969 29.254 22.9588C29.2282 22.9415 29.2024 22.9241 29.1762 22.907C29.1448 22.938 29.1486 22.9726 29.1521 23.0053C29.1533 23.0155 29.1544 23.0255 29.1544 23.0352C29.1542 23.0665 29.1541 23.0979 29.1539 23.1292C29.1522 23.5363 29.1504 23.9435 29.1556 24.3506C29.1569 24.455 29.1412 24.5026 29.0205 24.4944C28.8466 24.4826 28.6709 24.4857 28.4964 24.4938C28.3988 24.4982 28.37 24.4694 28.3713 24.3706C28.3758 24.1131 28.3751 23.856 28.3743 23.5987C28.374 23.5022 28.3738 23.4057 28.3738 23.3092C28.3738 23.0251 28.3739 22.7411 28.374 22.4571C28.3743 21.5102 28.3746 20.5632 28.3713 19.6163C28.3713 19.4993 28.4 19.4599 28.5195 19.4681C28.6784 19.4787 28.8397 19.4787 28.9986 19.4681C29.1212 19.4593 29.1769 19.4931 29.1544 19.6213C29.1512 19.6395 29.1518 19.6585 29.1526 19.686C29.1531 19.7016 29.1537 19.7198 29.1537 19.7422ZM30.8648 22.3002C31.1343 22.0425 31.1913 21.7085 31.2056 21.3764V21.3751C31.205 21.2088 31.1919 21.0599 31.1575 20.9141C31.0399 20.4181 30.6615 20.1067 30.1667 20.0985C29.702 20.091 29.3029 20.4006 29.1954 20.8722C29.1084 21.255 29.1391 21.6353 29.2967 21.9969C29.5613 22.6048 30.3831 22.7606 30.8648 22.3002Z" fill="white"/>
<path fill-rule="evenodd" clip-rule="evenodd" d="M7.64394 19.7339C8.25484 19.2471 8.88825 19.1891 9.55291 19.5261C9.9601 19.7325 10.2209 20.0765 10.3535 20.5075C10.5649 21.193 10.533 21.8685 10.174 22.4996C9.71741 23.3027 8.76793 23.5498 7.95981 23.0951C7.89252 23.0574 7.8281 23.0149 7.76305 22.9719C7.73195 22.9514 7.70072 22.9308 7.66896 22.9106C7.63297 22.9352 7.6375 22.9691 7.64182 23.0015C7.6432 23.0119 7.64457 23.0222 7.64457 23.0319C7.64435 23.0841 7.64411 23.1362 7.64387 23.1884C7.64209 23.5797 7.6403 23.971 7.64582 24.3623C7.64707 24.4686 7.6158 24.4987 7.51197 24.4937C7.33245 24.4855 7.15231 24.4874 6.9728 24.4937C6.88899 24.4962 6.85959 24.473 6.86209 24.3861C6.86611 24.2261 6.86535 24.0658 6.86458 23.9057C6.86427 23.8416 6.86397 23.7776 6.86397 23.7137C6.86397 23.4222 6.86405 23.1306 6.86414 22.8391C6.86446 21.7702 6.86477 20.7013 6.86084 19.6324C6.86084 19.5017 6.89086 19.4573 7.02534 19.4685C7.17921 19.481 7.33558 19.4798 7.48945 19.4685C7.61454 19.4598 7.66458 19.4998 7.64457 19.6243C7.64174 19.6429 7.6423 19.6617 7.64306 19.6869C7.64346 19.7004 7.64392 19.7158 7.64394 19.7339ZM9.35653 22.2967C9.62799 22.0334 9.68553 21.695 9.69304 21.3397V21.3391C9.69867 21.1377 9.66489 20.9426 9.59359 20.7543C9.43534 20.3358 9.04879 20.0763 8.62096 20.0988C8.15623 20.1232 7.80096 20.399 7.6915 20.8481C7.59455 21.2453 7.6227 21.6412 7.79345 22.0153C8.06366 22.6082 8.88679 22.7527 9.35653 22.2967Z" fill="white"/>
<path fill-rule="evenodd" clip-rule="evenodd" d="M24.661 20.5645C24.661 20.5649 24.6609 20.5653 24.6609 20.5657L24.6603 20.5644C24.6605 20.5645 24.6608 20.5645 24.661 20.5645ZM24.661 20.5645C24.6733 20.5652 24.6855 20.5662 24.6978 20.5672C24.7197 20.5689 24.7416 20.5707 24.7635 20.5707C24.83 20.5709 24.8965 20.5707 24.9631 20.5705C25.0963 20.5701 25.2296 20.5697 25.3627 20.5726C25.4376 20.5744 25.4482 20.5296 25.4605 20.4774C25.461 20.4751 25.4616 20.4729 25.4621 20.4706C25.5159 20.2479 25.6685 20.1254 25.8806 20.0678C26.0463 20.0228 26.2164 20.0159 26.386 20.0359C26.7544 20.0791 26.8638 20.1979 26.8857 20.5682C26.8963 20.7527 26.8776 20.7834 26.6899 20.8134C26.5375 20.8375 26.3845 20.8589 26.2316 20.8803C26.0438 20.9065 25.856 20.9328 25.6692 20.9641C25.3683 21.0148 25.0656 21.0792 24.8354 21.2994C24.5383 21.584 24.4307 21.9386 24.5395 22.3358C24.6596 22.7761 24.9042 23.1264 25.3689 23.2578C25.9281 23.416 26.456 23.3266 26.9401 23.0032C27.0083 22.9582 27.0502 22.9463 27.1159 23.0088C27.1841 23.0739 27.2748 23.1152 27.373 23.117C27.4515 23.1184 27.53 23.1182 27.6085 23.118C27.705 23.1177 27.8015 23.1174 27.8977 23.1202C27.9747 23.1227 27.9891 23.0883 27.9878 23.022C27.9847 22.8481 27.9834 22.6736 27.9878 22.4991C27.9897 22.4184 27.9603 22.3996 27.8821 22.4027C27.6425 22.4134 27.6419 22.4096 27.6394 22.1694C27.639 22.1428 27.6397 22.1164 27.6404 22.09C27.6407 22.0767 27.6411 22.0634 27.6413 22.05C27.6452 21.8781 27.6518 21.7062 27.6585 21.5343C27.6711 21.2089 27.6837 20.8833 27.6776 20.5576C27.6657 19.8864 27.3311 19.4742 26.7018 19.3523C26.4698 19.3072 26.2358 19.3041 26.0007 19.316C25.2273 19.3541 24.7602 19.7884 24.661 20.5645ZM26.2035 22.602C26.7633 22.4719 26.8859 22.328 26.8859 21.802V21.8007C26.8859 21.7779 26.8854 21.7549 26.8849 21.7319C26.8838 21.6803 26.8828 21.6286 26.8871 21.5774C26.8952 21.4811 26.8596 21.4599 26.7664 21.4767C26.6559 21.4968 26.5448 21.5119 26.4339 21.5271C26.3575 21.5375 26.2813 21.548 26.2053 21.5599C26.1977 21.5611 26.1901 21.5623 26.1826 21.5635C25.9349 21.6023 25.6867 21.6411 25.4598 21.7595C25.3171 21.8333 25.2634 21.9459 25.2852 22.1029C25.3209 22.3562 25.4835 22.5407 25.7306 22.6064C25.8895 22.6483 26.0465 22.6389 26.2035 22.602Z" fill="white"/>
<path fill-rule="evenodd" clip-rule="evenodd" d="M12.5164 20.5716C12.5164 20.5718 12.5164 20.572 12.5164 20.5722L12.5157 20.5716C12.516 20.5716 12.5162 20.5716 12.5164 20.5716ZM12.5164 20.5716C12.5834 20.5716 12.6504 20.5714 12.7173 20.5712C12.885 20.5707 13.0524 20.5702 13.2194 20.5729C13.2909 20.574 13.3005 20.5313 13.3109 20.485C13.3123 20.4791 13.3136 20.4731 13.3151 20.4672C13.3633 20.2714 13.4884 20.1488 13.6791 20.0875C13.888 20.0199 14.1013 20.0068 14.3146 20.0518C14.6567 20.1238 14.7281 20.2239 14.7412 20.5716C14.7474 20.7274 14.6937 20.7924 14.5392 20.8187C14.3815 20.8454 14.2227 20.8651 14.0641 20.8848C13.7923 20.9185 13.5206 20.9522 13.2544 21.0213C12.9517 21.0995 12.6871 21.2309 12.5126 21.5086C12.0754 22.2035 12.6271 23.118 13.2231 23.2637C13.7823 23.4001 14.3021 23.3281 14.7831 23.0104C14.8519 22.9647 14.8988 22.9397 14.972 23.011C15.047 23.0836 15.1484 23.1205 15.2591 23.1198C15.282 23.1197 15.3049 23.1195 15.3278 23.1192C15.465 23.118 15.6021 23.1168 15.7388 23.1211C15.8176 23.1236 15.8445 23.0986 15.8414 23.0198C15.8358 22.8703 15.832 22.7202 15.842 22.5713C15.8514 22.4393 15.8195 22.3749 15.6725 22.4087C15.5381 22.4393 15.4843 22.3761 15.4918 22.2417C15.5011 22.0822 15.503 21.9233 15.5037 21.7638C15.5045 21.6076 15.5113 21.4515 15.5182 21.2954C15.5322 20.9744 15.5463 20.6535 15.508 20.3321C15.453 19.8655 15.1753 19.5339 14.7249 19.397C14.4078 19.3006 14.0838 19.29 13.7604 19.3232C13.0276 19.3982 12.5817 19.8483 12.5164 20.5716ZM14.0528 22.6031C14.6095 22.4755 14.739 22.3254 14.739 21.8057V21.7462C14.739 21.4648 14.7384 21.4616 14.4613 21.5048C14.3779 21.5177 14.2941 21.5285 14.2103 21.5394C13.9488 21.5732 13.6871 21.6071 13.438 21.7037C13.1171 21.8275 13.0458 22.0246 13.2097 22.3267C13.2904 22.4755 13.4198 22.5606 13.58 22.6056C13.7382 22.6501 13.8952 22.6394 14.0528 22.6031Z" fill="white"/>
<circle cx="20" cy="20" r="19.5" stroke="black" stroke-opacity="0.05"/>
</svg>
