<svg width="40" height="40" viewBox="0 0 40 40" fill="none" xmlns="http://www.w3.org/2000/svg">
<circle cx="20" cy="20" r="20" fill="#F6F8FA"/>
<path d="M32 19.5081C32 26.021 26.6477 31.3059 20.0193 31.3227C13.3909 31.3396 8.00964 26.0643 8.00001 19.5515C7.99038 13.0386 13.3499 7.75371 19.9783 7.73686C26.6067 7.72 31.988 12.9953 32 19.5081ZM31.2295 19.6791C31.3138 13.5828 26.3588 8.56751 20.1541 8.48084C13.9494 8.39416 8.85956 13.2674 8.77529 19.3661C8.69102 25.4624 13.6461 30.4776 19.8507 30.5643C26.0554 30.651 31.1429 25.7778 31.2271 19.6791H31.2295Z" fill="#25150C"/>
<path d="M27.8225 13.3059C26.4983 13.5194 25.4678 13.1831 24.731 12.297C23.914 11.3375 22.7965 10.6824 21.5601 10.4383C20.5173 10.1951 19.4356 10.169 18.3823 10.3616C17.329 10.5542 16.3266 10.9614 15.4373 11.5579C14.9317 11.8877 14.4405 12.2248 13.959 12.5691C13.0657 13.212 12.5745 14.4086 12.146 15.3693C11.9196 15.8749 11.7591 15.8556 11.6644 15.3115C11.5553 14.6999 11.7744 14.0635 12.3217 13.4022C13.7287 11.7033 15.6188 10.4723 17.7415 9.87249C18.7912 9.55948 19.9084 9.63171 21.0184 9.63171C23.4261 9.63171 25.9156 11.0378 27.8033 12.7738C27.8809 12.8464 27.9403 12.9363 27.9766 13.0362C28.032 13.1927 27.9814 13.2794 27.8225 13.3059Z" fill="#1F742E"/>
<path d="M14.4238 13.6573C14.3636 13.6573 14.3058 13.5827 14.2601 13.6044C14.2242 13.618 14.1939 13.6431 14.1739 13.6758C14.1539 13.7084 14.1452 13.7468 14.1493 13.7849C14.147 13.8505 14.1599 13.9158 14.187 13.9755C14.2142 14.0353 14.2549 14.0879 14.3058 14.1292C13.9869 14.3521 13.7064 14.6253 13.4752 14.9382C13.2777 15.2103 13.1742 15.179 13.1598 14.8443C13.1405 14.4206 13.2994 13.7922 13.7015 13.5297C13.8596 13.4246 13.9941 13.2876 14.0964 13.1276C14.1565 13.0337 14.2216 13.0313 14.2938 13.1156C14.387 13.2804 14.432 13.4681 14.4238 13.6573Z" fill="#1F742E"/>
<path d="M28.9206 15.5525C28.3283 15.3599 27.5579 15.2563 27.1245 14.7507C27.083 14.7028 27.0535 14.6457 27.0385 14.5842C27.0234 14.5227 27.0232 14.4584 27.0378 14.3968C27.0733 14.235 27.0556 14.0661 26.9872 13.9152C26.9792 13.8987 26.9745 13.8807 26.9736 13.8623C26.9726 13.8439 26.9754 13.8255 26.9817 13.8082C26.9879 13.791 26.9976 13.7751 27.0102 13.7616C27.0227 13.7482 27.0379 13.7373 27.0547 13.7298C27.07 13.7233 27.0862 13.7192 27.1028 13.7178C28.3982 13.6006 29.0667 14.1624 29.1084 15.4032C29.1091 15.4219 29.106 15.4405 29.0995 15.4579C29.0929 15.4754 29.083 15.4914 29.0703 15.5051C29.0575 15.5187 29.0422 15.5297 29.0252 15.5374C29.0082 15.5452 28.9898 15.5494 28.9712 15.5501C28.9545 15.5534 28.9375 15.5542 28.9206 15.5525Z" fill="#1F742E"/>
<path d="M26.4744 15.3718C26.4661 15.3962 26.4486 15.4164 26.4257 15.4281C26.4028 15.4398 26.3762 15.442 26.3516 15.4344H26.3251C26.1774 15.3859 26.055 15.2809 25.9846 15.1424C25.9142 15.0038 25.9016 14.8431 25.9495 14.6952L25.9687 14.635C25.992 14.5616 26.0295 14.4934 26.0792 14.4345C26.1288 14.3756 26.1896 14.3271 26.2581 14.2918C26.3266 14.2564 26.4013 14.2349 26.4781 14.2286C26.5549 14.2222 26.6322 14.231 26.7055 14.2546H26.7296C26.754 14.2629 26.7744 14.2802 26.7865 14.3031C26.7986 14.3259 26.8015 14.3525 26.7946 14.3774L26.4744 15.3718Z" fill="#1F742E"/>
<path d="M14.8162 15.6029L14.8451 16.6382L14.2648 17.2016C14.2493 17.2179 14.2306 17.2309 14.2099 17.2398C14.1893 17.2486 14.167 17.2532 14.1444 17.2532C14.1219 17.2532 14.0996 17.2486 14.079 17.2398C14.0583 17.2309 14.0396 17.2179 14.0241 17.2016C14.0054 17.183 13.9921 17.1597 13.9855 17.1342C13.7857 16.472 13.451 15.5379 14.1276 15.0563C14.1463 15.0377 14.1694 15.0241 14.1947 15.0167C14.22 15.0093 14.2468 15.0082 14.2726 15.0137C14.2984 15.0192 14.3224 15.0311 14.3425 15.0482C14.3626 15.0653 14.3781 15.0871 14.3876 15.1117C14.5004 15.2994 14.6455 15.4657 14.8162 15.6029Z" fill="#1F742E"/>
<path d="M14.5753 21.9591H14.0408C13.9865 21.9535 13.9316 21.9604 13.8803 21.9792C13.829 21.998 13.7826 22.0281 13.7447 22.0674C13.677 22.1696 13.6472 22.2922 13.6604 22.4141C13.5649 22.0837 13.3934 21.7803 13.1596 21.5281C11.3803 19.8668 10.3233 18.0369 10.7302 15.5714C10.7323 15.5543 10.7378 15.5377 10.7463 15.5227C10.7549 15.5077 10.7663 15.4946 10.78 15.4841C10.7936 15.4735 10.8093 15.4658 10.8259 15.4614C10.8426 15.457 10.86 15.4559 10.8771 15.4583C10.9164 15.4596 10.9539 15.4749 10.983 15.5014C11.0121 15.5278 11.0309 15.5637 11.036 15.6027C11.4694 18.0056 12.9718 20.1749 14.5753 21.9591Z" fill="#1F742E"/>
<path d="M13.1164 17.8783C12.9791 17.5677 12.8756 17.5774 12.8178 17.912L12.76 18.213C12.7563 18.2311 12.749 18.2482 12.7387 18.2634C12.7283 18.2787 12.715 18.2917 12.6995 18.3018C12.6841 18.3119 12.6668 18.3188 12.6487 18.3221C12.6305 18.3255 12.6119 18.3252 12.5939 18.3213C12.5781 18.319 12.563 18.3135 12.5493 18.3052C12.5357 18.297 12.5238 18.2861 12.5144 18.2732C11.9462 17.5413 11.9374 16.7098 12.4879 15.7788C12.5987 15.5886 12.7287 15.5862 12.8419 15.7788C13.2976 16.432 13.4996 17.229 13.4101 18.0204C13.3876 18.1953 13.325 18.2122 13.2223 18.0709C13.1789 18.0115 13.1433 17.9468 13.1164 17.8783Z" fill="#1F742E"/>
<path d="M9.1775 17.1749C9.18568 17.117 9.21461 17.0641 9.25891 17.026C9.30321 16.9879 9.35985 16.9672 9.41827 16.9678C9.61129 16.9662 9.79756 17.0387 9.93868 17.1705C10.0798 17.3022 10.165 17.483 10.1767 17.6757C10.2374 18.1556 10.3886 18.6196 10.6221 19.0432C10.6406 19.0789 10.6446 19.1203 10.6334 19.1588C10.6222 19.1973 10.5966 19.2301 10.5619 19.2503C10.5339 19.2654 10.5019 19.2713 10.4704 19.2672C9.37894 19.1307 8.94797 18.4333 9.1775 17.1749Z" fill="#1F742E"/>
<path d="M14.9246 17.2065L14.9005 20.7699C14.7532 20.5399 14.6412 20.2892 14.5682 20.026C14.4864 19.7178 14.3853 19.7106 14.2649 20.0043L14.2023 20.1608C14.1972 20.1809 14.1874 20.1995 14.1737 20.2151C14.16 20.2307 14.1428 20.2427 14.1234 20.2503C14.1041 20.2578 14.0833 20.2606 14.0626 20.2584C14.042 20.2563 14.0222 20.2492 14.0048 20.2378C13.3837 19.961 13.545 18.8847 13.8098 18.4369C13.9714 18.2133 14.158 18.009 14.366 17.8277C14.5684 17.6359 14.7552 17.4281 14.9246 17.2065Z" fill="#1F742E"/>
<path d="M10.7376 20.7869C10.8392 20.8726 10.9584 20.9351 11.0867 20.9699C11.4575 21.0806 11.4575 21.193 11.0867 21.3069C10.1814 21.5846 9.55222 21.27 9.19909 20.3631C9.18234 20.3209 9.17411 20.2758 9.17485 20.2304C9.1756 20.185 9.18531 20.1402 9.20344 20.0986C9.22157 20.057 9.24774 20.0194 9.28047 19.9879C9.31319 19.9564 9.35182 19.9318 9.39412 19.9153C10.1598 19.6119 10.7842 19.6922 11.2673 20.156C11.3323 20.2202 11.3716 20.3058 11.3781 20.3968C11.3781 20.4715 11.3323 20.5268 11.2167 20.5581C11.1904 20.5625 11.1636 20.5625 11.1373 20.5581C11.0278 20.5438 10.9169 20.5438 10.8074 20.5581C10.622 20.5774 10.5859 20.6544 10.7376 20.7869Z" fill="#1F742E"/>
<path d="M26.3563 24.0493C26.5695 23.5817 26.6407 23.0618 26.5609 22.5541C26.6596 22.3591 26.7487 22.1809 26.8306 22.022C26.8684 21.9257 26.9404 21.8469 27.0328 21.8005C27.1026 21.7696 27.1811 21.7645 27.2543 21.7861C27.2925 21.7944 27.3266 21.8158 27.3508 21.8466C27.375 21.8773 27.3877 21.9155 27.3868 21.9546C27.4036 22.3735 27.4133 22.7853 27.4133 23.1922C27.4133 26.0188 25.8916 28.0894 23.2937 28.9706C21.5938 29.5533 19.8121 29.4715 18.0545 29.2885C17.8863 29.2727 17.7228 29.2244 17.573 29.1464C17.4981 29.1177 17.4315 29.0707 17.3794 29.0097C17.3272 28.9488 17.2912 28.8757 17.2744 28.7973C17.2407 28.5549 17.3466 28.4442 17.5922 28.465C18.382 28.5405 19.1621 28.5967 19.9325 28.6336C22.9879 28.7853 25.7471 27.384 26.4935 24.2997C26.4959 24.2773 26.4959 24.2547 26.4935 24.2323C26.5128 24.0228 26.4574 23.9602 26.3563 24.0493Z" fill="#1F742E"/>
<path d="M12.8491 22.643C12.5409 22.5838 12.2221 22.6161 11.9321 22.7359C11.642 22.8557 11.3933 23.0577 11.2167 23.3171C11.0867 23.4736 11 23.4544 10.9518 23.2569C10.9019 23.0474 10.884 22.8314 10.8989 22.6165C10.9021 22.4788 10.9446 22.3449 11.0214 22.2306C11.0981 22.1163 11.206 22.0263 11.3323 21.9712C11.8451 21.7304 12.5819 22.0699 12.9454 22.4528C13.0947 22.5996 13.0634 22.6646 12.8491 22.643Z" fill="#1F742E"/>
<path d="M28.5039 22.8644C28.4083 22.8732 28.3131 22.8437 28.2391 22.7825C28.2119 22.7611 28.1923 22.7316 28.1832 22.6982C28.1741 22.6648 28.1759 22.6294 28.1885 22.5971C28.2571 22.4247 28.3684 22.2725 28.5121 22.155C28.6557 22.0375 28.8269 21.9585 29.0095 21.9254C29.0297 21.9165 29.0517 21.9125 29.0737 21.9138C29.0956 21.9152 29.117 21.9218 29.1359 21.9331C29.1548 21.9445 29.1707 21.9602 29.1822 21.979C29.1937 21.9977 29.2006 22.019 29.2022 22.041C29.2614 22.2843 29.2306 22.5409 29.1155 22.7633C29.0848 22.8135 29.0437 22.8565 28.995 22.8894C28.9462 22.9223 28.8909 22.9443 28.8329 22.9539C28.7748 22.9635 28.7154 22.9605 28.6586 22.945C28.6019 22.9296 28.5491 22.9021 28.5039 22.8644Z" fill="#1F742E"/>
<path d="M15.021 22.4961C15.5078 23.4999 15.7205 24.6147 15.6374 25.7272C15.5851 26.4045 15.4845 27.0771 15.3364 27.7401C15.2666 28.0338 15.1197 28.082 14.8934 27.8821L14.7923 27.793C14.6845 27.705 14.6045 27.5878 14.5618 27.4554C14.519 27.323 14.5155 27.181 14.5515 27.0467C14.8968 25.5327 14.6596 23.9442 13.887 22.5972L15.021 22.4961Z" fill="#1F742E"/>
<path d="M12.9742 24.8989C12.9561 24.8824 12.9325 24.8734 12.908 24.8734C12.8836 24.8734 12.86 24.8824 12.8418 24.8989C12.8306 24.908 12.8218 24.9199 12.8163 24.9334C12.8109 24.9468 12.8089 24.9615 12.8105 24.9759L12.8707 25.939C12.8707 26.1533 12.8057 26.1797 12.6299 26.0594C12.1079 25.6627 11.7387 25.098 11.585 24.4606C11.4405 23.8346 11.699 23.4285 12.3603 23.2424C12.4183 23.2261 12.4782 23.2172 12.5384 23.2159C12.6822 23.1978 12.8281 23.2091 12.9674 23.2489C13.1067 23.2888 13.2365 23.3564 13.349 23.4477C13.4614 23.5391 13.5543 23.6522 13.6219 23.7803C13.6895 23.9085 13.7304 24.049 13.7423 24.1934C13.9068 25.0554 13.9602 25.935 13.9012 26.8106C13.8987 26.8363 13.8891 26.8607 13.8733 26.8812C13.8575 26.9016 13.8363 26.9172 13.8121 26.9261C13.6893 26.9719 13.6075 26.9261 13.5713 26.76C13.4221 26.2688 13.2704 25.26 12.9742 24.8989Z" fill="#1F742E"/>
<path d="M28.2897 24.9424C28.183 24.9395 28.0778 24.967 27.9863 25.0218C27.8731 25.0868 27.8202 25.0555 27.8298 24.9231C27.838 24.7708 27.8722 24.6209 27.9309 24.4801C28.0375 24.2095 28.2316 23.9823 28.4823 23.8348C28.7452 23.6783 29.0312 23.5645 29.3298 23.4978C29.5706 23.4424 29.6307 23.5242 29.5344 23.7385C28.9791 24.997 28.2768 25.9472 27.4277 26.5892C27.0617 26.8637 27.0136 26.83 27.2881 26.4496C27.625 25.9927 27.9859 25.5539 28.3691 25.135C28.3893 25.1139 28.4005 25.0859 28.4005 25.0567C28.4005 25.0276 28.3893 24.9996 28.3691 24.9785C28.3482 24.9567 28.3198 24.9438 28.2897 24.9424Z" fill="#1F742E"/>
<path d="M13.6534 21.9593H14.5755C14.8765 21.9039 14.8404 21.9593 14.8404 21.184V14.3485C14.8424 14.3098 14.8323 14.2715 14.8116 14.2387C14.7909 14.206 14.7606 14.1804 14.7248 14.1656C14.5329 14.1212 14.3344 14.1139 14.1398 14.1439V13.5901H14.5924C14.6724 13.5984 14.7531 13.5984 14.8332 13.5901C16.4439 13.4023 20.6959 12.8919 20.6598 15.6752C20.6598 16.3975 19.9808 16.9657 19.3813 17.2691C19.3699 17.2747 19.3597 17.2826 19.3513 17.2922C19.3429 17.3018 19.3365 17.3129 19.3325 17.325C19.3285 17.3371 19.3269 17.3499 19.3278 17.3626C19.3288 17.3753 19.3322 17.3877 19.338 17.3991C19.3474 17.4186 19.3637 17.4341 19.3837 17.4424L20.3613 17.9047C20.378 17.9152 20.3969 17.9217 20.4165 17.9238C20.4362 17.9259 20.456 17.9235 20.4746 17.9168C20.4932 17.91 20.5099 17.8992 20.5237 17.885C20.5374 17.8708 20.5477 17.8537 20.5539 17.8349C21.476 15.9087 23.9391 15.8558 25.7834 16.477C25.8221 16.4906 25.8561 16.5152 25.8813 16.5476C25.9065 16.58 25.9218 16.619 25.9255 16.6599L26.0675 18.4513C26.0728 18.4777 26.0722 18.5049 26.0659 18.531C26.0596 18.5572 26.0476 18.5816 26.0309 18.6027C26.0142 18.6238 25.9931 18.641 25.9691 18.6531C25.945 18.6652 25.9186 18.6719 25.8918 18.6728C25.8425 18.6798 25.7923 18.6723 25.7473 18.6511C25.6767 18.6178 25.6209 18.5595 25.5908 18.4874C25.1743 17.5243 24.4134 16.6936 23.3492 16.5949C21.5145 16.424 21.1823 18.8534 22.7593 19.5058C23.6887 19.8927 24.484 20.2619 25.1454 20.6134C25.834 20.9826 26.3051 21.6246 26.5587 22.5395C26.6385 23.0472 26.5673 23.5672 26.354 24.0347C25.2007 26.0765 22.7762 25.9344 20.8163 25.2819C20.778 25.2698 20.7441 25.2467 20.7188 25.2154C20.6936 25.1842 20.6781 25.1462 20.6743 25.1062C20.5924 24.3839 20.5033 23.6615 20.4118 22.8959C20.4017 22.8193 20.4169 22.7415 20.4552 22.6744C20.4693 22.648 20.4885 22.6248 20.5117 22.6059C20.5348 22.587 20.5615 22.5729 20.5902 22.5644C20.6188 22.5559 20.6489 22.5532 20.6786 22.5563C20.7083 22.5595 20.7371 22.5685 20.7633 22.5829C20.8108 22.6086 20.8475 22.6505 20.8669 22.7009C21.3966 24.0588 22.0707 25.1351 23.5659 25.2603C25.102 25.3903 26.0916 23.7314 24.9961 22.4794C24.6035 22.0416 24.1065 21.7103 23.5515 21.5163C22.7767 21.233 22.029 20.8809 21.3171 20.4641C21.2545 20.428 21.2088 20.4424 21.1823 20.5074C20.6333 21.7579 19.6269 22.3999 18.163 22.4336C17.1807 22.4561 16.1293 22.4753 15.0089 22.4914L13.6414 22.5829M16.0491 14.1222L16.0635 17.1367C16.0637 17.184 16.0736 17.2308 16.0927 17.2741C16.1118 17.3174 16.1396 17.3563 16.1744 17.3884C16.2092 17.4205 16.2502 17.445 16.295 17.4606C16.3397 17.4761 16.3871 17.4822 16.4343 17.4786H17.3757C18.5097 17.4786 19.4247 16.6648 19.4198 15.6728V15.5524C19.4198 14.5628 18.4905 13.7346 17.3564 13.7418L16.415 13.7755C16.3241 13.7791 16.2379 13.8172 16.1739 13.8821C16.11 13.9469 16.0731 14.0336 16.0707 14.1246L16.0491 14.1222ZM16.2465 17.8951C16.2033 17.8976 16.1627 17.9168 16.1335 17.9488C16.1043 17.9807 16.0887 18.0228 16.09 18.066C16.1044 19.1335 16.1157 20.1559 16.1237 21.1335C16.1237 21.7755 16.4889 22.131 17.2192 22.2001C18.3428 22.2964 19.1534 21.9753 19.651 21.237C19.8472 20.9611 19.9737 20.6418 20.0198 20.3064C20.0659 19.971 20.0303 19.6294 19.9158 19.3108C19.4223 17.7482 17.6357 17.7867 16.2682 17.8999L16.2465 17.8951Z" fill="#25150C"/>
<circle cx="20" cy="20" r="19.5" stroke="black" stroke-opacity="0.05"/>
</svg>
