<svg width="40" height="40" viewBox="0 0 40 40" fill="none" xmlns="http://www.w3.org/2000/svg">
<circle cx="20" cy="20" r="20" fill="#F6F8FA"/>
<g clip-path="url(#clip0_44746_83182)">
<path d="M18.9553 19.2735V21.7331H17.9636V19.5809C17.9636 19.2828 17.9053 19.1989 17.74 19.1989C17.5748 19.1989 17.4192 19.2828 17.1664 19.4691V21.7424H16.1748V17.0747H17.1664V18.2114C17.1664 18.4443 17.147 18.6679 17.1178 18.8542C17.4678 18.5374 17.8372 18.3604 18.1775 18.3604C18.6928 18.3604 18.965 18.6772 18.965 19.2735H18.9553ZM22.1246 19.5623V21.7331H21.3371L21.2496 21.2952C21.0649 21.5468 20.7635 21.8169 20.2774 21.8169C19.7719 21.8169 19.3636 21.4815 19.3636 20.8759V20.5405C19.3636 20.0188 19.6941 19.7114 20.2288 19.7114H21.1329V19.5623C21.1329 19.2269 21.0357 19.1337 20.7538 19.1337C20.4719 19.1337 20.0441 19.1523 19.5969 19.1896L19.4997 18.5281C19.8983 18.4443 20.5885 18.3697 20.9871 18.3697C21.7163 18.3697 22.1149 18.6492 22.1149 19.5716L22.1246 19.5623ZM21.1427 20.848V20.2983H20.5788C20.4135 20.2983 20.3552 20.4287 20.3552 20.6151V20.7455C20.3552 20.9784 20.433 21.0809 20.6177 21.0809C20.7732 21.0809 20.9677 20.9971 21.1524 20.8573L21.1427 20.848ZM25.4689 19.2735V21.7331H24.4773V19.5809C24.4773 19.2828 24.4189 19.1989 24.2537 19.1989C24.0884 19.1989 23.9328 19.3014 23.6606 19.4878V21.7424H22.669V18.4536H23.4565L23.5537 18.9381C23.9134 18.5654 24.312 18.3604 24.6911 18.3604C25.2064 18.3604 25.4786 18.6772 25.4786 19.2735H25.4689ZM28.8715 20.1213C28.8715 21.4256 28.5216 21.8169 27.841 21.8169C27.5105 21.8169 27.1994 21.7331 26.9758 21.5374C26.9855 21.761 26.9952 21.9753 26.9855 22.1989V22.9909H25.9939V18.4536H26.7911L26.8688 18.9287C27.0536 18.6027 27.4716 18.3604 27.9091 18.3604C28.5993 18.3604 28.8618 19.0033 28.8618 20.1213H28.8715ZM27.8507 20.1213C27.8507 19.3294 27.7535 19.1337 27.5008 19.1337C27.2966 19.1337 27.1605 19.2548 26.9855 19.4505V20.9598C27.1313 21.0157 27.2577 21.0809 27.4619 21.0809C27.7438 21.0809 27.841 20.9318 27.841 20.112M31.9631 19.5623V21.7331H31.1756L31.0881 21.2952C30.9034 21.5468 30.602 21.8169 30.1159 21.8169C29.6104 21.8169 29.2021 21.4815 29.2021 20.8759V20.5405C29.2021 20.0188 29.5326 19.7114 30.0673 19.7114H30.9715V19.5623C30.9715 19.2269 30.8742 19.1337 30.5923 19.1337C30.3104 19.1337 29.8826 19.1523 29.4354 19.1896L29.3382 18.5281C29.7368 18.4443 30.427 18.3697 30.8256 18.3697C31.5548 18.3697 31.9534 18.6492 31.9534 19.5716L31.9631 19.5623ZM30.9812 20.848V20.2983H30.4173C30.252 20.2983 30.1937 20.4287 30.1937 20.6151V20.7455C30.1937 20.9784 30.2715 21.0809 30.4562 21.0809C30.6117 21.0809 30.8062 20.9971 30.9909 20.8573L30.9812 20.848ZM34.938 18.4909L34.8699 19.1244C34.5199 19.1244 34.1699 19.1151 33.82 19.1151C33.4311 19.1151 33.363 19.1151 33.363 19.3294C33.363 19.5343 33.4408 19.5343 33.6936 19.6182L34.3547 19.8418C34.8213 20.0002 35.0546 20.2331 35.0546 20.8014C35.0546 21.612 34.6852 21.8076 33.7713 21.8076C33.538 21.8076 33.013 21.8076 32.4492 21.6958L32.5172 21.053C32.6825 21.0623 33.0908 21.0623 33.4602 21.0623C33.995 21.0623 34.0922 21.0343 34.0922 20.82C34.0922 20.6244 33.9949 20.6058 33.7325 20.5126L33.0908 20.289C32.5367 20.112 32.4006 19.8138 32.4006 19.2921C32.4006 18.6027 32.7019 18.3511 33.6061 18.3511C34.0241 18.3511 34.5977 18.407 34.938 18.4815V18.4909ZM37.8934 18.4909L37.8254 19.1244C37.4754 19.1244 37.1254 19.1151 36.7754 19.1151C36.3865 19.1151 36.3185 19.1151 36.3185 19.3294C36.3185 19.5343 36.3962 19.5343 36.649 19.6182L37.3101 19.8418C37.7767 20.0002 38.0101 20.2331 38.0101 20.8014C38.0101 21.612 37.6406 21.8076 36.7268 21.8076C36.4935 21.8076 35.9685 21.8076 35.4046 21.6958L35.4727 21.053C35.6379 21.0623 36.0463 21.0623 36.4157 21.0623C36.9504 21.0623 37.0476 21.0343 37.0476 20.82C37.0476 20.6244 36.9504 20.6058 36.6879 20.5126L36.0463 20.289C35.4921 20.112 35.356 19.8138 35.356 19.2921C35.356 18.6027 35.6574 18.3511 36.5615 18.3511C36.9796 18.3511 37.5531 18.407 37.8934 18.4815V18.4909Z" fill="#0B0C0E"/>
<path d="M2 19.5526C2 20.3725 2.69997 20.9781 3.56522 20.9781C4.43046 20.9781 4.97489 20.475 5.14016 19.5806C5.32487 18.5837 6.12206 17.9874 7.26924 17.9222C7.72617 17.8942 8.4067 18.0526 8.82474 18.3321C8.88307 18.3694 9.23305 18.6023 9.01917 18.3135C8.68863 17.9129 8.25115 17.5495 7.73589 17.3445C6.86092 16.9812 5.84013 16.916 4.85822 17.093C3.96381 17.2421 3.13746 17.6799 2.52498 18.2762C2.2236 18.5744 2 19.1147 2 19.5526Z" fill="#CC242E"/>
<path d="M13.2 19.2267C13.2 18.4069 12.5 17.8013 11.6348 17.8013C10.7695 17.8013 10.2251 18.3044 10.0598 19.1988C9.87511 20.1957 9.07792 20.792 7.93074 20.8572C7.47381 20.8851 6.79328 20.7267 6.37524 20.4472C6.31691 20.41 5.96693 20.177 6.18081 20.4659C6.51135 20.8665 6.94883 21.2298 7.46409 21.4348C8.34878 21.7982 9.36957 21.8634 10.3515 21.6864C11.2459 21.5373 12.0722 21.0994 12.6847 20.5031C12.9861 20.205 13.2097 19.6646 13.2097 19.2267" fill="#1A397C"/>
</g>
<circle cx="20" cy="20" r="19.5" stroke="black" stroke-opacity="0.05"/>
<defs>
<clipPath id="clip0_44746_83182">
<rect width="37" height="7" fill="white" transform="translate(2 16)"/>
</clipPath>
</defs>
</svg>
