<svg width="40" height="40" viewBox="0 0 40 40" fill="none" xmlns="http://www.w3.org/2000/svg">
<circle cx="20" cy="20" r="20" fill="#F08840"/>
<path d="M33.6359 22.9355C33.8687 22.652 34.5826 21.9196 34.3767 20.803C34.1945 19.808 33.3615 19.0633 31.9493 19.0633H28.2799L27.7436 20.818H31.7438C32.1553 20.818 32.5661 21.077 32.5661 21.5504C32.5661 22.023 31.7833 22.6906 31.5495 22.9225C31.2741 23.1946 31.5495 23.5009 31.5495 23.5009L32.9087 25.265H34.8023C34.8023 25.265 34.9483 25.1583 34.8023 24.9674C34.6546 24.7758 33.6359 23.4536 33.6359 23.4536C33.6359 23.4536 33.4018 23.2199 33.6359 22.9355ZM19.1139 25.9014V26.4954C18.7108 26.314 18.3891 26.2243 18.1492 26.2243C18.0126 26.2243 17.9047 26.2467 17.8242 26.2924C17.7432 26.338 17.703 26.399 17.703 26.4742C17.703 26.5323 17.732 26.5871 17.7901 26.6386C17.8482 26.6921 17.9894 26.759 18.2148 26.8419C18.4398 26.925 18.6199 27.0022 18.7548 27.0727C18.8897 27.1437 19.0064 27.2446 19.1043 27.3741C19.2023 27.5028 19.2513 27.6663 19.2513 27.8631C19.2513 28.1445 19.1442 28.3687 18.9304 28.536C18.7158 28.7032 18.4339 28.7871 18.084 28.7871C17.7067 28.7871 17.341 28.6891 16.9869 28.4932V27.8364C17.1899 27.9743 17.3701 28.0731 17.527 28.1354C17.6835 28.1981 17.8495 28.2288 18.0255 28.2288C18.3231 28.2288 18.4717 28.1354 18.4717 27.9478C18.4717 27.8838 18.4418 27.8245 18.3825 27.7676C18.3231 27.7107 18.1795 27.6423 17.952 27.5609C17.725 27.4795 17.5452 27.4044 17.4124 27.3343C17.2796 27.2654 17.165 27.1658 17.0687 27.0363C16.972 26.9075 16.9238 26.7411 16.9238 26.5398C16.9238 26.2783 17.0293 26.0675 17.2393 25.9072C17.4498 25.7461 17.7316 25.6664 18.084 25.6664C18.4094 25.6664 18.7527 25.7445 19.1139 25.9014ZM22.489 25.705V26.2633H21.3873V28.7476H20.6298V26.2633H19.5281V25.705H22.489ZM25.2067 25.705H25.9641V27.4322C25.9641 27.8763 25.8329 28.213 25.5702 28.4426C25.3074 28.6725 24.9322 28.7863 24.4445 28.7863C23.9621 28.7863 23.5881 28.6709 23.3217 28.438C23.0556 28.206 22.9223 27.8718 22.9223 27.436V25.705H23.6824V27.4534C23.6824 27.6663 23.7513 27.8357 23.8903 27.9636C24.029 28.0914 24.2103 28.1553 24.4357 28.1553C24.6694 28.1553 24.8562 28.0897 24.9961 27.9594C25.1368 27.8282 25.2067 27.6423 25.2067 27.4019V25.705ZM27.3755 26.2633V28.1902H27.8694C28.1908 28.1902 28.4356 28.1022 28.6053 27.9254C28.7756 27.7485 28.8606 27.5165 28.8606 27.228C28.8606 26.9283 28.7744 26.6933 28.6025 26.5207C28.4298 26.348 28.1831 26.2633 27.8607 26.2633H27.3755ZM26.617 25.7051H27.9587C28.4771 25.7051 28.8868 25.8466 29.1876 26.1314C29.4891 26.4148 29.6402 26.7814 29.6402 27.2314C29.6402 27.7037 29.4871 28.074 29.1814 28.3434C28.8763 28.6127 28.4403 28.7477 27.874 28.7477H26.617V25.7051ZM30.9809 28.7476H30.223V25.7062H30.9809V28.7476ZM33.2958 28.1553C33.5827 28.1553 33.8147 28.0698 33.99 27.8996C34.1659 27.7282 34.254 27.5053 34.254 27.228C34.254 26.9486 34.1659 26.7245 33.99 26.5547C33.8147 26.3849 33.5827 26.2998 33.2958 26.2998C33.007 26.2998 32.7741 26.3849 32.5978 26.5547C32.4208 26.7245 32.3332 26.9486 32.3332 27.228C32.3332 27.5053 32.4208 27.7282 32.5978 27.8996C32.7741 28.0698 33.007 28.1553 33.2958 28.1553ZM33.2958 25.6664C33.8139 25.6664 34.2332 25.8225 34.554 26.1355C34.8752 26.4481 35.0352 26.8129 35.0352 27.228C35.0352 27.6477 34.8724 28.0134 34.5478 28.323C34.2223 28.6323 33.8048 28.7871 33.2958 28.7871C32.7803 28.7871 32.3606 28.6331 32.0374 28.3251C31.7131 28.0171 31.5517 27.6514 31.5517 27.228C31.5517 26.8113 31.7123 26.4464 32.0339 26.1338C32.3553 25.8225 32.7757 25.6664 33.2958 25.6664ZM27.3074 19.0634H24.7018C24.7018 19.0634 24.6956 19.0644 24.6864 19.066V19.0677H24.674C24.5661 19.0862 24.1568 19.1746 23.8911 19.5079C23.6118 19.8554 22.5728 21.1304 22.5728 21.1304C22.5728 21.1304 22.3977 21.3814 22.2299 21.3814C22.0627 21.3814 21.8871 21.1304 21.8871 21.1304C21.8871 21.1304 20.8481 19.8554 20.5692 19.5079C20.3023 19.1746 19.8938 19.0862 19.7859 19.0677H19.7734V19.066C19.7643 19.0644 19.7581 19.0634 19.7581 19.0634H17.1526C16.9724 19.0696 16.9359 19.2114 16.9297 19.2777V25.0496C16.9359 25.1177 16.9724 25.2605 17.1555 25.265H18.6274C18.8669 25.2588 18.8548 25.0147 18.8548 25.0147L18.8553 25.033V21.3061C18.8553 21.0394 18.9242 20.818 19.4269 20.818C19.8967 20.818 20.2276 21.2013 20.2691 21.252C20.6331 21.7025 21.3831 22.6302 21.6056 22.898C21.851 23.1937 22.1382 23.2243 22.2299 23.2261C22.3217 23.2243 22.6085 23.1937 22.8547 22.898C23.0767 22.6302 23.8264 21.7025 24.1913 21.252C24.2324 21.2013 24.5632 20.818 25.0331 20.818C25.5357 20.818 25.6042 21.0394 25.6042 21.3061V25.033L25.605 25.0147C25.605 25.0147 25.5934 25.2588 25.8321 25.265H27.305C27.4879 25.2605 27.5236 25.1177 27.5302 25.0496V19.2777C27.5236 19.2114 27.4879 19.0696 27.3074 19.0634ZM27.5768 17.7612C27.5768 18.2925 27.1464 18.7222 26.6158 18.7222C26.0848 18.7222 25.6548 18.2925 25.6548 17.7612C25.6548 17.2303 26.0848 16.8003 26.6158 16.8003C27.1464 16.8003 27.5768 17.2303 27.5768 17.7612Z" fill="white"/>
<path d="M13.8189 14.1417C13.6487 14.4074 13.244 15.1035 13.1602 15.8066C14.5935 16.1985 15.647 17.5093 15.647 19.0667C15.647 20.9342 14.1331 22.4481 12.2656 22.4481C10.3986 22.4481 8.88474 20.9342 8.88474 19.0667C8.88474 17.1992 10.3986 15.6854 12.2656 15.6854C12.5695 15.6854 12.9447 15.7326 13.2249 15.8079C13.4461 15.5549 14.107 14.5547 13.9389 14.2048C13.2319 13.7077 11.8987 13.3848 10.9332 13.3848C7.67598 13.3848 5.03516 16.0318 5.03516 19.2977C5.03516 22.5627 7.67598 25.2097 10.9332 25.2097C14.19 25.2097 16.8304 22.5627 16.8304 19.2977C16.8304 17.0837 15.6159 15.1551 13.8189 14.1417Z" fill="white"/>
<path d="M17.408 12.2104C15.0308 12.2104 13.1035 14.1373 13.1035 16.5149C13.1035 18.4954 14.4418 20.1624 16.2628 20.6638C16.049 20.5824 15.8298 20.4755 15.6804 20.34C15.8456 19.829 15.8751 19.2881 15.8801 19.0528C14.8029 18.7876 14.003 17.8179 14.003 16.6588C14.003 15.2958 15.1084 14.1906 16.4708 14.1906C17.8339 14.1906 18.9389 15.2958 18.9389 16.6588C18.9389 17.8642 18.0738 18.8664 16.9311 19.0825V20.7914C17.0876 20.809 17.2465 20.8186 17.408 20.8186C19.7848 20.8186 21.7117 18.8918 21.7117 16.5149C21.7117 14.1373 19.7848 12.2104 17.408 12.2104Z" fill="white"/>
<path d="M17.408 12.2104C15.0308 12.2104 13.1035 14.1373 13.1035 16.5149C13.1035 18.4954 14.4418 20.1624 16.2628 20.6638C17.782 21.1073 18.0431 20.438 17.8941 20.3022C18.0589 19.7913 17.1648 19.0545 16.9311 19.0825C14.9187 19.3222 14.003 17.8179 14.003 16.6588C14.003 15.2958 15.1084 14.1906 16.4708 14.1906C17.8339 14.1906 18.9389 15.2958 18.9389 16.6588C18.9389 17.8642 18.0738 18.8664 16.9311 19.0825V20.7914C17.0876 20.809 17.2465 20.8186 17.408 20.8186C19.7848 20.8186 21.7117 18.8918 21.7117 16.5149C21.7117 14.1373 19.7848 12.2104 17.408 12.2104Z" fill="white"/>
<path d="M16.8302 19.2978C16.8302 18.9882 16.8057 18.6845 16.7605 18.3877L15.6024 18.5262C15.6306 18.7028 15.6464 18.8831 15.6464 19.0668C15.6464 19.781 15.4252 20.4424 15.0479 20.9877L16.333 21.6755C16.6518 20.9474 16.8302 20.144 16.8302 19.2978Z" fill="white"/>
<circle cx="20" cy="20" r="19.5" stroke="black" stroke-opacity="0.05"/>
</svg>
