<svg width="40" height="40" viewBox="0 0 40 40" fill="none" xmlns="http://www.w3.org/2000/svg">
<circle cx="20" cy="20" r="20" fill="#FF6B01"/>
<path d="M35.1762 17H36.0005V17.0164L35.2252 21.4073C35.225 21.41 35.2242 21.4126 35.223 21.415C35.2217 21.4174 35.22 21.4196 35.218 21.4213C35.2159 21.4231 35.2135 21.4244 35.2109 21.4252C35.2083 21.426 35.2056 21.4262 35.2029 21.426H34.0361C34.0344 21.426 34.0328 21.4256 34.0312 21.425C34.0297 21.4243 34.0283 21.4234 34.0271 21.4222C34.026 21.421 34.025 21.4196 34.0244 21.4181C34.0238 21.4165 34.0235 21.4149 34.0235 21.4132C34.0234 21.4125 34.0234 21.4118 34.0235 21.4111C34.261 20.0628 34.4984 18.7146 34.7355 17.3665C34.7569 17.2446 34.7998 17.1448 34.9052 17.0741C34.9717 17.0296 35.062 17.0049 35.1762 17Z" fill="white"/>
<path d="M4.75656 17.2591C4.84311 17.1056 5.00131 17.0251 5.17621 17.0245C5.53679 17.0234 5.87883 17.023 6.20232 17.0233C6.21165 17.0233 6.21541 17.0281 6.21378 17.037L5.66701 20.1519C5.66687 20.1538 5.66636 20.1556 5.6655 20.1573C5.66465 20.1589 5.66348 20.1604 5.66205 20.1616C5.66062 20.1628 5.65896 20.1638 5.65718 20.1643C5.65539 20.1649 5.65351 20.1651 5.65164 20.165H4.23074C4.2281 20.165 4.22556 20.1639 4.22369 20.1621C4.22182 20.1602 4.22076 20.1576 4.22076 20.155C4.22068 20.1544 4.22068 20.1538 4.22076 20.1532C4.37913 19.2637 4.5369 18.37 4.69407 17.4719C4.7113 17.3734 4.73213 17.3025 4.75656 17.2591Z" fill="white"/>
<path d="M10.2155 18.7629C10.0303 18.7372 9.79916 18.7553 9.66059 18.8831C9.627 18.9146 9.59264 18.9468 9.55752 18.9795C9.47572 19.0557 9.36234 19.0703 9.25535 19.0701C8.98039 19.0701 8.69326 19.0705 8.39398 19.0713C8.39207 19.0713 8.39024 19.0705 8.38889 19.0692C8.38754 19.0678 8.38678 19.066 8.38678 19.0641C8.3867 19.0635 8.3867 19.063 8.38678 19.0624C8.53402 18.4224 9.10058 18.1893 9.68808 18.115C9.98821 18.0794 10.2909 18.0701 10.5926 18.0872C10.7728 18.095 10.9516 18.1215 11.1263 18.1664C11.3226 18.2179 11.5201 18.3149 11.6196 18.4918C11.7123 18.6567 11.7186 18.8844 11.6886 19.0747C11.6886 19.0757 11.6883 19.0767 11.6878 19.0776C11.6874 19.0785 11.6868 19.0792 11.686 19.0799C11.6852 19.0805 11.6843 19.081 11.6834 19.0813C11.6824 19.0816 11.6814 19.0817 11.6804 19.0816H10.5189C10.5125 19.0816 10.5097 19.0785 10.5105 19.0721C10.5316 18.879 10.3878 18.7868 10.2155 18.7629Z" fill="white"/>
<path d="M14.1403 18.8244C14.0475 18.8048 13.9527 18.7969 13.8579 18.8008C13.6943 18.8056 13.4489 18.8609 13.4304 19.0667C13.43 19.0707 13.4281 19.0744 13.4251 19.0771C13.422 19.0798 13.4181 19.0813 13.4141 19.0812H12.3575C12.3562 19.0812 12.355 19.081 12.3538 19.0805C12.3526 19.08 12.3515 19.0793 12.3506 19.0784C12.3497 19.0775 12.349 19.0764 12.3485 19.0752C12.348 19.074 12.3477 19.0727 12.3477 19.0714C12.3476 19.0706 12.3476 19.0698 12.3477 19.069C12.4326 18.7305 12.6556 18.4887 12.9694 18.3328C13.3244 18.1559 13.7279 18.1132 14.1364 18.1201C14.3242 18.1212 14.5109 18.149 14.6908 18.2027C15.1326 18.34 15.4467 18.6266 15.4925 19.11C15.4928 19.113 15.4919 19.116 15.49 19.1183C15.4881 19.1206 15.4853 19.122 15.4823 19.1223H15.4812C15.2066 19.1196 14.9334 19.1173 14.6617 19.1154C14.5591 19.1154 14.4654 19.0768 14.4 18.9986C14.3324 18.914 14.2501 18.8486 14.1403 18.8244Z" fill="white"/>
<path d="M23.3969 20.0053C23.0491 19.8718 22.8281 19.5774 22.8605 19.1921C22.8824 18.9336 23.0303 18.6782 23.2243 18.5149C23.6333 18.1714 24.217 18.1023 24.7308 18.1223C25.0447 18.1345 25.3353 18.2078 25.592 18.3734C25.8524 18.5416 26.001 18.7976 26.0267 19.1142C26.0267 19.1152 26.0266 19.1161 26.0263 19.1171C26.026 19.118 26.0255 19.1188 26.0249 19.1196C26.0242 19.1203 26.0234 19.1209 26.0226 19.1213C26.0217 19.1217 26.0208 19.122 26.0198 19.1221C25.7626 19.1203 25.4806 19.1178 25.1738 19.1145C25.1281 19.1131 25.0832 19.1019 25.0421 19.0818C25.001 19.0617 24.9646 19.0331 24.9354 18.9979C24.8674 18.9112 24.7738 18.8439 24.6678 18.8228C24.4891 18.787 24.229 18.7782 24.0759 18.8871C23.8898 19.0195 23.9504 19.239 24.1564 19.305C24.2515 19.3354 24.3488 19.3585 24.4474 19.374C24.7304 19.4182 24.993 19.4579 25.2633 19.554C25.5718 19.6629 25.7727 19.8725 25.8011 20.2108C25.8591 20.9037 25.2392 21.3397 24.6339 21.466C24.3642 21.5209 24.0887 21.5422 23.8138 21.5295C23.523 21.5174 23.2022 21.4477 22.9617 21.2841C22.6928 21.1015 22.5097 20.7892 22.5242 20.4592C22.5242 20.4584 22.5243 20.4576 22.5246 20.4568C22.5249 20.4561 22.5253 20.4554 22.5259 20.4549C22.5265 20.4543 22.5272 20.4539 22.528 20.4537C22.5287 20.4534 22.5295 20.4534 22.5303 20.4535C22.7684 20.4541 23.0138 20.4541 23.2665 20.4535C23.3478 20.4521 23.4285 20.4671 23.5039 20.4975C23.5769 20.5277 23.6147 20.5748 23.6543 20.6382C23.7894 20.8548 24.1742 20.8535 24.3762 20.7815C24.5508 20.7193 24.6694 20.604 24.6246 20.4078C24.619 20.38 24.6066 20.3541 24.5886 20.3322C24.5706 20.3104 24.5474 20.2934 24.5212 20.2827C24.3789 20.22 24.1894 20.1961 24.0255 20.1698C23.8108 20.1369 23.6002 20.0818 23.3969 20.0053Z" fill="white"/>
<path d="M28.6564 18.996C28.5564 18.8715 28.4425 18.8193 28.2824 18.8058C28.1544 18.7948 28.0067 18.7948 27.8855 18.8409C27.7497 18.8928 27.6401 19.0185 27.7089 19.167C27.7382 19.2304 27.7919 19.2751 27.8701 19.3013C27.9611 19.3321 28.0546 19.3551 28.1495 19.3699C28.4306 19.414 28.7189 19.4567 28.9857 19.5525C29.0588 19.5787 29.1292 19.6122 29.1956 19.6526C29.5544 19.8697 29.5999 20.35 29.4461 20.6957C29.3126 20.9958 29.0161 21.2315 28.7126 21.356C28.5498 21.4221 28.3795 21.4681 28.2055 21.4929C27.5594 21.5888 26.6645 21.5631 26.3342 20.8763C26.2723 20.7487 26.2422 20.608 26.2465 20.4662C26.2463 20.4644 26.2465 20.4627 26.2471 20.461C26.2477 20.4593 26.2487 20.4578 26.2499 20.4566C26.2512 20.4554 26.2527 20.4545 26.2544 20.4539C26.2561 20.4533 26.2578 20.4532 26.2596 20.4534C26.4816 20.4534 26.7154 20.4534 26.9609 20.4534C27.0845 20.4534 27.2317 20.4714 27.3165 20.5578C27.3398 20.5824 27.3603 20.6096 27.3776 20.6388C27.491 20.824 27.7866 20.8433 27.9761 20.8138C28.1786 20.7823 28.4075 20.6597 28.3483 20.4101C28.3322 20.342 28.288 20.2955 28.2159 20.2707C28.1216 20.2388 28.0246 20.2152 27.9262 20.2C27.6178 20.1509 27.3065 20.0938 27.0334 19.9664C26.6408 19.7825 26.4806 19.3486 26.6426 18.9443C26.7252 18.7335 26.8715 18.5536 27.0611 18.4296C27.2901 18.278 27.5556 18.1911 27.83 18.1525C28.0814 18.1166 28.336 18.1097 28.589 18.1317C28.7944 18.1489 28.9949 18.2043 29.1799 18.2953C29.5146 18.4611 29.7188 18.7292 29.7507 19.1148C29.7508 19.1157 29.7507 19.1166 29.7504 19.1174C29.7502 19.1182 29.7498 19.119 29.7492 19.1197C29.7486 19.1204 29.7479 19.1209 29.7472 19.1213C29.7464 19.1217 29.7455 19.122 29.7447 19.122H29.7438C29.4545 19.1193 29.1759 19.1168 28.9081 19.1147C28.8601 19.1144 28.8126 19.1036 28.7692 19.0831C28.7257 19.0627 28.6872 19.0329 28.6564 18.996Z" fill="white"/>
<path d="M18.7806 18.2825C19.1306 18.4375 19.3567 18.7 19.4589 19.07C19.4595 19.0723 19.4592 19.0747 19.458 19.0768C19.4568 19.0789 19.4549 19.0804 19.4526 19.0811H19.4502H18.3347C18.3316 19.0811 18.3285 19.0802 18.3258 19.0786C18.3231 19.0769 18.321 19.0745 18.3197 19.0716C18.2542 18.9407 18.1129 18.8691 17.9714 18.8448C17.6979 18.7978 17.464 18.8709 17.2697 19.0639C17.2641 19.0694 17.2574 19.0736 17.2501 19.0764C17.2428 19.0792 17.235 19.0805 17.2271 19.0803C16.8563 19.0803 16.484 19.0803 16.1102 19.0803C16.1084 19.0803 16.1067 19.0796 16.1055 19.0783C16.1042 19.077 16.1035 19.0753 16.1035 19.0736C16.1035 19.0724 16.1038 19.0713 16.1043 19.0703C16.1199 19.0419 16.1374 19.0145 16.1567 18.9885C16.4553 18.5869 16.8463 18.3251 17.3297 18.2032C17.7295 18.1029 18.1477 18.1015 18.5481 18.1993C18.628 18.2198 18.7058 18.2476 18.7806 18.2825Z" fill="white"/>
<path d="M31.7353 21.6136H31.4909C31.3341 21.6061 31.1784 21.5842 31.0257 21.5481C30.548 21.4336 30.175 21.1201 30.0544 20.637C30.0114 20.4625 29.998 20.2821 30.0148 20.1032C30.106 19.0898 30.8206 18.2913 31.8433 18.1563C32.1814 18.1117 32.5005 18.1258 32.8005 18.1985C32.9839 18.2421 33.1565 18.3227 33.3077 18.4354C33.8369 18.8418 33.8518 19.5787 33.7065 20.1696C33.7057 20.1728 33.7039 20.1757 33.7013 20.1777C33.6987 20.1798 33.6955 20.1809 33.6922 20.1809H31.1285C31.1271 20.1809 31.1259 20.1814 31.1249 20.1824C31.124 20.1833 31.1234 20.1846 31.1234 20.186C31.1198 20.4238 31.1916 20.692 31.387 20.8404C31.6211 21.0193 31.9447 20.9996 32.1873 20.8433C32.2162 20.8247 32.2746 20.7823 32.3624 20.7162C32.4482 20.6513 32.5478 20.607 32.6534 20.5866C32.7172 20.578 32.7815 20.5744 32.8458 20.5758C33.0825 20.5745 33.3185 20.5745 33.5539 20.5758C33.5556 20.5758 33.5573 20.5765 33.5585 20.5777C33.5598 20.579 33.5605 20.5806 33.5605 20.5824C33.5606 20.5833 33.5606 20.5842 33.5605 20.5851C33.3388 21.0902 32.8625 21.3901 32.3431 21.5221C32.144 21.5728 31.9404 21.6034 31.7353 21.6136ZM31.6474 18.9678C31.4433 19.1114 31.3158 19.339 31.2319 19.5693C31.2318 19.5697 31.2317 19.57 31.2317 19.5704C31.2317 19.5707 31.2318 19.5711 31.232 19.5714C31.2321 19.5717 31.2323 19.572 31.2326 19.5722C31.2329 19.5725 31.2332 19.5727 31.2335 19.5728H32.6088C32.6118 19.5728 32.6148 19.5718 32.6173 19.5699C32.6197 19.568 32.6213 19.5653 32.622 19.5623C32.6821 19.3005 32.6579 18.9897 32.3622 18.8806C32.2449 18.8363 32.1186 18.821 31.9941 18.8362C31.8696 18.8514 31.7507 18.8966 31.6474 18.9678Z" fill="white"/>
<path d="M21.3477 18.8044C21.3478 18.8047 21.3479 18.805 21.3481 18.8053C21.3484 18.8055 21.3486 18.8057 21.3489 18.8059C21.3492 18.806 21.3495 18.8061 21.3498 18.8061C21.3502 18.8061 21.3505 18.806 21.3508 18.8059C21.3512 18.806 21.3516 18.806 21.3519 18.8059C21.5326 18.5538 21.7789 18.3561 22.0641 18.2343C22.2328 18.1613 22.4165 18.1245 22.6024 18.1479C22.6032 18.148 22.604 18.1482 22.6047 18.1486C22.6054 18.1491 22.606 18.1496 22.6065 18.1503C22.607 18.1509 22.6074 18.1517 22.6076 18.1525C22.6078 18.1533 22.6079 18.1541 22.6078 18.1549L22.3965 19.3476C22.3961 19.35 22.3947 19.3521 22.3928 19.3535C22.3908 19.3549 22.3883 19.3555 22.3859 19.3551C22.3162 19.3435 22.2486 19.3352 22.1832 19.3301C22.0877 19.3247 21.9919 19.3329 21.8987 19.3544C21.4782 19.4443 21.2724 19.7772 21.1788 20.1698C21.178 20.1735 21.1759 20.1768 21.1729 20.1791C21.1699 20.1813 21.1662 20.1825 21.1625 20.1824H19.9724C19.9699 20.1824 19.9675 20.1814 19.9657 20.1797C19.964 20.1779 19.963 20.1755 19.963 20.173C19.9629 20.1724 19.9629 20.1719 19.963 20.1713C20.0597 19.6204 20.1532 19.0909 20.2434 18.5829C20.2967 18.283 20.5249 18.2315 20.7905 18.2329C20.9854 18.2339 21.1994 18.2339 21.4326 18.2329C21.4343 18.2329 21.436 18.2332 21.4377 18.2339C21.4393 18.2345 21.4407 18.2355 21.442 18.2367C21.4432 18.2379 21.4442 18.2394 21.4448 18.241C21.4455 18.2426 21.4458 18.2443 21.4458 18.246C21.4459 18.2469 21.4459 18.2477 21.4458 18.2485C21.414 18.4247 21.381 18.6051 21.3467 18.7895C21.3459 18.7945 21.3462 18.7996 21.3477 18.8044Z" fill="white"/>
<path d="M10.3639 19.87C10.364 19.8687 10.3637 19.8674 10.3632 19.8663C10.3626 19.8651 10.3617 19.8641 10.3606 19.8634C10.3596 19.8627 10.3583 19.8623 10.3571 19.8622C10.3558 19.862 10.3545 19.8623 10.3533 19.8628C10.157 19.9562 9.95002 20.0028 9.7375 20.0444C9.62623 20.0657 9.51776 20.0997 9.41422 20.1457C9.37725 20.1602 9.33759 20.1667 9.2979 20.1646H8.06532C8.06417 20.1647 8.06304 20.1644 8.06198 20.164C8.06093 20.1635 8.05998 20.1629 8.05918 20.162C8.05839 20.1612 8.05777 20.1602 8.05736 20.1592C8.05695 20.1581 8.05677 20.157 8.05681 20.1558C8.05658 20.1546 8.05658 20.1534 8.05681 20.1522C8.07583 20.1146 8.09817 20.0788 8.12356 20.0452C8.33886 19.7578 8.68406 19.6199 9.03974 19.5487C9.18545 19.5193 9.32359 19.4972 9.45414 19.4823C9.55938 19.4717 9.66513 19.4671 9.77088 19.4685C10.4062 19.4705 11.0238 19.4711 11.6237 19.4703C11.6257 19.4703 11.6277 19.4711 11.6292 19.4726C11.6306 19.474 11.6315 19.476 11.6315 19.478C11.6315 19.478 11.6315 19.479 11.6315 19.4793L11.5162 20.1501C11.5156 20.1546 11.5134 20.1588 11.5099 20.1618C11.5065 20.1648 11.5021 20.1664 11.4975 20.1664H10.336C10.324 20.1664 10.3196 20.1606 10.3219 20.1489C10.3433 20.0572 10.3574 19.964 10.3639 19.87Z" fill="white"/>
<path d="M14.7925 19.5791C15.0663 19.6882 15.2219 19.8857 15.2592 20.1717C15.2594 20.1729 15.2593 20.1741 15.259 20.1752C15.2587 20.1764 15.2582 20.1775 15.2574 20.1784C15.2567 20.1794 15.2558 20.1802 15.2547 20.1808C15.2537 20.1814 15.2526 20.1818 15.2514 20.182H15.2501H13.6338C13.59 20.1819 13.5462 20.1784 13.5029 20.1717C13.2757 20.1389 13.053 20.0797 12.8395 19.9951C12.5887 19.8922 12.4276 19.7208 12.3562 19.4809C12.3541 19.4739 12.3562 19.4705 12.3641 19.4705C13.0277 19.4705 13.6946 19.4705 14.365 19.4705C14.5101 19.4705 14.654 19.524 14.7925 19.5791Z" fill="white"/>
<path d="M16.9785 19.5736L18.3397 19.5711C18.3432 19.5714 18.3468 19.5703 18.3496 19.5681C18.3524 19.5659 18.3543 19.5627 18.3549 19.5592L18.3727 19.4846C18.3732 19.4813 18.3749 19.4783 18.3775 19.4762C18.3802 19.4741 18.3835 19.4731 18.3868 19.4734L19.5081 19.4693C19.5095 19.4691 19.5109 19.4692 19.5122 19.4697C19.5135 19.4701 19.5148 19.4708 19.5158 19.4718C19.5167 19.4727 19.5175 19.4739 19.518 19.4752C19.5184 19.4765 19.5186 19.4779 19.5184 19.4793C19.5236 19.7128 19.498 19.9459 19.4422 20.1727C19.4416 20.175 19.4402 20.177 19.4383 20.1785C19.4364 20.1799 19.4341 20.1807 19.4317 20.1807L15.7616 20.1817C15.7603 20.1817 15.7591 20.1815 15.7579 20.181C15.7567 20.1805 15.7556 20.1798 15.7547 20.1789C15.7538 20.178 15.7531 20.1769 15.7526 20.1757C15.7522 20.1746 15.7519 20.1733 15.752 20.172C15.7567 19.9289 15.811 19.7123 15.8964 19.4765C15.897 19.4748 15.8982 19.4733 15.8997 19.4722C15.9012 19.4711 15.9031 19.4705 15.9049 19.4705H16.9932C16.9953 19.4705 16.9974 19.4713 16.9989 19.4728C17.0004 19.4743 17.0012 19.4764 17.0012 19.4785C17.0014 19.4794 17.0014 19.4804 17.0012 19.4813L16.9708 19.5615C16.9672 19.5696 16.97 19.5736 16.9785 19.5736Z" fill="white"/>
<path d="M12.5821 21.3706C12.231 21.2109 11.9807 20.8569 11.9905 20.464C11.9903 20.4625 11.9905 20.461 11.991 20.4596C11.9916 20.4582 11.9924 20.4569 11.9935 20.4558C11.9946 20.4548 11.9959 20.454 11.9973 20.4536C11.9988 20.4531 12.0003 20.453 12.0018 20.4532C12.2648 20.4541 12.5055 20.4541 12.7239 20.4532C12.8324 20.4532 12.9613 20.473 13.0433 20.5408C13.0903 20.5795 13.1136 20.636 13.1545 20.6802C13.2015 20.7308 13.2611 20.7679 13.3271 20.7878C13.5398 20.8533 13.822 20.8385 14.0033 20.6951C14.0444 20.6608 14.0746 20.6153 14.0902 20.5642C14.0909 20.5613 14.0926 20.5588 14.095 20.557C14.0974 20.5553 14.1003 20.5545 14.1033 20.5547H15.2274C15.2297 20.5547 15.2318 20.5556 15.2334 20.5572C15.235 20.5588 15.2359 20.5609 15.2359 20.5632C15.236 20.5639 15.236 20.5647 15.2359 20.5655C15.1889 20.7289 15.102 20.8781 14.983 20.9997C14.7289 21.2647 14.3973 21.4139 14.0341 21.4794C13.7704 21.5269 13.502 21.5427 13.2346 21.5263C13.0093 21.5151 12.7881 21.4623 12.5821 21.3706Z" fill="white"/>
<path d="M7.41233 21.4233H4.01037C4.00763 21.4233 4.00501 21.4222 4.00308 21.4202C4.00115 21.4183 4.00006 21.4157 4.00006 21.413C3.99998 21.4124 3.99998 21.4118 4.00006 21.4112L4.15352 20.5459C4.15391 20.5435 4.15515 20.5413 4.15701 20.5397C4.15887 20.5382 4.16123 20.5373 4.16366 20.5374H7.56661C7.56934 20.5374 7.57196 20.5384 7.57389 20.5404C7.57583 20.5423 7.57691 20.5449 7.57691 20.5477C7.57699 20.5483 7.57699 20.5489 7.57691 20.5495L7.42198 21.4151C7.42154 21.4173 7.42034 21.4194 7.41859 21.4209C7.41683 21.4224 7.41463 21.4232 7.41233 21.4233Z" fill="white"/>
<path d="M10.1723 20.9973C10.1726 20.9956 10.1721 20.9938 10.1711 20.9924C10.17 20.9909 10.1685 20.99 10.1667 20.9896C10.165 20.9894 10.1632 20.9899 10.1618 20.991C10.112 21.0289 10.0611 21.0662 10.009 21.1029C9.62751 21.3721 9.1812 21.4628 8.72197 21.4286C8.40458 21.4054 8.05709 21.2676 7.94764 20.9397C7.90903 20.8241 7.90025 20.6936 7.9213 20.5481C7.92138 20.5466 7.92177 20.5451 7.92244 20.5437C7.92312 20.5423 7.92407 20.5411 7.92523 20.5401C7.9264 20.5391 7.92775 20.5384 7.92921 20.5379C7.93067 20.5374 7.93221 20.5373 7.93373 20.5374H9.16484C9.16658 20.5375 9.16824 20.5382 9.16949 20.5394C9.17073 20.5406 9.17147 20.5423 9.17155 20.544C9.18071 20.729 9.37638 20.7923 9.52952 20.802C9.77634 20.8176 9.97664 20.7347 10.1304 20.5533C10.1364 20.5477 10.1435 20.5434 10.1513 20.5405C10.159 20.5377 10.1672 20.5365 10.1754 20.537H11.4409C11.4427 20.537 11.4445 20.5377 11.4457 20.539C11.447 20.5403 11.4478 20.542 11.4478 20.5438C11.4478 20.5438 11.4478 20.5438 11.4478 20.5451L11.3048 21.3753C11.3044 21.3776 11.3032 21.3797 11.3015 21.3814C11.2997 21.383 11.2975 21.384 11.2951 21.3843C11.2721 21.3864 11.2493 21.3875 11.2269 21.3874C10.8494 21.3854 10.4826 21.3849 10.1263 21.3857C10.116 21.3857 10.1118 21.3808 10.1134 21.3705L10.1723 20.9973Z" fill="white"/>
<path d="M17.4614 21.6135H17.2286C17.0594 21.606 16.8915 21.5812 16.7273 21.5394C16.2365 21.4125 15.8792 21.0727 15.7758 20.5683C15.774 20.5589 15.7778 20.5542 15.7873 20.5542H16.9107C16.9134 20.5542 16.916 20.555 16.9182 20.5565C16.9204 20.558 16.9221 20.5601 16.9232 20.5625C16.9826 20.7117 17.0765 20.8325 17.2188 20.9004C17.3311 20.9531 17.4552 20.9755 17.5789 20.9654C17.7025 20.9553 17.8214 20.913 17.9236 20.8428C18.0687 20.7446 18.1909 20.6288 18.3653 20.5928C18.435 20.581 18.5056 20.5758 18.5762 20.5774C18.8124 20.5745 19.0502 20.5745 19.2897 20.5774C19.2905 20.5774 19.2913 20.5776 19.2921 20.5779C19.2928 20.5782 19.2935 20.5787 19.2941 20.5793C19.2947 20.5799 19.2951 20.5806 19.2954 20.5814C19.2957 20.5822 19.2958 20.583 19.2957 20.5838C19.2959 20.5846 19.2959 20.5853 19.2957 20.5861C19.1158 20.9964 18.765 21.279 18.3468 21.4368C18.0631 21.543 17.7641 21.6026 17.4614 21.6135Z" fill="white"/>
<path d="M19.9031 20.5542H21.0884C21.0912 20.5542 21.0938 20.5553 21.0958 20.5573C21.0978 20.5592 21.0989 20.5619 21.0989 20.5647C21.0989 20.5653 21.0989 20.5659 21.0989 20.5665L20.9467 21.4321C20.9463 21.4345 20.9451 21.4368 20.9432 21.4383C20.9413 21.4399 20.9389 21.4408 20.9364 21.4408H19.7508C19.748 21.4408 19.7453 21.4397 19.7434 21.4377C19.7414 21.4357 19.7403 21.4331 19.7403 21.4303C19.7402 21.4297 19.7402 21.4291 19.7403 21.4285L19.8928 20.5624C19.8933 20.56 19.8946 20.5579 19.8965 20.5564C19.8983 20.5549 19.9007 20.5542 19.9031 20.5542Z" fill="white"/>
<circle cx="20" cy="20" r="19.5" stroke="black" stroke-opacity="0.05"/>
</svg>
