<svg width="40" height="40" viewBox="0 0 40 40" fill="none" xmlns="http://www.w3.org/2000/svg">
<circle cx="20" cy="20" r="20" fill="#ED1C24"/>
<g clip-path="url(#clip0_22954_39985)">
<path d="M17.8881 12.1055C19.3283 11.6482 20.6913 12.6966 20.6984 14.1952C20.7054 16.0316 20.7124 17.9243 20.7124 19.8804C20.7124 20.8373 20.586 21.569 20.326 22.0616C19.6445 23.3843 17.8951 23.6798 16.4899 23.6798C16.4056 23.6798 16.3635 23.6376 16.3635 23.5532C16.3775 20.6966 16.3705 17.7133 16.3564 14.6104C16.3564 13.4283 16.7007 12.4855 17.8881 12.1126V12.1055Z" fill="white"/>
<path d="M25.8831 18.4381C26.3749 18.8884 26.8667 19.3739 27.3585 19.8945C27.8292 20.3871 27.9346 20.957 27.9346 21.6043C27.9346 22.9552 27.9206 24.3765 27.9206 25.8611C27.9206 27.4161 26.3819 28.2956 24.9908 27.796C23.937 27.4161 23.5997 26.5084 23.6068 25.4319C23.6208 23.8066 23.6278 22.4064 23.6208 21.2314C23.6208 20.1197 24.9135 19.1417 25.6723 18.4029C25.7285 18.3536 25.7285 18.2692 25.6723 18.2129C25.1875 17.7485 24.7168 17.2842 24.2601 16.8128C23.5014 16.0388 23.5505 15.0256 23.6208 13.9843C23.7683 11.8242 26.6208 11.2824 27.6466 13.0836C28.0541 13.8013 27.9908 15.0045 27.8573 15.8136C27.8011 16.1443 27.6185 16.475 27.2953 16.7987C26.8035 17.2982 26.3257 17.7767 25.869 18.227C25.7988 18.2974 25.7988 18.3677 25.869 18.431L25.8831 18.4381Z" fill="white"/>
<path d="M16.3773 25.657C16.3773 26.9305 15.6326 27.8593 14.3047 27.9578C13.4125 28.0211 12.5975 28.0141 11.8598 27.9296C9.69585 27.6834 9.2462 24.7564 11.2275 23.8487C11.4944 23.7291 11.909 23.6658 12.471 23.6658C13.7427 23.6658 15.0003 23.6658 16.2368 23.6658C16.3001 23.6658 16.3492 23.715 16.3563 23.7783C16.3703 24.3905 16.3703 25.0097 16.3703 25.6499L16.3773 25.657Z" fill="white"/>
</g>
<circle cx="20" cy="20" r="19.5" stroke="black" stroke-opacity="0.05"/>
<defs>
<clipPath id="clip0_22954_39985">
<rect width="18" height="16" fill="white" transform="translate(9.96289 12)"/>
</clipPath>
</defs>
</svg>
