<svg width="40" height="40" viewBox="0 0 40 40" fill="none" xmlns="http://www.w3.org/2000/svg">
<circle cx="20" cy="20" r="20" fill="#A91F25"/>
<path d="M15.6151 33.8107C15.7887 34.6895 15.9594 35.0897 16.3232 34.9554C16.5891 34.8546 16.7794 34.4712 16.9613 34.0374C17.1178 33.7363 17.2012 33.4027 17.2048 33.0634C17.1824 32.5848 17.1573 32.1035 17.1293 31.6221C16.5267 31.8451 15.9083 32.0228 15.2793 32.1538C15.3838 32.6539 15.4957 33.2062 15.6151 33.8107Z" fill="white"/>
<path d="M23.2852 8.85434C23.2181 8.67522 23.0529 8.63603 22.7899 8.73399C21.7227 9.1847 20.7403 9.81411 19.8848 10.5952C20.7561 10.7698 21.6167 10.9941 22.4624 11.2669C23.1341 10.0046 23.414 9.19858 23.2852 8.85434Z" fill="white"/>
<path d="M16.9949 29.6128C16.9864 27.1082 17.2939 24.6126 17.9101 22.1849C18.0864 21.4852 18.2935 20.7856 18.5174 20.0803C18.6853 19.5485 18.8663 19.0167 19.0603 18.485C19.7387 16.638 20.5409 14.839 21.4617 13.1002L21.1398 12.9267C20.5726 12.6171 19.9799 12.3568 19.3682 12.1486C19.1069 12.0714 18.8403 12.0134 18.5706 11.9751C18.1718 12.4698 17.8177 12.999 17.5126 13.5564C15.2485 17.7209 13.8939 22.0394 14.031 24.8241C14.0341 25.2825 14.063 25.7404 14.1178 26.1955C14.1709 26.7553 14.4396 28.2022 14.977 30.7127C15.5367 30.4048 16.214 30.055 17.0005 29.694C16.9977 29.666 16.9977 29.6436 16.9949 29.6128Z" fill="white"/>
<path d="M28.7268 14.8241C26.8852 13.0385 24.5286 11.9385 22.4632 11.2668C21.6174 10.9941 20.7568 10.7698 19.8855 10.5952C19.0545 10.4198 18.2132 10.2974 17.3666 10.2285C15.4075 10.3265 15.6118 12.1876 15.6118 12.1876C15.6762 12.4003 15.8917 12.252 15.8917 12.252C16.7476 11.918 17.6778 11.8213 18.5841 11.9721C18.8538 12.0105 19.1204 12.0685 19.3817 12.1457C19.9934 12.3538 20.5862 12.6141 21.1533 12.9237L21.4752 13.0972C23.202 14.0348 25.2535 15.3166 25.2535 15.3166C26.2107 15.9352 25.956 16.4669 25.956 16.4669C25.6593 17.5528 20.4565 18.3057 19.0627 18.4876C18.8761 19.0194 18.6951 19.5511 18.5197 20.0829C22.1861 20.4775 24.4447 23.5505 24.4447 23.5505C24.6534 23.8289 24.7786 24.1609 24.8057 24.5077C24.6798 26.5088 18.4246 29.0837 18.4246 29.0837C17.9208 29.2852 17.4506 29.4895 17.0252 29.691C16.2387 30.052 15.5558 30.4019 15.0017 30.7097C14.4116 31.0309 13.8389 31.3831 13.2861 31.7649C12.6899 32.2966 13.2105 32.3246 13.2105 32.3246C13.9125 32.3673 14.617 32.3127 15.304 32.1623C15.933 32.0313 16.5514 31.8535 17.1539 31.6305C21.6711 29.9961 26.2639 26.103 26.2639 26.103C28.0523 24.5693 28.083 23.6765 28.083 23.6765C28.0187 20.9001 22.466 19.4308 22.466 19.4308C24.705 18.6255 26.8129 17.4937 28.7212 16.0723C29.3453 15.4874 28.7268 14.8241 28.7268 14.8241Z" fill="white"/>
<path d="M22.267 7.69581C21.8416 8.65858 20.8508 9.15395 20.056 8.8153C19.2611 8.47666 18.9589 7.39914 19.3843 6.43637C19.8097 5.4736 20.7836 4.97822 21.5925 5.31687C22.4013 5.65552 22.6896 6.73304 22.267 7.69581Z" fill="white"/>
<circle cx="20" cy="20" r="19.5" stroke="black" stroke-opacity="0.05"/>
</svg>
