<svg width="40" height="40" viewBox="0 0 40 40" fill="none" xmlns="http://www.w3.org/2000/svg">
<circle cx="20" cy="20" r="20" fill="#0C2039"/>
<g clip-path="url(#clip0_14382_21510)">
<path d="M5.06567 19.2484V21.4967H6.37858V20.2626C6.37858 19.0547 6.37858 19.0284 6.43767 19.1039C6.47049 19.1466 6.60178 19.3304 6.72322 19.5109C6.84467 19.6915 7.01206 19.9311 7.08756 20.0427C7.55036 20.709 7.84576 21.1422 7.95079 21.3063L8.06896 21.4967H9.36546V17H8.08537V18.2144C8.08537 18.8807 8.07224 19.4289 8.05911 19.4289C8.03613 19.4289 7.59959 18.8184 7.47815 18.6149C7.46174 18.5853 7.36983 18.4573 7.28121 18.3293C7.19259 18.2013 7.04489 17.988 6.95298 17.8534C6.86108 17.7188 6.7823 17.6007 6.77246 17.5908C6.76261 17.581 6.66742 17.4464 6.56239 17.2856L6.37202 17H5.06567V19.2484Z" fill="white"/>
<path d="M10.186 17.5252V18.0503H22.1335V17H10.186V17.5252ZM13.534 17.3775C13.534 17.4333 13.5536 17.4595 13.593 17.4628C13.6456 17.4661 13.6456 17.4694 13.593 17.4825C13.5471 17.4923 13.534 17.5317 13.534 17.6433C13.534 17.7484 13.5208 17.7877 13.4847 17.7877C13.4552 17.7877 13.4355 17.7582 13.4355 17.7057C13.4355 17.6302 13.4224 17.6236 13.2878 17.6236H13.1401V17.4759C13.1401 17.3676 13.1532 17.3282 13.1893 17.3282C13.2254 17.3282 13.2386 17.3643 13.2386 17.4595C13.2386 17.5842 13.2451 17.5908 13.337 17.5908C13.4289 17.5908 13.4355 17.5842 13.4355 17.4431C13.4355 17.3348 13.4486 17.2954 13.4847 17.2954C13.5143 17.2954 13.534 17.3249 13.534 17.3775ZM15.7331 17.4267C15.7331 17.5219 15.72 17.558 15.6838 17.558C15.6477 17.558 15.6346 17.5219 15.6346 17.4267C15.6346 17.3315 15.6477 17.2954 15.6838 17.2954C15.72 17.2954 15.7331 17.3315 15.7331 17.4267ZM16.7604 17.3217C16.6817 17.3479 16.6948 17.3906 16.7998 17.4562C16.8589 17.4923 16.8556 17.4956 16.767 17.4759C16.7145 17.4628 16.662 17.4398 16.6521 17.4234C16.6423 17.407 16.6029 17.4168 16.5668 17.4431C16.5288 17.4698 16.4848 17.4867 16.4388 17.4923C16.3863 17.4923 16.3961 17.4792 16.4814 17.4267C16.5865 17.3611 16.6259 17.3053 16.5438 17.3381C16.5284 17.3424 16.5123 17.3434 16.4965 17.3412C16.4806 17.3389 16.4655 17.3334 16.4519 17.3249C16.4224 17.3085 16.4814 17.2987 16.6193 17.2987C16.7407 17.302 16.8031 17.3118 16.7604 17.3217ZM17.7024 17.3709C17.7024 17.4464 17.7582 17.5252 17.8075 17.5252C17.8206 17.5252 17.8337 17.4726 17.8337 17.4103C17.8337 17.3381 17.8501 17.2954 17.8764 17.2954C17.9027 17.2954 17.9191 17.3381 17.9191 17.4267C17.9191 17.5514 17.9125 17.558 17.8173 17.558C17.7615 17.558 17.6992 17.5416 17.6762 17.5186C17.6466 17.4891 17.627 17.4891 17.5974 17.5186C17.5754 17.5407 17.5464 17.5547 17.5154 17.558C17.4891 17.558 17.4957 17.535 17.5383 17.4923C17.5741 17.457 17.5972 17.4109 17.604 17.3611C17.604 17.3249 17.627 17.2954 17.6532 17.2954C17.6795 17.2954 17.7024 17.3249 17.7024 17.3709ZM18.7856 17.3282C18.7856 17.3446 18.8151 17.3611 18.8512 17.3611C18.8873 17.3611 18.9169 17.3446 18.9169 17.3282C18.9169 17.3118 18.9399 17.2954 18.9661 17.2954C19.0055 17.2954 19.0154 17.3446 19.0154 17.5416C19.0154 17.7385 19.0055 17.7877 18.9661 17.7877C18.9532 17.7874 18.9408 17.7821 18.9317 17.773C18.9225 17.7638 18.9172 17.7515 18.9169 17.7385C18.9169 17.7024 18.8709 17.6893 18.7298 17.686C18.6248 17.6827 18.5722 17.6729 18.6149 17.6663C18.6937 17.6499 18.7068 17.6236 18.651 17.5678C18.5887 17.5055 18.6445 17.4267 18.7528 17.4267C18.8709 17.4267 18.9235 17.5153 18.8414 17.5744C18.7659 17.6269 18.7725 17.6565 18.8512 17.6565C18.907 17.6565 18.9169 17.6335 18.9169 17.5252V17.3939L18.7462 17.3906C18.651 17.3873 18.5985 17.3807 18.6313 17.3709C18.6642 17.3611 18.6871 17.3414 18.6871 17.3249C18.6871 17.3085 18.7101 17.2954 18.7364 17.2954C18.7626 17.2954 18.7856 17.3085 18.7856 17.3282ZM20.0854 17.3775C20.0788 17.3983 20.079 17.4207 20.0861 17.4414C20.0932 17.4621 20.1068 17.4799 20.1248 17.4923C20.174 17.5186 20.174 17.5219 20.128 17.5252C20.0919 17.5252 20.0788 17.558 20.0854 17.6565C20.0919 17.7549 20.0788 17.7877 20.046 17.7877C20.0197 17.7877 20 17.7582 20 17.7221C20 17.686 19.9803 17.6565 19.9541 17.6565C19.9208 17.6505 19.8906 17.6331 19.8687 17.6072C19.8326 17.5646 19.8195 17.5646 19.7736 17.6007C19.6652 17.6958 19.6259 17.6991 19.6981 17.6105C19.7384 17.5557 19.7633 17.4911 19.7703 17.4234C19.7703 17.3611 19.7867 17.3282 19.8195 17.3282C19.8523 17.3282 19.8687 17.3611 19.8687 17.4201C19.8711 17.4778 19.8944 17.5327 19.9344 17.5744C20 17.6335 20 17.6302 20 17.4661C20 17.3348 20.0132 17.2954 20.0493 17.2954C20.0854 17.2954 20.0952 17.3184 20.0854 17.3775ZM14.3545 17.4103C14.3545 17.4858 14.3677 17.4923 14.4957 17.4956C14.5712 17.4989 14.6007 17.5088 14.5613 17.5153C14.5154 17.5252 14.4858 17.5547 14.4858 17.5908C14.4858 17.6368 14.5154 17.6565 14.6105 17.6663C14.6762 17.6729 14.6073 17.6794 14.453 17.6794C14.2987 17.6794 14.2232 17.6729 14.2823 17.6663C14.3611 17.6565 14.3873 17.6368 14.3873 17.5875C14.388 17.5795 14.3869 17.5713 14.3842 17.5637C14.3815 17.5561 14.3773 17.5491 14.3717 17.5432C14.3661 17.5373 14.3594 17.5327 14.3519 17.5296C14.3444 17.5264 14.3364 17.525 14.3283 17.5252C14.2889 17.5252 14.2692 17.4989 14.2692 17.4267C14.2659 17.3643 14.279 17.3282 14.3086 17.3282C14.3381 17.3282 14.3545 17.3611 14.3545 17.4103ZM15.5033 17.3545L15.3884 17.3709L15.4869 17.3939L15.5854 17.4201L15.4968 17.4234C15.3687 17.4267 15.3819 17.4858 15.5132 17.5022C15.6051 17.512 15.5985 17.5153 15.4803 17.5186C15.3458 17.5252 15.3392 17.5219 15.3392 17.4267C15.3392 17.3315 15.3458 17.3282 15.4803 17.3348C15.6149 17.3414 15.6149 17.3381 15.5033 17.3545ZM16.7933 17.581C16.6981 17.5941 16.6849 17.6072 16.6849 17.6926C16.6849 17.7549 16.6685 17.7877 16.6357 17.7877C16.6029 17.7877 16.5865 17.7549 16.5865 17.6926C16.5865 17.6039 16.5733 17.5941 16.465 17.581C16.3961 17.5744 16.465 17.5678 16.6193 17.5678C16.7736 17.5678 16.8491 17.5744 16.7933 17.581ZM15.7331 17.6729C15.7331 17.7484 15.7232 17.7549 15.569 17.7549C15.4147 17.7549 15.4049 17.7484 15.4049 17.6729C15.4049 17.5974 15.4147 17.5908 15.569 17.5908C15.7232 17.5908 15.7331 17.5974 15.7331 17.6729ZM17.9158 17.6794C17.9158 17.7254 17.8961 17.7713 17.8764 17.7812C17.8501 17.7877 17.8337 17.7615 17.8337 17.709C17.8337 17.6368 17.8173 17.6269 17.6959 17.6138C17.5679 17.6039 17.5712 17.6007 17.7353 17.5974C17.9125 17.5908 17.9191 17.5941 17.9158 17.6794Z" fill="white"/>
<path d="M18.7101 17.4792C18.6839 17.5055 18.7134 17.558 18.7561 17.558C18.7725 17.558 18.7856 17.535 18.7856 17.5088C18.7856 17.4595 18.7462 17.4431 18.7101 17.4792Z" fill="white"/>
<path d="M15.4705 17.6728C15.4705 17.7023 15.5 17.722 15.5525 17.722C15.605 17.722 15.6346 17.7023 15.6346 17.6728C15.6346 17.6432 15.605 17.6235 15.5525 17.6235C15.5 17.6235 15.4705 17.6432 15.4705 17.6728Z" fill="white"/>
<path d="M22.593 17.5416V18.0832L23.3086 18.0897L24.0208 18.0996L24.0307 19.7965L24.0372 21.4967H25.4158V18.0832H26.8272V17H22.593V17.5416Z" fill="white"/>
<path d="M27.5164 19.2484V21.4967H28.9277V17H27.5164V19.2484Z" fill="white"/>
<path d="M29.9124 19.2484V21.4967L30.4802 21.4902L31.0447 21.4803L31.0612 19.8293L31.0776 18.1783L31.1957 18.6477C31.2614 18.907 31.455 19.6521 31.6224 20.3085L31.9277 21.4967H32.9649L32.9846 21.4048C32.9977 21.3556 33.0272 21.2341 33.0535 21.1357C33.0994 20.9519 33.3555 19.9639 33.6509 18.8085C33.7428 18.4606 33.8215 18.1652 33.8314 18.1554C33.8412 18.1455 33.8511 18.8939 33.8511 19.8162V21.4967H34.9671V17L34.0579 17.0066L33.1454 17.0164L33.0666 17.3282C33.0207 17.4989 32.8664 18.1061 32.7187 18.674C32.4594 19.6685 32.4463 19.7046 32.4134 19.5766C32.2526 18.9694 31.7504 17.0295 31.7504 17.0164C31.7504 17.0033 31.3369 17 30.8314 17H29.9124V19.2484Z" fill="white"/>
<path d="M11.5283 18.1849C11.3571 18.1973 11.1871 18.2226 11.0196 18.2603C10.7898 18.3293 10.5207 18.4967 10.4025 18.6477C10.3205 18.756 10.1629 19.1236 10.1892 19.1466C10.1957 19.1564 10.4616 19.1859 10.7734 19.2188C11.3216 19.2746 11.3478 19.2746 11.3806 19.2188C11.5316 18.966 11.6563 18.9037 12.0174 18.9037C12.257 18.9037 12.2865 18.9102 12.3653 18.9923C12.4375 19.0645 12.4507 19.1039 12.4441 19.2089C12.4342 19.3369 12.4277 19.3435 12.2669 19.396C12.1782 19.4288 11.8828 19.501 11.6104 19.5568C10.5404 19.7866 10.2975 19.9113 10.1432 20.3085C10.0865 20.4638 10.0737 20.6317 10.1061 20.7938C10.1385 20.9559 10.215 21.106 10.327 21.2275C10.606 21.5196 11.1574 21.6345 11.7286 21.5131C11.9622 21.4715 12.1814 21.3709 12.3653 21.221C12.5426 21.0831 12.5491 21.0831 12.5491 21.1684C12.5588 21.2376 12.581 21.3043 12.6148 21.3654L12.6804 21.4967H13.8227L13.7537 21.326C13.6914 21.1652 13.6815 21.07 13.6651 20.1017C13.6487 19.1203 13.6421 19.0382 13.5732 18.8708C13.3795 18.3785 13.0086 18.2013 12.1388 18.175C11.978 18.1684 11.7023 18.175 11.5283 18.1849ZM12.4146 20.4562C12.3653 20.6105 12.1684 20.791 12.001 20.8369C11.9031 20.8602 11.8029 20.8723 11.7023 20.873C11.5513 20.873 11.5119 20.8599 11.4299 20.7779C11.3544 20.7024 11.3347 20.6531 11.3347 20.5448C11.3347 20.3544 11.4496 20.2527 11.7614 20.1542C11.896 20.1115 12.1027 20.0459 12.2209 20.0065L12.4342 19.9376L12.4441 20.1345C12.4509 20.2426 12.4409 20.3511 12.4146 20.4562Z" fill="white"/>
<path d="M16.4946 18.1848C16.255 18.2242 16.0154 18.3555 15.7922 18.5689L15.6018 18.7494V18.2472H14.4202L14.4267 19.8621L14.4366 21.4802L15.0536 21.4901L15.6674 21.4967V20.6498C15.6674 19.5503 15.7035 19.3599 15.9267 19.2089C16.0014 19.164 16.0862 19.1383 16.1733 19.1343C16.2604 19.1303 16.3471 19.1481 16.4256 19.1859C16.6226 19.2844 16.6357 19.3697 16.639 20.4463C16.639 20.9781 16.6423 21.4343 16.6455 21.454C16.6521 21.4868 16.7998 21.4967 17.2626 21.4967H17.8698L17.86 20.2231L17.8501 18.9529L17.755 18.7461C17.7024 18.6345 17.6073 18.4934 17.5416 18.4376C17.2922 18.2177 16.8852 18.1192 16.4946 18.1848Z" fill="white"/>
<path d="M20.0822 18.1849C19.6161 18.2276 19.2747 18.3818 18.9629 18.6904C18.4771 19.1728 18.3458 19.977 18.6511 20.6105C18.7824 20.8829 19.1106 21.2111 19.3896 21.349C19.9574 21.628 20.7452 21.628 21.3327 21.349C21.9498 21.0536 22.3075 20.3315 22.2025 19.5995C22.1566 19.2812 21.9662 18.8807 21.7561 18.6707C21.3918 18.2998 20.7813 18.1225 20.0822 18.1849ZM20.6894 19.1138C20.9881 19.3107 21.08 19.9869 20.8666 20.4332C20.732 20.7155 20.3119 20.8173 20.0362 20.6335C19.8524 20.5087 19.7638 20.3151 19.7441 19.9737C19.7145 19.4945 19.8393 19.1893 20.1117 19.0645C20.2046 19.0246 20.3059 19.0082 20.4067 19.0168C20.5075 19.0254 20.6046 19.0587 20.6894 19.1138Z" fill="white"/>
<path d="M19.9377 19.5307C19.9016 19.5898 19.8819 19.6554 19.8885 19.6784C19.9344 19.8327 19.9311 19.8294 20.0132 19.7441C20.0559 19.6981 20.1149 19.6587 20.1445 19.6587C20.1937 19.6587 20.1937 19.6521 20.1412 19.5668C20.0887 19.4815 20.0887 19.4815 20.1412 19.5241C20.1871 19.5602 20.2003 19.5602 20.2167 19.5176C20.2331 19.4749 20.2462 19.4716 20.2987 19.5044C20.3348 19.5274 20.3545 19.5602 20.348 19.5832C20.3414 19.6062 20.3545 19.6292 20.3808 19.639C20.4497 19.6653 20.4366 19.5701 20.3611 19.4946C20.3152 19.4486 20.2528 19.429 20.1478 19.429C20.0165 19.429 19.9902 19.4421 19.9377 19.5307Z" fill="white"/>
<path d="M20.5089 19.8261C20.4957 19.8458 20.4925 19.8688 20.5023 19.8786C20.5253 19.9016 20.5909 19.8589 20.5909 19.8195C20.5909 19.7802 20.5351 19.7802 20.5089 19.8261Z" fill="white"/>
<path d="M20.6235 19.8687C20.6235 19.8983 20.6399 19.9213 20.6564 19.9213C20.6605 19.9216 20.6646 19.9211 20.6686 19.9198C20.6725 19.9185 20.6761 19.9164 20.6792 19.9136C20.6823 19.9109 20.6847 19.9075 20.6865 19.9037C20.6882 19.8999 20.6891 19.8959 20.6892 19.8917C20.6888 19.8809 20.6855 19.8703 20.6797 19.8611C20.674 19.8519 20.6659 19.8443 20.6564 19.8392C20.6399 19.8294 20.6235 19.8425 20.6235 19.8687Z" fill="white"/>
<path d="M20.4726 19.977C20.4825 20.0262 20.4726 20.0427 20.4398 20.0295C20.4135 20.0197 20.3938 20.0295 20.3938 20.0525C20.3938 20.0755 20.361 20.1214 20.3216 20.1575C20.2593 20.2101 20.256 20.2265 20.2954 20.2494C20.361 20.2921 20.3938 20.2888 20.3938 20.2494C20.3938 20.2035 20.5678 20.2068 20.6138 20.2527C20.6597 20.2987 20.7647 20.1477 20.7483 20.0492C20.7385 19.9639 20.6564 19.9212 20.6564 20C20.6564 20.0788 20.5284 20.0623 20.489 19.977C20.4595 19.9048 20.4595 19.9048 20.4726 19.977Z" fill="white"/>
<path d="M5 22.3995V23.0067H20L35 23.0034V21.7922H5V22.3995ZM23.2659 21.8546C23.1214 21.8644 23.0263 21.8841 23.0591 21.8973C23.1015 21.9113 23.1468 21.9135 23.1904 21.9038C23.2298 21.8973 23.2429 21.9006 23.2166 21.9104C23.0624 21.976 23.0722 22.0253 23.2659 22.1336L23.3643 22.1861L23.2659 22.1664C23.1346 22.1369 23.046 22.0548 23.0624 21.9826C23.0722 21.9465 23.0624 21.9235 23.0328 21.9235C23.0033 21.9235 22.9967 21.9432 23.0098 21.9793C23.0295 22.0253 23.0197 22.0253 22.9475 21.9695C22.9015 21.9367 22.8687 21.8973 22.8753 21.8841C22.8818 21.871 22.8687 21.8546 22.849 21.848C22.8293 21.8415 22.9705 21.8316 23.1674 21.8349C23.5252 21.8382 23.5252 21.8382 23.2659 21.8546ZM22.767 21.9465C22.74 21.9531 22.7119 21.9531 22.6849 21.9465C22.6619 21.9367 22.6783 21.9301 22.7243 21.9301C22.7702 21.9301 22.7867 21.9367 22.767 21.9465ZM23.2659 22.0023C23.3217 22.0581 23.2888 22.1008 23.2265 22.0515C23.1838 22.0121 23.1674 21.9564 23.2035 21.9564C23.2281 21.9656 23.2497 21.9815 23.2659 22.0023ZM22.7899 22.0384C22.8129 22.0679 22.8162 22.0876 22.7965 22.0876C22.7768 22.0876 22.7571 22.0647 22.744 22.0384C22.7309 22.0121 22.7309 21.9892 22.7374 21.9892C22.7578 22.0022 22.7756 22.0189 22.7899 22.0384ZM22.9212 22.0187C22.9212 22.0351 22.9573 22.0581 23.0033 22.0679C23.0492 22.0778 23.0821 22.1073 23.0755 22.127C23.0689 22.1467 23.0985 22.1697 23.1346 22.1763C23.2396 22.196 23.3479 22.2583 23.3282 22.2911C23.3184 22.3043 23.3414 22.3174 23.3742 22.3174C23.4168 22.3174 23.4628 22.3634 23.5088 22.4487C23.5449 22.5209 23.5613 22.58 23.5449 22.58C23.5284 22.58 23.5088 22.5537 23.5088 22.5209C23.5088 22.4881 23.4956 22.5078 23.4825 22.5603C23.4797 22.5899 23.4673 22.6179 23.4472 22.6398C23.427 22.6618 23.4002 22.6765 23.3709 22.6817C23.2921 22.7047 23.279 22.6981 23.2987 22.6522C23.3545 22.5275 23.3545 22.4585 23.302 22.4585C23.2626 22.4585 23.2593 22.4717 23.2856 22.5045C23.3085 22.5307 23.3118 22.5472 23.2888 22.5472C23.2724 22.5472 23.2593 22.5734 23.2626 22.6062C23.2659 22.6391 23.2429 22.662 23.2002 22.662C23.151 22.662 23.1379 22.6423 23.1411 22.5898C23.1444 22.5373 23.1346 22.5209 23.1018 22.534C23.0427 22.557 23.0394 22.5865 23.0919 22.6391C23.1214 22.6686 23.1214 22.6883 23.0952 22.7146C23.0689 22.7408 23.0558 22.7244 23.0394 22.6653C23.023 22.6062 23.0394 22.5504 23.0886 22.4848C23.1444 22.4093 23.151 22.3765 23.1214 22.3272C23.1017 22.2911 23.0985 22.2485 23.1116 22.2353C23.1247 22.2222 23.1149 22.2189 23.0952 22.2321C23.0689 22.2485 23.0525 22.2353 23.0525 22.1992C23.0525 22.1631 23.0427 22.1533 23.0295 22.1664C22.9869 22.2058 22.9934 22.2813 23.0394 22.2977C23.0985 22.3207 23.0985 22.3995 23.0394 22.4914C22.9803 22.5833 22.9311 22.7539 22.9836 22.6785C23.0131 22.6391 23.0197 22.6423 23.0197 22.7014C23.0197 22.7441 23.0394 22.7769 23.0624 22.7769C23.0853 22.7769 23.0853 22.79 23.0525 22.813C23.0131 22.8426 23.0164 22.8458 23.0788 22.8327C23.1182 22.8229 23.151 22.8294 23.151 22.8458C23.151 22.8623 23.1313 22.8787 23.1116 22.882C23.0919 22.8852 23.2921 22.8984 23.5613 22.9082L24.0536 22.9279H23.4136C23.0591 22.9312 22.8392 22.9213 22.9212 22.9082C23.046 22.8885 23.0525 22.8852 22.9639 22.882C22.8818 22.8754 22.8621 22.8623 22.8786 22.8229C22.8826 22.8104 22.8914 22.7999 22.9031 22.7938C22.9147 22.7877 22.9283 22.7863 22.9409 22.79C22.9672 22.7999 22.9869 22.7933 22.9869 22.7736C22.9869 22.7539 22.9475 22.7441 22.8884 22.7507C22.8359 22.7605 22.7899 22.7539 22.7899 22.7375C22.7899 22.7211 22.8195 22.7113 22.8556 22.7113C22.9048 22.7113 22.9212 22.6883 22.9212 22.6194C22.921 22.5929 22.9268 22.5668 22.9382 22.5429C22.9496 22.519 22.9662 22.498 22.9869 22.4815C23.0591 22.429 23.0722 22.3666 23.0131 22.3305C22.9869 22.3141 22.9836 22.324 22.9967 22.3601C23.0098 22.3962 23.0033 22.4159 22.9869 22.4159C22.9782 22.4159 22.9698 22.4124 22.9637 22.4063C22.9575 22.4001 22.954 22.3918 22.954 22.383C22.9544 22.3789 22.9539 22.3748 22.9526 22.3708C22.9513 22.3669 22.9492 22.3633 22.9464 22.3602C22.9436 22.3571 22.9403 22.3547 22.9365 22.3529C22.9327 22.3512 22.9286 22.3503 22.9245 22.3502C22.9114 22.3502 22.9015 22.3896 22.9114 22.4388C22.9212 22.5176 22.9179 22.5209 22.8884 22.4651C22.8654 22.4126 22.8621 22.4257 22.8753 22.5176C22.895 22.6489 22.849 22.708 22.7768 22.6489C22.7538 22.6292 22.7243 22.6194 22.7112 22.6292C22.698 22.6391 22.7046 22.6259 22.7243 22.6062C22.7453 22.5716 22.7566 22.5319 22.7571 22.4914C22.7571 22.4356 22.7374 22.4159 22.6849 22.4126C22.6127 22.4093 22.6127 22.4093 22.6915 22.383L22.7735 22.3601L22.6849 22.3338C22.5635 22.301 22.57 22.2222 22.6947 22.196C22.767 22.1828 22.7834 22.1697 22.7505 22.15C22.7243 22.1303 22.7473 22.1205 22.8228 22.1237C22.9114 22.1237 22.9212 22.1303 22.8753 22.15C22.8359 22.1631 22.826 22.1828 22.8457 22.196C22.8654 22.2091 22.9147 22.1894 22.954 22.1533C23.0263 22.0909 23.0263 22.0876 22.9639 22.0876C22.9461 22.0879 22.9286 22.0834 22.913 22.0748C22.8975 22.0662 22.8845 22.0536 22.8753 22.0384C22.8654 22.0121 22.872 21.9892 22.8884 21.9892C22.8925 21.9888 22.8967 21.9893 22.9006 21.9906C22.9045 21.9919 22.9082 21.994 22.9112 21.9968C22.9143 21.9996 22.9168 22.003 22.9185 22.0067C22.9202 22.0105 22.9212 22.0146 22.9212 22.0187ZM22.593 22.1533C22.593 22.1697 22.5667 22.1861 22.5372 22.1861C22.488 22.1861 22.4847 22.1795 22.5274 22.1533C22.5897 22.1139 22.593 22.1139 22.593 22.1533ZM23.5383 22.2025C23.5284 22.2124 23.5088 22.196 23.4989 22.1631C23.4792 22.1172 23.4825 22.1139 23.5153 22.1434C23.5383 22.1664 23.5481 22.1927 23.5383 22.2025ZM23.5481 22.2682C23.5646 22.255 23.5777 22.2649 23.5777 22.2813C23.5777 22.3207 23.5416 22.3272 23.4661 22.2977C23.4531 22.2924 23.4427 22.2822 23.4372 22.2693C23.4317 22.2564 23.4314 22.2418 23.4365 22.2288C23.453 22.1861 23.4595 22.1861 23.4858 22.2321C23.5022 22.2616 23.5284 22.278 23.5481 22.2682ZM23.7746 22.2714C23.7746 22.3207 23.7877 22.3207 23.9716 22.2583C24.0011 22.2485 23.9912 22.2649 23.9551 22.2944C23.9026 22.3371 23.8993 22.3469 23.942 22.3502C24.0077 22.3502 24.0011 22.4717 23.9354 22.5209C23.8961 22.5472 23.8961 22.5504 23.9387 22.5373C23.9716 22.5275 23.9912 22.5439 23.9912 22.58C23.9912 22.6161 23.9781 22.6325 23.9617 22.6227C23.9505 22.6196 23.9387 22.6192 23.9273 22.6215C23.9159 22.6237 23.9052 22.6286 23.8961 22.6358C23.8403 22.6785 23.6663 22.685 23.6926 22.6456C23.7188 22.6062 23.7024 22.6062 23.6302 22.6325C23.5908 22.6489 23.5842 22.6653 23.6105 22.6949C23.64 22.731 23.6335 22.7342 23.581 22.7211C23.5416 22.7113 23.512 22.7178 23.512 22.7408C23.512 22.7572 23.4923 22.7671 23.4661 22.7572C23.4271 22.7485 23.3862 22.7544 23.3512 22.7736C23.2954 22.8065 23.2856 22.8032 23.302 22.7605C23.3151 22.731 23.361 22.7113 23.4168 22.7113C23.4726 22.7113 23.512 22.6981 23.512 22.6817C23.512 22.6653 23.5416 22.6391 23.5777 22.6292C23.6499 22.6062 23.6696 22.4815 23.6039 22.4815C23.5711 22.4815 23.5711 22.4749 23.6039 22.4553C23.6156 22.4455 23.624 22.4324 23.6281 22.4178C23.6322 22.4031 23.6318 22.3876 23.6269 22.3732C23.6208 22.3546 23.6192 22.3348 23.622 22.3155C23.6249 22.2961 23.6322 22.2777 23.6433 22.2616C23.6729 22.2124 23.6761 22.2189 23.6597 22.2977C23.64 22.383 23.6433 22.3896 23.6926 22.3502C23.707 22.3371 23.7181 22.3207 23.725 22.3025C23.7318 22.2842 23.7342 22.2646 23.7319 22.2452C23.7221 22.2124 23.7287 22.1927 23.7451 22.2058C23.7546 22.2138 23.7622 22.2239 23.7673 22.2353C23.7724 22.2466 23.7749 22.259 23.7746 22.2714ZM25.849 22.452C25.8392 22.6095 25.826 22.6785 25.7998 22.6686C25.7505 22.6522 25.7144 22.2222 25.7604 22.2058C25.8392 22.1795 25.8589 22.2321 25.849 22.452ZM26.4726 22.2025C26.535 22.2255 26.512 22.6686 26.4497 22.6686C26.4168 22.6686 26.4037 22.603 26.3939 22.4388C26.384 22.1795 26.3873 22.1697 26.4726 22.2025ZM27.3851 22.2682C27.3859 22.281 27.3903 22.2934 27.3979 22.3039C27.4054 22.3144 27.4158 22.3225 27.4278 22.3272C27.4573 22.3404 27.4573 22.3535 27.4212 22.3765C27.3851 22.3995 27.3818 22.4454 27.395 22.5373C27.4147 22.6489 27.4081 22.6653 27.349 22.6653C27.3298 22.6651 27.3113 22.6581 27.2969 22.6454C27.2824 22.6328 27.273 22.6154 27.2702 22.5964C27.2276 22.3765 27.2276 22.3207 27.2735 22.255C27.326 22.1828 27.3851 22.1894 27.3851 22.2682ZM28.7079 22.255C28.6978 22.2659 28.6907 22.2791 28.6873 22.2935C28.6838 22.3079 28.6841 22.3229 28.6882 22.3371C28.698 22.3634 28.6882 22.383 28.6685 22.383C28.6488 22.383 28.6324 22.4388 28.6324 22.5143C28.6324 22.6227 28.6225 22.6456 28.5667 22.6456C28.5175 22.6456 28.5011 22.6227 28.4978 22.5537C28.4974 22.5031 28.493 22.4526 28.4847 22.4027C28.465 22.2944 28.5274 22.2189 28.639 22.2189C28.7177 22.2189 28.7341 22.2288 28.7079 22.255ZM30.8512 22.3404L30.8742 22.4651L30.9136 22.3502C30.9595 22.2091 31.0908 22.1664 31.1007 22.2911C31.1236 22.5701 31.1138 22.6456 31.0547 22.6456C31.012 22.6456 30.9956 22.6194 30.9923 22.5537L30.9858 22.4651L30.9726 22.5537C30.953 22.6883 30.8414 22.6785 30.802 22.5373L30.7724 22.4323L30.7691 22.5373C30.7659 22.6095 30.7495 22.6456 30.7166 22.6456C30.6772 22.6456 30.6674 22.5997 30.6674 22.4323C30.6674 22.2288 30.6707 22.2189 30.7495 22.2189C30.8151 22.2189 30.8315 22.2386 30.8512 22.3404ZM31.9376 22.2649C31.9278 22.2911 31.9344 22.3207 31.9573 22.3272C31.9869 22.3371 31.9869 22.3502 31.9606 22.3863C31.9212 22.4323 31.9245 22.4848 31.9639 22.5898C31.9869 22.6423 31.977 22.6489 31.9114 22.6391C31.8457 22.6292 31.8293 22.6062 31.8129 22.4815C31.7998 22.3995 31.8063 22.3076 31.8228 22.2747C31.8589 22.2058 31.9639 22.196 31.9376 22.2649ZM33.1619 22.4323C33.1619 22.5997 33.1521 22.6456 33.1127 22.6456C33.0733 22.6456 33.0635 22.5997 33.0635 22.4323C33.0635 22.2649 33.0733 22.2189 33.1127 22.2189C33.1521 22.2189 33.1619 22.2649 33.1619 22.4323ZM33.9825 22.4323C33.9825 22.5997 33.9726 22.6456 33.9333 22.6456C33.8939 22.6456 33.884 22.5997 33.884 22.4323C33.884 22.2649 33.8939 22.2189 33.9333 22.2189C33.9726 22.2189 33.9825 22.2649 33.9825 22.4323ZM27.779 22.3174C27.8381 22.3174 27.9103 22.406 27.9103 22.4782C27.9103 22.4979 27.8676 22.5143 27.8118 22.5143C27.756 22.5143 27.7133 22.5275 27.7133 22.5472C27.7133 22.5669 27.756 22.5701 27.8118 22.557C27.93 22.534 27.9497 22.603 27.8315 22.6325C27.7133 22.662 27.6379 22.6358 27.5952 22.5504C27.5624 22.4848 27.5656 22.4553 27.6247 22.3634C27.6641 22.3043 27.7035 22.2682 27.7068 22.2846C27.7101 22.301 27.7462 22.3174 27.779 22.3174ZM24.4475 22.3141C24.5 22.3174 24.4902 22.3305 24.4081 22.3699C24.2768 22.4356 24.244 22.5242 24.3129 22.6292C24.3654 22.708 24.3621 22.7113 24.2867 22.731C24.2403 22.7418 24.1923 22.7429 24.1455 22.7342C24.1127 22.7244 24.1324 22.7178 24.1947 22.7146C24.2505 22.7146 24.2998 22.6981 24.2998 22.685C24.2998 22.6719 24.267 22.6588 24.2276 22.6588C24.1619 22.662 24.1521 22.6489 24.1619 22.5537C24.1718 22.4651 24.1619 22.4487 24.1061 22.4487C24.0667 22.4487 24.0372 22.4356 24.0372 22.4159C24.0372 22.3962 24.0569 22.3929 24.0832 22.4027C24.1094 22.4126 24.1324 22.3929 24.1422 22.3568C24.1554 22.3043 24.1849 22.2944 24.2702 22.301C24.3326 22.3076 24.4114 22.3108 24.4475 22.3141ZM25.0088 22.3272C25.0206 22.3834 25.0272 22.4405 25.0284 22.4979C25.035 22.6325 25.0284 22.662 24.9825 22.6719C24.9365 22.6817 24.9234 22.6588 24.9234 22.5734C24.9239 22.5192 24.9128 22.4654 24.8906 22.4159C24.8676 22.3798 24.8578 22.4027 24.8578 22.5045C24.8578 22.6325 24.8512 22.6456 24.7724 22.6456C24.7265 22.6456 24.6969 22.6325 24.7101 22.6128C24.7396 22.5636 24.6969 22.5734 24.6411 22.6292C24.5853 22.685 24.477 22.6588 24.5295 22.5964C24.5492 22.5734 24.5591 22.5012 24.5525 22.4356C24.546 22.3699 24.5427 22.3141 24.5492 22.3076C24.5624 22.2977 24.9956 22.3141 25.0088 22.3272ZM25.4519 22.3174C25.5011 22.3174 25.5142 22.3404 25.5142 22.4454C25.5142 22.5176 25.5306 22.5865 25.5503 22.5997C25.6094 22.6358 25.5175 22.6719 25.3961 22.662C25.3465 22.6588 25.2977 22.6477 25.2516 22.6292C25.2057 22.603 25.209 22.5045 25.2582 22.4553C25.2877 22.4257 25.2746 22.4159 25.2024 22.4126C25.1039 22.4093 25.1039 22.4093 25.186 22.383C25.2319 22.3699 25.2451 22.3535 25.2188 22.3502C25.1827 22.3469 25.1893 22.3371 25.2352 22.3174C25.2688 22.3008 25.307 22.2962 25.3435 22.3043C25.3791 22.3125 25.4154 22.3169 25.4519 22.3174ZM27.0569 22.5176C27.0569 22.5865 27.0405 22.6522 27.0175 22.6653C26.9617 22.7014 26.8993 22.5931 26.9125 22.4815C26.919 22.4257 26.9125 22.383 26.8961 22.383C26.8567 22.383 26.8271 22.4651 26.8271 22.5669C26.8271 22.6194 26.8074 22.6456 26.7713 22.6456C26.7123 22.6456 26.709 22.6259 26.7254 22.3601C26.7287 22.301 26.9683 22.2911 27.0175 22.3469C27.0444 22.3997 27.058 22.4584 27.0569 22.5176ZM28.337 22.3502C28.337 22.3666 28.3173 22.383 28.291 22.383C28.2385 22.383 28.2057 22.452 28.2057 22.5669C28.2057 22.6161 28.186 22.6456 28.1565 22.6456C28.1203 22.6456 28.1072 22.6062 28.1072 22.4815V22.3174H28.2221C28.2845 22.3174 28.337 22.3305 28.337 22.3502ZM29.1247 22.4618C29.1247 22.5472 29.1411 22.6128 29.1674 22.6227C29.1871 22.6325 29.1313 22.6423 29.0361 22.6423C28.9409 22.6423 28.8556 22.6292 28.8457 22.6128C28.8129 22.557 28.8621 22.4487 28.9212 22.4454C28.9705 22.4421 28.9705 22.4388 28.9212 22.4257C28.7965 22.3929 28.8654 22.3174 29.0164 22.3174C29.1214 22.3174 29.1247 22.3207 29.1247 22.4618ZM29.6171 22.3666C29.6499 22.406 29.6466 22.4192 29.5974 22.4388C29.5646 22.452 29.535 22.4454 29.5252 22.4224C29.5022 22.3535 29.453 22.3798 29.453 22.4585C29.453 22.5603 29.4858 22.5898 29.5416 22.5406C29.5469 22.5342 29.5535 22.5292 29.5611 22.5258C29.5686 22.5225 29.5768 22.5209 29.5851 22.5212C29.5933 22.5215 29.6014 22.5237 29.6086 22.5277C29.6159 22.5316 29.6221 22.5371 29.6269 22.5439C29.6761 22.5931 29.6039 22.6456 29.4792 22.6456C29.407 22.6456 29.384 22.6259 29.3643 22.5537C29.3348 22.4487 29.3479 22.3765 29.3972 22.3437C29.4628 22.301 29.5744 22.3141 29.6171 22.3666ZM30.1094 22.3798C30.1619 22.4848 30.1488 22.5143 30.0438 22.5143C29.9912 22.5143 29.9453 22.5307 29.9453 22.5472C29.9453 22.5636 29.9814 22.5734 30.0306 22.5603C30.0963 22.5439 30.1127 22.5504 30.1028 22.5833C30.0963 22.6095 30.047 22.6358 29.9945 22.6391C29.9613 22.6447 29.9271 22.6393 29.8972 22.6237C29.8674 22.6082 29.8434 22.5833 29.8289 22.5528C29.8144 22.5224 29.8102 22.4881 29.817 22.4551C29.8238 22.4221 29.8412 22.3922 29.8665 22.3699C29.9354 22.2977 30.0667 22.3043 30.1094 22.3798ZM31.5864 22.4881L31.6061 22.6456H31.4683C31.2648 22.6456 31.2319 22.4979 31.4158 22.4257C31.5011 22.3896 31.4978 22.3896 31.3895 22.4093C31.2812 22.429 31.2779 22.4224 31.3206 22.3699C31.3501 22.3338 31.4026 22.3174 31.4683 22.324C31.5635 22.3338 31.57 22.3437 31.5864 22.4881ZM32.4398 22.4027C32.4858 22.5176 32.4858 22.5143 32.3742 22.5143C32.3217 22.5143 32.2757 22.5307 32.2757 22.5472C32.2757 22.5636 32.3118 22.5734 32.361 22.5603C32.4267 22.5439 32.4431 22.5504 32.4333 22.5833C32.4267 22.6095 32.3709 22.6325 32.3151 22.6391C32.2265 22.6489 32.2035 22.6358 32.1772 22.5669C32.1247 22.4257 32.1904 22.3174 32.3348 22.3174C32.384 22.3174 32.4201 22.3437 32.4398 22.4027ZM32.8993 22.3469C32.8993 22.3634 32.8698 22.383 32.8337 22.3929C32.7845 22.406 32.7681 22.4388 32.7681 22.5275C32.7681 22.6095 32.7549 22.6456 32.7188 22.6456C32.6827 22.6456 32.6696 22.6062 32.6696 22.4815V22.3174H32.7845C32.8468 22.3174 32.8993 22.3305 32.8993 22.3469ZM33.6608 22.4815L33.6707 22.6456H33.5361C33.3326 22.6456 33.2998 22.4979 33.4836 22.4224L33.5722 22.3863L33.4836 22.406C33.4311 22.4159 33.3917 22.4093 33.3917 22.3929C33.3917 22.3371 33.4311 22.3174 33.5427 22.3174C33.6444 22.3174 33.6477 22.3207 33.6608 22.4815ZM34.4683 22.3798C34.4814 22.4159 34.4617 22.4192 34.3895 22.406C34.3074 22.3863 34.3009 22.3896 34.3534 22.4257C34.5274 22.5406 34.5241 22.5373 34.4781 22.5931C34.419 22.662 34.2648 22.662 34.209 22.5898C34.1663 22.5406 34.1729 22.5373 34.2713 22.557C34.3928 22.5833 34.4158 22.5307 34.2943 22.5012C34.2155 22.4815 34.1827 22.3896 34.2352 22.3371C34.2746 22.2977 34.4519 22.3305 34.4683 22.3798ZM24.4179 22.5406C24.4212 22.6062 24.4147 22.6292 24.4081 22.5865C24.4015 22.5439 24.3786 22.5143 24.3589 22.5143C24.3392 22.5143 24.3392 22.4946 24.3654 22.4651C24.3792 22.4473 24.3946 22.4309 24.4114 22.4159C24.4157 22.4573 24.4179 22.4989 24.4179 22.5406ZM22.7144 22.4684C22.7051 22.4741 22.6946 22.4773 22.6837 22.4779C22.6728 22.4785 22.6619 22.4763 22.6521 22.4717C22.6258 22.4618 22.6357 22.452 22.6718 22.452C22.7079 22.452 22.7276 22.4585 22.7144 22.4684ZM25.1761 22.4684C25.1668 22.4741 25.1563 22.4773 25.1454 22.4779C25.1345 22.4785 25.1236 22.4763 25.1138 22.4717C25.0875 22.4618 25.0974 22.452 25.1335 22.452C25.1696 22.452 25.1893 22.4585 25.1761 22.4684ZM24.5131 22.5143C24.523 22.5307 24.5164 22.5472 24.5 22.5472C24.491 22.5472 24.4822 22.5438 24.4756 22.5378C24.4689 22.5317 24.4647 22.5233 24.4639 22.5143C24.4639 22.4946 24.4705 22.4815 24.477 22.4815C24.4836 22.4815 24.5033 22.4946 24.5131 22.5143ZM23.1838 22.7441C23.1838 22.7528 23.1803 22.7612 23.1742 22.7673C23.168 22.7735 23.1597 22.7769 23.151 22.7769C23.1425 22.7763 23.1345 22.7727 23.1285 22.7666C23.1224 22.7606 23.1188 22.7526 23.1182 22.7441C23.1182 22.7354 23.1216 22.727 23.1278 22.7209C23.1339 22.7147 23.1423 22.7113 23.151 22.7113C23.1554 22.711 23.1598 22.7116 23.1639 22.7132C23.168 22.7147 23.1717 22.7171 23.1748 22.7202C23.1779 22.7234 23.1804 22.7271 23.1819 22.7312C23.1834 22.7353 23.1841 22.7397 23.1838 22.7441ZM23.8698 22.7244C23.8339 22.7394 23.7965 22.7504 23.7582 22.7572C23.686 22.7736 23.6729 22.7704 23.709 22.7441C23.7549 22.7146 23.9026 22.6949 23.8698 22.7244ZM25.0449 22.731C25.0356 22.7367 25.025 22.7399 25.0141 22.7405C25.0032 22.7411 24.9923 22.7389 24.9825 22.7342C24.9562 22.7244 24.9661 22.7146 25.0022 22.7146C25.0383 22.7146 25.058 22.7211 25.0449 22.731ZM24.0864 22.8097C24.0963 22.8294 24.0832 22.8327 24.0569 22.8229C23.9978 22.7999 23.988 22.7769 24.0339 22.7769C24.0448 22.7773 24.0553 22.7806 24.0645 22.7864C24.0737 22.7921 24.0813 22.8002 24.0864 22.8097ZM22.8228 22.836C22.8228 22.8491 22.767 22.8557 22.7013 22.8491C22.5077 22.8327 22.4945 22.8163 22.6685 22.813C22.7538 22.8097 22.8228 22.8229 22.8228 22.836ZM23.4464 22.8623C23.4464 22.8688 23.3873 22.8754 23.3118 22.8754C23.2363 22.8754 23.1871 22.8623 23.1969 22.8491C23.2133 22.8229 23.4464 22.836 23.4464 22.8623ZM23.5449 22.8426C23.544 22.8516 23.5399 22.8599 23.5332 22.866C23.5265 22.8721 23.5178 22.8754 23.5088 22.8754C23.4923 22.8754 23.4858 22.859 23.4956 22.8426C23.5055 22.8262 23.5219 22.8097 23.5317 22.8097C23.5416 22.8097 23.5449 22.8229 23.5449 22.8426ZM24.0208 22.8688C24.0109 22.8787 23.9847 22.8688 23.9617 22.8458C23.9322 22.813 23.9354 22.8097 23.9814 22.8294C24.0142 22.8393 24.0306 22.859 24.0208 22.8688ZM24.3425 22.8327C24.3155 22.8393 24.2874 22.8393 24.2604 22.8327C24.2374 22.8229 24.2538 22.8163 24.2998 22.8163C24.3457 22.8163 24.3621 22.8229 24.3425 22.8327ZM22.7013 22.8984C22.6468 22.9049 22.5917 22.9049 22.5372 22.8984C22.4847 22.8918 22.5208 22.8852 22.6094 22.8852C22.698 22.8852 22.7407 22.8918 22.7013 22.8984ZM24.3556 22.8951C24.3463 22.9008 24.3357 22.904 24.3248 22.9046C24.3139 22.9052 24.3031 22.903 24.2932 22.8984C24.267 22.8885 24.2768 22.8787 24.3129 22.8787C24.349 22.8787 24.3687 22.8852 24.3556 22.8951ZM24.8184 22.964C24.7749 22.9706 24.7306 22.9706 24.6871 22.964C24.6444 22.9574 24.6707 22.9509 24.7429 22.9509C24.8151 22.9509 24.8479 22.9542 24.8184 22.964Z" fill="white"/>
<path d="M22.9211 21.8906C22.9218 21.8991 22.9254 21.9071 22.9314 21.9131C22.9375 21.9191 22.9455 21.9228 22.954 21.9234C22.9627 21.9234 22.971 21.9199 22.9772 21.9138C22.9833 21.9076 22.9868 21.8993 22.9868 21.8906C22.9871 21.8862 22.9864 21.8818 22.9849 21.8777C22.9833 21.8735 22.9809 21.8698 22.9778 21.8667C22.9747 21.8636 22.971 21.8612 22.9669 21.8596C22.9627 21.8581 22.9584 21.8574 22.954 21.8577C22.9453 21.8577 22.9369 21.8612 22.9308 21.8673C22.9246 21.8735 22.9211 21.8819 22.9211 21.8906Z" fill="white"/>
<path d="M23.7747 22.4157C23.7753 22.4242 23.7789 22.4322 23.7849 22.4382C23.791 22.4443 23.799 22.4479 23.8075 22.4485C23.8162 22.4485 23.8245 22.4451 23.8307 22.4389C23.8368 22.4328 23.8403 22.4244 23.8403 22.4157C23.8406 22.4113 23.8399 22.4069 23.8384 22.4028C23.8368 22.3987 23.8344 22.395 23.8313 22.3918C23.8282 22.3887 23.8245 22.3863 23.8204 22.3848C23.8163 22.3832 23.8119 22.3826 23.8075 22.3829C23.7988 22.3829 23.7904 22.3863 23.7843 22.3925C23.7781 22.3986 23.7747 22.407 23.7747 22.4157Z" fill="white"/>
<path d="M27.7134 22.4157C27.714 22.4242 27.7176 22.4322 27.7237 22.4382C27.7297 22.4443 27.7377 22.4479 27.7462 22.4485C27.7549 22.4485 27.7633 22.4451 27.7694 22.4389C27.7756 22.4328 27.779 22.4244 27.779 22.4157C27.7793 22.4113 27.7787 22.4069 27.7771 22.4028C27.7756 22.3987 27.7732 22.395 27.7701 22.3918C27.7669 22.3887 27.7632 22.3863 27.7591 22.3848C27.755 22.3832 27.7506 22.3826 27.7462 22.3829C27.7375 22.3829 27.7291 22.3863 27.723 22.3925C27.7168 22.3986 27.7134 22.407 27.7134 22.4157Z" fill="white"/>
<path d="M24.6904 22.4224C24.6707 22.4913 24.674 22.5471 24.697 22.5471C24.7134 22.5471 24.7265 22.5176 24.7265 22.4815C24.7265 22.429 24.7036 22.3896 24.6904 22.4224Z" fill="white"/>
<path d="M25.3501 22.5503C25.3501 22.5667 25.3665 22.5732 25.3829 22.5634C25.3993 22.5535 25.4157 22.5371 25.4157 22.5273C25.4157 22.5174 25.4026 22.5142 25.3829 22.5142C25.3739 22.515 25.3656 22.5191 25.3595 22.5258C25.3534 22.5325 25.3501 22.5412 25.3501 22.5503Z" fill="white"/>
<path d="M28.9837 22.5043C28.9689 22.5191 28.9607 22.5392 28.9607 22.5601C28.9607 22.5798 28.9771 22.5765 29.0001 22.5535C29.0231 22.5305 29.0296 22.5076 29.0231 22.4977C29.0201 22.4955 29.0167 22.4939 29.013 22.493C29.0094 22.4921 29.0056 22.4919 29.002 22.4926C28.9983 22.4932 28.9948 22.4945 28.9916 22.4965C28.9885 22.4986 28.9858 22.5012 28.9837 22.5043Z" fill="white"/>
<path d="M29.9453 22.4157C29.9459 22.4242 29.9496 22.4322 29.9556 22.4382C29.9616 22.4443 29.9696 22.4479 29.9781 22.4485C29.9868 22.4485 29.9952 22.4451 30.0013 22.4389C30.0075 22.4328 30.011 22.4244 30.011 22.4157C30.0112 22.4113 30.0106 22.4069 30.0091 22.4028C30.0075 22.3987 30.0051 22.395 30.002 22.3918C29.9989 22.3887 29.9951 22.3863 29.991 22.3848C29.9869 22.3832 29.9825 22.3826 29.9781 22.3829C29.9694 22.3829 29.9611 22.3863 29.9549 22.3925C29.9488 22.3986 29.9453 22.407 29.9453 22.4157Z" fill="white"/>
<path d="M31.4453 22.5043C31.4306 22.5191 31.4223 22.5392 31.4224 22.5601C31.4224 22.5798 31.4388 22.5765 31.4618 22.5535C31.4847 22.5305 31.4913 22.5076 31.4847 22.4977C31.4817 22.4955 31.4783 22.4939 31.4747 22.493C31.4711 22.4921 31.4673 22.4919 31.4636 22.4926C31.4599 22.4932 31.4564 22.4945 31.4533 22.4965C31.4501 22.4986 31.4474 22.5012 31.4453 22.5043Z" fill="white"/>
<path d="M32.2594 22.4125C32.2495 22.4322 32.2692 22.442 32.3053 22.4387C32.3414 22.4354 32.3611 22.4223 32.3545 22.4092C32.3493 22.4011 32.3421 22.3945 32.3336 22.3901C32.3251 22.3857 32.3156 22.3835 32.306 22.3838C32.2964 22.3842 32.2871 22.387 32.2789 22.392C32.2707 22.397 32.264 22.4041 32.2594 22.4125Z" fill="white"/>
<path d="M33.5132 22.5043C33.4985 22.5191 33.4902 22.5392 33.4902 22.5601C33.4902 22.5798 33.5066 22.5765 33.5296 22.5535C33.5526 22.5305 33.5592 22.5076 33.5526 22.4977C33.5496 22.4955 33.5462 22.4939 33.5426 22.493C33.539 22.4921 33.5352 22.4919 33.5315 22.4926C33.5278 22.4932 33.5243 22.4945 33.5211 22.4965C33.518 22.4986 33.5153 22.5012 33.5132 22.5043Z" fill="white"/>
</g>
<circle cx="20" cy="20" r="19.5" stroke="black" stroke-opacity="0.05"/>
<defs>
<clipPath id="clip0_14382_21510">
<rect width="30" height="6.00656" fill="white" transform="translate(5 17)"/>
</clipPath>
</defs>
</svg>
