<svg width="40" height="40" viewBox="0 0 40 40" fill="none" xmlns="http://www.w3.org/2000/svg">
<circle cx="20" cy="20" r="20" fill="#003976"/>
<g clip-path="url(#clip0_18553_55599)">
<path d="M24.34 22.0461C24.9826 22.0461 25.3388 22.1364 25.3465 22.5675C25.3517 22.8023 25.1891 23.0785 25.0162 23.2127C24.6239 23.5147 24.278 23.5482 22.4378 23.5482H13.3554L15.1105 16.2209H12.0753C11.8714 16.2209 11.7966 16.2777 11.7372 16.5203L10.0725 23.3856C9.76019 24.7509 10.4648 26.0001 12.0366 26.0001H16.2022C17.2578 26.0001 18.6696 24.849 19.2426 23.7831C19.2736 23.7237 19.2942 23.6876 19.3174 23.6386C19.3174 23.6386 19.3303 23.6231 19.3329 23.6463C19.2426 24.0283 18.9226 25.3807 18.8709 25.6001C18.8038 25.8866 18.9535 25.9975 19.0929 25.9975H23.576C27.3777 25.9975 28.8618 24.1883 28.9908 22.0177C29.0631 20.7969 28.2914 20.0072 26.1079 20.0072H24.4303C23.8341 20.0072 23.2224 19.811 23.2224 19.3284C23.2224 18.8457 23.8857 18.4225 24.7865 18.4225H28.8669C28.8669 18.4225 29.2231 16.9926 29.2954 16.6932C29.3831 16.3164 29.2696 16.208 28.996 16.208H23.9502C21.0209 16.208 19.7046 18.1669 19.7046 19.5658C19.7046 20.9647 20.8325 22.0435 23.7412 22.0435H24.3374L24.34 22.0461Z" fill="white"/>
<path d="M26.3223 15H34.4419L30.266 17.1448C30.266 17.1448 30.4337 16.4427 30.4853 16.2337C30.537 16.0117 30.4673 15.844 30.1524 15.7794C29.8401 15.7175 26.3223 15 26.3223 15Z" fill="#ED174C"/>
</g>
<circle cx="20" cy="20" r="19.5" stroke="black" stroke-opacity="0.05"/>
<defs>
<clipPath id="clip0_18553_55599">
<rect width="25" height="11" fill="white" transform="translate(10 15)"/>
</clipPath>
</defs>
</svg>
