<svg width="40" height="40" viewBox="0 0 40 40" fill="none" xmlns="http://www.w3.org/2000/svg">
<circle cx="20" cy="20" r="20" fill="#CC2026"/>
<path d="M27.804 20.5086C28.1402 20.5087 28.4556 20.5138 28.7706 20.5067C28.9003 20.5038 28.9454 20.5496 28.9368 20.6769C28.9222 20.8926 29.0222 21.1688 28.8991 21.3093C28.7709 21.4555 28.4886 21.3566 28.2746 21.3573C26.8526 21.362 25.4306 21.3557 24.0087 21.3642C23.8105 21.3654 23.7661 21.3037 23.7676 21.1158C23.7761 20.0441 23.7748 18.9723 23.7685 17.9006C23.7676 17.7406 23.8043 17.6839 23.9759 17.6846C25.545 17.6911 27.1141 17.6908 28.6831 17.685C28.8481 17.6844 28.8973 17.7288 28.8956 17.8963C28.89 18.4385 28.897 18.4385 28.3473 18.4385C27.4367 18.4386 26.526 18.4427 25.6155 18.435C25.4466 18.4336 25.3834 18.4713 25.3877 18.6528C25.3976 19.0719 25.3881 19.0722 25.809 19.0723C26.7336 19.0723 27.6583 19.0758 28.5829 19.069C28.747 19.0678 28.8166 19.0974 28.8142 19.2835C28.8071 19.8374 28.8154 19.8375 28.2529 19.8375C27.3703 19.8375 26.4877 19.8412 25.6052 19.8342C25.444 19.833 25.3863 19.8731 25.3881 20.0434C25.3931 20.5087 25.3853 20.5087 25.8496 20.5087C26.4941 20.5086 27.1385 20.5086 27.804 20.5086Z" fill="white"/>
<path d="M17.3297 17.9323C17.3307 17.6346 17.3307 17.6344 17.6155 17.6344C17.9938 17.6343 18.3722 17.6408 18.7502 17.6314C18.8982 17.6277 18.9404 17.6749 18.9392 17.8212C18.9329 18.5987 18.941 19.3764 18.9328 20.1538C18.931 20.3222 18.9685 20.3841 19.1502 20.381C19.8015 20.3701 20.4532 20.3705 21.1044 20.381C21.2848 20.3839 21.3449 20.3416 21.3421 20.1505C21.3308 19.3871 21.3444 18.6234 21.333 17.86C21.3301 17.6682 21.3913 17.6245 21.5712 17.6304C21.9701 17.6434 22.3697 17.6393 22.7689 17.632C22.9025 17.6296 22.9547 17.6668 22.9536 17.8072C22.9483 18.5287 22.9618 19.2504 22.9478 19.9716C22.9314 20.814 22.5139 21.2593 21.6628 21.2841C20.6551 21.3136 19.6458 21.2927 18.6371 21.2894C18.5334 21.289 18.4284 21.2655 18.3264 21.2422C17.6474 21.0871 17.3396 20.7122 17.3321 20.0122C17.3247 19.3258 17.33 18.6393 17.3297 17.9323Z" fill="white"/>
<path d="M34.5171 18.068C34.8663 18.3557 35.0082 18.7121 34.9995 19.1499C34.9859 19.8292 34.9919 20.509 34.9989 21.1885C35.0004 21.3373 34.953 21.3806 34.8075 21.3771C34.4364 21.3682 34.0648 21.3691 33.6936 21.3767C33.5564 21.3795 33.5126 21.3358 33.5145 21.1971C33.5217 20.6787 33.5186 20.1602 33.5167 19.6418C33.5141 18.9242 33.114 18.5219 32.3968 18.5153C32.1236 18.5128 31.8501 18.5217 31.5772 18.5119C31.4307 18.5066 31.3858 18.5545 31.3869 18.7019C31.3933 19.5146 31.3849 20.3274 31.3937 21.14C31.3956 21.3171 31.3603 21.3861 31.1657 21.3791C30.7319 21.3636 30.2971 21.3702 29.8628 21.3767C29.7338 21.3786 29.6952 21.3361 29.6957 21.2082C29.6998 20.1012 29.7002 18.9943 29.6953 17.8873C29.6947 17.748 29.7391 17.7099 29.8753 17.7105C31.0663 17.7154 32.2573 17.711 33.4483 17.7157C33.8344 17.7172 34.1998 17.8005 34.5171 18.068Z" fill="white"/>
<path d="M8.3704 21.3592C8.00005 21.3591 7.64966 21.3498 7.30012 21.363C7.12127 21.3698 7.05908 21.3266 7.0619 21.1341C7.0734 20.3502 7.06234 19.566 7.07001 18.7819C7.07161 18.6178 7.02645 18.5652 6.85834 18.5681C6.29846 18.578 5.73824 18.5678 5.17826 18.5744C5.04041 18.576 4.99339 18.5329 5.00136 18.3959C5.01151 18.2214 5.01312 18.0453 5.00112 17.8711C4.99054 17.7175 5.05481 17.686 5.19518 17.6864C6.91036 17.6903 8.62555 17.6907 10.3407 17.686C10.4908 17.6856 10.5361 17.7352 10.5267 17.8786C10.5161 18.0389 10.5146 18.2013 10.5271 18.3613C10.5396 18.5218 10.4936 18.5802 10.3212 18.5759C9.83849 18.564 9.35514 18.5777 8.87226 18.5687C8.71587 18.5657 8.66877 18.6116 8.67037 18.7698C8.67815 19.5398 8.67498 20.31 8.67351 21.0801C8.67291 21.3905 8.70828 21.3556 8.3704 21.3592Z" fill="white"/>
<path fill-rule="evenodd" clip-rule="evenodd" d="M11.1954 19.5856C11.1951 19.7889 11.1948 19.9933 11.1948 20.1991C11.1948 20.2976 11.1953 20.3943 11.1958 20.4897C11.197 20.72 11.1981 20.9428 11.1921 21.1655C11.1884 21.3053 11.2227 21.3665 11.3764 21.362C11.7122 21.3521 12.0487 21.3535 12.3847 21.3615C12.5223 21.3648 12.568 21.32 12.5647 21.1818C12.5608 21.0245 12.5618 20.8671 12.5627 20.7097C12.5638 20.5309 12.5649 20.3521 12.5589 20.1735C12.5536 20.0125 12.6108 19.9704 12.764 19.9743C13.1349 19.9839 13.5071 19.9927 13.8772 19.9732C14.2684 19.9527 14.5519 20.1282 14.7817 20.4133C14.9686 20.645 15.0974 20.9091 15.1332 21.2101C15.1336 21.2129 15.1339 21.2158 15.1342 21.2186C15.1432 21.2954 15.1508 21.3604 15.2597 21.3595C15.5786 21.3567 15.8975 21.3572 16.2165 21.3577C16.3248 21.3578 16.433 21.358 16.5412 21.358C16.6201 21.358 16.6549 21.3293 16.6394 21.2422C16.5236 20.5893 16.3848 19.9514 15.6895 19.6427C15.6852 19.6409 15.6839 19.6324 15.6822 19.6215C15.6813 19.6157 15.6803 19.6091 15.6787 19.6025C15.7213 19.5862 15.7646 19.5715 15.8078 19.5568C15.9158 19.5199 16.0237 19.4832 16.1224 19.4226C16.4204 19.2396 16.585 18.9829 16.5816 18.6273C16.5783 18.2843 16.3788 18.0758 16.0991 17.9215C15.817 17.7658 15.5116 17.6919 15.193 17.6907C14.6134 17.6887 14.0339 17.6886 13.4544 17.6886C12.7663 17.6885 12.0782 17.6885 11.3901 17.6851C11.2306 17.6843 11.1899 17.7327 11.1914 17.888C11.197 18.451 11.1962 19.0141 11.1954 19.5856ZM14.6863 19.1032C14.96 19.0982 15.0292 19.0003 14.9963 18.7191C14.898 18.5563 14.7478 18.5554 14.6054 18.5546C14.5961 18.5545 14.5869 18.5544 14.5777 18.5543C14.1684 18.55 13.759 18.5502 13.3496 18.5505C13.2141 18.5506 13.0785 18.5506 12.9429 18.5506C12.519 18.5503 12.5167 18.5565 12.5543 18.982C12.563 19.081 12.5997 19.1151 12.6954 19.1144C12.9302 19.1129 13.165 19.1126 13.3997 19.1123C13.8286 19.1117 14.2575 19.1111 14.6863 19.1032Z" fill="white"/>
<circle cx="20" cy="20" r="19.5" stroke="black" stroke-opacity="0.05"/>
</svg>
