<svg width="40" height="40" viewBox="0 0 40 40" fill="none" xmlns="http://www.w3.org/2000/svg">
<circle cx="20" cy="20" r="20" fill="#F6F8FA"/>
<path d="M13.7264 19.7055C13.7264 20.9953 13.2141 22.2323 12.302 23.1443C11.39 24.0564 10.153 24.5687 8.86322 24.5687C7.57341 24.5687 6.33644 24.0564 5.4244 23.1443C4.51237 22.2323 4 20.9953 4 19.7055C4 18.4157 4.51237 17.1787 5.4244 16.2667C6.33644 15.3547 7.57341 14.8423 8.86322 14.8423C9.50187 14.8423 10.1343 14.9681 10.7243 15.2125C11.3143 15.4569 11.8504 15.8151 12.302 16.2667C12.7536 16.7183 13.1119 17.2544 13.3563 17.8444C13.6007 18.4345 13.7264 19.0669 13.7264 19.7055ZM12.5845 19.7055C12.5845 18.7183 12.1923 17.7715 11.4943 17.0734C10.7962 16.3753 9.8494 15.9832 8.86218 15.9832C8.37335 15.9832 7.88931 16.0794 7.4377 16.2665C6.98608 16.4536 6.57573 16.7278 6.23008 17.0734C5.88443 17.4191 5.61025 17.8294 5.42318 18.281C5.23611 18.7326 5.13983 19.2167 5.13983 19.7055C5.13983 20.1943 5.23611 20.6784 5.42318 21.13C5.61025 21.5816 5.88443 21.9919 6.23008 22.3376C6.57573 22.6833 6.98608 22.9574 7.4377 23.1445C7.88931 23.3316 8.37335 23.4278 8.86218 23.4278C9.8494 23.4278 10.7962 23.0357 11.4943 22.3376C12.1923 21.6395 12.5845 20.6927 12.5845 19.7055Z" fill="#A12969"/>
<path d="M20.3628 20.8257L20.2777 21.3018C20.2762 21.3099 20.272 21.3172 20.2657 21.3225C20.2594 21.3277 20.2514 21.3306 20.2432 21.3306H19.4047C19.3979 21.3306 19.3914 21.3279 19.3866 21.3231C19.3818 21.3183 19.3791 21.3118 19.3791 21.305C19.3788 21.3034 19.3788 21.3018 19.3791 21.3003L20.3659 15.9546C20.3663 15.9495 20.3677 15.9446 20.3701 15.9401C20.3724 15.9356 20.3756 15.9316 20.3795 15.9283C20.3834 15.9251 20.3879 15.9226 20.3927 15.9211C20.3976 15.9196 20.4027 15.9191 20.4077 15.9196H21.3157C21.3382 15.9196 21.347 15.9306 21.3429 15.9525L21.0296 17.6077C21.0197 17.6599 21.0338 17.6693 21.0719 17.6291C21.3946 17.2929 21.9365 17.1451 22.3945 17.1456C22.9211 17.1456 23.3388 17.3294 23.6476 17.697C24.1541 18.2975 24.1086 19.0467 23.9337 19.748C23.8183 20.2106 23.4497 20.5996 23.0743 20.9045C22.4947 21.3758 21.8681 21.5426 21.1946 21.4047C20.8197 21.3281 20.5532 21.1328 20.3952 20.8189C20.3806 20.7879 20.3698 20.7902 20.3628 20.8257ZM22.2185 20.375C22.491 20.2469 22.7212 20.0437 22.8821 19.7892C23.0388 19.5532 23.1025 19.0645 23.032 18.7914C22.8195 17.968 21.8833 17.956 21.288 18.3554C20.8606 18.6447 20.6493 19.0408 20.6542 19.5438C20.6625 20.4236 21.5376 20.6836 22.2185 20.375Z" fill="#4D4D4F"/>
<path d="M15.2164 18.593C15.453 18.1217 15.8262 17.7328 16.2873 17.477C16.7484 17.2212 17.276 17.1104 17.801 17.1592C18.3687 17.2096 18.8039 17.4778 19.1064 17.9638C19.3591 18.3695 19.4008 18.8692 19.3016 19.349C19.1652 20.0104 18.7934 20.5557 18.1863 20.9849C17.5034 21.4684 16.493 21.6564 15.7683 21.1896C14.8744 20.6131 14.7585 19.489 15.2164 18.593ZM18.1159 18.4201C17.7081 17.9747 16.9447 18.0102 16.4105 18.4995C15.8769 18.9887 15.7746 19.7464 16.1829 20.1912C16.5907 20.6366 17.3541 20.6011 17.8882 20.1119C18.4224 19.6226 18.5242 18.865 18.1159 18.4201Z" fill="#4D4D4F"/>
<path d="M28.4787 19.769C28.6012 20.2505 28.9171 20.4929 29.4264 20.4964C29.7667 20.506 30.0991 20.3925 30.3626 20.1768C30.3774 20.1649 30.3958 20.1585 30.4148 20.1586H31.4329C31.4393 20.1587 31.4453 20.1613 31.4498 20.1657C31.4543 20.1702 31.4568 20.1762 31.457 20.1826C31.4568 20.1868 31.4555 20.191 31.4533 20.1946C31.0875 20.7825 30.5537 21.1771 29.8519 21.3783C28.8713 21.6597 27.8009 21.1898 27.5597 20.1727C27.4552 19.7555 27.482 19.3162 27.6365 18.9148C27.875 18.318 28.3042 17.8169 28.8572 17.4894C29.6775 17.0022 30.8581 16.9672 31.4789 17.8141C31.8851 18.3702 31.9055 19.0767 31.646 19.7158C31.6432 19.7224 31.6386 19.728 31.6326 19.732C31.6267 19.736 31.6197 19.7382 31.6126 19.7382H28.5058C28.5024 19.7382 28.4991 19.7388 28.4959 19.74C28.4928 19.7413 28.49 19.7432 28.4876 19.7456C28.4852 19.748 28.4833 19.7508 28.482 19.7539C28.4808 19.7571 28.4802 19.7604 28.4802 19.7638C28.4794 19.7654 28.4788 19.7672 28.4787 19.769ZM29.7981 18.1097C29.3715 18.1551 28.8583 18.4287 28.6546 18.8443C28.6535 18.8467 28.6528 18.8492 28.6526 18.8518C28.6524 18.8544 28.6527 18.857 28.6536 18.8595C28.6544 18.862 28.6557 18.8642 28.6574 18.8662C28.6591 18.8682 28.6612 18.8698 28.6635 18.871C28.6664 18.8717 28.6695 18.8717 28.6724 18.871H30.844C30.8638 18.871 30.8722 18.861 30.8685 18.8417C30.7792 18.3175 30.3093 18.0548 29.7976 18.1097H29.7981Z" fill="#4D4D4F"/>
<path d="M33.5288 17.6392C34.0128 17.1557 34.7485 16.9949 35.3704 17.3046C36.0131 17.6257 36.0653 18.329 35.9526 18.9493C35.8185 19.6883 35.6729 20.4738 35.5155 21.3057C35.5142 21.3125 35.5105 21.3186 35.5052 21.323C35.4999 21.3274 35.4932 21.3298 35.4863 21.3297H34.56C34.5545 21.3297 34.5491 21.3275 34.5452 21.3236C34.5413 21.3197 34.5391 21.3144 34.5391 21.3089C34.5391 21.3089 34.5391 21.3089 34.5391 21.3052C34.6742 20.5916 34.8105 19.8681 34.948 19.1347C34.9703 19.009 34.9809 18.8816 34.9798 18.754C34.9798 18.0752 34.2916 17.9661 33.8128 18.2533C33.4212 18.4877 33.3241 18.9968 33.2442 19.4307C33.13 20.0482 33.0132 20.6727 32.8939 21.3042C32.8924 21.3113 32.8885 21.3176 32.8829 21.3222C32.8773 21.3268 32.8703 21.3292 32.863 21.3292H31.9399C31.9341 21.3292 31.9285 21.3269 31.9244 21.3228C31.9203 21.3187 31.918 21.3131 31.918 21.3073C31.918 21.3073 31.918 21.3047 31.918 21.3036L32.6552 17.3082C32.6556 17.3031 32.657 17.2981 32.6594 17.2935C32.6617 17.2889 32.665 17.2849 32.6689 17.2816C32.6729 17.2783 32.6774 17.2758 32.6823 17.2743C32.6872 17.2727 32.6924 17.2722 32.6975 17.2727H33.5121C33.5439 17.2727 33.557 17.2884 33.5512 17.3192L33.4959 17.6215C33.4886 17.6626 33.4995 17.6685 33.5288 17.6392Z" fill="#4D4D4F"/>
<path d="M24.6416 18.1153L24.7956 17.2851C24.7963 17.2812 24.7984 17.2776 24.8014 17.2751C24.8045 17.2725 24.8083 17.2711 24.8123 17.271H27.5353C27.5398 17.271 27.5442 17.2727 27.5475 17.2758C27.5508 17.2789 27.5528 17.2832 27.553 17.2877C27.553 17.2877 27.553 17.2877 27.553 17.2914L27.3964 18.132C27.3958 18.1354 27.3941 18.1385 27.3917 18.1409L25.1914 20.4383C25.1898 20.4399 25.1885 20.4418 25.1876 20.4439C25.1867 20.446 25.1863 20.4483 25.1863 20.4506C25.1863 20.4529 25.1867 20.4551 25.1876 20.4572C25.1885 20.4593 25.1898 20.4612 25.1914 20.4628C25.1946 20.4657 25.1986 20.4673 25.2029 20.4675H27.069C27.0735 20.4675 27.0779 20.4693 27.0812 20.4724C27.0845 20.4755 27.0865 20.4797 27.0868 20.4843C27.0868 20.4843 27.0868 20.4869 27.0868 20.4879L26.9301 21.3186C26.9294 21.3226 26.9273 21.3261 26.9243 21.3287C26.9212 21.3312 26.9174 21.3327 26.9134 21.3327H23.8615C23.857 21.3327 23.8526 21.331 23.8493 21.3279C23.846 21.3248 23.844 21.3205 23.8438 21.316C23.8438 21.316 23.8438 21.3134 23.8438 21.3124L24.0004 20.4769C24.001 20.4736 24.0027 20.4705 24.0051 20.4681L26.209 18.1665C26.2107 18.1649 26.212 18.163 26.2128 18.1608C26.2137 18.1587 26.2142 18.1565 26.2142 18.1542C26.2142 18.1519 26.2137 18.1497 26.2128 18.1475C26.212 18.1454 26.2107 18.1435 26.209 18.1419C26.2059 18.1391 26.2018 18.1374 26.1976 18.1372H24.6604C24.6558 18.1372 24.6515 18.1355 24.6482 18.1324C24.6449 18.1293 24.6429 18.125 24.6426 18.1205C24.6426 18.1205 24.6416 18.1163 24.6416 18.1153Z" fill="#4D4D4F"/>
<circle cx="20" cy="20" r="19.5" stroke="black" stroke-opacity="0.05"/>
</svg>
