<svg width="40" height="40" viewBox="0 0 40 40" fill="none" xmlns="http://www.w3.org/2000/svg">
<circle cx="20" cy="20" r="20" fill="#06A7E2"/>
<path d="M22.1491 17.6416C22.1491 17.7217 22.1665 17.7256 22.2008 17.6532C23.5409 14.8419 26.5563 13.1019 29.7146 13.5412C31.3687 13.7713 32.913 14.5479 34.0405 15.7788C35.3327 17.1874 35.986 18.8425 36.0002 20.7443C36.0015 22.1902 35.5696 23.6032 34.7603 24.8014C33.4977 26.6428 31.5716 27.7852 29.3463 27.9829C28.929 28.0196 28.5091 28.0172 28.0922 27.9758C26.7455 27.8488 25.4612 27.348 24.3839 26.5301C23.3066 25.7121 22.4793 24.6093 21.9953 23.3463C21.9805 23.3088 21.9953 23.2901 22.0347 23.2901H22.5755C22.5967 23.2887 22.6177 23.2943 22.6355 23.3059C22.6532 23.3176 22.6666 23.3347 22.6738 23.3547C23.1493 24.5533 24.0894 25.6258 25.1523 26.3114C27.8867 28.0785 31.5361 27.623 33.6942 25.1567C34.9778 23.6896 35.5249 21.9771 35.3353 20.0194C35.0161 16.7312 32.1577 14.1318 28.854 14.104C26.0233 14.0801 23.5964 15.753 22.5671 18.3762C22.5623 18.3885 22.5624 18.4022 22.5677 18.4143C22.5729 18.4264 22.5827 18.436 22.5949 18.4409C22.6011 18.4434 22.6077 18.4447 22.6143 18.4447H24.9249C24.9295 18.4441 24.9342 18.4445 24.9386 18.446C24.9431 18.4475 24.9471 18.45 24.9504 18.4533C24.9536 18.4567 24.9561 18.4607 24.9575 18.4652C24.9589 18.4696 24.9592 18.4744 24.9585 18.479V18.9959C24.9583 19.005 24.9545 19.0137 24.948 19.0201C24.9415 19.0265 24.9327 19.0301 24.9236 19.0301H21.534C21.5291 19.0309 21.5242 19.0305 21.5195 19.029C21.5148 19.0275 21.5106 19.0249 21.5071 19.0214C21.5037 19.018 21.5011 19.0137 21.4996 19.0091C21.498 19.0044 21.4977 18.9994 21.4984 18.9946V15.9888C21.4978 15.9843 21.4982 15.9797 21.4996 15.9754C21.501 15.9712 21.5035 15.9673 21.5067 15.9641C21.5099 15.9609 21.5138 15.9584 21.518 15.957C21.5223 15.9556 21.5269 15.9552 21.5314 15.9558H22.1129C22.1178 15.9551 22.1227 15.9554 22.1274 15.957C22.132 15.9585 22.1363 15.9611 22.1398 15.9645C22.1432 15.968 22.1458 15.9722 22.1473 15.9769C22.1488 15.9816 22.1492 15.9865 22.1484 15.9914L22.1491 17.6416Z" fill="white"/>
<path d="M12.2449 18.0919C12.2449 18.3417 12.1456 18.5813 11.969 18.758C11.7923 18.9347 11.5527 19.0339 11.3028 19.0339H9.29983C9.05042 19.0332 8.81147 18.9337 8.63536 18.7571C8.45925 18.5805 8.36035 18.3413 8.36035 18.0919V16.8371C8.36035 16.5872 8.4596 16.3476 8.63627 16.1709C8.81294 15.9943 9.05256 15.895 9.30241 15.895H11.3054C11.5553 15.895 11.7949 15.9943 11.9716 16.1709C12.1482 16.3476 12.2475 16.5872 12.2475 16.8371L12.2449 18.0919ZM11.5839 16.8681C11.583 16.7649 11.5414 16.6662 11.468 16.5935C11.3947 16.5209 11.2956 16.4802 11.1923 16.4804L9.40902 16.4836C9.30585 16.4847 9.20725 16.5264 9.13465 16.5997C9.06206 16.673 9.02134 16.772 9.02134 16.8752V18.0576C9.02134 18.1089 9.0315 18.1596 9.05122 18.2069C9.07094 18.2542 9.09985 18.2971 9.13626 18.3331C9.17267 18.3692 9.21587 18.3977 9.26335 18.4169C9.31083 18.4362 9.36166 18.4458 9.4129 18.4453L11.1962 18.444C11.2994 18.4432 11.3981 18.4015 11.4708 18.3281C11.5434 18.2548 11.5841 18.1557 11.5839 18.0525V16.8681Z" fill="white"/>
<path d="M6.99594 15.9583H7.78357C7.7894 15.9583 7.79499 15.9606 7.79911 15.9647C7.80323 15.9688 7.80554 15.9744 7.80554 15.9802V19.0119C7.80554 19.0177 7.80323 19.0233 7.79911 19.0274C7.79499 19.0315 7.7894 19.0338 7.78357 19.0338H7.1775C7.17168 19.0338 7.16609 19.0315 7.16197 19.0274C7.15785 19.0233 7.15553 19.0177 7.15553 19.0119V17.098C7.15545 17.0951 7.1548 17.0923 7.15362 17.0897C7.15244 17.087 7.15075 17.0847 7.14865 17.0827C7.14655 17.0807 7.14408 17.0792 7.14138 17.0781C7.13868 17.0771 7.13581 17.0766 7.13292 17.0767C7.12903 17.0768 7.12523 17.0779 7.12193 17.0799C7.11863 17.082 7.11595 17.0849 7.11418 17.0883L6.14951 19.0216C6.14767 19.0252 6.1449 19.0282 6.14149 19.0303C6.13808 19.0325 6.13416 19.0337 6.13013 19.0338H5.70368C5.69965 19.0337 5.69572 19.0325 5.69231 19.0303C5.68891 19.0282 5.68614 19.0252 5.68429 19.0216L4.72802 17.1032C4.72673 17.1006 4.72492 17.0983 4.7227 17.0964C4.72048 17.0945 4.7179 17.0931 4.71512 17.0923C4.71233 17.0914 4.7094 17.0911 4.70651 17.0915C4.70362 17.0918 4.70082 17.0927 4.6983 17.0942C4.69484 17.0959 4.69192 17.0986 4.68987 17.1019C4.68782 17.1052 4.68672 17.109 4.68667 17.1129V19.0112C4.68667 19.0171 4.68435 19.0226 4.68023 19.0268C4.67611 19.0309 4.67053 19.0332 4.6647 19.0332H4.04248C4.03665 19.0332 4.03106 19.0309 4.02694 19.0268C4.02282 19.0226 4.02051 19.0171 4.02051 19.0112V15.9815C4.02051 15.9757 4.02282 15.9701 4.02694 15.966C4.03106 15.9619 4.03665 15.9596 4.04248 15.9596H4.83851C4.84257 15.9595 4.84656 15.9607 4.84999 15.9629C4.85343 15.965 4.85617 15.9681 4.85789 15.9718L5.89752 18.0724C5.89882 18.075 5.90062 18.0773 5.90283 18.0792C5.90503 18.0811 5.90759 18.0826 5.91035 18.0835C5.91312 18.0844 5.91604 18.0847 5.91893 18.0845C5.92183 18.0842 5.92466 18.0834 5.92724 18.0821C5.93151 18.0801 5.93494 18.0767 5.93693 18.0724L6.97074 15.9705C6.97275 15.9658 6.97641 15.9619 6.98104 15.9597C6.98567 15.9574 6.99097 15.9569 6.99594 15.9583Z" fill="white"/>
<path d="M16.6188 17.9447C16.5542 18.68 16.1665 19.0315 15.4383 19.0321H12.8403C12.8317 19.0321 12.8235 19.0287 12.8174 19.0227C12.8113 19.0166 12.8079 19.0084 12.8079 18.9998V15.9889C12.8073 15.9846 12.8076 15.9803 12.809 15.9763C12.8103 15.9722 12.8125 15.9685 12.8156 15.9655C12.8186 15.9624 12.8223 15.9602 12.8263 15.9589C12.8304 15.9575 12.8347 15.9572 12.839 15.9578H15.5663C15.6619 15.9613 15.757 15.9732 15.8506 15.9934C16.394 16.0935 16.5826 16.5219 16.6221 17.0162C16.6466 17.3253 16.6455 17.6358 16.6188 17.9447ZM13.4573 16.5807L13.4638 18.4131C13.4639 18.4229 13.4679 18.4321 13.4747 18.439C13.4816 18.4459 13.4909 18.4498 13.5006 18.45L15.4694 18.4442C15.5379 18.443 15.6055 18.4282 15.6683 18.4007C15.7311 18.3731 15.7878 18.3333 15.835 18.2837C15.8823 18.234 15.9192 18.1754 15.9436 18.1113C15.968 18.0473 15.9795 17.979 15.9772 17.9105V17.0653C15.9788 16.9971 15.9668 16.9293 15.942 16.8657C15.9172 16.8022 15.88 16.7441 15.8327 16.695C15.7854 16.6459 15.7288 16.6066 15.6662 16.5794C15.6036 16.5523 15.5363 16.5378 15.4681 16.5368L13.4987 16.5439C13.4935 16.5432 13.4882 16.5437 13.4832 16.5453C13.4782 16.5468 13.4736 16.5494 13.4696 16.5529C13.4657 16.5564 13.4626 16.5607 13.4605 16.5655C13.4583 16.5703 13.4573 16.5755 13.4573 16.5807Z" fill="white"/>
<path d="M17.8845 16.5651V17.1311C17.8845 17.1369 17.8868 17.1425 17.8909 17.1466C17.895 17.1507 17.9006 17.1531 17.9064 17.1531H20.7533C20.7591 17.1531 20.7647 17.1554 20.7688 17.1595C20.773 17.1636 20.7753 17.1692 20.7753 17.175V17.7204C20.7753 17.7262 20.773 17.7318 20.7688 17.7359C20.7647 17.74 20.7591 17.7423 20.7533 17.7423H17.9058C17.9 17.7423 17.8944 17.7446 17.8903 17.7488C17.8861 17.7529 17.8838 17.7585 17.8838 17.7643V18.4259C17.8838 18.4318 17.8861 18.4374 17.8903 18.4415C17.8944 18.4456 17.9 18.4479 17.9058 18.4479H20.8683C20.8741 18.4479 20.8797 18.4502 20.8838 18.4543C20.888 18.4585 20.8903 18.4641 20.8903 18.4699V19.0152C20.8903 19.021 20.888 19.0266 20.8838 19.0307C20.8797 19.0349 20.8741 19.0372 20.8683 19.0372H17.2261C17.2202 19.0372 17.2147 19.0349 17.2105 19.0307C17.2064 19.0266 17.2041 19.021 17.2041 19.0152V15.9849C17.2041 15.979 17.2064 15.9734 17.2105 15.9693C17.2147 15.9652 17.2202 15.9629 17.2261 15.9629H20.8651C20.8709 15.9629 20.8765 15.9652 20.8806 15.9693C20.8847 15.9734 20.887 15.979 20.887 15.9849V16.527C20.887 16.5328 20.8847 16.5384 20.8806 16.5425C20.8765 16.5466 20.8709 16.5489 20.8651 16.5489H17.9058C17.901 16.5489 17.8963 16.5505 17.8924 16.5534C17.8885 16.5563 17.8858 16.5604 17.8845 16.5651Z" fill="white"/>
<path d="M7.13865 21.5674C7.04632 21.5226 6.94466 21.5005 6.84208 21.5028C6.22136 21.5118 5.60344 21.5082 4.98833 21.4918C4.83364 21.4844 4.68034 21.459 4.53151 21.4162C4.04498 21.2818 3.96873 20.8192 4.00944 20.3824C4.06177 19.828 4.46173 19.682 4.94762 19.6283C5.06393 19.6156 5.18082 19.6089 5.29782 19.6083C5.91036 19.6083 6.54809 19.5624 7.14705 19.6813C7.61097 19.7739 7.82161 20.0783 7.77897 20.5943C7.7792 20.6013 7.77792 20.6083 7.77522 20.6147C7.77251 20.6212 7.76844 20.627 7.76328 20.6317C7.75812 20.6364 7.752 20.64 7.74534 20.6421C7.73868 20.6442 7.73164 20.6449 7.72469 20.6441H7.17289C7.16513 20.6453 7.15717 20.6446 7.14976 20.642C7.14234 20.6393 7.13569 20.6349 7.13043 20.6291C7.12516 20.6232 7.12144 20.6161 7.11961 20.6085C7.11777 20.6008 7.11787 20.5929 7.11991 20.5853C7.1296 20.4767 7.1309 20.3268 6.99909 20.2887C6.82459 20.2418 6.64477 20.2177 6.46409 20.217C6.08029 20.2135 5.68529 20.2135 5.27909 20.217C5.11778 20.2175 4.95723 20.2392 4.80159 20.2816C4.62391 20.3307 4.62326 20.593 4.66203 20.73C4.66908 20.7544 4.68248 20.7766 4.70087 20.7942C4.71925 20.8118 4.74197 20.8242 4.7667 20.8301C4.88635 20.8623 5.00926 20.8807 5.13306 20.8851C5.72104 20.8851 6.30083 20.8851 6.87244 20.8851C7.28532 20.8851 7.76927 21.0466 7.83066 21.5118C7.86361 21.7573 7.87265 22.0617 7.78026 22.2904C7.62196 22.6833 7.15997 22.7802 6.77488 22.7789L4.98251 22.7731C4.79204 22.7716 4.60393 22.7307 4.43007 22.6529C4.06436 22.4926 3.9823 22.1405 4.01461 21.7696C4.01439 21.7648 4.01521 21.7601 4.01702 21.7556C4.01883 21.7512 4.02158 21.7472 4.02509 21.744C4.02859 21.7407 4.03276 21.7382 4.03731 21.7368C4.04187 21.7353 4.04668 21.7348 4.05144 21.7354H4.6084C4.64135 21.7354 4.65557 21.7515 4.6504 21.7845C4.62111 21.9805 4.66677 22.097 4.78738 22.134C4.88099 22.1637 4.97866 22.1785 5.07685 22.178C5.6476 22.1741 6.21296 22.1741 6.77294 22.178C6.8796 22.1795 6.98529 22.1574 7.08244 22.1134C7.24655 22.0384 7.22782 21.7561 7.18194 21.6171C7.17849 21.6063 7.17287 21.5963 7.16543 21.5878C7.15798 21.5792 7.14887 21.5723 7.13865 21.5674Z" fill="white"/>
<path d="M12.25 21.8113C12.2505 21.9371 12.2262 22.0619 12.1785 22.1784C12.1308 22.2949 12.0606 22.4008 11.9719 22.4902C11.8832 22.5795 11.7778 22.6505 11.6616 22.6991C11.5455 22.7477 11.4209 22.7729 11.295 22.7733L9.32174 22.7805C9.19577 22.781 9.07093 22.7566 8.95436 22.7089C8.83779 22.6611 8.73177 22.5909 8.64236 22.5021C8.55295 22.4134 8.48191 22.3079 8.43329 22.1917C8.38467 22.0755 8.35943 21.9508 8.35901 21.8248L8.35254 20.5804C8.35169 20.3262 8.4518 20.082 8.63087 19.9016C8.80995 19.7212 9.05333 19.6193 9.30753 19.6183L11.2808 19.6118C11.4067 19.6113 11.5315 19.6356 11.648 19.6833C11.7646 19.731 11.8706 19.8012 11.96 19.8899C12.0494 19.9786 12.1204 20.084 12.1691 20.2002C12.2177 20.3163 12.243 20.4409 12.2435 20.5668L12.25 21.8113ZM11.5832 20.6043C11.5832 20.5015 11.5424 20.4029 11.4697 20.3302C11.3969 20.2574 11.2983 20.2166 11.1955 20.2166H9.40832C9.3055 20.2166 9.2069 20.2574 9.13419 20.3302C9.06149 20.4029 9.02064 20.5015 9.02064 20.6043V21.7854C9.02064 21.8882 9.06149 21.9868 9.13419 22.0595C9.2069 22.1322 9.3055 22.1731 9.40832 22.1731H11.1955C11.2983 22.1731 11.3969 22.1322 11.4697 22.0595C11.5424 21.9868 11.5832 21.8882 11.5832 21.7854V20.6043Z" fill="white"/>
<path d="M29.4355 21.84C29.4355 22.0885 29.3368 22.3268 29.1611 22.5025C28.9854 22.6782 28.7471 22.7769 28.4986 22.7769H26.5092C26.2607 22.7769 26.0224 22.6782 25.8467 22.5025C25.671 22.3268 25.5723 22.0885 25.5723 21.84V20.5516C25.5723 20.3032 25.671 20.0649 25.8467 19.8892C26.0224 19.7135 26.2607 19.6147 26.5092 19.6147H28.5018C28.7503 19.6147 28.9886 19.7135 29.1643 19.8892C29.34 20.0649 29.4387 20.3032 29.4387 20.5516L29.4355 21.84ZM28.7706 20.5852C28.7705 20.5369 28.7609 20.489 28.7423 20.4443C28.7237 20.3997 28.6965 20.3591 28.6623 20.325C28.628 20.2909 28.5874 20.2638 28.5427 20.2454C28.4979 20.2269 28.45 20.2175 28.4017 20.2176H26.5925C26.4949 20.2179 26.4014 20.2569 26.3325 20.3261C26.2636 20.3953 26.2249 20.4889 26.2249 20.5865V21.8051C26.2249 21.8535 26.2344 21.9014 26.253 21.9461C26.2715 21.9908 26.2987 22.0314 26.333 22.0656C26.3673 22.0997 26.408 22.1268 26.4527 22.1452C26.4975 22.1636 26.5454 22.1729 26.5938 22.1728L28.403 22.1695C28.5001 22.1694 28.5932 22.1309 28.6621 22.0624C28.7309 21.9939 28.7699 21.901 28.7706 21.8038V20.5852Z" fill="white"/>
<path d="M13.4983 22.1587H16.1275C16.13 22.1586 16.1326 22.1591 16.135 22.16C16.1374 22.161 16.1395 22.1624 16.1414 22.1642C16.1432 22.166 16.1446 22.1682 16.1455 22.1706C16.1465 22.173 16.1469 22.1755 16.1468 22.1781V22.7325C16.1468 22.7376 16.1448 22.7426 16.1412 22.7462C16.1375 22.7498 16.1326 22.7519 16.1275 22.7519H12.829C12.8238 22.7519 12.8189 22.7498 12.8152 22.7462C12.8116 22.7426 12.8096 22.7376 12.8096 22.7325L12.8115 19.6756C12.8114 19.6731 12.8119 19.6705 12.8128 19.6681C12.8137 19.6657 12.8152 19.6636 12.817 19.6617C12.8188 19.6599 12.821 19.6585 12.8234 19.6576C12.8258 19.6566 12.8283 19.6562 12.8309 19.6563H13.4596C13.4621 19.6562 13.4647 19.6566 13.4671 19.6576C13.4695 19.6585 13.4717 19.6599 13.4735 19.6617C13.4753 19.6636 13.4767 19.6657 13.4777 19.6681C13.4786 19.6705 13.4791 19.6731 13.479 19.6756V22.1413C13.4794 22.1461 13.4817 22.1505 13.4853 22.1538C13.4889 22.157 13.4935 22.1588 13.4983 22.1587Z" fill="white"/>
<path d="M17.288 22.1211C17.3367 22.1434 17.3886 22.158 17.4417 22.1644C17.8811 22.176 18.3993 22.1801 18.9963 22.1767C19.1316 22.1763 19.2664 22.1609 19.3982 22.1308C19.4317 22.1231 19.4616 22.1043 19.4831 22.0774C19.5046 22.0505 19.5163 22.0172 19.5165 21.9828L19.5242 19.6929C19.5236 19.6879 19.5241 19.6828 19.5258 19.678C19.5274 19.6731 19.5302 19.6688 19.5338 19.6652C19.5374 19.6616 19.5419 19.659 19.5467 19.6574C19.5515 19.6558 19.5567 19.6554 19.5617 19.6561H20.1477C20.1757 19.6561 20.1893 19.6697 20.1885 19.6968C20.1841 20.4907 20.1829 21.2445 20.1846 21.9583C20.1846 22.6135 19.7174 22.7756 19.174 22.7789C18.6106 22.7823 18.056 22.7823 17.5102 22.7789C17.3243 22.7786 17.1396 22.7478 16.9636 22.6878C16.6789 22.5719 16.5342 22.3457 16.5294 22.0093C16.5204 21.3089 16.5182 20.5353 16.523 19.6884C16.5224 19.6841 16.5229 19.6797 16.5243 19.6755C16.5258 19.6714 16.5281 19.6677 16.5313 19.6646C16.5344 19.6615 16.5382 19.6592 16.5423 19.6579C16.5465 19.6565 16.5509 19.6561 16.5553 19.6568H17.1852C17.1877 19.6567 17.1903 19.6571 17.1926 19.658C17.195 19.6589 17.1971 19.6603 17.1989 19.662C17.2007 19.6638 17.2022 19.6659 17.2031 19.6682C17.2041 19.6705 17.2046 19.673 17.2046 19.6755V22.0067C17.2059 22.0318 17.2144 22.056 17.2292 22.0763C17.2441 22.0967 17.2645 22.1122 17.288 22.1211Z" fill="white"/>
<path d="M21.881 20.2578H20.5132C20.5106 20.2578 20.5081 20.2573 20.5058 20.2563C20.5034 20.2553 20.5013 20.2539 20.4995 20.2521C20.4977 20.2503 20.4962 20.2482 20.4953 20.2458C20.4943 20.2435 20.4938 20.2409 20.4938 20.2384L20.4893 19.6717C20.4892 19.6692 20.4896 19.6666 20.4906 19.6642C20.4915 19.6618 20.4929 19.6597 20.4947 19.6578C20.4966 19.656 20.4987 19.6546 20.5011 19.6536C20.5035 19.6527 20.5061 19.6523 20.5087 19.6524H23.9706C23.9732 19.6523 23.9758 19.6527 23.9781 19.6536C23.9805 19.6546 23.9827 19.656 23.9845 19.6578C23.9863 19.6597 23.9878 19.6618 23.9887 19.6642C23.9897 19.6666 23.9901 19.6692 23.99 19.6717V20.2371C23.99 20.2422 23.988 20.2472 23.9843 20.2508C23.9807 20.2544 23.9758 20.2565 23.9706 20.2565H22.5937C22.5911 20.2564 22.5886 20.2568 22.5862 20.2578C22.5838 20.2587 22.5816 20.2601 22.5798 20.262C22.578 20.2638 22.5766 20.266 22.5756 20.2683C22.5747 20.2707 22.5742 20.2733 22.5743 20.2759V22.7312C22.5743 22.7363 22.5723 22.7412 22.5687 22.7449C22.565 22.7485 22.5601 22.7506 22.5549 22.7506H21.9211C21.916 22.7506 21.911 22.7485 21.9074 22.7449C21.9038 22.7412 21.9017 22.7363 21.9017 22.7312V20.2759C21.9016 20.2733 21.901 20.2708 21.8999 20.2684C21.8988 20.2661 21.8973 20.264 21.8953 20.2623C21.8934 20.2606 21.8911 20.2593 21.8887 20.2586C21.8862 20.2578 21.8836 20.2575 21.881 20.2578Z" fill="white"/>
<path d="M24.9834 22.7342C24.9834 22.7387 24.9817 22.743 24.9785 22.7461C24.9754 22.7493 24.9711 22.751 24.9666 22.751H24.3205C24.3161 22.751 24.3118 22.7493 24.3086 22.7461C24.3055 22.743 24.3037 22.7387 24.3037 22.7342V19.6716C24.3037 19.6671 24.3055 19.6629 24.3086 19.6597C24.3118 19.6566 24.3161 19.6548 24.3205 19.6548H24.9666C24.9711 19.6548 24.9754 19.6566 24.9785 19.6597C24.9817 19.6629 24.9834 19.6671 24.9834 19.6716V22.7342Z" fill="white"/>
<path d="M33.1456 21.893C33.1531 21.885 33.1573 21.8743 33.1572 21.8633C33.1572 21.0961 33.1572 20.3729 33.1572 19.6936C33.1565 19.6884 33.1569 19.6831 33.1586 19.6782C33.1602 19.6732 33.163 19.6687 33.1667 19.665C33.1704 19.6613 33.1749 19.6585 33.1799 19.6568C33.1849 19.6552 33.1902 19.6547 33.1954 19.6555H33.7814C33.7867 19.6547 33.7922 19.6552 33.7973 19.6569C33.8024 19.6586 33.807 19.6615 33.8108 19.6653C33.8146 19.6692 33.8174 19.6739 33.819 19.679C33.8206 19.6841 33.821 19.6896 33.8202 19.6949V22.7084C33.8209 22.7138 33.8205 22.7192 33.8187 22.7243C33.817 22.7294 33.8141 22.7341 33.8103 22.7378C33.8065 22.7416 33.8018 22.7444 33.7966 22.7461C33.7915 22.7477 33.7861 22.7481 33.7807 22.7472H33.0862C33.0601 22.7469 33.0352 22.7368 33.0164 22.7188L30.7129 20.5006C30.7112 20.4989 30.7092 20.4975 30.707 20.4966C30.7048 20.4957 30.7024 20.4952 30.7 20.4952C30.6976 20.4952 30.6952 20.4957 30.693 20.4966C30.6908 20.4975 30.6888 20.4989 30.6871 20.5006C30.6854 20.5023 30.6841 20.5043 30.6832 20.5066C30.6823 20.5088 30.6819 20.5111 30.6819 20.5135V22.7104C30.6825 22.7156 30.682 22.7209 30.6803 22.7259C30.6785 22.7308 30.6757 22.7353 30.6719 22.739C30.6682 22.7427 30.6636 22.7455 30.6586 22.7471C30.6536 22.7488 30.6483 22.7492 30.6431 22.7485H30.0616C30.0566 22.749 30.0515 22.7484 30.0468 22.7467C30.042 22.745 30.0377 22.7422 30.0342 22.7386C30.0306 22.735 30.028 22.7307 30.0263 22.7259C30.0247 22.7211 30.0242 22.716 30.0248 22.711V19.691C30.024 19.686 30.0244 19.6809 30.026 19.6761C30.0276 19.6712 30.0303 19.6669 30.0339 19.6633C30.0375 19.6597 30.0418 19.657 30.0467 19.6554C30.0515 19.6538 30.0566 19.6534 30.0616 19.6542H30.7646C30.7868 19.6542 30.8081 19.6628 30.8241 19.6781L33.1288 21.8937C33.1299 21.8948 33.1313 21.8956 33.1327 21.8962C33.1342 21.8967 33.1358 21.897 33.1373 21.8969C33.1389 21.8969 33.1405 21.8965 33.1419 21.8958C33.1433 21.8952 33.1446 21.8942 33.1456 21.893Z" fill="white"/>
<circle cx="20" cy="20" r="19.5" stroke="black" stroke-opacity="0.05"/>
</svg>
