<svg width="40" height="40" viewBox="0 0 40 40" fill="none" xmlns="http://www.w3.org/2000/svg">
<circle cx="20" cy="20" r="20" fill="#F6F8FA"/>
<path d="M6.14036 23.2399C7.31126 23.4222 8.44911 22.9499 9.10606 21.9624C9.46958 21.4162 9.63273 20.8124 9.5955 20.1511C9.4673 17.8857 6.89418 16.5763 4.98998 17.8709C4.43501 18.2477 4.04338 18.7726 3.81509 19.4457C3.81433 19.448 3.81281 19.4486 3.81053 19.4474C3.71253 19.4034 3.70911 19.4028 3.80028 19.4457C3.80218 19.4469 3.80332 19.4463 3.8037 19.444C4.00882 18.1033 5.01733 17.0236 6.30275 16.6869C7.14526 16.4658 7.95777 16.5509 8.74026 16.9421C10.6809 17.9125 11.2285 20.4879 9.84563 22.1619C8.93627 23.2633 7.47991 23.7048 6.13295 23.2638C6.1265 23.2615 6.12403 23.257 6.12555 23.2502C6.12745 23.2422 6.13238 23.2388 6.14036 23.2399Z" fill="#017BC8"/>
<path d="M14.1935 20.1812C14.1749 20.1816 14.1688 20.1905 14.1753 20.208L15.0624 22.6489C15.0636 22.6522 15.064 22.6557 15.0635 22.6592C15.0631 22.6627 15.0618 22.666 15.0598 22.6688C15.0578 22.6717 15.0551 22.674 15.052 22.6756C15.0489 22.6772 15.0454 22.678 15.0419 22.678L14.2306 22.6751C14.2119 22.6751 14.1996 22.6664 14.1935 22.6489C13.9071 21.8455 13.6258 21.0549 13.3497 20.2769C13.2935 20.1178 13.2767 19.9056 13.2995 19.6405C13.3001 19.6326 13.3037 19.6252 13.3095 19.6198C13.3153 19.6144 13.3229 19.6114 13.3309 19.6114H14.0739C14.0944 19.6114 14.1046 19.601 14.1046 19.5801V17.889C14.1046 17.8772 14.0987 17.8713 14.087 17.8713L13.0887 17.8725C13.0785 17.8725 13.0733 17.8776 13.0733 17.8878L13.0728 22.6284C13.0728 22.6634 13.0553 22.6806 13.0203 22.6803L12.2751 22.6751C12.2666 22.675 12.2584 22.6716 12.2525 22.6656C12.2465 22.6596 12.2432 22.6516 12.2432 22.6432V17.1756C12.2432 17.1604 12.2508 17.1528 12.266 17.1528C12.9729 17.1532 13.6839 17.1534 14.3992 17.1534C14.7502 17.1534 14.927 17.3093 14.9297 17.6212C14.9354 18.311 14.9363 19.0033 14.9325 19.698C14.9297 20.1841 14.5519 20.1749 14.1935 20.1812Z" fill="#017BC8"/>
<path d="M16.3502 21.6554L16.1906 22.6554C16.1897 22.6613 16.1867 22.6668 16.1821 22.6708C16.1775 22.6747 16.1716 22.6769 16.1656 22.677L15.3924 22.6776C15.3885 22.6777 15.3847 22.6769 15.3812 22.6753C15.3777 22.6737 15.3746 22.6713 15.3722 22.6684C15.3697 22.6654 15.3679 22.6619 15.367 22.6582C15.366 22.6545 15.366 22.6506 15.3667 22.6468L16.4299 17.1672C16.4311 17.1615 16.4343 17.1563 16.4388 17.1525C16.4434 17.1488 16.4491 17.1467 16.455 17.1467L17.2886 17.1479C17.2945 17.1479 17.3002 17.1499 17.3048 17.1537C17.3093 17.1574 17.3125 17.1626 17.3137 17.1684L18.3655 22.6485C18.3662 22.6523 18.3662 22.6562 18.3652 22.6599C18.3643 22.6636 18.3625 22.6671 18.3601 22.6701C18.3576 22.673 18.3545 22.6754 18.351 22.677C18.3475 22.6786 18.3437 22.6794 18.3398 22.6793L17.5644 22.6759C17.5583 22.6758 17.5525 22.6736 17.5479 22.6696C17.5433 22.6657 17.5402 22.6602 17.5393 22.6542L17.3826 21.6531C17.3817 21.647 17.3785 21.6415 17.3738 21.6375C17.3691 21.6335 17.3631 21.6314 17.357 21.6315L16.3752 21.6337C16.3692 21.6338 16.3633 21.636 16.3587 21.64C16.3541 21.6439 16.3511 21.6494 16.3502 21.6554ZM16.8442 18.5934L16.4738 20.868C16.4689 20.8968 16.481 20.9113 16.5103 20.9113L17.2151 20.9118C17.2447 20.9122 17.2573 20.8978 17.2527 20.8685L16.8863 18.5934C16.8723 18.506 16.8582 18.506 16.8442 18.5934Z" fill="#017BC8"/>
<path d="M21.6117 22.241C21.6117 22.2981 21.6005 22.3546 21.5786 22.4073C21.5568 22.4601 21.5248 22.508 21.4844 22.5484C21.444 22.5887 21.3961 22.6208 21.3434 22.6426C21.2906 22.6645 21.2341 22.6757 21.177 22.6757H19.258C19.2009 22.6757 19.1444 22.6645 19.0916 22.6426C19.0389 22.6208 18.9909 22.5887 18.9506 22.5484C18.9102 22.508 18.8782 22.4601 18.8563 22.4073C18.8345 22.3546 18.8232 22.2981 18.8232 22.241V17.5893C18.8232 17.474 18.869 17.3634 18.9506 17.2819C19.0321 17.2003 19.1427 17.1545 19.258 17.1545H21.177C21.2923 17.1545 21.4029 17.2003 21.4844 17.2819C21.5659 17.3634 21.6117 17.474 21.6117 17.5893V22.241ZM20.7799 17.8947C20.7799 17.8917 20.7793 17.8887 20.7781 17.886C20.777 17.8832 20.7753 17.8807 20.7732 17.8786C20.7711 17.8765 20.7686 17.8748 20.7658 17.8736C20.763 17.8725 20.7601 17.8719 20.7571 17.8719H19.6779C19.6749 17.8719 19.672 17.8725 19.6692 17.8736C19.6664 17.8748 19.6639 17.8765 19.6618 17.8786C19.6597 17.8807 19.658 17.8832 19.6569 17.886C19.6557 17.8887 19.6551 17.8917 19.6551 17.8947V21.9356C19.6551 21.9416 19.6575 21.9474 19.6618 21.9517C19.6661 21.9559 19.6719 21.9583 19.6779 21.9583H20.7571C20.7601 21.9583 20.763 21.9578 20.7658 21.9566C20.7686 21.9555 20.7711 21.9538 20.7732 21.9517C20.7753 21.9496 20.777 21.947 20.7781 21.9443C20.7793 21.9415 20.7799 21.9386 20.7799 21.9356V17.8947Z" fill="#017BC8"/>
<path d="M23.055 19.3801C23.0584 19.4559 23.0778 19.5391 23.0778 19.6217C23.0774 20.6621 23.0769 21.6712 23.0761 22.6489C23.0761 22.6526 23.0754 22.6562 23.0739 22.6596C23.0725 22.663 23.0704 22.6661 23.0678 22.6687C23.0651 22.6713 23.062 22.6733 23.0585 22.6747C23.0551 22.6761 23.0513 22.6769 23.0476 22.6769L22.2881 22.6763C22.2827 22.6763 22.2774 22.6741 22.2736 22.6703C22.2697 22.6664 22.2676 22.6612 22.2676 22.6558L22.2687 17.1722C22.2687 17.1672 22.2706 17.1624 22.2741 17.1589C22.2775 17.1554 22.2821 17.1534 22.287 17.1534L22.9564 17.1517C22.9684 17.1517 22.9801 17.1552 22.9899 17.1618C22.9998 17.1684 23.0074 17.1778 23.0117 17.1887L24.2493 20.3755C24.2766 20.4454 24.2861 20.4431 24.2778 20.3687C24.266 20.2597 24.2599 20.1565 24.2595 20.0593C24.2542 19.0565 24.2538 18.0966 24.2584 17.1796C24.2584 17.1625 24.2669 17.1538 24.284 17.1534L25.0299 17.1511C25.0515 17.1508 25.0631 17.1614 25.0646 17.183C25.0753 17.3384 25.0806 17.4867 25.0806 17.628C25.0787 19.2455 25.0779 20.9086 25.0783 22.6176C25.0783 22.659 25.0576 22.6795 25.0162 22.6791L24.3934 22.6729C24.3554 22.6725 24.3298 22.6548 24.3165 22.6199L23.0829 19.3744C23.0613 19.3171 23.052 19.319 23.055 19.3801Z" fill="#017BC8"/>
<path d="M26.8879 17.6144L26.8896 22.6529C26.8896 22.6559 26.889 22.6589 26.8879 22.6616C26.8867 22.6644 26.885 22.6669 26.8829 22.669C26.8808 22.6711 26.8783 22.6728 26.8755 22.674C26.8728 22.6751 26.8698 22.6757 26.8668 22.6757L26.4155 22.6774C26.4095 22.6774 26.4037 22.675 26.3994 22.6707C26.3952 22.6665 26.3928 22.6607 26.3928 22.6546L26.3922 17.6144C26.3922 17.6083 26.3898 17.6025 26.3855 17.5982C26.3812 17.594 26.3754 17.5916 26.3694 17.5916L25.554 17.5904C25.548 17.5904 25.5422 17.588 25.5379 17.5837C25.5337 17.5795 25.5313 17.5737 25.5312 17.5676L25.5347 17.1773C25.5347 17.1713 25.5371 17.1655 25.5413 17.1612C25.5456 17.1569 25.5514 17.1545 25.5575 17.1545H27.7181C27.7241 17.1545 27.7299 17.1569 27.7342 17.1612C27.7385 17.1655 27.7409 17.1713 27.7409 17.1773L27.7426 17.5688C27.7426 17.5748 27.7402 17.5806 27.7359 17.5849C27.7316 17.5892 27.7258 17.5916 27.7198 17.5916H26.9107C26.9046 17.5916 26.8988 17.594 26.8946 17.5982C26.8903 17.6025 26.8879 17.6083 26.8879 17.6144Z" fill="#888888"/>
<path d="M28.8036 20.1169L28.8019 22.2148C28.8019 22.2207 28.8042 22.2264 28.8084 22.2305C28.8125 22.2347 28.8182 22.2371 28.8241 22.2371L30.1044 22.2399C30.1103 22.2399 30.1159 22.2422 30.1201 22.2464C30.1243 22.2506 30.1266 22.2562 30.1266 22.2621V22.6541C30.1266 22.66 30.1243 22.6657 30.1201 22.6698C30.1159 22.674 30.1103 22.6764 30.1044 22.6764H28.3341C28.3282 22.6764 28.3225 22.674 28.3184 22.6698C28.3142 22.6657 28.3118 22.66 28.3118 22.6541L28.3096 17.1763C28.3096 17.1704 28.3119 17.1647 28.3161 17.1606C28.3202 17.1564 28.3259 17.1541 28.3318 17.1541L30.0867 17.1563C30.0926 17.1563 30.0983 17.1587 30.1024 17.1628C30.1066 17.167 30.1089 17.1727 30.1089 17.1786V17.5689C30.1089 17.5747 30.1066 17.5804 30.1024 17.5846C30.0983 17.5887 30.0926 17.5911 30.0867 17.5911L28.8247 17.5928C28.8188 17.5928 28.8131 17.5951 28.8089 17.5993C28.8048 17.6035 28.8024 17.6091 28.8024 17.615L28.803 19.6269C28.803 19.6328 28.8053 19.6384 28.8095 19.6426C28.8137 19.6468 28.8193 19.6491 28.8252 19.6491L29.9676 19.6485C29.9735 19.6485 29.9792 19.6509 29.9833 19.6551C29.9875 19.6592 29.9898 19.6649 29.9898 19.6708V20.0708C29.9898 20.0766 29.9875 20.0823 29.9833 20.0865C29.9792 20.0906 29.9735 20.093 29.9676 20.093L28.8258 20.0947C28.8199 20.0947 28.8142 20.097 28.8101 20.1012C28.8059 20.1054 28.8036 20.111 28.8036 20.1169Z" fill="#888888"/>
<path d="M31.4113 22.2381H32.5639C32.589 22.2381 32.6015 22.2256 32.6015 22.2005L32.6027 20.9094C32.6027 20.8908 32.6118 20.8815 32.63 20.8815L33.0631 20.8809C33.0885 20.8809 33.1012 20.8935 33.1012 20.9185C33.102 21.3694 33.1028 21.8167 33.1035 22.2604C33.1035 22.5449 32.9427 22.6845 32.6209 22.6791C32.2042 22.6723 31.7813 22.6727 31.352 22.6803C31.0842 22.6848 30.8859 22.5703 30.8854 22.2797C30.8835 20.6965 30.8833 19.1289 30.8848 17.5768C30.8852 17.2961 31.0288 17.1553 31.3156 17.1546C31.782 17.1534 32.2414 17.1542 32.6939 17.1568C32.9844 17.158 33.1052 17.3454 33.1041 17.6036C33.1018 18.0658 33.1012 18.4687 33.1024 18.8121C33.1025 18.8157 33.1018 18.8193 33.1005 18.8227C33.0991 18.8261 33.0971 18.8292 33.0946 18.8318C33.092 18.8344 33.089 18.8364 33.0856 18.8378C33.0823 18.8392 33.0787 18.84 33.075 18.84L32.6306 18.8411C32.6112 18.8411 32.6015 18.8312 32.6015 18.8115V17.6246C32.6015 17.6026 32.5905 17.5916 32.5685 17.5916H31.4067C31.3999 17.5916 31.3934 17.5943 31.3886 17.5991C31.3838 17.6039 31.3811 17.6104 31.3811 17.6172V22.2074C31.3811 22.2114 31.3819 22.2154 31.3834 22.2191C31.3849 22.2229 31.3871 22.2263 31.3899 22.2291C31.3927 22.232 31.3961 22.2342 31.3997 22.2358C31.4034 22.2373 31.4073 22.2381 31.4113 22.2381Z" fill="#888888"/>
<path d="M35.7667 19.558V17.1751C35.7667 17.1691 35.7691 17.1633 35.7734 17.159C35.7777 17.1547 35.7835 17.1523 35.7895 17.1523L36.2419 17.1535C36.248 17.1535 36.2538 17.1559 36.258 17.1602C36.2623 17.1644 36.2647 17.1702 36.2647 17.1763L36.2653 22.6558C36.2653 22.6619 36.2629 22.6677 36.2586 22.672C36.2543 22.6762 36.2485 22.6786 36.2425 22.6786L35.7895 22.6769C35.7835 22.6769 35.7777 22.6745 35.7734 22.6702C35.7691 22.666 35.7667 22.6602 35.7667 22.6541V20.0491C35.7667 20.0431 35.7643 20.0373 35.7601 20.033C35.7558 20.0287 35.75 20.0263 35.7439 20.0263L34.4711 20.0274C34.465 20.0274 34.4592 20.0299 34.4549 20.0341C34.4507 20.0384 34.4483 20.0442 34.4483 20.0502L34.4494 22.6536C34.4494 22.6596 34.447 22.6654 34.4427 22.6697C34.4385 22.674 34.4327 22.6764 34.4266 22.6764L33.9759 22.6781C33.9729 22.6781 33.97 22.6775 33.9672 22.6763C33.9644 22.6752 33.9619 22.6735 33.9598 22.6714C33.9577 22.6693 33.956 22.6668 33.9549 22.664C33.9537 22.6612 33.9531 22.6583 33.9531 22.6553L33.9537 17.1763C33.9537 17.1702 33.9561 17.1644 33.9604 17.1602C33.9646 17.1559 33.9704 17.1535 33.9765 17.1535L34.426 17.1541C34.4321 17.1541 34.4379 17.1565 34.4422 17.1607C34.4464 17.165 34.4488 17.1708 34.4488 17.1768L34.4477 19.5585C34.4477 19.5646 34.4501 19.5704 34.4544 19.5746C34.4586 19.5789 34.4644 19.5813 34.4705 19.5813L35.7439 19.5807C35.7469 19.5807 35.7499 19.5802 35.7527 19.579C35.7554 19.5779 35.7579 19.5762 35.7601 19.5741C35.7622 19.572 35.7639 19.5694 35.765 19.5667C35.7661 19.5639 35.7667 19.5609 35.7667 19.558Z" fill="#888888"/>
<path d="M4.52141 20.182C4.52084 20.0845 4.51343 19.9922 4.53622 19.8959C4.66081 19.3778 4.91968 18.9624 5.31283 18.6498C6.28886 17.8744 7.66716 18.0971 8.38622 19.0817C8.71156 19.5273 8.85116 20.1352 8.7543 20.6845C8.643 21.3147 8.31348 21.8009 7.76573 22.1431C7.55605 22.2738 7.31636 22.3655 7.04667 22.4183C6.53539 22.519 6.05183 22.4447 5.59601 22.1956C5.50637 22.1466 5.42584 22.0882 5.35442 22.0206C5.34189 22.0085 5.34341 22.0062 5.35898 22.0138C6.03417 22.3477 6.71677 22.3112 7.29851 21.8138C7.77713 21.4047 7.94179 20.7289 7.76174 20.1409C7.45007 19.1227 6.21365 18.688 5.32309 19.2515C5.00743 19.4513 4.78958 19.7164 4.66955 20.0469C4.61219 20.2053 4.57098 20.3774 4.54591 20.5631C4.54477 20.5723 4.53945 20.5766 4.52995 20.5762L4.51343 20.5751C4.51077 20.5751 4.50944 20.574 4.50944 20.5717C4.50336 20.4555 4.49957 20.3341 4.49805 20.2076C4.49805 20.1992 4.50185 20.193 4.50944 20.1888C4.51134 20.188 4.51324 20.1877 4.51514 20.1877C4.51932 20.188 4.52141 20.1861 4.52141 20.182Z" fill="#017BC8"/>
<path d="M16.8862 18.5934L17.2526 20.8685C17.2572 20.8977 17.2446 20.9122 17.215 20.9118L16.5102 20.9112C16.4809 20.9112 16.4688 20.8968 16.4737 20.8679L16.8441 18.5934C16.8581 18.506 16.8722 18.506 16.8862 18.5934Z" fill="white"/>
<path d="M6.1709 21.4155C6.62348 21.4305 7.00219 21.086 7.01679 20.646C7.03139 20.206 6.67633 19.8371 6.22376 19.8221C5.77118 19.8071 5.39246 20.1516 5.37787 20.5916C5.36327 21.0316 5.71832 21.4005 6.1709 21.4155Z" fill="#017BC8"/>
<circle cx="20" cy="20" r="19.5" stroke="black" stroke-opacity="0.05"/>
</svg>
