<svg width="40" height="40" viewBox="0 0 40 40" fill="none" xmlns="http://www.w3.org/2000/svg">
<circle cx="20" cy="20" r="20" fill="#F6F8FA"/>
<g clip-path="url(#clip0_17752_43879)">
<path d="M19.8694 14.2381L12.6507 18.4104C12.6507 18.4104 12.6231 18.4173 12.6093 18.4104L9.02406 16.3415C9.00679 16.3312 8.99988 16.307 9.01024 16.2863C9.01369 16.2793 9.01715 16.2759 9.02406 16.2724L19.8694 10.007C19.8694 10.007 19.8971 10.0001 19.9109 10.007L30.7563 16.269C30.777 16.2793 30.7839 16.3035 30.7736 16.3242C30.7701 16.3312 30.7632 16.3381 30.7563 16.3415L27.1711 18.4104C27.1711 18.4104 27.1435 18.4173 27.1331 18.4104L19.9109 14.2415C19.9109 14.2415 19.8833 14.2346 19.8694 14.2415V14.2381Z" fill="black"/>
<path d="M19.873 22.607L16.2774 20.5277C16.2774 20.5277 16.2567 20.4966 16.2671 20.4828C16.2671 20.4794 16.274 20.4724 16.2774 20.4724L19.873 18.3966C19.873 18.3966 19.8972 18.3897 19.9075 18.3966L23.5031 20.4759C23.5031 20.4759 23.5238 20.507 23.5134 20.5208C23.5134 20.5243 23.5065 20.5312 23.5031 20.5312L19.9075 22.607C19.9075 22.607 19.8833 22.6139 19.873 22.607Z" fill="black"/>
<path d="M19.9075 26.7619L27.1331 22.5895C27.1331 22.5895 27.1573 22.5826 27.1677 22.5895L30.7632 24.6654C30.7632 24.6654 30.7839 24.6964 30.7736 24.7103C30.7736 24.7137 30.7667 24.7206 30.7632 24.7206L19.9075 30.993C19.9075 30.993 19.8833 30.9999 19.8729 30.993L9.01717 24.7206C9.01717 24.7206 8.99645 24.6895 9.00681 24.6757C9.00681 24.6723 9.01372 24.6654 9.01717 24.6654L12.6127 22.5861C12.6127 22.5861 12.6369 22.5792 12.6473 22.5861L19.8729 26.7619C19.8729 26.7619 19.8971 26.7688 19.9075 26.7619Z" fill="black"/>
</g>
<circle cx="20" cy="20" r="19.5" stroke="black" stroke-opacity="0.05"/>
<defs>
<clipPath id="clip0_17752_43879">
<rect width="21.7806" height="21" fill="white" transform="translate(9 10)"/>
</clipPath>
</defs>
</svg>
