<svg width="40" height="40" viewBox="0 0 40 40" fill="none" xmlns="http://www.w3.org/2000/svg">
<circle cx="20" cy="20" r="20" fill="#E41E25"/>
<path d="M26.0755 22.5184C26.0831 22.3717 26.0869 22.2168 26.0869 22.0537C26.0869 20.0996 26.0856 18.1282 26.0831 16.1397C26.0831 16.1307 26.0866 16.1221 26.0929 16.1156C26.0992 16.1092 26.1078 16.1055 26.1168 16.1053C26.1201 16.1049 26.1234 16.1049 26.1267 16.1053C26.2043 16.128 26.2747 16.1007 26.3497 16.1094C26.3891 16.1137 26.4287 16.1158 26.4683 16.1159H33.9668C33.9712 16.1152 33.9758 16.1157 33.9801 16.1171C33.9844 16.1185 33.9883 16.1209 33.9915 16.1241C33.9947 16.1273 33.9971 16.1312 33.9985 16.1355C33.9999 16.1398 34.0003 16.1444 33.9997 16.1488V24.0408C34.0002 24.044 33.9998 24.0473 33.9988 24.0504C33.9977 24.0535 33.996 24.0563 33.9937 24.0587C33.9914 24.061 33.9886 24.0627 33.9855 24.0638C33.9824 24.0648 33.9791 24.0651 33.9759 24.0647L32.5136 24.0662C32.5105 24.0666 32.5072 24.0663 32.5042 24.0653C32.5011 24.0643 32.4983 24.0626 32.4961 24.0603C32.4938 24.058 32.4921 24.0552 32.4911 24.0522C32.49 24.0491 32.4897 24.0459 32.4902 24.0427V17.6595C32.4902 17.6553 32.4885 17.6512 32.4855 17.6483C32.4825 17.6453 32.4785 17.6436 32.4743 17.6436H27.6214C27.6138 17.6436 27.6065 17.6466 27.6011 17.652C27.5957 17.6574 27.5927 17.6648 27.5927 17.6724V24.037C27.5927 24.045 27.5895 24.0526 27.5839 24.0582C27.5783 24.0638 27.5707 24.0669 27.5627 24.0669H16.5801C16.5763 24.067 16.5725 24.0663 16.569 24.0649C16.5654 24.0634 16.5622 24.0613 16.5595 24.0587C16.5568 24.056 16.5546 24.0528 16.5532 24.0493C16.5517 24.0457 16.5509 24.042 16.5509 24.0382V19.3421C16.5509 19.3396 16.5519 19.3372 16.5537 19.3354C16.5555 19.3337 16.5579 19.3327 16.5604 19.3327H22.9228C22.9302 19.3327 22.9374 19.3297 22.9427 19.3245C22.948 19.3192 22.9511 19.3121 22.9512 19.3046L22.9572 17.6599C22.9572 17.6579 22.9568 17.6558 22.956 17.6539C22.9553 17.6521 22.9541 17.6504 22.9527 17.6489C22.9512 17.6475 22.9495 17.6463 22.9476 17.6455C22.9458 17.6448 22.9437 17.6444 22.9417 17.6444H7.55348C7.54675 17.6444 7.54029 17.647 7.53554 17.6518C7.53078 17.6566 7.5281 17.663 7.5281 17.6697V24.0431C7.5281 24.0494 7.52559 24.0555 7.52112 24.06C7.51664 24.0644 7.51057 24.0669 7.50425 24.0669L6.02121 24.0662C6.01575 24.0661 6.01055 24.0639 6.00672 24.06C6.0029 24.0561 6.00076 24.0508 6.00076 24.0454L6 16.1511C6.0001 16.1424 6.00361 16.1341 6.00978 16.128C6.01595 16.1219 6.02427 16.1185 6.03295 16.1185H24.4497C24.4543 16.1186 24.4587 16.1205 24.4619 16.1237C24.4652 16.127 24.4671 16.1314 24.4671 16.136V20.8286C24.4671 20.8361 24.464 20.8432 24.4587 20.8486C24.4534 20.8539 24.4462 20.8569 24.4387 20.857H18.0949C18.0874 20.8571 18.0803 20.8601 18.075 20.8654C18.0697 20.8707 18.0666 20.8779 18.0665 20.8854C18.0665 21.4012 18.0653 21.8798 18.0627 22.3211C18.0627 22.3919 18.0627 22.4578 18.0692 22.5184C18.0697 22.5249 18.0726 22.531 18.0774 22.5354C18.0821 22.5398 18.0884 22.5423 18.0949 22.5422H26.0479C26.0513 22.5429 26.0549 22.5428 26.0583 22.542C26.0617 22.5411 26.0649 22.5394 26.0676 22.5371C26.0702 22.5348 26.0723 22.5319 26.0737 22.5287C26.0751 22.5254 26.0757 22.5219 26.0755 22.5184Z" fill="white"/>
<path d="M11.0118 24.0762C11.0118 24.0812 11.0098 24.086 11.0062 24.0896C11.0027 24.0931 10.9978 24.0951 10.9928 24.0951H9.49843C9.49341 24.0951 9.48859 24.0931 9.48504 24.0896C9.48149 24.086 9.47949 24.0812 9.47949 24.0762V19.3241C9.47949 19.3191 9.48149 19.3143 9.48504 19.3107C9.48859 19.3072 9.49341 19.3052 9.49843 19.3052H10.9928C10.9978 19.3052 11.0027 19.3072 11.0062 19.3107C11.0098 19.3143 11.0118 19.3191 11.0118 19.3241V24.0762Z" fill="white"/>
<path d="M14.5393 24.0777C14.5392 24.0823 14.5373 24.0867 14.5341 24.0899C14.5309 24.0932 14.5265 24.095 14.5219 24.0951H12.9813C12.9767 24.095 12.9723 24.0932 12.9691 24.0899C12.9658 24.0867 12.964 24.0823 12.9639 24.0777V19.3226C12.964 19.318 12.9658 19.3136 12.9691 19.3104C12.9723 19.3071 12.9767 19.3053 12.9813 19.3052H14.5219C14.5265 19.3053 14.5309 19.3071 14.5341 19.3104C14.5373 19.3136 14.5392 19.318 14.5393 19.3226V24.0777Z" fill="white"/>
<circle cx="20" cy="20" r="19.5" stroke="black" stroke-opacity="0.05"/>
</svg>
