<svg width="40" height="40" viewBox="0 0 40 40" fill="none" xmlns="http://www.w3.org/2000/svg">
<circle cx="20" cy="20" r="20" fill="#F6F8FA"/>
<g clip-path="url(#clip0_14382_21434)">
<path d="M25.35 17.0299V18.9599C25.35 18.9599 25.34 18.9799 25.33 18.9799H15.53C15.53 18.9799 15.51 18.9799 15.51 18.9599C15.51 17.7999 15.51 17.1899 15.51 17.1299C15.51 16.9799 15.68 16.9999 15.8 16.9999C17.67 16.9999 20.85 16.9999 25.33 16.9999C25.34 16.9999 25.35 17.0099 25.35 17.0199V17.0299Z" fill="#0284B6"/>
<path d="M35.84 17.0299V18.9599C35.84 18.9599 35.83 18.9799 35.82 18.9799H26.02C26.02 18.9799 26 18.9799 26 18.9599C26 17.7999 26 17.1899 26 17.1299C26 16.9799 26.17 16.9999 26.29 16.9999C28.16 16.9999 31.34 16.9999 35.82 16.9999C35.83 16.9999 35.84 17.0099 35.84 17.0199V17.0299Z" fill="#0284B6"/>
<path d="M35.84 19.6198V21.5498C35.84 21.5498 35.83 21.5698 35.82 21.5698H26.02C26.02 21.5698 26 21.5698 26 21.5498C26 20.3898 26 19.7798 26 19.7198C26 19.5698 26.17 19.5898 26.29 19.5898C28.16 19.5898 31.34 19.5898 35.82 19.5898C35.83 19.5898 35.84 19.5998 35.84 19.6098V19.6198Z" fill="#E7366D"/>
<path d="M35.84 22.2106V24.1406C35.84 24.1406 35.83 24.1606 35.82 24.1606H26.02C26.02 24.1606 26 24.1606 26 24.1406C26 22.9806 26 22.3706 26 22.3106C26 22.1606 26.17 22.1806 26.29 22.1806C28.16 22.1806 31.34 22.1806 35.82 22.1806C35.83 22.1806 35.84 22.1906 35.84 22.2006V22.2106Z" fill="#0284B6"/>
<path d="M14.82 17C14.82 17 14.84 17 14.84 17.02V18.96C14.84 18.96 14.83 18.98 14.82 18.98H4.03C4.03 18.98 4 18.97 4 18.95C4 17.91 4 17.31 4 17.14C4 17.03 4.07 17 4.17 17C5.12 17 8.67 17 14.82 17Z" fill="#0284B6"/>
<path d="M9.43 24.1601C8.52 24.1601 8.06 24.1601 8.05 24.1601C8.04 24.1601 8.02 24.1501 8.02 24.1301V21.5901C8.02 21.5901 8.02 21.5801 8.01 21.5801H4.02C4.02 21.5801 4 21.5801 4 21.5601V19.6101C4 19.6101 4 19.6001 4.02 19.6001C4.02 19.6001 5.87 19.6001 9.42 19.6001C12.98 19.6001 14.78 19.6001 14.83 19.6001C14.83 19.6001 14.85 19.6001 14.85 19.6101V21.5601C14.85 21.5701 14.85 21.5801 14.83 21.5801H10.85C10.85 21.5801 10.84 21.5901 10.84 21.6001V24.1401C10.84 24.1401 10.84 24.1701 10.82 24.1701C10.82 24.1701 10.34 24.1701 9.44 24.1701L9.43 24.1601Z" fill="#0284B6"/>
<path d="M15.5 24.1298V19.6098C15.5 19.6098 15.5 19.5898 15.52 19.5898H25.33C25.33 19.5898 25.35 19.5898 25.35 19.6098V21.5598C25.35 21.5598 25.35 21.5798 25.33 21.5798H18.35C18.35 21.5798 18.33 21.5798 18.33 21.5998V24.1298C18.33 24.1298 18.33 24.1498 18.31 24.1498H15.52C15.52 24.1498 15.5 24.1498 15.5 24.1298Z" fill="#0284B6"/>
</g>
<circle cx="20" cy="20" r="19.5" stroke="black" stroke-opacity="0.05"/>
<defs>
<clipPath id="clip0_14382_21434">
<rect width="32" height="8.00085" fill="white" transform="translate(4 16.999)"/>
</clipPath>
</defs>
</svg>
