<svg width="40" height="40" viewBox="0 0 40 40" fill="none" xmlns="http://www.w3.org/2000/svg">
<circle cx="20" cy="20" r="20" fill="#002762"/>
<path d="M9.63261 25.8525C8.61073 25.7809 7.61642 25.6133 6.68301 25.186C6.25642 24.9908 5.86708 24.7379 5.55654 24.3815C4.96375 23.701 4.87886 22.9226 5.14033 22.0874C5.42294 21.1837 5.98169 20.4516 6.61173 19.7692C7.43554 18.8756 8.38687 18.1273 9.38189 17.4335C9.43474 17.3949 9.49874 17.3745 9.5642 17.3755C9.94602 17.378 10.3275 17.3755 10.7319 17.3755C10.6821 17.4554 10.6115 17.483 10.5528 17.5213C9.53232 18.1993 8.56309 18.9411 7.70919 19.824C7.04728 20.5103 6.45628 21.2478 6.13786 22.1637C5.74386 23.2962 6.07912 24.2859 7.07987 24.9471C7.37498 25.1381 7.69121 25.2944 8.02224 25.4127C8.53265 25.6011 9.06096 25.7157 9.61076 25.8035C9.63799 25.8164 9.64408 25.8289 9.63261 25.8525Z" fill="#DC000B"/>
<path d="M34.0232 12.8586C33.6876 12.6358 33.3201 12.4839 32.9365 12.3682C31.7019 11.9957 30.4336 11.9656 29.1613 12.0222C28.0277 12.0727 26.9048 12.2311 25.7772 12.456C25.8607 12.5086 25.9316 12.4793 25.9986 12.4725C26.2361 12.4488 26.4725 12.4159 26.7096 12.3915C28.0782 12.2522 29.4461 12.2171 30.8096 12.4424C31.5303 12.5613 32.228 12.7554 32.8573 13.1444C33.8355 13.7483 34.1686 14.6781 33.7886 15.7609C33.5959 16.3132 33.2786 16.7943 32.9193 17.2509C32.8892 17.2937 32.8487 17.328 32.8015 17.3505C32.7543 17.373 32.7021 17.383 32.65 17.3795C30.6742 17.3759 28.6985 17.3795 26.7228 17.3734C26.5731 17.3734 26.5251 17.3981 26.5262 17.5625C26.5341 19.001 26.5301 20.4398 26.5323 21.8782C26.5323 21.98 26.5233 22.0477 26.4112 22.0996C24.71 22.8861 22.9526 23.5446 21.1535 24.0696C21.0292 24.1054 21.0052 24.0732 21.0066 23.9525C21.0124 23.4091 21.0149 22.8657 21.0066 22.3227C21.0041 22.1745 21.0403 22.1372 21.1904 22.1379C22.5275 22.1444 23.8645 22.1379 25.202 22.1451C25.3453 22.1451 25.3943 22.1189 25.3907 21.9642C25.3793 21.4928 25.3779 21.0208 25.3907 20.5498C25.3954 20.3846 25.3438 20.3581 25.1927 20.3588C23.8499 20.3649 22.5063 20.3606 21.1635 20.3657C21.0382 20.3657 21.0027 20.3349 21.007 20.2088C21.017 19.9165 21.0185 19.6235 21.007 19.3316C21.0009 19.1822 21.0303 19.1328 21.1958 19.1342C22.2402 19.1435 23.285 19.1389 24.3477 19.1389C24.8134 19.1389 25.2611 19.135 25.7088 19.1418C25.8259 19.1439 25.8571 19.1124 25.8553 18.9953C25.8485 18.5117 25.8456 18.0282 25.8553 17.545C25.8585 17.3967 25.8084 17.3749 25.6762 17.3749C23.5988 17.3789 21.5213 17.3789 19.4439 17.3749C19.2856 17.3749 19.2365 17.4075 19.2372 17.5762C19.2432 19.8267 19.2445 22.077 19.2412 24.3271C19.2412 24.369 19.2394 24.4109 19.2412 24.4525C19.2455 24.5273 19.2251 24.5678 19.1395 24.5872C18.1928 24.7974 17.2375 24.9643 16.2722 25.0839C16.149 25.0993 16.1121 25.07 16.1125 24.9407C16.1168 23.0605 16.1168 21.1803 16.1125 19.3001C16.1125 19.164 16.1483 19.1328 16.2798 19.1342C16.9843 19.1414 17.6885 19.1342 18.393 19.1403C18.5083 19.1403 18.5442 19.1131 18.5424 18.9935C18.5352 18.5042 18.5341 18.0146 18.5424 17.5249C18.5449 17.3895 18.4933 17.3734 18.3776 17.3738C16.2646 17.3767 14.1513 17.3767 12.0378 17.3738C11.9668 17.3702 11.8964 17.3881 11.8358 17.4254C10.637 18.1929 9.49691 19.0343 8.5198 20.078C7.95854 20.6776 7.46389 21.3245 7.17412 22.105C6.73571 23.2848 7.08637 24.2899 8.15983 24.9493C8.44522 25.1231 8.74918 25.2644 9.06602 25.3705C10.1291 25.7287 11.2301 25.8297 12.3434 25.8422C12.9575 25.8518 13.5717 25.8266 14.183 25.7666C14.318 25.7527 14.3621 25.7853 14.351 25.9242C14.3381 26.0722 14.3538 26.2226 14.3459 26.3712C14.3406 26.474 14.3764 26.5027 14.477 26.5016C14.9785 26.4973 15.4799 26.4959 15.9814 26.5016C16.0974 26.5016 16.1214 26.464 16.1182 26.3583C16.1107 26.1259 16.1182 25.8927 16.1139 25.6603C16.1114 25.5646 16.1386 25.527 16.2386 25.5113C17.1915 25.3603 18.136 25.16 19.0682 24.9113C19.2097 24.8733 19.2498 24.9006 19.2473 25.051C19.238 25.4865 19.2473 25.9224 19.2415 26.3583C19.2415 26.4658 19.2655 26.5016 19.3801 26.5016C19.8756 26.4954 20.371 26.4954 20.8662 26.5016C20.9844 26.5016 21.0156 26.4658 21.0145 26.3501C21.0084 25.7412 21.0145 25.1323 21.0081 24.5234C21.0081 24.3916 21.0489 24.3414 21.1725 24.3024C22.5618 23.8632 23.9224 23.3379 25.2464 22.7296C25.6719 22.5337 26.0935 22.3292 26.5323 22.1207V22.3281C26.5323 23.6595 26.5323 24.9905 26.5294 26.3215C26.5294 26.4529 26.5505 26.5027 26.6999 26.5023C28.6875 26.4966 30.6752 26.4966 32.6629 26.5023C32.7914 26.5023 32.8369 26.4776 32.8341 26.3372C32.8243 25.8596 32.8243 25.3821 32.8341 24.9045C32.8373 24.758 32.8029 24.7154 32.651 24.7161C31.2606 24.7222 29.8698 24.7161 28.479 24.7233C28.3357 24.7233 28.2999 24.6814 28.3027 24.5442C28.3106 24.0309 28.3121 23.5176 28.3027 23.004C28.2999 22.8557 28.3364 22.817 28.4868 22.8181C29.5911 22.8253 30.6954 22.8181 31.7996 22.8256C31.9454 22.8256 31.9787 22.7834 31.9748 22.6465C31.9666 22.1694 31.9648 21.6916 31.9748 21.2138C31.978 21.0659 31.9289 21.0394 31.7939 21.0401C30.6896 21.0451 29.5854 21.0401 28.4811 21.0458C28.3468 21.0458 28.2992 21.0204 28.302 20.8739C28.3121 20.3606 28.3138 19.847 28.302 19.3337C28.2977 19.164 28.3522 19.1346 28.508 19.1353C29.8866 19.141 31.266 19.1353 32.6446 19.1432C32.8101 19.1432 32.8423 19.0956 32.8344 18.9451C32.8219 18.7008 32.8405 18.4551 32.828 18.2112C32.819 18.0429 32.8638 17.9247 32.9985 17.8129C33.2936 17.5611 33.5677 17.2856 33.818 16.9891C34.2478 16.4912 34.6307 15.9608 34.851 15.3311C35.2081 14.3081 34.923 13.4567 34.0232 12.8586ZM14.3492 19.3373C14.3451 19.3907 14.3451 19.4444 14.3492 19.4978V24.9765C14.3492 25.2344 14.3492 25.2308 14.0823 25.2351C13.0479 25.2512 12.0206 25.1943 11.012 24.9417C10.5489 24.8257 10.1008 24.6681 9.68496 24.4296C8.54738 23.7752 8.19207 22.7558 8.67704 21.538C8.83041 21.1629 9.03041 20.8086 9.27234 20.4835C9.99729 19.4903 10.9149 18.6983 11.9229 17.9433V18.8348C11.9229 19.1382 11.9229 19.1382 12.232 19.1382C12.8706 19.1382 13.5089 19.1443 14.1475 19.1342C14.3112 19.1317 14.3767 19.174 14.3492 19.3373Z" fill="white"/>
<circle cx="20" cy="20" r="19.5" stroke="black" stroke-opacity="0.05"/>
</svg>
