<svg width="40" height="40" viewBox="0 0 40 40" fill="none" xmlns="http://www.w3.org/2000/svg">
<circle cx="20" cy="20" r="20" fill="#760000"/>
<g clip-path="url(#clip0_33363_66921)">
<path d="M35.4024 23.6483H27.7549V22.7648H35.4024V23.6483ZM35.2409 20.1808L34.6804 21.0453C33.5214 20.7793 32.0584 19.8958 31.5739 18.7843C31.1369 19.9243 29.6264 20.8268 28.4579 21.0833L27.9354 20.1808C29.3224 19.9813 31.0039 18.8603 31.0039 17.3593V16.7988H32.1629V17.3593C32.1629 18.8508 33.9489 19.9623 35.2409 20.1808Z" fill="white"/>
<path d="M26.6472 16.2852V19.4772H27.8632V20.3987H26.6472V24.7497H25.5357V16.2852H26.6472ZM21.4602 21.8712C22.6667 21.8712 23.8447 21.8332 24.8042 21.6147C24.8517 21.9092 24.8802 22.2132 24.9277 22.4982C24.1107 22.7072 22.8282 22.7832 21.1752 22.7832H20.3582V17.0642H24.2247V17.9572H21.4602V21.8712Z" fill="white"/>
<path d="M19.3074 24.7497H18.2054V16.2852H19.3074V24.7497ZM12.5529 19.8952C12.5529 18.1092 13.3604 16.8647 14.7379 16.8647C16.1249 16.8647 16.9324 18.1092 16.9324 19.8952C16.9324 21.6622 16.1249 22.9067 14.7379 22.9067C13.3604 22.9067 12.5529 21.6717 12.5529 19.8952ZM15.8684 19.8952C15.8684 18.5557 15.3934 17.7577 14.7379 17.7577C14.1014 17.7577 13.6359 18.5557 13.6359 19.8952C13.6359 21.2252 14.1014 22.0137 14.7379 22.0137C15.3934 22.0137 15.8684 21.2252 15.8684 19.8952Z" fill="white"/>
<path d="M11.2172 16.2852V19.5342H12.3667V20.4557H11.2172V24.7497H10.0867V16.2852H11.2172ZM7.71169 21.6812V17.9572H5.90669V21.6812H7.71169ZM8.82319 17.0642V22.5647H4.80469V17.0642H8.82319Z" fill="white"/>
</g>
<circle cx="20" cy="20" r="19.5" stroke="black" stroke-opacity="0.05"/>
<defs>
<clipPath id="clip0_33363_66921">
<rect width="32" height="9" fill="white" transform="translate(4 16)"/>
</clipPath>
</defs>
</svg>
