<svg width="40" height="40" viewBox="0 0 40 40" fill="none" xmlns="http://www.w3.org/2000/svg">
<circle cx="20" cy="20" r="20" fill="#2F99D5"/>
<g clip-path="url(#clip0_18553_55600)">
<path d="M23.2091 15.875C23.0769 15.9294 22.9753 15.959 22.9092 15.959C21.8822 15.959 20.8501 15.959 19.823 15.959C19.762 15.959 19.7163 16.0084 19.7163 16.0628V17.3527C19.4773 17.3873 19.2129 17.3873 18.9282 17.3527C18.8774 17.3478 18.8418 17.3033 18.8418 17.2539C18.857 16.6855 18.8621 16.0233 18.857 15.2621C18.857 15.1781 18.8977 15.1336 18.9842 15.1336C20.123 15.1287 21.2568 15.1238 22.3804 15.1336C22.8227 15.1336 23.1329 15.445 23.2142 15.875H23.2091Z" fill="#73DFD4"/>
<path d="M16.3098 16.1762L16.9352 16.5864C16.9352 16.5864 16.9555 16.6111 16.9453 16.6259C16.9403 16.6358 16.9301 16.6407 16.9199 16.6407L16.1675 16.6753C16.1675 16.6753 16.142 16.6852 16.142 16.6951L15.9336 17.3969C15.9336 17.3969 15.9132 17.4216 15.898 17.4167C15.8878 17.4167 15.8827 17.4068 15.8777 17.3969L15.6133 16.7099C15.6133 16.7099 15.598 16.6902 15.5828 16.6902L14.8303 16.7149C14.8303 16.7149 14.7998 16.7001 14.7998 16.6852C14.7998 16.6753 14.7998 16.6704 14.81 16.6605L15.3997 16.2058C15.3997 16.2058 15.415 16.1861 15.4099 16.1712L15.1506 15.4842C15.1506 15.4842 15.1506 15.4546 15.171 15.4447C15.1811 15.4447 15.1913 15.4447 15.1964 15.4447L15.8268 15.845C15.8268 15.845 15.8522 15.85 15.8624 15.845L16.4573 15.3953C16.4573 15.3953 16.4878 15.3903 16.4979 15.4002C16.503 15.4052 16.503 15.415 16.4979 15.4249L16.2996 16.1317C16.2996 16.1317 16.2996 16.1564 16.3098 16.1663V16.1762Z" fill="#68B9F9"/>
<path d="M23.8296 22.2849C22.8636 22.3392 22.1925 22.359 21.8112 22.3442C21.1858 22.3145 20.535 22.3145 19.8538 22.3442C19.7775 22.3442 19.7165 22.4134 19.7165 22.4875C19.7267 23.2486 19.7521 24.0048 19.6707 24.7461L18.9335 24.7313C18.8878 24.7313 18.8522 24.6967 18.8522 24.6522C18.842 24.1382 18.8522 23.6539 18.8522 23.1399C18.842 22.6012 18.8522 22.0773 18.8674 21.5732C18.8674 21.5386 18.8878 21.5188 18.9284 21.5188C20.1029 21.5138 21.2875 21.504 22.4874 21.499C23.0975 21.499 23.5449 21.756 23.8398 22.2799L23.8296 22.2849Z" fill="#73DFD4"/>
<path d="M28.9697 22.5025C28.8273 21.1433 28.2122 20.0165 27.1292 19.1219C27.0936 19.0922 27.0885 19.0478 27.119 19.0132C27.4902 18.5387 27.7749 18.0099 27.9783 17.4217C28.1511 16.9226 28.2172 16.3542 28.1766 15.7216C28.1105 14.6886 27.7647 13.7693 27.1394 12.9687C26.3666 11.9753 25.3091 11.3575 24.038 11.1153C23.4991 11.0115 23.0161 10.9621 22.5839 10.9621C19.4826 10.9621 16.2999 10.9621 13.0307 10.9473C13.0104 10.9473 12.9951 10.9621 12.9951 10.9769V28.9423H14.5407C14.5407 25.3789 14.5356 21.6375 14.5305 18.1186C14.5305 18 14.6068 17.9555 14.7644 17.9901C14.8153 18 14.8509 18.0445 14.8509 18.0939C14.8712 19.3641 14.8509 20.4959 14.8509 21.6771C14.8509 23.5305 14.8509 25.3245 14.8509 27.0642C14.8509 27.6524 14.8509 28.3987 14.8661 28.9473H15.3339L15.3237 18.0741C15.3237 18.0099 15.3542 17.9802 15.4203 17.9901L15.5626 18.0049C15.6237 18.0099 15.6592 18.0445 15.6592 18.1087L15.6491 28.9473H16.1219L16.1117 18.0988C16.1117 18.0247 16.1473 17.9901 16.2236 17.995H16.3354C16.4066 18.0049 16.4422 18.0395 16.4422 18.1087V28.9473H16.8998V18.1186C16.8998 18.0148 16.9557 17.9654 17.0625 17.9753H17.0879C17.1845 17.9852 17.2353 18.0346 17.2353 18.1334V28.9077C17.2353 28.9473 17.2353 28.9423 17.276 28.9423C19.0199 28.9423 20.7434 28.9423 22.3806 28.9423C22.9246 28.9423 23.3771 28.9176 23.738 28.8682C24.8769 28.71 25.9293 28.3048 26.8852 27.6474C28.1664 26.7677 28.8375 25.2801 28.9697 23.8072C29.0104 23.3377 29.0104 22.9028 28.9697 22.4975V22.5025ZM16.9201 16.6359L16.1677 16.6705C16.1677 16.6705 16.1422 16.6804 16.1422 16.6903L15.9338 17.3921C15.9338 17.3921 15.9236 17.4069 15.9135 17.4118C15.8982 17.4168 15.8779 17.4118 15.8728 17.3921L15.6084 16.7051C15.6084 16.7051 15.5931 16.6853 15.5779 16.6853L14.8254 16.71C14.8254 16.71 14.8102 16.71 14.8 16.7001C14.7898 16.6853 14.7898 16.6705 14.8 16.6606L15.3898 16.2059C15.3898 16.2059 15.405 16.1861 15.3999 16.1713L15.1407 15.4843C15.1407 15.4843 15.1407 15.4646 15.1407 15.4596C15.1508 15.4448 15.1661 15.4399 15.1813 15.4497L15.8118 15.8501C15.8118 15.8501 15.8372 15.855 15.8474 15.8501L16.4422 15.4003C16.4422 15.4003 16.4575 15.3954 16.4676 15.4003C16.4829 15.4003 16.4931 15.4201 16.488 15.4349L16.2897 16.1417C16.2897 16.1417 16.2897 16.1664 16.2999 16.1763L16.9252 16.5865C16.9252 16.5865 16.9405 16.6013 16.9405 16.6112C16.9405 16.626 16.9303 16.6408 16.91 16.6408L16.9201 16.6359ZM18.8521 15.257C18.8521 15.173 18.8928 15.1285 18.9792 15.1285C20.1181 15.1235 21.2519 15.1186 22.3755 15.1285C22.8178 15.1285 23.1279 15.4399 23.2093 15.8698C23.3262 16.2801 23.2652 16.6606 23.0364 17.0016C22.7873 17.3772 22.5026 17.3624 22.0247 17.3624C21.262 17.3674 20.4842 17.3624 19.7012 17.3476C19.4673 17.3822 19.2029 17.3822 18.9182 17.3476C18.8674 17.3427 18.8318 17.2982 18.8318 17.2487C18.847 16.6804 18.8521 16.0181 18.847 15.257H18.8521ZM23.4686 24.4151C23.2195 24.6623 22.9093 24.7809 22.5483 24.7809C21.5874 24.771 20.6265 24.7611 19.6656 24.7512L18.9284 24.7364C18.8826 24.7364 18.847 24.7018 18.847 24.6573C18.8369 24.1433 18.847 23.659 18.847 23.145C18.8369 22.6062 18.847 22.0824 18.8623 21.5782C18.8623 21.5436 18.8826 21.5239 18.9233 21.5239C20.0978 21.5189 21.2824 21.509 22.4822 21.5041C23.0924 21.5041 23.5398 21.7611 23.8346 22.285C24.2109 23.1005 24.0939 23.8122 23.4737 24.4151H23.4686Z" fill="white"/>
</g>
<circle cx="20" cy="20" r="19.5" stroke="black" stroke-opacity="0.05"/>
<defs>
<clipPath id="clip0_18553_55600">
<rect width="16" height="18" fill="white" transform="translate(13 10.9473)"/>
</clipPath>
</defs>
</svg>
