<svg width="40" height="40" viewBox="0 0 40 40" fill="none" xmlns="http://www.w3.org/2000/svg">
<circle cx="20" cy="20" r="20" fill="#F6F8FA"/>
<g clip-path="url(#clip0_44746_83183)">
<path d="M18.2001 24.2868C18.2001 24.2868 12.2481 25.8342 9.1441 22.9053C6.3121 19.4474 8.3281 13.1079 20.0081 13.2895C20.0081 13.2895 29.5201 13.4789 30.2241 19.4079H21.6481C21.6481 19.4079 22.4081 16.7789 19.5441 16.0289C16.6881 15.2789 14.6881 17.1421 14.5281 19.1395C14.3681 21.1368 15.1521 23.2131 18.1921 24.2789L18.2001 24.2868Z" fill="#00AEE7"/>
<path d="M24.4321 20.2842H31.9041C31.9041 20.2842 28.2081 28.7394 16.9681 27.0737C16.9681 27.0737 12.1441 26.6237 9.66406 24.1763C9.66406 24.1763 14.8721 27.2079 20.1041 24.7368C22.3681 23.7026 24.5521 22.2579 24.4401 20.2921L24.4321 20.2842Z" fill="#00275D"/>
</g>
<circle cx="20" cy="20" r="19.5" stroke="black" stroke-opacity="0.05"/>
<defs>
<clipPath id="clip0_44746_83183">
<rect width="24" height="15" fill="white" transform="translate(8 12.5)"/>
</clipPath>
</defs>
</svg>
