<svg width="40" height="40" viewBox="0 0 40 40" fill="none" xmlns="http://www.w3.org/2000/svg">
<circle cx="20" cy="20" r="20" fill="#0033C8"/>
<circle cx="20" cy="20" r="19.5" stroke="black" stroke-opacity="0.05"/>
<path d="M23.3266 11.8787C27.9278 13.6658 30.5661 17.8902 29.8971 22.8118C28.8732 30.3465 19.9942 33.7793 13.9828 29.3257C8.59007 25.3275 8.75024 17.3971 13.9985 13.3455C14.7617 12.755 16.0117 12.2493 16.665 11.7154C18.0721 10.5596 18.7034 9.07088 18.5589 7.25237C18.5495 7.1236 18.606 7.05136 18.7348 7.03565C21.7059 6.69645 23.6595 8.81647 23.2386 11.7343C23.2292 11.8065 23.2575 11.8536 23.3266 11.8787ZM25.2236 21.3356C25.2236 18.4524 22.8869 16.1156 20.0036 16.1156C17.1204 16.1156 14.7837 18.4524 14.7837 21.3356C14.7837 24.2188 17.1204 26.5556 20.0036 26.5556C22.8869 26.5556 25.2236 24.2188 25.2236 21.3356Z" fill="white"/>
</svg>
