<svg width="40" height="40" viewBox="0 0 40 40" fill="none" xmlns="http://www.w3.org/2000/svg">
<circle cx="20" cy="20" r="20" fill="#6000FF"/>
<path fill-rule="evenodd" clip-rule="evenodd" d="M10.054 21.0753L10.2375 20.987C10.6586 20.7936 11.0129 20.48 11.256 20.0855C11.499 19.6911 11.6199 19.2336 11.6034 18.7705C11.6034 17.0588 10.3646 15.9964 8.37401 15.9964H5.00342V23.98H6.71165V17.507H8.26107C9.13283 17.507 9.63048 17.9553 9.67283 18.7635C9.68399 19.0057 9.63931 19.2472 9.54224 19.4694C9.44821 19.6731 9.31372 19.8557 9.14695 20.0058C8.98386 20.1579 8.79345 20.2776 8.58577 20.3588C8.37202 20.437 8.14633 20.4776 7.91871 20.4788H7.82695L9.9693 24.0082H11.7552L10.054 21.0753ZM14.4058 20.6588H18.3305V19.247H14.4058V17.2953H18.6658V15.9858H12.6658V23.9694H18.6658V22.6635H14.4058V20.6588ZM21.4646 16H19.5587L22.5022 23.9729H24.2952L27.1928 16H25.2693L23.3775 21.4141L21.4646 16ZM33.1999 16V20.8458C33.196 21.2735 33.0291 21.6835 32.7334 21.9924C32.4376 22.3013 32.0352 22.4857 31.6081 22.5082C31.3839 22.5188 31.1599 22.4834 30.9498 22.4042C30.7398 22.325 30.5482 22.2036 30.3869 22.0475C30.2255 21.8915 30.0978 21.704 30.0116 21.4968C29.9255 21.2895 29.8826 21.0668 29.8858 20.8423V16H28.1069V20.8282C28.0888 21.4364 28.2339 22.0384 28.5269 22.5717C28.7992 23.0253 29.2012 23.3867 29.6811 23.6094C30.2588 23.8684 30.8868 23.9962 31.5199 23.9835C31.6799 23.9835 31.8422 23.9764 32.0069 23.9623C32.8222 23.8953 33.9199 23.6094 34.534 22.6458C34.8616 22.0976 35.0246 21.4666 35.0034 20.8282V16H33.1999Z" fill="white"/>
<circle cx="20" cy="20" r="19.5" stroke="black" stroke-opacity="0.05"/>
</svg>
