<svg width="40" height="40" viewBox="0 0 40 40" fill="none" xmlns="http://www.w3.org/2000/svg">
<circle cx="20" cy="20" r="20" fill="#F6F8FA"/>
<g clip-path="url(#clip0_20329_63507)">
<path d="M29.9658 20.184V23.3487C29.9658 23.3825 29.9427 23.4066 29.9102 23.4066L28.8303 23.4163C28.7978 23.4163 28.77 23.3873 28.77 23.3535C28.7654 21.8291 28.7607 20.2274 28.77 18.5534C28.77 17.2074 29.8129 16.3198 31.1014 16.4307C31.1246 16.4307 31.1431 16.4548 31.1431 16.479V17.5886C31.1431 17.6271 31.1153 17.6609 31.0782 17.6609C31.0782 17.6609 31.0782 17.6609 31.0736 17.6609C30.2949 17.5982 29.9241 17.9745 29.9658 18.785C29.9658 18.8236 29.9844 18.8429 30.0214 18.8429H31.069C31.106 18.8429 31.1385 18.8815 31.1385 18.92V20.0537C31.1385 20.0875 31.1107 20.1165 31.0829 20.1165H30.0261C29.9844 20.1165 29.9612 20.1406 29.9612 20.184H29.9658Z" fill="#2E68C3"/>
<path d="M12.4171 17.9982C11.11 17.9982 9.68708 17.9982 8.14827 17.9982C7.36959 17.9982 7.35568 19.1126 8.10192 19.1223C8.5098 19.1223 8.88987 19.1223 9.24676 19.1223C9.94664 19.1078 10.5863 19.4166 11.0081 20.0003C11.847 21.1726 11.314 22.7935 10.044 23.2663C9.77978 23.3676 9.47851 23.411 9.13552 23.411C8.0602 23.4014 7.04977 23.4014 6.0996 23.411C6.06715 23.411 6.03934 23.3821 6.03934 23.3483V21.8962C6.03934 21.8528 6.05788 21.8335 6.0996 21.8335C7.11466 21.8335 8.17144 21.8383 9.26067 21.8335C9.41825 21.8335 9.5434 21.7997 9.64073 21.7322C9.97445 21.5055 9.96982 20.9507 9.60365 20.7673C9.49241 20.7143 9.36727 20.6853 9.23286 20.6902C8.67666 20.6998 7.94433 20.777 7.42521 20.5888C6.37306 20.1933 5.77051 19.0017 6.15058 17.8824C6.50284 16.8404 7.32324 16.4207 8.35221 16.4303C10.7253 16.44 13.205 16.4448 15.7914 16.4352C16.1529 16.4352 16.5793 16.5461 16.8852 16.7536C18.6558 17.9596 17.8308 20.7095 15.7218 20.695C15.0961 20.6902 14.5353 20.6902 14.044 20.695C14.0023 20.695 13.9837 20.7143 13.9837 20.7577V23.3676C13.9837 23.3676 13.9698 23.4062 13.9513 23.4062H12.5422C12.5052 23.4062 12.4866 23.3869 12.4866 23.3483V18.0706C12.4866 18.0223 12.4634 17.9982 12.4171 17.9982ZM13.9884 18.0465V19.074C13.9884 19.103 14.0069 19.1223 14.0347 19.1223H15.7589C16.0648 19.1223 16.3151 18.8762 16.3151 18.5675V18.553C16.3151 18.2443 16.0695 17.9934 15.7636 17.9934H14.0393C14.0115 17.9934 13.993 18.0127 13.993 18.0416L13.9884 18.0465Z" fill="#243A69"/>
<path d="M32.8389 20.1933C32.8528 20.5021 32.8528 20.8205 32.8389 21.1485C32.8204 21.6985 33.1356 22.1809 33.7057 22.1713C33.7937 22.1713 33.8818 22.1713 33.9699 22.1713C34.0116 22.1713 34.0301 22.1954 34.0301 22.2388V23.3629C34.0301 23.3966 34.007 23.4159 33.9745 23.4159C33.6593 23.4159 33.3395 23.4159 33.0336 23.3002C32.1344 22.9721 31.6477 22.1857 31.6524 21.2064C31.657 20.0727 31.657 18.9004 31.6524 17.6992C31.6524 17.6606 31.6709 17.6365 31.708 17.6365H32.7833C32.8204 17.6316 32.8436 17.6509 32.8436 17.6895V18.7846C32.8436 18.8184 32.8667 18.8474 32.9038 18.8474H33.9838C34.0116 18.8474 34.0301 18.8715 34.0301 18.9004V20.0534C34.0255 20.0872 33.9977 20.1161 33.9606 20.1161H32.9038C32.8528 20.1161 32.8297 20.1403 32.8343 20.1933H32.8389Z" fill="#2E68C3"/>
<path d="M21.3353 21.7806C21.3353 21.7806 21.3353 21.771 21.3353 21.7662C21.3584 21.5057 21.2426 21.3706 20.9923 21.3609C20.2646 21.3272 19.6064 21.4622 18.9529 20.9412C18.6655 20.7097 18.4847 20.3913 18.4106 19.9812C18.2715 19.2093 18.6284 18.4857 19.3144 18.1576C19.5508 18.0418 19.8752 17.9888 20.2785 17.9888C21.0664 17.9984 21.7756 17.9984 22.4106 17.9936C22.4291 17.9936 22.443 18.0081 22.443 18.0274V19.1804C22.443 19.219 22.4152 19.2527 22.3781 19.2527C21.5485 19.2527 20.7652 19.2527 20.0236 19.2527C19.4627 19.2527 19.4349 20.0343 19.9726 20.0825C20.209 20.1018 20.45 20.1066 20.7003 20.097C21.4094 20.0632 22.0212 20.2996 22.3735 20.9846C22.8833 21.9833 22.2762 23.2231 21.1962 23.3968C21.0108 23.4257 20.7327 23.4354 20.3665 23.4305C19.7269 23.4161 19.0919 23.4161 18.4616 23.4305C18.4152 23.4305 18.3967 23.4064 18.3967 23.363V22.2534C18.3967 22.21 18.4198 22.1859 18.4616 22.1859C19.2634 22.1859 20.0884 22.1811 20.9366 22.1811C21.1869 22.1811 21.3214 22.0508 21.3445 21.7903L21.3353 21.7806Z" fill="#2E68C3"/>
<path d="M28.2649 20.7049C28.2649 22.2005 27.1015 23.4114 25.6647 23.4114C24.2278 23.4114 23.0645 22.2005 23.0645 20.7049C23.0645 19.2094 24.2278 17.9985 25.6647 17.9985C27.1015 17.9985 28.2649 19.2094 28.2649 20.7049ZM27.0505 20.7049C27.0505 19.9041 26.4295 19.2577 25.66 19.2577C24.8906 19.2577 24.2696 19.9041 24.2696 20.7049C24.2696 21.5058 24.8906 22.1522 25.66 22.1522C26.4295 22.1522 27.0505 21.5058 27.0505 20.7049Z" fill="#2E68C3"/>
</g>
<circle cx="20" cy="20" r="19.5" stroke="black" stroke-opacity="0.05"/>
<defs>
<clipPath id="clip0_20329_63507">
<rect width="28" height="7" fill="white" transform="translate(6.03516 16.4209)"/>
</clipPath>
</defs>
</svg>
