<svg width="40" height="40" viewBox="0 0 40 40" fill="none" xmlns="http://www.w3.org/2000/svg">
<circle cx="20" cy="20" r="20" fill="#2626AA"/>
<path d="M20.0002 27.8075C15.6953 27.8075 12.1924 24.3053 12.1924 20C12.1924 15.6948 15.6949 12.1926 19.9998 12.1926C21.3335 12.1923 22.6452 12.5336 23.8096 13.1839L22.9568 14.7062C22.0523 14.2016 21.0337 13.937 19.9979 13.9376C16.6573 13.9376 13.9374 16.6572 13.9374 20C13.9374 23.3429 16.657 26.0624 19.9998 26.0624C23.3426 26.0624 26.0622 23.3429 26.0622 20H27.8072C27.8076 24.3053 24.3054 27.8075 20.0002 27.8075Z" fill="white"/>
<path d="M20 32.0001C18.4235 32.0044 16.8618 31.696 15.4053 31.0927C13.9488 30.4894 12.6264 29.6032 11.5147 28.4854C10.3969 27.3737 9.51069 26.0513 8.90739 24.5948C8.30409 23.1383 7.99569 21.5766 8.00005 20.0001C7.99573 18.4236 8.30415 16.8619 8.90744 15.4053C9.51074 13.9488 10.3969 12.6265 11.5147 11.5147C12.6264 10.3969 13.9488 9.51075 15.4053 8.90746C16.8618 8.30416 18.4235 7.99574 20 8.00006C22.5928 7.99208 25.1172 8.83128 27.1891 10.39L26.1429 11.7864C24.3724 10.4545 22.2155 9.73738 20 9.74393C18.6528 9.74025 17.3182 10.0038 16.0735 10.5194C14.8288 11.035 13.6988 11.7924 12.7488 12.7476C11.7934 13.6978 11.0359 14.828 10.5203 16.0729C10.0047 17.3178 9.74123 18.6526 9.74506 20.0001C9.74134 21.3473 10.0049 22.6819 10.5205 23.9266C11.0361 25.1713 11.7935 26.3014 12.7488 27.2513C13.6988 28.2066 14.8288 28.964 16.0735 29.4796C17.3182 29.9951 18.6528 30.2587 20 30.255C21.3475 30.2589 22.6823 29.9954 23.9272 29.4798C25.1721 28.9642 26.3023 28.2068 27.2525 27.2513C28.2076 26.3013 28.9647 25.1712 29.4801 23.9265C29.9955 22.6818 30.2589 21.3472 30.255 20.0001C30.2552 19.5468 30.2255 19.094 30.1663 18.6446L31.8965 18.417C31.9654 18.9421 32 19.4712 32 20.0008C32.0044 21.5773 31.696 23.139 31.0927 24.5956C30.4894 26.0521 29.6032 27.3744 28.4854 28.4861C27.3736 29.6038 26.0512 30.4899 24.5947 31.0931C23.1382 31.6962 21.5765 32.0045 20 32.0001Z" fill="white"/>
<path d="M27.8023 18.0323C29.255 18.0323 30.4327 16.8546 30.4327 15.4019C30.4327 13.9492 29.255 12.7715 27.8023 12.7715C26.3496 12.7715 25.1719 13.9492 25.1719 15.4019C25.1719 16.8546 26.3496 18.0323 27.8023 18.0323Z" fill="#30B8BA"/>
<circle cx="20" cy="20" r="19.5" stroke="black" stroke-opacity="0.05"/>
</svg>
