<svg width="40" height="40" viewBox="0 0 40 40" fill="none" xmlns="http://www.w3.org/2000/svg">
<circle cx="20" cy="20" r="20" fill="#AF1318"/>
<path d="M18.0525 25.6224C17.8406 26.1618 17.6389 26.6717 17.443 27.1832C17.3957 27.3065 17.3299 27.4441 17.2058 27.4475C17.0631 27.4475 17.091 27.2786 17.0606 27.179C15.9142 23.4976 13.7253 20.5903 10.5529 18.4124C10.4598 18.3558 10.3827 18.2762 10.329 18.1813C10.2754 18.0865 10.247 17.9794 10.2465 17.8704C10.1942 17.1419 10.1047 16.4159 10.0355 15.6882C10.0118 15.4639 9.99994 15.2385 10 15.0129C10.0051 14.2363 10.3098 13.7694 11.0535 13.5229C12.0015 13.2039 13.0019 13.1068 13.9802 12.9244C18.3283 12.1123 22.6774 11.3065 27.0277 10.5067C27.9115 10.343 28.8004 10.2012 29.68 10.018C29.9907 9.95297 29.9595 10.0678 29.9848 10.3058C30.0962 11.3788 29.5897 11.9325 28.6687 12.4686C25.2144 14.4769 22.6473 17.3994 20.5487 20.76C19.588 22.3114 18.7533 23.9375 18.0525 25.6224Z" fill="white"/>
<path d="M29.09 23.1515C28.9761 24.8593 28.868 26.5282 28.7456 28.1946C28.7009 28.8075 28.137 29.243 27.4161 29.2118C26.2089 29.1612 25.0026 29.0852 23.7963 29.0185C21.9442 28.9164 20.0921 28.8083 18.24 28.7154C17.9699 28.7019 17.8854 28.6563 18.0171 28.3778C19.7755 24.709 22.0387 21.4286 25.277 18.8936C26.4746 17.9597 27.781 17.1746 29.1677 16.5552C29.4632 16.4219 29.551 16.4632 29.5265 16.8085C29.372 18.9062 29.2344 21.0091 29.09 23.1515Z" fill="white"/>
<path d="M10.584 21.1983C10.7756 20.9889 10.8862 21.2092 10.9976 21.2776C13.3073 22.6891 14.9762 24.6644 16.0896 27.1201C16.2686 27.516 16.4205 27.9246 16.5868 28.3264C16.6713 28.5222 16.667 28.6303 16.3935 28.6134C14.7823 28.516 13.1702 28.428 11.5573 28.3492C11.3142 28.3374 11.2618 28.2293 11.2416 28.0174C11.0863 26.3831 10.9217 24.7505 10.7621 23.1162C10.7005 22.4915 10.6431 21.8626 10.584 21.1983Z" fill="white"/>
<circle cx="20" cy="20" r="19.5" stroke="black" stroke-opacity="0.05"/>
</svg>
