<svg width="40" height="40" viewBox="0 0 40 40" fill="none" xmlns="http://www.w3.org/2000/svg">
<circle cx="20" cy="20" r="20" fill="#1D3449"/>
<path d="M20.6147 28.9465C20.6147 28.9465 26.8066 34.0295 29.9144 26.183L28.4309 21.832L20.6147 28.9465Z" fill="url(#paint0_linear_17714_28136)"/>
<path d="M13.117 15.647C13.117 15.647 5.61922 18.4689 10.8603 25.0831L15.3694 25.9732L13.117 15.647Z" fill="url(#paint1_linear_17714_28136)"/>
<path d="M28.3832 15.8027C28.3832 15.8027 29.6891 7.8999 21.3402 9.13003L18.3125 12.5909L28.381 15.8027H28.3832Z" fill="url(#paint2_linear_17714_28136)"/>
<path d="M28.9942 18.6872C29.7934 23.2634 26.7288 27.6209 22.1505 28.42C17.5721 29.2192 13.2146 26.1547 12.4177 21.5763C11.6207 17.0001 14.683 12.6405 19.2614 11.8435C23.8397 11.0443 28.1972 14.1089 28.9942 18.6872Z" fill="url(#paint3_radial_17714_28136)"/>
<path d="M29.3858 18.6182C30.2218 23.4131 27.0122 27.9763 22.2172 28.8123C17.4223 29.6483 12.8569 26.4386 12.0209 21.6459C11.1871 16.8509 14.3968 12.2877 19.1917 11.4517C23.9866 10.6158 28.552 13.8254 29.388 18.6203L29.3858 18.6182Z" fill="url(#paint4_radial_17714_28136)"/>
<g opacity="0.38">
<path d="M21.1888 20.5519C21.3015 22.6722 21.3578 24.5954 21.3253 25.9901C21.3144 27.3848 21.1282 28.2403 21.0719 28.223C21.0979 28.2273 21.2516 27.3805 21.243 25.9879C21.2516 24.5975 21.1845 22.6787 21.0719 20.5584C20.8488 16.3201 20.42 12.9026 20.4438 12.9004C20.4828 12.8939 20.9658 16.3093 21.1888 20.5519Z" fill="url(#paint5_radial_17714_28136)"/>
<path d="M23.775 20.1191C24.2493 22.287 24.2558 24.3206 24.0543 25.7565C23.9461 26.4755 23.7598 27.043 23.5454 27.3916C23.3353 27.749 23.1058 27.8486 23.1058 27.8356C23.1014 27.8356 23.318 27.7295 23.5129 27.3721C23.7143 27.0235 23.8898 26.4604 23.9894 25.7435C24.1735 24.3163 24.1561 22.2913 23.6862 20.1364C22.7354 15.7833 20.4094 12.8855 20.4462 12.8985C20.4462 12.8509 22.822 15.74 23.7771 20.1169L23.775 20.1191Z" fill="url(#paint6_radial_17714_28136)"/>
<path d="M25.7478 18.9341C26.5859 21.024 26.8567 23.1442 26.4712 24.591C26.0878 26.0442 25.3341 26.6896 25.3536 26.6809C25.319 26.6722 26.0532 26.016 26.4148 24.5758C26.783 23.1442 26.5036 21.0413 25.672 18.9644C24.8144 16.8766 23.4521 15.2956 22.3563 14.3254C21.2561 13.3421 20.4353 12.9133 20.4439 12.9025C20.4439 12.8938 21.2777 13.3053 22.3931 14.2821C23.5041 15.2458 24.8815 16.8333 25.7456 18.9362L25.7478 18.9341Z" fill="url(#paint7_radial_17714_28136)"/>
<path d="M26.6227 16.9653C27.8247 18.6871 28.2405 20.6298 28.1885 21.9855C28.1084 23.3651 27.6406 24.1231 27.6536 24.1188C27.6254 24.1188 28.0781 23.3543 28.1474 21.9855C28.1864 20.6384 27.7662 18.7088 26.5751 17C25.3796 15.2847 23.725 14.2495 22.5078 13.6691C21.2733 13.0844 20.4395 12.9133 20.4439 12.9024C20.4439 12.8981 21.2842 13.0584 22.5251 13.6323C23.7509 14.204 25.4186 15.2393 26.6227 16.9653Z" fill="url(#paint8_radial_17714_28136)"/>
<path d="M25.8214 14.5983C27.1273 15.5101 27.9178 16.7814 28.273 17.7451C28.6368 18.7154 28.691 19.3651 28.6975 19.3608C28.6801 19.3673 28.6152 18.7219 28.2427 17.7581C27.881 16.7987 27.0927 15.5447 25.7932 14.6373C24.5046 13.7212 23.1034 13.3097 22.0985 13.1083C21.0849 12.909 20.4417 12.909 20.4439 12.9004C20.4439 12.896 21.0871 12.883 22.105 13.0758C23.1142 13.2685 24.5241 13.6779 25.8214 14.5983Z" fill="url(#paint9_radial_17714_28136)"/>
<path d="M23.4757 12.9308C21.8103 12.6254 20.4394 12.9178 20.4459 12.9048C20.435 12.9005 21.8081 12.5886 23.4822 12.8962C25.178 13.182 26.2435 14.1739 26.224 14.1631C26.2284 14.1869 25.1628 13.2145 23.4757 12.9308Z" fill="url(#paint10_radial_17714_28136)"/>
<path d="M22.0964 12.4697C21.1565 12.604 20.4439 12.9072 20.4439 12.9028C20.4353 12.8898 21.1478 12.5693 22.0921 12.4329C23.0428 12.2769 23.803 12.539 23.7943 12.5368C23.7943 12.5563 23.0385 12.3137 22.0964 12.4697Z" fill="url(#paint11_radial_17714_28136)"/>
<path d="M18.5097 20.4955C18.2737 22.6547 18.2953 24.6342 18.4967 26.0398C18.5963 26.7436 18.7544 27.3002 18.932 27.6532C19.1053 28.0128 19.2959 28.1427 19.2894 28.147C19.2894 28.1557 19.0836 28.0301 18.8952 27.6706C18.7046 27.3176 18.5335 26.7545 18.4231 26.0484C18.2022 24.6342 18.1675 22.6482 18.4058 20.4825C18.8584 16.1207 20.4112 12.8613 20.4459 12.9002C20.461 12.8894 18.9602 16.151 18.5097 20.4933V20.4955Z" fill="url(#paint12_radial_17714_28136)"/>
<path d="M16.1686 19.7791C15.5708 21.9578 15.4604 24.0737 15.8783 25.5031C16.2812 26.9628 17.1561 27.5042 17.1258 27.5021C17.1431 27.5281 16.2379 26.9953 15.8134 25.5226C15.3737 24.078 15.4777 21.947 16.0776 19.7552C16.6905 17.5505 17.8058 15.7638 18.7458 14.6116C19.69 13.4508 20.4415 12.892 20.4459 12.905C20.4567 12.9137 19.7247 13.4876 18.7978 14.6528C17.8752 15.8114 16.775 17.5917 16.1686 19.7812V19.7791Z" fill="url(#paint13_radial_17714_28136)"/>
<path d="M14.6507 18.176C13.6675 20.1468 13.4141 22.2324 13.7151 23.6423C14.0118 25.0717 14.694 25.7518 14.6637 25.7561C14.681 25.7626 13.9793 25.0934 13.6675 23.651C13.3513 22.2281 13.5982 20.1295 14.5901 18.1435C15.595 16.1467 17.176 14.791 18.3736 13.9918C19.5864 13.1905 20.4484 12.896 20.4484 12.9024C20.4549 12.9133 19.6038 13.223 18.4018 14.0351C17.2171 14.8386 15.6513 16.1922 14.6529 18.176H14.6507Z" fill="url(#paint14_radial_17714_28136)"/>
<path d="M13.9142 16.7336C13.2905 17.6064 12.9006 18.568 12.6884 19.4689C12.4588 20.372 12.448 21.221 12.6061 21.9076C12.9115 23.285 13.4139 24.0278 13.3858 24.0343C13.4031 24.0343 12.8877 23.2958 12.5715 21.914C12.409 21.2253 12.4177 20.3612 12.6451 19.4581C12.8552 18.5507 13.2472 17.5826 13.8752 16.7033C15.1357 14.9274 16.9484 13.9766 18.2478 13.4828C19.5689 12.9869 20.4482 12.8938 20.4461 12.8981C20.4504 12.9068 19.5754 13.0129 18.2608 13.5153C16.9679 14.0134 15.1682 14.9664 13.9164 16.7314L13.9142 16.7336Z" fill="url(#paint15_radial_17714_28136)"/>
<path d="M16.2226 13.6911C18.4447 12.7273 20.4675 12.9071 20.4437 12.9027C20.4653 12.9287 18.449 12.7619 16.2378 13.7235C15.1419 14.2 14.2995 14.919 13.8143 15.5298C13.3227 16.1405 13.1321 16.5931 13.1191 16.5845C13.1235 16.5888 13.3054 16.1297 13.797 15.5146C14.2778 14.8974 15.1224 14.1697 16.2248 13.6911H16.2226Z" fill="url(#paint16_radial_17714_28136)"/>
<path d="M18.1157 12.6686C19.4238 12.5603 20.4546 12.8938 20.446 12.9025C20.4503 12.9111 19.4194 12.5971 18.12 12.7054C16.8119 12.7812 15.8741 13.3443 15.8741 13.3205C15.8633 13.327 16.7989 12.7465 18.1178 12.6686H18.1157Z" fill="url(#paint17_radial_17714_28136)"/>
<path d="M19.3006 12.3722C19.9828 12.5584 20.4549 12.8963 20.4484 12.9049C20.4441 12.9136 19.9676 12.5909 19.2919 12.4068C18.6184 12.2097 18.0423 12.2725 18.0445 12.2574C18.0401 12.253 18.6205 12.1751 19.3006 12.3743V12.3722Z" fill="url(#paint18_radial_17714_28136)"/>
<path d="M20.052 12.348C19.7943 12.0751 19.5106 11.9408 19.5192 11.9278C19.5192 11.9235 19.8138 12.0426 20.078 12.322C20.353 12.5927 20.4483 12.9024 20.444 12.9003C20.4288 12.9089 20.3206 12.6144 20.052 12.348Z" fill="url(#paint19_radial_17714_28136)"/>
<path d="M20.5368 12.3612C20.6105 12.0623 20.7642 11.8587 20.775 11.8696C20.7772 11.8717 20.6451 12.0775 20.5715 12.372C20.4935 12.6622 20.461 12.9048 20.448 12.9048C20.4415 12.9048 20.4588 12.6579 20.539 12.3633L20.5368 12.3612Z" fill="url(#paint20_radial_17714_28136)"/>
<path d="M21.109 12.3049C21.527 12.0233 21.9428 11.9757 21.9385 11.9843C21.9428 11.9952 21.5378 12.058 21.1285 12.3352C20.717 12.6016 20.4593 12.9178 20.4463 12.9026C20.4463 12.9026 20.691 12.5756 21.109 12.3049Z" fill="url(#paint21_radial_17714_28136)"/>
<path d="M20.3939 12.1596C19.755 12.1747 19.179 12.3588 18.8476 12.6165C18.4967 12.8786 18.5206 13.1926 18.5141 13.1796C18.5119 13.1948 18.4773 12.8699 18.8324 12.597C19.166 12.3285 19.7464 12.1401 20.3918 12.1227C21.0372 12.1032 21.6262 12.2592 21.9792 12.4996C22.3539 12.7378 22.3756 13.0518 22.3691 13.041C22.3648 13.0518 22.3366 12.7486 21.9663 12.5212C21.6154 12.2917 21.0328 12.1401 20.3939 12.1574V12.1596Z" fill="url(#paint22_radial_17714_28136)"/>
<path d="M20.4979 14.1261C21.1541 14.1088 21.7475 13.9182 22.0767 13.6388C22.4297 13.3573 22.3648 13.0303 22.3713 13.0433C22.3778 13.0238 22.4579 13.3681 22.0984 13.6648C21.7649 13.955 21.1628 14.1543 20.5001 14.1716C19.833 14.1911 19.2244 14.0265 18.8693 13.7645C18.4881 13.5024 18.5098 13.1646 18.5162 13.1797C18.5249 13.1667 18.5119 13.4894 18.8888 13.7385C19.2418 13.9854 19.8417 14.1435 20.4979 14.1261Z" fill="url(#paint23_radial_17714_28136)"/>
<path d="M20.2446 16.309C21.3643 16.3198 22.4407 16.1228 23.3221 15.7178C24.1863 15.3431 24.927 14.5981 24.771 13.8357C24.6086 13.1081 24.0152 12.7659 23.6881 12.5601C23.3286 12.3587 23.1099 12.2872 23.1142 12.2786C23.1142 12.2786 23.3351 12.3414 23.7011 12.5363C24.0368 12.7356 24.6454 13.0691 24.8208 13.8271C24.8988 14.1996 24.7624 14.6327 24.4743 14.9641C24.1928 15.3041 23.7921 15.5683 23.3503 15.7784C22.458 16.1942 21.373 16.3913 20.2446 16.3827C19.1184 16.3653 18.0291 16.1379 17.1736 15.6485C16.7513 15.4016 16.3788 15.0767 16.199 14.6696C16.0106 14.2602 16.0843 13.8033 16.2813 13.4871C16.6907 12.8482 17.2754 12.5818 17.6392 12.4107C18.0183 12.2461 18.2413 12.1898 18.2413 12.192C18.2435 12.2006 18.0247 12.2634 17.6501 12.4345C17.2927 12.6121 16.7145 12.885 16.3246 13.5109C16.1362 13.8184 16.0691 14.2516 16.251 14.6414C16.4264 15.0334 16.7881 15.3496 17.2061 15.59C18.0507 16.0686 19.1293 16.2939 20.2468 16.309H20.2446Z" fill="url(#paint24_radial_17714_28136)"/>
<path d="M20.5693 19.2046C21.9012 19.1765 23.166 18.9426 24.2446 18.5332C25.3144 18.1261 26.224 17.5262 26.6767 16.779C27.1553 16.0253 26.9712 15.2348 26.7243 14.8342C26.4839 14.4097 26.2609 14.2364 26.276 14.2256C26.2717 14.2278 26.5013 14.3923 26.7568 14.8168C27.0145 15.2153 27.2181 16.034 26.733 16.8136C26.2739 17.5846 25.3534 18.1975 24.2749 18.6155C23.1877 19.0335 21.9121 19.2696 20.5715 19.2999C17.9184 19.3562 15.3607 18.5939 14.2778 17.1255C13.7342 16.3892 13.8469 15.5597 14.0764 15.1374C14.293 14.6912 14.5182 14.5158 14.5117 14.5136C14.5269 14.5223 14.3147 14.7085 14.1089 15.1525C13.8945 15.5748 13.7971 16.374 14.332 17.0865C15.3997 18.5116 17.9358 19.2609 20.5693 19.2046Z" fill="url(#paint25_radial_17714_28136)"/>
<path d="M20.6992 22.2561C23.5342 22.1868 26.1136 21.2577 27.4065 19.8997C28.0606 19.2305 28.301 18.4682 28.2988 17.9549C28.3053 17.433 28.1775 17.1601 28.1949 17.1558C28.1905 17.1558 28.3335 17.4243 28.3443 17.9549C28.3616 18.479 28.1256 19.2695 27.4672 19.9582C26.1634 21.3573 23.5623 22.3037 20.7036 22.3752C17.8426 22.4618 15.2091 21.6562 13.7884 20.3892C13.0715 19.7655 12.7293 19.0248 12.6687 18.5028C12.5972 17.9766 12.7077 17.6885 12.7012 17.6907C12.7228 17.6907 12.6297 17.9809 12.7142 18.4942C12.7878 19.0053 13.1322 19.72 13.8425 20.3242C15.2524 21.5522 17.8621 22.3405 20.6992 22.2539V22.2561Z" fill="url(#paint26_radial_17714_28136)"/>
<path d="M20.8509 25.0045C23.4823 24.9243 25.8473 24.1663 27.2204 23.1138C27.9091 22.594 28.3249 22.0071 28.4938 21.5566C28.6736 21.1083 28.6497 20.8268 28.6671 20.8311C28.6606 20.8268 28.6952 21.1083 28.5241 21.5675C28.3617 22.0266 27.948 22.6308 27.255 23.1614C25.8754 24.2356 23.4996 25.0066 20.8531 25.0868C18.2066 25.1821 15.7939 24.5757 14.3104 23.6596C13.5632 23.2134 13.0673 22.6871 12.8117 22.2756C12.5497 21.862 12.5085 21.5869 12.5063 21.5891C12.5193 21.5848 12.5713 21.8555 12.8399 22.2583C13.1019 22.6612 13.5979 23.1744 14.3429 23.6097C15.8221 24.502 18.2196 25.0976 20.8531 25.0045H20.8509Z" fill="url(#paint27_radial_17714_28136)"/>
<path d="M20.6817 27.0488C22.7414 27.0163 24.5822 26.5182 25.7647 25.8728C26.9732 25.2404 27.4172 24.4694 27.4194 24.4846C27.4323 24.4759 26.997 25.2621 25.7842 25.9075C24.5996 26.5659 22.75 27.0726 20.6817 27.1051C18.6156 27.1441 16.7488 26.7131 15.5381 26.1024C14.3015 25.5047 13.8359 24.7358 13.8424 24.751C13.851 24.7293 14.3231 25.4808 15.5554 26.0656C16.7618 26.6655 18.6221 27.0878 20.6796 27.0467L20.6817 27.0488Z" fill="url(#paint28_radial_17714_28136)"/>
<path d="M20.3247 28.1882C21.4487 28.2034 22.4601 28.015 23.1618 27.7876C23.8635 27.5623 24.2555 27.3198 24.2598 27.3306C24.2598 27.3263 23.8722 27.5796 23.1683 27.8114C22.4688 28.0453 21.453 28.238 20.3247 28.2229C19.1963 28.2099 18.1849 27.9868 17.4984 27.7118C16.8075 27.4432 16.4502 27.14 16.4502 27.1443C16.4567 27.1335 16.8162 27.4259 17.5071 27.6879C18.1936 27.9543 19.2007 28.1731 20.3247 28.1861V28.1882Z" fill="url(#paint29_radial_17714_28136)"/>
</g>
<path d="M12.1099 14.8238C12.1099 14.8238 13.0801 16.1861 15.6617 15.8851C18.2411 15.584 20.2682 12.8097 20.2682 12.8097C20.2682 12.8097 21.0414 10.7349 24.0496 9.0305C24.0496 9.0305 16.2356 8.24651 12.112 14.826L12.1099 14.8238Z" fill="url(#paint30_linear_17714_28136)"/>
<path d="M29.5982 15.3413C29.5982 15.3413 27.9327 15.5016 26.904 17.886C25.8753 20.2705 27.2635 23.413 27.2635 23.413C27.2635 23.413 28.6734 25.1196 28.6474 28.5761C28.6474 28.5761 33.2344 22.2024 29.5982 15.3413Z" fill="url(#paint31_linear_17714_28136)"/>
<path d="M20.4067 30.2286C20.4067 30.2286 21.0997 28.7061 19.5491 26.6226C17.9984 24.5392 14.583 24.171 14.583 24.171C14.583 24.171 12.3978 24.5392 9.41992 22.7871C9.41992 22.7871 12.6469 29.947 20.4067 30.2286Z" fill="url(#paint32_linear_17714_28136)"/>
<circle cx="20" cy="20" r="19.5" stroke="black" stroke-opacity="0.05"/>
<defs>
<linearGradient id="paint0_linear_17714_28136" x1="24.4091" y1="25.6199" x2="29.7303" y2="27.3048" gradientUnits="userSpaceOnUse">
<stop stop-color="#F89641"/>
<stop offset="0.53" stop-color="#FAA21C"/>
<stop offset="0.6" stop-color="#F6961E"/>
<stop offset="0.74" stop-color="#ED7923"/>
<stop offset="0.91" stop-color="#DF492C"/>
<stop offset="1" stop-color="#D82F32"/>
</linearGradient>
<linearGradient id="paint1_linear_17714_28136" x1="12.8528" y1="18.4213" x2="12.0991" y2="23.7858" gradientUnits="userSpaceOnUse">
<stop stop-color="#4999D4"/>
<stop offset="0.49" stop-color="#2570B8"/>
<stop offset="1" stop-color="#1D4996"/>
</linearGradient>
<linearGradient id="paint2_linear_17714_28136" x1="23.0663" y1="15.2114" x2="25.1064" y2="7.85008" gradientUnits="userSpaceOnUse">
<stop stop-color="#C8DA3F"/>
<stop offset="0.43" stop-color="#CDDC3B"/>
<stop offset="0.58" stop-color="#BDD53E"/>
<stop offset="0.87" stop-color="#96C347"/>
<stop offset="1" stop-color="#83BB4C"/>
</linearGradient>
<radialGradient id="paint3_radial_17714_28136" cx="0" cy="0" r="1" gradientUnits="userSpaceOnUse" gradientTransform="translate(21.2842 15.2624) rotate(-9.89) scale(10.1118)">
<stop stop-color="white"/>
<stop offset="0.46" stop-color="#FCFCFC"/>
<stop offset="0.76" stop-color="#F3F3F3"/>
<stop offset="1" stop-color="#E6E6E6"/>
</radialGradient>
<radialGradient id="paint4_radial_17714_28136" cx="0" cy="0" r="1" gradientUnits="userSpaceOnUse" gradientTransform="translate(21.9379 14.7653) scale(11.747)">
<stop stop-color="white"/>
<stop offset="0.33" stop-color="#FCFCFC"/>
<stop offset="0.55" stop-color="#F3F3F3"/>
<stop offset="0.74" stop-color="#E4E4E4"/>
<stop offset="0.9" stop-color="#CFCFCF"/>
<stop offset="1" stop-color="#BFBFBF"/>
</radialGradient>
<radialGradient id="paint5_radial_17714_28136" cx="0" cy="0" r="1" gradientUnits="userSpaceOnUse" gradientTransform="translate(21.3166 13.7905) scale(14.0665 14.0665)">
<stop stop-color="white"/>
<stop offset="1"/>
</radialGradient>
<radialGradient id="paint6_radial_17714_28136" cx="0" cy="0" r="1" gradientUnits="userSpaceOnUse" gradientTransform="translate(21.3169 13.7908) scale(14.0665 14.0665)">
<stop stop-color="white"/>
<stop offset="1"/>
</radialGradient>
<radialGradient id="paint7_radial_17714_28136" cx="0" cy="0" r="1" gradientUnits="userSpaceOnUse" gradientTransform="translate(21.3167 13.7904) scale(14.0665 14.0665)">
<stop stop-color="white"/>
<stop offset="1"/>
</radialGradient>
<radialGradient id="paint8_radial_17714_28136" cx="0" cy="0" r="1" gradientUnits="userSpaceOnUse" gradientTransform="translate(21.3167 13.7904) scale(14.0686)">
<stop stop-color="white"/>
<stop offset="1"/>
</radialGradient>
<radialGradient id="paint9_radial_17714_28136" cx="0" cy="0" r="1" gradientUnits="userSpaceOnUse" gradientTransform="translate(21.3166 13.7905) scale(14.0665)">
<stop stop-color="white"/>
<stop offset="1"/>
</radialGradient>
<radialGradient id="paint10_radial_17714_28136" cx="0" cy="0" r="1" gradientUnits="userSpaceOnUse" gradientTransform="translate(21.3165 13.7906) scale(14.0686)">
<stop stop-color="white"/>
<stop offset="1"/>
</radialGradient>
<radialGradient id="paint11_radial_17714_28136" cx="0" cy="0" r="1" gradientUnits="userSpaceOnUse" gradientTransform="translate(21.3167 13.7908) scale(14.0665 14.0665)">
<stop stop-color="white"/>
<stop offset="1"/>
</radialGradient>
<radialGradient id="paint12_radial_17714_28136" cx="0" cy="0" r="1" gradientUnits="userSpaceOnUse" gradientTransform="translate(21.3165 13.7904) scale(14.0686 14.0686)">
<stop stop-color="white"/>
<stop offset="1"/>
</radialGradient>
<radialGradient id="paint13_radial_17714_28136" cx="0" cy="0" r="1" gradientUnits="userSpaceOnUse" gradientTransform="translate(21.3165 13.7908) scale(14.0665 14.0665)">
<stop stop-color="white"/>
<stop offset="1"/>
</radialGradient>
<radialGradient id="paint14_radial_17714_28136" cx="0" cy="0" r="1" gradientUnits="userSpaceOnUse" gradientTransform="translate(21.3169 13.7904) scale(14.0665)">
<stop stop-color="white"/>
<stop offset="1"/>
</radialGradient>
<radialGradient id="paint15_radial_17714_28136" cx="0" cy="0" r="1" gradientUnits="userSpaceOnUse" gradientTransform="translate(21.3167 13.7904) scale(14.0665)">
<stop stop-color="white"/>
<stop offset="1"/>
</radialGradient>
<radialGradient id="paint16_radial_17714_28136" cx="0" cy="0" r="1" gradientUnits="userSpaceOnUse" gradientTransform="translate(21.3165 13.7907) scale(14.0686 14.0686)">
<stop stop-color="white"/>
<stop offset="1"/>
</radialGradient>
<radialGradient id="paint17_radial_17714_28136" cx="0" cy="0" r="1" gradientUnits="userSpaceOnUse" gradientTransform="translate(21.3166 13.7904) scale(14.0708 14.0708)">
<stop stop-color="white"/>
<stop offset="1"/>
</radialGradient>
<radialGradient id="paint18_radial_17714_28136" cx="0" cy="0" r="1" gradientUnits="userSpaceOnUse" gradientTransform="translate(21.3169 13.7907) scale(14.0665 14.0665)">
<stop stop-color="white"/>
<stop offset="1"/>
</radialGradient>
<radialGradient id="paint19_radial_17714_28136" cx="0" cy="0" r="1" gradientUnits="userSpaceOnUse" gradientTransform="translate(21.3168 13.7904) scale(14.0665)">
<stop stop-color="white"/>
<stop offset="1"/>
</radialGradient>
<radialGradient id="paint20_radial_17714_28136" cx="0" cy="0" r="1" gradientUnits="userSpaceOnUse" gradientTransform="translate(21.3165 13.7906) scale(14.0664 14.0665)">
<stop stop-color="white"/>
<stop offset="1"/>
</radialGradient>
<radialGradient id="paint21_radial_17714_28136" cx="0" cy="0" r="1" gradientUnits="userSpaceOnUse" gradientTransform="translate(21.3169 13.7906) scale(14.0686 14.0686)">
<stop stop-color="white"/>
<stop offset="1"/>
</radialGradient>
<radialGradient id="paint22_radial_17714_28136" cx="0" cy="0" r="1" gradientUnits="userSpaceOnUse" gradientTransform="translate(21.3165 13.7904) scale(14.0686 14.0686)">
<stop stop-color="white"/>
<stop offset="1"/>
</radialGradient>
<radialGradient id="paint23_radial_17714_28136" cx="0" cy="0" r="1" gradientUnits="userSpaceOnUse" gradientTransform="translate(21.3165 13.7905) scale(14.0686 14.0686)">
<stop stop-color="white"/>
<stop offset="1"/>
</radialGradient>
<radialGradient id="paint24_radial_17714_28136" cx="0" cy="0" r="1" gradientUnits="userSpaceOnUse" gradientTransform="translate(21.3167 13.7903) scale(14.0665)">
<stop stop-color="white"/>
<stop offset="1"/>
</radialGradient>
<radialGradient id="paint25_radial_17714_28136" cx="0" cy="0" r="1" gradientUnits="userSpaceOnUse" gradientTransform="translate(21.3165 13.7903) scale(14.0665 14.0665)">
<stop stop-color="white"/>
<stop offset="1"/>
</radialGradient>
<radialGradient id="paint26_radial_17714_28136" cx="0" cy="0" r="1" gradientUnits="userSpaceOnUse" gradientTransform="translate(21.3165 13.7902) scale(14.0686)">
<stop stop-color="white"/>
<stop offset="1"/>
</radialGradient>
<radialGradient id="paint27_radial_17714_28136" cx="0" cy="0" r="1" gradientUnits="userSpaceOnUse" gradientTransform="translate(21.3166 13.7903) scale(14.0686 14.0686)">
<stop stop-color="white"/>
<stop offset="1"/>
</radialGradient>
<radialGradient id="paint28_radial_17714_28136" cx="0" cy="0" r="1" gradientUnits="userSpaceOnUse" gradientTransform="translate(21.3163 13.7902) scale(14.0686 14.0686)">
<stop stop-color="white"/>
<stop offset="1"/>
</radialGradient>
<radialGradient id="paint29_radial_17714_28136" cx="0" cy="0" r="1" gradientUnits="userSpaceOnUse" gradientTransform="translate(21.3166 13.7947) scale(14.0643 14.0643)">
<stop stop-color="white"/>
<stop offset="1"/>
</radialGradient>
<linearGradient id="paint30_linear_17714_28136" x1="18.6461" y1="14.1633" x2="17.7451" y2="10.6158" gradientUnits="userSpaceOnUse">
<stop stop-color="#C8DA3F"/>
<stop offset="0.43" stop-color="#CDDC3B"/>
<stop offset="0.58" stop-color="#BDD53E"/>
<stop offset="0.87" stop-color="#96C347"/>
<stop offset="1" stop-color="#83BB4C"/>
</linearGradient>
<linearGradient id="paint31_linear_17714_28136" x1="26.8996" y1="21.3549" x2="30.4193" y2="22.3492" gradientUnits="userSpaceOnUse">
<stop stop-color="#F89641"/>
<stop offset="0.53" stop-color="#FAA21C"/>
<stop offset="0.6" stop-color="#F6961E"/>
<stop offset="0.74" stop-color="#ED7923"/>
<stop offset="0.91" stop-color="#DF492C"/>
<stop offset="1" stop-color="#D82F32"/>
</linearGradient>
<linearGradient id="paint32_linear_17714_28136" x1="16.5483" y1="24.884" x2="13.9285" y2="27.4369" gradientUnits="userSpaceOnUse">
<stop stop-color="#4999D4"/>
<stop offset="0.49" stop-color="#2570B8"/>
<stop offset="1" stop-color="#1D4996"/>
</linearGradient>
</defs>
</svg>
