<svg width="40" height="40" viewBox="0 0 40 40" fill="none" xmlns="http://www.w3.org/2000/svg">
<circle cx="20" cy="20" r="20" fill="#760000"/>
<g clip-path="url(#clip0_33363_66891)">
<path d="M32.3325 24.1169C30.7415 24.1169 29.7163 23.3887 29.6375 22.1548L29.6328 22.0806H30.9548L30.9641 22.1316C31.0522 22.6511 31.6042 22.9758 32.3696 22.9758C33.1443 22.9758 33.6313 22.6372 33.6313 22.127V22.1223C33.6313 21.6677 33.302 21.4404 32.4717 21.2688L31.7666 21.1296C30.4446 20.8652 29.7766 20.2344 29.7766 19.2278V19.2231C29.7766 17.9985 30.8435 17.1914 32.3279 17.1914C33.8772 17.1914 34.8281 17.9661 34.8931 19.1396L34.8977 19.2278H33.5757L33.571 19.1721C33.5015 18.6479 33.019 18.3279 32.3279 18.3279C31.6089 18.3325 31.1775 18.6619 31.1775 19.1396V19.1443C31.1775 19.5664 31.5208 19.8123 32.2908 19.9653L33.0005 20.1091C34.4014 20.3875 35.0322 20.958 35.0322 22.011V22.0156C35.0322 23.3005 34.021 24.1169 32.3325 24.1169Z" fill="white"/>
<path d="M26.2682 24.1162C24.5519 24.1162 23.4618 23.1235 23.4618 21.6345V17.3066H24.8627V21.5093C24.8627 22.3767 25.3683 22.9287 26.2682 22.9287C27.1681 22.9287 27.6691 22.3767 27.6691 21.5093V17.3066H29.0699V21.6345C29.0699 23.1189 27.9938 24.1162 26.2682 24.1162Z" fill="white"/>
<path d="M19.9674 24.1169C18.0099 24.1169 16.7806 22.8088 16.7806 20.6519V20.6472C16.7806 18.4902 18.0145 17.1914 19.9674 17.1914C21.5909 17.1914 22.7552 18.2166 22.8851 19.636L22.8898 19.6777H21.526L21.5074 19.5989C21.3497 18.8613 20.8024 18.3789 19.9674 18.3789C18.8959 18.3789 18.2094 19.2417 18.2094 20.6426V20.6472C18.2094 22.0574 18.8959 22.9294 19.9674 22.9294C20.7745 22.9294 21.3405 22.4656 21.5214 21.6724L21.5306 21.626H22.8944L22.8898 21.677C22.7599 23.1011 21.5863 24.1169 19.9674 24.1169Z" fill="white"/>
<path d="M13.1562 24.1169C11.1663 24.1169 9.92773 22.7856 9.92773 20.6565V20.6472C9.92773 18.5181 11.1755 17.1914 13.1562 17.1914C15.1416 17.1914 16.3848 18.5227 16.3848 20.6472V20.6565C16.3848 22.7856 15.1462 24.1169 13.1562 24.1169ZM13.1562 22.9294C14.2695 22.9294 14.9561 22.0435 14.9561 20.6565V20.6472C14.9561 19.251 14.2556 18.3789 13.1562 18.3789C12.0615 18.3789 11.3564 19.2463 11.3564 20.6472V20.6565C11.3564 22.0574 12.0569 22.9294 13.1562 22.9294Z" fill="white"/>
<path d="M5.22266 24.0002V17.3066H9.6062V18.4617H6.62354V20.2568H9.34644V21.3655H6.62354V24.0002H5.22266Z" fill="white"/>
</g>
<circle cx="20" cy="20" r="19.5" stroke="black" stroke-opacity="0.05"/>
<defs>
<clipPath id="clip0_33363_66891">
<rect width="31" height="8" fill="white" transform="translate(5 17)"/>
</clipPath>
</defs>
</svg>
