<svg width="40" height="40" viewBox="0 0 40 40" fill="none" xmlns="http://www.w3.org/2000/svg">
<circle cx="20" cy="20" r="20" fill="#F6F8FA"/>
<path fill-rule="evenodd" clip-rule="evenodd" d="M23.3967 26.2647C21.1804 30.0468 18.0536 32.2221 15.3528 31.4606C13.4096 30.9127 12.0725 28.9532 11.5073 26.2647H23.3967ZM23.6716 25.7787H11.4149C11.0352 23.5533 11.1591 20.8843 11.8721 18.1245H26.0885C25.9616 19.2009 25.7427 20.3124 25.426 21.4354C24.979 23.0207 24.3781 24.4844 23.6716 25.7787ZM22.0736 7.62477C18.3683 6.58003 13.8614 11.0627 12.0036 17.6386H26.1398C26.6071 12.6223 25.0527 8.46476 22.0736 7.62477Z" fill="#28499D"/>
<path d="M27.4658 17.2488C27.2627 17.2488 27.0676 17.2275 26.8805 17.1847C26.6934 17.1473 26.5009 17.0778 26.3031 16.9762C26.2497 16.9388 26.2336 16.888 26.255 16.8239L26.4635 15.7173C26.4635 15.6905 26.4769 15.6772 26.5036 15.6772C26.5357 15.6772 26.5517 15.6905 26.5517 15.7173C26.7067 16.6261 27.0809 17.0805 27.6743 17.0805C27.9202 17.0805 28.126 17.0056 28.2918 16.8559C28.4628 16.7062 28.5697 16.4924 28.6125 16.2144C28.6232 16.1182 28.6285 16.0514 28.6285 16.014C28.6285 15.752 28.5537 15.5302 28.404 15.3484C28.2543 15.1613 28.0405 14.9662 27.7625 14.7631C27.5594 14.608 27.399 14.4797 27.2814 14.3782C27.1691 14.2766 27.0729 14.1563 26.9927 14.0173C26.9125 13.873 26.8725 13.7099 26.8725 13.5282C26.8725 13.4533 26.8805 13.3758 26.8965 13.2956C26.9767 12.8947 27.1798 12.5873 27.5059 12.3735C27.8374 12.1597 28.2116 12.0527 28.6285 12.0527C28.9333 12.0527 29.2406 12.1169 29.5507 12.2452C29.6255 12.2826 29.6549 12.328 29.6389 12.3815L29.5266 13.3758C29.5213 13.3919 29.5053 13.3999 29.4785 13.3999C29.4518 13.3999 29.4358 13.3919 29.4304 13.3758C29.3663 13.023 29.2487 12.7397 29.0776 12.5258C28.9119 12.312 28.7007 12.2051 28.4441 12.2051C28.2463 12.2051 28.0833 12.2559 27.955 12.3574C27.8267 12.459 27.7305 12.5846 27.6663 12.7343C27.6075 12.884 27.5781 13.0283 27.5781 13.1673C27.5781 13.3277 27.6155 13.4747 27.6904 13.6084C27.7652 13.7367 27.8561 13.8489 27.963 13.9451C28.0699 14.036 28.2249 14.159 28.4281 14.314C28.7381 14.5439 28.9734 14.7577 29.1337 14.9555C29.2994 15.148 29.3823 15.3832 29.3823 15.6611C29.3823 15.7574 29.377 15.8295 29.3663 15.8777C29.2968 16.2786 29.0936 16.6074 28.7568 16.864C28.4254 17.1205 27.9951 17.2488 27.4658 17.2488Z" fill="#231916"/>
<path d="M21.29 17.1526C21.274 17.1526 21.2659 17.1365 21.2659 17.1044C21.2659 17.0724 21.274 17.0563 21.29 17.0563C21.4825 17.0563 21.6268 17.043 21.723 17.0162C21.8192 16.9895 21.8887 16.9387 21.9315 16.8639C21.9796 16.7837 22.0197 16.6634 22.0518 16.503L22.7013 12.7904C22.7173 12.6942 22.7254 12.614 22.7254 12.5498C22.7254 12.4536 22.7013 12.3895 22.6532 12.3574C22.6051 12.3253 22.5195 12.3093 22.3966 12.3093H22.2683C21.9903 12.3093 21.7337 12.4215 21.4985 12.6461C21.2633 12.8706 21.0922 13.1646 20.9853 13.5281C20.9799 13.5441 20.9612 13.5495 20.9292 13.5441C20.9024 13.5388 20.8917 13.5281 20.8971 13.5121C20.9399 13.3731 21.0013 13.1298 21.0815 12.7824C21.1671 12.4295 21.2285 12.1569 21.2659 11.9645C21.2713 11.9484 21.29 11.9431 21.3221 11.9484C21.3542 11.9484 21.3675 11.9564 21.3622 11.9725C21.3461 12.0847 21.4504 12.1409 21.6749 12.1409C22.0705 12.1569 22.5596 12.1649 23.1423 12.1649C23.415 12.1649 23.717 12.1596 24.0484 12.1489L24.5536 12.1409C24.714 12.1409 24.8343 12.1275 24.9145 12.1008C24.9946 12.0741 25.0508 12.0206 25.0828 11.9404C25.0935 11.9244 25.1122 11.919 25.139 11.9244C25.1657 11.9244 25.1764 11.9351 25.1711 11.9564C25.1229 12.1222 25.0588 12.3895 24.9786 12.7583C24.8984 13.1272 24.8503 13.3784 24.8343 13.5121C24.8289 13.5335 24.8102 13.5441 24.7781 13.5441C24.7461 13.5388 24.7327 13.5254 24.738 13.5041C24.7594 13.3544 24.7701 13.2501 24.7701 13.1913C24.7701 12.9187 24.6979 12.7049 24.5536 12.5498C24.4146 12.3895 24.2168 12.3093 23.9602 12.3093H23.8319C23.6716 12.3093 23.5646 12.3413 23.5112 12.4055C23.4577 12.4696 23.415 12.6033 23.3829 12.8064L22.7334 16.503C22.712 16.6313 22.7013 16.7142 22.7013 16.7516C22.7013 16.8746 22.7441 16.9574 22.8296 17.0002C22.9151 17.0376 23.0755 17.0563 23.3107 17.0563C23.3214 17.0563 23.3268 17.0724 23.3268 17.1044C23.3268 17.1365 23.3214 17.1526 23.3107 17.1526C23.1343 17.1526 22.9953 17.1499 22.8937 17.1445L22.2923 17.1365L21.715 17.1445C21.6081 17.1499 21.4664 17.1526 21.29 17.1526Z" fill="white"/>
<path d="M16.2282 17.2488C15.854 17.2488 15.5306 17.1633 15.258 16.9923C14.9853 16.8158 14.7769 16.5753 14.6325 16.2706C14.4882 15.9605 14.416 15.613 14.416 15.2281C14.416 15.025 14.4347 14.8299 14.4721 14.6428C14.5577 14.151 14.7341 13.7073 15.0014 13.3117C15.274 12.9161 15.6055 12.6087 15.9957 12.3895C16.3913 12.165 16.8109 12.0527 17.2546 12.0527C17.6395 12.0527 17.971 12.1383 18.249 12.3093C18.5269 12.4804 18.7381 12.7183 18.8824 13.023C19.0321 13.3224 19.107 13.6645 19.107 14.0494C19.107 14.2579 19.0882 14.4557 19.0508 14.6428C18.9599 15.1613 18.7728 15.6184 18.4895 16.014C18.2062 16.4042 17.8641 16.7089 17.4631 16.9281C17.0622 17.1419 16.6506 17.2488 16.2282 17.2488ZM16.573 17.0404C16.9793 17.0404 17.3348 16.8666 17.6395 16.5191C17.9442 16.1663 18.1527 15.6825 18.265 15.0678C18.3131 14.8005 18.3372 14.5412 18.3372 14.29C18.3372 13.8997 18.281 13.5496 18.1688 13.2395C18.0618 12.9294 17.9015 12.6862 17.6876 12.5098C17.4792 12.3334 17.2306 12.2452 16.9419 12.2452C16.5303 12.2452 16.1721 12.4243 15.8674 12.7824C15.5627 13.1353 15.3569 13.6137 15.25 14.2178C15.2018 14.4744 15.1778 14.7283 15.1778 14.9796C15.1778 15.3645 15.2312 15.7146 15.3382 16.03C15.4504 16.3401 15.6108 16.586 15.8193 16.7677C16.0278 16.9495 16.279 17.0404 16.573 17.0404Z" fill="white"/>
<path d="M10.6038 17.2488C9.87138 17.2488 9.33413 17.0564 8.99199 16.6715C8.65521 16.2813 8.48682 15.7948 8.48682 15.2121C8.48682 15.0464 8.50553 14.8513 8.54295 14.6267C8.63383 14.1082 8.83162 13.6538 9.13633 13.2636C9.44104 12.8733 9.80456 12.5739 10.2269 12.3655C10.6492 12.157 11.0849 12.0527 11.5339 12.0527C11.7531 12.0527 11.9749 12.0768 12.1995 12.1249C12.424 12.173 12.5977 12.2318 12.7207 12.3013C12.7528 12.3227 12.7715 12.3441 12.7768 12.3655C12.7875 12.3868 12.7902 12.4269 12.7848 12.4857L12.6726 13.5041C12.6672 13.5202 12.6512 13.5282 12.6245 13.5282C12.6031 13.5282 12.5897 13.5202 12.5844 13.5041C12.5095 13.0978 12.3518 12.7878 12.1113 12.5739C11.8761 12.3601 11.5767 12.2532 11.2132 12.2532C10.7321 12.2532 10.3231 12.443 9.98631 12.8225C9.64953 13.2021 9.43035 13.7206 9.32878 14.3782C9.2967 14.6027 9.28067 14.8219 9.28067 15.0357C9.28067 15.4259 9.33413 15.7788 9.44104 16.0942C9.5533 16.4096 9.71368 16.6581 9.92216 16.8399C10.1306 17.0163 10.3739 17.1045 10.6519 17.1045C11.2239 17.1045 11.7878 16.7009 12.3438 15.8937C12.3492 15.883 12.3598 15.8777 12.3759 15.8777C12.3919 15.8777 12.4053 15.883 12.416 15.8937C12.432 15.899 12.4374 15.9071 12.432 15.9177L12.2075 16.8239C12.1915 16.888 12.1754 16.9334 12.1594 16.9602C12.1433 16.9816 12.1113 16.9976 12.0632 17.0083C11.582 17.1687 11.0956 17.2488 10.6038 17.2488Z" fill="#231916"/>
<path d="M33.4043 26.4432C33.267 26.4432 33.1651 26.4121 33.0987 26.3501C33.0322 26.2881 32.999 26.2172 32.999 26.1375C32.999 26.0755 33.0145 26.0179 33.0455 25.9648C33.0721 25.9116 33.112 25.8562 33.1651 25.7987C33.2271 25.8562 33.298 25.9005 33.3777 25.9315C33.453 25.967 33.535 25.9847 33.6236 25.9847C33.7742 25.9847 33.9536 25.9205 34.1618 25.792C34.37 25.668 34.6003 25.4753 34.8528 25.214L35.1119 24.9748C35.3334 24.678 35.515 24.3989 35.6567 24.1376C35.7985 23.8762 35.9048 23.6171 35.9757 23.3602C36.0465 23.1033 36.082 22.8375 36.082 22.5629C36.082 22.461 36.0731 22.3724 36.0554 22.2971C36.0377 22.2218 36.0155 22.1554 35.9889 22.0978C36.0244 22.0712 36.0642 22.0513 36.1085 22.038C36.1528 22.0247 36.1971 22.0181 36.2414 22.0181C36.3433 22.0181 36.4253 22.0513 36.4873 22.1177C36.5537 22.1842 36.5869 22.3016 36.5869 22.4699C36.5869 22.6869 36.5471 22.9173 36.4673 23.1609C36.392 23.4045 36.2857 23.6503 36.1484 23.8984C36.0155 24.1464 35.8627 24.3879 35.69 24.6226C35.5172 24.8574 35.3378 25.0744 35.1518 25.2738C34.9613 25.4775 34.7797 25.6525 34.6069 25.7987C34.4386 25.9448 34.2792 26.0644 34.1286 26.1575C33.9824 26.2549 33.8495 26.3258 33.7299 26.3701C33.6059 26.4188 33.4973 26.4432 33.4043 26.4432ZM34.7332 25.4664C34.7288 25.2893 34.7199 25.0877 34.7066 24.8618C34.6977 24.6315 34.6845 24.3945 34.6667 24.1509C34.6534 23.9028 34.6357 23.6658 34.6136 23.4399C34.5959 23.2096 34.5759 23.0036 34.5538 22.822C34.5316 22.6404 34.5095 22.5009 34.4873 22.4034C34.3323 22.523 34.195 22.6914 34.0754 22.9084L33.896 22.7091C33.9979 22.5496 34.0975 22.4189 34.195 22.3171C34.2924 22.2152 34.3832 22.1399 34.4674 22.0912C34.556 22.0424 34.6335 22.0181 34.7 22.0181C34.793 22.0181 34.8616 22.0446 34.9059 22.0978C34.9502 22.1465 34.9834 22.2418 35.0056 22.3835C35.0145 22.4499 35.0255 22.5607 35.0388 22.7157C35.0565 22.8663 35.0743 23.0435 35.092 23.2473C35.1097 23.4466 35.1252 23.657 35.1385 23.8785C35.1562 24.0955 35.1695 24.3059 35.1783 24.5097C35.1916 24.7134 35.2005 24.8928 35.2049 25.0479L34.7332 25.4664Z" fill="#231916"/>
<path d="M31.3372 26.4433C31.0802 26.4433 30.8588 26.4123 30.6727 26.3503C30.4867 26.2883 30.3449 26.2019 30.2475 26.0912C30.15 25.9849 30.1013 25.8631 30.1013 25.7258C30.1013 25.5574 30.1788 25.4002 30.3339 25.254C30.4845 25.1123 30.7015 24.9949 30.985 24.9019L31.2441 24.955C31.0359 25.0525 30.8787 25.1588 30.7724 25.274C30.6705 25.3891 30.6196 25.5176 30.6196 25.6593C30.6196 25.8055 30.6838 25.9273 30.8123 26.0248C30.9451 26.1266 31.1467 26.1776 31.4169 26.1776C31.6074 26.1776 31.7757 26.1466 31.9219 26.0846C32.0725 26.0225 32.1898 25.9406 32.274 25.8387C32.3626 25.7368 32.4069 25.6261 32.4069 25.5065C32.4069 25.4002 32.3692 25.3205 32.2939 25.2673C32.2186 25.2142 32.0725 25.1654 31.8554 25.1211L31.0913 24.9617L31.0182 24.9351C30.8632 24.9041 30.7458 24.8531 30.6661 24.7823C30.5864 24.7114 30.5465 24.6272 30.5465 24.5298C30.5465 24.4146 30.6107 24.3017 30.7392 24.1909C30.8721 24.0758 31.0758 23.9827 31.3504 23.9119L31.4435 24.0581C31.3194 24.0891 31.2286 24.1334 31.171 24.1909C31.1135 24.2441 31.0847 24.2972 31.0847 24.3504C31.0847 24.3947 31.1024 24.4301 31.1378 24.4567C31.1733 24.4833 31.2397 24.5076 31.3372 24.5298L32.1212 24.7158C32.3914 24.7778 32.5841 24.8554 32.6992 24.9484C32.8144 25.0458 32.872 25.1787 32.872 25.347C32.872 25.5419 32.8011 25.7213 32.6594 25.8852C32.5176 26.0535 32.3294 26.1886 32.0946 26.2905C31.8643 26.3924 31.6118 26.4433 31.3372 26.4433ZM31.7092 24.1046C31.4257 24.1046 31.1976 24.0315 31.0249 23.8853C30.8566 23.7347 30.7724 23.5376 30.7724 23.294C30.7724 23.0592 30.8322 22.8466 30.9518 22.6561C31.0758 22.4656 31.2375 22.3128 31.4368 22.1977C31.6361 22.0825 31.8532 22.0249 32.088 22.0249C32.2696 22.0249 32.4268 22.0603 32.5597 22.1312C32.697 22.2021 32.8011 22.2995 32.872 22.4236C32.9473 22.5476 32.9849 22.6871 32.9849 22.8421C32.9849 23.0725 32.9251 23.2829 32.8055 23.4734C32.6859 23.6638 32.5287 23.8166 32.3338 23.9318C32.1433 24.047 31.9351 24.1046 31.7092 24.1046ZM31.7757 23.8388C31.8997 23.8388 32.0127 23.7945 32.1145 23.7059C32.2164 23.6173 32.2984 23.4977 32.3604 23.3471C32.4224 23.1921 32.4534 23.0215 32.4534 22.8355C32.4534 22.6583 32.4157 22.521 32.3404 22.4236C32.2696 22.3261 32.1721 22.2774 32.0481 22.2774C31.9196 22.2774 31.8 22.3239 31.6893 22.4169C31.583 22.5055 31.4966 22.6251 31.4302 22.7757C31.3682 22.9263 31.3372 23.0924 31.3372 23.274C31.3372 23.4512 31.3792 23.5907 31.4634 23.6926C31.5476 23.7901 31.6516 23.8388 31.7757 23.8388ZM33.4434 22.4966L32.7325 22.4435L32.4866 22.1844L33.5364 22.0781L33.4434 22.4966Z" fill="#231916"/>
<path d="M28.0936 24.9814C27.9252 24.9814 27.7724 24.9415 27.6351 24.8618C27.4978 24.7777 27.3893 24.6603 27.3095 24.5097C27.2298 24.3546 27.1899 24.173 27.1899 23.9648C27.1899 23.7256 27.2298 23.4909 27.3095 23.2605C27.3893 23.0302 27.5 22.822 27.6418 22.636C27.7879 22.4455 27.9562 22.2949 28.1467 22.1842C28.3372 22.0734 28.5409 22.0181 28.758 22.0181C28.9263 22.0181 29.0791 22.0601 29.2164 22.1443C29.3582 22.224 29.4689 22.3414 29.5487 22.4965C29.6328 22.6471 29.6749 22.8265 29.6749 23.0346C29.6749 23.2738 29.6328 23.5108 29.5487 23.7456C29.4689 23.9759 29.356 24.1841 29.2098 24.3701C29.0681 24.5562 28.902 24.7046 28.7115 24.8153C28.521 24.926 28.315 24.9814 28.0936 24.9814ZM28.2397 24.6691C28.3726 24.6691 28.4922 24.6248 28.5985 24.5362C28.7093 24.4477 28.8023 24.3303 28.8776 24.1841C28.9573 24.0335 29.0171 23.8652 29.057 23.6791C29.1013 23.4931 29.1234 23.3026 29.1234 23.1077C29.1234 22.8641 29.0747 22.6714 28.9773 22.5297C28.8842 22.3879 28.7668 22.3171 28.6251 22.3171C28.4922 22.3171 28.3704 22.3614 28.2597 22.4499C28.1534 22.5385 28.0626 22.6581 27.9873 22.8087C27.912 22.9593 27.8522 23.1299 27.8079 23.3203C27.768 23.5064 27.7481 23.6969 27.7481 23.8918C27.7481 24.1487 27.7946 24.3436 27.8876 24.4764C27.985 24.6049 28.1024 24.6691 28.2397 24.6691Z" fill="#231916"/>
<path d="M25.3287 24.9817C25.2445 24.9817 25.1803 24.9573 25.136 24.9086C25.0917 24.8599 25.0696 24.7978 25.0696 24.7225C25.0696 24.6738 25.0762 24.6096 25.0895 24.5299C25.1028 24.4501 25.1272 24.335 25.1626 24.1844C25.198 24.0337 25.2468 23.83 25.3088 23.5731L25.9466 20.8556L25.4682 20.7891L25.5081 20.6031L26.4715 20.3174L26.5778 20.4104C26.5247 20.6053 26.4737 20.8024 26.425 21.0017C26.3763 21.2011 26.3209 21.4292 26.2589 21.6861L25.7539 23.7724C25.7274 23.8699 25.703 23.974 25.6809 24.0847C25.6587 24.1954 25.6388 24.2973 25.6211 24.3903C25.6078 24.4789 25.5989 24.5498 25.5945 24.6029C25.6964 24.5498 25.7894 24.4833 25.8735 24.4036C25.9621 24.3195 26.0507 24.222 26.1393 24.1113L26.2988 24.3039C26.188 24.4413 26.0751 24.5609 25.9599 24.6627C25.8447 24.7646 25.734 24.8444 25.6277 24.9019C25.5214 24.9551 25.4217 24.9817 25.3287 24.9817Z" fill="#231916"/>
<path d="M22.5572 24.9814C22.3889 24.9814 22.236 24.9415 22.0987 24.8618C21.9614 24.7777 21.8529 24.6603 21.7732 24.5097C21.6934 24.3546 21.6536 24.173 21.6536 23.9648C21.6536 23.7256 21.6934 23.4909 21.7732 23.2605C21.8529 23.0302 21.9636 22.822 22.1054 22.636C22.2515 22.4455 22.4199 22.2949 22.6103 22.1842C22.8008 22.0734 23.0046 22.0181 23.2216 22.0181C23.3899 22.0181 23.5428 22.0601 23.6801 22.1443C23.8218 22.224 23.9326 22.3414 24.0123 22.4965C24.0964 22.6471 24.1385 22.8265 24.1385 23.0346C24.1385 23.2738 24.0964 23.5108 24.0123 23.7456C23.9326 23.9759 23.8196 24.1841 23.6734 24.3701C23.5317 24.5562 23.3656 24.7046 23.1751 24.8153C22.9846 24.926 22.7787 24.9814 22.5572 24.9814ZM22.7034 24.6691C22.8362 24.6691 22.9558 24.6248 23.0622 24.5362C23.1729 24.4477 23.2659 24.3303 23.3412 24.1841C23.4209 24.0335 23.4807 23.8652 23.5206 23.6791C23.5649 23.4931 23.587 23.3026 23.587 23.1077C23.587 22.8641 23.5383 22.6714 23.4409 22.5297C23.3479 22.3879 23.2305 22.3171 23.0887 22.3171C22.9558 22.3171 22.834 22.3614 22.7233 22.4499C22.617 22.5385 22.5262 22.6581 22.4509 22.8087C22.3756 22.9593 22.3158 23.1299 22.2715 23.3203C22.2316 23.5064 22.2117 23.6969 22.2117 23.8918C22.2117 24.1487 22.2582 24.3436 22.3512 24.4764C22.4487 24.6049 22.566 24.6691 22.7034 24.6691Z" fill="white"/>
<path d="M19.7523 24.9814C19.6681 24.9814 19.6017 24.9571 19.5529 24.9083C19.5086 24.8552 19.4865 24.7865 19.4865 24.7024C19.4865 24.6403 19.5042 24.5385 19.5396 24.3967C19.5751 24.255 19.6194 24.0933 19.6725 23.9117C19.7257 23.7301 19.7766 23.5485 19.8254 23.3669C19.8785 23.1852 19.9228 23.0236 19.9582 22.8818C19.9937 22.7356 20.0114 22.6316 20.0114 22.5695C20.0114 22.481 19.9671 22.4367 19.8785 22.4367C19.7855 22.4367 19.6792 22.4876 19.5596 22.5895C19.4444 22.6914 19.3226 22.8309 19.1941 23.0081C19.0701 23.1808 18.9483 23.3757 18.8287 23.5928C18.7135 23.8098 18.6095 24.0335 18.5164 24.2638C18.4234 24.4942 18.3525 24.7156 18.3038 24.9283H17.7922C17.8675 24.6891 17.9406 24.4432 18.0115 24.1907C18.0823 23.9338 18.1444 23.688 18.1975 23.4532C18.2507 23.2185 18.2927 23.0081 18.3237 22.822C18.3548 22.636 18.3703 22.4942 18.3703 22.3968C18.2728 22.4499 18.1798 22.5186 18.0912 22.6028C18.0026 22.6825 17.914 22.7866 17.8254 22.915L17.6726 22.7024C17.7833 22.5651 17.8963 22.4455 18.0115 22.3436C18.1266 22.2418 18.2374 22.162 18.3437 22.1044C18.45 22.0469 18.5474 22.0181 18.636 22.0181C18.7202 22.0181 18.78 22.0446 18.8154 22.0978C18.8553 22.1465 18.8752 22.2152 18.8752 22.3038C18.8752 22.3791 18.8641 22.4854 18.842 22.6227C18.8243 22.7556 18.7888 22.9305 18.7357 23.1476C18.6825 23.3646 18.6095 23.6371 18.5164 23.9648H18.45C18.5341 23.7256 18.636 23.4909 18.7556 23.2605C18.8797 23.0302 19.0148 22.822 19.1609 22.636C19.3115 22.4499 19.4666 22.3016 19.626 22.1908C19.7899 22.0757 19.9538 22.0181 20.1177 22.0181C20.2506 22.0181 20.3525 22.0557 20.4233 22.131C20.4986 22.2019 20.5363 22.3038 20.5363 22.4367C20.5363 22.5075 20.5186 22.6161 20.4831 22.7622C20.4477 22.904 20.4034 23.0656 20.3503 23.2473C20.3015 23.4289 20.2506 23.6105 20.1974 23.7921C20.1487 23.9737 20.1066 24.1376 20.0712 24.2838C20.0358 24.4255 20.018 24.5318 20.018 24.6027C20.1155 24.5495 20.2063 24.4831 20.2905 24.4034C20.379 24.3192 20.4676 24.2218 20.5562 24.111L20.7157 24.3037C20.6049 24.441 20.492 24.5606 20.3768 24.6625C20.2617 24.7644 20.1509 24.8441 20.0446 24.9017C19.9383 24.9548 19.8409 24.9814 19.7523 24.9814Z" fill="white"/>
<path d="M14.8877 22.7625C14.8567 22.8821 14.8279 22.9972 14.8013 23.108C14.7748 23.2143 14.7415 23.3361 14.7017 23.4734C14.6662 23.6063 14.6197 23.7702 14.5621 23.9651H14.509C14.5931 23.7259 14.6972 23.4911 14.8213 23.2608C14.9453 23.0305 15.0804 22.8223 15.2266 22.6362C15.3772 22.4502 15.5344 22.3018 15.6983 22.1911C15.8622 22.0759 16.0261 22.0183 16.19 22.0183C16.3229 22.0183 16.4247 22.056 16.4956 22.1313C16.5709 22.2021 16.6086 22.304 16.6086 22.4369C16.6086 22.5078 16.5909 22.6163 16.5554 22.7625C16.52 22.9042 16.4757 23.0659 16.4225 23.2475C16.3738 23.4291 16.3229 23.6107 16.2697 23.7923C16.2166 23.974 16.1723 24.1378 16.1368 24.284C16.1014 24.4258 16.0837 24.5321 16.0837 24.6029C16.1811 24.5498 16.2741 24.4833 16.3627 24.4036C16.4513 24.3195 16.5399 24.222 16.6285 24.1113L16.788 24.3039C16.6772 24.4413 16.5643 24.5609 16.4491 24.6627C16.3339 24.7646 16.2232 24.8444 16.1169 24.9019C16.0106 24.9551 15.9131 24.9817 15.8245 24.9817C15.7404 24.9817 15.6739 24.9573 15.6252 24.9086C15.5809 24.8599 15.5588 24.7934 15.5588 24.7092C15.5588 24.6472 15.5765 24.5454 15.6119 24.4036C15.6474 24.2574 15.6917 24.0935 15.7448 23.9119C15.798 23.7303 15.8489 23.5487 15.8976 23.3671C15.9508 23.1855 15.9951 23.0238 16.0305 22.8821C16.066 22.7359 16.0837 22.6318 16.0837 22.5698C16.0837 22.4812 16.0394 22.4369 15.9508 22.4369C15.8578 22.4369 15.7515 22.4878 15.6319 22.5897C15.5123 22.6916 15.3882 22.8311 15.2598 23.0083C15.1358 23.1811 15.0139 23.376 14.8943 23.593C14.7748 23.8101 14.6684 24.0337 14.5754 24.2641C14.4824 24.4944 14.4115 24.7159 14.3628 24.9285H13.8512C13.9531 24.6096 14.0417 24.3062 14.117 24.0182C14.1923 23.7303 14.2565 23.4668 14.3097 23.2276C14.3672 22.9884 14.416 22.7824 14.4558 22.6097L14.8611 20.8556L14.3827 20.7891L14.416 20.6031L15.386 20.3174L15.4923 20.4104C15.4569 20.5389 15.4148 20.6961 15.3661 20.8821C15.3174 21.0682 15.2664 21.2675 15.2133 21.4801C15.1601 21.6927 15.107 21.9054 15.0538 22.118L14.8877 22.7625Z" fill="white"/>
<path d="M12.5213 22.337C12.3839 22.337 12.2488 22.399 12.116 22.523C11.9875 22.6471 11.8812 22.822 11.797 23.0479C11.7173 23.2694 11.6774 23.5307 11.6774 23.832C11.6819 24.0623 11.735 24.2417 11.8369 24.3701C11.9388 24.4942 12.0694 24.5562 12.2289 24.5562C12.3175 24.5562 12.4305 24.5207 12.5678 24.4499C12.7095 24.379 12.849 24.255 12.9864 24.0778L13.1458 24.2971C12.9908 24.5141 12.8114 24.6824 12.6076 24.802C12.4083 24.9216 12.2311 24.9814 12.0761 24.9814C11.8901 24.9814 11.7239 24.9415 11.5778 24.8618C11.4316 24.7777 11.3164 24.6603 11.2323 24.5097C11.1525 24.3546 11.1127 24.173 11.1127 23.9648C11.1127 23.7256 11.1525 23.4909 11.2323 23.2605C11.3164 23.0258 11.4316 22.8154 11.5778 22.6293C11.7239 22.4433 11.8967 22.2949 12.096 22.1842C12.2998 22.0734 12.5213 22.0181 12.7605 22.0181C12.9376 22.0181 13.0794 22.0513 13.1857 22.1177C13.2964 22.1842 13.3518 22.2794 13.3518 22.4034C13.3518 22.461 13.3385 22.5186 13.3119 22.5762C13.2898 22.6293 13.2543 22.6758 13.2056 22.7157C13.0905 22.5961 12.9731 22.5031 12.8535 22.4367C12.7339 22.3702 12.6231 22.337 12.5213 22.337Z" fill="white"/>
<path d="M8.99226 24.9814C8.72649 24.9814 8.5028 24.8906 8.32119 24.709C8.14401 24.5274 8.05542 24.2793 8.05542 23.9648C8.05542 23.7256 8.09529 23.4909 8.17502 23.2605C8.25918 23.0302 8.37435 22.822 8.52052 22.636C8.66669 22.4455 8.83723 22.2949 9.03213 22.1842C9.23146 22.0734 9.44629 22.0181 9.67662 22.0181C9.89367 22.0181 10.0553 22.069 10.1617 22.1709C10.2724 22.2728 10.3278 22.3901 10.3278 22.523C10.3278 22.6426 10.2901 22.76 10.2148 22.8752C10.1439 22.9859 10.0332 23.0989 9.8826 23.214C9.73642 23.3248 9.55038 23.4355 9.32448 23.5463C9.09857 23.6526 8.8328 23.7633 8.52716 23.8785V23.5928C8.80622 23.4865 9.03877 23.3824 9.22481 23.2805C9.41528 23.1742 9.55924 23.0634 9.65669 22.9483C9.75414 22.8331 9.80286 22.7135 9.80286 22.5895C9.80286 22.4965 9.77407 22.4278 9.71649 22.3835C9.65891 22.3348 9.5836 22.3104 9.49058 22.3104C9.33555 22.3104 9.18938 22.3769 9.05206 22.5097C8.91918 22.6382 8.81065 22.8176 8.72649 23.0479C8.64676 23.2738 8.60689 23.5352 8.60689 23.832C8.60689 24.0623 8.66005 24.2417 8.76636 24.3701C8.87267 24.4986 9.0122 24.5628 9.18495 24.5628C9.29126 24.5628 9.4175 24.5274 9.56367 24.4565C9.70984 24.3812 9.84937 24.255 9.98226 24.0778L10.1417 24.2971C9.98669 24.5141 9.80729 24.6824 9.60354 24.802C9.39978 24.9216 9.19602 24.9814 8.99226 24.9814Z" fill="#231916"/>
<path d="M7.87519 21.0015L7.78882 22.0712L7.50311 22.1044L7.38352 21.3536C7.35251 21.3448 7.31486 21.3403 7.27056 21.3403C7.22627 21.3359 7.1864 21.3337 7.15097 21.3337H6.90513C6.86083 21.3337 6.79882 21.3337 6.71909 21.3337C6.64379 21.3337 6.57513 21.3381 6.51312 21.347C6.50426 21.3913 6.48875 21.4577 6.46661 21.5463C6.44889 21.6305 6.42453 21.739 6.39352 21.8719C6.36694 22.0048 6.33151 22.1686 6.28721 22.3635L6.01479 23.626C5.9705 23.8386 5.93728 24.0091 5.91513 24.1376C5.89298 24.2616 5.87748 24.359 5.86862 24.4299C5.85976 24.4964 5.8509 24.5495 5.84204 24.5894L6.38687 24.6691L6.32043 24.9282H4.6195L4.65936 24.6691L5.23077 24.5894C5.24406 24.5451 5.25956 24.4853 5.27728 24.41C5.29943 24.3347 5.32379 24.235 5.35037 24.111C5.38137 23.9825 5.41681 23.8209 5.45668 23.626L5.72245 22.3635C5.78446 22.0623 5.83318 21.832 5.86862 21.6725C5.90406 21.5086 5.92399 21.4001 5.92842 21.347C5.87084 21.3381 5.80439 21.3337 5.72909 21.3337C5.65822 21.3337 5.59842 21.3337 5.5497 21.3337H5.3105C5.27064 21.3337 5.22856 21.3359 5.18426 21.3403C5.14439 21.3403 5.10453 21.3448 5.06466 21.3536L4.62614 22.1177L4.32715 22.0778L4.69923 21.0015C4.7701 21.0059 4.84097 21.0103 4.91184 21.0148C4.98272 21.0192 5.05359 21.0236 5.12446 21.028C5.19533 21.028 5.26399 21.028 5.33043 21.028H7.23734C7.30821 21.028 7.37687 21.028 7.44331 21.028C7.51419 21.0236 7.58506 21.0192 7.65593 21.0148C7.73123 21.0103 7.80432 21.0059 7.87519 21.0015Z" fill="#231916"/>
<circle cx="20" cy="20" r="19.5" stroke="black" stroke-opacity="0.05"/>
</svg>
