<svg width="40" height="40" viewBox="0 0 40 40" fill="none" xmlns="http://www.w3.org/2000/svg">
<circle cx="20" cy="20" r="20" fill="#F6F8FA"/>
<g clip-path="url(#clip0_16523_11318)">
<path d="M12.4275 23.0839C12.4049 23.0839 12.3818 23.0839 12.3593 23.0825C11.7318 23.065 11.1486 22.8167 10.7888 22.3629C10.4166 21.893 10.2254 21.2397 10.359 20.5878C10.6252 19.2873 11.9516 18.2922 13.2525 18.2922C13.2751 18.2922 13.2982 18.2922 13.3212 18.2932C14.0712 18.3143 14.694 18.6806 15.029 19.2979L15.0515 19.3398L14.3891 19.7581C14.3227 19.8001 14.2509 19.8208 14.1748 19.8208C14.0164 19.8208 13.8878 19.7291 13.8367 19.6748C13.652 19.4785 13.4014 19.3702 13.1116 19.3624C13.0982 19.3624 13.0849 19.362 13.0715 19.362C12.3468 19.362 11.706 19.9079 11.548 20.6597C11.4706 21.0292 11.5475 21.3945 11.7595 21.6631C11.9483 21.9031 12.2266 22.0399 12.5422 22.0487C12.5546 22.0491 12.5661 22.0496 12.5776 22.0496C12.9448 22.0496 13.3184 21.8801 13.6294 21.5719C13.7326 21.4691 13.8657 21.4106 13.9943 21.4106C14.0606 21.4106 14.126 21.4263 14.185 21.4562C14.3393 21.535 14.7327 21.746 14.7369 21.7479L14.7876 21.775L14.7549 21.8216C14.2002 22.5997 13.3088 23.0834 12.4288 23.0834L12.4275 23.0839Z" fill="#008CD6"/>
<path d="M22.8116 18.1038C22.5605 18.1038 22.4113 18.2521 22.3647 18.5166L22.3274 18.7027C22.2869 18.9252 22.2003 19.3937 22.1095 19.9079L22.08 20.076L22.1966 19.9512C22.3758 19.7586 22.6559 19.7153 22.7397 19.7153H23.8693C24.3107 19.7153 24.7327 19.3564 24.8105 18.9165C24.8488 18.6981 24.799 18.4931 24.67 18.3392C24.5424 18.1867 24.3526 18.1033 24.1356 18.1033H22.8116V18.1038ZM20.3188 23.024L21.2683 17.726C21.371 17.1414 21.7069 17 22.1542 17H24.4572C24.9718 17 25.4431 17.2096 25.7499 17.5754C26.0516 17.9347 26.17 18.4051 26.0825 18.8994C25.8996 19.9383 24.8386 20.8159 23.7661 20.8159H22.5439C22.2592 20.8159 21.9492 20.85 21.8787 21.2526L21.6359 22.6209C21.5866 22.8977 21.3434 23.024 21.1375 23.024H20.3184H20.3188Z" fill="#004098"/>
<path d="M17.9588 19.3352C17.2572 19.3352 16.5547 19.9585 16.4248 20.697C16.3589 21.0674 16.4501 21.4318 16.6726 21.6976C16.8693 21.9317 17.1494 22.0611 17.4604 22.0611C18.1496 22.0611 18.8682 21.4157 18.9982 20.6791C19.0622 20.316 18.9737 19.9585 18.7563 19.6996C18.5591 19.4647 18.2758 19.3352 17.9588 19.3352ZM17.2895 23.094C16.6422 23.094 16.0751 22.8471 15.6932 22.3988C15.303 21.9409 15.1523 21.33 15.2689 20.6791C15.5057 19.3574 16.7905 18.2821 18.133 18.2821C18.7803 18.2821 19.3474 18.5286 19.7288 18.9773C20.119 19.4352 20.2697 20.0456 20.1536 20.697C19.9172 22.0187 18.6319 23.0945 17.2895 23.0945" fill="#008CD6"/>
<path d="M32.7672 19.3352C32.0656 19.3352 31.3631 19.9585 31.2332 20.697C31.1682 21.0674 31.2585 21.4318 31.4815 21.6976C31.6782 21.9317 31.9578 22.0611 32.2692 22.0611C32.9584 22.0611 33.6766 21.4157 33.807 20.6791C33.8711 20.316 33.7831 19.9585 33.5652 19.6996C33.368 19.4647 33.0851 19.3352 32.7677 19.3352M32.0983 23.094C31.4511 23.094 30.8844 22.8471 30.5025 22.3988C30.1123 21.9409 29.9617 21.33 30.0782 20.6791C30.3145 19.3574 31.5999 18.2821 32.9418 18.2821C33.5896 18.2821 34.1562 18.5286 34.5381 18.9773C34.9283 19.4352 35.079 20.0456 34.9624 20.697C34.7256 22.0187 33.4412 23.0945 32.0983 23.0945M29.1905 18.4655C28.5644 18.4655 28.0434 18.7723 27.8457 19.1077C27.9047 18.7737 27.9802 18.4268 27.9802 18.4268H27.21C26.9225 18.4268 26.7184 18.5802 26.6742 18.8294L25.9302 23.0244H26.6949C26.9409 23.0244 27.192 22.8719 27.2431 22.5789C27.2597 22.4877 27.4633 21.2107 27.5532 20.7399C27.643 20.2691 28.0401 19.5495 28.9177 19.5495H29.7525C30.0635 19.5495 30.2067 19.3873 30.3261 19.1344C30.4302 18.9119 30.5334 18.6889 30.6352 18.4655H29.1909H29.1905Z" fill="#004098"/>
<path d="M5.85446 23.024C5.57436 23.024 5.33527 22.9226 5.1814 22.7383C5.02522 22.5513 4.96718 22.2915 5.01785 22.0072L5.78536 17.7532C5.87796 17.2391 6.28659 17 6.72977 17H10.829C10.829 17 10.6074 17.486 10.5074 17.7072C10.418 17.9048 10.3167 18.1287 9.92971 18.1287H7.32958C7.06607 18.1287 6.94767 18.2374 6.90253 18.4876C6.89377 18.5369 6.80348 19.0118 6.80348 19.0118C6.78781 19.0966 6.68554 19.6748 6.68554 19.6748L6.65836 19.8272L6.77031 19.7199C6.77353 19.7171 7.08496 19.4228 7.52123 19.4228H9.8348C9.8348 19.4228 9.63164 19.883 9.53996 20.0921C9.41834 20.3676 9.27553 20.5068 8.96503 20.5068H7.00342C6.74036 20.5068 6.49896 20.7025 6.45382 20.9527L6.36721 21.4318C6.34555 21.553 6.3732 21.6677 6.44552 21.7543C6.52154 21.8451 6.63717 21.8957 6.77123 21.8957H9.38149C9.83481 21.8957 9.97808 22.1606 9.91727 22.4965L9.82283 23.0235H5.85446V23.024Z" fill="#008CD6"/>
</g>
<circle cx="20" cy="20" r="19.5" stroke="black" stroke-opacity="0.05"/>
<defs>
<clipPath id="clip0_16523_11318">
<rect width="30" height="6.09398" fill="white" transform="translate(5 17)"/>
</clipPath>
</defs>
</svg>
