<svg width="40" height="40" viewBox="0 0 40 40" fill="none" xmlns="http://www.w3.org/2000/svg">
<circle cx="20" cy="20" r="20" fill="#4691CC"/>
<g clip-path="url(#clip0_24513_40152)">
<path d="M20.5322 11.7442C20.2124 11.9418 19.9905 12.2535 19.9086 12.6013C19.8866 12.6963 19.8746 12.8123 19.8766 12.9491C19.8786 13.2209 19.8786 13.4812 19.8766 13.734C19.8766 13.7682 19.8686 13.8005 19.8526 13.8328C19.7826 13.981 19.6587 14.0609 19.4828 14.0723C19.4568 14.0723 19.4129 14.0609 19.3489 14.0342C19.209 13.9772 19.123 13.8556 19.123 13.7093C19.127 13.1144 19.127 12.5234 19.123 11.9342C19.123 11.8411 19.123 11.7556 19.129 11.6796C19.135 11.596 19.147 11.5104 19.165 11.423C19.181 11.3489 19.195 11.2748 19.211 11.1969C19.225 11.1228 19.245 11.0486 19.267 10.9764C19.3329 10.775 19.3989 10.6096 19.4648 10.4804C19.8906 9.6404 20.5602 9.04746 21.4756 8.70157C21.5815 8.66167 21.6955 8.63506 21.8034 8.60085C21.9433 8.55714 22.0912 8.54004 22.2352 8.51723C22.525 8.47162 22.7928 8.46022 23.0407 8.48492C23.2685 8.50773 23.5144 8.54004 23.7362 8.60085C23.9561 8.65976 24.142 8.72438 24.2939 8.7947C25.1814 9.19569 25.809 9.83234 26.1788 10.7047C26.2067 10.7693 26.2307 10.8396 26.2527 10.9156C26.2807 11.0144 26.3187 11.1094 26.3367 11.2102C26.3946 11.5047 26.4206 11.7651 26.4186 11.9894C26.4166 12.1528 26.4006 12.3238 26.3706 12.5025C26.3447 12.6583 26.3127 12.799 26.2727 12.9263C26.0029 13.7796 25.4652 14.4447 24.6597 14.9237C24.4898 15.0244 24.2899 15.1175 24.058 15.203C23.9161 15.2562 23.7702 15.2885 23.6263 15.3285C23.5703 15.3437 23.5144 15.357 23.4564 15.3646C23.2285 15.3969 23.0027 15.4178 22.7808 15.4292C22.7648 15.4292 22.7568 15.4235 22.7568 15.4083C22.7568 14.5246 22.7568 13.6599 22.7568 12.8142C22.7568 12.702 22.7368 12.588 22.6969 12.4759C22.6049 12.2136 22.451 11.9989 22.2352 11.8335C22.0513 11.691 21.8374 11.596 21.5975 11.5504C21.4097 11.5142 21.2258 11.5142 21.0499 11.5485C20.854 11.5865 20.6801 11.653 20.5262 11.748L20.5322 11.7442Z" fill="white"/>
<path d="M13.3486 20.3173C13.1767 20.1082 13.0208 19.8669 12.9069 19.6217C12.8789 19.5628 12.8529 19.5039 12.8269 19.4431C12.7989 19.3803 12.7769 19.3195 12.759 19.2625C12.721 19.1352 12.675 19.0117 12.653 18.8786C12.6031 18.5955 12.5611 18.2952 12.5851 18.0044C12.6071 17.7441 12.641 17.5217 12.689 17.3393C12.759 17.0713 12.8669 16.8014 13.0028 16.5582C13.3886 15.8778 13.9462 15.3704 14.6818 15.0359C14.7557 15.0017 14.8317 14.9713 14.9116 14.9447C15.0156 14.9086 15.1155 14.8687 15.2215 14.844C15.3674 14.8117 15.5073 14.768 15.6572 14.7508C15.8451 14.728 16.035 14.7147 16.2288 14.7109C16.2368 14.7109 16.2428 14.7166 16.2428 14.7242C16.2428 15.5471 16.2428 16.3757 16.2428 17.2081C16.2428 17.4248 16.2648 17.6091 16.3608 17.803C16.5427 18.1717 16.8345 18.4187 17.2382 18.548C17.3602 18.5879 17.4821 18.6088 17.604 18.6145C17.7259 18.6202 17.8359 18.6145 17.9318 18.5974C18.0018 18.586 18.0857 18.5632 18.1877 18.5289C18.7493 18.3389 19.1351 17.8106 19.1331 17.2385C19.1331 16.9744 19.1331 16.6988 19.1311 16.4118C19.1311 16.3624 19.1411 16.3187 19.1611 16.2807C19.241 16.1249 19.4029 16.0432 19.5848 16.0755C19.7367 16.104 19.8826 16.237 19.8826 16.3966C19.8846 17.0561 19.8826 17.7118 19.8826 18.3655C19.8826 18.4339 19.8746 18.5194 19.8586 18.6202C19.8506 18.6791 19.8386 18.7361 19.8247 18.7931C19.7927 18.9261 19.7787 19.0554 19.7287 19.1865C19.6907 19.2853 19.6648 19.3861 19.6228 19.483C19.225 20.3819 18.5514 21.0242 17.602 21.4081C17.554 21.4271 17.4561 21.4594 17.3102 21.5051C17.2122 21.5355 17.1223 21.5564 17.0384 21.5716C16.9084 21.5944 16.7845 21.6248 16.6546 21.6381C16.3887 21.6647 16.1149 21.6647 15.8351 21.6381C15.6832 21.6248 15.5353 21.5868 15.3834 21.5602C15.3234 21.5488 15.2614 21.5355 15.1975 21.5146C14.4499 21.2941 13.8363 20.895 13.3586 20.3173H13.3486Z" fill="white"/>
<path d="M11.4119 26.2484C11.5918 26.2484 11.7477 26.1458 11.8137 25.99C11.8397 25.931 11.8517 25.8512 11.8517 25.7505C11.8497 25.3799 11.8497 25.0492 11.8517 24.7604C11.8517 24.6064 11.8876 24.4582 11.9736 24.3252C12.1235 24.0876 12.3494 23.947 12.6492 23.8995C12.7331 23.8862 12.8151 23.8862 12.895 23.8995C13.2168 23.9527 13.4507 24.1104 13.5966 24.3708C13.6785 24.5152 13.6985 24.6958 13.6985 24.863C13.6985 26.0736 13.6985 27.2937 13.6985 28.5252C13.6985 28.6259 13.6845 28.7285 13.6566 28.8349C13.6066 29.0231 13.4687 29.1903 13.3008 29.3044C13.0949 29.4431 12.8411 29.4849 12.5932 29.4431C12.2894 29.3937 12.0395 29.1865 11.9196 28.9243C11.8756 28.8273 11.8517 28.7019 11.8517 28.5499C11.8517 28.2268 11.8517 27.9075 11.8517 27.5882C11.8517 27.3659 11.7357 27.1777 11.4999 27.1264C11.4759 27.1207 11.3919 27.1188 11.25 27.1188C10.9242 27.1188 10.6024 27.1188 10.2846 27.1207C10.0108 27.1207 9.84488 27.3317 9.84488 27.5825C9.84688 27.9531 9.84488 28.2933 9.84488 28.6031C9.84488 28.7456 9.8089 28.8882 9.73095 29.0174C9.60502 29.2245 9.38316 29.3899 9.13531 29.4374C8.88146 29.4849 8.62162 29.4507 8.40775 29.3063C8.13592 29.12 8 28.8691 8 28.548C8 27.3412 8 26.0907 8 24.7965C8 24.386 8.24985 24.0477 8.66559 23.9261C8.79951 23.8862 8.92744 23.8767 9.04736 23.8957C9.37916 23.9489 9.61901 24.1161 9.76293 24.3936C9.81689 24.4981 9.84488 24.6349 9.84488 24.8022C9.84488 25.1291 9.84488 25.4597 9.84488 25.7942C9.84488 26.066 10.0328 26.2484 10.3226 26.2465C10.6864 26.2427 11.0481 26.2427 11.4099 26.2465L11.4119 26.2484Z" fill="white"/>
<path d="M17.0481 26.0223C17.0481 26.0223 17.0341 26.0166 17.0302 26.0223C17.0302 26.0223 17.0302 26.0223 17.0282 26.0261C16.3626 27.117 15.705 28.1964 15.0574 29.2683C14.9914 29.3766 14.8975 29.4374 14.7755 29.4507C14.5856 29.4716 14.4517 29.4013 14.3738 29.2436C14.3238 29.141 14.3278 29.0364 14.3838 28.93C14.4197 28.8635 14.4597 28.7913 14.5077 28.7134C15.3452 27.3393 16.2546 25.838 17.236 24.2112C17.316 24.0801 17.3739 23.9812 17.5259 23.9185C17.7337 23.8349 17.9616 23.9261 18.0695 24.1048C18.6991 25.1424 19.3248 26.1763 19.9504 27.2044C20.0083 27.2975 20.0703 27.4058 20.1023 27.5123C20.1423 27.6491 20.1662 27.7422 20.1702 27.7859C20.1782 27.8791 20.1822 27.9798 20.1782 28.0881C20.1782 28.1622 20.1662 28.2287 20.1503 28.2858C20.1223 28.377 20.1063 28.4739 20.0643 28.5594C19.8604 28.9794 19.5366 29.2569 19.0909 29.3937C18.955 29.4355 18.7911 29.4564 18.5972 29.4564C17.9156 29.4564 17.224 29.4564 16.5205 29.4564C16.3546 29.4564 16.2306 29.3956 16.1467 29.2721C16.0607 29.1467 16.0448 29.006 16.1147 28.8749C16.1947 28.7248 16.3226 28.6411 16.5025 28.6411C17.0701 28.6411 17.5119 28.6411 17.8317 28.6411C18.0255 28.6411 18.1994 28.586 18.2934 28.4131C18.3573 28.2934 18.3653 28.185 18.3154 28.0862C18.2914 28.0368 18.2614 27.9855 18.2294 27.9304C17.9076 27.3963 17.5318 26.7844 17.1061 26.0907C17.0901 26.066 17.0721 26.0413 17.0521 26.0204L17.0481 26.0223Z" fill="white"/>
<path d="M23.057 28.4493C23.2129 28.2744 23.2029 28.0103 23.019 27.8582C22.5353 27.4534 22.0316 27.0334 21.5039 26.5963C21.352 26.4709 21.2461 26.3683 21.1821 26.2885C20.9543 26.0034 20.8463 25.6822 20.8583 25.323C20.8703 24.9733 21.0242 24.6218 21.2641 24.3728C21.5299 24.0991 21.8637 23.9414 22.2655 23.8977C22.3234 23.892 22.4753 23.8882 22.7272 23.8882C23.4627 23.8882 24.1963 23.8882 24.9298 23.8901C25.0798 23.8901 25.2037 23.9433 25.2976 24.0516C25.3896 24.1561 25.3996 24.2911 25.3816 24.4203C25.3616 24.5723 25.2197 24.7016 25.0718 24.7415C25.0118 24.7567 24.9398 24.7643 24.8539 24.7643C24.4162 24.7605 24.0024 24.7605 23.6126 24.7643C23.2669 24.7681 23.053 25.1406 23.2469 25.4237C23.2689 25.4561 23.3128 25.4979 23.3788 25.5549C23.9045 25.9939 24.4281 26.431 24.9478 26.8662C25.7074 27.5028 25.6494 28.6203 24.8359 29.1923C24.5681 29.3805 24.2443 29.4736 23.8645 29.4755C23.077 29.4755 22.2815 29.4755 21.4779 29.4755C21.322 29.4755 21.2041 29.4584 21.0922 29.3596C21.0102 29.2874 20.9643 29.2037 20.9583 29.1049C20.9483 28.9795 20.9583 28.8674 21.0462 28.7666C21.1421 28.6564 21.2741 28.6013 21.438 28.6013C21.8577 28.6032 22.2795 28.6032 22.7052 28.6013C22.8551 28.6013 22.973 28.55 23.063 28.4512L23.057 28.4493Z" fill="white"/>
<path d="M26.5204 24.7547C26.7483 24.3043 27.158 24.0022 27.6737 23.9128C27.7817 23.8938 27.9056 23.8862 28.0475 23.8862C28.813 23.89 29.5806 23.89 30.3481 23.8862C30.468 23.8862 30.558 23.8957 30.6199 23.9185C30.7479 23.966 30.8358 24.0535 30.8858 24.1789C30.9717 24.3975 30.8498 24.6445 30.6319 24.7243C30.564 24.749 30.464 24.7604 30.3301 24.7604C29.9224 24.7566 29.5326 24.7547 29.1608 24.7604C28.811 24.7642 28.5832 25.0892 28.7511 25.3933C28.7791 25.4427 28.829 25.4978 28.901 25.5586C29.4367 26.0014 29.9623 26.4385 30.476 26.8718C30.7259 27.0828 30.9098 27.3774 30.9717 27.6928C31.1176 28.4435 30.6959 29.1372 29.9423 29.3956C29.7385 29.466 29.4946 29.4755 29.2708 29.4755C28.4952 29.4755 27.7237 29.4755 26.9602 29.4755C26.7643 29.4755 26.6224 29.4108 26.5344 29.2816C26.4904 29.2151 26.4645 29.1505 26.4605 29.0878C26.4525 28.9832 26.4705 28.8977 26.5104 28.8312C26.6044 28.6792 26.7623 28.5975 26.9502 28.5994C27.3999 28.6013 27.8336 28.6013 28.2514 28.5994C28.4912 28.5994 28.6771 28.4131 28.6811 28.1908C28.6831 28.0596 28.6411 27.9494 28.5432 27.8658C27.9735 27.3869 27.4399 26.9422 26.9442 26.5298C26.6723 26.3036 26.4964 26.0432 26.4125 25.7031C26.3625 25.4997 26.3585 25.2983 26.4025 25.1044C26.4305 24.9847 26.4645 24.865 26.5184 24.7547H26.5204Z" fill="white"/>
</g>
<circle cx="20" cy="20" r="19.5" stroke="black" stroke-opacity="0.05"/>
<defs>
<clipPath id="clip0_24513_40152">
<rect width="23" height="21" fill="white" transform="translate(8 8.47363)"/>
</clipPath>
</defs>
</svg>
