<svg width="40" height="41" viewBox="0 0 40 41" fill="none" xmlns="http://www.w3.org/2000/svg">
<circle cx="20" cy="20.1895" r="20" fill="#283B8B"/>
<path d="M8.20481 15.9025C8.25363 15.4966 8.50228 15.1901 8.94168 15.1929C9.5951 15.1969 10.2269 15.1958 10.8378 15.1895C11.2267 15.1855 11.5082 15.3837 11.4503 15.8128C11.3737 16.3822 11.2891 16.9948 11.1971 17.6516C11.1954 17.6635 11.1852 17.6726 11.1727 17.6726C10.3655 17.6709 9.50484 17.6698 8.59141 17.6681C8.20595 17.6681 7.98965 17.4427 8.04869 17.0544C8.10717 16.6661 8.15939 16.2823 8.20481 15.9025Z" fill="#0980B8"/>
<path d="M16.6577 15.4645C16.9586 16.1906 17.2384 16.9178 17.528 17.6405C17.5325 17.6518 17.5268 17.6654 17.5155 17.67C17.5126 17.6711 17.5098 17.6717 17.507 17.6717H13.071C13.0585 17.6722 13.0488 17.6626 13.0488 17.6495C13.0488 17.6484 13.0488 17.6473 13.0488 17.6467C13.1277 17.096 13.2106 16.4914 13.298 15.8329C13.3452 15.4775 13.5592 15.1903 13.9407 15.1914C14.7338 15.1942 15.5138 15.1954 16.2807 15.196C16.4579 15.196 16.5833 15.2856 16.6577 15.4645Z" fill="#0980B8"/>
<path d="M21.456 21.0487C21.4242 21.018 21.3947 21.0237 21.368 21.0651C20.492 22.418 19.641 23.7288 18.8156 24.9976C18.7458 25.1043 18.6618 25.1855 18.5636 25.2417C18.5409 25.2548 18.5153 25.2616 18.4892 25.2616L17.0149 25.2576C16.9303 25.2576 16.8542 25.2048 16.8253 25.1247C16.3478 23.8207 15.8562 22.4787 15.351 21.0981C15.3402 21.0691 15.3197 21.0509 15.2896 21.0441C15.2476 21.0345 15.2056 21.0606 15.1954 21.1032C15.1954 21.1054 15.1943 21.1077 15.1943 21.11C15.0274 22.3169 14.861 23.5238 14.6947 24.7302C14.6691 24.9147 14.5897 25.0697 14.4563 25.1963C14.3796 25.2689 14.3166 25.261 14.2178 25.2604C13.5831 25.2593 12.9485 25.2587 12.3143 25.2593C12.1037 25.2599 12.0532 24.8772 12.0742 24.7228C12.3456 22.7626 12.6345 20.6655 12.9405 18.4316C12.9428 18.4151 12.9564 18.4032 12.9729 18.4032C14.8088 18.4026 16.6198 18.4026 18.4063 18.4032C18.7503 18.4032 19.0421 18.2936 19.2823 18.0728C19.5502 17.827 19.7972 17.5034 20.0095 17.1997C20.3995 16.6422 20.7895 16.0847 21.1795 15.5267C21.3697 15.2548 21.5372 15.1929 21.8846 15.1929C22.7378 15.1929 23.5843 15.194 24.4228 15.1957C24.7225 15.1957 24.8605 15.5096 24.8258 15.7617C24.4074 18.8074 23.9959 21.8009 23.59 24.7421C23.5627 24.9385 23.4094 25.2633 23.1767 25.2621C22.4841 25.2593 21.8187 25.2582 21.1801 25.2587C21.1579 25.2587 21.1398 25.2508 21.1244 25.2354C20.9939 25.1026 20.9416 24.9391 20.9683 24.7444C21.1347 23.5335 21.3016 22.3158 21.4702 21.0913C21.4724 21.0754 21.4673 21.0595 21.456 21.0481V21.0487Z" fill="white"/>
<path d="M25.8282 15.5402C25.9621 15.3313 26.183 15.1968 26.4333 15.1968C29.0294 15.1968 31.7197 15.1968 34.5054 15.1968C34.7405 15.1968 35.009 15.3523 34.9999 15.6163C34.9931 15.8156 35.0061 16.0131 34.9744 16.2073C34.9363 16.4372 34.904 16.6739 34.8778 16.9186C34.8574 17.1076 34.8126 17.253 34.7433 17.3552C34.5963 17.572 34.372 17.6765 34.1194 17.6765C31.5807 17.6736 28.9369 17.6748 26.1881 17.6788C26.0286 17.6788 25.9082 17.6583 25.827 17.6157C25.5148 17.4528 25.5386 17.1678 25.5863 16.8505C25.6323 16.5434 25.6732 16.2482 25.709 15.9649C25.7345 15.7667 25.7742 15.6254 25.8282 15.5408V15.5402Z" fill="white"/>
<path d="M7.76011 19.1383C7.81291 18.7534 7.98492 18.4378 8.41921 18.4395C9.25032 18.4423 10.1297 18.4429 11.0579 18.4395C11.0743 18.4395 11.0874 18.4531 11.0868 18.4695C11.0868 18.4707 11.0868 18.4718 11.0868 18.473C10.7979 20.574 10.5117 22.6558 10.2279 24.7176C10.1961 24.9458 10.0076 25.2581 9.75273 25.2581C8.95568 25.2581 8.1399 25.2581 7.30482 25.2575C7.25599 25.2575 7.21512 25.245 7.18163 25.2195C6.95284 25.0475 6.99202 24.7562 7.02608 24.5099C7.27189 22.7085 7.51657 20.9175 7.76011 19.1377V19.1383Z" fill="white"/>
<path d="M28.2309 18.8997C28.2752 18.5778 28.6039 18.4529 28.8894 18.4535C29.5201 18.4546 30.1639 18.4535 30.8196 18.4512C31.0501 18.45 31.4588 18.538 31.4157 18.8537C31.1505 20.7816 30.8775 22.7759 30.5965 24.8366C30.5766 24.9825 30.5113 25.1001 30.4006 25.1892C30.3069 25.2647 30.228 25.2619 30.1122 25.2619C29.3447 25.2602 28.5618 25.2596 27.7637 25.2602C27.67 25.2602 27.5968 25.2374 27.5445 25.1926C27.4384 25.1012 27.3964 24.9735 27.4191 24.8083C27.6853 22.8662 27.9561 20.8963 28.2309 18.8997Z" fill="white"/>
<circle cx="20" cy="20.1895" r="19.5" stroke="black" stroke-opacity="0.05"/>
</svg>
