<svg width="40" height="40" viewBox="0 0 40 40" fill="none" xmlns="http://www.w3.org/2000/svg">
<circle cx="20" cy="20" r="20" fill="#0F67AB"/>
<g clip-path="url(#clip0_20329_63493)">
<path d="M7.03516 28V26.9714C7.03516 26.8498 7.04445 26.6721 7.04445 26.457C7.04445 22.0245 7.04445 17.5921 7.04445 13.1596C7.04445 12.8136 7.04445 12.4676 7.04445 12.1309V12H18.79C18.79 12 18.8086 12 18.8086 12.0187V23.9696C18.8086 23.9696 18.8086 24.0164 18.79 23.9696C18.2603 22.595 17.7307 21.211 17.1917 19.8177C17.1638 19.7335 17.1081 19.6867 17.043 19.6774C17.0058 19.6774 16.9594 19.6774 16.9222 19.6867C16.5226 19.8457 16.1324 20.0047 15.7421 20.1543C15.6678 20.1823 15.6213 20.2572 15.6306 20.332C15.6306 20.36 15.6399 20.3974 15.6585 20.4442C16.2718 22.0526 16.8943 23.6704 17.5169 25.2788C17.5169 25.2788 17.5169 25.2788 17.5169 25.2881C17.5169 25.2975 17.5169 25.2975 17.5169 25.2881C15.4447 23.2028 13.3725 21.1175 11.3003 19.0228C11.2446 18.9667 11.1981 18.9386 11.161 18.9199C11.0959 18.9012 11.0402 18.9199 10.9751 18.976C10.6778 19.2753 10.3804 19.5745 10.083 19.8738C10.018 19.9392 9.99942 20.014 10.0273 20.0795C10.0459 20.1075 10.083 20.1636 10.1388 20.2198C12.2389 22.3331 14.3111 24.4091 16.3554 26.4664C14.7292 25.8305 13.1031 25.204 11.4769 24.5681C11.3747 24.5307 11.2725 24.5868 11.226 24.6897C11.068 25.1105 10.9101 25.5032 10.7614 25.8866C10.7242 25.9801 10.7614 26.083 10.8636 26.1204C12.4526 26.7376 14.0137 27.3454 15.5655 27.9532C15.6027 27.9719 15.6027 27.9719 15.5655 27.9719H7.03516V28Z" fill="white"/>
<path d="M21.2715 24.0351C21.2715 24.0351 21.2715 24.0257 21.2715 24.0164V12H33.017C33.017 12 33.0263 12 33.0263 12.0094V27.9906H24.496C24.496 27.9906 24.4588 27.9906 24.496 27.9719C26.0292 27.3735 27.581 26.775 29.1328 26.1672C29.2072 26.1391 29.2629 26.111 29.2815 26.083C29.328 26.0269 29.328 25.9614 29.3001 25.8866C29.1514 25.5126 29.012 25.1385 28.8634 24.7645C28.8355 24.6897 28.8076 24.6429 28.7797 24.6148C28.7054 24.5494 28.6311 24.5681 28.5381 24.6055C26.9306 25.232 25.323 25.8586 23.7154 26.4757C25.769 24.4185 27.8412 22.3238 29.9506 20.2011C29.997 20.1543 30.0249 20.1075 30.0342 20.0701C30.0528 20.0047 30.0249 19.9299 29.9784 19.8831C29.6811 19.5839 29.3744 19.2846 29.0771 18.976C29.0492 18.948 29.0213 18.9293 28.9842 18.9293C28.9284 18.9199 28.8727 18.9386 28.8169 18.9947C26.7261 21.0988 24.6353 23.2028 22.5446 25.3068C23.1579 23.7078 23.7804 22.0807 24.4216 20.4161C24.4681 20.3039 24.4402 20.2011 24.338 20.1636C23.9384 20.0047 23.5388 19.8457 23.1393 19.6867C23.0185 19.64 22.9163 19.6961 22.8698 19.8176C22.3401 21.1923 21.8012 22.595 21.2529 24.0257L21.2715 24.0351Z" fill="white"/>
</g>
<circle cx="20" cy="20" r="19.5" stroke="black" stroke-opacity="0.05"/>
<defs>
<clipPath id="clip0_20329_63493">
<rect width="26" height="16" fill="white" transform="translate(7.03516 12)"/>
</clipPath>
</defs>
</svg>
