<svg width="40" height="40" viewBox="0 0 40 40" fill="none" xmlns="http://www.w3.org/2000/svg">
<circle cx="20" cy="20" r="20" fill="#E87127"/>
<g clip-path="url(#clip0_16523_11304)">
<path d="M16.7139 20.7127C16.4281 18.1126 19.1548 16.0278 22.8043 16.0559C26.4539 16.084 29.6397 18.2156 29.9255 20.8111C30.2112 23.4065 27.4893 25.496 23.835 25.4679C20.1808 25.4398 16.9997 23.3128 16.7092 20.7127M30.6001 21.5185C30.2721 18.2953 26.5992 15.653 22.4015 15.6202C18.2037 15.5874 15.0648 18.1735 15.374 21.3967C15.6832 24.6199 19.3703 27.2622 23.5727 27.295C27.7751 27.3278 30.9093 24.7464 30.6001 21.5185Z" fill="white"/>
<path d="M24.2658 27.3747C22.1998 29.5391 18.8782 29.7171 16.8496 27.7776C14.821 25.838 14.8585 22.5117 16.9292 20.3519C19 18.1922 22.3169 18.0095 24.3455 19.9537C26.3741 21.898 26.3366 25.2149 24.2658 27.3747ZM16.6294 20.2817C14.2213 22.7928 14.1839 26.6579 16.5404 28.9113C18.8969 31.1648 22.7526 30.9586 25.156 28.4428C27.5594 25.927 27.6015 22.0666 25.245 19.8132C22.8885 17.5597 19.0328 17.7659 16.6294 20.2817Z" fill="white"/>
<path d="M16.8215 12.1955C21.127 10.5839 25.3762 12.1955 26.3226 15.8357C27.2689 19.4759 24.547 23.7064 20.2322 25.318C15.9173 26.9296 11.6775 25.318 10.7311 21.6731C9.78476 18.0282 12.5067 13.8071 16.8215 12.1955ZM12.83 13.601C8.36522 17.1334 7.20804 22.254 10.2907 25.0322C13.3734 27.8104 19.4498 27.206 23.9145 23.6736C28.3793 20.1411 29.513 15.0205 26.4538 12.2376C23.3945 9.45479 17.29 10.0638 12.83 13.601Z" fill="white"/>
</g>
<circle cx="20" cy="20" r="19.5" stroke="black" stroke-opacity="0.05"/>
<defs>
<clipPath id="clip0_16523_11304">
<rect width="22.0567" height="20" fill="white" transform="translate(8.57129 10.4761)"/>
</clipPath>
</defs>
</svg>
