<svg width="40" height="40" viewBox="0 0 40 40" fill="none" xmlns="http://www.w3.org/2000/svg">
<circle cx="20" cy="20" r="20" fill="#F6F8FA"/>
<g clip-path="url(#clip0_18553_55604)">
<path d="M8.23596 26.7277H8.01965C7.98572 26.715 7.96875 26.7023 7.96875 26.6896C7.96875 22.0536 7.96875 17.4092 7.96875 12.7605C7.96875 12.7139 7.9942 12.6884 8.04086 12.6884H8.22748C8.27838 12.6842 8.30383 12.7097 8.30383 12.7605C8.31655 16.9469 8.31655 21.4386 8.30807 26.2315C8.30807 26.3757 8.31231 26.5242 8.32079 26.6684C8.32079 26.6896 8.31231 26.7023 8.29534 26.7065L8.23172 26.7277H8.23596Z" fill="#E5883D"/>
<path d="M24.1288 15.9287C25.0576 16.2553 25.0873 17.4005 25.0958 18.2063C25.0958 18.2276 25.0789 18.2445 25.0576 18.2488H23.4841C23.4841 18.2488 23.4671 18.2403 23.4671 18.2318C23.4671 17.9519 23.4628 17.6889 23.4544 17.4471C23.4416 17.1417 23.2932 16.9975 23.0133 17.0187C22.5212 17.0527 22.5764 17.7864 22.6824 18.1088C22.7206 18.236 22.8139 18.3506 22.9496 18.4566C23.4374 18.8298 23.9167 19.1819 24.3748 19.5848C24.8625 20.0175 25.1382 20.5095 25.2061 21.0609C25.3503 22.2739 25.2061 23.6439 23.7301 23.856C22.9411 23.9705 21.8893 23.8984 21.41 23.1392C21.2615 22.9017 21.1555 22.609 21.1046 22.3418C21.024 21.8964 20.9985 21.4426 21.0325 20.9845C21.0325 20.976 21.041 20.9718 21.0494 20.9718H22.6103C22.6315 20.9718 22.6442 20.9845 22.6442 21.0057C22.6442 21.3832 22.6442 21.7565 22.6527 22.1255C22.6527 22.3757 22.7757 22.5963 23.0472 22.6217C23.5901 22.6684 23.6452 22.0788 23.6155 21.6801C23.5943 21.3875 23.5095 21.1499 23.3568 20.9675C23.2084 20.7852 22.992 20.5858 22.7079 20.3695C22.2498 20.0217 21.8511 19.6993 21.5033 19.4067C20.9858 18.9656 20.9307 18.2148 20.9858 17.5574C21.0579 16.7261 21.3421 16.0474 22.2371 15.8396C22.8945 15.6869 23.5265 15.7208 24.1415 15.9372L24.1288 15.9287Z" fill="#818284"/>
<path d="M10.6669 16.4677C10.6288 16.5822 10.6076 16.6967 10.6076 16.8112C10.6076 18.7454 10.6076 20.7388 10.6076 22.7832C10.6076 23.1523 10.7772 23.4831 11.1971 23.4958C11.2735 23.4958 11.3117 23.5382 11.3074 23.6146V23.6485C11.3032 23.7121 11.2692 23.7461 11.2014 23.7461H8.71587C8.71587 23.7461 8.68618 23.7333 8.68194 23.7206C8.67345 23.6655 8.66497 23.6103 8.66497 23.5552C8.66073 21.0273 8.66497 18.4824 8.66497 15.912C8.66497 15.8908 8.68194 15.8696 8.70739 15.8696C9.53447 15.8824 10.3234 15.8866 11.0784 15.8739C11.142 15.8739 11.2014 15.8824 11.265 15.8993C11.282 15.9036 11.2904 15.912 11.2989 15.929C11.3244 15.9969 11.2947 16.0775 11.2141 16.0944C10.9596 16.1411 10.7603 16.2047 10.6669 16.4762V16.4677Z" fill="#E5883D"/>
<path d="M5.61944 23.1904C5.69579 23.0123 5.71275 22.8087 5.71275 22.6178C5.71275 20.7728 5.71275 18.9235 5.71275 17.0785C5.71275 16.8876 5.69579 16.7052 5.66185 16.5313C5.59823 16.209 5.33526 16.1029 5.04684 16.0732C5.02987 16.0732 5.01715 16.0605 5.01291 16.0435C4.95777 15.8654 5.16984 15.8696 5.27164 15.8696C6.04359 15.8696 6.81978 15.8696 7.60021 15.8696C7.62142 15.8696 7.63838 15.8866 7.63838 15.9078C7.63838 18.4654 7.63838 21.0018 7.63838 23.517C7.63838 23.5849 7.63838 23.6528 7.6299 23.7249C7.6299 23.7376 7.61718 23.7461 7.60869 23.7461L5.0935 23.7333C5.05532 23.7333 5.02563 23.7037 5.02563 23.6655H5.01715V23.5849C5.01715 23.5425 5.03836 23.517 5.08077 23.5128C5.30981 23.4873 5.51764 23.411 5.6152 23.1904H5.61944Z" fill="#E5883D"/>
<path d="M17.903 17.9011C17.9836 17.7951 18.0684 17.6975 18.1575 17.6C18.5095 17.2225 19.1585 17.1249 19.6463 17.2267C19.7862 17.2564 19.905 17.3073 19.9983 17.3752C20.2273 17.5448 20.3673 17.9053 20.4055 18.181C20.4479 18.4949 20.4691 18.8385 20.4691 19.2117C20.4691 20.7344 20.4691 22.2232 20.4691 23.6695C20.4691 23.7119 20.4352 23.7416 20.397 23.7416H18.8361C18.8361 23.7416 18.8107 23.7289 18.8107 23.7119C18.8064 23.5253 18.8022 23.3556 18.8022 23.1987C18.8022 21.8711 18.798 20.4884 18.8022 19.0505C18.8022 18.7324 18.8022 18.2786 18.3441 18.2956C17.9921 18.3083 17.886 18.6434 17.8818 18.9318C17.8691 20.4672 17.8648 22.0408 17.8776 23.661C17.8776 23.6992 17.8479 23.7331 17.8055 23.7331H16.2361C16.2064 23.7331 16.1895 23.7162 16.1895 23.6865V17.3709C16.1895 17.337 16.2149 17.3073 16.2488 17.3073H17.8394C17.8733 17.3073 17.903 17.337 17.903 17.3752C17.903 17.3752 17.903 17.3752 17.903 17.3794L17.8648 17.8799C17.8648 17.9223 17.8733 17.9265 17.8988 17.8926L17.903 17.9011Z" fill="#E5883D"/>
<path d="M32.417 17.9351C32.7606 17.3498 33.3501 17.1504 33.9991 17.2056C34.4275 17.2395 34.7074 17.4558 34.8431 17.8588C34.9831 18.2744 35.0001 18.7664 35.0001 19.2033C35.0001 20.094 35.0001 21.587 35.0001 23.6781C35.0001 23.7078 34.9746 23.7332 34.9449 23.7332H33.3713C33.3374 23.7332 33.3204 23.7163 33.3204 23.6823C33.3204 22.0493 33.3204 20.4715 33.3204 18.9573C33.3204 18.8428 33.3119 18.7283 33.2907 18.6137C33.2526 18.3762 33.0362 18.2787 32.8199 18.3041C32.3534 18.3635 32.3831 18.9361 32.3831 19.2966C32.3788 20.7133 32.3788 22.1808 32.3831 23.6908C32.3831 23.7163 32.3619 23.7332 32.3406 23.7332H30.7416C30.7416 23.7332 30.7119 23.7205 30.7119 23.7035C30.7162 21.727 30.7162 19.7462 30.7119 17.7527C30.7119 17.6255 30.7119 17.4982 30.7246 17.3625C30.7246 17.3455 30.7374 17.3371 30.7543 17.3371L32.3703 17.3286C32.3958 17.3286 32.417 17.3498 32.417 17.3752L32.3831 17.9266C32.3831 17.9818 32.3915 17.986 32.4212 17.9394L32.417 17.9351Z" fill="#818284"/>
<path d="M13.8858 23.1816C13.8858 23.1816 13.873 23.1604 13.8645 23.1604C13.8561 23.1604 13.8518 23.1604 13.8476 23.1689C13.521 23.6524 13.0841 23.8772 12.537 23.8517C12.0577 23.8263 11.7014 23.6142 11.5699 23.1222C11.4384 22.6302 11.4639 22.1085 11.4724 21.6207C11.4766 21.2475 11.5487 20.8276 11.9007 20.6197C12.4224 20.3143 13.029 20.1447 13.5549 19.886C13.7288 19.8011 13.8221 19.6527 13.8306 19.4448C13.8391 19.2328 13.89 18.4735 13.6482 18.359C13.4998 18.2912 13.3471 18.2954 13.1817 18.376C13.1223 18.4057 13.0884 18.4481 13.0756 18.516C12.9908 18.9062 13.0375 19.3515 13.0332 19.763C13.0332 19.7842 13.0205 19.7969 12.9993 19.7969C12.6515 19.7969 12.3122 19.7969 11.9856 19.7969C11.8202 19.7969 11.659 19.8223 11.4893 19.7969C11.4766 19.7969 11.4639 19.7842 11.4639 19.7672C11.4639 19.5551 11.4639 19.3473 11.4766 19.1479C11.4893 18.7874 11.5699 18.4396 11.7184 18.1045C11.9347 17.6083 12.4903 17.3071 13.0035 17.2478C13.4701 17.1926 13.8942 17.2053 14.2802 17.2817C15.014 17.4344 15.3533 17.9137 15.4551 18.639C15.4975 18.9401 15.5187 19.2285 15.5187 19.5127C15.5187 20.9039 15.5187 22.2951 15.5187 23.6821C15.5187 23.7245 15.4975 23.7457 15.4551 23.7457H13.9918C13.9409 23.7457 13.9154 23.7203 13.9154 23.6694L13.8942 23.1858L13.8858 23.1816ZM13.3683 20.9675C13.2156 21.0778 13.0968 21.2348 13.0629 21.4171C13.0162 21.6589 13.0035 21.9261 13.0247 22.2188C13.0502 22.5666 13.1774 22.7999 13.5888 22.7617C13.767 22.7447 13.8349 22.5072 13.8349 22.3587C13.8391 21.854 13.8391 21.3026 13.8349 20.7088C13.8349 20.7003 13.8349 20.6918 13.8264 20.6834C13.8136 20.6706 13.7967 20.6664 13.784 20.6791C13.6355 20.7767 13.4955 20.8742 13.3683 20.9718V20.9675Z" fill="#E5883D"/>
<path d="M28.3533 23.1519C28.3576 23.0925 28.3448 23.0883 28.3109 23.1392C27.997 23.6312 27.505 23.8475 26.9409 23.8645C26.2835 23.8814 25.889 23.4446 25.7957 22.8295C25.7575 22.5793 25.7363 22.3418 25.7363 22.1085C25.7363 20.484 25.7363 18.8934 25.7363 17.3411C25.7363 17.3199 25.7533 17.3071 25.7703 17.3071C26.3047 17.3199 26.8391 17.3199 27.3693 17.3071C27.3863 17.3071 27.399 17.3156 27.399 17.3326C27.4075 17.5277 27.4117 17.7398 27.4117 17.973C27.4032 19.9835 27.4032 21.4341 27.416 22.329C27.4202 22.6684 27.7171 22.8423 28.0225 22.7193C28.3745 22.5793 28.3321 22.1212 28.3364 21.7989C28.3406 20.3228 28.3448 18.8425 28.3448 17.3623C28.3448 17.3326 28.366 17.3114 28.3957 17.3114H29.999C29.999 17.3114 30.0202 17.3241 30.0202 17.3368V23.6863C30.0202 23.7118 29.999 23.7287 29.9736 23.7287H28.3533C28.3236 23.7287 28.3067 23.716 28.3109 23.6821L28.3491 23.1476L28.3533 23.1519Z" fill="#818284"/>
</g>
<circle cx="20" cy="20" r="19.5" stroke="black" stroke-opacity="0.05"/>
<defs>
<clipPath id="clip0_18553_55604">
<rect width="30" height="14.0435" fill="white" transform="translate(5 12.6841)"/>
</clipPath>
</defs>
</svg>
