<svg width="40" height="40" viewBox="0 0 40 40" fill="none" xmlns="http://www.w3.org/2000/svg">
<circle cx="20" cy="20" r="20" fill="#F6F8FA"/>
<g clip-path="url(#clip0_20940_31888)">
<path d="M22.0702 15.1014C20.1148 14.3148 17.9367 14.6962 16.4025 16.1344C13.676 18.6851 14.3914 23.1666 17.7459 24.7796C20.8699 26.2814 24.5504 24.4141 25.234 21.045C25.4407 20.02 25.3453 19.0029 24.9478 17.9938C24.9478 17.9779 24.9478 17.962 24.9637 17.954L29.2562 16.1821C29.2562 16.1821 29.2801 16.1821 29.288 16.198C29.924 17.7474 30.1545 19.3605 29.9796 21.0371C29.4947 25.8126 25.6632 29.5313 20.9097 29.9604C19.614 30.0796 18.1752 29.9366 16.9113 29.4995C14.6537 28.7288 12.889 27.3541 11.6092 25.3835C9.75704 22.515 9.53447 18.8519 10.9733 15.7689C12.4597 12.5985 15.4804 10.4371 18.9701 10.0557C20.6473 9.87299 22.269 10.1034 23.8508 10.747C23.8747 10.755 23.8826 10.7788 23.8747 10.8027L22.0861 15.0855C22.0861 15.0855 22.0782 15.0935 22.0702 15.0855V15.1014Z" fill="#FF6405"/>
<path d="M26.8397 14.6881C27.9021 14.6881 28.7634 13.8272 28.7634 12.7652C28.7634 11.7032 27.9021 10.8423 26.8397 10.8423C25.7773 10.8423 24.916 11.7032 24.916 12.7652C24.916 13.8272 25.7773 14.6881 26.8397 14.6881Z" fill="#3857AF"/>
</g>
<circle cx="20" cy="20" r="19.5" stroke="black" stroke-opacity="0.05"/>
<defs>
<clipPath id="clip0_20940_31888">
<rect width="20" height="20" fill="white" transform="translate(10.0352 10)"/>
</clipPath>
</defs>
</svg>
