<svg width="40" height="40" viewBox="0 0 40 40" fill="none" xmlns="http://www.w3.org/2000/svg">
<circle cx="20" cy="20" r="20" fill="#E20013"/>
<g clip-path="url(#clip0_20329_63500)">
<path d="M25.2998 17.5994C24.5628 17.6388 24.319 18.3247 24.3079 18.977C24.2968 19.5167 24.2968 20.034 24.3079 20.5175C24.3245 21.2147 24.6459 21.8557 25.4328 21.8444C25.8373 21.8388 26.2529 21.8163 26.6851 21.7826C26.8735 21.7657 27.0342 21.9119 27.0509 22.1031C27.0509 22.1087 27.0509 22.1199 27.0509 22.1256C27.0509 22.446 27.1728 22.9914 26.7405 23.0814C24.8343 23.4693 22.8893 23.0589 22.6954 20.7087C22.6732 20.4388 22.6621 20.0115 22.6621 19.438C22.6621 18.9207 22.7009 18.4934 22.784 18.1505C23.255 16.2107 25.128 16.0139 26.7627 16.3456C26.9733 16.3906 27.0675 16.5705 27.0619 16.7786C27.0564 17.099 27.1617 17.7007 26.6297 17.6444C26.131 17.5882 25.6877 17.577 25.2998 17.5994Z" fill="white"/>
<path d="M31.2561 21.5405C31.511 20.967 31.0732 20.7477 30.5911 20.4609C30.2919 20.281 29.976 20.0955 29.6435 19.8987C29.1947 19.6344 28.8955 19.4152 28.7514 19.2577C28.3524 18.8023 28.2139 18.2401 28.3469 17.5541C28.6794 15.8393 31.317 16.1654 32.525 16.3903C32.7135 16.424 32.8132 16.5364 32.8243 16.722C32.8354 16.9244 32.8354 17.1324 32.8243 17.3348C32.8132 17.526 32.6525 17.6722 32.4696 17.6609C32.4696 17.6609 32.4696 17.6609 32.4641 17.6609C31.9044 17.6216 31.3281 17.5935 30.7296 17.571C30.4581 17.5597 30.0204 17.5935 29.9539 17.9252C29.904 18.1838 29.9982 18.375 30.2476 18.5156C30.7795 18.8079 31.3115 19.0947 31.849 19.3758C32.6137 19.775 33.0903 20.4103 33.0293 21.2987C32.8852 23.4634 30.2753 23.3734 28.7791 23.0304C28.4078 22.9461 28.5131 22.3838 28.5131 22.114C28.5131 21.9228 28.6627 21.7654 28.8511 21.7654C28.8622 21.7654 28.8678 21.7654 28.8788 21.7654C29.3388 21.7991 29.8153 21.8272 30.303 21.8553C30.6077 21.8722 31.112 21.8778 31.2616 21.5461L31.2561 21.5405Z" fill="white"/>
<path d="M8.2875 16.3003H7.38426C7.19146 16.3003 7.03516 16.4589 7.03516 16.6545V22.7774C7.03516 22.973 7.19146 23.1316 7.38426 23.1316H8.2875C8.48031 23.1316 8.63661 22.973 8.63661 22.7774V16.6545C8.63661 16.4589 8.48031 16.3003 8.2875 16.3003Z" fill="white"/>
<path d="M15.0483 20.4162C15.0483 20.4162 15.0982 20.4218 15.1093 20.405C15.1148 20.3937 15.1204 20.3825 15.1204 20.3656C15.1204 19.0949 15.1204 17.8524 15.1204 16.6435C15.1204 16.4524 15.2755 16.2949 15.4639 16.2949H16.2508C16.4447 16.2949 16.6054 16.458 16.6054 16.6548V22.7552C16.6054 22.9576 16.4447 23.1206 16.2453 23.1206C15.9571 23.1206 15.6579 23.1206 15.342 23.1206C15.1259 23.1206 14.9541 23.0475 14.8433 22.8564C14.1007 21.5969 13.3915 20.3993 12.721 19.2636C12.6988 19.2242 12.6655 19.1849 12.6268 19.1568C12.6101 19.1455 12.588 19.1455 12.5769 19.1568C12.5769 19.1624 12.5713 19.1736 12.5713 19.1793V22.7664C12.5713 22.9576 12.4217 23.115 12.2333 23.115H11.5074C11.2303 23.115 11.0918 22.9744 11.0918 22.6933V16.6491C11.0918 16.458 11.2414 16.3062 11.4298 16.3062H12.4051C12.5436 16.3062 12.6711 16.3793 12.7431 16.503L15.0317 20.3993C15.0317 20.3993 15.0483 20.4218 15.0594 20.4218L15.0483 20.4162Z" fill="white"/>
<path d="M20.3731 16.3003H19.4643C19.2715 16.3003 19.1152 16.4589 19.1152 16.6545V22.7774C19.1152 22.973 19.2715 23.1316 19.4643 23.1316H20.3731C20.5659 23.1316 20.7222 22.973 20.7222 22.7774V16.6545C20.7222 16.4589 20.5659 16.3003 20.3731 16.3003Z" fill="white"/>
</g>
<circle cx="20" cy="20" r="19.5" stroke="black" stroke-opacity="0.05"/>
<defs>
<clipPath id="clip0_20329_63500">
<rect width="26" height="7" fill="white" transform="translate(7.03516 16.2104)"/>
</clipPath>
</defs>
</svg>
