<svg width="40" height="40" viewBox="0 0 40 40" fill="none" xmlns="http://www.w3.org/2000/svg">
<circle cx="20" cy="20" r="20" fill="#F6F8FA"/>
<g clip-path="url(#clip0_31499_48475)">
<path d="M10.61 15V17.61L8.3 18.9C8.28 18.91 8.27 18.93 8.27 18.95V21.49C8.27 21.49 8.27 21.53 8.3 21.54L10.59 22.82C10.59 22.82 10.62 22.82 10.63 22.82L12.8 21.53L15.06 20.23V22.81C15.06 22.81 15.06 22.84 15.04 22.85L10.62 25.44C10.62 25.44 10.59 25.44 10.57 25.44L8.27 24.16C8.27 24.16 8.27 24.16 8.26 24.15V24.14V21.61C8.26 21.61 8.24 21.53 8.2 21.5L6 20.22V17.64C6 17.64 6 17.61 6.02 17.6L10.61 15Z" fill="#254291"/>
<path d="M15.0704 20.22L12.8104 21.52L10.6404 20.24C10.6404 20.24 10.6204 20.21 10.6404 20.2L12.7804 18.95C12.7804 18.95 12.7904 18.93 12.7804 18.92L10.6104 17.63V15L15.0204 17.58C15.0504 17.6 15.0704 17.64 15.0704 17.67V20.22Z" fill="#29B2C2"/>
<path d="M19.0296 21.07C19.0296 21.07 19.0096 21.07 19.0096 21.09V24.19C19.0096 24.19 19.0096 24.2 18.9996 24.2L17.3996 23.28C17.3996 23.28 17.3496 23.23 17.3496 23.19V16.26C17.3496 16.26 17.3596 16.23 17.3796 16.23C18.8596 16.23 19.9196 16.23 20.5696 16.23C20.6896 16.23 20.8396 16.26 21.0296 16.31C21.9896 16.58 22.7096 17.54 22.7596 18.53C22.8196 19.63 22.1196 20.74 21.0196 21.02C20.8296 21.07 20.4996 21.09 20.0196 21.09C19.5396 21.09 19.2096 21.09 19.0196 21.09L19.0296 21.07ZM19.0096 17.7V19.61C19.0096 19.61 19.0096 19.64 19.0296 19.64H20.2696C20.7096 19.64 21.0696 19.28 21.0696 18.82V18.52C21.0696 18.06 20.7196 17.69 20.2796 17.69H19.0396C19.0396 17.69 19.0096 17.69 19.0096 17.71V17.7Z" fill="#103979"/>
<path d="M25.0195 16.23H26.6495C26.6495 16.23 26.6695 16.23 26.6695 16.25V24.18C26.6695 24.18 26.6695 24.2 26.6495 24.2L25.0195 23.26C25.0195 23.26 25.0195 23.26 25.0195 23.24V16.25C25.0195 16.25 25.0195 16.23 25.0395 16.23H25.0195Z" fill="#103979"/>
<path d="M33.3401 19.63V20.93C33.3401 20.93 33.3401 20.95 33.3201 20.95H30.5301C30.5301 20.95 30.5101 20.95 30.5101 20.97V22.79C30.5101 22.79 30.5101 22.81 30.5301 22.81H33.8101C33.8101 22.81 33.8301 22.81 33.8301 22.83V24.2C33.8301 24.2 33.8301 24.22 33.8101 24.22H30.5101L28.8701 23.27C28.8701 23.27 28.8701 23.26 28.8701 23.25V16.25C28.8701 16.25 28.8701 16.23 28.8901 16.23H33.8301C33.8301 16.23 33.8501 16.23 33.8501 16.25V17.66C33.8501 17.66 33.8501 17.68 33.8301 17.68H30.5501C30.5501 17.68 30.5301 17.68 30.5301 17.7V19.59C30.5301 19.59 30.5301 19.61 30.5501 19.61H33.3401C33.3401 19.61 33.3601 19.61 33.3601 19.63H33.3401Z" fill="#103979"/>
<path d="M8.26 24.12L6.05 22.86C6.05 22.86 6 22.81 6 22.77V20.21L8.2 21.48C8.24 21.5 8.26 21.54 8.26 21.59V24.12Z" fill="#29B2C2"/>
</g>
<circle cx="20" cy="20" r="19.5" stroke="black" stroke-opacity="0.05"/>
<defs>
<clipPath id="clip0_31499_48475">
<rect width="28" height="11" fill="white" transform="translate(6 15)"/>
</clipPath>
</defs>
</svg>
