<svg width="40" height="40" viewBox="0 0 40 40" fill="none" xmlns="http://www.w3.org/2000/svg">
<circle cx="20" cy="20" r="20" fill="#F6F8FA"/>
<g clip-path="url(#clip0_46289_83203)">
<path d="M10.1902 19.8221C10.1901 19.8273 10.1915 19.8323 10.1942 19.8367C10.197 19.8411 10.201 19.8445 10.2057 19.8466C10.2104 19.8488 10.2156 19.8494 10.2207 19.8486C10.2258 19.8478 10.2306 19.8455 10.2344 19.842L13.2218 17.1517C13.2839 17.0959 13.3648 17.065 13.4487 17.065H16.2911C16.2989 17.0648 16.3064 17.0671 16.3127 17.0716C16.319 17.076 16.3237 17.0824 16.3261 17.0898C16.3286 17.0972 16.3286 17.1052 16.3263 17.1128C16.324 17.1203 16.3194 17.127 16.3131 17.1318L12.1304 20.2108C12.1217 20.2171 12.1147 20.2253 12.1098 20.2347C12.1049 20.2442 12.1023 20.2548 12.1022 20.2655C12.1021 20.2762 12.1045 20.2869 12.1092 20.2966C12.1139 20.3063 12.1208 20.3148 12.1293 20.3215C13.0082 21.0111 13.6906 21.5484 14.1766 21.9336C14.2942 22.027 14.4077 22.0966 14.5169 22.1426C14.5467 22.1557 14.5789 22.1624 14.6115 22.1624C18.2827 22.1572 20.3342 22.1332 21.3583 22.1791C22.1482 22.2147 23.0716 22.0015 23.7144 21.5011C23.8825 21.3701 24.1073 21.094 24.3888 20.6726C24.5624 20.4128 25.2214 19.4363 26.3657 17.743C26.8604 17.0106 27.8426 16.8184 28.5285 17.4254C28.7575 17.6281 28.976 17.8872 29.1839 18.2027C31.3345 21.4722 32.4889 23.2323 32.6472 23.483C32.7473 23.6404 32.8405 23.762 32.9266 23.8477C32.934 23.8549 32.9391 23.8641 32.9411 23.8743C32.9432 23.8844 32.9421 23.8949 32.9381 23.9045C32.934 23.9141 32.9272 23.9224 32.9184 23.9283C32.9096 23.9341 32.8993 23.9373 32.8888 23.9375H24.0915C24.0804 23.9377 24.0696 23.934 24.0609 23.9271C24.0523 23.9201 24.0463 23.9104 24.0442 23.8995C24.0421 23.8887 24.0439 23.8774 24.0492 23.8677C24.0546 23.8581 24.0633 23.8506 24.0737 23.8466C24.8552 23.5241 25.4816 23.0157 25.9529 22.3212C25.9745 22.2894 26.0038 22.2633 26.038 22.2452C26.0723 22.2272 26.1105 22.2178 26.1493 22.2178H29.3373C29.3429 22.2177 29.3484 22.2162 29.3532 22.2133C29.358 22.2104 29.3619 22.2063 29.3646 22.2014C29.3673 22.1965 29.3686 22.191 29.3684 22.1854C29.3682 22.1799 29.3666 22.1745 29.3636 22.1697L27.623 19.4878C27.6199 19.483 27.6157 19.479 27.6107 19.4763C27.6057 19.4735 27.6001 19.472 27.5944 19.4719C27.5887 19.4718 27.583 19.4731 27.5779 19.4757C27.5729 19.4783 27.5685 19.4821 27.5652 19.4868C27.3096 19.8455 26.8471 20.5277 26.1776 21.5335C25.7512 22.1729 25.3622 22.6378 25.0106 22.9282C24.4259 23.4095 23.7634 23.7411 23.0232 23.9229C22.9744 23.9347 22.9243 23.9406 22.8741 23.9406H13.6167C13.5538 23.9406 13.4929 23.9176 13.4455 23.8759L10.2291 21.0288C10.2258 21.0257 10.2216 21.0237 10.217 21.023C10.2125 21.0222 10.2079 21.0229 10.2037 21.0248C10.1995 21.0267 10.196 21.0298 10.1936 21.0336C10.1912 21.0375 10.1901 21.042 10.1902 21.0466V23.8017C10.1902 23.8166 10.1843 23.831 10.1736 23.8416C10.163 23.8522 10.1486 23.8581 10.1335 23.8581H8.12932C8.10564 23.8581 8.08293 23.8489 8.06619 23.8324C8.04945 23.8159 8.04004 23.7936 8.04004 23.7703V17.1412C8.04004 17.121 8.04812 17.1016 8.0625 17.0873C8.07688 17.073 8.09638 17.065 8.11672 17.065H10.1314C10.1392 17.065 10.1468 17.0665 10.1539 17.0695C10.1611 17.0725 10.1676 17.0769 10.173 17.0824C10.1785 17.0879 10.1828 17.0945 10.1858 17.1017C10.1887 17.109 10.1902 17.1167 10.1902 17.1245V19.8221Z" fill="#2D3889"/>
<path d="M23.9474 17.064C23.9538 17.064 23.9601 17.0658 23.9656 17.0693C23.971 17.0727 23.9754 17.0775 23.9783 17.0833C23.9811 17.089 23.9823 17.0954 23.9816 17.1018C23.981 17.1082 23.9786 17.1142 23.9747 17.1193L22.6197 18.8098C22.6029 18.8307 22.5817 18.8475 22.5575 18.8591C22.5333 18.8707 22.5068 18.8767 22.48 18.8767C20.3728 18.8746 19.1704 18.876 18.8728 18.8808C17.9253 18.8975 17.0346 19.4199 17.0104 20.448C16.9947 21.0675 17.2867 21.4134 17.6964 21.8292C17.7023 21.8354 17.7063 21.8432 17.7078 21.8516C17.7094 21.86 17.7084 21.8687 17.7051 21.8766C17.7017 21.8845 17.6961 21.8912 17.689 21.896C17.6818 21.9007 17.6734 21.9033 17.6648 21.9034H15.3718C15.3378 21.9033 15.3047 21.8938 15.276 21.8759C15.2474 21.8579 15.2245 21.8323 15.21 21.802C15.0209 21.4106 14.9299 21.0383 14.9369 20.6852C14.9789 18.5047 16.4905 17.0661 18.6606 17.0671C20.1284 17.0678 21.8907 17.0668 23.9474 17.064Z" fill="#2D3889"/>
<path d="M18.1451 21.2063C18.122 21.184 18.121 21.1617 18.142 21.1394C18.4613 20.7905 18.8696 20.3224 19.3667 19.7353C19.3944 19.7028 19.4289 19.6768 19.4679 19.6589C19.5069 19.6411 19.5495 19.6318 19.5926 19.6318H23.7365C23.7529 19.6318 23.7687 19.6383 23.7803 19.6499C23.7919 19.6615 23.7985 19.6771 23.7985 19.6935V20.9942C23.7985 21.0243 23.7918 21.0539 23.7789 21.081C23.766 21.1081 23.7472 21.132 23.7239 21.1509C23.1181 21.6469 22.4354 21.9014 21.6756 21.9147C21.664 21.9148 21.6526 21.9127 21.6419 21.9084C21.6312 21.9041 21.6214 21.8977 21.6132 21.8896C21.605 21.8816 21.5985 21.872 21.5941 21.8614C21.5896 21.8508 21.5873 21.8394 21.5873 21.828V21.2742C21.5873 21.2612 21.582 21.2487 21.5726 21.2395C21.5631 21.2303 21.5503 21.2251 21.5369 21.2251C20.6048 21.2286 19.4907 21.2279 18.1945 21.223C18.1735 21.223 18.157 21.2175 18.1451 21.2063Z" fill="#2D3889"/>
<path d="M26.6099 21.6742L27.5048 20.3588C27.5116 20.3489 27.5206 20.3408 27.5313 20.3352C27.5419 20.3296 27.5537 20.3267 27.5658 20.3267C27.5778 20.3267 27.5896 20.3296 27.6002 20.3352C27.6109 20.3408 27.6199 20.3489 27.6267 20.3588L28.5216 21.6742C28.5293 21.6852 28.5339 21.6981 28.5347 21.7115C28.5355 21.7249 28.5326 21.7383 28.5263 21.7501C28.52 21.762 28.5106 21.7719 28.499 21.7788C28.4874 21.7857 28.4742 21.7893 28.4607 21.7891H26.6708C26.6573 21.7893 26.6441 21.7857 26.6325 21.7788C26.6209 21.7719 26.6115 21.762 26.6052 21.7501C26.5989 21.7383 26.596 21.7249 26.5968 21.7115C26.5976 21.6981 26.6022 21.6852 26.6099 21.6742Z" fill="#F4CB48"/>
</g>
<circle cx="20" cy="20" r="19.5" stroke="black" stroke-opacity="0.05"/>
<defs>
<clipPath id="clip0_46289_83203">
<rect width="25" height="7" fill="white" transform="translate(8 17)"/>
</clipPath>
</defs>
</svg>
