<svg width="40" height="40" viewBox="0 0 40 40" fill="none" xmlns="http://www.w3.org/2000/svg">
<circle cx="20" cy="20" r="20" fill="#3A72FF"/>
<g clip-path="url(#clip0_20940_31886)">
<path d="M11.4948 17.9192C11.6566 17.4739 11.8422 17.0518 12.0611 16.6482C12.3561 16.1054 12.6796 15.6322 13.0317 15.2333C13.1745 15.0709 13.322 14.9039 13.479 14.7369C13.6883 14.5096 13.9072 14.3333 14.1308 14.1292C14.2213 14.0503 14.3117 13.9714 14.4068 13.9019C14.7113 13.6745 14.9159 13.5307 15.0159 13.4704C15.6059 13.0947 16.1388 12.821 16.6051 12.6447C17.4473 12.3246 18.2942 12.1251 19.1412 12.037C19.6455 11.9859 20.1927 11.9813 20.7827 12.0277C21.3584 12.0741 21.9675 12.1901 22.6193 12.3756C23.7661 12.705 24.8033 13.2477 25.7359 13.9993C26.383 14.5188 26.973 15.1544 27.4964 15.8966C27.6582 16.1239 27.8057 16.3605 27.9389 16.6064C28.5147 17.6502 28.8573 18.7357 28.9715 19.8676C29 20.1321 29.0048 20.429 28.9952 20.7537C28.9952 20.7676 28.9857 20.7769 28.9715 20.7769H25.8168C25.8168 20.7769 25.7835 20.7676 25.7835 20.7444C25.7835 19.8491 25.5694 18.9677 25.1459 18.1883C24.889 17.7198 24.5654 17.2512 24.18 16.8755C23.1998 15.9059 22.0151 15.3399 20.6209 15.1776C19.2649 15.0199 17.8422 15.4049 16.7288 16.1425C16.4528 16.3234 16.1911 16.5368 15.9437 16.7827C14.9635 17.7383 14.3973 18.9074 14.2546 20.2852C14.2165 20.6656 14.2308 21.0784 14.3021 21.5145C14.4259 22.2567 14.816 22.9526 15.3299 23.5232C15.977 24.2422 16.9762 24.7015 17.9183 24.8036C18.8795 24.9103 19.7835 24.6876 20.6114 24.2005C20.8826 24.0381 21.1396 23.8386 21.3822 23.5928C22.1007 22.8644 22.567 21.816 22.5432 20.8001C22.5432 20.7815 22.5527 20.7722 22.5718 20.7722H25.7502C25.7502 20.7722 25.7835 20.7862 25.7835 20.8047C25.774 21.0831 25.774 21.366 25.7312 21.6444C25.6217 22.3727 25.4552 22.9943 25.2268 23.5186C24.927 24.2098 24.5559 24.8175 24.1134 25.3463C23.9421 25.5504 23.7232 25.7778 23.452 26.0329C23.2189 26.2509 22.9715 26.4504 22.7002 26.6313C21.3822 27.522 19.9548 27.9767 18.4036 27.9859C17.4615 27.9906 16.5337 27.8143 15.6201 27.4571C14.4449 26.9978 13.46 26.2927 12.6653 25.3417C12.3275 24.9335 12.023 24.4788 11.7565 23.9732C11.2617 23.0361 11 21.9134 11 20.8697C11 19.979 11.1237 19.1022 11.3854 18.244C11.414 18.1466 11.452 18.0399 11.4948 17.9192Z" fill="white"/>
<path d="M28.9857 24.4092H25.8072C25.7994 24.4092 25.793 24.4154 25.793 24.4231V27.5498C25.793 27.5575 25.7994 27.5637 25.8072 27.5637H28.9857C28.9936 27.5637 28.9999 27.5575 28.9999 27.5498V24.4231C28.9999 24.4154 28.9936 24.4092 28.9857 24.4092Z" fill="white"/>
</g>
<circle cx="20" cy="20" r="19.5" stroke="black" stroke-opacity="0.05"/>
<defs>
<clipPath id="clip0_20940_31886">
<rect width="18" height="16" fill="white" transform="translate(11 12)"/>
</clipPath>
</defs>
</svg>
