<svg width="40" height="40" viewBox="0 0 40 40" fill="none" xmlns="http://www.w3.org/2000/svg">
<circle cx="20" cy="20" r="20" fill="#F6F8FA"/>
<g clip-path="url(#clip0_25273_47359)">
<path d="M31.6013 17.5181C32.2673 17.5181 32.8071 17.0015 32.8071 16.3643C32.8071 15.727 32.2673 15.2104 31.6013 15.2104C30.9354 15.2104 30.3955 15.727 30.3955 16.3643C30.3955 17.0015 30.9354 17.5181 31.6013 17.5181Z" fill="#0E4295"/>
<path d="M28.7399 17.4163C29.347 17.4163 29.8392 16.9453 29.8392 16.3644C29.8392 15.7835 29.347 15.3125 28.7399 15.3125C28.1328 15.3125 27.6406 15.7835 27.6406 16.3644C27.6406 16.9453 28.1328 17.4163 28.7399 17.4163Z" fill="#0A51A1"/>
<path d="M26.2212 17.2029C26.7053 17.2029 27.0978 16.8274 27.0978 16.3641C27.0978 15.9009 26.7053 15.5254 26.2212 15.5254C25.7372 15.5254 25.3447 15.9009 25.3447 16.3641C25.3447 16.8274 25.7372 17.2029 26.2212 17.2029Z" fill="#3D67AF"/>
<path d="M24.1245 17.101C24.5497 17.101 24.8944 16.7712 24.8944 16.3642C24.8944 15.9573 24.5497 15.6274 24.1245 15.6274C23.6992 15.6274 23.3545 15.9573 23.3545 16.3642C23.3545 16.7712 23.6992 17.101 24.1245 17.101Z" fill="#567AB8"/>
<path d="M22.222 16.9943C22.5884 16.9943 22.8855 16.7101 22.8855 16.3595C22.8855 16.0088 22.5884 15.7246 22.222 15.7246C21.8556 15.7246 21.5586 16.0088 21.5586 16.3595C21.5586 16.7101 21.8556 16.9943 22.222 16.9943Z" fill="#86A0CD"/>
<path d="M20.5169 16.8925C20.8218 16.8925 21.069 16.656 21.069 16.3642C21.069 16.0725 20.8218 15.8359 20.5169 15.8359C20.212 15.8359 19.9648 16.0725 19.9648 16.3642C19.9648 16.656 20.212 16.8925 20.5169 16.8925Z" fill="#86A0CD"/>
<path d="M19.0208 16.7858C19.2641 16.7858 19.4614 16.597 19.4614 16.3641C19.4614 16.1312 19.2641 15.9424 19.0208 15.9424C18.7774 15.9424 18.5801 16.1312 18.5801 16.3641C18.5801 16.597 18.7774 16.7858 19.0208 16.7858Z" fill="#86A0CD"/>
<path d="M17.5295 16.6746C17.7114 16.6746 17.8588 16.5336 17.8588 16.3595C17.8588 16.1855 17.7114 16.0444 17.5295 16.0444C17.3476 16.0444 17.2002 16.1855 17.2002 16.3595C17.2002 16.5336 17.3476 16.6746 17.5295 16.6746Z" fill="#86A0CD"/>
<path d="M23.5 20.8964C23.471 20.8176 23.4322 20.7296 23.3935 20.6415C23.0981 19.9835 22.5703 19.673 21.8051 19.7055C21.5436 19.7194 21.3257 19.7518 21.1368 19.8121C20.8172 19.914 20.5121 20.1364 20.3378 20.4145C20.2603 20.5349 20.1828 20.6601 20.1344 20.7944C19.931 21.3459 19.8923 21.9298 19.9552 22.5275C19.9843 22.7963 20.0424 23.0465 20.1344 23.2782C20.1635 23.3477 20.1974 23.4172 20.241 23.4821C20.2942 23.5609 20.3378 23.6628 20.4008 23.7277C20.5315 23.8714 20.6477 23.9733 20.7494 24.0428C20.9383 24.1633 21.1465 24.2513 21.3644 24.3116C21.5339 24.3579 21.7422 24.3718 21.9988 24.3626C22.3475 24.3487 22.6623 24.2421 22.9383 24.0428C22.9867 24.0104 23.0545 23.9409 23.1465 23.8389C23.2192 23.7602 23.2724 23.6814 23.3112 23.6072C23.4371 23.3755 23.5533 23.1114 23.5872 22.8519C23.5872 22.8334 23.6017 22.8241 23.6211 22.8287C23.9552 22.9029 24.2797 22.9817 24.5896 23.0743C24.5945 23.0743 24.5993 23.079 24.5945 23.0882C24.5267 23.3802 24.4056 23.6628 24.27 23.9177C24.1102 24.2143 23.8874 24.4738 23.6017 24.6962C23.5436 24.7379 23.4855 24.7796 23.4274 24.8121C23.3451 24.8584 23.2724 24.9094 23.1853 24.9511C22.6477 25.2059 22.0085 25.2523 21.408 25.1828C21.0545 25.1411 20.6623 25.0576 20.3572 24.8816C20.2603 24.826 20.1732 24.7703 20.0957 24.7194C19.8681 24.5711 19.6695 24.3672 19.4952 24.117C19.287 23.8204 19.1368 23.4821 19.0351 23.1021C18.8366 22.3561 18.8318 21.6146 19.0303 20.8779C19.0787 20.7018 19.1272 20.5581 19.1853 20.4469C19.224 20.3728 19.2627 20.2986 19.3063 20.2291C19.4952 19.8908 19.7906 19.5896 20.1102 19.3857C20.2506 19.2931 20.4056 19.205 20.5654 19.1355C21.2046 18.8667 21.8487 18.7926 22.5073 18.9038C22.638 18.927 22.793 18.9687 22.9673 19.0243C23.1223 19.0753 23.2676 19.1448 23.3983 19.2235C23.8632 19.5016 24.1925 19.8908 24.3814 20.3913C24.4201 20.4932 24.4637 20.5998 24.5025 20.711C24.5073 20.7249 24.5025 20.7342 24.4879 20.7388C24.2071 20.8176 23.931 20.8825 23.6647 20.9335C23.6163 20.9427 23.5727 20.952 23.5291 20.9566C23.5194 20.9566 23.5097 20.952 23.5049 20.9427C23.5049 20.9288 23.5 20.9149 23.4952 20.8964H23.5Z" fill="#0A51A1"/>
<path d="M8.03758 24.1958C8.03758 24.1958 8.05211 24.2282 8.07148 24.2282H11.8584C11.8584 24.2282 11.8681 24.2329 11.8681 24.2375V25.0855C11.8681 25.0855 11.8584 25.0994 11.8536 25.0994H7.05937C7.05937 25.0994 7.03516 25.0901 7.03516 25.0762V18.9826C7.03516 18.9826 7.04484 18.9595 7.05937 18.9595H11.718C11.718 18.9595 11.7325 18.9641 11.7325 18.9734V19.8121C11.7325 19.8121 11.7277 19.826 11.7228 19.826H8.05211C8.05211 19.826 8.03758 19.8306 8.03758 19.8399V21.4664C8.03758 21.4664 8.04726 21.4896 8.06179 21.4896C8.086 21.4896 8.11506 21.4942 8.14412 21.4942C9.25792 21.4942 10.3717 21.4942 11.4807 21.4942C11.4904 21.4942 11.4952 21.4989 11.4952 21.5081V22.3422C11.4952 22.3422 11.4904 22.3608 11.4758 22.3608H8.05211C8.05211 22.3608 8.04242 22.3654 8.04242 22.37V24.1912L8.03758 24.1958Z" fill="#0A51A1"/>
<path d="M13.8246 20.646C13.8053 20.6182 13.7956 20.6228 13.7956 20.6552V25.0899C13.7956 25.0899 13.7907 25.0992 13.7811 25.0992H12.8416C12.8416 25.0992 12.8174 25.0899 12.8174 25.076V18.9731C12.8174 18.9639 12.8222 18.9592 12.8319 18.9592H13.7665C13.7907 18.9592 13.815 18.9685 13.8295 18.9917C13.936 19.1446 14.0426 19.3021 14.1588 19.4643C15.0595 20.7479 15.936 22.0083 16.7932 23.241C16.8319 23.2966 16.8707 23.3568 16.9142 23.4217C16.9142 23.4217 16.9239 23.4217 16.9288 23.4217C16.9384 23.4217 16.9433 23.4171 16.9433 23.4078V18.9639C16.9433 18.9639 16.9481 18.9546 16.953 18.9546H17.8924C17.8924 18.9546 17.9118 18.9639 17.9118 18.9731V25.0806C17.9118 25.0806 17.9118 25.0899 17.9021 25.0899H16.9675C16.9384 25.0899 16.9142 25.076 16.8997 25.0575L13.815 20.6367L13.8246 20.646Z" fill="#0A51A1"/>
<path d="M31.0783 18.9639H30.1727C30.162 18.9639 30.1533 18.9722 30.1533 18.9824V25.0853C30.1533 25.0955 30.162 25.1038 30.1727 25.1038H31.0783C31.089 25.1038 31.0976 25.0955 31.0976 25.0853V18.9824C31.0976 18.9722 31.089 18.9639 31.0783 18.9639Z" fill="#0A51A1"/>
<path d="M33.0158 18.9639H32.1102C32.0995 18.9639 32.0908 18.9722 32.0908 18.9824V25.0853C32.0908 25.0955 32.0995 25.1038 32.1102 25.1038H33.0158C33.0265 25.1038 33.0351 25.0955 33.0351 25.0853V18.9824C33.0351 18.9722 33.0265 18.9639 33.0158 18.9639Z" fill="#0A51A1"/>
<path d="M26.0371 23.1391C26.0613 23.3291 26.1146 23.5145 26.1872 23.6952C26.2889 23.9454 26.4584 24.1401 26.6957 24.2791C26.9475 24.4274 27.3252 24.4552 27.6206 24.3903C27.7901 24.3532 27.9499 24.2606 28.1001 24.1215C28.255 23.9733 28.3664 23.7323 28.4439 23.5516C28.4487 23.5377 28.4633 23.5284 28.4778 23.533L29.3834 23.6442C29.3834 23.6442 29.4076 23.6581 29.4076 23.672C29.3688 23.7972 29.3252 23.9223 29.272 24.052C29.18 24.2791 29.0444 24.483 28.8604 24.6683C28.7732 24.7564 28.6715 24.8166 28.5698 24.8908C28.3664 25.0437 28.0323 25.1317 27.7853 25.1642C27.2381 25.2383 26.5698 25.2012 26.0952 24.9186C26.0081 24.8676 25.916 24.8074 25.8192 24.7332C25.7369 24.6683 25.6642 24.5988 25.6013 24.5201C25.393 24.2606 25.272 24.052 25.18 23.7369C25.0008 23.1206 25.0153 22.495 25.2236 21.8648C25.3107 21.6053 25.456 21.3597 25.6691 21.1234C25.7756 21.0075 25.916 20.8917 26.0952 20.7805C26.5698 20.4885 27.2478 20.4468 27.7805 20.5488C28.0274 20.5951 28.2308 20.6693 28.3955 20.7758C28.5553 20.8778 28.7199 21.0029 28.841 21.1466C29.0153 21.3551 29.1509 21.559 29.2381 21.8138C29.3107 22.0316 29.3591 22.2216 29.3834 22.3792C29.4124 22.5877 29.4221 22.8333 29.4076 23.1113C29.4076 23.116 29.4076 23.1206 29.3979 23.1206H26.042C26.042 23.1206 26.0323 23.1206 26.0323 23.1299L26.0371 23.1391ZM26.6279 21.4478C26.4294 21.5868 26.2986 21.7351 26.2211 21.8973C26.163 22.0316 26.1243 22.166 26.0855 22.305C26.0807 22.3282 26.0855 22.3421 26.1146 22.3421H28.4003C28.4003 22.3421 28.4197 22.3328 28.4197 22.3236C28.3713 22.0641 28.2792 21.749 28.0759 21.5821C28.0323 21.5451 27.9887 21.5126 27.9403 21.4756C27.6061 21.2161 26.9766 21.2068 26.6279 21.4524V21.4478Z" fill="#0A51A1"/>
</g>
<circle cx="20" cy="20" r="19.5" stroke="black" stroke-opacity="0.05"/>
<defs>
<clipPath id="clip0_25273_47359">
<rect width="26" height="10" fill="white" transform="translate(7.03516 15.2104)"/>
</clipPath>
</defs>
</svg>
