<svg width="40" height="40" viewBox="0 0 40 40" fill="none" xmlns="http://www.w3.org/2000/svg">
<circle cx="20" cy="20" r="20" fill="#F6F8FA"/>
<g clip-path="url(#clip0_36410_74137)">
<path d="M17.2952 11C18.8981 11.3206 19.9847 12.3603 20.5594 14.1237C20.6537 14.4168 20.4965 14.7328 20.2092 14.829C20.1822 14.8382 20.1508 14.8473 20.1194 14.8519L20.0565 14.8611C19.6973 14.916 19.3561 14.6962 19.2528 14.3435C18.75 12.626 16.7699 11.5954 15.2119 12.6901C13.3441 14.0046 13.6 16.8809 15.7956 17.5359C17.3087 17.9939 18.8353 17.2519 19.2663 15.571C19.3741 15.1542 19.7512 15.026 20.4022 15.1908C20.5369 15.2275 20.6357 15.3511 20.6357 15.4931V19.1114C20.6357 19.2534 20.7435 19.3679 20.8827 19.3725C21.9737 19.4183 23.397 19.4092 25.1481 19.345C26.2167 19.3038 26.9844 18.7771 27.4514 17.7603C29.2069 13.9588 22.4631 11.9802 22.3104 16.9221C22.297 17.458 22.6427 18.0901 23.3521 18.8229C23.406 18.8733 23.406 18.9603 23.3521 19.0153C23.3297 19.0382 23.3027 19.0519 23.2713 19.0565C22.7729 19.1252 22.3419 19.116 21.9737 19.029C21.8255 18.9924 21.7043 18.8962 21.628 18.7634C19.0283 14.1008 25.3995 10.2809 28.3045 14.4534C29.6918 16.4412 28.9061 19.0107 26.8363 20.2061C25.4803 20.9893 22.0006 20.5817 20.8557 20.6321C20.721 20.6412 20.6178 20.7511 20.6178 20.884V21.7679C20.6178 21.8595 20.6896 21.9374 20.7794 21.9374C20.8153 21.9374 20.8512 21.9282 20.8827 21.9053C22.6786 20.5954 25.193 20.8153 26.5085 22.6565C28.3179 25.1802 26.9485 28.2076 24.0615 29.0137H22.6966C20.8782 28.6061 19.7737 27.4656 19.383 25.5878C19.3471 25.4183 19.4549 25.2489 19.621 25.2122C19.6434 25.2076 19.6659 25.2031 19.6883 25.2031H20.281C20.4651 25.2031 20.6267 25.3359 20.6671 25.5191C21.2733 28.1573 24.8248 28.5924 25.8305 26.0275C26.2481 24.9603 26.0191 23.9573 25.1481 23.0229C25.0448 22.9084 24.9191 22.8168 24.7844 22.7481C23.1501 21.9328 21.8435 22.3084 20.8737 23.8748C20.7973 24.0031 20.7255 24.3786 20.6267 24.6534C20.5818 24.7771 20.4696 24.8595 20.3439 24.8595H19.5716C19.4459 24.8595 19.3426 24.7542 19.3426 24.6214V20.8885C19.3426 20.742 19.2259 20.6229 19.0822 20.6229C18.2695 20.6275 17.1022 20.6275 15.5801 20.6229C14.7719 20.6229 14.1748 20.7191 13.7886 20.9206C12.2216 21.745 11.7592 23.6504 12.8861 25.0611C15.1984 27.9695 19.832 24.1405 16.4736 21.0489C16.4511 21.0305 16.4466 20.9939 16.4646 20.9664C16.4781 20.9527 16.4915 20.9435 16.5095 20.9435H17.9867C18.0765 20.9435 18.1618 20.9893 18.2112 21.0626C20.2271 24.0672 17.8026 27.8137 14.2915 27.2595C12.6572 26.9985 11.5616 25.9405 11.0049 24.0855V22.6656C12.1453 18.5069 15.863 19.4229 19.0732 19.3588C19.2304 19.3588 19.3516 19.226 19.3516 19.0656V18.2687C19.3516 18.1725 19.2753 18.0992 19.181 18.0992C19.1496 18.0992 19.1226 18.1084 19.0957 18.1221C13.4968 21.7817 9.60403 12.6672 15.9303 11H17.2952Z" fill="#F5AB47"/>
</g>
<circle cx="20" cy="20" r="19.5" stroke="black" stroke-opacity="0.05"/>
<defs>
<clipPath id="clip0_36410_74137">
<rect width="18.001" height="19" fill="white" transform="translate(11 11)"/>
</clipPath>
</defs>
</svg>
