<svg width="40" height="40" viewBox="0 0 40 40" fill="none" xmlns="http://www.w3.org/2000/svg">
<circle cx="20" cy="20" r="20" fill="#1E1E23"/>
<g clip-path="url(#clip0_30315_48336)">
<path d="M14.5469 18.7149V22.2851C14.5469 22.6792 14.8763 23 15.2786 23H19.7883V21.956H15.6456V21.0231H19.7883V19.979H15.6456V19.0461H19.7883V18H15.2786C14.874 18 14.5469 18.3208 14.5469 18.7149Z" fill="white"/>
<path d="M20.7969 18.7149V22.2851C20.7969 22.6792 21.1263 23 21.5286 23H26.0383V21.956H21.8956V19.044H26.0383V18H21.5286C21.124 18 20.7969 18.3208 20.7969 18.7149Z" fill="white"/>
<path d="M26.7852 18V19.044H28.8433V22.9979H29.9441V19.044H32V18H26.7852Z" fill="white"/>
<path d="M10.9371 21.956H10.0838L8.207 18H7L9.15094 22.5304C9.28579 22.8155 9.59749 22.9979 9.94677 22.9979H11.0764C11.4235 22.9979 11.7352 22.8134 11.8722 22.5304L14.021 18H12.814L10.9371 21.956Z" fill="white"/>
</g>
<circle cx="20" cy="20" r="19.5" stroke="black" stroke-opacity="0.05"/>
<defs>
<clipPath id="clip0_30315_48336">
<rect width="25" height="5" fill="white" transform="translate(7 18)"/>
</clipPath>
</defs>
</svg>
