<svg width="40" height="40" viewBox="0 0 40 40" fill="none" xmlns="http://www.w3.org/2000/svg">
<circle cx="20" cy="20" r="20" fill="#760000"/>
<path d="M11.3171 16.1914C12.7853 16.1914 14.0037 16.9992 14.0037 18.3301C14.0035 19.2218 13.4927 19.7625 12.8777 20.002C13.6589 20.2527 14.1199 20.8583 14.1199 21.5898C14.1198 23.0795 12.9229 23.8105 11.2517 23.8105H6.78003C6.73598 23.8103 6.69995 23.7761 6.69995 23.7344V18.3965C6.69995 18.3551 6.73598 18.3205 6.78003 18.3203H8.41382C8.45807 18.3203 8.49487 18.3549 8.49487 18.3965V19.2939H11.0027C11.6847 19.2939 12.1451 18.9043 12.1453 18.4229C12.1453 17.9424 11.6849 17.5508 11.0027 17.5508H6.78003C6.73598 17.5506 6.69995 17.5176 6.69995 17.4766V16.2676C6.69998 16.2258 6.736 16.1916 6.78003 16.1914H11.3171ZM17.0017 18.3203C17.0462 18.3205 17.0828 18.355 17.0828 18.3965V23.7344C17.0827 23.7765 17.0461 23.8104 17.0017 23.8105H15.4646C15.4201 23.8105 15.3846 23.7765 15.3845 23.7344V18.3965C15.3845 18.355 15.42 18.3204 15.4646 18.3203H17.0017ZM16.9119 16.1914C18.0223 16.1914 18.6112 16.5245 18.947 17.2324L21.0369 22.0283C21.1634 22.3142 21.345 22.4501 21.7048 22.4502V16.2676C21.7049 16.2258 21.7409 16.1916 21.7849 16.1914H23.321C23.3652 16.1915 23.4011 16.2257 23.4011 16.2676V23.6768C23.401 23.7503 23.3381 23.8104 23.2595 23.8105H21.5378C20.4274 23.8105 19.9199 23.4764 19.5837 22.7705L17.5232 18.0352C17.3571 17.6989 17.1198 17.5509 16.6355 17.5508H15.4646C15.42 17.5507 15.3845 17.5177 15.3845 17.4766V16.2676C15.3846 16.2257 15.4201 16.1915 15.4646 16.1914H16.9119ZM26.4812 16.1914C26.5261 16.1914 26.5632 16.2257 26.5632 16.2676V22.4502C26.9227 22.4501 27.1053 22.3142 27.2322 22.0283L29.3201 17.2324C29.6563 16.5244 30.246 16.1914 31.3562 16.1914H32.3162C32.3607 16.1914 32.3962 16.2257 32.3962 16.2676V17.4766C32.3962 17.518 32.3607 17.5508 32.3162 17.5508H31.6326C31.1482 17.5508 30.9102 17.6992 30.7449 18.0352L28.6843 22.7705C28.3481 23.4763 27.8402 23.8105 26.7302 23.8105H25.0095C24.9305 23.8105 24.866 23.7504 24.866 23.6768V16.2676C24.866 16.2258 24.9026 16.1916 24.947 16.1914H26.4812ZM30.5906 20.5684L33.2205 23.7236C33.253 23.7615 33.2309 23.8103 33.1775 23.8105H31.324C31.1858 23.8105 31.093 23.7706 31.0125 23.6709L29.8621 22.2246C29.8551 22.2164 29.855 22.2056 29.8582 22.1953L30.5671 20.5713C30.5718 20.5615 30.5826 20.5586 30.5906 20.5684ZM8.49487 22.4834H11.0906C11.7896 22.4833 12.2613 22.0835 12.2615 21.5898C12.2615 21.0972 11.7897 20.6964 11.0906 20.6963H8.49487V22.4834Z" fill="white"/>
<circle cx="20" cy="20" r="19.5" stroke="black" stroke-opacity="0.05"/>
</svg>
