<svg width="40" height="40" viewBox="0 0 40 40" fill="none" xmlns="http://www.w3.org/2000/svg">
<circle cx="20" cy="20" r="20" fill="#121F48"/>
<g clip-path="url(#clip0_44746_83179)">
<path d="M13.2327 15C13.3548 15.0668 13.3242 15.1798 13.2861 15.3057C13.2505 15.4239 13.1589 15.5935 13.0648 15.7913C13.0343 15.8581 12.9834 15.8992 12.9147 15.9146C12.1771 16.0816 11.4675 16.223 10.7375 16.4105C9.61334 16.7034 8.53237 17.0168 7.49464 17.3508C7.23012 17.4356 6.91474 17.5435 6.55102 17.6771C6.52813 17.6848 6.5027 17.6874 6.47981 17.6823C6.43911 17.6746 6.41113 17.636 6.41113 17.5949C6.41113 17.2224 6.58409 16.8447 6.90202 16.6597C7.03428 16.5826 7.19197 16.5107 7.3751 16.4413C8.78672 15.9198 10.211 15.5087 11.6532 15.2081C12.1085 15.113 12.5688 15.0437 13.0317 15H13.2327Z" fill="white"/>
<path d="M10.2829 23.1369C10.2982 23.1292 10.316 23.1266 10.3389 23.1292C10.5881 23.1626 10.8018 23.1883 10.9747 23.2037C11.4224 23.2422 11.8776 23.2037 12.3456 23.0906C13.1748 22.8902 13.887 22.4843 14.4821 21.8703C14.9603 21.377 15.3596 20.8195 15.4893 20.1309C15.5148 19.9896 15.5148 19.8509 15.4843 19.7198C15.4232 19.4603 15.2833 19.3139 15.029 19.2497C14.8891 19.2137 14.767 19.1906 14.6576 19.1803C14.2532 19.1392 13.8615 19.1417 13.4775 19.1854C13.2104 19.2163 13.068 19.2342 13.0476 19.2342C12.7221 19.2676 12.0837 19.2419 12.0481 18.7743C12.0252 18.4686 12.1727 18.1706 12.3431 17.9034C12.7704 17.2302 13.2613 16.6316 13.8641 16.1152C14.4999 15.568 15.2375 15.2262 16.0743 15.0901C16.5729 15.0079 17.4376 15.0027 17.575 15.6553C17.6513 16.0201 17.4554 16.4954 17.2698 16.8423C17.2138 16.9451 17.1375 17.0119 17.0383 17.0401C16.6899 17.1455 16.3643 17.22 16.0667 17.2611C16.0235 17.2662 15.9904 17.2662 15.965 17.2585C15.9268 17.2482 15.9065 17.2071 15.9166 17.1686C15.9166 17.1686 15.9166 17.166 15.9166 17.1634C15.9344 17.1198 15.9599 17.0761 15.9929 17.0298C16.2066 16.7421 16.3643 16.4543 16.4686 16.1666C16.5093 16.0561 16.522 15.9508 16.5093 15.8531C16.4482 15.4266 15.7742 15.8557 15.6038 15.9765C15.1027 16.3336 14.6526 16.7395 14.2532 17.1968C14.1515 17.315 13.6555 17.9034 13.8437 18.0524C13.8666 18.0704 13.915 18.0781 13.9862 18.0729C14.0625 18.0678 14.1362 18.0627 14.21 18.0601C14.6169 18.0421 14.9985 18.0652 15.3571 18.1295C15.7233 18.1963 16.1506 18.3633 16.3745 18.6639C16.7891 19.2214 16.5703 20.0461 16.3185 20.6242C16.0235 21.2999 15.5962 21.878 15.0366 22.361C14.6449 22.7001 14.2074 22.9853 13.7267 23.1883C12.9001 23.5377 12.0328 23.6739 11.1273 23.5968C10.8348 23.5737 10.433 23.4992 10.2626 23.232C10.2422 23.1986 10.2473 23.16 10.2727 23.142C10.2727 23.142 10.2727 23.142 10.2753 23.142L10.2829 23.1369Z" fill="white"/>
<path d="M26.4694 22.7615C26.1336 23.2651 25.569 23.7353 24.928 23.725C24.3125 23.7147 23.814 23.2574 23.6716 22.6613C23.6716 22.6536 23.6639 22.651 23.6563 22.6536C23.6538 22.6536 23.6512 22.6536 23.6487 22.6588C23.4503 22.9362 23.2112 23.2728 22.9569 23.5374C22.8449 23.6556 22.7203 23.7276 22.5881 23.7481C22.5779 23.7481 22.5652 23.7481 22.555 23.7481C22.1684 23.7353 21.7538 23.5503 21.4791 23.2959C21.3825 23.206 21.3214 23.0698 21.2985 22.8823C21.2985 22.8771 21.2934 22.8746 21.2884 22.8746C21.2884 22.8746 21.2833 22.8746 21.2833 22.8771C21.1052 23.1418 20.9424 23.3422 20.7975 23.4758C20.3676 23.8689 19.8182 23.7789 19.3553 23.504C19.1188 23.3653 18.9662 23.2445 18.9102 22.9799C18.867 22.7718 18.8873 22.6099 18.9102 22.3453C18.9102 22.3402 18.9077 22.335 18.9026 22.335C18.9001 22.335 18.8975 22.335 18.895 22.3376C18.5872 22.7641 18.3023 23.1418 18.0378 23.4681C17.8878 23.653 17.7402 23.7558 17.4884 23.743C17.0459 23.725 16.2218 23.391 16.2345 22.8206C16.2345 22.7153 16.2574 22.5765 16.3007 22.4044C16.3693 22.1192 16.4507 21.8238 16.5474 21.518C16.7051 21.0222 16.8729 20.5289 17.0561 20.0356C17.0561 20.0304 17.0611 20.0227 17.0611 20.0176L17.0662 19.9482C17.0662 19.9277 17.0535 19.9123 17.0332 19.9097C17.0306 19.9097 17.0281 19.9097 17.0255 19.9097C16.9467 19.9225 16.7864 19.9482 16.7305 19.8814C16.6313 19.7658 16.7992 19.5885 16.8958 19.5269C17.2087 19.3342 17.4325 19.0721 17.5673 18.7381C17.7911 18.1806 18.0302 17.6539 18.2769 17.1555C18.3888 16.9319 18.5109 16.7161 18.6432 16.508C18.7118 16.4001 18.7907 16.3025 18.8772 16.2177C18.9509 16.1432 19.0399 16.1252 19.1391 16.1638C19.4266 16.2717 19.6707 16.377 19.8742 16.4849C19.9302 16.5132 19.9632 16.5337 19.9759 16.5466C20.0115 16.5851 20.0192 16.6391 19.9937 16.6853C19.6911 17.2531 19.48 17.6256 19.3426 17.9391C19.2561 18.1343 19.4291 18.2037 19.5817 18.1909C19.6784 18.1832 19.7928 18.1652 19.8793 18.1421C20.8331 17.8697 21.797 17.6822 22.7686 17.582C23.1705 17.5409 23.5113 17.4997 23.8572 17.546C23.9285 17.5563 23.9844 17.5743 24.0226 17.6025C24.0531 17.6256 24.0607 17.6693 24.0404 17.7001C24.0327 17.7104 24.0251 17.7181 24.0149 17.7233C23.9564 17.7515 23.8903 17.7721 23.8191 17.7824C23.1909 17.8671 22.5779 17.9673 21.9802 18.083C21.1866 18.2345 20.4439 18.4632 19.7521 18.7689C19.452 18.9025 19.1824 19.0644 18.9408 19.2622C18.7703 19.401 18.6355 19.5783 18.5414 19.7941C18.2871 20.3721 18.0353 21.0299 17.7886 21.7672C17.7021 22.0216 17.6232 22.2965 17.5495 22.5868C17.519 22.705 17.4808 23.0005 17.641 23.0621C17.6512 23.0673 17.6639 23.0647 17.6741 23.0596C17.7326 23.021 17.7708 22.9902 17.7911 22.9645C18.1472 22.5097 18.5313 21.9805 18.9433 21.3793C19.1137 21.1301 19.2409 20.9271 19.3248 20.7729C19.4418 20.5597 19.5486 20.3465 19.6504 20.1332C19.7826 19.8583 19.9352 19.5757 20.1133 19.2879C20.2227 19.1107 20.3015 18.9745 20.533 19.0516C20.7517 19.1235 21.0035 19.1954 21.2095 19.3188C21.3392 19.3958 21.2756 19.5603 21.2171 19.6579C20.8 20.367 20.4516 21.1069 20.1743 21.8726C20.0828 22.1218 19.6962 23.2343 20.3168 23.1135C20.3295 23.1135 20.3396 23.1084 20.3498 23.1032C20.477 23.0441 20.5889 22.9465 20.6805 22.8129C20.8814 22.5226 21.0366 22.2914 21.1485 22.1166C21.2909 21.8931 21.4486 21.5951 21.6215 21.2251C21.8377 20.7652 22.0565 20.2951 22.2778 19.8146C22.3846 19.5808 22.5016 19.3676 22.6237 19.1723C22.6695 19.1029 22.7458 19.0105 22.8322 19.0284C23.1603 19.0952 23.4503 19.2031 23.7021 19.3496C23.7097 19.3547 23.7174 19.3599 23.7224 19.3701C23.7657 19.4369 23.7682 19.5063 23.7275 19.5731C23.2646 20.3567 22.8806 21.1943 22.5753 22.0858C22.5296 22.222 22.4812 22.389 22.4329 22.5868C22.3922 22.759 22.3159 23.1726 22.6364 23.0673C22.8043 23.0107 22.9569 22.8026 23.0739 22.6408C23.2163 22.4429 23.3435 22.2605 23.4528 22.0961C23.4834 22.0498 23.5164 21.983 23.5546 21.8957C23.6436 21.6876 23.7377 21.4358 23.842 21.1403C23.9844 20.7293 24.1777 20.3516 24.4244 20.0047C24.7017 19.6168 25.0603 19.3085 25.48 19.1363C25.714 19.0387 25.9607 19.0027 26.215 19.0259C26.5915 19.0593 26.9196 19.2134 27.1968 19.4832C27.2884 19.5731 27.2299 19.7324 27.0874 19.7067C26.9145 19.6733 26.8076 19.6579 26.7644 19.6579C26.0624 19.6502 25.4444 20.5083 25.1798 21.0812C25.0374 21.3896 24.9331 21.6773 24.8619 21.9471C24.7907 22.2194 24.7449 22.5226 24.806 22.7975C24.8594 23.0467 25.0578 23.2034 25.3121 23.1007C25.4062 23.0647 25.4927 23.0082 25.5741 22.9337C25.9327 22.6022 26.1972 22.1655 26.4541 21.7133C26.5711 21.5077 26.7034 21.2303 26.8509 20.8834C27.1459 20.182 27.4842 19.4164 27.8683 18.5814C28.1837 17.8928 28.4533 17.3302 28.7864 16.7778C28.8399 16.6879 28.8882 16.6236 28.9314 16.5825C29.1018 16.4155 29.4757 16.6057 29.6716 16.6956C29.7835 16.747 29.87 16.7958 29.9285 16.842C29.9361 16.8497 29.9437 16.8574 29.9488 16.8651C29.9946 16.9448 29.9946 17.0193 29.9564 17.0887C29.725 17.4843 29.5113 17.8774 29.318 18.2731C28.8551 19.2211 28.4482 20.1743 28.0997 21.1275C27.9039 21.6645 27.7589 22.1912 27.6699 22.7127C27.6699 22.7256 27.6673 22.7358 27.6673 22.7487C27.6673 22.8874 27.6368 23.0056 27.7462 23.1135C27.7538 23.1212 27.7665 23.1264 27.7792 23.1238C27.9013 23.1084 28.0234 22.9208 28.0946 22.818C28.349 22.4532 28.6288 21.9856 28.8704 21.536C29.2316 20.8603 29.5927 20.1795 29.9513 19.4858C30.0277 19.3419 30.1141 19.1723 30.2311 19.0593C30.2566 19.0336 30.2947 19.0233 30.3303 19.031C30.6101 19.085 30.8823 19.18 31.1468 19.3111C31.3604 19.419 31.2282 19.568 31.1519 19.7016C30.839 20.2437 30.5541 20.8629 30.2998 21.5566C30.193 21.8469 30.0505 22.2348 29.9819 22.5586C29.9463 22.723 29.9285 22.8514 29.9285 22.9388C29.9285 22.9825 29.9412 23.0287 29.9717 23.0801C29.9768 23.0904 29.987 23.0981 29.9997 23.1007C30.2845 23.1495 31.0374 21.9291 31.2205 21.6105C31.4494 21.2123 31.6682 20.8372 31.8767 20.4801C32.1921 19.9405 32.6271 19.4524 33.1968 19.1826C33.5122 19.0336 33.9191 19.0002 34.2498 19.1389C34.817 19.3727 35.0255 19.9277 34.9976 20.5212C34.9772 20.9374 34.8933 21.3407 34.7508 21.7261C34.7458 21.7364 34.7508 21.7492 34.7585 21.757C34.7585 21.757 34.7686 21.7621 34.7788 21.7621C34.7864 21.7621 34.7941 21.7672 34.7992 21.7775C34.8628 21.8572 34.8093 22.0447 34.7712 22.1346C34.728 22.2451 34.6644 22.3607 34.5804 22.484C34.1938 23.0518 33.558 23.6119 32.8661 23.7096C32.4134 23.7738 32.0421 23.6299 31.7547 23.2754C31.5563 23.0313 31.4291 22.7358 31.3782 22.3864C31.3782 22.3813 31.3731 22.3787 31.3681 22.3787C31.3681 22.3787 31.363 22.3787 31.363 22.3813C31.1595 22.6665 30.9713 22.9208 30.8009 23.1443C30.661 23.3293 30.5262 23.486 30.4015 23.6094C30.2693 23.7378 30.1065 23.7661 29.9107 23.743C29.6309 23.7096 29.3155 23.5914 29.0866 23.4501C28.9416 23.3627 28.7483 23.206 28.7229 23.0287C28.7101 22.9337 28.7152 22.8309 28.7356 22.723C28.7356 22.7204 28.7356 22.7153 28.7305 22.7153C28.728 22.7153 28.7254 22.7153 28.7229 22.7178C28.5346 23.0262 28.3591 23.2959 28.1964 23.5272C28.0895 23.6762 27.9573 23.7532 27.7996 23.7507C27.5554 23.7507 27.3265 23.7044 27.1129 23.6196C26.8585 23.5169 26.5482 23.3833 26.4872 23.0775C26.477 23.0287 26.4745 22.926 26.4821 22.7667C26.4821 22.7615 26.477 22.759 26.4745 22.759C26.4719 22.759 26.4694 22.759 26.4668 22.7615H26.4694ZM34.4914 20.2257C34.4253 19.9534 34.1582 19.8686 33.9268 19.9816C33.8377 20.0253 33.7665 20.0741 33.7131 20.1255C33.1561 20.6522 32.7873 21.4281 32.6474 22.1886C32.6093 22.3993 32.6169 22.6151 32.6754 22.8386C32.7593 23.1623 33.062 23.1264 33.2731 22.9722C33.4282 22.8566 33.5783 22.705 33.7182 22.52C34.1226 21.983 34.382 21.3793 34.499 20.7087C34.5296 20.5314 34.5296 20.3696 34.494 20.2283L34.4914 20.2257Z" fill="white"/>
<path d="M5.7626 20.7345C5.7626 20.7191 5.74989 20.7062 5.73208 20.7062C5.73208 20.7062 5.727 20.7062 5.72445 20.7062C5.70665 20.7114 5.66595 20.7165 5.60491 20.7216C5.40652 20.7396 5.3353 20.6035 5.36328 20.4262C5.38109 20.308 5.38872 20.2335 5.46502 20.1538C5.59982 20.0125 5.8211 19.938 6.00423 19.8687C6.01949 19.8635 6.03221 19.8558 6.04238 19.8455C6.13649 19.7633 6.20262 19.6811 6.23823 19.5989C6.45442 19.1005 6.6757 18.5481 6.97837 18.0907C7.06231 17.9649 7.2022 17.8672 7.35735 17.8004C7.68545 17.6591 8.02628 17.5178 8.38236 17.3765C8.51462 17.3225 8.56549 17.4382 8.52225 17.5435C8.44086 17.7413 8.29334 17.9957 8.18906 18.2295C8.10512 18.417 7.97286 18.6997 7.79228 19.0799C7.76176 19.1441 7.75921 19.2495 7.84569 19.27C7.87621 19.2777 7.92199 19.2752 7.98304 19.2597C8.95463 19.0234 9.93895 18.8641 10.9334 18.7844C11.0555 18.7742 11.1395 18.7793 11.1827 18.7973C11.2666 18.8333 11.287 18.8898 11.2463 18.9669C11.1929 19.0645 10.8902 19.1467 10.7783 19.175C10.0763 19.3497 9.23441 19.5655 8.25264 19.825C8.20686 19.8378 8.0568 19.8841 7.80499 19.9663C7.57863 20.0408 7.38024 20.1898 7.20983 20.4133C7.2022 20.4236 7.19457 20.4339 7.18948 20.4467C6.88172 21.143 6.61212 21.8136 6.37812 22.4559C6.3069 22.6537 6.26621 22.795 6.26112 22.8772C6.24332 23.093 6.42136 23.1444 6.5994 23.147C6.78253 23.147 6.99872 23.1187 7.25307 23.0545C7.571 22.9748 7.81517 22.908 7.98304 22.8567C8.99533 22.5432 9.9593 22.2066 10.8775 21.8444C11.989 21.4076 13.4871 20.7807 14.7283 20.3363C14.7588 20.326 14.7944 20.3234 14.8376 20.3285C14.8707 20.3337 14.8961 20.3619 14.8961 20.3953C14.891 20.5752 14.5044 20.7936 14.3391 20.8835C13.894 21.1276 13.4693 21.3537 12.9911 21.5746C11.6736 22.1784 10.6664 22.6229 9.96947 22.9055C9.04111 23.2857 8.05425 23.6146 7.01398 23.8972C6.4824 24.0411 5.81093 24.0899 5.35057 23.7148C4.99703 23.4245 4.9309 23.0082 5.06316 22.5766C5.10131 22.4482 5.13946 22.3043 5.19541 22.1578C5.36328 21.7365 5.5515 21.2715 5.75752 20.7627C5.7626 20.7525 5.7626 20.7422 5.7626 20.7345Z" fill="white"/>
</g>
<circle cx="20" cy="20" r="19.5" stroke="black" stroke-opacity="0.05"/>
<defs>
<clipPath id="clip0_44746_83179">
<rect width="30" height="10" fill="white" transform="translate(5 15)"/>
</clipPath>
</defs>
</svg>
