<svg width="40" height="40" viewBox="0 0 40 40" fill="none" xmlns="http://www.w3.org/2000/svg">
<circle cx="20" cy="20" r="20" fill="#F6F8FA"/>
<g clip-path="url(#clip0_29125_48245)">
<path d="M21.6922 26.2386C28.2536 24.5946 32.814 20.4566 31.8781 16.9959C30.9423 13.5353 24.8646 12.0626 18.3033 13.7065C11.7419 15.3504 7.18149 19.4885 8.11732 22.9491C9.05314 26.4098 15.1308 27.8825 21.6922 26.2386Z" fill="#1A5085"/>
<path d="M23.7203 12.5629C23.7203 12.5629 19.0436 13.9889 17.5461 16.9719C15.9685 20.1168 19.6842 19.9858 20.6932 20.826C21.1897 21.2422 21.2378 22.437 20.7333 23.4853C20.1327 24.7494 18.5711 26.4915 18.5711 26.4915C18.5711 26.4915 19.5241 26.1754 20.3569 25.5356C21.1897 24.8959 23.1117 22.8224 23.504 22.1364C23.9765 21.3116 24.1287 20.3095 22.6472 19.4617C21.0776 18.5598 20.8454 17.4498 20.8694 16.7638C20.8934 16.2011 21.9985 14.0428 23.7123 12.5552L23.7203 12.5629Z" fill="white"/>
<path d="M23.7198 12.5627C22.0061 14.0504 20.909 16.2086 20.877 16.7713C20.8449 17.4496 21.0852 18.5673 22.6547 19.4692C24.1362 20.3171 23.9841 21.3191 23.5116 22.1439C23.1192 22.8222 21.1973 24.9034 20.3644 25.5432C19.5316 26.1829 18.5787 26.499 18.5787 26.499C18.5787 26.499 20.1402 24.7569 20.7408 23.4928C21.2373 22.4368 21.1973 21.2497 20.7008 20.8335C19.6918 19.9933 15.9761 20.1244 17.5536 16.9794C19.0511 13.9964 23.7278 12.5704 23.7278 12.5704M24.7368 12L23.6477 12.3314C23.4555 12.3931 18.8509 13.8191 17.3214 16.8638C16.889 17.7271 16.8009 18.4209 17.0491 18.9913C17.4175 19.8546 18.4505 20.1937 19.3554 20.4943C19.8359 20.6562 20.2924 20.8027 20.5246 21.0031C20.901 21.3191 20.9811 22.3674 20.5086 23.3849C19.932 24.6028 18.4025 26.3217 18.3865 26.3371L17.7859 27.0077L18.6507 26.7225C18.6908 26.7071 19.6517 26.3911 20.5086 25.7282C21.3654 25.073 23.3114 22.9687 23.7198 22.2595C24.4245 21.0339 24.1042 20.0242 22.7749 19.261C21.3574 18.444 21.0932 17.4651 21.1252 16.779C21.1492 16.2703 22.2383 14.166 23.88 12.74L24.7288 12H24.7368Z" fill="#1A5085"/>
</g>
<circle cx="20" cy="20" r="19.5" stroke="black" stroke-opacity="0.05"/>
<defs>
<clipPath id="clip0_29125_48245">
<rect width="24" height="15" fill="white" transform="translate(8 12)"/>
</clipPath>
</defs>
</svg>
