<svg width="40" height="40" viewBox="0 0 40 40" fill="none" xmlns="http://www.w3.org/2000/svg">
<circle cx="20" cy="20" r="20" fill="#FF5F00"/>
<g clip-path="url(#clip0_25273_47355)">
<path d="M7.39002 19.6429C7.50648 19.7141 7.6402 19.7518 7.79549 19.7602C8.30449 19.7811 8.85663 19.7853 9.44758 19.7685C9.81423 19.7602 10.1205 19.8104 10.3621 19.9234C11.3499 20.384 11.7122 21.6485 11.0393 22.5027C10.6769 22.9632 10.1809 23.1977 9.55111 23.2019C8.5633 23.2103 7.40727 23.2103 6.08733 23.2061C6.05713 23.2061 6.03125 23.181 6.03125 23.1516H6.03556V22.3603C6.03556 22.3268 6.05282 22.3101 6.08733 22.3059C7.09238 22.3017 8.20528 22.3017 9.43033 22.3059C9.95658 22.3059 10.3836 22.1216 10.4526 21.5564C10.513 21.0707 10.1119 20.6687 9.61581 20.6646C8.9429 20.652 8.31312 20.6478 7.73079 20.6478C6.15634 20.6478 5.43598 18.638 6.6826 17.629C7.02768 17.3484 7.44609 17.2103 7.94215 17.2144C8.88682 17.2144 9.85306 17.2144 10.8452 17.2144C10.9012 17.2144 10.9271 17.2396 10.9271 17.294V18.0393C10.9271 18.0937 10.9012 18.123 10.8452 18.123C9.85737 18.123 8.9429 18.123 8.11038 18.123C7.73942 18.123 7.21316 18.1816 7.0665 18.5669C6.88533 19.04 6.99317 19.4001 7.39002 19.6429Z" fill="white"/>
<path d="M16.6937 18.9981C16.4694 18.7762 16.258 18.5208 15.9733 18.3743C14.3169 17.5201 12.5096 18.9228 12.859 20.6687C12.9323 21.0414 13.1178 21.3722 13.4111 21.6611C13.9244 22.1635 14.4593 22.3184 15.1667 22.3059C15.6671 22.2975 16.189 22.2975 16.7325 22.3059C16.7843 22.3059 16.8102 22.331 16.8102 22.3812V23.1307C16.8102 23.181 16.7886 23.2061 16.7368 23.2061C16.12 23.2186 15.5247 23.2186 14.9424 23.1977C14.0926 23.1726 13.3981 22.892 12.859 22.3603C11.9919 21.5061 11.6986 20.3589 12.0911 19.22C12.5484 17.8802 14.1142 16.9883 15.5334 17.2814C16.3572 17.4531 16.9956 17.8676 17.4572 18.5375C17.6039 18.7511 17.6858 18.9981 17.6988 19.2786C17.7376 20.0742 17.0647 20.6604 16.2753 20.6562C15.3522 20.6478 14.5197 20.6478 13.7777 20.652C13.7432 20.652 13.726 20.6352 13.726 20.6017V19.8271C13.7303 19.7937 13.7475 19.7769 13.7821 19.7769C14.5455 19.7769 15.3306 19.7769 16.1329 19.7769C16.5212 19.7769 16.7411 19.6387 16.7929 19.3624C16.8015 19.3247 16.7972 19.287 16.7886 19.2493L16.7455 19.0944C16.7368 19.0609 16.7196 19.0316 16.6937 19.0065V18.9981Z" fill="white"/>
<path d="M23.1085 19.1826C22.8756 18.8057 22.6383 18.5545 22.3881 18.4289C21.3874 17.9223 20.5031 18.0395 19.731 18.7932C18.4628 20.0325 19.3557 22.2349 21.1631 22.2935C21.7497 22.3103 22.3881 22.3145 23.0826 22.2977C23.1258 22.2977 23.1473 22.3186 23.1473 22.3605V23.1477C23.1473 23.1854 23.1301 23.2021 23.0912 23.2063C22.4787 23.2189 21.8403 23.2105 21.1847 23.1895C20.0502 23.1519 19.1314 22.5406 18.6008 21.5817C18.0962 20.669 18.1522 19.505 18.713 18.6508C19.1659 17.96 19.8173 17.5119 20.6627 17.311C21.8231 17.0346 23.0352 17.5161 23.7124 18.4456C24.1437 19.0318 24.1567 19.5971 23.7555 20.1372C23.501 20.4764 23.1344 20.648 22.6469 20.6522C21.8619 20.6522 21.0164 20.6522 20.1192 20.6522C20.0847 20.6522 20.0674 20.6355 20.0674 20.602V19.8274C20.0718 19.7939 20.089 19.7771 20.1235 19.7771C20.9172 19.7771 21.7195 19.7771 22.5391 19.7771C22.8756 19.7771 23.074 19.6306 23.143 19.3375C23.1559 19.2831 23.143 19.2286 23.1171 19.1826H23.1085Z" fill="white"/>
<path d="M25.3514 18.8016C25.7612 18.0479 26.3996 17.558 27.2667 17.3319C27.7066 17.2189 28.2458 17.1854 28.8842 17.2314C28.9231 17.2314 28.9446 17.2565 28.9446 17.2942V18.0646C28.9446 18.1023 28.9231 18.1233 28.8799 18.1191C28.0258 18.0898 27.1372 18.1065 26.5204 18.7388C26.0977 19.17 25.8863 19.7018 25.8863 20.3382C25.8863 21.3515 25.8863 22.2852 25.8863 23.1435C25.8863 23.177 25.8604 23.2021 25.8259 23.2021H25.0409C25.002 23.2021 24.9805 23.1812 24.9805 23.1435C24.9805 22.0967 24.9805 21.0625 24.9848 20.0451C24.9848 19.6557 25.1099 19.2412 25.3514 18.7974V18.8016Z" fill="white"/>
<path d="M33.6932 20.778C33.5422 20.6859 33.3049 20.6566 33.1281 20.6524C32.6881 20.644 32.2654 20.644 31.8599 20.6524C31.3595 20.6649 30.9799 20.6147 30.7254 20.5016C29.6902 20.0327 29.3796 18.697 30.1086 17.8513C30.458 17.4493 30.9152 17.24 31.476 17.2274C32.4336 17.2065 33.4473 17.2065 34.5214 17.219C34.5731 17.219 34.599 17.2441 34.599 17.2944V18.0481C34.599 18.0941 34.5731 18.1192 34.5257 18.1192C33.6457 18.1234 32.7701 18.1192 31.8987 18.1192C31.5105 18.1192 31.0705 18.1192 30.8117 18.4333C30.3372 19.0069 30.8117 19.7689 31.5191 19.7689C32.0842 19.7689 32.6924 19.7689 33.3394 19.7773C33.8614 19.7815 34.2841 19.9783 34.599 20.3635C35.2547 21.1632 35.1641 22.2141 34.3229 22.8506C34.0037 23.0934 33.5939 23.2106 33.0893 23.2065C31.9505 23.1981 30.8376 23.1981 29.7635 23.2065C29.7204 23.2065 29.7031 23.1855 29.7031 23.1478V22.3523C29.7031 22.3146 29.7247 22.2979 29.7635 22.2979C30.9239 22.2979 32.054 22.2979 33.1626 22.2979C33.4904 22.2979 33.9304 22.1639 34.0512 21.8373C34.2194 21.3809 34.0986 21.0292 33.6888 20.778H33.6932Z" fill="white"/>
</g>
<circle cx="20" cy="20" r="19.5" stroke="black" stroke-opacity="0.05"/>
<defs>
<clipPath id="clip0_25273_47355">
<rect width="29" height="6" fill="white" transform="translate(6.03516 17.2104)"/>
</clipPath>
</defs>
</svg>
