<svg width="40" height="40" viewBox="0 0 40 40" fill="none" xmlns="http://www.w3.org/2000/svg">
<circle cx="20" cy="20" r="20" fill="#F6F8FA"/>
<g clip-path="url(#clip0_29496_49771)">
<path d="M4.82655 18L7.78217 23H5.95997L3 18H4.82655Z" fill="#132B51"/>
<path d="M7.93059 18L10.8862 23H9.06401L6.1084 18H7.93059Z" fill="#132B51"/>
<path d="M10.869 18L8.92915 19.4086C8.87247 19.4525 8.85068 19.4405 8.87247 19.3727L9.073 18.6903C9.08172 18.6664 9.073 18.6385 9.06428 18.6145L8.68066 18H10.869Z" fill="#009FE7"/>
<path d="M15.1098 18L14.9921 20.5818C14.9921 20.6257 15.0008 20.6297 15.0269 20.5938L16.8012 18H18.0828L18.3531 20.5858C18.3575 20.6257 18.3705 20.6297 18.388 20.5938L19.7699 18H21.3828L18.619 23H17.1107L16.9276 19.8595C16.9276 19.8196 16.9145 19.8196 16.8927 19.8516L14.8874 23H13.3791L13.4794 18.9457C13.4794 18.9138 13.4707 18.8779 13.4576 18.85L12.9824 18.004H15.1141L15.1098 18Z" fill="#132B51"/>
<path d="M23.7241 18L21.8539 19.3567C21.8234 19.3807 21.8103 19.3727 21.8191 19.3368L22.2114 18H23.7241Z" fill="#009FE7"/>
<path d="M29.6135 18L29.2821 19.1532C29.2821 19.1532 29.2647 19.1772 29.2473 19.1772H27.5951C27.5951 19.1772 27.5602 19.1852 27.5559 19.2051L26.4486 23H24.9316L26.0388 19.2051C26.0388 19.2051 26.0388 19.1812 26.0214 19.1812C26.0214 19.1812 26.0214 19.1812 26.017 19.1812H24.2864C24.2864 19.1812 24.2559 19.1692 24.2559 19.1532C24.2559 19.1532 24.2559 19.1492 24.2559 19.1453L24.5959 18.004H29.6178L29.6135 18Z" fill="#132B51"/>
<path d="M36.0001 18V18.0439L35.6775 19.1692C35.6775 19.1692 35.6688 19.1852 35.6557 19.1852C33.4019 19.1852 32.2423 19.1852 32.177 19.1812C32.0244 19.1812 31.9023 19.1931 31.8195 19.2251C31.5579 19.3288 31.4141 19.7119 31.7279 19.8516C31.7803 19.8755 31.8587 19.8875 31.9633 19.8875C33.4368 19.8875 34.2781 19.8875 34.483 19.8875C34.7707 19.8875 35.0105 19.9513 35.2023 20.091C35.4682 20.2825 35.5511 20.5499 35.4552 20.897C35.3592 21.2522 35.1936 21.7989 34.9582 22.5411C34.8754 22.8045 34.6879 22.9601 34.3958 23.004H29.2998L29.6311 21.8428C29.6311 21.8428 29.6442 21.8228 29.6573 21.8228C31.4577 21.8228 32.7306 21.8228 33.4673 21.8228C33.6068 21.8228 33.7289 21.763 33.8291 21.6472C34.034 21.4078 33.9076 21.0726 33.5545 21.0726C33.0968 21.0726 32.1944 21.0726 30.8474 21.0726C30.3766 21.0726 29.945 20.8412 29.8796 20.4182C29.8578 20.2865 29.897 20.0351 30.0017 19.672C30.1673 19.0774 30.2763 18.6864 30.3199 18.4988C30.3896 18.2195 30.5814 18.0559 30.8953 18.012H36.0001V18Z" fill="#132B51"/>
<path d="M22.3114 23.0001H20.79L21.7273 19.7798C21.7273 19.7798 21.7447 19.7559 21.7622 19.7559H23.2313C23.2313 19.7559 23.2487 19.7638 23.2487 19.7718C23.2487 19.7718 23.2487 19.7718 23.2487 19.7758L22.3114 23.0001Z" fill="#132B51"/>
</g>
<circle cx="20" cy="20" r="19.5" stroke="black" stroke-opacity="0.05"/>
<defs>
<clipPath id="clip0_29496_49771">
<rect width="33" height="5" fill="white" transform="translate(3 18)"/>
</clipPath>
</defs>
</svg>
