<svg width="40" height="40" viewBox="0 0 40 40" fill="none" xmlns="http://www.w3.org/2000/svg">
<ellipse cx="19.5289" cy="20" rx="19.5289" ry="20" fill="#F6F8FA"/>
<g clip-path="url(#clip0_26395_47625)">
<path d="M9.46884 15.9473H7.87877C7.87507 15.9473 7.87207 15.9502 7.87207 15.9538V22.1945C7.87207 22.1981 7.87507 22.2011 7.87877 22.2011H9.46884C9.47254 22.2011 9.47553 22.1981 9.47553 22.1945V15.9538C9.47553 15.9502 9.47254 15.9473 9.46884 15.9473Z" fill="#F37021"/>
<path d="M21.0612 15.9473H19.4778C19.4723 15.9473 19.4678 15.9517 19.4678 15.9571V22.1912C19.4678 22.1967 19.4723 22.2011 19.4778 22.2011H21.0612C21.0667 22.2011 21.0712 22.1967 21.0712 22.1912V15.9571C21.0712 15.9517 21.0667 15.9473 21.0612 15.9473Z" fill="#F37021"/>
<path d="M31.5825 18.0197H31.3213C31.3213 18.0197 31.308 18.0197 31.3046 18.0295C30.5949 19.2284 29.8384 20.5751 29.1388 21.8298C28.9814 22.1123 28.6902 22.1812 28.3889 22.1779C28.0876 22.1779 27.7997 22.1779 27.5286 22.1779C27.3411 22.1779 27.1135 22.0991 26.9763 21.9645C26.9394 21.925 26.8926 21.8593 26.8357 21.7608C26.367 20.9331 25.9854 20.2663 25.6942 19.7605C25.4264 19.2974 25.0849 18.7226 24.6631 18.0328C24.6598 18.0263 24.6531 18.023 24.643 18.023H24.3953V22.1977C24.3953 22.1977 24.3953 22.2042 24.3886 22.2042H22.7919C22.7919 22.2042 22.7852 22.2042 22.7852 22.1977C22.7852 20.309 22.7852 18.496 22.7852 16.7584C22.7852 16.4464 22.9191 16.2099 23.1869 16.049C23.3241 15.9636 23.4681 15.9438 23.6321 15.9471C23.9534 15.9471 24.2681 15.9471 24.5727 15.9471C24.6866 15.9471 24.7769 15.9537 24.8439 15.9734C24.9778 16.0095 25.0949 16.0752 25.192 16.1705C25.2355 16.2132 25.2958 16.3019 25.3761 16.4365C26.1929 17.8587 27.0198 19.2678 27.85 20.6572C27.8533 20.6638 27.86 20.667 27.87 20.667H28.1713C28.1713 20.667 28.1814 20.667 28.1847 20.6605C28.4057 20.2795 28.6366 19.9017 28.8609 19.5175C29.4568 18.4992 30.056 17.4777 30.6585 16.4497C30.7389 16.3117 30.8025 16.2165 30.8493 16.1705C30.9464 16.0719 31.0636 16.0063 31.2008 15.9701C31.2711 15.9504 31.3582 15.9438 31.4619 15.9438C31.7565 15.9438 32.0444 15.9438 32.3256 15.9438C32.4528 15.9438 32.5532 15.9504 32.6269 15.9734C32.8846 16.0457 33.1056 16.269 33.1725 16.5154C33.1893 16.5778 33.1993 16.6763 33.1993 16.8208C33.1993 18.5879 33.1993 20.378 33.1993 22.1911C33.1993 22.2009 33.196 22.2042 33.1859 22.2042H31.6025C31.6025 22.2042 31.5958 22.2042 31.5958 22.2009V18.0328C31.5958 18.0328 31.5925 18.0197 31.5825 18.0197Z" fill="#F37021"/>
<path d="M14.3019 20.6144H14.64C14.64 20.6144 14.6534 20.6144 14.6534 20.6046C14.8878 20.102 15.1355 19.5601 15.3932 18.9787C15.7581 18.151 16.2067 17.1459 16.7356 15.9602C16.7356 15.9569 16.7423 15.9536 16.7456 15.9536H18.4997C18.4997 15.9536 18.5064 15.9536 18.5064 15.9602C17.616 17.839 16.7289 19.7177 15.8418 21.5965C15.7748 21.7344 15.7213 21.8297 15.6811 21.8822C15.5137 22.0892 15.2861 22.1976 15.0183 22.1943C14.6802 22.1943 14.3354 22.1943 13.9906 22.1943C13.8567 22.1943 13.7563 22.1877 13.6927 22.1713C13.5287 22.1286 13.3981 22.0465 13.2977 21.9282C13.2609 21.8822 13.2173 21.81 13.1705 21.7115C12.2499 19.7768 11.3394 17.8619 10.4355 15.9602V15.9536H12.1863C12.1863 15.9536 12.1963 15.9536 12.1997 15.9602C12.7554 17.2346 13.2943 18.4302 13.8601 19.6914C14.0141 20.033 14.1546 20.3385 14.2852 20.6078C14.2852 20.6111 14.2919 20.6144 14.2952 20.6144H14.3019Z" fill="#F37021"/>
<path d="M9.12375 24.579V26.9406C9.12375 26.9406 9.12375 26.9471 9.12041 26.9471H8.62832C8.62832 26.9471 8.62162 26.9471 8.62162 26.9406V24.579C8.62162 24.579 8.61828 24.5724 8.61493 24.5724H7.81822C7.81822 24.5724 7.81152 24.5724 7.81152 24.5658V24.0896C7.81152 24.0896 7.81152 24.083 7.81822 24.083H9.92381C9.92381 24.083 9.93051 24.083 9.93051 24.0863V24.5626C9.93051 24.5626 9.93051 24.5691 9.92381 24.5691H9.13045C9.13045 24.5691 9.12375 24.5691 9.12375 24.5757V24.579Z" fill="#231F20"/>
<path d="M10.8107 24.5791V25.2492C10.8107 25.2492 10.8107 25.2557 10.8174 25.2557H12.1832C12.1832 25.2557 12.1899 25.2557 12.1899 25.2623V25.732C12.1899 25.732 12.1899 25.7386 12.1832 25.7386H10.8174C10.8174 25.7386 10.8107 25.7386 10.8107 25.7451V26.4546C10.8107 26.4546 10.8107 26.4612 10.8174 26.4612H12.2167C12.2167 26.4612 12.2234 26.4612 12.2234 26.4677V26.944C12.2234 26.944 12.2234 26.9506 12.2167 26.9506H10.3153C10.3153 26.9506 10.3086 26.9506 10.3086 26.944V24.093C10.3086 24.093 10.3086 24.0864 10.3153 24.0864H12.2033C12.2033 24.0864 12.21 24.0864 12.21 24.093V24.5693C12.21 24.5693 12.21 24.5758 12.2033 24.5758H10.8174C10.8174 24.5758 10.8107 24.5758 10.8107 24.5824V24.5791Z" fill="#231F20"/>
<path d="M13.1874 24.6647C13.1606 24.7107 13.1506 24.7567 13.1506 24.806C13.1506 25.1081 13.1506 25.5647 13.1506 26.1822C13.1506 26.2676 13.164 26.3793 13.2476 26.422C13.2912 26.445 13.3347 26.4548 13.3849 26.4548C13.7899 26.4548 14.1883 26.4548 14.5833 26.4548C14.5867 26.4548 14.59 26.4548 14.59 26.4614V26.9344C14.59 26.9344 14.59 26.9442 14.58 26.9442C14.1682 26.9442 13.7565 26.9442 13.3548 26.9442C12.9731 26.9442 12.7053 26.7537 12.6585 26.3694C12.6518 26.3201 12.6484 26.2676 12.6484 26.2118C12.6484 25.6402 12.6484 25.1607 12.6484 24.7698C12.6484 24.4217 12.8292 24.1425 13.1907 24.0932C13.2577 24.0834 13.328 24.0801 13.4016 24.0801C13.7966 24.0801 14.1883 24.0801 14.5833 24.0801C14.5833 24.0801 14.59 24.0801 14.59 24.0834V24.5629C14.59 24.5629 14.59 24.5662 14.5867 24.5662C14.1716 24.5662 13.7732 24.5662 13.3949 24.5662C13.3213 24.5662 13.2309 24.5925 13.1941 24.6582L13.1874 24.6647Z" fill="#231F20"/>
<path d="M15.5445 25.7191V26.9376C15.5445 26.9376 15.5445 26.9442 15.5378 26.9442H15.0458C15.0458 26.9442 15.0391 26.9442 15.0391 26.9376V24.0866C15.0391 24.0866 15.0391 24.0801 15.0458 24.0801H15.5378C15.5378 24.0801 15.5445 24.0801 15.5445 24.0866V25.233C15.5445 25.233 15.5445 25.2395 15.5512 25.2395H16.6827C16.6827 25.2395 16.6894 25.2395 16.6894 25.233V24.0866C16.6894 24.0866 16.6894 24.0801 16.6961 24.0801H17.1882C17.1882 24.0801 17.1949 24.0801 17.1949 24.0866V26.9376C17.1949 26.9376 17.1949 26.9442 17.1882 26.9442H16.6961C16.6961 26.9442 16.6894 26.9442 16.6894 26.9376V25.7191C16.6894 25.7191 16.6894 25.7125 16.6827 25.7125H15.5512C15.5512 25.7125 15.5445 25.7125 15.5445 25.7191Z" fill="#231F20"/>
<path d="M19.4908 25.9719C19.4908 25.9719 19.5042 25.9817 19.5042 25.9686V24.0931C19.5042 24.0931 19.5042 24.0832 19.5143 24.0832H19.9963C19.9963 24.0832 19.9997 24.0832 19.9997 24.0865V26.9342C19.9997 26.9342 19.9963 26.9441 19.9896 26.9441H19.5913C19.5913 26.9441 19.5779 26.9408 19.5712 26.9342C19.136 26.3102 18.6975 25.673 18.2456 25.0259C18.2389 25.016 18.2322 25.0029 18.2255 24.9931C18.2154 24.9766 18.2121 24.9766 18.2121 24.9931V26.9342C18.2121 26.9342 18.2121 26.9408 18.2054 26.9408H17.72C17.72 26.9408 17.71 26.9408 17.71 26.9309V24.0799C17.71 24.0799 17.71 24.0767 17.7133 24.0767H18.1786C18.1786 24.0767 18.192 24.0767 18.1954 24.0865L19.4875 25.9653L19.4908 25.9719Z" fill="#231F20"/>
<path d="M20.4922 26.3198V24.7071C20.4922 24.3622 20.7767 24.083 21.1282 24.083H22.1358C22.4873 24.083 22.7719 24.3622 22.7719 24.7071V26.3198C22.7719 26.6647 22.4873 26.9439 22.1358 26.9439H21.1282C20.7767 26.9439 20.4922 26.6647 20.4922 26.3198ZM22.2697 24.7892C22.2697 24.6709 22.1726 24.5724 22.0488 24.5724H21.2153C21.0947 24.5724 20.9943 24.6677 20.9943 24.7892V26.241C20.9943 26.3592 21.0914 26.4577 21.2153 26.4577H22.0488C22.1693 26.4577 22.2697 26.3625 22.2697 26.241V24.7892Z" fill="#231F20"/>
<path d="M23.7758 26.4577H25.1416C25.1416 26.4577 25.1483 26.4577 25.1483 26.4643V26.9406C25.1483 26.9406 25.1483 26.9471 25.1416 26.9471H23.2704C23.2704 26.9471 23.2637 26.9471 23.2637 26.9406V24.0896C23.2637 24.0896 23.2637 24.083 23.2704 24.083H23.7625C23.7625 24.083 23.7691 24.083 23.7691 24.0896V26.4512C23.7691 26.4512 23.7691 26.4577 23.7758 26.4577Z" fill="#231F20"/>
<path d="M27.5849 24.3033C27.7088 24.4511 27.7356 24.6417 27.7356 24.8289C27.7356 25.292 27.7356 25.7551 27.7356 26.2248C27.7356 26.5598 27.6084 26.8325 27.2669 26.9211C27.1933 26.9408 27.0795 26.9507 26.9221 26.9507C26.6242 26.9507 26.3564 26.9507 26.1187 26.9507C26.0618 26.9507 25.9982 26.9441 25.938 26.9277C25.553 26.839 25.4492 26.5401 25.4492 26.192C25.4492 25.7091 25.4492 25.2362 25.4492 24.7697C25.4492 24.3657 25.7036 24.0931 26.1154 24.0898C26.4167 24.0898 26.728 24.0898 27.0527 24.0898C27.2535 24.0898 27.4544 24.1555 27.5849 24.3099V24.3033ZM27.2268 24.7895C27.2268 24.6679 27.1263 24.5727 27.0058 24.5727H26.1756C26.0518 24.5727 25.9547 24.6712 25.9547 24.7895V26.2379C25.9547 26.3595 26.0551 26.4547 26.1756 26.4547H27.0058C27.1297 26.4547 27.2268 26.3562 27.2268 26.2379V24.7895Z" fill="#231F20"/>
<path d="M29.9016 25.6893H29.1618C29.1618 25.6893 29.145 25.6827 29.145 25.6729V25.236C29.145 25.236 29.1484 25.2295 29.1517 25.2295H30.3836C30.3836 25.2295 30.3937 25.2327 30.3937 25.2393C30.3937 25.571 30.3937 25.9291 30.3937 26.3101C30.3937 26.6221 30.2531 26.8783 29.9183 26.9374C29.8581 26.9473 29.7878 26.9538 29.7041 26.9506C29.4229 26.9506 29.135 26.9506 28.8471 26.9506C28.7567 26.9506 28.663 26.9309 28.5693 26.8947C28.2881 26.7831 28.1943 26.5203 28.1943 26.2411C28.1943 25.6991 28.1943 25.2065 28.1943 24.7565C28.1943 24.6251 28.2245 24.5036 28.2847 24.3919C28.4186 24.1488 28.6797 24.0864 28.9408 24.0864C29.4061 24.0864 29.8648 24.0864 30.3167 24.0864C30.3234 24.0864 30.3301 24.0897 30.3301 24.0996V24.566C30.3301 24.566 30.3267 24.5758 30.32 24.5758C29.8681 24.5758 29.4128 24.5758 28.9542 24.5758C28.7768 24.5758 28.6965 24.6645 28.6965 24.8287C28.6965 25.2951 28.6965 25.755 28.6965 26.2083C28.6965 26.402 28.7935 26.4612 28.981 26.4612C29.3191 26.4612 29.5668 26.4612 29.7208 26.4612C29.8848 26.4612 29.9116 26.3396 29.9083 26.1984C29.9083 26.0276 29.9083 25.8634 29.9083 25.7057C29.9083 25.6991 29.9049 25.6959 29.8982 25.6959L29.9016 25.6893Z" fill="#231F20"/>
<path d="M31.8269 25.2687L32.6035 24.0863C32.6035 24.0863 32.6035 24.0863 32.6068 24.0863H33.1759C33.1759 24.0863 33.1826 24.0863 33.1826 24.0929L32.0712 25.7516V26.9373C32.0712 26.9373 32.0712 26.9439 32.0645 26.9439H31.5725C31.5725 26.9439 31.5658 26.9439 31.5658 26.9373V25.7483L30.4443 24.0896V24.083H31.0235H31.0268L31.8068 25.2655C31.8068 25.2655 31.8135 25.2687 31.8135 25.2655L31.8269 25.2687Z" fill="#231F20"/>
</g>
<path d="M20.4717 0.5C30.9697 0.500197 39.5 9.21927 39.5 20C39.5 30.7807 30.9697 39.4998 20.4717 39.5C9.97345 39.5 1.44238 30.7809 1.44238 20C1.44238 9.21915 9.97345 0.5 20.4717 0.5Z" stroke="black" stroke-opacity="0.05"/>
<defs>
<clipPath id="clip0_26395_47625">
<rect width="25.3876" height="11" fill="white" transform="translate(7.81152 15.9473)"/>
</clipPath>
</defs>
</svg>
