<svg width="40" height="40" viewBox="0 0 40 40" fill="none" xmlns="http://www.w3.org/2000/svg">
<circle cx="20" cy="20" r="20" fill="#F6F8FA"/>
<g clip-path="url(#clip0_25273_47353)">
<path d="M15.8157 26.4734H15.1832C15.1037 26.4591 15.0223 26.4465 14.9446 26.4339C14.2705 26.3297 13.8621 25.9561 13.7193 25.3166C13.6796 25.1387 13.676 24.9375 13.7085 24.713C13.8079 24.0357 14.2904 23.5902 14.9862 23.5022C15.1904 23.477 15.438 23.468 15.729 23.477C16.5115 23.5022 17.097 23.8561 17.2669 24.6429C17.35 25.0327 17.2778 25.498 17.0537 25.8321C16.8314 26.1627 16.5061 26.3621 16.076 26.4303C15.991 26.4447 15.9043 26.4573 15.8175 26.4716L15.8157 26.4734ZM15.935 25.9722C16.2187 25.8465 16.3326 25.5034 16.3579 25.2088C16.4013 24.7183 16.329 23.9046 15.6386 23.9333C15.5428 23.9369 15.4488 23.9369 15.3567 23.9333C14.8525 23.91 14.6573 24.3429 14.6247 24.7794C14.5976 25.1513 14.6247 25.6956 14.9717 25.9273C15.1633 26.0567 15.3892 26.0189 15.6061 26.0243C15.7398 26.0279 15.85 26.01 15.935 25.9722Z" fill="#09428F"/>
<path d="M20.1579 26.4736H17.8139V26.0461C17.8139 26.0317 17.8211 26.0245 17.8356 26.0245C18.403 26.0245 18.9832 26.0245 19.5741 26.0281C19.6808 26.0281 19.7729 26.0155 19.8506 25.9904C20.1326 25.897 20.194 25.5431 20.0765 25.3042C19.988 25.1263 19.8055 25.085 19.6193 25.0868C19.2615 25.0904 18.9271 25.094 18.6181 25.0958C18.2079 25.0958 17.832 25.0077 17.6856 24.5784C17.4759 23.9676 17.9729 23.4862 18.5657 23.4826C19.2832 23.479 20.0277 23.479 20.7994 23.479C20.8139 23.479 20.8211 23.4862 20.8211 23.5006V23.9065C20.8211 23.9263 20.8121 23.9353 20.7922 23.9353C20.147 23.9353 19.5163 23.9353 18.8982 23.9353C18.4464 23.9353 18.4717 24.5676 18.9235 24.573C19.2326 24.5766 19.5488 24.5766 19.8723 24.573C20.0729 24.5694 20.241 24.591 20.3802 24.6341C20.9296 24.8101 21.1609 25.4443 20.9386 25.9545C20.8103 26.2491 20.55 26.4215 20.1579 26.4718V26.4736Z" fill="#0083CB"/>
<path d="M22.3608 26.4736H21.4355V24.8784C21.4355 24.8784 21.441 24.8658 21.4482 24.8658C22.1657 24.8658 22.8488 24.8658 23.4976 24.8658C24.0596 24.8658 24.0687 23.9371 23.4542 23.9371C22.7621 23.9371 22.0988 23.9371 21.4645 23.9371C21.4446 23.9371 21.4355 23.9281 21.4355 23.9083V23.5095C21.4355 23.4898 21.4446 23.479 21.4645 23.479C22.2163 23.479 22.9916 23.479 23.7922 23.479C24.159 23.479 24.5133 23.6119 24.6904 23.9353C24.8946 24.3054 24.8241 24.7688 24.5476 25.076C24.3488 25.2988 24.047 25.3832 23.7488 25.3832C23.2807 25.3832 22.8235 25.3832 22.3771 25.3832C22.3681 25.3832 22.359 25.3904 22.359 25.4012V26.4736H22.3608Z" fill="#0083CB"/>
<path d="M31.7351 26.4737H30.1194C30.0255 26.4647 29.9315 26.454 29.8411 26.4378C29.0369 26.3013 28.5851 25.642 28.6267 24.8498C28.652 24.3917 28.8345 24.036 29.1779 23.7791C29.4761 23.5563 29.8809 23.4809 30.264 23.4791C30.7502 23.4773 31.2363 23.4755 31.7224 23.4773C31.7315 23.4773 31.7387 23.4845 31.7387 23.4935V23.9102C31.7387 23.9228 31.7279 23.9336 31.7152 23.9336C31.2417 23.9354 30.7447 23.9354 30.2279 23.9336C29.9224 23.9336 29.7164 24.142 29.6261 24.4294C29.4905 24.8587 29.4887 25.7839 30.0164 25.9833C30.0905 26.012 30.1809 26.0246 30.2857 26.0246C30.8026 26.021 31.2815 26.021 31.7206 26.0246C31.7297 26.0246 31.7369 26.0318 31.7369 26.0408V26.4737H31.7351Z" fill="#0083CB"/>
<path d="M35.0354 23.479V23.9353C34.5764 23.9353 34.1173 23.9353 33.6583 23.9353C33.474 23.9353 33.3456 23.9515 33.2752 23.9874C33.0402 24.1042 32.9191 24.3646 32.8794 24.6161C32.8794 24.6251 32.8848 24.6341 32.8938 24.6359C32.8938 24.6359 32.8938 24.6359 32.8956 24.6359H35.0318V25.0922H32.8667C32.8667 25.0922 32.8523 25.0976 32.8523 25.1066C32.8721 25.4982 33.033 26.0245 33.5209 26.0245C34.0252 26.0245 34.5276 26.0245 35.0318 26.0245V26.4736H33.4179C32.7348 26.4126 32.2071 26.1341 31.9956 25.4461C31.8583 25.0006 31.9089 24.4724 32.18 24.0826C32.5017 23.6191 33.0474 23.4772 33.6059 23.479C34.0812 23.479 34.5565 23.479 35.0336 23.479H35.0354Z" fill="#0083CB"/>
<path d="M5.96226 26.4738H5.03516V23.5151H5.93877C5.95323 23.5151 5.96046 23.5205 5.96046 23.5349L5.96407 26.4738H5.96226Z" fill="#09428F"/>
<path d="M9.68382 26.4738H8.76033C8.75671 25.8595 8.75671 25.2451 8.76033 24.6307C8.76033 24.3235 8.60129 23.9714 8.25973 23.9661C7.99045 23.9607 7.69406 23.9607 7.37418 23.9625C7.36515 23.9625 7.35611 23.9696 7.35611 23.9804V26.472H6.43262V23.5241C6.43262 23.5241 6.43804 23.5098 6.44708 23.5098C7.029 23.5098 7.62358 23.5098 8.23081 23.5098C8.80009 23.5098 9.49406 23.7092 9.65491 24.3325C9.67659 24.417 9.68744 24.5589 9.68744 24.7619C9.68744 25.3313 9.68744 25.9008 9.68744 26.472L9.68382 26.4738Z" fill="#09428F"/>
<path d="M13.3574 26.4738H12.4321C12.4321 25.8918 12.4321 25.3098 12.4321 24.7277C12.4321 24.4816 12.4122 24.2517 12.2242 24.0846C12.0815 23.9589 11.9405 23.9643 11.7562 23.9625C11.5284 23.9625 11.2971 23.9625 11.0604 23.9661C11.0459 23.9661 11.0369 23.9732 11.0369 23.9894V26.4738H10.1025V23.5259C10.1025 23.5152 10.108 23.5098 10.1188 23.5098C10.6772 23.5098 11.2574 23.5098 11.8592 23.5098C12.5278 23.5098 13.3501 23.7684 13.3537 24.5786C13.3556 25.211 13.3556 25.8415 13.3556 26.4738H13.3574Z" fill="#09428F"/>
<path d="M28.2184 26.4738H27.2931V25.6116C27.2931 25.5936 27.2841 25.5846 27.266 25.5846H25.6684C25.6539 25.5846 25.6377 25.59 25.6268 25.6008L24.669 26.472H23.7383L26.9678 23.5277C26.9805 23.517 26.9967 23.5098 27.013 23.5098H28.2021C28.2112 23.5098 28.2202 23.517 28.2202 23.5277V26.4738H28.2184ZM27.2913 24.117C27.2913 24.117 27.2859 24.1044 27.2786 24.1026C27.275 24.1026 27.2714 24.1026 27.2696 24.1062L26.1708 25.1068C26.1708 25.1068 26.1654 25.1193 26.1708 25.1247C26.1726 25.1283 26.1762 25.1283 26.1798 25.1283H27.2768C27.2768 25.1283 27.2895 25.1211 27.2895 25.1122V24.117H27.2913Z" fill="#0083CB"/>
<g clip-path="url(#clip1_25273_47353)">
<path d="M18.1515 14.0432C19.7529 13.2838 21.347 13.2838 22.9193 14.0432C22.9703 14.068 23.0212 14.068 23.0794 14.0432C26.3477 12.5656 28.8881 14.1175 31.0281 16.9324C31.0427 16.9489 31.0427 16.9819 31.0281 17.0067C28.9172 19.7885 26.3113 21.4147 23.0794 19.8876C23.0358 19.871 22.9994 19.871 22.9557 19.8876C21.347 20.6552 19.7456 20.6635 18.1515 19.8958C18.1151 19.8793 18.0715 19.871 18.0351 19.8793C17.8167 19.9288 17.6129 20.0774 17.3945 20.1434C14.3155 21.1753 11.9789 19.5739 10.05 17.0067C10.0354 16.9901 10.0354 16.9654 10.05 16.9489C12.1391 14.1505 14.7595 12.5491 17.9696 14.0432C18.0278 14.068 18.0933 14.068 18.1515 14.0432ZM15.0216 16.9159C15.582 16.1812 16.2226 15.5043 16.9287 14.8687C16.9651 14.8357 16.9651 14.7861 16.9432 14.7449C16.9359 14.7284 16.9141 14.7201 16.8995 14.7118C14.643 14.0762 12.8961 15.0503 11.2729 16.9159C11.2437 16.9489 11.2437 16.9901 11.2729 17.0232C12.8524 18.8475 14.6067 19.8545 16.9068 19.2272C16.9432 19.2189 16.9578 19.1776 16.9505 19.1446C16.9505 19.1446 16.9505 19.1364 16.9505 19.1281C16.9287 19.0868 16.9068 19.0456 16.8704 19.0208C16.2008 18.4265 15.582 17.7578 15.0216 17.0232C14.9924 16.9901 14.9924 16.9489 15.0216 16.9159ZM19.3963 15.0751C19.7893 15.4135 20.146 15.785 20.4736 16.1894C20.5027 16.2225 20.5463 16.2225 20.5755 16.1894C20.9758 15.7189 21.4125 15.2814 21.8784 14.8769C21.9148 14.8439 21.9221 14.7861 21.893 14.7449C21.8784 14.7284 21.8638 14.7118 21.8493 14.7118C20.9612 14.456 20.0659 14.456 19.1633 14.7118C19.1342 14.7118 19.1197 14.7531 19.1269 14.7861C19.1269 14.7944 19.1269 14.8026 19.1415 14.8109C19.2143 14.9017 19.3016 14.9925 19.389 15.0668L19.3963 15.0751ZM26.0784 16.9984C25.4597 17.7991 24.8119 18.4925 24.1349 19.0703C24.0985 19.1034 24.0912 19.1529 24.1203 19.1942C24.1276 19.2107 24.1495 19.2189 24.164 19.2272C26.4496 19.8628 28.1893 18.864 29.798 17.0314C29.8271 16.9984 29.8271 16.9489 29.798 16.9159C28.2476 15.0916 26.4424 14.0845 24.1567 14.7118C24.1203 14.7201 24.0985 14.7614 24.1058 14.8026C24.1058 14.8274 24.1203 14.8522 24.1422 14.8687C24.8701 15.5126 25.5179 16.1977 26.0784 16.9406C26.093 16.9571 26.093 16.9736 26.0784 16.9901V16.9984ZM16.4119 16.6682C16.2663 16.8003 16.2372 17.0479 16.3536 17.213C16.3682 17.2378 16.39 17.2543 16.4119 17.2791L17.8458 18.5585C17.9696 18.6741 18.1443 18.6741 18.268 18.5585L19.702 17.2708C19.8476 17.1387 19.8767 16.8911 19.7602 16.726C19.7456 16.7012 19.7238 16.6847 19.702 16.66L18.268 15.3805C18.1443 15.2732 17.9696 15.2732 17.8458 15.3805L16.4119 16.6682ZM21.347 16.7012C21.216 16.8251 21.1942 17.0397 21.2961 17.1965C21.3106 17.2213 21.3252 17.2378 21.347 17.2543L22.832 18.5751C22.9411 18.6741 23.1013 18.6741 23.2177 18.5751L24.6954 17.246C24.8264 17.1222 24.8482 16.9076 24.7463 16.7508C24.7318 16.726 24.7172 16.7095 24.6954 16.693L23.2105 15.3722C23.1013 15.2732 22.9411 15.2732 22.8247 15.3722L21.347 16.7012ZM21.9075 19.0868C21.4417 18.6493 20.9904 18.2366 20.5682 17.7496C20.5536 17.7248 20.5172 17.7331 20.5027 17.7496C20.0878 18.2284 19.6365 18.6741 19.1633 19.0786C19.1342 19.1034 19.1269 19.1529 19.1488 19.1859C19.156 19.2024 19.1706 19.2107 19.1852 19.2107C20.1096 19.4748 21.0049 19.4748 21.8857 19.2107C21.9221 19.2024 21.9366 19.1611 21.9294 19.1281C21.9294 19.1116 21.9221 19.1034 21.9075 19.0868Z" fill="url(#paint0_linear_25273_47353)"/>
</g>
</g>
<circle cx="20" cy="20" r="19.5" stroke="black" stroke-opacity="0.05"/>
<defs>
<linearGradient id="paint0_linear_25273_47353" x1="10.0354" y1="16.9736" x2="30.7588" y2="16.9736" gradientUnits="userSpaceOnUse">
<stop offset="0.08" stop-color="#09428F"/>
<stop offset="0.95" stop-color="#00A1E3"/>
</linearGradient>
<clipPath id="clip0_25273_47353">
<rect width="30" height="13" fill="white" transform="translate(5.03516 13.4736)"/>
</clipPath>
<clipPath id="clip1_25273_47353">
<rect width="21" height="7" fill="white" transform="translate(10.0352 13.4736)"/>
</clipPath>
</defs>
</svg>
