<svg width="40" height="40" viewBox="0 0 40 40" fill="none" xmlns="http://www.w3.org/2000/svg">
<circle cx="20" cy="20" r="20" fill="#F6F8FA"/>
<g clip-path="url(#clip0_30798_48515)">
<path d="M17.7704 15.7941C17.7704 16.017 17.6821 16.2307 17.525 16.3883C17.3678 16.5459 17.1547 16.6345 16.9325 16.6345C16.7103 16.6345 16.4972 16.5459 16.3401 16.3883C16.183 16.2307 16.0947 16.017 16.0947 15.7941C16.0947 15.5712 16.183 15.3574 16.3401 15.1998C16.4972 15.0422 16.7103 14.9536 16.9325 14.9536C17.1547 14.9536 17.3678 15.0422 17.525 15.1998C17.6821 15.3574 17.7704 15.5712 17.7704 15.7941ZM17.7113 15.7901C17.7113 15.583 17.6293 15.3844 17.4833 15.238C17.3374 15.0916 17.1394 15.0093 16.933 15.0093C16.7266 15.0093 16.5286 15.0916 16.3826 15.238C16.2367 15.3844 16.1547 15.583 16.1547 15.7901C16.1547 15.9972 16.2367 16.1958 16.3826 16.3422C16.5286 16.4886 16.7266 16.5709 16.933 16.5709C17.1394 16.5709 17.3374 16.4886 17.4833 16.3422C17.6293 16.1958 17.7113 15.9972 17.7113 15.7901Z" fill="black"/>
<path d="M20.4055 16.6366C20.869 16.6366 21.2447 16.2598 21.2447 15.7949C21.2447 15.33 20.869 14.9531 20.4055 14.9531C19.9421 14.9531 19.5664 15.33 19.5664 15.7949C19.5664 16.2598 19.9421 16.6366 20.4055 16.6366Z" fill="#E40716"/>
<path d="M24.7205 15.7941C24.7205 16.017 24.6323 16.2307 24.4752 16.3883C24.318 16.5459 24.1049 16.6345 23.8827 16.6345C23.6605 16.6345 23.4474 16.5459 23.2903 16.3883C23.1332 16.2307 23.0449 16.017 23.0449 15.7941C23.0449 15.5712 23.1332 15.3574 23.2903 15.1998C23.4474 15.0422 23.6605 14.9536 23.8827 14.9536C24.1049 14.9536 24.318 15.0422 24.4752 15.1998C24.6323 15.3574 24.7205 15.5712 24.7205 15.7941ZM24.6606 15.791C24.6606 15.5839 24.5786 15.3853 24.4326 15.2389C24.2867 15.0925 24.0887 15.0102 23.8823 15.0102C23.6759 15.0102 23.4779 15.0925 23.3319 15.2389C23.186 15.3853 23.104 15.5839 23.104 15.791C23.104 15.998 23.186 16.1966 23.3319 16.3431C23.4779 16.4895 23.6759 16.5717 23.8823 16.5717C24.0887 16.5717 24.2867 16.4895 24.4326 16.3431C24.5786 16.1966 24.6606 15.998 24.6606 15.791Z" fill="black"/>
<path d="M16.9336 16.5708C17.3634 16.5708 17.7119 16.2212 17.7119 15.79C17.7119 15.3588 17.3634 15.0093 16.9336 15.0093C16.5037 15.0093 16.1553 15.3588 16.1553 15.79C16.1553 16.2212 16.5037 16.5708 16.9336 16.5708Z" fill="#231C1C"/>
<path d="M23.8818 16.5718C24.3117 16.5718 24.6601 16.2222 24.6601 15.791C24.6601 15.3598 24.3117 15.0103 23.8818 15.0103C23.452 15.0103 23.1035 15.3598 23.1035 15.791C23.1035 16.2222 23.452 16.5718 23.8818 16.5718Z" fill="#231C1C"/>
<path d="M13.4759 18.3479L11.7237 19.1721C11.7477 18.9448 11.7666 18.6889 11.6598 18.4831C11.4696 18.1174 11.1651 17.931 10.7463 17.924C10.4689 17.9196 10.1625 17.9785 9.82712 18.1008C9.26158 18.3074 8.74897 18.6036 8.28931 18.9895C8.2441 19.0276 8.22893 19.0181 8.24381 18.961L8.59074 17.6194C8.59453 17.605 8.60343 17.5952 8.61743 17.59C9.13806 17.4033 9.67239 17.2528 10.2204 17.1384C10.8064 17.0158 11.3829 16.9873 11.9499 17.0528C12.1301 17.0739 12.3177 17.1257 12.5125 17.2082C13.0171 17.4217 13.3382 17.8017 13.4759 18.3479Z" fill="#E40716"/>
<path d="M20.2426 17.0392C20.5285 17.0313 20.7652 17.0301 20.9527 17.0357C20.9594 17.0357 20.9619 17.039 20.9601 17.0458C20.0297 20.7721 19.3732 23.4112 18.9905 24.963C18.8893 25.3726 18.8072 25.6529 18.7442 25.8039C18.5517 26.2665 18.2745 26.659 17.9125 26.9814C17.7083 27.1631 17.4569 27.3029 17.1583 27.4009C17.0956 27.4214 17.0209 27.4355 16.9343 27.4431C16.8415 27.451 16.7652 27.4475 16.7054 27.4325C16.6261 27.4126 16.5777 27.3946 16.5602 27.3786C16.4567 27.2832 16.0429 26.894 15.319 26.2112C15.2948 26.1883 15.2993 26.1774 15.3326 26.1782C15.4793 26.1815 15.6204 26.1804 15.7561 26.1752C15.8523 26.1717 15.9839 26.1455 16.1507 26.0966C16.7124 25.9312 17.132 25.4554 17.2729 24.9024C17.5351 23.8726 18.1001 21.6014 18.9678 18.089C19.0074 17.9289 19.1105 17.7469 19.2771 17.543C19.5212 17.2437 19.8563 17.0502 20.2426 17.0392Z" fill="#E40716"/>
<path d="M22.3771 24.4804L20.9544 24.4795C20.8377 24.4845 20.72 24.4857 20.6013 24.4831C20.5818 24.4825 20.5686 24.4784 20.5619 24.4708C20.5558 24.4637 20.5527 24.455 20.5527 24.4444C20.5529 24.4372 20.5549 24.4301 20.5585 24.424C20.5621 24.4178 20.5672 24.4128 20.5733 24.4093C20.88 24.232 20.995 24.0121 21.0633 23.6536C21.0753 23.5895 21.0878 23.533 21.1009 23.4842C21.1111 23.445 21.1254 23.3884 21.1438 23.3143C21.383 22.3532 21.5995 21.486 21.7935 20.7127C21.7938 20.7107 21.8103 20.6349 21.8429 20.4854C21.8679 20.3717 21.9125 20.2493 21.9374 20.1488C22.0182 19.8211 22.163 19.2344 22.3719 18.3889C22.4436 18.0984 22.5111 17.899 22.5744 17.7907C22.6829 17.604 22.8242 17.4418 22.9984 17.304C23.0961 17.2265 23.2113 17.1602 23.344 17.1052C23.4321 17.0689 23.5607 17.049 23.7299 17.0455C23.8098 17.0437 24.0367 17.0411 24.4106 17.0376C24.414 17.0376 24.4174 17.0383 24.4204 17.0398C24.4235 17.0413 24.4262 17.0434 24.4283 17.0461C24.4304 17.0487 24.4319 17.0518 24.4326 17.0552C24.4333 17.0585 24.4333 17.0619 24.4325 17.0652C23.8497 19.4015 23.2749 21.7136 22.7079 24.0016C22.6971 24.0443 22.6613 24.1374 22.6007 24.2807C22.5546 24.3896 22.4801 24.4561 22.3771 24.4804Z" fill="black"/>
<path d="M13.2734 24.4783C13.262 24.4514 13.2563 24.4282 13.2563 24.4089C13.5623 24.3896 13.7921 24.2723 13.9458 24.057C14.0149 23.9601 14.0816 23.7827 14.1457 23.5246C14.8822 20.5543 15.3184 18.794 15.4543 18.2437C15.4548 18.2417 15.4547 18.2397 15.454 18.2378C15.4533 18.2359 15.4522 18.2343 15.4506 18.233C15.4491 18.2318 15.4472 18.231 15.4452 18.2308C15.4432 18.2306 15.4412 18.2309 15.4394 18.2318L13.4921 19.243C13.4825 19.2479 13.4736 19.2538 13.4654 19.2605L13.4462 19.2763L11.4608 20.2563C10.8337 20.5682 10.3517 20.8127 10.0149 20.9897C9.92299 21.038 9.78752 21.1177 9.60843 21.2289C9.30364 21.4176 9.05631 21.6492 8.86643 21.9236C8.78622 22.0395 8.7257 22.1828 8.68487 22.3537C8.64024 22.5415 8.66591 22.7368 8.76187 22.9396C8.85958 23.147 9.02495 23.2851 9.25799 23.3539C9.72962 23.4926 10.1417 23.3236 10.4327 22.951C10.4601 22.9162 10.4686 22.9203 10.4581 22.9633C10.3983 23.2088 10.3259 23.457 10.2411 23.7081C10.2201 23.7701 10.1648 23.8419 10.0752 23.9235C9.67012 24.2925 9.18406 24.4783 8.61706 24.4809C8.35922 24.4821 8.10504 24.4609 7.85449 24.4173C7.73812 24.3968 7.61197 24.3573 7.47606 24.2988C7.10243 24.1377 6.81237 23.802 6.70649 23.4162C6.64408 23.1892 6.63562 22.9315 6.68112 22.6434C6.77416 22.0544 7.06758 21.5786 7.56137 21.2161C7.75912 21.0713 7.98866 20.9367 8.24999 20.8124C9.40762 20.2617 10.5654 19.7149 11.7233 19.1719L13.4755 18.3477C14.6576 17.7906 15.4523 17.4179 15.8594 17.2294C15.9916 17.1683 16.1321 17.1212 16.2812 17.0881C16.4081 17.06 16.5548 17.0457 16.7213 17.0451C16.8695 17.0445 17.1136 17.0422 17.4537 17.0381C17.4579 17.0381 17.462 17.0391 17.4657 17.0409C17.4695 17.0427 17.4727 17.0454 17.4753 17.0486C17.4779 17.0519 17.4797 17.0557 17.4805 17.0597C17.4814 17.0637 17.4814 17.0679 17.4804 17.0719C16.8536 19.5904 16.365 21.5602 16.0147 22.9813C15.8663 23.5828 15.7595 23.9984 15.6945 24.2281C15.6569 24.3607 15.5813 24.4407 15.4679 24.4682C15.4448 24.4737 15.3452 24.4762 15.1691 24.4756C14.5364 24.4742 13.9045 24.4751 13.2734 24.4783Z" fill="black"/>
<path d="M13.4465 19.2764C13.4491 19.2907 13.4485 19.3052 13.4447 19.3198C13.109 20.6686 12.7729 22.0174 12.4363 23.3662C12.3817 23.5839 12.4227 23.8022 12.5592 24.021C12.7071 24.2577 12.9395 24.387 13.2566 24.409C13.2566 24.4283 13.2623 24.4514 13.2737 24.4783C12.6798 24.4815 12.0864 24.4786 11.4935 24.4695C11.3234 24.4666 11.1836 24.4426 11.0739 24.3976C10.9397 24.3426 10.8352 24.2497 10.7602 24.1189C10.6368 23.9032 10.6045 23.6772 10.6631 23.4408C10.9247 22.3864 11.1907 21.3249 11.4611 20.2564L13.4465 19.2764Z" fill="#E40716"/>
<path d="M27.0247 22.4903C26.7876 22.1412 26.5582 21.7987 26.3365 21.4629C26.3024 21.4111 26.2853 21.4162 26.2853 21.4782V24.0917C26.2853 24.1069 26.2777 24.1145 26.2626 24.1145H25.8106C25.7943 24.1145 25.7861 24.1063 25.7861 24.09V20.6584C25.7861 20.6423 25.7942 20.6343 25.8102 20.6343H26.2792C26.2843 20.6343 26.2893 20.6356 26.2937 20.6381C26.2981 20.6405 26.3019 20.6441 26.3046 20.6483C26.6619 21.1893 27.0216 21.7262 27.3839 22.259C27.621 22.608 27.8504 22.9505 28.0721 23.2864C28.1062 23.3382 28.1233 23.333 28.1233 23.271V20.6575C28.1233 20.6423 28.1308 20.6347 28.146 20.6347H28.5979C28.6143 20.6347 28.6224 20.6429 28.6224 20.6593V24.0908C28.6224 24.1069 28.6144 24.115 28.5984 24.115H28.1294C28.1243 24.1149 28.1193 24.1136 28.1149 24.1111C28.1104 24.1087 28.1067 24.1052 28.104 24.1009C27.7467 23.5602 27.3869 23.0233 27.0247 22.4903Z" fill="#E40716"/>
<path d="M32.4203 21.5094V20.9331C32.4203 20.9159 32.4286 20.9072 32.4452 20.9072H32.9133C32.916 20.9072 32.9186 20.9083 32.9205 20.9102C32.9224 20.9121 32.9234 20.9146 32.9234 20.9173V21.5023C32.9234 21.5196 32.932 21.5282 32.9492 21.5282H33.4322C33.4468 21.5282 33.4541 21.5355 33.4541 21.5502V21.8547C33.4541 21.8697 33.4467 21.8771 33.4318 21.8771H32.9483C32.9317 21.8771 32.9234 21.8855 32.9234 21.9021C32.9234 22.8118 32.9234 23.3166 32.9234 23.4167C32.9239 23.4957 32.9392 23.6041 32.9733 23.6708C32.9937 23.7115 33.0353 23.7426 33.098 23.7643C33.1715 23.7894 33.2642 23.7899 33.3762 23.7656C33.3812 23.7645 33.3863 23.7644 33.3913 23.7654C33.3963 23.7663 33.4011 23.7683 33.4054 23.7711C33.4096 23.7739 33.4133 23.7775 33.4162 23.7818C33.4191 23.786 33.4211 23.7908 33.4222 23.7959L33.4747 24.0509C33.476 24.0578 33.475 24.065 33.4719 24.0713C33.4687 24.0776 33.4635 24.0826 33.4572 24.0855C33.244 24.1835 33.0332 24.1972 32.825 24.1263C32.6937 24.0816 32.5962 24.0108 32.5323 23.9139C32.4605 23.8054 32.4241 23.6825 32.4229 23.5453C32.4194 23.1921 32.4184 22.6453 32.4199 21.9048C32.4201 21.8869 32.4114 21.878 32.3936 21.878H31.9876C31.9809 21.878 31.9775 21.8746 31.9775 21.8679V21.5436C31.9775 21.5331 31.9828 21.5278 31.9933 21.5278H32.4019C32.4142 21.5278 32.4203 21.5216 32.4203 21.5094Z" fill="#E40716"/>
<path d="M29.8845 22.9384C29.8815 22.9384 29.8784 22.939 29.8756 22.9403C29.8728 22.9415 29.8702 22.9432 29.8681 22.9454C29.866 22.9476 29.8643 22.9503 29.8633 22.9531C29.8622 22.956 29.8617 22.9591 29.8618 22.9621C29.8659 23.0648 29.8809 23.1596 29.9068 23.2465C30.0308 23.6602 30.3201 23.8438 30.7748 23.7973C31.019 23.7721 31.2239 23.692 31.3895 23.5568C31.4059 23.5433 31.4194 23.5458 31.4302 23.5643L31.5882 23.8386C31.591 23.8435 31.5919 23.8492 31.5909 23.8549C31.5898 23.8605 31.5869 23.8656 31.5825 23.8693C31.434 23.9936 31.2551 24.0788 31.0457 24.1247C30.7995 24.1785 30.5666 24.186 30.347 24.1471C30.1005 24.1035 29.8966 24.0056 29.7353 23.8535C29.5373 23.6668 29.4155 23.4311 29.37 23.1465C29.356 23.0596 29.3486 22.945 29.3477 22.8028C29.3439 22.3209 29.5259 21.9486 29.8937 21.6859C30.0635 21.5645 30.2557 21.4978 30.4703 21.4858C30.9323 21.4599 31.3309 21.6073 31.5584 22.0335C31.573 22.0604 31.6004 22.1447 31.6407 22.2863C31.6681 22.3814 31.6824 22.4685 31.6835 22.5478C31.6859 22.6848 31.6875 22.8074 31.6883 22.9156C31.6884 22.9186 31.6879 22.9215 31.6867 22.9243C31.6856 22.9271 31.684 22.9296 31.6818 22.9317C31.6797 22.9338 31.6772 22.9355 31.6744 22.9367C31.6716 22.9378 31.6686 22.9384 31.6656 22.9384H29.8845ZM30.0372 22.1401C29.9462 22.2771 29.8946 22.4097 29.8823 22.5382C29.8806 22.556 29.8886 22.565 29.9064 22.565H31.1476C31.1616 22.565 31.169 22.5579 31.1699 22.5439C31.1801 22.3765 31.1476 22.2324 31.0723 22.1116C30.9813 21.9659 30.8421 21.8813 30.6545 21.8579C30.39 21.8249 30.1842 21.9189 30.0372 22.1401Z" fill="#E40716"/>
</g>
<circle cx="20" cy="20" r="19.5" stroke="black" stroke-opacity="0.05"/>
<defs>
<clipPath id="clip0_30798_48515">
<rect width="28" height="14" fill="white" transform="translate(6 14)"/>
</clipPath>
</defs>
</svg>
