<svg width="40" height="40" viewBox="0 0 40 40" fill="none" xmlns="http://www.w3.org/2000/svg">
<circle cx="20" cy="20" r="20" fill="#F6F8FA"/>
<g clip-path="url(#clip0_36410_73967)">
<path d="M9.97112 20.8784L9.13379 20.8834" stroke="#074C99" stroke-width="2"/>
<path d="M34.1461 18L34.1515 18.5983C34.1517 18.6101 34.1495 18.6217 34.1448 18.6326C34.1402 18.6436 34.1333 18.6535 34.1245 18.6619C34.1157 18.6703 34.1053 18.6769 34.0937 18.6815C34.0822 18.686 34.0698 18.6883 34.0573 18.6883H30.5853C30.5598 18.6883 30.5354 18.6789 30.5174 18.662C30.4994 18.6451 30.4893 18.6222 30.4893 18.5983L30.4928 18H34.1461Z" fill="#0078E2"/>
<path d="M8.37689 23.0001H6.78578L5.11289 20.1618C5.09887 20.1376 5.07663 20.1186 5.04971 20.1076C5.0228 20.0967 4.99275 20.0945 4.96434 20.1014C4.93594 20.1083 4.91081 20.1239 4.89295 20.1457C4.87509 20.1675 4.86553 20.1943 4.86578 20.2218L4.86222 23.0001H4V19.4601L5.51111 19.4401C5.5396 19.4397 5.56774 19.4465 5.59249 19.46C5.61724 19.4736 5.63766 19.4932 5.65156 19.5168C5.84119 19.8401 6.38044 20.7551 7.26933 22.2618C7.28711 22.2918 7.30667 22.3101 7.328 22.3168C7.35005 22.324 7.37363 22.3262 7.39675 22.323C7.41986 22.3199 7.44184 22.3116 7.46084 22.2989C7.47983 22.2862 7.49528 22.2693 7.50589 22.2498C7.51649 22.2303 7.52194 22.2087 7.52178 22.1868L7.52 19.4818C7.52 19.4703 7.52487 19.4593 7.53354 19.4512C7.54221 19.443 7.55396 19.4385 7.56622 19.4385H8.33067C8.3372 19.4385 8.34368 19.4397 8.34972 19.442C8.35575 19.4444 8.36124 19.4478 8.36586 19.4521C8.37049 19.4565 8.37415 19.4616 8.37666 19.4673C8.37916 19.4729 8.38044 19.479 8.38044 19.4851L8.37689 23.0001Z" fill="#0E2050"/>
<path d="M9.97112 20.8782L9.13379 20.8832L9.13557 19.5265C9.13557 19.5027 9.14549 19.4798 9.16316 19.4629C9.18083 19.446 9.2048 19.4365 9.22979 19.4365H12.7018C12.7244 19.4365 12.7461 19.445 12.7621 19.46C12.7781 19.475 12.7871 19.4953 12.7871 19.5165V20.0515C12.7871 20.0714 12.7787 20.0905 12.7637 20.1046C12.7487 20.1186 12.7283 20.1265 12.7071 20.1265H10.0991C10.0729 20.1265 10.0476 20.1361 10.0287 20.1532C10.0098 20.1703 9.99871 20.1936 9.99779 20.2182L9.97112 20.8782Z" fill="#0E2050"/>
<path d="M18.5703 22.9999H17.0468L16.3766 20.1699C16.3741 20.1586 16.3683 20.1483 16.3599 20.1399C16.3515 20.1316 16.3408 20.1256 16.329 20.1227C16.3172 20.1198 16.3047 20.12 16.293 20.1233C16.2813 20.1266 16.2709 20.1329 16.2628 20.1415C16.2296 20.1771 16.2047 20.2304 16.1881 20.3015C15.9819 21.2026 15.7727 22.1021 15.5606 22.9999H14.0406L13.2032 19.4815C13.2019 19.4763 13.2018 19.4708 13.203 19.4656C13.2043 19.4603 13.2068 19.4554 13.2104 19.4512C13.2141 19.447 13.2187 19.4436 13.2239 19.4414C13.2291 19.4391 13.2348 19.438 13.2406 19.4382H13.9943C14.0091 19.4381 14.0233 19.4426 14.0346 19.4508C14.0459 19.459 14.0537 19.4704 14.0566 19.4832L14.7161 22.2565C14.7193 22.2695 14.7253 22.2816 14.7339 22.2922C14.7425 22.3027 14.7534 22.3114 14.7658 22.3178C14.7783 22.3241 14.792 22.3278 14.8061 22.3287C14.8202 22.3297 14.8344 22.3278 14.8477 22.3232C14.8654 22.3165 14.885 22.3015 14.9063 22.2782C14.9241 22.2593 14.936 22.2371 14.9419 22.2115C15.0995 21.566 15.3111 20.6782 15.5766 19.5482C15.5842 19.5164 15.6032 19.4881 15.6303 19.4678C15.6575 19.4475 15.6912 19.4365 15.7259 19.4365H16.8903C16.9232 19.4365 16.9551 19.4469 16.9806 19.466C17.0062 19.4851 17.0239 19.5118 17.0308 19.5415C17.1943 20.2271 17.3988 21.0882 17.6441 22.1249C17.6619 22.2015 17.6909 22.261 17.7312 22.3032C17.7426 22.3148 17.7571 22.3234 17.7732 22.3278C17.7893 22.3323 17.8064 22.3326 17.8226 22.3287C17.8389 22.3247 17.8537 22.3167 17.8655 22.3055C17.8773 22.2942 17.8856 22.2802 17.8894 22.2649L18.5526 19.4865C18.5561 19.4727 18.5646 19.4604 18.5765 19.4517C18.5884 19.4429 18.6032 19.4382 18.6183 19.4382H19.365C19.3712 19.4381 19.3774 19.4392 19.383 19.4417C19.3887 19.4441 19.3936 19.4477 19.3976 19.4522C19.4015 19.4567 19.4043 19.462 19.4058 19.4676C19.4072 19.4733 19.4072 19.4792 19.4059 19.4849L18.5703 22.9999Z" fill="#0E2050"/>
<path d="M23.404 19.4365H19.8555C19.8231 19.4365 19.7969 19.4611 19.7969 19.4915V20.0715C19.7969 20.1019 19.8231 20.1265 19.8555 20.1265H23.404C23.4364 20.1265 23.4627 20.1019 23.4627 20.0715V19.4915C23.4627 19.4611 23.4364 19.4365 23.404 19.4365Z" fill="#0078E2"/>
<path d="M28.5799 22.9999H26.9852L25.3035 20.1633C25.2901 20.1401 25.269 20.1218 25.2433 20.1113C25.2176 20.1009 25.1888 20.0988 25.1615 20.1055C25.1342 20.1122 25.11 20.1272 25.0925 20.1483C25.0751 20.1693 25.0655 20.1951 25.0652 20.2216L25.0635 22.9999H24.2119L24.2137 19.5366C24.2137 19.511 24.2246 19.4864 24.2439 19.4683C24.2632 19.4501 24.2895 19.4399 24.3168 19.4399H25.6999C25.7328 19.4399 25.765 19.448 25.7931 19.4632C25.8213 19.4784 25.8443 19.5003 25.8599 19.5266C26.7204 20.9955 27.2578 21.9022 27.4724 22.2466C27.5032 22.2955 27.5494 22.3233 27.611 22.3299C27.6256 22.3316 27.6403 22.3303 27.6543 22.3262C27.6683 22.3221 27.6812 22.3153 27.6921 22.3061C27.7031 22.297 27.7118 22.2857 27.7177 22.2732C27.7237 22.2606 27.7267 22.247 27.7266 22.2333V19.4916C27.7266 19.4779 27.7324 19.4648 27.7427 19.4551C27.7531 19.4454 27.7671 19.4399 27.7817 19.4399H28.5177C28.5261 19.4399 28.5344 19.4415 28.5422 19.4444C28.5499 19.4473 28.557 19.4516 28.5629 19.457C28.5689 19.4624 28.5736 19.4689 28.5768 19.476C28.58 19.483 28.5817 19.4906 28.5817 19.4983L28.5799 22.9999Z" fill="#0E2050"/>
<path d="M34.715 22.9999H33.8279L33.5613 22.3082C33.5514 22.2823 33.5331 22.26 33.5089 22.2441C33.4847 22.2283 33.4558 22.2199 33.4261 22.2199H31.1933C31.1641 22.22 31.1356 22.2285 31.1117 22.2443C31.0879 22.2601 31.0698 22.2824 31.0599 22.3082L30.8021 22.9999H29.915L31.2839 19.5199C31.2934 19.4955 31.3108 19.4744 31.3337 19.4595C31.3566 19.4446 31.3839 19.4366 31.4119 19.4365H33.195C33.229 19.4366 33.2621 19.4464 33.2898 19.4646C33.3174 19.4828 33.3384 19.5085 33.3497 19.5382L34.715 22.9999ZM33.1879 21.5299C33.1973 21.5298 33.2065 21.5277 33.2148 21.5236C33.2231 21.5196 33.2303 21.5137 33.2357 21.5065C33.2411 21.4994 33.2446 21.4911 33.2458 21.4824C33.2471 21.4737 33.2462 21.4648 33.243 21.4565L32.7453 20.1615C32.7412 20.1508 32.7338 20.1416 32.7239 20.135C32.714 20.1284 32.7022 20.1249 32.6902 20.1249H31.9364C31.9243 20.1249 31.9125 20.1284 31.9026 20.135C31.8928 20.1416 31.8853 20.1508 31.8813 20.1615L31.3817 21.4565C31.3786 21.4648 31.3776 21.4737 31.3789 21.4824C31.3802 21.4911 31.3837 21.4994 31.3891 21.5065C31.3945 21.5137 31.4016 21.5196 31.4099 21.5236C31.4182 21.5277 31.4274 21.5298 31.4368 21.5299H33.1879Z" fill="#0E2050"/>
<path d="M35.9996 19.4852V19.7002V22.8685V23.0002H35.1143L35.1178 19.5268C35.1178 19.5155 35.1203 19.5042 35.1251 19.4938C35.1298 19.4833 35.1369 19.4739 35.1457 19.4661C35.1545 19.4583 35.165 19.4522 35.1764 19.4484C35.1878 19.4445 35.1999 19.4428 35.212 19.4435L35.9996 19.4852Z" fill="#0E2050"/>
<path d="M9.97175 20.8784H12.7326C12.7396 20.8784 12.7466 20.8797 12.753 20.8821C12.7595 20.8845 12.7654 20.8881 12.7703 20.8926C12.7753 20.8971 12.7792 20.9024 12.7819 20.9083C12.7846 20.9141 12.786 20.9204 12.786 20.9268V21.5134C12.786 21.52 12.7846 21.5265 12.7819 21.5326C12.7792 21.5386 12.7753 21.5441 12.7703 21.5488C12.7654 21.5534 12.7595 21.5571 12.753 21.5596C12.7466 21.5621 12.7396 21.5634 12.7326 21.5634H9.22864C9.2027 21.5634 9.17783 21.5538 9.1595 21.5366C9.14116 21.5194 9.13086 21.4961 9.13086 21.4718L9.13441 20.8834L9.97175 20.8784Z" fill="#0078E2"/>
<path d="M23.4591 23H19.8164L19.82 20.9667C19.82 20.9424 19.8303 20.919 19.8486 20.9018C19.8669 20.8847 19.8918 20.875 19.9177 20.875H23.4164C23.4296 20.875 23.4423 20.8799 23.4516 20.8887C23.4609 20.8974 23.4662 20.9093 23.4662 20.9217V21.5033C23.4662 21.511 23.4646 21.5186 23.4614 21.5257C23.4583 21.5327 23.4537 21.5392 23.448 21.5446C23.4422 21.55 23.4353 21.5543 23.4278 21.5572C23.4202 21.5602 23.4121 21.5617 23.404 21.5617H20.7373C20.7184 21.5617 20.7003 21.5687 20.687 21.5812C20.6737 21.5937 20.6662 21.6107 20.6662 21.6283V22.245C20.6662 22.2627 20.6739 22.2796 20.6875 22.2921C20.7012 22.3046 20.7197 22.3117 20.7391 22.3117H23.3542C23.3811 22.3117 23.4068 22.3217 23.4258 22.3395C23.4448 22.3573 23.4555 22.3815 23.4555 22.4067L23.4591 23Z" fill="#0E2050"/>
<path d="M12.7836 22.9999H9.14447L9.13381 22.4015C9.13357 22.3898 9.13588 22.3781 9.1406 22.3672C9.14531 22.3563 9.15235 22.3464 9.16129 22.338C9.17022 22.3296 9.18089 22.323 9.19265 22.3184C9.20442 22.3139 9.21705 22.3115 9.22981 22.3115H12.6894C12.7148 22.3115 12.7392 22.3208 12.7572 22.3374C12.7752 22.354 12.7854 22.3764 12.7854 22.3999L12.7836 22.9999Z" fill="#0E2050"/>
</g>
<circle cx="20" cy="20" r="19.5" stroke="black" stroke-opacity="0.05"/>
<defs>
<clipPath id="clip0_36410_73967">
<rect width="32" height="5" fill="white" transform="translate(4 18)"/>
</clipPath>
</defs>
</svg>
