<svg width="40" height="40" viewBox="0 0 40 40" fill="none" xmlns="http://www.w3.org/2000/svg">
<circle cx="20" cy="20" r="20" fill="#F6F8FA"/>
<g clip-path="url(#clip0_40531_76187)">
<path fill-rule="evenodd" clip-rule="evenodd" d="M26.1579 19.4121L27.0259 24.1168C27.0259 24.1168 27.0414 24.1392 27.0414 24.1615C27.0414 24.3476 26.5376 24.5114 25.9099 24.5114C25.2821 24.5114 24.7861 24.3476 24.7861 24.1615V24.1168L25.6541 19.4121C25.8246 19.427 25.9951 19.427 26.1579 19.4121Z" fill="#1B8E9C"/>
<path fill-rule="evenodd" clip-rule="evenodd" d="M25.9014 19.0846C26.5059 19.0846 26.9941 18.6156 26.9941 18.035C26.9941 17.4543 26.5059 16.9854 25.9014 16.9854C25.2968 16.9854 24.8086 17.4543 24.8086 18.035C24.8086 18.6156 25.2968 19.0846 25.9014 19.0846Z" fill="#1B8E9C"/>
<path d="M26.9166 22.025L29.9934 23.4766C30.0864 23.5139 30.1639 23.5809 30.2104 23.6702C30.2337 23.7223 30.2492 23.7744 30.2492 23.834C30.2492 23.8861 30.2337 23.9382 30.2104 23.9828C30.1407 24.1019 30.0322 24.1987 29.8927 24.2508L26.4749 25.8662C26.3121 25.9407 26.1261 25.9853 25.9401 25.9928C25.7619 26.0077 25.5836 25.9853 25.4209 25.9109L21.7938 24.2062C21.7008 24.1615 21.6233 24.0945 21.5768 24.0052C21.5536 23.9531 21.5381 23.901 21.5381 23.8414C21.5458 23.7893 21.5613 23.7372 21.5846 23.6925C21.6543 23.5734 21.7628 23.4766 21.9023 23.4245L24.8706 22.0176L24.7776 22.5312L22.0806 23.7967C22.0806 23.7967 22.0341 23.834 22.0108 23.8414L25.6069 25.5387C25.6999 25.5759 25.8084 25.5908 25.9091 25.5759C26.0331 25.5759 26.1571 25.5461 26.2734 25.494L29.6912 23.8786C29.6912 23.8786 29.7377 23.8488 29.7609 23.834L26.9941 22.5312L26.9011 22.0176L26.9166 22.025Z" fill="#1B8E9C"/>
<path fill-rule="evenodd" clip-rule="evenodd" d="M31.9078 16.4268L32.7758 21.1315C32.7758 21.1315 32.7913 21.1687 32.7913 21.1761C32.7913 21.3622 32.2876 21.526 31.6521 21.526C31.0166 21.526 30.5283 21.3622 30.5283 21.1761V21.1315L31.3963 16.4268C31.5668 16.4565 31.7373 16.4565 31.9001 16.4268H31.9078Z" fill="#1B8E9C"/>
<path fill-rule="evenodd" clip-rule="evenodd" d="M31.6523 16.0993C32.2568 16.0993 32.7451 15.6303 32.7451 15.0496C32.7451 14.469 32.2568 14 31.6523 14C31.0478 14 30.5596 14.469 30.5596 15.0496C30.5596 15.6303 31.0478 16.0993 31.6523 16.0993Z" fill="#1B8E9C"/>
<path d="M32.6676 19.0397L35.7444 20.4913C35.8374 20.5285 35.9149 20.5955 35.9614 20.6848C35.9846 20.7369 36.0001 20.7891 36.0001 20.8486C36.0001 20.9007 35.9846 20.9528 35.9614 20.9975C35.8916 21.1166 35.7831 21.2134 35.6436 21.2655L32.2104 22.8809C32.0476 22.9553 31.8693 23 31.6911 23.0074C31.5128 23.0223 31.3346 23 31.1718 22.9255L27.5448 21.2208C27.4518 21.1761 27.3743 21.1091 27.3278 21.0198C27.3046 20.9752 27.2891 20.923 27.2891 20.8709C27.2891 20.8114 27.3046 20.7593 27.3356 20.7072C27.4053 20.5881 27.5138 20.4987 27.6378 20.4392L30.6216 19.0322L30.5286 19.5459L27.8316 20.8263L27.7618 20.8635L31.3656 22.5608C31.4586 22.598 31.5671 22.6129 31.6678 22.598C31.7918 22.598 31.9158 22.5682 32.0321 22.5161L35.4499 20.9007C35.4499 20.9007 35.5041 20.8784 35.5196 20.856L32.7529 19.5533L32.6599 19.0397H32.6676Z" fill="#1B8E9C"/>
<path fill-rule="evenodd" clip-rule="evenodd" d="M20.4069 16.4268L21.2749 21.1315C21.2749 21.1315 21.2904 21.1612 21.2904 21.1761C21.2904 21.3622 20.7867 21.526 20.1589 21.526C19.5312 21.526 19.0352 21.3622 19.0352 21.1761C19.0352 21.1612 19.0352 21.1464 19.0507 21.1315L19.9109 16.4268C19.9962 16.4416 20.0814 16.4491 20.1667 16.4491C20.2519 16.4491 20.3372 16.4416 20.4224 16.4268H20.4069Z" fill="#1B8E9C"/>
<path fill-rule="evenodd" clip-rule="evenodd" d="M20.1514 16.0993C20.7559 16.0993 21.2519 15.6377 21.2519 15.0571C21.2597 14.4764 20.7714 14 20.1669 14C19.5624 14 19.0664 14.4615 19.0664 15.0422C19.0664 15.6228 19.5547 16.0918 20.1514 16.0993Z" fill="#1B8E9C"/>
<path d="M21.1745 19.0397L24.2435 20.4913C24.3365 20.5285 24.414 20.5955 24.4605 20.6848C24.4838 20.7369 24.4993 20.7891 24.4993 20.8486C24.4993 20.9007 24.4838 20.9528 24.4605 20.9975C24.3908 21.1166 24.2823 21.2134 24.1428 21.2655L20.725 22.8809C20.5623 22.9553 20.3763 23 20.1903 23.0074C20.012 23.0223 19.8338 23 19.671 22.9255L16.044 21.2208C15.951 21.1836 15.8812 21.1091 15.8425 21.0198C15.8115 20.9752 15.796 20.923 15.8037 20.8709C15.8037 20.8114 15.8192 20.7593 15.8425 20.7072C15.9122 20.5881 16.0207 20.4913 16.1602 20.4392L19.1285 19.0322L19.0355 19.5459L16.3385 20.8263C16.3385 20.8263 16.2997 20.8486 16.2765 20.8635L19.8648 22.5608C19.9578 22.598 20.0663 22.6129 20.167 22.598C20.291 22.598 20.415 22.5682 20.5313 22.5161L23.949 20.9007C23.949 20.9007 24.0033 20.8784 24.0188 20.856L21.252 19.5533L21.1668 19.0397H21.1745Z" fill="#1B8E9C"/>
<path fill-rule="evenodd" clip-rule="evenodd" d="M14.687 19.4121L15.555 24.1168V24.1615C15.555 24.3476 15.0513 24.5114 14.4313 24.5114C13.8112 24.5114 13.292 24.3476 13.292 24.1615C13.292 24.1392 13.292 24.1243 13.3075 24.1168L14.1755 19.4121C14.2607 19.4196 14.346 19.427 14.4313 19.427C14.5165 19.427 14.6018 19.427 14.687 19.4121Z" fill="#1B8E9C"/>
<path fill-rule="evenodd" clip-rule="evenodd" d="M14.4394 19.0842C15.0439 19.0842 15.5321 18.6078 15.5244 18.0271C15.5166 17.4465 15.0284 16.9775 14.4239 16.985C13.8271 16.985 13.3389 17.4539 13.3389 18.0271C13.3389 18.6078 13.8349 19.0842 14.4394 19.0842Z" fill="#1B8E9C"/>
<path d="M15.4548 22.025L18.5315 23.4766C18.6245 23.5213 18.7021 23.5883 18.7486 23.6702C18.7718 23.7223 18.7873 23.7744 18.7873 23.834C18.7796 23.8861 18.7641 23.9382 18.7408 23.9828C18.6711 24.1019 18.5626 24.1987 18.423 24.2508L15.0053 25.8662C14.8425 25.9407 14.6565 25.9853 14.4705 25.9928C14.3 26.0077 14.1218 25.9853 13.9668 25.9109L10.3397 24.2062C10.2467 24.1689 10.1692 24.1019 10.1227 24.0052C10.0995 23.9531 10.084 23.901 10.084 23.8414C10.084 23.7893 10.0995 23.7372 10.1227 23.6925C10.1925 23.5734 10.301 23.4766 10.4405 23.4245L13.4088 22.0176L13.3235 22.5312L10.6265 23.7967C10.6265 23.7967 10.58 23.8265 10.5567 23.8414L14.145 25.5387C14.238 25.5759 14.3465 25.5908 14.4473 25.5759C14.5713 25.5759 14.6953 25.5461 14.8115 25.494L18.2448 23.8786C18.2448 23.8786 18.2913 23.8414 18.3145 23.834L15.5478 22.5312L15.447 22.0176L15.4548 22.025Z" fill="#1B8E9C"/>
<path fill-rule="evenodd" clip-rule="evenodd" d="M8.60321 16.4268L9.47121 21.1315C9.47121 21.1315 9.48671 21.1612 9.48671 21.1761C9.48671 21.3622 8.98296 21.526 8.3552 21.526C7.72745 21.526 7.23145 21.3622 7.23145 21.1761V21.1315L8.09945 16.4268C8.26995 16.4565 8.44045 16.4565 8.60321 16.4268Z" fill="#1B8E9C"/>
<path fill-rule="evenodd" clip-rule="evenodd" d="M8.34764 16.0993C8.95215 16.0993 9.4404 15.6303 9.4404 15.0496C9.4404 14.469 8.95215 14 8.34764 14C7.74314 14 7.25488 14.469 7.25488 15.0496C7.25488 15.6303 7.74314 16.0993 8.34764 16.0993Z" fill="#1B8E9C"/>
<path d="M9.36304 19.0397L12.4398 20.4913C12.5328 20.5285 12.6103 20.5955 12.6568 20.6848C12.6801 20.7369 12.6956 20.7891 12.6956 20.8486C12.6956 20.9007 12.6801 20.9528 12.6568 20.9975C12.5871 21.1166 12.4786 21.2134 12.3391 21.2655L8.92129 22.8809C8.75854 22.9553 8.57254 23 8.38653 23.0074C8.20828 23.0223 8.03003 23 7.86728 22.9255L4.25575 21.2208C4.16275 21.1761 4.08525 21.1091 4.03875 21.0198C4.0155 20.9752 4 20.923 4 20.8709C4 20.8114 4.02325 20.7593 4.0465 20.7072C4.11625 20.5881 4.22475 20.4987 4.34875 20.4392L7.33253 19.0322L7.23953 19.5459L4.5425 20.8263L4.47275 20.8635L8.06878 22.5608C8.16178 22.598 8.27028 22.6129 8.37103 22.598C8.49504 22.598 8.61904 22.5682 8.73529 22.5161L12.1531 20.9007C12.1531 20.9007 12.2073 20.8784 12.2228 20.856L9.45604 19.5533L9.36304 19.0397Z" fill="#1B8E9C"/>
</g>
<circle cx="20" cy="20" r="19.5" stroke="black" stroke-opacity="0.05"/>
<defs>
<clipPath id="clip0_40531_76187">
<rect width="32" height="12" fill="white" transform="translate(4 14)"/>
</clipPath>
</defs>
</svg>
