<svg width="40" height="40" viewBox="0 0 40 40" fill="none" xmlns="http://www.w3.org/2000/svg">
<circle cx="20" cy="20" r="20" fill="#760000"/>
<path fill-rule="evenodd" clip-rule="evenodd" d="M11.0903 22.483H8.49493V20.6966H11.0903C11.7896 20.6966 12.2618 21.0969 12.2618 21.5896C12.2618 22.0835 11.7896 22.483 11.0903 22.483ZM12.878 20.0016C13.4932 19.7621 14.0042 19.2216 14.0042 18.3297C14.0042 16.9988 12.7856 16.1914 11.3174 16.1914H6.78053C6.73628 16.1914 6.70001 16.2257 6.70001 16.2676V17.4768C6.70001 17.5179 6.73628 17.5512 6.78053 17.5512H11.0029C11.6852 17.5512 12.1454 17.942 12.1454 18.4225C12.1454 18.9041 11.6852 19.2942 11.0029 19.2942H8.49459V18.3961C8.49459 18.3546 8.45833 18.3206 8.41408 18.3206H6.78053C6.73628 18.3206 6.70001 18.3546 6.70001 18.3961V23.7344C6.70001 23.7763 6.73628 23.8103 6.78053 23.8103H11.2521C12.9234 23.8103 14.1199 23.0795 14.1199 21.5896C14.1199 20.8581 13.6593 20.2523 12.878 20.0016ZM31.6328 17.5512H32.3165C32.3611 17.5512 32.3967 17.518 32.3967 17.4764V16.2677C32.3967 16.2258 32.3611 16.1914 32.3165 16.1914H31.3561C30.2459 16.1914 29.6566 16.5245 29.3203 17.2326L27.2323 22.0282C27.1054 22.3144 26.9226 22.4502 26.5628 22.4502V16.2677C26.5628 16.2258 26.5266 16.1914 26.4816 16.1914H24.9474C24.9028 16.1914 24.8658 16.2258 24.8658 16.2677V23.6766C24.8658 23.7503 24.9304 23.8103 25.0094 23.8103H26.73C27.8402 23.8103 28.348 23.4769 28.6842 22.771L30.7453 18.0349C30.9107 17.699 31.1483 17.5512 31.6328 17.5512ZM30.5904 20.5686L33.2207 23.7238C33.2533 23.7617 33.2308 23.8105 33.1771 23.8105H31.3238C31.1856 23.8105 31.0931 23.7711 31.0126 23.6714L29.8622 22.2249C29.8549 22.2166 29.8549 22.2054 29.8582 22.1949L30.5669 20.5711C30.5716 20.5613 30.5825 20.5588 30.5904 20.5686ZM17.0015 18.3205H15.4648C15.4202 18.3205 15.3843 18.3548 15.3843 18.3963V23.7342C15.3843 23.7765 15.4202 23.8105 15.4648 23.8105H17.0015C17.0461 23.8105 17.0824 23.7765 17.0824 23.7342V18.3963C17.0824 18.3548 17.0461 18.3205 17.0015 18.3205ZM21.7854 16.1914H23.321C23.3652 16.1914 23.4011 16.2257 23.4011 16.2676V23.6766C23.4011 23.7503 23.338 23.8103 23.2593 23.8103H21.538C20.4275 23.8103 19.9204 23.4768 19.5842 22.7709L17.523 18.0353C17.3569 17.6989 17.1197 17.5512 16.6352 17.5512H15.4648C15.4202 17.5512 15.3843 17.5179 15.3843 17.4768V16.2676C15.3843 16.2257 15.4202 16.1914 15.4648 16.1914H16.9119C18.0225 16.1914 18.6115 16.5245 18.9473 17.2325L21.0368 22.0282C21.1633 22.3143 21.3451 22.4501 21.7052 22.4501V16.2676C21.7052 16.2257 21.7411 16.1914 21.7854 16.1914Z" fill="white"/>
<circle cx="20" cy="20" r="19.5" stroke="black" stroke-opacity="0.05"/>
</svg>
