<svg width="40" height="40" viewBox="0 0 40 40" fill="none" xmlns="http://www.w3.org/2000/svg">
<circle cx="20" cy="20" r="20" fill="#F6F8FA"/>
<g clip-path="url(#clip0_36410_74136)">
<path d="M17.9821 17H17.6025V17.3889H17.9821V17Z" fill="#651B4E"/>
<path d="M18.53 17H18.1504V17.3889H18.53V17Z" fill="#8E1852"/>
<path d="M19.07 17H18.6904V17.3889H19.07V17Z" fill="#A43858"/>
<path d="M19.6023 17H19.2227V17.3889H19.6023V17Z" fill="#B33449"/>
<path d="M20.1335 17H19.7539V17.3889H20.1335V17Z" fill="#B33449"/>
<path d="M20.6648 17H20.2852V17.3889H20.6648V17Z" fill="#DE5916"/>
<path d="M21.196 17H20.8164V17.3889H21.196V17Z" fill="#CB2A22"/>
<path d="M21.7195 17H21.3398V17.3889H21.7195V17Z" fill="#BD1759"/>
<path d="M17.9821 17.5532H17.6025V17.9421H17.9821V17.5532Z" fill="#651B4E"/>
<path d="M18.53 17.5532H18.1504V17.9421H18.53V17.5532Z" fill="#8E1852"/>
<path d="M19.07 17.5532H18.6904V17.9421H19.07V17.5532Z" fill="#A43858"/>
<path d="M19.6023 17.5532H19.2227V17.9421H19.6023V17.5532Z" fill="#B33449"/>
<path d="M19.6023 18.106H19.2227V18.4948H19.6023V18.106Z" fill="#DC501D"/>
<path d="M19.6023 18.6592H19.2227V19.0481H19.6023V18.6592Z" fill="#DD822B"/>
<path d="M19.6023 19.2124H19.2227V19.6013H19.6023V19.2124Z" fill="#F3CD26"/>
<path d="M19.6023 19.7656H19.2227V20.1545H19.6023V19.7656Z" fill="#BBD21F"/>
<path d="M19.6023 20.3184H19.2227V20.7072H19.6023V20.3184Z" fill="#FB991E"/>
<path d="M19.6023 20.8716H19.2227V21.2605H19.6023V20.8716Z" fill="#EA6D1D"/>
<path d="M19.6023 21.3989H19.2227V21.7878H19.6023V21.3989Z" fill="#D2331D"/>
<path d="M19.6023 21.9517H19.2227V22.3405H19.6023V21.9517Z" fill="#B9114C"/>
<path d="M19.6023 22.4961H19.2227V22.885H19.6023V22.4961Z" fill="#651B4E"/>
<path d="M19.6023 23.0493H19.2227V23.4382H19.6023V23.0493Z" fill="#2E1D49"/>
<path d="M19.6023 23.6113H19.2227V24.0002H19.6023V23.6113Z" fill="#0C3853"/>
<path d="M20.1335 18.106H19.7539V18.4948H20.1335V18.106Z" fill="#DC501D"/>
<path d="M20.1335 18.6592H19.7539V19.0481H20.1335V18.6592Z" fill="#DD822B"/>
<path d="M20.1335 19.2124H19.7539V19.6013H20.1335V19.2124Z" fill="#F3CD26"/>
<path d="M20.1335 19.7656H19.7539V20.1545H20.1335V19.7656Z" fill="#BBD21F"/>
<path d="M20.1335 20.3184H19.7539V20.7072H20.1335V20.3184Z" fill="#FB991E"/>
<path d="M20.1335 20.8716H19.7539V21.2605H20.1335V20.8716Z" fill="#EA6D1D"/>
<path d="M20.1335 21.3989H19.7539V21.7878H20.1335V21.3989Z" fill="#D2331D"/>
<path d="M20.1335 21.9517H19.7539V22.3405H20.1335V21.9517Z" fill="#B9114C"/>
<path d="M20.1335 22.4961H19.7539V22.885H20.1335V22.4961Z" fill="#651B4E"/>
<path d="M20.1335 23.0493H19.7539V23.4382H20.1335V23.0493Z" fill="#2E1D49"/>
<path d="M20.1335 23.6113H19.7539V24.0002H20.1335V23.6113Z" fill="#0C3853"/>
<path d="M20.1335 17.5532H19.7539V17.9421H20.1335V17.5532Z" fill="#B33449"/>
<path d="M20.6648 17.5532H20.2852V17.9421H20.6648V17.5532Z" fill="#DE5916"/>
<path d="M21.196 17.5532H20.8164V17.9421H21.196V17.5532Z" fill="#CB2A22"/>
<path d="M21.7195 17.5532H21.3398V17.9421H21.7195V17.5532Z" fill="#BD1759"/>
<path d="M3 23.9049V18.7456H4.40034C4.98241 18.7456 5.41263 18.8493 5.70788 19.0481C6.12967 19.3333 6.34056 19.7481 6.34056 20.2925C6.34056 20.7851 6.16341 21.174 5.80067 21.4505C5.61509 21.5975 5.39576 21.7012 5.14268 21.7617C5.00771 21.7876 4.80525 21.8049 4.53531 21.8135H3.49771V23.9049H3ZM3.49771 21.3555H4.44252C4.87274 21.3555 5.18486 21.2863 5.38732 21.1481C5.68257 20.9493 5.83442 20.6641 5.83442 20.2925C5.83442 19.8518 5.63196 19.5407 5.23548 19.3505C5.02458 19.2468 4.68715 19.2036 4.23162 19.2123H3.49771V21.3555Z" fill="#183857"/>
<path d="M9.39414 21.9863L10.8029 23.9135H10.1702L8.49151 21.5802C8.55056 21.5802 8.60961 21.5802 8.66867 21.5802C8.96392 21.5802 9.16638 21.5802 9.2676 21.5629C9.4785 21.537 9.66409 21.4851 9.80749 21.3987C9.97621 21.3036 10.1112 21.174 10.2124 21.0098C10.3221 20.8283 10.3811 20.6296 10.3811 20.4135C10.3811 20.1975 10.3305 20.0073 10.2208 19.8259C10.1196 19.6617 9.99308 19.5234 9.8328 19.4283C9.62191 19.3073 9.30135 19.2382 8.86269 19.2296H7.9938V23.9221H7.49609V18.7456H8.75302C9.16638 18.7456 9.4785 18.7715 9.69783 18.832C9.79906 18.858 9.89185 18.8925 9.98464 18.9357C10.2462 19.0654 10.4486 19.2468 10.6089 19.4975C10.786 19.774 10.8704 20.0765 10.8704 20.4135C10.8704 20.8283 10.7354 21.1826 10.457 21.4851C10.1871 21.7876 9.82437 21.9518 9.39414 21.9863Z" fill="#183857"/>
<path d="M14.5489 18.6504C14.9032 18.6504 15.2828 18.7455 15.6708 18.9096C15.9829 19.0479 16.2613 19.2553 16.5144 19.5319C16.9699 20.0417 17.2061 20.6467 17.2061 21.3294C17.2061 22.0121 16.9784 22.6084 16.5144 23.1183C16.2698 23.3862 15.9914 23.5936 15.6708 23.7492C15.3165 23.9134 14.9369 23.9998 14.5489 23.9998C14.1524 23.9998 13.7812 23.922 13.4269 23.7492C13.1064 23.5936 12.828 23.3862 12.5833 23.1183C12.1278 22.6171 11.8916 22.0208 11.8916 21.338C11.8916 20.6553 12.1194 20.059 12.5833 19.5405C12.8364 19.264 13.1148 19.0566 13.4269 18.9183C13.8234 18.7455 14.1946 18.659 14.5489 18.659V18.6504ZM14.5489 19.1171C14.2789 19.1171 14.0005 19.1776 13.7053 19.2899C13.4522 19.3936 13.216 19.5578 13.0051 19.7911C12.5918 20.2319 12.3809 20.7504 12.3893 21.3467C12.3893 21.8825 12.5665 22.3578 12.9208 22.764C13.1232 22.9973 13.3679 23.1874 13.6462 23.3257C13.9415 23.464 14.2367 23.5331 14.5573 23.5331C14.8779 23.5331 15.1731 23.464 15.4599 23.3257C15.7383 23.1874 15.9829 23.0059 16.1854 22.764C16.5397 22.3578 16.7253 21.8738 16.7253 21.3294C16.7253 20.7331 16.5144 20.2232 16.101 19.7825C15.8902 19.5578 15.654 19.385 15.4009 19.2813C15.1056 19.1689 14.8357 19.1084 14.5657 19.1084L14.5489 19.1171Z" fill="#183857"/>
<path d="M22.082 23.9049V18.7456H24.8321V19.2123H22.5797V21.0703H24.7562V21.537H22.5797V23.4468H24.8321V23.9135H22.082V23.9049Z" fill="#183857"/>
<path d="M26.2324 23.9049V18.7456H26.7301V23.9135H26.2324V23.9049Z" fill="#183857"/>
<path d="M28.0293 23.9049V18.7456H28.7042L31.5301 23.0407V18.7456H32.0279V23.9135H31.5301L28.527 19.3678V23.9135H28.0293V23.9049Z" fill="#183857"/>
<path d="M33.1406 23.9047L35.2833 18.7368H35.8401L37.9996 23.9047H37.4513L36.7258 22.1677H34.3891L33.6552 23.9047H33.1406ZM34.5831 21.701H36.5318L35.5617 19.3331L34.5831 21.701Z" fill="#183857"/>
</g>
<circle cx="20" cy="20" r="19.5" stroke="black" stroke-opacity="0.05"/>
<defs>
<clipPath id="clip0_36410_74136">
<rect width="35" height="7" fill="white" transform="translate(3 17)"/>
</clipPath>
</defs>
</svg>
