<svg width="40" height="40" viewBox="0 0 40 40" fill="none" xmlns="http://www.w3.org/2000/svg">
<circle cx="20" cy="20" r="20" fill="#F6F8FA"/>
<g clip-path="url(#clip0_39193_75819)">
<path d="M29.1872 23.9272C28.8816 24.1724 28.6935 24.406 28.6054 24.4936C28.2704 24.8206 28.147 24.9841 27.3596 25.5505C26.4194 26.2221 25.4968 26.6308 23.158 26.6308C19.4147 26.6308 16.3942 23.6819 16.3942 20.1608C16.3942 16.6396 19.4265 13.79 23.1697 13.79C25.5085 13.79 27.5653 14.9053 28.7817 16.5929C28.9051 16.7681 29.099 16.8907 29.3164 16.9199C29.5691 16.9549 29.8453 16.9199 30.0569 16.7097C30.3037 16.4586 30.3331 16.0673 30.1568 15.7637C28.4232 12.7038 25.0032 10.625 21.0601 10.625C15.3718 10.625 10.7588 14.9637 10.7588 20.3184C10.7588 25.6732 15.3718 30.0119 21.0601 30.0119C25.0796 30.0119 28.4585 28.0381 30.1568 24.8732C30.2214 24.7564 30.3389 24.4294 30.3624 24.3009C30.433 23.8571 30.0334 23.2732 29.1989 23.9389L29.1872 23.9272Z" fill="#3D58A7"/>
<path d="M26.5601 17.5444V19.886H26.0254V17.5444H26.5601Z" fill="#C42026"/>
<path d="M27.0186 19.886V17.5444H27.6415L28.1292 18.4028C28.2702 18.6481 28.4113 18.9401 28.5112 19.2028H28.5229C28.4877 18.8933 28.4759 18.578 28.4759 18.2276V17.5444H28.9637V19.886H28.4054L27.9 18.9809C27.759 18.7298 27.6062 18.4262 27.4887 18.1517H27.4769C27.4887 18.4671 27.5004 18.7941 27.5004 19.1736V19.8802H27.0127L27.0186 19.886Z" fill="#C42026"/>
<path d="M29.4336 19.886V17.5444H30.0565L30.5443 18.4028C30.6853 18.6481 30.8263 18.9401 30.9262 19.2028H30.938C30.9027 18.8933 30.891 18.578 30.891 18.2276V17.5444H31.3787V19.886H30.8204L30.3151 18.9809C30.174 18.7298 30.0213 18.4262 29.9037 18.1517H29.892C29.9037 18.4671 29.9155 18.7941 29.9155 19.1736V19.8802H29.4277L29.4336 19.886Z" fill="#C42026"/>
<path d="M33.9997 18.6947C33.9997 19.4596 33.5296 19.9268 32.8421 19.9268C32.1545 19.9268 31.7314 19.4012 31.7314 18.7356C31.7314 18.0348 32.1839 17.5093 32.8773 17.5093C33.5708 17.5093 33.9939 18.0465 33.9939 18.6947H33.9997ZM32.3015 18.7239C32.3015 19.1852 32.5189 19.5064 32.8773 19.5064C33.2358 19.5064 33.4415 19.1677 33.4415 18.7122C33.4415 18.2918 33.2358 17.9297 32.8715 17.9297C32.5071 17.9297 32.3015 18.2684 32.3015 18.7239Z" fill="#C42026"/>
<path d="M26.5079 20.8673H25.791V20.6104H27.5363V20.8673H26.8135V22.952H26.5079V20.8673Z" fill="#3953A4"/>
<path d="M29.1754 21.8541H28.2587V22.7009H29.2812V22.952H27.959V20.6104H29.2342V20.8614H28.2646V21.6031H29.1813V21.8541H29.1754Z" fill="#3953A4"/>
<path d="M31.4798 22.8759C31.3681 22.9343 31.1448 22.9869 30.8569 22.9869C30.1929 22.9869 29.6934 22.5723 29.6934 21.8015C29.6934 21.0306 30.1929 20.5693 30.9215 20.5693C31.2153 20.5693 31.3975 20.6336 31.4798 20.6744L31.4093 20.9197C31.2917 20.8613 31.1272 20.8204 30.9333 20.8204C30.3809 20.8204 30.0166 21.1708 30.0166 21.7839C30.0166 22.3562 30.3515 22.7241 30.9215 22.7241C31.1096 22.7241 31.2976 22.6832 31.4151 22.6248L31.4798 22.8642V22.8759Z" fill="#3953A4"/>
<path d="M32.3192 20.6104V21.5914H33.4593V20.6104H33.7648V22.952H33.4593V21.8541H32.3192V22.952H32.0137V20.6104H32.3192Z" fill="#3953A4"/>
<path d="M7.87371 17.3227C7.80907 17.3986 7.62102 17.6088 7.59164 17.8424C7.58576 17.9066 7.59164 18.0584 7.6504 18.0935C7.79144 18.1811 7.84432 18.1519 7.9736 18.1227C8.12639 18.0876 8.3732 17.9124 8.43784 17.8541C9.2194 17.1241 10.6474 16.3183 11.8697 15.9738C11.9989 15.9387 12.1223 15.9095 12.2457 15.8803C12.4926 15.3256 12.7981 14.7942 13.1448 14.2979C10.806 14.8409 9.2194 15.7752 7.87958 17.3285L7.87371 17.3227Z" fill="#CCCCCB"/>
<path d="M24.5736 19.7518C24.0388 17.346 22.0291 15.6175 19.3495 14.8525C18.3094 15.5708 17.5043 16.5752 17.0636 17.7431C17.3398 18.1343 17.5337 18.5898 17.6277 19.0978C17.8275 20.219 17.6512 21.1124 17.0812 21.9299C16.4054 22.8934 15.1772 23.7343 13.3614 24.6861C13.1675 24.7854 12.9736 24.873 12.7855 24.9489C10.482 25.8365 8.10794 24.9139 7.08544 23.3547C7.04431 23.2905 6.86802 22.9868 6.69173 22.8701C6.52719 22.7649 6.20986 22.7825 6.01594 22.9168C5.73387 23.1095 5.67511 23.2788 5.71037 23.6525C5.71037 23.6876 5.82202 24.1898 5.83377 24.2248C6.9209 27.9562 11.575 29.6029 16.6698 28.6569C21.9175 27.6817 25.4668 23.6934 24.5853 19.746L24.5736 19.7518Z" fill="#CCCCCB"/>
<path d="M7.18621 18.0058C7.12157 18.0817 6.93352 18.2919 6.90414 18.5255C6.89826 18.5897 6.90414 18.7415 6.9629 18.7766C7.10394 18.8642 7.15682 18.835 7.2861 18.8058C7.43889 18.7707 7.6857 18.5956 7.75034 18.5372C8.5319 17.8072 9.95986 17.0014 11.1822 16.6569C11.3114 16.6218 11.4348 16.5926 11.5582 16.5634C11.8051 16.0087 12.1106 15.4773 12.4573 14.981C10.1185 15.524 8.5319 16.4583 7.19208 18.0116L7.18621 18.0058Z" fill="#DE1F26"/>
<path d="M24.5683 20.1023C24.0159 17.6089 21.9298 15.8162 19.1562 15.0278C18.0808 15.7753 17.2463 16.8147 16.788 18.0235C17.0759 18.4322 17.2757 18.9052 17.3697 19.4308C17.5813 20.5928 17.3932 21.5213 16.8056 22.3621C16.1063 23.3607 14.8311 24.2308 12.9507 25.2176C12.7509 25.3227 12.5511 25.4103 12.3513 25.4862C9.9596 26.403 7.50327 25.4512 6.43964 23.8337C6.3985 23.7694 6.21634 23.4541 6.02829 23.3315C5.85788 23.2205 5.5288 23.2439 5.329 23.384C5.04106 23.5826 4.97642 23.7578 5.01168 24.149C5.01168 24.184 5.1292 24.7037 5.14096 24.7388C6.26922 28.6103 11.0879 30.3154 16.3649 29.3344C21.8064 28.3242 25.4792 24.1899 24.5683 20.1023Z" fill="url(#paint0_radial_39193_75819)"/>
<path d="M30.1506 15.1387C28.464 12.0847 25.1204 10 21.2713 10C17.7631 10 14.6721 11.7343 12.874 14.362C12.5331 14.8584 12.2393 15.3898 11.9925 15.9445C11.493 17.0949 11.2109 18.362 11.2109 19.6934C11.2109 21.5971 11.7809 23.3723 12.7682 24.873C12.9621 24.7971 13.1619 24.7095 13.3558 24.6044C15.1951 23.6175 15.7064 23.3197 16.3939 22.3212C16.1354 21.6321 15.9943 20.8905 15.9943 20.1255C15.9943 19.3606 16.1295 18.654 16.3763 17.9883C16.8229 16.7796 18.3625 15.162 19.4203 14.4204C20.5191 13.6438 21.8707 13.1825 23.3398 13.1825C25.6199 13.1825 27.6296 14.2978 28.8225 15.9854C28.9459 16.1606 29.1339 16.2832 29.3455 16.3124C29.5923 16.3474 29.8626 16.3124 30.0683 16.1022C30.3092 15.8511 30.3386 15.4599 30.1682 15.1562L30.1506 15.1387Z" fill="#CCCCCB"/>
<path d="M30.1509 15.7578C28.4174 12.698 24.9973 10.6191 21.0542 10.6191C17.4579 10.6191 14.2964 12.3534 12.4512 14.9812C12.1045 15.4775 11.7989 16.0089 11.5521 16.5637C11.0409 17.714 10.7529 18.9812 10.7529 20.3126C10.7529 22.2162 11.3347 23.9914 12.3454 25.4921C12.5452 25.4162 12.745 25.3286 12.9448 25.2235C14.8253 24.2367 16.1004 23.3607 16.7997 22.368C16.5353 21.679 16.3884 20.9374 16.3884 20.1724C16.3884 19.4075 16.5294 18.7009 16.7821 18.0352C17.2405 16.8264 18.0749 15.787 19.1503 15.0396C20.2727 14.2629 21.6595 13.8016 23.1639 13.8016C25.5027 13.8016 27.5594 14.917 28.7758 16.6045C28.8992 16.7797 29.0932 16.9024 29.3106 16.9315C29.5633 16.9666 29.8395 16.9315 30.051 16.7213C30.2978 16.4702 30.3272 16.079 30.1509 15.7753V15.7578Z" fill="url(#paint1_radial_39193_75819)"/>
</g>
<circle cx="20" cy="20" r="19.5" stroke="black" stroke-opacity="0.05"/>
<defs>
<radialGradient id="paint0_radial_39193_75819" cx="0" cy="0" r="1" gradientUnits="userSpaceOnUse" gradientTransform="translate(14.8546 22.3154) scale(8.68531 8.63066)">
<stop offset="0.45" stop-color="#F7922A"/>
<stop offset="0.99" stop-color="#D71F26"/>
</radialGradient>
<radialGradient id="paint1_radial_39193_75819" cx="0" cy="0" r="1" gradientUnits="userSpaceOnUse" gradientTransform="translate(20.5077 18.0527) scale(8.38561 8.33285)">
<stop offset="0.46" stop-color="#33C6F4"/>
<stop offset="1" stop-color="#3F5FAC"/>
</radialGradient>
<clipPath id="clip0_39193_75819">
<rect width="29" height="20" fill="white" transform="translate(5 10)"/>
</clipPath>
</defs>
</svg>
