<svg width="40" height="40" viewBox="0 0 40 40" fill="none" xmlns="http://www.w3.org/2000/svg">
<circle cx="20" cy="20" r="20" fill="#F6F8FA"/>
<g clip-path="url(#clip0_46604_83285)">
<path d="M18.5968 9.5V12.3906C16.5817 12.3906 14.647 13.1935 13.2253 14.6203C11.8036 16.0471 11 17.9803 11 20C11 22.0197 11.8036 23.9529 13.2253 25.3797C14.6532 26.8065 16.5817 27.6094 18.5968 27.6094V30.5C21.3661 30.4815 24.0117 29.3635 25.9588 27.3932C27.9059 25.4291 29 22.7671 29 20C29 17.2329 27.9059 14.5709 25.9588 12.6068C24.0117 10.6365 21.3661 9.51853 18.5968 9.5ZM18.5968 27.035V24.1444C17.4966 24.1444 16.4457 23.7059 15.6731 22.9276C14.8942 22.1494 14.4615 21.0932 14.4615 20C14.4615 18.9068 14.9004 17.8444 15.6731 17.0724C16.4519 16.2941 17.5027 15.8556 18.5968 15.8556V12.965C20.4574 12.965 22.2438 13.7062 23.5604 15.0279C24.8771 16.3497 25.6188 18.1347 25.6188 20C25.6188 21.8653 24.8771 23.6565 23.5604 24.9721C22.2438 26.2876 20.4574 27.035 18.5968 27.035Z" fill="#7300F0"/>
</g>
<circle cx="20" cy="20" r="19.5" stroke="black" stroke-opacity="0.05"/>
<defs>
<clipPath id="clip0_46604_83285">
<rect width="18" height="22" fill="white" transform="translate(11 9)"/>
</clipPath>
</defs>
</svg>
