<svg width="40" height="40" viewBox="0 0 40 40" fill="none" xmlns="http://www.w3.org/2000/svg">
<circle cx="20" cy="20" r="20" fill="#EA002C"/>
<path d="M14.654 22.1057C14.0422 21.8211 13.5442 21.5899 13.5442 21.1239C13.5442 20.7682 13.8288 20.5085 14.3908 20.5085C14.576 20.51 14.7606 20.529 14.9422 20.5655C15.0312 20.5834 15.1217 20.5929 15.2125 20.5939C15.7034 20.5939 15.9808 20.3022 16.1658 19.7473L16.2405 19.5197C15.6286 19.2688 14.9739 19.1383 14.3126 19.1355C12.6478 19.1355 11.7692 20.2026 11.7692 21.3125C11.7526 21.7815 11.9125 22.2397 12.2174 22.5966C12.5941 22.9861 13.0453 23.2958 13.5442 23.5072C14.2307 23.8416 14.8497 24.0906 14.8497 24.5921C14.8497 25.0332 14.3944 25.2858 13.7825 25.2858C13.1881 25.2523 12.6134 25.0607 12.1178 24.7308L11.4277 26.0327C12.1775 26.465 13.0312 26.6839 13.8964 26.6659C15.4508 26.6659 16.6282 25.7731 16.6282 24.4036C16.6282 23.0341 15.5255 22.5325 14.654 22.1057Z" fill="white"/>
<path d="M20.7302 22.7424L23.551 19.2849H21.5412L19.2931 22.2693H19.2611V19.2849H17.6035V26.609H17.7031C18.4145 26.609 19.2718 26.2781 19.2718 25.0794V23.4004H19.3038L21.5982 26.5094H23.7075L20.7302 22.7424Z" fill="white"/>
<path d="M23.6423 11.4412C23.0625 11.5515 22.1981 12.0815 22.1981 13.017C22.1981 13.8672 22.9095 14.383 22.9095 15.507C22.909 15.852 22.8181 16.1909 22.6459 16.4899C22.4736 16.7888 22.226 17.0374 21.9277 17.2109C22.1269 17.1931 22.351 17.1789 22.5929 17.1789C22.8724 17.1752 23.1518 17.1918 23.4288 17.2287L26.0433 14.0272C25.3893 13.0401 24.5783 12.1666 23.6423 11.4412Z" fill="white"/>
<path d="M25.8415 20.1064C26.1723 19.5942 26.1972 18.7796 26.2399 17.9473C26.2719 17.1718 26.432 16.5884 27.4706 16.5849C27.7018 16.5849 27.9188 16.6133 28.3172 16.6133C29.4206 16.6099 30.5023 16.3075 31.4475 15.7383C29.8344 14.6998 27.975 14.107 26.0585 14.0202C25.9091 14.4399 24.753 17.6591 24.6641 17.933C24.8398 18.1423 24.9958 18.3673 25.13 18.6053C25.4206 19.0786 25.6592 19.5819 25.8415 20.1064Z" fill="white"/>
<path d="M20.3175 17.4777C20.1859 17.4777 20.1219 17.3923 20.1041 17.2394C20.0863 17.0864 19.4389 11.1033 19.3358 10.1998C19.3358 10.0647 19.286 9.82277 19.286 9.7374C19.2835 9.70995 19.2868 9.68228 19.2957 9.6562C19.3046 9.63013 19.319 9.60623 19.3378 9.58608C19.3566 9.56593 19.3794 9.54998 19.4048 9.53928C19.4302 9.52857 19.4576 9.52336 19.4852 9.52397C19.7946 9.52397 21.4843 9.91881 23.2735 11.1745C22.8731 11.2755 22.5161 11.5032 22.2559 11.8238C21.9956 12.1443 21.8459 12.5405 21.8293 12.953C21.8293 13.9348 22.5407 14.479 22.5407 15.4644C22.5478 17.09 20.7017 17.4777 20.3175 17.4777Z" fill="white"/>
<path d="M25.9902 20.5333C26.0129 20.5957 26.0402 20.6564 26.072 20.7147C26.0865 20.745 26.1092 20.7707 26.1375 20.7889C26.1657 20.8072 26.1985 20.8172 26.2321 20.8178C26.284 20.8149 26.3348 20.8016 26.3815 20.7787L32.8057 17.7907C32.9231 17.7338 33.1614 17.6342 33.2254 17.5915C33.2579 17.5753 33.2854 17.5505 33.3049 17.5198C33.3243 17.489 33.335 17.4536 33.3357 17.4172C33.3356 17.3798 33.3258 17.343 33.3072 17.3105C32.8729 16.7894 32.362 16.3372 31.7919 15.9695C30.7592 16.5998 29.5762 16.9413 28.3664 16.9584C27.968 16.9584 27.8755 16.9335 27.6052 16.9335C26.8084 16.9335 26.6092 17.2892 26.5807 17.9721C26.5807 18.1038 26.5807 18.2816 26.5807 18.4772C26.5523 19.0997 26.4669 19.9606 25.9902 20.5333Z" fill="white"/>
<circle cx="20" cy="20" r="19.5" stroke="black" stroke-opacity="0.05"/>
</svg>
