<svg width="40" height="40" viewBox="0 0 40 40" fill="none" xmlns="http://www.w3.org/2000/svg">
<circle cx="20" cy="20" r="20" fill="#F6F8FA"/>
<g clip-path="url(#clip0_29323_48186)">
<path d="M28.523 21.9487C28.8432 22.4276 28.6462 22.9783 28.326 23.4572C28.2521 23.577 28.129 23.6967 28.0797 23.8164C27.8334 24.1277 27.4639 24.3672 27.1437 24.5348H27.0698L22.2669 27.2645V12.61L20.3457 10.0718V31.0239L28.8432 25.8757C30.2718 24.894 30.592 22.9544 28.523 21.9966V21.9487Z" fill="#E41E25"/>
<path opacity="0.9" d="M28.1528 22.4515C28.0789 22.0205 27.5863 21.7332 26.7242 21.4698C26.6503 21.4698 24.2365 20.8711 22.2168 20.3683V21.5177C24.2858 22.0684 26.5271 22.7389 26.7242 22.7868C27.0936 22.9065 27.4631 23.1459 27.6601 23.4572C28.0296 23.1459 28.2266 22.7389 28.1528 22.4276V22.4515Z" fill="url(#paint0_linear_29323_48186)"/>
<path opacity="0.9" d="M11.7988 18.5006C11.8727 18.9316 12.3653 19.2189 13.2274 19.4823C13.3013 19.4823 15.7151 20.081 17.7348 20.5838V19.4344C15.6658 18.8837 13.4244 18.2132 13.2274 18.1653C12.8579 18.0456 12.4885 17.8062 12.2914 17.4949C11.9712 17.8062 11.7988 18.2132 11.7988 18.5245V18.5006Z" fill="url(#paint1_linear_29323_48186)"/>
<path d="M11.4782 18.9795C11.158 18.5006 11.355 17.9498 11.6752 17.4709C11.7491 17.3512 11.8723 17.2315 11.9215 17.1117C12.1678 16.8005 12.5373 16.561 12.8575 16.3934H12.9314L17.7344 13.6636V28.4139L19.6802 30.9521V10L11.2811 15.1482C9.65553 16.0582 9.40923 17.9977 11.4782 18.9795Z" fill="#E41E25"/>
</g>
<circle cx="20" cy="20" r="19.5" stroke="black" stroke-opacity="0.05"/>
<defs>
<linearGradient id="paint0_linear_29323_48186" x1="22.2168" y1="21.9487" x2="28.1774" y2="21.9487" gradientUnits="userSpaceOnUse">
<stop offset="0.28" stop-color="#E41E25"/>
<stop offset="1" stop-color="#AA0D13"/>
</linearGradient>
<linearGradient id="paint1_linear_29323_48186" x1="17.7594" y1="19.0274" x2="11.7988" y2="19.0274" gradientUnits="userSpaceOnUse">
<stop offset="0.28" stop-color="#E41E25"/>
<stop offset="1" stop-color="#AA0D13"/>
</linearGradient>
<clipPath id="clip0_29323_48186">
<rect width="21" height="22" fill="white" transform="translate(9 10)"/>
</clipPath>
</defs>
</svg>
