<svg width="40" height="40" viewBox="0 0 40 40" fill="none" xmlns="http://www.w3.org/2000/svg">
<circle cx="20" cy="20" r="20" fill="#F6F8FA"/>
<g clip-path="url(#clip0_29810_49822)">
<path d="M22.9529 13.0001C23.0094 13.0239 23.049 13.0476 23.0659 13.0714C24.0718 14.2836 25.0155 15.4126 25.8913 16.4644C25.8913 16.4644 25.8913 16.4763 25.8913 16.4823C25.8913 16.4823 25.8913 16.4823 25.8857 16.4823C25.524 16.4823 25.168 16.4763 24.8233 16.4823C24.8233 16.4823 24.812 16.4823 24.7838 16.4823C24.7499 16.4823 24.7273 16.4823 24.716 16.4585C24.6651 16.3991 24.1452 15.7692 23.145 14.5688C23.1055 14.5213 23.0603 14.4619 23.0094 14.4381C22.9416 14.4025 22.8738 14.4025 22.8116 14.4381C22.7834 14.4559 22.7382 14.4975 22.6817 14.5688C22.5686 14.7115 22.4443 14.86 22.3087 15.0205C22.1448 15.2166 22.0544 15.3295 22.0262 15.3592C21.6984 15.7514 21.3933 16.1138 21.1164 16.4525C21.0994 16.4704 21.0825 16.4823 21.0599 16.4823H19.9466C19.9466 16.4823 19.9353 16.4823 19.9297 16.4704C19.9297 16.4644 19.9297 16.4585 19.9297 16.4466C19.9297 16.4347 19.941 16.4288 19.9466 16.4288C19.9636 16.4228 19.9805 16.4109 19.9918 16.3931C20.9129 15.2879 21.8284 14.1826 22.7495 13.0773C22.7777 13.0476 22.8173 13.0179 22.8681 12.9941H22.9585L22.9529 13.0001Z" fill="#F58220"/>
<path d="M13.4539 19.9642C13.4878 22.0797 11.8491 23.8208 9.7978 23.8564C7.75219 23.8921 6.06259 22.2045 6.02868 20.089C6.00043 17.9736 7.63353 16.2325 9.68479 16.1968C11.736 16.1612 13.4257 17.8488 13.4539 19.9642ZM9.7639 22.7631C11.1653 22.7512 12.2955 21.5211 12.2842 20.0058C12.2729 18.4965 11.1314 17.2783 9.72999 17.2902C8.32858 17.3021 7.19841 18.5322 7.20971 20.0474C7.22101 21.5568 8.36249 22.7749 9.7639 22.7631Z" fill="#58595B"/>
<path d="M19.907 21.2062V17.2784V17.112C19.907 17.0882 19.907 17.0645 19.907 17.0288H21.0541C21.0541 17.0288 21.0767 17.0407 21.0767 17.0585C21.0767 17.1892 21.0767 17.32 21.0767 17.4507C21.0767 17.629 21.0711 17.7597 21.0711 17.8429C21.0711 18.8353 21.0711 19.8276 21.0711 20.82C21.0711 20.8319 21.0711 20.8497 21.0711 20.8556C21.0711 21.0398 21.0767 21.2241 21.0937 21.4023C21.1106 21.6103 21.1559 21.8005 21.2237 21.9787C21.3593 22.3115 21.5797 22.5611 21.8905 22.7156C22.0261 22.7809 22.1617 22.8285 22.3086 22.8641C22.6307 22.9295 22.9585 22.9414 23.3032 22.8998C23.484 22.876 23.6535 22.8344 23.8061 22.769C24.213 22.5967 24.4899 22.2996 24.6198 21.8599C24.665 21.7113 24.6933 21.5568 24.7046 21.4083C24.7046 21.3548 24.7102 21.3132 24.7159 21.2835C24.7159 21.2181 24.7215 21.1765 24.7215 21.1587C24.7215 20.9804 24.7215 20.8556 24.7215 20.7843C24.7215 20.612 24.7272 20.4872 24.7272 20.41C24.7272 19.4949 24.7272 18.5797 24.7272 17.6646C24.7272 17.6112 24.7272 17.5042 24.7272 17.3616C24.7272 17.2368 24.7272 17.1358 24.7272 17.0585C24.7272 17.0526 24.7272 17.0466 24.7385 17.0466H25.8856C25.8856 17.0466 25.9082 17.0585 25.9082 17.0704C25.9082 17.1179 25.9082 17.1595 25.9082 17.2071C25.9082 19.9168 25.9082 21.2716 25.9082 21.2775C25.9082 21.6341 25.8574 21.9728 25.7557 22.2877C25.6144 22.7393 25.3714 23.0959 25.0154 23.3633C24.908 23.4465 24.7837 23.5178 24.6481 23.5831C24.4334 23.6901 24.2017 23.7673 23.9643 23.8149C23.71 23.8684 23.4501 23.904 23.1732 23.9159C23.0432 23.9218 22.8737 23.9218 22.6646 23.9159C22.3538 23.91 22.0487 23.8684 21.7379 23.7911C21.478 23.7258 21.2293 23.6307 20.9976 23.4999C20.8564 23.4168 20.7264 23.3217 20.6021 23.2028C20.5004 23.1018 20.4099 22.9889 20.3252 22.8641C20.1726 22.6324 20.0652 22.3769 20.0031 22.1035C19.9466 21.8599 19.9183 21.6638 19.9127 21.5093C19.9127 21.3607 19.9014 21.2657 19.9014 21.2241L19.907 21.2062Z" fill="#58595B"/>
<path d="M29.9878 21.7648V21.7529C30.1347 21.3845 30.276 21.0576 30.4173 20.7724C31.0163 19.5364 31.6096 18.3064 32.2029 17.0704C32.2029 17.0644 32.2086 17.0585 32.2199 17.0525C32.2255 17.0525 32.2312 17.0525 32.2425 17.0466L32.2538 17.0941C32.2538 17.0941 32.2538 17.1417 32.2595 17.1773C32.7737 19.4354 33.2823 21.6697 33.7852 23.8802C33.7852 23.8921 33.7852 23.898 33.7739 23.898H32.8245C32.8245 23.898 32.8076 23.8921 32.8076 23.8802C32.5589 22.7215 32.3273 21.6638 32.1125 20.707C32.0956 20.6357 32.0843 20.5644 32.073 20.4931C32.0617 20.4278 32.056 20.3565 32.0447 20.2792C32.0278 20.1247 32.0052 19.9761 31.9826 19.8216C31.9826 19.8216 31.9826 19.8216 31.9769 19.8098C31.9826 19.786 31.9826 19.7741 31.9826 19.7682C31.9769 19.7385 31.9656 19.7385 31.96 19.7682C31.8921 20.1009 31.7735 20.4278 31.6096 20.7427C30.8015 22.2936 30.259 23.3395 29.9878 23.8743C29.9878 23.8743 29.9822 23.8743 29.9765 23.8743C29.9087 23.7435 29.3493 22.6442 28.2982 20.5704C28.1908 20.3565 28.0948 20.1188 28.0044 19.8454C28.0044 19.8514 27.9987 19.8454 27.9931 19.8216C27.9931 19.786 27.9931 19.7622 27.9818 19.7444C27.9705 19.7266 27.9648 19.7266 27.9648 19.7444C27.9591 19.9583 27.9365 20.1663 27.897 20.3743C27.897 20.3862 27.8631 20.5288 27.8066 20.8081C27.5862 21.842 27.3715 22.8641 27.1567 23.8624C27.1567 23.8743 27.1454 23.8802 27.1398 23.8802H26.2074C26.2074 23.8802 26.1904 23.8743 26.1904 23.8624C26.473 22.6026 26.9759 20.3505 27.6992 17.0941C27.6992 17.0704 27.7049 17.0585 27.7049 17.0525C27.7049 17.005 27.7105 17.005 27.7331 17.0466C28.3547 18.3123 28.982 19.578 29.6149 20.8556C29.6318 20.8913 29.6601 20.9566 29.6996 21.0517C29.8126 21.3369 29.8974 21.5449 29.9426 21.6697C29.9426 21.6697 29.9426 21.6816 29.9539 21.7053C29.9596 21.7291 29.9709 21.7469 29.9878 21.7648C29.9878 21.7648 29.9878 21.7648 29.9935 21.7648V21.7588L29.9878 21.7648Z" fill="#58595B"/>
<path d="M14.5324 19.7977H17.3409C17.4256 19.8096 17.4991 19.8037 17.5613 19.7977C17.776 19.7502 17.9286 19.6195 18.019 19.4055C18.0472 19.3461 18.0698 19.2748 18.0924 19.1857C18.1094 19.1144 18.1094 19.0371 18.0924 18.9599C18.0642 18.8173 18.019 18.7044 17.9625 18.6152C17.8325 18.4191 17.6573 18.3181 17.4369 18.3181C17.1488 18.3181 16.9058 18.3062 16.6797 18.3122C15.9734 18.3122 15.0749 18.3122 13.9899 18.3122C13.9673 18.3122 13.9504 18.3122 13.9391 18.3003C13.9165 18.2825 13.9165 18.2468 13.9052 18.229C13.7243 17.813 13.4813 17.4327 13.1875 17.094V17.0821C13.1875 17.0821 13.1875 17.0821 13.1932 17.0821C13.9617 17.0821 15.2727 17.0821 17.1261 17.0821C17.1657 17.0821 17.2561 17.0821 17.4143 17.0762C17.5274 17.0762 17.6234 17.0762 17.7025 17.0881C17.9399 17.1297 18.1603 17.2247 18.3637 17.3852C18.488 17.4862 18.5954 17.5872 18.6858 17.6882C19.0022 18.0566 19.1661 18.4964 19.1718 19.0074C19.1718 19.1857 19.1548 19.3521 19.1209 19.5125C19.0248 19.9285 18.8101 20.285 18.4824 20.5821C18.3919 20.6653 18.3128 20.7247 18.245 20.7663C18.0698 20.8673 17.889 20.9446 17.7138 20.9921C17.5161 21.0456 17.3296 21.0337 17.0866 21.0337C17.0809 21.0337 17.0696 21.0397 17.0696 21.0516C17.0696 21.0516 17.0696 21.0575 17.0696 21.0634L19.4373 23.892C19.4373 23.892 19.4373 23.9038 19.4373 23.9098C19.4373 23.9098 19.4373 23.9098 19.4317 23.9098H18.0698C18.0698 23.9098 18.0416 23.9038 18.0303 23.892C16.5215 22.139 15.3631 20.7901 14.5494 19.8453C14.5494 19.8453 14.5437 19.8334 14.5437 19.8274C14.5437 19.8274 14.5437 19.8156 14.5437 19.8096L14.5324 19.7977Z" fill="#58595B"/>
<path d="M33.9553 25.6988H33.6219C33.6219 25.5681 33.571 25.4789 33.4749 25.4314C33.4354 25.4136 33.3902 25.4017 33.3393 25.3957C33.1867 25.3839 33.0172 25.4314 33.0172 25.6216C33.0172 25.6513 33.0285 25.681 33.0511 25.7107C33.102 25.7642 33.1585 25.8058 33.2206 25.8236C33.3619 25.8652 33.6106 25.9068 33.7631 26.0137C33.8874 26.0969 33.9666 26.2217 33.9892 26.3881V26.4654C33.9666 26.6199 33.9044 26.7328 33.8083 26.8219C33.7236 26.8932 33.6332 26.9407 33.5258 26.9645C33.4749 26.9764 33.4241 26.9883 33.3732 27.0002H33.2376C33.2093 26.9883 33.1754 26.9823 33.1472 26.9764C33.1076 26.9704 33.0794 26.9586 33.0568 26.9467C32.8194 26.8516 32.6669 26.6733 32.6104 26.4059C32.6104 26.394 32.6104 26.3822 32.6104 26.3762C32.6104 26.3643 32.6104 26.3525 32.6104 26.3465C32.6104 26.3346 32.616 26.3227 32.6273 26.3227H32.9098C32.9098 26.3227 32.9211 26.3227 32.9268 26.3346C32.9381 26.3643 32.9381 26.4 32.9494 26.4297C32.9946 26.5485 33.0737 26.6317 33.1924 26.6674C33.3337 26.709 33.5258 26.6912 33.6162 26.5545C33.6614 26.4832 33.6614 26.4178 33.6275 26.3465C33.5823 26.2574 33.4523 26.2039 33.3563 26.1861C33.2715 26.1682 33.2037 26.1504 33.1528 26.1385C33.0059 26.1029 32.859 26.0316 32.7629 25.9127C32.7064 25.8414 32.6782 25.7642 32.6725 25.675C32.6669 25.5859 32.6782 25.5027 32.7121 25.4314C32.8194 25.2056 33.0342 25.1046 33.2715 25.0986C33.3676 25.0986 33.458 25.1105 33.5371 25.1402C33.7744 25.2234 33.91 25.4195 33.944 25.7166L33.9553 25.6988Z" fill="#58595B"/>
<path d="M31.4008 25.7581L31.1804 25.7462C31.1521 25.5917 31.0787 25.4907 30.9431 25.4432C30.734 25.3659 30.5079 25.4432 30.4062 25.663C30.3723 25.7403 30.3497 25.8116 30.3384 25.8888C30.3215 26.0196 30.3271 26.1503 30.361 26.281C30.3949 26.4236 30.4627 26.5247 30.5701 26.596C30.6831 26.6732 30.8583 26.6851 30.977 26.6138C31.0843 26.5484 31.1578 26.4534 31.1917 26.3226C31.1917 26.3226 31.1973 26.3107 31.203 26.3107H31.4686L31.5421 26.2989C31.4968 26.4652 31.4234 26.6019 31.3273 26.7148C31.2313 26.8277 31.1069 26.905 30.9544 26.9406C30.8639 26.9644 30.7679 26.9703 30.6605 26.9525C30.5588 26.9406 30.4684 26.905 30.3836 26.8574C30.2085 26.7505 30.0954 26.59 30.0333 26.3702C29.9655 26.1146 29.9711 25.871 30.0502 25.6333C30.1293 25.3956 30.2763 25.2411 30.491 25.152C30.5927 25.1104 30.7001 25.0985 30.8187 25.1045C31.1804 25.1223 31.429 25.3659 31.5251 25.7284C31.5251 25.7343 31.5251 25.7403 31.5194 25.7462L31.3951 25.7581H31.4008Z" fill="#58595B"/>
<path d="M8.87107 25.146C8.85412 25.3777 8.85412 25.6036 8.87107 25.8353H9.54352V25.146H9.88257C9.87127 25.7402 9.87692 26.3345 9.88822 26.9287H9.54352L9.54917 26.174C9.54917 26.1562 9.54352 26.1502 9.52657 26.1502H8.88237C8.88237 26.1502 8.85977 26.1562 8.85977 26.174V26.9287H8.52637V25.146H8.87107Z" fill="#58595B"/>
<path d="M23.8459 26.1859C23.8346 26.3107 23.8459 26.4058 23.8628 26.4711C23.8967 26.5603 23.9533 26.6197 24.038 26.6434C24.2019 26.691 24.4223 26.6672 24.4901 26.489C24.507 26.4414 24.5183 26.3523 24.5183 26.2156C24.5183 25.8591 24.5183 25.5025 24.5183 25.146H24.8574C24.8461 25.5144 24.8461 25.8828 24.8574 26.2453C24.8574 26.3642 24.8574 26.4533 24.8461 26.5008C24.8291 26.584 24.7952 26.6613 24.7387 26.7326C24.6709 26.8217 24.5805 26.8871 24.4505 26.9287C24.2697 26.9881 24.0945 26.994 23.9193 26.9346C23.682 26.8574 23.5464 26.691 23.5068 26.4295V25.1698C23.5068 25.1698 23.5125 25.146 23.5238 25.146H23.8289C23.8289 25.146 23.8402 25.146 23.8402 25.1579V26.18L23.8459 26.1859Z" fill="#58595B"/>
<path d="M28.8524 25.146L28.8411 26.9287H28.5416C28.5416 26.9287 28.5303 26.9287 28.5303 26.9168V25.1638C28.5303 25.1638 28.5359 25.1519 28.5416 25.1519H28.8467L28.8524 25.146Z" fill="#58595B"/>
<path d="M14.9342 26.9286H14.533L14.0866 26.269C14.0809 26.2571 14.0696 26.2512 14.0527 26.2512H13.8605C13.8605 26.2512 13.8436 26.2571 13.8436 26.269V26.8989C13.8436 26.8989 13.8436 26.9108 13.8379 26.9167L13.8266 26.9286H13.5441C13.5441 26.9286 13.5215 26.9167 13.5215 26.8989V25.1816C13.5215 25.1816 13.5328 25.1519 13.5497 25.1519C13.8097 25.1519 13.9905 25.1519 14.0922 25.1519C14.2504 25.1519 14.3635 25.1637 14.4369 25.1875C14.5556 25.2291 14.6517 25.3004 14.7308 25.4074C14.8325 25.544 14.8438 25.7401 14.7816 25.9006C14.7195 26.0432 14.6234 26.1502 14.4821 26.2096C14.4708 26.2096 14.4652 26.2274 14.4708 26.2393C14.6234 26.4592 14.776 26.679 14.9342 26.9048C14.9342 26.9048 14.9398 26.9167 14.9398 26.9286H14.9342ZM13.8436 25.4965V25.9244C13.8436 25.9244 13.8605 25.9481 13.8718 25.9481H14.1996C14.3522 25.9422 14.4765 25.8412 14.4765 25.7223V25.6748C14.4765 25.5559 14.3465 25.4609 14.1939 25.4609H13.8662C13.8662 25.4609 13.8436 25.4787 13.8436 25.4906V25.4965Z" fill="#58595B"/>
<path d="M6.85893 26.9285H6.51988L6.53118 25.4786C6.53118 25.4667 6.51988 25.4548 6.50858 25.4548H6V25.1577H7.35621C7.35621 25.1577 7.37881 25.1577 7.37881 25.1755V25.437C7.37881 25.437 7.37316 25.4548 7.36186 25.4548H6.87023C6.87023 25.4548 6.85328 25.4667 6.85328 25.4727L6.86458 26.9166L6.85893 26.9285Z" fill="#58595B"/>
<path d="M19.025 26.3047C19.025 26.3047 19.0137 26.3047 19.0137 26.3165C19.0137 26.5186 19.0137 26.7147 19.0137 26.9167C19.0137 26.9227 19.0137 26.9286 19.0024 26.9286H18.7029L18.6973 25.1697C18.6973 25.1578 18.6973 25.1519 18.7142 25.1519C18.9063 25.1519 19.0928 25.1519 19.2793 25.1519C19.4206 25.1519 19.5166 25.1578 19.5731 25.1756C19.7879 25.241 19.9348 25.3895 19.9857 25.6213C20.0196 25.7817 19.9574 25.96 19.85 26.0789C19.7257 26.2155 19.5731 26.2868 19.3754 26.2809C19.2793 26.2809 19.1663 26.2809 19.0363 26.2809C19.0363 26.2809 19.0307 26.2809 19.025 26.2868V26.3047ZM19.0137 25.4727V25.9719C19.0137 25.9719 19.0194 25.9719 19.0137 25.9778V25.9897C19.1437 25.9897 19.2567 25.9897 19.3528 25.9897C19.4488 25.9897 19.5562 25.9541 19.6127 25.8649C19.6297 25.8352 19.641 25.7996 19.6466 25.7461C19.6523 25.6451 19.624 25.5678 19.5505 25.5143C19.5053 25.4846 19.4375 25.4609 19.3415 25.4549C19.2284 25.443 19.1154 25.4549 19.0024 25.4668L19.0137 25.4727Z" fill="#58595B"/>
<path d="M26.857 25.479V26.917C26.857 26.917 26.857 26.9289 26.8457 26.9289H26.5236C26.5349 26.7209 26.5405 26.507 26.5349 26.2931C26.5292 26.0257 26.5292 25.7583 26.5349 25.4909C26.5349 25.4671 26.5236 25.4552 26.501 25.4552H26.015C26.015 25.4552 25.998 25.4493 25.998 25.4374V25.1759C25.998 25.1759 25.998 25.1641 26.0093 25.1641H27.3543C27.3543 25.1641 27.3712 25.1759 27.3712 25.1819V25.4315C27.3712 25.4315 27.3599 25.4552 27.3486 25.4552H26.857C26.857 25.4552 26.8457 25.4552 26.8457 25.4671C26.8457 25.479 26.8457 25.479 26.8513 25.4731L26.857 25.479Z" fill="#58595B"/>
<path d="M12.3347 25.2055V25.461H11.4588C11.4475 25.461 11.4362 25.4729 11.4362 25.4848V25.8532C11.4362 25.8532 11.4475 25.877 11.4588 25.877H12.2612C12.2612 25.877 12.2895 25.8889 12.2895 25.9067V26.1563C12.2895 26.1563 12.2782 26.18 12.2669 26.18C12.0239 26.18 11.7583 26.18 11.4701 26.18C11.4362 26.18 11.4306 26.1919 11.4475 26.2216C11.4475 26.2276 11.4475 26.2394 11.4475 26.2454V26.6019C11.4475 26.6019 11.4475 26.6198 11.4645 26.6198H12.363V26.9288H12.007C12.007 26.9288 11.9956 26.9288 11.99 26.9228H11.165C11.165 26.9228 11.1367 26.9109 11.1367 26.8931V25.1936C11.1367 25.1936 11.1424 25.1758 11.1537 25.1758C11.5605 25.1758 11.9504 25.1758 12.3177 25.1758C12.329 25.1758 12.3404 25.1758 12.346 25.1817C12.3517 25.1877 12.3573 25.1996 12.3517 25.2114L12.3347 25.2055Z" fill="#58595B"/>
<path d="M17.5728 26.9286H17.2338L17.1038 26.5542C17.1038 26.5423 17.0869 26.5305 17.0699 26.5305H16.3918C16.3918 26.5305 16.3692 26.5364 16.3636 26.5483L16.2279 26.9227H15.8945L16.5444 25.1697C16.5444 25.1578 16.5557 25.1519 16.567 25.1519H16.8891C16.8891 25.1519 16.9117 25.1578 16.9173 25.1697L17.5728 26.9167V26.9286ZM16.4992 26.1918C16.4992 26.1918 16.4935 26.2155 16.4992 26.2215C16.4992 26.2215 16.5105 26.2274 16.5161 26.2274C16.663 26.2274 16.7817 26.2274 16.8608 26.2215C16.8778 26.2215 16.9173 26.2215 16.9399 26.2274C16.9512 26.2274 16.9682 26.2274 16.9682 26.2096C16.9682 26.2096 16.9682 26.1977 16.9682 26.1918L16.7535 25.5975C16.7535 25.5975 16.7309 25.5678 16.7252 25.5975C16.6122 25.9006 16.5444 26.0907 16.5161 26.162C16.5161 26.162 16.5161 26.168 16.5048 26.1858L16.4992 26.1918Z" fill="#58595B"/>
<path d="M22.3537 26.9289H21.1275C21.1275 26.9289 21.1162 26.9289 21.1162 26.917V25.1641H22.3029C22.3198 25.1641 22.3311 25.1759 22.3311 25.1938V25.4434C22.3311 25.4434 22.3255 25.4552 22.3198 25.4552H21.4666C21.4666 25.4552 21.4383 25.4671 21.4383 25.4849V25.8355C21.4383 25.8355 21.4496 25.8653 21.4666 25.8653H22.2803C22.2803 25.8653 22.2916 25.8653 22.2916 25.8771V26.1386C22.2916 26.1386 22.2803 26.1624 22.269 26.1624H21.4666C21.4666 26.1624 21.444 26.1683 21.444 26.1861V26.5902C21.444 26.5902 21.4553 26.608 21.4609 26.608H22.3368C22.3368 26.608 22.3537 26.614 22.3537 26.6259V26.917V26.9289Z" fill="#58595B"/>
</g>
<circle cx="20" cy="20" r="19.5" stroke="black" stroke-opacity="0.05"/>
<defs>
<clipPath id="clip0_29810_49822">
<rect width="28" height="14" fill="white" transform="translate(6 13)"/>
</clipPath>
</defs>
</svg>
