<svg width="40" height="40" viewBox="0 0 40 40" fill="none" xmlns="http://www.w3.org/2000/svg">
<circle cx="20" cy="20" r="20" fill="#006BB6"/>
<g clip-path="url(#clip0_30315_48335)">
<path d="M30.6341 16H29.7887C29.7738 16 29.7617 16.0125 29.7617 16.028V16.8785C29.7617 16.894 29.7738 16.9065 29.7887 16.9065H30.6341C30.649 16.9065 30.6611 16.894 30.6611 16.8785V16.028C30.6611 16.0125 30.649 16 30.6341 16Z" fill="white"/>
<path d="M30.6375 17.6836H29.7853C29.7723 17.6836 29.7617 17.6946 29.7617 17.7081V22.6326C29.7617 22.6461 29.7723 22.6571 29.7853 22.6571H30.6375C30.6505 22.6571 30.6611 22.6461 30.6611 22.6326V17.7081C30.6611 17.6946 30.6505 17.6836 30.6375 17.6836Z" fill="white"/>
<path d="M8.78989 20.1789C8.78989 21.5544 7.71874 22.6674 6.39495 22.6674C5.07116 22.6674 4 21.5544 4 20.1789C4 18.8034 5.07116 17.6904 6.39495 17.6904C7.71874 17.6904 8.78989 18.8034 8.78989 20.1789ZM7.89389 20.1789C7.89389 19.3179 7.22358 18.6214 6.39495 18.6214C5.56632 18.6214 4.896 19.3179 4.896 20.1789C4.896 21.0399 5.56632 21.7364 6.39495 21.7364C7.22358 21.7364 7.89389 21.0399 7.89389 20.1789Z" fill="white"/>
<path d="M11.5619 17.6905C12.431 17.6905 13.1788 18.1525 13.6234 18.9085C13.8019 19.2095 13.9064 19.5385 13.9434 19.8885C13.9468 19.934 13.9502 20.2385 13.9535 20.7985C13.9535 21.3515 13.9535 21.936 13.9535 22.545C13.9535 22.559 13.9434 22.566 13.9333 22.566H13.0811C13.0811 22.566 13.0609 22.5555 13.0609 22.545C13.0575 21.5475 13.0575 20.865 13.0609 20.494C13.0609 20.137 13.044 19.8885 13.0003 19.745C12.8049 19.08 12.2356 18.618 11.5586 18.618C10.8815 18.618 10.3123 19.0835 10.1169 19.745C10.0731 19.8885 10.0563 20.137 10.0596 20.494C10.063 20.865 10.063 21.5475 10.0596 22.545C10.0596 22.5555 10.0529 22.566 10.0394 22.566H9.1872C9.1872 22.566 9.16699 22.5555 9.16699 22.545C9.16699 21.936 9.16699 21.3515 9.16699 20.7985C9.16699 20.2385 9.17036 19.9375 9.1771 19.8885C9.21415 19.535 9.31857 19.2095 9.4971 18.9085C9.94173 18.1525 10.6895 17.687 11.5586 17.687L11.5619 17.6905Z" fill="white"/>
<path d="M18.1712 21.0644L18.8583 21.5509C18.8752 21.5649 18.8785 21.5789 18.865 21.5999C18.4137 22.2369 17.649 22.6044 16.9013 22.6569C16.2646 22.6989 15.7122 22.5239 15.244 22.1284C14.8398 21.7854 14.5669 21.3689 14.4288 20.8789C14.348 20.5849 14.321 20.2839 14.348 19.9759C14.4221 19.1569 14.7994 18.5164 15.4865 18.0579C15.8806 17.7954 16.3354 17.6764 16.8507 17.7009C17.6322 17.7359 18.3261 18.1804 18.7505 18.8594C18.7573 18.8734 18.7539 18.8874 18.7438 18.8979L18.0566 19.3774C18.0398 19.3914 18.0128 19.3844 18.0027 19.3669C17.8579 19.1184 17.676 18.9329 17.4503 18.8069C17.0461 18.5794 16.5173 18.5689 16.1063 18.7684C15.8436 18.8979 15.628 19.0939 15.4663 19.3564C15.1632 19.8429 15.1598 20.5359 15.4764 21.0259C15.7088 21.3829 16.012 21.6069 16.3926 21.6979C16.9989 21.8414 17.7434 21.5789 18.1341 21.0749C18.1442 21.0609 18.1577 21.0574 18.1745 21.0679L18.1712 21.0644Z" fill="white"/>
<path d="M23.9305 20.1789C23.9305 21.5544 22.8594 22.6674 21.5356 22.6674C20.2118 22.6674 19.1406 21.5544 19.1406 20.1789C19.1406 18.8034 20.2118 17.6904 21.5356 17.6904C22.8594 17.6904 23.9305 18.8034 23.9305 20.1789ZM23.0345 20.1789C23.0345 19.3179 22.3642 18.6214 21.5356 18.6214C20.7069 18.6214 20.0366 19.3179 20.0366 20.1789C20.0366 21.0399 20.7069 21.7364 21.5356 21.7364C22.3642 21.7364 23.0345 21.0399 23.0345 20.1789Z" fill="white"/>
<path d="M26.7066 18.6213C26.0295 18.6213 25.4603 19.0833 25.2649 19.7483C25.2245 19.8918 25.2043 20.1403 25.2076 20.4973C25.2076 20.8683 25.2076 21.5508 25.2076 22.5483C25.2076 22.5588 25.1975 22.5693 25.1874 22.5693H24.3386C24.3386 22.5693 24.3184 22.5588 24.3184 22.5483C24.3184 21.9393 24.3184 21.3548 24.3184 20.8018C24.3184 20.2418 24.3251 19.9408 24.3285 19.8918C24.3655 19.5383 24.4699 19.2128 24.6485 18.9118C25.0931 18.1558 25.8409 17.6938 26.7099 17.6938C27.579 17.6938 28.3268 18.1593 28.768 18.9153C28.9466 19.2163 29.051 19.5453 29.088 19.8953C29.0914 19.9408 29.0948 20.2453 29.0981 20.8053C29.0981 21.3583 29.0981 21.9428 29.0981 22.5518C29.0981 22.5658 29.088 22.5728 29.0779 22.5728H28.2291C28.2291 22.5728 28.2089 22.5623 28.2089 22.5518C28.2089 21.5543 28.2089 20.8718 28.2089 20.5008C28.2089 20.1438 28.192 19.8953 28.1516 19.7518C27.9563 19.0868 27.387 18.6248 26.7099 18.6248L26.7066 18.6213Z" fill="white"/>
<path d="M35.0266 21.0646L35.7171 21.5511C35.7339 21.5651 35.7373 21.5791 35.7238 21.6001C35.2725 22.2406 34.5112 22.6046 33.76 22.6571C33.1234 22.7026 32.571 22.5241 32.1028 22.1321C31.6952 21.7926 31.4257 21.3761 31.2842 20.8826C31.2034 20.5921 31.1731 20.2876 31.2 19.9796C31.2708 19.1571 31.6514 18.5201 32.3352 18.0616C32.7293 17.7991 33.184 17.6801 33.6994 17.7011C34.4809 17.7361 35.1748 18.1806 35.6026 18.8596C35.6093 18.8736 35.6059 18.8876 35.5958 18.8981L34.9087 19.3811C34.8918 19.3951 34.8649 19.3881 34.8548 19.3706C34.7099 19.1221 34.5247 18.9366 34.3023 18.8106C33.8981 18.5831 33.3693 18.5726 32.9583 18.7756C32.6956 18.9051 32.4834 19.1011 32.3183 19.3636C32.0152 19.8501 32.0118 20.5431 32.3318 21.0331C32.5642 21.3901 32.8674 21.6141 33.248 21.7051C33.8543 21.8486 34.5988 21.5861 34.9895 21.0821C34.9996 21.0681 35.0131 21.0646 35.0299 21.0751L35.0266 21.0646Z" fill="white"/>
</g>
<circle cx="20" cy="20" r="19.5" stroke="black" stroke-opacity="0.05"/>
<defs>
<clipPath id="clip0_30315_48335">
<rect width="32" height="7" fill="white" transform="translate(4 16)"/>
</clipPath>
</defs>
</svg>
