<svg width="40" height="40" viewBox="0 0 40 40" fill="none" xmlns="http://www.w3.org/2000/svg">
<circle cx="20" cy="20" r="20" fill="#760000"/>
<g clip-path="url(#clip0_33363_65712)">
<path d="M9.52075 19.0546V21.126C9.52123 21.5035 9.68076 21.8653 9.96434 22.1322C10.2479 22.3991 10.6324 22.5493 11.0334 22.5497H14.1964V21.5143H11.0322C10.9229 21.5141 10.818 21.4732 10.7407 21.4004C10.6634 21.3276 10.6198 21.2289 10.6197 21.126V19.0546C10.6198 18.9516 10.6634 18.853 10.7407 18.7802C10.818 18.7074 10.9229 18.6664 11.0322 18.6663H14.1951V17.6309H11.0322C10.6314 17.6315 10.2471 17.7817 9.96373 18.0486C9.68038 18.3155 9.52107 18.6773 9.52075 19.0546Z" fill="white"/>
<path d="M19.3908 21.5146H16.505C16.3957 21.5144 16.2909 21.4735 16.2137 21.4007C16.1364 21.3279 16.0931 21.2292 16.0931 21.1263V19.0551C16.0931 18.9522 16.1366 18.8535 16.214 18.7807C16.2913 18.7079 16.3962 18.6669 16.5056 18.6669H18.4306C18.5397 18.6672 18.6443 18.7083 18.7213 18.7811C18.7984 18.8539 18.8416 18.9524 18.8416 19.0551V19.4434H16.3827V20.4789H19.9433V19.0551C19.9435 18.7784 19.8579 18.5076 19.697 18.276C19.5361 18.0443 19.3069 17.8619 19.0374 17.7512C18.9401 17.7102 18.8383 17.6794 18.7338 17.6594C18.6347 17.6405 18.5338 17.6309 18.4327 17.6309H16.5065C16.1057 17.6315 15.7215 17.7817 15.4382 18.0485C15.1549 18.3154 14.9957 18.6771 14.9954 19.0543L14.9926 21.1254C14.9931 21.5027 15.1525 21.8645 15.4359 22.1313C15.7193 22.3982 16.1035 22.5485 16.5044 22.5491H19.9454V21.5151L19.3908 21.5146Z" fill="white"/>
<path d="M32.6216 22.5491V18.9683C32.6424 18.6077 32.8089 18.2682 33.0872 18.0195C33.3654 17.7709 33.7342 17.6318 34.1179 17.6309H36.8525V18.6146H34.1176C34.0015 18.6144 33.8898 18.6563 33.8057 18.7317C33.7216 18.807 33.6716 18.91 33.6662 19.0191V19.0286C33.6658 19.0327 33.6658 19.0368 33.6662 19.0409V22.5491H32.6216ZM33.665 20.4506V19.4669H36.8525V20.4506H33.665Z" fill="white"/>
<path d="M29.0334 22.5489V18.6146H27.229V17.6309H31.897V18.6146H30.0868V22.5489H29.0334Z" fill="white"/>
<path d="M21.7568 19.0546V21.126C21.7573 21.5035 21.9168 21.8653 22.2004 22.1322C22.484 22.3991 22.8685 22.5493 23.2695 22.5497H26.4324V21.5143H23.2692C23.1598 21.5142 23.0549 21.4733 22.9776 21.4005C22.9002 21.3277 22.8568 21.229 22.8567 21.126V19.0546C22.8568 18.9516 22.9002 18.8529 22.9776 18.7801C23.0549 18.7073 23.1598 18.6664 23.2692 18.6663H26.4324V17.6309H23.2692C22.8682 17.6312 22.4837 17.7814 22.2001 18.0483C21.9166 18.3152 21.7572 18.6771 21.7568 19.0546Z" fill="white"/>
<path d="M22.7847 19.5723H26.4321V20.6071H22.7847V19.5723Z" fill="white"/>
<path d="M7.21542 17.6266C6.66019 17.6266 6.34447 17.7251 6.07945 18.1843C6.07945 18.1843 3.73133 22.06 3.58804 22.2129C3.5257 22.3039 3.44363 22.3815 3.34722 22.4405C3.2508 22.4996 3.14222 22.5389 3.02856 22.5557H4.67878L5.61378 20.9709L5.6414 20.9246C5.6784 20.8683 5.73 20.8218 5.79134 20.7895C5.85267 20.7572 5.92173 20.74 5.99203 20.7397H7.33928V19.7023H6.36238C6.53215 19.4106 6.70419 19.1202 6.87846 18.8309L6.88331 18.824C6.92194 18.7748 6.97226 18.7349 7.03025 18.7073C7.08823 18.6797 7.15227 18.6653 7.21724 18.6651H7.63071V22.5566H8.73328V17.7772C8.75393 17.6406 8.8047 17.5096 8.88233 17.3926C8.79491 17.4764 8.68883 17.541 8.57173 17.5817C8.45462 17.6223 8.3294 17.638 8.20507 17.6277L7.21542 17.6266Z" fill="white"/>
</g>
<circle cx="20" cy="20" r="19.5" stroke="black" stroke-opacity="0.05"/>
<defs>
<clipPath id="clip0_33363_65712">
<rect width="34" height="8" fill="white" transform="translate(3 16)"/>
</clipPath>
</defs>
</svg>
