<svg width="40" height="40" viewBox="0 0 40 40" fill="none" xmlns="http://www.w3.org/2000/svg">
<circle cx="20" cy="20" r="20" fill="#F6F8FA"/>
<g clip-path="url(#clip0_40531_76185)">
<path d="M28.4043 18.1193C28.7004 18.1193 28.9405 17.8687 28.9405 17.5597C28.9405 17.2506 28.7004 17 28.4043 17C28.1082 17 27.8682 17.2506 27.8682 17.5597C27.8682 17.8687 28.1082 18.1193 28.4043 18.1193Z" fill="#C02B26"/>
<path d="M7.18036 22.8239C7.18036 22.8239 7.18036 22.837 7.18036 22.8414C7.18036 22.8414 7.17617 22.8414 7.17199 22.8414H6.19182C6.19182 22.8414 6.17088 22.837 6.16669 22.8283L4.96033 21.0575C4.96033 21.0575 4.93939 21.04 4.92682 21.04H3.8922C3.8922 21.04 3.86707 21.0531 3.86707 21.0663V22.8152C3.86707 22.8152 3.8545 22.8414 3.84194 22.8414H3.02094C3.02094 22.8414 3 22.8327 3 22.8195V17.6952C3 17.6952 3.00419 17.6821 3.01257 17.6821C3.71627 17.6821 4.48281 17.6821 5.32475 17.6821C5.64728 17.6821 5.95306 17.7608 6.25046 17.9139C6.67353 18.1368 6.92904 18.4954 7.01281 18.9894C7.1678 19.8683 6.7196 20.6378 5.89023 20.8695C5.87766 20.8695 5.86929 20.887 5.87348 20.9001C5.87348 20.9001 5.87348 20.9045 5.87348 20.9089L7.18036 22.8195V22.8239ZM3.86288 18.5172V20.218C3.86288 20.218 3.87126 20.2312 3.87964 20.2312H5.24935C5.74781 20.2312 6.15412 19.8683 6.15412 19.4223V19.2955C6.15412 18.8495 5.74781 18.491 5.24935 18.4954H3.87964C3.87964 18.4954 3.86707 18.5041 3.86707 18.5129L3.86288 18.5172Z" fill="#716F6E"/>
<path d="M28.438 19.5665C28.2998 19.4572 28.1699 19.3304 28.0569 19.1861C28.0527 19.1817 28.0527 19.173 28.0569 19.1686C28.1574 19.0943 28.2579 19.02 28.3626 18.95C28.6642 18.7358 28.8904 18.4516 29.0454 18.1062C29.0454 18.0974 29.058 18.093 29.0663 18.0974C29.0705 18.0974 29.0747 18.1062 29.0747 18.1105C29.1082 18.7008 28.8988 19.1817 28.438 19.5621V19.5665Z" fill="#C02B26"/>
<path d="M28.0574 19.1729C28.0574 19.1729 28.0532 19.1816 28.0574 19.1904C28.1747 19.3347 28.3003 19.4571 28.4386 19.5708C28.7695 19.7544 29.0334 19.9992 29.2344 20.3053C29.2889 20.3928 29.4229 20.6551 29.3685 20.7556C29.3685 20.7119 29.3559 20.725 29.3308 20.795C29.3014 20.8737 29.2637 20.948 29.2219 21.0136C29.0376 20.7469 28.8449 20.537 28.648 20.3884C28.4009 20.2004 28.2082 20.0255 28.0741 19.8681C27.9694 19.7194 27.8857 19.5576 27.827 19.3871C27.7516 19.1729 27.7265 18.9499 27.7516 18.7094C27.7516 18.7051 27.7558 18.7007 27.7642 18.7007C27.7642 18.7007 27.7684 18.7007 27.7726 18.7051C27.8438 18.8668 27.9317 19.0155 28.0323 19.1598C28.0364 19.1685 28.0448 19.1685 28.0574 19.1685V19.1729Z" fill="#D9D9D9"/>
<path d="M12.8726 19.5227C12.8726 19.5227 12.8726 19.5314 12.881 19.5314C12.881 19.5314 12.8852 19.5314 12.8894 19.5314C13.1994 19.0592 13.6141 18.8363 14.1293 18.8712C14.9419 18.9237 15.3524 19.5358 15.3524 20.3491C15.3524 20.5283 15.3524 21.3547 15.3524 22.815C15.3524 22.8281 15.3398 22.8413 15.3272 22.8413H14.5063C14.5063 22.8413 14.4895 22.8325 14.4895 22.8238C14.4937 22.1242 14.4937 21.4115 14.4895 20.6945C14.4895 20.489 14.4686 20.3359 14.435 20.2266C14.2968 19.7807 13.9198 19.6189 13.501 19.7063C13.0946 19.7938 12.881 20.1611 12.8726 20.5852C12.8726 20.8606 12.8685 21.6039 12.8726 22.815C12.8726 22.8281 12.8643 22.8369 12.8517 22.8369H12.0307C12.0307 22.8369 12.0098 22.8281 12.0098 22.815V18.9718C12.0098 18.9718 12.0181 18.9499 12.0307 18.9499H12.8559C12.8559 18.9499 12.8726 18.9587 12.8726 18.9674V19.5271V19.5227Z" fill="#716F6E"/>
<path d="M20.1653 20.6245C20.3077 21.7394 19.5411 22.7669 18.4479 22.9199C17.3588 23.073 16.3577 22.2903 16.2153 21.1754C16.0729 20.0605 16.8394 19.033 17.9327 18.88C19.0217 18.7269 20.0228 19.5096 20.1653 20.6245ZM18.0793 19.6495C17.4593 19.7107 17.0028 20.3184 17.0656 21.0136C17.1284 21.7044 17.6813 22.2204 18.3013 22.1592C18.9212 22.0979 19.3778 21.4902 19.3149 20.795C19.2521 20.1042 18.6992 19.5883 18.0793 19.6495Z" fill="#716F6E"/>
<path d="M24.1568 19.5404C24.1568 19.5404 24.1694 19.5491 24.1778 19.5448C24.1778 19.5448 24.1778 19.5448 24.182 19.5448C24.5422 19.0551 25.003 18.8321 25.5559 18.8758C26.402 18.9414 26.7413 19.5754 26.7413 20.393C26.7413 20.7428 26.7413 21.5516 26.7413 22.8196C26.7413 22.8327 26.7287 22.8458 26.7162 22.8458H25.8952C25.8952 22.8458 25.8784 22.8371 25.8784 22.8283C25.8784 22.0064 25.8784 21.2631 25.8784 20.5985C25.8784 20.205 25.736 19.8159 25.3381 19.724C24.7558 19.5841 24.3537 19.9951 24.3412 20.5897C24.3412 20.7559 24.3412 21.4992 24.3412 22.824C24.3412 22.8371 24.3286 22.8502 24.316 22.8502H23.495C23.495 22.8502 23.4783 22.8415 23.4783 22.8327C23.4783 21.8927 23.4783 21.1407 23.4783 20.5679C23.4783 20.1744 23.3023 19.7852 22.896 19.7153C22.3934 19.6278 22.0164 19.9252 21.9536 20.4542C21.9452 20.5329 21.941 20.6204 21.941 20.7209C21.941 21.8358 21.941 22.5354 21.941 22.824C21.941 22.8371 21.9284 22.8502 21.9159 22.8502H21.0949C21.0949 22.8502 21.0781 22.8415 21.0781 22.8327V18.9676C21.0781 18.9676 21.0865 18.9458 21.0991 18.9458H21.9201C21.9201 18.9458 21.941 18.9545 21.941 18.9676V19.5054C21.941 19.5054 21.9452 19.5185 21.9536 19.5185C21.9536 19.5185 21.9578 19.5185 21.9619 19.5185C22.2635 19.0988 22.6028 18.8496 23.1306 18.8714C23.5997 18.8889 23.9474 19.1119 24.1694 19.5404H24.1568Z" fill="#716F6E"/>
<path d="M33.5194 22.1901C33.5194 22.1901 33.5278 22.212 33.5194 22.2207C33.2136 22.5574 32.8618 22.8197 32.4136 22.8984C32.0031 22.9728 31.5716 22.9334 31.1863 22.7498C30.0888 22.2207 29.7495 20.7954 30.3988 19.7723C30.7297 19.2476 31.2072 18.9546 31.8272 18.8847C32.4806 18.8147 33.0335 19.0246 33.4775 19.5187C33.4859 19.5318 33.4859 19.5449 33.4775 19.558L32.9958 20.1308C32.9958 20.1308 32.9707 20.1439 32.9623 20.1308C32.7906 19.9428 32.5392 19.7417 32.2837 19.6848C31.2952 19.4749 30.7297 20.4631 31.0062 21.3594C31.1109 21.7048 31.3831 22.0021 31.7266 22.1071C32.1329 22.2338 32.489 22.1245 32.8157 21.8535C32.8283 21.8447 32.8869 21.7879 33.0042 21.6873C33.0126 21.6786 33.0293 21.6786 33.0377 21.6873L33.5194 22.1901Z" fill="#716F6E"/>
<path d="M34.4364 21.7352C34.8301 22.05 35.4375 22.3123 35.9276 22.1505C36.0742 22.1025 36.1664 22.0063 36.1999 21.8663C36.2711 21.5778 36.0072 21.4422 35.7894 21.3592C35.7852 21.3592 35.538 21.2761 35.0563 21.1143C34.7966 21.0269 34.5453 20.8738 34.3861 20.6509C34.1097 20.2617 34.1809 19.6452 34.5076 19.2911C35.1275 18.6221 36.2334 18.8713 36.8952 19.3173C36.9078 19.3261 36.912 19.3436 36.9036 19.361L36.581 19.9469C36.581 19.9469 36.5559 19.9644 36.5433 19.9557C36.2124 19.7414 35.8145 19.5797 35.4208 19.6059C35.2281 19.619 35.0186 19.7414 35.0019 19.9644C34.9558 20.7033 37.3015 20.3448 36.9664 21.9844C36.7821 22.8807 35.7684 23.0163 35.0647 22.8414C34.6835 22.7452 34.3484 22.579 34.051 22.3342C34.0385 22.3254 34.0385 22.3079 34.0469 22.2948L34.4029 21.7308C34.4029 21.7308 34.428 21.7133 34.4406 21.7221L34.4364 21.7352Z" fill="#716F6E"/>
<path d="M7.93868 19.6673V18.9677C7.93868 18.9677 7.94287 18.9546 7.95124 18.9546H11.0802C11.0802 18.9546 11.0928 18.959 11.0928 18.9677V19.5623V19.5711L8.96911 22.0895C8.96911 22.0895 8.96492 22.1026 8.96911 22.1114C8.96911 22.1114 8.9733 22.1114 8.97749 22.1114H11.0802C11.0802 22.1114 11.0928 22.1157 11.0928 22.1245V22.8284C11.0928 22.8284 11.0886 22.8415 11.0802 22.8415H7.87585C7.87585 22.8415 7.86328 22.8372 7.86328 22.8284V22.2294V22.2207L9.98697 19.7022C9.98697 19.7022 9.99116 19.6891 9.98697 19.6804C9.98697 19.6804 9.98278 19.6804 9.9786 19.6804H7.95124C7.95124 19.6804 7.93868 19.676 7.93868 19.6673Z" fill="#C02B26"/>
<path d="M27.8267 19.3872C27.8854 19.5577 27.9692 19.7151 28.0739 19.8682C27.8938 20.0212 27.7346 20.2004 27.5964 20.4103L27.4581 20.148C27.4497 20.0474 27.4456 19.9862 27.4581 19.96C27.5126 19.7588 27.6382 19.5708 27.8267 19.3916V19.3872Z" fill="#C02B26"/>
<path d="M27.4619 20.1479L27.6001 20.4103C27.6965 20.5589 27.8096 20.6945 27.9394 20.8213C28.0483 20.9306 28.2201 21.0749 28.4463 21.2498C28.5384 21.3241 28.6389 21.4247 28.7479 21.5602C28.8526 21.7045 28.9405 21.8619 29.0034 22.0368C29.0746 22.251 29.0955 22.474 29.0746 22.7057C29.0746 22.7145 29.0662 22.7232 29.0578 22.7232C29.0536 22.7232 29.0453 22.7188 29.0453 22.7145C28.974 22.544 28.8819 22.3866 28.773 22.251C28.6599 22.1024 28.53 21.9756 28.3834 21.8706C27.9855 21.6214 27.6672 21.3547 27.4787 20.9087C27.4745 20.8956 27.4703 20.8825 27.4703 20.8737V20.1567L27.4619 20.1479Z" fill="#F7A709"/>
<path d="M29.3685 20.7513V21.4334C29.3685 21.4334 29.3602 21.4597 29.356 21.4771C29.2848 21.687 29.1675 21.875 28.9957 22.0412C28.9329 21.8663 28.8491 21.7089 28.7402 21.5646C28.9329 21.4028 29.0921 21.2192 29.2178 21.0181C29.2638 20.9481 29.3015 20.8738 29.3267 20.7994C29.3518 20.7295 29.3644 20.7164 29.3644 20.7601L29.3685 20.7513Z" fill="#716F6E"/>
<path d="M28.7612 22.2466L28.4512 22.4696C28.4512 22.4696 28.447 22.4739 28.4428 22.4783C28.3046 22.6138 28.1957 22.7669 28.1119 22.9374C27.9527 23.2653 27.8396 23.6151 27.7768 23.9911C27.7768 23.9955 27.7726 23.9999 27.7642 23.9999C27.7601 23.9999 27.7559 23.9955 27.7559 23.9867C27.7098 23.4752 27.7726 22.9811 27.9402 22.5089C28.024 22.2728 28.1664 22.0586 28.3758 21.8618C28.5224 21.9711 28.6523 22.0979 28.7654 22.2422L28.7612 22.2466Z" fill="#716F6E"/>
</g>
<circle cx="20" cy="20" r="19.5" stroke="black" stroke-opacity="0.05"/>
<defs>
<clipPath id="clip0_40531_76185">
<rect width="34" height="7" fill="white" transform="translate(3 17)"/>
</clipPath>
</defs>
</svg>
