<svg width="40" height="40" viewBox="0 0 40 40" fill="none" xmlns="http://www.w3.org/2000/svg">
<circle cx="20" cy="20" r="20" fill="#5465E4"/>
<g clip-path="url(#clip0_46073_83192)">
<path d="M6.42227 18.3568C6.33231 18.3341 6.23763 18.3429 6.15327 18.3818C6.06913 18.4205 6.0007 18.4871 5.95942 18.5704L4.61686 21.0451L3.27542 18.5701C3.23391 18.4869 3.16548 18.4201 3.08112 18.3814C2.99654 18.3424 2.90141 18.3339 2.81144 18.3568C2.72102 18.3818 2.6416 18.436 2.58506 18.5112C2.52875 18.5861 2.49891 18.6779 2.50003 18.772V22.3663H3.13743V19.7109L4.25586 21.7489C4.28907 21.8164 4.34067 21.8734 4.40439 21.9132C4.46833 21.9528 4.54192 21.9739 4.61708 21.9739C4.69202 21.9739 4.76583 21.9528 4.82955 21.9132C4.89349 21.8734 4.94487 21.8164 4.97808 21.7489L6.09673 19.7111V22.3663H6.73391V18.772C6.73526 18.6779 6.70519 18.5861 6.64888 18.511C6.59234 18.4358 6.51269 18.3816 6.42227 18.3568Z" fill="white"/>
<path d="M37.032 20.83C36.9532 20.7463 36.8581 20.6799 36.7527 20.6349C36.647 20.5901 36.533 20.5676 36.4186 20.569H35.4857C35.4433 20.5694 35.4011 20.5609 35.3621 20.544C35.3228 20.5269 35.2878 20.5019 35.2593 20.4706C35.2284 20.4391 35.2039 20.4016 35.1878 20.3604C35.1714 20.3194 35.1635 20.2753 35.1644 20.231C35.164 20.1876 35.1718 20.1442 35.1882 20.1037C35.2044 20.0634 35.2286 20.0265 35.2593 19.9957C35.2878 19.9642 35.3228 19.9392 35.3619 19.9221C35.4009 19.9052 35.4433 19.8967 35.4857 19.8971H37.0284V19.3326H35.4857C35.3713 19.331 35.2575 19.3537 35.1525 19.3996C35.0475 19.4453 34.9535 19.5128 34.8763 19.5979C34.7933 19.6807 34.7281 19.7794 34.6843 19.8883C34.6403 19.9972 34.619 20.1138 34.6213 20.231C34.6192 20.3491 34.6405 20.4661 34.6845 20.5757C34.7283 20.6851 34.7936 20.7847 34.8763 20.8684C34.954 20.9524 35.0482 21.019 35.1532 21.064C35.2582 21.109 35.3715 21.1312 35.4857 21.1294L36.4184 21.1337C36.4603 21.1333 36.5023 21.1414 36.5411 21.1573C36.5801 21.1735 36.6154 21.1976 36.6447 21.228C36.6755 21.2595 36.6997 21.2971 36.7161 21.338C36.7322 21.3792 36.7401 21.4233 36.7392 21.4674C36.7399 21.511 36.732 21.5542 36.7156 21.5947C36.6995 21.6352 36.6753 21.6719 36.6447 21.703C36.616 21.7342 36.581 21.7592 36.542 21.7763C36.503 21.7934 36.4608 21.802 36.4184 21.8015H34.724V22.3663H36.4184C36.5328 22.3676 36.6468 22.3453 36.7524 22.3003C36.8579 22.2553 36.953 22.189 37.0318 22.1053C37.1931 21.9322 37.2826 21.7045 37.2826 21.4678C37.2826 21.2309 37.1931 21.0032 37.0318 20.8302L37.032 20.83Z" fill="white"/>
<path d="M14.1163 18.1328C14.0681 18.1324 14.0203 18.1421 13.9759 18.1612C13.9317 18.1803 13.8918 18.2084 13.859 18.244C13.8245 18.2791 13.7973 18.3207 13.7789 18.3664C13.7605 18.4123 13.7513 18.4611 13.752 18.5106C13.7515 18.6089 13.7895 18.7034 13.8577 18.7741C13.8904 18.8103 13.9304 18.8393 13.9748 18.8591C14.0194 18.8789 14.0677 18.8893 14.1163 18.8893C14.165 18.8893 14.2133 18.8789 14.2577 18.8591C14.3023 18.8393 14.3423 18.8103 14.3748 18.7741C14.4432 18.7037 14.4812 18.6089 14.4807 18.5106C14.4814 18.4611 14.4724 18.4123 14.454 18.3664C14.4356 18.3207 14.4082 18.2791 14.3739 18.244C14.3409 18.2084 14.3012 18.1803 14.2568 18.1612C14.2126 18.1421 14.1646 18.1324 14.1163 18.1328Z" fill="white"/>
<path d="M14.1165 19.2378C14.0366 19.2378 13.9601 19.2695 13.9036 19.3262C13.8473 19.3829 13.8154 19.4596 13.8154 19.5397V22.3662H14.4181V19.5397C14.4181 19.4999 14.4102 19.4608 14.3952 19.4241C14.3799 19.3874 14.3577 19.3541 14.3297 19.326C14.3018 19.2981 14.2684 19.2758 14.2318 19.2607C14.1953 19.2454 14.1562 19.2378 14.1165 19.2378Z" fill="white"/>
<path d="M17.442 19.6306C17.3108 19.4995 17.1524 19.3989 16.9781 19.3357C16.5976 19.2052 16.1845 19.2052 15.804 19.3357C15.6297 19.3987 15.4715 19.4995 15.3403 19.6306C15.2056 19.7692 15.1033 19.9362 15.0407 20.1193C14.9692 20.3308 14.9342 20.5531 14.9378 20.7763V22.3664H15.5397V20.7763C15.5202 20.5201 15.6021 20.2663 15.7674 20.0701C15.9402 19.9186 16.1616 19.8352 16.3909 19.8352C16.6202 19.8352 16.8417 19.9186 17.0142 20.0701C17.1798 20.2665 17.2617 20.5203 17.2421 20.7766V22.3664H17.8443V20.7763C17.8477 20.5531 17.8129 20.3308 17.7411 20.1193C17.6785 19.9362 17.5764 19.7695 17.442 19.6306Z" fill="white"/>
<path d="M10.9738 18.3452C10.8928 18.3466 10.8154 18.3803 10.7588 18.439C10.7025 18.4975 10.6715 18.5761 10.6729 18.6575V22.3662H11.2748V18.6575C11.2762 18.5761 11.2452 18.4975 11.1887 18.439C11.1324 18.3803 11.055 18.3466 10.9738 18.3452Z" fill="white"/>
<path d="M13.0937 19.7543C13.1478 19.6973 13.1781 19.6217 13.1781 19.5432C13.1781 19.4645 13.1478 19.3889 13.0937 19.3322C13.0677 19.3045 13.0361 19.2824 13.0013 19.2674C12.9663 19.2525 12.9288 19.2446 12.8909 19.2446C12.8528 19.2446 12.8153 19.2525 12.7803 19.2674C12.7455 19.2824 12.7141 19.3045 12.6879 19.3322L11.5827 20.4837C11.5021 20.569 11.457 20.6819 11.457 20.7994C11.457 20.9168 11.5021 21.03 11.5827 21.1151L12.6051 22.3656H13.4159L12.0904 20.7996L13.0937 19.7543Z" fill="white"/>
<path d="M31.9972 18.2817C31.916 18.2831 31.8386 18.3168 31.7823 18.3756C31.7257 18.4343 31.695 18.5128 31.6963 18.5945V22.3662H32.2983V18.5945C32.2996 18.5128 32.2689 18.4343 32.2124 18.3756C32.1558 18.3168 32.0786 18.2831 31.9972 18.2817Z" fill="white"/>
<path d="M34.1162 19.7543C34.1703 19.6973 34.2006 19.6217 34.2006 19.5432C34.2006 19.4645 34.1703 19.3889 34.1162 19.3322C34.0902 19.3045 34.0588 19.2824 34.0238 19.2674C33.989 19.2525 33.9513 19.2446 33.9134 19.2446C33.8752 19.2446 33.8378 19.2525 33.8028 19.2674C33.768 19.2824 33.7366 19.3045 33.7105 19.3322L32.6054 20.4837C32.5244 20.569 32.4795 20.6819 32.4795 20.7994C32.4795 20.9168 32.5244 21.03 32.6054 21.1151L33.6275 22.3656H34.4384L33.1131 20.7996L34.1162 19.7543Z" fill="white"/>
<path d="M26.9462 19.3326H26.46C26.2879 19.3238 26.1158 19.3528 25.9561 19.4172C25.7961 19.4818 25.6521 19.5801 25.5339 19.7056C25.2821 20.031 25.161 20.4389 25.1937 20.8491C25.161 21.2595 25.2821 21.6672 25.5339 21.9925C25.6519 22.1183 25.7961 22.2169 25.9561 22.2812C26.1158 22.3458 26.2879 22.3746 26.46 22.366H26.9462C27.1176 22.3741 27.289 22.3449 27.4483 22.2805C27.6078 22.216 27.7514 22.1179 27.8694 21.9925C28.1227 21.6681 28.2452 21.2599 28.2125 20.8491C28.2443 20.4394 28.1218 20.0323 27.8694 19.7086C27.7519 19.5826 27.6083 19.4838 27.4488 19.419C27.2895 19.354 27.1178 19.3245 26.9462 19.3326ZM27.4465 21.5587C27.3765 21.635 27.2901 21.6942 27.1939 21.7315C27.0974 21.7689 26.9938 21.7835 26.891 21.7745H26.5145C26.4116 21.7835 26.3079 21.7689 26.2114 21.7315C26.1152 21.6942 26.0286 21.635 25.9588 21.5587C25.8242 21.3479 25.7632 21.0986 25.7847 20.8493C25.7636 20.5991 25.8246 20.3489 25.9588 20.137C26.0283 20.06 26.1147 20.0002 26.211 19.9621C26.3075 19.9243 26.4113 19.9093 26.5145 19.9185H26.891C26.994 19.9093 27.0979 19.9243 27.1943 19.9621C27.2906 20.0002 27.377 20.0598 27.4465 20.137C27.5807 20.3489 27.6419 20.5991 27.6208 20.8493C27.6422 21.0986 27.5811 21.3479 27.4465 21.5587Z" fill="white"/>
<path d="M28.9801 19.7056C28.7286 20.0309 28.6075 20.4388 28.64 20.849C28.6073 21.2594 28.7286 21.6671 28.9801 21.9925C29.0984 22.1182 29.2424 22.2168 29.4024 22.2811C29.5624 22.3457 29.7342 22.3745 29.9063 22.366H31.1955V21.7742H29.9617C29.859 21.7832 29.7553 21.7686 29.6588 21.7312C29.5626 21.6939 29.4762 21.6347 29.4062 21.5584C29.2716 21.3476 29.2103 21.0983 29.2319 20.849C29.2108 20.5988 29.2718 20.3486 29.4062 20.1367C29.4758 20.0597 29.5619 19.9999 29.6584 19.9618C29.7549 19.924 29.8587 19.909 29.9617 19.9182H31.1955V19.3325H29.9052C29.7333 19.324 29.5617 19.353 29.4019 19.4173C29.2422 19.4817 29.0984 19.5802 28.9801 19.7056Z" fill="white"/>
<path d="M24.5888 20.4846C24.7512 20.2458 24.8351 19.9621 24.8277 19.673C24.8291 19.5047 24.8028 19.3371 24.7501 19.1773C24.6989 19.0239 24.6148 18.8839 24.5033 18.7674C24.3844 18.6474 24.2408 18.5552 24.0824 18.4974C23.8937 18.4299 23.6945 18.3975 23.4941 18.4017H22.6855V19.0212H23.4997C23.6142 19.018 23.7281 19.0356 23.8363 19.0731C23.9139 19.1015 23.9844 19.1472 24.042 19.2066C24.0938 19.2626 24.1322 19.3299 24.154 19.4032C24.18 19.4907 24.193 19.5816 24.1921 19.673C24.1928 19.7655 24.18 19.8575 24.154 19.9464C24.132 20.0215 24.0934 20.0908 24.0409 20.1491C23.9839 20.2092 23.9139 20.2553 23.8363 20.2836C23.7281 20.3214 23.6142 20.339 23.4997 20.3358H23.1453C23.1228 20.3356 23.1008 20.3419 23.0815 20.3536C23.0622 20.3651 23.0465 20.382 23.036 20.402C23.0257 20.4218 23.0207 20.4443 23.0221 20.4668C23.0234 20.4893 23.0308 20.5111 23.0436 20.5296L23.336 20.9555L24.2998 22.3586L24.305 22.366H25.0768L24.0079 20.8828C24.241 20.8203 24.4461 20.6799 24.5888 20.4846Z" fill="white"/>
<path d="M20.6042 19.3326H19.5508C19.3787 19.3238 19.2067 19.3528 19.0469 19.4172C18.887 19.4815 18.7429 19.5801 18.6247 19.7056C18.3732 20.031 18.2518 20.4389 18.2845 20.8491C18.252 21.2595 18.3732 21.6672 18.6249 21.9923C18.7431 22.1181 18.8872 22.2166 19.0469 22.281C19.2069 22.3456 19.3787 22.3744 19.5511 22.3658H19.9518C20.0301 22.3658 20.105 22.3345 20.1604 22.2792C20.2156 22.2236 20.2468 22.1485 20.2468 22.0699C20.2468 21.9914 20.2156 21.916 20.1604 21.8607C20.105 21.8051 20.0301 21.7741 19.9518 21.7741H19.6062C19.5033 21.7831 19.3996 21.7684 19.3034 21.7311C19.2071 21.694 19.1205 21.6348 19.0505 21.5587C18.9159 21.3479 18.8549 21.0984 18.8764 20.8491C18.8553 20.5989 18.9163 20.3487 19.0505 20.1367C19.1201 20.0598 19.2064 19.9999 19.3027 19.9619C19.3992 19.9241 19.503 19.909 19.6062 19.9183H20.3509C20.3841 19.9183 20.4171 19.925 20.448 19.9376C20.4788 19.9504 20.5066 19.9691 20.5302 19.9927C20.5537 20.0164 20.5723 20.0445 20.5851 20.0753C20.5979 20.1061 20.6044 20.1392 20.6042 20.1727V22.366H21.2064V19.936C21.2064 19.8568 21.1909 19.7783 21.1606 19.705C21.1303 19.6318 21.0859 19.5652 21.03 19.5092C20.9742 19.4532 20.9078 19.4086 20.8346 19.3785C20.7617 19.3481 20.6834 19.3326 20.6042 19.3326Z" fill="white"/>
<path d="M9.55943 19.3326H8.50607C8.33398 19.3238 8.16212 19.3528 8.00216 19.4172C7.84241 19.4818 7.69837 19.5801 7.58014 19.7056C7.32885 20.0312 7.2077 20.4391 7.24068 20.8493C7.2077 21.2595 7.32863 21.667 7.57991 21.9923C7.69815 22.1181 7.84219 22.2166 8.00193 22.281C8.1619 22.3456 8.33376 22.3744 8.50584 22.3658H8.90655C8.98485 22.3658 9.05978 22.3345 9.1152 22.2792C9.17062 22.2236 9.20158 22.1485 9.20158 22.0699C9.20158 21.9914 9.17062 21.916 9.1152 21.8607C9.05978 21.8051 8.98485 21.7741 8.90655 21.7741H8.56148C8.4585 21.7833 8.35485 21.7687 8.2586 21.7313C8.16212 21.694 8.07552 21.6348 8.00575 21.5587C7.87113 21.3479 7.80988 21.0984 7.83142 20.8491C7.81033 20.5989 7.87135 20.3487 8.00575 20.1367C8.07507 20.0596 8.16145 19.9997 8.25793 19.9619C8.3544 19.9241 8.45828 19.909 8.56148 19.9183H9.30591C9.33934 19.9183 9.37232 19.925 9.40305 19.9376C9.43379 19.9504 9.46161 19.9691 9.48517 19.9927C9.50873 20.0164 9.52735 20.0445 9.54014 20.0753C9.55293 20.1061 9.55943 20.1392 9.55943 20.1727V22.366H10.1614V19.936C10.1614 19.8568 10.1459 19.7783 10.1156 19.705C10.0853 19.6318 10.0409 19.5652 9.98504 19.5092C9.92918 19.4532 9.86277 19.4086 9.78985 19.3785C9.71671 19.3481 9.63841 19.3326 9.55943 19.3326Z" fill="white"/>
<path d="M22.0365 18.4014C21.953 18.4014 21.8729 18.4347 21.8139 18.4938C21.7549 18.553 21.7217 18.6333 21.7217 18.717V22.3661H22.351V18.717C22.351 18.6333 22.3178 18.553 22.259 18.4938C22.2 18.4347 22.1199 18.4014 22.0365 18.4014Z" fill="white"/>
</g>
<circle cx="20" cy="20" r="19.5" stroke="black" stroke-opacity="0.05"/>
<defs>
<clipPath id="clip0_46073_83192">
<rect width="36" height="5" fill="white" transform="translate(2 18)"/>
</clipPath>
</defs>
</svg>
