<svg width="40" height="40" viewBox="0 0 40 40" fill="none" xmlns="http://www.w3.org/2000/svg">
<circle cx="20" cy="20" r="20" fill="#760000"/>
<g clip-path="url(#clip0_33937_59909)">
<path d="M29.9148 28.1716C27.9248 28.1716 26.6909 26.8171 26.6909 24.6555V24.6462C26.6909 22.48 27.9434 21.1348 29.9148 21.1348C31.8862 21.1348 33.134 22.4846 33.134 24.6462V24.6555C33.134 26.8171 31.8909 28.1716 29.9148 28.1716ZM29.9148 26.9841C31.0049 26.9841 31.7053 26.0703 31.7053 24.6555V24.6462C31.7053 23.2268 31.0002 22.3223 29.9148 22.3223C28.8247 22.3223 28.1196 23.2268 28.1196 24.6462V24.6555C28.1196 26.0703 28.8108 26.9841 29.9148 26.9841Z" fill="white"/>
<path d="M24.4634 28.0002V21.3066H25.8643V28.0002H24.4634Z" fill="white"/>
<path d="M19.3135 28.0002V21.3066H20.7144V26.8452H23.6924V28.0002H19.3135Z" fill="white"/>
<path d="M15.2629 28.1716C13.2729 28.1716 12.0391 26.8171 12.0391 24.6555V24.6462C12.0391 22.48 13.2915 21.1348 15.2629 21.1348C17.2344 21.1348 18.4822 22.4846 18.4822 24.6462V24.6555C18.4822 26.8171 17.239 28.1716 15.2629 28.1716ZM15.2629 26.9841C16.353 26.9841 17.0535 26.0703 17.0535 24.6555V24.6462C17.0535 23.2268 16.3484 22.3223 15.2629 22.3223C14.1729 22.3223 13.4678 23.2268 13.4678 24.6462V24.6555C13.4678 26.0703 14.1589 26.9841 15.2629 26.9841Z" fill="white"/>
<path d="M7.1582 28.0002V21.3066H11.5417V22.4617H8.55908V24.2568H11.282V25.3655H8.55908V28.0002H7.1582Z" fill="white"/>
<path d="M26.0642 19.0002V12.3066H30.4988V13.4617H27.4651V15.0759H30.3271V16.1521H27.4651V17.8452H30.4988V19.0002H26.0642Z" fill="white"/>
<path d="M17.9456 19.0002V12.3066H19.5505L21.4014 17.2051H21.4849L23.3311 12.3066H24.936V19.0002H23.6882V14.4451H23.5955L21.8792 19.0002H21.0024L19.2861 14.4451H19.1934V19.0002H17.9456Z" fill="white"/>
<path d="M15.4211 19.0002V12.3066H16.822V19.0002H15.4211Z" fill="white"/>
<path d="M11.2732 19.0002V13.4617H9.26465V12.3066H14.6826V13.4617H12.6741V19.0002H11.2732Z" fill="white"/>
</g>
<circle cx="20" cy="20" r="19.5" stroke="black" stroke-opacity="0.05"/>
<defs>
<clipPath id="clip0_33937_59909">
<rect width="27" height="17" fill="white" transform="translate(7 12)"/>
</clipPath>
</defs>
</svg>
