<svg width="40" height="40" viewBox="0 0 40 40" fill="none" xmlns="http://www.w3.org/2000/svg">
<circle cx="20" cy="20" r="20" fill="#F6F8FA"/>
<g clip-path="url(#clip0_30315_48366)">
<path d="M18.5363 14.2104C18.7094 14.2595 18.8825 14.3147 19.0432 14.3761V16.6706C18.2087 16.192 17.269 15.9528 16.2119 15.9528C14.9755 15.9528 13.9802 16.3516 13.2322 17.1491C12.4842 17.9466 12.1133 18.9896 12.1133 20.2718C12.1133 21.554 12.4657 22.5417 13.1766 23.2963C13.8875 24.0509 14.8333 24.4313 16.0141 24.4313C17.1268 24.4313 18.1407 24.1675 19.037 23.6399V25.8117C18.7218 25.9712 18.3632 26.1 17.9799 26.2043H21.2811V14.2104H18.5363Z" fill="#153D96"/>
<path d="M13.9317 14.2104H10V18.0203C10.2967 17.1552 10.7727 16.3945 11.4218 15.7381C12.1389 15.0141 12.9735 14.5049 13.9317 14.2104Z" fill="#153D96"/>
<path d="M10 22.8485V26.2105H13.5546C12.652 25.9467 11.8793 25.4927 11.2364 24.8362C10.68 24.2718 10.272 23.6031 10 22.8485Z" fill="#153D96"/>
<path d="M31.0002 14.2104H30.5366L26.0547 19.916L30.9384 26.2104H31.0002V14.2104Z" fill="#153D96"/>
<path d="M23.6995 20.3147H23.6562V26.2104H27.8847L24.021 20.9098C23.9344 20.781 23.8232 20.5846 23.6933 20.3147H23.6995Z" fill="#153D96"/>
<path d="M23.6995 19.8608C23.7675 19.7074 23.8788 19.5049 24.0333 19.2473L27.6869 14.2104H23.6562V19.8608H23.6995Z" fill="#153D96"/>
</g>
<circle cx="20" cy="20" r="19.5" stroke="black" stroke-opacity="0.05"/>
<defs>
<clipPath id="clip0_30315_48366">
<rect width="21" height="12" fill="white" transform="translate(10 14.2104)"/>
</clipPath>
</defs>
</svg>
