<svg width="40" height="40" viewBox="0 0 40 40" fill="none" xmlns="http://www.w3.org/2000/svg">
<circle cx="20" cy="20" r="20" fill="#26247B"/>
<g clip-path="url(#clip0_31166_48471)">
<path d="M3.30113 20.9731C3.83342 21.2458 4.31077 21.374 4.91315 21.374C5.57993 21.374 5.94931 21.2173 5.94931 20.9324C5.94931 20.1937 3.03783 21.024 3.03783 19.2821C3.03783 18.4701 3.68188 18 4.85822 18C5.57804 18 6.17473 18.175 6.71081 18.464L6.40394 19.219C5.87165 18.9585 5.41513 18.8425 4.83548 18.8425C4.20659 18.8425 3.8732 18.9809 3.8732 19.2373C3.8732 19.9923 6.82825 19.1498 6.82825 20.8917C6.82825 21.7281 6.13495 22.2145 4.88852 22.2145C4.1365 22.2145 3.52844 22.0293 2.99805 21.7261L3.29924 20.9711L3.30113 20.9731ZM7.44957 21.4636L8.78692 18.1852H10.3459L11.6889 21.4636V22.1209H10.8289V21.7281L10.738 21.4921H8.40049L8.30957 21.7281V22.1209H7.44957V21.4636ZM10.4198 20.674L9.7852 19.0236H9.34384L8.70926 20.674H10.4179H10.4198ZM12.6114 18.1852H13.9336L14.8997 20.1368L15.8658 18.1852H17.188V22.1209H16.328V19.0928L15.2634 21.1827H14.5322L13.4677 19.0928V22.1229H12.6077V18.1852H12.6114ZM18.8985 18.1852L19.7737 20.3545H20.3325L21.2019 18.1852H22.1585L20.1866 23H19.23L19.9763 21.1929H19.1751L17.94 18.1852H18.8966H18.8985ZM22.0998 21.4636L23.4372 18.1852H24.9962L26.3392 21.4636V22.1209H25.4792V21.7281L25.3883 21.4921H23.0507L22.9598 21.7281V22.1209H22.0998V21.4636ZM25.0719 20.674L24.4373 19.0236H23.996L23.3614 20.674H25.07H25.0719ZM27.2636 18.1852H28.1331L30.1902 20.7534V18.1852H31.0502V22.1209H30.1808L28.1236 19.5527V22.1209H27.2636V18.1852ZM34.1189 22.2145C32.8346 22.2145 31.9424 21.3659 31.9424 20.149C31.9424 18.932 32.8346 18.0936 34.1189 18.0936C34.6664 18.0936 35.2744 18.2503 35.8711 18.5372L35.5548 19.3228C35.0168 19.0806 34.5224 18.9524 34.1208 18.9524C33.3423 18.9524 32.8214 19.4306 32.8214 20.1469C32.8214 20.8632 33.3366 21.3537 34.1208 21.3537C34.5338 21.3537 34.9051 21.2784 35.1418 21.1685V20.6842H34.1417V19.8885H35.9999V21.7403C35.5965 22.0171 34.8122 22.2145 34.1189 22.2145Z" fill="white"/>
</g>
<circle cx="20" cy="20" r="19.5" stroke="black" stroke-opacity="0.05"/>
<defs>
<clipPath id="clip0_31166_48471">
<rect width="33" height="5" fill="white" transform="translate(3 18)"/>
</clipPath>
</defs>
</svg>
