<svg width="40" height="40" viewBox="0 0 40 40" fill="none" xmlns="http://www.w3.org/2000/svg">
<circle cx="20" cy="20" r="20" fill="#F6F8FA"/>
<g clip-path="url(#clip0_30798_48360)">
<path d="M6.65935 23.732H4.07464C4.06136 23.7319 4.04836 23.7284 4.03694 23.7219C4.02551 23.7153 4.01608 23.706 4.0096 23.6948C4.00311 23.6836 3.9998 23.6709 4.00001 23.6581C4.00021 23.6452 4.00392 23.6327 4.01076 23.6217L7.58327 17.6321C7.5901 17.6211 7.59982 17.6121 7.61144 17.6059C7.62306 17.5997 7.63616 17.5965 7.64943 17.5968H10.2341C10.2474 17.5969 10.2604 17.6004 10.2718 17.607C10.2833 17.6135 10.2927 17.6229 10.2992 17.6341C10.3057 17.6453 10.309 17.6579 10.3088 17.6708C10.3086 17.6836 10.3049 17.6962 10.298 17.7072L6.7255 23.6967C6.71867 23.7077 6.70895 23.7168 6.69734 23.723C6.68572 23.7292 6.67261 23.7323 6.65935 23.732Z" fill="#0092D6"/>
<path d="M14.4781 20.043C14.4781 19.8943 14.4401 19.884 14.364 20.0121L12.1991 23.6415C12.1656 23.6975 12.1147 23.7254 12.0462 23.7254H9.37939C9.28662 23.7254 9.24023 23.6805 9.24023 23.5908V20.2196C9.24023 20.1416 9.26001 20.068 9.29955 19.9988L10.4858 17.9192C10.6835 17.5733 10.7725 17.5991 10.7527 17.9964C10.7284 18.4601 10.7147 19.4381 10.7117 20.9305C10.7117 20.9938 10.739 21.0225 10.7938 21.0166C10.8051 21.0153 10.8157 21.0116 10.8249 21.0058C10.834 21.0001 10.8414 20.9924 10.8463 20.9835L12.596 17.9037C12.6497 17.8083 12.7291 17.7286 12.8259 17.673C12.9226 17.6175 13.0331 17.5881 13.1458 17.588H15.8081C15.9054 17.588 15.9541 17.6358 15.9541 17.7315V23.6349C15.9541 23.6595 15.944 23.6831 15.926 23.7005C15.9081 23.7179 15.8837 23.7276 15.8583 23.7276H14.5397C14.4986 23.7276 14.4781 23.7048 14.4781 23.6592V20.043Z" fill="#002C73"/>
<path d="M19.8635 19.14V23.6194C19.8635 23.6481 19.852 23.6756 19.8315 23.6959C19.8109 23.7162 19.7831 23.7276 19.754 23.7276H17.2172C17.1518 23.7276 17.1191 23.6952 17.1191 23.6304V17.7226C17.1191 17.6358 17.1632 17.5924 17.2515 17.5924C18.6704 17.5879 20.5624 17.5835 22.9273 17.5791C23.6665 17.5776 24.2155 17.6858 24.5744 17.9036C25.1889 18.279 25.4938 18.9015 25.4892 19.7714C25.4847 20.6397 25.4816 21.9246 25.4801 23.626C25.4801 23.6937 25.4451 23.7276 25.3752 23.7276H22.8566C22.8251 23.7276 22.795 23.7153 22.7727 23.6933C22.7505 23.6714 22.738 23.6416 22.738 23.6106V19.7206C22.738 19.535 22.6615 19.357 22.5255 19.2257C22.3894 19.0945 22.2049 19.0207 22.0125 19.0207H19.9867C19.9046 19.0207 19.8635 19.0605 19.8635 19.14Z" fill="#002C73"/>
<path d="M29.3873 20.6567C29.3873 21.1704 29.379 21.676 29.3622 22.1734C29.3616 22.1892 29.3643 22.2049 29.3701 22.2196C29.3759 22.2343 29.3847 22.2477 29.396 22.259C29.4073 22.2704 29.4208 22.2794 29.4358 22.2855C29.4508 22.2917 29.4669 22.2949 29.4832 22.2949H34.8853C34.9613 22.2949 34.9993 22.3309 34.9993 22.403V23.6283C34.9993 23.6931 34.9659 23.7254 34.899 23.7254H26.7479C26.7318 23.7255 26.7159 23.7224 26.7011 23.7163C26.6863 23.7103 26.6728 23.7015 26.6616 23.6904C26.6503 23.6793 26.6415 23.6661 26.6355 23.6517C26.6296 23.6372 26.6267 23.6218 26.627 23.6062C26.6376 22.8218 26.6429 21.8386 26.6429 20.6567C26.6429 19.4734 26.6376 18.4895 26.627 17.705C26.6267 17.6895 26.6296 17.674 26.6355 17.6596C26.6415 17.6451 26.6503 17.632 26.6616 17.6209C26.6728 17.6098 26.6863 17.6009 26.7011 17.5949C26.7159 17.5889 26.7318 17.5858 26.7479 17.5858L34.899 17.588C34.9659 17.588 34.9993 17.6204 34.9993 17.6852V18.9104C34.9993 18.9826 34.9613 19.0186 34.8853 19.0186H29.4832C29.4669 19.0186 29.4508 19.0218 29.4358 19.0279C29.4208 19.0341 29.4073 19.0431 29.396 19.0544C29.3847 19.0658 29.3759 19.0792 29.3701 19.0939C29.3643 19.1086 29.3616 19.1243 29.3622 19.14C29.379 19.6375 29.3873 20.1431 29.3873 20.6567Z" fill="#002C73"/>
</g>
<circle cx="20" cy="20" r="19.5" stroke="black" stroke-opacity="0.05"/>
<defs>
<clipPath id="clip0_30798_48360">
<rect width="31" height="7" fill="white" transform="translate(4 17.2104)"/>
</clipPath>
</defs>
</svg>
