<svg width="40" height="40" viewBox="0 0 40 40" fill="none" xmlns="http://www.w3.org/2000/svg">
<circle cx="20" cy="20" r="20" fill="#001B71"/>
<g clip-path="url(#clip0_35307_70697)">
<path d="M5.0361 21.0819H2.37718C2.17178 21.0819 2.01494 20.9242 2 20.6613V18.1092H4.84564V18.5298H2.79544V19.3185H4.84191V19.7391H2.79544V20.6572H5.0361V21.0779V21.0819ZM5.32739 22V18.0566H6.12282V22H5.32739Z" fill="white"/>
<path d="M8.75147 18.5825H9.12865V18.0568H9.92408V20.2651H9.12865V19.0032H8.88217C8.88591 19.0274 8.88591 19.0558 8.88591 19.08C8.88591 19.3753 8.76641 19.626 8.5274 19.8404C8.29587 20.0507 8.00832 20.1559 7.67222 20.1559C7.10458 20.1559 6.46973 19.7635 6.46973 19.08C6.46973 18.3965 7.10458 17.9961 7.67222 17.9961C8.09047 17.9961 8.5162 18.1902 8.74773 18.5785L8.75147 18.5825ZM7.24276 19.0679C7.24276 19.3348 7.37346 19.7352 7.67595 19.7352C7.97844 19.7352 8.11288 19.3429 8.11288 19.0679C8.11288 18.7929 7.96724 18.4208 7.67595 18.4208C7.38466 18.4208 7.24276 18.7929 7.24276 19.0679ZM10.1444 22.0001V20.9243H7.68342V20.5037H10.9361V22.0001H10.1444ZM10.1257 20.2651V18.0568H10.9212V20.2651H10.1257Z" fill="white"/>
<path d="M11.3291 20.896H15.4557V21.3167H11.3291V20.896ZM13.9245 18.1094C13.9395 19.4966 15.0561 19.7636 15.2167 19.7959V20.2166C14.0776 20.2125 13.6258 19.4683 13.4129 18.983L13.3942 18.9264L13.3756 18.983C13.1963 19.4724 12.7108 20.2125 11.5756 20.2166V19.7959C11.7324 19.7636 12.8453 19.4966 12.8602 18.1094H13.9283H13.9245Z" fill="white"/>
<path d="M17.1091 20.0748C16.6908 20.0748 16.351 19.9737 16.0896 19.7715C15.8319 19.5774 15.7012 19.3347 15.7012 19.0475C15.7012 18.7442 15.8319 18.4975 16.0896 18.2993C16.351 18.1011 16.6908 18 17.1091 18C17.6879 18 18.5132 18.2831 18.5132 19.0475C18.5132 19.3347 18.3825 19.5774 18.1211 19.7715C17.8485 19.9778 17.5161 20.0748 17.1128 20.0748H17.1091ZM17.1464 21.5915H19.7008V22H16.7506C16.5377 21.9757 16.3659 21.7937 16.351 21.5592V20.9687H18.8829V20.7543H16.351V20.3458H19.6784V21.3691H17.1464V21.5915ZM17.1091 19.6704C17.4452 19.6704 17.7215 19.4075 17.7215 19.0394C17.7215 18.6714 17.4526 18.4044 17.1091 18.4044C16.7655 18.4044 16.4929 18.6512 16.4929 19.0394C16.4929 19.4277 16.7655 19.6704 17.1091 19.6704ZM19.6821 18.0647V18.5865H20.1676V19.0071H19.6821V20.2164H18.8867V18.0647H19.6821Z" fill="white"/>
<path d="M22.9577 20.2489V20.896H24.5934V21.3167H20.4668V20.896H22.1585V20.2489H21.1166C20.9 20.2287 20.7581 20.0507 20.7431 19.8283V18.9709H23.4992V18.53H20.7431V18.1094H23.9324C24.1303 18.1296 24.2909 18.2792 24.2909 18.53H24.2946V19.3915H21.5386V19.8283H24.3133V20.2489H22.9539H22.9577Z" fill="white"/>
<path d="M27.3756 20.3177V20.896H29.0113V21.3167H24.8848V20.896H26.5802V20.3177H25.5383C25.3329 20.2934 25.1686 20.1235 25.1611 19.897V18.1094H25.9566V18.8091H27.9507V18.1094H28.7462V20.3177H27.3794H27.3756ZM25.9528 19.2297V19.897H27.947V19.2297H25.9528Z" fill="white"/>
<path d="M29.7844 20.2124C29.5865 20.176 29.4296 20.0061 29.4072 19.7917V18.1092H32.2081V18.5298H30.2027V18.9505H32.2081V19.3711H30.2027V19.7917H32.4022V20.2124H29.7881H29.7844ZM30.1877 20.4752H33.489V22H32.6935V20.8959H30.1877V20.4752ZM32.6898 18.0566H33.4852V20.3175H32.6898V18.0566Z" fill="white"/>
<path d="M33.873 20.896H37.9996V21.3167H33.873V20.896ZM36.4722 18.1094C36.4872 19.4966 37.6038 19.7636 37.7643 19.7959V20.2166C36.6253 20.2125 36.1735 19.4683 35.9606 18.983L35.9419 18.9264L35.9233 18.983C35.744 19.4724 35.2585 20.2125 34.1233 20.2166V19.7959C34.2801 19.7636 35.393 19.4966 35.4079 18.1094H36.476H36.4722Z" fill="white"/>
</g>
<circle cx="20" cy="20" r="19.5" stroke="black" stroke-opacity="0.05"/>
<defs>
<clipPath id="clip0_35307_70697">
<rect width="36.0001" height="5.00002" fill="white" transform="translate(2 17)"/>
</clipPath>
</defs>
</svg>
