<svg width="40" height="40" viewBox="0 0 40 40" fill="none" xmlns="http://www.w3.org/2000/svg">
<circle cx="20" cy="20" r="20" fill="#F6F8FA"/>
<g clip-path="url(#clip0_38802_75791)">
<path d="M18.4922 20.54C18.4922 20.6022 18.4922 21.0274 18.4922 21.8173C18.4922 21.9921 18.5125 22.1316 18.553 22.2324C18.7098 22.6291 19.1191 22.7854 19.5578 22.7904C19.5855 22.7904 19.6058 22.8106 19.6058 22.8358V23.8055C19.6058 23.8257 19.5892 23.8408 19.5671 23.8408C18.3724 23.8442 17.2735 23.0694 17.2754 21.9181C17.2754 21.1131 17.2754 19.7635 17.2754 17.8728C17.2754 17.8559 17.2901 17.8408 17.3104 17.8408H18.4535C18.4756 17.8408 18.4941 17.8576 18.4941 17.8778V19.4912C18.4941 19.5013 18.5033 19.5114 18.5143 19.5114H19.5855C19.6058 19.5114 19.6224 19.5265 19.6224 19.545V20.4795C19.6224 20.5013 19.6039 20.5181 19.58 20.5181H18.5162C18.5033 20.5181 18.4941 20.5282 18.4941 20.5383L18.4922 20.54Z" fill="#242A38"/>
<path d="M30.109 17.8423C30.3247 17.8423 30.5404 17.8423 30.7543 17.8423C30.7727 17.8423 30.7893 17.8524 30.7948 17.8675L33.3391 23.7196C33.3446 23.7314 33.3391 23.7431 33.3262 23.7482C33.3225 23.7482 33.3206 23.7482 33.317 23.7482H32.0356C32.019 23.7482 32.0043 23.7398 31.9987 23.7263L31.5397 22.6709C31.536 22.6608 31.5249 22.654 31.512 22.654C30.592 22.6507 30.1237 22.6473 30.109 22.6473C30.0942 22.6473 29.6278 22.649 28.706 22.654C28.6931 22.654 28.682 22.6608 28.6783 22.6709L28.2211 23.7263C28.2156 23.7398 28.2008 23.7498 28.1842 23.7498H26.9029C26.89 23.7498 26.8789 23.7414 26.8789 23.7297C26.8789 23.7263 26.8789 23.7246 26.8789 23.7213L29.4232 17.8709C29.4305 17.8557 29.4453 17.8456 29.4637 17.8456C29.6794 17.8456 29.8933 17.844 30.109 17.844V17.8423ZM29.1374 21.528C29.1374 21.528 29.1374 21.5381 29.1429 21.5398C29.1429 21.5398 29.1448 21.5398 29.1466 21.5398H31.0788C31.0788 21.5398 31.088 21.5347 31.088 21.5297C31.088 21.5297 31.088 21.528 31.088 21.5263L30.1219 19.3246C30.1219 19.3246 30.1145 19.3179 30.109 19.3196C30.1072 19.3196 30.1035 19.323 30.1035 19.3246L29.1374 21.5263V21.528Z" fill="#242A38"/>
<path d="M34.5812 17.8423H34.2641C34.0136 17.8423 33.8105 18.0274 33.8105 18.2557V23.3381C33.8105 23.5664 34.0136 23.7515 34.2641 23.7515H34.5812C34.8317 23.7515 35.0347 23.5664 35.0347 23.3381V18.2557C35.0347 18.0274 34.8317 17.8423 34.5812 17.8423Z" fill="#242A38"/>
<path d="M9.63097 21.8911C9.63097 21.8911 9.64018 21.8961 9.64387 21.8911C9.64571 21.8911 9.64756 21.8877 9.64756 21.8844C9.64756 20.602 9.64756 19.2928 9.64756 17.9583C9.64756 17.8323 9.73237 17.8474 9.84299 17.8491C9.9407 17.8491 10.2523 17.8491 10.7777 17.8491C10.8386 17.8491 10.8791 17.8726 10.8791 17.9297C10.8791 20.0524 10.8791 21.9684 10.8791 23.6793C10.8791 23.755 10.8275 23.7667 10.7538 23.7667C10.4219 23.7667 10.1103 23.7667 9.81533 23.7667C9.78952 23.7667 9.76555 23.7566 9.74896 23.7381L6.28288 19.9146C6.28288 19.9146 6.27366 19.9113 6.26998 19.9146C6.26813 19.9146 6.26629 19.918 6.26629 19.9213C6.26629 21.3802 6.26629 22.6272 6.26629 23.6592C6.26629 23.7802 6.19439 23.7684 6.08192 23.7684C5.49748 23.7684 5.17669 23.7684 5.12138 23.7667C5.02182 23.765 5.03473 23.6928 5.03473 23.6155C5.03473 22.0575 5.03473 20.16 5.03473 17.923C5.03473 17.844 5.11216 17.8508 5.18959 17.8508C5.48274 17.8508 5.77035 17.8508 6.05427 17.8508C6.08008 17.8508 6.10589 17.8625 6.12248 17.881L9.63097 21.8911Z" fill="#242A38"/>
<path d="M16.6504 21.4961C16.6504 22.7919 15.4981 23.8423 14.0767 23.8423C12.6552 23.8423 11.5029 22.7919 11.5029 21.4961C11.5029 20.2003 12.6552 19.1499 14.0767 19.1499C15.4981 19.1499 16.6504 20.2003 16.6504 21.4961ZM15.4686 21.4961C15.4686 20.7953 14.8455 20.2272 14.0767 20.2272C13.3079 20.2272 12.6847 20.7953 12.6847 21.4961C12.6847 22.197 13.3079 22.765 14.0767 22.765C14.8455 22.765 15.4686 22.197 15.4686 21.4961Z" fill="#1AD2EA"/>
<path d="M23.9085 19.449V19.2338C23.9085 19.2036 23.9362 19.1784 23.9694 19.1784H25.0571C25.0903 19.1784 25.118 19.2036 25.118 19.2338C25.1161 20.207 25.1161 21.0624 25.118 21.8002C25.118 21.8742 25.1217 21.9431 25.1253 22.0103C25.1548 22.4002 25.2747 22.6221 25.6803 22.738C25.7043 22.7448 25.7208 22.7649 25.7208 22.7885V23.7296C25.7208 23.7515 25.7006 23.77 25.6766 23.77C25.6748 23.77 25.6711 23.77 25.6692 23.77C25.177 23.6943 24.7658 23.4927 24.434 23.1649C24.4284 23.1599 24.4211 23.1599 24.4155 23.1649C24.174 23.3851 23.8901 23.5532 23.5656 23.6725C21.9985 24.2456 20.236 23.3011 20.0498 21.7633C19.8193 19.8523 22.0409 18.5263 23.8864 19.4641C23.8938 19.4675 23.903 19.4641 23.9085 19.4591C23.9085 19.4574 23.9104 19.454 23.9104 19.4523L23.9085 19.449ZM23.9989 21.4977C23.9989 20.7969 23.3757 20.2288 22.6069 20.2288C21.8381 20.2288 21.2149 20.7969 21.2149 21.4977C21.2149 22.1985 21.8381 22.7666 22.6069 22.7666C23.3757 22.7666 23.9989 22.1985 23.9989 21.4977Z" fill="#242A38"/>
</g>
<circle cx="20" cy="20" r="19.5" stroke="black" stroke-opacity="0.05"/>
<defs>
<clipPath id="clip0_38802_75791">
<rect width="30.001" height="7" fill="white" transform="translate(5.03418 16.8423)"/>
</clipPath>
</defs>
</svg>
