<svg width="40" height="40" viewBox="0 0 40 40" fill="none" xmlns="http://www.w3.org/2000/svg">
<circle cx="20" cy="20" r="20" fill="#25272A"/>
<g clip-path="url(#clip0_46073_83191)">
<path d="M19.4414 16L20.5694 16.9951C20.5791 17.0037 20.587 17.0141 20.5923 17.0257C20.5976 17.0373 20.6004 17.0498 20.6004 17.0624V22.9824C20.6004 22.9877 20.5993 22.9929 20.5973 22.9977C20.5952 23.0026 20.5922 23.007 20.5884 23.0107C20.5846 23.0144 20.5801 23.0174 20.5751 23.0194C20.5701 23.0214 20.5648 23.0224 20.5594 23.0224H19.4504C19.4377 23.0224 19.4255 23.0174 19.4164 23.0084C19.4074 22.9995 19.4024 22.9873 19.4024 22.9746L19.4004 16H19.4414Z" fill="white"/>
<path d="M35.0005 17V20.4059C34.8765 21.1838 34.5238 21.8182 33.9425 22.3093C32.1785 23.7991 29.3855 22.8693 28.9135 20.6391C28.5035 18.7025 30.0345 16.9522 32.0525 17.0176C32.6551 17.0378 33.2231 17.2283 33.7565 17.5893C33.7629 17.5937 33.7704 17.5963 33.7782 17.5968C33.786 17.5973 33.7938 17.5956 33.8008 17.592C33.8078 17.5884 33.8137 17.583 33.8179 17.5763C33.8221 17.5696 33.8243 17.562 33.8245 17.5542V16.0683C33.8245 16.0596 33.827 16.0511 33.8319 16.0438C33.8368 16.0365 33.8437 16.0308 33.8519 16.0273C33.86 16.0237 33.8691 16.0226 33.8779 16.024C33.8867 16.0254 33.8949 16.0293 33.9015 16.0352L35.0005 17ZM33.8205 20.0215C33.8205 19.5327 33.6214 19.064 33.2672 18.7184C32.9129 18.3727 32.4325 18.1786 31.9315 18.1786C31.4305 18.1786 30.95 18.3727 30.5957 18.7184C30.2415 19.064 30.0425 19.5327 30.0425 20.0215C30.0425 20.5103 30.2415 20.979 30.5957 21.3246C30.95 21.6703 31.4305 21.8644 31.9315 21.8644C32.4325 21.8644 32.9129 21.6703 33.2672 21.3246C33.6214 20.979 33.8205 20.5103 33.8205 20.0215Z" fill="white"/>
<path d="M6.178 23.9998H6.087L5 23.0447V19.6252C5.303 17.7716 7.123 16.5823 9.004 17.155C10.292 17.5472 11.115 18.6642 11.152 19.9901C11.185 21.2155 10.386 22.3667 9.243 22.7998C8.18367 23.2018 7.18033 23.0831 6.233 22.4437C6.22855 22.4408 6.22335 22.439 6.21795 22.4387C6.21255 22.4383 6.20716 22.4394 6.20235 22.4418C6.19753 22.4442 6.19347 22.4478 6.19059 22.4523C6.18772 22.4567 6.18613 22.4619 6.186 22.4672L6.178 23.9998ZM9.958 20.0213C9.958 19.5325 9.75898 19.0638 9.40472 18.7182C9.05047 18.3725 8.56999 18.1784 8.069 18.1784C7.56801 18.1784 7.08753 18.3725 6.73328 18.7182C6.37902 19.0638 6.18 19.5325 6.18 20.0213C6.18 20.5101 6.37902 20.9788 6.73328 21.3245C7.08753 21.6701 7.56801 21.8642 8.069 21.8642C8.56999 21.8642 9.05047 21.6701 9.40472 21.3245C9.75898 20.9788 9.958 20.5101 9.958 20.0213Z" fill="white"/>
<path d="M18.212 20.0225C18.212 20.4178 18.1322 20.8093 17.9771 21.1746C17.822 21.5399 17.5947 21.8718 17.3082 22.1514C17.0216 22.4309 16.6814 22.6527 16.307 22.804C15.9326 22.9553 15.5313 23.0332 15.126 23.0332C14.3076 23.0332 13.5226 22.716 12.9439 22.1514C12.3652 21.5867 12.04 20.8209 12.04 20.0225C12.04 19.224 12.3652 18.4582 12.9439 17.8935C13.5226 17.3289 14.3076 17.0117 15.126 17.0117C15.5313 17.0117 15.9326 17.0896 16.307 17.2409C16.6814 17.3922 17.0216 17.614 17.3082 17.8935C17.5947 18.1731 17.822 18.505 17.9771 18.8703C18.1322 19.2356 18.212 19.6271 18.212 20.0225ZM17.015 20.0215C17.015 19.5327 16.816 19.0639 16.4618 18.7183C16.1075 18.3727 15.627 18.1785 15.126 18.1785C14.625 18.1785 14.1446 18.3727 13.7903 18.7183C13.4361 19.0639 13.237 19.5327 13.237 20.0215C13.237 20.5102 13.4361 20.979 13.7903 21.3246C14.1446 21.6702 14.625 21.8644 15.126 21.8644C15.627 21.8644 16.1075 21.6702 16.4618 21.3246C16.816 20.979 17.015 20.5102 17.015 20.0215Z" fill="white"/>
<path d="M23.1073 20.438C23.0973 20.438 23.0874 20.4403 23.0785 20.4447C23.0696 20.4491 23.0619 20.4556 23.056 20.4635C23.0501 20.4714 23.0463 20.4806 23.0448 20.4902C23.0433 20.4999 23.0441 20.5098 23.0473 20.519C23.3863 21.4976 24.3753 22.0976 25.4003 21.7922C25.7996 21.6732 26.1156 21.465 26.3483 21.1678C26.4383 21.0527 26.4926 20.9841 26.5113 20.9619C26.521 20.9506 26.5332 20.9415 26.547 20.9353C26.5609 20.9291 26.576 20.9258 26.5913 20.9258H27.7333C27.7437 20.9259 27.754 20.9284 27.7632 20.9331C27.7724 20.9377 27.7804 20.9445 27.7864 20.9527C27.7923 20.9609 27.7962 20.9704 27.7976 20.9803C27.7989 20.9903 27.7978 21.0003 27.7943 21.0097C27.0593 23.0039 24.5243 23.6917 22.8783 22.3161C21.1373 20.8615 21.5503 18.1297 23.6783 17.2478C24.9293 16.7297 26.4163 17.0858 27.2793 18.1385C27.8126 18.7889 28.0313 19.5415 27.9353 20.3961C27.9338 20.4077 27.928 20.4184 27.919 20.4262C27.91 20.4339 27.8983 20.4381 27.8863 20.438H23.1073ZM24.8743 19.2673C25.7883 19.268 26.3436 19.2654 26.5403 19.2595C26.547 19.2593 26.5536 19.2575 26.5593 19.2541C26.5651 19.2507 26.5698 19.246 26.5732 19.2403C26.5765 19.2346 26.5782 19.2282 26.5783 19.2216C26.5783 19.2151 26.5766 19.2086 26.5733 19.2029C26.2263 18.5815 25.6003 18.1697 24.8743 18.1697C24.1493 18.1688 23.5223 18.5805 23.1753 19.2019C23.172 19.2077 23.1703 19.2141 23.1704 19.2206C23.1704 19.2272 23.1721 19.2336 23.1755 19.2393C23.1788 19.245 23.1835 19.2498 23.1893 19.2531C23.1951 19.2565 23.2016 19.2584 23.2083 19.2585C23.405 19.2644 23.9603 19.2673 24.8743 19.2673Z" fill="white"/>
</g>
<circle cx="20" cy="20" r="19.5" stroke="black" stroke-opacity="0.05"/>
<defs>
<clipPath id="clip0_46073_83191">
<rect width="30" height="8" fill="white" transform="translate(5 16)"/>
</clipPath>
</defs>
</svg>
