<svg width="40" height="40" viewBox="0 0 40 40" fill="none" xmlns="http://www.w3.org/2000/svg">
<circle cx="20" cy="20" r="20" fill="#F6F8FA"/>
<g clip-path="url(#clip0_40023_77799)">
<path d="M6.98494 18L7.97193 20.4888L8.9633 22.9663C8.9633 22.9663 8.96549 22.9753 8.96549 22.9798C8.96549 22.9888 8.95891 22.9978 8.95014 22.9978H7.00249C7.00249 22.9978 6.98275 22.991 6.98055 22.982L5 18H6.98494Z" fill="#008B7C"/>
<path d="M10.9438 18L8.9611 22.9663L7.96973 20.4888L8.9611 18H10.946H10.9438Z" fill="#EBA300"/>
<path d="M13.4288 18V22.973C13.4288 22.9865 13.4178 22.9955 13.4047 22.9955H11.4702C11.4592 22.9955 11.4482 22.9865 11.4482 22.973V18H13.4266H13.4288Z" fill="#102C49"/>
<path d="M18.8834 18V19.2264C18.8834 19.2399 18.8724 19.2489 18.8593 19.2489H17.4226C17.4095 19.2489 17.3985 19.2601 17.3985 19.2736V22.982C17.3985 22.982 17.3919 22.9955 17.3854 22.9955H15.4311C15.4311 22.9955 15.4158 22.9888 15.4158 22.9798V19.2758C15.4158 19.2624 15.4048 19.2511 15.3916 19.2511H13.9397C13.9397 19.2511 13.9287 19.2466 13.9287 19.2399V18H18.8856H18.8834Z" fill="#102C49"/>
<path d="M23.8342 18L23.8386 19.2287C23.8386 19.2444 23.8342 19.2579 23.8233 19.2668L21.5554 21.7264C21.5554 21.7264 21.551 21.7376 21.5554 21.7421C21.5554 21.7421 21.5598 21.7444 21.562 21.7444H23.8233C23.8233 21.7444 23.8386 21.7511 23.8386 21.7601V22.9708C23.8386 22.9843 23.8277 22.9955 23.8145 22.9955H19.406C19.3928 22.9955 19.3818 22.9843 19.3818 22.9708V21.7668C19.3818 21.7534 19.3862 21.7376 19.3972 21.7287L21.6673 19.2691C21.6673 19.2691 21.6716 19.2579 21.6673 19.2534C21.6673 19.2534 21.6629 19.2511 21.6607 19.2511H19.4103C19.3972 19.2511 19.3884 19.2399 19.3884 19.2287V18H23.8364H23.8342Z" fill="#102C49"/>
<path d="M27.7141 17.9998C28.2734 18.0649 28.7054 18.3233 29.0103 18.7747C29.2428 19.1184 29.3459 19.5856 29.2779 20.0124C29.2077 20.4661 28.9862 20.8412 28.6177 21.1377C28.6111 21.1445 28.6089 21.1534 28.6133 21.1624L29.5301 22.9863C29.5301 22.9863 29.5301 22.9931 29.5279 22.9953C29.5279 22.9953 29.5279 22.9953 29.5235 22.9953H27.8457C27.8259 22.9953 27.8084 22.9841 27.7974 22.9661L27.0692 21.5173C27.0627 21.5061 27.0495 21.4971 27.0363 21.4971H26.3411C26.3279 21.4971 26.3169 21.5083 26.3169 21.5218V22.9706C26.3169 22.9841 26.306 22.9953 26.2928 22.9953H24.604C24.593 22.9953 24.582 22.9863 24.582 22.9729V17.9976H27.7075L27.7141 17.9998ZM26.3213 19.2667L26.3169 20.2303C26.3169 20.2303 26.3257 20.2482 26.3345 20.2482H27.0583C27.3346 20.2527 27.5605 20.0281 27.5605 19.7541C27.5605 19.4778 27.3368 19.2532 27.0605 19.2532H26.3367C26.3367 19.2532 26.3191 19.2577 26.3191 19.2689L26.3213 19.2667Z" fill="#102C49"/>
<path d="M32.4339 18C32.9975 18.0359 33.5042 18.2111 33.9516 18.5279C34.671 19.0355 35.1053 19.9025 34.9803 20.7987C34.8158 21.987 33.8398 22.7956 32.7146 22.9641C31.9469 23.0786 31.2473 22.9191 30.6156 22.4834C29.5146 21.7264 29.1834 20.235 30.0015 19.1141C30.4906 18.4425 31.2626 18.0651 32.0742 18H32.4339ZM32.2716 19.2511C31.7232 19.2511 31.2824 19.8127 31.2824 20.5022C31.2824 21.1918 31.7276 21.7511 32.2759 21.7511C32.8243 21.7511 33.2651 21.1896 33.2651 20.5C33.2651 19.8104 32.8199 19.2511 32.2716 19.2511Z" fill="#102C49"/>
</g>
<circle cx="20" cy="20" r="19.5" stroke="black" stroke-opacity="0.05"/>
<defs>
<clipPath id="clip0_40023_77799">
<rect width="31" height="6" fill="white" transform="translate(5 17)"/>
</clipPath>
</defs>
</svg>
