<svg width="40" height="40" viewBox="0 0 40 40" fill="none" xmlns="http://www.w3.org/2000/svg">
<circle cx="20" cy="20" r="20" fill="#EE7421"/>
<circle cx="20" cy="20" r="19.5" stroke="black" stroke-opacity="0.05"/>
<g clip-path="url(#clip0_35988_73114)">
<path d="M29 25.6749C29 27.5104 27.5134 29 25.6817 29H14.3183C12.4866 29 11 27.5104 11 25.6749V14.3251C11 12.4896 12.4866 11 14.3183 11H25.6817C27.5134 11 29 12.4896 29 14.3251V25.6749ZM28.4569 23.7886C28.1808 23.2444 27.3615 22.8109 26.7954 22.6311C25.7001 22.2806 24.5357 22.2621 23.3851 22.4189C23.3667 22.4189 23.3436 22.4097 23.3436 22.3866C23.3436 22.382 23.3436 22.3774 23.3436 22.3682C23.721 21.1414 23.8775 19.7717 23.4725 18.5265C22.6671 16.0407 19.7998 15.7548 17.6413 16.1791C17.6183 16.1791 17.5952 16.1699 17.5906 16.1422C17.5906 16.1376 17.5906 16.133 17.5906 16.1284C17.6137 15.9716 17.6229 15.8055 17.6183 15.6349C17.586 14.2421 17.3605 12.5911 16.2974 11.5995C16.2698 11.5765 16.2467 11.558 16.2237 11.5488C16.2145 11.5488 16.2053 11.5488 16.2007 11.558C16.2007 11.5626 16.2007 11.5719 16.2007 11.5765C17.158 12.9693 16.8681 14.837 16.4032 16.3728C16.3848 16.4374 16.3296 16.4881 16.2651 16.5019C15.4229 16.7095 14.5945 16.8155 13.7706 16.8201C12.9146 16.8248 12.2012 16.6357 11.4833 16.2529C11.474 16.2483 11.4602 16.2529 11.4556 16.2621C11.4556 16.2713 11.4556 16.2806 11.4556 16.2852C12.4958 17.5811 14.415 17.7932 15.9476 17.6687C16.5459 17.6226 17.2961 17.4704 17.8438 17.3966C18.3178 17.3321 18.8425 17.309 19.4132 17.3228C20.4349 17.3505 21.4106 17.5488 22.0964 18.3005C22.6073 18.8586 22.8282 19.7533 22.9432 20.588C23.0307 21.1968 23.0583 21.8148 23.0307 22.4374C23.0307 22.4604 23.0123 22.4835 22.9893 22.4881C22.0043 22.6864 21.024 22.7648 20.0529 22.7141C19.091 22.6633 18.0739 22.3451 17.517 21.5427C17.2363 21.1414 17.0199 20.6526 16.8635 20.0761C16.7898 19.8132 16.7116 19.4766 16.6241 19.0707C16.6241 19.0523 16.6057 19.043 16.5873 19.0477C16.5735 19.0477 16.5643 19.0615 16.5643 19.0753C16.2329 20.8601 16.5137 22.6495 18.2948 23.5211C19.7308 24.2221 21.6131 24.1345 23.1319 23.7241C24.2779 23.4151 25.4193 23.2352 26.5837 23.2859C27.2511 23.3136 27.8678 23.4889 28.4339 23.8117C28.4431 23.8117 28.4523 23.8117 28.4569 23.8071C28.4569 23.8025 28.4569 23.7978 28.4569 23.7932V23.7886ZM23.7256 28.5019C23.6382 28.3221 23.4909 28.1191 23.4127 27.9208C22.9755 26.8232 23.0353 25.6979 23.3022 24.5634C23.3068 24.5404 23.293 24.5173 23.27 24.5127C23.2654 24.5127 23.2562 24.5127 23.2516 24.5127L22.3541 24.6972C22.3541 24.6972 22.3219 24.7202 22.3219 24.7387C22.3403 25.412 22.437 26.0669 22.6165 26.7079C22.8144 27.4181 23.1734 28.0269 23.6934 28.525C23.7026 28.5342 23.7164 28.5296 23.721 28.525C23.7256 28.5204 23.7256 28.5111 23.721 28.5065L23.7256 28.5019Z" fill="white"/>
</g>
<defs>
<clipPath id="clip0_35988_73114">
<rect width="18" height="18" fill="white" transform="translate(11 11)"/>
</clipPath>
</defs>
</svg>
