<svg width="40" height="40" viewBox="0 0 40 40" fill="none" xmlns="http://www.w3.org/2000/svg">
<circle cx="20" cy="20" r="20" fill="#F37321"/>
<g clip-path="url(#clip0_29409_48181)">
<path opacity="0.5" d="M16.8599 20.1555C16.5489 17.3263 19.5125 15.0538 23.4818 15.0883C27.451 15.119 30.9213 17.4377 31.2322 20.263C31.5432 23.096 28.5796 25.3609 24.6104 25.3302C20.6411 25.3033 17.1708 22.9847 16.8599 20.1555ZM31.9731 21.0346C31.6161 17.526 27.6199 14.6507 23.0518 14.6123C18.4798 14.5739 15.071 17.3878 15.428 20.8964C15.785 24.405 19.7812 27.2803 24.3493 27.3187C28.9175 27.3532 32.334 24.5432 31.9731 21.0346Z" fill="white"/>
<path opacity="0.7" d="M25.0746 27.3877C22.8251 29.7409 19.2128 29.9366 17.0055 27.8253C14.8021 25.714 14.8366 22.0979 17.09 19.7485C19.3395 17.3992 22.9556 17.2034 25.1552 19.3109C27.3587 21.4222 27.3241 25.0384 25.0708 27.3877M16.733 19.6718C14.1188 22.405 14.0765 26.6084 16.637 29.0614C19.1975 31.5144 23.3971 31.2879 26.0113 28.5547C28.6293 25.8215 28.6715 21.618 26.1072 19.165C23.5468 16.7121 19.3472 16.9385 16.7291 19.6718" fill="white"/>
<path d="M16.9781 10.8733C21.6576 9.11899 26.2872 10.8925 27.3159 14.8349C28.3447 18.7773 25.385 23.3992 20.7056 25.1497C16.0261 26.904 11.3966 25.1305 10.3678 21.1881C9.33514 17.2457 12.2987 12.6276 16.9781 10.8733ZM12.6326 12.3819C7.7766 16.2246 6.54052 21.7946 9.86873 24.8196C13.2008 27.8484 19.8342 27.1842 24.6941 23.3378C29.5501 19.4952 30.7862 13.9251 27.4541 10.8963C24.1221 7.87139 17.4849 8.5355 12.6326 12.3781" fill="white"/>
</g>
<circle cx="20" cy="20" r="19.5" stroke="black" stroke-opacity="0.05"/>
<defs>
<clipPath id="clip0_29409_48181">
<rect width="24" height="21.762" fill="white" transform="translate(8 9)"/>
</clipPath>
</defs>
</svg>
