<svg width="40" height="40" viewBox="0 0 40 40" fill="none" xmlns="http://www.w3.org/2000/svg">
<circle cx="20" cy="20" r="20" fill="#F6F8FA"/>
<path d="M29 12.0713V28.9669C29 28.975 28.9967 28.9828 28.9908 28.9886C28.9849 28.9943 28.9769 28.9976 28.9685 28.9976H26.1772C26.1679 28.9976 26.1591 28.9939 26.1525 28.9873C26.146 28.9807 26.1423 28.9718 26.1423 28.9625V14.7372C26.1423 14.7276 26.1383 14.7184 26.1312 14.7116C26.124 14.7048 26.1143 14.701 26.1041 14.701H13.8925C13.8833 14.701 13.8744 14.7045 13.8679 14.7109C13.8613 14.7173 13.8577 14.7259 13.8577 14.735V26.2615C13.8577 26.2699 13.8611 26.278 13.8672 26.284C13.8733 26.29 13.8816 26.2933 13.8902 26.2933C17.3723 26.3021 19.4595 26.2991 20.1517 26.2845C20.9687 26.2681 21.6339 25.7329 21.6923 24.9258C21.7755 23.747 21.0406 23.2809 19.9337 23.2765C19.443 23.2743 18.1275 23.2743 15.9871 23.2765C15.9758 23.2765 15.965 23.2721 15.9569 23.2643C15.9489 23.2565 15.9444 23.2459 15.9444 23.2348V16.6453C15.9444 16.6366 15.9462 16.6281 15.9497 16.6201C15.9531 16.6121 15.9581 16.6049 15.9645 16.5987C15.9709 16.5926 15.9784 16.5878 15.9868 16.5845C15.9951 16.5812 16.004 16.5795 16.013 16.5795H23.8083C23.8259 16.5795 23.8428 16.5863 23.8552 16.5984C23.8677 16.6106 23.8746 16.627 23.8746 16.6442V19.2015C23.8746 19.2131 23.8699 19.2243 23.8615 19.2325C23.853 19.2407 23.8416 19.2453 23.8297 19.2453H18.9032C18.8947 19.2453 18.8862 19.247 18.8783 19.2502C18.8704 19.2534 18.8632 19.2581 18.8571 19.264C18.8511 19.2699 18.8463 19.2769 18.843 19.2846C18.8397 19.2923 18.8381 19.3006 18.8381 19.3089V20.4779C18.8381 20.4877 18.84 20.4973 18.8439 20.5063C18.8477 20.5153 18.8534 20.5235 18.8605 20.5303C18.8676 20.5371 18.876 20.5425 18.8853 20.5461C18.8946 20.5498 18.9045 20.5516 18.9145 20.5514C19.4748 20.5419 19.9348 20.5423 20.2944 20.5525C21.8755 20.5975 23.2218 21.2872 24.0331 22.6142C24.6882 23.6845 24.8433 25.1934 24.3601 26.3394C23.9278 27.3621 23.182 28.1024 22.1227 28.56C21.072 29.014 20.0753 29.0008 18.7336 28.9998C16.11 28.9976 13.5539 28.9968 11.0652 28.9976C11.0479 28.9976 11.0313 28.9909 11.0191 28.9789C11.0069 28.967 11 28.9508 11 28.934V14.0583C11 14.0389 11.004 14.0196 11.0117 14.0017C11.0194 13.9838 11.0307 13.9677 11.0449 13.9542L13.0654 12.0461C13.0965 12.0165 13.138 12 13.1812 12H28.927C28.9463 12 28.9649 12.0075 28.9786 12.0209C28.9923 12.0342 29 12.0524 29 12.0713Z" fill="#112147"/>
<circle cx="20" cy="20" r="19.5" stroke="black" stroke-opacity="0.05"/>
</svg>
