<svg width="40" height="40" viewBox="0 0 40 40" fill="none" xmlns="http://www.w3.org/2000/svg">
<circle cx="20" cy="20" r="20" fill="#192242"/>
<g clip-path="url(#clip0_40988_78867)">
<path d="M15.7554 17L15.0726 19.423C15.0706 19.4302 15.0662 19.4366 15.0602 19.4411C15.0541 19.4456 15.0467 19.448 15.0392 19.448H14.2338C14.2307 19.4479 14.2277 19.4472 14.225 19.4458C14.2222 19.4445 14.2198 19.4426 14.218 19.4403C14.2161 19.438 14.2149 19.4353 14.2143 19.4325C14.2137 19.4297 14.2137 19.4268 14.2145 19.424L14.9024 17H15.7554Z" fill="#3B9ACF"/>
<path d="M8.32794 23H5.91582C5.36538 22.9473 5.06011 22.5863 5 21.917V17.666L5.77703 17.673C5.79109 17.6733 5.80449 17.679 5.81434 17.6889C5.82419 17.6988 5.82971 17.7121 5.82971 17.726C5.82633 19.2587 5.82734 20.5827 5.83275 21.698C5.83477 22.164 6.11843 22.256 6.56722 22.246C6.78942 22.2407 7.35607 22.2397 8.26716 22.243C8.28229 22.2433 8.29672 22.2493 8.30733 22.2598C8.31794 22.2702 8.32389 22.2843 8.32389 22.299L8.32794 23Z" fill="white"/>
<path d="M10.1519 23H9.35261L9.35059 17.693C9.35059 17.6856 9.35357 17.6785 9.35889 17.6732C9.36421 17.668 9.37143 17.665 9.37895 17.665H10.1256C10.1328 17.665 10.1398 17.6679 10.1449 17.6729C10.1501 17.678 10.1529 17.6849 10.1529 17.692L10.1519 23Z" fill="white"/>
<path d="M13.4965 23.0001H12.915C12.7481 22.9514 12.6357 22.8251 12.5776 22.6211C12.1096 20.9798 11.6415 19.3354 11.1735 17.6881C11.1727 17.6851 11.1726 17.6819 11.1733 17.6789C11.174 17.6759 11.1753 17.673 11.1773 17.6706C11.1793 17.6682 11.1818 17.6662 11.1846 17.6649C11.1875 17.6636 11.1906 17.663 11.1938 17.6631H11.9921C12.0002 17.6631 12.0081 17.6657 12.0145 17.6706C12.0209 17.6755 12.0255 17.6823 12.0275 17.6901L13.4965 23.0001Z" fill="white"/>
<path d="M18.7064 23.0001H17.9801L16.6448 22.9381C16.629 22.9374 16.6141 22.9307 16.6031 22.9195C16.5922 22.9084 16.5861 22.8935 16.5861 22.8781V22.2981C16.5861 22.2904 16.5876 22.2828 16.5907 22.2757C16.5937 22.2686 16.5981 22.2622 16.6037 22.2568C16.6092 22.2514 16.6158 22.2471 16.6231 22.2443C16.6303 22.2414 16.6381 22.24 16.6459 22.2401C17.4786 22.2581 18.0875 22.2641 18.4724 22.2581C18.7682 22.2531 19.1765 22.1581 19.211 21.8131C19.2238 21.6838 19.2258 21.5241 19.217 21.3341C19.2148 21.2842 19.2024 21.2353 19.1807 21.1903C19.1589 21.1452 19.1282 21.1051 19.0904 21.0721C18.956 20.9548 18.7892 20.8671 18.5899 20.8091C17.9571 20.6245 17.508 20.4705 17.2426 20.3471C16.7208 20.1051 16.4979 19.7021 16.503 19.1431C16.5057 18.8538 16.5094 18.6885 16.5142 18.6471C16.5962 17.9011 17.4087 17.6781 18.0702 17.6701C18.4937 17.6648 19.0752 17.6898 19.8147 17.7451C19.8255 17.7459 19.8356 17.7507 19.8429 17.7585C19.8502 17.7662 19.8543 17.7765 19.8543 17.7871V18.3821C19.8543 18.3876 19.8532 18.393 19.851 18.3981C19.8489 18.4031 19.8457 18.4077 19.8417 18.4115C19.8378 18.4153 19.8331 18.4183 19.8279 18.4203C19.8228 18.4223 19.8172 18.4233 19.8117 18.4231C19.0566 18.4085 18.4599 18.4068 18.0216 18.4181C17.7859 18.4248 17.5816 18.4861 17.4087 18.6021C17.384 18.6187 17.3639 18.641 17.3499 18.6669C17.336 18.6929 17.3287 18.7218 17.3287 18.7511V19.3461C17.3287 19.3947 17.3451 19.4415 17.3753 19.4791C17.4928 19.6251 17.64 19.7241 17.817 19.7761C18.308 19.9188 18.7365 20.0518 19.1026 20.1751C19.6118 20.3458 19.9211 20.6668 20.0305 21.1381C20.0535 21.2361 20.0589 21.4551 20.0467 21.7951C20.0194 22.5631 19.4916 22.9491 18.7064 23.0001Z" fill="white"/>
<path d="M26.2819 22.9998H25.4877L25.4856 18.6428C25.4861 18.6123 25.4751 18.5826 25.4549 18.5595C25.4347 18.5364 25.4065 18.5213 25.3759 18.5173C25.3452 18.5132 25.314 18.5204 25.2884 18.5374C25.2627 18.5545 25.2442 18.5803 25.2364 18.6098L24.3378 21.8618C24.3178 21.9351 24.2738 21.9997 24.2126 22.0458C24.1514 22.0919 24.0765 22.1169 23.9995 22.1168H23.3643C23.2897 22.1169 23.2172 22.0929 23.1579 22.0484C23.0986 22.004 23.0558 21.9416 23.036 21.8708L22.1121 18.6088C22.1045 18.5806 22.0867 18.556 22.0621 18.5397C22.0374 18.5235 22.0076 18.5167 21.9783 18.5206C21.9489 18.5246 21.922 18.539 21.9026 18.5611C21.8832 18.5832 21.8727 18.6116 21.873 18.6408L21.8761 22.9998H21.0605L21.0626 17.8698C21.0626 17.817 21.0836 17.7662 21.1211 17.7284C21.1586 17.6906 21.2096 17.6689 21.2632 17.6678C21.5813 17.6618 21.9011 17.6602 22.2225 17.6628C22.491 17.6648 22.5639 17.7328 22.642 17.9968C22.7048 18.2115 23.0229 19.3002 23.5963 21.2628C23.6071 21.2988 23.6216 21.3212 23.6398 21.3298C23.6628 21.3405 23.6898 21.3475 23.7209 21.3508C23.7403 21.3531 23.7599 21.3483 23.7763 21.3373C23.7926 21.3263 23.8046 21.3099 23.81 21.2908L24.7491 17.8888C24.766 17.828 24.8017 17.7738 24.8513 17.734C24.9009 17.6942 24.9619 17.6707 25.0257 17.6668C25.1331 17.6608 25.3914 17.6595 25.8007 17.6628C26.0803 17.6648 26.2809 17.6058 26.2809 17.9498C26.2823 19.6332 26.2826 21.3165 26.2819 22.9998Z" fill="white"/>
<path d="M28.6817 23.0001H28.2136C27.6038 22.9568 27.2988 22.6414 27.2988 22.0541C27.3002 19.7808 27.3009 18.6368 27.3009 18.6221C27.3161 17.7261 27.9239 17.6351 28.7283 17.6661C29.4496 17.6928 30.1628 17.7104 30.8679 17.7191C30.8792 17.7191 30.89 17.7236 30.898 17.7317C30.9059 17.7397 30.9104 17.7507 30.9104 17.7621V18.3671C30.9104 18.3774 30.9064 18.3874 30.8992 18.3947C30.8919 18.402 30.8821 18.4061 30.8719 18.4061C29.3604 18.4054 28.5371 18.4048 28.4021 18.4041C28.1691 18.4021 28.1042 18.4671 28.1052 18.6911C28.1073 18.9964 28.1066 19.4081 28.1032 19.9261C28.1032 19.942 28.1097 19.9573 28.1213 19.9685C28.1329 19.9798 28.1486 19.9861 28.165 19.9861L30.2286 19.9871C30.2394 19.9871 30.2497 19.9913 30.2573 19.9988C30.2649 20.0063 30.2692 20.0165 30.2692 20.0271V20.6341C30.2692 20.6447 30.265 20.6549 30.2576 20.6624C30.2502 20.6699 30.2401 20.6741 30.2296 20.6741H28.161C28.1536 20.6741 28.1464 20.6755 28.1396 20.6783C28.1329 20.681 28.1267 20.6851 28.1216 20.6902C28.1164 20.6953 28.1123 20.7014 28.1095 20.708C28.1067 20.7147 28.1052 20.7219 28.1052 20.7291V22.0661C28.1052 22.1162 28.1254 22.1643 28.1613 22.1997C28.1972 22.2352 28.2459 22.2551 28.2967 22.2551H30.8638C30.8697 22.2551 30.8755 22.2562 30.8809 22.2584C30.8863 22.2607 30.8912 22.2639 30.8953 22.268C30.8995 22.2721 30.9028 22.2769 30.905 22.2823C30.9073 22.2876 30.9084 22.2933 30.9084 22.2991V22.8971C30.9084 22.9094 30.9036 22.9212 30.8951 22.93C30.8866 22.9388 30.875 22.9438 30.8628 22.9441L28.6817 23.0001Z" fill="white"/>
<path d="M33.8476 17.6629C33.8746 17.6583 33.8986 17.6586 33.9195 17.6639C36.0682 17.5509 36.0895 20.2499 35.7491 21.6239C35.5438 22.4499 35.0217 22.9086 34.1829 22.9999H31.9258V17.7189C31.9258 17.7056 31.9312 17.6928 31.9409 17.6832C31.9505 17.6737 31.9637 17.6682 31.9774 17.6679L33.8476 17.6629ZM32.7494 18.4589L32.7433 22.2009C32.7433 22.2155 32.7492 22.2295 32.7596 22.2398C32.7701 22.2501 32.7843 22.2559 32.799 22.2559L33.9813 22.2579C34.2606 22.2582 34.5287 22.1099 34.7267 21.8455C34.9246 21.5811 35.0362 21.2223 35.0369 20.8479L35.039 19.8199C35.0393 19.6344 35.0124 19.4507 34.9597 19.2792C34.907 19.1078 34.8297 18.9519 34.732 18.8206C34.6344 18.6893 34.5183 18.5851 34.3906 18.5139C34.2628 18.4428 34.1258 18.4061 33.9874 18.4059L32.8051 18.4039C32.7903 18.4039 32.7762 18.4097 32.7657 18.42C32.7553 18.4304 32.7494 18.4443 32.7494 18.4589Z" fill="white"/>
<path d="M33.9196 17.6639C33.8986 17.6586 33.8747 17.6583 33.8477 17.6629L33.9196 17.6639Z" fill="#3B9ACF"/>
</g>
<circle cx="20" cy="20" r="19.5" stroke="black" stroke-opacity="0.05"/>
<defs>
<clipPath id="clip0_40988_78867">
<rect width="31" height="6" fill="white" transform="translate(5 17)"/>
</clipPath>
</defs>
</svg>
