<svg width="40" height="40" viewBox="0 0 40 40" fill="none" xmlns="http://www.w3.org/2000/svg">
<circle cx="20" cy="20" r="20" fill="#F6F8FA"/>
<g clip-path="url(#clip0_44746_83180)">
<path d="M11.9488 16.2731C13.5773 16.2731 14.8975 14.9533 14.8975 13.3253C14.8975 11.6972 13.5773 10.3774 11.9488 10.3774C10.3202 10.3774 9 11.6972 9 13.3253C9 14.9533 10.3202 16.2731 11.9488 16.2731Z" fill="#EE8A3C"/>
<path d="M20.996 28.3137C20.9235 28.2412 20.8591 28.1607 20.7866 28.0882L20.6738 27.9432C20.6415 27.9029 20.6093 27.8627 20.5771 27.8143L20.3918 27.5244C20.3676 27.4841 20.3434 27.4438 20.3193 27.4036L18.2487 23.5215C18.3454 23.8759 18.6032 24.8585 18.6032 25.2128C18.6032 26.1955 17.9667 27.4358 17.2899 28.2573C16.452 28.8453 15.9042 29.8359 15.9445 30.9474C16.0009 32.5582 17.2899 33.8871 18.9013 33.9918C20.7382 34.1046 22.2609 32.6549 22.2609 30.8427C22.2609 29.8037 21.7614 28.8855 20.988 28.3137H20.996Z" fill="url(#paint0_linear_44746_83180)"/>
<path d="M20.1345 15.6527L26.4349 17.1669C26.4349 17.1669 26.5074 17.1669 26.5396 17.1749C26.7249 17.1991 26.9102 17.2233 27.0955 17.2555C27.2244 17.2796 27.3292 17.3119 27.4661 17.3763C28.2074 17.7065 29.0211 17.9481 29.8993 17.8837C32.0826 17.7146 33.839 15.9427 33.9921 13.76C34.1693 11.1585 32.1149 9 29.5528 9C27.724 9 26.1529 10.1034 25.4681 11.682C25.4117 11.7867 25.3633 11.8995 25.3392 12.0203C25.3392 12.0203 25.3392 12.0284 25.3392 12.0364C25.2747 12.2216 25.2264 12.4149 25.1861 12.6082C24.6382 14.4365 23.5183 15.8943 21.5364 15.7494C21.0047 15.7091 20.2795 15.6124 19.8203 15.5399L20.0942 15.6366C20.0942 15.6366 20.1265 15.6447 20.1426 15.6527H20.1345Z" fill="url(#paint1_linear_44746_83180)"/>
<path d="M20.8436 15.7897C20.7469 15.7655 20.6502 15.7333 20.5616 15.7011C20.3279 15.6206 20.0782 15.5642 19.8204 15.532C19.6834 15.5159 19.5464 15.5078 19.4095 15.5078C17.4114 15.5078 15.792 17.1267 15.792 19.1241C15.792 20.2839 16.3398 21.3148 17.1858 21.9753C17.4597 22.1847 17.6853 22.4505 17.8706 22.7404C18.1365 23.1592 18.346 23.6425 18.4749 24.1338L20.336 27.3957C19.9895 26.7675 19.7801 26.0346 19.7881 25.2372C19.7881 24.617 19.9654 24.013 20.2393 23.4733C20.5132 22.9337 20.9161 22.4666 21.4236 22.1283C22.189 21.6128 22.753 20.8155 22.9464 19.8812C23.0269 19.5027 23.1639 19.1402 23.3653 18.81C24.034 17.7308 25.0492 17.0381 26.443 17.167L20.8516 15.7897H20.8436Z" fill="#5DA2D4"/>
</g>
<circle cx="20" cy="20" r="19.5" stroke="black" stroke-opacity="0.05"/>
<defs>
<linearGradient id="paint0_linear_44746_83180" x1="19.1188" y1="26.574" x2="19.1027" y2="34.161" gradientUnits="userSpaceOnUse">
<stop offset="0.13" stop-color="#4667AF"/>
<stop offset="0.52" stop-color="#4A70B6"/>
<stop offset="1" stop-color="#5FA2D9"/>
</linearGradient>
<linearGradient id="paint1_linear_44746_83180" x1="22.0601" y1="16.8125" x2="34.9978" y2="11.0024" gradientUnits="userSpaceOnUse">
<stop offset="0.22" stop-color="#3F68AA"/>
<stop offset="0.49" stop-color="#4A70B6"/>
<stop offset="1" stop-color="#5FA2D9"/>
</linearGradient>
<clipPath id="clip0_44746_83180">
<rect width="25" height="25" fill="white" transform="translate(9 9)"/>
</clipPath>
</defs>
</svg>
