<svg width="40" height="40" viewBox="0 0 40 40" fill="none" xmlns="http://www.w3.org/2000/svg">
<circle cx="20" cy="20" r="20" fill="#F6F8FA"/>
<g clip-path="url(#clip0_38807_75824)">
<path d="M23.2766 17C22.7908 17 22.3319 17.1222 21.9324 17.3401C21.9162 17.3507 21.9 17.3614 21.8784 17.3667C21.8568 17.3773 21.8352 17.3932 21.8136 17.4039C20.9931 17.9087 20.626 18.8705 20.8581 19.7527C20.9067 19.9333 20.9823 20.114 21.0794 20.2894C21.3764 20.7942 21.8514 21.1343 22.3805 21.2831C22.8933 21.4213 23.4494 21.3787 23.9569 21.1237C23.7517 21.2246 23.5196 21.2778 23.2766 21.2778C22.4507 21.2778 21.7812 20.6454 21.7273 19.8483C21.7273 19.8164 21.7273 19.7792 21.7273 19.7473C21.7273 19.7155 21.7273 19.6836 21.7273 19.6517C21.7543 19.0937 21.9972 18.5889 22.3751 18.2169C22.7692 17.8396 23.3036 17.6058 23.8975 17.6058C24.0972 17.6058 24.2916 17.6324 24.4805 17.6855C25.3605 17.9246 26.0137 18.6952 26.0677 19.6251C26.0029 18.1638 24.7774 17 23.2766 17Z" fill="url(#paint0_radial_38807_75824)"/>
<path d="M21.1499 20.045C21.0581 19.8909 20.9933 19.7262 20.9448 19.5508C20.8152 19.0672 20.88 18.5571 21.1229 18.1107C21.1715 18.0257 21.2201 17.946 21.2795 17.8716C20.8476 18.3924 20.6856 19.0938 20.8638 19.7581C20.9124 19.9387 20.9879 20.1194 21.0851 20.2948C21.382 20.7996 21.8571 21.1397 22.3862 21.2885C22.899 21.4267 23.4551 21.3841 23.9625 21.1291C23.7574 21.23 23.5253 21.2832 23.2823 21.2832C22.9098 21.2832 22.5643 21.1556 22.2998 20.9378C21.8301 20.7943 21.4144 20.4861 21.1553 20.0503L21.1499 20.045Z" fill="url(#paint1_radial_38807_75824)"/>
<path d="M20.8583 21.1237C21.1013 21.5381 21.4414 21.8676 21.8301 22.1014C21.8463 22.1121 21.8625 22.1227 21.8841 22.1333C21.9057 22.1439 21.9272 22.1546 21.9488 22.1705C22.8018 22.6169 23.8329 22.4522 24.4916 21.8092C24.6265 21.6763 24.7507 21.5222 24.8533 21.3522C25.1502 20.8473 25.215 20.2734 25.0746 19.7473C24.9396 19.2425 24.6211 18.7855 24.146 18.4826C24.335 18.6101 24.5024 18.7802 24.6211 18.9874C25.0314 19.6889 24.8155 20.5816 24.1407 21.0227C24.1137 21.0386 24.0813 21.0599 24.0543 21.0758C24.0273 21.0918 24.0003 21.1077 23.9733 21.1183C23.4658 21.3787 22.9044 21.4212 22.3861 21.2831C21.8571 21.1396 21.382 20.7995 21.0851 20.2894C20.9825 20.1193 20.9123 19.9386 20.8637 19.7526C20.637 18.8811 20.9879 17.9406 21.7761 17.4304C20.5236 18.2169 20.1079 19.843 20.8583 21.1237Z" fill="url(#paint2_radial_38807_75824)"/>
<path d="M24.5994 21.416C24.5076 21.5701 24.3997 21.7083 24.2701 21.8358C23.9084 22.1865 23.4279 22.3885 22.9151 22.4044C22.8179 22.4044 22.7207 22.4044 22.6235 22.3938C23.2984 22.5001 23.9948 22.2875 24.4914 21.8092C24.6264 21.6764 24.7506 21.5223 24.8531 21.3522C25.1501 20.8474 25.2148 20.2735 25.0745 19.7474C24.9395 19.2426 24.621 18.7856 24.1459 18.4827C24.3349 18.6102 24.5022 18.7803 24.621 18.9875C24.8099 19.3063 24.8639 19.6624 24.8099 20.0025C24.9179 20.4754 24.8531 20.9803 24.5994 21.4213V21.416Z" fill="url(#paint3_radial_38807_75824)"/>
<path d="M25.6955 21.1236C25.9384 20.7091 26.0626 20.2574 26.068 19.8057C26.068 19.7845 26.068 19.7685 26.068 19.7473C26.068 19.7207 26.068 19.6994 26.068 19.6729C26.0356 18.7217 25.3716 17.9299 24.4808 17.6854C24.2972 17.6323 24.1029 17.6057 23.8978 17.6057C23.3039 17.6057 22.7695 17.8395 22.3754 18.2168C21.9975 18.5835 21.7545 19.083 21.7275 19.6357C21.7437 19.4125 21.8085 19.184 21.9327 18.9767C22.343 18.2753 23.2391 18.0149 23.9625 18.3709C23.9949 18.3869 24.0219 18.4028 24.0543 18.4188C24.0813 18.4347 24.1083 18.4506 24.1353 18.4666C24.6158 18.7695 24.9397 19.2265 25.0692 19.7366C25.2042 20.2627 25.1448 20.8366 24.8479 21.3415C24.7453 21.5115 24.6266 21.6656 24.4862 21.7985C23.833 22.4308 22.8288 22.6009 21.9867 22.1811C23.3039 22.856 24.9451 22.3936 25.6955 21.1183V21.1236Z" fill="url(#paint4_radial_38807_75824)"/>
<path d="M24.0813 17.7918C24.2595 17.7918 24.443 17.8184 24.6158 17.8662C25.107 17.9991 25.5227 18.3073 25.7926 18.7377C25.8466 18.8227 25.8898 18.9024 25.9276 18.9928C25.6847 18.3657 25.1448 17.8768 24.4808 17.6962C24.2972 17.643 24.1029 17.6165 23.8978 17.6165C23.3039 17.6165 22.7695 17.8503 22.3754 18.2276C21.9975 18.5942 21.7545 19.0937 21.7275 19.6464C21.7437 19.4232 21.8085 19.1947 21.9327 18.9875C22.1216 18.6686 22.4078 18.4401 22.7317 18.3232C23.0934 17.9991 23.5684 17.7971 24.0867 17.7918H24.0813Z" fill="url(#paint5_radial_38807_75824)"/>
<path d="M8.42529 20.0608V17.1541H9.35384V20.0236C9.35384 20.9908 9.8613 21.5009 10.6873 21.5009C11.5133 21.5009 12.0153 21.0173 12.0153 20.0608V17.1541H12.9439V20.0183C12.9439 21.57 12.0531 22.3512 10.6765 22.3512C9.29986 22.3512 8.43069 21.57 8.43069 20.0661L8.42529 20.0608Z" fill="#6B6C6D"/>
<path d="M13.8672 17.1541H15.9402C16.6042 17.1541 17.1225 17.3454 17.4626 17.6748C17.7433 17.9565 17.8999 18.3444 17.8999 18.7961V18.812C17.8999 19.6676 17.3816 20.1777 16.6474 20.385L18.0726 22.3512H16.9713L15.6757 20.5391H14.7957V22.3512H13.8672V17.1541ZM15.8754 19.726C16.5395 19.726 16.9606 19.3859 16.9606 18.8598V18.8439C16.9606 18.2859 16.5557 17.983 15.87 17.983H14.8011V19.726H15.8808H15.8754Z" fill="#6B6C6D"/>
<path d="M18.8179 17.1541H19.7464V22.3512H18.8179V17.1541Z" fill="#6B6C6D"/>
<path d="M31.3369 17.1541H32.2655V22.3512H31.3369V17.1541Z" fill="#6B6C6D"/>
<path d="M7.68593 21.4531L7.0705 20.842H7.0651C6.63862 21.2458 6.24452 21.485 5.62909 21.485C4.67355 21.485 3.98253 20.7091 3.97714 19.7526C3.98253 18.7961 4.67355 18.0202 5.62909 18.0202C6.24452 18.0202 6.63862 18.2594 7.0651 18.6526H7.0705L7.68593 18.0468C7.65894 18.0202 7.63195 17.9937 7.60495 17.9671C7.09209 17.4676 6.51985 17.1541 5.60749 17.1541C4.1121 17.1541 3 18.2966 3 19.7473C3 21.2033 4.1121 22.3458 5.60749 22.3458C6.51985 22.3458 7.09209 22.0323 7.60495 21.5328C7.63195 21.5062 7.65894 21.4797 7.68593 21.4531Z" fill="#6B6C6D"/>
<path d="M30.4895 20.2627C30.4194 20.1033 30.3114 19.9651 30.171 19.8482C30.0361 19.7313 29.8579 19.6303 29.6528 19.5453C29.4476 19.4656 29.2047 19.3912 28.9402 19.3221C28.7026 19.2637 28.4975 19.2105 28.3463 19.1574C28.1952 19.1042 28.071 19.0511 27.9846 18.9926C27.8982 18.9342 27.8389 18.8704 27.8119 18.8067C27.7795 18.7376 27.7633 18.6579 27.7633 18.5622C27.7633 18.4028 27.8281 18.2753 27.9684 18.1637C28.1088 18.0521 28.3031 17.9936 28.5569 17.9936C28.7836 17.9936 29.0103 18.0361 29.2317 18.1211C29.453 18.2062 29.6852 18.3337 29.9119 18.4984L29.9389 18.5144L30.4518 17.8023L30.4302 17.7864C30.1656 17.5791 29.8849 17.4197 29.5826 17.3134C29.2857 17.2071 28.9402 17.1487 28.5677 17.1487C28.3139 17.1487 28.0764 17.1859 27.8605 17.255C27.6445 17.324 27.461 17.425 27.3044 17.5579C27.1532 17.6907 27.0291 17.8448 26.9427 18.0255C26.8563 18.2062 26.8131 18.4134 26.8131 18.6366C26.8131 18.8757 26.8509 19.0777 26.9265 19.2424C27.0021 19.4071 27.1155 19.5506 27.2612 19.6675C27.407 19.7844 27.5851 19.8801 27.8011 19.9598C28.0116 20.0342 28.2545 20.1086 28.5245 20.167C28.762 20.2255 28.951 20.2786 29.0967 20.3318C29.2425 20.3849 29.3558 20.4381 29.4368 20.4965C29.5178 20.555 29.5718 20.6134 29.5988 20.6772C29.6258 20.7463 29.642 20.8207 29.642 20.9057C29.642 21.0917 29.5664 21.2352 29.4098 21.3414C29.2533 21.453 29.0373 21.5062 28.7728 21.5062C28.4597 21.5062 28.179 21.453 27.9306 21.3414C27.6823 21.2298 27.434 21.0704 27.191 20.8632L27.1694 20.8419L26.5918 21.5168L26.6134 21.5381C26.9211 21.8091 27.2558 22.0163 27.6175 22.1492C27.9792 22.282 28.3571 22.3458 28.7512 22.3458C29.0211 22.3458 29.2695 22.3139 29.4908 22.2448C29.7176 22.1757 29.9119 22.0748 30.0739 21.9472C30.2358 21.8144 30.36 21.655 30.4518 21.4637C30.5435 21.2724 30.5867 21.0545 30.5867 20.8153C30.5867 20.6028 30.5489 20.4168 30.4787 20.2574L30.4895 20.2627Z" fill="#6B6C6D"/>
<path d="M36.8919 20.2627C36.8217 20.1033 36.7137 19.9651 36.5734 19.8482C36.4384 19.7313 36.2603 19.6303 36.0551 19.5453C35.85 19.4656 35.607 19.3912 35.3425 19.3221C35.105 19.2637 34.8998 19.2105 34.7487 19.1574C34.5975 19.1042 34.4733 19.0511 34.387 18.9926C34.3006 18.9342 34.2412 18.8704 34.2142 18.8067C34.1818 18.7376 34.1656 18.6579 34.1656 18.5622C34.1656 18.4028 34.2304 18.2753 34.3708 18.1637C34.5111 18.0521 34.7055 17.9936 34.9592 17.9936C35.1859 17.9936 35.4127 18.0361 35.634 18.1211C35.8554 18.2062 36.0875 18.3337 36.3142 18.4984L36.3412 18.5144L36.8541 17.8023L36.8325 17.7864C36.568 17.5791 36.2872 17.4197 35.9849 17.3134C35.688 17.2071 35.3425 17.1487 34.97 17.1487C34.7163 17.1487 34.4787 17.1859 34.2628 17.255C34.0469 17.324 33.8633 17.425 33.7067 17.5579C33.5556 17.6907 33.4314 17.8448 33.345 18.0255C33.2587 18.2062 33.2155 18.4134 33.2155 18.6366C33.2155 18.8757 33.2533 19.0777 33.3288 19.2424C33.4044 19.4071 33.5178 19.5506 33.6636 19.6675C33.8093 19.7844 33.9875 19.8801 34.2034 19.9598C34.414 20.0342 34.6569 20.1086 34.9268 20.167C35.1644 20.2255 35.3533 20.2786 35.4991 20.3318C35.6448 20.3849 35.7582 20.4381 35.8392 20.4965C35.9201 20.555 35.9741 20.6134 36.0011 20.6772C36.0281 20.7463 36.0443 20.8207 36.0443 20.9057C36.0443 21.0917 35.9687 21.2352 35.8122 21.3414C35.6556 21.453 35.4397 21.5062 35.1751 21.5062C34.862 21.5062 34.5813 21.453 34.333 21.3414C34.0846 21.2298 33.8363 21.0704 33.5934 20.8632L33.5718 20.8419L32.9941 21.5168L33.0157 21.5381C33.3234 21.8091 33.6582 22.0163 34.0199 22.1492C34.3816 22.282 34.7595 22.3458 35.1536 22.3458C35.4235 22.3458 35.6718 22.3139 35.8932 22.2448C36.1199 22.1757 36.3142 22.0748 36.4762 21.9472C36.6382 21.8144 36.7623 21.655 36.8541 21.4637C36.9459 21.2724 36.9891 21.0545 36.9891 20.8153C36.9891 20.6028 36.9513 20.4168 36.8811 20.2574L36.8919 20.2627Z" fill="#6B6C6D"/>
</g>
<circle cx="20" cy="20" r="19.5" stroke="black" stroke-opacity="0.05"/>
<defs>
<radialGradient id="paint0_radial_38807_75824" cx="0" cy="0" r="1" gradientUnits="userSpaceOnUse" gradientTransform="translate(25.1609 16.5703) scale(11.6904 11.5073)">
<stop offset="0.08" stop-color="#D51236"/>
<stop offset="0.35" stop-color="#B61B32"/>
<stop offset="0.63" stop-color="#7C181D"/>
</radialGradient>
<radialGradient id="paint1_radial_38807_75824" cx="0" cy="0" r="1" gradientUnits="userSpaceOnUse" gradientTransform="translate(21.2192 18.6187) scale(3.70945 3.65136)">
<stop stop-color="#921D22" stop-opacity="0"/>
<stop offset="0.84" stop-color="#8D1D22"/>
</radialGradient>
<radialGradient id="paint2_radial_38807_75824" cx="0" cy="0" r="1" gradientTransform="matrix(-0.11202 -0.190986 0.194024 -0.110266 17.6662 17.0668)" gradientUnits="userSpaceOnUse">
<stop offset="0.08" stop-color="#D51236"/>
<stop offset="0.35" stop-color="#B61B32"/>
<stop offset="0.63" stop-color="#7C181D"/>
</radialGradient>
<radialGradient id="paint3_radial_38807_75824" cx="0" cy="0" r="1" gradientTransform="matrix(-0.113369 -0.193287 0.196361 -0.111594 25.76 25.2061)" gradientUnits="userSpaceOnUse">
<stop stop-color="#921D22" stop-opacity="0"/>
<stop offset="0.84" stop-color="#8D1D22"/>
</radialGradient>
<radialGradient id="paint4_radial_38807_75824" cx="0" cy="0" r="1" gradientTransform="matrix(-5.84519 9.96564 -10.1242 -5.75366 21.8514 23.2034)" gradientUnits="userSpaceOnUse">
<stop offset="0.08" stop-color="#D51236"/>
<stop offset="0.35" stop-color="#B61B32"/>
<stop offset="0.63" stop-color="#7C181D"/>
</radialGradient>
<radialGradient id="paint5_radial_38807_75824" cx="0" cy="0" r="1" gradientTransform="matrix(-1.85472 3.16217 -3.21247 -1.82568 31.126 19.2941)" gradientUnits="userSpaceOnUse">
<stop stop-color="#921D22" stop-opacity="0"/>
<stop offset="0.84" stop-color="#8D1D22"/>
</radialGradient>
<clipPath id="clip0_38807_75824">
<rect width="34" height="5.5" fill="white" transform="translate(3 17)"/>
</clipPath>
</defs>
</svg>
