<svg width="40" height="40" viewBox="0 0 40 40" fill="none" xmlns="http://www.w3.org/2000/svg">
<circle cx="20" cy="20" r="20" fill="#760000"/>
<g clip-path="url(#clip0_33363_66896)">
<path d="M31.8855 23V17.3633H32.9167L35.4636 21.0273H35.4871V17.3633H36.6628V23H35.6394L33.0847 19.3086H33.0613V23H31.8855Z" fill="white"/>
<path d="M27.0605 23V17.3633H29.3887C30.6543 17.3633 31.4043 18.0352 31.4043 19.168V19.1758C31.4043 19.918 31.0098 20.5352 30.3848 20.7812L31.5723 23H30.2363L29.1855 20.957H28.2402V23H27.0605ZM28.2402 20.0625H29.2598C29.8457 20.0625 30.1973 19.7305 30.1973 19.1758V19.168C30.1973 18.6289 29.8262 18.2852 29.2441 18.2852H28.2402V20.0625Z" fill="white"/>
<path d="M23.8801 23.0977C22.2043 23.0977 21.1614 21.9766 21.1614 20.1836V20.1758C21.1614 18.3828 22.2122 17.2656 23.8801 17.2656C25.552 17.2656 26.5989 18.3867 26.5989 20.1758V20.1836C26.5989 21.9766 25.5559 23.0977 23.8801 23.0977ZM23.8801 22.0977C24.8176 22.0977 25.3958 21.3516 25.3958 20.1836V20.1758C25.3958 19 24.8059 18.2656 23.8801 18.2656C22.9583 18.2656 22.3645 18.9961 22.3645 20.1758V20.1836C22.3645 21.3633 22.9543 22.0977 23.8801 22.0977Z" fill="white"/>
<path d="M18.4418 23.0977C16.7933 23.0977 15.7582 21.9961 15.7582 20.1797V20.1758C15.7582 18.3594 16.7972 17.2656 18.4418 17.2656C19.809 17.2656 20.7894 18.1289 20.8988 19.3242L20.9027 19.3594H19.7543L19.7386 19.293C19.6058 18.6719 19.1449 18.2656 18.4418 18.2656C17.5394 18.2656 16.9613 18.9922 16.9613 20.1719V20.1758C16.9613 21.3633 17.5394 22.0977 18.4418 22.0977C19.1215 22.0977 19.598 21.707 19.7504 21.0391L19.7582 21H20.9066L20.9027 21.043C20.7933 22.2422 19.8051 23.0977 18.4418 23.0977Z" fill="white"/>
<path d="M14.1168 23V17.3633H15.2965V23H14.1168Z" fill="white"/>
<path d="M8.698 23V17.3633H9.72925L12.2761 21.0273H12.2996V17.3633H13.4753V23H12.4519L9.89722 19.3086H9.87378V23H8.698Z" fill="white"/>
<path d="M5.69727 23.0977C4.25195 23.0977 3.33398 22.2617 3.33398 21.0078V17.3633H4.51367V20.9023C4.51367 21.6328 4.93945 22.0977 5.69727 22.0977C6.45508 22.0977 6.87695 21.6328 6.87695 20.9023V17.3633H8.05664V21.0078C8.05664 22.2578 7.15039 23.0977 5.69727 23.0977Z" fill="white"/>
</g>
<circle cx="20" cy="20" r="19.5" stroke="black" stroke-opacity="0.05"/>
<defs>
<clipPath id="clip0_33363_66896">
<rect width="34" height="7" fill="white" transform="translate(3 17)"/>
</clipPath>
</defs>
</svg>
