<svg width="40" height="40" viewBox="0 0 40 40" fill="none" xmlns="http://www.w3.org/2000/svg">
<circle cx="20" cy="20" r="20" fill="#760000"/>
<g clip-path="url(#clip0_33363_66901)">
<path d="M32.2214 23V17.3633H33.2527L35.7996 21.0273H35.823V17.3633H36.9988V23H35.9753L33.4207 19.3086H33.3972V23H32.2214Z" fill="white"/>
<path d="M29.041 23.0977C27.3652 23.0977 26.3223 21.9766 26.3223 20.1836V20.1758C26.3223 18.3828 27.373 17.2656 29.041 17.2656C30.7129 17.2656 31.7598 18.3867 31.7598 20.1758V20.1836C31.7598 21.9766 30.7168 23.0977 29.041 23.0977ZM29.041 22.0977C29.9785 22.0977 30.5566 21.3516 30.5566 20.1836V20.1758C30.5566 19 29.9668 18.2656 29.041 18.2656C28.1191 18.2656 27.5254 18.9961 27.5254 20.1758V20.1836C27.5254 21.3633 28.1152 22.0977 29.041 22.0977Z" fill="white"/>
<path d="M23.6458 23V18.3359H22.0168V17.3633H26.4583V18.3359H24.8254V23H23.6458Z" fill="white"/>
<path d="M19.7582 23.0977C18.4183 23.0977 17.5551 22.4844 17.4886 21.4453L17.4847 21.3828H18.598L18.6058 21.4258C18.6801 21.8633 19.1449 22.1367 19.7894 22.1367C20.4418 22.1367 20.8519 21.8516 20.8519 21.4219V21.418C20.8519 21.0352 20.5746 20.8438 19.8754 20.6992L19.2816 20.582C18.1683 20.3594 17.6058 19.8281 17.6058 18.9805V18.9766C17.6058 17.9453 18.5043 17.2656 19.7543 17.2656C21.059 17.2656 21.8597 17.918 21.9144 18.9062L21.9183 18.9805H20.8051L20.8011 18.9336C20.7426 18.4922 20.3363 18.2227 19.7543 18.2227C19.1488 18.2266 18.7855 18.5039 18.7855 18.9062V18.9102C18.7855 19.2656 19.0746 19.4727 19.723 19.6016L20.3207 19.7227C21.5004 19.957 22.0316 20.4375 22.0316 21.3242V21.3281C22.0316 22.4102 21.1801 23.0977 19.7582 23.0977Z" fill="white"/>
<path d="M14.6989 23.0977C13.2535 23.0977 12.3356 22.2617 12.3356 21.0078V17.3633H13.5153V20.9023C13.5153 21.6328 13.941 22.0977 14.6989 22.0977C15.4567 22.0977 15.8785 21.6328 15.8785 20.9023V17.3633H17.0582V21.0078C17.0582 22.2578 16.152 23.0977 14.6989 23.0977Z" fill="white"/>
<path d="M7.5105 23V17.3633H9.83862C11.1042 17.3633 11.8542 18.0352 11.8542 19.168V19.1758C11.8542 19.918 11.4597 20.5352 10.8347 20.7812L12.0222 23H10.6863L9.6355 20.957H8.69019V23H7.5105ZM8.69019 20.0625H9.70972C10.2957 20.0625 10.6472 19.7305 10.6472 19.1758V19.168C10.6472 18.6289 10.2761 18.2852 9.69409 18.2852H8.69019V20.0625Z" fill="white"/>
<path d="M4.3457 23V18.3359H2.7168V17.3633H7.1582V18.3359H5.52539V23H4.3457Z" fill="white"/>
</g>
<circle cx="20" cy="20" r="19.5" stroke="black" stroke-opacity="0.05"/>
<defs>
<clipPath id="clip0_33363_66901">
<rect width="35" height="7" fill="white" transform="translate(2 17)"/>
</clipPath>
</defs>
</svg>
