<svg width="40" height="40" viewBox="0 0 40 40" fill="none" xmlns="http://www.w3.org/2000/svg">
<circle cx="20" cy="20" r="20" fill="#E60013"/>
<g clip-path="url(#clip0_18553_55636)">
<path d="M11.2252 13.7273C11.1152 13.8573 11.0052 13.9873 10.8952 14.1173L19.0852 18.7073L19.3652 18.2673L11.2252 13.7273ZM9.95516 15.5773C9.87516 15.7273 9.80516 15.8773 9.73516 16.0273L17.8952 20.5973L18.1752 20.1573L9.95516 15.5773ZM30.5452 19.8873C30.5452 18.7373 30.3252 17.6373 29.9352 16.6073L21.5952 20.7773H22.0052L21.7952 29.6173C21.9752 29.5873 22.1552 29.5373 22.3352 29.4973L22.5652 20.7773H23.1952L22.9952 29.3273C23.1952 29.2673 23.3952 29.2073 23.5952 29.1373L23.6752 22.7373C23.6852 21.6273 24.7052 20.7373 25.9352 20.7473H26.7152C27.9452 20.7673 28.9352 21.6873 28.9252 22.7973L28.8952 25.1273C29.9352 23.5973 30.5452 21.8073 30.5452 19.8673V19.8873ZM19.8152 17.9573L20.0852 18.3773L28.5252 14.1273C28.4252 13.9973 28.3252 13.8573 28.2152 13.7273L19.8052 17.9373V17.9573H19.8152ZM20.9952 19.8273L21.2752 20.2673L29.6852 16.0373C29.6152 15.8873 29.5552 15.7273 29.4752 15.5773L20.9952 19.8173V19.8273ZM18.4352 20.7873L18.2252 29.7273C18.4052 29.7473 18.5852 29.7673 18.7552 29.7773L18.9852 20.7873H18.4252H18.4352ZM17.7652 20.7873L17.5752 21.0873L9.49516 16.5973C9.43516 16.7573 9.38516 16.9173 9.33516 17.0773L17.3052 21.5373L16.9852 22.0373L9.15516 17.6873C9.11516 17.8573 9.06516 18.0273 9.03516 18.2073L14.8952 21.4773C15.9352 22.0473 16.2452 23.3073 15.6152 24.2673L15.2052 24.8773C14.5652 25.8373 13.2052 26.1573 12.1652 25.5773L10.0552 24.3973C11.5352 27.0573 14.2852 29.0173 17.5652 29.6273L17.7952 20.7973H17.7652V20.7873ZM20.8152 20.7873L20.6052 29.7773C20.7852 29.7673 20.9652 29.7373 21.1452 29.7173L21.3752 20.7873H20.8152ZM20.6752 19.3173L29.1652 15.0473C29.0752 14.9073 28.9952 14.7573 28.9052 14.6173L20.4052 18.8673L20.6852 19.3073L20.6752 19.3173ZM19.6252 20.7873L19.4152 29.8073C19.5152 29.8073 19.6052 29.8073 19.7052 29.8073C19.7852 29.8073 19.8652 29.8073 19.9452 29.7973L20.1752 20.7773H19.6152L19.6252 20.7873ZM19.6852 17.7473L19.4852 17.4273L27.7652 13.2573C27.6452 13.1273 27.5252 12.9973 27.3952 12.8773L19.1952 16.9773L18.8752 16.4773L26.8752 12.4573C26.7452 12.3473 26.6152 12.2373 26.4752 12.1273L20.1852 15.2573C19.1252 15.7873 17.7752 15.4073 17.1952 14.4173L16.8252 13.7873C16.2352 12.7973 16.6252 11.5573 17.6952 11.0273L19.8852 9.94727C19.8252 9.94727 19.7652 9.94727 19.7052 9.94727C16.5052 9.94727 13.6352 11.2273 11.6552 13.2573L19.6852 17.7573V17.7473ZM18.4952 19.6373L18.7752 19.1973L10.5352 14.6173C10.4352 14.7573 10.3452 14.8973 10.2552 15.0373L18.4852 19.6473L18.4952 19.6373Z" fill="white"/>
</g>
<circle cx="20" cy="20" r="19.5" stroke="black" stroke-opacity="0.05"/>
<defs>
<clipPath id="clip0_18553_55636">
<rect width="21.51" height="19.88" fill="white" transform="translate(9.03516 9.94727)"/>
</clipPath>
</defs>
</svg>
