<svg width="40" height="40" viewBox="0 0 40 40" fill="none" xmlns="http://www.w3.org/2000/svg">
<circle cx="20" cy="20" r="20" fill="#BA2025"/>
<g clip-path="url(#clip0_16523_10729)">
<path d="M15.136 22.9178C15.0427 22.9178 14.9344 22.9365 14.813 22.972C14.2716 23.1307 13.2708 23.2147 12.5632 23.2147C11.8556 23.2147 11.6577 23.168 11.5998 22.2065C11.5998 22.1915 11.4766 20.7259 11.5009 20.1546C11.5046 20.05 11.5139 19.9529 11.5214 19.8633C11.555 19.4563 11.5811 19.1351 11.1405 18.9074C11.1368 18.9074 11.0453 18.8812 10.9314 18.8812C10.782 18.8812 10.6588 18.926 10.5785 19.0119C10.4926 19.1034 10.4534 19.2378 10.4628 19.4096C10.4945 19.9399 10.7708 22.761 10.7727 22.7797C10.7727 22.8002 10.7727 23.267 11.12 23.6161C11.3627 23.8607 11.71 23.9839 12.1506 23.9839C12.1917 23.9839 12.2328 23.9839 12.2888 23.9802C12.3989 23.9802 13.4071 23.9727 14.9717 23.6777C15.0147 23.6702 15.3974 23.5918 15.5113 23.3771C15.5524 23.3006 15.5543 23.2166 15.5225 23.1419C15.5207 23.1325 15.4628 22.916 15.1323 22.916" fill="white"/>
<path d="M20.0951 19.8914C20.2165 19.6692 20.4685 19.2061 20.0447 18.9186C19.9233 18.8365 19.8038 18.7935 19.6862 18.7935C19.4117 18.7935 19.2213 19.0194 19.1746 19.2416L19.1672 19.2734C19.1093 19.559 18.9356 20.4272 17.4065 22.3689C17.4065 22.3689 17.2553 22.522 17.1265 22.6359C16.9229 22.2196 16.038 20.4291 15.3266 19.475C15.0316 19.0792 14.7534 18.8775 14.4995 18.8775C14.2829 18.8775 14.1709 19.0269 14.1709 19.0269C14.1653 19.0325 14.0365 19.1781 14.0533 19.3854C14.0682 19.5478 14.1653 19.699 14.3483 19.8391C14.3483 19.8391 14.5555 19.9828 14.815 20.3394C15.0988 20.7259 16.1575 22.4231 16.7642 23.6516C16.7717 23.6684 16.9304 24.0512 17.2665 24.0512C17.3636 24.0512 17.4644 24.0176 17.5652 23.9522C17.5727 23.9485 17.737 23.8346 17.6772 23.5359L17.6623 23.4369C17.6623 23.4369 17.666 23.4014 17.709 23.3604C17.8117 23.2577 18.7788 21.9059 19.6843 20.5616C19.6937 20.5467 19.9289 20.2106 20.0596 19.9548L20.0932 19.8932L20.0951 19.8914Z" fill="white"/>
<path d="M32.989 21.7267C32.9386 21.6986 32.8863 21.6837 32.8322 21.6837C32.666 21.6837 32.5409 21.8256 32.4476 21.9283C32.427 21.9507 32.4083 21.9712 32.3915 21.9899L32.3523 22.031C31.753 22.6882 30.9483 23.0635 29.9606 23.1419C29.8841 23.1475 29.8094 23.1512 29.7403 23.1512C29.2007 23.1512 28.8142 22.9795 28.5939 22.6396C28.2653 22.1355 28.3942 21.4074 28.6033 20.9369C29.0495 19.9324 29.5443 19.4451 30.1175 19.4451C30.1753 19.4451 30.2369 19.4507 30.293 19.46C30.517 19.5179 30.8456 19.6635 30.8736 19.798C30.8848 19.8484 30.8755 19.938 30.8661 20.0332C30.84 20.3152 30.7933 20.7894 31.3404 20.851C31.4281 20.851 31.8669 20.8211 31.9472 20.2349C31.9472 20.2199 32.0368 18.8215 30.4554 18.5919C30.4517 18.5919 30.362 18.5732 30.2164 18.5732C29.6526 18.5732 28.2579 18.8364 27.5129 21.2804C27.4998 21.3346 27.1806 22.6004 27.8135 23.4182C28.1514 23.8551 28.6985 24.0792 29.436 24.0792C29.5984 24.0792 29.7758 24.068 29.9588 24.0455C29.9774 24.0437 31.7455 23.7972 33.0562 22.2886C33.1328 22.1505 33.2168 21.8536 32.989 21.7267Z" fill="white"/>
<path d="M26.8388 22.9514C26.6988 22.3241 26.6036 20.6176 26.5905 19.839C26.5756 19.0642 26.2376 18.8682 26.2003 18.8476C26.0957 18.7785 25.9912 18.7449 25.8885 18.7449C25.6439 18.7449 25.4647 18.9372 25.4161 19.1295L25.4086 19.1557C25.347 19.3965 25.1622 20.1303 23.7376 21.7733C23.7376 21.7733 23.6032 21.8984 23.4874 21.9936C23.3119 21.6183 22.6024 20.1266 22.0143 19.3256C21.766 18.9858 21.5233 18.814 21.2974 18.814C21.1032 18.814 20.9968 18.9428 20.9968 18.9447C20.9893 18.9522 20.9277 19.0194 20.9015 19.1127C20.8306 19.2546 20.825 19.4077 20.8866 19.5758C20.8866 19.5776 20.9165 19.6299 20.965 19.6878C20.937 19.8913 20.7615 21.0172 20.1361 23.0205C20.1006 23.1213 19.9269 23.631 20.0296 23.829C20.0987 23.9615 20.2369 24.0455 20.3806 24.0455C20.4759 24.0455 20.6178 24.0101 20.7578 23.8364C20.7653 23.8252 20.8381 23.7132 20.8418 23.4817V23.4518C20.8443 23.3647 20.8586 23.2775 20.8847 23.1904L20.9296 23.0429C20.952 22.9701 21.0061 22.8245 21.0789 22.6322C21.2955 22.0627 21.6409 21.1441 21.766 20.4458C22.1133 20.9966 22.6939 21.9862 23.0916 22.8133C23.1906 22.9664 23.3231 23 23.4184 23C23.5434 23 23.6461 22.9421 23.6685 22.9253L23.9505 22.6172L23.9673 22.5967L23.9953 22.5668L24.1951 22.3484C24.6114 21.8835 25.2275 21.1441 25.7503 20.429C25.8493 20.7502 25.8922 21.5754 25.9202 22.1467C25.9389 22.5183 25.9557 22.8394 25.9818 22.9925C26.0453 23.3641 26.2432 23.6871 26.57 23.9522C26.6708 24.0343 26.7959 24.0829 26.9135 24.0829C27.0237 24.0829 27.1226 24.0399 27.188 23.9615C27.3205 23.8065 27.2309 23.6292 27.1581 23.5489C26.9135 23.3454 26.8369 22.9533 26.8351 22.9477" fill="white"/>
<path d="M18.8365 8.50226C17.819 8.15685 16.4747 7.96641 15.3339 8.00562C14.2454 8.04109 12.8862 8.33609 12.018 8.81219C9.86713 9.798 8.633 12.2271 8.95227 15.0855C8.95227 15.0855 9.00642 15.9108 9.02322 16.3887C9.02322 16.3887 8.96721 16.7043 9.30888 16.8163C9.65242 16.9283 9.91381 16.9731 9.89701 16.7379C9.88394 16.5437 9.77191 15.9033 9.71777 15.3899C9.45825 12.2887 10.2742 10.3264 12.285 9.22108C13.1532 8.75618 14.3836 8.66469 15.3283 8.63295C16.4037 8.59748 17.4007 8.74498 18.394 9.09038C20.0837 9.47313 23.2708 11.9321 24.2118 14.5422C24.2995 14.8185 24.3742 15.1061 24.4321 15.3899C24.475 15.6718 24.5684 16.5661 24.5516 16.807C24.5329 16.9171 24.5628 17.143 24.813 17.2046C24.8261 17.2065 24.8821 17.2177 24.953 17.2177C25.0352 17.2177 25.1379 17.2028 25.2088 17.1468C25.263 17.1038 25.291 17.0403 25.291 16.9675V16.9507C25.291 12.3802 21.3477 9.24161 18.8384 8.50599" fill="#FED106"/>
<path d="M9.89694 9.48247C9.8764 9.41152 9.82972 9.38165 9.82039 9.37978C9.77371 9.35365 9.72517 9.34058 9.67476 9.34058C9.50112 9.34058 9.38536 9.50114 9.37603 9.51235C8.4481 11.133 8.0112 12.705 8 14.4713C8.00373 14.574 8.06535 14.7663 8.27633 14.7663C8.2894 14.7663 8.30246 14.7663 8.32114 14.7625C8.40329 14.7476 8.56012 14.6542 8.56012 14.4097C8.53585 12.382 9.18559 10.9519 9.82412 9.81854C9.89881 9.68225 9.92308 9.57023 9.89881 9.48247" fill="#FED106"/>
<path d="M13.6257 15.2797C13.6257 15.2797 13.5753 15.2759 13.551 15.2741C13.0002 15.2442 12.1507 15.457 11.4151 16.146C11.4076 16.1535 11.3348 16.2356 11.3385 16.3364C11.3404 16.3906 11.3647 16.441 11.3964 16.469C11.4039 16.4802 11.4468 16.5287 11.5364 16.5343C11.613 16.5381 11.7045 16.5063 11.7978 16.4466C12.5353 16.0806 12.862 15.963 13.34 15.9892C13.3848 15.991 13.4315 15.9948 13.4782 16.0004C14.0756 16.0601 14.5741 16.2169 15.0073 16.4783C15.054 16.5063 15.1025 16.5231 15.1511 16.525C15.2668 16.5306 15.3378 16.4634 15.3452 16.4541C15.4386 16.357 15.3732 16.2113 15.2855 16.1142C14.759 15.5915 14.2007 15.3095 13.6257 15.2797Z" fill="#FED106"/>
<path d="M21.1835 14.7793C20.6756 14.8017 20.151 14.9884 19.6151 15.3301C19.7383 15.1023 19.884 14.8876 20.1528 14.4918C20.3545 14.2285 20.5879 13.9522 20.8268 13.6871C20.965 13.5975 21.148 13.4481 21.2413 13.2222C21.2413 13.2129 21.26 13.1288 21.204 13.0635C21.1779 13.0318 21.1274 12.9944 21.0192 13H21.0154C20.8175 13.043 20.6103 13.1736 20.418 13.3772C20.1678 13.5471 19.9381 13.7786 19.6749 14.1221C19.1446 14.7999 18.6424 15.7857 18.6181 16.1871L18.6032 16.4111C18.6013 16.4429 18.6181 16.4728 18.6461 16.4877C18.6573 16.4952 18.6741 16.4989 18.6872 16.4989C18.704 16.4989 18.7208 16.4914 18.732 16.4821L19.2417 16.1031C20.0427 15.627 20.7372 15.3712 21.3067 15.3469C22.2813 15.304 22.5464 15.9444 22.5632 15.9836C22.5688 15.9948 22.7256 16.2599 22.959 16.2487C22.9889 16.2487 23.0188 16.2412 23.0505 16.2319C23.0655 16.2263 23.1905 16.1759 23.2391 16.0583C23.2652 15.9929 23.2634 15.9201 23.2316 15.8529C23.1775 15.711 22.4736 14.7214 21.1835 14.7793Z" fill="#FED106"/>
<path d="M25.9016 27.0216C25.8773 27.016 25.8512 27.0123 25.8269 27.0123C25.6047 27.0067 25.5282 27.2214 25.5282 27.2289L25.4348 27.4716C25.2631 27.916 25.1137 28.2987 24.8803 28.7281C24.772 28.9279 24.6749 29.1184 24.5816 29.3032C24.4341 29.5963 24.2922 29.8745 24.1148 30.1658C24.0644 30.2535 24.0476 30.3282 24.0644 30.3954C24.0812 30.4608 24.126 30.4907 24.1298 30.4907C24.1727 30.5224 24.2212 30.5392 24.2717 30.5411C24.3911 30.5448 24.477 30.4589 24.4976 30.4365C24.6189 30.2386 24.744 30.0463 24.871 29.8521C25.0484 29.5814 25.2332 29.3013 25.4031 28.997C25.5954 28.6441 25.7373 28.2894 25.8867 27.9122C25.9557 27.7386 26.0248 27.565 26.1014 27.3783C26.1555 27.1654 25.9987 27.0515 25.9035 27.0216" fill="#FED106"/>
<path d="M24.2844 26.2449C24.2844 26.2449 24.2508 26.2431 24.2471 26.2431C24.066 26.2431 23.9988 26.3831 23.9913 26.4559C23.7075 28.7319 22.3296 30.4869 20.0126 31.6725C19.038 32.1654 18.0074 32.3932 16.7732 32.3932H16.6706C15.6007 32.3838 14.6299 32.087 13.5189 31.4335C12.1112 30.6045 11.1235 29.2939 10.4103 27.1729C10.3748 27.0478 10.3281 26.9395 10.2684 26.5829C10.2012 26.1815 10.0051 26.2188 9.91178 26.2375C9.81842 26.2561 9.61865 26.3402 9.64852 26.6109C9.67093 26.8256 9.84643 27.4119 10.035 28.0187C10.0481 28.0597 10.0593 28.1008 10.0742 28.1419C10.106 28.239 10.1321 28.3211 10.1526 28.3697V28.3659C10.7053 29.8596 11.721 31.0601 13.1101 31.9488C14.2583 32.6135 15.4719 32.9794 16.622 33.0018H16.7191C17.4921 33.0018 19.4226 32.9085 20.6474 32.0534C21.5044 31.581 24.3666 29.783 24.5346 26.5101C24.5253 26.3178 24.3983 26.2468 24.2844 26.2468" fill="#FED106"/>
<path d="M11.5139 26.0508C11.8033 27.7759 12.8433 29.4638 14.1838 30.3058C14.8298 30.7016 15.6308 30.9761 16.4392 31.0806C16.6763 31.1087 16.9135 31.1236 17.1487 31.1199C17.748 31.1124 18.4669 30.9985 18.9392 30.7913C20.7372 30.0986 21.9415 28.5919 22.1562 26.4933L22.1674 26.4242C22.2103 26.1049 22.2757 25.3058 22.2589 25.1919C22.2421 25.078 22.1973 25.009 22.1039 25.0052C22.0106 25.0015 21.723 25.0463 21.71 25.3077C21.6894 25.7259 21.5662 26.3682 21.5232 26.581C21.1293 28.3995 20.1584 29.6337 18.7432 30.2703C18.2951 30.4701 17.6808 30.5691 17.1749 30.5747C16.9881 30.5765 16.7884 30.5653 16.5849 30.5411C15.8642 30.4458 15.1566 30.1994 14.5442 29.8297C13.3455 28.9167 12.5632 27.5874 12.1468 25.7857H12.1524C12.1524 25.7857 12.0759 25.3469 12.0162 25.1863C11.9695 25.0612 11.8743 24.8801 11.7137 24.9025C11.5531 24.9249 11.3701 25.0276 11.4131 25.3394C11.4486 25.5952 11.5008 25.9313 11.5195 26.047" fill="#FED106"/>
</g>
<circle cx="20" cy="20" r="19.5" stroke="black" stroke-opacity="0.05"/>
<defs>
<clipPath id="clip0_16523_10729">
<rect width="25.1363" height="25" fill="white" transform="translate(8 8)"/>
</clipPath>
</defs>
</svg>
