<svg width="40" height="40" viewBox="0 0 40 40" fill="none" xmlns="http://www.w3.org/2000/svg">
<circle cx="20" cy="20" r="20" fill="#F6F8FA"/>
<g clip-path="url(#clip0_18553_55575)">
<path d="M30.9867 19.2801C30.8237 19.1307 30.6812 18.9746 30.5521 18.8117C30.3552 18.5741 30.2602 18.4519 30.2602 18.4519C30.1583 18.3365 30.0497 18.2143 29.9342 18.0786C29.6626 17.7663 29.3571 17.488 29.0312 17.2301C28.875 17.1147 28.6916 17.0129 28.5151 16.9382C28.4812 16.9246 28.454 16.9178 28.42 16.9178C28.4065 16.9178 28.4065 16.9178 28.4065 16.9314C28.4065 17.0536 28.4065 17.169 28.4065 17.2844C28.4065 17.6509 28.3657 18.0107 28.2774 18.3501C28.2095 18.608 28.0873 18.8592 27.9176 19.0968C27.8293 19.219 27.7478 19.3208 27.6731 19.3955C27.225 19.8503 26.8108 20.21 26.3151 20.5223C26.0707 20.6784 25.833 20.8209 25.6021 20.9499C25.0386 21.269 24.3867 21.6151 23.7213 21.9478C23.4836 22.0699 23.246 22.1786 23.0151 22.3007C22.7774 22.4229 22.5398 22.5247 22.3021 22.6401C21.8812 22.8438 21.4466 23.0474 21.0188 23.2443C20.9305 23.285 20.8491 23.3189 20.7744 23.3529C20.1836 23.6244 19.6676 23.8416 19.233 24.0249C19.104 24.0792 18.9818 24.1267 18.8595 24.181C18.717 24.2421 18.5947 24.2964 18.4861 24.3371C18.0583 24.5068 17.6305 24.663 17.2095 24.8123C17.1009 24.853 17.0805 24.8259 17.1484 24.7309C17.1824 24.6901 17.2163 24.6426 17.2571 24.5951C17.4336 24.4118 17.6034 24.2557 17.7731 24.1267C17.9293 24.0113 18.0855 23.8959 18.2484 23.8009C18.7034 23.5226 19.0904 23.3054 19.4028 23.1492C20.0954 22.8031 20.7744 22.4704 21.4602 22.1378C21.8879 21.9274 22.2682 21.7305 22.6009 21.5473C22.8114 21.4251 23.0219 21.2961 23.2256 21.1536C23.796 20.7531 24.3731 20.3458 24.896 19.9046C25.1065 19.7281 25.3237 19.538 25.5478 19.3344C25.9145 19.0018 26.2676 18.6148 26.6071 18.16C26.7497 17.97 26.8923 17.7324 27.0281 17.4609C27.2793 16.9518 27.3676 16.3408 27.096 15.8114C26.9466 15.5195 26.7157 15.2751 26.4373 15.0783C26.1725 14.895 25.9009 14.7457 25.6157 14.6303C25.1812 14.447 24.733 14.3112 24.2645 14.2026C24.1287 14.1755 23.9929 14.1415 23.8571 14.1144C23.7213 14.0872 23.5855 14.0601 23.4429 14.0397C23.117 13.9922 22.7842 13.9379 22.4651 13.9107C22.0305 13.87 21.6163 13.8225 21.1886 13.8089C20.7744 13.7953 20.367 13.7682 19.946 13.7682C19.0157 13.7546 18.0787 13.6935 17.1416 13.5849C16.7207 13.5306 16.2929 13.4831 15.8651 13.4084C14.9077 13.2455 13.9299 13.0487 13.0812 12.8043C12.8028 12.7228 12.4972 12.6278 12.1509 12.5192C12.0694 12.492 11.9879 12.4649 11.8997 12.4309C11.8182 12.4038 11.7367 12.3766 11.6484 12.3495C11.7503 12.1934 11.8454 12.0372 11.9608 11.8947C12.1849 11.6164 12.4497 11.3584 12.7484 11.1141C13.3731 10.6118 14.0725 10.1637 14.8466 9.76325C15.4713 9.43742 16.0688 9.18627 16.646 8.9962C17.0873 8.85365 17.5558 8.73147 18.0379 8.63643C18.3095 8.58213 18.5812 8.56177 18.846 8.52104C19.0089 8.49389 19.1923 8.48031 19.3892 8.47352C20.0139 8.45316 20.5774 8.45995 21.0663 8.50067C21.3176 8.52104 21.5824 8.57534 21.854 8.59571C22.0441 8.61607 22.2478 8.67716 22.4312 8.7111C22.6281 8.74504 22.8046 8.79935 22.9947 8.85365C23.0966 8.8808 23.1916 8.90796 23.2731 8.9419C23.4021 8.98941 23.5312 9.02335 23.6602 9.07087C24.2849 9.30166 24.8824 9.57318 25.4595 9.89222C25.5207 9.92616 25.5886 9.98046 25.6429 10.0144C25.8126 10.1094 25.9552 10.1909 26.0774 10.2723C26.3558 10.4624 26.6342 10.6525 26.8991 10.8629C27.2114 11.1141 27.5034 11.3652 27.7682 11.6367C27.9108 11.7725 28.0398 11.9151 28.1756 12.0508C28.3454 12.2273 28.4947 12.4174 28.6509 12.6074C28.7528 12.7296 28.8546 12.8586 28.9429 12.9943C29.0651 13.1708 29.1941 13.3473 29.3095 13.5306C29.7237 14.1823 30.0633 14.8611 30.3213 15.5534C30.4028 15.7639 30.4774 15.9811 30.5453 16.2051C30.5725 16.3001 30.5997 16.3952 30.62 16.4834C30.654 16.6124 30.6947 16.7278 30.7219 16.8567C30.7558 16.9993 30.783 17.135 30.817 17.264C30.8645 17.4541 30.8781 17.6441 30.9188 17.8274C30.946 17.9292 30.9595 18.0243 30.9663 18.1125C30.9731 18.2008 30.9799 18.3026 30.9799 18.4316C30.9799 18.7031 30.9799 18.9882 30.9935 19.2869L30.9867 19.2801ZM20.6114 9.49851C20.4077 9.38991 20.1836 9.34239 19.946 9.34239C19.817 9.34239 19.6947 9.35597 19.5657 9.39669C19.1447 9.53245 18.8052 9.76325 18.554 10.0891C18.262 10.4692 18.2009 10.9715 18.3435 11.4263C18.4793 11.8607 18.7441 12.1866 19.1379 12.4106C19.4571 12.5871 19.7966 12.6414 20.1768 12.5735C20.3534 12.5396 20.5095 12.4852 20.6589 12.4106C20.7879 12.3427 20.9102 12.2545 21.0324 12.1594C21.2361 11.9965 21.3787 11.7182 21.4534 11.4806C21.5145 11.2838 21.5281 11.0733 21.5009 10.8358C21.4398 10.3538 21.2225 9.95331 20.8558 9.64785C20.7947 9.59355 20.72 9.54603 20.6318 9.49851H20.6114Z" fill="#DE3623"/>
<path d="M20.611 9.49841C20.6993 9.54593 20.774 9.59344 20.8351 9.64775C21.2018 9.96 21.4191 10.3537 21.4802 10.8357C21.5073 11.0664 21.4937 11.2837 21.4326 11.4805C21.3579 11.7113 21.2154 11.9896 21.0116 12.1593C20.8894 12.2611 20.7672 12.3426 20.6382 12.4105C20.4956 12.4851 20.3326 12.5462 20.1561 12.5734C19.7826 12.6481 19.4363 12.5938 19.1172 12.4105C18.7234 12.1865 18.4586 11.8606 18.3228 11.4262C18.1802 10.9714 18.2413 10.4759 18.5333 10.089C18.7845 9.76314 19.124 9.53235 19.545 9.39659C19.674 9.35586 19.7962 9.34229 19.9252 9.34229C20.1629 9.34229 20.387 9.3898 20.5907 9.49841H20.611Z" fill="#0405F1"/>
<path d="M11.6278 12.3564C11.7161 12.3835 11.7975 12.4107 11.879 12.4379C11.9605 12.4718 12.0488 12.4989 12.1303 12.5261C12.4766 12.6415 12.7889 12.7365 13.0605 12.8112C13.9025 13.0556 14.8803 13.2524 15.8445 13.4153C16.2654 13.49 16.7 13.5375 17.121 13.5918C18.058 13.7072 18.9883 13.7683 19.9253 13.7751C20.3531 13.7751 20.7537 13.8022 21.1679 13.8158C21.5957 13.8362 22.0099 13.8769 22.4445 13.9176C22.7636 13.9448 23.0963 13.9991 23.4222 14.0466C23.5648 14.067 23.7006 14.0941 23.8364 14.1213C23.9654 14.1484 24.1012 14.1756 24.2438 14.2095C24.7124 14.3113 25.1673 14.4539 25.5951 14.6372C25.8735 14.7526 26.1519 14.9019 26.4167 15.0852C26.7019 15.282 26.9259 15.5264 27.0753 15.8183C27.3469 16.3478 27.2587 16.9587 27.0074 17.4678C26.8716 17.7393 26.7358 17.9701 26.5864 18.1669C26.2469 18.6217 25.8938 19.0087 25.5272 19.3413C25.3031 19.5381 25.0858 19.7282 24.8753 19.9115C24.3593 20.3527 23.7753 20.76 23.2049 21.1605C23.0012 21.303 22.7908 21.432 22.5803 21.5542C22.2475 21.7442 21.8673 21.9411 21.4395 22.1447C20.7537 22.4773 20.0747 22.8167 19.3821 23.1561C19.0698 23.3123 18.6827 23.5295 18.2278 23.8078C18.0648 23.9096 17.9019 24.0182 17.7525 24.1336C17.5827 24.2626 17.413 24.4187 17.2364 24.602C17.1957 24.6495 17.155 24.6902 17.1278 24.7378C17.0599 24.8328 17.0803 24.8599 17.1889 24.8192C17.6099 24.6699 18.0377 24.5138 18.4654 24.3441C18.5741 24.3033 18.7031 24.249 18.8389 24.1879C18.9611 24.1336 19.0833 24.0793 19.2124 24.0318C19.6469 23.8553 20.163 23.6313 20.7537 23.3598C20.8284 23.3259 20.9099 23.2851 20.9982 23.2512C21.4327 23.0543 21.8605 22.8575 22.2815 22.647C22.5124 22.5317 22.7568 22.4298 22.9945 22.3076C23.2253 22.1923 23.463 22.0769 23.7006 21.9547C24.3661 21.6153 25.0247 21.2759 25.5815 20.9568C25.8124 20.8211 26.05 20.6785 26.2945 20.5292C26.7901 20.2169 27.2043 19.8504 27.6525 19.4024C27.7272 19.3277 27.8087 19.2327 27.8969 19.1037C28.0735 18.8661 28.1889 18.615 28.2568 18.357C28.3451 18.0176 28.3858 17.6578 28.3858 17.2913C28.3858 17.1759 28.3858 17.0537 28.3858 16.9383C28.3858 16.9247 28.3858 16.9247 28.3994 16.9247C28.4333 16.9247 28.4673 16.9247 28.4945 16.9451C28.671 17.0198 28.8611 17.1216 29.0105 17.237C29.3432 17.4881 29.642 17.7732 29.9136 18.0855C30.0358 18.2213 30.1445 18.3502 30.2395 18.4588C30.2395 18.4588 30.3414 18.581 30.5315 18.8186C30.6605 18.9815 30.8099 19.1376 30.9661 19.287C30.9796 19.6875 30.9796 20.088 30.9796 20.502C30.9796 20.6174 30.9728 20.7328 30.9593 20.8482C30.9457 21.0043 30.9321 21.1537 30.8982 21.303C30.8642 21.4863 30.8574 21.6696 30.7963 21.8528C30.7284 22.0429 30.708 22.2126 30.5654 22.3823C30.5247 22.4027 30.484 22.4298 30.4432 22.4502C30.4025 22.4773 30.3617 22.4977 30.3278 22.5249C30.1512 22.6606 29.9747 22.8032 29.7982 22.9593C29.6148 23.1222 29.4926 23.2308 29.4247 23.2851C29.0784 23.5566 28.7525 23.7535 28.3315 23.9707C28.0531 24.1133 27.6864 24.283 27.2111 24.4798C27.0074 24.5613 26.7222 24.6699 26.3624 24.8056C26.1247 24.8939 25.8735 24.9686 25.629 25.0568C25.4525 25.1179 24.9636 25.2604 24.1624 25.4912C24.0333 25.5252 23.9043 25.5523 23.7821 25.5931C23.687 25.6202 23.592 25.6474 23.4969 25.6677C23.3136 25.7084 23.1303 25.7695 22.9333 25.8035C22.75 25.8374 22.5735 25.8985 22.3901 25.9257C22.2408 25.9528 22.0982 26.0003 21.9488 26.0275C21.4803 26.1225 21.0185 26.2379 20.5432 26.3465C20.3599 26.3873 20.1833 26.428 20.0272 26.4619C19.7488 26.523 19.2735 26.6452 18.6012 26.8149C18.4654 26.8488 18.3364 26.8964 18.1938 26.9303C18.0988 26.9507 17.9969 26.9846 17.8815 27.0185C17.4401 27.1543 16.9716 27.3172 16.4827 27.5141C16.0414 27.6906 15.6543 27.8263 15.3148 27.9213C15.2198 27.9485 15.1179 27.9689 14.9957 27.9824C14.8259 28.0028 14.6494 28.0503 14.4796 28.0639C14.1062 28.091 13.7259 28.1114 13.3525 28.1182C13.3457 28.1182 13.3321 28.1182 13.3253 28.125C13.2982 28.1454 13.2642 28.1589 13.2303 28.1657C13.1895 28.1386 13.1624 28.1114 13.1352 28.0775C13.1352 28.0367 13.1488 27.9485 13.1624 27.8195C13.1759 27.6634 13.2099 27.4394 13.2642 27.1407C13.305 26.9167 13.4 26.6316 13.5494 26.2922C13.6988 25.9528 13.8278 25.7017 13.9296 25.5523C14.0587 25.369 14.1741 25.179 14.3099 25.0025C14.4593 24.8124 14.6087 24.6088 14.7716 24.4323C15.1654 24.0047 15.5864 23.5906 16.0346 23.2172C16.2111 23.0747 16.3673 22.9389 16.5167 22.8167C16.6525 22.7014 16.8087 22.5927 16.958 22.4773C17.0599 22.3959 17.1685 22.3144 17.284 22.233C17.4469 22.1176 17.6099 22.0022 17.7729 21.88C17.8611 21.8121 17.9562 21.7442 18.0512 21.6831C18.5741 21.3098 19.0766 20.9568 19.5519 20.6106C19.7352 20.4817 19.9185 20.3459 20.1019 20.2034C20.6587 19.7757 21.1543 19.3481 21.5753 18.9136C21.9556 18.5267 22.3087 18.1059 22.458 17.5764C22.5531 17.2574 22.4648 16.9723 22.2543 16.7279C22.1661 16.6261 22.0438 16.5378 21.9284 16.4699C21.7519 16.3613 21.5549 16.2731 21.3445 16.2052C21.1068 16.1305 20.9167 16.0762 20.7605 16.0491C20.4957 15.9948 20.2377 15.9541 19.9796 15.9133C19.7691 15.8794 19.5179 15.8794 19.3414 15.8522C19.2191 15.8319 19.1037 15.8183 19.0087 15.8183C18.5537 15.7911 17.9969 15.7708 17.4945 15.764C17.1142 15.764 16.7272 15.7572 16.3266 15.7504C15.9735 15.7436 15.6475 15.6893 15.308 15.6554C15.1247 15.635 14.955 15.6079 14.7988 15.5739C14.6222 15.5332 14.4525 15.4925 14.2895 15.445C13.8753 15.3228 13.4883 15.1395 13.1284 14.8883C12.8296 14.6779 12.5784 14.4675 12.3815 14.2503C12.0352 13.8701 11.6685 13.4289 11.2951 12.9402C11.2611 12.8994 11.2204 12.8723 11.1729 12.8587C11.1932 12.818 11.2136 12.784 11.2408 12.7501C11.2611 12.7162 11.2883 12.6822 11.3222 12.6483C11.4241 12.5465 11.5124 12.4446 11.6006 12.3496L11.6278 12.3564Z" fill="#0405F1"/>
<path d="M11.2 12.8657C11.2475 12.8725 11.2883 12.8997 11.3222 12.9472C11.6957 13.4359 12.0623 13.8771 12.4086 14.2573C12.6056 14.4745 12.8568 14.6917 13.1556 14.8953C13.5154 15.1465 13.9025 15.3298 14.3167 15.452C14.4796 15.4995 14.6494 15.5402 14.8259 15.5809C14.9821 15.6149 15.1519 15.642 15.3352 15.6624C15.6747 15.7031 16.0006 15.7506 16.3537 15.7574C16.7543 15.7642 17.1414 15.771 17.5216 15.771C18.0241 15.771 18.5809 15.7914 19.0358 15.8253C19.1377 15.8253 19.2463 15.8457 19.3685 15.8592C19.5519 15.8864 19.7963 15.8864 20.0068 15.9203C20.2648 15.9611 20.5228 16.0018 20.7877 16.0561C20.9438 16.0832 21.1339 16.1376 21.3716 16.2122C21.5821 16.2801 21.779 16.3683 21.9556 16.477C22.071 16.5448 22.1932 16.6331 22.2815 16.7349C22.492 16.9793 22.5802 17.2644 22.4852 17.5834C22.3358 18.1129 21.9827 18.5337 21.6025 18.9206C21.1815 19.3551 20.6858 19.7827 20.129 20.2104C19.9457 20.3529 19.7623 20.4887 19.579 20.6177C19.1037 20.9571 18.6012 21.3168 18.0784 21.6902C17.9833 21.758 17.8951 21.8259 17.8 21.887C17.637 22.0024 17.4809 22.1178 17.3111 22.24C17.1957 22.3214 17.087 22.4029 16.9852 22.4844C16.8426 22.5998 16.6864 22.7084 16.5438 22.8238C16.3944 22.9459 16.2315 23.0817 16.0617 23.2243C15.6136 23.5976 15.1926 24.0117 14.7988 24.4393C14.6358 24.6158 14.4864 24.8127 14.337 25.0095C14.2012 25.186 14.079 25.3693 13.9568 25.5593C13.8481 25.7155 13.7259 25.9598 13.5765 26.2992C13.4272 26.6386 13.3321 26.9237 13.2914 27.1477C13.237 27.4464 13.2031 27.6704 13.1895 27.8265C13.1759 27.9623 13.1691 28.0438 13.1623 28.0845C12.7549 27.7994 12.3679 27.3989 12.0284 27.0527C11.6346 26.6454 11.2611 26.1703 10.9352 25.7087C10.8265 25.5525 10.7179 25.3828 10.6093 25.2064C10.392 24.8466 10.1883 24.4665 9.99815 24.066C9.71296 23.4483 9.4821 22.783 9.30556 22.0703C9.2716 21.9345 9.24444 21.792 9.21728 21.6426C9.18333 21.4458 9.1358 21.2557 9.11543 21.0589C9.06111 20.6041 9.02716 20.3122 9.02037 20.1764C8.99321 19.647 8.99321 19.1854 9.02037 18.7849C9.03395 18.6084 9.06111 18.3437 9.10185 17.9907C9.1358 17.7056 9.19691 17.4137 9.25802 17.1286C9.30556 16.8707 9.38704 16.6195 9.45494 16.3683C9.49568 16.2258 9.53642 16.0832 9.58395 15.9475C9.79444 15.3434 10.0525 14.7596 10.358 14.1826C10.4667 13.9857 10.6025 13.7753 10.7247 13.5649C10.813 13.4088 10.9759 13.178 11.2 12.8657Z" fill="#43974F"/>
<path d="M30.5863 22.3823C30.5455 22.5723 30.4912 22.7624 30.4301 22.9457C30.3418 23.1901 30.2603 23.4276 30.1585 23.672C30.0023 24.0386 29.8393 24.3712 29.6764 24.6834C29.2961 25.3894 28.8344 26.0546 28.2844 26.6927C27.9042 27.1271 27.4832 27.5412 27.0214 27.9281C26.8721 28.0571 26.7023 28.186 26.519 28.3218C26.3492 28.4508 26.193 28.5594 26.0505 28.6476C25.7653 28.8309 25.548 28.9599 25.4054 29.0413C25.127 29.1975 24.8486 29.34 24.577 29.4622C24.2782 29.598 24.0202 29.7066 23.8097 29.7812C23.6196 29.8491 23.4295 29.917 23.2393 29.9713C22.7233 30.1274 22.1937 30.2496 21.6437 30.3311C21.5282 30.3514 21.4196 30.365 21.3042 30.3718C21.0937 30.3854 20.89 30.4329 20.6795 30.4329C20.4622 30.4329 20.2585 30.46 20.0412 30.46C19.8986 30.46 19.7492 30.46 19.6066 30.4465C19.4844 30.4397 19.369 30.4329 19.2603 30.4329C19.0838 30.4329 18.9276 30.3921 18.7579 30.3786C18.3844 30.3446 17.9974 30.2768 17.5832 30.1817C17.2437 30.1003 16.9517 30.0256 16.7072 29.9509C16.3609 29.8423 15.9875 29.6998 15.5869 29.5301C14.8264 29.2042 14.0863 28.7698 13.3597 28.2336C13.3054 28.1928 13.2782 28.1725 13.2646 28.1589C13.2986 28.1589 13.3258 28.1385 13.3597 28.1182C13.3665 28.1182 13.3733 28.1114 13.3869 28.1114C13.7603 28.1046 14.1406 28.0842 14.514 28.0571C14.6906 28.0435 14.8603 27.996 15.0301 27.9756C15.1523 27.962 15.2542 27.9417 15.3492 27.9145C15.6819 27.8263 16.069 27.6905 16.5171 27.5072C17.006 27.3104 17.4677 27.1407 17.9159 27.0117C18.0245 26.9778 18.1332 26.9506 18.2282 26.9235C18.364 26.8895 18.4998 26.842 18.6356 26.8081C19.3011 26.6384 19.7764 26.5162 20.0616 26.4551C20.2245 26.4212 20.3943 26.3804 20.5776 26.3397C21.0529 26.2311 21.5146 26.1225 21.9832 26.0207C22.1326 25.9935 22.2751 25.946 22.4245 25.9188C22.6079 25.8849 22.7844 25.8238 22.9677 25.7967C23.1579 25.7627 23.3412 25.7016 23.5313 25.6609C23.6264 25.6405 23.7214 25.6134 23.8165 25.5862C23.9455 25.5523 24.0745 25.5251 24.1967 25.4844C25.0048 25.2604 25.4937 25.1179 25.6634 25.05C25.9079 24.9617 26.1591 24.8871 26.3967 24.7988C26.7634 24.6631 27.0418 24.5544 27.2455 24.473C27.714 24.2761 28.0875 24.1064 28.3659 23.9639C28.7869 23.7467 29.1128 23.5498 29.4591 23.2783C29.527 23.224 29.656 23.1154 29.8326 22.9525C30.0091 22.7963 30.1856 22.6538 30.3622 22.518C30.3961 22.4909 30.4369 22.4637 30.4776 22.4434C30.5184 22.423 30.5591 22.3959 30.5998 22.3755L30.5863 22.3823Z" fill="#43974F"/>
</g>
<circle cx="20" cy="20" r="19.5" stroke="black" stroke-opacity="0.05"/>
<defs>
<clipPath id="clip0_18553_55575">
<rect width="22" height="22" fill="white" transform="translate(9 8.47363)"/>
</clipPath>
</defs>
</svg>
