<svg width="40" height="40" viewBox="0 0 40 40" fill="none" xmlns="http://www.w3.org/2000/svg">
<circle cx="20" cy="20" r="20" fill="#1D1916"/>
<g clip-path="url(#clip0_18553_55910)">
<path d="M17.0767 16.1579C17.0258 16.1579 17.0004 16.1843 17.0004 16.237V25.167C17.0004 25.2263 16.9749 25.2527 16.9177 25.2527H12.0924C12.0542 25.2527 12.0352 25.2329 12.0352 25.1933C12.0352 22.0342 12.0352 18.8487 12.0352 15.6435C12.0352 14.3904 13.0269 13.4736 14.1967 13.4736C18.647 13.4802 22.9002 13.4802 26.9499 13.4736C27.859 13.4736 28.6855 14.12 28.9398 15.0169C29.0034 15.2412 29.0352 15.4918 29.0352 15.782C29.0352 19.007 29.0352 22.3046 29.0352 25.6814C29.0352 26.6707 28.3358 27.594 27.4331 27.7853C27.1088 27.8512 26.6257 27.8842 25.9645 27.871C25.0045 27.8578 24.0636 27.8578 23.1545 27.871C23.1036 27.871 23.0591 27.8974 23.0209 27.9304L21.8639 29.3285C21.8003 29.4077 21.7049 29.4538 21.6032 29.4538H17.0767C17.0767 29.4538 17.0385 29.4407 17.0385 29.4209C17.0385 29.4077 17.0385 29.4011 17.0512 29.3945L20.4907 25.2461C20.5288 25.1999 20.586 25.1736 20.6432 25.1736C21.6795 25.1736 22.7666 25.1736 23.8983 25.1736C23.9428 25.1736 23.9809 25.167 24.0254 25.1538C24.0509 25.1472 24.0636 25.1208 24.0636 25.101V16.2238C24.0636 16.1777 24.0445 16.1579 24 16.1579H17.0767Z" fill="white"/>
</g>
<circle cx="20" cy="20" r="19.5" stroke="black" stroke-opacity="0.05"/>
<defs>
<clipPath id="clip0_18553_55910">
<rect width="17" height="16" fill="white" transform="translate(12.0352 13.4736)"/>
</clipPath>
</defs>
</svg>
