<svg width="40" height="40" viewBox="0 0 40 40" fill="none" xmlns="http://www.w3.org/2000/svg">
<circle cx="20" cy="20" r="20" fill="#FC070F"/>
<path d="M27.3992 20.344C26.5795 21.6035 25.7627 22.8215 24.9856 24.0646C24.7341 24.4766 24.5361 24.9191 24.3965 25.3813C24.2357 25.8987 24.4498 26.1564 24.9895 26.1564C25.3115 26.1558 25.6324 26.1181 25.9458 26.044C27.4273 25.6913 28.7847 25.0373 30.1441 24.3048L29.5356 23.0133H34.0003L31.4521 26.2775L30.7942 24.9773C29.8922 25.2873 29.0105 25.638 28.1016 25.8919C26.0417 26.4674 23.9741 27.0236 21.8948 27.5226C21.3833 27.6446 20.7981 27.5797 20.27 27.4819C19.6053 27.3578 19.3525 26.8463 19.5579 26.1981C19.6501 25.9392 19.7724 25.6921 19.9222 25.4617C21.6126 22.6409 23.3049 19.8221 24.9992 17.0051C25.2041 16.6787 25.3718 16.3303 25.4992 15.9665C25.6929 15.3745 25.4536 15.0732 24.8306 15.0538C24.477 15.0431 24.1214 15.0538 23.6137 15.0538C23.8133 14.7835 23.9169 14.5422 24.0981 14.4133C25.5418 13.3834 27.1589 12.9164 28.9329 13.1567C29.773 13.271 30.2177 13.8698 30.0666 14.7166C29.951 15.3983 29.7386 16.06 29.4358 16.6815C28.8109 17.9179 28.0948 19.1067 27.3992 20.344Z" fill="white"/>
<path d="M17.7233 21.6154C16.7234 23.9582 15.2856 25.8728 12.9554 26.9666C11.7181 27.548 10.4062 27.7563 9.04296 27.5034C6.62071 27.0538 5.49 25.2304 6.21862 22.8624C6.39108 22.3024 6.72148 21.7888 6.98889 21.2598C7.18946 20.8645 7.50919 20.7143 7.89772 20.8325C7.72041 21.5631 7.46365 22.2859 7.39195 23.0271C7.34154 23.6173 7.41582 24.2115 7.60996 24.7711C7.86671 25.5133 8.48196 25.74 9.2193 25.4493C10.7376 24.8602 11.5495 23.6821 11.8751 22.1338C11.9613 21.7259 11.9816 21.3054 12.0407 20.818C13.995 21.6532 15.9628 21.4875 18.0305 20.7725C17.9065 21.1145 17.8222 21.348 17.7233 21.6154Z" fill="white"/>
<path d="M11.7774 19.2927H11.2231V17.2493L12.2066 17.2057V16.7697H11.228V16.2038H12.724V17.7327H11.852V18.7569C13.0098 18.7985 14.1773 18.8799 15.2848 18.3548C15.6966 18.161 16.024 17.8703 15.9892 17.3578C15.9543 16.8452 15.6297 16.5739 15.1927 16.4247C14.8313 16.3007 14.4525 16.2309 14.0436 16.1234L16.3283 12.5753C16.5724 12.1955 16.8428 11.8302 17.053 11.433C17.2468 11.0609 17.5065 10.9185 17.9686 11.0454L16.0076 14.1178H18.1343C19.0703 14.1178 20.0072 14.1052 20.9441 14.1255C21.2348 14.1313 21.4111 14.047 21.5652 13.7951C22.0496 12.9977 22.5661 12.2158 23.0699 11.4281C23.3518 10.9882 23.3528 10.9882 23.9535 11.0338C23.9293 11.1054 23.8995 11.1751 23.8644 11.2421C22.8703 12.7875 21.8685 14.329 20.885 15.8812C20.7329 16.1215 20.5614 16.1883 20.295 16.1835C19.5363 16.1699 18.7777 16.1631 18.019 16.1835C17.147 16.2087 16.7003 16.635 16.6897 17.3917C16.6799 17.6027 16.7304 17.8122 16.8352 17.9956C16.9401 18.179 17.0949 18.3288 17.2817 18.4274C17.8795 18.7782 18.5412 18.8063 19.2049 18.7695C19.2912 18.7646 19.39 18.6639 19.451 18.5844C19.5533 18.4592 19.635 18.3186 19.6933 18.1678C19.9965 17.2328 20.6554 17.038 21.5487 17.2841V17.911C20.8085 17.7056 20.6321 18.2986 20.3909 18.7346C20.1496 19.1706 19.856 19.3721 19.3571 19.2985C19.1042 19.2617 18.8406 19.2985 18.5819 19.2907C17.9221 19.2714 17.3224 19.3392 16.7013 19.6899C15.7489 20.2277 14.6589 20.2713 13.6008 19.9932C13.283 19.9108 13.0331 19.594 12.7191 19.4632C12.443 19.3498 12.1233 19.346 11.7774 19.2927Z" fill="white"/>
<path d="M25.8862 24.8464C25.7592 25.1051 25.6517 25.3308 25.5441 25.5595L25.3901 25.5546C25.3901 25.3405 25.3271 25.1002 25.4017 24.9171C25.6061 24.411 25.847 23.9204 26.1226 23.4492C27.4083 21.2905 28.7202 19.1483 30.004 16.9886C30.2611 16.5424 30.4802 16.0754 30.659 15.5924C30.7828 15.3025 30.8258 14.9845 30.7833 14.6721C30.7409 14.3597 30.6145 14.0646 30.4177 13.8184C31.1928 13.924 31.6608 14.6293 31.3595 15.3686C31.0615 16.0982 30.7101 16.8048 30.3082 17.4827C28.8878 19.8798 27.4364 22.2584 25.9966 24.6439C25.9627 24.701 25.9356 24.7592 25.8862 24.8464Z" fill="white"/>
<path d="M17.2894 24.2746C17.9651 23.2276 18.4344 22.0611 18.672 20.8379H19.9684C19.5275 23.1458 16.7003 26.5069 14.9805 26.7094C15.8895 26.0424 16.6715 25.2177 17.2894 24.2746Z" fill="white"/>
<path d="M14.7986 16.9034C15.002 17.0895 15.1716 17.261 15.3411 17.4315C15.1541 17.6098 14.9952 17.8491 14.7734 17.9499C14.5055 18.0555 14.2181 18.1028 13.9304 18.0884C13.5429 18.0816 13.3045 17.8501 13.2658 17.4586C13.2595 17.3696 13.2716 17.2803 13.3014 17.1961C13.3311 17.112 13.3778 17.0349 13.4386 16.9696C13.4994 16.9042 13.5729 16.8521 13.6547 16.8164C13.7365 16.7807 13.8247 16.7622 13.9139 16.762C14.1959 16.7523 14.4808 16.8385 14.7986 16.9034Z" fill="white"/>
<path d="M18.8757 16.7793C19.3136 16.9585 19.4192 17.2763 19.3059 17.6571C19.1983 18.0195 18.896 18.1416 18.5463 18.0951C18.2614 18.0687 17.983 17.9947 17.7227 17.8761C17.2993 17.6532 17.2935 17.1717 17.7295 16.9808C18.0667 16.8326 18.4688 16.8316 18.8757 16.7793Z" fill="white"/>
<circle cx="20" cy="20" r="19.5" stroke="black" stroke-opacity="0.05"/>
</svg>
