<svg width="40" height="40" viewBox="0 0 40 40" fill="none" xmlns="http://www.w3.org/2000/svg">
<circle cx="20" cy="20" r="20" fill="#4AA2BB"/>
<g clip-path="url(#clip0_18553_55650)">
<path d="M12.1829 19.5195H23.274C23.274 19.5195 23.3663 19.5007 23.3847 19.4441L23.9384 18.2375C23.9384 18.2375 23.9384 18.1998 23.9384 18.181C23.9384 18.1056 23.883 18.0679 23.8276 18.0679L12.4413 18.1056C12.4413 18.1056 12.3305 18.1433 12.3305 18.1998L12.0537 19.3875C12.0537 19.3875 12.0537 19.3875 12.0537 19.4064C12.0537 19.4818 12.1091 19.5195 12.1644 19.5195H12.1829Z" fill="white"/>
<path d="M24.3813 24.0631C24.6582 23.4975 24.9719 22.9697 25.3225 22.4606H27.0388C27.0388 22.4606 27.1864 22.4229 27.2049 22.3475C27.334 21.9328 27.4079 21.4992 27.4263 21.0467C27.4263 21.009 27.4263 20.9902 27.371 20.9902H26.0238L26.5036 19.8401C26.5221 19.7459 26.559 19.6705 26.6143 19.5951C26.6143 19.5762 26.6697 19.5574 26.6881 19.5574H26.8542H27.334C27.371 19.5574 27.4079 19.5197 27.4079 19.482C27.4079 19.1238 27.3156 18.7279 27.1864 18.332C27.1495 18.1811 27.1495 18.0303 27.1864 17.9172C27.7031 16.2393 28.0538 14.5426 28.0353 12.8082C28.0353 11.4697 27.6293 9.32048 26.0053 9.05654C25.4332 8.96228 24.7873 9.05654 24.1045 9.35818C22.7943 9.9049 21.7054 10.7533 20.672 11.7713C20.6535 11.7902 20.6351 11.8279 20.672 11.8656V11.8844H20.7089C21.5024 11.2057 22.3513 10.659 23.2187 10.2254C24.1599 9.77294 25.2856 9.67867 25.8946 10.7156C26.4667 11.677 26.4851 13.0533 26.3375 14.1844C26.1161 15.8057 25.6731 17.3893 25.0642 18.9164C24.4921 20.3115 23.92 21.4992 23.3479 22.4795C22.6282 23.7049 21.7054 24.9869 20.5613 26.3065C19.3248 27.7582 17.7746 29.1721 16.0399 29.9828C15.597 30.1902 15.1541 30.3033 14.7112 30.3598C12.9949 30.5295 12.6259 29.0213 12.6259 27.6451C12.6259 27.1172 12.6628 26.6082 12.7181 26.0992C12.755 25.7787 12.8658 25.4582 12.9027 25.1377C12.9027 25.0811 12.9027 25.0623 12.8473 25.1188C12.7919 25.1943 12.7366 25.2697 12.7181 25.3828C12.4967 26.25 12.349 27.1926 12.2752 28.1729C12.2014 29.0779 12.3121 29.9262 12.589 30.6803C13.161 32.2639 14.9511 32.2074 16.2245 31.6983C16.8335 31.4533 17.4425 31.1516 18.0146 30.7934C18.3836 30.5672 18.9004 30.1524 19.5832 29.5869C20.1922 29.0779 20.8012 28.5688 21.3917 28.0787C23.6063 27.532 25.3041 26.25 26.4851 24.2139C26.5405 24.1008 26.5221 24.0442 26.3929 24.0442H24.3629M26.7435 19.5008C26.7435 19.5008 26.7435 19.5008 26.7804 19.5008C26.7804 19.5008 26.7804 19.5008 26.762 19.5008H26.7435ZM26.6881 19.4065C26.6881 19.4065 26.6881 19.4065 26.6881 19.4254C26.6881 19.4254 26.6881 19.4254 26.6881 19.4065ZM25.8392 18.9541C25.8392 18.9541 25.8392 18.9541 25.8392 18.9352C25.8392 18.9352 25.8392 18.9352 25.8392 18.9541Z" fill="white"/>
<path d="M21.7238 22.4605C21.7238 22.4605 21.7792 22.4605 21.7792 22.4228L22.5543 21.0843C22.5543 21.0843 22.5543 21.0655 22.5543 21.0466C22.5543 21.0089 22.5174 20.9712 22.4805 20.9712H12.1091C12.0722 20.9712 12.0537 21.0089 12.0537 21.0466L12.2752 22.3851C12.2752 22.3851 12.3121 22.4417 12.349 22.4417H21.7423L21.7238 22.4605Z" fill="white"/>
<path d="M13.0314 24.0252C13.0314 24.0252 13.0129 24.0252 12.9944 24.0252C12.9575 24.0441 12.9575 24.0818 12.976 24.1195C13.8987 25.8162 15.3382 27.0793 17.1098 27.758C17.2021 27.7957 17.2943 27.7768 17.3866 27.7014C18.5308 26.6645 19.6011 25.4957 20.5792 24.1572C20.5792 24.1572 20.5977 24.1195 20.5977 24.1006C20.5977 24.0441 20.5608 24.0063 20.5054 24.0063H13.0314V24.0252Z" fill="white"/>
<path d="M24.5107 16.7293L25.0828 14.6556C23.6987 13.2605 21.7979 12.4121 19.6941 12.4121C16.686 12.4121 14.0839 14.1654 12.8105 16.7482C15.7633 16.7482 24.5107 16.7482 24.5107 16.7482V16.7293Z" fill="white"/>
</g>
<circle cx="20" cy="20" r="19.5" stroke="black" stroke-opacity="0.05"/>
<defs>
<clipPath id="clip0_18553_55650">
<rect width="16" height="23" fill="white" transform="translate(12.0352 9)"/>
</clipPath>
</defs>
</svg>
