<svg width="40" height="40" viewBox="0 0 40 40" fill="none" xmlns="http://www.w3.org/2000/svg">
<circle cx="20" cy="20" r="20" fill="#49A736"/>
<circle cx="20" cy="20" r="19.5" stroke="black" stroke-opacity="0.05"/>
<g clip-path="url(#clip0_18553_55627)">
<path d="M14.7273 22.4067C13.3992 20.96 11.4071 18.3559 11.5969 16.2341L12.5455 17.5844C13.3044 18.2595 14.4427 19.1275 15.8656 20.1884C16.7194 20.7671 17.3834 21.5387 17.9526 22.5996C18.5218 23.7569 18.8064 24.9143 18.8064 26.1681C18.8064 26.2646 18.8064 26.361 18.8064 26.1681C19.2807 24.9143 19.3755 23.564 19.1858 22.2138C18.8064 20.8635 18.1423 19.7062 17.004 18.8382C16.2451 18.2595 15.4862 17.6808 14.8222 17.1986C13.1147 15.7519 11.4071 14.1123 9.98422 12.2798H9.88936C9.69964 13.5336 9.69964 14.7874 9.88936 16.0412C10.2688 19.2239 12.166 20.96 14.7273 22.4067Z" fill="white"/>
<path d="M32.94 17.1021C31.8017 16.9092 30.6633 16.9092 29.525 17.1021C27.1534 17.4879 25.2562 18.6452 23.9282 20.5742C23.7384 20.767 23.8333 20.8635 24.023 20.5742C25.4459 19.5132 27.1534 18.8381 29.0507 18.3559C27.7226 19.5132 26.774 21.0564 26.2997 22.8889L25.2562 25.4929C24.2127 27.229 22.8847 28.4828 21.1772 29.0615C20.7977 29.2544 20.7977 29.2544 21.1772 29.1579C23.6436 28.7721 25.5408 27.6148 26.9637 25.5894L28.9558 21.9244C29.9993 19.8026 30.9479 18.163 32.94 17.0056C32.94 17.0056 32.94 17.0056 32.94 16.9092V17.1021Z" fill="white"/>
<path d="M12.1652 22.214C12.1652 22.214 12.6395 22.4069 12.4498 21.9246C11.6909 20.6708 9.79367 21.346 9.2245 20.3815C9.12964 20.1886 9.03478 20.1886 9.03478 20.3815C8.84506 22.0211 11.3115 21.5388 12.1652 22.1175V22.214Z" fill="white"/>
<path d="M23.5487 23.2749L23.8333 17.1987C24.1179 14.6911 24.9716 12.1835 27.2483 10.9297C27.5329 10.7368 27.5329 10.7368 27.2483 10.7368C25.9203 10.9297 24.7819 11.219 23.6436 11.6048C20.9875 12.4729 17.857 14.4982 17.2879 17.2952C17.2879 17.3916 17.2879 17.3916 17.2879 17.2952C18.8056 15.6556 20.608 14.4018 22.695 13.5338C21.9361 15.0769 21.5566 16.7165 21.6515 18.4526V23.1784C21.4618 24.2394 21.272 25.1074 20.9875 25.6861C20.5131 26.6505 19.6594 27.2292 18.4262 27.615C15.4855 28.483 13.3985 27.615 11.9756 25.1074C11.4064 23.6607 12.2602 23.082 13.5882 23.2749C13.9677 23.2749 13.9677 23.2749 13.5882 23.082C12.5448 22.5998 11.5013 22.5033 10.4578 22.8891C9.60406 23.1784 9.22461 23.7571 9.22461 24.818C9.50919 26.3612 10.2681 27.5185 11.5962 28.2901C14.3471 30.0262 19.3748 30.4119 21.7463 27.615C22.7898 26.4576 23.359 24.9145 23.4539 23.1784L23.5487 23.2749Z" fill="white"/>
</g>
<defs>
<clipPath id="clip0_18553_55627">
<rect width="24" height="19" fill="white" transform="translate(9.03516 10.7368)"/>
</clipPath>
</defs>
</svg>
