<svg width="40" height="40" viewBox="0 0 40 40" fill="none" xmlns="http://www.w3.org/2000/svg">
<circle cx="20" cy="20" r="20" fill="#01152F"/>
<path d="M31.5773 18.8653C31.0736 18.2596 30.0032 18.1907 29.2117 18.0258C28.6031 17.729 28.0485 17.2972 27.5508 16.7336L26.7203 13.8974C26.2196 13.3727 25.548 13.0819 24.7026 13.0219C24.2259 12.9889 23.6922 12.7431 23.0986 12.2904C22.457 11.7177 22.0882 11.0911 21.9893 10.4046C21.8034 9.12735 21.4496 7.91011 19.8576 8.00605C18.7633 8.07501 18.1846 9.06139 18.0977 10.0748C17.9478 11.8526 16.5716 12.86 14.9437 13.0669C13.1928 13.2888 13.2137 14.3501 12.875 15.7262C12.5691 16.9555 11.4718 17.9658 10.1736 18.1037C9.06134 18.2237 8.05097 18.7064 8 19.9806C8.02099 21.0389 8.50369 21.6565 9.45409 21.8364C10.3715 22.0103 11.0191 21.7225 11.3999 20.9729C11.6937 20.3973 11.7866 19.354 12.0894 18.5355C12.6831 17.5491 13.6455 16.9734 14.9736 16.8085C17.1503 16.5357 16.4787 14.6139 17.3032 13.3187C18.5354 11.3759 21.0808 11.1811 22.5799 13.0549C23.1255 13.8014 23.3144 14.6469 23.1495 15.5943C22.8017 16.7936 21.8963 17.7739 20.6611 18.0438C20.1034 18.1637 19.5878 18.1637 19.0781 18.4545C17.3991 19.4079 18.1816 21.7015 19.9805 21.8844C21.1468 22.0013 22.0462 22.49 22.6788 23.3505C23.4733 24.6666 23.4463 25.8689 22.5979 26.9632C21.0658 28.942 18.7063 28.6841 17.2192 26.6604C17.0513 26.2137 16.8445 25.8269 16.8145 25.3412C16.7305 24.073 15.8431 22.9517 14.4849 23.3325C13.5765 23.5873 13.1148 24.1959 13.1028 25.1643C13.0938 25.701 13.2797 26.1297 13.6605 26.4535C13.8913 26.6484 14.2421 26.7953 14.7128 26.8883C15.3784 27.0172 16.011 27.215 16.6136 27.4759C17.4261 28.0845 17.9268 28.87 18.1097 29.8324C18.2566 30.6179 18.3795 31.0886 18.4725 31.2415C18.7573 31.7062 19.186 31.9611 19.7646 32.0091C21.0029 32.111 21.7104 31.5084 21.8843 30.2012C22.1422 28.2554 23.2545 27.1791 25.2212 26.9692C26.6393 26.8163 27.3589 25.4192 26.6873 24.1749C26.4535 23.7432 25.9258 23.3565 25.4521 23.2905C24.5856 23.1676 23.8991 22.9757 23.3924 22.7089C21.9383 21.6505 21.4406 19.9566 22.382 18.3826C23.2994 16.8505 25.4281 16.3528 26.9242 17.4202C27.7007 18.0048 28.1384 18.6374 28.2404 19.321C28.3633 20.1485 28.5791 20.8051 28.8879 21.2907C29.5535 21.8394 30.2191 21.9653 30.8877 21.6655C32.024 21.1558 32.3568 19.7977 31.5773 18.8653Z" fill="url(#paint0_linear_16525_14429)"/>
<circle cx="20" cy="20" r="19.5" stroke="black" stroke-opacity="0.05"/>
<defs>
<linearGradient id="paint0_linear_16525_14429" x1="14.5" y1="14" x2="25" y2="25" gradientUnits="userSpaceOnUse">
<stop stop-color="#005EAF"/>
<stop offset="1" stop-color="#3DC9BB"/>
</linearGradient>
</defs>
</svg>
