<svg width="40" height="40" viewBox="0 0 40 40" fill="none" xmlns="http://www.w3.org/2000/svg">
<circle cx="20" cy="20" r="20" fill="#F6F8FA"/>
<path d="M22.1817 18.8785L23.2818 21.4523C23.3712 21.65 23.4825 21.9137 23.6129 22.2418C24.4473 24.3527 25.1053 26.5291 25.5802 28.7487C25.8248 29.8899 26.2159 32.9822 24.0435 32.5208C23.4992 32.3949 22.9904 32.1475 22.5553 31.7971L21.9986 27.4685C21.9896 27.4093 21.9852 27.3496 21.9854 27.2897C21.9854 27.2302 21.9796 27.1708 21.9678 27.1125C21.8653 26.5871 21.7491 26.0861 21.6192 25.6096C20.2211 20.3743 18.3547 15.2756 16.0425 10.375C15.7954 9.83129 15.5773 9.27484 15.3892 8.70802C15.2986 8.4521 15.2526 8.18259 15.2529 7.91114C15.2529 7.8649 15.2713 7.82057 15.304 7.78787C15.3367 7.75518 15.381 7.73682 15.4273 7.73682C15.4667 7.73666 15.505 7.75011 15.5356 7.7749C15.8045 7.99058 16.0399 8.24479 16.2344 8.52931C18.5091 11.8026 20.4989 15.2651 22.1817 18.8785Z" fill="#00ACA8"/>
<path d="M22.9947 13.227C22.1876 13.0337 21.7642 11.916 22.0484 10.7368C22.3326 9.55755 23.2203 8.74895 24.0259 8.94377C24.8331 9.13713 25.2564 10.2621 24.9722 11.434C24.6881 12.6059 23.8004 13.4218 22.9947 13.227Z" fill="#E4005A"/>
<path d="M23.2818 21.4524L22.1816 18.8772C24.2324 16.8454 26.106 14.3024 27.7291 12.0509C27.9866 11.6674 28.3227 11.3429 28.7149 11.0988C28.7571 11.0748 28.8071 11.0684 28.854 11.081C28.9009 11.0937 28.9409 11.1242 28.9654 11.1662C28.9791 11.1899 28.9871 11.2165 28.9888 11.2438C29.029 11.6324 28.9616 12.0246 28.794 12.3776C28.4561 13.154 28.1768 13.7375 27.9561 14.1281C26.5292 16.6509 24.9689 19.0958 23.2818 21.4524Z" fill="#8DC220"/>
<path d="M18.4019 25.756C17.7465 25.5697 17.0774 25.435 16.4009 25.3532C15.8785 25.296 15.3515 25.296 14.8291 25.3532C14.3174 25.403 13.794 25.4518 13.2588 25.4997C15.522 24.2062 17.5289 22.6535 19.4888 21.0099C19.4976 21.0012 19.5094 20.9963 19.5218 20.9963C19.5341 20.9963 19.546 21.0012 19.5547 21.0099C19.5598 21.0146 19.5634 21.0207 19.565 21.0275L20.3238 23.9821C20.331 24.0054 20.331 24.0304 20.3236 24.0537C20.3163 24.077 20.3021 24.0975 20.2828 24.1125L18.4019 25.756Z" fill="#07256E"/>
<path d="M18.4024 25.756C19.6662 26.1753 20.8728 26.7506 21.9943 27.4685L22.5509 31.7971C21.7034 30.9685 20.7704 30.2319 19.7677 29.5998C18.8476 29.0071 17.8374 28.5678 16.7764 28.299C15.3775 27.9548 13.7867 28.0632 12.499 28.7385C11.8897 29.0559 11.3037 29.3489 10.7412 29.6174C10.3623 29.8126 9.92488 29.8616 9.5122 29.7551C8.92625 29.6086 8.95995 28.926 9.05223 28.488C9.12827 28.2376 9.2741 28.014 9.47265 27.8435C10.0415 27.2608 10.6912 26.763 11.4019 26.3654C11.8032 26.1506 12.4204 25.8615 13.2534 25.4982C13.7896 25.4533 14.313 25.4045 14.8238 25.3517C15.3461 25.2945 15.8732 25.2945 16.3956 25.3517C17.0741 25.4337 17.7451 25.5689 18.4024 25.756Z" fill="#0F6A81"/>
<circle cx="20" cy="20" r="19.5" stroke="black" stroke-opacity="0.05"/>
</svg>
