<svg width="40" height="40" viewBox="0 0 40 40" fill="none" xmlns="http://www.w3.org/2000/svg">
<circle cx="20" cy="20" r="20" fill="#F6F8FA"/>
<path d="M24.9412 18H24.7372C24.6245 18 24.5332 18.0933 24.5332 18.2083V18.4167C24.5332 18.5317 24.6245 18.625 24.7372 18.625H24.9412C25.0538 18.625 25.1452 18.5317 25.1452 18.4167V18.2083C25.1452 18.0933 25.0538 18 24.9412 18Z" fill="#106CB6"/>
<path d="M21.6909 22.9998H21.2512C21.2512 22.9998 21.2376 22.9998 21.2376 22.9906L19.166 18.3424C19.166 18.3424 19.166 18.3239 19.1751 18.3193L19.6919 18.0785C19.6919 18.0785 19.71 18.0785 19.7145 18.0878L21.5006 22.1989C21.5006 22.1989 21.5142 22.2128 21.5232 22.2082C21.5232 22.2082 21.5278 22.2082 21.5323 22.1989L23.3365 18.0693C23.3365 18.0693 23.3501 18.0554 23.3591 18.06L23.8079 18.3008C23.8079 18.3008 23.817 18.3147 23.817 18.3239L21.7091 22.9906C21.7091 22.9906 21.7 22.9998 21.6955 22.9998H21.6909Z" fill="#106CB6"/>
<path d="M7.00363 18.1621C7.4524 18.1621 8.11423 18.1621 8.99365 18.1575C9.00272 18.1575 9.00725 18.1621 9.00725 18.1714V18.6343C9.00725 18.6343 9.00725 18.6436 8.99819 18.6436H7.28468C7.28468 18.6436 7.27561 18.6436 7.27561 18.6528V22.926C7.25295 22.926 7.16228 22.926 6.99909 22.926C6.8359 22.926 6.74071 22.926 6.71804 22.926L6.72711 18.6528C6.72711 18.6528 6.72711 18.6436 6.71804 18.6436H5.00907C5.00907 18.6436 5 18.6389 5 18.6343V18.1667C5 18.1667 5.00907 18.1528 5.0136 18.1528C5.89302 18.1575 6.55485 18.1621 7.00363 18.1621Z" fill="#106CB6"/>
<path d="M12.1714 22.4768L12.0989 22.9027C12.0989 22.9027 12.0898 22.9212 12.0807 22.9212C11.7815 22.949 11.4597 22.9444 11.1152 22.912C10.9565 22.8981 10.7933 22.8611 10.6256 22.8101C10.1315 22.6574 9.76885 22.3472 9.53313 21.8796C9.34727 21.5138 9.32007 21.1296 9.37447 20.7268C9.42434 20.3749 9.56033 20.0601 9.78698 19.7777C10.0907 19.3981 10.5576 19.2129 11.0336 19.2268C11.6501 19.2453 12.0626 19.5509 12.2756 20.1388C12.3618 20.3749 12.4071 20.6527 12.4071 20.9675C12.4071 20.9768 12.398 20.9861 12.389 20.9861H9.90484C9.90484 20.9861 9.88671 20.9953 9.88671 21.0046C9.90484 21.6249 10.1814 22.0601 10.7163 22.3101C11.1242 22.4999 11.6229 22.4814 12.1487 22.4444C12.1623 22.4444 12.1759 22.4537 12.1759 22.4675C12.1759 22.4675 12.1759 22.4675 12.1759 22.4722L12.1714 22.4768ZM9.95017 20.5879H11.8405C11.8405 20.5879 11.8631 20.5787 11.8631 20.5648C11.8133 20.1249 11.5594 19.7314 11.1016 19.6574C10.4805 19.5601 10.0816 19.9722 9.93204 20.5601C9.93204 20.5694 9.93204 20.5833 9.94564 20.5879C9.94564 20.5879 9.94564 20.5879 9.95017 20.5879Z" fill="#106CB6"/>
<path d="M28.8942 22.449C28.8942 22.449 28.9214 22.4583 28.9214 22.4722C28.9214 22.4722 28.9214 22.4722 28.9214 22.4768L28.8489 22.9027C28.8489 22.9027 28.8398 22.9212 28.8307 22.9212C28.5315 22.949 28.2097 22.9444 27.8652 22.912C27.7065 22.8981 27.5433 22.8611 27.3756 22.8101C26.8815 22.6574 26.5189 22.3472 26.2831 21.8796C26.0973 21.5138 26.0701 21.1296 26.1245 20.7268C26.1743 20.3749 26.3103 20.0601 26.537 19.7777C26.8407 19.3981 27.3076 19.2129 27.7836 19.2268C28.4001 19.2453 28.8126 19.5509 29.0257 20.1388C29.1118 20.3749 29.1571 20.6527 29.1571 20.9675C29.1571 20.9768 29.148 20.9861 29.139 20.9861H26.6548C26.6548 20.9861 26.6367 20.9953 26.6367 21.0046C26.6548 21.6249 26.9314 22.0601 27.4663 22.3101C27.8742 22.4999 28.3729 22.4814 28.8987 22.4444L28.8942 22.449ZM26.7002 20.5879H28.5905C28.5905 20.5879 28.6131 20.5787 28.6131 20.5648C28.5633 20.1249 28.3094 19.7314 27.8516 19.6574C27.2305 19.5601 26.8316 19.9722 26.682 20.5601C26.682 20.5694 26.682 20.5833 26.6956 20.5879C26.6956 20.5879 26.6956 20.5879 26.7002 20.5879Z" fill="#106CB6"/>
<path d="M13.8531 22.9308H13.3635C13.3635 22.9308 13.3408 22.9215 13.3408 22.9076V19.3382C13.3408 19.3382 13.3499 19.315 13.3635 19.315H13.8531C13.8531 19.315 13.8757 19.3243 13.8757 19.3382V19.8428C13.8757 19.8428 13.8803 19.8567 13.8893 19.8567C13.8893 19.8567 13.8893 19.8567 13.8939 19.8567C14.329 19.6067 14.7733 19.3938 15.2493 19.2456C15.2629 19.2456 15.2765 19.2456 15.2765 19.2595L15.3716 19.7132C15.3716 19.7132 15.3671 19.741 15.3535 19.7456C14.8549 19.8938 14.3653 20.0882 13.8939 20.3243C13.8803 20.3289 13.8712 20.3428 13.8712 20.3613V22.9076C13.8712 22.9076 13.8621 22.9308 13.8485 22.9308H13.8531Z" fill="#106CB6"/>
<path d="M34.5426 19.2688L34.9823 19.4354C34.9823 19.4354 35.0049 19.4586 35.0004 19.4725C34.5652 20.5697 34.1437 21.7178 33.7402 22.9076C33.7402 22.9169 33.7266 22.9262 33.713 22.9262H33.3277C33.3277 22.9262 33.3005 22.9169 33.296 22.903L32.3576 20.1576C32.3576 20.1576 32.3486 20.1484 32.3395 20.1484C32.3395 20.1484 32.3304 20.1484 32.3304 20.1576L31.3286 22.8984C31.3286 22.8984 31.3105 22.9215 31.2969 22.9215H30.9161C30.9161 22.9215 30.8844 22.9123 30.8798 22.8938C30.5716 21.9725 30.1636 20.8382 29.6514 19.4817C29.6514 19.4725 29.6514 19.4632 29.6604 19.4632L30.1319 19.2456C30.1319 19.2456 30.1591 19.2456 30.1636 19.2595L31.1156 22.1484C31.1156 22.1484 31.1246 22.1576 31.1292 22.153C31.1292 22.153 31.1337 22.153 31.1337 22.1484L32.14 19.3938C32.14 19.3938 32.1582 19.366 32.1763 19.366H32.5707C32.5707 19.366 32.5979 19.3752 32.6024 19.3891L33.509 22.1438C33.509 22.1438 33.5226 22.1576 33.5272 22.153C33.5317 22.153 33.5362 22.1484 33.5362 22.1438L34.5108 19.2734C34.5108 19.2734 34.5244 19.2595 34.5335 19.2595L34.5426 19.2688Z" fill="#106CB6"/>
<path d="M17.9787 20.565C17.956 20.3057 17.8699 20.1159 17.7157 19.9863C17.5752 19.8705 17.3984 19.7965 17.1763 19.7733C16.8635 19.7363 16.5326 19.7316 16.1836 19.7687C16.17 19.7687 16.1518 19.7594 16.1518 19.7409C16.1518 19.7409 16.1518 19.7363 16.1518 19.7316L16.2243 19.3104C16.2243 19.3104 16.2334 19.2918 16.247 19.2918C16.6731 19.2594 17.1944 19.2502 17.616 19.3752C17.9288 19.4678 18.1645 19.6391 18.3186 19.8983C18.4909 20.1761 18.5136 20.5326 18.5226 20.8844C18.5226 21.0187 18.5226 21.6992 18.5226 22.9261C18.5226 22.9354 18.5136 22.9446 18.5045 22.9446C18.1826 22.9678 17.8517 22.9816 17.5117 22.9863C17.2171 22.9863 16.9315 22.9585 16.655 22.8844C16.3286 22.7965 15.9614 22.5742 15.8209 22.2594C15.6849 21.9492 15.7257 21.5604 15.9388 21.2965C16.2243 20.9446 16.6686 20.7965 17.1128 20.7131C17.3894 20.6576 17.6749 20.6205 17.9605 20.5974C17.9741 20.5974 17.9832 20.5835 17.9832 20.5696L17.9787 20.565ZM17.9605 21.0233C17.4302 21.0742 16.4057 21.1483 16.3059 21.7687C16.2923 21.8613 16.3241 22.0974 16.4011 22.19C16.5961 22.4261 16.8998 22.5187 17.1718 22.5418C17.4528 22.5696 17.7157 22.5742 17.9651 22.5604C17.9787 22.5604 17.9877 22.5465 17.9877 22.5326V21.0465C17.9877 21.0465 17.9787 21.0187 17.9651 21.0187L17.9605 21.0233Z" fill="#106CB6"/>
<path d="M24.9818 19.3101H24.6917C24.6241 19.3101 24.5693 19.366 24.5693 19.4351V22.8008C24.5693 22.8698 24.6241 22.9258 24.6917 22.9258H24.9818C25.0494 22.9258 25.1042 22.8698 25.1042 22.8008V19.4351C25.1042 19.366 25.0494 19.3101 24.9818 19.3101Z" fill="#106CB6"/>
<circle cx="20" cy="20" r="19.5" stroke="black" stroke-opacity="0.05"/>
</svg>
